<?xml version="1.0" encoding="utf-8"?>
<!DOCTYPE svg PUBLIC "-//W3C//DTD SVG 1.1//EN" "http://www.w3.org/Graphics/SVG/1.1/DTD/svg11.dtd">
<svg viewBox="0 0 800 800" preserveAspectRatio="xMinYMin meet" xmlns="http://www.w3.org/2000/svg" version="1.1">
<g fill="none" stroke="black" stroke-linecap="round" stroke-linejoin="round" stroke-width="1.0033">
<g transform="translate(102.4712,87.52) scale(2.9902) translate(-227,-139.1333)">
<path id="0" d="M323 188.1333 C323 188.1333 316.7785 182.927 313 177.1333 C309.7091 172.0872 311.5898 169.5846 308 165.1333 C300.1343 155.3799 298.4152 153.2595 288 146.1333 C280.8073 141.212 278.7044 140.8259 270 139.1333 C261.9075 137.5598 260.1694 138.153 252 139.1333 C248.6596 139.5342 247.1885 139.9449 245 142.1333 C238.4346 148.6988 233.5945 152.578 232 159.1333 C230.4952 165.3196 231.761 171.9114 236 179.1333 C243.4924 191.8982 246.9492 194.6275 259 205.1333 C265.0626 210.4187 268.0409 208.4012 275 213.1333 C279.9077 216.4706 284 222.1333 284 222.1333 "/>
<path id="1" d="M276 212.1333 C276 212.1333 271.7481 208.5743 268 208.1333 C256.4955 206.7799 254.2934 207.365 242 208.1333 C239.104 208.3143 237.745 208.5047 236 210.1333 C231.5193 214.3154 229.4325 216.7277 227 222.1333 C225.7875 224.8277 225.8292 227.1412 227 230.1333 C229.7107 237.0608 233.9869 237.7004 236 245.1333 C239.9348 259.6618 236.4249 262.6413 240 278.1333 C242.1969 287.6534 243.5419 287.9384 248 297.1333 C251.4838 304.3188 251.3431 304.7144 256 311.1333 C269.6478 329.9452 282.006 346.3369 285 348.1333 C285.1871 348.2456 293.7087 340.9658 296 335.1333 C297.9843 330.0825 297.6281 326.4423 296 320.1333 C294.0393 312.5355 292.9726 310.9707 288 304.1333 C281.4734 295.1593 279.1898 296.1206 272 287.1333 C263.3626 276.3366 258.332 273.9995 256 264.1333 C253.2754 252.6061 256.441 242.3695 259 232.1333 C259.4298 230.4143 262.2359 228.8244 265 228.1333 C268.9487 227.1462 275 228.1333 275 228.1333 "/>
<path id="2" d="M268 229.1333 C268 229.1333 270.7589 228.4651 272 229.1333 C275.9618 231.2666 277.2192 232.1163 281 236.1333 C292.8886 248.7649 291.544 253.3639 304 263.1333 C314.7698 271.5802 318.5661 268.8271 332 276.1333 C346.8587 284.2144 347.5021 290.1504 361 294.1333 C373.5885 297.848 386.127 294.7582 393 294.1333 C393.2734 294.1085 393.6225 291.2466 394 291.1333 C395.7881 290.5969 399.2712 289.986 403 291.1333 C411.0632 293.6143 411.9961 296.3494 420 299.1333 C422.4276 299.9777 425.9139 299.3055 426 299.1333 C426.2008 298.7317 425.8326 294.1877 424 291.1333 C420.4145 285.1574 419.4888 283.1444 414 279.1333 C407.8251 274.6209 405.6535 274.1939 398 272.1333 C393.7206 270.9812 388.9191 272.6848 388 272.1333 C387.6691 271.9348 388 266.1333 388 266.1333 "/>
<path id="3" d="M389 269.1333 C389 269.1333 390.706 263.6101 392 263.1333 C396.065 261.6357 408 262.1333 408 262.1333 "/>
<path id="4" d="M315 179.1333 C315 179.1333 314.7968 172.5478 316 167.1333 C316.6563 164.18 317.2824 162.8509 319 161.1333 C320.3359 159.7975 322.6661 158.6734 324 159.1333 C332.7077 162.136 336.6178 164.304 348 171.1333 C366.3866 182.1653 367.6898 181.864 384 195.1333 C396.4915 205.2959 401.3535 209.3803 407 219.1333 C409.0308 222.6411 406.2412 233.0429 406 233.1333 C405.5368 233.307 397.038 229.6618 391 225.1333 C388.0529 222.923 389.0325 220.7868 386 218.1333 C369.7812 203.9419 365.8196 199.7833 351 190.1333 C348.7728 188.6831 344.0933 189.526 343 190.1333 C342.4837 190.4201 341.3915 194.4426 342 195.1333 C352.4109 206.9511 363.6726 213.5795 380 232.1333 C384.2371 236.9483 382.1788 239.7386 386 245.1333 C390.1628 251.0102 392.4084 252.9766 397 256.1333 C398.2368 256.9836 400.8219 255.7406 402 256.1333 C402.3927 256.2642 403.0229 258.0875 403 258.1333 C402.9847 258.1639 401 258.1333 401 258.1333 "/>
</g>
</g>
</svg>
