<?xml version="1.0" encoding="utf-8"?>
<!DOCTYPE svg PUBLIC "-//W3C//DTD SVG 1.1//EN" "http://www.w3.org/Graphics/SVG/1.1/DTD/svg11.dtd">
<svg viewBox="0 0 800 800" preserveAspectRatio="xMinYMin meet" xmlns="http://www.w3.org/2000/svg" version="1.1">
<g fill="none" stroke="black" stroke-linecap="round" stroke-linejoin="round" stroke-width="1.4257">
<g transform="translate(87.52,273.7455) scale(2.1042) translate(-198,-119.1333)">
<path id="0" d="M205 119.1333 C205 119.1333 197.8082 134.9528 198 135.1333 C198.5711 135.6709 222 135.1333 222 135.1333 "/>
<path id="1" d="M208 122.1333 C208 122.1333 220.6564 122.7044 226 125.1333 C227.9819 126.0342 228.032 130.1653 230 132.1333 C230.8945 133.0279 234.0011 133.1331 234 133.1333 C233.9958 133.1342 222.485 133.1393 220 134.1333 C219.4823 134.3404 218.6486 137.5522 219 139.1333 C219.3432 140.6777 222 143.1333 222 143.1333 "/>
<path id="2" d="M219 135.1333 C219 135.1333 218.4406 140.252 218 141.1333 C217.9322 141.2689 216.0005 141.1217 216 141.1333 C215.7505 146.4967 211.9188 167.5535 216 184.1333 C218.4619 194.1346 226.3537 196.6052 232 206.1333 C232.8968 207.6466 231.2286 209.9211 232 211.1333 C233.613 213.6681 235.905 215.5858 239 217.1333 C240.5475 217.9071 242.7632 216.283 244 217.1333 C248.5916 220.2901 249.1999 225.1504 255 228.1333 C264.6105 233.0759 267.2355 233.3812 279 235.1333 C289.8049 236.7426 290.7086 234.2116 302 235.1333 C314.9245 236.1884 315.1338 238.6447 328 239.1333 C354.0563 240.1228 358.14 240.6733 381 238.1333 C385.5911 237.6232 385.9677 233.5711 391 232.1333 C402.2306 228.9246 404.1364 231.2405 416 228.1333 C424.5778 225.8868 426.0434 225.1085 433 221.1333 C435.2715 219.8353 434.674 217.7248 437 216.1333 C443.4171 211.7427 446.3634 213.2575 452 208.1333 C461.6167 199.3909 461.0278 195.4793 470 186.1333 C472.0009 184.049 474.387 185.0396 476 183.1333 C478.842 179.7746 479.9946 177.9925 481 173.1333 C482.7499 164.6753 482 154.1333 482 154.1333 "/>
<path id="3" d="M236 132.1333 C236 132.1333 238.577 133.2873 239 134.1333 C239.4834 135.1002 238.7846 138.0103 239 138.1333 C239.6596 138.5103 243.3505 137.0735 246 138.1333 C254.327 141.4641 255.3477 146.6913 264 148.1333 C293.3299 153.0217 300.3978 151.7278 330 152.1333 C333.1186 152.1761 333.722 149.2801 337 149.1333 C364.5681 147.8989 369.0972 151.0445 397 149.1333 C403.2049 148.7083 404.1965 147.2989 410 144.1333 C414.73 141.5533 414.75 138.4933 419 137.1333 C425.1709 135.1587 427.667 137.8587 435 136.1333 C443.874 134.0453 444.2952 130.7802 453 129.1333 C461.5587 127.5141 463.0836 128.178 472 129.1333 C476.3744 129.602 477.671 130.1914 481 132.1333 C482.6516 133.0968 483.7356 134.3707 484 136.1333 C484.9506 142.4707 484.9609 145.0867 484 152.1333 C483.6151 154.956 481 158.1333 481 158.1333 "/>
<path id="4" d="M486 134.1333 C486 134.1333 490.9736 129.1128 491 129.1333 C491.3173 129.3801 494.7654 136.2074 495 141.1333 C495.1704 144.7124 493.5681 148.7078 492 150.1333 C490.7506 151.2691 484 151.1333 484 151.1333 "/>
<path id="5" d="M247 164.1333 C247 164.1333 249.7498 164.1175 251 165.1333 C256.6503 169.7242 257.117 173.2113 263 177.1333 C266.0396 179.1597 270.5697 178.3387 272 179.1333 C272.2358 179.2643 271.5398 181.7085 272 182.1333 C275.5412 185.4021 279.0891 188.6001 285 191.1333 C287.8052 192.3355 293 191.1333 293 191.1333 "/>
<path id="6" d="M470 153.1333 C470 153.1333 469.5265 161.3223 467 167.1333 C465.0118 171.7062 463.9218 172.4422 460 176.1333 C455.7948 180.0911 450 183.1333 450 183.1333 "/>
</g>
</g>
</svg>
