<?xml version="1.0" encoding="utf-8"?>
<!DOCTYPE svg PUBLIC "-//W3C//DTD SVG 1.1//EN" "http://www.w3.org/Graphics/SVG/1.1/DTD/svg11.dtd">
<svg viewBox="0 0 800 800" preserveAspectRatio="xMinYMin meet" xmlns="http://www.w3.org/2000/svg" version="1.1">
<g fill="none" stroke="black" stroke-linecap="round" stroke-linejoin="round" stroke-width="0.86886">
<g transform="translate(154.8499,87.52) scale(3.4528) translate(-187,-130)">
<path id="0" d="M267 140 L281 161 "/>
<path id="1" d="M280 139 C280 139 286.2 143.6799 290 149 C293.23 153.522 295 160 295 160 "/>
<path id="2" d="M269 145 C269 145 267.8125 141.325 267 141 C265.1945 140.2778 259.7191 141.4494 259 141 C258.7191 140.8244 258.41 136.4635 259 136 C261.8103 133.7919 266.8136 131.5466 273 130 C275.2949 129.4263 276.9256 129.8685 279 131 C281.4489 132.3358 282.6642 133.5511 284 136 C285.1315 138.0744 285 142 285 142 "/>
<path id="3" d="M271 140 C271 140 276.8927 149.9598 277 150 C277.0069 150.0026 278.9641 142.9713 279 143 C279.281 143.2248 291.9904 161.9989 292 162 C292.0038 162.0004 288 144 288 144 "/>
<path id="4" d="M294 156 C294 156 306.3764 163.4138 313 172 C318.4384 179.0498 321 191 321 191 "/>
<path id="5" d="M323 192 C323 192 327.1301 202.7154 329 213 C330.0158 218.5867 330.068 219.482 329 225 C327.2056 234.2709 327.1604 235.4603 323 244 C318.0027 254.2577 317.414 255.1958 310 264 C301.8546 273.6726 300.7115 273.3675 291 282 C287.3004 285.2886 287.3004 285.8498 283 288 C259.934 299.533 258.1588 304.3335 235 310 C214.938 314.9088 195.3234 312.9761 189 311 C188.0312 310.6972 186.498 295.277 187 295 C189.2795 293.7424 202.7673 295.9326 218 295 C226.9351 294.453 228.1468 294.7866 236 292 C242.5244 289.6849 243.9306 288.911 249 284 C259.0854 274.2297 259.7336 272.9721 268 261 C273.9287 252.4136 274.0187 251.7044 278 242 C281.8708 232.5649 282.5277 231.9788 284 222 C286.9214 202.1991 287.9671 199.6966 287 181 C286.5901 173.0762 281 164 281 164 "/>
<path id="6" d="M295 170 C295 170 298.3034 179.712 299 189 C299.7553 199.0701 300.0113 200.1263 298 210 C294.6765 226.3153 293.9972 227.2178 288 243 C284.6722 251.7574 284.2507 252.5385 279 260 C275.1662 265.4481 272.9712 264.5657 269 270 C263.8198 277.0887 264.9626 278.7215 260 286 C257.7378 289.3179 257.0433 290.3769 254 292 C250.67 293.776 245 294 245 294 "/>
</g>
</g>
</svg>
