<?xml version="1.0" encoding="utf-8"?>
<!DOCTYPE svg PUBLIC "-//W3C//DTD SVG 1.1//EN" "http://www.w3.org/Graphics/SVG/1.1/DTD/svg11.dtd">
<svg viewBox="0 0 800 800" preserveAspectRatio="xMinYMin meet" xmlns="http://www.w3.org/2000/svg" version="1.1">
<g fill="none" stroke="black" stroke-linecap="round" stroke-linejoin="round" stroke-width="1.4065">
<g transform="translate(87.52,262.4235) scale(2.133) translate(-168,-130.1333)">
<path id="0" d="M185 165.1333 C185 165.1333 181.4553 163.6967 180 164.1333 C178.0802 164.7093 175.8743 166.2391 175 168.1333 C173.6886 170.9747 175.351 173.2734 174 177.1333 C172.1072 182.5414 169.4712 184.0141 168 188.1333 C167.7042 188.9617 168.6598 191.0604 169 191.1333 C171.6916 191.7101 178.6043 192.1945 182 191.1333 C183.1917 190.7609 184.917 188.2083 185 186.1333 C185.3229 178.0603 183 166.1333 183 166.1333 "/>
<path id="1" d="M182 166.1333 C182 166.1333 212.54 178.0999 243 186.1333 C257.2729 189.8976 258.0689 189.3676 273 190.1333 C296.7275 191.3501 297.4897 191.8536 321 190.1333 C337.8682 188.8991 338.3328 188.0397 355 184.1333 C370.1152 180.5907 370.7306 180.8411 385 175.1333 C400.2886 169.0179 401.0621 168.6173 415 160.1333 C423.5176 154.9487 431 147.1333 431 147.1333 "/>
<path id="2" d="M169 194.1333 C169 194.1333 181.1395 208.8584 195 217.1333 C212.8437 227.7863 215.2532 226.7628 236 234.1333 C253.0037 240.1741 253.3553 240.3237 271 244.1333 C297.0893 249.7663 298.1234 247.5884 324 253.1333 C332.6143 254.9793 332.7546 258.1237 341 259.1333 C355.8778 260.9551 358.0344 261.4357 373 259.1333 C389.1527 256.6483 390.3589 255.2671 406 249.1333 C415.2866 245.4915 415.8394 244.8457 424 239.1333 C430.4305 234.632 433.2749 234.1727 436 228.1333 C449.6597 197.8604 451.8961 191.364 461 157.1333 C463.6966 146.994 461.7379 143.7262 461 134.1333 C460.8988 132.8179 459.1382 131.0901 459 131.1333 C456.8535 131.8041 451.8535 136.1961 445 139.1333 C442.0788 140.3853 441.0289 139.2247 438 140.1333 C436.5063 140.5814 435.2719 141.3176 435 142.1333 C434.3655 144.0368 435 149.1333 435 149.1333 "/>
<path id="3" d="M438 137.1333 L456 130.1333 "/>
<path id="4" d="M188 178.1333 C188 178.1333 193.2536 189.3398 200 194.1333 C209.7626 201.0699 213.6339 201.2469 226 205.1333 C229.7782 206.3208 230.9549 204.1037 235 205.1333 C257.2764 210.8037 258.1842 214.5124 281 219.1333 C296.6068 222.2942 301.4639 219.7006 314 221.1333 C314.8408 221.2294 315.2385 223.0971 316 223.1333 C330.5381 223.8256 339.7701 225.4055 356 223.1333 C360.4551 222.5096 360.6972 218.3768 366 216.1333 C385.7793 207.7651 392.7025 211.0767 408 201.1333 C417.9323 194.6773 416.3525 187.7455 426 177.1333 C430.7585 171.8989 432.7692 173.1026 438 168.1333 C442.4545 163.9016 442.5576 163.3981 446 158.1333 C450.9462 150.5685 455 142.1333 455 142.1333 "/>
</g>
</g>
</svg>
