<?xml version="1.0" encoding="utf-8"?>
<!DOCTYPE svg PUBLIC "-//W3C//DTD SVG 1.1//EN" "http://www.w3.org/Graphics/SVG/1.1/DTD/svg11.dtd">
<svg viewBox="0 0 800 800" preserveAspectRatio="xMinYMin meet" xmlns="http://www.w3.org/2000/svg" version="1.1">
<g fill="none" stroke="black" stroke-linecap="round" stroke-linejoin="round" stroke-width="1.5073">
<g transform="translate(200.9682,87.52) scale(1.9903) translate(-154,-90.4167)">
<path id="0" d="M209 124.4167 C209 124.4167 222.191 125.0346 233 129.4167 C257.9741 139.5413 259.4657 140.6323 283 154.4167 C293.6931 160.6798 295.1927 161.3081 303 170.4167 C315.2158 184.6684 315.8443 186.3425 325 203.4167 C334.0017 220.2036 334.0015 221.1714 340 239.4167 C345.8559 257.2284 345.8295 257.8469 349 276.4167 C352.7724 298.5124 352.7255 298.9853 354 321.4167 C355.2102 342.7166 356.1824 344.1519 354 364.4167 C352.8452 375.14 347 386.4167 347 386.4167 "/>
<path id="1" d="M211 127.4167 C211 127.4167 216.8209 137.2804 224 145.4167 C231.5516 153.9752 233.9218 152.612 241 161.4167 C253.9541 177.5304 255.4966 178.0038 265 196.4167 C286.9891 239.0206 294.1625 242.5955 305 285.4167 C313.009 317.0619 306.4331 322.9023 306 358.4167 C305.9465 362.8078 305.565 363.2432 304 367.4167 C301.1709 374.961 301.526 376.0802 297 382.4167 C289.5644 392.8265 287.7237 394.0723 279 402.4167 C277.3758 403.9703 273.9995 404.4167 274 404.4167 C274.0046 404.4161 300.9441 404.1654 322 397.4167 C336.99 392.6122 352 379.4167 352 379.4167 "/>
<path id="2" d="M213 129.4167 C213 129.4167 215.4956 125.2836 216 121.4167 C216.9016 114.5042 217.6281 112.7256 216 106.4167 C214.0393 98.8188 208.2386 91.0529 208 90.4167 C207.9906 90.3916 209.9363 90.2653 210 90.4167 C211.6292 94.286 213.6739 99.8536 216 109.4167 C218.1295 118.1712 218.2113 118.4777 219 127.4167 C219.6909 135.2472 219 143.4167 219 143.4167 C219 143.4166 218.5652 119.274 216 102.4167 C215.6529 100.136 212 97.4167 212 97.4167 "/>
<path id="3" d="M162 109.4167 C162 109.4167 264.9987 94.4171 265 94.4167 C265.0007 94.4164 236.3752 93.7073 208 94.4167 C196.5255 94.7035 195.7888 94.6185 185 96.4167 C181.5322 96.9946 181.3252 99.0949 178 99.4167 C167.0532 100.476 154.0059 99.4098 154 99.4167 C153.9976 99.4195 163.3441 105.68 172 106.4167 C207.4158 109.4308 212.9099 108.6407 248 107.4167 C252.6837 107.2533 257.9678 103.4917 258 103.4167 C258 103.4167 254.5057 101.0302 251 100.4167 C235.3003 97.6692 234.4385 97.2386 218 96.4167 C194.7286 95.2531 189.9694 95.3008 171 96.4167 C169.3144 96.5158 166.9951 99.4118 167 99.4167 C167.0443 99.461 171.0262 100.3765 175 100.4167 C220.1447 100.8727 266 100.4167 266 100.4167 C266 100.4167 176 100.4167 176 100.4167 "/>
</g>
</g>
</svg>
