<?xml version="1.0" encoding="utf-8"?>
<!DOCTYPE svg PUBLIC "-//W3C//DTD SVG 1.1//EN" "http://www.w3.org/Graphics/SVG/1.1/DTD/svg11.dtd">
<svg viewBox="0 0 800 800" preserveAspectRatio="xMinYMin meet" xmlns="http://www.w3.org/2000/svg" version="1.1">
<g fill="none" stroke="black" stroke-linecap="round" stroke-linejoin="round" stroke-width="2.1217">
<g transform="translate(87.52,316.5777) scale(1.4139) translate(-131,-187.3333)">
<path id="0" d="M131 286.3333 C131 286.3333 135.4584 287.4693 137 286.3333 C165.5876 265.2688 171.6134 257.3703 207 230.3333 C215.8378 223.5808 216.0444 222.6974 226 218.3333 C251.7574 207.0424 252.8142 205.5005 280 198.3333 C306.773 191.275 308.1921 190.8878 336 189.3333 C387.6755 186.4446 389.5694 185.7451 441 189.3333 C474.2277 191.6515 474.8208 196.958 508 201.3333 C519.6109 202.8644 532 201.3333 532 201.3333 "/>
<path id="1" d="M139 282.3333 C139 282.3333 137.4661 288.9946 138 294.3333 C138.3724 298.057 139.0902 300.2326 141 302.3333 C142.667 304.167 144.6889 305.0719 148 305.3333 C162.1837 306.4531 163.9272 306.5392 179 305.3333 C188.3938 304.5818 188.6108 302.004 198 301.3333 C216.0134 300.0467 217.513 303.9767 235 301.3333 C259.0872 297.6922 259.2903 292.765 284 288.3333 C350.7122 276.3686 352.3966 280.1994 419 268.3333 C438.6882 264.8257 438.3636 261.8284 458 257.3333 C479.6764 252.3713 481.7577 255.2101 502 249.3333 C511.1344 246.6814 512.4807 245.4301 520 239.3333 C530.1425 231.1097 528.5712 226.6138 539 219.3333 C553.5119 209.2024 573 202.3333 573 202.3333 "/>
<path id="2" d="M535 199.3333 C535 199.3333 545.752 198.5546 553 195.3333 C557.6012 193.2883 561.5754 187.1682 562 187.3333 C563.0694 187.7492 571 202.3333 571 202.3333 "/>
<path id="3" d="M148 284.3333 C148 284.3333 146 286.6844 146 288.3333 C146 293.6925 148.0004 301.3336 148 301.3333 C147.9994 301.3328 142.0142 285.3435 142 285.3333 C141.9944 285.3293 140.7191 292.6818 141 296.3333 C141.0554 297.0534 142.9962 298.3485 143 298.3333 C143.0252 298.2324 143 288.3333 143 288.3333 "/>
<path id="4" d="M149 287.3333 C149 287.3333 158.0433 288.2899 165 286.3333 C172.7979 284.1402 172.8788 281.1996 181 278.3333 C189.375 275.3774 190.4719 277.2854 199 274.3333 C216.09 268.4176 215.7806 266.4108 233 260.3333 C249.5952 254.4762 249.8235 253.2659 267 250.3333 C351.3105 235.9389 352.7682 234.4292 438 225.3333 C478.3482 221.0274 520 223.3333 520 223.3333 "/>
</g>
</g>
</svg>
