<?xml version="1.0" encoding="utf-8"?>
<!DOCTYPE svg PUBLIC "-//W3C//DTD SVG 1.1//EN" "http://www.w3.org/Graphics/SVG/1.1/DTD/svg11.dtd">
<svg viewBox="0 0 800 800" preserveAspectRatio="xMinYMin meet" xmlns="http://www.w3.org/2000/svg" version="1.1">
<g fill="none" stroke="black" stroke-linecap="round" stroke-linejoin="round" stroke-width="0.79685">
<g transform="translate(87.52,236.2304) scale(3.7648) translate(-173,-197)">
<path id="0" d="M184 205 C184 205 188.1369 214.126 194 221 C202.176 230.5857 203.0684 231.6974 213 239 C219.2072 243.5641 220.3834 243.4611 228 246 C236.4954 248.8318 237.1105 249.227 246 250 C259.566 251.1797 262.8091 252.8572 274 250 C282.8184 247.7485 284.2988 244.6009 293 238 C298.4449 233.8694 297.7472 231.6769 303 228 C306.955 225.2315 309.045 226.7685 313 224 C318.2528 220.3231 323 214 323 214 "/>
<path id="1" d="M185 208 C185 208 181.1826 211.6739 178 213 C176.2481 213.7299 173.0034 213.0169 173 213 C172.9858 212.9289 175.0419 209.1749 177 208 C178.8463 206.8922 183 207 183 207 "/>
<path id="2" d="M174 215 C174 215 182.447 226.3095 188 238 C191.6286 245.6392 189.3361 247.4686 193 255 C197.9634 265.2025 199.0955 267.4951 206 275 C209.0677 278.3345 210.9404 278.6607 216 280 C227.1969 282.9639 228.0811 283.0068 240 284 C251.7556 284.9796 253.0195 285.7875 264 284 C273.2143 282.5 274.0937 281.3445 283 277 C294.2612 271.5067 296.508 271.3962 305 264 C310.401 259.2959 311.0514 257.2939 314 250 C320.1924 234.6819 324 217 324 217 "/>
<path id="3" d="M324 216 C324 216 330.6942 198.3058 332 197 C332.1451 196.8549 337.596 199.3955 339 201 C339.5547 201.6339 339.7251 203.8605 339 205 C334.122 212.6654 326.7192 221.8237 325 223 C324.8968 223.0706 320 218 320 218 "/>
<path id="4" d="M177 210 C177 210 183.0002 208.9997 183 209 C182.9997 209.0005 176 212 176 212 "/>
</g>
</g>
</svg>
