<?xml version="1.0" encoding="utf-8"?>
<!DOCTYPE svg PUBLIC "-//W3C//DTD SVG 1.1//EN" "http://www.w3.org/Graphics/SVG/1.1/DTD/svg11.dtd">
<svg viewBox="0 0 800 800" preserveAspectRatio="xMinYMin meet" xmlns="http://www.w3.org/2000/svg" version="1.1">
<g fill="none" stroke="black" stroke-linecap="round" stroke-linejoin="round" stroke-width="1.3009">
<g transform="translate(87.52,289.306) scale(2.3061) translate(-116.8,-192.8)">
<path id="0" d="M138.8 267.8 C138.8 267.8 150.7065 260.5009 152.8 260.8 C154.1573 260.9939 158.4609 266.2089 159.8 270.8 C161.3568 276.1377 160.7731 283.9413 159.8 284.8 C158.3913 286.043 147.3704 287.0464 142.8 285.8 C140.9122 285.2851 138.191 278.731 137.8 278.8 C136.3705 279.0523 131.1401 286.2571 125.8 288.8 C122.9327 290.1653 117.1645 289.3265 116.8 288.8 C116.0395 287.7015 115.3551 278.4007 116.8 275.8 C117.9732 273.6883 121.7675 272.4012 126.8 270.8 C132.2864 269.0543 137.0374 269.6813 138.8 268.8 C139.0712 268.6644 138.3166 265.7668 138.8 264.8 C139.223 263.954 141.8 262.8 141.8 262.8 "/>
<path id="1" d="M153.8 260.8 C153.8 260.8 159.6301 258.4713 160.8 256.8 C161.5887 255.6733 159.9518 252.355 160.8 250.8 C161.9695 248.656 163.5201 247.4734 166.8 245.8 C187.2074 235.3881 194.8679 233.6054 209.8 225.8 C210.5174 225.425 210.0634 223.2353 210.8 222.8 C217.9491 218.5755 221.8341 218.4948 231.8 212.8 C242.6186 206.6179 242.3069 203.0926 252.8 198.8 C262.4722 194.8432 264.3874 195.6009 275.8 194.8 C292.4674 193.6303 305.5647 195.0491 309.8 194.8 C309.8147 194.7991 309.7908 192.8003 309.8 192.8 C316.5408 192.5503 358.1481 189.8199 363.8 192.8 C365.5051 193.699 367.7158 213.6358 364.8 221.8 C362.8949 227.1342 353.6191 229.9809 348.8 234.8 C348.3015 235.2985 349.337 237.0483 348.8 237.8 C345.5527 242.3462 344.3458 244.9179 338.8 248.8 C330.3403 254.7218 325.6974 254.5302 318.8 258.8 C318.0476 259.2658 318.3134 261.6289 317.8 261.8 C311.4682 263.9106 306.274 265.5643 294.8 266.8 C274.2218 269.0161 272.0052 265.1284 252.8 268.8 C240.0654 271.2345 239.5582 275.5473 226.8 279.8 C222.3561 281.2813 220.9802 279.3369 216.8 280.8 C211.913 282.5104 211.4425 286.1628 206.8 286.8 C189.155 289.2219 183.1885 288.556 165.8 287.8 C163.6218 287.7053 160.8 284.8 160.8 284.8 "/>
<path id="2" d="M362.8 195.8 C362.8 195.8 367.9187 195.2406 368.8 194.8 C368.9356 194.7322 368.7519 192.8096 368.8 192.8 C370.0019 192.5596 375.0988 191.813 378.8 192.8 C381.0454 193.3988 382.4732 194.5886 383.8 196.8 C386.3399 201.0332 387.9288 207.7186 387.8 207.8 C386.7671 208.4524 364.8 208.8 364.8 208.8 "/>
<path id="3" d="M162.8 272.8 C162.8 272.8 179.0016 261.6457 195.8 256.8 C229.3108 247.1334 232.384 250.5436 266.8 242.8 C271.395 241.7661 271.2516 239.7476 275.8 238.8 C294.4176 234.9213 314.8 232.8 314.8 232.8 "/>
</g>
</g>
</svg>
