<?xml version="1.0" encoding="utf-8"?>
<!DOCTYPE svg PUBLIC "-//W3C//DTD SVG 1.1//EN" "http://www.w3.org/Graphics/SVG/1.1/DTD/svg11.dtd">
<svg viewBox="0 0 800 800" preserveAspectRatio="xMinYMin meet" xmlns="http://www.w3.org/2000/svg" version="1.1">
<g fill="none" stroke="black" stroke-linecap="round" stroke-linejoin="round" stroke-width="0.92166">
<g transform="translate(128.2075,87.52) scale(3.255) translate(-162,-67.7)">
<path id="0" d="M306 111.7 C306 111.7 306.1174 122.1717 304 131.7 C301.2267 144.18 301.8594 146.2833 296 156.7 C289.3089 168.5954 287.2852 169.2005 277 179.7 C263.552 193.4282 263.0008 193.9602 248 205.7 C240.4533 211.6061 239.5709 211.986 231 215.7 C225.2548 218.1896 224.2989 218.6087 218 218.7 C190.9706 219.0917 165.6495 216.5673 162 216.7 C161.9442 216.702 161.9479 219.4375 163 220.7 C175.2263 235.3716 177.1162 238.5423 192 252.7 C196.6722 257.1443 198.4374 258.7729 204 259.7 C216.6742 261.8124 219.5441 261.1172 234 259.7 C244.3554 258.6848 245.8555 258.9336 255 254.7 C271.5748 247.0265 272.8648 245.6489 288 234.7 C295.6931 229.1348 296.5603 228.4516 302 220.7 C315.9838 200.7731 323.7613 197.5369 328 177.7 C334.4412 147.5552 327 103.7 327 103.7 "/>
<path id="1" d="M306 114.7 C306 114.7 311.9317 111.3049 312 109.7 C312.5436 96.9255 308 70.0327 308 67.7 C308 67.6445 311.9283 68.3596 312 68.7 C312.7003 72.0263 310.575 79.2901 312 86.7 C312.7094 90.3891 315.427 90.6552 317 94.7 C318.7048 99.0838 317.5621 103.2621 319 104.7 C320.4379 106.1379 329 106.7 329 106.7 "/>
</g>
</g>
</svg>
