<?xml version="1.0" encoding="utf-8"?>
<!DOCTYPE svg PUBLIC "-//W3C//DTD SVG 1.1//EN" "http://www.w3.org/Graphics/SVG/1.1/DTD/svg11.dtd">
<svg viewBox="0 0 800 800" preserveAspectRatio="xMinYMin meet" xmlns="http://www.w3.org/2000/svg" version="1.1">
<g fill="none" stroke="black" stroke-linecap="round" stroke-linejoin="round" stroke-width="1.4737">
<g transform="translate(87.52,98.7164) scale(2.0357) translate(-70,-133.4167)">
<path id="0" d="M123 353.4167 C123 353.4167 127.5994 353.894 130 352.4167 C138.8991 346.9403 139.1699 343.9701 149 337.4167 C155.3274 333.1984 157.2822 335.0624 163 330.4167 C188.1403 309.9902 192.8833 310.4743 213 285.4167 C248.0586 241.7472 245.371 233.4772 277 188.4167 C279.9679 184.1884 281.2132 183.5581 286 181.4167 C299.2079 175.5079 300.7122 174.56 315 171.4167 C324.7175 169.2788 327.0381 168.668 336 170.4167 C345.3717 172.2453 347.4269 173.7829 356 179.4167 C364.006 184.6777 366.3391 186.3026 371 193.4167 C374.4468 198.6776 374.2265 200.9911 375 208.4167 C376.6609 224.3616 377.879 225.9148 376 241.4167 C374.0517 257.4901 372.8974 258.6903 367 274.4167 C359.5827 294.1962 360.01 295.8905 349 313.4167 C336.2026 333.788 335.0765 335.8499 318 352.4167 C302.8119 367.1514 300.6205 366.6927 282 378.4167 C260.4034 392.0145 260.0526 393.2537 237 403.4167 C214.3456 413.4041 213.1762 413.768 189 419.4167 C160.448 426.0877 159.4195 425.3199 130 428.4167 C112.2812 430.2818 110.3487 431.0195 94 429.4167 C86.9016 428.7207 84.918 427.362 79 423.4167 C74.1202 420.1635 71.1636 417.8125 70 413.4167 C67.7446 404.8965 68.2678 398.3664 70 389.4167 C70.589 386.3733 72.5964 384.1532 76 382.4167 C94.5565 372.9491 99.5507 374.5015 119 364.4167 C125.0151 361.2977 126.9869 358.5255 130 354.4167 C130.8339 353.2795 130 349.4167 130 349.4167 "/>
<path id="1" d="M74 386.4167 C74 386.4167 78.9293 386.2187 79 386.4167 C79.5543 387.9687 79.9195 394.8999 79 400.4167 C78.7045 402.1899 76.5851 402.4273 76 404.4167 C74.3716 409.9533 74 417.4167 74 417.4167 "/>
<path id="2" d="M322 169.4167 C322 169.4167 326.5229 169.7378 329 168.4167 C332.8581 166.359 334.6156 165.3906 337 161.4167 C344.2339 149.3601 349.5979 133.574 350 133.4167 C350.0431 133.3998 355.2677 148.736 360 152.4167 C363.5439 155.173 376.8616 154.4628 377 154.4167 C377.0254 154.4082 374.8849 150.2331 372 148.4167 C362.4931 142.4308 350 137.4167 350 137.4167 "/>
<path id="3" d="M377 156.4167 C377 156.4167 370.5613 156.4618 366 158.4167 C360.9991 160.5599 359.9382 161.8066 356 165.4167 C354.6406 166.6628 354.1104 167.6508 354 169.4167 C353.6806 174.5269 355 181.4167 355 181.4167 "/>
<path id="4" d="M106 389.4167 C106 389.4167 114.0203 389.4109 121 387.4167 C130.9892 384.5626 131.916 384.6934 141 379.4167 C198.9537 345.7524 204.2669 345.8161 257 308.4167 C271.4445 298.1723 270.7063 294.5605 282 279.4167 C292.47 265.3773 292.9026 264.8971 301 249.4167 C309.687 232.8092 309.4311 232.1241 316 214.4167 C320.8529 201.335 324 187.4167 324 187.4167 "/>
<path id="5" d="M272 361.4167 C272 361.4167 276.723 360.6588 280 358.4167 C294.9094 348.2155 297.2814 348.1353 310 335.4167 C320.7988 324.6179 320.5572 322.7303 329 309.4167 C333.3134 302.6148 333.3795 302.0597 336 294.4167 C339.2702 284.8786 339.894 284.3707 341 274.4167 C343.3256 253.4862 343 231.4167 343 231.4167 "/>
</g>
</g>
</svg>
