<?xml version="1.0" encoding="utf-8"?>
<!DOCTYPE svg PUBLIC "-//W3C//DTD SVG 1.1//EN" "http://www.w3.org/Graphics/SVG/1.1/DTD/svg11.dtd">
<svg viewBox="0 0 800 800" preserveAspectRatio="xMinYMin meet" xmlns="http://www.w3.org/2000/svg" version="1.1">
<g fill="none" stroke="black" stroke-linecap="round" stroke-linejoin="round" stroke-width="1.4881">
<g transform="translate(87.52,198.4) scale(2.016) translate(-160.5,-174.3333)">
<path id="0" d="M180.5 209.3333 C180.5 209.3333 186.2434 203.8069 192.5 201.3333 C206.7597 195.6958 208.3799 197.6254 223.5 192.3333 C238.1995 187.1885 237.879 184.3209 252.5 180.3333 C270.004 175.5595 271.2863 174.7636 289.5 174.3333 C333.5997 173.2916 335.0408 174.1323 379.5 177.3333 C396.9612 178.5905 398.3242 178.509 414.5 183.3333 C425.6155 186.6485 429.7762 187.0492 436.5 194.3333 C450.4597 209.4564 451.0728 215.3358 462.5 235.3333 C464.3704 238.6066 464.5 239.5885 464.5 243.3333 C464.5 251.2911 465.5817 253.8765 462.5 260.3333 C456.3093 273.3042 453.8615 276.3798 443.5 287.3333 C437.709 293.4552 435.6777 293.9259 427.5 297.3333 C418.545 301.0646 417.4466 301.2784 407.5 302.3333 C385.111 304.7079 383.6576 300.6695 361.5 304.3333 C321.2593 310.9873 320.3872 316.8559 280.5 323.3333 C263.4229 326.1065 261.8303 325.286 244.5 323.3333 C227.2172 321.386 226.6005 320.29 209.5 315.3333 C192.3264 310.3555 189.6041 310.0328 175.5 303.3333 C172.1871 301.7597 170.1743 299.5364 169.5 296.3333 C166.9358 284.1536 165.9803 279.517 167.5 265.3333 C168.7764 253.4204 173.3218 252.6764 175.5 240.3333 C177.6588 228.1003 176.5 214.3333 176.5 214.3333 "/>
<path id="1" d="M464.5 257.3333 C464.5 257.3333 463.5335 268.0244 464.5 278.3333 C466.5048 299.7181 468.6469 300.208 470.5 321.3333 C471.0923 328.0856 471.2276 333.9256 469.5 335.3333 C464.9721 339.0228 456.0204 338.4011 443.5 343.3333 C423.2747 351.3009 423.8266 355.2156 403.5 361.3333 C373.5533 370.3464 371.5826 372.3062 340.5 374.3333 C281.6261 378.1729 279.3202 375.664 219.5 373.3333 C203.0944 372.6942 199.5487 372.7818 186.5 368.3333 C181.0823 366.4864 181.2383 362.3501 175.5 358.3333 C171.7382 355.7001 168.7722 356.9085 166.5 354.3333 C163.0189 350.3881 161.2237 347.4849 160.5 341.3333 C158.4935 324.2779 157.8852 317.2787 160.5 303.3333 C161.3042 299.0442 169.5 293.3333 169.5 293.3333 "/>
<path id="2" d="M227.5 267.3333 C227.5 267.3333 214.3812 275.1979 212.5 278.3333 C211.8228 279.4621 214.3106 285.8041 215.5 287.3333 C215.8265 287.7531 218.9482 287.8851 219.5 287.3333 C221.4312 285.4021 221.7607 280.5248 224.5 278.3333 C227.2842 276.106 232.5941 276.2863 234.5 275.3333 C234.6657 275.2505 234.5588 273.348 234.5 273.3333 C233.5588 273.098 228.0592 273.8531 226.5 273.3333 C226.1102 273.2034 225.5 270.3333 225.5 270.3333 "/>
<path id="3" d="M261.5 230.3333 C261.5 230.3333 269.4667 229.022 276.5 230.3333 C298.0925 234.3591 319.7586 240.9191 320.5 241.3333 C320.5817 241.379 313.7145 245.3152 310.5 249.3333 C308.7722 251.4931 309.3937 255.8865 308.5 256.3333 C306.5501 257.3083 301.6422 257.7358 296.5 256.3333 C286.4493 253.5922 284.213 252.0529 275.5 247.3333 C273.7602 246.3909 273.748 243.7493 272.5 243.3333 C269.908 242.4693 264.0625 243.8958 263.5 243.3333 C262.9375 242.7708 263.5 234.3333 263.5 234.3333 "/>
<path id="4" d="M291.5 234.3333 C291.5 234.3333 286.9003 236.1552 285.5 238.3333 C283.3742 241.6402 282.5 248.3333 282.5 248.3333 "/>
<path id="5" d="M299.5 238.3333 C299.5 238.3333 293.2907 241.7816 290.5 245.3333 C288.8001 247.4968 288.5 252.3333 288.5 252.3333 "/>
<path id="6" d="M352.5 229.3333 C352.5 229.3333 381.7374 228.4575 409.5 230.3333 C417.9017 230.901 422.3317 232.4808 426.5 234.3333 C427.1166 234.6074 427.6799 237.8836 427.5 238.3333 C427.3901 238.6082 424.8021 238.7291 424.5 239.3333 C422.9893 242.3547 422.4426 250.1738 421.5 250.3333 C409.4794 252.3676 389.7422 251.1852 359.5 250.3333 C355.0825 250.2089 350.8982 249.1795 350.5 248.3333 C349.5722 246.3617 351.5 233.3333 351.5 233.3333 "/>
<path id="7" d="M358.5 230.3333 C358.5 230.3333 360.4162 231.5369 360.5 232.3333 C361.1447 238.4582 360.5 249.3333 360.5 249.3333 "/>
<path id="8" d="M354.5 197.3333 C354.5 197.3333 319.8194 213.3658 318.5 214.3333 C318.4365 214.3799 321.5061 218.169 324.5 219.3333 C329.3154 221.206 334.4693 222.7486 336.5 221.3333 C343.8568 216.2059 357.5 196.3333 357.5 196.3333 "/>
<path id="9" d="M330.5 213.3333 C330.5 213.3333 330.4764 211.3363 330.5 211.3333 C331.2437 211.2404 338.5 212.3333 338.5 212.3333 "/>
<path id="10" d="M336.5 278.3333 C336.5 278.3333 272.7964 286.5938 270.5 287.3333 C270.374 287.3739 275.3968 292.8264 277.5 297.3333 C278.2927 299.0319 277.1875 302.0208 277.5 302.3333 C277.8125 302.6458 280.451 302.9638 282.5 302.3333 C286.2828 301.1694 286.507 299.1319 290.5 298.3333 C305.383 295.3567 308.6967 297.5187 322.5 294.3333 C325.9186 293.5444 328.8548 290.7528 329.5 289.3333 C329.9015 288.4501 327.5 283.3333 327.5 283.3333 "/>
<path id="11" d="M330.5 292.3333 C330.5 292.3333 336.3015 292.6642 336.5 292.3333 C337.0515 291.4142 336.5 282.3333 336.5 282.3333 "/>
<path id="12" d="M213.5 210.3333 C213.5 210.3333 202.139 216.8645 195.5 224.3333 C191.4429 228.8976 189.3167 237.1359 189.5 237.3333 C189.9601 237.8288 205.2103 240.044 208.5 238.3333 C210.864 237.104 210.8145 230.2868 214.5 224.3333 C216.8579 220.5244 221.5 217.8085 221.5 217.3333 C221.5 217.0618 214.5 213.3333 214.5 213.3333 "/>
<path id="13" d="M206.5 216.3333 L217.5 219.3333 "/>
<path id="14" d="M468.5 282.3333 C468.5 282.3333 430.9902 301.6682 397.5 313.3333 C390.1303 315.9003 387.8968 311.7006 379.5 313.3333 C353.0397 318.4784 352.562 322.5856 325.5 327.3333 C296.2347 332.4676 295.0973 329.1052 265.5 333.3333 C249.9371 335.5566 249.7782 337.9027 234.5 340.3333 C228.3152 341.3173 227.5825 341.4251 221.5 340.3333 C208.7472 338.0444 206.4308 338.6773 195.5 333.3333 C185.7167 328.5504 183.6323 326.6543 176.5 318.3333 C169.7911 310.5063 165.5 298.3333 165.5 298.3333 "/>
</g>
</g>
</svg>
