<?xml version="1.0" encoding="utf-8"?>
<!DOCTYPE svg PUBLIC "-//W3C//DTD SVG 1.1//EN" "http://www.w3.org/Graphics/SVG/1.1/DTD/svg11.dtd">
<svg viewBox="0 0 800 800" preserveAspectRatio="xMinYMin meet" xmlns="http://www.w3.org/2000/svg" version="1.1">
<g fill="none" stroke="black" stroke-linecap="round" stroke-linejoin="round" stroke-width="2.0737">
<g transform="translate(87.52,316.8167) scale(1.4467) translate(-114,-175.1333)">
<path id="0" d="M115 206.1333 C115 206.1333 124.5855 217.7028 130 229.1333 C132.9533 235.3682 130.669 237.4317 133 244.1333 C134.415 248.2016 134.996 248.6875 138 252.1333 C151.6802 267.8254 167 283.1333 167 283.1333 "/>
<path id="1" d="M167 283.1333 C167 283.1333 282.1169 285.7385 397 286.1333 C427.4642 286.238 427.657 284.5379 458 284.1333 C464.9543 284.0406 465.74 283.7106 472 285.1333 C475.92 286.0242 477.44 289.1333 480 289.1333 C482.56 289.1333 488 285.1333 488 285.1333 "/>
<path id="2" d="M490 286.1333 C490 286.1333 503.1952 274.5698 510 262.1333 C516.6064 250.0595 512.3263 244.6396 519 233.1333 C525.3577 222.1718 533.1215 222.0198 539 212.1333 C542.0721 206.9667 539.2988 203.2785 541 196.1333 C541.59 193.6552 544 191.1333 544 191.1333 "/>
<path id="3" d="M116 207.1333 C116 207.1333 129.8252 215.201 143 217.1333 C165.283 220.4015 176.8556 218.6991 191 218.1333 C191.6252 218.1083 192.3476 215.2149 193 215.1333 C196.8117 214.6569 200.5481 214.5204 207 216.1333 C217.8663 218.8499 217.9902 221.6617 229 224.1333 C241.8038 227.0077 242.955 224.7919 256 227.1333 C262.0245 228.2147 262.2838 231.0306 268 231.1333 C341.3863 232.4516 346.1569 232.2102 423 230.1333 C437.9239 229.73 439.0472 229.544 453 226.1333 C460.5269 224.2934 460.4525 221.3532 468 219.1333 C476.7968 216.546 478.5593 218.7529 487 216.1333 C492.0235 214.5743 491.9039 212.1275 497 210.1333 C502.8498 207.8443 504.2563 209.5949 510 207.1333 C517.5817 203.884 524.9647 198.1598 525 198.1333 C525.0049 198.1297 522.0064 198.1462 522 198.1333 C521.9957 198.1248 522.9856 196.4292 524 196.1333 C533.2113 193.4467 545.9984 191.134 546 191.1333 C546.0006 191.1331 539.2656 191.5865 537 191.1333 C536.6476 191.0628 536.2761 189.141 536 189.1333 C517.4263 188.6174 496.8207 193.0699 465 189.1333 C452.682 187.6095 451.811 180.7936 439 177.1333 C428.7388 174.2016 427.4556 175.1939 416 175.1333 C333.3614 174.6961 332.5816 174.7942 250 176.1333 C240.5327 176.2869 240.0182 176.0361 231 178.1333 C219.0189 180.9196 219.0493 183.1879 207 186.1333 C196.9108 188.5996 195.6919 186.1512 186 189.1333 C170.527 193.8943 170.7328 197.3261 155 202.1333 C135.3184 208.1471 114 211.1333 114 211.1333 "/>
<path id="4" d="M163 221.1333 C163 221.1333 163.5844 234.0553 164 236.1333 C164.0109 236.188 165.9626 236.0178 166 236.1333 C168.1314 242.7212 169.7298 253.9462 175 270.1333 C176.5167 274.7917 177.3431 276.2107 180 279.1333 C181.2839 280.5456 185 281.1333 185 281.1333 "/>
<path id="5" d="M208 220.1333 C208 220.1333 207.0533 228.6047 205 236.1333 C204.1676 239.1855 202.278 241.911 202 242.1333 C201.9857 242.1447 200.0024 240.1151 200 240.1333 C199.9761 240.3124 198.8102 249.6974 200 257.1333 C200.6047 260.9125 201.3884 262.3476 204 265.1333 C208.0702 269.4749 211.0677 268.7095 215 273.1333 C218.195 276.7277 219.0302 282.2713 220 283.1333 C220.1552 283.2713 224 281.1333 224 281.1333 "/>
<path id="6" d="M249 229.1333 C249 229.1333 250.2327 256.5267 250 260.1333 C249.9985 260.1559 247.0462 260.01 247 260.1333 C246.6712 261.01 246.2969 264.4422 247 268.1333 C248.2095 274.483 248.3925 276.2081 251 281.1333 C252.1465 283.2989 256 285.1333 256 285.1333 "/>
<path id="7" d="M290 234.1333 C290 234.1333 287.3526 233.7807 287 234.1333 C286.1772 234.9561 285.1125 236.77 285 239.1333 C284.1828 256.2949 285.6894 262.6904 285 276.1333 C284.9608 276.8972 282.99 278.1219 283 278.1333 C283.5554 278.7681 292 284.1333 292 284.1333 "/>
<path id="8" d="M343 235.1333 C343 235.1333 340.391 235.449 340 236.1333 C337.7155 240.1312 336.4686 242.6297 335 249.1333 C333.0821 257.6267 334.1055 261.8821 333 267.1333 C332.9147 267.5384 331 267.909 331 268.1333 C331 271.947 331.8925 280.1497 333 285.1333 C333.0917 285.546 335 286.1333 335 286.1333 "/>
<path id="9" d="M397 236.1333 C397 236.1333 389.7202 244.7044 385 253.1333 C383.1851 256.3741 384.3826 258.829 383 261.1333 C382.3388 262.2354 379.1776 262.4821 379 263.1333 C378.4985 264.9721 378.6369 268.7255 380 272.1333 C381.1601 275.0336 385.096 277.6056 385 278.1333 C384.8818 278.7836 379.9539 280.5282 378 283.1333 C376.3797 285.2937 376 290.1333 376 290.1333 "/>
<path id="10" d="M445 229.1333 C445 229.1333 446.815 256.8048 445 277.1333 C444.6806 280.7105 440 285.1333 440 285.1333 "/>
<path id="11" d="M495 214.1333 C495 214.1333 494.58 218.0793 493 220.1333 C490.243 223.7174 487.6128 223.2141 485 227.1333 C480.2686 234.2304 478.4596 236.2098 477 244.1333 C475.3553 253.0615 478.6054 257.8686 478 265.1333 C477.9059 266.2621 475.1663 266.9141 475 268.1333 C474.0734 274.9282 475.4925 282.2083 475 287.1333 C474.9689 287.4444 473 288.1333 473 288.1333 "/>
<path id="12" d="M263 188.1333 C263 188.1333 203.0251 206.122 203 206.1333 C202.9935 206.1363 212.812 205.1941 221 207.1333 C230.8303 209.4616 230.8784 212.2729 241 215.1333 C253.4642 218.6558 254.1277 219.2975 267 220.1333 C291.9381 221.7527 293.3436 218.6613 318 220.1333 C325.8508 220.602 326.1782 223.8565 334 224.1333 C381.0038 225.7972 387.2236 229.3997 431 224.1333 C448.1156 222.0743 453.5947 215.6953 467 208.1333 C468.9009 207.061 470.1291 202.3055 470 202.1333 C469.6988 201.7317 464.6096 202.1128 461 200.1333 C450.1942 194.2076 449.1213 188.664 439 185.1333 C431.1951 182.4107 428.0614 183.7789 418 185.1333 C402.696 187.1935 402.243 191.458 387 192.1333 C325.1713 194.8726 260 192.1333 260 192.1333 "/>
<path id="13" d="M469 202.1333 C469 202.1333 474.067 201.2842 477 199.1333 C480.6998 196.4201 481.0642 193.0905 484 191.1333 C485.1902 190.3399 489 191.1333 489 191.1333 "/>
<path id="14" d="M470 207.1333 L508 207.1333 "/>
<path id="15" d="M207 204.1333 C207 204.1333 188.5954 208.7291 174 208.1333 C166.7794 207.8386 158 202.1333 158 202.1333 "/>
<path id="16" d="M206 203.1333 C206 203.1333 190.906 206.6992 178 212.1333 C172.7436 214.3466 168 219.1333 168 219.1333 "/>
<path id="17" d="M263 191.1333 L275 176.1333 "/>
<path id="18" d="M260 191.1333 L240 179.1333 "/>
<path id="19" d="M376 192.1333 L368 175.1333 "/>
<path id="20" d="M397 190.1333 L400 176.1333 "/>
<path id="21" d="M281 222.1333 C281 222.1333 283.8728 228.1159 284 229.1333 C284.0129 229.2368 282 230.1333 282 230.1333 "/>
<path id="22" d="M255 218.1333 L255 227.1333 "/>
<path id="23" d="M401 230.1333 L400 227.1333 "/>
<path id="24" d="M439 230.1333 L435 223.1333 "/>
</g>
</g>
</svg>
