<?xml version="1.0" encoding="utf-8"?>
<!DOCTYPE svg PUBLIC "-//W3C//DTD SVG 1.1//EN" "http://www.w3.org/Graphics/SVG/1.1/DTD/svg11.dtd">
<svg viewBox="0 0 800 800" preserveAspectRatio="xMinYMin meet" xmlns="http://www.w3.org/2000/svg" version="1.1">
<g fill="none" stroke="black" stroke-linecap="round" stroke-linejoin="round" stroke-width="1.2049">
<g transform="translate(87.52,214.5039) scale(2.4899) translate(-197,-109)">
<path id="0" d="M213 109 L432 109 "/>
<path id="1" d="M213 110 C213 110 215.9625 116.9625 220 121 C223.5889 124.5889 230 127 230 127 "/>
<path id="2" d="M433 109 L423 126 "/>
<path id="3" d="M231 128 C231 128 323.7715 131.4314 401 131 C405.0991 130.9771 405.6871 127.8215 410 127 C415.3017 125.9902 422 127 422 127 "/>
<path id="4" d="M212 109 C212 109 206.328 116.791 203 125 C199.0311 134.7898 197.9638 135.7199 197 146 C195.0781 166.5005 193.0639 170.5496 197 189 C200.2416 204.1951 209.431 215.468 213 221 C213.1333 221.2066 217 220 217 220 "/>
<path id="5" d="M435 110 C435 110 443.8535 124.8686 446 139 C449.5099 162.1071 448.7362 165.7354 447 189 C446.3933 197.1304 444.8393 198.1081 441 206 C436.0198 216.237 429 226 429 226 "/>
<path id="6" d="M214 221 C214 221 223.3578 226.7173 232 227 C325.1044 230.0455 428 228 428 228 "/>
<path id="7" d="M232 229 C232 229 226.2903 239.4933 224 248 C223.2713 250.7067 223.8865 253.4093 225 255 C226.0412 256.4874 231 258 231 258 "/>
<path id="8" d="M415 228 C415 228 418.8554 233.7349 420 239 C421.1364 244.2272 421.1833 246.9767 420 251 C419.3619 253.1694 415 256 415 256 "/>
<path id="9" d="M234 258 L418 255 "/>
<path id="10" d="M208 203 C208 203 220.1978 198.2907 232 198 C319.5755 195.843 329.0847 196.2571 411 198 C415.1576 198.0885 415.7314 201.5385 420 202 C432.6713 203.3699 448 202 448 202 "/>
<path id="11" d="M206 204 L217 203 "/>
</g>
</g>
</svg>
