<?xml version="1.0" encoding="utf-8"?>
<!DOCTYPE svg PUBLIC "-//W3C//DTD SVG 1.1//EN" "http://www.w3.org/Graphics/SVG/1.1/DTD/svg11.dtd">
<svg viewBox="0 0 800 800" preserveAspectRatio="xMinYMin meet" xmlns="http://www.w3.org/2000/svg" version="1.1">
<g fill="none" stroke="black" stroke-linecap="round" stroke-linejoin="round" stroke-width="1.0609">
<g transform="translate(98.8315,87.52) scale(2.8279) translate(-162.5,-4.8333)">
<path id="0" d="M171.5 148.8333 C171.5 148.8333 189.4618 143.1856 206.5 141.8333 C219.8416 140.7745 223.912 139.3665 234.5 143.8333 C251.5865 151.0417 257.2777 158.4699 270.5 168.8333 C271.4835 169.6042 271.5 170.9434 271.5 172.8333 C271.5 178.0307 271.9311 178.9267 270.5 183.8333 C268.6306 190.2428 268.4135 191.6841 264.5 196.8333 C259.6238 203.2494 258.4755 203.7431 251.5 208.8333 C240.296 217.0093 239.2382 218.4401 227.5 223.8333 C222.2112 226.2634 219.755 226.9594 214.5 225.8333 C201.3924 223.0246 198.3003 221.3976 185.5 214.8333 C180.0994 212.0638 178.625 210.8334 175.5 205.8333 C169.5061 196.2431 170.3874 192.2321 165.5 182.8333 C164.883 181.6468 162.4593 181.2133 162.5 180.8333 C163.1462 174.8024 164.9947 166.5178 168.5 154.8333 C169.1178 152.7739 170.2249 151.562 171.5 150.8333 C172.4649 150.282 175.5 150.8333 175.5 150.8333 "/>
<path id="1" d="M185.5 156.8333 C185.5 156.8333 187.7521 154.8333 189.5 154.8333 C206.1047 154.8333 208.8565 156.8333 227.5 156.8333 C234.3687 156.8333 237.1449 154.3494 241.5 154.8333 C242.9049 154.9894 243.7414 158.1299 245.5 158.8333 C247.3842 159.587 251.3784 158.5901 251.5 158.8333 C251.8852 159.6037 251.9249 165.0336 250.5 168.8333 C249.4184 171.7175 246.3845 171.9271 245.5 174.8333 C243.4293 181.637 246.4283 189.0592 243.5 191.8333 C234.7663 200.1074 222.95 205.4731 207.5 210.8333 C203.036 212.3821 198.1706 211.4163 194.5 208.8333 C187.8854 204.1787 181.6836 198.4088 180.5 191.8333 C178.5536 181.0202 182.3206 173.9355 185.5 158.8333 C186.0258 156.3358 188.5 153.8333 188.5 153.8333 "/>
<path id="2" d="M223.5 96.8333 C223.5 96.8333 240.6676 101.5626 255.5 108.8333 C265.4343 113.7031 264.4445 116.8564 274.5 121.8333 C313.1725 140.9743 354.5 157.8333 354.5 157.8333 "/>
<path id="3" d="M241.5 75.8333 C241.5 75.8333 257.5356 77.8244 270.5 82.8333 C278.2136 85.8136 277.7785 88.8395 285.5 92.8333 C291.8488 96.1172 293.5925 94.2232 299.5 97.8333 C310.7185 104.6891 311.2593 108.8871 321.5 114.8333 C324.5784 116.6208 326.7421 114.4489 330.5 115.8333 C335.3979 117.6378 335.613 120.1229 340.5 121.8333 C344.6802 123.2964 345.8872 121.5154 350.5 122.8333 C362.8648 126.3661 375.1393 130.4267 375.5 131.8333 C376.1121 134.2207 367.2544 151.0262 360.5 161.8333 C359.6209 163.24 356.8629 163.9848 355.5 163.8333 C354.2639 163.696 351.5 160.8333 351.5 160.8333 "/>
<path id="4" d="M347.5 119.8333 C347.5 119.8333 343.0951 121.8922 340.5 124.8333 C336.0747 129.8487 335.2627 131.001 332.5 136.8333 C331.1923 139.594 331.258 141.6558 331.5 143.8333 C331.578 144.5358 333.5 145.8333 333.5 145.8333 "/>
<path id="5" d="M242.5 70.8333 C242.5 70.8333 232.3263 79.2616 224.5 87.8333 C222.4544 90.0738 221.5 93.8333 221.5 93.8333 "/>
<path id="6" d="M204.5 111.8333 L207.5 108.8333 "/>
<path id="7" d="M208.5 105.8333 L208.5 104.8333 "/>
<path id="8" d="M214.5 108.8333 L216.5 112.8333 "/>
<path id="9" d="M209.5 112.8333 L208.5 114.8333 "/>
<path id="10" d="M199.5 120.8333 L199.5 121.8333 "/>
<path id="11" d="M221.5 67.8333 C221.5 67.8333 225.0336 59.7305 227.5 57.8333 C228.7609 56.8634 233.9573 58.5241 234.5 57.8333 C236.1916 55.6805 235.6228 49.0646 238.5 43.8333 C240.2494 40.6526 244.2163 40.8676 245.5 37.8333 C248.6074 30.4885 249.5 17.8333 249.5 17.8333 "/>
<path id="12" d="M244.5 55.8333 L250.5 46.8333 "/>
<path id="13" d="M252.5 36.8333 C252.5 36.8333 256.8875 35.2083 259.5 32.8333 C261.8222 30.7223 263.5 26.8333 263.5 26.8333 "/>
<path id="14" d="M224.5 48.8333 C224.5 48.8333 219.607 44.5446 219.5 42.8333 C219.3348 40.1903 223.5 32.8333 223.5 32.8333 "/>
<path id="15" d="M231.5 39.8333 L234.5 4.8333 "/>
<path id="16" d="M210.5 62.8333 C210.5 62.8333 208.9373 58.8783 209.5 57.8333 C211.0523 54.9506 216.5414 53.12 217.5 49.8333 C218.9572 44.8371 216.5 33.8333 216.5 33.8333 "/>
<path id="17" d="M232.5 76.8333 C232.5 76.8333 228.7716 77.6446 226.5 76.8333 C222.7952 75.5102 218.5 71.8333 218.5 71.8333 "/>
<path id="18" d="M214.5 82.8333 C214.5 82.8333 199.4631 75.5557 194.5 71.8333 C193.9729 71.438 194.5 67.8333 194.5 67.8333 "/>
</g>
</g>
</svg>
