<?xml version="1.0" encoding="utf-8"?>
<!DOCTYPE svg PUBLIC "-//W3C//DTD SVG 1.1//EN" "http://www.w3.org/Graphics/SVG/1.1/DTD/svg11.dtd">
<svg viewBox="0 0 800 800" preserveAspectRatio="xMinYMin meet" xmlns="http://www.w3.org/2000/svg" version="1.1">
<g fill="none" stroke="black" stroke-linecap="round" stroke-linejoin="round" stroke-width="0.68644">
<g transform="translate(87.52,227.3712) scale(4.3703) translate(-188,-125.1333)">
<path id="0" d="M188 153.1333 C188 153.1333 192.1972 156.3236 193 159.1333 C194.6519 164.9149 191.8357 168.2307 194 174.1333 C196.6291 181.3035 198.1982 185.3094 204 189.1333 C216.6115 197.4455 221.442 199.5338 238 203.1333 C253.7418 206.5555 258.4174 207.3233 273 204.1333 C286.5344 201.1727 289.0376 197.9478 302 189.1333 C313.2164 181.5062 317.6877 179.2085 323 170.1333 C327.0329 163.2438 326 148.1333 326 148.1333 "/>
<path id="1" d="M188 153.1333 C188 153.1333 199.6718 162.8275 210 164.1333 C238.7006 167.7621 243.4333 165.6732 275 164.1333 C283.3507 163.726 284.5479 163.5932 292 160.1333 C311.4489 151.1035 330.1057 138.2058 331 138.1333 C331.0776 138.127 329 157.1333 329 157.1333 "/>
<path id="2" d="M188 153.1333 C188 153.1333 195.9852 141.3014 205 135.1333 C213.1409 129.5633 215.8535 128.5329 226 127.1333 C242.9847 124.7906 246.441 127.9411 263 127.1333 C264.8338 127.0439 265.2414 125.1333 267 125.1333 C288.5434 125.1333 296.771 122.927 316 127.1333 C322.8553 128.6329 329.4724 135.2448 331 139.1333 C332.2319 142.269 327.0002 155.1334 327 155.1333 C326.9989 155.1331 326 138.1333 326 138.1333 "/>
</g>
</g>
</svg>
