<?xml version="1.0" encoding="utf-8"?>
<!DOCTYPE svg PUBLIC "-//W3C//DTD SVG 1.1//EN" "http://www.w3.org/Graphics/SVG/1.1/DTD/svg11.dtd">
<svg viewBox="0 0 800 800" preserveAspectRatio="xMinYMin meet" xmlns="http://www.w3.org/2000/svg" version="1.1">
<g fill="none" stroke="black" stroke-linecap="round" stroke-linejoin="round" stroke-width="0.69124">
<g transform="translate(100.54,87.52) scale(4.34) translate(-174,-150)">
<path id="0" d="M177 173 C177 173 174.3496 177.1546 174 181 C172.9436 192.6207 172.7319 194.2703 174 206 C174.6306 211.8331 175.3041 212.8779 178 218 C179.9414 221.6887 181.0536 223.9197 184 225 C192.759 228.2116 196.0837 228.1921 208 229 C225.1837 230.165 226.2814 230.5772 243 229 C251.8235 228.1676 252.5445 227.2731 261 224 C267.6631 221.4207 268.3495 221.2807 274 217 C284.3843 209.1331 285.3485 208.0277 294 199 C296.0659 196.8443 296.6323 195.8192 297 193 C297.9781 185.5013 299.2755 181.4262 297 176 C294.3963 169.7912 290.906 165.3853 284 162 C268.9132 154.6045 264.7345 153.5547 246 151 C222.2207 147.7574 220.896 150 196 150 C189.0291 150 188.0886 149.7182 182 151 C179.5871 151.508 177.0452 153.0848 177 154 C175.915 175.9713 175.1069 194.3899 178 232 C178.9834 244.7837 183.0893 245.0495 185 258 C187.4947 274.9086 185.0455 292.2268 187 293 C198.0265 297.3621 231.8845 295.0673 276 294 C293.4015 293.579 305.171 292.2668 311 290 C311.7796 289.6968 312.7813 284.4925 312 280 C309.0131 262.8251 304.3483 261.5283 303 244 C300.9846 217.7994 306.6946 211.0293 305 189 C304.6744 184.7672 298 179 298 179 "/>
</g>
</g>
</svg>
