<?xml version="1.0" encoding="utf-8"?>
<!DOCTYPE svg PUBLIC "-//W3C//DTD SVG 1.1//EN" "http://www.w3.org/Graphics/SVG/1.1/DTD/svg11.dtd">
<svg viewBox="0 0 800 800" preserveAspectRatio="xMinYMin meet" xmlns="http://www.w3.org/2000/svg" version="1.1">
<g fill="none" stroke="black" stroke-linecap="round" stroke-linejoin="round" stroke-width="0.81605">
<g transform="translate(87.52,137.1492) scale(3.6762) translate(-100,-108.4167)">
<path id="0" d="M103 186.4167 C103 186.4167 107.0921 182.6814 109 178.4167 C115.236 164.4775 112.4489 159.7432 120 148.4167 C126.4723 138.7082 140.207 130.6925 141 130.4167 C141.043 130.4017 141.24 137.9527 143 140.4167 C144.496 142.5111 147.2027 143.404 151 144.4167 C153.9318 145.1985 156.3944 145.2195 158 144.4167 C159.2615 143.7859 160.5355 141.739 161 139.4167 C161.8294 135.2697 160.6427 129.5403 161 129.4167 C163.6477 128.5002 176.1227 126.8975 187 130.4167 C207.1625 136.9398 214.1705 140.5215 229 151.4167 C233.6533 154.8354 232.2023 160.2023 236 166.4167 C237.0725 168.1717 239.36 168.1367 240 169.4167 C240.64 170.6967 239.3557 173.3858 240 174.4167 C240.7893 175.6795 245.0046 177.4109 245 177.4167 C244.9577 177.4695 236.6236 178.5593 236 179.4167 C235.3963 180.2467 235.7748 185.9663 237 188.4167 C237.7093 189.8353 239.6047 190.9604 242 191.4167 C248.9608 192.7425 256.1377 191.4855 258 192.4167 C258.395 192.6142 256.8374 197.1883 258 199.4167 C261.6974 206.5033 267.0952 208.1546 270 215.4167 C271.9552 220.3046 270.9213 223.2744 270 229.4167 C269.5755 232.2465 268.932 233.4847 267 235.4167 C264.2093 238.2073 263.128 239.139 259 240.4167 C243.2293 245.2981 241.9642 246.32 225 248.4167 C198.1536 251.7348 197.4743 250.2876 170 251.4167 C161.0285 251.7854 160.6468 252.2814 152 251.4167 C146.0913 250.8258 145.0961 251.03 140 248.4167 C126.5552 241.5219 121.1272 238.3828 113 231.4167 C111.6315 230.2437 113.2744 226.7835 112 224.4167 C110.4394 221.5185 107.7775 221.6162 106 218.4167 C103.2914 213.5412 103.1638 212.4298 102 206.4167 C100.2337 197.2907 100 187.4167 100 187.4167 "/>
<path id="1" d="M144 157.4167 C144 157.4167 133.1377 163.1412 131 167.4167 C128.9271 171.5625 131.9229 176.0333 131 183.4167 C130.5169 187.2814 128.5044 187.5497 128 191.4167 C127.0984 198.3291 126.2415 200.3595 128 206.4167 C130.1821 213.9328 131.6943 217.1109 137 222.4167 C141.8813 227.298 144.3703 227.5555 152 230.4167 C159.8416 233.3573 160.5929 233.8162 169 234.4167 C194.812 236.2604 197.0158 235.8401 222 235.4167 C224.8453 235.3684 227.8983 234.044 228 233.4167 C229.1976 226.0314 231.7094 212.095 228 198.4167 C224.9966 187.3415 218.9292 186.6252 212 174.4167 C208.6826 168.5717 209.9347 163.9112 207 161.4167 C203.6356 158.5569 199.3589 158.0299 192 157.4167 C176.1624 156.0969 173.3569 154.8831 159 157.4167 C150.478 158.9206 141 166.4167 141 166.4167 "/>
<path id="2" d="M138 164.4167 L146 160.4167 "/>
<path id="3" d="M145 110.4167 C145 110.4167 143.4885 127.6046 147 141.4167 C150.4889 155.1396 155.5905 156.1882 160 169.4167 C161.5001 173.9171 159.0674 178.6846 160 180.4167 C160.4892 181.3251 166.6919 182.6905 167 182.4167 C167.6424 181.8456 169.9591 176.0398 169 172.4167 C166.2747 162.121 162.6303 160.5712 158 148.4167 C154.7306 139.8346 154.522 139.2444 153 130.4167 C152.1124 125.2685 154.2309 123.9299 153 119.4167 C151.586 114.2321 147 108.4167 147 108.4167 "/>
<path id="4" d="M166 174.4167 C166 174.4167 166.4014 178.0726 166 178.4167 C164.9796 179.2913 159.0003 180.4167 159 180.4167 C158.9999 180.4167 162.4361 179.2625 163 178.4167 C163.4833 177.6917 162.75 174.6667 163 174.4167 C163.25 174.1667 166.9972 174.411 167 174.4167 C167.0007 174.4181 164 176.4167 164 176.4167 "/>
</g>
</g>
</svg>
