<?xml version="1.0" encoding="utf-8"?>
<!DOCTYPE svg PUBLIC "-//W3C//DTD SVG 1.1//EN" "http://www.w3.org/Graphics/SVG/1.1/DTD/svg11.dtd">
<svg viewBox="0 0 800 800" preserveAspectRatio="xMinYMin meet" xmlns="http://www.w3.org/2000/svg" version="1.1">
<g fill="none" stroke="black" stroke-linecap="round" stroke-linejoin="round" stroke-width="0.80645">
<g transform="translate(87.52,141.46) scale(3.72) translate(-192,-147)">
<path id="0" d="M347 237 C347 237 345.1345 235.8847 345 236 C342.276 238.3348 339.1411 243.8286 333 249 C330.4506 251.1469 329.5927 250.9433 326 252 C304.3368 258.3715 303.9909 260.2166 282 264 C258.2792 268.081 255.3182 268 233 268 C227.9898 268 226.8251 266.6538 222 264 C217.3029 261.4166 216.9276 260.9276 213 257 C205.6357 249.6357 203.4892 247.7337 199 241 C198.114 239.671 199.547 237.2763 199 236 C198.6406 235.1613 196.4203 235.0088 196 234 C194.5989 230.6374 194.1193 228.8904 194 224 C193.6323 208.9251 191.0214 204.9358 195 193 C199.0632 180.8103 202.5389 176.2541 213 167 C226.1892 155.3326 231.0873 151.1876 247 147 C264.0219 142.5206 268.6481 145.6202 289 147 C297.3691 147.5674 297.5352 149.9419 306 151 C317.1857 152.3982 318.9767 149.9364 329 152 C334.2848 153.088 335.6784 154.2421 340 158 C346.4419 163.6016 347.8884 164.6904 352 172 C356.2355 179.5297 356.6145 181.225 358 190 C359.4625 199.2625 358.4942 204.811 358 210 C357.9706 210.3089 356.0917 210.5873 356 211 C354.8925 215.9836 356.5502 221.9722 354 228 C352.1698 232.326 345 237 345 237 "/>
<path id="1" d="M194 215 L192 281 "/>
<path id="2" d="M359 201 L360 268 "/>
<path id="3" d="M194 279 C194 279 222.9234 278.6603 251 281 C264.4653 282.1221 267.0888 286 278 286 C282.0412 286 283.2508 282.0324 288 281 C293.5687 279.7894 295.02 282.0679 301 281 C308.3108 279.6945 308.7063 276.8104 316 276 C330.0665 274.4371 334.4971 277.5976 346 276 C348.5668 275.6435 349.3082 272.1216 352 271 C353.9981 270.1675 358 271 358 271 "/>
</g>
</g>
</svg>
