<?xml version="1.0" encoding="utf-8"?>
<!DOCTYPE svg PUBLIC "-//W3C//DTD SVG 1.1//EN" "http://www.w3.org/Graphics/SVG/1.1/DTD/svg11.dtd">
<svg viewBox="0 0 800 800" preserveAspectRatio="xMinYMin meet" xmlns="http://www.w3.org/2000/svg" version="1.1">
<g fill="none" stroke="black" stroke-linecap="round" stroke-linejoin="round" stroke-width="0.74405">
<g transform="translate(87.52,238.72) scale(4.032) translate(-159,-165)">
<path id="0" d="M160,216C160,216 164.72147119197822,207.0620278146417 171,201C178.52743778607208,193.73212903413727 179.75357277207604,191.56879647393558 189,188C206.062195364942,181.41459126265397 209.02595579276462,180.7709107926753 228,179C245.056319524978,177.4080768443354 248.15329133993646,177.16611887256528 264,181C276.6591523203956,184.0626981420312 277.8946602413641,186.53074780850125 290,194C300.9848955533338,200.77791427758893 311,210 311,210"/>
<path id="1" d="M159,216C159,216 169.36844920361466,221.76431062718706 180,225C191.87773990072355,228.6149643176115 192.52060831039105,228.2172297586273 205,230C213.3195944597393,231.18851349424847 214.13661755976182,229.6894362599603 222,231C225.43545834767687,231.57257639127948 225.6998614010433,233.77999076006955 229,234C246.41739816116026,235.16115987741068 250.4749087130581,237.62193781631603 267,234C283.7455052658953,230.32975227048868 286.5841865919388,227.18388883884495 302,218C308.6288734196154,214.05088392022912 314,206 314,206"/>
<path id="2" d="M160,214L160,213"/>
<path id="3" d="M163,217C163,217 179.6512907679649,201.79100229638382 196,195C209.2210262683307,189.50818908853955 212.09693609040548,191.07453134524286 228,190C248.65471066904297,188.6044114412809 251.20736791835026,187.69213290225355 270,190C277.096298831166,190.87147529505546 278.66357093736,192.47397924097143 285,197C295.4098477457657,204.43560553268978 305,215 305,215"/>
<path id="4" d="M232,193C232,193 226.96066619411806,192.0131112686273 224,193C220.79261162303877,194.06912945898708 217.46338783212707,195.9726782344441 217,198C214.8776436086994,207.2853092119401 215.01484987330284,216.5065818551996 216,228C216.17595327000225,230.05278815002643 218.4483232581982,232.7413872096997 220,233C228.34695074900273,234.39115845816713 238.8671162980876,234.8407441811387 246,233C247.93809122917966,232.49984742472782 250.35729444022618,228.74911576534728 251,225C252.97165479788677,213.49868034566046 253.45985849971166,205.78591199846215 252,198C251.6563037098581,196.16695311924317 248.38405234017114,194.1280174467237 245,193C240.57470078593005,191.52490026197668 234,192 234,192"/>
<path id="5" d="M161,215C161,215 166.23521277940523,211.772353674656 167,209C169.35292644894693,200.47064162256734 169,186 169,186"/>
<path id="6" d="M175,207C175,207 180.12557147159885,204.87442852840115 183,202C185.43220875480097,199.56779124519903 186.22754937845437,198.28291514156893 187,195C187.97271559750192,190.8659587106169 187,185 187,185"/>
<path id="7" d="M198,194C198,194 201.94467024555007,194.17521088909143 202,194C202.85991660040932,191.27693076537048 204,175 204,175"/>
<path id="8" d="M215,175C215,175 218.26460270937045,176.42414866293666 219,178C221.02486103310332,182.33898792807852 222,190 222,190"/>
<path id="9" d="M232,171C232,171 235.27500597234618,170.5166706482308 236,171C236.8458263655961,171.56388424373074 237.73700671345648,173.07138256534748 238,175C239.11632256734967,183.18636549389748 239,193 239,193"/>
<path id="10" d="M251,167C251,167 253.7500655982685,168.6878443909095 254,170C255.27299921948588,176.68324590230088 255,188 255,188"/>
<path id="11" d="M270,188L273,165"/>
<path id="12" d="M285,170C285,170 286.7082870336193,188.74187964535122 286,192C285.9250714315732,192.34467141476324 280,193 280,193"/>
<path id="13" d="M301,182C301,182 300.36360469552477,196.76143884812865 299,200C298.74480023854704,200.6060994334508 293,201 293,201"/>
<path id="14" d="M311,194C311,194 309.9167752199866,204.38621560910917 308,207C307.0079847545683,208.35274806195227 300,209 300,209"/>
<path id="15" d="M300,209L300,209"/>
<path id="16" d="M232,209C232,209 228.32499732274135,210.1875066931466 228,211C227.2777837272414,212.80554068189647 227.36862237780076,218.1882287714581 228,219C228.50860975121606,219.65392682299208 234.80153457643547,220.25516983029723 235,220C235.44654720302017,219.42586788183118 235.2403846153846,211.20192307692307 235,210C234.9903846153846,209.95192307692307 233,210 233,210"/>
<path id="17" d="M233,210L233,210"/>
<path id="18" d="M160,217C160,217 165.71935877393636,219.35346128077535 167,221C167.67798653144544,221.8716969690013 167,226 167,226"/>
<path id="19" d="M175,223L176,231"/>
<path id="20" d="M181,226L188,228"/>
<path id="21" d="M186,230L188,237"/>
<path id="22" d="M196,230L197,237"/>
<path id="23" d="M202,231C202,231 205.54252062816076,231.31378094224115 206,232C207.16449294649988,233.7467394197498 208,240 208,240"/>
<path id="24" d="M218,231L218,238"/>
<path id="25" d="M225,233L226,242"/>
<path id="26" d="M235,236C235,236 238.72216700786112,235.66660040943336 239,236C239.5695576338847,236.68346916066164 240,242 240,242"/>
<path id="27" d="M246,236C246,236 250.29674372378056,237.734138702805 251,239C251.73030459453557,240.314548270164 251,245 251,245"/>
<path id="28" d="M257,238C257,238 260.33591332968296,239.16989166210368 261,240C261.3831269251829,240.47890865647864 261,243 261,243"/>
<path id="29" d="M267,232C267,232 270.80104448717986,232.55235009615464 271,233C271.57299187692206,234.28923172307463 271,241 271,241"/>
<path id="30" d="M278,230C278,230 283.65989387627024,231.85133760823166 285,233C285.36002851085277,233.30859586644524 285,236 285,236"/>
<path id="31" d="M288,225C288,225 293.11076358999435,228.5709817585642 295,231C295.4952367288364,231.6367329370754 295,234 295,234"/>
<path id="32" d="M298,220C298,220 302.396014781468,220.22344757617313 303,221C304.18051656349433,222.51780701020704 305,229 305,229"/>
</g>
</g>
</svg>
