<?xml version="1.0" encoding="utf-8"?>
<!DOCTYPE svg PUBLIC "-//W3C//DTD SVG 1.1//EN" "http://www.w3.org/Graphics/SVG/1.1/DTD/svg11.dtd">
<svg viewBox="0 0 800 800" preserveAspectRatio="xMinYMin meet" xmlns="http://www.w3.org/2000/svg" version="1.1">
<g fill="none" stroke="black" stroke-linecap="round" stroke-linejoin="round" stroke-width="1.0129">
<g transform="translate(87.52,283.0051) scale(2.9619) translate(-179,-262.1333)">
<path id="0" d="M186 306.1333 C186 306.1333 187.1512 300.2299 190 297.1333 C197.522 288.9572 198.9805 287.1917 209 281.1333 C219.499 274.7851 220.8362 275.1052 233 271.1333 C245.0272 267.2061 245.9034 265.5321 258 265.1333 C289.6368 264.0904 291.4441 264.6804 324 268.1333 C356.9725 271.6304 390 279.1333 390 279.1333 "/>
<path id="1" d="M202 310.1333 C202 310.1333 207.284 304.9558 213 303.1333 C240.1213 294.4859 242.676 294.2907 271 288.1333 C276.0859 287.0277 277.2551 286.7378 282 288.1333 C301.1573 293.7678 301.8801 296.7461 322 303.1333 C333.0517 306.6418 345 308.1333 345 308.1333 "/>
<path id="2" d="M203 310.1333 C203 310.1333 206.9381 311.6848 209 314.1333 C214.3346 320.4681 213.2992 323.8886 219 329.1333 C224.3559 334.0607 226.3955 334.5261 234 337.1333 C243.1597 340.2738 244.1043 340.4389 254 341.1333 C272.0536 342.4002 273.0445 342.6296 291 341.1333 C302.3637 340.1864 303.8199 339.9145 314 336.1333 C320.1315 333.8559 321.6361 332.727 326 328.1333 C330.1952 323.7173 330.6493 322.0101 333 316.1333 C334.3342 312.7979 334 308.1333 334 308.1333 "/>
<path id="3" d="M201 308.1333 C201 308.1333 233.2586 302.8715 265 302.1333 C297.1327 301.3861 330 305.1333 330 305.1333 "/>
<path id="4" d="M254 307.1333 C254 307.1333 252.9412 312.1481 254 314.1333 C255.8554 317.6122 258.9085 321.4463 262 322.1333 C267.8668 323.4371 277.2817 322.1615 281 320.1333 C282.5647 319.2798 284.5937 311.0833 284 310.1333 C282.9678 308.4819 277.0357 305.1068 271 304.1333 C263.2916 302.89 254.5687 304.3028 253 305.1333 C252.7261 305.2783 252.7778 311.8001 254 313.1333 C255.8047 315.1021 259.1772 316.3617 264 317.1333 C270.7991 318.2212 274.3712 318.3514 279 317.1333 C280.6404 316.7017 282.4241 314.0531 283 312.1333 C283.4366 310.678 282.9653 308.4203 282 307.1333 C280.8669 305.6225 279.2825 304.4186 277 304.1333 C268.9317 303.1248 260.2969 302.9849 258 304.1333 C257.2747 304.496 256.192 311.1034 257 314.1333 C257.5257 316.1049 259.5889 318.0205 262 319.1333 C264.7918 320.4219 269.2297 320.5613 270 320.1333 C270.4484 319.8842 271.294 314.8193 271 314.1333 C270.8568 313.7992 267.1076 313.0258 267 313.1333 C266.8207 313.3126 267.0019 318.1346 267 318.1333 C266.9957 318.1304 264.0274 311.1539 264 311.1333 C263.9934 311.1283 262.9535 315.1054 263 315.1333 C263.1794 315.241 268.2178 314.6548 269 314.1333 C269.2347 313.9769 269.3142 311.7617 269 311.1333 C268.7906 310.7144 267.0458 310.1104 267 310.1333 C266.9694 310.1486 267.0025 312.1359 267 312.1333 C266.9898 312.1232 263.9988 307.1333 264 307.1333 C264.0023 307.1333 267.3128 311.343 270 312.1333 C273.9568 313.2971 279.8604 312.6513 281 312.1333 C281.2354 312.0263 281.7404 308.0382 281 307.1333 C279.0212 304.7147 276.1536 302.5178 272 301.1333 C268.6016 300.0005 266.0856 300.3619 263 301.1333 C261.7143 301.4548 260.0746 303.1629 260 304.1333 C259.7725 307.0907 260.178 312.031 262 314.1333 C264.2568 316.7373 272.6684 319.3268 273 319.1333 C273.3282 318.9419 274.0151 307.1686 274 307.1333 C273.9957 307.1233 270 312.1333 270 312.1333 "/>
<path id="5" d="M200 304.1333 C200 304.1333 195.2623 303.3082 192 301.1333 C185.3667 296.7111 179 290.1333 179 290.1333 "/>
<path id="6" d="M209 302.1333 C209 302.1333 204.7382 302.408 203 301.1333 C198.7837 298.0413 197.3266 296.4559 194 291.1333 C190.221 285.0869 188 277.1333 188 277.1333 "/>
<path id="7" d="M214 296.1333 C214 296.1333 209.1247 295.0453 208 293.1333 C201.2418 281.6444 194 262.1333 194 262.1333 "/>
</g>
</g>
</svg>
