<?xml version="1.0" encoding="utf-8"?>
<!DOCTYPE svg PUBLIC "-//W3C//DTD SVG 1.1//EN" "http://www.w3.org/Graphics/SVG/1.1/DTD/svg11.dtd">
<svg viewBox="0 0 800 800" preserveAspectRatio="xMinYMin meet" xmlns="http://www.w3.org/2000/svg" version="1.1">
<g fill="none" stroke="black" stroke-linecap="round" stroke-linejoin="round" stroke-width="1.8001">
<g transform="translate(87.52,271.6749) scale(1.6666) translate(-124,-157.1333)">
<path id="0" d="M124 241.1333 C124 241.1333 171.8199 217.6846 220 200.1333 C240.6916 192.5957 242.2708 192.4449 264 190.1333 C288.1093 187.5685 289.2929 188.7295 314 190.1333 C332.9177 191.2082 334.3014 189.8367 352 195.1333 C401.1905 209.8546 401.8741 215.6606 451 231.1333 C464.0273 235.2364 479 235.1333 479 235.1333 "/>
<path id="1" d="M131 241.1333 C131 241.1333 127.4742 244.4066 127 247.1333 C125.796 254.0563 125.1669 260.8902 127 264.1333 C128.4393 266.6797 133.7987 269.0703 140 270.1333 C149.7251 271.8005 152.1452 271.7758 162 270.1333 C168.7192 269.0135 169.5844 264.8087 176 264.1333 C186.4311 263.0353 189.1201 263.4134 200 266.1333 C209.8807 268.6035 209.9873 272.6302 220 275.1333 C234.8503 278.8459 238.13 275.2136 252 279.1333 C258.9259 281.0906 258.7062 284.9312 266 288.1333 C278.5759 293.6545 279.5314 294.8295 293 297.1333 C316.4474 301.1441 325.353 300.4805 342 301.1333 C342.6507 301.1589 343.2065 299.2127 344 299.1333 C350.4921 298.4841 354.9048 301.7237 362 299.1333 C383.048 291.4491 387.4056 290.0972 407 276.1333 C429.2762 260.2583 428.0176 254.8877 449 237.1333 C452.9813 233.7646 454.2639 233.5263 459 232.1333 C461.8902 231.2833 466 232.1333 466 232.1333 "/>
<path id="2" d="M264 190.1333 C264 190.1333 260.2916 191.4728 259 193.1333 C257.5834 194.9546 257.1131 196.3047 257 199.1333 C256.6472 207.9541 254.8305 211.1604 258 218.1333 C265.6424 234.9466 269.9692 241.8091 282 254.1333 C286.5742 258.8191 290.7451 259.0077 299 260.1333 C311.5087 261.8391 313.9281 262.0985 326 260.1333 C333.6632 258.8858 335.631 257.8646 342 253.1333 C351.9484 245.7431 352.3144 244.0598 361 234.1333 C366.0895 228.3168 367.7452 227.4877 370 221.1333 C372.6051 213.7916 372.5301 208.9643 372 203.1333 C371.8702 201.7053 368 199.1333 368 199.1333 "/>
<path id="3" d="M302 191.1333 C302 191.1333 298.3643 193.9476 298 196.1333 C296.7785 203.4621 296.7785 207.8046 298 215.1333 C298.3643 217.3191 299.8109 218.902 302 220.1333 C306.579 222.709 308.151 223.2668 314 224.1333 C320.9671 225.1655 324.2895 226.0175 329 224.1333 C333.3964 222.3748 336.8717 218.7769 339 214.1333 C341.1101 209.5296 340.3302 206.4074 340 200.1333 C339.8791 197.8368 339.3997 196.708 338 195.1333 C336.0726 192.965 332 191.1333 332 191.1333 "/>
<path id="4" d="M143 207.1333 C143 207.1333 179.023 185.9307 216 172.1333 C244.6145 161.4563 246.9618 161.6846 277 157.1333 C295.0402 154.4 296.2593 155.9975 315 157.1333 C328.9285 157.9775 329.7671 157.4895 343 161.1333 C363.5216 166.7842 384 176.1333 384 176.1333 "/>
<path id="5" d="M165 265.1333 C165 265.1333 172.2736 266.8995 177 270.1333 C180.823 272.7491 180.0417 275.125 184 278.1333 C191.9772 284.196 202 289.1333 202 289.1333 "/>
<path id="6" d="M208 271.1333 C208 271.1333 213.7616 272.0141 218 274.1333 C221.1327 275.6997 222.2676 276.5347 224 279.1333 C225.6041 281.5394 226 286.1333 226 286.1333 "/>
<path id="7" d="M241 280.1333 C241 280.1333 248.6662 280.8389 253 283.1333 C255.6078 284.5139 258 289.1333 258 289.1333 "/>
<path id="8" d="M281 291.1333 C281 291.1333 281.9819 294.9807 284 297.1333 C288.8663 302.324 296 307.1333 296 307.1333 "/>
<path id="9" d="M313 300.1333 C313 300.1333 319.0043 300.3016 324 302.1333 C333.4947 305.6147 343 311.1333 343 311.1333 "/>
<path id="10" d="M367 300.1333 L381 303.1333 "/>
<path id="11" d="M185 215.1333 C185 215.1333 207.1793 205.6504 227 195.1333 C230.8365 193.0976 234 189.1333 234 189.1333 "/>
<path id="12" d="M231 195.1333 L235 174.1333 "/>
<path id="13" d="M263 193.1333 C263 193.1333 274.9523 189.9497 284 184.1333 C295.002 177.0606 305 166.1333 305 166.1333 "/>
<path id="14" d="M310 190.1333 C310 190.1333 314.5224 191.0927 318 190.1333 C328.088 187.3504 331.6038 187.2342 339 182.1333 C343.5397 179.0025 347 170.1333 347 170.1333 "/>
<path id="15" d="M350 196.1333 C350 196.1333 368.7128 193.334 382 187.1333 C388.8271 183.9473 395 175.1333 395 175.1333 "/>
<path id="16" d="M396 213.1333 C396 213.1333 413.5325 206.8671 429 199.1333 C433.8336 196.7165 435.0932 195.9345 438 192.1333 C440.7343 188.5576 442 182.1333 442 182.1333 "/>
<path id="17" d="M425 221.1333 C425 221.1333 442.976 223.7581 454 221.1333 C459.8469 219.7412 467 211.1333 467 211.1333 "/>
<path id="18" d="M453 233.1333 C453 233.1333 462.05 233.7018 469 231.1333 C483.7575 225.6795 499 216.1333 499 216.1333 "/>
</g>
</g>
</svg>
