<?xml version="1.0" encoding="utf-8"?>
<!DOCTYPE svg PUBLIC "-//W3C//DTD SVG 1.1//EN" "http://www.w3.org/Graphics/SVG/1.1/DTD/svg11.dtd">
<svg viewBox="0 0 800 800" preserveAspectRatio="xMinYMin meet" xmlns="http://www.w3.org/2000/svg" version="1.1">
<g fill="none" stroke="black" stroke-linecap="round" stroke-linejoin="round" stroke-width="1.5169">
<g transform="translate(87.52,281.3367) scale(1.9777) translate(-202.3611,-149.0556)">
<path id="0" d="M229.3611 227.0556 C229.3611 227.0556 233.7286 226.5615 234.3611 226.0556 C234.6228 225.8462 233.8844 223.5918 234.3611 223.0556 C236.4444 220.7118 239.9876 220.4463 242.3611 217.0556 C246.0851 211.7356 244.1569 208.6159 248.3611 203.0556 C258.772 189.2864 260.1357 188.4874 273.3611 176.0556 C284.8591 165.2474 285.5085 163.9424 298.3611 156.0556 C306.394 151.1263 308.2107 149.9096 317.3611 149.0556 C343.4342 146.6221 345.9511 147.8974 373.3611 149.0556 C380.7651 149.3684 381.6522 149.6403 388.3611 152.0556 C393.4345 153.882 394.7088 154.4032 398.3611 158.0556 C403.3831 163.0775 402.45 165.5306 407.3611 171.0556 C409.9856 174.0081 412.1411 173.0283 414.3611 176.0556 C422.2478 186.8102 420.8314 189.7662 429.3611 201.0556 C437.4265 211.7304 441.3935 210.7435 448.3611 221.0556 C452.8284 227.6672 450.8612 234.7148 454.3611 238.0556 C457.4817 241.0343 470.3611 242.0556 470.3611 242.0556 C470.3583 242.0667 460.5613 242.8555 452.3611 246.0556 C440.7561 250.5844 441.165 253.2926 429.3611 258.0556 C413.0648 264.6313 411.841 267.847 395.3611 269.0556 C340.4385 273.0832 336.4152 269.954 279.3611 269.0556 C273.9353 268.9701 273.3189 268.8918 268.3611 267.0556 C260.3535 264.0898 256.5242 264.2279 252.3611 259.0556 C243.0525 247.4903 235.3611 226.0556 235.3611 226.0556 "/>
<path id="1" d="M318.3611 178.0556 C318.3611 178.0556 311.9126 181.6162 308.3611 186.0556 C304.632 190.7169 304.065 192.3759 302.3611 198.0556 C301.3734 201.3481 301.4883 202.4552 302.3611 206.0556 C305.3003 218.1795 305.5311 220.0156 310.3611 231.0556 C311.9923 234.784 316.3128 237.6207 316.3611 238.0556 C316.3702 238.1375 311.3284 240.0205 311.3611 240.0556 C311.7379 240.4593 321.8212 248.9437 330.3611 253.0556 C333.0658 254.3578 334.8804 252.1854 338.3611 253.0556 C344.126 254.4968 344.5906 256.6816 350.3611 258.0556 C354.2984 258.993 355.2561 258.9352 359.3611 258.0556 C368.6138 256.0728 372.0073 256.6224 378.3611 252.0556 C385.2345 247.1153 389.6116 242.8032 391.3611 235.0556 C395.33 217.4791 393.1487 210.5319 392.3611 190.0556 C392.2365 186.8151 391.5217 185.1024 389.3611 183.0556 C383.4343 177.4406 380.5774 173.2583 373.3611 172.0556 C353.1286 168.6835 347.3789 171.2128 323.3611 172.0556 C319.9649 172.1747 318.3025 172.4377 316.3611 174.0556 C313.7477 176.2334 311.3611 182.0556 311.3611 182.0556 "/>
<path id="2" d="M346.3611 177.0556 C346.3611 177.0556 338.9992 181.0985 336.3611 185.0556 C334.3226 188.1133 334.0503 194.8593 334.3611 195.0556 C335.9644 196.0682 355.3083 196.9575 355.3611 197.0556 C355.3749 197.0811 346.5672 202.271 341.3611 208.0556 C338.5816 211.1439 338.2178 213.9144 337.3611 217.0556 C337.2145 217.5932 338.3411 219.0556 338.3611 219.0556 C338.3811 219.0556 339.0087 217.126 339.3611 217.0556 C341.6267 216.6024 347.8016 217.7676 348.3611 217.0556 C349.5931 215.4876 348.7227 204.694 350.3611 203.0556 C351.9995 201.4172 361.0525 200.3203 364.3611 201.0556 C365.6629 201.3448 367.8307 204.1763 368.3611 207.0556 C370.924 220.9682 371.3611 226.013 371.3611 239.0556 C371.3611 241.0935 369.8274 243.1758 368.3611 244.0556 C366.5038 245.1699 363.6656 245.714 361.3611 245.0556 C358.4682 244.229 357.5437 241.3816 354.3611 240.0556 C352.6092 239.3256 350.1768 240.8085 349.3611 240.0556 C346.249 237.1828 344.2707 231.2297 341.3611 228.0556 C340.9472 227.6041 338.4351 227.8706 338.3611 228.0556 C337.3621 230.5531 334.5353 240.3028 335.3611 243.0556 C335.8121 244.5589 340.0946 247.3819 344.3611 248.0556 C357.0688 250.062 365.6877 251.3368 373.3611 249.0556 C376.4536 248.1362 379.4344 243.0108 381.3611 237.0556 C384.3949 227.6785 383.8984 225.9304 384.3611 215.0556 C384.8831 202.79 385.4 199.0849 383.3611 190.0556 C382.7667 187.423 380.4656 185.2087 377.3611 184.0556 C365.439 179.6273 360.1635 177.9873 348.3611 177.0556 C344.8929 176.7818 341.0946 179.5147 339.3611 181.0556 C338.8702 181.4919 339.2916 185.0357 339.3611 185.0556 C339.7519 185.1672 346.3621 183.0538 346.3611 183.0556 C346.359 183.0591 336.3594 190.0556 336.3611 190.0556 C336.3646 190.0556 356.3596 183.0558 356.3611 183.0556 C356.3618 183.0554 348.3526 188.0534 348.3611 188.0556 C348.3857 188.0617 368.2464 186.0228 368.3611 186.0556 C368.3864 186.0628 362.3633 192.0538 362.3611 192.0556 C362.3606 192.056 363.0155 190.1184 363.3611 190.0556 C365.8954 189.5948 373.3496 190.0364 373.3611 190.0556 C373.3626 190.0581 366.3585 195.0552 366.3611 195.0556 C366.3666 195.0563 380.2766 191.018 380.3611 191.0556 C380.3711 191.06 375.4508 198.8165 375.3611 199.0556 C375.3543 199.0737 377.3655 199.0317 377.3611 199.0556 C377.0853 200.5727 371.0645 218.6831 371.3611 221.0556 C371.4047 221.4045 380.2762 222.999 380.3611 223.0556 C380.3748 223.0647 377.4119 224.5472 377.3611 225.0556 C377.1887 226.7795 378.5588 231.7719 379.3611 233.0556 C379.5237 233.3158 382.3727 233.0374 382.3611 233.0556 C382.2558 233.2211 376.6058 242.8583 372.3611 244.0556 C362.9663 246.7054 357.0397 245.5754 343.3611 244.0556 C335.5523 243.1879 327.3611 239.0556 327.3611 239.0556 "/>
<path id="3" d="M254.3611 195.0556 C254.3611 195.0556 253.6956 197.0041 253.3611 197.0556 C250.2921 197.5277 245.0541 198.6383 241.3611 197.0556 C237.4043 195.3598 232.3611 188.0556 232.3611 188.0556 "/>
<path id="4" d="M250.3611 210.0556 C250.3611 210.0556 239.7931 215.7906 230.3611 219.0556 C227.9129 219.903 226.732 219.8459 224.3611 219.0556 C220.1462 217.6506 215.3611 214.0556 215.3611 214.0556 "/>
<path id="5" d="M230.3611 228.0556 C230.3611 228.0556 203.3664 227.056 203.3611 227.0556 C203.3604 227.0555 207.3642 226.0803 207.3611 226.0556 C207.314 225.679 202.3611 219.0556 202.3611 219.0556 "/>
<path id="6" d="M436.3611 211.0556 C436.3611 211.0556 448.4851 211.5288 457.3611 208.0556 C469.718 203.2203 482.3611 193.0556 482.3611 193.0556 "/>
<path id="7" d="M450.3611 228.0556 C450.3611 228.0556 454.8041 227.8051 457.3611 226.0556 C463.3276 221.9732 465.0425 220.8984 469.3611 215.0556 C472.7725 210.4401 474.3611 203.0556 474.3611 203.0556 "/>
<path id="8" d="M461.3611 231.0556 C461.3611 231.0556 462.5703 232.9802 463.3611 233.0556 C470.2202 233.7088 473.4242 234.3961 482.3611 233.0556 C492.6621 231.5104 493.9015 231.0225 503.3611 227.0556 C508.5645 224.8735 510.2806 223.9575 513.3611 220.0556 C516.6593 215.8779 518.3611 208.0556 518.3611 208.0556 "/>
</g>
</g>
</svg>
