<?xml version="1.0" encoding="utf-8"?>
<!DOCTYPE svg PUBLIC "-//W3C//DTD SVG 1.1//EN" "http://www.w3.org/Graphics/SVG/1.1/DTD/svg11.dtd">
<svg viewBox="0 0 800 800" preserveAspectRatio="xMinYMin meet" xmlns="http://www.w3.org/2000/svg" version="1.1">
<g fill="none" stroke="black" stroke-linecap="round" stroke-linejoin="round" stroke-width="0.62884">
<g transform="translate(87.52,175.7777) scale(4.7707) translate(-193,-142.4167)">
<path id="0" d="M193 197.4167 C193 197.4167 195.139 190.5747 199 186.4167 C207.2879 177.4913 208.7461 176.9362 219 169.4167 C223.3163 166.2514 224.3069 165.0033 229 164.4167 C242.2512 162.7603 245.1574 161.8821 259 164.4167 C279.0165 168.0817 282.4275 169.2813 300 177.4167 C306.9349 180.6273 307.7538 182.9213 313 189.4167 C317.7709 195.3236 321 203.4167 321 203.4167 "/>
<path id="1" d="M195 200.4167 C195 200.4167 195.1797 206.996 197 211.4167 C198.2407 214.4297 199.1758 215.9642 202 217.4167 C214.634 223.9142 225.2294 226.0314 232 229.4167 C232.2821 229.5577 231.8006 232.3346 232 232.4167 C235.0105 233.6563 240.91 236.2481 249 236.4167 C263.6508 236.7219 264.8538 235.9838 280 233.4167 C294.03 231.0387 298.5464 232.2177 308 226.4167 C316.2761 221.3382 324 206.4167 324 206.4167 "/>
<path id="2" d="M260 185.4167 C260 185.4167 256.9335 181.5848 255 181.4167 C248.5551 180.8562 242.6617 181.2012 237 183.4167 C234.6672 184.3295 233.2216 186.9263 232 190.4167 C230.0873 195.8816 230 197.4974 230 203.4167 C230 206.604 230.3874 207.5499 232 210.4167 C234.5677 214.9815 235.2877 216.4468 239 219.4167 C241.7189 221.5918 243.3954 222.2665 247 222.4167 C254.0613 222.7109 256.4556 222.5981 263 220.4167 C266.9266 219.1078 269.9314 217.1951 271 214.4167 C273.4452 208.0592 274.2288 202.2812 273 194.4167 C272.1827 189.1861 269.2081 185.197 266 182.4167 C264.3652 180.9999 258 181.4167 258 181.4167 "/>
<path id="3" d="M254 192.4167 C254 192.4167 244.0851 191.6029 243 192.4167 C242.2355 192.99 241.5003 197.9191 242 201.4167 C242.3062 203.5603 243.7704 205.9437 245 206.4167 C247.4976 207.3773 252.5024 207.3773 255 206.4167 C256.2296 205.9437 257.6938 203.5603 258 201.4167 C258.4997 197.9191 257.9332 195.8382 257 192.4167 C256.7438 191.4774 255.6924 190.5032 255 190.4167 C253.1921 190.1907 249 191.4167 249 191.4167 "/>
<path id="4" d="M204 178.4167 L198 153.4167 "/>
<path id="5" d="M225 169.4167 L227 149.4167 "/>
<path id="6" d="M254 160.4167 L257 142.4167 "/>
<path id="7" d="M271 167.4167 L281 147.4167 "/>
<path id="8" d="M292 170.4167 C292 170.4167 293.4238 164.9297 296 161.4167 C298.4035 158.1391 303 155.4167 303 155.4167 "/>
<path id="9" d="M308 182.4167 C308 182.4167 309.3158 174.9798 312 170.4167 C313.5951 167.7049 318 165.4167 318 165.4167 "/>
<path id="10" d="M243 158.4167 L244 147.4167 "/>
</g>
</g>
</svg>
