<?xml version="1.0" encoding="utf-8"?>
<!DOCTYPE svg PUBLIC "-//W3C//DTD SVG 1.1//EN" "http://www.w3.org/Graphics/SVG/1.1/DTD/svg11.dtd">
<svg viewBox="0 0 800 800" preserveAspectRatio="xMinYMin meet" xmlns="http://www.w3.org/2000/svg" version="1.1">
<g fill="none" stroke="black" stroke-linecap="round" stroke-linejoin="round" stroke-width="0.59524">
<g transform="translate(87.52,226.12) scale(5.04) translate(-199,-155.4167)">
<path id="0" d="M233 155.4167 C233 155.4167 228.4976 154.5842 226 155.4167 C223.7403 156.1699 222.6927 157.1597 221 159.4167 C218.5974 162.6201 219.5983 164.076 217 167.4167 C209.465 177.1045 205.8107 177.7007 200 186.4167 C198.3398 188.907 198.5293 191.3569 199 194.4167 C199.3277 196.5465 200.095 197.9879 202 199.4167 C208.9144 204.6024 210.2414 205.1392 219 209.4167 C231.5562 215.5488 232.0654 216.2129 245 220.4167 C251.4072 222.499 252.0388 222.0852 259 222.4167 C272.8283 223.0752 275.1033 224.9479 287 222.4167 C295.9767 220.5067 298.2695 218.5556 306 212.4167 C314.1778 205.9226 316.9334 203.55 321 195.4167 C323.9877 189.4412 324.4654 183.3626 323 178.4167 C321.8422 174.5091 318.4579 171.9926 313 168.4167 C304.7904 163.0379 303.3059 161.0085 294 159.4167 C267.8648 154.9462 237 155.4167 237 155.4167 "/>
<path id="1" d="M205 199.4167 C205 199.4167 207.3839 191.9996 211 189.4167 C219.0183 183.6893 222.5212 180.605 233 179.4167 C267.0235 175.5583 271.7641 177.5837 308 178.4167 C313.8329 178.5508 320 181.4167 320 181.4167 "/>
<path id="2" d="M262 224.4167 C262 224.4167 260.7768 213.197 263 207.4167 C264.5936 203.2733 267.3254 201.7164 272 198.4167 C275.0806 196.2421 276.2453 195.6948 280 195.4167 C288.6426 194.7765 292.1725 194.0623 299 196.4167 C303.6247 198.0114 305.6769 201.1873 309 205.4167 C310.1406 206.8683 310.0746 210.0438 310 210.4167 C309.9938 210.4477 308 210.4167 308 210.4167 "/>
<path id="3" d="M289 219.4167 L287 219.4167 "/>
<path id="4" d="M286 220.4167 C286 220.4167 292.5397 218.4167 293 218.4167 C293 218.4167 293.0258 220.413 293 220.4167 C292.3808 220.5051 287.2692 220.5705 286 219.4167 C284.0451 217.6395 281.8986 210.7209 282 210.4167 C282.0309 210.3241 288.6663 210.1386 289 210.4167 C289.151 210.5425 288.0133 215.4122 288 215.4167 C287.9967 215.4178 285.9918 211.4214 286 211.4167 C286.2591 211.2686 292.9189 210.6599 295 211.4167 C295.7988 211.7071 297.1126 214.6284 297 215.4167 C296.8961 216.1443 294.579 218.4167 294 218.4167 C293.0351 218.4167 288.9982 215.417 289 215.4167 C289.0039 215.4159 297.335 216.7507 299 217.4167 C299.1233 217.466 299.0258 219.413 299 219.4167 C298.3808 219.5051 292.0327 218.4101 292 218.4167 C291.9923 218.4182 294.0043 220.4081 294 220.4167 C293.9936 220.4295 291.3927 220.8094 291 220.4167 C289.8219 219.2386 287.8985 214.5588 288 214.4167 C288.1767 214.1693 295.9996 213.4156 296 213.4167 C296.0004 213.4178 290.8326 217.4167 289 217.4167 C287.4292 217.4167 284.2327 215.0603 283 213.4167 C282.4199 212.6432 282.7582 209.5376 283 209.4167 C284.2694 208.782 292.0449 208.2256 293 208.4167 C293.0585 208.4284 293.1233 211.3704 293 211.4167 C292.1233 211.7454 285.0243 211.4264 285 211.4167 C284.9933 211.414 287.2322 209.3314 288 209.4167 C289.7505 209.6112 294 212.403 294 212.4167 C294 212.4212 288.4954 213.4992 288 213.4167 C287.9717 213.412 288 211.4167 288 211.4167 C288.6898 211.4167 295.5697 212.6221 297 213.4167 C297.2358 213.5476 297.0276 216.4127 297 216.4167 C296.5673 216.4785 290 214.4167 290 214.4167 C290 214.4167 294.0005 215.4157 294 215.4167 C293.9984 215.4199 290.269 216.8397 289 216.4167 C287.5497 215.9333 285 212.4167 285 212.4167 C285.015 212.4017 291.9999 213.4166 292 213.4167 C292 213.4167 286.675 213.6417 286 213.4167 C285.925 213.3917 285.9412 211.4314 286 211.4167 C286.9412 211.1814 294 211.4167 294 211.4167 C294 211.4167 286.7437 212.5096 286 212.4167 C285.9764 212.4137 286 210.4167 286 210.4167 "/>
<path id="5" d="M224 180.4167 C224 180.4167 221.1459 181.0851 220 180.4167 C216.5386 178.3975 213.9572 176.3524 212 173.4167 C211.2065 172.2265 212 168.4167 212 168.4167 "/>
<path id="6" d="M243 181.4167 L236 169.4167 "/>
<path id="7" d="M261 179.4167 C261 179.4167 254.5966 174.1673 252 170.4167 C251.3181 169.4317 252 166.4167 252 166.4167 "/>
<path id="8" d="M284 181.4167 C284 181.4167 281.3423 173.1013 279 168.4167 C278.6978 167.8122 277.0191 167.3976 277 167.4167 C276.9427 167.474 277 170.4167 277 170.4167 "/>
<path id="9" d="M303 178.4167 L292 170.4167 "/>
<path id="10" d="M219 184.4167 L210 178.4167 "/>
<path id="11" d="M275 174.4167 C275 174.4167 274.1059 169.3844 273 168.4167 C271.9513 167.499 267 167.4167 267 167.4167 "/>
</g>
</g>
</svg>
