<?xml version="1.0" encoding="utf-8"?>
<!DOCTYPE svg PUBLIC "-//W3C//DTD SVG 1.1//EN" "http://www.w3.org/Graphics/SVG/1.1/DTD/svg11.dtd">
<svg viewBox="0 0 800 800" preserveAspectRatio="xMinYMin meet" xmlns="http://www.w3.org/2000/svg" version="1.1">
<g fill="none" stroke="black" stroke-linecap="round" stroke-linejoin="round" stroke-width="0.93606">
<g transform="translate(87.52,273.4055) scale(3.2049) translate(-167,-77)">
<path id="0" d="M184 131 C184 131 176.5077 129.9394 172 131 C169.7683 131.5251 166.9613 134.9782 167 135 C167.3353 135.1886 188 140 188 140 "/>
<path id="1" d="M186 129 C186 129 189.5535 123.7464 194 121 C205.6923 113.7783 206.8228 112.2507 220 108 C236.6968 102.6139 238.1712 103.08 256 101 C267.6222 99.6441 268.1434 100.088 280 101 C306.9053 103.0696 308.6824 103.8353 334 107 C334.9826 107.1228 336.0032 107.9905 336 108 C335.9714 108.0857 333 110 333 110 C333 110 335.6756 107.8183 336 108 C341.3427 110.9919 348.277 115.7728 358 124 C360.4834 126.1013 362 130 362 130 "/>
<path id="2" d="M191 137 C191 137 195.8003 141.9779 201 144 C212.7391 148.5652 214.2422 148.7674 227 151 C233.5605 152.1481 240.8028 151.0986 241 151 C241.0211 150.9894 236.9406 146.0069 237 146 C237.8165 145.9051 262.7342 148.8146 284 146 C294.0407 144.6711 294.3572 140.5476 305 137 C315.0515 133.6495 316.984 136.2202 326 132 C339.1171 125.8601 344.6534 120.6512 352 115 C352.4339 114.6663 352 112 352 112 "/>
<path id="3" d="M259 106 C259 106 256.0074 109.9702 255 114 C252.6773 123.2909 252.0148 133.9557 252 134 C251.997 134.0091 249.9953 128.9991 250 129 C250.0128 129.0026 253.5355 133.6142 257 135 C262.0861 137.0344 263.5398 136.3847 270 137 C273.9181 137.3732 274.8969 137.8866 278 137 C280.7706 136.2084 281.7349 135.2651 284 133 C285.8121 131.1879 286.6363 130.3033 287 128 C287.9302 122.1089 288.1227 119.8942 287 114 C286.3775 110.7321 285.4702 109.2938 283 107 C279.3366 103.5983 277.0753 101.8151 273 101 C269.5069 100.3014 263 103 263 103 "/>
<path id="4" d="M271 110 C271 110 269.6321 120.8964 270 122 C270.0526 122.1577 274.1622 122.6283 275 122 C276.2567 121.0575 278 118.24 278 116 C278 112.2667 275 106 275 106 "/>
<path id="5" d="M352 118 C352 118 356.1846 113.805 357 110 C358.8169 101.5212 358 90 358 90 "/>
<path id="6" d="M324 109 C324 109 329.6859 109.3623 334 108 C338.4242 106.6029 338.8054 105.7964 343 103 C346.1743 100.8838 347.1291 100.7024 349 98 C351.0596 95.0251 352 90 352 90 "/>
<path id="7" d="M300 100 C300 100 304.48 100.2672 308 99 C316.3706 95.9866 319.702 94.9038 325 91 C326.4859 89.9051 327 85 327 85 "/>
<path id="8" d="M276 103 C276 103 283.0062 97.1839 285 92 C287.1211 86.4852 286 77 286 77 "/>
<path id="9" d="M261 100 C261 100 267.6939 95.3311 270 92 C270.8103 90.8296 270 87 270 87 "/>
<path id="10" d="M271 155 L272 156 "/>
<path id="11" d="M280 150 L300 150 "/>
<path id="12" d="M310 142 L318 142 "/>
<path id="13" d="M325 135 L335 135 "/>
<path id="14" d="M248 151 L254 155 "/>
</g>
</g>
</svg>
