<?xml version="1.0" encoding="utf-8"?>
<!DOCTYPE svg PUBLIC "-//W3C//DTD SVG 1.1//EN" "http://www.w3.org/Graphics/SVG/1.1/DTD/svg11.dtd">
<svg viewBox="0 0 800 800" preserveAspectRatio="xMinYMin meet" xmlns="http://www.w3.org/2000/svg" version="1.1">
<g fill="none" stroke="black" stroke-linecap="round" stroke-linejoin="round" stroke-width="2.2417">
<g transform="translate(177.1824,87.52) scale(1.3382) translate(-177,-4)">
<path id="0" d="M177 441 C177 441 168.6141 181.7248 177 147 C177.4891 144.9748 236.3853 149.6683 248 147 C249.1296 146.7405 250.7749 138.4047 251 130 C252.2521 83.2536 250.5538 82.3009 251 35 C251.0517 29.5184 250.5509 28.9914 252 24 C254.8651 14.1312 257.9496 5.6403 260 4 C260.7518 3.3985 266.2303 7.7407 272 8 C308.476 9.6394 311.4317 8.8737 349 8 C353.4138 7.8974 357.1113 5.4816 358 6 C358.9359 6.546 360.9184 10.7025 361 15 C362.3424 85.7005 361 164 361 164 "/>
<path id="1" d="M361 164 L361 209 "/>
<path id="2" d="M361 140 C361 140 416.7581 138.7214 417 140 C423.7581 175.7214 414.2825 317.5965 417 436 C417.0841 439.6644 422.6281 441.3416 424 445 C424.7818 447.0849 423 452 423 452 "/>
<path id="3" d="M409 139 C409 139 406.3843 91.7509 410 80 C410.7222 77.6529 419.781 74.6432 429 74 C460.8082 71.7808 495.7681 72.6257 496 74 C504.1431 122.2507 496 471 496 471 "/>
<path id="4" d="M177 443 C177 443 175.7467 459.0717 177 460 C179.9083 462.1543 190.5699 462.8772 204 463 C353.5684 464.368 505 463 505 463 "/>
<path id="5" d="M417 437 L417 453 "/>
<path id="6" d="M248 144 L246 469 "/>
<path id="7" d="M363 209 C363 209 366.21 303.3178 363 394 C362.2837 414.2359 357.4241 414.6983 355 435 C353.4978 447.5811 355 461 355 461 "/>
<path id="8" d="M365 405 L362 461 "/>
<path id="9" d="M274 40 C274 40 277.9713 38.9426 278 39 C278.2582 39.5164 278.3375 46.9875 278 48 C277.9625 48.1125 275.1564 48.2347 275 48 C274.4785 47.2178 274 42 274 42 "/>
<path id="10" d="M313 41 C313 41 320.7253 40.5536 321 41 C321.7253 42.1786 321.5652 53.4819 321 54 C320.5178 54.442 310.5644 53.0429 309 52 C308.5307 51.6871 309 46 309 46 "/>
<path id="11" d="M190 173 C190 173 227.209 171.5171 232 173 C232.459 173.1421 232.2999 185.9334 232 186 C227.3983 187.0226 189.9618 183.8462 187 183 C186.9723 182.9921 190 174 190 174 "/>
<path id="12" d="M275 88 L275 185 "/>
<path id="13" d="M274 88 L318 88 "/>
<path id="14" d="M318 88 C318 88 319.5281 127.1802 318 165 C317.5602 175.885 316.1473 185.819 314 187 C309.1985 189.6408 278 187 278 187 "/>
<path id="15" d="M388 168 C388 168 407.7964 169.0889 408 170 C410.6052 181.6549 410.2316 243.4205 407 253 C406.6468 254.047 380.2093 253.814 380 253 C376.8343 240.689 379.8314 150.0864 380 148 C380.0086 147.8936 384.7777 153.4396 388 154 C393.2207 154.908 402.1715 151.3924 403 152 C403.5836 152.428 403 165 403 165 "/>
<path id="16" d="M434 112 C434 112 437.6036 100.8714 440 100 C446.2432 97.7298 454.9378 100.7782 467 100 C468.8446 99.881 470.9811 97.9691 471 98 C472.03 99.6854 477.388 108.3821 478 118 C480.6942 160.3376 483.3244 188.0827 478 208 C476.9222 212.0317 463.6856 214.3486 451 219 C449.7737 219.4496 448.3927 219.3927 448 219 C446.8219 217.8219 446.1888 216.0909 445 213 C441.229 203.1954 440.0857 202.9651 438 193 C435.7245 182.128 436.255 181.4733 436 170 C435.2587 136.6423 436 103 436 103 "/>
<path id="17" d="M182 254 L241 254 "/>
<path id="18" d="M261 251 C261 251 275.4577 259.5745 289 261 C320.2307 264.2874 356 261 356 261 "/>
<path id="19" d="M367 272 L429 272 "/>
<path id="20" d="M426 244 L498 242 "/>
<path id="21" d="M178 310 L245 310 "/>
<path id="22" d="M260 310 L336 310 "/>
<path id="23" d="M360 310 L400 310 "/>
<path id="24" d="M428 308 L506 309 "/>
<path id="25" d="M177 360 C177 360 185.1492 363.5313 193 364 C217.6564 365.472 244 364 244 364 "/>
<path id="26" d="M274 364 L345 366 "/>
<path id="27" d="M361 364 L454 364 "/>
<path id="28" d="M453 364 L510 364 "/>
<path id="29" d="M198 409 L198 465 "/>
<path id="30" d="M198 414 C198 414 203.6162 411.3846 209 411 C223.8827 409.9369 234.1252 408.2172 240 411 C242.9424 412.3938 245.7327 420.3101 247 429 C248.9988 442.7059 247 459 247 459 "/>
<path id="31" d="M266 403 C266 403 270.2502 411.2025 271 419 C272.6377 436.0325 271 455 271 455 "/>
<path id="32" d="M267 398 C267 398 342.2463 393.1407 349 398 C352.4963 400.5157 349 457 349 457 "/>
</g>
</g>
</svg>
