<?xml version="1.0" encoding="utf-8"?>
<!DOCTYPE svg PUBLIC "-//W3C//DTD SVG 1.1//EN" "http://www.w3.org/Graphics/SVG/1.1/DTD/svg11.dtd">
<svg viewBox="0 0 800 800" preserveAspectRatio="xMinYMin meet" xmlns="http://www.w3.org/2000/svg" version="1.1">
<g fill="none" stroke="black" stroke-linecap="round" stroke-linejoin="round" stroke-width="1.3009">
<g transform="translate(194.7548,87.52) scale(2.3061) translate(-237,-77)">
<path id="0" d="M237 216 L237 216 "/>
<path id="1" d="M282 78 C282 78 278.113 83.3091 278 88 C276.2535 160.4789 278.9317 166.05 278 244 C277.4324 291.4875 275 339 275 339 "/>
<path id="2" d="M283 77 L407 79 "/>
<path id="3" d="M407 79 L412 346 "/>
<path id="4" d="M275 341 C275 341 310.0971 340.2949 345 341 C359.4799 341.2925 359.912 340.9455 374 343 C383.4889 344.3838 383.7819 347.1007 393 348 C403.3602 349.0108 415 347 415 347 "/>
<path id="5" d="M247 97 C247 97 252.1124 96.2383 256 94 C268.0361 87.0701 280 78 280 78 "/>
<path id="6" d="M247 98 L248 298 "/>
<path id="7" d="M249 297 C249 297 264.5502 313.8043 273 328 C275.1635 331.6348 274 339 274 339 "/>
<path id="8" d="M249 114 C249 114 254.7019 113.9103 259 112 C267.4647 108.2379 268.2903 102.7343 276 102 C313.792 98.4008 320.1152 101.0175 364 102 C386.9733 102.5143 410 105 410 105 "/>
<path id="9" d="M249 135 L276 123 "/>
<path id="10" d="M276 122 C276 122 279.2792 124.9382 282 125 C338.4953 126.284 408 125 408 125 "/>
<path id="11" d="M250 156 L278 143 "/>
<path id="12" d="M278 143 C278 143 306.9402 143.0514 335 145 C342.4685 145.5186 342.5757 147.4289 350 148 C361.6989 148.8999 362.6574 146.7738 374 148 C380.3483 148.6863 380.6458 151.2298 387 152 C396.4242 153.1423 407 152 407 152 "/>
<path id="13" d="M250 168 C250 168 255.5796 169.9577 259 169 C266.1546 166.9967 275 161 275 161 "/>
<path id="14" d="M277 159 C277 159 284.1613 162.6868 291 163 C347.4583 165.5859 408 165 408 165 "/>
<path id="15" d="M249 192 L276 182 "/>
<path id="16" d="M280 182 C280 182 312.0688 181 344 181 C353.9785 181 354.4784 180.6867 364 182 C368.451 182.6139 368.6548 184.7226 373 185 C390.9643 186.1467 411 185 411 185 "/>
<path id="17" d="M249 207 C249 207 252.3862 203.2907 256 202 C265.3725 198.6527 277 197 277 197 "/>
<path id="18" d="M280 197 C280 197 341.5735 197.1742 400 199 C403.9235 199.1226 408 201 408 201 "/>
<path id="19" d="M250 226 C250 226 257.491 224.9664 263 222 C269.6834 218.4012 270.4262 212.7065 276 212 C298.6088 209.1341 305.6365 210.2987 334 213 C357.365 215.2252 357.5939 218.7491 381 222 C393.1949 223.6937 406 223 406 223 "/>
<path id="20" d="M247 247 C247 247 255.3033 246.5401 262 244 C269.0687 241.3188 276 236 276 236 "/>
<path id="21" d="M278 236 L410 238 "/>
<path id="22" d="M250 263 L280 258 "/>
<path id="23" d="M280 258 L407 260 "/>
<path id="24" d="M248 278 L275 276 "/>
<path id="25" d="M275 276 C275 276 307.9966 274.7762 339 276 C344.8705 276.2317 345.0612 278.5932 351 279 C380.7471 281.0375 412 281 412 281 "/>
<path id="26" d="M250 295 C250 295 258.2715 290.8548 266 289 C269.9883 288.0428 275 289 275 289 "/>
<path id="27" d="M277 289 C277 289 282.1282 291.6346 287 292 C301.2937 293.072 302.6262 290.1252 317 292 C336.2484 294.5107 336.7527 299.1572 356 301 C382.5568 303.5427 411 301 411 301 "/>
<path id="28" d="M278 311 C278 311 302.4935 311.0245 326 314 C341.4927 315.9611 341.5243 319.2005 357 321 C383.924 324.1307 412 324 412 324 "/>
<path id="29" d="M258 305 C258 305 276.4669 304.5175 279 305 C279.0919 305.0175 279 309 279 309 "/>
<path id="30" d="M298 77 L298 340 "/>
<path id="31" d="M320 79 L320 340 "/>
<path id="32" d="M345 80 C345 80 344.1707 228.6013 345 336 C345.0098 337.2651 347 339 347 339 "/>
<path id="33" d="M370 79 C370 79 371.9134 162.958 370 246 C369.4258 270.9202 366.3407 271.0623 365 296 C363.8531 317.3318 365 339 365 339 "/>
<path id="34" d="M389 81 L389 347 "/>
<path id="35" d="M262 93 C262 93 263.7629 186.6521 262 277 C261.7981 287.3498 258 298 258 298 "/>
<path id="36" d="M256 303 L258 299 "/>
</g>
</g>
</svg>
