<?xml version="1.0" encoding="utf-8"?>
<!DOCTYPE svg PUBLIC "-//W3C//DTD SVG 1.1//EN" "http://www.w3.org/Graphics/SVG/1.1/DTD/svg11.dtd">
<svg viewBox="0 0 800 800" preserveAspectRatio="xMinYMin meet" xmlns="http://www.w3.org/2000/svg" version="1.1">
<g fill="none" stroke="black" stroke-linecap="round" stroke-linejoin="round" stroke-width="2.9522">
<g transform="translate(87.52,223.6901) scale(1.0162) translate(0.5,-72.8333)">
<path id="0" d="M447.5 398.8333 C447.5 398.8333 445.5 389.739 445.5 380.8333 C445.5 352.1374 447.8864 351.0439 447.5 322.8333 C447.3997 315.5141 445.0045 315.2996 444.5 307.8333 C442.5377 278.7914 442.5 278.1705 442.5 248.8333 C442.5 234.9106 444.8012 234.3869 444.5 220.8333 C444.3161 212.559 442.6157 204.0829 441.5 203.8333 C429.5269 201.1552 373.3487 199.5993 368.5 203.8333 C365.0368 206.8576 370.5 265.6578 370.5 265.8333 C370.5 265.8418 369.4925 263.3296 368.5 262.8333 C366.6568 261.9118 364.002 262.7721 362.5 261.8333 C361.4797 261.1957 360.619 259.6974 360.5 257.8333 C359.2587 238.3862 361.3373 235.4106 359.5 214.8333 C358.9305 208.4547 356.9657 202.2843 355.5 201.8333 C349.144 199.8776 336.9221 204.7942 320.5 202.8333 C304.9282 200.974 304.0425 197.6139 288.5 193.8333 C286.227 193.2804 284.0277 193.3936 283.5 193.8333 C282.9547 194.2878 282.5023 198.8357 282.5 198.8333 C282.4942 198.8276 280.5 190.8333 280.5 190.8333 C280.5 190.8333 289.1794 222.4943 295.5 252.8333 C296.4705 257.4919 296 261.8333 295.5 262.8333 C295.375 263.0833 292.7 263.4619 290.5 262.8333 C272.7118 257.751 254.7826 255.305 253.5 250.8333 C246.8637 227.6961 255.0277 164.388 253.5 133.8333 C253.4569 132.9715 249.633 132.7886 247.5 130.8333 C244.2497 127.8539 243.6061 122.9969 241.5 122.8333 C210.6461 120.4369 192.0582 122.3671 144.5 122.8333 C142.0437 122.8574 139.5109 123.7682 139.5 123.8333 C139.4743 123.9874 142.6695 126.2587 143.5 128.8333 C147.1884 140.2672 148.2104 141.9369 149.5 154.8333 C151.6381 176.2143 152.9722 177.9323 150.5 198.8333 C147.6595 222.8483 139.9045 237.3996 138.5 247.8333 C138.4354 248.313 143.502 250.8306 143.5 250.8333 C143.481 250.8587 139.1168 252.3322 135.5 251.8333 C125.522 250.4571 123.7331 250.6805 114.5 246.8333 C106.8335 243.639 103.0339 241.6145 99.5 236.8333 C97.0736 233.5506 96.8806 229.4076 97.5 223.8333 C98.2055 217.4835 101.1405 216.6309 102.5 209.8333 C103.497 204.8485 103.05 199.1083 102.5 198.8333 C100.3 197.7333 81.4211 197.5354 80.5 198.8333 C78.6711 201.4104 82.1441 215.6939 80.5 229.8333 C79.8327 235.5719 77.5102 241.0552 75.5 241.8333 C70.0812 243.9309 61.4394 243.1599 49.5 241.8333 C44.7038 241.3004 40.3595 239.3613 39.5 237.8333 C38.4787 236.0176 38.5642 230.8436 40.5 225.8333 C46.4672 210.389 53.3253 208.5729 56.5 193.8333 C59.417 180.2901 56.2039 161.9834 54.5 160.8333 C52.1171 159.2249 19.3658 162.6346 16.5 166.8333 C11.0788 174.776 12.8892 195.354 11.5 223.8333 C9.8971 256.6932 12.5925 257.3993 10.5 289.8333 C9.6346 303.2472 4.0321 307.397 5.5 316.8333 C6.6121 323.9826 13.1163 325.579 17.5 334.8333 C21.7278 343.7587 22.0802 344.8946 23.5 354.8333 C25.9701 372.1241 25.8199 378.3574 25.5 390.8333 C25.4726 391.9012 22.994 392.516 22.5 393.8333 C21.9012 395.4302 22.4581 398.8306 22.5 398.8333 C34.0844 399.5972 68.1805 397.8871 113.5 399.8333 C149.4686 401.378 149.7163 404.6504 185.5 405.8333 C209.7531 406.6351 212.1522 403.0758 234.5 403.8333 C239.129 403.9903 239.5395 407.1247 244.5 407.8333 C266.3529 410.9552 267.5452 411.0552 290.5 411.8333 C326.3236 413.0477 327.0306 409.5813 362.5 411.8333 C389.3523 413.5382 390.556 417.51 416.5 419.8333 C422.5791 420.3777 427.51 418.5987 429.5 417.8333 C429.6668 417.7692 429.2383 415.0427 429.5 414.8333 C430.1325 414.3274 433.9635 414.3699 434.5 413.8333 C434.8577 413.4757 433.8599 410.7478 434.5 409.8333 C436.2443 407.3414 441.5 403.8333 441.5 403.8333 "/>
<path id="1" d="M443.5 408.8333 C443.5 408.8333 473.5395 410.8333 503.5 410.8333 C558.9269 410.8333 614.5 408.8333 614.5 408.8333 "/>
<path id="2" d="M311.5 198.8333 C311.5 198.8333 311.284 139.4101 313.5 136.8333 C314.3089 135.8927 334.1746 145.5246 354.5 148.8333 C375.9478 152.3248 395.132 148.3515 399.5 150.8333 C400.6426 151.4825 399.93 163.8236 398.5 173.8333 C398.1646 176.1813 395.6896 176.6533 395.5 178.8333 C394.8545 186.2565 396.5 196.8333 396.5 196.8333 "/>
<path id="3" d="M296.5 192.8333 C296.5 192.8333 293.508 165.7965 292.5 138.8333 C291.5134 112.4426 296.8035 89.2554 292.5 85.8333 C282.9692 78.2546 250.7137 77.2982 209.5 72.8333 C191.4342 70.8762 173.4365 72.105 172.5 72.8333 C172.3397 72.958 179.6163 83.6093 182.5 93.8333 C184.7132 101.6802 183.5 111.8333 183.5 111.8333 "/>
<path id="4" d="M145.5 148.8333 C145.5 148.8333 90.0648 142.6156 85.5 145.8333 C82.864 147.6915 84.5 191.8333 84.5 191.8333 "/>
<path id="5" d="M22.5 398.8333 L-0.5 396.8333 "/>
</g>
</g>
</svg>
