<?xml version="1.0" encoding="utf-8"?>
<!DOCTYPE svg PUBLIC "-//W3C//DTD SVG 1.1//EN" "http://www.w3.org/Graphics/SVG/1.1/DTD/svg11.dtd">
<svg viewBox="0 0 800 800" preserveAspectRatio="xMinYMin meet" xmlns="http://www.w3.org/2000/svg" version="1.1">
<g fill="none" stroke="black" stroke-linecap="round" stroke-linejoin="round" stroke-width="1.9009">
<g transform="translate(155.3818,87.52) scale(1.5782) translate(-110,-85.1333)">
<path id="0" d="M212 93.1333 C212 93.1333 212.0741 101.563 210 109.1333 C202.2377 137.4657 199.6538 137.6057 192 166.1333 C188.7724 178.1633 191.2412 179.1813 188 191.1333 C183.3709 208.2033 180.0717 208.2649 176 225.1333 C173.2982 236.3264 176.2584 237.8412 174 249.1333 C172.408 257.0934 170.0692 257.1153 168 265.1333 C166.1704 272.2228 168.0064 273.111 166 280.1333 C162.1529 293.5981 159.6042 294.158 156 307.1333 C154.9107 311.055 157.0726 312.2453 156 316.1333 C153.3535 325.7268 150.6814 325.944 148 336.1333 C140.8241 363.4019 143.3681 364.6 136 392.1333 C124.4326 435.3588 110 478.1333 110 478.1333 "/>
<path id="1" d="M356 90.1333 C356 90.1333 361.7095 126.3029 365 162.1333 C366.1748 174.9253 363.9825 175.2872 365 188.1333 C367.9599 225.5027 368.2498 225.751 373 263.1333 C379.743 316.1978 378.3456 317.0686 388 369.1333 C392.2077 391.8249 395.717 391.8695 401 414.1333 C402.5642 420.7254 400.1219 421.8071 402 428.1333 C409.2702 452.6224 420 478.1333 420 478.1333 "/>
<path id="2" d="M212 96.1333 C212 96.1333 216.4164 97.0501 220 96.1333 C236.9387 91.8002 238.9722 85.4357 255 85.1333 C287.2446 84.5249 290.5614 90.7901 326 94.1333 C343.3098 95.7663 361 95.1333 361 95.1333 "/>
<path id="3" d="M186 209.1333 C186 209.1333 195.2669 204.3681 204 204.1333 C284.905 201.9585 372 204.1333 372 204.1333 "/>
<path id="4" d="M161 321.1333 C161 321.1333 163.2055 319.1432 165 319.1333 C244.1857 318.6958 277.8293 320.4918 342 320.1333 C342.7292 320.1293 343.1748 318.2138 344 318.1333 C358.734 316.6959 383 316.1333 383 316.1333 "/>
<path id="5" d="M142 480.1333 C142 480.1333 152.6234 457.8699 161 435.1333 C166.5279 420.1291 165.4948 407.1068 170 404.1333 C176.4719 399.8619 210.0694 400.3856 211 402.1333 C214.7072 409.0956 211 481.1333 211 481.1333 "/>
<path id="6" d="M235 479.1333 C235 479.1333 240.0598 469.2224 242 459.1333 C247.4116 430.993 244.5963 408.502 250 401.1333 C252.4029 397.8567 284.6455 396.9218 286 399.1333 C292.0777 409.0561 299 481.1333 299 481.1333 "/>
<path id="7" d="M327 480.1333 C327 480.1333 327.5065 455.7431 327 447.1333 C326.9828 446.8417 325.0403 446.4556 325 446.1333 C324.5167 442.2667 326.1436 436.8512 325 431.1333 C324.5578 428.9224 321.4492 428.4542 321 426.1333 C318.9472 415.5271 318.2397 402.6044 319 400.1333 C319.0922 399.8338 324.3731 401.0824 329 400.1333 C343.1773 397.2252 343.5227 394.8649 358 392.1333 C369.5675 389.9508 380.8425 388.2937 382 390.1333 C391.8193 405.739 414 481.1333 414 481.1333 "/>
<path id="8" d="M173 372.1333 C173 372.1333 176.9799 365.0594 179 358.1333 C180.32 353.6076 178.8549 348.8801 180 348.1333 C183.8457 345.6253 201.5061 342.6147 202 343.1333 C202.746 343.9166 202.6422 365.9626 200 369.1333 C197.7875 371.7883 177 373.1333 177 373.1333 "/>
<path id="9" d="M231 374.1333 C231 374.1333 232.2638 348.1628 236 343.1333 C238.1095 340.2936 256.4766 338.4279 257 339.1333 C258.6489 341.3557 261.0646 371.7462 259 374.1333 C257.0512 376.3867 225 376.1333 225 376.1333 "/>
<path id="10" d="M311 375.1333 C311 375.1333 308.2667 344.1754 311 338.1333 C312.0043 335.9132 329.5506 332.5818 330 333.1333 C331.4767 334.9456 335.3562 361.7673 333 365.1333 C330.6595 368.4768 302 373.1333 302 373.1333 "/>
<path id="11" d="M190 277.1333 C190 277.1333 196.4329 253.3161 203 246.1333 C206.2726 242.5539 221.6407 241.5781 222 242.1333 C223.7301 244.8071 224.6097 263.7413 225 280.1333 C225.0405 281.8351 223.8342 283.932 223 284.1333 C215.2008 286.0159 201.6724 288.8017 196 287.1333 C193.6493 286.4419 189.9113 278.6897 189 274.1333 C188.595 272.1083 192 267.1333 192 267.1333 "/>
<path id="12" d="M257 241.1333 L258 288.1333 "/>
<path id="13" d="M258 240.1333 C258 240.1333 292.2323 238.3656 295 241.1333 C297.9134 244.0467 299.5593 276.382 297 279.1333 C293.8791 282.4883 255 284.1333 255 284.1333 "/>
<path id="14" d="M314 280.1333 C314 280.1333 311.5691 250.7817 315 246.1333 C317.9771 242.0999 343.6794 236.9961 345 238.1333 C347.2619 240.0811 348.6779 257.7823 351 277.1333 C351.6431 282.4924 351.519 287.9421 351 288.1333 C345.9919 289.9784 317.3028 292.7469 313 291.1333 C311.979 290.7505 310.6868 280.3377 311 273.1333 C311.0897 271.0699 314 268.1333 314 268.1333 "/>
<path id="15" d="M216 181.1333 C216 181.1333 218.6959 131.5844 224 124.1333 C226.2169 121.0192 256.9092 121.0036 258 122.1333 C258.8919 123.0571 256.0941 138.3315 252 153.1333 C249.7516 161.2623 248.6338 167.0709 245 169.1333 C237.5798 173.3448 215 174.1333 215 174.1333 "/>
<path id="16" d="M269 170.1333 C269 170.1333 266.5355 129.9541 271 123.1333 C273.796 118.8617 303.7062 113.8727 305 115.1333 C307.4598 117.5301 311.3978 148.5528 310 161.1333 C309.7163 163.6864 304.4472 167.5939 299 169.1333 C284.0424 173.3605 264 174.1333 264 174.1333 "/>
<path id="17" d="M327 176.1333 C327 176.1333 324.0576 128.5799 327 119.1333 C327.512 117.4896 346 115.1333 346 115.1333 "/>
<path id="18" d="M346 115.1333 C346 115.1333 354.7797 158.5849 353 164.1333 C352.5547 165.5216 329 168.1333 329 168.1333 "/>
<path id="19" d="M193 409.1333 C193 409.1333 192.6411 428.6715 191 447.1333 C190.6915 450.6043 189.7125 452.8865 189 454.1333 C188.9 454.3083 187.0062 454.0915 187 454.1333 C186.4296 457.9836 185 481.1333 185 481.1333 "/>
<path id="20" d="M267 404.1333 C267 404.1333 265.2677 423.3376 266 442.1333 C266.7554 461.5207 270 481.1333 270 481.1333 "/>
<path id="21" d="M345 405.1333 C345 405.1333 345.7076 429.6697 351 451.1333 C354.3394 464.6766 363 478.1333 363 478.1333 "/>
</g>
</g>
</svg>
