<?xml version="1.0" encoding="utf-8"?>
<!DOCTYPE svg PUBLIC "-//W3C//DTD SVG 1.1//EN" "http://www.w3.org/Graphics/SVG/1.1/DTD/svg11.dtd">
<svg viewBox="0 0 800 800" preserveAspectRatio="xMinYMin meet" xmlns="http://www.w3.org/2000/svg" version="1.1">
<g fill="none" stroke="black" stroke-linecap="round" stroke-linejoin="round" stroke-width="1.0273">
<g transform="translate(87.52,267.123) scale(2.9204) translate(-150.3611,-135.25)">
<path id="0" d="M166.3611 140.25 C166.3611 140.25 160.8914 139.5699 159.3611 140.25 C158.5352 140.6171 157.7051 142.2721 157.3611 144.25 C155.8304 153.0516 154.3358 156.0726 155.3611 163.25 C155.9012 167.0305 158.1181 169.4702 161.3611 172.25 C163.861 174.3927 165.488 174.669 169.3611 175.25 C174.8614 176.075 176.5591 176.6506 181.3611 175.25 C186.9801 173.6111 191.2035 171.6406 193.3611 168.25 C195.76 164.4803 195.8992 159.1695 195.3611 153.25 C195.0937 150.3084 193.8742 148.7631 191.3611 146.25 C187.0203 141.9092 185.9154 140.5999 180.3611 138.25 C174.0791 135.5922 167.8845 134.9531 165.3611 135.25 C164.9152 135.3025 163.3611 140.25 163.3611 140.25 "/>
<path id="1" d="M168.3611 187.25 C168.3611 187.25 158.9803 187.8372 155.3611 190.25 C152.707 192.0194 151.42 195.0144 150.3611 199.25 C149.2247 203.7955 148.8447 206.5433 150.3611 210.25 C152.385 215.1974 155.3676 219.7524 159.3611 221.25 C166.4733 223.9171 173.201 223.8665 182.3611 222.25 C187.2717 221.3834 189.9603 219.1042 193.3611 215.25 C196.1153 212.1286 196.0803 210.0531 197.3611 205.25 C197.9398 203.0799 198.1741 201.5711 197.3611 200.25 C195.2599 196.8355 193.657 194.472 189.3611 192.25 C180.6474 187.7429 168.3611 185.25 168.3611 185.25 "/>
<path id="2" d="M195.3611 168.25 C195.3611 168.25 198.9987 167.995 201.3611 169.25 C213.8402 175.8795 214.1683 178.3238 227.3611 185.25 C233.737 188.5973 238.4145 188.7767 241.3611 190.25 C241.5397 190.3393 241.2197 192.1947 241.3611 192.25 C246.0126 194.0701 254.048 194.4901 264.3611 199.25 C272.6479 203.0747 271.9439 206.424 280.3611 210.25 C298.5437 218.5148 319.3611 224.25 319.3611 224.25 "/>
<path id="3" d="M197.3611 154.25 C197.3611 154.25 208.3314 155.2411 218.3611 158.25 C232.9539 162.6278 233.5566 162.6764 247.3611 169.25 C264.7176 177.515 263.9669 179.9204 281.3611 188.25 C299.193 196.7892 301.3584 194.0199 318.3611 203.25 C335.493 212.5502 351.3611 226.25 351.3611 226.25 "/>
<path id="4" d="M317.3611 226.25 L351.3611 226.25 "/>
<path id="5" d="M196.3611 201.25 C196.3611 201.25 200.1621 197.2582 204.3611 195.25 C211.0795 192.0368 211.7667 192.2946 219.3611 190.25 C237.677 185.3188 238.1792 186.6372 256.3611 181.25 C292.0289 170.6818 327.3611 158.25 327.3611 158.25 "/>
<path id="6" d="M195.3611 217.25 C195.3611 217.25 210.2725 208.9082 225.3611 203.25 C233.708 200.1199 240.1401 200.3237 243.3611 199.25 C243.4722 199.213 243.2948 197.2635 243.3611 197.25 C252.4466 195.3992 271.1655 194.3197 297.3611 188.25 C311.5212 184.969 311.2222 182.3631 325.3611 178.25 C338.5103 174.4248 339.5759 176.1839 352.3611 172.25 C358.498 170.3617 364.3611 166.25 364.3611 166.25 "/>
<path id="7" d="M330.3611 160.25 L363.3611 165.25 "/>
<path id="8" d="M327.3611 158.25 L334.3611 161.25 "/>
</g>
</g>
</svg>
