<?xml version="1.0" encoding="utf-8"?>
<!DOCTYPE svg PUBLIC "-//W3C//DTD SVG 1.1//EN" "http://www.w3.org/Graphics/SVG/1.1/DTD/svg11.dtd">
<svg viewBox="0 0 800 800" preserveAspectRatio="xMinYMin meet" xmlns="http://www.w3.org/2000/svg" version="1.1">
<g fill="none" stroke="black" stroke-linecap="round" stroke-linejoin="round" stroke-width="1.3153">
<g transform="translate(151.3845,87.52) scale(2.2809) translate(-118,-29)">
<path id="0" d="M170 244 C170 244 163.9095 241.6113 158 241 C149.8392 240.1558 149.321 240.4056 141 241 C135.5459 241.3896 134.4206 241.1797 130 243 C126.9869 244.2407 126.0383 245.2822 124 248 C122.0153 250.6463 121.2686 251.6871 121 255 C119.8874 268.7215 119.6013 272.0625 121 285 C121.3465 288.2052 122.5327 289.5327 125 292 C128.3646 295.3646 129.851 297.3246 134 298 C148.2072 300.3128 152.9866 299.3951 168 299 C169.7909 298.9529 170.9727 298.2841 172 297 C174.2127 294.2341 175.2014 292.993 176 289 C178.9766 274.117 180 257 180 257 "/>
<path id="1" d="M171 245 C171 245 184.608 233.9401 192 223 C195.6159 217.6484 192.8275 214.1184 196 208 C199.1932 201.8417 206 196 206 196 "/>
<path id="2" d="M226 175 C226 175 234.2804 156.3893 246 141 C283.1748 92.1846 286.6573 93.2515 325 45 C330.7828 37.7228 335 29 335 29 "/>
<path id="3" d="M336 31 C336 31 337.5991 39.4025 336 44 C334.4276 48.5206 331.1578 48.6455 328 54 C319.88 67.7687 320.5127 70.347 313 83 C311.9347 84.7942 309.8966 84.2816 309 86 C304.7395 94.166 306.134 97.0713 301 106 C295.026 116.3896 294.2034 117.2308 286 126 C280.1915 132.2091 278.1427 130.8573 272 137 C260.9432 148.0568 259.1636 148.4825 251 161 C244.9644 170.2545 247.2669 173.1245 242 183 C239.6941 187.3236 235 191 235 191 "/>
<path id="4" d="M214 218 C214 218 214.013 214.9892 214 215 C213.8815 215.0987 206.5852 220.9458 202 228 C194.042 240.2431 195.6657 243.153 188 255 C185.4114 259.0005 180 262 180 262 "/>
<path id="5" d="M168 258 C168 258 164.5145 252.4867 162 252 C153.2219 250.301 147.172 250.2049 137 252 C132.9073 252.7222 128.5682 255.664 128 258 C125.849 266.843 126.237 281.2871 128 289 C128.3315 290.4502 132.3526 292.712 136 293 C149.1237 294.0361 163.1358 294.6115 166 292 C168.9051 289.3512 170 262 170 262 "/>
<path id="6" d="M251 241 C251 241 246.4311 240.5925 244 242 C238.2936 245.3037 233.778 247.7032 232 252 C229.7427 257.4552 230.9345 261.9434 232 271 C232.8676 278.3743 232.4581 281.0092 236 286 C241.7131 294.0502 245.7301 298.7305 254 302 C262.6336 305.4133 268.1336 303.9879 279 303 C282.6486 302.6683 283.3404 301.368 287 299 C291.6761 295.9743 292.8974 295.9299 296 292 C299.6814 287.3369 300.8724 285.7992 302 280 C304.0721 269.3437 305.6678 264.9561 303 256 C299.9083 245.6208 295.3841 241.7267 288 233 C286.154 230.8183 284.3544 230.5032 281 230 C275.1466 229.122 268 230 268 230 "/>
<path id="7" d="M249 242 C249 242 251.4371 237.3314 251 235 C250.3443 231.5029 249.0499 229.8124 246 226 C241.3548 220.1934 240.9519 218.8995 235 215 C227.4023 210.0222 224.2054 212.3579 217 207 C205.9835 198.8083 204.7563 197.4368 196 186 C180.7826 166.1242 179.6046 165.1777 168 143 C157.554 123.0365 160.7154 120.6084 151 100 C144.4215 86.0456 141.0967 86.645 135 73 C131.0305 64.1159 133.5993 62.3157 130 53 C125.3005 40.8365 117.9753 29.0988 118 29 C118.0047 28.9812 127.951 31.6887 134 37 C147.0272 48.4385 147.9263 50.5707 159 65 C163.961 71.4644 162.6094 73.5829 167 80 C168.5915 82.326 171.0812 81.8179 172 84 C177.8137 97.8075 175.0985 104.352 183 118 C189.9949 130.0821 196.0799 128.8362 205 141 C211.8534 150.3456 208.9411 153.7352 216 163 C232.0762 184.1 238.5501 185.104 253 204 C255.4042 207.144 252.7659 210.6489 255 214 C260.4538 222.1807 271 231 271 231 "/>
<path id="8" d="M266 248 C266 248 250.2557 246.4787 244 247 C243.3578 247.0535 242.0843 248.6927 242 250 C241.2452 261.6987 239.6146 267.9282 242 278 C243.0335 282.3638 246.2989 283.9257 251 288 C253.2885 289.9834 254.1935 290.6882 257 291 C266.3059 292.034 268.295 291.7465 278 291 C280.3818 290.8168 281.4068 290.4339 283 289 C285.6475 286.6173 287.4663 285.202 288 282 C289.987 270.0778 290.1857 263.0783 289 253 C288.7706 251.05 286.5934 249.5128 284 248 C281.3247 246.4394 280.3237 246.1662 277 246 C270.9378 245.6969 264 247 264 247 "/>
<path id="9" d="M229 182 L210 202 "/>
<path id="10" d="M234 193 C234 193 230.5356 195.2593 230 197 C229.0785 199.9949 229.1738 204.864 230 206 C230.7177 206.9868 236.5297 208.5655 238 208 C239.5642 207.3984 241.9976 204.2077 243 201 C244.0536 197.6284 243.364 196.0044 243 192 C242.9154 191.0697 242.2638 190.0377 242 190 C240.7984 189.8283 236 191 236 191 "/>
<path id="11" d="M234 198 L240 201 "/>
<path id="12" d="M240 197 L230 205 "/>
<path id="13" d="M213 217 C213 217 218.2441 216.6076 221 215 C223.0795 213.787 225 210 225 210 "/>
<path id="14" d="M209 202 C209 202 206.124 204.6365 206 206 C205.8022 208.1758 206.8513 211.8513 208 213 C208.8935 213.8935 212.911 214.594 214 214 C215.7605 213.0397 219 207 219 207 "/>
<path id="15" d="M209 208 L215 210 "/>
<path id="16" d="M320 77 C320 77 314.6143 78.0131 313 80 C309.6784 84.0881 307 93 307 93 "/>
</g>
</g>
</svg>
