<?xml version="1.0" encoding="utf-8"?>
<!DOCTYPE svg PUBLIC "-//W3C//DTD SVG 1.1//EN" "http://www.w3.org/Graphics/SVG/1.1/DTD/svg11.dtd">
<svg viewBox="0 0 800 800" preserveAspectRatio="xMinYMin meet" xmlns="http://www.w3.org/2000/svg" version="1.1">
<g fill="none" stroke="black" stroke-linecap="round" stroke-linejoin="round" stroke-width="0.96966">
<g transform="translate(104.5362,87.52) scale(3.0939) translate(-168,-106)">
<path id="0" d="M169 267 C169 267 167.4613 286.9193 168 295 C168.0424 295.6364 170.4093 297.0844 171 297 C171.9637 296.8623 173.3135 295.7514 175 294 C198.9304 269.1492 197.812 266.8761 223 243 C245.462 221.7079 249.2069 224.1425 271 203 C281.8591 192.4651 279.9916 189.0438 290 178 C293.8078 173.7983 295.7704 175.0669 300 171 C308.4202 162.9036 309.6757 161.7838 316 153 C317.8082 150.4887 318 146 318 146 "/>
<path id="1" d="M170 266 C170 266 186.0527 261.4592 195 253 C211.0449 237.8303 208.7131 231.6441 225 214 C238.1121 199.7952 241.6238 201.7025 255 188 C261.4692 181.373 259.3122 177.697 266 172 C284.6152 156.1426 309 142 309 142 "/>
<path id="2" d="M309 144 C309 144 312.6886 144.4282 313 144 C314.4889 141.9528 316.0627 138.4363 317 133 C318.4571 124.5488 315.8141 121.5577 318 115 C319.391 110.8269 322.5314 107.4865 326 106 C329.8029 104.3702 332.9833 105.0373 339 106 C344.8501 106.936 347.9093 107.0639 351 110 C355.3524 114.1348 357.0463 117.9179 359 125 C360.5896 130.7622 360.6161 136.0616 359 139 C357.609 141.5291 352.8846 144.5559 348 145 C334.1154 146.2622 315 143 315 143 "/>
<path id="3" d="M203 149 C203 149 206.4602 149.2803 207 150 C208.1471 151.5294 207.25 154.3167 209 157 C214.1583 164.9095 214.8374 165.8374 222 173 C236.0782 187.0782 252 200 252 200 "/>
<path id="4" d="M193 157 C193 157 197.4781 157.1881 198 158 C199.9284 160.9997 198.571 166.9798 202 171 C210.8429 181.3675 222.531 187.7172 227 192 C227.0908 192.087 225.8839 193.8507 226 194 C227.2564 195.6153 233.8659 200.9329 234 201 C234.0175 201.0087 234 198 234 198 "/>
<path id="5" d="M263 212 C263 212 275.2073 222.4268 285 234 C291.343 241.4963 289.6535 243.5958 296 251 C304.2333 260.6055 308.278 260.9336 315 269 C316.3576 270.6292 315.8479 274.8479 316 275 C316.0217 275.0217 318.4447 272.8291 319 273 C321.7587 273.8488 328.9764 278.9823 329 279 C329.0032 279.0024 327.0015 278.9809 327 279 C326.7515 282.2309 327.7487 294.1433 327 305 C326.9096 306.3103 325.0585 308.0282 325 308 C321.5562 306.3419 307.804 301.2047 300 292 C291.2154 281.6387 293.7495 274.4667 286 262 C283.4781 257.9431 278.9931 258.4426 277 255 C274.8523 251.2903 277.444 247.313 275 243 C270.0685 234.2974 267.2128 231.8694 260 225 C258.2262 223.3106 254.9798 223.8165 254 223 C253.6805 222.7337 254 220 254 220 "/>
<path id="6" d="M200 157 C200 157 193.033 157.6014 188 156 C183.1341 154.4518 178.7911 152.2854 178 150 C176.3567 145.2526 177.3692 131.2814 179 130 C181.7877 127.8097 198.9262 126.4995 206 128 C208.1052 128.4466 211.7742 135.6451 212 137 C212.0527 137.3161 208.823 138.5185 208 140 C206.9668 141.8597 207.1814 145.6977 207 146 C206.9945 146.0092 205 145.0014 205 145 C205 145 207 145 207 145 "/>
</g>
</g>
</svg>
