<?xml version="1.0" encoding="utf-8"?>
<!DOCTYPE svg PUBLIC "-//W3C//DTD SVG 1.1//EN" "http://www.w3.org/Graphics/SVG/1.1/DTD/svg11.dtd">
<svg viewBox="0 0 800 800" preserveAspectRatio="xMinYMin meet" xmlns="http://www.w3.org/2000/svg" version="1.1">
<g fill="none" stroke="black" stroke-linecap="round" stroke-linejoin="round" stroke-width="0.91206">
<g transform="translate(123.7019,87.52) scale(3.2893) translate(-229,-157.6)">
<path id="0" d="M268 272.6 C268 272.6 259.8694 271.324 254 272.6 C249.7711 273.5193 248.8624 274.5959 245 277.6 C240.2053 281.3292 239.1243 281.7183 236 286.6 C231.6649 293.3736 230.7909 294.9249 229 302.6 C227.5782 308.6936 227.2473 311.5367 229 316.6 C230.8923 322.0667 233.0969 323.6969 238 328.6 C241.0353 331.6353 242.61 333.2493 246 333.6 C254.2759 334.4561 260.1481 334.8244 267 331.6 C273.1171 328.7214 275.2987 324.7903 280 317.6 C283.0539 312.9294 283.1535 311.5253 284 305.6 C285.5583 294.6921 283.4102 293.4107 285 282.6 C285.7959 277.1878 286.2341 276.3943 289 271.6 C293.4367 263.9097 294.3314 263.9359 300 256.6 C302.8069 252.9675 302.5197 252.228 306 249.6 C326.246 234.3122 329.2121 235.357 349 219.6 C355.3166 214.5702 354.0085 212.3611 360 206.6 C366.7662 200.094 368.4749 201.3014 375 194.6 C386.6302 182.6554 396.9998 168.6002 397 168.6 C397.0001 168.5999 391.14 175.302 385 179.6 C381.8521 181.8036 380.1298 180.3466 377 182.6 C368.4363 188.7659 365.3503 191.935 360 197.6 C359.4832 198.1472 360.4851 200.1755 360 200.6 C350.0439 209.3116 344.7424 214.5745 328 225.6 C304.1292 241.3198 298.5695 239.007 278 254.6 C270.6718 260.1552 266 272.6 266 272.6 "/>
<path id="1" d="M259 282.6 C259 282.6 254.8811 282.9876 253 284.6 C248.9591 288.0636 247.9796 289.4534 245 294.6 C242.8135 298.3767 242.5717 299.2168 242 303.6 C241.1477 310.1342 240.3182 314.0682 242 317.6 C243.4129 320.5672 247.4432 322.7237 252 324.6 C254.4761 325.6196 256.6606 325.3018 259 324.6 C260.3034 324.209 261.113 323.2473 262 321.6 C264.3357 317.2622 265.2283 316.4228 266 311.6 C267.0879 304.8009 267.4808 302.5231 266 296.6 C264.9635 292.4539 260 287.6 260 287.6 "/>
<path id="2" d="M259 277.6 L266 289.6 "/>
<path id="3" d="M313 289.6 C313 289.6 306.902 293.1616 304 297.6 C299.1445 305.0261 298.4072 306.7737 296 315.6 C294.1784 322.2794 293.4548 325.5781 295 330.6 C296.4481 335.3064 299.2179 338.8901 304 341.6 C311.6598 345.9406 315.0818 345.947 325 347.6 C328.9823 348.2637 331.623 348.3569 334 346.6 C340.3032 341.9411 344.2782 338.2761 348 330.6 C350.9348 324.5469 351.1281 320.1433 350 313.6 C349.1054 308.4115 347.3347 306.2815 343 301.6 C335.5727 293.5786 332.5728 294.1728 325 286.6 C322.9347 284.5347 322.7715 283.686 322 280.6 C314.028 248.7118 316.6238 246.5928 307 214.6 C298.3171 185.7353 285.0156 157.6304 285 157.6 C284.9968 157.5938 283.5199 165.1861 285 171.6 C293.6531 209.0969 294.5648 210.7457 306 248.6 C308.9385 258.3273 311.1588 258.0433 314 267.6 C316.5107 276.0452 317 285.6 317 285.6 "/>
<path id="4" d="M327 307.6 C327 307.6 318.9252 305.8595 317 306.6 C315.9373 307.0087 314.5332 309.756 314 312.6 C313.1874 316.9337 312.5907 319.6248 314 322.6 C315.8692 326.5461 319.2494 329.0034 323 331.6 C323.985 332.2819 326.0351 332.1514 327 331.6 C328.2751 330.8714 329.4552 329.5977 330 327.6 C332.1279 319.7977 333.8798 315.3186 333 309.6 C332.5447 306.6404 326 301.6 326 301.6 "/>
<path id="5" d="M305 239.6 C305 239.6 299.4791 241.546 299 242.6 C298.3688 243.9886 299.4424 250.2998 300 250.6 C301.2041 251.2484 309.5122 251.1549 312 249.6 C313.8967 248.4146 316 240.6 316 240.6 "/>
</g>
</g>
</svg>
