<?xml version="1.0" encoding="utf-8"?>
<!DOCTYPE svg PUBLIC "-//W3C//DTD SVG 1.1//EN" "http://www.w3.org/Graphics/SVG/1.1/DTD/svg11.dtd">
<svg viewBox="0 0 800 800" preserveAspectRatio="xMinYMin meet" xmlns="http://www.w3.org/2000/svg" version="1.1">
<g fill="none" stroke="black" stroke-linecap="round" stroke-linejoin="round" stroke-width="1.3057">
<g transform="translate(171.3841,87.52) scale(2.2976) translate(-202,-111)">
<path id="0" d="M269 178 C269 178 268.9375 140.9632 267 115 C266.8704 113.2634 264.001 110.9995 264 111 C263.9986 111.0007 264.136 113.678 265 116 C272.0093 134.8375 276.7218 135.6419 280 154 C283.7071 174.7596 280 200 280 200 "/>
<path id="1" d="M266 172 L266 204 "/>
<path id="2" d="M266 204 C266 204 259.4667 196.2539 257 188 C246.9588 154.4007 247.2399 143.4257 240 117 C239.73 116.0144 237.0012 114.9546 237 115 C236.9515 116.8899 236.0217 155.8296 238 195 C238.4745 204.3959 237.8141 207.9377 242 214 C249.7444 225.216 256.5192 224.4687 267 237 C278.8305 251.1451 276.2524 255.0147 288 269 C296.4344 279.041 299.1984 277.4633 309 287 C317.5291 295.2986 325 305 325 305 "/>
<path id="3" d="M267 203 C267 203 268.8168 209.1415 272 214 C278.0588 223.2476 278.1567 224.3745 286 232 C295.5932 241.3267 301.2777 239.5888 308 249 C316.4836 260.8771 315.3412 271.38 321 281 C321.8732 282.4844 325.3247 281.4394 328 283 C330.5934 284.5128 333 288 333 288 "/>
<path id="4" d="M283 187 C283 187 283.9011 194.894 283 200 C282.6861 201.779 280.5488 202.0243 280 204 C278.3473 209.9498 278 218 278 218 "/>
<path id="5" d="M272 239 C272 239 269.5711 246.5757 269 254 C268.1001 265.6989 270.2776 266.3187 269 278 C266.8298 297.8415 262 318 262 318 "/>
<path id="6" d="M260 234 C260 234 252.86 252.4239 249 271 C244.9678 290.4051 244 311 244 311 "/>
<path id="7" d="M265 216 C265 216 264.4922 220.4922 265 221 C265.914 221.914 271.4213 223.217 272 223 C272.2662 222.9002 273.5367 218.7753 273 218 C271.1406 215.3142 265.8557 211.2239 263 210 C262.3317 209.7136 259 212 259 212 "/>
<path id="8" d="M335 286 C335 286 337.4281 282.3849 340 281 C343.0348 279.3659 344.0185 279.4119 348 279 C358.2382 277.9409 363.8013 275.7255 369 278 C373.4403 279.9426 375.5633 285.3097 380 293 C382.7659 297.7943 381.034 300.5397 384 304 C388.5224 309.2762 392.1047 308.7983 398 314 C399.9144 315.6892 400.8071 316.7492 401 319 C402.1009 331.8442 403.306 337.1817 401 349 C400.0345 353.9483 397.4886 355.9839 393 360 C388.8822 363.6844 387.3516 364.5592 382 366 C375.5226 367.7439 369.4414 368.8901 367 367 C360.9325 362.3026 359.7582 353.8134 351 342 C338.4035 325.0093 334.8147 324.6626 324 309 C321.8261 305.8516 322 300 322 300 "/>
<path id="9" d="M341 300 C341 300 353.1607 308.0165 359 317 C364.7375 325.827 362.3656 329.3052 367 340 C368.6051 343.7041 369.9661 345.4181 372 347 C372.7789 347.6058 375.5708 347.515 376 347 C378.1888 344.3734 380.7333 340.6999 382 335 C383.425 328.5876 383.341 326.705 382 320 C380.5517 312.7586 379.902 309.7691 376 305 C372.7038 300.9713 369.1383 301.9964 364 298 C360.629 295.3781 360.587 292.0653 358 291 C354.7962 289.6808 351.583 290.1407 347 291 C344.6825 291.4345 342.7093 292.5813 342 294 C340.7748 296.4504 341 303 341 303 "/>
<path id="10" d="M267 316 C267 316 267.6279 343.7668 266 369 C265.718 373.3717 264.1894 376.4708 263 378 C262.6735 378.4198 259.9491 377.4068 259 378 C257.3094 379.0566 256.6721 382.4775 255 383 C251.3928 384.1272 246.8272 384.7664 243 383 C236.7685 380.1239 236.3294 375.8863 229 371 C223.3363 367.2242 220.9793 368.8476 216 365 C211.0592 361.1821 209.6552 359.6896 207 354 C203.2735 346.0146 202.7123 344.0222 202 335 C201.308 326.2349 200.8332 322.8925 204 316 C207.9575 307.3867 212.2661 301.9982 219 298 C223.6121 295.2615 229.0118 296.3647 236 297 C238.1791 297.1981 240.5194 298.6269 241 300 C242.7908 305.1165 243 317 243 317 "/>
<path id="11" d="M263 317 L259 311 "/>
<path id="12" d="M229 327 C229 327 237.3829 323.3341 239 324 C241.0512 324.8446 245.0355 329.4533 246 334 C247.9315 343.1054 247.3588 349.6627 246 357 C245.709 358.5714 243.26 360.1782 241 361 C238.8992 361.7639 236.333 361.7998 235 361 C233.3116 359.987 231.2282 357.5864 231 355 C229.9973 343.6365 232 327 232 327 "/>
<path id="13" d="M246 293 C246 293 249.6294 296.9356 253 298 C257.8388 299.528 265 299 265 299 "/>
<path id="14" d="M313 286 C313 286 316.9132 286.2082 317 286 C317.6464 284.4487 318 274 318 274 "/>
</g>
</g>
</svg>
