<?xml version="1.0" encoding="utf-8"?>
<!DOCTYPE svg PUBLIC "-//W3C//DTD SVG 1.1//EN" "http://www.w3.org/Graphics/SVG/1.1/DTD/svg11.dtd">
<svg viewBox="0 0 800 800" preserveAspectRatio="xMinYMin meet" xmlns="http://www.w3.org/2000/svg" version="1.1">
<g fill="none" stroke="black" stroke-linecap="round" stroke-linejoin="round" stroke-width="1.4449">
<g transform="translate(87.52,153.9609) scale(2.0763) translate(-54,-122)">
<path id="0" d="M104 215 C104 215 114.2377 215.5254 124 214 C177.7458 205.6022 178.4405 201.0573 232 195 C261.1748 191.7005 263.5735 196.2359 292 195 C296.3258 194.8119 296.553 192.5929 301 192 C310.998 190.6669 312.1572 192.6873 322 191 C328.9072 189.8159 329.4838 189.1374 336 186 C342.6927 182.7776 343.6217 182.5291 349 178 C352.4708 175.0772 354.2574 173.5891 355 170 C356.6874 161.8441 357.136 156.3574 355 149 C353.7171 144.581 350.638 142.1734 346 139 C342.4714 136.5857 340.8892 136.5238 336 136 C327.4734 135.0864 326.4852 135.2929 318 136 C315.0931 136.2422 313.2645 136.4027 312 138 C305.9505 145.6414 301.9085 149.7082 299 160 C296.2811 169.6208 297.0502 174.8082 299 184 C299.8518 188.0156 306 193 306 193 "/>
<path id="1" d="M139 160 C139 160 154.5131 173.8014 171 185 C180.5835 191.5095 182.2352 189.5793 192 196 C218.3994 213.3585 217.5186 215.3457 244 233 C266.9122 248.2748 269.4622 245.9184 291 262 C306.1087 273.2811 304.3594 276.5284 319 289 C331.1101 299.316 337.8925 298.7603 345 308 C349.2056 313.4673 348.0625 318.3128 349 328 C349.5014 333.1808 349.744 335.1244 348 339 C346.0808 343.2648 344.4625 344.4672 340 348 C332.9435 353.5864 331.6222 355.8501 324 358 C314.5709 360.6595 309.1901 361.2135 301 359 C294.8842 357.3471 292.6686 354.141 287 348 C281.2585 341.78 277.8371 339.139 277 333 C275.5443 322.325 278.2864 317.1804 281 304 C281.5111 301.5173 282.1136 300.4425 284 299 C289.5616 294.747 291.621 292.2068 298 291 C307.3795 289.2255 310.1788 290.6037 321 292 C324.924 292.5063 329 295 329 295 "/>
<path id="2" d="M142 162 C142 162 124.2497 150.2606 109 137 C101.7446 130.6909 96 122 96 122 "/>
<path id="3" d="M108 216 L54 220 "/>
<path id="4" d="M54 220 C54 220 63.7372 225.025 73 226 C90.9296 227.8873 92.9815 228.799 111 226 C142.9996 221.0292 145.3827 220.4162 176 210 C192.4221 204.4131 191.7978 199.9009 208 193 C218.1388 188.6816 219.0539 188.263 230 187 C257.1797 183.8639 259.2808 183.2969 286 184 C295.6189 184.2531 306 189 306 189 "/>
<path id="5" d="M99 124 C99 124 113.7795 126.3177 127 131 C137.2114 134.6165 137.7872 135.2091 147 141 C154.9009 145.9663 155.4027 146.4027 162 153 C169.086 160.086 169.4655 160.5252 175 169 C185.262 184.7136 182.9401 187.4992 194 202 C204.6731 215.9936 206.1621 216.8232 220 228 C231.4599 237.256 234.538 234.8825 246 244 C255.8005 251.7959 254.398 256.1062 264 263 C272.3337 268.9832 274.3894 268.5516 285 272 C294.0029 274.9259 297.1373 272.5687 304 276 C308.5751 278.2876 309.4383 283.0319 313 286 C313.6165 286.5137 316 286 316 286 "/>
<path id="6" d="M285 324 C285 324 282.933 317.9344 284 315 C286.0105 309.471 288.1537 307.1492 293 302 C295.3899 299.4607 296.6729 298.5545 300 298 C310.0537 296.3244 312.3641 296.0884 323 297 C328.7291 297.4911 333.7403 298.7956 335 301 C338.0497 306.337 338.3351 313.6963 339 325 C339.2711 329.6093 339.0128 331.1573 337 335 C334.1369 340.4659 332.055 344.6128 328 346 C318.5689 349.2264 307.645 350.6136 299 348 C293.3571 346.294 288.4072 339.571 285 333 C283.1632 329.4576 285 321 285 321 "/>
<path id="7" d="M310 179 C310 179 300.2057 177.6466 300 177 C299.2438 174.6235 299.2567 162.6149 303 157 C308.1044 149.3433 314.5884 145.429 324 141 C328.2886 138.9818 332.1324 139.6092 337 141 C340.6374 142.0392 344.6064 145.0318 345 147 C345.953 151.7652 345.1199 158.8002 342 166 C339.6434 171.4383 337.2452 172.0826 332 177 C329.4823 179.3603 328.9246 180.2981 326 181 C317.8144 182.9646 307 183 307 183 "/>
</g>
</g>
</svg>
