<?xml version="1.0" encoding="utf-8"?>
<!DOCTYPE svg PUBLIC "-//W3C//DTD SVG 1.1//EN" "http://www.w3.org/Graphics/SVG/1.1/DTD/svg11.dtd">
<svg viewBox="0 0 800 800" preserveAspectRatio="xMinYMin meet" xmlns="http://www.w3.org/2000/svg" version="1.1">
<g fill="none" stroke="black" stroke-linecap="round" stroke-linejoin="round" stroke-width="1.3585">
<g transform="translate(87.52,174.7494) scale(2.2083) translate(-131.3611,-98.75)">
<path id="0" d="M160.3611 154.75 C160.3611 154.75 153.8197 152.8384 152.3611 153.75 C149.4192 155.5887 145.6056 159.9499 144.3611 164.75 C142.8628 170.5291 143.1055 175.4185 145.3611 180.75 C147.3156 185.3698 151.1988 189.5013 155.3611 190.75 C161.6686 192.6423 168.1057 191.4913 175.3611 189.75 C177.5836 189.2166 179.9008 186.8673 180.3611 184.75 C181.7222 178.4889 181.2989 175.1899 180.3611 166.75 C179.8749 162.3738 179.4316 161.3734 177.3611 157.75 C175.8428 155.0929 174.9901 154.7947 172.3611 152.75 C170.718 151.472 170.2293 150.9466 168.3611 150.75 C161.7058 150.0494 157.2277 150.2667 153.3611 150.75 C153.0389 150.7903 152.3611 152.75 152.3611 152.75 "/>
<path id="1" d="M227.3611 249.75 C227.3611 249.75 219.2173 247.5931 215.3611 248.75 C212.0323 249.7487 208.4029 252.6246 207.3611 255.75 C205.1697 262.3241 205.2095 267.6884 206.3611 275.75 C206.8665 279.2878 209.2407 283.0432 211.3611 283.75 C217.5381 285.809 226.0383 286.2651 233.3611 284.75 C236.1998 284.1627 239.831 280.5773 240.3611 277.75 C241.9435 269.3108 241.4077 260.4245 239.3611 252.75 C238.8049 250.6643 235.7729 249.0294 232.3611 247.75 C228.7571 246.3985 223.3611 246.75 223.3611 246.75 "/>
<path id="2" d="M189.3611 182.75 C189.3611 182.75 191.3611 182.75 191.3611 182.75 C191.3611 180.2276 192.4054 167.6291 189.3611 158.75 C187.5818 153.5603 184.7418 152.3236 179.3611 147.75 C175.1622 144.1809 174.1137 142.7285 169.3611 141.75 C159.1218 139.6419 152.6478 138.4599 145.3611 140.75 C140.8168 142.1782 138.6916 146.754 134.3611 152.75 C132.7447 154.9881 132.6287 155.8066 132.3611 158.75 C131.1885 171.649 129.8558 174.6106 131.3611 185.75 C131.9669 190.2327 133.8011 192.8681 137.3611 195.75 C142.5809 199.9755 145.2168 201.5593 152.3611 202.75 C164.2929 204.7386 166.8226 204.2791 179.3611 202.75 C186.1457 201.9226 187.4089 201.184 193.3611 197.75 C199.6252 194.1361 199.1982 190.1865 205.3611 187.75 C218.4056 182.5929 221.784 185.1231 236.3611 180.75 C240.9853 179.3628 245.3611 175.75 245.3611 175.75 "/>
<path id="3" d="M193.3611 182.75 C193.3611 182.75 201.275 178.8234 209.3611 176.75 C220.4381 173.9098 232.3611 172.75 232.3611 172.75 "/>
<path id="4" d="M209.3611 240.75 C209.3611 240.75 197.052 249.8563 195.3611 256.75 C192.1632 269.7878 194.6014 278.9686 196.3611 293.75 C196.6207 295.9307 198.1137 297.1941 200.3611 298.75 C203.906 301.2042 205.1093 302.3635 209.3611 302.75 C225.254 304.1948 228.131 303.5615 244.3611 302.75 C246.7261 302.6318 247.2367 302.1019 249.3611 300.75 C252.4707 298.7712 253.4551 298.3708 255.3611 295.75 C256.8785 293.6635 257.1801 292.646 257.3611 289.75 C258.1295 277.4566 259.1593 275.8236 257.3611 263.75 C255.8366 253.5141 255.0314 251.8158 250.3611 242.75 C247.1057 236.4308 240.0496 231.2647 240.3611 230.75 C242.7691 226.7717 273.3611 204.75 273.3611 204.75 "/>
<path id="5" d="M209.3611 241.75 C209.3611 241.75 213.2271 241.4201 215.3611 239.75 C223.6886 233.2328 223.2276 230.6432 232.3611 223.75 C249.3598 210.9208 268.3611 199.75 268.3611 199.75 "/>
<path id="6" d="M268.3611 199.75 C268.3611 199.75 268.2074 181.1142 269.3611 172.75 C269.4637 172.006 271.9381 171.596 272.3611 170.75 C272.8445 169.7832 272.3611 166.75 272.3611 166.75 "/>
<path id="7" d="M273.3611 171.75 C273.3611 171.75 298.4996 150.5763 325.3611 132.75 C353.1476 114.3099 383.3611 98.75 383.3611 98.75 "/>
<path id="8" d="M275.3611 204.75 C275.3611 204.75 296.2408 184.0217 314.3611 162.75 C318.6882 157.6703 316.8954 154.953 321.3611 150.75 C332.5469 140.2222 336.5604 141.6873 348.3611 130.75 C356.3125 123.3804 354.7515 120.8844 362.3611 112.75 C368.9761 105.6788 377.3611 99.75 377.3611 99.75 "/>
<path id="9" d="M249.3611 174.75 L275.3611 167.75 "/>
<path id="10" d="M230.3611 171.75 L287.3611 157.75 "/>
<path id="11" d="M298.3611 180.75 C298.3611 180.75 300.839 178.2904 303.3611 177.75 C327.0176 172.6807 329.0537 170.9192 354.3611 168.75 C380.7579 166.4874 408.3611 168.75 408.3611 168.75 "/>
<path id="12" d="M322.3611 153.75 C322.3611 153.75 325.4785 155.6299 328.3611 155.75 C348.2627 156.5792 352.1582 154.264 370.3611 155.75 C373.5365 156.0092 374.1197 159.2698 377.3611 159.75 C385.8995 161.015 391.4287 158.941 397.3611 159.75 C398.0757 159.8474 398.3703 162.4003 399.3611 162.75 C404.563 164.586 414.348 165.7406 414.3611 165.75 C414.3662 165.7536 406.3611 167.75 406.3611 167.75 "/>
<path id="13" d="M293.3611 173.75 L291.3611 173.75 "/>
<path id="14" d="M291.3611 172.75 C291.3611 172.75 292.3611 174.75 292.3611 174.75 C292.3611 174.75 291.4299 171.7729 291.3611 171.75 C291.3153 171.7347 289.352 173.7364 289.3611 173.75 C289.411 173.8248 293.3611 174.75 293.3611 174.75 "/>
</g>
</g>
</svg>
