<?xml version="1.0" encoding="utf-8"?>
<!DOCTYPE svg PUBLIC "-//W3C//DTD SVG 1.1//EN" "http://www.w3.org/Graphics/SVG/1.1/DTD/svg11.dtd">
<svg viewBox="0 0 800 800" preserveAspectRatio="xMinYMin meet" xmlns="http://www.w3.org/2000/svg" version="1.1">
<g fill="none" stroke="black" stroke-linecap="round" stroke-linejoin="round" stroke-width="1.6273">
<g transform="translate(142.8262,87.52) scale(1.8435) translate(-154,-15.1333)">
<path id="0" d="M210 257.1333 C210 257.1333 201.2502 252.9012 193 251.1333 C188.037 250.0698 186.9346 250.1934 182 251.1333 C177.1722 252.0529 176.0373 252.4418 172 255.1333 C167.7502 257.9665 166.2437 258.7706 164 263.1333 C158.0468 274.7089 156.3806 277.0401 154 290.1333 C151.687 302.8548 152.9294 304.9294 154 318.1333 C154.3534 322.4922 154.5628 323.7677 157 327.1333 C164.2063 337.0849 165.5566 340.2422 175 347.1333 C181.9847 352.2303 184.7913 352.7618 194 354.1333 C206.8647 356.0494 209.3352 356.2441 222 354.1333 C231.6494 352.5251 233.8916 351.1661 242 346.1333 C246.9389 343.0678 248.1669 341.4218 251 336.1333 C255.0551 328.5638 255.5375 326.9083 257 318.1333 C258.3855 309.8202 259.6041 306.6436 257 300.1333 C252.0522 287.7638 243.3097 285.5835 239 273.1333 C235.7578 263.7669 237.1129 259.692 239 248.1333 C240.9102 236.4331 241.3406 234.3203 247 224.1333 C253.0574 213.2301 264 203.1333 264 203.1333 "/>
<path id="1" d="M206 255.1333 C206 255.1333 213.1542 228.23 224 208.1333 C228.7111 199.404 238.141 195.5415 240 192.1333 C240.2871 191.6071 236.2125 188.577 236 186.1333 C235.4367 179.6558 235.5479 171.9357 238 169.1333 C241.0896 165.6023 247.3864 164.7552 257 162.1333 C269.1215 158.8275 273.6294 161.5511 282 157.1333 C287.5692 154.1941 289.7062 150.5445 293 143.1333 C300.9827 125.1722 298.7276 122.2711 306 103.1333 C307.9872 97.9039 309.996 98.3102 312 93.1333 C315.7928 83.3352 316.4266 76.2636 318 72.1333 C318.0515 71.9982 319.9993 72.1469 320 72.1333 C320.3876 64.7698 320.9668 15.3242 321 15.1333 C321.0057 15.1007 325.6077 20.4287 328 26.1333 C331.8653 35.3506 333.3655 36.4045 334 46.1333 C336.2403 80.485 336.8887 84.9133 334 118.1333 C333.1697 127.6821 331.1614 129.0249 326 138.1333 C314.4849 158.454 314.2151 159.9009 300 178.1333 C291.8411 188.598 290.5001 188.5179 280 197.1333 C271.2474 204.3149 261 210.1333 261 210.1333 "/>
<path id="2" d="M348 230.1333 C348 230.1333 338.8317 231.9259 333 235.1333 C330.273 236.6332 329.3724 237.9041 328 241.1333 C321.3954 256.6735 319.4748 258.628 316 275.1333 C313.812 285.5264 313.9464 288.3788 316 298.1333 C317.4897 305.2093 319.34 307.9828 324 313.1333 C327.3428 316.828 329.3002 317.0607 335 319.1333 C350.8415 324.8939 351.6995 326.1449 368 329.1333 C380.7207 331.4655 383.5682 331.4035 395 330.1333 C399.0625 329.6819 400.6381 328.366 404 325.1333 C412.8216 316.651 414.2591 315.5256 421 305.1333 C425.6799 297.9185 426.66 296.471 428 288.1333 C430.907 270.0452 428.2521 263.8158 430 249.1333 C430.1495 247.8771 432.5629 247.4447 433 246.1333 C433.6557 244.1662 433.6292 242.8074 433 240.1333 C431.7478 234.8114 431.6948 233.788 429 229.1333 C426.5608 224.9202 425.7564 223.6376 422 221.1333 C417.8375 218.3583 415.788 217.3175 411 217.1333 C404.6105 216.8876 402.5681 220.3679 396 220.1333 C390.2037 219.9263 383.8285 216.2608 383 216.1333 C382.9813 216.1305 383.0588 218.1186 383 218.1333 C382.0588 218.3686 377.4612 219.5178 375 218.1333 C364.5012 212.2278 362.9224 205.9621 351 200.1333 C342.6559 196.054 338.5686 199.6143 330 196.1333 C324.4494 193.8784 322.1695 190.591 319 187.1333 C318.5017 186.5898 319.0129 184.1398 319 184.1333 C318.9914 184.129 317.5734 186.1333 317 186.1333 C314.7063 186.1333 309.5738 184.1333 309 184.1333 C309 184.1333 309 186.1333 309 186.1333 "/>
<path id="3" d="M335 231.1333 C335 231.1333 333.0129 234.143 333 234.1333 C331.3715 232.912 324.0272 223.7162 315 216.1333 C312.4052 213.9537 309.5338 214.6671 308 213.1333 C307.0797 212.2131 307.7016 208.4452 307 208.1333 C300.6614 205.3162 281 201.1333 281 201.1333 "/>
<path id="4" d="M319 193.1333 C319 193.1333 316.9488 186.2986 315 184.1333 C314.1493 183.1882 311.1583 184.1758 310 183.1333 C307.605 180.9778 307.034 176.7605 305 175.1333 C304.1079 174.4196 300 175.1333 300 175.1333 C300 175.1409 305 178.1333 305 178.1333 "/>
<path id="5" d="M263 175.1333 C263 175.1333 257.2806 177.4868 256 179.1333 C255.322 180.005 255.3557 183.1025 256 184.1333 C256.7893 185.3962 258.5962 186.6526 261 187.1333 C267.5247 188.4383 273.6157 188.9748 276 188.1333 C276.7277 187.8765 278.1457 181.2304 278 181.1333 C277.1989 180.5992 264 180.1333 264 180.1333 "/>
<path id="6" d="M243 167.1333 C243 167.1333 240.6028 165.7157 240 164.1333 C237.1038 156.5308 235.4523 154.9089 235 146.1333 C233.0427 108.1621 233.7248 104.1144 235 67.1333 C235.1308 63.34 238.2479 59.753 238 59.1333 C237.825 58.6959 231.914 58.0473 231 57.1333 C230.4922 56.6255 230.3955 54.35 231 52.1333 C234.6822 38.632 234.6684 36.9292 240 24.1333 C241.7632 19.9016 243.1243 18.7215 246 16.1333 C247.0675 15.1726 250 15.1333 250 15.1333 C250.2869 16.2808 248.6345 24.7599 250 32.1333 C250.8776 36.8723 253.5233 37.4078 255 42.1333 C255.7663 44.5855 254.3717 46.8767 255 48.1333 C255.4189 48.9711 258.244 48.9993 259 50.1333 C260.35 52.1584 260.2738 53.5931 261 57.1333 C264.2566 73.0091 262.9987 73.795 267 89.1333 C268.8555 96.2462 271.6113 96.7453 273 103.1333 C273.7969 106.7992 270.9867 109.0936 272 112.1333 C273.7147 117.2776 279.1486 118.7058 280 124.1333 C282.505 140.1029 279.7507 158.2711 280 163.1333 C280.0007 163.1461 282 163.1333 282 163.1333 "/>
<path id="7" d="M375 239.1333 C375 239.1333 367.2947 236.4715 362 237.1333 C357.1725 237.7368 355.6408 238.905 351 242.1333 C344.7008 246.5154 342.9219 247.2504 339 253.1333 C334.8717 259.3258 334.8548 261.4049 333 269.1333 C332.0428 273.1216 331.9519 274.2028 333 278.1333 C335.6941 288.2362 335.4865 290.7528 341 299.1333 C346.9168 308.1269 349.7793 309.6252 358 316.1333 C360.3167 317.9673 361.5905 317.9439 365 318.1333 C378.9045 318.9058 381.484 319.7802 394 318.1333 C398.1682 317.5849 401.6193 316.0052 403 313.1333 C411.0963 296.2931 413.4 288.8834 419 266.1333 C420.9789 258.0942 421.0044 254.5919 419 248.1333 C417.4641 243.1843 414.7521 240.5277 410 237.1333 C405.8118 234.1417 403.9469 234.1245 398 233.1333 C389.4708 231.7118 387.7084 230.89 380 232.1333 C373.9643 233.1068 367 238.1333 367 238.1333 "/>
<path id="8" d="M200 268.1333 C200 268.1333 195.7139 264.3713 192 263.1333 C189.3106 262.2369 187.7614 262.1106 185 263.1333 C175.6491 266.5966 170.1897 267.5444 165 273.1333 C160.7185 277.7442 160.423 282.3582 159 291.1333 C157.575 299.921 158.0226 301.3372 159 310.1333 C159.4287 313.9913 159.8796 314.6877 162 318.1333 C167.5992 327.2321 167.8965 329.556 175 336.1333 C179.9042 340.6742 182.2408 341.7815 189 343.1333 C200.4995 345.4332 202.5384 344.4998 215 344.1333 C218.8669 344.0196 220.0275 343.8319 223 342.1333 C226.0654 340.3817 227.0509 339.4318 229 336.1333 C233.1117 329.1751 233.6994 328.1855 236 320.1333 C238.538 311.2504 240.3927 308.6192 239 301.1333 C237.033 290.5606 234.1847 288.1284 228 277.1333 C225.5543 272.7854 224.6421 271.0336 221 269.1333 C215.1046 266.0575 206.0566 265.7371 205 265.1333 C204.9835 265.1239 207.0638 261.4523 207 261.1333 C206.9716 260.9916 204 260.1333 204 260.1333 "/>
</g>
</g>
</svg>
