<?xml version="1.0" encoding="utf-8"?>
<!DOCTYPE svg PUBLIC "-//W3C//DTD SVG 1.1//EN" "http://www.w3.org/Graphics/SVG/1.1/DTD/svg11.dtd">
<svg viewBox="0 0 800 800" preserveAspectRatio="xMinYMin meet" xmlns="http://www.w3.org/2000/svg" version="1.1">
<g fill="none" stroke="black" stroke-linecap="round" stroke-linejoin="round" stroke-width="2.0113">
<g transform="translate(87.52,171.0469) scale(1.4916) translate(-49,-94)">
<path id="0" d="M303 191 C303 191 320.8432 178.1546 340 169 C376.808 151.4104 380.2256 155.0576 416 137 C431.3731 129.2402 445 116 445 116 "/>
<path id="1" d="M301 193 C301 193 334.4851 191.2904 367 194 C399.884 196.7403 400.5199 201.4273 433 204 C449.943 205.342 464.8664 200.5675 468 202 C468.7565 202.3458 470.0064 213.3119 468 220 C466.3614 225.4619 464.1409 228.5224 459 232 C449.2571 238.5908 446.6009 239.3343 434 243 C419.9449 247.0888 418.8467 247.6482 404 248 C314.7773 250.1143 313.084 248.8919 223 248 C212.5384 247.8964 210.1235 247.4128 202 246 C201.1066 245.8446 199.9574 244.0218 200 244 C204.3501 241.7692 241.8504 226.6792 280 206 C294.3504 198.2213 294.3678 194.0387 307 186 C309.1102 184.6572 313 185 313 185 "/>
<path id="2" d="M444 117 C444 117 445.5329 106.5986 444 102 C443.1484 99.4452 440.0909 96.4755 437 96 C419.3247 93.2807 413.7712 92.8541 392 94 C376.8137 94.7993 375.5571 95.2115 361 100 C338.3743 107.4427 336.59 107.592 316 119 C300.7266 127.4623 300.4253 129.1238 287 141 C274.7468 151.8394 274.3757 152.2579 264 165 C246.107 186.9739 247.3884 191.0219 230 211 C225.5571 216.1047 223.5108 216.7619 217 219 C208.7194 221.8464 206.5484 219.2343 198 222 C190.4714 224.4357 189.8697 225.3463 183 230 C174.6543 235.6535 174.8287 238.4834 167 243 C163.2843 245.1437 160.8645 242.8679 157 245 C147.6988 250.1317 145.7635 251.2365 138 259 C132.1186 264.8814 130.5372 266.5834 128 274 C124.6907 283.6733 124.0167 294.5418 125 297 C125.3247 297.8119 131.9946 297.1363 138 299 C146.0122 301.4866 154 306 154 306 "/>
<path id="3" d="M199 248 C199 248 184.5532 277.0945 174 302 C173.1831 303.9279 173.1021 305.7324 174 307 C179.5746 314.87 184.2277 316.5188 191 326 C193.4231 329.3924 193.6719 330.7341 194 335 C194.6016 342.8209 195.5779 345.4694 193 352 C189.0689 361.9589 187.0182 364.2529 179 373 C171.3176 381.3808 169.9704 382.6966 160 388 C147.6864 394.5498 146.054 393.94 132 398 C123.8709 400.3484 123.2965 400.8373 115 401 C98.4834 401.3239 97.2697 401.1221 81 399 C75.0537 398.2244 74.3702 397.6851 69 395 C63.8216 392.4108 62.4733 391.7405 59 388 C56.9129 385.7524 56.0833 384.1649 56 381 C55.6359 367.1637 54.5361 361.4576 58 350 C59.6797 344.4441 63.0557 343.231 69 338 C75.2862 332.4682 75.6561 331.6719 83 328 C94.0158 322.4921 96.9779 324.7269 107 319 C112.9445 315.6032 118 308 118 308 "/>
<path id="4" d="M147 346 C147 346 136.8804 347.9227 130 352 C124.6692 355.159 122.8021 357.7968 120 362 C119.1594 363.261 119.3821 366.3821 120 367 C121.6065 368.6065 124.7085 370.4081 129 371 C137.9857 372.2394 139.7736 372.3568 149 371 C155.7977 370.0003 157.5205 369.1723 163 366 C165.7483 364.4089 167.1011 362.6967 168 360 C169.0552 356.8343 168.5327 355.2619 168 351 C167.5708 347.5668 167.6041 346.4061 166 344 C164.2676 341.4014 162.3301 339.3039 160 339 C154.1367 338.2352 148.2575 338.1835 143 341 C137.7737 343.7998 132 354 132 354 "/>
<path id="5" d="M185 232 C185 232 184.5533 220.8845 181 214 C177.601 207.4144 173.9663 202.0413 169 201 C152.1375 197.4643 142.7106 203.2736 119 201 C107.7748 199.9236 106.0081 199.1105 96 194 C83.6921 187.7151 82.0592 186.5433 72 177 C63.4834 168.9202 63.179 167.2983 57 157 C53.0369 150.3949 53.1509 149.528 51 142 C49.2536 135.8875 49 135.2029 49 129 C49 122.7971 48.7807 120.0351 51 116 C52.8809 112.5802 55.2143 111.4754 60 109 C69.153 104.2657 69.9863 104.1293 80 101 C85.6188 99.2441 86.1624 99 92 99 C106.1075 99 109.608 98.4684 121 101 C124.2242 101.7165 125.7551 103.7347 128 107 C130.6472 110.8504 132 112.5037 132 117 C132 139.9313 127.6907 150.6812 128 168 C128.0309 169.7307 130.3429 171.4816 133 173 C136.6234 175.0705 137.6328 175.5906 142 176 C152.8223 177.0146 154.4789 177.9324 165 176 C177.6496 173.6766 178.0318 170.242 191 167 C199.4924 164.8769 203.6834 163.481 209 165 C212.9221 166.1206 215.5771 169.5234 219 175 C224.9505 184.5209 229 197 229 197 "/>
<path id="6" d="M97 140 C97 140 93.9717 140.1903 93 141 C91.9278 141.8935 90.8929 143.6072 91 145 C91.2571 148.3428 92.5063 153.0664 94 154 C96.3597 155.4748 101.9982 155.7898 107 155 C109.5829 154.5922 111.987 152.6884 113 151 C113.7998 149.667 113.7537 146.8842 113 145 C112.2966 143.2414 110.5322 141.3831 109 141 C106.625 140.4063 101 142 101 142 "/>
<path id="7" d="M220 224 C220 224 219.82 226.865 220 227 C220.32 227.24 223.75 227.25 224 227 C224.25 226.75 224.2 223.1 224 223 C223.2 222.6 216 223 216 223 "/>
</g>
</g>
</svg>
