<?xml version="1.0" encoding="utf-8"?>
<!DOCTYPE svg PUBLIC "-//W3C//DTD SVG 1.1//EN" "http://www.w3.org/Graphics/SVG/1.1/DTD/svg11.dtd">
<svg viewBox="0 0 800 800" preserveAspectRatio="xMinYMin meet" xmlns="http://www.w3.org/2000/svg" version="1.1">
<g fill="none" stroke="black" stroke-linecap="round" stroke-linejoin="round" stroke-width="1.3777">
<g transform="translate(185.5102,87.52) scale(2.1776) translate(-193,-81)">
<path id="0" d="M295,178C295,178 293.7462455294879,168.65090584653342 295,160C298.6532507478126,134.79256984009302 298.0810429286708,132.1785061889529 305,109C307.4332080162374,100.84875314560462 309.51948495691977,100.0924312322215 315,93C317.63526681190256,89.58965471400843 318.2561069111413,88.95333552462193 322,87C329.0700126999906,83.31129772174401 330.5200701289166,81.66488265520742 338,81C351.0396089284882,79.84092365080104 357.2851361250658,79.29909947621551 367,83C372.9843561469595,85.27975472265125 375.79345835003056,89.54294889323596 380,97C385.930617013719,107.51336652431996 386.3818034656314,109.69447628846755 389,122C391.1607882860718,132.15570494453746 391.84314224648966,134.23134609360483 390,144C387.2049927698128,158.813538319992 386.8319202467477,162.22160380793798 379,175C369.13311927888367,191.09859486076874 365.77353460142626,190.81379518304283 352,206C346.3197158223791,212.26287742660764 346.4933662933657,212.97287770836206 340,218C331.3716935768459,224.67997916631285 328.9095432580125,223.18142822585133 321,230C315.28393759849865,234.92764000129426 311,243 311,243"/>
<path id="1" d="M297,178C297,178 294.9401209138997,153.38532436345534 286,138C275.8645643469567,120.55762236453012 270.39628413405006,117.77287867260206 254,104C247.30719709719753,98.37804556164592 244.98694574022514,98.24673643505629 236,96C223.97996007244885,92.99499001811222 217.38142910375373,90.91805845791562 210,93C205.02637651622712,94.4028168800385 201.03159206639958,99.88542576517723 197,107C193.55333470766465,113.08235051588593 193.6998421466357,115.12677585034853 193,123C191.75911141119624,136.95999662404233 191.7363939874702,138.10033386217225 193,152C193.66943390632457,159.3637729695702 194.19709370793018,160.1201391012832 197,167C199.50326374859688,173.14437465564686 199.9109872785938,173.6099377763282 204,179C210.7037001388791,187.83669563761336 211.08715361614975,188.72018132685778 219,196C223.0080736252401,199.68742773522086 223.85958986216343,199.3346021507514 229,202C237.2914525104652,206.29927167209306 237.88445205987256,208.14501761368515 246,210C253.7584145709868,211.77335190193983 259.6381861759594,207.12516816142775 264,210C274.9320712635362,217.20522878733067 290,239 290,239"/>
<path id="2" d="M286,171C286,171 272.05082938447356,149.0677725126314 257,129C252.8683997768112,123.49119970241492 252.25946234539154,122.87539330713061 247,119C243.38212741695793,116.33419914933742 242.31264928326044,116.01474100782599 238,115C234.5294656655419,114.18340368600985 231.53597373602136,113.873619260251 230,115C227.10724946382643,117.12135039319395 224.08705258414878,121.10826337133048 223,126C221.63396931903426,132.14713806434577 222.53834418615463,134.69172093077321 224,142C224.8842115417089,146.4210577085446 225.38051565636283,147.50735420848377 228,151C230.83777470560693,154.7836996074759 234.48714935612338,154.9742987122468 236,158C237.23778689044448,160.475573780889 235.07608847226896,163.3043538890758 236,167C236.82125469131648,170.28501876526596 237.34290888132588,171.57909475854134 240,174C258.42894675243144,190.7908181522153 281,208 281,208"/>
<path id="3" d="M308,162C308,162 306.8256734697628,152.98542040561267 308,145C309.2251192002301,136.6691894384352 309.72893211747435,135.90508071610367 313,128C315.5553369353546,121.82460240622642 315.9260110392881,121.27222100798012 320,116C324.1484482889756,110.63141986132572 324.7405376546085,109.87539330713061 330,106C333.6178725830421,103.33419914933742 335.22602874905754,102.1572488021226 339,102C345.12412607539295,101.74482808019196 347.5576373137087,102.37533372039983 354,105C360.05993933048404,107.46886417167869 362.8043835616438,108.56164383561643 366,113C370.09438356164383,118.68664383561643 370.49746584831416,121.73606216572796 372,130C373.32887442561156,137.30880934086372 373.56134042260373,139.0854924141835 372,146C370.38199802980176,153.16543729659207 369.20613784371613,154.13735404446317 365,161C359.90761906546743,169.30862152476368 359.85515727855346,170.14484272144656 353,177C337.33106907759213,192.66893092240787 332.7309044379774,191.89600511822482 319,207C314.61430813473555,211.82426105179087 313,221 313,221"/>
<path id="4" d="M299,173L293,241"/>
<path id="5" d="M311,245C311,245 304.1807511795961,221.34252741941148 300,198C298.2772399893892,188.38125660742324 299,178 299,178"/>
<path id="6" d="M294,243C294,243 305.9984927157132,292.99535254011573 306,293C306.0003635926489,293.0011210773342 306.8780048178697,285.85336545246446 306,280C305.49683570052855,276.6455713368569 303.00245157231404,273 303,273C303,273 302.2336586958793,276.83884212050213 303,280C306.0587302268367,292.61726218570146 307.9243877957815,292.8773879286679 311,306C315.37378260207526,324.6614724355211 317.999971611096,344.00003785187203 318,344C318.0000338066338,343.9999549244883 314.9745482941977,322.9527883252505 314,302C312.98354720362624,280.1462648779637 315.06299508120474,279.6142333178303 314,258C313.585732915447,249.57656928075613 311,241 311,241"/>
<path id="7" d="M294,243C294,243 292.13081858510213,252.811510756794 293,262C295.56343282192176,289.0991469746018 295.1801584750237,290.1781216675005 301,317C306.56533232626185,342.6489228949459 315.97905841203976,367.9767315689331 316,368C316.0091883246399,368.0102092495999 319,337 319,337"/>
<path id="8" d="M309,161C309,161 306.7184327668122,177.13382009502183 308,192C309.1407592326646,205.23280709890974 314,219 314,219"/>
<path id="9" d="M288,172L284,208"/>
</g>
</g>
</svg>
