<?xml version="1.0" encoding="utf-8"?>
<!DOCTYPE svg PUBLIC "-//W3C//DTD SVG 1.1//EN" "http://www.w3.org/Graphics/SVG/1.1/DTD/svg11.dtd">
<svg viewBox="0 0 800 800" preserveAspectRatio="xMinYMin meet" xmlns="http://www.w3.org/2000/svg" version="1.1">
<g fill="none" stroke="black" stroke-linecap="round" stroke-linejoin="round" stroke-width="1.1953">
<g transform="translate(254.427,87.52) scale(2.5099) translate(-225,-69)">
<path id="0" d="M254 233 C254 233 251.7517 232.463 251 233 C246.4538 236.2473 244.4898 237.4897 240 243 C233.8528 250.5443 233.0522 251.3554 229 260 C225.9137 266.5841 225.7759 267.6293 225 275 C223.8428 285.9932 222.9272 288.4135 225 298 C226.4176 304.5562 228.3954 306.5829 233 312 C236.0217 315.555 237.843 316.7529 242 318 C246.234 319.2702 249.857 319.7461 253 318 C259.9527 314.1374 262.7706 310.5409 269 303 C271.3132 300.1998 271.6582 298.8971 272 295 C274.0344 271.8079 275.3825 268.4663 274 246 C273.537 238.4759 268 230 268 230 "/>
<path id="1" d="M295 231 C295 231 293.2077 254.285 295 274 C295.5191 279.7103 296.7982 280.7399 300 286 C303.5071 291.7617 303.9356 293.1043 309 297 C315.9385 302.3373 318.0155 303.3385 326 306 C329.9922 307.3307 333.4335 307.1977 336 306 C338.1216 305.0099 340.4383 302.1453 341 299 C342.4944 290.6316 342.0174 288.1742 341 278 C340.0601 268.6009 340.8404 266.9763 337 259 C328.6326 241.6215 327.0177 239.2657 315 224 C309.5312 217.0531 300 212 300 212 "/>
<path id="2" d="M255 232 C255 232 247.8725 221.3625 246 212 C244.2993 203.4965 245.0303 201.1097 247 192 C248.8038 183.6575 249.4425 182.2919 254 175 C258.9306 167.111 263.0257 166.4201 267 160 C268.0346 158.3287 265.9762 156.1756 267 154 C276.6059 133.5874 281.0101 131.9497 291 109 C299.2263 90.1017 304 69 304 69 "/>
<path id="3" d="M304 69 C304 69 304.9226 75.2514 304 81 C298.5345 115.0542 296.2247 115.6661 291 150 C289.2958 161.1993 291.8294 162.0234 290 173 C287.9337 185.398 287.4172 186.787 283 198 C281.3508 202.1865 278.9148 201.7601 277 206 C272.2419 216.5358 269 229 269 229 "/>
<path id="4" d="M295 227 C295 227 272.7881 208.6546 257 189 C249.6649 179.8686 249.2057 171.6716 246 166 C245.876 165.7806 244.0221 166.0857 244 166 C242.606 160.5981 239.4629 150.3601 238 135 C236.5173 119.4314 239.1055 118.1086 238 103 C237.6815 98.6471 235.6139 98.451 235 94 C233.6867 84.4784 233.9956 73.9964 234 74 C234.009 74.0074 238.8387 89.3704 246 103 C254.1102 118.4356 256.7328 117.6466 265 133 C270.5167 143.2454 268.7347 144.4693 274 155 C284.1333 175.2666 287.0426 174.8458 296 195 C300.6187 205.392 302 218 302 218 "/>
<path id="5" d="M258 217 C258 217 255.2632 226.4211 256 228 C256.6002 229.2861 260.7067 230.7733 265 232 C267.1164 232.6047 269.7439 232.3074 270 232 C270.3689 231.5574 270.8798 228.0529 270 226 C268.4498 222.3829 266.3437 220.0833 264 218 C263.4637 217.5233 261 218 261 218 "/>
<path id="6" d="M299 214 C299 214 292.6287 214.2141 292 215 C291.0665 216.1669 290.4148 221.6591 291 224 C291.2675 225.0701 293.1837 226.5047 295 227 C297.6387 227.7197 299.3613 227.7197 302 227 C303.8163 226.5047 305.2714 225.4571 306 224 C307.0928 221.8143 307.563 218.1261 307 217 C306.4803 215.9605 301 214 301 214 "/>
</g>
</g>
</svg>
