<?xml version="1.0" encoding="utf-8"?>
<!DOCTYPE svg PUBLIC "-//W3C//DTD SVG 1.1//EN" "http://www.w3.org/Graphics/SVG/1.1/DTD/svg11.dtd">
<svg viewBox="0 0 800 800" preserveAspectRatio="xMinYMin meet" xmlns="http://www.w3.org/2000/svg" version="1.1">
<g fill="none" stroke="black" stroke-linecap="round" stroke-linejoin="round" stroke-width="1.6657">
<g transform="translate(87.52,259.5191) scale(1.801) translate(-81,-181.3333)">
<path id="0" d="M265 217.3333 L425 190.3333 "/>
<path id="1" d="M269 214.3333 C269 214.3333 283.2834 214.56 297 212.3333 C359.8251 202.1344 423 189.3333 423 189.3333 "/>
<path id="2" d="M271 217.3333 L428 220.3333 "/>
<path id="3" d="M423 187.3333 C423 187.3333 404.6206 188.0665 387 186.3333 C374.5568 185.1094 374.2934 182.1395 362 181.3333 C344.5585 180.1896 342.1314 178.5494 326 182.3333 C304.0866 187.4735 301.2645 189.8633 281 200.3333 C272.8955 204.5207 266 213.3333 266 213.3333 "/>
<path id="4" d="M427 223.3333 C427 223.3333 416.3045 223.6101 407 226.3333 C396.4672 229.4161 396.0979 234.0711 386 235.3333 C359.0152 238.7064 355.7404 237.7019 327 236.3333 C314.696 235.7474 313.6729 235.1397 302 231.3333 C291.3658 227.8656 291.4083 224.6201 281 221.3333 C273.4036 218.9345 264 219.3333 264 219.3333 "/>
<path id="5" d="M268 206.3333 C268 206.3333 264.6867 209.8078 261 211.3333 C250.8791 215.5213 248.2111 213.1923 239 218.3333 C228.16 224.3835 227.2605 226.4159 218 235.3333 C214.3656 238.8331 215.6761 241.0248 212 244.3333 C201.5191 253.7661 199.357 259.0209 188 262.3333 C169.0232 267.8682 162.7131 261.9433 140 265.3333 C130.6027 266.7359 128.8504 267.4533 121 272.3333 C111.6049 278.1735 109.3371 280.0676 103 288.3333 C99.2077 293.2799 98.9997 295.5357 98 302.3333 C96.6432 311.5597 96.0256 314.4359 98 322.3333 C99.3821 327.8615 102.2525 332.7272 106 334.3333 C114.0653 337.7899 121.4313 338.7499 133 337.3333 C143.0351 336.1045 145.5819 334.247 155 328.3333 C166.0023 321.4249 167.6211 320.1908 176 310.3333 C183.7245 301.2457 183.4907 299.6142 189 288.3333 C193.8404 278.4221 192.0342 276.6807 197 267.3333 C200.1036 261.4912 200.7431 260.5224 206 256.3333 C231.7066 235.8484 261 216.3333 261 216.3333 "/>
<path id="6" d="M272 219.3333 C272 219.3333 239.3745 219.8119 211 212.3333 C177.085 203.3945 175.3592 193.5017 143 185.3333 C127.971 181.5396 122.2412 182.5856 108 186.3333 C97.6273 189.063 94.2985 192.9569 86 200.3333 C82.6538 203.3077 82.0324 205.5841 81 210.3333 C79.7894 215.902 80.1016 217.6433 81 223.3333 C81.4474 226.1668 82.1835 226.6086 84 229.3333 C88.0871 235.464 87.9449 236.5189 93 241.3333 C97.8548 245.957 99.1035 247.7951 105 249.3333 C119.6684 253.1599 122.6796 253.0133 139 253.3333 C147.1132 253.4924 148.1939 253.0485 156 250.3333 C170.5025 245.289 170.3445 241.3303 185 237.3333 C207.5974 231.1704 209.0839 231.6729 233 229.3333 C254.6193 227.2184 276.9988 228.3335 277 228.3333 C277.0005 228.3332 265.2322 228.172 257 225.3333 C252.533 223.793 249.9169 221.592 248 218.3333 C246.3491 215.5268 246.1388 209.1945 247 208.3333 C249.2008 206.1325 258.4 203.4533 264 202.3333 C264.8 202.1733 266.5445 203.2516 267 204.3333 C269.6666 210.6665 272.1676 217.8146 272 221.3333 C271.9572 222.233 268.9414 224.3529 266 225.3333 C262.2564 226.5812 258.7177 227.1261 257 226.3333 C255.5453 225.662 254.0907 222.6055 253 219.3333 C252.3456 217.37 252.6061 214.5584 253 214.3333 C255.1663 213.0954 262.7928 211.5963 267 211.3333 C267.556 211.2986 268.9484 212.6114 269 213.3333 C269.2871 217.3523 268.5352 224.9319 268 225.3333 C267.5317 225.6845 258.9569 224.4207 257 222.3333 C254.5378 219.707 252.6691 212.3113 253 209.3333 C253.1493 207.9893 256.3785 205.7897 259 204.3333 C259.8959 203.8356 261.5211 203.9502 262 204.3333 C262.8301 204.9974 263.625 208.2083 264 208.3333 C264.375 208.4583 268.0009 206.3332 268 206.3333 C267.9948 206.3339 245.005 210.3337 245 210.3333 C244.9979 210.3332 250.0273 206.5765 255 205.3333 C263.1774 203.289 273.0002 203.3323 273 203.3333 C272.9996 203.3356 254 211.3333 254 211.3333 "/>
<path id="7" d="M155 238.3333 C155 238.3333 135.2021 241.1948 120 239.3333 C113.5242 238.5404 111.855 236.4318 106 232.3333 C102.6233 229.9696 100.8481 228.4432 100 225.3333 C98.5269 219.932 98.667 216.1984 100 210.3333 C100.723 207.152 102.1329 205.627 105 203.3333 C108.7867 200.304 110.2714 199.1214 115 198.3333 C123.7296 196.8784 126.4791 196.1105 135 198.3333 C147.4109 201.5709 151.4489 203.8632 161 210.3333 C164.1055 212.437 164.8853 215.0974 166 219.3333 C167.0806 223.4395 167.2142 225.8931 166 229.3333 C164.8929 232.47 162.9894 234.7507 160 236.3333 C156.2859 238.2996 149 238.3333 149 238.3333 "/>
<path id="8" d="M173 284.3333 C173 284.3333 169.3999 281.772 166 281.3333 C154.8948 279.9004 152.7187 279.1424 142 280.3333 C136.3664 280.9593 133.7387 281.9685 130 285.3333 C125.5363 289.3507 123.6118 292.5768 122 298.3333 C120.7605 302.7603 121.2733 306.2324 123 310.3333 C124.3828 313.6175 126.7316 316.026 130 317.3333 C134.469 319.1209 138.8004 320.0626 143 318.3333 C152.0665 314.6001 154.6353 311.563 164 303.3333 C170.6583 297.4821 176 289.3333 176 289.3333 "/>
</g>
</g>
</svg>
