<?xml version="1.0" encoding="utf-8"?>
<!DOCTYPE svg PUBLIC "-//W3C//DTD SVG 1.1//EN" "http://www.w3.org/Graphics/SVG/1.1/DTD/svg11.dtd">
<svg viewBox="0 0 800 800" preserveAspectRatio="xMinYMin meet" xmlns="http://www.w3.org/2000/svg" version="1.1">
<g fill="none" stroke="black" stroke-linecap="round" stroke-linejoin="round" stroke-width="0.80165">
<g transform="translate(147.3964,87.52) scale(3.7423) translate(-238,-110.4167)">
<path id="0" d="M273 226.4167 C273 226.4167 275.3577 221.132 275 220.4167 C274.4635 219.3437 268.1958 216.2103 268 216.4167 C262.7019 222.0012 241.3166 252.3509 238 259.4167 C237.8423 259.7527 241.6463 264.0357 245 265.4167 C248.687 266.9349 251.425 267.5047 255 266.4167 C260.6912 264.6846 262.9641 263.266 268 258.4167 C275.6214 251.0776 277.122 248.0821 282 240.4167 C282.7251 239.2772 282.6831 237.6121 282 236.4167 C279.5116 232.062 278.4809 229.8792 274 226.4167 C268.4701 222.1435 260 219.4167 260 219.4167 "/>
<path id="1" d="M308 238.4167 C308 238.4167 310.1978 233.5925 310 231.4167 C309.876 230.0532 307.8893 227.5649 307 227.4167 C304.898 227.0663 299.0903 227.6802 298 229.4167 C290.5467 241.2867 281.9626 263.057 280 270.4167 C279.8972 270.8023 282.9821 273.5364 286 274.4167 C293.9484 276.735 298.1172 278.4672 304 277.4167 C307.8497 276.7292 310.4502 273.7272 314 269.4167 C316.6881 266.1526 317.2162 264.7276 318 260.4167 C319.0475 254.6553 318.3365 253.8108 318 247.4167 C317.8433 244.4396 318.1582 243.733 317 241.4167 C315.04 237.4967 311 233.4167 311 233.4167 "/>
<path id="2" d="M313 236.4167 C313 236.4167 305.6197 199.2759 294 164.4167 C285.347 138.4577 281.9298 132.5671 272 113.4167 C271.0276 111.5414 268.1542 110.6125 266 110.4167 C264.3453 110.2662 261.1516 111.7722 261 112.4167 C260.2952 115.4123 260.0297 120.748 262 127.4167 C266.1923 141.6061 268.9398 141.959 274 156.4167 C275.7833 161.5117 273.8544 162.6703 276 167.4167 C289.701 197.7249 307 229.4167 307 229.4167 "/>
<path id="3" d="M263 221.4167 C263 221.4167 265.5934 221.891 266 221.4167 C273.2734 212.931 287 193.4167 287 193.4167 "/>
<path id="4" d="M274 224.4167 L292 202.4167 "/>
<path id="5" d="M300 182.4167 C300 182.4167 313.7576 165.8122 329 151.4167 C340.479 140.5754 341.3537 139.1278 354 131.4167 C360.4766 127.4675 364.5682 127.2743 370 126.4167 C370.8684 126.2796 372.577 127.5707 373 128.4167 C373.4834 129.3835 373.7166 131.5567 373 132.4167 C366.4311 140.2994 363.8607 144.033 353 152.4167 C335.9832 165.5525 333.3075 163.4361 316 176.4167 C305.7728 184.087 297 194.4167 297 194.4167 "/>
<path id="6" d="M307 242.4167 C307 242.4167 307.2439 238.6118 307 238.4167 C306.6189 238.1118 303.1108 237.5672 302 238.4167 C297.1255 242.1442 292.8591 245.6985 290 251.4167 C288.3448 254.7272 289.1407 257.8337 290 262.4167 C290.4345 264.7342 292.216 267.3296 293 267.4167 C296.234 267.776 302.6164 266.6834 308 264.4167 C310.021 263.5657 311.3001 261.7965 312 259.4167 C313.3932 254.6797 313 247.4167 313 247.4167 "/>
<path id="7" d="M271 237.4167 C271 237.4167 272.2592 233.935 272 233.4167 C271.7038 232.8243 268.7226 231.0855 268 231.4167 C261.9167 234.2049 250.1059 241.6526 248 244.4167 C247.6307 244.9014 250.6513 251.4726 252 252.4167 C252.7446 252.9379 256.5348 252.7277 258 251.4167 C263.8049 246.2228 271 235.4167 271 235.4167 "/>
</g>
</g>
</svg>
