<?xml version="1.0" encoding="utf-8"?>
<!DOCTYPE svg PUBLIC "-//W3C//DTD SVG 1.1//EN" "http://www.w3.org/Graphics/SVG/1.1/DTD/svg11.dtd">
<svg viewBox="0 0 800 800" preserveAspectRatio="xMinYMin meet" xmlns="http://www.w3.org/2000/svg" version="1.1">
<g fill="none" stroke="black" stroke-linecap="round" stroke-linejoin="round" stroke-width="2.0641">
<g transform="translate(87.52,262.9448) scale(1.4534) translate(-107,-163.3333)">
<path id="0" d="M438 186.3333 C438 186.3333 430.4751 186.8442 424 185.3333 C416.0843 183.4863 415.7413 181.0536 408 179.3333 C403.0872 178.2416 401.9566 180.5135 397 179.3333 C381.9585 175.752 381.5286 172.034 366 169.3333 C336.5719 164.2154 335.4133 164.1821 305 163.3333 C228.429 161.1965 226.9354 160.9479 151 163.3333 C132.6628 163.9094 131.8061 165.6912 114 169.3333 C110.4536 170.0587 107.747 171.4618 107 172.3333 C106.7391 172.6377 107.5058 175.9379 108 176.3333 C108.4707 176.7099 110.7449 175.6046 112 176.3333 C123.751 183.1565 124.885 187.4615 139 194.3333 C161.9901 205.5259 166.0127 203.5612 188 213.3333 C190.7644 214.5619 190.2209 216.777 193 218.3333 C201.9216 223.3294 202.782 223.6177 213 227.3333 C235.5913 235.5484 235.8239 236.2063 259 242.3333 C278.9985 247.6203 279.4384 247.3633 300 250.3333 C324.2523 253.8364 324.6359 254.8876 349 255.3333 C406.0563 256.377 452.034 259.3684 464 253.3333 C466.9132 251.864 462.8687 224.8624 464 197.3333 C464.3459 188.9157 467.0608 180.7893 467 180.3333 C466.9951 180.2967 464.3604 182.2307 462 182.3333 C442.976 183.1605 421 182.3333 421 182.3333 "/>
<path id="1" d="M108 177.3333 C108 177.3333 116.7863 198.0373 128 216.3333 C135.4452 228.4808 135.7076 230.9123 146 239.3333 C161.3751 251.9129 164.2567 251.2675 183 261.3333 C190.9709 265.614 193.0819 264.5284 200 268.3333 C201.7254 269.2823 201.2819 271.5195 203 272.3333 C217.6127 279.2551 220.3826 282.4543 238 286.3333 C273.2518 294.0952 275.1712 293.4104 312 296.3333 C337.605 298.3655 338.5822 294.3564 364 296.3333 C382.8407 297.7987 383.0691 301.7844 402 303.3333 C437.4168 306.2311 462.9385 307.6931 474 305.3333 C475.0571 305.1078 476.453 296.2684 477 287.3333 C477.9326 272.1006 478.3762 270.7831 477 256.3333 C476.4948 251.0284 475.7999 249.8563 473 245.3333 C469.7648 240.1072 464 235.3333 464 235.3333 "/>
<path id="2" d="M316 165.3333 C316 165.3333 318.9911 166.093 319 166.3333 C319.6408 183.6342 317.7315 209.5459 319 246.3333 C319.1126 249.5998 322 253.3333 322 253.3333 "/>
<path id="3" d="M349 173.3333 L350 266.3333 "/>
<path id="4" d="M469 209.3333 C469 209.3333 461.0125 209.6708 460 209.3333 C459.8875 209.2958 459.5803 206.753 460 206.3333 C461.5389 204.7944 463.7782 202.7361 467 202.3333 C477.7395 200.9909 483.0135 199.2076 492 202.3333 C501.5491 205.6548 506.7656 210.0208 513 218.3333 C517.8108 224.7477 518.0986 228.5685 519 238.3333 C520.9734 259.7123 520.7901 268.4157 519 283.3333 C518.7725 285.2295 515.6171 287.8487 513 288.3333 C505.0648 289.8028 499.8332 291.1666 492 288.3333 C480.0082 283.9959 469.8248 279.6387 466 271.3333 C457.6642 253.2328 457 212.3333 457 212.3333 "/>
<path id="5" d="M504 285.3333 C504 285.3333 502.8754 290.6381 504 294.3333 C506.0156 300.9561 511 308.3333 511 308.3333 "/>
<path id="6" d="M465 201.3333 C465 201.3333 451.2892 207.9338 438 211.3333 C430.6914 213.203 425.6345 211.4782 422 212.3333 C421.6181 212.4232 421 215.3333 421 215.3333 "/>
<path id="7" d="M515 307.9333 C515 307.9333 510.6517 316.6751 509 324.9333 C507.8202 330.8321 507.4009 333.3359 509 337.9333 C510.5724 342.4539 512.6895 344.3835 517 347.9333 C520.2641 350.6214 521.6874 350.9186 526 351.9333 C529.4705 352.7499 532.617 352.8134 534 351.9333 C535.2887 351.1133 536.6672 348.2609 537 344.9333 C538.0484 334.4492 538.7479 331.2553 537 321.9333 C536.2306 317.8297 534.4163 315.7468 531 312.9333 C527.1491 309.762 520 307.9333 520 307.9333 "/>
</g>
</g>
</svg>
