<?xml version="1.0" encoding="utf-8"?>
<!DOCTYPE svg PUBLIC "-//W3C//DTD SVG 1.1//EN" "http://www.w3.org/Graphics/SVG/1.1/DTD/svg11.dtd">
<svg viewBox="0 0 800 800" preserveAspectRatio="xMinYMin meet" xmlns="http://www.w3.org/2000/svg" version="1.1">
<g fill="none" stroke="black" stroke-linecap="round" stroke-linejoin="round" stroke-width="1.8865">
<g transform="translate(87.52,292.6595) scale(1.5902) translate(-63,-179)">
<path id="0" d="M89 307 C89 307 176.7815 312.0505 260 308 C287.0581 306.683 289.2033 305.1047 315 296 C355.8086 281.597 356.5478 279.1625 396 260 C408.5327 253.9127 408.9318 253.3011 420 245 C428.5563 238.5828 436 230 436 230 "/>
<path id="1" d="M89 309 C89 309 90.8934 281.1176 88 277 C86.0033 274.1585 65.3822 274.4814 63 272 C61.436 270.3708 62.6053 252.9962 64 252 C66.4636 250.2403 81.2111 252.6751 91 252 C91.7751 251.9465 92.8749 250.8754 93 250 C94.8291 237.1965 96 217 96 217 C96 217 93 251 93 251 "/>
<path id="2" d="M92 220 C92 220 127.7354 223.6949 153 221 C159.2069 220.3379 159.7146 215.6427 167 212 C178.4204 206.2898 179.8526 208.0995 191 202 C205.9013 193.8465 205.4545 190.7801 220 183 C225.9944 179.7937 227.139 179.7417 234 179 C244.934 177.8179 247.5782 175.8241 257 179 C288.1789 189.5097 289.9469 194.2131 323 209 C327.9065 211.195 327.9892 211.8865 333 213 C341.0276 214.7839 342.4259 212.9608 350 215 C354.4681 216.2029 354.49 218.903 359 220 C371.7901 223.1111 373.0713 223.1428 387 224 C405.2454 225.1228 406.4185 226.1311 424 224 C438.2409 222.2738 452.9987 216.0001 453 216 C453.0006 216 444.8479 218.614 439 223 C431.5572 228.5821 425 237 425 237 "/>
<path id="3" d="M155 222 C155 222 173.6792 221.6121 192 223 C206.4799 224.097 206.5951 226.6399 221 227 C285.8466 228.6212 295.4892 230.8183 352 227 C359.6249 226.4848 369 217 369 217 "/>
<path id="4" d="M91 251 L92 314 "/>
<path id="5" d="M95 248 C95 248 103.102 252.7611 111 254 C127.4633 256.5825 128.5161 255.8166 146 256 C271.3146 257.3145 397 257 397 257 "/>
<path id="6" d="M86 270 C86 270 132.5719 275.8008 179 277 C267.69 279.2909 271.6359 279.1888 357 277 C365.2142 276.7894 374 272 374 272 "/>
<path id="7" d="M98 218 C98 218 107.5717 215.3771 117 215 C144.6142 213.8954 173 215 173 215 "/>
<path id="8" d="M366 220 C366 220 455.9917 218.9999 456 219 C456.0007 219 451.0703 219.081 448 221 C436.2996 228.3128 436.286 231.2404 424 239 C417.8205 242.9029 410 245 410 245 "/>
<path id="9" d="M210 207 C210 207 211.7022 203.2207 214 202 C225.8666 195.6958 229.1316 191.8986 242 190 C256.073 187.9237 260.0139 189.1326 275 193 C289.3563 196.7049 304.0263 205.9942 304 206 C303.907 206.0207 212 207 212 207 "/>
</g>
</g>
</svg>
