<?xml version="1.0" encoding="utf-8"?>
<!DOCTYPE svg PUBLIC "-//W3C//DTD SVG 1.1//EN" "http://www.w3.org/Graphics/SVG/1.1/DTD/svg11.dtd">
<svg viewBox="0 0 800 800" preserveAspectRatio="xMinYMin meet" xmlns="http://www.w3.org/2000/svg" version="1.1">
<g fill="none" stroke="black" stroke-linecap="round" stroke-linejoin="round" stroke-width="2.7266">
<g transform="translate(87.52,222.3045) scale(1.1003) translate(-41,-95.1333)">
<path id="0" d="M105 97.1333 C105 97.1333 111.4138 114.5049 120 129.1333 C124.4281 136.6774 126.7644 135.6932 132 143.1333 C145.5988 162.458 144.0033 164.3651 158 183.1333 C165.6415 193.3798 166.2687 193.6783 176 202.1333 C196.4565 219.9071 196.9681 220.0124 219 236.1333 C237.8336 249.914 237.9407 250.2535 258 262.1333 C289.2436 280.6368 289.5372 281.8567 322 297.1333 C339.7976 305.5087 341.4891 302.729 360 310.1333 C376.2828 316.6464 375.6579 319.3412 392 325.1333 C414.6006 333.1437 416.9514 331.0611 439 338.1333 C442.1382 339.1399 445 342.1333 445 342.1333 "/>
<path id="1" d="M104 95.1333 C104 95.1333 101.8572 116.5369 105 136.1333 C110.1591 168.3015 110.2121 170.3109 121 201.1333 C130.7946 229.118 132.5221 230.0731 147 256.1333 C154.6212 269.8514 155.6171 270.5968 166 282.1333 C173.0584 289.976 173.9645 290.2192 183 296.1333 C201.0962 307.9781 201.4482 308.532 221 318.1333 C257.1383 335.8798 257.9514 334.7539 295 351.1333 C305.4463 355.7517 305.2789 356.5596 316 360.1333 C339.5268 367.9756 339.9811 369.5697 364 374.1333 C389.1046 378.9032 399.1256 382.9079 416 379.1333 C425.5914 376.9879 429.7471 368.6678 440 357.1333 C444.995 351.514 448 343.1333 448 343.1333 "/>
<path id="2" d="M424 332.1333 C424 332.1333 427.0994 322.8794 432 315.1333 C442.3407 298.7884 442.844 298.0678 455 283.1333 C459.9772 277.0185 460.7019 275.5871 467 272.1333 C474.7853 267.864 479.1712 265.0159 486 266.1333 C500.5741 268.5182 505.1922 273.1296 522 281.1333 C525.2651 282.6881 526.8305 283.9893 528 286.1333 C528.8482 287.6883 528.992 289.9966 528 292.1333 C523.3646 302.1173 522.328 303.9687 515 314.1333 C507.0636 325.1419 505.0328 330.2244 497 335.1333 C492.1514 338.0964 485.824 337.7256 479 336.1333 C473.674 334.8906 472.4976 330.3324 467 328.1333 C464.1065 326.9759 462.5415 327.425 459 328.1333 C455.6356 328.8062 453.7614 329.2118 452 331.1333 C449.6306 333.7181 448 340.1333 448 340.1333 "/>
<path id="3" d="M281 271.1333 C281 271.1333 282.1157 264.6401 285 260.1333 C289.6115 252.9279 290.4397 250.4444 297 246.1333 C305.9474 240.2536 309.6312 239.1495 320 237.1333 C325.2833 236.106 333 239.1333 333 239.1333 "/>
<path id="4" d="M105 95.1333 C105 95.1333 116.7749 95.2354 126 99.1333 C150.7951 109.6101 150.469 114.12 176 125.1333 C200.9258 135.8857 203.0692 132.5744 228 143.1333 C244.9862 150.3275 247.2623 149.8653 261 161.1333 C290.0816 184.9868 287.917 190.4903 317 216.1333 C333.9237 231.0553 335.0187 230.4792 354 243.1333 C376.8926 258.395 378.9066 256.2055 401 272.1333 C421.4288 286.8611 440 305.1333 440 305.1333 "/>
<path id="5" d="M370 308.1333 C370 308.1333 375 300.1333 375 300.1333 C374.9999 300.1334 367 310.1333 367 310.1333 "/>
<path id="6" d="M373 300.1333 C373 300.1333 395.2696 309.841 396 311.1333 C396.1932 311.4751 386 323.1333 386 323.1333 "/>
<path id="7" d="M300 247.1333 C300 247.1333 324.1866 269.2586 349 290.1333 C355.5294 295.6263 355.8103 296.1071 363 300.1333 C367.8567 302.8531 374 304.1333 374 304.1333 "/>
<path id="8" d="M392 314.1333 C392 314.1333 400.329 314.8682 406 318.1333 C415.6133 323.6683 425 333.1333 425 333.1333 "/>
<path id="9" d="M513 290.1333 C513 290.1333 504.6464 289.1773 502 291.1333 C496.6287 295.1034 493.284 299.1286 490 307.1333 C486.1324 316.5605 486.3184 321.2178 486 330.1333 C485.9327 332.0183 487.7524 334.2422 489 335.1333 C489.7594 335.6758 493 335.1333 493 335.1333 "/>
<path id="10" d="M502 312.1333 C502 312.1333 504.4468 301.2398 508 294.1333 C509.0998 291.9337 511.3495 290.4334 513 290.1333 C514.6243 289.838 518.6423 291.418 519 292.1333 C519.5365 293.2064 519.4303 298.7031 518 300.1333 C514.027 304.1063 502 309.1333 502 309.1333 "/>
<path id="11" d="M504 311.1333 C504 311.1333 505.7813 306.1021 505 303.1333 C503.7298 298.3066 499.5677 292.638 499 292.1333 C498.988 292.1227 496.3677 293.7544 496 295.1333 C494.813 299.5847 494.0844 304.2035 495 307.1333 C495.4602 308.6061 501 311.1333 501 311.1333 "/>
<path id="12" d="M499 314.1333 C499 314.1333 497.1688 313.0208 497 313.1333 C496.0716 313.7523 493.5597 315.8946 493 318.1333 C491.9739 322.2376 492.9884 329.1403 493 329.1333 C493.0354 329.1121 503 312.1333 503 312.1333 "/>
<path id="13" d="M501 320.1333 C501 320.1333 501.512 328.4826 502 329.1333 C502.1377 329.3169 506.7435 328.6891 507 328.1333 C507.9663 326.0397 508.5578 320.5961 508 316.1333 C507.7945 314.4892 505 312.1333 505 312.1333 "/>
<path id="14" d="M511 308.1333 C511 308.1333 514.5802 306.8184 515 307.1333 C516.1949 308.0295 519.0843 314.0209 519 314.1333 C518.8208 314.3722 511.2588 315.3387 509 315.1333 C508.7306 315.1088 508 313.1333 508 313.1333 "/>
<path id="15" d="M112 147.1333 C112 147.1333 123.4378 160.1236 133 174.1333 C144.8022 191.4249 142.7493 193.7991 155 210.1333 C163.1671 221.0228 164.3873 221.0683 175 230.1333 C188.1467 241.3628 189.7305 239.8911 203 251.1333 C225.5707 270.2557 224.2011 272.7068 247 291.1333 C260.2489 301.8414 260.9784 301.9787 276 310.1333 C295.6067 320.777 296.2337 320.402 317 329.1333 C340.1315 338.8591 340.2369 339.5605 364 347.1333 C385.4061 353.9551 386.5325 351.8411 408 358.1333 C415.1637 360.233 422 364.1333 422 364.1333 "/>
<path id="16" d="M41 268.1333 C41 268.1333 46.6294 262.6438 52 261.1333 C60.9294 258.6219 64.8309 256.9755 73 259.1333 C87.4559 262.9519 89.9668 269.9044 105 275.1333 C110.6027 277.0821 112.4519 276.1895 119 275.1333 C127.3285 273.79 136 270.1333 136 270.1333 "/>
<path id="17" d="M95 351.1333 C95 351.1333 92.9794 350.1449 93 350.1333 C93.4914 349.8581 106.3145 342.7861 120 337.1333 C129.0808 333.3826 129.6153 332.5614 139 331.1333 C151.7964 329.1861 154.2416 327.3273 166 330.1333 C195.1089 337.0798 196.5817 341.7042 227 352.1333 C231.2984 353.6071 231.6216 354.0117 236 354.1333 C249.0412 354.4956 263 353.1333 263 353.1333 "/>
<path id="18" d="M267 418.1333 C267 418.1333 274.3324 410.7374 282 408.1333 C298.9709 402.3696 301.5743 401.3145 320 400.1333 C339.0452 398.9125 340.5993 399.8264 360 403.1333 C383.9665 407.2185 384.3619 411.7565 408 415.1333 C425.1172 417.5787 426.4307 417.0327 444 415.1333 C481.2358 411.1078 481.4452 408.2408 519 403.1333 C543.8366 399.7556 569 398.1333 569 398.1333 "/>
<path id="19" d="M423 250.1333 C423 250.1333 439.3343 239.5218 456 233.1333 C468.3569 228.3965 469.7798 228.3574 483 227.1333 C495.9092 225.938 497.3149 225.6321 510 228.1333 C531.7177 232.4157 532.4864 237.0204 554 241.1333 C565.1073 243.2568 566.7718 242.9707 578 241.1333 C593.1921 238.6473 609 232.1333 609 232.1333 "/>
<path id="20" d="M350 185.1333 C350 185.1333 360.9069 173.6799 372 168.1333 C380.9109 163.6779 383.1354 164.2891 394 163.1333 C406.0547 161.8509 407.4827 160.7744 419 163.1333 C447.3242 168.9347 448.0321 172.8914 477 180.1333 C487.5867 182.78 488.1371 183.0055 499 183.1333 C530.046 183.4986 531.0395 183.9198 562 181.1333 C580.44 179.4737 599 174.1333 599 174.1333 "/>
<path id="21" d="M240 250.1333 C240 250.1333 244.2331 240.0971 250 232.1333 C254.333 226.1496 255.0192 225.8623 261 221.1333 C276.2379 209.0847 293 198.1333 293 198.1333 "/>
<path id="22" d="M226 240.1333 C226 240.1333 226.55 234.5634 229 231.1333 C238.1719 218.2927 238.9717 216.1593 251 205.1333 C262.1535 194.9093 264.623 194.7192 277 187.1333 C278.876 185.9836 282 186.1333 282 186.1333 "/>
<path id="23" d="M140 152.1333 C140 152.1333 143.2576 143.4565 148 137.1333 C151.7262 132.1651 153.2286 131.1155 158 128.1333 C160.0231 126.8689 164 127.1333 164 127.1333 "/>
<path id="24" d="M136 143.1333 C136 143.1333 140.8521 131.8083 147 126.1333 C151.9431 121.5705 162 119.1333 162 119.1333 "/>
</g>
</g>
</svg>
