<?xml version="1.0" encoding="utf-8"?>
<!DOCTYPE svg PUBLIC "-//W3C//DTD SVG 1.1//EN" "http://www.w3.org/Graphics/SVG/1.1/DTD/svg11.dtd">
<svg viewBox="0 0 800 800" preserveAspectRatio="xMinYMin meet" xmlns="http://www.w3.org/2000/svg" version="1.1">
<g fill="none" stroke="black" stroke-linecap="round" stroke-linejoin="round" stroke-width="2.5202">
<g transform="translate(87.52,242.8672) scale(1.1904) translate(-111,-52.4167)">
<path id="0" d="M128 295.4167 C128 295.4167 180.7008 304.8194 233 308.4167 C274.4861 311.2702 275.4096 306.5262 317 308.4167 C340.901 309.5031 341.0996 313.3465 365 314.4167 C407.5832 316.3234 451 314.4167 451 314.4167 "/>
<path id="1" d="M128 292.4167 L126 292.4167 "/>
<path id="2" d="M129 294.4167 C129 294.4167 124.7312 295.0667 124 294.4167 C122.375 292.9722 120.7592 290.2126 120 286.4167 C118.9648 281.2404 119.1049 280.0111 120 274.4167 C121.0174 268.0577 124 261.4167 124 261.4167 "/>
<path id="3" d="M125 261.4167 C125 261.4167 126.1273 253.431 124 248.4167 C119.9567 238.8861 112.4199 237.4097 111 228.4167 C107.4044 205.6445 110.9312 193.0801 112 172.4167 C112.0401 171.6412 114 170.4167 114 170.4167 "/>
<path id="4" d="M447 316.4167 C447 316.4167 450.9891 316.7 454 315.4167 C480.2144 304.2433 482.3269 304.3626 508 290.4167 C522.1779 282.7151 521.9154 281.3964 535 271.4167 C551.345 258.9501 552.669 259.7477 567 245.4167 C596.6504 215.7663 624 182.4167 624 182.4167 "/>
<path id="5" d="M119 172.4167 C119 172.4167 137.1785 166.8005 155 166.4167 C297.5659 163.346 300.327 164.5131 444 165.4167 C458.4267 165.5074 458.5513 168.1026 473 168.4167 C527.1855 169.5946 528.6891 165.3212 582 168.4167 C604.7538 169.7379 605.8845 172.8093 628 177.4167 C629.0201 177.6292 630 178.2414 630 178.4167 C630 179.6439 628 185.4167 628 185.4167 "/>
<path id="6" d="M116 168.4167 C116 168.4167 124.3022 168.5543 132 170.4167 C154.9502 175.9691 154.9798 179.6133 178 183.4167 C211.4638 188.9455 212.5659 187.7232 247 189.4167 C273.3368 190.7119 273.9294 187.8649 300 189.4167 C315.3952 190.3331 315.6542 194.1122 331 194.4167 C440.0517 196.5804 443.1428 196.968 552 194.4167 C569.3091 194.011 569.9565 192.2428 587 188.4167 C594.0911 186.8248 594.2319 184.1073 601 183.4167 C617.3253 181.7508 636 183.4167 636 183.4167 "/>
<path id="7" d="M202 170.4167 C202 170.4167 206.57 170.6317 209 169.4167 C211.43 168.2017 212.3313 167.2596 214 164.4167 C238.3445 122.9409 237.6891 120.0033 263 77.4167 C268.955 67.3971 270.1561 66.4012 277 58.4167 C278.1985 57.0185 279.1852 56.4599 281 56.4167 C316.8682 55.5627 321.9172 57.9958 361 56.4167 C370.3611 56.0384 372.3682 53.0803 380 52.4167 C381.5092 52.2854 383.1257 53.251 384 54.4167 C385.3114 56.1652 384.4036 58.0835 386 60.4167 C390.447 66.9162 391.0669 67.4836 397 73.4167 C404.4163 80.833 404.3827 81.8408 413 87.4167 C429.2636 97.9402 431.4681 95.6982 448 106.4167 C476.6255 124.9761 475.2628 128.3795 504 146.4167 C521.6894 157.5196 526.4552 156.3173 542 165.4167 C543.8756 166.5146 545 170.4167 545 170.4167 "/>
<path id="8" d="M343 61.4167 C343 61.4167 353.9904 66.4265 363 73.4167 C382.5508 88.5854 381.2796 90.9602 401 106.4167 C436.6102 134.3273 474 160.4167 474 160.4167 "/>
<path id="9" d="M223 160.4167 C223 160.4167 234.2635 154.9059 246 151.4167 C307.8945 133.0156 308.622 131.8186 371 116.4167 C388.8462 112.0102 389.96 115.081 408 111.4167 C421.5837 108.6575 435 103.4167 435 103.4167 "/>
<path id="10" d="M130 258.4167 C130 258.4167 160.9563 266.0859 192 271.4167 C210.2142 274.5444 210.5208 274.4232 229 275.4167 C256.8335 276.9131 257.4023 273.9685 285 276.4167 C318.8949 279.4235 319.1991 283.135 353 286.4167 C370.1526 288.082 373.3563 285.6459 388 286.4167 C389.2992 286.4851 389.7216 288.3855 391 288.4167 C424.1248 289.2246 430.8758 289.8394 470 288.4167 C485.4246 287.8558 485.9384 287.4848 501 284.4167 C512.5636 282.0611 524 277.4167 524 277.4167 "/>
</g>
</g>
</svg>
