<?xml version="1.0" encoding="utf-8"?>
<!DOCTYPE svg PUBLIC "-//W3C//DTD SVG 1.1//EN" "http://www.w3.org/Graphics/SVG/1.1/DTD/svg11.dtd">
<svg viewBox="0 0 800 800" preserveAspectRatio="xMinYMin meet" xmlns="http://www.w3.org/2000/svg" version="1.1">
<g fill="none" stroke="black" stroke-linecap="round" stroke-linejoin="round" stroke-width="1.8529">
<g transform="translate(87.52,279.3795) scale(1.6191) translate(-85,-160.1333)">
<path id="0" d="M154 216.1333 C154 216.1333 173.4681 223.9102 193 228.1333 C209.8414 231.7747 210.5654 231.5373 228 232.1333 C268.6877 233.5244 269.4454 233.3145 310 232.1333 C320.4291 231.8296 320.581 230.9939 331 229.1333 C348.5379 226.0016 348.8598 226.491 366 222.1333 C378.1324 219.0488 379.2316 219.7937 390 214.1333 C417.2392 199.8153 417.8583 198.5611 444 181.1333 C458.1027 171.7315 470.9177 160.1117 471 160.1333 C471.0044 160.1345 468.0475 173.6948 463 186.1333 C454.1781 207.873 454.6944 209.2801 443 229.1333 C433.7036 244.9156 432.6716 245.7577 420 259.1333 C406.208 273.6915 405.2745 275.1947 389 286.1333 C375.95 294.9046 374.0147 296.7805 359 300.1333 C325.0013 307.7253 322.3584 306.473 286 309.1333 C261.3196 310.9392 259.771 312.6618 236 309.1333 C197.5763 303.4298 195.2483 302.1176 158 290.1333 C139.0505 284.0365 137.6212 282.6309 121 272.1333 C110.2206 265.3253 104.7011 258.0292 101 254.1333 C100.895 254.0228 101.2836 252.7336 102 252.1333 C118.1449 238.6065 122.4983 238.9118 138 223.1333 C149.4752 211.4532 155.9822 197.3266 158 195.1333 C158.0104 195.122 160.7649 196.8797 161 198.1333 C161.8578 202.7081 159.0396 207.8252 161 211.1333 C164.5409 217.1086 168.5239 219.7181 177 225.1333 C185.7498 230.7235 197 234.1333 197 234.1333 "/>
<path id="1" d="M122 244.1333 C122 244.1333 118.9956 235.0938 118 226.1333 C116.5366 212.9625 114.9102 201.0031 117 199.1333 C121.0846 195.4787 153.4448 191.8644 156 192.1333 C156.0105 192.1344 154.5935 197.8491 155 203.1333 C156.0534 216.8277 159 231.1333 159 231.1333 "/>
<path id="2" d="M119 234.1333 C119 234.1333 112.2694 252.6677 108 270.1333 C107.0068 274.1963 108 279.1333 108 279.1333 "/>
<path id="3" d="M106 278.1333 C106 278.1333 96.1764 279.0196 92 280.1333 C91.5594 280.2508 90.9783 282.117 91 282.1333 C91.2498 282.3207 96.0023 283.131 96 283.1333 C95.9942 283.1391 89.0881 283.7484 88 285.1333 C86.1145 287.533 84.6773 296.8106 85 297.1333 C85.5379 297.6712 99.3546 296.8851 100 297.1333 C100.0033 297.1346 97.9488 302.131 98 302.1333 C98.6875 302.1646 119.9805 297.8809 122 298.1333 C122.0752 298.1427 121.1972 303.5277 122 305.1333 C122.6308 306.3949 126.2234 308.4354 127 308.1333 C130.4216 306.8027 133.4976 302.0348 140 298.1333 C142.8063 296.4496 147.0051 296.146 147 296.1333 C146.9212 295.9363 141.028 289.8822 136 288.1333 C131.6223 286.6107 128.1045 289.5699 124 288.1333 C120.4257 286.8823 116.3738 283.6002 116 281.1333 C114.8373 273.4597 116.3532 267.7058 119 255.1333 C122.2693 239.6041 128 224.1333 128 224.1333 "/>
<path id="4" d="M168 251.1333 C168 251.1333 171.3186 267.9904 178 276.1333 C184.4492 283.9933 188.6665 283.9944 200 290.1333 C212.4508 296.8775 226 302.1333 226 302.1333 "/>
<path id="5" d="M169 251.1333 C169 251.1333 188.6322 239.4922 190 240.1333 C192.0018 241.0717 194.4908 258.9942 201 266.1333 C205.7398 271.3318 211.3495 272.0467 221 274.1333 C228.55 275.7658 237.8562 273.745 238 274.1333 C238.5575 275.6386 231 301.1333 231 301.1333 "/>
<path id="6" d="M287 248.1333 C287 248.1333 294.0665 255.8759 301 258.1333 C313.1756 262.0975 315.7608 261.6337 330 262.1333 C343.6477 262.6122 358 260.1333 358 260.1333 "/>
<path id="7" d="M289 251.1333 C289 251.1333 284.2205 253.0306 284 254.1333 C282.787 260.1984 281.6153 273.29 284 276.1333 C287.3393 280.1148 297.2717 283.3897 310 285.1333 C332.0312 288.1513 335.1567 287.8398 357 286.1333 C365.1321 285.498 372.8817 282.2102 374 280.1333 C375.3567 277.6137 372.5853 262.7756 371 260.1333 C370.6073 259.4788 362 260.1333 362 260.1333 "/>
<path id="8" d="M364 222.1333 C364 222.1333 371.4557 220.5932 377 222.1333 C387.9939 225.1872 389.5888 226.039 400 232.1333 C409.4519 237.6662 411.3744 238.4885 418 246.1333 C423.1333 252.0564 426 262.1333 426 262.1333 "/>
<path id="9" d="M168 225.1333 C168 225.1333 158.9131 235.5818 152 246.1333 C149.8118 249.4733 149.295 250.2985 149 254.1333 C147.889 268.5767 147.34 271.1891 149 285.1333 C149.6209 290.349 154 296.1333 154 296.1333 "/>
</g>
</g>
</svg>
