<?xml version="1.0" encoding="utf-8"?>
<!DOCTYPE svg PUBLIC "-//W3C//DTD SVG 1.1//EN" "http://www.w3.org/Graphics/SVG/1.1/DTD/svg11.dtd">
<svg viewBox="0 0 800 800" preserveAspectRatio="xMinYMin meet" xmlns="http://www.w3.org/2000/svg" version="1.1">
<g fill="none" stroke="black" stroke-linecap="round" stroke-linejoin="round" stroke-width="1.5601">
<g transform="translate(87.52,224.0497) scale(1.923) translate(-98,-99.4167)">
<path id="0" d="M130 238.4167 C130 238.4167 140.9208 237.408 148 240.4167 C158.6564 244.9457 160.7936 247.0473 170 255.4167 C176.3646 261.2027 177.078 262.8528 181 270.4167 C183.5679 275.3691 183.6214 282.4167 184 282.4167 C190.184 282.4167 209.5234 278.3246 233 270.4167 C256.3415 262.5543 255.7798 259.323 279 250.4167 C292.0087 245.427 293.5331 247.7217 306 242.4167 C316.2946 238.036 315.648 234.6684 326 230.4167 C342.8256 223.5061 357.4255 225.2492 362 219.4167 C367.0295 213.0041 361.5634 197.7178 366 179.4167 C369.1306 166.503 378 153.4167 378 153.4167 "/>
<path id="1" d="M130 238.4167 C130 238.4167 100.3201 238.4395 100 238.4167 C99.9802 238.4153 101.0747 236.5871 102 236.4167 C116.4247 233.7595 120.0875 232.8612 138 231.4167 C150.7935 230.3849 151.5537 232.6309 164 231.4167 C171.3674 230.6979 171.9977 230.3142 179 227.4167 C200.5577 218.4962 222 207.4167 222 207.4167 "/>
<path id="2" d="M98 235.4167 C98 235.4167 105.6005 224.1133 115 218.4167 C136.6679 205.2846 141.4794 207.9691 164 195.4167 C170.6051 191.7352 176 184.4167 176 184.4167 "/>
<path id="3" d="M183 165.4167 C183 165.4167 176.0579 170.4494 175 174.4167 C173.0045 181.8998 173.8692 193.4378 175 195.4167 C175.3692 196.0628 181.6982 194.1314 187 195.4167 C197.135 197.8736 197.5484 200.9282 208 203.4167 C217.7998 205.75 228.324 206.318 229 205.4167 C230.4749 203.4502 231.9081 178.6572 229 175.4167 C225.0827 171.0517 211.1494 169.772 194 166.4167 C188.8684 165.4127 183 166.4167 183 166.4167 "/>
<path id="4" d="M228 204.4167 C228 204.4167 232.585 204.7751 235 203.4167 C239.311 200.9917 239.3323 198.4369 244 195.4167 C247.2732 193.2987 248.196 192.5845 252 192.4167 C280.0657 191.1785 283.1689 193.2773 312 192.4167 C315.3923 192.3154 316.1434 192.1457 319 190.4167 C334.2079 181.2119 336.0281 180.6624 350 169.4167 C355.7339 164.8016 354.5709 162.5743 360 157.4167 C364.224 153.4038 364.8694 152.982 370 150.4167 C374.3705 148.2314 376.2667 147.4167 380 147.4167 C382.24 147.4167 385.9886 150.3598 386 150.4167 C386.0027 150.4302 381 152.4167 381 152.4167 "/>
<path id="5" d="M209 167.4167 C209 167.4167 226.7042 154.6291 244 149.4167 C260.7742 144.3614 263.2659 148.3606 282 145.4167 C298.0528 142.8941 298.1003 140.2082 314 138.4167 C332.9662 136.2796 334.9205 136.3319 353 137.4167 C358.2186 137.7298 360.6948 138.7312 364 141.4167 C366.8558 143.737 369 150.4167 369 150.4167 "/>
<path id="6" d="M353 138.4167 C353 138.4167 355.0556 131.9408 354 127.4167 C351.9541 118.6485 348.1671 117.0852 346 108.4167 C345.097 104.8048 346.6288 99.4774 347 99.4167 C355.1061 98.0902 398.3972 97.7758 401 99.4167 C401.4956 99.7291 395.8979 113.927 393 128.4167 C390.9733 138.55 391.3612 138.942 391 149.4167 C390.3657 167.8116 387.7862 172.4902 391 186.4167 C392.5434 193.1049 402.5027 200.5325 403 201.4167 C403.0157 201.4446 400 202.4167 400 202.4167 "/>
<path id="7" d="M375 158.4167 C375 158.4167 374.0345 174.2616 377 182.4167 C378.5155 186.5842 384.0174 186.5699 387 191.4167 C391.0727 198.0348 390.6092 205.5135 393 208.4167 C393.7179 209.2884 400.1233 208.7454 401 208.4167 C401.1233 208.3704 401 205.4167 401 205.4167 "/>
<path id="8" d="M402 203.4167 C402 203.4167 401.625 209.0417 402 209.4167 C402.375 209.7917 406.3967 210.1292 408 209.4167 C409.2767 208.8492 411.0718 205.5423 411 205.4167 C410.7802 205.032 404 202.4167 404 202.4167 "/>
<path id="9" d="M399 197.4167 C399 197.4167 401.9234 191.8703 404 190.4167 C405.0488 189.6825 408.9978 190.3923 409 190.4167 C409.0519 190.988 404.9961 201.3894 405 201.4167 C405.0012 201.4253 407.74 198.2385 410 197.4167 C412.1008 196.6527 415.9974 197.3983 416 197.4167 C416.0193 197.5517 410.9706 204.3824 411 204.4167 C411.1021 204.5358 420.9149 203.6029 422 204.4167 C422.7645 204.99 423.1081 213.3676 423 213.4167 C422.644 213.5785 411.8863 209.2121 411 209.4167 C410.7907 209.465 410.5942 215.5848 410 216.4167 C409.7799 216.7248 406.7594 216.9591 406 216.4167 C404.7524 215.5255 403.7507 211.5168 403 211.4167 C400.6249 211.1 394.4405 214.4167 391 214.4167 C390.1399 214.4167 388 211.9956 388 211.4167 C388 210.4517 391 206.4167 391 206.4167 "/>
<path id="10" d="M365 141.4167 L390 141.4167 "/>
<path id="11" d="M231 176.4167 C231 176.4167 297.1743 174.5901 304 176.4167 C304.2884 176.4939 302 195.4167 302 195.4167 "/>
<path id="12" d="M253 179.4167 C253 179.4167 257.9808 183.9552 260 187.4167 C260.6684 188.5625 260 191.4167 260 191.4167 "/>
<path id="13" d="M278 178.4167 C278 178.4167 279.9529 179.0868 280 179.4167 C280.4765 182.752 280 192.4167 280 192.4167 "/>
<path id="14" d="M197 198.4167 L207 194.4167 "/>
<path id="15" d="M203 196.4167 C203 196.4167 199.0566 194.3538 198 192.4167 C196.8149 190.244 196.5815 187.509 197 185.4167 C197.2215 184.309 198.8682 182.5358 200 182.4167 C205.4255 181.8456 211.3067 181.774 216 183.4167 C217.751 184.0295 219.2619 186.6487 220 189.4167 C220.9401 192.9419 220.995 195.8298 220 198.4167 C219.3452 200.1192 217.26 201.5949 215 202.4167 C212.8992 203.1806 210.8842 203.1703 209 202.4167 C207.2414 201.7132 205 198.4167 205 198.4167 "/>
<path id="16" d="M209 187.4167 L209 193.4167 "/>
<path id="17" d="M207 194.4167 L214 194.4167 "/>
<path id="18" d="M206 193.4167 L211 198.4167 "/>
<path id="19" d="M204 190.4167 L201 186.4167 "/>
</g>
</g>
</svg>
