<?xml version="1.0" encoding="utf-8"?>
<!DOCTYPE svg PUBLIC "-//W3C//DTD SVG 1.1//EN" "http://www.w3.org/Graphics/SVG/1.1/DTD/svg11.dtd">
<svg viewBox="0 0 800 800" preserveAspectRatio="xMinYMin meet" xmlns="http://www.w3.org/2000/svg" version="1.1">
<g fill="none" stroke="black" stroke-linecap="round" stroke-linejoin="round" stroke-width="2.5154">
<g transform="translate(87.52,183.5301) scale(1.1927) translate(-15.5,-36.6667)">
<path id="0" d="M74.5 109.6667 C74.5 109.6667 75.3853 128.0356 77.5 139.6667 C77.7455 141.0167 80.3051 141.4321 80.5 142.6667 C81.3979 148.3533 78.7389 151.505 80.5 158.6667 C85.859 180.4599 89.6341 181.0412 95.5 203.6667 C100.006 221.0471 97.8965 237.3679 101.5 239.6667 C108.0485 243.8442 127.7051 239.1313 153.5 240.6667 C169.4736 241.6175 170.2041 241.7532 185.5 244.6667 C190.5245 245.6237 190.6074 248.1584 195.5 248.6667 C227.1675 251.9568 229.9865 248.7792 262.5 252.6667 C274.9492 254.1552 274.9566 257.158 287.5 259.6667 C299.6633 262.0993 299.9856 261.3897 312.5 262.6667 C324.4694 263.888 324.5451 264.5654 336.5 264.6667 C383.2861 265.0632 405.9958 274.1418 430.5 263.6667 C446.2029 256.954 454.3775 236.8557 467.5 208.6667 C480.021 181.7697 485.8007 150.0649 484.5 147.6667 C483.8826 146.5284 458.1597 147.3226 435.5 149.6667 C431.165 150.1151 430.9565 152.8311 426.5 153.6667 C415.8157 155.67 414.678 153.603 403.5 155.6667 C382.5275 159.5385 382.1827 164.0998 361.5 165.6667 C317.9653 168.9648 315.7815 167.2342 271.5 165.6667 C260.1139 165.2636 259.5503 164.8239 248.5 161.6667 C214.4989 151.9521 213.9719 151.6906 180.5 139.6667 C162.6894 133.2687 161.4514 134.0603 145.5 124.6667 C117.3414 108.0844 118.1202 103.4628 90.5 86.6667 C82.2761 81.6656 80.1623 84.1216 71.5 79.6667 C63.1991 75.3976 61.9964 74.9132 55.5 68.6667 C49.7651 63.1524 45.5 54.6656 45.5 54.6667 C45.5 54.6686 49.6417 67.5666 55.5 78.6667 C58.8516 85.0171 62.4555 84.6905 64.5 90.6667 C68.2107 101.5134 64.5601 105.3394 68.5 116.6667 C71.9771 126.6634 77.7662 127.3263 80.5 136.6667 C82.9417 145.009 79.4357 147.556 80.5 157.6667 C81.3829 166.0542 84.5 174.6667 84.5 174.6667 "/>
<path id="1" d="M208.5 145.6667 C208.5 145.6667 225.392 136.6291 236.5 124.6667 C250.0389 110.0863 247.7759 106.3059 260.5 89.6667 C267.0515 81.0994 269.7246 82.3297 275.5 73.6667 C284.1631 60.6721 290.4258 44.5677 290.5 44.6667 C290.8877 45.1837 297.1395 87.5605 311.5 121.6667 C319.5915 140.8841 324.347 142.3907 338.5 158.6667 C343.2516 164.131 351.5 167.6667 351.5 167.6667 "/>
<path id="2" d="M300.5 49.6667 C300.5 49.6667 305.9845 55.9587 308.5 62.6667 C313.1576 75.087 310.1912 77.4761 315.5 89.6667 C323.2224 107.3996 324.864 107.6491 335.5 124.6667 C344.7925 139.5347 344.9612 141.8105 355.5 153.6667 C359.4802 158.1444 363.1481 156.895 367.5 160.6667 C369.4752 162.3785 370.5 166.6667 370.5 166.6667 "/>
<path id="3" d="M300.5 47.6667 C300.5 47.6667 294.4467 38.64 290.5 36.6667 C288.081 35.4572 281.8669 35.8648 280.5 37.6667 C260.0456 64.6293 252.8942 81.2937 224.5 123.6667 C220.5852 129.5088 220.5458 130.2516 215.5 134.6667 C209.0657 140.2967 200.7026 144.1601 200.5 144.6667 C200.4823 144.711 209.5 149.6667 209.5 149.6667 "/>
<path id="4" d="M101.5 240.6667 C101.5 240.6667 106.7494 249.6479 112.5 251.6667 C147.6043 263.9905 154.7012 269.2668 195.5 273.6667 C253.3249 279.9027 257.9339 270.0515 316.5 273.6667 C336.6435 274.9101 337.4071 281.5392 357.5 283.6667 C378.4696 285.887 382.1645 286.8808 401.5 282.6667 C417.8923 279.094 419.2726 275.4565 435.5 266.6667 C442.8847 262.6666 445.1786 261.5282 449.5 256.6667 C451.3826 254.5488 451.5 248.6667 451.5 248.6667 "/>
<path id="5" d="M62.5 314.6667 L100.5 314.6667 "/>
<path id="6" d="M147.5 324.6667 L202.5 324.6667 "/>
<path id="7" d="M270.5 329.6667 L290.5 337.6667 "/>
<path id="8" d="M355.5 339.6667 C355.5 339.6667 359.4185 342.6463 363.5 343.6667 C380.6195 347.9465 381.6724 349.3391 399.5 350.6667 C427.8123 352.775 457.5 350.6667 457.5 350.6667 "/>
<path id="9" d="M518.5 353.6667 L539.5 361.6667 "/>
<path id="10" d="M224.5 392.6667 C224.5 392.6667 229.5782 394.5631 234.5 394.6667 C276.1602 395.5437 319.5 394.6667 319.5 394.6667 "/>
<path id="11" d="M325.5 394.6667 C325.5 394.6667 333.6631 398.2979 341.5 398.6667 C374.9036 400.2386 410.5 398.6667 410.5 398.6667 "/>
<path id="12" d="M484.5 399.6667 L518.5 399.6667 "/>
<path id="13" d="M362.5 384.6667 L501.5 384.6667 "/>
<path id="14" d="M66.5 384.6667 C66.5 384.6667 76.4816 390.6317 86.5 392.6667 C107.3548 396.9028 108.5763 396.0546 130.5 397.6667 C142.3593 398.5387 154.5 397.6667 154.5 397.6667 "/>
<path id="15" d="M15.5 366.6667 C15.5 366.6667 64.7735 366.5455 105.5 368.6667 C108.2826 368.8116 111.5 371.6667 111.5 371.6667 "/>
<path id="16" d="M175.5 362.6667 L261.5 362.6667 "/>
</g>
</g>
</svg>
