<?xml version="1.0" encoding="utf-8"?>
<!DOCTYPE svg PUBLIC "-//W3C//DTD SVG 1.1//EN" "http://www.w3.org/Graphics/SVG/1.1/DTD/svg11.dtd">
<svg viewBox="0 0 800 800" preserveAspectRatio="xMinYMin meet" xmlns="http://www.w3.org/2000/svg" version="1.1">
<g fill="none" stroke="black" stroke-linecap="round" stroke-linejoin="round" stroke-width="1.9633">
<g transform="translate(87.52,295.3307) scale(1.528) translate(-98,-89)">
<path id="0" d="M153 168 C153 168 145.1785 171.2117 139 176 C125.5955 186.3885 125.0986 186.9014 113 199 C105.3458 206.6542 104.468 207.9803 99 216 C97.8296 217.7166 97.9517 220.9858 98 221 C101.7433 222.101 115.7182 225.7616 133 226 C187.187 226.7474 188.3074 226.1984 243 223 C273.4844 221.2173 274.0222 220.8877 304 216 C319.584 213.4591 319.7801 210.7058 335 208 C341.572 206.8316 342.2631 209.0014 349 208 C378.6591 203.5912 379.2081 203.102 409 197 C420.595 194.6251 420.8877 194.8651 432 191 C455.149 182.9482 478 173 478 173 "/>
<path id="1" d="M152 170 C152 170 156.8879 167.136 162 166 C245.5675 147.4295 247.6729 149.367 332 130 C351.7521 125.4636 351.4248 120.984 371 118 C431.8801 108.7195 464.4151 104.5286 496 105 C498.3343 105.0348 501.706 112.5136 505 120 C506.8902 124.296 506.898 125.1056 507 130 C507.3857 148.5113 508.2024 158.7497 506 168 C505.6462 169.486 501.494 171.1829 497 172 C480.494 175.0011 462 176 462 176 "/>
<path id="2" d="M334 158 C334 158 337.4989 176.6453 341 182 C342.0461 183.5999 350.9696 184.0825 351 184 C351.3591 183.0253 350.8199 167.5824 348 163 C346.3954 160.3925 337.9735 160.3363 335 158 C333.9963 157.2114 333.2175 153.0868 334 152 C338.8432 145.2733 342.8008 139.4526 353 133 C365.3599 125.1805 369.7897 128.9262 383 121 C403.5966 108.642 404.2354 100.685 423 91 C430.7895 86.9796 434.2739 88.5336 445 89 C468.1122 90.0049 480.7559 88.7795 492 94 C496.2745 95.9846 498.2724 104.5856 501 115 C503.5135 124.5969 502.6016 125.5089 503 136 C504.0971 164.8898 504.8145 167.5289 504 194 C503.9003 197.2386 502.1285 200.6709 501 201 C496.2995 202.371 490.2605 201.9328 480 201 C468.5846 199.9622 468.3885 199.4529 457 197 C403.4647 185.4693 350 173 350 173 "/>
</g>
</g>
</svg>
