<?xml version="1.0" encoding="utf-8"?>
<!DOCTYPE svg PUBLIC "-//W3C//DTD SVG 1.1//EN" "http://www.w3.org/Graphics/SVG/1.1/DTD/svg11.dtd">
<svg viewBox="0 0 800 800" preserveAspectRatio="xMinYMin meet" xmlns="http://www.w3.org/2000/svg" version="1.1">
<g fill="none" stroke="black" stroke-linecap="round" stroke-linejoin="round" stroke-width="2.1457">
<g transform="translate(87.52,307.724) scale(1.3981) translate(-119,-185.4167)">
<path id="0" d="M120 223.4167 L272 222.4167 "/>
<path id="1" d="M274 221.4167 C274 221.4167 279.6147 220.7493 284 218.4167 C302.4183 208.6197 302.2261 206.4741 321 196.4167 C329.9609 191.6162 330.4302 191.4243 340 188.4167 C347.5363 186.0481 348.0842 185.7936 356 185.4167 C379.047 184.3192 380.9547 182.2324 403 185.4167 C424.0498 188.4572 425.5859 190.0469 446 198.4167 C474.9252 210.276 503 226.4167 503 226.4167 "/>
<path id="2" d="M504 226.4167 C504 226.4167 521.7045 228.3083 534 226.4167 C538.067 225.791 538.6365 221.9439 543 220.4167 C547.4618 218.8551 554 219.4167 554 219.4167 "/>
<path id="3" d="M119 225.4167 C119 225.4167 129.8717 246.5106 142 263.4167 C145.3768 268.1237 148.6931 266.9426 152 271.4167 C156.3345 277.281 154.5163 280.5879 159 286.4167 C163.6191 292.4214 167.3335 291.6521 172 297.4167 C174.8701 300.9621 173.3282 304.7449 176 307.4167 C179.4351 310.8518 188 313.4167 188 313.4167 "/>
<path id="4" d="M187 315.4167 C187 315.4167 281.6778 319.0364 374 317.4167 C394.2975 317.0606 394.4858 313.0058 415 311.4167 C465.1603 307.531 465.7042 309.9586 516 306.4167 C536.5209 304.9715 557 301.4167 557 301.4167 "/>
<path id="5" d="M554 302.4167 C554 302.4167 561.239 284.6354 563 267.4167 C565.5983 242.0108 563.6135 217.1496 563 214.4167 C562.9823 214.3377 552 218.4167 552 218.4167 "/>
<path id="6" d="M281 223.4167 C281 223.4167 293.5535 225.6135 303 223.4167 C313.0157 221.0874 315.7685 218.5613 324 213.4167 C325.8502 212.2603 325.1217 209.7314 327 208.4167 C333.7328 203.7037 337.5791 204.3088 344 199.4167 C346.512 197.5028 345.6423 194.4116 348 192.4167 C350.9425 189.9269 357 188.4167 357 188.4167 "/>
<path id="7" d="M384 186.4167 L386 225.4167 "/>
<path id="8" d="M275 222.4167 C275 222.4167 293.4619 223.5533 311 226.4167 C317.5328 227.4833 317.7669 230.3222 324 230.4167 C412.2823 231.7543 509 229.4167 509 229.4167 "/>
<path id="9" d="M385 190.4167 C385 190.4167 400.7686 190.1823 415 193.4167 C432.9632 197.4992 434.9953 197.7107 451 205.4167 C460.478 209.9801 459.5108 213.7232 469 219.4167 C481.5084 226.9217 496 232.4167 496 232.4167 "/>
<path id="10" d="M383 192.4167 L330 192.4167 "/>
<path id="11" d="M122 224.4167 C122 224.4167 150.042 243.1412 179 253.4167 C210.1236 264.4605 212.8236 265.6788 246 268.4167 C313.6603 274.0003 315.5934 269.996 385 270.4167 C397.9784 270.4953 398.1588 270.8125 411 269.4167 C443.9424 265.836 444.1513 262.4986 477 260.4167 C514.5017 258.0398 516.0089 261.6636 553 260.4167 C559.3766 260.2017 566 257.4167 566 257.4167 "/>
<path id="12" d="M120 225.4167 C120 225.4167 123.3828 231.3914 128 235.4167 C142.3404 247.9185 143.1095 248.492 159 259.4167 C166.7571 264.7497 167.2293 265.0059 176 268.4167 C193.8265 275.3492 195.086 273.5025 213 280.4167 C223.2668 284.3793 222.8181 286.8752 233 290.4167 C245.1805 294.6534 246.0162 294.6562 259 296.4167 C275.1108 298.6012 276.0382 295.9226 292 298.4167 C307.4527 300.8312 307.4639 304.412 323 306.4167 C368.607 312.3014 416 314.4167 416 314.4167 "/>
</g>
</g>
</svg>
