<?xml version="1.0" encoding="utf-8"?>
<!DOCTYPE svg PUBLIC "-//W3C//DTD SVG 1.1//EN" "http://www.w3.org/Graphics/SVG/1.1/DTD/svg11.dtd">
<svg viewBox="0 0 800 800" preserveAspectRatio="xMinYMin meet" xmlns="http://www.w3.org/2000/svg" version="1.1">
<g fill="none" stroke="black" stroke-linecap="round" stroke-linejoin="round" stroke-width="2.621">
<g transform="translate(87.52,318.7323) scale(1.1446) translate(-34,-244.4167)">
<path id="0" d="M36 244.4167 C36 244.4167 50.4009 257.4973 66 268.4167 C85.1655 281.8325 86.8052 280.0066 106 293.4167 C123.09 305.3563 121.8573 307.8124 139 319.4167 C153.9692 329.5497 154.6559 329.2446 171 337.4167 C194.5196 349.1764 219 359.4167 219 359.4167 "/>
<path id="1" d="M34 245.4167 C34 245.4167 39.251 250.1438 45 252.4167 C60.0134 258.3522 60.9494 258.9596 77 262.4167 C92.9133 265.8441 93.8061 263.3235 110 266.4167 C138.0497 271.7745 137.8603 274.5867 166 279.4167 C204.5221 286.0287 214.5342 282.6429 244 289.4167 C248.1461 290.3698 248.217 295.6966 253 299.4167 C256.4526 302.1021 257.6164 302.8322 262 303.4167 C278.6762 305.6402 280.2184 303.5017 298 305.4167 C312.5032 306.9786 312.6057 309.0587 327 310.4167 C338.7218 311.5225 339.3282 309.0524 351 310.4167 C377.2868 313.4892 377.5961 317.3997 404 319.4167 C448.8297 322.8412 472.6171 314.3044 495 321.4167 C501.3918 323.4477 511 353.4167 511 353.4167 "/>
<path id="2" d="M221 361.4167 C221 361.4167 247.6721 359.4269 274 360.4167 C313.8806 361.9159 314.52 362.3881 354 366.4167 C363.0154 367.3366 363.1408 369.9998 372 370.4167 C404.6347 371.9524 406.0418 372.1155 439 370.4167 C453.8842 369.6494 454.0681 366.3905 469 365.4167 C499.5596 363.4237 530.942 364.4251 531 364.4167 C531.0123 364.4149 522.3032 362.0451 517 358.4167 C514.1326 356.4548 512 351.4167 512 351.4167 "/>
<path id="3" d="M491 295.4167 C491 295.4167 496.1233 316.2419 500 318.4167 C505.6639 321.594 518.7056 320.7801 532 318.4167 C537.9917 317.3515 544.6147 312.4073 545 310.4167 C545.793 306.3194 540.6813 288.7917 538 287.4167 C533.6543 285.1881 520.7941 287.4578 506 290.4167 C499.5559 291.7055 493 296.4167 493 296.4167 "/>
<path id="4" d="M519 319.4167 L534 345.4167 "/>
<path id="5" d="M545 314.4167 C545 314.4167 542.4899 327.9899 545 338.4167 C548.465 352.8098 558 368.4167 558 368.4167 "/>
<path id="6" d="M537 346.4167 L552 370.4167 "/>
<path id="7" d="M559 367.4167 C559 367.4167 558.3004 361.4661 559 360.4167 C559.5997 359.5171 564.6538 358.1474 565 358.4167 C565.7788 359.0224 567.0999 366.8439 568 367.4167 C568.6939 367.8582 573.7768 365.2146 576 365.4167 C576.9306 365.5013 578.5243 366.9895 579 368.4167 C580.11 371.7467 580.4926 376.5956 580 377.4167 C579.695 377.9249 573.3385 377.9089 573 378.4167 C572.562 379.0737 574.2404 385.7755 574 386.4167 C573.9527 386.5428 570.9668 386.9001 570 386.4167 C569.154 385.9937 568.1795 384.7633 568 383.4167 C567.3404 378.47 568.6 372.6167 568 371.4167 C567.85 371.1167 562.5192 371.7628 562 371.4167 C561.7692 371.2628 562 367.4167 562 367.4167 "/>
<path id="8" d="M554 371.4167 L564 375.4167 "/>
<path id="9" d="M505 321.4167 L505 322.4167 "/>
<path id="10" d="M133 266.4167 C133 266.4167 129.9982 268.4149 130 268.4167 C130.0088 268.4255 132.8836 269.0214 135 268.4167 C139.2933 267.19 139.4979 265.1929 144 264.4167 C167.2473 260.4085 168.7206 262.3406 193 258.4167 C218.0794 254.3634 239.2929 247.181 243 248.4167 C243.7944 248.6815 241.8186 262.8734 244 275.4167 C245.623 284.7489 251 294.4167 251 294.4167 "/>
<path id="11" d="M496 319.4167 L503 312.4167 "/>
<path id="12" d="M247 290.4167 L257 277.4167 "/>
<path id="13" d="M254 269.4167 L261 287.4167 "/>
<path id="14" d="M36 245.4167 C36 245.4167 42.7154 244.5465 49 245.4167 C74.741 248.9808 75.0534 251.774 101 254.4167 C128.5583 257.2235 157 256.4167 157 256.4167 "/>
<path id="15" d="M146 258.4167 L171 257.4167 "/>
<path id="16" d="M246 260.4167 C246 260.4167 284.3103 262.6455 320 270.4167 C345.1596 275.895 344.9056 280.2468 370 287.4167 C383.0047 291.1323 383.9324 289.0738 397 292.4167 C405.1028 294.4895 404.9734 297.0615 413 298.4167 C442.3368 303.3696 452.1562 298.7179 474 305.4167 C480.5402 307.4223 488 321.4167 488 321.4167 "/>
<path id="17" d="M394 293.4167 L413 320.4167 "/>
</g>
</g>
</svg>
