<?xml version="1.0" encoding="utf-8"?>
<!DOCTYPE svg PUBLIC "-//W3C//DTD SVG 1.1//EN" "http://www.w3.org/Graphics/SVG/1.1/DTD/svg11.dtd">
<svg viewBox="0 0 800 800" preserveAspectRatio="xMinYMin meet" xmlns="http://www.w3.org/2000/svg" version="1.1">
<g fill="none" stroke="black" stroke-linecap="round" stroke-linejoin="round" stroke-width="2.2705">
<g transform="translate(87.52,131.7825) scale(1.3213) translate(-148,-7.1333)">
<path id="0" d="M239 279.1333 C239 279.1333 231.0307 270.7517 225 267.1333 C223.2932 266.1093 220.6869 266.1411 219 267.1333 C214.2536 269.9253 209.3059 272.8596 208 277.1333 C205.4588 285.4498 205.2213 293.6393 208 303.1333 C209.9785 309.8932 214.6156 313.5991 220 318.1333 C221.7143 319.5769 225.2959 320.0629 227 319.1333 C232.8325 315.952 239.4441 311.7563 242 306.1333 C244.5793 300.4588 243.2561 294.926 242 286.1333 C241.4617 282.365 238 278.1333 238 278.1333 "/>
<path id="1" d="M440 246.1333 C440 246.1333 436.1929 241.9316 433 241.1333 C427.9688 239.8755 426.3711 240.6236 420 241.1333 C414.0406 241.6101 412.9179 240.9476 408 243.1333 C400.5808 246.4308 398.4249 247.2911 393 253.1333 C386.6035 260.0219 384.3933 262.5574 382 271.1333 C379.1286 281.4225 380.4563 283.9006 381 296.1333 C381.4386 306.0023 381.4154 306.6563 384 316.1333 C387.2844 328.1762 387.6083 328.8107 393 340.1333 C397.4296 349.4354 398.2802 349.2937 404 358.1333 C409.2643 366.2691 408.8711 366.8182 415 374.1333 C424.1769 385.0864 425.2396 387.5769 435 395.1333 C438.5863 397.9099 443.3461 399.3756 446 398.1333 C459.1928 391.958 465.5764 386.2722 482 373.1333 C487.2204 368.957 487.8992 368.0248 491 362.1333 C497.4609 349.8577 500.1879 347.8181 502 335.1333 C504.2651 319.2774 502.6361 315.9386 500 299.1333 C498.8428 291.7561 498.2075 290.2828 494 284.1333 C485.9211 272.3257 484.9446 270.6187 474 261.1333 C463.3477 251.9013 449 245.1333 449 245.1333 "/>
<path id="2" d="M238 277.1333 C238 277.1333 290.3284 278.7744 298 276.1333 C299.0025 275.7882 297.6559 265.542 299 256.1333 C299.5624 252.1964 299.8017 251.3575 302 248.1333 C306.8542 241.0138 308.7682 235.389 314 234.1333 C335.7853 228.9048 347.9743 235.9943 377 230.1333 C397.2121 226.052 397.4728 219.9757 418 213.1333 C428.2636 209.7121 429.0913 209.9267 440 209.1333 C456.1495 207.9588 457.0598 208.0707 473 209.1333 C478.893 209.5262 479.4887 209.8369 485 212.1333 C497.0626 217.1594 498.4279 216.9972 509 224.1333 C517.6043 229.9412 519.397 230.929 525 239.1333 C532.3898 249.9541 533.7504 252.3672 537 265.1333 C540.3004 278.0992 539 294.1333 539 294.1333 "/>
<path id="3" d="M444 206.1333 C444 206.1333 442.5608 202.2074 443 199.1333 C443.9332 192.6009 446.5287 191.9668 447 185.1333 C448.4525 164.0718 447 141.1333 447 141.1333 "/>
<path id="4" d="M254 271.1333 C254 271.1333 260.7776 245.4914 267 242.1333 C278.445 235.9567 317 237.1333 317 237.1333 "/>
<path id="5" d="M261 249.1333 C261 249.1333 251.3165 250.0194 246 249.1333 C244.7595 248.9266 243.709 247.693 243 246.1333 C241.5525 242.9489 241 241.9676 241 238.1333 C241 217.0449 239.0864 206.3347 243 194.1333 C244.2108 190.3584 250.4692 187.9574 258 185.1333 C265.4284 182.3477 266.5447 182.6235 275 182.1333 C300.63 180.6475 327 181.1333 327 181.1333 "/>
<path id="6" d="M399 226.1333 C399 226.1333 385.4093 229.3448 378 235.1333 C371.7884 239.9862 370.164 243.0255 367 251.1333 C362.7978 261.9015 363.5263 263.6687 362 276.1333 C360.5625 287.873 361 300.1333 361 300.1333 "/>
<path id="7" d="M386 232.1333 L411 219.1333 "/>
<path id="8" d="M329 180.1333 C329 180.1333 327.9086 172.0445 329 167.1333 C329.4944 164.9086 332.3057 164.3898 333 162.1333 C333.8914 159.2361 333.9723 157.2446 333 154.1333 C331.8378 150.4144 328.5718 149.7926 328 146.1333 C326.4373 136.1322 328 122.1333 328 122.1333 "/>
<path id="9" d="M272 108.1333 L273 181.1333 "/>
<path id="10" d="M267 111.1333 L267 184.1333 "/>
<path id="11" d="M267 38.1333 C267 38.1333 260.7372 37.3436 258 39.1333 C250.2138 44.2243 244.9038 48.2442 241 55.1333 C238.8679 58.8959 239.7448 64.3638 241 69.1333 C241.5662 71.285 246.1495 73.1617 246 74.1333 C245.2091 79.274 239.2334 85.3622 237 95.1333 C235.666 100.9694 236.0024 105.6375 238 109.1333 C239.8214 112.3207 243.6952 114.4358 249 116.1333 C254.7375 117.9693 262.6143 117.519 263 117.1333 C263.267 116.8663 259.7785 105.2662 260 105.1333 C261.2129 104.4056 274.7378 107.1989 283 105.1333 C286.9515 104.1455 288.7122 101.5816 292 97.1333 C296.6927 90.7844 297.931 88.6358 300 82.1333 C300.7879 79.657 300.1373 77.6355 299 75.1333 C298.1123 73.1805 294.9073 71.9214 295 71.1333 C295.36 68.0731 299.8888 64.134 301 58.1333 C302.0879 52.2587 302.2388 48.1313 300 44.1333 C297.1891 39.1139 293.1367 36.64 287 33.1333 C284.2726 31.5748 279 32.1333 279 32.1333 "/>
<path id="12" d="M271 52.1333 C271 52.1333 268.3029 51.7395 268 52.1333 C265.5867 55.2706 263.6072 59.174 261 65.1333 C260.5131 66.2464 260.8968 68.1024 261 68.1333 C262.1468 68.4774 270.9416 67.958 271 68.1333 C271.2338 68.8346 265.9632 82.6177 266 83.1333 C266.0014 83.1535 270.1757 83.2943 272 82.1333 C274.4241 80.5907 274.8199 79.2823 277 76.1333 C279.251 72.8819 280.6025 71.7168 281 69.1333 C281.2971 67.2022 279 63.1333 279 63.1333 "/>
<path id="13" d="M329 7.1333 C329 7.1333 325.3269 7.0477 324 8.1333 C321.1388 10.4743 318.6864 13.0446 318 16.1333 C317.2973 19.2956 318.9173 25.36 320 26.1333 C321.421 27.1484 331.9509 26.0547 332 26.1333 C332.0237 26.1713 326.5161 30.3431 325 34.1333 C323.2593 38.4851 323.4325 45.3766 324 46.1333 C324.3784 46.6378 330.0571 47.3879 334 46.1333 C339.6097 44.3484 344.2423 41.69 346 39.1333 C346.9581 37.7397 343.9866 32.7393 345 30.1333 C346.4253 26.4682 352.0484 24.6226 353 21.1333 C354.0599 17.2469 352.373 9.145 351 8.1333 C348.8968 6.5836 334 7.1333 334 7.1333 "/>
<path id="14" d="M329 120.1333 C329 120.1333 327.2993 109.3953 327 109.1333 C326.9356 109.077 323.7706 112.3417 321 113.1333 C317.8969 114.0199 316.4705 113.9499 313 113.1333 C308.6874 112.1186 305.1001 110.8447 304 109.1333 C302.8758 107.3845 302.5552 101.4209 304 99.1333 C306.3952 95.3409 309.7343 93.2662 316 90.1333 C323.9745 86.1461 324.9877 85.8231 334 84.1333 C348.4019 81.433 349.0527 81.3971 364 81.1333 C433.6313 79.9045 465.1851 76.2493 504 81.1333 C507.7126 81.6005 512.6073 91.5197 515 100.1333 C516.8141 106.6641 516.2705 114.9411 514 117.1333 C508.9644 121.9953 499.3464 125.7919 486 128.1333 C473.1465 130.3883 465.6297 124.5444 457 127.1333 C452.5198 128.4774 446 140.1333 446 140.1333 "/>
<path id="15" d="M328 109.1333 C328 109.1333 347.0177 106.6796 366 106.1333 C416.353 104.6843 457.5251 103.5063 467 105.1333 C467.1025 105.1509 465 123.1333 465 123.1333 "/>
<path id="16" d="M441 299.1333 C441 299.1333 435.1708 294.7254 433 294.1333 C432.431 293.9781 430.0915 295.4017 430 296.1333 C428.8399 305.414 428.3156 311.7604 429 326.1333 C429.2775 331.9602 429.9751 333.7943 432 338.1333 C432.7354 339.7092 433.9813 340.4604 436 341.1333 C440.7104 342.7035 443.8407 343.7257 447 343.1333 C448.7655 342.8023 450.8773 340.8105 452 338.1333 C456.6439 327.0595 457.0277 324.7655 460 312.1333 C460.8528 308.5089 460.9255 307.4651 460 304.1333 C458.6825 299.3902 457.3026 295.4664 455 294.1333 C451.8887 292.3321 441 293.1333 441 293.1333 "/>
<path id="17" d="M222 282.1333 C222 282.1333 215.3749 287.9086 213 293.1333 C211.1974 297.0991 211.5878 303.8162 212 304.1333 C212.7309 304.6956 224.4788 304.3503 226 303.1333 C227.0073 302.3275 227.9956 295.7175 227 292.1333 C226.1953 289.2363 221 285.1333 221 285.1333 "/>
<path id="18" d="M148 260.1333 C148 260.1333 148.8791 264.099 151 266.1333 C171.6699 285.9596 175.4062 286.3544 197 307.1333 C201.2005 311.1753 199.7603 313.8358 204 317.1333 C216.3365 326.7284 218.449 327.8579 233 335.1333 C239.5096 338.3881 240.5376 338.3042 248 339.1333 C266.9512 341.239 271.2251 335.5358 287 341.1333 C312.8217 350.2959 313.3331 358.6738 341 372.1333 C368.3097 385.4191 369.5591 387.425 398 395.1333 C421.2202 401.4267 423.8392 396.1914 448 401.1333 C467.0799 405.036 469.1141 412.523 486 413.1333 C505.6279 413.8428 508.5054 407.7194 531 404.1333 C542.7809 402.2552 543.1745 401.8377 555 402.1333 C582.6998 402.8258 585.3124 402.6305 611 406.1333 C615.8526 406.795 621 411.1333 621 411.1333 "/>
<path id="19" d="M351 125.1333 C351 125.1333 346.5493 133.8706 345 142.1333 C343.7179 148.9715 346.5999 151.1908 345 157.1333 C343.6257 162.2378 338 168.1333 338 168.1333 "/>
<path id="20" d="M354 126.1333 C354 126.1333 354.6674 130.1815 356 131.1333 C359.7245 133.7937 367.8415 135.9521 368 136.1333 C368.0141 136.1494 364.5706 137.3664 363 139.1333 C361.1715 141.1904 360.5694 142.2864 360 145.1333 C359.2236 149.0155 358.7622 151.6578 360 154.1333 C361.5129 157.159 364.469 160.2179 368 161.1333 C374.8354 162.9055 385.4063 162.5752 387 161.1333 C388.6097 159.677 390.4875 148.5083 389 142.1333 C387.9486 137.6273 383.8699 132.9841 380 131.1333 C376.2009 129.3164 366 131.1333 366 131.1333 "/>
<path id="21" d="M377 140.1333 L383 143.1333 "/>
<path id="22" d="M377 149.1333 L372 154.1333 "/>
<path id="23" d="M380 152.1333 C380 152.1333 386.9878 160.112 387 160.1333 C387.0028 160.1382 384 159.1333 384 159.1333 "/>
<path id="24" d="M372 145.1333 L369 145.1333 "/>
<path id="25" d="M366 156.1333 C366 156.1333 364.5066 162.9262 365 166.1333 C365.1735 167.2608 367.5629 167.8219 368 169.1333 C368.6557 171.1004 368 175.1333 368 175.1333 "/>
<path id="26" d="M408 136.1333 C408 136.1333 407.5351 166.1124 405 172.1333 C404.4915 173.3409 397.2116 172.2133 392 174.1333 C389.0248 175.2295 387.7941 176.2429 386 179.1333 C379.5328 189.5526 376.9727 191.7379 374 203.1333 C371.5894 212.3738 374 225.1333 374 225.1333 "/>
</g>
</g>
</svg>
