<?xml version="1.0" encoding="utf-8"?>
<!DOCTYPE svg PUBLIC "-//W3C//DTD SVG 1.1//EN" "http://www.w3.org/Graphics/SVG/1.1/DTD/svg11.dtd">
<svg viewBox="0 0 800 800" preserveAspectRatio="xMinYMin meet" xmlns="http://www.w3.org/2000/svg" version="1.1">
<g fill="none" stroke="black" stroke-linecap="round" stroke-linejoin="round" stroke-width="1.6129">
<g transform="translate(87.52,152.62) scale(1.86) translate(-49,-151.1333)">
<path id="0" d="M106 252.1333 C106 252.1333 225.6055 260.1474 236 252.1333 C242.3063 247.2712 230.5904 156.4835 237 151.1333 C246.0164 143.6073 350.5909 143.8086 357 151.1333 C365.2479 160.5595 358.1794 223.0597 356 287.1333 C355.8216 292.3785 352.4893 298.0518 352 298.1333 C350.9376 298.3104 345.0687 292.8146 338 290.1333 C331.3033 287.5932 330.4095 287.4977 323 287.1333 C300.4989 286.0267 299.2589 285.982 277 287.1333 C271.1183 287.4376 270.1161 287.6776 265 290.1333 C258.4069 293.298 257.3625 294.0146 252 299.1333 C246.9197 303.9827 246.0372 305.3626 243 311.1333 C241.6342 313.7283 242.1338 314.6545 242 318.1333 C241.6388 327.5242 240.9542 327.8957 242 337.1333 C243.9088 353.994 243.0363 355.6908 248 371.1333 C251.5723 382.247 253.0239 384.2039 260 393.1333 C264.4817 398.8699 266.1039 399.2432 273 403.1333 C285.1228 409.9718 286.3307 412.5627 299 415.1333 C318.3398 419.0573 322.1871 417.8671 342 417.1333 C347.1455 416.9428 348.6587 416.184 353 413.1333 C366.0325 403.9753 370.4884 402.3048 379 391.1333 C384.0022 384.5679 383.4934 380.9265 385 371.1333 C386.3682 362.2402 386.7131 360.8699 385 352.1333 C381.9381 336.5175 380.8771 335.3446 375 320.1333 C372.5903 313.8965 372.3484 312.6557 368 308.1333 C360.7318 300.5744 350 294.1333 350 294.1333 "/>
<path id="1" d="M279 303.1333 C279 303.1333 274.4061 303.5293 272 305.1333 C269.4014 306.8657 268.8056 307.8833 267 311.1333 C261.5375 320.9658 257.9663 322.7922 257 332.1333 C255.3955 347.6434 257.5036 352.3504 261 369.1333 C262.1321 374.5675 263.3156 376.0155 267 380.1333 C271.0161 384.6219 272.2471 385.2569 278 388.1333 C285.6705 391.9686 286.5658 392.0975 295 394.1333 C300.5965 395.4842 301.8124 393.6512 307 395.1333 C311.4034 396.3914 311.8647 399.7026 316 400.1333 C332.9395 401.8979 337.5817 401.2945 355 400.1333 C357.7691 399.9487 359.5619 399.1467 361 397.1333 C367.9087 387.4612 371.8942 383.8909 375 372.1333 C378.0302 360.6618 377.508 356.1718 375 344.1333 C373.022 334.6387 371.0512 332.7059 365 324.1333 C359.6591 316.5671 358.4768 316.0632 351 310.1333 C344.4065 304.904 343.603 304.6424 336 301.1333 C331.084 298.8644 330.4264 298.5763 325 298.1333 C306.6232 296.6332 300.3896 295.8878 287 297.1333 C285.0696 297.3129 282 302.1333 282 302.1333 "/>
<path id="2" d="M305 332.1333 C305 332.1333 300.6381 334.9639 300 337.1333 C298.8167 341.1566 298.8535 347.2225 300 349.1333 C300.8025 350.4709 307.1407 352.5318 309 352.1333 C310.3985 351.8337 313.2096 348.8206 314 346.1333 C315.1638 342.1765 314.9976 338.8743 314 335.1333 C313.5405 333.4102 311.7485 332.0076 310 331.1333 C308.8343 330.5505 306 331.1333 306 331.1333 "/>
<path id="3" d="M303 317.1333 L303 319.1333 "/>
<path id="4" d="M285 332.1333 L287 335.1333 "/>
<path id="5" d="M292 356.1333 L293 358.1333 "/>
<path id="6" d="M318 361.1333 L323 363.1333 "/>
<path id="7" d="M326 346.1333 L328 343.1333 "/>
<path id="8" d="M322 326.1333 L322 323.1333 "/>
<path id="9" d="M108 253.1333 C108 253.1333 50.7444 249.9993 49 253.1333 C43.3694 263.2493 43.5888 347.9987 49 359.1333 C50.3411 361.8929 93.4917 362.0799 101 360.1333 C101.8546 359.9118 100.5601 349.8099 103 345.1333 C105.0101 341.2806 108.4917 338.4691 113 337.1333 C119.1955 335.2976 121.8374 336.173 130 337.1333 C138.3885 338.1202 139.9621 337.721 147 341.1333 C155.1077 345.0643 161.5446 348.0396 163 353.1333 C167.5292 368.9855 166.3532 384.1735 165 404.1333 C164.7763 407.4323 162.2607 410.2065 159 412.1333 C153.2384 415.5379 150.8219 415.983 143 417.1333 C134.587 418.3705 133.6896 417.9743 125 417.1333 C118.584 416.5124 115.7617 417.089 112 414.1333 C104.669 408.3733 99.1698 403.5026 97 395.1333 C93.7066 382.4304 98 360.1333 98 360.1333 "/>
<path id="10" d="M117 349.1333 C117 349.1333 129.1056 347.8414 137 350.1333 C142.1835 351.6382 147.1463 354.7843 148 358.1333 C151.4379 371.6206 151.4087 387.3276 150 401.1333 C149.779 403.2993 146.2388 406.2265 143 407.1333 C136.1791 409.0432 132.4065 409.4103 125 408.1333 C120.0002 407.2713 118.6183 405.5971 114 402.1333 C111.1694 400.0104 110.6625 399.2208 109 396.1333 C107.4552 393.2644 107.0932 392.4894 107 389.1333 C106.6172 375.3521 105.7709 372.5524 108 360.1333 C108.8462 355.4189 114 350.1333 114 350.1333 "/>
<path id="11" d="M124 379.1333 C124 379.1333 123.6926 374.3895 124 374.1333 C124.4426 373.7645 129.8383 373.8747 130 374.1333 C130.3179 374.642 129.8027 380.3272 129 382.1333 C128.7782 382.6324 126.188 383.2837 126 383.1333 C125.4874 382.7232 124 378.1333 124 378.1333 "/>
<path id="12" d="M125 367.1333 L125 364.1333 "/>
<path id="13" d="M134 370.1333 L138 369.1333 "/>
<path id="14" d="M139 385.1333 L142 386.1333 "/>
<path id="15" d="M128 390.1333 L128 394.1333 "/>
<path id="16" d="M118 386.1333 L117 387.1333 "/>
<path id="17" d="M118 376.1333 L117 371.1333 "/>
<path id="18" d="M166 353.1333 L242 353.1333 "/>
<path id="19" d="M226 258.1333 C226 258.1333 226.8865 301.9119 226 343.1333 C225.9161 347.0339 224 351.1333 224 351.1333 "/>
<path id="20" d="M240 327.1333 L228 327.1333 "/>
<path id="21" d="M228 335.1333 L239 335.1333 "/>
<path id="22" d="M228 343.1333 L240 343.1333 "/>
<path id="23" d="M226 349.1333 L240 349.1333 "/>
<path id="24" d="M67 265.1333 L67 286.1333 "/>
<path id="25" d="M76 268.1333 L76 283.1333 "/>
<path id="26" d="M87 270.1333 L87 278.1333 "/>
<path id="27" d="M65 249.1333 C65 249.1333 66.3581 205.5167 65 188.1333 C64.9245 187.1671 60.7893 186.3962 60 185.1333 C59.3557 184.1025 59.4065 182.1117 60 180.1333 C60.7003 177.7989 61.9821 175.5857 63 175.1333 C64.0829 174.652 68.9699 175.8474 69 176.1333 C70.3875 189.3147 71 251.1333 71 251.1333 "/>
<path id="28" d="M239 156.1333 L356 157.1333 "/>
<path id="29" d="M354 158.1333 C354 158.1333 355.661 202.8548 354 243.1333 C353.7623 248.8979 350.43 249.3285 350 255.1333 C348.5313 274.9607 350 297.1333 350 297.1333 "/>
<path id="30" d="M238 251.1333 C238 251.1333 283.3224 252.0224 326 251.1333 C329.9 251.0521 333.9129 249.743 334 249.1333 C335.6944 237.2723 337.0509 212.0605 335 188.1333 C334.6768 184.3624 331.7286 182.3292 328 179.1333 C325.5746 177.0544 324.1286 176.5803 321 176.1333 C318.112 175.7208 314.0014 177.1292 314 177.1333 C314 177.1333 319.8515 178.4092 320 179.1333 C321.7201 187.5187 324.485 205.5157 322 216.1333 C321.1128 219.924 314.7806 225.0217 309 226.1333 C293.8929 229.0385 281.5583 224.5205 270 226.1333 C268.5664 226.3334 266.5655 229.3056 266 232.1333 C264.4032 240.1175 265 251.1333 265 251.1333 "/>
</g>
</g>
</svg>
