<?xml version="1.0" encoding="utf-8"?>
<!DOCTYPE svg PUBLIC "-//W3C//DTD SVG 1.1//EN" "http://www.w3.org/Graphics/SVG/1.1/DTD/svg11.dtd">
<svg viewBox="0 0 800 800" preserveAspectRatio="xMinYMin meet" xmlns="http://www.w3.org/2000/svg" version="1.1">
<g fill="none" stroke="black" stroke-linecap="round" stroke-linejoin="round" stroke-width="1.9825">
<g transform="translate(87.52,150.3186) scale(1.5132) translate(-68,-99.1333)">
<path id="0" d="M168 319.1333 C168 319.1333 168.5363 316.7845 168 316.1333 C163.4364 310.5918 161.1145 307.8927 154 302.1333 C151.3521 299.9898 150.2378 299.3566 147 299.1333 C137.1473 298.4538 134.8923 297.7678 125 300.1333 C113.2608 302.9405 111.7939 304.1367 101 310.1333 C94.5886 313.6952 93.6063 314.4641 89 320.1333 C81.216 329.7137 79.7248 330.8839 75 342.1333 C69.7567 354.6174 69.701 356.5251 68 370.1333 C66.8292 379.5 66.405 382.1322 69 390.1333 C71.626 398.2302 73.953 400.1793 80 407.1333 C83.1472 410.7526 84.7731 412.3819 89 413.1333 C104.2655 415.8472 109.3102 416.6715 125 415.1333 C131.8739 414.4594 133.3474 412.505 140 408.1333 C150.3571 401.3272 152.2679 401.037 160 392.1333 C167.7139 383.2507 167.8887 381.2578 173 370.1333 C176.0766 363.4371 176.2812 362.5007 177 355.1333 C178.2143 342.687 179.3644 339.379 177 329.1333 C175.6289 323.1921 168 316.1333 168 316.1333 "/>
<path id="1" d="M404 283.1333 C404 283.1333 395.163 283.3304 388 286.1333 C373.0394 291.9875 370.5804 291.94 358 301.1333 C346.0811 309.8433 345.1591 311.8409 336 324.1333 C326.7178 336.591 326.1842 338.3906 320 352.1333 C317.7336 357.1697 318 358.2822 318 364.1333 C318 380.7116 316.2376 384.1589 320 398.1333 C322.3127 406.7234 325.1429 410.1334 332 416.1333 C339.1042 422.3495 341.9958 422.882 352 426.1333 C361.0253 429.0666 362.0565 428.5119 372 429.1333 C385.7917 429.9953 386.9881 430.6824 400 429.1333 C406.7825 428.3259 408.9408 428.0542 414 424.1333 C427.0619 414.0104 431.9039 411.6997 440 398.1333 C448.3005 384.2244 447.9261 379.7384 451 362.1333 C453.1887 349.5983 452.4536 347.9252 451 335.1333 C450.0542 326.81 449.4666 325.9331 446 318.1333 C441.6919 308.44 441.2377 307.6393 435 299.1333 C430.606 293.1415 429.7794 293.2459 424 288.1333 C416.8588 281.8161 414.9601 279.1134 409 276.1333 C407.1552 275.2109 402 277.1333 402 277.1333 "/>
<path id="2" d="M325 336.1333 C325 336.1333 324.2708 323.8831 325 315.1333 C325.11 313.8139 325.7891 313.1929 327 312.1333 C329.4873 309.9569 330.7943 310.5841 333 308.1333 C339.2885 301.1461 337.8993 297.9191 345 292.1333 C363.382 277.1554 367.8322 268.8813 387 264.1333 C413.1464 257.6567 449.4248 260.763 454 265.1333 C458.0516 269.0036 454 328.1333 454 328.1333 C454 328.1333 454.5455 325.7122 454 325.1333 C436.6959 306.7698 421.7829 285.8855 405 276.1333 C400.3396 273.4252 380 282.1333 380 282.1333 "/>
<path id="3" d="M382 290.1333 L383 285.1333 "/>
<path id="4" d="M400 289.1333 L402 282.1333 "/>
<path id="5" d="M323 330.1333 C323 330.1333 278.4379 327.0281 234 326.1333 C204.079 325.5309 174 327.1333 174 327.1333 "/>
<path id="6" d="M78 329.1333 C78 329.1333 70.0721 329.3716 69 329.1333 C68.9471 329.1216 68.7474 328.0174 69 327.1333 C72.5725 314.6297 72.0338 313.5489 77 301.1333 C81.8982 288.8879 85.0231 289.2851 89 277.1333 C93.6941 262.7902 93.464 261.4932 95 246.1333 C96.4096 232.0373 93.6703 217.7437 95 217.1333 C101.0474 214.3575 127.1749 214.2154 156 218.1333 C176.6358 220.9382 176.8738 225.6347 198 231.1333 C213.1576 235.0784 213.6728 236.3733 229 237.1333 C273.0755 239.3189 303.0926 238.8624 319 237.1333 C319.5456 237.074 319.0513 231.5621 321 227.1333 C340.4293 182.9759 346.0184 146.261 363 137.1333 C384.7684 125.4328 477.4234 136.444 481 141.1333 C484.525 145.755 453 255.1333 453 255.1333 "/>
<path id="7" d="M453 258.1333 C453 258.1333 393.4128 259.0369 337 256.1333 C327.1572 255.6267 319.2907 253.1829 317 251.1333 C316.0887 250.3179 318 239.1333 318 239.1333 "/>
<path id="8" d="M317 238.1333 C317 238.1333 336.3745 245.1578 356 250.1333 C371.6478 254.1004 372.0373 254.6484 388 256.1333 C414.5665 258.6046 442 258.1333 442 258.1333 "/>
<path id="9" d="M340 244.1333 C340 244.1333 357.5994 249.0742 375 250.1333 C414.3919 252.5311 455 251.1333 455 251.1333 "/>
<path id="10" d="M335 277.1333 L317 277.1333 "/>
<path id="11" d="M328 296.1333 L314 296.1333 "/>
<path id="12" d="M321 315.1333 L309 315.1333 "/>
<path id="13" d="M327 241.1333 C327 241.1333 332.342 233.1268 339 228.1333 C349.561 220.2126 363 214.1333 363 214.1333 "/>
<path id="14" d="M354 190.1333 C354 190.1333 353.6485 201.659 355 212.1333 C355.5733 216.5765 355.9252 218.1365 358 221.1333 C359.5272 223.3394 361.2294 224.3417 364 225.1333 C367.1031 226.0199 371.7785 225.5486 372 225.1333 C372.7785 223.6736 374.2475 214.7688 372 210.1333 C368.1406 202.1734 356 192.1333 356 192.1333 "/>
<path id="15" d="M360 216.1333 L363 204.1333 "/>
<path id="16" d="M363 219.1333 L371 219.1333 "/>
<path id="17" d="M365 216.1333 L361 222.1333 "/>
<path id="18" d="M372 250.1333 C372 250.1333 373.0157 232.4689 374 232.1333 C378.957 230.4434 403.4082 237.1085 416 235.1333 C419.252 234.6232 421.8516 230.0804 425 224.1333 C434.8918 205.4489 433.1248 202.055 443 184.1333 C445.7615 179.1217 450.3303 175.7296 452 175.1333 C452.4882 174.959 456.5683 177.493 457 179.1333 C458.2181 183.7621 459.3244 188.516 457 194.1333 C448.7978 213.9553 442.9118 215.6009 433 237.1333 C428.9101 246.0182 428 257.1333 428 257.1333 "/>
<path id="19" d="M126 243.1333 C126 243.1333 122.0604 246.8751 120 251.1333 C114.8307 261.8166 111 274.1333 111 274.1333 "/>
<path id="20" d="M141 252.1333 L124 289.1333 "/>
<path id="21" d="M160 249.1333 L143 282.1333 "/>
<path id="22" d="M145 214.1333 C145 214.1333 143.4154 202.8563 146 194.1333 C150.8956 177.6106 155.1689 176.9407 161 160.1333 C163.3343 153.4051 161.83 146.3034 163 145.1333 C163.7571 144.3762 174.9321 145.8888 175 146.1333 C175.236 146.983 170.195 154.5364 168 163.1333 C164.3459 177.4454 166.6248 178.634 163 193.1333 C159.7232 206.2407 154 219.1333 154 219.1333 "/>
<path id="23" d="M165 145.1333 C165 145.1333 163.7404 136.1106 165 128.1333 C166.6261 117.8346 168.386 108.627 171 107.1333 C175.1284 104.7742 189.3787 110.2576 200 108.1333 C204.7206 107.1892 206.2565 101.9794 211 99.1333 C212.157 98.4392 214.9795 99.0277 215 99.1333 C215.8292 103.4177 217.0085 129.8943 217 130.1333 C216.9992 130.1557 215.2857 127.4548 214 127.1333 C210.9144 126.3619 207.9441 128.4582 205 127.1333 C200.0768 124.9179 198.8437 120.6976 194 118.1333 C192.1565 117.1574 189.7485 117.2591 188 118.1333 C185.3772 119.4447 183.1305 121.4955 182 124.1333 C180.9449 126.5953 182.9616 128.7678 182 132.1333 C180.2314 138.3236 179.3104 141.3501 176 145.1333 C174.1861 147.2064 168 148.1333 168 148.1333 "/>
<path id="24" d="M184 127.1333 C184 127.1333 184.5625 140.4458 184 142.1333 C183.9375 142.3208 179 142.1333 179 142.1333 "/>
<path id="25" d="M194 103.1333 C194 103.1333 189.3728 104.2079 189 104.1333 C188.9689 104.1271 189.1544 102.2105 189 102.1333 C187.6105 101.4386 182.7708 99.6906 181 100.1333 C179.7604 100.4432 177 105.1333 177 105.1333 "/>
<path id="26" d="M164 116.1333 C164 116.1333 161.3927 115.7406 161 116.1333 C159.8219 117.3114 158.5332 119.2893 158 122.1333 C157.1874 126.467 157.2891 129.2897 158 132.1333 C158.1955 132.9153 161 134.1333 161 134.1333 "/>
<path id="27" d="M210 104.1333 C210 104.1333 211.3076 102.2199 212 102.1333 C213.8079 101.9073 217.9 102.8083 218 103.1333 C218.4 104.4333 216 115.1333 216 115.1333 "/>
<path id="28" d="M224 110.1333 C224 110.1333 220.9943 108.1409 221 108.1333 C221.2897 107.7471 229.8927 102.0737 230 102.1333 C230.1157 102.1976 229.422 112.0736 230 113.1333 C230.172 113.4486 233.6087 112.3975 236 113.1333 C239.2804 114.1427 239.7251 116.7761 243 117.1333 C264.2351 119.4499 291 119.1333 291 119.1333 "/>
<path id="29" d="M222 118.1333 C222 118.1333 222.5422 129.8718 223 130.1333 C223.6242 130.49 230.8863 126.389 236 126.1333 C238.6537 126.0006 239.6833 128.849 243 129.1333 C255.7969 130.2302 271 129.1333 271 129.1333 "/>
<path id="30" d="M126 354.1333 C126 354.1333 119 357.1335 119 357.1333 C119 357.133 125.6958 352.1333 126 352.1333 C126.0435 352.1333 127.3301 356.3631 127 357.1333 C126.7318 357.7591 124.896 358.5916 123 359.1333 C121.7558 359.4888 120.0573 359.1906 120 359.1333 C119.9809 359.1142 121 357.1333 121 357.1333 "/>
<path id="31" d="M391 357.1333 C391 357.1333 391.9064 366.1695 391 368.1333 C390.607 368.9848 385.3222 370.187 385 370.1333 C384.9716 370.1286 384.5048 367.7701 385 367.1333 C386.8892 364.7043 391.8826 361.1501 392 361.1333 C392.0107 361.1318 392.4485 365.7845 392 366.1333 C390.7825 367.0803 383.5749 368.325 383 368.1333 C382.885 368.095 382.621 363.4176 383 363.1333 C383.8844 362.47 390.9999 362.1333 391 362.1333 C391 362.1334 384.5787 364.3503 384 364.1333 C383.7338 364.0335 383 359.1333 383 359.1333 C383 359.1334 385.9924 368.1333 386 368.1333 C386.0051 368.1333 388 359.1333 388 359.1333 "/>
<path id="32" d="M391 338.1333 C391 338.1333 392.9979 343.1347 393 343.1333 C393.0087 343.1275 394.1626 336.3773 394 336.1333 C393.9401 336.0434 389.8394 336.2939 389 337.1333 C387.8808 338.2525 386.9463 342.8111 387 343.1333 C387.0047 343.1618 389.9007 343.2988 390 343.1333 C390.2757 342.6738 390 338.1333 390 338.1333 "/>
<path id="33" d="M410 354.1333 C410 354.1333 407 359.1337 407 359.1333 C407 359.1327 410 351.9282 410 350.1333 C410 349.7345 407.0075 348.1233 407 348.1333 C406.6318 348.6243 404 358.1333 404 358.1333 "/>
<path id="34" d="M404 377.1333 C404 377.1333 399.0006 389.1324 399 389.1333 C398.9997 389.1337 400.0239 383.1572 400 383.1333 C399.9952 383.1285 396 386.1333 396 386.1333 C396 386.1333 398.5038 385.1258 399 384.1333 C399.9216 382.2902 400.0151 378.1394 400 378.1333 C399.9526 378.1144 394 382.1333 394 382.1333 "/>
<path id="35" d="M376 384.1333 C376 384.1333 372.9826 393.0812 373 393.1333 C373.0029 393.142 377.3692 391.3949 378 390.1333 C378.8028 388.5277 378 383.1333 378 383.1333 C377.9249 383.1333 371.035 390.1333 371 390.1333 C370.995 390.1333 372 383.1333 372 383.1333 "/>
<path id="36" d="M372 359.1333 C372 359.1333 371.9083 364.0646 372 364.1333 C372.0611 364.1792 375.479 363.1753 376 362.1333 C377.4326 359.268 378.0137 352.1561 378 352.1333 C377.9969 352.1281 374.0928 354.9477 373 357.1333 C372.2714 358.5904 373 362.1333 373 362.1333 C373 362.1333 373.0028 357.1347 373 357.1333 C373 357.1333 371 361.1333 371 361.1333 "/>
<path id="37" d="M134 338.1333 C134 338.1333 135.0151 340.129 135 340.1333 C134.7175 340.214 127.395 340.3026 127 340.1333 C126.9859 340.1273 127.5541 337.4008 128 337.1333 C128.6369 336.7512 131.6 336.9333 132 337.1333 C132.1 337.1833 132 339.1333 132 339.1333 C132 339.1333 132 337.1333 132 337.1333 "/>
<path id="38" d="M142 355.1333 C142 355.1333 142.24 358.8133 142 359.1333 C141.865 359.3133 139.0539 359.2143 139 359.1333 C138.9371 359.0389 139.8043 356.1529 140 356.1333 C141.3248 356.0009 148.9994 358.1331 149 358.1333 C149.0002 358.1334 145.4 358.3333 145 358.1333 C144.9 358.0833 145 356.1333 145 356.1333 "/>
<path id="39" d="M134 375.1333 C134 375.1333 134.1875 377.9458 134 378.1333 C133.8125 378.3208 131.1875 378.3208 131 378.1333 C130.8125 377.9458 130.9139 375.1764 131 375.1333 C131.2008 375.0329 134.9501 376.0585 135 376.1333 C135.0091 376.1469 133.0373 378.1582 133 378.1333 C132.5526 377.8351 129.0061 372.1272 129 372.1333 C128.9632 372.1702 127.8983 382.0147 128 383.1333 C128.0017 383.152 129.9882 383.1863 130 383.1333 C130.2382 382.0613 130 374.1333 130 374.1333 "/>
<path id="40" d="M118 374.1333 C118 374.1333 112 378.1333 112 378.1333 C112 378.1333 115.2714 376.5904 116 375.1333 C117.0928 372.9477 117.0008 368.1325 117 368.1333 C116.9984 368.135 112.076 379.0791 112 379.1333 C111.9865 379.143 109.9328 373.2453 110 373.1333 C110.028 373.0867 114.966 374.1786 115 374.1333 C115.0432 374.0757 113 369.1333 113 369.1333 "/>
<path id="41" d="M112 350.1333 C112 350.1333 112.2311 356.3244 112 357.1333 C111.9811 357.1994 110.0189 357.1994 110 357.1333 C109.7689 356.3244 110.0011 350.133 110 350.1333 C109.9974 350.1342 107.9649 354.2737 107 358.1333 C106.5589 359.8977 106.76 361.8133 107 362.1333 C107.135 362.3133 109.9418 362.2691 110 362.1333 C110.3168 361.3941 110.0259 355.198 110 355.1333 C109.9956 355.1222 108.0214 357.1333 108 357.1333 C108 357.1333 108 355.1333 108 355.1333 "/>
</g>
</g>
</svg>
