<?xml version="1.0" encoding="utf-8"?>
<!DOCTYPE svg PUBLIC "-//W3C//DTD SVG 1.1//EN" "http://www.w3.org/Graphics/SVG/1.1/DTD/svg11.dtd">
<svg viewBox="0 0 800 800" preserveAspectRatio="xMinYMin meet" xmlns="http://www.w3.org/2000/svg" version="1.1">
<g fill="none" stroke="black" stroke-linecap="round" stroke-linejoin="round" stroke-width="1.8337">
<g transform="translate(87.52,176.6831) scale(1.636) translate(-31,-100)">
<path id="0" d="M147 248 C147 248 139.7689 245.5867 136 247 C126.8216 250.4419 124.4294 253.0153 115 260 C111.5566 262.5506 110.6581 263.4765 109 267 C107.1532 270.9244 107.4501 272.0484 107 277 C106.4695 282.8358 105.8701 283.5118 107 289 C109.2072 299.7209 109.0459 301.3071 114 311 C120.0388 322.815 121.1223 325.1223 130 334 C136.1461 340.1461 138.8907 341.9727 147 344 C158.3322 346.833 163.7767 347.8625 174 345 C184.4069 342.0861 187.2667 338.1111 197 330 C201.2041 326.4966 201.3953 325.2094 204 320 C207.1835 313.633 208.0848 312.8642 209 306 C210.9428 291.4291 212.5307 287.6537 210 275 C208.2581 266.2903 205.226 262.7448 199 256 C194.9424 251.6043 192.2683 250.4328 186 249 C176.4564 246.8186 173.447 246.8191 164 248 C159.4115 248.5736 158.0892 250.0791 154 253 C151.7187 254.6295 150 258 150 258 "/>
<path id="1" d="M313 311 C313 311 305.5003 310.3177 305 311 C303.5331 313.0003 302.891 318.5753 302 326 C301.4199 330.8338 300.648 332.9581 302 336 C303.5623 339.5151 306.4902 342.7237 310 344 C314.5043 345.6379 319.4957 345.6379 324 344 C327.5098 342.7237 328.8157 340.3216 332 336 C335.5341 331.2037 336.586 330.1846 338 325 C339.2309 320.4868 339.37 317.7186 338 314 C336.6824 310.4237 333.9817 306.9541 331 306 C325.3859 304.2035 319.3472 304.846 313 306 C311.3331 306.3031 309 310 309 310 "/>
<path id="2" d="M235 253 C235 253 232.4643 246.3691 230 245 C226.318 242.9545 222.2562 245.1901 217 243 C211.5538 240.7308 211.0264 236.4893 206 235 C199.985 233.2178 193.9883 236.3959 190 235 C188.3922 234.4373 188.1666 229.9499 186 228 C184.3593 226.5233 182.8214 226 180 226 C146.1438 226 139.8239 228.7956 108 228 C104.4173 227.9104 101.9438 223.676 100 224 C97.0401 224.4933 92.3847 227.7481 90 231 C88.547 232.9814 88.2933 235.9965 89 239 C89.9262 242.9364 93.9653 247.6878 94 248 C94.0016 248.0145 90.0868 247.7918 90 248 C89.3536 249.5513 90.7313 256.5374 89 260 C87.6149 262.7701 81.4378 263.7482 81 266 C79.2728 274.8829 80.376 284.9569 82 296 C82.2472 297.6807 86.0556 299.3888 86 300 C85.8861 301.253 81.7982 303.8071 81 307 C79.7422 312.0312 79.4246 315.8646 81 320 C82.3388 323.5144 86.0028 323.5831 89 328 C95.1299 337.0335 94.4236 343.8177 100 348 C105.1474 351.8606 112.9299 348.6606 121 352 C125.0289 353.6671 126.6056 356.7077 129 360 C129.5198 360.7148 128.82 362.865 129 363 C129.32 363.24 132.125 362.3269 133 363 C136.6514 365.8087 138.0914 371.3006 142 373 C146.0996 374.7824 150.6854 374.1189 156 373 C158.2177 372.5331 158.7546 369.5988 161 369 C164.7012 368.013 167.5824 370.367 171 369 C175.5112 367.1955 176.4983 362.8954 181 361 C184.0306 359.7239 186.2888 360.2048 190 361 C192.3268 361.4986 194.1029 364.314 195 364 C199.2015 362.5295 205.7475 359.4675 210 354 C214.2525 348.5325 212.1517 343.3222 216 337 C218.0254 333.6725 222.2821 334.1496 224 331 C227.0139 325.4745 226.0982 317.0286 228 315 C228.993 313.9408 238.8638 315.395 239 315 C240.0291 312.0156 239.1455 300.1284 238 286 C237.6785 282.0346 237.7505 280.9175 236 278 C233.8689 274.4482 230.346 274.0766 229 271 C227.7961 268.2482 228.1807 263.5021 229 262 C229.48 261.12 234.0206 261.2242 235 260 C236.3826 258.2717 237 252 237 252 "/>
<path id="3" d="M291 354 C291 354 286.1098 353.4768 284 352 C282.3675 350.8572 281.0772 349.0842 281 347 C280.6689 338.0592 280.7752 334.2172 283 325 C283.8121 321.6354 287.7782 320.6619 288 318 C288.501 311.9884 284.5195 308.2078 285 301 C285.3814 295.2795 286.8713 290.5846 290 288 C294.5634 284.2302 299.4446 282.552 308 282 C328.4128 280.683 339.9849 280.8761 352 284 C354.3911 284.6217 356.7035 289.814 358 295 C359.3484 300.3935 357.1527 304.8225 358 308 C358.1999 308.7496 360.889 308.6327 362 310 C366.51 315.5508 370.1277 318.5918 371 324 C371.9233 329.7243 369.4652 339.3822 367 341 C362.0188 344.2689 349.9662 342.0092 339 345 C336.6012 345.6542 336.5934 348.4872 334 350 C331.3247 351.5606 328.5006 350.6661 327 352 C325.7463 353.1144 326.4838 356.1453 325 358 C323.282 360.1475 321.7432 361.4514 319 362 C313.3522 363.1296 309.2885 363.1912 305 362 C303.3493 361.5415 302.7089 357.9494 301 357 C299.7393 356.2996 296 357 296 357 "/>
<path id="4" d="M242 313 L283 313 "/>
<path id="5" d="M378 313 C378 313 399.8761 311.6033 410 309 C411.3137 308.6622 412.8012 306.253 413 304 C414.0951 291.5894 414.5234 288.9649 413 275 C411.5998 262.1646 410.5704 254.1771 407 249 C405.5008 246.8261 396.7247 247.4899 393 246 C392.4609 245.7844 392.6043 243.3021 392 243 C388.9786 241.4893 386.4194 240.409 381 240 C360.6887 238.4671 355.0626 241.57 339 239 C335.5254 238.4441 334.531 232.9154 331 232 C324.1646 230.2279 312.3017 232.8948 312 232 C307.791 219.5181 308.0589 188.4125 302 146 C300.6338 136.4364 300.9632 134.6932 297 127 C293.2929 119.8038 291.5976 118.4195 285 113 C278.4325 107.6053 277.1066 107.7415 269 104 C264.4207 101.8865 263.9517 101.6002 259 101 C247.9527 99.6609 247.3733 99.5326 236 100 C211.1498 101.0212 210.5749 100.5275 186 104 C164.9698 106.9717 164.8723 110.3579 144 113 C126.0368 115.2738 111.836 113.4772 107 114 C106.9577 114.0046 107.4197 116.5803 107 117 C105.4611 118.5389 101.2496 118.8757 100 121 C97.7272 124.8638 97.3206 127.5872 97 134 C95.3651 166.6978 101.4699 177.4794 96 201 C94.0947 209.1928 87.126 212.4704 77 220 C68.6139 226.2358 60.0072 225.7899 57 230 C54.7711 233.1204 56.0241 240.8431 57 248 C57.2391 249.7531 59.9083 250.3187 60 252 C61.1233 272.5937 58.6576 288.502 60 303 C60.0912 303.9844 62.6047 305.5437 65 306 C71.9608 307.3259 81 307 81 307 "/>
<path id="6" d="M138 205 C138 205 138.0167 180.9733 136 160 C135.6748 156.6175 133.1523 156.0465 133 153 C132.7252 147.5036 135 140 135 140 "/>
<path id="7" d="M141 142 C141 142 159.7279 132.3556 178 127 C187.528 124.2073 188.5241 125.4276 199 125 C212.9138 124.4321 213.3652 123.8638 227 125 C236.9014 125.8251 237.3197 128.56 247 129 C258.4681 129.5213 268.039 125.8611 271 127 C271.8432 127.3243 272.3978 132.9777 273 139 C276.8849 177.8491 283.5292 211.8061 280 217 C278.0356 219.891 249.2057 219.9206 220 217 C185.2939 213.5294 150 204 150 204 "/>
<path id="8" d="M56 259 C56 259 57.3681 238.3385 56 225 C55.7823 222.8775 53.6613 220.4886 52 220 C48.0521 218.8389 43.4872 218.9442 39 220 C37.2945 220.4013 35.08 223.44 35 224 C34.955 224.315 38.0637 226.83 38 227 C37.7536 227.6572 32.8581 229.8548 32 232 C30.8404 234.8989 31.1338 240.2675 32 242 C32.4331 242.8662 37.9542 243.8625 38 244 C38.0306 244.0917 34.9809 245.8982 34 248 C31.9268 252.4425 30.605 257.973 31 259 C31.2037 259.5296 38.2092 260.0115 39 261 C39.7531 261.9414 40.0236 266.7822 39 269 C38.0059 271.1538 33.6658 271.8917 33 274 C31.6481 278.2809 31.0269 282.8396 33 288 C36.5192 297.2041 45.2239 303.3433 46 308 C46.3034 309.8207 37.9691 317.9614 38 318 C38.1099 318.1374 47.2375 318.9661 54 318 C56.2944 317.6722 59 315 59 315 "/>
</g>
</g>
</svg>
