<?xml version="1.0" encoding="utf-8"?>
<!DOCTYPE svg PUBLIC "-//W3C//DTD SVG 1.1//EN" "http://www.w3.org/Graphics/SVG/1.1/DTD/svg11.dtd">
<svg viewBox="0 0 800 800" preserveAspectRatio="xMinYMin meet" xmlns="http://www.w3.org/2000/svg" version="1.1">
<g fill="none" stroke="black" stroke-linecap="round" stroke-linejoin="round" stroke-width="1.0561">
<g transform="translate(87.52,167.0604) scale(2.8407) translate(-107,-83)">
<path id="0" d="M161 202 C161 202 150.2478 202.8761 144 206 C140.3829 207.8086 137.4695 210.8077 137 214 C135.6635 223.0881 137.0359 230.1794 139 240 C139.3571 241.7856 140.8783 242.9391 143 244 C147.0666 246.0333 148.2643 246.549 153 247 C158.0207 247.4782 159.7936 247.8856 164 246 C172.5902 242.1492 178.6179 238.3769 182 234 C183.2045 232.4412 182.8786 227.3815 181 224 C176.5901 216.0623 174.4568 213.8603 167 207 C162.8439 203.1764 156 201 156 201 "/>
<path id="1" d="M282 164 C282 164 277.6618 161.5569 276 162 C272.7778 162.8593 269.2189 164.4965 267 168 C261.2474 177.0831 259.6884 180.269 257 192 C254.5225 202.8108 254.809 205.2813 256 216 C256.626 221.6336 257.7115 223.3022 261 228 C264.0339 232.3341 265.3263 232.7868 270 236 C272.9211 238.0082 273.6724 238.6672 277 239 C287.4841 240.0484 289.3296 240.2553 300 239 C305.3215 238.3739 306.905 238.0333 311 235 C319.1682 228.9495 322.7975 225.829 327 219 C328.626 216.3578 328.0928 212.2785 327 209 C326.2714 206.8143 323.3694 206.7958 322 204 C312.2006 183.9928 312.6439 178.1751 303 160 C301.4461 157.0714 299.2024 155.8896 296 155 C291.8008 153.8335 290.03 154.2058 285 155 C281.1252 155.6118 279.297 156.4687 277 158 C276.3109 158.4594 276 161 276 161 "/>
<path id="2" d="M108 161 L218 158 "/>
<path id="3" d="M107 162 C107 162 104.4062 213.0438 107 220 C107.4116 221.1038 129 221 129 221 "/>
<path id="4" d="M179 218 C179 218 187.5451 219.3046 195 218 C206.7531 215.9432 207.2355 212.7522 219 211 C229.8049 209.3908 242 211 242 211 "/>
<path id="5" d="M223 160 L229 160 "/>
<path id="6" d="M232 158 L234 85 "/>
<path id="7" d="M236 85 C236 85 241.5682 83.1278 247 83 C283.3854 82.1439 321 83 321 83 "/>
<path id="8" d="M321 84 C321 84 319.4133 98.6267 320 113 C321.402 147.3479 323.2011 149.1692 325 182 C325.1025 183.8697 324.118 185.9831 324 186 C323.5815 186.0598 318 183 318 183 "/>
<path id="9" d="M141 111 L144 153 "/>
<path id="10" d="M143 111 C143 111 154.9764 104.901 155 105 C155.3563 106.4965 153 153 153 153 "/>
<path id="11" d="M273 88 L277 141 "/>
<path id="12" d="M286 188 C286 188 283.154 199.6467 285 205 C286.7504 210.0762 293.095 216.3028 296 217 C298.6287 217.6309 307.9996 213.8005 310 211 C311.9646 208.2495 312.5144 199.0289 311 196 C309.6422 193.2845 304.801 190.6574 299 189 C292.2519 187.072 283 188 283 188 "/>
</g>
</g>
</svg>
