<?xml version="1.0" encoding="utf-8"?>
<!DOCTYPE svg PUBLIC "-//W3C//DTD SVG 1.1//EN" "http://www.w3.org/Graphics/SVG/1.1/DTD/svg11.dtd">
<svg viewBox="0 0 800 800" preserveAspectRatio="xMinYMin meet" xmlns="http://www.w3.org/2000/svg" version="1.1">
<g fill="none" stroke="black" stroke-linecap="round" stroke-linejoin="round" stroke-width="1.7665">
<g transform="translate(87.52,163.9417) scale(1.6983) translate(-30,-36)">
<path id="0" d="M121 237 C121 237 119.7492 233.3994 118 232 C115.651 230.1208 114.3431 229.4179 111 229 C103.2938 228.0367 101.5155 227.6579 94 229 C88.7423 229.9389 87.4393 231.0404 83 234 C80.7287 235.5142 80.222 236.3815 79 239 C76.9713 243.3472 76.3192 244.2114 76 249 C75.3761 258.3581 74.1223 262.2854 77 269 C79.9582 275.9024 83.9001 280.1622 91 284 C99.2543 288.4618 105.6976 289.8739 114 289 C119.8914 288.3799 122.1629 284.9725 129 280 C132.8369 277.2095 133.5129 276.5924 136 273 C137.5504 270.7606 137.8437 269.8909 138 267 C138.7931 252.3281 138.7624 248.9612 138 236 C137.9233 234.6965 137.1542 234.3191 136 233 C133.7219 230.3964 132.9476 228.2226 131 228 C120.5531 226.8061 101 229 101 229 "/>
<path id="1" d="M111 252 C111 252 106.1527 252.6183 106 253 C105.5623 254.0942 106.4134 261.4134 107 262 C107.3519 262.3519 113.725 261.5042 114 261 C114.5396 260.0106 113.9587 252.5065 113 251 C112.5657 250.3176 107 250 107 250 "/>
<path id="2" d="M104 205 C104 205 92.9581 201.7233 87 203 C82.4287 203.9796 81.1255 206.6838 76 211 C71.7414 214.5862 70.456 214.5793 68 219 C61.1584 231.3149 58.9023 233.8077 56 247 C53.9369 256.3776 54.5339 259.3599 57 269 C59.6104 279.2042 61.0361 281.4801 67 290 C70.557 295.0815 72.2942 296.2455 78 299 C85.5907 302.6645 87.1702 303.0802 96 304 C110.3026 305.4899 112.874 306.0882 126 304 C132.6127 302.948 134.4978 301.4018 140 297 C146.0075 292.194 149.476 290.1856 151 284 C156.5758 261.369 158.2096 249.1686 157 228 C156.6833 222.4579 152.6249 218.4195 147 214 C140.495 208.889 138.1204 209.219 129 206 C121.3739 203.3084 120.8799 202.8295 113 202 C102.443 200.8887 96.7165 201.5029 91 202 C90.695 202.0265 90 204 90 204 "/>
<path id="3" d="M102 202 C102 202 106.9224 213.8147 108 215 C108.0955 215.1051 112 213 112 213 "/>
<path id="4" d="M128 206 L135 222 "/>
<path id="5" d="M154 217 C154 217 155.3376 224.5413 154 229 C152.9076 232.6413 148 237 148 237 "/>
<path id="6" d="M158 252 L149 254 "/>
<path id="7" d="M152 273 L146 273 "/>
<path id="8" d="M132 305 L130 294 "/>
<path id="9" d="M102 304 L104 298 "/>
<path id="10" d="M81 296 L86 291 "/>
<path id="11" d="M61 277 L72 271 "/>
<path id="12" d="M64 250 L70 248 "/>
<path id="13" d="M58 254 L71 249 "/>
<path id="14" d="M67 224 C67 224 71.1757 223.8391 73 225 C75.4241 226.5426 78 231 78 231 "/>
<path id="15" d="M54 254 C54 254 40.5703 255.2008 39 254 C37.7499 253.0441 36.0718 246.4144 37 241 C38.7139 231.0023 39.9874 229.253 45 219 C50.7735 207.1906 50.7931 205.1724 59 196 C66.599 187.507 68.9565 187.2339 79 181 C82.722 178.6898 83.58 178.4653 88 178 C101.8093 176.5464 103.2275 175.4697 117 177 C133.633 178.8481 135.8969 179.63 151 185 C156.6751 187.0178 158.0444 188.4199 162 193 C166.7261 198.4724 166.3058 199.8755 170 207 C173.2795 213.3248 174.8217 213.5847 176 220 C179.0541 236.6278 180.4314 252.4693 179 256 C178.6586 256.8422 161 257 161 257 "/>
<path id="16" d="M30 109 C30 109 33.337 115.5595 34 122 C36.7341 148.5598 32.8257 159.1897 37 177 C37.8852 180.7769 43.3895 184.397 49 186 C57.9659 188.5617 72 187 72 187 "/>
<path id="17" d="M35 113 C35 113 40.3417 111.8392 42 113 C47.4014 116.781 52.7177 120.2872 55 127 C59.6291 140.615 56.4965 145.4756 59 163 C59.4303 166.012 59.5294 166.8992 61 169 C62.4904 171.1292 63.5006 172.2859 66 173 C75.8231 175.8066 77.5893 176.2518 89 177 C107.6399 178.2223 127 177 127 177 "/>
<path id="18" d="M35 113 C35 113 53.4586 112.2932 70 115 C79.901 116.6202 80.083 119.4408 90 122 C95.1199 123.3213 98.3208 121.6604 101 123 C102.3979 123.6989 103.4688 126.0786 104 129 C105.3132 136.2223 104.0979 144.158 105 145 C105.687 145.6412 113.5724 141.9145 119 143 C126.0239 144.4048 128.2139 146.0859 135 151 C141.9794 156.054 144.4988 157.9979 148 164 C149.9703 167.3777 149.8743 171.2844 149 175 C148.4172 177.4771 145.7454 180.1273 144 181 C143.0182 181.4909 139 180 139 180 "/>
<path id="19" d="M109 146 C109 146 97.6284 156.4501 86 162 C77.1234 166.2366 65 167 65 167 "/>
<path id="20" d="M180 138 C180 138 177.583 196.3449 179 221 C179.0742 222.2915 181.9526 224.0971 185 225 C194.4091 227.7879 195.6111 228.6263 206 229 C263.9959 231.0862 265.0013 229.6218 324 230 C342.9985 230.1218 343.8315 231.3976 362 230 C368.8408 229.4738 376 226 376 226 "/>
<path id="21" d="M184 140 C184 140 371.8091 135.8998 395 144 C397.4131 144.8428 397.0074 185.9497 393 213 C392.2204 218.2626 387.6436 223.03 383 225 C375.6616 228.1133 360 227 360 227 "/>
<path id="22" d="M347 233 L334 253 "/>
<path id="23" d="M365 231 C365 231 371.2581 233.9694 376 238 C380.8958 242.1614 385 248 385 248 "/>
<path id="24" d="M335 258 C335 258 343.0331 250.3934 350 249 C362.4409 246.5118 367.1199 246.7102 380 249 C387.0507 250.2535 393.2616 253.6391 395 257 C397.3166 261.4787 395.9647 268.0315 395 278 C394.5273 282.8847 394.1135 283.4207 392 288 C388.2585 296.1066 388.1343 296.8691 383 304 C379.4645 308.9104 377.9478 312.0371 374 313 C362.6296 315.7733 356.0259 315.0519 342 314 C338.3535 313.7265 337.2417 312.5933 334 310 C327.7482 304.9986 324.261 303.2757 322 298 C319.8897 293.076 320.8061 289.4022 322 282 C323.1795 274.6874 323.3387 272.3843 327 267 C330.6136 261.6859 339 257 339 257 "/>
<path id="25" d="M372 275 C372 275 369.0866 270.8994 366 269 C363.3788 267.387 362.5089 267.6192 359 267 C354.1436 266.143 352.8751 265.7019 349 266 C347.7684 266.0947 346.9242 266.7678 346 268 C342.8469 272.2041 341.5526 273.3421 340 278 C338.9649 281.1053 338.7501 284.3037 340 286 C343.3304 290.5199 347.6777 294.4243 354 297 C358.4471 298.8118 362.0778 298.4981 367 297 C371.5929 295.6022 374.8026 292.8566 377 290 C377.8974 288.8334 377.9202 285.9719 377 284 C375.1187 279.9686 370 275 370 275 "/>
<path id="26" d="M360 285 C360 285 364.9035 288.0386 365 288 C365.0508 287.9797 365.2219 283.0925 365 283 C363.7219 282.4675 354.8695 282.281 353 283 C352.5446 283.1751 351.8165 287.8623 352 288 C352.6507 288.488 359.0053 289.1995 361 289 C361.2689 288.9731 362 287 362 287 "/>
<path id="27" d="M337 251 L328 265 "/>
<path id="28" d="M185 166 L398 166 "/>
<path id="29" d="M188 201 C188 201 242.246 202.4037 281 202 C282.259 201.9869 283.925 200.7125 284 200 C285.1694 188.8908 285 164 285 164 "/>
<path id="30" d="M329 169 L330 228 "/>
<path id="31" d="M332 196 C332 196 351.2729 196.2434 359 194 C360.69 193.5093 362.554 190.2332 363 187 C364.2992 177.5808 363 165 363 165 "/>
<path id="32" d="M332 210 C332 210 357.0707 208.0471 360 210 C361.6041 211.0694 362 230 362 230 "/>
<path id="33" d="M337 69 C337 69 333.3193 74.7315 333 80 C331.4379 105.7746 334.0335 115.0182 333 135 C332.9407 136.1463 330 138 330 138 "/>
<path id="34" d="M337 69 C337 69 365.3076 67.856 366 69 C367.3557 71.2399 361.3047 88.2122 360 107 C358.8476 123.5939 361 141 361 141 "/>
<path id="35" d="M345 36 L345 67 "/>
<path id="36" d="M347 37 C347 37 358.8943 36.7282 359 37 C359.3636 37.935 354.9652 46.313 354 55 C353.0695 63.3749 355 73 355 73 "/>
<path id="37" d="M164 116 C164 116 169.0244 114.8892 173 116 C201.4074 123.9373 232 135 232 135 "/>
<path id="38" d="M157 97 C157 97 166.7684 100.2962 175 105 C180.3141 108.0366 179.6175 110.7143 185 113 C214.2352 125.4149 248 136 248 136 "/>
<path id="39" d="M234 136 L243 138 "/>
<path id="40" d="M133 78 C133 78 131.358 93.5828 134 106 C135.9586 115.2052 139.0196 121.0196 143 125 C144.7059 126.7059 150.6865 126.9746 154 126 C156.4032 125.2932 159.5454 122.5004 160 120 C161.731 110.4793 161.5931 105.1074 160 93 C159.3121 87.7723 158.2293 85.8752 155 82 C151.7352 78.0822 149.289 76.2867 145 75 C141.5617 73.9685 135.8952 75.0234 135 76 C133.9507 77.1447 134 87 134 87 "/>
<path id="41" d="M145 97 C145 97 145.7708 109.618 146 110 C146 110 150.9565 107.5652 151 107 C151.1245 105.3815 147 97 147 97 "/>
<path id="42" d="M150 80 L147 99 "/>
<path id="43" d="M135 83 L146 101 "/>
<path id="44" d="M134 105 L144 106 "/>
<path id="45" d="M150 115 L150 127 "/>
<path id="46" d="M151 106 L163 112 "/>
<path id="47" d="M157 104 L169 99 "/>
</g>
</g>
</svg>
