<?xml version="1.0" encoding="utf-8"?>
<!DOCTYPE svg PUBLIC "-//W3C//DTD SVG 1.1//EN" "http://www.w3.org/Graphics/SVG/1.1/DTD/svg11.dtd">
<svg viewBox="0 0 800 800" preserveAspectRatio="xMinYMin meet" xmlns="http://www.w3.org/2000/svg" version="1.1">
<g fill="none" stroke="black" stroke-linecap="round" stroke-linejoin="round" stroke-width="2.4818">
<g transform="translate(87.52,178.1815) scale(1.2088) translate(-33,-17.9833)">
<path id="0" d="M487 231.9833 C487 231.9833 484.32 230.0386 482 229.9833 C465.0046 229.5787 460.5086 226.7739 445 230.9833 C429.2358 235.2622 426.7599 239.3894 412 248.9833 C407.9716 251.6018 405.9987 253.6545 405 256.9833 C403.8431 260.8395 404.2165 263.9895 406 268.9833 C408.7732 276.7483 411.072 279.8467 415 284.9833 C415.6967 285.8945 417.7498 284.9675 419 285.9833 C424.6503 290.5742 425.3388 295.6523 431 297.9833 C438.6269 301.1238 446.6829 298.8847 453 299.9833 C453.381 300.0496 453.8035 301.9923 454 301.9833 C458.5678 301.7757 466.0189 302.0626 475 298.9833 C481.9659 296.595 487.2882 294.1118 489 289.9833 C492.8438 280.713 492 273.2554 492 257.9833 C492 251.3018 491.4267 248.5941 489 243.9833 C487.6473 241.4132 484.5889 241.8075 482 238.9833 C479.5812 236.3447 478 231.9833 478 231.9833 "/>
<path id="1" d="M399 175.9833 C399 175.9833 401.9436 168.7667 404 167.9833 C408.0885 166.4258 417.3297 166.3303 420 167.9833 C422.1776 169.3314 422.9481 180.1228 425 180.9833 C430.1045 183.1239 446.361 182.3088 451 180.9833 C451.7647 180.7649 451.6377 175.708 453 172.9833 C453.5298 171.9238 455.8027 170.8477 456 170.9833 C458.6641 172.8149 463.3248 182.1389 469 183.9833 C477.8958 186.8745 484.8361 185.3365 496 183.9833 C498.6813 183.6583 499.232 180.7215 502 179.9833 C505.5253 179.0433 509.9875 179.6458 511 179.9833 C511.1125 180.0208 510.5143 182.4437 511 182.9833 C513.4447 185.6997 517.9566 186.7139 520 189.9833 C521.5579 192.4759 521.5852 196.6424 521 198.9833 C520.7325 200.0535 517.5076 200.7144 517 201.9833 C516.2276 203.9144 516.2803 206.3446 517 208.9833 C517.4953 210.7996 518.6254 212.571 520 212.9833 C525.7603 214.7114 534.4468 212.6521 537 214.9833 C540.1665 217.8745 541.0173 224.7307 543 233.9833 C543.8797 238.0884 543.6729 241.8618 543 242.9833 C542.6561 243.5566 539.1383 242.9142 537 243.9833 C535.0262 244.9702 533.2887 246.323 533 247.9833 C531.8316 254.7014 532.318 264.8237 533 266.9833 C533.068 267.1987 536.9912 266.038 539 266.9833 C543.9432 269.3096 549.5465 272.5646 550 274.9833 C551.0394 280.5268 547.7478 295.5486 545 298.9833 C543.7243 300.578 534.1579 299.2037 530 299.9833 C529.6236 300.0539 529.1729 300.9803 529 301.9833 C526.7956 314.7687 524.1676 323.8222 525 328.9833 C525.1722 330.0509 533.6875 332.1708 534 332.9833 C534.3125 333.7958 532.6253 339.1705 530 341.9833 C526.8387 345.3705 523.7257 344.506 520 347.9833 C517.0226 350.7622 517.1061 354.6873 515 355.9833 C513.3021 357.0282 510.1053 357.0184 507 355.9833 C502.3421 354.4307 499.0345 349.5312 497 349.9833 C492.3832 351.0093 483.077 356.9153 480 361.9833 C477.7944 365.6161 480.96 376.7033 480 377.9833 C479.46 378.7033 473.3017 376.9735 468 377.9833 C463.6871 378.8048 463.2579 380.5641 459 381.9833 C457.7638 382.3954 456.1412 382.2455 456 381.9833 C454.6758 379.5242 453.8362 370.4753 452 368.9833 C450.4869 367.7539 444.508 367.549 440 368.9833 C435.4066 370.4449 432.2323 372.7364 430 375.9833 C428.4414 378.2504 429.457 384.8751 429 384.9833 C423.6 386.2623 402.4451 386.289 392 384.9833 C390.9767 384.8554 389.4081 382.2961 389 379.9833 C388.1143 374.9642 389.9982 368.625 389 367.9833 C384.8778 365.3334 365.2683 361.0779 361 361.9833 C359.7611 362.2461 357.2679 374.3121 356 374.9833 C354.9455 375.5416 349.4278 373.6973 344 370.9833 C336.8275 367.3971 333.1519 366.3172 330 361.9833 C327.6249 358.7176 327.4571 351.8788 328 348.9833 C328.1693 348.0803 330.5871 346.4913 333 345.9833 C339.0886 344.7015 345.0505 345.4011 347 344.9833 C347.0588 344.9707 347.324 343.6313 347 342.9833 C346.109 341.2013 344.5182 340.9696 344 338.9833 C341.8567 330.7673 342.8373 321.8207 341 319.9833 C339.6638 318.6471 331.7625 320.9494 325 319.9833 C322.7056 319.6556 320.4806 318.3564 320 316.9833 C318.2092 311.8668 316.7707 305.1053 318 299.9833 C318.7382 296.9077 322.4914 293.6344 326 291.9833 C328.6841 290.7202 332.7344 291.5302 335 291.9833 C335.3524 292.0538 335.9997 293.9869 336 293.9833 C336.004 293.9313 339.3871 270.898 337 265.9833 C335.6342 263.1713 321.9004 261.8837 319 258.9833 C317.7238 257.7072 317.9837 252.5567 319 247.9833 C319.7289 244.7035 320.5262 243.6475 323 240.9833 C326.5458 237.1648 327.9479 235.7561 332 233.9833 C334.3515 232.9546 336.556 233.0058 339 233.9833 C342.631 235.4358 346.9389 240.0215 347 239.9833 C347.0989 239.9215 345.8223 233.6943 347 228.9833 C348.5525 222.7734 353 219.2446 353 215.9833 C353 214.2273 348.1071 212.12 347 208.9833 C345.7858 205.5431 345.709 201.2785 347 198.9833 C348.4282 196.4443 351.8985 194.7411 356 192.9833 C357.7722 192.2238 359.5963 192.2177 361 192.9833 C363.6033 194.4033 366.9801 199.0407 367 198.9833 C367.1673 198.5001 368.4272 170.4659 370 166.9833 C370.1871 166.5691 378.1451 166.1276 381 167.9833 C385.117 170.6594 386.3707 177.0799 390 179.9833 C391.1707 180.9199 396 179.9833 396 179.9833 "/>
<path id="2" d="M66 309.9833 C66 309.9833 61.5962 309.7292 60 310.9833 C56.27 313.914 54.2702 316.1907 52 320.9833 C50.4403 324.276 50.3405 326.6858 51 329.9833 C51.5096 332.5315 53.2987 335.4655 55 335.9833 C60.6372 337.699 65.7323 337.3428 74 336.9833 C75.7825 336.9058 77.479 336.0253 78 334.9833 C79.4326 332.1181 80.69 328.6058 80 324.9833 C79.129 320.4104 76.1315 316.5885 74 313.9833 C73.6711 313.5814 71 313.9833 71 313.9833 "/>
<path id="3" d="M54 297.9833 C54 297.9833 55.878 295.0493 57 294.9833 C67.9295 294.3404 73.0935 294.3271 88 295.9833 C94.9209 296.7523 97.9895 297.7274 102 299.9833 C103.1877 300.6514 104.2061 302.9912 104 304.9833 C102.9458 315.1736 102.9216 317.9106 99 328.9833 C94.7011 341.1213 92.9495 348.8187 87 352.9833 C80.6374 357.4372 71.0916 357.7719 59 356.9833 C50.9547 356.4586 45.1246 354.4253 41 349.9833 C36.0554 344.6584 35.3864 339.1257 33 328.9833 C31.6442 323.2212 31.0397 319.0968 33 315.9833 C36.7252 310.0669 41.5837 306.319 50 301.9833 C56.099 298.8415 66 298.9833 66 298.9833 "/>
<path id="4" d="M317 314.9833 C317 314.9833 298.8035 313.1741 281 313.9833 C255.1387 315.1588 254.9404 317.7597 229 318.9833 C202.1835 320.2483 201.9204 318.3347 175 318.9833 C160.5187 319.3323 159.8073 318.6332 146 320.9833 C137.0488 322.5069 136.8558 325.7435 128 326.9833 C112.8924 329.0984 96 327.9833 96 327.9833 "/>
<path id="5" d="M70 290.9833 C70 290.9833 70.0135 232.9 73 182.9833 C73.2551 178.7201 74.5337 176.4497 77 173.9833 C79.4663 171.517 83.4152 172.3527 86 169.9833 C87.9216 168.2219 86.9509 165.0324 89 162.9833 C92.2786 159.7048 94.5251 157.303 99 156.9833 C130.7531 154.7153 163.6918 154.2529 173 156.9833 C173.9375 157.2583 174.6704 168.9273 174 178.9833 C173.7494 182.7429 171.3986 183.1298 171 186.9833 C169.9926 196.7212 170.0585 200.4512 171 207.9833 C171.1513 209.1939 172.8867 210.9421 174 210.9833 C192.2364 211.6588 201.1423 212.7099 225 209.9833 C234.2417 208.9271 234.7093 204.3106 244 202.9833 C261.2542 200.5184 264.2972 203.5371 281 201.9833 C283.8274 201.7203 284.8586 200.96 287 198.9833 C290.738 195.5328 292.1239 194.5882 294 189.9833 C297.1072 182.3565 297.172 180.9258 298 171.9833 C299.6268 154.414 296.2597 152.1208 299 135.9833 C300.3909 127.7926 302.5607 125.6423 307 118.9833 C308.5902 116.598 311.0726 117.1517 313 114.9833 C314.3997 113.4087 313.7996 110.5321 315 109.9833 C325.652 105.1139 331.9193 101.2511 348 98.9833 C368.9437 96.0297 370.8443 97.4376 393 98.9833 C413.3924 100.4061 413.5073 103.1413 434 104.9833 C457.7687 107.1198 471.1349 102.9089 482 106.9833 C485.371 108.2475 488.4166 116.627 490 125.9833 C493.6179 147.3621 490.6088 149.6657 493 171.9833 C493.5328 176.9562 496 181.9833 496 181.9833 "/>
<path id="6" d="M314 107.9833 C314 107.9833 316.7028 98.9007 317 89.9833 C318.1824 54.5109 313.4 25.1833 317 17.9833 C317.9 16.1833 335.0145 17.6112 353 17.9833 C407.4871 19.1107 408.3358 18.3867 462 20.9833 C469.4465 21.3437 474.4248 23.1249 477 23.9833 C477.1073 24.0191 476.9624 25.9776 477 25.9833 C478.5874 26.2276 489.8485 25.4815 490 25.9833 C492.0809 32.8765 493.6151 53.1476 493 78.9833 C492.6383 94.1733 488 109.9833 488 109.9833 "/>
<path id="7" d="M477 108.9833 C477 108.9833 479.3802 87.614 479 68.9833 C478.9138 64.7586 476.4862 64.3596 476 59.9833 C475.0622 51.5435 476.4012 42.0733 476 41.9833 C470.3431 40.7154 446.8622 46.3559 418 46.9833 C378.2861 47.8467 346.9454 42.8588 338 44.9833 C337.439 45.1166 336.9926 56.2454 338 65.9833 C338.3986 69.8369 340.9077 70.2933 341 73.9833 C341.365 88.5836 339 105.9833 339 105.9833 "/>
<path id="8" d="M112 153.9833 C112 153.9833 110.0188 154.0614 110 153.9833 C108.8212 149.0999 107.2845 130.6947 105 124.9833 C104.72 124.2832 101.3651 123.8487 98 123.9833 C89.2585 124.333 80.0423 125.8566 80 125.9833 C79.9542 126.1207 88.4697 132.1879 93 138.9833 C96.6242 144.4197 98 152.9833 98 152.9833 "/>
</g>
</g>
</svg>
