<?xml version="1.0" encoding="utf-8"?>
<!DOCTYPE svg PUBLIC "-//W3C//DTD SVG 1.1//EN" "http://www.w3.org/Graphics/SVG/1.1/DTD/svg11.dtd">
<svg viewBox="0 0 800 800" preserveAspectRatio="xMinYMin meet" xmlns="http://www.w3.org/2000/svg" version="1.1">
<g fill="none" stroke="black" stroke-linecap="round" stroke-linejoin="round" stroke-width="0.74405">
<g transform="translate(99.616,87.52) scale(4.032) translate(-166,-149.1333)">
<path id="0" d="M183 149.1333 C183 149.1333 249.547 146.3517 302 149.1333 C307.8938 149.4459 314.2605 153.4598 315 156.1333 C317.7916 166.226 316.1805 183.4431 315 196.1333 C314.9005 197.2031 312.662 199.0852 311 199.1333 C256.495 200.7132 223.4319 203.6557 177 200.1333 C172.8707 199.8201 167.2483 193.3536 166 188.1333 C163.099 176.0018 164.2056 162.6569 166 154.1333 C166.3 152.7083 170.2102 150.8224 174 150.1333 C180.0795 149.028 187.5187 149.9729 188 150.1333 C188.0229 150.141 186 154.1333 186 154.1333 "/>
<path id="1" d="M233 204.1333 C233 204.1333 233.2499 289.0135 233 301.1333 C232.9999 301.1385 231 301.1333 231 301.1333 "/>
<path id="2" d="M262 200.1333 C262 200.1333 264.231 291.6879 261 304.1333 C260.7908 304.9391 238.2309 304.3819 235 304.1333 C234.9809 304.1319 235 302.1333 235 302.1333 "/>
</g>
</g>
</svg>
