<?xml version="1.0" encoding="utf-8"?>
<!DOCTYPE svg PUBLIC "-//W3C//DTD SVG 1.1//EN" "http://www.w3.org/Graphics/SVG/1.1/DTD/svg11.dtd">
<svg viewBox="0 0 800 800" preserveAspectRatio="xMinYMin meet" xmlns="http://www.w3.org/2000/svg" version="1.1">
<g fill="none" stroke="black" stroke-linecap="round" stroke-linejoin="round" stroke-width="0.83525">
<g transform="translate(127.029,87.52) scale(3.5917) translate(-201,-105)">
<path id="0" d="M212 123 C212 123 215.3739 128.6785 216 134 C217.2553 144.6704 218.3825 148.423 216 157 C214.3656 162.8837 206.1973 170.0263 206 170 C205.8329 169.9777 201.5553 162.0332 201 155 C200.1761 144.5644 199.9503 139.7417 203 132 C204.8376 127.3353 211.7848 122.4664 214 122 C215.1387 121.7603 218.0571 126.6286 222 128 C228.1352 130.134 237 130 237 130 "/>
<path id="1" d="M210 168 C210 168 216.48 164.0062 223 162 C228.9795 160.1602 236 160 236 160 "/>
<path id="2" d="M238 129 C238 129 241.5453 121.4655 244 121 C261.1659 117.7444 270.0985 118.6641 296 118 C308.9189 117.6687 310.9155 116.3608 322 119 C329.6646 120.8249 330.8666 125.8864 338 128 C342.0904 129.212 344.4949 128.2013 349 127 C350.9193 126.4882 352.9974 123.9559 353 124 C353.0346 124.5878 352.2042 153.3732 351 161 C350.9473 161.3335 348.2997 162.4061 347 162 C342.1097 160.4718 340.668 157.7899 335 156 C332.1445 155.0983 330.3155 154.9032 328 156 C322.6205 158.5482 321.1847 164.4574 316 165 C286.3547 168.1024 274.4583 167.2912 242 165 C236.9893 164.6463 231 159 231 159 "/>
<path id="3" d="M269 119 C269 119 268.3 105.35 269 105 C271.8 103.6 293.968 103.8088 297 105 C297.468 105.1838 297 116 297 116 "/>
<path id="4" d="M267 169 L267 274 "/>
<path id="5" d="M294 169 C294 169 294.8982 220.4984 294 269 C293.9278 272.8981 292 277 292 277 "/>
<path id="6" d="M268 275 C268 275 273.1753 278.1959 278 279 C284.3324 280.0554 287.0541 279.8728 292 279 C293.2469 278.78 295 276 295 276 "/>
</g>
</g>
</svg>
