<?xml version="1.0" encoding="utf-8"?>
<!DOCTYPE svg PUBLIC "-//W3C//DTD SVG 1.1//EN" "http://www.w3.org/Graphics/SVG/1.1/DTD/svg11.dtd">
<svg viewBox="0 0 800 800" preserveAspectRatio="xMinYMin meet" xmlns="http://www.w3.org/2000/svg" version="1.1">
<g fill="none" stroke="black" stroke-linecap="round" stroke-linejoin="round" stroke-width="1.1041">
<g transform="translate(87.52,323.9179) scale(2.7172) translate(-223,-143.1333)">
<path id="0" d="M227 167.1333 C227 167.1333 315.37 168.0185 403 167.1333 C413.9638 167.0226 425 165.1333 425 165.1333 "/>
<path id="1" d="M228 167.1333 C228 167.1333 224.9004 170.7118 224 174.1333 C222.6288 179.3439 222.0844 183.2035 223 186.1333 C223.4602 187.6061 226.4042 190.0372 229 190.1333 C294.895 192.5739 310.3507 195.8846 385 192.1333 C405.8784 191.0842 428 180.1333 428 180.1333 "/>
<path id="2" d="M424 167.1333 L426 179.1333 "/>
<path id="3" d="M423 154.1333 L428 197.1333 "/>
<path id="4" d="M425 152.1333 C425 152.1333 427.8182 148.1788 431 146.1333 C434.2048 144.0731 435.3141 143.567 439 143.1333 C442.9195 142.6722 445.9602 143.3174 448 144.1333 C448.4774 144.3243 448.8789 145.6799 449 147.1333 C449.3535 151.3759 450.0536 152.7618 449 156.1333 C447.9976 159.341 445.2294 159.937 444 163.1333 C443.1734 165.2826 443.1713 166.6472 444 169.1333 C447.3148 179.0777 451.3506 182.7111 453 190.1333 C453.3825 191.8544 451.7176 194.4158 450 196.1333 C448.6641 197.4692 447.4666 197.7633 445 198.1333 C437.9493 199.1909 431.4378 199.6126 430 199.1333 C429.8039 199.068 429.1138 194.4626 430 193.1333 C431.6738 190.6226 433.9545 189.0371 438 187.1333 C441.7157 185.3848 443.7205 184.8991 447 185.1333 C448.9307 185.2712 452 188.1333 452 188.1333 "/>
</g>
</g>
</svg>
