<?xml version="1.0" encoding="utf-8"?>
<!DOCTYPE svg PUBLIC "-//W3C//DTD SVG 1.1//EN" "http://www.w3.org/Graphics/SVG/1.1/DTD/svg11.dtd">
<svg viewBox="0 0 800 800" preserveAspectRatio="xMinYMin meet" xmlns="http://www.w3.org/2000/svg" version="1.1">
<g fill="none" stroke="black" stroke-linecap="round" stroke-linejoin="round" stroke-width="1.6513">
<g transform="translate(87.52,129.3051) scale(1.8167) translate(-41,-89)">
<path id="0" d="M61 178 C61 178 52.6199 179.19 47 182 C43.8388 183.5806 41.5027 185.587 41 188 C39.7663 193.9216 40.0786 198.5889 42 206 C43.1108 210.2843 44.5714 212 48 215 C51.5521 218.1081 52.9663 218.6577 58 220 C67.2384 222.4636 71.3542 223.7384 78 223 C80.5908 222.7121 83.6066 219.9416 85 217 C87.0862 212.5959 85.2211 209.6331 87 204 C87.9478 200.9986 91 198 91 198 "/>
<path id="1" d="M62 177 C62 177 65.9702 176.6915 68 175 C76.7368 167.7193 78.109 166.6445 86 157 C95.8199 144.9979 94.2326 143.1433 104 131 C112.5137 120.4154 112.6242 118.998 123 111 C135.6933 101.2155 137.3551 100.7123 152 94 C160.4752 90.1156 161.7984 89.9686 171 89 C179.904 88.0627 181.1379 88.0503 190 90 C205.3081 93.3678 205.9547 94.2133 221 100 C231.7277 104.126 242 110 242 110 "/>
<path id="2" d="M240 112 C240 112 223.3961 109.2321 209 111 C196.4198 112.5449 195.1888 114.4292 183 119 C179.8477 120.1821 177.6518 121.2308 177 123 C175.387 127.378 176 138 176 138 "/>
<path id="3" d="M179 127 C179 127 176.032 128.2801 175 130 C172.1335 134.7776 171.5123 135.9509 170 142 C167.6317 151.4732 165.4974 154.4868 167 162 C168.7195 170.5976 171.6245 172.8921 178 182 C185.3422 192.4889 185.6394 193.5526 195 202 C205.507 211.482 207.9149 209.635 219 219 C236.6366 233.8999 235.4518 235.8312 253 251 C264.7888 261.1904 264.9286 262.254 278 270 C291.2316 277.841 293.9723 275.9278 307 283 C310.3447 284.8157 309.6637 287.2891 313 289 C327.7683 296.5735 331.4214 294.0788 346 303 C363.7194 313.8432 365.7456 316.4766 380 330 C383.464 333.2863 384.5837 335.5591 385 340 C385.8675 349.253 385.3356 352.0735 383 362 C381.6059 367.9247 380.5627 368.793 377 374 C374.392 377.8117 373.7881 378.8589 370 381 C363.2957 384.7894 361.4167 386.1982 354 387 C344.7412 388.001 342.3739 387.5335 333 385 C325.0963 382.8639 323.0984 382.2016 317 377 C307.4045 368.8156 306.2245 367.1651 299 356 C290.2135 342.4208 292.522 340.2034 284 326 C273.2054 308.0091 273.5133 306.9314 260 291 C226.5023 251.508 225.5252 250.8833 189 214 C174.9417 199.8038 173.9929 197.2862 158 188 C145.2303 180.5853 142.1085 181.0217 127 178 C118.3012 176.2602 116.3405 176.7644 108 178 C104.2281 178.5588 102.7034 179.2966 100 182 C93.2415 188.7585 87 199 87 199 "/>
<path id="4" d="M143 183 C143 183 150.9499 183.3308 156 181 C162.3893 178.0511 169 171 169 171 "/>
<path id="5" d="M42 191 C42 191 48.1792 191.5638 51 194 C57.5267 199.6367 60.3741 202.2647 64 210 C66.7797 215.9301 66 226 66 226 "/>
<path id="6" d="M183 96 C183 96 185.9358 92.344 188 92 C192.6749 91.2209 201 93 201 93 "/>
</g>
</g>
</svg>
