<?xml version="1.0" encoding="utf-8"?>
<!DOCTYPE svg PUBLIC "-//W3C//DTD SVG 1.1//EN" "http://www.w3.org/Graphics/SVG/1.1/DTD/svg11.dtd">
<svg viewBox="0 0 800 800" preserveAspectRatio="xMinYMin meet" xmlns="http://www.w3.org/2000/svg" version="1.1">
<g fill="none" stroke="black" stroke-linecap="round" stroke-linejoin="round" stroke-width="1.2577">
<g transform="translate(212.7505,87.52) scale(2.3853) translate(-196,-137.1333)">
<path id="0" d="M201 153.1333 C201 153.1333 197.0417 159.1852 196 164.1333 C195.3267 167.3313 195.6392 169.4118 197 172.1333 C198.4408 175.0149 200.3967 176.7133 203 178.1333 C204.4037 178.899 207.1622 178.7617 208 178.1333 C209.2567 177.1908 210.5963 174.9596 211 172.1333 C211.9421 165.5388 212.3209 162.6812 211 157.1333 C210.3668 154.4739 208.0953 152.5302 206 151.1333 C205.0688 150.5125 202 151.1333 202 151.1333 "/>
<path id="1" d="M206 153.1333 L234 156.1333 "/>
<path id="2" d="M208 177.1333 C208 177.1333 239.3188 178.9208 242 177.1333 C243.0777 176.4148 242.4007 157.3344 241 155.1333 C240.4881 154.3289 228 155.1333 228 155.1333 "/>
<path id="3" d="M240 154.1333 L240 140.1333 "/>
<path id="4" d="M242 178.1333 C242 178.1333 241.3347 196.9294 242 197.1333 C249.0847 199.3044 298.8458 200.7911 304 197.1333 C306.5958 195.2911 304.4269 174.9044 304 153.1333 C303.9319 149.66 304.1144 147.9906 303 146.1333 C302.1202 144.6671 300.6049 144.035 298 143.1333 C288.0451 139.6874 287.2979 138.3691 277 137.1333 C263.2505 135.4834 261.3411 135.765 248 137.1333 C243.2109 137.6245 238 141.1333 238 141.1333 "/>
<path id="5" d="M305 148.1333 C305 148.1333 323.6384 147.4664 332 152.1333 C339.7696 156.4699 341.0578 161.8853 348 172.1333 C351.2387 176.9143 352.1533 177.8839 353 183.1333 C354.4343 192.0257 353.1595 202.591 353 203.1333 C352.9878 203.1748 350.4129 200.6413 348 200.1333 C341.9114 198.8515 340.0891 200.5831 334 199.1333 C330.5991 198.3236 330.2457 195.6327 327 195.1333 C318.9021 193.8875 308 195.1333 308 195.1333 "/>
<path id="6" d="M244 200.1333 L243 364.1333 "/>
<path id="7" d="M304 198.1333 C304 198.1333 304.8791 334.1263 302 391.1333 C301.9194 392.7287 297.6045 395.7415 294 396.1333 C277.9677 397.876 273.7341 394.9768 256 396.1333 C252.1752 396.3828 248.2786 399.4119 248 399.1333 C246.83 397.9634 244.0296 391.0272 243 383.1333 C241.137 368.8503 242 353.1333 242 353.1333 "/>
</g>
</g>
</svg>
