<?xml version="1.0" encoding="utf-8"?>
<!DOCTYPE svg PUBLIC "-//W3C//DTD SVG 1.1//EN" "http://www.w3.org/Graphics/SVG/1.1/DTD/svg11.dtd">
<svg viewBox="0 0 800 800" preserveAspectRatio="xMinYMin meet" xmlns="http://www.w3.org/2000/svg" version="1.1">
<g fill="none" stroke="black" stroke-linecap="round" stroke-linejoin="round" stroke-width="1.3153">
<g transform="translate(87.52,135.4184) scale(2.2809) translate(-140.3611,-181.0556)">
<path id="0" d="M140.3611 332.0556 C140.3611 332.0556 192.2443 312.6182 244.3611 297.0556 C263.6634 291.2917 266.4214 295.4035 284.3611 289.0556 C297.0555 284.5637 308.5827 274.149 309.3611 274.0556 C309.4029 274.0505 308.2829 280.6645 309.3611 286.0556 C310.619 292.3452 313.0323 292.6329 314.3611 299.0556 C315.8956 306.4724 316.8652 313.2348 315.3611 315.0556 C313.0296 317.878 305.4898 319.5234 295.3611 322.0556 C277.7814 326.4505 277.365 326.4836 259.3611 329.0556 C246.0841 330.9523 244.4577 327.3791 232.3611 331.0556 C195.6373 342.2167 192.6511 347.2629 157.3611 360.0556 C155.2977 360.8036 152.6085 360.5151 152.3611 360.0556 C149.5264 354.7911 143.3611 334.0556 143.3611 334.0556 "/>
<path id="1" d="M291.3611 247.0556 C291.3611 247.0556 295.7113 266.0985 302.3611 283.0556 C305.4176 290.8495 309.1955 290.4188 311.3611 298.0556 C318.1269 321.9138 317.6735 341.7184 321.3611 350.0556 C321.7369 350.9052 329.4935 351.4463 334.3611 350.0556 C337.9985 349.0163 338.1246 346.0954 342.3611 344.0556 C351.0648 339.8649 352.1514 338.9517 361.3611 337.0556 C368.1193 335.6642 369.3325 338.0596 376.3611 337.0556 C382.7203 336.1471 387.7794 334.8806 389.3611 333.0556 C390.5008 331.7406 390.301 326.9902 389.3611 322.0556 C388.4415 317.2277 387.9267 316.5454 385.3611 312.0556 C382.1093 306.3649 380.0644 306.8225 377.3611 301.0556 C372.911 291.5621 374.8959 289.9605 370.3611 280.0556 C356.0864 248.8765 350.7744 230.0592 339.3611 218.0556 C336.2828 214.818 324.7976 217.1423 312.3611 219.0556 C306.5128 219.9553 300.5265 223.9563 300.3611 224.0556 C300.3457 224.0648 302.3611 225.0556 302.3611 225.0556 "/>
<path id="2" d="M291.3611 251.0556 C291.3611 251.0556 287.9957 233.5397 289.3611 232.0556 C291.6687 229.5473 302.821 230.2775 314.3611 226.0556 C322.5479 223.0604 330.3634 217.0624 330.3611 217.0556 C330.3572 217.0438 318.4178 214.7033 311.3611 217.0556 C303.5616 219.6554 301.9063 225.1189 294.3611 229.0556 C292.4149 230.071 288.3595 229.0563 288.3611 229.0556 C288.3677 229.0525 299.1336 224.0442 309.3611 222.0556 C316.2218 220.7215 324.3611 222.0556 324.3611 222.0556 C324.3611 222.0556 301.3611 222.0556 301.3611 222.0556 "/>
<path id="3" d="M294.3611 225.0556 C294.3611 225.0556 281.0477 217.1384 268.3611 215.0556 C249.4683 211.9538 247.4262 212.9408 227.3611 214.0556 C212.0333 214.9071 210.9647 215.1811 196.3611 219.0556 C187.2708 221.4673 178.3621 227.0583 178.3611 227.0556 C178.3515 227.0292 184.6502 216.3173 192.3611 208.0556 C198.1483 201.855 199.3341 200.5691 206.3611 197.0556 C211.9467 194.2628 213.6295 194.0556 220.3611 194.0556 C241.5176 194.0556 244.0466 192.6841 264.3611 197.0556 C281.6575 200.7776 291.3886 205.5191 299.3611 211.0556 C300.9011 212.125 300.3611 222.0556 300.3611 222.0556 "/>
<path id="4" d="M234.3611 191.0556 L233.3611 192.0556 "/>
<path id="5" d="M233.3611 194.0556 C233.3611 194.0556 234.4449 189.4395 236.3611 188.0556 C241.6018 184.2706 244.2795 181.8551 251.3611 181.0556 C272.4394 178.6757 275.7876 180.2195 298.3611 181.0556 C301.7587 181.1814 304.1885 181.3943 305.3611 183.0556 C312.7945 193.5862 322.3611 215.0556 322.3611 215.0556 "/>
<path id="6" d="M340.3611 348.0556 C340.3611 348.0556 344.8963 359.5832 350.3611 369.0556 C351.9707 371.8455 354.5607 371.6542 355.3611 374.0556 C357.3622 380.0589 356.2492 389.1398 357.3611 390.0556 C358.3395 390.8613 365.4806 390.0214 372.3611 388.0556 C378.8629 386.1979 384.204 384.5479 385.3611 382.0556 C387.4763 377.4998 387.0679 369.4431 385.3611 360.0556 C384.4231 354.8963 383.1071 353.1958 379.3611 349.0556 C374.3991 343.5712 366.3611 339.0556 366.3611 339.0556 "/>
<path id="7" d="M409.3611 382.0556 C409.3611 382.0556 383.0168 381.4514 361.3611 383.0556 C358.5582 383.2632 357.8583 384.1133 355.3611 386.0556 C349.2013 390.8465 346.1795 392.3583 343.3611 397.0556 C341.9674 399.3784 342.1647 404.5831 343.3611 406.0556 C345.6958 408.929 350.2251 411.4647 356.3611 413.0556 C362.1597 414.5589 363.6633 413.9858 370.3611 413.0556 C381.2185 411.5476 382.4312 411.9306 392.3611 408.0556 C402.018 404.287 404.9466 402.5954 411.3611 397.0556 C413.5914 395.1294 414.7863 390.5439 414.3611 389.0556 C413.8848 387.3886 410.9044 384.8272 407.3611 383.0556 C403.8179 381.2839 398.3611 381.0556 398.3611 381.0556 "/>
</g>
</g>
</svg>
