<?xml version="1.0" encoding="utf-8"?>
<!DOCTYPE svg PUBLIC "-//W3C//DTD SVG 1.1//EN" "http://www.w3.org/Graphics/SVG/1.1/DTD/svg11.dtd">
<svg viewBox="0 0 800 800" preserveAspectRatio="xMinYMin meet" xmlns="http://www.w3.org/2000/svg" version="1.1">
<g fill="none" stroke="black" stroke-linecap="round" stroke-linejoin="round" stroke-width="1.9249">
<g transform="translate(87.52,165.4452) scale(1.5585) translate(-52,-101)">
<path id="0" d="M370 115 C370 115 359.5302 114.5307 351 117 C341.587 119.7248 341.2631 121.1969 332 126 C327.8541 128.1497 326.7018 127.9605 324 131 C319.5136 136.0472 317.6147 137.9448 316 144 C314.1861 150.8021 315.0811 153.0366 316 161 C316.5052 165.3781 317.1169 165.6959 319 170 C331.0401 197.5203 333.451 197.1623 344 225 C351.2267 244.0705 348.6052 245.4958 355 265 C358.5123 275.7126 360.1989 284.0531 364 286 C370.1568 289.1535 380.5812 287.2849 396 286 C403.87 285.3442 404.4965 284.9095 412 282 C428.595 275.5652 429.7323 275.1924 445 267 C449.3726 264.6537 452.0029 262.9913 453 260 C454.7535 254.7394 454.6265 250.9371 453 243 C442.4641 191.5847 442.656 188.7322 428 138 C423.5539 122.6096 421.7668 119.9738 414 108 C411.3198 103.868 408.5568 102.8763 404 101 C401.5239 99.9804 400.3543 100.5208 397 101 C390.0861 101.9877 389.4458 101.6365 383 104 C374.9179 106.9635 374.9745 109.3418 367 112 C360.7343 114.0886 353 114 353 114 "/>
<path id="1" d="M70 284 C70 284 77.3864 297.8184 83 312 C86.7894 321.5733 85.7486 322.2459 89 332 C89.6897 334.0691 90.1542 335.4361 91 336 C91.725 336.4833 93.4952 336.6336 95 336 C101.9104 333.0904 103.3678 332.8397 110 328 C121.415 319.6702 120.7542 317.4344 132 309 C136.2657 305.8008 136.8293 305.7544 142 304 C164.4355 296.388 164.7981 296.073 188 290 C239.1758 276.605 240.925 279.8872 291 265 C313.9664 258.1722 315.0441 256.075 336 246 C339.8264 244.1604 343 240 343 240 "/>
<path id="2" d="M52 287 C52 287 128.802 265.7871 206 247 C241.6679 238.3198 242.3659 240.3631 278 232 C291.1539 228.9129 292.3097 229.6364 304 224 C319.3331 216.6073 334 205 334 205 "/>
<path id="3" d="M332 254 L343 248 "/>
<path id="4" d="M433 309 C433 309 419.1406 309.1038 418 310 C417.5045 310.3893 418.1979 319.4653 419 320 C420.4646 320.9764 426.691 321.2618 433 320 C440.7511 318.4498 445.8816 316.1439 449 314 C449.5326 313.6338 449.7611 310.0465 449 309 C447.2011 306.5265 444.6171 304.5502 441 303 C438.9471 302.1202 437.4225 302.1925 435 303 C429.3476 304.8841 423 309 423 309 "/>
<path id="5" d="M434 321 C434 321 432.4891 334.4809 434 347 C435.9087 362.8149 438.9876 363.1884 441 379 C442.4072 390.0568 441 402 441 402 C441 402 441 310 441 310 "/>
</g>
</g>
</svg>
