<?xml version="1.0" encoding="utf-8"?>
<!DOCTYPE svg PUBLIC "-//W3C//DTD SVG 1.1//EN" "http://www.w3.org/Graphics/SVG/1.1/DTD/svg11.dtd">
<svg viewBox="0 0 800 800" preserveAspectRatio="xMinYMin meet" xmlns="http://www.w3.org/2000/svg" version="1.1">
<g fill="none" stroke="black" stroke-linecap="round" stroke-linejoin="round" stroke-width="0.67124">
<g transform="translate(265.9204,87.52) scale(4.4693) translate(-165.5,-157.8333)">
<path id="0" d="M189.5 176.6667 C189.5 176.6667 192.9261 184.0832 194.5 191.6667 C198.3515 210.2239 196.4464 211.6096 200.5 229.6667 C201.7489 235.2299 204.3448 235.2756 205.5 240.6667 C207.1474 248.3546 205.0576 249.4449 206.5 257.6667 C209.9919 277.5704 213.54 293.8499 215.5 297.6667 C215.5938 297.8493 225.5303 294.9648 225.5 294.6667 C223.7079 277.0439 214.6437 234.9208 203.5 179.6667 C203.0892 177.6296 202.2607 175.884 201.5 175.6667 C198.5955 174.8368 189.5 175.6667 189.5 175.6667 "/>
<path id="1" d="M169.5 178.8333 C169.5 178.8333 211.2333 177.2879 215.5 175.8333 C215.6897 175.7687 212.877 167.3636 213.5 163.8333 C213.8146 162.0504 218.4886 158.8162 218.5 158.8333 C218.6008 158.9845 219.6067 171.3391 219.5 172.8333 C219.4989 172.8487 217.5 172.8333 217.5 172.8333 "/>
<path id="2" d="M217.5 157.8333 C217.5 157.8333 169.9842 158.9115 165.5 160.8333 C165.1033 161.0034 168.5 178.8333 168.5 178.8333 "/>
<path id="3" d="M168.5 163.8333 C168.5 163.8333 170.4322 163.6978 170.5 163.8333 C170.9406 164.7146 171.5 166.9457 171.5 169.8333 C171.5 174.1649 170.5 178.8333 170.5 178.8333 "/>
<path id="4" d="M174.5 169.8333 L215.5 166.8333 "/>
</g>
</g>
</svg>
