<?xml version="1.0" encoding="utf-8"?>
<!DOCTYPE svg PUBLIC "-//W3C//DTD SVG 1.1//EN" "http://www.w3.org/Graphics/SVG/1.1/DTD/svg11.dtd">
<svg viewBox="0 0 800 800" preserveAspectRatio="xMinYMin meet" xmlns="http://www.w3.org/2000/svg" version="1.1">
<g fill="none" stroke="black" stroke-linecap="round" stroke-linejoin="round" stroke-width="1.1809">
<g transform="translate(87.52,280.5971) scale(2.5405) translate(-104,-207.4167)">
<path id="0" d="M104 249.4167 C104 249.4167 165.6618 252.0331 227 251.4167 C264.9263 251.0355 303 247.4167 303 247.4167 "/>
<path id="1" d="M106 251.4167 C106 251.4167 109.1223 256.5894 110 261.4167 C110.9818 266.8167 108.9951 272.2443 110 273.4167 C111.0288 274.617 116.0417 275.0058 122 275.4167 C130.3451 275.9922 130.7481 276.3544 139 275.4167 C152.3818 273.896 152.7283 270.7599 166 270.4167 C209.5135 269.2913 212.5179 270.2492 255 272.4167 C259.364 272.6393 260.3869 275.6946 264 275.4167 C271.1629 274.8657 272.6754 271.3846 281 270.4167 C293.3107 268.9852 307 270.4167 307 270.4167 "/>
<path id="2" d="M305 218.4167 L305 230.4167 "/>
<path id="3" d="M306 230.4167 L309 298.4167 "/>
<path id="4" d="M307 219.4167 C307 219.4167 307.3316 210.6526 308 210.4167 C313.4511 208.4927 340.2103 206.1244 341 207.4167 C343.6222 211.7075 339.5019 236.2525 341 264.4167 C341.9794 282.8301 346 301.4167 346 301.4167 "/>
<path id="5" d="M311 293.4167 C311 293.4167 310.5889 300.1289 311 300.4167 C311.8389 301.0039 316.853 301.2461 321 300.4167 C323.3223 299.9522 323.6967 297.7803 326 297.4167 C331.8911 296.4865 333.3953 296.5911 340 297.4167 C344.8946 298.0285 350 300.4167 350 300.4167 "/>
</g>
</g>
</svg>
