<?xml version="1.0" encoding="utf-8"?>
<!DOCTYPE svg PUBLIC "-//W3C//DTD SVG 1.1//EN" "http://www.w3.org/Graphics/SVG/1.1/DTD/svg11.dtd">
<svg viewBox="0 0 800 800" preserveAspectRatio="xMinYMin meet" xmlns="http://www.w3.org/2000/svg" version="1.1">
<g fill="none" stroke="black" stroke-linecap="round" stroke-linejoin="round" stroke-width="0.70084">
<g transform="translate(98.2214,87.52) scale(4.2805) translate(-218,-182)">
<path id="0" d="M298 227 C298 227 277.152 223.8287 271 226 C268.3246 226.9442 265.2144 232.776 264 239 C261.6165 251.2156 260.9234 259.7318 263 267 C263.76 269.66 268.5637 272.1879 274 274 C280.7954 276.2651 282.128 275.7376 290 276 C296.8431 276.2281 298.6163 276.6151 304 275 C306.8236 274.1529 308.0763 272.7981 310 270 C313.0437 265.5728 314.6537 263.6746 315 259 C315.4805 252.5135 314.8362 249.7633 312 243 C308.8457 235.4782 306.4304 232.7258 302 228 C300.9662 226.8973 297 227 297 227 "/>
<path id="1" d="M238 194 C238 194 239.3681 189.7771 241 189 C247.1811 186.0566 250.0814 184.9181 259 184 C283.1845 181.5104 286.8721 179.7872 309 182 C318.2866 182.9287 320.7522 185.2042 329 191 C338.0692 197.3729 346 208 346 208 "/>
<path id="2" d="M348 210 C348 210 352.5436 213.3154 355 217 C357.1055 220.1582 357.7329 221.1712 358 225 C359.1389 241.324 358 260 358 260 "/>
<path id="3" d="M359 261 C359 261 360.8949 282.9728 358 296 C357.0137 300.4383 349 306 349 306 "/>
<path id="4" d="M237 194 C237 194 234.4489 197.6642 232 199 C229.9256 200.1315 226.9822 198.9285 226 200 C223.6453 202.5688 222.1446 205.7349 221 211 C219.8636 216.2272 221.8803 218.3051 221 223 C220.6653 224.7851 218 227 218 227 "/>
<path id="5" d="M218 227 L218 270 "/>
<path id="6" d="M218 270 C218 270 222.0382 274.7681 223 279 C224.2335 284.4274 221.7788 287.6036 223 292 C223.6002 294.1606 226.4816 294.3429 228 297 C230.0705 300.6234 231 306 231 306 "/>
<path id="7" d="M231 305 C231 305 235.9221 314.1169 242 318 C251.8821 324.3135 255.0937 326.6771 267 328 C292.4845 330.8316 298.3159 329.5789 323 327 C328.1154 326.4656 329.9012 324.6434 334 321 C337.9873 317.4558 337.0127 314.5442 341 311 C345.0988 307.3566 352 305 352 305 "/>
</g>
</g>
</svg>
