<?xml version="1.0" encoding="utf-8"?>
<!DOCTYPE svg PUBLIC "-//W3C//DTD SVG 1.1//EN" "http://www.w3.org/Graphics/SVG/1.1/DTD/svg11.dtd">
<svg viewBox="0 0 800 800" preserveAspectRatio="xMinYMin meet" xmlns="http://www.w3.org/2000/svg" version="1.1">
<g fill="none" stroke="black" stroke-linecap="round" stroke-linejoin="round" stroke-width="0.71525">
<g transform="translate(108.4918,87.52) scale(4.1944) translate(-225,-132)">
<path id="0" d="M226,227C226,227 222.4438365910348,207.80173743723944 225,192C227.56371644563163,176.15157106336812 229.3755817571653,173.07584906369487 237,159C241.35910832027048,150.9524154087314 243.3491887108384,149.68345981480576 251,144C259.87667991617496,137.40589491941287 261.92406732043844,135.23909615101368 272,133C286.2782173989996,129.8270628002223 289.68965081531934,130.4989853740509 305,132C313.64970859778145,132.84801064684132 314.6241198217635,134.2173444356351 323,138C329.71896930185636,141.03437323309643 331.20670618279695,141.05208380159686 336,146C345.6447763302143,155.95589814731798 348.25029123880955,157.6487737722575 354,170C360.7814722609355,184.56760707904667 360.041743916486,187.13794032397016 363,204C364.9269508315197,214.9836197396624 366.1464401149246,217.24345402306997 364,227C361.2071780067443,239.69464542388962 358.98950592930623,242.56262666113523 352,254C348.9237126006937,259.0339248352285 347.40924946413145,259.45018003916374 342,263C331.84038803986317,269.6672453488398 331.2144389716836,269.9535024627424 320,275C311.52777785715875,278.8124999642786 310.77344597790454,279.4517448274286 302,281C294.6346379444752,282.2997697745044 292.39290512100274,283.1763081262988 286,281C271.4374382017584,276.0425321537901 269.28823240706094,273.84509625199007 255,265C248.99528300471596,261.28279424101464 248.96562963129156,260.37943210056585 244,255C237.10118631377813,247.52628517325965 234.6259362017825,246.7353305638027 231,239C228.2202865327212,233.06994460313854 229,223 229,223"/>
<path id="1" d="M281,218C281,218 276.3407149620391,214.12833491142456 275,211C274.0194771173147,208.71211327373427 273.95992829053375,206.6579610353026 275,204C277.9005726555922,196.58742543570887 280.00557253383175,191.77251482915892 284,188C285.6474712360464,186.444054943734 288.80098886008056,186.63486859652875 293,187C299.71841782387105,187.584210245554 302.9648182720149,187.24873973091923 307,190C311.06947505711815,192.77464208439872 313.22680317231066,196.45875991347083 315,202C316.58321145329404,206.94753579154388 316.2577993635142,209.96880254594313 315,215C314.2017811731544,218.19287530738222 312.72696047747854,218.97004391391272 310,222C308.43496181292533,223.73893131897182 307.8105882352941,224.54735294117646 306,225C302.9505882352941,225.76235294117646 301.2617959833115,226.08726532777052 298,225C289.03006104589326,222.0100203486311 279,216 279,216"/>
</g>
</g>
</svg>
