<?xml version="1.0" encoding="utf-8"?>
<!DOCTYPE svg PUBLIC "-//W3C//DTD SVG 1.1//EN" "http://www.w3.org/Graphics/SVG/1.1/DTD/svg11.dtd">
<svg viewBox="0 0 800 800" preserveAspectRatio="xMinYMin meet" xmlns="http://www.w3.org/2000/svg" version="1.1">
<g fill="none" stroke="black" stroke-linecap="round" stroke-linejoin="round" stroke-width="1.0705">
<g transform="translate(87.52,209.4292) scale(2.8025) translate(-133,-140)">
<path id="0" d="M296 140 C296 140 242.7462 136.9442 195 140 C183.4123 140.7416 182.6869 143.4393 171 148 C162.3294 151.3836 161.6944 151.191 154 156 C146.1308 160.9183 142.2194 161.8678 139 168 C133.9542 177.611 134.9754 182.1721 133 196 C132.0416 202.7086 131.5774 203.7762 133 210 C135.3197 220.1485 136.2709 221.2266 141 231 C143.5455 236.2607 143.9113 236.9113 148 241 C154.9748 247.9748 155.4336 249.7168 164 254 C183.9882 263.9941 185.888 263.7393 208 271 C218.9894 274.6085 219.6542 275.3082 231 276 C259.7237 277.7514 262.222 279.2506 290 276 C307.0845 274.0007 308.328 271.538 325 265 C333.282 261.7522 334.0667 261.0424 341 256 C344.4107 253.5195 345.6223 252.6739 347 249 C352.4177 234.5528 353.9447 232.2137 356 216 C358.2876 197.9536 358.9044 193.6839 356 178 C354.6355 170.6319 351.8674 168.7367 346 162 C338.9223 153.8738 337.8273 152.4522 329 147 C322.0409 142.7018 320.2474 142.0309 312 141 C297.5961 139.1995 281 141 281 141 "/>
<path id="1" d="M269 171 C269 171 257.9087 167.7934 247 167 C230.8505 165.8255 229.09 164.6174 214 167 C202.3757 168.8354 199.7587 170.3814 190 176 C185.0649 178.8414 182.8919 181.1841 181 186 C178.3742 192.6837 177.8832 198.4162 179 204 C179.533 206.665 182.2119 208.8589 186 211 C192.7043 214.7894 193.9583 215.3246 202 217 C217.3064 220.1888 218.0639 220.2032 234 221 C257.7556 222.1878 262.3899 224.922 282 221 C292.1319 218.9736 294.5658 214.2571 304 207 C306.4804 205.092 307.3507 203.7594 308 201 C309.0289 196.627 309.6953 193.3907 308 190 C304.6864 183.3727 301.8974 178.966 295 175 C284.921 169.2046 281.2235 169.1589 268 167 C257.7225 165.322 246 167 246 167 "/>
<path id="2" d="M256 237 L261 237 "/>
<path id="3" d="M307 225 L309 222 "/>
<path id="4" d="M329 192 L329 184 "/>
<path id="5" d="M178 172 L181 168 "/>
<path id="6" d="M160 225 L167 226 "/>
<path id="7" d="M187 230 L194 231 "/>
</g>
</g>
</svg>
