<?xml version="1.0" encoding="utf-8"?>
<!DOCTYPE svg PUBLIC "-//W3C//DTD SVG 1.1//EN" "http://www.w3.org/Graphics/SVG/1.1/DTD/svg11.dtd">
<svg viewBox="0 0 800 800" preserveAspectRatio="xMinYMin meet" xmlns="http://www.w3.org/2000/svg" version="1.1">
<g fill="none" stroke="black" stroke-linecap="round" stroke-linejoin="round" stroke-width="1.6897">
<g transform="translate(87.52,125.6923) scale(1.7755) translate(-153,-127)">
<path id="0" d="M363 131 C363 131 349.3287 127.272 336 127 C301.0763 126.2873 299.1714 124.8759 265 129 C242.7207 131.6889 235.1985 135.826 220 141 C218.9591 141.3543 219.3778 143.9931 218 145 C208.2152 152.1504 201.7892 151.2121 194 160 C184.9174 170.247 187.192 175.8216 179 189 C176.227 193.461 173.0006 192.614 171 197 C161.1746 218.5404 158.0286 222.2537 153 246 C149.5721 262.1871 151.2877 264.3629 153 282 C156.233 315.3002 155.8373 317.484 163 349 C165.4064 359.588 167.1888 360.3147 173 370 C177.4337 377.3895 177.6455 378.786 184 384 C196.0859 393.9167 197.5233 394.9951 212 402 C227.698 409.5958 228.8299 409.7075 246 414 C268.2747 419.5687 269.5344 416.6511 292 422 C311.1605 426.562 311.0911 429.5131 330 434 C339.9409 436.3589 340.5242 435.581 351 436 C365.4117 436.5765 376.4796 436.607 380 436 C380.1046 435.982 379.8025 431.0486 380 431 C390.8652 428.3255 413.7589 427.5636 445 420 C460.1929 416.3217 460.5864 414.704 475 408 C481.7734 404.8496 486.3916 403.7845 488 400 C492.0077 390.5702 489.0323 383.4981 492 368 C493.4453 360.4522 496.2517 360.389 497 353 C500.103 322.3583 497.2775 320.649 500 289 C501.2469 274.5048 504.5787 274.1142 505 260 C505.548 241.6436 505.0012 240.0075 502 222 C500.6748 214.0486 500.3502 211.4377 496 206 C490.0603 198.5754 485.2682 199.559 478 192 C473.6516 187.4776 474.1864 183.7658 471 180 C470.2205 179.0788 468.079 179.996 467 179 C462.802 175.125 463.1117 172.4521 458 168 C448.1138 159.3894 446.6768 157.6524 436 152 C431.4242 149.5775 426.512 150 424 150 C423.7907 150 423.0171 152.0072 423 152 C416.204 149.1248 372 128 372 128 "/>
<path id="1" d="M305 213 C305 213 298.6829 211.0066 294 212 C283.7133 214.182 281.0459 214.4002 272 220 C261.5477 226.4705 260.6082 228.4695 252 238 C247.1723 243.3449 247.03 244.3891 244 251 C241.7502 255.9086 241.8287 256.4751 241 262 C238.8685 276.2103 238 276.9079 238 291 C238 301.6906 237.5114 304.3948 241 313 C243.985 320.363 246.3043 321.4903 253 328 C263.9426 338.6386 265.0026 343.8211 277 348 C303.6676 357.2887 309.7285 356.0169 342 359 C368.3973 361.4401 370.3962 359.8535 396 359 C398.8765 358.9041 399.948 358.6789 402 357 C409.8173 350.604 412.5962 349.1057 418 341 C421.3774 335.9339 421.5164 333.8674 422 327 C423.9326 299.5574 423.4197 297.7004 423 270 C422.9335 265.6104 422.7972 264.8939 421 261 C417.0852 252.518 416.5992 249.5992 411 244 C407.0598 240.0598 403.4773 241.9711 398 238 C384.212 228.0037 383.9319 220.1347 371 215 C355.7575 208.9478 348.4741 209.8454 330 211 C319.3462 211.6659 307 219 307 219 "/>
<path id="2" d="M251 172 L243 174 "/>
<path id="3" d="M194 227 L195 232 "/>
<path id="4" d="M262 222 C262 222 266.4172 218.4771 267 216 C267.8743 212.2844 266 205 266 205 "/>
<path id="5" d="M293 179 C293 179 296.5593 175.4746 300 174 C302.7956 172.8019 307 173 307 173 "/>
<path id="6" d="M405 171 C405 171 416.5045 169.631 427 171 C438.8229 172.5421 451 177 451 177 "/>
<path id="7" d="M470 187 C470 187 475.2221 192.4282 477 197 C478.118 199.8748 477 205 477 205 "/>
<path id="8" d="M468 309 L466 317 "/>
<path id="9" d="M439 364 L435 369 "/>
<path id="10" d="M355 399 L352 400 "/>
<path id="11" d="M252 410 L237 410 "/>
<path id="12" d="M180 394 L180 388 "/>
<path id="13" d="M195 349 L196 349 "/>
<path id="14" d="M193 300 L195 293 "/>
<path id="15" d="M246 327 L246 340 "/>
<path id="16" d="M271 365 L309 367 "/>
<path id="17" d="M355 368 L418 373 "/>
<path id="18" d="M449 294 C449 294 452.0329 274.7781 450 262 C449.1526 256.6735 442 250 442 250 "/>
<path id="19" d="M424 228 C424 228 422.1914 222.4205 421 222 C417.7407 220.8497 407 222 407 222 "/>
<path id="20" d="M343 191 L344 191 "/>
</g>
</g>
</svg>
