<?xml version="1.0" encoding="utf-8"?>
<!DOCTYPE svg PUBLIC "-//W3C//DTD SVG 1.1//EN" "http://www.w3.org/Graphics/SVG/1.1/DTD/svg11.dtd">
<svg viewBox="0 0 800 800" preserveAspectRatio="xMinYMin meet" xmlns="http://www.w3.org/2000/svg" version="1.1">
<g fill="none" stroke="black" stroke-linecap="round" stroke-linejoin="round" stroke-width="0.99846">
<g transform="translate(90.5246,87.52) scale(3.0046) translate(-166,-148)">
<path id="0" d="M214 161 C214 161 216.2288 157.5664 219 156 C226.975 151.4924 228.7574 148.5805 237 148 C260.4396 146.3493 265.5193 146.5218 290 151 C304.2614 153.6088 306.3123 155.5529 319 163 C328.0834 168.3316 328.4026 169.8467 336 178 C348.6529 191.5788 352.4946 191.9892 360 207 C368.9699 224.9397 369.2761 228.8895 372 250 C375.0573 273.6939 375.5741 278.5551 372 300 C370.2844 310.2935 367.1736 312.5123 360 322 C352.2971 332.1877 351.0168 332.7509 341 341 C334.5206 346.336 333.6089 347.0907 326 350 C317.5295 353.2387 316.4318 353.4043 307 354 C269.7061 356.3554 264.0076 358.1763 231 356 C224.2445 355.5546 222.8236 352.6912 216 348 C207.1377 341.9072 206.3617 341.7596 199 334 C188.255 322.6742 186.3464 322.1345 179 309 C170.6213 294.0199 168.5759 291.446 166 275 C162.4975 252.6377 164.4765 250.0714 166 226 C166.9426 211.107 166.3162 208.7504 171 196 C174.4979 186.478 176.6312 185.2899 184 177 C192.1727 167.8057 193.4217 168.381 203 160 C205.4034 157.897 205.5492 156.7352 208 156 C214.1665 154.1501 223 154 223 154 "/>
<path id="1" d="M224 199 C224 199 230.7145 194.9821 237 194 C245.6658 192.646 247.3059 192.4395 256 194 C265.7265 195.7458 267.2046 196.1345 276 201 C289.8202 208.6452 292.809 209.1296 303 220 C313.5503 231.2536 312.9786 234.4851 321 249 C323.195 252.972 323.7102 253.6524 324 258 C325.1342 275.0125 325.9877 278.0986 324 294 C323.296 299.6317 321.6452 300.6281 318 306 C312.3701 314.2967 312.0273 317.6079 305 322 C295.0319 328.2301 291.1519 328.4815 278 331 C268.8424 332.7536 265.1014 333.663 258 331 C248.9014 327.588 246.6541 324.4574 238 316 C225.1749 303.4664 223.4987 302.0843 214 288 C210.0505 282.1439 209.5415 280.2568 209 273 C207.1682 248.4538 207.4757 245.7692 209 221 C209.3883 214.6905 209.8964 212.0164 213 208 C216.6735 203.2461 226 199 226 199 "/>
</g>
</g>
</svg>
