<?xml version="1.0" encoding="utf-8"?>
<!DOCTYPE svg PUBLIC "-//W3C//DTD SVG 1.1//EN" "http://www.w3.org/Graphics/SVG/1.1/DTD/svg11.dtd">
<svg viewBox="0 0 800 800" preserveAspectRatio="xMinYMin meet" xmlns="http://www.w3.org/2000/svg" version="1.1">
<g fill="none" stroke="black" stroke-linecap="round" stroke-linejoin="round" stroke-width="1.3777">
<g transform="translate(87.52,178.9776) scale(2.1776) translate(-114.8,-120.8)">
<path id="0" d="M118.8 191.8 C118.8 191.8 119.0708 187.5868 120.8 185.8 C132.1523 174.0693 133.8126 170.7212 148.8 160.8 C168.1656 147.9805 170.0821 145.8915 191.8 138.8 C217.0153 130.5664 219.5256 130.8662 246.8 128.8 C284.4653 125.9466 287.4484 125.4341 323.8 128.8 C338.8722 130.1956 340.0688 132.6852 354.8 138.8 C366.1073 143.4936 367.2525 143.9377 376.8 150.8 C382.3824 154.8123 383.7517 156.1388 386.8 161.8 C389.9915 167.727 388.0482 169.9204 390.8 176.8 C392.8556 181.939 395.2474 182.1421 396.8 186.8 C397.8351 189.9052 396.0124 191.256 396.8 194.8 C397.872 199.6238 400.4291 200.1023 400.8 204.8 C401.8038 217.5149 401.6501 219.3208 399.8 232.8 C398.2335 244.2127 398.146 245.2781 393.8 255.8 C388.9608 267.5159 388.3709 269.3364 380.8 278.8 C375.3598 285.6002 373.8545 286.568 365.8 290.8 C345.3914 301.5232 344.1603 302.1136 321.8 309.8 C296.6602 318.4418 295.0712 320.8558 269.8 323.8 C245.8784 326.587 243.4111 325.2803 218.8 321.8 C194.95 318.4273 193.9617 317.2117 170.8 309.8 C157.0209 305.3907 156.2347 304.8652 143.8 297.8 C134.8333 292.7053 132.4045 290.9944 126.8 284.8 C124.8629 282.6589 126.3526 279.9052 124.8 276.8 C123.7649 274.7298 121.0092 274.4739 120.8 272.8 C118.7425 256.3399 120.4077 247.6903 118.8 228.8 C118.6846 227.4442 116.8465 227.0547 116.8 225.8 C116.4378 216.0194 118.4692 211.1688 117.8 201.8 C117.6821 200.15 114.7317 199.0296 114.8 197.8 C115.0534 193.238 116.1641 189.0718 118.8 183.8 C119.8708 181.6583 123.8 179.8 123.8 179.8 "/>
<path id="1" d="M214.8 186.8 C214.8 186.8 218.7583 182.3156 222.8 180.8 C229.5526 178.2677 230.8784 178.2484 238.8 177.8 C256.9264 176.774 258.1439 176.673 275.8 177.8 C280.6633 178.1104 282.4701 178.4495 285.8 180.8 C289.4693 183.3901 292.3117 185.975 292.8 189.8 C294.6692 204.4418 291.8 227.8 291.8 227.8 "/>
<path id="2" d="M214.8 189.8 C214.8 189.8 207.7823 190.523 206.8 191.8 C205.2895 193.7636 204.9024 202.5697 204.8 202.8 C204.7904 202.8215 202.7999 200.7999 202.8 200.8 C202.8002 200.8003 206.1174 203.9329 206.8 206.8 C208.2962 213.0839 206.0089 215.6589 207.8 221.8 C209.0592 226.1172 210.4116 228.8137 213.8 230.8 C222.1208 235.6777 225.6352 237.4467 236.8 238.8 C256.829 241.2277 259.8449 239.6315 279.8 238.8 C282.159 238.7017 283.9881 237.9599 284.8 236.8 C286.1876 234.8176 285.1746 232.0509 286.8 228.8 C288.3351 225.7297 291.8 222.8 291.8 222.8 "/>
<path id="3" d="M125.8 231.8 C125.8 231.8 132.5874 238.1555 138.8 239.8 C147.5387 242.1132 156.2326 238.2167 159.8 240.8 C163.492 243.4735 162.9938 253.4493 167.8 260.8 C170.0639 264.2624 173.3116 266.5886 176.8 266.8 C185.6507 267.3364 197.3025 262.8 200.8 262.8 C200.9457 262.8 200.77 265.7158 201.8 266.8 C208.6872 274.0497 211.8082 279.1466 219.8 282.8 C225.167 285.2535 230.862 284.8476 236.8 282.8 C242.196 280.9393 243.405 274.875 248.8 272.8 C253.5665 270.9667 256.3083 271.8013 262.8 272.8 C268.6497 273.6999 272.3746 275.5873 274.8 276.8 C274.9732 276.8866 274.7126 278.7757 274.8 278.8 C277.7632 279.6231 291.5911 282.6462 292.8 281.8 C293.8568 281.0602 295.2331 266.2727 294.8 264.8 C294.7457 264.6152 288.0406 264.8802 287.8 264.8 C287.7885 264.7962 288.408 262.8746 288.8 262.8 C294.585 261.6981 299.8494 260.4803 308.8 260.8 C312.4412 260.93 312.876 263.2937 316.8 263.8 C327.6212 265.1963 331.1061 265.7315 339.8 264.8 C341.8616 264.5791 344.1953 262.4931 344.8 260.8 C345.8451 257.8737 343.906 255.27 344.8 250.8 C345.7655 245.9724 346.2674 243.7546 348.8 240.8 C350.8476 238.4111 353.007 237.5225 356.8 236.8 C362.4277 235.728 365.4036 238.0212 369.8 236.8 C371.9606 236.1998 373.9996 234.2013 374.8 231.8 C376.8011 225.7966 376.7957 215.8187 376.8 215.8 C376.8007 215.7968 377.7997 218.8 377.8 218.8 C377.8 218.8 377.2603 216.5359 377.8 215.8 C381.4097 210.8777 386.9297 208.8498 388.8 203.8 C390.5022 199.2039 386.8214 193.6929 387.8 188.8 C388.1967 186.8164 392.6141 185.3803 392.8 183.8 C393.1875 180.5062 389.8 171.8 389.8 171.8 "/>
<path id="4" d="M130.8 232.8 C130.8 232.8 118.9076 234.0933 118.8 233.8 C117.8309 231.1571 117.6194 217.5193 119.8 202.8 C121.4828 191.4411 122.3665 188.3714 126.8 179.8 C128.4884 176.5357 134.5573 174.0831 134.8 173.8 C134.8135 173.7843 132.7862 172.8055 132.8 172.8 C133.0144 172.7142 147.4554 170.2592 154.8 165.8 C158.1775 163.7494 159.4891 159.9948 160.8 155.8 C161.4278 153.7909 159.2342 151.3558 159.8 149.8 C160.4844 147.9179 162.7442 145.1212 164.8 144.8 C174.4011 143.2998 179.0723 145.8606 191.8 144.8 C196.1604 144.4366 196.9536 143.9369 200.8 141.8 C205.4478 139.2179 209.8 134.8 209.8 134.8 "/>
<path id="5" d="M215.8 130.8 C215.8 130.8 221.4588 125.2823 225.8 124.8 C236.2911 123.6343 239.8349 127.1418 251.8 126.8 C255.9904 126.6803 258.2588 125.3247 260.8 123.8 C261.4588 123.4047 261.4433 120.8892 261.8 120.8 C264.042 120.2395 269.6417 119.3963 272.8 120.8 C275.8307 122.1469 276.7743 127.2871 279.8 128.8 C282.2756 130.0378 284.9743 129.7001 288.8 128.8 C292.6007 127.9057 293.0244 125.3808 296.8 124.8 C304.6882 123.5864 306.2761 123.7345 314.8 124.8 C321.6664 125.6583 327.861 128.6659 328.8 128.8 C328.8184 128.8026 328.7068 126.8274 328.8 126.8 C331.6345 125.9663 341.6915 122.0392 345.8 123.8 C352.523 126.6813 355.0726 136.8466 363.8 141.8 C370.2034 145.4344 378.6161 142.2533 382.8 144.8 C384.9487 146.1079 385.8627 150.3637 386.8 155.8 C388.2571 164.2512 385.1892 168.2053 387.8 173.8 C390.3543 179.2735 396.7398 180.2897 400.8 185.8 C402.2557 187.7756 401.8 192.8 401.8 192.8 "/>
</g>
</g>
</svg>
