<?xml version="1.0" encoding="utf-8"?>
<!DOCTYPE svg PUBLIC "-//W3C//DTD SVG 1.1//EN" "http://www.w3.org/Graphics/SVG/1.1/DTD/svg11.dtd">
<svg viewBox="0 0 800 800" preserveAspectRatio="xMinYMin meet" xmlns="http://www.w3.org/2000/svg" version="1.1">
<g fill="none" stroke="black" stroke-linecap="round" stroke-linejoin="round" stroke-width="0.89766">
<g transform="translate(112.5852,87.52) scale(3.342) translate(-208,-97.4167)">
<path id="0" d="M306 98.4167 C306 98.4167 292.6839 99.0384 280 101.4167 C268.9576 103.4871 268.2183 103.67 258 107.4167 C253.848 108.9391 253.6725 109.5788 250 112.4167 C242.7957 117.9836 242.2803 117.9121 236 124.4167 C228.4891 132.1958 227.8613 132.4973 222 141.4167 C216.65 149.5579 216.1231 150.2705 213 159.4167 C209.3383 170.1402 208.997 171.0508 208 182.4167 C206.5537 198.904 205.1644 201.4652 208 216.4167 C210.1756 227.888 212.3022 229.9682 219 240.4167 C224.1713 248.4838 225.4155 248.8302 233 255.4167 C244.1219 265.0752 244.714 265.6571 257 273.4167 C263.1795 277.3195 263.9047 277.3894 271 279.4167 C280.9979 282.2732 281.5305 282.3697 292 283.4167 C306.2365 284.8403 308.0347 286.2689 321 284.4167 C330.4994 283.0596 333.3125 282.1414 341 276.4167 C354.9509 266.0277 357.2272 263.4811 368 249.4167 C374.0762 241.4838 373.6462 239.4782 377 229.4167 C379.4789 221.9799 379.6655 221.2772 380 213.4167 C380.6421 198.3281 380.9056 197.3889 379 182.4167 C377.484 170.5053 377.0894 169.8239 373 158.4167 C367.7363 143.7337 368.0097 142.0772 360 129.4167 C353.2462 118.7413 351.7356 116.2759 342 109.4167 C331.7611 102.2029 328.721 102.0512 316 98.4167 C308.8912 96.3856 300 97.4167 300 97.4167 "/>
<path id="1" d="M301 177.4167 C301 177.4167 293.8976 176.9551 290 178.4167 C287.6443 179.3 285.7583 181.0333 285 183.4167 C282.9708 189.7943 281.7707 195.2947 283 200.4167 C283.7382 203.4923 287.5106 207.3001 291 208.4167 C296.6175 210.2143 302.0241 209.5549 308 208.4167 C309.6739 208.0978 311.616 206.1831 312 204.4167 C313.5154 197.4457 314.8818 191.8983 313 185.4167 C311.5011 180.2537 306.8269 176.9492 303 173.4167 C302.4553 172.9139 300 173.4167 300 173.4167 "/>
</g>
</g>
</svg>
