<?xml version="1.0" encoding="utf-8"?>
<!DOCTYPE svg PUBLIC "-//W3C//DTD SVG 1.1//EN" "http://www.w3.org/Graphics/SVG/1.1/DTD/svg11.dtd">
<svg viewBox="0 0 800 800" preserveAspectRatio="xMinYMin meet" xmlns="http://www.w3.org/2000/svg" version="1.1">
<g fill="none" stroke="black" stroke-linecap="round" stroke-linejoin="round" stroke-width="1.3633">
<g transform="translate(87.52,149.1358) scale(2.2006) translate(-204,-150.4167)">
<path id="0" d="M295 243.4167 C295 243.4167 294.3725 236.8924 296 232.4167 C297.94 227.0816 299.1293 225.8829 303 221.4167 C305.0866 219.0091 305.897 218.545 309 217.4167 C316.2655 214.7747 317.1187 214.2924 325 213.4167 C334.5853 212.3516 337.1026 211.4423 345 213.4167 C350.5282 214.7987 352.5824 216.7782 357 221.4167 C361.6883 226.3393 363.8285 228.5594 365 234.4167 C366.7492 243.1625 367.0265 249.7963 364 256.4167 C361.3239 262.2706 355.8436 267.3338 349 269.4167 C337.6987 272.8562 331.6727 271.9704 318 270.4167 C311.9434 269.7284 310.5796 268.0434 305 264.4167 C301.1867 261.938 299.3912 260.8173 298 257.4167 C295.769 251.9631 296 242.4167 296 242.4167 "/>
<path id="1" d="M208 241.4167 C208 241.4167 206.0915 238.2529 206 235.4167 C205.6233 223.7398 202.8984 218.073 207 210.4167 C214.4747 196.4639 220.9303 192.812 236 179.4167 C242.395 173.7322 243.7687 173.7936 252 170.4167 C262.8143 165.98 263.3896 166.3193 275 163.4167 C295.2889 158.3444 295.4428 157.933 316 154.4167 C333.2444 151.467 333.5583 151.2279 351 150.4167 C376.2807 149.2408 377.187 148.9782 402 150.4167 C410.8703 150.9309 412.6954 150.5576 420 154.4167 C437.3159 163.5647 440.0309 165.2805 455 178.4167 C463.1902 185.604 463.7065 187.4178 469 197.4167 C476.7929 212.1366 479.6798 214.1421 482 229.4167 C485.1993 250.479 482.9207 254.5202 481 276.4167 C480.5778 281.23 479.4967 281.7799 477 286.4167 C472.607 294.5751 473.0164 296.4002 467 302.4167 C458.6696 310.7471 456.7078 312.8865 446 317.4167 C432.7019 323.0428 430.2826 323.6379 415 324.4167 C353.5654 327.5471 350.6479 327.6999 289 325.4167 C271.2542 324.7594 270.5631 322.8819 253 318.4167 C241.3622 315.4579 239.8551 315.7438 230 310.4167 C222.6111 306.4227 222.1364 304.8453 216 298.4167 C211.964 294.1885 211.3075 293.6086 209 288.4167 C205.6169 280.8047 204.2373 279.486 204 271.4167 C203.2953 247.4578 207 220.4167 207 220.4167 "/>
<path id="2" d="M206 286.4167 C206 286.4167 209.997 304.0573 212 321.4167 C212.954 329.6848 209.7004 333.489 212 338.4167 C214.6423 344.0787 218.6148 345.9461 226 351.4167 C231.6836 355.6268 232.3727 355.9867 239 358.4167 C246.8619 361.2994 247.9639 359.4945 256 362.4167 C275.0807 369.3551 275.8605 376.3871 294 378.4167 C341.8672 383.7724 346.662 379.4921 399 378.4167 C419.4675 377.9961 426.1198 377.6249 440 375.4167 C441.2169 375.2231 441.3398 372.2468 443 371.4167 C448.8107 368.5113 451.9393 369.8423 458 366.4167 C462.2573 364.0104 461.6648 361.3068 466 358.4167 C471.5274 354.7318 474.9621 356.2623 479 352.4167 C483.603 348.0329 485.8331 345.0293 487 338.4167 C489.8149 322.4656 488.7561 319.753 488 301.4167 C486.7682 271.5466 483 241.4167 483 241.4167 "/>
</g>
</g>
</svg>
