<?xml version="1.0" encoding="utf-8"?>
<!DOCTYPE svg PUBLIC "-//W3C//DTD SVG 1.1//EN" "http://www.w3.org/Graphics/SVG/1.1/DTD/svg11.dtd">
<svg viewBox="0 0 800 800" preserveAspectRatio="xMinYMin meet" xmlns="http://www.w3.org/2000/svg" version="1.1">
<g fill="none" stroke="black" stroke-linecap="round" stroke-linejoin="round" stroke-width="3.0194">
<g transform="translate(87.52,218.6722) scale(0.99358) translate(-1,-63)">
<path id="0" d="M174 111 C174 111 180.7129 110.4205 185 112 C188.8504 113.4186 190.5136 114.3991 193 118 C203.8958 133.7802 204.4805 136.2027 214 154 C215.6264 157.0407 215.5708 157.5668 216 161 C216.5327 165.2619 216.0809 169.6765 216 170 C215.9955 170.018 214 169 214 169 "/>
<path id="1" d="M172 111 C172 111 166.84 110.3376 164 112 C148.63 120.9971 142.9769 122.2586 131 135 C122.096 144.4723 120.5436 149.0067 117 162 C113.7491 173.9201 116 190 116 190 C116 190 114.7737 181.0074 117 177 C120.5768 170.5618 131 163 131 163 "/>
<path id="2" d="M126 187 C126 187 133.5382 185.2309 140 182 C149.2032 177.3984 157.9447 171.0242 158 171 C158.0091 170.996 156 175 156 175 "/>
<path id="3" d="M146 197 C146 197 158.7 193.5542 170 188 C187.8226 179.2397 205 168 205 168 "/>
<path id="4" d="M126 170 C126 170 116.2131 192.437 110 214 C108.046 220.7817 109 229 109 229 C109 229 108.662 220.8451 111 215 C114.1595 207.1012 116.9477 207.1047 121 199 C123.2191 194.5617 123.0471 190.9059 124 189 C124.0829 188.8343 125.995 188.965 126 189 C126.245 190.715 126.9987 196.5083 126 203 C125.1 208.8497 123.0261 209.0484 122 215 C120.6114 223.0541 120.9974 232.0035 121 232 C121.0063 231.9916 131.808 203.3839 134 199 C134.0277 198.9445 136.5243 199.3341 137 200 C138.1243 201.5741 138.7928 203.099 139 206 C139.7421 216.3897 138.9792 228.0069 139 228 C139.0776 227.9741 149.2772 213.9747 157 200 C159.3726 195.7068 158.8224 191.6823 160 190 C160.2725 189.6107 164 190 164 190 "/>
<path id="5" d="M151 157 C151 157 152.704 151.1269 153 151 C153.2405 150.8969 157.4867 152.6068 158 154 C159.7742 158.8157 160.3498 168.6008 160 170 C159.9661 170.1354 154.9916 170.8113 154 170 C151.9568 168.3283 150.3203 165.225 149 161 C148.125 158.2 148.9306 154.0347 149 154 C149.0793 153.9603 153.2653 156.0175 155 158 C155.9142 159.0449 156.0127 161.9873 156 162 C155.9958 162.0042 153 160 153 160 "/>
<path id="6" d="M173 111 C173 111 173.1807 108.5814 174 108 C185.3859 99.9197 189.1084 96.8004 204 89 C209.0585 86.3503 210.106 86.4019 216 86 C231.454 84.9463 238.568 83.2394 248 86 C251.688 87.0794 254.3245 91.62 257 98 C266.6897 121.1063 266.9636 123.1874 274 148 C276.2548 155.9511 277.2293 159.878 276 165 C275.2618 168.0757 272.2871 170.3461 268 173 C262.6726 176.2979 261.153 177.5757 255 178 C234.2833 179.4287 230.4301 179.4657 210 177 C203.7859 176.25 197.2632 171.4137 197 171 C196.9782 170.9657 203 166 203 166 "/>
<path id="7" d="M256 87 C256 87 260.2875 83.0421 265 81 C274.7636 76.7691 275.781 76.1039 286 74 C291.9198 72.7812 292.9419 73.1739 299 74 C303.3847 74.5979 306.0528 74.566 308 77 C318.576 90.22 320.3029 95.1991 331 114 C336.7002 124.0185 336.8999 124.3397 341 135 C344.2877 143.5481 344.3705 144.0375 346 153 C347.3083 160.1959 348.4994 164.7013 347 168 C345.763 170.7214 340.9694 174.4903 336 175 C307.543 177.9187 269.1173 176.0081 269 176 C268.9848 175.999 278 171 278 171 "/>
<path id="8" d="M309 75 C309 75 311.8574 71.1785 315 70 C326.4229 65.7164 328.3286 64.1348 341 63 C360.4688 61.2565 363.3442 59.919 382 64 C408.8735 69.8786 410.8619 73.4604 437 84 C440.7369 85.5068 441.8921 86.0046 444 89 C450.4652 98.1874 454.3321 100.7148 456 111 C459.6219 133.3349 461.294 143.9898 456 163 C452.6275 175.1104 443.5133 186.5406 434 190 C417.4469 196.0193 403.3713 194.9736 379 191 C361.3966 188.1299 342 175 342 175 "/>
<path id="9" d="M447 88 C447 88 465.8434 87.0204 483 89 C490.8749 89.9086 492.0971 90.5486 499 94 C504.2238 96.6119 505.1969 97.5257 509 102 C513.1374 106.8675 513.6953 107.7216 516 114 C527.8761 146.352 530.2153 148.169 538 181 C541.2594 194.7464 540.7143 203.4999 539 211 C538.5936 212.7778 534.0875 215.708 530 216 C503.3534 217.9033 497.2659 219.212 469 216 C455.9623 214.5184 453.42 212.173 442 206 C436.571 203.0654 432 196 432 196 "/>
<path id="10" d="M526 140 C526 140 541.6388 152.0244 552 166 C562.2074 179.7681 567.2726 183.2092 569 198 C574.3309 243.6462 569.7191 282.5624 568 303 C567.9563 303.5198 563.3994 305.1889 560 305 C555.6191 304.7566 554.5231 304.193 550 302 C538.4291 296.3899 534.5249 297.2626 527 289 C511.8157 272.327 512.3374 267.8249 499 246 C490.396 231.9207 489.5079 230.0158 483 217 C482.4723 215.9447 482.9871 214.0064 483 214 C483.0086 213.9957 485 216 485 216 "/>
<path id="11" d="M538 305 C538 305 539.941 308.6371 540 312 C540.4192 335.8924 543.5899 339.0506 539 362 C533.1301 391.3497 517.9648 421.1034 518 422 C518.0048 422.1227 530.7066 418.9318 541 413 C559.4081 402.392 558.5244 398.9036 577 388 C588.4637 381.2345 601.2522 379.0709 602 377 C602.7717 374.863 597.152 363.5533 590 352 C577.9329 332.507 563 314 563 314 "/>
<path id="12" d="M569 277 C569 277 617.8655 299.0252 628 315 C635.3896 326.648 630.4157 364.782 628 370 C627.5356 371.0032 603 369 603 369 "/>
<path id="13" d="M537 297 L540 309 "/>
<path id="14" d="M572 247 C572 247 623.3574 256.754 630 265 C635.5421 271.8799 631.2197 294.1989 630 319 C629.8386 322.2827 628.1487 324.6599 627 326 C626.6914 326.36 624 326 624 326 "/>
<path id="15" d="M289 176 C289 176 280.8163 171.977 273 171 C261.7163 169.5895 258.6097 169.9704 249 171 C247.2697 171.1854 245.9528 172.285 245 174 C241.6552 180.0206 240.5511 181.7615 239 189 C237.7618 194.7781 236.9566 198.2739 239 202 C243.2946 209.8313 256 220 256 220 "/>
<path id="16" d="M330 180 C330 180 319.3907 177.0102 312 179 C296.1445 183.2688 282.094 189.7695 278 194 C276.9634 195.0712 279.025 202.8105 282 210 C284.7484 216.6419 286.3964 219.3964 290 223 C291.2012 224.2012 296 224 296 224 "/>
<path id="17" d="M395 192 C395 192 389.8745 194.6152 385 195 C371.6673 196.0526 363.8993 193.2752 357 195 C355.5216 195.3696 353.7592 199.2041 353 203 C351.9648 208.1762 352.7513 209.0311 353 215 C353.2496 220.9897 353.3536 225.4487 354 227 C354.0868 227.2082 358 227 358 227 "/>
<path id="18" d="M444 206 C444 206 411.9977 204.0439 402 206 C400.6287 206.2683 398.226 210.9325 398 215 C397.3411 226.8595 400 242 400 242 "/>
<path id="19" d="M488 230 C488 230 453.5839 226.905 451 229 C449.2054 230.4551 449.3513 247.4696 451 260 C451.4073 263.0954 456 267 456 267 "/>
<path id="20" d="M512 269 C512 269 484.308 266.6249 477 269 C475.0738 269.626 473.4863 275.5593 472 282 C470.6106 288.0207 471.0207 294.9308 471 295 C470.9963 295.0125 469 292 469 292 "/>
<path id="21" d="M208 90 C208 90 199.2687 85.4752 191 85 C157.5183 83.0758 149.6438 81.3363 121 85 C113.8771 85.9111 110.1976 89.8985 105 96 C100.3651 101.4409 98.9893 104.3685 98 112 C95.7766 129.1522 94.9225 132.7184 98 150 C101.0221 166.9701 106.09 167.8151 111 185 C112.8118 191.3413 111.9996 198.9999 112 199 C112.0002 199.0001 114 186 114 186 "/>
<path id="22" d="M200 165 C200 165 202.9789 209.6465 200 248 C199.2599 257.5289 196.8685 258.8039 192 268 C188.1241 275.3212 184.2636 281.9057 182 282 C173.9793 282.3342 147.6229 275.2875 144 270 C140.0649 264.2568 141.4559 247.2395 145 228 C148.0577 211.4009 151.106 206.2212 158 194 C159.6807 191.0205 167 189 167 189 "/>
<path id="23" d="M179 281 C179 281 181.8879 291.0091 181 299 C180.0677 307.3905 175.9047 308.2549 175 317 C173.0566 335.7858 175.8248 338.4415 175 357 C174.8951 359.361 173.6196 361.9256 173 362 C161.5327 363.3761 133.7043 365.6277 125 363 C123.151 362.4418 120.9912 354.3258 120 346 C118.5917 334.1704 117.9382 332.6213 120 321 C123.2125 302.8933 124.3956 301.3801 131 284 C133.5725 277.2303 139 271 139 271 "/>
<path id="24" d="M120 346 C120 346 104.0665 344.4371 90 346 C82.7063 346.8104 81.6054 347.8546 75 351 C71.8149 352.5167 70.7744 353.105 69 356 C62.0542 367.3326 58.9196 369.6479 56 382 C53.0877 394.3212 55.668 410.9311 56 411 C58.7172 411.5639 85.3903 403.1185 109 393 C114.3886 390.6906 114.8011 388.9624 119 384 C125.5296 376.2832 131 367 131 367 "/>
<path id="25" d="M129 373 C129 373 130.3134 379.1843 129 384 C124.6692 399.8797 124.1098 402.1033 117 417 C114.192 422.8835 107.9832 427.9832 108 428 C108.1681 428.1681 118.8636 429.6998 128 428 C139.1868 425.9187 140.5142 425.1084 151 420 C159.3266 415.9434 162.4348 415.3913 167 409 C175.3453 397.3165 176.0032 392.6335 181 378 C182.3965 373.9102 181.8995 370.9232 181 368 C180.6195 366.7632 177 365 177 365 "/>
<path id="26" d="M100 115 C100 115 88.6733 109.1347 78 107 C69.8593 105.3719 68.1694 106.0197 60 107 C56.6596 107.4008 55.0042 107.9958 53 110 C50.1941 112.8059 48.7001 114.7993 48 119 C46.5048 127.971 47.2708 131.2502 48 140 C48.11 141.3194 49.4054 142.9883 50 143 C64.1401 143.2773 99 141 99 141 "/>
<path id="27" d="M50 143 C50 143 45.2249 143.2263 42 145 C35.9932 148.3037 33.2378 149.0581 30 154 C25.279 161.2057 24.7662 164.5802 23 174 C22.0211 179.221 22.7856 183.5712 24 186 C24.4858 186.9715 27.2107 188 30 188 C45.8058 188 53.16 188.5015 64 186 C66.0809 185.5198 67.7145 182.6423 69 179 C73.3225 166.753 76 152 76 152 "/>
<path id="28" d="M32 192 C32 192 27.2305 190.5385 24 191 C21.3568 191.3776 19.7034 191.9772 18 194 C12.8341 200.1345 11.6977 201.7345 8 210 C3.461 220.1459 2.12 221.2801 1 232 C-1.2172 253.2216 -0.81085 256.3563 1 277 C1.5005 282.7062 4.3013 287.4429 6 289 C6.6459 289.592 10.8816 289.3037 13 288 C15.8674 286.2355 17.4868 284.7831 19 281 C31.4923 249.7692 32.1754 246.7228 43 213 C44.9506 206.9231 45 200 45 200 "/>
<path id="29" d="M60 187 C60 187 67.5666 199.8959 69 212 C71.8045 235.6828 71.1377 239.4856 69 263 C68.3484 270.1675 66.6548 271.6041 63 278 C61.1301 281.2723 58.6483 283.6196 57 284 C55.5921 284.3249 50.9159 282.7707 50 281 C45.8309 272.9398 43.1793 267.6776 42 255 C39.3542 226.5581 41.9778 195.6426 42 195 C42.0007 194.9793 44 197 44 197 "/>
<path id="30" d="M121 167 C121 167 106.1375 204.1828 94 241 C91.3662 248.9891 91.0003 257.9963 91 258 C90.9999 258.0009 91.6347 255.1703 93 254 C97.7427 249.9348 100.6361 250.5936 105 246 C109.1952 241.584 109.0608 240.1457 112 234 C114.4729 228.8293 114.9084 228.4582 116 223 C117.3137 216.4317 117.0012 208.998 117 209 C116.9969 209.005 110.1297 224.0695 106 239 C103.8062 246.9316 103.8584 255.8938 104 256 C104.1054 256.079 111.9868 252.5815 118 248 C121.9185 245.0144 122.4853 244.3734 125 240 C133.6159 225.0158 141 207.9998 141 208 C141 208.0004 131.576 231.8152 124 256 C118.627 273.1523 115 291 115 291 C115 291 115.1584 286.157 117 283 C121.6206 275.0789 125.133 275.4064 129 267 C136.0187 251.7419 136.2898 249.5272 140 233 C141.526 226.2023 140 218 140 218 "/>
<path id="31" d="M226 177 L227 192 "/>
<path id="32" d="M275 178 C275 178 268.3358 178.8126 267 180 C266.1348 180.7691 266 186 266 186 "/>
<path id="33" d="M346 179 L339 192 "/>
<path id="34" d="M223 178 C223 178 228.2642 182.6101 234 185 C245.6777 189.8657 246.7979 190.7814 259 193 C267.7637 194.5934 269.4958 193.405 278 193 C278.9165 192.9564 279.9199 192.3604 280 192 C280.4435 190.0041 279.9847 183.9949 280 184 C280.0728 184.0243 284.1363 190.4224 289 195 C292.1932 198.0054 292.7965 198.3902 297 200 C315.645 207.1407 317.1249 208.2812 336 213 C341.8077 214.4519 345.0865 214.7937 349 213 C353.8291 210.7866 359.4515 202.1175 360 202 C360.0528 201.9887 360.8209 206.8151 363 210 C366.8677 215.6528 367.4284 216.6472 373 221 C382.8696 228.7106 383.7269 228.9299 395 235 C402.9264 239.2681 403.6115 239.6859 412 242 C417.4395 243.5006 418.8046 244.0391 424 243 C434.8311 240.8338 444.0707 233.5013 447 235 C452.4767 237.802 456.0867 253.5123 467 265 C473.0357 271.3534 475.9743 271.6476 485 275 C492.5293 277.7966 496.7544 275.1586 502 278 C505.4971 279.8942 505.0981 284.9195 509 288 C513.1777 291.2982 521 293 521 293 "/>
<path id="35" d="M75 154 C75 154 77.8911 146.1863 80 145 C82.3054 143.7032 91 145 91 145 "/>
<path id="36" d="M64 413 C64 413 67.852 407.5349 72 405 C75.8083 402.6727 78.3956 403.8022 82 402 C83.097 401.4515 82.9249 399.3961 84 399 C97.8672 393.891 102.4412 391.6443 120 388 C127.7972 386.3817 137 388 137 388 "/>
<path id="37" d="M130 377 L112 426 "/>
</g>
</g>
</svg>
