<?xml version="1.0" encoding="utf-8"?>
<!DOCTYPE svg PUBLIC "-//W3C//DTD SVG 1.1//EN" "http://www.w3.org/Graphics/SVG/1.1/DTD/svg11.dtd">
<svg viewBox="0 0 800 800" preserveAspectRatio="xMinYMin meet" xmlns="http://www.w3.org/2000/svg" version="1.1">
<g fill="none" stroke="black" stroke-linecap="round" stroke-linejoin="round" stroke-width="1.2337">
<g transform="translate(87.52,167.7678) scale(2.4318) translate(-87,-156.1333)">
<path id="0" d="M204 248.1333 C204 248.1333 230.2591 219.4667 259 198.1333 C277.1999 184.6242 280.1514 184.3464 301 176.1333 C311.524 171.9875 324.8263 171.91 325 172.1333 C325.1684 172.3499 321.3514 186.6868 315 194.1333 C309.132 201.0131 304.7012 199.5324 296 206.1333 C290.5551 210.264 289.1165 210.6795 286 216.1333 C279.9087 226.7931 282.6339 230.9455 276 241.1333 C269.743 250.7422 267.6029 251.254 258 259.1333 C248.4797 266.9448 247.5987 267.9772 237 273.1333 C230.1608 276.4605 224.2158 278.1624 221 277.1333 C218.1949 276.2357 215.1328 271.399 212 265.1333 C208.0128 257.1589 206 247.1333 206 247.1333 "/>
<path id="1" d="M296 181.1333 C296 181.1333 296.1193 186.5292 298 189.1333 C301.5734 194.0811 309 199.1333 309 199.1333 "/>
<path id="2" d="M281 187.1333 C281 187.1333 280.8387 190.704 282 192.1333 C286.1457 197.2358 289.0777 199.5236 294 203.1333 C294.7359 203.673 297 203.1333 297 203.1333 "/>
<path id="3" d="M264 196.1333 C264 196.1333 266.3099 202.9246 270 206.1333 C276.4522 211.7439 287 216.1333 287 216.1333 "/>
<path id="4" d="M253 205.1333 C253 205.1333 260.0933 216.0715 268 222.1333 C273.5281 226.3716 283 228.1333 283 228.1333 "/>
<path id="5" d="M313 171.1333 C313 171.1333 307.7782 168.8194 307 167.1333 C305.9654 164.8916 306.203 159.8868 307 158.1333 C307.3784 157.3009 311.838 155.9464 312 156.1333 C313.6615 158.0504 315.735 166.0249 320 173.1333 C321.0565 174.8941 324 176.1333 324 176.1333 "/>
<path id="6" d="M324 176.1333 C324 176.1333 326.221 173.4473 328 173.1333 C333.106 172.2323 335.6297 172.462 341 173.1333 C342.3426 173.3012 343.577 174.2873 344 175.1333 C344.4834 176.1002 344.1181 179.1065 344 179.1333 C341.1127 179.7895 330.5535 180.7913 322 180.1333 C320.3493 180.0064 318 177.1333 318 177.1333 "/>
<path id="7" d="M218 247.1333 C218 247.1333 217.0014 249.1333 217 249.1333 C217 249.1333 217 247.1333 217 247.1333 "/>
<path id="8" d="M224 259.1333 L224 259.1333 "/>
<path id="9" d="M223 258.1333 C223 258.1333 223.9997 261.1337 224 261.1333 C224.0007 261.1327 224 257.1333 224 257.1333 "/>
<path id="10" d="M223 261.1333 C223 261.1333 216.4519 267.7135 212 275.1333 C204.6954 287.3076 202.8369 287.9782 199 301.1333 C192.7751 322.4759 191 347.1333 191 347.1333 "/>
<path id="11" d="M216 248.1333 C216 248.1333 192.8623 253.8216 170 255.1333 C132.5545 257.2818 125.1385 257.0091 94 255.1333 C91.0086 254.9531 87 250.1333 87 250.1333 "/>
<path id="12" d="M284 223.1333 C284 223.1333 288.7421 222.127 290 223.1333 C295.6187 227.6283 304 239.1333 304 239.1333 "/>
<path id="13" d="M279 240.1333 C279 240.1333 284.549 238.8457 288 239.1333 C289.2256 239.2355 290.2203 239.9205 291 241.1333 C294.147 246.0286 297 253.1333 297 253.1333 "/>
<path id="14" d="M271 248.1333 C271 248.1333 276.2179 249.7572 278 252.1333 C281.0344 256.1791 283 264.1333 283 264.1333 "/>
<path id="15" d="M273 188.1333 L253 180.1333 "/>
<path id="16" d="M259 195.1333 C259 195.1333 251.6066 193.1333 245 193.1333 C240.281 193.1333 235 195.1333 235 195.1333 "/>
<path id="17" d="M244 207.1333 L225 205.1333 "/>
<path id="18" d="M251 265.1333 C251 265.1333 254.0475 266.9685 255 269.1333 C258.9821 278.1836 260.3713 279.8957 262 290.1333 C263.694 300.7813 264.8428 303.8944 262 313.1333 C257.8072 326.76 253.0682 333.7059 246 342.1333 C244.2692 344.1969 237.6153 345.0685 236 344.1333 C232.9809 342.3854 226.5291 334.497 227 331.1333 C228.574 319.8906 236.8047 311.5577 243 294.1333 C244.161 290.868 243.9508 289.3661 243 286.1333 C241.7555 281.9022 238 277.1333 238 277.1333 "/>
<path id="19" d="M237 309.1333 C237 309.1333 222.1542 309.079 217 312.1333 C213.52 314.1955 211.4591 319.297 210 325.1333 C208.9366 329.3869 210.9883 336.1317 211 336.1333 C211.0208 336.1363 213.6923 328.2906 217 326.1333 C222.3521 322.6428 234 321.1333 234 321.1333 "/>
<path id="20" d="M232 323.1333 C232 323.1333 229.5013 326.2927 229 329.1333 C228.1555 333.919 227.854 337.2682 229 340.1333 C229.6668 341.8003 232.6899 343.4403 235 344.1333 C236.1872 344.4895 238.0726 344.1226 239 343.1333 C243.9421 337.8618 244.4199 333.1554 250 328.1333 C252.6648 325.735 259 325.1333 259 325.1333 C259 325.1333 252.551 326.5823 250 329.1333 C247.0565 332.0768 247.8314 336.066 245 339.1333 C243.1671 341.119 238.0048 342.1297 238 342.1333 C237.9984 342.1345 239.949 342.6005 241 342.1333 C243.7249 340.9223 245.153 340.4841 247 338.1333 C249.9522 334.376 249.3538 331.0201 252 328.1333 C253.3609 326.6487 258 326.1333 258 326.1333 "/>
<path id="21" d="M245 292.1333 L267 296.1333 "/>
<path id="22" d="M239 306.1333 L265 307.1333 "/>
<path id="23" d="M238 207.1333 C238 207.1333 225.3383 207.3617 214 210.1333 C203.4766 212.7057 202.7746 213.1421 193 218.1333 C179.6854 224.9323 178.6079 224.9346 167 234.1333 C152.7138 245.4545 151.7254 246.5065 140 260.1333 C133.9019 267.2203 132.8276 270.5356 130 277.1333 C129.5256 278.2403 130.5368 280.9017 131 281.1333 C132.0807 281.6737 135.0354 281.9568 138 281.1333 C143.2468 279.6759 144.7509 279.4972 149 276.1333 C155.8411 270.7174 161.918 262.1041 162 262.1333 C162.0798 262.1618 161.9705 271.8677 163 281.1333 C163.4429 285.1197 163.8355 287.3866 165 289.1333 C165.4575 289.8196 168.9879 290.1677 169 290.1333 C169.5505 288.5737 169.1003 280.3653 171 272.1333 C171.9182 268.1545 172.3475 266.9419 175 264.1333 C180.0172 258.821 181.1942 258.3576 188 254.1333 C195.4289 249.5223 196.538 248.976 204 246.1333 C205.9588 245.3871 209 246.1333 209 246.1333 "/>
<path id="24" d="M218 211.1333 C218 211.1333 221.0142 211.1475 222 212.1333 C226.1404 216.2737 231 224.1333 231 224.1333 "/>
<path id="25" d="M203 214.1333 L220 231.1333 "/>
<path id="26" d="M188 225.1333 C188 225.1333 194.5747 225.6016 198 228.1333 C204.5459 232.9716 206.6641 236.4634 211 242.1333 C211.5433 242.8438 211 245.1333 211 245.1333 "/>
<path id="27" d="M235 194.1333 L246 208.1333 "/>
<path id="28" d="M249 180.1333 C249 180.1333 241.0563 174.1494 241 174.1333 C240.9876 174.1298 241.1715 176.3579 242 178.1333 C244.5598 183.6185 244.3443 184.4621 248 189.1333 C252.9823 195.4996 260 201.1333 260 201.1333 "/>
<path id="29" d="M226 257.1333 C226 257.1333 228.0007 258.1326 228 258.1333 C227.9979 258.1354 225 258.1333 225 258.1333 C225 258.1337 227.9771 259.0646 228 259.1333 C228.0153 259.1792 225.9847 261.0875 226 261.1333 C226.0229 261.2021 228.9786 262.1441 229 262.1333 C229 262.1333 228 260.1333 228 260.1333 "/>
<path id="30" d="M218 249.1333 C218 249.1333 222 245.1346 222 245.1333 C222 245.1327 218.6641 246.3032 218 247.1333 C217.6169 247.6122 217.8125 249.9458 218 250.1333 C218.1875 250.3208 220.925 250.2833 221 250.1333 C221.3 249.5333 221 244.1333 221 244.1333 "/>
</g>
</g>
</svg>
