<?xml version="1.0" encoding="utf-8"?>
<!DOCTYPE svg PUBLIC "-//W3C//DTD SVG 1.1//EN" "http://www.w3.org/Graphics/SVG/1.1/DTD/svg11.dtd">
<svg viewBox="0 0 800 800" preserveAspectRatio="xMinYMin meet" xmlns="http://www.w3.org/2000/svg" version="1.1">
<g fill="none" stroke="black" stroke-linecap="round" stroke-linejoin="round" stroke-width="1.2721">
<g transform="translate(87.52,126.4326) scale(2.3583) translate(-135,-121.4167)">
<path id="0" d="M198 216.4167 C198 216.4167 193.9872 215.5454 191 216.4167 C182.8741 218.7867 180.2028 219.0231 174 223.4167 C170.0218 226.2346 168.3978 228.8237 167 233.4167 C165.5019 238.3388 165.9086 241.5055 167 246.4167 C167.4944 248.6414 168.6728 250.1162 171 251.4167 C183.9557 258.6566 201 265.4167 201 265.4167 "/>
<path id="1" d="M192 218.4167 C192 218.4167 198.6408 215.3251 205 214.4167 C212.0286 213.4126 214.6835 213.5306 220 214.4167 C221.2405 214.6234 221.6826 216.9227 223 217.4167 C224.5968 218.0155 226.3805 218.1528 228 217.4167 C230.6796 216.1987 232.0644 212.5088 234 212.4167 C238.5953 212.1978 244.4047 216.6355 249 216.4167 C250.9356 216.3245 253.2941 211.4167 255 211.4167 C258.9804 211.4167 265.0196 216.4167 269 216.4167 C270.7059 216.4167 272.8965 211.627 275 211.4167 C279.4335 210.9733 284.9708 214.8408 289 214.4167 C290.6272 214.2454 291.835 210.6195 294 209.4167 C295.1134 208.7981 297.2211 208.8108 298 209.4167 C300.0339 210.9986 301.1011 215.7837 303 216.4167 C306.2798 217.51 312.3467 216.7867 316 215.4167 C317.3316 214.9173 317.4892 211.5498 319 210.4167 C320.287 209.4514 323.2146 208.8931 324 209.4167 C326.3562 210.9875 328.1347 216.2677 331 218.4167 C332.0419 219.1981 334.7393 219.117 336 218.4167 C337.7089 217.4673 339.3719 215.8245 340 213.4167 C341.9251 206.0371 340.2596 201.5079 342 195.4167 C342.3882 194.0578 344.221 192.7306 346 192.4167 C351.106 191.5156 355.792 190.8971 359 192.4167 C361.5326 193.6163 364.1475 197.2963 365 201.4167 C366.6648 209.4632 363.8316 220.6109 365 221.4167 C367.4566 223.1109 382.6603 220.0826 394 221.4167 C396.1391 221.6683 398.3126 223.5835 399 225.4167 C400.448 229.278 401.1499 234.4597 400 237.4167 C399.0977 239.737 395.9457 242.233 392 243.4167 C382.7799 246.1827 371.5131 244.5433 370 246.4167 C368.3832 248.4184 371.5248 262.8565 371 269.4167 C370.9487 270.0578 369.2256 271.3145 368 271.4167 C364.549 271.7043 360.3932 271.8099 359 270.4167 C356.2136 267.6303 355.0201 263.3427 353 256.4167 C351.68 251.8909 352 246.4167 352 246.4167 "/>
<path id="2" d="M203 265.4167 C203 265.4167 214.2331 268.0157 222 266.4167 C228.8796 265.0003 230.1493 259.9636 237 258.4167 C243.4299 256.9648 248.2906 260.3586 253 259.4167 C254.4903 259.1186 255.6496 254.6096 257 254.4167 C261.7878 253.7327 266.7231 257.1695 274 256.4167 C279.424 255.8556 280.3821 252.1657 286 251.4167 C293.9242 250.3601 296.237 253.0636 304 252.4167 C306.708 252.191 307.4414 249.5385 310 249.4167 C316.208 249.1211 317.7597 251.4167 325 251.4167 C332.2403 251.4167 333.4815 251.4006 340 249.4167 C343.9765 248.2064 344.3098 245.836 348 244.4167 C349.8594 243.7015 352.4612 244.2012 353 244.4167 C353.0862 244.4512 353 246.4167 353 246.4167 "/>
<path id="3" d="M209 214.4167 L209 213.4167 "/>
<path id="4" d="M213 214.4167 L216 195.4167 "/>
<path id="5" d="M216 197.4167 C216 197.4167 217.0088 192.4255 216 191.4167 C204.9029 180.3196 192.578 175.2847 180 161.4167 C176.8438 157.9368 176.6427 150.2031 177 148.4167 C177.0922 147.9557 182.0277 145.8421 183 146.4167 C188.0173 149.3815 192.479 156.5259 199 161.4167 C199.9572 162.1346 202.9788 161.5175 203 161.4167 C203.4788 159.1425 205.0234 150.5104 203 142.4167 C200.4973 132.406 192.884 121.6631 193 121.4167 C193.0318 121.3491 203.88 122.45 211 125.4167 C214.0773 126.6989 215.8469 128.3122 217 131.4167 C221.4282 143.3388 221.4282 145.843 224 160.4167 C227.3924 179.6403 227.5514 180.2233 229 199.4167 C229.5122 206.2038 228 213.4167 228 213.4167 "/>
<path id="6" d="M211 268.4167 C211 268.4167 213.9199 270.8946 214 272.4167 C214.287 277.8693 214.5834 282.0511 212 287.4167 C209.2008 293.2304 206.7965 295.6267 201 299.4167 C195.381 303.0907 193.4357 303.0225 186 304.4167 C177.9811 305.9202 175.1703 303.2808 169 305.4167 C164.8135 306.8658 161.7294 310.8226 160 313.4167 C159.5882 314.0343 160.0788 316.6372 161 317.4167 C164.7658 320.6031 167.4472 322.2573 173 324.4167 C175.263 325.2967 177.2171 325.3676 179 324.4167 C182.9423 322.3141 183.3323 319.4369 188 316.4167 C191.2732 314.2987 195.9127 313.3076 196 313.4167 C196.3338 313.8339 197.4847 321.3262 196 326.4167 C194.5105 331.5235 192.8707 332.9504 189 337.4167 C186.9134 339.8242 183.7782 339.7306 183 341.4167 C181.9654 343.6584 182.0839 348.218 183 350.4167 C183.5174 351.6585 185.9845 353.3047 188 353.4167 C193.0279 353.696 198.5866 353.83 201 351.4167 C206.953 345.4637 208.9883 339.718 214 327.4167 C219.7593 313.2802 220.2161 312.3482 223 297.4167 C225.5813 283.5716 225 268.4167 225 268.4167 "/>
<path id="7" d="M216 195.4167 C216 195.4167 216.0424 191.5749 215 190.4167 C212.8445 188.0216 211.0805 186.9005 207 185.4167 C200.7282 183.136 199.9166 182.9354 193 182.4167 C180.3581 181.4685 177.7869 179.7199 167 182.4167 C156.628 185.0097 154.5793 187.6185 145 194.4167 C139.9471 198.0026 137.8702 199.7412 136 204.4167 C133.8823 209.711 133.7812 217.101 135 219.4167 C135.8243 220.9829 140.6662 222.6547 146 223.4167 C153.836 224.5361 155.797 225.1629 163 223.4167 C170.601 221.574 171.2755 217.0334 179 215.4167 C190.8916 212.9277 206 214.4167 206 214.4167 "/>
<path id="8" d="M193 264.4167 C193 264.4167 193.1881 262.5107 193 262.4167 C188.4863 260.1598 183.0552 256.8792 173 254.4167 C159.2722 251.0548 154.3312 250.4167 144 250.4167 C142.2188 250.4167 139.4317 252.7763 139 254.4167 C137.7819 259.0454 137.5269 264.0153 139 269.4167 C139.8481 272.5265 141.6766 273.9241 145 276.4167 C149.062 279.4631 150.4107 280.8604 155 281.4167 C164.8997 282.6166 167.4991 282.6145 178 280.4167 C187.8064 278.3642 188.1496 275.0241 198 272.4167 C204.353 270.735 208.7488 272.6359 212 271.4167 C212.8764 271.088 214 266.4167 214 266.4167 "/>
<path id="9" d="M243 214.4167 C243 214.4167 248.1656 207.3468 250 200.4167 C252.3756 191.4422 253.5475 188.7345 252 180.4167 C250.04 169.8814 241.9984 157.4245 242 157.4167 C242.0008 157.4127 249.4775 163.5139 254 170.4167 C258.4627 177.2282 259.3541 178.5984 261 186.4167 C263.0921 196.3543 262.9534 199.2001 262 208.4167 C261.6772 211.5373 258 215.4167 258 215.4167 "/>
<path id="10" d="M274 211.4167 C274 211.4167 275.9998 211.4228 276 211.4167 C276.1185 206.7945 276.569 190.4596 275 172.4167 C274.7085 169.065 274.0802 168.0169 272 165.4167 C268.6363 161.212 263.0298 157.4962 263 157.4167 C262.9941 157.4009 267.1626 156.4061 269 157.4167 C275.1399 160.7936 277.5641 162.4372 283 168.4167 C286.7697 172.5633 288.1661 174.4135 289 179.4167 C290.3087 187.2689 289.832 189.7802 288 198.4167 C286.5437 205.2823 282 212.4167 282 212.4167 "/>
<path id="11" d="M302 209.4167 C302 209.4167 306.5386 194.1848 309 179.4167 C309.9477 173.7305 310.3138 172.2338 309 167.4167 C307.7261 162.7455 306.5046 161.422 303 157.4167 C300.0124 154.0023 294.9977 151.4115 295 151.4167 C295.0101 151.4395 309.4898 169.6262 315 184.4167 C317.4012 190.862 315.9743 194.5194 314 202.4167 C312.2961 209.2321 309.5872 213.3982 307 216.4167 C306.4456 217.0635 302 216.4167 302 216.4167 "/>
<path id="12" d="M244 258.4167 C244 258.4167 248.7556 264.2316 250 269.4167 C251.4005 275.2519 252.1105 278.3267 250 283.4167 C244.8672 295.7957 233.0011 310.4145 233 310.4167 C232.9997 310.4173 236.2146 305.9403 240 303.4167 C244.6507 300.3162 246.8772 301.6233 251 298.4167 C254.8766 295.4015 256.666 293.8187 258 289.4167 C260.9878 279.557 261 276.8526 261 265.4167 C261 257.7928 258 249.4167 258 249.4167 "/>
<path id="13" d="M279 256.4167 C279 256.4167 279.9151 276.574 277 293.4167 C275.7346 300.7279 274.4809 302.1026 270 308.4167 C264.0206 316.8422 255 324.3877 255 324.4167 C255 324.4257 265.3438 323.1775 270 319.4167 C275.8509 314.691 276.1733 311.6504 281 303.4167 C284.5514 297.3584 285.3292 296.8912 287 290.4167 C289.1265 282.1764 289.3764 281.075 289 272.4167 C288.4079 258.7988 285 244.4167 285 244.4167 "/>
<path id="14" d="M310 251.4167 C310 251.4167 308.9083 258.3342 310 264.4167 C312.289 277.1695 314.711 277.6639 317 290.4167 C318.0917 296.4991 318.3893 297.8595 317 303.4167 C315.21 310.5769 314.2691 311.676 310 318.4167 C305.0353 326.2557 298.0641 333.422 298 333.4167 C297.9921 333.416 296.5938 324.799 298 317.4167 C300.4189 304.7174 304.4596 304.1251 306 291.4167 C308.2847 272.5682 306.746 259.0634 306 251.4167 C305.9741 251.1509 302 250.4167 302 250.4167 "/>
</g>
</g>
</svg>
