<?xml version="1.0" encoding="utf-8"?>
<!DOCTYPE svg PUBLIC "-//W3C//DTD SVG 1.1//EN" "http://www.w3.org/Graphics/SVG/1.1/DTD/svg11.dtd">
<svg viewBox="0 0 800 800" preserveAspectRatio="xMinYMin meet" xmlns="http://www.w3.org/2000/svg" version="1.1">
<g fill="none" stroke="black" stroke-linecap="round" stroke-linejoin="round" stroke-width="1.4401">
<g transform="translate(131.2672,87.52) scale(2.0832) translate(-115,-1)">
<path id="0" d="M261 93 C261 93 247.1232 92.8556 239 96 C234.6216 97.6948 233.054 100.2008 230 105 C226.6443 110.2732 225.651 111.7505 225 118 C223.3148 134.1774 221.118 138.2483 225 153 C230.1313 172.4989 234.137 174.3108 245 194 C249.9312 202.9378 252.2108 202.2198 257 211 C260.9201 218.1869 262.127 219.1433 263 227 C266.8993 262.0934 264.0238 294.96 267 301 C267.3832 301.7778 282.1015 297.2844 297 296 C310.7083 294.8183 314.8454 296.677 325 296 C325.7737 295.9484 327.0169 294.0203 327 294 C325.983 292.7797 317.3877 289.2302 315 284 C308.8127 270.4469 308.9593 266.0024 306 248 C303.0396 229.991 303 229.3746 303 211 C303 169.2847 309.3301 162.9648 306 127 C304.9975 116.1732 300.1873 114.1077 293 103 C289.4911 97.5772 288.4286 95.0561 284 93 C277.3802 89.9265 272.0957 89.7162 265 90 C262.6849 90.0926 259 94 259 94 "/>
<path id="1" d="M222 121 C222 121 198.4426 125.3078 191 122 C185.3166 119.474 184.4139 110.8852 177 101 C174.1168 97.1558 172.9699 95.89 170 94 C168.9629 93.34 166.5163 94.5633 166 94 C163.4066 91.1708 159.457 87.3006 159 82 C157.3385 62.7263 163.7786 56.0059 161 36 C159.3187 23.8944 155.9652 19.8674 149 10 C145.6719 5.2852 142.2412 4.9949 137 2 C136.3674 1.6385 135.0014 1.9816 135 2 C134.7514 5.3566 135.4845 28.3078 135 29 C134.9498 29.0718 125.7023 25.5267 121 22 C119.5954 20.9466 120.2663 18.4773 119 17 C117.9762 15.8056 115.0063 14.9404 115 15 C114.8409 16.5111 112.7278 38.7701 115 55 C115.6237 59.4551 117.8753 60.8753 122 65 C132.4331 75.4331 134.7592 74.234 145 85 C153.8571 94.3113 152.0315 98.9086 161 106 C171.2543 114.108 188 119 188 119 "/>
<path id="2" d="M308 121 C308 121 313.4803 121.6425 317 120 C327.0633 115.3038 329.0176 114.5258 338 107 C346.754 99.6656 348.1389 98.3244 354 89 C358.3391 82.0969 357.6672 80.1648 360 72 C360.4986 70.2549 360.6251 68.6251 360 68 C356.2495 64.2495 350.6898 63.8623 346 58 C337.9919 47.9899 335.4014 45.1175 332 33 C328.1716 19.3614 329.9623 1.0189 330 1 C330.0162 0.99192 347.7984 24.9496 348 25 C348.0231 25.0058 349.6343 6.4322 350 6 C350.0285 5.9663 355.8213 8.3672 359 12 C365.5292 19.4619 368.0241 21.2848 371 30 C374.1894 39.3404 373.3344 42.6351 373 53 C372.882 56.6591 372.1841 58.0879 370 61 C366.8571 65.1906 363.0472 65.0917 361 69 C358.7381 73.3182 359.6349 79.9365 359 82 C358.9713 82.0933 357.0611 81.8626 357 82 C356.3206 83.5286 356.7653 87.1163 355 91 C352.0362 97.5204 351.4638 98.6434 347 104 C344.5411 106.9507 343.5915 107.7071 340 109 C332.0661 111.8562 322 113 322 113 "/>
<path id="3" d="M228 161 C228 161 219.1473 159.889 211 161 C197.6681 162.818 192.4235 163.6306 184 167 C182.4528 167.6189 181.5873 170.0634 181 173 C179.7364 179.318 180 187 180 187 "/>
<path id="4" d="M242 195 C242 195 231.6297 195.5344 223 198 C218.4679 199.2949 214.5221 201.0857 214 203 C212.039 210.1902 214 231 214 231 "/>
<path id="5" d="M261 225 C261 225 251.3885 223.5404 249 225 C246.4677 226.5475 244.414 230.8154 243 236 C241.7691 240.5132 243 247 243 247 "/>
<path id="6" d="M311 148 C311 148 347.8919 147.1486 353 148 C353.1419 148.0236 352.0918 152.0483 353 155 C355.7845 164.0496 361 174 361 174 "/>
<path id="7" d="M306 193 C306 193 339.0441 191.348 344 193 C344.6956 193.2319 345 206 345 206 "/>
<path id="8" d="M304 225 C304 225 319.1511 224.9298 326 228 C329.3688 229.5102 333 238 333 238 "/>
<path id="9" d="M243 94 C243 94 243 104 243 104 C243 104 242.9998 92.0001 243 92 C243.0001 92 245 103 245 103 "/>
<path id="10" d="M267 96 C267 96 266.9991 86.0013 267 86 C267.0005 85.9993 269 93 269 93 "/>
</g>
</g>
</svg>
