<?xml version="1.0" encoding="utf-8"?>
<!DOCTYPE svg PUBLIC "-//W3C//DTD SVG 1.1//EN" "http://www.w3.org/Graphics/SVG/1.1/DTD/svg11.dtd">
<svg viewBox="0 0 800 800" preserveAspectRatio="xMinYMin meet" xmlns="http://www.w3.org/2000/svg" version="1.1">
<g fill="none" stroke="black" stroke-linecap="round" stroke-linejoin="round" stroke-width="1.1137">
<g transform="translate(144.0897,87.52) scale(2.6938) translate(-194,-132.9833)">
<path id="0" d="M256 255.9833 C256 255.9833 251.5962 255.7292 250 256.9833 C246.27 259.914 243.4967 262.0328 242 266.9833 C237.8407 280.7411 237 299.9833 237 299.9833 "/>
<path id="1" d="M248 246.9833 C248 246.9833 241.2503 245.8582 239 246.9833 C236.8747 248.046 234.6865 250.6369 234 253.9833 C231.2103 267.5829 233.5775 271.2548 231 285.9833 C230.3106 289.923 229.4569 290.7894 227 293.9833 C224.8673 296.7558 223.853 298.0323 221 298.9833 C216.4104 300.5132 214.2164 298.7559 209 299.9833 C206.5673 300.5557 205.5792 301.117 204 302.9833 C200.7072 306.8748 199.2558 308.7136 198 312.9833 C197.2842 315.4171 199.2759 318.8797 199 319.9833 C198.9285 320.2695 196.12 320.5514 196 320.9833 C194.851 325.1197 194.385 329.5138 194 337.9833 C193.3918 351.3634 193.9999 364.9821 194 364.9833 C194.0001 364.9838 193.6799 357.7331 196 354.9833 C204.5546 344.8446 211.1161 341.0369 221 332.9833 C221.4605 332.6081 222.9984 332.9635 223 332.9833 C223.2484 336.0885 222.2286 346.4128 223 357.9833 C223.1584 360.3592 224.1444 362.2704 225 362.9833 C225.555 363.4458 228.3661 363.538 229 362.9833 C230.6045 361.5794 232.2973 359.3564 233 355.9833 C234.5437 348.5733 234.1534 347.419 234 338.9833 C233.6565 320.089 232 300.9833 232 300.9833 "/>
<path id="2" d="M289 255.9833 C289 255.9833 314.612 255.1873 323 257.9833 C325.097 258.6823 325.3278 265.1235 328 268.9833 C328.8812 270.2563 331.8252 270.2143 332 270.9833 C333.2152 276.3304 333.6634 282.691 333 290.9833 C332.8255 293.1647 330.4986 293.6565 330 295.9833 C329.2048 299.6945 330 304.9833 330 304.9833 "/>
<path id="3" d="M282 265.9833 C282 265.9833 288.7215 264.8905 292 265.9833 C294.1857 266.7119 294.6619 270.1581 297 270.9833 C301.2696 272.4903 303.9663 270.4732 309 271.9833 C312.8878 273.1497 316.0119 274.8837 317 276.9833 C318.3528 279.8581 317.9237 283.4412 317 288.9833 C316.025 294.8333 315.9933 296.1192 313 300.9833 C308.5737 308.1761 305.2507 307.6627 301 314.9833 C296.8474 322.1351 297.6048 326.7737 295 331.9833 C294.6744 332.6345 292.0072 332.7687 292 332.9833 C291.8118 338.63 293.7048 360.6551 294 361.9833 C294.0111 362.0335 297.7623 360.756 298 359.9833 C298.8095 357.3526 297.001 351.7804 298 348.9833 C298.4346 347.7664 301.7458 347.7079 303 345.9833 C304.9243 343.3375 305.9953 337.9731 306 337.9833 C306.016 338.0181 306.4465 350.3651 309 358.9833 C309.8728 361.929 311.8548 364.1253 314 364.9833 C316.8989 366.1429 323.3954 365.6979 324 364.9833 C324.9894 363.8141 323.385 354.7288 325 351.9833 C326.1046 350.1055 332.7611 350.0107 334 347.9833 C335.9852 344.7348 334.1349 338.7792 336 333.9833 C336.7502 332.0542 340.4775 331.6554 341 329.9833 C342.1272 326.3762 341.2432 319.4428 341 317.9833 C340.9932 317.9428 339 317.9833 339 317.9833 C339 317.7364 341.3144 314.3459 341 312.9833 C340.3658 310.2351 336 304.9833 336 304.9833 "/>
<path id="4" d="M258 256.9833 C258 256.9833 257.0391 265.9367 258 272.9833 C258.3849 275.806 259.2515 277.6719 261 278.9833 C263.6228 280.9504 266.5649 281.9833 270 281.9833 C272.6718 281.9833 274.9958 280.9875 277 278.9833 C279.8059 276.1775 282 269.9833 282 269.9833 "/>
<path id="5" d="M253 242.9833 C253 242.9833 255 238.3824 255 234.9833 C255 232.434 252.5985 229.8665 253 228.9833 C253.6452 227.5639 257.9652 226.8902 260 223.9833 C264.0902 218.1402 264.7029 212.4291 267 208.9833 C267.2336 208.6329 269.9007 209.1488 270 208.9833 C270.2757 208.5238 269.099 205.1301 270 203.9833 C277.2596 194.7438 280.7437 191.1503 292 180.9833 C295.5568 177.7707 296.785 177.3883 301 175.9833 C303.3709 175.193 304.9661 176.9468 307 175.9833 C312.852 173.2113 313.6075 169.002 320 166.9833 C330.4702 163.677 338.7909 165.4162 345 163.9833 C345.409 163.889 345.7512 161.0018 346 160.9833 C351.2768 160.5925 365.1991 160.3417 372 161.9833 C373.1528 162.2616 373.2515 166.6719 375 167.9833 C377.6228 169.9504 383.7944 170.1267 384 170.9833 C384.8478 174.516 382.9823 190.8028 381 192.9833 C379.7611 194.3462 371.3735 191.6179 364 192.9833 C359.2611 193.8609 357.5142 194.9377 354 197.9833 C351.0742 200.519 352.0097 203.1617 349 205.9833 C344.7714 209.9477 341.5175 209.0261 338 212.9833 C334.762 216.6261 335.3403 221.175 333 223.9833 C332.2028 224.94 329.3224 223.9254 328 224.9833 C325.5832 226.9167 325.823 230.4777 323 231.9833 C313.3673 237.1208 302.6629 236.3204 298 240.9833 C294.9828 244.0005 295 259.9833 295 259.9833 "/>
<path id="6" d="M269 245.9833 C269 245.9833 263.3002 246.1707 262 246.9833 C261.4032 247.3563 261.4942 250.5879 261 250.9833 C260.5293 251.3599 257.1169 250.8665 257 250.9833 C256.9416 251.0418 257.9783 253.9978 258 253.9833 C258.3041 253.7806 265.986 245.0057 266 244.9833 C266.0029 244.9787 263 245.8912 263 245.9833 C263 246.5362 266 251.9833 266 251.9833 "/>
<path id="7" d="M284 250.9833 C284 250.9833 284.0168 257.9749 284 257.9833 C283.9928 257.9869 281.11 255.2034 280 252.9833 C279.5243 252.0319 279.82 250.1183 280 249.9833 C280.32 249.7433 284 249.9833 284 249.9833 "/>
<path id="8" d="M221 318.9833 L221 333.9833 "/>
<path id="9" d="M316 329.9833 C316 329.9833 311.0836 330.659 310 331.9833 C308.2036 334.179 307.9806 339.2182 307 340.9833 C306.8979 341.1672 305 340.9833 305 340.9833 "/>
<path id="10" d="M266 272.9833 C266 272.9833 268.4503 293.6689 266 308.9833 C264.96 315.4835 260.5876 315.9263 258 322.9833 C255.387 330.1098 255.3353 337.9773 255 338.9833 C254.9934 339.0031 253 337.9833 253 337.9833 "/>
<path id="11" d="M270 275.9833 C270 275.9833 270.0915 283.0458 272 288.9833 C274.4131 296.4907 278.299 297.1139 279 303.9833 C280.5075 318.7572 277 337.9833 277 337.9833 "/>
<path id="12" d="M258 224.9833 C258 224.9833 256.5785 222.0074 256 221.9833 C250.0331 221.7347 236.8531 220.9624 234 223.9833 C228.3216 229.9957 227.9899 244.1317 222 257.9833 C221.2771 259.6551 218 260.9833 218 260.9833 "/>
<path id="13" d="M211 254.9833 C211 254.9833 211.396 238.4829 213 232.9833 C213.2456 232.1412 217.462 231.9697 218 230.9833 C219.0863 228.9917 217.6886 224.8247 219 221.9833 C219.8743 220.0891 221.9023 218.1546 224 217.9833 C241.3277 216.5688 268 217.9833 268 217.9833 "/>
<path id="14" d="M308 236.9833 C308 236.9833 317.456 235.5232 325 236.9833 C331.7281 238.2855 334.8339 239.2339 339 242.9833 C342.6077 246.2303 341.2775 250.0976 345 254.9833 C348.7331 259.8831 353.1713 259.6227 355 263.9833 C358.2236 271.6704 358 285.9833 358 285.9833 "/>
<path id="15" d="M328 230.9833 C328 230.9833 328 228.9833 328 228.9833 C329.5346 228.9833 341.2152 228.8948 344 230.9833 C346.188 232.6244 346.6758 241.5242 348 243.9833 C348.1412 244.2455 350.865 243.8033 351 243.9833 C351.24 244.3033 350.5167 247.2583 351 247.9833 C351.5639 248.8292 354.7944 249.1611 355 249.9833 C356.5418 256.1503 357 271.9833 357 271.9833 "/>
<path id="16" d="M359 161.9833 C359 161.9833 352.7539 158.0501 349 153.9833 C347.5085 152.3675 347.344 151.3914 347 148.9833 C346.4143 144.8831 346.0785 142.9783 347 139.9833 C347.5356 138.2427 349.4678 136.3664 351 135.9833 C353.375 135.3896 356.0765 135.619 359 136.9833 C362.3839 138.5625 365.3533 140.489 366 142.9833 C367.7378 149.6862 366 163.9833 366 163.9833 "/>
<path id="17" d="M374 197.9833 C374 197.9833 372.8704 206.3355 374 211.9833 C374.5486 214.7266 376.0175 216.2486 378 217.9833 C379.0449 218.8976 381.9972 218.9971 382 218.9833 C382.2896 217.5352 383.2022 203.7538 382 197.9833 C381.7686 196.8727 377 194.9833 377 194.9833 "/>
<path id="18" d="M243 182.9833 C243 182.9833 242.6893 176.9155 244 172.9833 C244.8033 170.5733 246.2847 168.763 248 167.9833 C249.9142 167.1133 254.3521 168.6312 255 167.9833 C256.0181 166.9652 256.5757 159.0486 257 158.9833 C259.9125 158.5353 271.2156 160.8383 281 163.9833 C283.0197 164.6325 285.0076 167.9531 285 167.9833 C284.9968 167.996 280.0584 167.8665 280 167.9833 C279.8831 168.2171 280.7463 172.869 282 173.9833 C283.5006 175.3172 286.3247 174.4227 289 175.9833 C291.5934 177.4962 294 180.9833 294 180.9833 "/>
<path id="19" d="M234 160.9833 C234 160.9833 239.5521 159.0747 241 156.9833 C242.6997 154.5282 240.9444 150.0389 243 147.9833 C249.9143 141.069 264.4456 133.2857 265 132.9833 C265.0301 132.9669 264.5871 135.6737 265 135.9833 C270.3214 139.9744 275.7009 141.384 285 147.9833 C290.9014 152.1714 290.3388 154.935 296 157.9833 C301.927 161.1748 304.7017 159.1205 311 161.9833 C314.6428 163.6392 318 167.9833 318 167.9833 "/>
<path id="20" d="M349 206.9833 C349 206.9833 352.0126 213.226 355 214.9833 C358.3978 216.982 363.6069 215.7868 366 216.9833 C366.5983 217.2825 366.1792 220.2652 367 220.9833 C368.7555 222.5194 373.8015 222.9627 374 223.9833 C375.5017 231.7063 375.1321 242.2664 374 256.9833 C373.7863 259.7621 371 262.9833 371 262.9833 "/>
<path id="21" d="M342 212.9833 C342 212.9833 347.4476 222.7966 352 225.9833 C354.5503 227.7686 358.4111 225.3883 362 226.9833 C365.818 228.6802 369.3191 231.0895 370 233.9833 C372.0697 242.7797 370 260.9833 370 260.9833 "/>
<path id="22" d="M332 167.9833 C332 167.9833 342.7939 167.3029 353 167.9833 C357.4388 168.2793 358.905 168.4358 362 169.9833 C363.5475 170.7571 363.7446 173.1464 365 173.9833 C365.6646 174.4264 367.7337 174.3028 368 173.9833 C368.8165 173.0035 370 168.334 370 167.9833 C370 167.9833 368 167.9833 368 167.9833 C368 167.9833 369.9904 167.9322 370 167.9833 C370.4137 170.1895 372.0482 177.4318 371 183.9833 C370.3515 188.0367 366 192.9833 366 192.9833 "/>
<path id="23" d="M316 176.9833 C316 176.9833 326.8893 175.9191 337 176.9833 C345.3876 177.8662 352.6574 179.1373 354 180.9833 C355.4172 182.932 353 198.9833 353 198.9833 "/>
<path id="24" d="M286 196.9833 C286 196.9833 309.6544 197.9649 311 199.9833 C313.2123 203.3017 310 232.9833 310 232.9833 "/>
</g>
</g>
</svg>
