<?xml version="1.0" encoding="utf-8"?>
<!DOCTYPE svg PUBLIC "-//W3C//DTD SVG 1.1//EN" "http://www.w3.org/Graphics/SVG/1.1/DTD/svg11.dtd">
<svg viewBox="0 0 800 800" preserveAspectRatio="xMinYMin meet" xmlns="http://www.w3.org/2000/svg" version="1.1">
<g fill="none" stroke="black" stroke-linecap="round" stroke-linejoin="round" stroke-width="1.3777">
<g transform="translate(220.3512,87.52) scale(2.1776) translate(-185,-167)">
<path id="0" d="M186 175 C186 175 182.9343 292.3203 188 309 C188.4834 310.5916 225.4402 310.709 227 310 C227.0515 309.9766 221.6491 301.6815 221 294 C218.8371 268.4059 224.0173 265.4011 221 239 C218.1818 214.3407 213.479 213.8068 209 189 C207.0956 178.4525 209.5713 168.4403 208 167 C206.2926 165.4349 185.9802 166.2778 185 167 C184.7308 167.1983 189 181 189 181 "/>
<path id="1" d="M228 311 C228 311 239.4552 312.5466 250 311 C276.1768 307.1607 276.6584 303.6333 303 300 C319.4947 297.7249 337 299 337 299 "/>
<path id="2" d="M191 311 C191 311 193.6686 316.6968 194 322 C194.6203 331.9249 192.4291 342.7985 193 343 C197.5355 344.6008 219.0442 340.3415 245 340 C294.8706 339.3438 338.7536 343.677 345 341 C345.5108 340.7811 336 301 336 301 "/>
<path id="3" d="M198 344 L198 452 "/>
<path id="4" d="M200 453 C200 453 208.9748 452.2735 209 452 C210.1824 439.1419 209.5924 408.5954 208 366 C207.6093 355.5478 205 345 205 345 "/>
<path id="5" d="M333 343 C333 343 337.7321 375.6017 340 408 C341.212 425.3147 341.0968 426.1827 340 443 C339.6492 448.3794 336.7205 453.6926 337 454 C337.3993 454.4392 349.8678 454.3672 350 454 C350.6654 452.1516 346.7712 441.4683 346 429 C343.7968 393.3822 346.4421 391.5963 344 357 C343.5504 350.6303 340 344 340 344 "/>
<path id="6" d="M241 341 C241 341 244.6681 365.0266 246 389 C247.6568 418.8219 246.0733 444.1137 247 449 C247.0016 449.0084 256.9261 447.5669 257 447 C258.4964 435.5277 256.8256 413.4387 256 380 C255.8272 373.0031 256.352 372.4896 255 366 C253.9691 361.0519 251.7417 360.8208 251 356 C249.8821 348.7339 251 340 251 340 "/>
<path id="7" d="M315 345 C315 345 317.6763 356.5635 318 368 C319.1638 409.1192 316.1843 440.9531 318 451 C318.0593 451.3281 329.279 451.8755 333 451 C333.7296 450.8283 335.1741 448.3061 335 447 C334.462 442.9652 331.4226 441.3248 331 436 C329.0553 411.497 331.8351 409.3244 330 384 C329.3907 375.5914 327.0856 375.4674 326 367 C324.6283 356.3011 326.4422 347.1152 325 345 C324.3931 344.1098 311 345 311 345 "/>
</g>
</g>
</svg>
