<?xml version="1.0" encoding="utf-8"?>
<!DOCTYPE svg PUBLIC "-//W3C//DTD SVG 1.1//EN" "http://www.w3.org/Graphics/SVG/1.1/DTD/svg11.dtd">
<svg viewBox="0 0 800 800" preserveAspectRatio="xMinYMin meet" xmlns="http://www.w3.org/2000/svg" version="1.1">
<g fill="none" stroke="black" stroke-linecap="round" stroke-linejoin="round" stroke-width="1.8769">
<g transform="translate(189.0161,87.52) scale(1.5984) translate(-128,-68)">
<path id="0" d="M182 69 L343 69 "/>
<path id="1" d="M180 69 L180 155 "/>
<path id="2" d="M338 68 C338 68 382.1129 65.9499 383 68 C387.7379 78.9499 383 172 383 172 "/>
<path id="3" d="M181 155 C181 155 180.9137 166.995 181 167 C206.9137 168.495 389 167 389 167 "/>
<path id="4" d="M180 161 L180 232 "/>
<path id="5" d="M197 169 L197 234 "/>
<path id="6" d="M386 164 L386 234 "/>
<path id="7" d="M363 166 L363 234 "/>
<path id="8" d="M174 229 L390 229 "/>
<path id="9" d="M158 333 L364 333 "/>
<path id="10" d="M177 229 C177 229 168.6241 244.7721 164 259 C162.6489 263.1572 164.999 264.6043 164 269 C162.6876 274.7744 161.8149 275.1691 159 281 C147.8481 304.1004 147.7399 305.6167 136 327 C134.4491 329.8249 130.9525 331.9908 131 332 C131.4267 332.0826 167 333 167 333 "/>
<path id="11" d="M392 229 C392 229 383.9247 241.6651 380 254 C377.3257 262.4048 380.1283 265.3988 378 273 C377.1948 275.8757 373.449 276.3955 373 279 C371.4949 287.7295 375.0728 292.4135 373 302 C371.5824 308.5562 366.6958 309.4288 365 316 C363.2055 322.9538 366.3568 328.2513 365 333 C364.5439 334.5962 359 337 359 337 "/>
<path id="12" d="M133 332 L133 453 "/>
<path id="13" d="M158 334 C158 334 158.8681 387.4783 158 440 C157.8769 447.4487 157.3489 454.0365 156 455 C153.9842 456.4399 145.5249 453.7822 137 455 C132.7055 455.6135 128 459 128 459 "/>
<path id="14" d="M341 333 L341 454 "/>
<path id="15" d="M365 334 C365 334 367.4324 439.4054 365 454 C364.9324 454.4054 345 454 345 454 "/>
<path id="16" d="M388 239 L388 379 "/>
<path id="17" d="M373 297 C373 297 371.151 372.1172 373 380 C373.0547 380.2333 392 378 392 378 "/>
<path id="18" d="M180 332 L180 409 "/>
<path id="19" d="M197 335 L197 409 "/>
<path id="20" d="M183 409 L200 409 "/>
</g>
</g>
</svg>
