<?xml version="1.0" encoding="utf-8"?>
<!DOCTYPE svg PUBLIC "-//W3C//DTD SVG 1.1//EN" "http://www.w3.org/Graphics/SVG/1.1/DTD/svg11.dtd">
<svg viewBox="0 0 800 800" preserveAspectRatio="xMinYMin meet" xmlns="http://www.w3.org/2000/svg" version="1.1">
<g fill="none" stroke="black" stroke-linecap="round" stroke-linejoin="round" stroke-width="1.0417">
<g transform="translate(87.52,119.2) scale(2.88) translate(-174,-76)">
<path id="0" d="M195 148 C195 148 201.3451 152.58 208 155 C217.3403 158.3965 218.161 158.4131 228 160 C233.2017 160.839 239 160 239 160 "/>
<path id="1" d="M195 149 C195 149 193.9022 166.2651 195 182 C195.3396 186.8679 195.8051 187.8541 198 192 C199.9275 195.6408 204 199 204 199 "/>
<path id="2" d="M201 196 C201 196 203.3331 199.6969 205 200 C211.3472 201.154 214.6918 201.146 223 200 C228.3319 199.2646 231.7138 197.247 234 196 C234.1892 195.8968 234 194 234 194 "/>
<path id="3" d="M231 158 C231 158 227.5356 155.7407 227 154 C226.0785 151.0051 226.136 147.592 227 145 C227.416 143.752 229.1837 142.4953 231 142 C233.6387 141.2803 236.37 141.1109 238 142 C239.6935 142.9237 241.077 145.231 242 148 C242.7552 150.2656 242.6557 152.0329 242 154 C241.5629 155.3114 239 157 239 157 "/>
<path id="4" d="M234 149 C234 149 235.0022 146.0011 235 146 C234.9911 145.9956 232.5065 147.1558 232 148 C231.6001 148.6665 231.9871 150.9936 232 151 C232.0086 151.0043 234 149 234 149 "/>
<path id="5" d="M245 172 C245 172 239.1622 172.5784 239 173 C238.4306 174.4805 239.1428 183.7142 240 185 C240.3158 185.4737 246.64 185.495 247 185 C247.8293 183.8597 248.3317 175.9902 248 174 C247.9541 173.7244 245 173 245 173 "/>
<path id="6" d="M242 181 L243 179 "/>
<path id="7" d="M281 189 C281 189 287.1513 183.9244 293 181 C295.376 179.812 298.9679 179.9165 299 180 C299.3344 180.8693 298.7494 192.2514 298 194 C297.8887 194.2597 293 194 293 194 "/>
<path id="8" d="M288 191 L293 187 "/>
<path id="9" d="M209 202 L231 209 "/>
<path id="10" d="M230 208 C230 208 230.6532 220.141 230 227 C229.9247 227.7908 228 229 228 229 "/>
<path id="11" d="M230 228 C230 228 225.1977 239.461 220 248 C218.9172 249.779 216 251 216 251 "/>
<path id="12" d="M218 253 C218 253 227.5963 260.7757 237 266 C240.2674 267.8152 245 268 245 268 "/>
<path id="13" d="M246 269 C246 269 250.8811 264.3204 254 259 C259.1542 250.2075 259.0116 242.2158 263 240 C268.6201 236.8777 290 239 290 239 "/>
<path id="14" d="M291 241 C291 241 289.7134 264.178 291 265 C293.967 266.8956 327 264 327 264 "/>
<path id="15" d="M322 263 C322 263 341.5399 264.1083 342 264 C342.0424 263.99 340.9216 260.5373 339 259 C331.9176 253.3341 324.4863 252.351 322 248 C320.0281 244.5492 323 231 323 231 "/>
<path id="16" d="M328 211 L321 239 "/>
<path id="17" d="M329 209 L344 213 "/>
<path id="18" d="M227 250 C227 250 223.4331 249.5669 223 250 C222.1338 250.8662 221 256 221 256 "/>
<path id="19" d="M234 252 L224 259 "/>
<path id="20" d="M243 255 C243 255 235.5263 255.779 234 257 C233.1649 257.6681 233 263 233 263 "/>
<path id="21" d="M224 252 L249 259 "/>
<path id="22" d="M322 260 L323 271 "/>
<path id="23" d="M329 264 L329 271 "/>
<path id="24" d="M335 261 L337 265 "/>
<path id="25" d="M212 236 L229 229 "/>
<path id="26" d="M211 227 L220 223 "/>
<path id="27" d="M201 223 L211 215 "/>
<path id="28" d="M189 214 L197 210 "/>
<path id="29" d="M176 206 L191 202 "/>
<path id="30" d="M179 190 L188 189 "/>
<path id="31" d="M175 176 L187 177 "/>
<path id="32" d="M174 164 L187 167 "/>
<path id="33" d="M177 154 L189 157 "/>
<path id="34" d="M198 118 L201 133 "/>
<path id="35" d="M192 121 L194 133 "/>
<path id="36" d="M205 112 L205 134 "/>
<path id="37" d="M211 113 L211 138 "/>
<path id="38" d="M217 101 L217 132 "/>
<path id="39" d="M229 98 C229 98 229.6686 113.3088 229 122 C228.94 122.78 227 124 227 124 "/>
<path id="40" d="M224 101 C224 101 224.2487 125.5178 224 129 C223.9987 129.0178 222 129 222 129 "/>
<path id="41" d="M240 100 L239 133 "/>
<path id="42" d="M246 92 L246 124 "/>
<path id="43" d="M257 84 C257 84 257.6847 105.018 257 117 C256.9561 117.7677 255 119 255 119 "/>
<path id="44" d="M268 81 C268 81 264.8477 87.6423 264 94 C262.9352 101.9863 264 111 264 111 "/>
<path id="45" d="M279 85 L267 113 "/>
<path id="46" d="M287 84 C287 84 288.0751 98.8906 287 110 C286.7812 112.2605 284 115 284 115 "/>
<path id="47" d="M299 82 L298 107 "/>
<path id="48" d="M309 81 L306 109 "/>
<path id="49" d="M320 82 L320 107 "/>
<path id="50" d="M335 81 C335 81 335.8403 84.9191 335 88 C331.5844 100.5238 326 114 326 114 "/>
<path id="51" d="M346 91 C346 91 342.5122 101.1916 341 104 C340.8962 104.1927 339 104 339 104 "/>
<path id="52" d="M336 114 C336 114 344.1837 109.977 352 109 C363.2837 107.5895 376 109 376 109 "/>
<path id="53" d="M349 118 L368 118 "/>
<path id="54" d="M350 97 L370 97 "/>
<path id="55" d="M351 134 L374 131 "/>
<path id="56" d="M262 119 L265 135 "/>
<path id="57" d="M273 117 L273 132 "/>
<path id="58" d="M282 119 L282 133 "/>
<path id="59" d="M293 119 L292 131 "/>
<path id="60" d="M307 118 L303 129 "/>
<path id="61" d="M316 117 L311 129 "/>
<path id="62" d="M327 121 L322 134 "/>
<path id="63" d="M334 130 L330 135 "/>
<path id="64" d="M340 141 L352 142 "/>
<path id="65" d="M339 153 L368 155 "/>
<path id="66" d="M361 147 L374 146 "/>
<path id="67" d="M346 159 C346 159 350.8678 158.1736 355 159 C362.8053 160.5611 367.7837 162.5929 371 164 C371.1547 164.0677 371 166 371 166 "/>
<path id="68" d="M343 171 C343 171 352.6048 174.2171 362 175 C376.0928 176.1744 391 175 391 175 "/>
<path id="69" d="M355 171 L365 171 "/>
<path id="70" d="M354 178 L385 185 "/>
<path id="71" d="M347 186 L377 197 "/>
<path id="72" d="M345 192 L354 194 "/>
<path id="73" d="M347 180 L359 182 "/>
<path id="74" d="M346 202 C346 202 367.626 215.5691 378 225 C379.4438 226.3125 379 232 379 232 "/>
<path id="75" d="M334 218 L370 230 "/>
<path id="76" d="M355 212 L378 223 "/>
<path id="77" d="M348 218 L365 222 "/>
<path id="78" d="M361 201 L376 206 "/>
<path id="79" d="M250 125 L252 133 "/>
<path id="80" d="M223 126 L225 128 "/>
<path id="81" d="M323 138 C323 138 328.1815 134.7139 333 134 C340.7332 132.8543 350 134 350 134 "/>
<path id="82" d="M330 145 L347 141 "/>
<path id="83" d="M334 149 L359 149 "/>
<path id="84" d="M190 130 L205 141 "/>
<path id="85" d="M212 138 L215 142 "/>
<path id="86" d="M249 79 C249 79 250.9617 80.273 251 81 C251.308 86.852 250 98 250 98 "/>
<path id="87" d="M270 77 L269 87 "/>
<path id="88" d="M285 76 L285 84 "/>
<path id="89" d="M375 158 L385 157 "/>
<path id="90" d="M373 145 L382 142 "/>
<path id="91" d="M370 134 L377 133 "/>
<path id="92" d="M376 121 L378 120 "/>
</g>
</g>
</svg>
