<?xml version="1.0" encoding="utf-8"?>
<!DOCTYPE svg PUBLIC "-//W3C//DTD SVG 1.1//EN" "http://www.w3.org/Graphics/SVG/1.1/DTD/svg11.dtd">
<svg viewBox="0 0 800 800" preserveAspectRatio="xMinYMin meet" xmlns="http://www.w3.org/2000/svg" version="1.1">
<g fill="none" stroke="black" stroke-linecap="round" stroke-linejoin="round" stroke-width="1.7569">
<g transform="translate(87.52,205.3403) scale(1.7075) translate(-122,-113.6667)">
<path id="0" d="M128 241.6667 C128 241.6667 137.085 240.3902 144 236.6667 C155.6958 230.3689 155.9768 229.0962 167 220.6667 C172.8336 216.2057 173.2056 216.1752 178 210.6667 C196.4519 189.4666 194.2097 183.9519 214 166.6667 C231.2391 151.6097 236.1018 152.1158 257 141.6667 C261.5185 139.4074 262.8193 139.6667 268 139.6667 C273.6517 139.6667 274.0845 141.5979 280 141.6667 C316.4028 142.09 319.5798 138.1569 354 140.6667 C364.5147 141.4334 364.9268 146.2268 376 148.6667 C393.755 152.5788 397.3012 150.3026 413 153.6667 C415.4152 154.1842 415.9093 155.3669 418 157.6667 C430.6555 171.5877 431.3902 171.6962 443 186.6667 C450.2175 195.9735 450.5897 196.3164 456 206.6667 C461.9014 217.9562 463.179 218.6304 466 230.6667 C470.4089 249.4779 471 270.6667 471 270.6667 "/>
<path id="1" d="M130 244.6667 C130 244.6667 136.1654 252.7208 141 253.6667 C154.2602 256.2611 162.4016 250.2053 176 253.6667 C185.1551 255.9971 186.9329 259.8648 196 267.6667 C208.107 278.0843 206.5077 283.7265 219 290.6667 C243.5191 304.2884 252.046 309.6722 277 312.6667 C293.7896 314.6814 298.2868 305.4284 319 302.6667 C334.7739 300.5635 336.6057 301.2672 352 302.6667 C357.3011 303.1486 358.6843 307.0366 363 306.6667 C372.962 305.8128 374.9456 302.3454 387 299.6667 C397.22 297.3956 397.6863 297.256 408 296.6667 C414.7923 296.2785 415.8043 298.8789 422 297.6667 C437.2403 294.6849 438.648 293.5462 454 287.6667 C461.7398 284.7025 462.962 284.1951 469 279.6667 C471.9471 277.4563 474 272.6667 474 272.6667 "/>
<path id="2" d="M229 190.6667 C229 190.6667 226.4934 192.1863 226 193.6667 C224.4374 198.3544 223.0085 204.4273 224 205.6667 C226.1355 208.336 238.6226 214.0419 242 213.6667 C244.0176 213.4425 249.4079 207.6199 251 202.6667 C252.9482 196.6057 251.7062 192.7284 251 185.6667 C250.8671 184.3374 249.9466 182.9822 249 182.6667 C244.6875 181.2292 238.4081 179.7302 236 180.6667 C234.3253 181.318 231 189.6667 231 189.6667 "/>
<path id="3" d="M128 235.6667 C128 235.6667 131.1368 243.393 131 243.6667 C130.9263 243.814 124.7546 244.3375 124 243.6667 C123.0178 242.7936 121.625 236.2917 122 235.6667 C122.375 235.0417 129.7016 233.4429 130 233.6667 C130.2754 233.8732 130.3288 240.79 130 241.6667 C129.9538 241.79 127 241.6667 127 241.6667 "/>
<path id="4" d="M241 198.6667 C241 198.6667 240.9694 200.6514 241 200.6667 C241.0458 200.6896 243 199.6667 243 199.6667 "/>
<path id="5" d="M228 297.6667 C228 297.6667 230.7345 298.7373 231 299.6667 C232.8454 306.1257 235.9005 314.2321 234 318.6667 C231.4557 324.6033 221.544 328.5066 216 334.6667 C215.3113 335.4319 215.4486 337.7017 216 338.6667 C216.7286 339.9417 218.1794 341.1205 220 341.6667 C222.2294 342.3355 223.9721 342.6806 226 341.6667 C234.9567 337.1883 239.874 335.059 246 328.6667 C248.6424 325.9093 248.5233 322.9101 249 317.6667 C249.4613 312.5924 248 306.6667 248 306.6667 "/>
<path id="6" d="M222 293.6667 C222 293.6667 228.0921 308.4779 227 314.6667 C226.1889 319.263 218.0114 322.9734 216 327.6667 C215.189 329.5591 218 335.6667 218 335.6667 "/>
<path id="7" d="M437 293.6667 C437 293.6667 441.3428 303.1234 442 311.6667 C442.7452 321.3539 439.8983 330.5304 440 332.6667 C440.0007 332.6813 442.0131 333.1601 443 332.6667 C446.1251 331.1041 448.104 330.5739 450 327.6667 C454.6021 320.6101 455.0476 318.1548 458 309.6667 C458.7103 307.6246 458.8103 305.837 458 304.6667 C455.6939 301.3356 452.1889 300.7253 449 296.6667 C447.398 294.6278 447 290.6667 447 290.6667 "/>
<path id="8" d="M422 298.6667 C422 298.6667 429.0653 304.6163 430 308.6667 C431.226 313.9796 427.5802 323.3232 428 324.6667 C428.0597 324.8578 432.556 325.6443 435 324.6667 C438.631 323.2143 443 318.6667 443 318.6667 "/>
<path id="9" d="M272 127.6667 L281 158.6667 "/>
<path id="10" d="M293 133.6667 C293 133.6667 292.6969 140.1935 294 145.6667 C295.0598 150.1176 298 154.6667 298 154.6667 "/>
<path id="11" d="M345 113.6667 L345 156.6667 "/>
<path id="12" d="M311 119.6667 L316 153.6667 "/>
<path id="13" d="M385 129.6667 L378 159.6667 "/>
<path id="14" d="M425 156.6667 C425 156.6667 420.5182 161.4365 418 166.6667 C414.254 174.4467 412 183.6667 412 183.6667 "/>
<path id="15" d="M402 138.6667 L397 167.6667 "/>
<path id="16" d="M365 127.6667 C365 127.6667 367.7799 135.9629 368 143.6667 C368.2592 152.7387 366 162.6667 366 162.6667 "/>
<path id="17" d="M434 193.6667 C434 193.6667 433.7599 189.643 435 186.6667 C438.4696 178.3397 438.96 176.189 444 169.6667 C446.3526 166.6221 452 164.6667 452 164.6667 "/>
<path id="18" d="M447 210.6667 L463 193.6667 "/>
<path id="19" d="M459 230.6667 L469 228.6667 "/>
<path id="20" d="M470 227.6667 L482 224.6667 "/>
<path id="21" d="M454 264.6667 L488 255.6667 "/>
<path id="22" d="M302 233.6667 L297 203.6667 "/>
<path id="23" d="M333 283.6667 C333 283.6667 332.0605 268.9933 333 254.6667 C334.0451 238.7284 337 222.6667 337 222.6667 "/>
<path id="24" d="M390 278.6667 L394 238.6667 "/>
<path id="25" d="M413 263.6667 C413 263.6667 416.8873 258.6102 417 254.6667 C417.3204 243.4543 414 228.6667 414 228.6667 "/>
<path id="26" d="M369 241.6667 L367 216.6667 "/>
<path id="27" d="M337 199.6667 C337 199.6667 332.5609 197.3494 332 195.6667 C330.9112 192.4001 332 184.6667 332 184.6667 "/>
<path id="28" d="M316 256.6667 C316 256.6667 315.0214 259.6559 315 259.6667 C315 259.6667 314.1644 258.6528 314 257.6667 C313.2288 253.0394 313 247.6667 313 247.6667 "/>
<path id="29" d="M282 273.6667 L285 223.6667 "/>
<path id="30" d="M273 202.6667 L276 189.6667 "/>
<path id="31" d="M313 177.6667 C313 177.6667 309.2743 175.2213 309 173.6667 C308.2524 169.4304 310 160.6667 310 160.6667 "/>
<path id="32" d="M375 197.6667 L389 173.6667 "/>
<path id="33" d="M389 210.6667 C389 210.6667 396.1323 198.9777 405 189.6667 C415.7321 178.3979 429 168.6667 429 168.6667 "/>
<path id="34" d="M262 147.6667 L253 113.6667 "/>
<path id="35" d="M241 161.6667 L231 145.6667 "/>
<path id="36" d="M220 173.6667 C220 173.6667 217.4341 174.1342 217 173.6667 C213.3711 169.7586 207 159.6667 207 159.6667 "/>
<path id="37" d="M206 189.6667 L187 172.6667 "/>
<path id="38" d="M256 145.6667 L247 130.6667 "/>
<path id="39" d="M226 167.6667 L224 139.6667 "/>
<path id="40" d="M210 181.6667 L197 148.6667 "/>
<path id="41" d="M351 197.6667 L373 165.6667 "/>
<path id="42" d="M363 256.6667 L358 209.6667 "/>
<path id="43" d="M330 240.6667 L314 203.6667 "/>
<path id="44" d="M264 256.6667 L269 234.6667 "/>
<path id="45" d="M267 191.6667 L268 168.6667 "/>
<path id="46" d="M354 266.6667 L357 238.6667 "/>
<path id="47" d="M374 261.6667 L388 229.6667 "/>
<path id="48" d="M431 241.6667 L446 221.6667 "/>
<path id="49" d="M429 214.6667 C429 214.6667 426.9768 213.6925 427 213.6667 C428.6012 211.8875 456 184.6667 456 184.6667 "/>
<path id="50" d="M404 206.6667 C404 206.6667 408.2446 205.7147 410 203.6667 C416.0978 196.5526 422 185.6667 422 185.6667 "/>
<path id="51" d="M350 178.6667 L349 161.6667 "/>
<path id="52" d="M326 172.6667 L332 122.6667 "/>
<path id="53" d="M266 258.6667 L271 286.6667 "/>
<path id="54" d="M300 266.6667 L303 289.6667 "/>
<path id="55" d="M355 277.6667 L359 287.6667 "/>
<path id="56" d="M439 252.6667 L446 282.6667 "/>
<path id="57" d="M417 280.6667 C417 280.6667 415.7271 282.6844 416 283.6667 C417.6706 289.6808 422 298.6667 422 298.6667 "/>
</g>
</g>
</svg>
