<?xml version="1.0" encoding="utf-8"?>
<!DOCTYPE svg PUBLIC "-//W3C//DTD SVG 1.1//EN" "http://www.w3.org/Graphics/SVG/1.1/DTD/svg11.dtd">
<svg viewBox="0 0 800 800" preserveAspectRatio="xMinYMin meet" xmlns="http://www.w3.org/2000/svg" version="1.1">
<g fill="none" stroke="black" stroke-linecap="round" stroke-linejoin="round" stroke-width="0.96486">
<g transform="translate(87.52,137.2681) scale(3.1093) translate(-212,-50.4167)">
<path id="0" d="M276 132.4167 C276 132.4167 258.9471 130.522 246 132.4167 C240.8738 133.1668 235.7097 135.96 235 138.4167 C231.9395 149.0106 232.8877 173.0369 233 177.4167 C233.0002 177.4253 235.5468 176.9635 236 177.4167 C238.266 179.6827 238.7278 183.1445 242 186.4167 C243.9633 188.38 245.2363 189.2475 248 189.4167 C267.2181 190.5933 269.8427 190.4572 291 189.4167 C299.9291 188.9775 307.9238 188.1506 309 186.4167 C310.9744 183.2357 311.3126 171.4658 309 160.4167 C307.3204 152.3917 305.1492 151.1405 300 143.4167 C296.4179 138.0436 295.3029 135.4026 291 133.4167 C285.3358 130.8024 274 131.4167 274 131.4167 "/>
<path id="1" d="M272 164.4167 C272 164.4167 270.7045 175.1061 268 181.4167 C267.1122 183.4881 264.0133 183.3902 263 185.4167 C261.2853 188.8462 260.6981 195.1651 261 195.4167 C261.6674 195.9729 269.8503 196.7041 275 195.4167 C277.6668 194.75 280.5836 192.4293 281 190.4167 C282.6012 182.6773 281.9 169.1167 281 166.4167 C280.9 166.1167 273 166.4167 273 166.4167 "/>
<path id="2" d="M270 182.4167 C270 182.4167 266.9303 193.5798 267 194.4167 C267.002 194.4404 269.3577 194.9641 271 194.4167 C276.2005 192.6832 279.1917 191.757 282 189.4167 C282.9567 188.6194 283.4793 185.6148 283 184.4167 C282.2707 182.5934 280.1694 180.0547 278 179.4167 C273.9767 178.2334 267.8695 178.6976 266 179.4167 C265.5446 179.5918 265 184.4167 265 184.4167 "/>
<path id="3" d="M243 155.4167 C243 155.4167 242.704 149.5385 243 149.4167 C245.0859 148.5578 259.1663 148.0276 260 148.4167 C260.0874 148.4575 258.88 156.0461 258 156.4167 C255.2133 157.59 243.0135 156.8904 241 156.4167 C240.8885 156.3904 241 152.4167 241 152.4167 "/>
<path id="4" d="M292 150.4167 C292 150.4167 290.0345 150.3305 290 150.4167 C289.7845 150.9555 289.5763 154.993 290 155.4167 C290.5932 156.0098 295.6777 156.6315 296 156.4167 C296.2014 156.2824 296.5705 151.9872 296 151.4167 C294.7449 150.1616 288 148.4167 288 148.4167 "/>
<path id="5" d="M240 137.4167 L234 119.4167 "/>
<path id="6" d="M258 136.4167 L254 117.4167 "/>
<path id="7" d="M270 131.4167 L270 115.4167 "/>
<path id="8" d="M278 136.4167 L281 116.4167 "/>
<path id="9" d="M294 142.4167 L294 127.4167 "/>
<path id="10" d="M297 146.4167 C297 146.4167 301.8921 142.7677 305 138.4167 C309.0791 132.7059 312 125.4167 312 125.4167 "/>
<path id="11" d="M316 152.4167 L318 137.4167 "/>
<path id="12" d="M234 145.4167 L232 145.4167 "/>
<path id="13" d="M234 151.4167 L212 142.4167 "/>
<path id="14" d="M227 158.4167 L223 157.4167 "/>
<path id="15" d="M310 192.4167 C310 192.4167 316.9821 192.4226 323 190.4167 C349.2734 181.6589 351.9364 182.4485 376 170.4167 C388.2228 164.3053 388.9044 162.2394 399 152.4167 C406.8529 144.776 411.2108 142.4682 413 134.4167 C416.8139 117.2542 415.0722 108.0662 413 89.4167 C412.5549 85.4105 410.5547 84.133 407 80.4167 C399.9325 73.0279 399.4134 72.5355 391 66.4167 C383.2001 60.744 382.6961 60.493 374 56.4167 C367.0456 53.1568 366.3679 52.3189 359 51.4167 C342.8965 49.4448 338.9725 47.7803 325 50.4167 C316.2906 52.06 314.8656 55.26 306 61.4167 C297.1067 67.5926 297.8737 69.7698 289 75.4167 C281.9945 79.8747 279.8779 77.7449 273 82.4167 C254.2107 95.1792 252.3082 96.1278 236 111.4167 C229.3942 117.6096 229.3801 119.2405 225 127.4167 C222.1704 132.6985 221.7303 133.5746 221 139.4167 C219.8316 148.764 218.626 151.5032 221 159.4167 C223.8014 168.7546 227.3463 172.5066 233 179.4167 C234.31 181.0178 236.076 180.999 239 181.4167 C242.7214 181.9483 245.0041 181.8602 247 181.4167 C247.3604 181.3366 248 179.4167 248 179.4167 "/>
<path id="16" d="M254 126.4167 L257 66.4167 "/>
<path id="17" d="M261 124.4167 L288 85.4167 "/>
<path id="18" d="M295 110.4167 C295 110.4167 294.0923 106.4122 295 103.4167 C298.7645 90.9937 305 77.4167 305 77.4167 "/>
<path id="19" d="M301 123.4167 L325 91.4167 "/>
<path id="20" d="M332 119.4167 L335 90.4167 "/>
<path id="21" d="M337 125.4167 C337 125.4167 335.6499 119.7306 337 116.4167 C340.3725 108.1387 348 98.4167 348 98.4167 "/>
<path id="22" d="M357 140.4167 C357 140.4167 365.3724 129.316 370 120.4167 C370.8647 118.7539 370 115.4167 370 115.4167 "/>
<path id="23" d="M353 176.4167 C353 176.4167 357.9976 172.6884 360 168.4167 C364.9255 157.909 368 144.4167 368 144.4167 "/>
<path id="24" d="M328 189.4167 L332 158.4167 "/>
<path id="25" d="M321 177.4167 C321 177.4167 319.5444 170.4304 321 165.4167 C323.6216 156.3866 330 146.4167 330 146.4167 "/>
<path id="26" d="M357 142.4167 C357 142.4167 356.1665 139.2503 357 137.4167 C362.804 124.6479 372 109.4167 372 109.4167 "/>
<path id="27" d="M374 128.4167 C374 128.4167 379.8989 114.5101 383 101.4167 C384.171 96.4726 383 90.4167 383 90.4167 "/>
<path id="28" d="M396 113.4167 L396 82.4167 "/>
<path id="29" d="M371 94.4167 L371 54.4167 "/>
<path id="30" d="M354 80.4167 L354 65.4167 "/>
<path id="31" d="M339 82.4167 L337 61.4167 "/>
<path id="32" d="M321 88.4167 L321 65.4167 "/>
<path id="33" d="M313 88.4167 L313 70.4167 "/>
<path id="34" d="M281 110.4167 L279 76.4167 "/>
<path id="35" d="M262 109.4167 C262 109.4167 266.987 99.6188 269 90.4167 C270.2746 84.5901 269 77.4167 269 77.4167 "/>
<path id="36" d="M255 114.4167 C255 114.4167 255.3502 94.8931 254 83.4167 C253.8545 82.1801 251 80.4167 251 80.4167 "/>
<path id="37" d="M237 119.4167 L237 106.4167 "/>
<path id="38" d="M233 138.4167 L233 102.4167 "/>
<path id="39" d="M228 143.4167 L227 119.4167 "/>
<path id="40" d="M224 153.4167 L223 127.4167 "/>
<path id="41" d="M222 165.4167 L222 127.4167 "/>
<path id="42" d="M230 149.4167 L230 111.4167 "/>
<path id="43" d="M234 129.4167 L234 122.4167 "/>
<path id="44" d="M236 136.4167 L236 121.4167 "/>
<path id="45" d="M244 132.4167 L244 114.4167 "/>
<path id="46" d="M252 134.4167 C252 134.4167 256.1159 128.0691 258 122.4167 C258.8075 119.9942 258 116.4167 258 116.4167 "/>
<path id="47" d="M269 139.4167 L274 114.4167 "/>
<path id="48" d="M288 141.4167 L290 128.4167 "/>
<path id="49" d="M310 152.4167 L315 143.4167 "/>
<path id="50" d="M234 180.4167 C234 180.4167 230.3887 185.1576 227 187.4167 C225.3541 188.514 223.0091 187.5517 222 188.4167 C220.917 189.3449 219.9285 193.2378 220 193.4167 C220.0273 193.4848 223.7389 193.0105 224 193.4167 C225.7479 196.1357 228.9967 207.4114 229 207.4167 C229.0011 207.4185 228.2485 202.068 229 201.4167 C232.0446 198.778 242.1211 197.1008 244 194.4167 C245.3206 192.5301 243 181.4167 243 181.4167 "/>
<path id="51" d="M318 196.4167 C318 196.4167 308.8498 218.5907 309 219.4167 C309.0096 219.4694 321.5653 219.2861 322 218.4167 C323.4491 215.5185 322 193.4167 322 193.4167 "/>
<path id="52" d="M391 166.4167 C391 166.4167 388.1614 184.2785 389 185.4167 C389.5641 186.1823 404.7241 186.1063 405 185.4167 C406.7241 181.1063 405 145.4167 405 145.4167 "/>
</g>
</g>
</svg>
