<?xml version="1.0" encoding="utf-8"?>
<!DOCTYPE svg PUBLIC "-//W3C//DTD SVG 1.1//EN" "http://www.w3.org/Graphics/SVG/1.1/DTD/svg11.dtd">
<svg viewBox="0 0 800 800" preserveAspectRatio="xMinYMin meet" xmlns="http://www.w3.org/2000/svg" version="1.1">
<g fill="none" stroke="black" stroke-linecap="round" stroke-linejoin="round" stroke-width="1.9201">
<g transform="translate(87.52,265.6336) scale(1.5624) translate(-28,-107.4167)">
<path id="0" d="M63 149.4167 C63 149.4167 71.8861 139.5539 82 134.4167 C101.9986 124.2586 103.7784 123.2989 126 117.4167 C153.7872 110.0612 155.2111 110.1072 184 107.4167 C207.936 105.1797 209.0638 104.9527 233 107.4167 C276.2029 111.864 281.4384 110.3057 320 121.4167 C335.5726 125.9037 338.8082 130.386 351 141.4167 C357.7759 147.5472 355.7912 151.221 362 159.4167 C368.0374 167.386 376 174.4167 376 174.4167 "/>
<path id="1" d="M377 177.4167 C377 177.4167 381.5425 178.1826 384 180.4167 C396.7696 192.0254 396.3313 195.6119 410 207.4167 C417.6217 213.9991 423.8044 214.2211 428 218.4167 C429.0127 219.4294 428.5404 224.3359 428 225.4167 C427.7684 225.8798 425.0457 226.8742 424 226.4167 C419.4501 224.4261 417.2307 222.9935 412 218.4167 C405.5648 212.7859 406.4308 208.9536 400 205.4167 C388.9351 199.331 377.8247 198.7049 372 196.4167 C371.8549 196.3597 372 194.4167 372 194.4167 "/>
<path id="2" d="M392 204.4167 C392 204.4167 366.6971 203.0367 342 203.4167 C334.5734 203.5309 333.1079 202.6508 327 205.4167 C308.5822 213.7568 289 227.4167 289 227.4167 "/>
<path id="3" d="M287 233.4167 C287 233.4167 283.7641 236.7256 281 237.4167 C277.0513 238.4039 275.3956 236.3617 271 237.4167 C263.7736 239.151 263.5308 241.9374 256 243.4167 C236.458 247.2553 235.424 247.0367 215 248.4167 C198.6956 249.5183 198.0596 249.9223 182 248.4167 C166.64 246.9767 166.5606 244.5386 151 242.4167 C122.7242 238.5609 94 236.4167 94 236.4167 "/>
<path id="4" d="M62 150.4167 C62 150.4167 43.0721 162.7666 39 173.4167 C33.0896 188.8746 38.8028 196.2488 36 218.4167 C33.3434 239.4279 28.6118 241.7574 28 260.4167 C27.7278 268.7185 33.5197 279.2794 34 279.4167 C34.4743 279.5522 40.9768 270.7771 49 266.4167 C62.6434 259.0018 71.8334 259.0104 80 254.4167 C80.9465 253.8843 79.739 249.7617 81 248.4167 C85.2032 243.9333 95 238.4167 95 238.4167 "/>
<path id="5" d="M337 176.4167 C337 176.4167 320.2482 179.9805 317 182.4167 C316.1051 183.0879 316.4648 191.1491 317 191.4167 C319.7353 192.7843 331.6969 193.9784 339 193.4167 C340.4401 193.3059 342.5527 190.9077 343 189.4167 C343.4903 187.7823 343.1045 184.7973 342 183.4167 C340.4407 181.4675 338.2829 180.1891 335 179.4167 C330.866 178.444 325 179.4167 325 179.4167 "/>
</g>
</g>
</svg>
