<?xml version="1.0" encoding="utf-8"?>
<!DOCTYPE svg PUBLIC "-//W3C//DTD SVG 1.1//EN" "http://www.w3.org/Graphics/SVG/1.1/DTD/svg11.dtd">
<svg viewBox="0 0 800 800" preserveAspectRatio="xMinYMin meet" xmlns="http://www.w3.org/2000/svg" version="1.1">
<g fill="none" stroke="black" stroke-linecap="round" stroke-linejoin="round" stroke-width="1.0897">
<g transform="translate(87.52,219.6701) scale(2.7531) translate(-197,-128)">
<path id="0" d="M216 173 C216 173 213.4933 173.221 213 174 C206.3427 184.5116 196.3341 201.8624 197 203 C198.2011 205.0519 237 215 237 215 "/>
<path id="1" d="M200 201 C200 201 207.451 203.2247 212 202 C218.2642 200.3135 226 194 226 194 "/>
<path id="2" d="M218 172 C218 172 216.8672 163.7579 219 159 C222.3907 151.4362 224.127 148.5366 231 143 C240.5194 135.3316 243.8216 131.1977 255 130 C306.1596 124.5186 321.6411 121.6311 371 128 C388.8424 130.3022 394.0078 137.6983 410 150 C417.6771 155.9055 421.0973 159.7095 423 168 C426.9199 185.0797 424.2483 200.0769 424 211 C423.994 211.2657 422.0458 212.0229 422 212 C421.9694 211.9847 422 210 422 210 C422 210 422.7773 213.1001 422 215 C418.785 222.8589 413 232 413 232 "/>
<path id="3" d="M238 215 C238 215 236.5162 224.3121 238 230 C238.9462 233.6271 243.912 237.824 244 238 C244.008 238.016 241.9992 237.9996 242 238 C242.0039 238.0019 249.9967 240.9975 250 241 C250.0013 241.001 246 241 246 241 C246 241 253.3877 239.304 260 240 C271.6718 241.2286 272.1253 243.8582 284 245 C297.5817 246.3059 298.9677 243.914 312 245 C315.8399 245.32 316.2384 247.7649 320 248 C330.9978 248.6874 332.7989 246.6266 344 247 C346.8353 247.0945 347.7392 249.266 350 249 C354.4985 248.4708 355.787 245.46 361 245 C371.5206 244.0717 374.3433 246.9657 384 246 C387.1205 245.688 387.7321 242.6225 391 242 C396.8942 240.8773 401.5342 243.9995 405 242 C410.113 239.0502 417 227 417 227 "/>
<path id="4" d="M260 240 C260 240 257.471 247.2645 256 248 C254.2532 248.8734 248.2717 247.8261 246 247 C245.5417 246.8333 245 243.9998 245 244 C245 244.0008 245.7346 253.8979 246 254 C246.5518 254.2122 253.9542 252.0344 258 249 C260.3761 247.2179 262 242 262 242 "/>
<path id="5" d="M376 247 C376 247 376.9668 253.0663 376 255 C375.154 256.692 371.5732 258.6504 370 259 C369.4164 259.1297 367.0416 257.5409 367 257 C366.7977 254.37 369 246 369 246 "/>
<path id="6" d="M232 178 C232 178 233.4014 183.5011 234 184 C234.2708 184.2257 237.6046 183.4942 238 183 C238.3766 182.5293 238.2439 179.1951 238 179 C237.6189 178.6951 233.051 178.881 233 179 C232.8538 179.3412 234.4757 185.6723 235 186 C235.3907 186.2442 240.0202 184.8165 241 184 C241.3195 183.7337 241.18 181.135 241 181 C240.68 180.76 237 181 237 181 "/>
<path id="7" d="M227 166 C227 166 239.0859 166.4286 245 169 C247.4642 170.0714 249.5275 172.8816 250 176 C251.5835 186.4514 251.084 190.4378 250 202 C249.7381 204.7933 248.2289 206.9466 247 208 C246.3963 208.5174 243.4364 207.5091 243 208 C241.4591 209.7335 239 217 239 217 "/>
<path id="8" d="M218 168 C218 168 220.382 165.2697 222 165 C224.8165 164.5306 230 166 230 166 "/>
</g>
</g>
</svg>
