<?xml version="1.0" encoding="utf-8"?>
<!DOCTYPE svg PUBLIC "-//W3C//DTD SVG 1.1//EN" "http://www.w3.org/Graphics/SVG/1.1/DTD/svg11.dtd">
<svg viewBox="0 0 800 800" preserveAspectRatio="xMinYMin meet" xmlns="http://www.w3.org/2000/svg" version="1.1">
<g fill="none" stroke="black" stroke-linecap="round" stroke-linejoin="round" stroke-width="2.8946">
<g transform="translate(87.52,292.7307) scale(1.0364) translate(-33,-213.1333)">
<path id="0" d="M159 374.1333 C159 374.1333 158.2595 371.0034 159 370.1333 C173.2619 353.3756 182.6587 349.6027 199 327.1333 C209.3447 312.9094 206.0448 309.4766 215 293.1333 C225.9201 273.2042 227.8719 273.9835 239 254.1333 C246.2741 241.1579 245.1865 240.4017 252 227.1333 C254.6466 221.9793 255.1979 220.2157 258 217.1333 C258.8406 216.2086 261.3395 215.655 262 216.1333 C270.2528 222.1095 277.2345 225.7046 287 238.1333 C309.0937 266.2526 310.6215 268.5946 328 300.1333 C336.8674 316.2261 335.4493 317.9271 341 336.1333 C347.8973 358.7563 353 382.1333 353 382.1333 "/>
<path id="1" d="M262 215.1333 C262 215.1333 273.469 214.3782 284 216.1333 C296.9065 218.2844 299.0679 218.0878 310 223.1333 C316.7606 226.2536 317.487 228.1192 323 234.1333 C328.112 239.7101 326.5489 242.0648 332 247.1333 C354.0219 267.6099 354.5213 270.9968 380 287.1333 C412.937 307.9934 418.1289 304.3614 452 323.1333 C458.0934 326.5104 457.7651 329.5343 463 333.1333 C464.6657 334.2785 466.1636 332.9856 468 334.1333 C477.0594 339.7954 482.2678 341.5983 487 348.1333 C489.8041 352.0056 487.3256 356.7706 489 363.1333 C489.5165 365.0961 490.3218 366.2942 492 367.1333 C498.7128 370.4897 509.0002 373.1328 509 373.1333 C508.9951 373.1482 498.9655 375.6924 489 376.1333 C442.9223 378.1722 441.4066 374.6134 396 378.1333 C378.1502 379.517 377.4565 385.0689 360 386.1333 C338.0801 387.4699 336.9741 383.6937 314 383.1333 C275.6044 382.1969 275.2221 381.5921 237 383.1333 C213.5695 384.0781 213.4255 386.4358 190 388.1333 C179.1188 388.9218 177.9074 389.4117 168 388.1333 C163.7145 387.5804 160.9736 386.4359 159 384.1333 C156.882 381.6623 156 374.1333 156 374.1333 "/>
<path id="2" d="M216 383.1333 C216 383.1333 214.8438 376.5841 216 371.1333 C218.1665 360.92 218.2337 359.4276 223 350.1333 C227.7812 340.81 229.1231 340.6476 236 332.1333 C239.4895 327.813 239.702 327.2375 244 324.1333 C248.246 321.0667 249.25 320.3208 254 319.1333 C258.2222 318.0778 261.0236 317.5306 264 319.1333 C271.006 322.9058 274.0436 325.623 280 333.1333 C284.5866 338.9164 284.8444 340.5059 287 348.1333 C291.1511 362.8218 293 379.1333 293 379.1333 "/>
<path id="3" d="M162 371.1333 C162 371.1333 161.2986 376.5793 159 379.1333 C153.522 385.22 150.7486 389.25 144 391.1333 C133.7018 394.0072 127.4425 388.0126 116 391.1333 C103.2943 394.5985 102.7489 400.5319 89 406.1333 C76.6044 411.1834 74.9373 411.8396 62 413.1333 C51.3513 414.1982 39 411.1333 39 411.1333 "/>
<path id="4" d="M357 384.1333 C357 384.1333 361.7624 393.1267 368 399.1333 C374.5191 405.411 384 410.1333 384 410.1333 "/>
<path id="5" d="M507 372.1333 C507 372.1333 519.9874 382.1668 531 384.1333 C544.3295 386.5136 548.5458 381.1697 563 382.1333 C569.0478 382.5365 570.2794 385.8621 576 387.1333 C577.9369 387.5638 581 386.1333 581 386.1333 "/>
<path id="6" d="M267 217.1333 C267 217.1333 268.5903 214.5671 270 214.1333 C273.704 212.9936 275.0599 213.1333 280 213.1333 C288.8922 213.1333 289.5488 212.6762 298 214.1333 C303.4363 215.0706 304.1354 215.3767 309 218.1333 C318.668 223.6119 319.504 226.8854 328 231.1333 C330.3322 232.2994 332.3153 230.0594 335 231.1333 C345.6623 235.3982 347.2477 239.2234 358 243.1333 C361.9294 244.5622 363.3074 242.2689 368 243.1333 C381.7444 245.6652 383.1006 244.8413 396 250.1333 C421.1774 260.4625 420.3627 265.1097 446 275.1333 C486.1265 290.8219 487.5914 292.3727 529 302.1333 C556.0674 308.5135 558.5531 303.0856 586 308.1333 C601.0401 310.8993 601.6883 315.3928 616 318.1333 C623.5375 319.5767 626.1673 316.7917 633 317.1333 C634.2496 317.1958 636 319.1333 636 319.1333 "/>
<path id="7" d="M390 413.1333 C390 413.1333 389.9198 398.6948 390 398.1333 C390.0038 398.1066 391.9147 398.7282 392 399.1333 C393.1055 404.3846 394 417.1333 394 417.1333 "/>
<path id="8" d="M577 394.1333 C577 394.1333 576.644 382.6762 577 381.1333 C577.019 381.0512 579.4637 380.6566 580 381.1333 C582.3437 383.2166 586 389.1333 586 389.1333 "/>
<path id="9" d="M33 420.1333 C33 420.1333 32.162 416.53 33 415.1333 C35.581 410.8317 39.4143 407.0726 42 405.1333 C42.3526 404.8689 44.8056 405.628 45 406.1333 C46.1523 409.1294 46.7454 417.4331 47 418.1333 C47.0055 418.1483 49 417.1333 49 417.1333 "/>
</g>
</g>
</svg>
