<?xml version="1.0" encoding="utf-8"?>
<!DOCTYPE svg PUBLIC "-//W3C//DTD SVG 1.1//EN" "http://www.w3.org/Graphics/SVG/1.1/DTD/svg11.dtd">
<svg viewBox="0 0 800 800" preserveAspectRatio="xMinYMin meet" xmlns="http://www.w3.org/2000/svg" version="1.1">
<g fill="none" stroke="black" stroke-linecap="round" stroke-linejoin="round" stroke-width="2.0209">
<g transform="translate(87.52,218.8952) scale(1.4845) translate(-139,-138)">
<path id="0" d="M280 158 C280 158 271.1278 166.4514 264 176 C244.8092 201.7084 244.4842 201.9353 227 229 C208.0711 258.3008 210.2819 260.0772 191 289 C174.4727 313.791 171.5886 312.4489 155 337 C146.8669 349.037 141 363 141 363 "/>
<path id="1" d="M282 158 C282 158 290.3256 170.5752 296 184 C310.6515 218.6634 307.8072 220.9005 323 255 C329.9569 270.6144 332.9491 269.6301 341 285 C349.3426 300.9267 350.1933 301.5477 356 318 C358.89 326.1883 355.9498 328.1052 359 336 C364.0005 348.9425 369.3284 351.597 373 362 C373.8656 364.4524 371 370 371 370 "/>
<path id="2" d="M141 365 C141 365 148.9266 369.4771 157 372 C164.5185 374.3495 165.0996 374.7653 173 375 C214.7384 376.2398 216.102 372.7612 258 375 C280.8586 376.2215 281.1615 379.4215 304 382 C311.8097 382.8817 312.388 383.2687 320 382 C347.5934 377.4011 376 370 376 370 "/>
<path id="3" d="M281 158 C281 158 309.3064 156.9282 337 153 C379.5483 146.9648 379.9602 144.1223 422 138 C430.6795 136.736 440 138 440 138 "/>
<path id="4" d="M440 138 C440 138 446.1888 141.3948 450 146 C457.6305 155.2202 455.9256 157.8245 464 167 C477.425 182.2557 483.8796 180.7017 494 196 C503.2406 209.9684 498.6446 215.5213 507 232 C516.1539 250.0536 519.5578 249.099 530 267 C536.9016 278.8313 535.0134 280.5419 542 292 C547.1727 300.4833 555 308 555 308 "/>
<path id="5" d="M372 371 C372 371 388.649 371.0697 403 367 C420.9771 361.902 421.6624 360.3477 439 352 C448.3448 347.5007 448.0141 344.4945 457 341 C464.731 337.9935 466.4756 340.5944 475 338 C500.4557 330.2526 500.3661 327.5952 526 320 C540.4601 315.7155 556 314 556 314 "/>
<path id="6" d="M279 160 C279 160 268.2202 196.9571 261 234 C256.8104 255.4943 259.9423 257.2132 256 278 C254.6723 285.0007 252.0997 284.8363 250 292 C243.7078 313.4675 243.3881 314.4587 239 336 C238.051 340.6585 240.1599 341.5923 239 346 C235.447 359.5015 229 374 229 374 "/>
<path id="7" d="M282 160 C282 160 286.7161 183.5687 287 206 C287.2031 222.0452 283.632 222.5676 283 239 C281.6465 274.1905 281.8501 274.6419 283 310 C283.8443 335.9609 283.8086 338.0643 287 362 C287.5184 365.888 289.9613 366.0529 291 370 C292.2924 374.9109 292 381 292 381 "/>
<path id="8" d="M280 160 C280 160 276.5563 163.3214 275 167 C271.3226 175.6921 273.1339 177.2552 269 186 C260.3949 204.2032 257.2316 203.8904 249 222 C245.1165 230.5436 247.8961 232.4587 244 241 C235.2893 260.0966 231.9335 259.8096 223 279 C218.738 288.1554 220.9311 289.5297 217 299 C210.0711 315.6923 209.7001 319.111 201 332 C198.1347 336.2448 195.7272 336.4135 190 339 C180.6329 343.2303 170.2725 345.455 170 346 C169.9118 346.1763 175.0963 354.429 181 357 C202.6732 366.4383 232 373 232 373 "/>
<path id="9" d="M139 356 C139 356 143.393 356.9884 144 358 C145.044 359.74 145 366 145 366 "/>
<path id="10" d="M380 357 C380 357 373.9266 360.6835 373 363 C372.0945 365.2639 374 372 374 372 "/>
<path id="11" d="M560 295 C560 295 557.508 297.5871 557 300 C555.7182 306.0886 556 314 556 314 "/>
</g>
</g>
</svg>
