<?xml version="1.0" encoding="utf-8"?>
<!DOCTYPE svg PUBLIC "-//W3C//DTD SVG 1.1//EN" "http://www.w3.org/Graphics/SVG/1.1/DTD/svg11.dtd">
<svg viewBox="0 0 800 800" preserveAspectRatio="xMinYMin meet" xmlns="http://www.w3.org/2000/svg" version="1.1">
<g fill="none" stroke="black" stroke-linecap="round" stroke-linejoin="round" stroke-width="1.5841">
<g transform="translate(87.52,302.4684) scale(1.8938) translate(-76,-269.1333)">
<path id="0" d="M103 367.1333 C103 367.1333 109.2496 363.8647 113 359.1333 C140.6918 324.1991 143.159 321.7839 168 285.1333 C172.4796 278.5241 172.3276 269.278 174 269.1333 C214.5431 265.6269 322.8628 263.7575 353 269.1333 C355.0013 269.4903 354.8733 286.2162 359 302.1333 C361.7555 312.7618 361.5698 314.1526 367 323.1333 C373.9112 334.5634 377.0814 333.6154 385 345.1333 C393.3649 357.3005 400 371.1333 400 371.1333 "/>
<path id="1" d="M170 269.1333 C170 269.1333 155.0628 277.6373 141 279.1333 C110.5952 282.3679 76 279.1333 76 279.1333 "/>
<path id="2" d="M76 279.1333 C76 279.1333 76.2133 288.4233 78 297.1333 C80.1574 307.6509 80.2705 308.188 84 318.1333 C86.1254 323.8011 88.458 323.516 90 329.1333 C95.1449 347.8753 98 369.1333 98 369.1333 "/>
<path id="3" d="M101 369.1333 C101 369.1333 148.132 371.7937 195 372.1333 C216.9259 372.2922 217.3191 372.5158 239 370.1333 C262.4751 367.5537 262.8402 362.8267 286 362.1333 C344.7876 360.3732 406 365.1333 406 365.1333 "/>
<path id="4" d="M355 271.1333 C355 271.1333 365.2587 275.6822 373 282.1333 C382.641 290.1675 382.946 291.2207 391 301.1333 C395.6707 306.8819 399 314.1333 399 314.1333 "/>
<path id="5" d="M359 301.1333 C359 301.1333 375.4828 302.5926 390 306.1333 C395.0552 307.3663 400 311.1333 400 311.1333 "/>
</g>
</g>
</svg>
