<?xml version="1.0" encoding="utf-8"?>
<!DOCTYPE svg PUBLIC "-//W3C//DTD SVG 1.1//EN" "http://www.w3.org/Graphics/SVG/1.1/DTD/svg11.dtd">
<svg viewBox="0 0 800 800" preserveAspectRatio="xMinYMin meet" xmlns="http://www.w3.org/2000/svg" version="1.1">
<g fill="none" stroke="black" stroke-linecap="round" stroke-linejoin="round" stroke-width="3.0194">
<g transform="translate(87.52,242.0212) scale(0.99358) translate(-12,-34.1333)">
<path id="0" d="M302 87.1333 C302 87.1333 300.2221 92.8778 297 95.1333 C263.9883 118.2415 257.098 118.0633 222 143.1333 C212.9617 149.5893 212.2054 151.8595 206 160.1333 C204.1812 162.5584 205.913 164.8378 204 167.1333 C185.7165 189.0736 184.362 193.9779 161 214.1333 C134.6115 236.8998 130.4635 233.8806 102 255.1333 C93.3606 261.5841 94.2943 263.7531 86 270.1333 C81.8297 273.3413 79.5943 271.9384 76 275.1333 C71.5762 279.0656 72.5423 281.5911 68 286.1333 C62.9796 291.1537 59.0494 291.5757 56 295.1333 C55.2094 296.0557 56.7529 299.3177 56 300.1333 C53.1273 303.2454 49.0585 303.4964 44 308.1333 C37.5025 314.0894 31.9905 322.1278 32 322.1333 C32.0491 322.162 44.2379 316.6303 56 315.1333 C70.6489 313.2689 74.3788 311.812 87 315.1333 C99.1927 318.3419 101.2685 324.4568 113 330.1333 C114.7637 330.9867 115.6603 330.5233 118 330.1333 C121.4316 329.5614 122.1965 329.8398 125 328.1333 C132.9506 323.2938 132.7125 320.5208 141 316.1333 C148.8513 311.9768 150.2439 311.1437 159 310.1333 C174.9268 308.2956 177.3113 307.6431 193 310.1333 C207.114 312.3736 209.0969 313.2785 222 320.1333 C239.9563 329.6726 249.4617 342.4749 257 344.1333 C259.272 344.6332 264.2304 335.9558 272 331.1333 C277.7604 327.5579 279.1978 327.3061 286 326.1333 C292.8653 324.9497 293.9732 325.0354 301 326.1333 C309.3297 327.4348 318 331.1333 318 331.1333 "/>
<path id="1" d="M318 331.1333 C318 331.1333 323.34 329.7834 324 328.1333 C330.4291 312.0605 334.6074 304.1547 338 281.1333 C341.3191 258.6108 336.59 256.8218 338 233.1333 C339.0663 215.2201 339.6618 214.5662 343 197.1333 C344.0628 191.5833 344.875 186.9833 347 186.1333 C361.0151 180.5273 372.8935 177.5709 398 175.1333 C423.0269 172.7035 448.9144 173.54 450 176.1333 C456.143 190.8084 452.8055 240.8986 452 304.1333 C451.8171 318.488 447.9998 333.1308 448 333.1333 C448.0001 333.1344 450.1038 324.7672 453 320.1333 C454.1001 318.3732 456.0749 317.1333 458 317.1333 C464.5453 317.1333 468.8772 317.0719 475 320.1333 C480.4608 322.8638 481.2996 328.2609 486 331.1333 C487.8566 332.2679 490.0682 331.9151 493 331.1333 C496.7973 330.1207 499.0306 329.2997 501 327.1333 C502.5406 325.4387 501.3822 322.0747 503 320.1333 C505.1779 317.5199 507.4676 315.7221 511 315.1333 C517.3316 314.0781 520.7529 314.051 527 316.1333 C532.2272 317.8757 534.0631 319.9152 538 324.1333 C540.1121 326.3963 540.8945 331.1585 541 331.1333 C542.6506 330.7403 549.9673 323.504 559 319.1333 C564.4833 316.4801 565.6582 316.382 572 316.1333 C590.3522 315.4136 592.6163 314.2361 610 317.1333 C620.7035 318.9172 624.0223 321.8121 632 326.1333 C633.2369 326.8033 634 330.1333 634 330.1333 "/>
<path id="2" d="M438 71.1333 C438 71.1333 444.9564 85.2832 455 93.1333 C486.1199 117.4569 491.9629 115.7146 525 139.1333 C530.1801 142.8053 528.9814 145.0003 534 149.1333 C545.5959 158.6829 550.3321 156.3641 559 167.1333 C581.0551 194.5352 581.8833 200.3771 600 231.1333 C602.0918 234.6845 599.8834 236.66 602 240.1333 C618.0621 266.4916 625.912 269.293 639 295.1333 C643.0845 303.1976 641.3007 314.9279 641 317.1333 C640.9906 317.2025 637.2607 316.433 636 317.1333 C634.2911 318.0827 632 322.1333 632 322.1333 "/>
<path id="3" d="M290 104.1333 C290 104.1333 293.4954 94.65 299 90.1333 C311.0289 80.2634 314.3278 79.2905 329 72.1333 C333.5308 69.9232 335.5985 72.4541 340 70.1333 C361.2639 58.9215 384 43.1333 384 43.1333 "/>
<path id="4" d="M394 39.1333 C394 39.1333 410.6968 54.5917 428 68.1333 C433.3343 72.308 440 75.1333 440 75.1333 "/>
<path id="5" d="M387 41.1333 C387 41.1333 391.6351 38.7258 393 37.1333 C393.4479 36.6108 393.0175 34.1246 393 34.1333 C392.8659 34.2004 385 41.1333 385 41.1333 "/>
<path id="6" d="M395 177.1333 C395 177.1333 389.3232 193.871 387 210.1333 C385.435 221.0883 385.5115 222.7136 387 233.1333 C387.8229 238.8933 390.9629 239.2069 392 245.1333 C394.2837 258.183 390.2251 261.2127 394 273.1333 C398.9284 288.6967 400.767 292.4044 411 305.1333 C419.581 315.8072 424.5048 318.2684 435 324.1333 C438.0318 325.8275 445 324.1333 445 324.1333 "/>
<path id="7" d="M392 270.1333 C392 270.1333 395.9314 274.185 396 277.1333 C396.3473 292.0683 397.587 307.3392 393 313.1333 C388.2536 319.1288 373.3747 322.2506 358 325.1333 C352.8665 326.0959 351.216 322.6984 345 322.1333 C340.8276 321.754 339.2128 321.6214 336 323.1333 C332.1686 324.9363 331.89 327.7395 328 330.1333 C326.2252 331.2255 323 331.1333 323 331.1333 "/>
<path id="8" d="M384 46.1333 C384 46.1333 365.3196 79.1247 344 108.1333 C335.5014 119.697 330.9829 118.1224 323 129.1333 C317.5348 136.6715 319.8613 139.383 315 148.1333 C310.0926 156.9666 309.0833 156.6951 303 165.1333 C293.5854 178.1922 294.1626 179.3316 284 191.1333 C279.1219 196.7982 276.5354 195.3507 272 201.1333 C257.2899 219.8888 256.0005 222.0035 244 242.1333 C241.3399 246.5954 243.5791 250.1244 241 253.1333 C236.6563 258.201 231.9482 257.0685 226 263.1333 C207.3917 282.1065 190 305.1333 190 305.1333 "/>
<path id="9" d="M378 51.1333 C378 51.1333 377.718 55.3036 376 58.1333 C369.703 68.5048 369.6046 70.1626 361 79.1333 C346.7285 94.0122 342.4057 91.923 329 107.1333 C317.4014 120.2933 319.6358 124.3068 309 138.1333 C305.4018 142.8109 301.8107 141.8236 299 146.1333 C295.4656 151.5527 298.0646 157.2622 294 161.1333 C281.1839 173.3392 273.7733 172.6489 257 186.1333 C249.1087 192.4773 250.6883 195.6099 243 202.1333 C234.8639 209.0367 228.7223 208.5116 224 214.1333 C221.5206 217.085 224.4181 224.3697 222 227.1333 C217.4711 232.3092 210.2291 231.6272 203 238.1333 C196.6464 243.8515 198.2348 247.8985 192 254.1333 C186.6889 259.4445 183.5223 257.8234 178 263.1333 C171.3245 269.5521 173.1771 274.0209 166 279.1333 C139.422 298.0656 133.0229 297.4574 105 315.1333 C102.6051 316.644 100.9902 320.1138 101 320.1333 C101.0065 320.1464 107 319.1333 107 319.1333 "/>
<path id="10" d="M382 50.1333 C382 50.1333 382.9647 57.5983 386 63.1333 C391.0202 72.2879 391.5288 73.4883 399 81.1333 C412.4604 94.9068 414.8235 93.6839 429 107.1333 C434.0402 111.9151 434.0401 112.3255 438 118.1333 C448.9342 134.1702 449.8733 134.1475 459 151.1333 C467.6684 167.2662 465.1119 169.2788 474 185.1333 C483.2914 201.7072 483.9257 202.3485 496 217.1333 C508.0944 231.9428 511.6635 229.9185 523 245.1333 C549.0361 280.0765 572 319.1333 572 319.1333 "/>
<path id="11" d="M379 68.1333 C379 68.1333 377.1027 79.1601 378 88.1333 C378.469 92.8229 381.6186 93.3663 382 98.1333 C383.4781 116.6102 380.5219 119.6565 382 138.1333 C382.3814 142.9004 385.2581 143.2369 386 148.1333 C387.6194 158.8215 387 171.1333 387 171.1333 "/>
<path id="12" d="M272 329.1333 C272 329.1333 269.9321 318.5305 271 309.1333 C272.3254 297.4702 272.7734 295.6998 277 285.1333 C279.2734 279.4499 282.2322 279.9602 285 274.1333 C291.4004 260.6587 289.4451 258.5553 296 245.1333 C299.6012 237.7594 301.8936 238.4906 306 231.1333 C313.7202 217.3012 314.459 216.9753 320 202.1333 C328.2931 179.9196 327.2441 174.5243 334 156.1333 C334.5904 154.5261 337.3485 154.5667 338 153.1333 C339.1433 150.6182 337.4557 148.1032 339 145.1333 C343.2125 137.0325 346.9626 137.0494 351 128.1333 C358.4569 111.6661 355.8492 109.233 363 92.1333 C367.1142 82.295 368.3987 80.3821 374 73.1333 C375.5554 71.1205 378.1919 72.0922 380 70.1333 C383.2905 66.5686 386 60.1333 386 60.1333 "/>
<path id="13" d="M33 334.1333 C33 334.1333 40.7309 332.0403 44 330.1333 C44.6743 329.74 44.8883 328.5853 45 327.1333 C45.363 322.4145 45.8298 321.0055 45 317.1333 C44.6148 315.3355 42.5488 315.109 42 313.1333 C40.3473 307.1836 41.8196 304.8954 40 299.1333 C39.2211 296.6668 37.4312 294.7058 36 294.1333 C34.6642 293.599 31.8432 294.2117 30 295.1333 C29.0075 295.6296 28.1678 296.7908 28 298.1333 C27.3287 303.5036 26.4385 305.7548 28 311.1333 C30.4759 319.6616 33.6388 319.946 37 329.1333 C40.9773 340.0045 43.0074 352.1012 43 352.1333 C42.9973 352.1451 37.3631 347.4181 34 342.1333 C30.7536 337.0318 30.3974 336.1886 29 330.1333 C26.0337 317.2792 24.9956 303.1309 25 303.1333 C25.0084 303.1379 32.5569 321.1778 42 337.1333 C46.7368 345.137 53.9512 351.9624 54 352.1333 C54.0087 352.1638 48.8457 352.6311 46 351.1333 C40.7478 348.369 38.4104 346.5931 35 342.1333 C33.1335 339.6925 34.6967 337.5267 33 334.1333 C29.9837 328.1008 26.9244 327.666 25 322.1333 C23.568 318.0164 24.533 313.9353 25 311.1333 C25.0566 310.7937 26.9149 310.0766 27 310.1333 C27.1914 310.2609 28 313.1333 28 313.1333 C28 313.1333 20.9986 292.1499 21 292.1333 C21.0006 292.1266 25.9741 296.7625 29 301.1333 C29.9766 302.544 30.0633 304.8802 30 305.1333 C29.9916 305.1671 28.1 305.3083 28 305.1333 C27.2875 303.8865 25.9744 298.287 26 298.1333 C26.0019 298.1218 28.9056 299.1963 29 299.1333 C29.0809 299.0794 28.9949 296.1295 29 296.1333 C29.0192 296.1477 32.0195 299.1919 33 302.1333 C34.2479 305.877 33.03 307.2534 34 311.1333 C34.367 312.6014 36 314.1333 36 314.1333 C36.0322 314.1119 36.9995 309.1318 37 309.1333 C37.0016 309.1385 39.0005 324.1333 39 324.1333 C38.9982 324.1333 32 309.1332 32 309.1333 C32 309.1335 36.7872 324.7981 42 339.1333 C42.5776 340.7218 43.9993 342.1374 44 342.1333 C44.0022 342.1199 43.9338 337.491 43 333.1333 C40.9659 323.6409 38 314.1333 38 314.1333 C38 314.1333 47.9974 350.1278 48 350.1333 C48.001 350.1354 49.3984 341.6593 48 335.1333 C46.6682 328.9182 42 322.1333 42 322.1333 C42 322.1334 52.9302 340.9762 53 341.1333 C53.0068 341.1487 50 340.1333 50 340.1333 "/>
<path id="14" d="M42 321.1333 C42 321.1333 35.442 319.4803 30 320.1333 C23.8251 320.8743 21.9109 321.405 17 324.1333 C14.3115 325.6269 11.9987 330.1322 12 330.1333 C12.112 330.2293 18.9188 331.5624 24 330.1333 C33.5405 327.4501 44 321.1333 44 321.1333 "/>
</g>
</g>
</svg>
