<?xml version="1.0" encoding="utf-8"?>
<!DOCTYPE svg PUBLIC "-//W3C//DTD SVG 1.1//EN" "http://www.w3.org/Graphics/SVG/1.1/DTD/svg11.dtd">
<svg viewBox="0 0 800 800" preserveAspectRatio="xMinYMin meet" xmlns="http://www.w3.org/2000/svg" version="1.1">
<g fill="none" stroke="black" stroke-linecap="round" stroke-linejoin="round" stroke-width="1.5409">
<g transform="translate(87.52,240.3529) scale(1.9469) translate(-219,-133.4167)">
<path id="0" d="M219 279.4167 C219 279.4167 230.5093 246.6696 248 219.4167 C272.6039 181.0804 304.7129 145.2454 305 145.4167 C308.1639 147.3039 362 287.4167 362 287.4167 "/>
<path id="1" d="M221 283.4167 C221 283.4167 235.9284 282.0892 250 283.4167 C261.8743 284.5369 262.1501 287.7434 274 288.4167 C305.2301 290.1911 306.7052 286.4402 338 288.4167 C353.3437 289.3857 369 294.4167 369 294.4167 "/>
<path id="2" d="M257 277.4167 C257 277.4167 262.6203 268.0359 266 258.4167 C268.9593 249.994 266.1315 247.7668 270 240.4167 C280.1371 221.1562 295.7044 201.3847 296 201.4167 C296.2123 201.4396 299.0673 224.7051 307 244.4167 C315.0041 264.3057 329 283.4167 329 283.4167 "/>
<path id="3" d="M306 146.4167 C306 146.4167 360.1531 136.1038 413 133.4167 C447.2606 131.6746 483 137.4167 483 137.4167 "/>
<path id="4" d="M482 138.4167 C482 138.4167 492.6349 149.906 499 162.4167 C506.6237 177.4012 505.3716 182.2838 511 195.4167 C511.4848 196.548 513.3988 196.2143 514 197.4167 C525.8524 221.1215 540 253.4167 540 253.4167 "/>
<path id="5" d="M370 297.4167 C370 297.4167 405.3644 296.8335 439 292.4167 C453.9936 290.4478 463.1872 286.3543 469 284.4167 C469.1186 284.3771 468.8434 282.4799 469 282.4167 C480.5705 277.744 495.5168 271.5066 521 263.4167 C525.9698 261.839 528.8936 264.2151 532 262.4167 C535.6995 260.2749 540 252.4167 540 252.4167 "/>
</g>
</g>
</svg>
