<?xml version="1.0" encoding="utf-8"?>
<!DOCTYPE svg PUBLIC "-//W3C//DTD SVG 1.1//EN" "http://www.w3.org/Graphics/SVG/1.1/DTD/svg11.dtd">
<svg viewBox="0 0 800 800" preserveAspectRatio="xMinYMin meet" xmlns="http://www.w3.org/2000/svg" version="1.1">
<g fill="none" stroke="black" stroke-linecap="round" stroke-linejoin="round" stroke-width="2.4146">
<g transform="translate(87.52,209.2816) scale(1.2425) translate(-133,-31)">
<path id="0" d="M225 157 C225 157 216.9971 162.4814 211 169 C205.8706 174.5754 207.3214 176.6786 202 182 C189.4222 194.5778 186.6245 192.9747 174 206 C155.5037 225.0834 155.9676 226.3078 139 247 C135.6114 251.1325 134.6493 251.8768 133 256 C132.132 258.1701 132.0031 260.4594 133 262 C136.0102 266.6521 137.9606 268.6862 144 273 C154.8892 280.778 155.7902 280.7386 168 287 C175.0789 290.6302 175.3599 291.0241 183 293 C203.9227 298.4111 226 302 226 302 "/>
<path id="1" d="M242 90 C242 90 235.6386 119.8406 228 147 C226.9815 150.6212 224 154 224 154 "/>
<path id="2" d="M241 89 C241 89 260.3729 75.0507 281 66 C308.4972 53.9349 310.0269 54.1806 339 46 C351.8049 42.3845 355.7658 39.9532 366 42 C378.1092 44.4218 394 57 394 57 "/>
<path id="3" d="M228 158 C228 158 227.3051 161.0525 228 162 C231.3122 166.5166 233.2476 167.8228 239 173 C248.1928 181.2736 248.2444 181.9356 258 189 C262.3444 192.1459 268 194 268 194 "/>
<path id="4" d="M285 201 C285 201 262.8065 225.7207 246 252 C235.9897 267.6525 239.1226 270.5204 230 287 C223.9046 298.011 215 308 215 308 "/>
<path id="5" d="M248 191 C248 191 255.7107 189.9776 261 192 C271.1136 195.867 282 204 282 204 "/>
<path id="6" d="M256 100 C256 100 264.3788 105.3788 271 112 C279.583 120.583 278.3219 122.8642 287 131 C293.7532 137.3312 303 142 303 142 "/>
<path id="7" d="M306 147 C306 147 296.8427 159.2478 290 172 C286.0842 179.2976 284 188 284 188 "/>
<path id="8" d="M289 203 C289 203 299.0744 190.4751 311 181 C335.0456 161.8952 335.3815 159.8365 362 145 C395.2747 126.4535 433 113 433 113 "/>
<path id="9" d="M391 55 C391 55 399.0126 64.8824 408 73 C414.2241 78.6217 422 83 422 83 "/>
<path id="10" d="M424 85 C424 85 457.4344 77.5943 491 72 C511.3011 68.6165 512.1961 70.4276 532 67 C537.5309 66.0427 543 63 543 63 "/>
<path id="11" d="M224 297 C224 297 240.6105 312.4578 252 321 C252.9904 321.7428 255.36 321.64 256 321 C260.48 316.52 261.3778 312.243 268 305 C277.1546 294.9872 277.6781 294.6016 288 286 C292.3208 282.3993 297.0939 282.4466 298 280 C299.961 274.7053 295.9857 266.8054 298 259 C299.1572 254.5158 301.5051 252.1118 306 249 C313.0898 244.0917 315.4843 243.8386 324 241 C326.4723 240.1759 328.3056 240.0876 330 241 C333.0412 242.6376 334.0301 246.11 337 248 C338.0371 248.66 339.9912 248.6725 341 248 C344.3626 245.7583 344.6403 242.9726 349 240 C355.083 235.8525 355.9069 236.2871 363 233 C396.8804 217.2993 397.5023 216.1721 431 202 C435.4791 200.105 436.9723 201.3426 441 200 C442.0069 199.6644 442.9039 198.8408 443 198 C444.4327 185.4639 441.4156 178.2349 445 165 C446.9214 157.9058 449.649 154.9396 456 150 C465.8378 142.3484 469.283 141.1168 481 137 C485.7553 135.3292 488.0473 135.708 493 137 C498.186 138.3529 499.8279 143 504 143 C513.482 143 519.1212 142.4504 529 137 C545.5209 127.885 545.1425 123.3189 562 111 C571.0023 104.4214 571.1848 104.1307 581 99 C592.9424 92.7574 594.2652 94.3187 606 88 C613.3561 84.039 620 78 620 78 "/>
<path id="12" d="M535 68 C535 68 536.5039 65.4275 538 65 C548.2513 62.0711 551.2903 63.9662 563 60 C581.6082 53.6972 590.2353 45.6982 600 44 C601.8676 43.6752 605.2432 47.5127 609 52 C622.9305 68.6392 636 87 636 87 "/>
<path id="13" d="M422 80 C422 80 429.0731 89.9877 437 97 C441.3035 100.8069 448.0227 102.9356 448 103 C447.8175 103.517 431 114 431 114 "/>
<path id="14" d="M440 109 C440 109 450.3229 100.0716 461 95 C469.254 91.0793 471.5086 93.5609 480 90 C486.1803 87.4083 485.7296 84.8665 492 82 C502.6758 77.1197 515 74 515 74 "/>
<path id="15" d="M311 247 C311 247 308.4462 247.2988 308 248 C306.0757 251.0239 304.664 253.1863 304 258 C302.8044 266.6678 301.8272 270.0469 304 277 C305.844 282.9009 308.4593 285.5675 314 290 C319.595 294.476 321.8666 294.9194 329 297 C332.7672 298.0988 336.351 298.261 338 297 C341.2871 294.4863 343.1715 290.5057 346 284 C347.8658 279.7087 347.6334 278.9489 348 274 C348.6141 265.7098 349.2639 262.3083 348 257 C347.6141 255.3793 345.6229 254.1044 343 253 C336.8454 250.4086 329 249 329 249 "/>
<path id="16" d="M469 148 C469 148 465.0699 148.7773 464 150 C462.6994 151.4864 462.2529 153.0914 462 156 C461.3036 164.0088 460.1636 166.5727 462 173 C463.4352 178.023 465.5048 179.5048 470 184 C474.0221 188.0221 475.418 189.3119 480 191 C483.2783 192.2078 484.9365 191.9561 489 191 C501.1373 188.1442 507.462 187.509 514 183 C516.63 181.1862 517.496 176.2917 518 171 C518.3586 167.2347 517.863 163.4283 516 162 C507.8923 155.7841 501.7919 153.0152 488 148 C481.0283 145.4648 472 146 472 146 "/>
<path id="17" d="M133 262 C133 262 135.6514 285.2569 140 307 C141.0122 312.0609 142.2889 315.5741 144 317 C145.1099 317.9249 148.3092 316.1612 152 317 C191.0053 325.8648 192.4482 328.857 232 337 C242.4411 339.1496 251.3967 339.0187 254 338 C254.5919 337.7684 255 328 255 328 "/>
<path id="18" d="M434 82 C434 82 442.1008 75.2962 451 71 C470.6277 61.5245 471.0877 60.3371 492 54 C536.3922 40.5478 583 31 583 31 "/>
<path id="19" d="M585 31 C585 31 593.8899 31.232 599 34 C604.042 36.7311 609 44 609 44 "/>
<path id="20" d="M313 137 C313 137 327.1161 135.2094 339 130 C362.695 119.6132 362.0437 115.3448 386 105 C405.3215 96.6566 427 92 427 92 "/>
<path id="21" d="M370 118 L374 131 "/>
<path id="22" d="M378 150 C378 150 386.245 160.8904 390 171 C392.1198 176.7072 389.648 178.5104 391 185 C392.0309 189.9481 395 195 395 195 "/>
<path id="23" d="M482 144 C482 144 473.6247 143.0229 470 145 C465.3771 147.5216 464.0168 150.2617 460 156 C457.3668 159.7618 456.5718 160.7116 456 165 C454.7405 174.4466 453.5742 180.2154 456 186 C457.7849 190.2562 462.8449 194.2414 469 196 C480.4784 199.2796 485.4732 198.3579 498 198 C500.634 197.9247 501.1545 196.7073 504 195 C508.5967 192.242 511.3119 192.1165 513 189 C516.1304 183.2208 516.1815 179.7312 517 171 C517.6195 164.3922 517.2333 163.4746 516 157 C515.342 153.5454 515.0239 152.6311 513 150 C510.5244 146.7818 509.729 146.0509 506 144 C500.2979 140.8639 498.9522 139.576 493 139 C485.1397 138.2393 475 141 475 141 "/>
<path id="24" d="M324 253 C324 253 322.7264 259.7163 323 263 C323.0598 263.7175 323.9526 264.0573 325 265 C328.9415 268.5474 329.0696 270.3921 333 272 C338.3612 274.1932 343.9652 275.0622 347 274 C349.0879 273.2693 351.6191 269.3401 353 265 C354.6859 259.7015 354.8182 253.7533 354 252 C353.6257 251.198 346 250 346 250 "/>
<path id="25" d="M261 317 L261 321 "/>
</g>
</g>
</svg>
