<?xml version="1.0" encoding="utf-8"?>
<!DOCTYPE svg PUBLIC "-//W3C//DTD SVG 1.1//EN" "http://www.w3.org/Graphics/SVG/1.1/DTD/svg11.dtd">
<svg viewBox="0 0 800 800" preserveAspectRatio="xMinYMin meet" xmlns="http://www.w3.org/2000/svg" version="1.1">
<g fill="none" stroke="black" stroke-linecap="round" stroke-linejoin="round" stroke-width="1.9441">
<g transform="translate(87.52,241.8311) scale(1.5431) translate(-19,-170.1333)">
<path id="0" d="M37 337.1333 C37 337.1333 38.9424 335.9116 39 335.1333 C39.6709 326.0761 38.0442 322.2398 39 310.1333 C39.5061 303.7233 39.5384 302.8771 42 297.1333 C45.2493 289.5516 45.7503 288.383 51 282.1333 C55.6726 276.5707 56.7725 275.3545 63 272.1333 C70.1029 268.4594 71.7162 267.5618 80 267.1333 C127.5427 264.6742 162.1539 269.1062 179 266.1333 C180.0192 265.9535 181.6285 257.5533 182 249.1333 C183.1058 224.0687 181.1516 222.3118 182 198.1333 C182.101 195.2555 182.38 194.1583 184 192.1333 C187.6236 187.6038 188.6572 185.5619 194 183.1333 C208.7875 176.4118 211.6405 173.3603 228 172.1333 C268.3293 169.1086 275.1056 171.6507 314 174.1333 C317.728 174.3713 317.9951 177.229 322 178.1333 C332.6507 180.5383 335.016 177.8053 345 181.1333 C354.4293 184.2764 356.0022 185.7902 364 192.1333 C369.6303 196.5987 370.3949 197.8245 374 204.1333 C377.9539 211.0527 376.2235 213.1613 380 220.1333 C382.3133 224.4041 385.0135 223.9797 387 228.1333 C389.9607 234.324 387.7939 236.9348 391 243.1333 C394.6984 250.2835 400.438 250.645 402 257.1333 C405.7981 272.9102 403.494 277.1458 404 297.1333 C404.4927 316.5965 406.3679 325.4778 404 336.1333 C403.5008 338.3798 398.5847 341.4936 394 342.1333 C380.0394 344.0813 369.0001 345.181 361 342.1333 C357.3405 340.7392 357.1658 333.3655 352 326.1333 C347.4264 319.7303 347.0916 318.5117 341 314.1333 C332.0275 307.6844 329.6828 305.495 320 303.1333 C311.9227 301.1633 308.297 301.9922 300 304.1333 C294.7549 305.4869 292.6837 307.0403 289 311.1333 C284.7931 315.8076 284.42 317.4784 282 324.1333 C278.6035 333.4736 278.598 343.8505 277 344.1333 C256.7905 347.7102 202.1025 351.5177 169 344.1333 C160.2741 342.1868 158.6705 328.471 147 315.1333 C141.588 308.9482 139.7908 305.7258 134 304.1333 C124.2432 301.4502 119.0622 303.3551 107 304.1333 C105.1554 304.2523 103.4418 305.0288 103 306.1333 C98.4591 317.4856 97.9559 330.6374 93 339.1333 C91.7982 341.1935 87.362 341.8932 82 342.1333 C55.032 343.3409 42.9046 344.8166 26 342.1333 C23.4078 341.7219 20.4615 336.7267 19 332.1333 C17.5656 327.6253 17.8728 323.7405 19 320.1333 C19.5225 318.4612 21.6342 316.7905 24 316.1333 C29.1403 314.7055 37 315.1333 37 315.1333 "/>
<path id="1" d="M206 178.1333 C206 178.1333 208.8079 217.5478 207 237.1333 C206.796 239.343 203.7662 241.0933 200 243.1333 C192.3604 247.2715 183 250.1333 183 250.1333 "/>
<path id="2" d="M265 196.1333 C265 196.1333 259.7825 192.5888 255 192.1333 C240.2576 190.7293 238.4744 190.8701 223 192.1333 C214.6213 192.8173 208.6071 194.4464 206 196.1333 C205.3972 196.5234 205.1035 200.4439 206 203.1333 C207.238 206.8473 209.844 207.1701 211 211.1333 C213.0267 218.0822 211.0963 219.5187 213 227.1333 C215.9997 239.1322 217.8164 249.5769 221 251.1333 C226.8115 253.9745 247.9553 251.1423 258 249.1333 C259.128 248.9077 260.8343 245.8958 261 243.1333 C262.1801 223.4654 261 199.1333 261 199.1333 "/>
<path id="3" d="M268 170.1333 C268 170.1333 267.1802 216.6274 270 260.1333 C270.5733 268.9784 274.0535 269.2095 275 278.1333 C277.4625 301.3514 277 326.1333 277 326.1333 "/>
<path id="4" d="M314 206.1333 C314 206.1333 313.0283 216.7404 314 226.1333 C314.4523 230.5059 315.3938 234.4832 317 235.1333 C327.2128 239.2671 337.3663 240.3581 356 243.1333 C359.6399 243.6754 362.8703 243.012 364 242.1333 C364.7293 241.5661 365.4474 238.7432 365 236.1333 C362.6818 222.6105 361.5445 209.26 358 207.1333 C351.6664 203.3332 315 206.1333 315 206.1333 "/>
<path id="5" d="M409 304.1333 C409 304.1333 423.688 301.6341 424 302.1333 C425.1001 303.8935 425.6476 324.5848 424 328.1333 C423.4908 329.2301 411 330.1333 411 330.1333 "/>
<path id="6" d="M338 321.1333 C338 321.1333 335.6795 317.5519 333 316.1333 C328.0532 313.5144 326.7368 312.5336 321 312.1333 C306.5493 311.1251 300.0693 311.6526 290 313.1333 C288.84 313.3039 287.2511 315.3756 287 317.1333 C286.0361 323.8806 285.4746 326.5065 287 334.1333 C288.7407 342.8368 289.4089 344.7366 294 352.1333 C297.6629 358.0347 298.9846 358.8098 305 363.1333 C314.4258 369.9081 316.364 371.0036 326 375.1333 C328.5801 376.2391 330.6485 376.1621 333 375.1333 C337.0521 373.3605 338.9276 372.1759 342 368.1333 C347.683 360.6557 348.7863 358.489 352 350.1333 C353.1769 347.0735 353.4063 344.6111 352 342.1333 C344.8071 329.4601 331 313.1333 331 313.1333 "/>
<path id="7" d="M317 334.1333 C317 334.1333 315.6385 345.4379 317 349.1333 C317.5971 350.7541 323.9859 353.1521 324 353.1333 C324.1268 352.9642 324.187 345.5847 323 341.1333 C322.6323 339.7544 320 338.1333 320 338.1333 "/>
<path id="8" d="M146 316.1333 C146 316.1333 139.7759 312.1647 134 311.1333 C126.8321 309.8534 122.4356 309.0862 118 311.1333 C113.6924 313.1215 111.0876 317.2155 108 323.1333 C105.8403 327.2728 106.3635 328.6803 106 334.1333 C105.3796 343.4394 104.2698 344.9768 106 353.1333 C107.4101 359.7808 109.1318 363.652 113 367.1333 C116.2761 370.0818 119.7786 370.5112 126 371.1333 C133.8464 371.918 135.9865 372.1372 143 370.1333 C148.2746 368.6263 149.6037 366.9016 154 363.1333 C155.8841 361.5183 156.6513 360.487 157 358.1333 C158.4185 348.5587 158.5742 346.7557 158 336.1333 C157.6033 328.7945 157.3697 327.3538 155 321.1333 C153.8396 318.0873 150 315.1333 150 315.1333 "/>
<path id="9" d="M135 337.1333 C135 337.1333 128.5086 337.4794 128 338.1333 C127.3686 338.9451 127.5034 345.692 128 346.1333 C128.6284 346.692 136.3716 346.692 137 346.1333 C137.4966 345.692 137 338.1333 137 338.1333 "/>
</g>
</g>
</svg>
