<?xml version="1.0" encoding="utf-8"?>
<!DOCTYPE svg PUBLIC "-//W3C//DTD SVG 1.1//EN" "http://www.w3.org/Graphics/SVG/1.1/DTD/svg11.dtd">
<svg viewBox="0 0 800 800" preserveAspectRatio="xMinYMin meet" xmlns="http://www.w3.org/2000/svg" version="1.1">
<g fill="none" stroke="black" stroke-linecap="round" stroke-linejoin="round" stroke-width="2.8946">
<g transform="translate(87.52,336.7785) scale(1.0364) translate(-22,-324)">
<path id="0" d="M22 446 C22 446 32.2769 441.0806 42 441 C324.8421 438.6547 625 441 625 441 "/>
<path id="1" d="M90 409 C90 409 101.3791 397.3887 114 392 C143.8646 379.2488 147.2838 382.8936 179 371 C198.911 363.5334 218 353 218 353 "/>
<path id="2" d="M217 353 C217 353 232.3739 338.3918 248 330 C257.4518 324.9241 259.7743 324.4318 271 324 C335.2689 321.5281 348.8971 317.8009 404 324 C416.0253 325.3528 416.9871 334.649 431 342 C446.8977 350.3398 449.8686 347.4351 465 356 C475.1262 361.7318 476.3508 364.0031 484 372 C486.2091 374.3095 486.6798 375.6381 487 379 C488.5423 395.1942 488 414 488 414 "/>
<path id="3" d="M91 408 L92 422 "/>
<path id="4" d="M92 423 C92 423 439.4658 425.1211 489 423 C489.0908 422.9961 489 406 489 406 "/>
<path id="5" d="M268 334 C268 334 337.032 330.813 394 334 C401.8885 334.4413 403.667 337.2053 411 342 C415.9098 345.2103 416.946 346.2008 420 351 C423.3557 356.2732 425 364 425 364 "/>
<path id="6" d="M424 364 C424 364 422.0095 364.7208 422 365 C421.4859 380.1672 421.9161 421.8461 422 423 C422.0039 423.0539 426 420 426 420 "/>
<path id="7" d="M271 336 C271 336 261.871 334.5645 257 337 C246.7542 342.1229 246.2063 347.3368 235 354 C228.7271 357.7298 223.8178 355.3349 220 359 C214.5548 364.2274 211.3929 369.0855 210 378 C206.9517 397.5089 209.9925 422.8417 210 423 C210.0005 423.0102 212 420 212 420 "/>
<path id="8" d="M311 336 C311 336 308.1252 341.6808 308 347 C307.1637 382.5444 309 421 309 421 "/>
<path id="9" d="M319 333 L318 422 "/>
<path id="10" d="M398 389 L407 389 "/>
<path id="11" d="M333 341 C333 341 366.7599 338.1036 388 341 C392.722 341.6439 394.5849 344.9542 399 350 C404.63 356.4343 408.7757 364.7553 409 365 C409.0193 365.0211 410 362 410 362 "/>
<path id="12" d="M332 343 C332 343 330.9672 369.647 332 370 C340.8422 373.022 409.2837 370.1624 411 370 C411.0942 369.9911 408.6475 365.3827 406 363 C404.4068 361.5661 401 361 401 361 "/>
<path id="13" d="M295 340 C295 340 267.9135 338.6299 254 344 C246.4953 346.8965 246.2658 355.6629 238 362 C233.0535 365.7923 223.9933 366.9992 224 367 C224.0333 367.0038 283.9061 370.647 291 368 C292.0329 367.6146 289.3053 348.355 291 342 C291.3998 340.5009 299 338 299 338 "/>
<path id="14" d="M290 386 L303 386 "/>
<path id="15" d="M488 379 C488 379 481.2892 378.427 480 379 C479.5524 379.199 478.7173 381.5864 479 383 C479.491 385.4552 480.3306 387.6645 482 389 C483.8406 390.4725 489 391 489 391 "/>
<path id="16" d="M110 394 C110 394 118.6988 395.5984 119 396 C119.1291 396.1721 117.0223 401.7566 116 402 C111.8999 402.9762 98 401 98 401 "/>
<path id="17" d="M90 411 L90 422 "/>
<path id="18" d="M87 412 C87 412 86.3097 418.469 87 421 C87.2161 421.7925 90 423 90 423 "/>
<path id="19" d="M490 411 C490 411 495.9476 410.8429 496 411 C496.2967 411.8902 495.1966 421.8954 494 423 C492.9934 423.9292 483 423 483 423 "/>
<path id="20" d="M497 411 C497 411 494.1349 417.892 494 418 C493.9937 418.005 492 415 492 415 "/>
<path id="21" d="M148 424 C148 424 149.6298 432.7878 152 435 C154.2927 437.1398 157.6282 437.7016 163 438 C183.6853 439.1492 194.8115 441.0713 206 438 C209.0815 437.1541 214 424 214 424 "/>
<path id="22" d="M382 427 C382 427 387.1737 434.486 391 435 C413.0793 437.9659 433.0503 438.2429 449 436 C451.0416 435.7129 455 426 455 426 "/>
<path id="23" d="M411 425 C411 425 421.2403 428.9807 431 431 C435.1352 431.8556 439.2212 431.5192 440 431 C440.3462 430.7692 440 425 440 425 "/>
<path id="24" d="M438 427 C438 427 410.8589 426.751 407 427 C406.9839 427.001 406.9809 428.9985 407 429 C410.2309 429.2485 433 429 433 429 "/>
<path id="25" d="M168 425 L199 427 "/>
<path id="26" d="M194 427 L169 428 "/>
<path id="27" d="M122 391 L215 391 "/>
<path id="28" d="M428 391 L490 393 "/>
<path id="29" d="M422 384 L475 384 "/>
<path id="30" d="M150 383 L203 383 "/>
<path id="31" d="M172 423 C172 423 185.0532 424.0594 196 423 C199.3252 422.6782 199.763 420.0342 203 420 C330.5137 418.653 480 420 480 420 "/>
<path id="32" d="M96 421 L224 421 "/>
<path id="33" d="M306 335 C306 335 310.0839 337.8014 311 340 C311.9053 342.1727 311 347 311 347 "/>
<path id="34" d="M324 335 C324 335 321.4953 337.1837 321 339 C320.2803 341.6387 321 346 321 346 "/>
<path id="35" d="M422 365 C422 365 439.7867 363.5787 454 365 C457.731 365.3731 458.2027 367.9874 462 369 C464.9318 369.7818 466.5054 367.9496 469 369 C474.4769 371.306 475.5231 374.694 481 377 C483.4946 378.0504 488 377 488 377 "/>
<path id="36" d="M417 350 C417 350 415.4639 362.2471 417 373 C418.3262 382.2836 421.4705 382.6043 423 392 C424.85 403.3645 424 416 424 416 "/>
<path id="37" d="M222 352 C222 352 218.2618 353.2146 218 354 C217.2146 356.3562 217.9612 363.9094 218 364 C218.0067 364.0155 221 361 221 361 "/>
<path id="38" d="M208 375 C208 375 210.0003 375.0003 210 375 C209.9993 374.9993 207.0024 373.9936 207 374 C206.8271 374.4611 207 383 207 383 "/>
<path id="39" d="M183 374 C183 374 183.0205 365.3468 184 364 C184.5562 363.2353 190.3808 362.9115 191 363 C191.0258 363.0037 191.2114 364.0837 191 365 C189.7638 370.3567 189.0321 374.8532 188 376 C187.6685 376.3683 182 375 182 375 "/>
<path id="40" d="M183 369 L180 375 "/>
<path id="41" d="M214 367 C214 367 224.9617 361.9617 225 362 C225.0511 362.0511 221.0883 373.9243 221 374 C220.9868 374.0114 218 368 218 368 "/>
</g>
</g>
</svg>
