<?xml version="1.0" encoding="utf-8"?>
<!DOCTYPE svg PUBLIC "-//W3C//DTD SVG 1.1//EN" "http://www.w3.org/Graphics/SVG/1.1/DTD/svg11.dtd">
<svg viewBox="0 0 800 800" preserveAspectRatio="xMinYMin meet" xmlns="http://www.w3.org/2000/svg" version="1.1">
<g fill="none" stroke="black" stroke-linecap="round" stroke-linejoin="round" stroke-width="1.3393">
<g transform="translate(87.52,303.68) scale(2.24) translate(-127,-168)">
<path id="0" d="M168 196 C168 196 167.8387 192.7419 169 191 C174.055 183.4176 175.2233 179.9072 182 175 C187.408 171.0838 190.1719 170.5649 198 170 C236.825 167.1982 239.5544 165.8595 279 168 C302.6447 169.283 306.1099 171.1361 327 177 C331.5335 178.2725 332.765 180.0038 336 184 C340.6368 189.7278 339.3633 194.1052 344 198 C349.3688 202.5098 352.3558 202.6271 361 205 C377.4105 209.5049 381.9881 207.2395 395 212 C398.5329 213.2925 400.764 216.0673 402 220 C405.424 230.8947 407.0346 243.5513 406 247 C405.7233 247.9223 399.3993 249.616 393 250 C375.0354 251.0779 356 250 356 250 "/>
<path id="1" d="M169 197 C169 197 168.6633 202.0343 167 204 C164.3947 207.079 162.5993 208.5476 158 210 C144.9577 214.1186 132.1682 212.4229 129 216 C125.9232 219.4738 126.4106 238.9095 127 245 C127.0508 245.5252 129.5871 246.8276 132 247 C155.9952 248.7139 182.9498 248.999 183 249 C183.002 249 181.0705 248.3524 181 248 C180.5469 245.7344 180.2236 242.8822 181 239 C181.5694 236.1531 182.0704 235.3155 184 233 C186.6863 229.7765 187.706 228.098 191 227 C196.246 225.2513 200.6593 224.7598 205 226 C207.8486 226.8139 211.4003 230.3615 212 233 C213.0153 237.4672 209.6583 247.8719 210 248 C214.8192 249.8072 235.0539 250.5505 260 251 C290.3924 251.5476 320.9979 250.0001 321 250 C321.0002 250 315.4108 249.7189 315 249 C313.6882 246.7043 311.8989 239.3034 313 236 C313.9821 233.0537 317.5692 230.014 322 228 C326.877 225.7832 329.5036 225.7252 335 226 C338.0465 226.1523 339.7396 227.2419 342 229 C343.2378 229.9628 343.6929 231.0552 344 233 C345.0785 239.8304 344.0704 247.6325 345 248 C350.7396 250.2692 387 250 387 250 "/>
<path id="2" d="M183 249 C183 249 188.2495 252.9203 193 254 C198.1189 255.1634 203.0892 255.1465 205 254 C206.3376 253.1975 208 245 208 245 "/>
<path id="3" d="M200 230 L200 250 "/>
<path id="4" d="M183 240 L213 240 "/>
<path id="5" d="M208 233 C208 233 205.0203 239.203 201 243 C196.6945 247.0663 190 250 190 250 "/>
<path id="6" d="M193 232 L215 251 "/>
<path id="7" d="M321 250 C321 250 318.139 242.4872 319 241 C320.9242 237.6763 326.2157 233.8922 332 231 C334.2495 229.8753 338.1612 230.1612 339 231 C341.037 233.037 342.4039 237.254 344 243 C344.7153 245.575 344.6283 247.7433 344 249 C343.5811 249.8378 342.0195 250.561 340 251 C331.051 252.9454 322.1514 254.6666 321 254 C320.4594 253.687 321 240 321 240 "/>
<path id="8" d="M333 234 C333 234 332.6159 246.5601 332 247 C331.3499 247.4644 318.9998 244.0003 319 244 C319.0004 243.9994 333.4535 243.6356 334 244 C334.085 244.0567 331 252 331 252 C331 252 332.1486 246.393 333 246 C334.9638 245.0936 344 246 344 246 C344 246 331.5855 246.3194 331 246 C330.9427 245.9687 331.4826 242.0865 333 240 C334.906 237.3792 339 235 339 235 "/>
<path id="9" d="M193 179 C193 179 186.388 188.7599 183 198 C181.301 202.6336 181.4216 208.5042 182 209 C183.0883 209.9328 190.4734 210.9669 197 210 C202.5989 209.1705 203.2215 206.1557 209 205 C214.7785 203.8443 221.8155 205.4427 222 205 C222.7747 203.1407 221.3307 190.3228 219 181 C218.5291 179.1166 216.7231 177.4595 215 177 C211.259 176.0024 208.5132 175.7691 204 177 C198.8154 178.414 193 183 193 183 "/>
<path id="10" d="M234 179 L235 201 "/>
<path id="11" d="M234 180 C234 180 238.2343 177.1448 242 177 C262.3988 176.2154 278.3725 175.5657 286 178 C287.2853 178.4102 288.7023 185.7484 289 192 C289.1453 195.0521 287.6769 198.8806 287 199 C276.6747 200.8221 238 201 238 201 "/>
<path id="12" d="M305 182 L305 203 "/>
<path id="13" d="M305 182 C305 182 310.725 181.05 315 182 C318.8 182.8444 319.6415 183.4411 323 186 C329.7315 191.1288 335.8146 197.4439 336 198 C336.0038 198.0113 331.8515 200.6149 328 201 C317.7913 202.0209 306 201 306 201 "/>
<path id="14" d="M357 206 L356 245 "/>
<path id="15" d="M363 207 C363 207 364.2476 237.601 364 248 C363.9937 248.2659 362 249 362 249 "/>
</g>
</g>
</svg>
