<?xml version="1.0" encoding="utf-8"?>
<!DOCTYPE svg PUBLIC "-//W3C//DTD SVG 1.1//EN" "http://www.w3.org/Graphics/SVG/1.1/DTD/svg11.dtd">
<svg viewBox="0 0 800 800" preserveAspectRatio="xMinYMin meet" xmlns="http://www.w3.org/2000/svg" version="1.1">
<g fill="none" stroke="black" stroke-linecap="round" stroke-linejoin="round" stroke-width="2.0689">
<g transform="translate(87.52,297.7734) scale(1.45) translate(-95.5,-153.6667)">
<path id="0" d="M198.5 154.6667 L373.5 153.6667 "/>
<path id="1" d="M198.5 157.6667 L131.5 207.6667 "/>
<path id="2" d="M131.5 207.6667 L100.5 210.6667 "/>
<path id="3" d="M100.5 214.6667 L99.5 273.6667 "/>
<path id="4" d="M102.5 219.6667 C102.5 219.6667 110.2785 219.2514 110.5 219.6667 C111.2785 221.1264 111.3272 233.288 110.5 234.6667 C110.2022 235.163 101.5 234.6667 101.5 234.6667 "/>
<path id="5" d="M100.5 263.6667 C100.5 263.6667 96.0415 264.8003 95.5 265.6667 C94.8661 266.681 94.9925 270.9562 95.5 271.6667 C95.8867 272.208 100.5 272.6667 100.5 272.6667 "/>
<path id="6" d="M100.5 273.6667 L146.5 273.6667 "/>
<path id="7" d="M149.5 274.6667 C149.5 274.6667 148.133 268.0842 149.5 264.6667 C151.3045 260.1555 152.9999 258.5239 157.5 254.6667 C162.8924 250.0446 164.0637 248.9653 170.5 246.6667 C176.8783 244.3887 178.0341 245.2639 185.5 244.6667 C190.4247 244.2727 191.7154 243.5535 195.5 244.6667 C198.7058 245.6096 199.6123 246.779 202.5 249.6667 C206.8315 253.9982 207.5204 254.52 210.5 259.6667 C212.6865 263.4433 213.5 268.6667 213.5 268.6667 "/>
<path id="8" d="M214.5 269.6667 L215.5 269.6667 "/>
<path id="9" d="M440.5 201.6667 L510.5 207.6667 "/>
<path id="10" d="M375.5 157.6667 C375.5 157.6667 378.5072 156.9161 379.5 157.6667 C394.5003 169.0084 397.8096 173.6331 416.5 188.6667 C420.6724 192.0227 421.0871 192.736 425.5 194.6667 C428.3233 195.9019 430.604 194.4027 432.5 195.6667 C434.8906 197.2604 434.8723 200.5167 437.5 202.6667 C439.3706 204.1972 443.5 204.6667 443.5 204.6667 "/>
<path id="11" d="M513.5 208.6667 C513.5 208.6667 518.1851 219.3663 519.5 229.6667 C521.0707 241.9708 519.5 255.6667 519.5 255.6667 "/>
<path id="12" d="M522.5 246.6667 C522.5 246.6667 525.9326 248.39 526.5 249.6667 C527.2126 251.27 527.1237 254.8351 526.5 255.6667 C525.8243 256.5675 520.5 257.6667 520.5 257.6667 "/>
<path id="13" d="M482.5 266.6667 C482.5 266.6667 495.9287 267.4062 508.5 266.6667 C512.425 266.4358 514.5177 266.0543 516.5 264.6667 C517.6599 263.8548 518.5 259.6667 518.5 259.6667 "/>
<path id="14" d="M415.5 266.6667 L412.5 266.6667 "/>
<path id="15" d="M417.5 268.6667 C417.5 268.6667 416.5043 264.4049 417.5 261.6667 C420.0475 254.661 420.7939 250.9806 425.5 246.6667 C430.3504 242.2205 433.8207 241.2477 441.5 239.6667 C449.4253 238.035 451.5493 238.6728 459.5 239.6667 C462.3159 240.0187 462.8906 240.8028 465.5 242.6667 C469.6658 245.6422 470.7063 245.7227 473.5 249.6667 C478.6554 256.9449 482.5 266.6667 482.5 266.6667 "/>
<path id="16" d="M418.5 269.6667 L340.5 268.6667 "/>
<path id="17" d="M215.5 270.6667 L343.5 267.6667 "/>
<path id="18" d="M149.5 273.6667 C149.5 273.6667 152.5436 282.3038 156.5 285.6667 C160.4679 289.0394 164.3768 287.7849 169.5 290.6667 C171.201 291.6235 171.38 294.5067 172.5 294.6667 C180.34 295.7867 188.1082 297.1382 197.5 294.6667 C203.3723 293.1213 206.4169 289.7705 210.5 284.6667 C212.9819 281.5643 213.5 274.6667 213.5 274.6667 "/>
<path id="19" d="M479.5 261.6667 C479.5 261.6667 481.4821 270.756 480.5 275.6667 C480.0018 278.1576 475.5 281.6667 475.5 281.6667 "/>
<path id="20" d="M475.5 281.6667 L475.5 282.6667 "/>
<path id="21" d="M474.5 283.6667 L473.5 283.6667 "/>
<path id="22" d="M476.5 283.6667 C476.5 283.6667 471.7997 289.4574 467.5 290.6667 C458.2636 293.2644 444.5 292.6667 444.5 292.6667 "/>
<path id="23" d="M419.5 261.6667 C419.5 261.6667 416.9043 268.2982 417.5 272.6667 C418.1487 277.4239 419.185 279.7666 422.5 283.6667 C426.6737 288.5769 428.6281 290.3599 434.5 292.6667 C440.8443 295.1591 450.5 294.6667 450.5 294.6667 "/>
<path id="24" d="M153.5 204.6667 L195.5 169.6667 "/>
<path id="25" d="M197.5 169.6667 L192.5 204.6667 "/>
<path id="26" d="M155.5 207.6667 L193.5 203.6667 "/>
<path id="27" d="M209.5 163.6667 L266.5 164.6667 "/>
<path id="28" d="M209.5 165.6667 L208.5 203.6667 "/>
<path id="29" d="M272.5 164.6667 L270.5 204.6667 "/>
<path id="30" d="M209.5 204.6667 C209.5 204.6667 224.6208 206.6667 239.5 206.6667 C255.8672 206.6667 272.5 204.6667 272.5 204.6667 "/>
<path id="31" d="M273.5 165.6667 L265.5 165.6667 "/>
<path id="32" d="M291.5 166.6667 L292.5 201.6667 "/>
<path id="33" d="M293.5 164.6667 C293.5 164.6667 336.0073 161.7252 361.5 164.6667 C365.6382 165.1442 366.7413 170.8674 371.5 173.6667 C373.861 175.0555 376.5417 173.1979 378.5 174.6667 C384.4382 179.1203 384.3908 183.1126 391.5 188.6667 C399.6951 195.0691 410.526 199.6635 410.5 199.6667 C410.3886 199.6803 371.9092 195.3469 334.5 195.6667 C314.2886 195.8394 293.5 200.6667 293.5 200.6667 "/>
<path id="34" d="M184.5 264.6667 C184.5 264.6667 178.5933 264.4428 178.5 264.6667 C178.0678 265.704 178.5746 275.5562 179.5 276.6667 C180.0408 277.3157 185.969 277.3569 188.5 276.6667 C189.2925 276.4505 190.2257 275.0383 190.5 273.6667 C191.0648 270.8428 190.5802 266.9073 190.5 266.6667 C190.4962 266.6552 188.5 267.6667 188.5 267.6667 "/>
<path id="35" d="M450.5 259.6667 C450.5 259.6667 443.1361 259.9511 442.5 260.6667 C441.8726 261.3725 442.0565 266.6708 442.5 268.6667 C442.5801 269.027 443.5718 269.5893 444.5 269.6667 C448.9551 270.0379 453.6726 270.4188 454.5 269.6667 C455.3349 268.9077 455.7706 260.5687 455.5 259.6667 C455.4665 259.5551 451.5 259.6667 451.5 259.6667 "/>
<path id="36" d="M211.5 220.6667 C211.5 220.6667 221.3813 219.565 222.5 219.6667 C222.5186 219.6684 222.5405 221.6599 222.5 221.6667 C221.0405 221.9099 210.5 221.6667 210.5 221.6667 "/>
<path id="37" d="M298.5 213.6667 C298.5 213.6667 311.7495 213.1999 313.5 213.6667 C313.6245 213.6999 313.5838 217.6499 313.5 217.6667 C311.9499 217.9767 298.5 216.6667 298.5 216.6667 "/>
<path id="38" d="M515.5 214.6667 C515.5 214.6667 510.0852 214.862 509.5 215.6667 C508.2502 217.3852 506.9391 224.9375 507.5 225.6667 C508.3108 226.7207 519.5 228.6667 519.5 228.6667 "/>
</g>
</g>
</svg>
