<?xml version="1.0" encoding="utf-8"?>
<!DOCTYPE svg PUBLIC "-//W3C//DTD SVG 1.1//EN" "http://www.w3.org/Graphics/SVG/1.1/DTD/svg11.dtd">
<svg viewBox="0 0 800 800" preserveAspectRatio="xMinYMin meet" xmlns="http://www.w3.org/2000/svg" version="1.1">
<g fill="none" stroke="black" stroke-linecap="round" stroke-linejoin="round" stroke-width="2.7938">
<g transform="translate(87.52,291.0078) scale(1.0738) translate(-5,-158)">
<path id="0" d="M90 219 C90 219 91.4411 216.5743 93 216 C99.6355 213.5554 104.1705 214.5419 109 212 C110.6426 211.1355 110.1503 207.2331 112 206 C117.0206 202.653 120.4656 203.8722 127 200 C133.3127 196.2592 132.567 194.1171 139 190 C157.2082 178.3468 159.6231 170.1593 177 168 C232.8311 161.0624 246.7081 166.4462 308 169 C314.1779 169.2574 314.4831 172.427 321 174 C328.5609 175.825 330.3343 173.302 337 176 C349.7177 181.1477 351.1119 182.5914 363 191 C371.0864 196.7197 370.1414 199.1788 378 205 C383.0938 208.7732 384.6281 207.3548 390 211 C398.2967 216.6299 397.5324 219.6761 406 224 C419.6962 230.9938 421.3055 230.6634 437 235 C459.0221 241.0851 459.7666 242.3532 482 245 C500.7724 247.2348 503.8043 247.2711 521 245 C527.5805 244.1309 529.7858 242.1714 535 238 C538.5116 235.1907 540.9963 228.9715 541 229 C541.0249 229.1907 542.8685 258.2142 541 284 C540.5121 290.7335 539.5567 293.1879 536 298 C532.4083 302.8594 529.1617 306.5058 524 307 C491.0917 310.1508 454.8312 308.2367 442 307 C441.7229 306.9733 442.2519 302.3384 441 299 C439.5239 295.0637 439.0097 293.8216 436 291 C431.7714 287.0357 430.6846 286.4363 425 284 C417.2271 280.6688 416.3105 279.784 408 279 C390.8764 277.3846 383.4001 277.8308 372 279 C370.9201 279.1108 369.3532 281.1456 369 283 C367.6717 289.9735 369.3347 292.3254 368 300 C367.4931 302.9144 365.8307 305.9757 365 306 C312.161 307.5465 263.8364 307.1771 163 306 C135.5271 305.6793 122.8555 306.2187 108 303 C106.0869 302.5855 106.0293 296.7867 103 293 C100.7064 290.1329 99.4441 289.0482 96 288 C89.2876 285.9571 86.6083 284.3903 80 286 C51.4094 292.9644 18 307 18 307 "/>
<path id="1" d="M91 217 C91 217 88.3246 226.963 85 231 C83.3171 233.0436 80.8694 233.6904 77 234 C57.2396 235.5808 54.7397 232.1392 35 235 C21.7429 236.9213 12.5598 239.2882 8 244 C4.7675 247.3402 5.5212 255.0547 5 266 C4.0349 286.2665 3.1136 302.7032 5 307 C5.3636 307.8282 23 307 23 307 "/>
<path id="2" d="M77 306 C77 306 59.9556 303.9078 48 306 C42.9601 306.882 41.3963 309.2317 37 313 C35.1159 314.615 34.3637 315.6967 34 318 C33.0698 323.8911 32.5607 326.7225 34 332 C34.9907 335.6325 36.432 337.1456 40 340 C50.589 348.4712 53.313 350.4841 64 356 C66.3191 357.1969 68.9081 357.1824 71 356 C77.9775 352.0562 82.6649 348.148 87 343 C87.9825 341.8333 87.7816 339.5793 87 337 C83.088 324.0905 82.5455 321.8304 77 310 C75.7148 307.2582 74.4111 306.1128 72 305 C69.2082 303.7115 64 304 64 304 "/>
<path id="3" d="M387 307 C387 307 381.908 306.2938 381 307 C379.7221 307.9939 378.3756 310.6195 378 314 C376.509 327.4194 376.2728 329.9101 377 343 C377.1801 346.2411 377.8394 347.9531 380 350 C385.9269 355.6149 388.6481 358.3913 396 361 C401.5407 362.9661 404.9271 362.1567 411 361 C413.7376 360.4785 414.6083 359.3917 417 357 C421.7834 352.2166 422.9835 351.4846 426 346 C427.9102 342.527 427.6583 341.4423 428 337 C428.6346 328.75 429.204 326.923 428 320 C427.5258 317.2733 426.1764 316.4873 424 314 C422.9404 312.7891 422.2531 312.0522 421 312 C412.4821 311.6451 400 313 400 313 "/>
<path id="4" d="M148 218 L346 219 "/>
<path id="5" d="M231 242 C231 242 235.0002 256.6682 237 271 C237.9383 277.7246 237 285 237 285 "/>
<path id="6" d="M176 250 L201 250 "/>
<path id="7" d="M285 253 L308 253 "/>
<path id="8" d="M60 325 L61 345 "/>
<path id="9" d="M52 334 L83 332 "/>
<path id="10" d="M400 324 L400 350 "/>
<path id="11" d="M386 335 L420 335 "/>
<path id="12" d="M553 283 C553 283 568.6101 282.7272 579 285 C581.7878 285.6098 583.094 287.3792 585 290 C586.5174 292.0865 586.5823 293.076 587 296 C587.5316 299.7214 587.6653 301.7825 587 304 C586.7588 304.8038 585.2565 305.9619 584 306 C571.6961 306.3728 554 305 554 305 "/>
<path id="13" d="M233 182 L234 217 "/>
<path id="14" d="M210 212 C210 212 211.692 198.1533 211 197 C210.7117 196.5195 204.5443 196.4093 201 197 C200.173 197.1378 199.0717 198.2117 199 199 C198.3431 206.2258 199 219 199 219 "/>
<path id="15" d="M318 178 L318 224 "/>
<path id="16" d="M367 196 L367 229 "/>
<path id="17" d="M364 239 L363 298 "/>
<path id="18" d="M142 234 C142 234 138.3572 235.7033 137 238 C132.5648 245.5057 133.8995 247.9159 129 256 C124.224 263.8804 120.5114 263.3576 117 271 C112.841 280.052 112 293 112 293 "/>
<path id="19" d="M345 176 C345 176 344.1631 171.2904 342 169 C336.6716 163.3582 334.3424 160.2505 328 158 C321.9776 155.863 316.3083 156.7361 311 158 C309.3793 158.3859 308.7153 162.2203 307 163 C305.0858 163.8701 300 163 300 163 "/>
<path id="20" d="M172 212 C172 212 165.8194 204.5365 161 202 C158.6293 200.7523 153.8 201.6 153 202 C152.8 202.1 152.4172 204.8343 153 206 C153.8743 207.7485 154.8467 208.9233 157 210 C162.0244 212.5122 169 214 169 214 "/>
</g>
</g>
</svg>
