<?xml version="1.0" encoding="utf-8"?>
<!DOCTYPE svg PUBLIC "-//W3C//DTD SVG 1.1//EN" "http://www.w3.org/Graphics/SVG/1.1/DTD/svg11.dtd">
<svg viewBox="0 0 800 800" preserveAspectRatio="xMinYMin meet" xmlns="http://www.w3.org/2000/svg" version="1.1">
<g fill="none" stroke="black" stroke-linecap="round" stroke-linejoin="round" stroke-width="2.0305">
<g transform="translate(87.52,209.4094) scale(1.4774) translate(-14,-111.1333)">
<path id="0" d="M83 207.1333 C83 207.1333 103.2519 199.8589 123 198.1333 C153.5035 195.468 155.684 195.3773 186 198.1333 C203.7171 199.744 222 207.1333 222 207.1333 "/>
<path id="1" d="M86 122.1333 C86 122.1333 88.618 132.2013 89 142.1333 C90.1014 170.771 90.6801 182.772 89 200.1333 C88.8673 201.5045 83 204.1333 83 204.1333 "/>
<path id="2" d="M82 120.1333 C82 120.1333 127.4113 118.0386 172 120.1333 C201.3933 121.5142 227.0632 121.9955 231 127.1333 C236.2784 134.0221 231.8738 163.9294 231 197.1333 C230.9244 200.0044 230.0875 202.2875 229 203.1333 C227.7313 204.1201 222 204.1333 222 204.1333 "/>
<path id="3" d="M81 207.1333 C81 207.1333 73.9411 216.0746 66 220.1333 C53.1182 226.7174 49.8455 223.7431 36 230.1333 C24.616 235.3875 16.7649 238.7418 14 244.1333 C11.3781 249.246 13.4099 257.9097 16 269.1333 C17.5885 276.0167 19.3456 280.175 23 283.1333 C26.2747 285.7843 34.4491 287.1051 37 286.1333 C39.2203 285.2875 43.2032 280.2686 44 275.1333 C47.1192 255.0319 44.6885 234.2973 46 228.1333 C46.0471 227.9121 54 228.1333 54 228.1333 "/>
<path id="4" d="M218 208.1333 C218 208.1333 203.082 220.8228 188 226.1333 C169.9601 232.4854 151.2688 229.0728 147 233.1333 C144.2736 235.7268 144.7042 253.3675 147 265.1333 C147.7577 269.0164 151.5469 272.8384 155 274.1333 C159.8572 275.9548 168.9754 275.6518 171 274.1333 C172.9297 272.6861 174.2985 266.4995 175 259.1333 C176.2315 246.2026 175 232.1333 175 232.1333 "/>
<path id="5" d="M34 291.1333 C34 291.1333 53.0719 342.8592 67 351.1333 C80.7975 359.3299 102.7713 352.389 135 351.1333 C139.321 350.965 143.6413 348.6116 144 348.1333 C144.1012 347.9984 141 343.1333 141 343.1333 "/>
<path id="6" d="M151 265.1333 C151 265.1333 152.3049 280.5185 151 295.1333 C149.8497 308.017 149.1836 308.3989 146 321.1333 C143.2253 332.2321 142.0233 335.4071 139 343.1333 C138.7822 343.6901 137.1895 344.2281 137 344.1333 C136.5578 343.9122 135 341.1333 135 341.1333 "/>
<path id="7" d="M60 252.1333 C60 252.1333 67.6925 268.9805 70 285.1333 C72.4799 302.4926 70 322.1333 70 322.1333 "/>
<path id="8" d="M63 251.1333 C63 251.1333 114.2383 247.5836 124 251.1333 C126.1967 251.9321 127.7673 263.1589 129 275.1333 C131.2228 296.7261 133.4928 317.0856 131 319.1333 C126.6454 322.7104 73 321.1333 73 321.1333 "/>
<path id="9" d="M85 257.1333 L85 306.1333 "/>
<path id="10" d="M108 259.1333 C108 259.1333 107.1471 265.016 108 270.1333 C109.0596 276.4912 111.3656 276.7898 112 283.1333 C113.2782 295.9151 112.1588 309.3709 112 310.1333 C111.9885 310.1886 107 307.1333 107 307.1333 "/>
<path id="11" d="M79 270.1333 C79 270.1333 94.8036 276.7753 110 279.1333 C122.665 281.0986 137 279.1333 137 279.1333 C137 279.1333 99 279.1333 99 279.1333 "/>
<path id="12" d="M78 289.1333 C78 289.1333 75.4371 290.8219 75 292.1333 C74.3443 294.1004 74.5051 297.876 75 298.1333 C79.5425 300.4954 87.6079 303.1506 100 305.1333 C111.9367 307.0432 125 306.1333 125 306.1333 "/>
<path id="13" d="M214 214.1333 C214 214.1333 255.0601 197.5615 296 185.1333 C310.2102 180.8195 311.3501 183.7337 326 180.1333 C370.0492 169.3077 371.1132 165.8436 414 156.1333 C422.2621 154.2627 432 156.1333 432 156.1333 "/>
<path id="14" d="M233 126.1333 C233 126.1333 392.0189 119.0472 426 125.1333 C428.5777 125.595 434 162.1333 434 162.1333 "/>
<path id="15" d="M86 119.1333 C86 119.1333 93.7398 113.4534 101 112.1333 C114.0196 109.7661 115.5378 110.9795 130 111.1333 C162.4379 111.4784 162.5174 113.0135 195 113.1333 C297.9315 113.5132 304.6841 109.9641 401 112.1333 C408.5449 112.3033 409.9103 114.3158 417 118.1333 C422.2747 120.9736 427 126.1333 427 126.1333 "/>
<path id="16" d="M142 349.1333 L161 335.1333 "/>
<path id="17" d="M144 342.1333 C144 342.1333 186.5324 333.9241 190 327.1333 C197.2094 313.0149 189.8533 258.1091 192 248.1333 C192.0872 247.7279 200.6731 247.1843 207 248.1333 C209.2988 248.4781 210.3603 249.2043 212 251.1333 C218.1517 258.3707 220.2975 259.5713 224 268.1333 C227.6258 276.5181 227.0568 278.2296 228 288.1333 C229.0181 298.8238 227.8476 310.1938 228 310.1333 C229.4253 309.5678 259.004 284.5852 291 263.1333 C302.1872 255.6328 304.1591 257.8996 316 251.1333 C324.8674 246.0662 324.0582 242.9656 333 239.1333 C354.172 230.0596 371.5593 232.0118 379 224.1333 C384.5664 218.2395 380.5057 192.4715 384 185.1333 C384.8565 183.3347 392.9772 181.67 399 182.1333 C403.6426 182.4905 406.7035 184.0429 410 187.1333 C413.0207 189.9652 413.9946 192.2741 415 197.1333 C416.7499 205.5914 414.6947 214.3619 416 216.1333 C416.6335 216.9931 423.3723 217.2053 429 216.1333 C432.793 215.4108 437 212.1333 437 212.1333 "/>
<path id="18" d="M435 158.1333 L435 212.1333 "/>
<path id="19" d="M384 204.1333 C384 204.1333 381.8525 256.2444 385 262.1333 C385.8622 263.7465 406.5917 263.4073 415 262.1333 C416.0532 261.9738 417.844 259.3691 418 257.1333 C419.1379 240.8239 421.5059 235.7278 418 219.1333 C414.6631 203.3385 403 186.1333 403 186.1333 "/>
<path id="20" d="M400 211.1333 C400 211.1333 397.6113 217.2238 397 223.1333 C396.1558 231.2941 397 240.1333 397 240.1333 C397.001 240.1333 402 223.1333 402 223.1333 "/>
<path id="21" d="M402 218.1333 L400 230.1333 "/>
<path id="22" d="M357 236.1333 C357 236.1333 361.0834 247.9627 367 256.1333 C370.6848 261.2219 373.0963 262.8105 378 265.1333 C380.5702 266.3508 386 265.1333 386 265.1333 "/>
<path id="23" d="M194 262.1333 C194 262.1333 191.1895 296.0286 194 324.1333 C194.8522 332.6554 197.7384 333.9976 202 342.1333 C202.8779 343.8094 203.6966 344.7423 205 345.1333 C207.3394 345.8351 208.9218 345.9029 212 345.1333 C218.2664 343.5667 224.3873 342.1026 225 340.1333 C227.7306 331.3563 226 300.1333 226 300.1333 "/>
<path id="24" d="M208 283.1333 C208 283.1333 208.2249 307.5164 209 311.1333 C209.0294 311.2707 212.0216 311.7268 214 311.1333 C216.3345 310.433 218.7985 309.2216 219 308.1333 C220.232 301.4804 219.8257 291.2893 219 284.1333 C218.9193 283.4338 216 282.1333 216 282.1333 "/>
<path id="25" d="M160 345.1333 C160 345.1333 173.5215 349.8423 184 350.1333 C189.1609 350.2767 191.0532 348.7522 196 346.1333 C198.6795 344.7148 201 341.1333 201 341.1333 "/>
<path id="26" d="M84 358.1333 C84 358.1333 92.4343 363.8054 100 366.1333 C104.0981 367.3943 105.5351 366.9212 110 366.1333 C113.3618 365.5401 116.0141 364.6122 117 363.1333 C118.2431 361.2686 118 354.1333 118 354.1333 "/>
<path id="27" d="M57 346.1333 C57 346.1333 62.5134 346.7624 66 349.1333 C74.0597 354.6139 77.0135 357.8352 82 363.1333 C82.5148 363.6803 81.64 365.8247 82 366.1333 C83.3401 367.282 85.8258 368.7366 89 369.1333 C92.8198 369.6108 98 368.1333 98 368.1333 "/>
<path id="28" d="M98 202.1333 C98 202.1333 101.0944 193.1513 105 190.1333 C109.5275 186.6348 112.6913 186.1484 120 185.1333 C129.7794 183.7751 133.3812 183.2943 141 185.1333 C144.5154 185.9819 146.4916 188.7887 149 192.1333 C150.1095 193.6127 150 197.1333 150 197.1333 "/>
<path id="29" d="M88 200.1333 L100 198.1333 "/>
<path id="30" d="M146 186.1333 C146 186.1333 154.8593 178.6376 164 176.1333 C189.448 169.1613 192.1196 172.3365 219 166.1333 C230.6542 163.4439 231.1919 162.9016 242 158.1333 C247.7395 155.6012 252.9873 151.11 253 151.1333 C253.3766 151.8238 251.1344 169.9734 254 180.1333 C255.2546 184.5816 263.9438 190.1661 264 190.1333 C264.1608 190.0395 266 173.1333 266 173.1333 "/>
<path id="31" d="M256 152.1333 L268 178.1333 "/>
<path id="32" d="M293 129.1333 C293 129.1333 297.9488 138.3736 299 147.1333 C300.7969 162.1072 299 179.1333 299 179.1333 "/>
<path id="33" d="M297 130.1333 C297 130.1333 295.5417 154.6337 297 172.1333 C297.2199 174.7722 301 178.1333 301 178.1333 "/>
<path id="34" d="M361 131.1333 C361 131.1333 366.7708 141.5351 369 150.1333 C369.8188 153.2916 368 158.1333 368 158.1333 "/>
<path id="35" d="M370 134.1333 C370 134.1333 368 137.3846 368 140.1333 C368 149.7541 370 161.1333 370 161.1333 "/>
<path id="36" d="M370 127.1333 L370 136.1333 "/>
<path id="37" d="M359 127.1333 L361 135.1333 "/>
<path id="38" d="M368 160.1333 L368 166.1333 "/>
<path id="39" d="M308 140.1333 C308 140.1333 310.0006 168.131 310 168.1333 C309.9997 168.1346 305 152.1333 305 152.1333 "/>
<path id="40" d="M303 132.1333 C303 132.1333 348.9439 128.83 355 132.1333 C357.2552 133.3634 359.5382 156.7496 358 162.1333 C357.54 163.7432 351.2495 166.4823 345 167.1333 C328.8226 168.8185 317.3853 168.3309 310 167.1333 C309.3727 167.0316 308 161.1333 308 161.1333 "/>
<path id="41" d="M299 137.1333 C299 137.1333 299.9945 134.132 300 134.1333 C300.0873 134.1552 302.2726 136.0725 303 138.1333 C305.0214 143.8607 306 151.1333 306 151.1333 "/>
<path id="42" d="M379 136.1333 L380 157.1333 "/>
<path id="43" d="M378 135.1333 C378 135.1333 398.5826 136.2945 416 135.1333 C419.3001 134.9133 422.5873 131.8032 423 132.1333 C424.7944 133.5689 431.3657 146.6385 431 147.1333 C429.9344 148.5751 418.1873 152.6959 406 155.1333 C399.1275 156.5078 398.2398 154.2816 391 155.1333 C381.6025 156.2389 372 159.1333 372 159.1333 "/>
<path id="44" d="M241 138.1333 C241 138.1333 257.8304 133.3673 274 130.1333 C277.2713 129.4791 278.0354 129.3098 281 130.1333 C286.2468 131.5908 291.518 133.2455 292 135.1333 C294.6084 145.3494 295.69 164.6617 293 177.1333 C292.254 180.5921 287.2573 183.1056 281 186.1333 C272.62 190.1882 271.2821 190.5421 262 192.1333 C254.5849 193.4045 252.3472 193.6567 246 192.1333 C241.8584 191.1394 237 186.1333 237 186.1333 "/>
<path id="45" d="M236 140.1333 L238 184.1333 "/>
<path id="46" d="M255 199.1333 C255 199.1333 261.2963 217.699 264 236.1333 C266.7018 254.5548 266 274.1333 266 274.1333 "/>
<path id="47" d="M259 201.1333 C259 201.1333 263.5451 206.4323 264 211.1333 C266.2607 234.4941 265 263.1333 265 263.1333 "/>
<path id="48" d="M327 182.1333 C327 182.1333 330.5748 192.6816 332 203.1333 C333.5209 214.2862 333 226.1333 333 226.1333 "/>
<path id="49" d="M332 189.1333 C332 189.1333 334.0187 231.7696 334 232.1333 C333.9983 232.1655 330 228.1333 330 228.1333 "/>
<path id="50" d="M247 231.1333 L252 227.1333 "/>
<path id="51" d="M250 227.1333 L253 237.1333 "/>
<path id="52" d="M308 206.1333 L318 198.1333 "/>
<path id="53" d="M311 199.1333 L318 210.1333 "/>
<path id="54" d="M170 345.1333 C170 345.1333 171.9439 339.1333 172 339.1333 C172.1402 339.1333 176.9274 345.1748 177 345.1333 C177.7849 344.6848 183.8389 333.4746 186 331.1333 C186.1714 330.9476 188.875 331.8833 189 332.1333 C189.125 332.3833 188 335.1333 188 335.1333 "/>
<path id="55" d="M186 346.1333 C186 346.1333 190.4824 338.0991 192 337.1333 C192.4823 336.8264 197 339.1333 197 339.1333 "/>
<path id="56" d="M357 244.1333 C357 244.1333 361.1772 238.3621 365 237.1333 C372.6989 234.6587 385 235.1333 385 235.1333 "/>
<path id="57" d="M363 248.1333 C363 248.1333 362.9138 246.1678 363 246.1333 C363.5388 245.9178 366.7237 245.5864 368 246.1333 C368.8387 246.4928 369.9627 249.1427 370 249.1333 C370.0896 249.1109 371.7813 245.1698 372 245.1333 C372.287 245.0855 375.9285 248.181 376 248.1333 C376.2384 247.9744 378 241.1333 378 241.1333 "/>
<path id="58" d="M378 264.1333 L380 252.1333 "/>
<path id="59" d="M373 251.1333 C373 251.1333 372.8391 255.309 374 257.1333 C375.5426 259.5574 379.6532 262.0342 380 262.1333 C380.0067 262.1352 381 259.1333 381 259.1333 "/>
</g>
</g>
</svg>
