<?xml version="1.0" encoding="utf-8"?>
<!DOCTYPE svg PUBLIC "-//W3C//DTD SVG 1.1//EN" "http://www.w3.org/Graphics/SVG/1.1/DTD/svg11.dtd">
<svg viewBox="0 0 800 800" preserveAspectRatio="xMinYMin meet" xmlns="http://www.w3.org/2000/svg" version="1.1">
<g fill="none" stroke="black" stroke-linecap="round" stroke-linejoin="round" stroke-width="2.1409">
<g transform="translate(87.52,206.6267) scale(1.4013) translate(-90,-42.1333)">
<path id="0" d="M196 184.1333 C196 184.1333 155.3231 180.0987 127 183.1333 C120.3927 183.8413 118.724 187.8249 112 193.1333 C109.6659 194.976 109.0661 195.5442 108 198.1333 C105.8772 203.2888 105.6 204.1333 105 210.1333 C101.6585 243.5481 96.392 273.993 100 278.1333 C103.374 282.0051 147.3021 284.3404 166 280.1333 C171.2771 278.946 172.5842 269.5717 180 260.1333 C183.4174 255.7839 183.8334 254.8293 188 252.1333 C191.4597 249.8947 192.7159 249.3588 197 249.1333 C210.5418 248.4206 219.0893 246.678 226 250.1333 C230.8024 252.5345 231.2453 264.8173 237 269.1333 C242.6408 273.3639 247.4738 272.8338 258 274.1333 C287.5167 277.7774 288.1254 277.9263 318 279.1333 C337.3333 279.9145 338.2643 279.6628 357 278.1333 C361.9114 277.7324 364.4174 277.716 367 275.1333 C374.7479 267.3855 374.7856 259.5528 383 252.1333 C387.3594 248.1958 390.7026 247.9819 398 247.1333 C411.1135 245.6085 413.232 245.3518 426 247.1333 C433.2218 248.141 435.082 249.188 441 253.1333 C445.8798 256.3865 446.7482 257.9847 450 263.1333 C452.2588 266.7098 450.7832 269.1104 453 272.1333 C455.3487 275.3362 457.5425 277.7694 461 278.1333 C480.6275 280.1994 496.6442 281.7552 510 278.1333 C513.9083 277.0734 519.3032 269.3103 520 262.1333 C523.5721 225.3409 518.008 216.966 520 175.1333 C520.4176 166.3638 523.7374 165.9718 525 157.1333 C526.147 149.1045 525.7913 145.1447 525 140.1333 C524.8849 139.4041 522.2278 138.9876 522 138.1333 C520.9206 134.0858 522.0794 129.1809 521 125.1333 C520.7722 124.2791 518.1508 123.9251 518 123.1333 C516.8745 117.2247 518.5154 111.1043 517 104.1333 C516.616 102.3669 513.2457 101.8534 513 100.1333 C510.5581 83.0403 514.5217 67.5681 510 55.1333 C508.4125 50.7677 501.3922 47.6129 493 45.1333 C481.2719 41.6682 479.4218 42.242 466 42.1333 C356.7391 41.2486 349.6034 40.8908 246 43.1333 C240.7796 43.2463 239.8333 44.3715 235 47.1333 C226.3209 52.0928 224.7724 52.3609 218 59.1333 C212.1617 64.9716 210.6492 67.2453 208 74.1333 C206.4537 78.1537 209.0359 80.1263 208 85.1333 C206.1879 93.8917 205.6379 94.8653 202 103.1333 C200.3784 106.8187 197.2141 107.1002 197 110.1333 C194.7267 142.3377 196 188.1333 196 188.1333 "/>
<path id="1" d="M193 260.1333 C193 260.1333 184.2467 269.0827 182 277.1333 C179.0582 287.6747 180.6202 290.9807 181 303.1333 C181.0887 305.9704 181.3714 307.3884 183 309.1333 C187.182 313.6141 189.7835 317.2817 195 318.1333 C209.2663 320.4625 218.3221 318.5011 232 317.1333 C233.2166 317.0117 234.7746 315.4293 235 314.1333 C236.2911 306.7096 235.7145 304.127 236 294.1333 C236.2138 286.6488 236.5884 282.2714 236 279.1333 C235.9387 278.8065 233.3378 278.5838 233 278.1333 C232.6882 277.7175 233.3526 275.486 233 275.1333 C232.1772 274.3105 229.0998 274.2331 228 273.1333 C227.2144 272.3478 227.8421 269.7649 227 269.1333 C223.8946 266.8043 221.2157 264.7542 216 264.1333 C202.0558 262.4733 185 264.1333 185 264.1333 "/>
<path id="2" d="M411 262.1333 C411 262.1333 400.0683 261.1248 392 262.1333 C389.7175 262.4186 388.0105 263.9207 387 265.1333 C386.577 265.641 387.5397 267.3974 387 268.1333 C383.3903 273.0556 378.5833 274.5362 376 280.1333 C373.8124 284.8732 373.6248 289.6149 375 294.1333 C376.1482 297.9058 378.7122 299.6495 383 303.1333 C386.1502 305.6929 386.8915 305.8127 391 307.1333 C400.5601 310.2062 401.1484 310.802 411 312.1333 C419.1002 313.228 421.3003 313.5291 428 312.1333 C431.1692 311.4731 432.6173 309.7808 435 307.1333 C436.4339 305.5402 436.7485 304.5648 437 302.1333 C438.1644 290.8777 440.3779 287.2127 438 278.1333 C435.8821 270.0466 431.0988 262.0329 426 260.1333 C415.2679 256.1351 403.739 257.7384 387 259.1333 C382.9497 259.4709 378 264.1333 378 264.1333 "/>
<path id="3" d="M415 280.1333 C415 280.1333 411.367 279.6746 411 280.1333 C409.4863 282.0255 406.8564 288.1229 407 290.1333 C407.0644 291.0351 409.7435 293.439 412 294.1333 C414.8972 295.0248 419.6541 294.609 420 294.1333 C420.6541 293.234 420.6844 283.8862 420 283.1333 C419.4344 282.5112 410 283.1333 410 283.1333 "/>
<path id="4" d="M213 287.1333 C213 287.1333 208.6195 288.266 208 289.1333 C207.444 289.9117 207.7191 293.9578 208 294.1333 C208.7191 294.5828 214.4954 294.8856 216 294.1333 C216.8463 293.7102 218 289.1333 218 289.1333 "/>
<path id="5" d="M218 107.1333 C218 107.1333 212.1124 173.1357 217 182.1333 C218.9985 185.8124 258.2977 189.2852 262 188.1333 C262.5341 187.9672 260.5375 177.3958 262 168.1333 C263.3855 159.3583 267.168 158.8694 268 150.1333 C270.016 128.9651 268.8364 126.4607 268 105.1333 C267.887 102.2525 266.5894 99.2086 266 99.1333 C256.4112 97.9092 242.3509 98.6885 221 99.1333 C219.5667 99.1632 218.0729 99.7932 218 100.1333 C217.4232 102.825 218 113.1333 218 113.1333 "/>
<path id="6" d="M225 158.1333 C225 158.1333 224.5618 164.0515 226 167.1333 C227.3369 169.9981 230.6886 170.5105 232 173.1333 C232.8743 174.8819 231.5295 178.0356 232 179.1333 C232.1792 179.5515 234.8868 179.7558 235 180.1333 C235.5364 181.9214 235.3375 188.1208 235 189.1333 C234.9625 189.2458 232 189.1333 232 189.1333 "/>
<path id="7" d="M230 174.1333 L218 179.1333 "/>
<path id="8" d="M520 214.1333 C520 214.1333 535.7241 213.4437 536 214.1333 C537.7241 218.4437 537.6438 249.7498 536 254.1333 C535.7688 254.7498 521 254.1333 521 254.1333 "/>
<path id="9" d="M97 248.1333 C97 248.1333 120.5616 246.7266 123 248.1333 C123.8116 248.6016 124.2857 257.9906 123 263.1333 C122.4643 265.2761 119.0928 265.9477 118 268.1333 C117.2714 269.5904 118.1119 273.1126 118 273.1333 C114.7369 273.7376 93.9829 274.7313 91 273.1333 C90.0018 272.5986 89.0134 264.5463 90 258.1333 C90.7821 253.0495 92.1363 251.1425 95 247.1333 C96.2915 245.3253 97.6691 244.6712 100 244.1333 C103.2758 243.3774 108 244.1333 108 244.1333 "/>
<path id="10" d="M511 218.1333 C511 218.1333 525 217.1333 525 217.1333 C525 217.1333 512.6475 215.8498 507 217.1333 C505.3885 217.4996 503.1093 220.1653 503 222.1333 C502.3533 233.7743 502.5772 250.0322 505 253.1333 C506.4114 254.9399 528 254.1333 528 254.1333 "/>
</g>
</g>
</svg>
