<?xml version="1.0" encoding="utf-8"?>
<!DOCTYPE svg PUBLIC "-//W3C//DTD SVG 1.1//EN" "http://www.w3.org/Graphics/SVG/1.1/DTD/svg11.dtd">
<svg viewBox="0 0 800 800" preserveAspectRatio="xMinYMin meet" xmlns="http://www.w3.org/2000/svg" version="1.1">
<g fill="none" stroke="black" stroke-linecap="round" stroke-linejoin="round" stroke-width="2.5106">
<g transform="translate(87.52,230.9143) scale(1.195) translate(-47,-152.1333)">
<path id="0" d="M52 392.1333 C52 392.1333 49.4625 369.1054 49 346.1333 C47.9657 294.7633 44.978 290.3006 49 243.1333 C50.0519 230.7975 53.7957 227.5827 60 217.1333 C62.0502 213.6803 65.6591 213.9945 68 211.1333 C69.0857 209.8064 67.8336 207.7484 69 206.1333 C73.4165 200.0181 74.3343 198.1777 81 193.1333 C92.0958 184.7365 93.1114 184.1173 106 178.1333 C120.5591 171.3737 122.0465 171.0497 137 167.1333 C141.8549 165.8618 142.8197 168.0927 148 167.1333 C169.1225 163.2218 170.6289 163.0096 191 157.1333 C195.636 155.796 195.938 152.3615 200 152.1333 C235.0141 150.1662 240.9228 150.8862 280 152.1333 C286.8853 152.3531 287.01 154.5644 294 155.1333 C329.4921 158.0222 330.36 155.8025 366 159.1333 C383.5116 160.7699 383.5693 163.6979 401 165.1333 C425.5948 167.1588 427.2006 163.7189 451 166.1333 C460.3146 167.0783 462.0902 167.8189 470 172.1333 C477.2964 176.1132 477.7197 177.6287 484 184.1333 C491.5109 191.9125 492.6641 192.796 498 201.1333 C499.9074 204.1137 498.2593 206.0388 500 209.1333 C502.2772 213.1816 505.3972 213.1263 507 217.1333 C509.7011 223.886 507.3705 228.0854 510 234.1333 C511.2992 237.1214 514.5965 236.8558 517 240.1333 C519.5762 243.6464 518.1245 246.6807 521 249.1333 C532.5888 259.0179 538.1396 257.9876 551 269.1333 C559.5495 276.5429 560.8008 278.5558 566 288.1333 C569.4807 294.5452 569.5979 296.2915 570 304.1333 C571.5386 334.1358 572.3569 342.5647 570 366.1333 C569.6693 369.4405 567.0025 371.6453 563 374.1333 C549.8542 382.305 547.537 386.552 533 389.1333 C498.4149 395.2746 482.21 396.5153 456 393.1333 C449.8095 392.3346 448.4549 383.4063 440 377.1333 C433.8741 372.5883 432.3563 372.1626 425 370.1333 C418.7974 368.4223 416.9534 368.538 411 369.1333 C408.3017 369.4032 406.3479 370.2077 405 372.1333 C400.769 378.1777 400.9618 387.3393 397 389.1333 C384.8431 394.6384 374.5238 392.869 352 396.1333 C340.0393 397.8668 339.9624 398.7641 328 399.1333 C259.45 401.2491 217.8607 402.7141 190 401.1333 C189.2792 401.0924 189.5341 395.0497 187 391.1333 C179.2977 379.2298 178.1928 375.5424 168 367.1333 C160.5327 360.9728 151.7446 356.6309 147 358.1333 C134.4871 362.0958 118.3401 375.5281 108 386.1333 C106.1207 388.0608 108.4061 398.024 108 398.1333 C101.3968 399.9111 56 400.1333 56 400.1333 "/>
<path id="1" d="M113 394.1333 C113 394.1333 110.0602 397.0261 110 399.1333 C109.6455 411.5397 109.1083 423.1797 112 429.1333 C113.1471 431.495 119.7118 433.3741 127 434.1333 C142.496 435.7475 145.3935 435.8318 160 434.1333 C164.6836 433.5887 167.3629 432.3256 170 429.1333 C175.0579 423.0106 176.6707 419.6741 179 411.1333 C180.7082 404.8701 179 396.1333 179 396.1333 "/>
<path id="2" d="M151 386.1333 C151 386.1333 141.6089 387.6983 139 390.1333 C136.9549 392.0421 135.821 399.9319 136 400.1333 C136.2143 400.3744 145.9476 399.9944 147 399.1333 C147.5829 398.6564 147 391.1333 147 391.1333 "/>
<path id="3" d="M396 377.1333 C396 377.1333 394.0482 378.3623 394 379.1333 C393.3196 390.0191 391.6363 395.7388 394 409.1333 C395.7798 419.2186 397.907 423.8277 403 430.1333 C405.647 433.4105 409.3636 434.5697 415 435.1333 C427.5804 436.3914 435.8353 436.1484 443 434.1333 C444.5834 433.688 444.4679 429.2985 447 426.1333 C450.0295 422.3465 454.2962 422.0364 455 419.1333 C457.0469 410.69 455 393.1333 455 393.1333 "/>
<path id="4" d="M420 399.1333 C420 399.1333 416.1351 399.7281 416 400.1333 C415.3631 402.0439 415.1905 408.5026 416 411.1333 C416.2377 411.906 418.3308 412.9479 420 413.1333 C421.9328 413.3481 424.6465 412.7899 425 412.1333 C426.2522 409.8079 427 400.1333 427 400.1333 "/>
<path id="5" d="M478 190.1333 C478 190.1333 476.0091 213.1118 481 224.1333 C485.0241 233.0199 491.5796 235.4917 502 243.1333 C505.3409 245.5833 511 246.1333 511 246.1333 "/>
<path id="6" d="M456 203.1333 C456 203.1333 457.4555 224.1229 456 240.1333 C455.7103 243.3197 453.6875 246.1489 452 247.1333 C450.3299 248.1076 447.545 246.2185 444 247.1333 C432.8933 249.9996 432.1329 252.4344 421 255.1333 C416.536 256.2155 414.5037 256.5932 411 255.1333 C404.6349 252.4812 400.9129 250.7475 397 245.1333 C391.2026 236.8153 389.9832 233.0409 388 222.1333 C386.3242 212.9163 387.8653 207.658 389 201.1333 C389.1351 200.3563 390.6339 199.3817 392 199.1333 C395.249 198.5426 397.1028 200.0248 400 199.1333 C402.2565 198.439 402.4823 196.0775 405 195.1333 C409.5513 193.4266 410.5581 193.3467 416 193.1333 C435.6485 192.3628 451.11 192.3998 456 193.1333 C456.11 193.1498 456 199.1333 456 199.1333 "/>
<path id="7" d="M341 389.1333 C341 389.1333 337.4108 383.4741 337 378.1333 C334.5602 346.416 337.272 344.0771 335 311.1333 C334.3139 301.1842 333.2436 297.3031 331 291.1333 C330.6387 290.1399 327.1173 289.8568 327 289.1333 C325.4354 279.485 327.0704 271.2881 325 254.1333 C323.6133 242.6436 323.0383 241.3876 320 231.1333 C319.3933 229.0856 317.0935 228.8156 317 227.1333 C315.8785 206.9456 317 177.1333 317 177.1333 "/>
<path id="8" d="M310 280.1333 C310 280.1333 299 280.1333 299 280.1333 C299 280.1333 308 280.1334 308 280.1333 C308 280.1333 300.0001 279.1334 300 279.1333 C300 279.1333 303.4119 279.651 306 279.1333 C307.898 278.7537 310 277.1361 310 277.1333 C310 277.1333 307.1937 276.4312 306 277.1333 C300.365 280.448 299.4223 283.9222 293 287.1333 C288.7184 289.2741 282.0458 289.1072 282 289.1333 C281.9892 289.1395 284.38 291.1333 286 291.1333 C290.455 291.1333 297 289.1333 297 289.1333 "/>
<path id="9" d="M359 284.1333 C359 284.1333 370.0019 280.1336 370 280.1333 C369.995 280.1327 342 282.1333 342 282.1333 C342 282.1333 347.8355 282.4347 352 281.1333 C354.9278 280.2184 358 277.1333 358 277.1333 "/>
<path id="10" d="M154 178.1333 C154 178.1333 152.3063 209.4046 154 240.1333 C155.7862 272.5401 159.0612 272.7277 161 305.1333 C162.5411 330.8919 161 357.1333 161 357.1333 "/>
<path id="11" d="M282 212.1333 C282 212.1333 250.4265 211.0588 220 213.1333 C207.0874 214.0137 202.2262 214.8429 194 218.1333 C192.0022 218.9324 190.3371 221.9311 190 225.1333 C188.5919 238.5101 189.0113 244.928 190 256.1333 C190.1041 257.3134 191.8458 259.0641 193 259.1333 C210.0596 260.1569 217.3461 261.5041 240 259.1333 C259.2519 257.1186 263.0486 255.903 279 250.1333 C283.1123 248.6459 286.3853 245.3827 287 242.1333 C288.8617 232.293 286 213.1333 286 213.1333 "/>
<path id="12" d="M74 203.9333 C74 203.9333 66.9685 217.3424 66 229.9333 C63.6374 260.6465 69.4549 267.5792 67 294.9333 C66.4812 300.7143 63.2386 303.0892 59 307.9333 C57.2516 309.9315 55.133 308.9781 53 310.9333 C49.7497 313.9128 47 318.9333 47 318.9333 "/>
</g>
</g>
</svg>
