<?xml version="1.0" encoding="utf-8"?>
<!DOCTYPE svg PUBLIC "-//W3C//DTD SVG 1.1//EN" "http://www.w3.org/Graphics/SVG/1.1/DTD/svg11.dtd">
<svg viewBox="0 0 800 800" preserveAspectRatio="xMinYMin meet" xmlns="http://www.w3.org/2000/svg" version="1.1">
<g fill="none" stroke="black" stroke-linecap="round" stroke-linejoin="round" stroke-width="2.1505">
<g transform="translate(87.52,171.22) scale(1.395) translate(-185,-117.1333)">
<path id="0" d="M404 138.1333 C404 138.1333 406 139.8833 406 140.1333 C406 140.3833 404.7827 142.0864 404 142.1333 C386.2565 143.1979 379.6192 140.9642 356 143.1333 C331.0828 145.4216 330.7975 148.0813 306 151.1333 C298.7044 152.0312 297.7229 149.6207 291 151.1333 C278.8876 153.8586 272.9347 154.4595 266 160.1333 C261.1301 164.1178 259.0397 169.6672 258 178.1333 C255.8706 195.4725 260.444 206.7849 259 217.1333 C258.8151 218.4586 255.3731 220.4306 252 221.1333 C244.59 222.6771 242.7027 220.0595 235 222.1333 C217.8276 226.7567 215.7726 227.2471 200 235.1333 C192.0187 239.124 187.4913 241.9845 185 247.1333 C182.542 252.2131 183.7018 257.3055 185 266.1333 C186.0751 273.4443 189.2999 273.8524 190 281.1333 C191.6733 298.5353 186.9612 312.6889 190 318.1333 C191.5929 320.9873 202.714 320.2638 214 324.1333 C219.6554 326.0723 219.4433 328.5457 225 330.1333 C235.9885 333.2729 237.0823 333.0247 249 334.1333 C258.2908 334.9976 259.0938 335.8841 268 334.1333 C316.0566 324.6863 316.8582 321.5287 366 311.1333 C394.7189 305.0582 395.0536 304.3496 424 301.1333 C448.5936 298.4007 449.2088 301.2432 474 299.1333 C495.9946 297.2614 496.1571 294.0748 518 293.1333 C553.5127 291.6026 588.8686 296.2378 590 294.1333 C592.4654 289.5476 577.021 247.2752 568 200.1333 C561.5957 166.6659 564.9598 164.3163 559 132.1333 C557.7928 125.6146 556.1105 123.7991 553 119.1333 C552.1461 117.8525 550.7937 117.1593 549 117.1333 C520.0677 116.714 514.8605 113.9131 484 118.1333 C458.3916 121.6353 457.511 124.8798 432 133.1333 C423.8043 135.7849 423.9609 138.0862 416 140.1333 C407.2724 142.3776 397 142.1333 397 142.1333 "/>
<path id="1" d="M296 187.1333 C296 187.1333 295.0111 269.4488 297 281.1333 C297.0539 281.4501 305.2009 282.2212 312 281.1333 C316.8228 280.3617 316.9959 278.2056 322 277.1333 C330.4938 275.3132 339.2342 276.5372 340 275.1333 C342.0086 271.4508 341.3396 259.3159 340 244.1333 C338.3782 225.7529 338.3598 224.5724 334 207.1333 C332.1032 199.5462 329.4649 199.528 327 192.1333 C325.6728 188.1516 327.0603 185.466 326 183.1333 C325.5718 182.1913 323.7811 181.2143 322 181.1333 C314.1827 180.778 304 182.1333 304 182.1333 "/>
<path id="2" d="M301 223.1333 L346 220.1333 "/>
<path id="3" d="M230 330.1333 C230 330.1333 218.6009 329.5827 215 332.1333 C210.6954 335.1824 209.4322 339.477 206 347.1333 C203.1523 353.4859 202.6688 354.2776 202 361.1333 C200.7451 373.9965 198.9948 376.676 202 388.1333 C206.2515 404.342 209.3303 410.667 218 422.1333 C221.4495 426.6956 225.8377 427.7009 233 429.1333 C241.7345 430.8802 243.9045 430.1439 253 429.1333 C256.335 428.7628 258.1867 428.3244 260 426.1333 C268.263 416.1488 267.3682 410.8354 277 400.1333 C284.253 392.0744 287.5122 393.678 296 386.1333 C300.5588 382.0811 302.9814 380.5898 304 376.1333 C306.1529 366.7145 306.896 359.2007 304 351.1333 C301.7961 344.9939 296.0427 344.6262 290 337.1333 C283.8186 329.4684 283.0215 323.1974 279 320.1333 C277.4489 318.9516 269 321.1333 269 321.1333 "/>
<path id="4" d="M557 293.1333 C557 293.1333 549.6535 291.3289 547 293.1333 C530.2509 304.5228 519.7074 309.3909 507 327.1333 C496.998 341.0984 497.2555 347.3831 494 367.1333 C490.0348 391.189 491.6023 394.2722 492 418.1333 C492.0706 422.3703 492.7412 423.5569 495 427.1333 C498.2518 432.282 499.094 434.0444 504 437.1333 C511.1867 441.6583 513.1805 442.5654 522 444.1333 C534.4552 446.3476 538.0027 448.4063 549 445.1333 C575.6622 437.1982 579.5056 433.3134 606 419.1333 C613.63 415.0497 617.4401 413.3361 620 407.1333 C628.0568 387.6112 627.6135 381.4403 632 356.1333 C633.9977 344.6082 633.3773 343.0742 633 332.1333 C632.9202 329.8192 632.5337 328.5863 631 327.1333 C624.3258 320.8104 622.9581 319.6936 614 314.1333 C594.2477 301.8733 592.5066 300.4965 573 291.1333 C569.4465 289.4277 566.2639 289.2278 564 290.1333 C561.6835 291.0599 558 297.1333 558 297.1333 "/>
</g>
</g>
</svg>
