<?xml version="1.0" encoding="utf-8"?>
<!DOCTYPE svg PUBLIC "-//W3C//DTD SVG 1.1//EN" "http://www.w3.org/Graphics/SVG/1.1/DTD/svg11.dtd">
<svg viewBox="0 0 800 800" preserveAspectRatio="xMinYMin meet" xmlns="http://www.w3.org/2000/svg" version="1.1">
<g fill="none" stroke="black" stroke-linecap="round" stroke-linejoin="round" stroke-width="1.2385">
<g transform="translate(87.52,300.6847) scale(2.4223) translate(-203,-209)">
<path id="0" d="M457 243 C457 243 441.8251 245.327 432 243 C426.0532 241.5916 424.7926 239.1111 419 234 C408.0657 224.3521 406.9784 216.4532 398 213 C388.5466 209.3641 382.352 214.6603 367 214 C336.1466 212.673 335.9443 210.6637 305 209 C289.5946 208.1718 289.0908 207.9939 274 209 C267.0875 209.4608 261.062 211.0265 260 212 C259.6619 212.31 261.8816 216.0927 262 220 C262.852 248.1148 259.2077 272.6946 262 278 C262.712 279.3528 288.5035 276.8834 292 277 C292.0078 277.0003 291.9 278.95 292 279 C292.4 279.2 295.5992 279.4898 296 279 C297.8479 276.7414 298.8675 269.3032 301 268 C303.3649 266.5548 312.7626 266.84 314 268 C315.624 269.5225 315.875 282.25 317 283 C318.125 283.75 329.4248 280.8584 332 280 C332.1073 279.9642 331.9887 278.0005 332 278 C340.7405 277.6144 378.6478 279.34 400 277 C401.808 276.8019 402.3525 272.3827 405 270 C406.5932 268.5661 407.6088 268.2277 410 268 C417.3712 267.298 422.7115 266.5202 426 268 C427.6545 268.7445 428.7065 276.6878 430 277 C435.1378 278.2402 443.4839 276.5884 455 275 C456.9481 274.7313 458.8397 273.7749 459 273 C460.5544 265.487 462.1381 250.8777 461 246 C460.7812 245.0625 452 243 452 243 "/>
<path id="1" d="M427 245 C427 245 400.8136 246.7488 399 245 C397.3136 243.3738 399.5023 225.0328 399 218 C398.9787 217.7023 397 217 397 217 "/>
<path id="2" d="M429 275 C429 275 426.6838 269.0715 425 268 C423.6059 267.1129 418 268 418 268 "/>
<path id="3" d="M428 274 C428 274 427.53 279.5958 426 282 C424.98 283.6028 423.3345 284.2997 421 285 C419.0216 285.5935 416.1269 285.29 416 285 C415.0213 282.7631 413.531 269.8793 414 269 C414.1361 268.7448 423.1689 269.1689 424 270 C424.68 270.68 425.1251 276.7497 424 279 C422.9374 281.1253 420.198 283.1584 417 284 C412.3851 285.2144 405.666 284.6054 405 284 C404.551 283.5918 404.7617 274.9287 406 274 C409.3143 271.5143 423.5035 268.4299 425 269 C425.6086 269.2319 427.8999 279.3003 427 282 C426.4406 283.6782 422.7209 285.9664 419 287 C415.0369 288.1009 409.8474 287.8474 409 287 C407.8137 285.8137 406.4752 275.8528 407 275 C407.3486 274.4335 415.572 274.4284 417 274 C417.0832 273.975 416.825 272.1 417 272 C418.2468 271.2875 420.5718 270.6233 424 270 C425.8622 269.6614 427.0332 269.5166 428 270 C428.846 270.423 430 271.8578 430 273 C430 278.3303 429.4695 285.7034 428 287 C426.3739 288.4348 414.5351 289.1087 413 288 C411.5903 286.9819 409.5534 275.1166 410 274 C410.1605 273.5987 419 273 419 273 "/>
<path id="4" d="M307 269 C307 269 306.9266 276.9175 305 280 C303.4273 282.5163 297.0024 285.0036 297 285 C296.9077 284.8615 297.3908 272.4304 299 271 C300.9806 269.2395 313.329 268.1645 315 269 C315.8355 269.4178 317.4461 279.1079 317 280 C316.777 280.4461 310.5686 281.4706 309 281 C308.3481 280.8044 307.3152 278.8914 307 277 C306.418 273.5081 306.5044 269.5664 307 269 C307.3794 268.5664 313.5674 268.3511 314 269 C315.9777 271.9666 319 284.2311 319 287 C319 287.3077 316.1885 289 314 289 C307.4346 289 300.6218 288.2974 299 287 C298.2184 286.3747 298.2146 279.3562 299 277 C299.2618 276.2146 301.2342 275.1104 303 275 C308.1103 274.6806 313.229 274.735 315 276 C316.174 276.8386 317.3273 284.6727 317 285 C316.3922 285.6078 306.0582 286.996 305 286 C302.9905 284.1087 299.8773 270.0427 300 269 C300.0062 268.9477 307 269 307 269 "/>
<path id="5" d="M244 232 L203 232 "/>
<path id="6" d="M249 291 L211 291 "/>
</g>
</g>
</svg>
