<?xml version="1.0" encoding="utf-8"?>
<!DOCTYPE svg PUBLIC "-//W3C//DTD SVG 1.1//EN" "http://www.w3.org/Graphics/SVG/1.1/DTD/svg11.dtd">
<svg viewBox="0 0 800 800" preserveAspectRatio="xMinYMin meet" xmlns="http://www.w3.org/2000/svg" version="1.1">
<g fill="none" stroke="black" stroke-linecap="round" stroke-linejoin="round" stroke-width="2.7362">
<g transform="translate(87.52,276.6526) scale(1.0964) translate(-44,-151)">
<path id="0" d="M92 162 C92 162 97.5922 160.0731 103 160 C133.8892 159.5826 135.2319 163.2698 166 161 C195.2091 158.8452 195.8388 151.9258 225 151 C319.8501 147.9889 321.9448 150.5158 418 153 C437.4564 153.5032 450.7841 151.5752 457 157 C464.958 163.9452 466.0329 178.9987 473 201 C475.4068 208.6003 474.9717 208.9606 476 217 C480.4576 251.8506 481.3065 252.3692 484 287 C484.7598 296.7692 483 307 483 307 "/>
<path id="1" d="M97 162 C97 162 83.8537 160.6296 72 161 C68.6472 161.1048 68.3831 161.7536 65 163 C58.9473 165.2299 56.9274 164.6927 53 168 C49.0599 171.318 46.9147 173.8165 46 179 C42.9832 196.0954 43.3994 199.4799 44 219 C44.3778 231.279 45.1532 231.9801 48 244 C49.5562 250.5707 51.8285 250.4916 53 257 C56.1791 274.6617 52.3576 290.228 57 294 C66.8385 301.9938 87.7557 304.3475 117 309 C130.0507 311.0763 142.2525 305.9394 145 308 C147.2938 309.7204 146.1545 320.8419 149 333 C151.5934 344.0809 151.3478 345.1483 156 355 C159.4419 362.2887 160.4792 363.7421 166 369 C169.9547 372.7664 171.6302 373.4338 177 375 C182.5979 376.6327 187.6961 377.4661 190 376 C193.4558 373.8009 197.523 368.0897 199 361 C201.9066 347.0481 198.0751 343.7197 200 328 C200.9654 320.1159 201.5958 315.1319 205 312 C209.5643 307.8009 214.9442 307.1689 225 305 C239.8957 301.7872 240.5829 301.4437 256 301 C309.5126 299.4601 351.6528 297.2272 364 301 C365.1528 301.3522 361.1531 319.7654 364 334 C366.0877 344.4387 369.8428 351.4159 375 356 C378.0005 358.6671 384.2872 358 391 358 C392.6782 358 394.5062 357.1223 395 356 C398.4252 348.2154 400.7636 344.1273 402 333 C403.6061 318.5449 399.5 307.6667 401 302 C401.2756 300.9588 406.275 299 411 299 C443.1303 299 479 302 479 302 "/>
<path id="2" d="M65 165 C65 165 62.8533 203.3064 64 240 C64.3231 250.3397 67.032 250.5132 68 261 C70.0015 282.6833 70 305 70 305 "/>
<path id="3" d="M49 191 C49 191 59.9582 188.9948 60 189 C60.0102 189.0013 57 192 57 192 "/>
<path id="4" d="M48 199 L60 197 "/>
<path id="5" d="M44 220 L52 219 "/>
<path id="6" d="M53 234 C53 234 61.5873 232.7937 62 233 C62.0728 233.0364 61 238 61 238 "/>
<path id="7" d="M55 252 C55 252 62.9279 251.7618 64 252 C64.0529 252.0118 64 254 64 254 "/>
<path id="8" d="M58 280 L72 282 "/>
<path id="9" d="M71 166 C71 166 80.0247 166.4945 83 169 C86.676 172.0956 88.3044 175.5942 90 182 C92.4578 191.2852 92.2914 196.0067 92 203 C91.9565 204.0448 89.9014 205.9099 89 206 C87.1425 206.1857 82.9673 205.5273 82 204 C76.6473 195.5484 72.6757 186.4054 70 176 C69.4639 173.9151 73 169 73 169 "/>
<path id="10" d="M81 189 C81 189 86.9949 190.0152 87 190 C87.0288 189.9137 83 183 83 183 "/>
<path id="11" d="M88 203 C88 203 84.9196 208.1722 84 213 C83.0601 217.9346 83.1433 219.7163 84 224 C84.3583 225.7913 85.5185 227.177 87 228 C88.8597 229.0332 91.9171 229.4813 93 229 C94.0179 228.5476 95.9025 226.0484 96 224 C96.3017 217.6652 94 208 94 208 "/>
<path id="12" d="M86 214 L80 214 "/>
<path id="13" d="M72 196 C72 196 68.5988 198.7546 68 201 C67.013 204.7012 67.1093 209.6639 68 211 C68.6532 211.9798 74.9066 213.328 76 213 C76.5172 212.8449 77.8138 210.2347 78 208 C78.2493 205.0083 77.9938 202.4907 77 201 C76.3086 199.963 72 199 72 199 "/>
<path id="14" d="M72 205 L70 210 "/>
<path id="15" d="M480 279 C480 279 496.5528 274.6316 513 272 C521.2718 270.6765 525.8973 270.7721 530 271 C530.269 271.0149 530.8119 271.9969 531 273 C532.2359 279.5917 533.1704 286.9513 533 287 C528.6553 288.2413 482 287 482 287 "/>
<path id="16" d="M541 278 C541 278 552.4622 274 556 274 C556.7076 274 559 278 559 278 "/>
<path id="17" d="M574 279 L597 275 "/>
<path id="18" d="M602 275 L614 274 "/>
</g>
</g>
</svg>
