<?xml version="1.0" encoding="utf-8"?>
<!DOCTYPE svg PUBLIC "-//W3C//DTD SVG 1.1//EN" "http://www.w3.org/Graphics/SVG/1.1/DTD/svg11.dtd">
<svg viewBox="0 0 800 800" preserveAspectRatio="xMinYMin meet" xmlns="http://www.w3.org/2000/svg" version="1.1">
<g fill="none" stroke="black" stroke-linecap="round" stroke-linejoin="round" stroke-width="2.2513">
<g transform="translate(87.52,285.4018) scale(1.3325) translate(-56,-157)">
<path id="0" d="M56 171 C56 171 147.1789 172.8791 238 171 C291.9558 169.8837 292.016 166.8255 346 165 C395.4094 163.3292 445 164 445 164 "/>
<path id="1" d="M58 171 C58 171 62.9605 179.3491 66 188 C69.3381 197.5006 69.519 197.9623 71 208 C73.9701 228.131 72.1332 228.6932 75 249 C78.1127 271.0484 80.2825 271.6479 83 293 C83.6563 298.1569 81.7551 303.8775 82 304 C82.8437 304.4218 90.5645 301.3479 99 301 C138.4302 299.374 178.9775 299.9994 179 300 C179.0025 300.0001 170.6085 301.7154 170 303 C168.6595 305.8299 168.5205 313.5751 170 319 C170.7061 321.5892 172.9171 323.5397 176 325 C181.028 327.3817 182.5067 327.1044 189 328 C196.8119 329.0775 198.0841 329.3458 205 329 C206.7777 328.9111 207.8045 328.3283 209 327 C211.6685 324.035 213.4759 322.5374 214 319 C215.1303 311.3707 211.4082 301.5329 213 300 C216.1973 296.9212 226.8844 295.2435 241 293 C301.9481 283.3129 363.9867 276.0017 364 276 C364.0006 275.9999 360.5932 276.5661 359 278 C356.3525 280.3827 355.1992 281.6022 354 285 C352.5835 289.0135 352.529 290.5256 353 295 C353.4434 299.2126 353.9094 300.0279 356 304 C358.7042 309.1381 360.2694 312.8298 363 314 C366.2836 315.4072 370.9333 314.5826 377 313 C381.3836 311.8565 382.6965 311.1092 386 308 C390.4236 303.8366 392.4527 302.0289 394 297 C395.7242 291.3964 394.8502 289.085 394 282 C393.4128 277.1066 390.6986 272.1944 391 272 C394.5319 269.7214 407.9021 265.1941 425 262 C452.7946 256.8076 455.1673 258.6383 482 255 C482.9889 254.8659 484 254.0959 484 254 C484 253.7123 482 251 482 251 "/>
<path id="2" d="M442 162 C442 162 486.0147 156.9148 501 160 C504.1445 160.6474 507.2436 167.7307 510 176 C517.8824 199.6473 517.6571 201.0663 523 226 C525.0678 235.6496 526.5388 244.7042 525 246 C519.8053 250.3745 485 258 485 258 "/>
<path id="3" d="M446 157 C446 157 447.0892 186.5571 453 213 C456.2532 227.5536 460.4661 227.4916 465 242 C467.7601 250.8324 468 261 468 261 "/>
<path id="4" d="M470 192 C470 192 472.8183 194.8322 475 195 C483.7267 195.6713 489.9573 195.5107 496 194 C497.2085 193.6979 498.5355 191.3223 499 189 C499.8294 184.853 500.1915 180.6248 499 179 C497.4431 176.877 493.2621 175.0119 488 174 C481.4012 172.731 476.1282 171.9546 473 174 C468.3879 177.0156 464.8758 183.8104 462 191 C460.9787 193.5533 462.1561 198.3096 463 199 C464.2099 199.9899 473 200 473 200 "/>
<path id="5" d="M463 194 C463 194 469.8884 197.1666 476 198 C479.9992 198.5453 485 197 485 197 "/>
<path id="6" d="M481 200 C481 200 477.4412 206.2351 476 212 C475.1298 215.4807 475.7528 219.5675 476 220 C476.0397 220.0695 479.6073 219.6545 480 219 C481.1781 217.0365 482 210 482 210 "/>
<path id="7" d="M506 200 L521 205 "/>
</g>
</g>
</svg>
