<?xml version="1.0" encoding="utf-8"?>
<!DOCTYPE svg PUBLIC "-//W3C//DTD SVG 1.1//EN" "http://www.w3.org/Graphics/SVG/1.1/DTD/svg11.dtd">
<svg viewBox="0 0 800 800" preserveAspectRatio="xMinYMin meet" xmlns="http://www.w3.org/2000/svg" version="1.1">
<g fill="none" stroke="black" stroke-linecap="round" stroke-linejoin="round" stroke-width="1.9825">
<g transform="translate(87.52,257.7573) scale(1.5132) translate(-64,-142)">
<path id="0" d="M122 275 C122 275 113.3783 274.0037 110 276 C105.4143 278.7098 102.6 282.1501 100 288 C97.4879 293.6523 96.6149 298.1522 98 303 C99.5222 308.3278 102.668 312.161 108 316 C113.1227 319.6883 115.6882 319.8922 123 321 C131.3523 322.2655 132.9039 322.3494 141 321 C146.7722 320.038 147.8371 319.1961 153 316 C157.772 313.0459 160.7155 311.5965 162 308 C164.3317 301.4713 163.9262 296.3359 163 288 C162.6533 284.8799 161.5589 283.6808 159 281 C151.6135 273.2617 150.7776 272.0535 142 266 C137.0412 262.5801 135.7652 261.8735 130 261 C120.51 259.5621 116.5321 260.0585 109 261 C107.7895 261.1513 106 264 106 264 "/>
<path id="1" d="M167 297 C167 297 190.955 295.6641 214 297 C224.9007 297.6319 225.0899 300.1608 236 301 C250.6722 302.1286 251.0118 301.2457 266 301 C281.496 300.746 281.8574 301.6519 297 300 C308.9477 298.6966 309.0665 296.1365 321 295 C340.061 293.1847 360 294 360 294 "/>
<path id="2" d="M382 275 C382 275 374.6149 273.7856 370 275 C366.802 275.8416 364.5658 277.2599 363 280 C359.7193 285.7412 358.8094 288.3108 358 296 C356.9277 306.187 357.5807 308.065 359 318 C359.4121 320.8844 360.1168 322.5203 362 324 C365.6443 326.8634 367.636 327.9942 373 329 C382.5204 330.7851 385.5023 331.6995 394 330 C400.3733 328.7253 401.9529 326.4558 408 322 C410.8636 319.89 411.3223 319.1457 413 316 C415.052 312.1525 415.8412 311.1299 416 307 C416.2949 299.3326 416.0707 296.8037 414 290 C413.1155 287.0937 411.7659 285.9756 409 284 C405.4682 281.4773 404.4211 280.8842 400 280 C392.6917 278.5383 384 279 384 279 "/>
<path id="3" d="M416 297 L473 296 "/>
<path id="4" d="M477 295 C477 295 478.2 275.9431 476 264 C475.4282 260.8958 470.4268 259.902 470 257 C468.5461 247.1137 472.6124 232.0522 471 230 C469.8269 228.507 457.5347 231.0857 448 229 C443.7652 228.0736 443.6426 224.9344 439 223 C432.2716 220.1965 427.046 222.4811 424 219 C414.4841 208.1247 414.924 199.8825 404 183 C398.7743 174.924 395.5906 175.345 391 168 C388.9652 164.7444 390.8279 160.8279 389 159 C385.5103 155.5103 375 152 375 152 "/>
<path id="5" d="M375 152 C375 152 335.8703 153.1517 297 152 C268.5357 151.1566 268.3279 150.8906 240 148 C219.4665 145.9047 219.3892 143.7476 199 142 C184.7571 140.7792 183.8622 140.1379 170 142 C151.2579 144.5176 151.0556 148.2516 132 151 C99.577 155.6764 96.7323 153.8364 66 157 C65.0299 157.0999 63.9812 157.8459 64 158 C65.0154 166.3261 69.4531 178.0452 71 198 C74.4046 241.9197 70.2269 275.2904 74 287 C74.3933 288.2206 100 288 100 288 "/>
<path id="6" d="M122 189 L122 225 "/>
<path id="7" d="M123 187 C123 187 149.0431 185.1155 157 187 C158.4349 187.3399 160.4968 191.6726 161 196 C162.8137 211.5977 163.6013 228.4957 162 230 C160.3861 231.5161 128 227 128 227 "/>
<path id="8" d="M199 200 C199 200 197.34 217.0558 199 231 C199.6209 236.2157 201.1586 238.9401 204 242 C205.8942 244.0399 208.1583 244.6707 212 245 C224.5618 246.0767 226.0693 246.2315 239 245 C246.3662 244.2985 253.5836 242.499 254 241 C256.5493 231.8224 254.6995 209.1869 254 191 C253.9709 190.2445 252.5953 188.9524 252 189 C236.3153 190.2548 204 195 204 195 "/>
<path id="9" d="M285 193 C285 193 282.2789 229.8726 285 232 C290.1874 236.0556 334.8494 237.7793 340 236 C340.7632 235.7363 341.1326 224.043 340 213 C339.1919 205.1209 337.5966 197.5109 336 197 C327.9472 194.4231 290 197 290 197 "/>
<path id="10" d="M361 196 L361 233 "/>
<path id="11" d="M367 199 C367 199 385.9495 211.2995 397 223 C400.3316 226.5275 401.187 234.8597 401 235 C400.2519 235.5611 390.5612 235.9253 381 235 C375.6025 234.4777 373.3992 231.7875 370 232 C368.3495 232.1032 365 236 365 236 "/>
</g>
</g>
</svg>
