<?xml version="1.0" encoding="utf-8"?>
<!DOCTYPE svg PUBLIC "-//W3C//DTD SVG 1.1//EN" "http://www.w3.org/Graphics/SVG/1.1/DTD/svg11.dtd">
<svg viewBox="0 0 800 800" preserveAspectRatio="xMinYMin meet" xmlns="http://www.w3.org/2000/svg" version="1.1">
<g fill="none" stroke="black" stroke-linecap="round" stroke-linejoin="round" stroke-width="1.0417">
<g transform="translate(87.52,256) scale(2.88) translate(-150,-276)">
<path id="0" d="M152 320 L150 364 "/>
<path id="1" d="M152 364 L174 365 "/>
<path id="2" d="M178 372 C178 372 176.0058 372.0376 176 372 C175.7558 370.4126 174.6158 363.6141 176 359 C176.937 355.8766 179.2315 353.1657 182 352 C186.1528 350.2515 192.2859 349.5783 195 351 C198.1078 352.6279 202.296 358.776 203 363 C203.5984 366.5904 200.9424 373.7976 199 375 C196.0055 376.8537 188.5117 376.6202 182 376 C180.3492 375.8428 178 373 178 373 "/>
<path id="3" d="M203 367 L247 366 "/>
<path id="4" d="M249 374 C249 374 246.1226 365.0452 247 360 C247.6455 356.2884 250.6947 351.9706 253 351 C255.9622 349.7528 264.3426 350.5498 266 352 C267.7171 353.5024 269.431 360.0433 269 365 C268.6469 369.0601 266.3483 373.3855 264 375 C261.6888 376.589 256.6516 376.2809 253 376 C252.28 375.9446 251 374 251 374 "/>
<path id="5" d="M152 322 C152 322 152.306 318.3222 153 318 C160.573 314.484 170.9338 315.7514 180 309 C190.5887 301.1148 200 283 200 283 "/>
<path id="6" d="M200 284 L342 282 "/>
<path id="7" d="M343 282 C343 282 341.7719 284.7529 342 285 C344.4164 287.6177 349.6059 289.6059 355 295 C358.0489 298.0489 358.84 298.9399 360 303 C363.4977 315.2419 363.4505 316.4972 365 330 C366.9235 346.7621 367 364 367 364 "/>
<path id="8" d="M270 364 L367 364 "/>
<path id="9" d="M169 362 C169 362 171.3528 352.9498 175 348 C177.1571 345.0726 179.2959 343.8052 183 343 C189.1144 341.6708 195.2755 342.3189 198 343 C198.3633 343.0908 198.0539 346.0539 199 347 C201.8382 349.8382 205.6466 350.176 208 353 C209.1912 354.4295 209 359 209 359 "/>
<path id="10" d="M240 357 C240 357 239.9289 353.6831 241 352 C242.8658 349.0681 243.8388 347.5806 247 346 C252.6199 343.19 254.5595 342.4954 261 342 C266.3325 341.5898 270.4102 342.0196 273 344 C275.5673 345.9632 278 355 278 355 "/>
<path id="11" d="M207 295 C207 295 208.9307 296.7532 209 298 C209.3327 303.9891 208 313 208 313 "/>
<path id="12" d="M208 297 C208 297 235.4813 295.4325 239 296 C239.1104 296.0178 239.3425 299.0885 239 302 C238.3586 307.4519 237.6952 312.7683 237 313 C234.4235 313.8588 224.3664 309.6979 215 310 C211.0962 310.1259 206 314 206 314 "/>
<path id="13" d="M269 299 C269 299 268.044 307.4149 269 311 C269.324 312.2149 271.2022 313.6148 273 314 C276.8722 314.8298 278.0344 314.2921 283 314 C294.9758 313.2955 304.1375 313.9465 307 312 C308.2642 311.1403 308.3912 297.1369 308 297 C304.2582 295.6904 267 298 267 298 "/>
<path id="14" d="M212 284 C212 284 214.1122 277.0798 215 277 C236.0601 275.107 284.7294 275.4389 301 276 C301.2154 276.0074 302 280 302 280 "/>
</g>
</g>
</svg>
