<?xml version="1.0" encoding="utf-8"?>
<!DOCTYPE svg PUBLIC "-//W3C//DTD SVG 1.1//EN" "http://www.w3.org/Graphics/SVG/1.1/DTD/svg11.dtd">
<svg viewBox="0 0 800 800" preserveAspectRatio="xMinYMin meet" xmlns="http://www.w3.org/2000/svg" version="1.1">
<g fill="none" stroke="black" stroke-linecap="round" stroke-linejoin="round" stroke-width="1.4353">
<g transform="translate(87.52,225.471) scale(2.0902) translate(-179,-184.4167)">
<path id="0" d="M417 298.4167 C417 298.4167 412.6452 293.5189 410 292.4167 C408.7238 291.8849 405.7344 292.3763 405 293.4167 C397.4752 304.0768 390.3131 315.9035 386 326.4167 C385.4958 327.6457 387.0147 330.7817 389 332.4167 C394.1471 336.6554 396.4556 338.2352 403 340.4167 C406.9266 341.7255 408.853 341.2461 413 340.4167 C415.3223 339.9522 416.6065 339.3079 418 337.4167 C422.7183 331.0133 426.239 327.3141 427 321.4167 C427.6365 316.4836 425.0739 312.257 422 306.4167 C420.8439 304.22 417 302.4167 417 302.4167 "/>
<path id="1" d="M248 308.4167 C248 308.4167 244.193 304.7541 242 304.4167 C239.7815 304.0754 236.1726 304.7554 235 306.4167 C227.5666 316.9473 221.6539 328.7599 218 338.4167 C217.6326 339.3878 219.1053 341.8773 221 343.4167 C226.2313 347.6671 227.9563 349.9946 234 351.4167 C242.528 353.4233 246.0211 352.6994 255 351.4167 C258.2373 350.9542 259.3613 349.8355 262 347.4167 C264.8242 344.8278 265.7784 343.9071 267 340.4167 C268.9127 334.9517 269.2686 333.0571 269 327.4167 C268.8305 323.8576 267.8506 323.1179 266 319.4167 C264.4416 316.2998 264.3174 315.3478 262 313.4167 C259.0819 310.9849 254 309.4167 254 309.4167 "/>
<path id="2" d="M383 314.4167 C383 314.4167 381.5817 311.4167 381 311.4167 C355.9879 311.4167 335.3004 310.8255 295 314.4167 C287.7429 315.0633 280 320.4167 280 320.4167 "/>
<path id="3" d="M433 309.4167 C433 309.4167 476.5408 310.0223 478 307.4167 C481.826 300.5845 476.8654 254.4033 475 234.4167 C474.9396 233.7694 472.8386 232.5188 471 232.4167 C456.6888 231.6216 452.844 234.105 439 232.4167 C434.8426 231.9097 433.5117 230.6714 430 227.4167 C413.88 212.4762 414.0095 209.6051 398 194.4167 C395.2702 191.8268 394.6353 191.8708 391 190.4167 C382.3768 186.9674 381.7746 185.7666 373 184.4167 C363.2624 182.9186 362.0384 182.8723 352 184.4167 C323.8705 188.7443 323.5962 192.4659 295 196.4167 C248.0805 202.899 246.5682 199.8627 200 205.4167 C192.9828 206.2536 189.8554 206.5758 186 209.4167 C183.1863 211.4899 182.4007 214.4142 181 219.4167 C179.0882 226.2445 178.2456 227.4009 179 234.4167 C183.0457 272.0415 184.8403 280.8483 191 312.4167 C191.3665 314.2951 192.8817 315.4752 195 316.4167 C200.7847 318.9877 202.6366 320.2114 209 320.4167 C216.6128 320.6622 226 317.4167 226 317.4167 "/>
<path id="4" d="M350 211.4167 C350 211.4167 351.8454 238.8431 355 241.4167 C358.6194 244.3693 372.6422 243.6965 388 242.4167 C395.1929 241.8173 401.4413 239.4208 403 237.4167 C404.1431 235.947 403.4124 230.0662 402 224.4167 C401.1472 221.0056 399.9961 218.1296 398 217.4167 C385.453 212.9356 377.5846 211.1075 360 209.4167 C353.7809 208.8187 346 212.4167 346 212.4167 "/>
<path id="5" d="M343 214.4167 C343 214.4167 341.0754 217.055 341 219.4167 C339.6748 260.9401 340 308.4167 340 308.4167 "/>
<path id="6" d="M261 228.4167 C261 228.4167 262.9973 227.3789 263 227.4167 C263.269 231.1378 267 311.4167 267 311.4167 "/>
<path id="7" d="M291 266.4167 C291 266.4167 278.0476 267.3691 278 267.4167 C277.9932 267.4235 284.3071 272.1568 285 272.4167 C285.0195 272.424 286 270.4167 286 270.4167 "/>
<path id="8" d="M404 210.4167 C404 210.4167 405.9467 209.3518 406 209.4167 C409.8312 214.0807 420.1101 225.6212 427 238.4167 C428.7093 241.5911 427.8644 243.7241 427 248.4167 C424.4681 262.161 422.2948 262.648 420 276.4167 C418.8985 283.0256 420 290.4167 420 290.4167 "/>
<path id="9" d="M469 259.4167 C469 259.4167 468.5966 253.8641 468 253.4167 C467.2407 252.8472 462.5303 252.7365 461 253.4167 C460.1741 253.7837 458.8354 257.2384 459 257.4167 C460.6752 259.2315 472.8652 266.4054 473 266.4167 C473.0244 266.4187 471 258.4167 471 258.4167 "/>
<path id="10" d="M342 214.4167 C342 214.4167 342.7985 210.2651 342 209.4167 C337.6785 204.8251 333.5289 200.2131 326 197.4167 C318.8706 194.7686 315.9361 195.3225 307 196.4167 C292.3931 198.2053 287.9352 198.8603 277 203.4167 C273.8994 204.7086 272.5767 207.3172 271 211.4167 C268.0113 219.1873 267 229.4167 267 229.4167 "/>
</g>
</g>
</svg>
