<?xml version="1.0" encoding="utf-8"?>
<!DOCTYPE svg PUBLIC "-//W3C//DTD SVG 1.1//EN" "http://www.w3.org/Graphics/SVG/1.1/DTD/svg11.dtd">
<svg viewBox="0 0 800 800" preserveAspectRatio="xMinYMin meet" xmlns="http://www.w3.org/2000/svg" version="1.1">
<g fill="none" stroke="black" stroke-linecap="round" stroke-linejoin="round" stroke-width="1.3057">
<g transform="translate(87.52,177.1282) scale(2.2976) translate(-235,-156.1333)">
<path id="0" d="M286 264.1333 C286 264.1333 290.8038 262.0025 291 262.1333 C291.2675 262.3117 292.192 267.7493 292 268.1333 C291.9302 268.273 288.2778 268.4667 288 268.1333 C287.4304 267.4499 286.9466 262.2046 287 262.1333 C287.0102 262.1198 290.5167 263.2875 291 264.1333 C291.5639 265.1201 291.2956 268.9222 291 269.1333 C290.4206 269.5472 284.5794 269.5472 284 269.1333 C283.7044 268.9222 283.5669 264.9996 284 264.1333 C284.2166 263.7002 287 263.1333 287 263.1333 "/>
<path id="1" d="M288 265.1333 C288 265.1333 283.444 266.1109 281 265.1333 C277.369 263.6809 274.1644 261.8503 273 259.1333 C271.0946 254.6874 271.2819 248.4422 272 244.1333 C272.1775 243.0682 273.9494 241.6696 276 241.1333 C303.7127 233.8854 306.8347 234.8586 337 227.1333 C347.6456 224.407 348.2364 224.3642 358 220.1333 C362.7125 218.0912 362.4594 215.5523 367 214.1333 C377.125 210.9693 379.1173 213.014 390 210.1333 C395.5744 208.6578 395.3752 206.6567 401 205.1333 C418.8324 200.3037 420.6377 199.9598 438 197.1333 C440.646 196.7026 444 198.1333 444 198.1333 "/>
<path id="2" d="M299 265.1333 C299 265.1333 298.9878 267.1327 299 267.1333 C304.1128 267.3827 322.9767 270.6461 340 267.1333 C350.2482 265.0186 351.8664 255.6303 362 254.1333 C389.96 250.0029 403.0925 256.7901 428 254.1333 C431.7185 253.7367 433.8111 250.1919 437 246.1333 C438.602 244.0944 437.3856 241.371 439 240.1333 C449.0367 232.4385 456.075 231.6685 467 223.1333 C469.7126 221.0141 468.2301 217.8138 471 215.1333 C482.3914 204.1094 488.9303 203.1413 498 193.1333 C500.3056 190.5893 500 185.1277 500 183.1333 C500 182.9339 498 182.1333 498 182.1333 "/>
<path id="3" d="M426 199.1333 C426 199.1333 442.4018 201.309 456 199.1333 C465.6457 197.59 465.9038 194.018 476 191.1333 C486.4845 188.1377 487.8789 190.0717 498 187.1333 C502.5672 185.8074 507 182.1333 507 182.1333 "/>
<path id="4" d="M373 211.1333 C373 211.1333 375.9821 208.0136 379 207.1333 C386.9484 204.815 389.2536 206.6122 397 204.1333 C400.5137 203.009 400.4328 200.048 404 199.1333 C436.237 190.8674 442.4 192.6908 475 184.1333 C479.6004 182.9257 484.0005 178.1319 484 178.1333 C483.9989 178.1362 478.6359 186.3822 472 192.1333 C464.1909 198.9012 461.9367 199.8042 454 204.1333 C452.7066 204.8388 450 204.1333 450 204.1333 "/>
<path id="5" d="M380 210.1333 C380 210.1333 383.485 203.8903 385 198.1333 C385.7964 195.107 383.9307 192.9156 385 191.1333 C387.047 187.7216 390.6019 187.6641 394 183.1333 C402.1209 172.3055 408.9808 159.1001 409 159.1333 C409.0625 159.2417 409 209.1333 409 209.1333 "/>
<path id="6" d="M414 200.1333 C414 200.1333 413.3203 189.9937 416 182.1333 C420.365 169.3292 428.9544 156.1594 429 156.1333 C429.0152 156.1247 428.2471 165.8696 430 174.1333 C431.5663 181.5171 434.2657 181.907 436 189.1333 C437.0549 193.5289 435.126 194.4718 436 199.1333 C438.0212 209.913 440.611 210.1953 442 221.1333 C444.5174 240.9575 441.0338 242.4488 444 262.1333 C446.3956 278.0311 453 294.1333 453 294.1333 "/>
<path id="7" d="M433 254.1333 L436 289.1333 "/>
<path id="8" d="M436 263.1333 L437 291.1333 "/>
<path id="9" d="M361 239.1333 C361 239.1333 363.4107 239.9547 364 241.1333 C369.3037 251.7408 368.6465 255.4295 375 267.1333 C377.6515 272.0178 380.559 271.4548 383 276.1333 C385.9807 281.8463 383.9104 284.3956 387 290.1333 C390.325 296.3083 393.7944 297.0043 397 302.1333 C397.7026 303.2575 396.4572 305.7262 397 306.1333 C403.2421 310.8149 409.4973 315.3405 421 320.1333 C425.7874 322.1281 433 321.1333 433 321.1333 "/>
<path id="10" d="M355 259.1333 L355 312.1333 "/>
<path id="11" d="M288 267.1333 C288 267.1333 288.9533 273.7151 287 277.1333 C280.3746 288.7277 276.2932 289.1012 268 302.1333 C259.0157 316.2515 261.2345 318.7013 252 332.1333 C245.3134 341.8592 235 350.1333 235 350.1333 "/>
<path id="12" d="M263 286.1333 L289 268.1333 "/>
<path id="13" d="M295 268.1333 L295 304.1333 "/>
<path id="14" d="M298 280.1333 C298 280.1333 291.0214 283.0797 291 283.1333 C291 283.1333 296.0011 285.1308 296 285.1333 C295.936 285.2826 287.9936 290.1259 288 290.1333 C288.0479 290.1893 301.9951 292.1294 302 292.1333 C302.0023 292.1352 293.0522 294.111 293 294.1333 C292.9917 294.1369 295 295.1333 295 295.1333 C294.8247 295.484 289.9852 300.0445 290 300.1333 C290.0071 300.176 295.9053 301.0623 296 301.1333 C296.007 301.1386 294 303.1333 294 303.1333 "/>
<path id="15" d="M281 272.1333 C281 272.1333 281.0052 278.1365 281 278.1333 C280.9849 278.1242 276.0006 269.133 276 269.1333 C275.9895 269.1396 276.002 281.1262 276 281.1333 C275.9993 281.1359 274.0024 276.1286 274 276.1333 C273.9932 276.147 273.0023 287.1328 273 287.1333 C272.9997 287.1334 270.0014 277.133 270 277.1333 C269.994 277.1345 268.0042 288.1234 268 288.1333 C267.9987 288.1363 267 284.1333 267 284.1333 C266.9571 284.1441 264.0024 289.1348 264 289.1333 C263.7831 288.9978 259.0543 279.1877 259 279.1333 C258.9891 279.1225 258 283.1333 258 283.1333 "/>
<path id="16" d="M261 289.1333 L271 278.1333 "/>
<path id="17" d="M294 236.1333 C294 236.1333 288.7376 235.0061 286 236.1333 C281.9338 237.8076 280.1985 239.2495 277 243.1333 C273.8668 246.9379 272.989 248.386 272 253.1333 C270.746 259.1526 271.5377 265.5154 272 267.1333 C272.0377 267.2654 276 267.1333 276 267.1333 "/>
<path id="18" d="M370 220.1333 L372 249.1333 "/>
<path id="19" d="M381 216.1333 C381 216.1333 388.0816 222.1972 389 227.1333 C391.3532 239.7816 388.9923 259.021 389 259.1333 C389.0007 259.1434 391 256.1333 391 256.1333 "/>
<path id="20" d="M407 215.1333 C407 215.1333 416.6094 225.0922 419 233.1333 C421.073 240.1063 418 252.1333 418 252.1333 "/>
<path id="21" d="M429 212.1333 C429 212.1333 436.5916 219.1866 438 225.1333 C440.327 234.9584 438 250.1333 438 250.1333 "/>
<path id="22" d="M447 200.1333 C447 200.1333 456.691 207.3607 459 213.1333 C461.2053 218.6465 459 230.1333 459 230.1333 "/>
<path id="23" d="M453 293.1333 L474 299.1333 "/>
<path id="24" d="M437 288.1333 C437 288.1333 436.0378 294.7655 437 298.1333 C437.4949 299.8654 439.0471 301.2457 441 302.1333 C443.5021 303.2707 448 303.1333 448 303.1333 "/>
</g>
</g>
</svg>
