<?xml version="1.0" encoding="utf-8"?>
<!DOCTYPE svg PUBLIC "-//W3C//DTD SVG 1.1//EN" "http://www.w3.org/Graphics/SVG/1.1/DTD/svg11.dtd">
<svg viewBox="0 0 800 800" preserveAspectRatio="xMinYMin meet" xmlns="http://www.w3.org/2000/svg" version="1.1">
<g fill="none" stroke="black" stroke-linecap="round" stroke-linejoin="round" stroke-width="1.5793">
<g transform="translate(87.52,226.1889) scale(1.8996) translate(-80,-179)">
<path id="0" d="M285 241 L285 241 "/>
<path id="1" d="M285 203 C285 203 285.7703 196.6722 288 195 C298.1573 187.382 303.3903 183.3551 317 179 C325.3765 176.3195 328.0938 177.6966 338 179 C346.3296 180.096 347.0978 180.6862 355 184 C362.1814 187.0116 362.92 187.2711 369 192 C375.9485 197.4044 376.6333 197.9021 382 205 C391.7816 217.9369 394.2429 218.7138 400 233 C406.9612 250.274 407.0085 252.7485 409 272 C411.394 295.1417 413.5614 300.7407 409 320 C405.9341 332.9451 400.7247 335.2573 391 348 C386.714 353.6161 385.7263 354.356 380 358 C375.5329 360.8427 374.2663 361.6902 369 362 C342.2825 363.5716 337.3244 364.4968 312 362 C305.4733 361.3565 304.2186 359.2753 298 355 C288.6411 348.5658 287.7482 348.0462 280 340 C275.2783 335.0967 274.6351 334.2583 272 328 C266.9645 316.0407 265.0264 314.4879 264 302 C262.1967 280.0596 263.3863 276.283 266 255 C266.5872 250.2186 267.8315 249.2246 271 245 C276.4728 237.7029 276.8255 236.6641 284 231 C295.2249 222.1382 297.2584 217.9792 309 215 C326.0727 210.6681 332.4254 213.2261 351 214 C353.7115 214.113 354.8449 214.9647 357 217 C363.1535 222.8116 364.9199 223.4676 369 231 C377.2762 246.2792 378.5862 248.1236 383 265 C386.7251 279.2429 385.0534 280.5385 386 296 C386.5464 304.9247 386.9938 306.0493 386 314 C385.648 316.8159 385.0225 317.7396 383 320 C377.0551 326.6443 376.5945 328.1178 369 333 C356.4315 341.0798 354.2455 342.9687 341 347 C333.6096 349.2492 329.6078 349.2026 323 347 C316.1475 344.7158 313.4497 342.2881 308 336 C301.521 328.5242 301.2593 326.7964 297 317 C291.4637 304.2665 290.0745 302.9658 288 290 C286.334 279.5873 286.8063 277.1459 289 267 C290.4659 260.2203 291.8011 259.0359 296 253 C299.3959 248.1184 300.2347 247.9243 305 244 C308.5184 241.1025 309.6545 239.1338 313 239 C330.0867 238.3165 343.3184 238.0283 355 242 C358.4648 243.178 362.0013 249.5086 363 256 C365.4917 272.1957 366.7243 279.8475 363 294 C360.751 302.5464 355.1115 306.2118 348 313 C346.088 314.8251 344.4204 314.7369 341 315 C331.9158 315.6988 328.1731 317.4318 322 315 C315.7875 312.5527 312.9841 308.8203 308 302 C304.427 297.1106 304.1637 295.4003 303 289 C301.3115 279.7133 300.7127 277.7536 302 269 C302.965 262.4381 304.18 260.6026 308 255 C310.9849 250.6221 312.9844 248.5297 317 247 C320.9997 245.4763 323.523 245.9046 329 247 C337.7632 248.7526 339.2938 249.4972 347 253 C349.1631 253.9832 349.9127 254.8255 351 257 C353.99 262.98 354.8663 264.1981 356 271 C357.2228 278.3369 357.6235 281.6657 356 287 C355.0736 290.044 352.3887 291.7409 349 294 C347.3541 295.0973 346.0968 295.3647 344 295 C335.8018 293.5742 333.4208 293.2264 326 290 C323.3611 288.8527 322.6446 287.6725 321 285 C318.9951 281.7421 318.3 280.7497 318 277 C317.384 269.3004 316.6785 265.6983 319 260 C320.877 255.3929 329 250 329 250 "/>
<path id="2" d="M292 190 C292 190 277.8525 207.0298 262 220 C251.1675 228.863 246.2624 226.2126 237 235 C228.7667 242.811 226.8282 246.5362 223 257 C220.2665 264.4715 220.2841 268.2785 222 276 C223.7362 283.8128 225.7493 285.5385 231 293 C234.8338 298.4481 236.6155 301.4341 241 303 C246.8152 305.0769 251.8431 303.9759 259 303 C260.7531 302.7609 263 300 263 300 "/>
<path id="3" d="M226 247 C226 247 214.3569 249.9264 205 248 C182.4613 243.3597 180.8096 241.511 158 233 C147.7085 229.1599 146.298 229.1642 138 223 C129.8663 216.9578 130.9031 213.6872 123 207 C118.5479 203.2328 112 201 112 201 "/>
<path id="4" d="M113 201 C113 201 107.092 201.0294 106 202 C104.8619 203.0117 103.6324 208.7141 104 209 C108.2573 212.3112 125.1015 217.4711 133 223 C134.2011 223.8407 134.6242 229.0191 134 230 C133.1083 231.4013 129.7719 233.4412 126 234 C117.6595 235.2356 116.0334 235.1886 107 234 C97.6538 232.7702 89.32 229 88 229 C88 229 87.2389 232.9535 88 234 C89.7989 236.4735 92.1046 238.8014 96 240 C103.3648 242.2661 107.0683 240.3496 114 242 C115.3935 242.3318 116.6469 243.7054 117 245 C117.7398 247.7125 117.2172 252.9503 117 253 C112.8422 253.9503 94.7125 252.3128 82 253 C81.2343 253.0414 80.0649 254.286 80 255 C79.735 257.9155 79.5618 260.9182 81 264 C82.3369 266.8648 83.8373 268.5504 87 270 C94.3344 273.3616 99.4281 275.8706 105 275 C110.0359 274.2131 112.3754 267.2082 119 265 C126.389 262.537 129.7883 262.4873 138 264 C146.9352 265.646 148.1875 267.1041 157 272 C170.3232 279.4018 170.0336 283.2065 183 289 C191.7948 292.9296 194.4284 289.5027 204 293 C219.5457 298.6802 220.0075 303.2024 235 308 C243.0909 310.5891 247.0997 310.104 254 309 C256.4905 308.6015 260 304 260 304 "/>
</g>
</g>
</svg>
