<?xml version="1.0" encoding="utf-8"?>
<!DOCTYPE svg PUBLIC "-//W3C//DTD SVG 1.1//EN" "http://www.w3.org/Graphics/SVG/1.1/DTD/svg11.dtd">
<svg viewBox="0 0 800 800" preserveAspectRatio="xMinYMin meet" xmlns="http://www.w3.org/2000/svg" version="1.1">
<g fill="none" stroke="black" stroke-linecap="round" stroke-linejoin="round" stroke-width="1.6945">
<g transform="translate(87.52,164.5335) scale(1.7704) translate(-103,-111.9333)">
<path id="0" d="M143 284.9333 C143 284.9333 153.9204 284.8148 163 286.9333 C167.9538 288.0892 168.5117 288.8557 173 291.9333 C185.7105 300.6491 186.5309 300.567 198 310.9333 C212.2253 323.7908 210.4817 326.6835 225 338.9333 C241.9022 353.1945 243.0346 355.5771 262 364.9333 C278.5294 373.0878 281.2375 373.7159 300 375.9333 C334.4869 380.0091 341.8345 382.9609 372 377.9333 C388.5559 375.174 392.2301 369.6336 408 357.9333 C422.0488 347.51 423.6388 345.909 434 331.9333 C444.2074 318.1653 443.8154 316.0132 451 299.9333 C454.046 293.116 454.0922 292.3774 455 284.9333 C456.5311 272.3781 455.7293 271.9285 456 258.9333 C456.2289 247.9462 458.5178 246.627 456 236.9333 C449.1109 210.4101 448.3809 206.0761 436 181.9333 C429.6904 169.6296 426.5997 169.2213 416 158.9333 C410.063 153.1709 409.3847 153.0732 402 148.9333 C376.7129 134.7572 376.3177 134.1053 350 121.9333 C336.6856 115.7754 335.3089 113.5225 322 111.9333 C304.3297 109.8234 302.2452 112.3623 283 113.9333 C278.0057 114.341 276.3661 113.5699 273 115.9333 C255.6548 128.1119 253.5149 130.878 236 146.9333 C229.8642 152.5578 229.3816 153.2149 225 159.9333 C222.2615 164.1323 222.4137 167.9138 221 169.9333 C220.7681 170.2647 218.2377 169.5636 218 169.9333 C213.3609 177.1496 209.4767 183.9005 203 197.9333 C200.7032 202.9097 200.3161 203.5589 200 208.9333 C198.8685 228.1683 197.7335 229.7944 200 248.9333 C202.1002 266.6683 202.0665 269.3331 209 284.9333 C215.1438 298.7569 217.4629 300.0453 228 311.9333 C236.3466 321.3501 238.2944 322.3474 248 328.9333 C250.8798 330.8875 252.7087 329.2011 256 330.9333 C261.5301 333.8439 261.2305 336.6962 267 338.9333 C284.2918 345.6383 286.1109 346.4748 305 349.9333 C320.7509 352.8173 324.0833 354.3328 338 351.9333 C349.536 349.9444 351.5715 346.8506 363 339.9333 C369.9633 335.7187 371.0343 335.2135 376 328.9333 C387.3424 314.5886 388.0539 313.228 397 296.9333 C401.6947 288.3823 403.084 287.0938 404 277.9333 C406.3715 254.2185 406.53 250.9683 404 226.9333 C402.718 214.7546 401.505 212.6812 396 201.9333 C391.7132 193.5638 390.4657 190.4128 383 185.9333 C359.0172 171.5436 352.038 168.9743 326 159.9333 C320.2217 157.927 317.3242 158.8253 311 160.9333 C300.8263 164.3246 297.1689 164.9482 290 171.9333 C279.9855 181.6911 279.0128 185.1998 272 198.9333 C267.5309 207.6853 267.0282 209.2679 266 218.9333 C264.6601 231.5283 264.1551 233.7411 267 245.9333 C270.7641 262.0653 271.9568 264.2832 280 278.9333 C285.2574 288.5093 287.2617 289.1951 295 296.9333 C297.5794 299.5128 298.3972 299.8416 302 300.9333 C314.2045 304.6317 315.5718 305.1579 328 306.9333 C332.0987 307.5189 333.4261 307.5059 337 305.9333 C344.7233 302.5351 347.4449 302.0092 353 295.9333 C361.9384 286.1569 362.2756 283.2614 369 270.9333 C370.8125 267.6104 370.6853 266.8672 371 262.9333 C371.6557 254.7377 372.1457 253.6665 371 245.9333 C370.2861 241.1148 369.8701 239.4788 367 235.9333 C362.3335 230.1688 360.6997 228.9532 354 224.9333 C349.0778 221.98 347.8479 221.9966 342 220.9333 C337.4052 220.0979 335.9631 219.8325 332 220.9333 C328.2791 221.9669 326.4492 223.076 324 225.9333 C321.4328 228.9284 320.7859 230.5323 320 234.9333 C318.4484 243.6221 317.7059 245.9102 319 253.9333 C319.8908 259.4561 321.9144 262.3334 325 265.9333 C326.2857 267.4333 328.1952 267.7775 331 267.9333 C336.4822 268.2379 338.1612 268.4614 343 266.9333 C346.3706 265.8689 348.9908 263.6153 350 261.9333 C350.4827 261.1289 349.3787 257.028 349 256.9333 C345.802 256.1338 330 256.9333 330 256.9333 "/>
<path id="1" d="M149 283.9333 C149 283.9333 150.0608 279.4163 152 277.9333 C156.9458 274.1513 158.9467 272.6313 166 270.9333 C184.6366 266.4468 206 264.9333 206 264.9333 "/>
<path id="2" d="M191 307.9333 C191 307.9333 191.2877 303.5182 190 301.9333 C186.2669 297.3387 184.3378 295.4089 178 291.9333 C169.7212 287.3933 168.3193 286.4548 159 284.9333 C145.0447 282.6549 143.1669 283.225 129 283.9333 C124.1988 284.1734 123.4245 284.8512 119 286.9333 C115.3737 288.6398 114.4967 288.9685 112 291.9333 C107.0549 297.8056 103.8934 299.807 103 305.9333 C101.0333 319.4196 101.1076 327.2182 105 339.9333 C107.1344 346.9057 111.64 351.2405 118 354.9333 C123.7835 358.2915 128.8311 355.8851 136 357.9333 C137.4664 358.3523 137.7181 360.7282 139 360.9333 C147.1629 362.2394 152.4551 364.5129 161 361.9333 C175.2291 357.6377 177.0346 348.9381 192 344.9333 C209.0643 340.3668 232 342.9333 232 342.9333 "/>
<path id="3" d="M129 303.9333 C129 303.9333 122.9308 304.6302 122 305.9333 C120.1194 308.5662 118.4949 315.0709 119 317.9333 C119.2668 319.4453 122.326 322.2296 125 322.9333 C129.7517 324.1838 134.0847 323.9122 138 322.9333 C139.2047 322.6322 140.6861 320.7123 141 318.9333 C141.9011 313.8273 142.2504 310.685 141 305.9333 C140.2963 303.2593 138.0953 301.3302 136 299.9333 C135.0688 299.3125 132.4364 300.4242 132 299.9333 C130.4591 298.1999 130.3025 292.9069 128 290.9333 C125.529 288.8153 118.9923 287.2718 118 287.9333 C115.7674 289.4217 112.3474 295.8911 110 302.9333 C108.8042 306.5209 109.5634 311.6423 110 311.9333 C110.8246 312.4831 122 310.9333 122 310.9333 "/>
<path id="4" d="M121 299.9333 L118 301.9333 "/>
<path id="5" d="M128 312.9333 L130 310.9333 "/>
<path id="6" d="M138 355.9333 C138 355.9333 139.7463 353.1684 141 352.9333 C145.5748 352.0756 154 352.9333 154 352.9333 "/>
<path id="7" d="M136 280.1333 C136 280.1333 137.8502 273.7369 141 269.1333 C143.9429 264.8322 149 261.1333 149 261.1333 "/>
<path id="8" d="M123 283.1333 L121 275.1333 "/>
</g>
</g>
</svg>
