<?xml version="1.0" encoding="utf-8"?>
<!DOCTYPE svg PUBLIC "-//W3C//DTD SVG 1.1//EN" "http://www.w3.org/Graphics/SVG/1.1/DTD/svg11.dtd">
<svg viewBox="0 0 800 800" preserveAspectRatio="xMinYMin meet" xmlns="http://www.w3.org/2000/svg" version="1.1">
<g fill="none" stroke="black" stroke-linecap="round" stroke-linejoin="round" stroke-width="0.89286">
<g transform="translate(121.12,87.52) scale(3.36) translate(-152,-152)">
<path id="0" d="M162 307 C162 307 185.1886 312.3552 208 315 C219.1803 316.2963 222.3704 317.8765 231 315 C241.1304 311.6232 245.7126 307.5677 253 300 C256.1924 296.6848 254.3041 293.1221 257 288 C258.9414 284.3113 262.063 284.1234 263 281 C264.3842 276.3859 262.7558 269.5874 263 268 C263.0058 267.9624 264.9964 268.0315 265 268 C265.5551 263.1431 265.9163 242.753 267 233 C267.0376 232.6616 268.9689 232.3111 269 232 C269.4925 227.075 269.9961 221.6325 269 213 C268.6149 209.6623 266 206 266 206 "/>
<path id="1" d="M264 205 C264 205 268.9619 194.7755 275 189 C279.072 185.1051 281.617 183.5819 287 183 C297.5475 181.8597 301.5236 183.1937 312 185 C313.8672 185.3219 315.298 186.4789 316 188 C317.5824 191.4285 318.9841 194.8017 318 198 C315.9995 204.5015 308 214 308 214 "/>
<path id="2" d="M312 209 L317 210 "/>
<path id="3" d="M318 211 C318 211 315.3103 216.0977 315 221 C312.8952 254.2564 316.7755 257.3931 313 290 C311.5253 302.7364 309.8042 304.6819 304 316 C300.466 322.8913 298.8465 326.0088 293 329 C280.8756 335.2032 276.6909 336.3386 261 338 C235.7634 340.6721 224.8739 339.2053 208 338 C206.9539 337.9253 206.6578 334.7598 205 334 C196.6967 330.1943 193.6907 331.659 184 327 C168.2287 319.4176 164.4535 316.5164 153 309 C152.2058 308.4788 151.9862 306.0034 152 306 C152.7151 305.8212 165 306 165 306 "/>
<path id="4" d="M279 201 C279 201 286.9884 206.0116 287 206 C287.0271 205.9729 285.5396 198.4193 284 196 C283.5417 195.2797 280.6764 194.8647 280 195 C279.7508 195.0498 278.9912 196.9941 279 197 C279.1058 197.0705 283 197 283 197 "/>
<path id="5" d="M302 195 C302 195 306.9958 198.0097 307 198 C307.0443 197.8966 305.571 188.3633 305 188 C304.5159 187.6919 296.0633 190.905 296 191 C295.9977 191.0035 301 194 301 194 "/>
<path id="6" d="M282 198 L280 200 "/>
<path id="7" d="M287 214 C287 214 294.31 214.8984 300 214 C302.8335 213.5526 304.9262 212.6106 306 211 C307.5851 208.6224 308 202 308 202 "/>
<path id="8" d="M267 194 C267 194 247 168 247 168 C247 168 252.7909 174.0295 255 179 C256.0624 181.3904 254.5664 185.6206 255 186 C255.5664 186.4956 260.7822 184.9764 263 186 C265.1538 186.9941 265.8736 190.7241 268 192 C269.2363 192.7418 273 192 273 192 "/>
<path id="9" d="M248 165 C248 165 245.8394 167 245 167 C243.8808 167 241.5639 165.8458 241 165 C240.5167 164.275 240.8144 161.0825 241 161 C241.9394 160.5825 248.2119 160.4636 250 161 C250.3775 161.1132 251.1788 163.553 251 164 C250.7799 164.5502 248 166 248 166 "/>
<path id="10" d="M289 181 C289 181 286.5411 179.5557 286 178 C283.0908 169.6361 281 158 281 158 "/>
<path id="11" d="M280 158 C280 158 274.0026 158.0157 274 158 C273.9864 157.9186 276.849 152.9219 279 152 C281.5569 150.9042 287.8115 151.9192 288 152 C288.015 152.0064 286.9666 154.5704 286 155 C283.8412 155.9595 279 156 279 156 "/>
<path id="12" d="M173 307 C173 307 170.2359 272.0889 170 261 C169.9951 260.7695 171.9199 260.3604 172 260 C172.4435 258.0041 170.9328 254.6681 172 252 C173.254 248.865 174.6397 247.9726 178 245 C187.413 236.6731 187.5396 235.2264 198 229 C207.6928 223.2305 208.982 223.7874 220 220 C224.6926 218.3869 225.1496 218 230 218 C249.8868 218 271 220 271 220 "/>
<path id="13" d="M214 260 C214 260 217.5227 260.7337 219 262 C220.1944 263.0238 220.1542 265.5167 221 266 C221.9868 266.5639 224.0802 266.7466 226 266 C232.0366 263.6524 237.5759 261.3303 239 259 C239.9318 257.4753 238.7285 252.9387 237 248 C235.4118 243.4623 234.0492 239.6404 232 239 C224.836 236.7612 214.5072 237.6722 205 238 C204.2705 238.0252 203.1558 239.0914 203 240 C200.7606 253.0633 196.2917 262.747 199 273 C201.0988 280.9456 208.8256 289.7302 217 293 C228.8843 297.7537 237.9655 296.0235 254 295 C258.4875 294.7136 264 290 264 290 "/>
<path id="14" d="M263 295 C263 295 262.012 283.004 262 283 C261.996 282.9987 257 293 257 293 "/>
</g>
</g>
</svg>
