<?xml version="1.0" encoding="utf-8"?>
<!DOCTYPE svg PUBLIC "-//W3C//DTD SVG 1.1//EN" "http://www.w3.org/Graphics/SVG/1.1/DTD/svg11.dtd">
<svg viewBox="0 0 800 800" preserveAspectRatio="xMinYMin meet" xmlns="http://www.w3.org/2000/svg" version="1.1">
<g fill="none" stroke="black" stroke-linecap="round" stroke-linejoin="round" stroke-width="1.3777">
<g transform="translate(87.52,253.0146) scale(2.1776) translate(-158,-183)">
<path id="0" d="M249 257 C249 257 248.9717 255.0047 249 255 C249.4954 254.9174 254.8426 255.6852 255 256 C255.2361 256.4722 253.8746 261.9796 253 263 C252.6559 263.4014 249.9491 263.5932 249 263 C247.3094 261.9434 245.7532 260.2597 245 258 C244.1675 255.5024 244.2182 253.9318 245 251 C246.0126 247.2027 247.3614 243.6899 249 243 C252.3357 241.5955 258.4521 241.6791 264 243 C266.6595 243.6332 269.5296 245.9616 270 248 C271.5472 254.7047 271.6943 260.5283 270 269 C269.177 273.1148 266.4 277.3032 264 278 C257.0338 280.0225 247.0835 279.6167 239 278 C236.9953 277.5991 235.3267 275.0324 234 272 C232.2378 267.9722 232.3666 266.9489 232 262 C231.3859 253.7098 230.7692 252.8771 232 245 C233.1426 237.6876 234.0753 233.5096 237 230 C238.7294 227.9247 242.1168 227.4578 247 227 C257.4491 226.0204 258.2274 226.601 269 227 C271.4665 227.0914 272.207 226.8794 274 228 C279.2993 231.312 280.7879 232.4639 285 237 C286.5032 238.6188 286.9495 239.6791 287 242 C287.4099 260.8571 290.5132 268.7478 286 283 C283.3019 291.5203 275.7869 297.7729 268 302 C263.3247 304.538 257.1099 304.4995 251 302 C238.6496 296.9476 235.0289 293.8034 224 284 C218.4998 279.1109 215.727 276.1275 215 270 C212.8403 251.7967 213.6769 243.9418 217 225 C217.9822 219.4017 220.3781 216.6975 225 213 C231.1451 208.084 234.0531 206.2093 242 205 C254.5842 203.085 256.7118 205.1595 271 206 C273.4874 206.1463 274.2581 205.8387 276 207 C283.5824 212.055 285.5617 213.2398 292 220 C294.6926 222.8272 294.9613 224.0529 296 228 C297.2924 232.9109 296.9169 233.5163 297 239 C297.4149 266.3809 299.4764 269.9437 297 294 C296.3822 300.0012 294.1972 301.4037 290 307 C285.5728 312.9029 283.7319 316.7607 279 318 C268.4323 320.7677 261.015 321.5326 248 318 C229.4611 312.968 226.7537 309.199 209 299 C204.5199 296.4264 203.6951 295.3795 201 291 C196.2194 283.2316 196.1089 282.0159 193 273 C191.2493 267.923 191.0965 267.4044 191 262 C190.6066 239.9713 190.4278 238.6174 192 217 C192.3564 212.0992 192.6246 211.02 195 207 C198.6136 200.8847 199.5709 200.1576 205 195 C209.224 190.9872 209.8294 190.1396 215 188 C223.4472 184.5046 224.6587 183.9938 234 183 C247.3913 181.5754 249.1175 180.8529 262 183 C274.6525 185.1088 278.11 185.7283 288 192 C296.0413 197.0994 299.5652 200.5847 303 209 C308.0567 221.3889 306.4712 225.1007 308 241 C308.9413 250.79 308 261 308 261 "/>
<path id="1" d="M312 253 C312 253 310.6817 263.6367 307 271 C304.3959 276.2082 298 281 298 281 "/>
<path id="2" d="M310 230 C310 230 309.6027 235.5548 311 238 C312.6301 240.8527 314.9213 243.5802 318 244 C341.3943 247.1901 377 247 377 247 "/>
<path id="3" d="M369 247 L402 247 "/>
<path id="4" d="M402 247 C402 247 405.156 245.7324 406 244 C413.3861 228.839 421 208 421 208 "/>
<path id="5" d="M420 211 L428 191 "/>
<path id="6" d="M429 192 L413 249 "/>
<path id="7" d="M415 249 C415 249 414.4798 246.5476 415 246 C421.078 239.6021 425.5348 238.049 434 229 C439.6854 222.9225 440.2913 221.7431 444 215 C445.2457 212.735 445 209 445 209 "/>
<path id="8" d="M417 259 C417 259 424.3916 255.1844 429 250 C435.7173 242.4431 436.1112 241.1665 441 232 C443.8318 226.6904 443.9367 225.8479 445 220 C445.8354 215.4052 445 210 445 210 "/>
<path id="9" d="M301 278 C301 278 308.1453 270.5224 316 266 C323.8981 261.4526 325.4259 259.5557 334 259 C375.8166 256.2897 424 259 424 259 "/>
<path id="10" d="M201 289 C201 289 189.5835 287.412 179 288 C172.1676 288.3796 170.3997 288.5702 165 291 C161.9396 292.3772 160.8658 294.0681 159 297 C157.9289 298.6831 157.6526 301.7298 158 302 C161.1264 304.4316 167.9438 309.2658 177 311 C189.2361 313.3431 191.1755 309.95 205 311 C230.4054 312.9295 230.6436 315.878 256 317 C286.6439 318.3559 287.7181 317.8926 318 316 C326.9046 315.4435 327.5843 315.1005 336 312 C355.5609 304.7934 355.3746 301.2692 375 295 C390.423 290.0732 397.7298 291.9343 408 289 C408.9298 288.7343 410.2671 285.641 410 285 C409.0792 282.7901 406.6693 278.545 403 277 C390.8373 271.8788 387.1472 269.9639 372 269 C334.0534 266.5852 293 270 293 270 "/>
<path id="11" d="M378 268 L399 262 "/>
</g>
</g>
</svg>
