<?xml version="1.0" encoding="utf-8"?>
<!DOCTYPE svg PUBLIC "-//W3C//DTD SVG 1.1//EN" "http://www.w3.org/Graphics/SVG/1.1/DTD/svg11.dtd">
<svg viewBox="0 0 800 800" preserveAspectRatio="xMinYMin meet" xmlns="http://www.w3.org/2000/svg" version="1.1">
<g fill="none" stroke="black" stroke-linecap="round" stroke-linejoin="round" stroke-width="2.4482">
<g transform="translate(87.52,131.0221) scale(1.2254) translate(-17,-8)">
<path id="0" d="M179 440 C179 440 264.5876 420.5252 349 399 C364.2261 395.1173 363.824 392.6569 379 389 C404.9458 382.748 406.7745 386.775 432 379 C478.6831 364.6114 496.1164 356.7696 525 344 C526.3566 343.4002 527.1854 339.7805 527 337 C526.7786 333.6796 526.0649 332.5562 524 329 C517.2788 317.4247 515.64 317.7709 509 306 C504.7898 298.5364 505.3029 298.0738 502 290 C496.3094 276.0897 495.6368 276.1679 491 262 C486.7021 248.8674 484 235 484 235 "/>
<path id="1" d="M474 263 C474 263 472.55 254.6285 474 248 C475.7913 239.811 476.3276 238.289 481 231 C488.293 219.6229 491.4696 220.5467 499 209 C506.1034 198.108 508.1573 197.0474 511 185 C518.1114 154.8612 516.4556 152.2938 520 120 C520.9131 111.6804 522.6483 108.1705 520 103 C514.5856 92.429 510.5728 88.1247 499 79 C486.1283 68.8512 483.8044 69.4863 468 62 C455.561 56.1078 454.7023 54.2179 442 52 C424.9813 49.0285 423.0361 50.0829 405 51 C394.1618 51.5511 393.0511 51.5735 383 55 C371.9223 58.7765 369.7165 59.2205 361 66 C353.2344 72.0399 352.1335 74.0163 347 83 C340.6931 94.0371 339.1942 95.9318 337 108 C334.5454 121.5001 335.3257 123.7686 337 138 C338.2114 148.2969 341.0726 148.7204 343 159 C343.9583 164.1107 341.2764 166.4296 343 170 C346.8795 178.0361 351.5776 178.5698 357 188 C362.6565 197.8374 364.9652 199.4449 366 210 C369.6223 246.9475 367.848 251.842 367 290 C366.8933 294.8029 366.2569 295.6743 364 300 C360.5468 306.6186 360.232 308.5431 355 313 C348.0884 318.8877 346.3044 318.9895 337 323 C317.6219 331.3526 316.9771 331.9053 297 338 C288.0749 340.7229 287.0436 338.4678 278 341 C262.4655 345.3497 261.9874 350.5148 247 352 C209.6367 355.7027 203.5281 357.6822 167 352 C140.3954 347.8615 138.0754 343.3052 112 331 C94.3606 322.6758 95.4933 318.9965 78 310 C60.9307 301.2215 42 295 42 295 "/>
<path id="2" d="M27 287 C27 287 25.3142 285.8429 25 286 C22.6961 287.1519 18.28 289.44 17 292 C15.72 294.56 15.4203 299.9215 17 302 C21.6505 308.1191 28.2179 308.5694 36 317 C45.4931 327.2842 43.4374 330.2203 53 341 C70.5466 360.7798 74.4316 359.0566 91 379 C100.5959 390.5506 100.1485 402.855 107 406 C117.9696 411.0352 131.2726 402.8147 152 407 C180.9063 412.8369 186.1515 415.8362 211 427 C216.4613 429.4536 217.3939 435.7462 221 438 C222.1486 438.7179 227 437 227 437 "/>
<path id="3" d="M49 298 L18 286 "/>
<path id="4" d="M78 300 C78 300 62.8539 266.8453 59 235 C53.7316 191.4666 56.4709 187.8008 59 143 C59.8905 127.2247 60.9872 126.0383 66 111 C70.2341 98.2978 70.9044 97.4037 78 86 C84.5468 75.4783 85.0764 74.2372 94 66 C103.7801 56.9722 104.9463 56.4035 117 50 C136.3481 39.7213 137.2976 39.2896 158 32 C172.1979 27.0007 173.4662 26.2112 188 25 C202.1774 23.8185 206.6796 22.0473 218 27 C241.6262 37.3365 244.375 42.6504 268 60 C275.7275 65.6749 275.7606 66.4569 282 74 C309.0353 106.6845 309.1652 107.2481 335 141 C340.0169 147.5544 341.2603 148.6073 344 155 C345.074 157.5059 344 162 344 162 "/>
<path id="5" d="M222 346 C222 346 204.6591 335.5649 190 323 C177.1227 311.9623 177.3375 310.9122 166 298 C159.47 290.563 159.1128 290.3851 154 282 C146.78 270.1592 146.0297 269.7067 141 257 C136.7663 246.3043 136.1308 245.3079 135 234 C133.2272 216.2715 133.0889 214.7459 135 197 C136.4852 183.2091 137.1308 181.9845 142 169 C145.8357 158.7714 146.522 157.5509 153 149 C158.3972 141.8758 159.5701 140.3341 167 136 C176.1798 130.6451 178.3275 129.6109 189 128 C203.256 125.8481 205.4096 125.9875 220 128 C233.2271 129.8244 234.6828 130.6812 247 136 C255.7967 139.7986 256.9313 140.6625 264 147 C270.6967 153.0039 271.3364 154.1456 276 162 C280.4594 169.5105 281.53 170.8102 283 179 C284.7714 188.8691 285.1969 191.5535 283 201 C280.6708 211.0157 278.9567 214.4894 273 222 C269.23 226.7534 266.0397 228.6195 260 230 C251.0394 232.0481 248.4955 231.369 238 230 C226.1771 228.4579 225.286 227.8695 214 224 C208.3446 222.061 207.6032 221.5201 203 218 C199.6475 215.4363 199.3635 214.7422 197 211 C193.5413 205.5237 192.425 204.6999 191 199 C189.7333 193.9334 190.127 192.2378 191 187 C191.4729 184.1629 192.068 182.932 194 181 C196.7907 178.2093 202 176 202 176 "/>
<path id="6" d="M200 202 L211 197 "/>
<path id="7" d="M227 204 L232 216 "/>
<path id="8" d="M257 208 L274 225 "/>
<path id="9" d="M253 182 C253 182 264.3527 176.5459 266 174 C266.7735 172.8046 264 165 264 165 "/>
<path id="10" d="M238 157 L233 142 "/>
<path id="11" d="M184 156 L169 150 "/>
<path id="12" d="M170 195 L154 223 "/>
<path id="13" d="M166 257 L153 280 "/>
<path id="14" d="M186 296 L180 321 "/>
<path id="15" d="M220 322 L220 347 "/>
<path id="16" d="M61 290 C61 290 67.2775 290.8804 73 290 C86.3159 287.9514 89.2313 288.3075 100 284 C104.1023 282.3591 108 276 108 276 "/>
<path id="17" d="M75 250 C75 250 74.2743 247.2094 75 246 C80.4424 236.9293 85.9179 233.7474 90 225 C91.2441 222.3341 89 216 89 216 "/>
<path id="18" d="M66 192 C66 192 66.3998 188.2669 68 186 C71.8989 180.4766 74.335 180.4975 78 175 C79.7288 172.4069 80 168 80 168 "/>
<path id="19" d="M72 130 C72 130 87.9427 131.855 100 130 C105.1343 129.2101 111 124 111 124 "/>
<path id="20" d="M103 76 C103 76 124.5569 82.5254 144 85 C150.3412 85.8071 158 83 158 83 "/>
<path id="21" d="M179 53 C179 53 182.1561 53.0355 183 54 C187.454 59.0903 189.0924 61.5104 193 69 C194.7479 72.3502 193.3176 74.2661 195 77 C196.5843 79.5744 201 82 201 82 "/>
<path id="22" d="M276 86 L261 126 "/>
<path id="23" d="M294 133 C294 133 292.9932 145.5896 294 157 C294.4306 161.8802 294.8114 163.3523 297 167 C298.5951 169.6585 303 172 303 172 "/>
<path id="24" d="M336 223 L325 244 "/>
<path id="25" d="M361 273 C361 273 353.5759 281.9066 345 288 C335.1797 294.9776 323 300 323 300 "/>
<path id="26" d="M286 310 L283 320 "/>
<path id="27" d="M397 91 C397 91 393.2839 91.5877 392 93 C389.3431 95.9226 388.1763 97.7654 387 102 C385.981 105.6685 386.0575 107.7013 387 111 C387.6433 113.2515 389.0014 114.501 391 116 C392.225 116.9187 394.2733 117.3114 395 117 C395.9592 116.5889 397.7045 114.7732 398 113 C398.9195 107.4832 398.6277 104.0214 398 99 C397.8991 98.193 396 97.3577 396 97 C396 96.4635 397.1722 94.3104 398 94 C399.5893 93.404 402.0971 93.0486 404 94 C408.4401 96.22 412.184 99.175 414 102 C414.6743 103.0489 414.1315 105.9256 413 108 C411.6642 110.4489 410.4679 111.5192 408 113 C406.2724 114.0365 403.088 114.1467 403 114 C402.4893 113.1489 402.0413 103.0724 402 103 C401.9918 102.9857 399 107 399 107 "/>
<path id="28" d="M461 117 C461 117 455.3478 114.639 452 111 C444.526 102.8761 441.7251 100.9402 438 92 C435.3874 85.7298 436.1428 81.286 437 75 C437.2819 72.9329 438.7438 71.8459 441 70 C443.8646 67.6563 444.7499 66.52 448 66 C455.6572 64.7748 462.2077 63.5534 466 66 C471.4573 69.5209 475.3807 76.8125 479 86 C480.873 90.7545 480.0558 94.5128 479 99 C478.5987 100.7055 476.7485 102.1257 475 103 C473.8343 103.5828 472.2444 103.7111 471 103 C463.5783 98.759 458.0522 96.8757 454 91 C450.7429 86.2772 450.8346 74.8822 451 74 C451.0013 73.9933 456.3344 74.0017 457 75 C460.3722 80.0583 463.2174 85.5774 465 95 C466.393 102.3628 466.1359 105.8297 464 112 C462.5508 116.1865 456 121 456 121 "/>
<path id="29" d="M386 178 C386 178 415.5943 172.5509 444 165 C454.6894 162.1585 454.9278 161.5783 465 157 C471.2069 154.1787 472.6481 153.7716 477 150 C478.9752 148.2881 480 145.2993 480 144 C480 143.3503 478.2405 141.2068 477 141 C471.6835 140.1139 462 141 462 141 C462 141 466.378 141.6791 470 141 C473.8767 140.2731 477.7338 138.2218 478 138 C478.0084 137.993 476 136 476 136 "/>
<path id="30" d="M460 136 C460 136 461.5837 146.0816 461 149 C460.8723 149.6384 457 151 457 151 "/>
<path id="31" d="M392 155 C392 155 388.4846 161.0614 387 167 C385.6274 172.4904 386 179 386 179 "/>
<path id="32" d="M381 155 L403 159 "/>
<path id="33" d="M438 41 C438 41 436.541 35.6288 434 34 C420.0667 25.0684 399.0223 16.0292 399 16 C398.9911 15.9884 413.1025 13.9625 421 17 C428.8975 20.0375 431.1816 23.2411 438 31 C444.9612 38.9214 446.2785 41.3166 450 50 C451.3873 53.237 450.2545 58.8909 450 59 C449.161 59.3596 436 56 436 56 "/>
<path id="34" d="M400 20 C400 20 402.2953 15.6243 402 14 C401.6999 12.3495 399.9785 10.319 398 9 C396.4711 7.9807 393.5831 7.6668 393 8 C392.3605 8.3655 391 10.8895 391 13 C391 17.221 392.6493 22.7662 393 23 C393.1753 23.1169 400 19 400 19 "/>
<path id="35" d="M380 65 C380 65 365.9076 54.8328 351 47 C336.7231 39.4986 336.1329 40.0531 321 34 C311.198 30.0792 310.0653 28.4164 301 27 C295.9772 26.2152 288.9999 29.0001 289 29 C289.0002 28.9998 297.1674 24.3796 304 24 C313.3172 23.4824 315.9163 23.643 325 27 C337.3974 31.5817 338.8436 32.8863 350 41 C360.1763 48.4009 369 59 369 59 "/>
<path id="36" d="M288 29 C288 29 279.1224 24.9082 279 25 C278.8674 25.0994 278.5893 31.4733 280 35 C280.9495 37.3738 283.5517 39.5655 285 40 C285.9804 40.2941 288.9002 39.0998 290 38 C290.7856 37.2144 291.3484 34.4356 291 34 C289.5627 32.2033 282 28 282 28 "/>
<path id="37" d="M378 404 C378 404 381.3455 405.3927 382 405 C383.9635 403.8219 385.8013 401.6646 388 398 C390.0328 394.612 390.7976 393.4403 391 390 C391.2198 386.2626 389.3925 381.0924 389 381 C387.6823 380.69 380.3296 382.3077 374 386 C363.2839 392.2511 353.3499 401.2652 353 402 C352.9968 402.0067 358.7372 405.747 364 407 C368.3171 408.0279 369.7778 408.0555 374 407 C378.75 405.8125 383.056 403.416 384 402 C384.4585 401.3122 382 395 382 395 "/>
<path id="38" d="M166 442 C166 442 167.1675 446.6216 168 447 C169.7535 447.797 173.8272 448.2691 177 447 C182.006 444.9976 186.0357 442.3929 188 439 C189.5038 436.4025 189.2169 429.3907 188 428 C186.0917 425.8191 180.8013 424.097 174 423 C166.1911 421.7405 165.1626 422.0397 157 423 C148.6115 423.9869 145.8004 423.5627 140 427 C134.8761 430.0364 130.2525 438.4529 130 439 C129.9871 439.0279 132.5864 440.2827 134 440 C136.4552 439.509 140.0264 437.024 140 437 C139.8116 436.8288 131.5894 432.3621 123 430 C112.0618 426.992 111.4849 427.2484 100 426 C88.6749 424.769 79.601 424.7738 77 425 C76.9704 425.0026 76.6889 427.8133 77 428 C80.2152 429.9291 85.3938 433.6777 92 434 C103.1473 434.5438 105.6114 432.9341 118 430 C124.0612 428.5645 127.8599 427.5988 130 425 C131.9625 422.617 133.2069 417.3448 132 413 C129.1175 402.623 127.013 398.2572 120 389 C116.0054 383.7272 113.4073 382.078 107 380 C96.9484 376.74 94.0925 377.3578 83 377 C79.8074 376.897 78.8568 377.346 76 379 C69.973 382.4893 64.861 388.1435 64 388 C63.344 387.8907 61.7223 380.1602 58 376 C54.3905 371.9658 52.6595 371.1908 47 369 C37.9447 365.4947 30.7367 364.1698 27 364 C26.6641 363.9847 25 366.72 25 368 C25 369.28 25.919 371.5367 27 372 C33.1534 374.6372 37.2331 376.1233 46 377 C50.8555 377.4856 52.9424 376.9095 57 375 C59.9982 373.5891 63 369.8695 63 369 C63 367.9856 57.8107 362.3603 57 362 C56.8517 361.9341 54 365 54 365 "/>
</g>
</g>
</svg>
