<?xml version="1.0" encoding="utf-8"?>
<!DOCTYPE svg PUBLIC "-//W3C//DTD SVG 1.1//EN" "http://www.w3.org/Graphics/SVG/1.1/DTD/svg11.dtd">
<svg viewBox="0 0 800 800" preserveAspectRatio="xMinYMin meet" xmlns="http://www.w3.org/2000/svg" version="1.1">
<g fill="none" stroke="black" stroke-linecap="round" stroke-linejoin="round" stroke-width="1.5553">
<g transform="translate(87.52,164.6756) scale(1.9289) translate(-160,-118)">
<path id="0" d="M160 278 C160 278 160.1589 282.778 162 286 C167.6385 295.8673 168.0057 298.0057 176 306 C183.9943 313.9943 185.7304 314.7335 196 320 C204.3416 324.2778 205.7372 325.025 215 326 C232.9296 327.8873 234.239 326.9539 253 326 C263.4432 325.469 264.8072 326.4047 274 323 C290.3375 316.9491 292.7308 316.3776 307 306 C324.4719 293.2932 324.986 291.4042 340 275 C351.5838 262.3436 352.2391 261.6745 361 247 C371.8802 228.7757 369.3131 226.2306 380 208 C385.9241 197.8942 386.9332 197.643 395 189 C400.6549 182.9412 401.1939 182.9286 408 178 C415.5449 172.5364 415.6895 171.392 424 168 C439.3457 161.7364 441.5309 161.3148 457 158 C460.8673 157.1713 462.8607 157.2996 466 159 C473.0737 162.8316 476.0597 164.9618 481 171 C483.5349 174.0983 483.5818 176.1213 484 181 C485.0192 192.891 485.782 196.199 484 206 C483.352 209.564 478.2491 210.6989 478 214 C476.6781 231.5147 484.81 240.8291 480 259 C473.0046 285.4272 466.868 288.9907 451 316 C443.8041 328.2484 442.8873 329.6472 433 339 C425.4518 346.1402 423.2527 348.8153 414 351 C391.0389 356.4214 386.0976 352.1388 361 356 C355.0398 356.917 354.918 359.6849 349 361 C342.1291 362.5269 341.4473 362.152 334 362 C292.7051 361.1572 291.5693 362.1207 251 359 C240.5765 358.1982 238.765 358.0069 230 354 C222.8374 350.7257 223.3533 347.5958 216 343 C207.678 337.7987 205.7503 339.536 198 334 C188.9806 327.5576 188.3365 326.6014 181 318 C174.2083 310.0373 169 300 169 300 "/>
<path id="1" d="M173 302 C173 302 181.3704 295.2706 184 289 C186.8126 282.2929 183.225 278.9466 186 271 C193.7149 248.9074 194.2213 245.8379 206 226 C212.1482 215.6451 214.3094 214.9055 224 207 C232.6173 199.9701 234.7394 196.6837 244 195 C263.2043 191.5083 273.2307 188.9345 290 195 C311.9816 202.9508 317.9816 210.4982 338 229 C348.8264 239.0062 356 256 356 256 "/>
<path id="2" d="M177 303 C177 303 197.01 313.3716 205 313 C209.5146 312.79 213.8913 307.6178 220 301 C225.2724 295.2882 226.4504 294.2238 229 287 C234.9636 270.1032 232.2686 262.6091 238 250 C239.6738 246.3177 243.8955 244.3743 249 243 C254.9425 241.4001 262.8867 241.711 264 243 C266.1875 245.5328 268.6976 263.2173 268 265 C267.7922 265.531 258.242 266.9535 255 266 C253.5291 265.5674 251.8527 262.7713 251 260 C250.1745 257.3171 250.7823 253.1555 251 253 C251.2426 252.8267 258 255 258 255 "/>
<path id="3" d="M463 157 C463 157 457.3923 149.1604 456 142 C454.2129 132.8095 455.2708 129.7498 456 121 C456.11 119.6806 457.3451 118.0936 458 118 C461.1974 117.5432 468.7142 118.1428 470 119 C470.4737 119.3158 470.1304 125.837 470 126 C469.9776 126.0279 466.4833 124.8458 466 124 C465.4361 123.0132 466.0247 119.0371 466 119 C465.9967 118.9951 464 121 464 121 "/>
<path id="4" d="M462 157 C462 157 458.4323 140.5764 452 132 C447.2995 125.7327 442.7399 124.4056 435 121 C432.1649 119.7525 427.0265 120.9206 427 121 C426.9272 121.2183 430.9606 129.4331 432 130 C432.4577 130.2497 437.9886 127.0569 438 127 C438.0027 126.9865 433 125 433 125 "/>
<path id="5" d="M458 181 C458 181 459 179 459 179 C459 179 457.98 181.98 458 182 C458.02 182.02 460.8208 181.4182 461 181 C461.4705 179.9023 461.3462 175.5192 461 175 C460.8462 174.7692 457.2778 174.6666 457 175 C456.4304 175.6835 455.6885 180.4549 456 181 C456.2213 181.3873 460.0621 182.1563 461 182 C461.2587 181.9569 461.7625 180.95 462 180 C462.2111 179.1556 462.1 178.05 462 178 C461.6 177.8 458 178 458 178 "/>
</g>
</g>
</svg>
