<?xml version="1.0" encoding="utf-8"?>
<!DOCTYPE svg PUBLIC "-//W3C//DTD SVG 1.1//EN" "http://www.w3.org/Graphics/SVG/1.1/DTD/svg11.dtd">
<svg viewBox="0 0 800 800" preserveAspectRatio="xMinYMin meet" xmlns="http://www.w3.org/2000/svg" version="1.1">
<g fill="none" stroke="black" stroke-linecap="round" stroke-linejoin="round" stroke-width="1.7665">
<g transform="translate(87.52,200.4543) scale(1.6983) translate(-192,-83)">
<path id="0" d="M303 221 C303 221 298.0883 216.1258 296 211 C292.9729 203.5699 292.279 202.231 292 194 C291.3172 173.8581 292.3196 172.8372 294 152 C294.8068 141.9959 294.3696 141.4256 297 132 C300.2205 120.4599 300.4217 118.395 306 109 C308.9398 104.0487 310.5748 102.559 316 100 C335.2503 90.9197 337.9726 88.7035 359 84 C373.9984 80.6451 376.2856 81.254 392 83 C411.1121 85.1236 412.4015 85.8854 431 92 C448.2566 97.6734 449.3186 98.7859 465 107 C469.3708 109.2895 469.7601 110.0558 473 114 C480.9548 123.6841 481.9438 124.0523 488 135 C494.6323 146.9892 497.6429 148.7865 499 161 C501.7307 185.5766 501.4978 191.4118 497 216 C494.6134 229.0469 491.6275 230.6382 484 243 C477.4939 253.5443 476.8139 255.1934 468 263 C460.4858 269.6554 458.5924 269.3692 449 274 C444.4827 276.1808 443.8422 276.801 439 277 C408.8654 278.2384 404.8014 281.3888 376 277 C355.6845 273.9043 353.673 270.1339 334 261 C326.58 257.555 325.9405 256.78 320 251 C307.9092 239.236 303.5946 236.8153 297 225 C294.0186 219.6584 296 208 296 208 "/>
<path id="1" d="M404 123 C404 123 386.4064 120.6455 374 121 C371.8928 121.0602 371.2956 122.2783 369 124 C363.3797 128.2152 362.6686 128.0721 358 133 C354.002 137.2201 353.4935 137.7196 351 143 C345.2425 155.1923 343.0616 156.4241 341 169 C338.3893 184.925 337.4574 191.955 341 204 C343.066 211.0246 347.8663 213.9578 356 220 C364.298 226.1642 366.821 228.904 376 230 C396.252 232.4181 403.9443 231.5527 423 228 C428.5019 226.9742 430.8154 224.2695 435 219 C443.3361 208.5028 447.2677 205.658 450 194 C453.7369 178.0557 452.1817 169.6487 450 155 C449.4941 151.6035 444.8862 150.503 443 147 C442.1987 145.5118 443.811 143.8433 443 142 C438.9708 132.8427 436.3265 123.6441 432 122 C423.0167 118.5864 393 123 393 123 "/>
<path id="2" d="M397 159 C397 159 388.6072 157.8728 385 159 C383.3279 159.5225 381.3092 161.8355 381 164 C379.7235 172.9357 379.7854 178.8016 381 187 C381.2425 188.637 383.1409 190.419 385 191 C389.36 192.3625 392.3041 193.127 397 192 C402.8618 190.5932 408.5923 187.9237 410 185 C412.1234 180.5899 412.0159 170.4428 410 165 C408.9211 162.0871 404.5358 159.9844 400 158 C397.9166 157.0885 394 158 394 158 "/>
<path id="3" d="M389 287 C389 287 384.4142 290.1511 380 291 C372.2318 292.4939 363 292 363 292 "/>
<path id="4" d="M292 182 C292 182 284.3287 179.5525 279 176 C276.1789 174.1193 276.9002 172.0881 274 170 C265.0879 163.5833 264.1537 162.1098 254 158 C244.1867 154.0279 242.7476 153.9346 232 153 C220.5442 152.0038 219.833 153.1839 208 154 C205.508 154.1719 204.3224 153.8429 203 155 C197.9635 159.407 193.4008 162.3968 192 168 C189.6208 177.5166 189.9966 184.2378 193 195 C195.0996 202.5234 198.068 204.4436 204 211 C206.7973 214.0917 207.825 214.4493 212 216 C224.6943 220.715 233.9404 221.3765 239 224 C239.5054 224.262 237.9076 228.1794 239 230 C247.8118 244.6863 249.894 248.8089 263 264 C271.2065 273.5121 272.1442 275.4007 283 281 C317.5297 298.81 320.9223 302.025 358 313 C380.5964 319.6885 383.1276 316.9302 408 318 C429.2774 318.9152 432.2452 320.5165 451 317 C461.0152 315.1221 461.3963 309.9764 472 306 C480.6518 302.7556 482.7931 305.3793 491 302 C498.599 298.871 498.1664 296.0949 506 292 C519.8629 284.7535 522.1331 286.6589 535 279 C542.0547 274.8008 548 267 548 267 "/>
<path id="5" d="M499 207 C499 207 503.9691 198.7858 507 198 C512.4208 196.5946 518.5194 196.8983 526 200 C536.6459 204.4141 538.9553 206.8909 548 215 C552.3024 218.8573 552.4045 220.3372 555 226 C557.7096 231.9119 558.08 232.5601 559 239 C560.501 249.5071 562.1094 256.4799 560 261 C558.5306 264.1487 550.6777 264.9922 545 269 C543.6736 269.9363 543 273 543 273 "/>
<path id="6" d="M231 181 C231 181 230.4504 183.6622 230 184 C229.5842 184.3118 227.075 184.15 227 184 C226.7 183.4 226.8453 178.2578 227 178 C227.0206 177.9656 230 179 230 179 "/>
<path id="7" d="M194 186 C194 186 204.3566 188.6965 209 188 C210.8163 187.7276 214 183 214 183 "/>
<path id="8" d="M218 154 C218 154 221.7173 133.3226 220 124 C219.4403 120.9615 213.7489 117.1781 211 116 C210.0837 115.6073 206.713 117.1444 206 118 C205.5375 118.555 205.8595 121.9568 206 122 C207.4845 122.4568 216.3084 122.5768 219 122 C219.3402 121.9271 219.9993 119.0007 220 119 C220.0003 118.9997 220 121 220 121 "/>
<path id="9" d="M238 151 C238 151 244.2099 120.2369 244 111 C243.9781 110.0363 240.2804 108.0094 237 107 C234.6087 106.2642 232.5893 106.404 231 107 C230.1722 107.3104 229.2743 108.6284 229 110 C228.4352 112.8239 228.3199 115.4697 229 117 C229.3671 117.8259 231.2532 118.8656 233 119 C236.7523 119.2886 240.6638 119.0933 242 118 C243.163 117.0485 244 110 244 110 "/>
</g>
</g>
</svg>
