<?xml version="1.0" encoding="utf-8"?>
<!DOCTYPE svg PUBLIC "-//W3C//DTD SVG 1.1//EN" "http://www.w3.org/Graphics/SVG/1.1/DTD/svg11.dtd">
<svg viewBox="0 0 800 800" preserveAspectRatio="xMinYMin meet" xmlns="http://www.w3.org/2000/svg" version="1.1">
<g fill="none" stroke="black" stroke-linecap="round" stroke-linejoin="round" stroke-width="0.63844">
<g transform="translate(87.52,284.8758) scale(4.6989) translate(-135,-151)">
<path id="0" d="M160 182 C160 182 208.0668 181.1309 255 182 C261.4407 182.1193 266.6701 182.7724 268 184 C268.8269 184.7633 269.291 191.7048 268 194 C266.5718 196.539 262.9263 199.7382 259 200 C225.1667 202.2556 212.4478 204.0928 178 200 C168.888 198.9174 161.1184 191.6382 158 188 C157.2204 187.0905 160 179 160 179 "/>
<path id="1" d="M159 186 C159 186 138.0289 186.0034 138 186 C137.9948 185.9994 142 184 142 184 "/>
<path id="2" d="M161 180 C161 180 155.3314 181.1657 153 180 C149.5029 178.2515 145 172 145 172 "/>
<path id="3" d="M145 170 C145 170 145.2155 174.4612 145 175 C144.9655 175.0862 143.1333 175.1999 143 175 C142.267 173.9006 140.8831 169.1169 141 169 C141.2338 168.7662 148.605 168.8307 149 169 C149.0141 169.006 148 172 148 172 "/>
<path id="4" d="M141 184 C141 184 135.2624 183.7901 135 184 C134.9038 184.077 135.9989 188.0016 136 188 C136.0024 187.9964 137 181 137 181 "/>
<path id="5" d="M191 180 C191 180 186.3394 180.7018 184 180 C182.6966 179.609 181.2642 178.3212 181 177 C179.7375 170.6876 178.1619 163.186 180 160 C182.0404 156.4633 188.4946 152.6083 196 151 C206.8843 148.6677 214.6304 148.7668 222 151 C224.843 151.8615 227.8562 156.425 229 161 C230.7521 168.0086 230.2876 176.4248 229 179 C228.4993 180.0015 219 181 219 181 "/>
<path id="6" d="M190 170 C190 170 189.3443 165.9671 190 164 C190.4371 162.6886 191.3265 162.0759 193 161 C198.0449 157.7569 198.8154 156.414 204 155 C208.5132 153.7691 210.0944 154.6226 215 155 C215.9262 155.0712 216.9649 155.6839 217 156 C217.4885 160.3964 217 173 217 173 "/>
<path id="7" d="M200 173 C200 173 196.9676 169.0125 197 169 C197.363 168.8604 212.884 167.971 213 168 C213.0221 168.0055 210.7549 171.3619 209 172 C206.7479 172.819 202 172 202 172 "/>
</g>
</g>
</svg>
