<?xml version="1.0" encoding="utf-8"?>
<!DOCTYPE svg PUBLIC "-//W3C//DTD SVG 1.1//EN" "http://www.w3.org/Graphics/SVG/1.1/DTD/svg11.dtd">
<svg viewBox="0 0 800 800" preserveAspectRatio="xMinYMin meet" xmlns="http://www.w3.org/2000/svg" version="1.1">
<g fill="none" stroke="black" stroke-linecap="round" stroke-linejoin="round" stroke-width="2.2465">
<g transform="translate(87.52,207.7046) scale(1.3354) translate(-29,-65.4167)">
<path id="0" d="M292 273.4167 C292 273.4167 295.0664 265.6945 300 260.4167 C315.8326 243.4794 316.5256 241.4793 335 227.4167 C349.0438 216.7266 351.7298 215.7239 367 209.4167 C372.5811 207.1114 375.7166 207.8296 381 208.4167 C382.6484 208.5998 384.177 209.9352 385 211.4167 C386.0332 213.2764 386.634 215.7682 386 217.4167 C384.9491 220.1491 383.476 222.3311 380 224.4167 C362.62 234.8447 357.9299 232.394 341 244.4167 C324.9002 255.8499 326.1243 262.1539 311 273.4167 C304.707 278.1029 300.9686 277.6745 294 279.4167 C292.9641 279.6756 291.4757 279.0826 291 278.4167 C289.8757 276.8426 289 272.4167 289 272.4167 "/>
<path id="1" d="M375 207.4167 C375 207.4167 377.5636 194.2523 377 182.4167 C376.611 174.2471 375.7266 173.5965 373 165.4167 C366.8031 146.8261 367.3015 145.8783 359 128.4167 C353.0802 115.9647 352.1209 115.2445 344 104.4167 C340.6019 99.8859 339.9047 99.2777 335 96.4167 C322.5887 89.1768 321.6638 87.6209 308 83.4167 C290.3015 77.971 288.8355 78.5433 270 76.4167 C258.3463 75.1009 257.7823 75.3456 246 76.4167 C225.1132 78.3155 224.6696 78.5411 204 82.4167 C192.9163 84.4949 191.5155 83.6589 182 88.4167 C165.8236 96.5049 164.2886 97.8642 150 109.4167 C141.6143 116.1966 140.9024 117.2352 135 126.4167 C123.3694 144.5088 124.0062 145.717 114 165.4167 C108.0391 177.1521 107.0841 177.1643 103 189.4167 C96.7508 208.1643 95.7959 209.0997 93 228.4167 C90.4324 246.1564 90.9957 247.6747 92 265.4167 C92.4411 273.2094 92.6113 275.6982 96 281.4167 C99.3409 287.0544 101.4552 288.3071 108 292.4167 C122.2086 301.3383 123.8129 304.2945 139 308.4167 C156.1085 313.0604 158.9865 311.051 178 311.4167 C184.3097 311.538 184.8931 311.2861 191 309.4167 C208.9362 303.926 208.8519 301.7215 227 296.4167 C241.0232 292.3176 242.9042 295.267 256 290.4167 C268.6608 285.7275 270.097 284.6545 281 276.4167 C291.76 268.2869 291.8011 266.9297 301 256.4167 C309.1257 247.1302 310.453 246.7542 316 236.4167 C320.8958 227.2927 320.7597 225.9462 323 215.4167 C325.6536 202.9446 327.4506 200.8139 326 189.4167 C324.2859 175.9487 323.1646 171.3875 316 160.4167 C309.07 149.8051 305.3582 147.5486 294 140.4167 C285.6533 135.1757 283.318 134.8398 273 133.4167 C255.555 131.0105 252.8152 130.2114 236 132.4167 C224.5157 133.9228 223.2681 135.8976 212 141.4167 C199.1696 147.701 197.6253 147.4401 187 156.4167 C169.5911 171.1242 168.3825 172.7655 154 190.4167 C147.1587 198.8128 147.4682 200.4491 143 210.4167 C141.2263 214.3734 140.8687 215.2164 141 219.4167 C141.3392 230.2697 140.3724 234.2545 144 242.4167 C146.7994 248.7153 149.9591 251.0399 157 255.4167 C167.0919 261.69 169.6867 263.1026 181 265.4167 C189.5985 267.1755 191.8702 266.656 201 264.4167 C217.2089 260.4409 217.9713 259.0953 234 252.4167 C241.7331 249.1945 242.4568 249.1278 249 244.4167 C254.4211 240.5135 254.9105 239.6746 259 234.4167 C261.5559 231.1305 262.1511 230.378 263 226.4167 C264.9578 217.2801 266.9774 213.4275 265 206.4167 C262.6939 198.2404 259.1158 195.1254 252 187.4167 C248.0625 183.151 246.0986 181.6913 241 180.4167 C234.2018 178.7171 231.4381 178.929 224 180.4167 C217.787 181.6593 213.7785 182.8047 211 186.4167 C206.5919 192.1473 205.5186 197.6087 204 206.4167 C203.3802 210.0115 204.3932 211.6676 206 215.4167 C207.0945 217.9704 208.0629 219.3601 210 220.4167 C212.1727 221.6018 213.8677 221.8252 217 221.4167 C224.5334 220.434 233 217.4167 233 217.4167 "/>
<path id="2" d="M110 293.4167 C110 293.4167 86.9456 302.5984 65 313.4167 C51.6411 320.0021 50.8682 320.1749 39 328.4167 C33.4778 332.2515 31.2915 334.0627 29 338.4167 C27.6488 340.984 28.0737 346.6854 29 347.4167 C32.0945 349.8597 38.7274 352.3258 48 353.4167 C63.0575 355.1881 68.3833 354.1 80 353.4167 C80.7687 353.3715 81.2911 351.4167 82 351.4167 C103.9763 351.4167 113.7002 355.0399 144 353.4167 C168.6875 352.0941 169.0837 347.6818 194 345.4167 C218.1125 343.2246 219.0802 347.0218 243 344.4167 C268.8584 341.6004 269.0496 337.8015 295 334.4167 C314.6004 331.8601 315.6593 334.9123 335 332.4167 C345.9412 331.0049 346.1158 327.7303 357 326.4167 C374.3008 324.3286 376.1134 328.0971 393 325.4167 C406.2765 323.3093 410.0725 322.7986 420 316.4167 C428.0458 311.2444 430.0697 307.8829 435 298.4167 C441.725 285.5047 443.3347 283.1271 445 268.4167 C449.0775 232.3985 444.0909 229.508 447 192.4167 C448.0112 179.5245 448.3723 178.2174 453 166.4167 C457.9766 153.7264 458.6146 151.4791 467 141.4167 C474.8899 131.9488 479.2021 133.518 488 124.4167 C492.8904 119.3577 494.1886 117.6561 496 111.4167 C498.1623 103.9688 497.6469 101.1797 497 93.4167 C496.7743 90.7087 495.8886 89.992 494 87.4167 C490.576 82.7476 488.9084 80.0786 486 78.4167 C484.7987 77.7302 480.7691 78.5515 480 79.4167 C478.8126 80.7524 477.5676 86.2276 478 87.4167 C478.3081 88.2639 482.93 90.6842 484 90.4167 C485.5286 90.0345 490 84.4167 490 84.4167 "/>
<path id="3" d="M480 87.4167 C480 87.4167 477.0983 95.2255 473 100.4167 C470.2756 103.8676 468.92 104.4567 465 106.4167 C462.6836 107.5748 461.5203 107.6458 459 107.4167 C456.7899 107.2158 455.6113 106.8937 454 105.4167 C450.4041 102.1204 448.1689 100.7026 447 96.4167 C444.37 86.7733 447.9735 77.5376 445 72.4167 C443.0749 69.1012 436.5728 67.9409 429 65.4167 C426.9347 64.7282 424.5078 64.9089 424 65.4167 C423.086 66.3307 421.9255 72.376 422 72.4167 C422.5106 72.6952 435 71.4167 435 71.4167 "/>
<path id="4" d="M431 73.4167 C431 73.4167 435.298 91.7767 432 103.4167 C428.1046 117.1653 418.9206 119.4749 414 133.4167 C411.1575 141.4704 415.6577 144.4702 414 154.4167 C409.8162 179.5196 409.5733 181.9754 402 205.4167 C399.6666 212.639 398.3011 215.2752 393 219.4167 C384.5997 225.9794 370 230.4167 370 230.4167 "/>
</g>
</g>
</svg>
