<?xml version="1.0" encoding="utf-8"?>
<!DOCTYPE svg PUBLIC "-//W3C//DTD SVG 1.1//EN" "http://www.w3.org/Graphics/SVG/1.1/DTD/svg11.dtd">
<svg viewBox="0 0 800 800" preserveAspectRatio="xMinYMin meet" xmlns="http://www.w3.org/2000/svg" version="1.1">
<g fill="none" stroke="black" stroke-linecap="round" stroke-linejoin="round" stroke-width="0.85925">
<g transform="translate(87.52,148.6194) scale(3.4914) translate(-123,-168.4167)">
<path id="0" d="M131 286.4167 C131 286.4167 130.6919 277.2377 133 274.4167 C136.9084 269.6397 141.558 266.6055 149 264.4167 C156.0722 262.3366 158.5214 263.0678 167 264.4167 C179.7714 266.4485 180.238 269.2378 193 271.4167 C200.0391 272.6185 202.2112 273.4014 208 271.4167 C217.3062 268.226 217.6728 264.479 228 259.4167 C242.9119 252.1069 244.4328 249.9128 259 246.4167 C267.0094 244.4944 278 247.4167 278 247.4167 "/>
<path id="1" d="M124 282.4167 C124 282.4167 130.6283 288.3387 138 292.4167 C153.7955 301.1546 154.4471 302.0502 171 308.4167 C179.6829 311.7563 180.6982 311.7825 190 312.4167 C202.0331 313.2371 203.9825 314.316 215 311.4167 C230.5622 307.3214 231.9816 305.6526 247 297.4167 C262.5068 288.913 263.911 288.1564 277 277.4167 C282.3151 273.0555 284.5079 270.6389 286 265.4167 C287.6091 259.7848 285 249.4167 285 249.4167 "/>
<path id="2" d="M123 279.4167 C123 279.4167 125.446 267.8654 126 256.4167 C126.9335 237.1253 124.4298 236.2591 126 217.4167 C126.8623 207.0694 126.7918 205.0546 131 196.4167 C135.4568 187.2684 137.2376 184.6266 145 178.4167 C152.9264 172.0756 156.6317 169.8423 166 168.4167 C176.2092 166.8631 182.403 167.1182 191 171.4167 C201.0568 176.4451 204.1741 180.5985 212 191.4167 C220.0956 202.6077 220.088 204.8364 225 218.4167 C228.323 227.6039 227.9842 228.5129 229 238.4167 C229.9456 247.6361 229 257.4167 229 257.4167 "/>
<path id="3" d="M229 257.4167 C229 257.4167 220.1693 244.4577 210 233.4167 C202.9582 225.7713 200.9172 221.4604 194 219.4167 C184.483 216.6048 177.9256 219.2626 166 220.4167 C164.6445 220.5478 163.1402 221.6687 163 222.4167 C162.2338 226.5029 162.4006 235.4427 163 236.4167 C163.168 236.6896 167.8674 236.6215 171 235.4167 C173.4429 234.4771 176 231.4167 176 231.4167 "/>
<path id="4" d="M271 244.4167 C271 244.4167 268.1642 240.7002 268 237.4167 C266.783 213.0769 269.8774 208.4479 268 184.4167 C267.5965 179.2519 263.4185 176.5553 263 173.4167 C262.8709 172.4482 265.1311 169.5747 266 169.4167 C267.7803 169.093 273.4537 170.4606 274 171.4167 C274.9976 173.1625 274.956 179.8316 274 183.4167 C273.676 184.6316 271.5444 186.0735 270 186.4167 C268.4189 186.768 265 185.4167 265 185.4167 "/>
<path id="5" d="M281 244.4167 C281 244.4167 280.4182 234.7934 283 227.4167 C286.9676 216.0808 290.4409 215.8144 295 204.4167 C297.0992 199.1688 297.2561 194.0812 297 192.4167 C296.9646 192.1867 293.0595 191.7142 293 191.4167 C292.5437 189.1353 293.2292 178.53 294 177.4167 C294.2381 177.0728 301.621 177.7534 302 178.4167 C302.8844 179.9644 302.4538 190.509 302 191.4167 C301.9302 191.5563 296 190.4167 296 190.4167 "/>
</g>
</g>
</svg>
