<?xml version="1.0" encoding="utf-8"?>
<!DOCTYPE svg PUBLIC "-//W3C//DTD SVG 1.1//EN" "http://www.w3.org/Graphics/SVG/1.1/DTD/svg11.dtd">
<svg viewBox="0 0 800 800" preserveAspectRatio="xMinYMin meet" xmlns="http://www.w3.org/2000/svg" version="1.1">
<g fill="none" stroke="black" stroke-linecap="round" stroke-linejoin="round" stroke-width="1.9825">
<g transform="translate(87.52,127.6203) scale(1.5132) translate(-102.3611,-47.5556)">
<path id="0" d="M270.3611 106.5556 C270.3611 106.5556 265.2625 112.3675 259.3611 116.5556 C250.062 123.1549 247.6985 121.3298 239.3611 128.5556 C226.0872 140.0596 227.3171 142.9497 214.3611 155.5556 C209.1159 160.659 208.7918 161.0646 202.3611 164.5556 C157.0199 189.1693 155.6848 188.4483 109.3611 212.5556 C106.7849 213.8962 105.354 214.0662 104.3611 215.5556 C103.3159 217.1233 103.3611 218.6524 103.3611 221.5556 C103.3611 226.878 103.012 227.9687 104.3611 232.5556 C105.2183 235.4701 106.0287 236.0288 108.3611 238.5556 C111.8227 242.3056 112.0827 242.907 116.3611 245.5556 C122.1593 249.1449 124.5786 247.3563 129.3611 251.5556 C143.5872 264.0467 142.453 268.3351 157.3611 281.5556 C168.3027 291.2584 170.6812 289.1828 182.3611 298.5556 C210.9303 321.4815 209.2036 325.9392 238.3611 346.5556 C257.3443 359.978 261.7065 359.731 281.3611 368.5556 C283.5913 369.5569 285.3332 369.5695 287.3611 368.5556 C296.3178 364.0772 297.0096 360.7313 307.3611 355.5556 C318.4939 349.9892 320.1479 352.1622 331.3611 346.5556 C346.7055 338.8834 349.4246 338.8644 361.3611 328.5556 C369.5571 321.4772 367.1397 316.777 375.3611 308.5556 C392.7711 291.1455 396.9967 293.2143 414.3611 275.5556 C425.7184 264.0058 423.6589 261.0924 434.3611 248.5556 C440.8701 240.9308 443.0511 238.7623 449.3611 234.5556 C450.917 233.5183 452.9902 233.7653 455.3611 234.5556 C459.5761 235.9605 460.4987 236.5515 464.3611 239.5556 C469.1558 243.2847 469.4151 246.6864 473.3611 248.5556 C476.3363 249.9649 479.0274 249.3681 483.3611 248.5556 C486.2051 248.0223 486.9588 247.5575 489.3611 245.5556 C498.4522 237.9797 501.2845 237.118 507.3611 228.5556 C510.7977 223.7131 510.5986 221.4179 511.3611 214.5556 C512.5224 204.1038 513.7925 201.1758 511.3611 192.5556 C509.1394 184.6787 506.7513 183.0818 500.3611 175.5556 C484.6236 157.0202 484.8443 154.1111 466.3611 139.5556 C446.4217 123.8532 442.782 126.659 420.3611 112.5556 C411.9784 107.2826 411.4038 106.9276 404.3611 100.5556 C401.3892 97.8667 402.3607 95.4965 399.3611 93.5556 C387.1775 85.672 385.1836 84.5324 370.3611 78.5556 C354.6997 72.2405 352.8588 75.1367 337.3611 68.5556 C317.0073 59.9121 315.1574 54.4003 297.3611 47.5556 C293.0615 45.9019 289.2401 46.4669 285.3611 48.5556 C278.8643 52.0538 275.731 55.2738 271.3611 61.5556 C269.172 64.7025 269.116 66.8991 269.3611 71.5556 C270.0598 84.8314 271.9338 85.6392 273.3611 99.5556 C273.9137 104.9437 273.8281 107.7536 273.3611 110.5556 C273.3045 110.8952 271.3611 111.5556 271.3611 111.5556 "/>
<path id="1" d="M276.3611 111.5556 C276.3611 111.5556 253.1282 119.8261 234.3611 131.5556 C222.481 138.9806 222.652 141.0137 212.3611 151.5556 C202.3007 161.8614 203.5283 165.0371 193.3611 173.5556 C186.424 179.3678 183.5587 177.2512 175.3611 182.5556 C166.9611 187.9909 167.5621 189.9789 159.3611 195.5556 C155.4917 198.1867 154.86 198.6558 150.3611 199.5556 C138.1499 201.9978 136.6203 199.9747 124.3611 202.5556 C118.3526 203.8205 115.6375 204.1302 112.3611 207.5556 C106.8803 213.2855 102.3611 225.5556 102.3611 225.5556 "/>
<path id="2" d="M103.3611 223.5556 C103.3611 223.5556 98.6869 271.9068 103.3611 285.5556 C104.8359 289.8619 118.0158 289.7494 128.3611 296.5556 C135.4888 301.2448 135.774 303.106 141.3611 310.5556 C147.5364 318.7892 146.0891 320.5273 152.3611 328.5556 C158.2425 336.0838 158.7459 336.9985 166.3611 342.5556 C176.5771 350.0105 178.5531 348.3502 189.3611 355.5556 C197.78 361.1681 196.9336 363.4054 205.3611 368.5556 C214.3361 374.0403 216.3152 372.128 225.3611 377.5556 C233.2674 382.2993 232.3333 385.393 240.3611 389.5556 C258.252 398.8323 272.8915 404.2015 279.3611 405.5556 C279.7484 405.6366 282.7312 401.975 283.3611 398.5556 C285.93 384.6103 286.3611 367.5556 286.3611 367.5556 "/>
<path id="3" d="M282.3611 406.5556 C282.3611 406.5556 296.3557 409.9522 303.3611 407.5556 C310.7503 405.0277 311.4084 398.7034 320.3611 393.5556 C330.4307 387.7655 332.4678 389.8694 343.3611 384.5556 C352.6539 380.0225 354.8701 380.3632 361.3611 373.5556 C373.7911 360.5193 371.4521 355.5969 384.3611 341.5556 C399.2407 325.3707 403.7185 327.8785 418.3611 311.5556 C433.4202 294.7684 431.4884 289.5626 445.3611 273.5556 C449.2925 269.0194 451.5157 267.9774 457.3611 266.5556 C468.2333 263.911 473.2655 268.2765 482.3611 264.5556 C491.3606 260.8739 492.3524 256.897 501.3611 248.5556 C505.7125 244.5265 506.4371 244.3592 509.3611 239.5556 C513.0825 233.4418 514.0998 232.2825 515.3611 225.5556 C516.8622 217.55 516.6266 215.9079 515.3611 207.5556 C514.2533 200.2438 510.3611 192.5556 510.3611 192.5556 "/>
<path id="4" d="M116.3611 240.5556 C116.3611 240.5556 127.1808 245.004 132.3611 251.5556 C142.4873 264.3622 140.6751 269.206 150.3611 283.5556 C153.449 288.1302 159.3611 291.5556 159.3611 291.5556 "/>
<path id="5" d="M177.3611 297.5556 C177.3611 297.5556 189.7995 301.5992 198.3611 308.5556 C212.5888 320.1155 211.3928 323.9841 225.3611 336.5556 C230.7665 341.4204 238.3611 344.5556 238.3611 344.5556 "/>
<path id="6" d="M244.3611 352.5556 L276.3611 364.5556 "/>
<path id="7" d="M292.3611 366.5556 C292.3611 366.5556 301.2237 368.1615 308.3611 366.5556 C319.9706 363.9434 327.0574 359.9864 332.3611 357.5556 C332.534 357.4763 332.1511 355.671 332.3611 355.5556 C337.1239 352.936 343.7251 352.2371 352.3611 346.5556 C361.8651 340.3029 370.3611 330.5556 370.3611 330.5556 "/>
<path id="8" d="M382.3611 315.5556 C382.3611 315.5556 396.4578 301.8202 407.3611 286.5556 C418.5968 270.8256 416.5414 267.0945 427.3611 252.5556 C431.3297 247.2228 433.0366 247.1131 439.3611 243.5556 C448.651 238.33 459.3611 234.5556 459.3611 234.5556 "/>
<path id="9" d="M304.3611 47.5556 C304.3611 47.5556 333.7221 62.296 363.3611 75.5556 C371.5178 79.2046 371.9325 79.5889 380.3611 81.5556 C386.423 82.97 388.1076 80.9795 393.3611 82.5556 C396.7186 83.5628 400.3611 87.5556 400.3611 87.5556 "/>
<path id="10" d="M409.3611 98.5556 C409.3611 98.5556 449.8075 121.1566 482.3611 146.5556 C492.9554 154.8214 493.3395 157.5928 500.3611 169.5556 C506.2777 179.6356 509.3611 192.5556 509.3611 192.5556 "/>
<path id="11" d="M284.3611 57.5556 C284.3611 57.5556 280.8167 58.0999 279.3611 59.5556 C276.2419 62.6747 274.6785 64.227 273.3611 68.5556 C271.6205 74.2748 272.3611 82.5556 272.3611 82.5556 "/>
</g>
</g>
</svg>
