<?xml version="1.0" encoding="utf-8"?>
<!DOCTYPE svg PUBLIC "-//W3C//DTD SVG 1.1//EN" "http://www.w3.org/Graphics/SVG/1.1/DTD/svg11.dtd">
<svg viewBox="0 0 800 800" preserveAspectRatio="xMinYMin meet" xmlns="http://www.w3.org/2000/svg" version="1.1">
<g fill="none" stroke="black" stroke-linecap="round" stroke-linejoin="round" stroke-width="1.5121">
<g transform="translate(87.52,323.616) scale(1.984) translate(-115,-237.9333)">
<path id="0" d="M124 254.9333 C124 254.9333 126.8386 249.1832 130 247.9333 C144.7672 242.0952 148.8938 241.5546 167 237.9333 C173.0354 236.7263 174.0545 236.6253 180 237.9333 C198.0286 241.8996 217 248.9333 217 248.9333 "/>
<path id="1" d="M216 248.9333 C216 248.9333 223.6908 243.8193 231 242.9333 C254.8147 240.0467 260.5347 237.7851 282 240.9333 C292.9669 242.5418 306 253.9333 306 253.9333 "/>
<path id="2" d="M312 254.9333 C312 254.9333 345.4526 249.2586 377 248.9333 C392.4913 248.7736 394.2699 250.3406 409 253.9333 C413.5315 255.0386 414.5169 255.9146 418 258.9333 C421.3786 261.8615 424 266.9333 424 266.9333 "/>
<path id="3" d="M119 257.9333 C119 257.9333 115.2687 262.4398 115 265.9333 C114.4227 273.4379 114.0506 279.4317 117 283.9333 C120.3812 289.0942 125.4421 291.9567 134 294.9333 C146.6315 299.3269 148.6719 299.2669 163 299.9333 C190.9153 301.2317 220 298.9333 220 298.9333 "/>
<path id="4" d="M223 302.9333 C223 302.9333 244.8908 310.1268 266 313.9333 C274.4467 315.4565 281.8108 314.2982 284 313.9333 C284.0608 313.9232 283.8639 310.9742 284 310.9333 C287.1606 309.9852 304 307.9333 304 307.9333 "/>
<path id="5" d="M312 310.9333 C312 310.9333 316.6003 313.5508 321 313.9333 C338.6193 315.4654 339.7171 315.8661 358 314.9333 C388.3351 313.3856 391.5059 312.6825 419 308.9333 C421.4057 308.6053 422.5408 307.7905 424 305.9333 C427.3095 301.7213 428.7556 300.1184 430 294.9333 C431.4005 289.0981 431.269 284.7403 430 280.9333 C429.4562 279.3018 424 276.9333 424 276.9333 "/>
<path id="6" d="M371 272.9333 C371 272.9333 380.288 275.2316 388 278.9333 C392.2206 280.9592 395.9223 284.7974 396 284.9333 C396.0094 284.9499 392 285.9333 392 285.9333 "/>
<path id="7" d="M339 278.9333 C339 278.9333 348.4705 276.14 354 277.9333 C363.8777 281.1369 366.3935 287.3309 376 290.9333 C379.4405 292.2235 381.9065 291.1029 386 289.9333 C387.933 289.381 390 286.9333 390 286.9333 "/>
<path id="8" d="M333 273.9333 C333 273.9333 334.7553 271.0889 336 270.9333 C346.7415 269.5906 352.072 268.4301 365 269.9333 C371.5785 270.6983 379 275.9333 379 275.9333 "/>
<path id="9" d="M248 268.9333 C248 268.9333 252.8528 268.6808 255 269.9333 C257.4067 271.3373 259.346 273.4809 260 275.9333 C260.7788 278.854 258.822 284.874 259 284.9333 C261.4927 285.7642 285.7467 285.5078 287 284.9333 C287.0466 284.912 285.6705 277.8177 283 273.9333 C281.0942 271.1613 279.3018 269.5937 276 268.9333 C264.2785 266.589 248 266.9333 248 266.9333 "/>
<path id="10" d="M188 269.9333 C188 269.9333 184.1951 269.6894 184 269.9333 C183.6951 270.3144 184 274.9333 184 274.9333 C184 274.9333 184.4833 271.6583 184 270.9333 C183.4361 270.0875 181.9261 269.1535 180 268.9333 C165.7752 267.3076 157.6935 266.6699 149 266.9333 C148.4125 266.9511 146.8952 269.7657 147 269.9333 C147.5612 270.8312 150.802 274.0918 154 274.9333 C158.6149 276.1478 160.6089 273.8551 166 274.9333 C172.2896 276.1913 178.3558 279.9829 179 279.9333 C179.0236 279.9315 179 273.9333 179 273.9333 "/>
</g>
</g>
</svg>
