<?xml version="1.0" encoding="utf-8"?>
<!DOCTYPE svg PUBLIC "-//W3C//DTD SVG 1.1//EN" "http://www.w3.org/Graphics/SVG/1.1/DTD/svg11.dtd">
<svg viewBox="0 0 800 800" preserveAspectRatio="xMinYMin meet" xmlns="http://www.w3.org/2000/svg" version="1.1">
<g fill="none" stroke="black" stroke-linecap="round" stroke-linejoin="round" stroke-width="1.5265">
<g transform="translate(87.52,109.1381) scale(1.9653) translate(-214,-17.1333)">
<path id="0" d="M230 232.1333 C230 232.1333 232.6027 249.1734 230 263.1333 C227.477 276.6659 222.6961 277.6929 219 291.1333 C217.5704 296.3319 217.6886 299.1991 219 303.1333 C219.8743 305.7561 222.5966 308.947 225 309.1333 C270.8412 312.6869 295.2142 315.0321 348 313.1333 C355.0136 312.881 359.6227 308.741 364 304.1333 C366.5052 301.4963 367.375 297.8828 367 293.1333 C366.0429 281.0101 362.6334 279.4724 361 266.1333 C359.7044 255.5524 362.1613 254.5851 361 244.1333 C360.2375 237.271 357.3583 236.7614 357 230.1333 C356.4231 219.4603 355.6744 215.5582 359 207.1333 C361.8143 200.0039 367.6322 200.037 372 192.1333 C377.3989 182.3639 378.0837 180.0834 380 169.1333 C381.3214 161.5827 381.1751 159.5648 379 152.1333 C375.5763 140.4358 374.0425 139.5075 368 128.1333 C365.7348 123.8695 365.3786 123.0615 362 120.1333 C358.5169 117.1146 357.1266 115.4508 353 115.1333 C322.6257 112.7968 317.9316 112.3783 284 114.1333 C260.6917 115.3389 257.703 115.3106 237 121.1333 C228.5048 123.5226 225.8016 126.0795 220 132.1333 C216.0142 136.2925 214.9279 138.9475 214 145.1333 C212.1976 157.149 210.9217 160.7257 214 172.1333 C218.6273 189.2817 225.6973 190.3693 231 208.1333 C235.1177 221.9276 234 239.1333 234 239.1333 "/>
<path id="1" d="M232 118.1333 C232 118.1333 271.4812 100.5981 309 80.1333 C342.7146 61.7436 341.4778 58.388 375 40.1333 C391.4851 31.1563 392.3034 30.3515 410 25.1333 C430.3611 19.1294 453 17.1333 453 17.1333 "/>
<path id="2" d="M452 17.1333 C452 17.1333 465.7034 17.5118 479 19.1333 C486.0114 19.9884 486.4967 19.8822 493 22.1333 C499.0875 24.2406 500.0675 24.4988 505 28.1333 C508.8733 30.9874 510.2735 31.8581 512 36.1333 C519.9181 55.7402 526 80.1333 526 80.1333 "/>
<path id="3" d="M375 205.1333 C375 205.1333 378.1696 201.2983 382 199.1333 C400.543 188.6525 401.2848 188.6258 421 179.1333 C441.7362 169.1492 443.1006 171.1123 463 160.1333 C486.1288 147.3726 485.2014 144.3138 508 131.1333 C516.7203 126.0919 522.2144 127.7196 527 123.1333 C530.4771 119.8011 530.8205 115.446 532 108.1333 C533.1939 100.7312 532.8729 99.6988 532 92.1333 C531.4355 87.2413 529 82.1333 529 82.1333 "/>
<path id="4" d="M515 132.1333 C515 132.1333 513.0006 132.1215 513 132.1333 C512.7506 137.3715 511.9584 153.3006 513 174.1333 C513.9474 193.0812 517.8881 198.2199 517 212.1333 C516.7777 215.6156 514.2075 218.3959 510 221.1333 C475.5436 243.5507 471.3859 242.9032 434 266.1333 C420.0449 274.8045 420.8668 276.5772 407 285.1333 C397.6285 290.9158 397.1924 291.0564 387 295.1333 C377.4871 298.9385 367 301.1333 367 301.1333 "/>
<path id="5" d="M374 207.1333 L371 207.1333 "/>
<path id="6" d="M360 82.1333 C360 82.1333 380.8274 81.1584 390 84.1333 C393.0656 85.1276 395.8562 89.5583 397 94.1333 C398.7521 101.1419 397 112.1333 397 112.1333 "/>
<path id="7" d="M386 48.1333 C386 48.1333 404.3206 50.6784 417 55.1333 C420.0726 56.2129 421.3996 57.9326 423 61.1333 C426.2896 67.7126 426.4609 69.1815 428 77.1333 C429.3781 84.2537 429 92.1333 429 92.1333 "/>
<path id="8" d="M426 42.1333 C426 42.1333 450.0191 44.1686 459 51.1333 C467.6462 57.8386 475 80.1333 475 80.1333 "/>
<path id="9" d="M406 199.1333 L402 233.1333 "/>
<path id="10" d="M425 180.1333 L425 217.1333 "/>
<path id="11" d="M462 159.1333 L464 196.1333 "/>
<path id="12" d="M489 145.1333 L489 162.1333 "/>
</g>
</g>
</svg>
