<?xml version="1.0" encoding="utf-8"?>
<!DOCTYPE svg PUBLIC "-//W3C//DTD SVG 1.1//EN" "http://www.w3.org/Graphics/SVG/1.1/DTD/svg11.dtd">
<svg viewBox="0 0 800 800" preserveAspectRatio="xMinYMin meet" xmlns="http://www.w3.org/2000/svg" version="1.1">
<g fill="none" stroke="black" stroke-linecap="round" stroke-linejoin="round" stroke-width="0.96006">
<g transform="translate(87.52,276.5704) scale(3.1248) translate(-149,-190.3333)">
<path id="0" d="M152 201.3333 C152 201.3333 149.2538 209.9569 149 218.3333 C148.2727 242.3339 146.9591 265.2922 150 267.3333 C156.4603 271.6697 222 267.3333 222 267.3333 "/>
<path id="1" d="M224 269.3333 C224 269.3333 226.8457 243.5691 224 223.3333 C222.8082 214.8582 220.1185 209.03 215 205.3333 C207.374 199.8257 201.2277 199.223 188 197.3333 C174.3694 195.3861 169.472 196.3516 159 197.3333 C157.8151 197.4444 157.3174 199.8393 156 200.3333 C154.4032 200.9321 151 200.3333 151 200.3333 "/>
<path id="2" d="M226 268.3333 C226 268.3333 231.5479 262.6005 236 262.3333 C274.6764 260.0127 282.1071 264.2755 326 262.3333 C337.325 261.8322 349 257.3333 349 257.3333 "/>
<path id="3" d="M348 255.3333 C348 255.3333 350.0845 231.1356 348 211.3333 C347.3542 205.1984 345.7841 202.7852 342 198.3333 C338.5818 194.3119 336.1498 192.3142 331 191.3333 C317.9765 188.8527 300 190.3333 300 190.3333 "/>
<path id="4" d="M167 195.3333 C167 195.3333 168.7304 193.3503 170 193.3333 C231.663 192.5112 263.4727 194.4039 317 193.3333 C318.1142 193.311 320 190.3333 320 190.3333 "/>
<path id="5" d="M319 191.3333 L292 192.3333 "/>
<path id="6" d="M319 195.3333 C319 195.3333 321.393 194.813 322 195.3333 C326.3071 199.0251 331.8561 201.9406 333 207.3333 C337.3604 227.8894 336 261.3333 336 261.3333 "/>
<path id="7" d="M305 194.3333 C305 194.3333 308.4125 194.1994 310 195.3333 C314.2862 198.3949 315.946 199.5341 319 204.3333 C322.3557 209.6065 323.3597 211.0373 324 217.3333 C326.1851 238.8204 325.0003 263.3219 325 263.3333 C325 263.3348 323 257.3333 323 257.3333 "/>
<path id="8" d="M298 195.3333 C298 195.3333 301.735 205.2249 306 212.3333 C307.0565 214.0941 309.8875 214.2306 310 215.3333 C311.5221 230.2504 311 261.3333 311 261.3333 "/>
<path id="9" d="M278 195.3333 C278 195.3333 287.6445 203.9908 289 211.3333 C292.6977 231.3623 290 260.3333 290 260.3333 "/>
<path id="10" d="M260 194.3333 C260 194.3333 264.5291 198.5815 267 203.3333 C270.7377 210.5212 271.7857 211.4403 273 219.3333 C275.6052 236.2674 275 255.3333 275 255.3333 "/>
<path id="11" d="M276 253.3333 L276 261.3333 "/>
<path id="12" d="M245 192.3333 C245 192.3333 255.0523 200.2163 256 206.3333 C259.4398 228.5358 256.003 263.254 256 263.3333 C255.9998 263.3388 254 259.3333 254 259.3333 "/>
<path id="13" d="M221 193.3333 C221 193.3333 229.3212 193.6545 231 195.3333 C233.2384 197.5718 234.5575 201.4928 235 207.3333 C236.9448 233.0044 236 261.3333 236 261.3333 "/>
</g>
</g>
</svg>
