<?xml version="1.0" encoding="utf-8"?>
<!DOCTYPE svg PUBLIC "-//W3C//DTD SVG 1.1//EN" "http://www.w3.org/Graphics/SVG/1.1/DTD/svg11.dtd">
<svg viewBox="0 0 800 800" preserveAspectRatio="xMinYMin meet" xmlns="http://www.w3.org/2000/svg" version="1.1">
<g fill="none" stroke="black" stroke-linecap="round" stroke-linejoin="round" stroke-width="2.2465">
<g transform="translate(87.52,181.6646) scale(1.3354) translate(-68,-153.1333)">
<path id="0" d="M84 461.1333 C84 461.1333 99.4234 470.1339 115 474.1333 C135.2048 479.3211 136.6204 478.0304 158 480.1333 C166.8284 481.0017 167.3196 481.3575 176 480.1333 C205.6829 475.9473 205.9469 472.5789 236 469.1333 C283.9793 463.6325 310.0853 467.4727 333 462.1333 C335.3142 461.5941 337.0316 453.7229 339 445.1333 C342.4437 430.1064 343.0925 429.5614 344 414.1333 C346.0607 379.1013 339.8893 364.8539 345 343.1333 C346.3252 337.5014 360.2465 335.7873 364 329.1333 C368.0533 321.9479 368.4362 313.9474 367 304.1333 C365.9874 297.2138 363.2218 295.1828 358 288.1333 C353.5888 282.1781 353.0394 281.4472 347 277.1333 C336.1108 269.3554 335.4692 268.1514 323 263.1333 C295.3778 252.0171 293.9603 251.5343 265 244.1333 C249.7852 240.2451 248.9377 241.2325 233 240.1333 C220.1613 239.2479 219.5073 238.8028 207 240.1333 C196.642 241.2352 196.2664 242.0088 186 245.1333 C161.8998 252.4682 162.1688 254.1448 138 261.1333 C120.8638 266.0884 119.7765 263.8075 103 269.1333 C88.7843 273.6462 87.6447 274.811 75 281.1333 C72.7686 282.249 71.745 283.1113 71 285.1333 C68.8081 291.0828 67.553 293.8751 68 300.1333 C68.4038 305.7869 69.8104 309.3059 73 313.1333 C75.4773 316.1061 80.5984 315.3623 83 318.1333 C85.2141 320.6881 86.148 323.5465 86 328.1333 C85.2207 352.2927 81.5966 354.2811 81 380.1333 C80.1076 418.8029 83 458.1333 83 458.1333 "/>
<path id="1" d="M70 289.1333 C70 289.1333 71.6293 279.7341 76 275.1333 C88.5131 261.9617 91.2562 260.7723 108 249.1333 C131.925 232.5025 132.5149 231.9771 158 218.1333 C172.5125 210.25 173.1594 210.1621 189 205.1333 C235.7059 190.3061 236.8699 192.6349 284 178.1333 C321.2689 166.666 322.0507 161.0169 358 153.1333 C376.0917 149.1659 378.0898 152.2365 398 153.1333 C433.4528 154.7303 433.7821 154.6115 469 158.1333 C483.5305 159.5864 484.6553 158.758 498 163.1333 C514.0794 168.4053 517.7704 170.0875 530 178.1333 C533.6743 180.5506 535.0711 183.4887 536 188.1333 C537.6588 196.4273 539.43 204.2998 536 208.1333 C510.0945 237.0865 494.4297 247.6657 451 283.1333 C435.0287 296.1765 433.9967 296.0443 416 306.1333 C401.4023 314.3169 385 320.1333 385 320.1333 "/>
<path id="2" d="M523 229.1333 C523 229.1333 517.1926 241.0023 516 252.1333 C514.3483 267.5493 515.6249 268.9763 517 285.1333 C517.5925 292.0949 519.4068 292.213 520 299.1333 C520.8737 309.3267 521.0241 310.5749 520 320.1333 C519.643 323.4658 519.1757 324.7159 517 327.1333 C511.0561 333.7376 510.0345 334.5313 502 340.1333 C455.9497 372.2418 453.9772 370.5375 408 403.1333 C387.2149 417.8691 387.1651 418.6514 368 435.1333 C362.4764 439.8836 363.6298 442.2814 358 446.1333 C345.7091 454.5429 330 461.1333 330 461.1333 "/>
</g>
</g>
</svg>
