<?xml version="1.0" encoding="utf-8"?>
<!DOCTYPE svg PUBLIC "-//W3C//DTD SVG 1.1//EN" "http://www.w3.org/Graphics/SVG/1.1/DTD/svg11.dtd">
<svg viewBox="0 0 800 800" preserveAspectRatio="xMinYMin meet" xmlns="http://www.w3.org/2000/svg" version="1.1">
<g fill="none" stroke="black" stroke-linecap="round" stroke-linejoin="round" stroke-width="1.6753">
<g transform="translate(102.7411,87.52) scale(1.7907) translate(-148,-91)">
<path id="0" d="M174,222C174,222 194.28138890627022,210.3667018901388 210,195C260.30105949334216,145.8250836296431 299.93935510821154,90.73131183694038 308,91C315.30460415088026,91.24348680502933 362.4866986490382,166.9947960830809 390,201C390.8836368049103,202.09213537685537 395.06856532701977,199.72931929409196 397,201C410.09164178715525,209.6129222283916 413.49884239129494,212.58642921194783 428,226C453.27153240537836,249.376167474975 452.9787916046568,250.51684528936172 477,275C478.71813502225194,276.7511760803722 480.16934668424,278.76291464206406 480,279C471.4935857839462,290.9089799024754 456.3383861106925,308.79393666716896 432,338C403.85105848813845,371.7787298142339 404.543493553407,373.02351285984184 375,405C362.440862037429,418.59341991242985 358.93684416531033,417.33971073376176 347,430C343.5828378292747,433.62426290834503 342.0171710979841,440.0079722954926 342,440C340.38076546010194,439.24821253504734 329.6368386306383,429.15638700644376 319,417C294.7973381882577,389.3398150722945 296.69331714844696,387.187591607886 272,360C247.4203093799372,332.93751234760765 245.20942538871446,334.64177910398234 220,308C201.30184884842586,288.23945389663185 202.9792723696472,286.2428733747812 184,267C167.2533833057079,250.02079140717606 157.6245674055333,245.72451796616568 148,235C147.08666385864555,233.98228258534792 148.49780414327046,228.15452180207063 149,228C153.0298155332687,226.76005675899424 168.5769118791851,228.40598580910014 174,227C174.76336724281265,226.80208997408562 176,221 176,221"/>
<path id="1" d="M298,179L292,185"/>
<path id="2" d="M292,210L285,225"/>
<path id="3" d="M297,250L295,257"/>
<path id="4" d="M368,297L373,311"/>
<path id="5" d="M318,323L317,332"/>
<path id="6" d="M242,250L241,256"/>
<path id="7" d="M278,316L282,333"/>
<path id="8" d="M436,293L450,293"/>
<path id="9" d="M383,212C383,212 388.6663608460536,219.2493119036206 389,220C389.0034754078536,220.00781966767062 387.8854981792259,221 387,221C370.6182836843205,221 358.44218379378105,218.73367243093284 350,220C349.0721616183226,220.13917575725162 347.0221190635639,227.00552976589097 347,227C346.8717094313294,226.96792735783237 343.5153357168255,222.68376494291533 342,218C332.7946503407246,189.54710105314874 325,159 325,159"/>
<path id="10" d="M278,162L273,168"/>
</g>
</g>
</svg>
