<?xml version="1.0" encoding="utf-8"?>
<!DOCTYPE svg PUBLIC "-//W3C//DTD SVG 1.1//EN" "http://www.w3.org/Graphics/SVG/1.1/DTD/svg11.dtd">
<svg viewBox="0 0 800 800" preserveAspectRatio="xMinYMin meet" xmlns="http://www.w3.org/2000/svg" version="1.1">
<g fill="none" stroke="black" stroke-linecap="round" stroke-linejoin="round" stroke-width="2.4146">
<g transform="translate(87.52,168.9015) scale(1.2425) translate(-75,-101.4167)">
<path id="0" d="M109 260.4167 C109 260.4167 103.7789 362.9694 108 412.4167 C108.369 416.7394 114.9742 420.3308 123 424.4167 C141.3051 433.7356 143.9731 434.3281 163 440.4167 C167.217 441.7661 168.2645 439.571 173 440.4167 C195.6291 444.4576 197.5665 443.7187 219 450.4167 C228.2169 453.297 228.1801 458.2533 237 460.4167 C252.4105 464.1966 255.1264 460.423 272 463.4167 C285.4959 465.8111 285.4976 468.3479 299 471.4167 C307.1781 473.2753 311.9367 474.0262 316 473.4167 C316.9124 473.2798 319 470.5473 319 468.4167 C319 408.3326 313.6685 377.7112 316 327.4167 C316.1732 323.6806 320.6314 321.5651 326 317.4167 C331.2722 313.3427 333.4776 314.7651 338 310.4167 C345.559 303.1484 349.5452 300.8552 352 292.4167 C356.1797 278.0489 356.12 272.377 354 255.4167 C351.9016 238.6295 351.0986 234.3 343 220.4167 C335.374 207.3435 331.5038 206.9333 319 195.4167 C312.8286 189.7325 312.2099 187.8587 305 185.4167 C283.5508 178.1516 280.4035 180.9559 257 174.4167 C246.8111 171.5698 246.9822 168.6576 237 166.4167 C223.41 163.3659 222.4485 163.7263 208 163.4167 C152.8196 162.2342 141.2741 160.834 97 163.4167 C93.2473 163.6356 91.2435 166.3623 88 170.4167 C81.8784 178.0687 79.0778 179.7859 77 188.4167 C73.3289 203.6657 73.7855 207.7169 75 224.4167 C75.6584 233.4694 77.0361 234.9226 81 243.4167 C83.679 249.1573 84.641 249.4765 89 254.4167 C91.9391 257.7477 92.5445 259.2648 96 260.4167 C104.0629 263.1043 116 263.4167 116 263.4167 "/>
<path id="1" d="M95 163.4167 C95 163.4167 118.3935 153.8152 141 146.4167 C145.0893 145.0784 146.759 146.6632 150 145.4167 C151.9127 144.681 151.9513 142.0795 154 141.4167 C166.4857 137.3772 169.6582 139.2619 184 134.4167 C206.1924 126.9192 205.9646 120.9811 228 116.4167 C273.3734 107.0179 276.0894 109.1259 324 105.4167 C353.2245 103.1541 354.2053 106.0164 383 104.4167 C389.4199 104.06 389.6186 101.6621 396 101.4167 C427.6263 100.2003 430.9614 96.2302 461 101.4167 C497.1128 107.652 501.3073 112.9379 535 125.4167 C538.7486 126.8051 538.3748 129.8405 542 131.4167 C548.6927 134.3266 554.3936 131.9346 558 135.4167 C564.5679 141.7581 566.3845 147.1857 571 159.4167 C576.0523 172.8053 575.916 174.1263 578 188.4167 C579.319 197.461 579.1377 198.3155 578 207.4167 C576.7052 217.7753 577.1975 219.422 573 228.4167 C567.3394 240.5466 565.473 243.3385 557 252.4167 C553.2568 256.4272 545.0631 257.4065 545 258.4167 C544.7627 262.2142 553.482 271.7669 555 284.4167 C559.1432 318.9431 555.7117 321.485 557 358.4167 C557.2093 364.4173 556.813 365.9653 558 370.4167 C558.3677 371.7956 561.0338 373.3917 561 373.4167 C559.1508 374.7864 546.4532 384.1134 531 390.4167 C509.3644 399.2417 507.1319 395.7033 485 404.4167 C444.1091 420.5155 445.1304 424.9004 404 440.4167 C362.1717 456.1962 318 467.4167 318 467.4167 "/>
<path id="2" d="M328 317.4167 C328 317.4167 394.5251 283.064 458 267.4167 C496.2385 257.9904 543 264.4167 543 264.4167 "/>
<path id="3" d="M349 432.4167 C349 432.4167 367.0382 383.7334 383 335.4167 C385.3583 328.278 386 320.4167 386 320.4167 "/>
<path id="4" d="M387 401.4167 C387 401.4167 397.0204 389.8358 403 377.4167 C409.5664 363.7788 406.8315 361.2958 413 347.4167 C416.4822 339.5817 423 332.4167 423 332.4167 "/>
<path id="5" d="M429 388.4167 L444 350.4167 "/>
<path id="6" d="M340 409.4167 C340 409.4167 356.0501 386.5976 367 362.4167 C379.6661 334.4456 388 303.4167 388 303.4167 "/>
<path id="7" d="M342 382.4167 C342 382.4167 343.5003 372.7285 347 364.4167 C351.2876 354.2336 358 344.4167 358 344.4167 "/>
<path id="8" d="M334 366.4167 C334 366.4167 332.8168 357.1723 335 351.4167 C337.5258 344.7577 345 337.4167 345 337.4167 "/>
<path id="9" d="M187 147.4167 C187 147.4167 200.6503 145.8829 212 147.4167 C217.7546 148.1943 218.1074 151.2762 224 152.4167 C232.7217 154.1047 234.0164 151.7618 243 153.4167 C252.4149 155.151 252.6259 158.0775 262 159.4167 C276.2298 161.4495 277.9612 157.9537 292 160.4167 C305.2961 162.7493 319 169.4167 319 169.4167 "/>
<path id="10" d="M246 137.4167 C246 137.4167 278.1227 138.9785 307 147.4167 C353.6337 161.0434 400 182.4167 400 182.4167 "/>
<path id="11" d="M307 129.4167 C307 129.4167 328.7355 132.1814 349 138.4167 C386.7087 150.0193 386.3579 153.2278 424 165.4167 C438.5037 170.1131 439.8879 167.9421 454 172.4167 C459.6513 174.2085 465 178.4167 465 178.4167 "/>
<path id="12" d="M360 131.4167 C360 131.4167 377.0243 131.0878 392 135.4167 C439.6687 149.1959 488 168.4167 488 168.4167 "/>
<path id="13" d="M411 117.4167 C411 117.4167 418.1447 115.9098 423 117.4167 C431.0085 119.9021 431.2105 122.9267 440 126.4167 C464.8418 136.2803 466.6534 134.184 491 144.4167 C500.4049 148.3694 509 155.4167 509 155.4167 "/>
<path id="14" d="M462 118.4167 C462 118.4167 471.2286 116.7514 479 118.4167 C498.0041 122.489 499.0059 123.3818 518 130.4167 C539.2772 138.2971 560 148.4167 560 148.4167 "/>
<path id="15" d="M387 258.4167 L391 272.4167 "/>
<path id="16" d="M422 253.4167 L432 268.4167 "/>
<path id="17" d="M438 246.4167 C438 246.4167 440.841 246.394 442 247.4167 C448.0187 252.7272 455 261.4167 455 261.4167 "/>
<path id="18" d="M461 239.4167 C461 239.4167 466.1279 247.1318 472 252.4167 C475.4922 255.5597 481 257.4167 481 257.4167 "/>
<path id="19" d="M488 241.4167 C488 241.4167 494.0321 243.2045 498 246.4167 C503.851 251.1532 509 258.4167 509 258.4167 "/>
<path id="20" d="M513 240.4167 C513 240.4167 516.4358 240.2696 518 241.4167 C522.729 244.8846 522.8367 247.6876 528 251.4167 C531.048 253.618 536 254.4167 536 254.4167 "/>
<path id="21" d="M542 236.4167 L557 249.4167 "/>
<path id="22" d="M163 236.4167 C163 236.4167 164.1613 233.7761 165 233.4167 C166.2763 232.8697 167.8335 232.875 170 233.4167 C173.3581 234.2562 175.6599 235.268 177 236.4167 C177.36 236.7253 177.0063 239.4217 177 239.4167 C176.972 239.3942 172 232.4167 172 232.4167 "/>
<path id="23" d="M289 226.4167 C289 226.4167 287.1169 228.4167 287 228.4167 C286.9416 228.4167 286 226.4167 286 226.4167 "/>
<path id="24" d="M257 262.4167 L263 265.4167 "/>
<path id="25" d="M283 286.4167 L276 293.4167 "/>
<path id="26" d="M220 325.4167 L219 328.4167 "/>
<path id="27" d="M156 352.4167 L158 336.4167 "/>
<path id="28" d="M174 285.4167 L179 277.4167 "/>
<path id="29" d="M204 202.4167 L206 202.4167 "/>
<path id="30" d="M221 239.4167 L224 237.4167 "/>
<path id="31" d="M252 201.4167 C252 201.4167 253.28 199.4721 254 199.4167 C257.6516 199.1358 265 200.4167 265 200.4167 "/>
<path id="32" d="M149 189.4167 L150 184.4167 "/>
<path id="33" d="M112 200.4167 L114 192.4167 "/>
<path id="34" d="M142 325.4167 L142 323.4167 "/>
<path id="35" d="M239 399.4167 L253 393.4167 "/>
<path id="36" d="M309 300.4167 L310 298.4167 "/>
<path id="37" d="M264 360.4167 L262 360.4167 "/>
<path id="38" d="M221 371.4167 L207 373.4167 "/>
<path id="39" d="M199 401.4167 C199 401.4167 183.7405 402.7592 173 401.4167 C170.3149 401.081 167 397.4167 167 397.4167 "/>
<path id="40" d="M247 432.4167 L267 423.4167 "/>
<path id="41" d="M279 353.4167 L280 340.4167 "/>
<path id="42" d="M401 314.4167 C401 314.4167 413.9286 300.7874 428 293.4167 C443.6584 285.2147 445.9126 284.895 464 281.4167 C496.8333 275.1026 532 273.4167 532 273.4167 "/>
<path id="43" d="M383 283.4167 C383 283.4167 389.7553 278.805 397 276.4167 C434.5757 264.0291 474 253.4167 474 253.4167 "/>
</g>
</g>
</svg>
