<?xml version="1.0" encoding="utf-8"?>
<!DOCTYPE svg PUBLIC "-//W3C//DTD SVG 1.1//EN" "http://www.w3.org/Graphics/SVG/1.1/DTD/svg11.dtd">
<svg viewBox="0 0 800 800" preserveAspectRatio="xMinYMin meet" xmlns="http://www.w3.org/2000/svg" version="1.1">
<g fill="none" stroke="black" stroke-linecap="round" stroke-linejoin="round" stroke-width="1.5169">
<g transform="translate(87.52,280.3478) scale(1.9777) translate(-135,-160.4167)">
<path id="0" d="M135 275.4167 C135 275.4167 134.416 241.8884 136 209.4167 C136.3872 201.4786 136.1638 200.18 139 193.4167 C142.1543 185.8948 143.4086 185.0731 149 178.4167 C153.5974 172.9436 154.641 170.2466 160 168.4167 C171.661 164.4349 175.0951 164.7425 190 164.4167 C265.7942 162.76 266.5739 163.6562 343 164.4167 C366.9868 164.6553 367.576 163.8843 391 166.4167 C403.9462 167.8163 404.5323 168.4376 417 172.4167 C427.6621 175.8195 428.5275 176.1904 438 181.4167 C442.3274 183.8042 443.2868 184.7169 446 188.4167 C448.1509 191.3497 448.7933 192.5712 449 196.4167 C451.156 236.5185 451 281.4167 451 281.4167 "/>
<path id="1" d="M137 277.4167 L451 277.4167 "/>
<path id="2" d="M157 171.4167 L156 271.4167 "/>
<path id="3" d="M177 166.4167 L176 275.4167 "/>
<path id="4" d="M200 165.4167 C200 165.4167 198.0034 271.351 198 271.4167 C197.9998 271.4215 195 263.4167 195 263.4167 "/>
<path id="5" d="M223 164.4167 L222 270.4167 "/>
<path id="6" d="M246 166.4167 L246 275.4167 "/>
<path id="7" d="M262 162.4167 C262 162.4167 265.416 184.0027 266 205.4167 C266.9073 238.6846 265 272.4167 265 272.4167 "/>
<path id="8" d="M285 166.4167 L284 274.4167 "/>
<path id="9" d="M308 160.4167 L306 276.4167 "/>
<path id="10" d="M337 166.4167 C337 166.4167 334.61 189.4419 334 212.4167 C333.1131 245.8221 334 279.4167 334 279.4167 "/>
<path id="11" d="M362 165.4167 L362 278.4167 "/>
<path id="12" d="M388 167.4167 L388 278.4167 "/>
<path id="13" d="M403 168.4167 L402 276.4167 "/>
<path id="14" d="M426 174.4167 L425 276.4167 "/>
</g>
</g>
</svg>
