<?xml version="1.0" encoding="utf-8"?>
<!DOCTYPE svg PUBLIC "-//W3C//DTD SVG 1.1//EN" "http://www.w3.org/Graphics/SVG/1.1/DTD/svg11.dtd">
<svg viewBox="0 0 800 800" preserveAspectRatio="xMinYMin meet" xmlns="http://www.w3.org/2000/svg" version="1.1">
<g fill="none" stroke="black" stroke-linecap="round" stroke-linejoin="round" stroke-width="1.1905">
<g transform="translate(87.52,141.7) scale(2.52) translate(-210,-127.9167)">
<path id="0" d="M210 155.9167 C210 155.9167 214.3566 161.1634 217 166.9167 C222.6888 179.2981 224.1339 179.7327 227 192.9167 C236.3855 236.09 233.1853 245.9233 242 281.9167 C243.0657 286.2682 248.7467 286.2491 251 290.9167 C254.7847 298.7563 252.1962 303.8162 256 310.9167 C258.2404 315.0987 261.0566 317.7473 266 318.9167 C301.8776 327.4038 307.8866 327.4349 349 332.9167 C359.6578 334.3377 361.1452 334.5591 371 332.9167 C377.7192 331.7968 377.8931 328.575 385 326.9167 C407.0899 321.7624 408.5234 323.6486 431 318.9167 C436.5819 317.7415 439.6695 317.7768 442 314.9167 C447.7463 307.8643 449.9255 303.4459 453 291.9167 C457.5445 274.8748 459.4328 271.7004 458 254.9167 C456.197 233.7956 453.4394 230.4636 446 209.9167 C443.5488 203.1467 438.2425 203.1291 437 196.9167 C432.1308 172.5709 435.9072 166.8765 432 139.9167 C431.1387 133.9737 427.7957 127.8797 427 127.9167 C412.3558 128.5978 386.3666 139.2114 346 143.9167 C305.8844 148.5927 304.8002 144.3055 264 146.9167 C242.4959 148.2929 241.2291 148.1705 221 151.9167 C215.5078 152.9338 210 156.9167 210 156.9167 "/>
</g>
</g>
</svg>
