<?xml version="1.0" encoding="utf-8"?>
<!DOCTYPE svg PUBLIC "-//W3C//DTD SVG 1.1//EN" "http://www.w3.org/Graphics/SVG/1.1/DTD/svg11.dtd">
<svg viewBox="0 0 800 800" preserveAspectRatio="xMinYMin meet" xmlns="http://www.w3.org/2000/svg" version="1.1">
<g fill="none" stroke="black" stroke-linecap="round" stroke-linejoin="round" stroke-width="1.6849">
<g transform="translate(87.52,280.7056) scale(1.7805) translate(-9.5,-164.8333)">
<path id="0" d="M209.5 184.6667 L342.5 184.6667 "/>
<path id="1" d="M211.5 185.6667 C211.5 185.6667 212.6494 195.2186 210.5 201.6667 C208.2629 208.3779 204.734 208.8752 201.5 215.6667 C200.1777 218.4434 201.8055 219.7293 200.5 222.6667 C194.2452 236.74 185.1772 250.3754 185.5 251.6667 C185.6119 252.1142 197.0608 254.3054 208.5 254.6667 C244.1627 255.7929 244.7468 253.1893 280.5 254.6667 C304.9346 255.6764 305.0846 257.6977 329.5 259.6667 C335.9247 260.1848 337.9252 260.5244 342.5 259.6667 C343.7537 259.4316 345.3713 257.8893 345.5 256.6667 C346.8626 243.7221 344.6689 237.4142 346.5 221.6667 C346.9414 217.8706 350.059 217.4148 350.5 213.6667 C351.8535 202.1621 350.5 187.6667 350.5 187.6667 "/>
<path id="2" d="M183.5 253.6667 C183.5 253.6667 192.2609 277.0403 193.5 278.6667 C193.5217 278.6952 196.94 274.7345 199.5 274.6667 C260.2922 273.0563 326.7474 277.2377 344.5 274.6667 C344.8724 274.6127 344.5 253.6667 344.5 253.6667 "/>
<path id="3" d="M350.5 185.6667 C350.5 185.6667 361.683 202.4394 360.5 211.6667 C357.8886 232.0355 348.4794 238.9304 340.5 263.6667 C339.1349 267.8986 340.5 273.6667 340.5 273.6667 "/>
<path id="4" d="M10.5 250.8333 C10.5 250.8333 9.4431 205.2302 11.5 178.8333 C11.6538 176.8595 13.7617 175.5448 16.5 173.8333 C21.2604 170.8581 22.3495 169.1169 27.5 168.8333 C72.2915 166.3678 125.5 167.8333 125.5 167.8333 "/>
<path id="5" d="M10.5 246.8333 C10.5 246.8333 9.6901 267.8249 10.5 284.8333 C10.5873 286.6663 12.5 288.8333 12.5 288.8333 "/>
<path id="6" d="M119.5 164.8333 C119.5 164.8333 150.8774 163.6397 165.5 164.8333 C166.5574 164.9197 167.8939 166.7726 168.5 168.8333 C172.4799 182.365 174.5688 184.0669 175.5 198.8333 C177.9778 238.1246 176.8855 250.3921 175.5 279.8333 C175.4284 281.3556 173.6745 282.7461 171.5 283.8333 C165.52 286.8233 164.1366 288.6695 157.5 288.8333 C87.967 290.5502 9.5 287.8333 9.5 287.8333 "/>
<path id="7" d="M27.5 165.8333 L26.5 288.8333 "/>
<path id="8" d="M50.5 174.8333 L50.5 271.8333 "/>
<path id="9" d="M83.5 168.8333 C83.5 168.8333 89.9272 180.1962 90.5 190.8333 C93.2644 242.1724 90.4926 298.7511 90.5 298.8333 C90.5013 298.8473 98.5 279.8333 98.5 279.8333 "/>
<path id="10" d="M133.5 171.8333 L134.5 283.8333 "/>
<path id="11" d="M164.5 175.8333 C164.5 175.8333 164.5026 297.7337 164.5 297.8333 C164.4999 297.839 161.5 290.8333 161.5 290.8333 "/>
<path id="12" d="M74.5 181.8333 C74.5 181.8333 75.9471 198.8786 73.5 213.8333 C71.6505 225.1361 66.6427 225.6922 65.5 236.8333 C62.8616 262.5576 65.5 291.8333 65.5 291.8333 "/>
<path id="13" d="M201.5 268.8333 C201.5 268.8333 251.7829 270.0933 300.5 268.8333 C308.9037 268.616 317.5006 265.8334 317.5 265.8333 C317.4963 265.8332 215.5 264.8333 215.5 264.8333 C215.5 264.8333 330.4822 264.8322 330.5 264.8333 C330.5033 264.8336 319.2577 270.2955 308.5 270.8333 C251.5515 273.6808 190.5 271.8333 190.5 271.8333 C190.5 271.8333 221.6297 272.7688 252.5 271.8333 C270.9679 271.2737 289.5 268.8333 289.5 268.8333 C289.4999 268.8333 201.5 268.8333 201.5 268.8333 C201.5 268.8333 254.4263 268.8303 254.5 268.8333 C254.5054 268.8336 252.3714 270.7164 250.5 270.8333 C223.2224 272.5382 197.5086 272.8333 190.5 272.8333 C190.5 272.8333 190.3174 270.9246 190.5 270.8333 C193.9685 269.0991 206.4397 265.0445 206.5 264.8333 C206.5261 264.7421 194.5178 256.8356 194.5 256.8333 C194.4933 256.8325 196.0363 262.0735 198.5 263.8333 C204.718 268.2748 215.4999 271.8335 215.5 271.8333 C215.5004 271.8323 200.4047 258.8476 200.5 258.8333 C201.2444 258.7221 302.4999 258.8333 302.5 258.8333 C302.5 258.8333 283.9678 261.2793 265.5 261.8333 C234.1312 262.7744 202.5009 261.8332 202.5 261.8333 C202.4996 261.8334 216.0873 265.2914 229.5 265.8333 C265.0543 267.2699 301.5 265.8333 301.5 265.8333 C301.5 265.8333 250.5 266.8333 250.5 266.8333 C250.5 266.8333 340.5 266.8333 340.5 266.8333 C340.5 266.8333 333.5477 265.6238 327.5 266.8333 C306.9377 270.9458 285.51 277.8279 285.5 277.8333 C285.4959 277.8356 303.2547 278.9456 305.5 278.8333 C305.5113 278.8328 305.5 276.8333 305.5 276.8333 "/>
<path id="14" d="M114.5 167.8333 L114.5 290.8333 "/>
</g>
</g>
</svg>
