<?xml version="1.0" encoding="utf-8"?>
<!DOCTYPE svg PUBLIC "-//W3C//DTD SVG 1.1//EN" "http://www.w3.org/Graphics/SVG/1.1/DTD/svg11.dtd">
<svg viewBox="0 0 800 800" preserveAspectRatio="xMinYMin meet" xmlns="http://www.w3.org/2000/svg" version="1.1">
<g fill="none" stroke="black" stroke-linecap="round" stroke-linejoin="round" stroke-width="1.6321">
<g transform="translate(87.52,106.8202) scale(1.8381) translate(-135,-78)">
<path id="0" d="M471 110 L473 373 "/>
<path id="1" d="M135 106 L136 376 "/>
<path id="2" d="M136 378 C136 378 142.0937 382.4427 146 387 C147.4926 388.7414 146.8637 391.4589 148 392 C153.5456 394.6408 157.7744 396.8545 167 397 C311.0986 399.2728 361.9027 400.0323 465 397 C467.8593 396.9159 471.8622 391.9824 473 388 C474.9156 381.2954 473 369 473 369 "/>
<path id="3" d="M135 108 C135 108 134.154 104.692 135 103 C138.807 95.386 139.8521 91.675 146 86 C150.9431 81.4371 153.8912 79.9389 161 79 C177.9634 76.7596 181.2194 75.8249 199 79 C235.2965 85.4815 236.6702 92.945 273 99 C294.61 102.6017 298.7294 103.4342 319 99 C343.0576 93.7374 344.9413 82.4711 369 78 C397.1192 72.7743 402.4375 74.8212 432 78 C446.5819 79.5679 449.9436 81.5307 462 88 C467.945 91.19 470.7494 94.287 473 100 C476.0021 107.6208 475 121 475 121 "/>
<path id="4" d="M143 112 L144 372 "/>
<path id="5" d="M145 371 C145 371 151.7613 374.922 158 375 C304.7642 376.8346 465 375 465 375 "/>
<path id="6" d="M461 112 C461 112 463.9511 116.7123 464 121 C465.3751 241.5507 464 375 464 375 "/>
<path id="7" d="M146 120 C146 120 144.0439 118.7677 144 118 C143.3153 106.018 144 85 144 85 "/>
</g>
</g>
</svg>
