<?xml version="1.0" encoding="utf-8"?>
<!DOCTYPE svg PUBLIC "-//W3C//DTD SVG 1.1//EN" "http://www.w3.org/Graphics/SVG/1.1/DTD/svg11.dtd">
<svg viewBox="0 0 800 800" preserveAspectRatio="xMinYMin meet" xmlns="http://www.w3.org/2000/svg" version="1.1">
<g fill="none" stroke="black" stroke-linecap="round" stroke-linejoin="round" stroke-width="1.0321">
<g transform="translate(87.52,120.9481) scale(2.9068) translate(-192,-134.4167)">
<path id="0" d="M197 227.4167 C197 227.4167 201.1072 221.8765 205 220.4167 C211.1368 218.1154 213.5392 220.2073 221 218.4167 C225.5091 217.3345 225.6858 215.2795 230 214.4167 C234.8425 213.4482 237.8059 212.6967 241 214.4167 C247.5446 217.9407 249.7125 225.6921 256 228.4167 C260.3475 230.3006 264.2259 228.9799 271 227.4167 C276.4056 226.1692 277.9909 225.2803 282 222.4167 C283.808 221.1252 283.2755 218.6709 285 217.4167 C287.6459 215.4924 290.0064 216.3217 293 214.4167 C294.6753 213.3506 294.8698 210.5905 296 210.4167 C303.1898 209.3105 307.9872 209.6825 319 210.4167 C322.4156 210.6444 323.5749 210.8734 326 212.4167 C328.1053 213.7564 329.6188 215.225 330 217.4167 C331.2046 224.343 330.8973 226.6227 330 235.4167 C328.4291 250.8111 325.9275 251.021 325 266.4167 C323.4592 291.9932 326.0302 299.5305 325 318.4167 C324.9373 319.5657 323.5823 320.8139 322 321.4167 C314.3975 324.3129 312.5754 326.3326 304 326.4167 C264.1086 326.8078 251.3184 327.0811 220 322.4167 C215.7465 321.7832 215.1633 316.1458 210 312.4167 C206.952 310.2153 203.7487 311.1653 202 309.4167 C200.5693 307.9859 200.6695 305.9556 200 302.4167 C197.1919 287.5738 195.9799 287.3111 195 272.4167 C193.5138 249.8263 195 226.4167 195 226.4167 "/>
<path id="1" d="M192 222.4167 C192 222.4167 197.0595 216.3152 203 212.4167 C212.545 206.1527 214.5178 207.7382 224 201.4167 C230.4702 197.1032 229.4593 194.7771 236 190.4167 C252.9156 179.1396 255.4314 181.2867 272 169.4167 C288.3409 157.7098 303 142.4167 303 142.4167 "/>
<path id="2" d="M332 211.4167 C332 211.4167 345.0289 205.7307 356 198.4167 C362.4931 194.0879 361.5442 191.9162 368 187.4167 C377.6389 180.6986 380.8798 182.6089 389 175.4167 C396.9148 168.4064 397.3379 165.4761 403 156.4167 C404.1477 154.5803 404 151.4167 404 151.4167 "/>
<path id="3" d="M300 144.4167 C300 144.4167 303.9929 139.0195 308 137.4167 C314.7527 134.7156 316.5758 135.4697 325 134.4167 C328.3939 133.9924 329.8273 133.5114 332 134.4167 C334.1986 135.3328 334.8827 138.9564 337 139.4167 C343.2611 140.7778 346.2938 140.3579 355 139.4167 C364.3991 138.4006 364.6982 136.0509 374 135.4167 C386.0331 134.5962 389.8846 134.5936 399 136.4167 C401.1703 136.8507 402.9873 138.8849 404 141.4167 C406.3437 147.2759 407 149.6213 407 156.4167 C407 161.853 404.4731 162.4436 404 168.4167 C400.5439 212.0497 404.8099 222.2157 399 257.4167 C397.9664 263.6792 393.7724 266.3808 387 271.4167 C375.4698 279.9904 372.1545 278.002 360 286.4167 C353.3976 290.9876 353.9308 294.0466 348 298.4167 C345.5887 300.1934 342.4307 298.9859 341 300.4167 C339.2513 302.1653 340.2069 305.7005 338 308.4167 C334.5905 312.613 328 316.4167 328 316.4167 "/>
</g>
</g>
</svg>
