<?xml version="1.0" encoding="utf-8"?>
<!DOCTYPE svg PUBLIC "-//W3C//DTD SVG 1.1//EN" "http://www.w3.org/Graphics/SVG/1.1/DTD/svg11.dtd">
<svg viewBox="0 0 800 800" preserveAspectRatio="xMinYMin meet" xmlns="http://www.w3.org/2000/svg" version="1.1">
<g fill="none" stroke="black" stroke-linecap="round" stroke-linejoin="round" stroke-width="1.9729">
<g transform="translate(87.52,148.3434) scale(1.5206) translate(-115,-16.4167)">
<path id="0" d="M161 335.4167 C161 335.4167 185.5783 317.5064 211 301.4167 C224.9077 292.6143 226.414 294.5292 240 285.4167 C267.0677 267.2615 272.5767 249.5154 293 246.4167 C323.9971 241.7137 339.5026 256.862 385 263.4167 C397.5245 265.2211 398.017 263.7412 411 263.4167 C437.9896 262.7419 438.9457 263.4522 465 261.4167 C469.9237 261.032 470.5111 260.6611 475 258.4167 C491.0038 250.4148 491.9957 249.7437 507 240.4167 C509.8168 238.6657 511.914 236.7063 512 235.4167 C512.1569 233.0631 510.6948 227.4128 508 225.4167 C500.8167 220.0957 496.7046 219.2473 485 215.4167 C469.5775 210.3693 466.8126 214.0607 453 207.4167 C429.3304 196.0313 429.3056 190.4067 406 177.4167 C400.0642 174.1082 392 173.4167 392 173.4167 "/>
<path id="1" d="M402 174.4167 C402 174.4167 409.982 166.1554 419 160.4167 C431.4987 152.463 434.2518 154.6938 446 146.4167 C455.2349 139.9103 455.8835 138.4491 463 129.4167 C468.4065 122.5545 469.2792 121.3317 472 113.4167 C474.3779 106.4991 474 97.4167 474 97.4167 "/>
<path id="2" d="M474 96.4167 C474 96.4167 494.7693 97.9314 510 94.4167 C517.6475 92.6519 521.5991 87.7173 526 84.4167 C526.2809 84.206 526.1927 82.5204 526 82.4167 C523.1916 80.9045 519.2805 78.8441 513 77.4167 C509.0015 76.5079 506.8685 78.6916 504 77.4167 C499.9983 75.6381 499.5833 71.7083 495 69.4167 C489.8879 66.8606 482.3493 67.6509 482 66.4167 C479.3554 57.0725 480.227 16.8707 480 16.4167 C479.9622 16.341 471.059 24.0494 465 32.4167 C461.0877 37.8194 462.8 40.4292 459 45.4167 C455.6223 49.85 452.3186 48.7706 449 53.4167 C440.7348 64.9879 442.3495 74.1955 434 80.4167 C423.4921 88.2461 412.9358 83.6821 398 91.4167 C387.497 96.8557 388.9076 102.7043 378 109.4167 C351.1631 125.9317 348.615 123.8727 320 139.4167 C308.2126 145.8197 307.7521 145.597 297 153.4167 C280.5037 165.414 281.5253 167.8801 265 179.4167 C255.5499 186.0139 253.3168 183.6316 244 190.4167 C208.1011 216.5604 207.5249 217.5866 173 246.4167 C159.2571 257.8927 153.6947 259.0734 147 271.4167 C140.6216 283.1768 144.6836 293.752 141 305.4167 C140.3951 307.3323 137.1774 306.9423 135 309.4167 C126.7689 318.7702 126.6024 319.7733 119 330.4167 C116.6891 333.6519 115.7725 334.1338 115 337.4167 C114.0273 341.5507 114.8151 347.3784 115 347.4167 C117.5172 347.9375 133.0626 347.7407 144 343.4167 C150.8452 340.7104 158 330.4167 158 330.4167 "/>
<path id="3" d="M143 297.4167 C143 297.4167 148.6043 298.4157 153 297.4167 C158.7744 296.1043 164.0484 294.1296 165 292.4167 C165.9697 290.6712 164.2051 280.1627 163 279.4167 C160.7211 278.0059 144 279.4167 144 279.4167 "/>
<path id="4" d="M175 286.4167 C175 286.4167 177.4621 283.7475 178 281.4167 C178.756 278.1408 178.7531 274.3581 178 273.4167 C177.2092 272.4282 172.2232 271.2146 170 271.4167 C169.0694 271.5013 167.3531 273.1221 167 274.4167 C166.2602 277.1291 166.1257 279.7939 167 282.4167 C167.5828 284.1652 169.2515 285.5424 171 286.4167 C172.1657 286.9995 175 286.4167 175 286.4167 "/>
<path id="5" d="M195 261.4167 C195 261.4167 202.6168 267.8919 206 274.4167 C208.8137 279.8432 209 288.4167 209 288.4167 "/>
<path id="6" d="M189 258.4167 C189 258.4167 193.8402 258.1445 196 256.4167 C200.0181 253.2022 201.3142 248.2761 204 246.4167 C204.7753 245.8799 208.304 246.453 209 247.4167 C212.438 252.1769 215.6449 256.4795 217 264.4167 C218.7583 274.715 216 288.4167 216 288.4167 "/>
<path id="7" d="M211 255.4167 C211 255.4167 209.0224 252.7088 208 252.4167 C207.0154 252.1354 204.173 252.9841 204 253.4167 C203.4011 254.914 203.5825 261.4772 204 262.4167 C204.0825 262.6022 207.2406 262.9591 208 262.4167 C209.2476 261.5255 211 257.4167 211 257.4167 "/>
<path id="8" d="M228 238.4167 C228 238.4167 226.0118 238.3637 226 238.4167 C225.7618 239.4887 225.3114 246.433 226 247.4167 C226.4514 248.0615 232.5053 248.8564 233 248.4167 C233.8095 247.6971 235.2933 241.03 235 239.4167 C234.9074 238.9072 231 237.4167 231 237.4167 "/>
<path id="9" d="M250 223.4167 C250 223.4167 246.2763 222.8697 245 223.4167 C244.1613 223.7761 243.1206 225.2104 243 226.4167 C242.7399 229.0177 243.4958 233.1417 244 233.4167 C244.9894 233.9563 253.09 233.2357 254 232.4167 C254.6011 231.8757 254 224.4167 254 224.4167 "/>
<path id="10" d="M269 209.4167 C269 209.4167 266.7639 215.9445 267 216.4167 C267.1574 216.7314 271.6405 217.8698 273 217.4167 C274.0396 217.0701 275.684 214.9967 276 213.4167 C276.3984 211.4245 275 207.4167 275 207.4167 "/>
<path id="11" d="M379 165.4167 C379 165.4167 367.025 179.8492 355 190.4167 C351.7262 193.2936 349.3585 191.6179 346 194.4167 C338.2845 200.8463 339.0745 204.961 331 210.4167 C322.2153 216.3523 318.8374 213.7601 309 219.4167 C299.5698 224.839 299.1069 225.9583 291 233.4167 C286.9886 237.1072 284 242.4167 284 242.4167 "/>
<path id="12" d="M382 173.4167 C382 173.4167 380.9934 171.4193 381 171.4167 C381.1976 171.3376 384.5115 170.7057 387 171.4167 C390.792 172.5001 395 175.4167 395 175.4167 "/>
<path id="13" d="M289 196.4167 C289 196.4167 287.9148 201.3779 288 201.4167 C288.8034 201.7818 298.65 201.8667 300 201.4167 C300.15 201.3667 300.5828 198.5824 300 197.4167 C299.1257 195.6681 297.7485 194.2909 296 193.4167 C294.8343 192.8338 292.9649 192.8653 292 193.4167 C290.7249 194.1453 289 197.4167 289 197.4167 "/>
<path id="14" d="M274 205.4167 L269 209.4167 "/>
<path id="15" d="M315 184.4167 C315 184.4167 311.8516 184.5651 311 185.4167 C309.4671 186.9495 307.892 190.4443 308 191.4167 C308.0657 192.0077 310.6365 194.2927 312 194.4167 C314.1758 194.6145 317.1594 193.8892 319 192.4167 C320.6694 191.0811 322.1899 187.3662 322 186.4167 C321.8242 185.5375 317 182.4167 317 182.4167 "/>
<path id="16" d="M332 171.4167 C332 171.4167 326.7775 174.1726 326 175.4167 C325.6614 175.9584 326.3481 178.8734 327 179.4167 C327.8776 180.148 330.8618 180.934 332 180.4167 C334.1853 179.4233 338 174.5482 338 174.4167 C338 174.3948 332 173.4167 332 173.4167 "/>
<path id="17" d="M347 160.4167 C347 160.4167 344.8692 165.2205 345 165.4167 C345.1783 165.6842 348.4797 166.6458 351 166.4167 C353.2101 166.2158 355.7006 165.0903 356 164.4167 C356.4649 163.3707 355.9868 158.6854 355 157.4167 C354.1542 156.3292 349.3261 155.2304 349 155.4167 C348.7027 155.5866 348 161.4167 348 161.4167 "/>
<path id="18" d="M367 146.4167 C367 146.4167 363.0199 146.3472 363 146.4167 C362.8883 146.8075 364.755 153.3248 365 153.4167 C365.2384 153.5061 370.2184 150.5109 371 149.4167 C371.2156 149.1148 370 146.4167 370 146.4167 "/>
<path id="19" d="M302 149.4167 C302 149.4167 289.6151 144.6874 277 142.4167 C240.0194 135.7602 236.5103 139.0013 202 131.4167 C193.986 129.6553 193.758 125.0919 186 122.4167 C180.5806 120.5479 174.8203 121.8367 173 121.4167 C172.9365 121.402 173.0128 119.4152 173 119.4167 C172.4612 119.4765 166.4494 120.3441 164 122.4167 C161.7138 124.3511 162.6347 127.2273 160 130.4167 C153.6159 138.1447 146.5324 141.739 145 145.4167 C144.5012 146.6137 146.8751 150.6407 150 154.4167 C158.4971 164.684 159.0918 164.897 169 174.4167 C184.5206 189.3286 186.9834 188.6623 201 203.4167 C204.9407 207.5648 207 214.4167 207 214.4167 "/>
<path id="20" d="M472 71.4167 C472 71.4167 442.1217 95.163 442 95.4167 C441.9758 95.4671 460 96.4167 460 96.4167 "/>
<path id="21" d="M442 57.4167 C442 57.4167 427.9324 58.2256 422 57.4167 C421.2854 57.3192 420.0018 54.4044 420 54.4167 C419.9842 54.5219 420.6756 67.363 419 77.4167 C418.4455 80.7438 415 84.4167 415 84.4167 "/>
</g>
</g>
</svg>
