<?xml version="1.0" encoding="utf-8"?>
<!DOCTYPE svg PUBLIC "-//W3C//DTD SVG 1.1//EN" "http://www.w3.org/Graphics/SVG/1.1/DTD/svg11.dtd">
<svg viewBox="0 0 800 800" preserveAspectRatio="xMinYMin meet" xmlns="http://www.w3.org/2000/svg" version="1.1">
<g fill="none" stroke="black" stroke-linecap="round" stroke-linejoin="round" stroke-width="1.8097">
<g transform="translate(87.52,202.7315) scale(1.6577) translate(-143,-196.1333)">
<path id="0" d="M281 207.1333 C281 207.1333 317.7785 209.4783 354 209.1333 C369.8962 208.9819 370.0387 206.6321 386 206.1333 C417.8294 205.1387 418.9137 208.5956 450 206.1333 C468.2796 204.6854 484.5878 196.6625 487 198.1333 C488.8115 199.2379 490.0036 214.6931 491 231.1333 C491.9891 247.4537 489.0209 248.3006 491 264.1333 C493.4064 283.3845 497.1083 283.7588 500 303.1333 C502.0177 316.6518 501 331.1333 501 331.1333 "/>
<path id="1" d="M283 208.1333 C283 208.1333 273.346 204.3016 264 203.1333 C253.9991 201.8832 249.7047 201.5861 243 203.1333 C240.9616 203.6037 238.2577 206.5137 238 209.1333 C233.3685 256.22 236.7526 270.4836 231 325.1333 C230.126 333.4367 226.4675 334.026 224 342.1333 C223.2261 344.6761 223.9782 348.1327 224 348.1333 C259.355 349.1471 494.367 350.2903 503 350.1333 C503.1198 350.1312 499.2788 346.0608 499 343.1333 C498.4784 337.6561 501 329.1333 501 329.1333 "/>
<path id="2" d="M234 243.1333 C234 243.1333 197.6345 239.3941 164 240.1333 C153.8473 240.3565 143.7686 244.5569 143 245.1333 C142.9922 245.1392 146.9674 248.6484 148 252.1333 C150.5431 260.7164 150.322 262.1887 151 272.1333 C151.8054 283.946 151.8999 284.4345 151 296.1333 C150.4289 303.5576 148.1769 303.8799 148 311.1333 C147.6954 323.6214 147.2065 332.8034 150 337.1333 C151.7005 339.7692 159.2081 341.5769 168 342.1333 C197.2802 343.9865 229 342.1333 229 342.1333 "/>
<path id="3" d="M154 285.1333 C154 285.1333 198.7203 286.1991 202 283.1333 C204.389 280.9002 200 242.1333 200 242.1333 "/>
<path id="4" d="M179 241.1333 C179 241.1333 178.2981 255.2198 180 267.1333 C180.6231 271.4951 183.2823 271.8272 184 276.1333 C185.1137 282.8152 182.8163 284.268 184 291.1333 C185.1728 297.9355 188.455 298.457 189 305.1333 C190.3208 321.3135 188 340.1333 188 340.1333 "/>
<path id="5" d="M198 302.1333 L199 302.1333 "/>
<path id="6" d="M170 343.1333 C170 343.1333 171.5147 351.0838 172 351.1333 C180.0467 351.9544 219 348.1333 219 348.1333 "/>
<path id="7" d="M144 243.1333 C144 243.1333 144.3131 238.495 146 236.1333 C148.5447 232.5708 150.1271 230.1661 154 229.1333 C169.0468 225.1209 172.5839 225.5077 191 224.1333 C205.7829 223.0301 209.2698 221.4674 221 224.1333 C227.3628 225.5794 235 234.1333 235 234.1333 "/>
<path id="8" d="M506 347.1333 C506 347.1333 506.0425 337.1399 506 337.1333 C505.6745 337.0833 493.7653 344.0279 493 345.1333 C492.8996 345.2784 495.8811 349.9841 497 350.1333 C499.5415 350.4722 508 347.1333 508 347.1333 "/>
<path id="9" d="M223 348.1333 C223 348.1333 224 388.1333 224 388.1333 C224 388.1333 223.1492 384.402 224 382.1333 C225.737 377.5014 226.5561 375.0033 230 372.1333 C233.8844 368.8963 236.17 367.8135 242 367.1333 C264.3472 364.5262 272.1602 363.8359 290 365.1333 C292.7722 365.3349 294.5244 367.9151 297 371.1333 C299.0239 373.7644 299.6349 374.7563 300 378.1333 C301.5008 392.0154 302.548 395.1298 301 408.1333 C300.3413 413.6663 298.9504 416.7096 295 420.1333 C286.2962 427.6766 282.2427 431.1064 271 434.1333 C259.6639 437.1854 253.0149 436.9947 243 434.1333 C236.7662 432.3523 234.8421 428.5596 229 422.1333 C225.3487 418.1169 224.0099 416.8943 223 412.1333 C220.9205 402.3299 222 389.1333 222 389.1333 "/>
<path id="10" d="M226 359.1333 C226 359.1333 240.8596 357.3329 255 358.1333 C266.8359 358.8033 267.0817 361.2338 279 362.1333 C293.2224 363.2067 308 362.1333 308 362.1333 "/>
<path id="11" d="M289 353.1333 C289 353.1333 300.5909 354.3454 310 357.1333 C313.0474 358.0363 313.7545 358.674 316 361.1333 C323.7458 369.6169 326.171 370.7436 331 380.1333 C334.1711 386.2994 334.8337 390.0891 334 396.1333 C333.253 401.549 331.4009 404.7324 327 409.1333 C320.8387 415.2946 318.4926 417.1708 310 420.1333 C298.8345 424.0283 284 424.1333 284 424.1333 "/>
<path id="12" d="M261 391.1333 C261 391.1333 256.8516 388.6977 255 389.1333 C250.8438 390.1113 247.5479 391.8388 244 395.1333 C241.9661 397.022 240.8472 399.8408 241 402.1333 C241.1858 404.9204 242.5012 407.6345 245 410.1333 C247.9153 413.0486 250.6054 414.776 254 415.1333 C257.4509 415.4966 263.0759 413.6455 264 412.1333 C265.5834 409.5423 265.6117 403.2508 265 397.1333 C264.7824 394.9573 262 392.1333 262 392.1333 "/>
<path id="13" d="M183 353.1333 C183 353.1333 180.3054 369.7797 182 372.1333 C183.8244 374.6672 197.4381 376.0712 201 378.1333 C201.4588 378.399 201.818 381.2928 201 383.1333 C196.5283 393.1947 189 402.5761 189 405.1333 C189 405.8307 195.0268 409.4856 201 411.1333 C208.6777 413.2513 218 413.1333 218 413.1333 "/>
<path id="14" d="M153 347.1333 C153 347.1333 154.4937 371.1586 157 373.1333 C159.9685 375.4722 186 373.1333 186 373.1333 "/>
<path id="15" d="M163 341.1333 L163 340.1333 "/>
<path id="16" d="M474 350.1333 C474 350.1333 458.6392 350.9336 448 355.1333 C441.9347 357.5275 439.7418 359.7285 436 365.1333 C431.8808 371.0832 431.292 373.3813 430 381.1333 C428.48 390.2534 427.2502 396.0679 430 401.1333 C433.4804 407.5447 439.2592 410.2298 449 416.1333 C454.9054 419.7124 456.057 419.6456 463 421.1333 C469.5481 422.5365 470.0094 421.9444 477 422.1333 C488.4624 422.4431 489.3296 423.3887 500 422.1333 C505.3215 421.5073 508.2775 420.8558 511 418.1333 C514.4485 414.6848 514.5276 411.7265 517 405.1333 C518.9658 399.8912 519.6349 399.4277 520 394.1333 C520.5842 385.6623 521.808 382.9974 519 376.1333 C513.9733 363.8459 502 350.1333 502 350.1333 "/>
<path id="17" d="M481 376.1333 C481 376.1333 474.03 374.3253 471 375.1333 C469.0285 375.6591 467.3358 377.6844 466 380.1333 C464.8685 382.2077 464.4226 384.1125 465 386.1333 C465.9527 389.4677 467.1426 391.6842 470 394.1333 C472.9951 396.7005 476.9985 398.2763 479 398.1333 C480.2304 398.0454 483.1011 395.5732 484 393.1333 C485.9361 387.8782 486.7353 382.442 486 379.1333 C485.7107 377.8316 480 375.1333 480 375.1333 "/>
<path id="18" d="M427 349.1333 C427 349.1333 421.941 356.9191 421 364.1333 C419.1517 378.3035 419.4192 380.5904 421 395.1333 C421.7926 402.4252 422.7307 405.1037 426 410.1333 C427.8272 412.9444 434 415.1333 434 415.1333 "/>
<path id="19" d="M157 284.1333 L160 271.1333 "/>
<path id="20" d="M157 268.1333 L169 271.1333 "/>
<path id="21" d="M155 354.1333 L155 338.1333 "/>
<path id="22" d="M217 414.1333 C217 414.1333 221.8196 405.3476 222 398.1333 C222.2673 387.4406 218 374.1333 218 374.1333 "/>
<path id="23" d="M170 370.1333 C170 370.1333 172.9184 371.4809 173 372.1333 C173.4765 375.945 171.4681 385.8575 172 386.1333 C174.3793 387.3671 200 386.1333 200 386.1333 "/>
<path id="24" d="M487 196.1333 L497 201.1333 "/>
<path id="25" d="M498 203.1333 C498 203.1333 500.7125 207.3001 501 211.1333 C502.1185 226.0469 499.2325 227.6189 501 243.1333 C503.6526 266.4172 506.876 266.8767 510 290.1333 C511.296 299.7816 510.9717 300.7404 510 310.1333 C509.5477 314.5059 507.1165 314.9391 507 319.1333 C506.6544 331.5751 509.415 343.3318 509 346.1333 C508.9862 346.2266 503 346.1333 503 346.1333 "/>
</g>
</g>
</svg>
