<?xml version="1.0" encoding="utf-8"?>
<!DOCTYPE svg PUBLIC "-//W3C//DTD SVG 1.1//EN" "http://www.w3.org/Graphics/SVG/1.1/DTD/svg11.dtd">
<svg viewBox="0 0 800 800" preserveAspectRatio="xMinYMin meet" xmlns="http://www.w3.org/2000/svg" version="1.1">
<g fill="none" stroke="black" stroke-linecap="round" stroke-linejoin="round" stroke-width="3.077">
<g transform="translate(87.52,242.0538) scale(0.97498) translate(0,-19)">
<path id="0" d="M103 143 C103 143 96.6536 141.9949 91 143 C74.7825 145.8831 73.9893 146.0802 58 151 C48.3232 153.9775 47.4753 154.0145 39 159 C31.1136 163.6391 27.7858 164.41 24 171 C16.3074 184.3909 15.2733 188.6981 12 206 C8.5415 224.2806 10 245 10 245 "/>
<path id="1" d="M2 250 L28 245 "/>
<path id="2" d="M3 253 C3 253 -1.0281 276.447 0 281 C0.19785 281.8762 10 284 10 284 "/>
<path id="3" d="M8 284 C8 284 17.1206 287.3876 26 288 C45.4341 289.3403 66 288 66 288 "/>
<path id="4" d="M28 244 C28 244 28.8369 248.7096 31 251 C36.3284 256.6418 38.2985 260.205 45 262 C62.0326 266.5623 87 266 87 266 "/>
<path id="5" d="M26 229 C26 229 25.7585 215.0974 30 207 C35.1803 197.1103 38.6477 196.3523 48 187 C51.9378 183.0622 52.3522 182.5821 57 180 C60.8464 177.8631 61.6238 177.4862 66 177 C74.4399 176.0622 84 177 84 177 "/>
<path id="6" d="M104 142 C104 142 108.4768 148.1192 112 149 C119.2271 150.8068 122.5245 149.412 132 149 C133.4419 148.9373 135.0014 148.0055 135 148 C134.9782 147.9127 130.9992 145.0012 131 145 C131.0092 144.9862 137 145 137 145 "/>
<path id="7" d="M143 41 C143 41 147.6493 47.1232 150 53 C151.3342 56.3355 151.3161 57.2063 151 61 C149.8685 74.5776 147.663 75.0776 147 89 C145.683 116.6566 148.2173 136.3267 147 145 C146.9539 145.3288 139 146 139 146 "/>
<path id="8" d="M139 39 C139 39 139.0433 34.7972 140 34 C142.8083 31.6597 145.3698 30.4816 151 29 C173.232 23.1495 174.3614 22.9717 197 19 C202.2147 18.0851 208 19 208 19 "/>
<path id="9" d="M140 37 L150 45 "/>
<path id="10" d="M208 21 C208 21 212.6296 25.9914 217 27 C229.917 29.9808 232.0401 29.4657 247 30 C273.8319 30.9583 274.3735 30.4438 301 30 C303.9667 29.9506 306.8479 29.1521 307 29 C307.0217 28.9783 305 26 305 26 "/>
<path id="11" d="M148 47 C148 47 150.5323 42.1223 152 42 C174.624 40.1147 220 41 220 41 "/>
<path id="12" d="M148 124 L206 124 "/>
<path id="13" d="M216 42 C216 42 212.0127 128.8248 212 129 C211.9994 129.0077 211.205 125.7415 210 125 C206.3643 122.7626 199 121 199 121 "/>
<path id="14" d="M226 42 C226 42 227.3683 57.0849 227 72 C226.3725 97.4135 223.2718 100.4267 224 123 C224.1597 127.9495 227.5426 128.7532 229 134 C229.8235 136.9646 229 141 229 141 "/>
<path id="15" d="M227 45 L324 46 "/>
<path id="16" d="M244 53 C244 53 313.3031 54.0429 314 54 C314.0468 53.9971 308.9758 49.011 309 49 C309.1422 48.9354 325 49 325 49 "/>
<path id="17" d="M245 54 C245 54 238.0085 51.9264 238 52 C237.6161 55.3275 240.1365 80.239 239 106 C238.7014 112.7685 235 120 235 120 "/>
<path id="18" d="M236 119 L326 119 "/>
<path id="19" d="M320 52 C320 52 318.8726 68.217 320 84 C321.3513 102.9185 325.0101 121.6679 325 122 C324.9987 122.0423 319 117 319 117 "/>
<path id="20" d="M321 44 L335 44 "/>
<path id="21" d="M297 28 C297 28 298.295 25.0688 299 25 C311.0219 23.8271 332.2451 21.9447 338 24 C339.2978 24.4635 340.726 35.0677 341 40 C341.032 40.5763 339.0468 42.0234 339 42 C338.813 41.9065 337.0046 37.9972 337 38 C336.917 38.0498 334.083 44.9502 334 45 C333.9954 45.0028 332 41 332 41 "/>
<path id="22" d="M337 42 C337 42 343.1683 50.3963 344 58 C346.381 79.7695 342.8074 84.5331 344 106 C344.1532 108.7579 346.6168 109.1257 347 112 C348.4451 122.8386 348 124.0145 348 136 C348 202.9193 347.0338 268.5112 347 270 C346.9995 270.0217 345.0033 267.9951 345 268 C344.9753 268.0371 345 273 345 273 "/>
<path id="23" d="M199 276 L352 277 "/>
<path id="24" d="M70 302 C70 302 69.8261 294.2717 69 292 C68.8333 291.5417 66.0181 291.1994 66 291 C65.8602 289.4621 66.7687 285.925 68 281 C69.7589 273.9642 71.2287 268.4323 72 267 C72.0294 266.9454 74.807 268.193 75 268 C76.7369 266.2631 79.602 257.2664 82 257 C108.8316 254.0187 132.7668 255.7378 174 257 C176.7303 257.0836 177.9523 257.9523 180 260 C186.143 266.143 187.6163 268.7898 192 275 C192.3735 275.5292 192.066 276.9811 192 277 C191.191 277.2311 185 277 185 277 "/>
<path id="25" d="M189 278 C189 278 189.6866 276.033 190 276 C194.6608 275.5094 208 276 208 276 "/>
<path id="26" d="M120 276 C120 276 115.4919 272.7049 115 273 C110.2658 275.8405 103.1284 281.8556 95 291 C92.1475 294.2091 91.6478 295.8973 91 300 C90.338 304.1924 90.2141 307.2524 92 310 C94.9849 314.5922 97.5994 316.8741 104 320 C117.7887 326.734 119.768 327.8486 135 331 C147.4539 333.5767 149.4561 332.9649 162 332 C167.7343 331.5589 169.2302 330.9811 174 328 C180.209 324.1194 183.9484 321.787 186 317 C188.1605 311.9588 186.894 308.046 186 300 C185.4566 295.1093 185.448 294.032 183 290 C177.5123 280.9614 176.261 277.5667 169 272 C163.8198 268.0285 160.8216 268.2615 153 267 C146.0191 265.8741 145.4269 266.5499 138 267 C129.0277 267.5438 127.8944 266.5189 120 269 C111.5971 271.6409 103 278 103 278 "/>
<path id="27" d="M67 298 L94 297 "/>
<path id="28" d="M148 284 C148 284 142.4791 282.3477 139 283 C135.9404 283.5737 135.3059 284.7961 132 287 C129.3781 288.7479 128.1313 288.8789 127 291 C124.8619 295.009 124.2566 297.1251 124 302 C123.8185 305.4492 124.2165 306.9681 126 310 C128.6638 314.5285 129.8094 315.8571 134 319 C136.9121 321.1841 138.1308 321.4724 142 322 C148.4416 322.8784 150.552 323.2971 156 322 C159.1873 321.2411 160.4911 319.7598 163 317 C164.9269 314.8804 165.8534 313.4928 166 311 C166.2584 306.6078 166.333 303.4309 164 300 C159.4321 293.2824 155.9338 289.8521 149 286 C145.178 283.8766 137 285 137 285 "/>
<path id="29" d="M143 297 C143 297 140.6554 296.5318 140 297 C138.3458 298.1816 136.5008 299.9966 136 302 C135.4365 304.2538 136.3823 308.6397 137 309 C138.3366 309.7797 147.0213 309.6228 148 309 C148.3963 308.7478 148.5626 302.9002 148 302 C147.6684 301.4695 143 301 143 301 "/>
<path id="30" d="M145 295 L147 291 "/>
<path id="31" d="M149 301 L156 300 "/>
<path id="32" d="M153 310 C153 310 160.9428 314.9837 161 315 C161.0113 315.0032 160 312 160 312 "/>
<path id="33" d="M144 311 C144 311 144.5 320 144 321 C143.875 321.25 139 321 139 321 "/>
<path id="34" d="M138 305 L130 306 "/>
<path id="35" d="M130 294 L139 298 "/>
<path id="36" d="M178 282 L183 279 "/>
<path id="37" d="M103 215 C103 215 86.5774 210.6844 75 212 C67.9223 212.8043 64.3235 214.8601 59 220 C51.7498 227.0002 48.737 230.7363 46 240 C43.2447 249.3256 46 264 46 264 "/>
<path id="38" d="M105 217 C105 217 118.6009 216.9274 130 219 C133.9223 219.7131 134.9123 220.3534 138 223 C144.7544 228.7895 146.789 229.6308 151 237 C155.9128 245.5974 158 258 158 258 "/>
<path id="39" d="M80 176 C80 176 82.7747 173.1011 85 173 C120.9789 171.3646 168 172 168 172 "/>
<path id="40" d="M169 173 C169 173 175.6237 192.4197 177 211 C178.5282 231.6309 173.4608 238.3005 175 254 C175.3123 257.1859 182 262 182 262 "/>
<path id="41" d="M231 140 C231 140 225.5743 163.5827 224 187 C221.61 222.5508 221.4575 224.6801 223 259 C223.3692 267.2156 228 276 228 276 "/>
<path id="42" d="M192 278 C192 278 192.4791 284.1411 194 286 C195.3774 287.6835 197.7314 288.9086 201 289 C263.7643 290.7556 269.1116 290 337 290 C346.9836 290 356.9587 289.0046 357 289 C357.0039 288.9996 355.0628 288.3456 355 288 C354.5392 285.4657 355.5769 278.3846 355 278 C353.7019 277.1346 340 278 340 278 "/>
<path id="43" d="M60 202 C60 202 59.8346 204.9007 60 205 C60.4596 205.2757 63.72 205.64 65 205 C66.28 204.36 68.1017 201.4066 68 201 C67.8358 200.3432 65.2438 197.9972 63 197 C61.6758 196.4115 59.32 196.76 59 197 C58.82 197.135 58.6882 199.5842 59 200 C59.3378 200.4504 62 201 62 201 "/>
<path id="44" d="M92 194 C92 194 86.0983 195.7448 85 197 C84.3982 197.6878 84.5515 201.6511 85 202 C86.2175 202.9469 92.6738 204.3617 94 204 C94.5276 203.8561 96 200.7313 96 199 C96 197.6149 94.8458 195.5639 94 195 C93.275 194.5167 90 195 90 195 "/>
<path id="45" d="M120 193 C120 193 116.3952 199.8263 116 202 C115.9335 202.3657 117.2908 203.9291 118 204 C120.5468 204.2547 125.2893 203.7107 126 203 C126.5528 202.4472 126.5649 196.6457 126 196 C125.425 195.3428 119 195 119 195 "/>
<path id="46" d="M156 194 C156 194 147.5631 200.6784 146 204 C145.356 205.3685 147.03 210.5435 148 211 C150.8346 212.334 161.4194 212.7903 163 212 C163.5996 211.7002 164.4997 206.4976 164 203 C163.6938 200.8563 162.6845 199.4739 161 198 C159.4583 196.651 156 196 156 196 "/>
<path id="47" d="M320 145 C320 145 325.7609 148.7474 327 152 C328.8434 156.8388 328.0084 165.9579 328 166 C327.9979 166.0104 326.0105 162.3789 325 162 C323.9614 161.6105 320.0656 163.1312 320 163 C319.3003 161.6006 317.3063 149.9654 318 148 C318.2341 147.3368 326 146 326 146 "/>
<path id="48" d="M350 133 C350 133 349.9826 131.0014 350 131 C351.2438 130.8963 356.1543 130.9508 362 132 C375.4759 134.4187 375.7666 137.6219 389 138 C461.0668 140.0591 463.092 136.1201 537 137 C588.9633 137.6186 641 141 641 141 "/>
<path id="49" d="M350 237 C350 237 406.0293 232.9617 462 232 C551.3846 230.4642 641 232 641 232 "/>
<path id="50" d="M348 275 C348 275 357.1022 279.1003 364 280 C366.7915 280.3641 367.6139 278.0744 371 278 C411.38 277.1125 413.5098 280.3211 455 278 C484.363 276.3573 484.6354 272.2373 514 270 C536.6604 268.2735 560 270 560 270 "/>
<path id="51" d="M565 269 C565 269 566.9426 263.2931 570 261 C577.3656 255.4758 579.458 254.5442 589 251 C596.1895 248.3296 597.0777 248.4571 605 248 C622.6343 246.9826 641 248 641 248 "/>
<path id="52" d="M613 264 C613 264 596.4447 261.1851 588 264 C581.8072 266.0643 579.4148 269.9372 574 277 C568.5471 284.1124 567.0092 285.9633 565 294 C563.0169 301.9323 562.943 306.1432 565 313 C566.4832 317.9441 569.1363 319.4224 574 324 C577.1932 327.0054 577.8102 327.0956 582 329 C594.0503 334.4774 594.4072 335.249 607 339 C617.4381 342.1092 629 343 629 343 "/>
<path id="53" d="M612 266 C612 266 625.9393 262.9947 629 265 C633.7008 268.0799 641 285 641 285 "/>
<path id="54" d="M629 341 C629 341 627.7335 338.3392 628 338 C630.4591 334.8702 637.135 332.0688 640 327 C642.0244 323.4184 641 315 641 315 "/>
<path id="55" d="M612 284 C612 284 604.5842 282.0044 601 283 C598.1029 283.8047 594.3621 286.7068 594 289 C592.3773 299.2769 592.9513 307.3421 595 321 C595.5576 324.7172 597.9794 328.4651 600 329 C608.3077 331.1991 617.5296 331.2745 629 330 C632 329.6667 633.5389 327.8713 636 325 C638.9726 321.532 640.7169 319.6802 641 316 C641.5059 309.4239 641.0474 305.7478 638 299 C634.8509 292.0269 632.8987 290.3369 627 285 C623.3801 281.7248 620.9528 280.3765 617 280 C612.9574 279.615 609.3963 281.1712 606 283 C604.8817 283.6022 604 287 604 287 "/>
<path id="56" d="M614 299 C614 299 610.5428 302.9242 610 306 C609.308 309.9211 610.3388 315.65 611 316 C612.6251 316.8603 625.6387 315.6353 627 315 C627.1488 314.9306 627.1541 310.4105 626 309 C624.0458 306.6115 618 304 618 304 "/>
<path id="57" d="M615 286 L613 302 "/>
<path id="58" d="M616 302 C616 302 625.0387 299.1008 630 296 C631.2578 295.2139 632 292 632 292 "/>
<path id="59" d="M629 312 L641 310 "/>
<path id="60" d="M618 317 L617 329 "/>
<path id="61" d="M613 314 C613 314 602.7131 316.2854 598 315 C595.1489 314.2224 591 308 591 308 "/>
<path id="62" d="M601 290 C601 290 600.9957 286.9957 601 287 C601.0188 287.0188 605.7707 293.8537 606 295 C606.0357 295.1783 603.2201 296.4498 603 297 C602.8212 297.447 603.9993 299.9993 604 300 C604.0003 300.0003 603.982 297.9955 604 298 C604.3235 298.0809 612 302 612 302 "/>
<path id="63" d="M352 171 L474 173 "/>
<path id="64" d="M475 173 L641 173 "/>
<path id="65" d="M348 180 C348 180 363.7762 184.2043 379 184 C437.0889 183.2203 497 178 497 178 "/>
<path id="66" d="M495 178 C495 178 544.116 176.9955 593 178 C616.9739 178.4926 641 181 641 181 "/>
<path id="67" d="M502 170 C502 170 502.3374 178.6862 503 179 C505.266 180.0733 521 179 521 179 C521 179 515.0971 179.1699 515 179 C514.8341 178.7097 517.0943 172.0629 517 172 C516.6345 171.7563 506 173 506 173 "/>
<path id="68" d="M419 157 C419 157 418.9325 160.9831 419 161 C419.5063 161.1266 426.5908 159.4774 427 159 C427.1518 158.8229 425.8673 154.6195 425 154 C424.2217 153.444 420.187 153.8597 420 154 C419.9532 154.0351 421 157 421 157 "/>
<path id="69" d="M420 202 C420 202 414.2224 202.5552 414 203 C413.5274 203.9451 414.2411 207.8258 415 212 C415.1803 212.9919 415.6396 213.9199 416 214 C417.9959 214.4435 423.7772 214.2599 424 214 C424.1717 213.7996 422 207 422 207 "/>
<path id="70" d="M572 151 C572 151 564.7971 154.0032 563 156 C562.3141 156.7621 562.7347 160.8526 563 161 C563.8597 161.4776 569.8013 161.9161 572 161 C573.2419 160.4826 575.0967 156.3384 575 156 C574.92 155.7199 570 154 570 154 "/>
<path id="71" d="M574 200 C574 200 570.9626 204.9533 571 205 C571.0805 205.1006 575.8273 205.9053 578 205 C580.1986 204.0839 582.9721 200.1672 583 200 C583.0016 199.9904 580.3114 198.7086 579 199 C577.0329 199.4371 574 202 574 202 "/>
<path id="72" d="M218 246 C218 246 231.1298 255.1866 244 259 C256.4551 262.6904 258.0922 261.5721 272 262 C290.3026 262.5632 291.1698 263.4095 309 261 C327.3493 258.5204 330.3474 256.6958 346 252 C347.5377 251.5387 349 249 349 249 "/>
</g>
</g>
</svg>
