<?xml version="1.0" encoding="utf-8"?>
<!DOCTYPE svg PUBLIC "-//W3C//DTD SVG 1.1//EN" "http://www.w3.org/Graphics/SVG/1.1/DTD/svg11.dtd">
<svg viewBox="0 0 800 800" preserveAspectRatio="xMinYMin meet" xmlns="http://www.w3.org/2000/svg" version="1.1">
<g fill="none" stroke="black" stroke-linecap="round" stroke-linejoin="round" stroke-width="1.5313">
<g transform="translate(87.52,271.6775) scale(1.9591) translate(-176,-194)">
<path id="0" d="M344 197 L348 250 "/>
<path id="1" d="M346 197 C346 197 355.5606 194.5779 365 194 C379.7617 193.0962 380.5476 192.4515 395 194 C407.8351 195.3752 415.0813 194.3046 421 200 C434.0957 212.6015 436.5639 235.93 448 245 C453.7998 249.5999 465.1182 243.9685 479 246 C483.7831 246.7 486.5227 248.0272 489 251 C492.1896 254.8275 493.0691 257.639 494 264 C495.908 277.0383 496.5886 287.523 495 292 C494.5829 293.1754 488.9003 294.5342 483 295 C470.4634 295.9897 466.0493 297.6195 457 295 C451.7152 293.4702 450.8306 286.9153 445 284 C440.0024 281.5012 436.9833 281.5014 431 282 C426.5305 282.3725 424.4811 283.59 421 286 C419.2385 287.2195 418.4075 288.9623 418 291 C417.6507 292.7466 419.3201 295.5518 419 296 C418.5305 296.6573 415.9217 297.8489 413 298 C360.2442 300.7287 356.5321 301.1078 303 302 C298.1526 302.0808 295.8653 301.4326 293 300 C291.9581 299.479 292.2859 296.8321 291 296 C285.5266 292.4584 283.2906 290.4955 276 289 C265.2631 286.7976 262.7782 287.3046 252 288 C248.7607 288.209 247.0491 288.9509 245 291 C241.7214 294.2786 241.3689 298.8464 239 301 C238.2151 301.7135 236.3307 301.437 234 301 C228.6102 299.9894 228.421 298.417 223 298 C203.1723 296.4748 190.6296 300.1213 182 297 C179.5407 296.1105 177.192 288.748 176 281 C174.38 270.4698 174.5461 268.9045 176 258 C177.4413 247.1903 180.1622 236.4743 182 236 C190.5697 233.7885 210.1685 241.2627 238 242 C285.0542 243.2465 286.3298 239.587 333 240 C341.8575 240.0784 351 243 351 243 "/>
<path id="2" d="M186 236 C186 236 191.1138 240.497 193 244 C193.8013 245.4882 192.9804 248.9991 193 249 C194.7149 249.0817 203.594 245.8325 214 245 C228.1545 243.8676 229.1868 243.9374 243 245 C247.8731 245.3749 248.2259 247.955 253 248 C298.6934 248.4311 349 246 349 246 "/>
<path id="3" d="M403 203 C403 203 403.9118 213.7353 407 223 C409.7022 231.1066 410.4223 233.3452 415 239 C417.5022 242.091 419.7993 243.2999 424 244 C432.971 245.4952 445 244 445 244 "/>
<path id="4" d="M404 204 L415 200 "/>
<path id="5" d="M238 308 C238 308 240.4611 314.2654 244 317 C250.0595 321.6824 252.4057 323.4422 260 325 C269.9013 327.031 273.0386 326.8846 283 325 C289.637 323.7443 295.3921 320.7211 297 318 C298.517 315.4328 296 303 296 303 "/>
<path id="6" d="M413 298 C413 298 414.7474 302.157 417 304 C419.3905 305.9559 420.665 306.6294 424 307 C433.0955 308.0106 434.9748 308.4102 444 307 C449.7677 306.0988 452.2672 305.0329 456 302 C458.4401 300.0174 460 294 460 294 "/>
<path id="7" d="M344 200 C344 200 352.7492 204.9348 354 209 C357.1709 219.3055 356.7179 233.2567 356 239 C355.9336 239.5309 350 241 350 241 "/>
<path id="8" d="M359 196 C359 196 364.9198 206.1426 366 215 C367.1837 224.7061 362.7005 227.2535 364 237 C365.4391 247.7929 369.6164 248.5586 372 260 C374.4561 271.7893 371.91 273.0572 374 285 C375.3088 292.479 379 300 379 300 "/>
<path id="9" d="M389 195 C389 195 394.2414 197.0276 395 199 C397.8309 206.3605 395.5899 211.0132 399 221 C402.2713 230.5802 406.7104 230.8416 409 240 C411.6889 250.7557 407.9836 253.4778 410 265 C411.2855 272.3458 414.7889 272.9759 416 280 C417.0444 286.0574 415 294 415 294 "/>
<path id="10" d="M371 255 C371 255 384.8266 249.7733 398 247 C403.0518 245.9365 409 247 409 247 "/>
<path id="11" d="M380 266 L392 267 "/>
<path id="12" d="M365 205 L399 204 "/>
</g>
</g>
</svg>
