<?xml version="1.0" encoding="utf-8"?>
<!DOCTYPE svg PUBLIC "-//W3C//DTD SVG 1.1//EN" "http://www.w3.org/Graphics/SVG/1.1/DTD/svg11.dtd">
<svg viewBox="0 0 800 800" preserveAspectRatio="xMinYMin meet" xmlns="http://www.w3.org/2000/svg" version="1.1">
<g fill="none" stroke="black" stroke-linecap="round" stroke-linejoin="round" stroke-width="2.2033">
<g transform="translate(87.52,276.0973) scale(1.3616) translate(-70,-64.1333)">
<path id="0" d="M93 98.1333 C93 98.1333 119.0061 106.8105 145 113.1333 C155.6172 115.7159 160.12 113.9317 167 116.1333 C168.3784 116.5744 169.9314 118.9386 170 121.1333 C171.2253 160.342 173.891 202.2976 170 212.1333 C169.391 213.6726 148.1183 216.5918 134 212.1333 C115.3407 206.2409 113.997 198.6978 94 188.1333 C88.263 185.1025 81.0769 184.845 81 184.1333 C80.5442 179.9169 87.7889 167.3478 90 151.1333 C92.1318 135.5003 89.0628 134.378 90 118.1333 C90.5445 108.6952 93 99.1333 93 99.1333 "/>
<path id="1" d="M170 216.1333 C170 216.1333 173.7122 210.6172 178 207.1333 C181.1502 204.5738 182.0884 203.9837 186 203.1333 C192.7111 201.6744 196.4335 200.1038 201 202.1333 C209.9587 206.115 216.8252 211.6064 222 219.1333 C224.5823 222.8893 223.5993 228.4402 223 234.1333 C222.8264 235.7829 221.7072 236.6395 220 238.1333 C217.9973 239.8857 217.2988 240.7885 215 241.1333 C208.6731 242.0824 204.8586 243.3418 200 241.1333 C191.9613 237.4794 188.1975 233.2605 182 226.1333 C180.0309 223.8688 181.6986 221.1059 180 218.1333 C178.2483 215.0679 174 212.1333 174 212.1333 "/>
<path id="2" d="M172 213.1333 C172 213.1333 175.6261 219.3628 177 225.1333 C177.9375 229.0706 177.9401 230.6081 177 234.1333 C176.2619 236.9013 173.6557 237.7291 173 240.1333 C172.5629 241.7361 174.2211 244.47 174 245.1333 C173.9052 245.4176 171.1753 246.3086 171 246.1333 C169.7728 244.9061 167.7494 237.3984 166 237.1333 C149.1892 234.5862 129.4931 240.9125 105 236.1333 C95.4234 234.2647 93.6181 229.2486 84 221.1333 C77.963 216.0396 76.6097 214.0556 73 209.1333 C72.4603 208.3974 73 206.1333 73 206.1333 "/>
<path id="3" d="M80 184.1333 C80 184.1333 81.2443 189.5249 80 193.1333 C76.7582 202.5345 73.3493 203.7552 70 213.1333 C68.8633 216.3162 70 221.1333 70 221.1333 "/>
<path id="4" d="M170 210.1333 C170 210.1333 181.2745 192.7197 192 185.1333 C197.9 180.9601 204.3882 180.879 211 181.1333 C213.5233 181.2304 215.7089 183.384 218 186.1333 C220.0092 188.5443 220.5755 189.7377 221 193.1333 C222.446 204.7015 221.0415 213.1493 222 218.1333 C222.0673 218.4834 225.2144 218.3478 226 219.1333 C227.0998 220.2331 226.651 222.5916 228 224.1333 C229.4739 225.8178 231.7845 227.4485 233 227.1333 C240.0796 225.2979 243.7489 221.1962 255 217.1333 C279.5035 208.2848 280.4304 205.4842 305 201.1333 C326.4742 197.3306 328.7754 202.1848 351 200.1333 C360.3839 199.2671 360.5937 195.9668 370 195.1333 C399.113 192.5537 402.8101 198.1789 430 193.1333 C448.0012 189.7929 459.7761 183.1858 467 177.1333 C468.8011 175.6243 465.1458 166.5834 467 162.1333 C468.6276 158.2271 472.8319 156.0189 477 153.1333 C477.7704 152.6 479.3446 152.6652 480 153.1333 C481.6542 154.3149 482.2975 157.4785 484 158.1333 C486.5869 159.1283 491.4398 157.0189 493 158.1333 C495.105 159.6369 498 168.1333 498 168.1333 "/>
<path id="5" d="M469 173.1333 C469 173.1333 468.8232 190.4714 470 191.1333 C473.2792 192.9779 489.7947 192.122 501 191.1333 C502.1801 191.0292 503.506 189.4507 504 188.1333 C504.5988 186.5365 504.8723 184.6599 504 183.1333 C500.0123 176.1549 492 167.1333 492 167.1333 "/>
<path id="6" d="M495 167.1333 C495 167.1333 500.4195 167.4805 505 166.1333 C516.8568 162.646 526.0183 160.7633 529 157.1333 C530.8877 154.8353 530.7043 146.0959 528 138.1333 C522.4384 121.7575 517.0161 120.5106 511 104.1333 C508.7028 97.8797 510.4434 89.1979 510 89.1333 C495.7985 87.0652 455.3435 82.0063 408 89.1333 C367.0548 95.2971 366.0452 105.985 324 117.1333 C301.0716 123.2128 298.5161 117.5309 276 124.1333 C233.5418 136.5835 232.2276 142.9245 191 156.1333 C183.0705 158.6739 173 157.1333 173 157.1333 "/>
<path id="7" d="M168 118.1333 C168 118.1333 199.0603 113.4805 205 118.1333 C214.6026 125.6554 223.0054 142.7664 228 165.1333 C233.3647 189.158 226.7751 195.4098 228 221.1333 C228.1562 224.4144 231 228.1333 231 228.1333 "/>
<path id="8" d="M199 119.1333 C199 119.1333 205.2944 130.3533 209 141.1333 C210.5068 145.5169 210 151.1333 210 151.1333 "/>
<path id="9" d="M125 110.1333 C125 110.1333 127.4379 118.7012 128 127.1333 C128.9151 140.8601 129.0998 142.6694 128 155.1333 C127.7539 157.922 125 161.1333 125 161.1333 "/>
<path id="10" d="M92 152.1333 C92 152.1333 99.9101 150.9792 107 152.1333 C120.773 154.3754 121.7691 154.8422 135 159.1333 C139.6426 160.639 139.7077 163.3759 144 164.1333 C154.9352 166.0631 169 165.1333 169 165.1333 "/>
<path id="11" d="M139 193.1333 C139 193.1333 145.2666 190.6546 151 190.1333 C155.6292 189.7125 159.9148 190.3737 161 191.1333 C161.426 191.4315 161.6365 196.709 161 197.1333 C156.8098 199.9268 150.0499 202.1556 140 205.1333 C137.4198 205.8978 135.8114 205.9567 134 205.1333 C131.8044 204.1353 129.6844 202.0154 129 200.1333 C128.4342 198.5775 130 194.1333 130 194.1333 "/>
<path id="12" d="M136 194.1333 L130 197.1333 "/>
<path id="13" d="M97 171.1333 C97 171.1333 104.7746 168.8692 109 169.1333 C110.49 169.2265 112.584 170.8853 113 172.1333 C113.864 174.7253 113.6886 180.1496 113 181.1333 C112.5486 181.7782 107.9407 182.9096 106 182.1333 C102.8243 180.8631 100.9177 178.8468 98 175.1333 C95.945 172.5179 95 168.1333 95 168.1333 "/>
<path id="14" d="M98 181.1333 C98 181.1333 106.7025 179.0387 114 180.1333 C125.5333 181.8633 136.0664 183.9107 138 187.1333 C140.9816 192.1027 138 220.1333 138 220.1333 "/>
<path id="15" d="M104 178.1333 C104 178.1333 102.0403 179.3686 102 180.1333 C101.3117 193.2111 101.7508 211.6472 102 216.1333 C102.0008 216.1472 103.95 216.0333 104 216.1333 C104.2 216.5333 103.93 220.1239 104 220.1333 C108.8083 220.7831 136.6407 221.369 141 221.1333 C141.0191 221.1323 141 218.1333 141 218.1333 "/>
<path id="16" d="M106 183.1333 C106 183.1333 112.9081 218.8484 113 219.1333 C113.0097 219.1634 116 214.1333 116 214.1333 "/>
<path id="17" d="M126 182.1333 C126 182.1333 129.2779 189.2736 130 196.1333 C131.2017 207.5496 130 220.1333 130 220.1333 "/>
<path id="18" d="M99 99.1333 C99 99.1333 102.8198 90.222 108 83.1333 C111.9712 77.6991 118 73.1333 118 73.1333 "/>
<path id="19" d="M120 71.1333 C120 71.1333 127.3805 70.1304 134 71.1333 C143.3417 72.5487 146.6355 71.6316 153 76.1333 C164.007 83.9188 163.6967 88.5071 175 100.1333 C181.1359 106.4445 181.5339 107.3688 188 112.1333 C190.2125 113.7636 193.2357 113.2416 194 114.1333 C194.535 114.7575 193.453 117.8571 194 119.1333 C194.3594 119.972 197 121.1333 197 121.1333 "/>
<path id="20" d="M163 84.1333 C163 84.1333 178.3635 89.7231 189 98.1333 C198.4154 105.578 206 118.1333 206 118.1333 "/>
<path id="21" d="M110 79.1333 C110 79.1333 118.2646 78.3952 125 80.1333 C132.8604 82.1618 133.7764 82.7287 141 87.1333 C153.8217 94.9514 154.7123 95.4582 166 105.1333 C171.6638 109.988 172.0676 113.7627 176 117.1333 C176.7754 117.798 180 117.1333 180 117.1333 "/>
<path id="22" d="M146 64.1333 C146 64.1333 141.834 68.4654 141 70.1333 C140.8528 70.4277 141.426 71.9064 142 72.1333 C157.3642 78.2075 166.4499 77.6146 184 87.1333 C193.1785 92.1115 195.5199 97.3638 201 104.1333 C201.7126 105.0136 200.6919 107.9133 201 108.1333 C201.8319 108.7275 206.6998 108.3207 208 109.1333 C208.5968 109.5063 209 113.1333 209 113.1333 "/>
<path id="23" d="M178 116.1333 C178 116.1333 192.8046 118.4233 204 116.1333 C212.5433 114.3858 221.9779 107.1499 222 107.1333 C222.0053 107.1293 217.6477 108.0748 216 107.1333 C212.5478 105.1606 212.3352 102.0235 208 99.1333 C202.4726 95.4484 200.26 97.0784 195 93.1333 C187.1099 87.2158 180 78.1333 180 78.1333 "/>
<path id="24" d="M108 84.1333 C108 84.1333 116.9099 84.7235 125 87.1333 C140.0451 91.6149 143.1078 91.5613 155 98.1333 C159.4585 100.5972 163 108.1333 163 108.1333 "/>
<path id="25" d="M481 172.1333 L481 175.1333 "/>
<path id="26" d="M203 224.1333 C203 224.1333 201.0526 223.0808 201 223.1333 C200.6321 223.5012 199 228.1333 199 228.1333 "/>
<path id="27" d="M232 213.1333 C232 213.1333 268.1907 213.1737 303 209.1333 C323.4794 206.7563 323.8256 205.1769 344 200.1333 C349.5975 198.7339 350.3635 199.0617 355 196.1333 C368.5849 187.5534 369.8214 178.4374 382 176.1333 C415.3067 169.8321 466 175.1333 466 175.1333 "/>
<path id="28" d="M233 189.1333 C233 189.1333 234.0714 186.344 235 186.1333 C269.4062 178.3299 283.1549 178.0275 330 167.1333 C347.2258 163.1273 346.9163 159.157 364 156.1333 C402.3016 149.3543 404.4286 153.9219 443 147.1333 C466.113 143.0654 466.422 141.5676 489 134.1333 C507.2355 128.129 525 120.1333 525 120.1333 "/>
<path id="29" d="M505 104.1333 C505 104.1333 442.8803 126.6518 381 147.1333 C372.3496 149.9965 372.0393 149.6953 363 151.1333 C350.1576 153.1764 349.9424 153.8276 337 154.1333 C286.8603 155.3177 274.1177 151.0427 236 154.1333 C231.9506 154.4617 226 163.1333 226 163.1333 "/>
</g>
</g>
</svg>
