<?xml version="1.0" encoding="utf-8"?>
<!DOCTYPE svg PUBLIC "-//W3C//DTD SVG 1.1//EN" "http://www.w3.org/Graphics/SVG/1.1/DTD/svg11.dtd">
<svg viewBox="0 0 800 800" preserveAspectRatio="xMinYMin meet" xmlns="http://www.w3.org/2000/svg" version="1.1">
<g fill="none" stroke="black" stroke-linecap="round" stroke-linejoin="round" stroke-width="2.1937">
<g transform="translate(87.52,262.5635) scale(1.3675) translate(-75,-176.1333)">
<path id="0" d="M225 178.1333 L224 340.1333 "/>
<path id="1" d="M226 179.1333 C226 179.1333 294.8132 181.8587 363 181.1333 C388.4085 180.863 388.5713 177.6861 414 177.1333 C457.2938 176.1922 457.6478 178.5071 501 178.1333 C515.4608 178.0087 529.9088 175.6981 530 176.1333 C533.3657 192.2017 542.2496 313.7095 532 326.1333 C523.6711 336.229 464.9047 334.0491 398 336.1333 C304.8495 339.0352 211 336.1333 211 336.1333 "/>
<path id="2" d="M304 326.1333 C304 326.1333 302.119 320.4253 301 320.1333 C296.0976 318.8544 288.3733 318.4948 281 320.1333 C277.9278 320.816 276.4887 322.7559 274 326.1333 C269.95 331.6297 268.4328 332.865 267 339.1333 C264.8186 348.6769 264.8099 352.2077 266 361.1333 C266.4717 364.6709 268.0249 366.5301 271 369.1333 C275.0288 372.6585 277.7258 375.2224 282 375.1333 C296.5993 374.8292 302.5558 372.1441 319 368.1333 C321.0102 367.643 322.8622 366.2361 323 365.1333 C324.1422 355.9961 324.8558 347.5774 323 336.1333 C322.4258 332.5924 320.3005 330.6087 317 328.1333 C313.4244 325.4517 307 324.1333 307 324.1333 "/>
<path id="3" d="M477 323.1333 C477 323.1333 472.3867 320.9075 468 320.1333 C464.3173 319.4834 463.2758 319.3774 460 320.1333 C457.6691 320.6712 456.7069 321.2131 455 323.1333 C449.3189 329.5246 445.7903 331.5092 444 338.1333 C441.8355 346.142 442.6214 357.7548 445 360.1333 C448.6196 363.7529 459.2483 364.6651 473 367.1333 C478.1704 368.0614 480.259 368.1309 484 367.1333 C485.7231 366.6738 486.5234 365.3482 488 363.1333 C491.3223 358.1499 492.9665 357.0942 494 352.1333 C495.0792 346.9531 495.1273 344.1476 493 339.1333 C488.9567 329.6028 486.7174 326.4614 480 319.1333 C477.4218 316.3207 471 315.1333 471 315.1333 "/>
<path id="4" d="M224 292.1333 C224 292.1333 201.7136 295.3756 193 292.1333 C187.9536 290.2556 186.1843 284.5079 181 276.1333 C173.329 263.7417 175.45 260.7561 167 250.1333 C159.1034 240.2062 155.1618 235.2483 146 232.1333 C136.318 228.8414 130.2954 231.3839 117 233.1333 C112.6523 233.7054 112.4075 236.3171 108 237.1333 C99.7716 238.6571 94.4125 236.3282 90 238.1333 C88.2568 238.8465 86.5193 242.3686 86 246.1333 C84.7248 255.3782 86.9417 257.0883 86 267.1333 C85.4941 272.5295 85.2726 273.3609 83 278.1333 C80.562 283.2531 76.5421 283.661 76 288.1333 C73.1956 311.2695 70.7212 328.3694 75 344.1333 C76.4917 349.6291 86.2794 356.9959 95 358.1333 C123.6634 361.872 131.353 357.5044 167 356.1333 C169.9864 356.0185 171.6194 356.2378 173 355.1333 C174.9491 353.574 175.9906 351.4138 177 348.1333 C177.7358 345.742 176.6731 342.2859 177 342.1333 C178.8058 341.2906 188.4184 342.8299 192 341.1333 C193.803 340.2793 194.5408 333.4767 196 333.1333 C203.4421 331.3823 222.2666 333.3822 226 333.1333 C226.0166 333.1322 226 331.1333 226 331.1333 "/>
<path id="5" d="M106 253.1333 C106 253.1333 94.7161 268.5746 90 282.1333 C87.6805 288.8019 89.1716 298.4793 90 299.1333 C91.0753 299.9823 108.4522 298.4308 109 297.1333 C111.3504 291.5665 109 254.1333 109 254.1333 "/>
<path id="6" d="M117 257.1333 C117 257.1333 119.9853 268.7178 121 280.1333 C121.9558 290.8863 120.1655 301.7578 121 302.1333 C124.22 303.5823 155.2259 299.7212 161 298.1333 C161.2704 298.059 161.9475 293.8179 161 291.1333 C159.3598 286.4861 156.1821 286.0093 155 281.1333 C152.5765 271.1363 154.7498 259.2513 153 258.1333 C149.4364 255.8566 119 258.1333 119 258.1333 "/>
<path id="7" d="M78 324.1333 C78 324.1333 83.828 323.818 84 324.1333 C84.578 325.193 84.4236 334.4274 84 335.1333 C83.8999 335.3002 78 334.1333 78 334.1333 "/>
<path id="8" d="M138 330.1333 C138 330.1333 128.8995 327.8384 123 328.1333 C120.9609 328.2353 119.5792 329.267 118 331.1333 C114.7072 335.0248 112.921 336.3966 112 341.1333 C109.8395 352.2445 108.6009 359.9359 111 367.1333 C112.3398 371.1527 118.0951 375.0971 124 377.1333 C129.744 379.114 134.6657 378.7568 140 377.1333 C143.044 376.2069 146.4699 372.9606 147 370.1333 C148.5824 361.6941 148.323 355.2965 146 345.1333 C144.9319 340.4604 143.0881 339.0268 139 335.1333 C133.18 329.5905 125 325.1333 125 325.1333 "/>
</g>
</g>
</svg>
