<?xml version="1.0" encoding="utf-8"?>
<!DOCTYPE svg PUBLIC "-//W3C//DTD SVG 1.1//EN" "http://www.w3.org/Graphics/SVG/1.1/DTD/svg11.dtd">
<svg viewBox="0 0 800 800" preserveAspectRatio="xMinYMin meet" xmlns="http://www.w3.org/2000/svg" version="1.1">
<g fill="none" stroke="black" stroke-linecap="round" stroke-linejoin="round" stroke-width="1.6753">
<g transform="translate(87.52,286.2895) scale(1.7907) translate(-148,-190)">
<path id="0" d="M148 238 C148 238 160.2124 243.3977 172 244 C226.8248 246.8013 228.7352 242.836 285 245 C319.4595 246.3254 340.8906 251 354 251 C354.38 251 356 247.7582 356 245 C356 234.4267 353.2904 232.8808 354 222 C354.7238 210.902 357.5834 209.9787 359 199 C359.4716 195.3454 357.7824 191.0933 358 191 C360.0097 190.1387 369.2592 189.2718 380 190 C398.2859 191.2397 407.9367 191.1157 417 195 C419.4478 196.049 421.096 201.8981 422 208 C422.9113 214.1512 420.5389 215.314 421 222 C421.5033 229.2983 423.7012 236.3525 424 237 C424.0112 237.0243 426.5455 234.8182 427 235 C430.1402 236.2561 432.6905 240.0654 439 243 C453.6816 249.8287 455.0102 251.8987 470 255 C482.0876 257.5009 495.1198 254.2479 497 255 C497.1393 255.0557 495.1112 260.1076 495 265 C494.6239 281.5478 496.2447 290.4357 496 299 C495.9924 299.2665 494.9111 299.9804 494 300 C452.9763 300.8822 432.0905 303.3747 403 301 C400.5252 300.798 398.4404 296.6367 396 292 C393.7723 287.7673 395.0068 284.8987 393 282 C391.8113 280.2829 389.9366 279.5873 387 279 C380.682 277.7364 378.8049 276.799 373 278 C366.0777 279.4322 362.1901 280.8099 358 285 C354.1909 288.8091 355.3393 294.2693 352 299 C350.675 300.877 348.9227 301.5572 346 302 C333.6367 303.8732 332.42 304 319 304 C290.6689 304 289.8514 301.3037 262 302 C250.7029 302.2824 250.0244 304.8976 239 306 C235.7492 306.3251 234.43 306.215 232 305 C229.57 303.785 228.5914 302.7488 227 300 C223.4777 293.9161 223.7676 288.9653 221 286 C219.8045 284.7191 216.4355 284.4025 213 285 C206.0335 286.2116 202.8733 286.2963 198 290 C192.6498 294.0662 192.2432 302.0198 188 304 C182.8671 306.3954 177.6868 304.4036 168 304 C166.0425 303.9184 164.0288 303.2833 164 303 C162.808 291.2788 164.3981 272.178 162 245 C161.5732 240.1635 158 235 158 235 "/>
<path id="1" d="M214 297 C214 297 207.0032 297.3829 204 299 C202.4567 299.831 201.5379 301.6691 201 304 C200.244 307.2758 200.0236 309.4613 201 312 C201.845 314.1969 203.8394 316.3998 206 317 C210.3964 318.2212 218.4857 317.6857 219 317 C219.8044 315.9275 219.1477 303.4389 218 301 C217.7008 300.3641 211 300 211 300 "/>
<path id="2" d="M376 297 C376 297 370.3138 297.6862 369 299 C367.6862 300.3138 366.8415 305.8981 367 306 C368.096 306.7045 380.3071 309.1541 383 308 C384.7276 307.2596 388.2269 298.8156 388 297 C387.8715 295.9719 381 292 381 292 "/>
<path id="3" d="M376 243 L380 243 "/>
<path id="4" d="M384 243 C384 243 393.1886 245 402 245 C412.28 245 414.0354 243 423 243 C424.7075 243 426.6135 244.0063 427 245 C428.8658 249.7979 430.2647 255.1758 430 261 C429.8968 263.2696 426.8075 264.0392 426 267 C424.1159 273.9085 424.8916 282.572 424 283 C422.0583 283.932 407.9126 282.3371 401 279 C397.9979 277.5507 398.4214 271.3801 395 269 C389.4087 265.1104 383.1673 266.3587 378 263 C376.1333 261.7867 375.3751 259.1885 375 256 C374.4958 251.7147 376 246 376 246 "/>
<path id="5" d="M369 230 C369 230 399.7623 230.8633 413 230 C413.6606 229.9569 415 228.186 415 227 C415 218.3024 414.7779 214.2452 413 205 C412.6365 203.1097 410.966 201.0483 410 201 C398.8611 200.4431 388.3828 201.1241 373 203 C371.1968 203.2199 369.1075 204.9609 369 206 C368.1846 213.8826 370 232 370 232 "/>
<path id="6" d="M387 212 C387 212 381.5202 210.6099 381 211 C380.2816 211.5388 378.7313 217.7557 379 218 C379.9684 218.8804 390.0523 221 392 221 C392.1498 221 393.2437 218.5687 393 218 C392.4583 216.7361 389 214 389 214 "/>
<path id="7" d="M386 222 L386 228 "/>
<path id="8" d="M406 221 C406 221 399.1599 218.8934 399 219 C398.9154 219.0564 399.671 224.8804 400 225 C400.9588 225.3486 409.8513 223.1487 410 223 C410 223 406 219 406 219 "/>
<path id="9" d="M390 225 L403 222 "/>
<path id="10" d="M485 257 C485 257 482.6983 266.6652 483 273 C483.0975 275.0484 485.3805 277.8761 486 278 C486.9911 278.1982 493 275 493 275 "/>
<path id="11" d="M180 247 C180 247 180.5154 259.0291 179 266 C178.616 267.7664 176.7407 269.4644 175 270 C172.0051 270.9215 167.0721 270.2382 166 270 C165.9471 269.9882 166 268 166 268 "/>
<path id="12" d="M354 252 L359 287 "/>
</g>
</g>
</svg>
