<?xml version="1.0" encoding="utf-8"?>
<!DOCTYPE svg PUBLIC "-//W3C//DTD SVG 1.1//EN" "http://www.w3.org/Graphics/SVG/1.1/DTD/svg11.dtd">
<svg viewBox="0 0 800 800" preserveAspectRatio="xMinYMin meet" xmlns="http://www.w3.org/2000/svg" version="1.1">
<g fill="none" stroke="black" stroke-linecap="round" stroke-linejoin="round" stroke-width="2.5922">
<g transform="translate(87.52,163.3253) scale(1.1573) translate(-93,-67.4167)">
<path id="0" d="M95 192.4167 L95 318.4167 "/>
<path id="1" d="M96 190.4167 L202 190.4167 "/>
<path id="2" d="M205 191.4167 L206 312.4167 "/>
<path id="3" d="M96 320.4167 L205 321.4167 "/>
<path id="4" d="M205 312.4167 L205 321.4167 "/>
<path id="5" d="M96 323.4167 L98 387.4167 "/>
<path id="6" d="M97 385.4167 L97 407.4167 "/>
<path id="7" d="M97 191.4167 L97 166.4167 "/>
<path id="8" d="M97 166.4167 L108 165.4167 "/>
<path id="9" d="M108 165.4167 L108 179.4167 "/>
<path id="10" d="M108 179.4167 C108 179.4167 193.5917 179.2771 206 180.4167 C206.0929 180.4252 206 188.4167 206 188.4167 "/>
<path id="11" d="M121 274.4167 L93 321.4167 "/>
<path id="12" d="M110 254.4167 L134 294.4167 "/>
<path id="13" d="M195 235.4167 L174 321.4167 "/>
<path id="14" d="M196 235.4167 C196 235.4167 184.6973 233.4187 182 235.4167 C176.6412 239.3862 173.3484 245.2704 169 255.4167 C164.8945 264.9962 165.508 266.5593 164 277.4167 C163.0697 284.1145 165.2376 284.9192 164 291.4167 C161.39 305.1189 156 319.4167 156 319.4167 "/>
<path id="15" d="M182 234.4167 C182 234.4167 169.5378 232.9671 162 234.4167 C159.3763 234.9212 157.9969 236.5877 156 239.4167 C152.4895 244.3899 152.0378 245.3034 150 251.4167 C147.1859 259.8589 146.773 260.5271 146 269.4167 C144.8203 282.9827 147.8607 284.3917 146 297.4167 C144.538 307.6506 139 318.4167 139 318.4167 "/>
<path id="16" d="M111 194.4167 L110 206.4167 "/>
<path id="17" d="M107 205.4167 C107 205.4167 113.6702 204.9926 114 205.4167 C114.5452 206.1176 114.5452 213.7157 114 214.4167 C113.6702 214.8407 107.2878 214.8277 107 214.4167 C106.4128 213.5777 107 204.4167 107 204.4167 "/>
<path id="18" d="M203 321.4167 C203 321.4167 223.0529 324.2912 243 324.4167 C381.5641 325.2881 382.5598 322.1388 521 323.4167 C544.4245 323.6329 568 327.4167 568 327.4167 "/>
<path id="19" d="M204 179.4167 L206 161.4167 "/>
<path id="20" d="M206 161.4167 L295 161.4167 "/>
<path id="21" d="M295 161.4167 C295 161.4167 297.4912 188.9392 298 216.4167 C298.9889 269.819 298 323.4167 298 323.4167 "/>
<path id="22" d="M238 173.4167 C238 173.4167 217.1485 175.4339 217 176.4167 C213.7285 198.0707 217 312.4167 217 312.4167 "/>
<path id="23" d="M232 173.4167 L286 173.4167 "/>
<path id="24" d="M286 173.4167 L286 309.4167 "/>
<path id="25" d="M217 312.4167 C217 312.4167 276.5165 312.7909 285 312.4167 C285.0165 312.4159 285 309.4167 285 309.4167 "/>
<path id="26" d="M561 327.4167 L617 326.4167 "/>
<path id="27" d="M98 408.4167 L126 409.4167 "/>
<path id="28" d="M163 356.4167 C163 356.4167 155.9018 354.8449 153 356.4167 C146.8941 359.724 143.5969 362.3297 139 369.4167 C132.6532 379.2013 131.2563 381.725 129 393.4167 C126.1117 408.3833 124.6749 414.0032 128 426.4167 C130.7718 436.7647 135.1589 440.0052 144 449.4167 C149.6005 455.3785 151.2837 455.683 159 459.4167 C166.1642 462.8832 167.1786 463.2993 175 464.4167 C183.891 465.6868 185.0836 465.372 194 464.4167 C198.3744 463.948 199.3273 463.7121 203 461.4167 C210.5988 456.6674 211.8873 456.1617 218 449.4167 C225.807 440.8021 227.5713 439.3161 232 429.4167 C235.2616 422.126 236.2565 418.7984 235 411.4167 C232.7821 398.3864 231.0298 395.1244 224 382.4167 C218.7308 372.8916 217.1726 371.1034 209 364.4167 C202.027 358.7115 199.522 356.9206 191 355.4167 C176.6431 352.8831 158 355.4167 158 355.4167 "/>
<path id="29" d="M120 402.4167 C120 402.4167 119.6106 391.4477 121 382.4167 C121.4455 379.5212 121.914 378.57 124 376.4167 C136.4428 363.5725 139.5572 363.2609 152 350.4167 C154.086 348.2634 153.9193 344.6006 155 344.4167 C166.9163 342.3884 178.5424 341.3765 199 342.4167 C206.1088 342.7781 207.2742 343.9577 214 347.4167 C224.2145 352.6698 227.3125 352.8932 234 360.4167 C241.3152 368.6463 243.3337 372.5295 246 383.4167 C248.6725 394.3296 246 409.4167 246 409.4167 "/>
<path id="30" d="M246 411.4167 C246 411.4167 251.2016 408.47 256 408.4167 C337.2957 407.5134 426 409.4167 426 409.4167 "/>
<path id="31" d="M515 363.4167 C515 363.4167 509.3135 360.6892 504 360.4167 C490.6857 359.7339 485.6777 357.7103 476 361.4167 C467.3017 364.7479 464.9352 369.2016 457 378.4167 C450.0228 386.5192 449.0676 387.9255 445 397.4167 C442.0877 404.2121 442.4852 405.4925 442 413.4167 C441.0107 429.5747 439.6458 431.997 442 446.4167 C443.2346 453.9787 444.9735 456.516 450 462.4167 C455.2386 468.5664 457.4361 469.4947 465 473.4167 C469.9524 475.9846 471.1018 475.9743 477 476.4167 C490.5091 477.4299 492.611 478.4335 505 476.4167 C512.1412 475.2542 514.407 473.9739 520 469.4167 C526.5435 464.085 527.8097 461.9593 532 454.4167 C534.6431 449.659 534.7108 448.2962 535 442.4167 C536.1664 418.7001 537.4098 414.4164 535 393.4167 C534.3703 387.9296 532.0472 386.2733 528 381.4167 C525.1254 377.9671 523.1036 378.8854 520 375.4167 C515.0342 369.8667 511 362.4167 511 362.4167 "/>
<path id="32" d="M585 356.4167 C585 356.4167 578.9266 355.1078 575 356.4167 C568.4556 358.5981 566.0076 359.409 561 364.4167 C552.8057 372.611 552.3282 374.8696 546 385.4167 C543.7218 389.2136 543.3739 390.0546 543 394.4167 C541.9499 406.6681 541.9414 407.7137 543 420.4167 C543.9093 431.3282 542.5409 434.4894 547 442.4167 C554.1599 455.1453 559.7676 463.4832 570 468.4167 C579.6411 473.0651 589.6515 471.0058 603 469.4167 C606.9437 468.9472 608.4343 466.9824 612 463.4167 C617.9428 457.4739 621.733 455.6365 623 449.4167 C626.1205 434.0977 623 409.4167 623 409.4167 "/>
<path id="33" d="M576 356.4167 C576 356.4167 589.4034 353.3065 597 355.4167 C603.619 357.2553 607.1382 360.2866 612 366.4167 C617.1693 372.9345 618.1342 375.7871 620 384.4167 C621.7968 392.727 618.7644 395.0762 620 403.4167 C620.5588 407.1886 624 411.4167 624 411.4167 "/>
<path id="34" d="M426 409.4167 L431 409.4167 "/>
<path id="35" d="M621 327.4167 C621 327.4167 630.9929 325.3661 631 325.4167 C632.031 332.8056 633.2385 402.9217 633 413.4167 C632.9998 413.4275 629 413.4167 629 413.4167 "/>
<path id="36" d="M432 407.4167 C432 407.4167 441.7427 385.0603 455 369.4167 C465.1188 357.4764 469.8277 353.6334 482 348.4167 C489.4386 345.2287 493.6998 347.2049 504 348.4167 C509.8386 349.1036 510.832 349.4635 516 352.4167 C527.6281 359.0613 530.7623 361.5519 539 368.4167 C539.9825 369.2354 540 372.4167 540 372.4167 "/>
<path id="37" d="M540 372.4167 C540 372.4167 544.7943 363.7774 551 359.4167 C561.8287 351.8073 565.4045 348.0222 577 346.4167 C593.0361 344.1963 604.0145 344.852 616 350.4167 C623.9833 354.1232 633 372.4167 633 372.4167 "/>
<path id="38" d="M295 161.4167 L296 124.4167 "/>
<path id="39" d="M296 124.4167 L327 124.4167 "/>
<path id="40" d="M325 123.4167 C325 123.4167 323.7556 138.6226 325 153.4167 C328.2253 191.7615 331.9806 192.0476 334 230.4167 C336.4502 276.9705 334 324.4167 334 324.4167 "/>
<path id="41" d="M300 113.4167 C300 113.4167 299.2182 109.3484 300 106.4167 C301.0126 102.6193 301.7634 99.621 304 98.4167 C310.7926 94.7591 318.2183 97.3314 326 92.4167 C334.2581 87.201 334.7873 78.5694 342 74.4167 C346.8085 71.6482 351.8077 75.2813 359 73.4167 C363.8154 72.1682 364.7797 68.1201 369 67.4167 C374.2434 66.5428 378.2041 67.5516 383 69.4167 C384.9292 70.1669 387 74.4167 387 74.4167 "/>
<path id="42" d="M325 119.4167 C325 119.4167 330.7228 118.0305 335 115.4167 C339.2199 112.8379 340.2868 112.1165 343 108.4167 C345.1509 105.4837 344.006 103.4077 346 100.4167 C347.4623 98.2233 348.5191 97.1403 351 96.4167 C358.9957 94.0846 362.5871 96.3289 370 93.4167 C374.4609 91.6642 374.511 87.7793 379 85.4167 C382.7557 83.44 387.8341 84.466 389 83.4167 C389.6225 82.8564 389 76.4167 389 76.4167 "/>
<path id="43" d="M295 409.4167 C295 409.4167 284.4556 413.5833 282 416.4167 C280.9245 417.6576 280.9466 421.4321 282 424.4167 C283.4639 428.5644 285.2361 431.8812 288 433.4167 C291.1547 435.1693 300 434.4167 300 434.4167 "/>
<path id="44" d="M296 411.4167 C296 411.4167 365.8011 407.7591 405 410.4167 C408.4582 410.6511 411.6858 415.5596 414 419.4167 C414.9643 421.0238 414.7639 423.3158 414 425.4167 C413.1782 427.6767 411.6542 429.2351 410 430.4167 C409.3446 430.8849 407 430.4167 407 430.4167 "/>
<path id="45" d="M300 434.4167 C300 434.4167 363.0917 436.5426 404 435.4167 C406.0106 435.3613 409 431.4167 409 431.4167 "/>
<path id="46" d="M314 410.4167 L314 430.4167 "/>
<path id="47" d="M324 412.4167 L323 433.4167 "/>
<path id="48" d="M366 412.4167 L366 434.4167 "/>
<path id="49" d="M377 412.4167 L377 438.4167 "/>
<path id="50" d="M177 399.4167 C177 399.4167 163.84 399.9991 163 401.4167 C160.8637 405.0218 159.7383 420.1082 161 426.4167 C161.3385 428.1092 165.2959 430.6114 169 431.4167 C175.1144 432.7459 183.3088 432.4331 184 431.4167 C185.7862 428.7898 187.1468 413.2978 186 406.4167 C185.7133 404.6964 179 401.4167 179 401.4167 "/>
<path id="51" d="M493 410.4167 C493 410.4167 485.649 409.1557 484 410.4167 C480.7129 412.9304 478.288 417.4106 476 423.4167 C474.8594 426.4108 475.1257 428.7939 476 431.4167 C476.5828 433.1652 478.0312 434.7902 480 435.4167 C487.0776 437.6686 493.706 439.0022 498 438.4167 C499.1761 438.2563 501.4785 435.1543 502 432.4167 C503.1567 426.3437 503.4838 423.1046 502 417.4167 C501.0538 413.7896 498.3437 411.5 496 409.4167 C495.4637 408.94 493 409.4167 493 409.4167 "/>
<path id="52" d="M589 405.4167 C589 405.4167 581.9142 403.9596 579 405.4167 C574.6287 407.6023 571.1857 411.0454 569 415.4167 C567.5429 418.3309 567.7858 421.9765 569 425.4167 C570.1071 428.5533 571.6975 429.586 575 432.4167 C578.3811 435.3148 579.1236 436.3091 583 437.4167 C588.4622 438.9773 592.3456 439.1019 596 438.4167 C597.0696 438.2161 598.7489 436.1744 599 434.4167 C599.9639 427.6694 600.204 424.3396 599 417.4167 C598.5258 414.69 597.2658 413.4559 595 411.4167 C592.9029 409.5293 589 408.4167 589 408.4167 "/>
<path id="53" d="M165 382.4167 C165 382.4167 161.0088 381.4714 159 382.4167 C154.0568 384.7429 151.625 385.9387 148 390.4167 C144.1707 395.147 143.5381 397.0444 142 403.4167 C140.271 410.5798 138.9292 413.8944 141 419.4167 C144.976 430.0194 148.5758 435.2642 157 443.4167 C161.4684 447.741 164.7668 448.2746 172 449.4167 C182.4321 451.0638 186.9488 452.0279 195 449.4167 C201.2631 447.3854 204.7408 443.4296 209 437.4167 C211.745 433.5414 211.5576 431.3149 212 425.4167 C213.0132 411.9075 215.2758 406.4252 212 397.4167 C209.4474 390.397 204.1682 387.4672 196 381.4167 C191.905 378.3834 190.3172 378.0075 185 377.4167 C173.3847 376.1261 166.9463 376.1763 160 377.4167 C158.9184 377.6098 157 382.4167 157 382.4167 "/>
<path id="54" d="M162 379.4167 C162 379.4167 161.8715 388.3725 164 392.4167 C165.5466 395.3552 172 398.4167 172 398.4167 "/>
<path id="55" d="M196 374.4167 L193 376.4167 "/>
<path id="56" d="M187 379.4167 C187 379.4167 187.6995 387.318 186 392.4167 C184.7253 396.2406 181.782 396.8527 180 400.4167 C179.352 401.7127 180 404.4167 180 404.4167 "/>
<path id="57" d="M187 408.4167 C187 408.4167 192.1341 403.9649 197 402.4167 C202.033 400.8153 209 401.4167 209 401.4167 "/>
<path id="58" d="M186 416.4167 C186 416.4167 189.6623 419.0316 193 419.4167 C201.6325 420.4127 212 419.4167 212 419.4167 "/>
<path id="59" d="M162 408.4167 L145 401.4167 "/>
<path id="60" d="M161 414.4167 L147 425.4167 "/>
<path id="61" d="M168 429.4167 L158 444.4167 "/>
<path id="62" d="M176 432.4167 L177 451.4167 "/>
<path id="63" d="M186 430.4167 L197 445.4167 "/>
<path id="64" d="M189 424.4167 L207 433.4167 "/>
<path id="65" d="M483 377.4167 C483 377.4167 474.9146 381.2735 469 386.4167 C463.9691 390.7914 460.9858 392.4876 460 397.4167 C456.981 412.5118 456.0214 421.2528 459 436.4167 C460.4859 443.9812 464.9207 447.0175 471 453.4167 C473.0657 455.5911 474.6748 456.0949 478 456.4167 C488.9468 457.476 496.6929 459.4892 502 456.4167 C507.9123 452.9938 513.3666 444.7748 516 434.4167 C519.8384 419.319 519.3037 411.239 517 397.4167 C516.2182 392.7258 512.8087 390.6597 508 386.4167 C505.0361 383.8015 503.953 383.2345 500 382.4167 C490.411 380.4327 479 380.4167 479 380.4167 "/>
<path id="66" d="M482 381.4167 L483 414.4167 "/>
<path id="67" d="M494 383.4167 L494 411.4167 "/>
<path id="68" d="M502 415.4167 C502 415.4167 501.8635 412.1731 503 410.4167 C506.7174 404.6717 513 398.4167 513 398.4167 "/>
<path id="69" d="M508 421.4167 L520 408.4167 "/>
<path id="70" d="M480 418.4167 L463 408.4167 "/>
<path id="71" d="M477 426.4167 L457 426.4167 "/>
<path id="72" d="M478 434.4167 C478 434.4167 472.3646 437.0521 469 440.4167 C466.5327 442.884 465 447.4167 465 447.4167 "/>
<path id="73" d="M485 439.4167 L481 457.4167 "/>
<path id="74" d="M504 432.4167 L513 434.4167 "/>
<path id="75" d="M501 438.4167 L504 452.4167 "/>
<path id="76" d="M581 380.4167 C581 380.4167 577.0289 379.5906 574 380.4167 C566.8015 382.3799 564.918 382.4713 559 386.4167 C554.1202 389.6698 551.7431 391.9621 550 396.4167 C548.3241 400.6994 549.4278 403.1226 550 409.4167 C550.4041 413.8622 550.0927 414.602 552 418.4167 C559.6294 433.6754 560.2405 437.1385 570 449.4167 C573.9491 454.3849 576.734 455.4026 583 457.4167 C589.1654 459.3984 592.691 459.4279 598 458.4167 C600.4923 457.9419 602.1856 456.2679 604 453.4167 C608.5454 446.2739 610.5601 444.5159 612 436.4167 C614.1885 424.1066 614.2591 419.7123 612 408.4167 C610.9027 402.9302 608.5383 401.6716 604 396.4167 C599.3199 390.9976 598.8701 389.9807 593 386.4167 C585.6931 381.9803 576 379.4167 576 379.4167 "/>
<path id="77" d="M571 386.4167 L572 407.4167 "/>
<path id="78" d="M584 385.4167 L585 405.4167 "/>
<path id="79" d="M593 407.4167 L601 396.4167 "/>
<path id="80" d="M599 415.4167 L612 402.4167 "/>
<path id="81" d="M573 418.4167 L558 410.4167 "/>
<path id="82" d="M570 423.4167 L558 426.4167 "/>
<path id="83" d="M582 434.4167 C582 434.4167 578.7902 435.7572 578 437.4167 C574.6397 444.4733 572 455.4167 572 455.4167 "/>
<path id="84" d="M589 437.4167 L589 457.4167 "/>
<path id="85" d="M601 428.4167 L608 423.4167 "/>
<path id="86" d="M606 422.4167 C606 422.4167 609.0283 422.2264 610 421.4167 C611.0722 420.5232 612 417.4167 612 417.4167 "/>
<path id="87" d="M602 430.4167 C602 430.4167 604.6114 435.1305 607 436.4167 C609.4779 437.7509 615 437.4167 615 437.4167 "/>
<path id="88" d="M615 326.4167 C615 326.4167 613.6725 334.8497 614 340.4167 C614.0732 341.6616 614.8061 342.3934 616 343.4167 C617.9773 345.1115 618.6873 346.0085 621 346.4167 C626.0191 347.3024 633 346.4167 633 346.4167 "/>
<path id="89" d="M99 355.4167 C99 355.4167 107.758 354.8562 110 355.4167 C110.3567 355.5058 110.9446 356.9765 111 358.4167 C111.4193 369.318 112.119 379.0769 111 381.4167 C110.744 381.9519 100 381.4167 100 381.4167 "/>
</g>
</g>
</svg>
