<?xml version="1.0" encoding="utf-8"?>
<!DOCTYPE svg PUBLIC "-//W3C//DTD SVG 1.1//EN" "http://www.w3.org/Graphics/SVG/1.1/DTD/svg11.dtd">
<svg viewBox="0 0 800 800" preserveAspectRatio="xMinYMin meet" xmlns="http://www.w3.org/2000/svg" version="1.1">
<g fill="none" stroke="black" stroke-linecap="round" stroke-linejoin="round" stroke-width="1.4545">
<g transform="translate(87.52,215.3996) scale(2.0626) translate(-169,-139.1333)">
<path id="0" d="M294 233.1333 C294 233.1333 287.4225 231.7118 283 233.1333 C275.0022 235.7041 272.315 236.8709 266 242.1333 C261.833 245.6058 260.4895 248.0265 259 253.1333 C257.5153 258.2238 257.6516 260.7399 259 266.1333 C260.2965 271.3193 261.4296 272.3728 265 277.1333 C268.628 281.9706 269.1893 283.9952 274 286.1333 C289.1311 292.8583 292.3932 294.9072 310 297.1333 C334.0152 300.1697 337.7538 298.6831 361 297.1333 C365.2238 296.8517 367.2944 295.8389 370 293.1333 C374.3706 288.7628 375.6112 286.583 378 280.1333 C380.2059 274.1775 380 272.9018 380 266.1333 C380 257.9145 381.0285 254.6857 378 249.1333 C373.8605 241.5442 370.2978 239.3567 362 233.1333 C357.3325 229.6327 355.9244 228.9797 350 228.1333 C325.9697 224.7004 318.8447 223.7912 299 224.1333 C296.2389 224.1809 292 229.1333 292 229.1333 "/>
<path id="1" d="M268 231.1333 C268 231.1333 265.521 225.038 265 219.1333 C264.0655 208.5418 262.0161 205.9493 265 197.1333 C271.842 176.9183 275.2496 173.8436 287 154.1333 C290.0081 149.0875 291.1914 148.339 296 145.1333 C300.9154 141.8564 302.2292 140.7202 308 140.1333 C329.7303 137.9235 331.9673 138.1601 355 139.1333 C366.8549 139.6342 368.0985 139.4995 379 143.1333 C391.049 147.1497 395.6335 147.7668 403 155.1333 C410.7758 162.9091 411.6627 168.0508 416 180.1333 C418.0993 185.9814 418.4897 188.2988 417 194.1333 C413.0637 209.5506 412.7141 214.18 404 227.1333 C396.0374 238.9696 380 249.1333 380 249.1333 "/>
<path id="2" d="M386 249.1333 C386 249.1333 395.8666 251.1978 404 255.1333 C410.7528 258.4008 411.475 259.2222 417 264.1333 C419.9525 266.7578 422 271.1333 422 271.1333 "/>
<path id="3" d="M378 251.1333 C378 251.1333 393.1831 256.5603 403 264.1333 C408.8293 268.6302 413 278.1333 413 278.1333 "/>
<path id="4" d="M264 231.1333 C264 231.1333 244.6263 228.5522 230 231.1333 C222.0036 232.5445 213 240.1333 213 240.1333 "/>
<path id="5" d="M262 234.1333 C262 234.1333 249.2233 232.9705 241 236.1333 C232.3117 239.475 223 249.1333 223 249.1333 "/>
<path id="6" d="M213 239.1333 C213 239.1333 192.2691 233.9777 183 236.1333 C177.9314 237.3121 172.8885 243.1501 170 249.1333 C167.5301 254.2496 167.33 260.3089 169 265.1333 C170.4361 269.2821 176.927 274.6969 179 275.1333 C180.3249 275.4123 184.5202 272.7581 188 269.1333 C195.9388 260.8637 197.4256 255.7077 203 250.1333 C203.6558 249.4775 206.275 249.65 207 250.1333 C207.8458 250.6972 208.9065 252.3578 209 254.1333 C209.3403 260.5982 210.153 266.5497 208 269.1333 C204.6232 273.1855 190.4256 276.6127 189 278.1333 C188.8272 278.3177 191.1443 284.3742 193 285.1333 C198.0877 287.2147 204.5767 288.5838 211 287.1333 C216.5023 285.8909 218.7196 283.1358 224 278.1333 C227.5633 274.7576 229.006 273.2749 230 269.1333 C231.5233 262.7861 231.164 260.117 230 253.1333 C229.3695 249.3505 226 245.1333 226 245.1333 "/>
<path id="7" d="M415 278.1333 C415 278.1333 411.7722 277.3738 410 278.1333 C405.8985 279.8911 402.2889 281.2334 401 284.1333 C398.1216 290.6098 397.2286 297.6764 398 305.1333 C398.3214 308.2404 400.6214 310.2052 404 313.1333 C407.4831 316.152 408.7644 317.0744 413 318.1333 C417.5455 319.2697 419.1575 319.1018 424 318.1333 C428.3142 317.2705 433.0172 314.6143 433 314.1333 C432.8863 310.9484 426.6773 301.533 423 290.1333 C422.0545 287.2024 422.576 283.4631 423 283.1333 C423.701 282.5881 429.0051 282.2118 432 283.1333 C433.7407 283.6689 435.257 285.0693 436 287.1333 C439.1142 295.7838 439.1934 306.1141 441 308.1333 C441.6196 308.8259 449.6192 308.1221 453 306.1333 C455.4903 304.6684 457.509 301.4067 458 298.1333 C458.6565 293.7563 458.4386 289.5202 456 286.1333 C451.5511 279.9542 447.9624 277.243 440 273.1333 C434.1979 270.1387 425 270.1333 425 270.1333 "/>
<path id="8" d="M418 186.1333 C418 186.1333 417.8278 188.0568 418 188.1333 C426.1809 191.7693 443.4244 194.5793 454 202.1333 C458.0069 204.9954 455.9344 211.3574 460 218.1333 C464.3975 225.4624 472 232.1333 472 232.1333 "/>
<path id="9" d="M414 210.1333 C414 210.1333 422.2775 211.4108 425 214.1333 C428.4485 217.5818 427.2773 221.3424 431 227.1333 C436.0162 234.9363 436.4181 237.25 443 242.1333 C450.0959 247.398 462 250.1333 462 250.1333 "/>
<path id="10" d="M406 228.1333 C406 228.1333 410.9918 228.3483 413 230.1333 C418.3636 234.901 417.7994 238.3461 424 244.1333 C432.2617 251.8443 433.2612 252.1644 443 258.1333 C448.3193 261.3935 455 263.1333 455 263.1333 "/>
<path id="11" d="M276 171.1333 C276 171.1333 270.9373 170.1959 267 171.1333 C261.2295 172.5073 257.2164 173.7464 255 176.1333 C253.6368 177.6014 255.5214 181.5833 254 185.1333 C251.5104 190.9424 250.3629 192.7704 246 197.1333 C243.3823 199.7511 238 201.1333 238 201.1333 "/>
<path id="12" d="M265 194.1333 C265 194.1333 260.5956 198.4738 257 200.1333 C255.3306 200.9038 252.5653 199.5115 252 200.1333 C250.0667 202.2599 249.374 208.942 247 211.1333 C245.6021 212.4237 239 212.1333 239 212.1333 "/>
<path id="13" d="M262 209.1333 C262 209.1333 261.6925 216.6717 261 217.1333 C259.7973 217.9351 254.6699 216.0214 250 217.1333 C245.2492 218.2645 244.7476 220.884 240 222.1333 C236.224 223.127 231 222.1333 231 222.1333 "/>
<path id="14" d="M294 234.1333 C294 234.1333 288.019 215.4567 288 215.1333 C287.9977 215.095 292.2687 215.8902 293 217.1333 C295.6552 221.6471 298 232.1333 298 232.1333 "/>
<path id="15" d="M361 236.1333 C361 236.1333 365.0301 231.0233 368 229.1333 C369.0371 228.4733 371.68 228.8933 372 229.1333 C372.18 229.2683 372.4197 231.7136 372 232.1333 C370.4611 233.6723 365 236.1333 365 236.1333 "/>
<path id="16" d="M372 222.1333 C372 222.1333 370.6073 228.1698 371 230.1333 C371.1309 230.7878 373.2358 232.2607 374 232.1333 C376.7703 231.6716 381.513 229.7856 383 228.1333 C383.7374 227.314 383.7998 223.4663 383 222.1333 C381.987 220.4449 378.9621 218.2735 377 218.1333 C374.5696 217.9597 369 221.1333 369 221.1333 "/>
<path id="17" d="M288 217.1333 C288 217.1333 292.7396 215.8914 295 214.1333 C296.2378 213.1706 296.8145 211.8026 297 210.1333 C297.2148 208.2005 296.675 205.6396 296 205.1333 C294.8986 204.3073 290.1643 203.4983 289 204.1333 C287.5897 204.9026 286.0907 207.8611 285 211.1333 C284.3456 213.0966 284.6951 215.7522 285 216.1333 C285.1951 216.3772 289 216.1333 289 216.1333 "/>
<path id="18" d="M300 254.1333 C300 254.1333 298.7976 258.9916 299 259.1333 C300.0041 259.8362 306.3694 261.5872 310 261.1333 C311.8575 260.9011 314.2589 258.9861 315 257.1333 C316.4081 253.613 316.3342 246.4068 316 246.1333 C315.567 245.7791 306.5971 246.4019 304 248.1333 C302.3768 249.2155 301 256.1333 301 256.1333 "/>
<path id="19" d="M334 250.1333 C334 250.1333 330.4857 261.5399 331 262.1333 C331.9228 263.1981 346.0957 265.642 347 265.1333 C347.4265 264.8934 348.0285 257.2475 347 253.1333 C346.5714 251.4191 344.7575 249.9145 343 249.1333 C341.4791 248.4574 338 249.1333 338 249.1333 "/>
<path id="20" d="M305 279.1333 C305 279.1333 308.1841 281.7813 311 282.1333 C318.9507 283.1272 329 282.1333 329 282.1333 "/>
</g>
</g>
</svg>
