<?xml version="1.0" encoding="utf-8"?>
<!DOCTYPE svg PUBLIC "-//W3C//DTD SVG 1.1//EN" "http://www.w3.org/Graphics/SVG/1.1/DTD/svg11.dtd">
<svg viewBox="0 0 800 800" preserveAspectRatio="xMinYMin meet" xmlns="http://www.w3.org/2000/svg" version="1.1">
<g fill="none" stroke="black" stroke-linecap="round" stroke-linejoin="round" stroke-width="1.3585">
<g transform="translate(87.52,129.4784) scale(2.2083) translate(-131,-129)">
<path id="0" d="M224 236 C224 236 214.6204 236.1312 208 239 C200.9842 242.0402 199.1012 243.2612 194 249 C188.116 255.6195 186.8183 257.5451 184 266 C180.8121 275.5638 180.0563 278.5634 181 288 C181.8132 296.132 183.6782 297.9327 188 306 C190.8386 311.2987 191.5785 311.5785 196 316 C202.3867 322.3867 202.5499 323.0332 210 328 C220.1593 334.7728 220.9281 335.8802 232 340 C241.4082 343.5007 242.6057 343.3974 253 344 C276.499 345.3623 279.6257 345.8426 301 344 C305.6449 343.5996 306.0647 340.4806 311 339 C315.4203 337.6739 316.7032 339.5346 321 338 C329.801 334.8568 330.6091 334.1428 339 329 C345.8255 324.8166 347.4618 324.76 352 319 C359.4527 309.5408 359.877 307.5268 365 296 C367.5516 290.2588 367.84 289.2388 368 283 C368.3174 270.6202 369.0124 267.6804 366 257 C364.2379 250.7526 361.9423 249.8145 357 244 C353.6971 240.1143 353.3144 239.3969 349 237 C340.4923 232.2735 339.3776 232.0142 330 229 C325.9478 227.6975 322.2947 228.4316 321 228 C320.9075 227.9692 321.0079 226.0003 321 226 C313.1329 225.7503 288.9522 224.3178 258 226 C243.6186 226.7816 242.5054 227.231 229 231 C221.9114 232.9782 215.0451 238.0574 215 238 C214.7899 237.7326 214.7847 225.6566 218 217 C220.5756 210.0658 227.963 203.0687 228 203 C228.005 202.9907 225.447 204.1788 225 204 C224.4498 203.7799 223.2874 202.437 223 201 C221.9687 195.8435 221.7773 189.2863 222 189 C222.0639 188.9178 229.3611 190.7221 230 192 C231.1866 194.3732 230 205 230 205 "/>
<path id="1" d="M321 228 C321 228 322.2952 225.6493 322 225 C320.7561 222.2635 319.55 219.5707 316 217 C306.2427 209.9343 297.8713 209.0831 293 204 C291.4708 202.4044 293.6875 193.6875 293 193 C292.3125 192.3125 282.6012 192.459 282 193 C281.612 193.3492 282.0862 201.4087 283 202 C285.316 203.4986 299 204 299 204 "/>
<path id="2" d="M192 251 C192 251 194.4138 243.4249 195 236 C195.8848 224.7921 197.2467 221.7373 195 213 C193.6017 207.5623 189.9445 202.5082 186 201 C178.6319 198.1828 168.7316 197.2939 161 200 C154.6485 202.223 150.6828 207.1244 146 215 C140.878 223.6142 140.6718 226.2527 139 237 C137.3346 247.706 136.3003 252.3162 139 260 C141.1795 266.2031 145.1126 269.25 152 274 C158.1222 278.2222 160.4657 278.7443 168 280 C174.1308 281.0218 182 279 182 279 "/>
<path id="3" d="M155 205 C155 205 149.2324 187.0706 152 176 C155.8943 160.4228 161.972 156.1834 171 141 C171.7378 139.7591 173.9935 138.9656 174 139 C174.0808 139.431 172.499 148.9944 174 157 C175.2613 163.7269 179.9477 171.0317 180 171 C180.8533 170.4819 201.9975 139.9983 202 140 C202.0911 140.0621 204.7505 164.913 202 186 C200.5546 197.0816 193 209 193 209 "/>
<path id="4" d="M341 237 C341 237 343.2062 223.554 342 213 C341.4157 207.8871 337.9741 207.3577 337 202 C335.1856 192.0208 334.4731 183.97 336 180 C336.5814 178.4883 341.6849 176.5746 347 176 C359.0878 174.6932 363.9507 173.3805 373 176 C378.2848 177.5298 381.6354 180.9438 385 187 C392.8506 201.1311 394.4178 204.3682 398 221 C401.0386 235.1078 400.6842 241.3337 399 252 C398.5574 254.8031 395.3726 256.9246 392 259 C390.0269 260.2142 388.3693 258.768 386 260 C376.828 264.7694 376.3905 266.4511 367 272 C365.7076 272.7637 364.1403 273.0468 364 273 C363.9649 272.9883 364 271 364 271 "/>
<path id="5" d="M336 183 C336 183 335.0217 180.3406 334 180 C323.669 176.5563 318.6711 177.3444 306 173 C302.3678 171.7547 300.4536 170.0766 299 168 C298.2658 166.9512 298.4361 163.9868 299 163 C299.4833 162.1542 301.1603 161.1051 303 161 C316.8615 160.2079 333.4723 161.0977 334 161 C334.0523 160.9903 332.3261 157.4802 330 156 C322.3152 151.1097 320.3696 148.4879 312 147 C300.5464 144.9638 287.064 148.3969 285 148 C284.9882 147.9977 284.739 143.345 286 142 C290.2032 137.5166 292.8787 136.0251 300 132 C303.8758 129.8094 304.8096 129.1197 309 129 C320.9651 128.6581 324.4377 127.7307 335 131 C342.6997 133.3832 344.7098 135.5248 351 142 C360.8314 152.1206 362.7535 154.444 369 166 C371.6077 170.8242 371 179 371 179 "/>
<path id="6" d="M186 300 C186 300 173.3215 297.9827 165 300 C159.4763 301.3391 157.6304 303.2042 153 308 C144.3832 316.9245 142.2333 318.2956 137 329 C132.1097 339.0029 130.4872 351.6324 131 353 C131.1326 353.3537 142.4311 354.9986 146 353 C150.2446 350.623 151.9999 346.2943 156 339 C160.2782 331.1985 158.6034 329.1445 163 322 C165.9998 317.1252 167.2684 315.5478 172 313 C178.7295 309.3764 189 308 189 308 "/>
<path id="7" d="M198 319 C198 319 198.2747 323.2618 197 325 C193.908 329.2163 191.0407 329.0613 187 334 C182.4034 339.6181 180.4631 340.8224 179 347 C176.521 357.4669 176.475 369.255 178 372 C178.6793 373.2228 193.1099 374.6676 194 374 C194.6445 373.5166 193.755 361.715 194 360 C194.005 359.965 195.9594 360.1116 196 360 C196.6543 358.2007 196.0474 353.7927 198 349 C201.2502 341.0222 201.9988 339.564 207 333 C209.2609 330.0325 214 328 214 328 "/>
<path id="8" d="M368 291 C368 291 392.7537 289.8841 396 290 C396.0083 290.0003 395.825 291.9 396 292 C397.2468 292.7125 400.4259 292.3452 403 294 C406.5727 296.2967 408.1426 297.4916 410 301 C411.9186 304.624 411.334 309.335 412 311 C412.0493 311.1233 413.9942 310.9624 414 311 C414.2442 312.5874 415.5196 320.792 414 324 C412.8003 326.5326 405.124 330.124 405 330 C403.4702 328.4702 398.5263 310.1105 394 304 C392.9838 302.6281 386.2947 303.4316 385 303 C384.9075 302.9692 385.035 301.005 385 301 C383.285 300.755 377.3324 299.9446 371 301 C366.1753 301.8041 361 305 361 305 "/>
<path id="9" d="M354 321 C354 321 365.8075 318.6323 372 321 C379.2145 323.7585 380.5092 327.1606 388 334 C391.8447 337.5104 393.6649 338.1432 395 342 C397.3942 348.9167 397.8275 357.6357 397 360 C396.7537 360.7038 391.6275 362.2267 388 362 C385.0622 361.8164 381.6959 360.3917 381 359 C379.5547 356.1095 382.0387 351.0968 380 346 C376.7441 337.8603 373.6513 331.5507 369 329 C364.4225 326.4898 349 329 349 329 "/>
</g>
</g>
</svg>
