<?xml version="1.0" encoding="utf-8"?>
<!DOCTYPE svg PUBLIC "-//W3C//DTD SVG 1.1//EN" "http://www.w3.org/Graphics/SVG/1.1/DTD/svg11.dtd">
<svg viewBox="0 0 800 800" preserveAspectRatio="xMinYMin meet" xmlns="http://www.w3.org/2000/svg" version="1.1">
<g fill="none" stroke="black" stroke-linecap="round" stroke-linejoin="round" stroke-width="2.7842">
<g transform="translate(87.52,188.2679) scale(1.0775) translate(-5,-59.1333)">
<path id="0" d="M272 180.1333 C272 180.1333 247.4785 179.3165 226 182.1333 C218.6705 183.0946 217.5977 184.14 211 188.1333 C199.2118 195.2683 198.1057 195.975 188 205.1333 C182.7704 209.8727 182.0006 210.9179 179 217.1333 C175.436 224.5158 174.5395 226.0415 174 234.1333 C173.1327 247.1425 171.9317 251.3523 176 262.1333 C180.4981 274.0533 184.1032 275.8991 194 287.1333 C202.1724 296.4101 203.1591 298.5099 213 304.1333 C222.2534 309.421 224.744 309.5253 236 311.1333 C248.194 312.8753 249.9164 313.3889 262 311.1333 C285.9874 306.6557 287.5222 305.4196 311 297.1333 C320.8059 293.6724 322.4787 293.0429 330 287.1333 C335.1609 283.0783 336.567 281.4371 339 275.1333 C346.8646 254.7569 347.9663 252.1634 352 230.1333 C354.2135 218.0443 353.7969 215.5134 352 204.1333 C351.1052 198.4663 349.7578 196.9963 346 192.1333 C341.8213 186.7256 340.7687 184.7293 335 182.1333 C322.867 176.6735 320.021 176.1781 306 174.1333 C297.2368 172.8554 295.2937 172.8526 287 175.1333 C276.7808 177.9436 266 185.1333 266 185.1333 "/>
<path id="1" d="M354 210.1333 C354 210.1333 354.2261 207.6654 355 207.1333 C360.1805 203.5717 362.2809 201.7578 370 199.1333 C386.5796 193.4963 387.3882 193.2849 405 190.1333 C434.5521 184.8451 435.1313 184.2112 465 182.1333 C492.128 180.2462 505.99 179.7983 520 182.1333 C521.6982 182.4164 523.4437 186.978 525 192.1333 C531.2636 212.8814 528.7938 215.0814 536 235.1333 C539.8849 245.9434 541.8461 246.9025 548 256.1333 C549.2025 257.9371 550.0362 258.7087 552 259.1333 C566.3976 262.2463 583.6658 263.789 585 264.1333 C585.0477 264.1456 583.7005 267.0682 583 267.1333 C570.3701 268.3082 544.1321 267.8053 542 268.1333 C541.9362 268.1431 542.8019 272.5565 544 273.1333 C551.8428 276.9095 556.9928 276.6306 569 281.1333 C572.645 282.5002 574.032 283.1653 576 285.1333 C576.8945 286.0279 577.0376 289.1286 577 289.1333 C573.9111 289.5194 552.1233 291.7786 536 290.1333 C532.6048 289.7869 529.5481 287.4507 528 284.1333 C520.8321 268.7735 521.984 264.0312 515 245.1333 C513.6483 241.4757 513.1859 240.3192 511 238.1333 C509.609 236.7423 508.5293 236.5932 506 236.1333 C487.0943 232.6959 486.3238 230.7775 467 230.1333 C412.2985 228.3099 356 231.1333 356 231.1333 "/>
<path id="2" d="M344 268.1333 C344 268.1333 344.2339 270.6691 345 271.1333 C356.4991 278.1025 362.3892 278.6045 377 288.1333 C384.6224 293.1045 385.2008 293.9197 391 301.1333 C405.2752 318.8903 405.7554 319.4998 418 339.1333 C434.5974 365.7464 432.3552 368.4425 449 394.1333 C454.7013 402.9331 457.6522 408.5212 464 410.1333 C479.983 414.1925 511.9559 410.1288 512 410.1333 C512.0079 410.1341 507.5351 413.1528 503 414.1333 C489.7302 417.0025 476.7962 415.6719 475 418.1333 C472.6276 421.3844 476.4 444.3328 476 451.1333 C475.9857 451.3762 473.2093 452.3427 473 452.1333 C470.488 449.6213 466.2725 445.1818 463 438.1333 C460.298 432.3136 461.9992 429.7977 460 424.1333 C459.4612 422.6066 458.653 421.891 457 421.1333 C447.68 416.8617 445.9872 417.8772 436 413.1333 C426.2444 408.4994 425.5524 408.5476 417 402.1333 C403.9753 392.3648 402.0397 392.4041 392 380.1333 C375.9838 360.5579 378.2832 357.4813 363 336.1333 C346.872 313.6054 329 292.1333 329 292.1333 "/>
<path id="3" d="M187 202.1333 C187 202.1333 180.8714 184.0422 173 167.1333 C167.492 155.3014 167.0801 155.1468 160 144.1333 C153.6779 134.299 153.7809 133.4162 146 125.1333 C138.7471 117.4125 138.0797 116.3995 129 111.1333 C113.9274 102.3912 111.7884 99.8925 96 96.1333 C83.0486 93.0497 79.1211 99.2207 66 96.1333 C47.7333 91.8353 34.6239 86.583 28 80.1333 C25.4721 77.672 28.0033 59.1415 28 59.1333 C27.9985 59.1297 26.8093 65.5181 24 70.1333 C20.2179 76.3468 16.5 76.3 14 82.1333 C11.4123 88.1714 11.4 96.4333 12 98.1333 C12.15 98.5583 16.5828 97.7664 20 99.1333 C30.7398 103.4293 42.0189 110.0293 42 110.1333 C41.9575 110.3671 28.0634 115.1016 16 121.1333 C12.7448 122.7609 10.8293 124.9724 10 126.1333 C9.8852 126.2941 10.6636 128.097 11 128.1333 C21.0164 129.2162 30.6691 131.618 47 130.1333 C55.953 129.3194 56.4623 125.4042 66 123.1333 C76.9442 120.5276 83.3613 117.2168 89 120.1333 C102.6888 127.2138 109.0877 135.3928 124 153.1333 C137.2192 168.8597 133.7552 173.5648 147 189.1333 C161.2836 205.9229 181 220.1333 181 220.1333 "/>
<path id="4" d="M182 267.1333 C182 267.1333 161.2193 269.2911 144 275.1333 C134.8088 278.2518 133.744 279.5939 126 286.1333 C111.8678 298.0672 113.61 301.4801 99 313.1333 C72.2382 334.479 69.3739 332.5038 42 353.1333 C35.3898 358.1149 35.0563 358.5739 30 365.1333 C16.8488 382.1944 14.1056 385.4718 5 401.1333 C3.7387 403.3027 4.953 408.1506 5 408.1333 C5.44 407.9712 23.8116 394.0342 24 394.1333 C24.2046 394.241 23.7094 416.4626 24 418.1333 C24.0037 418.1545 27.5162 417.9586 28 417.1333 C33.1519 408.3448 32.8555 400.4862 41 389.1333 C48.0582 379.2946 50.3702 379.1622 61 371.1333 C97.0799 343.8815 96.9357 341.6261 135 318.1333 C159.9861 302.7122 189 292.1333 189 292.1333 "/>
</g>
</g>
</svg>
