<?xml version="1.0" encoding="utf-8"?>
<!DOCTYPE svg PUBLIC "-//W3C//DTD SVG 1.1//EN" "http://www.w3.org/Graphics/SVG/1.1/DTD/svg11.dtd">
<svg viewBox="0 0 800 800" preserveAspectRatio="xMinYMin meet" xmlns="http://www.w3.org/2000/svg" version="1.1">
<g fill="none" stroke="black" stroke-linecap="round" stroke-linejoin="round" stroke-width="1.2433">
<g transform="translate(87.52,97.1719) scale(2.413) translate(-211,-62.1333)">
<path id="0" d="M308 139.1333 C308 139.1333 303.8844 144.4818 299 147.1333 C287.2962 153.4868 284.4444 151.891 273 158.1333 C269.131 160.2437 268.608 161.3216 266 165.1333 C262.4373 170.3404 260.3246 171.8316 260 177.1333 C259.0337 192.916 259.5229 197.3802 263 214.1333 C264.6322 221.9974 266.7653 224.3863 271 230.1333 C272.4353 232.0813 274.3558 233.0672 277 233.1333 C291.7772 233.5028 298.6207 229.9256 311 231.1333 C313.7778 231.4043 314.6878 236.2196 318 237.1333 C326.6302 239.5141 329.2553 237.2483 340 239.1333 C357.5002 242.2035 358.891 245.9401 375 247.1333 C383.4652 247.7604 388.1515 246.8374 394 243.1333 C399.5678 239.607 400.8848 232.2485 405 228.1333 C405.6331 227.5002 408.1649 228.8293 409 228.1333 C414.5328 223.5227 418.7704 221.0158 423 213.1333 C428.6915 202.5265 428.1874 199.7898 431 187.1333 C432.0125 182.577 431.894 181.6033 431 177.1333 C430.0345 172.3058 429.6915 171.1706 427 167.1333 C424.1668 162.8836 422.0328 163.4659 419 159.1333 C415.3874 153.9725 416.6947 152.2136 413 147.1333 C409.1 141.7708 408.1657 140.0261 403 137.1333 C397.2913 133.9364 391.7454 135.006 388 133.1333 C387.339 132.8029 387.8725 129.8045 387 129.1333 C383.4442 126.3981 380.2863 123.8885 375 123.1333 C368.5389 122.2103 366.8293 125.1333 359 125.1333 C347.256 125.1333 345.5634 122.0499 335 123.1333 C328.0678 123.8443 326.6092 125.3203 320 129.1333 C314.2032 132.4777 309 138.1333 309 138.1333 "/>
<path id="1" d="M275 156.1333 C275 156.1333 267.6646 150.0531 264 144.1333 C262.0053 140.9112 263.5475 138.2283 262 135.1333 C261.2263 133.5858 258.9613 133.7355 258 132.1333 C256.5402 129.7004 256.2533 128.5525 256 125.1333 C255.2914 115.5669 255.3431 112.3591 256 105.1333 C256.0717 104.3451 258.0043 103.1419 258 103.1333 C257.9936 103.1205 255.0582 103.2691 255 103.1333 C254.6832 102.3941 254.2276 98.0644 255 96.1333 C255.5076 94.8644 258.36 94.4133 259 93.1333 C259.64 91.8533 258.2389 89.1798 259 88.1333 C260.7989 85.6598 262.9472 83.5309 267 82.1333 C276.0078 79.0272 278.3234 81.0363 288 78.1333 C292.5768 76.7603 296.9973 73.129 297 73.1333 C297.0458 73.2067 294.8362 84.6414 293 86.1333 C291.4869 87.3627 286.0133 87.1888 281 86.1333 C277.7238 85.4436 274.0042 82.1255 274 82.1333 C273.6931 82.7087 274.4746 99.0268 273 101.1333 C272.244 102.2133 261.7616 101.5913 260 102.1333 C259.8778 102.1709 259.9178 105.1144 260 105.1333 C261.5428 105.4894 272.5498 104.4061 273 105.1333 C274.1748 107.0311 274.5445 122.4266 273 126.1333 C272.4729 127.3983 262.9999 129.1335 263 129.1333 C263.0002 129.1331 272.0064 122.9908 275 123.1333 C277.3852 123.2469 283.5164 127.5772 284 130.1333 C285.646 138.8337 282 160.1333 282 160.1333 "/>
<path id="2" d="M318 133.1333 C318 133.1333 317.0205 135.1487 317 135.1333 C315.9523 134.3475 309.2053 128.3386 302 121.1333 C298.7701 117.9034 298.046 117.7139 296 114.1333 C294.4024 111.3375 294.1117 110.4839 294 107.1333 C293.637 96.2438 293.135 90.4277 295 84.1333 C295.4863 82.4922 299.3613 82.5521 302 80.1333 C304.8242 77.5445 304.0328 75.8038 307 73.1333 C313.5383 67.2488 321.6584 62.0693 322 62.1333 C322.0957 62.1513 323.8018 71.0552 323 76.1333 C322.6738 78.1993 320.6721 80.6108 319 81.1333 C315.3928 82.2606 308.4595 81.3766 307 81.1333 C306.9595 81.1266 307 79.1333 307 79.1333 C307 79.1333 309.5522 88.8217 308 93.1333 C306.3386 97.7484 302.1708 101.2659 298 104.1333 C296.5751 105.1129 293.0977 103.6629 292 104.1333 C291.5818 104.3126 290.975 107.1295 291 107.1333 C291.6436 107.2323 303.5358 105.9242 305 106.1333 C305.0453 106.1398 304.577 108.6257 305 109.1333 C306.0105 110.346 309.7382 111.0861 310 112.1333 C310.7854 115.275 308.9638 125.0609 309 125.1333 C309.0072 125.1478 312.2345 120.4644 314 120.1333 C317.1593 119.541 323.7808 121.025 325 122.1333 C325.6917 122.7622 325.5907 126.8843 325 130.1333 C324.7516 131.4994 323.0014 133.134 323 133.1333 C322.9944 133.1305 323 129.1333 323 129.1333 "/>
<path id="3" d="M353 127.1333 C353 127.1333 347.468 125.1059 344 122.1333 C341.1287 119.6722 339.9539 118.5911 339 115.1333 C336.4014 105.7133 336.6173 103.9363 336 93.1333 C335.6396 86.827 335.3185 83.9167 337 80.1333 C338.0145 77.8508 340.2959 76.7384 344 75.1333 C354.6948 70.4989 356.2942 68.7 367 67.1333 C374.843 65.9856 383.0304 67.7108 385 69.1333 C385.8047 69.7145 386.0289 75.7604 385 80.1333 C384.3507 82.8927 383.1228 84.5895 381 86.1333 C378.8542 87.6939 376.3754 88.1333 374 88.1333 C372.982 88.1333 372.2554 86.1766 371 86.1333 C360.3781 85.7671 346.1423 85.693 345 87.1333 C343.6463 88.8401 346.6933 101.1956 348 115.1333 C348.1848 117.1046 348.2 118.7333 348 119.1333 C347.95 119.2333 346 119.1333 346 119.1333 "/>
<path id="4" d="M340 106.1333 L344 104.1333 "/>
<path id="5" d="M342 92.1333 L337 89.1333 "/>
<path id="6" d="M340 80.1333 C340 80.1333 349.1879 80.5189 355 82.1333 C356.4323 82.5312 358 85.1333 358 85.1333 "/>
<path id="7" d="M362 69.1333 C362 69.1333 366.5669 70.195 367 71.1333 C368.1523 73.6301 368 82.1333 368 82.1333 "/>
<path id="8" d="M390 130.1333 C390 130.1333 386.0955 127.6372 385 125.1333 C383.1901 120.9965 384.4155 117.8136 383 114.1333 C382.6207 113.1471 380.0844 112.8363 380 112.1333 C379.1779 105.2828 378.4597 98.991 380 89.1333 C380.655 84.9411 382.653 81.698 385 80.1333 C387.2759 78.6161 390.2305 78.7359 395 79.1333 C407.6651 80.1888 416.8489 80.8272 421 83.1333 C422.046 83.7144 422.5071 93.7952 422 94.1333 C420.4252 95.1832 403.8933 93.6185 403 95.1333 C400.046 100.1423 401.2362 114.3495 399 133.1333 C398.7606 135.1442 398.4825 136.6509 398 137.1333 C397.7105 137.4228 395 137.1333 395 137.1333 "/>
<path id="9" d="M399 84.1333 L402 91.1333 "/>
<path id="10" d="M389 95.1333 C389 95.1333 392.6046 95.6391 393 96.1333 C393.3766 96.604 393 100.1333 393 100.1333 C393 100.1333 392.9427 97.1906 393 97.1333 C393.0191 97.1142 394.8689 97.6963 395 98.1333 C395.762 100.6734 396 107.1333 396 107.1333 "/>
<path id="11" d="M388 108.1333 C388 108.1333 388.3806 114.19 390 116.1333 C391.787 118.2777 398 120.1333 398 120.1333 "/>
<path id="12" d="M278 175.1333 C278 175.1333 272.9814 180.0961 273 180.1333 C273.0373 180.2079 281 181.1333 281 181.1333 "/>
<path id="13" d="M296 219.1333 C296 219.1333 289.1596 219.6985 288 220.1333 C287.8962 220.1723 287.8456 222.0561 288 222.1333 C289.3895 222.8281 294.9343 223.2008 296 224.1333 C296.4782 224.5518 295.8597 228.9463 296 229.1333 C296.0351 229.1801 299 228.1333 299 228.1333 "/>
<path id="14" d="M214 121.1333 C214 121.1333 211.5872 126.24 211 131.1333 C210.1498 138.2183 209.6986 142.0122 211 146.1333 C211.5114 147.7528 215.47 148.1662 217 150.1333 C218.02 151.4447 216.8045 153.749 218 155.1333 C224.6357 162.8168 226.8795 165.7489 236 172.1333 C240.5145 175.2935 242.1503 175.2334 248 176.1333 C254.4917 177.1321 262 176.1333 262 176.1333 "/>
<path id="15" d="M216 123.1333 C216 123.1333 219.9375 123.8052 220 124.1333 C220.7094 127.8579 219.0068 142.6817 220 144.1333 C220.3921 144.7063 231.1797 143.5534 233 143.1333 C233.0635 143.1187 233 141.1333 233 141.1333 C233.0014 141.1333 233.9328 142.1926 234 143.1333 C234.8457 154.9737 233.3987 166.5312 235 169.1333 C235.5554 170.0358 248.3125 168.5708 250 169.1333 C250.1875 169.1958 249.9925 174.1308 250 174.1333 C250.0075 174.1358 251.3978 171.0946 253 170.1333 C255.4329 168.6736 259.3778 167.76 260 168.1333 C260.8368 168.6354 263 176.1333 263 176.1333 "/>
<path id="16" d="M264 220.1333 C264 220.1333 256.8653 220.7007 254 222.1333 C252.9581 222.6543 253.2255 225.4979 252 226.1333 C242.9201 230.8414 237.3977 230.2846 227 236.1333 C223.0956 238.3296 220.618 240.6903 220 244.1333 C217.9304 255.664 219.6285 271.2943 220 275.1333 C220.0035 275.1693 221.6598 275.4684 223 275.1333 C227.3558 274.0444 230.5886 273.3879 232 272.1333 C232.5377 271.6554 232.475 269.2708 232 267.1333 C231.5778 265.2333 231.0419 263.6543 230 263.1333 C227.1347 261.7007 219.9997 261.1335 220 261.1333 C220.0004 261.133 229.6646 261.6098 233 261.1333 C233.3299 261.0862 234.0596 259.9076 234 259.1333 C233.6546 254.6426 233.5071 250.3103 232 248.1333 C231.1669 246.9299 224.9998 246.1333 225 246.1333 C225.0005 246.1333 240.6836 248.765 244 248.1333 C244.5598 248.0267 246 242.1333 246 242.1333 "/>
<path id="17" d="M246 236.1333 C246 236.1333 245.9997 231.1336 246 231.1333 C246.0002 231.1332 246.6067 235.0123 247 235.1333 C249.1156 235.7843 254.2023 236.1995 259 235.1333 C261.7542 234.5213 265 231.1333 265 231.1333 "/>
<path id="18" d="M294 233.1333 C294 233.1333 294.6641 264.1942 297 276.1333 C297.2237 277.2766 301.3283 277.1273 303 279.1333 C307.7016 284.7753 308.5595 290.6928 312 294.1333 C312.8601 294.9935 316.9023 293.6629 318 294.1333 C318.4182 294.3126 318.3571 296.8272 319 297.1333 C325.1772 300.0748 329.2947 302.0103 339 304.1333 C344.409 305.3166 351 304.1333 351 304.1333 "/>
<path id="19" d="M313 235.1333 C313 235.1333 310.1602 239.3675 310 243.1333 C309.2319 261.1838 307.9964 278.0639 311 282.1333 C312.9004 284.7081 326.8259 282.8348 341 285.1333 C344.4807 285.6978 344.6566 286.4616 348 288.1333 C349.5734 288.92 350.8598 289.3854 351 290.1333 C351.7662 294.2196 351 304.1333 351 304.1333 "/>
<path id="20" d="M344 241.1333 C344 241.1333 342.467 269.7375 343 276.1333 C343.0204 276.3776 346.879 276.7401 347 277.1333 C347.6509 279.2489 345.117 285.838 347 289.1333 C350.9454 296.0378 354.724 300.2125 363 305.1333 C370.9692 309.8717 373.7204 309.2059 384 311.1333 C389.1107 312.0916 395 311.1333 395 311.1333 "/>
<path id="21" d="M353 251.1333 C353 251.1333 353.2525 255.9862 352 258.1333 C350.5961 260.5401 345.994 263.1183 346 263.1333 C346.0074 263.1519 352.7346 262.1843 354 263.1333 C355.7004 264.4086 356.681 267.6488 358 272.1333 C359.075 275.7883 359.7067 277.1298 359 280.1333 C358.0738 284.0698 353.961 289.0879 354 289.1333 C354.0614 289.205 361.6751 286.8958 365 287.1333 C365.9843 287.2036 367.6469 288.8387 368 290.1333 C368.7398 292.8458 368.2353 297.1922 368 298.1333 C367.9853 298.1922 366.0772 297.9789 366 298.1333 C365.3052 299.5228 363.9831 306.1333 364 306.1333 C364.1014 306.1333 370.4869 300.2336 376 298.1333 C379.2974 296.8772 382.0051 297.2118 385 298.1333 C386.7407 298.6689 388.5405 300.4102 389 302.1333 C389.9976 305.8743 389 313.1333 389 313.1333 "/>
<path id="22" d="M383 249.1333 C383 249.1333 377.6941 260.0304 375 270.1333 C373.9519 274.0639 374.4402 278.8734 375 279.1333 C379.0001 280.9905 389.1957 280.7669 403 283.1333 C406.5336 283.7391 407.3196 283.4581 410 285.1333 C414.5485 287.9761 414.7352 291.2141 419 293.1333 C422.8756 294.8774 430 294.1333 430 294.1333 "/>
<path id="23" d="M392 246.1333 C392 246.1333 391.7759 263.8025 390 266.1333 C389.0374 267.3967 376 267.1333 376 267.1333 C376 267.1333 395.2725 266.8854 398 267.1333 C398.0225 267.1354 397.9 269.0833 398 269.1333 C398.4 269.3333 401.9253 268.9391 402 269.1333 C402.6499 270.8229 402.8494 281.9074 403 282.1333 C403.0073 282.1444 406.0725 278.3086 408 278.1333 C414.0437 277.5839 422.3869 278.3454 425 280.1333 C426.3552 281.0606 426.9983 291.1316 427 291.1333 C427.0009 291.1343 427.463 284.2073 428 283.1333 C428.0948 282.9438 430.5211 282.7502 431 283.1333 C431.8301 283.7974 432.1542 286.65 433 287.1333 C433.9868 287.6972 437.7157 286.7543 438 287.1333 C438.6633 288.0177 439.7189 293.6955 439 295.1333 C438.2811 296.5712 433.5498 299.34 432 299.1333 C429.891 298.8521 424 293.1333 424 293.1333 "/>
<path id="24" d="M415 220.1333 C415 220.1333 413.7008 232.7141 415 242.1333 C415.446 245.3666 417.3162 248.0618 419 249.1333 C420.3941 250.0205 424.0965 248.4988 426 249.1333 C426.8158 249.4053 426.9406 251.6971 428 252.1333 C433.4511 254.3779 435.4921 254.9783 443 256.1333 C454.6871 257.9313 461.831 256.0275 467 258.1333 C468.3887 258.6991 470.3274 266.7404 470 267.1333 C469.3032 267.9695 460.201 270.6668 457 270.1333 C455.4635 269.8773 453.1601 267.0336 452 264.1333 C450.6369 260.7255 451.0007 255.1326 451 255.1333 C450.9988 255.1346 450.6835 263.5258 449 267.1333 C448.3058 268.621 446.3268 269.6347 444 270.1333 C440.2888 270.9286 438.5296 271.2479 435 270.1333 C430.3352 268.6602 426.7595 267.0659 425 264.1333 C422.7713 260.4188 423 250.1335 423 250.1333 C423 250.1333 423.6253 252.8827 423 254.1333 C421.6712 256.7909 419.9276 259.6514 418 260.1333 C413.6259 261.2269 407.378 260.7463 403 259.1333 C401.2308 258.4815 399.6557 255.5376 399 253.1333 C398.5629 251.5305 398.9298 249.1271 400 248.1333 C403.8745 244.5356 412.9958 240.1481 413 240.1333 C413.0015 240.1281 404.638 242.1226 402 241.1333 C400.1069 240.4234 397 234.1333 397 234.1333 "/>
<path id="25" d="M308 245.1333 C308 245.1333 301.0327 244.1268 301 244.1333 C300.9923 244.1349 303 246.1333 303 246.1333 "/>
<path id="26" d="M309 255.1333 L299 271.1333 "/>
<path id="27" d="M317 284.1333 L316 293.1333 "/>
</g>
</g>
</svg>
