<?xml version="1.0" encoding="utf-8"?>
<!DOCTYPE svg PUBLIC "-//W3C//DTD SVG 1.1//EN" "http://www.w3.org/Graphics/SVG/1.1/DTD/svg11.dtd">
<svg viewBox="0 0 800 800" preserveAspectRatio="xMinYMin meet" xmlns="http://www.w3.org/2000/svg" version="1.1">
<g fill="none" stroke="black" stroke-linecap="round" stroke-linejoin="round" stroke-width="1.9873">
<g transform="translate(87.52,132.0522) scale(1.5096) translate(-50,-52)">
<path id="0" d="M185 166 C185 166 183.0288 141.305 188 135 C195.593 125.3699 206.7053 122.8817 226 114 C237.6102 108.6556 238.9214 106.9831 251 106 C279.6852 103.6652 284.0891 103.5962 312 107 C322.0907 108.2306 323.3012 110.5592 333 116 C343.3708 121.8178 345.1169 121.9038 353 130 C362.5503 139.8084 364.3473 141.7525 370 154 C375.5435 166.0108 375.2119 168.2064 377 182 C378.6082 194.4063 378.8265 195.9975 377 208 C375.5202 217.7244 374.3651 218.7241 370 228 C366.5829 235.2614 365.9451 236.1277 361 242 C358.5033 244.9648 357.6153 245.9859 354 247 C319.5573 256.6608 316.2289 259.4846 279 265 C250.0974 269.2819 246.8116 269.0105 219 267 C208.0444 266.208 204.1065 264.5587 196 259 C189.4628 254.5173 189.0518 251.3354 184 243 C179.2574 235.1747 176.5591 233.7162 176 226 C174.353 203.2712 175.6302 198.9364 179 174 C180.4755 163.0815 180.7745 161.3698 186 152 C194.5268 136.7106 196.6221 135.213 208 122 C211.1964 118.2881 217 116 217 116 "/>
<path id="1" d="M377 173 C377 173 380.7612 164.1471 385 159 C386.635 157.0147 390.9956 155.9917 391 156 C391.4237 156.7944 393.7507 168.2448 393 174 C392.7608 175.8338 390.4818 177.9781 388 179 C383.4914 180.8565 376 181 376 181 "/>
<path id="2" d="M389 160 C389 160 398.9654 150.9495 401 150 C401.1953 149.9089 403.78 151.7531 404 153 C404.8728 157.9459 404.8728 162.0541 404 167 C403.78 168.2469 402.3114 169.5629 401 170 C399.0329 170.6557 395 170 395 170 "/>
<path id="3" d="M182 172 C182 172 169.0042 172.9311 167 174 C166.6008 174.2129 166.6557 179.8279 167 180 C168.664 180.832 181 181 181 181 "/>
<path id="4" d="M172 171 C172 171 168.5209 170.324 167 171 C165.2425 171.7811 163 175 163 175 "/>
<path id="5" d="M164 177 C164 177 153.7824 174.476 151 170 C134.8542 144.0264 118 103 118 103 "/>
<path id="6" d="M170 174 C170 174 161.5191 166.0799 156 157 C146.4083 141.2201 143.3956 139.3613 139 123 C135.2083 108.8864 138 90 138 90 "/>
<path id="7" d="M118 104 C118 104 108.8882 101.7694 107 99 C104.0201 94.6295 102.9294 82.0706 103 82 C103.0272 81.9728 112.828 86.3748 116 90 C117.453 91.6606 116.9746 97.981 117 98 C117.0027 98.002 119.6513 95.3536 120 93 C121.4185 83.4254 120.3438 73.8873 121 71 C121.0268 70.8819 124.8 70.65 125 71 C126.4249 73.4936 126.2138 78.8704 129 85 C130.8895 89.1569 135 93 135 93 "/>
<path id="8" d="M405 153 C405 153 401.114 138.177 404 130 C408.4227 117.469 414.7828 116.3802 423 102 C428.5285 92.3251 428.5516 91.6106 432 81 C434.9259 71.9971 436 62 436 62 "/>
<path id="9" d="M401 168 C401 168 401.9836 163.7792 404 162 C409.3341 157.2934 412.6889 158.3111 418 153 C424.2348 146.7652 424.0179 145.2059 429 137 C432.4365 131.3399 433.1419 131.1461 435 125 C439.4545 110.2659 436.7291 107.8707 442 94 C445.6893 84.2913 449.6226 84.3801 454 75 C456.1235 70.4497 456.2237 64.8201 456 64 C455.9708 63.893 451.526 63.4155 451 64 C449.4102 65.7664 447.0099 74.0148 447 74 C446.9667 73.9501 443.1193 52.1551 443 52 C442.9791 51.9729 438.2857 57.4001 437 61 C436.4643 62.5 438 66 438 66 "/>
<path id="10" d="M370 221 C370 221 383.7273 234.7719 395 250 C412.0108 272.9795 411.9044 273.6998 427 298 C432.2464 306.4454 430.6298 308.2133 436 316 C440.1232 321.9787 443.1152 320.8953 447 327 C456.457 341.861 463.9656 359.9555 464 360 C464.0082 360.0106 465.4855 353.1264 464 349 C461.6718 342.5328 456.5263 341.7412 455 335 C451.2237 318.3215 455.7726 314.3602 452 296 C448.5274 279.1 447.2195 278.1051 440 262 C434.4494 249.618 434.3035 245.8883 426 238 C417.1324 229.5758 413.1211 229.9045 400 224 C393.5816 221.1117 392.7169 220.6949 386 220 C379.0581 219.2819 371 221 371 221 "/>
<path id="11" d="M181 207 C181 207 167.9449 210.528 164 216 C155.8166 227.3511 158.9513 235.3299 150 250 C141.9153 263.2499 137.2452 261.5795 128 275 C106.6905 305.9332 107.9827 311.2249 88 340 C84.9966 344.3249 82.5642 345.935 78 347 C70.1532 348.8309 63.3086 345.3012 58 347 C55.9933 347.6421 54.902 353.098 53 355 C52.5611 355.4389 50.0462 355.1233 50 355 C49.6712 354.1233 48.68 349.0742 50 347 C53.7799 341.0601 56.4292 338.0472 64 333 C73.3013 326.7991 81.1816 328.7821 86 323 C91.5553 316.3336 88.8491 308.8168 94 297 C96.9562 290.2182 99.6386 290.7228 103 284 C106.3614 277.2772 104.4368 275.5919 108 269 C114.0601 257.7887 114.8909 256.0447 123 247 C126.8573 242.6976 131.1565 244.2083 134 240 C141.7743 228.4941 140.6345 221.2083 148 210 C150.0507 206.8793 152.3962 206.5346 157 205 C165.3443 202.2186 175 201 175 201 "/>
<path id="12" d="M209 266 C209 266 191.0121 291.1187 186 314 C180.6135 338.5905 182.7342 345.8535 186 371 C187.2203 380.3963 190.2144 382.4739 196 391 C199.0471 395.4904 200.4591 397.1836 205 399 C213.4119 402.3648 219.6492 403.2443 226 403 C227.5818 402.9392 229.6698 400.1284 231 398 C231.4912 397.2141 231.3118 395.4158 231 395 C230.6622 394.5496 228 394 228 394 "/>
<path id="13" d="M222 267 C222 267 211.1199 287.0576 208 306 C204.5255 327.0951 205.1759 330.5367 208 352 C209.9226 366.6117 211.7117 370.3218 218 382 C220.652 386.9252 223.3484 387.4305 229 391 C232.3518 393.1169 236.1223 392.6835 237 394 C237.9479 395.4218 237.7986 399.5393 237 403 C236.5836 404.8043 234.5431 406.819 234 407 C233.7076 407.0975 231 405 231 405 "/>
<path id="14" d="M335 252 C335 252 343.1171 268.3716 345 284 C347.892 308.004 346.8381 311.1053 345 335 C344.4816 341.7395 343.3982 342.7133 340 349 C333.6709 360.7088 333.0131 362.7048 325 372 C321.7394 375.7823 319.4854 375.7573 315 378 C314.3099 378.345 313 378 313 378 C313 377.6493 315 372 315 372 "/>
<path id="15" d="M350 245 C350 245 349.1372 250.8234 350 256 C351.5556 265.3336 354.5161 265.7095 355 275 C356.9345 312.142 358.5123 317.2283 355 352 C353.9504 362.3909 350.9879 363.8665 345 374 C338.2514 385.4208 336.6248 390.8481 329 396 C323.3114 399.8436 313.3483 399.8228 308 399 C306.4176 398.7565 304.128 395.3841 303 392 C301.5249 387.5747 301.5542 381.2885 302 381 C303.3118 380.1512 314.6812 381.7978 320 381 C320.7239 380.8914 322 378.5365 322 378 C322 377.6423 320 376 320 376 "/>
<path id="16" d="M216 177 C216 177 238.1093 191.2141 256 207 C262.523 212.7556 262.8943 214.8151 267 222 C268.2675 224.2182 267.9999 227.9999 268 228 C268 228.0001 268 224 268 224 "/>
<path id="17" d="M314 168 C314 168 307.0255 175.5682 303 183 C301.0633 186.5755 301.4041 187.5545 301 192 C300.4278 198.2941 299.6008 199.2476 301 205 C303.8188 216.5885 310 229 310 229 "/>
<path id="18" d="M214 118 C214 118 207.9192 113.2648 206 109 C204.256 105.1244 204.4598 102.0518 205 98 C205.2187 96.3594 206.5666 94.6515 208 94 C210.5152 92.8567 215.7858 92.6251 216 93 C217.4568 95.5494 220 115 220 115 "/>
<path id="19" d="M315 105 C315 105 312.4581 100.6647 312 97 C311.5693 93.5541 311.877 89.8588 313 89 C316.1278 86.6081 328.5422 83.596 329 84 C329.7367 84.65 330.9204 96.0233 330 104 C329.7009 106.5921 326 110 326 110 "/>
</g>
</g>
</svg>
