<?xml version="1.0" encoding="utf-8"?>
<!DOCTYPE svg PUBLIC "-//W3C//DTD SVG 1.1//EN" "http://www.w3.org/Graphics/SVG/1.1/DTD/svg11.dtd">
<svg viewBox="0 0 800 800" preserveAspectRatio="xMinYMin meet" xmlns="http://www.w3.org/2000/svg" version="1.1">
<g fill="none" stroke="black" stroke-linecap="round" stroke-linejoin="round" stroke-width="1.4017">
<g transform="translate(87.52,142.097) scale(2.1403) translate(-100,-71)">
<path id="0" d="M190 177 C190 177 190.0405 170.7028 192 166 C194.7047 159.5087 196.3926 157.2086 200 153 C200.8045 152.0614 202.8253 153.0069 204 152 C208.699 147.9723 209.0293 144.8011 214 141 C216.3027 139.2391 217.637 139.058 221 139 C245.3737 138.5798 249.6489 138.0732 272 140 C275.2135 140.277 276.5067 141.5067 279 144 C282.8532 147.8532 283.2829 148.747 286 154 C290.6156 162.9235 294 173 294 173 "/>
<path id="1" d="M190 181 L191 219 "/>
<path id="2" d="M191 218 C191 218 200.0866 233.637 207 249 C208.7917 252.9815 208.3521 257.892 209 258 C219.7677 259.7946 241.2692 260.1696 267 259 C270.6326 258.8349 273.0553 257.6253 275 255 C281.2476 246.5657 283.662 242.8484 287 232 C289.0008 225.4972 286.5139 220.1317 287 216 C287.0375 215.681 288.9161 215.3916 289 215 C289.7762 211.3776 288.5699 207.4344 290 202 C290.7605 199.1103 293.6409 198.6932 294 196 C295.3191 186.1067 295.9498 181.1918 294 172 C293.1482 167.9844 287 163 287 163 "/>
<path id="3" d="M286 154 C286 154 286.8499 149.1501 289 147 C294.1604 141.8396 297.0121 140.7424 303 137 C303.5914 136.6304 304.9956 136.9672 305 137 C305.2456 138.8422 305 152 305 152 "/>
<path id="4" d="M306 137 C306 137 311.0607 138.9335 312 141 C314.7672 147.0879 317.1676 157.4237 316 159 C313.9207 161.8071 292 168 292 168 "/>
<path id="5" d="M312 139 C312 139 315.0351 139.5514 316 139 C317.2751 138.2714 317.9438 135.3169 319 135 C320.6849 134.4945 325.6722 135.3445 326 136 C327.129 138.258 327.7643 150.1811 327 151 C326.2393 151.815 315.8666 150.5167 312 151 C311.6778 151.0403 311 153 311 153 "/>
<path id="6" d="M211 145 C211 145 202.6573 138.5038 196 135 C194.6858 134.3083 192.6339 134.4453 192 135 C190.3955 136.404 190.2711 140.1074 188 142 C185.5749 144.0209 183.3186 143.0642 180 145 C177.8443 146.2575 176.5828 147.2515 176 149 C175.1257 151.6228 174.9551 155.3021 176 157 C177.296 159.1061 179.9164 159.9582 184 162 C186.7224 163.3612 189.0229 164 190 164 C190.1629 164 191 162 191 162 "/>
<path id="7" d="M191 136 C191 136 185.6175 129.4895 182 128 C179.7672 127.0806 177.1326 127.7951 174 129 C171.5571 129.9396 169.9494 131.2911 169 133 C168.2996 134.2607 168.2471 137.1843 169 138 C171.8727 141.1121 181 146 181 146 "/>
<path id="8" d="M175 149 C175 149 170.2604 147.7581 168 146 C166.7622 145.0372 166.4222 143.9 166 142 C165.525 139.8625 165.444 137.7783 166 137 C166.6195 136.1327 170.1772 135.8228 171 135 C171.3526 134.6474 171 132 171 132 "/>
<path id="9" d="M168 133 C168 133 160.9809 129.2584 158 125 C155.0589 120.7984 155.1135 118.8456 154 113 C153.2148 108.8775 152.8122 107.6954 154 104 C156.8894 95.0107 157.2898 92.5375 163 85 C168.7772 77.3741 178.8392 70.9893 179 71 C179 71 180.399 81.9516 178 86 C174.7861 91.4235 164.6753 93.672 163 98 C161.3216 102.3358 163.2178 108.9317 166 117 C167.7239 121.9993 173 127 173 127 "/>
<path id="10" d="M322 136 C322 136 325.0509 136.5932 326 136 C327.6906 134.9434 329.5056 133.2247 330 131 C331.0914 126.0888 331.1557 123.7785 330 118 C328.8443 112.2215 328.375 110.4296 325 106 C321.2896 101.1301 319.8421 100.1036 314 97 C304.6526 92.0342 293.2678 89.2296 293 89 C292.9657 88.9706 296.7278 85.6544 300 85 C305.4536 83.9093 307.02 83.9321 313 85 C320.3108 86.3055 321.7195 86.8598 328 90 C330.6916 91.3458 332.5634 92.7625 333 95 C335.6729 108.6989 336.9582 115.6692 336 131 C335.6689 136.2975 333.5053 137.7421 330 143 C327.8092 146.2862 324.2766 148.8815 324 149 C323.9908 149.004 323 146 323 146 "/>
<path id="11" d="M327 132 C327 132 328.7476 123.2363 328 119 C327.7257 117.4454 326.2263 116.5233 324 115 C317.0079 110.2159 316.2321 108.4107 309 106 C302.8393 103.9464 294.3122 104.8013 294 105 C293.9763 105.0151 296.0915 112.0912 298 113 C302.3872 115.0891 308.1993 112.6459 315 115 C319.3909 116.5199 322.8374 119.029 324 122 C325.7679 126.5178 324 138 324 138 "/>
<path id="12" d="M176 127 C176 127 169.6057 122.0142 168 118 C166.5522 114.3806 166.6309 108.6429 168 107 C170.427 104.0876 182.6966 99.8483 183 100 C183.1583 100.0791 183.7675 110.2687 182 114 C180.9267 116.2659 176.6531 116.3469 174 119 C172.5714 120.4286 172 124 172 124 "/>
<path id="13" d="M230 149 C230 149 225.1713 141.4789 223 134 C220.8863 126.7194 222.8774 124.5709 221 118 C220.3041 115.5642 217.0312 113.0156 217 113 C216.9928 112.9964 217.0285 115.9943 217 116 C216.7815 116.0437 212.1551 114.5172 212 114 C211.672 112.9066 213.407 106.3954 214 106 C214.4583 105.6945 220.086 107.086 221 108 C221.5078 108.5078 221.4331 112.1338 221 113 C220.7834 113.4331 218 114 218 114 "/>
<path id="14" d="M263 112 C263 112 255.3005 121.0415 252 130 C248.8413 138.5737 249 150 249 150 "/>
<path id="15" d="M264 114 C264 114 260.6764 115.1353 260 115 C259.7508 114.9502 258.9272 113.7278 259 113 C259.3141 109.8591 260.0351 105.9649 261 105 C261.579 104.421 266.6824 104.6294 267 105 C267.4324 105.5044 267.6986 110.7425 267 112 C266.5232 112.8583 262 114 262 114 "/>
<path id="16" d="M299 180 C299 180 320.2541 178.8856 323 179 C323.0096 179.0004 323.0662 180.0074 323 181 C322.5676 187.4853 322.8852 193.5397 322 194 C319.2624 195.4235 298 194 298 194 "/>
<path id="17" d="M290 203 C290 203 308.9448 206.5895 313 208 C313.171 208.0595 313.3569 209.6913 313 211 C311.9509 214.8467 311.1266 218.6662 310 219 C304.9654 220.4917 286 219 286 219 "/>
<path id="18" d="M288 230 C288 230 291.1316 233.9876 294 235 C298.1939 236.4802 304.769 235.6369 305 236 C305.2153 236.3383 302.9441 243.6239 301 246 C300.2543 246.9114 298.0449 247.3895 296 247 C288.7923 245.6271 280 242 280 242 "/>
<path id="19" d="M189 177 C189 177 163.2376 173.4328 162 174 C161.835 174.0756 163.537 187.2685 165 188 C168.6574 189.8287 190 188 190 188 "/>
<path id="20" d="M186 198 C186 198 164.0007 201.9999 164 202 C163.9999 202 166.974 201.9048 167 202 C167.349 203.2798 166.2739 212.4874 167 213 C168.6558 214.1688 177.4883 214.6202 184 214 C185.6508 213.8428 187.9993 211.0013 188 211 C188.0003 210.9993 185 212 185 212 "/>
<path id="21" d="M194 227 C194 227 179.6216 233.0338 177 235 C176.772 235.171 177.0579 237.5196 178 239 C180.1982 242.4543 181.5081 244.2557 184 246 C184.9145 246.6401 186.6574 246.6713 188 246 C193.3703 243.3149 200 238 200 238 "/>
<path id="22" d="M268 261 C268 261 273.5357 262.1363 275 264 C277.4364 267.1009 279.2191 274.3427 279 275 C278.9169 275.2493 271.7349 276.6784 271 276 C269.2346 274.3704 266 263 266 263 "/>
<path id="23" d="M212 260 C212 260 206.9334 262.5832 205 265 C203.9421 266.3224 203.7508 269.7819 204 270 C204.7938 270.6946 212.2434 272.5945 213 272 C214.5496 270.7825 218 259 218 259 "/>
<path id="24" d="M205 271 C205 271 203.3701 283.1812 204 284 C204.4358 284.5665 214.7464 284.4508 215 284 C215.6096 282.9162 213 268 213 268 "/>
<path id="25" d="M206 286 C206 286 206.4628 296.4628 207 297 C207.2686 297.2686 214.865 295.3712 215 295 C215.2075 294.4294 211.8329 289.8868 211 286 C210.5956 284.1129 212 281 212 281 "/>
<path id="26" d="M270 275 C270 275 268.2558 287.1986 269 288 C269.8631 288.9295 282.1831 289.7002 283 289 C283.6926 288.4063 283.7553 279.7767 283 276 C282.8489 275.2447 280 274 280 274 "/>
<path id="27" d="M266 287 C266 287 260.9504 294.9433 261 295 C261.1437 295.1642 267.9809 294.1143 273 295 C275.3127 295.4081 277.9533 298.0374 278 298 C278.1006 297.9195 278 291 278 291 "/>
<path id="28" d="M321 183 C321 183 324.8857 183.9514 327 183 C333.3605 180.1378 340.6159 174.0274 341 174 C341.015 173.9989 341.7353 178.5687 341 182 C340.3895 184.8492 339.5359 187.3322 338 188 C332.047 190.5882 318 192 318 192 "/>
<path id="29" d="M342 175 C342 175 346.5037 175.9208 348 175 C350.9735 173.1702 354.982 166.9874 355 167 C355.1733 167.1213 358.5363 181.4952 358 182 C356.9898 182.9508 343.7461 181.501 338 183 C336.7793 183.3185 335 188 335 188 "/>
<path id="30" d="M313 204 C313 204 326.3311 205.2703 327 206 C327.3269 206.3566 325.3916 214.9296 324 216 C322.6985 217.0011 317.4586 215.2019 314 216 C312.723 216.2947 311 219 311 219 "/>
<path id="31" d="M331 204 C331 204 334.9966 206.8331 338 207 C342.5634 207.2535 348.692 204.692 349 205 C349.3765 205.3765 348.7754 216.6554 348 217 C344.8166 218.4148 322 217 322 217 "/>
<path id="32" d="M305 236 C305 236 307.2022 238.6148 309 239 C312.8722 239.8298 317.8532 238.656 319 239 C319.1032 239.031 319.5217 241.1802 319 242 C316.8341 245.4035 315.0257 248.4871 312 250 C309.5244 251.2378 305.592 250.864 303 250 C301.752 249.584 300 246 300 246 "/>
<path id="33" d="M320 242 C320 242 339.0303 250.0303 340 251 C340.0334 251.0334 336.2386 257.0375 335 257 C327.7473 256.7802 307 250 307 250 "/>
<path id="34" d="M161 175 C161 175 146.2916 168.8654 146 169 C145.9156 169.0389 146.4566 179.8425 148 181 C150.8412 183.1309 166 184 166 184 "/>
<path id="35" d="M146 168 C146 168 132.3896 160.8609 132 161 C131.8548 161.0519 130.897 172.0195 132 173 C134.229 174.9814 150 177 150 177 "/>
<path id="36" d="M166 203 C166 203 152.8381 207.8266 152 209 C151.7306 209.3772 154.7153 216.5182 156 217 C158.0646 217.7742 162.3184 216.2175 168 215 C169.0122 214.7831 170 214.02 170 214 C170 213.98 168 213 168 213 "/>
<path id="37" d="M150 207 C150 207 139.1093 206.8542 139 207 C138.9437 207.0751 142.6768 211.2952 144 215 C144.8113 217.2716 143.9013 220.9772 144 221 C144.8776 221.2025 157 218 157 218 "/>
<path id="38" d="M137 206 C137 206 119.1282 206.9184 119 207 C118.9781 207.0139 124.5897 210.1793 126 213 C127.5588 216.1176 126.4325 222.6757 127 223 C128.0021 223.5726 133.7586 222.387 140 221 C142.5275 220.4383 144.9507 219.0493 145 219 C145.007 218.993 143 218 143 218 "/>
<path id="39" d="M176 236 C176 236 173.1956 240.002 171 241 C169.1886 241.8234 164.9987 240.9892 165 241 C165.0159 241.1274 169.2327 247.9238 172 249 C174.9042 250.1294 179.0136 249.3288 183 248 C184.876 247.3747 186.8871 244.2821 187 244 C187.004 243.9899 185 243 185 243 "/>
<path id="40" d="M160 243 C160 243 151.7082 254.1663 152 255 C152.4203 256.2008 165.2172 263.4992 167 263 C168.984 262.4445 177 248 177 248 "/>
<path id="41" d="M160 243 L170 240 "/>
<path id="42" d="M153 254 C153 254 151.6842 261.4368 149 266 C147.4049 268.7117 142.9911 270.9903 143 271 C143.4001 271.4364 158.7399 278.5155 160 278 C161.0292 277.579 165 262 165 262 "/>
<path id="43" d="M233 149 C233 149 230 147.0071 230 147 C230 147 232.8125 146.8125 233 147 C233.1875 147.1875 233.2105 149.8797 233 150 C232.0705 150.5312 227.1036 151.2759 226 151 C225.7139 150.9285 224.859 148.7049 225 148 C225.1208 147.3958 226.75 146 227 146 C227.25 146 229 148 229 148 "/>
<path id="44" d="M250 149 C250 149 252 147 252 147 C252 147 250.3114 149.3443 249 150 C248.1257 150.4371 246.1875 150.1875 246 150 C245.8125 149.8125 245.8269 147.2596 246 147 C246.0769 146.8846 247.95 146.9 248 147 C248.2 147.4 248 151 248 151 "/>
<path id="45" d="M213 182 C213 182 216.2391 191.1956 218 200 C218.6487 203.2437 218.8235 204.0354 218 207 C216.5426 212.2468 213 218 213 218 "/>
<path id="46" d="M262 180 C262 180 258.215 182.57 257 185 C255.785 187.43 256.1513 188.5201 256 192 C255.6563 199.9049 254.6491 201.2453 256 208 C256.8443 212.2217 261 217 261 217 "/>
<path id="47" d="M357 174 C357 174 375.9942 154.9981 376 155 C376.0012 155.0004 370.7224 172.0723 366 177 C363.8382 179.2558 353 179 353 179 "/>
<path id="48" d="M347 209 C347 209 357.5404 207.1201 366 209 C378.5657 211.7924 392.0066 218.9963 392 219 C391.9866 219.0075 350 218 350 218 "/>
<path id="49" d="M340 255 C340 255 343.2211 254.3942 344 255 C346.0339 256.5819 346.2402 259.4911 349 262 C351.1196 263.9269 353.4926 263.3042 355 265 C356.4069 266.5827 357 269.0464 357 271 C357 271.9768 355.1484 274.0424 355 274 C353.1825 273.4807 348.034 271.195 343 267 C336.5546 261.6289 331 254 331 254 "/>
<path id="50" d="M273 299 C273 299 258.0003 311.002 258 311 C257.9995 310.9963 272 291 272 291 "/>
<path id="51" d="M208 297 C208 297 220.9786 312.0097 221 312 C221.0246 311.9888 219.9753 294.7867 219 292 C218.9175 291.7644 214 292 214 292 "/>
<path id="52" d="M148 274 C148 274 141 292.7679 141 293 C141 293.0366 146.0916 292.1329 148 290 C153.1397 284.2557 158 274 158 274 "/>
<path id="53" d="M126 213 C126 213 117.4869 212.1016 110 213 C105.6202 213.5256 103.5412 214.4753 101 216 C100.3412 216.3953 99.9941 218.9979 100 219 C100.796 219.2895 106.8702 220.855 112 220 C117.5633 219.0728 124 215 124 215 "/>
<path id="54" d="M131 168 C131 168 128.366 168.683 127 168 C119.8283 164.4141 117.7759 163.7334 111 158 C105.4174 153.2762 101.0368 146.1013 101 146 C100.9925 145.9794 105.6996 145.7996 107 147 C110.2221 149.9743 110.0459 155.3639 114 158 C120.8047 162.5365 134 165 134 165 "/>
</g>
</g>
</svg>
