<?xml version="1.0" encoding="utf-8"?>
<!DOCTYPE svg PUBLIC "-//W3C//DTD SVG 1.1//EN" "http://www.w3.org/Graphics/SVG/1.1/DTD/svg11.dtd">
<svg viewBox="0 0 800 800" preserveAspectRatio="xMinYMin meet" xmlns="http://www.w3.org/2000/svg" version="1.1">
<g fill="none" stroke="black" stroke-linecap="round" stroke-linejoin="round" stroke-width="1.3297">
<g transform="translate(88.6481,87.52) scale(2.2562) translate(-162,-74.4167)">
<path id="0" d="M305 150.4167 C305 150.4167 302.8286 148.4929 301 148.4167 C281.2955 147.5957 276.5709 146.6046 257 148.4167 C252.3461 148.8476 250.5066 150.0399 247 153.4167 C238.1896 161.9008 235.9056 163.5897 230 174.4167 C224.7683 184.0081 224.3315 186.0993 223 197.4167 C220.4785 218.8498 219.2846 221.7794 222 242.4167 C223.9637 257.3409 226.1513 260.0305 233 273.4167 C236.2961 279.859 238.0557 280.1857 244 285.4167 C250.2862 290.9485 250.6561 291.7447 258 295.4167 C269.0158 300.9246 270.4239 303.1144 282 304.4167 C307.9176 307.3324 310.5485 304.8667 338 304.4167 C340.4591 304.3764 341.1636 304.5644 343 303.4167 C352.0594 297.7546 357.7856 296.4406 362 289.4167 C366.8117 281.3972 365.7845 276.3008 367 263.4167 C368.2397 250.2754 367.6655 249.7269 367 236.4167 C366.6771 229.9588 366.7985 229.5315 365 223.4167 C361.9091 212.9076 360.9771 210.7325 357 202.4167 C356.4497 201.2661 354.3785 201.426 354 200.4167 C352.1681 195.5317 354.053 191.8589 351 186.4167 C343.5599 173.1538 341.5923 171.3757 331 159.4167 C326.7969 154.6713 325.7406 154.0956 320 151.4167 C311.5059 147.4528 301 145.4167 301 145.4167 "/>
<path id="1" d="M240 163.4167 C240 163.4167 233.0973 156.9031 232 151.4167 C229.7409 140.1211 231.4968 130.7125 232 123.4167 C232.0204 123.1202 234 122.4167 234 122.4167 "/>
<path id="2" d="M230 176.4167 C230 176.4167 225.8053 175.4477 224 173.4167 C218.8247 167.5944 215.4478 165.3925 214 158.4167 C210.7604 142.8077 212.662 133.9379 213 120.4167 C213.0182 119.6868 214.3401 118.4167 215 118.4167 C220.9392 118.4167 233 120.4167 233 120.4167 "/>
<path id="3" d="M225 121.4167 C225 121.4167 222.4139 109.7428 223 102.4167 C223.1966 99.9591 224.5674 98.2411 227 96.4167 C233.5108 91.5336 234.791 90.7447 243 87.4167 C252.7898 83.4478 255.8429 85.0058 264 81.4167 C266.1394 80.4754 268 76.4167 268 76.4167 C268 76.4167 258.2573 85.7403 251 95.4167 C248.2571 99.0739 249.6655 101.7511 247 104.4167 C243.1042 108.3124 240.8768 109.066 235 111.4167 C231.6645 112.7509 229.4752 111.4266 227 112.4167 C226.0571 112.7938 225 115.4167 225 115.4167 "/>
<path id="4" d="M232 120.4167 C232 120.4167 243.5595 114.8572 247 111.4167 C247.8601 110.5565 247 105.4167 247 105.4167 "/>
<path id="5" d="M234 91.4167 C234 91.4167 233.4925 86.1272 234 85.4167 C234.3867 84.8753 237.46 85.3792 239 84.4167 C240.5058 83.4755 240.3955 81.0852 242 80.4167 C250.0798 77.0501 261.8756 74.0419 263 74.4167 C263.2564 74.5022 264.6093 84.1982 263 87.4167 C261.5145 90.3876 253 94.4167 253 94.4167 "/>
<path id="6" d="M324 150.4167 C324 150.4167 325.3374 140.8277 325 134.4167 C324.9343 133.1683 324.2037 132.6204 323 131.4167 C319.8703 128.2869 319.7237 127.204 316 125.4167 C308.1305 121.6393 298 119.4167 298 119.4167 "/>
<path id="7" d="M333 159.4167 C333 159.4167 334.8787 156.7825 335 154.4167 C335.8084 138.6523 336.4356 135.8495 335 120.4167 C334.6043 116.1626 333.5642 114.1781 331 111.4167 C328.3061 108.5156 326.2359 107.5314 322 106.4167 C317.8938 105.3361 316.4649 105.6288 312 106.4167 C308.6382 107.0099 305.9413 107.8479 305 109.4167 C303.2744 112.2927 303 121.4167 303 121.4167 "/>
<path id="8" d="M308 107.4167 C308 107.4167 303.8019 97.4183 298 92.4167 C291.0116 86.3922 287.9267 85.3922 279 82.4167 C274.6033 80.9511 268.2964 81.9556 268 82.4167 C267.4671 83.2456 268.8116 94.7529 270 96.4167 C270.4401 97.0329 274.7414 95.5477 278 96.4167 C281.2858 97.2929 281.7543 99.9173 285 100.4167 C293.0979 101.6625 301.2434 99.4519 304 100.4167 C304.5005 100.5919 305 107.4167 305 107.4167 "/>
<path id="9" d="M271 92.4167 C271 92.4167 279.2342 96.2303 283 99.4167 C283.9212 100.1962 283.5751 103.2917 284 103.4167 C287.1807 104.3522 298.2663 103.0909 300 104.4167 C301.0524 105.2215 301 116.4167 301 116.4167 "/>
<path id="10" d="M357 195.4167 C357 195.4167 355.3751 178.1159 357 166.4167 C357.4311 163.3126 361.1104 162.6191 362 159.4167 C363.1665 155.2174 360.854 151.2818 362 148.4167 C362.6668 146.7497 365.133 145.0993 368 144.4167 C374.2839 142.9205 376.1253 145.0208 383 143.4167 C390.4012 141.6897 395.1617 139.6873 398 137.4167 C398.6881 136.8662 397.0984 133.8398 398 131.4167 C404.4547 114.0696 414 94.4167 414 94.4167 "/>
<path id="11" d="M368 229.4167 C368 229.4167 367.0317 221.5695 369 219.4167 C378.6201 208.8947 393.9829 205.0921 400 194.4167 C404.2501 186.8762 397.6477 169.9053 400 164.4167 C400.8961 162.3258 407.6913 160.4318 415 159.4167 C424.7794 158.0584 436 159.4167 436 159.4167 "/>
<path id="12" d="M370 249.4167 C370 249.4167 371.7918 235.7079 375 228.4167 C375.9182 226.3299 377.8809 225.4922 381 224.4167 C391.5961 220.7628 397.3899 222.9611 404 218.4167 C408.8738 215.066 409.005 204.6075 413 202.4167 C418.0681 199.6374 435 201.4167 435 201.4167 "/>
<path id="13" d="M368 279.4167 C368 279.4167 367.2236 274.2988 368 270.4167 C368.5694 267.5697 368.9646 266.6663 371 264.4167 C377.8847 256.8073 378.9036 253.5687 387 249.4167 C395.7361 244.9366 398.6321 245.803 410 244.4167 C418.6669 243.3597 425.7774 244.6636 428 244.4167 C428.0274 244.4136 428 242.4167 428 242.4167 "/>
<path id="14" d="M219 204.4167 C219 204.4167 215.3709 205.207 213 204.4167 C208.785 203.0117 207.2022 202.6188 204 199.4167 C197.5957 193.0124 196.2971 191.0192 192 183.4167 C190.5731 180.8922 191.1356 176.5251 191 176.4167 C190.9671 176.3904 188.5683 179.3626 187 179.4167 C177.4717 179.7452 162 177.4167 162 177.4167 "/>
<path id="15" d="M220 231.4167 C220 231.4167 201.688 233.4182 192 229.4167 C183.5906 225.9432 181.0236 218.3867 174 212.4167 C173.5671 212.0487 172.003 212.3892 172 212.4167 C171.753 214.6392 172 230.4167 172 230.4167 "/>
<path id="16" d="M229 262.4167 C229 262.4167 211.4055 254.6964 195 250.4167 C189.698 249.0335 185.3933 249.2998 183 250.4167 C181.7502 250.9999 180 257.4167 180 257.4167 "/>
<path id="17" d="M245 283.4167 C245 283.4167 216.2301 281.7937 200 283.4167 C198.0163 283.615 195 288.4167 195 288.4167 "/>
<path id="18" d="M196 288.4167 C196 288.4167 195.2869 305.6688 198 310.4167 C199.6412 313.2888 205.664 312.6546 212 316.4167 C221.2786 321.9258 226.2537 325.0092 230 329.4167 C230.8141 330.3745 230.4043 333.8422 229 336.4167 C225.0918 343.5818 218 351.4167 218 351.4167 "/>
<path id="19" d="M413 245.4167 C413 245.4167 436.3945 244.0118 438 245.4167 C439.1159 246.393 440.5264 260.2782 437 266.4167 C430.3089 278.0641 417.9999 281.3783 411 292.4167 C408.5287 296.3137 408.9161 301.9664 411 307.4167 C414.3302 316.1264 424 326.4167 424 326.4167 "/>
<path id="20" d="M254 294.4167 C254 294.4167 254.8208 300.0818 257 302.4167 C260.484 306.1495 263.0781 308.9245 268 309.4167 C292.8201 311.8987 298.1729 307.1557 327 309.4167 C348.3162 311.0885 367.2444 318.6342 370 317.4167 C370.833 317.0486 370.0005 290.4176 370 290.4167 C369.9996 290.416 369.1708 302.6338 366 310.4167 C364.5558 313.9616 362.7295 315.1375 359 317.4167 C354.554 320.1337 353.2827 321.0325 348 321.4167 C327.4135 322.9139 320.4198 323.8951 304 321.4167 C300.1908 320.8417 295 313.4167 295 313.4167 "/>
</g>
</g>
</svg>
