<?xml version="1.0" encoding="utf-8"?>
<!DOCTYPE svg PUBLIC "-//W3C//DTD SVG 1.1//EN" "http://www.w3.org/Graphics/SVG/1.1/DTD/svg11.dtd">
<svg viewBox="0 0 800 800" preserveAspectRatio="xMinYMin meet" xmlns="http://www.w3.org/2000/svg" version="1.1">
<g fill="none" stroke="black" stroke-linecap="round" stroke-linejoin="round" stroke-width="2.3714">
<g transform="translate(87.52,356.354) scale(1.2651) translate(-99,-178.1333)">
<path id="0" d="M99 195.1333 L388 184.1333 "/>
<path id="1" d="M99 194.1333 C99 194.1333 102.1976 213.6642 104 214.1333 C115.9634 217.2471 138.3333 215.341 172 213.1333 C198.9366 211.367 199.0437 208.4522 226 206.1333 C245.2962 204.4734 245.5034 205.438 265 205.1333 C277.4928 204.9381 278.1015 203.913 290 205.1333 C296.8584 205.8368 297.3374 209.049 304 209.1333 C334.8038 209.5233 340.5008 206.1333 369 206.1333 C371.6307 206.1333 375 209.1333 375 209.1333 "/>
<path id="2" d="M386 185.1333 C386 185.1333 388.6474 184.7807 389 185.1333 C389.8228 185.9561 390.8791 187.8368 391 190.1333 C391.3302 196.4074 391.063 197.7552 390 204.1333 C389.6748 206.0843 389.3426 207.1264 388 208.1333 C382.6297 212.161 374 216.1333 374 216.1333 "/>
<path id="3" d="M390 186.1333 C390 186.1333 420.1277 190.6255 441 188.1333 C448.07 187.2892 449.892 181.8744 457 178.1333 C458.0029 177.6055 459.9479 177.9901 460 178.1333 C460.5425 179.6253 460.4771 188.971 461 189.1333 C464.2437 190.14 475.4415 189.1966 489 187.1333 C497.9869 185.7658 498.2635 182.7358 507 182.1333 C526.0166 180.8218 527.7533 181.3512 547 183.1333 C553.8986 183.7721 555.1336 187.4686 561 187.1333 C570.0917 186.6138 580.641 181.0686 582 181.1333 C582.0219 181.1344 581.0579 185.3071 582 188.1333 C584.1982 194.7279 586.4718 195.1106 589 202.1333 C590.7936 207.1156 590.4625 207.624 591 213.1333 C592.4497 227.9928 593 231.0735 593 243.1333 C593 244.3393 591.7317 246.0419 591 246.1333 C581.7194 247.2934 573.3017 250.1583 561 247.1333 C546.5565 243.5817 542.1569 238.5011 530 231.1333 C528.6784 230.3324 528.757 227.2622 528 227.1333 C515.1003 224.9376 498.367 221.2462 483 223.1333 C478.3905 223.6994 476.8491 232.0444 471 234.1333 C459.4591 238.2551 444.963 239.7185 441 238.1333 C439.2976 237.4524 438.2191 221.1845 436 220.1333 C430.5862 217.5689 419.3005 221.0225 403 220.1333 C392.0521 219.5362 381 217.1333 381 217.1333 "/>
<path id="4" d="M437 218.1333 L484 218.1333 "/>
<path id="5" d="M477 219.1333 C477 219.1333 471.9924 222.7892 467 224.1333 C459.723 226.0925 451.2722 226.0287 451 226.1333 C450.97 226.1449 452.723 228.8386 454 229.1333 C457.4586 229.9315 459.6663 229.9459 464 229.1333 C466.844 228.6001 468.5452 227.9115 470 226.1333 C471.9231 223.7829 473 218.1333 473 218.1333 "/>
<path id="6" d="M571 190.1333 C571 190.1333 559.9908 183.1535 560 183.1333 C560.0516 183.0198 576 179.1333 576 179.1333 "/>
<path id="7" d="M106 193.1333 C106 193.1333 111.7835 197.1436 114 201.1333 C115.979 204.6956 116 211.1333 116 211.1333 "/>
<path id="8" d="M374 208.1333 L383 213.1333 "/>
<path id="9" d="M538 187.1333 C538 187.1333 530.7244 200.4083 527 213.1333 C525.0508 219.7933 526 228.1333 526 228.1333 "/>
<path id="10" d="M536 199.1333 L542 187.1333 "/>
</g>
</g>
</svg>
