<?xml version="1.0" encoding="utf-8"?>
<!DOCTYPE svg PUBLIC "-//W3C//DTD SVG 1.1//EN" "http://www.w3.org/Graphics/SVG/1.1/DTD/svg11.dtd">
<svg viewBox="0 0 800 800" preserveAspectRatio="xMinYMin meet" xmlns="http://www.w3.org/2000/svg" version="1.1">
<g fill="none" stroke="black" stroke-linecap="round" stroke-linejoin="round" stroke-width="2.2561">
<g transform="translate(87.52,255.7273) scale(1.3297) translate(-15,-155.1333)">
<path id="0" d="M27 325.1333 C27 325.1333 30.3465 345.234 35 361.1333 C35.7489 363.6922 37.2363 365.6042 39 366.1333 C44.2269 367.7014 49.8439 369.0669 55 367.1333 C61.8885 364.5501 62.5638 359.0174 71 354.1333 C80.7573 348.4844 82.8172 350.5076 93 345.1333 C100.3384 341.2603 99.7399 337.7095 107 335.1333 C128.6201 327.4617 133.5479 331.7142 155 323.1333 C168.8951 317.5753 168.2453 312.6359 182 305.1333 C189.5736 301.0023 191.2199 302.8793 199 299.1333 C204.2302 296.6151 209 292.1333 209 292.1333 "/>
<path id="1" d="M16 294.1333 C16 294.1333 21.5201 305.9736 24 317.1333 C25.3011 322.9884 24 330.1333 24 330.1333 "/>
<path id="2" d="M15 294.1333 C15 294.1333 20.0901 295.3458 23 294.1333 C30.3354 291.0769 30.9275 286.3562 39 284.1333 C62.8806 277.5575 83.0389 276.9932 92 275.1333 C92.0678 275.1193 91.9918 273.1336 92 273.1333 C103.8681 272.7505 139.8625 274.53 185 272.1333 C194.8302 271.6114 195.1508 268.5404 205 267.1333 C212.1322 266.1144 216.2162 265.6198 220 267.1333 C222.0685 267.9607 224.1948 271.4293 225 275.1333 C226.3292 281.2477 225.957 289.4676 225 290.1333 C222.8268 291.6451 202 291.1333 202 291.1333 "/>
<path id="3" d="M224 270.1333 C224 270.1333 228.582 264.8007 234 262.1333 C259.9717 249.3473 262.0967 250.8163 289 238.1333 C296.8067 234.453 296.1278 232.5151 304 229.1333 C366.3137 202.3648 380.0545 199.471 431 177.1333 C432.7659 176.3591 432.3194 172.94 434 172.1333 C441.8927 168.3449 446.1849 169.566 456 165.1333 C460.744 162.9909 465 158.1333 465 158.1333 "/>
<path id="4" d="M227 282.1333 C227 282.1333 272.2972 264.9701 316 245.1333 C342.5434 233.0853 341.6989 229.8227 368 218.1333 C381.5615 212.106 383.8292 214.7309 397 209.1333 C402.7779 206.6777 402.1126 203.9088 408 201.1333 C436.2127 187.8331 438.394 189.4567 467 176.1333 C474.3664 172.7024 481 167.1333 481 167.1333 "/>
<path id="5" d="M468 156.1333 C468 156.1333 462.1992 156.695 462 157.1333 C461.4898 158.2558 462.1361 166.6826 463 167.1333 C466.2018 168.8038 484.7026 169.2208 485 169.1333 C485.0409 169.1213 482.929 164.4115 480 162.1333 C474.8274 158.1102 467 155.1333 467 155.1333 "/>
<path id="6" d="M100 344.1333 C100 344.1333 120.2185 345.3738 134 341.1333 C142.6818 338.462 142.8454 333.1536 152 328.1333 C157.535 325.098 159.0078 326.9382 165 324.1333 C182.0938 316.132 185.7389 315.9213 199 306.1333 C203.9345 302.4912 207 293.1333 207 293.1333 "/>
<path id="7" d="M119 332.1333 L134 334.1333 "/>
<path id="8" d="M41 367.1333 C41 367.1333 46.8874 371.6686 52 372.1333 C66.6885 373.4686 68.9934 372.7667 85 371.1333 C92.9342 370.3237 93.5773 369.9488 101 367.1333 C107.6337 364.6171 107.4997 361.9906 114 360.1333 C123.9053 357.3033 125.7992 360.1757 136 357.1333 C153.4546 351.9276 153.7675 350.6378 171 343.1333 C184.6954 337.1692 185.6751 337.9391 198 330.1333 C215.0823 319.3145 213.4906 313.7317 231 305.1333 C267.2481 287.3329 277.821 288.2433 310 275.1333 C311.1367 274.6703 310.8135 272.7503 312 272.1333 C321.3988 267.246 323.3234 266.4834 335 262.1333 C348.6984 257.03 349.9136 259.0968 363 253.1333 C388.8064 241.3734 389.9119 241.153 414 226.1333 C431.83 215.0158 431.644 213.7633 448 200.1333 C461.5157 188.8702 464.8821 187.205 474 176.1333 C476.3385 173.2937 476 166.1333 476 166.1333 "/>
<path id="9" d="M53 368.1333 C53 368.1333 69.1027 370.079 83 368.1333 C92.7189 366.7727 92.9971 363.1339 103 361.1333 C117.3032 358.2727 120.4738 362.6349 133 358.1333 C149.6008 352.1674 149.8666 344.7419 167 338.1333 C182.8953 332.0023 187.8986 338.2935 203 331.1333 C242.4669 312.4206 242.1679 305.0366 283 283.1333 C317.25 264.7608 320.158 267.8234 354 250.1333 C363.125 245.3634 362.317 240.97 371 237.1333 C381.938 232.3002 385.1086 234.8494 397 231.1333 C400.0928 230.1668 403 227.1333 403 227.1333 "/>
<path id="10" d="M402 229.1333 C402 229.1333 412.7179 225.1009 419 221.1333 C420.2894 220.319 419.7501 217.8476 421 217.1333 C427.8744 213.2051 433.3663 213.3548 440 209.1333 C441.8775 207.9386 441.0937 204.7463 443 203.1333 C446.3587 200.2913 450.7651 199.9213 453 198.1333 C453.3831 197.8268 452.5321 195.5374 453 195.1333 C459.4684 189.547 466.3541 187.459 475 179.1333 C478.3813 175.8773 480 169.1333 480 169.1333 "/>
<path id="11" d="M234 240.1333 C234 240.1333 232.0308 240.0409 232 240.1333 C231.5684 241.428 230.5 248.5083 231 249.1333 C231.5 249.7583 239.728 250.4393 240 250.1333 C240.354 249.735 240.1534 241.8634 239 240.1333 C238.2791 239.052 232 238.1333 232 238.1333 "/>
<path id="12" d="M234 237.1333 C234 237.1333 246.5221 236.2558 257 232.1333 C276.0844 224.6247 275.9695 221.0915 295 213.1333 C302.7342 209.899 305.911 211.3766 312 209.1333 C313.0235 208.7563 312.8794 206.6936 314 206.1333 C318.4825 203.8921 326 202.1333 326 202.1333 "/>
<path id="13" d="M240 248.1333 C240 248.1333 244.5653 242.6055 250 239.1333 C262.0579 231.4297 262.8241 230.9552 276 225.1333 C283.8637 221.6587 289.6513 221.5122 293 220.1333 C293.1447 220.0738 292.9077 218.1581 293 218.1333 C300.466 216.1303 334 209.1333 334 209.1333 "/>
<path id="14" d="M326 203.1333 L334 209.1333 "/>
<path id="15" d="M237 247.1333 C237 247.1333 239.5403 242.308 243 240.1333 C255.7838 232.0978 272 225.1333 272 225.1333 "/>
<path id="16" d="M242 248.1333 C242 248.1333 245.9847 241.9737 250 240.1333 C255.9799 237.3925 259.4845 240.0758 266 237.1333 C273.4965 233.7478 273.433 229.016 281 226.1333 C292.3975 221.7914 295.9656 225.5905 308 221.1333 C321.5792 216.104 335 206.1333 335 206.1333 "/>
<path id="17" d="M257 242.1333 C257 242.1333 258.95 242.0333 259 242.1333 C259.2 242.5333 259 246.1333 259 246.1333 "/>
<path id="18" d="M259 243.1333 L259 248.1333 "/>
<path id="19" d="M306 223.1333 L306 229.1333 "/>
</g>
</g>
</svg>
