<?xml version="1.0" encoding="utf-8"?>
<!DOCTYPE svg PUBLIC "-//W3C//DTD SVG 1.1//EN" "http://www.w3.org/Graphics/SVG/1.1/DTD/svg11.dtd">
<svg viewBox="0 0 800 800" preserveAspectRatio="xMinYMin meet" xmlns="http://www.w3.org/2000/svg" version="1.1">
<g fill="none" stroke="black" stroke-linecap="round" stroke-linejoin="round" stroke-width="2.1025">
<g transform="translate(87.52,317.2427) scale(1.4268) translate(-109,-114.1333)">
<path id="0" d="M109 166.1333 C109 166.1333 148.9357 165.999 188 161.1333 C288.938 148.561 312.0576 138.7111 390 131.1333 C394.9922 130.648 396.7184 137.1545 404 140.1333 C417.8706 145.8077 419.3171 146.64 434 149.1333 C444.7112 150.9522 446.1326 150.7737 457 149.1333 C471.7454 146.9076 487 141.1333 487 141.1333 "/>
<path id="1" d="M490 139.1333 C490 139.1333 496.3531 154.3142 506 164.1333 C522.8913 181.3263 532.886 183.0194 546 196.1333 C547.8214 197.9547 547.6217 201.4031 547 205.1333 C546.3196 209.2155 545.8084 211.8091 543 214.1333 C533.8219 221.729 529.8755 225.7998 518 229.1333 C504.8763 232.8172 494.4218 233.4288 486 230.1333 C480.2889 227.8986 475.9198 220.9329 472 211.1333 C464.8296 193.2073 462 170.1333 462 170.1333 "/>
<path id="2" d="M454 167.1333 L456 171.1333 "/>
<path id="3" d="M464 170.1333 C464 170.1333 444.5965 174.7114 431 171.1333 C410.8457 165.8296 388 150.1333 388 150.1333 "/>
<path id="4" d="M392 151.1333 C392 151.1333 377.4508 149.9521 364 152.1333 C341.1776 155.8343 340.9526 159.7861 318 163.1333 C293.6813 166.6798 292.7354 163.171 268 166.1333 C209.5321 173.1355 209.0934 176.4604 151 183.1333 C135.8604 184.8723 132.1397 184.4822 120 183.1333 C117.8679 182.8964 115.8743 181.0276 115 179.1333 C113.6886 176.292 114 170.1333 114 170.1333 "/>
<path id="5" d="M372 152.1333 C372 152.1333 368.5903 164.75 370 168.1333 C371.2083 171.0333 376.6802 174.8492 382 176.1333 C388.3996 177.6781 393.893 177.2612 399 175.1333 C402.1522 173.8199 404.5149 169.5986 406 166.1333 C406.5658 164.8132 405 161.1333 405 161.1333 "/>
<path id="6" d="M380 150.1333 C380 150.1333 378.0444 156.1073 379 159.1333 C380.3436 163.3881 383.6464 168.0258 386 169.1333 C387.8213 169.9904 392.9401 168.8819 396 167.1333 C398.0399 165.9676 399.1473 163.9046 400 161.1333 C400.8255 158.4505 400 154.1333 400 154.1333 "/>
<path id="7" d="M187 147.1333 L189 163.1333 "/>
<path id="8" d="M197 147.1333 L198 162.1333 "/>
<path id="9" d="M287 134.1333 L288 144.1333 "/>
<path id="10" d="M294 128.1333 L296 145.1333 "/>
<path id="11" d="M178 146.1333 C178 146.1333 188.4081 147.6395 198 146.1333 C247.8697 138.3025 299 127.1333 299 127.1333 "/>
<path id="12" d="M178 135.1333 C178 135.1333 175.0075 131.1308 175 131.1333 C174.9925 131.1358 174.3953 134.0169 175 136.1333 C176.2267 140.4266 179 145.1333 179 145.1333 "/>
<path id="13" d="M179 133.1333 C179 133.1333 200.4972 126.6275 222 123.1333 C240.0635 120.198 240.7543 122.5843 259 120.1333 C274.0276 118.1147 275.8173 116.1307 289 114.1333 C290.2149 113.9493 291.7321 114.5529 292 115.1333 C293.5036 118.3911 295 127.1333 295 127.1333 "/>
<path id="14" d="M255 171.1333 C255 171.1333 256.9171 186.8018 260 199.1333 C260.5006 201.1359 261.7851 202.8093 263 203.1333 C266.5851 204.0893 269.7547 204.3438 275 203.1333 C281.7248 201.5815 282.2996 198.9607 289 197.1333 C292.4281 196.1984 297 197.1333 297 197.1333 C297 195.2922 289 169.1333 289 169.1333 "/>
<path id="15" d="M374 132.1333 C374 132.1333 371.7403 125.2879 372 121.1333 C372.1239 119.1515 374.3704 116.4032 375 116.1333 C375.3848 115.9684 378.5037 117.0699 379 118.1333 C380.8482 122.0937 382 131.1333 382 131.1333 "/>
<path id="16" d="M491 136.1333 C491 136.1333 504.6602 138.4107 506 140.1333 C507.1307 141.5872 505.9983 152.7357 505 154.1333 C504.5638 154.7439 496 154.1333 496 154.1333 "/>
</g>
</g>
</svg>
