<?xml version="1.0" encoding="utf-8"?>
<!DOCTYPE svg PUBLIC "-//W3C//DTD SVG 1.1//EN" "http://www.w3.org/Graphics/SVG/1.1/DTD/svg11.dtd">
<svg viewBox="0 0 800 800" preserveAspectRatio="xMinYMin meet" xmlns="http://www.w3.org/2000/svg" version="1.1">
<g fill="none" stroke="black" stroke-linecap="round" stroke-linejoin="round" stroke-width="2.4482">
<g transform="translate(87.52,345.4692) scale(1.2254) translate(-122,-170)">
<path id="0" d="M183 221 C183 221 163.786 237.8138 144 252 C137.8539 256.4067 130.0138 259.0249 130 259 C129.3847 257.8924 130.5061 241.1908 129 225 C128.5901 220.5934 126.5715 220.4901 126 216 C123.167 193.7409 121.896 174.7856 122 170 C122.0002 169.9887 125.72 169.36 127 170 C128.28 170.64 128.307 173.2519 130 174 C146.558 181.3163 150.8725 187.5123 170 189 C235.0129 194.0566 304.7757 187.9624 310 188 C310.0368 188.0003 309 190 309 190 "/>
<path id="1" d="M184 221 L321 219 "/>
<path id="2" d="M307 189 C307 189 316.9914 188.923 317 189 C317.2018 190.8166 309.7982 214.1834 310 216 C310.0086 216.077 319.8586 216.3959 320 216 C321.1086 212.8959 320.0284 188.1631 320 188 C319.9956 187.9749 316 193 316 193 "/>
<path id="3" d="M322 193 C322 193 326.1298 190.2688 330 190 C360.2414 187.8999 362.0369 188 394 188 C453.4314 188 455.2742 191.9242 513 190 C528.1595 189.4947 528.6622 184.1686 544 183 C580.0306 180.2548 618 182 618 182 "/>
<path id="4" d="M620 182 C620 182 620.5989 189.5027 620 191 C619.827 191.4326 617.9567 191.9545 616 192 C576.1087 192.9277 572.209 190.9234 534 193 C529.2422 193.2586 528.647 196.9423 524 197 C454.1893 197.8672 446.6113 194.5539 373 195 C366.1657 195.0414 365.9064 197.6091 359 198 C339.9914 199.076 320 198 320 198 "/>
<path id="5" d="M499 199 C499 199 467.1554 225.6527 448 233 C442.1079 235.26 436.2368 230.8388 426 227 C420.8288 225.0608 421.0714 222.3148 416 221 C395.7796 215.7577 392.8455 218.0184 372 213 C366.9147 211.7758 367.1325 209.4827 362 208 C345.2672 203.1661 327 200 327 200 "/>
<path id="6" d="M335 199 C335 199 331.7225 203.207 331 207 C329.9281 212.6277 329.9525 214.2386 331 220 C331.7838 224.311 333.1418 227.9677 335 229 C338.0052 230.6696 343.4331 230.3275 349 230 C350.2449 229.9268 350.6674 229.1422 352 228 C354.0998 226.2002 355.6637 225.6813 356 224 C357.1209 218.3957 356 208 356 208 "/>
<path id="7" d="M348 207 C348 207 342.846 209.308 342 211 C341.0332 212.9337 341.6712 218.1233 342 219 C342.0462 219.1233 345 219 345 219 "/>
<path id="8" d="M622 187 L632 187 "/>
</g>
</g>
</svg>
