<?xml version="1.0" encoding="utf-8"?>
<!DOCTYPE svg PUBLIC "-//W3C//DTD SVG 1.1//EN" "http://www.w3.org/Graphics/SVG/1.1/DTD/svg11.dtd">
<svg viewBox="0 0 800 800" preserveAspectRatio="xMinYMin meet" xmlns="http://www.w3.org/2000/svg" version="1.1">
<g fill="none" stroke="black" stroke-linecap="round" stroke-linejoin="round" stroke-width="1.6801">
<g transform="translate(87.52,281.2576) scale(1.7856) translate(-129,-98)">
<path id="0" d="M197 171 C197 171 180.4797 175.8189 164 178 C146.8703 180.2672 133.231 178.1867 129 180 C128.3426 180.2817 128.0085 187.0507 129 193 C129.8899 198.3391 131.9837 198.4832 133 204 C135.3857 216.9509 135.9815 230.9151 136 231 C136.0024 231.011 136.646 227.9671 138 227 C145.4866 221.6524 147.1738 219.5198 157 216 C179.5548 207.9207 187.9611 210.4352 205 203 C208.746 201.3654 212 192 212 192 "/>
<path id="1" d="M198 171 C198 171 200.3398 160.8695 203 157 C203.9344 155.6408 205.9502 155.6042 209 155 C258.4762 145.1981 259.5532 147.295 309 136 C357.7829 124.8567 357.2803 120.9547 406 110 C441.3857 102.0435 478 98 478 98 "/>
<path id="2" d="M211 193 C211 193 214.7458 185.4698 220 182 C239.3345 169.2319 242.1412 166.3409 264 158 C277.9431 152.6796 280.7027 157.0008 296 153 C312.5973 148.6592 312.2742 145.2255 329 141 C359.1875 133.3737 383.4221 132.0312 391 129 C391.3176 128.8729 389 117 389 117 "/>
<path id="3" d="M392 120 C392 120 416.3095 116.1228 439 110 C447.1674 107.7961 447.0792 104.7822 455 103 C466.0192 100.5207 479 101 479 101 "/>
<path id="4" d="M301 137 C301 137 301.249 129.0664 301 129 C297.499 128.0664 285.4437 127.3425 271 129 C255.6881 130.7571 255.3642 132.0891 240 136 C227.9165 139.0758 218.1874 141.8069 216 143 C215.9428 143.0312 216.523 146.3887 218 148 C221.2963 151.5959 227 155 227 155 "/>
<path id="5" d="M223 182 C223 182 226.931 181.8276 227 182 C227.431 183.0776 228.352 188.9581 227 192 C225.4377 195.5151 219.0069 200.0088 219 200 C218.9373 199.9194 220 183 220 183 "/>
</g>
</g>
</svg>
