<?xml version="1.0" encoding="utf-8"?>
<!DOCTYPE svg PUBLIC "-//W3C//DTD SVG 1.1//EN" "http://www.w3.org/Graphics/SVG/1.1/DTD/svg11.dtd">
<svg viewBox="0 0 800 800" preserveAspectRatio="xMinYMin meet" xmlns="http://www.w3.org/2000/svg" version="1.1">
<g fill="none" stroke="black" stroke-linecap="round" stroke-linejoin="round" stroke-width="2.1217">
<g transform="translate(87.52,335.6659) scale(1.4139) translate(-165,-215.9833)">
<path id="0" d="M171 217.9833 C171 217.9833 171.7465 237.3539 170 255.9833 C168.7865 268.9277 164.1999 281.1499 165 281.9833 C166.013 283.0386 194 280.9833 194 280.9833 C194 280.9833 191 280.9833 191 280.9833 C191 280.9833 193.8436 281.218 194 280.9833 C194.5215 280.2011 193.846 275.8865 195 274.9833 C201.3601 270.0059 214.9397 264.5286 217 262.9833 C217.0166 262.9709 214.9346 260.0581 215 259.9833 C215.6739 259.2132 224 254.9833 224 254.9833 "/>
<path id="1" d="M222 255.9833 C222 255.9833 224.7534 253.1195 227 252.9833 C253.4737 251.3789 270.1242 248.9189 288 251.9833 C291.2998 252.549 293.6853 258.6855 297 264.9833 C298.2196 267.3006 297.9983 270.9833 298 270.9833 C298.0034 270.9833 298.6408 265.9178 300 264.9833 C303.8695 262.3231 310.2233 262.2494 314 259.9833 C314.7553 259.5301 314.4032 256.3563 315 255.9833 C316.3002 255.1707 320.2229 255.9706 322 254.9833 C322.9931 254.4316 324 250.9833 324 250.9833 "/>
<path id="2" d="M173 215.9833 C173 215.9833 176.9195 219.4995 181 220.9833 C187.2718 223.264 187.9847 223.0839 195 223.9833 C207.3173 225.5625 208.9375 223.3633 220 225.9833 C226.3655 227.491 226.9355 232.117 233 232.9833 C248.5945 235.2111 252.2059 231.8383 269 232.9833 C272.8274 233.2443 273.1493 235.7308 277 235.9833 C301.9293 237.618 307.1382 240.0728 330 236.9833 C339.7244 235.6692 351 225.9833 351 225.9833 "/>
<path id="3" d="M325 254.9833 L514 253.9833 "/>
<path id="4" d="M351 227.9833 C351 227.9833 370.2874 236.5886 389 237.9833 C448.4765 242.4164 459.9653 237.5631 512 239.9833 C514.615 240.105 517.3958 242.5333 518 243.9833 C518.7049 245.675 517 251.9833 517 251.9833 "/>
<path id="5" d="M519 244.9833 C519 244.9833 560.0145 244.8855 594 246.9833 C596.7981 247.1561 598.08 249.9833 600 249.9833 C601.92 249.9833 605.8942 246.8927 606 246.9833 C606.2688 247.2138 607.02 255.9816 607 255.9833 C598.1958 256.7573 515 254.9833 515 254.9833 "/>
<path id="6" d="M318 262.9833 C318 262.9833 320.9601 265.8635 322 268.9833 C326.1597 281.4626 324.9218 286.953 329 295.9833 C329.9683 298.1274 334.9285 298.2996 336 299.9833 C336.8871 301.3774 335.9878 306.9813 336 306.9833 C336.0522 306.992 339.4108 301.6895 342 300.9833 C347.4249 299.5038 357.5121 301.7966 358 300.9833 C359.2402 298.9164 358.6327 287.7385 357 275.9833 C356.2495 270.5798 355.5707 268.8394 353 264.9833 C351.4952 262.7262 347 260.9833 347 260.9833 "/>
<path id="7" d="M224 261.9833 C224 261.9833 222.6597 270.5185 223 276.9833 C223.0935 278.7589 223.8215 280.2334 225 280.9833 C227.8285 282.7833 231.2952 281.9027 234 283.9833 C236.2448 285.7101 236.08 289.7033 238 290.9833 C239.92 292.2633 243.5248 290.9933 246 291.9833 C246.9429 292.3605 247.2447 294.8323 248 294.9833 C251.7767 295.7387 256.2754 296.4866 261 294.9833 C265.0803 293.6851 265.9978 289.9845 270 287.9833 C271.6009 287.1829 274.6189 288.2882 275 287.9833 C275.2439 287.7882 274.3051 284.9309 275 283.9833 C278.3122 279.4667 284.1005 277.8184 286 272.9833 C288.1076 267.6186 286 255.9833 286 255.9833 "/>
<path id="8" d="M239 257.9833 C239 257.9833 267.0183 279.9468 267 279.9833 C266.9555 280.0724 245.4183 281.1446 228 279.9833 C225.2309 279.7987 222 276.9833 222 276.9833 "/>
<path id="9" d="M475 255.9833 C475 255.9833 472.3874 256.4022 472 256.9833 C471.2682 258.081 471 261.9833 471 261.9833 "/>
</g>
</g>
</svg>
