<?xml version="1.0" encoding="utf-8"?>
<!DOCTYPE svg PUBLIC "-//W3C//DTD SVG 1.1//EN" "http://www.w3.org/Graphics/SVG/1.1/DTD/svg11.dtd">
<svg viewBox="0 0 800 800" preserveAspectRatio="xMinYMin meet" xmlns="http://www.w3.org/2000/svg" version="1.1">
<g fill="none" stroke="black" stroke-linecap="round" stroke-linejoin="round" stroke-width="1.6705">
<g transform="translate(179.109,87.52) scale(1.7959) translate(-230,-108)">
<path id="0" d="M379 172 C379 172 366.6414 182.9584 356 195 C347.8319 204.2429 349.5223 206.4777 341 215 C327.1208 228.8792 324.5412 227.2109 310 241 C295.7606 254.5029 296.2858 255.3157 283 270 C267.796 286.8045 267.0491 286.4387 253 304 C243.2141 316.2324 234.8631 329.9357 235 330 C237.0429 330.9595 277.838 330.1763 319 335 C340.9819 337.576 341.1358 341.4103 363 345 C374.0966 346.8218 386 346 386 346 "/>
<path id="1" d="M379 174 C379 174 395.2075 172.2147 410 174 C423.2869 175.6036 423.8875 176.7184 437 181 C448.1662 184.6461 452.939 185.3936 459 190 C461.2277 191.6931 461.1842 195.105 462 200 C462.6216 203.7295 463.3211 205.561 462 208 C458.1949 215.0248 456.4197 218.9546 449 224 C433.7008 234.4035 428.2698 232.2381 412 242 C407.439 244.7366 403.9542 250.3586 404 251 C404.0307 251.4294 408.4571 254.654 413 256 C421.1868 258.4257 423.7429 255.6246 431 259 C443.3128 264.7269 451.6759 268.3128 456 276 C460.472 283.9502 459.2162 293.3183 458 307 C457.4266 313.4512 456.0512 315.4055 452 321 C446.2887 328.887 444.9874 329.8764 437 336 C430.6302 340.8835 429.6495 341.3123 422 344 C411.7968 347.5849 410.7029 347.9023 400 349 C391.9667 349.8239 383 348 383 348 "/>
<path id="2" d="M393 350 C393 350 395.3666 367.7019 395 382 C394.9188 385.1672 394.0135 386.8034 392 389 C389.453 391.7785 384 394 384 394 "/>
<path id="3" d="M459 275 C459 275 458.4719 277.3134 459 278 C462.1146 282.049 465.3753 282.6838 469 288 C472.321 292.8708 472.9686 294.2241 474 300 C475.28 307.1679 474.8729 308.4346 474 316 C473.4355 320.8921 473.1139 321.5373 471 326 C468.8082 330.6272 468.6071 331.3929 465 335 C456.1025 343.8975 455.6484 344.6706 445 352 C417.5305 370.9076 388 388 388 388 "/>
<path id="4" d="M458 190 C458 190 459.2954 195.839 462 200 C465.4023 205.2342 469.6585 205.439 471 210 C473.5769 218.7613 473.44 223.9197 472 234 C471.2843 239.0099 469.9166 241.7549 466 245 C454.6205 254.4287 437 263 437 263 "/>
<path id="5" d="M237 336 L237 371 "/>
<path id="6" d="M241 373 C241 373 303.6605 371.6029 366 372 C381.9661 372.1017 398 374 398 374 "/>
<path id="7" d="M244 372 C244 372 244.3244 376.108 243 378 C238.4338 384.5232 229.8769 391.9815 230 392 C231.047 392.157 276.7985 389.0881 323 390 C352.3721 390.5797 382 395 382 395 "/>
<path id="8" d="M235 324 C235 324 241.5578 316.917 245 309 C256.1542 283.3453 253.6664 281.1545 265 255 C272.9999 236.5388 275.4584 237.151 284 219 C287.2981 211.9914 285.5046 210.8659 289 204 C313.0981 156.6645 340 109 340 109 "/>
<path id="9" d="M340 109 C340 109 345.8736 116.2881 349 124 C353.0961 134.1036 351.2145 135.5172 355 146 C357.5889 153.1693 359.9268 152.7851 362 160 C372.1222 195.2251 372.0916 196.6215 380 233 C381.9983 242.1923 382 252 382 252 "/>
<path id="10" d="M344 109 C344 109 353.7053 106.6763 359 108 C362.8589 108.9647 365.231 111.308 368 115 C370.2656 118.0208 370.7621 119.7171 371 124 C371.6994 136.5892 368.5719 149.9289 370 151 C372.7449 153.0587 395.0884 147.1793 407 151 C413.9064 153.2153 419.0419 160.5785 423 168 C425.0152 171.7786 423 181 423 181 "/>
<path id="11" d="M382 246 C382 246 385.913 249.4046 387 253 C391.9062 269.2282 390.0605 271.547 395 289 C397.4503 297.6577 400.0424 297.4166 402 306 C406.3548 325.0941 408 346 408 346 "/>
<path id="12" d="M255 376 L255 382 "/>
<path id="13" d="M261 374 L260 386 "/>
<path id="14" d="M276 376 L274 384 "/>
<path id="15" d="M273 374 L271 385 "/>
<path id="16" d="M280 373 C280 373 279.4803 379.4408 280 381 C280.1299 381.3898 283 382 283 382 "/>
<path id="17" d="M293 376 L292 384 "/>
<path id="18" d="M301 377 L302 383 "/>
<path id="19" d="M309 378 L309 390 "/>
<path id="20" d="M320 377 C320 377 319.6808 387.7162 320 388 C320.2068 388.1838 329 385 329 385 "/>
<path id="21" d="M338 375 C338 375 335.5694 378.1531 335 381 C334.2236 384.8822 335 390 335 390 "/>
<path id="22" d="M339 375 C339 375 338.9191 384.636 339 385 C339.0045 385.0202 341 384 341 384 "/>
<path id="23" d="M345 376 C345 376 344.55 386.65 345 388 C345.05 388.15 349 388 349 388 "/>
<path id="24" d="M355 377 C355 377 354.8271 385.5389 355 386 C355.0024 386.0064 358 385 358 385 "/>
<path id="25" d="M364 378 C364 378 363.5861 384.4206 364 385 C364.2111 385.2956 369 385 369 385 "/>
<path id="26" d="M380 375 L382 389 "/>
<path id="27" d="M388 379 L389 388 "/>
<path id="28" d="M238 396 C238 396 237.3323 414.6373 238 433 C238.3262 441.9693 238.2567 442.9807 240 451 C240.5345 453.4587 242.9852 456.0313 243 456 C243.1114 455.7649 247.4237 443.8224 249 432 C250.3348 421.9891 250.1283 421.1551 249 411 C247.6806 399.1255 244 387 244 387 "/>
<path id="29" d="M373 394 C373 394 370.9998 451.9965 371 452 C371 452.001 374.0343 444.0013 375 436 C377.4819 415.4359 378 394 378 394 "/>
<path id="30" d="M470 333 C470 333 472 374.9999 472 375 C472 375 471.62 363.3504 473 353 C473.5238 349.0719 475.892 348.6722 476 345 C476.3464 333.2223 474 319 474 319 "/>
<path id="31" d="M367 218 C367 218 354.9818 242.3596 340 264 C323.8068 287.3901 304 309 304 309 "/>
<path id="32" d="M357 247 L411 260 "/>
<path id="33" d="M348 269 L418 284 "/>
<path id="34" d="M338 280 C338 280 371.9236 289.4275 406 297 C421.2447 300.3877 437 302 437 302 "/>
<path id="35" d="M338 306 L338 303 "/>
<path id="36" d="M334 301 C334 301 346.8157 306.547 360 310 C388.5494 317.4772 418 323 418 323 "/>
<path id="37" d="M333 325 L367 326 "/>
<path id="38" d="M400 183 C400 183 396.0724 183.4919 395 185 C382.9932 201.8846 368 228 368 228 "/>
<path id="39" d="M390 199 C390 199 396.176 197.7253 400 199 C405.0986 200.6995 411 206 411 206 "/>
<path id="40" d="M383 211 L408 220 "/>
<path id="41" d="M381 230 L412 239 "/>
<path id="42" d="M403 193 L425 204 "/>
<path id="43" d="M313 304 L303 318 "/>
</g>
</g>
</svg>
