<?xml version="1.0" encoding="utf-8"?>
<!DOCTYPE svg PUBLIC "-//W3C//DTD SVG 1.1//EN" "http://www.w3.org/Graphics/SVG/1.1/DTD/svg11.dtd">
<svg viewBox="0 0 800 800" preserveAspectRatio="xMinYMin meet" xmlns="http://www.w3.org/2000/svg" version="1.1">
<g fill="none" stroke="black" stroke-linecap="round" stroke-linejoin="round" stroke-width="2.2897">
<g transform="translate(87.52,206.7472) scale(1.3102) translate(-61,-58.2167)">
<path id="0" d="M66 302.2167 C66 302.2167 66.465 269.7109 70 242.2167 C70.6217 237.3811 74.34 237.0255 75 232.2167 C77.5493 213.6432 74.2281 211.1237 77 191.2167 C79.6359 172.2863 80.5049 171.6413 86 153.2167 C88.8885 143.5316 89.1836 143.1806 94 134.2167 C107.033 109.9607 107.7217 106.3527 122 86.2167 C125.1143 81.8247 127.2883 81.7771 133 79.2167 C141.3586 75.4697 143.8936 76.7699 151 73.2167 C153.1996 72.1169 152.9078 69.0265 155 68.2167 C165.4722 64.1629 168.4467 64.163 182 61.2167 C191.3386 59.1865 191.5825 58.4735 201 58.2167 C245.9115 56.9918 247.5407 56.9464 292 58.2167 C298.8818 58.4133 300.1457 58.4846 306 61.2167 C314.0339 64.9658 313.9046 67.8576 322 72.2167 C326.2891 74.5262 328.5224 72.5416 332 75.2167 C346.0625 86.034 347.7959 87.9122 361 102.2167 C371.4462 113.5334 373.8659 114.1817 380 127.2167 C388.8769 146.0801 384.231 151.8018 393 170.2167 C398.0084 180.7343 401.1784 181.7344 410 190.2167 C413.3619 193.4493 414.4857 194.2872 419 195.2167 C446.3904 200.8559 462.5152 201.1197 478 204.2167 C478.4075 204.2982 478.3732 206.9317 479 207.2167 C485.4132 210.1317 490.3776 209.8711 500 214.2167 C505.2416 216.5838 505.776 217.2038 510 221.2167 C515.4291 226.3743 516.9497 226.8256 520 233.2167 C526.7743 247.4104 525.8199 252.6364 531 265.2167 C531.4588 266.3309 533.487 266.1173 534 267.2167 C536.2433 272.0238 537.2741 273.8653 538 280.2167 C539.1867 290.6 539.7476 300.3171 538 302.2167 C536.0808 304.3027 526.4017 304.8813 515 305.2167 C492.7922 305.8698 491.4858 303.8035 470 304.2167 C466.638 304.2813 466.3571 306.2249 463 306.2167 C270.0661 305.7449 61 303.2167 61 303.2167 "/>
<path id="1" d="M67 305.2167 C67 305.2167 65.5809 342.7784 67 343.2167 C83.5952 348.3416 135.0273 346.6373 203 347.2167 C310.9254 348.1365 311.731 347.9971 419 346.2167 C431.4392 346.0102 431.5518 343.656 444 343.2167 C473.7496 342.1667 475.6458 345.1069 504 343.2167 C511.2461 342.7336 511.6911 339.5702 519 338.2167 C524.5072 337.1968 530.8827 338.5921 531 338.2167 C531.9816 335.0756 529 306.2167 529 306.2167 "/>
<path id="2" d="M519 306.2167 L520 338.2167 "/>
<path id="3" d="M506 306.2167 L506 343.2167 "/>
<path id="4" d="M492 306.2167 L495 348.2167 "/>
<path id="5" d="M479 304.2167 L481 351.2167 "/>
<path id="6" d="M464 306.2167 L464 343.2167 "/>
<path id="7" d="M448 306.2167 L448 343.2167 "/>
<path id="8" d="M437 306.2167 L438 348.2167 "/>
<path id="9" d="M423 307.2167 L423 345.2167 "/>
<path id="10" d="M409 307.2167 L411 346.2167 "/>
<path id="11" d="M393 308.2167 C393 308.2167 393.9888 325.3007 392 340.2167 C391.1541 346.5606 387 353.2167 387 353.2167 "/>
<path id="12" d="M380 307.2167 L378 343.2167 "/>
<path id="13" d="M366 307.2167 L366 342.2167 "/>
<path id="14" d="M353 305.2167 L354 341.2167 "/>
<path id="15" d="M341 307.2167 L341 342.2167 "/>
<path id="16" d="M326 306.2167 L325 341.2167 "/>
<path id="17" d="M311 308.2167 L314 341.2167 "/>
<path id="18" d="M300 307.2167 L300 344.2167 "/>
<path id="19" d="M287 308.2167 L284 350.2167 "/>
<path id="20" d="M275 307.2167 L272 345.2167 "/>
<path id="21" d="M260 306.2167 L261 345.2167 "/>
<path id="22" d="M247 307.2167 L247 345.2167 "/>
<path id="23" d="M233 308.2167 C233 308.2167 232.1863 322.9779 233 329.2167 C233.0927 329.9271 235.8489 330.4613 236 331.2167 C236.7553 334.9934 236 344.2167 236 344.2167 "/>
<path id="24" d="M220 307.2167 L220 344.2167 "/>
<path id="25" d="M210 307.2167 L207 345.2167 "/>
<path id="26" d="M195 304.2167 L199 345.2167 "/>
<path id="27" d="M183 306.2167 L183 345.2167 "/>
<path id="28" d="M169 307.2167 L170 345.2167 "/>
<path id="29" d="M157 307.2167 L157 347.2167 "/>
<path id="30" d="M148 306.2167 L143 346.2167 "/>
<path id="31" d="M131 305.2167 L132 344.2167 "/>
<path id="32" d="M119 306.2167 L118 345.2167 "/>
<path id="33" d="M108 304.2167 L108 345.2167 "/>
<path id="34" d="M96 304.2167 L97 351.2167 "/>
<path id="35" d="M80 304.2167 C80 304.2167 79.2244 314.8215 80 319.2167 C80.1308 319.9578 82.9759 320.6381 83 321.2167 C83.2486 327.1835 81 343.2167 81 343.2167 "/>
<path id="36" d="M95 306.2167 C95 306.2167 93.4992 321.5138 94 323.2167 C94.0529 323.3965 99.7692 323.5628 100 323.2167 C100.5192 322.4378 99.5469 316.4823 100 314.2167 C100.0705 313.8642 101.8913 313.597 102 313.2167 C102.4149 311.7644 102.225 307.8917 102 307.2167 C101.975 307.1417 100.0414 307.1008 100 307.2167 C99.127 309.661 97.0001 321.2167 97 321.2167 C96.9997 321.2166 97 306.2167 97 306.2167 "/>
<path id="37" d="M127 306.2167 C127 306.2167 126.2 320.6167 127 322.2167 C127.2 322.6167 134.5586 322.7132 135 322.2167 C135.5586 321.5882 135.7764 317.0988 135 313.2167 C134.4306 310.3697 132.002 307.2101 132 307.2167 C131.9939 307.2371 132.0012 323.2161 132 323.2167 C131.9996 323.2169 128.0016 309.2175 128 309.2167 C127.9991 309.2162 128 321.2167 128 321.2167 "/>
<path id="38" d="M145 307.2167 C145 307.2167 144.2815 320.677 145 322.2167 C145.1565 322.552 151.825 322.5667 152 322.2167 C152.7 320.8167 152 308.2167 152 308.2167 C152 308.2167 150.0001 322.2165 150 322.2167 C149.9999 322.2168 150.2404 313.4186 150 312.2167 C149.9904 312.1686 148.0505 312.0987 148 312.2167 C147.562 313.2387 147 319.2167 147 319.2167 C147 319.2167 148 306.2167 148 306.2167 "/>
<path id="39" d="M166 307.2167 C166 307.2167 165.5294 321.3343 166 323.2167 C166.0294 323.3343 169.9832 323.3004 170 323.2167 C170.31 321.6666 169 308.2167 169 308.2167 "/>
<path id="40" d="M194 308.2167 C194 308.2167 192.9313 317.0793 194 319.2167 C194.6315 320.4796 200.9729 322.2573 201 322.2167 C201.1844 321.94 200 310.2167 200 310.2167 C200 310.2167 199 322.2167 199 322.2167 C199 322.2166 199 308.2167 199 308.2167 "/>
<path id="41" d="M211 308.2167 C211 308.2167 210.3817 319.877 211 321.2167 C211.1317 321.502 217 321.2167 217 321.2167 C217 321.2167 215.0213 321.2964 215 321.2167 C214.3804 318.8931 213.0001 306.2167 213 306.2167 C212.9999 306.2166 213 319.2167 213 319.2167 C213 319.2167 212.9986 310.2156 213 310.2167 C213.0027 310.2187 217 322.2167 217 322.2167 C217 322.2166 214 309.2167 214 309.2167 "/>
<path id="42" d="M242 306.2167 C242 306.2167 241.0812 323.2769 242 325.2167 C242.2062 325.6519 250.8193 325.6007 251 325.2167 C251.7053 323.7179 250.0001 308.2167 250 308.2167 C249.9999 308.2166 249 323.2167 249 323.2167 C248.9999 323.2167 247.5657 309.5366 247 308.2167 C246.9745 308.1572 243.121 308.8234 243 309.2167 C242.3491 311.3322 241.9715 317.1025 243 321.2167 C243.4286 322.9309 246.9914 325.2338 247 325.2167 C247.0515 325.1137 247 313.2167 247 313.2167 "/>
<path id="43" d="M259 308.2167 C259 308.2167 258.6377 322.2846 259 324.2167 C259.0127 324.2846 261.9887 324.2808 262 324.2167 C262.3637 322.1558 262.0002 307.2167 262 307.2167 C261.9999 307.2166 259.0017 323.2141 259 323.2167 C258.9991 323.218 258 313.2167 258 313.2167 "/>
<path id="44" d="M272 310.2167 C272 310.2167 271.3817 321.877 272 323.2167 C272.1317 323.502 277.7692 323.5628 278 323.2167 C278.5192 322.4378 278.6903 316.7476 278 314.2167 C277.7839 313.4241 275.423 313.0626 275 312.2167 C274.5166 311.2498 275 308.2167 275 308.2167 C275 308.2167 275 324.2167 275 324.2167 C275 324.2167 276 306.2167 276 306.2167 C276 306.2167 276 319.2167 276 319.2167 "/>
<path id="45" d="M299 308.2167 C299 308.2167 298.2215 321.7569 299 323.2167 C299.2215 323.6319 306.9226 323.418 307 323.2167 C307.2981 322.4416 304.0007 310.2171 304 310.2167 C303.9996 310.2164 304 321.2167 304 321.2167 C304 321.2167 304.9994 310.2165 305 310.2167 C305.0022 310.2172 308 322.2167 308 322.2167 "/>
<path id="46" d="M322 307.2167 C322 307.2167 319.5802 321.8732 320 323.2167 C320.0597 323.4078 326.834 323.5209 327 323.2167 C327.4544 322.3836 326.0003 312.217 326 312.2167 C325.9998 312.2165 325.4316 319.9219 325 321.2167 C324.9692 321.3091 323.0147 321.2802 323 321.2167 C322.5799 319.3963 322 308.2167 322 308.2167 C322 308.2166 322 318.2167 322 318.2167 "/>
<path id="47" d="M303 310.2167 L303 322.2167 "/>
<path id="48" d="M349 309.2167 C349 309.2167 347.863 319.0848 349 321.2167 C349.6885 322.5076 356.9762 324.2609 357 324.2167 C357.2819 323.6931 356 308.2167 356 308.2167 C356 308.2167 356.2442 319.6292 356 321.2167 C355.9942 321.2542 354.0483 321.3423 354 321.2167 C353.1107 318.9044 351 308.2167 351 308.2167 C351 308.2167 353 318.2167 353 318.2167 "/>
<path id="49" d="M367 309.2167 C367 309.2167 366.6377 323.2846 367 325.2167 C367.0127 325.2846 369.9856 325.2888 370 325.2167 C370.3606 323.4138 370.0003 310.2168 370 310.2167 C369.9999 310.2166 367.0003 324.2168 367 324.2167 C366.9995 324.2164 367 308.2167 367 308.2167 "/>
<path id="50" d="M381 310.2167 C381 310.2167 379.586 325.4574 380 327.2167 C380.029 327.3401 384.9638 327.3522 385 327.2167 C385.3995 325.7184 384 312.2167 384 312.2167 "/>
<path id="51" d="M385 308.2167 C385 308.2167 385 327.2167 385 327.2167 C385 327.2166 383 307.2167 383 307.2167 C383 307.2167 385 327.2167 385 327.2167 "/>
<path id="52" d="M383 314.2167 L383 327.2167 "/>
<path id="53" d="M352 312.2167 C352 312.2167 350.6526 322.785 351 325.2167 C351.0386 325.4868 354 326.2167 354 326.2167 "/>
<path id="54" d="M419 309.2167 C419 309.2167 418.2399 325.2622 419 327.2167 C419.1149 327.5122 425.8954 327.5005 426 327.2167 C426.7704 325.1255 426 308.2166 426 308.2167 C426 308.2167 424.0002 328.2165 424 328.2167 C423.9999 328.2168 423 310.2167 423 310.2167 C423 310.2167 423 322.2167 423 322.2167 "/>
<path id="55" d="M437 310.2167 C437 310.2167 435.005 310.1817 435 310.2167 C434.755 311.9317 434.3 322.8167 435 324.2167 C435.175 324.5667 441.9052 324.4696 442 324.2167 C442.5645 322.7113 441.0009 308.2185 441 308.2167 C440.9995 308.2156 439.396 313.2665 439 318.2167 C438.4153 325.5249 439 333.2167 439 333.2167 C439 333.2167 438.5392 325.7509 439 323.2167 C439.0628 322.8711 440.9076 322.5863 441 322.2167 C441.4312 320.4918 441.0002 315.2161 441 315.2167 C440.9994 315.2181 436.927 330.9754 437 332.2167 C437.0013 332.2384 441.0132 332.7805 442 332.2167 C442.8458 331.7333 443.8896 329.9825 444 328.2167 C444.3194 323.1064 443.0016 316.2167 443 316.2167 C442.9922 316.2167 438.0001 328.2167 438 328.2167 C437.9964 328.2152 437.9996 314.2162 438 314.2167 C438.0006 314.2174 442 333.2167 442 333.2167 C442 333.2167 439 317.2167 439 317.2167 "/>
<path id="56" d="M423 316.2167 C423 316.2167 423 334.2167 423 334.2167 C423 334.2166 421 314.2167 421 314.2167 C421 314.2166 420.9629 332.0311 421 332.2167 C421.0049 332.2414 423.6323 330.5956 424 329.2167 C425.187 324.7653 424.8575 317.5729 425 317.2167 C425.0092 317.1937 427.8364 318.4532 428 319.2167 C428.7428 322.6831 428.8299 328.3121 428 331.2167 C427.7827 331.9774 424.0063 333.2378 424 333.2167 C423.9072 332.9075 425.4515 326.8599 425 321.2167 C424.4985 314.9484 422 308.2167 422 308.2167 "/>
<path id="57" d="M478 307.2167 C478 307.2167 477.2399 323.2622 478 325.2167 C478.1149 325.5122 484.7478 325.613 485 325.2167 C485.6228 324.238 486.0289 318.5896 485 314.2167 C484.3507 311.4573 481.0055 308.2042 481 308.2167 C480.9804 308.2608 480.5332 321.4661 481 323.2167 C481.0332 323.3411 484.9253 323.4109 485 323.2167 C485.6499 321.527 486 310.2167 486 310.2167 C486 310.2167 485 324.2167 485 324.2167 C485 324.2166 485 307.2167 485 307.2167 "/>
<path id="58" d="M491 309.2167 C491 309.2167 490.4675 319.9386 491 321.2167 C491.0925 321.4386 495.893 321.4521 496 321.2167 C496.518 320.0771 496 310.2167 496 310.2167 C496 310.2167 496.3789 323.2315 496 324.2167 C495.975 324.2816 491.2886 323.7938 491 323.2167 C490.0519 321.3204 490 312.2166 490 312.2167 C490 312.2167 492.127 323.7723 493 326.2167 C493.0414 326.3325 494.9966 326.2457 495 326.2167 C495.2466 324.1207 495 309.2167 495 309.2167 "/>
<path id="59" d="M502 310.2167 C502 310.2167 503.3089 326.5383 504 328.2167 C504.0389 328.3111 508.8898 327.6133 509 327.2167 C509.784 324.3942 509 310.2167 509 310.2167 C509 310.2167 508.0033 325.2153 508 325.2167 C507.9994 325.2169 506.2332 317.7997 504 312.2167 C503.5717 311.1459 502.0043 310.2038 502 310.2167 C501.9743 310.2939 502 318.2167 502 318.2167 "/>
<path id="60" d="M490 310.2167 L492 322.2167 "/>
<path id="61" d="M486 309.2167 C486 309.2167 482.6764 311.3228 482 313.2167 C480.7095 316.8299 480.9006 322.2231 481 323.2167 C481.002 323.2367 482.9594 323.3282 483 323.2167 C483.6543 321.4173 485 312.2167 485 312.2167 "/>
</g>
</g>
</svg>
