<?xml version="1.0" encoding="utf-8"?>
<!DOCTYPE svg PUBLIC "-//W3C//DTD SVG 1.1//EN" "http://www.w3.org/Graphics/SVG/1.1/DTD/svg11.dtd">
<svg viewBox="0 0 800 800" preserveAspectRatio="xMinYMin meet" xmlns="http://www.w3.org/2000/svg" version="1.1">
<g fill="none" stroke="black" stroke-linecap="round" stroke-linejoin="round" stroke-width="2.0353">
<g transform="translate(87.52,169.3249) scale(1.474) translate(-58,-44)">
<path id="0" d="M58 209 C58 209 65.1208 209.6264 70 208 C74.3517 206.5494 74.8985 203.7578 79 202 C80.7722 201.2405 82.3672 202.9199 84 202 C112.9128 185.7111 115.8468 179.309 150 162 C262.1291 105.1727 378 53 378 53 "/>
<path id="1" d="M59 209 C59 209 78.8493 235.349 95 260 C96.7995 262.7466 95.6862 265.6862 97 267 C98.3138 268.3138 101.0405 269.4228 104 269 C138.8208 264.0256 143.5275 265.0217 181 255 C314.5928 219.2717 404.009 194.3298 448 177 C449.0701 176.5784 448.3096 163.0703 445 151 C440.0844 133.0724 436.501 133.1533 431 115 C426.6506 100.6469 429.6337 99.1118 425 85 C418.8758 66.349 416.7884 60.2817 409 48 C407.2916 45.306 403.6841 44.5019 399 44 C390.9632 43.1389 389.4927 43.4559 381 45 C373.5689 46.3511 372.6338 46.5687 366 50 C358.7679 53.7407 352 60 352 60 "/>
<path id="2" d="M107 273 C107 273 112.7992 277.4986 116 283 C128.2647 304.0799 134.3613 321.122 139 328 C139.1569 328.2326 145 326 145 326 "/>
<path id="3" d="M447 174 C447 174 447.7032 180.0236 450 185 C456.4767 199.0328 459.6922 199.2622 465 213 C467.6343 219.8181 467 229 467 229 "/>
<path id="4" d="M145 331 C145 331 163.2712 331.9206 181 330 C222.8815 325.4628 223.6464 325.3846 265 318 C279.1274 315.4772 279.464 315.0311 293 310 C335.6695 294.1405 336.4479 294.6721 378 276 C415.1383 259.3113 414.1745 255.9964 451 239 C465.7491 232.1927 479.1008 229.2563 482 228 C482.0108 227.9953 481 226 481 226 "/>
<path id="5" d="M159 320 C159 320 162.9168 349.2895 166 356 C166.4398 356.9573 172.5986 357.9448 176 357 C179.382 356.0606 182.9848 353.5379 184 351 C185.5448 347.1379 185.499 343.1624 184 337 C181.303 325.9125 178.1973 325.0128 175 314 C174.0014 310.5602 175.0891 306.0223 175 306 C174.5211 305.8803 166.7522 308.691 163 311 C162.2917 311.4359 162 314 162 314 "/>
<path id="6" d="M187 307 C187 307 199.8837 336.4983 205 346 C205.1697 346.3152 207.3488 346.5363 208 346 C213.5415 341.4364 217.7699 337.7408 222 332 C222.8698 330.8195 222.7246 328.9323 222 327 C220.0798 321.8793 217.6371 321.379 216 316 C214.4295 310.8398 216.6014 309.033 215 304 C213.4518 299.1341 210.2487 294.1498 209 294 C205.8506 293.6221 190 301 190 301 "/>
<path id="7" d="M233 295 C233 295 245.0987 328.4201 250 338 C250.2425 338.474 253.3642 338.8179 255 338 C259.9073 335.5464 261.0598 334.359 266 330 C269.331 327.0609 269.9442 326.6548 272 323 C274.1177 319.2351 275.3984 315.8593 275 314 C274.7003 312.6015 270.7739 311.8086 269 309 C265.4098 303.3155 266.2881 298.2881 263 295 C260.6983 292.6983 256.6982 292 252 292 C247.7289 292 242 295 242 295 "/>
<path id="8" d="M290 277 C290 277 290.8024 289.1775 294 300 C297.1284 310.5885 301.5255 320.5853 303 321 C304.9412 321.546 318.5738 313.9508 326 309 C326.8784 308.4144 327.3356 306.5104 327 305 C325.6574 298.9585 325.3907 297.1033 322 291 C318.25 284.25 316.5526 280.8971 312 278 C308.8517 275.9965 300 277 300 277 "/>
<path id="9" d="M334 260 C334 260 345.8667 287.5867 353 299 C353.666 300.0656 356.9032 300.6167 359 300 C363.6908 298.6203 365.0165 297.3223 370 294 C372.2149 292.5234 373.0131 291.9738 374 290 C375.0691 287.8617 375.633 285.2659 375 284 C373.9067 281.8134 370.528 281.4202 368 278 C362.4817 270.534 362.0926 262.5812 358 261 C349.6015 257.7551 324 261 324 261 "/>
<path id="10" d="M385 251 C385 251 400.7227 288.6567 401 289 C401.0433 289.0537 405.0728 282.5633 406 277 C406.855 271.8702 407.1735 269.0913 405 265 C400.0567 255.695 389 245 389 245 "/>
<path id="11" d="M410 237 C410 237 418.2442 263.1368 421 268 C421.1776 268.3135 424.9802 268.1782 427 267 C429.9146 265.2998 433.1364 262.2731 433 261 C432.4153 255.5426 429.4105 248.9192 424 239 C420.8012 233.1356 417.4642 230.0535 415 228 C414.7061 227.7551 412 229 412 229 "/>
<path id="12" d="M441 226 C441 226 454.328 271.1988 455 272 C455.0574 272.0685 462.5986 264.11 467 257 C468.2989 254.9017 468.6773 251.8128 468 251 C464.6789 247.0146 458.1342 245.6454 452 239 C447.0997 233.6913 444 225 444 225 "/>
</g>
</g>
</svg>
