<?xml version="1.0" encoding="utf-8"?>
<!DOCTYPE svg PUBLIC "-//W3C//DTD SVG 1.1//EN" "http://www.w3.org/Graphics/SVG/1.1/DTD/svg11.dtd">
<svg viewBox="0 0 800 800" preserveAspectRatio="xMinYMin meet" xmlns="http://www.w3.org/2000/svg" version="1.1">
<g fill="none" stroke="black" stroke-linecap="round" stroke-linejoin="round" stroke-width="0.93606">
<g transform="translate(87.52,116.3643) scale(3.2049) translate(-108,-188)">
<path id="0" d="M125 246 C125 246 137.8467 245.18 145 240 C163.8256 226.3677 163.1635 219.8072 183 204 C194.2893 195.0038 196.6544 191.9929 209 189 C225.7637 184.9361 238.3266 183.9975 249 188 C255.532 190.4495 261.5758 199.9415 265 210 C268.1189 219.1618 263.9436 223.3793 265 235 C265.3496 238.8454 265.7931 240.2838 268 243 C271.4095 247.1963 274.4868 246.3158 278 251 C288.6528 265.2037 292.4795 268.7629 298 283 C300.3068 288.9492 299.4197 296.8889 297 300 C293.5216 304.4722 277 310 277 310 "/>
<path id="1" d="M277 310 C277 310 270.8381 310.0622 266 308 C241.4145 297.521 241.1368 294.3302 216 284 C205.3068 279.6055 204.112 281.7828 193 278 C180.8401 273.8604 180.1 273.8583 169 268 C162.6496 264.6484 162.8107 260.9974 157 259 C149.0358 256.2623 145.1717 259.7239 137 257 C130.6736 254.8912 124 248 124 248 "/>
<path id="2" d="M125 252 C125 252 124.2078 265.1882 123 267 C122.6056 267.5916 117.9607 266.0131 115 267 C111.7926 268.0691 108 272 108 272 "/>
<path id="3" d="M108 272 C108 272 111.2195 276.6123 115 279 C120.0174 282.1689 123.6678 281.6931 127 284 C127.8123 284.5624 127.3754 287.5539 128 288 C129.0873 288.7766 132.9127 288.2234 134 289 C134.6246 289.4461 134.2137 292.5597 135 293 C142.1838 297.0229 146.7947 299.7961 159 303 C185.9948 310.0861 188.3241 306.2554 215 314 C233.7676 319.4487 252 330 252 330 "/>
<path id="4" d="M252 330 C252 330 264.1135 325.9645 266 323 C267.7787 320.2049 266 308 266 308 "/>
<path id="5" d="M129 267 L121 275 "/>
<path id="6" d="M137 281 L133 282 "/>
<path id="7" d="M158 288 L155 289 "/>
<path id="8" d="M169 296 L160 301 "/>
<path id="9" d="M212 302 L204 306 "/>
<path id="10" d="M199 304 C199 304 194.5388 303.7845 194 304 C193.9138 304.0345 194 306 194 306 "/>
<path id="11" d="M185 303 L182 303 "/>
<path id="12" d="M226 310 L223 309 "/>
<path id="13" d="M236 315 L231 320 "/>
<path id="14" d="M256 329 C256 329 272.0796 329.2781 284 326 C289.8723 324.3851 293.2026 321.6581 296 318 C297.5903 315.9204 295.6886 311.8414 297 309 C297.8743 307.1058 301.4011 306.7966 302 305 C303.5148 300.4557 303 291 303 291 "/>
<path id="15" d="M262 332 C262 332 262 356 262 356 C262 356 263 336 263 336 "/>
<path id="16" d="M114 296 L114 320 "/>
<path id="17" d="M144 319 C144 319 149.8712 317.7832 153 319 C157.0752 320.5848 157.1867 323.4518 162 326 C173.6766 332.1817 186.4453 335.7519 187 337 C187.2565 337.577 176.8787 352.8037 174 353 C167.848 353.4195 154.513 345.931 143 340 C141.7599 339.3611 142.2091 336.8464 141 336 C138.4559 334.2191 135.9936 334.905 133 333 C131.3247 331.9339 129.8711 329.7089 130 329 C130.2951 327.3771 132.1758 324.5889 135 322 C137.6387 319.5812 140.4611 319.5389 142 318 C142.4197 317.5803 142 315 142 315 C142.6348 315 152 318 152 318 "/>
<path id="18" d="M190 338 L190 358 "/>
<path id="19" d="M175 356 L175 365 "/>
<path id="20" d="M133 334 L133 346 "/>
<path id="21" d="M118 305 C118 305 116.9637 290.0178 118 280 C118.1787 278.2728 121 276 121 276 "/>
<path id="22" d="M120 268 C120 268 130.0679 269.356 132 270 C132.1017 270.0339 131.8214 271.9107 132 272 C134.9466 273.4733 142.2233 274.734 146 277 C146.7553 277.4532 146.3434 280.7015 147 281 C152.5286 283.513 158.0547 283.2705 168 287 C173.6678 289.1254 173.321 291.314 179 293 C204.2641 300.5003 207.7699 297.1891 232 306 C244.3631 310.4957 256 321 256 321 "/>
</g>
</g>
</svg>
