<?xml version="1.0" encoding="utf-8"?>
<!DOCTYPE svg PUBLIC "-//W3C//DTD SVG 1.1//EN" "http://www.w3.org/Graphics/SVG/1.1/DTD/svg11.dtd">
<svg viewBox="0 0 800 800" preserveAspectRatio="xMinYMin meet" xmlns="http://www.w3.org/2000/svg" version="1.1">
<g fill="none" stroke="black" stroke-linecap="round" stroke-linejoin="round" stroke-width="1.3345">
<g transform="translate(125.737,87.52) scale(2.2481) translate(-87,-76)">
<path id="0" d="M107 76 L299 76 "/>
<path id="1" d="M87 112 L319 113 "/>
<path id="2" d="M108 78 C108 78 105.8482 84.5694 103 89 C101.8836 90.7366 99.801 90.3251 99 92 C95.1933 99.9595 92 112 92 112 "/>
<path id="3" d="M320 114 C320 114 315.8421 102.2983 311 91 C308.3729 84.8701 307.7539 82.9779 305 79 C304.4754 78.2423 302 78 302 78 "/>
<path id="4" d="M117 204 C117 204 120.1934 188.6627 117 177 C109.5136 149.6585 104.2879 147.863 94 120 C92.6853 116.4394 93 112 93 112 "/>
<path id="5" d="M319 114 C319 114 311.0172 119.97 307 127 C299.746 139.6945 300.5209 141.386 295 156 C292.0548 163.7961 291.0567 164.1802 290 172 C288.6692 181.8476 290 193 290 193 "/>
<path id="6" d="M106 204 L304 204 "/>
<path id="7" d="M294 205 L289 193 "/>
<path id="8" d="M107 204 C107 204 99.9086 212.8186 93 219 C91.2894 220.5305 88 221 88 221 "/>
<path id="9" d="M317 225 C317 225 317.1157 220.5939 316 219 C314.6345 217.0493 311.9074 217.3843 310 215 C306.5753 210.7192 304 204 304 204 "/>
<path id="10" d="M90 222 L90 240 "/>
<path id="11" d="M117 208 C117 208 110.7461 208.9047 109 211 C105.2368 215.5158 104.4298 222.6866 102 226 C101.646 226.4827 98.0235 225.8941 98 226 C97.5235 228.1441 98 244 98 244 "/>
<path id="12" d="M310 224 L297 210 "/>
<path id="13" d="M312 225 L312 241 "/>
<path id="14" d="M318 224 L318 241 "/>
<path id="15" d="M98 245 L312 245 "/>
<path id="16" d="M91 240 C91 240 89.9514 250.9977 90 251 C113.7251 252.1396 300.6609 251.933 320 251 C320.1235 250.994 318 240 318 240 "/>
<path id="17" d="M109 230 L299 230 "/>
<path id="18" d="M108 231 C108 231 105.5924 235.6351 104 237 C103.4775 237.4479 101.2663 236.6805 101 237 C100.1835 237.9798 99 243 99 243 "/>
<path id="19" d="M299 232 C299 232 300.68 242.24 302 244 C302.4169 244.5558 308 244 308 244 "/>
<path id="20" d="M119 230 L109 242 "/>
<path id="21" d="M125 233 C125 233 126.4014 236.1972 126 237 C124.9678 239.0643 120 243 120 243 "/>
<path id="22" d="M137 232 L135 242 "/>
<path id="23" d="M147 233 L141 244 "/>
<path id="24" d="M152 233 L150 242 "/>
<path id="25" d="M162 231 L160 243 "/>
<path id="26" d="M171 232 L171 243 "/>
<path id="27" d="M179 235 L180 244 "/>
<path id="28" d="M188 232 L188 242 "/>
<path id="29" d="M192 231 C192 231 193.9485 231.6656 194 232 C194.4722 235.069 194 244 194 244 "/>
<path id="30" d="M201 230 L201 240 "/>
<path id="31" d="M212 235 L212 246 "/>
<path id="32" d="M220 234 C220 234 221.9932 233.9595 222 234 C222.2432 235.4595 222 246 222 246 "/>
<path id="33" d="M227 233 L228 242 "/>
<path id="34" d="M235 232 L235 246 "/>
<path id="35" d="M240 231 L247 247 "/>
<path id="36" d="M248 235 L257 247 "/>
<path id="37" d="M258 234 L266 250 "/>
<path id="38" d="M268 237 L273 244 "/>
<path id="39" d="M274 232 C274 232 276.9149 231.8014 277 232 C278.0121 234.3615 280 246 280 246 "/>
<path id="40" d="M286 234 C286 234 285.758 243.669 286 245 C286.008 245.044 288 245 288 245 "/>
<path id="41" d="M293 230 L293 241 "/>
<path id="42" d="M94 253 C94 253 98.645 261.5005 100 270 C103.984 294.9908 102.8046 296.0944 105 322 C105.2931 325.4591 105.2311 328.191 105 329 C104.9811 329.066 103.095 328.8099 103 329 C100.4817 334.0367 93.5162 349.9006 94 351 C94.3164 351.7191 112.7101 354.8599 114 354 C114.8838 353.4108 113.284 343.5779 115 337 C115.7262 334.2164 118.782 333.6796 120 331 C120.7361 329.3805 119.4803 326.3898 120 326 C122.0789 324.4408 126.2656 322.124 132 322 C214.0797 320.2253 277.4834 319.6414 305 322 C305.5226 322.0448 304.8896 331.4603 307 337 C308.1094 339.9121 310.1457 342.0486 313 343 C319.6601 345.22 329.3981 345.445 331 345 C331.1786 344.9504 332.0896 339.937 331 338 C328.8111 334.1086 324.4086 333.8171 322 329 C316.8261 318.6521 315.6026 316.3396 314 304 C310.7837 279.2346 312 252 312 252 "/>
<path id="43" d="M92 119 L318 119 "/>
<path id="44" d="M115 80 C115 80 110.325 81.123 109 83 C105.6607 87.7307 106.8185 90.7699 103 97 C97.6068 105.7995 90 114 90 114 "/>
</g>
</g>
</svg>
