<?xml version="1.0" encoding="utf-8"?>
<!DOCTYPE svg PUBLIC "-//W3C//DTD SVG 1.1//EN" "http://www.w3.org/Graphics/SVG/1.1/DTD/svg11.dtd">
<svg viewBox="0 0 800 800" preserveAspectRatio="xMinYMin meet" xmlns="http://www.w3.org/2000/svg" version="1.1">
<g fill="none" stroke="black" stroke-linecap="round" stroke-linejoin="round" stroke-width="1.1953">
<g transform="translate(87.52,93.7947) scale(2.5099) translate(-125.5,-130.6667)">
<path id="0" d="M125.5 299.6667 L126.5 343.6667 "/>
<path id="1" d="M125.5 299.6667 L143.5 298.6667 "/>
<path id="2" d="M143.5 300.6667 L261.5 299.6667 "/>
<path id="3" d="M126.5 344.6667 C126.5 344.6667 151.0524 346.1032 175.5 345.6667 C234.93 344.6054 294.5 341.6667 294.5 341.6667 "/>
<path id="4" d="M262.5 300.6667 L297.5 300.6667 "/>
<path id="5" d="M297.5 300.6667 L296.5 343.6667 "/>
<path id="6" d="M299.5 302.6667 C299.5 302.6667 310.3797 292.4399 320.5 281.6667 C325.8161 276.0075 326.7826 275.4117 330.5 269.6667 C331.6365 267.9102 330.994 265.2991 331.5 264.6667 C331.7094 264.405 333.8544 265.1509 334.5 264.6667 C336.5446 263.1333 339.5 258.6667 339.5 258.6667 "/>
<path id="7" d="M339.5 258.6667 L341.5 282.6667 "/>
<path id="8" d="M296.5 341.6667 C296.5 341.6667 301.5528 332.0274 306.5 325.6667 C307.5634 324.2994 309.9361 324.5125 310.5 323.6667 C310.9833 322.9417 309.7519 320.6252 310.5 319.6667 C322.0911 304.8155 342.5 282.6667 342.5 282.6667 "/>
<path id="9" d="M126.5 298.6667 C126.5 298.6667 126.2328 294.1867 127.5 290.6667 C130.5134 282.296 130.8431 281.7103 135.5 273.6667 C147.2271 253.4107 146.6897 252.1724 160.5 233.6667 C171.2495 219.2623 174.6005 220.8065 185.5 206.6667 C192.6256 197.4226 190.8852 194.9273 197.5 185.6667 C200.344 181.685 202.4917 182.625 205.5 178.6667 C211.5627 170.6895 209.783 167.8751 216.5 160.6667 C229.3287 146.8993 231.7593 144.2802 246.5 134.6667 C252.3417 130.8569 254.7913 131.4641 262.5 130.6667 C268.5568 130.0401 270.4755 129.7825 275.5 131.6667 C280.7593 133.6389 281.1616 136.8404 286.5 139.6667 C288.7879 140.8779 291.7114 139.663 292.5 140.6667 C294.8363 143.6401 296.1901 147.3789 297.5 153.6667 C298.5262 158.5924 299.0278 160.1923 297.5 164.6667 C292.6692 178.8141 287.1313 180.1414 283.5 194.6667 C280.221 207.7828 280.8851 216.5921 282.5 224.6667 C282.8577 226.455 287.2999 226.619 290.5 229.6667 C297.3419 236.1828 296.2438 239.32 303.5 244.6667 C313.9317 252.3532 316.1305 252.652 328.5 257.6667 C333.7349 259.7889 340.5 259.6667 340.5 259.6667 "/>
<path id="10" d="M135.5 346.6667 C135.5 346.6667 134.5755 371.4308 135.5 374.6667 C135.5755 374.9308 143.1628 375.2929 143.5 374.6667 C145.7883 370.417 149.5 348.6667 149.5 348.6667 "/>
<path id="11" d="M260.5 343.6667 C260.5 343.6667 261.7817 367.9658 263.5 371.6667 C263.7714 372.2513 272.7735 372.6758 273.5 371.6667 C276.6039 367.3556 281.5 346.6667 281.5 346.6667 "/>
<path id="12" d="M300.5 340.6667 L332.5 341.6667 "/>
<path id="13" d="M343.5 284.6667 L371.5 285.6667 "/>
<path id="14" d="M332.5 341.6667 C332.5 341.6667 333.3263 337.3621 335.5 334.6667 C345.1328 322.722 348.1481 323.2333 357.5 310.6667 C363.6251 302.4361 362.3331 299.2448 367.5 291.6667 C368.7826 289.7855 372.5 288.6667 372.5 288.6667 "/>
<path id="15" d="M298.5 344.6667 L333.5 344.6667 "/>
<path id="16" d="M334.5 344.6667 C334.5 344.6667 334.635 340.6758 335.5 339.6667 C336.4282 338.5837 339.4123 339.1169 340.5 337.6667 C345.3235 331.2353 346.1329 326.0494 350.5 319.6667 C351.0366 318.8824 353.058 319.4034 353.5 318.6667 C357.3518 312.247 357.2892 308.2491 362.5 299.6667 C365.4515 294.8054 366.6883 293.8431 370.5 290.6667 C371.6886 289.6762 374.5 289.6667 374.5 289.6667 "/>
<path id="17" d="M306.5 332.6667 L320.5 332.6667 "/>
<path id="18" d="M312.5 322.6667 L325.5 322.6667 "/>
<path id="19" d="M320.5 311.6667 L333.5 312.6667 "/>
<path id="20" d="M330.5 300.6667 L340.5 300.6667 "/>
<path id="21" d="M338.5 291.6667 L349.5 291.6667 "/>
<path id="22" d="M329.5 305.6667 L339.5 305.6667 "/>
</g>
</g>
</svg>
