<?xml version="1.0" encoding="utf-8"?>
<!DOCTYPE svg PUBLIC "-//W3C//DTD SVG 1.1//EN" "http://www.w3.org/Graphics/SVG/1.1/DTD/svg11.dtd">
<svg viewBox="0 0 800 800" preserveAspectRatio="xMinYMin meet" xmlns="http://www.w3.org/2000/svg" version="1.1">
<g fill="none" stroke="black" stroke-linecap="round" stroke-linejoin="round" stroke-width="1.5073">
<g transform="translate(87.52,134.2925) scale(1.9903) translate(-88,-69)">
<path id="0" d="M99 76 C99 76 97.5808 142.7591 98 209 C98.0788 221.4582 100 234 100 234 "/>
<path id="1" d="M102 76 C102 76 106.1743 71.7238 110 71 C122.5636 68.6231 126.1686 66.8614 139 69 C156.5313 71.9219 159.0746 73.6636 176 82 C191.5402 89.6541 191.6999 91.1918 206 102 C234.5302 123.5635 234.2193 126.573 262 147 C266.8884 150.5944 267.9388 150.5645 274 152 C286.3886 154.9341 287.1864 155.6949 300 156 C328.4565 156.6775 331.0214 156.0753 358 154 C361.3545 153.742 362.2617 153.1515 365 151 C375.5141 142.7389 386 132 386 132 "/>
<path id="2" d="M104 236 C104 236 143.0399 239.7351 182 241 C219.8823 242.2299 220.0146 241.4549 258 241 C303.4945 240.4552 304.1314 242.0592 349 239 C369.4203 237.6077 380.0822 235.8319 390 232 C391.5576 231.3982 392.5936 226.8773 393 222 C394.031 209.6284 393.5631 208.9517 393 196 C391.5668 163.0359 389 130 389 130 "/>
<path id="3" d="M101 212 C101 212 118.6143 210.3846 136 211 C174.8726 212.376 175.0401 214.6566 214 216 C247.3917 217.1514 247.6163 217.3055 281 216 C336.9421 213.8123 393 209 393 209 "/>
<path id="4" d="M99 78 C99 78 96.4068 100.0307 96 122 C94.9103 180.8432 98.2677 181.3243 96 240 C94.2837 284.4091 88 329 88 329 "/>
<path id="5" d="M391 133 L402 336 "/>
<path id="6" d="M390 231 C390 231 386.9693 256.0398 386 281 C384.9757 307.3759 386 334 386 334 "/>
<path id="7" d="M107 232 L106 325 "/>
<path id="8" d="M108 207 L110 233 "/>
<path id="9" d="M124 213 L126 235 "/>
<path id="10" d="M138 218 C138 218 140 236.0001 140 236 C140 235.9999 139.2774 216.5161 140 212 C140.0494 211.6914 143.0888 210.6583 144 211 C145.3825 211.5184 147.7575 213.363 148 215 C149.2146 223.1984 148.7022 235.3082 148 238 C147.9522 238.1832 142.675 238.225 142 238 C141.925 237.975 142 236 142 236 "/>
<path id="11" d="M126 212 C126 212 121.1356 213.3219 121 214 C119.9602 219.1991 120.4032 234.2547 121 237 C121.0282 237.1297 126 237 126 237 "/>
<path id="12" d="M110 211 C110 211 105.2332 211.4336 105 212 C103.7173 215.1151 103 220.7638 103 228 C103 230.7136 104.0991 233.3243 105 234 C105.8316 234.6237 111 234 111 234 "/>
<path id="13" d="M173 213 C173 213 168.6033 212.2874 167 213 C165.7233 213.5674 164.2483 215.2 164 217 C162.586 227.2516 162.7718 239.1473 163 242 C163.0022 242.0275 165.5611 242.4389 166 242 C167.902 240.098 170.8942 237.0674 171 234 C171.27 226.1698 167 213 167 213 "/>
<path id="14" d="M195 218 C195 218 190.8662 217.5669 190 218 C189.5669 218.2166 189.0627 219.5581 189 221 C188.588 230.4755 188.5964 231.3132 189 241 C189.0816 242.9575 189.5368 244.7684 190 245 C191.0807 245.5404 196.7122 245.4111 197 245 C197.5872 244.1611 198.0269 239.4497 197 235 C195.2148 227.2643 191 219 191 219 "/>
<path id="15" d="M235 216 C235 216 222.658 215.0788 222 216 C220.4106 218.2251 219.5786 233.9095 220 237 C220.0342 237.2508 222.5242 237.7749 225 238 C227.9179 238.2653 230.625 238.375 231 238 C231.375 237.625 231.8241 234.4723 231 232 C228.1614 223.4843 223 214 223 214 "/>
<path id="16" d="M256 215 C256 215 252.6897 218.7238 252 222 C250.9446 227.0133 250.9446 228.9867 252 234 C252.6897 237.2762 254.5897 240.2308 256 241 C257.1643 241.6351 262.6758 240.6021 263 240 C263.8158 238.485 264.2674 233.2507 263 228 C261.0261 219.8223 256 211 256 211 "/>
<path id="17" d="M297 214 C297 214 290.175 213.65 290 214 C289.3 215.4 288.918 221.7785 290 228 C290.7493 232.3087 292.8142 236.3083 294 237 C294.876 237.511 301.1269 235.9822 302 235 C302.6708 234.2454 302.819 230.2521 302 228 C301.3619 226.2451 298.9106 226.0815 298 224 C295.8917 219.1809 295 212 295 212 "/>
<path id="18" d="M328 212 C328 212 324.2687 216.5065 324 220 C323.4227 227.5046 324.6817 235.8428 326 238 C326.3772 238.6172 334.0606 238.4175 335 238 C335.1856 237.9175 335.6387 235.5436 335 234 C330.215 222.4364 323 209 323 209 "/>
<path id="19" d="M367 210 C367 210 361.393 211.1486 361 212 C360.0936 213.9638 359.8881 218.3301 361 223 C362.1311 227.7508 364.8319 231.6859 366 233 C366.1348 233.1516 368.979 232.2521 369 232 C369.3852 227.3774 369.6376 218.1708 368 209 C367.5963 206.7391 364 204 364 204 "/>
</g>
</g>
</svg>
