<?xml version="1.0" encoding="utf-8"?>
<!DOCTYPE svg PUBLIC "-//W3C//DTD SVG 1.1//EN" "http://www.w3.org/Graphics/SVG/1.1/DTD/svg11.dtd">
<svg viewBox="0 0 800 800" preserveAspectRatio="xMinYMin meet" xmlns="http://www.w3.org/2000/svg" version="1.1">
<g fill="none" stroke="black" stroke-linecap="round" stroke-linejoin="round" stroke-width="1.3537">
<g transform="translate(91.9523,87.52) scale(2.2162) translate(-141,-78.1333)">
<path id="0" d="M298 105.1333 C298 105.1333 274.2858 103.0323 253 104.1333 C246.7457 104.4568 245.7927 105.237 240 108.1333 C230.3456 112.9606 227.3371 113.1625 221 120.1333 C214.289 127.5155 212.5083 130.9074 210 141.1333 C206.5611 155.1533 211.2257 158.0233 208 173.1333 C201.9688 201.3848 201.1627 202.7249 191 230.1333 C184.9103 246.557 184.0561 247.1342 175 262.1333 C168.3351 273.1721 167.6736 273.6204 159 283.1333 C152.4984 290.2641 147.6929 289.7734 144 296.1333 C140.6418 301.9168 140.4802 307.3762 141 314.1333 C141.2453 317.3217 143.0562 318.9631 146 322.1333 C149.1267 325.5006 149.7187 326.2603 154 328.1333 C172.7621 336.3418 173.8228 336.7919 194 343.1333 C208.5302 347.7 208.9049 347.374 224 350.1333 C255.2851 355.8521 255.694 357.7795 287 360.1333 C321.3743 362.7179 323.4944 363.2647 357 360.1333 C375.1574 358.4364 378.5874 357.2688 394 350.1333 C402.865 346.0292 404.275 343.2033 411 335.1333 C415.9957 329.1385 417.6892 326.6873 419 320.1333 C420.1529 314.369 419.6669 308.7828 417 305.1333 C413.2053 299.9406 406.3689 300.6952 400 294.1333 C391.0767 284.9397 389.8432 283.2692 384 271.1333 C370.8545 243.8312 369.1248 242.5077 361 213.1333 C349.9637 173.2327 353.8369 170.9513 345 130.1333 C343.4585 123.0132 343.1011 122.3355 340 116.1333 C338.4025 112.9383 337.8211 112.0141 335 110.1333 C329.6713 106.5809 328.2527 105.0266 322 104.1333 C305.6913 101.8035 286 103.1333 286 103.1333 "/>
<path id="1" d="M147 296.1333 C147 296.1333 159.6613 291.6432 172 291.1333 C218.9922 289.1915 220.353 289.4437 268 291.1333 C290.4225 291.9285 290.6148 295.3809 313 296.1333 C349.6576 297.3655 350.7371 294.0001 387 295.1333 C397.8467 295.4723 399.5833 296.3432 409 299.1333 C411.5121 299.8777 414 303.1333 414 303.1333 "/>
<path id="2" d="M258 293.1333 L255 301.1333 "/>
<path id="3" d="M285 295.1333 L284 305.1333 "/>
<path id="4" d="M255 302.1333 C255 302.1333 248.704 301.9936 245 303.1333 C243.5903 303.5671 242.237 304.8296 242 306.1333 C240.7175 313.187 238.8722 320.5737 241 325.1333 C243.0666 329.5617 249.1696 334.3008 256 336.1333 C265.893 338.7875 270.6199 337.9302 282 336.1333 C287.667 335.2385 291.8761 333.2483 294 330.1333 C296.7025 326.1697 298.1671 318.4684 297 314.1333 C296.0249 310.5116 287 304.1333 287 304.1333 "/>
<path id="5" d="M277 103.1333 C277 103.1333 277.7034 90.3355 280 82.1333 C280.5384 80.2105 282.2515 78.7162 284 78.1333 C286.6228 77.2591 291.3579 77.2415 292 78.1333 C295.5895 83.1188 302 103.1333 302 103.1333 "/>
</g>
</g>
</svg>
