<?xml version="1.0" encoding="utf-8"?>
<!DOCTYPE svg PUBLIC "-//W3C//DTD SVG 1.1//EN" "http://www.w3.org/Graphics/SVG/1.1/DTD/svg11.dtd">
<svg viewBox="0 0 800 800" preserveAspectRatio="xMinYMin meet" xmlns="http://www.w3.org/2000/svg" version="1.1">
<g fill="none" stroke="black" stroke-linecap="round" stroke-linejoin="round" stroke-width="1.5025">
<g transform="translate(148.4187,87.52) scale(1.9967) translate(-147,-61)">
<path id="0" d="M173 90 C173 90 160.1117 101.8106 155 114 C148.2994 129.9783 148.8566 133.2021 147 152 C144.9419 172.838 144.2289 174.4144 147 195 C151.0526 225.1051 154.9568 225.4485 161 256 C163.918 270.7519 164.0949 271.066 165 286 C166.0774 303.7772 167.5594 305.3636 165 322 C162.8288 336.1125 157.8769 336.903 155 351 C153.1463 360.0829 154.9575 370.8809 155 371 C155.009 371.0251 160 365 160 365 "/>
<path id="1" d="M174 89 C174 89 178.8232 83.7497 183 83 C195.5091 80.7548 199.4325 79.704 213 82 C229.8422 84.8502 235.3664 85.7396 248 94 C257.2541 100.0507 257.8629 104.3634 265 116 C280.5801 141.4023 278.7637 143.0659 294 169 C302.1742 182.9136 301.6867 184.5147 312 196 C322.8351 208.0663 324.3746 210.2789 338 218 C352.4519 226.1894 356.0167 223.3728 372 230 C375.7208 231.5428 375.7446 232.2586 379 235 C385.1745 240.1996 386.8622 240.0002 391 246 C396.0482 253.3199 399 264 399 264 "/>
<path id="2" d="M155 374 C155 374 172.1215 358.9672 187 343 C192.2319 337.3852 190.8993 335.8042 196 330 C205.1664 319.5693 205.4907 319.2277 216 310 C225.8064 301.3895 225.9969 300.9493 237 294 C254.2028 283.1351 254.7996 283.4372 273 274 C281.6932 269.4924 281.8139 268.9995 291 266 C305.9796 261.1087 306.7832 259.1377 322 258 C358.5995 255.2636 398 258 398 258 "/>
<path id="3" d="M155 372 C155 372 163.4393 373.0081 171 372 C177.8677 371.0843 178.6738 371.0653 185 368 C226.2147 348.03 225.831 344.3977 268 325 C300.396 310.0978 302.3418 313.3452 335 299 C355.4994 289.9956 357.4289 289.9233 375 278 C383.9186 271.9481 391 261 391 261 "/>
<path id="4" d="M154 365 C154 365 157.2989 354.4277 163 346 C179.8227 321.1317 180.0101 319.0784 200 297 C212.639 283.0405 214.5548 283.1731 230 272 C237.5518 266.537 238.2547 266.2126 247 263 C262.2055 257.4143 262.9438 257.1626 279 254 C295.5388 250.7423 296.4232 252.8216 313 250 C319.5392 248.8869 319.7052 246.3109 326 246 C358.434 244.3983 394 246 394 246 "/>
<path id="5" d="M253 289 C253 289 259.647 297.411 260 302 C260.3289 306.2762 256.3099 308.7122 255 315 C253.9738 319.9257 254.459 325.3988 255 326 C255.3492 326.388 261.1559 326.6466 264 325 C268.6882 322.2858 268.5811 318.0282 274 315 C284.0915 309.3607 293.2606 309.1596 298 306 C298.7372 305.5085 298.2352 299.0686 298 299 C295.2352 298.1936 280.098 301.8796 274 299 C268.9113 296.597 262 282 262 282 "/>
<path id="6" d="M162 71 C162 71 160.0705 71.6476 160 72 C159.5469 74.2656 158.8856 79.4398 160 81 C161.5036 83.105 165.2639 84.607 170 86 C172.8902 86.8501 177 86 177 86 "/>
<path id="7" d="M163 71 C163 71 162.5143 68.5397 163 68 C165.4447 65.2837 168.3936 61.784 172 61 C176.6496 59.9892 181.7876 61.2655 186 63 C187.4376 63.5919 188.5355 65.6777 189 68 C189.8294 72.147 189.7854 75.6438 189 78 C188.7382 78.7854 186.0238 78.8056 185 80 C183.7337 81.4773 183 85 183 85 "/>
<path id="8" d="M179 138 C179 138 176.4837 152.5665 179 165 C184.6328 192.8329 190.4445 193.6668 196 222 C200.1978 243.4087 199 267 199 267 "/>
<path id="9" d="M221 125 C221 125 224.6087 124.2642 227 125 C230.2804 126.0094 230.8667 126.6187 234 129 C243.1752 135.9732 246.5258 135.4154 252 144 C266.5919 166.8827 263.7971 172.8717 278 198 C282.6205 206.1746 291 213 291 213 "/>
</g>
</g>
</svg>
