<?xml version="1.0" encoding="utf-8"?>
<!DOCTYPE svg PUBLIC "-//W3C//DTD SVG 1.1//EN" "http://www.w3.org/Graphics/SVG/1.1/DTD/svg11.dtd">
<svg viewBox="0 0 800 800" preserveAspectRatio="xMinYMin meet" xmlns="http://www.w3.org/2000/svg" version="1.1">
<g fill="none" stroke="black" stroke-linecap="round" stroke-linejoin="round" stroke-width="1.4785">
<g transform="translate(179.8436,87.52) scale(2.0291) translate(-132,0)">
<path id="0" d="M135 288 C135 288 137.9745 289.4431 140 289 C152.1793 286.3358 153.4549 283.9799 167 281 C178.1431 278.5485 178.5658 278.2932 190 278 C236.5754 276.8058 238.6454 274.6153 284 278 C303.6599 279.4672 304.0152 283.9353 324 288 C333.2269 289.8766 335.3988 287.8717 343 290 C345.8757 290.8052 349.047 294.9954 349 295 C348.0831 295.0908 294.9089 295.5045 242 300 C219.0093 301.9535 218.8277 305.7454 196 308 C178.9244 309.6865 177.166 310.0956 161 308 C151.8051 306.8081 149.1849 305.7073 142 301 C136.5588 297.4351 133.0174 292.7305 132 289 C131.3845 286.7433 135.3454 283.9099 136 279 C138.1918 262.5613 135.028 260.4808 138 244 C140.3216 231.1256 141.4311 230.4305 147 218 C169.2622 168.3077 171.5074 168.7204 194 119 C199.8959 105.967 197.6732 104.1034 204 92 C208.6715 83.0633 211.0451 77.8286 217 75 C224.8974 71.2487 231.6786 71.7427 244 73 C254.4446 74.0658 255.5546 75.551 266 80 C282.2294 86.9125 283.0158 87.3841 298 96 C302.3734 98.5147 302.9517 99.0372 306 103 C312.5423 111.5049 313.5016 112.2534 318 122 C322.1741 131.0438 322.3856 131.9411 324 142 C328.7842 171.8094 328.4683 172.6197 331 203 C331.9455 214.3463 329.0533 215.1714 331 226 C336.8297 258.4276 347 292 347 292 "/>
<path id="1" d="M211 273 C211 273 206.138 295.9624 207 298 C207.2717 298.6422 217.3756 300.4074 222 299 C225.2836 298.0006 228.5903 294.8063 230 291 C232.5385 284.146 232 272 232 272 "/>
<path id="2" d="M235 71 C235 71 238.626 61.3434 240 52 C241.0443 44.8985 241.1837 43.8653 240 37 C238.8272 30.1978 236.1841 29.9072 235 23 C233.3127 13.1572 234 11.2004 234 2 C234 1.1238 234.7075 0.017725 235 0 C243.347 -0.50588 256.6413 -1.4387 267 0 C268.5196 0.21106 269.8956 2.3771 271 5 C273.5914 11.1546 274.0527 12.1321 275 19 C275.9765 26.0795 276.6249 27.5004 275 34 C272.4814 44.0744 269.3335 44.4441 266 55 C263.4907 62.9461 263.6109 63.7531 263 72 C262.6479 76.753 264 82 264 82 "/>
</g>
</g>
</svg>
