<?xml version="1.0" encoding="utf-8"?>
<!DOCTYPE svg PUBLIC "-//W3C//DTD SVG 1.1//EN" "http://www.w3.org/Graphics/SVG/1.1/DTD/svg11.dtd">
<svg viewBox="0 0 800 800" preserveAspectRatio="xMinYMin meet" xmlns="http://www.w3.org/2000/svg" version="1.1">
<g fill="none" stroke="black" stroke-linecap="round" stroke-linejoin="round" stroke-width="1.6801">
<g transform="translate(249.1168,87.52) scale(1.7856) translate(-208,-48.1333)">
<path id="0" d="M230 134.1333 C230 134.1333 231.2679 131.1522 233 130.1333 C238.672 126.7968 239.916 126.4103 247 124.1333 C253.6551 121.9942 254.1054 121.4206 261 121.1333 C289.3107 119.9537 290.4898 120.3069 319 121.1333 C324.4356 121.2909 326.0386 120.8111 330 123.1333 C338.7196 128.2448 342.3143 130.1733 348 138.1333 C353.1026 145.2769 353.2196 148.1632 355 158.1333 C358.0611 175.2753 357.7119 176.1761 358 194.1333 C359.2067 269.3534 355.851 274.6474 358 345.1333 C358.1872 351.2728 359.7583 352.2578 363 358.1333 C367.5398 366.3616 374 374.1333 374 374.1333 "/>
<path id="1" d="M227 138.1333 C227 138.1333 220.3064 148.5905 220 158.1333 C217.0002 251.557 224.6009 273.3178 220 356.1333 C219.5662 363.9409 208 374.1333 208 374.1333 "/>
<path id="2" d="M210 373.1333 C210 373.1333 224.2825 362.1977 239 355.1333 C248.3373 350.6514 249.8157 349.6751 260 349.1333 C294.8473 347.2798 298.1956 347.4852 333 350.1333 C342.2667 350.8384 343.7001 351.8712 352 356.1333 C361.2751 360.8962 361.4493 364.345 370 369.1333 C372.5571 370.5653 377 370.1333 377 370.1333 "/>
<path id="3" d="M209 379.1333 C209 379.1333 223.892 387.0887 238 389.1333 C256.5331 391.8193 278 389.1333 278 389.1333 "/>
<path id="4" d="M276 355.1333 C276 355.1333 274.3308 373.1138 276 386.1333 C276.4653 389.7624 278.1291 391.4833 281 394.1333 C283.7104 396.6353 285.2 397.2889 289 398.1333 C293.275 399.0833 295.758 399.4984 299 398.1333 C303.0099 396.445 304.3904 394.3446 308 390.1333 C309.9689 387.8363 310.8356 386.8465 311 384.1333 C311.7166 372.3096 310 357.1333 310 357.1333 "/>
<path id="5" d="M312 384.1333 C312 384.1333 317.6126 386.7189 323 387.1333 C336.4316 388.1665 338.4333 388.7444 351 387.1333 C356.2246 386.4635 357.3493 385.2338 362 382.1333 C365.7854 379.6097 369 375.1333 369 375.1333 "/>
<path id="6" d="M282 117.1333 C282 117.1333 282.1582 108.9749 285 103.1333 C290.5694 91.6851 291.3937 88.9855 300 80.1333 C307.4295 72.4916 310.4663 71.3043 320 67.1333 C324.6161 65.1138 332 66.1333 332 66.1333 "/>
<path id="7" d="M295 86.1333 C295 86.1333 299.895 70.7908 307 60.1333 C310.7614 54.4912 313.2475 52.2251 319 50.1333 C326.9932 47.2267 333.0067 47.8419 340 48.1333 C341.0448 48.1769 342.7649 49.8797 343 51.1333 C343.8578 55.7081 344.0558 59.6462 343 64.1333 C342.5987 65.8389 340.7586 67.4299 339 68.1333 C337.1158 68.887 333 68.1333 333 68.1333 "/>
<path id="8" d="M220 219.1333 C220 219.1333 239.1609 225.6195 258 227.1333 C294.1155 230.0355 298.666 230.9703 332 228.1333 C341.365 227.3363 343.0784 224.1294 352 219.1333 C354.7791 217.577 357 214.1333 357 214.1333 "/>
<path id="9" d="M223 255.1333 C223 255.1333 228.5132 260.5858 234 262.1333 C246.3183 265.6077 248.0861 265.618 262 266.1333 C301.5447 267.598 310.6225 270.6158 342 266.1333 C349.8444 265.0127 360 252.1333 360 252.1333 "/>
<path id="10" d="M229 257.1333 C229 257.1333 236.0369 249.7952 240 242.1333 C243.078 236.1826 243.7805 228.3284 244 228.1333 C244.0044 228.1294 247.5076 230.8852 249 234.1333 C255.5674 248.4271 260.7551 264.9741 261 265.1333 C261.0282 265.1517 263.8741 254.5892 269 247.1333 C274.1531 239.6379 280.9027 233.3753 283 233.1333 C284.4412 232.967 290.241 238.0418 295 244.1333 C302.2772 253.4482 306.9369 264.8357 308 265.1333 C308.455 265.2607 315.8939 258.3793 320 251.1333 C323.7178 244.5725 324.3678 235.7128 325 235.1333 C325.0777 235.0621 329.3778 237.1365 332 240.1333 C339.3658 248.5514 346 259.1333 346 259.1333 "/>
</g>
</g>
</svg>
