<?xml version="1.0" encoding="utf-8"?>
<!DOCTYPE svg PUBLIC "-//W3C//DTD SVG 1.1//EN" "http://www.w3.org/Graphics/SVG/1.1/DTD/svg11.dtd">
<svg viewBox="0 0 800 800" preserveAspectRatio="xMinYMin meet" xmlns="http://www.w3.org/2000/svg" version="1.1">
<g fill="none" stroke="black" stroke-linecap="round" stroke-linejoin="round" stroke-width="1.5889">
<g transform="translate(180.9808,87.52) scale(1.8881) translate(-156,-52)">
<path id="0" d="M269,52C269,52 273.3576133484193,74.10151131225721 275,96C276.33016691691574,113.73555889221012 273.86998227048434,116.55642436328624 275,132C275.1638372588864,134.239109204781 277.6723361446311,134.8701849401021 278,137C278.4707283556004,140.05973431140265 277.02676370777067,144.98929451689173 277,145C276.98980430180165,145.00407827927933 273.9230122772704,141.7690368318113 273,139C272.2448081367787,136.7344244103362 273,133 273,133"/>
<path id="1" d="M270,52C270,52 282.4715308003025,51.235765400151244 286,53C287.8176962543896,53.908848127194815 289.70328409089103,57.7717982951974 290,62C291.53462141270716,83.86835513107731 289.3017060154058,92.54265038514521 290,110C290.03025940599906,110.75648514997704 291.9069073375908,111.162166038317 292,112C293.433627001102,124.90264300991821 295.27231855061154,143.37584298936375 294,146C293.70234749504044,146.61390829147913 276,145 276,145"/>
<path id="2" d="M283,145C283,145 269.48578212932284,142.95399373086383 259,145C250.8905689020176,146.5823280191185 247.15095186670436,149.56603208886378 242,153C241.1543213353172,153.5637857764552 241.9754112984693,155.92704757168377 241,157C237.9834502436227,160.318204732015 234.30824456431358,159.9856616272807 232,164C224.21737664352585,177.53499714169416 222.09512225203426,180.42450517033757 218,197C211.9650134478734,221.42732652051254 216.41850032025584,224.13864558941432 211,249C208.14733803498865,262.08868431005203 207.37910198150917,267.345077622189 201,275C196.0453576842647,280.94557077888237 190.71249885616797,282.1884871732145 181,285C173.2411647068543,287.24597863748954 163,286 163,286"/>
<path id="3" d="M291,147C291,147 307.7300011167217,149.25079995533113 314,149C314.57994754068715,148.9768020983725 316.0042269478391,146.00422694783907 316,146C315.9873191564827,145.98731915648275 312.4824671185889,146.5175328814111 312,147C311.7105197288467,147.28948027115334 311.87671232876715,149.95376712328766 312,150C312.8767123287671,150.32876712328766 318.3247600296789,148.70549638657007 320,150C325.68249012660055,154.39101509782768 328.16274587489744,158.41580275720213 334,167C336.2098805209664,170.24982429553884 336.39149948213395,170.98389658208413 337,175C341.25077960330077,203.05514538178497 338.19315877404085,205.12716211539615 344,233C347.9756719535824,252.08322537719547 348.9626108886042,254.60372621275258 357,271C360.4202411463872,277.97729193862983 363.78924540902505,281.3946227045125 369,284C372.9432737445216,285.9716368722608 378.2304289688363,285.2551502713589 383,284C385.1516861794724,283.4337667948757 387.9958203932499,278.99860679774997 388,279C388,279 387.6110169929942,283.2650586229293 386,285C382.2653696980588,289.02190955593664 380.6800584368152,290.1599707815924 375,293C369.3199415631848,295.8400292184076 368.54650786929346,295.9441116339849 362,297C338.02709056847374,300.86659829540747 337.4012329523524,301.961649661602 313,303C267.4229238505521,304.9394500489127 265.9546586831698,304.937700805309 221,303C209.1673879084498,302.4899736167435 208.65390699796381,301.35790540619297 197,298C179.38326783585617,292.9239924272806 178.79092708406296,290.91441768314035 162,286C159.3840607582777,285.2343592463252 156.27,285.64 156,286C155.52,286.64 154.90995513652933,291.81991027305866 156,294C157.29442827537142,296.58885655074283 159.35031038718085,298.78343679572697 163,300C185.03331136627852,307.34443712209287 188.43576908618846,308.85279218338246 213,313C225.7069012365798,315.145320987994 226.8168651630289,311.72421275771245 240,313C257.3727571388042,314.68123456181973 257.629840727064,317.8156709586635 275,319C300.99949385397093,320.77269276277076 302.118464558934,320.6590727846837 328,319C340.36478773490694,318.2073854016085 341.4854806555029,317.99483324196836 353,314C365.12979900412665,309.7917023863234 366.31152990450385,308.8017536971339 377,302C381.9756671134206,298.8336663823687 384.13081550920185,296.9460561472405 386,293C387.4093057668716,290.0247989366044 386,283 386,283"/>
<path id="4" d="M251,315C251,315 246.06184917564403,320.87630164871194 243,327C240.79929590500586,331.4014081899883 240.34994061531577,332.10083138557934 240,337C238.42159652532402,359.0976486454638 237.30547285914855,378.12823447005206 239,383C239.21948161062457,383.63100963054563 248.14568936977665,383.9425172756268 256,383C259.8624727569804,382.5365032691623 262.0404821616389,382.09948339824404 264,380C267.2949854097282,376.4696584895769 267.8927779289538,374.0875304274668 270,368C272.2511580048608,361.4966546526243 272.6163522656814,360.9056592177341 273,354C274.0832406616054,334.50166809110373 273,314 273,314"/>
<path id="5" d="M257,146C257,146 245.20675901532772,170.52466660473718 231,192C224.20095223365766,202.27763034447096 214,211 214,211"/>
<path id="6" d="M281,152C281,152 271.8334364746391,166.33312705072188 266,178C265.3034702716849,179.39305945663023 266.7202248745424,180.7653287864987 266,182C260.9284165084305,190.6941431284049 259.3652154676117,192.30892701630043 252,202C240.40411246221976,217.25774676023718 240.4942955816323,217.5835050981166 228,232C221.1133803880767,239.9460995522192 220.35592242337978,241.04520565726398 213,247C210.93517967063022,248.6715212190136 207,249 207,249"/>
<path id="7" d="M313,154C313,154 295.1705804973518,183.80055835265551 277,210C274.5639839293391,213.51239526467387 272.6404773462684,212.56737944985105 270,216C263.0419853713197,225.04541901728442 264.4066927025382,226.9473755857867 257,236C242.20859291154844,254.0783864414408 239.7857368994729,253.18129142884035 225,271C220.72220470623614,276.1552917642795 222.2462551134804,278.14713701316526 218,283C212.31880350334345,289.4927959961789 210.94096639498343,289.36046480407594 204,295C203.17804345322565,295.66783969425415 202,296 202,296C201.92360679774998,295.84721359549996 202,291 202,291"/>
<path id="8" d="M336,181C336,181 337.80771362805126,185.38457274389745 337,187C333.03486037138464,194.93027925723075 328.497758689021,197.47055160569693 323,207C321.71216885503753,209.23224065126826 323.3617616364556,210.9301223125875 322,213C312.2254579770619,227.85730387486586 308.68833519788586,228.6334867282373 298,245C293.017295791739,252.62976581889964 294.75034053547813,254.08276577420312 290,262C281.4145221514753,276.3091297475412 281.1429980150661,276.66920260877026 271,290C263.7913562494051,299.47421750078183 255.23930302753132,307.9155401079301 255,308C254.96536403548887,308.01222445806274 253.68521698633327,300.7217452050008 254,296C254.08265252314155,294.7602121528769 256,293 256,293"/>
<path id="9" d="M340,224C340,224 335.4449564922707,244.41724758117743 329,264C322.5082867136762,283.7248211392145 314,303 314,303"/>
<path id="10" d="M354,271L354,295"/>
</g>
</g>
</svg>
