<?xml version="1.0" encoding="utf-8"?>
<!DOCTYPE svg PUBLIC "-//W3C//DTD SVG 1.1//EN" "http://www.w3.org/Graphics/SVG/1.1/DTD/svg11.dtd">
<svg viewBox="0 0 800 800" preserveAspectRatio="xMinYMin meet" xmlns="http://www.w3.org/2000/svg" version="1.1">
<g fill="none" stroke="black" stroke-linecap="round" stroke-linejoin="round" stroke-width="0.77765">
<g transform="translate(87.52,101.0222) scale(3.8578) translate(-178,-172)">
<path id="0" d="M184 313 C184 313 198.5557 311.5118 200 309 C204.3794 301.3837 205.4254 279.2983 207 273 C207.0209 272.9166 208.9314 273.1618 209 273 C212.0818 265.7357 212.8913 252.2859 221 240 C227.1152 230.7346 231.8204 229.4471 242 223 C245.29 220.9164 246.5552 221.3865 251 221 C257.783 220.4102 259.1306 219.724 265 221 C269.2289 221.9193 271.7109 222.7783 274 226 C283.1987 238.9463 286.7366 243.2099 292 259 C295.284 268.8519 290.8285 272.1425 293 283 C294.5613 290.8066 295.8103 291.7378 300 299 C303.0559 304.2968 303.5619 305.2627 308 309 C312.3385 312.6535 313.8367 314.0319 319 315 C327.9427 316.6767 339.5998 315.0889 340 315 C340.0402 314.9911 337 311 337 311 "/>
<path id="1" d="M197 306 C197 306 195.842 309.6492 194 311 C189.4687 314.323 186.2646 313.535 182 317 C179.5518 318.9892 177.999 323.9969 178 324 C178.0004 324.0013 180.6741 320.4175 183 320 C197.0492 317.4784 212.0127 317.7334 217 317 C217.0426 316.9937 216.9941 315.0001 217 315 C221.7473 314.8813 237.4279 313.8777 257 316 C278.4064 318.3212 278.7282 321.0145 300 324 C306.7495 324.9473 307.9914 325.4504 314 324 C321.163 322.271 329 317 329 317 "/>
<path id="2" d="M258 219 C258 219 257.5181 202.5811 260 188 C261.3479 180.0809 266 172 266 172 C266 172 259.6245 181.8622 258 191 C255.9318 202.6335 258 217 258 217 "/>
<path id="3" d="M249 313 C249 313 249.7018 317.6606 249 320 C248.609 321.3034 246.0386 322.9871 246 323 C245.9936 323.0021 246 321 246 321 "/>
<path id="4" d="M246 321 C246 321 246.1654 323.9007 246 324 C245.5404 324.2757 241.1528 324.0764 241 324 C241 324 241.6396 322.0801 242 322 C243.9959 321.5565 249.2809 321.5506 250 322 C250.2809 322.1756 250.2155 326.4612 250 327 C249.9655 327.0862 248 327 248 327 C248 326.9256 250.0042 324.0042 250 324 C249.9873 323.9873 246.0006 325.0006 246 325 C245.9998 324.9998 249 323 249 323 "/>
</g>
</g>
</svg>
