<?xml version="1.0" encoding="utf-8"?>
<!DOCTYPE svg PUBLIC "-//W3C//DTD SVG 1.1//EN" "http://www.w3.org/Graphics/SVG/1.1/DTD/svg11.dtd">
<svg viewBox="0 0 800 800" preserveAspectRatio="xMinYMin meet" xmlns="http://www.w3.org/2000/svg" version="1.1">
<g fill="none" stroke="black" stroke-linecap="round" stroke-linejoin="round" stroke-width="1.1185">
<g transform="translate(87.52,90.2022) scale(2.6822) translate(-112,-129.8167)">
<path id="0" d="M344 208.8167 C344 208.8167 333.6931 208.9959 326 211.8167 C319.9852 214.0221 320.1803 217.2249 314 219.8167 C305.5086 223.3776 302.1746 220.1808 295 224.8167 C272.4386 239.3948 269.7954 241.8314 249 261.8167 C232.0292 278.1263 231.7973 279.7633 218 298.8167 C211.2774 308.1002 211.0053 309.0656 207 319.8167 C201.7368 333.9442 199 349.8167 199 349.8167 "/>
<path id="1" d="M345 211.8167 C345 211.8167 348.803 232.9469 345 246.8167 C341.5598 259.3634 335.2019 259.9889 328 273.8167 C322.9448 283.5226 323.3343 288.148 320 294.8167 C319.6666 295.4835 317.4601 295.0805 317 295.8167 C313.8995 300.7775 314.5816 304.4615 310 310.8167 C299.6462 325.1784 298.4339 327.3644 286 338.8167 C280.8937 343.5199 278.083 341.6692 272 345.8167 C267.6403 348.7892 268.1648 352.0813 264 353.8167 C252.6386 358.5506 249.575 359.8185 236 360.8167 C217.0272 362.2117 199.4798 360.8313 196 358.8167 C195.1901 358.3478 198 338.8167 198 338.8167 "/>
<path id="2" d="M198 359.8167 C198 359.8167 186.3808 350.0329 177 338.8167 C163.6431 322.8464 162.1878 322.6453 152 304.8167 C138.6775 281.5023 137.9688 280.1856 129 254.8167 C120.7855 231.5813 119.7246 229.8425 117 205.8167 C114.4093 182.9712 113.591 173.0033 118 157.8167 C119.7289 151.8617 126.1135 149.741 135 143.8167 C142.1992 139.0172 143.3985 136.8692 151 135.8167 C172.8338 132.7935 177.7865 131.7623 200 134.8167 C214.8431 136.8576 216.9518 139.1341 231 146.8167 C248.046 156.1387 247.0974 159.3678 264 169.8167 C274.3095 176.1898 275.8282 174.3004 286 180.8167 C307.4379 194.5503 308.7444 200.1573 328 210.8167 C332.7816 213.4636 342 211.8167 342 211.8167 "/>
<path id="3" d="M118 155.8167 C118 155.8167 114.0055 151.671 113 147.8167 C111.3508 141.4948 111.4381 137.8735 112 132.8167 C112.1258 131.6845 113.8678 129.9499 115 129.8167 C119.6877 129.2652 123.2599 129.5411 129 130.8167 C130.8835 131.2352 132.4924 132.5477 133 133.8167 C133.7724 135.7477 133 140.8167 133 140.8167 "/>
<path id="4" d="M226 292.8167 C226 292.8167 238.1207 292.1788 242 294.8167 C246.2904 297.7342 249.733 303.0066 251 309.8167 C253.1134 321.1762 253.3415 329.463 250 337.8167 C247.8822 343.1113 241.7598 347.8382 235 349.8167 C225.5059 352.5954 221.0367 350.5932 209 349.8167 C206.6255 349.6635 205.249 349.0657 204 347.8167 C202.751 346.5676 202 342.8167 202 342.8167 "/>
<path id="5" d="M261 184.8167 C261 184.8167 248.4382 191.3773 238 199.8167 C225.3427 210.0502 223.2129 210.199 214 222.8167 C201.2543 240.2728 200.8859 242.5935 192 262.8167 C186.798 274.6556 187.289 276.0639 185 288.8167 C183.9083 294.8991 185 301.8167 185 301.8167 "/>
</g>
</g>
</svg>
