<?xml version="1.0" encoding="utf-8"?>
<!DOCTYPE svg PUBLIC "-//W3C//DTD SVG 1.1//EN" "http://www.w3.org/Graphics/SVG/1.1/DTD/svg11.dtd">
<svg viewBox="0 0 800 800" preserveAspectRatio="xMinYMin meet" xmlns="http://www.w3.org/2000/svg" version="1.1">
<g fill="none" stroke="black" stroke-linecap="round" stroke-linejoin="round" stroke-width="1.9873">
<g transform="translate(133.5617,87.52) scale(1.5096) translate(-136,-10)">
<path id="0" d="M253 90 C253 90 239.6767 99.5281 231 110 C226.279 115.6977 227.7949 119.3076 224 125 C222.7779 126.8331 220.1901 126.2149 219 128 C216.1188 132.3218 217.0235 134.86 214 140 C212.393 142.7319 209.3967 143.0164 209 145 C208.0214 149.893 211.3194 154.2825 210 160 C208.873 164.8837 203.3868 166.1644 203 171 C200.861 197.738 204.405 203.4065 204 235 C203.9112 241.9251 203.9746 245.4458 202 249 C200.8966 250.9862 196.0598 250.4988 194 253 C190.5097 257.2382 191.326 260.6784 188 266 C186.9079 267.7474 184.4331 268.1338 184 269 C183.7834 269.4331 185.076 271.9392 185 272 C184.6308 272.2954 179.9744 271.782 179 273 C171.7089 282.1139 170.5765 291.2264 161 302 C156.862 306.6553 153.868 306.8022 147 309 C142.2127 310.5319 136 310 136 310 "/>
<path id="1" d="M136 310 C136 310 148.8145 309.6786 159 313 C170.4321 316.7279 170.2316 321.2406 182 325 C205.0313 332.3572 207.5685 328.5328 231 336 C252.3032 342.7889 252.8239 350.3316 273 354 C298.4025 358.6186 301.6019 354.9878 330 354 C358.9657 352.9925 359.8854 354.2598 388 350 C408.4681 346.8988 410.1264 346.6018 429 339 C444.8905 332.5997 447.1673 331.1468 460 321 C466.9937 315.4701 472 305 472 305 "/>
<path id="2" d="M373 80 C373 80 372.5271 82.5271 373 83 C375.9952 85.9952 380.5248 86.1733 384 91 C397.0975 109.191 404.8779 113.5919 409 133 C415.1677 162.0395 407.0136 168.8169 408 204 C408.5019 221.902 408.9886 224.1899 412 240 C412.5539 242.9081 413.5339 243.8702 416 246 C423.8501 252.7796 427.2662 252.2662 434 259 C436.8239 261.8239 435.2888 264.2278 438 268 C446.3692 279.6441 447.1022 280.0783 457 291 C461.4451 295.905 461.7425 297.3712 467 300 C475.3395 304.1698 478.3403 302.851 487 306 C488.0647 306.3872 489 307.9786 489 308 C489 308 487 308 487 308 "/>
<path id="3" d="M487 308 C487 308 468.3373 324.8314 450 334 C439.9145 339.0427 436.2045 335.2652 425 339 C419.3978 340.8674 419.6281 343.789 414 346 C406.3984 348.9863 405.3014 349.5211 397 350 C380.1656 350.9712 374.4269 348.6641 362 349 C361.2701 349.0197 360.6054 351.0275 360 351 C353.6147 350.7098 349.9519 348.4062 340 348 C301.4037 346.4246 299.9481 349.2999 262 347 C251.6438 346.3724 251.1504 345.3406 241 342 C211.9048 332.4244 212.0381 329.5794 183 321 C168.7636 316.7938 166.2947 319.7498 153 316 C148.4744 314.7235 144 310 144 310 "/>
<path id="4" d="M241 92 C241 92 248.3251 87.4768 255 87 C274.4933 85.6076 276.0919 88.5454 297 88 C333.4148 87.05 370 84 370 84 "/>
<path id="5" d="M253 86 C253 86 251.4118 80.7843 252 80 C253.5126 77.9832 257.4111 74.6556 262 74 C275.5251 72.0678 278.3014 74.9611 294 74 C302.43 73.4839 302.6244 71.2659 311 71 C333.5217 70.285 335.9247 69.0819 357 72 C366.1849 73.2718 376 80 376 80 "/>
<path id="6" d="M284 70 C284 70 285.9936 71.0307 286 71 C286.2807 69.6525 287.5745 53.4128 289 46 C289.0772 45.5987 290.9611 45.3406 291 45 C292.0845 35.5104 293 11 293 11 "/>
<path id="7" d="M293 11 L322 10 "/>
<path id="8" d="M322 10 C322 10 319.2248 24.5738 321 37 C323.0018 51.0125 330 66 330 66 "/>
<path id="9" d="M315 352 C315 352 315.1932 363.1718 312 372 C307.1442 385.4249 298 399 298 399 "/>
<path id="10" d="M328 349 C328 349 329.3792 359.6558 328 366 C327.425 368.6448 323.575 369.3552 323 372 C321.6208 378.3442 323 389 323 389 "/>
<path id="11" d="M325 380 C325 380 297.2468 391.8355 291 396 C290.5804 396.2797 290.6917 399.9872 292 402 C296.2889 408.5983 297.438 411.022 304 416 C310.692 421.0767 316.9956 423.2372 321 424 C321.7 424.1333 323.7361 420.5417 325 420 C325.5687 419.7563 327.7757 421.2243 328 421 C331.8136 417.1864 338.1035 410.8748 343 402 C344.8942 398.5667 345.0776 394.2899 344 392 C342.7295 389.3002 339.3302 386.1395 335 385 C323.1025 381.8691 312.7496 380.1758 306 382 C303.2432 382.7451 299.0795 390.25 298 395 C297.394 397.6664 298.6139 400.7191 301 404 C305.7916 410.5885 308.9829 410.9078 314 417 C315.0209 418.2396 314.5568 420.8734 315 421 C319.2552 422.2158 326.927 423.3229 335 423 C337.075 422.917 337.7408 421.7379 340 420 C344.138 416.8169 346.4871 416.0257 348 413 C349.2378 410.5244 349.1146 407.5296 348 404 C346.5269 399.3352 345.694 397.694 342 394 C335.9972 387.9972 333.1093 384.3576 327 383 C319.8789 381.4175 313.276 382.7141 306 386 C301.1284 388.2001 298.5857 391.8287 296 397 C294.1415 400.7169 294.0619 403.497 295 408 C296.2388 413.9461 300.9977 420.9936 301 421 C301.0004 421.0011 298.9977 418.9996 299 419 C299.0083 419.0014 303.3124 421.9054 307 422 C321.13 422.3623 330.5535 423.0189 338 420 C340.6382 418.9304 343.3457 410.7075 344 407 C344.1615 406.0848 341.3943 404.8731 341 403 C339.705 396.8486 341.4962 394.2839 340 388 C339.3174 385.133 337.6586 382.4465 336 382 C329.4225 380.2291 320.0603 378.4749 314 381 C308.1971 383.4179 300 397 300 397 "/>
</g>
</g>
</svg>
