<?xml version="1.0" encoding="utf-8"?>
<!DOCTYPE svg PUBLIC "-//W3C//DTD SVG 1.1//EN" "http://www.w3.org/Graphics/SVG/1.1/DTD/svg11.dtd">
<svg viewBox="0 0 800 800" preserveAspectRatio="xMinYMin meet" xmlns="http://www.w3.org/2000/svg" version="1.1">
<g fill="none" stroke="black" stroke-linecap="round" stroke-linejoin="round" stroke-width="0.71045">
<g transform="translate(87.52,108.6335) scale(4.2227) translate(-137,-176.9167)">
<path id="0" d="M137 284.9167 C137 284.9167 151.2208 279.3519 158 271.9167 C164.3512 264.9508 165.3452 261.3318 168 250.9167 C171.4683 237.3102 166.6681 233.0003 171 220.9167 C175.0057 209.7428 178.2913 206.6254 187 197.9167 C192.1359 192.7808 194.7736 191.5843 202 189.9167 C212.3942 187.518 214.6417 188.043 226 188.9167 C233.2678 189.4757 234.8824 189.6539 241 192.9167 C248.6411 196.9919 251.3291 198.2995 256 204.9167 C261.863 213.2226 262.8097 215.9651 265 226.9167 C269.0309 247.0712 265.2002 250.2268 269 269.9167 C270.3326 276.8219 271.7849 278.3844 276 283.9167 C279.0212 287.8819 285 290.9167 285 290.9167 "/>
<path id="1" d="M138 286.9167 C138 286.9167 152.2831 300.6873 167 307.9167 C178.7683 313.6976 181.5145 314.1974 195 314.9167 C217.2625 316.104 219.3072 315.1128 242 311.9167 C253.9563 310.2327 254.9888 309.6358 266 304.9167 C275.2634 300.9466 284 293.9167 284 293.9167 "/>
<path id="2" d="M220 190.9167 C220 190.9167 214.9237 188.6102 214 186.9167 C213.1109 185.2867 213.2982 182.2561 214 179.9167 C214.391 178.6133 215.6966 177.3077 217 176.9167 C219.3394 176.2149 221.6606 176.2149 224 176.9167 C225.3034 177.3077 226.6786 178.631 227 179.9167 C227.7714 183.0023 227 188.9167 227 188.9167 "/>
<path id="3" d="M203 304.9167 C203 304.9167 201.9673 297.9363 202 297.9167 C202.0367 297.8946 206.6351 300.3242 208 301.9167 C208.4479 302.4392 208.0861 304.8736 208 304.9167 C207.7992 305.0171 204 303.9167 204 303.9167 "/>
<path id="4" d="M161 271.9167 C161 271.9167 170.1845 267.6638 179 266.9167 C198.618 265.2541 199.7751 265.922 220 266.9167 C229.9386 267.4055 230.5878 267.1393 240 269.9167 C260.4718 275.9575 280.9547 284.9041 281 284.9167 C281.0064 284.9185 276 279.9167 276 279.9167 "/>
</g>
</g>
</svg>
