<?xml version="1.0" encoding="utf-8"?>
<!DOCTYPE svg PUBLIC "-//W3C//DTD SVG 1.1//EN" "http://www.w3.org/Graphics/SVG/1.1/DTD/svg11.dtd">
<svg viewBox="0 0 800 800" preserveAspectRatio="xMinYMin meet" xmlns="http://www.w3.org/2000/svg" version="1.1">
<g fill="none" stroke="black" stroke-linecap="round" stroke-linejoin="round" stroke-width="0.75845">
<g transform="translate(89.4977,87.52) scale(3.9554) translate(-191,-130)">
<path id="0" d="M218 130 C218 130 212.8254 130.1718 210 132 C205.4936 134.9159 203.9331 136.0601 201 141 C195.0827 150.966 194.226 153.0316 191 164 C189.6321 168.651 189.5904 170.3866 191 175 C194.6345 186.8946 197.9206 187.7619 202 200 C203.6128 204.8383 202.2785 209.6772 203 211 C203.1704 211.3125 207.6263 210.4395 208 211 C211.0266 215.5399 214.3677 221.4707 217 232 C220.623 246.492 219.8128 247.5659 221 263 C221.7964 273.3526 222.0061 275.6157 221 284 C220.7911 285.7407 218.0082 288.0143 218 288 C217.9587 287.9276 217 277 217 277 "/>
<path id="1" d="M210 135 C210 135 225.6974 130.8644 236 134 C255.9254 140.0643 257.0469 147.7676 279 156 C303.9516 165.3568 332 170 332 170 "/>
<path id="2" d="M222 285 C222 285 237.0631 264.0224 250 243 C252.7218 238.5771 251.1674 237.1073 254 233 C260.6681 223.3313 261.231 222.3306 270 214 C280.8293 203.7122 281.227 202.2735 294 195 C316.2036 182.3563 342 173 342 173 "/>
<path id="3" d="M223 286 C223 286 235.327 288.5769 246 288 C252.6281 287.6417 253.5816 286.8883 260 284 C273.1211 278.0955 274.8214 278.5703 286 270 C303.8127 256.3436 303.9624 254.6544 320 238 C329.7436 227.8816 329.9233 227.2372 338 216 C341.1426 211.6277 341.401 211.1168 343 206 C346.2585 195.5728 346.2517 194.8394 348 184 C348.6899 179.7225 348.9215 177.9949 348 175 C347.4644 173.2593 344 171 344 171 "/>
<path id="4" d="M328 171 C328 171 332.3643 173.5152 336 174 C338.972 174.3963 343 173 343 173 "/>
<path id="5" d="M241 262 C241 262 245.2573 265.3404 247 269 C249.8119 274.9049 248.7441 278.9895 251 283 C251.6681 284.1877 253.8223 285 256 285 C262.0975 285 268.5191 284.4809 270 283 C271.2958 281.7042 272.3463 275.4973 271 270 C266.8642 253.1121 258 234 258 234 "/>
<path id="6" d="M258 232 L261 236 "/>
<path id="7" d="M217 131 L224 134 "/>
<path id="8" d="M217 133 L220 134 "/>
<path id="9" d="M204 207 C204 207 211 215.9999 211 216 C211 216 208.5789 214.5438 208 213 C206.0176 207.7136 205 200 205 200 "/>
<path id="10" d="M258 229 L261 241 "/>
</g>
</g>
</svg>
