<?xml version="1.0" encoding="utf-8"?>
<!DOCTYPE svg PUBLIC "-//W3C//DTD SVG 1.1//EN" "http://www.w3.org/Graphics/SVG/1.1/DTD/svg11.dtd">
<svg viewBox="0 0 800 800" preserveAspectRatio="xMinYMin meet" xmlns="http://www.w3.org/2000/svg" version="1.1">
<g fill="none" stroke="black" stroke-linecap="round" stroke-linejoin="round" stroke-width="0.96006">
<g transform="translate(87.52,92.2072) scale(3.1248) translate(-219.5,-133.6667)">
<path id="0" d="M221.5 330.6667 C221.5 330.6667 219.5843 328.974 219.5 327.6667 C218.7452 315.9679 216.4466 311.8804 219.5 299.6667 C224.789 278.5108 227.6455 276.5127 237.5 255.6667 C240.2741 249.7983 240.7456 248.9334 245.5 244.6667 C259.4766 232.1235 259.9785 229.4781 276.5 220.6667 C310.8507 202.3463 315.646 206.4493 350.5 188.6667 C363.3045 182.1338 363.6029 180.4167 374.5 170.6667 C382.1938 163.7828 388.5 154.6667 388.5 154.6667 "/>
<path id="1" d="M234.5 262.6667 C234.5 262.6667 234.1475 245.4432 237.5 229.6667 C242.4808 206.2275 243.4484 205.5829 251.5 182.6667 C256.341 168.8883 260.1446 162.1378 263.5 155.6667 C263.6047 155.4647 265.5 155.6667 265.5 155.6667 "/>
<path id="2" d="M241.5 248.6667 C241.5 248.6667 250.5336 229.9801 255.5 211.6667 C258.2442 201.5475 254.8743 199.7317 257.5 189.6667 C260.6021 177.7751 262.1457 174.4856 267.5 165.6667 C268.9689 163.2472 274.5 161.6667 274.5 161.6667 "/>
<path id="3" d="M261.5 228.6667 C261.5 228.6667 263.9922 197.1195 270.5 179.6667 C272.3455 174.7173 276.747 173.5626 283.5 169.6667 C289.2152 166.3695 296.5 164.6667 296.5 164.6667 "/>
<path id="4" d="M278.5 216.6667 C278.5 216.6667 277.4515 212.5126 278.5 209.6667 C287.1483 186.1928 288.8733 181.3137 299.5 159.6667 C300.9 156.8148 302.3149 156.1834 305.5 154.6667 C312.1054 151.5212 320.5 149.6667 320.5 149.6667 "/>
<path id="5" d="M273.5 220.6667 C273.5 220.6667 272.8226 209.229 275.5 199.6667 C279.5187 185.3143 280.861 184.3136 287.5 170.6667 C289.5808 166.3894 291.5962 166.7122 293.5 162.6667 C295.2486 158.951 293.7405 155.7194 295.5 153.6667 C297.7287 151.0665 305.5 148.6667 305.5 148.6667 "/>
<path id="6" d="M263.5 231.6667 C263.5 231.6667 268.4975 217.1293 270.5 202.6667 C272.924 185.1601 270.6373 184.1765 272.5 166.6667 C273.0822 161.1936 273.1246 160.2016 275.5 155.6667 C278.1814 150.5477 278.9138 149.2337 283.5 145.6667 C291.5097 139.4369 302.5 134.6667 302.5 134.6667 "/>
<path id="7" d="M291.5 214.6667 C291.5 214.6667 300.5823 193.2955 310.5 172.6667 C312.999 167.4687 312.9276 166.6856 316.5 162.6667 C320.4348 158.24 326.5 154.6667 326.5 154.6667 "/>
<path id="8" d="M285.5 213.6667 L318.5 144.6667 "/>
<path id="9" d="M308.5 204.6667 C308.5 204.6667 310.4 204.8417 310.5 204.6667 C311.2125 203.4199 311.8055 201.2087 312.5 197.6667 C316.7813 175.832 314.9102 173.9298 320.5 153.6667 C322.4606 146.5595 324.002 145.3642 328.5 139.6667 C330.8306 136.7146 335.5 134.6667 335.5 134.6667 "/>
<path id="10" d="M310.5 204.6667 C310.5 204.6667 314.3128 192.9474 320.5 183.6667 C328.849 171.1432 340.5 159.6667 340.5 159.6667 "/>
<path id="11" d="M325.5 196.6667 C325.5 196.6667 330.7584 182.094 338.5 169.6667 C349.4345 152.1139 363.5 135.6667 363.5 135.6667 "/>
<path id="12" d="M341.5 188.6667 L361.5 160.6667 "/>
<path id="13" d="M365.5 175.6667 L395.5 134.6667 "/>
<path id="14" d="M356.5 176.6667 L383.5 133.6667 "/>
<path id="15" d="M339.5 194.6667 L357.5 156.6667 "/>
<path id="16" d="M237.5 257.6667 L285.5 263.6667 "/>
<path id="17" d="M250.5 250.6667 C250.5 250.6667 256.6143 253.3335 262.5 253.6667 C282.329 254.7891 293.9899 254.7725 303.5 253.6667 C304.0988 253.597 305.5 248.6667 305.5 248.6667 "/>
<path id="18" d="M253.5 247.6667 C253.5 247.6667 280.083 248.5229 291.5 247.6667 C292.1685 247.6165 293.5 244.6667 293.5 244.6667 "/>
<path id="19" d="M257.5 240.6667 C257.5 240.6667 282.3519 242.4731 301.5 240.6667 C305.6219 240.2778 310.5 235.6667 310.5 235.6667 "/>
<path id="20" d="M258.5 229.6667 C258.5 229.6667 286.756 231.8252 310.5 229.6667 C317.1417 229.0629 324.5 223.6667 324.5 223.6667 "/>
<path id="21" d="M255.5 242.6667 L275.5 242.6667 "/>
<path id="22" d="M244.5 247.6667 L265.5 248.6667 "/>
<path id="23" d="M255.5 240.6667 C255.5 240.6667 272.7111 241.3418 282.5 240.6667 C283.2751 240.6132 284.5 238.6667 284.5 238.6667 "/>
<path id="24" d="M277.5 223.6667 C277.5 223.6667 310.1904 225.1114 331.5 223.6667 C333.5801 223.5256 336.5 219.6667 336.5 219.6667 "/>
<path id="25" d="M293.5 213.6667 C293.5 213.6667 320.2299 216.1145 340.5 214.6667 C344.5417 214.378 349.5 209.6667 349.5 209.6667 "/>
<path id="26" d="M329.5 204.6667 C329.5 204.6667 348.8797 203.8217 365.5 199.6667 C373.5313 197.6589 381.5 191.6667 381.5 191.6667 "/>
<path id="27" d="M350.5 189.6667 C350.5 189.6667 364.4062 192.0871 375.5 189.6667 C389.9744 186.5086 405.5 177.6667 405.5 177.6667 "/>
<path id="28" d="M376.5 174.6667 C376.5 174.6667 390.8881 176.7544 399.5 174.6667 C403.9705 173.5829 409.5 166.6667 409.5 166.6667 "/>
<path id="29" d="M385.5 163.6667 C385.5 163.6667 397.1756 162.9576 406.5 159.6667 C413.0834 157.3431 419.5 151.6667 419.5 151.6667 "/>
<path id="30" d="M325.5 204.6667 C325.5 204.6667 332.8022 205.5969 339.5 204.6667 C350.3574 203.1587 361.5 199.6667 361.5 199.6667 "/>
</g>
</g>
</svg>
