<?xml version="1.0" encoding="utf-8"?>
<!DOCTYPE svg PUBLIC "-//W3C//DTD SVG 1.1//EN" "http://www.w3.org/Graphics/SVG/1.1/DTD/svg11.dtd">
<svg viewBox="0 0 800 800" preserveAspectRatio="xMinYMin meet" xmlns="http://www.w3.org/2000/svg" version="1.1">
<g fill="none" stroke="black" stroke-linecap="round" stroke-linejoin="round" stroke-width="1.8241">
<g transform="translate(87.52,219.9128) scale(1.6446) translate(-119,-171)">
<path id="0" d="M119 390 C119 390 121.8125 390.1875 122 390 C122.1875 389.8125 121.4499 387.7465 122 387 C126.8251 380.4516 128.6653 378.0013 136 371 C139.2004 367.9451 142.098 367.902 144 366 C144.4389 365.5611 143.8125 363.1875 144 363 C144.1875 362.8125 146.5752 363.4602 147 363 C150.2688 359.4588 151.2903 355.0237 156 350 C157.8949 347.9788 160.112 348.888 162 347 C164.3075 344.6925 163.427 342.6802 166 340 C174.8298 330.8023 175.5646 330.3483 186 322 C200.4397 310.4482 200.3803 309.8717 216 300 C262.6144 270.5397 262.6957 269.4306 311 243 C341.7824 226.1568 342.3883 225.873 375 213 C417.9315 196.0534 418.9498 196.3261 463 183 C477.8906 178.4953 494 177 494 177 "/>
<path id="1" d="M498 178 C498 178 498.1257 176.0483 498 176 C495.6877 175.1107 491.4592 173.4893 485 173 C459.0447 171.0337 455.6825 166.1155 432 171 C380.5621 181.6091 377.7727 187.3743 325 206 C310.1487 211.2416 310.7541 213.3893 296 219 C275.43 226.8224 273.881 224.4401 254 233 C238.5517 239.6513 238.0546 240.4715 224 250 C208.9071 260.2325 209.6896 262.7172 195 273 C190.2772 276.306 187.7736 274.478 184 278 C174.2529 287.0973 174.8962 290.7504 165 301 C161.4839 304.6417 159.9574 303.5373 156 307 C148.1893 313.8343 147.595 314.1488 141 322 C137.4062 326.2783 138.5423 327.9854 135 332 C131.5395 335.9219 126 339 126 339 "/>
<path id="2" d="M125 339 L158 338 "/>
<path id="3" d="M166 376 C166 376 167.7192 365.3898 168 355 C168.213 347.1177 168.1069 343.981 167 339 C166.818 338.1812 164 337 164 337 "/>
<path id="4" d="M499 179 C499 179 491.9775 194.3989 482 205 C469.1298 218.6745 467.6368 220.118 451 230 C402.3501 258.8973 401.161 260.348 349 284 C278.3584 316.0318 275.0671 311.6614 204 342 C190.4348 347.791 187.1313 349.7579 178 357 C175.7483 358.7858 175.4581 361.3353 175 365 C174.5693 368.4459 176.5146 371.7135 176 373 C175.7292 373.6771 171 375 171 375 "/>
<path id="5" d="M187 354 C187 354 189.9588 347.4557 191 341 C192.3859 332.4077 192 323 192 323 "/>
<path id="6" d="M188 319 L167 318 "/>
<path id="7" d="M218 312 C218 312 215.0206 310.9656 215 311 C214.8453 311.2578 214.1333 314.5334 215 317 C220.1374 331.622 228 348 228 348 "/>
<path id="8" d="M219 297 L186 299 "/>
<path id="9" d="M231 289 C231 289 227.9692 280.1618 223 274 C216.1179 265.4661 206 258 206 258 "/>
<path id="10" d="M241 278 C241 278 238.412 291.5857 237 305 C236.4336 310.3812 236.1186 310.9319 237 316 C238.0173 321.8493 241 328 241 328 "/>
<path id="11" d="M275 267 C275 267 269.2312 267.8719 264 267 C245.7702 263.9617 227 259 227 259 "/>
<path id="12" d="M290 255 C290 255 292.0941 268.2383 291 280 C290.1889 288.7197 287.581 289.0412 286 298 C284.6456 305.675 285 314 285 314 "/>
<path id="13" d="M319 247 C319 247 310.4925 244.3756 303 245 C287.6207 246.2816 286.8577 249.2048 271 251 C260.8097 252.1536 250 251 250 251 "/>
<path id="14" d="M334 234 C334 234 335.3048 244.5141 335 250 C334.9596 250.7264 333.0888 251.2004 333 252 C332.3603 257.7573 333.4861 263.8683 333 268 C332.9625 268.319 331.0375 268.681 331 269 C330.5139 273.1317 329.8216 278.2243 331 285 C331.5668 288.259 335 292 335 292 "/>
<path id="15" d="M351 221 L271 221 "/>
<path id="16" d="M387 206 L345 207 "/>
<path id="17" d="M416 195 L356 195 "/>
<path id="18" d="M443 188 L392 185 "/>
<path id="19" d="M361 221 C361 221 355.5591 231.6062 354 242 C351.2212 260.5251 352 281 352 281 "/>
<path id="20" d="M390 209 C390 209 391.0901 214.5185 390 219 C386.8181 232.0813 384.2203 232.5334 381 246 C378.8484 254.9978 379 265 379 265 "/>
<path id="21" d="M415 204 C415 204 415.099 214.3294 414 219 C413.8048 219.8295 411.2155 220.0903 411 221 C408.0253 233.5596 405 257 405 257 "/>
<path id="22" d="M445 199 C445 199 446.2946 205.6745 446 207 C445.9369 207.284 443.1369 207.5306 443 208 C441.2355 214.0495 440.0072 227.1392 439 231 C438.9781 231.0838 437.0024 230.9783 437 231 C436.9035 231.8685 438 240 438 240 "/>
</g>
</g>
</svg>
