<?xml version="1.0" encoding="utf-8"?>
<!DOCTYPE svg PUBLIC "-//W3C//DTD SVG 1.1//EN" "http://www.w3.org/Graphics/SVG/1.1/DTD/svg11.dtd">
<svg viewBox="0 0 800 800" preserveAspectRatio="xMinYMin meet" xmlns="http://www.w3.org/2000/svg" version="1.1">
<g fill="none" stroke="black" stroke-linecap="round" stroke-linejoin="round" stroke-width="2.0497">
<g transform="translate(103.6197,87.52) scale(1.4636) translate(-139,-7)">
<path id="0" d="M160 434 C160 434 155.1878 431.5026 155 430 C153.538 418.3044 153.6438 411.291 155 394 C155.5769 386.6447 156.1001 385.7665 159 379 C161.8504 372.3491 162.3466 371.7702 167 366 C174.5858 356.5936 174.3313 354.4458 184 348 C230.6765 316.8823 237.3843 321.1365 284 288 C319.0406 263.0917 320.3723 260.8247 350 230 C368.7174 210.5263 367.8285 208.2374 383 185 C407.1742 147.9737 405.3414 146.3959 429 109 C436.2308 97.5706 445 87 445 87 "/>
<path id="1" d="M158 395 C158 395 166.8409 389.3859 175 389 C236.8631 386.074 241.6892 389.3683 306 388 C310.9293 387.8951 311.6238 387.8515 316 386 C323.992 382.6188 325.7329 382.7338 332 377 C348.0613 362.3056 362.8611 343.5248 363 343 C363.0192 342.9276 351.4849 341.7214 341 343 C331.6543 344.1397 331.5373 346.5452 322 348 C302.402 350.9895 282 352 282 352 C282 352 291.2027 353.0165 299 351 C319.1593 345.7864 319.5899 341.6888 340 337 C355.5509 333.4275 356.9939 336.7597 373 334 C385.5151 331.8422 387.2035 332.4867 398 327 C416.2213 317.74 417.0895 315.9135 434 303 C444.1927 295.2165 445.3586 294.8247 453 285 C462.1956 273.177 469.0178 258.0124 469 258 C468.7991 257.8603 449.2579 266.1818 430 269 C409.5392 271.9943 387 270 387 270 C387 270 398.1533 270.5576 408 268 C435.7634 260.7887 436.4717 259.7798 464 250 C474.2346 246.364 475.1015 246.3391 484 241 C489.3952 237.7629 490.9398 237.1732 494 232 C510.6043 203.9308 513.0869 201.4023 526 170 C534.5793 149.1367 538.5629 125.7297 538 125 C537.6837 124.5899 518.4599 131.2934 499 135 C487.4011 137.2093 474.9941 137.0046 475 137 C475.0156 136.988 503.2153 127.1423 525 115 C531.189 111.5504 533.778 109.0811 536 103 C541.9537 86.7058 541.9151 82.8069 544 63 C545.8378 45.5413 544.8144 43.6959 544 27 C543.8847 24.6359 543.4926 23.7414 542 22 C538.0937 17.4427 537.1103 15.168 532 13 C522.7096 9.0586 520.4392 9.2256 509 8 C492.9087 6.2759 491.075 4.2899 476 7 C448.8744 11.8765 445.3894 14.3828 420 24 C414.7016 26.007 413.9303 27.4147 410 32 C402.4105 40.8544 398.8097 41.9976 396 52 C387.5367 82.1292 385 121 385 121 "/>
<path id="2" d="M383 123 C383 123 379.4354 119.5886 378 116 C375.7352 110.338 375.325 109.3924 375 103 C373.8632 80.643 375.4421 79.5469 375 57 C374.9518 54.5396 374.506 52.6325 374 52 C373.7906 51.7383 371.7979 51.43 371 52 C354.9271 63.4807 346.9502 65.6907 332 82 C321.8437 93.0796 324.6634 97.672 316 112 C311.8409 118.8784 308.7137 118.2955 306 125 C300.9326 137.5195 300.0516 139.7287 299 154 C296.6486 185.9119 299.0177 219.8344 299 220 C298.9975 220.0235 294.3154 214.9985 293 210 C289.6995 197.4583 289.7958 195.9273 289 182 C287.8159 161.2782 286.707 158.9995 289 140 C289.9197 132.3799 295.5932 125.7288 296 124 C296.0068 123.9712 293.5363 122.67 293 123 C285.4748 127.6309 280.516 130.5993 270 140 C247.825 159.8231 241.2063 160.6906 227 182 C217.6855 195.9717 218.8894 201.5998 216 221 C212.0577 247.4696 213.4111 272.2999 213 276 C212.995 276.0446 210.2105 275.5525 210 275 C207.8485 269.3523 205.8632 264.8407 205 255 C203.4373 237.1853 202.8613 235.1096 205 218 C206.1488 208.8094 212.0375 199.0307 212 199 C211.9569 198.9647 202.034 203.011 194 209 C175.0282 223.1426 173.3193 223.6807 157 240 C149.8003 247.1997 147.4633 249.1047 145 258 C139.3784 278.3001 140.7774 281.5978 139 305 C137.8015 320.7804 137.1185 321.4777 139 337 C143.0249 370.2054 151 404 151 404 "/>
</g>
</g>
</svg>
