<?xml version="1.0" encoding="utf-8"?>
<!DOCTYPE svg PUBLIC "-//W3C//DTD SVG 1.1//EN" "http://www.w3.org/Graphics/SVG/1.1/DTD/svg11.dtd">
<svg viewBox="0 0 800 800" preserveAspectRatio="xMinYMin meet" xmlns="http://www.w3.org/2000/svg" version="1.1">
<g fill="none" stroke="black" stroke-linecap="round" stroke-linejoin="round" stroke-width="2.4866">
<g transform="translate(87.52,292.6227) scale(1.2065) translate(-100,-213)">
<path id="0" d="M129 391 C129 391 128.7898 389.1113 129 389 C137.4297 384.5372 146.7861 382.0607 163 373 C180.4799 363.2318 180.6121 362.7565 197 351 C226.4839 329.8485 225.4552 327.2898 255 307 C266.3628 299.1967 267.3343 300.1067 280 294 C295.2915 286.6273 295.2394 285.9699 311 280 C328.0038 273.5592 328.3129 273.2821 346 269 C375.5411 261.848 406 257 406 257 "/>
<path id="1" d="M117 372 C117 372 116.9694 370.0034 117 370 C121.9825 369.4464 136.6479 371.577 153 368 C166.7436 364.9936 168.8414 363.5021 181 356 C191.1273 349.7513 189.9808 346.1189 200 339 C208.4158 333.0204 210.8707 335.1465 219 329 C230.593 320.2345 228.9724 315.8514 241 308 C263.5583 293.2745 267.2042 292.0389 291 282 C296.6288 279.6254 298.4441 282.5677 305 281 C320.8342 277.2136 323.0482 276.1821 337 271 C338.6073 270.403 338.587 268.2884 340 268 C358.5521 264.2139 386 261 386 261 "/>
<path id="2" d="M127 389 C127 389 123.4808 382.2318 119 378 C115.1825 374.3946 109 372 109 372 "/>
<path id="3" d="M125 370 C125 370 145.9019 363.9162 153 360 C153.9128 359.4964 153.929 354.0947 154 354 C154.0053 353.993 155.9047 356.0381 156 356 C156.3654 355.8538 157.9532 354.1552 159 352 C166.2508 337.0718 171.6076 323.166 173 321 C173.0149 320.9768 176.6988 322.7953 177 324 C177.9788 327.9153 176.999 336.9997 177 337 C177.0003 337.0001 178.0814 327.6648 181 325 C186.3112 320.1506 195.9827 320.5651 200 316 C202.9114 312.6916 202.817 300.3137 203 300 C203.0172 299.9705 206.4172 302.2515 207 304 C207.8743 306.6228 206.427 310.7108 207 312 C207.199 312.4476 210.7328 313.3094 211 313 C214.9138 308.4682 217.7631 300.3724 226 290 C230.8436 283.9007 237.5063 278.9691 238 279 C238.2073 279.013 240.9364 285.0436 242 291 C243.3535 298.5794 243 307 243 307 "/>
<path id="4" d="M141 368 C141 368 146.0736 368.0809 147 367 C149.7362 363.8077 153 354 153 354 "/>
<path id="5" d="M165 378 C165 378 170.8923 379.0424 176 378 C194.5923 374.2057 200.4798 372.9464 214 368 C215.5673 367.4266 217.1649 363.2748 217 363 C216.464 362.1067 207.9946 358.0436 208 358 C208.006 357.9522 213.1108 355.5238 218 355 C226.5266 354.0864 228.0257 356.3749 236 355 C241.2551 354.0939 242.0252 352.6787 247 350 C248.1179 349.398 249 348.25 249 348 C249 347.75 248.0726 346.4171 247 346 C240.0708 343.3053 231.0037 341.0021 231 341 C230.9986 340.9992 234.8828 341.8203 238 341 C252.9764 337.0588 267.9597 331.8593 269 331 C269.015 330.9876 265.4499 325.152 261 322 C254.2929 317.2491 245 314 245 314 "/>
<path id="6" d="M245 264 C245 264 259.5327 253.1019 275 245 C290.6148 236.8208 291.1599 236.2832 308 231 C341.6184 220.4531 343.2733 216.331 377 213 C421.2218 208.6324 424.641 210.4641 470 215 C503.2892 218.3289 504.2436 220.5576 537 229 C552.2328 232.926 551.9255 235.8888 567 240 C578.9184 243.2505 579.578 243.0257 592 244 C604.7588 245.0007 618.0048 243.9969 618 244 C617.9886 244.0073 592.7005 252.9908 567 260 C537.839 267.953 536.4719 265.7581 508 274 C499.2778 276.5248 499.7631 279.458 491 282 C435.3466 298.1437 433.5093 296.0215 377 312 C361.2627 316.4499 361.687 318.3743 346 323 C322.8482 329.8268 322.2825 330.9644 299 335 C285.6352 337.3166 271 336 271 336 "/>
<path id="7" d="M227 278 C227 278 232.764 278.927 234 278 C236.0747 276.444 239 269 239 269 "/>
<path id="8" d="M239 268 C239 268 238.8932 264.3282 240 263 C242.7512 259.6985 244.5409 257.8242 249 256 C254.1937 253.8753 262 254 262 254 "/>
<path id="9" d="M405 257 C405 257 419.0076 252.5741 433 251 C458.5389 248.1269 459.2088 250.5231 485 248 C505.0175 246.0418 505.1192 243.0556 525 242 C560.9958 240.0887 569.5835 240.2015 598 242 C600.4588 242.1556 601.0833 245.75 604 247 C607.019 248.2939 612 248 612 248 "/>
<path id="10" d="M144 372 C144 372 132.1604 375.4927 121 376 C110.9338 376.4576 100 374 100 374 C100 374 115.2793 375.3534 127 378 C128.9647 378.4437 130.8518 380.1107 131 381 C131.3503 383.102 129 390 129 390 "/>
</g>
</g>
</svg>
