<?xml version="1.0" encoding="utf-8"?>
<!DOCTYPE svg PUBLIC "-//W3C//DTD SVG 1.1//EN" "http://www.w3.org/Graphics/SVG/1.1/DTD/svg11.dtd">
<svg viewBox="0 0 800 800" preserveAspectRatio="xMinYMin meet" xmlns="http://www.w3.org/2000/svg" version="1.1">
<g fill="none" stroke="black" stroke-linecap="round" stroke-linejoin="round" stroke-width="0.94566">
<g transform="translate(87.52,217.5878) scale(3.1724) translate(-158,-222.9167)">
<path id="0" d="M159 337.9167 C159 337.9167 160.8992 332.6702 164 328.9167 C170.0372 321.6084 170.3023 320.6187 178 314.9167 C196.7178 301.0516 197.4204 300.4614 218 288.9167 C238.0647 277.6609 238.5868 277.6336 260 268.9167 C294.8409 254.7337 295.4315 254.9017 331 242.9167 C341.116 239.508 352 237.9167 352 237.9167 "/>
<path id="1" d="M158 337.9167 C158 337.9167 191.9994 327.9174 192 327.9167 C192.0004 327.9162 164.0037 330.9241 164 330.9167 C163.9995 330.9157 175.6997 323.7761 187 317.9167 C188.7169 317.0264 191.0002 316.9165 191 316.9167 C190.9995 316.917 185.869 318.5693 183 320.9167 C181.1953 322.3933 179.9658 325.9145 180 325.9167 C180.2389 325.9316 199.0014 321.9174 199 321.9167 C198.9975 321.9154 170.1043 320.9819 170 320.9167 C169.974 320.9004 177.2409 314.9656 183 311.9167 C184.2967 311.2302 186.9786 311.8952 187 311.9167 C187 311.9167 186.0949 313.3692 185 313.9167 C181.533 315.6502 176.9949 316.9159 177 316.9167 C177.0226 316.9203 210 317.9167 210 317.9167 C210 317.9167 187.0105 315.9377 187 315.9167 C186.9992 315.9151 204.9904 307.9294 205 307.9167 C205.004 307.9113 193 307.9167 193 307.9167 C193 307.9167 218 305.9167 218 305.9167 C218 305.9167 200 305.9167 200 305.9167 C200 305.9167 220.9298 306.8843 221 306.9167 C221.0186 306.9253 216.7793 311.1852 213 311.9167 C203.2256 313.8085 190.0002 312.9166 190 312.9167 C189.9999 312.9167 201.204 313.6272 202 313.9167 C202.0059 313.9188 200.9897 316.9205 201 316.9167 C201.0547 316.8962 205.4059 312.5574 210 310.9167 C218.4225 307.9086 229.0033 306.9184 229 306.9167 C228.9934 306.9131 196.9999 303.9167 197 303.9167 C197.0002 303.9166 236.9747 302.9151 237 302.9167 C237.0043 302.9169 233.346 305.4802 230 305.9167 C222.757 306.8614 214.0112 305.9231 214 305.9167 C213.9953 305.914 223.0056 301.9192 223 301.9167 C222.986 301.9105 204.9993 301.9171 205 301.9167 C205.0013 301.9159 219.6498 297.262 234 295.9167 C250.9896 294.3239 269 295.9167 269 295.9167 C269 295.9167 255.2589 298.1577 242 297.9167 C228.2047 297.6658 214.0429 294.9334 214 294.9167 C213.9876 294.9118 219.1871 292.1199 224 290.9167 C226.6252 290.2604 230.0017 290.9153 230 290.9167 C229.9961 290.9198 218.9977 294.9165 219 294.9167 C219.0073 294.9173 253 292.9167 253 292.9167 C253 292.9167 238.0018 292.919 238 292.9167 C237.9992 292.9156 244.1563 289.6707 250 288.9167 C258.871 287.772 269 288.9167 269 288.9167 C269 288.9167 254.2477 288.7984 240 286.9167 C227.9937 285.3309 215.9998 281.9167 216 281.9167 C216.0004 281.9166 240.3464 282.614 258 284.9167 C259.8287 285.1552 262.0191 287.8594 262 287.9167 C261.9427 288.0886 259.0068 290.2008 256 290.9167 C249.0694 292.5668 241 292.9167 241 292.9167 C241 292.9167 253.0004 291.9168 253 291.9167 C252.9994 291.9164 233.0911 289.947 233 289.9167 C232.9824 289.9108 235.677 287.1587 238 286.9167 C256.894 284.9485 280.9988 284.9191 281 284.9167 C281.0006 284.9155 243.2088 277.0002 243 276.9167 C242.9676 276.9037 247.0622 273.9011 251 272.9167 C256.3598 271.5767 263.0004 271.9141 263 271.9167 C262.9987 271.9244 249.9613 278.8973 250 278.9167 C250.1711 279.0022 289 284.9167 289 284.9167 C289 284.9167 255.069 278.9467 255 278.9167 C254.9825 278.9091 260.7197 276.4253 266 274.9167 C267.3046 274.5439 269 274.9167 269 274.9167 C269 274.9237 265.9924 276.9163 266 276.9167 C266.0599 276.9197 289.0004 275.9174 289 275.9167 C288.9993 275.9153 262.9976 270.9184 263 270.9167 C263.0043 270.9136 299.9972 267.9203 300 267.9167 C300.0016 267.9147 269.9998 261.917 270 261.9167 C270.0003 261.916 302.9959 261.9199 303 261.9167 C303.0023 261.9149 278.9981 254.9169 279 254.9167 C279.0046 254.9161 334 257.9167 334 257.9167 C334 257.9167 315 255.9167 315 255.9167 C315 255.9167 329.9997 256.9169 330 256.9167 C330.0002 256.9165 317.9996 253.9177 318 253.9167 C318.0018 253.9122 331.9946 251.9185 332 251.9167 C332.0017 251.9161 326.9998 250.9167 327 250.9167 C327.001 250.9166 347.9962 250.9172 348 250.9167 C348.0012 250.9165 340.9913 248.9241 341 248.9167 C341.0286 248.8921 355.0002 244.9175 355 244.9167 C354.987 244.8732 338.0011 238.9186 338 238.9167 C337.9993 238.9156 345.9939 238.8568 352 239.9167 C353.4205 240.1674 355.0047 241.9073 355 241.9167 C354.9577 242.0012 352.4487 243.6106 350 243.9167 C341.0796 245.0317 331 244.9165 331 244.9167 C331 244.9172 350.0012 248.9158 350 248.9167 C349.998 248.9181 324.0011 249.9161 324 249.9167 C323.9993 249.917 341.9227 252.889 342 252.9167 C342.0133 252.9214 339.8982 254.7269 338 254.9167 C326.2041 256.0963 312.0018 255.9176 312 255.9167 C311.9989 255.9161 330.0009 250.9173 330 250.9167 C329.9986 250.9157 317.2826 252.5804 306 251.9167 C301.2042 251.6346 295.9997 248.9167 296 248.9167 C296.0005 248.9166 304.7448 250.9167 313 250.9167 C320.7696 250.9167 329.0003 248.9145 329 248.9167 C328.9992 248.9226 311.9883 257.8231 312 257.9167 C312.0159 258.0442 331.0031 264.9161 331 264.9167 C330.993 264.918 291.0009 261.9168 291 261.9167 C290.9998 261.9166 296.7948 260.6564 302 260.9167 C306.3258 261.133 310.9791 262.8958 311 262.9167 C311.0057 262.9224 306 264.9167 306 264.9167 C306 264.9166 308.7137 262.2149 311 261.9167 C318.6333 260.921 329 261.9167 329 261.9167 C328.9999 261.9167 298.0001 258.9167 298 258.9167 C298 258.9167 306.9228 258.8781 307 258.9167 C307.0129 258.9231 303.9905 261.911 304 261.9167 C304.0631 261.9545 309.2875 261.1769 312 261.9167 C313.2946 262.2697 315.0373 264.9094 315 264.9167 C314.4667 265.0199 281.0011 267.9165 281 267.9167 C280.9997 267.9167 286.9793 267.9125 292 268.9167 C293.9724 269.3112 296.0092 270.9093 296 270.9167 C295.9595 270.9491 286.997 272.9129 287 272.9167 C287.0078 272.9264 300.001 275.915 300 275.9167 C299.9976 275.9206 291.8095 277.9167 284 277.9167 C273.75 277.9167 262.9994 275.9172 263 275.9167 C263.0009 275.9158 276.2471 273.1824 289 272.9167 C299.7446 272.6928 311 274.9167 311 274.9167 C311 274.9167 305.6615 275.7907 301 274.9167 C290.2203 272.8955 280.7131 269.5693 279 268.9167 C278.9832 268.9103 279.6164 266.9934 280 266.9167 C283.8905 266.1386 294 265.9167 294 265.9167 C294 265.9167 277.0001 265.9169 277 265.9167 C277 265.9166 285.3578 263.1632 293 262.9167 C300.0909 262.6879 308.0001 264.9158 308 264.9167 C307.9975 264.9394 300.0876 269.6356 292 271.9167 C281.1435 274.9788 269.0021 275.9155 269 275.9167 C268.9989 275.9173 283.0003 276.9165 283 276.9167 C282.9996 276.917 265.0004 278.9167 265 278.9167 C264.9998 278.9167 272.0013 276.9168 272 276.9167 C271.9947 276.9162 243 276.9167 243 276.9167 C243 276.9167 260.7547 275.8044 263 275.9167 C263.0113 275.9172 263.175 277.8167 263 277.9167 C261.7532 278.6291 256.0728 279.7712 256 279.9167 C255.9735 279.9696 259.4803 282.8772 260 283.9167 C260.1299 284.1765 259.5092 285.7348 259 285.9167 C254.8203 287.4094 252.3961 288.5613 246 288.9167 C226.0831 290.0232 205.0002 288.9166 205 288.9167 C204.9999 288.9167 229.006 291.4381 231 291.9167 C231.0209 291.9217 230.7202 294.3765 230 294.9167 C227.9501 296.4541 223 297.9167 223 297.9167 "/>
<path id="2" d="M161 336.9167 C161 336.9167 160.5587 331.9595 162 328.9167 C164.5156 323.6059 167.615 323.2167 170 317.9167 C171.5437 314.4862 171 308.9167 171 308.9167 C171 308.9167 172.1131 315.132 171 318.9167 C170.0571 322.1225 165.9998 325.9174 166 325.9167 C166.0008 325.9141 176.7939 299.2813 177 298.9167 C177.0178 298.8852 178.9065 301.1411 179 302.9167 C179.3403 309.3815 178.0017 317.9064 178 317.9167 C177.9997 317.9186 176.7516 315.3141 177 314.9167 C177.9151 313.4525 181.2913 312.3577 183 309.9167 C184.0587 308.4043 182.8765 306.2444 184 304.9167 C187.1634 301.1781 193.9745 296.9057 194 296.9167 C194.0067 296.9195 193.1937 303.0417 191 307.9167 C188.9217 312.5351 185 316.9167 185 316.9167 C185 316.9166 197.0001 294.917 197 294.9167 C197 294.9164 184.0016 311.9164 184 311.9167 C183.999 311.9168 190.9972 295.9199 191 295.9167 C191.0012 295.9152 191.4351 301.4315 190 304.9167 C188.4035 308.7939 184.0123 312.9342 184 312.9167 C183.9396 312.8304 183 294.9168 183 294.9167 C183 294.9166 184.5669 298.791 184 300.9167 C182.9783 304.7479 178.9977 309.9175 179 309.9167 C179.0048 309.9149 184.8918 302.4137 192 297.9167 C208.5765 287.4295 226.6604 279.4376 228 278.9167 C228.06 278.8933 228.7151 282.0573 228 283.9167 C226.5807 287.6068 224.7945 289.8658 223 291.9167 C222.7462 292.2067 221.0096 291.9647 221 291.9167 C220.7596 290.7147 220.0273 286.0507 221 281.9167 C221.7725 278.6338 224.9996 274.9167 225 274.9167 C225.0002 274.9167 224.6869 279.555 223 281.9167 C220.4553 285.4792 219.3027 286.0482 215 288.9167 C206.0549 294.8801 196.0008 299.9178 196 299.9167 C195.9975 299.9131 203.769 288.4938 210 281.9167 C210.9546 280.9091 213.7992 280.8163 214 280.9167 C214.0861 280.9597 214.4788 282.7994 214 283.9167 C211.8339 288.9708 208.0062 294.9142 208 294.9167 C207.9972 294.9178 207.6378 289.833 209 285.9167 C211.395 279.0312 211.6777 277.4397 216 271.9167 C219.9075 266.9238 221.3091 265.9993 227 262.9167 C232.437 259.9716 239.5876 258.7105 240 258.9167 C240.1499 258.9916 240.6763 265.0611 239 268.9167 C236.283 275.1659 229.9977 281.9163 230 281.9167 C230.0046 281.9173 245.9535 269.9244 246 269.9167 C246.0147 269.9142 244.2117 277.5039 242 279.9167 C240.6379 281.4026 235.1644 282.0811 235 281.9167 C234.7041 281.6208 233.8042 275.1589 235 272.9167 C236.3642 270.3589 238.938 268.9476 243 266.9167 C246.3234 265.255 251.0004 264.9163 251 264.9167 C250.9992 264.9174 237.0788 271.9324 237 271.9167 C236.9862 271.9139 238.2726 265.2722 241 262.9167 C247.1709 257.5873 250.1116 257.3609 259 252.9167 C260.739 252.0472 262.8924 251.8091 263 251.9167 C263.1793 252.096 263.854 255.4649 263 256.9167 C259.9457 262.1089 253.01 268.9138 253 268.9167 C252.9956 268.9179 254.1756 261.3492 256 258.9167 C256.968 257.6259 262.0055 256.9036 262 256.9167 C261.9775 256.9707 251 270.9167 251 270.9167 C251 270.9167 256.2592 261.7877 263 255.9167 C270.9207 249.018 281.4466 244.0041 282 243.9167 C282.0376 243.9107 283.2168 249.7879 282 252.9167 C280.4152 256.9919 276.4985 260.5846 275 261.9167 C274.889 262.0153 272.9979 260.9212 273 260.9167 C273.9402 258.9319 282.1253 245.3682 284 242.9167 C284.0376 242.8675 286.0085 243.8947 286 243.9167 C285.4613 245.3172 283.3946 252.3211 279 255.9167 C268.9993 264.0991 253.0602 270.9072 253 270.9167 C252.9811 270.9197 255.9239 263.5023 260 258.9167 C263.1316 255.3936 265.0316 255.0812 269 252.9167 C269.6467 252.5639 271.0066 252.8968 271 252.9167 C270.8942 253.2341 265.9864 261.9178 266 261.9167 C266.0423 261.9131 282.4515 252.1425 283 251.9167 C283.0321 251.9035 283.4682 254.2612 283 254.9167 C281.8184 256.5709 280.51 258.118 278 258.9167 C270.8157 261.2026 262.4306 262.0008 261 261.9167 C260.98 261.9155 260.3423 258.6939 261 257.9167 C264.0101 254.3593 267.1223 251.3555 272 248.9167 C274.2028 247.8152 278.9715 248.8215 279 248.9167 C279.1196 249.3154 274.9687 258.9278 275 258.9167 C275.1616 258.859 304.9821 239.895 307 238.9167 C307.0455 238.8946 308.4423 241.811 308 242.9167 C306.3046 247.1552 304.2286 250.3946 301 253.9167 C300.1349 254.8604 297.2531 254.98 297 254.9167 C296.9662 254.9082 296.6441 253.584 297 252.9167 C300.0727 247.1553 305.0003 239.9168 305 239.9167 C304.9776 239.9027 289.1428 247.9167 289 247.9167 C288.9732 247.9167 289.7956 241.8061 292 239.9167 C297.9422 234.8234 309.8788 229.9545 310 229.9167 C310.0204 229.9103 309.4556 233.4611 308 234.9167 C304.8808 238.0359 298.9992 240.9165 299 240.9167 C299.0014 240.917 312.9926 235.9048 313 235.9167 C313.0146 235.94 304.0006 248.9161 304 248.9167 C303.9997 248.9169 305.1949 243.4209 307 241.9167 C309.35 239.9583 313.7177 238.7411 316 238.9167 C317.1211 239.0029 320.1065 242.4553 320 242.9167 C319.6327 244.5084 313 251.9167 313 251.9167 C313 251.9166 319.3499 238.7907 327 229.9167 C330.7011 225.6233 337.6906 222.9448 338 222.9167 C338.0145 222.9154 338.868 226.7466 338 228.9167 C336.3507 233.0398 335.3646 234.5521 332 237.9167 C329.5327 240.384 325.2355 241.883 325 241.9167 C324.9867 241.9186 324.6073 239.3094 325 238.9167 C326.1781 237.7386 331 235.9144 331 235.9167 C331 235.922 325 242.9167 325 242.9167 C325 242.9167 328.8235 236.1104 333 232.9167 C336.0146 230.6114 337.6125 230.6479 342 229.9167 C346.1566 229.2239 347.8264 229.3397 351 229.9167 C351.8335 230.0682 353 231.3931 353 231.9167 C353 233.4875 352.1933 237.0488 351 237.9167 C349.0395 239.3425 342.6249 240.0555 342 239.9167 C341.9351 239.9022 341.5477 236.3125 342 235.9167 C343.3732 234.7151 350 232.9167 350 232.9167 C350 232.9166 341.043 234.9769 341 234.9167 C340.9403 234.8332 345.0344 225.9188 345 225.9167 C344.8048 225.9045 334.4481 230.6304 325 233.9167 C323.7559 234.3494 322.3526 234.2693 322 233.9167 C321.1772 233.0939 320.0338 228.8941 320 228.9167 C319.4162 229.3059 307.0002 243.9163 307 243.9167 C306.9999 243.9168 310.3424 240.2455 313 238.9167 C314.2506 238.2914 317.0016 238.9022 317 238.9167 C316.9653 239.2288 314.7874 245.3437 312 247.9167 C309.7443 249.9989 308.0802 249.8766 304 250.9167 C282.7958 256.3217 281.8208 254.4551 261 260.9167 C238.7465 267.8229 217 277.9167 217 277.9167 C217 277.9167 237 268.9167 237 268.9167 C237 268.9167 222.235 274.9167 222 274.9167 C221.9687 274.9167 222.4496 271.1561 224 268.9167 C226.4871 265.3242 231.0001 261.9164 231 261.9167 C230.9997 261.9173 219.9831 277.9135 220 277.9167 C220.0517 277.9264 246.898 264.9113 247 264.9167 C247.0281 264.9182 239 278.9167 239 278.9167 "/>
</g>
</g>
</svg>
