<?xml version="1.0" encoding="utf-8"?>
<!DOCTYPE svg PUBLIC "-//W3C//DTD SVG 1.1//EN" "http://www.w3.org/Graphics/SVG/1.1/DTD/svg11.dtd">
<svg viewBox="0 0 800 800" preserveAspectRatio="xMinYMin meet" xmlns="http://www.w3.org/2000/svg" version="1.1">
<g fill="none" stroke="black" stroke-linecap="round" stroke-linejoin="round" stroke-width="1.8049">
<g transform="translate(87.52,218.8281) scale(1.6621) translate(-156,-96)">
<path id="0" d="M236 257 C236 257 219.0639 267.0763 205 279 C196.6688 286.0634 195.9007 290.9844 190 296 C188.9982 296.8515 185.0025 296.0075 185 296 C184.9975 295.9925 186.8507 294.1312 189 293 C205.5455 284.2919 206.5533 285.2332 223 276 C234.8678 269.3374 233.8458 266.4306 246 261 C303.0621 235.5042 306.8888 240.0121 364 213 C417.1564 187.8584 419.8789 185.0386 468 156 C474.9001 151.8361 479.9989 143.0008 480 143 C480.0005 142.9996 478.5517 147.4483 476 150 C470.2007 155.7993 469.2139 157.9802 462 161 C449.6191 166.1827 445.6678 161.9994 433 168 C400.0719 183.5975 400.2212 188.4348 367 206 C357.2643 211.1476 356.0705 211.1227 346 214 C342.9727 214.865 341.7082 212.9584 339 214 C330.1612 217.3995 329.2746 221.6813 320 224 C307.2744 227.1814 302.9057 222.1036 291 226 C278.4592 230.1043 278.2901 235.4963 265 242 C255.4044 246.6957 244 249 244 249 "/>
<path id="1" d="M237 253 C237 253 238.7859 254.1338 239 254 C240.5183 253.051 245 248 245 248 "/>
<path id="2" d="M237 252 C237 252 249.5578 244.7236 258 236 C263.5106 230.3057 261.5894 227.3944 267 221 C277.6004 208.4722 280.5843 208.6175 291 197 C292.5545 195.2662 293 191.9997 293 192 C293 192.0006 290.9831 202.996 291 203 C291.4976 203.1171 301.2056 200.539 310 196 C331.7412 184.7787 333.4441 183.4825 353 171 C355.3854 169.4774 356.9997 165.999 357 166 C357.0006 166.0019 353.9475 173.9975 354 174 C354.474 174.0226 366.4494 171.3813 378 167 C395.1988 160.4763 395.4632 160.2684 412 152 C432.3223 141.8389 433.1337 141.6971 452 130 C457.4798 126.6025 461.9986 121.0007 462 121 C462.0007 120.9997 457.9768 126.9916 458 127 C458.1824 127.0663 466.3629 127.4765 473 125 C498.5355 115.4718 500.5757 114.0052 525 102 C528.8386 100.1132 532 96 532 96 C531.9999 96.0001 510.1723 118.5407 510 119 C509.9786 119.057 523 119.9768 523 120 C523 120.3712 510 136 510 136 "/>
<path id="3" d="M252 264 C252 264 336.0342 263.4721 340 263 C340.1318 262.9843 335.8846 254.0907 336 254 C336.7354 253.4222 346.2881 255.0046 354 252 C382.709 240.8147 405.0503 228.6025 413 224 C413.0946 223.9452 410.858 219.1006 411 219 C414.1774 216.7494 425.0057 214.2877 437 207 C463.9758 190.6096 465.4387 190.5307 490 171 C506.205 158.1141 520 141 520 141 "/>
<path id="4" d="M201 280 C201 280 198.231 279.4724 197 280 C195.6811 280.5653 194.0129 282.9614 194 283 C193.9979 283.0064 195.4511 283.3659 196 283 C200.2083 280.1944 206 275 206 275 C206 275 185.9999 291.9995 186 292 C186.0001 292.0003 207 280 207 280 C207 280 202.0917 281.2948 199 284 C186.9022 294.5856 175.989 307.1693 175 308 C174.966 308.0286 173.8006 305.1994 174 305 C175.9943 303.0057 181.5386 301.6738 186 297 C191.1806 291.5727 189.9363 287.8225 195 283 C199.0164 279.1749 201.8724 280.7471 207 277 C214.3543 271.6257 221 264 221 264 C221.0002 264.0002 210.0009 279.9989 210 280 C209.9998 280.0003 210.6728 275.8382 212 275 C217.5118 271.5188 228.9999 268 229 268 C229.0001 268 215.0008 276 215 276 C214.9995 276 224 268 224 268 C224 268 208.0034 279.9979 208 280 C207.9992 280.0005 209.2321 276.9241 211 276 C228.6869 266.7546 247.2971 259.469 252 257 C252.0046 256.9976 251.042 254.9874 251 255 C249.8982 255.3305 246.63 258.4035 242 260 C232.621 263.2341 222.0001 265.0005 222 265 C221.9981 264.9913 231.383 256.8752 240 251 C241.4646 250.0014 243.9994 249.9971 244 250 C244.0158 250.0791 242.9552 253.867 241 256 C238.0206 259.2503 233.0018 261.9993 233 262 C232.9992 262.0003 234.4241 258.7354 236 258 C240.339 255.9751 242.8446 257.1228 248 255 C250.5892 253.9339 253 251 253 251 C253 251 244.1835 257.8981 244 258 C243.9842 258.0088 243.8803 256.0399 244 256 C250.4616 253.8461 261.307 251.9557 277 247 C279.604 246.1777 282.0005 243.9999 282 244 C281.998 244.0005 270.563 247.9191 260 251 C259.1213 251.2563 258.0153 251.0306 258 251 C257.9771 250.9542 258.4304 249.2191 259 249 C277.6467 241.8282 310 231 310 231 C310 231 277.9219 242.4347 276 243 C275.9699 243.0089 275.8166 241.088 276 241 C281.6938 238.267 289.9506 236.5247 301 231 C303.7623 229.6188 306.0128 225.9982 306 226 C305.9206 226.0109 272 235 272 235 C272 235 294.8618 229.9655 295 230 C295.0302 230.0075 288.0444 238.9556 288 239 C287.9945 239.0055 287.8671 237.0475 288 237 C296.6807 233.8997 330 224 330 224 C330 224 309.9996 229.0002 310 229 C310.0007 228.9995 347 213 347 213 "/>
<path id="5" d="M284 232 C284 232 281.5974 235.1044 279 236 C268.3859 239.66 264.907 238.2422 255 242 C252.3997 242.9863 252.6955 245.4838 250 247 C245.4284 249.5715 242.6357 248.7626 239 251 C237.795 251.7415 237.0042 254.9958 237 255 C236.9986 255.0014 236.7812 253.1225 237 253 C243.196 249.5303 261.9389 241 262 241 C262.0196 241 254.004 252.9954 254 253 C253.999 253.0012 255.0962 249.077 255 249 C254.7376 248.7901 250.0763 248.037 249 249 C243.9395 253.5278 241.7369 260.565 236 266 C234.6306 267.2973 231.8597 265.9668 230 267 C228.5185 267.823 228.2767 270.4326 227 271 C225.3967 271.7126 222.4295 269.9603 221 271 C214.4155 275.7888 205.0446 286.9643 205 287 C204.9935 287.0052 206 283 206 283 "/>
<path id="6" d="M210 278 C210 278 196.2123 291.266 183 299 C177.7019 302.1013 173.466 299.8983 169 302 C167.4488 302.73 166 307 166 307 C166 307 167.7526 303.5559 170 302 C173.5449 299.5458 175.3093 300.6842 179 298 C185.7334 293.1029 192 286 192 286 C192 286 183.7003 296.3437 175 304 C171.948 306.6858 169.5219 306.0385 167 308 C166.2434 308.5884 165.9915 311.0017 166 311 C166.0363 310.9927 169.6266 309.3734 172 307 C175.7974 303.2026 177.5015 299.332 179 298 C179.111 297.9013 181.0038 298.991 181 299 C180.781 299.5111 178.8506 303.2896 176 305 C167.5807 310.0516 156.0001 314 156 314 C155.9999 314 162.2387 311.1344 166 308 C167.3373 306.8855 166.6897 304.7862 168 304 C178.8397 297.4962 183.3663 297.7206 196 290 C200.4544 287.2778 199.6489 285.1079 204 282 C209.7108 277.9209 212.1293 278.5718 217 275 C218.3251 274.0283 219 271 219 271 "/>
<path id="7" d="M452 162 C452 162 467.9999 158.0003 468 158 C468.0001 157.9998 459.8487 157.5732 453 159 C448.5718 159.9225 443.9999 163.0001 444 163 C444.0003 162.9998 452.5068 155.4972 461 152 C468.1937 149.0379 472.3878 151.6841 478 149 C480.9914 147.5693 484 141 484 141 C483.9999 141.0001 472.434 157.5755 463 163 C457.512 166.1556 452.2937 161.7192 444 164 C433.7808 166.8103 423 174 423 174 C423 174 447.0002 160.9998 447 161 C446.9998 161.0003 414.0011 184.9985 414 185 C413.9994 185.0009 428.3885 181.2086 438 174 C450.7408 164.4444 460.5951 150.2925 462 149 C462.0251 148.9769 463.0526 150.9474 463 151 C462.6321 151.3679 458 153 458 153 C458 153 464.9479 151.0312 465 151 C465.0089 150.9947 463.1889 149.8677 463 150 C461.0234 151.3836 454.9995 158.0002 455 158 C455.0009 157.9996 463.7364 150.9043 473 146 C480.2946 142.1382 488.9993 140.0003 489 140 C489.0002 139.9999 485.2803 139.6749 483 141 C450.9815 159.6053 444.8319 166.2941 415 183 C412.7183 184.2778 410.8902 182.1499 408 183 C403.2639 184.393 402.4149 184.9792 398 188 C393.2388 191.2577 388.9907 196.0005 389 196 C389.0293 195.9985 406.5193 191.664 418 187 C419.626 186.3394 421.0089 182.9973 421 183 C420.9382 183.0188 395.0002 194.0001 395 194 C394.9999 193.9999 416.9998 181.0001 417 181 C417.0002 181 409.84 188.8243 403 192 C397.6559 194.4812 389.0259 194.0026 389 194 C388.9931 193.9993 393.0001 191 393 191 C392.9996 191.0002 374 200.9999 374 201 C374 201.0001 392.8196 194.0318 393 194 C393.0241 193.9957 392.356 196.9152 391 198 C385.9413 202.047 378.0001 206 378 206 C377.9999 206 387.6462 198.398 388 198 C388.0163 197.9817 386.481 196.8219 386 197 C377.4193 200.178 361 208 361 208 C361 208 385 199.9999 385 200 C385.0001 200.0003 366.8331 210.8734 362 213 C361.8115 213.0829 359.9537 211.3242 360 211 C360.1467 209.9733 363.0014 206.0005 363 206 C362.9951 205.9984 359.8897 209.2395 357 210 C351.5656 211.4301 344 211 344 211 C344 211 360.989 207.9908 361 208 C361.0033 208.0027 355.6385 212.8989 350 216 C346.1007 218.1446 341 219 341 219 C341 219 352.0534 215.4733 355 214 C355.1786 213.9107 355.0218 211.9921 355 212 C354.6047 212.1437 349.3516 216.5592 344 218 C337.5226 219.7439 329.0022 218.9996 329 219 C328.9993 219.0001 332.5113 220.4962 334 220 C336.7648 219.0784 341 214.9989 341 215 C341 215.0019 333.9999 223.9999 334 224 C334.0036 224.0027 345.0021 218 345 218 C344.9948 218 318 224 318 224 "/>
</g>
</g>
</svg>
