<?xml version="1.0" encoding="utf-8"?>
<!DOCTYPE svg PUBLIC "-//W3C//DTD SVG 1.1//EN" "http://www.w3.org/Graphics/SVG/1.1/DTD/svg11.dtd">
<svg viewBox="0 0 800 800" preserveAspectRatio="xMinYMin meet" xmlns="http://www.w3.org/2000/svg" version="1.1">
<g fill="none" stroke="black" stroke-linecap="round" stroke-linejoin="round" stroke-width="1.0273">
<g transform="translate(87.52,148.8479) scale(2.9204) translate(-200,-179.4167)">
<path id="0" d="M236 316.4167 C236 316.4167 235.6247 311.4567 237 307.4167 C243.3472 288.7717 241.9693 285.7933 252 269.4167 C265.3548 247.613 267.4229 245.463 286 227.4167 C301.2137 212.6377 303.2421 211.3746 322 201.4167 C342.3482 190.6146 344.4789 190.3861 367 184.4167 C384.8897 179.6748 405 179.4167 405 179.4167 "/>
<path id="1" d="M239 320.4167 C239 320.4167 263.1166 316.5954 268 315.4167 C268.078 315.3978 267.8396 313.4825 268 313.4167 C280.6184 308.2341 298.8313 305.6776 324 292.4167 C343.4223 282.1834 342.785 278.7285 361 264.4167 C370.747 256.7583 371.9784 257.2827 380 248.4167 C390.4385 236.8794 392.306 236.0075 399 222.4167 C408.0676 204.0068 413 181.4167 413 181.4167 "/>
<path id="2" d="M407 179.4167 L414 179.4167 "/>
<path id="3" d="M237 321.4167 C237 321.4167 234.5225 320.9688 234 321.4167 C232.4076 322.7816 232.4945 325.4382 230 327.4167 C219.0398 336.1093 216.0524 335.5748 205 344.4167 C201.9649 346.8448 200 351.4167 200 351.4167 "/>
<path id="4" d="M244 294.4167 L243 306.4167 "/>
<path id="5" d="M251 278.4167 L249 294.4167 "/>
<path id="6" d="M258 262.4167 L256 280.4167 "/>
<path id="7" d="M271 249.4167 L269 270.4167 "/>
<path id="8" d="M282 233.4167 L278 265.4167 "/>
<path id="9" d="M297 222.4167 L297 254.4167 "/>
<path id="10" d="M311 210.4167 L307 243.4167 "/>
<path id="11" d="M330 200.4167 C330 200.4167 325.4841 212.7058 323 224.4167 C322.1227 228.5524 323 233.4167 323 233.4167 "/>
<path id="12" d="M345 193.4167 L334 225.4167 "/>
<path id="13" d="M359 190.4167 L346 227.4167 "/>
<path id="14" d="M377 184.4167 L364 214.4167 "/>
<path id="15" d="M253 307.4167 L271 310.4167 "/>
<path id="16" d="M262 300.4167 L286 301.4167 "/>
<path id="17" d="M268 295.4167 L304 295.4167 "/>
<path id="18" d="M280 287.4167 L325 286.4167 "/>
<path id="19" d="M297 280.4167 L336 279.4167 "/>
<path id="20" d="M308 270.4167 L351 270.4167 "/>
<path id="21" d="M324 260.4167 L366 258.4167 "/>
<path id="22" d="M346 247.4167 C346 247.4167 353.2463 248.2825 360 247.4167 C372.3694 245.8308 385 242.4167 385 242.4167 "/>
<path id="23" d="M361 232.4167 L392 232.4167 "/>
<path id="24" d="M374 216.4167 L395 215.4167 "/>
<path id="25" d="M383 204.4167 L406 203.4167 "/>
<path id="26" d="M388 180.4167 L387 192.4167 "/>
</g>
</g>
</svg>
