<?xml version="1.0" encoding="utf-8"?>
<!DOCTYPE svg PUBLIC "-//W3C//DTD SVG 1.1//EN" "http://www.w3.org/Graphics/SVG/1.1/DTD/svg11.dtd">
<svg viewBox="0 0 800 800" preserveAspectRatio="xMinYMin meet" xmlns="http://www.w3.org/2000/svg" version="1.1">
<g fill="none" stroke="black" stroke-linecap="round" stroke-linejoin="round" stroke-width="1.8433">
<g transform="translate(87.52,344.665) scale(1.6275) translate(-127,-158)">
<path id="0" d="M132 203 C132 203 132.577 207.082 134 208 C144.5317 214.7947 148.4808 216.6257 163 223 C168.4335 225.3854 169.1167 225.6848 175 226 C196.2869 227.1404 197.543 227.1098 219 226 C225.9029 225.643 227.2719 225.9834 233 223 C249.7317 214.2856 251.8361 202.5233 267 201 C344.4736 193.2173 360.1415 201.9095 452 201 C460.4509 200.9163 461.8185 201.8455 469 199 C486.5692 192.0386 491.2104 189.8497 505 180 C508.8547 177.2466 510.0221 173.1562 511 169 C511.4357 167.1484 510.4558 164.2318 509 163 C505.8669 160.3489 503.2601 158.9741 498 158 C490.943 156.6931 489.5467 156.6484 482 158 C456.9313 162.4899 456.5268 166.1597 431 170 C400.6647 174.5637 399.9492 173.6059 369 175 C344.6287 176.0978 344.1494 173.4077 320 175 C299.1055 176.3777 298.8681 178.7641 278 181 C271.1488 181.7341 265.715 181.245 264 181 C263.965 180.995 264.0427 179.0067 264 179 C261.4115 178.5913 250.2226 178.7834 245 178 C244.6455 177.9468 244.3089 176.0294 244 176 C238.811 175.5058 226.4752 176.2475 224 176 C223.9752 175.9975 224.0119 174.0006 224 174 C218.7619 173.7506 202.3357 172.0763 182 174 C166.1855 175.496 164.9859 176.3377 150 181 C143.345 183.0704 142.8513 183.9296 137 188 C131.6755 191.704 128.355 194.7982 127 197 C126.7524 197.4024 127.6347 199.8297 129 201 C133.7427 205.0652 141 209 141 209 "/>
</g>
</g>
</svg>
