<?xml version="1.0" encoding="utf-8"?>
<!DOCTYPE svg PUBLIC "-//W3C//DTD SVG 1.1//EN" "http://www.w3.org/Graphics/SVG/1.1/DTD/svg11.dtd">
<svg viewBox="0 0 800 800" preserveAspectRatio="xMinYMin meet" xmlns="http://www.w3.org/2000/svg" version="1.1">
<g fill="none" stroke="black" stroke-linecap="round" stroke-linejoin="round" stroke-width="1.9969">
<g transform="translate(87.52,98.7873) scale(1.5023) translate(-72,-51.7)">
<path id="0" d="M223 229.7 C223 229.7 244.0188 253.9608 266 276.7 C272.8252 283.7605 274.5958 282.5196 281 289.7 C290.7244 300.6031 289.2168 302.5192 299 313.7 C317.0281 334.3036 317.3431 334.4402 337 353.7 C366.7555 382.8543 366.4201 384.1729 398 410.7 C415.8898 425.7275 420.3437 427.2414 437 437.7 C438.1907 438.4477 439.5769 437.0114 441 437.7 C453.1878 443.5973 456.3865 448.0546 468 452.7 C470.6746 453.7698 473.2169 453.2307 476 451.7 C481.6965 448.5669 486.5484 445.4742 488 441.7 C489.5127 437.7669 488.7215 431.143 486 425.7 C483.1184 419.9368 478.3909 420.4265 474 413.7 C455.6583 385.6021 457.1113 383.1308 439 353.7 C433.2249 344.3155 433.2038 343.9844 426 335.7 C403.416 309.7284 402.8692 309.8092 379 284.7 C364.4013 269.3429 365.1823 267.3834 349 254.7 C329.0582 239.0699 325.1286 241.8789 305 226.7 C295.5489 219.5729 297.0802 216.4044 288 208.7 C281.111 202.8548 280.2304 202.2591 272 198.7 C262.4453 194.5682 251 192.7 251 192.7 "/>
<path id="1" d="M253 192.7 C253 192.7 252.9802 180.8388 251 169.7 C249.0443 158.6989 248.1997 158.6322 245 147.7 C242.2044 138.1483 242.7884 137.6975 239 128.7 C234.9152 118.9985 235.5635 117.0989 229 109.7 C209.4727 87.6874 206.8259 86.4309 184 66.7 C178.1899 61.6777 177.2216 61.709 170 58.7 C159.6189 54.3746 158.7283 52.9113 148 51.7 C129.1704 49.5741 127.4289 50.6003 108 51.7 C101.6031 52.0621 99.9519 52.2241 95 54.7 C91.4141 56.4929 90.205 57.791 88 61.7 C79.8511 76.1457 76.6935 78.2334 73 93.7 C69.3421 109.0174 69.1611 112.8023 72 128.7 C76.2277 152.3753 77.4663 155.1962 88 177.7 C98.8352 200.8479 101.2746 201.9334 116 222.7 C120.0415 228.3996 121.2068 228.7501 127 232.7 C131.6848 235.8942 132.5832 236.8737 138 237.7 C160.3852 241.1147 162.1244 240.7698 186 241.7 C200.3589 242.2594 203.736 243.2994 215 240.7 C219.5649 239.6466 222.1931 235.7875 225 232.7 C225.4927 232.158 225 229.7 225 229.7 "/>
</g>
</g>
</svg>
