<?xml version="1.0" encoding="utf-8"?>
<!DOCTYPE svg PUBLIC "-//W3C//DTD SVG 1.1//EN" "http://www.w3.org/Graphics/SVG/1.1/DTD/svg11.dtd">
<svg viewBox="0 0 800 800" preserveAspectRatio="xMinYMin meet" xmlns="http://www.w3.org/2000/svg" version="1.1">
<g fill="none" stroke="black" stroke-linecap="round" stroke-linejoin="round" stroke-width="1.7425">
<g transform="translate(87.52,257.1028) scale(1.7217) translate(-163,-158)">
<path id="0" d="M245,233C245,233 235.914721058727,231.96625851213912 229,234C220.23802494002467,236.57705148822805 218.90538898375757,237.4662277113697 211,243C199.51603987133154,251.0387720900679 198.02489731459155,255.40488273164462 189,262C187.99400930255356,262.7351470481339 185.91944074184042,261.2968982562397 185,262C179.7267369217976,266.03249529509594 177.6454965381293,268.07143606684133 172,275C166.89512400947808,281.2650750792769 164.6673901510067,282.51570496830726 163,289C160.85370970054302,297.3466844978882 160.98571472252973,302.1946445498027 163,310C164.15720843897677,314.48418270103496 166.84538288366622,316.9994431937589 171,320C174.32066112582882,322.39825525754304 176.12441080626107,322.7399685763339 181,323C212.21784734416315,324.6649518583554 214.47470570723615,324.8083408793016 246,324C252.34486980635737,323.8373110306062 253.66333525329932,323.7491909301185 259,321C268.98401029695253,315.85672196823657 270.8401899880785,315.1598100119215 279,307C291.9596982542282,294.0403017457718 292.5322096147973,292.1602481440867 303,277C306.4732085685054,271.9698358663025 307.2003743577799,270.75730462398485 308,265C309.51176489032423,254.11529278966535 309.5210518077075,250.12631084624502 308,241C307.5669227491944,238.40153649516634 305.76793900510483,236.69151828089738 303,235C297.87221556105584,231.86635395397855 296.28553261301766,230.982114470784 290,230C281.33423168091894,228.6459737001436 279.91638915755373,229.0446725902621 271,230C266.62560607120014,230.4686850638 266.1861762105565,232.87687717027774 262,233C250.5117235386669,233.33789048415684 237,231 237,231"/>
<path id="1" d="M301,231C301,231 308.6240117904773,231.10364756024802 314,229C318.9689733293065,227.05561913201052 318.70659544988507,224.09910870090763 324,222C346.5166142266696,213.0709978066655 348.88979567229756,214.9458855462074 372,206C379.2907192224299,203.17778610744648 378.7163709381631,200.52903786869336 386,198C413.74170307409906,188.36746421038225 415.8976483676628,188.13044742910048 444,181C448.05885461899384,179.9701413653299 448.83120375438284,181.87253874908265 453,181C469.6213245658586,177.52111811412263 472.48384383340095,176.70794254051861 487,172C488.5621339359371,171.4933619667231 488.399545901333,169.57452198413688 490,169C505.6824370171269,163.37040722462112 524.130700455444,157.42882513916342 526,158C526.384996161517,158.11763771601912 526.8180929138945,173.4552566888442 526,180C525.911683151341,180.7065347892725 524.5879208324832,181.36483166700674 523,182C514.8932462762701,185.24270148949193 514.5786551584622,185.957463057509 506,188C493.91894816185555,190.8764409138439 492.73322291321704,188.91230975967971 481,192C474.434135864725,193.7278589829671 474.1785061228176,196.14644816315473 468,198C465.07773359055926,198.87667992283224 463.2521340212865,197.18104217407765 461,198C459.2450903730235,198.63814895526417 458.8965653321023,201.58275562693748 457,202C438.5240336294788,206.06471260151466 433.44049100335036,204.25905119647527 411,209C398.38512890793566,211.6651136109995 397.4747073148072,212.08226829365407 386,217C380.75277203192234,219.248811986319 381.2151072964088,222.3464293938216 376,224C342.7003428319126,234.5584278825643 304,243 304,243"/>
</g>
</g>
</svg>
