<?xml version="1.0" encoding="utf-8"?>
<!DOCTYPE svg PUBLIC "-//W3C//DTD SVG 1.1//EN" "http://www.w3.org/Graphics/SVG/1.1/DTD/svg11.dtd">
<svg viewBox="0 0 800 800" preserveAspectRatio="xMinYMin meet" xmlns="http://www.w3.org/2000/svg" version="1.1">
<g fill="none" stroke="black" stroke-linecap="round" stroke-linejoin="round" stroke-width="1.8961">
<g transform="translate(87.52,245.7377) scale(1.5822) translate(-83,-138)">
<path id="0" d="M83 166 C83 166 101.6847 172.4678 119 181 C135.9047 189.3299 134.8635 192.8724 152 200 C190.3959 215.97 192.4413 215.5078 232 228 C238.9603 230.198 240.0939 227.7555 247 230 C279.1256 240.4408 279.2919 242.9894 312 254 C329.6192 259.9312 348 264 348 264 "/>
<path id="1" d="M89 165 C89 165 89.7435 159.8079 92 156 C97.3815 146.9187 104.2262 137.7384 105 138 C113.0788 140.7309 132.6318 163.6313 163 180 C201.1592 200.5681 204.2788 199.879 246 214 C268.2427 221.5283 270.5359 216.8523 293 224 C324.7631 234.1064 327.2186 237.0447 356 249 C357.1102 249.4612 358.0569 250.8863 358 251 C357.346 252.3081 351 259 351 259 "/>
<path id="2" d="M341 241 C341 241 347.851 242.0248 354 241 C368.2688 238.6219 368.6996 235.7259 383 234 C396.8956 232.3229 398.8686 231.8561 412 234 C421.6476 235.5751 423.0713 236.866 432 242 C442.3896 247.974 443.7425 248.5194 452 257 C461.474 266.7301 461.9554 268.0783 469 280 C474.6105 289.4947 475.6722 290.9128 478 301 C479.8157 308.868 480.1909 315.0564 478 319 C475.8902 322.7976 470.6086 325.4019 463 328 C451.3356 331.983 449.8836 331.8497 437 333 C422.3852 334.3049 421.739 333.9212 407 333 C398.0645 332.4415 397.2039 332.92 389 330 C368.6034 322.7402 367.4981 321.9263 348 312 C340.5796 308.2223 338.8733 307.8105 334 302 C327.0371 293.6981 324.0107 289.9365 322 281 C320.4453 274.0902 325 262 325 262 "/>
<path id="3" d="M380 264 C380 264 393.7609 263.8032 406 266 C412.4529 267.1582 413.5471 267.5667 419 271 C426.2789 275.583 428.913 277.5507 433 283 C434.5894 285.1192 434.8783 289.118 434 291 C432.7487 293.6814 429.5386 297.0473 426 298 C419.5562 299.7349 416.6896 298.8409 408 298 C401.584 297.3791 400.9821 297.1753 395 295 C390.4073 293.3299 389.074 292.8178 386 290 C384.0764 288.2367 383.4245 286.8298 383 284 C382.0787 277.8577 383 270 383 270 "/>
</g>
</g>
</svg>
