<?xml version="1.0" encoding="utf-8"?>
<!DOCTYPE svg PUBLIC "-//W3C//DTD SVG 1.1//EN" "http://www.w3.org/Graphics/SVG/1.1/DTD/svg11.dtd">
<svg viewBox="0 0 800 800" preserveAspectRatio="xMinYMin meet" xmlns="http://www.w3.org/2000/svg" version="1.1">
<g fill="none" stroke="black" stroke-linecap="round" stroke-linejoin="round" stroke-width="2.8322">
<g transform="translate(87.52,188.1492) scale(1.0593) translate(-21,-28.1333)">
<path id="0" d="M148 297.1333 C148 297.1333 146.7246 305.7705 143 312.1333 C135.2874 325.3091 135.2935 328.4342 124 338.1333 C94.9353 363.0947 88.7188 359.8892 58 385.1333 C39.0373 400.7165 37.4557 404.3335 23 421.1333 C21.0933 423.3493 20.8883 427.7425 21 428.1333 C21.0199 428.2028 23.2549 428.6319 25 428.1333 C33.1648 425.8005 34.7193 426.5459 42 422.1333 C66.5577 407.2499 67.2876 405.9873 91 388.1333 C109.6229 374.1114 110.5244 370.5905 127 358.1333 C128.6161 356.9114 130.5502 358.3657 132 357.1333 C147.6257 343.8515 148.7603 339.6273 167 324.1333 C195.0907 300.2713 225 278.1333 225 278.1333 "/>
<path id="1" d="M150 301.1333 C150 301.1333 159.8371 284.8831 166 269.1333 C168.3811 263.0482 168 255.1333 168 255.1333 "/>
<path id="2" d="M139 237.1333 C139 237.1333 153.0431 242.385 166 249.1333 C176.8218 254.7697 176.2148 257.117 187 262.1333 C197.0711 266.8176 198.823 264.4083 209 269.1333 C226.2591 277.1465 242.4403 287.9759 243 288.1333 C243.0685 288.1526 242.7622 282.1611 241 278.1333 C239.6733 275.1009 238.7333 273.8416 236 272.1333 C231.783 269.4977 230.5342 269.163 225 268.1333 C209.57 265.2626 206.8334 269.1134 193 264.1333 C171.7866 256.4965 169.6853 249.8403 150 241.1333 C146.6681 239.6596 142.1215 241.8063 141 241.1333 C140.4268 240.7894 139.9174 235.6287 140 235.1333 C140.0047 235.105 141.0817 234.9147 142 235.1333 C161.4594 239.7665 163.3024 239.2903 182 245.1333 C186.146 246.429 187.4427 247.0966 190 250.1333 C194.5182 255.4987 198 264.1333 198 264.1333 "/>
<path id="3" d="M184 244.1333 C184 244.1333 203.9904 225.0356 226 210.1333 C251.384 192.9463 252.7282 193.6783 280 179.1333 C289.9756 173.813 291.6224 175.4473 301 170.1333 C305.8625 167.3779 305.0701 165.2862 310 162.1333 C347.3887 138.222 347.993 137.4231 387 115.1333 C407.2815 103.5439 407.673 103.7422 429 94.1333 C453.0413 83.3015 453.2056 83.1295 478 74.1333 C509.5654 62.6804 510.7126 64.7343 542 53.1333 C554.8352 48.3742 554.1945 45.773 567 41.1333 C588.254 33.4326 610.991 28.1345 611 28.1333 C611.003 28.1329 604.2092 33.5287 597 37.1333 C590.5702 40.3483 588.8464 38.7229 583 42.1333 C577.7296 45.2077 578.4854 47.705 573 51.1333 C551.1463 64.7919 550.5607 65.4227 527 77.1333 C466.2907 107.3084 464.1972 104.2385 404 135.1333 C370.1058 152.5287 370.7056 154.2256 338 174.1333 C324.753 182.1968 324.2434 181.7897 312 191.1333 C286.4634 210.6218 287.5936 212.7741 262 232.1333 C248.8529 242.078 246.0842 240.0163 234 250.1333 C225.5633 257.1966 219 268.1333 219 268.1333 "/>
</g>
</g>
</svg>
