<?xml version="1.0" encoding="utf-8"?>
<!DOCTYPE svg PUBLIC "-//W3C//DTD SVG 1.1//EN" "http://www.w3.org/Graphics/SVG/1.1/DTD/svg11.dtd">
<svg viewBox="0 0 800 800" preserveAspectRatio="xMinYMin meet" xmlns="http://www.w3.org/2000/svg" version="1.1">
<g fill="none" stroke="black" stroke-linecap="round" stroke-linejoin="round" stroke-width="1.7041">
<g transform="translate(172.0216,87.52) scale(1.7605) translate(-192,-38)">
<path id="0" d="M248 281 C248 281 237.0227 294.9331 229 310 C216.7529 333.0006 216.2011 334.7972 207 358 C205.3136 362.2527 204.8227 365.7632 206 368 C207.8378 371.4919 216.4965 377.3021 217 377 C220.7759 374.7344 233.1747 362.8285 241 347 C253.8763 320.9548 261.2693 297.4241 261 288 C260.9464 286.1244 249.1274 283.4447 239 277 C227.5392 269.7068 226.7815 269.1887 217 260 C210.7782 254.1553 210.5358 253.1277 206 246 C203.8597 242.6367 203.4581 241.6647 203 238 C202.5693 234.5541 203.9978 229.9997 204 230 C204.5174 230.069 212.5267 234.0829 218 240 C230.2285 253.22 228.6889 256.4263 241 270 C247.6593 277.3424 248.6126 277.6626 257 283 C264.6335 287.8577 265.3838 288.6348 274 291 C290.0003 295.3922 291.0605 295.3976 308 297 C327.648 298.8586 335.6741 296.8261 348 298 C348.7027 298.0669 350.1709 300.4447 350 301 C349.1512 303.7587 347.3926 308.7383 344 311 C338.1076 314.9282 334.7744 315.4958 326 317 C318.161 318.3438 316.315 318.9811 309 317 C294.146 312.977 291.4151 311.992 278 304 C269.366 298.8564 263.6337 293.901 262 289 C260.6877 285.0631 262.8934 278.3204 267 271 C273.533 259.3542 274.912 257.8902 285 248 C299.7954 233.4947 301.0076 233.7833 318 221 C355.4119 192.8553 357.7557 194.9289 394 166 C411.6964 151.8753 412.262 150.7031 427 134 C434.135 125.9137 434.7884 124.8272 439 115 C444.9063 101.2187 445.6723 99.9358 448 85 C451.5184 62.4233 452.0055 38.511 451 38 C448.3102 36.633 416.8788 43.9246 387 54 C375.6403 57.8306 375.0105 59.8049 365 67 C359.5107 70.9455 358.5756 71.3703 355 77 C335.8661 107.1258 334.2552 108.2356 318 141 C302.5266 172.1885 305.672 174.1342 291 206 C273.7502 243.4644 254 280 254 280 "/>
<path id="1" d="M262 280 C262 280 268.6141 257.8435 280 240 C301.289 206.6367 303.2582 205.9554 329 175 C342.3757 158.9153 345.6588 161.0094 359 145 C375.252 125.4976 373.1334 122.6608 389 103 C395.6889 94.7116 396.5073 94.1765 405 88 C412.4311 82.5956 422 79 422 79 "/>
<path id="2" d="M237 300 L257 309 "/>
<path id="3" d="M235 310 L256 321 "/>
<path id="4" d="M225 323 L250 333 "/>
<path id="5" d="M220 335 L244 348 "/>
<path id="6" d="M213 348 L236 359 "/>
<path id="7" d="M207 366 C207 366 201.9235 365.6357 199 367 C195.6161 368.5792 192.7311 371.099 192 373 C191.4759 374.3626 192.325 378.7115 194 380 C201.7121 385.9324 217.8952 392.9738 218 393 C218.0231 393.0058 213.6803 386.8118 214 385 C214.4487 382.4576 221 376 221 376 "/>
</g>
</g>
</svg>
