<?xml version="1.0" encoding="utf-8"?>
<!DOCTYPE svg PUBLIC "-//W3C//DTD SVG 1.1//EN" "http://www.w3.org/Graphics/SVG/1.1/DTD/svg11.dtd">
<svg viewBox="0 0 800 800" preserveAspectRatio="xMinYMin meet" xmlns="http://www.w3.org/2000/svg" version="1.1">
<g fill="none" stroke="black" stroke-linecap="round" stroke-linejoin="round" stroke-width="1.4017">
<g transform="translate(261.9523,87.52) scale(2.1403) translate(-214,-93.1333)">
<path id="0" d="M271 178.1333 L293 178.1333 "/>
<path id="1" d="M294 180.1333 C294 180.1333 291.2984 185.7616 291 191.1333 C289.8508 211.8186 292.5055 214.5623 291 234.1333 C290.6741 238.3696 287.3778 238.8836 287 243.1333 C285.5464 259.4862 289.1414 262.614 287 279.1333 C285.8753 287.8094 281.7361 288.137 280 297.1333 C276.4317 315.6236 279.3288 321.1537 276 336.1333 C275.388 338.8872 271.4955 338.9928 270 342.1333 C267.1457 348.1273 268.509 352.1153 266 357.1333 C265.1883 358.7568 262.5394 358.2387 261 360.1333 C256.7496 365.3646 253 373.1333 253 373.1333 "/>
<path id="2" d="M271 179.1333 C271 179.1333 271.6564 215.3552 270 251.1333 C269.1681 269.1029 269.8595 269.8672 266 287.1333 C260.5234 311.6341 259.3422 312.0692 251 336.1333 C246.4113 349.3701 245.8198 351.8632 240 362.1333 C238.6639 364.4911 235.2081 363.9588 234 366.1333 C231.3276 370.9437 232.7274 377.5423 230 380.1333 C226.7287 383.241 213.9979 385.1318 214 385.1333 C214.0039 385.1361 227.9753 387.5083 237 385.1333 C243.9182 383.3127 248.3725 379.0027 252 375.1333 C252.9045 374.1685 252 369.1333 252 369.1333 "/>
<path id="3" d="M294 178.1333 L328 177.1333 "/>
<path id="4" d="M236 176.1333 L275 177.1333 "/>
<path id="5" d="M236 176.1333 C236 176.1333 229.1297 176.012 228 175.1333 C227.2707 174.5661 226.7513 169.2826 227 169.1333 C228.7028 168.1117 235.1026 166.3449 243 166.1333 C290.1476 164.8705 304.0853 164.7367 339 166.1333 C340.513 166.1939 342.4583 168.8695 343 170.1333 C343.2437 170.7021 342.3402 173.0604 342 173.1333 C339.3084 173.7101 331.6916 172.5566 329 173.1333 C328.6598 173.2062 327.999 176.134 328 176.1333 C328.0024 176.1317 332.0023 171.1403 332 171.1333 C331.9998 171.1327 327 173.1333 327 173.1333 "/>
<path id="6" d="M329 177.1333 L338 174.1333 "/>
<path id="7" d="M277 164.1333 L277 118.1333 "/>
<path id="8" d="M287 162.1333 L287 116.1333 "/>
<path id="9" d="M289 116.1333 C289 116.1333 292.0428 103.9304 291 99.1333 C290.5265 96.9551 287.1099 93.9815 284 93.1333 C278.5987 91.6602 274.1427 91.8476 269 93.1333 C266.8572 93.669 264.5357 95.9905 264 98.1333 C262.7143 103.2761 262.5334 110.8112 264 113.1333 C265.1321 114.9258 276 117.1333 276 117.1333 "/>
<path id="10" d="M287 164.1333 C287 164.1333 286.8843 168.5395 288 170.1333 C289.3655 172.084 292.7673 172.4897 294 174.1333 C294.5801 174.9068 294 178.1333 294 178.1333 "/>
<path id="11" d="M279 163.1333 C279 163.1333 278.6645 169.0422 277 172.1333 C275.8946 174.1863 272 176.1333 272 176.1333 "/>
</g>
</g>
</svg>
