<?xml version="1.0" encoding="utf-8"?>
<!DOCTYPE svg PUBLIC "-//W3C//DTD SVG 1.1//EN" "http://www.w3.org/Graphics/SVG/1.1/DTD/svg11.dtd">
<svg viewBox="0 0 800 800" preserveAspectRatio="xMinYMin meet" xmlns="http://www.w3.org/2000/svg" version="1.1">
<g fill="none" stroke="black" stroke-linecap="round" stroke-linejoin="round" stroke-width="1.7713">
<g transform="translate(91.7541,87.52) scale(1.6937) translate(-130,-30.1333)">
<path id="0" d="M205 300.1333 C205 300.1333 287.3298 209.1903 372 121.1333 C399.6192 92.4093 400.5321 93.0388 430 66.1333 C446.4684 51.097 447.892 49.0226 464 37.1333 C466.755 35.0998 472 35.1333 472 35.1333 "/>
<path id="1" d="M472 39.1333 C472 39.1333 477.1021 34.9378 482 33.1333 C485.7579 31.7489 491 32.1333 491 32.1333 "/>
<path id="2" d="M494 30.1333 L489 58.1333 "/>
<path id="3" d="M490 64.1333 C490 64.1333 409.7963 140.4334 334 220.1333 C293.5993 262.6148 257 309.1333 257 309.1333 "/>
<path id="4" d="M262 305.1333 L240 323.1333 "/>
<path id="5" d="M205 299.1333 C205 299.1333 200.6859 296.567 197 296.1333 C193.0805 295.6722 190.7788 295.6513 188 297.1333 C185.1629 298.6465 182.7102 302.1803 182 304.1333 C181.7469 304.8295 184 308.1333 184 308.1333 "/>
<path id="6" d="M184 307.1333 C184 307.1333 190.8506 308.8048 193 311.1333 C195.0554 313.36 196 320.1333 196 320.1333 "/>
<path id="7" d="M192 295.1333 C192 295.1333 180.3389 284.992 170 279.1333 C167.149 277.5178 165.4355 277.5358 162 278.1333 C155.0335 279.3449 152.8404 280.0595 147 283.1333 C144.8033 284.2895 144.0251 285.6732 143 288.1333 C141.8596 290.8702 141.3649 293.969 142 295.1333 C142.7692 296.5436 145.7238 298.4436 149 299.1333 C154.0133 300.1888 155.8238 298.0981 161 299.1333 C164.7959 299.8925 166.4197 300.7876 169 303.1333 C170.8747 304.8376 172 309.1333 172 309.1333 "/>
<path id="8" d="M173 305.1333 C173 305.1333 193.485 331.5375 205 341.1333 C206.7025 342.5521 215 340.1333 215 340.1333 "/>
<path id="9" d="M244 323.1333 C244 323.1333 246.9227 327.8243 248 332.1333 C248.7541 335.1497 248.8067 336.3098 248 339.1333 C247.0616 342.4179 245.6465 344.8527 244 346.1333 C243.1283 346.8113 240.0465 346.8944 239 346.1333 C236.5265 344.3344 235.7349 339.364 233 338.1333 C228.8834 336.2809 219 337.1333 219 337.1333 "/>
<path id="10" d="M221 338.1333 C221 338.1333 204.8635 337.0651 199 334.1333 C196.9233 333.095 195 325.1333 195 325.1333 "/>
<path id="11" d="M250 345.1333 C250 345.1333 258.4751 357.0164 262 368.1333 C264.4087 375.7301 263.8945 378.6789 263 386.1333 C262.6258 389.2518 260.224 392.6626 259 393.1333 C257.4947 393.7123 251.3765 392.8922 250 391.1333 C245.7316 385.6793 246.6129 377.7873 241 370.1333 C237.2309 364.9937 233.5708 366.2915 228 361.1333 C220.4755 354.1662 217.0262 347.9704 214 345.1333 C213.8891 345.0294 212 346.1333 212 346.1333 "/>
<path id="12" d="M185 321.1333 C185 321.1333 175.8257 331.1155 172 340.1333 C169.749 345.4392 171 354.1333 171 354.1333 "/>
<path id="13" d="M219 354.1333 C219 354.1333 220.1333 355.9001 220 356.1333 C219.267 357.416 217.7668 359.4733 215 361.1333 C208.3598 365.1175 207.3858 365.7699 200 368.1333 C195.5788 369.5481 190 369.1333 190 369.1333 "/>
<path id="14" d="M169 349.1333 C169 349.1333 162.1629 350.9372 157 354.1333 C152.228 357.0874 151.4964 357.6009 148 362.1333 C138.4333 374.5346 136.4937 377.2282 130 389.1333 C128.9418 391.0734 129.2626 394.314 130 395.1333 C131.487 396.7856 134.8465 398.6141 139 399.1333 C145.5036 399.9463 149.7744 400.6104 154 398.1333 C160.3384 394.4177 160.2861 388.7453 168 382.1333 C177.1852 374.2603 189 368.1333 189 368.1333 "/>
<path id="15" d="M212 300.1333 L210 299.1333 "/>
<path id="16" d="M212 300.1333 C212 300.1333 209.007 298.1192 209 298.1333 C208.8521 298.4292 206.894 304.9733 208 308.1333 C209.4671 312.3249 211.6481 315.0248 216 318.1333 C220.7625 321.5351 222.7104 321.8754 229 323.1333 C234.3911 324.2116 241 323.1333 241 323.1333 "/>
<path id="17" d="M215 320.1333 C215 320.1333 326.0226 198.1048 437 79.1333 C443.2065 72.4798 451 67.1333 451 67.1333 "/>
<path id="18" d="M207 346.1333 C207 346.1333 201.4461 347.9318 199 350.1333 C197.6293 351.3669 196.9411 355.0941 197 355.1333 C197.515 355.4767 208 356.1333 208 356.1333 "/>
<path id="19" d="M188 328.1333 C188 328.1333 182.1143 344.1616 182 345.1333 C181.997 345.1592 184.9912 345.8058 186 345.1333 C189.3626 342.8916 194 337.1333 194 337.1333 "/>
<path id="20" d="M146 292.1333 C146 292.1333 160.3871 290.1188 169 293.1333 C176.949 295.9155 186 306.1333 186 306.1333 "/>
<path id="21" d="M221 340.1333 C221 340.1333 237.0634 354.6286 250 369.1333 C252.7275 372.1915 252.9613 373.1862 254 377.1333 C255.2924 382.0443 255 388.1333 255 388.1333 "/>
<path id="22" d="M200 339.1333 C200 339.1333 191.8353 351.559 182 360.1333 C173.2413 367.7691 169.5635 365.4262 161 373.1333 C150.6033 382.4904 142 396.1333 142 396.1333 "/>
</g>
</g>
</svg>
