<?xml version="1.0" encoding="utf-8"?>
<!DOCTYPE svg PUBLIC "-//W3C//DTD SVG 1.1//EN" "http://www.w3.org/Graphics/SVG/1.1/DTD/svg11.dtd">
<svg viewBox="0 0 800 800" preserveAspectRatio="xMinYMin meet" xmlns="http://www.w3.org/2000/svg" version="1.1">
<g fill="none" stroke="black" stroke-linecap="round" stroke-linejoin="round" stroke-width="1.0065">
<g transform="translate(264.3767,87.52) scale(2.9807) translate(-143.5,-47.8333)">
<path id="0" d="M189.5 47.8333 C189.5 47.8333 186.8426 47.1621 185.5 47.8333 C180.1297 50.5185 173.5 55.8333 173.5 55.8333 "/>
<path id="1" d="M190.5 47.8333 L204.5 60.8333 "/>
<path id="2" d="M173.5 56.8333 C173.5 56.8333 174.1093 100.784 172.5 143.8333 C172.1281 153.781 169.5 163.8333 169.5 163.8333 "/>
<path id="3" d="M204.5 61.8333 C204.5 61.8333 201.8307 70.4004 201.5 78.8333 C199.8571 120.7274 200.5 163.8333 200.5 163.8333 "/>
<path id="4" d="M190.5 48.8333 L184.5 163.8333 "/>
<path id="5" d="M163.5 156.1667 C163.5 156.1667 163.9018 162.4232 165.5 164.1667 C167.491 166.3386 170.2481 167.7801 174.5 168.1667 C190.3929 169.6115 195.309 169.8561 209.5 168.1667 C212.5795 167.8001 214.5666 165.5834 216.5 163.1667 C217.5579 161.8443 217.5 158.1667 217.5 158.1667 "/>
<path id="6" d="M162.5 157.1667 C162.5 157.1667 158.3243 157.0057 156.5 158.1667 C154.0759 159.7093 153.1189 161.1987 151.5 164.1667 C150.4713 166.0526 150.1623 167.8159 150.5 169.1667 C150.7666 170.233 152.1804 171.9583 153.5 172.1667 C166.9762 174.2945 171.0323 174.5033 188.5 175.1667 C210.3881 175.9979 222.2769 176.2779 232.5 175.1667 C233.091 175.1024 234.8138 171.4217 234.5 170.1667 C233.9248 167.8658 232.3548 165.3078 229.5 163.1667 C225.3919 160.0856 218.5 158.1667 218.5 158.1667 "/>
<path id="7" d="M179.5 174.8333 C179.5 174.8333 175.3399 182.2109 173.5 189.8333 C168.474 210.6552 165.5 232.8333 165.5 232.8333 "/>
<path id="8" d="M185.5 175.8333 C185.5 175.8333 186.8622 190.0527 186.5 199.8333 C186.4535 201.088 184.5873 201.5246 184.5 202.8333 C183.7482 214.1111 185.5921 217.8202 184.5 229.8333 C184.2463 232.6243 181.5 235.8333 181.5 235.8333 "/>
<path id="9" d="M164.5 234.5 C164.5 234.5 149.7271 233.4936 145.5 234.5 C144.7902 234.669 143.5 237.4165 143.5 239.5 C143.5 243.2503 143.588 246.588 145.5 248.5 C149.8454 252.8454 153.9783 255.509 161.5 257.5 C168.8652 259.4496 173.6848 259.5769 179.5 257.5 C183.8845 255.9341 188.8958 250.5208 189.5 247.5 C190.2049 243.9757 184.5 232.5 184.5 232.5 "/>
</g>
</g>
</svg>
