<?xml version="1.0" encoding="utf-8"?>
<!DOCTYPE svg PUBLIC "-//W3C//DTD SVG 1.1//EN" "http://www.w3.org/Graphics/SVG/1.1/DTD/svg11.dtd">
<svg viewBox="0 0 800 800" preserveAspectRatio="xMinYMin meet" xmlns="http://www.w3.org/2000/svg" version="1.1">
<g fill="none" stroke="black" stroke-linecap="round" stroke-linejoin="round" stroke-width="1.9729">
<g transform="translate(87.52,320.9296) scale(1.5206) translate(-104,-175)">
<path id="0" d="M172 249 C172 249 286.7865 213.9032 401 184 C423.2063 178.186 424.0328 178.8964 447 177 C478.1462 174.4283 510 175 510 175 "/>
<path id="1" d="M176 261 C176 261 191.6228 255.3457 207 253 C220.4359 250.9505 222.8229 254.5487 235 252 C242.1978 250.4935 242.2287 246.9142 250 244 C273.7455 235.0954 274.2949 233.893 299 228 C328.1809 221.0394 329.6477 224.6187 359 218 C380.1845 213.2231 379.9101 209.995 401 205 C417.4607 201.1014 418.6104 204.1693 435 200 C475.0101 189.822 515 176 515 176 "/>
<path id="2" d="M168 231 C168 231 168.7666 246.8878 172 256 C173.0383 258.9261 176.9214 258.7089 179 262 C182.2229 267.1028 184.364 273.453 184 275 C183.8117 275.8004 175.0189 279.0364 175 279 C174.0488 277.1655 173.6554 262.6217 170 248 C168.3565 241.4259 165.5822 240.0631 164 235 C163.7141 234.0852 164.2798 232.5402 165 232 C167.0499 230.4626 168.6632 230.001 172 229 C173.2671 228.6199 175 229 175 229 C175 229 173.0678 228.8644 173 229 C172.5594 229.8813 172 235 172 235 "/>
<path id="3" d="M169 252 C169 252 142.4248 258.9376 117 266 C115.9638 266.2878 115 266.8534 115 267 C115 267.7331 116.8198 272.03 117 272 C126.3472 270.4421 175 257 175 257 "/>
<path id="4" d="M116 270 C116 270 112.0124 264.7572 109 263 C107.641 262.2073 104.0699 262.8252 104 263 C103.6645 263.8389 103.4815 270.4691 105 273 C106.4039 275.3399 109.2861 276.762 113 278 C115.6894 278.8965 119.4398 278.6225 120 278 C121.0493 276.8341 122 268 122 268 "/>
</g>
</g>
</svg>
