<?xml version="1.0" encoding="utf-8"?>
<!DOCTYPE svg PUBLIC "-//W3C//DTD SVG 1.1//EN" "http://www.w3.org/Graphics/SVG/1.1/DTD/svg11.dtd">
<svg viewBox="0 0 800 800" preserveAspectRatio="xMinYMin meet" xmlns="http://www.w3.org/2000/svg" version="1.1">
<g fill="none" stroke="black" stroke-linecap="round" stroke-linejoin="round" stroke-width="1.8049">
<g transform="translate(87.52,158.9915) scale(1.6621) translate(-91,-76)">
<path id="0" d="M444 84 C444 84 435.7023 85.5473 429 89 C419.7786 93.7504 418.1192 93.749 411 101 C392.2031 120.145 395.1481 125.5666 375 144 C325.8787 188.9408 270 230 270 230 "/>
<path id="1" d="M441 84 C441 84 466.9182 75.8948 467 76 C467.1116 76.1435 462.0592 90.0537 455 102 C449.3953 111.4849 449.1169 112.6614 441 120 C413.5457 144.8217 409.8312 142.9519 382 168 C370.3991 178.4408 372.0609 180.6877 361 192 C350.1985 203.047 350.4498 204.5341 338 213 C313.8217 229.4412 286 243 286 243 "/>
<path id="2" d="M271 230 C271 230 268.0106 224.713 264 222 C251.9968 213.8802 237.6259 206.8556 237 207 C236.8977 207.0236 235.4249 218.8032 238 228 C241.9498 242.1064 243.2136 243.7631 251 257 C257.7991 268.5584 259.5215 271.889 268 279 C272.1506 282.4811 275.4748 282.55 282 283 C288.7932 283.4685 296.3332 282.0771 297 281 C298.0494 279.3048 298.6521 268.7672 295 262 C283.856 241.3507 263 218 263 218 "/>
<path id="3" d="M241 248 C241 248 236.7713 249.6974 235 252 C232.5171 255.2278 233.8155 257.5725 231 261 C223.0692 270.6549 222.2428 271.9839 212 280 C199.8112 289.5391 199.0116 289.9008 185 297 C161.9288 308.6894 159.8561 305.9441 137 318 C114.8539 329.6814 114.7301 331.4804 94 345 C92.3047 346.1056 91.0515 346.9697 91 348 C90.7236 353.5278 91.785 361.3551 93 365 C93.1605 365.4814 96.0277 366.5336 97 366 C126.0855 350.0385 136.6679 343.8281 175 320 C192.0084 309.4272 190.8491 307.054 208 297 C233.9809 281.7698 262 269 262 269 "/>
<path id="4" d="M280 234 C280 234 289.6001 221.5612 301 212 C320.1179 195.9656 321.2356 195.9688 342 182 C348.3496 177.7284 350.0683 179.5297 356 175 C376.7665 159.1419 375.922 156.5814 397 140 C413.2637 127.2059 431 116 431 116 "/>
</g>
</g>
</svg>
