<?xml version="1.0" encoding="utf-8"?>
<!DOCTYPE svg PUBLIC "-//W3C//DTD SVG 1.1//EN" "http://www.w3.org/Graphics/SVG/1.1/DTD/svg11.dtd">
<svg viewBox="0 0 800 800" preserveAspectRatio="xMinYMin meet" xmlns="http://www.w3.org/2000/svg" version="1.1">
<g fill="none" stroke="black" stroke-linecap="round" stroke-linejoin="round" stroke-width="1.2193">
<g transform="translate(214.2343,87.52) scale(2.4605) translate(-91,-113.4167)">
<path id="0" d="M102 343.4167 C102 343.4167 97.8114 342.5933 96 343.4167 C93.8044 344.4147 91.3601 346.436 91 348.4167 C89.9751 354.0538 90.9911 359.0271 92 365.4167 C92.1362 366.2791 93.2715 367.385 94 367.4167 C101.3153 367.7347 108.0729 368.0792 115 366.4167 C116.6959 366.0097 118.5801 363.6209 119 361.4167 C120.1659 355.2958 117.8216 352.1924 119 345.4167 C119.5668 342.1577 120.4421 341.2221 123 338.4167 C135.4008 324.8158 139.079 324.5219 150 311.4167 C152.5372 308.372 153 302.4167 153 302.4167 "/>
<path id="1" d="M106 344.4167 C106 344.4167 109.9415 341.2396 112 337.4167 C120.0637 322.4411 118.0481 318.7001 127 305.4167 C132.2685 297.5989 143 291.4167 143 291.4167 "/>
<path id="2" d="M102 342.4167 L105 342.4167 "/>
<path id="3" d="M140 284.4167 C140 284.4167 141.0356 290.9701 144 295.4167 C150.4348 305.0689 153.2837 304.8725 160 314.4167 C162.2442 317.6058 162.7136 322.3212 163 322.4167 C163.219 322.4897 169.1288 317.6918 169 317.4167 C165.7616 310.4984 142.7672 277.5829 141 275.4167 C140.9577 275.3648 138.2697 277.7987 138 279.4167 C137.5306 282.2332 139 287.4167 139 287.4167 "/>
<path id="4" d="M149 288.4167 L157 272.4167 "/>
<path id="5" d="M153 278.4167 C153 278.4167 171.1654 255.8087 187 232.4167 C192.9124 223.6825 192.9659 223.2293 197 213.4167 C211.3307 178.5582 215.6749 175.7171 224 142.4167 C227.0516 130.2101 221.9922 113.4162 222 113.4167 C222.0469 113.4193 237.5316 129.5648 242 143.4167 C245.9227 155.5769 245.6752 162.0023 242 175.4167 C236.6619 194.9008 233.166 196.8761 222 216.4167 C213.3897 231.4847 212.426 231.3109 202 245.4167 C195.4876 254.2276 195.8369 255.3836 188 262.4167 C176.9762 272.3098 173.2353 270.458 163 280.4167 C155.8945 287.3301 154.8889 290.3148 151 298.4167 C149.8543 300.8036 151.6996 304.3672 151 305.4167 C150.4003 306.3162 145 307.4167 145 307.4167 "/>
</g>
</g>
</svg>
