<?xml version="1.0" encoding="utf-8"?>
<!DOCTYPE svg PUBLIC "-//W3C//DTD SVG 1.1//EN" "http://www.w3.org/Graphics/SVG/1.1/DTD/svg11.dtd">
<svg viewBox="0 0 800 800" preserveAspectRatio="xMinYMin meet" xmlns="http://www.w3.org/2000/svg" version="1.1">
<g fill="none" stroke="black" stroke-linecap="round" stroke-linejoin="round" stroke-width="2.6354">
<g transform="translate(87.52,143.8689) scale(1.1384) translate(-91.5,-31.3333)">
<path id="0" d="M94.5 187.3333 C94.5 187.3333 114.4687 179.1939 131.5 171.3333 C132.6216 170.8157 133.5385 169.5256 133.5 169.3333 C133.4135 168.9006 131.0352 167.832 130.5 166.3333 C128.96 162.0213 128.5 160.4108 128.5 155.3333 C128.5 151.1791 128.4263 148.2688 130.5 146.3333 C139.619 137.8223 158.5 127.3333 158.5 127.3333 "/>
<path id="1" d="M93.5 192.3333 C93.5 192.3333 129.4433 188.9925 130.5 189.3333 C130.553 189.3504 127.6105 197.6676 124.5 202.3333 C123.6461 203.6141 122.371 204.1254 120.5 204.3333 C114.2961 205.0227 111.4922 206.2269 106.5 204.3333 C99.6634 201.7402 91.4998 193.3333 91.5 193.3333 C91.5003 193.3334 105.7275 205.8783 117.5 207.3333 C144.0883 210.6195 180.5 204.3333 180.5 204.3333 "/>
<path id="2" d="M109.5 209.3333 C109.5 209.3333 113.7585 218.1133 119.5 224.3333 C125.1686 230.4744 127.2802 234.0663 133.5 235.3333 C148.819 238.4539 154.176 237.2385 173.5 235.3333 C188.8095 233.8239 189.6273 229.8206 204.5 228.3333 C213.3204 227.4513 217.3128 228.8602 223.5 230.3333 C224.3623 230.5386 225.4595 232.0773 225.5 233.3333 C225.8698 244.7964 228.093 249.9554 224.5 261.3333 C220.1389 275.1433 212.6574 280.0184 207.5 290.3333 C207.1562 291.021 207.7988 292.8871 208.5 293.3333 C211.5239 295.2576 218.5 297.3333 218.5 297.3333 "/>
<path id="3" d="M226.5 302.3333 L211.5 328.3333 "/>
<path id="4" d="M219.5 323.3333 C219.5 323.3333 218.6838 326.5376 219.5 328.3333 C223.0173 336.0713 223.9896 337.3432 229.5 345.3333 C233.8574 351.6516 234.1471 351.9804 239.5 357.3333 C242.9064 360.7398 245.5032 362.6072 247.5 363.3333 C247.9457 363.4954 250.5 361.3333 250.5 361.3333 "/>
<path id="5" d="M241.5 342.3333 C241.5 342.3333 243.5923 346.1275 246.5 348.3333 C257.501 356.6789 270.5 364.3333 270.5 364.3333 "/>
<path id="6" d="M266.5 347.3333 C266.5 347.3333 274.7007 352.534 280.5 358.3333 C283.0517 360.885 283.8103 362.0571 284.5 365.3333 C285.5554 370.3466 285.9556 372.3196 284.5 377.3333 C281.8784 386.3634 278.0423 387.2941 275.5 396.3333 C273.965 401.791 274.0234 405.1145 275.5 409.3333 C276.5734 412.4001 280.97 413.2734 282.5 416.3333 C283.52 418.3733 283.4257 420.5562 282.5 423.3333 C280.7808 428.4908 277.8852 428.9906 276.5 434.3333 C274.7062 441.2521 277.1969 446.0912 275.5 450.3333 C274.7964 452.0923 269.9479 452.242 268.5 454.3333 C266.8003 456.7884 266.0964 460.5084 266.5 463.3333 C266.758 465.1395 268.8094 467.2767 270.5 468.3333 C271.4491 468.9265 273.1044 468.9846 274.5 468.3333 C279.4777 466.0104 285.4938 461.3357 285.5 461.3333 C285.502 461.3326 282.5 464.1021 282.5 465.3333 C282.5 468.1036 284.1624 473.5308 285.5 474.3333 C287.4108 475.4798 292.7023 475.3995 297.5 474.3333 C300.2542 473.7213 303.5 470.3333 303.5 470.3333 "/>
<path id="7" d="M310.5 308.3333 C310.5 308.3333 319.6461 321.8618 321.5 334.3333 C324.72 355.9954 320.1027 358.9288 321.5 382.3333 C322.06 391.7141 324.7775 391.941 325.5 401.3333 C326.7348 417.3863 322.7688 422.043 325.5 434.3333 C326.6771 439.6302 333.7911 441.2067 335.5 446.3333 C337.1346 451.2371 336.2085 456.452 334.5 461.3333 C333.7098 463.5911 331.546 465.1729 328.5 466.3333 C322.2795 468.703 320.3064 467.4427 313.5 469.3333 C311.9715 469.7579 310.923 470.4874 310.5 471.3333 C310.0166 472.3002 309.9453 474.6994 310.5 475.3333 C311.904 476.9379 314.2543 478.834 317.5 479.3333 C325.5979 480.5792 330.1344 481.5921 336.5 479.3333 C341.828 477.4427 347.613 468.2446 348.5 468.3333 C349.2568 468.409 353.6994 479.8664 356.5 481.3333 C358.7603 482.5173 368.1701 480.5609 369.5 479.3333 C370.3269 478.5701 370.3298 473.2055 369.5 469.3333 C369.1148 467.5355 366.5657 467.0097 366.5 465.3333 C364.9348 425.4201 367.1971 411.4587 365.5 367.3333 C365.3941 364.5809 362.5467 363.9958 362.5 361.3333 C362.1067 338.9145 365.263 333.2238 364.5 310.3333 C364.3632 306.2286 360.9746 305.6046 360.5 301.3333 C359.1432 289.1226 362.3021 286.9479 360.5 274.3333 C358.9649 263.5876 355.3801 263.0766 353.5 252.3333 C352.0429 244.007 353.5 234.3333 353.5 234.3333 "/>
<path id="8" d="M370.5 305.3333 C370.5 305.3333 373.2845 309.4418 376.5 311.3333 C381.0057 313.9838 382.3837 315.0775 387.5 315.3333 C400.7018 315.9934 402.5166 315.5707 416.5 313.3333 C426.9732 311.6576 428.0722 311.7804 437.5 307.3333 C453.7056 299.6892 453.1883 296.4892 469.5 288.3333 C479.7194 283.2236 480.9206 281.1713 491.5 280.3333 C528.426 277.4085 560.7252 279.3435 570.5 280.3333 C570.6002 280.3435 571.5437 286.395 570.5 288.3333 C569.3559 290.458 563.5 293.3333 563.5 293.3333 "/>
<path id="9" d="M493.5 287.3333 C493.5 287.3333 491.6541 333.4199 492.5 372.3333 C492.5703 375.5687 493.3606 376.9087 495.5 379.3333 C500.0657 384.5078 505.2212 384.6129 507.5 389.3333 C510.3809 395.3008 511.7824 401.7397 509.5 408.3333 C504.5228 422.7118 497.4454 431.328 489.5 441.3333 C488.4339 442.6758 482.5 442.3333 482.5 442.3333 "/>
<path id="10" d="M481.5 442.3333 C481.5 442.3333 477.6555 450.4676 477.5 452.3333 C477.4737 452.6493 479.2638 454.245 480.5 454.3333 C484.7986 454.6404 491.418 453.2104 491.5 453.3333 C491.5863 453.4628 486.2958 461.8016 486.5 463.3333 C486.6298 464.3071 490.302 467.4918 493.5 468.3333 C498.1149 469.5478 500.7023 469.3995 505.5 468.3333 C508.2542 467.7213 509.4608 466.5992 511.5 464.3333 C513.3874 462.2362 514.1838 461.2241 514.5 458.3333 C517.4198 431.6383 515.6267 429.0666 518.5 400.3333 C519.6021 389.3124 522.3152 389.1435 522.5 378.3333 C523.2952 331.8143 520.5 283.3333 520.5 283.3333 "/>
<path id="11" d="M565.5 294.3333 C565.5 294.3333 556.86 318.0716 553.5 341.3333 C550.5253 361.9273 552.2365 382.8651 552.5 384.3333 C552.5158 384.4213 560.5009 380.33 560.5 380.3333 C560.4979 380.3406 553.316 385.9359 550.5 391.3333 C548.2351 395.6744 547.877 399.8031 548.5 403.3333 C548.8146 405.1163 551.58 407.6933 553.5 408.3333 C555.42 408.9733 559.1998 408.1459 560.5 407.3333 C561.0968 406.9603 561.5 403.3333 561.5 403.3333 C561.5 403.3335 560.0878 414.0162 560.5 414.3333 C561.2309 414.8956 572.6609 412.7203 574.5 413.3333 C574.9037 413.4679 574.6164 418.7442 575.5 419.3333 C578.4455 421.297 585.9245 424.3549 589.5 423.3333 C594.3469 421.9485 600.0702 417.4709 603.5 411.3333 C607.7898 403.6569 607.8599 400.2153 608.5 389.3333 C611.2885 341.9292 614.1513 337.808 610.5 292.3333 C608.9525 273.0596 601.4096 272.1421 597.5 252.3333 C594.1572 235.3964 599.6174 231.8342 595.5 216.3333 C591.8951 202.7618 588.9823 198.7949 580.5 188.3333 C576.0305 182.821 571.311 184.6973 565.5 179.3333 C559.3054 173.6153 559.2336 172.1438 554.5 164.3333 C549.3758 155.8783 547.747 154.4788 545.5 146.3333 C544.3235 142.0686 546.1724 135.4644 546.5 135.3333 C547.228 135.0422 554.794 136.7195 560.5 140.3333 C568.7654 145.5681 567.9688 148.2839 576.5 154.3333 C595.1658 167.5691 599.3678 164.9656 615.5 179.3333 C629.5874 191.8799 634.9279 196.8458 640.5 211.3333 C644.9186 222.8216 641.0564 243.8696 640.5 244.3333 C640.2336 244.5553 616.98 231.0933 616.5 231.3333 C616.1572 231.5048 616.588 255.8493 616.5 256.3333 C616.492 256.3773 612.5 253.3333 612.5 253.3333 "/>
<path id="12" d="M560.5 125.3333 C560.5 125.3333 578.1476 129.5783 593.5 136.3333 C602.3609 140.2321 602.5167 141.2919 610.5 147.3333 C620.8604 155.1737 623.7623 155.1251 630.5 164.3333 C637.1702 173.4492 640.5 188.3333 640.5 188.3333 "/>
<path id="13" d="M614.5 258.3333 C614.5 258.3333 615.9724 263.1894 616.5 263.3333 C617.8262 263.695 621.3457 261.3333 625.5 261.3333 C630.5774 261.3333 633.7284 263.8877 636.5 263.3333 C637.8073 263.0719 640.5 258.3333 640.5 258.3333 "/>
<path id="14" d="M610.5 238.3333 L616.5 240.3333 "/>
<path id="15" d="M610.5 248.3333 C610.5 248.3333 616.2376 248.5432 616.5 248.3333 C616.5962 248.2564 615.5 244.3333 615.5 244.3333 "/>
<path id="16" d="M609.5 237.3333 C609.5 237.3333 609.3019 241.5377 610.5 244.3333 C611.9746 247.7741 615.5 251.3333 615.5 251.3333 "/>
<path id="17" d="M612.5 251.3333 C612.5 251.3333 616.3981 258.2994 616.5 258.3333 C616.5054 258.3351 618.5 253.3333 618.5 253.3333 "/>
<path id="18" d="M560.5 125.3333 C560.5 125.3333 547.0933 118.0197 533.5 114.3333 C518.3775 110.2323 517.2077 112.7165 501.5 109.3333 C484.9083 105.7597 484.696 101.9529 468.5 100.3333 C441.2677 97.6101 439.6043 98.9789 411.5 100.3333 C398.5855 100.9557 396.331 101.2871 385.5 104.3333 C382.5427 105.1651 382.7044 108.0516 379.5 109.3333 C364.1188 115.4858 361.9575 118.1679 345.5 120.3333 C326.0613 122.8911 322.2187 122.6017 303.5 119.3333 C293.4045 117.5706 292.2229 114.8893 282.5 109.3333 C278.7044 107.1644 275.5 103.3333 275.5 103.3333 "/>
<path id="19" d="M256.5 103.3333 C256.5 103.3333 255.1273 91.6378 257.5 83.3333 C259.5552 76.14 261.4997 73.8892 266.5 68.3333 C269.3357 65.1826 272.0276 63.4669 275.5 63.3333 C281.8637 63.0886 285.7055 63.9361 292.5 67.3333 C299.1157 70.6412 298.7889 74.1389 305.5 78.3333 C310.0585 81.1824 311.1665 81.2105 316.5 82.3333 C320.1031 83.0919 321.0295 83.1499 324.5 82.3333 C328.8126 81.3186 331.5264 80.6359 333.5 78.3333 C335.618 75.8623 336.4979 68.3333 336.5 68.3333 C336.5007 68.3333 338.5336 75.0604 337.5 78.3333 C336.3035 82.1221 334.4299 84.2308 330.5 87.3333 C325.8369 91.0147 324.6433 91.0808 318.5 93.3333 C309.9196 96.4795 309.4943 96.9024 300.5 98.3333 C287.9058 100.337 285.3863 98.519 274.5 100.3333 C272.6397 100.6434 270.5 103.3333 270.5 103.3333 "/>
<path id="20" d="M297.5 116.3333 C297.5 116.3333 321.1459 114.7161 335.5 109.3333 C340.4908 107.4618 341.3912 101.3465 345.5 98.3333 C346.6371 97.4994 350.2424 97.9148 350.5 98.3333 C351.7427 100.3528 354.1675 108.1629 353.5 111.3333 C353.0967 113.2491 349.9086 116.1477 346.5 117.3333 C340.2372 119.5117 330.5 119.3333 330.5 119.3333 "/>
<path id="21" d="M251.5 70.3333 C251.5 70.3333 254.139 56.5251 258.5 51.3333 C261.613 47.6273 265.8704 47.5432 272.5 45.3333 C274.1574 44.7809 275.8631 44.9512 276.5 45.3333 C276.9459 45.6008 277.8344 47.6342 277.5 48.3333 C274.0873 55.4689 265.5 68.3333 265.5 68.3333 "/>
<path id="22" d="M237.5 61.3333 C237.5 61.3333 237.5648 41.1137 239.5 39.3333 C241.5814 37.4185 251.6984 37.6787 262.5 38.3333 C267.2944 38.6239 272.5 41.3333 272.5 41.3333 "/>
<path id="23" d="M172.5 86.3333 C172.5 86.3333 171.4798 79.1993 172.5 73.3333 C173.3393 68.5071 173.9984 67.9517 176.5 63.3333 C180.3809 56.1685 180.4567 55.4974 185.5 49.3333 C189.1269 44.9005 189.8022 43.5953 194.5 41.3333 C201.9597 37.7416 203.687 37.0557 212.5 36.3333 C233.0845 34.6461 255.5 36.3333 255.5 36.3333 "/>
<path id="24" d="M232.5 39.3333 C232.5 39.3333 225.911 49.2486 218.5 57.3333 C215.2952 60.8295 210.5 63.3333 210.5 63.3333 "/>
<path id="25" d="M174.5 31.3333 C174.5 31.3333 172.1232 31.5184 171.5 32.3333 C167.0267 38.1831 164.4522 40.4607 161.5 48.3333 C158.9962 55.0101 158.4834 57.6237 159.5 64.3333 C160.6697 72.0533 162.1371 74.789 166.5 81.3333 C169.1177 85.26 172.0348 86.8482 175.5 88.3333 C176.8201 88.8991 180.5 87.3333 180.5 87.3333 "/>
<path id="26" d="M165.5 39.3333 C165.5 39.3333 171.3015 39.0025 171.5 39.3333 C172.0515 40.2525 172.5978 44.942 171.5 49.3333 C169.3318 58.0062 164.5 67.3333 164.5 67.3333 "/>
<path id="27" d="M151.5 65.3333 C151.5 65.3333 149.0402 65.6131 148.5 66.3333 C146.9626 68.3832 146.4847 69.7883 145.5 73.3333 C144.0474 78.5628 144.0742 78.8786 143.5 84.3333 C143.0903 88.2259 143.0565 90.3375 143.5 92.3333 C143.5801 92.6937 145.5 93.3333 145.5 93.3333 "/>
<path id="28" d="M155.5 62.3333 L161.5 83.3333 "/>
<path id="29" d="M176.5 89.3333 L173.5 113.3333 "/>
<path id="30" d="M180.5 115.3333 C180.5 115.3333 185.33 121.9207 190.5 124.3333 C198.6312 128.1279 210.4966 129.2823 210.5 129.3333 C210.5047 129.4037 199.6586 133.5921 191.5 139.3333 C187.0087 142.4939 185.3392 146.862 183.5 148.3333 C183.3548 148.4495 181.5 147.3333 181.5 147.3333 "/>
<path id="31" d="M184.5 122.3333 C184.5 122.3333 182.4763 130.6481 183.5 134.3333 C184.1695 136.7436 189.5 140.3333 189.5 140.3333 "/>
<path id="32" d="M170.5 136.3333 L177.5 130.3333 "/>
<path id="33" d="M171.5 144.3333 L174.5 143.3333 "/>
<path id="34" d="M173.5 125.3333 L185.5 126.3333 "/>
<path id="35" d="M235.5 174.3333 C235.5 174.3333 234.3991 191.4892 235.5 204.3333 C235.6929 206.5841 237.2385 208.7026 238.5 209.3333 C240.1056 210.1361 245.5 209.3333 245.5 209.3333 "/>
<path id="36" d="M341.5 133.3333 C341.5 133.3333 338.9645 136.011 338.5 138.3333 C337.6706 142.4803 337.2101 144.6478 338.5 148.3333 C340.106 152.9218 341.3492 155.4403 345.5 158.3333 C355.9176 165.5941 359.2722 167.1501 371.5 171.3333 C376.3193 172.982 378.2622 170.4604 383.5 171.3333 C386.3371 171.8062 387.3532 172.3399 389.5 174.3333 C393.7238 178.2554 397.5364 184.2813 397.5 184.3333 C397.4131 184.4574 389.585 185.1835 382.5 184.3333 C377.6066 183.7461 377.3946 181.9452 372.5 181.3333 C365.8953 180.5077 364.0168 180.4139 358.5 181.3333 C356.7268 181.6289 355.1701 184.5304 354.5 184.3333 C351.1999 183.3627 341.5114 176.2671 341.5 176.3333 C341.4294 176.7429 346.6736 195.971 349.5 213.3333 C349.9307 215.9793 349.6609 217.509 348.5 219.3333 C346.9574 221.7574 345.353 223.3823 342.5 224.3333 C337.9104 225.8632 335.8007 226.2168 330.5 225.3333 C321.989 223.9148 319.6064 222.8866 312.5 219.3333 C310.3004 218.2335 308.4999 214.3331 308.5 214.3333 C308.5007 214.3348 324.2747 242.4716 327.5 250.3333 C327.6303 250.6509 326.0158 252.851 324.5 253.3333 C316.7295 255.8058 309.8647 253.4977 305.5 257.3333 C298.527 263.4611 297.8749 276.1862 291.5 282.3333 C288.8353 284.9028 283.9991 282.2944 277.5 284.3333 C259.1091 290.103 252.9668 291.7882 240.5 298.3333 C238.6236 299.3184 239.3792 302.9844 237.5 305.3333 C236.1006 307.0826 234.769 308.0902 232.5 308.3333 C222.693 309.3841 209.5 308.3333 209.5 308.3333 "/>
</g>
</g>
</svg>
