<?xml version="1.0" encoding="utf-8"?>
<!DOCTYPE svg PUBLIC "-//W3C//DTD SVG 1.1//EN" "http://www.w3.org/Graphics/SVG/1.1/DTD/svg11.dtd">
<svg viewBox="0 0 800 800" preserveAspectRatio="xMinYMin meet" xmlns="http://www.w3.org/2000/svg" version="1.1">
<g fill="none" stroke="black" stroke-linecap="round" stroke-linejoin="round" stroke-width="2.0833">
<g transform="translate(181.84,87.52) scale(1.44) translate(-127,-43.1333)">
<path id="0" d="M317 208.1333 C317 208.1333 308.7055 222.0669 298 233.1333 C264.7541 267.4999 228 300.1333 228 300.1333 "/>
<path id="1" d="M216 217.1333 C216 217.1333 255.696 221.7764 286 234.1333 C303.0144 241.0713 301.9273 250.1092 319 259.1333 C335.0119 267.5968 338.1197 264.4282 356 271.1333 C361.7088 273.2741 367 277.1333 367 277.1333 "/>
<path id="2" d="M313 216.1333 C313 216.1333 322.1926 204.037 330 200.1333 C335.4652 197.4007 339.2138 198.0811 347 199.1333 C356.6079 200.4317 362.6294 201.4912 367 205.1333 C369.7389 207.4158 368.0193 213.4203 371 219.1333 C373.441 223.8118 378.2617 224.2572 379 228.1333 C381.3151 240.2878 382.0322 249.51 379 261.1333 C377.5179 266.8148 372.0615 270.8434 367 274.1333 C365.0199 275.4204 359 274.1333 359 274.1333 "/>
<path id="3" d="M216 214.1333 C216 214.1333 210.1832 209.3295 205 208.1333 C198.7222 206.6846 196.2778 206.6846 190 208.1333 C184.8168 209.3295 179.4497 211.9225 179 214.1333 C176.0957 228.413 176.8681 241.8542 178 267.1333 C178.3031 273.902 178.5934 276.1045 182 281.1333 C187.8136 289.7153 190.4524 294.0376 199 298.1333 C210.5148 303.6509 220.5715 304.1333 230 304.1333 C231.8249 304.1333 235.8031 299.8073 236 298.1333 C236.3092 295.505 232 287.1333 232 287.1333 "/>
<path id="4" d="M222 214.1333 C222 214.1333 221.1169 203.8995 224 198.1333 C228.3246 189.4841 230.8395 188.0388 239 180.1333 C246.4451 172.9209 249.6753 174.395 256 167.1333 C262.0752 160.1581 266 149.1333 266 149.1333 "/>
<path id="5" d="M321 210.1333 C321 210.1333 316.8364 192.8061 310 179.1333 C306.535 172.2033 304.9852 171.8791 299 166.1333 C292.7395 160.1232 288.6171 159.5255 285 155.1333 C284.0367 153.9636 285 149.1333 285 149.1333 "/>
<path id="6" d="M313 107.1333 C313 107.1333 332.6817 102.3462 348 104.1333 C359.568 105.4829 373 114.1333 373 114.1333 "/>
<path id="7" d="M321 125.1333 C321 125.1333 327.1507 122.1506 333 121.1333 C338.0681 120.2519 340.4697 119.6203 344 121.1333 C348.4473 123.0393 353.0385 126.2073 354 130.1333 C357.4003 144.018 356.7265 152.6973 356 170.1333 C355.8514 173.7006 353.9615 175.6114 352 178.1333 C351.4116 178.8899 350.4605 178.9508 349 179.1333 C346.6632 179.4254 345.9198 179.8799 344 179.1333 C337.9634 176.7858 336.2944 176.5149 331 172.1333 C322.529 165.1228 319.153 163.2086 315 155.1333 C311.8676 149.0426 311.836 144.117 313 137.1333 C313.8675 131.9285 320 125.1333 320 125.1333 "/>
<path id="8" d="M170 113.1333 C170 113.1333 170.7173 111.1449 171 111.1333 C183.5457 110.6213 197.1316 109.5987 219 111.1333 C223.2282 111.43 228 115.1333 228 115.1333 "/>
<path id="9" d="M190 139.1333 C190 139.1333 188.7875 168.4481 191 173.1333 C191.6133 174.4321 200.3391 175.4361 207 175.1333 C209.5692 175.0165 210.943 173.9618 213 172.1333 C214.7669 170.5627 215.6513 169.487 216 167.1333 C217.4185 157.5587 218.5872 153.8628 217 145.1333 C216.1072 140.223 213.9401 137.4513 210 134.1333 C206.0726 130.8261 199.1487 128.5316 198 129.1333 C195.8716 130.2482 189 145.1333 189 145.1333 "/>
<path id="10" d="M339 65.1333 C339 65.1333 346.1156 56.0716 354 49.1333 C358.1429 45.4876 363.197 42.9612 364 43.1333 C364.5463 43.2504 367.2931 47.7503 368 52.1333 C369.6243 62.2039 369.2787 73.6874 369 74.1333 C368.9886 74.1516 358 68.1333 358 68.1333 "/>
<path id="11" d="M186 70.1333 C186 70.1333 164.0906 43.1741 164 43.1333 C163.9732 43.1213 166 52.379 166 61.1333 C166 68.9149 164 77.1333 164 77.1333 "/>
<path id="12" d="M216 245.1333 C216 245.1333 193.6207 233.0568 172 227.1333 C158.9441 223.5564 155.5731 223.9359 143 225.1333 C137.0771 225.6974 133.0717 227.8697 130 231.1333 C127.6715 233.6074 127.8999 236.7341 127 242.1333 C126.4523 245.4198 126.6832 248.3941 127 249.1333 C127.0582 249.2691 130 249.1333 130 249.1333 "/>
<path id="13" d="M217 254.1333 C217 254.1333 197.3282 247.5095 178 243.1333 C171.3727 241.6328 169.466 241.1395 164 242.1333 C160.4758 242.7741 157.9517 244.1082 156 247.1333 C149.5191 257.1787 144 273.1333 144 273.1333 "/>
<path id="14" d="M213 271.1333 C213 271.1333 199.0282 266.1756 186 265.1333 C175.1717 264.2671 170.8473 264.3488 163 267.1333 C159.2952 268.4479 157.6895 271.3751 155 276.1333 C151.6533 282.0544 150 290.1333 150 290.1333 "/>
<path id="15" d="M337 223.1333 C337 223.1333 350.7559 211.6176 363 209.1333 C381.2554 205.4293 390.2673 206.2199 406 209.1333 C410.7022 210.0041 417 219.1333 417 219.1333 "/>
<path id="16" d="M346 237.1333 C346 237.1333 353.4901 230.7176 360 230.1333 C388.4814 227.5773 394.2728 229.2717 424 230.1333 C426.3494 230.2014 428.204 231.072 429 232.1333 C429.9345 233.3793 430 238.1333 430 238.1333 "/>
<path id="17" d="M340 247.1333 C340 247.1333 365.8479 245.0519 390 246.1333 C398.3057 246.5052 400.7522 247.0094 407 250.1333 C410.6171 251.9419 414 258.1333 414 258.1333 "/>
<path id="18" d="M254 275.1333 C254 275.1333 281.1129 278.4983 305 277.1333 C314.0801 276.6145 316.2901 275.4702 324 271.1333 C330.8054 267.3053 337 259.1333 337 259.1333 C337 259.1334 331.4082 268.556 325 273.1333 C319.0911 277.354 316.4334 278.7955 309 279.1333 C286.2224 280.1687 259 276.1333 259 276.1333 "/>
<path id="19" d="M175 284.1333 C175 284.1333 184.4012 295.108 188 305.1333 C190.5742 312.3043 187.2968 314.6173 189 323.1333 C191.6765 336.5157 191.2471 339.412 197 350.1333 C200.9548 357.5037 207.15 356.7834 211 364.1333 C216.8093 375.2238 213.2094 381.3417 219 392.1333 C222.6782 398.9881 227.2266 398.1048 233 405.1333 C238.2769 411.5573 242 420.1333 242 420.1333 "/>
<path id="20" d="M385 269.1333 C385 269.1333 386.5768 273.865 386 277.1333 C385.2845 281.188 384.6948 282.3157 382 286.1333 C373.0843 298.764 364.4225 303.4931 362 311.1333 C360.9349 314.4927 369.7894 323.1861 369 327.1333 C367.8212 333.0271 360.194 336.07 355 346.1333 C344.644 366.1981 347.7628 369.2221 337 389.1333 C328.2452 405.3297 315 420.1333 315 420.1333 "/>
<path id="21" d="M336 310.1333 C336 310.1333 342.7736 323.0767 343 332.1333 C343.1823 339.4236 341.1999 342.4335 337 350.1333 C332.7463 357.9319 328.3789 357.3618 325 365.1333 C319.2377 378.3867 323.1718 382.3496 317 396.1333 C308.8171 414.4086 295 432.1333 295 432.1333 "/>
<path id="22" d="M269 321.1333 C269 321.1333 279.5822 328.2977 283 335.1333 C286.4992 342.1317 286.1638 345.4719 286 355.1333 C285.6793 374.054 282.9992 374.8152 282 394.1333 C281.5171 403.4696 284.0826 404.7433 283 413.1333 C282.2746 418.7554 279.2558 419.3565 278 425.1333 C276.9444 429.9889 278 436.1333 278 436.1333 "/>
<path id="23" d="M224 319.1333 C224 319.1333 229.6695 325.4526 232 332.1333 C236.788 345.8589 233.787 348.6894 239 362.1333 C242.7691 371.8535 248.4837 371.907 251 381.1333 C255.1596 396.385 251.6339 400.1766 254 417.1333 C254.482 420.5875 256.9991 424.134 257 424.1333 C257.0034 424.1311 257 415.1333 257 415.1333 "/>
<path id="24" d="M250 287.1333 C250 287.1333 255.8068 295.3355 258 303.1333 C259.9566 310.09 257.3433 311.7964 259 319.1333 C260.6699 326.5286 265 334.1333 265 334.1333 "/>
<path id="25" d="M283 292.1333 C283 292.1333 291.1999 299.3332 295 307.1333 C299.9967 317.3896 299.7324 320.5511 302 331.1333 C302.3366 332.7044 301 335.1333 301 335.1333 "/>
<path id="26" d="M335 287.1333 L337 327.1333 "/>
<path id="27" d="M373 208.1333 C373 208.1333 384.0923 186.1102 387 165.1333 C390.7526 138.0607 389.971 130.2413 387 107.1333 C386.326 101.8913 380.7469 101.2611 378 95.1333 C374.7805 87.9513 377.0271 85.5635 374 78.1333 C371.9117 73.0076 367 68.1333 367 68.1333 "/>
<path id="28" d="M166 75.1333 C166 75.1333 151.4607 98.1096 146 119.1333 C142.3369 133.2361 143.5735 136.6917 146 152.1333 C148.8478 170.2555 154.3417 171.0088 157 189.1333 C159.616 206.97 155.3134 209.255 157 227.1333 C157.6867 234.4125 161.9392 242.0464 162 242.1333 C162.0118 242.1502 164 237.1333 164 237.1333 "/>
<path id="29" d="M190 68.1333 C190 68.1333 191.6826 64.0645 194 62.1333 C196.9181 59.7015 198.3526 58.4213 202 58.1333 C215.1237 57.0972 217.8188 56.9516 232 59.1333 C242.8529 60.803 243.2552 64.2988 254 66.1333 C262.8015 67.636 264.9467 67.744 273 66.1333 C278.1711 65.0991 278.666 61.4668 284 60.1333 C291.3609 58.2931 292.6466 58.7086 301 59.1333 C321.7999 60.191 343 63.1333 343 63.1333 "/>
<path id="30" d="M339 63.1333 C339 63.1333 333.5203 44.2752 333 44.1333 C332.4205 43.9753 317 57.1333 317 57.1333 "/>
<path id="31" d="M316 57.1333 C316 57.1333 309.0164 43.8666 307 43.1333 C305.452 42.5704 299.3287 45.5809 294 49.1333 C291.1789 51.0141 289 55.1333 289 55.1333 "/>
<path id="32" d="M285 56.1333 L283 46.1333 "/>
<path id="33" d="M263 64.1333 L251 48.1333 "/>
<path id="34" d="M235 62.1333 L230 58.1333 "/>
<path id="35" d="M212 55.1333 L198 45.1333 "/>
<path id="36" d="M195 162.1333 C195 162.1333 196.5862 155.8874 198 155.1333 C200.6317 153.7297 204.8897 153.8139 210 154.1333 C211.7658 154.2437 213.7563 155.3048 214 156.1333 C215.1733 160.1226 215.2235 167.5567 215 171.1333 C214.9832 171.4027 213.8674 172.1333 213 172.1333 C206.4944 172.1333 200.2048 172.7257 198 171.1333 C196.364 169.9517 194.8114 161.9626 195 159.1333 C195.0522 158.3501 197.5673 156.2435 199 156.1333 C201.9956 155.9029 206.4772 156.6105 208 158.1333 C209.7997 159.933 211.1689 165.9378 211 168.1333 C210.9428 168.8767 207.975 171.2146 207 171.1333 C204.8334 170.9528 200.3282 168.7935 199 167.1333 C198.2337 166.1755 198.3443 163.1004 199 161.1333 C199.4371 159.8219 200.6826 158.6274 202 158.1333 C203.5968 157.5345 206.5816 157.6551 207 158.1333 C207.9325 159.199 209.2495 165.3849 209 166.1333 C208.9093 166.4055 204 167.1333 204 167.1333 "/>
<path id="37" d="M329 166.1333 C329 166.1333 329.2938 157.9707 331 156.1333 C333.0453 153.9307 339.0159 151.6857 342 152.1333 C344.8836 152.5659 349.6536 156.1413 351 159.1333 C352.584 162.6533 351.8473 168.9558 351 172.1333 C350.8001 172.8829 348.5475 174.1333 347 174.1333 C343.905 174.1333 342.8643 173.4214 339 172.1333 C333.9467 170.4489 333.1383 170.7198 329 168.1333 C325.7721 166.1159 324.2154 164.7668 323 162.1333 C322.0298 160.0312 322.2982 157.4727 323 155.1333 C323.391 153.83 324.9582 152.1786 326 152.1333 C332.6271 151.8452 338.5004 152.0334 346 154.1333 C348.3345 154.787 350.0839 156.9347 351 159.1333 C351.9053 161.3061 351.819 163.8812 351 166.1333 C350.3619 167.8882 348.7549 169.4952 347 170.1333 C344.7479 170.9523 342.5748 171.0989 340 170.1333 C335.862 168.5816 332.8693 166.9373 331 164.1333 C329.4942 161.8746 329.1395 156.4719 330 155.1333 C331.1768 153.3028 335.3812 152.0578 340 150.1333 C340.7645 149.8148 341.9655 150.0471 342 150.1333 C342.2155 150.6721 342.4331 154.2671 342 155.1333 C341.7834 155.5664 339.6283 156.3428 339 156.1333 C338.0575 155.8192 336 153.1333 336 153.1333 "/>
<path id="38" d="M164 266.1333 C164 266.1333 168.0137 273.071 170 280.1333 C172.3859 288.6166 169.6682 290.359 173 298.1333 C185.4142 327.0998 190.2517 327.0472 203 357.1333 C214.9951 385.4417 211.965 388.546 223 416.1333 C225.3388 421.9802 231 427.1333 231 427.1333 "/>
<path id="39" d="M385 259.1333 C385 259.1333 394.4932 278.3455 400 297.1333 C402.6739 306.256 404.4575 309.7607 402 317.1333 C394.7121 338.997 391.5793 344.1268 377 366.1333 C365.9814 382.7651 349 397.1333 349 397.1333 "/>
<path id="40" d="M356 389.1333 C356 389.1333 347.8702 403.6352 339 417.1333 C336.522 420.9041 334.1856 423.4747 333 424.1333 C332.7735 424.2591 330 422.1333 330 422.1333 "/>
<path id="41" d="M154 229.1333 C154 229.1333 148.5255 237.0978 146 245.1333 C143.2797 253.7889 143.2855 254.713 143 264.1333 C141.8038 303.6091 140.8005 305.2756 143 344.1333 C143.7242 356.927 149 370.1333 149 370.1333 "/>
<path id="42" d="M144 329.1333 C144 329.1333 144.4719 341.178 147 352.1333 C148.8551 360.172 148.5969 361.7564 153 368.1333 C162.155 381.3923 165.2789 380.6632 176 394.1333 C184.647 404.9975 184.3112 405.4578 192 417.1333 C197.7875 425.9218 199.758 426.4881 203 435.1333 C205.1064 440.7503 204 449.1333 204 449.1333 "/>
<path id="43" d="M157 314.1333 C157 314.1333 167.2858 319.834 172 327.1333 C181.4197 341.7186 181.3704 344.565 188 362.1333 C191.1517 370.4854 188.8409 371.7091 192 380.1333 C206.5804 419.0144 208.207 426.1713 224 458.1333 C226.0103 462.2017 233.6244 465.1333 234 465.1333 C234.0376 465.1333 235 458.1333 235 458.1333 "/>
<path id="44" d="M390 253.1333 C390 253.1333 400.4633 267.7808 408 283.1333 C413.709 294.7628 415.321 296.007 417 308.1333 C419.5589 326.6142 418.3598 328.7569 417 348.1333 C416.4126 356.5043 416.5557 357.7848 413 365.1333 C402.1875 387.4793 402.7584 393.3101 387 410.1333 C369.0586 429.287 357.296 427.5314 339 444.1333 C334.4496 448.2624 334.8048 451.9141 333 459.1333 C332.0156 463.0711 333 468.1333 333 468.1333 "/>
<path id="45" d="M346 428.1333 C346 428.1333 332.059 448.6321 318 468.1333 C316.794 469.8062 315.0322 471.1333 315 471.1333 C315 471.1333 315 468.1333 315 468.1333 "/>
<path id="46" d="M347 418.1333 C347 418.1333 341.7114 436.5289 333 451.1333 C325.4306 463.8231 313 475.1333 313 475.1333 "/>
<path id="47" d="M294 435.1333 L284 474.1333 "/>
<path id="48" d="M222 433.1333 L232 471.1333 "/>
<path id="49" d="M247 442.1333 C247 442.1333 254.1135 455.7673 258 468.1333 C259.1874 471.9115 258 477.1333 258 477.1333 "/>
</g>
</g>
</svg>
