<?xml version="1.0" encoding="utf-8"?>
<!DOCTYPE svg PUBLIC "-//W3C//DTD SVG 1.1//EN" "http://www.w3.org/Graphics/SVG/1.1/DTD/svg11.dtd">
<svg viewBox="0 0 800 800" preserveAspectRatio="xMinYMin meet" xmlns="http://www.w3.org/2000/svg" version="1.1">
<g fill="none" stroke="black" stroke-linecap="round" stroke-linejoin="round" stroke-width="2.4722">
<g transform="translate(87.52,274.4012) scale(1.2135) translate(0,-137.1333)">
<path id="0" d="M27 177.1333 C27 177.1333 27.6736 174.0176 29 173.1333 C36.2954 168.2697 39.021 165.6275 48 163.1333 C55.0091 161.1864 59.7692 162.0872 65 163.1333 C66.1692 163.3672 66.4789 166.4313 68 167.1333 C71.4285 168.7157 73.0593 168.88 78 169.1333 C92.1825 169.8606 96.7376 167.3741 107 169.1333 C109.4873 169.5597 111.2225 171.9338 113 175.1333 C115.7086 180.0088 116.1 181.2836 117 187.1333 C117.9987 193.6251 118.5546 195.0876 117 201.1333 C114.4111 211.2013 114.3914 215.8723 108 222.1333 C93.638 236.2022 68 249.1333 68 249.1333 "/>
<path id="1" d="M29 176.1333 C29 176.1333 25.4835 186.9789 25 197.1333 C24.523 207.1509 23.7016 209.9843 27 218.1333 C31.0942 228.2484 33.5367 231.1537 42 239.1333 C49.6155 246.3137 52.0708 246.3399 62 251.1333 C65.8363 252.9853 71 253.1333 71 253.1333 "/>
<path id="2" d="M37 191.1333 C37 191.1333 41.4723 190.6936 42 191.1333 C42.5453 191.5878 43.25 195.7583 43 196.1333 C42.75 196.5083 38.1142 197.1905 38 197.1333 C37.9873 197.127 39 194.1333 39 194.1333 "/>
<path id="3" d="M90 197.1333 C90 197.1333 94.862 195.0505 95 195.1333 C95.109 195.1987 95.3074 199.8772 95 200.1333 C94.5574 200.5022 89 200.1333 89 200.1333 "/>
<path id="4" d="M62 191.1333 L63 213.1333 "/>
<path id="5" d="M45 208.1333 C45 208.1333 51.3678 212.4897 57 213.1333 C67.2531 214.3051 80 212.1333 80 212.1333 "/>
<path id="6" d="M48 210.1333 C48 210.1333 52.4011 212.3367 53 214.1333 C54.5148 218.6776 53.6467 227.7408 54 228.1333 C54.0759 228.2176 60.0306 226.2997 62 224.1333 C63.5406 222.4387 63.6155 217.4538 64 217.1333 C64.1145 217.0379 67.0835 217.8732 68 219.1333 C70.2233 222.1903 70.9472 227.6821 72 228.1333 C73.1677 228.6338 80.7573 226.7149 82 225.1333 C83.349 223.4165 83 214.1333 83 214.1333 "/>
<path id="7" d="M72 169.1333 C72 169.1333 73.6626 159.0714 72 153.1333 C70.8611 149.0658 68.738 147.5838 65 144.1333 C62.8586 142.1567 61.634 141.2086 59 141.1333 C46.4732 140.7754 41.7305 139.3796 30 143.1333 C19.9159 146.3602 17.3594 149.3312 9 157.1333 C3.5852 162.1871 1.1305 164.7274 0 171.1333 C-2.6832 186.3383 -1.8457 190.5996 0 208.1333 C1.0292 217.9103 2.274 219.3264 6 228.1333 C7.3416 231.3044 8.1134 232.1253 11 234.1333 C18.8525 239.596 23.2701 238.6525 29 244.1333 C32.4253 247.4097 32.4442 253.4662 34 256.1333 C34.1217 256.3419 35.9322 256.2689 36 256.1333 C36.4406 255.252 36.4304 250.8168 37 250.1333 C37.2778 249.7999 41 250.1333 41 250.1333 C41 250.1333 30.0005 251.133 30 251.1333 C29.9997 251.1336 36.0715 250.4459 38 252.1333 C48.3487 261.1884 52.883 273.5742 62 279.1333 C65.5556 281.3014 74.3997 278.9734 79 277.1333 C80.3956 276.5751 79.9281 272.6494 82 271.1333 C97.5772 259.7354 103.3189 260.2165 120 247.1333 C127.5002 241.2508 128.9305 239.598 133 231.1333 C140.6396 215.243 141.5514 212.6636 145 195.1333 C147.2475 183.7087 147.9062 179.8898 145 170.1333 C141.9578 159.9202 138.5395 158.0717 131 148.1333 C127.9794 144.1517 127.1876 143.3269 123 141.1333 C117.5817 138.2952 116.2466 137.6265 110 137.1333 C98.3093 136.2104 94.4899 135.4973 85 138.1333 C79.9318 139.5412 78.1142 142.2478 74 147.1333 C70.7988 150.9348 70.4767 152.4078 69 157.1333 C68.2337 159.5855 68.775 162.4583 69 163.1333 C69.025 163.2083 71 163.1333 71 163.1333 "/>
<path id="8" d="M143 162.1333 C143 162.1333 150.3134 159.6587 154 161.1333 C164.4338 165.3069 165.7083 170.9932 178 176.1333 C191.9453 181.965 193.8461 182.8854 209 184.1333 C234.8084 186.2587 237.3701 185.362 263 183.1333 C270.314 182.4973 271.0517 181.3759 278 178.1333 C285.6966 174.5416 285.5992 171.2478 293 169.1333 C304.733 165.7811 308.6806 165.5215 320 166.1333 C324.3317 166.3675 326.8089 168.4741 330 171.1333 C331.3891 172.2909 330.4466 174.5799 332 176.1333 C340.2108 184.3441 343.0289 183.9262 352 193.1333 C361.7213 203.1104 359.9648 206.2131 370 215.1333 C381.4901 225.3467 383.1777 225.0202 397 233.1333 C405.9349 238.3777 416 242.1333 416 242.1333 "/>
<path id="9" d="M107 261.1333 C107 261.1333 126.0225 258.566 140 261.1333 C147.4771 262.5067 147.8543 267.2092 156 270.1333 C166.5025 273.9035 167.691 274.7487 179 275.1333 C239.523 277.1919 241.1985 276.7262 303 275.1333 C337.9522 274.2325 344.6003 275.0419 373 270.1333 C378.0318 269.2636 381.881 264.9861 384 261.1333 C385.5488 258.3174 382.4706 254.2627 384 250.1333 C386.7395 242.7367 394 234.1333 394 234.1333 "/>
<path id="10" d="M171 275.1333 C171 275.1333 172.4281 289.28 171 302.1333 C170.0185 310.9667 169.4808 312.8817 166 320.1333 C164.2323 323.816 162.8133 324.6547 159 327.1333 C153.4204 330.7601 146.0111 333.1238 146 333.1333 C145.9963 333.1365 151.9865 333.0794 152 333.1333 C152.0629 333.385 147.8687 340.8971 148 341.1333 C148.1363 341.3787 156.9479 342.1073 157 342.1333 C157.011 342.1388 153.9909 344.1318 154 344.1333 C154.0515 344.1419 163.8573 345.419 169 344.1333 C171.1428 343.5976 172.8054 341.8211 174 339.1333 C178.1535 329.788 178.5859 328.1309 181 317.1333 C182.9938 308.0504 180.6989 306.8775 183 298.1333 C185.4872 288.6821 191 279.1333 191 279.1333 "/>
<path id="11" d="M192 278.1333 L193 277.1333 "/>
<path id="12" d="M195 277.1333 C195 277.1333 198.5539 277.5087 199 278.1333 C199.7766 279.2206 200 284.1333 200 284.1333 "/>
<path id="13" d="M197 277.1333 C197 277.1333 199.2393 282.4673 199 287.1333 C198.2939 300.9017 198.8271 302.8662 195 316.1333 C191.6782 327.649 184.0108 338.9279 184 339.1333 C183.9979 339.1728 193.5631 335.0459 194 335.1333 C194.057 335.1447 193.775 340.4583 194 341.1333 C194.025 341.2083 195.4023 341.4749 196 341.1333 C198.1774 339.8891 199.7719 339.4005 201 337.1333 C205.4545 328.9096 206.2817 327.2815 209 317.1333 C213.6495 299.7751 216 281.1333 216 281.1333 "/>
<path id="14" d="M222 275.1333 L217 292.1333 "/>
<path id="15" d="M260 275.1333 C260 275.1333 264.1523 287.8156 266 300.1333 C267.0701 307.2672 267.7585 309.0761 266 315.1333 C263.8179 322.6495 262.4611 325.2353 257 331.1333 C251.2064 337.3904 241.0038 342.1258 241 342.1333 C240.9982 342.1369 247.1045 340.1737 253 339.1333 C255.3526 338.7182 257.9975 339.1258 258 339.1333 C258.0025 339.1408 253.99 342.1283 254 342.1333 C254.04 342.1533 260.8853 343.4158 264 342.1333 C267.078 340.8659 270.0047 338.617 271 335.1333 C277.5408 312.2404 282 279.1333 282 279.1333 "/>
<path id="16" d="M290 277.1333 C290 277.1333 293.9175 295.3703 293 309.1333 C292.6134 314.9328 290.7841 317.6815 287 322.1333 C283.5818 326.1547 275.9845 329.1267 276 329.1333 C276.0477 329.1538 300.9992 328.1333 301 328.1333 C301.0003 328.1333 292.0061 330.1287 292 330.1333 C291.9975 330.1352 296.6078 331.5536 297 331.1333 C299.6101 328.3368 303.7946 323.1068 306 315.1333 C309.8297 301.2876 307.1069 298.9604 310 284.1333 C310.9814 279.1037 314 274.1333 314 274.1333 "/>
<path id="17" d="M318 166.1333 C318 166.1333 324.4579 165.2096 330 166.1333 C335.85 167.1083 337.1358 167.14 342 170.1333 C349.1928 174.5597 350.6171 175.4047 356 182.1333 C363.9351 192.0522 362.4302 194.8109 370 205.1333 C372.9278 209.1258 373.6111 209.4753 378 212.1333 C408.4092 230.5502 412.6217 229.4737 441 248.1333 C446.8578 251.985 446.789 253.7388 451 260.1333 C460.1073 273.9629 459.0292 276.0508 468 289.1333 C470.383 292.6085 475 295.0899 475 295.1333 C475 295.1333 468 295.1333 468 295.1333 "/>
<path id="18" d="M411 245.1333 C411 245.1333 415.112 243.7208 418 244.1333 C421.1286 244.5803 422.7735 245.0781 425 247.1333 C428.2608 250.1433 427.409 252.5424 431 256.1333 C438.4213 263.5547 442.1905 262.2112 448 270.1333 C457.3801 282.9244 458.0427 285.909 464 301.1333 C466.5234 307.5819 466 311.2885 466 316.1333 C466 316.7793 464 318.1333 464 318.1333 "/>
<path id="19" d="M474 288.1333 C474 288.1333 474.7936 297.3039 476 298.1333 C477.9965 299.5059 490 299.1333 490 299.1333 "/>
<path id="20" d="M470 298.1333 C470 298.1333 472.519 303.0573 472 305.1333 C471.1616 308.4868 466 314.1333 466 314.1333 "/>
<path id="21" d="M479 304.1333 L494 308.1333 "/>
<path id="22" d="M465 313.1333 L484 312.1333 "/>
<path id="23" d="M479 303.1333 C479 303.1333 482.7506 308.3858 484 313.1333 C484.9937 316.9093 484.1684 322.0398 484 322.1333 C483.7717 322.2602 475 318.1333 475 318.1333 "/>
<path id="24" d="M464 305.1333 C464 305.1333 465.7942 311.4405 469 314.1333 C476.6775 320.5824 489 326.1333 489 326.1333 "/>
<path id="25" d="M493 301.1333 C493 301.1333 500.1324 299.4082 504 300.1333 C506.0568 300.519 507.8251 302.1752 509 304.1333 C510.1078 305.9796 510.1415 310.0737 510 310.1333 C508.0672 310.9471 490 312.1333 490 312.1333 "/>
<path id="26" d="M470 305.1333 C470 305.1333 475.3932 301.9595 478 302.1333 C480.4286 302.2952 482.1903 303.6358 485 306.1333 C490.7672 311.2598 495.908 317.9493 496 318.1333 C496.0131 318.1596 491 318.1333 491 318.1333 "/>
<path id="27" d="M478 318.1333 C478 318.1333 484.1107 322.6536 490 325.1333 C492.9239 326.3645 496.8458 326.159 497 326.1333 C497.015 326.1308 496 324.1333 496 324.1333 "/>
<path id="28" d="M483 298.1333 C483 298.1333 495.9621 299.8464 504 304.1333 C508.7607 306.6724 509.7485 309.1083 513 314.1333 C514.7043 316.7673 515.0789 321.0939 515 321.1333 C514.1584 321.5542 499 321.1333 499 321.1333 "/>
<path id="29" d="M488 321.1333 C488 321.1333 490.0471 324.2457 492 325.1333 C494.5021 326.2707 499 326.1333 499 326.1333 "/>
<path id="30" d="M499 320.1333 L503 324.1333 "/>
<path id="31" d="M483 315.1333 C483 315.1333 498.8108 315.4982 501 315.1333 C501.0608 315.1232 500.9949 312.1295 501 312.1333 C501.0192 312.1477 505 318.1333 505 318.1333 "/>
<path id="32" d="M111 265.1333 L111 261.1333 "/>
</g>
</g>
</svg>
