<?xml version="1.0" encoding="utf-8"?>
<!DOCTYPE svg PUBLIC "-//W3C//DTD SVG 1.1//EN" "http://www.w3.org/Graphics/SVG/1.1/DTD/svg11.dtd">
<svg viewBox="0 0 800 800" preserveAspectRatio="xMinYMin meet" xmlns="http://www.w3.org/2000/svg" version="1.1">
<g fill="none" stroke="black" stroke-linecap="round" stroke-linejoin="round" stroke-width="2.6738">
<g transform="translate(87.52,269.2857) scale(1.122) translate(-63,-106.1333)">
<path id="0" d="M101 158.1333 C101 158.1333 99.3073 150.7571 101 148.1333 C106.7389 139.238 110.1399 135.4517 121 127.1333 C132.5837 118.2607 134.2767 118.265 148 112.1333 C157.2355 108.0068 158.3322 106.6369 168 106.1333 C204.1478 104.2506 206.5467 104.3383 244 107.1333 C272.8854 109.289 273.5076 110.4348 302 116.1333 C315.6268 118.8587 329 124.1333 329 124.1333 "/>
<path id="1" d="M104 146.1333 C104 146.1333 99.2026 151.0822 99 155.1333 C97.0073 194.988 103.9915 206.2012 99 246.1333 C97.3065 259.6817 86.1085 265.7622 84 275.1333 C83.3715 277.9266 87.6763 283.8096 90 286.1333 C90.6834 286.8168 93.7237 286.6803 95 286.1333 C95.8387 285.7739 96.7493 284.5539 97 283.1333 C98.0599 277.1273 96.5358 275.7221 98 269.1333 C100.425 258.2207 103.5538 257.8762 105 247.1333 C106.891 233.0857 103.4272 231.5504 105 217.1333 C106.345 204.8045 111 192.1333 111 192.1333 "/>
<path id="2" d="M90 282.1333 L87 298.1333 "/>
<path id="3" d="M86 276.1333 C86 276.1333 78.5719 280.092 73 285.1333 C68.5073 289.1981 66.17 290.4534 65 295.1333 C62.0263 307.0281 62.8493 324.9362 63 325.1333 C63.0081 325.1439 72.987 319.2351 78 312.1333 C83.8131 303.8981 87 291.1333 87 291.1333 "/>
<path id="4" d="M110 198.1333 L116 224.1333 "/>
<path id="5" d="M319 123.1333 C319 123.1333 328.9612 123.8744 337 127.1333 C346.6111 131.0297 346.4178 133.6617 356 138.1333 C360.9234 140.4309 367 141.1333 367 141.1333 "/>
<path id="6" d="M367 141.1333 C367 141.1333 383.4546 146.5234 400 150.1333 C410.7205 152.4723 414.1223 148.9628 422 153.1333 C435.9284 160.5072 441.7625 171.3269 451 177.1333 C451.9938 177.758 454.8084 176.799 457 175.1333 C466.3027 168.0633 466.1487 165.7601 476 158.1333 C481.3357 154.0025 481.9883 153.012 488 151.1333 C496.8719 148.3609 498.1685 148.2894 508 148.1333 C529.0721 147.7989 530.3076 147.9163 551 150.1333 C557.43 150.8223 558.9082 150.8931 564 154.1333 C574.0942 160.5569 577.7918 161.7324 584 171.1333 C593.4344 185.4197 599 207.1333 599 207.1333 "/>
<path id="7" d="M110 212.1333 C110 212.1333 108.5271 216.1386 109 219.1333 C109.873 224.6621 110.1838 225.9343 113 231.1333 C116.3546 237.3264 116.7023 238.6947 122 243.1333 C134.2111 253.3643 136.8439 256.6516 150 262.1333 C157.4785 265.2494 170 263.1333 170 263.1333 "/>
<path id="8" d="M170 264.1333 C170 264.1333 168.6245 309.343 170 335.1333 C170.0816 336.6638 172.2515 338.5505 174 339.1333 C176.6228 340.0076 181.9572 339.3472 182 339.1333 C183.4861 331.7029 185 284.1333 185 284.1333 "/>
<path id="9" d="M189 265.1333 L189 291.1333 "/>
<path id="10" d="M204 268.1333 C204 268.1333 202.6697 320.8772 204 328.1333 C204.0447 328.3772 212.198 328.6003 215 328.1333 C215.3396 328.0767 215.9811 327.0395 216 326.1333 C216.4297 305.5064 216 280.1333 216 280.1333 "/>
<path id="11" d="M216 273.1333 C216 273.1333 215.991 279.1363 216 279.1333 C216.039 279.1203 218.847 273.1735 222 271.1333 C225.6508 268.771 227.6184 268.5003 233 268.1333 C248.85 267.0526 249.9684 266.727 266 268.1333 C277.8724 269.1748 278.1276 272.0919 290 273.1333 C306.0316 274.5396 308.3935 274.8318 323 273.1333 C327.6836 272.5887 328.2495 269.213 333 268.1333 C338.1189 266.97 341.3928 267.0061 345 268.1333 C346.6721 268.6559 349.052 271.4678 349 273.1333 C348.7101 282.4115 345.38 287.0232 344 300.1333 C343.4538 305.3222 343.6712 307.1469 345 311.1333 C345.6253 313.0093 347.2414 314.4299 349 315.1333 C350.8842 315.887 353.667 315.9331 355 315.1333 C356.6884 314.1203 358.3591 312.0634 359 309.1333 C361.4851 297.7727 359.7795 294.2358 362 283.1333 C362.384 281.2134 363.7249 279.8619 365 279.1333 C365.9649 278.5819 368.9888 279.0571 369 279.1333 C369.6511 283.5606 368.4652 297.4014 370 313.1333 C370.3283 316.498 371.7856 318.9189 373 320.1333 C373.4858 320.6191 375.704 320.7813 377 320.1333 C380.564 318.3513 384.5323 316.4718 385 314.1333 C387.0923 303.6718 385 280.1333 385 280.1333 "/>
<path id="12" d="M343 298.1333 C343 298.1333 344.0943 316.3184 346 318.1333 C347.5558 319.6151 363.6364 318.8086 364 318.1333 C364.8946 316.4719 360 292.1333 360 292.1333 "/>
<path id="13" d="M387 280.1333 C387 280.1333 397.9341 269.7441 409 265.1333 C420.0006 260.5497 435 260.1333 435 260.1333 "/>
<path id="14" d="M456 178.1333 C456 178.1333 451.6751 187.8172 451 197.1333 C449.2567 221.1906 452.2082 224.1774 451 247.1333 C450.827 250.4196 450.0135 251.9368 448 254.1333 C445.453 256.9119 440.0141 259.2301 440 259.1333 C439.8055 257.7994 436.6116 228.3679 441 206.1333 C443.1253 195.3653 455 183.1333 455 183.1333 "/>
<path id="15" d="M431 259.1333 C431 259.1333 436.5727 266.4218 441 267.1333 C459.1084 270.0436 468.8163 264.3206 487 268.1333 C494.2862 269.6611 494.92 275.4718 503 280.1333 C507.1349 282.5189 508.5407 280.9037 513 283.1333 C523.0818 288.1742 522.7618 290.5261 533 295.1333 C542.1499 299.2508 552.8209 301.0637 553 301.1333 C553.0129 301.1384 551 302.1333 551 302.1333 "/>
<path id="16" d="M597 206.1333 C597 206.1333 599.703 225.315 599 241.1333 C598.795 245.7449 597.6433 247.0482 595 251.1333 C592.579 254.8748 590.6414 254.2168 588 258.1333 C576.5434 275.1207 577.4566 277.146 566 294.1333 C563.3586 298.0499 562.0667 300.06 559 301.1333 C554.7812 302.6099 552.2856 301.5031 546 301.1333 C544.0375 301.0179 542.9858 301.1191 542 300.1333 C537.8596 295.9929 533 288.1333 533 288.1333 "/>
<path id="17" d="M498 223.1333 C498 223.1333 497.8955 218.514 499 217.1333 C500.5593 215.1842 502.8916 213.5774 506 213.1333 C511.689 212.3206 520 214.1333 520 214.1333 "/>
<path id="18" d="M506 218.1333 C506 218.1333 502.9981 218.1258 503 218.1333 C503.0126 218.1838 504.9082 220.9923 507 222.1333 C509.7378 223.6267 512.1425 224.3191 514 224.1333 C514.9014 224.0432 516.609 222.4367 517 221.1333 C517.7018 218.7939 517.8085 215.4808 517 214.1333 C516.2377 212.8628 513.4928 211.28 511 211.1333 C506.6078 210.875 501.2192 212.025 500 213.1333 C499.3083 213.7622 500 221.1333 500 221.1333 "/>
<path id="19" d="M556 211.1333 C556 211.1333 556.963 206.8247 558 206.1333 C559.4907 205.1395 562.8688 204.4776 565 205.1333 C567.4006 205.872 569.8151 207.7636 571 210.1333 C572.407 212.9474 572.7193 216.7957 572 219.1333 C571.5417 220.6228 569.0568 222.7477 567 223.1333 C563.1324 223.8585 557.5557 223.4668 556 222.1333 C554.3693 220.7356 552.7994 214.1418 553 211.1333 C553.0792 209.9448 557 207.1333 557 207.1333 "/>
<path id="20" d="M531 230.1333 C531 230.1333 533.8833 241.9778 534 242.1333 C534.0143 242.1524 536.92 238.1033 537 238.1333 C537.4068 238.2859 541.9357 245.1226 542 245.1333 C542 245.1333 543 239.1333 543 239.1333 "/>
<path id="21" d="M488 275.1333 L493 277.1333 "/>
<path id="22" d="M457 246.1333 C457 246.1333 460.4341 253.0869 462 260.1333 C464.3488 270.7029 461.7763 272.4622 465 282.1333 C468.3171 292.0848 469.8573 292.9192 476 302.1333 C479.5957 307.5269 480.0307 308.6931 485 312.1333 C492.0338 317.0029 493.3181 317.6318 502 320.1333 C522.0546 325.9118 523.2393 326.5017 544 329.1333 C557.9557 330.9024 562.7232 332.1696 573 329.1333 C579.6767 327.1607 582.657 323.4354 588 316.1333 C596.6857 304.2629 601.0861 301.2912 603 288.1333 C608.209 252.3217 605.6013 243.765 604 206.1333 C603.7614 200.5257 602.1486 199.4618 599 194.1333 C595.8992 188.8859 593.6858 185.9927 591 184.1333 C590.2247 183.5966 587.3282 184.0265 586 185.1333 C582.6985 187.8846 579.6207 190.8747 579 194.1333 C578.3135 197.7373 579.5548 202.4655 582 206.1333 C584.0959 209.2772 590.9989 212.1337 591 212.1333 C591.0006 212.1331 585 205.1333 585 205.1333 "/>
<path id="23" d="M580 168.1333 C580 168.1333 578.6952 157.6192 579 152.1333 C579.0404 151.407 579.8663 150.837 581 150.1333 C593.9174 142.1156 594.3765 141.1197 608 134.1333 C613.4375 131.3449 619.9947 130.124 620 130.1333 C620.012 130.1543 613.4636 135.8645 612 141.1333 C609.1713 151.3168 613.7209 157.0377 610 166.1333 C606.3184 175.1329 594 185.1333 594 185.1333 "/>
<path id="24" d="M464 186.1333 C464 186.1333 458.1123 185.961 454 184.1333 C449.9716 182.3429 449.148 181.6591 446 178.1333 C437.0948 168.1596 429 156.1333 429 156.1333 "/>
<path id="25" d="M463 191.1333 C463 191.1333 451.6399 182.8751 446 173.1333 C436.2234 156.2465 436.6686 152.4719 430 134.1333 C429.256 132.0874 429.9768 129.1148 430 129.1333 C430.2135 129.3041 439.3664 140.8989 450 150.1333 C457.9039 156.9972 459.7172 155.5642 468 162.1333 C473.937 166.842 476.5529 168.0352 479 173.1333 C481.1766 177.6678 481.5362 184.925 480 187.1333 C477.5953 190.5901 463 196.1333 463 196.1333 "/>
<path id="26" d="M541 264.1333 C541 264.1333 542.9998 274.1335 543 274.1333 C543.0003 274.133 543 262.1333 543 262.1333 C543 262.1333 543 271.1333 543 271.1333 "/>
</g>
</g>
</svg>
