<?xml version="1.0" encoding="utf-8"?>
<!DOCTYPE svg PUBLIC "-//W3C//DTD SVG 1.1//EN" "http://www.w3.org/Graphics/SVG/1.1/DTD/svg11.dtd">
<svg viewBox="0 0 800 800" preserveAspectRatio="xMinYMin meet" xmlns="http://www.w3.org/2000/svg" version="1.1">
<g fill="none" stroke="black" stroke-linecap="round" stroke-linejoin="round" stroke-width="2.6834">
<g transform="translate(87.52,169.1337) scale(1.118) translate(-80,-46)">
<path id="0" d="M179 128 C179 128 173.0653 127.9156 170 130 C162.2479 135.2714 157.8789 137.2421 154 145 C147.76 157.48 151.4208 162.6411 146 178 C142.7422 187.2305 138.81 187.5701 136 196 C134.4194 200.7418 134.3469 205.3297 136 208 C138.3484 211.7935 143.0233 215.0078 149 217 C154.2296 218.7432 161.0662 218.8647 163 217 C168.5301 211.6675 169.4992 202.3764 177 190 C179.0369 186.639 180.0854 185.7002 183 184 C185.0198 182.8218 189 183 189 183 "/>
<path id="1" d="M174 196 C174 196 176.0484 191.5638 178 191 C193.5254 186.5149 208.2314 189.0304 219 183 C223.7829 180.3216 225.5408 172.5637 228 163 C229.6531 156.5711 229.7261 153.3942 228 148 C226.5546 143.4833 222.2525 142.9555 220 138 C217.8676 133.3088 219.5626 130.6877 218 126 C217.5066 124.5197 216.6431 124.0954 215 123 C212.3711 121.2474 211.8844 120.4121 209 120 C199.065 118.5807 195.2686 117.246 187 119 C182.1814 120.0221 176 127 176 127 "/>
<path id="2" d="M152 189 C152 189 151.6777 195.7583 152 196 C152.445 196.3338 159.9576 195.099 160 195 C160.0369 194.9138 155 189 155 189 "/>
<path id="3" d="M155 196 C155 196 151.7477 200.4234 148 203 C144.2721 205.5629 139 207 139 207 "/>
<path id="4" d="M157 198 C157 198 154.7456 205.1843 155 209 C155.0983 210.4748 158 213 158 213 "/>
<path id="5" d="M167 144 C167 144 172.325 143.775 173 144 C173.075 144.025 173.3583 145.57 173 146 C169.7155 149.9414 163 156 163 156 "/>
<path id="6" d="M168 146 L171 146 "/>
<path id="7" d="M188 162 L197 154 "/>
<path id="8" d="M187 182 L193 186 "/>
<path id="9" d="M196 176 L205 181 "/>
<path id="10" d="M210 169 L219 183 "/>
<path id="11" d="M219 166 L223 171 "/>
<path id="12" d="M112 104 C112 104 107.8225 105.1775 106 107 C104.1775 108.8225 103 111.2285 103 113 C103 114.4762 105.8932 115.9717 106 118 C106.2876 123.4639 106.3612 126.6336 104 132 C101.6261 137.3953 100.022 138.3965 95 143 C88.399 149.0509 80.0179 153.9342 80 154 C79.9961 154.0143 91.5012 153.2933 92 154 C93.0012 155.4183 90.8618 170.0688 92 171 C93.8672 172.5277 113.9086 171.8579 114 172 C114.028 172.0436 105.0995 177.9048 101 185 C93.1031 198.6678 87.8438 215.7893 88 217 C88.0061 217.0477 104.5521 215.5521 105 216 C105.28 216.28 100.8942 229.9135 101 230 C101.1548 230.1266 115.6707 224.9493 116 225 C116.0214 225.0033 114 228.7225 114 232 C114 243.2372 113.8294 247.0077 116 256 C116.5503 258.2797 119.9251 258.4471 121 261 C123.3091 266.4841 121.4321 270.7201 124 275 C125.8528 278.088 128.8584 280.006 133 281 C139.3472 282.5233 147.5618 280.1011 149 281 C149.5618 281.3511 148.1702 287.1278 149 291 C149.3852 292.7978 150.5429 294.2714 152 295 C154.1857 296.0928 158.447 295.0783 159 296 C161.3397 299.8995 163.794 314.6796 164 315 C164.0225 315.035 167.3927 312.4292 168 310 C170.4039 300.3843 166.3497 294.8613 171 287 C184.3403 264.4486 209.9553 239.0518 210 239 C210.0027 238.9969 208.9824 242.9883 209 243 C209.0281 243.0188 211.3027 242.3056 213 241 C223.9854 232.5497 224.37 229.8581 235 223 C238.2543 220.9005 240.893 223.1083 244 221 C253.1602 214.7841 254.8276 213.2767 263 204 C272.8968 192.7658 272.4753 191.5841 281 179 C282.841 176.2824 283.6758 175.8095 284 173 C285.0216 164.1457 285.265 161.5384 284 153 C283.5198 149.7586 280.9082 149.4814 280 146 C278.1345 138.849 279.8321 137.3284 278 130 C277.0007 126.0027 275.492 123.7052 274 122 C273.6594 121.6108 271.0582 122.1358 271 122 C270.6832 121.2608 271.3769 115.6596 271 115 C270.8769 114.7846 267.4 115.2 267 115 C266.9 114.95 267 113 267 113 "/>
<path id="13" d="M104 104 C104 104 103.6074 94.0489 106 90 C108.2851 86.1329 111.5376 84.375 117 82 C121.8555 79.8889 128.3758 79.4719 129 80 C129.7266 80.6149 129.458 91.2384 130 93 C130.0376 93.1222 132.2777 93.5417 133 93 C138.2968 89.0274 145.8979 80.9319 146 81 C146.429 81.286 148.3678 96.4453 151 105 C151.3013 105.9791 153.9953 107.0076 154 107 C154.5477 106.1101 157.3447 99.2833 159 92 C159.7181 88.8405 159.9053 87.1727 159 85 C158.0839 82.8014 154.7286 82.1857 154 80 C152.9072 76.7215 153.1702 73.8722 154 70 C154.3852 68.2022 155.72 66.64 157 66 C158.28 65.36 160.1079 65.2116 162 66 C170.7667 69.6528 175.2808 70.5191 181 76 C184.4932 79.3477 184.2288 88.0258 186 89 C188.0263 90.1145 200.6211 86.4317 201 87 C202.2629 88.8944 201.995 113.0011 202 113 C202.0185 112.9957 210.3298 97.3461 214 84 C215.2187 79.5685 212.3286 73.6234 213 73 C214.2283 71.8595 222.3662 69.8344 228 71 C234.0467 72.251 235.2204 76.896 242 79 C248.2973 80.9543 254.149 77.4946 257 80 C264.6499 86.7226 268.3839 100.8749 275 108 C276.0992 109.1837 282.8737 107.7264 283 108 C283.413 108.8948 281 121 281 121 "/>
<path id="14" d="M198 155 C198 155 205 155 205 155 C205 155 197.0125 155.3375 196 155 C195.8875 154.9625 195.6169 152.4789 196 152 C196.6641 151.1699 199.9234 149.9234 200 150 C200.3832 150.3832 202 158 202 158 "/>
<path id="15" d="M126 79 C126 79 125.4802 76.7148 126 76 C128.3944 72.7077 129.6137 71.2491 134 68 C142.7842 61.4932 144.7706 59.1215 153 56 C156.3616 54.7249 159.2427 58.1742 163 57 C172.866 53.9169 174.7708 50.0186 185 46 C187.3318 45.0839 189.9453 45.086 191 46 C194.5624 49.0874 195.9374 56.7249 200 59 C204.1325 61.3142 208.2706 60.5656 216 60 C228.2747 59.1019 236.1911 54.2138 241 56 C244.3364 57.2392 245.6591 65.5228 251 73 C252.6749 75.3449 254.6549 74.6637 256 77 C263.2471 89.5871 263.8065 98 270 106 C271.5145 107.9563 276.9968 106.3829 280 108 C281.5433 108.831 282.2416 110.4089 283 113 C287.9845 130.0303 292 149 292 149 "/>
<path id="16" d="M136 90 C136 90 133.7285 104.5522 134 106 C134.0163 106.0869 138.5404 105.7243 139 106 C139.1654 106.0993 139.4335 107.7718 139 109 C136.6711 115.5984 132.9998 123.0002 133 123 C133.0003 122.9996 147.8544 99.1638 148 99 C148.0199 98.9776 148.6295 104.6295 149 105 C149.1588 105.1588 151.2283 104.8436 153 104 C161.4248 99.9882 162.1615 100.1356 170 95 C176.3511 90.8389 181.539 84.9136 182 85 C182.2931 85.055 184.4352 96.6587 186 98 C186.9448 98.8098 191.5397 98.3575 196 97 C202.4176 95.0468 208.781 90.781 209 91 C209.782 91.782 211.0095 111.1991 212 113 C212.1005 113.1828 216.8894 112.8664 220 111 C228.3851 105.969 236.5596 98 237 98 C237.0259 98 237.0357 109.7465 238 111 C238.4848 111.6303 246.9102 110.6856 247 111 C248.2326 115.3141 246.5054 129.186 248 146 C248.4373 150.9196 250.5276 155.5866 251 156 C251.0955 156.0836 254.6809 154.8961 256 153 C261.6303 144.9064 262.809 143.2445 267 133 C271.5953 121.7671 274.1268 112.4241 274 109 C273.9824 108.5246 267.126 107.8498 266 106 C262.6159 100.4403 263.8339 92.3899 260 86 C258.3105 83.1841 254.2843 84.0791 251 81 C247.0708 77.3164 244 71 244 71 "/>
<path id="17" d="M156 283 C156 283 158.5487 301.7913 163 317 C164.0451 320.5706 166.6268 322.9701 168 324 C168.3014 324.2261 170.5794 323.7361 171 323 C176.3354 313.663 176.7223 308.5705 184 296 C187.417 290.098 191.2897 290.4731 193 285 C197.8137 269.5961 196.0822 253.141 199 248 C199.6148 246.9168 208.2822 249.1436 214 248 C216.2109 247.5578 217.5198 246.3261 219 244 C223.8903 236.3152 227.919 226.027 228 226 C228.009 225.997 229.8662 237.7324 231 240 C231.1463 240.2926 234.3855 240.6583 235 240 C243.6243 230.7597 258.3211 210.7332 259 210 C259.027 209.9709 259.7132 212.9181 260 213 C260.8824 213.2521 265.2429 213.0978 266 212 C271.5486 203.9545 277.6098 186.9878 280 184 C280.1098 183.8628 285.0276 187.108 286 187 C286.5911 186.9343 288.2751 185.0943 289 183 C292.4642 172.9923 294.1081 171.7027 295 161 C296.503 142.9639 294 123 294 123 "/>
<path id="18" d="M293 123 C293 123 292.0745 127.6682 293 131 C294.3175 135.7431 296.4385 136.0551 298 141 C299.2563 144.9784 298.8454 145.5157 299 150 C299.3423 159.9271 300.52 160.8799 299 170 C297.708 177.7521 297.2901 179.0699 293 186 C272.0057 219.9139 271.3822 223.6106 247 254 C238.5276 264.5598 235.8964 266.0518 224 272 C210.8025 278.5988 193.006 280.9981 193 281 C192.9995 281.0002 195.974 280.9048 196 281 C196.349 282.2798 197.4418 287.5304 196 292 C192.9557 301.4372 186 312 186 312 "/>
<path id="19" d="M283 116 C283 116 287.0195 116.3322 289 118 C295.3892 123.3804 294.8347 126.9649 302 132 C312.1756 139.1504 313.6791 139.7219 326 144 C348.971 151.9761 349.9576 150.894 374 157 C381.3868 158.876 381.6161 159.8371 389 160 C448.302 161.3081 455.6781 155.5352 510 160 C521.6663 160.9589 524.7118 164.4553 535 172 C545.7752 179.9018 548.9259 182.1534 555 193 C561.3156 204.2778 560.8094 207.6394 563 222 C565.1857 236.3284 562.6113 237.4186 564 252 C564.5669 257.9525 564.6887 258.4786 567 264 C573.5 279.5278 573.3892 280.4095 582 295 C591.1598 310.5208 594.4489 309.8711 603 325 C606.8449 331.8025 604.6711 333.6289 608 341 C611.4759 348.6967 615.523 348.9103 617 356 C619.9066 369.9519 620.943 374.4814 618 389 C614.03 408.5855 610.3704 409.911 602 430 C600.4781 433.6526 600.1857 435.9072 598 437 C590.7145 440.6428 577.5204 443.4627 576 443 C575.6264 442.8863 573.5187 432.7158 575 430 C576.9138 426.4913 583.6804 426.1424 588 421 C592.9268 415.1348 594.0813 412.8665 596 405 C598.7242 393.8309 600.4024 389.7946 598 380 C594.8948 367.3402 591.2177 365.2748 583 352 C578.4136 344.5912 578.0223 344.2632 572 338 C565.761 331.5114 565.5149 330.8429 558 326 C543.4927 316.6509 542.8041 316.3376 527 309 C515.1433 303.4951 509.2127 305.6827 502 300 C497.1915 296.2115 496.5366 291.5321 494 283 C491.2653 273.8015 491 263 491 263 "/>
<path id="20" d="M146 288 C146 288 144.4885 332.8125 141 377 C140.0121 389.5135 139.792 389.9015 137 402 C135.3679 409.0724 135.4455 409.9704 132 416 C127.8537 423.256 123.5757 423.6777 121 430 C119.1882 434.4471 119.7894 437.4313 121 443 C122.0324 447.7492 124.0982 452.4566 126 453 C133.2613 455.0747 152.499 453.9336 156 453 C156.249 452.9336 154.7825 447.5702 156 445 C158.3228 440.0963 162.2455 439.7058 165 434 C168.6645 426.4093 169.1409 424.8777 170 416 C172.0496 394.8206 168.7548 393.169 171 372 C172.1523 361.1355 175.1017 361.0734 177 350 C181.0415 326.4243 183 302 183 302 "/>
<path id="21" d="M227 257 C227 257 224.0864 257.6118 223 259 C216.2331 267.6466 214.4044 269.1912 209 280 C204.2711 289.4577 203.2553 290.778 202 301 C199.9326 317.8343 200.4299 319.4671 202 337 C203.3755 352.3595 206.9653 352.6523 208 368 C209.9109 396.3452 209.347 397.3756 208 426 C207.3686 439.418 202.7006 451.6078 204 453 C205.8356 454.9667 235.5421 457.0235 236 456 C239.2329 448.7736 235.5537 415.3251 238 377 C238.4716 369.6112 238.5152 367.8609 242 362 C248.5578 350.971 252.7679 350.2773 260 340 C261.1899 338.3091 259.833 336.5261 261 335 C265.2871 329.3938 269.445 329.399 273 323 C278.4171 313.2492 281 299 281 299 "/>
<path id="22" d="M282 270 C282 270 279.2655 283.3346 282 290 C285.4953 298.5198 289.5011 303.2632 298 309 C306.6685 314.8512 310.2422 315.5504 322 317 C345.116 319.8499 347.5181 320.0046 371 318 C387.1698 316.6197 389.1968 316.0216 404 310 C417.2737 304.6005 416.734 299.8676 430 294 C441.6694 288.8385 444.9771 292.5114 456 287 C469.2648 280.3676 469.0788 275.8963 482 268 C486.0653 265.5156 492 265 492 265 "/>
<path id="23" d="M463 283 C463 283 457.6714 293.2653 457 303 C454.7965 334.9501 460.4799 338.1012 457 370 C454.6987 391.0956 453.1754 393.2207 445 413 C438.2065 429.436 432.0794 430.2815 426 445 C423.8641 450.1711 425.4942 458.8103 426 459 C429.0107 460.129 450.9431 460.5285 458 457 C461.6354 455.1823 464.1195 447.7756 466 439 C468.3097 428.2213 464.6914 426.1231 467 415 C469.9635 400.7212 473.0181 400.67 477 386 C482.4544 365.9047 482.189 365.5795 486 345 C489.6721 325.1708 490.4501 324.8898 492 305 C493.417 286.8145 492 268 492 268 "/>
<path id="24" d="M256 339 C256 339 294.2145 343.0228 332 344 C351.8277 344.5128 352.3117 344.0881 372 342 C384.9895 340.6223 385.6365 340.7324 398 337 C411.627 332.8862 412.7143 332.8517 425 326 C437.9917 318.7547 450 308 450 308 "/>
<path id="25" d="M524 165 C524 165 530.666 164.3489 535 166 C539.8236 167.8376 541.9781 168.7189 545 173 C558.4027 191.9872 559.1635 194.7195 571 217 C575.9649 226.3458 573.7846 228.0592 579 237 C587.387 251.3777 590.4796 250.4652 599 265 C607.195 278.9797 607.3802 280.3886 613 295 C614.4905 298.8752 612.6249 299.9729 614 304 C619.3639 319.7087 622.0831 319.8836 627 336 C630.8997 348.7823 628.222 350.7215 632 363 C633.8737 369.0896 638.9943 375.0123 639 375 C639.0159 374.9655 639.5481 357.2244 638 350 C637.75 348.8335 634.4058 348.8275 633 347 C630.1569 343.304 628.5319 341.6805 628 337 C626.2888 321.9418 632.3452 315.2799 628 303 C622.9981 288.8642 614.5027 287.6116 605 272 C601.1897 265.7403 603.4415 263.8829 600 257 C588.2007 233.4014 589.1921 229.804 574 210 C562.8771 195.5006 544 184 544 184 "/>
</g>
</g>
</svg>
