<?xml version="1.0" encoding="utf-8"?>
<!DOCTYPE svg PUBLIC "-//W3C//DTD SVG 1.1//EN" "http://www.w3.org/Graphics/SVG/1.1/DTD/svg11.dtd">
<svg viewBox="0 0 800 800" preserveAspectRatio="xMinYMin meet" xmlns="http://www.w3.org/2000/svg" version="1.1">
<g fill="none" stroke="black" stroke-linecap="round" stroke-linejoin="round" stroke-width="1.2865">
<g transform="translate(106.1755,87.52) scale(2.3319) translate(-140,-111.1333)">
<path id="0" d="M199 155.1333 C199 155.1333 186.7444 154.091 183 156.1333 C180.2843 157.6146 178.1961 161.9501 177 167.1333 C175.5513 173.4112 177 182.1333 177 182.1333 "/>
<path id="1" d="M334 155.1333 C334 155.1333 338.8528 154.8808 341 156.1333 C343.4067 157.5373 344.1975 158.9789 346 162.1333 C347.977 165.593 348.419 166.2602 349 170.1333 C349.825 175.6336 349 182.1333 349 182.1333 "/>
<path id="2" d="M345 158.1333 C345 158.1333 344.1915 152.4808 345 151.1333 C345.7623 149.8628 348.1808 148.5011 351 148.1333 C358.4987 147.1552 362.0241 146.9951 368 148.1333 C369.6739 148.4522 371.419 150.2743 372 152.1333 C373.3625 156.4933 374.2978 162.7119 373 164.1333 C369.361 168.1189 351 175.1333 351 175.1333 "/>
<path id="3" d="M177 166.1333 C177 166.1333 172.3858 162.5978 171 159.1333 C168.9656 154.0472 168.3125 147.0708 169 146.1333 C169.6875 145.1958 179.2655 143.0395 182 144.1333 C184.4655 145.1195 189 154.1333 189 154.1333 "/>
<path id="4" d="M216 146.1333 C216 146.1333 200.3268 155.663 198 163.1333 C193.4391 177.7761 193.8847 189.008 197 207.1333 C198.5682 216.2574 203.7847 222.3715 209 227.1333 C211.0531 229.0079 219.7953 227.7239 220 228.1333 C220.3464 228.8262 216.154 235.1262 216 241.1333 C215.6953 253.0183 216.9788 255.0059 219 267.1333 C219.3305 269.1164 219.6736 270.197 221 271.1333 C226.6777 275.1411 228.9241 277.6437 236 279.1333 C245.7545 281.1869 248.2233 280.365 259 279.1333 C264.8368 278.4663 271 275.1333 271 275.1333 "/>
<path id="5" d="M292 143.1333 C292 143.1333 301.5029 143.6856 306 147.1333 C314.0543 153.3083 315.3821 156.2065 322 166.1333 C326.982 173.6064 328.2917 175.0189 330 183.1333 C331.92 192.2535 332.0173 195.8118 330 204.1333 C328.6609 209.657 326.6219 212.4358 322 216.1333 C315.8549 221.0494 307.0956 221.6187 305 224.1333 C304.2122 225.0787 305.1648 229.8512 307 234.1333 C309.3665 239.6551 312.3762 240.0299 314 245.1333 C315.3504 249.3774 315.0289 251.7604 314 256.1333 C313.3507 258.8927 312.381 260.7508 310 262.1333 C299.193 268.4084 296.1789 269.8502 283 274.1333 C277.3169 275.9804 270 275.1333 270 275.1333 "/>
<path id="6" d="M212 149.1333 C212 149.1333 218.0178 145.2728 224 144.1333 C238.1197 141.4439 239.0375 141.9495 254 141.1333 C266.4011 140.4569 267.8511 139.2299 279 141.1333 C286.6683 142.4426 295 148.1333 295 148.1333 "/>
<path id="7" d="M222 169.1333 C222 169.1333 218.0579 179.046 219 184.1333 C219.8793 188.8815 224.3206 194.0281 227 196.1333 C227.8016 196.7632 232.5488 195.9538 233 195.1333 C235.2825 190.9834 238.3812 180.8981 238 176.1333 C237.8656 174.4528 234.4148 171.9721 231 170.1333 C228.8176 168.9582 225 169.1333 225 169.1333 "/>
<path id="8" d="M289 164.1333 C289 164.1333 286.3238 163.4714 285 164.1333 C280.532 166.3673 276.8633 167.9148 275 171.1333 C273.1673 174.2989 273.1061 178.2169 274 183.1333 C274.8251 187.6716 276.2289 190.7317 279 193.1333 C281.5548 195.3475 287.7629 196.7519 289 196.1333 C290.6737 195.2965 293.3629 190.5123 295 185.1333 C296.5705 179.9731 297.0552 177.3543 296 173.1333 C295.1468 169.7207 290 165.1333 290 165.1333 "/>
<path id="9" d="M239 186.1333 C239 186.1333 241.5243 186.4674 242 187.1333 C243.1243 188.7074 244 190.3502 244 193.1333 C244 207.5129 240.4109 213.8044 242 224.1333 C242.4779 227.2398 246.4849 230.5711 250 232.1333 C253.0419 233.4853 256.9823 233.6422 260 232.1333 C265.281 229.4928 271.2074 225.0965 272 221.1333 C273.6681 212.793 267.6927 204.4265 268 192.1333 C268.1183 187.4011 273 181.1333 273 181.1333 "/>
<path id="10" d="M232 232.1333 C232 232.1333 242.9861 252.0736 249 259.1333 C249.741 260.0032 253.3967 259.8459 255 259.1333 C256.2767 258.5659 256.8486 257.2442 258 255.1333 C259.7642 251.8989 260.6032 251.3075 261 248.1333 C261.4775 244.3135 260 239.1333 260 239.1333 C260 239.1333 259.8249 242.9509 261 245.1333 C262.8387 248.5481 264.0817 250.8201 267 252.1333 C271.7522 254.2718 278.7023 255.3369 281 254.1333 C283.4497 252.8501 285.8706 247.2173 288 241.1333 C288.9648 238.3769 288 234.1333 288 234.1333 "/>
<path id="11" d="M175 177.1333 C175 177.1333 180.1385 186.812 185 191.1333 C187.1179 193.0159 193 193.1333 193 193.1333 "/>
<path id="12" d="M323 162.1333 C323 162.1333 326.1219 158.8529 329 158.1333 C334.859 156.6686 343 157.1333 343 157.1333 "/>
<path id="13" d="M332 185.1333 C332 185.1333 338.7215 186.2262 342 185.1333 C344.1857 184.4048 347 180.1333 347 180.1333 "/>
<path id="14" d="M234 117.1333 C234 117.1333 240.1999 113.851 245 114.1333 C255.3307 114.741 256.7184 118.3812 268 119.1333 C285.8571 120.3238 290.25 116.2503 305 118.1333 C309.3578 118.6896 310.2886 124.1472 315 125.1333 C328.7328 128.0076 331.7292 125.2351 348 127.1333 C361.5046 128.7089 362.499 128.6608 375 132.1333 C379.5747 133.4041 382.3149 134.7742 384 137.1333 C385.4323 139.1386 383.6728 142.1516 385 146.1333 C387.4649 153.528 390.1447 153.9772 392 161.1333 C393.324 166.2404 393.2674 167.8827 392 173.1333 C390.0261 181.3111 387.4897 181.7306 385 190.1333 C383.656 194.6692 385.8827 196.6032 384 200.1333 C378.9953 209.5172 376.8521 211.2105 369 220.1333 C366.3606 223.1327 363.6623 222.4132 362 225.1333 C359.2328 229.6615 358.1898 232.2497 358 238.1333 C357.7412 246.1565 358.1117 248.0462 361 256.1333 C365.2837 268.1278 365.9578 271.5262 373 280.1333 C377.4298 285.5475 385.4175 285.9975 388 289.1333 C388.8679 290.1873 388.3342 293.7979 387 297.1333 C384.6493 303.0101 383.7703 303.992 380 309.1333 C378.6943 310.9138 377.9627 311.6168 376 312.1333 C369.6373 313.8077 366.044 315.5977 361 314.1333 C354.2859 312.1841 350.287 308.6986 345 303.1333 C342.6087 300.6162 344.4189 296.8068 342 294.1333 C336.533 288.0908 330.0163 286.9027 326 282.1333 C324.8963 280.8227 326.0082 275.1388 326 275.1333 C325.9994 275.1329 324.8412 278.599 323 280.1333 C319.6173 282.9523 318.629 283.2397 314 285.1333 C307.8661 287.6426 307.501 288.0498 301 289.1333 C289.9008 290.9832 284.2334 288.0166 278 291.1333 C273.8444 293.2111 271.092 298.4391 269 305.1333 C266.7214 312.4249 266.8443 315.0435 268 323.1333 C269.1557 331.2232 269.261 334.1135 274 340.1333 C285.8684 355.2095 304.9093 370.0321 305 370.1333 C305.0086 370.1429 300 369.1333 300 369.1333 "/>
<path id="15" d="M231 116.1333 C231 116.1333 231.0602 114.1454 231 114.1333 C227.1462 113.3626 217.6074 110.6174 206 111.1333 C196.5606 111.5529 195.1838 112.5082 186 116.1333 C176.8272 119.7542 176.8699 123.1767 168 126.1333 C160.2389 128.7204 157.905 126.6276 150 128.1333 C148.546 128.4103 147.5439 128.9912 147 130.1333 C143.4572 137.5733 141.8425 139.921 140 149.1333 C138.5549 156.3587 138.8216 158.3576 140 165.1333 C140.5668 168.3923 143.7432 169.1798 144 172.1333 C144.5532 178.4948 142 180.2938 142 188.1333 C142 200.8726 141.406 202.3164 144 214.1333 C145.6224 221.5244 146.4092 223.5445 151 229.1333 C156.784 236.1747 161.5012 236.3111 167 242.1333 C168.1628 243.3645 167.4587 246.7467 168 247.1333 C168.7105 247.6408 173.4 246.8333 174 247.1333 C174.15 247.2083 174.4197 249.7136 174 250.1333 C172.4611 251.6723 170.6156 252.967 167 254.1333 C155.6891 257.782 146.3727 257.0305 143 260.1333 C141.0989 261.8824 141.4715 268.8528 142 277.1333 C142.9442 291.926 143.1376 303.8469 146 307.1333 C147.798 309.1977 164.0487 309.2759 169 308.1333 C170.0036 307.9017 169.9351 302.8541 172 301.1333 C177.0649 296.9126 182.3116 296.6496 187 293.1333 C187.893 292.4636 187.4817 289.3061 188 289.1333 C193.4052 287.3316 210.2099 285.4494 211 285.1333 C211.045 285.1153 208 281.1333 208 281.1333 "/>
<path id="16" d="M220 286.1333 C220 286.1333 219.1769 289.5901 220 291.1333 C222.3484 295.5367 225.0557 295.8335 228 301.1333 C232.258 308.7977 233.1515 309.947 235 318.1333 C236.3928 324.3015 233.8288 325.809 235 332.1333 C236.165 338.4242 236.6268 339.3989 240 345.1333 C246.3108 355.8617 246.638 360.1345 255 366.1333 C266.0163 374.0364 270.8514 375.1495 286 378.1333 C301.9811 381.2811 321 379.1333 321 379.1333 "/>
<path id="17" d="M225 184.1333 C225 184.1333 228.9123 182.5895 230 183.1333 C232.5379 184.4023 236.9068 189.8847 237 190.1333 C237.0048 190.1462 234.2623 191.5217 233 191.1333 C229.3973 190.0248 224.0975 186.0724 224 186.1333 C223.9128 186.1878 224.4581 194.7785 225 196.1333 C225.0625 196.2897 227.5842 196.4452 228 196.1333 C228.4504 195.7955 228.8677 194.5885 229 193.1333 C229.3424 189.3671 229.4 185.9333 229 185.1333 C228.9 184.9333 225.4707 184.7568 225 185.1333 C224.5058 185.5287 223.7545 188.3967 224 189.1333 C224.2009 189.736 227 191.1333 227 191.1333 "/>
<path id="18" d="M278 183.1333 C278 183.1333 290.742 183.0044 293 184.1333 C293.6555 184.4611 294.2797 190.807 294 191.1333 C293.7268 191.452 288.9142 192.0034 287 191.1333 C285.2847 190.3536 283.0062 186.1333 283 186.1333 C282.9984 186.1333 283.2557 190.6123 284 191.1333 C285.7203 192.3375 292.9457 193.1514 293 193.1333 C293.0109 193.1297 291.6813 190.0941 290 189.1333 C285.7741 186.7185 279.5958 185.1333 279 185.1333 C279 185.1333 278.3814 188.0199 279 189.1333 C280.2028 191.2984 282.4292 193.3479 284 194.1333 C284.5236 194.3951 287.0122 193.1479 287 193.1333 C286.9054 193.0198 280.6272 190.1673 279 188.1333 C278.2863 187.2412 278.5763 183.557 279 183.1333 C279.5932 182.5402 283.2591 181.553 285 182.1333 C287.3553 182.9184 291 187.1333 291 187.1333 "/>
</g>
</g>
</svg>
