<?xml version="1.0" encoding="utf-8"?>
<!DOCTYPE svg PUBLIC "-//W3C//DTD SVG 1.1//EN" "http://www.w3.org/Graphics/SVG/1.1/DTD/svg11.dtd">
<svg viewBox="0 0 800 800" preserveAspectRatio="xMinYMin meet" xmlns="http://www.w3.org/2000/svg" version="1.1">
<g fill="none" stroke="black" stroke-linecap="round" stroke-linejoin="round" stroke-width="2.5058">
<g transform="translate(87.52,164.1434) scale(1.1972) translate(-116,-72.4167)">
<path id="0" d="M191 178.4167 C191 178.4167 175.2739 199.091 162 219.4167 C159.7945 222.7939 160.0161 223.3524 159 227.4167 C156.5614 237.171 155.5172 237.5904 155 247.4167 C154.0545 265.3803 153.4805 267.4102 156 284.4167 C157.2233 292.674 159.0248 294.4601 163 301.4167 C164.298 303.6882 167.0576 303.3224 168 305.4167 C170.6841 311.3813 169.116 315.9109 172 321.4167 C173.3813 324.0536 176.471 323.4414 179 326.4167 C184.4275 332.8019 186.4697 333.7054 189 341.4167 C196.2815 363.608 194.6163 371.7531 200 390.4167 C200.4286 391.9026 202.2554 393.1986 204 393.4167 C211.9754 394.4136 214.123 392.7432 224 393.4167 C235.9534 394.2317 236.8377 394.1842 248 396.4167 C250.9948 397.0156 251.1508 398.8061 254 399.4167 C257.4313 400.1519 260.1018 400.603 262 399.4167 C265.3811 397.3035 265.9332 393.1706 270 389.4167 C271.6158 387.9251 273.9056 388.9262 275 387.4167 C285.7789 372.5492 285.677 366.0704 299 349.4167 C306.6863 339.8088 313.0711 341.5969 319 332.4167 C326.5515 320.724 328.0848 316.5909 330 301.4167 C334.2724 267.5659 333.1725 262.2453 332 229.4167 C331.8015 223.8583 328.0692 223.2974 327 217.4167 C325.2456 207.7673 327.8325 205.5791 326 196.4167 C325.1356 192.0948 321 187.4167 321 187.4167 "/>
<path id="1" d="M202 220.4167 C202 220.4167 196.7682 220.5326 193 222.4167 C183.5794 227.127 174 234.4167 174 234.4167 "/>
<path id="2" d="M173 235.4167 C173 235.4167 185.7729 237.2235 193 235.4167 C196.5232 234.5359 198.6318 232.0766 201 228.4167 C203.3224 224.8275 202.6918 219.8702 204 218.4167 C204.5562 217.7986 210 218.4167 210 218.4167 "/>
<path id="3" d="M278 216.4167 C278 216.4167 283.3677 217.6924 287 220.4167 C294.7187 226.2057 302.0251 234.2913 302 234.4167 C301.9895 234.4691 288.5634 237.1718 284 235.4167 C280.8316 234.198 278.2091 229.3872 276 224.4167 C274.9376 222.0263 276 217.4167 276 217.4167 "/>
<path id="4" d="M193 226.4167 C193 226.4167 195.9926 229.4216 196 229.4167 C196.0247 229.4002 196.2757 224.8762 196 224.4167 C195.9007 224.2512 193.2895 224.1272 193 224.4167 C192.5175 224.8991 192 228.4167 192 228.4167 "/>
<path id="5" d="M283 222.4167 C283 222.4167 282.9182 233.1713 283 233.4167 C283.0074 233.439 285.7281 232.2324 286 231.4167 C286.6345 229.5132 286 224.4167 286 224.4167 "/>
<path id="6" d="M211 303.4167 C211 303.4167 217.1614 300.1036 223 299.4167 C233.3002 298.2049 236.4657 298.1523 245 299.4167 C247.1695 299.7381 249.7302 301.933 250 303.4167 C250.9791 308.8018 251.4832 317.4728 249 321.4167 C246.4576 325.4546 238.6508 326.4279 233 330.4167 C232.2119 330.973 232.2843 333.3219 232 333.4167 C231.3367 333.6378 227.7748 333.4627 227 332.4167 C220.8867 324.1638 212 306.4167 212 306.4167 "/>
<path id="7" d="M224 303.4167 C224 303.4167 225 318.4167 225 318.4167 C225 318.4167 223 304.4167 223 304.4167 C223 304.4167 224.2809 309.4846 224 313.4167 C223.8382 315.6815 222.019 318.4167 222 318.4167 C221.981 318.4167 220.0001 313.4166 220 313.4167 C219.9998 313.4168 220.4304 318.7332 221 319.4167 C221.2778 319.7501 224.1136 320.0815 225 319.4167 C228.2687 316.9651 233 310.4167 233 310.4167 "/>
<path id="8" d="M237 302.4167 C237 302.4167 237 324.4165 237 324.4167 C237 324.4168 239 308.4168 239 308.4167 C239 308.4166 239 315.4167 239 315.4167 C239.0087 315.4167 242.8896 308.4044 243 308.4167 C243.2017 308.4391 247.9799 316.4006 248 316.4167 C248.0056 316.4212 248 312.4167 248 312.4167 "/>
<path id="9" d="M205 285.4167 C205 285.4167 204 301.8303 204 317.4167 C204 319.852 204.0375 320.8766 205 322.4167 C205.9411 323.9225 209 325.4167 209 325.4167 "/>
<path id="10" d="M260 270.4167 C260 270.4167 267.4944 280.7114 273 291.4167 C276.2954 297.8244 276.903 298.6154 278 305.4167 C279.2595 313.2255 279.6646 316.7095 278 322.4167 C277.1147 325.4521 271 329.4167 271 329.4167 "/>
<path id="11" d="M211 373.4167 C211 373.4167 221.8471 379.9399 232 381.4167 C247.575 383.6821 266 381.4167 266 381.4167 C266 381.4167 250.1552 383.0353 235 382.4167 C226.1287 382.0546 224.8023 381.5446 217 379.4167 C215.0023 378.8718 213 376.4167 213 376.4167 "/>
<path id="12" d="M190 229.4167 C190 229.4167 191.2875 235.1699 192 236.4167 C192.1 236.5917 193.9811 236.4827 194 236.4167 C194.2311 235.6077 194.7018 231.7561 194 229.4167 C193.609 228.1133 192.4664 227.0032 191 226.4167 C188.4164 225.3832 184.5116 225.1974 184 225.4167 C183.8665 225.4739 183.5986 229.0726 184 229.4167 C185.0204 230.2913 191 231.4167 191 231.4167 "/>
<path id="13" d="M287 223.4167 C287 223.4167 286.758 233.0857 287 234.4167 C287.008 234.4607 288.998 234.4367 289 234.4167 C289.0994 233.4231 288 224.4167 288 224.4167 "/>
<path id="14" d="M185 173.4167 C185 173.4167 175.4464 171.8172 170 174.4167 C156.4359 180.8904 153.7664 183.5185 141 194.4167 C134.1268 200.284 132.601 201.6462 129 209.4167 C123.8783 220.4687 122.7451 222.7502 122 235.4167 C119.8577 271.8362 120.6047 276.685 123 311.4167 C123.3572 316.5965 124.7152 318.1053 128 322.4167 C132.077 327.7677 133.1732 328.9638 139 332.4167 C145.732 336.406 148.6037 334.7616 155 338.4167 C157.7749 340.0023 157.5739 343.3952 160 344.4167 C164.7843 346.4311 174 346.4167 174 346.4167 "/>
<path id="15" d="M332 189.4167 C332 189.4167 340.1514 190.4551 347 193.4167 C358.1304 198.2298 358.7413 198.6675 369 205.4167 C377.4255 210.9598 378.2134 211.1922 385 218.4167 C393.254 227.2032 393.5268 228.3473 400 238.4167 C402.1681 241.7893 401.006 243.4257 403 246.4167 C404.4623 248.6101 406.9002 248.2171 408 250.4167 C411.5532 257.5231 413.0626 259.6679 414 268.4167 C415.9107 286.2495 415.8396 288.3278 414 306.4167 C412.9539 316.7036 412.2749 318.1124 408 327.4167 C404.2114 335.6624 403.15 336.2826 397 343.4167 C390.9498 350.4349 390.1903 351.7153 383 356.4167 C378.3294 359.4705 376.8995 359.7144 371 360.4167 C356.758 362.1122 355.8928 361.8304 341 361.4167 C320.0894 360.8358 299 358.4167 299 358.4167 "/>
<path id="16" d="M179 187.4167 C179 187.4167 168.3015 191.3121 162 197.4167 C153.6545 205.5013 150.7105 207.7132 147 218.4167 C138.8123 242.0351 140.1876 245.7683 136 272.4167 C134.7977 280.0676 134.7772 281.0798 136 288.4167 C137.1337 295.2186 137.8462 296.1091 141 302.4167 C143.1025 306.6217 147 310.4167 147 310.4167 "/>
<path id="17" d="M337 205.4167 C337 205.4167 346.3572 214.9715 354 225.4167 C361.1888 235.2414 361.473 235.541 367 246.4167 C376.8396 265.7784 378.1063 267.6505 385 286.4167 C386.3311 290.0401 384.2048 291.7055 385 295.4167 C385.4986 297.7435 387.5655 298.0991 388 300.4167 C388.8593 304.9997 388.8567 307.133 388 311.4167 C387.6417 313.208 386.7704 314.0548 385 315.4167 C380.742 318.6921 379.8154 320.1682 375 321.4167 C367.8077 323.2813 358 322.4167 358 322.4167 "/>
<path id="18" d="M188 204.4167 C188 204.4167 204.7925 203.0643 221 203.4167 C227.4103 203.556 234.0002 205.4166 234 205.4167 C233.9996 205.4167 209 205.4167 209 205.4167 "/>
<path id="19" d="M256 205.4167 C256 205.4167 291.9998 206.4166 292 206.4167 C292.0001 206.4167 269 208.4167 269 208.4167 "/>
<path id="20" d="M238 248.4167 C238 248.4167 229.4417 262.4932 224 267.4167 C222.7787 268.5216 217 267.4167 217 267.4167 "/>
<path id="21" d="M275 258.4167 C275 258.4167 279.0709 265.0064 284 269.4167 C288.0204 273.0139 294 275.4167 294 275.4167 "/>
<path id="22" d="M174 170.4167 C174 170.4167 174.7677 165.3233 177 161.4167 C184.4411 148.3947 184.6567 147.563 194 135.4167 C204.4469 121.8358 204.4445 120.627 217 109.4167 C231.7872 96.2138 232.9436 95.4827 250 85.4167 C262.687 77.9292 264.4833 75.4839 278 73.4167 C303.8929 69.4566 306.8344 71.4673 335 72.4167 C350.8883 72.9522 352.3302 72.1935 367 76.4167 C383.9561 81.298 384.4746 86.3319 401 91.4167 C408.8347 93.8274 410.5965 90.736 419 92.4167 C427.4035 94.0974 436 98.4167 436 98.4167 "/>
<path id="23" d="M349 212.4167 L383 214.4167 "/>
<path id="24" d="M420 300.4167 C420 300.4167 419.5521 302.8942 420 303.4167 C421.3649 305.0091 422.8478 306.1033 426 307.4167 C434.4287 310.9286 434.9608 311.9101 444 313.4167 C470.1661 317.7777 471.2796 318.2549 498 319.4167 C516.6701 320.2284 536 317.4167 536 317.4167 "/>
<path id="25" d="M437 103.4167 C437 103.4167 449.5972 106.1846 459 112.4167 C491.216 133.7691 491.2711 136.1304 523 160.4167 C531.7293 167.0984 533.0406 166.4862 540 174.4167 C553.9138 190.272 556.5995 190.9994 566 209.4167 C580.1656 237.1697 579.615 240.6975 589 270.4167 C591.1057 277.0846 591.7357 283.185 590 285.4167 C586.4472 289.9846 578.0995 290.5927 568 297.4167 C560.022 302.8072 560.5817 305.3622 553 310.4167 C549.4761 312.7659 544 313.4167 544 313.4167 "/>
<path id="26" d="M253 154.4167 C253 154.4167 267.8828 136.5052 284 121.4167 C290.848 115.0058 292.1247 112.8275 300 110.4167 C313.9166 106.1565 333 106.4167 333 106.4167 "/>
<path id="27" d="M365 152.4167 C365 152.4167 382.0049 138.3691 399 127.4167 C403.6049 124.4491 410 123.4167 410 123.4167 "/>
<path id="28" d="M119 241.4167 C119 241.4167 116.0674 247.6192 116 253.4167 C115.5856 289.0529 115.8789 293.0544 118 327.4167 C118.2056 330.7476 120.5755 331.021 121 334.4167 C122.446 345.9849 120.388 347.3267 122 359.4167 C123.3255 369.358 122.8491 370.769 127 379.4167 C134.2492 394.5192 135.6363 395.5984 146 409.4167 C151.7381 417.0674 152.3889 417.3803 160 423.4167 C181.0351 440.0997 185.108 443.7908 204 455.4167 C206.3729 456.8769 212 455.4167 212 455.4167 "/>
<path id="29" d="M347 366.4167 C347 366.4167 350.4282 383.4207 349 398.4167 C347.574 413.3902 347.2223 416.0502 341 429.4167 C334.5769 443.2145 332.174 445.6261 322 456.4167 C317.1978 461.5099 314.9713 461.8347 308 464.4167 C302.353 466.5082 295 466.4167 295 466.4167 "/>
<path id="30" d="M378 362.4167 C378 362.4167 377.9973 377.5282 375 390.4167 C373.2633 397.8845 372.4185 398.7219 368 405.4167 C356.2533 423.2148 356.108 425.7083 342 440.4167 C333.9637 448.795 321 454.4167 321 454.4167 "/>
<path id="31" d="M314 390.4167 C314 390.4167 315.8316 398.9327 315 406.4167 C313.9242 416.0988 313.3761 416.8511 310 426.4167 C304.4797 442.0576 304.3517 443.7635 297 457.4167 C294.6189 461.8387 292.4522 463.444 289 465.4167 C287.3523 466.3582 283 465.4167 283 465.4167 "/>
<path id="32" d="M311 402.4167 C311 402.4167 297.2224 422.2684 282 432.4167 C268.9522 441.1152 264.3713 439.9518 248 444.4167 C243.6077 445.6146 238 444.4167 238 444.4167 "/>
<path id="33" d="M160 352.4167 C160 352.4167 164.5336 372.8608 172 389.4167 C175.338 396.8182 177.0572 397.4739 183 403.4167 C186.5657 406.9824 192 409.4167 192 409.4167 "/>
<path id="34" d="M149 345.4167 C149 345.4167 159.0124 373.1105 171 399.4167 C176.8753 412.3097 177.3439 412.7661 185 424.4167 C188.5626 429.838 188.9269 430.4054 194 434.4167 C209.8963 446.9858 228 458.4167 228 458.4167 "/>
<path id="35" d="M430 336.4167 C430 336.4167 482.657 337.0118 525 333.4167 C530.1162 332.9823 530.3557 329.4195 536 327.4167 C545.361 324.095 547.4981 326.1008 556 322.4167 C561.1651 320.1785 560.6444 317.2432 566 314.4167 C577.9768 308.0956 579.7682 309.5326 592 303.4167 C596.2714 301.281 595.8202 299.2558 600 297.4167 C607.5426 294.0979 610.4927 296.5266 617 292.4167 C627.653 285.6884 638 273.4167 638 273.4167 "/>
<path id="36" d="M394 81.4167 C394 81.4167 408.4832 87.8559 423 91.4167 C434.4167 94.217 435.0535 93.9687 447 94.4167 C474.7452 95.4571 475.4471 92.8332 503 94.4167 C518.3939 95.3014 518.6006 97.9908 534 99.4167 C545.2572 100.459 545.9582 100.7687 557 99.4167 C569.8348 97.8451 570.0093 94.9756 583 93.4167 C606.9978 90.5369 632 90.4167 632 90.4167 "/>
<path id="37" d="M606 121.4167 C606 121.4167 621.1348 166.7917 632 209.4167 C633.6075 215.723 632 223.4167 632 223.4167 "/>
<path id="38" d="M551 149.4167 C551 149.4167 574.5234 189.0576 599 226.4167 C602.5878 231.8928 604.9682 231.0268 608 236.4167 C613.4472 246.1005 617 258.4167 617 258.4167 "/>
<path id="39" d="M136 163.4167 C136 163.4167 141.1704 145.8446 148 139.4167 C153.8307 133.9289 170 131.4167 170 131.4167 "/>
<path id="40" d="M160 150.4167 C160 150.4167 182.0319 135.9788 204 124.4167 C209.7526 121.389 210.6596 121.0205 217 120.4167 C230.7412 119.108 246 120.4167 246 120.4167 "/>
<path id="41" d="M261 147.4167 C261 147.4167 290.5204 140.4167 317 140.4167 C332.6041 140.4167 334.4235 142.4005 350 147.4167 C363.1951 151.6659 363.9295 152.8328 376 159.4167 C379.81 161.4948 383 165.4167 383 165.4167 "/>
<path id="42" d="M391 203.4167 C391 203.4167 367.148 175.7226 342 154.4167 C332.7851 146.6096 330.7899 147.22 319 142.4167 C304.1725 136.3759 303.5471 136.4589 288 132.4167 C278.8476 130.037 278.3562 129.5162 269 129.4167 C232.14 129.0245 223.2229 123.2442 194 131.4167 C174.0166 137.0052 170.5354 145.717 151 162.4167 C140.3732 171.5009 141.777 175.3139 132 184.4167 C128.371 187.7954 122 189.4167 122 189.4167 "/>
<path id="43" d="M129 159.4167 C129 159.4167 141.2709 146.2738 154 135.4167 C157.7133 132.2494 158.3505 132.509 163 130.4167 C178.2297 123.5633 178.428 122.4115 194 117.4167 C204.3089 114.11 205.4182 113.281 216 113.4167 C243.0293 113.7632 244.6122 114.078 272 118.4167 C294.5415 121.9876 295.2323 122.5427 317 129.4167 C332.7644 134.3949 348 142.4167 348 142.4167 "/>
<path id="44" d="M424 218.4167 C424 218.4167 399.7699 191.735 374 173.4167 C360.4997 163.8201 341 159.4167 341 159.4167 "/>
<path id="45" d="M283 183.4167 C283 183.4167 268.8641 170.7843 255 161.4167 C251.4334 159.0068 246 158.4167 246 158.4167 "/>
<path id="46" d="M233 175.4167 L210 151.4167 "/>
</g>
</g>
</svg>
