<?xml version="1.0" encoding="utf-8"?>
<!DOCTYPE svg PUBLIC "-//W3C//DTD SVG 1.1//EN" "http://www.w3.org/Graphics/SVG/1.1/DTD/svg11.dtd">
<svg viewBox="0 0 800 800" preserveAspectRatio="xMinYMin meet" xmlns="http://www.w3.org/2000/svg" version="1.1">
<g fill="none" stroke="black" stroke-linecap="round" stroke-linejoin="round" stroke-width="1.8577">
<g transform="translate(87.52,196.5247) scale(1.6149) translate(-171,-114.1333)">
<path id="0" d="M193 152.1333 C193 152.1333 171.0001 162.1333 171 162.1333 C170.9999 162.1334 176.3421 157.1684 181 156.1333 C187.9868 154.5807 198 156.1333 198 156.1333 "/>
<path id="1" d="M190 155.1333 C190 155.1333 188.4242 138.8912 191 130.1333 C192.1861 126.1006 195.1473 124.8306 200 121.1333 C205.3044 117.0919 206.442 115.0381 212 114.1333 C225.113 111.9987 230.2801 112.2253 243 114.1333 C247.0622 114.7427 249.5584 116.6065 252 120.1333 C257.2364 127.6971 259.0844 130.5554 261 140.1333 C263.1968 151.1172 262.0363 155.1155 261 165.1333 C260.8213 166.8605 258 169.1333 258 169.1333 "/>
<path id="2" d="M192 157.1333 C192 157.1333 190.5963 160.5763 191 163.1333 C191.9421 169.0998 193.3471 175.4822 195 176.1333 C200.2551 178.2035 212.3513 175.0744 224 176.1333 C225.7163 176.2894 227.241 177.5204 228 179.1333 C230.4691 184.3801 231.2966 186.2749 232 193.1333 C233.2204 205.0318 230.6687 206.1517 232 218.1333 C233.0946 227.9849 232.2841 230.3465 237 238.1333 C252.1574 263.1606 254.3174 269.5538 275 289.1333 C288.408 301.8263 293.4646 301.6594 312 309.1333 C323.112 313.614 337 314.1333 337 314.1333 "/>
<path id="3" d="M272 165.1333 L265 165.1333 "/>
<path id="4" d="M262 165.1333 C262 165.1333 281.4996 163.3061 300 165.1333 C321.3193 167.2389 326.8839 164.3005 343 173.1333 C372.8808 189.5103 377.7086 196.1665 404 222.1333 C416.1651 234.1482 417.3599 237.5547 424 253.1333 C429.4696 265.9658 430 283.1333 430 283.1333 "/>
<path id="5" d="M285 215.1333 C285 215.1333 287.2496 229.2487 293 240.1333 C300.588 254.4963 301.725 257.3485 313 268.1333 C322.9547 277.6552 326.4246 279.695 339 284.1333 C349.2146 287.7385 364 286.1333 364 286.1333 "/>
<path id="6" d="M319 319.1333 C319 319.1333 321.7875 329.9496 320 335.1333 C318.0826 340.6939 309 348.1333 309 348.1333 "/>
<path id="7" d="M319 337.1333 L320 351.1333 "/>
<path id="8" d="M320 338.1333 C320 338.1333 324.112 339.2454 326 341.1333 C328.3075 343.4409 330 348.1333 330 348.1333 "/>
<path id="9" d="M319 243.1333 C319 243.1333 329.7475 256.6068 341 267.1333 C344.4623 270.3723 350 272.1333 350 272.1333 "/>
<path id="10" d="M368 285.1333 L370 287.1333 "/>
<path id="11" d="M431 283.1333 C431 283.1333 424.7885 288.8419 421 289.1333 C415.3173 289.5705 410.2879 284.3779 405 285.1333 C400.4955 285.7768 398.2425 288.5746 393 293.1333 C387.0721 298.288 387.8428 300.8147 382 305.1333 C377.3845 308.5448 375.7385 309.4661 370 310.1333 C355.8606 311.7775 350.2513 310.8152 339 310.1333 C338.2301 310.0867 337 308.1333 337 308.1333 "/>
<path id="12" d="M388 299.1333 C388 299.1333 387.5892 306.5954 390 311.1333 C395.1619 320.8498 396.2595 323.7375 405 331.1333 C420.6908 344.4102 423.4032 343.8135 442 355.1333 C446.1204 357.6414 446.4411 358.1689 451 359.1333 C471.5952 363.49 472.6604 363.724 494 366.1333 C503.2589 367.1787 510.651 366.3806 513 366.1333 C513.026 366.1306 513 364.1333 513 364.1333 "/>
<path id="13" d="M428 265.1333 C428 265.1333 442.8048 263.6699 457 265.1333 C490.79 268.6168 494.901 266.193 525 275.1333 C541.515 280.0388 550.6483 287.3361 558 295.1333 C560.1574 297.4215 559.1546 303.2057 558 310.1333 C556.7813 317.4458 556.9359 319.0609 553 325.1333 C540.3893 344.5899 523 364.1333 523 364.1333 "/>
<path id="14" d="M429 304.1333 C429 304.1333 439.5225 314.5252 451 323.1333 C461.2902 330.851 461.5393 332.3165 473 337.1333 C494.9087 346.3413 520 352.1333 520 352.1333 "/>
<path id="15" d="M442 277.1333 L506 303.1333 "/>
<path id="16" d="M457 291.1333 C457 291.1333 462.3355 299.2305 469 305.1333 C479.3947 314.34 480.0527 314.861 492 322.1333 C502.6389 328.6092 515 333.1333 515 333.1333 "/>
<path id="17" d="M322 215.1333 C322 215.1333 329.7407 215.8776 335 219.1333 C349.4833 228.0992 349.0577 232.7113 364 241.1333 C375.215 247.4545 390 250.1333 390 250.1333 "/>
<path id="18" d="M215 135.1333 C215 135.1333 214.444 139.355 215 140.1333 C215.6195 141.0006 219.8212 142.2049 220 142.1333 C220.0681 142.1061 220.5424 138.8927 220 138.1333 C219.1089 136.8857 215 135.1333 215 135.1333 "/>
<path id="19" d="M207 156.1333 L211 158.1333 "/>
<path id="20" d="M212 158.1333 L224 158.1333 "/>
</g>
</g>
</svg>
