<?xml version="1.0" encoding="utf-8"?>
<!DOCTYPE svg PUBLIC "-//W3C//DTD SVG 1.1//EN" "http://www.w3.org/Graphics/SVG/1.1/DTD/svg11.dtd">
<svg viewBox="0 0 800 800" preserveAspectRatio="xMinYMin meet" xmlns="http://www.w3.org/2000/svg" version="1.1">
<g fill="none" stroke="black" stroke-linecap="round" stroke-linejoin="round" stroke-width="1.7425">
<g transform="translate(87.52,202.8707) scale(1.7217) translate(-72,-231.1333)">
<path id="0" d="M136 233.1333 C136 233.1333 129.6598 231.0072 126 232.1333 C118.9127 234.314 114.9052 236.7732 110 241.1333 C108.3195 242.6271 108 244.8364 108 248.1333 C108 262.2631 107.06 266.6672 110 278.1333 C111.0648 282.2862 113.6552 283.754 118 287.1333 C122.023 290.2623 123.0647 290.6527 128 292.1333 C132.4203 293.4594 133.0127 292.9255 138 293.1333 C144.9532 293.423 149.9745 294.6258 152 293.1333 C154.2158 291.5006 157 279.1333 157 279.1333 "/>
<path id="1" d="M130 231.1333 C130 231.1333 143.5529 230.0056 151 232.1333 C154.1488 233.033 156.1731 235.4795 158 239.1333 C160.9578 245.049 161.3149 246.7683 162 254.1333 C163.2479 267.5485 163.7456 272.2416 162 282.1333 C161.5599 284.627 158.9146 286.4331 156 288.1333 C153.9802 289.3115 150 289.1333 150 289.1333 "/>
<path id="2" d="M121 251.1333 C121 251.1333 125.3675 246.124 129 245.1333 C134.2775 243.694 139.1716 243.3932 143 245.1333 C146.4306 246.6927 148.9553 250.3623 151 255.1333 C152.7402 259.1938 152.5657 265.7463 152 266.1333 C150.1477 267.4007 138.2513 269.8915 132 268.1333 C127.1457 266.768 123.5272 261.5423 120 257.1333 C119.3151 256.2772 119.3792 254.0646 120 253.1333 C121.3968 251.0381 126 248.1333 126 248.1333 "/>
<path id="3" d="M131 246.1333 C131 246.1333 131.3418 249.9055 131 250.1333 C129.6757 251.0162 123.039 252.6528 122 252.1333 C121.0908 251.6788 118.9842 244.1423 119 244.1333 C119.0774 244.0891 127.034 246.1673 129 248.1333 C130.1234 249.2568 130.2797 254.807 130 255.1333 C129.7268 255.452 123.0805 255.2339 123 255.1333 C122.9626 255.0866 124.7471 250.7028 126 250.1333 C127.9009 249.2693 130.9506 249.371 134 250.1333 C135.8106 250.586 137.4326 251.8566 138 253.1333 C138.7126 254.7366 138.1571 259.081 138 259.1333 C137.1098 259.4301 130.092 259.059 126 257.1333 C123.5262 255.9692 121 251.1333 121 251.1333 "/>
<path id="4" d="M112 277.1333 C112 277.1333 108.2074 273.2025 105 272.1333 C102.0393 271.1464 100.3016 271.0328 97 272.1333 C85.1693 276.0769 71.992 283.1179 72 283.1333 C72.1358 283.3944 94.6497 294.9006 110 297.1333 C116.1833 298.0327 121.7231 294.1884 127 291.1333 C128.2616 290.4029 129 286.1333 129 286.1333 "/>
<path id="5" d="M165 276.1333 L165 347.1333 "/>
<path id="6" d="M136 296.1333 C136 296.1333 139.3789 317.5031 137 329.1333 C136.0537 333.7596 132.4044 335.501 127 340.1333 C122.2711 344.1866 119.8789 343.0389 116 347.1333 C111.8516 351.5122 109.9505 353.5662 109 359.1333 C106.911 371.3687 107.3571 375.9756 109 388.1333 C109.4915 391.7704 112.3001 395.7556 114 396.1333 C119.4063 397.3347 125.409 395.8416 136 394.1333 C140.4997 393.4076 142.8143 393.319 145 391.1333 C148.2785 387.8548 151 379.1333 151 379.1333 "/>
<path id="7" d="M146 394.1333 L148 388.1333 "/>
<path id="8" d="M152 381.1333 C152 381.1333 157.678 386.5931 162 387.1333 C170.7446 388.2264 183.612 384.3749 184 385.1333 C185.8866 388.8207 181.3453 409.1906 184 430.1333 C185.6011 442.7645 193 456.1333 193 456.1333 "/>
<path id="9" d="M197 386.1333 C197 386.1333 195 388.3648 195 390.1333 C195 419.7555 197 457.1333 197 457.1333 "/>
<path id="10" d="M200 386.1333 C200 386.1333 205.298 393.0909 210 396.1333 C212.183 397.5459 213.5286 397.0823 217 397.1333 C247.1877 397.5773 251.8691 402.5132 278 397.1333 C297.4155 393.136 300.7026 387.188 319 376.1333 C323.033 373.6968 326 368.1333 326 368.1333 "/>
<path id="11" d="M163 343.1333 C163 343.1333 166.7577 336.1902 171 334.1333 C180.7428 329.4096 186.2572 331.8571 196 327.1333 C200.2423 325.0765 199.5047 320.6551 204 318.1333 C218.0742 310.2381 220.4415 310.5309 237 304.1333 C242.2419 302.1081 242.5545 301.6779 248 301.1333 C262.0233 299.731 264.0835 303.3128 277 300.1333 C294.53 295.8183 297.0083 288.0651 313 285.1333 C322.6019 283.373 325.4229 286.1775 337 289.1333 C348.587 292.0917 350.3233 291.2366 360 297.1333 C380.7908 309.8027 380.6011 315.2498 401 328.1333 C407.4511 332.2077 409.1778 331.9482 417 333.1333 C424.9353 334.3357 429.6036 333.6218 434 333.1333 C434.3161 333.0982 435.0235 331.1376 435 331.1333 C434.5563 331.0527 428.6818 330.1253 423 331.1333 C398.4016 335.4976 397.0753 336.1145 373 342.1333 C369.9193 342.9035 369.1559 343.0712 367 345.1333 C358.4504 353.3113 359.4057 358.1929 350 364.1333 C333.5444 374.5264 328.9883 371.8253 310 381.1333 C304.1379 384.0069 304.0237 387.3065 299 389.1333 C295.027 390.5781 292.6887 390.5826 288 389.1333 C267.0057 382.6442 244 372.1333 244 372.1333 "/>
<path id="12" d="M313 309.1333 C313 309.1333 315.9408 314.1136 319 315.1333 C333.786 320.062 337.2121 321.1004 355 323.1333 C371.3836 325.0057 374.065 325.3114 389 323.1333 C395.5981 322.1711 403 316.1333 403 316.1333 "/>
<path id="13" d="M292 389.1333 C292 389.1333 294.962 401.5511 294 412.1333 C293.0916 422.1254 288 433.1333 288 433.1333 "/>
<path id="14" d="M301 397.1333 C301 397.1333 298.6728 400.7609 299 403.1333 C300.3621 413.0089 303.1669 414.8291 305 426.1333 C306.0705 432.7349 306.391 438.2073 305 440.1333 C303.6697 441.9753 293.1909 442.3012 292 444.1333 C290.4696 446.4879 291.8234 460.0873 292 460.1333 C292.8628 460.3584 315 450.1333 315 450.1333 "/>
</g>
</g>
</svg>
