<?xml version="1.0" encoding="utf-8"?>
<!DOCTYPE svg PUBLIC "-//W3C//DTD SVG 1.1//EN" "http://www.w3.org/Graphics/SVG/1.1/DTD/svg11.dtd">
<svg viewBox="0 0 800 800" preserveAspectRatio="xMinYMin meet" xmlns="http://www.w3.org/2000/svg" version="1.1">
<g fill="none" stroke="black" stroke-linecap="round" stroke-linejoin="round" stroke-width="0.88806">
<g transform="translate(237.8482,87.52) scale(3.3782) translate(-5.5,-33.8333)">
<path id="0" d="M84.5 35.8333 L84.5 35.8333 "/>
<path id="1" d="M73.5 61.8333 C73.5 61.8333 75.4283 60.6216 75.5 59.8333 C76.1569 52.6075 74.0504 47.3711 75.5 39.8333 C76.0046 37.2096 78.349 34.7552 80.5 33.8333 C83.0569 32.7375 88.3197 32.8347 89.5 33.8333 C91.2452 35.31 93.5 44.8333 93.5 44.8333 "/>
<path id="2" d="M85.5 37.8333 C85.5 37.8333 89.4616 39.5648 89.5 39.8333 C89.5682 40.3107 87.2775 44.5742 86.5 44.8333 C85.6114 45.1295 80.6169 43.0671 80.5 42.8333 C80.4416 42.7165 83.5 38.8333 83.5 38.8333 "/>
<path id="3" d="M89.5 48.8333 L101.5 44.8333 "/>
<path id="4" d="M92.5 53.8333 L101.5 45.8333 "/>
<path id="5" d="M96.5 51.8333 C96.5 51.8333 90.8286 53.0119 90.5 53.8333 C89.5292 56.2603 89.4093 61.3797 90.5 66.8333 C91.1544 70.1055 93.7309 70.3295 94.5 73.8333 C97.9266 89.4432 101.461 96.9389 99.5 107.8333 C98.4028 113.929 92.8498 117.4022 85.5 123.8333 C81.7266 127.135 80.2505 127.7537 75.5 128.8333 C70.3811 129.9967 63.5 128.8333 63.5 128.8333 "/>
<path id="6" d="M74.5 54.8333 C74.5 54.8333 75.8277 57.1052 75.5 57.8333 C72.7374 63.9724 70.6986 66.8355 65.5 74.8333 C64.405 76.518 63.7946 77.4803 62.5 77.8333 C59.7875 78.5731 56.7687 76.5369 54.5 77.8333 C48.8687 81.0512 45.1885 83.0568 41.5 89.8333 C25.3876 119.4351 11.5 156.8333 11.5 156.8333 "/>
<path id="7" d="M11.5 157.1667 C11.5 157.1667 18.9961 155.7054 23.5 152.1667 C31.8009 145.6446 32.9734 144.1407 39.5 135.1667 C44.4726 128.3293 45.2342 126.9712 47.5 119.1667 C49.3909 112.6537 48.5 104.1667 48.5 104.1667 "/>
<path id="8" d="M31.5 149.1667 C31.5 149.1667 44.3345 145.1464 54.5 139.1667 C60.442 135.6714 65.5 129.1667 65.5 129.1667 "/>
<path id="9" d="M79.5 68.1667 L89.5 65.1667 "/>
<path id="10" d="M19.5 155.8333 C19.5 155.8333 13.8755 164.6713 10.5 173.8333 C7.0412 183.2216 6.4051 184.1033 5.5 193.8333 C4.4869 204.7243 4.7917 213.2744 6.5 216.8333 C7.0297 217.9368 15.3895 219.833 17.5 218.8333 C20.2735 217.5196 24.7483 212.7193 25.5 207.8333 C28.0198 191.4544 25.5 166.8333 25.5 166.8333 "/>
<path id="11" d="M25.5 214.8333 C25.5 214.8333 30.1059 214.5822 30.5 213.8333 C32.7391 209.579 34.6811 204.7045 35.5 195.8333 C37.5888 173.2044 36.5 148.8333 36.5 148.8333 "/>
</g>
</g>
</svg>
