<?xml version="1.0" encoding="utf-8"?>
<!DOCTYPE svg PUBLIC "-//W3C//DTD SVG 1.1//EN" "http://www.w3.org/Graphics/SVG/1.1/DTD/svg11.dtd">
<svg viewBox="0 0 800 800" preserveAspectRatio="xMinYMin meet" xmlns="http://www.w3.org/2000/svg" version="1.1">
<g fill="none" stroke="black" stroke-linecap="round" stroke-linejoin="round" stroke-width="0.86886">
<g transform="translate(87.52,118.5954) scale(3.4528) translate(-134.5,-214.6667)">
<path id="0" d="M162.5 313.6667 C162.5 313.6667 169.822 319.8577 177.5 322.6667 C189.3343 326.9963 190.671 327.5004 203.5 328.6667 C222.8313 330.4241 227.1839 332.9133 243.5 328.6667 C258.9779 324.6382 263.4994 319.7421 276.5 309.6667 C280.9402 306.2255 281.147 303.6798 283.5 297.6667 C285.381 292.8597 285.5 286.6667 285.5 286.6667 "/>
<path id="1" d="M161.5 314.6667 C161.5 314.6667 149.2214 309.5962 140.5 304.6667 C139.2907 303.9831 138.4742 301.6714 138.5 301.6667 C138.7277 301.6253 151.4998 302.6669 151.5 302.6667 C151.5002 302.6665 145.1318 301.8463 140.5 299.6667 C137.3829 298.1998 134.4748 294.6793 134.5 294.6667 C134.6333 294.6 152.4992 293.6758 152.5 293.6667 C152.5027 293.6373 139.9152 287.043 135.5 283.6667 C135.089 283.3524 135.445 280.6749 135.5 280.6667 C137.945 280.2999 155.5 280.6667 155.5 280.6667 "/>
<path id="2" d="M151.5 280.6667 C151.5 280.6667 168.0949 284.6284 184.5 285.6667 C207.1505 287.1002 211.4276 287.7473 230.5 285.6667 C234.5029 285.23 236.0329 283.1338 239.5 279.6667 C242.9671 276.1996 242.015 274.3695 245.5 270.6667 C249.6428 266.2649 252.6931 265.7542 255.5 262.6667 C255.9927 262.1247 254.9972 260.2114 255.5 259.6667 C259.0325 255.8398 264.2849 253.6856 267.5 249.6667 C268.3202 248.6414 266.6821 246.3024 267.5 244.6667 C269.9536 239.7594 272.9077 238.5273 275.5 233.6667 C276.1792 232.3932 275.5 229.6667 275.5 229.6667 "/>
<path id="3" d="M306.5 229.6667 C306.5 229.6667 315.5 230.653 315.5 230.6667 C315.5 230.7759 306.5 238.6667 306.5 238.6667 "/>
<path id="4" d="M308.5 229.6667 C308.5 229.6667 299.7625 217.2005 294.5 214.6667 C291.5152 213.2295 286.3815 214.7683 281.5 216.6667 C279.0396 217.6235 277.6128 219.2556 276.5 221.6667 C275.2115 224.4585 275.5 229.6667 275.5 229.6667 "/>
<path id="5" d="M309.5 239.6667 C309.5 239.6667 305.3597 239.6335 303.5 240.6667 C302.0185 241.4897 301.5096 242.5128 300.5 244.6667 C294.2206 258.0627 291.7262 259.2241 288.5 272.6667 C286.2015 282.2436 288.5 294.6667 288.5 294.6667 "/>
<path id="6" d="M276.5 236.6667 C276.5 236.6667 267.148 249.7505 264.5 261.6667 C261.7243 274.1571 267.2773 279.81 264.5 290.6667 C262.8898 296.9613 258.469 300.7438 253.5 304.6667 C251.5195 306.2302 249.4829 305.5007 245.5 305.6667 C237.5754 305.9969 236.9151 306.9378 229.5 305.6667 C220.2179 304.0755 219.1282 303.7537 210.5 299.6667 C200.7491 295.0478 199.9623 294.3156 191.5 287.6667 C186.4822 283.7241 186.1599 283.0974 182.5 277.6667 C170.9212 260.4852 170.6567 256.5111 160.5 241.6667 C159.5576 240.2894 156.4987 239.667 156.5 239.6667 C156.503 239.6659 161.3476 239.2481 164.5 240.6667 C170.3198 243.2856 170.3763 245.6048 176.5 248.6667 C180.9014 250.8674 181.4624 250.7507 186.5 251.6667 C197.7477 253.7117 198.5378 252.2306 209.5 254.6667 C216.0362 256.1192 216.2145 258.6846 222.5 259.6667 C231.1658 261.0207 234.0063 261.7104 241.5 259.6667 C247.9898 257.8967 248.5029 254.0131 255.5 250.6667 C259.306 248.8464 260.9828 250.6363 264.5 248.6667 C272.3963 244.2447 280.5 236.6667 280.5 236.6667 "/>
<path id="7" d="M290.5 227.6667 L291.5 229.6667 "/>
<path id="8" d="M231.5 331.6667 C231.5 331.6667 237.7704 354.9859 236.5 363.6667 C236.069 366.6122 225.5 372.6667 225.5 372.6667 "/>
<path id="9" d="M237.5 365.6667 L252.5 376.6667 "/>
<path id="10" d="M240.5 369.6667 L240.5 377.6667 "/>
<path id="11" d="M279.5 311.6667 C279.5 311.6667 278.6109 316.1104 279.5 319.6667 C281.9172 329.3354 284.5562 329.9477 286.5 339.6667 C287.8625 346.479 287.6359 348.1351 286.5 354.6667 C285.8415 358.4531 282.5006 362.6639 282.5 362.6667 C282.4998 362.6678 285.2053 360.9437 285.5 359.6667 C286.2981 356.2081 285.5 349.6667 285.5 349.6667 C285.9418 349.6667 293.8535 354.569 301.5 359.6667 C302.6245 360.4163 303.5016 361.6667 303.5 361.6667 C303.4959 361.6667 298.5 359.6667 298.5 359.6667 "/>
<path id="12" d="M288.5 354.6667 L293.5 374.6667 "/>
</g>
</g>
</svg>
