<?xml version="1.0" encoding="utf-8"?>
<!DOCTYPE svg PUBLIC "-//W3C//DTD SVG 1.1//EN" "http://www.w3.org/Graphics/SVG/1.1/DTD/svg11.dtd">
<svg viewBox="0 0 800 800" preserveAspectRatio="xMinYMin meet" xmlns="http://www.w3.org/2000/svg" version="1.1">
<g fill="none" stroke="black" stroke-linecap="round" stroke-linejoin="round" stroke-width="1.5601">
<g transform="translate(87.52,211.5505) scale(1.923) translate(-197,-89.4167)">
<path id="0" d="M219 238.4167 C219 238.4167 231.0618 235.0502 239 229.4167 C245.0847 225.0985 243.7043 220.6138 250 216.4167 C265.8994 205.8171 287 197.4167 287 197.4167 "/>
<path id="1" d="M290 196.4167 C290 196.4167 261.1951 196.5091 261 196.4167 C260.9614 196.3984 265.5028 190.632 271 187.4167 C291.1202 175.6482 294.0559 177.586 314 165.4167 C322.675 160.1235 321.5896 157.6008 330 151.4167 C338.3446 145.2809 338.7305 145.2529 348 140.4167 C361.5817 133.3306 362.5351 129.773 376 127.4167 C399.205 123.3558 409.1268 129.2477 428 126.4167 C431.3295 125.9172 432.9527 122.8183 436 118.4167 C441.6098 110.3137 440.2469 107.8957 446 100.4167 C449.5139 95.8486 450.989 94.4582 456 92.4167 C462.8866 89.611 466.2006 88.3431 473 89.4167 C482.2246 90.8732 486.5701 92.5628 494 98.4167 C500.7166 103.7085 501.2342 106.5349 506 115.4167 C511.9709 126.5443 516 139.4167 516 139.4167 "/>
<path id="2" d="M493 146.4167 C493 146.4167 507.6632 145.1288 517 146.4167 C519.1598 146.7146 522 150.4167 522 150.4167 "/>
<path id="3" d="M522 151.4167 C522 151.4167 518.0392 149.6825 516 147.4167 C514.1126 145.3196 513 141.4167 513 141.4167 "/>
<path id="4" d="M223 237.4167 C223 237.4167 206.8122 257.6984 197 272.4167 C196.25 273.5416 196.8595 276.3734 197 276.4167 C198.4845 276.8734 205.7132 278.6366 210 276.4167 C229.1317 266.5092 232.5983 262.8015 253 247.4167 C262.693 240.1072 270.9991 230.4138 271 230.4167 C271.0017 230.4223 264.4589 244.8565 256 257.4167 C248.2204 268.9682 238 279.4167 238 279.4167 "/>
<path id="5" d="M242 275.4167 C242 275.4167 238.1687 279.8112 234 282.4167 C230.6735 284.4958 226.421 285.4167 226 285.4167 C226 285.4167 225.4365 283.2753 226 282.4167 C234.0357 270.1718 247 253.4167 247 253.4167 "/>
<path id="6" d="M460 149.4167 C460 149.4167 465.3649 144.2858 470 143.4167 C479.166 141.698 481.4084 142.4821 492 143.4167 C497.9047 143.9377 504 146.4167 504 146.4167 "/>
<path id="7" d="M507 138.4167 L519 145.4167 "/>
<path id="8" d="M464 149.4167 C464 149.4167 456.4614 151.7629 453 155.4167 C448.8618 159.7848 450.4034 162.8843 446 168.4167 C431.4254 186.7284 431.2719 189.0048 414 204.4167 C399.8236 217.0664 397.7631 216.289 381 226.4167 C374.0368 230.6236 372.5741 229.347 366 233.4167 C362.6968 235.4615 363.0866 237.5172 360 239.4167 C357.3788 241.0297 355.4329 239.9569 353 241.4167 C351.3978 242.378 351.0562 245.0998 350 245.4167 C348.3151 245.9221 346.0707 243.9049 343 244.4167 C332.2151 246.2142 331.3161 248.8736 320 250.4167 C310.0228 251.7772 307.1962 252.7893 299 250.4167 C291.1222 248.1362 290.6631 243.7482 282 239.4167 C276.2246 236.529 269 235.4167 269 235.4167 "/>
<path id="9" d="M367 234.4167 C367 234.4167 366.3562 242.129 367 243.4167 C367.2504 243.9174 370.9166 243.4687 372 244.4167 C373.5214 245.7479 373.8347 250.0487 375 250.4167 C378.809 251.6195 384.2375 251.3828 391 250.4167 C393.2944 250.0889 396 247.4167 396 247.4167 "/>
<path id="10" d="M385 250.4167 L376 260.4167 "/>
<path id="11" d="M383 252.4167 L388 258.4167 "/>
<path id="12" d="M400 217.4167 C400 217.4167 408.8483 231.5762 412 232.4167 C415.178 233.2641 430 225.4167 430 225.4167 "/>
<path id="13" d="M413 233.4167 C413 233.4167 405.1653 244.2881 405 244.4167 C404.9789 244.4331 404 240.4167 404 240.4167 "/>
<path id="14" d="M414 231.4167 L424 237.4167 "/>
<path id="15" d="M482 108.4167 C482 108.4167 480.534 117.1351 481 118.4167 C481.1363 118.7915 484.6493 119.7544 486 119.4167 C487.0664 119.1501 488.609 117.72 489 116.4167 C489.7018 114.0773 489.7197 112.0554 489 109.4167 C488.5047 107.6004 487.28 106.0567 486 105.4167 C484.72 104.7767 482.0459 104.7194 481 105.4167 C479.3266 106.5323 477 111.4167 477 111.4167 "/>
<path id="16" d="M401 154.4167 C401 154.4167 399.1556 160.6832 396 165.4167 C392.4774 170.7005 392.0225 171.3359 387 175.4167 C376.4417 183.9953 375.7689 185.1016 364 191.4167 C356.0935 195.6592 353.7062 193.9139 346 197.4167 C343.8369 198.3999 344.1688 200.26 342 201.4167 C337.3559 203.8935 336.3288 204.9799 331 205.4167 C307.4406 207.3478 281 206.4167 281 206.4167 "/>
</g>
</g>
</svg>
