<?xml version="1.0" encoding="utf-8"?>
<!DOCTYPE svg PUBLIC "-//W3C//DTD SVG 1.1//EN" "http://www.w3.org/Graphics/SVG/1.1/DTD/svg11.dtd">
<svg viewBox="0 0 800 800" preserveAspectRatio="xMinYMin meet" xmlns="http://www.w3.org/2000/svg" version="1.1">
<g fill="none" stroke="black" stroke-linecap="round" stroke-linejoin="round" stroke-width="1.5361">
<g transform="translate(87.52,135.3685) scale(1.953) translate(-89,-168.4167)">
<path id="0" d="M136 211.4167 C136 211.4167 132.4035 209.2323 132 207.4167 C130.0652 198.71 128.5082 192.87 130 184.4167 C130.8176 179.7838 133.5762 177.3489 138 173.4167 C141.5943 170.2217 143.2508 169.4491 148 168.4167 C153.5687 167.2061 155.4068 166.9361 161 168.4167 C171.0601 171.0796 174.5907 171.6281 182 177.4167 C188.2116 182.2695 190.5462 186.0554 193 193.4167 C195.121 199.7798 194.147 202.3878 193 210.4167 C191.7374 219.2552 189.3407 219.4787 188 228.4167 C186.4162 238.9754 184.2707 245.7025 187 250.4167 C190.7352 256.8683 198.0623 261.2743 210 266.4167 C228.8374 274.5312 231.5872 275.3823 252 278.4167 C266.8497 280.6241 269.6068 279.2158 284 277.4167 C287.8083 276.9406 287.9122 274.4193 292 273.4167 C313.4867 268.1464 315.6028 270.9817 337 264.4167 C358.7383 257.747 360.1097 257.0825 380 246.4167 C393.6708 239.0859 404.6429 228.1706 406 227.4167 C406.0454 227.3915 406.8995 229.44 407 231.4167 C408.3671 258.3038 409.3559 259.3683 409 286.4167 C408.8638 296.7686 408.6055 297.429 406 307.4167 C402.7288 319.9561 402.6243 320.7182 397 332.4167 C390.3468 346.2554 389.9687 347.0846 381 359.4167 C374.3526 368.5569 373.597 369.8425 365 376.4167 C357.6237 382.0574 356.2624 381.8542 347 385.4167 C324.0598 394.2398 323.6618 394.6139 300 401.4167 C283.9446 406.0326 283.3218 406.8075 267 408.4167 C248.5902 410.2317 246.9026 411.2735 229 408.4167 C201.4895 404.0267 200.5111 401.7077 173 393.4167 C164.3133 390.7988 162.6571 391.1411 156 386.4167 C148.5315 381.1164 147.0947 379.5304 142 371.4167 C134.2559 359.0835 132.8175 357.4811 129 343.4167 C123.7174 323.9546 124.212 322.0206 123 301.4167 C122.2593 288.8254 122.058 287.5308 125 275.4167 C130.2921 253.6256 140 231.4167 140 231.4167 "/>
<path id="1" d="M137 213.4167 C137 213.4167 129.1472 217.2009 123 222.4167 C113.0216 230.8832 111.9067 231.1845 104 241.4167 C95.4104 252.5326 89.2549 265.6202 89 266.4167 C88.9808 266.4765 94.5634 267.6356 96 266.4167 C106.212 257.7519 108.536 248.9537 122 238.4167 C129.3796 232.6414 142 230.4167 142 230.4167 "/>
<path id="2" d="M156 187.4167 C156 187.4167 155.4012 190.8198 156 192.4167 C156.494 193.7341 157.7054 195.0636 159 195.4167 C161.7125 196.1564 164.739 196.2389 167 195.4167 C168.259 194.9589 169.6148 193.2145 170 191.4167 C170.8298 187.5445 171.0011 182.7181 170 181.4167 C168.9296 180.0251 162.6445 178.2278 160 178.4167 C158.8418 178.4994 156.7811 180.6591 156 182.4167 C155.324 183.9376 156 187.4167 156 187.4167 "/>
<path id="3" d="M163 188.4167 L165 189.4167 "/>
<path id="4" d="M196 403.4167 C196 403.4167 196.1482 412.4838 195 413.4167 C192.8059 415.1994 180 416.4167 180 416.4167 "/>
<path id="5" d="M197 413.4167 L190 423.4167 "/>
<path id="6" d="M197 414.4167 L205 421.4167 "/>
<path id="7" d="M237 412.4167 L237 427.4167 "/>
<path id="8" d="M237 428.4167 C237 428.4167 232.325 428.2292 229 429.4167 C226.0445 430.4722 223 433.4167 223 433.4167 "/>
<path id="9" d="M238 427.4167 L237 439.4167 "/>
<path id="10" d="M239 429.4167 L246 430.4167 "/>
<path id="11" d="M237 431.4167 L250 437.4167 "/>
</g>
</g>
</svg>
