<?xml version="1.0" encoding="utf-8"?>
<!DOCTYPE svg PUBLIC "-//W3C//DTD SVG 1.1//EN" "http://www.w3.org/Graphics/SVG/1.1/DTD/svg11.dtd">
<svg viewBox="0 0 800 800" preserveAspectRatio="xMinYMin meet" xmlns="http://www.w3.org/2000/svg" version="1.1">
<g fill="none" stroke="black" stroke-linecap="round" stroke-linejoin="round" stroke-width="2.0065">
<g transform="translate(87.52,89.7627) scale(1.4951) translate(-107,-2.4167)">
<path id="0" d="M149 152.4167 C149 152.4167 154.97 146.0933 160 144.4167 C164.7846 142.8218 166.9813 143.2129 173 144.4167 C188.6487 147.5464 189.7293 148.0897 205 153.4167 C210.6899 155.4015 212.7895 155.4812 216 159.4167 C226.3595 172.1154 236 191.4167 236 191.4167 "/>
<path id="1" d="M155 147.4167 C155 147.4167 146.9319 149.4332 142 153.4167 C135.0591 159.0228 133.9655 160.5764 129 168.4167 C124.982 174.7609 124.4016 176.1749 123 183.4167 C121.6124 190.5861 124.4212 194.4423 123 199.4167 C122.4036 201.5041 118.5334 202.3721 117 204.4167 C116.5158 205.0623 117.3831 207.1102 117 207.4167 C114.7651 209.2046 106.9994 212.4166 107 212.4167 C107.0011 212.4168 115.1193 209.5037 123 208.4167 C129.1896 207.5629 129.698 207.7415 136 208.4167 C143.4274 209.2125 144.718 208.7589 151 211.4167 C156.5543 213.7666 158.5357 214.6693 162 219.4167 C170.7923 231.4653 171.4491 233.7552 178 248.4167 C181.6668 256.6233 179.7243 258.0784 183 266.4167 C185.0276 271.5777 185.5053 271.9027 189 276.4167 C197.3365 287.1847 197.0462 288.79 207 297.4167 C218.7136 307.5685 221.5987 305.85 234 315.4167 C238.5324 318.9131 237.5617 322.4441 242 324.4167 C273.4382 338.3892 278.9985 341.9426 315 351.4167 C333.7814 356.3591 338.0072 355.1087 356 354.4167 C360.9256 354.2272 367 349.4167 367 349.4167 "/>
<path id="2" d="M233 184.4167 C233 184.4167 235.2197 196.9184 240 205.4167 C243.2947 211.2739 245.6165 213.2355 251 216.4167 C254.7475 218.6311 260.1 219.4167 262 218.4167 C264.7344 216.9775 267.4753 212.6444 270 206.4167 C274.6108 195.0434 275.0915 193.6856 277 181.4167 C278.4631 172.0112 279.4988 168.9131 277 161.4167 C274.0847 152.6708 265.8316 150.7419 264 142.4167 C261.4395 130.778 263.0719 125.791 266 111.4167 C268.3152 100.0511 269.1478 98.924 275 88.4167 C290.7716 60.0996 293.001 60.6196 310 32.4167 C314.9445 24.2134 315.5667 23.9998 319 15.4167 C321.3666 9.5001 321.8506 2.7454 322 2.4167 C322.0113 2.3917 324 4.4167 324 4.4167 "/>
<path id="3" d="M325 4.4167 C325 4.4167 337.8698 10.3083 341 14.4167 C342.5516 16.4532 339.8195 23.807 341 25.4167 C342.2949 27.1825 350.1053 27.2304 352 29.4167 C353.7827 31.4737 352.1734 38.5901 354 40.4167 C356.6696 43.0863 365.7199 42.9845 368 45.4167 C369.5018 47.0185 367.6509 51.8298 369 56.4167 C369.8572 59.3312 370.8316 60.4892 373 62.4167 C374.5746 63.8164 376.8424 63.0276 378 64.4167 C380.6592 67.6078 381.607 69.6806 383 74.4167 C383.8501 77.3069 381.8963 80.1061 383 81.4167 C387.0163 86.1861 395.3372 88.0302 399 93.4167 C401.19 96.6372 398.1954 101.6796 400 106.4167 C401.4385 110.1928 405.9166 110.8569 407 114.4167 C408.6042 119.6876 408.1436 123.6988 407 129.4167 C406.5578 131.6276 403.7532 132.157 403 134.4167 C402.1675 136.9142 403.2311 140.6077 403 141.4167 C402.9811 141.4827 401.0002 141.4091 401 141.4167 C400.8832 145.0383 406.0249 161.116 402 172.4167 C395.2205 191.4515 389.054 195.9246 375 214.4167 C371.3224 219.2556 364 222.4167 364 222.4167 "/>
<path id="4" d="M364 222.4167 C364 222.4167 365.2036 220.5005 366 220.4167 C372.1248 219.772 380.904 220.6633 383 220.4167 C383.029 220.4133 382.934 218.4355 383 218.4167 C383.809 218.1855 387.1058 219.3814 390 218.4167 C400.8877 214.7875 404.817 214.554 413 208.4167 C418.2318 204.4928 416.7809 200.4709 422 194.4167 C428.9065 186.4052 430.8147 187.4004 438 179.4167 C444.0855 172.655 444.8641 172.3437 449 164.4167 C456.5347 149.9751 461.9713 133.3625 462 133.4167 C462.1036 133.6119 465.456 175.2408 475 213.4167 C480.5602 235.6573 481.901 237.6551 493 257.4167 C501.5982 272.7256 504.244 273.0932 516 286.4167 C518.6654 289.4375 523 291.4167 523 291.4167 "/>
<path id="5" d="M350 356.4167 C350 356.4167 355.0275 356.1153 358 354.4167 C361.0654 352.665 360.7721 350.4341 364 348.4167 C368.1383 345.8302 370.3609 347.356 374 344.4167 C382.1774 337.8118 381.2964 334.5972 390 327.4167 C400.7835 318.5203 402.9195 314.527 414 311.4167 C426.834 307.8142 431.1971 309.6032 447 311.4167 C460.7932 312.9995 463.6351 312.1514 475 318.4167 C499.9159 332.1524 523.9528 354.4586 525 354.4167 C525.0328 354.4154 527.2362 334.3062 525 316.4167 C523.4111 303.7057 522.1075 302.7597 517 290.4167 C510.2702 274.1529 501 258.4167 501 258.4167 "/>
<path id="6" d="M475 193.4167 C475 193.4167 472.4851 197.8029 469 200.4167 C447.315 216.6804 423 232.4167 423 232.4167 "/>
<path id="7" d="M480 230.4167 C480 230.4167 474.1714 239.3746 467 243.4167 C448.6032 253.7858 425 261.4167 425 261.4167 "/>
<path id="8" d="M515 280.4167 C515 280.4167 508.9903 288.9215 502 292.4167 C485.9959 300.4187 483.4086 301.3259 465 305.4167 C448.5399 309.0745 430 308.4167 430 308.4167 "/>
<path id="9" d="M236 249.4167 C236 249.4167 238.1787 256.897 242 262.4167 C246.7467 269.273 247.3772 270.1184 254 275.4167 C264.3481 283.6952 265.5128 284.509 277 290.4167 C282.0651 293.0216 283.0248 292.8309 289 293.4167 C308.05 295.2843 309.2565 296.0743 328 295.4167 C336.734 295.1102 337.5189 294.3752 346 291.4167 C358.6098 287.0179 360.4921 286.0459 371 280.4167 C372.7493 279.4795 374 276.4167 374 276.4167 "/>
<path id="10" d="M281 344.4167 C281 344.4167 276.4562 374.706 281 382.4167 C285.4776 390.015 297.4338 393.8473 314 400.4167 C325.1366 404.8329 339 405.4167 339 405.4167 "/>
<path id="11" d="M306 398.4167 C306 398.4167 306.3598 402.6829 308 405.4167 C310.4404 409.484 315 413.4167 315 413.4167 "/>
<path id="12" d="M304 398.4167 L306 417.4167 "/>
<path id="13" d="M329 355.4167 C329 355.4167 330.7122 366.1971 334 374.4167 C335.2525 377.5479 336.2763 379.1786 339 380.4167 C350.3112 385.5581 353.0384 386.8782 367 389.4167 C385.1586 392.7182 405 392.4167 405 392.4167 "/>
<path id="14" d="M379 391.4167 L394 413.4167 "/>
<path id="15" d="M381 393.4167 L392 378.4167 "/>
<path id="16" d="M159 178.4167 C159 178.4167 159.8543 173.526 160 173.4167 C160.046 173.3822 162.6406 174.578 163 175.4167 C163.547 176.6929 163.4237 179.993 163 180.4167 C162.4068 181.0098 157.4451 181.565 157 181.4167 C156.9214 181.3905 157 178.4167 157 178.4167 "/>
</g>
</g>
</svg>
