<?xml version="1.0" encoding="utf-8"?>
<!DOCTYPE svg PUBLIC "-//W3C//DTD SVG 1.1//EN" "http://www.w3.org/Graphics/SVG/1.1/DTD/svg11.dtd">
<svg viewBox="0 0 800 800" preserveAspectRatio="xMinYMin meet" xmlns="http://www.w3.org/2000/svg" version="1.1">
<g fill="none" stroke="black" stroke-linecap="round" stroke-linejoin="round" stroke-width="1.0561">
<g transform="translate(124.4495,87.52) scale(2.8407) translate(-169,-226.4167)">
<path id="0" d="M217 268.4167 C217 268.4167 205.9455 263.6725 204 259.4167 C200.4363 251.6211 199.8373 241.0903 201 233.4167 C201.3738 230.9498 205.6479 227.1102 209 226.4167 C216.3771 224.8904 222.372 225.6564 230 227.4167 C232.211 227.9269 234.4269 230.1242 235 232.4167 C237.1549 241.0362 238.7078 245.8105 237 255.4167 C235.2068 265.5036 229.9654 266.5434 227 277.4167 C224.2962 287.3306 223.9307 290.06 225 299.4167 C225.6722 305.2983 227.4107 306.6185 231 312.4167 C233.6485 316.6951 234.0996 317.4914 238 320.4167 C243.4756 324.5233 244.7568 326.3565 251 327.4167 C268.7499 330.4308 272.6407 329.7992 291 329.4167 C294.7044 329.3395 296.1224 328.7409 299 326.4167 C307.9833 319.161 317 308.4167 317 308.4167 "/>
<path id="1" d="M211 266.4167 C211 266.4167 215.1534 269.7006 215 270.4167 C213.7236 276.3732 207.0628 282.8649 205 294.4167 C202.44 308.7524 201.9181 316.9507 205 326.4167 C206.4984 331.0189 211.6296 332.7839 219 337.4167 C228.8372 343.6001 229.9129 346.5697 240 348.4167 C262.0755 352.4587 270.3985 354.1251 290 350.4167 C300.6762 348.3969 307.1125 342.0695 314 334.4167 C317.0591 331.0177 314.8018 326.3831 317 320.4167 C317.9421 317.8596 320.2517 317.8112 321 315.4167 C322.3544 311.0825 322 304.4167 322 304.4167 "/>
<path id="2" d="M229 309.4167 C229 309.4167 229.6874 303.0376 232 300.4167 C235.6908 296.2338 238.4863 293.677 244 292.4167 C253.1706 290.3205 255.6447 291.6761 267 292.4167 C278.4519 293.1635 280.6089 291.895 290 295.4167 C298.3693 298.5551 298.4875 303.2977 307 307.4167 C312.7673 310.2073 321 310.4167 321 310.4167 "/>
<path id="3" d="M315 306.4167 C315 306.4167 321.1334 299.1243 327 296.4167 C332.269 293.9848 334.3802 296.2221 341 294.4167 C350.516 291.8214 360 287.4167 360 287.4167 "/>
<path id="4" d="M360 287.4167 C360 287.4167 362.6622 287.9662 363 288.4167 C363.3118 288.8325 363.5134 290.6832 363 291.4167 C360.9635 294.326 359.1767 297.4392 356 298.4167 C349.2997 300.4783 345.7146 297.4559 337 299.4167 C326.6649 301.7421 316.0011 307.4129 316 307.4167 C315.9995 307.4184 326.9638 308.6084 335 306.4167 C341.7474 304.5765 342.5049 300.891 349 298.4167 C351.667 297.4007 353.1761 297.8519 356 298.4167 C357.3716 298.691 358.8807 299.7607 359 300.4167 C359.4132 302.6893 358.7534 308.8951 358 309.4167 C356.7497 310.2823 351.316 310.598 346 309.4167 C338.7643 307.8087 337.9879 304.7107 331 303.4167 C325.8755 302.4677 318.9957 304.4148 319 304.4167 C319.0154 304.4235 350.5079 311.518 356 314.4167 C356.4871 314.6738 355.6302 322.9965 355 323.4167 C354.0696 324.0369 347.7169 324.2751 344 322.4167 C338.8287 319.831 338.8607 316.402 333 312.4167 C326.8232 308.2165 319 305.4167 319 305.4167 "/>
<path id="5" d="M211 242.4167 C211 242.4167 212.7249 239.1453 214 238.4167 C214.9649 237.8653 217.9416 238.2561 218 238.4167 C218.4416 239.6311 218.578 248.357 218 249.4167 C217.828 249.732 212.1062 249.6504 212 249.4167 C211.5893 248.5131 213 238.4167 213 238.4167 "/>
<path id="6" d="M214 245.4167 L216 246.4167 "/>
<path id="7" d="M201 234.4167 C201 234.4167 196.4265 234.7034 193 236.4167 C185.0047 240.4143 184.734 242.8719 177 246.4167 C173.8219 247.8733 168.9999 247.4167 169 247.4167 C169.0006 247.4167 205 248.4167 205 248.4167 "/>
<path id="8" d="M182 243.4167 C182 243.4167 185.8431 244.9144 188 244.4167 C190.9621 243.7331 191.7155 241.3551 195 240.4167 C197.8235 239.6099 202 240.4167 202 240.4167 "/>
<path id="9" d="M237 349.4167 C237 349.4167 231.3422 360.679 230 371.4167 C228.005 387.3765 230 405.4167 230 405.4167 "/>
<path id="10" d="M243 351.4167 C243 351.4167 242.2398 360.3772 240 365.4167 C239.0911 367.4617 235.2064 367.8685 235 369.4167 C233.1805 383.063 234.9672 402.2923 234 410.4167 C233.9653 410.7083 230.1588 411.5755 230 411.4167 C229.6295 411.0462 229 405.4167 229 405.4167 "/>
<path id="11" d="M230 411.4167 C230 411.4167 219.1932 408.8684 213 410.4167 C208.1933 411.6183 202 418.4167 202 418.4167 "/>
<path id="12" d="M229 414.4167 C229 414.4167 220.2354 409.7054 218 410.4167 C214.6678 411.4769 209.3746 420.4389 207 421.4167 C206.3344 421.6907 201 417.4167 201 417.4167 "/>
<path id="13" d="M232 413.4167 C232 413.4167 223.6643 414.4175 218 416.4167 C216.4733 416.9555 215.4934 417.9363 215 419.4167 C213.4374 424.1044 214.3655 426.6374 213 431.4167 C212.7207 432.3943 211.0214 433.4167 211 433.4167 C211 433.4167 211 431.4167 211 431.4167 "/>
<path id="14" d="M233 416.4167 C233 416.4167 218.7109 417.766 215 420.4167 C213.0683 421.7965 212 431.4167 212 431.4167 "/>
<path id="15" d="M228 413.4167 C228 413.4167 231.1351 412.7371 232 413.4167 C236.0313 416.5841 239.208 419.6703 242 424.4167 C242.9923 426.1035 242 430.4167 242 430.4167 C242 430.4167 242 426.4167 242 426.4167 "/>
<path id="16" d="M234 410.4167 C234 410.4167 234.301 414.8176 235 415.4167 C235.9067 416.1939 240.2178 415.8952 241 416.4167 C241.2347 416.5731 241.0809 419.3627 241 419.4167 C240.9056 419.4796 237.9981 418.4138 238 418.4167 C238.0075 418.4279 243.2428 422.4043 245 425.4167 C245.7927 426.7756 245 430.4167 245 430.4167 "/>
<path id="17" d="M237 412.4167 C237 412.4167 237.7018 405.864 238 405.4167 C238.0389 405.3583 241.004 406.4075 241 406.4167 C240.8815 406.6933 235 412.4167 235 412.4167 "/>
<path id="18" d="M275 353.4167 C275 353.4167 269.3246 362.1052 266 370.4167 C264.6443 373.8058 264.9198 374.4879 265 378.4167 C265.4124 398.6232 267 419.4167 267 419.4167 "/>
<path id="19" d="M283 353.4167 C283 353.4167 274.9525 363.9998 269 374.4167 C267.3286 377.3416 267.1388 378.0164 267 381.4167 C266.1769 401.5829 268.19 419.3507 267 423.4167 C266.9288 423.6599 259.6006 421.4966 255 422.4167 C251.4911 423.1185 247.6218 426.5877 247 427.4167 C246.9152 427.5297 249 430.4167 249 430.4167 "/>
<path id="20" d="M266 429.4167 C266 429.4167 258.4081 422.0983 255 421.4167 C252.782 420.9731 246 425.4167 246 425.4167 "/>
<path id="21" d="M266 424.4167 C266 424.4167 262.5894 422.8869 261 423.4167 C256.913 424.779 254.8175 425.8113 251 429.4167 C246.5192 433.6485 243 440.4167 243 440.4167 "/>
<path id="22" d="M262 427.4167 C262 427.4167 254.1448 434.0029 248 437.4167 C246.7431 438.1149 243.9995 437.4156 244 437.4167 C244.0012 437.419 249 439.4167 249 439.4167 "/>
<path id="23" d="M265 425.4167 C265 425.4167 268.9967 446.4145 269 446.4167 C269.0017 446.4178 271.2949 437.084 271 429.4167 C270.8412 425.2868 267.8112 420.6999 268 420.4167 C268.1618 420.1739 273.9144 421.1881 277 420.4167 C278.2857 420.0953 280.0176 417.4233 280 417.4167 C279.8966 417.3779 269 417.4167 269 417.4167 "/>
<path id="24" d="M238 314.4167 C238 314.4167 240.0791 308.5059 243 304.4167 C244.6295 302.1353 245.9496 300.5829 248 300.4167 C260.2919 299.42 267.0113 298.5303 280 301.4167 C286.0464 302.7603 286.4367 307.4996 293 310.4167 C298.9199 313.0477 307 313.4167 307 313.4167 "/>
<path id="25" d="M242 321.4167 C242 321.4167 249.1168 313.4973 255 312.4167 C269.4541 309.7618 276.9324 310.2284 291 312.4167 C294.9424 313.0299 300 319.4167 300 319.4167 "/>
<path id="26" d="M269 332.4167 C269 332.4167 275.7854 327.8508 282 326.4167 C287.6164 325.1206 295 326.4167 295 326.4167 C295 326.4167 278 326.4167 278 326.4167 "/>
<path id="27" d="M243 324.4167 C243 324.4167 250.6911 328.0632 258 329.4167 C263.5072 330.4365 264.523 330.5121 270 329.4167 C278.7632 327.664 279.2254 324.7666 288 323.4167 C297.7376 321.9186 309 323.4167 309 323.4167 "/>
<path id="28" d="M220 321.4167 C220 321.4167 230.3243 327.8002 241 332.4167 C248.5279 335.672 249.2151 336.7679 257 337.4167 C277.8651 339.1554 283.2493 338.5261 301 337.4167 C302.6893 337.3111 305.01 334.4217 305 334.4167 C304.96 334.3967 299.4268 333.31 295 334.4167 C284.3756 337.0728 273 342.4167 273 342.4167 "/>
<path id="29" d="M227 331.4167 C227 331.4167 235.7394 337.6034 244 339.4167 C254.6668 341.7582 256.305 338.9237 268 340.4167 C279.4578 341.8794 291 345.4167 291 345.4167 "/>
<path id="30" d="M216 279.4167 C216 279.4167 208.8824 291.8869 206 303.4167 C204.2597 310.378 205.3576 311.7073 206 319.4167 C206.3279 323.3517 206.6377 324.692 208 327.4167 C208.5298 328.4763 211 329.4167 211 329.4167 "/>
<path id="31" d="M225 285.4167 C225 285.4167 221.6217 289.5622 221 293.4167 C219.3344 303.7432 219.6271 306.3484 220 316.4167 C220.0662 318.203 222 320.2639 222 320.4167 C222 320.4167 220 320.4167 220 320.4167 "/>
<path id="32" d="M216 281.4167 C216 281.4167 216.8285 303.96 215 320.4167 C214.6987 323.1283 213.2526 324.5736 211 326.4167 C208.6095 328.3725 204 329.4167 204 329.4167 "/>
</g>
</g>
</svg>
