<?xml version="1.0" encoding="utf-8"?>
<!DOCTYPE svg PUBLIC "-//W3C//DTD SVG 1.1//EN" "http://www.w3.org/Graphics/SVG/1.1/DTD/svg11.dtd">
<svg viewBox="0 0 800 800" preserveAspectRatio="xMinYMin meet" xmlns="http://www.w3.org/2000/svg" version="1.1">
<g fill="none" stroke="black" stroke-linecap="round" stroke-linejoin="round" stroke-width="2.0881">
<g transform="translate(87.52,193.835) scale(1.4367) translate(-72,-143)">
<path id="0" d="M358 155 C358 155 350.9688 154.3289 347 156 C343.1958 157.6018 341.7132 159.3002 339 163 C336.8491 165.933 337.905 168.0064 336 171 C334.9339 172.6753 332.7286 172.3809 332 174 C329.0781 180.4931 331.0794 183.8611 327 191 C313.9109 213.906 310.8238 220.1997 296 237 C292.4932 240.9744 288.2711 238.739 282 242 C276.2729 244.9781 276.323 247.3385 271 250 C268.3385 251.3307 266.6773 249.5584 264 251 C248.8103 259.1791 245.0979 259.0751 232 271 C213.1319 288.1784 213.0053 290.6596 197 312 C181.7682 332.3091 185.1673 336.9582 169 355 C152.2037 373.7437 149.0015 373.0795 128 389 C118.2957 396.3565 116.2779 396.9745 107 402 C106.0074 402.5376 104.0573 402.0573 104 402 C103.9809 401.9809 104.3287 400.5035 105 400 C107.6851 397.9862 108.4854 396.9112 112 396 C121.0861 393.6443 131.9135 392.8529 132 393 C132.1393 393.2369 121.9683 412.8891 122 413 C122.0037 413.0129 129.074 409.0201 136 407 C140.5257 405.68 145.9963 405.9765 146 406 C146.1213 406.7682 139 426 139 426 C139 426 139.1903 423.6362 140 423 C144.6514 419.3454 146.2978 418.5275 153 415 C165.1951 408.5815 177.7845 402.8384 178 403 C178.2054 403.1541 172.9026 429.949 173 430 C173.1877 430.0983 199 414 199 414 "/>
<path id="1" d="M359 157 C359 157 363.4413 159.7654 364 162 C365.7207 168.8826 363.6823 178.3647 365 181 C365.3716 181.7433 374.0046 181.9919 374 182 C373.985 182.0262 363.2506 184.9992 361 188 C358.7851 190.9532 360.905 195.5707 359 202 C357.0708 208.5109 356.716 209.082 353 215 C343.4292 230.2424 332 245 332 245 "/>
<path id="2" d="M296 236 C296 236 288.2066 235.66 282 233 C268.0206 227.0088 266.8461 226.7587 254 218 C234.3567 204.6068 232.8981 204.386 216 188 C200.6437 173.109 202.8247 167.6146 188 154 C180.2147 146.8502 176.1892 146.1687 167 143 C164.1627 142.0216 160.8341 142.4716 159 144 C154.5012 147.749 154.5318 151.7138 149 158 C143.769 163.9443 141.8896 166.7774 137 169 C134.2545 170.248 127.1331 167.7908 127 168 C126.7495 168.3936 129.4788 174.2666 130 180 C130.4208 184.6292 130.3629 186.8199 129 190 C128.1972 191.8732 126.2459 193.6257 124 194 C114.0255 195.6624 103.2672 193.8511 99 195 C98.5583 195.1189 97.6029 198.8162 98 201 C98.3784 203.0814 100.8461 204.1537 101 206 C101.2003 208.4032 100.65 211.2125 99 213 C96.1592 216.0775 93.6579 217.9649 89 219 C82.0132 220.5526 72.0006 218.9797 72 219 C71.9624 220.202 79.0009 236.0014 88 251 C93.711 260.5183 96.5412 259.6421 102 269 C106.6069 276.8976 104.5134 279.0239 109 287 C113.1287 294.3398 114.0851 294.5473 120 301 C124.9325 306.3809 125.2867 307.5223 131 311 C135.8265 313.9379 137.8955 311.9896 143 315 C156.5817 323.0097 156.0454 326.2176 170 334 C181.3493 340.3294 195 344 195 344 "/>
<path id="3" d="M337 246 C337 246 337.5842 254.4311 336 262 C333.1975 275.3895 333.3949 276.3061 328 289 C316.6334 315.7448 316.0708 316.7446 302 342 C296.9453 351.0725 296.3525 351.6475 289 359 C274.2949 373.7051 274.0931 375.7435 257 387 C234.2532 401.9796 232.1037 401.0275 207 413 C200.0061 416.3355 192 418 192 418 "/>
<path id="4" d="M350 174 C350 174 348.9996 179.0002 349 179 C349.0007 178.9996 352.0308 173.0771 352 173 C351.9936 172.9839 347 174 347 174 "/>
<path id="5" d="M351 155 C351 155 348.0003 150.0003 348 150 C347.9999 149.9999 348.8384 152.9731 349 153 C349.5029 153.0838 354 151 354 151 "/>
<path id="6" d="M270 324 C270 324 269.3479 330.6957 271 334 C272.8882 337.7763 277.9195 339.6589 279 342 C279.3768 342.8163 277.8228 346.1772 277 347 C276.6474 347.3526 274.0169 347.0677 274 347 C273.8251 346.3004 273.9829 339.7992 275 339 C277.1439 337.3155 288 336 288 336 "/>
<path id="7" d="M288 305 C288 305 292.7408 309.6828 294 314 C295.7911 320.1411 294.9949 328.9831 295 329 C295.0015 329.0049 295.7773 325.0699 297 324 C298.4864 322.6994 303 322 303 322 "/>
<path id="8" d="M333 285 C333 285 363.0513 282.9804 392 278 C409.0931 275.0593 410.8711 275.8186 426 269 C444.8299 260.5133 445.5864 258.6427 463 246 C481.7374 232.3962 482.0268 231.4302 499 216 C503.5847 211.8321 506.9382 206.0232 507 206 C507.0138 205.9948 508.1969 210.6809 507 213 C501.4841 223.687 495.1074 225.9613 491 237 C488.3946 244.002 489.7785 248.6713 491 256 C491.3643 258.1858 494.3432 260.8358 495 261 C495.4066 261.1017 498.9776 257.9832 499 258 C499.0576 258.0432 500.0877 262.2908 499 264 C491.683 275.4982 481.84 284.1734 478 291 C477.6723 291.5826 479.8083 295.6276 481 296 C484.3957 297.0611 492.2828 297.3131 494 296 C495.8415 294.5918 497.9978 283.0016 498 283 C498.0012 282.9991 498.8298 289.1278 498 293 C497.6148 294.7978 495.0941 295.3528 495 297 C494.3018 309.2183 497.6842 317.3337 496 328 C495.5574 330.8031 490.6376 331.9588 489 335 C488.0876 336.6944 488.9989 341.0018 489 341 C489.0033 340.9948 493.9979 326.9975 494 327 C494.0042 327.005 495.7102 340.6477 494 347 C493.3258 349.5043 488.8892 350.571 487 353 C486.5048 353.6367 487.3858 355.7428 487 356 C479.0267 361.3155 472.2784 365.2268 457 373 C443.9131 379.6582 443.3608 380.8433 430 385 C421.9043 387.5187 420.9633 386.7916 412 387 C378.2259 387.7854 375.5164 390.9396 344 387 C326.5617 384.8202 324.9829 381.7466 308 374 C297.0926 369.0247 287 361 287 361 "/>
</g>
</g>
</svg>
