<?xml version="1.0" encoding="utf-8"?>
<!DOCTYPE svg PUBLIC "-//W3C//DTD SVG 1.1//EN" "http://www.w3.org/Graphics/SVG/1.1/DTD/svg11.dtd">
<svg viewBox="0 0 800 800" preserveAspectRatio="xMinYMin meet" xmlns="http://www.w3.org/2000/svg" version="1.1">
<g fill="none" stroke="black" stroke-linecap="round" stroke-linejoin="round" stroke-width="2.2609">
<g transform="translate(87.52,138.6048) scale(1.3269) translate(-81,-3)">
<path id="0" d="M355 115 C355 115 348.5441 106.6425 341 102 C330.106 95.296 328.615 94.8083 316 91 C302.8555 87.0319 301.7995 86.9356 288 86 C272.9377 84.9788 269.2484 83.0556 257 87 C243.7839 91.256 240.3114 94.7408 229 105 C220.3117 112.8801 221.0225 115.299 214 126 C210.599 131.1824 208.9625 131.6529 208 137 C204.8496 154.5021 205.6254 156.6126 205 176 C204.6326 187.3893 203.768 188.5839 206 199 C207.9917 208.2944 209.633 208.7202 214 218 C217.5996 225.6492 217.117 227.1869 222 233 C226.7031 238.599 228.2772 238.6156 235 243 C239.5667 245.9783 240.2492 246.8689 245 248 C249.6699 249.1119 250.8596 247.0209 256 248 C271.1987 250.895 271.7464 254.3284 287 256 C307.0977 258.2025 309.3864 257.1768 329 256 C332.82 255.7708 333.0991 254.6718 337 253 C340.0607 251.6883 341.8219 251.1781 343 250 C343.3927 249.6073 342.4518 247.6579 343 247 C349.8834 238.7399 354.6193 237.1742 363 226 C370.6241 215.8345 370.8228 214.3898 376 203 C377.9537 198.702 377.8026 197.9347 378 193 C378.7833 173.4178 381.0421 170.6998 378 153 C376.0309 141.5435 373.4039 140.1372 367 129 C362.1641 120.5897 355 113 355 113 "/>
<path id="1" d="M181 35 L196 68 "/>
<path id="2" d="M222 19 L222 36 "/>
<path id="3" d="M305 30 L297 48 "/>
<path id="4" d="M359 34 C359 34 353.1746 37.0318 350 41 C345.8417 46.1978 343 54 343 54 "/>
<path id="5" d="M414 84 L394 104 "/>
<path id="6" d="M420 140 L410 137 "/>
<path id="7" d="M401 179 C401 179 417.8294 186.6815 430 197 C439.5703 205.1139 447 218 447 218 "/>
<path id="8" d="M399 234 C399 234 406.1018 244.7342 411 256 C415.9451 267.3738 419 280 419 280 "/>
<path id="9" d="M355 282 L355 294 "/>
<path id="10" d="M299 296 L294 337 "/>
<path id="11" d="M238 294 L223 313 "/>
<path id="12" d="M173 271 L154 272 "/>
<path id="13" d="M189 190 C189 190 170.2008 181.935 152 176 C147.9162 174.6683 143 175 143 175 "/>
<path id="14" d="M195 106 C195 106 188.0447 102.3046 181 101 C161.6838 97.4229 141 96 141 96 "/>
<path id="15" d="M259 32 L260 6 "/>
<path id="16" d="M187 227 L100 241 "/>
<path id="17" d="M218 292 C218 292 203.2389 303.7611 191 316 C187.8803 319.1197 186 324 186 324 "/>
<path id="18" d="M274 310 L264 397 "/>
<path id="19" d="M337 300 C337 300 340.9308 330.1711 347 359 C348.814 367.6164 353 376 353 376 "/>
<path id="20" d="M381 278 L435 350 "/>
<path id="21" d="M423 231 L491 258 "/>
<path id="22" d="M410 151 L456 167 "/>
<path id="23" d="M390 85 C390 85 392.6211 72.6371 398 63 C404.0831 52.1011 405.3411 51.6775 414 42 C422.1169 32.9282 432 25 432 25 "/>
<path id="24" d="M380 50 C380 50 386.1068 39.2354 394 32 C403.2519 23.5191 416 17 416 17 "/>
<path id="25" d="M327 43 L326 3 "/>
<path id="26" d="M258 62 C258 62 255.9962 51.431 252 42 C243.6591 22.3154 233 3 233 3 "/>
<path id="27" d="M237 76 C237 76 223.4447 62.6862 213 49 C209.5852 44.5254 208 38 208 38 "/>
<path id="28" d="M209 94 C209 94 202.5084 86.4791 195 81 C184.3811 73.2511 172 67 172 67 "/>
<path id="29" d="M202 141 C202 141 185.4041 137.0002 169 136 C144.8654 134.5284 143.8061 133.8358 120 136 C100.699 137.7546 81 144 81 144 "/>
<path id="30" d="M173 163 C173 163 136.8224 160.3878 112 160 C110.7929 159.9811 109 162 109 162 "/>
<path id="31" d="M208 256 C208 256 202.4842 270.1553 194 276 C161.95 298.0789 154.6006 295.8871 118 318 C107.2891 324.4712 98 334 98 334 "/>
<path id="32" d="M250 311 C250 311 246.8428 323.6053 242 335 C238.4961 343.2446 238.0264 343.7746 233 351 C230.3199 354.8526 228.0168 354.3697 226 358 C223.6539 362.223 223 369 223 369 "/>
<path id="33" d="M410 127 C410 127 412.6871 121.5736 416 120 C430.1041 113.3005 432.8199 112.7069 450 108 C468.9789 102.8003 469.5053 102.4095 489 100 C513.556 96.965 539 97 539 97 "/>
<path id="34" d="M383 6 C383 6 375.473 24.4372 366 40 C362.0065 46.5608 355 52 355 52 "/>
<path id="35" d="M281 45 C281 45 286.5323 33.5591 290 22 C292.4153 13.9491 293 5 293 5 "/>
<path id="36" d="M177 71 C177 71 171.1768 63.1605 164 59 C138.0239 43.9414 108 31 108 31 "/>
<path id="37" d="M490 260 C490 260 513.1617 269.7286 535 281 C543.8691 285.5776 552 292 552 292 "/>
<path id="38" d="M448 164 L535 208 "/>
<path id="39" d="M407 115 C407 115 410.432 108.5139 415 105 C422.4791 99.2469 424.2252 98.8609 433 95 C435.9145 93.7176 440 94 440 94 "/>
<path id="40" d="M419 84 C419 84 430.2158 68.6866 444 58 C473.712 34.9648 476.7162 37.0591 508 15 C515.4499 9.7468 522 3 522 3 "/>
</g>
</g>
</svg>
