<?xml version="1.0" encoding="utf-8"?>
<!DOCTYPE svg PUBLIC "-//W3C//DTD SVG 1.1//EN" "http://www.w3.org/Graphics/SVG/1.1/DTD/svg11.dtd">
<svg viewBox="0 0 800 800" preserveAspectRatio="xMinYMin meet" xmlns="http://www.w3.org/2000/svg" version="1.1">
<g fill="none" stroke="black" stroke-linecap="round" stroke-linejoin="round" stroke-width="1.7905">
<g transform="translate(87.52,88.3577) scale(1.6755) translate(-118,-66)">
<path id="0" d="M301 94 C301 94 283.9937 91.7155 272 94 C265.9933 95.1441 265.3016 100.3842 259 102 C247.8997 104.8462 244.3136 100.7676 233 104 C221.7473 107.2151 219.9838 109.2368 210 116 C205.4788 119.0627 204.9653 120.0579 202 125 C188.8926 146.8457 187.6094 147.5477 177 171 C168.8766 188.9571 167.0861 190.2774 164 209 C159.9001 233.8729 161.6048 238.6827 162 262 C162.0451 264.6638 164.5268 265.066 165 268 C166.8482 279.4587 164.3144 281.3624 167 293 C170.0913 306.3955 170.009 308.2492 177 320 C192.7035 346.3953 193.6739 353.4524 214 372 C228.9618 385.6526 235.3947 383.9397 257 393 C265.7982 396.6896 266.4382 396.4757 276 398 C300.6115 401.9236 301.1087 401.8037 326 404 C334.867 404.7824 337.3718 406.7427 344 404 C362.3863 396.3919 365.1584 393.132 384 380 C397.7286 370.4316 398.4925 369.9772 410 358 C422.5161 344.9731 423.1012 343.9981 433 329 C439.1839 319.6304 439.5036 318.6947 443 308 C447.7957 293.3308 449.168 292.1417 450 277 C451.5876 248.1057 451.0216 246.3092 448 217 C446.1017 198.5864 446.4825 195.3958 440 180 C435.7065 169.803 430.5626 170.0165 424 160 C421.6393 156.3968 423.2399 154.258 421 151 C418.4691 147.3187 417.2394 147.1172 413 144 C400.3482 134.6972 400.1591 133.0386 387 126 C379.7333 122.1132 377.6866 124.2027 370 121 C366.3413 119.4755 366.204 117.1443 363 116 C360.4472 115.0883 358.4643 117.1442 356 116 C346.4821 111.581 345.7911 107.165 335 103 C318.6277 96.6809 299 94 299 94 "/>
<path id="1" d="M346 77 L332 103 "/>
<path id="2" d="M402 97 C402 97 401.1851 101.4871 399 104 C391.9998 112.0503 382 120 382 120 "/>
<path id="3" d="M452 132 L415 155 "/>
<path id="4" d="M481 183 C481 183 479.1562 186.1489 477 187 C462.181 192.8496 443 198 443 198 "/>
<path id="5" d="M450 252 L491 265 "/>
<path id="6" d="M443 321 C443 321 447.5762 328.0597 453 334 C457.9123 339.3801 458.4766 340.1011 464 344 C466.2669 345.6002 470 346 470 346 "/>
<path id="7" d="M419 356 C419 356 421.585 365.1323 426 372 C430.1073 378.3891 437 384 437 384 "/>
<path id="8" d="M380 384 C380 384 380.858 389.9444 382 392 C382.3342 392.6016 384.6851 392.4489 385 393 C385.7624 394.3343 384.9309 396.8617 386 399 C386.9869 400.9738 389.0657 400.8512 390 403 C393.5177 411.0907 396 422 396 422 "/>
<path id="9" d="M336 404 L336 438 "/>
<path id="10" d="M269 397 L256 438 "/>
<path id="11" d="M224 384 L204 409 "/>
<path id="12" d="M193 350 C193 350 187.7476 353.7506 183 355 C179.224 355.9937 176.531 354.3097 174 355 C173.2075 355.2161 172.9655 357.6552 172 358 C168.0031 359.4275 161.9321 359.356 160 360 C159.8983 360.0339 160 362 160 362 "/>
<path id="13" d="M171 295 C171 295 162.6754 295.9545 158 298 C156.4483 298.6789 156.187 301.8219 155 302 C142.7012 303.8448 118 304 118 304 "/>
<path id="14" d="M161 240 C161 240 153.0372 239.262 146 237 C139.4194 234.8848 139.1785 232.8536 133 231 C130.0777 230.1233 126 231 126 231 "/>
<path id="15" d="M173 185 C173 185 171.8583 181.2715 170 180 C163.7854 175.7479 159.7471 176.2347 154 172 C152.0521 170.5647 152.8225 167.8225 151 166 C149.1775 164.1775 145 163 145 163 "/>
<path id="16" d="M198 128 C198 128 189.5446 118.3566 184 109 C182.1342 105.8515 182 101 182 101 "/>
<path id="17" d="M266 100 L265 66 "/>
</g>
</g>
</svg>
