<?xml version="1.0" encoding="utf-8"?>
<!DOCTYPE svg PUBLIC "-//W3C//DTD SVG 1.1//EN" "http://www.w3.org/Graphics/SVG/1.1/DTD/svg11.dtd">
<svg viewBox="0 0 800 800" preserveAspectRatio="xMinYMin meet" xmlns="http://www.w3.org/2000/svg" version="1.1">
<g fill="none" stroke="black" stroke-linecap="round" stroke-linejoin="round" stroke-width="2.2429">
<g transform="translate(95.7015,87.52) scale(1.3376) translate(-107,-13.2)">
<path id="0" d="M409 154.2 C409 154.2 406.1954 147.8167 402 144.2 C392.6182 136.1122 391.3282 134.411 380 129.2 C367.5821 123.4878 365.8325 123.0862 352 121.2 C333.8665 118.7272 329.0949 116.9294 314 120.2 C303.9989 122.3669 299.3123 125.8176 292 134.2 C281.0784 146.7199 280.6093 150.3509 273 167.2 C266.9492 180.5983 265.7286 181.8999 264 196.2 C260.4241 225.7821 260.3367 228.5931 262 258.2 C262.7362 271.3049 263.3675 274.1604 269 285.2 C274.7453 296.4607 277.1947 301.5545 287 307.2 C305.2928 317.7322 311.0063 316.2927 335 323.2 C343.6037 325.6768 344.0645 325.6415 353 326.2 C367.739 327.1212 368.7063 327.272 383 326.2 C387.8718 325.8346 388.0784 324.8971 393 323.2 C402.551 319.9066 403.5559 320.9797 412 316.2 C429.2907 306.4128 434.365 304.5367 446 293.2 C450.0458 289.2579 450.4044 285.4658 451 278.2 C452.7778 256.5109 453.1242 254.6219 451 232.2 C448.6979 207.9002 449.0895 204.7767 442 183.2 C438.5069 172.5688 436.027 169.7683 428 162.2 C420.3258 154.9643 407 150.2 407 150.2 "/>
<path id="1" d="M407 150.2 C407 150.2 406.0901 146.5796 407 144.2 C411.9998 131.1237 412.4427 129.2993 420 116.2 C427.197 103.7252 429.3152 104.6138 437 92.2 C448.7126 73.2796 446.5131 71.1812 459 53.2 C471.0652 35.8262 472.5974 34.9719 487 20.2 C491.2336 15.8578 492.9567 15.2767 498 13.2 C500.1797 12.3025 504 13.2 504 13.2 "/>
<path id="2" d="M366 128.2 L397 71.2 "/>
<path id="3" d="M317 120.2 C317 120.2 311.0001 13.2012 311 13.2 C311 13.1997 309.0001 37.1999 309 37.2 C308.9999 37.2001 308 15.2 308 15.2 "/>
<path id="4" d="M286 138.2 C286 138.2 281.5781 130.9581 276 125.2 C266.3266 115.2146 255 106.2 255 106.2 "/>
<path id="5" d="M270 183.2 C270 183.2 232.0042 170.0017 195 155.2 C182.2073 150.0829 182.2426 149.6325 170 143.2 C152.7994 134.1624 151.7579 134.9554 136 124.2 C120.7746 113.8081 107 100.2 107 100.2 "/>
<path id="6" d="M262 226.2 L215 225.2 "/>
<path id="7" d="M263 261.2 C263 261.2 247.4489 263.1107 233 267.2 C221.3548 270.4958 221.3332 271.3429 210 276.2 C182.8726 287.826 182.396 287.332 156 300.2 C142.6162 306.7246 130 315.2 130 315.2 "/>
<path id="8" d="M272 293.2 C272 293.2 264.592 294.7461 259 298.2 C248.2657 304.83 247.4623 305.3828 238 314.2 C225.8008 325.5675 215 339.2 215 339.2 "/>
<path id="9" d="M301 312.4333 C301 312.4333 270.2834 369.4129 243 427.4333 C230.9427 453.0743 222 480.4333 222 480.4333 "/>
<path id="10" d="M316 324.4333 L309 361.4333 "/>
<path id="11" d="M320 322.4333 C320 322.4333 315.5336 328.8805 314 335.4333 C310.2554 351.4331 309 369.4333 309 369.4333 "/>
<path id="12" d="M354 327.4333 C354 327.4333 352.8813 372.6844 354 417.4333 C354.3738 432.387 357 447.4333 357 447.4333 "/>
<path id="13" d="M384 326.4333 L393 360.4333 "/>
<path id="14" d="M416 318.4333 C416 318.4333 416.2373 322.5531 418 324.4333 C443.1537 351.2639 448.4554 352.5374 476 382.4333 C489.128 396.682 487.0867 399.1462 500 413.4333 C510.2411 424.7639 522.9146 434.3674 523 434.4333 C523.0089 434.4402 522 430.4333 522 430.4333 "/>
<path id="15" d="M442 299.4333 L473 310.4333 "/>
<path id="16" d="M455 272.4333 C455 272.4333 463.8856 277.6445 473 279.4333 C516.1625 287.9045 562 293.4333 562 293.4333 "/>
<path id="17" d="M452 238.4333 L491 241.4333 "/>
<path id="18" d="M447 205.4333 C447 205.4333 464.1003 191.7963 482 181.4333 C491.9614 175.6662 493.6556 177.9329 504 172.4333 C532.7892 157.1277 561 139.4333 561 139.4333 "/>
<path id="19" d="M435 165.2 C435 165.2 435.7568 161.9197 437 161.2 C443.0642 157.6891 446.5032 158.5947 454 154.2 C460.3454 150.4803 466 144.2 466 144.2 "/>
</g>
</g>
</svg>
