<?xml version="1.0" encoding="utf-8"?>
<!DOCTYPE svg PUBLIC "-//W3C//DTD SVG 1.1//EN" "http://www.w3.org/Graphics/SVG/1.1/DTD/svg11.dtd">
<svg viewBox="0 0 800 800" preserveAspectRatio="xMinYMin meet" xmlns="http://www.w3.org/2000/svg" version="1.1">
<g fill="none" stroke="black" stroke-linecap="round" stroke-linejoin="round" stroke-width="0.88806">
<g transform="translate(87.52,101.0326) scale(3.3782) translate(-198,-124)">
<path id="0" d="M252 203 C252 203 251.0525 198.6846 252 196 C253.6402 191.3527 254.306 189.694 258 186 C264.0028 179.9972 265.5682 179.0255 273 175 C276.5755 173.0633 277.711 173 282 173 C292.4841 173 294.6486 172.0349 304 175 C313.291 177.9459 315.3754 179.9003 323 186 C326.6203 188.8963 328.0973 190.7123 329 195 C331.5877 207.2914 332.4406 212.4751 331 224 C330.405 228.7603 328.0306 230.2581 324 235 C319.8386 239.8958 318.561 242.6585 314 244 C305.2387 246.5769 300.7956 246.8332 290 245 C276.093 242.6384 261 235 261 235 "/>
<path id="1" d="M252 203 C252 203 249.9199 213.9278 252 221 C254.1888 228.442 257.0528 230.6393 262 237 C263.0634 238.3673 266 239 266 239 "/>
<path id="2" d="M316 124 L314 157 "/>
<path id="3" d="M337 181 C337 181 340.7914 176.5554 345 175 C362.327 168.5965 383 164 383 164 "/>
<path id="4" d="M343 234 C343 234 360.7106 242.1483 376 251 C378.8174 252.6312 381 256 381 256 "/>
<path id="5" d="M308 262 L307 301 "/>
<path id="6" d="M262 261 L236 289 "/>
<path id="7" d="M198 214 L243 214 "/>
<path id="8" d="M221 140 L262 162 "/>
</g>
</g>
</svg>
