<?xml version="1.0" encoding="utf-8"?>
<!DOCTYPE svg PUBLIC "-//W3C//DTD SVG 1.1//EN" "http://www.w3.org/Graphics/SVG/1.1/DTD/svg11.dtd">
<svg viewBox="0 0 800 800" preserveAspectRatio="xMinYMin meet" xmlns="http://www.w3.org/2000/svg" version="1.1">
<g fill="none" stroke="black" stroke-linecap="round" stroke-linejoin="round" stroke-width="1.2769">
<g transform="translate(87.52,127.4611) scale(2.3495) translate(-160,-109.1333)">
<path id="0" d="M246 276.1333 C246 276.1333 244.3584 277.2962 244 277.1333 C241.2805 275.8972 238.0411 274.808 235 271.1333 C226.9918 261.4567 222.267 258.7126 220 248.1333 C215.9355 229.1655 217.3651 221.8833 220 201.1333 C220.9539 193.621 223.0197 191.6983 228 185.1333 C233.3305 178.1068 234.4333 175.9167 242 172.1333 C261.1935 162.5366 265.0761 159.7498 286 156.1333 C302.4 153.2988 305.8632 155.8981 323 158.1333 C327.3792 158.7045 328.3093 159.4492 332 162.1333 C338.7334 167.0304 341.4713 167.7481 345 174.1333 C350.5956 184.2587 351.1831 187.415 353 200.1333 C355.0082 214.1905 354.0344 215.6517 353 230.1333 C352.5789 236.0294 352.2062 236.6177 350 242.1333 C347.3592 248.7353 347.3186 249.7865 343 255.1333 C337.3725 262.1007 336.5964 263.7695 329 268.1333 C314.4773 276.4761 311.8663 279.2106 296 282.1333 C276.8243 285.6657 272.7257 283.3169 253 282.1333 C249.7063 281.9357 246 279.1333 246 279.1333 "/>
<path id="1" d="M160 214.1333 L196 227.1333 "/>
<path id="2" d="M184 162.1333 L208 180.1333 "/>
<path id="3" d="M233 126.1333 L249 156.1333 "/>
<path id="4" d="M292 110.1333 C292 110.1333 293.9977 109.1006 294 109.1333 C294.0787 110.2738 294 139.1333 294 139.1333 "/>
<path id="5" d="M363 116.1333 C363 116.1333 356.7302 121.1694 354 126.1333 C351.9729 129.8189 353.7943 131.7473 352 136.1333 C349.5348 142.1595 345 148.1333 345 148.1333 "/>
<path id="6" d="M369 180.1333 L404 163.1333 "/>
<path id="7" d="M372 222.1333 L426 222.1333 "/>
<path id="8" d="M365 273.1333 C365 273.1333 368.3019 280.2395 373 285.1333 C379.7703 292.1857 389 298.1333 389 298.1333 "/>
<path id="9" d="M314 303.1333 L318 329.1333 "/>
<path id="10" d="M267 304.1333 C267 304.1333 267.3164 318.8896 265 331.1333 C264.0739 336.0284 260 341.1333 260 341.1333 "/>
<path id="11" d="M172 280.1333 C172 280.1333 178.5327 279.4528 184 277.1333 C194.5726 272.648 205 266.1333 205 266.1333 "/>
<path id="12" d="M200 322.1333 C200 322.1333 202.3676 321.9654 203 321.1333 C209.9718 311.9599 219 297.1333 219 297.1333 "/>
</g>
</g>
</svg>
