<?xml version="1.0" encoding="utf-8"?>
<!DOCTYPE svg PUBLIC "-//W3C//DTD SVG 1.1//EN" "http://www.w3.org/Graphics/SVG/1.1/DTD/svg11.dtd">
<svg viewBox="0 0 800 800" preserveAspectRatio="xMinYMin meet" xmlns="http://www.w3.org/2000/svg" version="1.1">
<g fill="none" stroke="black" stroke-linecap="round" stroke-linejoin="round" stroke-width="1.0321">
<g transform="translate(87.52,164.55) scale(2.9068) translate(-132,-65)">
<path id="0" d="M226 98 C226 98 216.737 98.7402 210 102 C202.3664 105.6937 200.3888 106.749 195 113 C189.0055 119.9536 187.8146 122.3004 185 131 C182.8364 137.6873 183.1641 140.0344 184 147 C184.499 151.1583 185.409 152.1135 188 156 C192.1456 162.2184 192.5094 163.0086 198 168 C203.0609 172.6008 203.7172 173.0331 210 176 C221.2494 181.3122 222.3755 182.6223 234 185 C242.997 186.8403 245.2319 186.8459 254 185 C262.6296 183.1832 265.8379 181.9771 272 177 C276.6603 173.2359 278.5073 170.2695 280 164 C282.9521 151.6012 283.1974 147.5731 282 135 C281.4359 129.0771 279.6757 126.9884 276 122 C273.4903 118.594 272.292 118.0527 268 116 C249.9736 107.3787 230 100 230 100 "/>
<path id="1" d="M227 97 C227 97 231.0857 96.034 233 94 C238.183 88.4931 237.1697 85.4542 243 80 C251.8432 71.7274 264 65 264 65 "/>
<path id="2" d="M251 110 C251 110 253.4637 110.4767 254 110 C256.3437 107.9167 256.4002 104.9453 260 102 C277.4772 87.7005 298 74 298 74 "/>
<path id="3" d="M274 119 C274 119 278.5209 120.1666 281 119 C293.2288 113.2453 294.3993 109.6345 308 103 C314.2333 99.9594 322 99 322 99 "/>
<path id="4" d="M285 146 C285 146 303.4367 144.5836 321 146 C333.8814 147.0388 347 151 347 151 "/>
<path id="5" d="M281 164 L319 198 "/>
<path id="6" d="M264 183 L270 227 "/>
<path id="7" d="M241 188 L217 222 "/>
<path id="8" d="M225 179 L179 213 "/>
<path id="9" d="M197 167 C197 167 172.2403 179.1395 148 189 C143.4767 190.84 138 191 138 191 "/>
<path id="10" d="M188 149 L132 138 "/>
<path id="11" d="M188 128 L153 80 "/>
<path id="12" d="M208 105 L182 66 "/>
</g>
</g>
</svg>
