<?xml version="1.0" encoding="utf-8"?>
<!DOCTYPE svg PUBLIC "-//W3C//DTD SVG 1.1//EN" "http://www.w3.org/Graphics/SVG/1.1/DTD/svg11.dtd">
<svg viewBox="0 0 800 800" preserveAspectRatio="xMinYMin meet" xmlns="http://www.w3.org/2000/svg" version="1.1">
<g fill="none" stroke="black" stroke-linecap="round" stroke-linejoin="round" stroke-width="1.7281">
<g transform="translate(87.52,128.316) scale(1.736) translate(-111,-56)">
<path id="0" d="M150 220 C150 220 148.4619 213.1268 150 208 C155.4473 189.8425 155.7601 187.4531 165 170 C173.2698 154.3794 174.2643 153.0397 186 140 C195.9838 128.9069 197.4897 126.4637 210 120 C225.1885 112.1526 227.8688 112.98 246 109 C268.4366 104.0749 269.1312 103.8833 292 102 C311.1488 100.423 312.1947 99.7268 331 102 C356.7149 105.1084 360.2613 105.6536 383 113 C389.6434 115.1463 390.9075 117.2285 396 123 C405.2502 133.4836 406.7126 134.4252 413 147 C422.1893 165.3786 423.3953 167.4302 428 187 C430.9868 199.6939 430.4201 201.7461 429 215 C427.5363 228.6612 426.8567 229.8176 422 243 C416.5749 257.7252 416.6752 259.0723 408 272 C391.7705 296.1851 390.5642 299.7514 371 319 C361.887 327.966 358.6299 327.0174 346 333 C340.0528 335.8171 339.3586 336.123 333 337 C325.4927 338.0355 324.954 337.4571 317 337 C281.5614 334.9633 280.7696 336.3462 246 332 C229.4951 329.9369 228.3736 329.3337 213 324 C204.7826 321.1491 204.2223 320.2703 197 315 C186.0757 307.0282 185.4078 306.6766 176 297 C168.2588 289.0376 168.4566 288.1152 162 279 C160.1208 276.3471 159.3242 275.8095 159 273 C157.9784 264.1457 159.9087 262.7681 159 253 C157.9381 241.5849 157.5234 241.1753 155 230 C154.0839 225.9431 154.0182 224.691 152 222 C150.3264 219.7685 146 218 146 218 "/>
<path id="1" d="M317 99 C317 99 316.3131 96.3739 317 95 C321.0357 86.9286 321.4554 84.3891 328 77 C336.1892 67.7542 344.7652 63.774 348 60 C348.2166 59.7474 346 56 346 56 "/>
<path id="2" d="M364 106 L423 81 "/>
<path id="3" d="M397 125 C397 125 419.1167 121.0841 441 119 C450.3285 118.1116 457.7788 118.4155 460 119 C460.1538 119.0405 460 124 460 124 "/>
<path id="4" d="M421 159 L471 179 "/>
<path id="5" d="M434 204 C434 204 444.1101 219.8947 455 235 C459.5338 241.2888 464.9779 246.9828 465 247 C465.0056 247.0043 464 242 464 242 "/>
<path id="6" d="M427 245 C427 245 435.3547 267.0642 442 287 C442.4242 288.2725 442.0051 290.0038 442 290 C441.9808 289.9856 438 284 438 284 "/>
<path id="7" d="M399 287 C399 287 408.0315 306.4923 414 324 C414.9921 326.9101 414.07 330.93 414 331 C413.99 331.01 410 328 410 328 "/>
<path id="8" d="M366 328 C366 328 363.0445 368.8166 363 369 C362.9928 369.0298 358 361 358 361 "/>
<path id="9" d="M317 335 C317 335 310.9581 339.5341 307 345 C300.8096 353.5487 296.696 363.478 296 364 C295.9931 364.0052 291 357 291 357 "/>
<path id="10" d="M268 333 C268 333 253.0548 351.9786 245 361 C244.7036 361.3319 243.0772 361.1544 243 361 C242.3052 359.6105 241 353 241 353 "/>
<path id="11" d="M215 317 C215 317 196.1299 342.5923 194 345 C193.9894 345.0119 192 343 192 343 "/>
<path id="12" d="M178 300 C178 300 177.7038 303.8702 176 306 C164.8356 319.9555 150 335 150 335 "/>
<path id="13" d="M155 276 C155 276 148.2043 282.4331 141 288 C137.3275 290.8378 135.9043 291.9439 133 293 C132.2201 293.2836 130 292 130 292 "/>
<path id="14" d="M155 232 C155 232 148.8693 234.348 144 238 C129.2351 249.0737 119.7639 259.1128 115 262 C114.8276 262.1045 111 258 111 258 "/>
<path id="15" d="M152 202 C152 202 140.3594 211.9272 130 218 C127.4955 219.4681 123 219 123 219 "/>
<path id="16" d="M162 179 L120 183 "/>
<path id="17" d="M181 146 C181 146 168.3734 149.491 156 151 C148.2696 151.9427 140 151 140 151 "/>
<path id="18" d="M198 125 L160 125 "/>
<path id="19" d="M236 109 C236 109 237.1735 106.2082 237 106 C236.3593 105.2311 234.0829 103.9809 231 103 C223.3432 100.5638 221.3688 101.8949 215 99 C211.8806 97.5821 211.9982 94.4109 209 93 C204.9424 91.0905 198 91 198 91 "/>
<path id="20" d="M277 98 C277 98 278.1708 92.9921 277 90 C274.2893 83.0726 270.5071 81.9641 268 75 C266.6255 71.182 268 65 268 65 "/>
</g>
</g>
</svg>
