<?xml version="1.0" encoding="utf-8"?>
<!DOCTYPE svg PUBLIC "-//W3C//DTD SVG 1.1//EN" "http://www.w3.org/Graphics/SVG/1.1/DTD/svg11.dtd">
<svg viewBox="0 0 800 800" preserveAspectRatio="xMinYMin meet" xmlns="http://www.w3.org/2000/svg" version="1.1">
<g fill="none" stroke="black" stroke-linecap="round" stroke-linejoin="round" stroke-width="1.9249">
<g transform="translate(87.52,104.6635) scale(1.5585) translate(-117,-30.4167)">
<path id="0" d="M301 178.4167 C301 178.4167 293.6802 178.0015 290 180.4167 C279.9962 186.9816 275.9595 189.7804 269 199.4167 C264.8017 205.2298 264.9247 208.0947 264 216.4167 C262.5252 229.6897 260.3605 236.271 264 244.4167 C267.6893 252.6737 273.9021 256.8885 285 263.4167 C297.5789 270.816 300.3541 272.2198 315 274.4167 C338.2066 277.8977 347.5863 279.3153 365 275.4167 C372.2004 273.8046 376.9863 267.8397 382 259.4167 C387.9049 249.4964 388.0049 246.1352 390 233.4167 C391.83 221.7504 391.0192 220.3077 390 208.4167 C389.5818 203.538 389.5764 202.0973 387 198.4167 C380.0585 188.5003 378.3696 183.9986 369 178.4167 C358.4242 172.1162 354.2084 173.0601 340 170.4167 C333.4756 169.2028 331.6478 169.2871 326 170.4167 C323.2568 170.9653 323.0057 173.5751 320 174.4167 C311.6247 176.7618 301 177.4167 301 177.4167 "/>
<path id="1" d="M368 177.4167 C368 177.4167 375.3568 151.5458 387 128.4167 C411.9878 78.7787 442 30.4167 442 30.4167 "/>
<path id="2" d="M395 200.4167 C395 200.4167 404.2305 188.8187 415 179.4167 C435.4198 161.5899 438.2453 163.8544 458 145.4167 C482.7595 122.3078 505 95.4167 505 95.4167 "/>
<path id="3" d="M387 227.4167 C387 227.4167 445.3566 222.6594 498 213.4167 C508.013 211.6587 518 204.4167 518 204.4167 "/>
<path id="4" d="M372 276.4167 C372 276.4167 381.1138 279.0511 389 283.4167 C408.7526 294.3512 409.9501 293.8793 428 307.4167 C459.429 330.9884 458.3588 335.2393 489 358.4167 C496.0932 363.782 506 366.4167 506 366.4167 "/>
<path id="5" d="M356 275.4167 C356 275.4167 355.048 281.224 356 286.4167 C360.4153 310.4999 364.2223 311.0125 367 335.4167 C371.1093 371.5195 370.0001 409.4113 370 409.4167 C370 409.4178 366 394.4167 366 394.4167 "/>
<path id="6" d="M316 276.4167 C316 276.4167 306.7532 310.0258 300 343.4167 C297.8458 354.068 300.3235 354.9611 298 365.4167 C294.4573 381.3588 288.0048 397.41 288 397.4167 C287.9978 397.4198 288 379.4167 288 379.4167 "/>
<path id="7" d="M295 267.4167 C295 267.4167 283.5752 278.8768 271 288.4167 C254.7977 300.7081 252.6708 298.6984 237 311.4167 C218.6168 326.3364 220.2369 329.0456 202 344.4167 C185.4761 358.344 184.3582 358.71 167 370.4167 C163.6882 372.6502 159.0313 373.4703 159 373.4167 C158.7294 372.9528 160 358.4167 160 358.4167 "/>
<path id="8" d="M259 238.4167 L117 237.4167 "/>
<path id="9" d="M266 209.4167 C266 209.4167 238.4808 182.4336 210 157.4167 C201.7593 150.1783 199.9353 151.7255 192 144.4167 C181.3407 134.5989 172 122.4167 172 122.4167 "/>
<path id="10" d="M306 171.4167 C306 171.4167 300.017 170.9689 299 169.4167 C293.617 161.2006 291.7871 156.2309 287 142.4167 C274.4063 106.0748 276.3076 104.9666 264 68.4167 C259.8795 56.1801 259.6229 55.6625 254 44.4167 C251.8672 40.151 248 36.4167 248 36.4167 "/>
<path id="11" d="M337 161.4167 C337 161.4167 343.3552 134.8642 346 108.4167 C348.8067 80.3499 348 51.4167 348 51.4167 "/>
</g>
</g>
</svg>
