<?xml version="1.0" encoding="utf-8"?>
<!DOCTYPE svg PUBLIC "-//W3C//DTD SVG 1.1//EN" "http://www.w3.org/Graphics/SVG/1.1/DTD/svg11.dtd">
<svg viewBox="0 0 800 800" preserveAspectRatio="xMinYMin meet" xmlns="http://www.w3.org/2000/svg" version="1.1">
<g fill="none" stroke="black" stroke-linecap="round" stroke-linejoin="round" stroke-width="1.0945">
<g transform="translate(120.4126,87.52) scale(2.7411) translate(-211,-96)">
<path id="0" d="M333 205 C333 205 332.0746 201.4776 331 201 C325.9431 198.7525 317.9609 198.1103 315 197 C314.8731 196.9524 315.0178 195.0013 315 195 C311.5178 194.7513 299.2361 192.6569 287 195 C277.9438 196.7342 275.6379 198.7122 268 204 C263.9948 206.7729 262.3608 208.9177 261 213 C259.5592 217.3224 259.2639 220.6598 261 225 C264.2985 233.2463 266.4994 234.8743 273 243 C276.1561 246.9451 276.6703 247.7695 281 250 C292.2482 255.7945 293.5786 256.6124 306 260 C314.7561 262.388 316.5213 262.314 325 262 C328.6337 261.8654 331.107 261.2536 333 259 C339.4113 251.3676 342.2164 247.5401 346 237 C348.463 230.1388 348.243 226.9609 347 220 C346.108 215.0047 344.5294 212.7647 341 209 C338.1473 205.9571 332 204 332 204 "/>
<path id="1" d="M304 173 L304 96 "/>
<path id="2" d="M338 187 L343 180 "/>
<path id="3" d="M361 234 C361 234 374.1231 224.4524 388 217 C400.8455 210.1015 415 205 415 205 "/>
<path id="4" d="M357 263 L366 269 "/>
<path id="5" d="M311 272 L311 324 "/>
<path id="6" d="M291 270 L288 278 "/>
<path id="7" d="M265 248 C265 248 242.1782 257.1172 221 263 C216.6031 264.2214 211 263 211 263 "/>
<path id="8" d="M253 226 L234 225 "/>
<path id="9" d="M264 202 C264 202 251.254 182.3399 237 166 C231.4441 159.631 223 155 223 155 "/>
<path id="10" d="M279 186 L280 177 "/>
</g>
</g>
</svg>
