<?xml version="1.0" encoding="utf-8"?>
<!DOCTYPE svg PUBLIC "-//W3C//DTD SVG 1.1//EN" "http://www.w3.org/Graphics/SVG/1.1/DTD/svg11.dtd">
<svg viewBox="0 0 800 800" preserveAspectRatio="xMinYMin meet" xmlns="http://www.w3.org/2000/svg" version="1.1">
<g fill="none" stroke="black" stroke-linecap="round" stroke-linejoin="round" stroke-width="1.3009">
<g transform="translate(87.52,156.7038) scale(2.3061) translate(-225,-183.4167)">
<path id="0" d="M341 188.4167 C341 188.4167 329.979 193.2519 322 200.4167 C306.2608 214.5499 303.149 221.6055 292 232.4167 C291.452 232.9481 289.0057 232.4452 289 232.4167 C288.9563 232.1982 291.0011 227.4155 291 227.4167 C290.9893 227.4284 259.2646 265.2099 259 265.4167 C258.9564 265.4507 258.0658 258.4887 259 252.4167 C259.9784 246.0572 262.4724 245.7478 263 239.4167 C264.3849 222.7974 263 204.4167 263 204.4167 C263 204.4167 264.4723 211.1776 263 214.4167 C260.564 219.7758 253 226.4167 253 226.4167 "/>
<path id="1" d="M260 229.4167 L260 259.4167 "/>
<path id="2" d="M256 240.4167 C256 240.4167 260.5148 261.9358 256 272.4167 C249.6423 287.1756 233.2118 293.86 228 305.4167 C226.2015 309.4047 233.0064 323.3975 233 323.4167 C232.9975 323.4241 226.5544 317.9696 225 314.4167 C224.1839 312.5514 226 307.4167 226 307.4167 "/>
<path id="3" d="M235 322.4167 C235 322.4167 241.0501 317.2099 245 311.4167 C248.1942 306.7319 247.0037 303.8739 250 300.4167 C252.1365 297.9515 255.9524 298.8055 258 296.4167 C260.5326 293.462 258.9774 289.9604 262 286.4167 C272.2145 274.4411 276.1422 274.9196 287 262.4167 C291.9757 256.687 290.502 254.1142 295 248.4167 C297.3306 245.4646 298.8036 244.646 302 243.4167 C304.1493 242.59 308 243.4167 308 243.4167 "/>
<path id="4" d="M312 236.4167 C312 236.4167 320.8245 225.8642 331 217.4167 C347.0224 204.1151 363.3354 194.4014 365 192.4167 C365.0221 192.3904 361.1217 188.3691 357 186.4167 C352.278 184.1799 346.594 183.2007 346 183.4167 C345.8474 183.4722 345.4643 189.9405 346 190.4167 C346.8514 191.1735 352.2088 190.4017 355 191.4167 C355.9214 191.7517 357 194.4167 357 194.4167 "/>
<path id="5" d="M325 233.4167 L346 226.4167 "/>
<path id="6" d="M317 240.4167 C317 240.4167 323.92 240.7678 330 239.4167 C336.9485 237.8726 344 234.4167 344 234.4167 "/>
<path id="7" d="M347 224.4167 C347 224.4167 347.6848 215.1297 351 211.4167 C357.7519 203.8546 371.5251 196.4393 372 196.4167 C372.0146 196.416 373.2874 205.267 372 210.4167 C371.3333 213.0835 366.9998 216.4168 367 216.4167 C367.0004 216.4164 373.3143 209.2738 380 205.4167 C385.29 202.3647 387.5953 203.96 393 201.4167 C395.1362 200.4114 396.9765 197.4026 397 197.4167 C397.0765 197.4626 398.427 201.6409 398 204.4167 C397.5969 207.0365 394.9984 210.4175 395 210.4167 C395.0036 210.4149 399.8352 202.7256 404 201.4167 C413.3758 198.47 417.2822 199.4167 430 199.4167 C437.3372 199.4167 445.0405 201.3451 445 201.4167 C444.7123 201.9244 413 229.4167 413 229.4167 "/>
<path id="8" d="M436 215.4167 C436 215.4167 454.594 215.2543 455 215.4167 C455.0342 215.4303 450.9564 221.4098 451 221.4167 C451.322 221.4675 473.7686 218.3486 474 218.4167 C474.0382 218.4279 468.0018 226.4131 468 226.4167 C467.9994 226.4178 469.7449 224.4615 471 224.4167 C481.2013 224.0523 495.92 225.2567 496 225.4167 C496.0533 225.5234 488.3815 235.0022 480 242.4167 C475.8664 246.0734 470.2834 247.9916 470 248.4167 C469.9925 248.4279 474.0209 251.4129 474 251.4167 C473.8415 251.4455 448 252.4167 448 252.4167 "/>
<path id="9" d="M464 253.4167 C464 253.4167 474.0005 256.4157 474 256.4167 C473.9983 256.42 462.1996 257.267 462 257.4167 C461.9961 257.4196 464.0924 261.7139 466 262.4167 C471.1384 264.3098 480.8911 264.3804 481 264.4167 C481.0162 264.4221 478 266.1008 478 266.4167 C478 267.3643 481.0275 272.4002 481 272.4167 C480.0931 272.9608 464.9218 274.2862 463 275.4167 C462.6969 275.595 464.1843 282.3245 464 282.4167 C462.8943 282.9695 454.2323 281.3151 449 282.4167 C447.311 282.7723 446.7485 285.8338 445 286.4167 C442.3772 287.2909 439.3169 287.6909 437 286.4167 C431.7726 283.5416 431.403 279.9902 425 275.4167 C417.7678 270.2508 409 266.4167 409 266.4167 "/>
<path id="10" d="M322 253.4167 C322 253.4167 319.519 258.5308 320 261.4167 C320.6796 265.4945 322.6572 270.2921 325 271.4167 C330.0107 273.8218 338.5857 274.4035 345 273.4167 C347.255 273.0697 349.9058 270.2303 351 267.4167 C352.6267 263.2338 353.1569 259.2729 352 255.4167 C351.0013 252.0878 347.8093 249.6641 345 247.4167 C344.371 246.9135 342 247.4167 342 247.4167 "/>
<path id="11" d="M348 272.4167 C348 272.4167 347.1745 276.7338 348 279.4167 C348.8527 282.188 350.4459 285.0437 352 285.4167 C357.9993 286.8565 364.3786 286.6939 373 285.4167 C375.7065 285.0157 378.154 283.1086 379 281.4167 C379.9668 279.483 379.8743 276.0395 379 273.4167 C378.4172 271.6681 375 269.4167 375 269.4167 "/>
<path id="12" d="M357 249.4167 C357 249.4167 356.3223 257.8629 358 262.4167 C359.0304 265.2135 361.587 267.914 364 268.4167 C369.9216 269.6503 374.5889 269.3381 382 267.4167 C386.2843 266.3059 388.8817 263.7703 391 261.4167 C391.6009 260.749 391 257.4167 391 257.4167 "/>
<path id="13" d="M319 273.4167 C319 273.4167 316.2506 272.7914 315 273.4167 C312.3424 274.7455 309.3671 276.673 309 278.4167 C308.2041 282.1971 309.0639 287.1615 311 292.4167 C311.8989 294.8565 313.3429 295.8983 316 297.4167 C319.6234 299.4872 320.6133 299.6425 325 300.4167 C328.6827 301.0666 332.0588 300.652 333 300.4167 C333.0588 300.402 333 298.4167 333 298.4167 "/>
<path id="14" d="M337 296.4167 C337 296.4167 337.126 303.6687 339 307.4167 C340.2493 309.9153 342.1386 311.6463 345 312.4167 C353 314.5705 358.2576 315.6207 365 314.4167 C368.1751 313.8497 372.7235 308.1079 373 307.4167 C373.038 307.3218 369 304.4167 369 304.4167 "/>
<path id="15" d="M329 278.4167 C329 278.4167 327.0269 279.1477 327 279.4167 C326.8005 281.4114 326.7521 284.673 328 288.4167 C328.9805 291.3581 329.7342 292.3774 332 294.4167 C334.0971 296.3041 335.15 296.7042 338 297.4167 C340.5333 298.05 341.8133 298.3674 344 297.4167 C351.7803 294.0339 355.283 292.231 361 287.4167 C362.5861 286.081 363 281.4167 363 281.4167 "/>
<path id="16" d="M363 287.4167 C363 287.4167 362.5137 295.5588 364 297.4167 C365.8992 299.7907 369.5869 301.1175 375 302.4167 C381.3183 303.9331 385.1004 304.8347 389 303.4167 C392.2236 302.2444 396.2055 297.4359 397 294.4167 C397.659 291.9126 394 284.4167 394 284.4167 "/>
<path id="17" d="M391 276.4167 C391 276.4167 394.4202 282.0276 397 283.4167 C398.8485 284.412 401.9601 284.4366 404 283.4167 C407.0599 281.8867 409.8997 279.1674 411 276.4167 C411.8533 274.2834 410 268.4167 410 268.4167 "/>
<path id="18" d="M312 297.4167 C312 297.4167 311.1139 305.9874 313 309.4167 C315.0289 313.1056 318.2995 315.8498 323 317.4167 C329.4323 319.5608 335.2698 318.9146 340 318.4167 C340.6484 318.3484 342.0625 315.7292 342 315.4167 C341.9375 315.1042 339 313.4167 339 313.4167 "/>
<path id="19" d="M344 318.4167 C344 318.4167 344.4394 323.2708 346 325.4167 C347.5438 327.5394 349.2981 329.0307 352 329.4167 C361.0455 330.7089 366.3378 331.0586 374 329.4167 C376.5375 328.8729 380 323.4167 380 323.4167 "/>
<path id="20" d="M374 316.4167 C374 316.4167 377.2679 319.9199 380 320.4167 C386.498 321.5981 389.985 322.1989 396 320.4167 C401.0264 318.9274 404.2352 316.103 407 312.4167 C408.4887 310.4317 408.1923 306.147 408 304.4167 C407.9702 304.1486 406 303.4167 406 303.4167 "/>
<path id="21" d="M396 295.4167 C396 295.4167 398.8866 296.0353 400 295.4167 C402.165 294.2139 403.05 293.0979 405 290.4167 C406.8474 287.8765 407.569 287.0029 408 284.4167 C408.3868 282.0957 407 278.4167 407 278.4167 "/>
<path id="22" d="M306 283.4167 C306 283.4167 301.5475 283.8692 300 285.4167 C296.905 288.5117 294.1453 292.075 294 295.4167 C293.819 299.5796 295.8446 302.9664 299 308.4167 C300.8807 311.6652 305 314.4167 305 314.4167 "/>
<path id="23" d="M309 314.4167 C309 314.4167 307.1421 320.843 308 323.4167 C308.7919 325.7923 311.2662 328.5846 314 329.4167 C320.0448 331.2564 329.1302 330.5267 331 330.4167 C331.013 330.4159 331 328.4167 331 328.4167 "/>
<path id="24" d="M319 338.4167 C319 338.4167 317.8362 345.4599 319 349.4167 C319.7904 352.1039 321.2481 353.5821 324 355.4167 C327.873 357.9987 329.1969 358.1358 334 359.4167 C336.1701 359.9954 338.5404 359.6924 339 359.4167 C339.1654 359.3174 339 356.4167 339 356.4167 "/>
<path id="25" d="M336 334.4167 C336 334.4167 335.1257 338.6681 336 340.4167 C337.3114 343.0395 339.1194 345.5227 342 346.4167 C350.7683 349.1379 359.4602 349.8428 365 349.4167 C365.8235 349.3533 368 344.4167 368 344.4167 "/>
<path id="26" d="M350 350.4167 C350 350.4167 350.1576 358.1136 352 360.4167 C354.0648 362.9977 357.2495 364.337 362 365.4167 C367.1189 366.5801 369.4923 366.4773 374 365.4167 C376.2317 364.8916 377.9434 363.1072 379 361.4167 C379.5932 360.4676 379.4834 358.3835 379 357.4167 C378.577 356.5707 376 355.4167 376 355.4167 "/>
<path id="27" d="M370 336.4167 C370 336.4167 378.2636 339.2033 382 338.4167 C384.6665 337.8553 387.1108 334.8457 389 332.4167 C389.4952 331.7799 389 329.4167 389 329.4167 "/>
<path id="28" d="M389 342.4167 C389 342.4167 386.6643 347.0144 384 348.4167 C378.7402 351.185 370 352.4167 370 352.4167 "/>
<path id="29" d="M328 360.4167 C328 360.4167 326 361.1972 326 361.4167 C326 364.7089 325.8237 373.3077 328 376.4167 C329.7782 378.957 334.2256 380.1043 340 381.4167 C344.3957 382.4157 347.9844 381.9664 350 381.4167 C350.3665 381.3167 351 378.4167 351 378.4167 "/>
<path id="30" d="M347 363.4167 C347 363.4167 342.7803 368.2031 342 372.4167 C340.585 380.0577 340.6195 385.3547 342 390.4167 C342.4323 392.0017 345.2935 394.0157 348 394.4167 C356.6214 395.6939 365.7578 396.0378 369 394.4167 C370.3895 393.7219 372.6865 386.0206 372 382.4167 C371.3793 379.1581 368.9372 377.1351 365 373.4167 C360.2866 368.9652 359.0237 367.2435 354 365.4167 C350.027 363.9719 346.8311 364.5957 343 365.4167 C341.7313 365.6885 340 368.4167 340 368.4167 "/>
<path id="31" d="M376 370.4167 C376 370.4167 373.784 375.3924 374 378.4167 C374.1709 380.8086 375.7343 383.7263 377 384.4167 C378.6142 385.2971 384.0586 385.1698 385 384.4167 C385.9885 383.6259 387.4965 378.899 387 376.4167 C386.4774 373.8037 382 369.4167 382 369.4167 "/>
<path id="32" d="M380 362.4167 L383 359.4167 "/>
<path id="33" d="M406 355.4167 C406 355.4167 405.6847 360.1347 405 360.4167 C396.7834 363.8 372 369.4167 372 369.4167 "/>
<path id="34" d="M394 341.4167 L393 341.4167 "/>
<path id="35" d="M406 333.4167 C406 333.4167 407.5941 343.5708 406 345.4167 C402.4917 349.479 387 355.4167 387 355.4167 "/>
<path id="36" d="M410 317.4167 C410 317.4167 410.4153 324.6154 409 326.4167 C407.1405 328.7833 399 331.4167 399 331.4167 "/>
</g>
</g>
</svg>
