<?xml version="1.0" encoding="utf-8"?>
<!DOCTYPE svg PUBLIC "-//W3C//DTD SVG 1.1//EN" "http://www.w3.org/Graphics/SVG/1.1/DTD/svg11.dtd">
<svg viewBox="0 0 800 800" preserveAspectRatio="xMinYMin meet" xmlns="http://www.w3.org/2000/svg" version="1.1">
<g fill="none" stroke="black" stroke-linecap="round" stroke-linejoin="round" stroke-width="0.89286">
<g transform="translate(87.52,156.4) scale(3.36) translate(-218,-135)">
<path id="0" d="M223 192 C223 192 220.131 191.7642 220 192 C219.2054 193.4303 218 196.8757 218 201 C218 205.5825 219.0824 210.4839 220 211 C221.6171 211.9096 232.6277 211.453 234 210 C235.9137 207.9738 237.8941 197.113 237 193 C236.5767 191.0529 232.6395 188.3648 229 187 C226.1595 185.9348 221 187 221 187 "/>
<path id="1" d="M242 189 C242 189 240.0096 188.9519 240 189 C239.7596 190.2019 239.2121 194.5351 240 199 C240.5933 202.3618 241.4662 204.4662 243 206 C243.9203 206.9203 245.7349 207 248 207 C249.8121 207 250.98 206.8743 252 206 C253.53 204.6886 254.4617 203.4225 255 201 C256.2561 195.3476 256.8583 189.4305 256 188 C255.4463 187.0771 249.7173 185.7522 246 186 C244.0409 186.1306 241 189 241 189 "/>
<path id="2" d="M267 189 C267 189 261.6319 198.5685 260 207 C258.9202 212.5788 259.7583 218.9652 261 220 C262.9588 221.6323 271.9563 222.5494 278 222 C279.9275 221.8248 283 219.0035 283 218 C283 212.9827 281.1017 206.2712 278 198 C277.2201 195.9204 276.0702 195.0351 274 194 C270.8947 192.4474 266 192 266 192 "/>
<path id="3" d="M291 189 C291 189 288.153 213.459 289 216 C289.1179 216.3538 297.8245 217.4885 300 216 C303.3413 213.7138 305.2873 209.3297 308 203 C309.3918 199.7526 309.6387 196.1709 309 195 C308.4159 193.9291 305.3325 192.357 302 192 C292.4415 190.9759 281 192 281 192 "/>
<path id="4" d="M236 210 C236 210 235.76 213.68 236 214 C236.135 214.18 238.4924 213.577 239 214 C240.2127 215.0105 240.7704 218.5271 242 219 C244.4976 219.9606 249.1564 219.7109 252 219 C252.782 218.8045 253.5963 217.4804 254 216 C254.9421 212.5457 255.2171 208.1022 255 208 C253.5866 207.3348 237 208 237 208 "/>
<path id="5" d="M259 221 C259 221 253.241 220.7535 250 222 C248.0873 222.7357 246.7811 224.2425 246 226 C245.324 227.5209 245.5546 230.332 246 231 C246.3266 231.4899 248.0173 231.8633 250 232 C262.2153 232.8424 274.1643 233.3184 275 233 C275.0194 232.9926 273.2272 225.3787 271 224 C266.4681 221.1945 254 220 254 220 "/>
<path id="6" d="M276 216 C276 216 275.0936 225.0362 276 227 C276.393 227.8514 279.0931 228.7578 282 229 C290.4852 229.7071 293.5079 229.6492 300 229 C300.7935 228.9207 301.8114 227.8486 302 227 C302.54 224.5701 302.8085 221.3475 302 220 C301.2377 218.7295 298.8298 217.4245 296 217 C289.8577 216.0787 282 217 282 217 "/>
<path id="7" d="M278 221 C278 221 278.3526 223.6474 278 224 C277.1772 224.8228 274.453 224.4663 273 226 C266.6771 232.6742 263.4293 235.35 260 243 C258.1973 247.0215 259.2572 251.5335 260 255 C260.1636 255.7634 261.6846 256.8988 263 257 C272.5929 257.7379 280.962 259.4377 286 257 C289.3422 255.3828 291.7346 249.2997 294 242 C295.8543 236.0249 296.3517 230.7033 295 228 C293.8486 225.6972 289.1575 223.7192 284 222 C281.2229 221.0743 277 222 277 222 "/>
<path id="8" d="M277 265 C277 265 271.4592 265.2539 271 266 C269.7053 268.1038 268.3939 277.2929 269 278 C269.825 278.9625 280.4804 281.1998 283 280 C285.4552 278.8308 287.7249 273.5252 290 268 C290.7644 266.1437 290.3125 263.1704 290 263 C288.6772 262.2785 279 262 279 262 "/>
<path id="9" d="M253 232 C253 232 252.28 243.04 253 244 C253.405 244.54 258.9144 244.7714 262 244 C263.2857 243.6786 264.3443 242.3114 265 241 C265.4371 240.1257 265.2742 238.1645 265 238 C263.2026 236.9216 255 235 255 235 "/>
<path id="10" d="M281 201 C281 201 278.9232 189.8917 281 182 C283.3644 173.0153 285.7966 171.1768 291 163 C292.1377 161.2122 295.0243 160.0072 295 160 C294.8315 159.9504 275.3129 157.2779 274 158 C273.5943 158.2232 273.4394 165.5378 275 171 C276.1075 174.8764 279.4282 175.3407 280 179 C281.5627 189.0011 280 203 280 203 "/>
<path id="11" d="M285 192 C285 192 284.5529 186.4118 286 184 C287.9855 180.6908 290.2639 177.8895 294 177 C307.4168 173.8055 323.3686 176.8303 328 174 C329.7592 172.9249 330 163.4344 330 155 C330 152.7804 329.4584 151.6043 328 150 C325.1609 146.877 320.0242 143.9736 320 144 C319.6237 144.4105 316.5577 157.135 317 162 C317.1111 163.2225 319.8199 165.6512 322 166 C329.7308 167.2369 332.6526 167.1684 342 166 C347.8421 165.2697 349.25 164.85 354 162 C358.2222 159.4667 360.5287 157.8254 362 154 C364.4931 147.5181 364.4021 138.5466 364 136 C363.9593 135.7423 359.175 134.775 359 135 C358.3 135.9 356.8607 144.9443 357 145 C358.8802 145.7521 371.8017 147.0763 384 145 C393.651 143.3573 404 137 404 137 "/>
<path id="12" d="M280 251 C280 251 277.1875 250.8125 277 251 C276.8125 251.1875 276.6169 253.5211 277 254 C277.6641 254.8301 279.129 255.7921 281 256 C287.2039 256.6893 289.3522 257.1296 295 256 C297.7432 255.4514 299.6351 253.5924 301 252 C301.4479 251.4775 301.3313 249.2319 301 249 C298.9804 247.5863 295.8278 245.9196 291 245 C286.0654 244.0601 280.7109 244.6446 280 245 C279.9031 245.0485 281 250 281 250 "/>
<path id="13" d="M275 237 C275 237 273.774 241.1921 274 243 C274.0865 243.6924 275.173 244.8622 276 245 C279.5443 245.5907 285.1726 245.7521 286 245 C286.8349 244.241 287.6588 236.3176 287 235 C286.6186 234.2372 280.2004 232.8283 280 233 C279.7401 233.2228 280 241 280 241 "/>
</g>
</g>
</svg>
