<?xml version="1.0" encoding="utf-8"?>
<!DOCTYPE svg PUBLIC "-//W3C//DTD SVG 1.1//EN" "http://www.w3.org/Graphics/SVG/1.1/DTD/svg11.dtd">
<svg viewBox="0 0 800 800" preserveAspectRatio="xMinYMin meet" xmlns="http://www.w3.org/2000/svg" version="1.1">
<g fill="none" stroke="black" stroke-linecap="round" stroke-linejoin="round" stroke-width="0.85445">
<g transform="translate(170.0288,87.52) scale(3.511) translate(-234,-114)">
<path id="0" d="M294 114 C294 114 290.859 115.4252 290 117 C288.493 119.7628 288.4322 121.0019 288 125 C286.463 139.2168 286 154 286 154 C286 154 288.9329 124.3355 290 119 C290.0179 118.9106 293 119 293 119 "/>
<path id="1" d="M287 158 C287 158 279.4039 155.3515 274 156 C268.6639 156.6403 264.0394 158.2807 262 161 C259.4871 164.3505 258.2648 172.14 259 176 C259.3737 177.9619 263.1381 181.1057 266 182 C268.8014 182.8754 273.3879 182.6121 275 181 C280.1587 175.8413 286.9932 160.9948 287 161 C287.0485 161.0373 285.1034 180.4668 288 191 C289.2199 195.436 293.7433 198.3396 298 201 C299.5717 201.9823 303.092 201.7062 304 201 C305.2779 200.0061 306.5461 197.4043 307 194 C308.419 183.3578 308.9567 180.2482 308 171 C307.732 168.4094 306.4326 166.8244 304 165 C297.4892 160.1169 288.0771 156.2003 288 156 C287.9988 155.9969 293.7887 152.4738 299 152 C309.0475 151.0866 313.7592 150.5864 321 153 C324.5664 154.1888 327.123 158.0113 329 162 C330.1764 164.4998 329.5907 166.751 329 170 C328.7516 171.3661 327.7239 172.8914 327 173 C321.6812 173.7978 315.7422 174.4046 309 173 C306.3624 172.4505 304.4568 170.5493 303 168 C301.247 164.9322 301 159 301 159 "/>
<path id="2" d="M280 180 C280 180 275.5593 181.5744 274 184 C267.7061 193.7906 266.2034 196.791 262 208 C260.8201 211.1464 260.8236 213.5002 262 216 C263.877 219.9887 265.8875 220.8875 270 225 C271.2095 226.2095 271.8578 227 273 227 C278.3303 227 286.374 226.2911 287 225 C289.2774 220.3029 289 208.3795 289 194 C289 191.2169 288.4778 190.3222 287 188 C285.3375 185.3875 282.7543 183.3233 282 183 C281.8793 182.9483 280 185 280 185 "/>
<path id="3" d="M293 202 C293 202 291.712 211.2718 293 219 C294.0481 225.2886 294.5381 227.0236 298 232 C301.7085 237.331 303.8287 239.4143 309 242 C312.7169 243.8585 317.3818 243.8727 320 243 C321.4727 242.5091 323.4213 239.7488 324 237 C325.0995 231.7773 325.0679 229.98 324 224 C322.6945 216.6892 322.4551 214.4295 319 209 C316.5814 205.1994 314.3252 203.8212 310 202 C306.2273 200.4115 300 201 300 201 "/>
<path id="4" d="M313 178 C313 178 311.033 178.6866 311 179 C310.5094 183.6608 308.6068 189.9799 311 197 C315.1368 209.1345 320.4619 218.2258 326 223 C327.9447 224.6765 337.4844 223.6771 340 222 C341.9439 220.7041 343.3547 216.3237 344 211 C345.2361 200.8021 347.0496 193.7574 344 189 C339.4221 181.8584 319 172 319 172 "/>
<path id="5" d="M263 182 C263 182 253.0327 180.9117 247 183 C242.2874 184.6313 238.9156 187.1687 237 191 C234.4949 196.0102 233.776 202.9783 235 207 C235.7745 209.5448 240.2112 212.8035 244 214 C247.273 215.0336 250.4733 214.4107 254 213 C256.3738 212.0505 257.2803 210.778 259 208 C263.451 200.8099 264.5831 199.5527 267 192 C268.172 188.3376 267 183 267 183 "/>
<path id="6" d="M261 210 C261 210 257.7722 209.2405 256 210 C251.8985 211.7578 250.3065 212.3786 247 216 C240.4982 223.121 237.9888 224.9533 235 233 C232.441 239.8895 233.646 242.8574 234 251 C234.1003 253.3067 234.5535 254.2321 236 256 C238.5561 259.1241 239.8634 260.8929 243 262 C246.4402 263.2142 250.1011 263.1596 253 262 C255.1452 261.1419 256.3937 259.2126 258 256 C261.5905 248.819 262.7431 247.7509 264 240 C265.5551 230.4101 265.1934 226.4589 264 219 C263.7363 217.3519 260 215 260 215 "/>
<path id="7" d="M277 230 C277 230 274.6554 229.5318 274 230 C272.3458 231.1816 271.2453 232.3537 270 235 C267.4881 240.3377 267.0633 241.1521 266 247 C265.1646 251.5948 265.1874 252.6663 266 257 C266.5332 259.844 267.1362 260.3906 269 263 C271.9756 267.1658 272.0996 268.0747 276 271 C281.4756 275.1067 282.9634 275.6524 289 278 C290.9198 278.7466 292.5429 278.7286 294 278 C296.1857 276.9072 298.6135 275.0871 299 273 C300.4349 265.2516 301.6254 259.482 299 251 C296.1331 241.7377 292.4605 238.0758 286 231 C283.9111 228.7122 278 228 278 228 "/>
<path id="8" d="M305 246 C305 246 303.8671 256.7053 306 265 C308 272.7778 309.3146 274.2647 314 281 C316.73 284.9244 317.8287 285.9143 322 288 C327.8035 290.9018 334.5637 292.5069 336 292 C336.745 291.7371 338.4355 286.8921 339 282 C339.8729 274.4346 340.2517 273.2598 339 266 C337.9156 259.7102 337.1361 258.7021 334 253 C331.9491 249.271 331.082 247.4126 328 246 C321.362 242.9576 310 242 310 242 "/>
<path id="9" d="M334 228 C334 228 331.5052 232.6219 331 237 C330.0811 244.9634 330.0219 246.5013 331 254 C331.3677 256.8192 332.0367 258.0367 334 260 C337.2722 263.2722 338.8498 264.9173 343 266 C348.4995 267.4346 351.8503 267.2874 357 266 C359.6668 265.3333 362.0927 263.3817 363 261 C365.0874 255.5205 365.2942 252.0613 365 245 C364.8498 241.3954 364.2637 239.3968 362 237 C357.1476 231.8622 354.8522 229.7409 348 227 C341.6046 224.4418 332 225 332 225 "/>
</g>
</g>
</svg>
