<?xml version="1.0" encoding="utf-8"?>
<!DOCTYPE svg PUBLIC "-//W3C//DTD SVG 1.1//EN" "http://www.w3.org/Graphics/SVG/1.1/DTD/svg11.dtd">
<svg viewBox="0 0 800 800" preserveAspectRatio="xMinYMin meet" xmlns="http://www.w3.org/2000/svg" version="1.1">
<g fill="none" stroke="black" stroke-linecap="round" stroke-linejoin="round" stroke-width="2.1649">
<g transform="translate(96.5272,87.52) scale(1.3857) translate(-166,-1)">
<path id="0" d="M285 222 C285 222 282.3889 222.3087 282 223 C279.3411 227.7269 277.2062 230.763 276 238 C274.4169 247.4986 274.5876 249.3959 276 259 C276.9238 265.2817 277.6718 268.6718 281 272 C285.0678 276.0678 288.8351 277.4802 296 279 C303.8234 280.6595 306.5777 280.5905 314 279 C318.6537 278.0028 321.1592 276.0775 324 273 C325.65 271.2125 325.628 269.4723 326 266 C327.0885 255.8408 327.6707 254.3898 327 245 C326.7688 241.7632 325.9388 241.0159 324 238 C321.6424 234.3327 321.4143 233.672 318 231 C310.3826 225.0385 308.8755 222.4752 301 220 C294.0704 217.8221 290.1569 219.0241 283 220 C281.2469 220.2391 279 223 279 223 "/>
<path id="1" d="M295 217 C295 217 291.5889 215.4722 291 214 C289.3614 209.9035 288.7353 207.0302 289 202 C289.1593 198.973 289.8969 197.4267 292 195 C295.6512 190.7871 296.7074 190.257 302 187 C309.4205 182.4335 310.0147 181.7535 318 179 C323.8275 176.9905 324.5411 177.6459 331 177 C334.4252 176.6575 334.9283 176.1987 338 177 C345.7078 179.0107 348.3263 178.9811 354 183 C358.4245 186.1341 360.8765 189.1851 362 194 C363.6386 201.0227 363.6554 206.055 361 213 C358.3163 220.0188 353.9627 224.4552 349 228 C347.0337 229.4045 343.6685 226.981 340 228 C335.7654 229.1763 335.225 231.6797 331 233 C328.2 233.875 324 233 324 233 "/>
<path id="2" d="M346 233 C346 233 355.5112 229.3022 359 230 C361.3634 230.4727 362.9553 233.2527 366 237 C369.3297 241.0981 370.5506 241.4908 372 246 C374.6478 254.2375 376.0839 258.7135 375 265 C374.3327 268.8704 371.5065 271.7554 367 275 C360.2522 279.8584 358.1067 280.908 350 283 C344.0469 284.5363 340.7668 284.658 336 283 C331.9882 281.6046 327 275 327 275 "/>
<path id="3" d="M364 211 C364 211 364.7657 207.7261 366 207 C371.2542 203.9093 375.9362 201.211 381 201 C383.9193 200.8784 387.0847 203.0847 390 206 C392.4988 208.4988 393.1091 210.08 394 214 C395.4227 220.26 396.3554 222.5786 395 228 C393.4229 234.3086 390.1503 239.0597 387 242 C385.9532 242.977 380 242 380 242 "/>
<path id="4" d="M322 280 C322 280 318.2567 279.0973 316 280 C309.5308 282.5877 304.6162 283.9987 302 288 C298.9556 292.6562 298.2918 298.6817 299 306 C299.5431 311.6121 300.9305 314.1166 305 319 C312.4231 327.9078 316.0438 330.5898 324 336 C325.5621 337.0622 327.6087 336.7358 330 336 C333.2804 334.9906 334.1827 334.4859 337 332 C342.2726 327.3477 345.6886 325.6627 347 321 C348.9671 314.0059 347.3627 309.8795 346 300 C345.4576 296.0675 345.0209 294.4251 343 292 C341.1074 289.7289 336 288 336 288 "/>
<path id="5" d="M368 285 C368 285 362.8441 283.2907 361 284 C358.6841 284.8907 355.972 287.084 355 290 C352.327 298.019 351.7032 302.0957 352 311 C352.1297 314.8912 353.3691 317.6614 356 320 C360.4335 323.9409 363.4055 324.8018 370 327 C372.8262 327.9421 374.2229 327.9257 377 327 C382.1575 325.2808 385.537 324.0314 388 321 C389.9168 318.6409 390.4203 314.9931 390 311 C389.5955 307.1571 388.4772 305.9635 386 302 C383.6844 298.295 383.2653 297.2449 380 295 C376.1496 292.3528 370 291 370 291 "/>
<path id="6" d="M398 251 C398 251 393.9328 250.7575 392 252 C388.176 254.4583 387.0041 255.7442 384 260 C381.3973 263.6871 380.4465 264.8325 380 269 C379.1053 277.3508 378.4025 282.6195 381 288 C383.1699 292.4949 387.8272 295.284 394 298 C398.4132 299.9418 402.8 300.28 406 299 C409.2 297.72 412.4703 294.0156 414 290 C415.5237 286.0003 415.7176 282.0597 414 278 C411.33 271.6892 408.4386 269.4386 403 264 C401.4772 262.4772 398 262 398 262 "/>
<path id="7" d="M285 279 C285 279 273.1597 279.437 263 281 C261.0381 281.3018 259.4282 282.058 259 283 C257.9397 285.3327 256.9126 288.7378 258 292 C261.0949 301.2848 262.5096 305.511 269 313 C273.6765 318.396 277.0359 319.4929 284 322 C287.818 323.3745 290.5414 322.7981 294 322 C295.277 321.7053 296.6469 320.2946 297 319 C297.7398 316.2875 297.7624 314.0494 297 311 C296.5474 309.1894 294 307 294 307 "/>
<path id="8" d="M272 243 C272 243 257.3633 243.1268 245 245 C242.0773 245.4428 240.541 246.0738 239 248 C235.681 252.1488 234.2667 254.3001 233 260 C231.575 266.4124 231.5192 269.0769 233 275 C234.0365 279.1462 235.5374 281.2664 239 284 C243.6863 287.6997 248.8593 290.1496 252 290 C254.0585 289.902 260 283 260 283 "/>
<path id="9" d="M257 250 C257 250 253.6923 236.2311 254 227 C254.0958 224.1245 255.3669 222.1543 258 220 C270.2795 209.9532 275.6332 206.1705 287 200 C288.5563 199.1551 291.6685 199.9644 293 201 C294.5061 202.1714 296 207 296 207 "/>
<path id="10" d="M231 284 C231 284 227.242 284.5509 226 286 C222.4432 290.1496 220.6389 292.381 219 298 C217.5994 302.802 217.8128 305.014 219 310 C220.0081 314.2342 221.0341 316.4048 224 319 C227.5418 322.0991 229.7372 322.747 235 324 C239.3171 325.0279 241.7215 325.0928 245 324 C247.1857 323.2714 249.0432 321.4604 250 319 C251.8984 314.1185 253.3085 310.2162 252 306 C249.948 299.388 241 290 241 290 "/>
<path id="11" d="M265 313 C265 313 259.5907 312.8865 258 314 C256.5126 315.0412 255.4846 317.0923 255 320 C253.6455 328.1268 251.9826 331.9479 254 338 C256.1696 344.5089 260.5765 349.7861 266 353 C270.0484 355.399 274.6589 354.8271 281 354 C284.6341 353.526 288.4191 351.5976 289 350 C290.5135 345.8379 290.5905 339.4223 289 332 C288.0028 327.3463 284.8963 323.5515 283 322 C282.4408 321.5425 278 323 278 323 "/>
<path id="12" d="M292 350 C292 350 291.7158 358.4317 294 363 C296.2026 367.4052 298.2304 369.2177 303 372 C308.9969 375.4982 310.7022 375.4796 318 377 C322.0943 377.853 324.2076 378.3227 327 377 C331.4254 374.9038 333.9972 372.7187 337 368 C340.0383 363.2255 341.956 358.3459 341 355 C339.5142 349.7997 335.387 345.8064 329 340 C325.3762 336.7056 319 335 319 335 "/>
<path id="13" d="M230 327 C230 327 219.8164 330.1836 215 335 C210.1836 339.8164 208.1192 343.9564 207 350 C206.2229 354.1966 207.53 357.7337 210 362 C212.0914 365.6125 214.2935 367.8595 218 369 C224.6829 371.0563 229.4633 371.9225 236 370 C243.1013 367.9114 244.4154 364.7788 252 359 C254.7405 356.912 255.6151 356.5719 257 354 C258.6341 350.9652 259.6582 347.6455 259 346 C258.0676 343.6689 251 339 251 339 "/>
<path id="14" d="M214 308 C214 308 212.5058 304.9411 211 304 C209.46 303.0375 208.2471 302.8395 206 303 C201.8315 303.2977 200.0375 303.1775 197 305 C193.9625 306.8225 191.8905 308.8831 191 312 C189.5693 317.0075 189.5793 320.3172 191 326 C192.167 330.668 194.2001 333.8001 197 336 C198.7752 337.3948 201.9625 337.6075 205 337 C208.0375 336.3925 210.4172 335.2159 212 333 C214.1355 330.0103 215 323 215 323 "/>
<path id="15" d="M209 297 C209 297 205.1887 282.654 206 274 C206.3415 270.3575 209.187 267.0093 212 265 C213.9723 263.5912 219.1612 263.1612 220 264 C223.9541 267.9541 232 285 232 285 "/>
<path id="16" d="M204 333 C204 333 197.1332 334.2001 192 337 C186.801 339.8358 183.5246 341.3963 182 345 C179.7034 350.4282 180.0525 361.9341 181 363 C181.8368 363.9414 191.9475 364.6947 198 363 C201.546 362.0071 204.1702 358.9735 206 356 C206.9208 354.5037 205.1105 351.5249 206 350 C207.4949 347.4373 213 344 213 344 "/>
<path id="17" d="M246 369 C246 369 241.6003 372.9986 241 376 C240.0396 380.8022 239.8 386.14 242 389 C246.4123 394.736 254.2419 400.038 261 402 C264.2163 402.9338 269.0838 400.8283 273 398 C276.2878 395.6255 277.7408 393.3172 279 389 C280.7911 382.8589 281.8407 379.062 280 374 C277.1417 366.1397 267 356 267 356 "/>
<path id="18" d="M308 183 C308 183 301.264 174.7149 298 167 C296.3184 163.0252 296.4753 160.9351 297 157 C297.2872 154.8463 298.0989 153.4786 300 152 C306.0712 147.2779 307.7744 144.6911 315 143 C328.7142 139.7903 342.4292 138.8999 347 141 C349.0191 141.9277 350.5846 150.6583 352 160 C353.0029 166.6195 353.7743 171.2118 352 174 C349.857 177.3675 344.4951 179.5257 338 182 C335.333 183.016 331.2732 182.3187 331 182 C330.7203 181.6737 332 175 332 175 "/>
<path id="19" d="M334 137 C334 137 331.0245 136.366 330 135 C324.6212 127.8283 322.3725 125.278 319 117 C317.6499 113.6861 318.4403 112.1974 319 108 C319.3897 105.0774 319.5595 103.0803 321 102 C325.0998 98.9252 328.1282 97.5032 335 96 C343.1761 94.2115 347.7996 93.1427 353 95 C357.1055 96.4663 360.6847 101.1378 363 106 C364.4689 109.0847 364.0833 111.6669 363 116 C361.3209 122.7163 360.409 123.5229 357 130 C355.5883 132.6822 354.7158 134.1421 353 135 C351.4162 135.7919 347 135 347 135 "/>
<path id="20" d="M312 111 C312 111 306.7807 106.5401 303 106 C298.441 105.3487 295.597 105.8014 291 108 C285.57 110.597 283.6408 112.519 280 117 C278.2493 119.1546 278.361 120.5701 278 124 C277.3991 129.7081 276.4022 131.7392 278 136 C280.0472 141.4592 282.8939 145.5737 287 148 C290.4681 150.0493 295.8522 149.9217 300 149 C301.9837 148.5592 305 144 305 144 "/>
<path id="21" d="M288 153 C288 153 275.9004 161.1328 270 169 C267.1498 172.8002 265.8782 178.2464 267 181 C269.155 186.2895 277.3141 194.7714 281 196 C283.1339 196.7113 294 190 294 190 "/>
<path id="22" d="M361 161 C361 161 363.6364 155.1234 367 152 C369.7445 149.4516 371.1959 148.4639 375 148 C389.8447 146.1897 401.1995 146.6 408 147 C408.2429 147.0143 408.9373 148.5581 409 150 C409.412 159.4755 410.265 161.4616 409 170 C408.5198 173.2414 407.5362 175.2819 405 177 C394.4153 184.1703 389.7651 186.6301 378 191 C375.2127 192.0353 370 190 370 190 "/>
<path id="23" d="M397 244 L397 243 "/>
<path id="24" d="M398 243 L398 244 "/>
<path id="25" d="M343 357 C343 357 350.7777 364.8888 357 368 C359.5527 369.2764 361.9291 369.1516 365 368 C372.4374 365.211 374.0667 364.0424 381 359 C384.4107 356.5195 385.8929 355.1366 387 352 C388.2142 348.5598 388.5475 345.095 387 342 C383.905 335.81 375 328 375 328 "/>
<path id="26" d="M281 392 C281 392 289.1849 400.2235 296 403 C300.1979 404.7102 306.0757 404.6933 308 403 C313.1891 398.4336 321 381 321 381 "/>
<path id="27" d="M403 219 C403 219 402.2199 215.7831 403 214 C405.1941 208.985 406.2279 208.223 410 203 C412.6627 199.3132 412.8947 198.3289 416 196 C418.0702 194.4474 420.1199 195.6294 422 194 C426.5058 190.095 428.6261 188.3953 431 183 C433.3612 177.6336 433 169 433 169 "/>
<path id="28" d="M359 147 C359 147 361.3431 143.2077 364 142 C371.0409 138.7996 372.6077 137.9873 381 137 C397.2793 135.0848 402.4223 137.3598 415 136 C416.2259 135.8675 417.9961 132.9949 418 133 C418.036 133.048 418 140 418 140 "/>
<path id="29" d="M418 146 C418 146 433.0752 144.912 434 146 C435.4178 147.668 436.6536 159.1492 435 166 C434.0852 169.79 429.6915 170.2899 427 175 C424.1668 179.958 425.8325 181.6682 423 187 C417.6044 197.1564 416.9854 197.6861 410 207 C406.7127 211.383 404.5333 210.7778 402 215 C399.15 219.75 399.2289 221.1629 398 227 C397.3302 230.1817 397.8364 233.6727 398 234 C398.0117 234.0234 401 233 401 233 "/>
<path id="30" d="M427 191 C427 191 425.7715 186.3502 427 184 C435.6036 167.541 437.5904 164.6044 450 147 C458.8848 134.396 459.0418 132.9388 470 123 C479.6037 114.2897 486.866 113.3339 493 108 C493.7399 107.3566 493.838 104.3966 493 103 C490.419 98.6984 487.5617 95.9681 484 93 C483.3835 92.4863 481.5478 92.4771 481 93 C473.87 99.8059 470.5565 103.1399 462 114 C457.8335 119.2883 459.195 120.966 455 126 C449.6289 132.4454 448.6048 133.4967 442 138 C438.5559 140.3483 435.955 141.4433 433 141 C428.8871 140.3831 422 135 422 135 "/>
<path id="31" d="M406 219 C406 219 400.709 225.3846 399 231 C397.6696 235.3714 398.4193 236.7741 399 242 C399.3812 245.4311 399.387 246.3788 401 249 C402.8994 252.0866 407 255 407 255 "/>
<path id="32" d="M420 207 C420 207 423.0376 216.0376 428 221 C435.2181 228.2181 438.6587 226.8503 447 234 C452.0996 238.3711 455.6318 244.0426 456 245 C456.0118 245.0306 452 247 452 247 "/>
<path id="33" d="M447 241 C447 241 442.8842 240.2463 441 241 C439.2414 241.7034 438.0206 242.8019 437 245 C432.0901 255.5751 430.9551 257.1797 428 269 C426.1707 276.3173 425.6317 279.2986 427 285 C427.9273 288.8636 430.0129 290.611 434 294 C439.3887 298.5804 441.1177 299.2318 447 302 C448.4035 302.6605 449.7589 302.6683 451 302 C454.9618 299.8667 456.7244 298.9308 460 295 C463.6145 290.6626 464.4124 289.5567 466 284 C469.1396 273.0115 470.5295 270.0604 470 260 C469.6814 253.9459 467.952 251.0498 464 246 C460.1124 241.0325 452 237 452 237 "/>
<path id="34" d="M451 237 C451 237 454.5726 230.2805 456 224 C456.9088 220.0015 455.4406 215.5035 456 215 C456.6906 214.3785 462.6217 213.5312 466 215 C471.8606 217.5481 474.3774 219.4529 479 225 C483.4007 230.2808 483.699 232.4258 486 239 C486.8393 241.3979 486.596 243.4107 486 245 C485.6896 245.8278 484.3388 246.8425 483 247 C477.2065 247.6816 469 247 469 247 "/>
<path id="35" d="M457 207 C457 207 448.2319 199.3146 441 196 C438.2505 194.7398 434.9153 194.8508 433 196 C430.0313 197.7812 426.6791 201.3327 426 205 C424.8372 211.2793 425.3123 218.0086 428 223 C430.0374 226.7838 434.2288 228.9224 440 231 C445.1817 232.8654 451.1797 231.5799 453 232 C453.0635 232.0147 453 234 453 234 "/>
<path id="36" d="M441 229 C441 229 431.8872 223.4608 430 224 C427.4086 224.7404 423.665 229.5025 420 235 C418.2712 237.5931 417.6757 239.4059 418 242 C418.4564 245.651 420.2985 250.0429 422 251 C424.253 252.2673 429.8955 252.4366 434 251 C437.5743 249.749 439.7525 246.8093 442 244 C442.5032 243.371 442 241 442 241 "/>
<path id="37" d="M403 227 C403 227 401.3126 240.0022 402 251 C402.2351 254.7616 403.8991 258.5719 405 259 C407.6321 260.0236 415.608 260.196 420 258 C424.1087 255.9457 429 247 429 247 "/>
<path id="38" d="M405 181 C405 181 410.5142 182.0285 411 183 C412.2144 185.4288 413.1935 193.4882 412 195 C409.9099 197.6474 396 202 396 202 "/>
<path id="39" d="M358 175 C358 175 358.2387 188.2485 360 195 C360.347 196.3303 362.42 197.684 364 198 C365.9922 198.3984 370 197 370 197 "/>
<path id="40" d="M270 188 C270 188 266.5475 187.2263 265 188 C261.905 189.5475 260.0026 190.6206 258 194 C252.8034 202.7692 251.7954 206.2643 249 215 C248.5692 216.3462 249.7153 218.9525 250 219 C252.8756 219.4793 267 218 267 218 "/>
<path id="41" d="M281 139 C281 139 275.52 132.6436 271 131 C266.7983 129.4721 262.5576 129.2985 259 131 C254.1792 133.3056 251.9947 136.1255 248 142 C244.0918 147.7474 244.5655 148.9449 242 156 C240.6164 159.805 240 160.3248 240 164 C240 169.5127 239.9711 171.9421 242 176 C243.4827 178.9654 245.2652 180.1326 249 182 C256.4696 185.7348 266 188 266 188 "/>
<path id="42" d="M249 183 C249 183 246.2506 182.3747 245 183 C242.3424 184.3288 241.4957 185.2547 239 188 C236.6996 190.5304 235.691 191.2359 235 194 C234.0128 197.9487 233.488 201.354 235 204 C237.7001 208.7251 241.4415 212.7766 247 215 C253.2364 217.4946 263.065 216.3225 265 216 C265.0723 215.9879 265.2154 212.1231 265 212 C264.3404 211.6231 258 212 258 212 "/>
<path id="43" d="M241 213 C241 213 235.4596 212.326 232 214 C221.5034 219.079 216.5567 220.9389 210 228 C206.6264 231.6331 205.61 236.7355 206 242 C206.3826 247.1649 208.3857 250.6629 212 255 C214.5099 258.0119 216.721 259.2868 221 260 C232.8216 261.9703 242.6568 261.9212 248 261 C248.6044 260.8958 250 255 250 255 "/>
<path id="44" d="M485 95 C485 95 486.0609 90.1826 485 87 C482.9667 80.9001 482.5057 78.6666 478 74 C469.7278 65.4323 465.5578 66.8253 457 58 C450.4889 51.2854 449.5734 49.8557 446 41 C438.5258 22.4769 434 1 434 1 "/>
<path id="45" d="M452 4 C452 4 456.159 15.99 463 25 C476 42.1219 484.1395 42.771 493 58 C497.0679 64.9916 492.3886 70.0293 495 80 C497.592 89.8969 498.6396 90.972 504 100 C507.7939 106.3897 508.3381 107.1707 514 112 C524.7725 121.1883 525.426 122.3074 538 129 C555.6981 138.42 557.9982 138.9994 576 145 C580.1543 146.3848 582.758 146.3651 586 145 C590.0099 143.3116 591.5692 141.4399 595 137 C599.63 131.0082 601.2691 129.7312 603 123 C605.2914 114.089 604.862 111.7691 604 102 C603.4496 95.7621 603.1835 94.3058 600 89 C593.3436 77.906 591.5525 74.9416 583 67 C579.6378 63.8779 577.3367 64.0673 572 63 C567.9297 62.1859 565.9841 61.5079 563 63 C552.7213 68.1393 545.2441 71.6582 540 79 C536.6964 83.625 536.2707 91.467 538 98 C539.677 104.3353 543.3708 107.3708 549 113 C551.1651 115.1651 552.6404 115.4401 556 116 C560.9274 116.8212 562.4545 117.1364 567 116 C571.2356 114.9411 573.5035 113.8806 576 111 C578.6265 107.9694 579.0804 105.8278 580 101 C580.9399 96.0654 581.2653 91.6871 580 90 C578.3896 87.8528 572.2719 85.801 568 85 C566.803 84.7756 564.4833 86.1542 564 87 C563.4361 87.9868 564 92 564 92 "/>
<path id="46" d="M485 109 C485 109 509.0482 125.2574 529 144 C541.2919 155.547 542.7182 156.8723 551 171 C558.8953 184.4684 559.025 187.0937 563 202 C564.6272 208.102 563 216 563 216 "/>
<path id="47" d="M540 159 C540 159 538.6316 174.4735 535 189 C531.2231 204.1075 528.4552 203.9452 525 219 C521.5851 233.879 522.2105 234.5665 521 250 C520.2269 259.8573 518.9678 260.9228 521 270 C526.1169 292.8556 532.4356 307.1454 536 317 C536.0492 317.136 537.9429 317.1429 538 317 C539.6001 312.9997 539.545 304.2687 544 297 C547.5688 291.1771 552.194 292.0075 557 286 C561.4018 280.4978 562.7899 278.4538 564 272 C565.4077 264.4925 564.6097 262.5087 563 254 C561.218 244.581 558.5666 244.3995 557 235 C555.1854 224.1123 553.648 221.2119 556 212 C558.825 200.9354 569 188 569 188 "/>
<path id="48" d="M544 172 C544 172 541.1874 174.7514 541 177 C539.8935 190.2776 539.6073 193.7247 541 208 C541.4668 212.7847 542.2556 214.2 545 218 C548.0875 222.275 550.8236 222.1883 554 226 C554.9905 227.1886 555 230 555 230 "/>
<path id="49" d="M534 206 C534 206 530.7904 211.6645 530 217 C528.909 224.364 528.8186 225.4056 530 233 C532.2216 247.2818 535.2561 247.6127 537 262 C539.1688 279.8929 536.2065 281.4233 538 299 C538.5998 304.8782 542 311 542 311 "/>
<path id="50" d="M546 256 C546 256 551.7644 261.8981 558 267 C562.67 270.8209 567.9469 273.9764 568 274 C568.0094 274.0042 567 271 567 271 "/>
<path id="51" d="M539 246 C539 246 537.9733 244.0018 538 244 C538.4915 243.9672 554 245 554 245 "/>
<path id="52" d="M535 229 L553 229 "/>
<path id="53" d="M563 186 C563 186 574.0362 202.6905 583 220 C588.3877 230.4038 588.4397 230.8445 592 242 C595.8526 254.0716 596.2803 254.6756 598 267 C599.1981 275.586 599.3307 276.4247 598 285 C594.9397 304.7217 594.6678 305.61 589 325 C585.2876 337.7004 585.046 338.4577 579 350 C574.3441 358.8885 573.8925 360.3299 567 367 C559.3495 374.4037 556.3118 373.0181 548 380 C544.4664 382.9683 543.3071 383.892 542 388 C536.9155 403.9798 536.4516 406.2256 534 424 C532.5463 434.5391 532.9546 436.2427 534 446 C534.3004 448.8037 537 452 537 452 "/>
<path id="54" d="M451 130 C451 130 439.1478 115.2208 436 102 C432.5104 87.3435 437.7194 70.5399 436 67 C435.5944 66.1649 425.5127 69.228 419 67 C409.2511 63.6649 408.2377 60.8251 398 54 C390.293 48.862 388.5586 49.4272 383 43 C373.5622 32.0876 366.0009 16.9994 366 17 C365.928 17.048 363.1287 37.8468 365 55 C365.8773 63.0416 367.4577 64.3349 372 72 C383.1289 90.7801 390.3634 104.1015 397 109 C398.595 110.1772 406.1388 103.9248 414 103 C421.4433 102.1243 427.484 101.7084 431 105 C443.9146 117.0903 461 147 461 147 "/>
<path id="55" d="M432 102 C432 102 428.9029 97.3654 425 95 C413.2387 87.872 410.692 89.4949 399 82 C391.9534 77.4829 391.4584 76.5501 386 70 C379.3065 61.9678 378.7819 61.3248 374 52 C369.0302 42.309 368.4991 39.9254 366 31 C365.6 29.5713 367 27 367 27 "/>
<path id="56" d="M405 81 C405 81 399.1528 70.4585 396 61 C395.0404 58.1213 396 54 396 54 "/>
<path id="57" d="M415 77 L417 55 "/>
<path id="58" d="M407 92 L391 99 "/>
<path id="59" d="M388 81 C388 81 368.899 78.1498 350 75 C347.9809 74.6635 345.9987 74.0013 346 74 C346.003 73.997 352 73 352 73 "/>
<path id="60" d="M319 111 C319 111 322.6498 112.7743 323 114 C323.9298 117.2543 324.6953 121.6093 323 125 C319.6864 131.6273 316.4029 133.9528 310 140 C308.3764 141.5334 305 142 305 142 "/>
<path id="61" d="M336 142 C336 142 348.1661 147.2481 349 150 C350.6827 155.5528 348.2213 167.2254 346 175 C345.6196 176.3316 341 178 341 178 "/>
<path id="62" d="M354 213 C354 213 358.8345 209.8306 360 207 C361.5702 203.1866 361.0016 195.9981 361 196 C360.9964 196.0041 355.7469 210.9853 353 215 C352.616 215.5612 349.8463 214.1973 348 215 C339.7479 218.5879 338.441 222.2771 330 225 C324.8302 226.6677 317 225 317 225 C317 225 325.9272 226.615 333 226 C336.2272 225.7194 336.6456 223.5032 340 223 C345.8534 222.122 347.6065 224.3484 353 223 C358.186 221.7035 358.9551 220.2431 364 217 C365.6735 215.9241 366.7079 215.0224 367 214 C367.2813 213.0154 366 210 366 210 "/>
<path id="63" d="M342 275 C342 275 348.2757 275.5032 353 274 C358.3884 272.2855 359.2037 271.5341 364 268 C368.3216 264.8157 370.4998 263.0004 372 260 C372.6876 258.6248 371 254 371 254 "/>
<path id="64" d="M376 333 C376 333 371.0242 334.1246 369 333 C364.2126 330.3403 362.8438 325.4219 358 323 C355.2753 321.6377 351.7247 321.6377 349 323 C344.1562 325.4219 341.0271 328.11 338 333 C335.7961 336.5601 335.7625 340.6751 336 344 C336.0703 344.9843 339 347 339 347 "/>
<path id="65" d="M393 324 C393 324 402.8433 327.7558 407 327 C409.8648 326.4791 413.5387 323.361 415 320 C417.3527 314.5889 418.4454 309.6007 417 304 C415.3589 297.6408 407 289 407 289 "/>
<path id="66" d="M387 247 L374 248 "/>
<path id="67" d="M426 307 C426 307 435.8433 310.7558 440 310 C442.8648 309.4791 446.6864 305.6273 448 303 C448.7762 301.4475 447 296 447 296 "/>
<path id="68" d="M434 310 C434 310 421.8676 312.9056 419 312 C417.6975 311.5887 415 304 415 304 "/>
<path id="69" d="M410 330 C410 330 412.9079 337.5357 412 340 C410.7929 343.2763 407.1845 347.1807 403 349 C398.3224 351.0337 394.9534 350.5953 389 350 C386.3017 349.7302 383 347 383 347 "/>
<path id="70" d="M327 378 C327 378 332.8221 382.8904 338 384 C345.1648 385.5353 348.6558 385.3792 355 384 C357.6448 383.425 360.0781 381.151 361 379 C362.0958 376.4431 361 370 361 370 "/>
<path id="71" d="M313 402 C313 402 320.2746 406.7772 327 408 C335.4675 409.5395 338.1706 409.898 346 408 C352.5682 406.4077 357.3185 403.2561 360 400 C361.2358 398.4994 360 391 360 391 "/>
<path id="72" d="M365 394 C365 394 370.2773 393.2909 374 391 C382.5808 385.7195 386.9968 384.1102 391 378 C393.8709 373.6181 394.1501 366.4089 393 362 C392.3248 359.4116 385 355 385 355 "/>
<path id="73" d="M221 372 C221 372 217.1924 372.4868 217 373 C215.7876 376.2331 214.464 382.3724 215 388 C215.2309 390.4247 216.8316 392.0726 219 394 C220.5746 395.3997 221.6043 395.7478 224 396 C230.437 396.6776 231.8577 396.9213 238 396 C240.8298 395.5755 242.1051 395.0212 244 393 C248.7097 387.9763 253 380 253 380 "/>
<path id="74" d="M196 365 C196 365 179.6623 372.9481 170 381 C167.175 383.3542 166.541 385.8524 166 390 C165.212 396.0414 166.1878 403.6359 167 404 C170.0755 405.3787 182.7844 405.3835 195 403 C201.224 401.7856 203.201 400.4299 208 396 C215.0753 389.469 221 379 221 379 "/>
</g>
</g>
</svg>
