<?xml version="1.0" encoding="utf-8"?>
<!DOCTYPE svg PUBLIC "-//W3C//DTD SVG 1.1//EN" "http://www.w3.org/Graphics/SVG/1.1/DTD/svg11.dtd">
<svg viewBox="0 0 800 800" preserveAspectRatio="xMinYMin meet" xmlns="http://www.w3.org/2000/svg" version="1.1">
<g fill="none" stroke="black" stroke-linecap="round" stroke-linejoin="round" stroke-width="1.3681">
<g transform="translate(154.4017,87.52) scale(2.1928) translate(-177,-36.1333)">
<path id="0" d="M244 242.1333 C244 242.1333 231.4841 243.1817 221 242.1333 C217.6724 241.8006 216.7925 241.2277 214 239.1333 C207.3584 234.1522 206.6122 233.6435 201 227.1333 C194.3871 219.4624 193.8543 219.0329 189 210.1333 C182.084 197.454 179.7738 196.0778 177 183.1333 C174.2798 170.439 175.8335 168.3644 177 154.1333 C178.3036 138.229 176.4954 135.6102 182 122.1333 C189.8914 102.813 193.3388 101.954 206 83.1333 C211.6815 74.6879 211.7853 74.1802 219 67.1333 C232.9605 53.4975 234.2196 52.4131 249 41.1333 C252.0513 38.8047 253.1168 38.4367 257 38.1333 C283.4826 36.0644 286.8282 35.0275 313 36.1333 C320.1198 36.4342 321.7799 37.3406 328 41.1333 C341.1631 49.1596 343.0225 50.1559 354 61.1333 C362.1138 69.2471 362.261 70.6801 368 81.1333 C376.0192 95.7397 376.8202 96.2703 382 112.1333 C392.6121 144.6329 392.8555 146.0431 400 179.1333 C402.1383 189.0371 403.7186 191.8687 401 200.1333 C392.6416 225.5427 385.4891 246.5513 375 255.1333 C369.2115 259.8694 335 254.1333 335 254.1333 C335 254.1333 336.9905 254.081 337 254.1333 C337.5851 257.3515 338.4763 265.1349 339 276.1333 C339.973 296.5658 342.5006 314.4403 340 317.1333 C337.6197 319.6967 319.7446 316.7716 300 318.1333 C291.0283 318.7521 290.7767 321.1333 282 321.1333 C257.1326 321.1333 233.1368 321.4911 231 318.1333 C226.6169 311.2456 233 244.1333 233 244.1333 "/>
<path id="1" d="M270 275.1333 C270 275.1333 271.0757 288.4575 269 300.1333 C267.2486 309.9851 262 320.1333 262 320.1333 "/>
<path id="2" d="M307 279.1333 L310 319.1333 "/>
<path id="3" d="M336 145.1333 C336 145.1333 328.709 144.0816 327 145.1333 C325.3056 146.1761 324.2856 149.0195 323 153.1333 C319.4039 164.6408 318.0881 165.708 317 177.1333 C316.2113 185.4145 317.06 187.3734 319 195.1333 C319.734 198.0695 320.8316 199.2059 323 201.1333 C324.5746 202.533 327.4306 203.5433 328 203.1333 C333.5025 199.1716 339.9151 193.2394 348 183.1333 C350.9645 179.4278 352 177.4166 352 173.1333 C352 163.2818 351.395 160.3182 348 150.1333 C345.8142 143.5759 343.6546 141.7847 340 137.1333 C339.3638 136.3237 337 136.1333 337 136.1333 "/>
<path id="4" d="M238 146.1333 C238 146.1333 233.7259 145.4074 233 146.1333 C229.9512 149.1821 226.3805 153.0936 225 159.1333 C222.9519 168.0939 223.3575 171.2785 225 181.1333 C226.1199 187.8525 227.4933 189.8733 231 195.1333 C232.5585 197.4711 236.7548 199.3331 237 199.1333 C240.7741 196.0581 250.7897 184.1205 258 173.1333 C259.0875 171.4762 259.0335 169.1314 258 167.1333 C252.702 156.8904 249.8845 151.6165 243 144.1333 C241.2489 142.23 235 142.1333 235 142.1333 "/>
</g>
</g>
</svg>
