<?xml version="1.0" encoding="utf-8"?>
<!DOCTYPE svg PUBLIC "-//W3C//DTD SVG 1.1//EN" "http://www.w3.org/Graphics/SVG/1.1/DTD/svg11.dtd">
<svg viewBox="0 0 800 800" preserveAspectRatio="xMinYMin meet" xmlns="http://www.w3.org/2000/svg" version="1.1">
<g fill="none" stroke="black" stroke-linecap="round" stroke-linejoin="round" stroke-width="0.41283">
<g transform="translate(163.8233,87.52) scale(7.267) translate(-290,-86)">
<path id="0" d="M315 86 C315 86 306.0339 85.5729 303 88 C296.8876 92.89 293.1777 98.3206 290 106 C288.5611 109.4773 288.988 114.5089 291 117 C296.3085 123.5725 309.0572 126.2859 311 132 C314.0283 140.9067 307.0213 157.2129 308 167 C308.1608 168.6077 312.1586 171.1257 315 172 C316.8942 172.5828 318.735 172.2457 321 171 C327.7431 167.2913 333.2045 165.4887 335 161 C338.5449 152.1376 334.9218 136.1155 337 131 C337.4363 129.926 345.8791 131.0031 348 129 C351.483 125.7105 353.21 121.1602 355 114 C356.3893 108.4428 355.8984 106.69 355 101 C354.5526 98.1665 353.9256 96.3479 352 95 C345.9557 90.769 343.3097 89.2663 335 87 C327.9506 85.0774 319 86 319 86 "/>
<path id="1" d="M308 101 C308 101 308.3262 109.0708 310 112 C310.8862 113.5508 315.9899 115.0176 316 115 C316.426 114.2545 318.5567 100.0041 318 98 C317.9003 97.6412 311 97 311 97 "/>
<path id="2" d="M339 100 C339 100 337.1096 102.6975 337 105 C336.6567 112.2087 337.2405 118.9746 338 121 C338.087 121.2319 342.0132 121.5639 343 121 C343.8458 120.5167 344.9015 118.7729 345 117 C345.3341 110.9864 344 103 344 103 "/>
</g>
</g>
</svg>
