<?xml version="1.0" encoding="utf-8"?>
<!DOCTYPE svg PUBLIC "-//W3C//DTD SVG 1.1//EN" "http://www.w3.org/Graphics/SVG/1.1/DTD/svg11.dtd">
<svg viewBox="0 0 800 800" preserveAspectRatio="xMinYMin meet" xmlns="http://www.w3.org/2000/svg" version="1.1">
<g fill="none" stroke="black" stroke-linecap="round" stroke-linejoin="round" stroke-width="1.0465">
<g transform="translate(180.6906,87.52) scale(2.8668) translate(-212,-134.1333)">
<path id="0" d="M223 218.1333 C223 218.1333 224.1878 212.8288 223 209.1333 C220.1106 200.144 216.8819 199.565 214 190.1333 C211.6665 182.4964 209.8202 177.9289 212 173.1333 C217.0123 162.1063 222.6287 158.2382 234 146.1333 C237.4483 142.4626 238.3259 141.9427 243 140.1333 C253.0407 136.2466 254.3024 135.1058 265 134.1333 C280.6151 132.7138 283.0156 131.7192 298 135.1333 C320.4908 140.2578 321.5653 142.8143 344 152.1333 C353.7896 156.1998 354.968 157.1611 363 162.1333 C364.2299 162.8947 364.9431 163.8817 365 165.1333 C365.3489 172.809 366.5592 175.9759 364 184.1333 C359.1363 199.6365 351.4872 201.0325 349 216.1333 C345.1877 239.2794 352.3609 246.5366 350 269.1333 C349.3378 275.4711 343.0163 277.4422 342 283.1333 C341.1131 288.0999 344.8082 290.4194 345 297.1333 C345.2852 307.1157 344.8373 315.7556 343 318.1333 C341.9739 319.4612 331.3204 320.7935 328 319.1333 C324.4506 317.3586 319.1409 306.0981 319 306.1333 C318.7242 306.2023 312.3264 323.1007 312 323.1333 C311.5685 323.1765 302.2268 308.7028 299 308.1333 C294.9968 307.4269 283.1089 316.5657 278 317.1333 C276.7615 317.2709 273.1211 311.0266 272 311.1333 C268.7449 311.4433 264.5949 316.6017 257 319.1333 C247.3989 322.3337 236.5517 323.2559 236 323.1333 C235.9665 323.1259 236.6363 317.8752 239 315.1333 C247.9235 304.7821 254.8273 302.8313 261 294.1333 C262.6859 291.7577 262.4768 286.8184 261 284.1333 C258.6298 279.8238 254.6351 279.6111 250 274.1333 C243.9246 266.9533 242.9823 266.3468 239 258.1333 C235.3741 250.6549 235.2834 249.6358 234 241.1333 C231.365 223.6767 231 205.1333 231 205.1333 "/>
<path id="1" d="M235 219.1333 C235 219.1333 235.1997 214.2429 237 211.1333 C240.1867 205.6291 241.904 202.0994 246 200.1333 C250.727 197.8644 254.9272 198.5183 262 199.1333 C265.2272 199.414 267.0003 200.0087 269 202.1333 C273.6864 207.1126 276.2828 209.646 278 216.1333 C280.0964 224.0532 279.2561 227.3406 278 236.1333 C277.4617 239.9016 274.8822 244.0799 274 244.1333 C268.3673 244.4747 256.7983 241.9504 245 238.1333 C242.4766 237.3169 241.1442 235.7079 240 233.1333 C237.7291 228.0239 237 220.1333 237 220.1333 "/>
<path id="2" d="M333 208.1333 C333 208.1333 322.1201 206.6133 313 208.1333 C305.2479 209.4253 302.4059 210.0248 297 214.1333 C292.0358 217.9061 290.4264 221.2022 288 227.1333 C286.6909 230.3332 286.6886 233.5105 288 236.1333 C289.9671 240.0675 292.7138 242.0717 297 245.1333 C298.5875 246.2673 299.9426 246.5665 302 246.1333 C316.9897 242.9776 330.0535 241.7972 335 237.1333 C337.9366 234.3646 337.6101 221.9801 337 213.1333 C336.8651 211.1773 333 208.1333 333 208.1333 "/>
<path id="3" d="M281 259.1333 C281 259.1333 277.6726 264.9771 277 270.1333 C276.3071 275.4452 277.3536 280.5821 278 282.1333 C278.0868 282.3416 280.8866 282.7519 282 282.1333 C284.165 280.9305 285.6642 279.5822 287 277.1333 C288.1315 275.059 287.987 271.1259 288 271.1333 C288.0629 271.1693 290.6129 277.972 294 281.1333 C296.8128 283.7586 302.8067 285.2622 303 285.1333 C303.2035 284.9977 304.7166 277.9125 303 275.1333 C296.6538 264.8585 282 251.1333 282 251.1333 "/>
<path id="4" d="M330 149.1333 C330 149.1333 324.2083 146.6542 319 146.1333 C314.8979 145.7231 312.2587 145.6275 310 147.1333 C307.1961 149.0026 306.1341 151.4078 304 156.1333 C299.332 166.4695 296.9817 176.0718 296 178.1333 C295.9982 178.1371 294 177.1333 294 177.1333 "/>
<path id="5" d="M305 163.1333 C305 163.1333 313.1437 161.8571 315 163.1333 C317.5177 164.8642 318.1306 169.8293 321 174.1333 C321.4463 174.8028 322.9149 175.19 323 175.1333 C323.1914 175.0057 324 172.1333 324 172.1333 "/>
<path id="6" d="M317 170.1333 L316 178.1333 "/>
<path id="7" d="M257 332.1333 C257 332.1333 264.4142 324.3316 266 324.1333 C266.9911 324.0094 270.47 329.8033 273 330.1333 C278.0741 330.7952 282.8891 327.1333 289 327.1333 C290.9097 327.1333 291.567 329.6654 294 330.1333 C303.3293 331.9274 305.2999 332.4462 315 332.1333 C319.6782 331.9824 323.121 328.6323 325 329.1333 C326.4024 329.5073 328.8557 332.9293 330 336.1333 C330.9117 338.6861 331.0752 341.6997 330 343.1333 C327.2352 346.8197 323.4256 350.8136 318 352.1333 C308.4406 354.4586 304.0949 354.3976 293 352.1333 C281.4432 349.7748 279.7395 347.9912 269 342.1333 C264.1274 339.4756 260 334.1333 260 334.1333 "/>
</g>
</g>
</svg>
