<?xml version="1.0" encoding="utf-8"?>
<!DOCTYPE svg PUBLIC "-//W3C//DTD SVG 1.1//EN" "http://www.w3.org/Graphics/SVG/1.1/DTD/svg11.dtd">
<svg viewBox="0 0 800 800" preserveAspectRatio="xMinYMin meet" xmlns="http://www.w3.org/2000/svg" version="1.1">
<g fill="none" stroke="black" stroke-linecap="round" stroke-linejoin="round" stroke-width="1.5601">
<g transform="translate(126.9406,87.52) scale(1.923) translate(-267,-88.1333)">
<path id="0" d="M314 164.1333 C314 164.1333 310.3979 164.6356 309 166.1333 C304.5127 170.9412 303.0903 172.4773 300 179.1333 C296.9675 185.6648 297.2277 186.7669 296 194.1333 C295.2947 198.3651 294.8672 199.735 296 203.1333 C297.3845 207.2869 298.515 208.4305 302 212.1333 C306.1428 216.5351 307.5295 219.0496 312 220.1333 C320.6119 222.2211 328.2584 223.2575 335 220.1333 C342.8569 216.4923 349.7652 208.8161 353 201.1333 C355.2099 195.8847 354.1973 185.6213 351 182.1333 C344.0299 174.5295 320 165.1333 320 165.1333 "/>
<path id="1" d="M454 160.1333 C454 160.1333 439.3838 159.0194 431 162.1333 C425.32 164.243 423.9658 167.2912 419 173.1333 C415.8964 176.7846 414.7517 177.924 414 182.1333 C412.5564 190.2176 412.0169 193.201 414 201.1333 C416.0092 209.17 417.847 211.5489 423 218.1333 C425.7955 221.7054 427.9179 223.453 432 224.1333 C443.0217 225.9703 446.2582 226.0446 459 224.1333 C475.2104 221.7018 486.0599 219.1516 492 215.1333 C493.5912 214.057 494.1347 205.899 493 201.1333 C492.3051 198.2146 488.9582 197.9274 487 194.1333 C481.3442 183.1753 483.1819 179.6871 477 170.1333 C473.3959 164.5633 470.3591 162.5693 465 160.1333 C461.761 158.661 455 160.1333 455 160.1333 "/>
<path id="2" d="M537 142.1333 C537 142.1333 534.2049 134.9726 530 131.1333 C523.7999 125.4723 522.313 125.4022 514 121.1333 C485.5316 106.5144 484.6004 101.7134 456 93.1333 C432.956 86.2201 429.9366 89.6958 404 88.1333 C388.6269 87.2072 384.6677 85.2812 373 88.1333 C366.7187 89.6688 366.3638 95.2469 359 99.1333 C349.2505 104.2789 346.9737 102.0186 337 107.1333 C328.153 111.6703 327.4242 112.3279 320 119.1333 C309.8581 128.4301 307.4012 129.3005 301 140.1333 C295.61 149.2549 297.8616 158.3522 294 163.1333 C292.0718 165.5207 285.9665 163.9352 280 166.1333 C277.4429 167.0754 276.1171 167.8992 275 170.1333 C270.5318 179.0698 268.2504 181.5939 267 192.1333 C264.9904 209.0712 263.1018 213.9321 268 229.1333 C276.1398 254.3948 283.9433 255.5377 296 282.1333 C300.5369 292.1411 298.5358 294.1257 302 304.1333 C302.7249 306.2276 303.3247 307.0672 305 308.1333 C307.9936 310.0383 311.6113 309.5903 313 311.1333 C314.0756 312.3284 312.6911 315.5156 314 318.1333 C316.1815 322.4962 319.6545 322.6484 321 327.1333 C324.9394 340.2648 324.8405 352.9982 326 358.1333 C326.0163 358.2055 327.9395 357.9821 328 358.1333 C331.0087 365.6552 333.2376 377.3544 340 393.1333 C341.6124 396.8956 346 400.1333 346 400.1333 "/>
<path id="3" d="M535 138.1333 C535 138.1333 544.3289 140.7945 547 144.1333 C549.945 147.8146 550.5594 151.3044 551 158.1333 C552.4832 181.1231 551.9287 182.2967 551 206.1333 C550.4367 220.5926 550.2587 220.9359 548 235.1333 C546.8019 242.6644 546.8037 243.0574 544 250.1333 C536.4374 269.2198 536.7908 271.8154 527 288.1333 C522.9781 294.8366 517.8807 293.8017 514 300.1333 C509.5927 307.3242 509.3676 309.7557 508 319.1333 C505.9945 332.8852 508.7619 335.0951 507 348.1333 C506.4835 351.9553 505.6571 352.9226 503 356.1333 C494.178 366.7932 492.9444 368.2938 483 377.1333 C480.5139 379.3432 479.4355 379.5608 476 380.1333 C468.1366 381.4439 467.2357 379.7134 459 381.1333 C438.5927 384.6518 432.7071 382.9088 418 390.1333 C409.7972 394.1628 409.887 404.3596 402 409.1333 C394.996 413.3726 390.912 412.1634 380 413.1333 C368.7735 414.1312 364.9458 414.9873 357 413.1333 C354.0175 412.4374 352.1311 409.6851 350 406.1333 C348.2495 403.2158 348 398.1333 348 398.1333 "/>
<path id="4" d="M341 298.1333 C341 298.1333 344.7543 301.634 348 302.1333 C356.0979 303.3792 357.9004 303.1733 367 302.1333 C374.8818 301.2326 374.9863 299.1918 383 298.1333 C401.1316 295.7386 402.3189 297.7118 420 295.1333 C425.4706 294.3355 425.5455 291.8676 431 291.1333 C450.5726 288.4986 468.4973 286.5101 472 288.1333 C472.9016 288.5511 473.2011 306.0151 472 310.1333 C471.7793 310.8899 468.434 311.6428 465 312.1333 C461.7007 312.6047 458.1957 312.5464 458 312.1333 C456.8228 309.6482 456 293.1333 456 293.1333 "/>
<path id="5" d="M462 310.1333 C462 310.1333 449.0642 313.732 448 313.1333 C447.2437 312.7079 447.8609 306.1844 446 301.1333 C444.7081 297.6268 441 294.1333 441 294.1333 "/>
<path id="6" d="M453 315.1333 C453 315.1333 429.7112 318.297 428 317.1333 C427.0648 316.4974 428.6532 304.9924 428 298.1333 C427.9247 297.3426 426 296.1333 426 296.1333 "/>
<path id="7" d="M429 317.1333 C429 317.1333 427.7883 319.0617 427 319.1333 C419.7742 319.7902 408.883 320.4783 407 319.1333 C405.8971 318.3456 406 304.1333 406 304.1333 "/>
<path id="8" d="M410 322.1333 C410 322.1333 390.5132 323.4304 389 322.1333 C387.8882 321.1804 389 304.1333 389 304.1333 "/>
<path id="9" d="M390 320.1333 C390 320.1333 371.1762 324.8614 370 324.1333 C369.2266 323.6545 369 307.1333 369 307.1333 "/>
<path id="10" d="M371 324.1333 C371 324.1333 355.701 326.8756 355 326.1333 C353.8802 324.9476 355.6171 314.5424 354 306.1333 C353.4579 303.3143 350 300.1333 350 300.1333 "/>
<path id="11" d="M353 324.1333 C353 324.1333 344.2062 324.5686 344 324.1333 C343.0812 322.1936 344 305.1333 344 305.1333 "/>
<path id="12" d="M346 355.1333 L346 373.1333 "/>
<path id="13" d="M349 357.1333 L353 357.1333 "/>
<path id="14" d="M360 355.1333 L360 366.1333 "/>
<path id="15" d="M364 355.1333 C364 355.1333 374.1706 354.2401 375 355.1333 C376.2877 356.5201 377 369.1333 377 369.1333 "/>
<path id="16" d="M375 356.1333 C375 356.1333 392.2038 348.9564 393 349.1333 C393.1184 349.1596 392.0024 356.3923 393 360.1333 C393.4595 361.8565 397 364.1333 397 364.1333 "/>
<path id="17" d="M395 350.1333 C395 350.1333 422.8005 343.1333 423 343.1333 C423.0356 343.1333 418.8896 346.9309 418 350.1333 C416.8335 354.3326 418 361.1333 418 361.1333 "/>
<path id="18" d="M406 349.1333 L411 360.1333 "/>
<path id="19" d="M423 345.1333 C423 345.1333 436.0417 342.6542 437 343.1333 C437.3317 343.2992 437 352.1333 437 352.1333 "/>
<path id="20" d="M437 341.1333 C437 341.1333 451.2554 340.0243 453 340.1333 C453.0137 340.1342 453 342.1333 453 342.1333 "/>
<path id="21" d="M457 356.1333 L453 349.1333 "/>
<path id="22" d="M456 343.1333 C456 343.1333 464.1333 342.44 465 343.1333 C465.7126 343.7034 464.7115 348.3415 466 351.1333 C467.1128 353.5444 471 356.1333 471 356.1333 "/>
<path id="23" d="M464 345.1333 C464 345.1333 471.7991 342.3327 473 343.1333 C475.8718 345.0479 481.5234 355.6082 482 357.1333 C482.0213 357.2014 480.0263 358.7177 478 359.1333 C461.3533 362.548 459.5219 360.8376 443 365.1333 C435.3989 367.1096 435.2282 371.3136 428 372.1333 C390.2643 376.4126 346 376.1333 346 376.1333 "/>
<path id="24" d="M369 221.1333 C369 221.1333 369.9017 233.3416 368 240.1333 C367.2425 242.8387 362.5086 243.9716 362 246.1333 C361.2774 249.2043 361.9287 254.4702 364 257.1333 C366.6946 260.5978 370.4144 263.0766 376 264.1333 C386.4801 266.1161 390.683 265.4646 401 264.1333 C403.6891 263.7864 406.4199 261.777 407 260.1333 C408.2327 256.6406 408.3356 249.4038 407 247.1333 C405.9847 245.4073 398.8158 245.6301 397 243.1333 C393.3976 238.18 393.7041 227.0803 391 225.1333 C388.2902 223.1823 372 225.1333 372 225.1333 "/>
</g>
</g>
</svg>
