<?xml version="1.0" encoding="utf-8"?>
<!DOCTYPE svg PUBLIC "-//W3C//DTD SVG 1.1//EN" "http://www.w3.org/Graphics/SVG/1.1/DTD/svg11.dtd">
<svg viewBox="0 0 800 800" preserveAspectRatio="xMinYMin meet" xmlns="http://www.w3.org/2000/svg" version="1.1">
<g fill="none" stroke="black" stroke-linecap="round" stroke-linejoin="round" stroke-width="1.9201">
<g transform="translate(162.5152,87.52) scale(1.5624) translate(-142,-52.1333)">
<path id="0" d="M338 56.1333 C338 56.1333 328.6494 57.1218 320 56.1333 C311.6115 55.1746 311.2991 52.3309 303 52.1333 C250.0958 50.8737 242.3079 48.9819 194 53.1333 C185.2054 53.8891 183.3372 57.2973 175 63.1333 C169.0036 67.3308 167.896 67.9942 164 74.1333 C152.0913 92.8986 149.1251 96.0252 142 115.1333 C139.3935 122.1236 140.5143 124.8559 142 133.1333 C143.837 143.3681 144.1098 144.5975 149 154.1333 C163.7011 182.8005 164.321 183.9348 182 211.1333 C189.9663 223.3891 190.4473 224.9571 201 234.1333 C212.3056 243.9643 215.3608 242.1053 228 251.1333 C232.4283 254.2964 232.8959 254.8353 236 259.1333 C239.0666 263.3794 239.5324 263.9968 241 269.1333 C246.3384 287.8176 248.351 288.8406 250 308.1333 C253.2377 346.014 248.2759 351.1094 251 386.1333 C251.435 391.7256 255.6035 392.1283 257 398.1333 C260.3289 412.4475 256.2372 417.2263 261 429.1333 C264.7109 438.4106 269.5929 445.3405 277 448.1333 C291.8718 453.7407 299.5605 450.5305 322 452.1333 C327.4506 452.5227 327.8893 453.0916 333 452.1333 C343.2796 450.2059 345.0213 450.3421 354 446.1333 C359.7384 443.4435 361.5896 441.5931 365 437.1333 C366.8665 434.6925 366.8848 433.05 367 429.1333 C368.3441 383.4344 364.4584 380.4661 368 335.1333 C369.3064 318.4112 371.4834 317.683 377 301.1333 C384.4051 278.918 383.0045 277.2045 394 257.1333 C413.8407 220.9161 418.8142 221.5787 440 186.1333 C444.2129 179.0848 444.808 177.8813 446 170.1333 C447.62 159.6031 448.3005 157.4855 446 147.1333 C441.688 127.7292 440.3089 125.7452 432 107.1333 C428.2434 98.7185 427.1265 98.3943 421 91.1333 C413.8512 82.6607 413.8206 81.0138 405 75.1333 C388.0203 63.8135 384.9701 59.3124 367 55.1333 C346.7763 50.4301 319 55.1333 319 55.1333 "/>
<path id="1" d="M252 172.1333 C252 172.1333 246.4023 176.8991 243 182.1333 C240.2954 186.2943 240.072 187.3095 239 192.1333 C238.2124 195.6773 237.7825 197.5631 239 200.1333 C241.3228 205.0371 242.944 207.5219 248 211.1333 C255.6269 216.5811 257.9395 217.8682 267 220.1333 C274.2484 221.9454 275.9711 221.2803 284 220.1333 C292.8385 218.8707 295.2101 218.7894 302 215.1333 C306.2153 212.8636 308.4703 210.1489 310 206.1333 C311.5237 202.1336 311.3114 198.0675 310 194.1333 C309.1257 191.5105 307.3192 190.4423 304 188.1333 C296.1843 182.6963 295.5329 181.4948 287 178.1333 C279.9983 175.3751 279.0218 176.1888 271 175.1333 C260.1068 173.7 257.5972 172.5192 249 173.1333 C246.5276 173.3099 243 177.1333 243 177.1333 "/>
<path id="2" d="M368 175.1333 C368 175.1333 360.5335 174.9199 355 177.1333 C346.5795 180.5015 338 187.1333 338 187.1333 "/>
<path id="3" d="M335 189.1333 C335 189.1333 330.96 193.2134 329 197.1333 C327.8418 199.4497 328 203.1333 328 203.1333 "/>
<path id="4" d="M327 209.1333 C327 209.1333 326.1874 214.7996 327 219.1333 C327.5332 221.9773 328.0147 223.4984 330 225.1333 C335.1471 229.3721 338.0758 231.7662 344 233.1333 C348.3138 234.1288 350.9636 233.3997 356 231.1333 C369.7427 224.9491 377.5607 221.1127 384 215.1333 C385.3952 213.8378 384.894 209.6033 384 205.1333 C383.0345 200.3058 382.5865 199.2717 380 195.1333 C377.9826 191.9054 377.3385 191.0251 374 189.1333 C363.2624 183.0487 350 178.1333 350 178.1333 "/>
<path id="5" d="M308 248.1333 C308 248.1333 309.0641 252.2416 308 254.1333 C301.5932 265.5231 293.9513 269.0202 290 280.1333 C287.7696 286.4064 289.6129 294.7264 292 299.1333 C293.3025 301.538 297.7344 303.5258 303 304.1333 C321.7007 306.2911 341.3527 306.8053 344 305.1333 C344.8387 304.6036 344.8557 290.6859 341 280.1333 C336.1469 266.8513 325 253.1333 325 253.1333 "/>
<path id="6" d="M270 352.1333 C270 352.1333 268.848 374.5152 270 377.1333 C270.223 377.6402 280.7107 377.6541 281 377.1333 C281.8259 375.6468 280 359.1333 280 359.1333 "/>
<path id="7" d="M280 359.1333 C280 359.1333 278.9538 370.9026 280 376.1333 C280.2338 377.3026 282.1794 378.5871 284 379.1333 C286.2294 379.8021 288.4751 380.0229 290 379.1333 C292.5627 377.6384 295.6186 374.5491 296 372.1333 C296.5532 368.6296 293 360.1333 293 360.1333 "/>
<path id="8" d="M295 361.1333 C295 361.1333 293.9519 376.0371 295 378.1333 C295.3391 378.8115 299.5158 378.7884 304 379.1333 C305.9761 379.2853 307.9765 379.2392 308 379.1333 C308.4765 376.9892 308 361.1333 308 361.1333 "/>
<path id="9" d="M309 364.1333 C309 364.1333 309.6059 379.3103 311 381.1333 C311.6329 381.9609 318.7335 382.2222 322 381.1333 C323.6828 380.5724 325.0978 378.3889 326 376.1333 C326.6835 374.4246 326.7246 373.0657 326 371.1333 C324.0798 366.0127 320 360.1333 320 360.1333 "/>
<path id="10" d="M323 362.1333 C323 362.1333 323.716 371.5653 326 376.1333 C327.0315 378.1963 329.2294 379.3417 332 380.1333 C335.1031 381.0199 339.0614 380.7591 340 380.1333 C340.5867 379.7422 341.5053 375.9862 341 374.1333 C340.4626 372.1628 338.0143 371.669 337 369.1333 C335.3403 364.984 335 359.1333 335 359.1333 "/>
<path id="11" d="M337 360.1333 C337 360.1333 340.4375 376.2693 343 379.1333 C344.035 380.2901 353.2667 379.9278 354 379.1333 C355.0056 378.044 356.5218 369.7856 355 366.1333 C353.1154 361.6103 344 355.1333 344 355.1333 "/>
<path id="12" d="M264 398.1333 C264 398.1333 262.8211 386.8873 265 382.1333 C266.6659 378.4987 270.709 376.774 275 374.1333 C275.8626 373.6025 277.9942 374.0872 278 374.1333 C278.3692 377.0872 278 398.1333 278 398.1333 "/>
<path id="13" d="M279 401.1333 C279 401.1333 279.3231 387.4871 282 382.1333 C283.2405 379.6523 288.0934 377.5209 291 377.1333 C292.6838 376.9088 296.7701 379.0606 297 380.1333 C298.3409 386.3911 297 405.1333 297 405.1333 "/>
<path id="14" d="M299 401.1333 C299 401.1333 298.6875 391.6959 300 385.1333 C300.3727 383.2699 302.5822 381.1333 303 381.1333 C303.8355 381.1333 308.3482 383.3641 309 385.1333 C310.613 389.5113 310 400.1333 310 400.1333 "/>
<path id="15" d="M316 403.1333 C316 403.1333 313.4081 400.4461 313 398.1333 C312.1143 393.1142 311.9394 390.641 313 386.1333 C313.5251 383.9016 315.3458 382.3149 317 381.1333 C317.6554 380.6652 318.8672 380.7557 320 381.1333 C321.3845 381.5948 322.818 382.3145 323 383.1333 C324.1069 388.1144 322.155 392.8077 324 399.1333 C325.1041 402.919 330 407.1333 330 407.1333 "/>
<path id="16" d="M329 407.1333 C329 407.1333 329.9415 402.781 329 401.1333 C327.0273 397.6811 321.5907 395.9686 321 393.1333 C320.0605 388.6239 322.5957 378.638 324 377.1333 C324.6922 376.3917 334.2492 376.9822 335 378.1333 C337.2602 381.599 339 400.1333 339 400.1333 "/>
<path id="17" d="M344 403.1333 C344 403.1333 342.7233 395.9634 344 392.1333 C345.0446 388.9997 348.249 386.3007 350 385.1333 C350.383 384.878 352.9197 385.7854 353 386.1333 C353.5694 388.6006 351.6796 394.9266 353 398.1333 C353.8673 400.2397 360 403.1333 360 403.1333 "/>
</g>
</g>
</svg>
