<?xml version="1.0" encoding="utf-8"?>
<!DOCTYPE svg PUBLIC "-//W3C//DTD SVG 1.1//EN" "http://www.w3.org/Graphics/SVG/1.1/DTD/svg11.dtd">
<svg viewBox="0 0 800 800" preserveAspectRatio="xMinYMin meet" xmlns="http://www.w3.org/2000/svg" version="1.1">
<g fill="none" stroke="black" stroke-linecap="round" stroke-linejoin="round" stroke-width="0.78245">
<g transform="translate(116.2758,87.52) scale(3.8341) translate(-116,-116.1333)">
<path id="0" d="M118 183.1333 C118 183.1333 117.4848 172.7294 119 163.1333 C120.4123 154.1887 120.3897 153.2565 124 145.1333 C128.0864 135.939 128.5563 134.0544 135 127.1333 C140.9087 120.787 143.7563 117.4396 151 116.1333 C169.1257 112.8648 174.9417 114.6292 196 116.1333 C201.2813 116.5106 201.6633 119.066 207 120.1333 C211.0703 120.9474 212.1205 119.1213 216 120.1333 C222.7095 121.8836 223.623 122.5289 230 126.1333 C234.7509 128.8186 235.6872 129.3109 239 133.1333 C241.5667 136.0949 241.2295 137.0477 243 141.1333 C247.7111 152.0051 248.6126 152.2936 252 163.1333 C253.4079 167.6385 253 173.1333 253 173.1333 "/>
<path id="1" d="M120 166.1333 C120 166.1333 118.644 176.2013 118 178.1333 C117.9661 178.235 116.0004 178.1229 116 178.1333 C115.7504 184.1229 115.1573 203.3803 116 226.1333 C116.1066 229.0126 116.4812 229.602 118 232.1333 C122.2188 239.1647 123.0927 241.226 128 246.1333 C129.6358 247.7691 131.2629 248.1333 134 248.1333 C142.6676 248.1333 153 246.1333 153 246.1333 "/>
<path id="2" d="M155 244.1333 C155 244.1333 162.1007 245.6931 166 244.1333 C172.3807 241.581 179.9665 234.0974 180 234.1333 C180.2734 234.4262 178.6603 248.0806 180 259.1333 C180.4547 262.8846 181.4118 264.9538 184 267.1333 C189.2399 271.5459 191.5444 272.6481 199 275.1333 C205.6115 277.3372 214 277.1333 214 277.1333 "/>
<path id="3" d="M251 175.1333 C251 175.1333 253.709 177.8053 254 180.1333 C255.4686 191.882 255 207.1333 255 207.1333 "/>
<path id="4" d="M254 208.1333 C254 208.1333 257.4761 226.8888 257 227.1333 C254.1813 228.5808 236.0967 225.9875 217 227.1333 C212.1399 227.4249 211.2384 228.0141 207 230.1333 C203.8673 231.6997 202.906 232.5125 201 235.1333 C199.4826 237.2198 198.6424 240.2393 199 241.1333 C199.4401 242.2337 202.3187 244.8083 205 245.1333 C216.1639 246.4865 222.2111 244.4582 232 245.1333 C232.7751 245.1868 233.2217 247.0757 234 247.1333 C243.0572 247.8042 252.4934 247.6338 259 247.1333 C259.3003 247.1102 260 245.1333 260 245.1333 "/>
<path id="5" d="M260 254.1333 C260 254.1333 263.2507 258.8246 264 263.1333 C265.082 269.3548 265.1389 275.6148 264 277.1333 C263.1052 278.3265 257.9446 278.9384 252 279.1333 C227.8582 279.9249 209.1148 279.3829 203 279.1333 C202.9898 279.1329 203.1 277.1833 203 277.1333 C202.6 276.9333 199 277.1333 199 277.1333 "/>
<path id="6" d="M259 245.1333 L262 254.1333 "/>
<path id="7" d="M257 236.1333 L204 236.1333 "/>
<path id="8" d="M205 230.1333 L206 242.1333 "/>
<path id="9" d="M212 228.1333 L214 247.1333 "/>
<path id="10" d="M221 229.1333 L222 247.1333 "/>
<path id="11" d="M228 229.1333 L229 248.1333 "/>
<path id="12" d="M236 228.1333 L236 244.1333 "/>
<path id="13" d="M245 227.1333 L247 252.1333 "/>
<path id="14" d="M251 230.1333 L253 248.1333 "/>
<path id="15" d="M259 229.1333 C259 229.1333 261.7007 238.0456 262 243.1333 C262.0608 244.1678 260 246.1333 260 246.1333 "/>
<path id="16" d="M232 185.1333 C232 185.1333 230.821 205.8735 232 208.1333 C232.321 208.7485 244 208.1333 244 208.1333 "/>
<path id="17" d="M233 184.1333 C233 184.1333 236.7707 184.5475 237 185.1333 C239.141 190.6047 242 207.1333 242 207.1333 "/>
<path id="18" d="M231 159.1333 C231 159.1333 229.9616 165.2257 231 168.1333 C231.7829 170.3256 233.8077 172.3504 236 173.1333 C238.9076 174.1718 244.4965 173.6927 245 173.1333 C245.6215 172.4427 245.9622 166.5012 245 163.1333 C244.5051 161.4013 242.7485 159.7162 241 159.1333 C238.3772 158.2591 233 159.1333 233 159.1333 "/>
<path id="19" d="M210 166.1333 C210 166.1333 207.4543 160.4796 206 160.1333 C201.5095 159.0642 190.1287 159.8719 189 161.1333 C187.7468 162.534 187.8372 174.2494 189 179.1333 C189.2707 180.2703 191.7175 181.848 194 182.1333 C202.0683 183.1419 211.3118 183.5804 213 182.1333 C214.5486 180.806 215 164.1333 215 164.1333 "/>
<path id="20" d="M201 241.1333 C201 241.1333 198.1657 241.7162 197 241.1333 C195.2515 240.2591 193.4595 238.8565 193 237.1333 C192.0024 233.3923 193.7282 229.2888 193 226.1333 C192.8218 225.361 190.4203 225.1421 190 224.1333 C188.5989 220.7708 187.9978 214.1329 188 214.1333 C188.005 214.1343 191.4695 221.855 195 225.1333 C196.8165 226.8201 200.8513 225.9846 202 227.1333 C202.8935 228.0268 203 233.1333 203 233.1333 "/>
<path id="21" d="M198 152.1333 L234 152.1333 "/>
</g>
</g>
</svg>
