<?xml version="1.0" encoding="utf-8"?>
<!DOCTYPE svg PUBLIC "-//W3C//DTD SVG 1.1//EN" "http://www.w3.org/Graphics/SVG/1.1/DTD/svg11.dtd">
<svg viewBox="0 0 800 800" preserveAspectRatio="xMinYMin meet" xmlns="http://www.w3.org/2000/svg" version="1.1">
<g fill="none" stroke="black" stroke-linecap="round" stroke-linejoin="round" stroke-width="1.5505">
<g transform="translate(99.1292,87.52) scale(1.9349) translate(-97,-66)">
<path id="0" d="M200 72 C200 72 189.082 74.1508 181 79 C170.1311 85.5213 168.9323 86.5976 160 96 C150.5359 105.9622 149.4213 107.3249 143 119 C139.0797 126.1277 138.9458 127.6767 138 136 C136.5464 148.7918 135.9805 150.6303 138 163 C139.7433 173.6774 140.4331 175.7932 146 185 C152.6137 195.9381 153.9997 197.0524 164 206 C181.8976 222.0136 191.1731 225.3861 203 236 C203.805 236.7225 203.9042 239.6171 203 241 C197.1922 249.8825 193.5495 251.0189 186 262 C177.2235 274.7658 175.7516 275.4838 170 289 C166.308 297.6763 166.3198 299.246 166 309 C165.3497 328.8337 166.3188 330.6666 168 350 C168.2113 352.4294 168.4434 353.4434 170 355 C178.6723 363.6723 179.8035 366.6296 191 373 C207.319 382.2849 209.9828 384.2069 228 388 C245.5921 391.7036 248.0979 390.6991 267 389 C291.6824 386.7814 293.9548 387.9218 317 380 C356.0778 366.567 359.0746 362.535 395 345 C398.3735 343.3534 398.8875 342.2647 401 339 C404.0429 334.2973 405.0846 333.0345 406 328 C406.8315 323.4267 406.5616 321.4618 405 317 C403.4728 312.6365 402.6344 311.4998 399 308 C389.7395 299.0825 389.0305 298.1938 378 291 C366.4912 283.4943 365.8764 282.3403 353 278 C322.4414 267.6994 316.9899 270.5856 289 261 C284.2938 259.3883 283.1429 257.1906 280 253 C277.8159 250.0879 277.2506 248.7596 277 245 C276.3296 234.9439 276.403 233.221 278 223 C278.7659 218.0985 279.2607 217.3995 282 213 C295.3904 191.4941 295.8203 190.9522 311 170 C331.2589 142.037 336.4796 140.5315 353 115 C355.8736 110.559 355.4984 107.2332 355 102 C354.6739 98.5761 353.6021 97.1226 351 94 C346.5993 88.7192 345.8859 87.3108 340 84 C330.9719 78.9217 329.5843 78.0054 319 76 C283.3232 69.2402 281.7465 68.468 245 66 C215.5066 64.0191 211.9657 64.6887 185 67 C180.3198 67.4012 179.023 68.871 175 72 C170.6552 75.3793 167 81 167 81 "/>
<path id="1" d="M186 130 C186 130 183.5573 136.2292 184 138 C184.3099 139.2396 186.9334 141.7304 189 142 C195.688 142.8723 199.1674 142.3622 207 141 C209.3798 140.5861 211.7408 138.7775 212 138 C212.2962 137.1114 211.399 133.1658 210 132 C207.3353 129.7794 204.9909 128.9982 200 128 C190.5728 126.1146 180 126 180 126 "/>
<path id="2" d="M279 124 C279 124 275.8277 126.517 275 129 C273.214 134.358 273 137.0913 273 142 C273 143.1328 274.2075 144.7839 275 145 C277.531 145.6903 281.0785 146.3973 284 145 C290.2524 142.0097 293.2448 139.5944 298 134 C300.3984 131.1784 301.1666 125.1146 301 125 C299.9348 124.2676 282 123 282 123 "/>
<path id="3" d="M223 336 C223 336 235.4184 329.5947 248 326 C259.3557 322.7555 260.0842 322.7944 272 322 C289.6774 320.8215 303.6216 321.2703 308 322 C308.1216 322.0203 308.7393 327.4368 308 328 C303.3719 331.5262 297.491 334.8283 287 338 C276.9965 341.0243 275.8878 340.5967 265 341 C249.2611 341.5829 238.7598 342.1394 233 340 C231.6732 339.5072 230 328 230 328 "/>
<path id="4" d="M97 247 C97 247 106.8514 252.1062 117 254 C209.8688 271.3296 211.5454 270.6949 306 286 C319.3697 288.1664 319.5502 288.6044 333 289 C370.2388 290.0953 407.1964 289.022 408 289 C408.0208 288.9994 406 287 406 287 "/>
<path id="5" d="M111 321 C111 321 130.9776 305.1883 153 295 C270.0297 240.8581 392 191 392 191 "/>
</g>
</g>
</svg>
