<?xml version="1.0" encoding="utf-8"?>
<!DOCTYPE svg PUBLIC "-//W3C//DTD SVG 1.1//EN" "http://www.w3.org/Graphics/SVG/1.1/DTD/svg11.dtd">
<svg viewBox="0 0 800 800" preserveAspectRatio="xMinYMin meet" xmlns="http://www.w3.org/2000/svg" version="1.1">
<g fill="none" stroke="black" stroke-linecap="round" stroke-linejoin="round" stroke-width="0.52323">
<g transform="translate(159.1897,87.52) scale(5.7336) translate(-97,-32)">
<path id="0" d="M98 41 C98 41 95.2471 55.1907 97 68 C101.5621 101.3383 106.5593 119.8733 111 136 C111.1469 136.5334 114.5113 137.4962 116 137 C118.7648 136.0784 123 132 123 132 "/>
<path id="1" d="M100 46 C100 46 102.3084 42.3458 105 41 C111.2805 37.8598 112.4216 37.8434 120 36 C130.7361 33.3885 131.3095 32.9719 142 32 C147.2149 31.5259 149.0343 31.1974 153 33 C158.2247 35.3749 159.3314 37.0721 164 42 C167.998 46.2201 168.701 46.7258 171 52 C176.8762 65.4808 178.2872 66.8932 181 81 C183.0178 91.4923 182.2803 92.9897 181 104 C179.8544 113.8525 179.4543 115.5213 176 124 C174.5196 127.6337 173.3224 128.9433 170 131 C163.983 134.7248 162.5859 135.0037 155 137 C143.9944 139.8962 143.4142 139.8864 132 141 C123.2162 141.857 119.6673 142.4784 114 141 C111.9329 140.4608 109 135 109 135 "/>
<path id="2" d="M113 70 C113 70 113.2545 85.3344 115 89 C115.5082 90.0673 122.6824 91.3176 123 91 C123.741 90.259 125 84.1604 125 79 C125 76.8499 124.4339 75.5932 123 74 C120.6173 71.3525 116 69 116 69 "/>
<path id="3" d="M155 69 C155 69 155.4692 85.4962 156 87 C156.0221 87.0627 160.2111 86.8875 161 86 C162.5457 84.2611 164.3656 78.8773 164 78 C163.6029 77.0468 156 74 156 74 "/>
<path id="4" d="M126 106 L153 104 "/>
<path id="5" d="M124 108 C124 108 124.2697 116.061 125 117 C125.3486 117.4482 130.828 117.3153 131 117 C131.578 115.9403 130.9182 106.2454 131 106 C131.0074 105.9777 133.665 107.0786 134 108 C135.015 110.7912 134.2697 116.061 135 117 C135.3486 117.4482 140.7766 117.3829 141 117 C141.803 115.6234 141.9998 105.0001 142 105 C142.0001 104.9999 141.8477 113.5033 143 116 C143.4331 116.9384 147.16 118.12 148 118 C148.4327 117.9382 149.8979 116.2256 150 115 C150.2876 111.549 149 106 149 106 C149 106.0001 151.2264 117.6739 152 119 C152.0699 119.1199 155.9544 118.2279 156 118 C156.2178 116.9112 154 109 154 109 "/>
<path id="6" d="M138 118 L142 118 "/>
<path id="7" d="M136 120 L138 122 "/>
<path id="8" d="M135 91 C135 91 134 96 134 96 C134 96 133.6951 91.3811 134 91 C134.1951 90.7561 137.6 90.8 138 91 C138.1 91.05 138 93 138 93 "/>
<path id="9" d="M147 91 C147 91 144.0124 93.0124 144 93 C143.938 92.938 144 88 144 88 C144.0076 88 147 93 147 93 "/>
<path id="10" d="M175 89 C175 89 164.6178 89.002 164 90 C162.3198 92.7141 162 110 162 110 "/>
<path id="11" d="M109 98 C109 98 114.7825 98.429 115 99 C116.3745 102.6079 117 119 117 119 "/>
</g>
</g>
</svg>
