<?xml version="1.0" encoding="utf-8"?>
<!DOCTYPE svg PUBLIC "-//W3C//DTD SVG 1.1//EN" "http://www.w3.org/Graphics/SVG/1.1/DTD/svg11.dtd">
<svg viewBox="0 0 800 800" preserveAspectRatio="xMinYMin meet" xmlns="http://www.w3.org/2000/svg" version="1.1">
<g fill="none" stroke="black" stroke-linecap="round" stroke-linejoin="round" stroke-width="0.84005">
<g transform="translate(87.52,94.6624) scale(3.5712) translate(-186,-64)">
<path id="0" d="M224 178 C224 178 211.5117 168.5117 201 158 C195.8664 152.8664 195.244 152.2717 192 146 C188.0844 138.4298 186.6552 136.6442 186 129 C185.3362 121.256 185.7062 118.3195 189 111 C193.8938 100.1248 195.5884 98.2256 204 89 C210.2688 82.1245 211.602 81.0164 220 77 C233.4368 70.5737 234.9799 70.6159 250 67 C261.4582 64.2416 262.2819 64 274 64 C289.6241 64 290.8665 63.814 306 67 C318.4729 69.6259 320.2343 69.9913 331 76 C340.4564 81.278 341.6094 82.8175 349 91 C354.9186 97.5527 356.989 99.2912 359 107 C362.2984 119.6438 362.2202 124.1877 361 137 C360.4854 142.4033 358.3676 143.3009 355 149 C351.9376 154.1825 352.2142 155.3126 348 159 C337.0966 168.5405 323 177 323 177 "/>
<path id="1" d="M323 177 C323 177 322.5114 199.2824 324 210 C324.1597 211.1499 327.9869 212.9804 328 213 C328.0031 213.0046 326.0266 212.9069 326 213 C324.9697 216.6062 322 234 322 234 "/>
<path id="2" d="M322 234 C322 234 283.4704 235.421 246 235 C239.5786 234.9278 233 233 233 233 "/>
<path id="3" d="M233 233 C233 233 231.9883 207.5005 233 193 C233.0812 191.8366 236 190.2423 236 190 C236 189.8384 232.9707 188.1174 233 188 C233.1702 187.3191 236.9625 184.6975 238 182 C238.9166 179.6168 238.6801 176.5303 238 175 C237.6329 174.1741 234.5974 172.761 234 173 C232.4318 173.6273 229.42 176.3967 228 179 C227.2343 180.4037 228.0917 183.9312 228 184 C227.9389 184.0458 224 182 224 182 "/>
<path id="4" d="M251 197 C251 197 247.2619 217.0773 248 218 C248.5635 218.7044 258.0199 216.2303 267 217 C274.7593 217.6651 275.3532 220.6079 283 221 C293.8047 221.5541 301.7692 220.8616 306 219 C307.0559 218.5354 308 214.1243 308 210 C308 205.4175 306.7938 200.181 306 200 C295.6746 197.6451 251 197 251 197 "/>
<path id="5" d="M258 199 C258 199 262.5374 206.3739 263 211 C263.285 213.8497 260 219 260 219 "/>
<path id="6" d="M280 202 C280 202 288 194 288 194 C288 194 285.1149 195.8125 285 197 C284.0221 207.1051 285.023 224.7015 285 225 C284.9985 225.0197 283 223 283 223 "/>
<path id="7" d="M266 134 C266 134 262.024 145.8679 262 146 C261.9974 146.0142 263.9957 144.9849 264 145 C264.0807 145.2825 263.2469 152.0586 264 153 C264.7908 153.9885 271.5441 155.1709 272 155 C272.1179 154.9558 271.8125 150.0625 272 150 C273.6875 149.4375 286.9842 150.009 287 150 C287.006 149.9966 281.7857 148.6116 279 146 C274.6585 141.9298 274.6898 138.4059 271 135 C269.7961 133.8887 266 134 266 134 "/>
<path id="8" d="M226 103 C226 103 237.892 99.7838 242 100 C242.8325 100.0438 244.1654 101.9135 245 104 C246.9581 108.8953 247.4003 109.9022 248 115 C248.3107 117.6413 247.2954 120.6308 247 121 C246.9392 121.076 244.0351 119.9532 244 120 C243.8597 120.187 244.547 123.7237 244 125 C243.6406 125.8387 241.2412 126.1962 241 127 C240.3347 129.2175 240.9998 134.9992 241 135 C241.0001 135.0004 242.177 131.2213 242 131 C241.7234 130.6543 237.8776 130.7314 237 130 C236.3481 129.4567 236.0002 126.0004 236 126 C235.9999 125.9998 236.0862 127.9655 236 128 C235.4612 128.2155 233.1701 128.5787 231 128 C226.1969 126.7192 222.0234 125.8607 221 124 C219.2172 120.7585 219.6542 114.9159 220 108 C220.0889 106.2223 220.9528 104.748 222 104 C223.232 103.12 227 103 227 103 "/>
<path id="9" d="M315 94 C315 94 311.3446 99.4916 308 102 C306.5207 103.1095 303.5365 102.4635 303 103 C302.6423 103.3577 303.6713 105.6574 303 107 C300.3149 112.3703 295.7222 115.5695 295 119 C294.675 120.5437 298.1238 122.7142 299 126 C299.869 129.2586 299.4435 132.0041 299 134 C298.9199 134.3604 296.9967 134.9941 297 135 C297.3526 135.6347 303.8061 142.5638 304 143 C304.0058 143.0131 300.9999 144 301 144 C301.001 143.9999 315.2317 143.7212 324 141 C326.8806 140.106 329.5865 137.481 330 135 C331.7722 124.3671 331.3417 116.7398 330 105 C329.7559 102.8645 328.0007 100.9337 326 100 C322.2302 98.2408 315 98 315 98 "/>
</g>
</g>
</svg>
