<?xml version="1.0" encoding="utf-8"?>
<!DOCTYPE svg PUBLIC "-//W3C//DTD SVG 1.1//EN" "http://www.w3.org/Graphics/SVG/1.1/DTD/svg11.dtd">
<svg viewBox="0 0 800 800" preserveAspectRatio="xMinYMin meet" xmlns="http://www.w3.org/2000/svg" version="1.1">
<g fill="none" stroke="black" stroke-linecap="round" stroke-linejoin="round" stroke-width="1.3585">
<g transform="translate(102.9784,87.52) scale(2.2083) translate(-176,-46.4167)">
<path id="0" d="M185 218.4167 C185 218.4167 183.0672 218.5735 183 218.4167 C181.1182 214.0258 176.8479 207.591 176 197.4167 C173.5252 167.7186 173.0392 164.0249 176 134.4167 C177.3112 121.3045 179.0356 119.7874 185 107.4167 C192.1709 92.5436 192.7558 88.1952 203 78.4167 C211.6133 70.1949 215.6262 70.4515 229 65.4167 C257.637 54.6357 259.1991 50.5004 288 46.4167 C323.0126 41.4522 327.7197 43.0566 363 46.4167 C377.5601 47.8034 378.8215 50.4302 393 56.4167 C400.7889 59.7053 401.8496 59.9312 408 65.4167 C419.5933 75.7567 420.4686 77.3191 430 89.4167 C432.8021 92.9732 433.3894 93.9895 434 98.4167 C437.1678 121.3834 437.1265 122.9578 438 147.4167 C439.1198 178.7723 438.4347 179.1151 438 210.4167 C437.9378 214.8952 438.2935 215.5361 437 219.4167 C435.5217 223.8516 432 228.4167 432 228.4167 "/>
<path id="1" d="M238 137.4167 C238 137.4167 224.9434 141.4368 223 144.4167 C221.1472 147.2576 222.0339 153.6541 223 160.4167 C223.3278 162.7111 224.2701 164.4652 226 165.4167 C232.1073 168.7757 234.7721 169.442 243 171.4167 C246.5696 172.2734 248.1595 172.4819 251 171.4167 C254.6395 170.0519 257.9314 168.1951 259 165.4167 C261.4452 159.0592 261.5962 153.1668 261 145.4167 C260.8105 142.9535 259.1475 141.1347 257 139.4167 C255.1453 137.9329 253.9024 137.6317 251 137.4167 C241.0863 136.6823 230 137.4167 230 137.4167 "/>
<path id="2" d="M362 139.4167 C362 139.4167 347.0662 141.9324 344 145.4167 C340.8383 149.0095 339.0992 160.6631 340 164.4167 C340.4195 166.1644 345.3841 169.6474 350 170.4167 C360.9103 172.2351 364.1853 171.9712 376 170.4167 C381.7519 169.6598 383.2224 168.2832 388 165.4167 C389.7199 164.3847 390.6148 163.2145 391 161.4167 C391.8298 157.5445 392.4028 153.7122 391 151.4167 C388.9347 148.0371 385.6879 146.3843 380 143.4167 C374.7195 140.6616 373.7247 139.9371 368 139.4167 C358.3186 138.5365 347 140.4167 347 140.4167 "/>
<path id="3" d="M183 216.4167 C183 216.4167 191.6544 219.8424 196 224.4167 C199.7797 228.3953 200.1886 230.2579 202 236.4167 C207.4807 255.0509 207.4059 256.0085 211 275.4167 C212.3421 282.6638 209.7351 284.493 212 290.4167 C215.4732 299.5004 218.159 306.6615 224 309.4167 C236.2129 315.1775 244.5846 314.3422 265 315.4167 C310.4859 317.8107 313.8582 318.7278 357 316.4167 C366.5601 315.9045 373.0081 314.1571 377 309.4167 C383.8823 301.244 382.0222 291.3754 389 278.4167 C391.3928 273.9729 394.7835 274.8393 398 270.4167 C402.2216 264.612 400.3116 261.3892 405 256.4167 C415.3586 245.4303 420.089 246.8732 431 235.4167 C439.1861 226.8213 445 214.4167 445 214.4167 "/>
<path id="4" d="M206 246.4167 C206 246.4167 212.34 264.1504 220 269.4167 C230.5024 276.6371 237.4328 278.2819 254 279.4167 C307.4966 283.0808 314.8361 284.3566 366 279.4167 C381.6926 277.9015 399 265.4167 399 265.4167 "/>
<path id="5" d="M215 281.4167 C215 281.4167 218.9802 281.2385 221 282.4167 C223.9146 284.1169 223.7437 287.1142 227 288.4167 C252.9727 298.8058 257.7318 303.4282 286 308.4167 C305.2798 311.819 308.5576 309.7806 329 306.4167 C346.8386 303.4812 347.5714 299.8751 365 295.4167 C368.1432 294.6126 369.7479 296.2356 372 295.4167 C373.7549 294.7785 376 291.4167 376 291.4167 "/>
<path id="6" d="M222 272.4167 C222 272.4167 224.9857 310.3198 225 310.4167 C225.0014 310.426 227 306.4167 227 306.4167 "/>
<path id="7" d="M241 282.4167 C241 282.4167 240.751 309.5577 241 313.4167 C241.001 313.4327 243 313.4167 243 313.4167 "/>
<path id="8" d="M272 280.4167 C272 280.4167 271.1599 300.736 272 309.4167 C272.0663 310.1022 275 311.4167 275 311.4167 "/>
<path id="9" d="M303 286.4167 C303 286.4167 302.9772 318.075 303 318.4167 C303.0013 318.4366 305 316.4167 305 316.4167 "/>
<path id="10" d="M336 290.4167 L334 314.4167 "/>
<path id="11" d="M374 287.4167 C374 287.4167 375.0272 300.1179 374 311.4167 C373.6031 315.7821 371 320.4167 371 320.4167 "/>
<path id="12" d="M421 251.4167 L420 251.4167 "/>
<path id="13" d="M420 251.4167 C420 251.4167 421.9984 251.3968 422 251.4167 C422.2484 254.5218 423.0753 265.3056 422 276.4167 C421.7294 279.2124 420.9809 281.0453 419 282.4167 C410.3309 288.4183 401.7629 287.5732 396 294.4167 C389.831 301.7424 392.1552 311.0161 387 320.4167 C385.4357 323.2692 383.129 323.801 379 325.4167 C372.1303 328.1048 371.2947 329.2247 364 329.4167 C297.8392 331.1577 292.0172 330.326 227 329.4167 C224.1393 329.3767 223.1008 328.8872 221 327.4167 C218.8708 325.9262 218.2174 325.1123 217 322.4167 C211.542 310.3311 211.4717 309.4879 207 296.4167 C205.0201 290.6293 204.4315 290.3138 204 284.4167 C202.9759 270.4213 205.4763 269.4412 204 255.4167 C202.5425 241.5703 201.324 241.1281 198 227.4167 C197.381 224.8634 197.2227 223.4865 196 222.4167 C194.5136 221.1161 190 220.4167 190 220.4167 "/>
<path id="14" d="M287 173.4167 C287 173.4167 288.1706 179.5669 287 184.4167 C284.9046 193.0977 282.5096 193.2746 280 202.4167 C275.6008 218.4423 272.6286 232.9655 273 235.4167 C273.0211 235.5562 279.4579 236.3404 285 235.4167 C290.85 234.4417 291.1579 232.1469 297 231.4167 C306.3474 230.2483 316.3971 232.388 317 231.4167 C318.3481 229.2447 317.9693 215.7784 315 202.4167 C312.2548 190.0634 308.8846 189.9669 305 177.4167 C302.5211 169.4079 302.9761 163.1823 302 160.4167 C301.9428 160.2545 299.6554 159.9485 299 160.4167 C297.3458 161.5983 296.2408 162.7283 295 165.4167 C290.5248 175.113 287 186.4167 287 186.4167 "/>
<path id="15" d="M425 242.4167 C425 242.4167 426.6897 254.6867 425 263.4167 C424.102 268.0566 422.095 270.3217 419 273.4167 C417.4525 274.9642 415.1008 273.9461 413 275.4167 C410.8708 276.9071 409.6433 278.1652 409 280.4167 C408.0575 283.7153 410.1447 286.3641 409 289.4167 C407.8235 292.5541 404.6876 292.7346 403 296.4167 C399.6608 303.7022 401.3112 307.3462 398 313.4167 C396.5199 316.1302 394.7034 316.8917 391 318.4167 C378.4469 323.5856 377.0058 326.7281 364 327.4167 C296.3118 331.0002 241.5545 329.2723 221 327.4167 C220.6876 327.3885 221.6084 320.3141 220 314.4167 C217.312 304.5607 214.7366 303.9949 212 294.4167 C211.0176 290.9783 212.8567 289.9863 212 286.4167 C210.0253 278.1887 209.486 276.7373 206 269.4167 C204.9634 267.2398 202.4628 267.2678 202 265.4167 C200.1026 257.827 202.3756 254.3911 200 245.4167 C198.1656 238.4866 193 231.4167 193 231.4167 "/>
<path id="16" d="M232 280.4167 L232 311.4167 "/>
<path id="17" d="M257 283.4167 C257 283.4167 256.8413 310.6234 257 311.4167 C257.0113 311.4733 262 308.4167 262 308.4167 "/>
<path id="18" d="M282 283.4167 C282 283.4167 284.6672 287.0891 285 290.4167 C286.0484 300.9008 283.9776 304.2153 285 313.4167 C285.1926 315.1503 288 317.4167 288 317.4167 "/>
<path id="19" d="M320 284.4167 C320 284.4167 319.569 313.9083 320 315.4167 C320.0099 315.4514 328 312.4167 328 312.4167 "/>
<path id="20" d="M350 283.4167 L351 307.4167 "/>
<path id="21" d="M378 280.4167 L379 282.4167 "/>
<path id="22" d="M298 172.4167 L298 213.4167 "/>
<path id="23" d="M298 211.4167 L297 212.4167 "/>
<path id="24" d="M296 168.4167 C296 168.4167 292.7415 169.2117 292 170.4167 C289.7626 174.0524 288.2938 179.6538 288 181.4167 C287.9832 181.5174 290 182.4167 290 182.4167 "/>
<path id="25" d="M298 171.4167 C298 171.4167 298.9938 183.1567 297 191.4167 C295.9708 195.6804 292.4639 196.2689 291 200.4167 C289.9466 203.4013 290.437 207.9944 291 208.4167 C292.1964 209.314 302.9475 209.5939 303 209.4167 C303.551 207.5571 299 181.4167 299 181.4167 "/>
</g>
</g>
</svg>
