<?xml version="1.0" encoding="utf-8"?>
<!DOCTYPE svg PUBLIC "-//W3C//DTD SVG 1.1//EN" "http://www.w3.org/Graphics/SVG/1.1/DTD/svg11.dtd">
<svg viewBox="0 0 800 800" preserveAspectRatio="xMinYMin meet" xmlns="http://www.w3.org/2000/svg" version="1.1">
<g fill="none" stroke="black" stroke-linecap="round" stroke-linejoin="round" stroke-width="1.4689">
<g transform="translate(190.6588,87.52) scale(2.0424) translate(-231,-37)">
<path id="0" d="M411 249 C411 249 417.6655 246.5429 421 243 C424.6017 239.1731 425.3678 237.1687 427 232 C428.0126 228.7933 426.2376 227.0494 427 224 C427.4526 222.1894 429.7045 221.7732 430 220 C430.9195 214.4832 430.583 208.9152 430 206 C429.9334 205.6668 427 205 427 205 "/>
<path id="1" d="M436 209 C436 209 425.8865 205.4178 425 203 C422.8794 197.2165 425 179 425 179 "/>
<path id="2" d="M426 177 C426 177 425.6509 170.5869 427 166 C427.8572 163.0854 430.675 162.6813 431 160 C432.3532 148.8361 429.6331 144.6191 431 133 C431.3782 129.7851 434.5694 129.2293 435 126 C436.3146 116.1406 437.9544 112.3295 435 103 C429.4745 85.5511 426.7822 82.4904 416 66 C410.5879 57.7227 409.1975 56.2828 401 51 C388.0317 42.6427 385.2402 39.0138 371 37 C340.2752 32.6551 335.6612 36.1369 302 37 C297.5844 37.1132 294.5286 38.3206 293 39 C292.8626 39.0611 293.048 40.9915 293 41 C290.6661 41.4119 282.6462 39.4438 276 42 C265.5307 46.0266 260.5792 47.7338 254 56 C243.867 68.7312 244.1382 73.3096 237 91 C232.8355 101.3206 232.0797 102.2026 231 113 C229.1845 131.1549 228.1009 133.8689 231 151 C233.2019 164.0113 235.8293 165.6586 242 178 C243.8987 181.7974 248 185 248 185 "/>
<path id="3" d="M245 212 C245 212 241.7379 199.9174 244 192 C247.8194 178.6323 255.9932 176.5306 259 163 C262.1411 148.8649 261.2594 141.7659 258 129 C256.4958 123.1087 247 116 247 116 "/>
<path id="4" d="M424 188 C424 188 413.7536 175.8141 412 165 C408.4148 142.8915 409.8446 136.2728 412 114 C412.4894 108.9425 418 103 418 103 "/>
<path id="5" d="M408 182 C408 182 409.9779 182.7011 410 183 C410.5015 189.7697 411.3535 197.4955 410 209 C409.559 212.7481 407.4415 216.6797 406 217 C398.0165 218.7741 384.9857 220.8653 374 217 C364.1523 213.5351 357.3112 205.9667 352 198 C349.7914 194.6871 350.0474 187.4869 352 184 C354.6277 179.3077 359.7667 174.3186 366 173 C380.5077 169.9311 395.0205 171.0758 404 173 C405.4009 173.3002 408 182 408 182 "/>
<path id="6" d="M311 206 C311 206 300.518 215.3986 291 219 C284.3622 221.5116 279.565 221.6489 274 220 C269.78 218.7496 267.9411 215.7856 264 211 C261.4174 207.864 260.1035 206.4143 260 203 C259.6827 192.5279 259.1967 184.846 263 178 C265.9159 172.7514 272.1301 169.0612 280 167 C289.8962 164.4081 295.6567 165.2481 305 167 C308.0366 167.5694 309.4212 169.7179 312 173 C314.4987 176.1801 315.5307 177.2455 316 181 C317.3251 191.6009 317.1387 200.0654 316 205 C315.8394 205.6959 310 207 310 207 "/>
<path id="7" d="M378 292 C378 292 382.6058 277.5208 387 268 C387.5283 266.8554 389.8045 266.782 390 266 C390.7109 263.1564 388.5907 258.9752 390 256 C391.8692 252.0539 395.0658 248.9671 399 247 C401.6228 245.6886 404.6879 248.3248 408 247 C415.3601 244.056 424 237 424 237 "/>
<path id="8" d="M378 291 C378 291 373.4481 297.1662 368 301 C360.5385 306.2507 358.8457 308.8792 351 310 C334.328 312.3817 327.1223 312.7806 312 309 C304.198 307.0495 302.0498 303.2848 295 296 C287.68 288.436 285.2313 286.2026 282 278 C279.9037 272.6785 283.654 269.2025 282 263 C280.1108 255.9153 274 248 274 248 "/>
<path id="9" d="M294 289 C294 289 294.6937 272.1786 293 261 C292.6627 258.7739 291.3333 257.5555 289 256 C281.6821 251.1214 280.342 249.2381 272 247 C261.4572 244.1715 256.204 247.8201 248 245 C244.3134 243.7327 241.877 239.9887 240 236 C238.8236 233.5002 240.9255 231.3318 240 228 C238.6825 223.2569 235.989 222.7473 235 218 C233.746 211.9808 234.1263 205.8722 235 204 C235.2663 203.4294 242 203 242 203 "/>
<path id="10" d="M380 283 C380 283 375.884 278.7128 375 275 C373.7496 269.7482 373.0868 266.1207 375 262 C378.0958 255.3322 382.462 250.3228 388 247 C391.0207 245.1876 400 247 400 247 "/>
<path id="11" d="M334 249 C334 249 334.4625 252.445 334 253 C333.287 253.8556 331.4104 254.6292 329 255 C325.367 255.5589 322.9009 255.8641 321 255 C319.7471 254.4305 318.0897 252.0634 318 250 C317.6868 242.7956 317.2737 238.8157 320 232 C322.3202 226.1994 327.4571 225.3401 330 220 C331.3654 217.1327 329.4548 211.701 330 211 C330.3298 210.576 334.7479 210.181 337 211 C338.7549 211.6381 339.9566 212.7828 341 215 C347.3229 228.4361 348.1346 230.8092 353 245 C353.7131 247.0799 353.547 248.7237 353 250 C352.6406 250.8387 351.2449 251.9268 350 252 C344.4331 252.3275 339.7153 252.161 336 251 C335.1563 250.7364 334.1051 248.8397 334 247 C333.2079 233.1385 334 216 334 216 "/>
<path id="12" d="M252 247 C252 247 257.3603 252.4153 258 257 C259.948 270.9606 257.1948 274.7014 258 290 C258.1246 292.3668 259.1772 294.1772 260 295 C260.3526 295.3526 262.3633 294.5048 263 295 C265.429 296.8892 266.1326 300.2355 269 302 C271.1184 303.3037 274.99 301.8346 276 303 C278.7441 306.1663 278.5186 313.3139 282 317 C284.5471 319.6969 289.5833 318.5595 293 321 C294.7964 322.2831 294.0066 324.8532 296 327 C299.9221 331.2238 301.6453 332.5116 306 335 C307.1954 335.6831 308.704 334.352 310 335 C313.564 336.782 314.0734 339.6911 318 341 C324.5444 343.1815 326.0317 342.5914 334 343 C345.3814 343.5837 352.2452 344.761 357 343 C358.5926 342.4102 359.2889 334.4259 361 333 C362.1099 332.0751 367.286 334.1427 369 333 C371.9281 331.0479 372.1463 326.5968 376 323 C378.7683 320.4162 380.8349 321.5321 384 319 C387.7869 315.9705 388.6863 315.2419 391 311 C394.2748 304.9961 392.7888 302.0844 396 297 C397.7632 294.2083 402.4826 293.9958 403 292 C404.6704 285.5572 401.7413 280.07 403 270 C403.6008 265.1939 406.1607 264.8262 407 260 C408.0202 254.134 407 247 407 247 "/>
</g>
</g>
</svg>
