<?xml version="1.0" encoding="utf-8"?>
<!DOCTYPE svg PUBLIC "-//W3C//DTD SVG 1.1//EN" "http://www.w3.org/Graphics/SVG/1.1/DTD/svg11.dtd">
<svg viewBox="0 0 800 800" preserveAspectRatio="xMinYMin meet" xmlns="http://www.w3.org/2000/svg" version="1.1">
<g fill="none" stroke="black" stroke-linecap="round" stroke-linejoin="round" stroke-width="1.3057">
<g transform="translate(172.5329,87.52) scale(2.2976) translate(-180,-70)">
<path id="0" d="M237 153 L237 330 "/>
<path id="1" d="M328 146 L328 327 "/>
<path id="2" d="M237 332 L328 329 "/>
<path id="3" d="M236 332 C236 332 209.6437 331.7854 206 333 C205.6396 333.1201 205.9341 341.9961 206 342 C225.0591 343.1211 303.2749 342.719 359 342 C359.7378 341.9905 360.9518 340.7235 361 340 C361.2924 335.6139 360.6802 327.2401 360 327 C356.0261 325.5975 327 328 327 328 "/>
<path id="4" d="M240 323 C240 323 253.8111 324.7465 267 324 C279.838 323.2733 280.078 320.7952 293 320 C312.2012 318.8184 332 320 332 320 "/>
<path id="5" d="M280 189 C280 189 277.193 187.807 277 188 C275.2631 189.7369 271.4613 193.6418 270 199 C267.4478 208.358 266.237 213.0666 268 221 C269.3268 226.9705 273.9322 231.8361 278 235 C279.5579 236.2117 282.7242 235.756 286 235 C288.3309 234.4621 288.9945 233.8384 291 232 C294.7091 228.6 297.1774 227.5988 298 224 C300.3331 213.7926 300.8193 206.0963 299 197 C298.3483 193.7416 295.0107 191.3593 291 189 C287.7877 187.1104 282 187 282 187 "/>
<path id="6" d="M283 204 C283 204 279.8218 206.74 279 209 C278.2361 211.1008 278.596 214.7429 279 215 C280.2312 215.7835 288.6988 216.5422 290 216 C290.4303 215.8207 291.547 211.094 291 210 C290.3038 208.6076 285 206 285 206 "/>
<path id="7" d="M236 154 C236 154 281.1703 155.6014 316 154 C319.1277 153.8562 319.7196 151.0094 323 150 C325.3913 149.2642 328.8132 150.2615 329 150 C329.2739 149.6165 328.5005 143.1752 328 143 C325.2434 142.0352 317.7238 141.546 309 143 C300.7353 144.3774 300.2013 148.3166 292 149 C266.2244 151.148 243.8388 148.5026 237 149 C236.9638 149.0026 237 153 237 153 "/>
<path id="8" d="M237 148 C237 148 229.796 147.9551 229 147 C227.685 145.4219 226.9275 136.0075 227 136 C236.0903 135.0655 318.876 134.7546 336 136 C336.2485 136.0181 337.5256 143.343 337 144 C336.3284 144.8395 328 146 328 146 "/>
<path id="9" d="M248 136 C248 136 244.5154 120.1651 246 112 C246.6566 108.3885 249.7595 105.7563 254 103 C258.4702 100.0944 260.1632 99.6671 266 99 C276.7767 97.7684 278.817 97.3028 289 99 C295.1984 100.0331 295.5074 103.2089 302 105 C309.3328 107.0229 311.8142 105.3722 318 107 C319.4184 107.3733 320.8766 108.8069 321 110 C321.9694 119.3709 321 136 321 136 "/>
<path id="10" d="M272 98 C272 98 269.3968 94.1742 269 91 C268.5225 87.1802 268.518 84.7788 270 82 C271.5131 79.1629 273.5355 77.3858 277 76 C282.0861 73.9656 286.22 72.8496 290 74 C293.8861 75.1827 298.3972 78.9201 300 83 C302.4042 89.1198 301 102 301 102 "/>
<path id="11" d="M283 74 C283 74 282.9118 71.0221 283 71 C284.4118 70.6471 295 71 295 71 "/>
<path id="12" d="M296 70 L294 75 "/>
<path id="13" d="M329 193 C329 193 349.4703 191.0098 350 192 C352.3329 196.3616 353.666 227.1148 352 236 C351.7685 237.2348 346.3319 239.2646 341 240 C332.6918 241.146 323 240 323 240 "/>
<path id="14" d="M238 195 C238 195 211.419 194.0096 211 195 C209.1702 199.3249 213.0521 228.9851 216 247 C216.204 248.2465 218.2423 249.7489 220 250 C226.7473 250.9639 237 250 237 250 "/>
<path id="15" d="M355 205 L357 206 "/>
<path id="16" d="M356 217 L358 217 "/>
<path id="17" d="M358 199 C358 199 360.8334 201.2785 361 203 C362.0484 213.8335 361 230 361 230 "/>
<path id="18" d="M363 198 C363 198 370.8702 198.5293 371 199 C372.1336 203.1094 371.9779 216.8949 371 227 C370.8851 228.1875 369.1175 229.7968 368 230 C365.5359 230.448 360 229 360 229 "/>
<path id="19" d="M359 197 L363 196 "/>
<path id="20" d="M205 218 L213 218 "/>
<path id="21" d="M206 228 C206 228 206.6476 229.9295 207 230 C209.2656 230.4531 216 230 216 230 "/>
<path id="22" d="M201 205 C201 205 203.6609 209.1565 204 213 C205.0669 225.0913 205.5241 236.0607 204 239 C203.5158 239.9337 191.6183 241.0471 190 240 C188.6954 239.1559 187.5909 233.9087 187 228 C186.1353 219.3532 185.5036 212.6187 187 210 C187.8195 208.566 199 207 199 207 "/>
<path id="23" d="M373 215 C373 215 373.7662 208.2338 374 208 C374.0584 207.9416 377.4361 209.1542 378 210 C378.4833 210.725 378.3705 213.7221 378 214 C376.8266 214.88 370 216 370 216 "/>
<path id="24" d="M185 223 C185 223 181.6377 223.9797 181 225 C180.0612 226.502 180 228.3385 180 231 C180 232.3307 180.9079 234 181 234 C181.5529 234 187 231 187 231 "/>
</g>
</g>
</svg>
