<?xml version="1.0" encoding="utf-8"?>
<!DOCTYPE svg PUBLIC "-//W3C//DTD SVG 1.1//EN" "http://www.w3.org/Graphics/SVG/1.1/DTD/svg11.dtd">
<svg viewBox="0 0 800 800" preserveAspectRatio="xMinYMin meet" xmlns="http://www.w3.org/2000/svg" version="1.1">
<g fill="none" stroke="black" stroke-linecap="round" stroke-linejoin="round" stroke-width="1.2097">
<g transform="translate(165.64,87.52) scale(2.48) translate(-194,-184.1333)">
<path id="0" d="M201 230.1333 C201 230.1333 202.6253 220.9212 206 213.1333 C208.8993 206.4426 209.3018 205.6857 214 200.1333 C219.9047 193.155 220.9381 191.8413 228 187.1333 C231.7387 184.6409 233.1367 184.4438 238 184.1333 C255.6561 183.0063 257.4215 182.7271 275 184.1333 C281.3282 184.6396 282.9082 184.8931 288 188.1333 C298.0942 194.5569 299.7046 195.8324 308 205.1333 C315.5231 213.5684 321 225.1333 321 225.1333 "/>
<path id="1" d="M208 234.1333 C208 234.1333 220.1411 230.5039 232 230.1333 C267.3769 229.0278 269.272 229.8145 304 231.1333 C307.4112 231.2629 311 233.1333 311 233.1333 "/>
<path id="2" d="M202 236.1333 C202 236.1333 200.7475 244.1551 202 251.1333 C204.1089 262.8829 206.4267 263.1247 209 275.1333 C210.8597 283.8119 210.7891 284.1699 211 293.1333 C211.783 326.4103 209.5289 333.6538 211 360.1333 C211.1147 362.1972 214.8289 363.0113 215 365.1333 C216.8353 387.8905 213.693 404.2542 216 422.1333 C216.2384 423.9808 220.1041 427.0514 223 427.1333 C263.1214 428.2688 295.5542 427.2075 322 425.1333 C322.9256 425.0607 324.9068 421.8677 325 419.1333 C326.2526 382.3903 326.3798 377.8362 325 337.1333 C324.392 319.1965 321.677 319.0729 321 301.1333 C319.6892 266.3965 321 231.1333 321 231.1333 "/>
<path id="3" d="M215 236.1333 C215 236.1333 216.9317 235.9831 217 236.1333 C217.9289 238.1768 219.1389 241.5974 220 247.1333 C222.6001 263.8483 223.5993 264.3045 224 281.1333 C224.587 305.789 224.2932 306.5633 222 331.1333 C220.8363 343.6011 218.0858 343.7551 217 356.1333 C215.6341 371.7043 216.3525 372.2692 217 388.1333 C217.3456 396.6016 217.0674 397.0162 219 405.1333 C221.9753 417.6297 227 430.1333 227 430.1333 "/>
<path id="4" d="M235 235.1333 C235 235.1333 239.7172 240.9373 242 247.1333 C246.4749 259.2794 247.9504 260.2382 249 273.1333 C254.79 344.268 250.8642 352.3675 256 419.1333 C256.364 423.8648 260.999 429.1299 261 429.1333 C261.0003 429.1345 258 426.1333 258 426.1333 "/>
<path id="5" d="M259 233.1333 C259 233.1333 267.9455 274.2986 272 315.1333 C274.8769 344.1078 271.3574 344.8943 273 374.1333 C273.8407 389.0978 276.0365 389.1989 277 404.1333 C278.019 419.9275 277.3717 432.1682 277 436.1333 C276.9967 436.1682 274 436.1333 274 436.1333 "/>
<path id="6" d="M282 238.1333 C282 238.1333 291.1629 268.0722 297 298.1333 C301.0797 319.1437 300.3762 319.6176 302 341.1333 C304.3669 372.4945 302.2002 373.736 305 404.1333 C305.5915 410.5554 309 417.1333 309 417.1333 "/>
<path id="7" d="M305 234.1333 C305 234.1333 309.5684 235.8386 310 237.1333 C311.418 241.3874 309.5693 244.98 311 252.1333 C313.4848 264.5576 316.9738 264.8184 318 277.1333 C321.3361 317.1669 320 360.1333 320 360.1333 "/>
<path id="8" d="M221 207.1333 C221 207.1333 240.5973 203.1451 257 205.1333 C271.3176 206.8688 287 215.1333 287 215.1333 "/>
<path id="9" d="M326 281.1333 C326 281.1333 332.2844 277.3519 336 277.1333 C338.4771 276.9876 341.7856 278.9189 343 280.1333 C343.4858 280.6191 342.2923 282.8267 343 284.1333 C347.7846 292.9664 351.3895 294.5831 356 304.1333 C357.6639 307.5799 357.9556 310.1073 357 313.1333 C355.6564 317.3881 351.2343 318.549 350 323.1333 C348.3384 329.3052 351.5062 337.2505 350 339.1333 C348.4184 341.1103 338.2664 340.3602 334 343.1333 C331.7406 344.6019 331.9418 349.7061 330 352.1333 C329.3315 352.9689 326.6764 353.2686 326 353.1333 C325.7508 353.0835 325 351.1333 325 351.1333 "/>
<path id="10" d="M325 278.1333 L323 282.1333 "/>
<path id="11" d="M333 278.1333 C333 278.1333 334.3572 296.6982 340 310.1333 C343.8566 319.3157 354 328.1333 354 328.1333 "/>
<path id="12" d="M213 359.1333 C213 359.1333 209.5104 396.7058 212 414.1333 C212.4279 417.1287 222 422.1333 222 422.1333 "/>
<path id="13" d="M200 223.1333 C200 223.1333 199.0004 217.1327 199 217.1333 C198.9992 217.1345 199.2479 222.3897 198 226.1333 C197.0195 229.0748 194.6121 229.3791 194 232.1333 C192.9338 236.931 192.5394 241.5042 194 244.1333 C195.4065 246.6651 204 250.1333 204 250.1333 "/>
<path id="14" d="M316 211.1333 C316 211.1333 329.2743 204.3454 335 204.1333 C337.3123 204.0477 340.9598 206.9804 343 210.1333 C345.3623 213.7841 345.7185 216.6298 346 221.1333 C346.1227 223.0957 345.218 225.4025 344 226.1333 C340.2484 228.3843 333.0115 227.6486 331 230.1333 C328.1971 233.5957 329.8549 244.4026 327 247.1333 C323.6489 250.3388 308 252.1333 308 252.1333 "/>
<path id="15" d="M344 283.1333 C344 283.1333 348.3419 273.9307 352 271.1333 C354.0796 269.5431 358.6547 268.8472 361 270.1333 C369.8441 274.9833 376.3313 281.4647 383 288.1333 C383.6669 288.8002 383.3882 291.905 383 292.1333 C379.6133 294.1255 370.7995 294.7737 366 298.1333 C364.053 299.4962 363 306.1333 363 306.1333 "/>
</g>
</g>
</svg>
