<?xml version="1.0" encoding="utf-8"?>
<!DOCTYPE svg PUBLIC "-//W3C//DTD SVG 1.1//EN" "http://www.w3.org/Graphics/SVG/1.1/DTD/svg11.dtd">
<svg viewBox="0 0 800 800" preserveAspectRatio="xMinYMin meet" xmlns="http://www.w3.org/2000/svg" version="1.1">
<g fill="none" stroke="black" stroke-linecap="round" stroke-linejoin="round" stroke-width="1.9969">
<g transform="translate(217.4696,87.52) scale(1.5023) translate(-200,-2.1333)">
<path id="0" d="M278 50.1333 C278 50.1333 271.3206 61.4423 267 73.1333 C262.9744 84.0262 261.8102 84.7906 261 96.1333 C257.9173 139.2912 262.6761 141.689 259 185.1333 C257.2784 205.4801 251.1089 205.9269 250 226.1333 C246.7129 286.031 247.8946 290.1822 250 349.1333 C250.294 357.3666 255 366.1333 255 366.1333 "/>
<path id="1" d="M279 52.1333 C279 52.1333 282.4697 44.6636 287 40.1333 C290.6242 36.5091 292.2477 34.9422 297 34.1333 C313.101 31.3927 316.5591 31.182 334 32.1333 C342.6388 32.6045 345.3473 33.2335 352 37.1333 C357.732 40.4935 358.3928 42.6832 363 49.1333 C370.6566 59.8526 371.9042 60.4129 377 72.1333 C381.4865 82.4522 381.3676 83.5809 383 95.1333 C387.7908 129.0376 389.0776 129.7406 390 164.1333 C392.5597 259.5751 390.8788 270.0098 390 356.1333 C389.9816 357.9367 388 360.1333 388 360.1333 "/>
<path id="2" d="M249 352.1333 C249 352.1333 241.0958 350.3643 238 352.1333 C230.6424 356.3377 226.3571 360.5205 221 368.1333 C218.623 371.5112 218.0573 377.0122 219 379.1333 C220.067 381.5342 223.7003 383.7244 229 386.1333 C245.0454 393.4267 246.5696 396.7861 263 399.1333 C289.1184 402.8645 291.6653 398.1674 320 399.1333 C335.4609 399.6604 336.9994 403.9755 351 402.1333 C372.3681 399.3217 375.2335 397.5603 396 389.1333 C408.4275 384.0903 413.6516 380.97 420 374.1333 C422.5296 371.4091 422.2793 366.1612 422 361.1333 C421.888 359.1178 420.8502 357.2897 419 356.1333 C410.7685 350.9887 398 346.1333 398 346.1333 "/>
<path id="3" d="M257 365.1333 C257 365.1333 251.5941 366.1149 251 367.1333 C249.8568 369.0931 248.9145 375.083 250 377.1333 C251.4091 379.795 255.4832 383.6816 260 384.1333 C310.9094 389.2243 325.6775 389.7218 380 390.1333 C385.4131 390.1743 387.9714 388.6971 392 385.1333 C399.3401 378.6401 401.8688 375.1006 406 367.1333 C407.472 364.2946 406.9115 358.9797 406 358.1333 C404.0679 356.3392 392 354.1333 392 354.1333 "/>
<path id="4" d="M390 128.1333 C390 128.1333 400.5917 127.3297 407 130.1333 C414.2597 133.3095 414.3842 137.1665 422 142.1333 C425.3219 144.2998 427.0064 143.2283 430 145.1333 C431.6753 146.1994 432.4258 147.1238 433 149.1333 C435.1109 156.5214 435.1565 157.6988 436 166.1333 C436.6338 172.4714 436.8984 173.4433 436 179.1333 C435.5526 181.9668 435.0928 183.1152 433 185.1333 C422.221 195.5273 420.6279 198.1254 408 206.1333 C401.682 210.1399 392 211.1333 392 211.1333 "/>
<path id="5" d="M402 131.1333 C402 131.1333 411.9741 150.7291 416 169.1333 C418.5491 180.7865 417.8021 184.9214 416 195.1333 C415.3721 198.6914 410 203.1333 410 203.1333 "/>
<path id="6" d="M439 158.1333 C439 158.1333 442.7684 158.6702 443 159.1333 C443.5404 160.2141 443.8701 164.2191 443 166.1333 C442.2203 167.8486 438 170.1333 438 170.1333 "/>
<path id="7" d="M260 130.1333 C260 130.1333 247.7739 127.4553 241 130.1333 C230.0474 134.4634 226.7941 137.9513 217 147.1333 C212.0493 151.7746 211.469 153.8238 209 160.1333 C207.4095 164.198 206.8329 167.6694 208 170.1333 C209.683 173.6863 213.8656 174.1376 218 179.1333 C225.5591 188.2672 224.6173 193.3167 232 199.1333 C237.8866 203.7712 241.74 203.2175 251 205.1333 C255.5748 206.0798 260 205.6333 261 205.1333 C261.25 205.0083 261 200.1333 261 200.1333 "/>
<path id="8" d="M241 134.1333 C241 134.1333 230.9757 144.7108 229 154.1333 C225.2963 171.7972 228 196.1333 228 196.1333 "/>
<path id="9" d="M211 153.1333 C211 153.1333 206.8114 152.31 205 153.1333 C202.8044 154.1313 200.7286 155.9477 200 158.1333 C198.9072 161.4118 199.3902 167.3711 200 168.1333 C200.3902 168.6211 208 168.1333 208 168.1333 "/>
<path id="10" d="M262 101.1333 C262 101.1333 264.7353 105.0209 268 107.1333 C272.7027 110.1763 273.8678 111.8384 279 112.1333 C313.5561 114.1193 327.384 113.5141 355 112.1333 C356.5261 112.057 356.8402 109.1564 359 108.1333 C365.3637 105.1189 369.1935 106.6289 374 103.1333 C377.8686 100.3198 381 92.1333 381 92.1333 "/>
<path id="11" d="M262 118.1333 C262 118.1333 263.7428 122.6285 266 124.1333 C269.856 126.704 271.7593 127.9237 277 128.1333 C318.7943 129.8051 324.5164 130.1668 366 128.1333 C372.1736 127.8307 375.8695 126.5484 379 123.1333 C384.0427 117.6322 388 104.1333 388 104.1333 "/>
<path id="12" d="M338 161.1333 C338 161.1333 334.2973 154.4756 330 151.1333 C326.429 148.3559 324.8185 147.8472 320 147.1333 C312.2668 145.9877 309.9868 145.5807 303 147.1333 C298.3421 148.1684 295.8115 149.4784 293 153.1333 C287.3138 160.5254 285.375 163.6334 283 173.1333 C280.8889 181.5777 281.2415 184.1209 283 193.1333 C284.9837 203.2998 285.8856 207.0705 291 214.1333 C294.3241 218.7237 297.8051 220.5846 304 222.1333 C313.6021 224.5339 316.3904 224.3964 327 223.1333 C336.1412 222.0451 338.7646 221.4746 346 217.1333 C351.8267 213.6373 355.0734 210.7651 357 205.1333 C360.2615 195.5998 359.6273 191.0529 359 179.1333 C358.7042 173.5127 358.1279 171.5782 355 167.1333 C349.6044 159.4659 347.9243 157.2608 340 152.1333 C332.453 147.25 321 145.1333 321 145.1333 "/>
<path id="13" d="M334 165.1333 C334 165.1333 323.8905 160.9552 318 162.1333 C309.9675 163.7398 306.2954 167.2697 299 172.1333 C297.6736 173.0176 297 174.4055 297 176.1333 C297 187.7963 297.0275 192.942 299 203.1333 C299.3439 204.9099 301.3008 206.8593 303 207.1333 C312.9357 208.7359 321.8278 210.9238 330 208.1333 C335.8618 206.1317 337.6895 200.8461 344 193.1333 C346.4505 190.1383 346.9906 189.4138 348 186.1333 C348.7358 183.742 349.0607 181.7907 348 180.1333 C342.8309 172.0566 332 161.1333 332 161.1333 "/>
<path id="14" d="M299 33.1333 C299 33.1333 298.4292 20.0604 300 16.1333 C300.5236 14.8243 303.6748 13.4551 307 13.1333 C317.9468 12.074 319.5051 12.3917 331 13.1333 C334.4145 13.3536 336.3713 13.5046 338 15.1333 C341.0764 18.2098 342.3678 20.9646 344 26.1333 C345.0126 29.34 344.9742 32.4632 344 34.1333 C343.0156 35.8209 337 38.1333 337 38.1333 "/>
<path id="15" d="M315 11.1333 C315 11.1333 317.4591 3.8668 319 2.1333 C319.4364 1.6424 322.8462 1.9026 323 2.1333 C323.3462 2.6526 322.404 6.544 323 8.1333 C323.3104 8.9611 326 10.1333 326 10.1333 "/>
<path id="16" d="M325 179.1333 C325 179.1333 317.6183 179.3089 317 180.1333 C315.9621 181.5172 315.7191 187.4818 316 191.1333 C316.0554 191.8534 317.1429 192.9191 318 193.1333 C320.0571 193.6476 323.828 193.4486 324 193.1333 C324.578 192.0736 324.821 185.9645 324 182.1333 C323.7281 180.8646 321 179.1333 321 179.1333 "/>
<path id="17" d="M302 34.1333 C302 34.1333 292.8965 49.6506 290 64.1333 C287.318 77.5433 289.0237 79.4883 290 94.1333 C290.4947 101.5535 293 109.1333 293 109.1333 "/>
<path id="18" d="M327 33.1333 C327 33.1333 335.4119 39.196 341 45.1333 C342.5276 46.7564 342.2785 47.5753 343 50.1333 C347.7379 66.9313 349.6116 67.4142 352 84.1333 C353.963 97.8742 352 113.1333 352 113.1333 "/>
<path id="19" d="M246 353.1333 C246 353.1333 242.0653 352.308 239 353.1333 C229.8545 355.5956 228.1368 355.3869 220 360.1333 C211.1289 365.3082 205.2864 368.646 203 374.1333 C200.7046 379.6423 201.8595 388.5064 205 396.1333 C207.3311 401.7945 210.8371 405.4102 217 408.1333 C229.1435 413.4991 232.6653 414.2571 248 415.1333 C318.4083 419.1567 322.7422 419.7534 392 418.1333 C405.071 417.8276 407.9278 415.6925 419 411.1333 C422.6617 409.6256 425.484 407.1001 426 404.1333 C428.4597 389.9902 428.6737 382.205 427 365.1333 C426.4584 359.6091 424.2165 355.8138 421 353.1333 C418.085 350.7042 414.9036 350.6394 409 350.1333 C397.9222 349.1838 386 350.1333 386 350.1333 "/>
</g>
</g>
</svg>
