<?xml version="1.0" encoding="utf-8"?>
<!DOCTYPE svg PUBLIC "-//W3C//DTD SVG 1.1//EN" "http://www.w3.org/Graphics/SVG/1.1/DTD/svg11.dtd">
<svg viewBox="0 0 800 800" preserveAspectRatio="xMinYMin meet" xmlns="http://www.w3.org/2000/svg" version="1.1">
<g fill="none" stroke="black" stroke-linecap="round" stroke-linejoin="round" stroke-width="1.2769">
<g transform="translate(187.3726,87.52) scale(2.3495) translate(-157,-104.4167)">
<path id="0" d="M204 265.4167 C204 265.4167 202.0541 288.3629 204 310.4167 C206.4992 338.7407 208.62 352.8167 213 367.4167 C213.4182 368.8106 217.7142 370.2924 222 370.4167 C250.2851 371.2365 272.4539 372.8473 282 369.4167 C283.883 368.74 285.1828 358.3671 286 347.4167 C287.6519 325.2812 288.6536 324.1892 287 302.4167 C285.7289 285.6808 282.2205 285.2288 280 268.4167 C278.792 259.2704 280 249.4167 280 249.4167 "/>
<path id="1" d="M207 266.4167 C207 266.4167 198.3574 268.0954 195 266.4167 C190.6634 264.2484 187.2751 260.7253 185 255.4167 C182.3421 249.215 182.0328 244.4619 183 238.4167 C183.5196 235.1694 185.5657 232.8697 189 230.4167 C194.8634 226.2285 196.4351 225.3079 204 223.4167 C219.4685 219.5496 220.6628 219.2765 237 218.4167 C258.0936 217.3065 262.6281 215.494 280 219.4167 C288.8156 221.4073 290.9146 225.8013 299 232.4167 C300.9346 233.9995 301.7451 235.2502 302 237.4167 C302.5658 242.2258 302.6679 248.0577 301 249.4167 C295.7156 253.7225 288.1528 255.9767 275 259.4167 C256.2325 264.3251 255.3477 264.6346 236 266.4167 C217.943 268.0798 203.5421 267.0305 199 266.4167 C198.9171 266.4055 199 261.4167 199 261.4167 "/>
<path id="2" d="M212 224.4167 C212 224.4167 210.6011 206.3734 211 190.4167 C211.071 187.5752 213 184.4167 213 184.4167 "/>
<path id="3" d="M273 217.4167 C273 217.4167 270.0309 177.7511 267 172.4167 C266.3867 171.3373 257.0447 171.6773 248 173.4167 C231.6326 176.5643 215 182.4167 215 182.4167 "/>
<path id="4" d="M211 186.4167 C211 186.4167 206.7233 188.4167 203 188.4167 C196.0189 188.4167 192.2021 188.4071 188 186.4167 C186.0723 185.5036 184.8762 182.7024 184 179.4167 C183.131 176.1581 182.6466 173.7625 184 171.4167 C188.509 163.601 190.83 160.3101 199 153.4167 C205.6561 147.8006 207.387 147.5269 216 144.4167 C224.6957 141.2766 225.6012 141.3336 235 140.4167 C245.6638 139.3763 247.425 138.4526 257 140.4167 C265.1131 142.0809 268.8466 143.9995 274 148.4167 C276.7156 150.7443 276.7968 153.6038 278 158.4167 C278.6563 161.0419 278.7537 162.5325 278 164.4167 C277.2966 166.1752 276.0255 167.7978 274 168.4167 C260.7591 172.4625 242 175.4167 242 175.4167 "/>
<path id="5" d="M211 144.4167 C211 144.4167 206.4346 142.6336 206 141.4167 C205.001 138.6196 204.2832 134.0956 206 130.4167 C209.9851 121.8772 212.4123 119.0043 220 111.4167 C224.3687 107.048 226.381 106.0556 232 104.4167 C236.802 103.0161 238.9867 103.3612 244 104.4167 C247.2762 105.1064 248.5886 105.8635 251 108.4167 C256.3277 114.0578 257.9349 115.5201 261 122.4167 C263.3081 127.6098 263 135.4167 263 135.4167 "/>
<path id="6" d="M272 196.4167 C272 196.4167 294.5562 195.9465 298 195.4167 C298.0608 195.4073 297.9681 192.4194 298 192.4167 C302.3431 192.0444 324.787 190.5214 333 192.4167 C334.426 192.7457 335.9402 196.9657 337 201.4167 C338.3031 206.8899 338.2871 209.3977 338 213.4167 C337.9484 214.1386 336.9675 215.1748 336 215.4167 C328.7435 217.2308 326.9306 217.9547 318 218.4167 C298.3238 219.4344 278 218.4167 278 218.4167 "/>
<path id="7" d="M218 207.4167 C218 207.4167 180.4692 206.7128 159 207.4167 C158.2484 207.4413 157.0482 208.6932 157 209.4167 C156.7076 213.8028 156.1346 217.235 158 222.4167 C160.0776 228.1879 162.9075 233.4973 166 234.4167 C173.6734 236.6979 182.0223 235.4132 195 233.4167 C199.7939 232.6792 200.6046 229.4509 205 228.4167 C207.6604 227.7907 212 229.4167 212 229.4167 "/>
</g>
</g>
</svg>
