<?xml version="1.0" encoding="utf-8"?>
<!DOCTYPE svg PUBLIC "-//W3C//DTD SVG 1.1//EN" "http://www.w3.org/Graphics/SVG/1.1/DTD/svg11.dtd">
<svg viewBox="0 0 800 800" preserveAspectRatio="xMinYMin meet" xmlns="http://www.w3.org/2000/svg" version="1.1">
<g fill="none" stroke="black" stroke-linecap="round" stroke-linejoin="round" stroke-width="1.0657">
<g transform="translate(164.9362,87.52) scale(2.8151) translate(-142,-75.4167)">
<path id="0" d="M189 124.4167 C189 124.4167 188.1944 113.3228 191 106.4167 C193.7544 99.6367 196.1362 97.0588 202 92.4167 C206.5029 88.8519 208.9352 87.76 215 87.4167 C233.2116 86.3858 251.3065 86.2508 255 89.4167 C257.7575 91.7803 257 123.4167 257 123.4167 "/>
<path id="1" d="M232 86.4167 L232 79.4167 "/>
<path id="2" d="M227 87.4167 L228 80.4167 "/>
<path id="3" d="M223 80.4167 C223 80.4167 233.8752 81.0614 240 80.4167 C240.7964 80.3328 241.8792 79.0208 242 78.4167 C242.141 77.7118 241.3332 75.4833 241 75.4167 C238.0848 74.8336 233.5796 74.7587 227 75.4167 C224.0862 75.7081 220.9957 77.4123 221 77.4167 C221.013 77.4297 231 79.4167 231 79.4167 "/>
<path id="4" d="M189 123.4167 C189 123.4167 197.8875 123.0792 198 123.4167 C199.0125 126.4542 198 150.4167 198 150.4167 "/>
<path id="5" d="M258 123.4167 C258 123.4167 239.7 122.4696 239 123.4167 C237.9272 124.8681 239.1749 145.0175 241 146.4167 C243.6028 148.4122 265.968 147.6078 269 146.4167 C269.468 146.2328 268.1905 138.0474 269 135.4167 C269.2377 134.644 271.2342 133.527 273 133.4167 C278.1103 133.0973 281.1386 132.9687 285 134.4167 C286.8332 135.1041 287.8956 136.7938 289 139.4167 C291.5914 145.5712 292.4738 146.5759 293 153.4167 C294.3976 171.5852 294.9738 176.2841 293 191.4167 C292.5438 194.9141 289.9629 197.7706 287 199.4167 C283.2806 201.483 278.9843 202.2135 275 201.4167 C271.84 200.7847 267.5292 197.216 267 195.4167 C266.359 193.2371 270.2431 184.5646 270 184.4167 C268.1698 183.3026 245.0833 180.3767 244 181.4167 C242.8324 182.5376 245.2299 205.3125 245 208.4167 C244.9981 208.4423 242 208.4167 242 208.4167 "/>
<path id="6" d="M199 150.4167 C199 150.4167 181.9038 151.6048 178 150.4167 C177.2322 150.183 177.1176 144.0453 176 143.4167 C173.153 141.8152 163.9572 140.6108 162 141.4167 C161.0039 141.8268 159.2096 146.0859 159 150.4167 C157.7855 175.5155 157.3544 196.0113 159 203.4167 C159.1138 203.929 166.2783 204.7315 171 204.4167 C172.2398 204.334 173.9184 203.0691 174 202.4167 C174.4765 198.605 172.3436 188.7917 173 188.4167 C175.8265 186.8015 201.4866 185.3385 202 186.4167 C204.8465 192.3942 203 251.4167 203 251.4167 "/>
<path id="7" d="M245 207.4167 C245 207.4167 247.7763 212.5514 248 217.4167 C249.7 254.3918 249 294.4167 249 294.4167 "/>
<path id="8" d="M203 249.4167 L203 293.4167 "/>
<path id="9" d="M215 158.4167 C215 158.4167 209.5801 160.773 209 162.4167 C207.7673 165.9094 207.9086 170.5055 209 175.4167 C209.4944 177.6414 212.3883 180.5041 213 180.4167 C216.3774 179.9342 227.1849 175.7286 230 172.4167 C231.5048 170.6464 230.8769 161.3667 230 160.4167 C229.1174 159.4606 222.019 159.1296 218 159.4167 C217.278 159.4682 216 161.4167 216 161.4167 "/>
<path id="10" d="M211 163.4167 C211 163.4167 216.15 166.0917 219 169.4167 C221.5333 172.3722 223 177.4167 223 177.4167 "/>
<path id="11" d="M210 177.4167 C210 177.4167 213.6021 176.9145 215 175.4167 C219.4873 170.6088 224 162.4167 224 162.4167 "/>
<path id="12" d="M294 153.4167 C294 153.4167 293.0036 168.1747 294 170.4167 C294.267 171.0175 301.4913 171.7346 302 171.4167 C302.2586 171.255 302.604 166.1069 302 165.4167 C301.1822 164.482 295 163.4167 295 163.4167 "/>
<path id="13" d="M304 162.4167 C304 162.4167 304.5882 172.593 305 173.4167 C305.0358 173.4883 308.6046 172.9109 309 172.4167 C309.3766 171.946 309 168.4167 309 168.4167 "/>
<path id="14" d="M299 158.4167 L304 164.4167 "/>
<path id="15" d="M305 164.4167 C305 164.4167 303.05 164.5167 303 164.4167 C302.8 164.0167 302.7561 160.6118 303 160.4167 C303.3811 160.1118 307.7629 160.061 308 160.4167 C308.6877 161.4482 309 169.4167 309 169.4167 "/>
<path id="16" d="M158 166.4167 L153 166.4167 "/>
<path id="17" d="M158 169.4167 L151 168.4167 "/>
<path id="18" d="M151 157.4167 L150 173.4167 "/>
<path id="19" d="M150 153.4167 C150 153.4167 143.5708 155.8459 142 157.4167 C141.4764 157.9403 141.7065 159.5092 142 161.4167 C142.6829 165.8553 143.0093 169.3022 144 170.4167 C144.4902 170.9682 148.9023 170.8871 150 170.4167 C150.4182 170.2375 151 167.4167 151 167.4167 "/>
<path id="20" d="M204 293.4167 L203 297.4167 "/>
</g>
</g>
</svg>
