<?xml version="1.0" encoding="utf-8"?>
<!DOCTYPE svg PUBLIC "-//W3C//DTD SVG 1.1//EN" "http://www.w3.org/Graphics/SVG/1.1/DTD/svg11.dtd">
<svg viewBox="0 0 800 800" preserveAspectRatio="xMinYMin meet" xmlns="http://www.w3.org/2000/svg" version="1.1">
<g fill="none" stroke="black" stroke-linecap="round" stroke-linejoin="round" stroke-width="1.2385">
<g transform="translate(121.4326,87.52) scale(2.4223) translate(-123,-79)">
<path id="0" d="M192 123 C192 123 202.6961 110.3039 214 99 C217.4403 95.5597 218.0951 94.8223 222 93 C224.6997 91.7402 225.5187 92.1832 229 92 C234.9234 91.6882 235.4928 90.9802 241 92 C248.3089 93.3535 249.9387 93.1718 256 97 C267.6833 104.3789 268.329 105.9387 279 116 C285.5725 122.1969 291.088 129.8714 291 130 C290.6641 130.491 278.3613 134.2553 266 135 C237.6633 136.707 235.8091 136.5449 208 135 C201.1809 134.6212 198.0501 133.7001 194 131 C191.732 129.488 190 123 190 123 "/>
<path id="1" d="M196 131 C196 131 199.3759 181.1337 199 230 C198.8822 245.3203 198.0209 245.8954 195 261 C192.5871 273.0647 189.8634 273.1206 188 285 C185.9837 297.8539 188.4686 300.2514 187 312 C186.709 314.3281 183.9532 316.9844 184 317 C184.8656 317.2885 196.0463 318.8851 208 319 C247.8089 319.3828 283.6324 319.8454 288 318 C288.1767 317.9253 279 289 279 289 "/>
<path id="2" d="M289 132 C289 132 290.1356 172.1191 287 211 C285.192 233.4191 281.6634 233.6938 279 256 C277.7249 266.6786 277.8387 267.5482 279 278 C279.7625 284.8623 280.4086 285.8454 283 292 C284.1044 294.6229 286.5056 294.7753 287 297 C288.0914 301.9112 287.0017 310.0003 287 310 C286.9934 309.9989 281 296 281 296 "/>
<path id="3" d="M291 155 C291 155 319.15 154.015 329 155 C329.6221 155.0622 330.881 157.1554 331 159 C331.7782 171.0622 332.5352 185.0131 331 186 C327.2852 188.3881 294.1766 186.6163 289 186 C288.9266 185.9913 289 181 289 181 "/>
<path id="4" d="M334 152 C334 152 337.1349 152.0563 338 153 C341.2286 156.5221 341.9548 158.3155 345 164 C349.3946 172.2032 350.216 172.9961 353 181 C353.8444 183.4276 353.5902 186.5943 353 187 C350.2191 188.9119 344.8103 190.498 337 192 C332.3953 192.8855 327.1344 192.1568 327 192 C326.944 191.9347 331 185 331 185 "/>
<path id="5" d="M340 157 L330 161 "/>
<path id="6" d="M194 158 C194 158 152.7889 153.7716 147 157 C144.2913 158.5106 141.1356 186.4847 142 187 C145.8642 189.3037 199 188 199 188 "/>
<path id="7" d="M147 154 C147 154 141.7348 154.1326 138 156 C130.5304 159.7348 125.5984 162.288 123 166 C121.8212 167.684 122.4115 172.2273 124 176 C125.8212 180.3252 127.2877 182.0302 131 185 C133.7189 187.1751 139 188 139 188 "/>
<path id="8" d="M231 176 C231 176 236.2036 171.1578 241 170 C249.0615 168.0541 257.402 167.2014 260 169 C262.86 170.98 264.9233 178.8033 267 188 C268.2109 193.3623 268.3808 196.4493 267 200 C265.9963 202.5808 263.5806 203.954 260 206 C257.2042 207.5976 256.423 207.7147 253 208 C244.8803 208.6766 240.8529 209.688 236 208 C233.4929 207.128 231.0566 203.7734 230 200 C228.1139 193.264 227.7605 188.9494 229 183 C229.609 180.077 235 176 235 176 "/>
<path id="9" d="M244 192 C244 192 245.5337 187.8798 247 187 C248.8573 185.8856 253.7027 185.6655 254 186 C254.62 186.6975 255.5201 192.3596 255 196 C254.7664 197.6355 253.0562 199.6831 252 200 C250.3151 200.5055 246.0472 200.0472 245 199 C243.4292 197.4292 242 190 242 190 "/>
<path id="10" d="M228 93 C228 93 228.4179 98.4885 227 103 C223.1312 115.3097 220.7223 116.0885 217 128 C216.0736 130.9646 217 135 217 135 "/>
<path id="11" d="M237 98 C237 98 239.7002 96.7668 240 97 C241.6492 98.2827 243.7222 100.7482 246 105 C251.0415 114.4108 251.4518 115.0005 255 125 C256.7914 130.0484 257 136 257 136 "/>
<path id="12" d="M222 150 L229 310 "/>
<path id="13" d="M250 212 C250 212 253.1433 263.5794 256 315 C256.1382 317.4881 256.0247 319.9835 256 320 C255.9926 320.0049 253.3142 318.3823 253 317 C251.34 309.6961 251 298 251 298 "/>
<path id="14" d="M267 139 C267 139 265.5561 172.5116 267 205 C267.529 216.9015 270.637 217.1411 271 229 C272.1132 265.3643 267.8729 267.5486 270 303 C270.76 315.6674 277 329 277 329 "/>
<path id="15" d="M250 171 L248 140 "/>
<path id="16" d="M228 308 L230 319 "/>
<path id="17" d="M343 177 C343 177 346.7675 175.7675 347 176 C347.8525 176.8525 350.0898 183.6409 350 184 C349.9845 184.0619 346.0309 184.6443 345 184 C343.7372 183.2107 342 179 342 179 "/>
<path id="18" d="M127 171 C127 171 132.8239 165.8432 134 166 C135.6589 166.2212 139.7525 170.1907 142 173 C142.5032 173.629 142.0822 175.981 142 176 C140.4572 176.356 129 176 129 176 "/>
<path id="19" d="M165 189 C165 189 168.459 191.1065 169 193 C170.8484 199.4693 168.9337 202.6203 171 210 C172.1061 213.9504 172.895 215.03 176 218 C183.7039 225.3689 186.0969 229.4315 194 232 C201.5965 234.4689 208.833 234.4206 216 231 C226.0585 226.1994 228.401 220.983 238 211 C240.0723 208.8448 241 205 241 205 "/>
<path id="20" d="M267 201 C267 201 269.4538 210.2889 274 217 C279.3664 224.9218 281.4959 229.2358 288 232 C296.571 235.6427 302.9777 235.538 314 234 C321.7634 232.9167 329.4809 229.5179 331 226 C334.6503 217.5466 333 190 333 190 "/>
<path id="21" d="M226 91 C226 91 230.8879 81.8727 234 79 C234.8157 78.2471 237.6394 78.1496 239 79 C243.6942 81.9338 250 89 250 89 "/>
<path id="22" d="M183 313 C183 313 162.5307 333.3132 162 334 C161.9702 334.0386 164.0447 334.9629 166 335 C240.9425 336.423 319.4551 337.0355 320 337 C320.0541 336.9965 310.7491 332.2992 304 326 C296.3259 318.8375 290 309 290 309 "/>
</g>
</g>
</svg>
