<?xml version="1.0" encoding="utf-8"?>
<!DOCTYPE svg PUBLIC "-//W3C//DTD SVG 1.1//EN" "http://www.w3.org/Graphics/SVG/1.1/DTD/svg11.dtd">
<svg viewBox="0 0 800 800" preserveAspectRatio="xMinYMin meet" xmlns="http://www.w3.org/2000/svg" version="1.1">
<g fill="none" stroke="black" stroke-linecap="round" stroke-linejoin="round" stroke-width="0.92646">
<g transform="translate(87.52,210.5691) scale(3.2381) translate(-141,-251.1333)">
<path id="0" d="M209 304.1333 C209 304.1333 212.4363 300.9453 216 300.1333 C249.8697 292.4162 252.3668 290.7525 288 286.1333 C305.3786 283.8806 322.3615 283.6956 324 286.1333 C328.3581 292.6173 326.7635 316.7164 329 347.1333 C329.2551 350.6029 329.5626 353.2331 329 354.1333 C328.6684 354.6638 326.4821 355.027 324 355.1333 C291.9652 356.5063 291.2627 354.5444 259 357.1333 C210.5357 361.0224 163.7139 368.2318 162 368.1333 C161.8385 368.124 170.1325 359.977 172 352.1333 C176.8963 331.569 173.2161 309.9399 177 305.1333 C178.8714 302.7562 209 305.1333 209 305.1333 "/>
<path id="1" d="M176 306.1333 C176 306.1333 174.1028 300.9541 171 298.1333 C163.9439 291.7187 161.2575 292.907 154 286.1333 C146.8111 279.4237 140.8287 270.4616 141 270.1333 C141.3724 269.4196 153.6422 264.122 166 263.1333 C226.6287 258.283 232.9334 263.0752 291 258.1333 C298.6831 257.4794 299.4035 253.5504 307 251.1333 C309.5006 250.3377 311.3523 250.1918 313 251.1333 C316.4522 253.106 317.7935 254.7454 321 259.1333 C327.0301 267.385 327.5125 268.1582 332 277.1333 C333.7186 280.5706 334.4487 284.1462 334 285.1333 C333.6088 285.9939 327 288.1333 327 288.1333 "/>
<path id="2" d="M174 349.1333 C174 349.1333 190.8742 350.003 207 348.1333 C224.9254 346.055 224.9623 343.2554 243 341.1333 C275.6176 337.296 309 336.1333 309 336.1333 "/>
<path id="3" d="M180 337.1333 C180 337.1333 234.6639 340.0927 286 338.1333 C298.2229 337.6668 311 332.1333 311 332.1333 "/>
<path id="4" d="M194 332.1333 C194 332.1333 232.857 333.2776 271 332.1333 C282.4379 331.7902 294 329.1333 294 329.1333 "/>
<path id="5" d="M183 327.1333 L287 324.1333 "/>
<path id="6" d="M194 322.1333 L281 321.1333 "/>
<path id="7" d="M183 319.1333 C183 319.1333 194.0715 315.7543 205 315.1333 C237.4781 313.288 271 314.1333 271 314.1333 "/>
<path id="8" d="M217 310.1333 L217 342.1333 "/>
<path id="9" d="M229 312.1333 L229 351.1333 "/>
<path id="10" d="M240 312.1333 L244 334.1333 "/>
<path id="11" d="M255 313.1333 L259 333.1333 "/>
<path id="12" d="M270 320.1333 L272 332.1333 "/>
<path id="13" d="M207 316.1333 L206 349.1333 "/>
<path id="14" d="M196 329.1333 L197 339.1333 "/>
</g>
</g>
</svg>
