<?xml version="1.0" encoding="utf-8"?>
<!DOCTYPE svg PUBLIC "-//W3C//DTD SVG 1.1//EN" "http://www.w3.org/Graphics/SVG/1.1/DTD/svg11.dtd">
<svg viewBox="0 0 800 800" preserveAspectRatio="xMinYMin meet" xmlns="http://www.w3.org/2000/svg" version="1.1">
<g fill="none" stroke="black" stroke-linecap="round" stroke-linejoin="round" stroke-width="1.7857">
<g transform="translate(87.52,136.24) scale(1.68) translate(-114,-75)">
<path id="0" d="M167 81 C167 81 172.0947 127.0344 174 173 C176.086 223.3242 175 274 175 274 "/>
<path id="1" d="M166 78 C166 78 294.3516 72.8733 416 75 C433.5891 75.3075 452 83 452 83 "/>
<path id="2" d="M452 83 C452 83 447.8091 108.0517 447 133 C444.8219 200.1587 446 268 446 268 "/>
<path id="3" d="M176 273 C176 273 195.8667 274.7544 214 272 C234.2811 268.9193 234.5938 263.9152 255 261 C282.5279 257.0674 283.5197 258.743 312 258 C340.9402 257.245 341.3756 256.653 370 258 C383.418 258.6314 384.5485 258.6594 397 262 C404.0425 263.8895 404.1747 267.6646 411 269 C425.3843 271.8143 443 271 443 271 "/>
<path id="4" d="M178 275 C178 275 173.9938 274.9298 173 276 C169.4022 279.8745 169.6441 283.0965 165 289 C140.4187 320.2474 130.006 325.7105 114 351 C111.2213 355.3903 112.5981 363.8367 115 368 C117.3336 372.0449 121.8023 374.1588 129 377 C139.8127 381.2682 141.1005 381.6117 153 383 C170.3997 385.03 171.1723 382.5545 189 384 C207.9762 385.5386 208.4704 388.0073 227 389 C235.6639 389.4641 236.4371 388.8731 245 387 C252.01 385.4666 252.1313 382.6507 259 382 C297.6194 378.3413 299.7771 381.2702 340 378 C361.0142 376.2915 361.085 373.0457 382 372 C430.4802 369.576 448.5281 373.7235 480 371 C482.1473 370.8142 485.0538 366.6271 486 363 C487.4838 357.3121 487.4838 353.6879 486 348 C485.0538 344.3729 482.1135 344.3026 480 340 C468.4535 316.4946 469.9477 314.5333 458 291 C453.714 282.5579 447 275 447 275 "/>
<path id="5" d="M255 324 C255 324 251.1753 354.9987 253 357 C254.8195 358.9956 269.6959 358.8893 286 358 C324.2948 355.9112 354.5561 353.5895 363 351 C363.3101 350.9049 363.1963 342.0771 361 335 C358.9951 328.5396 357.5718 326.8707 354 322 C353.0283 320.6749 351.842 320.1116 350 320 C337.038 319.2144 334.1317 318.6177 321 320 C316.734 320.4491 316.4675 323.2182 312 324 C297.4807 326.5409 296.3954 326.4691 281 327 C267.6528 327.4602 254 326 254 326 "/>
<path id="6" d="M257 346 C257 346 273.713 347.9109 289 346 C304.7647 344.0294 305.2377 340.1373 321 338 C333.8634 336.2558 335.3173 336.6992 348 338 C353.8295 338.5979 360 342 360 342 "/>
<path id="7" d="M307 342 L309 358 "/>
<path id="8" d="M180 282 C180 282 175.8408 294.3234 174 305 C173.5537 307.5887 174.6521 310.9348 175 311 C180.0754 311.9516 190.6156 311.8944 206 311 C233.4392 309.4047 233.541 306.9204 261 306 C322.7362 303.9306 323.0013 305.3924 385 305 C401.9988 304.8924 402.2896 303.8671 419 305 C431.4203 305.8421 442.5892 309.9029 444 309 C444.8047 308.485 445.6017 297.8095 444 289 C442.8715 282.7933 439.8258 276.4441 438 276 C432.0165 274.5445 422.4365 279.0199 407 280 C391.195 281.0035 390.9384 280.7052 375 280 C334.5457 278.21 334.2484 275 294 275 C244.3106 275 242.9214 275.9232 194 280 C184.0533 280.8289 179.6477 282.8485 174 285 C173.4475 285.2105 173 288 173 288 "/>
<path id="9" d="M178 297 C178 297 264.4465 295.7744 350 292 C365.9842 291.2948 366.062 288.9107 382 288 C400.7922 286.9262 401.9856 286.1364 420 288 C429.7755 289.0113 440 294 440 294 "/>
<path id="10" d="M418 280 L423 300 "/>
<path id="11" d="M394 276 L394 303 "/>
<path id="12" d="M374 282 L373 307 "/>
<path id="13" d="M346 281 L346 303 "/>
<path id="14" d="M325 282 L325 280 "/>
<path id="15" d="M322 270 L322 297 "/>
<path id="16" d="M306 289 L306 304 "/>
<path id="17" d="M287 283 L285 300 "/>
<path id="18" d="M268 280 C268 280 266.0102 279.9448 266 280 C265.2396 284.1064 263 307 263 307 "/>
<path id="19" d="M245 285 L237 305 "/>
<path id="20" d="M222 281 L218 341 "/>
<path id="21" d="M197 287 L197 306 "/>
<path id="22" d="M191 97 C191 97 189.8272 108.2774 191 119 C193.2798 139.8435 196.7245 140.1142 198 161 C200.6774 204.8422 197.6748 208.4766 199 250 C199.0754 252.3617 200.4006 254.9455 201 255 C222.0695 256.9154 244.0136 257.3974 287 258 C350.9485 258.8965 408.0466 265.9312 415 258 C424.0466 247.6812 422.6425 126.7822 415 112 C412.8909 107.9205 374.6522 114.2742 339 111 C328.3479 110.0217 327.8841 105.9684 317 103 C311.9262 101.6162 311.4835 102.0795 306 102 C277.125 101.5815 276.3713 99.9313 248 102 C229.1622 103.3736 228.8051 106.4189 210 109 C203.7253 109.8612 201.5748 109.8578 197 109 C195.7463 108.7649 194 106 194 106 "/>
</g>
</g>
</svg>
