<?xml version="1.0" encoding="utf-8"?>
<!DOCTYPE svg PUBLIC "-//W3C//DTD SVG 1.1//EN" "http://www.w3.org/Graphics/SVG/1.1/DTD/svg11.dtd">
<svg viewBox="0 0 800 800" preserveAspectRatio="xMinYMin meet" xmlns="http://www.w3.org/2000/svg" version="1.1">
<g fill="none" stroke="black" stroke-linecap="round" stroke-linejoin="round" stroke-width="1.4785">
<g transform="translate(87.52,148.3927) scale(2.0291) translate(-128,-64)">
<path id="0" d="M176 77 C176 77 179.0138 93.0243 180 109 C181.5004 133.306 178.4792 134.1926 181 158 C182.8915 175.8641 189 194 189 194 "/>
<path id="1" d="M178 81 C178 81 214.1588 81.6842 247 80 C251.3536 79.7767 251.5771 77.4782 256 77 C269.3329 75.5586 270.0016 76.1707 284 76 C351.9687 75.1711 400.4807 66.7674 420 75 C425.4092 77.2814 427.7865 106.741 431 138 C433.2048 159.4467 431 182 431 182 "/>
<path id="2" d="M189 193 C189 193 221.2452 194.5002 252 193 C261.3705 192.5429 261.6806 189.2118 271 189 C326.151 187.7466 327.6076 190.371 384 190 C403.4705 189.8719 403.6381 189.4894 423 188 C429.5047 187.4996 434.01 186.7654 436 186 C436.1668 185.9359 436 183 436 183 "/>
<path id="3" d="M433 181 L433 187 "/>
<path id="4" d="M191 195 C191 195 153.0599 242.1916 129 280 C126.1705 284.4464 126.4151 291.7624 128 294 C130.7128 297.8298 136.9801 301.806 146 304 C171.5802 310.2222 174.1637 310.8341 202 312 C268.7063 314.794 273.0178 314.5091 337 312 C345.6425 311.6611 346.0235 307.7098 355 306 C366.4327 303.8223 368.2741 307.165 379 304 C397.1983 298.63 405.4057 297.5133 416 288 C423.6606 281.1211 423.3636 273.9091 428 260 C430.125 253.625 430 246 430 246 "/>
<path id="5" d="M434 187 L428 255 "/>
<path id="6" d="M177 74 C177 74 231.4371 73.085 283 70 C288.4259 69.6754 288.615 67.394 294 67 C308.399 65.9464 309.2016 67.8705 324 67 C334.4459 66.3855 334.5655 64.3727 345 64 C376.1445 62.8877 377.7819 62.4302 408 64 C414.8148 64.354 417.1896 65.3276 422 68 C424.1746 69.2081 425.5197 71.4385 426 74 C426.6982 77.7236 425 84 425 84 "/>
<path id="7" d="M303 72 C303 72 303.5541 74.7325 304 75 C304.6369 75.3822 307.9694 75.0611 308 75 C308.0458 74.9083 306.7854 71.7854 306 71 C305.7382 70.7382 304.05 70.9 304 71 C303.8 71.4 303.7561 74.8049 304 75 C304.3811 75.3049 309 75 309 75 "/>
<path id="8" d="M197 206 L186 227 "/>
<path id="9" d="M199 207 C199 207 272.2788 210.0008 345 209 C380.9036 208.5059 412.5317 202.5328 417 204 C417.2455 204.0806 412 231 412 231 "/>
<path id="10" d="M189 226 C189 226 179.737 242.9695 180 243 C187.1274 243.8269 276.5283 243.4392 370 247 C379.9062 247.3774 380.2309 250.2079 390 251 C398.1322 251.6594 402.9074 252.2168 407 250 C410.1496 248.294 411.8406 243.5528 414 238 C414.8801 235.737 414 232 414 232 "/>
<path id="11" d="M236 258 L230 303 "/>
<path id="12" d="M236 255 C236 255 304.3492 250.7435 311 255 C313.7242 256.7435 311 303 311 303 "/>
<path id="13" d="M231 304 L313 302 "/>
<path id="14" d="M193 222 C193 222 218.047 226.5071 243 228 C276.2283 229.988 278.0806 227.6882 310 229 C312.8958 229.119 313.1295 230.9264 316 231 C350.1538 231.8757 352.4457 232.4365 388 231 C401.4127 230.4581 415 227 415 227 "/>
<path id="15" d="M220 211 C220 211 220.3523 216.8913 219 222 C215.9847 233.3912 211 245 211 245 "/>
<path id="16" d="M250 208 L249 243 "/>
<path id="17" d="M282 209 L281 244 "/>
<path id="18" d="M318 213 L321 246 "/>
<path id="19" d="M348 211 L347 246 "/>
<path id="20" d="M378 208 L388 254 "/>
</g>
</g>
</svg>
