<?xml version="1.0" encoding="utf-8"?>
<!DOCTYPE svg PUBLIC "-//W3C//DTD SVG 1.1//EN" "http://www.w3.org/Graphics/SVG/1.1/DTD/svg11.dtd">
<svg viewBox="0 0 800 800" preserveAspectRatio="xMinYMin meet" xmlns="http://www.w3.org/2000/svg" version="1.1">
<g fill="none" stroke="black" stroke-linecap="round" stroke-linejoin="round" stroke-width="2.3906">
<g transform="translate(87.52,170.9735) scale(1.2549) translate(-59.8,-58.8)">
<path id="0" d="M173.8 77.8 L390.8 82.8 "/>
<path id="1" d="M390.8 83.8 C390.8 83.8 394.3767 131.0855 393.8 177.8 C393.3823 211.6375 388.8 245.8 388.8 245.8 "/>
<path id="2" d="M173.8 77.8 C173.8 77.8 173.9911 133.8437 171.8 183.8 C171.6321 187.6291 169.0894 187.9219 168.8 191.8 C166.7185 219.6924 166.8 250.8 166.8 250.8 "/>
<path id="3" d="M167.8 249.8 C167.8 249.8 392.8 250.8 392.8 250.8 C392.8 250.8 389.8209 250.873 389.8 250.8 C389.6366 250.228 390.8 243.8 390.8 243.8 "/>
<path id="4" d="M162.8 77.8 C162.8 77.8 160.005 86.8834 159.8 95.8 C158.03 172.7931 158.9028 247.8419 158.8 251.8 C158.7987 251.8487 155.8065 249.8 155.8 249.8 C155.7978 249.8 156.8 251.8 156.8 251.8 "/>
<path id="5" d="M159.8 84.8 C159.8 84.8 163.4261 78.5705 164.8 72.8 C165.7375 68.8627 165.2531 66.0656 164.8 63.8 C164.7295 63.4476 162.8 62.8959 162.8 62.8 C162.8 62.5122 164.8 59.8 164.8 59.8 "/>
<path id="6" d="M165.8 58.8 C165.8 58.8 281.8142 57.8695 395.8 58.8 C403.2419 58.8607 407.5198 58.4144 410.8 60.8 C414.2251 63.291 417.2725 68.2724 417.8 74.8 C420.8811 112.9286 417.2404 132.3507 418.8 159.8 C418.8592 160.8415 422.8 162.8 422.8 162.8 "/>
<path id="7" d="M419.8 155.8 L418.8 294.8 "/>
<path id="8" d="M155.8 252.8 C155.8 252.8 152.4737 253.2343 150.8 254.8 C138.3143 266.4801 136.4765 270.9019 124.8 281.8 C123.6749 282.8501 121.8169 281.783 120.8 282.8 C114.4949 289.105 114.2458 292.6644 106.8 299.8 C102.9286 303.5101 100.8201 302.1819 96.8 305.8 C91.3703 310.6867 92.4908 313.032 86.8 317.8 C74.6208 328.0042 59.8 336.8 59.8 336.8 "/>
<path id="9" d="M59.8 339.8 C59.8 339.8 62.9199 341.7228 65.8 341.8 C116.2437 343.1512 120.2116 340.3627 171.8 342.8 C182.1307 343.2881 182.442 346.6981 192.8 347.8 C205.3073 349.1306 208.3743 346.7574 218.8 347.8 C220.5243 347.9724 220.8023 350.2552 222.8 350.8 C230.6023 352.9279 231.8948 353.6118 240.8 353.8 C301.932 355.0915 304.6512 354.7113 364.8 353.8 C368.6953 353.741 372.8 351.8 372.8 351.8 "/>
<path id="10" d="M419.8 293.8 C419.8 293.8 415.1809 296.2828 412.8 299.8 C394.1656 327.3281 387.4355 342.0562 375.8 358.8 C375.4182 359.3494 372.7649 359.3514 371.8 358.8 C370.5249 358.0714 368.8 354.8 368.8 354.8 "/>
<path id="11" d="M59.8 341.8 L63.8 382.8 "/>
<path id="12" d="M63.8 382.8 C63.8 382.8 67.862 386.7398 71.8 387.8 C79.6111 389.903 81.7807 388.0567 89.8 389.8 C92.2587 390.3345 92.613 392.7616 94.8 392.8 C216.0131 394.9265 374.8 394.8 374.8 394.8 "/>
<path id="13" d="M374.8 356.8 C374.8 356.8 375.839 370.0249 374.8 381.8 C374.415 386.1637 371.5448 389.269 371.8 390.8 C371.9151 391.4904 376.8 393.8 376.8 393.8 "/>
<path id="14" d="M422.8 292.8 L424.8 320.8 "/>
<path id="15" d="M370.8 390.8 C370.8 390.8 386.7901 373.4589 398.8 356.8 C401.2741 353.3681 399.484 351.0068 401.8 347.8 C405.1645 343.1414 409.0803 343.0032 411.8 338.8 C413.3201 336.4507 411.5475 333.3051 412.8 330.8 C413.7578 328.8843 416.949 328.821 417.8 326.8 C420.0668 321.4164 419.1643 314.7078 420.8 311.8 C421.2288 311.0376 426.8 310.8 426.8 310.8 "/>
<path id="16" d="M390.8 268.8 C390.8 268.8 385.7223 272.9553 383.8 276.8 C382.3791 279.6417 383.9959 281.9298 382.8 284.8 C381.9948 286.7324 379.6712 286.6615 378.8 288.8 C374.7993 298.62 376.096 300.7916 371.8 311.8 C368.2085 321.0032 366.6952 323.6325 362.8 329.8 C362.3239 330.5538 360.3044 330.0434 359.8 330.8 C356.6616 335.5076 355.2801 341.6435 352.8 344.8 C352.4003 345.3087 348.8 344.8 348.8 344.8 "/>
<path id="17" d="M154.8 262.8 C154.8 262.8 148.674 267.887 144.8 273.8 C139.5255 281.8505 141.616 284.7117 135.8 291.8 C126.6647 302.9336 122.966 301.9329 112.8 312.8 C109.0668 316.7906 106.8 322.8 106.8 322.8 "/>
<path id="18" d="M108.8 324.8 C108.8 324.8 140.4997 323.8989 170.8 326.8 C186.7172 328.324 187.0564 333.1738 202.8 333.8 C273.0353 336.5934 275.5332 332.8979 346.8 333.8 C353.7412 333.8879 360.8 335.8 360.8 335.8 "/>
<path id="19" d="M154.8 262.8 C154.8 262.8 199.2867 262.6604 237.8 264.8 C241.121 264.9845 241.5514 267.7363 244.8 267.8 C311.9911 269.1175 390.8 267.8 390.8 267.8 "/>
<path id="20" d="M148.8 275.8 C148.8 275.8 189.8947 272.9299 228.8 275.8 C249.5482 277.3306 250.0192 283.3863 270.8 284.8 C322.0386 288.2856 375.8 285.8 375.8 285.8 "/>
<path id="21" d="M141.8 287.8 C141.8 287.8 155.5588 286.7405 165.8 287.8 C168.066 288.0344 168.3022 290.3004 170.8 290.8 C191.4957 294.9391 193.649 293.3698 215.8 297.8 C228.4032 300.3206 228.6306 304.2468 240.8 304.8 C302.8052 307.6184 369.8 304.8 369.8 304.8 "/>
<path id="22" d="M130.8 302.8 C130.8 302.8 161.4878 301.3053 190.8 303.8 C207.6774 305.2364 207.8816 308.7799 224.8 310.8 C240.8848 312.7206 241.8551 310.1391 257.8 311.8 C265.2256 312.5735 265.4338 315.0984 272.8 315.8 C285.7307 317.0315 286.4502 315.0147 299.8 315.8 C311.7537 316.5031 312.1603 316.472 323.8 318.8 C331.8437 320.4087 331.8922 322.6703 339.8 323.8 C352.1686 325.5669 365.8 324.8 365.8 324.8 "/>
<path id="23" d="M177.8 267.8 C177.8 267.8 166.9534 284.2834 154.8 298.8 C149.266 305.41 141.8 310.8 141.8 310.8 "/>
<path id="24" d="M206.8 266.8 C206.8 266.8 197.5738 277.7891 188.8 285.8 C187.1057 287.347 184.6228 286.9772 183.8 287.8 C183.4474 288.1526 183.9875 290.6125 183.8 290.8 C183.6125 290.9875 181.283 290.296 180.8 290.8 C173.5486 298.3666 160.8 314.8 160.8 314.8 "/>
<path id="25" d="M227.8 266.8 C227.8 266.8 224.0803 275.5396 218.8 282.8 C208.3245 297.2037 207.4686 299.1314 195.8 310.8 C192.3681 314.2319 185.8 315.8 185.8 315.8 "/>
<path id="26" d="M254.8 263.8 C254.8 263.8 246.5087 277.1496 236.8 288.8 C229.2353 297.8776 225.4534 299.1489 219.8 305.8 C219.2607 306.4344 220.3028 308.2553 219.8 308.8 C216.2675 312.6269 207.8 318.8 207.8 318.8 "/>
<path id="27" d="M282.8 273.8 C282.8 273.8 274.0854 286.7079 263.8 297.8 C248.8055 313.9705 231.8 328.8 231.8 328.8 "/>
<path id="28" d="M306.8 276.8 C306.8 276.8 298.0553 295.7612 286.8 311.8 C278.5287 323.5866 266.8 333.8 266.8 333.8 "/>
<path id="29" d="M348.8 280.8 C348.8 280.8 345.0446 288.1978 339.8 293.8 C323.4568 311.2575 304.8 327.8 304.8 327.8 "/>
<path id="30" d="M372.8 280.8 C372.8 280.8 372.7723 290.8738 369.8 298.8 C365.6815 309.7826 363.9439 311.2002 357.8 320.8 C356.6491 322.5983 354.7634 322.1484 353.8 323.8 C351.8581 327.129 352.356 330.855 350.8 332.8 C350.1176 333.653 345.8 333.8 345.8 333.8 "/>
<path id="31" d="M420.8 279.8 C420.8 279.8 428.8764 272.3567 437.8 267.8 C451.7395 260.6819 453.8094 257.5488 467.8 255.8 C486.2876 253.489 489.6431 255.9709 509.8 258.8 C517.2609 259.8471 518.1707 260.2904 524.8 263.8 C534.5229 268.9474 535.9446 269.4683 543.8 276.8 C550.1079 282.6874 551.0264 284.2529 554.8 291.8 C557.4691 297.1382 557.3654 298.4979 557.8 304.8 C558.3243 312.402 558.2634 314.9463 556.8 320.8 C556.3497 322.6011 553.8767 322.6467 552.8 324.8 C550.2878 329.8244 551.9222 332.8562 548.8 336.8 C543.8851 343.0082 539.7142 342.0409 533.8 348.8 C526.4146 357.2405 520.8 368.8 520.8 368.8 "/>
<path id="32" d="M482.8 389.8 C482.8 389.8 474.4284 390.3586 473.8 389.8 C473.3034 389.3586 472.6727 384.5376 473.8 381.8 C475.4743 377.7338 476.8781 376.2605 480.8 372.8 C484.8146 369.2577 486.2024 367.4896 490.8 366.8 C503.4538 364.9019 511.8149 365.9576 520.8 366.8 C521.4832 366.864 521.7404 369.2702 522.8 369.8 C525.5247 371.1623 530.4282 370.8334 530.8 371.8 C532.6137 376.5157 533.428 385.1231 532.8 395.8 C532.5308 400.3758 531.4152 401.3743 528.8 405.8 C525.1368 411.9993 524.7102 413.6263 519.8 417.8 C515.8999 421.115 514.2628 421.0749 508.8 422.8 C505.1886 423.9404 504.391 424.2684 500.8 423.8 C493.7172 422.8761 492.0082 422.9041 485.8 419.8 C480.1396 416.9698 476.8411 415.1737 474.8 410.8 C471.5651 403.8681 472.1532 398.9829 471.8 389.8 C471.7177 387.659 473.8 384.8 473.8 384.8 "/>
<path id="33" d="M484.8 390.8 C484.8 390.8 496.1575 391.895 500.8 388.8 C510.085 382.61 520.8 366.8 520.8 366.8 "/>
<path id="34" d="M503.8 386.8 C503.8 386.8 506.1562 398.6051 510.8 406.8 C513.8356 412.1569 516.0881 413.5605 520.8 416.8 C522.6673 418.0838 526.8 417.8 526.8 417.8 "/>
<path id="35" d="M244.8 213.8 C244.8 213.8 241.399 207.0534 237.8 202.8 C236.6549 201.4466 234.321 201.8419 233.8 200.8 C232.3674 197.9347 231.9222 195.6897 231.8 190.8 C231.4354 176.2161 230.3614 173.9073 232.8 160.8 C233.9554 154.5897 236.6549 149.0274 239.8 147.8 C248.9622 144.2245 261.473 144.1836 273.8 144.8 C276.076 144.9138 278.6151 147.4302 279.8 149.8 C281.207 152.6141 281.1546 158.1617 280.8 158.8 C280.66 159.0519 275.4 159.1 274.8 158.8 C274.65 158.725 274.3705 156.1634 274.8 155.8 C278.1451 152.9695 281.1816 150.9653 287.8 147.8 C292.2978 145.6489 292.9054 145.4118 297.8 144.8 C304.4047 143.9744 305.659 143.5718 311.8 144.8 C317.0637 145.8527 318.4887 146.5152 322.8 149.8 C328.151 153.877 329.6947 155.3658 332.8 160.8 C334.8702 164.4228 333.1507 166.9517 334.8 170.8 C335.668 172.8254 338.3961 173.0227 338.8 174.8 C340.2997 181.3989 342.2161 186.7597 339.8 192.8 C335.0501 204.6747 330.7303 208.0964 320.8 219.8 C317.6597 223.5011 316.2157 224.4916 311.8 225.8 C304.1826 228.057 300.0604 228.5825 293.8 227.8 C291.4634 227.5079 288.1468 222.8991 287.8 222.8 C287.7933 222.7981 287.0903 225.7651 286.8 225.8 C281.6764 226.4148 269.956 226.6257 262.8 225.8 C262.1005 225.7193 261.8333 223.2697 260.8 222.8 C257.7561 221.4164 254.51 222.8325 251.8 220.8 C246.4445 216.7834 240.8 207.8 240.8 207.8 "/>
<path id="36" d="M281.8 148.8 C281.8 148.8 280.0259 144.3434 280.8 141.8 C282.9312 134.7973 285.5988 128.8129 288.8 125.8 C290.0495 124.624 297.8 125.8 297.8 125.8 "/>
<path id="37" d="M282.8 131.8 C282.8 131.8 277.3631 122.1728 272.8 119.8 C268.4392 117.5324 260.7956 118.0951 257.8 118.8 C257.1555 118.9516 255.7486 123.7633 255.8 123.8 C256.0944 124.0102 262.2825 122.6252 264.8 123.8 C267.3921 125.0096 268.2357 129.9025 270.8 130.8 C275.0485 132.287 284.8 130.8 284.8 130.8 "/>
<path id="38" d="M285.8 129.8 C285.8 129.8 303.5567 129.3005 309.8 129.8 C310.1018 129.8241 310.8383 131.7617 310.8 131.8 C310.6084 131.9916 308.7556 132.7301 306.8 132.8 C295.1704 133.2153 291.436 133.7595 282.8 132.8 C281.6006 132.6667 279.8 129.8 279.8 129.8 "/>
<path id="39" d="M186.8 98.8 C186.8 98.8 185.8 107.8 185.8 107.8 C185.8 107.7999 185.122 97.3737 185.8 96.8 C186.747 95.9987 198.0476 95.9897 198.8 96.8 C199.6726 97.7397 199.596 109.5617 198.8 110.8 C198.471 111.3117 189.8 110.8 189.8 110.8 "/>
<path id="40" d="M183.8 129.8 C183.8 129.8 182.8 144.8 182.8 144.8 C182.8 144.8 182.8513 138.5948 183.8 134.8 C184.0314 133.8744 185.3142 132.8 185.8 132.8 C187.0144 132.8 190.6484 134.1555 190.8 134.8 C191.5048 137.7956 190.6427 147.9942 189.8 149.8 C189.6474 150.1269 183.8 149.8 183.8 149.8 "/>
<path id="41" d="M179.8 173.8 C179.8 173.8 179.8797 192.0831 179.8 192.8 C179.7967 192.8293 177.8767 192.1836 177.8 191.8 C177.0219 187.9095 176.4725 183.3669 176.8 177.8 C176.8732 176.5551 177.9156 175.0721 178.8 174.8 C182.2212 173.7473 189.4161 173.3114 189.8 173.8 C190.5534 174.7589 190.8557 187.3924 189.8 188.8 C189.0962 189.7384 177.8 189.8 177.8 189.8 "/>
<path id="42" d="M183.8 213.8 C183.8 213.8 183.8 231.8 183.8 231.8 C183.8 231.8 181.804 217.1655 182.8 214.8 C183.1478 213.9739 189.21 212.5842 191.8 212.8 C192.7529 212.8794 194.5198 214.469 194.8 215.8 C196.0508 221.7411 196.6603 230.1749 195.8 231.8 C195.45 232.4611 186.5006 233.2203 185.8 232.8 C185.487 232.6122 185.3016 227.129 185.8 225.8 C185.9513 225.3965 188.8 224.8 188.8 224.8 "/>
<path id="43" d="M214.8 101.8 C214.8 101.8 214.8 118.8 214.8 118.8 C214.8 118.8 215.4475 103.716 216.8 101.8 C217.3185 101.0654 226.2344 101.1778 226.8 101.8 C227.4844 102.5528 227.1774 107.8943 226.8 112.8 C226.7288 113.7262 226.1299 114.7529 225.8 114.8 C222.4646 115.2765 214.3874 114.5558 212.8 114.8 C212.7624 114.8058 212.8 116.8 212.8 116.8 "/>
<path id="44" d="M213.8 137.8 C213.8 137.8 214.8 149.8 214.8 149.8 C214.8 149.8 213.2682 137.3802 213.8 136.8 C214.2401 136.3198 225.2696 136.9159 225.8 137.8 C227.029 139.8484 226.7266 150.0051 225.8 156.8 C225.6337 158.0192 222.9103 159.8662 222.8 159.8 C221.0353 158.7412 214.5315 153.6638 210.8 147.8 C208.6578 144.4337 208.8 137.8 208.8 137.8 "/>
<path id="45" d="M209.8 185.8 C209.8 185.8 212.8028 188.5562 213.8 190.8 C214.3885 192.1242 214.1822 194.1631 213.8 194.8 C213.5325 195.2458 210.9994 195.9994 210.8 195.8 C208.8057 193.8057 204.1503 188.5259 202.8 183.8 C202.0033 181.0117 203.767 175.7297 204.8 174.8 C205.6182 174.0636 212.0951 174.031 212.8 174.8 C214.2179 176.3468 215.1254 181.4033 215.8 186.8 C216.0112 188.4898 215.3019 190.5908 214.8 190.8 C212.6511 191.6954 203.8 191.8 203.8 191.8 "/>
<path id="46" d="M214.8 219.8 C214.8 219.8 214.8009 226.7995 214.8 226.8 C214.7997 226.8001 214.1114 222.5485 212.8 220.8 C211.9257 219.6343 209.125 219.6125 208.8 218.8 C208.0778 216.9944 208.5969 210.9016 208.8 210.8 C209.2317 210.5841 217.7342 212.2497 218.8 213.8 C220.2773 215.9487 220.5153 225.5481 219.8 226.8 C219.4464 227.4187 214.0286 228.2967 210.8 227.8 C209.1716 227.5495 206.8 224.8 206.8 224.8 "/>
</g>
</g>
</svg>
