<?xml version="1.0" encoding="utf-8"?>
<!DOCTYPE svg PUBLIC "-//W3C//DTD SVG 1.1//EN" "http://www.w3.org/Graphics/SVG/1.1/DTD/svg11.dtd">
<svg viewBox="0 0 800 800" preserveAspectRatio="xMinYMin meet" xmlns="http://www.w3.org/2000/svg" version="1.1">
<g fill="none" stroke="black" stroke-linecap="round" stroke-linejoin="round" stroke-width="1.0033">
<g transform="translate(87.52,123.4029) scale(2.9902) translate(-138,-125.4167)">
<path id="0" d="M191 220.4167 C191 220.4167 188.082 193.3443 191 169.4167 C192.8435 154.3003 195.3845 147.6056 201 138.4167 C202.8662 135.3629 206.9372 134.764 213 133.4167 C228.7735 129.9115 229.5689 129.3129 246 128.4167 C284.0519 126.3411 297.5374 125.8641 323 127.4167 C324.7758 127.525 326.6202 130.1971 328 133.4167 C333.6403 146.5773 335.991 148.0669 338 162.4167 C342.729 196.1954 342 233.4167 342 233.4167 "/>
<path id="1" d="M191 213.4167 C191 213.4167 195.2745 229.2397 197 229.4167 C230.8725 232.8908 347 229.4167 347 229.4167 "/>
<path id="2" d="M200 228.4167 C200 228.4167 192.6844 238.2925 184 246.4167 C161.9391 267.0542 138 286.4167 138 286.4167 "/>
<path id="3" d="M345 229.4167 C345 229.4167 344.9294 235.0049 343 237.4167 C338.3373 243.2451 334.9242 242.6593 329 249.4167 C303.4142 278.6005 291.6583 298.5884 279 310.4167 C278.1409 311.2195 273.4829 307.09 268 306.4167 C218.2688 300.3093 211.4233 304.6531 165 296.4167 C154.752 294.5985 144 284.4167 144 284.4167 "/>
<path id="4" d="M153 276.4167 C153 276.4167 152.803 278.3182 153 278.4167 C161.1764 282.5048 169.8857 288.2824 187 293.4167 C203.8031 298.4576 205.1304 298.3337 223 299.4167 C253.9592 301.293 286 299.4167 286 299.4167 "/>
<path id="5" d="M163 267.4167 C163 267.4167 169.7656 272.7995 177 276.4167 C184.4299 280.1316 184.9923 281.2636 193 282.4167 C245.5778 289.9879 302 294.4167 302 294.4167 "/>
<path id="6" d="M178 257.4167 C178 257.4167 191.3164 264.17 205 268.4167 C219.9248 273.0485 220.5493 273.8238 236 275.4167 C268.2974 278.7463 302 278.4167 302 278.4167 "/>
<path id="7" d="M194 238.4167 C194 238.4167 202.8671 247.8191 212 253.4167 C217.1894 256.5973 218.5874 256.671 225 257.4167 C239.3425 259.0844 240.2514 256.7214 255 258.4167 C283.4219 261.6836 312 267.4167 312 267.4167 "/>
<path id="8" d="M204 228.4167 C204 228.4167 213.9199 234.5015 224 236.4167 C262.4515 243.7224 291.1723 245.1718 304 247.4167 C304.0822 247.4311 303.9715 250.411 304 250.4167 C304.2185 250.4604 306.757 248.4167 309 248.4167 C319.7666 248.4167 333 250.4167 333 250.4167 "/>
<path id="9" d="M160 287.4167 C160 287.4167 168.7179 287.3699 173 284.4167 C180.8783 278.9834 180.3362 274.7476 189 267.4167 C199.4186 258.601 202.0063 260.3 212 251.4167 C219.3088 244.9199 225 235.4167 225 235.4167 "/>
<path id="10" d="M194 298.4167 C194 298.4167 201.3197 295.0969 206 290.4167 C211.6163 284.8003 210.4164 282.5079 216 276.4167 C221.0614 270.8952 223.3314 272.1523 228 266.4167 C240.2152 251.4095 251 233.4167 251 233.4167 "/>
<path id="11" d="M230 304.4167 C230 304.4167 243.4534 290.1243 254 274.4167 C266.6801 255.5315 277 234.4167 277 234.4167 "/>
<path id="12" d="M258 304.4167 C258 304.4167 276.7442 283.04 291 260.4167 C299.1828 247.4309 304 231.4167 304 231.4167 "/>
<path id="13" d="M321 236.4167 L319 247.4167 "/>
<path id="14" d="M316 240.4167 L335 237.4167 "/>
<path id="15" d="M220 134.4167 C220 134.4167 212.0238 136.7562 209 140.4167 C204.2682 146.1447 202.9448 148.8596 201 157.4167 C195.7716 180.4217 196.1016 182.2481 194 206.4167 C193.1564 216.118 195 226.4167 195 226.4167 "/>
<path id="16" d="M313 125.4167 C313 125.4167 319.5062 130.176 323 135.4167 C325.8649 139.714 325.9038 140.8446 327 146.4167 C331.7962 170.7975 329.3548 172.1422 335 196.4167 C339.2225 214.5735 347 232.4167 347 232.4167 "/>
<path id="17" d="M215 134.4167 C215 134.4167 216.708 136.3617 218 136.4167 C236.4269 137.2008 240.619 137.542 262 136.4167 C268.3938 136.0802 268.5472 133.9658 275 133.4167 C291.593 132.0045 293.2681 133.9515 309 132.4167 C312.3647 132.0884 316 129.4167 316 129.4167 "/>
<path id="18" d="M224 202.4167 C224 202.4167 224.2214 191.3095 226 182.4167 C226.4882 179.9755 228.8948 177.3933 229 177.4167 C229.4208 177.5102 233.8696 181.0256 235 184.4167 C237.2189 191.0733 237 201.4167 237 201.4167 "/>
<path id="19" d="M254 198.4167 C254 198.4167 251.6063 178.5821 252 176.4167 C252.0199 176.3075 256.5299 175.4716 258 176.4167 C261.3776 178.588 263.4577 180.7944 266 185.4167 C268.4 189.7803 269 196.4167 269 196.4167 "/>
<path id="20" d="M286 201.4167 C286 201.4167 281.5746 190.8862 281 183.4167 C280.7572 180.2601 283.9548 175.3816 284 175.4167 C284.45 175.7667 299 197.4167 299 197.4167 "/>
</g>
</g>
</svg>
