<?xml version="1.0" encoding="utf-8"?>
<!DOCTYPE svg PUBLIC "-//W3C//DTD SVG 1.1//EN" "http://www.w3.org/Graphics/SVG/1.1/DTD/svg11.dtd">
<svg viewBox="0 0 800 800" preserveAspectRatio="xMinYMin meet" xmlns="http://www.w3.org/2000/svg" version="1.1">
<g fill="none" stroke="black" stroke-linecap="round" stroke-linejoin="round" stroke-width="1.1569">
<g transform="translate(87.52,171.7988) scale(2.5932) translate(-55,-105)">
<path id="0" d="M99 105 C99 105 153.0284 109.4299 206 116 C217.0574 117.3715 217.0743 120.1107 228 121 C259.2859 123.5465 292 123 292 123 "/>
<path id="1" d="M98 107 L102 220 "/>
<path id="2" d="M105 221 C105 221 121.9891 219.7442 138 221 C146.8855 221.6969 147.0281 223.8785 156 225 C166.7299 226.3412 167.055 226.2257 178 226 C215.3784 225.2293 232.4275 224.3535 253 223 C253.3096 222.9796 254 221 254 221 "/>
<path id="3" d="M288 124 C288 124 292.5376 137.7457 293 151 C294.0027 179.7432 291 210 291 210 "/>
<path id="4" d="M255 223 C255 223 268.193 224.0507 278 223 C280.269 222.7569 283 220 283 220 "/>
<path id="5" d="M289 207 C289 207 290.1091 218.0074 289 222 C288.6755 223.1682 284 225 284 225 "/>
<path id="6" d="M103 221 C103 221 104.6493 234.2987 105 235 C105 235 107.1773 233.0618 109 233 C133.6451 232.1646 136.7165 231.564 164 233 C193.4244 234.5487 193.872 238.5105 223 239 C252.5381 239.4964 253.5006 237.3046 283 235 C284.9947 234.8442 286.8479 234.4184 287 234 C287.6198 232.2955 287 224 287 224 "/>
<path id="7" d="M106 233 C106 233 100.5204 241.9014 94 246 C84.7366 251.8227 81.1502 249.2743 71 255 C62.5647 259.7584 54.9048 267.9615 55 268 C55.5797 268.2343 86.5804 273.0574 118 274 C186.1305 276.0439 255 274 255 274 "/>
<path id="8" d="M289 234 C289 234 283.0011 246.3991 275 253 C264.8756 261.3526 261.3876 259.2922 249 267 C239.1106 273.1534 230 281 230 281 "/>
<path id="9" d="M117 131 L118 211 "/>
<path id="10" d="M118 129 C118 129 133.0735 129.3332 147 132 C156.0172 133.7267 155.9976 136.3796 165 138 C180.3532 140.7636 181.0206 140.449 197 141 C238.8279 142.4423 281 142 281 142 "/>
<path id="11" d="M119 211 C119 211 162.5858 213.7125 206 214 C237.923 214.2114 270 212 270 212 "/>
<path id="12" d="M280 142 C280 142 281.6246 156.7324 280 170 C278.7389 180.2988 275.2083 180.8506 274 191 C272.8381 200.7599 275 212 275 212 "/>
<path id="13" d="M192 119 C192 119 190.192 125.97 191 129 C191.5257 130.9715 194.2861 133.6327 196 134 C198.4196 134.5185 204.5726 132.8549 205 132 C205.8878 130.2245 204.9554 119.4862 204 118 C203.6644 117.478 199.2758 117.244 196 118 C193.6691 118.5379 191 121 191 121 "/>
<path id="14" d="M111 248 C111 248 122.2461 247.4268 132 249 C136.9067 249.7914 136.9959 251.9277 142 253 C150.4938 254.8201 151.1011 255.0802 160 255 C206.0369 254.5853 250.4841 251.7367 253 252 C253.1559 252.0163 246 264 246 264 "/>
<path id="15" d="M110 246 C110 246 105.6367 250.5596 101 253 C96.7673 255.2277 92.9532 254.0468 91 256 C89.0468 257.9532 87.8984 265.9492 88 266 C89.1681 266.5841 99.8224 264.8594 111 266 C123.8835 267.3146 124.2721 270.8086 137 271 C189.2072 271.7851 244 268 244 268 "/>
<path id="16" d="M110 250 C110 250 107.5985 255.1168 108 256 C108.6452 257.4194 111.8174 259.6739 115 261 C116.7519 261.7299 119.0951 261.7404 120 261 C122.4186 259.0212 126 252 126 252 "/>
<path id="17" d="M126 258 C126 258 136.474 263.2861 138 263 C138.7587 262.8577 142 255 142 255 "/>
<path id="18" d="M142 260 C142 260 161.5474 262.4316 165 262 C165.2466 261.9692 166 257 166 257 "/>
<path id="19" d="M155 263 L153 265 "/>
<path id="20" d="M169 265 C169 265 177.2336 265.6898 178 265 C178.7749 264.3026 179 256 179 256 "/>
<path id="21" d="M184 265 C184 265 191.8997 265.9169 193 265 C194.3856 263.8453 196 255 196 255 "/>
<path id="22" d="M200 267 C200 267 208.3764 265.8574 209 265 C209.6037 264.17 208 256 208 256 "/>
<path id="23" d="M198 258 L207 260 "/>
<path id="24" d="M224 259 C224 259 235.5708 258.4849 236 259 C236.4435 259.5323 234.535 270.6433 234 271 C233.6076 271.2616 224 267 224 267 "/>
<path id="25" d="M219 257 C219 257 223.0173 264.9712 223 265 C222.9963 265.0062 219.3618 262.5933 216 262 C211.5351 261.2121 206 262 206 262 "/>
<path id="26" d="M254 277 C254 277 260.5455 270.0909 268 265 C280.7382 256.3007 285.0123 255.7773 295 249 C295.8009 248.4565 296 246 296 246 "/>
<path id="27" d="M291 236 L293 251 "/>
</g>
</g>
</svg>
