<?xml version="1.0" encoding="utf-8"?>
<!DOCTYPE svg PUBLIC "-//W3C//DTD SVG 1.1//EN" "http://www.w3.org/Graphics/SVG/1.1/DTD/svg11.dtd">
<svg viewBox="0 0 800 800" preserveAspectRatio="xMinYMin meet" xmlns="http://www.w3.org/2000/svg" version="1.1">
<g fill="none" stroke="black" stroke-linecap="round" stroke-linejoin="round" stroke-width="1.0753">
<g transform="translate(87.52,140.53) scale(2.79) translate(-149,-173)">
<path id="0" d="M167 173 C167 173 315.8281 172.7725 349 176 C349.8115 176.079 351.67 183.5753 352 191 C353.6364 227.8184 353 266 353 266 "/>
<path id="1" d="M167 174 C167 174 168.4397 219.4691 168 263 C167.9505 267.9015 165.8911 272.9926 166 273 C180.7188 274.0036 259.8291 275.4501 344 275 C348.2637 274.9772 353 272 353 272 "/>
<path id="2" d="M166 277 C166 277 165.0447 292.3137 162 307 C156.5983 333.0553 148.0315 358.4144 149 359 C154.1993 362.1438 198.5026 359.221 248 359 C310.499 358.721 360.274 360.3797 373 358 C373.2149 357.9598 373.3159 346.5501 371 336 C364.4451 306.1386 355 276 355 276 "/>
<path id="3" d="M173 178 L168 244 "/>
<path id="4" d="M173 179 C173 179 247.9261 177.5617 322 178 C331.9491 178.0589 341.721 178.9203 342 180 C345.4164 193.2199 348.8855 256.7149 345 267 C344.2318 269.0336 326.3871 270 308 270 C257.8081 270 256.8212 266.2831 207 267 C188.2119 267.2703 171.5864 273.5916 169 272 C167.6043 271.1411 168 243 168 243 "/>
<path id="5" d="M171 280 C171 280 185.3259 279.3259 186 280 C186.4943 280.4943 185.2501 292.0441 184 293 C182.4297 294.2008 170.5142 294.041 169 293 C168.1357 292.4058 168 282 168 282 "/>
<path id="6" d="M196 281 C196 281 202.7163 279.7264 206 280 C206.7175 280.0598 207.8918 281.1887 208 282 C208.6204 286.6529 208.6695 294.2696 208 295 C207.5322 295.5103 198.0763 295.1591 197 294 C195.574 292.4643 195 281 195 281 "/>
<path id="7" d="M213 289 C213 289 215.4342 282.3796 217 282 C225.0371 280.0516 243.0156 279.9709 246 281 C246.395 281.1362 246.534 291.7711 246 292 C242.7797 293.3801 224.9909 293.2411 218 293 C217.7328 292.9908 217 291 217 291 "/>
<path id="8" d="M268 283 C268 283 264.25 282.75 264 283 C263.75 283.25 263.8483 286.9554 264 287 C266.2302 287.6559 280.6327 288.1049 281 288 C281.0345 287.9901 279.4424 283.7868 278 283 C275.8478 281.8261 270 282 270 282 "/>
<path id="9" d="M195 345 C195 345 291.0825 343.7536 309 345 C309.2446 345.017 310.1923 351.2696 310 353 C309.9702 353.2681 308.9603 353.9071 308 354 C294.6297 355.2939 293.4801 355.7014 279 356 C245.0949 356.6991 244.205 357.2148 211 356 C204.1101 355.7479 199.7154 354.6293 197 353 C196.2094 352.5257 196 347 196 347 "/>
<path id="10" d="M315 286 C315 286 313.8384 290.8384 314 291 C314.2423 291.2423 319.625 291.375 320 291 C320.375 290.625 320.3689 285.4426 320 285 C319.7439 284.6926 315 285 315 285 "/>
<path id="11" d="M338 284 C338 284 332.6 283.7 332 284 C331.85 284.075 331.8875 286.9625 332 287 C333.0125 287.3375 340.9108 287.0255 341 287 C341.0142 286.996 339 285 339 285 "/>
<path id="12" d="M352 283 C352 283 348.3266 283.5101 348 284 C347.5546 284.668 347.7191 288.8244 348 289 C348.7191 289.4494 355.945 289.0687 356 289 C356.0155 288.9807 352 284 352 284 "/>
<path id="13" d="M323 307 C323 307 314 306.5 313 307 C312.75 307.125 312.802 311.9293 313 312 C314.552 312.5543 325.9927 312.4649 327 312 C327.1273 311.9412 326 306 326 306 "/>
<path id="14" d="M339 304 C339 304 335.2316 304.5368 335 305 C334.4596 306.0807 334.5889 311.7122 335 312 C335.8389 312.5872 344.7704 312.2296 345 312 C345.0918 311.9082 342 305 342 305 "/>
<path id="15" d="M358 304 C358 304 354.173 304.5674 354 305 C353.4011 306.4973 353.7618 312.9279 354 314 C354.0118 314.0529 355.9904 314.0481 356 314 C356.2404 312.7981 356 304 356 304 "/>
<path id="16" d="M326 328 C326 328 324.0345 327.9138 324 328 C323.7845 328.5388 323.5763 332.5763 324 333 C324.5932 333.5932 327.0211 333.7021 330 334 C331.9533 334.1953 333.9302 334.1396 334 334 C334.192 333.616 333.9835 330.2129 333 328 C332.3387 326.512 331.3114 325.4371 330 325 C328.0329 324.3443 324 325 324 325 "/>
<path id="17" d="M345 325 C345 325 343.025 324.925 343 325 C342.775 325.675 342.64 330.73 343 331 C343.64 331.48 350.9418 331.1309 351 331 C351.1182 330.7341 347 322 347 322 "/>
<path id="18" d="M327 342 C327 342 356.104 341.0555 360 342 C360.229 342.0555 360.3029 349.906 360 350 C356.4238 351.1099 334.8873 352.5047 331 351 C330.0446 350.6302 329 338 329 338 "/>
<path id="19" d="M169 344 C169 344 166.0462 343.8767 166 344 C165.6712 344.8767 165.6147 351.8187 166 352 C167.7397 352.8187 182.3255 352.3854 183 352 C183.0623 351.9644 181.4612 344.8767 180 344 C177.6395 342.5837 168 343 168 343 "/>
<path id="20" d="M166 327 C166 327 161.7889 327.1125 161 328 C159.4543 329.7389 157.903 335.9294 158 336 C158.4819 336.3505 171.3132 336.4007 172 336 C172.1022 335.9404 170.8097 330.1336 170 329 C169.7941 328.7118 167 329 167 329 "/>
<path id="21" d="M192 329 C192 329 182.6906 328.3785 182 329 C181.4406 329.5035 181.55 337.775 182 338 C183.8 338.9 199.6395 338.2218 200 338 C200.0015 337.9991 195 330 195 330 "/>
</g>
</g>
</svg>
