<?xml version="1.0" encoding="utf-8"?>
<!DOCTYPE svg PUBLIC "-//W3C//DTD SVG 1.1//EN" "http://www.w3.org/Graphics/SVG/1.1/DTD/svg11.dtd">
<svg viewBox="0 0 800 800" preserveAspectRatio="xMinYMin meet" xmlns="http://www.w3.org/2000/svg" version="1.1">
<g fill="none" stroke="black" stroke-linecap="round" stroke-linejoin="round" stroke-width="0.87846">
<g transform="translate(87.52,145.5764) scale(3.4151) translate(-92,-200)">
<path id="0" d="M94 339 C94 339 92.6451 326.5179 93 318 C93.0522 316.7469 93.7995 315.8404 95 315 C98.1624 312.7863 99.3002 311.2691 103 311 C123.9736 309.4746 150 311 150 311 "/>
<path id="1" d="M150 311 C150 311 260.543 305.6869 275 308 C275.4273 308.0684 275.4983 325.02 275 331 C274.9747 331.3033 273 332 273 332 "/>
<path id="2" d="M92 331 C92 331 95.9321 337.3538 98 338 C100.3678 338.7399 106.9874 337.3501 108 336 C109.6521 333.7973 108.1826 328.0579 110 322 C110.8962 319.0126 112.0667 316.8592 114 316 C118.3177 314.081 121.0762 314.0989 128 314 C155.6319 313.6053 157.3519 315.8075 184 315 C188.8044 314.8544 189.1589 312.1936 194 312 C225.0941 310.7562 248.7053 309.2749 259 312 C260.2298 312.3255 260.1058 327.4292 262 330 C262.8534 331.1582 273 331 273 331 "/>
<path id="3" d="M112 318 C112 318 109.357 321.6675 109 325 C107.9759 334.5585 108.2708 337.2502 109 346 C109.11 347.3194 110.2521 348.8598 111 349 C115.0863 349.7662 121.4824 350.5829 125 349 C127.5251 347.8637 129.8672 344.1536 131 340 C132.3845 334.9234 132.6596 331.0567 131 327 C129.3811 323.0426 125.9165 320.0734 122 318 C119.7238 316.7949 114 318 114 318 "/>
<path id="4" d="M156 318 C156 318 149.9225 323.617 148 329 C145.5424 335.8813 144.983 343.9659 146 346 C146.5721 347.1442 155.81 349.6441 158 349 C159.4484 348.574 162.3666 344.6739 163 341 C164.501 332.2942 164.4187 327.377 163 320 C162.5973 317.9058 160.1284 316.3302 158 315 C157.2141 314.5088 155.2895 314.7105 155 315 C154.5175 315.4825 154 319 154 319 "/>
<path id="5" d="M208 313 C208 313 204.3211 312.187 203 313 C199.5855 315.1012 198.0741 316.808 195 321 C192.9604 323.7812 192.4207 324.845 192 328 C191.5528 331.354 192.159 334.4863 193 336 C193.3167 336.5701 196.4567 336.3481 197 337 C197.7314 337.8776 197.6293 341.9117 198 342 C201.3848 342.8059 211.6408 343.5262 218 342 C220.0477 341.5086 222.049 338.853 223 336 C224.5299 331.4104 225.3309 328.1589 224 324 C222.1906 318.3456 217.8323 313.4277 215 311 C214.4175 310.5007 210 312 210 312 "/>
<path id="6" d="M246 311 C246 311 240.01 313.7392 237 317 C234.9448 319.2265 234.6306 320.6365 234 324 C233.2495 328.0028 233.0575 329.7013 234 333 C234.6433 335.2515 236.7091 337.7234 238 338 C240.4364 338.5221 243.7356 337.7955 248 336 C252.5335 334.0912 253.1484 333.1513 257 330 C258.2335 328.9908 259 328.1217 259 327 C259 322.5131 257 315 257 315 "/>
<path id="7" d="M137 200 C137 200 132.6846 199.0525 130 200 C125.3527 201.6402 123.854 202.3295 120 206 C114.0322 211.6837 111.7701 213.7042 109 220 C107.3826 223.6759 108.2718 227.8445 109 231 C109.1782 231.7723 110.6612 232.8425 112 233 C117.7935 233.6816 119.859 234.2282 126 233 C131.2637 231.9473 132.3964 231.1498 137 228 C141.3012 225.0571 143.8343 223.4971 145 220 C146.7485 214.7544 146.2422 208.9687 145 204 C144.5924 202.3696 142.2438 200.9972 140 200 C138.6758 199.4115 136.9668 199.5166 136 200 C135.154 200.423 134 203 134 203 "/>
<path id="8" d="M107 228 C107 228 108.0436 243.0847 107 257 C106.596 262.3862 104 262.8411 104 268 C104 283.4766 104.2511 287.5991 107 301 C107.5745 303.8008 109.6877 306.0479 112 307 C115.8417 308.5819 124 308 124 308 "/>
<path id="9" d="M148 213 C148 213 146.6575 242.5615 147 259 C147.0152 259.7299 148.0353 260.7427 149 261 C154.1536 262.3743 156.0677 261.1945 162 263 C167.0226 264.5286 167.0559 267.1982 172 268 C201.7884 272.8306 206.6815 269.9181 236 275 C241.4129 275.9382 241.5278 279.3786 247 281 C254.106 283.1055 261.5382 281.2946 263 283 C264.9269 285.2481 265.6336 297.3535 265 302 C264.8754 302.9135 262.3223 304.5355 260 305 C255.853 305.8294 250 305 250 305 "/>
<path id="10" d="M143 308 C143 308 148.8088 295.0309 152 282 C154.6855 271.0341 155 259 155 259 "/>
<path id="11" d="M165 269 C165 269 160.5139 277.0521 159 285 C156.6703 297.2309 157 311 157 311 "/>
<path id="12" d="M186 272 C186 272 187.4115 289.238 186 303 C185.6171 306.7336 182 311 182 311 "/>
<path id="13" d="M197 275 C197 275 198.4102 285.9748 197 295 C196.0988 300.7677 192 307 192 307 "/>
<path id="14" d="M233 274 C233 274 233.2481 294.1466 233 297 C232.9981 297.0216 231.0483 296.8743 231 297 C230.1107 299.3123 228 310 228 310 "/>
<path id="15" d="M223 276 C223 276 224.1331 293.8921 223 309 C222.7519 312.3077 220 316 220 316 "/>
<path id="16" d="M114 322 C114 322 116.2914 334.2343 120 343 C121.1211 345.6498 125 348 125 348 "/>
<path id="17" d="M110 338 C110 338 114.239 337.7092 117 336 C123.9743 331.6826 131 325 131 325 "/>
<path id="18" d="M121 323 C121 323 121.6835 326.2912 121 328 C120.0978 330.2556 117.4944 330.7753 117 333 C115.9086 337.9112 117 346 117 346 "/>
<path id="19" d="M111 330 L130 332 "/>
<path id="20" d="M158 320 C158 320 158.2061 328.1755 157 333 C156.6586 334.3654 154.5258 334.5539 154 336 C152.9249 338.9564 153 343.9999 153 344 C153 344 153 339 153 339 "/>
<path id="21" d="M151 331 L165 335 "/>
<path id="22" d="M154 325 L159 348 "/>
<path id="23" d="M162 331 C162 331 156.8299 336.2832 152 339 C149.8141 340.2296 146 340 146 340 "/>
<path id="24" d="M201 317 C201 317 206.3281 323.2461 210 326 C210.6994 326.5246 212.5142 325.5142 213 326 C216.7248 329.7248 223 339 223 339 "/>
<path id="25" d="M223 339 C223 339 223.4925 324.925 223 320 C222.9689 319.6889 221.0168 318.9741 221 319 C219.6418 321.0991 217.1206 328.999 212 337 C209.5259 340.8658 205 344 205 344 "/>
<path id="26" d="M211 315 C211 315 209.7059 323.5297 211 330 C211.949 334.7449 216 340 216 340 C216 340 212.586 332.564 209 328 C207.9461 326.6587 206.1192 326 205 326 C204.1606 326 202 328 202 328 "/>
<path id="27" d="M198 332 C198 332 204.3016 327.2211 210 326 C216.8626 324.5294 226 326 226 326 "/>
<path id="28" d="M245 314 L245 336 "/>
<path id="29" d="M234 324 L257 324 "/>
<path id="30" d="M255 314 C255 314 250.3883 314.3803 249 316 C243.3078 322.6409 237 335 237 335 "/>
<path id="31" d="M239 318 L258 335 "/>
<path id="32" d="M192 272 C192 272 190.7076 280.6139 191 285 C191.0482 285.7235 193 287 193 287 "/>
<path id="33" d="M192 286 L198 287 "/>
<path id="34" d="M228 276 C228 276 227.4485 285.0809 228 286 C228.1985 286.3309 234 286 234 286 "/>
<path id="35" d="M156 269 C156 269 155.5584 278.7856 156 280 C156.0584 280.1606 160 280 160 280 "/>
</g>
</g>
</svg>
