<?xml version="1.0" encoding="utf-8"?>
<!DOCTYPE svg PUBLIC "-//W3C//DTD SVG 1.1//EN" "http://www.w3.org/Graphics/SVG/1.1/DTD/svg11.dtd">
<svg viewBox="0 0 800 800" preserveAspectRatio="xMinYMin meet" xmlns="http://www.w3.org/2000/svg" version="1.1">
<g fill="none" stroke="black" stroke-linecap="round" stroke-linejoin="round" stroke-width="0.91686">
<g transform="translate(92.4281,87.52) scale(3.272) translate(-140,-169.1333)">
<path id="0" d="M142 172.1333 C142 172.1333 140.0539 174.7888 140 177.1333 C139.1241 215.2332 138.6202 218.4305 140 259.1333 C140.608 277.0702 140.6992 281.27 144 295.1333 C144.6636 297.9203 147.6317 300.9449 150 301.1333 C180.0107 303.5205 191.3918 299.6128 232 302.1333 C263.4211 304.0836 291.5588 310.1897 295 310.1333 C295.1014 310.1317 292.4574 304.9313 293 301.1333 C294.6811 289.3658 298.7786 287.5916 300 275.1333 C301.1352 263.5539 299.1816 251.2075 298 250.1333 C297.2615 249.462 287.8503 254.0854 278 255.1333 C265.0467 256.5113 264.1178 253.872 251 255.1333 C238.6203 256.3237 238.128 259.4057 226 260.1333 C214.0734 260.8489 211.0587 261.632 201 258.1333 C190.8732 254.611 189.5135 251.2685 180 244.1333 C178.1879 242.7743 177.0481 241.7703 177 240.1333 C176.2466 214.5193 178 176.1333 178 176.1333 "/>
<path id="1" d="M222 263.1333 C222 263.1333 225.4065 278.4589 225 283.1333 C224.9293 283.9467 219.998 286.1306 220 286.1333 C220.019 286.1587 226.3212 287.9727 228 287.1333 C230.2384 286.0141 233.1324 282.7483 234 279.1333 C235.5624 272.6233 234 262.1333 234 262.1333 "/>
<path id="2" d="M257 256.1333 C257 256.1333 260.5444 256.6777 262 258.1333 C265.1192 261.2525 265.7128 262.559 268 267.1333 C269.5248 270.1829 270 270.9185 270 274.1333 C270 281.0222 268.1303 288.8945 268 289.1333 C267.9853 289.1603 264.3559 286.6756 264 285.1333 C263.366 282.3862 266.1493 277.8189 265 276.1333 C261.6966 271.2883 249 263.1333 249 263.1333 "/>
<path id="3" d="M150 304.1333 C150 304.1333 144.1861 311.2027 143 317.1333 C141.6162 324.0525 141.3461 329.9429 144 334.1333 C147.6724 339.9318 154.1271 342.6834 162 347.1333 C163.553 348.0111 165.0256 347.6269 167 347.1333 C168.3821 346.7878 169.7281 345.9491 170 345.1333 C170.6345 343.2299 170.5232 341.447 170 338.1333 C169.0677 332.2285 167.6109 327.2532 167 326.1333 C166.9715 326.0811 164 327.1333 164 327.1333 "/>
<path id="4" d="M149 306.1333 C149 306.1333 154.2524 302.3827 159 301.1333 C162.776 300.1397 163.693 300.6266 168 301.1333 C171.9411 301.597 172.6926 301.3196 176 303.1333 C187.3532 309.3593 195.6135 312.4892 199 318.1333 C201.2106 321.8177 199.8498 330.5338 197 338.1333 C194.8369 343.9017 191.3057 348.2197 187 350.1333 C182.2263 352.255 170 350.1333 170 350.1333 "/>
<path id="5" d="M221 309.1333 C221 309.1333 208.931 317.7455 205 324.1333 C203.2597 326.9614 203.7736 330.4028 205 335.1333 C206.9863 342.7946 208.0121 345.4364 212 351.1333 C213.6982 353.5593 216.0725 354.8545 219 355.1333 C224.4772 355.655 227.2466 355.5742 233 353.1333 C242.3346 349.1732 244.3823 347.4262 252 341.1333 C254.5774 339.0042 255.2275 337.4162 256 334.1333 C256.9727 329.9993 257.1131 327.918 256 324.1333 C255.0571 320.9275 253.9953 319.4775 251 317.1333 C243.3938 311.1806 240.6033 308.3407 233 306.1333 C228.5445 304.8398 220 308.1333 220 308.1333 "/>
<path id="6" d="M286 309.1333 C286 309.1333 281.045 308.2376 280 309.1333 C276.8151 311.8632 273.1899 315.6303 272 321.1333 C269.8334 331.1537 269.8334 336.113 272 346.1333 C273.1899 351.6364 276.2374 356.1823 280 358.1333 C285.301 360.882 293.1195 362.3735 299 360.1333 C308.6269 356.466 314.2679 351.4651 322 342.1333 C326.5844 336.6004 329.1332 327.3331 328 325.1333 C325.7311 320.7291 316.2072 315.0665 305 309.1333 C300.7057 306.8599 294 307.1333 294 307.1333 "/>
<path id="7" d="M163 325.1333 C163 325.1333 166.6194 327.0813 170 327.1333 C229.1425 328.0432 233.8575 326.2234 293 327.1333 C296.3806 327.1853 300 329.1333 300 329.1333 "/>
<path id="8" d="M300 329.1333 C300 329.1333 299.2242 334.154 298 335.1333 C296.2717 336.516 293.8961 337.0705 290 337.1333 C233.7334 338.0409 174 337.1333 174 337.1333 "/>
<path id="9" d="M169 263.1333 C169 263.1333 171.9291 279.5757 173 281.1333 C173.1451 281.3445 178.9883 280.2714 180 279.1333 C180.9706 278.0414 181.5647 274.5803 181 272.1333 C180.4225 269.6308 179.1684 268.0608 177 266.1333 C175.4254 264.7336 172 264.1333 172 264.1333 C172 264.1333 176.2957 265.2586 178 267.1333 C180.3457 269.7136 180.515 271.4207 182 275.1333 C182.3094 275.9068 182 277.1333 182 277.1333 C181.4262 277.1333 174 275.1333 174 275.1333 "/>
<path id="10" d="M151 169.1333 C151 169.1333 143.9993 169.1328 144 169.1333 C144.0013 169.1343 154.1228 170.4375 155 172.1333 C157.8334 177.6112 156.2479 191.994 159 198.1333 C159.6966 199.6872 168 201.1333 168 201.1333 "/>
<path id="11" d="M180 174.1333 L153 175.1333 "/>
</g>
</g>
</svg>
