<?xml version="1.0" encoding="utf-8"?>
<!DOCTYPE svg PUBLIC "-//W3C//DTD SVG 1.1//EN" "http://www.w3.org/Graphics/SVG/1.1/DTD/svg11.dtd">
<svg viewBox="0 0 800 800" preserveAspectRatio="xMinYMin meet" xmlns="http://www.w3.org/2000/svg" version="1.1">
<g fill="none" stroke="black" stroke-linecap="round" stroke-linejoin="round" stroke-width="0.77285">
<g transform="translate(87.52,139.9235) scale(3.8817) translate(-144,-204.6667)">
<path id="0" d="M158 254.6667 C158 254.6667 191.0443 275.6171 219 297.6667 C224.9653 302.3717 223.5162 304.9218 229 310.6667 C233.743 315.6356 240 319.6667 240 319.6667 "/>
<path id="1" d="M199 207.6667 C199 207.6667 198.8091 211.0127 200 212.6667 C206.7122 221.9891 207.4879 224.4601 217 232.6667 C232.1911 245.7727 235.6581 243.4409 251 256.6667 C264.0203 267.891 275 282.6667 275 282.6667 "/>
<path id="2" d="M159 255.6667 C159 255.6667 145.6309 255.6452 144 254.6667 C143.4982 254.3656 142.879 249.7494 144 246.6667 C146.3693 240.151 146.8074 237.4078 152 232.6667 C167.882 218.1657 173.1426 213.4075 190 204.6667 C195.1357 202.0037 204.1779 204.0973 206 204.6667 C206.1779 204.7223 206 209.6667 206 209.6667 "/>
<path id="3" d="M241 322.6667 C241 322.6667 240.2656 336.988 241 338.6667 C241.1406 338.988 244.6641 339.1671 248 338.6667 C254.4097 337.7052 254.9507 337.9352 261 335.6667 C270.5825 332.0732 271.4758 332.1127 280 326.6667 C288.9356 320.9578 289.7408 320.2162 297 312.6667 C301.7107 307.7676 302.9911 306.1913 305 300.6667 C306.3475 296.9611 306.4007 293.188 305 290.6667 C303.1012 287.2488 299.7891 284.1633 295 282.6667 C286.3317 279.9578 273 280.6667 273 280.6667 "/>
<path id="4" d="M162 258.6667 C162 258.6667 156.1801 257.5766 154 258.6667 C151.4111 259.9611 149.2245 262.3431 148 265.6667 C146.3557 270.1297 146.0799 273.0661 147 277.6667 C147.7018 281.1756 149.5192 284.4802 152 285.6667 C157.4626 288.2792 163.7767 289.3847 170 288.6667 C173.0642 288.3131 176.8958 285.3658 178 282.6667 C179.9539 277.8904 180.0029 271.9319 179 266.6667 C178.6224 264.6843 176.1969 262.5116 174 261.6667 C171.4613 260.6903 166 261.6667 166 261.6667 "/>
<path id="5" d="M166 268.6667 C166 268.6667 158.2263 270.1689 158 270.6667 C157.6935 271.3411 159.4402 278.3668 161 279.6667 C162.4608 280.884 169.6043 281.0623 170 280.6667 C170.4946 280.1721 170.9606 273.1643 170 270.6667 C169.5271 269.4371 165 267.6667 165 267.6667 "/>
<path id="6" d="M216 295.6667 C216 295.6667 208.8824 295.1373 207 296.6667 C203.7868 299.2774 201.1587 303.2596 200 308.6667 C198.6452 314.9893 199.562 320.113 201 324.6667 C201.4036 325.9446 203.925 327.5837 206 327.6667 C214.073 327.9896 219.2485 327.4279 226 325.6667 C227.3303 325.3196 228.5542 323.5612 229 321.6667 C230.2538 316.3382 231.4103 312.8977 230 308.6667 C228.4412 303.9903 225.1731 301.2436 221 297.6667 C219.6737 296.5298 216 296.6667 216 296.6667 "/>
<path id="7" d="M216 308.6667 C216 308.6667 212.232 308.7867 211 309.6667 C209.9528 310.4147 209 312.1192 209 313.6667 C209 316.7617 210.0115 320.8759 211 321.6667 C211.9414 322.4198 216.739 322.4889 219 321.6667 C220.259 321.2089 221.7303 319.2847 222 317.6667 C222.4694 314.8502 222.0247 310.8052 221 309.6667 C219.9408 308.4898 213 307.6667 213 307.6667 "/>
<path id="8" d="M220 211.6667 C220 211.6667 212.8735 211.7932 211 213.6667 C207.0827 217.584 205.1807 222.4361 203 228.6667 C202.4303 230.2943 203.5014 233.5133 204 233.6667 C209.0919 235.2334 226.2421 237.9471 229 236.6667 C230.2183 236.101 232.4539 225.4325 232 220.6667 C231.8418 219.0059 229.43 216.8817 227 215.6667 C224.57 214.4517 220 214.6667 220 214.6667 "/>
<path id="9" d="M219 226.6667 C219 226.6667 217.731 232.4313 218 232.6667 C218.625 233.2136 226.5518 234.0651 227 233.6667 C227.4421 233.2737 227.864 227.2587 227 224.6667 C226.584 223.4187 224.618 221.9363 223 221.6667 C220.1835 221.1973 215 222.6667 215 222.6667 "/>
<path id="10" d="M260 238.6667 C260 238.6667 255.1646 239.0016 253 240.6667 C249.9189 243.0367 248.3648 245.0272 247 248.6667 C245.9348 251.5072 245.882 253.7918 247 256.6667 C248.7779 261.2385 250.6042 264.7262 254 266.6667 C258.0444 268.9778 264.9541 269.827 268 268.6667 C270.4872 267.7192 273.8652 263.0167 275 258.6667 C276.2224 253.9808 276.2281 249.0744 274 245.6667 C270.1714 239.8112 261.6993 234.8084 258 232.6667 C257.7103 232.499 255 234.6667 255 234.6667 "/>
<path id="11" d="M263 250.6667 C263 250.6667 260.2719 251.8509 260 252.6667 C259.3655 254.5701 259.5676 259.1623 260 259.6667 C260.3176 260.0373 264.4162 260.4586 266 259.6667 C267.7158 258.8088 269.8882 256.2323 270 254.6667 C270.1859 252.0644 268.0264 246.579 267 245.6667 C266.5231 245.2428 261 246.6667 261 246.6667 "/>
<path id="12" d="M156 251.6667 C156 251.6667 165.1164 251.0899 173 252.6667 C179.4169 253.9501 180.0926 254.3585 186 257.6667 C204.6494 268.1104 206.0581 268.4108 223 280.6667 C228.672 284.7698 230.8812 286.2882 233 291.6667 C236.2878 300.0126 236 313.6667 236 313.6667 "/>
<path id="13" d="M201 213.6667 C201 213.6667 198.2488 217.4326 198 220.6667 C197.349 229.1302 197.2501 231.2086 199 239.6667 C200.0054 244.5259 200.898 245.4568 204 249.6667 C207.5434 254.4756 208.0771 255.2585 213 258.6667 C220.5086 263.8649 221.2921 264.9168 230 267.6667 C248.8016 273.604 270 276.6667 270 276.6667 "/>
</g>
</g>
</svg>
