<?xml version="1.0" encoding="utf-8"?>
<!DOCTYPE svg PUBLIC "-//W3C//DTD SVG 1.1//EN" "http://www.w3.org/Graphics/SVG/1.1/DTD/svg11.dtd">
<svg viewBox="0 0 800 800" preserveAspectRatio="xMinYMin meet" xmlns="http://www.w3.org/2000/svg" version="1.1">
<g fill="none" stroke="black" stroke-linecap="round" stroke-linejoin="round" stroke-width="1.0801">
<g transform="translate(109.7408,87.52) scale(2.7776) translate(-206,-90)">
<path id="0" d="M326 92 C326 92 330.3998 92.9198 333 95 C337.2046 98.3637 338.1859 99.0753 341 104 C349.7386 119.2926 353.8104 121.7355 357 137 C359.9473 151.1048 358.3833 155.2114 355 171 C351.1885 188.7868 349.4259 189.5776 342 207 C336.5404 219.8089 336.5731 220.5256 329 232 C320.385 245.053 320.2107 246.8884 309 257 C295.8416 268.8683 293.833 270.8032 278 278 C262.735 284.9386 260.4282 284.3374 243 287 C225.1259 289.7308 206.1236 288.909 206 289 C205.9706 289.0217 214.6613 295.989 224 301 C234.8392 306.8161 235.4458 307.7648 247 311 C259.5932 314.5261 260.5725 314.0054 274 315 C287.2818 315.9838 287.6873 315.832 301 315 C311.4467 314.3471 311.8491 314.3607 322 312 C333.054 309.4293 333.6701 309.5452 344 305 C358.251 298.7296 360.1085 298.6213 372 290 C378.7755 285.0878 379.1159 283.5006 384 276 C392.8258 262.4461 393.1393 261.8649 400 247 C408.0066 229.6524 410.8294 228.5442 414 211 C417.8825 189.5168 417.6595 185.2758 415 164 C413.5107 152.0855 411.1362 150.6786 405 139 C395.8662 121.6162 394.8501 119.0001 384 105 C381.0325 101.171 379.2017 101.0229 374 99 C361.7221 94.2252 360.857 93.3143 348 91 C336.6705 88.9607 324 90 324 90 "/>
</g>
</g>
</svg>
