<?xml version="1.0" encoding="utf-8"?>
<!DOCTYPE svg PUBLIC "-//W3C//DTD SVG 1.1//EN" "http://www.w3.org/Graphics/SVG/1.1/DTD/svg11.dtd">
<svg viewBox="0 0 800 800" preserveAspectRatio="xMinYMin meet" xmlns="http://www.w3.org/2000/svg" version="1.1">
<g fill="none" stroke="black" stroke-linecap="round" stroke-linejoin="round" stroke-width="1.9585">
<g transform="translate(87.52,175.5965) scale(1.5318) translate(-46,-20)">
<path id="0" d="M219 99 C219 99 212.8701 106.2867 210 114 C205.2129 126.8653 204.5407 128.134 203 142 C200.6384 163.254 201.3327 170.3191 202 186 C202.0475 187.1157 204.7053 187.723 205 189 C205.7981 192.4586 204.1483 194.3155 205 199 C207.0519 210.2855 207.2744 210.8231 211 222 C216.2159 237.6477 216.4326 238.7062 223 253 C224.4924 256.2481 225.5759 257.4574 228 259 C229.8243 260.1609 233.3165 259.4304 234 260 C234.3334 260.2778 233.272 263.0151 234 264 C239.7445 271.772 241.6461 275.1342 251 283 C262.9519 293.0504 264.2769 294.1385 278 301 C287.1487 305.5744 288.4464 305.3336 299 307 C325.9029 311.2478 330.394 315.8613 354 313 C374.0869 310.5652 379.8576 305.8855 398 295 C406.8726 289.6765 406.9296 286.3201 414 277 C417.6485 272.1907 420 266 420 266 "/>
<path id="1" d="M221 101 C221 101 219.428 116.1093 221 129 C221.7641 135.2657 226 142 226 142 "/>
<path id="2" d="M226 143 C226 143 226.11 152.8117 229 161 C234.8067 177.4523 244 194 244 194 "/>
<path id="3" d="M243 193 C243 193 246.6045 205.3352 253 214 C261.225 225.1436 262.415 227.7401 274 235 C297.8392 249.9393 301.8063 252.5698 328 261 C342.1299 265.5476 345.2491 260.703 361 263 C368.4418 264.0853 368.7277 267.3621 376 268 C395.7839 269.7354 398.0984 268.8292 418 268 C420.8826 267.8799 424 266 424 266 "/>
<path id="4" d="M444 35 C444 35 442.9958 19.9989 443 20 C443.0118 20.003 452 36.7374 452 37 C452 37.0309 446.4619 36.8328 443 35 C438.9712 32.8671 434.9493 28.1521 435 28 C435.1053 27.6841 441.2431 24.515 447 23 C450.0264 22.2036 454.0057 22.9602 454 23 C453.8724 23.8929 444 44 444 44 "/>
<path id="5" d="M55 237 C55 237 52.7171 213.233 53 213 C53.1714 212.8588 67.4105 219.6183 72 223 C72.513 223.378 72.0811 226.9865 72 227 C69.0811 227.4865 55.156 227.8257 48 227 C47.3005 226.9193 45.9963 224.0025 46 224 C47.3776 223.0529 56.025 220.5076 64 216 C66.7712 214.4336 69.0006 210.9986 69 211 C68.9968 211.0073 53 241 53 241 "/>
</g>
</g>
</svg>
