<?xml version="1.0" encoding="utf-8"?>
<!DOCTYPE svg PUBLIC "-//W3C//DTD SVG 1.1//EN" "http://www.w3.org/Graphics/SVG/1.1/DTD/svg11.dtd">
<svg viewBox="0 0 800 800" preserveAspectRatio="xMinYMin meet" xmlns="http://www.w3.org/2000/svg" version="1.1">
<g fill="none" stroke="black" stroke-linecap="round" stroke-linejoin="round" stroke-width="1.0513">
<g transform="translate(87.52,94.6542) scale(2.8537) translate(-184,-70)">
<path id="0" d="M325 70 C325 70 332.4779 70.618 335 73 C339.1707 76.939 341.2552 80.0207 343 87 C347.2802 104.121 344.7833 107.7101 348 125 C348.4593 127.4685 350.7569 127.731 351 130 C352.0507 139.807 351.5434 141.589 351 153 C350.5489 162.4737 351.7845 165.0386 349 172 C346.8905 177.2738 341.792 178.2536 339 183 C338.0077 184.6869 340.0794 187.0661 339 189 C329.934 205.2432 327.0287 210.6908 315 226 C312.4005 229.3085 308.9916 228.0084 306 231 C303.0084 233.9916 304.011 236.2941 301 240 C297.8881 243.83 297.335 244.6971 293 247 C282.1568 252.7604 280.7036 255.4968 269 257 C229.4174 262.084 184.3962 260.9349 184 261 C183.9506 261.0081 189.7514 266.5858 196 269 C210.6899 274.6757 211.8919 274.4982 228 278 C246.1706 281.9501 246.6243 282.1926 265 284 C276.7323 285.154 279.1067 285.3191 289 284 C291.6932 283.6409 292.3612 280.2199 295 280 C312.4996 278.5417 318.0991 283.3204 337 280 C352.4284 277.2896 354.8741 274.2441 369 267 C372.8687 265.0161 373.2566 263.8865 376 260 C384.96 247.3066 386.5929 245.8141 393 233 C394.7146 229.5709 392.722 228.0164 394 224 C396.0447 217.5737 398.7407 217.4367 400 211 C402.9842 195.7475 402.7632 194.3426 403 178 C403.2578 160.2095 405.4477 157.4611 401 142 C395.836 124.0489 392.0607 122.0258 382 105 C379.6768 101.0685 378.7063 101.2229 375 98 C367.2673 91.2759 365.8554 89.2438 359 85 C357.5746 84.1176 355.7957 85.8162 354 85 C346.262 81.4827 345.2459 78.6282 337 75 C333.7479 73.5691 329 74 329 74 "/>
</g>
</g>
</svg>
