<?xml version="1.0" encoding="utf-8"?>
<!DOCTYPE svg PUBLIC "-//W3C//DTD SVG 1.1//EN" "http://www.w3.org/Graphics/SVG/1.1/DTD/svg11.dtd">
<svg viewBox="0 0 800 800" preserveAspectRatio="xMinYMin meet" xmlns="http://www.w3.org/2000/svg" version="1.1">
<g fill="none" stroke="black" stroke-linecap="round" stroke-linejoin="round" stroke-width="0.78245">
<g transform="translate(87.52,139.2805) scale(3.8341) translate(-188,-131)">
<path id="0" d="M221 132 C221 132 213.8692 138.5674 213 144 C210.5128 159.545 209.7619 166.0795 213 182 C214.9974 191.8207 217.6238 195.0257 225 203 C234.6799 213.4647 237.6069 213.3248 250 222 C252.0709 223.4496 252.6775 223.9613 255 224 C280.3708 224.4228 287.5653 227.9855 310 223 C322.0976 220.3116 325.0364 215.6265 336 206 C344.4873 198.5477 351 187 351 187 "/>
<path id="1" d="M221 131 C221 131 217.6966 130.8689 216 132 C211.2095 135.1937 209.7737 135.92 206 141 C197.2976 152.7148 193.0095 154.6276 190 167 C185.1184 187.0688 186.3459 193.166 188 215 C188.6406 223.4557 190.58 224.94 195 233 C198.741 239.8219 199.5615 240.0671 205 246 C210.3976 251.8883 210.6055 252.5001 217 257 C223.6825 261.7025 224.8697 263.9814 232 265 C256.4197 268.4885 261.9387 268.4321 287 267 C294.0057 266.5997 295.4023 264.9933 302 261 C313.7882 253.865 314.8388 253.4177 325 244 C334.8223 234.8964 338.2647 233.607 343 223 C349.2176 209.0726 350 188 350 188 "/>
</g>
</g>
</svg>
