<?xml version="1.0" encoding="utf-8"?>
<!DOCTYPE svg PUBLIC "-//W3C//DTD SVG 1.1//EN" "http://www.w3.org/Graphics/SVG/1.1/DTD/svg11.dtd">
<svg viewBox="0 0 800 800" preserveAspectRatio="xMinYMin meet" xmlns="http://www.w3.org/2000/svg" version="1.1">
<g fill="none" stroke="black" stroke-linecap="round" stroke-linejoin="round" stroke-width="1.5025">
<g transform="translate(100.4984,87.52) scale(1.9967) translate(-238,-77.7)">
<path id="0" d="M447 79.7 C447 79.7 434.9841 84.1105 425 90.7 C410.4914 100.2757 409.9392 100.9645 397 112.7 C388.7922 120.1443 387.8811 120.6522 382 129.7 C375.3714 139.8978 374.6424 141.0899 371 152.7 C366.9283 165.6785 367.1386 166.8088 366 180.7 C364.6774 196.8357 363.3624 198.2259 366 213.7 C370.6004 240.6892 372.3979 241.8614 381 268.7 C384.7691 280.4595 384.8515 281.1322 391 291.7 C400.5583 308.1284 400.1135 311.4083 413 323.7 C430.5708 340.4598 434.0664 340.407 456 353.7 C466.4182 360.0141 467.3839 359.6344 479 363.7 C487.0655 366.5229 487.6955 367.2777 496 367.7 C516.25 368.7297 537.9969 366.6933 538 366.7 C538.0004 366.701 520.2231 375.8405 502 380.7 C476.0107 387.6305 474.7676 387.7585 448 390.7 C430.0251 392.6753 429.2308 392.118 411 390.7 C384.6174 388.648 384.2149 388.1218 358 383.7 C342.9135 381.1553 342.4638 381.2675 328 376.7 C314.3161 372.3788 312.6567 373.0324 301 365.7 C282.9191 354.3266 281.1069 352.8069 266 337.7 C256.6481 328.3481 252.5105 325.9076 250 314.7 C240.1137 270.5646 240.3187 259.4611 238 212.7 C237.5773 204.1757 239.6869 202.1465 244 193.7 C251.2703 179.4624 251.5143 177.988 262 165.7 C282.8586 141.2563 284.4576 140.7236 308 118.7 C314.8796 112.2643 315.5728 110.8836 324 107.7 C358.5731 94.6391 360.8649 94.8278 398 84.7 C415.5372 79.9171 416.4622 79.8046 434 77.7 C440.6076 76.9071 448 78.7 448 78.7 "/>
<path id="1" d="M243 241.7 C243 241.7 246.8568 244.5823 248 247.7 C251.8235 258.1277 252.1353 259.8904 254 271.7 C255.0464 278.3273 255.4346 280.2006 254 285.7 C252.9173 289.8502 248 294.7 248 294.7 "/>
<path id="2" d="M294 299.7 C294 299.7 294.0936 316.8803 296 318.7 C298.0742 320.68 307.927 321.0229 316 320.7 C318.075 320.617 319.6006 319.4492 321 317.7 C322.8792 315.351 324 313.5229 324 310.7 C324 305.8607 322.6822 299.7239 321 298.7 C317.5363 296.5917 309.7481 296.376 301 296.7 C297.878 296.8156 294 299.7 294 299.7 "/>
<path id="3" d="M294 300.7 L289 304.7 "/>
<path id="4" d="M320 321.7 L321 326.7 "/>
<path id="5" d="M330 147.7 C330 147.7 320.3063 148.0468 315 150.7 C311.4624 152.4688 309.2106 155.4717 308 158.7 C307.1312 161.0168 307.8404 165.6297 309 166.7 C311.1702 168.7033 315.0531 169.7089 321 170.7 C329.5292 172.1215 332.9096 172.5305 339 171.7 C340.5497 171.4887 342.3917 169.6262 343 167.7 C344.8065 161.9793 346.0025 154.8163 345 152.7 C344.343 151.3129 334 148.7 334 148.7 "/>
<path id="6" d="M314 170.7 L313 173.7 "/>
<path id="7" d="M345 156.7 L350 162.7 "/>
</g>
</g>
</svg>
