<?xml version="1.0" encoding="utf-8"?>
<!DOCTYPE svg PUBLIC "-//W3C//DTD SVG 1.1//EN" "http://www.w3.org/Graphics/SVG/1.1/DTD/svg11.dtd">
<svg viewBox="0 0 800 800" preserveAspectRatio="xMinYMin meet" xmlns="http://www.w3.org/2000/svg" version="1.1">
<g fill="none" stroke="black" stroke-linecap="round" stroke-linejoin="round" stroke-width="0.59044">
<g transform="translate(135.7893,87.52) scale(5.081) translate(-173,-185.4167)">
<path id="0" d="M173 259.4167 C173 259.4167 168.5849 229.5966 173 211.4167 C175.4034 201.5205 181.3478 198.415 190 189.4167 C192.6382 186.673 194.2932 185.7074 198 185.4167 C217.1722 183.913 220.0327 184.3131 241 185.4167 C247.9036 185.78 250.9821 185.251 255 188.4167 C264.1147 195.598 266.8776 200.0856 274 211.4167 C276.8303 215.9194 276.7155 217.5378 277 223.4167 C278.1711 247.6191 279.4068 250.7241 277 273.4167 C276.1941 281.0153 274.3155 282.3087 270 289.4167 C266.1487 295.7599 265.4989 296.8741 260 301.4167 C254.8133 305.7013 253.1203 307.1926 247 308.4167 C237.6495 310.2868 235.683 309.3069 225 308.4167 C218.0803 307.84 216.8994 308.1929 211 305.4167 C201.0025 300.712 197.1335 300.0835 191 292.4167 C181.5248 280.5727 175 260.4167 175 260.4167 "/>
</g>
</g>
</svg>
