<?xml version="1.0" encoding="utf-8"?>
<!DOCTYPE svg PUBLIC "-//W3C//DTD SVG 1.1//EN" "http://www.w3.org/Graphics/SVG/1.1/DTD/svg11.dtd">
<svg viewBox="0 0 800 800" preserveAspectRatio="xMinYMin meet" xmlns="http://www.w3.org/2000/svg" version="1.1">
<g fill="none" stroke="black" stroke-linecap="round" stroke-linejoin="round" stroke-width="0.93126">
<g transform="translate(87.52,92.3522) scale(3.2214) translate(-133,-41)">
<path id="0" d="M151 104 C151 104 148.9993 207.9856 149 208 C149.0001 208.0029 155 187 155 187 "/>
<path id="1" d="M151 107 C151 107 204.201 114.6899 257 119 C277.2352 120.6519 289.7106 116.7895 298 119 C299.4557 119.3882 301.8306 125.3237 302 131 C302.7681 156.7323 299.7125 158.6831 300 186 C300.2094 205.8901 304.889 218.9161 303 226 C302.5663 227.6264 295.3057 230.3995 288 231 C260.4656 233.2631 258.8671 232.8428 230 232 C190.5885 230.8493 161.2943 232.5238 151 227 C147.9846 225.382 147.6426 205.5131 148 188 C148.0925 183.4657 151.2283 182.8228 152 178 C153.0879 171.2009 152 163 152 163 "/>
<path id="2" d="M256 162 C256 162 240.6493 163.7236 229 167 C226.4882 167.7065 225.6079 168.7892 224 171 C222.0667 173.6582 221.2806 174.7728 221 178 C220.385 185.0728 219.6858 189.8675 222 194 C224.2751 198.0626 228.5078 199.7539 235 203 C238.7098 204.8549 239.5345 204.6955 244 205 C261.1399 206.1686 265.7706 207.2907 279 206 C281.4591 205.7601 284.1985 203.1374 285 201 C286.2161 197.757 285.9685 194.8425 285 190 C284.1372 185.6858 283.77 184.3855 281 181 C275.4806 174.254 274.2339 172.2003 267 168 C260.3184 164.1204 250 163 250 163 "/>
<path id="3" d="M251 177 C251 177 247.5759 180.0802 247 182 C246.5634 183.4553 247.4993 186.7496 248 187 C249.2876 187.6438 256.3716 187.5586 257 187 C257.4966 186.5586 257.8222 181.261 257 179 C256.5422 177.741 253 176 253 176 "/>
<path id="4" d="M267 119 C267 119 262.4608 110.3145 256 105 C232.6329 85.7787 229.5807 87.3368 205 68 C192.3251 58.0291 190.4724 55.8512 181 46 C179.9574 44.9157 180 42 180 42 "/>
<path id="5" d="M151 112 C151 112 134.0197 112.3029 133 111 C131.5131 109.1001 131.1579 92.6842 133 89 C133.8792 87.2416 139.6718 85.5063 146 85 C163.5785 83.5937 166.482 83.8476 183 85 C185.772 85.1934 186.0052 87.401 189 88 C200.1623 90.2325 201.0032 90.2859 213 91 C242.8295 92.7756 243.3746 90.331 273 93 C298.461 95.2938 315.2275 96.1264 324 101 C326.4085 102.338 328.4974 121.1906 327 123 C324.7485 125.7205 300 130 300 130 "/>
<path id="6" d="M182 41 C182 41 178.7917 47.7396 179 48 C179.5344 48.668 189.7769 51.0744 190 51 C190 51 189.0658 45.7461 188 45 C186.5045 43.9531 180 44 180 44 "/>
<path id="7" d="M157 179 C157 179 169.0884 182.3095 181 183 C203.1206 184.2824 226 183 226 183 "/>
<path id="8" d="M147 205 C147 205 195.6113 203.1632 243 205 C259.3855 205.6351 259.593 208.6769 276 210 C290.2442 211.1487 305 210 305 210 "/>
</g>
</g>
</svg>
