<?xml version="1.0" encoding="utf-8"?>
<!DOCTYPE svg PUBLIC "-//W3C//DTD SVG 1.1//EN" "http://www.w3.org/Graphics/SVG/1.1/DTD/svg11.dtd">
<svg viewBox="0 0 800 800" preserveAspectRatio="xMinYMin meet" xmlns="http://www.w3.org/2000/svg" version="1.1">
<g fill="none" stroke="black" stroke-linecap="round" stroke-linejoin="round" stroke-width="1.8577">
<g transform="translate(87.52,153.7302) scale(1.6149) translate(-159,-27.1333)">
<path id="0" d="M159 194.1333 C159 194.1333 158.7117 213.2382 160 232.1333 C161.7036 257.12 161.7086 257.8591 165 282.1333 C165.6109 286.6391 167.5273 286.6903 168 291.1333 C169.9381 309.3518 169.3163 329.0418 170 329.1333 C181.7889 330.7114 232.7786 319.5153 295 308.1333 C314.6293 304.5426 314.7661 300.707 334 299.1333 C368.3667 296.3215 399.9245 299.4234 405 299.1333 C405.0551 299.1302 404 295.1333 404 295.1333 "/>
<path id="1" d="M159 196.1333 C159 196.1333 263.0132 173.709 364 161.1333 C392.8217 157.5442 394.7749 160.3827 424 163.1333 C436.4132 164.3016 446.1463 166.1655 449 169.1333 C450.9 171.1094 448.0878 179.2816 449 189.1333 C453.0559 232.9369 459 253.1269 459 277.1333 C459 279.0429 454.3114 281.6402 449 284.1333 C430.4059 292.8612 428.5415 294.2001 410 300.1333 C405.3772 301.6126 403.583 299.274 399 300.1333 C396.6825 300.5679 395.3516 303.1333 394 303.1333 C392.6484 303.1333 389 300.1333 389 300.1333 "/>
<path id="2" d="M160 196.1333 L217 168.1333 "/>
<path id="3" d="M217 168.1333 C217 168.1333 288.5416 150.041 359 143.1333 C414.1177 137.7296 472 143.1333 472 143.1333 "/>
<path id="4" d="M470 145.1333 L450 176.1333 "/>
<path id="5" d="M470 144.1333 C470 144.1333 467.3095 176.8253 470 208.1333 C472.7303 239.9038 482.6058 263.4867 481 272.1333 C480.729 273.5927 457 278.1333 457 278.1333 "/>
<path id="6" d="M172 332.1333 C172 332.1333 189.8876 325.0208 208 320.1333 C221.0861 316.6022 221.6186 316.0626 235 315.1333 C257.0192 313.6042 258.4343 318.3129 280 315.1333 C334.8204 307.0508 336.2212 300.6463 391 292.1333 C408.69 289.3842 410.4556 294.5042 428 292.1333 C446.1852 289.6759 465 282.1333 465 282.1333 "/>
<path id="7" d="M231 208.1333 C231 208.1333 219.8122 206.1959 214 208.1333 C209.5554 209.6149 206.1874 212.394 204 217.1333 C198.5872 228.8611 198.3124 232.3918 196 247.1333 C194.4463 257.0381 193.5583 259.791 196 268.1333 C198.7338 277.4737 201.3073 280.2767 208 288.1333 C211.6252 292.389 213.3738 292.1721 219 295.1333 C222.6702 297.065 223.1442 297.7202 227 298.1333 C236.267 299.1262 237.9045 299.1439 247 298.1333 C250.335 297.7628 251.2966 297.236 254 295.1333 C259.6644 290.7277 260.5652 289.954 265 284.1333 C268.1599 279.9859 269.6179 278.5906 270 274.1333 C270.9096 263.5213 270.439 260.4138 268 249.1333 C266.7248 243.2354 265.6863 242.3376 262 237.1333 C257.5102 230.7948 257.1418 229.5691 251 225.1333 C240.035 217.2141 237.45 216.1427 226 211.1333 C223.4249 210.0067 219 211.1333 219 211.1333 "/>
<path id="8" d="M225 227.1333 C225 227.1333 218.4988 227.5192 217 229.1333 C214.3544 231.9825 213.1798 235.2346 212 241.1333 C210.3483 249.3916 209.7772 251.3073 211 259.1333 C212.0237 265.6847 213.2145 266.9819 217 273.1333 C220.8843 279.4453 221.5989 280.0165 227 285.1333 C230.7116 288.6495 231.8436 289.8208 236 291.1333 C239.8151 292.3381 242.2154 292.2465 246 291.1333 C249.2058 290.1904 250.16 288.9734 253 286.1333 C255.84 283.2933 257.5698 282.1449 258 279.1333 C259.1632 270.991 258.6359 266.9672 257 258.1333 C256.4795 255.3225 255.3856 254.6382 253 252.1333 C245.6464 244.412 244.593 240.7189 237 237.1333 C230.1105 233.88 217 235.1333 217 235.1333 "/>
<path id="9" d="M226 241.1333 C226 241.1333 223 245.5978 223 249.1333 C223 258.8561 223.541 264.0295 226 271.1333 C226.6486 273.0071 229.2359 274.4423 232 275.1333 C235.9487 276.1205 237.853 275.9627 242 275.1333 C244.3223 274.6689 246.4305 273.3862 247 272.1333 C247.8641 270.2324 248.1421 266.2748 247 264.1333 C245.3915 261.1174 239 257.1333 239 257.1333 "/>
<path id="10" d="M271 194.1333 L276 215.1333 "/>
<path id="11" d="M274 197.1333 C274 197.1333 303.3291 186.3036 332 182.1333 C356.8423 178.5199 359.1284 184.0942 384 181.1333 C399.7819 179.2545 400.4064 175.6419 416 172.1333 C419.6664 171.3084 423.7175 172.0526 424 172.1333 C424.0151 172.1377 423 174.1333 423 174.1333 "/>
<path id="12" d="M279 214.1333 C279 214.1333 289.8063 208.1821 301 204.1333 C313.0304 199.7819 313.7532 199.3893 326 197.1333 C332.056 196.0178 333.0098 198.4005 339 197.1333 C358.0427 193.1051 358.6337 189.2804 378 186.1333 C397.6215 182.9448 399.6666 185.8145 419 184.1333 C421.4294 183.9221 423.7414 182.9091 424 182.1333 C424.9168 179.3828 424 169.1333 424 169.1333 "/>
<path id="13" d="M280 202.1333 C280 202.1333 292.3643 197.1508 305 194.1333 C325.6179 189.2097 347 186.1333 347 186.1333 "/>
<path id="14" d="M398 212.1333 C398 212.1333 392.4643 213.2696 391 215.1333 C388.5636 218.2342 386.7515 225.8352 387 226.1333 C387.4105 226.626 399.1609 227.7464 401 227.1333 C401.4037 226.9988 402.6876 222.5085 402 221.1333 C400.4998 218.133 394 213.1333 394 213.1333 "/>
<path id="15" d="M404 239.1333 C404 239.1333 399.1696 238.2143 398 239.1333 C394.7556 241.6825 391.3559 246.2915 390 250.1333 C389.4807 251.6047 391.0991 255.4577 392 256.1333 C392.8316 256.757 396.1571 257.0548 398 256.1333 C401.5323 254.3672 403.9036 252.0159 406 249.1333 C406.6542 248.2338 406.5932 246.0824 406 245.1333 C404.9434 243.4428 401 241.1333 401 241.1333 "/>
<path id="16" d="M407 265.1333 C407 265.1333 401.6042 267.6833 401 269.1333 C400.2951 270.825 401.1213 276.0036 402 277.1333 C402.5672 277.8626 407.5625 278.4458 408 278.1333 C408.4375 277.8208 408.7708 275.113 409 272.1333 C409.264 268.7011 409.9522 266.7657 409 265.1333 C407.7644 263.0152 402 260.1333 402 260.1333 "/>
<path id="17" d="M396 213.1333 C396 213.1333 402.469 212.4431 405 213.1333 C405.7925 213.3495 406.7516 214.7673 407 216.1333 C407.5907 219.3823 407.6274 223.4275 407 224.1333 C406.3639 224.8489 399 225.1333 399 225.1333 "/>
<path id="18" d="M401 240.1333 C401 240.1333 408.2783 238.8185 413 239.1333 C414.2398 239.216 415.8201 240.5038 416 241.1333 C416.2968 242.172 415.7443 245.6123 415 246.1333 C413.2797 247.3375 406 248.1333 406 248.1333 "/>
<path id="19" d="M403 261.1333 C403 261.1333 414.9884 260.194 416 261.1333 C417.0171 262.0778 417.866 272.9524 417 274.1333 C416.2376 275.173 405 276.1333 405 276.1333 "/>
<path id="20" d="M293 235.1333 C293 235.1333 300.7247 251.9305 306 268.1333 C307.463 272.6268 307 278.1333 307 278.1333 "/>
<path id="21" d="M293 238.1333 C293 238.1333 314.5813 238.7542 336 238.1333 C348.9797 237.7571 349.6423 238.1373 362 236.1333 C367.4684 235.2466 372.9938 232.1148 373 232.1333 C373.8076 234.5562 377.4142 272.0091 375 275.1333 C373.3217 277.3052 356.3033 273.809 339 276.1333 C323.6408 278.1965 308 284.1333 308 284.1333 "/>
<path id="22" d="M240 171.1333 C240 171.1333 296.5851 143.5168 354 118.1333 C391.4762 101.5649 392.6979 103.9316 430 87.1333 C468.0078 70.0172 467.22 67.5702 505 50.1333 C518.9821 43.6801 534 39.1333 534 39.1333 "/>
<path id="23" d="M241 174.1333 C241 174.1333 266.6543 154.9858 290 143.1333 C296.136 140.0181 299.052 143.3666 306 141.1333 C311.9491 139.2211 311.8092 136.5721 318 134.1333 C327.8011 130.2723 329.4453 132.2651 339 128.1333 C347.2304 124.5743 346.9311 121.7504 355 118.1333 C360.651 115.6001 362.3249 117.7729 368 115.1333 C382.9441 108.1826 382.676 104.3587 398 98.1333 C413.6354 91.7814 416.6728 95.9239 432 89.1333 C454.8044 79.0301 454.4197 73.6054 477 63.1333 C487.599 58.2178 489.3561 60.8253 501 57.1333 C509.6397 54.3939 510.352 54.5368 518 50.1333 C526.3313 45.3365 525.9559 42.4427 534 38.1333 C538.8803 35.5189 546 35.1333 546 35.1333 "/>
<path id="24" d="M544 33.1333 C544 33.1333 541.4789 32.7502 541 33.1333 C540.1699 33.7974 538.9955 37.1315 539 37.1333 C539.0703 37.1614 545.086 36.0473 546 35.1333 C546.5078 34.6255 546.5988 31.7302 546 30.1333 C545.506 28.8159 544.0224 27.4255 543 27.1333 C542.0154 26.852 539 28.1163 539 28.1333 C539 28.1845 543 31.1333 543 31.1333 "/>
<path id="25" d="M542 32.1333 L532 39.1333 "/>
<path id="26" d="M541 30.1333 C541 30.1333 534.2029 32.5299 532 35.1333 C530.3075 37.1335 530 43.1333 530 43.1333 "/>
<path id="27" d="M463 285.1333 C463 285.1333 464.0837 280.5173 466 279.1333 C471.2407 275.3484 481 272.1333 481 272.1333 "/>
</g>
</g>
</svg>
