<?xml version="1.0" encoding="utf-8"?>
<!DOCTYPE svg PUBLIC "-//W3C//DTD SVG 1.1//EN" "http://www.w3.org/Graphics/SVG/1.1/DTD/svg11.dtd">
<svg viewBox="0 0 800 800" preserveAspectRatio="xMinYMin meet" xmlns="http://www.w3.org/2000/svg" version="1.1">
<g fill="none" stroke="black" stroke-linecap="round" stroke-linejoin="round" stroke-width="1.4497">
<g transform="translate(87.52,88.5547) scale(2.0694) translate(-36,-25.1333)">
<path id="0" d="M110 197.1333 C110 197.1333 105.4294 298.7883 106 323.1333 C106.0098 323.5518 109.6336 325.1171 113 325.1333 C209.049 325.5973 294.7408 336.8703 313 324.1333 C322.4667 317.5297 318.8294 206.021 318 182.1333 C317.9863 181.738 312.9029 180.1606 308 180.1333 C224.7464 179.6708 222.2619 179.3779 138 181.1333 C127.0659 181.3611 124.3021 181.2706 116 184.1333 C112.6071 185.3033 109 191.1333 109 191.1333 "/>
<path id="1" d="M110 201.1333 C110 201.1333 108.4945 195.8182 109 194.1333 C109.3169 193.0771 113 191.1333 113 191.1333 "/>
<path id="2" d="M115 184.1333 C115 184.1333 112.6144 169.8841 114 165.1333 C114.5431 163.2711 118.3308 160.4462 122 160.1333 C174.9118 155.6215 182.5411 156.1265 243 154.1333 C273.4295 153.1302 275.0709 153.2698 304 154.1333 C306.8738 154.2191 307.9298 154.5807 310 156.1333 C313.1053 158.4623 314.6837 159.6233 316 163.1333 C318.5791 170.0111 319 180.1333 319 180.1333 "/>
<path id="3" d="M306 180.1333 C306 180.1333 303.105 176.1979 300 175.1333 C287.3613 170.8001 283.9396 173.6486 271 168.1333 C254.7775 161.2188 255.2736 156.9688 239 149.1333 C228.9663 144.3023 226.785 146.7381 217 142.1333 C210.7194 139.1777 211.321 136.3896 205 133.1333 C195.4552 128.2163 193.7808 130.0238 184 125.1333 C175.1972 120.732 175.4456 118.3562 167 114.1333 C163.2464 112.2565 161.4098 114.0818 158 112.1333 C152.0449 108.7304 152.0981 105.5801 146 102.1333 C141.6142 99.6544 139.0022 101.1344 135 99.1333 C133.3991 98.3329 131.9737 95.1662 132 95.1333 C132.1085 94.9977 138.9964 94.1357 139 94.1333 C139.0016 94.1323 135.4825 93.6158 135 93.1333 C134.7105 92.8439 135.2799 90.2806 135 90.1333 C130.9789 88.017 124.3652 86.9357 116 83.1333 C114.3544 82.3853 113.3142 81.0758 113 80.1333 C112.7906 79.505 114.125 77.3833 114 77.1333 C113.875 76.8833 111.2166 76.5664 111 76.1333 C110.5669 75.2671 111.462 71.4303 111 71.1333 C108.6184 69.6023 102.9132 70.09 97 67.1333 C91.8259 64.5463 92.3351 61.7288 87 59.1333 C74.7625 53.18 71.8325 55.2095 60 49.1333 C54.6162 46.3687 50 40.1333 50 40.1333 "/>
<path id="4" d="M313 326.1333 C313 326.1333 328.4567 325.7854 333 324.1333 C333.9166 323.8 334.9292 321.0109 335 318.1333 C336.3572 262.941 334.636 258.5107 336 202.1333 C336.0946 198.2225 338.5294 197.1773 338 194.1333 C336.8901 187.7514 332 179.1333 332 179.1333 "/>
<path id="5" d="M318 181.1333 L331 174.1333 "/>
<path id="6" d="M328 173.1333 C328 173.1333 326.0944 161.82 322 156.1333 C318.8044 151.695 315.4021 148.6961 310 148.1333 C274.553 144.4409 267.7435 145.5056 226 146.1333 C201.611 146.5001 200.122 147.2431 177 150.1333 C173.5551 150.5639 173.3494 152.8483 170 153.1333 C151.495 154.7082 148.8397 152.2863 130 154.1333 C124.6475 154.6581 123.5057 155.4829 119 158.1333 C115.7845 160.0248 114.1655 161.3027 113 164.1333 C111.4298 167.9468 112 175.1333 112 175.1333 "/>
<path id="7" d="M116 184.1333 C116 184.1333 121.1988 178.8033 126 177.1333 C131.1537 175.3407 133.1948 177.6963 139 176.1333 C145.3941 174.4118 152 170.1333 152 170.1333 "/>
<path id="8" d="M154 170.1333 L327 173.1333 "/>
<path id="9" d="M146 220.1333 C146 220.1333 138.2561 226.109 137 231.1333 C134.2271 242.2248 134.8972 253.0752 136 260.1333 C136.1505 261.0968 140.1567 261.1482 142 263.1333 C145.7634 267.1862 145.1184 270.2518 149 274.1333 C151.5877 276.721 153.1917 277.6573 157 278.1333 C171.3932 279.9325 179.4371 282.2517 189 279.1333 C194.8021 277.2414 197.7479 271.3033 203 263.1333 C206.0612 258.3714 207.1467 256.2683 207 251.1333 C206.7143 241.1349 205.8674 235.3847 202 228.1333 C200.0613 224.4982 196.649 223.2517 191 221.1333 C181.5158 217.5768 180.3526 217.6123 170 216.1333 C163.3253 215.1798 161.3377 214.5765 156 216.1333 C151.4089 217.4724 146 223.1333 146 223.1333 "/>
<path id="10" d="M280 212.1333 C280 212.1333 282.9926 215.1383 283 215.1333 C283.0247 215.1168 282.96 210.1533 283 210.1333 C283.04 210.1133 286.9831 213.139 287 213.1333 C287.0019 213.1327 286.4825 209.6158 286 209.1333 C285.7105 208.8439 283.075 208.9833 283 209.1333 C282.7 209.7333 282.396 214.4431 283 215.1333 C283.8178 216.068 289.9747 217.1712 290 217.1333 C290.0568 217.0481 288.7765 211.354 287 209.1333 C285.9751 207.8522 283.1359 206.9913 282 207.1333 C281.1929 207.2342 279.1873 209.0097 279 210.1333 C278.5274 212.9692 279.0779 217.816 280 219.1333 C280.4943 219.8395 284.2792 220.5157 286 220.1333 C287.092 219.8907 288.7334 218.1997 289 217.1333 C289.3377 215.7826 288.2547 212.2425 288 212.1333 C287.5833 211.9547 282 214.1333 282 214.1333 "/>
<path id="11" d="M282 244.1333 C282 244.1333 278.199 244.6857 278 245.1333 C277.427 246.4226 277.1195 251.5192 278 253.1333 C278.6904 254.399 283.2611 256.355 284 256.1333 C284.8404 255.8812 288.0799 250.4527 288 250.1333 C287.9441 249.9097 282.5348 247.9805 282 248.1333 C281.7889 248.1936 280.7545 251.3967 281 252.1333 C281.2009 252.736 283.8186 254.224 284 254.1333 C284.4989 253.8839 286.8314 250.4825 287 249.1333 C287.0863 248.4431 285.846 246.5563 285 246.1333 C284.0332 245.6499 281.1538 245.9026 281 246.1333 C280.6538 246.6526 280.775 251.4583 281 252.1333 C281.025 252.2083 283 252.1333 283 252.1333 "/>
<path id="12" d="M280 281.1333 C280 281.1333 268.1552 281.7306 267 283.1333 C265.5613 284.8803 264.4265 293.9373 266 298.1333 C267.3718 301.7914 271.5476 305.3119 276 307.1333 C279.9051 308.7309 282.6097 307.9844 288 307.1333 C291.3571 306.6033 294.3041 305.5251 295 304.1333 C296.4453 301.2428 296.7898 296.1352 296 291.1333 C295.5922 288.5504 294.3114 287.4447 292 285.1333 C289.6886 282.8219 288.7376 281.6548 286 281.1333 C279.9271 279.9766 272.9929 279.961 271 281.1333 C269.9527 281.7494 268.3057 288.1826 269 291.1333 C269.6129 293.738 272.0346 296.6507 275 298.1333 C279.0579 300.1623 285.0476 300.7841 287 300.1333 C287.9188 299.8271 290 295.0994 290 293.1333 C290 292.0099 288.4571 289.8619 287 289.1333 C284.8143 288.0405 281.6849 287.6279 280 288.1333 C278.9438 288.4502 277.4526 290.3227 277 292.1333 C276.2376 295.1827 276.3347 297.9158 277 300.1333 C277.2412 300.9372 278.6393 301.9065 280 302.1333 C283.6739 302.7456 288.2336 302.8231 289 302.1333 C289.7749 301.4359 290.9858 295.105 290 293.1333 C288.6662 290.4658 284.7576 287.3859 281 286.1333 C278.1265 285.1755 273.0615 286.0719 272 287.1333 C270.7262 288.4071 269.5696 293.9056 270 297.1333 C270.2447 298.9683 272.5067 301.819 274 302.1333 C278.371 303.0536 287.6282 302.4194 289 301.1333 C290.2158 299.9936 290.5515 291.8211 290 287.1333 C289.8668 286.0011 288.1322 284.2665 287 284.1333 C282.3123 283.5818 274.0065 284.0549 273 285.1333 C271.9983 286.2066 273.4802 295.5321 273 299.1333 C272.9566 299.4592 270.9931 300.123 271 300.1333 C271.1864 300.413 274.3033 304.2344 277 305.1333 C280.1657 306.1886 282.7013 306.0758 286 305.1333 C288.2515 304.4901 290.3452 302.8358 291 301.1333 C291.995 298.5464 291.377 292.6361 291 292.1333 C290.8534 291.9378 285.7673 292.366 285 293.1333 C284.2327 293.9006 284 299.1333 284 299.1333 C284 299.1333 284.6237 293.9649 284 293.1333 C283.3243 292.2325 278.0324 291.0929 278 291.1333 C277.9376 291.2113 279.8467 298.0107 280 298.1333 C280.0121 298.143 283.0501 295.2503 283 295.1333 C282.8078 294.6849 277.0082 291.1235 277 291.1333 C276.9248 291.2236 277.1689 300.3022 278 301.1333 C278.68 301.8133 284.0924 302.1718 287 301.1333 C289.1923 300.3504 291.4743 298.1049 292 296.1333 C292.808 293.1034 292.4617 287.8199 291 286.1333 C288.9285 283.7431 284.4016 282.2705 279 281.1333 C276.1903 280.5418 272.9455 281.306 272 282.1333 C271.2496 282.7899 270.3887 287.3387 271 288.1333 C272.8069 290.4823 282 295.1333 282 295.1333 "/>
<path id="13" d="M50 38.1333 C50 38.1333 36.0146 25.1563 36 25.1333 C35.9957 25.1266 40.6023 25.277 43 27.1333 C54.5091 36.0436 54.6804 39.5514 67 49.1333 C71.9944 53.0179 74.0909 51.4515 79 55.1333 C83.3884 58.4247 82.4676 60.6369 87 64.1333 C99.4013 73.7 101.5684 72.7154 114 82.1333 C117.4579 84.7529 116.5459 87.0225 120 89.1333 C133.163 97.1774 135.9681 95.6557 150 104.1333 C159.5043 109.8755 160.1863 113.5754 168 118.1333 C169.7917 119.1785 171.6087 117.3975 174 118.1333 C177.2804 119.1427 177.878 119.7547 181 122.1333 C188.1909 127.6121 188.4178 130.0586 195 134.1333 C197.3404 135.5821 199.263 133.8453 202 135.1333 C206.8706 137.4254 206.9031 140.2 212 142.1333 C220.2634 145.2677 223.1219 142.5136 231 146.1333 C240.0634 150.2976 239.5408 153.779 249 159.1333 C265.6452 168.5551 266.4973 169.685 284 176.1333 C293.9569 179.8017 306 180.1333 306 180.1333 "/>
<path id="14" d="M134 225.1333 C134 225.1333 131.0243 227.062 131 228.1333 C130.675 242.4343 128.4166 259.4166 133 269.1333 C135.4968 274.4266 144.8473 278.5737 156 281.1333 C172.6545 284.9557 179.0347 284.131 194 283.1333 C196.8982 282.9401 198.6173 280.7808 201 278.1333 C202.4339 276.5402 201.751 274.3824 203 273.1333 C204.249 271.8843 207.7394 271.9895 208 271.1333 C209.5988 265.8801 209.4628 260.6096 210 250.1333 C210.4583 241.1973 211.843 238.1232 210 232.1333 C208.9288 228.652 205.9897 226.3498 202 224.1333 C198.4378 222.1543 192.0901 222.1848 192 222.1333 C191.985 222.1248 195.0171 220.1455 195 220.1333 C194.868 220.039 189.9396 217.6673 185 217.1333 C172.0304 215.7312 171.0796 215.3159 158 216.1333 C147.682 216.7782 142.7323 217.506 137 220.1333 C135.4414 220.8477 134 227.1333 134 227.1333 "/>
</g>
</g>
</svg>
