<?xml version="1.0" encoding="utf-8"?>
<!DOCTYPE svg PUBLIC "-//W3C//DTD SVG 1.1//EN" "http://www.w3.org/Graphics/SVG/1.1/DTD/svg11.dtd">
<svg viewBox="0 0 800 800" preserveAspectRatio="xMinYMin meet" xmlns="http://www.w3.org/2000/svg" version="1.1">
<g fill="none" stroke="black" stroke-linecap="round" stroke-linejoin="round" stroke-width="2.3618">
<g transform="translate(87.52,131.3434) scale(1.2702) translate(-55,-13.1333)">
<path id="0" d="M60 129.1333 C60 129.1333 56.3277 216.2767 55 302.1333 C54.8391 312.5352 55.0416 312.9497 57 323.1333 C59.9798 338.6285 63.1221 338.8754 65 354.1333 C66.9962 370.3526 65.8702 371.3094 65 388.1333 C64.3818 400.0859 61.7479 412.0788 62 412.1333 C88.5031 417.8637 174.86 427.9529 287 436.1333 C338.4334 439.8853 339.1831 438.1263 391 436.1333 C468.917 433.1365 533.3748 434.6951 547 426.1333 C550.7073 423.8038 539.974 384.284 539 343.1333 C537.9942 300.6391 543 299.6602 543 257.1333 C543 237.8479 539.7779 237.5802 539 218.1333 C537.7883 187.8408 540.7505 186.8926 539 157.1333 C538.3028 145.2813 536.6261 134.1181 534 133.1333 C517.7979 127.0575 492.5245 127.0994 451 124.1333 C394.7238 120.1136 394.3581 118.9746 338 119.1333 C217.2803 119.4734 215.3495 119.9063 96 125.1333 C80.1059 125.8294 64 131.1333 64 131.1333 "/>
<path id="1" d="M150 118.1333 C150 118.1333 172.9029 103.3229 197 94.1333 C230.9054 81.2033 233.1225 85.0234 268 73.1333 C298.8715 62.6089 298.9436 62.0146 329 49.1333 C358.3336 36.5618 387 22.1333 387 22.1333 "/>
<path id="2" d="M385 15.1333 C385 15.1333 380.0284 14.0695 380 14.1333 C379.7782 14.6323 379.8603 20.4293 381 24.1333 C381.4338 25.5431 382.8687 26.9825 384 27.1333 C387.9483 27.6598 394.0449 27.3902 396 26.1333 C397.1046 25.4232 398.3565 20.272 398 18.1333 C397.783 16.8315 395.8591 14.7143 394 14.1333 C389.64 12.7708 382 13.1333 382 13.1333 "/>
<path id="3" d="M103 180.1333 C103 180.1333 110 223.8783 110 265.1333 C110 286.0035 103.7487 286.9829 103 308.1333 C101.79 342.3151 106 378.1333 106 378.1333 "/>
<path id="4" d="M141 175.1333 C141 175.1333 143 210.667 143 246.1333 C143 311.0717 141 376.1333 141 376.1333 "/>
<path id="5" d="M180 182.1333 C180 182.1333 184.6162 243.0518 184 303.1333 C183.6227 339.9205 178 377.1333 178 377.1333 "/>
<path id="6" d="M217 182.1333 C217 182.1333 221.1684 211.3308 221 240.1333 C220.6716 296.2857 218.5935 310.5258 216 353.1333 C215.9514 353.9312 214 354.4583 214 355.1333 C214 362.8961 216 378.1333 216 378.1333 "/>
<path id="7" d="M298 179.1333 C298 179.1333 297.3756 217.7381 300 219.1333 C308.8055 223.8148 338.764 219.0091 377 221.1333 C392.4817 221.9934 392.5686 224.4238 408 225.1333 C435.7117 226.4074 457.1763 226.23 464 225.1333 C464.1763 225.105 464.7764 220.0155 464 216.1333 C463.4306 213.2864 461.232 212.9178 461 210.1333 C459.8862 196.7679 463.5299 183.9832 461 180.1333 C459.3037 177.5521 449.4646 176.6967 438 175.1333 C427.7677 173.738 427.497 174.2855 417 174.1333 C358.5496 173.2862 300 173.1333 300 173.1333 "/>
<path id="8" d="M333 193.1333 L334 219.1333 "/>
<path id="9" d="M295 319.1333 C295 319.1333 292.064 317.7787 291 318.1333 C289.1622 318.7459 286.7411 320.2805 286 322.1333 C284.5919 325.6536 283.7542 329.863 285 333.1333 C286.5755 337.2689 289.6166 340.7424 294 343.1333 C298.2731 345.4641 300.5383 344.5714 307 345.1333 C311.9049 345.5598 313.5414 345.9315 317 345.1333 C318.277 344.8386 319.7281 343.4021 320 342.1333 C320.821 338.3022 321.5687 334.8983 320 331.1333 C317.5518 325.2578 313.9728 320.1197 310 318.1333 C306.7496 316.5081 296 319.1333 296 319.1333 "/>
<path id="10" d="M375 287.1333 C375 287.1333 373.3584 285.9704 373 286.1333 C370.2805 287.3695 368.0513 288.7572 364 292.1333 C359.2252 296.1123 357.6674 296.2431 355 301.1333 C349.456 311.2973 348.8055 314.2619 346 325.1333 C345.2814 327.9178 345.6224 329.5034 347 332.1333 C350.5224 338.8579 351.6025 340.1008 357 346.1333 C359.6492 349.0942 360.3336 349.0965 364 351.1333 C369.1662 354.0035 369.7372 354.8803 375 356.1333 C379.3171 357.1612 381.9153 357.6023 385 356.1333 C389.8622 353.818 392.4567 351.4482 396 346.1333 C399.5433 340.8185 397.8065 338.23 401 332.1333 C402.949 328.4125 406.0061 328.399 407 325.1333 C408.836 319.1008 408.9568 316.309 408 309.1333 C407.1156 302.5004 406.1053 301.0335 403 295.1333 C401.5751 292.426 400.7151 292.013 398 290.1333 C394.5444 287.741 393.9378 287.1178 390 286.1333 C384.6402 284.7934 378 285.1333 378 285.1333 "/>
<path id="11" d="M455 321.1333 C455 321.1333 448.5427 320.4426 448 321.1333 C446.3084 323.2862 443.248 331.6742 444 335.1333 C444.6275 338.0197 448.2467 340.8811 453 344.1333 C456.9941 346.8661 460.6448 348.6941 463 348.1333 C466.4212 347.3188 471.7468 343.2642 474 339.1333 C476.0347 335.4031 476.3519 329.6821 475 326.1333 C473.7756 322.9193 470.2882 320.2774 466 318.1333 C462.8663 316.5665 459.7471 316.4994 457 317.1333 C455.4577 317.4892 453 321.1333 453 321.1333 "/>
<path id="12" d="M377 312.1333 C377 312.1333 371.4332 316.0622 370 319.1333 C368.8832 321.5264 368.9449 324.6713 370 327.1333 C371.1305 329.7712 373.9051 332.5747 376 333.1333 C378.3338 333.7557 382.5015 332.918 385 331.1333 C387.5669 329.2998 388.5807 326.8235 390 323.1333 C390.7151 321.274 390.5605 318.5444 390 318.1333 C387.0342 315.9584 375 312.1333 375 312.1333 "/>
</g>
</g>
</svg>
