<?xml version="1.0" encoding="utf-8"?>
<!DOCTYPE svg PUBLIC "-//W3C//DTD SVG 1.1//EN" "http://www.w3.org/Graphics/SVG/1.1/DTD/svg11.dtd">
<svg viewBox="0 0 800 800" preserveAspectRatio="xMinYMin meet" xmlns="http://www.w3.org/2000/svg" version="1.1">
<g fill="none" stroke="black" stroke-linecap="round" stroke-linejoin="round" stroke-width="1.3153">
<g transform="translate(128.5758,87.52) scale(2.2809) translate(-113,-21.1333)">
<path id="0" d="M119 230.1333 C119 230.1333 118.1318 268.8281 120 288.1333 C120.1442 289.6233 122.5335 291.3544 125 292.1333 C130.7621 293.9529 132.051 294.0248 139 294.1333 C227.163 295.5109 244.5897 297.8152 317 295.1333 C321.5963 294.9631 326.8927 290.6257 328 287.1333 C331.2421 276.9083 329.4928 270.6182 330 254.1333 C330.4909 238.1777 332.3318 234.3752 330 222.1333 C329.1603 217.7248 326.3097 214.944 322 212.1333 C316.5806 208.599 314.1808 207.3339 307 207.1333 C229.2147 204.9606 220.9423 203.4798 143 207.1333 C129.4923 207.7665 119.9514 211.6771 115 216.1333 C112.5037 218.38 112.6323 232.4785 113 234.1333 C113.0279 234.259 119 234.1333 119 234.1333 "/>
<path id="1" d="M241 230.1333 C241 230.1333 234.9567 228.9463 231 230.1333 C226.331 231.534 224.5433 232.5901 221 236.1333 C217.4567 239.6766 216.2183 241.4632 215 246.1333 C213.6306 251.3828 213.1638 254.3899 215 259.1333 C218.1985 267.396 220.6825 271.9439 227 277.1333 C231.7424 281.0288 235.4107 281.6384 243 282.1333 C256.885 283.0389 262.8329 284.2434 273 280.1333 C280.8781 276.9486 286.4797 270.588 290 263.1333 C292.6724 257.4741 292.0437 251.6271 290 244.1333 C288.2301 237.6436 286.1286 235.5184 281 230.1333 C277.0291 225.9639 275.2168 224.3608 270 223.1333 C260.4156 220.8782 256.5976 220.5337 247 222.1333 C241.0453 223.1258 234 229.1333 234 229.1333 "/>
<path id="2" d="M224 232.1333 L279 232.1333 "/>
<path id="3" d="M215 249.1333 L293 249.1333 "/>
<path id="4" d="M222 271.1333 L287 271.1333 "/>
<path id="5" d="M232 230.1333 L232 280.1333 "/>
<path id="6" d="M251 223.1333 L252 284.1333 "/>
<path id="7" d="M267 222.1333 L268 282.1333 "/>
<path id="8" d="M149 227.1333 C149 227.1333 148.6398 241.0557 149 241.1333 C156.7648 242.8057 206.4537 243.2231 214 241.1333 C214.5787 240.9731 214.5943 223.3031 214 223.1333 C206.7193 221.0531 158.8257 222.5122 151 223.1333 C150.9507 223.1372 151 228.1333 151 228.1333 "/>
<path id="9" d="M152 229.1333 L217 229.1333 "/>
<path id="10" d="M150 235.1333 C150 235.1333 217.5935 235.1591 218 235.1333 C218.0284 235.1315 213 231.1333 213 231.1333 "/>
<path id="11" d="M334 222.1333 C334 222.1333 338.9196 214.7835 341 214.1333 C342.7656 213.5816 349.722 216.0214 350 217.1333 C351.9724 225.0228 352.0884 248.9634 351 254.1333 C350.9144 254.5401 343.9982 255.9019 342 255.1333 C340.5371 254.5707 338.8527 251.9046 338 249.1333 C337.1745 246.4505 338.8701 244.0475 338 242.1333 C337.2203 240.418 333 238.1333 333 238.1333 "/>
<path id="12" d="M333 224.1333 L333 229.1333 "/>
<path id="13" d="M332 261.1333 C332 261.1333 331.9799 263.1313 332 263.1333 C332.9935 263.2327 341.6344 261.6947 342 262.1333 C342.6481 262.911 342.7977 273.272 342 275.1333 C341.7808 275.6447 337.0829 276.6146 336 276.1333 C334.9821 275.6809 333.5379 273.4642 333 271.1333 C332.244 267.8575 333 263.1333 333 263.1333 "/>
<path id="14" d="M324 93.1333 L324 216.1333 "/>
<path id="15" d="M116 235.1333 L118 216.1333 "/>
<path id="16" d="M325 96.1333 L327 21.1333 "/>
<path id="17" d="M326 96.1333 L327 96.1333 "/>
<path id="18" d="M327 93.1333 C327 93.1333 325.8552 121.6586 327 149.1333 C327.3296 157.0446 330 165.1333 330 165.1333 "/>
<path id="19" d="M327 154.1333 C327 154.1333 328.027 217.7418 328 218.1333 C327.9976 218.168 323 212.1333 323 212.1333 "/>
<path id="20" d="M324 209.1333 L325 202.1333 "/>
</g>
</g>
</svg>
