<?xml version="1.0" encoding="utf-8"?>
<!DOCTYPE svg PUBLIC "-//W3C//DTD SVG 1.1//EN" "http://www.w3.org/Graphics/SVG/1.1/DTD/svg11.dtd">
<svg viewBox="0 0 800 800" preserveAspectRatio="xMinYMin meet" xmlns="http://www.w3.org/2000/svg" version="1.1">
<g fill="none" stroke="black" stroke-linecap="round" stroke-linejoin="round" stroke-width="1.2481">
<g transform="translate(164.4382,87.52) scale(2.4037) translate(-193,-22)">
<path id="0" d="M197 150 C197 150 204.1249 147.1551 211 147 C269.157 145.6882 270.6211 148.0479 330 147 C355.4745 146.5504 381 144 381 144 "/>
<path id="1" d="M197 150 C197 150 193.3217 159.1537 193 168 C191.369 212.8518 190.4003 222.118 193 260 C193.2962 264.3154 195.9276 267.024 200 270 C207.2799 275.3199 209.5683 276.1181 219 279 C226.6369 281.3335 227.5313 280.8046 236 281 C292.1513 282.2958 300.5264 282.8216 349 282 C351.167 281.9633 351.5962 279.4808 354 279 C360.5247 277.6951 362.3963 279.7121 369 278 C374.8664 276.4791 377.8364 275.6631 381 272 C385.2621 267.065 387.5048 263.551 388 256 C391.1909 207.3394 390.9111 185.6734 389 150 C388.885 147.8535 383.8892 146.429 382 144 C381.5048 143.3633 382 141 382 141 "/>
<path id="2" d="M344 146 C344 146 345.8068 135.8753 345 127 C344.3871 120.2582 341.2864 119.8022 341 113 C339.3626 74.1122 339.8887 42.0015 341 32 C341.0137 31.8765 348.4979 31.1807 350 32 C350.88 32.48 351.8462 35.0771 352 38 C354.7266 89.8053 356 146 356 146 "/>
<path id="3" d="M340 33 C340 33 344.675 33.1875 348 32 C350.9555 30.9445 352.6351 29.5924 354 28 C354.4479 27.4775 354.4371 25.8743 354 25 C353.3443 23.6886 352.0303 22.0515 351 22 C345.4722 21.7236 334.5756 23.6015 334 24 C333.9735 24.0183 338 31 338 31 "/>
<path id="4" d="M221 171 C221 171 286.0993 166.3715 291 171 C295.6362 175.3787 294.5126 216.6135 293 239 C292.8557 241.1352 289.5625 243.1 286 245 C282.8334 246.6889 281.9175 246.8219 278 247 C260.5694 247.7923 259.6343 248.0174 242 247 C234.0777 246.5429 232.2552 246.7523 226 244 C221.4783 242.0105 219.1953 240.2442 217 236 C212.8188 227.9163 211.9951 225.2828 211 215 C209.1094 195.4641 208.8718 182.7062 211 174 C211.3472 172.5796 216.6605 170.9286 222 170 C227.4785 169.0472 234 170 234 170 "/>
<path id="5" d="M327 185 C327 185 363.8419 180.8103 372 182 C372.8162 182.119 374.4944 187.1123 375 192 C375.9318 201.0072 376.8785 206.3039 375 211 C374.0113 213.4717 370.0323 215.5622 365 217 C353.7694 220.2087 351.2643 221.2682 340 221 C332.2571 220.8156 327.3356 219.3502 323 216 C320.034 213.7081 318.8924 209.5778 318 204 C317.1048 198.4048 316.9346 193.6391 319 191 C322.4922 186.5377 328.262 184.5173 336 181 C337.7957 180.1838 341 181 341 181 "/>
<path id="6" d="M348 218 C348 218 344.7769 217.2948 344 216 C338.7736 207.2893 333.0594 193.0842 333 193 C332.9898 192.9855 333.0332 197.1403 332 199 C331.177 200.4815 328 202 328 202 "/>
<path id="7" d="M335 197 L348 199 "/>
<path id="8" d="M326 247 C326 247 325.8245 239.6183 325 239 C323.6161 237.9621 317.9667 237.1185 314 238 C311.0148 238.6634 307.4051 241.7847 307 243 C306.6686 243.9943 308.2907 248.8605 310 250 C313.1213 252.0809 320.7885 253.4327 322 253 C322.5385 252.8077 324 245 324 245 "/>
<path id="9" d="M364 242 C364 242 360.1157 237.438 357 236 C355.0864 235.1168 353.0571 235.4857 351 236 C350.1429 236.2143 349 237.3749 349 238 C349 241.7505 349.978 249.1352 351 250 C351.8538 250.7225 360.7688 249.7835 362 249 C362.404 248.7429 362 243 362 243 "/>
</g>
</g>
</svg>
