<?xml version="1.0" encoding="utf-8"?>
<!DOCTYPE svg PUBLIC "-//W3C//DTD SVG 1.1//EN" "http://www.w3.org/Graphics/SVG/1.1/DTD/svg11.dtd">
<svg viewBox="0 0 800 800" preserveAspectRatio="xMinYMin meet" xmlns="http://www.w3.org/2000/svg" version="1.1">
<g fill="none" stroke="black" stroke-linecap="round" stroke-linejoin="round" stroke-width="1.5697">
<g transform="translate(87.52,256.6606) scale(1.9112) translate(-118,-80.4167)">
<path id="0" d="M130 82.4167 C130 82.4167 123.1802 116.9641 120 151.4167 C117.2172 181.5636 114.8436 200.4926 118 212.4167 C118.6417 214.8409 127.8974 216.9426 138 219.4167 C152.062 222.8604 152.7056 224.2217 167 224.4167 C260.9119 225.6973 263.3198 221.1976 358 222.4167 C378.8544 222.6852 379.0734 226.214 400 227.4167 C422.269 228.6965 440.0063 229.1922 445 227.4167 C445.6313 227.1922 446.4847 218.8403 445 211.4167 C440.6943 189.8881 437.9194 189.5538 433 167.4167 C427.9635 144.7525 432.9233 140.4325 425 121.4167 C417.0901 102.433 408.0649 85.1842 398 83.4167 C344.9009 74.0919 305.4801 86.725 220 85.4167 C211.3177 85.2838 210.6188 80.6061 202 80.4167 C167.2893 79.6538 129 83.4167 129 83.4167 "/>
<path id="1" d="M227 86.4167 L227 230.4167 "/>
<path id="2" d="M347 83.4167 C347 83.4167 345 136.8597 345 189.4167 C345 198.3414 344.2637 199.7942 347 207.4167 C350.6996 217.7227 359 228.4167 359 228.4167 "/>
<path id="3" d="M242 97.4167 C242 97.4167 241.4067 115.2306 242 115.4167 C247.2919 117.0769 268.5051 112.1442 293 113.4167 C305.6631 114.0745 306.4907 118.3742 319 119.4167 C329.3064 120.2755 340.9752 117.4255 341 117.4167 C341.0076 117.414 334.9587 116.6692 333 114.4167 C327.0126 107.5312 325.3804 95.3313 321 94.4167 C299.6636 89.9618 242 95.4167 242 95.4167 "/>
<path id="4" d="M252 152.4167 C252 152.4167 249.6769 162.0936 250 162.4167 C250.4847 162.9013 261.4704 162.7874 262 162.4167 C262.128 162.3271 261.2329 156.3413 260 155.4167 C258.0444 153.95 250 153.4167 250 153.4167 "/>
<path id="5" d="M273 156.4167 C273 156.4167 272.3581 166.9754 273 167.4167 C274.3581 168.3504 287.0308 167.6628 289 167.4167 C289.0308 167.4128 289.3446 165.8991 289 165.4167 C287.5232 163.3492 286.1969 161.2616 284 160.4167 C281.4613 159.4403 276 160.4167 276 160.4167 "/>
<path id="6" d="M310 161.4167 C310 161.4167 307.0269 162.255 307 162.4167 C306.9162 162.9195 308.0358 167.0197 309 167.4167 C312.7589 168.9644 322.6372 169.5984 324 169.4167 C324.0493 169.4101 324.2712 165.5523 324 165.4167 C322.2374 164.5354 312 163.4167 312 163.4167 "/>
<path id="7" d="M149 108.4167 L150 106.4167 "/>
<path id="8" d="M167 109.4167 L174 109.4167 "/>
<path id="9" d="M196 115.4167 L197 120.4167 "/>
<path id="10" d="M148 155.4167 L147 157.4167 "/>
<path id="11" d="M145 169.4167 L158 174.4167 "/>
<path id="12" d="M169 176.4167 L174 178.4167 "/>
<path id="13" d="M188 182.4167 L196 186.4167 "/>
<path id="14" d="M205 158.4167 L200 157.4167 "/>
<path id="15" d="M182 150.4167 L177 148.4167 "/>
<path id="16" d="M172 140.4167 L169 139.4167 "/>
<path id="17" d="M166 136.4167 L162 135.4167 "/>
<path id="18" d="M163 133.4167 L168 132.4167 "/>
<path id="19" d="M197 134.4167 L198 135.4167 "/>
<path id="20" d="M204 138.4167 C204 138.4167 207.9751 139.1355 209 140.4167 C210.7765 142.6373 212 148.4167 212 148.4167 "/>
<path id="21" d="M215 152.4167 L215 159.4167 "/>
<path id="22" d="M159 146.4167 L154 147.4167 "/>
<path id="23" d="M134 140.4167 L135 138.4167 "/>
<path id="24" d="M151 121.4167 L155 112.4167 "/>
<path id="25" d="M166 98.4167 L168 98.4167 "/>
<path id="26" d="M416 107.4167 L416 108.4167 "/>
<path id="27" d="M393 125.4167 L391 124.4167 "/>
<path id="28" d="M385 116.4167 L362 116.4167 "/>
<path id="29" d="M358 116.4167 L352 120.4167 "/>
<path id="30" d="M346 131.4167 L348 139.4167 "/>
<path id="31" d="M356 152.4167 L356 153.4167 "/>
<path id="32" d="M365 163.4167 L373 171.4167 "/>
<path id="33" d="M378 175.4167 L383 188.4167 "/>
<path id="34" d="M384 194.4167 L384 196.4167 "/>
<path id="35" d="M379 202.4167 L380 206.4167 "/>
<path id="36" d="M417 214.4167 L417 212.4167 "/>
<path id="37" d="M417 195.4167 L417 194.4167 "/>
<path id="38" d="M412 183.4167 C412 183.4167 409.3227 178.4838 406 175.4167 C403.3457 172.9665 399 171.4167 399 171.4167 "/>
<path id="39" d="M398 147.4167 L401 146.4167 "/>
<path id="40" d="M426 146.4167 L410 151.4167 "/>
<path id="41" d="M389 145.4167 C389 145.4167 381.6305 141.0472 379 138.4167 C378.5358 137.9525 379.36 135.7253 379 135.4167 C377.6599 134.268 372 132.4167 372 132.4167 "/>
<path id="42" d="M386 108.4167 L387 100.4167 "/>
</g>
</g>
</svg>
