<?xml version="1.0" encoding="utf-8"?>
<!DOCTYPE svg PUBLIC "-//W3C//DTD SVG 1.1//EN" "http://www.w3.org/Graphics/SVG/1.1/DTD/svg11.dtd">
<svg viewBox="0 0 800 800" preserveAspectRatio="xMinYMin meet" xmlns="http://www.w3.org/2000/svg" version="1.1">
<g fill="none" stroke="black" stroke-linecap="round" stroke-linejoin="round" stroke-width="1.6225">
<g transform="translate(87.52,228.0436) scale(1.849) translate(-132,-134.4167)">
<path id="0" d="M132 169.4167 L396 169.4167 "/>
<path id="1" d="M133 173.4167 C133 173.4167 140.3456 216.6511 143 259.4167 C144.8061 288.515 142 318.4167 142 318.4167 "/>
<path id="2" d="M144 320.4167 C144 320.4167 384.4841 321.4249 419 319.4167 C419.1095 319.4103 420.2941 310.887 419 304.4167 C418.051 299.6718 414.0918 298.8711 414 294.4167 C413.2097 256.0856 419.1382 248.0421 417 207.4167 C416.3236 194.5643 411.024 193.5208 408 180.4167 C406.752 175.0086 408.6054 169.0826 408 168.4167 C407.5918 167.9677 398 169.4167 398 169.4167 "/>
<path id="3" d="M134 171.4167 C134 171.4167 140.3927 166.6033 143 163.4167 C143.5091 162.7944 142.6169 160.7232 143 160.4167 C145.2349 158.6287 149.1985 158.6179 153 155.4167 C157.8856 151.3025 157.2921 148.8107 162 144.4167 C164.1503 142.4097 168 141.4167 168 141.4167 "/>
<path id="4" d="M406 166.4167 L417 143.4167 "/>
<path id="5" d="M172 140.4167 C172 140.4167 196.879 142.4586 219 140.4167 C227.7326 139.6106 228.38 134.669 237 134.4167 C325.6875 131.8209 333.7863 133.0498 424 134.4167 C429.3286 134.4974 432.9565 136.4878 435 137.4167 C435.1503 137.485 435.1547 139.349 435 139.4167 C431.7837 140.8238 419 144.4167 419 144.4167 "/>
<path id="6" d="M432 141.4167 C432 141.4167 444.3593 179.3267 448 216.4167 C452.1842 259.043 452.1329 282.1449 448 304.4167 C447.4204 307.5398 438.2623 308.3322 430 313.4167 C425.6799 316.0752 422 320.4167 422 320.4167 "/>
<path id="7" d="M155 164.4167 C155 164.4167 158.4896 164.5914 160 163.4167 C166.0415 158.7177 173 150.4167 173 150.4167 "/>
<path id="8" d="M175 150.4167 L419 147.4167 "/>
<path id="9" d="M174 187.4167 C174 187.4167 173.5597 215.3604 174 215.4167 C200.9347 218.8604 290.0245 217.2075 393 215.4167 C398.205 215.3262 403.5443 212.7839 404 211.4167 C405.3276 207.4339 402.5514 188.4618 402 188.4167 C369.3931 185.7463 172 192.4167 172 192.4167 "/>
<path id="10" d="M202 231.4167 C202 231.4167 196.7659 233.204 194 235.4167 C192.7159 236.444 193.0419 238.8957 192 239.4167 C189.1347 240.8493 184.4743 239.3135 182 241.4167 C177.1888 245.5062 176.5026 248.7968 172 256.4167 C170.1109 259.6137 169.3445 260.0867 169 263.4167 C167.9633 273.438 167.278 276.5198 169 285.4167 C169.7953 289.5259 171.4732 291.975 175 294.4167 C182.5637 299.6531 185.425 301.5832 195 303.4167 C206.9007 305.6955 209.3173 304.7175 222 303.4167 C227.8295 302.8188 228.7805 302.1507 234 299.4167 C238.6905 296.9598 240.7032 296.1269 243 292.4167 C246.0102 287.554 246.1924 285.2812 247 278.4167 C248.1162 268.929 248.1939 267.6696 247 258.4167 C246.3125 253.0888 245.8542 250.0114 243 247.4167 C237.6622 242.5641 233.9956 241.1153 225 238.4167 C215.0484 235.4312 203 235.4167 203 235.4167 "/>
<path id="11" d="M360 230.4167 C360 230.4167 348.2127 232.6634 339 236.4167 C335.8418 237.7034 335.1546 238.5439 333 241.4167 C328.0672 247.9937 325.6137 249.424 324 256.4167 C321.7321 266.2442 322.9728 269.1179 324 280.4167 C324.3969 284.7821 324.9733 285.3634 327 289.4167 C329.3162 294.049 329.7787 295.8396 333 298.4167 C335.782 300.6423 337.6548 301.1393 342 301.4167 C359.9643 302.5633 372.584 305.2004 380 301.4167 C384.636 299.0514 386.3843 289.0329 391 276.4167 C393.7772 268.8257 394.0147 268.299 395 260.4167 C395.9554 252.7732 396.6513 250.0781 395 244.4167 C393.9637 240.8635 391.8362 239.3503 388 236.4167 C383.9573 233.3252 382.8114 232.2186 378 231.4167 C366.3786 229.4798 352 230.4167 352 230.4167 "/>
<path id="12" d="M430 167.4167 L461 166.4167 "/>
<path id="13" d="M432 201.4167 L463 193.4167 "/>
<path id="14" d="M461 171.4167 C461 171.4167 456.6235 172.6128 455 174.4167 C453.1253 176.4997 452.3751 178.2282 452 181.4167 C451.4958 185.702 451.5788 188.9297 453 191.4167 C454.0755 193.2987 456.7196 194.4073 460 195.4167 C462.3913 196.1525 464.4107 196.0127 466 195.4167 C466.8278 195.1063 467.761 193.8509 468 192.4167 C469.5298 183.2376 470 179.6937 470 171.4167 C470 170.2342 468.9925 168.9129 468 168.4167 C466.1568 167.4951 462 167.4167 462 167.4167 "/>
<path id="15" d="M433 168.4167 C433 168.4167 428.6018 192.6471 429 199.4167 C429.0434 200.1545 435 202.4167 435 202.4167 "/>
</g>
</g>
</svg>
