<?xml version="1.0" encoding="utf-8"?>
<!DOCTYPE svg PUBLIC "-//W3C//DTD SVG 1.1//EN" "http://www.w3.org/Graphics/SVG/1.1/DTD/svg11.dtd">
<svg viewBox="0 0 800 800" preserveAspectRatio="xMinYMin meet" xmlns="http://www.w3.org/2000/svg" version="1.1">
<g fill="none" stroke="black" stroke-linecap="round" stroke-linejoin="round" stroke-width="1.0273">
<g transform="translate(87.52,121.1043) scale(2.9204) translate(-202,-198.1333)">
<path id="0" d="M203 227.1333 C203 227.1333 205 240.6895 205 254.1333 C205 311.3939 198.1689 339.9169 203 369.1333 C203.6658 373.1598 214.333 376.5208 226 381.1333 C235.2417 384.787 235.9591 384.4242 246 386.1333 C259.2479 388.3883 259.5468 388.664 273 389.1333 C302.2842 390.1549 306.9531 391.0025 332 389.1333 C335.5546 388.8681 337.0317 387.1017 340 384.1333 C343.425 380.7083 343.9872 379.8299 346 375.1333 C349.7523 366.3779 350.1263 365.6891 352 356.1333 C355.0445 340.6064 355.1684 340.0992 356 324.1333 C357.6537 292.3823 359.0574 291.5088 357 260.1333 C355.1146 231.3805 351.4645 204.6891 348 202.1333 C345.1628 200.0403 321.907 211.2594 296 215.1333 C269.3703 219.1153 268.2462 215.4966 241 218.1333 C221.9881 219.9732 208.6562 223.8433 203 224.1333 C202.8826 224.1393 201.7292 220.35 202 220.1333 C205.7662 217.1204 212.3865 212.6022 223 208.1333 C230.6117 204.9284 231.5865 204.6704 240 204.1333 C277.6064 201.7329 279.0857 204.4546 317 202.1333 C327.4442 201.4939 328.178 198.767 338 198.1333 C342.5607 197.8391 348 200.1333 348 200.1333 "/>
<path id="1" d="M357 230.1333 C357 230.1333 364.8446 219.4764 373 213.1333 C376.9382 210.0703 378.5637 210.0706 384 209.1333 C392.4512 207.6762 397.8481 206.5764 402 208.1333 C404.2968 208.9946 406.3383 213.1482 408 218.1333 C410.031 224.2263 409.3732 229.9394 410 232.1333 C410.0246 232.2194 411.9984 232.1127 412 232.1333 C412.3934 237.1159 411.4452 252.2536 413 270.1333 C413.3372 274.0114 415.7449 274.3072 416 278.1333 C417.1509 295.3974 418.2909 297.9514 416 315.1333 C414.5099 326.3094 412.4795 330.5742 408 338.1333 C406.5886 340.5151 403.5021 341.8739 400 342.1333 C392.0422 342.7228 389.2155 342.7154 381 340.1333 C373.1193 337.6565 371.5895 336.2252 365 331.1333 C361.503 328.4311 359 323.1333 359 323.1333 "/>
<path id="2" d="M360 244.1333 C360 244.1333 367.7433 234.8148 374 232.1333 C378.5758 230.1723 384.0061 230.2163 388 232.1333 C392.7813 234.4283 395.6631 237.8521 399 244.1333 C403.3362 252.2956 404.0389 254.3624 405 264.1333 C406.9137 283.5896 407.0349 288.1759 405 305.1333 C404.5176 309.1535 402.335 311.4237 399 314.1333 C395.6807 316.8303 393.8276 317.1678 389 318.1333 C384.53 319.0273 382.5037 319.5932 379 318.1333 C372.6349 315.4812 369.3 313.3888 365 308.1333 C361.939 304.3921 361 296.1333 361 296.1333 "/>
</g>
</g>
</svg>
