<?xml version="1.0" encoding="utf-8"?>
<!DOCTYPE svg PUBLIC "-//W3C//DTD SVG 1.1//EN" "http://www.w3.org/Graphics/SVG/1.1/DTD/svg11.dtd">
<svg viewBox="0 0 800 800" preserveAspectRatio="xMinYMin meet" xmlns="http://www.w3.org/2000/svg" version="1.1">
<g fill="none" stroke="black" stroke-linecap="round" stroke-linejoin="round" stroke-width="1.7281">
<g transform="translate(211.644,87.52) scale(1.736) translate(-180,-65)">
<path id="0" d="M180 103 C180 103 185.8367 97.9681 191 97 C199.9427 95.3233 202.3658 94.9268 212 97 C240.2872 103.0871 241.6248 108.6991 270 114 C285.3064 116.8594 287.7208 116.4253 303 114 C317.6251 111.6786 320.2876 110.504 333 104 C339.9287 100.4551 346 92 346 92 "/>
<path id="1" d="M183 104 C183 104 181.52 96.2769 183 94 C185.7306 89.799 189.2868 86.0934 196 84 C231.7875 72.8405 236.5913 71.1374 276 65 C295.9516 61.8928 298.7141 62.0535 318 65 C332.5473 67.2225 334.2706 69.898 348 76 C351.2356 77.438 352.8151 78.6302 354 81 C355.407 83.8141 356.0249 88.581 355 90 C352.6339 93.2761 341 99 341 99 "/>
<path id="2" d="M190 97 C190 97 194.4167 98.5785 196 101 C201.8336 109.922 204.1845 111.8722 207 123 C214.2173 151.5255 214.9394 153.7773 217 184 C219.3697 218.755 220.1331 220.7196 216 255 C211.8199 289.6701 204.1895 290.4368 200 325 C196.3894 354.7879 197.7779 358.1133 200 387 C200.59 394.6697 201.8418 396.3469 206 403 C211.2109 411.3374 214.0015 415.5723 220 419 C223.6287 421.0736 227.3494 417.9768 234 419 C246.3146 420.8946 246.7414 424.482 259 425 C315.7944 427.3998 361.4017 425.6239 376 425 C376.0267 424.9989 376 420 376 420 "/>
<path id="3" d="M361 90 C361 90 356.9344 94.3574 355 99 C352.1965 105.7284 351.3974 106.6205 351 114 C347.9925 169.8534 346.86 172.7614 348 229 C348.3285 245.2061 349.9215 245.8801 354 262 C360.3562 287.1223 365.2526 287.5168 369 312 C372.4396 334.472 371.4635 336.7085 369 360 C366.0662 387.738 364.1998 390.374 358 416 C357.2636 419.0438 355.9825 420.2653 354 422 C352.9551 422.9142 350 423 350 423 "/>
<path id="4" d="M352 125 C352 125 358.6782 131.0186 363 138 C371.3528 151.493 371.8793 152.2548 378 167 C382.6749 178.2623 382.6758 179.0884 385 191 C386.5756 199.0747 385.8335 199.5081 386 208 C386.3326 224.9642 387.2902 225.5501 386 242 C385.343 250.3767 384.645 250.8244 382 259 C379.2146 267.6093 379.5585 268.6195 375 276 C369.5172 284.8769 367.4346 286.1869 361 293 C360.1838 293.8642 358.1403 294.0468 358 294 C357.9649 293.9883 358 292 358 292 "/>
<path id="5" d="M351 113 C351 113 363.5752 124.3439 373 137 C380.6272 147.2423 381.9558 148.2045 386 160 C393.4781 181.8113 394.0868 183.986 397 207 C398.9187 222.1581 399.7463 225.1978 396 239 C391.0215 257.3419 387.905 258.7877 378 277 C372.5966 286.9352 365 296 365 296 "/>
</g>
</g>
</svg>
