<?xml version="1.0" encoding="utf-8"?>
<!DOCTYPE svg PUBLIC "-//W3C//DTD SVG 1.1//EN" "http://www.w3.org/Graphics/SVG/1.1/DTD/svg11.dtd">
<svg viewBox="0 0 800 800" preserveAspectRatio="xMinYMin meet" xmlns="http://www.w3.org/2000/svg" version="1.1">
<g fill="none" stroke="black" stroke-linecap="round" stroke-linejoin="round" stroke-width="1.9585">
<g transform="translate(87.52,157.9812) scale(1.5318) translate(-110,-79)">
<path id="0" d="M448 181 C448 181 454.2075 179.7314 459 181 C470.0587 183.9273 471.3167 184.8307 482 190 C486.2582 192.0604 487.15 192.675 490 196 C492.5333 198.9555 493.4191 200.2244 494 204 C495.2136 211.8882 495.5147 213.669 494 222 C491.6897 234.7069 491.5714 236.8572 486 248 C481.8215 256.3571 479.1687 259.7294 473 264 C469.3146 266.5515 464.1152 266 460 266 C459.3669 266 458 264.1169 458 264 C458 263.9416 460 263 460 263 "/>
<path id="1" d="M450 170 C450 170 472.0816 166.4282 490 168 C497.9251 168.6952 500.7972 170.6064 507 175 C510.9782 177.8179 512.5196 180.0205 514 185 C517.4543 196.6189 516.8326 198.5748 518 212 C518.8111 221.3272 518.9241 221.7594 518 231 C516.9592 241.4078 517.2038 242.175 514 252 C509.8938 264.5924 509.7379 266.6124 503 277 C498.7158 283.6047 495.9382 286.9685 490 289 C481.2024 292.0097 465 290 465 290 "/>
<path id="2" d="M448 166 C448 166 446.0948 160.4047 446 155 C445.6049 132.4789 447 109 447 109 "/>
<path id="3" d="M463 293 C463 293 466.2514 385.3563 460 389 C441.3907 399.8466 373.9308 394.0066 288 395 C201.1166 396.0044 134.0412 396.012 114 393 C113.7003 392.955 115.9255 380.5687 115 369 C113.9786 356.2319 111.1106 355.8831 110 343 C108.6554 327.4025 109.2645 326.9362 110 311 C112.2589 262.0576 114.5672 261.9542 116 213 C117.5616 159.6456 115.7501 119.3703 116 106 C116.0001 105.9953 117.9228 105.8456 118 106 C118.6948 107.3895 118.47 111.5958 120 114 C121.02 115.6028 122.4127 116.1721 125 117 C134.3769 120.0006 134.9431 120.4037 145 122 C166.181 125.3621 166.5131 125.7254 188 127 C225.2793 129.2115 225.5715 129.2215 263 129 C309.9267 128.7223 311.262 130.7315 357 126 C382.3356 123.3791 382.702 118.0602 408 114 C422.4164 111.6863 425.1451 115.2496 438 113 C442.7074 112.1762 447.9598 107.1073 448 107 C448.0026 106.9931 443.704 106.7716 441 105 C430.2178 97.9358 430.228 93.8692 419 88 C409.8622 83.2234 407.7208 82.4628 397 82 C340.6482 79.5675 336.4258 83.3225 280 82 C274.6611 81.8749 274.3498 79.1764 269 79 C230.4389 77.7288 228.6937 77.6193 189 79 C171.565 79.6064 170.2126 78.8825 154 83 C140.0239 86.5495 138.2399 88.053 126 95 C121.0394 97.8155 117 104 117 104 "/>
<path id="4" d="M445 167 C445 167 446.8919 177.0547 447 187 C447.3887 222.7589 443.8581 224.7297 446 259 C446.7276 270.6418 450.587 271.2799 453 283 C453.9484 287.6067 452.372 288.6037 453 293 C453.2692 294.8841 453.9278 296.1065 455 297 C455.9717 297.8097 459 298 459 298 "/>
</g>
</g>
</svg>
