<?xml version="1.0" encoding="utf-8"?>
<!DOCTYPE svg PUBLIC "-//W3C//DTD SVG 1.1//EN" "http://www.w3.org/Graphics/SVG/1.1/DTD/svg11.dtd">
<svg viewBox="0 0 800 800" preserveAspectRatio="xMinYMin meet" xmlns="http://www.w3.org/2000/svg" version="1.1">
<g fill="none" stroke="black" stroke-linecap="round" stroke-linejoin="round" stroke-width="0.65284">
<g transform="translate(87.52,138.0682) scale(4.5953) translate(-217,-146)">
<path id="0" d="M224 180 C224 180 223.8751 188.5627 226 196 C229.7003 208.9512 232.0839 208.809 236 222 C241.4982 240.5201 241.313 258.0376 245 260 C251.3505 263.3801 275.2553 259.3323 298 255 C302.7778 254.0899 305.2114 251.7845 308 248 C310.9009 244.063 311.6274 241.8379 312 236 C314.4971 196.878 314.4523 157.1253 314 154 C313.9772 153.8425 307.2153 158.6188 301 160 C294.9292 161.3491 293.275 158.6056 287 160 C276.3424 162.3683 275.3946 163.2482 265 168 C258.2516 171.085 258.6904 173.6106 252 176 C238.7097 180.7465 237.1646 179.9015 223 183 C221.6082 183.3045 220.0099 183.0546 220 183 C219.8031 181.9173 219.7459 177.0164 221 172 C222.1147 167.541 222.4371 166.7279 225 163 C227.5766 159.2523 228.2192 157.7792 232 156 C243.4719 150.6015 245.717 149.1775 259 147 C274.9366 144.3874 276.4522 145.6239 293 146 C297.8924 146.1112 298.7178 146.1648 303 148 C308.5217 150.3665 314 155 314 155 "/>
<path id="1" d="M222 177 C222 177 216.9773 182.9547 217 183 C217.0259 183.0518 225 183 225 183 "/>
<path id="2" d="M315 175 C315 175 314.4378 168.9508 316 166 C318.0058 162.2114 319.8181 160.8751 324 158 C327.1171 155.857 330.8556 154.3532 332 155 C336.3644 157.4669 342.6882 162.787 347 171 C351.9033 180.3396 351.4237 183.1776 353 195 C354.3348 205.0109 355.0206 207.9174 353 216 C351.7491 221.0035 349.4457 223.7141 345 227 C339.6436 230.9591 337.2317 231.3311 330 233 C325.1449 234.1204 323.5228 233.6461 319 233 C317.649 232.807 316.3594 231.8387 316 231 C315.453 229.7237 316 226 316 226 "/>
<path id="3" d="M315 183 C315 183 321.1378 175.3153 326 173 C329.0847 171.5311 333.7048 171.709 336 173 C338.539 174.4282 340.2874 177.4329 342 182 C344.4548 188.5461 344.3037 189.5723 345 197 C345.7747 205.2631 345.9781 206.5013 345 214 C344.6323 216.8192 343.8285 217.943 342 220 C340.4294 221.7669 339.4926 222.1691 337 223 C333.9535 224.0155 332.061 224.8833 330 224 C324.2649 221.5421 316 214 316 214 "/>
</g>
</g>
</svg>
