<?xml version="1.0" encoding="utf-8"?>
<!DOCTYPE svg PUBLIC "-//W3C//DTD SVG 1.1//EN" "http://www.w3.org/Graphics/SVG/1.1/DTD/svg11.dtd">
<svg viewBox="0 0 800 800" preserveAspectRatio="xMinYMin meet" xmlns="http://www.w3.org/2000/svg" version="1.1">
<g fill="none" stroke="black" stroke-linecap="round" stroke-linejoin="round" stroke-width="0.58084">
<g transform="translate(103.0149,87.52) scale(5.165) translate(-259,-164)">
<path id="0" d="M259 186 C259 186 258.0548 209.6074 259 233 C260.049 258.9617 260.4617 280.7987 263 285 C263.518 285.8573 275.5134 281.9483 288 281 C314.7221 278.9705 338.5572 282.7616 342 279 C345.8161 274.8305 343.1625 249.9008 342 222 C341.6915 214.5965 339.6223 214.4673 339 207 C337.65 190.8004 338.2193 175.3595 338 174 C337.991 173.9445 334.4189 175.1622 334 176 C333.3717 177.2567 335.0027 180.6117 334 182 C330.4257 186.9491 327.248 191.0843 321 194 C314.9759 196.8112 306.5811 195.3927 304 196 C303.9305 196.0164 304.0588 197.9853 304 198 C303.0588 198.2353 296.9412 197.7647 296 198 C295.9412 198.0147 296.0166 199.9989 296 200 C292.2666 200.2489 272.5206 202.6435 266 200 C263.1568 198.8473 259 185 259 185 "/>
<path id="1" d="M259 190 C259 190 257.9442 181.4872 259 177 C259.4013 175.2945 260.8467 174.0767 263 173 C268.0244 170.4878 272.5746 170.2127 275 169 C275.1732 168.9134 274.9245 167.0206 275 167 C276.5598 166.5746 284.4402 166.4254 286 166 C286.0755 165.9794 285.9858 164.0008 286 164 C290.3608 163.7508 304.3045 162.887 321 164 C325.8656 164.3244 327.1917 164.6727 331 167 C335.148 169.5349 339 175 339 175 "/>
<path id="2" d="M339 197 C339 197 338.4979 191.5536 340 189 C342.5001 184.7498 344.7791 182.1105 349 180 C352.5956 178.2022 357.0958 177.8706 360 179 C362.7673 180.0762 364.7784 182.7155 367 187 C371.3229 195.3369 372.1575 196.7877 374 206 C375.4451 213.2253 375.2998 214.6346 374 222 C372.4517 230.7734 372.6788 233.3161 368 240 C360.1178 251.2603 346 262 346 262 "/>
<path id="3" d="M346 252 C346 252 350.9382 246.1237 354 240 C356.2007 235.5986 356.092 234.9943 357 230 C358.0489 224.2308 357.5774 219.6905 358 218 C358.0172 217.931 359.998 218.0225 360 218 C360.248 215.2725 361.0146 204.7929 360 196 C359.7996 194.2629 357.4767 191.9439 357 192 C354.2285 192.3261 347.4834 194.9177 343 198 C341.655 198.9247 341 203 341 203 "/>
</g>
</g>
</svg>
