<?xml version="1.0" encoding="utf-8"?>
<!DOCTYPE svg PUBLIC "-//W3C//DTD SVG 1.1//EN" "http://www.w3.org/Graphics/SVG/1.1/DTD/svg11.dtd">
<svg viewBox="0 0 800 800" preserveAspectRatio="xMinYMin meet" xmlns="http://www.w3.org/2000/svg" version="1.1">
<g fill="none" stroke="black" stroke-linecap="round" stroke-linejoin="round" stroke-width="0.92166">
<g transform="translate(87.52,111.9325) scale(3.255) translate(-191,-152)">
<path id="0" d="M206 160 C206 160 199.2545 181.4438 195 203 C191.8175 219.1247 191.8652 219.5607 191 236 C189.8797 257.2851 189.1692 258.2511 191 279 C192.0869 291.3188 192.1452 297.7582 197 304 C201.6002 309.9146 207.7299 310.6969 219 315 C234.8376 321.0471 235.418 320.701 252 325 C262.2667 327.6617 262.5956 328.2148 273 329 C288.6296 330.1796 296.1299 331.661 305 329 C308.2154 328.0354 311.2075 322.9749 313 317 C316.6347 304.8843 314.0517 302.6886 317 289 C320.9997 270.43 325.1083 270.2864 327 252 C330.9395 213.9186 331.9594 191.179 329 173 C328.6387 170.7807 321.0793 168.6062 313 166 C305.9342 163.7207 305.46 163.563 298 163 C279.3454 161.5921 278.8382 163.4985 260 162 C235.0286 160.0136 210 156 210 156 "/>
<path id="1" d="M209 154 C209 154 210.2497 152.0231 211 152 C233.9277 151.2945 243.7067 148.6626 274 152 C301.1352 154.9895 323.522 163.0362 329 165 C329.0139 165.005 327 171 327 171 "/>
<path id="2" d="M330 218 C330 218 346.8606 216.3559 361 218 C366.7385 218.6673 368.3582 219.6241 373 223 C378.3435 226.8862 381.2534 229.1096 383 234 C385.0377 239.7055 384.3421 243.4845 383 251 C382.0611 256.2577 381.0811 257.8919 378 262 C375.8589 264.8548 373.9623 266.8119 371 267 C348.3557 268.4377 315 266 315 266 "/>
<path id="3" d="M335 232 C335 232 354.892 230.8345 358 232 C358.5912 232.2217 359.9297 239.4505 359 241 C357.6719 243.2135 353.6618 245.9242 349 247 C342.4483 248.5119 333 247 333 247 "/>
</g>
</g>
</svg>
