<?xml version="1.0" encoding="utf-8"?>
<!DOCTYPE svg PUBLIC "-//W3C//DTD SVG 1.1//EN" "http://www.w3.org/Graphics/SVG/1.1/DTD/svg11.dtd">
<svg viewBox="0 0 800 800" preserveAspectRatio="xMinYMin meet" xmlns="http://www.w3.org/2000/svg" version="1.1">
<g fill="none" stroke="black" stroke-linecap="round" stroke-linejoin="round" stroke-width="1.3249">
<g transform="translate(87.52,115.8243) scale(2.2643) translate(-202.3611,-170.0278)">
<path id="0" d="M203.3611 185.0278 L202.3611 417.0278 "/>
<path id="1" d="M399.3611 182.0278 L402.3611 408.0278 "/>
<path id="2" d="M202.3611 419.0278 L405.3611 421.0278 "/>
<path id="3" d="M402.3611 404.0278 L402.3611 421.0278 "/>
<path id="4" d="M203.3611 185.0278 C203.3611 185.0278 208.3836 192.0066 214.3611 197.0278 C220.4748 202.1633 221.0401 202.442 228.3611 206.0278 C245.2027 214.2767 246.7368 215.7221 263.3611 221.0278 C268.3751 222.628 269.8386 219.8719 275.3611 221.0278 C290.4945 224.1952 291.1622 227.8904 306.3611 230.0278 C321.9059 232.2138 323.3631 231.4562 339.3611 230.0278 C350.7277 229.0129 352.1242 229.1226 362.3611 225.0278 C373.4989 220.5727 375.681 219.8399 384.3611 212.0278 C394.3291 203.0566 396.2457 198.8804 402.3611 189.0278 C403.4349 187.2979 403.1336 183.6716 402.3611 183.0278 C398.4212 179.7445 392.7339 174.7889 384.3611 174.0278 C348.3218 170.7515 343.4776 175.4605 303.3611 174.0278 C287.9371 173.4769 287.7975 171.0743 272.3611 170.0278 C258.5395 169.0907 257.8298 168.4298 244.3611 170.0278 C229.0498 171.8444 227.492 172.3175 213.3611 177.0278 C207.7088 178.9119 202.3611 184.0278 202.3611 184.0278 "/>
<path id="5" d="M402.3611 274.0278 C402.3611 274.0278 400.4182 256.6375 404.3611 245.0278 C408.2714 233.514 411.6134 231.3376 420.3611 221.0278 C424.8267 215.7648 427.35 213.1593 432.3611 212.0278 C438.985 210.5321 442.7328 211.9451 451.3611 214.0278 C456.3243 215.2258 459.1854 215.8631 461.3611 219.0278 C467.8196 228.422 469.6812 233.148 473.3611 246.0278 C475.1752 252.377 472.357 253.9992 473.3611 261.0278 C474.2696 267.387 476.8938 267.672 477.3611 274.0278 C479.2971 300.3578 479.8003 302.7625 478.3611 329.0278 C477.8825 337.7632 477.0417 339.9295 473.3611 347.0278 C470.9184 351.7387 469.0486 353.3783 464.3611 356.0278 C458.9503 359.0861 457.229 359.0467 450.3611 360.0278 C443.7625 360.9704 442.2644 361.6378 436.3611 360.0278 C427.3145 357.5605 425.6734 356.6386 417.3611 351.0278 C406.3719 343.6101 396.3611 333.0278 396.3611 333.0278 "/>
</g>
</g>
</svg>
