<?xml version="1.0" encoding="utf-8"?>
<!DOCTYPE svg PUBLIC "-//W3C//DTD SVG 1.1//EN" "http://www.w3.org/Graphics/SVG/1.1/DTD/svg11.dtd">
<svg viewBox="0 0 800 800" preserveAspectRatio="xMinYMin meet" xmlns="http://www.w3.org/2000/svg" version="1.1">
<g fill="none" stroke="black" stroke-linecap="round" stroke-linejoin="round" stroke-width="1.2721">
<g transform="translate(87.52,133.5076) scale(2.3583) translate(-197,-82.4167)">
<path id="0" d="M324 102.4167 C324 102.4167 321.2782 96.2524 318 94.4167 C311.0058 90.4999 308.5882 90.5261 299 88.4167 C283.8533 85.0844 283.4596 84.7418 268 83.4167 C248.7739 81.7687 246.011 80.4909 229 82.4167 C222.529 83.1492 221.3349 85.2746 215 89.4167 C208.6782 93.5502 204.9881 95.1091 203 99.4167 C200.9528 103.8522 200.8014 110.1738 203 115.4167 C205.8103 122.1183 209.1931 126.5769 216 130.4167 C225.4988 135.775 229.108 136.2349 242 137.4167 C287.6645 141.6026 295.6878 141.8081 336 141.4167 C339.8821 141.379 341.532 139.3892 345 136.4167 C347.8713 133.9555 349.2411 132.6039 350 129.4167 C351.2971 123.9687 352.0771 118.8378 350 115.4167 C346.3916 109.4734 342.0108 106.9948 333 101.4167 C321.6153 94.369 308 89.4167 308 89.4167 "/>
<path id="1" d="M198 111.4167 C198 111.4167 195.1903 231.4278 197 285.4167 C197.0545 287.0412 200.2847 288.976 204 290.4167 C223.7132 298.0606 224.9523 298.926 246 304.4167 C258.9293 307.7895 259.5761 307.6496 273 308.4167 C294.1993 309.6281 294.9653 309.9192 316 308.4167 C329.3826 307.4608 331.3507 306.693 343 303.4167 C345.5118 302.7102 345.4999 300.299 348 299.4167 C352.9543 297.6681 356.2903 299.5644 360 297.4167 C363.4426 295.4236 365.869 292.6893 367 288.4167 C369.6604 278.3662 367.1979 275.3108 369 263.4167 C369.6022 259.4424 371.6014 259.2703 372 255.4167 C373.0074 245.6788 373.337 244.5987 372 234.4167 C366.9252 195.7699 364.124 195.3587 359 156.4167 C356.6689 138.7005 357 120.4167 357 120.4167 "/>
<path id="2" d="M360 161.4167 C360 161.4167 369.5071 154.0086 379 150.4167 C386.8424 147.4493 388.1299 147.7863 397 147.4167 C411.6611 146.8058 412.072 147.4837 427 148.4167 C436.0003 148.9792 439.8489 147.1789 445 150.4167 C452.91 155.3887 459.3355 161.4828 462 170.4167 C465.9324 183.6018 466.3429 193.1472 462 207.4167 C457.4938 222.2227 452.0682 224.6591 441 239.4167 C437.581 243.9753 436.8625 244.6613 432 247.4167 C422.6224 252.7307 421.506 253.9334 411 256.4167 C395.1253 260.1689 377 260.4167 377 260.4167 "/>
<path id="3" d="M368 180.4167 C368 180.4167 374.1466 176.3409 380 175.4167 C391.9717 173.5264 394.2355 172.8481 406 174.4167 C415.0659 175.6255 419.8616 177.3953 425 181.4167 C427.6468 183.4881 428.4017 187.2318 429 192.4167 C429.7769 199.15 429.9543 201.1193 428 207.4167 C425.896 214.1962 424.75 216.1917 420 221.4167 C415.7778 226.0611 414.1544 226.6814 408 229.4167 C401.362 232.3669 399.4206 230.665 393 233.4167 C389.872 234.7572 390.1702 236.8315 387 238.4167 C381.7784 241.0275 375 242.4167 375 242.4167 "/>
<path id="4" d="M380 260.4167 L372 260.4167 "/>
</g>
</g>
</svg>
