<?xml version="1.0" encoding="utf-8"?>
<!DOCTYPE svg PUBLIC "-//W3C//DTD SVG 1.1//EN" "http://www.w3.org/Graphics/SVG/1.1/DTD/svg11.dtd">
<svg viewBox="0 0 800 800" preserveAspectRatio="xMinYMin meet" xmlns="http://www.w3.org/2000/svg" version="1.1">
<g fill="none" stroke="black" stroke-linecap="round" stroke-linejoin="round" stroke-width="1.5553">
<g transform="translate(175.2844,87.52) scale(1.9289) translate(-168,-39)">
<path id="0" d="M171 176 C171 176 174.1526 204.0363 175 232 C176.1475 269.8687 175.8662 270.7545 175 308 C174.8855 312.9235 172.9094 313.1956 173 318 C173.3918 338.7646 176 361 176 361 "/>
<path id="1" d="M176 361 L399 363 "/>
<path id="2" d="M399 363 C399 363 401 297.3926 401 275 C401 274.7455 399.028 274.3171 399 274 C398.2131 265.082 400.0631 255.7856 398 241 C397.334 236.2271 393.5405 235.8107 393 231 C388.9283 194.7615 388 152 388 152 "/>
<path id="3" d="M388 152 C388 152 197.0416 146.1761 169 150 C168.3124 150.0938 168 182 168 182 "/>
<path id="4" d="M169 151 C169 151 202.3682 126.4007 231 100 C239.7822 91.9021 237.8066 89.2755 246 80 C264.1281 59.4777 284 40 284 40 "/>
<path id="5" d="M284 40 C284 40 285.9926 38.9873 286 39 C286.7071 40.2123 287.3699 46.7726 291 52 C299.1295 63.7064 300.2063 65.0158 311 75 C319.6167 82.9704 322.5271 81.5047 331 89 C334.6528 92.2313 333.445 94.9783 337 98 C342.4171 102.6046 344.7663 101.3247 351 106 C358.4025 111.5519 359.0963 112.1641 365 119 C368.1337 122.6285 366.8155 124.6563 370 128 C376.0825 134.3866 379.9865 133.5541 385 140 C389.1661 145.3564 391 155 391 155 "/>
<path id="6" d="M285 75 C285 75 287 76.75 287 77 C287 77.25 285.0238 78.2491 285 79 C284.2953 101.1985 285 140 285 140 "/>
<path id="7" d="M256 105 L317 106 "/>
<path id="8" d="M243 361 C243 361 247.59 347.4729 249 334 C252.027 305.0752 249.3501 293.5493 252 275 C252.2166 273.484 255.3612 271.2199 258 271 C275.4996 269.5417 290.0511 268.6715 300 271 C301.7942 271.4199 304.655 276.8249 305 282 C307.4069 318.1041 306 361 306 361 "/>
<path id="9" d="M296 320 C296 320 295.9868 324.0075 296 324 C296.0668 323.9619 303 316 303 316 C303 316 298 321 298 321 "/>
<path id="10" d="M191 168 C191 168 189.8862 184.6346 191 198 C191.232 200.7845 193.8301 202.6407 194 204 C194.0466 204.3731 192.0317 205.2715 192 206 C191.6819 213.3153 193.661 217.4149 193 227 C192.7408 230.7582 189.9078 234.9861 190 235 C192.8816 235.435 242.8547 238.3741 246 235 C249.4986 231.2469 248.6853 185.8276 245 176 C244.1543 173.7448 233.3652 171.9798 222 171 C205.0233 169.5365 187 171 187 171 "/>
<path id="11" d="M311 176 C311 176 304.6778 234.8791 308 238 C312.1496 241.8981 368.1002 240.4157 377 238 C377.7942 237.7844 378.9945 228.0926 378 219 C375.5849 196.9191 374.3567 176.6999 370 174 C362.4271 169.3069 307 175 307 175 "/>
<path id="12" d="M223 173 C223 173 220.335 195.3667 221 209 C221.0962 210.9727 224.6908 211.8355 225 214 C226.2765 222.9357 225 237 225 237 "/>
<path id="13" d="M194 206 L249 204 "/>
<path id="14" d="M346 175 L347 242 "/>
<path id="15" d="M309 206 L376 209 "/>
</g>
</g>
</svg>
