<?xml version="1.0" encoding="utf-8"?>
<!DOCTYPE svg PUBLIC "-//W3C//DTD SVG 1.1//EN" "http://www.w3.org/Graphics/SVG/1.1/DTD/svg11.dtd">
<svg viewBox="0 0 800 800" preserveAspectRatio="xMinYMin meet" xmlns="http://www.w3.org/2000/svg" version="1.1">
<g fill="none" stroke="black" stroke-linecap="round" stroke-linejoin="round" stroke-width="1.6273">
<g transform="translate(207.3501,87.52) scale(1.8435) translate(-121,-91)">
<path id="0" d="M196 190 C196 190 191.1073 202.8697 184 214 C164.8796 243.9433 143 273 143 273 "/>
<path id="1" d="M143 273 C143 273 141.4428 301.0835 137 327 C135.6252 335.0199 132.2124 335.0185 131 343 C126.4182 373.1637 128.9273 374.9745 125 406 C123.9833 414.032 121 422 121 422 "/>
<path id="2" d="M121 422 C121 422 144.8009 427.3496 168 428 C197.4689 428.8262 198.1816 424.6152 228 425 C275.275 425.61 323 430 323 430 "/>
<path id="3" d="M323 430 C323 430 318.9955 404.6094 320 380 C321.9608 331.9593 329 283 329 283 "/>
<path id="4" d="M329 283 C329 283 326.6435 272.076 322 263 C315.9597 251.194 315.4352 250.3632 307 240 C298.3085 229.3219 297.7487 228.3601 287 220 C275.9154 211.3787 273.3803 213.3045 262 205 C255.4285 200.2046 253.6521 199.5103 250 193 C243.1427 180.7762 239 164 239 164 "/>
<path id="5" d="M191 196 C191 196 204.9678 190.0215 217 182 C230.0538 173.2974 242 162 242 162 "/>
<path id="6" d="M241 167 C241 167 242.9507 167.1233 243 167 C243.666 165.335 244.7117 161.974 245 157 C246.6851 127.9326 244.9212 125.4403 247 98 C247.254 94.6473 250 91 250 91 "/>
<path id="7" d="M232 115 L277 113 "/>
<path id="8" d="M196 428 C196 428 197.3336 412.0729 201 397 C206.2535 375.4023 206.241 374.1028 214 354 C216.8235 346.6846 218.6305 343.6796 223 340 C225.4558 337.932 228.2241 338 233 338 C242.0742 338 246.6886 336.8463 252 340 C258.0761 343.6077 261.7721 348.8227 265 357 C268.178 365.0509 267.3071 367.7107 267 378 C266.3235 400.6615 263 424 263 424 "/>
<path id="9" d="M240 291 C240 291 242.019 288.0085 242 288 C241.6734 287.8548 234.2282 285.9239 231 287 C228.1753 287.9416 225.3912 290.5993 224 294 C221.769 299.4536 220.9465 303.9433 222 309 C222.7555 312.6264 225.8979 316.8511 229 318 C235.1152 320.2649 241.8344 320.672 249 319 C253.3017 317.9963 255.7855 315.0181 259 311 C260.7278 308.8402 261 307.1697 261 304 C261 298.5663 260.8711 293.6038 259 292 C255.3231 288.8483 240 286 240 286 "/>
<path id="10" d="M144 274 C144 274 159.6998 276.4781 175 276 C207.2232 274.993 207.5521 272.6224 240 271 C257.405 270.1298 257.6955 269.8763 275 271 C295.926 272.3588 296.3281 274.4966 317 276 C323.308 276.4588 330 275 330 275 "/>
</g>
</g>
</svg>
