<?xml version="1.0" encoding="utf-8"?>
<!DOCTYPE svg PUBLIC "-//W3C//DTD SVG 1.1//EN" "http://www.w3.org/Graphics/SVG/1.1/DTD/svg11.dtd">
<svg viewBox="0 0 800 800" preserveAspectRatio="xMinYMin meet" xmlns="http://www.w3.org/2000/svg" version="1.1">
<g fill="none" stroke="black" stroke-linecap="round" stroke-linejoin="round" stroke-width="1.6465">
<g transform="translate(136.7151,87.52) scale(1.822) translate(-188,-69)">
<path id="0" d="M291 150 C291 150 292.95 150.1 293 150 C293.2 149.6 293.4866 146.3743 293 146 C290.2143 143.8571 286.213 141.2426 280 140 C272.5619 138.5124 270.3735 138.6345 263 140 C258.2611 140.8776 256.8046 141.8668 253 145 C249.1161 148.1985 247.2985 149.6716 246 154 C243.4731 162.4229 245.1002 168.9488 244 175 C243.9298 175.3862 242.0089 175.7329 242 176 C241.7582 183.2532 240.213 193.0158 243 205 C244.5343 211.5975 247.233 215.0998 252 219 C255.7924 222.1029 258.6612 222.4103 265 223 C279.221 224.3229 283.2698 225.666 295 223 C301.3628 221.5539 302.6668 218.4284 309 213 C312.8881 209.6674 313.4119 209.3135 316 205 C320.6247 197.2922 322.3527 196.2364 324 188 C326.4975 175.5125 326.2802 172.1616 325 160 C324.5169 155.4107 323.2752 153.6199 320 150 C314.6631 144.1013 312.3222 140.308 306 139 C288.8282 135.4472 278.1697 135.8644 262 138 C258.2931 138.4896 253 146 253 146 "/>
<path id="1" d="M296 169 C296 169 292.6228 163.8743 290 163 C286.0658 161.6886 280.6695 161.3013 278 163 C273.7936 165.6768 270.1383 170.5852 268 177 C266.0262 182.9213 267.3603 187.2427 268 193 C268.0888 193.7996 269.1587 194.8903 270 195 C277.8625 196.0255 285.0598 197.8435 291 196 C294.1879 195.0107 296.7298 190.7926 299 186 C300.5597 182.7074 299.5684 178.2947 300 177 C300.0308 176.9075 301.997 177.0236 302 177 C302.093 176.2563 302.044 170.74 301 169 C300.393 167.9884 296 167 296 167 "/>
<path id="2" d="M316 268 C316 268 318.427 262.5256 318 262 C315.8344 259.3346 310.5974 254.7795 303 252 C291.6685 247.8543 289.7451 248.1083 277 247 C267.3993 246.1652 264.2257 245.19 257 248 C249.538 250.9019 246.9971 253.5442 241 261 C229.4342 275.3791 229.4702 277.1311 220 294 C213.6197 305.3648 211.8674 306.5305 209 318 C206.8562 326.5754 207.9894 328.9045 209 338 C209.3706 341.335 209.9105 342.0747 212 345 C221.9905 358.9867 222.5303 361.8489 234 373 C238.8481 377.7134 240.8812 377.5529 248 380 C256.407 382.8899 257.1063 383.0878 266 384 C276.1447 385.0405 277.0963 385.1651 287 384 C293.3528 383.2526 294.5754 383.0739 300 380 C308.658 375.0938 310.9269 374.5504 317 367 C328.1761 353.1054 328.5079 350.6446 337 334 C340.6464 326.8531 341.1871 325.804 342 318 C343.5746 302.8841 343.3066 301.3531 342 286 C341.3736 278.6399 340.9578 276.9157 338 271 C336.1731 267.3462 334.8352 266.0455 331 264 C321.0665 258.7021 313.1709 257.473 308 255 C307.8189 254.9134 308.0405 253.0068 308 253 C306.5405 252.7568 299.069 252.5278 296 253 C295.6656 253.0515 295 255 295 255 "/>
<path id="3" d="M284 295 C284 295 278.8822 294.2236 275 295 C272.1531 295.5694 271.6094 296.1362 269 298 C264.8342 300.9756 264.0295 301.2131 261 305 C258.4679 308.1651 257.4849 309.2422 257 313 C255.6905 323.149 254.9728 328.1448 257 336 C257.8871 339.4374 260.7621 341.3234 265 344 C269.3917 346.7737 270.6645 347.2096 276 348 C283.364 349.091 288.7556 350.2711 292 348 C297.8197 343.9262 302.0465 336.6013 306 327 C307.9203 322.3365 306.8261 320.0581 306 314 C305.4021 309.6153 305.316 308.2068 303 305 C299.6355 300.3414 297.6875 297.9531 293 296 C288.0852 293.9522 279 295 279 295 "/>
<path id="4" d="M233 111 C233 111 340.136 112.3264 359 115 C359.4448 115.063 359.5823 127.0505 360 129 C360.0126 129.0588 362 129 362 129 C362 158.8771 366.1522 257.5693 360 372 C359.0713 389.2742 352.7365 403.6061 347 408 C342.193 411.682 329.7357 409.3041 313 408 C291.6042 406.3328 283.0922 404.3804 270 402 C269.5951 401.9264 269.3398 400.0351 269 400 C252.8369 398.328 220.0472 397.2706 212 396 C211.8898 395.9826 212 391 212 391 "/>
<path id="5" d="M206 116 C206 116 195.8903 147.8776 192 179 C189.056 202.5521 193.1526 204.1792 192 228 C191.6908 234.3904 189.4018 234.5716 189 241 C187.4443 265.8909 188 266.512 188 292 C188 336.9788 189 382 189 382 "/>
<path id="6" d="M349 412 C349 412 354.9739 404.8642 362 400 C373.9977 391.6939 375.1106 391.4447 388 385 C391.4628 383.2686 393.2441 384.6076 396 383 C398.0795 381.787 397.6069 379.5156 400 378 C425.6782 361.7372 447.5622 359.4025 456 345 C464.6127 330.2991 453.7365 310.7096 458 279 C461.5309 252.7389 466.5347 252.2336 472 226 C473.8774 216.9883 471.6174 216.1249 473 207 C474.0544 200.0408 476.687 199.8073 477 193 C478.6108 157.9649 480.535 154.3858 477 120 C475.2988 103.452 469.8059 89.8059 466 86 C464.5622 84.5622 454.8062 85.7651 446 89 C431.5984 94.2904 431.9188 98.139 417 104 C390.4606 114.4262 362 122 362 122 "/>
<path id="7" d="M216 107 C216 107 226.2294 106.3467 235 103 C263.4315 92.1512 265.3765 88.2398 292 78 C295.1973 76.7703 296.5602 78.9986 300 78 C311.0128 74.8027 312.191 70.3274 323 69 C338.1358 67.1412 340.3021 68.6854 357 71 C390.4488 75.6365 390.6498 78.576 424 83 C439.1371 85.008 439.5476 83.2462 455 84 C460.0011 84.244 463.572 84.5716 465 85 C465.0832 85.025 465 87 465 87 "/>
</g>
</g>
</svg>
