<?xml version="1.0" encoding="utf-8"?>
<!DOCTYPE svg PUBLIC "-//W3C//DTD SVG 1.1//EN" "http://www.w3.org/Graphics/SVG/1.1/DTD/svg11.dtd">
<svg viewBox="0 0 800 800" preserveAspectRatio="xMinYMin meet" xmlns="http://www.w3.org/2000/svg" version="1.1">
<g fill="none" stroke="black" stroke-linecap="round" stroke-linejoin="round" stroke-width="1.8721">
<g transform="translate(87.52,194.8849) scale(1.6025) translate(-168,-97.1333)">
<path id="0" d="M168 160.1333 C168 160.1333 172.3749 175.7555 173 191.1333 C174.8431 236.4734 173 283.1333 173 283.1333 "/>
<path id="1" d="M168 163.1333 C168 163.1333 243.4884 160.6479 255 163.1333 C255.6751 163.2791 254.565 172.8853 256 182.1333 C259.0147 201.5617 262.6811 201.9154 264 221.1333 C266.0986 251.7134 264.4139 274.0791 263 284.1333 C262.9524 284.4717 258.6834 285.6056 255 285.1333 C240.1343 283.2275 238.9957 279.5082 224 279.1333 C200.4595 278.5448 175 283.1333 175 283.1333 "/>
<path id="2" d="M256 162.1333 C256 162.1333 274.9307 148.4104 295 137.1333 C327.1974 119.0414 331.1859 119.93 361 103.1333 C363.9341 101.4803 365.993 97.0842 366 97.1333 C366.1019 97.8464 369.5056 135.1759 371 173.1333 C372.0002 198.539 373.4213 199.2596 371 224.1333 C368.0056 254.8942 363.667 255.2698 360 286.1333 C357.7341 305.2046 359.8415 305.7797 359 325.1333 C358.8482 328.6247 358.438 331.1113 358 332.1333 C357.9495 332.2513 356 332.1333 356 332.1333 "/>
<path id="3" d="M263 285.1333 C263 285.1333 273.3991 284.6005 278 288.1333 C297.0683 302.7751 297.189 311.3152 319 328.1333 C337.3691 342.2975 357.1057 351.0328 361 352.1333 C361.0712 352.1534 364.9153 346.2163 365 341.1333 C365.3747 318.6503 362 292.1333 362 292.1333 "/>
<path id="4" d="M370 99.1333 C370 99.1333 377.998 99.0882 378 99.1333 C378.998 121.2132 379.3378 188.7335 378 276.1333 C377.8561 285.5379 375.3822 285.7047 375 295.1333 C373.9005 322.2533 377.5567 341.4105 375 350.1333 C374.6289 351.3994 362.1749 353.1333 358 353.1333 C357.5088 353.1333 356 350.1333 356 350.1333 "/>
<path id="5" d="M361 299.1333 C361 299.1333 363.7343 304.819 364 310.1333 C364.6899 323.9315 363 339.1333 363 339.1333 "/>
<path id="6" d="M373 98.1333 L369 97.1333 "/>
<path id="7" d="M417 153.1333 C417 153.1333 428.3291 171.862 435 191.1333 C441.5026 209.9187 441.3073 211.3866 444 231.1333 C445.6982 243.5866 445.122 244.5104 444 257.1333 C443.1647 266.5304 442.9259 267.1304 440 276.1333 C436.5516 286.7439 436.3522 287.6182 431 297.1333 C427.7014 302.9976 425.4576 304.9638 422 308.1333 C421.4564 308.6316 419 308.1333 419 308.1333 "/>
<path id="8" d="M452 140.1333 C452 140.1333 469.9446 167.0397 480 194.1333 C487.1785 213.4754 486.4517 215.8989 488 237.1333 C489.8803 262.9202 491.0649 266.3246 487 290.1333 C484.6133 304.1127 481.8358 306.9444 474 319.1333 C469.3854 326.3115 460 332.1333 460 332.1333 "/>
<path id="9" d="M504 124.1333 C504 124.1333 509.4897 127.1842 513 131.1333 C517.0304 135.6675 517.124 136.3814 520 142.1333 C531.5039 165.1411 533.4473 165.2894 542 189.1333 C549.6263 210.3946 548.7996 211.5559 553 234.1333 C556.7437 254.2555 556.3266 254.7176 558 275.1333 C558.8082 284.9937 559.2466 285.6589 558 295.1333 C556.837 303.972 556.8416 305.1299 553 313.1333 C545.2565 329.2657 543.5459 334.0958 534 345.1333 C530.7985 348.8351 521 350.1333 521 350.1333 "/>
</g>
</g>
</svg>
