<?xml version="1.0" encoding="utf-8"?>
<!DOCTYPE svg PUBLIC "-//W3C//DTD SVG 1.1//EN" "http://www.w3.org/Graphics/SVG/1.1/DTD/svg11.dtd">
<svg viewBox="0 0 800 800" preserveAspectRatio="xMinYMin meet" xmlns="http://www.w3.org/2000/svg" version="1.1">
<g fill="none" stroke="black" stroke-linecap="round" stroke-linejoin="round" stroke-width="2.3618">
<g transform="translate(87.52,176.5429) scale(1.2702) translate(-100,-1.0833)">
<path id="0" d="M100 35.9167 C100 35.9167 98.9596 46.2932 100 55.9167 C100.9068 64.3047 103.8476 64.6082 104 72.9167 C105.7947 170.7299 102.2167 175.3911 104 273.9167 C104.1781 283.7557 107.4006 284.0274 108 293.9167 C109.362 316.3897 108.6333 329.9955 108 339.9167 C107.9836 340.1737 105 340.9167 105 340.9167 "/>
<path id="1" d="M101 37.9167 C101 37.9167 121.537 35.9167 142 35.9167 C229.8412 35.9167 318 37.9167 318 37.9167 "/>
<path id="2" d="M318 37.9167 C318 37.9167 316.5442 42.7004 317 46.9167 C318.463 60.4496 321.7341 61.0916 322 74.9167 C324.1954 189.0751 323.2802 191.2723 322 306.9167 C321.7846 326.3734 319 345.9167 319 345.9167 "/>
<path id="3" d="M106 343.9167 C106 343.9167 124.6368 342.769 143 343.9167 C196.3836 347.2531 197.9518 352.2318 250 352.9167 C271.8205 353.2038 272.5453 348.4116 295 345.9167 C308.2984 344.4391 322 344.9167 322 344.9167 "/>
<path id="4" d="M102 35.9167 C102 35.9167 115.8885 29.237 130 25.9167 C149.2528 21.3866 151.096 25.1316 170 19.9167 C193.5831 13.411 217 1.9167 217 1.9167 "/>
<path id="5" d="M320 38.9167 C320 38.9167 334.0169 35.3859 341 30.9167 C343.4382 29.3562 342.2811 25.7537 345 22.9167 C352.8598 14.7151 364 6.9167 364 6.9167 "/>
<path id="6" d="M219 5.0833 C219 5.0833 219.4189 2.4707 220 2.0833 C221.0977 1.3515 222.5363 1.1537 225 1.0833 C239.6981 0.66338 240.5011 -0.15062 255 1.0833 C263.3806 1.7966 263.7708 5.0118 272 5.0833 C319.3297 5.4949 370 2.0833 370 2.0833 "/>
<path id="7" d="M367 5.0833 L363 11.0833 "/>
<path id="8" d="M371 3.0833 C371 3.0833 369.0119 24.6633 370 45.0833 C370.4756 54.9126 373.8113 55.2346 374 65.0833 C376.265 183.3168 375 306.0833 375 306.0833 "/>
<path id="9" d="M321 345.0833 C321 345.0833 336.4885 337.7719 349 329.0833 C353.5585 325.9177 352.5082 323.5769 357 320.0833 C365.4845 313.4843 376 308.0833 376 308.0833 "/>
<path id="10" d="M177 116.0833 C177 116.0833 178.5539 113.6092 180 113.0833 C182.9564 112.0083 184.0201 112.1939 188 112.0833 C201.8814 111.6977 202.8478 110.2781 216 112.0833 C227.2549 113.6281 227.5817 116.6145 239 119.0833 C245.6219 120.5151 246.9114 118.8015 253 120.0833 C255.4129 120.5913 256.8551 121.2706 258 123.0833 C261.7968 129.0949 262.2102 130.9675 265 139.0833 C267.6335 146.7445 268.5579 147.236 269 155.0833 C270.4986 181.6839 270.4986 183.4827 269 210.0833 C268.5579 217.9307 267.7559 218.6423 265 226.0833 C262.9155 231.7114 262.6305 232.385 259 237.0833 C254.4724 242.9426 253.9579 244.7908 248 248.0833 C236.6534 254.3538 234.2977 255.8037 221 258.0833 C200.9277 261.5243 196.3761 262.6277 178 260.0833 C167.8822 258.6824 166.3223 255.2767 156 249.0833 C149.1425 244.9689 146.6021 244.7635 143 239.0833 C135.2517 226.8649 133.4608 222.9912 130 208.0833 C127.4567 197.1274 127.2332 194.1504 130 183.0833 C136.6402 156.5224 139.4604 154.2215 150 128.0833 C151.5068 124.3464 152.1287 123.5445 155 121.0833 C158.468 118.1108 159.603 117.016 164 116.0833 C174.6746 113.819 188 114.0833 188 114.0833 "/>
<path id="11" d="M172 154.0833 C172 154.0833 173.2634 151.1997 175 150.0833 C179.4306 147.2351 180.7784 145.736 186 145.0833 C199.0259 143.4551 202.5106 142.5345 215 145.0833 C224.4923 147.0205 228.0854 149.5516 235 155.0833 C238.2104 157.6516 238.8278 160.0429 240 165.0833 C243.5874 180.5092 246.1366 183.5348 245 198.0833 C243.8923 212.2624 240.8492 218.2623 235 229.0833 C233.1675 232.4734 229.9986 233.6321 225 235.0833 C215.6894 237.7864 214.3633 237.6013 204 238.0833 C193.2377 238.5839 192.3385 238.6498 182 237.0833 C176.5833 236.2626 175.4671 235.926 171 233.0833 C165.2737 229.4393 162.7641 228.266 160 223.0833 C156.0513 215.6795 156.2632 212.9361 155 203.0833 C153.8373 194.0139 153.007 192.4176 155 184.0833 C158.108 171.0861 160.25 165.9958 166 157.0833 C167.6537 154.52 175 153.0833 175 153.0833 "/>
<path id="12" d="M196 175.0833 C196 175.0833 188.2541 178.948 187 182.0833 C184.823 187.5258 184.7235 195.1902 186 200.0833 C186.4912 201.9662 189.8308 204.4231 193 205.0833 C199.6997 206.4791 206.3114 206.7599 210 205.0833 C212.0711 204.1419 214.051 199.8282 215 195.0833 C216.2941 188.613 216.2857 185.2261 215 180.0833 C214.4643 177.9405 212.1517 175.6496 210 175.0833 C205.2304 173.8282 196 175.0833 196 175.0833 "/>
<path id="13" d="M280 299.0833 C280 299.0833 276.9846 297.802 276 298.0833 C274.9776 298.3755 273.6411 299.5447 273 301.0833 C271.5167 304.6433 270.4815 307.6637 271 310.0833 C271.3673 311.7972 273.8077 314.3004 276 315.0833 C278.9076 316.1218 284.4957 315.771 285 315.0833 C286.2582 313.3676 287.6765 303.1276 287 300.0833 C286.7986 299.177 281 297.0833 281 297.0833 "/>
<path id="14" d="M277 297.0833 L290 292.0833 "/>
<path id="15" d="M287 314.0833 L295 310.0833 "/>
<path id="16" d="M291 293.0833 C291 293.0833 294.7188 294.8883 295 296.0833 C295.9988 300.3283 295 310.0833 295 310.0833 "/>
<path id="17" d="M252 298.0833 C252 298.0833 246.3844 298.4244 246 299.0833 C245.0106 300.7795 244.0607 308.0706 245 310.0833 C245.6896 311.561 249.723 313.2641 253 314.0833 C254.3654 314.4247 255.5137 313.9326 257 313.0833 C258.5327 312.2075 259.7053 311.3603 260 310.0833 C260.7981 306.6247 260.7554 301.0066 260 300.0833 C259.3682 299.3111 251 299.0833 251 299.0833 "/>
<path id="18" d="M250 299.0833 C250 299.0833 254.2017 295.883 258 295.0833 C262.7252 294.0885 268.2667 294.2889 269 295.0833 C270.0056 296.1727 270 308.0833 270 308.0833 "/>
<path id="19" d="M259 312.0833 L268 307.0833 "/>
<path id="20" d="M377 283.0833 C377 283.0833 382.5324 284.5022 385 283.0833 C398.9494 275.0624 400.5404 269.9591 417 260.0833 C427.422 253.8301 429.0476 253.4023 440 250.0833 C444.2076 248.8083 445.53 250.9773 450 250.0833 C454.8276 249.1178 455.2075 246.441 460 246.0833 C486.5604 244.1012 488.8978 243.7191 517 245.0833 C539.842 246.1922 541.9161 247.1052 563 251.0833 C566.469 251.7378 567.4587 252.542 570 255.0833 C575.3137 260.397 576.0738 261.2125 580 268.0833 C585.8143 278.2584 590 290.0833 590 290.0833 "/>
<path id="21" d="M377 276.0833 C377 276.0833 384.332 280.7088 386 280.0833 C390.4202 278.4258 393.1523 272.6888 401 267.0833 C406.8165 262.9287 407.2909 262.3197 414 260.0833 C432.0853 254.0549 433.4192 253.9543 452 250.0833 C456.6355 249.1176 457.4612 250.9479 462 250.0833 C467.3385 249.0665 467.7143 246.4823 473 246.0833 C492.6428 244.6009 494.9506 243.8556 515 246.0833 C529.7453 247.7217 530.439 252.1232 545 254.0833 C555.245 255.4625 556.9915 252.7126 567 253.0833 C569.3123 253.169 570.8089 253.5673 572 255.0833 C579.9075 265.1474 582.5542 268.1917 589 281.0833 C591.8959 286.8752 592 295.0833 592 295.0833 "/>
</g>
</g>
</svg>
