<?xml version="1.0" encoding="utf-8"?>
<!DOCTYPE svg PUBLIC "-//W3C//DTD SVG 1.1//EN" "http://www.w3.org/Graphics/SVG/1.1/DTD/svg11.dtd">
<svg viewBox="0 0 800 800" preserveAspectRatio="xMinYMin meet" xmlns="http://www.w3.org/2000/svg" version="1.1">
<g fill="none" stroke="black" stroke-linecap="round" stroke-linejoin="round" stroke-width="1.0801">
<g transform="translate(243.0656,87.52) scale(2.7776) translate(-171,-95)">
<path id="0" d="M176 228 C176 228 175.3489 234.666 177 239 C178.8376 243.8236 183.0355 244.4533 184 249 C185.9315 258.1054 182.5357 261.4571 184 272 C184.8719 278.2773 188.0479 278.7163 189 285 C190.3841 294.1349 188.3431 297.7742 189 305 C189.0717 305.7883 191 306.4095 191 307 C191 309.6572 188.9233 315.9916 189 316 C195.3619 316.6983 272.883 316.0014 273 316 C273.0028 316 271.012 315.2881 271 315 C270.2129 296.1098 271.8435 279.0258 270 244 C269.3719 232.0653 267.4419 220.3517 266 220 C254.7293 217.251 226.2678 220.7774 188 224 C179.5309 224.7132 171.0006 228.0072 171 228 C170.9966 227.9592 180.3138 213.1254 187 212 C217.4631 206.8725 269.275 210.6551 272 211 C272.1479 211.0187 266.0149 221.9827 266 222 C265.9963 222.0043 266 218 266 218 "/>
<path id="1" d="M273 209 C273 209 272.609 217.0451 274 224 C274.9883 228.9416 277.3737 229.0788 278 234 C280.7047 255.2512 278.5694 258.3395 281 279 C281.3405 281.8941 283.648 282.1841 284 285 C284.9938 292.9507 284.3649 300.8108 284 303 C283.9899 303.0608 281.6222 302.4909 281 303 C277.8133 305.6073 276.3327 307.2786 273 312 C270.5373 315.4889 269.0207 320.0321 269 320 C268.8868 319.8251 262 295 262 295 "/>
<path id="2" d="M256 213 C256 213 252.9898 192.9419 254 174 C254.9434 156.3113 258.8735 155.7981 260 138 C261.3295 116.994 258.5281 100.073 259 95 C259.0051 94.945 263.9783 94.8915 264 95 C264.4296 97.1481 264.2911 107.5762 263 115 C262.7746 116.296 260.0364 116.9441 260 118 C259.6958 126.8226 262.9083 134.0089 262 144 C261.7377 146.8848 257.3297 148.1427 257 151 C256.1833 158.0779 258.5263 160.5261 259 170 C259.5208 180.4163 259.6602 183.4076 259 191 C258.9317 191.786 257 192.6423 257 193 C257 193.5365 259.1309 195.3455 259 196 C258.6073 197.9635 255.3493 200.2055 255 203 C254.5925 206.2603 257.0738 211.3354 257 212 C256.9972 212.0252 254 212 254 212 "/>
<path id="3" d="M195 239 C195 239 194.5404 251.9735 194 254 C193.9717 254.1062 191 254 191 254 "/>
<path id="4" d="M197 240 C197 240 212.9867 239.6699 224 237 C226.8647 236.3055 227.3332 232.6667 230 232 C235.1497 230.7126 240.5504 232.8624 244 232 C244.7392 231.8152 245.1542 228.4833 246 228 C246.9868 227.4361 250.8439 227.6682 251 228 C252.2217 230.596 255.1411 243.1253 254 245 C252.7706 247.0198 245.2434 250.0108 237 251 C221.6483 252.8422 219.3943 249.6005 204 251 C198.6989 251.4819 193 255 193 255 "/>
<path id="5" d="M214 290 C214 290 211.1373 287.2361 211 286 C210.8486 284.6371 212.0128 281.4319 213 281 C216.5066 279.4658 223.5732 277.5502 227 279 C231.5591 280.9288 236.3187 286.8811 239 292 C240.0394 293.9844 239.5822 297.3225 238 300 C234.1157 306.5734 230.6785 309.9063 226 314 C225.2283 314.6752 222.725 314.4833 222 314 C221.1542 313.4361 221.2091 310.8464 220 310 C217.4559 308.2191 213.6575 308.9337 212 307 C209.5739 304.1695 207.3711 298.893 208 296 C208.8664 292.0144 217 284 217 284 "/>
<path id="6" d="M211 264 C211 264 212.0629 266.9056 212 267 C211.9461 267.0809 208.9997 267.0001 209 267 C209.0008 266.9997 216.9678 265.0536 217 265 C217 265 212 262 212 262 "/>
<path id="7" d="M231 263 C231 263 232.95 262.9 233 263 C233.2 263.4 232.7692 266.8462 233 267 C233.5192 267.3462 239.006 267.0106 239 267 C238.9776 266.9609 229 260 229 260 "/>
<path id="8" d="M250 257 C250 257 248.7604 264.7205 249 265 C249.1677 265.1956 255.5539 264.4461 256 264 C256.223 263.777 255.5453 259.4544 255 259 C254.4723 258.5602 250 259 250 259 "/>
<path id="9" d="M200 267 C200 267 198.9612 270.9806 199 271 C199.252 271.126 205.3486 270.6514 206 270 C206.4886 269.5114 206.3689 264.4426 206 264 C205.7439 263.6926 201 264 201 264 "/>
</g>
</g>
</svg>
