<?xml version="1.0" encoding="utf-8"?>
<!DOCTYPE svg PUBLIC "-//W3C//DTD SVG 1.1//EN" "http://www.w3.org/Graphics/SVG/1.1/DTD/svg11.dtd">
<svg viewBox="0 0 800 800" preserveAspectRatio="xMinYMin meet" xmlns="http://www.w3.org/2000/svg" version="1.1">
<g fill="none" stroke="black" stroke-linecap="round" stroke-linejoin="round" stroke-width="1.0609">
<g transform="translate(310.922,87.52) scale(2.8279) translate(-284,-62)">
<path id="0" d="M310,176C310,176 345.4767373456395,175.44474711065064 346,177C350.23011049590673,189.57282841838946 351.7744694960212,273.1275198938992 346,283C344.0244694960212,286.3775198938992 284.5322308485658,284.930464433781 284,283C277.3625371567187,258.92513477182706 285.0792715383816,175.12024750441753 287,69C287.0629740380495,65.52068439776451 287.3677380954167,62.73763888868048 288,62C288.3448701297727,61.59765151526519 292.9993064368469,61.979366496194416 293,62C293.4909386779423,76.60542566878351 292.9681358824987,157.7647388200314 292,181C291.9905117939412,181.22771694541097 288.0525519031142,182.0525519031142 288,182C287.9474480968858,181.9474480968858 289.10040664888436,178.2008132977687 289,178C288.95696857904954,177.91393715809914 286.25961538461535,178.17307692307693 286,178C285.88461538461535,177.92307692307693 285.925,176.025 286,176C286.675,175.775 291.1684213446238,175.37631600846788 292,176C292.9008768766575,176.67565765749313 293.99934164902527,182.00065835097473 294,182C294.00131670194946,181.9986832980505 294,174 294,174C294,174 293.9497971602434,176.99315415821502 294,177C296.6997971602434,177.36815415821502 314.588139783717,177.8471161297698 316,177C316.33371241475777,176.7997725511453 313.5884789911277,165.70546458663824 314,165C314.19942941199195,164.65812100801378 322.54888613861385,164.4486386138614 323,165C323.67388613861385,165.8236386138614 322.6807799839402,175.71624887461354 323,176C323.20676751040235,176.18379334257986 328.07337600714305,173 332,173C338.5443733214283,173 347.0006945668261,175.99995369554492 347,176C346.9971841885429,176.00018772076382 293,173 287,176C285.5,176.75 286.9381347805575,205.6906739027876 287,206C287.00824869592566,206.04124347962832 290.0888138562637,201.1389953559081 292,201C309.79022762949125,199.7061652633097 340.14945461976413,199.05423388452255 342,202C346.360640359994,208.94142751182724 345.2746184046438,272.71379646375913 341,279C339.23908613608904,281.58957921163374 293.1660727533891,280.29243058515135 291,277C286.40648824846903,270.017862137673 291,203 291,203C291,203 290.1819070861055,218.4552566888442 291,225C291.0883168486591,225.7065347892725 294,227 294,227"/>
<path id="1" d="M301,221C301,221 308.2061483185489,221.30537977873027 309,222C309.46960240311193,222.41090210272293 309.25864555490096,227.8383465281869 309,228C308.49133040869475,228.31791849456576 302.51373505708426,227.84096392060235 301,227C300.42989199148775,226.68327332860431 300,223 300,223"/>
<path id="2" d="M300,248C300,248 308.6364908670416,248.5326311147677 309,249C309.2928268015499,249.37649160199268 307.3083961418981,256.8629350480453 307,257C306.7101076266158,257.12884105483743 301.5593196026504,254.949149503313 300,253C298.8954819481226,251.61935243515327 299,247 299,247"/>
<path id="3" d="M325,221C325,221 333.302572759262,221.22508084362442 334,222C334.68976320512553,222.76640356125057 334.5192307692308,230.22115384615384 334,231C333.7692307692308,231.34615384615384 328.5789605423067,231.57896054230667 328,231C327.0350657628222,230.03506576282223 326,223 326,223"/>
</g>
</g>
</svg>
