<?xml version="1.0" encoding="utf-8"?>
<!DOCTYPE svg PUBLIC "-//W3C//DTD SVG 1.1//EN" "http://www.w3.org/Graphics/SVG/1.1/DTD/svg11.dtd">
<svg viewBox="0 0 800 800" preserveAspectRatio="xMinYMin meet" xmlns="http://www.w3.org/2000/svg" version="1.1">
<g fill="none" stroke="black" stroke-linecap="round" stroke-linejoin="round" stroke-width="1.6753">
<g transform="translate(235.2541,87.52) scale(1.7907) translate(-175,-30)">
<path id="0" d="M197 223 C197 223 198.0557 229.4199 197 235 C194.6841 247.2411 191.2518 247.5963 190 260 C185.89 300.7261 188.8601 302.1711 186 344 C184.8708 360.5152 182 369.6336 182 377 C182 377.4464 184.1861 378.9588 186 379 C223.6635 379.856 228.2521 380.1084 270 379 C284.4526 378.6163 295.3384 379.4582 299 376 C303.1728 372.059 304.8852 360.2894 306 345 C308.2997 313.461 304.698 312.2252 306 280 C306.6843 263.0636 309.0455 262.9419 310 246 C311.0319 227.6846 312.9958 211.9958 310 209 C306.0326 205.0326 288.3973 204.5104 267 203 C246.3041 201.5391 245.809 202.0683 225 203 C212.5472 203.5576 205.6219 202.662 200 206 C196.5363 208.0566 196.8021 215.4327 193 222 C191.9921 223.7409 189.4501 223.6496 189 225 C187.7188 228.8435 188 237 188 237 "/>
<path id="1" d="M297 206 C297 206 302.4483 189.4478 304 173 C307.3782 137.1909 304.6228 136.3369 307 100 C308.1127 82.9914 311 66 311 66 "/>
<path id="2" d="M312 66 C312 66 308.3266 65.4899 308 65 C307.5546 64.332 307.2263 61.5475 308 60 C309.5475 56.905 311.4373 54.4949 314 53 C315.5249 52.1105 318.0329 52.3443 320 53 C321.3114 53.4371 322.6469 54.7054 323 56 C323.7398 58.7125 323.3553 60.4467 323 64 C322.9067 64.9327 322.3524 65.9295 322 66 C319.7344 66.4531 313 66 313 66 "/>
<path id="3" d="M294 67 L280 67 "/>
<path id="4" d="M299 49 L294 32 "/>
<path id="5" d="M327 41 C327 41 332.2843 40.7486 336 39 C340.0455 37.0962 339.9415 34.5881 344 33 C350.3436 30.5177 359 30 359 30 "/>
<path id="6" d="M343 56 L357 64 "/>
<path id="7" d="M341 73 C341 73 344.6655 76.9964 346 81 C347.8868 86.6603 348 94 348 94 "/>
<path id="8" d="M214 225 C214 225 212.6649 246.938 213 259 C213.0203 259.7298 215 261 215 261 "/>
<path id="9" d="M219 232 C219 232 250.1954 232.986 278 231 C283.3121 230.6206 288.9868 226.9488 289 227 C289.4326 228.6822 289.287 264.4897 287 266 C283.0153 268.6314 236 262 236 262 "/>
<path id="10" d="M207 304 C207 304 209.6082 310.5999 210 317 C211.07 334.4765 209.5621 335.9231 210 353 C210.0368 354.4352 210.8882 355.9721 211 356 C211.1597 356.0399 214 354 214 354 "/>
<path id="11" d="M217 305 C217 305 268.6058 304.6214 276 306 C276.2329 306.0434 276.7935 311.2389 276 316 C272.8789 334.7269 273.3791 348.2273 268 354 C263.651 358.6672 251.1903 358.4432 235 360 C225.8848 360.8765 216 359 216 359 "/>
<path id="12" d="M210 332 C210 332 215.7414 339.9335 222 345 C225.4006 347.7528 231 349 231 349 "/>
<path id="13" d="M211 310 C211 310 221.6648 322.0817 233 332 C237.1906 335.6668 238.9919 334.3126 243 338 C250.9128 345.2798 252.478 349.478 258 355 C258.3451 355.3451 260 355 260 355 C260 354.9256 258 352 258 352 "/>
<path id="14" d="M231 302 C231 302 239.2306 315.3425 249 326 C255.2114 332.776 264 338 264 338 "/>
<path id="15" d="M216 327 C216 327 230.289 315.6183 244 307 C246.7905 305.246 248.5749 306.5433 251 305 C253.1053 303.6602 255 300 255 300 "/>
<path id="16" d="M217 345 C217 345 225.6411 338.1382 235 333 C250.9042 324.2683 252.1511 325.5043 268 317 C272.2759 314.7056 273.9167 313.3437 276 311 C276.4767 310.4637 276 308 276 308 "/>
<path id="17" d="M228 362 C228 362 231.5478 362.7663 234 362 C238.7255 360.5233 239.3236 359.9228 244 357 C255.1788 350.0132 266 342 266 342 "/>
<path id="18" d="M195 230 C195 230 176.2875 229.2092 176 230 C173.6958 236.3365 173.423 278.8048 175 285 C175.11 285.4321 190 285 190 285 "/>
</g>
</g>
</svg>
