<?xml version="1.0" encoding="utf-8"?>
<!DOCTYPE svg PUBLIC "-//W3C//DTD SVG 1.1//EN" "http://www.w3.org/Graphics/SVG/1.1/DTD/svg11.dtd">
<svg viewBox="0 0 800 800" preserveAspectRatio="xMinYMin meet" xmlns="http://www.w3.org/2000/svg" version="1.1">
<g fill="none" stroke="black" stroke-linecap="round" stroke-linejoin="round" stroke-width="1.5121">
<g transform="translate(296.832,87.52) scale(1.984) translate(-120,-32)">
<path id="0" d="M128 218 C128 218 129.0706 260.486 127 299 C126.6879 304.8042 123.2405 305.3489 123 311 C122.3101 327.2123 122.5319 341.9614 125 346 C125.9009 347.4742 135.0083 346.8926 145 347 C181.4503 347.3919 183.3712 347.8767 218 347 C220.8702 346.9273 224.0237 345.1949 224 345 C222.6223 333.6725 213.1741 308.6187 209 273 C205.8309 245.9568 212.0604 218.8913 209 217 C201.184 212.1699 120 218 120 218 "/>
<path id="1" d="M134 218 C134 218 133.2469 162.7155 135 111 C135.1818 105.636 137.6623 105.4036 138 100 C139.6018 74.3704 137.4694 73.0194 139 47 C139.4378 39.5576 140.369 33.2232 142 32 C143.9457 30.5407 158.1087 30.9514 159 32 C160.2337 33.4514 160.5749 42.7755 159 52 C157.2522 62.237 152.4334 62.9078 152 73 C149.1107 140.2792 152 215 152 215 "/>
<path id="2" d="M149 259 C149 259 149.1477 250.4831 151 244 C151.8497 241.0261 152.8316 239.9274 155 238 C156.5746 236.6003 157.7375 236 160 236 C174.0276 236 179.7565 234.908 191 238 C195.0894 239.1246 198.3811 243.0426 200 247 C201.6596 251.0567 201.7928 256.5638 200 260 C197.7575 264.2981 193.3934 268.2022 188 270 C181.6686 272.1105 177.1938 272.1387 170 270 C161.0996 267.3539 151 259 151 259 "/>
<path id="3" d="M149 295 C149 295 147.4207 305.4412 148 315 C148.383 321.3193 148.7981 325.7981 151 328 C153.4772 330.4772 158.154 331.4295 165 332 C181.2394 333.3533 191.9404 334.0436 199 332 C200.4917 331.5682 201.9327 326.3367 203 321 C203.8141 316.9297 204.4131 315.0618 203 312 C199.4611 304.3324 195.3959 303.1154 191 295 C189.5893 292.3956 190.356 288.0639 190 288 C184.0046 286.9239 170.0268 287.5603 152 288 C150.5653 288.035 149.1132 288.6225 149 289 C148.4636 290.7881 149 298 149 298 "/>
</g>
</g>
</svg>
