<?xml version="1.0" encoding="utf-8"?>
<!DOCTYPE svg PUBLIC "-//W3C//DTD SVG 1.1//EN" "http://www.w3.org/Graphics/SVG/1.1/DTD/svg11.dtd">
<svg viewBox="0 0 800 800" preserveAspectRatio="xMinYMin meet" xmlns="http://www.w3.org/2000/svg" version="1.1">
<g fill="none" stroke="black" stroke-linecap="round" stroke-linejoin="round" stroke-width="1.3153">
<g transform="translate(251.7431,87.52) scale(2.2809) translate(-168,-73)">
<path id="0" d="M179 184 L180 346 "/>
<path id="1" d="M181 347 L292 343 "/>
<path id="2" d="M293 344 L292 185 "/>
<path id="3" d="M180 183 C180 183 191.6009 186.4506 203 187 C232.4895 188.4212 263 187 263 187 "/>
<path id="4" d="M263 187 C263 187 261.6377 87.1185 263 73 C263.0127 72.8685 273.9866 72.8651 274 73 C275.3616 86.7401 274 184 274 184 "/>
<path id="5" d="M275 185 L298 185 "/>
<path id="6" d="M200 309 C200 309 199.2014 314.5393 200 318 C200.4164 319.8043 201.2031 320.6024 203 322 C209.6974 327.2091 210.9358 330.5128 218 332 C235.5191 335.6882 245.5334 335.4762 260 334 C262.6701 333.7275 265.4911 330.5664 267 327 C270.1342 319.5918 270.2279 317.2647 271 308 C271.6756 299.8934 271.5437 298.41 270 291 C269.2973 287.6269 268.1678 285.0117 266 284 C257.269 279.9256 252.7797 278.5975 240 277 C225.7342 275.2168 222.2955 275.1084 210 277 C205.933 277.6257 201.643 280.5565 201 283 C198.5209 292.4207 200 315 200 315 "/>
<path id="7" d="M218 290 C218 290 217.7105 292.7105 218 293 C218.4825 293.4825 222 294 222 294 "/>
<path id="8" d="M213 300 L213 301 "/>
<path id="9" d="M215 303 L216 309 "/>
<path id="10" d="M216 311 L219 319 "/>
<path id="11" d="M226 327 L230 327 "/>
<path id="12" d="M237 319 L239 316 "/>
<path id="13" d="M238 312 L233 311 "/>
<path id="14" d="M226 311 L224 316 "/>
<path id="15" d="M235 303 L236 294 "/>
<path id="16" d="M237 295 L240 299 "/>
<path id="17" d="M247 303 L251 303 "/>
<path id="18" d="M261 303 L261 305 "/>
<path id="19" d="M261 314 L260 319 "/>
<path id="20" d="M253 330 L251 333 "/>
<path id="21" d="M248 332 L248 328 "/>
<path id="22" d="M251 320 L252 316 "/>
<path id="23" d="M248 317 L246 323 "/>
<path id="24" d="M252 302 L252 298 "/>
<path id="25" d="M251 292 L248 289 "/>
<path id="26" d="M242 288 L237 286 "/>
<path id="27" d="M231 286 L229 286 "/>
<path id="28" d="M228 294 L228 299 "/>
<path id="29" d="M223 306 L221 308 "/>
<path id="30" d="M215 305 L212 305 "/>
<path id="31" d="M208 311 L208 315 "/>
<path id="32" d="M208 316 L210 316 "/>
<path id="33" d="M219 324 L221 325 "/>
<path id="34" d="M233 322 L238 322 "/>
<path id="35" d="M264 293 L264 291 "/>
<path id="36" d="M259 289 L257 289 "/>
<path id="37" d="M250 286 L248 285 "/>
<path id="38" d="M237 283 L234 283 "/>
<path id="39" d="M226 283 L222 283 "/>
<path id="40" d="M216 288 L214 290 "/>
<path id="41" d="M210 296 L209 297 "/>
<path id="42" d="M208 303 L208 304 "/>
<path id="43" d="M179 253 C179 253 170.5595 253.712 170 253 C168.7681 251.4321 168.4803 245.965 168 239 C167.4904 231.6103 166.959 225.5142 168 224 C168.5942 223.1357 179 223 179 223 "/>
<path id="44" d="M200 187 C200 187 196.7126 167.682 198 165 C198.5947 163.761 205.1017 163.1497 212 162 C213.903 161.6828 215.9738 161.8885 216 162 C216.4738 164.0135 215.0219 171.5013 216 179 C216.3677 181.8192 219 185 219 185 "/>
<path id="45" d="M224 186 C224 186 222.4082 169.9588 223 167 C223.063 166.6852 225.524 166.2476 228 166 C230.4274 165.7573 232.9175 165.7644 233 166 C233.9753 168.7867 235 186 235 186 "/>
<path id="46" d="M201 205 C201 205 199.8633 217.6009 201 219 C202.02 220.2554 213.4811 221.556 214 221 C214.9183 220.0161 215.7943 205.3504 215 204 C214.6868 203.4676 204 204 204 204 "/>
<path id="47" d="M223 204 C223 204 222.3729 217.4211 223 218 C223.5413 218.4996 230.4633 217.6284 236 216 C237.9894 215.4149 239.584 214.248 240 213 C240.864 210.408 240.4963 204.2978 240 204 C238.6213 203.1728 225 204 225 204 "/>
<path id="48" d="M249 204 C249 204 248.315 220.3607 249 221 C249.5267 221.4916 260.5096 219.5271 264 218 C264.5884 217.7426 264.8596 215.9654 265 214 C265.3448 209.1728 265.5912 204.4223 265 204 C263.8412 203.1723 251 204 251 204 "/>
<path id="49" d="M179 277 C179 277 179.7437 275 180 275 C209.9846 275 297 277 297 277 "/>
</g>
</g>
</svg>
