<?xml version="1.0" encoding="utf-8"?>
<!DOCTYPE svg PUBLIC "-//W3C//DTD SVG 1.1//EN" "http://www.w3.org/Graphics/SVG/1.1/DTD/svg11.dtd">
<svg viewBox="0 0 800 800" preserveAspectRatio="xMinYMin meet" xmlns="http://www.w3.org/2000/svg" version="1.1">
<g fill="none" stroke="black" stroke-linecap="round" stroke-linejoin="round" stroke-width="1.9585">
<g transform="translate(87.52,278.2247) scale(1.5318) translate(-24,-87.1333)">
<path id="0" d="M158 128.1333 C158 128.1333 157.719 123.9799 159 121.1333 C161.8542 114.7906 162.1026 112.1403 167 108.1333 C176.5798 100.2953 179.3385 99.4793 192 94.1333 C201.057 90.3093 202.1996 89.6234 212 89.1333 C250.7178 87.1974 255.0945 83.7061 292 89.1333 C319.1907 93.132 330.7819 97.0806 348 109.1333 C356.4369 115.0392 356.3282 124.764 362 138.1333 C362.6493 139.6639 362.6253 140.8827 362 142.1333 C360.6712 144.7909 357 148.1333 357 148.1333 "/>
<path id="1" d="M365 124.1333 C365 124.1333 375.9616 116.3279 387 111.1333 C392.2652 108.6556 393.0913 108.7242 399 108.1333 C407.6468 107.2686 410.3119 106.1269 417 108.1333 C422.4619 109.7719 425.1217 112.4793 429 117.1333 C431.3474 119.9502 431.5629 121.7626 432 126.1333 C432.9869 136.0027 432.6934 144.7064 432 147.1333 C431.9434 147.3314 426 147.1333 426 147.1333 "/>
<path id="2" d="M162 114.1333 C162 114.1333 156.2892 107.9469 150 105.1333 C138.3923 99.9404 136.7188 98.9833 124 97.1333 C110.4214 95.1583 107.962 96.3478 95 97.1333 C93.158 97.245 91.8411 97.7875 91 99.1333 C81.4439 114.4232 77.3692 119.0453 70 137.1333 C67.4029 143.508 68.3765 146.2747 69 153.1333 C69.2458 155.8376 70.0448 157.0003 72 159.1333 C74.9794 162.3836 76.1195 163.9835 80 165.1333 C87.7757 167.4373 99 167.1333 99 167.1333 "/>
<path id="3" d="M68 131.1333 C68 131.1333 63.6891 126.8428 60 126.1333 C52.5901 124.7083 49.0722 124.0533 42 126.1333 C34.558 128.3221 31.8616 131.2487 26 136.1333 C24.5145 137.3712 24.2393 138.7399 24 141.1333 C23.3096 148.0375 22.5269 150.732 24 156.1333 C24.8481 159.2432 26.5628 160.9564 30 163.1333 C40.4104 169.7266 42.8622 170.6782 54 175.1333 C56.3204 176.0615 59.2895 175.6408 60 175.1333 C60.5413 174.7467 61 170.1333 61 170.1333 "/>
<path id="4" d="M79 165.1333 C79 165.1333 90.1458 184.4313 102 190.1333 C123.0694 200.268 130.5491 201.0217 158 203.1333 C199.8246 206.3506 203.4359 205.0748 245 201.1333 C259.2314 199.7838 261.3719 197.9854 274 192.1333 C280.3326 189.1987 282.0084 186.739 286 182.1333 C287.1479 180.8088 287 177.1333 287 177.1333 "/>
<path id="5" d="M58 177.1333 L83 182.1333 "/>
<path id="6" d="M150 210.1333 C150 210.1333 158.1637 225.1315 168 231.1333 C184.0096 240.9019 189.1742 241.4129 209 246.1333 C218.7858 248.4633 222.2412 248.7212 231 246.1333 C241.288 243.0937 243.2071 240.2247 253 233.1333 C256.9881 230.2454 259.4066 227.8035 260 225.1333 C260.5796 222.5253 257 215.1333 257 215.1333 "/>
<path id="7" d="M78 180.1333 L92 180.1333 "/>
<path id="8" d="M257 201.1333 L258 220.1333 "/>
<path id="9" d="M154 204.1333 L153 214.1333 "/>
<path id="10" d="M274 93.1333 C274 93.1333 280.7776 98.5154 282 103.1333 C284.4478 112.3804 285.191 117.2739 283 127.1333 C280.8397 136.8546 278.7699 141.3634 272 148.1333 C264.3838 155.7495 260.7729 157.0919 249 161.1333 C228.6662 168.1136 217.0901 165.4584 205 171.1333 C202.2435 172.4272 200.9521 177.8497 200 184.1333 C198.6159 193.2682 200 204.1333 200 204.1333 "/>
<path id="11" d="M271 87.1333 L279 97.1333 "/>
<path id="12" d="M279 146.1333 C279 146.1333 284.0092 152.4467 290 156.1333 C302.7876 164.0027 304.1009 165.5003 318 170.1333 C328.2116 173.5372 337.0436 173.6081 341 173.1333 C341.4753 173.0763 341.389 168.8683 343 167.1333 C346.7346 163.1114 351.5431 163.1697 354 159.1333 C356.8131 154.5118 357 144.1333 357 144.1333 "/>
<path id="13" d="M286 177.1333 C286 177.1333 299.7697 184.4412 313 188.1333 C320.1626 190.1322 323.3682 190.7424 329 189.1333 C334.2223 187.6413 338.0251 184.2524 341 180.1333 C342.6371 177.8666 342 171.1333 342 171.1333 "/>
<path id="14" d="M432 146.1333 C432 146.1333 432.4559 151.9478 432 152.1333 C413.7384 159.5654 387.2032 168.8148 346 181.1333 C341.2125 182.5647 336.2798 181.4824 335 181.1333 C334.9048 181.1074 335 178.1333 335 178.1333 "/>
<path id="15" d="M368 123.1333 L359 126.1333 "/>
</g>
</g>
</svg>
