<?xml version="1.0" encoding="utf-8"?>
<!DOCTYPE svg PUBLIC "-//W3C//DTD SVG 1.1//EN" "http://www.w3.org/Graphics/SVG/1.1/DTD/svg11.dtd">
<svg viewBox="0 0 800 800" preserveAspectRatio="xMinYMin meet" xmlns="http://www.w3.org/2000/svg" version="1.1">
<g fill="none" stroke="black" stroke-linecap="round" stroke-linejoin="round" stroke-width="2.6498">
<g transform="translate(87.52,277.7252) scale(1.1322) translate(-9,-52.9333)">
<path id="0" d="M265 131.9333 C265 131.9333 262.8288 121.447 265 114.9333 C267.9375 106.1208 270.0899 104.2254 277 95.9333 C284.6249 86.7835 285.192 85.472 295 78.9333 C312.7212 67.1192 315.3757 63.1198 334 57.9333 C350.7266 53.2753 356.2039 55.2545 374 56.9333 C380.0498 57.5041 382.4898 59.0381 387 62.9333 C392.0176 67.2668 394.5186 75.5806 396 75.9333 C397.2365 76.2277 401.7897 71.0385 408 67.9333 C414.4044 64.7311 415.4208 63.3203 422 62.9333 C438.9759 61.9348 444.2895 60.6216 459 64.9333 C468.9397 67.8467 471.416 71.3493 480 79.9333 C490.0147 89.948 493.3751 92.7361 498 103.9333 C501.2976 111.917 500.5866 117.4717 499 125.9333 C498.1772 130.3217 491.89 135.8234 492 135.9333 C493.4295 137.3628 507.5535 139.7608 520 146.9333 C536.0404 156.1769 539.5273 157.6212 551 169.9333 C557.7037 177.1276 558.434 180.9259 561 190.9333 C562.9601 198.5777 561.9938 200.9826 561 208.9333 C560.648 211.7492 559.7942 212.173 558 214.9333 C553.3735 222.0511 553.5868 223.6005 548 228.9333 C543.5327 233.1976 542.1122 233.2759 536 235.9333 C531.0007 238.1069 530.401 238.3547 525 238.9333 C516.89 239.8023 508.9448 237.8774 508 238.9333 C506.8198 240.2524 510.2997 252.1841 508 257.9333 C506.0876 262.7143 501.1221 267.9784 496 268.9333 C478.8665 272.1277 469.4599 273.8048 449 268.9333 C421.1604 262.3049 416.9108 253.2148 391 243.9333 C387.6557 242.7354 385.7683 245.7408 382 244.9333 C373.2073 243.0492 372.1074 240.5897 363 237.9333 C360.8359 237.3021 359.3875 237.0083 358 237.9333 C344.9574 246.6284 340.4523 257.2357 327 261.9333 C316.3076 265.6672 309.1408 264.129 295 259.9333 C266.1843 251.3836 265.7436 246.3732 236 234.9333 C220.4613 228.9569 215.5268 230.5409 204 224.9333 C201.2197 223.5808 201.4624 217.9034 199 216.9333 C189.9469 213.367 182.2881 215.1081 171 211.9333 C169.0327 211.38 168.9529 208.821 167 207.9333 C164.4979 206.796 161.896 208.1973 160 206.9333 C157.6094 205.3396 155.5413 203.0729 155 199.9333 C153.4853 191.148 153.9633 187.9547 155 177.9333 C155.3445 174.6034 155.8895 173.0438 158 170.9333 C162.221 166.7123 164.2194 165.1011 170 162.9333 C174.769 161.145 182.0032 161.9439 182 161.9333 C181.9836 161.8785 170.7704 156.9393 167 152.9333 C165.5417 151.3839 165.3846 147.8052 166 144.9333 C166.542 142.404 168.0632 139.6912 170 138.9333 C176.1552 136.5248 179.5618 136.4778 189 135.9333 C205.2446 134.9961 205.967 134.3068 222 135.9333 C239.8356 137.7427 243.2553 138.8785 258 142.9333 C259.9828 143.4786 260.2515 146.0591 262 146.9333 C263.1657 147.5162 265.9349 147.1288 266 146.9333 C267.0748 143.7088 269 125.9333 269 125.9333 "/>
<path id="1" d="M177 101.9333 C177 101.9333 176.9238 98.5437 176 97.9333 C156.5243 85.0654 148.8699 79.2001 121 64.9333 C107.7734 58.1626 106.3391 57.4638 92 54.9333 C73.658 51.6965 69.9858 52.2105 53 52.9333 C49.4338 53.0851 45.4031 56.0466 45 56.9333 C44.7025 57.5878 48 62.7107 48 63.9333 C48 64.2827 46.5928 65.3243 45 65.9333 C30.1049 71.6285 27.5643 70.9048 14 76.9333 C11.2703 78.1465 9.845 79.7364 9 81.9333 C8.0236 84.472 7.9375 88.5811 9 89.9333 C10.9447 92.4084 14.8793 94.0131 20 95.9333 C21.9323 96.658 24.9595 95.7795 25 95.9333 C25.5845 98.1545 26.7892 107.7764 25 114.9333 C23.9877 118.9826 19.7728 119.8812 18 123.9333 C16.9712 126.2848 17.1109 129.3033 18 130.9333 C18.9237 132.6268 21.0586 133.9529 24 134.9333 C27.7436 136.1812 28.5204 135.8587 33 135.9333 C58.3372 136.3556 60.7994 139.5239 84 135.9333 C99.9274 133.4684 102.3152 125.8703 117 122.9333 C123.7649 121.5804 125.6611 125.8316 134 125.9333 C165.8035 126.3212 173.2995 127.6531 199 123.9333 C203.8428 123.2324 205.6612 119.8145 210 114.9333 C213.1065 111.4385 214.1197 110.1588 215 105.9333 C216.315 99.6214 215.9353 91.9354 215 90.9333 C214.1853 90.0604 206.8911 90.0032 201 90.9333 C198.6967 91.297 198.4497 93.423 196 93.9333 C187.5439 95.695 177 95.9333 177 95.9333 "/>
</g>
</g>
</svg>
