<?xml version="1.0" encoding="utf-8"?>
<!DOCTYPE svg PUBLIC "-//W3C//DTD SVG 1.1//EN" "http://www.w3.org/Graphics/SVG/1.1/DTD/svg11.dtd">
<svg viewBox="0 0 800 800" preserveAspectRatio="xMinYMin meet" xmlns="http://www.w3.org/2000/svg" version="1.1">
<g fill="none" stroke="black" stroke-linecap="round" stroke-linejoin="round" stroke-width="1.7233">
<g transform="translate(87.52,215.4714) scale(1.7408) translate(-203,-221)">
<path id="0" d="M517 232 C517 232 509.6679 224.9051 503 223 C494.4352 220.5529 487.4586 219.5918 482 222 C476.6741 224.3497 472.0783 230.5242 469 238 C466.3457 244.4461 468.0941 256.0157 468 256 C465.004 255.5007 432.9844 234.5143 409 228 C401.6646 226.0077 394.9791 229.5118 387 234 C381.733 236.9627 379.2432 240.6163 377 246 C375.3349 249.9961 377.0368 257.9947 377 258 C376.7299 258.0386 370.3166 252.1809 363 248 C353.0854 242.3345 350.1808 238.1515 342 238 C329.3213 237.7652 318.0426 241.0451 309 247 C304.3881 250.0371 301.809 264.9775 301 265 C298.3801 265.0728 273.8685 248.7552 273 248 C272.9515 247.9578 277.9898 245.0102 278 245 C278.0025 244.9975 276.0047 245.0283 276 245 C275.9174 244.5046 277.0067 239.0013 277 239 C276.1178 238.8346 261.4468 241.4575 260 242 C259.99 242.0037 261.2166 244.5669 261 245 C260.5669 245.8662 258.782 247.109 257 248 C256.352 248.324 255.0147 248.0588 255 248 C254.7647 247.0588 255.3288 240.8767 255 240 C254.9538 239.8767 253.157 239.5179 252 240 C242.2943 244.044 239.8936 244.1731 231 250 C226.5142 252.939 225.8144 254.1118 223 259 C216.7255 269.8978 214.9805 271.3264 212 283 C209.4145 293.1264 212.2309 299.8455 211 306 C210.8514 306.7428 207.2114 308.0846 207 308 C206.8282 307.9313 206.1916 304.1916 206 304 C205.9617 303.9617 204.0706 304.6236 204 305 C203.2204 309.1579 201.7699 313.6445 203 320 C204.4418 327.4493 209.8113 331.4719 210 336 C210.0898 338.154 203.6758 342.8884 204 344 C205.0267 347.5201 214.1621 355.7431 217 360 C217.1534 360.2301 215.9304 361.9304 216 362 C216.7659 362.7659 222.3646 364.3662 223 366 C224.3233 369.4027 222.0032 377.342 223 380 C223.3026 380.8069 228.4011 380.8687 229 382 C230.9193 385.6254 231.8114 393.9829 232 397 C232.0109 397.1738 229.9767 397.986 230 398 C230.8166 398.49 249.4032 407.1712 267 418 C274.9886 422.916 274.637 427.015 282 430 C290.6052 433.4886 295.6929 434.1867 304 433 C309.4464 432.2219 315.3324 427.1224 317 425 C317.4055 424.484 314.7608 421.3916 315 419 C315.5938 413.0622 318.3871 411.7418 319 405 C319.8068 396.1247 317.6472 394.8208 318 386 C318.1131 383.1714 320.0624 382.7449 320 380 C319.6012 362.4517 316.9802 341.9944 317 342 C317.059 342.0165 329.9105 367.1092 345 387 C350.7263 394.5483 352.5975 395.231 361 400 C370.1796 405.2101 371.8353 406.3059 382 408 C394.2887 410.0481 395.937 409.3063 409 408 C420.3697 406.863 423.5822 407.2089 432 403 C437.6119 400.1941 439.6377 397.3706 443 391 C448.3293 380.9024 446.3283 377.7809 451 367 C452.389 363.7945 454.5436 363.6215 456 361 C456.4977 360.1041 456.423 358.5076 456 358 C454.9895 356.7873 451.0097 354.9516 451 355 C450.8896 355.5518 450.6609 366.9527 452 378 C452.6002 382.9517 452.8192 383.4827 455 388 C459.6308 397.5924 460.1712 398.6211 466 407 C467.6355 409.351 469.1651 410.7553 471 411 C474.2277 411.4304 476.919 411.0957 481 409 C494.2234 402.2096 494.1292 398.9354 508 392 C519.5265 386.2368 523.5202 389.3198 533 383 C542.072 376.952 543.1212 374.0726 550 364 C556.6322 354.2886 558.502 352.6166 561 342 C563.9702 329.3769 563.2594 326.8537 562 313 C560.8435 300.279 560.474 298.9307 556 287 C551.8031 275.8084 551.6575 273.8665 544 265 C524.3939 242.2982 499 221 499 221 "/>
</g>
</g>
</svg>
