<?xml version="1.0" encoding="utf-8"?>
<!DOCTYPE svg PUBLIC "-//W3C//DTD SVG 1.1//EN" "http://www.w3.org/Graphics/SVG/1.1/DTD/svg11.dtd">
<svg viewBox="0 0 800 800" preserveAspectRatio="xMinYMin meet" xmlns="http://www.w3.org/2000/svg" version="1.1">
<g fill="none" stroke="black" stroke-linecap="round" stroke-linejoin="round" stroke-width="0.80165">
<g transform="translate(87.52,153.0098) scale(3.7423) translate(-195,-95)">
<path id="0" d="M224 135 C224 135 225.123 121.5848 229 113 C231.088 108.3765 234.2494 106.5966 238 104 C238.985 103.3181 240.7494 104.6253 242 104 C244.6576 102.6712 245.1316 100.0124 248 99 C252.1939 97.5198 257.508 98.5425 259 98 C259.1432 97.9479 258.9798 95.0012 259 95 C263.1085 94.7652 280.8062 92.3782 294 96 C301.3193 98.0092 303.7805 101.7082 310 109 C317.4895 117.7808 323 130 323 130 "/>
<path id="1" d="M224 135 C224 135 214.756 134.0544 210 136 C206.2792 137.5221 205.0328 139.6674 202 144 C198.3874 149.1609 196.9601 150.2391 196 156 C193.772 169.3682 194.2675 172.448 195 186 C195.1752 189.2412 195.9359 190.2479 198 193 C201.5145 197.686 202.2585 198.918 207 202 C211.3424 204.8225 212.6633 204.9327 218 206 C222.0703 206.8141 224.2076 207.3227 227 206 C231.4254 203.9038 236.6886 196.8832 237 197 C237.5465 197.2049 239.3614 205.3292 243 212 C245.0456 215.7502 245.6505 217.0676 249 219 C257.2135 223.7385 259.3448 225.069 269 227 C277.94 228.788 279.2648 227.8344 289 227 C296.4266 226.3634 297.3253 226.6294 304 224 C313.0496 220.435 314.6273 219.362 322 214 C324.4399 212.2255 325.0589 211.0586 326 208 C328.7633 199.0194 330 188 330 188 "/>
<path id="2" d="M324 132 C324 132 333.6684 129.9447 340 131 C343.5324 131.5887 345.7184 132.8888 348 136 C355.4046 146.0972 358.1864 149.2868 362 161 C364.3224 168.133 363.5803 172.4156 362 179 C361.259 182.0874 358.9635 184.9541 356 186 C345.5865 189.6753 328 191 328 191 "/>
</g>
</g>
</svg>
