<?xml version="1.0" encoding="utf-8"?>
<!DOCTYPE svg PUBLIC "-//W3C//DTD SVG 1.1//EN" "http://www.w3.org/Graphics/SVG/1.1/DTD/svg11.dtd">
<svg viewBox="0 0 800 800" preserveAspectRatio="xMinYMin meet" xmlns="http://www.w3.org/2000/svg" version="1.1">
<g fill="none" stroke="black" stroke-linecap="round" stroke-linejoin="round" stroke-width="2.813">
<g transform="translate(87.52,322.1466) scale(1.0665) translate(-27,-109.05)">
<path id="0" d="M299 133.05 C299 133.05 295.3796 127.1446 291 125.05 C274.4478 117.1337 271.7961 115.749 253 111.05 C240.9976 108.0494 239.9778 109.3483 227 109.05 C196.6058 108.3513 195.7537 108.1999 166 109.05 C161.5822 109.1762 160.7536 109.1732 157 111.05 C148.5544 115.2728 142.9815 117.9504 140 122.05 C138.689 123.8526 139.2818 130.8409 141 133.05 C143.4963 136.2595 154.0236 140.0471 154 140.05 C153.8499 140.0688 112.3159 137.4463 77 141.05 C66.9605 142.0744 59.5633 145.7121 56 150.05 C53.1978 153.4613 52.9011 163.5554 54 169.05 C54.4372 171.236 57.9435 174.6284 61 175.05 C81.0223 177.8117 112 177.05 112 177.05 C112 177.05 101.483 175.4931 92 177.05 C68.8586 180.8493 66.6238 180.7312 45 188.05 C35.7392 191.1844 30.5231 194.5483 27 199.05 C25.3148 201.2033 25.6669 206.8285 27 211.05 C27.9881 214.1791 30.6545 217.7978 33 218.05 C63.3311 221.3114 120 221.05 120 221.05 C120 221.05 115.953 220.0886 113 221.05 C95.8901 226.6207 83.0133 231.6138 77 235.05 C76.6681 235.2397 76.9423 240.3142 78 241.05 C83.9195 245.1679 89.6235 250.0618 100 251.05 C137.5232 254.6236 143.8486 255.1546 183 251.05 C202.9828 248.955 203.5368 242.7273 224 238.05 C237.815 234.8923 253 235.05 253 235.05 "/>
<path id="1" d="M305 134.05 C305 134.05 317.2275 126.9461 330 122.05 C346.9221 115.5632 347.707 113.6046 365 111.05 C390.1641 107.3326 394.6611 109.05 418 109.05 C419.7614 109.05 421.244 109.916 422 111.05 C423.35 113.075 424.1978 115.8742 424 118.05 C423.876 119.4135 422.6022 121.0887 421 122.05 C418.5671 123.5098 413.999 124.05 414 124.05 C414.0246 124.0499 562.4783 119.4184 586 121.05 C586.2794 121.0694 588.1774 132.1253 587 136.05 C586.4313 137.9456 583.6362 139.1107 580 141.05 C576.3889 142.9759 575.8736 143.7272 572 144.05 C553.1798 145.6184 551.0968 142.822 532 145.05 C522.1462 146.1996 511.9936 151.0482 512 151.05 C512.017 151.0548 537.2482 150.7363 560 153.05 C565.3839 153.5975 566.1433 154.3302 571 157.05 C578.1897 161.0762 578.6576 161.659 585 167.05 C588.3685 169.9132 589.6191 170.6963 591 174.05 C592.5182 177.737 593.149 182.8532 592 184.05 C587.0432 189.2133 567.0765 198.9558 567 199.05 C566.981 199.0733 573.6404 198.4124 579 200.05 C590.7838 203.6506 595.3541 203.7533 603 210.05 C608.8879 214.8989 610.0001 219.6503 613 228.05 C614.3907 231.9439 614.0806 233.9438 613 238.05 C611.8853 242.2859 610.9971 244.8703 608 247.05 C602.2654 251.2206 599.1988 253.0994 591 254.05 C567.0107 256.8314 562.4699 260.0064 539 255.05 C486.2532 243.9109 475.828 227.2695 430 220.05 C415.9493 217.8365 411.1905 229.0566 393 232.05 C373.3207 235.2884 370.6189 235.5334 351 233.05 C333.0121 230.7731 332.1147 225.1156 314 222.05 C300.9483 219.8412 298.2361 219.7069 286 222.05 C276.9438 223.7842 275.8394 229.1891 267 231.05 C259.0512 232.7234 248 230.05 248 230.05 "/>
</g>
</g>
</svg>
