<?xml version="1.0" encoding="utf-8"?>
<!DOCTYPE svg PUBLIC "-//W3C//DTD SVG 1.1//EN" "http://www.w3.org/Graphics/SVG/1.1/DTD/svg11.dtd">
<svg viewBox="0 0 800 800" preserveAspectRatio="xMinYMin meet" xmlns="http://www.w3.org/2000/svg" version="1.1">
<g fill="none" stroke="black" stroke-linecap="round" stroke-linejoin="round" stroke-width="2.477">
<g transform="translate(87.52,211.6642) scale(1.2112) translate(-35,-125.4167)">
<path id="0" d="M74 138.4167 C74 138.4167 94.7263 134.7669 106 136.4167 C109.6163 136.9459 111.4283 140.0797 115 144.4167 C118.04 148.1081 118.7971 148.9486 120 153.4167 C122.0392 160.9908 121.941 170.4136 122 170.4167 C122.3294 170.434 130.0174 160.7574 139 154.4167 C146.1898 149.3415 147.2519 149.2958 156 146.4167 C186.2658 136.4558 187.0232 136.3498 218 128.4167 C227.6583 125.9432 228.0571 126.0132 238 125.4167 C252.7813 124.5298 254.7488 123.7603 268 125.4167 C272.6931 126.0033 274.1954 127.2835 278 130.4167 C281.8839 133.6152 284.0546 135.2806 285 139.4167 C287.3393 149.651 284.7219 162.3958 286 165.4167 C286.2046 165.9004 291.3953 164.5312 296 165.4167 C303.8103 166.9186 304.9649 166.8991 312 170.4167 C319.2252 174.0293 321.4177 174.9179 326 180.4167 C330.0183 185.2386 330.8801 187.6975 332 194.4167 C333.6425 204.2715 334.1968 208.3618 332 216.4167 C330.6565 221.3428 327.7895 223.6355 323 227.4167 C319.4364 230.23 317.7938 230.8984 313 231.4167 C300.5933 232.7579 295.7889 230.7416 286 231.4167 C285.2249 231.4701 283.925 233.2666 284 233.4167 C286.3629 238.1426 294.8499 246.0039 299 257.4167 C301.8692 265.307 302.4148 272.5871 300 277.4167 C297.1518 283.1131 291.1604 285.9204 282 291.4167 C277.0034 294.4146 275.6159 295.3341 270 295.4167 C243.9409 295.7999 240.2128 296.3984 214 292.4167 C202.6862 290.6981 201.1311 289.0451 191 283.4167 C184.0851 279.5751 183.2849 278.2888 178 272.4167 C174.857 268.9245 175.0432 265.0884 173 263.4167 C172.0084 262.6054 169.2935 262.4611 167 263.4167 C153.1436 269.1902 152.1946 272.5077 137 278.4167 C125.8337 282.7591 124.9019 283.0046 113 284.4167 C96.086 286.4234 94.9809 286.3429 78 285.4167 C68.1755 284.8808 67.3554 284.4509 58 281.4167 C49.3925 278.6251 48.5831 277.8976 41 273.4167 C38.2238 271.7762 36.451 270.5964 36 268.4167 C34.1909 259.6727 33.177 253.7919 35 244.4167 C36.038 239.0782 38.4486 237.4738 43 232.4167 C47.0299 227.939 48.1142 226.2958 53 224.4167 C59.2653 222.0069 67.904 223.1212 69 222.4167 C69.1585 222.3148 68.794 218.008 67 215.4167 C60.5648 206.1213 53.7359 205.1073 51 196.4167 C46.9804 183.6486 49.2546 177.8147 50 161.4167 C50.1948 157.1306 50.6778 156.045 53 152.4167 C58.1717 144.3359 60.1787 140.9149 66 136.4167 C68.243 134.6835 75 135.4167 75 135.4167 "/>
<path id="1" d="M371 305.4167 C371 305.4167 381.5077 297.3539 391 295.4167 C403.4894 292.8678 408.8728 292.144 420 295.4167 C430.1341 298.3973 434.3004 302.2038 442 310.4167 C447.2952 316.0648 447.1654 323.7099 450 327.4167 C450.4688 328.0298 453.72 328.0567 455 327.4167 C456.28 326.7767 456.3218 324.2558 458 323.4167 C464.7128 320.0603 466.7844 318.1869 475 317.4167 C496.9861 315.3555 500.4283 316.2182 522 317.4167 C525.2893 317.5994 526.5139 318.2068 529 320.4167 C538.9444 329.2562 543.4308 331.544 549 341.4167 C552.2999 347.2666 553.0918 356.279 551 359.4167 C546.5655 366.0685 538.0209 370.5962 525 377.4167 C518.3495 380.9002 509.8231 380.3878 509 381.4167 C508.6178 381.8944 511.9831 387.0781 513 392.4167 C513.8645 396.9555 513.9727 398.2826 513 402.4167 C512.2275 405.6996 511.4764 406.5032 509 409.4167 C503.2733 416.154 502.5885 417.6251 496 422.4167 C492.7191 424.8028 491.5724 424.3673 487 425.4167 C461.2676 431.3225 460.6524 432.3856 435 436.4167 C426.406 437.7672 424.6572 437.6418 417 436.4167 C413.7499 435.8967 411.9743 434.9174 410 432.4167 C405.5824 426.821 403.9007 424.8467 402 417.4167 C398.7924 404.8779 400.777 390.0924 399 389.4167 C390.1958 386.0686 360.6456 392.9169 331 390.4167 C324.1579 389.8396 321.7931 387.2023 316 382.4167 C311.4192 378.6325 308.2112 375.3231 308 371.4167 C307.5258 362.6433 310.1533 355.3541 314 345.4167 C314.9945 342.8474 317.3172 340.9045 320 340.4167 C330.5546 338.4976 342.8832 342.8131 347 339.4167 C352.8294 334.6074 352.438 320.8967 360 307.4167 C362.8117 302.4045 365.5933 300.62 370 298.4167 C372.4313 297.201 378 298.4167 378 298.4167 "/>
</g>
</g>
</svg>
