<?xml version="1.0" encoding="utf-8"?>
<!DOCTYPE svg PUBLIC "-//W3C//DTD SVG 1.1//EN" "http://www.w3.org/Graphics/SVG/1.1/DTD/svg11.dtd">
<svg viewBox="0 0 800 800" preserveAspectRatio="xMinYMin meet" xmlns="http://www.w3.org/2000/svg" version="1.1">
<g fill="none" stroke="black" stroke-linecap="round" stroke-linejoin="round" stroke-width="2.501">
<g transform="translate(87.52,281.8454) scale(1.1995) translate(-24,-81.4167)">
<path id="0" d="M155 259.4167 C155 259.4167 153.0888 258.2163 153 257.4167 C152.3603 251.6593 151.909 248.7806 153 241.4167 C153.7904 236.0812 154.3637 233.053 157 230.4167 C159.9878 227.4289 163.4779 226.4207 169 225.4167 C173.1999 224.6531 178.8984 226.5352 179 226.4167 C179.0613 226.3451 175.3637 222.1451 175 218.4167 C173.5693 203.7522 174.6009 201.7798 175 185.4167 C175.097 181.4378 174.4814 180.3158 176 177.4167 C179.2493 171.2135 180.3303 169.6664 186 164.4167 C193.2324 157.72 195.2374 154.3177 203 152.4167 C215.4583 149.3657 228.7975 149.8051 235 152.4167 C237.4688 153.4562 240.5041 168.0734 241 168.4167 C241.0625 168.46 244.9462 162.0953 248 161.4167 C258.4306 159.0988 274.2295 159.1747 277 160.4167 C277.609 160.6897 277.9195 168.8999 277 174.4167 C276.7045 176.1899 275.6283 177.3312 274 178.4167 C271.8928 179.8214 270.0945 178.7631 268 180.4167 C261.571 185.4922 261.8239 188.2988 255 193.4167 C250.5757 196.7349 248.1826 194.9123 244 198.4167 C230.8418 209.4411 229.8055 210.9247 218 224.4167 C212.7027 230.4708 214.1814 232.3342 209 238.4167 C203.0392 245.4142 200.5194 244.6707 195 251.4167 C192.23 254.8022 193.5227 256.8849 191 260.4167 C189.0244 263.1825 188.1757 263.2181 185 265.4167 C175.2665 272.1553 174.1176 274.4657 165 278.4167 C161.4431 279.958 156.7434 279.7726 155 278.4167 C151.7069 275.8554 148.807 270.6121 147 264.4167 C145.9259 260.7342 146.528 257.5709 148 254.4167 C149.0969 252.0661 154 249.4167 154 249.4167 "/>
<path id="1" d="M382 166.4167 C382 166.4167 398.528 167.8493 414 166.4167 C424.8608 165.411 425.7293 164.7298 436 161.4167 C440.6162 159.9276 440.8078 157.0717 445 156.4167 C454.8577 154.8764 457.4571 157.881 468 156.4167 C474.2773 155.5448 474.6259 152.2279 481 151.4167 C500.7511 148.9029 503.8706 152.4371 523 149.4167 C530.2806 148.2671 538 142.4167 538 142.4167 "/>
<path id="2" d="M382 159.4167 C382 159.4167 383.3632 148.573 387 144.4167 C391.3172 139.4827 395.2555 137.9149 403 135.4167 C409.2775 133.3917 416.5647 135.9317 418 134.4167 C419.9668 132.3407 417.7429 123.9594 421 116.4167 C426.5551 103.5523 428.906 100.5342 437 90.4167 C439.1695 87.7048 441.2317 86.955 445 86.4167 C453.7927 85.1606 455.3437 85.4002 465 86.4167 C473.894 87.3529 475.752 87.1954 483 90.4167 C487.6012 92.4617 487.6575 95.6251 492 98.4167 C493.7326 99.5305 496.6059 98.6678 497 99.4167 C499.2391 103.671 501.6595 116.974 502 117.4167 C502.018 117.4401 504.7999 112.9056 507 112.4167 C515.0003 110.6388 519.5387 109.8824 529 111.4167 C535.9906 112.5503 542.4572 115.3311 544 118.4167 C546.7132 123.8431 546.726 140.7318 545 143.4167 C543.9219 145.0937 526 146.4167 526 146.4167 "/>
<path id="3" d="M31 118.4167 C31 118.4167 30.9072 113.6023 32 111.4167 C32.7286 109.9596 33.8928 109.1693 36 108.4167 C47.0111 104.4841 48.7391 102.8243 60 101.4167 C67.13 100.5254 73.5604 103.7037 76 103.4167 C76.2276 103.3899 76.0858 100.4615 77 99.4167 C78.7347 97.4341 79.8254 96.9204 83 95.4167 C98.5344 88.0583 99.8204 84.196 115 81.4167 C132.0477 78.2953 139.8317 78.3686 154 82.4167 C161.6766 84.61 165.9999 94.9166 171 97.4167 C172.1225 97.9779 174.7586 94.5787 178 94.4167 C192.9378 93.6698 196.1001 93.8885 211 95.4167 C213.8392 95.7079 215.1775 96.5942 217 98.4167 C218.8225 100.2392 219.5526 101.5832 220 104.4167 C220.8984 110.1067 221.4974 112.9246 220 117.4167 C218.8098 120.9873 216.8114 123.4495 213 125.4167 C203.3665 130.3888 200.6215 132.487 189 133.4167 C153.1544 136.2843 146.3828 129.9027 113 133.4167 C104.1919 134.3438 102.7358 137.8008 94 143.4167 C89.1413 146.5401 88.6127 150.935 85 151.4167 C72.1761 153.1265 62.9882 153.9214 49 149.4167 C38.1303 145.9163 33.2299 140.2249 26 132.4167 C23.7625 130.0002 23.7539 126.3535 24 122.4167 C24.1542 119.9499 27 116.4167 27 116.4167 "/>
</g>
</g>
</svg>
