<?xml version="1.0" encoding="utf-8"?>
<!DOCTYPE svg PUBLIC "-//W3C//DTD SVG 1.1//EN" "http://www.w3.org/Graphics/SVG/1.1/DTD/svg11.dtd">
<svg viewBox="0 0 800 800" preserveAspectRatio="xMinYMin meet" xmlns="http://www.w3.org/2000/svg" version="1.1">
<g fill="none" stroke="black" stroke-linecap="round" stroke-linejoin="round" stroke-width="2.7026">
<g transform="translate(87.52,133.0322) scale(1.1101) translate(-0.5,-0.83334)">
<path id="0" d="M28.5 2.8333 C28.5 2.8333 29.2848 13.3215 32.5 18.8333 C34.926 22.9923 37.3412 24.3571 42.5 26.8333 C48.8068 29.8606 51.7713 31.2425 57.5 30.8333 C62.7281 30.4599 70.0023 24.7568 70.5 24.8333 C70.5507 24.8411 69.1284 30.8843 70.5 32.8333 C76.0497 40.7198 80.4231 44.7735 89.5 51.8333 C92.0678 53.8305 93.7151 53.8333 97.5 53.8333 C108.3816 53.8333 118.3053 51.2608 120.5 51.8333 C120.7038 51.8865 119.6298 56.3527 120.5 59.8333 C121.9412 65.5982 122.0478 67.0002 125.5 71.8333 C131.4226 80.125 132.1447 82.0993 140.5 87.8333 C156.271 98.6566 158.3501 98.1214 176.5 106.8333 C183.097 109.9999 183.7105 110.3574 190.5 111.8333 C194.5502 112.7138 197.5062 113.1626 199.5 111.8333 C203.2662 109.3226 207.052 104.5911 208.5 99.8333 C209.5209 96.479 206.2662 89.0087 206.5 88.8333 C206.9675 88.4827 215.6061 91.9627 220.5 90.8333 C225.5051 89.6783 230.9146 86.3701 232.5 82.8333 C235.0416 77.1636 234.4371 70.8915 233.5 61.8333 C233.1227 58.1862 231.4546 56.0322 229.5 53.8333 C228.7295 52.9665 225.4963 52.8347 225.5 52.8333 C225.5165 52.8274 234.0929 52.3962 240.5 49.8333 C245.5624 47.8084 246.5618 46.4434 250.5 42.8333 C251.8594 41.5872 252.5 40.5115 252.5 38.8333 C252.5 32.1205 249.6538 23.5641 250.5 22.8333 C252.4038 21.1891 270.1924 22.386 274.5 19.8333 C276.2886 18.7734 277.7395 11.3839 277.5 6.8333 C277.3842 4.6327 273.5 0.83334 273.5 0.83334 "/>
<path id="1" d="M29.5 4.8333 L29.5 0.83334 "/>
<path id="2" d="M259.5 197.8333 C259.5 197.8333 261.2848 191.5408 263.5 188.8333 C264.5994 187.4897 266.0472 187.1533 268.5 186.8333 C276.953 185.7308 278.7614 184.4677 286.5 185.8333 C293.9832 187.1539 302.2809 192.9008 302.5 192.8333 C302.5061 192.8315 300.1659 182.5825 299.5 181.8333 C299.3809 181.6994 294.5205 183.8641 294.5 183.8333 C294.3872 183.6642 294.0819 178.4923 295.5 175.8333 C297.2837 172.4889 298.8154 171.2897 302.5 168.8333 C305.6582 166.7279 306.633 166.3377 310.5 165.8333 C317.4125 164.9317 319.2597 164.2733 325.5 165.8333 C331.6363 167.3674 334.4957 169.6871 338.5 172.8333 C339.3967 173.5379 339.5 176.8334 339.5 176.8333 C339.5 176.8333 338.5 167.8334 338.5 167.8333 C338.5 167.8333 339.4713 171.8443 339.5 171.8333 C340.8477 171.3199 350.3763 163.8883 359.5 159.8333 C362.021 158.7129 363.3455 159.2024 366.5 159.8333 C370.3756 160.6085 371.3151 160.6542 374.5 162.8333 C380.1528 166.701 381.2362 167.6558 385.5 172.8333 C387.6188 175.4061 388.4464 179.8119 388.5 179.8333 C388.5 179.8333 389.5137 175.3713 390.5 174.8333 C392.4916 173.747 397.1957 172.5372 399.5 173.8333 C408.7002 179.0085 418.679 185.3733 422.5 192.8333 C425.1038 197.917 419.2134 206.5992 420.5 214.8333 C421.1581 219.0453 426.3126 220.2534 427.5 224.8333 C429.2085 231.4233 428.4781 234.3346 427.5 241.8333 C427.1323 244.6526 425.7567 246.8909 424.5 247.8333 C423.6622 248.4617 421.9082 248.1774 419.5 247.8333 C411.5873 246.703 410.2784 247.0928 403.5 244.8333 C400.9747 243.9916 398.5223 240.8093 398.5 240.8333 C397.6173 241.784 395.2808 254.4067 390.5 258.8333 C385.5613 263.4062 378.7333 266.0142 371.5 265.8333 C363.3542 265.6297 359.2689 262.9249 350.5 257.8333 C345.0953 254.6951 343.6146 251.8824 340.5 247.8333 C339.9719 247.1468 340.523 244.819 340.5 244.8333 C340.2041 245.0183 331.9981 254.2136 324.5 257.8333 C319.9617 260.0243 317.1811 259.9696 311.5 258.8333 C298.7176 256.2769 296.3863 255.2671 284.5 249.8333 C280.2214 247.8774 280.0763 244.1509 276.5 242.8333 C272.7814 241.4633 270.18 244.1244 265.5 242.8333 C256.9028 240.4617 254.2794 239.9179 247.5 234.8333 C241.9211 230.6492 240.1083 227.9985 237.5 221.8333 C235.4681 217.0306 235.0401 212.0451 236.5 208.8333 C238.1291 205.2492 242.0154 202.8499 247.5 199.8333 C250.973 197.9232 254.475 197.6493 256.5 197.8333 C257.0219 197.8808 258.4053 200.8333 258.5 200.8333 C258.5947 200.8333 260.5 197.8333 260.5 197.8333 "/>
<path id="3" d="M390.5 175.8333 C390.5 175.8333 387.1616 171.1338 386.5 166.8333 C385.3303 159.2301 385.3543 157.5665 386.5 149.8333 C387.2139 145.0148 388.5414 141.3722 390.5 139.8333 C392.2816 138.4335 395.9756 138.2678 400.5 138.8333 C407.1435 139.6638 414.4975 142.8324 414.5 142.8333 C414.5005 142.8335 412.0076 143.2564 411.5 142.8333 C410.2873 141.8228 408.669 139.5232 408.5 137.8333 C408.347 136.3029 409.0444 134.289 410.5 132.8333 C413.6192 129.7142 415.2157 127.9441 419.5 126.8333 C426.9111 124.9119 431.2982 124.4022 437.5 125.8333 C440.856 126.6078 445.4143 132.8548 445.5 132.8333 C445.5309 132.8256 444.3003 125.8328 445.5 123.8333 C447.0196 121.3007 450.551 118.6561 454.5 117.8333 C460.1988 116.6461 462.7259 117.2701 469.5 118.8333 C474.9056 120.0808 476.5943 120.4856 480.5 123.8333 C485.9023 128.4638 490.2642 136.7351 490.5 136.8333 C490.5204 136.8418 491.3064 129.5793 492.5 128.8333 C495.1003 127.2082 502.4434 125.3846 506.5 126.8333 C512.0833 128.8274 516.855 132.7583 520.5 138.8333 C524.145 144.9083 525.1325 151.3514 524.5 156.8333 C524.1823 159.5864 518.1913 164.5568 517.5 164.8333 C517.4051 164.8713 514.5123 160.8018 514.5 160.8333 C514.398 161.0956 513.6481 176.762 510.5 182.8333 C509.1681 185.402 503.7 187.8333 500.5 187.8333 C497.3 187.8333 490.7624 182.6315 490.5 182.8333 C489.88 183.3102 489.831 191.1317 487.5 197.8333 C486.085 201.9016 485.2785 203.2863 482.5 205.8333 C480.3034 207.8468 478.7196 208.5267 475.5 208.8333 C469.3553 209.4185 463.8925 206.8482 461.5 207.8333 C460.3918 208.2897 460.6356 213.1153 458.5 215.8333 C455.9667 219.0575 454.131 220.3809 450.5 221.8333 C448.056 222.8109 445.8394 222.5352 443.5 221.8333 C442.1966 221.4423 440.6146 218.8333 440.5 218.8333 C440.4618 218.8333 440.1016 221.4991 439.5 221.8333 C437.4444 222.9753 434.1228 224.4162 431.5 223.8333 C427.5658 222.9591 421.5 217.8333 421.5 217.8333 "/>
<path id="4" d="M160.5 98.8333 C160.5 98.8333 167.6745 110.8138 170.5 121.8333 C172.2684 128.7302 171.202 130.4622 170.5 137.8333 C170.2723 140.2246 169.2893 142.5514 168.5 142.8333 C165.9981 143.7269 157.9595 143.0766 156.5 142.8333 C156.4595 142.8266 156.5 140.8333 156.5 140.8333 C156.5 140.8334 156.9442 159.1684 154.5 173.8333 C153.779 178.1595 152.54 179.1419 149.5 182.8333 C145.9283 187.1704 144.7994 188.5572 140.5 190.8333 C137.7293 192.3002 134.0686 192.3039 132.5 191.8333 C131.8481 191.6378 130.504 187.8206 130.5 187.8333 C130.4754 187.9122 130.2331 198.8141 127.5 207.8333 C125.5235 214.3559 123.8033 218.9982 120.5 220.8333 C115.5967 223.5574 106.5599 224.4493 100.5 222.8333 C96.5569 221.7819 94.4076 213.9911 90.5 212.8333 C85.5541 211.3679 80.8945 215.3811 73.5 214.8333 C68.9821 214.4987 67.071 213.6108 63.5 210.8333 C59.2027 207.491 58.6008 206.0808 55.5 200.8333 C52.3514 195.5049 52.0511 194.7791 50.5 188.8333 C49.1872 183.8008 51.2786 179.7009 49.5 177.8333 C45.3192 173.4435 38.5976 173.6971 30.5 167.8333 C24.9562 163.8188 22.5377 161.7237 20.5 156.8333 C18.7534 152.6416 19.0882 147.0098 20.5 143.8333 C21.4291 141.7428 28.5 138.8918 28.5 138.8333 C28.5 138.81 22.9491 138.8451 20.5 136.8333 C11.039 129.0618 4.2158 125.1229 0.5 115.8333 C-3.2158 106.5438 -0.43937 88.9469 0.5 86.8333 C0.60797 86.5904 11.4743 88.9188 12.5 88.8333 C12.5217 88.8315 12.5 85.8333 12.5 85.8333 "/>
<path id="5" d="M127.5 371.8333 C127.5 371.8333 128.6739 367.238 130.5 365.8333 C133.6357 363.4212 136.6156 364.2237 140.5 361.8333 C142.2024 360.7857 142.2866 358.0667 143.5 357.8333 C150.9659 356.3976 156.0386 355.5257 166.5 356.8333 C174.6176 357.848 178.0325 358.5808 183.5 362.8333 C188.9675 367.0858 193.3612 377.7072 193.5 377.8333 C193.5208 377.8523 193.3887 374.0372 194.5 372.8333 C197.9059 369.1436 199.8402 368.408 205.5 364.8333 C209.2114 362.4893 209.5966 361.6466 213.5 360.8333 C220.6625 359.3412 223.1544 358.2016 229.5 359.8333 C238.195 362.0692 244.0655 364.475 248.5 369.8333 C252.4886 374.6529 253.4992 388.8308 253.5 388.8333 C253.5002 388.8338 253.3491 384.8745 253.5 384.8333 C256.6195 383.9826 270.4545 382.4129 275.5 382.8333 C276.0392 382.8783 276.366 386.0773 277.5 386.8333 C279.525 388.1834 282.1792 387.0927 284.5 388.8333 C289.0051 392.2122 291.68 394.0352 293.5 398.8333 C296.1809 405.9011 294.8346 417.0016 295.5 417.8333 C295.6292 417.9949 301.432 416.607 305.5 413.8333 C311.7328 409.5837 312.4001 404.2905 317.5 402.8333 C325.1498 400.6477 332.246 401.1629 340.5 403.8333 C345.5377 405.4632 347.7119 408.6924 351.5 413.8333 C353.8455 417.0166 354.1141 418.5883 354.5 422.8333 C355.0373 428.7431 352.7177 433.8776 353.5 435.8333 C353.798 436.5784 358.8053 436.2927 360.5 437.8333 C362.6664 439.8028 363.9191 442.0578 364.5 445.8333 C365.7136 453.7216 365.7136 455.9451 364.5 463.8333 C363.9191 467.6089 361.3444 468.0334 360.5 471.8333 C359.55 476.1083 360.5 481.8333 360.5 481.8333 "/>
<path id="6" d="M171.5 358.6667 C171.5 358.6667 180.5225 350.8979 183.5 343.6667 C186.46 336.4782 186.5096 332.4912 185.5 324.6667 C184.8119 319.3336 183.4515 316.6182 179.5 312.6667 C172.4751 305.6417 170.3094 304.969 160.5 299.6667 C152.2899 295.2288 151.0603 293.6939 142.5 292.6667 C128.0148 290.9284 123.2813 291.9395 110.5 293.6667 C108.2963 293.9645 105.8036 296.088 105.5 297.6667 C104.1538 304.6668 105.5001 319.6642 105.5 319.6667 C105.5 319.6671 104.9513 315.775 104.5 315.6667 C92.7766 312.8531 58.8969 305.9682 55.5 307.6667 C54.179 308.3272 52.9794 325.4607 54.5 340.6667 C55.3134 348.8012 60.7846 357.412 60.5 357.6667 C59.7274 358.3579 43.4841 354.6726 35.5 357.6667 C28.9131 360.1368 26.0683 364.8711 20.5 372.6667 C16.9116 377.6905 16.7097 379.3761 15.5 385.6667 C14.3736 391.524 14.3159 392.9829 15.5 398.6667 C16.5968 403.9314 20.3863 409.4961 20.5 409.6667 C20.5106 409.6825 21.5 407.6667 21.5 407.6667 C21.8507 407.842 26.1493 412.4913 26.5 412.6667 C26.5 412.6667 27.4607 410.6536 27.5 410.6667 C29.8191 411.4397 43.7626 418.4932 44.5 418.6667 C44.5368 418.6753 44.5119 414.6663 44.5 414.6667 C41.9903 414.7532 27.9619 416.3679 15.5 419.6667 C13.01 420.3258 12.0559 421.4192 10.5 423.6667 C8.0458 427.2116 7.1422 428.2999 6.5 432.6667 C4.8158 444.1195 4.1855 446.0988 5.5 457.6667 C6.5396 466.8153 7.9358 468.1127 11.5 476.6667 C12.6052 479.3191 13.9355 481.3873 15.5 481.6667 C23.1742 483.0371 39.5 481.6667 39.5 481.6667 "/>
<path id="7" d="M481.5 251 C481.5 251 496.0377 252.4301 500.5 256 C503.9923 258.7938 506.4468 270.9894 506.5 271 C506.5083 271.0017 508.4941 259.0746 510.5 258 C515.0867 255.5428 534.5 256 534.5 256 "/>
<path id="8" d="M516.5 283 C516.5 283 525.0789 284.6441 530.5 288 C534.2903 290.3464 537.2339 296.0443 537.5 296 C537.8131 295.9478 541.3186 289.8397 542.5 286 C542.7757 285.1041 541.4673 283.0047 541.5 283 C542.76 282.82 563.5 283 563.5 283 "/>
<path id="9" d="M465.5 303 C465.5 303 469.7034 300.7056 472.5 301 C477.6163 301.5386 479.6246 302.2914 484.5 305 C487.6995 306.7775 489.0397 307.9171 490.5 311 C492.8817 316.028 493.4998 324 493.5 324 C493.5026 323.9995 493.3214 315.0834 495.5 310 C496.9664 306.5784 499.422 304.2674 502.5 303 C505.6147 301.7175 512.5 303 512.5 303 "/>
<path id="10" d="M379.5 308 C379.5 308 382.4754 307.2956 383.5 308 C388.5108 311.4449 390.2935 313.1809 395.5 319 C398.4878 322.3393 399.4998 323.7492 400.5 327 C400.992 328.5992 399.5 332 399.5 332 C399.5 332 399.482 328.018 400.5 327 C402.8754 324.6246 406.2342 324.672 409.5 322 C410.8154 320.9238 410.5695 318.2863 411.5 318 C418.7669 315.764 431.5123 314.9969 435.5 314 C435.5798 313.9801 435.5 312 435.5 312 "/>
<path id="11" d="M429.5 348 C429.5 348 437.2242 348.5862 443.5 351 C449.5846 353.3402 450.6623 354.016 455.5 358 C458.4314 360.4141 460.4979 365 460.5 365 C460.5008 365 457.9234 359.9603 458.5 358 C459.5843 354.3132 461.746 352.0668 465.5 348 C467.2367 346.1186 468.2097 345.3123 470.5 345 C477.698 344.0185 487.5 345 487.5 345 "/>
<path id="12" d="M455.5 363 C455.5 363 458.5 357.7175 458.5 354 C458.5 349.8695 455.5023 344.0182 455.5 344 C455.4995 343.996 457.5 346 457.5 346 "/>
<path id="13" d="M492.5 311 C492.5 311 490.5709 309.7092 490.5 309 C490.2453 306.4532 491.5 301 491.5 301 "/>
<path id="14" d="M536.5 293 L538.5 282 "/>
<path id="15" d="M509.5 268 L510.5 247 "/>
</g>
</g>
</svg>
