<?xml version="1.0" encoding="utf-8"?>
<!DOCTYPE svg PUBLIC "-//W3C//DTD SVG 1.1//EN" "http://www.w3.org/Graphics/SVG/1.1/DTD/svg11.dtd">
<svg viewBox="0 0 800 800" preserveAspectRatio="xMinYMin meet" xmlns="http://www.w3.org/2000/svg" version="1.1">
<g fill="none" stroke="black" stroke-linecap="round" stroke-linejoin="round" stroke-width="1.8337">
<g transform="translate(145.5987,87.52) scale(1.636) translate(-131,-70)">
<path id="0" d="M206,98C206,98 203.43898754127383,88.85648320492588 205,84C206.96451176267888,77.88818562722122 211.01058573385652,71.92082909110611 215,70C218.93645743960175,68.10466864019174 225.5161551885127,68.52088286619603 232,71C240.05269389446988,74.07897119494436 247.58776191864896,78.38668893425324 249,83C251.98697568095957,92.75745389113459 251.02914477085815,103.88342091656737 247,120C243.72296225303538,133.10815098785855 240.96283676794692,134.6133650276381 233,147C227.83363566841538,155.03656673802052 224.35908258438687,154.19953642793928 220,162C215.62364231950593,169.83137690193678 214,181 214,181"/>
<path id="1" d="M209,99C209,99 199.91878721192503,98.20624035246388 193,100C187.65724632154308,101.38515836108142 186.81171295700463,102.39121528224652 182,106C175.1704719319934,111.12214605100494 174.88022004519954,111.55072640203923 169,118C159.53074305914848,128.3856366448049 157.98386081207164,128.44050624208833 151,140C144.0648226283167,151.47891427037234 146.34938205072873,155.52351961629756 140,166C137.5792244685997,169.99427962681048 131,173 131,173"/>
<path id="2" d="M215,181C215,181 217.91227246122642,173.56425068615502 220,173C229.48537342144678,170.43638556177115 238.1425038385737,169.52579828069932 252,171C258.863820053183,171.73019362267905 260.93246823934623,173.33266787642017 267,178C279.40981967650697,187.54601513577458 277.93623903365386,191.71785405022777 291,201C314.9715326799293,218.03240479889715 317.18474829075035,220.76277278538544 343,232C357.03678227481566,238.11012875491974 359.63275095461733,236.63606257955143 376,238C395.05440933641563,239.58786744470132 415,238 415,238"/>
<path id="3" d="M208,109L225,113"/>
<path id="4" d="M227,114C227,114 227.14677277527946,118.93513956581194 226,120C222.59707643857294,123.1598575927537 218.85069337831027,122.82093330120696 213,127C201.67008583882773,135.09279582940877 200.5667956648182,135.4332043351818 191,145C186.2166021675909,149.7833978324091 185.20909363736644,150.92499249724233 183,157C179.6728894607957,166.14955398281185 179.9681938955442,167.5919156228997 179,178C178.00336079958126,188.7138714045015 177.38401199785113,190.03474065341524 179,200C180.17327875831694,207.23521900962112 181.18606817528698,208.73425485940004 185,215C187.63152405621224,219.3232180923487 189.7709472497328,218.56005246838262 193,223C209.42143273655617,245.57947001276472 215.20852457025631,247.8251879973452 225,270C229.94670247969628,281.2028262040181 227.32125225835708,285.5436483739309 227,300C226.83842060002513,307.2710729988686 224,315 224,315"/>
<path id="5" d="M210,110C210,110 194.10552308068227,107.53904781603181 185,110C179.64496804768524,111.44730593305804 177.3534825178068,114.3069843997911 173,120C165.12099789722083,130.30331044209583 167.12790156920218,134.56114656479747 159,144C152.99487087452627,150.97369833925984 148.81599652866623,149.48035114649315 142,156C138.27461563776714,159.5634111290923 137.4010642126794,162.07702020449776 136,166C135.5796807361962,167.17689393865066 136.9998885662128,170 137,170C137,170 137,166 137,166"/>
<path id="6" d="M139,164L140,164"/>
<path id="7" d="M141,164C141,164 140.95756801250872,160.15825776387922 142,159C144.15553733006675,156.60495852214805 147.34993982901258,156.8708985185697 150,154C152.50192016142913,151.28958649178511 152.98737718682162,149.7973355494189 154,146C154.78180437782154,143.06823358316922 154.13845659242386,139.07911805281364 154,139C153.81703950286845,138.89545114449626 147,141.9999759874687 147,142C147,142.0000160083542 151.50307492617685,141.71663598825341 154,140C158.52800591745543,136.8869959317494 163.00005209651852,131.000104193037 163,131C162.99997684599177,130.99995369198356 152.999999971679,138.000000028321 153,138C153.00000003165292,137.99999996834708 164.000355437292,129.99857825083197 164,130C163.9993635192678,130.0025459229288 151,145.99994364589443 151,146C151,146.00004578771077 163.99999137512077,133.00000718739938 164,133C164.00000494573496,132.99999587855422 157.00014357276908,141 157,141C156.9998974480221,141 162.00856574515296,132.9991434254847 162,133C161.97651804345997,133.002348195654 151.0272288045487,139.04669887666426 147,142C146.72654619228373,142.20053279232528 146.956,143.992 147,144C148.331,144.242 157.99949548776342,143.99991591462725 158,144C158.0002216796191,144.0000369466032 152.992433098807,145.01664718262458 153,145C153.0382548893646,144.91583924339787 159.5253986408127,139.25428244653713 163,133C166.5185836548732,126.66654942122822 164.66476971882406,124.39252470558719 168,118C170.2070165811238,113.76988488617934 175.00000000006543,109.9999999999264 175,110C174.99999999986048,110.00000000015697 160.0000064282037,126.99999142906172 160,127C159.99999641613422,127.0000047784877 164.27418478304693,120.9255046581138 169,118C173.6949275357965,115.09361628736407 180.94566037735848,114.03018867924528 181,114C181.0093396226415,113.99481132075472 177.98784123205104,113.01459052153876 178,113C178.09456819515867,112.8865181658096 182.1663788705512,108.92006907106771 186,108C193.18387263822797,106.27587056682529 202.99999378286168,107.00000103618971 203,107C203.00000398379737,106.99999933603376 192.00013072228876,107.00003268057219 192,107C191.9999197840501,106.99997994601251 199.0011103448276,106.00047586206896 199,106C198.99748965517241,105.99892413793104 184.99913260827523,104.00069391337982 185,104C185.00144098947825,103.9988472084174 203.9999332045197,102.0000222651601 204,102C204.0000441529446,101.9999852823518 191,102 191,102"/>
<path id="8" d="M198,105C198,105 187.0000169327682,105.00001693276819 187,105C186.99998614591692,104.99998614591693 197,104 197,104"/>
<path id="9" d="M204,104L184,107"/>
<path id="10" d="M174,117C174,117 174.55178372974026,120.44821627025973 174,121C172.0687569459091,122.93124305409091 165.0003701016513,126.00037010165128 165,126C165,126 172,119 172,119"/>
<path id="11" d="M175,117L171,119"/>
<path id="12" d="M170,120C170,120 157.12922661067861,133.89065440634886 157,134C156.98679728126194,134.0111715312399 156.76533798048578,131.15644134634283 157,131C157.78220673171407,130.47852884552395 163.0075720480176,129.99015633757713 163,130C162.964525473671,130.04611688422773 153.96709090881163,136.47554181848343 147,144C141.8418452911626,149.5708070855444 137.99489597593612,156.9977315448605 138,157C138.0221761045534,157.00985604646817 155.99977272147524,148 156,148C156.00016414560122,148 147.77747742908318,151.97107639043875 143,157C139.2630504418881,160.933631113802 137,168 137,168"/>
<path id="13" d="M153,147C153,147 145.00065581085795,155 145,155C144.99959011821377,155 150.00848922360734,147.0010611529509 150,147C149.97426704094022,146.99678338011753 137,154 137,154"/>
<path id="14" d="M141,153C141,153 137.75901490199365,154.3870933332635 137,156C134.53091537905678,161.24680481950432 133,170 133,170"/>
<path id="15" d="M213,84C213,84 216.23200769358735,80.73813128171004 219,80C222.5252732204312,79.05992714121835 227.70410843869587,79.70410843869587 228,80C228.16438420072453,80.16438420072451 226.75888092320568,86.64974726621275 226,87C224.47107814001205,87.70565624307136 216.4920107604199,86.54254936742542 215,86C214.8567669669997,85.94791526072716 214.85,83.075 215,83C215.6,82.7 221,83 221,83"/>
<path id="16" d="M261,262C261,262 271.4480028570623,263.2633609142599 280,266C283.0699476923366,266.9823832615477 283.3762087549673,269.8125863396405 286,270C306.871066721851,271.4907904801322 311.43814601240353,271.6939209646618 336,270C354.3790424665808,268.73247982989096 355.11912638408796,268.15091708940815 373,264C382.605771640176,261.7700887263877 382.410232241789,259.5116058414362 392,257C403.0693319266207,254.10088925731364 415,253 415,253"/>
<path id="17" d="M392,246L431,239"/>
<path id="18" d="M397,253C397,253 415.7051968722512,253.81053368086097 432,252C436.84718827217847,251.4614235253135 442,248 442,248"/>
<path id="19" d="M402,249L442,242"/>
<path id="20" d="M232,198C232,198 243.71720563164231,195.36999305510608 250,198C261.3561102342796,202.75372056318682 263.2960467338386,210.9460201805212 275,216C281.9395839407545,218.99663851987125 294,217 294,217"/>
<path id="21" d="M244,217C244,217 257.5811575334248,215.43246301336993 264,218C268.53094762346484,219.81237904938592 268.65736125442174,224.50093579319724 274,229C277.6639407790714,232.08542381395492 278.56420618841036,232.92929114892664 283,234C291.9015592029873,236.1486522214107 303,236 303,236"/>
<path id="22" d="M264,245C264,245 264.65441951348503,243.06283281573 265,243C267.53425690110987,242.53922601798 270.77289803801466,241.69935324246606 275,243C288.81937179879816,247.25211439963021 292.0866340102448,253.18709647981987 304,255C310.27594103973706,255.95503450604693 321,250 321,250"/>
<path id="23" d="M307,452L307,452"/>
<path id="24" d="M239,277C239,277 268.9221921976386,278.8810787345595 293,277C297.63302725363723,276.63804474580956 303,272 303,272"/>
<path id="25" d="M240,279C240,279 241.39686839678632,294.0313160321368 240,308C238.96439067134807,318.3560932865193 236.0734594867082,318.802134876272 235,329C234.15750490162998,337.0037034345151 236,346 236,346"/>
<path id="26" d="M227,314L225,349"/>
<path id="27" d="M264,280C264,280 262.5722122276187,312.05485593330894 263,342C263.0554083263605,345.87858284523633 265,350 265,350"/>
<path id="28" d="M274,281C274,281 270.87318891377896,286.01034906412036 270,291C267.5089634025138,305.2344948427781 267.80157148524466,306.0373322754325 267,321C266.3090064638743,333.8985460076793 265.3688777925439,338.57253526147695 267,347C267.386531441221,348.9970791129751 273,352 273,352"/>
<path id="29" d="M232,336L226,365"/>
<path id="30" d="M231,342C231,342 244.99999927233034,361.999997816991 245,362C245.00000062933591,362.0000018880078 232.00598665409294,345.00149666352325 232,345C231.99696329140212,344.99924082285053 237.0001908361884,359.999045819058 237,360C236.99988004582443,360.00059977087784 231.01242512419824,349.9844685947522 231,350C230.94838794563805,350.0645150679524 229,370 229,370"/>
<path id="31" d="M228,343L217,363"/>
<path id="32" d="M263,347C263,347 262.1552284237121,352.982680206803 260,356C258.06582064538656,358.7078510964588 253,361 253,361"/>
<path id="33" d="M265,350L266,362"/>
<path id="34" d="M266,352C266,352 275.8950550881331,362.95802203525323 276,363C276.0204059550852,363.0081623820341 277.03674972747586,357.61272179829575 276,356C274.1063448855288,353.0543142663782 266.9999890414973,348.9999863018716 267,349C267.00001728665216,349.0000216083152 280,361 280,361"/>
<path id="35" d="M262,352C262,352 261.9999853215537,367.99988257242967 262,368C262.0000072245478,368.00005779638223 263,360 263,360"/>
</g>
</g>
</svg>
