<?xml version="1.0" encoding="utf-8"?>
<!DOCTYPE svg PUBLIC "-//W3C//DTD SVG 1.1//EN" "http://www.w3.org/Graphics/SVG/1.1/DTD/svg11.dtd">
<svg viewBox="0 0 800 800" preserveAspectRatio="xMinYMin meet" xmlns="http://www.w3.org/2000/svg" version="1.1">
<g fill="none" stroke="black" stroke-linecap="round" stroke-linejoin="round" stroke-width="1.0993">
<g transform="translate(87.52,132.5499) scale(2.7291) translate(-192,-138)">
<path id="0" d="M270 169 C270 169 271.0725 151.3295 268 147 C264.9571 142.7123 257.579 140.1553 248 138 C239.3017 136.0429 234.747 135.6807 228 138 C222.6762 139.8301 219.6372 143.3169 216 149 C212.7756 154.0381 213.1557 160.3035 212 163 C211.937 163.1471 210.0147 162.9412 210 163 C209.7647 163.9412 209.1298 167.5193 210 171 C211.4412 176.7649 215.3881 182.2239 215 183 C214.5711 183.8578 206.8114 184.0215 202 187 C197.7808 189.6119 196.3626 191.511 194 196 C192.0233 199.7557 191.9634 205.9634 192 206 C192.0091 206.0091 195.3624 202.3991 199 201 C207.5294 197.7194 218 196 218 196 C218 196 212.2565 196.6944 208 199 C200.8907 202.8509 194.3258 208.8138 194 209 C193.9811 209.0108 193.9705 207.0033 194 207 C197.5999 206.6 210.9942 207.3341 221 206 C222.2538 205.8328 223.9837 202.9743 224 203 C224.2478 203.3895 226.9946 210.6326 228 217 C228.3327 219.1072 226.5554 220.1106 227 222 C228.2294 227.2249 228.9759 228.4559 232 234 C234.8374 239.2019 234.8722 239.8722 239 244 C249.9266 254.9266 250.7245 255.2518 263 265 C267.4557 268.5384 267.8187 268.9275 273 271 C282.3598 274.7439 283.2145 275.8488 293 277 C307.6504 278.7236 320.161 277.3715 324 277 C324.036 276.9965 324 274 324 274 "/>
<path id="1" d="M283 201 C283 201 277.4779 200.6658 275 202 C272.6114 203.2862 270.7037 205.326 270 208 C268.7496 212.7517 268.0459 216.9521 270 221 C273.421 228.0864 276.5745 229.8839 284 237 C288.2296 241.0533 288.7873 241.7412 294 244 C303.0389 247.9168 304.4499 249.2654 314 250 C328.8638 251.1434 330.7232 250.7104 346 248 C360.9189 245.3531 361.8067 244.7735 376 239 C390.8007 232.9794 391.4705 232.4183 405 224 C413.502 218.7099 420.9234 211.0996 421 211 C421.014 210.9818 417.2656 210.2448 415 211 C412.231 211.923 412.145 213.895 409 215 C394.4915 220.0976 378 224 378 224 C378 224 384.0881 222.7449 389 220 C400.6467 213.4916 411.7333 205.2246 412 205 C412.0236 204.9801 409.1872 203.6439 408 204 C405.6899 204.693 405.0303 206.9305 402 208 C397.2141 209.6891 390.9983 210.0069 391 210 C391.0048 209.9808 404.0053 200.0241 404 200 C403.9982 199.9921 395.9762 199.4054 389 201 C379.105 203.2617 378.7061 206.808 369 208 C351.7837 210.1143 332 208 332 208 "/>
<path id="2" d="M273 171 C273 171 293.6798 175.9176 312 184 C326.9477 190.5946 329.2707 193.0544 341 201 C342.3634 201.9236 343 205 343 205 "/>
<path id="3" d="M313 280 C313 280 309.4555 285.2175 309 290 C307.596 304.7424 310.1388 318.3559 309 322 C308.8888 322.3559 303.3337 321.1874 299 322 C296.156 322.5332 295.1414 323.0233 293 325 C289.262 328.4505 285.9706 333.8678 286 334 C286.0079 334.0355 291.6879 335.3248 295 334 C302.3601 331.056 303.8283 327.5859 311 324 C312.366 323.317 314.3222 323.3839 315 324 C317.7264 326.4786 321.8976 334.0186 322 334 C322.1222 333.9778 324.567 322.6824 326 322 C328.3673 320.8727 342.9992 324.0003 343 324 C343.0005 323.9998 336.8497 320.9 331 320 C324.5083 319.0013 317.1974 320.3729 317 320 C316.6177 319.2779 321.0088 311.3258 322 303 C323.4083 291.1704 319.6646 281.0166 322 278 C324.2963 275.034 335.8229 276.3616 346 272 C351.6904 269.5612 352.469 268.0748 357 263 C364.5833 254.5067 371 244 371 244 "/>
<path id="4" d="M228 171 C228 171 237.1611 172.3355 238 172 C238.1748 171.9301 238.5988 168.5968 238 167 C237.506 165.6826 236.3034 164.391 235 164 C232.6606 163.2982 228.4128 163.484 228 164 C227.2039 164.9951 227 174 227 174 "/>
</g>
</g>
</svg>
