<?xml version="1.0" encoding="utf-8"?>
<!DOCTYPE svg PUBLIC "-//W3C//DTD SVG 1.1//EN" "http://www.w3.org/Graphics/SVG/1.1/DTD/svg11.dtd">
<svg viewBox="0 0 800 800" preserveAspectRatio="xMinYMin meet" xmlns="http://www.w3.org/2000/svg" version="1.1">
<g fill="none" stroke="black" stroke-linecap="round" stroke-linejoin="round" stroke-width="2.0257">
<g transform="translate(87.52,126.0246) scale(1.4809) translate(-58,-78.1333)">
<path id="0" d="M99 102.1333 C99 102.1333 104.623 94.0759 105 93.1333 C105.0066 93.1168 102.9809 92.1541 103 92.1333 C103.5241 91.5615 110.1724 83.5075 116 81.1333 C120.667 79.2319 125.9137 81.8995 130 81.1333 C130.7479 80.9931 131.2075 78.3495 132 78.1333 C134.531 77.4431 137.0734 77.2608 141 78.1333 C145.3144 79.0921 145.6939 81.4156 150 82.1333 C156.6819 83.247 158.665 80.9815 165 82.1333 C168.2635 82.7267 168.5295 85.2657 172 86.1333 C179.5917 88.0313 184.015 84.81 189 88.1333 C200.5108 95.8072 203.8597 101.1957 214 114.1333 C217.1437 118.1442 217.0019 119.6438 218 125.1333 C219.9033 135.6017 216.7002 137.7053 220 147.1333 C226.4906 165.678 228.2996 177.1457 239 185.1333 C253.2767 195.7906 265.2135 196.3288 291 200.1333 C324.506 205.0768 326.3416 202.7482 361 203.1333 C370.8867 203.2432 374.5028 202.61 381 201.1333 C381.8519 200.9397 382.2761 198.2419 383 198.1333 C388.3188 197.3355 393.9799 200.5265 401 198.1333 C413.1345 193.9966 415.7938 191.3732 427 183.1333 C431.6463 179.717 430.3936 177.2497 435 173.1333 C453.3853 156.7039 474 141.1333 474 141.1333 "/>
<path id="1" d="M102 102.1333 C102 102.1333 105.4538 115.144 104 117.1333 C101.171 121.0046 93.5941 124.2574 83 128.1333 C73.9134 131.4577 69.8166 129.134 63 132.1333 C60.4688 133.247 57.8432 137.9572 58 139.1333 C58.2212 140.7923 62.1174 145.0369 65 147.1333 C65.8995 147.7875 68.8942 147.0628 69 147.1333 C69.0088 147.1392 67.9671 149.127 68 149.1333 C69.7577 149.4735 84.8805 150.1832 100 153.1333 C104.5111 154.0135 109 157.1333 109 157.1333 "/>
<path id="2" d="M60 141.1333 C60 141.1333 65.3683 144.1333 68 144.1333 C69.6448 144.1333 70.7534 141.3155 73 141.1333 C86.711 140.0216 105 141.1333 105 141.1333 "/>
<path id="3" d="M138 112.1333 L144 116.1333 "/>
<path id="4" d="M139 118.1333 L143 118.1333 "/>
<path id="5" d="M108 161.1333 C108 161.1333 107.2948 193.3766 109 212.1333 C109.1456 213.7353 112.5237 214.1883 113 216.1333 C117.492 234.4758 115.666 242.2866 121 261.1333 C122.1264 265.1133 125.8531 264.8395 128 269.1333 C132.8539 278.8412 130.6402 283.6762 136 291.1333 C140.0138 296.7177 145.3728 295.8023 151 301.1333 C153.6623 303.6555 152.5013 305.9532 155 309.1333 C157.5788 312.4154 158.1972 313.4854 162 315.1333 C186.4279 325.7188 188.4075 326.3858 215 335.1333 C226 338.7517 226.5571 339.1444 238 340.1333 C266.4083 342.5884 268.1335 342.5314 296 342.1333 C301.7889 342.0506 302.1018 339.5757 308 339.1333 C321.5091 338.1201 322.4289 340.1263 336 339.1333 C342.4073 338.6645 343.972 338.515 349 336.1333 C352.0829 334.673 352.3772 331.0076 355 330.1333 C358.9342 328.8219 362.9406 331.9666 367 330.1333 C375.5662 326.2647 376.325 322.1385 386 316.1333 C390.3616 313.4261 392.1945 315.0255 396 312.1333 C403.7043 306.2781 405.3183 305.1824 411 297.1333 C416.6294 289.1583 417.0338 287.7165 420 278.1333 C423.3001 267.4714 419.9211 264.7187 424 255.1333 C429.0872 243.1785 431.4327 242.0995 440 231.1333 C443.5282 226.6173 447.8556 225.0951 449 223.1333 C449.2447 222.7138 446.6966 220.3469 447 219.1333 C451.1173 202.664 451.9864 195.1958 461 175.1333 C466.8497 162.1129 470.6805 162.4609 478 150.1333 C479.7077 147.2573 479.5708 146.5666 480 143.1333 C480.5327 138.8714 480.4531 136.3989 480 134.1333 C479.9295 133.7809 478 133.1333 478 133.1333 "/>
<path id="6" d="M234 269.1333 C234 269.1333 240.6486 272.4075 247 273.1333 C257.3833 274.32 260.2071 274.1479 269 273.1333 C270.7371 272.9329 271.2268 270.4289 273 270.1333 C278.5168 269.2139 281.7225 271.5726 287 270.1333 C290.6325 269.1426 291.3675 265.124 295 264.1333 C300.2775 262.694 302.3953 264.9589 309 264.1333 C313.8946 263.5215 315.6658 263.4256 319 261.1333 C322.1787 258.9479 322.4647 254.6935 325 253.1333 C326.6247 252.1335 329.8979 254.1036 332 253.1333 C334.6335 251.9179 335.3665 248.3488 338 247.1333 C340.1021 246.1631 343.3753 248.1332 345 247.1333 C347.5353 245.5732 348.5805 241.0689 351 239.1333 C351.7805 238.5089 353.9629 239.7933 355 239.1333 C357.9699 237.2434 358.2146 234.6569 362 232.1333 C366.6507 229.0329 370.0966 230.4515 373 227.1333 C378.5091 220.8373 383 208.1333 383 208.1333 "/>
<path id="7" d="M213 334.1333 C213 334.1333 210.9801 335.0436 211 335.1333 C211.9969 339.6195 217.6984 348.443 219 361.1333 C221.5235 385.7375 218.1532 388.1528 219 413.1333 C219.1151 416.5287 221 420.1333 221 420.1333 "/>
<path id="8" d="M221 423.1333 C221 423.1333 212.3637 425.1189 206 428.1333 C203.8402 429.1564 203.7575 431.3522 202 432.1333 C200.4791 432.8093 199.1982 431.8193 197 432.1333 C196.0579 432.2679 195 433.1133 195 433.1333 C195 433.1533 197 434.1333 197 434.1333 "/>
<path id="9" d="M223 425.1333 C223 425.1333 221.0194 422.1091 221 422.1333 C220.7531 422.442 215 435.1333 215 435.1333 "/>
<path id="10" d="M226 421.1333 C226 421.1333 222.9836 421.1033 223 421.1333 C223.3024 421.6877 238 443.1333 238 443.1333 "/>
<path id="11" d="M307 345.1333 L307 431.1333 "/>
<path id="12" d="M304 426.1333 L283 435.1333 "/>
<path id="13" d="M306 428.1333 L304 448.1333 "/>
<path id="14" d="M306 428.1333 C306 428.1333 309.7313 427.2826 312 428.1333 C316.6319 429.8703 318.2326 430.6014 322 434.1333 C325.4811 437.3968 328 443.1333 328 443.1333 "/>
</g>
</g>
</svg>
