<?xml version="1.0" encoding="utf-8"?>
<!DOCTYPE svg PUBLIC "-//W3C//DTD SVG 1.1//EN" "http://www.w3.org/Graphics/SVG/1.1/DTD/svg11.dtd">
<svg viewBox="0 0 800 800" preserveAspectRatio="xMinYMin meet" xmlns="http://www.w3.org/2000/svg" version="1.1">
<g fill="none" stroke="black" stroke-linecap="round" stroke-linejoin="round" stroke-width="2.2177">
<g transform="translate(87.52,181.5345) scale(1.3527) translate(-163,-81)">
<path id="0" d="M195 130 C195 130 183.9448 139.3098 175 149 C172.447 151.7658 172.9491 154.4407 171 156 C169.6194 157.1045 166.8432 156.0784 165 157 C164.0075 157.4962 163.5498 158.6256 163 160 C162.7107 160.7234 162.9 161.95 163 162 C163.4 162.2 165.4413 162.6062 167 162 C173.5162 159.4659 181 155 181 155 "/>
<path id="1" d="M178 159 C178 159 184.9863 159.1212 190 157 C196.9501 154.0596 204 148 204 148 "/>
<path id="2" d="M199 137 C199 137 195.1559 137.9378 193 140 C184.4504 148.1779 176 159 176 159 "/>
<path id="3" d="M192 133 C192 133 191.8136 123.1016 194 118 C195.2409 115.1045 197.49 113.3163 201 112 C207.8777 109.4209 213.8834 107.9708 218 109 C220.3433 109.5858 225 118 225 118 "/>
<path id="4" d="M227 116 C227 116 236.325 123.9948 246 130 C250.3616 132.7072 250.9291 132.2514 256 134 C265.3888 137.2375 265.7154 138.534 275 140 C283.8437 141.3964 294 140 294 140 "/>
<path id="5" d="M209 149 C209 149 224.8744 152.7817 237 159 C242.9033 162.0273 243.4562 163.3995 248 169 C264.558 189.4087 265.7295 189.7709 280 212 C291.4175 229.785 289.2122 232.0203 300 250 C303.8836 256.4727 304.5345 257.055 310 262 C314.5421 266.1095 315.3154 266.5637 321 269 C328.7729 272.3312 329.5862 272.8527 338 274 C350.9127 275.7608 365 275 365 275 "/>
<path id="6" d="M366 274 C366 274 368.9032 343.8389 364 380 C363.3588 384.7292 354.2592 385.9871 350 392 C347.255 395.8753 346.8975 403.8156 347 404 C347.0143 404.0258 351.7737 403.1509 355 401 C360.1621 397.5586 364.4591 391.8986 365 392 C365.5368 392.1007 370.6094 403.977 371 404 C371.603 404.0355 379.8134 393.2852 382 393 C383.9266 392.7487 393.721 401.0232 394 401 C394.0185 400.9985 395.3303 394.3946 394 392 C391.8485 388.1273 387.3895 387.995 384 383 C378.6091 375.0554 375.6469 372.8143 375 364 C372.041 323.6837 370.7255 282.1846 376 274 C378.1375 270.6832 431.1738 270.7368 433 274 C439.3683 285.3794 438.0414 342.3846 437 383 C436.9218 386.0507 431.803 387.1686 430 391 C428.4881 394.2128 428.976 399.976 429 400 C429 400 431.7393 395.6166 434 395 C440.1362 393.3265 450.6485 394.4474 451 394 C451.2029 393.7418 445.1983 386.9497 445 381 C443.3934 332.8014 447 274 447 274 "/>
<path id="7" d="M446 271 C446 271 477.5791 264.2618 502 250 C537.5481 229.2399 535.94 222.9465 571 198 C587.754 186.0789 592.6776 185.2516 606 176 C606.817 175.4326 607 173 607 173 "/>
<path id="8" d="M287 140 C287 140 298.6961 141.3871 307 138 C334.0586 126.9629 334.3813 119.9024 363 109 C395.9684 96.4406 398.9545 100.2137 433 90 C438.172 88.4484 443.0015 84.998 443 85 C442.9956 85.0059 431.4932 95.1683 421 106 C416.1099 111.0478 415.6177 111.2117 412 117 C408.3551 122.8318 409.091 125.785 406 130 C404.9934 131.3727 400.9755 131.9777 401 132 C401.1794 132.1631 414.6521 136.6249 417 140 C418.841 142.6464 414.5556 150.2174 417 155 C423.8045 168.3132 429.6335 177.7885 440 185 C445.7638 189.0096 452.386 188.3844 463 187 C485.1413 184.112 486.7344 182.8034 509 176 C522.2441 171.9532 527.3724 167.034 535 165 C535.8436 164.775 537.1957 167.5836 539 168 C542.4607 168.7986 544.1742 169.1842 548 168 C563.7382 163.1286 564.7797 160.4068 581 155 C585.0551 153.6483 585.5144 154.195 590 154 C596.9441 153.6981 604.0071 153.9682 604 154 C603.95 154.2248 593.6516 162.4356 586 172 C580.096 179.38 576.0011 188.9977 576 189 C575.9997 189.0006 578.0142 185.6619 580 185 C586.7019 182.766 588.6377 182.3717 597 182 C610.6444 181.3936 624.9748 182.9967 625 183 C625.0042 183.0006 620 185 620 185 "/>
<path id="9" d="M341 154 C341 154 345.9468 143.7343 353 139 C379.7899 121.0178 414 105 414 105 "/>
<path id="10" d="M362 154 L401 139 "/>
<path id="11" d="M418 118 C418 118 424.8334 113.9734 432 112 C458.8216 104.6143 460.1096 106.5293 487 99 C497.1985 96.1444 507.0053 90.9899 507 91 C506.9863 91.0262 489.6182 105.7929 475 122 C467.0325 130.8335 466.6918 131.9556 461 142 C458.616 146.2071 460.2196 148.6706 458 152 C456.212 154.682 453.2936 154.1329 451 157 C447.9707 160.7867 448.6462 164.1133 446 167 C444.6391 168.4846 440 169 440 169 "/>
<path id="12" d="M213 123 C213 123 211 123 211 123 C211 123 213.865 123.18 214 123 C214.24 122.68 214.2439 119.1951 214 119 C213.6189 118.6951 210.2607 118.2996 209 119 C207.2911 119.9494 204.9794 123.9484 205 124 C205.0146 124.0364 211 124 211 124 "/>
<path id="13" d="M206 110 C206 110 204.9406 96.2412 206 86 C206.2344 83.734 208.9975 80.9975 209 81 C209.0102 81.0102 209.5197 87.4408 209 89 C208.8701 89.3898 206 90 206 90 "/>
<path id="14" d="M211 99 C211 99 211.9861 103.0185 212 103 C212.1207 102.8391 222.9982 83.0041 223 83 C223.0004 82.9991 219 87 219 87 "/>
<path id="15" d="M215 106 C215 106 228.9767 93.028 229 93 C229.0041 92.9951 225 94 225 94 "/>
<path id="16" d="M270 137 C270 137 331.8623 169.6423 384 193 C388.1234 194.8473 395 193 395 193 "/>
<path id="17" d="M355 198 C355 198 360.7465 203.7151 367 206 C385.4463 212.74 387.0971 213.4064 407 217 C422.3403 219.7698 423.8846 219.6432 439 219 C446.1849 218.6943 454 215 454 215 "/>
<path id="18" d="M388 262 C388 262 421.3666 259.6237 453 254 C465.5835 251.7629 466.133 251.0859 478 246 C497.2616 237.745 497.7834 237.2013 516 227 C522.3818 223.4262 523.3049 223.2168 528 218 C536.1809 208.9101 543 197 543 197 "/>
</g>
</g>
</svg>
