<?xml version="1.0" encoding="utf-8"?>
<!DOCTYPE svg PUBLIC "-//W3C//DTD SVG 1.1//EN" "http://www.w3.org/Graphics/SVG/1.1/DTD/svg11.dtd">
<svg viewBox="0 0 800 800" preserveAspectRatio="xMinYMin meet" xmlns="http://www.w3.org/2000/svg" version="1.1">
<g fill="none" stroke="black" stroke-linecap="round" stroke-linejoin="round" stroke-width="0.72485">
<g transform="translate(120.6305,87.52) scale(4.1388) translate(-164,-171)">
<path id="0" d="M184 194 C184 194 180.5486 190.7432 180 188 C178.8704 182.3522 179.1272 178.9459 180 174 C180.22 172.7531 181.8686 171.1131 183 171 C188.7939 170.4206 195.8646 170.2277 200 172 C201.7626 172.7554 203.3859 176.1104 204 180 C206.157 193.6609 202.7414 200.2242 206 210 C207.3459 214.0378 211.1469 215.4882 217 219 C225.7082 224.2249 228.2238 222.3446 236 228 C243.5825 233.5145 243.9237 235.0743 250 243 C255.1712 249.745 259 258 259 258 "/>
<path id="1" d="M182 193 C182 193 186.7105 203.9046 189 215 C193.1249 234.9898 191.1898 238.4729 195 256 C195.5287 258.4318 196.6971 259.3112 199 261 C203.6259 264.3923 204.372 265.2683 210 267 C223.0758 271.0233 224.5392 271.8544 238 273 C246.8902 273.7566 249.3612 270.6817 257 271 C259.0695 271.0862 260.7805 272.2385 262 274 C264.41 277.4811 263.0329 281.2449 266 284 C274.6779 292.058 290 300 290 300 "/>
<path id="2" d="M264 264 L299 295 "/>
<path id="3" d="M260 255 C260 255 293.5864 256.6552 296 257 C296.038 257.0054 295 260 295 260 "/>
<path id="4" d="M272 264 C272 264 278.4023 263.8414 282 266 C289.3238 270.3943 297 279 297 279 "/>
<path id="5" d="M297 259 C297 259 286.9017 266.7219 287 268 C287.2141 270.7832 297.7285 280.459 299 285 C299.4122 286.472 294 293 294 293 "/>
<path id="6" d="M293 295 L288 309 "/>
<path id="7" d="M193 188 C193 188 190 185 190 185 C190.0001 185 194 188 194 188 "/>
<path id="8" d="M177 180 C177 180 164.5448 189.0465 164 190 C163.9643 190.0625 166.7546 193.4012 169 194 C172.7012 194.987 179 194 179 194 "/>
<path id="9" d="M198 255 C198 255 196.2027 264.3134 193 272 C191.4755 275.6587 188.6326 275.8369 188 279 C186.5766 286.117 189.887 290.1596 188 297 C186.6155 302.0189 180.0048 307.9807 180 308 C179.9983 308.0067 184.1775 306.8225 186 305 C187.8225 303.1775 188.7195 299.1403 189 299 C189.0701 298.9649 191.506 300.6826 192 302 C192.5988 303.5968 192 307 192 307 "/>
<path id="10" d="M214 269 C214 269 211.5169 290.6853 207 308 C206.0812 311.5219 202.962 312.3545 202 315 C201.6033 316.0909 202.9908 319.0107 203 319 C203.0445 318.948 207.9993 307.9996 208 308 C208.0118 308.0059 209 322 209 322 "/>
<path id="11" d="M207 237 C207 237 206.1257 242.3772 207 245 C207.5828 246.7485 208.9216 247.0948 211 249 C214.9083 252.5826 215.1686 254.197 219 256 C222.2128 257.5119 224.6699 255.89 228 257 C229.4272 257.4757 230.9703 260.0149 231 260 C231.0694 259.9653 232.5587 256.2105 232 255 C230.6175 252.0045 225 247.1166 225 247 C225 247 230.671 247.4984 232 247 C232.4034 246.8487 233.2368 244.4144 233 244 C232.3314 242.8299 228 240 228 240 "/>
</g>
</g>
</svg>
