<?xml version="1.0" encoding="utf-8"?>
<!DOCTYPE svg PUBLIC "-//W3C//DTD SVG 1.1//EN" "http://www.w3.org/Graphics/SVG/1.1/DTD/svg11.dtd">
<svg viewBox="0 0 800 800" preserveAspectRatio="xMinYMin meet" xmlns="http://www.w3.org/2000/svg" version="1.1">
<g fill="none" stroke="black" stroke-linecap="round" stroke-linejoin="round" stroke-width="2.2993">
<g transform="translate(87.52,237.5626) scale(1.3047) translate(-110,-96)">
<path id="0" d="M193 169 C193 169 178.0642 175.4255 163 179 C149.0637 182.3069 147.5879 179.4107 134 183 C121.9559 186.1814 109.9848 192.9983 110 193 C110.0711 193.0077 217 192 217 192 "/>
<path id="1" d="M194 167 C194 167 188.6158 163.823 186 160 C182.7662 155.2736 182.1918 153.9592 181 148 C178.8547 137.2734 178.374 135.0154 179 125 C179.2531 120.95 180.3119 119.2641 183 116 C186.5498 111.6895 187.6581 110.5374 193 108 C206.6354 101.5232 208.361 99.1423 223 97 C247.1498 93.4659 252.1173 93.9198 275 96 C281.452 96.5865 283.477 98.6777 289 103 C293.9929 106.9075 295.0818 108.4068 298 114 C300.5221 118.834 300.5861 120.2053 301 126 C301.5398 133.5568 301.8673 134.9977 300 142 C298.1786 148.8301 293 156 293 156 "/>
<path id="2" d="M293 159 C293 159 308.3719 165.9069 324 169 C355.6461 175.2633 389 178 389 178 "/>
<path id="3" d="M217 197 C217 197 214.0098 201.5569 213 206 C211.652 211.931 211.4684 212.7981 212 219 C212.9197 229.7298 211.5786 233.6877 216 241 C222.211 251.2721 226.2013 253.6715 238 262 C250.6845 270.9538 252.9575 273.6377 267 277 C285.3026 281.3823 290.2288 281.2413 309 279 C320.7739 277.5942 323.1914 275.7088 334 269 C351.019 258.4365 353.0124 257.2566 367 243 C377.936 231.8537 382.2568 215.9266 386 216 C402.936 216.3321 427.2765 232.8566 469 245 C493.5989 252.1594 495.4172 248.0473 520 255 C544.246 261.8575 568 273 568 273 "/>
<path id="4" d="M390 180 C390 180 396.0306 187.8776 396 188 C395.9906 188.0376 388 188 388 188 "/>
<path id="5" d="M383 177 C383 177 398.9924 185.6805 415 190 C429.4619 193.9024 431.1901 190.6468 446 194 C457.0527 196.5025 468.014 201.9955 468 202 C467.9589 202.0133 411.9961 204.9989 412 205 C412.0131 205.0036 577.9476 232.7369 587 235 C587.1984 235.0496 583.9483 244.1572 580 247 C574.3653 251.057 561.9893 252.981 562 253 C562.0652 253.116 588.8895 262.7668 589 263 C589.0023 263.0048 571 272 571 272 "/>
<path id="6" d="M263 205 C263 205 259.1503 205.993 257 208 C252.2921 212.394 250.8302 213.3396 248 219 C244.8959 225.2082 243.9297 233.9956 244 234 C244.8081 234.0505 279.6674 220.9261 280 221 C280.048 221.0107 270.8882 239.8137 271 240 C271.0559 240.0932 288.1543 235.9005 289 236 C289.0142 236.0017 287.8982 241.9537 288 242 C288.6804 242.3093 294.9788 243.0085 300 241 C327.8594 229.8563 358 214 358 214 "/>
<path id="7" d="M207 136 C207 136 218.0158 129.69 229 127 C241.5864 123.9176 256 124 256 124 "/>
<path id="8" d="M224 146 C224 146 230.9297 141.0467 238 139 C249.0988 135.7872 261.8371 134.9131 262 135 C262.0194 135.0103 256.744 145.752 253 147 C245.224 149.592 226 147 226 147 "/>
<path id="9" d="M252 273 C252 273 251.5628 281.5929 249 288 C246.975 293.0624 244.6292 292.7415 242 298 C237.3258 307.3484 238.6743 308.9852 234 318 C232.0428 321.7746 231.3537 322.5778 228 325 C223.0452 328.5785 216.4813 330.8396 216 331 C215.9771 331.0076 216 329 216 329 "/>
<path id="10" d="M236 319 L254 336 "/>
<path id="11" d="M238 324 C238 324 234.582 333.5974 231 343 C230.6064 344.0333 230.0008 345.0017 230 345 C229.9978 344.9955 230 341 230 341 "/>
<path id="12" d="M323 276 C323 276 324.1195 284.622 328 289 C341.6094 304.3542 362 320 362 320 "/>
<path id="13" d="M342 306 C342 306 321.1124 333.8662 321 334 C320.9926 334.0088 321 331 321 331 "/>
<path id="14" d="M340 312 C340 312 349.8015 335.6692 350 336 C350.0185 336.0309 352 332 352 332 "/>
<path id="15" d="M219 202 C219 202 230.4747 203.4217 240 201 C258.6253 196.2647 260.5768 194.9856 278 187 C283.361 184.5429 284.3448 183.3863 288 179 C291.1704 175.1956 293 169 293 169 "/>
<path id="16" d="M134 189 C134 189 150.1292 191.384 164 189 C180.5943 186.1478 198 178 198 178 "/>
</g>
</g>
</svg>
