<?xml version="1.0" encoding="utf-8"?>
<!DOCTYPE svg PUBLIC "-//W3C//DTD SVG 1.1//EN" "http://www.w3.org/Graphics/SVG/1.1/DTD/svg11.dtd">
<svg viewBox="0 0 800 800" preserveAspectRatio="xMinYMin meet" xmlns="http://www.w3.org/2000/svg" version="1.1">
<g fill="none" stroke="black" stroke-linecap="round" stroke-linejoin="round" stroke-width="2.3714">
<g transform="translate(87.52,196.9513) scale(1.2651) translate(-110.5,-73.6667)">
<path id="0" d="M121.5 205.6667 C121.5 205.6667 123.1844 193.1514 121.5 181.6667 C117.8074 156.4896 114.0332 153.8286 110.5 130.6667 C109.9839 127.2833 111.0362 123.5816 112.5 122.6667 C118.0155 119.2195 123.3994 118.0324 134.5 115.6667 C153.5329 111.6105 154.0946 110.6729 173.5 109.6667 C220.9147 107.2081 222.9786 113.1114 269.5 108.6667 C299.6786 105.7834 299.8558 100.7955 330.5 94.6667 C387.2733 83.312 388.104 81.6151 444.5 73.6667 C461.3764 71.2881 474.1399 68.6375 479.5 73.6667 C497.4652 90.5229 505.6487 110.853 525.5 149.6667 C538.6124 175.3043 547.917 202.8245 546.5 204.6667 C544.143 207.7308 510.4824 207.6702 475.5 214.6667 C388.3795 232.0908 388.2202 233.3063 301.5 253.6667 C273.3179 260.2833 273.6302 261.9046 245.5 268.6667 C221.7126 274.3848 221.2009 275.1292 197.5 278.6667 C188.4013 280.0247 187.3406 280.258 178.5 278.6667 C163.3221 275.9346 162.8229 272.0989 147.5 269.6667 C132.3046 267.2547 117.3958 270.3663 115.5 268.6667 C114.3812 267.6636 117.907 256.1205 118.5 243.6667 C119.3963 224.8444 117.1107 220.602 118.5 205.6667 C118.6964 203.5552 122.5 200.6667 122.5 200.6667 "/>
<path id="1" d="M121.5 266.6667 C121.5 266.6667 135.9696 306.5741 152.5 343.6667 C156.0415 351.6135 158.5443 351.0596 162.5 358.6667 C164.7637 363.02 164.1918 367.2131 165.5 368.6667 C166.0562 369.2847 168.73 369.3071 171.5 368.6667 C252.867 349.8535 255.5501 349.8955 338.5 328.6667 C360.7696 322.9673 360.2714 320.4155 382.5 314.6667 C418.0401 305.4753 419.985 309.6275 454.5 298.6667 C492.9391 286.4597 492.7552 283.4668 530.5 267.6667 C535.63 265.5192 536.6954 265.7999 540.5 262.6667 C544.3839 259.4682 546.1794 258.1086 547.5 253.6667 C550.9786 241.9659 550.4682 239.5965 551.5 225.6667 C552.4481 212.8672 551.4832 199.6455 551.5 199.6667 C551.5618 199.7449 571.0418 233.7784 585.5 268.6667 C593.6736 288.3899 592.8851 289.5351 597.5 310.6667 C602.3123 332.7018 605.9207 349.2089 604.5 355.6667 C604.2071 356.998 595.5302 358.8075 586.5 360.6667 C578.712 362.2701 578.4461 362.6005 570.5 362.6667 C459.3709 363.5927 458.2882 361.7967 346.5 362.6667 C330.0234 362.7949 329.5039 361.8425 313.5 364.6667 C253.8031 375.2014 253.5253 378.4818 193.5 389.6667 C173.3091 393.4289 168.3083 394.9828 152.5 394.6667 C148.975 394.5962 147.2028 392.1517 143.5 388.6667 C139.0982 384.5238 137.8847 384.0323 135.5 378.6667 C126.5083 358.4354 126.589 356.6798 119.5 334.6667 C117.1973 327.5162 117.1188 327.0927 116.5 319.6667 C115.6478 309.4406 115.1456 308.7281 116.5 298.6667 C118.5602 283.3627 123.5 267.6667 123.5 267.6667 "/>
<path id="2" d="M157.5 150.6667 C157.5 150.6667 236.664 151.2201 315.5 149.6667 C337.98 149.2237 338.7422 150.7173 360.5 146.6667 C431.639 133.4227 435.0452 132.2082 503.5 114.6667 C512.2408 112.4268 518.0185 109.4619 520.5 105.6667 C522.5972 102.4592 521.8842 95.8645 520.5 88.6667 C519.6889 84.449 518.5473 82.714 515.5 79.6667 C512.0174 76.184 510.1159 74.436 505.5 73.6667 C494.5897 71.8483 491.1409 71.484 479.5 73.6667 C468.8945 75.6552 468.6904 79.7973 457.5 82.6667 C430.4212 89.6099 429.1676 87.0033 401.5 93.6667 C333.8377 109.9623 334.0577 111.5687 266.5 128.6667 C253.1073 132.0562 252.8269 132.7628 239.5 134.6667 C232.324 135.6918 230.9154 132.8536 224.5 134.6667 C209.6701 138.8577 209.1797 142.9861 193.5 147.6667 C176.3777 152.7778 157.5 154.6667 157.5 154.6667 "/>
</g>
</g>
</svg>
