<?xml version="1.0" encoding="utf-8"?>
<!DOCTYPE svg PUBLIC "-//W3C//DTD SVG 1.1//EN" "http://www.w3.org/Graphics/SVG/1.1/DTD/svg11.dtd">
<svg viewBox="0 0 800 800" preserveAspectRatio="xMinYMin meet" xmlns="http://www.w3.org/2000/svg" version="1.1">
<g fill="none" stroke="black" stroke-linecap="round" stroke-linejoin="round" stroke-width="0.96966">
<g transform="translate(87.52,195.8051) scale(3.0939) translate(-205,-145.1333)">
<path id="0" d="M215 209.1333 C215 209.1333 216.3161 206.8107 216 206.1333 C214.0369 201.9267 209.3821 199.6615 208 194.1333 C206.0256 186.2359 205.7703 181.4914 208 174.1333 C209.7872 168.2357 212.4062 166.0279 218 161.1333 C223.4957 156.3246 224.8746 155.1692 232 153.1333 C251.376 147.5973 253.2029 146.4643 274 145.1333 C314.604 142.5347 319.9437 141.016 357 145.1333 C368.7568 146.4396 371.4615 149.9228 382 157.1333 C389.1648 162.0356 392.7645 164.7462 395 171.1333 C398.1755 180.2061 396.9527 185.0664 396 197.1333 C395.5474 202.8667 391.6842 207.5543 392 209.1333 C392.1241 209.7537 396.9958 210.1291 399 212.1333 C401.8059 214.9392 403.3048 216.7884 404 221.1333 C406.9425 239.5238 407 248.1192 407 262.1333 C407 263.1588 405.3034 264.7423 404 265.1333 C401.6606 265.8351 398.0495 265.833 397 265.1333 C396.1005 264.5336 395.0061 259.1321 395 259.1333 C394.9663 259.1401 393.1696 265.8107 392 266.1333 C385.7677 267.8526 378.755 265.5873 366 267.1333 C346.0537 269.5511 345.6585 273.5043 326 274.1333 C284.5051 275.4612 282.1088 275.1 241 271.1333 C226.6502 269.7487 215.5162 263.6022 212 263.1333 C211.9454 263.1261 211.0168 267.1357 211 267.1333 C210.7372 267.0958 205.165 263.9481 205 262.1333 C203.5152 245.8006 204.2972 230.5237 206 212.1333 C206.1486 210.5288 208.2414 208.8368 210 208.1333 C211.8842 207.3797 216 208.1333 216 208.1333 "/>
<path id="1" d="M217 210.1333 L214 263.1333 "/>
<path id="2" d="M392 211.1333 C392 211.1333 389.5399 216.7346 389 222.1333 C388.0923 231.2108 387.2467 233.1184 389 241.1333 C390.3409 247.2631 394.0553 248.0213 396 254.1333 C397.1494 257.7458 396 263.1333 396 263.1333 "/>
<path id="3" d="M217 207.1333 C217 207.1333 220.8897 210.6536 225 212.1333 C232.7341 214.9176 233.6507 215.7357 242 216.1333 C274.5416 217.6829 278.2045 214.8849 309 216.1333 C312.2733 216.266 312.697 218.9029 316 219.1333 C332.4937 220.2841 334.6716 220.6805 352 219.1333 C361.8418 218.2546 362.4994 217.4714 372 214.1333 C380.6509 211.0938 389 206.1333 389 206.1333 "/>
<path id="4" d="M268 218.1333 C268 218.1333 270.6587 235.6966 272 253.1333 C272.6458 261.5288 272.6447 264.0085 272 270.1333 C271.9162 270.9297 270 272.1333 270 272.1333 "/>
<path id="5" d="M332 222.1333 C332 222.1333 336.2895 242.3714 337 260.1333 C337.221 265.6572 334 272.1333 334 272.1333 "/>
<path id="6" d="M217 266.1333 C217 266.1333 215.6391 273.0508 216 274.1333 C216.1098 274.4628 219.7292 275.359 220 275.1333 C220.5986 274.6345 222 269.1333 222 269.1333 "/>
<path id="7" d="M391 266.1333 C391 266.1333 391.5905 269.5428 391 270.1333 C388.3428 272.7906 380.8606 276.8465 380 277.1333 C380 277.1333 379 274.1333 379 274.1333 "/>
<path id="8" d="M381 273.1333 L381 269.1333 "/>
</g>
</g>
</svg>
