<?xml version="1.0" encoding="utf-8"?>
<!DOCTYPE svg PUBLIC "-//W3C//DTD SVG 1.1//EN" "http://www.w3.org/Graphics/SVG/1.1/DTD/svg11.dtd">
<svg viewBox="0 0 800 800" preserveAspectRatio="xMinYMin meet" xmlns="http://www.w3.org/2000/svg" version="1.1">
<g fill="none" stroke="black" stroke-linecap="round" stroke-linejoin="round" stroke-width="1.7521">
<g transform="translate(87.52,187.6848) scale(1.7122) translate(-71,-178)">
<path id="0" d="M78 385 C78 385 161.5167 387.5323 245 388 C339.9686 388.532 409.6262 384.2102 435 387 C435.4568 387.0502 438.0096 403.5192 436 409 C434.8481 412.1416 430.1138 414.076 424 417 C419.1963 419.2974 418.359 419.8559 413 420 C328.3379 422.2759 325.497 421.4007 238 422 C179.5066 422.4006 178.4731 423.2964 121 422 C113.1072 421.822 112.8087 421.0079 105 419 C95.4354 416.5405 94.0851 417.173 86 413 C79.7207 409.7591 78.8663 408.1907 74 403 C71.9819 400.8474 71.1397 399.514 71 397 C70.7307 392.1531 73 385 73 385 "/>
<path id="1" d="M88 385 L88 409 "/>
<path id="2" d="M118 391 L118 414 "/>
<path id="3" d="M162 393 L165 417 "/>
<path id="4" d="M196 387 L204 414 "/>
<path id="5" d="M238 393 L240 425 "/>
<path id="6" d="M289 391 C289 391 288.9343 399.7701 291 407 C292.7095 412.9834 297 419 297 419 "/>
<path id="7" d="M335 390 L337 416 "/>
<path id="8" d="M371 390 L386 426 "/>
<path id="9" d="M423 389 L426 416 "/>
<path id="10" d="M85 382 C85 382 87.6615 355.6574 85 332 C83.3492 317.3265 77.0961 316.6153 76 302 C72.7839 259.119 74.0449 250.3201 76 212 C76.1793 208.4852 77.9554 206.3526 81 204 C87.5223 198.96 98 195 98 195 "/>
<path id="11" d="M76 244 C76 244 87.9029 242 98 242 C100.7537 242 102.1294 242.4695 104 244 C106.6277 246.15 107.4393 247.3583 109 251 C111.6825 257.2592 112.6065 258.1531 113 265 C115.0203 300.1524 108.9625 308.0897 114 338 C115.6886 348.0261 124.352 349.1548 129 360 C132.4801 368.1203 132 380 132 380 "/>
<path id="12" d="M402 383 C402 383 398.9498 320.5152 402 274 C402.3785 268.2285 405.4205 265.5795 410 261 C413.7072 257.2928 416.9588 255.3514 421 255 C425.0869 254.6446 429.9249 256.5399 433 259 C434.9017 260.5214 435.4956 263.133 436 267 C436.9016 273.9125 437.7142 276.2146 436 282 C434.3578 287.5425 428.426 288.7286 428 294 C425.0696 330.2641 428 381 428 381 "/>
<path id="13" d="M95 198 C95 198 94.5468 195.4532 95 195 C97.266 192.734 99.7532 189.6741 104 189 C127.3135 185.2994 131.3666 188.2918 158 185 C175.5286 182.8335 175.6962 179.0179 193 178 C234.0463 175.5855 235.105 176.775 277 178 C320.4642 179.2709 322.6545 177.3938 364 183 C379.3217 185.0775 381.3373 186.6807 395 194 C408.0278 200.9792 415.2203 203.749 420 213 C426.6042 225.7823 426 254 426 254 "/>
<path id="14" d="M111 302 C111 302 118.8562 297.1024 126 297 C251.1257 295.2061 260.6524 298.4721 390 298 C394.9032 297.9821 400 296 400 296 "/>
<path id="15" d="M131 324 C131 324 151.5892 328.2962 172 329 C223.557 330.7778 225.4899 333.0039 276 329 C305.6409 326.6504 306.2371 319.4723 336 316 C365.0856 312.6067 396 315 396 315 "/>
<path id="16" d="M131 357 C131 357 164.6842 365.839 198 368 C256.0892 371.7679 258.587 372.1316 316 369 C339.144 367.7376 341.009 365.9114 363 359 C374.741 355.31 386 347 386 347 "/>
<path id="17" d="M257 361 C257 361 282.6321 356.3365 308 354 C320.28 352.8689 321.3125 356.125 333 354 C358.5001 349.3636 385 340 385 340 "/>
<path id="18" d="M120 254 C120 254 119.4287 245.3328 121 238 C122.2667 232.0885 124.1757 226.4759 126 226 C135.1994 223.6002 147.0467 227.5349 167 226 C178.8672 225.0871 182.787 220.7433 191 221 C193.8202 221.0881 196.1777 223.4178 199 227 C208.4471 238.9906 213.5354 244.3486 217 254 C218.0938 257.047 216.2177 262.0827 213 266 C206.3465 274.0999 202.3464 277.5486 194 282 C190.6655 283.7784 187.6584 280.7458 183 282 C175.8495 283.9251 175.3428 287.1051 168 289 C160.8968 290.8331 157.0729 291.691 152 290 C147.3588 288.4529 144.4896 284.6528 141 280 C139.7093 278.2791 141.2937 276.0483 140 274 C136.1088 267.8389 133.2112 267.6177 129 261 C126.703 257.3904 126 252 126 252 "/>
<path id="19" d="M347 251 C347 251 345.5388 239.3516 347 230 C347.8197 224.7536 348.8996 223.6507 352 219 C354.5236 215.2146 355.9019 212.7745 359 212 C367.9401 209.765 372.3231 210.6233 384 211 C386.8363 211.0915 387.975 211.38 390 213 C394.5295 216.6236 394.2606 219.8404 399 223 C403.4369 225.9579 410.2831 225.3273 411 227 C412.8818 231.3909 414.0147 243.4632 411 251 C408.1863 258.0343 401.9136 258.5834 395 267 C390.7891 272.1263 392.1952 274.584 388 279 C383.6361 283.5936 380.5808 286.0457 376 287 C372.1873 287.7943 368.7521 286.6929 364 284 C355.0045 278.9026 350.0868 276.5389 346 270 C342.8843 265.0149 344 252 344 252 "/>
</g>
</g>
</svg>
