<?xml version="1.0" encoding="utf-8"?>
<!DOCTYPE svg PUBLIC "-//W3C//DTD SVG 1.1//EN" "http://www.w3.org/Graphics/SVG/1.1/DTD/svg11.dtd">
<svg viewBox="0 0 800 800" preserveAspectRatio="xMinYMin meet" xmlns="http://www.w3.org/2000/svg" version="1.1">
<g fill="none" stroke="black" stroke-linecap="round" stroke-linejoin="round" stroke-width="1.8529">
<g transform="translate(87.52,91.5677) scale(1.6191) translate(-144,-43)">
<path id="0" d="M167 115 C167 115 167.9643 135.684 166 155 C165.0444 164.3967 161.7519 164.6758 161 174 C159.3336 194.6635 162.8139 196.011 161 217 C159.3715 235.8437 156.0188 236.074 154 255 C152.0667 273.1249 155.5265 274.3146 153 292 C150.6679 308.3249 147.8018 308.9481 144 325 C143.4589 327.2845 143.8597 329.813 144 330 C144.0351 330.0468 147 329 147 329 "/>
<path id="1" d="M172 114 C172 114 182.4988 113.4165 192 115 C199.9307 116.3218 201.0541 116.415 208 120 C215.7297 123.9895 216.3981 124.8697 223 131 C230.0507 137.5471 231.92 138.0031 236 146 C243.5673 160.8319 246.4473 163.567 248 180 C252.1101 223.4985 245.608 229.5452 248 273 C248.42 280.6304 252.3402 281.2543 254 289 C255.1522 294.3771 253.8784 300.9901 254 301 C272.2534 302.4901 328.9451 299.6657 401 301 C408.3798 301.1367 412.541 300.6179 416 304 C429.5187 317.2183 433.2129 323.8864 446 345 C454.1848 358.5145 454.151 360.8259 459 375 C460.1261 378.2918 459 383 459 383 "/>
<path id="2" d="M152 304 C152 304 146.9039 378.9429 152 383 C160.5395 389.7984 204.7758 383.0456 255 386 C262.903 386.4649 263.1589 389.7415 271 390 C351.718 392.661 437 392 437 392 "/>
<path id="3" d="M165 113 C165 113 166.4464 110.4661 168 110 C192.4989 102.6503 197.6726 104.6152 225 95 C250.9298 85.8766 249.9073 80.3241 276 72 C330.2325 54.6988 388 43 388 43 "/>
<path id="4" d="M388 43 C388 43 391.7764 42.8528 393 44 C397.9718 48.6611 400.8264 50.6431 404 58 C411.0675 74.3838 413.3134 76.8687 415 95 C419.085 138.9143 416 187 416 187 "/>
<path id="5" d="M418 189 C418 189 451.8393 187.6887 471 195 C482.0122 199.202 485.0898 205.8498 494 218 C500.556 226.94 500.2064 228.8901 504 240 C507.04 248.9028 504.966 250.1314 508 259 C511.2888 268.6133 513.442 268.3426 517 278 C520.323 287.0196 518.6032 288.225 522 297 C524.3866 303.1655 526.9664 303.1535 529 309 C530.5987 313.5962 530 320 530 320 "/>
<path id="6" d="M529 316 C529 316 520.5997 320.8555 514 327 C506.4446 334.0343 505.3102 334.3938 500 343 C491.3239 357.0613 485 374 485 374 "/>
<path id="7" d="M418 187 C418 187 399.2646 203.4206 379 217 C351.0721 235.7146 350.5709 235.7603 321 252 C289.7624 269.1551 284.5961 268.4022 257 284 C253.989 285.7019 252 291 252 291 "/>
<path id="8" d="M271 115 C271 115 276.511 119.5921 280 125 C286.2018 134.6128 286.4643 135.2576 291 146 C295.8422 157.4684 296.0745 157.8802 299 170 C302.9992 186.568 305 204 305 204 "/>
<path id="9" d="M327 86 C327 86 332.08 88.4452 335 92 C342.9719 101.705 343.9398 102.5529 350 114 C357.1556 127.5162 357.7065 128.2526 362 143 C369.0299 167.1462 373 193 373 193 "/>
<path id="10" d="M458 376 C458 376 474.6542 367.1215 488 356 C497.914 347.7383 497.032 344.2505 506 336 C508.4046 333.7878 513 333 513 333 "/>
<path id="11" d="M187 390 C187 390 185.644 410.8526 187 412 C188.894 413.6026 201.8906 413.0751 213 412 C215.2605 411.7812 217.75 410.1665 218 409 C219.5481 401.7756 219 384 219 384 "/>
<path id="12" d="M394 396 C394 396 392.7328 421.0431 394 424 C394.2328 424.5431 400.6982 425.2853 406 424 C416.135 421.543 423.6096 419.6986 427 416 C429.1048 413.7039 428 400 428 400 "/>
</g>
</g>
</svg>
