<?xml version="1.0" encoding="utf-8"?>
<!DOCTYPE svg PUBLIC "-//W3C//DTD SVG 1.1//EN" "http://www.w3.org/Graphics/SVG/1.1/DTD/svg11.dtd">
<svg viewBox="0 0 800 800" preserveAspectRatio="xMinYMin meet" xmlns="http://www.w3.org/2000/svg" version="1.1">
<g fill="none" stroke="black" stroke-linecap="round" stroke-linejoin="round" stroke-width="1.8625">
<g transform="translate(87.52,197.0491) scale(1.6107) translate(-92,-164.0833)">
<path id="0" d="M92 277.9167 C92 277.9167 93.8255 275.0039 96 273.9167 C101.98 270.9267 102.9247 270.3579 110 268.9167 C129.4199 264.9608 131.6629 266.5841 150 262.9167 C152.4924 262.4182 152.53 260.4277 155 259.9167 C165.8194 257.6782 167.0479 257.5143 179 256.9167 C196.8167 256.0258 215 256.9167 215 256.9167 "/>
<path id="1" d="M108 264.9167 C108 264.9167 116.4685 265.8842 123 268.9167 C129.656 272.007 129.7021 274.602 136 277.9167 C138.3173 279.1363 139.703 279.5503 142 278.9167 C152.226 276.0957 153.4414 272.2576 165 269.9167 C191.7362 264.5018 221 262.9167 221 262.9167 "/>
<path id="2" d="M102 268.9167 C102 268.9167 99.2062 273.5866 99 277.9167 C97.7822 303.4909 97.9953 317.8511 99 331.9167 C99.0425 332.512 103 333.9167 103 333.9167 "/>
<path id="3" d="M143 282.9167 C143 282.9167 131.5778 310.1832 125 329.9167 C124.5449 331.2819 126 333.9167 126 333.9167 "/>
<path id="4" d="M129 322.9167 C129 322.9167 128.2022 334.9049 130 345.9167 C132.1067 358.8203 137 371.9167 137 371.9167 "/>
<path id="5" d="M99 328.9167 C99 328.9167 98.555 338.7649 100 347.9167 C101.4927 357.3701 102.0511 360.429 105 366.9167 C105.7309 368.5247 108.2887 367.972 110 369.9167 C118.5473 379.6295 118.99 383.5584 127 391.9167 C128.6212 393.6083 132.7662 394.0336 133 393.9167 C133.1169 393.8582 133 388.9167 133 388.9167 "/>
<path id="6" d="M131 360.9167 C131 360.9167 145.454 376.0224 150 385.9167 C151.4935 389.1672 148 397.9167 148 397.9167 "/>
<path id="7" d="M425 273.0833 L434 271.0833 "/>
<path id="8" d="M422 271.0833 C422 271.0833 410.6129 280.12 399 286.0833 C392.9278 289.2015 385 290.0833 385 290.0833 "/>
<path id="9" d="M428 268.0833 C428 268.0833 377.8319 276.6613 357 282.0833 C356.0786 282.3231 354.9498 287.0729 355 287.0833 C356.6232 287.4192 370.6281 287.0585 386 288.0833 C392.9932 288.5495 398.9157 289.6663 400 290.0833 C400.0113 290.0877 399 293.0833 399 293.0833 "/>
<path id="10" d="M367 287.0833 C367 287.0833 354.1445 308.3361 350 328.0833 C346.2803 345.8066 348.2281 350.0095 350 368.0833 C350.509 373.2751 353.5199 373.5328 355 379.0833 C357.3762 387.9942 355.2178 390.015 358 398.0833 C359.7239 403.0826 361.3684 403.7254 365 408.0833 C366.0321 409.3219 367.4635 410.0833 368 410.0833 C368.3577 410.0833 370 408.0833 370 408.0833 "/>
<path id="11" d="M398 298.0833 C398 298.0833 389.3763 313.0414 387 327.0833 C384.228 343.4632 385.6625 345.4287 387 363.0833 C388.1286 377.9813 388.5777 378.7096 392 393.0833 C393.4473 399.162 393.8611 399.8519 397 405.0833 C399.5529 409.3382 404 413.0833 404 413.0833 "/>
<path id="12" d="M380 414.0833 C380 414.0833 398.1239 416.338 405 416.0833 C405.5824 416.0618 407 413.0833 407 413.0833 "/>
<path id="13" d="M434 271.0833 L455 274.0833 "/>
<path id="14" d="M456 276.0833 C456 276.0833 458.4397 276.9627 459 278.0833 C461.2412 282.5658 462.7572 284.3176 463 290.0833 C464.6559 329.4113 466.4356 340.1011 463 373.0833 C462.4188 378.6631 458.7958 380.8395 453 386.0833 C438.4533 399.2446 436.8557 399.9843 421 411.0833 C417.7648 413.348 416.7566 413.815 413 414.0833 C403.8861 414.7343 393 413.0833 393 413.0833 "/>
<path id="15" d="M136 390.0833 L155 393.0833 "/>
<path id="16" d="M152 395.0833 L171 386.0833 "/>
<path id="17" d="M128 338.0833 C128 338.0833 131.2246 344.9859 135 347.0833 C142.341 351.1617 144.8698 351.0858 155 353.0833 C215.4174 364.9966 216.3504 365.463 277 375.0833 C288.1926 376.8587 288.6919 376.5545 300 376.0833 C312.3753 375.5677 312.7217 375.2661 325 373.0833 C335.0449 371.2976 339.1998 370.7198 345 368.0833 C346.1127 367.5776 347 363.0833 347 363.0833 "/>
<path id="18" d="M140 298.0833 L155 299.0833 "/>
<path id="19" d="M174 298.0833 C174 298.0833 171.6554 297.6151 171 298.0833 C169.3458 299.2649 168.1395 300.4788 167 303.0833 C164.9215 307.8341 163.7157 313.7359 164 314.0833 C164.3266 314.4825 176 314.0833 176 314.0833 "/>
<path id="20" d="M187 305.0833 L186 315.0833 "/>
<path id="21" d="M200 306.0833 C200 306.0833 199.4596 312.0026 200 313.0833 C200.2316 313.5465 204 314.0833 204 314.0833 "/>
<path id="22" d="M212 307.0833 C212 307.0833 212.12 310.8513 213 312.0833 C213.748 313.1305 217 314.0833 217 314.0833 "/>
<path id="23" d="M227 308.0833 C227 308.0833 229.4863 316.1911 231 318.0833 C231.367 318.542 235 318.0833 235 318.0833 "/>
<path id="24" d="M245 313.0833 L249 318.0833 "/>
<path id="25" d="M259 317.0833 L263 318.0833 "/>
<path id="26" d="M275 318.0833 L278 319.0833 "/>
<path id="27" d="M284 320.0833 L290 322.0833 "/>
<path id="28" d="M298 323.0833 L301 323.0833 "/>
<path id="29" d="M315 324.0833 L318 324.0833 "/>
<path id="30" d="M303 313.0833 C303 313.0833 301.9881 323.915 303 326.0833 C303.4099 326.9618 310 328.0833 310 328.0833 "/>
<path id="31" d="M320 320.0833 C320 320.0833 319.6712 327.2066 320 328.0833 C320.0462 328.2066 323 328.0833 323 328.0833 "/>
<path id="32" d="M337 320.0833 L340 331.0833 "/>
<path id="33" d="M343 328.0833 L344 328.0833 "/>
<path id="34" d="M171 299.0833 L265 298.0833 "/>
<path id="35" d="M222 259.0833 L235 277.0833 "/>
<path id="36" d="M238 278.0833 C238 278.0833 207.2404 284.3131 177 291.0833 C173.9491 291.7664 173.5313 291.5645 171 293.0833 C163.9686 297.3022 157.0548 303.0335 157 303.0833 C156.9929 303.0898 160 303.0833 160 303.0833 "/>
<path id="37" d="M220 282.0833 C220 282.0833 230.4039 281.5682 240 283.0833 C248.9447 284.4956 258 288.0833 258 288.0833 "/>
<path id="38" d="M249 282.0833 C249 282.0833 257.2562 281.0677 265 282.0833 C287.2872 285.0062 287.5405 287.7438 310 290.0833 C335.0934 292.6972 361 292.0833 361 292.0833 "/>
<path id="39" d="M230 266.0833 L231 242.0833 "/>
<path id="40" d="M228 254.0833 C228 254.0833 225.2182 238.3378 227 224.0833 C230.0641 199.5704 238 174.0833 238 174.0833 "/>
<path id="41" d="M232 201.0833 C232 201.0833 228.1119 204.2618 226 208.0833 C217.9565 222.6383 217.0398 223.507 211 239.0833 C207.7926 247.355 208.5406 248.2247 207 257.0833 C206.588 259.4525 206.7845 261.5445 207 262.0833 C207.0345 262.1695 209 262.0833 209 262.0833 "/>
<path id="42" d="M221 215.0833 C221 215.0833 224.4548 194.119 231 178.0833 C233.5621 171.8061 241 166.0833 241 166.0833 "/>
<path id="43" d="M242 171.0833 C242 171.0833 248.0629 165.2597 253 165.0833 C322.1192 162.6148 334.2658 163.7309 410 165.0833 C415.3321 165.1785 415.6013 167.5435 421 168.0833 C430.0774 168.9911 431.2762 166.6294 440 168.0833 C448.2647 169.4608 457 174.0833 457 174.0833 "/>
<path id="44" d="M457 177.0833 C457 177.0833 449.7897 212.7134 445 248.0833 C443.3423 260.3248 444.4017 269.7355 444 273.0833 C443.9962 273.1153 442 273.0833 442 273.0833 "/>
<path id="45" d="M260 164.0833 C260 164.0833 351.4295 162.7297 434 164.0833 C438.2942 164.1537 438.549 166.4694 443 167.0833 C452.5216 168.3967 454.5267 165.8404 463 168.0833 C469.7393 169.8673 476.5752 173.2796 477 176.0833 C480.8258 201.3335 480.4806 223.1412 478 267.0833 C477.0876 283.2465 473.0555 283.5837 470 300.0833 C468.1063 310.3092 468.3799 319.5635 468 321.0833 C467.9956 321.101 465 320.0833 465 320.0833 "/>
<path id="46" d="M275 198.0833 C275 198.0833 271.0589 202.8477 270 207.0833 C268.8636 211.6289 270 218.0833 270 218.0833 "/>
<path id="47" d="M264 215.0833 L285 218.0833 "/>
<path id="48" d="M343 203.0833 C343 203.0833 340.0535 210.7088 339 218.0833 C338.1205 224.2401 338.2447 227.3066 339 231.0833 C339.1511 231.8387 342 233.0833 342 233.0833 "/>
<path id="49" d="M338 221.0833 L351 219.0833 "/>
<path id="50" d="M404 198.0833 C404 198.0833 403.844 217.4135 405 226.0833 C405.0986 226.8229 408 228.0833 408 228.0833 "/>
<path id="51" d="M398 222.0833 L413 221.0833 "/>
<path id="52" d="M226 235.0833 L218 249.0833 "/>
<path id="53" d="M475 257.0833 C475 257.0833 476.0099 300.9155 474 335.0833 C473.8137 338.2504 470.446 338.8501 470 342.0833 C468.7008 351.5025 471.2044 356.2545 470 364.0833 C469.7473 365.7257 466 368.0833 466 368.0833 "/>
<path id="54" d="M372 286.0833 C372 286.0833 364.3624 293.5219 360 301.0833 C357.4668 305.4743 357 312.0833 357 312.0833 "/>
<path id="55" d="M372 283.0833 C372 283.0833 391.564 270.7276 410 267.0833 C431.5867 262.8162 436.1399 265.2884 458 266.0833 C461.2401 266.2011 462.7396 267.3252 465 269.0833 C466.2378 270.0461 467.0977 271.6177 467 273.0833 C466.717 277.3287 464 279.2641 464 284.0833 C464 289.3407 467 296.0833 467 296.0833 "/>
<path id="56" d="M133 358.0833 C133 358.0833 134.8723 353.3396 136 353.0833 C141.18 351.9061 155 353.0833 155 353.0833 "/>
<path id="57" d="M136 313.0833 C136 313.0833 146.9264 311.8841 157 313.0833 C167.3592 314.3166 167.4968 316.5516 178 318.0833 C191.192 320.0072 191.5189 319.662 205 320.0833 C223.4315 320.6593 223.7879 318.927 242 320.0833 C254.9227 320.9038 255.1307 323.7191 268 324.0833 C307.4121 325.1988 338.2788 322.5973 348 323.0833 C348.0304 323.0848 348 328.0833 348 328.0833 "/>
<path id="58" d="M135 358.0833 C135 358.0833 142.7681 357.0502 150 358.0833 C177.2058 361.9699 177.7221 365.3825 205 368.0833 C227.4108 370.3022 228.689 366.4428 251 368.0833 C261.8488 368.881 262.1783 372.5529 273 373.0833 C311.918 374.9911 353 373.0833 353 373.0833 "/>
<path id="59" d="M245 196.0833 C245 196.0833 243.6204 200.0466 244 203.0833 C244.5176 207.2243 244.9252 209.0865 247 212.0833 C248.5272 214.2894 253 216.0833 253 216.0833 "/>
<path id="60" d="M256 203.0833 C256 203.0833 255.5565 209.0875 256 211.0833 C256.0801 211.4437 258 212.0833 258 212.0833 "/>
<path id="61" d="M283 205.0833 L285 214.0833 "/>
<path id="62" d="M295 205.0833 L300 217.0833 "/>
<path id="63" d="M317 209.0833 L322 217.0833 "/>
<path id="64" d="M326 210.0833 C326 210.0833 325.5318 212.4279 326 213.0833 C327.1816 214.7376 331 217.0833 331 217.0833 "/>
<path id="65" d="M345 211.0833 C345 211.0833 347.835 214.8805 350 216.0833 C351.1134 216.7019 354 216.0833 354 216.0833 "/>
<path id="66" d="M364 208.0833 C364 208.0833 367.5814 215.1045 370 217.0833 C370.9049 217.8237 375 217.0833 375 217.0833 "/>
<path id="67" d="M386 208.0833 C386 208.0833 385.4172 210.9176 386 212.0833 C386.8743 213.8319 390 216.0833 390 216.0833 "/>
<path id="68" d="M397 211.0833 C397 211.0833 398.1429 214.6242 400 216.0833 C404.2121 219.3928 411 222.0833 411 222.0833 "/>
<path id="69" d="M420 222.0833 L422 221.0833 "/>
<path id="70" d="M427 223.0833 L429 225.0833 "/>
<path id="71" d="M431 223.0833 L432 223.0833 "/>
<path id="72" d="M471 177.0833 C471 177.0833 457.1435 182.9219 457 183.0833 C456.9818 183.1038 463 186.0833 463 186.0833 "/>
<path id="73" d="M477 186.0833 C477 186.0833 460.5993 191.9409 451 197.0833 C449.7531 197.7513 448.9566 201.0507 449 201.0833 C449.4996 201.458 459 203.0833 459 203.0833 "/>
<path id="74" d="M475 203.0833 C475 203.0833 463.7331 208.848 460 212.0833 C459.4324 212.5753 459.7161 215.9059 460 216.0833 C460.9795 216.6955 468 217.0833 468 217.0833 "/>
<path id="75" d="M480 217.0833 L469 233.0833 "/>
<path id="76" d="M480 232.0833 C480 232.0833 472.3008 237.5003 465 243.0833 C463.8994 243.925 463 244.9664 463 245.0833 C463 245.1418 465 246.0833 465 246.0833 "/>
<path id="77" d="M480 247.0833 C480 247.0833 460.9476 254.9906 455 258.0833 C454.7986 258.188 455 260.0833 455 260.0833 "/>
<path id="78" d="M473 261.0833 L461 268.0833 "/>
<path id="79" d="M472 271.0833 L465 278.0833 "/>
<path id="80" d="M445 278.0833 C445 278.0833 395.0488 314.0454 395 314.0833 C394.9964 314.0861 400 313.0833 400 313.0833 "/>
<path id="81" d="M454 289.0833 C454 289.0833 434.3217 303.6694 417 313.0833 C413.6967 314.8786 412.0214 312.7428 408 314.0833 C397.6591 317.5303 396.6966 318.0555 387 323.0833 C383.7538 324.7665 380.9951 328.0588 381 328.0833 C381.0018 328.0924 388 328.0833 388 328.0833 "/>
<path id="82" d="M452 303.0833 C452 303.0833 424.8741 321.3988 401 339.0833 C399.167 340.4411 398 343.0833 398 343.0833 C398.0429 343.1155 405 342.0833 405 342.0833 "/>
<path id="83" d="M460 318.0833 C460 318.0833 432.7055 333.0174 407 349.0833 C401.0953 352.7738 395.9997 358.082 396 358.0833 C396.0001 358.0837 408 353.0833 408 353.0833 "/>
<path id="84" d="M470 325.0833 C470 325.0833 466.6911 334.3678 461 339.0833 C434.0758 361.392 400.0028 383.0811 400 383.0833 C399.9996 383.0837 411 378.0833 411 378.0833 "/>
<path id="85" d="M474 355.0833 C474 355.0833 447.4492 364.2458 425 375.0833 C420.0773 377.4598 416 383.0833 416 383.0833 C416 383.0833 420 379.0833 420 379.0833 "/>
<path id="86" d="M446 371.0833 C446 371.0833 446.4399 375.6466 445 378.0833 C440.8097 385.1745 439.3866 387.0008 433 393.0833 C429.6563 396.2678 427.7476 397.5212 424 398.0833 C419.8872 398.7002 413 396.0833 413 396.0833 "/>
<path id="87" d="M169 278.0833 C169 278.0833 164.3692 277.0305 161 278.0833 C149.5763 281.6532 148.6563 282.9027 137 288.0833 C135.4064 288.7916 134 290.0763 134 290.0833 C134 290.0833 135.6913 290.4402 137 290.0833 C140.8467 289.0342 145 287.0833 145 287.0833 "/>
<path id="88" d="M175 275.0833 C175 275.0833 172.3332 280.8027 169 283.0833 C164.2295 286.3474 155.9989 288.0831 156 288.0833 C156.0021 288.0838 179 285.0833 179 285.0833 "/>
<path id="89" d="M222 267.0833 C222 267.0833 179.7603 286.7937 179 287.0833 C178.9621 287.0978 179.2144 283.8689 180 283.0833 C181.0998 281.9835 185 281.0833 185 281.0833 "/>
<path id="90" d="M213 271.0833 C213 271.0833 190.0128 280.0765 190 280.0833 C189.9972 280.0848 196 280.0833 196 280.0833 "/>
<path id="91" d="M225 272.0833 C225 272.0833 216.412 279.3967 216 280.0833 C215.9939 280.0936 219 282.0833 219 282.0833 "/>
<path id="92" d="M156 358.0833 C156 358.0833 130.0021 366.0792 130 366.0833 C129.9989 366.0855 152 366.0833 152 366.0833 "/>
<path id="93" d="M160 364.0833 C160 364.0833 141.024 374.0593 141 374.0833 C140.9926 374.0908 150 374.0833 150 374.0833 "/>
<path id="94" d="M182 369.0833 C182 369.0833 156.0216 384.0644 156 384.0833 C155.994 384.0886 166 383.0833 166 383.0833 "/>
<path id="95" d="M196 376.0833 L167 388.0833 "/>
<path id="96" d="M173 387.0833 L171 388.0833 "/>
<path id="97" d="M198 317.0833 C198 317.0833 163.0493 339.0341 163 339.0833 C162.987 339.0963 177 338.0833 177 338.0833 "/>
<path id="98" d="M221 328.0833 L205 341.0833 "/>
<path id="99" d="M245 328.0833 C245 328.0833 236.2384 332.8847 230 338.0833 C228.0839 339.6801 226.9974 343.0839 227 343.0833 C227.006 343.0821 235 337.0833 235 337.0833 "/>
<path id="100" d="M265 323.0833 C265 323.0833 250.0199 335.0614 250 335.0833 C249.9957 335.0881 255 334.0833 255 334.0833 "/>
<path id="101" d="M272 328.0833 L264 335.0833 "/>
<path id="102" d="M134 313.0833 C134 313.0833 102.0108 336.0735 102 336.0833 C101.9974 336.0857 112 333.0833 112 333.0833 "/>
<path id="103" d="M139 328.0833 L119 343.0833 "/>
<path id="104" d="M133 343.0833 C133 343.0833 130.423 344.2373 130 345.0833 C129.5166 346.0502 130 349.0833 130 349.0833 "/>
</g>
</g>
</svg>
