<?xml version="1.0" encoding="utf-8"?>
<!DOCTYPE svg PUBLIC "-//W3C//DTD SVG 1.1//EN" "http://www.w3.org/Graphics/SVG/1.1/DTD/svg11.dtd">
<svg viewBox="0 0 800 800" preserveAspectRatio="xMinYMin meet" xmlns="http://www.w3.org/2000/svg" version="1.1">
<g fill="none" stroke="black" stroke-linecap="round" stroke-linejoin="round" stroke-width="1.8721">
<g transform="translate(87.52,218.1206) scale(1.6025) translate(-45,-105.4167)">
<path id="0" d="M77 179.4167 C77 179.4167 69.1731 177.0256 65 178.4167 C58.4423 180.6026 55.1847 182.9728 50 188.4167 C46.635 191.9499 45.6589 194.3099 45 199.4167 C43.8756 208.1308 43.1989 212.6139 46 219.4167 C48.6558 225.8665 53.2743 231.6274 59 233.4167 C70.6368 237.0532 81.259 232.2414 94 234.4167 C96.5447 234.8511 97.9546 237.2349 100 240.4167 C102.0603 243.6215 102.8576 244.6199 103 248.4167 C104.2636 282.1136 101.0285 287.6899 103 320.4167 C103.3094 325.5535 106.5286 331.2997 108 331.4167 C144.5897 334.3245 181.2695 333.7761 254 332.4167 C287.9254 331.7826 288.0478 328.9324 322 327.4167 C343.8972 326.4391 344.2818 328.1787 366 327.4167 C372.4514 327.1903 374.0288 327.1712 379 325.4167 C380.9629 324.7239 381.7425 323.5723 383 321.4167 C384.9358 318.0981 385.767 317.2606 386 313.4167 C387.6532 286.1391 385.3516 283.0279 387 255.4167 C387.2606 251.0514 387.8273 250.1103 390 246.4167 C392.4458 242.2588 393.9698 239.8426 397 238.4167 C399.8149 237.092 402.6669 239.4999 407 238.4167 C413.7163 236.7376 416.6724 236.5897 421 232.4167 C428.4913 225.193 431.5278 221.0893 435 211.4167 C437.4015 204.7268 435.9956 201.0499 435 193.4167 C434.7018 191.1304 433.907 190.0853 432 188.4167 C426.6023 183.6937 425.4687 181.7689 419 179.4167 C410.6161 176.368 399 176.4167 399 176.4167 "/>
<path id="1" d="M72 179.4167 C72 179.4167 88.4868 178.412 97 181.4167 C101.1495 182.8812 101.1072 187.5025 106 191.4167 C110.5474 195.0546 116.0735 194.591 117 197.4167 C122.5888 214.4624 123.4395 225.0196 126 252.4167 C128.3886 277.9751 123.5602 299.7421 127 304.4167 C128.8891 306.984 146.0321 305.673 165 305.4167 C256.9041 304.1747 329.457 310.3872 349 301.4167 C352.7565 299.6924 347.5654 260.5333 348 221.4167 C348.0545 216.5155 347.9968 215.6587 350 211.4167 C356.0553 198.5936 356.7012 195.867 365 185.4167 C368.8371 180.5847 371.2774 179.1334 377 177.4167 C384.2724 175.2349 395 176.4167 395 176.4167 "/>
<path id="2" d="M346 247.4167 C346 247.4167 262.3402 246.2698 179 247.4167 C153.5282 247.7672 128 250.4167 128 250.4167 "/>
<path id="3" d="M121 223.4167 C121 223.4167 223.4333 217.8243 238 220.4167 C238.6593 220.534 239 244.4167 239 244.4167 "/>
<path id="4" d="M238 221.4167 L345 219.4167 "/>
<path id="5" d="M85 177.4167 C85 177.4167 85.3365 167.7876 88 159.4167 C92.1453 146.3886 92.4176 145.0855 99 133.4167 C102.9253 126.4581 104.2144 125.8809 110 120.4167 C112.6788 117.8867 113.6311 116.9293 117 116.4167 C134.4703 113.7581 136.5312 113.9429 156 113.4167 C191.8678 112.4473 205.2512 109.8102 228 113.4167 C231.8107 114.0208 236.4546 120.5443 238 126.4167 C240.4715 135.8085 237.0188 139.1517 238 151.4167 C238.9938 163.8387 241.2802 164.0004 242 176.4167 C243.2552 198.0685 242 220.4167 242 220.4167 "/>
<path id="6" d="M233 117.4167 C233 117.4167 240.0723 106.9094 245 106.4167 C285.6629 102.3504 318.3442 103.0058 353 105.4167 C355.4487 105.587 357.9594 109.7789 360 114.4167 C363.0001 121.2352 363.3293 122.4805 364 130.4167 C366.2646 157.2149 366 185.4167 366 185.4167 "/>
</g>
</g>
</svg>
