<?xml version="1.0" encoding="utf-8"?>
<!DOCTYPE svg PUBLIC "-//W3C//DTD SVG 1.1//EN" "http://www.w3.org/Graphics/SVG/1.1/DTD/svg11.dtd">
<svg viewBox="0 0 800 800" preserveAspectRatio="xMinYMin meet" xmlns="http://www.w3.org/2000/svg" version="1.1">
<g fill="none" stroke="black" stroke-linecap="round" stroke-linejoin="round" stroke-width="2.2369">
<g transform="translate(87.52,304.7808) scale(1.3411) translate(-65,-191)">
<path id="0" d="M89 281 C89 281 111.3197 270.1773 134 263 C150.2018 257.8728 155.7874 259.3924 168 256 C168.9627 255.7326 168.8633 253.521 170 253 C178.6444 249.038 187.2188 247.1733 192 245 C192.1695 244.9229 191.9991 242.9984 192 243 C192.0072 243.0133 195.9171 249.3727 198 256 C201.2982 266.4942 203 278 203 278 "/>
<path id="1" d="M90 283 C90 283 89.3553 293.8752 90 300 C90.0838 300.7964 91.2162 301.952 92 302 C109.3784 303.064 133.8637 304.53 139 303 C139.4914 302.8536 138.0984 294.9125 139 288 C139.5044 284.133 140.246 283.8588 142 280 C145.2185 272.9192 145.0539 271.4638 149 266 C150.7257 263.6106 152.2046 262.482 155 262 C164.6831 260.3305 169.0245 259.8033 178 261 C181.0093 261.4012 181.4449 264.4446 185 266 C188.8211 267.6717 191.634 266.0283 194 268 C198.3993 271.6661 201.1879 274.74 203 281 C205.9703 291.2609 205 303.3535 205 306 C205 306 203.0772 305.8456 203 306 C202.3052 307.3895 202.8257 312.2704 201 314 C195.9544 318.7801 192.4549 321.1817 184 324 C174.4362 327.1879 169.1046 328.9538 162 327 C154.6689 324.9839 152.3451 320.1529 144 313 C142.2118 311.4672 141.4164 310.8043 141 309 C140.2014 305.5393 141.4652 300.2463 141 300 C139.3402 299.1213 124 300 124 300 "/>
<path id="2" d="M93 302 C93 302 93.9954 307.1515 93 309 C91.6109 311.5798 85.9913 314.9913 86 315 C86.1658 315.1658 99.2947 317.1546 102 318 C102.0998 318.0312 101.9919 319.9997 102 320 C109.7419 320.2497 147.7845 320.5148 164 320 C164.2781 319.9912 165 318 165 318 "/>
<path id="3" d="M187 291 C187 291 183.3203 283.9023 181 283 C178.043 281.8501 173.2696 282.4931 169 284 C166.6619 284.8252 164.7737 286.6788 164 289 C162.4525 293.6425 161.6484 299.2967 163 302 C164.3516 304.7033 168.9089 307.2181 174 309 C177.4067 310.1923 179.9144 309.7714 183 309 C184.2857 308.6786 185.291 307.5597 186 306 C187.4475 302.8156 187.3052 299.3895 188 298 C188.0772 297.8456 189.9853 298.0588 190 298 C190.2353 297.0588 190.2353 290.9412 190 290 C189.9853 289.9412 188 290 188 290 "/>
<path id="4" d="M196 246 C196 246 195.9613 244.0053 196 244 C200.1023 243.4342 217.0515 239.7581 225 242 C228.8202 243.0775 230.9194 248.2961 235 255 C237.6585 259.3675 237.5978 264.6813 239 265 C247.9417 267.0322 259.2125 265.9423 279 265 C290.4485 264.4548 293.0503 264.3203 302 262 C303.8959 261.5085 305.7104 259.7379 306 258 C308.0068 245.9592 306.5022 236.1853 308 226 C308.1132 225.2301 309.7077 224.0408 311 224 C349.8257 222.7739 403 223 403 223 "/>
<path id="5" d="M432 252 C432 252 431.347 246.7319 430 245 C429.0728 243.8079 427.3123 243.0856 425 243 C414.9915 242.6293 412.3259 241.5458 403 244 C395.3056 246.0248 393.5559 247.5744 387 253 C379.8945 258.8804 378.6548 260.3333 374 268 C370.8629 273.1669 370.9784 274.6405 370 281 C369.0658 287.072 368.4791 288.6768 370 294 C372.0223 301.0781 372.9948 303.5944 378 309 C384.1965 315.6923 386.184 316.4729 395 321 C403.9806 325.6117 405.6825 326.8055 415 328 C423.3571 329.0714 426.8459 329.0937 434 326 C442.6628 322.2539 445.6951 319.7059 452 312 C457.7861 304.9281 459.1624 302.1879 461 293 C463.7564 279.2182 463.0241 274.6309 462 262 C461.7905 259.4164 460.4586 257.8999 458 256 C450.4559 250.1704 448.391 247.2513 440 245 C430.7884 242.5286 417 245 417 245 "/>
<path id="6" d="M424 275 C424 275 415.8869 273.6681 414 275 C411.0809 277.0605 408.5134 281.3786 407 287 C405.474 292.6681 405.2981 298.2508 407 301 C408.8292 303.9549 413.888 306.0553 420 308 C423.6125 309.1494 425.1178 308.7764 429 308 C431.8469 307.4306 434.6236 306.2964 435 305 C437.2915 297.107 439.1515 282.2641 438 277 C437.7394 275.8088 432.8263 274.0161 428 273 C423.9937 272.1566 419 273 419 273 "/>
<path id="7" d="M396 222 C396 222 413.3146 223.0416 426 218 C449.5844 208.6267 451.6493 196.5345 474 191 C497.1954 185.2564 523.6364 191.6124 531 192 C531.0136 192.0007 531.1158 193.9614 531 194 C526.4841 195.5053 516.0396 195.0282 507 200 C498.7882 204.5165 496.8198 207.8523 491 216 C487.8476 220.4133 487.2821 222.2639 487 228 C485.8678 251.0215 489.3628 258.262 488 277 C487.8228 279.4371 485.6643 281.5977 483 283 C477.7402 285.7683 469 287 469 287 "/>
<path id="8" d="M311 228 C311 228 321.5151 206.3879 327 202 C328.8482 200.5215 337.9901 201.4717 341 204 C346.1751 208.3471 352 223 352 223 "/>
<path id="9" d="M316 224 C316 224 316.5906 215.3937 316 215 C314.4579 213.9719 303.0781 214.4156 301 214 C300.9453 213.9891 301.0111 211.9992 301 212 C299.8954 212.0789 290.6428 212.0858 287 215 C281.5358 219.3713 279.5074 223.6361 276 232 C273.5919 237.7423 274.6268 243.8061 274 246 C273.9754 246.086 272.0008 245.987 272 246 C271.89 247.8698 273 263 273 263 "/>
<path id="10" d="M199 312 C199 312 204.5783 310.0593 210 310 C294.6083 309.0753 382 310 382 310 "/>
<path id="11" d="M275 250 C275 250 282.9014 250.6995 288 249 C291.824 247.7253 294.5428 245.5502 296 243 C297.1028 241.0702 296.3973 235.1703 296 235 C293.5167 233.9357 275 234 275 234 "/>
<path id="12" d="M234 249 C234 249 242.9584 238.9688 243 239 C243.8259 239.6194 254 264 254 264 "/>
<path id="13" d="M260 276 C260 276 294.0678 275.5927 297 276 C297.0242 276.0034 297.0214 280.1245 296 281 C292.3285 284.147 288.4531 283.8452 283 288 C278.5808 291.367 275 297 275 297 "/>
<path id="14" d="M273 284 L305 284 "/>
<path id="15" d="M65 333 C65 333 67.6179 331.1211 70 331 C95.2371 329.7168 97.0028 330.133 124 330 C198.4854 329.6331 233.9982 330.52 273 330 C273.2687 329.9964 273.7339 328.0022 274 328 C337.614 327.4786 517 328 517 328 "/>
</g>
</g>
</svg>
