<?xml version="1.0" encoding="utf-8"?>
<!DOCTYPE svg PUBLIC "-//W3C//DTD SVG 1.1//EN" "http://www.w3.org/Graphics/SVG/1.1/DTD/svg11.dtd">
<svg viewBox="0 0 800 800" preserveAspectRatio="xMinYMin meet" xmlns="http://www.w3.org/2000/svg" version="1.1">
<g fill="none" stroke="black" stroke-linecap="round" stroke-linejoin="round" stroke-width="1.7377">
<g transform="translate(87.52,229.9487) scale(1.7264) translate(-104,-135.1333)">
<path id="0" d="M170 231.1333 C170 231.1333 163.849 227.9998 158 227.1333 C151.0329 226.1012 149.4863 225.5609 143 227.1333 C134.3778 229.2236 131.5279 230.6825 125 235.1333 C122.5584 236.7981 122.2546 238.5488 121 242.1333 C118.9015 248.129 118.2191 248.9995 118 255.1333 C117.7505 262.1195 117.6006 264.0259 120 270.1333 C122.5134 276.531 124.165 279.6522 129 283.1333 C134.1615 286.8496 137.3568 287.1471 145 288.1333 C151.8285 289.0144 154.3656 289.1617 160 287.1333 C164.7247 285.4324 165.9751 283.4457 170 279.1333 C172.4924 276.463 173.4388 275.5006 174 272.1333 C176.1472 259.2501 176.3587 256.0456 176 243.1333 C175.9122 239.9734 174.9847 238.7796 173 236.1333 C170.9617 233.4155 167 231.1333 167 231.1333 "/>
<path id="1" d="M132 232.1333 C132 232.1333 147.3404 222.7976 161 218.1333 C165.8524 216.4764 169.5591 216.3441 173 218.1333 C178.666 221.0797 181.5004 224.2655 186 231.1333 C190.1679 237.4949 190.4222 239.2442 192 247.1333 C193.7613 255.9398 195.4217 262.0972 193 266.1333 C189.1569 272.5385 171 282.1333 171 282.1333 "/>
<path id="2" d="M151 247.1333 C151 247.1333 142.3827 249.0593 141 251.1333 C139.0124 254.1148 138.5161 260.7782 139 265.1333 C139.1561 266.5382 141.4461 268.842 143 269.1333 C146.8643 269.8579 154.4412 269.1313 155 268.1333 C156.8184 264.8862 157.2528 250.7064 157 244.1333 C156.9776 243.5521 154 242.1333 154 242.1333 "/>
<path id="3" d="M198 254.1333 C198 254.1333 203.2558 255.1208 205 257.1333 C208.3088 260.9512 207.4437 266.2237 211 269.1333 C215.7008 272.9794 218.8815 273.4082 227 275.1333 C258.1757 281.7582 259.3262 281.6665 291 286.1333 C297.7647 287.0873 298.4658 286.9856 305 286.1333 C309.3832 285.5616 314 283.1333 314 283.1333 "/>
<path id="4" d="M347 273.1333 C347 273.1333 336.5501 270.8737 330 272.1333 C326.043 272.8943 323.3172 274.7348 321 278.1333 C317.1641 283.7594 317.0107 286.4256 315 294.1333 C314.1987 297.205 314.3028 297.9958 315 301.1333 C316.1842 306.4621 316.5852 307.9074 319 312.1333 C319.9607 313.8146 320.8855 314.3502 323 315.1333 C333.5881 319.0548 334.7962 319.6825 346 322.1333 C350.1105 323.0325 351.9144 322.9047 355 322.1333 C356.2857 321.8119 357.7545 320.4834 358 319.1333 C360.1147 307.5023 361.6314 302.0777 361 289.1333 C360.7622 284.258 358.6722 281.9931 356 278.1333 C355.1188 276.8604 352 276.1333 352 276.1333 "/>
<path id="5" d="M337 289.1333 C337 289.1333 334.2719 290.3176 334 291.1333 C333.3655 293.0368 333.2803 295.4946 334 298.1333 C334.4953 299.9496 335.5429 301.4048 337 302.1333 C339.1857 303.2262 342.3151 303.6388 344 303.1333 C345.0562 302.8165 346.5836 300.9376 347 299.1333 C347.7986 295.6726 347.8262 291.2693 347 290.1333 C346.2823 289.1465 339 288.1333 339 288.1333 "/>
<path id="6" d="M327 272.1333 C327 272.1333 335.8843 265.9368 344 264.1333 C352.2118 262.3085 355.6671 262.5038 363 264.1333 C366.6021 264.9338 368.4667 266.9092 371 270.1333 C373.1356 272.8514 373.6014 274.2798 374 278.1333 C375.0074 287.8712 375.2157 289.4079 374 299.1333 C373.3343 304.4591 372.8281 306.4973 370 310.1333 C367.0383 313.9412 360 317.1333 360 317.1333 "/>
<path id="7" d="M378 292.1333 C378 292.1333 390.4751 300.2795 403 304.1333 C415.3235 307.9252 421.6593 309.0866 430 308.1333 C432.8012 307.8132 435.0789 304.5149 438 300.1333 C442.6737 293.1228 443.5831 291.6861 446 284.1333 C447.172 280.4709 447.3623 277.858 446 275.1333 C443.5781 270.2895 441.4458 267.4711 436 264.1333 C427.5743 258.9692 423.9577 261.768 415 256.1333 C394.182 243.0382 394.4792 238.5379 374 225.1333 C368.2287 221.3557 367.0464 221.6992 360 220.1333 C349.4304 217.7845 347.4552 219.3153 338 217.1333 C336.0449 216.6821 335.8946 214.5791 334 214.1333 C328.6715 212.8796 326.7768 214.9214 321 213.1333 C306.8009 208.7384 306.5944 204.6434 292 201.1333 C268.3442 195.444 262.3894 200.524 242 194.1333 C233.6449 191.5146 233.2201 184.3759 225 180.1333 C219.8994 177.5008 211 178.1333 211 178.1333 "/>
<path id="8" d="M378 223.1333 C378 223.1333 386.5938 221.5232 393 222.1333 C395.7016 222.3906 397.387 223.227 399 225.1333 C401.842 228.492 402.8125 230.3834 404 235.1333 C405.0555 239.3555 404 245.1333 404 245.1333 "/>
<path id="9" d="M411 306.1333 C411 306.1333 383.4643 324.2711 383 325.1333 C382.9927 325.147 390.3896 330.03 397 332.1333 C400.2589 333.1703 403.3725 333.4896 405 332.1333 C413.7138 324.8718 427 307.1333 427 307.1333 "/>
<path id="10" d="M438 263.1333 C438 263.1333 441.9124 261.5893 444 259.1333 C449.8154 252.2917 452.0267 244.7552 455 243.1333 C456.3291 242.4084 464.0761 245.5592 466 247.1333 C466.5514 247.5845 466.8907 250.5004 466 252.1333 C459.2633 264.4839 448 280.1333 448 280.1333 "/>
<path id="11" d="M253 197.1333 C253 197.1333 248.6028 196.9676 247 198.1333 C244.5958 199.8819 242.4009 202.3267 242 205.1333 C241.2872 210.1229 242.3805 212.6555 244 219.1333 C244.7539 222.1489 245.2615 224.1269 247 225.1333 C252.074 228.0709 254.9802 228.9363 263 230.1333 C287.7813 233.832 301.8156 236.992 314 235.1333 C316.4582 234.7583 319.9028 227.6872 322 221.1333 C323.3931 216.7799 322 210.1333 322 210.1333 "/>
<path id="12" d="M214 179.1333 C214 179.1333 201.9551 176.1513 197 178.1333 C191.5672 180.3064 189.7376 184.1662 184 191.1333 C175.9275 200.9357 169 212.1333 169 212.1333 "/>
<path id="13" d="M170 211.1333 C170 211.1333 171.6711 193.8363 170 180.1333 C169.4281 175.4435 165 170.1333 165 170.1333 "/>
<path id="14" d="M202 180.1333 L185 162.1333 "/>
<path id="15" d="M224 139.1333 C224 139.1333 217.8616 144.6353 211 148.1333 C192.7943 157.4147 190.528 155.2931 173 165.1333 C162.8907 170.8087 163.7484 174.0406 154 180.1333 C148.4602 183.5957 146.1028 181.9105 141 185.1333 C137.7089 187.2119 136.7271 192.0867 135 192.1333 C126.3948 192.3659 104.0707 186.2218 104 186.1333 C103.9858 186.1155 114.3012 182.5914 123 177.1333 C139.3872 166.8512 138.7592 164.1542 155 154.1333 C161.5756 150.076 163.6558 152.1513 170 148.1333 C177.8403 143.1678 178.287 137.5575 185 135.1333 C192.158 132.5485 196.0938 133.8299 206 135.1333 C214.3296 136.2293 223 140.1333 223 140.1333 "/>
<path id="16" d="M399 255.1333 C399 255.1333 393.9403 260.0488 394 260.1333 C394.9739 261.513 408.2489 271.383 411 272.1333 C411.4565 272.2578 416.0819 266.5427 416 266.1333 C415.9116 265.6912 411.6387 264.5521 409 262.1333 C406.1758 259.5445 405.9693 256.8564 404 255.1333 C403.469 254.6687 401 255.1333 401 255.1333 "/>
</g>
</g>
</svg>
