<?xml version="1.0" encoding="utf-8"?>
<!DOCTYPE svg PUBLIC "-//W3C//DTD SVG 1.1//EN" "http://www.w3.org/Graphics/SVG/1.1/DTD/svg11.dtd">
<svg viewBox="0 0 800 800" preserveAspectRatio="xMinYMin meet" xmlns="http://www.w3.org/2000/svg" version="1.1">
<g fill="none" stroke="black" stroke-linecap="round" stroke-linejoin="round" stroke-width="2.6642">
<g transform="translate(87.52,226.5877) scale(1.1261) translate(-81,-69.1333)">
<path id="0" d="M192 187.1333 C192 187.1333 183.221 185.0597 177 187.1333 C151.425 195.6583 148.3716 200.8707 123 210.1333 C119.3405 211.4694 117.8118 209.0937 114 210.1333 C107.801 211.824 107.4745 214.4625 101 216.1333 C92.7597 218.2599 83 218.1333 83 218.1333 "/>
<path id="1" d="M83 220.1333 C83 220.1333 95.4991 218.709 103 222.1333 C115.4366 227.8109 117.9209 232.0327 129 241.1333 C130.4075 242.2895 131 245.1333 131 245.1333 "/>
<path id="2" d="M131 245.1333 C131 245.1333 140.4044 245.0538 149 247.1333 C170.924 252.4375 171.3734 257.5675 193 260.1333 C228.1966 264.3092 267 261.1333 267 261.1333 "/>
<path id="3" d="M267 261.1333 C267 261.1333 287.6846 263.3371 305 261.1333 C313.1523 260.0958 314.1923 258.4709 322 254.1333 C331.8011 248.6883 331.5074 245.7358 341 241.1333 C346.7979 238.3222 355 238.1333 355 238.1333 "/>
<path id="4" d="M355 238.1333 C355 238.1333 363.5029 233.4984 369 227.1333 C381.7905 212.3233 382.4947 210.4749 393 194.1333 C395.3707 190.4456 396 185.1333 396 185.1333 "/>
<path id="5" d="M192 187.1333 C192 187.1333 205.8933 180.4367 219 180.1333 C310.1769 178.0228 408 182.1333 408 182.1333 "/>
<path id="6" d="M200 180.1333 C200 180.1333 212.9117 160.1528 228 148.1333 C240.1146 138.4827 244.2632 141.2386 259 133.1333 C263.8247 130.4798 268 126.1333 268 126.1333 "/>
<path id="7" d="M270 126.1333 L432 127.1333 "/>
<path id="8" d="M432 127.1333 C432 127.1333 423.1495 135.1388 416 144.1333 C407.8388 154.4006 405.622 155.7338 401 166.1333 C398.6711 171.3734 400 180.1333 400 180.1333 "/>
<path id="9" d="M273 121.1333 C273 121.1333 286.6288 116.8845 300 116.1333 C330.388 114.4261 332.3668 119.1266 362 116.1333 C380.1671 114.2983 380.8711 107.5279 399 106.1333 C443.6392 102.6995 445.717 105.0314 492 106.1333 C508.4585 106.5252 525 109.1333 525 109.1333 "/>
<path id="10" d="M443 124.1333 C443 124.1333 459.5984 115.5829 475 114.1333 C499.692 111.8094 528 116.1333 528 116.1333 "/>
<path id="11" d="M529 113.1333 C529 113.1333 538.8293 118.4482 547 125.1333 C555.0105 131.6873 555.8658 132.2465 562 140.1333 C565.8339 145.0626 568 152.1333 568 152.1333 "/>
<path id="12" d="M568 146.1333 C568 146.1333 605.4557 142.8992 611 146.1333 C613.7506 147.7379 612.3969 161.0311 616 174.1333 C617.6743 180.2217 621.0267 180.4555 622 186.1333 C623.7183 196.1567 622 209.1333 622 209.1333 "/>
<path id="13" d="M622 209.1333 C622 209.1333 615.9692 195.664 608 185.1333 C602.5648 177.9511 594 172.1333 594 172.1333 "/>
<path id="14" d="M593 172.1333 C593 172.1333 565.4626 174.0405 544 179.1333 C539.0598 180.3056 534.0224 186.0942 534 186.1333 C533.994 186.1439 540 186.1333 540 186.1333 "/>
<path id="15" d="M546 182.1333 C546 182.1333 540.898 186.5782 539 191.1333 C536.4119 197.3448 536.4947 198.7132 536 206.1333 C535.0237 220.7784 536 236.1333 536 236.1333 "/>
<path id="16" d="M81 221.1333 L82 246.1333 "/>
<path id="17" d="M82 246.1333 C82 246.1333 90.6764 252.5667 100 257.1333 C114.8967 264.4297 131 270.1333 131 270.1333 "/>
<path id="18" d="M133 244.1333 L133 270.1333 "/>
<path id="19" d="M255 263.1333 L255 293.1333 "/>
<path id="20" d="M256 293.1333 C256 293.1333 292.7797 295.3176 327 293.1333 C338.27 292.414 350 287.1333 350 287.1333 "/>
<path id="21" d="M359 239.1333 C359 239.1333 347.1146 254.018 343 267.1333 C340.1339 276.2689 343.4983 284.1534 343 290.1333 C342.9747 290.4367 341 291.1333 341 291.1333 "/>
<path id="22" d="M136 268.1333 C136 268.1333 138.0874 281.7399 136 291.1333 C134.6588 297.1687 131.03 297.5224 128 304.1333 C125.7502 309.0419 125 315.1333 125 315.1333 "/>
<path id="23" d="M257 280.1333 L259 333.1333 "/>
<path id="24" d="M123 316.1333 C123 316.1333 135.7539 316.4698 147 319.1333 C154.0184 320.7956 154.2712 323.7876 161 325.1333 C168.0829 326.5499 169.8991 323.328 177 325.1333 C197.776 330.4154 199.0828 336.5269 220 340.1333 C240.1894 343.6143 264 340.1333 264 340.1333 "/>
<path id="25" d="M263 339.1333 C263 339.1333 278.3976 331.1087 294 325.1333 C301.5227 322.2523 301.9751 323.0058 310 321.1333 C316.9665 319.5078 317.0883 318.5841 324 318.1333 C339.5805 317.1172 356 318.1333 356 318.1333 "/>
<path id="26" d="M366 271.1333 C366 271.1333 367.4614 280.7304 366 289.1333 C363.6138 302.854 358 317.1333 358 317.1333 "/>
<path id="27" d="M369 270.1333 C369 270.1333 383.0209 261.0717 391 254.1333 C391.995 253.2681 391.1543 250.7148 392 250.1333 C396.4683 247.0614 406.6236 242.7733 407 243.1333 C408.62 244.6829 412.0538 257.7295 415 272.1333 C416.4622 279.2818 416 287.1333 416 287.1333 "/>
<path id="28" d="M417 287.1333 C417 287.1333 436.9279 271.8229 458 263.1333 C483.9166 252.4461 488.777 256.3053 514 247.1333 C519.2672 245.218 519.2753 240.8342 524 239.1333 C529.6344 237.1049 539 238.1333 539 238.1333 "/>
<path id="29" d="M82 244.1333 C82 244.1333 84.2726 273.4132 84 285.1333 C83.9862 285.7257 81.1636 286.3699 81 287.1333 C80.2572 290.5998 79.3148 296.98 81 299.1333 C84.5231 303.6351 90.4847 308.1297 99 310.1333 C112.7461 313.3677 132 311.1333 132 311.1333 "/>
<path id="30" d="M83 287.1333 C83 287.1333 81.3714 296.9622 82 305.1333 C82.2886 308.8858 83.1796 309.327 85 313.1333 C88.6324 320.7284 88.1362 322.5747 93 328.1333 C97.5046 333.2814 99.3244 334.3013 106 337.1333 C114.7805 340.8584 116.149 341.0626 126 342.1333 C138.4675 343.4885 141.8809 344.7836 152 342.1333 C159.3484 340.2088 161.2613 336.808 168 331.1333 C169.9233 329.5137 170.8533 327.16 171 326.1333 C171.0463 325.8091 169 324.1333 169 324.1333 "/>
<path id="31" d="M116 315.1333 C116 315.1333 122.9622 325.5034 128 327.1333 C134.8757 329.3578 145.6348 327.5884 150 326.1333 C150.847 325.851 152 319.1333 152 319.1333 "/>
<path id="32" d="M318 322.1333 C318 322.1333 319.2441 330.6923 322 338.1333 C324.0845 343.7614 324.2099 344.9822 328 349.1333 C333.9102 355.6064 335.2015 356.8796 343 361.1333 C350.6998 365.3332 352.4718 366.4645 361 367.1333 C376.1643 368.3227 381.9646 369.9863 394 365.1333 C407.6259 359.639 410.5766 353.8259 423 342.1333 C426.3042 339.0235 427.5969 337.2984 428 333.1333 C430.2567 309.8146 429 280.1333 429 280.1333 "/>
<path id="33" d="M280 333.1333 C280 333.1333 279.6678 342.8068 281 351.1333 C281.5487 354.563 281.8 355.7238 284 358.1333 C291.3268 366.158 293.092 368.6736 302 374.1333 C306.7537 377.0469 308.6083 376.8137 315 377.1333 C337.8449 378.2756 344.4944 380.5771 362 377.1333 C368.0937 375.9346 376 365.1333 376 365.1333 "/>
<path id="34" d="M386 304.1333 C386 304.1333 383.0474 305.6114 383 306.1333 C382.8159 308.1583 384.2054 313.7031 385 315.1333 C385.131 315.3691 387.9237 315.3049 388 315.1333 C388.5403 313.9178 389 306.1333 389 306.1333 "/>
<path id="35" d="M385 317.1333 C385 317.1333 384.9436 329.2174 381 338.1333 C374.1754 353.563 362 369.1333 362 369.1333 "/>
<path id="36" d="M389 317.1333 C389 317.1333 389.6808 328.1241 393 337.1333 C396.3517 346.2309 403 355.1333 403 355.1333 "/>
<path id="37" d="M384 310.1333 C384 310.1333 387.2194 312.9138 390 313.1333 C404.2665 314.2596 409.8024 316.1827 422 313.1333 C429.2424 311.3227 438 301.1333 438 301.1333 "/>
<path id="38" d="M390 305.1333 C390 305.1333 400.5104 295.3681 403 287.1333 C405.8381 277.7459 403 262.1333 403 262.1333 "/>
<path id="39" d="M366 301.1333 L378 306.1333 "/>
<path id="40" d="M379 308.1333 C379 308.1333 373.2486 310.5141 369 314.1333 C360.1487 321.6733 359.54 322.282 352 331.1333 C348.3808 335.382 347.2739 336.4622 346 341.1333 C344.6862 345.9505 346 353.1333 346 353.1333 "/>
<path id="41" d="M543 236.1333 C543 236.1333 541.0888 237.3337 541 238.1333 C540.3603 243.8907 539.6362 247.5873 541 254.1333 C541.7707 257.8325 543.2049 260.5029 546 262.1333 C552.5057 265.9283 555.7372 267.1583 565 268.1333 C582.9296 270.0207 588.3342 271.3924 603 268.1333 C610.2042 266.5324 612.8227 263.0593 619 256.1333 C628.4438 245.5448 629.9628 242.1423 636 231.1333 C637.0554 229.2088 636.9032 227.4414 636 225.1333 C632.9109 217.239 627 208.1333 627 208.1333 "/>
<path id="42" d="M518 247.1333 C518 247.1333 516.5832 257.6886 519 264.1333 C521.6602 271.2272 525.4872 277.7519 530 279.1333 C540.9984 282.5002 549.388 280.3741 568 279.1333 C578.906 278.4063 590 275.1333 590 275.1333 "/>
<path id="43" d="M585 225.1333 C585 225.1333 584.75 230.0083 585 230.1333 C586 230.6333 593.6639 231.024 595 230.1333 C595.9798 229.4801 597 222.1333 597 222.1333 "/>
<path id="44" d="M590 232.1333 C590 232.1333 590.8801 235.8703 590 238.1333 C587.8406 243.6861 586.8981 244.5646 583 250.1333 C580.0245 254.384 579.6813 255.6024 576 258.1333 C572.742 260.3732 567 261.1333 567 261.1333 "/>
<path id="45" d="M591 230.1333 C591 230.1333 590.316 246.3559 592 257.1333 C592.3488 259.3657 596 262.1333 596 262.1333 "/>
<path id="46" d="M575 177.1333 C575 177.1333 580.962 184.0788 583 191.1333 C587.0537 205.1655 588 222.1333 588 222.1333 "/>
<path id="47" d="M600 177.1333 C600 177.1333 591.5199 186.4105 589 195.1333 C585.7185 206.4923 587 222.1333 587 222.1333 "/>
<path id="48" d="M539 211.1333 C539 211.1333 545.6517 207.8196 552 207.1333 C563.3426 205.9071 564.7013 206.1062 576 207.1333 C580.3654 207.5302 585 210.1333 585 210.1333 "/>
<path id="49" d="M583 218.1333 C583 218.1333 562.3385 216.7653 549 218.1333 C546.8775 218.351 545.298 219.8618 544 222.1333 C540.0248 229.0899 537 239.1333 537 239.1333 "/>
<path id="50" d="M406 185.1333 C406 185.1333 419.5021 185.703 432 183.1333 C472.2754 174.8524 473.3866 174.7441 513 163.1333 C530.8331 157.9064 532.6949 157.5668 548 149.1333 C555.5831 144.9549 562 136.1333 562 136.1333 "/>
<path id="51" d="M518 118.1333 C518 118.1333 520.5646 133.1754 518 144.1333 C515.6746 154.069 507 165.1333 507 165.1333 "/>
<path id="52" d="M430 132.1333 L429 181.1333 "/>
<path id="53" d="M435 185.1333 C435 185.1333 431.5184 187.4762 430 190.1333 C427.9295 193.7567 427.162 194.814 427 199.1333 C425.738 232.7876 427 270.1333 427 270.1333 "/>
<path id="54" d="M514 169.1333 C514 169.1333 521.6116 172.9694 527 178.1333 C533.0841 183.9639 536.9795 186.3928 538 192.1333 C539.9487 203.0948 535 223.1333 535 223.1333 "/>
<path id="55" d="M491 185.1333 C491 185.1333 499.6036 186.3545 504 185.1333 C506.1606 184.5332 509 180.1333 509 180.1333 "/>
<path id="56" d="M271 122.1333 L338 69.1333 "/>
<path id="57" d="M284 268.1333 C284 268.1333 279.8706 268.6028 278 270.1333 C275.3723 272.2833 274.3261 273.9508 273 277.1333 C272.2701 278.8852 272.324 280.6124 273 282.1333 C273.7811 283.8909 275.4455 285.8743 277 286.1333 C281.6078 286.9013 289.3602 286.3359 291 285.1333 C291.9275 284.4532 293.1582 278.0289 292 275.1333 C290.3592 271.0313 287.4627 268.1084 283 265.1333 C280.0565 263.171 274 263.1333 274 263.1333 "/>
<path id="58" d="M320 263.1333 C320 263.1333 309.475 263.3129 309 264.1333 C307.8397 266.1374 307.7468 280.7326 309 282.1333 C310.1287 283.3948 320.148 283.4413 326 283.1333 C326.727 283.0951 327.7892 282.0467 328 281.1333 C328.9617 276.966 330.2291 273.2062 329 270.1333 C327.5389 266.4807 323.6719 263.8873 320 261.1333 C319.3006 260.6088 317 261.1333 317 261.1333 "/>
<path id="59" d="M122 249.1333 C122 249.1333 118.5968 248.5345 117 249.1333 C115.6826 249.6274 114.4371 250.8219 114 252.1333 C113.3443 254.1004 113.7761 258.04 114 258.1333 C115.0373 258.5656 124.8895 258.0587 126 257.1333 C126.649 256.5925 126.864 250.7253 126 248.1333 C125.584 246.8853 122 245.1333 122 245.1333 "/>
<path id="60" d="M99 231.1333 C99 231.1333 92.4133 233.6869 92 235.1333 C90.8488 239.1626 92.1411 250.0474 93 252.1333 C93.1219 252.4293 96.7344 252.8885 99 252.1333 C101.769 251.2103 104.3332 249.8003 105 248.1333 C106.146 245.2682 106.4037 240.2916 105 237.1333 C103.653 234.1027 97 230.1333 97 230.1333 "/>
<path id="61" d="M242 186.1333 C242 186.1333 231.67 197.624 220 206.1333 C208.217 214.7251 204.8622 212.685 194 221.1333 C188.2004 225.6441 189.6118 228.5215 184 234.1333 C175.9483 242.185 166 249.1333 166 249.1333 "/>
<path id="62" d="M285 184.1333 C285 184.1333 268.5593 208.5856 250 229.1333 C241.2869 238.78 238.4373 236.982 229 246.1333 C222.3168 252.614 221.3121 256.5132 217 261.1333 C216.6928 261.4625 215.025 261.2083 215 261.1333 C214.775 260.4583 215 255.1333 215 255.1333 "/>
<path id="63" d="M346 113.1333 L342 115.1333 "/>
<path id="64" d="M342 115.1333 C342 115.1333 337.6073 119.1588 333 121.1333 C327.7101 123.4004 321 124.1333 321 124.1333 "/>
<path id="65" d="M436 105.1333 C436 105.1333 427.2381 112.0005 418 116.1333 C408.8574 120.2234 407.7879 120.4554 398 122.1333 C391.0181 123.3302 383 122.1333 383 122.1333 "/>
<path id="66" d="M406 177.1333 C406 177.1333 413.0614 177.7591 414 177.1333 C414.5867 176.7422 413.8418 173.4497 415 171.1333 C416.96 167.2134 418.4318 163.9038 421 163.1333 C428.4293 160.9045 436.5884 161.8098 445 162.1333 C445.7291 162.1614 446.9112 163.3337 447 164.1333 C447.6397 169.8907 448.2147 177.9468 447 180.1333 C446.4264 181.1659 441.8959 182.0392 437 182.1333 C416.5255 182.5271 395 181.1333 395 181.1333 "/>
<path id="67" d="M204 167.1333 C204 167.1333 194.4972 167.8114 194 167.1333 C192.9332 165.6786 195.0778 155.6496 193 152.1333 C191.1221 148.9554 186.0466 146.1847 181 145.1333 C176.6565 144.2284 170.2494 145.4935 169 147.1333 C166.5279 150.3779 165.2993 158.9495 165 166.1333 C164.9239 167.9605 166.9767 171.0054 168 171.1333 C178.4451 172.439 205 171.1333 205 171.1333 "/>
<path id="68" d="M593 146.1333 L593 118.1333 "/>
<path id="69" d="M545 119.1333 C545 119.1333 582.9271 116.5688 615 118.1333 C620.6139 118.4072 624.8325 120.3879 627 123.1333 C629.4512 126.2382 630 137.1333 630 137.1333 "/>
<path id="70" d="M559 127.1333 C559 127.1333 587.5664 125.3259 613 126.1333 C617.2863 126.2694 618.6908 127.006 622 129.1333 C624.6819 130.8574 625.4465 134.6155 627 135.1333 C628.4055 135.6018 632.8664 133.943 634 133.1333 C634.2882 132.9275 634 130.1333 634 130.1333 "/>
<path id="71" d="M630 127.1333 C630 127.1333 625.0783 122.4016 621 122.1333 C591.7099 120.2063 585.1228 121.2688 554 122.1333 C551.6516 122.1986 548.9971 124.1328 549 124.1333 C549.0099 124.1351 565 124.1333 565 124.1333 C565 124.1333 560.9795 123.282 558 124.1333 C551.3113 126.0444 543.9997 130.1334 544 130.1333 C544.0009 130.1332 562.7645 123.6582 581 121.1333 C594.3502 119.2848 595.6673 120.0808 609 121.1333 C613.8745 121.5182 615.0756 121.9258 619 124.1333 C622.1479 125.904 625 130.1333 625 130.1333 "/>
<path id="72" d="M553 256.1333 C553 256.1333 557.7192 262.7327 563 267.1333 C566.1226 269.7355 567.2281 270.5745 571 271.1333 C579.3405 272.369 581.2363 272.7267 590 271.1333 C602.2021 268.9148 605.9095 268.4807 615 263.1333 C619.9142 260.2426 620.8869 257.3596 624 251.1333 C627.4905 244.1524 628.2305 242.8287 629 235.1333 C630.1147 223.9867 629.9044 220.9726 628 211.1333 C627.3728 207.8929 623 204.1333 623 204.1333 "/>
<path id="73" d="M623 208.1333 C623 208.1333 626.8964 231.4415 624 245.1333 C622.6192 251.6608 618.5864 253.547 612 260.1333 C605.4136 266.7197 604.1687 269.9388 597 272.1333 C583.5949 276.2369 563 275.1333 563 275.1333 "/>
<path id="74" d="M544 239.1333 C544 239.1333 545.9828 239.0643 546 239.1333 C546.4226 240.8238 545.3257 246.1105 547 251.1333 C548.9458 256.9706 549.6818 259.1606 554 263.1333 C560.731 269.3259 564.2214 271.2524 572 274.1333 C575.041 275.2596 581 273.1333 581 273.1333 "/>
<path id="75" d="M521 248.1333 C521 248.1333 520.9267 255.6046 523 261.1333 C525.0544 266.6118 526.2156 269.295 530 272.1333 C533.9705 275.1112 536.5273 275.2302 543 276.1333 C557.4554 278.1504 573 278.1333 573 278.1333 "/>
<path id="76" d="M432 286.1333 C432 286.1333 434.434 314.0904 431 333.1333 C429.8498 339.5119 426.9517 342.5658 421 347.1333 C407.3485 357.6101 403.8559 361.6937 388 366.1333 C370.3896 371.0642 346 368.1333 346 368.1333 "/>
<path id="77" d="M135 258.1333 C135 258.1333 151.6838 269.4878 167 271.1333 C207.8168 275.5186 256 271.1333 256 271.1333 "/>
<path id="78" d="M142 276.1333 C142 276.1333 155.2379 282.2754 168 283.1333 C212.8699 286.1498 261 284.1333 261 284.1333 "/>
<path id="79" d="M140 291.1333 L272 293.1333 "/>
<path id="80" d="M136 304.1333 C136 304.1333 147.4976 310.6411 159 313.1333 C176.4572 316.9157 177.5547 316.2949 196 317.1333 C221.3002 318.2833 221.8932 318.2249 247 317.1333 C255.9254 316.7453 256.4488 315.8436 265 314.1333 C266.0114 313.931 267 313.1533 267 313.1333 C267 313.1133 265 312.1333 265 312.1333 "/>
<path id="81" d="M130 301.1333 L263 307.1333 "/>
<path id="82" d="M193 330.1333 C193 330.1333 203.6196 332.8099 213 333.1333 C217.1673 333.277 217.6147 331.2266 222 331.1333 C240.4183 330.7415 260 332.1333 260 332.1333 "/>
</g>
</g>
</svg>
