<?xml version="1.0" encoding="utf-8"?>
<!DOCTYPE svg PUBLIC "-//W3C//DTD SVG 1.1//EN" "http://www.w3.org/Graphics/SVG/1.1/DTD/svg11.dtd">
<svg viewBox="0 0 800 800" preserveAspectRatio="xMinYMin meet" xmlns="http://www.w3.org/2000/svg" version="1.1">
<g fill="none" stroke="black" stroke-linecap="round" stroke-linejoin="round" stroke-width="1.5073">
<g transform="translate(87.52,157.1811) scale(1.9903) translate(-191,-29)">
<path id="0" d="M295 111 C295 111 365.1154 141.4632 431 168 C434.4828 169.4028 435.632 167.5405 439 169 C464.0934 179.8738 465.2083 183.0581 491 194 C497.2919 196.6693 505 197 505 197 "/>
<path id="1" d="M503 197 L503 233 "/>
<path id="2" d="M503 233 L438 235 "/>
<path id="3" d="M438 235 C438 235 425.5573 220.4158 413 209 C409.9956 206.2688 408.8373 205.5643 405 205 C393.3174 203.282 388.723 201.5127 379 204 C371.4201 205.9391 367.4267 209.7981 362 216 C358.8702 219.5769 358.975 222.15 358 228 C357.0763 233.5421 358 240 358 240 "/>
<path id="4" d="M359 241 L318 241 "/>
<path id="5" d="M318 241 C318 241 310.8627 226.5803 303 214 C301.2437 211.19 300.6615 210.3307 298 209 C292.677 206.3385 291.3483 205.6863 285 205 C273.6574 203.7738 272.0048 203.7053 261 205 C256.1989 205.5648 254.7298 206.1582 251 209 C245.2419 213.3871 243.5738 214.7459 240 221 C236.3146 227.4495 235 237 235 237 "/>
<path id="6" d="M235 237 L193 237 "/>
<path id="7" d="M193 237 L193 109 "/>
<path id="8" d="M207 66 C207 66 204.0101 86.5939 207 101 C208.7327 109.3485 211.6244 111.6043 218 119 C223.3517 125.208 225.8939 128.6726 232 130 C243.8397 132.5738 251.3183 132.3645 264 129 C271.9331 126.8953 274.7273 123.7552 281 117 C286.4987 111.0783 289.2501 108.3319 290 101 C293.1908 69.8012 290 29 290 29 "/>
<path id="9" d="M289 29 C289 29 285.2668 38.1974 280 46 C271.9772 57.8856 262 69 262 69 "/>
<path id="10" d="M264 69 L264 131 "/>
<path id="11" d="M296 112 L289 108 "/>
<path id="12" d="M208 65 C208 65 191.0203 64.7932 191 65 C188.8953 86.4182 191 238 191 238 "/>
<path id="13" d="M208 65 C208 65 215.2845 75.0389 218 84 C219.7257 89.6947 216.9421 91.3502 218 98 C220.3511 112.7785 221.6487 120.3399 225 128 C225.5131 129.1729 232 130 232 130 "/>
<path id="14" d="M236 236 C236 236 234.9636 248.626 238 256 C240.7619 262.7075 243.8465 264.1884 250 270 C252.1551 272.0353 253.2067 272.7381 256 273 C267.5622 274.084 270.8661 274.9984 282 273 C288.105 271.9042 288.7267 269.764 295 266 C298.6472 263.8117 299.6814 264.0142 302 261 C308.9216 252.002 315 240 315 240 "/>
<path id="15" d="M361 241 C361 241 360.2405 244.2278 361 246 C362.7578 250.1015 363.5362 251.3053 367 255 C370.6562 258.9 371.221 259.9169 376 262 C389.6252 267.9392 391.4667 268.4553 406 272 C410.9282 273.202 413.4956 273.7522 417 272 C425.4424 267.7788 427.6355 264.6041 436 257 C437.9338 255.242 438.7824 254.176 439 252 C439.6117 245.8825 438 237 438 237 "/>
<path id="16" d="M192 209 L252 209 "/>
<path id="17" d="M194 218 L243 217 "/>
<path id="18" d="M297 210 L367 210 "/>
<path id="19" d="M306 219 L364 219 "/>
<path id="20" d="M416 212 L504 212 "/>
<path id="21" d="M424 219 L504 219 "/>
<path id="22" d="M193 115 C193 115 193.3767 124.1794 196 131 C197.941 136.0467 198.8272 137.115 203 141 C212.6777 150.0102 214.0648 151.3726 225 158 C229.3392 160.6298 230.6138 160.596 236 161 C249.9153 162.0436 251.1868 162.0626 265 161 C269.8731 160.6251 270.3266 159.9677 275 158 C279.6079 156.0598 280.1922 156.1026 284 153 C293.2767 145.4412 294.8743 145.0442 302 136 C307.0967 129.5311 310 120 310 120 "/>
<path id="23" d="M281 154 L280 206 "/>
<path id="24" d="M300 141 L300 211 "/>
<path id="25" d="M270 224 C270 224 267.4532 223.5468 267 224 C264.734 226.266 262.4639 228.8523 261 233 C259.9466 235.9846 259.8426 238.1065 261 241 C263.199 246.4976 265.355 250.7436 269 253 C272.2175 254.9918 277.4587 255.3245 282 254 C286.7646 252.6103 291.2166 249.4048 293 246 C294.6847 242.7837 294.5949 237.7846 293 233 C291.3233 227.97 288.4048 223.7834 285 222 C281.7837 220.3153 276.5748 221.1422 272 222 C270.7463 222.2351 269 225 269 225 "/>
<path id="26" d="M394 223 C394 223 391.4389 222.5611 391 223 C389.098 224.902 386.961 227.1562 386 231 C384.3118 237.7527 383.6412 242.7294 385 247 C385.7405 249.3272 389.3587 251.9076 393 253 C397.4587 254.3376 401.7932 254.3204 405 253 C407.1064 252.1327 409.3097 249.1753 410 246 C411.3657 239.7176 411.3514 235.9461 410 230 C409.3973 227.3479 407.5493 225.4568 405 224 C401.9322 222.247 396 222 396 222 "/>
<path id="27" d="M248 121 C248 121 248.66 112.6799 251 108 C252.291 105.418 254.3204 104.218 257 103 C258.6195 102.2639 261.9375 102.8125 262 103 C262.5625 104.6875 263.6112 112.2456 262 118 C260.7153 122.5881 257.8005 125.6663 255 128 C254.0868 128.761 250.2941 128.4201 250 128 C249.0422 126.6317 248 118 248 118 "/>
<path id="28" d="M255 115 L255 110 "/>
<path id="29" d="M255 116 L252 125 "/>
<path id="30" d="M257 117 L258 121 "/>
</g>
</g>
</svg>
