<?xml version="1.0" encoding="utf-8"?>
<!DOCTYPE svg PUBLIC "-//W3C//DTD SVG 1.1//EN" "http://www.w3.org/Graphics/SVG/1.1/DTD/svg11.dtd">
<svg viewBox="0 0 800 800" preserveAspectRatio="xMinYMin meet" xmlns="http://www.w3.org/2000/svg" version="1.1">
<g fill="none" stroke="black" stroke-linecap="round" stroke-linejoin="round" stroke-width="3.0626">
<g transform="translate(87.52,249.6374) scale(0.97956) translate(0,-49)">
<path id="0" d="M143 259 C143 259 136.047 257.4392 131 258 C128.3114 258.2987 127.7247 259.1835 125 261 C118.8693 265.0871 118.0733 264.9267 113 270 C106.9604 276.0396 103.7823 277.681 102 284 C99.3947 293.2368 100.8745 296.9006 102 309 C102.8271 317.8917 102.4364 319.6632 106 327 C110.166 335.5771 111.846 339.6778 119 344 C131.9887 351.8473 137.0099 352.2244 154 356 C162.5702 357.9045 165.0677 357.9831 173 356 C181.0367 353.9908 182.1685 352.221 190 347 C199.8744 340.417 201.0422 339.9578 209 332 C212.7448 328.2552 213.1955 326.8979 215 322 C216.3845 318.2421 215.7639 317.4862 216 313 C216.2608 308.0443 217.3687 306.9692 216 303 C212.9275 294.0899 212.2685 291.7881 206 284 C196.6114 272.3354 194.7386 272.2239 183 262 C179.5601 259.004 178.5269 257.3527 175 257 C161.7636 255.6764 143 258 143 258 "/>
<path id="1" d="M501 243 C501 243 490.736 242.1139 484 244 C480.2266 245.0566 479.2415 246.4992 476 250 C467.1173 259.5933 465.5789 259.9569 459 271 C452.1198 282.5488 450.8712 284.319 448 297 C445.2562 309.1183 446.007 311.7525 447 324 C447.3809 328.6973 448.1693 330.6386 451 334 C455.0454 338.8039 456.8013 339.4964 463 343 C467.8107 345.7191 468.6931 346.4823 474 347 C487.9775 348.3637 490.1701 348.6081 504 347 C510.261 346.272 511.4801 345.0666 517 342 C519.7211 340.4883 520.4394 339.809 522 337 C529.8921 322.7942 532.9797 320.741 537 306 C539.7496 295.9181 539.1802 292.4163 537 282 C535.1029 272.9362 533.6923 271.1318 528 263 C520.2828 251.9755 518.1868 250.8041 509 242 C507.3759 240.4436 506.1323 240 504 240 C499.309 240 493 242 493 242 "/>
<path id="2" d="M84 293 C84 293 83.3833 271.4495 89 260 C93.8007 250.214 99.4251 246.4481 110 240 C117.3426 235.5228 120.1647 235.7932 130 235 C150.246 233.3673 152.0984 234.1708 172 235 C174.8826 235.1201 175.147 235.7237 178 237 C194.0182 244.166 195.3589 243.6336 210 252 C215.4646 255.1227 215.8011 256.0376 220 261 C226.5296 268.7168 225.7818 274.5294 232 278 C242.1013 283.6379 247.6893 284.1699 263 285 C328.9223 288.5741 332.5394 287.8613 398 287 C406.2703 286.8912 410.0043 286.7847 415 283 C422.9584 276.9709 421.8603 270.8012 431 262 C448.1206 245.5135 450.0443 244.1231 469 231 C474.5665 227.1462 476.3248 226.4855 483 226 C502.0201 224.6167 508.8376 221.8747 524 227 C537.8554 231.6835 541.009 237.2541 554 250 C566.7159 262.476 566.7907 274.6645 577 279 C591.7002 285.2425 627 281 627 281 "/>
<path id="3" d="M88 291 C88 291 85.9323 304.8517 85 305 C69.8397 307.4119 2.8904 309.3356 0 305 C-5.7298 296.4053 1.346 240.0973 7 188 C7.6126 182.3551 9.9849 181.4321 14 176 C18.2997 170.1828 18.748 168.7515 24 165 C28.0756 162.0889 29.7621 161.1995 35 161 C79.1488 159.3181 84.983 162.2946 129 161 C132.7874 160.8886 133.7841 160.2747 137 158 C153.3275 146.4513 156.5759 146.4184 170 132 C182.2 118.8963 181.6013 116.3719 191 100 C196.9181 89.691 194.3308 86.3841 201 78 C210.3257 66.2762 213.1297 64.68 226 56 C233.3405 51.0494 235.4907 49.3202 244 49 C322.2746 46.0542 333.6159 44.6232 412 49 C425.8172 49.7715 427.4867 53.7912 441 60 C445.2685 61.9612 445.3001 62.7354 449 66 C453.7149 70.1602 454.3123 70.083 458 75 C464.556 83.7413 463.1976 85.6278 470 94 C475.7673 101.0982 478.6196 100.6108 484 107 C485.6678 108.9805 484.4351 111.1221 486 113 C488.5855 116.1027 489.7485 117.0675 494 119 C505.5295 124.2407 506.8796 126.8346 519 128 C556.064 131.5638 567.8346 125.9149 598 129 C601.7441 129.3829 604.1198 132.6797 607 137 C610.3603 142.0404 609.9371 143.3845 612 150 C624.3956 189.7514 624.9935 190.2074 636 230 C637.8488 236.6842 638 237.1332 638 244 C638 262.1478 638.9178 268.1619 636 281 C635.3131 284.0226 631.3513 287.1257 628 288 C622.973 289.3114 619.0854 288.6597 613 287 C609.6675 286.0911 606 282 606 282 "/>
<path id="4" d="M227 79 C227 79 230.5777 91.0913 231 103 C233.0472 160.7312 229.9839 193.1188 232 220 C232.062 220.8266 236.0719 222.4762 240 223 C250.3504 224.38 251.0075 223.8912 262 224 C301.4554 224.3906 322.3195 227.0768 341 224 C342.964 223.6765 346.5241 216.6632 347 210 C350.2374 164.6771 352.4802 157.2421 349 112 C347.829 96.777 343.4913 92.6409 337 80 C335.5381 77.1531 332.9696 75.1414 330 75 C289.7932 73.0854 272.2068 73.0854 232 75 C229.0304 75.1414 225 80 225 80 "/>
<path id="5" d="M368 82 C368 82 367.6642 130.2184 372 172 C372.8021 179.7294 376.828 179.9635 379 188 C381.6478 197.7968 379.3454 205.0961 382 209 C383.5578 211.2908 389.196 212.7042 396 213 C433.4431 214.628 450.5158 216.5091 474 213 C477.2946 212.5077 482.2888 205.7685 483 200 C486.0243 175.47 487.8116 164.6241 483 140 C480.5684 127.5559 471.2056 126.3859 466 113 C461.5774 101.6275 464.7564 96.6809 462 86 C461.5052 84.0826 460.1877 83.1582 458 82 C452.4045 79.0377 451.2236 77.5101 445 77 C422.7227 75.174 420.1033 75.5331 397 77 C389.658 77.4662 388.7727 78.0652 382 81 C374.3504 84.3148 367 90 367 90 "/>
<path id="6" d="M157 280 C157 280 143.039 282.5681 136 287 C132.5934 289.1449 131.6617 292.0149 130 297 C127.969 303.0929 127.1749 305.2241 128 311 C128.8939 317.2573 129.9209 319.4376 134 325 C140.1482 333.3839 141.6937 334.5395 150 341 C154.3478 344.3816 155.5944 344.7525 161 346 C167.7741 347.5633 171.6224 348.6837 176 347 C180.5619 345.2454 185.3972 340.8085 187 336 C189.4042 328.7873 188.9641 323.575 187 314 C185.3358 305.8869 183.9179 304.3768 179 297 C174.3758 290.0636 173.2586 289.0665 167 284 C163.5994 281.2472 158.023 280.0288 158 280 C157.9938 279.9923 163 279 163 279 "/>
<path id="7" d="M495 268 C495 268 483.3128 280.2111 475 293 C470.8655 299.3608 470.051 301.4314 469 308 C468.3626 311.984 468.919 315.364 471 318 C474.4621 322.3853 478.0233 325.0078 484 327 C489.2296 328.7432 492.1306 328.276 498 327 C502.2289 326.0807 503.2941 325.011 507 322 C510.83 318.8881 513.5305 317.1923 514 314 C515.3365 304.9119 514.9794 299.1051 512 288 C510.0448 280.7123 508.2497 279.2496 503 273 C498.3274 267.4374 491 263 491 263 "/>
</g>
</g>
</svg>
