<?xml version="1.0" encoding="utf-8"?>
<!DOCTYPE svg PUBLIC "-//W3C//DTD SVG 1.1//EN" "http://www.w3.org/Graphics/SVG/1.1/DTD/svg11.dtd">
<svg viewBox="0 0 800 800" preserveAspectRatio="xMinYMin meet" xmlns="http://www.w3.org/2000/svg" version="1.1">
<g fill="none" stroke="black" stroke-linecap="round" stroke-linejoin="round" stroke-width="1.9105">
<g transform="translate(87.52,158.1813) scale(1.5703) translate(-89,-78.1333)">
<path id="0" d="M93 85.1333 C93 85.1333 194.7405 85.9078 295 84.1333 C306.9373 83.9221 307.0317 81.5173 319 81.1333 C400.0081 78.5341 466.1194 73.7662 482 78.1333 C482.9719 78.4006 479 101.7357 479 125.1333 C479 175.4133 483.4624 177.1424 482 226.1333 C481.5187 242.2559 475.2048 243.5651 475 259.1333 C474.7343 279.3256 479.4138 280.8785 481 302.1333 C481.8735 313.8377 479.8856 323.3875 480 326.1333 C480.0004 326.1429 481.9975 326.1074 482 326.1333 C482.5462 331.8687 484.3418 347.626 484 368.1333 C483.853 376.9536 481 386.1333 481 386.1333 "/>
<path id="1" d="M483 385.1333 C483 385.1333 351.6994 386.7519 221 385.1333 C190.5453 384.7562 188.4935 384.3897 160 381.1333 C155.6154 380.6322 155.4831 377.913 151 377.1333 C133.5701 374.102 131.9338 376.4212 114 373.1333 C102.4587 371.0174 92.1283 368.9542 91 366.1333 C87.6847 357.845 89.3203 340.5759 92 318.1333 C93.1046 308.882 97.1844 308.6652 99 299.1333 C103.0139 278.0604 100.8083 276.6776 104 255.1333 C104.7451 250.104 106.5749 245.8986 107 245.1333 C107.004 245.126 109.0019 246.1606 109 246.1333 C108.9501 245.4091 108.012 227.8467 105 216.1333 C104.3898 213.7605 100.7737 213.4546 100 211.1333 C98.4525 206.4909 98.5576 204.3268 99 198.1333 C99.5206 190.8448 102.2104 186.9209 102 183.1333 C101.9543 182.3106 98.3805 181.3701 98 180.1333 C97.1005 177.2101 98.9727 174.2674 98 170.1333 C97.2275 166.8504 94.9082 166.6147 94 163.1333 C92.1345 155.9823 92.6569 155.148 92 147.1333 C90.1611 124.6989 89.7815 124.407 89 102.1333 C88.7927 96.2249 88.4899 95.1671 90 90.1333 C91.1664 86.2455 94.0063 82.0671 95 82.1333 C107.4141 82.9609 122.4294 90.2241 150 94.1333 C188.8956 99.6484 189.5837 98.8717 229 101.1333 C250.3459 102.3581 253.3588 102.6246 272 101.1333 C275.1733 100.8795 278.1163 98.1643 279 97.1333 C279.1894 96.9124 278.6659 94.609 278 94.1333 C276.4259 93.009 271.9966 92.1571 272 92.1333 C272.0178 92.0087 278.999 87.1319 279 87.1333 C279.1545 87.354 278.051 95.8064 279 102.1333 C279.3448 104.4321 282.1479 105.2848 282 107.1333 C280.5846 124.8261 277.6493 129.8039 275 152.1333 C274.1907 158.9544 273.92 161.2735 275 166.1333 C275.3771 167.8304 278.3619 168.3784 279 170.1333 C279.819 172.3855 279.6308 173.839 279 177.1333 C275.2399 196.7693 273.4071 197.4479 270 217.1333 C269.0162 222.8176 268.8167 225.11 270 229.1333 C270.6381 231.3027 274.6399 232.1527 275 234.1333 C276.0249 239.7705 273.3984 243.3124 274 251.1333 C274.3281 255.3993 276.5477 255.7608 277 260.1333 C277.9717 269.5262 277.7205 270.2863 277 280.1333 C276.2356 290.5808 275.8476 294.0508 274 301.1333 C273.764 302.0381 271.0807 302.4338 271 303.1333 C270.1743 310.2893 269.2382 316.8559 271 327.1333 C271.883 332.2843 275.9658 332.9623 277 338.1333 C278.6107 346.1866 276.3468 350.2743 277 357.1333 C277.0753 357.9241 279.0657 358.8377 279 359.1333 C278.6668 360.6326 275.2674 363.1917 275 366.1333 C274.4619 372.0528 277 381.1333 277 381.1333 "/>
<path id="2" d="M280 97.1333 C280 97.1333 291.0548 108.1168 300 109.1333 C328.3773 112.358 359.0084 107.6622 368 107.1333 C368.0155 107.1324 367.9929 105.1335 368 105.1333 C371.8718 105.016 392.6979 106.3775 401 106.1333 C401.2666 106.1255 401.6742 104.1768 402 104.1333 C405.6012 103.6532 409.563 104.8109 416 104.1333 C418.3957 103.8812 420.1772 102.9561 421 102.1333 C421.3526 101.7807 420.6682 99.3545 421 99.1333 C423.5439 97.4374 426.9473 95.3663 433 94.1333 C453.0953 90.0398 454.494 91.9307 475 88.1333 C481.0602 87.0111 487 84.1333 487 84.1333 "/>
<path id="3" d="M121 129.1333 C121 129.1333 155.0401 128.1367 167 129.1333 C167.6067 129.1839 168.3503 132.9168 169 133.1333 C170.2993 133.5664 175.4884 131.9141 176 132.1333 C176.1335 132.1905 176 136.1333 176 136.1333 C176.8098 136.1333 183.8863 132.389 189 132.1333 C191.6537 132.0006 193.6295 135.1333 196 135.1333 C198.0318 135.1333 200.3162 131.9088 202 132.1333 C204.9066 132.5209 207.5029 136.4776 211 137.1333 C213.3314 137.5705 216.1425 134.9476 218 135.1333 C218.9014 135.2235 219.7914 138.0209 221 138.1333 C235.7772 139.508 261 139.1333 261 139.1333 "/>
<path id="4" d="M132 183.1333 C132 183.1333 136.6061 186.283 139 186.1333 C142.2505 185.9302 147.1826 181.9847 148 182.1333 C148.3054 182.1889 149.5318 188.0991 150 188.1333 C157.4443 188.678 178.298 184.3867 189 185.1333 C190.2191 185.2184 191.0329 189.6034 193 191.1333 C194.3114 192.1533 196.1661 192.5918 198 192.1333 C202.7294 190.951 207.295 187.1333 209 187.1333 C209.465 187.1333 211.3407 192.0135 212 192.1333 C213.2573 192.3619 216.1533 190.1824 220 189.1333 C221.3087 188.7764 222.8125 188.9458 223 189.1333 C223.1875 189.3208 222.9854 192.1382 223 192.1333 C223.1117 192.0961 226.9221 187.2075 229 187.1333 C236.3507 186.8708 251 191.1333 251 191.1333 "/>
<path id="5" d="M156 243.1333 C156 243.1333 162.3125 238.9458 163 239.1333 C163.6875 239.3208 165.3288 245.5985 167 246.1333 C172.71 247.9605 183.2525 246.2702 188 247.1333 C188.3464 247.1963 188.4745 249.9144 189 250.1333 C191.7638 251.2849 194.6556 251.901 200 252.1333 C205.7636 252.3839 210.7899 250.9317 212 251.1333 C212.0511 251.1419 211.7383 253.924 212 254.1333 C212.6325 254.6393 215.5618 255.3388 217 255.1333 C217.6768 255.0366 218.9786 253.1333 219 253.1333 C219 253.1333 218.9 255.0833 219 255.1333 C219.4 255.3333 221.4701 255.7218 223 255.1333 C227.1778 253.5265 227.7681 251.0951 232 250.1333 C237.4274 248.8998 242.6805 249.4706 245 250.1333 C245.3823 250.2426 245.5368 253.9017 246 254.1333 C247.0807 254.6737 252.6727 254.297 253 254.1333 C253.0234 254.1216 252 251.1333 252 251.1333 "/>
<path id="6" d="M161 305.1333 C161 305.1333 163.9629 304.4733 165 305.1333 C167.9699 307.0233 168.9734 311.2859 172 312.1333 C178.0803 313.8358 184.4417 311.0746 190 312.1333 C191.1617 312.3546 192.4208 316.186 193 316.1333 C197.2943 315.7429 202.958 310.8289 212 310.1333 C227.2607 308.9594 245 312.1333 245 312.1333 "/>
<path id="7" d="M309 138.1333 C309 138.1333 311.535 145.8687 315 150.1333 C316.9892 152.5815 318.9625 153.5258 322 154.1333 C325.0375 154.7408 328.26 154.1773 330 153.1333 C331.0116 152.5263 330.7188 149.1583 332 148.1333 C334.2207 146.3568 338.7443 145.2729 340 145.1333 C340.1172 145.1203 340.7323 147.123 341 147.1333 C347.2038 147.3719 353.7607 146.1333 366 146.1333 C368.9374 146.1333 370.9127 146.3567 372 147.1333 C372.6246 147.5795 372.8598 151.1178 373 151.1333 C373.7439 151.216 378.4257 148.3674 381 148.1333 C381.877 148.0536 383.6406 149.2946 384 150.1333 C384.547 151.4096 383.4623 154.6554 384 155.1333 C385.4114 156.3879 388.9032 157.5871 393 158.1333 C395.5569 158.4743 398.5046 157.0508 399 157.1333 C399.0283 157.138 398.9999 159.1335 399 159.1333 C399.0002 159.1329 399.2283 155.6478 400 155.1333 C402.8763 153.2158 406.1083 153.8509 411 151.1333 C419.1802 146.5888 426.9782 140.1406 427 140.1333 C427.007 140.131 423 147.1333 423 147.1333 "/>
<path id="8" d="M305 196.1333 C305 196.1333 320.9703 198.1766 324 199.1333 C324.1439 199.1788 323.9358 202.122 324 202.1333 C326.0608 202.497 334.022 200.7377 341 202.1333 C344.6942 202.8722 345.4045 206.7664 349 207.1333 C366.322 208.9009 380.4899 208.2392 390 207.1333 C390.5988 207.0637 392.2465 203.3658 392 202.1333 C391.6892 200.5794 388.0003 197.1336 388 197.1333 C387.9999 197.1332 388.6982 199.1092 389 199.1333 C395.2433 199.6328 401.4359 198.1697 413 199.1333 C418.9025 199.6252 425 202.1333 425 202.1333 "/>
<path id="9" d="M301 267.1333 C301 267.1333 312.8736 265.9936 321 269.1333 C332.6561 273.6368 334.0673 281.2455 345 284.1333 C356.2351 287.1011 366.2415 284.3847 374 283.1333 C374.7038 283.0198 374.8758 279.6658 376 279.1333 C381.5904 276.4853 384.6337 274.8223 393 274.1333 C425.753 271.436 461 272.1333 461 272.1333 "/>
<path id="10" d="M303 323.1333 C303 323.1333 318.169 324.0871 329 327.1333 C331.9573 327.9651 332.4848 331.8818 335 332.1333 C352.0261 333.8359 357.326 332.9074 379 332.1333 C384.9463 331.921 390.2998 330.3879 391 330.1333 C391.015 330.1279 389.9651 328.1348 390 328.1333 C391.8301 328.0555 436.1699 328.2112 438 328.1333 C438.0349 328.1318 437 326.1333 437 326.1333 "/>
</g>
</g>
</svg>
