<?xml version="1.0" encoding="utf-8"?>
<!DOCTYPE svg PUBLIC "-//W3C//DTD SVG 1.1//EN" "http://www.w3.org/Graphics/SVG/1.1/DTD/svg11.dtd">
<svg viewBox="0 0 800 800" preserveAspectRatio="xMinYMin meet" xmlns="http://www.w3.org/2000/svg" version="1.1">
<g fill="none" stroke="black" stroke-linecap="round" stroke-linejoin="round" stroke-width="1.8913">
<g transform="translate(87.52,271.5184) scale(1.5862) translate(-71,-202.1333)">
<path id="0" d="M244 207.1333 C244 207.1333 216.4628 210.3074 189 211.1333 C150.1378 212.3021 111 211.1333 111 211.1333 "/>
<path id="1" d="M303 206.1333 C303 206.1333 327.0113 203.7484 351 203.1333 C404.9011 201.7513 459 202.1333 459 202.1333 "/>
<path id="2" d="M247 208.1333 C247 208.1333 248.3306 212.7978 250 214.1333 C251.8406 215.6058 255.8664 215.3236 257 216.1333 C257.2882 216.3392 256.9358 219.122 257 219.1333 C259.0608 219.497 267.2556 221.2631 274 219.1333 C283.8347 216.0276 285.364 211.2631 295 207.1333 C297.5801 206.0276 302 207.1333 302 207.1333 "/>
<path id="3" d="M111 211.1333 C111 211.1333 108.5722 228.0651 104 242.1333 C102.4954 246.7629 99.5514 246.4792 98 251.1333 C92.9697 266.2241 95.2985 268.2379 90 284.1333 C81.9285 308.3478 71 332.1333 71 332.1333 "/>
<path id="4" d="M74 334.1333 C74 334.1333 202.4401 342.703 222 332.1333 C229.732 327.9551 227.14 287.6744 235 247.1333 C236.272 240.5726 239.8416 240.5044 241 234.1333 C243.5783 219.9525 243 203.1333 243 203.1333 "/>
<path id="5" d="M303 206.1333 C303 206.1333 304.3772 213.2147 303 218.1333 C301.2831 224.2652 297.8691 224.6953 296 231.1333 C293.6897 239.0911 296.0796 240.5377 294 249.1333 C288.6958 271.0573 285.6215 271.1133 281 293.1333 C277.2576 310.9646 277 330.1333 277 330.1333 "/>
<path id="6" d="M459 204.1333 C459 204.1333 456.4161 207.221 456 210.1333 C454.1047 223.4007 456.9549 225.3436 454 239.1333 C446.6629 273.3733 445.593 274.2358 435 308.1333 C430.6974 321.9016 424 335.1333 424 335.1333 "/>
<path id="7" d="M276 332.1333 C276 332.1333 288.7893 333.1725 301 332.1333 C311.9117 331.2047 312.0946 328.8484 323 328.1333 C342.1046 326.8806 343.7816 326.4146 362 328.1333 C368.7603 328.7711 369.3318 332.4314 376 333.1333 C386.9687 334.2879 388.6284 331.7665 400 332.1333 C403.3518 332.2415 404.0621 334.4481 407 334.1333 C416.3241 333.1343 428 329.1333 428 329.1333 "/>
<path id="8" d="M459 203.1333 C459 203.1333 461.845 204.3064 462 205.1333 C463.8492 214.9959 465.952 220.8538 465 235.1333 C463.5454 256.9519 462.0006 258.5922 457 280.1333 C455.7022 285.7238 453.4304 285.5905 452 291.1333 C449.5822 300.5022 451.887 301.8307 449 311.1333 C443.1166 330.0911 434.5358 348.3934 434 349.1333 C433.949 349.2038 429.9306 344.5462 428 340.1333 C426.7648 337.31 427 333.1333 427 333.1333 "/>
<path id="9" d="M275 332.1333 C275 332.1333 274.2048 349.7776 275 350.1333 C278.7082 351.7923 294.2501 348.5285 313 349.1333 C324.8999 349.5172 325.7794 352.407 337 352.1333 C345.018 351.9378 345.6115 349.092 354 348.1333 C362.6494 347.1448 363.8031 346.8113 372 348.1333 C378.2872 349.1474 380.6309 352.6479 385 353.1333 C386.5041 353.3005 387.6202 350.5472 390 350.1333 C397.8326 348.7711 400.1494 350.7035 408 349.1333 C411.3646 348.4604 411.7745 345.5495 415 345.1333 C425.2995 343.8044 439 345.1333 439 345.1333 "/>
<path id="10" d="M224 332.1333 C224 332.1333 225.7793 336.8149 227 337.1333 C232.7461 338.6323 244.2845 337.726 247 338.1333 C247.0404 338.1394 246.9672 340.129 247 340.1333 C248.8422 340.379 255.9184 341.811 262 340.1333 C268.5709 338.3207 276 332.1333 276 332.1333 "/>
<path id="11" d="M72 333.1333 L72 353.1333 "/>
<path id="12" d="M72 353.1333 C72 353.1333 120.2314 353.4037 168 356.1333 C189.9969 357.3903 205.502 362.2394 212 361.1333 C212.785 360.9997 212.8375 353.6941 215 348.1333 C216.0007 345.5601 218.2517 345.5279 219 343.1333 C220.3544 338.7992 220 332.1333 220 332.1333 "/>
<path id="13" d="M216 361.1333 C216 361.1333 219.9259 359.6942 223 360.1333 C229.5324 361.0665 231.182 364.4756 237 364.1333 C245.6026 363.6273 247.2403 360.1526 257 358.1333 C261.1352 357.2778 263.6426 359.4981 266 358.1333 C270.2874 355.6511 276 347.1333 276 347.1333 "/>
</g>
</g>
</svg>
