<?xml version="1.0" encoding="utf-8"?>
<!DOCTYPE svg PUBLIC "-//W3C//DTD SVG 1.1//EN" "http://www.w3.org/Graphics/SVG/1.1/DTD/svg11.dtd">
<svg viewBox="0 0 800 800" preserveAspectRatio="xMinYMin meet" xmlns="http://www.w3.org/2000/svg" version="1.1">
<g fill="none" stroke="black" stroke-linecap="round" stroke-linejoin="round" stroke-width="1.3057">
<g transform="translate(167.9376,87.52) scale(2.2976) translate(-121,-145.3333)">
<path id="0" d="M136 160.3333 C136 160.3333 155.5697 171.9755 176 180.3333 C199.1286 189.795 224 196.3333 224 196.3333 "/>
<path id="1" d="M225 197.3333 C225 197.3333 233.4645 188.2425 242 182.3333 C245.4526 179.9431 247.1921 181.5898 251 179.3333 C260.0813 173.9518 259.6225 171.6232 269 166.3333 C278.6528 160.8882 280.0976 162.5596 290 157.3333 C297.798 153.2177 305 147.3333 305 147.3333 "/>
<path id="2" d="M121 166.3333 C121 166.3333 122.698 167.496 123 167.3333 C126.1633 165.63 134 159.3333 134 159.3333 "/>
<path id="3" d="M121 169.3333 C121 169.3333 127.5542 179.1978 135 186.3333 C138.8714 190.0434 139.8871 190.8227 145 192.3333 C160.6644 196.9614 163.728 194.2427 179 199.3333 C186.1456 201.7152 185.7144 204.789 193 208.3333 C203.8534 213.6134 216 217.3333 216 217.3333 "/>
<path id="4" d="M236 220.3333 C236 220.3333 244.6193 214.9594 251 208.3333 C257.1751 201.9207 255.924 197.7004 262 193.3333 C269.462 187.97 273.3911 190.2751 283 185.3333 C290.3242 181.5666 289.9046 179.0229 297 175.3333 C301.6416 172.9197 303.6142 174.8123 308 172.3333 C314.0981 168.8866 317.6443 165.974 320 162.3333 C320.8424 161.0314 320.4126 157.5164 319 155.3333 C315.9576 150.6314 311.995 147.4068 309 145.3333 C308.5916 145.0506 306 146.3333 306 146.3333 "/>
<path id="5" d="M121 169.3333 C121 169.3333 123.5682 171.9155 124 174.3333 C125.8217 184.5351 124.9029 190.7507 126 197.3333 C126.0627 197.7095 127.9983 198.0703 128 198.3333 C128.258 237.8006 127 350.3333 127 350.3333 "/>
<path id="6" d="M130 348.3333 C130 348.3333 137.6018 363.335 148 373.3333 C162.3558 387.137 166.1833 384.95 182 398.3333 C191.7724 406.6022 192.7678 411.6079 200 417.3333 C201.3133 418.373 206 417.3333 206 417.3333 "/>
<path id="7" d="M323 164.3333 L323 329.3333 "/>
<path id="8" d="M208 415.3333 C208 415.3333 220.708 409.6641 230 401.3333 C248.8437 384.439 247.1564 379.6219 266 363.3333 C275.3708 355.2332 279.2878 357.2706 289 350.3333 C292.0082 348.1846 290.96 345.8033 294 343.3333 C306.071 333.5257 321 324.3333 321 324.3333 "/>
<path id="9" d="M215 217.3333 C215 217.3333 217.5718 276.1098 216 319.3333 C215.8739 322.8017 212.4629 323.1697 211 327.3333 C206.2304 340.9083 203 356.3333 203 356.3333 "/>
<path id="10" d="M204 356.3333 C204 356.3333 205.1849 388.2396 204 412.3333 C203.8911 414.548 201 417.3333 201 417.3333 "/>
<path id="11" d="M236 220.3333 L234 313.3333 "/>
<path id="12" d="M234 315.3333 C234 315.3333 230.905 325.378 230 335.3333 C228.4404 352.4884 230.7685 353.7093 229 370.3333 C228.3741 376.2172 227.9616 377.2813 225 382.3333 C219.9169 391.0044 216.3165 391.3169 212 399.3333 C210.2845 402.5193 211 408.3333 211 408.3333 "/>
<path id="13" d="M128 338.3333 C128 338.3333 130.4515 339.2363 131 340.3333 C132.8022 343.9378 132.1842 347.2206 134 350.3333 C134.6696 351.4813 136.8933 350.95 138 352.3333 C143.874 359.6758 142.9825 363.5285 150 370.3333 C158.2377 378.3214 161.2313 376.6768 171 384.3333 C179.4805 390.9802 179.8147 391.3496 187 399.3333 C193.0855 406.095 196.7142 413.3904 198 414.3333 C198.0623 414.379 202 410.3333 202 410.3333 "/>
<path id="14" d="M213 408.3333 C213 408.3333 223.3986 398.1353 230 389.3333 C231.1955 387.7393 229.9407 385.1623 231 384.3333 C237.9367 378.9046 243.602 378.3818 253 371.3333 C256.552 368.6693 255.877 366.1724 259 363.3333 C260.6043 361.8749 262.6987 362.8515 264 361.3333 C270.2404 354.0529 269.4436 348.8954 277 342.3333 C286.5179 334.0678 290.9394 336.0423 302 328.3333 C306.5419 325.1678 306.2238 322.0306 310 319.3333 C311.7573 318.0781 313.9802 319.5115 316 318.3333 C318.9146 316.6331 322 312.3333 322 312.3333 "/>
<path id="15" d="M257 248.3333 C257 248.3333 249.0125 247.9958 248 248.3333 C247.8875 248.3708 247.5981 251.0045 248 251.3333 C250.6052 253.4648 256.2231 254.5564 259 257.3333 C260.1434 258.4768 260.4813 262.2504 260 263.3333 C259.5476 264.3512 256.7891 266.3333 255 266.3333 C251.064 266.3333 244 263.3333 244 263.3333 "/>
<path id="16" d="M264 249.3333 L272 241.3333 "/>
<path id="17" d="M271 245.3333 L273 259.3333 "/>
<path id="18" d="M280 240.3333 C280 240.3333 277.0181 241.134 277 241.3333 C276.8602 242.8712 277.7502 249.6148 279 251.3333 C279.5852 252.138 284.1176 252.5855 285 252.3333 C285.2868 252.2514 285.8543 250.7902 286 249.3333 C286.329 246.0435 286.8085 243.6808 286 242.3333 C285.2377 241.0628 280 239.3333 280 239.3333 "/>
<path id="19" d="M287 235.3333 L291 251.3333 "/>
<path id="20" d="M287 235.3333 C287 235.3333 294.1564 234.6224 297 235.3333 C297.782 235.5288 299.0548 238.2675 299 238.3333 C298.6367 238.7693 291.9862 241.3176 292 241.3333 C292.0761 241.4203 306 246.3333 306 246.3333 "/>
<path id="21" d="M298 230.3333 L310 237.3333 "/>
<path id="22" d="M311 228.3333 L310 249.3333 "/>
<path id="23" d="M253 295.3333 L259 316.3333 "/>
<path id="24" d="M252 297.3333 L253 296.3333 "/>
<path id="25" d="M253 296.3333 L253 295.3333 "/>
<path id="26" d="M253 295.3333 C253 295.3333 259.0041 294.8898 261 295.3333 C261.3604 295.4134 262.1333 297.1001 262 297.3333 C261.267 298.616 256.947 302.2142 257 302.3333 C257.1525 302.6765 265.273 305.2948 266 306.3333 C266.3247 306.7972 265.3114 310.5848 264 312.3333 C263.1257 313.499 260 314.3333 260 314.3333 "/>
<path id="27" d="M271 294.3333 C271 294.3333 272.4174 305.2653 273 306.3333 C273.0526 306.4297 276.6073 305.9878 277 305.3333 C278.1781 303.3698 279.6599 297.6532 279 296.3333 C278.2163 294.766 270 291.3333 270 291.3333 "/>
<path id="28" d="M286 286.3333 C286 286.3333 285 293.7266 285 299.3333 C285 300.1959 285.8371 301.3333 286 301.3333 C286.9771 301.3333 291.5669 300.1996 292 299.3333 C292.8662 297.6009 293.0939 291.8859 292 289.3333 C291.2811 287.6559 286 285.3333 286 285.3333 "/>
<path id="29" d="M294 281.3333 C294 281.3333 295.9642 281.226 296 281.3333 C296.8584 283.9086 299 296.3333 299 296.3333 "/>
<path id="30" d="M299 295.3333 L299 294.3333 "/>
<path id="31" d="M298 286.3333 C298 286.3333 300.5629 284.6447 301 283.3333 C301.6557 281.3662 301 277.3333 301 277.3333 "/>
<path id="32" d="M298 285.3333 L308 290.3333 "/>
<path id="33" d="M171 369.3333 L167 375.3333 "/>
<path id="34" d="M169 368.3333 C169 368.3333 175.9261 368.7964 177 369.3333 C177.1895 369.4281 177.3831 371.8544 177 372.3333 C176.3359 373.1634 174.1018 374.4557 173 374.3333 C171.4445 374.1605 168.0029 371.3246 168 371.3333 C167.9826 371.3855 171 380.3333 171 380.3333 "/>
<path id="35" d="M180 380.3333 C180 380.3333 176.0001 377.3334 176 377.3333 C176 377.3333 177.7526 378.4673 178 379.3333 C178.4811 381.0172 178.0764 384.1805 178 384.3333 C178 384.3333 176 383.3333 176 383.3333 "/>
<path id="36" d="M176 383.3333 L174 382.3333 "/>
<path id="37" d="M190 380.3333 L187 391.3333 "/>
<path id="38" d="M194 387.3333 C194 387.3333 190.8743 388.1676 190 389.3333 C188.6886 391.0819 187.9785 395.2256 188 395.3333 C188.0015 395.341 190.4598 395.0536 191 394.3333 C192.5374 392.2834 194 387.3333 194 387.3333 "/>
<path id="39" d="M198 394.3333 C198 394.3333 193.4544 394.788 193 395.3333 C192.5602 395.861 192.9893 400.3349 193 400.3333 C193.1174 400.3166 200 394.3333 200 394.3333 "/>
<path id="40" d="M161 270.3333 C161 270.3333 155.9108 275.0099 153 275.3333 C149.7112 275.6988 144.1547 273.7189 143 272.3333 C142.0831 271.233 141.9616 266.2409 143 263.3333 C143.7829 261.1411 147.002 260.529 148 258.3333 C148.8234 256.5219 148.9215 254.1762 148 252.3333 C146.2339 248.8011 142.5597 247.8983 141 244.3333 C139.8721 241.7553 140.6441 236.5249 141 236.3333 C142.0294 235.779 151.3367 236.0905 154 237.3333 C154.9493 237.7763 154.4744 241.6552 156 243.3333 C158.3948 245.9676 164 248.3333 164 248.3333 "/>
<path id="41" d="M162 249.3333 C162 249.3333 188.7374 235.3214 189 235.3333 C189.043 235.3353 186.6582 245.3122 184 250.3333 C183.3797 251.5049 180 252.0601 180 252.3333 C180 253.5628 183.1785 257.0205 184 261.3333 C185.0098 266.635 184.6528 272.2142 184 273.3333 C183.7778 273.7142 179.2495 274.4581 177 273.3333 C171.2157 270.4412 164 263.3333 164 263.3333 "/>
<path id="42" d="M165 249.3333 L164 241.3333 "/>
<path id="43" d="M163 250.3333 C163 250.3333 162.9196 263.8109 163 264.3333 C163.004 264.3592 165 263.3333 165 263.3333 "/>
<path id="44" d="M165 257.3333 L165 256.3333 "/>
<path id="45" d="M165 265.3333 L165 269.3333 "/>
<path id="46" d="M162 264.3333 C162 264.3333 161.9992 281.3319 162 281.3333 C162.0005 281.3342 165 269.3333 165 269.3333 "/>
<path id="47" d="M175 248.3333 L175 249.3333 "/>
<path id="48" d="M175 260.3333 L176 262.3333 "/>
<path id="49" d="M155 262.3333 L155 262.3333 "/>
<path id="50" d="M152 247.3333 L154 253.3333 "/>
</g>
</g>
</svg>
