<?xml version="1.0" encoding="utf-8"?>
<!DOCTYPE svg PUBLIC "-//W3C//DTD SVG 1.1//EN" "http://www.w3.org/Graphics/SVG/1.1/DTD/svg11.dtd">
<svg viewBox="0 0 800 800" preserveAspectRatio="xMinYMin meet" xmlns="http://www.w3.org/2000/svg" version="1.1">
<g fill="none" stroke="black" stroke-linecap="round" stroke-linejoin="round" stroke-width="0.62884">
<g transform="translate(87.52,151.9243) scale(4.7707) translate(-146,-97)">
<path id="0" d="M167 108 C167 108 172.3532 121.0307 175 134 C177.2421 144.9865 175.0566 145.8951 177 157 C178.4877 165.5011 181.0542 165.6767 182 174 C183.4536 186.7918 181.4159 200.877 182 201 C191.6098 203.0231 265.6928 199.7131 277 194 C279.3772 192.7989 277.9233 173.3123 277 153 C276.434 140.5469 276.9333 139.7333 274 128 C271.1236 116.4945 270.5754 111.1728 265 105 C260.4935 100.0106 254.9485 97.6809 246 97 C212.721 94.4679 208.2943 96.3193 173 98 C167.6161 98.2564 167.4021 100.3998 162 101 C154.3736 101.8474 146.8991 100.8202 146 101 C145.9775 101.0045 147 104 147 104 "/>
</g>
</g>
</svg>
