<?xml version="1.0" encoding="utf-8"?>
<!DOCTYPE svg PUBLIC "-//W3C//DTD SVG 1.1//EN" "http://www.w3.org/Graphics/SVG/1.1/DTD/svg11.dtd">
<svg viewBox="0 0 800 800" preserveAspectRatio="xMinYMin meet" xmlns="http://www.w3.org/2000/svg" version="1.1">
<g fill="none" stroke="black" stroke-linecap="round" stroke-linejoin="round" stroke-width="1.6753">
<g transform="translate(254.0566,87.52) scale(1.7907) translate(-230,-83)">
<path id="0" d="M233 162 C233 162 245.7571 152.298 256 147 C257.9981 145.9665 259.8158 147.9864 262 147 C273.4026 141.8504 274.474 138.7552 287 133 C292.3314 130.5504 293.8081 132.6325 299 130 C328.0798 115.2553 328.0522 111.9739 358 97 C374.6597 88.6702 393 83 393 83 "/>
<path id="1" d="M234 163 C234 163 233.6463 220.6568 235 273 C235.0745 275.879 237 277.4292 237 279 C237 279.5236 235 280.6423 235 281 C235 281.5365 237 282.9072 237 284 C237 287.6428 235 289.9978 235 294 C235 295.6009 236.9724 296.2064 237 298 C237.4175 325.1369 237.5075 328.8492 236 359 C235.5271 368.4576 233.5049 368.6597 233 378 C232.5272 386.7475 234.8766 388.1108 234 396 C233.5372 400.1651 229.8973 401.3039 230 405 C230.3135 416.2848 235 432 235 432 "/>
<path id="2" d="M232 432 C232 432 237.1637 427.1613 243 424 C260.7943 414.3614 261.1477 413.9685 280 406 C309.4656 393.5454 310.5391 395.507 340 383 C363.3695 373.079 386 361 386 361 "/>
<path id="3" d="M243 154 C243 154 246.926 160.7871 247 167 C247.8785 240.7957 247.1026 254.7159 245 322 C244.9309 324.2103 242.1168 324.7816 242 327 C240.8229 349.3649 243.5531 354.9266 242 379 C241.6936 383.749 238.5512 384.1494 238 389 C236.2014 404.8277 238.1828 406.4408 237 423 C236.7173 426.9575 235.1269 430.8096 235 431 C234.9909 431.0136 233 429 233 429 "/>
<path id="4" d="M245 322 C245 322 248.5641 347.8518 247 371 C246.1847 383.067 241.307 388.9419 240 396 C239.919 396.4374 242 397.3123 242 398 C242 408.3149 240.3549 425.9413 240 428 C239.9944 428.0328 237 427 237 427 "/>
<path id="5" d="M248 173 C248 173 263.7917 171.6177 278 167 C303.1258 158.8341 303.0458 157.108 328 147 C342.543 141.1092 343.8683 142.4331 357 135 C369.5433 127.9 369.6738 124.4206 381 117 C382.7895 115.8276 386 116 386 116 "/>
<path id="6" d="M390 86 C390 86 388.8119 104.0988 385 119 C383.7173 124.0143 379 129 379 129 "/>
<path id="7" d="M238 400 C238 400 260.8545 393.1207 284 388 C317.2406 380.6459 318.3252 382.8994 351 375 C363.1935 372.0521 363.5989 371.2383 375 366 C381.7574 362.8952 381.9452 362.274 388 358 C390.2156 356.436 391.9874 354.0505 392 354 C392.0019 353.9924 389 354 389 354 "/>
<path id="8" d="M249 394 C249 394 272.958 392.2901 295 387 C309.6268 383.4896 310.0159 382.2786 324 376 C334.2758 371.3864 333.7734 368.5328 344 365 C360.2267 359.3944 362.7293 362.3129 379 357 C386.1863 354.6535 393 349 393 349 "/>
<path id="9" d="M382 119 C382 119 384.8063 142.0459 385 165 C385.8038 260.2529 384.9362 265.1897 384 356 C383.9852 357.4312 383.2843 358.9052 383 359 C382.3367 359.2211 378.2189 358.5838 378 358 C376.1344 353.025 374 335 374 335 "/>
<path id="10" d="M391 88 C391 88 388.377 102.0494 388 116 C386.8856 157.234 389.5282 158.1199 388 199 C387.5553 210.8944 384.5536 211.0967 384 223 C382.5808 253.5136 384.8762 266.3086 384 285 C383.9697 285.6453 381.0307 286.3708 381 287 C380.443 298.418 382.7511 309.4764 382 326 C381.901 328.1787 379.2431 328.731 379 331 C377.9493 340.807 379.2481 351.1466 379 354 C378.9981 354.0216 377.5977 354.3415 377 354 C374.8226 352.7558 372.4601 351.8404 372 350 C368.7355 336.9419 367 314 367 314 "/>
<path id="11" d="M379 86 C379 86 375.0486 94.267 375 102 C374.5661 170.9965 378.7614 174.19 378 245 C377.7707 266.324 373.9603 266.6343 373 288 C371.9791 310.7153 374 311.2443 374 334 C374 337.9575 373.1698 341.6038 373 342 C372.9971 342.0067 371.248 341.5786 371 341 C367.9291 333.8346 364 321 364 321 "/>
<path id="12" d="M253 378 C253 378 272.3023 374.9105 291 370 C321.6463 361.9515 321.6474 361.2744 352 352 C357.5786 350.2954 360.7138 349.247 363 348 C363.1892 347.8968 363 346 363 346 "/>
<path id="13" d="M374 331 C374 331 371.8242 335.4111 369 338 C366.3613 340.4188 362 342 362 342 "/>
<path id="14" d="M362 347 L350 349 "/>
<path id="15" d="M390 257 L375 275 "/>
<path id="16" d="M273 232 C273 232 278.6407 259.5152 282 287 C284.1104 304.2671 283.1038 304.5233 284 322 C284.1021 323.9915 284.0214 325.9786 284 326 C284 326 282.0516 324.722 282 324 C281.7129 319.981 283 312 283 312 "/>
<path id="17" d="M271 242 C271 242 284.469 227.1914 286 227 C286.6805 226.9149 293.2824 233.8473 295 239 C296.3359 243.0076 295.3873 245.4508 294 251 C292.0182 258.9274 291.5485 259.5803 288 267 C286.2339 270.6927 284.1346 273.3697 283 274 C282.6313 274.2048 278.9996 272 279 272 C279.001 272 285.2495 272.3074 288 274 C290.068 275.2726 291.6061 277.2429 292 280 C293.7467 292.2272 294.0231 296.0401 293 309 C292.6704 313.1745 290.5409 316.2665 289 318 C288.5636 318.4909 285.725 318.4833 285 318 C284.1542 317.4361 282.9412 315.6461 283 314 C283.3608 303.8987 286 290 286 290 "/>
<path id="18" d="M304 221 C304 221 300.0566 223.0629 299 225 C297.8149 227.1727 297.8386 228.6098 298 232 C299.3048 259.4006 297.3114 264.5571 302 288 C303.3207 294.6036 311.9998 301.9997 312 302 C312 302.0001 309.9474 300.0861 310 300 C311.6199 297.3492 320.0396 291.7709 323 284 C326.835 273.9331 326.2734 270.3012 326 258 C325.7988 248.9454 326.1687 245.8998 322 239 C313.4153 224.7909 301.3275 214.173 297 210 C296.9125 209.9156 293.9922 211.9922 294 212 C294.0698 212.0698 301 214 301 214 "/>
<path id="19" d="M332 211 C332 211 331.7856 214.2144 331 215 C329.9002 216.0998 326.2384 216.237 326 217 C325.063 219.9984 324.7624 224.5025 326 231 C328.61 244.7023 329.2529 246.5845 334 259 C335.2093 262.1627 336.3507 262.6451 339 265 C340.4813 266.3167 342.6852 267.2308 343 267 C345.5513 265.1291 349.9802 260.6997 354 254 C356.9533 249.0778 357.2917 247.6663 358 242 C358.6729 236.617 358.6871 235.23 357 230 C354.0012 220.7037 353.213 216.9239 348 211 C344.6228 207.1623 338.9091 205.4115 335 205 C333.4001 204.8316 329 209 329 209 "/>
<path id="20" d="M344 175 C344 175 352.444 186.1487 359 198 C365.302 209.392 365.7278 210.2514 370 222 C371.4287 225.9289 371.102 230.9362 371 231 C370.8566 231.0896 362 227 362 227 "/>
<path id="21" d="M367 208 C367 208 368.9053 205 369 205 C369.0947 205 371 208 371 208 "/>
<path id="22" d="M363 205 C363 205 365.447 200.8712 366 197 C366.853 191.0291 366.4704 190.4286 366 184 C364.9789 170.0451 363.2705 157.4609 363 156 C362.994 155.9678 361 157 361 157 "/>
<path id="23" d="M368 203 L374 209 "/>
</g>
</g>
</svg>
