<?xml version="1.0" encoding="utf-8"?>
<!DOCTYPE svg PUBLIC "-//W3C//DTD SVG 1.1//EN" "http://www.w3.org/Graphics/SVG/1.1/DTD/svg11.dtd">
<svg viewBox="0 0 800 800" preserveAspectRatio="xMinYMin meet" xmlns="http://www.w3.org/2000/svg" version="1.1">
<g fill="none" stroke="black" stroke-linecap="round" stroke-linejoin="round" stroke-width="0.69124">
<g transform="translate(94.03,87.52) scale(4.34) translate(-176,-131.1333)">
<path id="0" d="M237 178.1333 C237 178.1333 233.9317 187.3565 229 195.1333 C208.2434 227.865 185 260.1333 185 260.1333 "/>
<path id="1" d="M253 181.1333 C253 181.1333 249.3828 192.2866 249 203.1333 C247.9113 233.979 250 266.1333 250 266.1333 "/>
<path id="2" d="M269 182.1333 C269 182.1333 268.8507 188.115 271 192.1333 C279.5883 208.1897 283.2802 208.2952 292 225.1333 C297.3944 235.5501 295.0219 237.8659 300 248.1333 C302.5704 253.4349 304.0229 255.326 308 258.1333 C310.7498 260.0744 317 260.1333 317 260.1333 "/>
<path id="3" d="M187 259.1333 C187 259.1333 185.2946 261.7803 184 262.1333 C181.2875 262.8731 176 262.1333 176 262.1333 "/>
<path id="4" d="M250 265.1333 C250 265.1333 250.7987 270.9923 250 272.1333 C249.0986 273.4211 243 275.1333 243 275.1333 "/>
<path id="5" d="M225 179.1333 L281 178.1333 "/>
<path id="6" d="M269 179.1333 L269 181.1333 "/>
<path id="7" d="M225 179.1333 C225 179.1333 222.9758 173.5475 224 170.1333 C226.8255 160.715 230.8716 159.3717 234 149.1333 C235.9905 142.6191 235 134.1333 235 134.1333 "/>
<path id="8" d="M270 135.1333 C270 135.1333 268.5551 141.7986 270 146.1333 C272.4957 153.6206 277.0659 154.6118 279 162.1333 C281.0065 169.9365 279 181.1333 279 181.1333 "/>
<path id="9" d="M235 132.1333 C235 132.1333 266.7855 130.7821 271 131.1333 C271.0391 131.1366 271 135.1333 271 135.1333 "/>
</g>
</g>
</svg>
