<?xml version="1.0" encoding="utf-8"?>
<!DOCTYPE svg PUBLIC "-//W3C//DTD SVG 1.1//EN" "http://www.w3.org/Graphics/SVG/1.1/DTD/svg11.dtd">
<svg viewBox="0 0 800 800" preserveAspectRatio="xMinYMin meet" xmlns="http://www.w3.org/2000/svg" version="1.1">
<g fill="none" stroke="black" stroke-linecap="round" stroke-linejoin="round" stroke-width="1.6609">
<g transform="translate(221.182,87.52) scale(1.8062) translate(-225,-54)">
<path id="0" d="M274,92C274,92 269.01894445078323,121.21357713901244 262,145C260.7871003500531,149.11038214704223 256,153 256,153"/>
<path id="1" d="M276,95L348,95"/>
<path id="2" d="M349,95C349,95 352.41126399237373,109.82082131923624 359,122C368.44152205847513,139.45251047172672 382,156 382,156"/>
<path id="3" d="M258,154C258,154 262.10344814850674,155.93505746914178 266,156C320.32537021169025,156.9054228368615 378,156 378,156"/>
<path id="4" d="M325,159C325,159 327.1744300278124,221.11595922125306 325,282C324.20068861346965,304.3807188228495 320.0844716878659,304.6598832299616 319,327C317.612387673125,355.5848139336246 320,385 320,385"/>
<path id="5" d="M289,393L359,392"/>
<path id="6" d="M314,159C314,159 316.8853238468202,165.15151618783068 317,171C318.34087189839977,239.38446681838963 319.4930837666119,243.85571037927411 317,312C316.58944546863614,323.2218238572792 311.8571677180419,323.7139583791147 311,335C308.9535294200661,361.9451959691293 311,391 311,391"/>
<path id="7" d="M321,383C321,383 321.55939226519336,391.496546961326 321,392C320.30939226519336,392.621546961326 315.6845364540676,391.1482660992604 311,392C299.7145258152007,394.0519043972362 299.47356221545504,396.33111822320654 288,398C272.4805434161096,400.25737550311134 256.06559639999807,400.0196789199994 256,400C255.9799450496821,399.99398351490464 262.6622591346674,393.09894664874497 268,392C276.5242801319212,390.2450011493103 280.83920437114244,393.6785774539895 290,393C292.1818786886299,392.8383793563978 295,390 295,390"/>
<path id="8" d="M398,100C398,100 407.2880060864289,97.70175707851413 415,94C419.2206485804655,91.97408868137657 423,88 423,88"/>
<path id="9" d="M238,108L225,99"/>
<path id="10" d="M318,70C318,70 314.09545468383055,67.50389642018406 313,65C311.1901183484539,60.86312765360894 311,54 311,54"/>
<path id="11" d="M264,76L255,58"/>
<path id="12" d="M374,78C374,78 373.3746787012758,75.2506425974484 374,74C375.3288077597889,71.34238448042217 379,68 379,68"/>
<path id="13" d="M402,140C402,140 404.3385073146686,143.6692536573343 407,145C412.3229853706628,147.6614926853314 420,149 420,149"/>
</g>
</g>
</svg>
