<?xml version="1.0" encoding="utf-8"?>
<!DOCTYPE svg PUBLIC "-//W3C//DTD SVG 1.1//EN" "http://www.w3.org/Graphics/SVG/1.1/DTD/svg11.dtd">
<svg viewBox="0 0 800 800" preserveAspectRatio="xMinYMin meet" xmlns="http://www.w3.org/2000/svg" version="1.1">
<g fill="none" stroke="black" stroke-linecap="round" stroke-linejoin="round" stroke-width="1.7905">
<g transform="translate(302.8212,87.52) scale(1.6755) translate(-197,-50)">
<path id="0" d="M200 418 C200 418 204.9773 422.7937 209 423 C238.9638 424.5366 246.7996 425.2652 278 422 C286.0534 421.1572 287.5506 418.6559 295 414 C298.8517 411.5927 302 407 302 407 "/>
<path id="1" d="M197 418 C197 418 201.2702 410.2249 206 407 C210.5083 403.9261 219 403 219 403 "/>
<path id="2" d="M267 399 C267 399 275.3135 397.5141 282 399 C292.1536 401.2564 303 407 303 407 "/>
<path id="3" d="M237 402 L212 402 "/>
<path id="4" d="M239 399 L237 144 "/>
<path id="5" d="M255 134 L253 402 "/>
<path id="6" d="M257 399 L267 399 "/>
<path id="7" d="M228 60 C228 60 239.8897 62.093 250 61 C257.1771 60.2241 263.0579 57.3872 265 56 C265.2689 55.8079 264.5177 51.2071 264 51 C261.515 50.006 256.7498 49.5781 250 50 C241.1919 50.5505 239.2724 50.3819 232 53 C228.5086 54.2569 225 59 225 59 "/>
<path id="8" d="M225 59 C225 59 220.837 89.4346 212 113 C208.5102 122.3061 197.8293 130.6073 198 131 C198.2212 131.5088 210.1389 135.1876 222 136 C245.8757 137.6353 246.8477 137.455 271 136 C287.9072 134.9815 305 131 305 131 "/>
<path id="9" d="M269 52 C269 52 267.9079 66.9869 269 79 C269.2537 81.7909 269.9798 82.5666 272 85 C291.2814 108.2253 313 132 313 132 "/>
<path id="10" d="M272 138 C272 138 274.2739 168.6748 274 181 C273.9868 181.593 271.423 182.154 271 183 C270.5166 183.9668 270.8 186.9 271 187 C271.8 187.4 278.4336 187.4956 279 187 C279.4336 186.6206 279.5626 180.9002 279 180 C278.6684 179.4695 274 179 274 179 "/>
</g>
</g>
</svg>
