<?xml version="1.0" encoding="utf-8"?>
<!DOCTYPE svg PUBLIC "-//W3C//DTD SVG 1.1//EN" "http://www.w3.org/Graphics/SVG/1.1/DTD/svg11.dtd">
<svg viewBox="0 0 800 800" preserveAspectRatio="xMinYMin meet" xmlns="http://www.w3.org/2000/svg" version="1.1">
<g fill="none" stroke="black" stroke-linecap="round" stroke-linejoin="round" stroke-width="1.8145">
<g transform="translate(245.4133,87.52) scale(1.6533) translate(-161,-64.1333)">
<path id="0" d="M161 167.1333 C161 167.1333 210.0536 167.8085 259 167.1333 C282.4881 166.8094 282.9741 167.0522 306 165.1333 C312.4684 164.5943 312.7612 162.2933 319 162.1333 C331.3798 161.8159 345 164.1333 345 164.1333 "/>
<path id="1" d="M225 70.1333 C225 70.1333 239.9673 71.47 253 70.1333 C258.3109 69.5886 258.7822 66.5347 264 66.1333 C276.8847 65.1422 279.1953 67.5214 292 67.1333 C294.3168 67.0631 297 65.1333 297 65.1333 "/>
<path id="2" d="M229 68.1333 C229 68.1333 200.698 109.0331 173 150.1333 C169.7515 154.9537 169.0888 155.0274 167 160.1333 C164.7816 165.556 164.3859 171.2844 164 172.1333 C163.9974 172.1391 162 171.1333 162 171.1333 "/>
<path id="3" d="M299 64.1333 C299 64.1333 301.2482 72.2376 305 78.1333 C307.7565 82.4649 310.8623 82.333 313 86.1333 C314.4643 88.7366 312.5317 90.8821 314 94.1333 C319.0157 105.2395 322.2937 106.6346 327 117.1333 C327.9795 119.3185 326.1397 120.7982 327 123.1333 C329.2338 129.1966 331.4636 129.5386 334 136.1333 C336.2878 142.0815 334.7352 143.4714 337 149.1333 C338.4354 152.7219 340.8557 152.9293 342 156.1333 C342.9117 158.6861 341.0584 161.2502 342 163.1333 C343.0761 165.2855 348 168.1329 348 168.1333 C348 168.1336 342 165.1333 342 165.1333 "/>
<path id="4" d="M163 169.1333 C163 169.1333 166.2501 174.0273 168 174.1333 C177.1796 174.6897 191.8879 170.8497 196 171.1333 C196.199 171.1471 196.325 175.6271 197 176.1333 C198.1014 176.9594 200.704 177.4158 204 177.1333 C217.511 175.9752 219.8668 175.7875 232 173.1333 C233.9565 172.7053 234.7615 170.0095 236 170.1333 C244.9041 171.0237 260.0247 175.8294 262 176.1333 C262.0226 176.1368 261.8884 174.1739 262 174.1333 C263.7993 173.479 270.2362 173.2849 273 172.1333 C273.5255 171.9144 273.3341 169.609 274 169.1333 C275.5741 168.009 279.1888 166.6466 280 167.1333 C282.6364 168.7152 285.2995 175.4196 289 178.1333 C290.301 179.0874 292.126 178.5755 295 178.1333 C304.8748 176.6141 306.3555 177.6379 315 174.1333 C323.5797 170.6551 331.524 163.5142 332 163.1333 C332.0221 163.1156 330.0015 162.1288 330 162.1333 C329.9832 162.1836 330.7709 166.1028 331 166.1333 C333.0517 166.4069 345 164.1333 345 164.1333 "/>
<path id="5" d="M235 168.1333 C235 168.1333 237.7403 191.762 238 215.1333 C238.2373 236.4894 237.9594 237.3638 236 258.1333 C235.5335 263.0785 233.2003 263.2749 233 268.1333 C231.2775 309.905 233.805 311.8132 232 355.1333 C230.8137 383.6056 230.2975 392.0184 227 412.1333 C226.7251 413.8101 222 416.1333 222 416.1333 "/>
<path id="6" d="M261 169.1333 C261 169.1333 263.6119 241.6144 262 312.1333 C261.638 327.9727 258.0602 328.2306 257 344.1333 C255.5901 365.2824 258.3706 366.2321 257 387.1333 C256.4179 396.0102 253.9615 396.2392 253 405.1333 C252.0089 414.3013 253.0082 424.0674 253 424.1333 C252.9988 424.1429 251 421.1333 251 421.1333 "/>
<path id="7" d="M225 415.1333 C225 415.1333 223.1741 430.2524 224 431.1333 C224.8225 432.0106 232.8934 431.844 240 431.1333 C241.8655 430.9468 243.3359 429.9634 244 429.1333 C244.3831 428.6544 243.9048 426.1593 244 426.1333 C245.2798 425.7843 254.8255 426.3079 255 426.1333 C255.0476 426.0857 251 419.1333 251 419.1333 "/>
<path id="8" d="M229 411.1333 C229 411.1333 215.452 418.6508 212 424.1333 C209.9612 427.3715 210.7042 436.8375 212 438.1333 C214.0363 440.1696 221.4025 441.9579 230 442.1333 C244.7108 442.4336 245.7309 441.0909 261 439.1333 C265.0169 438.6183 265.8334 438.8222 269 437.1333 C272.5625 435.2333 274.387 433.6681 276 431.1333 C276.7714 429.9211 276.8234 427.2861 276 426.1333 C273.3416 422.4116 270.8338 419.1027 266 417.1333 C259.699 414.5663 253.9836 416.2408 249 415.1333 C248.5873 415.0416 248 413.1333 248 413.1333 "/>
</g>
</g>
</svg>
