<?xml version="1.0" encoding="utf-8"?>
<!DOCTYPE svg PUBLIC "-//W3C//DTD SVG 1.1//EN" "http://www.w3.org/Graphics/SVG/1.1/DTD/svg11.dtd">
<svg viewBox="0 0 800 800" preserveAspectRatio="xMinYMin meet" xmlns="http://www.w3.org/2000/svg" version="1.1">
<g fill="none" stroke="black" stroke-linecap="round" stroke-linejoin="round" stroke-width="1.2481">
<g transform="translate(222.1268,87.52) scale(2.4037) translate(-196,-77)">
<path id="0" d="M279 144 C279 144 277.8442 159.743 279 175 C280.3191 192.4121 283.3962 192.6105 284 210 C285.8711 263.8887 290.6089 299.6569 284 319 C282.4837 323.438 243.0213 329.9716 243 330 C242.9915 330.0114 257.5259 333.808 272 335 C299.6398 337.2762 328 337 328 337 C328 337 322.6615 337.874 318 337 C307.2203 334.9788 304.442 335.221 296 331 C291.779 328.8895 289.0626 325.3649 288 322 C287.1363 319.2651 290 312 290 312 "/>
<path id="1" d="M242 80 C242 80 246.7738 77.0845 251 77 C270.1063 76.6179 290.6063 78.7433 292 79 C292.07 79.0129 290.6081 83.2691 289 84 C282.5123 86.9489 278.3071 89.1932 270 89 C259.3808 88.753 246 83 246 83 "/>
<path id="2" d="M245 80 C245 80 235.6895 85.0066 230 92 C212.6406 113.3376 197 139 197 139 "/>
<path id="3" d="M296 80 C296 80 300.5665 89.6729 307 97 C318.0895 109.6297 320.8674 108.518 332 121 C336.8417 126.4285 340 134 340 134 "/>
<path id="4" d="M196 140 C196 140 203.6179 143.5931 211 144 C265.4016 146.9985 271.3762 148.5884 323 147 C331.4029 146.7414 337.4279 143.7422 341 140 C343.6388 137.2356 344 125 344 125 "/>
</g>
</g>
</svg>
