<?xml version="1.0" encoding="utf-8"?>
<!DOCTYPE svg PUBLIC "-//W3C//DTD SVG 1.1//EN" "http://www.w3.org/Graphics/SVG/1.1/DTD/svg11.dtd">
<svg viewBox="0 0 800 800" preserveAspectRatio="xMinYMin meet" xmlns="http://www.w3.org/2000/svg" version="1.1">
<g fill="none" stroke="black" stroke-linecap="round" stroke-linejoin="round" stroke-width="1.2769">
<g transform="translate(163.8779,87.52) scale(2.3495) translate(-265,-115.4167)">
<path id="0" d="M277 140.4167 C277 140.4167 285.4771 171.2676 291 202.4167 C297.9334 241.5209 297.4438 241.8497 302 281.4167 C306.9339 324.264 312.9236 359.4682 310 367.4167 C309.4469 368.9204 270 368.4167 270 368.4167 "/>
<path id="1" d="M307 368.4167 L358 366.4167 "/>
<path id="2" d="M288 173.4167 C288 173.4167 332.4402 178.1625 348 175.4167 C350.7314 174.9347 354.2344 168.3184 356 161.4167 C359.2752 148.6135 357.1229 133.2341 359 132.4167 C365.9816 129.3763 392.9224 137.0221 418 134.4167 C426.121 133.5729 434.3647 126.052 436 124.4167 C436.1168 124.2999 434.6666 120.4422 433 119.4167 C429.7513 117.4174 427.9289 116.8975 423 116.4167 C408.1081 114.9638 406.3564 113.9517 392 115.4167 C383.352 116.2991 380.3199 117.1281 374 121.4167 C368.6107 125.0737 364 134.4167 364 134.4167 "/>
<path id="3" d="M437 125.4167 C437 125.4167 444.0719 129.8983 447 135.4167 C456.0849 152.5382 463 174.4167 463 174.4167 "/>
<path id="4" d="M346 180.4167 L464 181.4167 "/>
<path id="5" d="M466 180.4167 L463 183.4167 "/>
<path id="6" d="M299 170.4167 C299 170.4167 308.2706 169.4978 317 170.4167 C326.9035 171.4591 327.1954 173.7482 337 174.4167 C348.5743 175.2058 361 173.4167 361 173.4167 "/>
<path id="7" d="M286 169.4167 C286 169.4167 293.6238 165.9084 301 165.4167 C330.0218 163.4819 361 164.4167 361 164.4167 "/>
<path id="8" d="M272 126.4167 C272 126.4167 280.5161 125.9263 283 127.4167 C284.8844 128.5473 286.6291 132.0782 287 135.4167 C287.4295 139.2822 286.1456 144.7534 285 145.4167 C282.4147 146.9134 273.7939 146.9961 268 146.4167 C266.8686 146.3035 265.2947 144.6937 265 143.4167 C264.2019 139.9581 263.9815 135.0718 265 133.4167 C265.807 132.1053 273 130.4167 273 130.4167 "/>
<path id="9" d="M270 379.4167 L368 381.4167 "/>
</g>
</g>
</svg>
