<?xml version="1.0" encoding="utf-8"?>
<!DOCTYPE svg PUBLIC "-//W3C//DTD SVG 1.1//EN" "http://www.w3.org/Graphics/SVG/1.1/DTD/svg11.dtd">
<svg viewBox="0 0 800 800" preserveAspectRatio="xMinYMin meet" xmlns="http://www.w3.org/2000/svg" version="1.1">
<g fill="none" stroke="black" stroke-linecap="round" stroke-linejoin="round" stroke-width="1.5841">
<g transform="translate(283.5302,87.52) scale(1.8938) translate(-189,-22)">
<path id="0" d="M231 295 C231 295 232.1258 314.9895 231 330 C230.8319 332.2409 229.8947 333.1053 228 335 C222.3158 340.6842 221.6705 343.0924 215 346 C204.2734 350.6757 188.9983 351.9999 189 352 C189.0067 352.0005 286.8972 351.0132 287 351 C287.0198 350.9975 272.1487 347.6469 267 342 C260.3779 334.737 258.1206 329.3493 256 317 C250.0827 282.5407 250.6669 279.346 250 243 C249.6857 225.8708 253.7511 225.1715 254 208 C254.241 191.368 251 189.8122 251 174 C251 169.3494 254 164 254 164 "/>
<path id="1" d="M231 298 C231 298 225.5266 277.9347 226 259 C226.9887 219.4502 230.1144 218.3133 234 178 C234.095 177.014 234.1 176.05 234 176 C233.6 175.8 230.069 176.1724 230 176 C229.569 174.9224 228.7058 170.3356 230 166 C238.1497 138.6984 240.5942 137.5935 250 109 C253.0542 99.7154 253.494 99.3369 255 90 C255.9124 84.3431 255 78 255 78 "/>
<path id="2" d="M254 179 C254 179 251.7656 148.5236 256 121 C259.497 98.2694 271.1102 76.3045 270 75 C268.4705 73.2028 233.9761 75.8596 216 74 C214.4991 73.8447 211.8198 69.2574 212 69 C217.9215 60.5407 231.8683 45.4093 251 24 C252.1215 22.745 252.7532 22.0693 254 22 C259.9891 21.6673 262.0981 21.2055 269 23 C286.2412 27.4827 292.0189 28.2789 304 35 C307.4942 36.9602 308.6456 40.5825 310 46 C312.3295 55.318 312.316 59.0999 312 67 C311.9378 68.5558 310.6022 70.0387 309 71 C306.5671 72.4598 305.4967 72.6115 302 73 C283.4408 75.0621 264 76 264 76 "/>
<path id="3" d="M287 95 C287 95 290.75 94.75 291 95 C291.25 95.25 291 99 291 99 "/>
<path id="4" d="M288 115 L290 115 "/>
<path id="5" d="M272 116 C272 116 273.9847 115.9694 274 116 C274.0229 116.0458 273 118 273 118 "/>
<path id="6" d="M238 93 L232 99 "/>
<path id="7" d="M223 108 L224 107 "/>
<path id="8" d="M232 108 L231 111 "/>
</g>
</g>
</svg>
