<?xml version="1.0" encoding="utf-8"?>
<!DOCTYPE svg PUBLIC "-//W3C//DTD SVG 1.1//EN" "http://www.w3.org/Graphics/SVG/1.1/DTD/svg11.dtd">
<svg viewBox="0 0 800 800" preserveAspectRatio="xMinYMin meet" xmlns="http://www.w3.org/2000/svg" version="1.1">
<g fill="none" stroke="black" stroke-linecap="round" stroke-linejoin="round" stroke-width="1.8097">
<g transform="translate(271.5268,87.52) scale(1.6577) translate(-210,-55)">
<path id="0" d="M261 60 C261 60 306.5534 49.8158 320 55 C329.0155 58.4759 331.163 74.3135 344 92 C353.4927 105.0788 365.2539 116.9504 365 117 C362.5699 117.475 250.9909 118.258 211 118 C210.737 117.9983 209.8434 116.2871 210 116 C211.3802 113.4697 213.0724 110.9276 217 107 C224.3643 99.6357 226.0893 100.6256 233 93 C240.2214 85.0316 238.8204 82.9773 246 75 C251.9467 68.3926 253.3721 67.5349 260 63 C261.6962 61.8394 265 62 265 62 "/>
<path id="1" d="M286 120 C286 120 284.76 198.2393 282 270 C281.8883 272.9042 280.0637 273.1323 280 276 C279.1144 315.8527 282.764 318.8473 280 360 C278.3349 384.7918 276.0614 385.5365 271 410 C270.1587 414.0664 270.1841 415.0879 268 418 C264.8571 422.1906 258.9783 425.9949 259 426 C259.0762 426.0179 281.1032 423.6486 285 422 C285.4167 421.8237 284.1035 417.6894 285 415 C286.238 411.2861 290 407 290 407 "/>
<path id="2" d="M292 123 C292 123 290.8274 273.7652 294 412 C294.1769 419.7068 299.2559 427.8412 299 428 C297.1715 429.1349 268.7395 430.22 265 430 C264.974 429.9985 265 426 265 426 "/>
<path id="3" d="M275 413 L292 413 "/>
<path id="4" d="M280 413 C280 413 273.1406 412.6787 273 413 C272.2656 414.6787 272.9703 428.9868 273 429 C273.0153 429.0068 281.8923 416.9751 282 417 C282.129 417.0298 285.9893 432.0011 286 432 C286.0325 431.9968 291.9628 416.0326 292 416 C292.0109 415.9904 294.0001 424.9998 294 425 C293.9999 425.0002 292.2887 418.8201 291 418 C289.617 417.1199 286.9181 417.6268 283 418 C276.5398 418.6153 275.0861 417.9656 270 420 C266.5355 421.3858 262.9713 425.9823 263 426 C263.1841 426.1133 282.998 427.9995 283 428 C283.0007 428.0002 275.9999 429 276 429 C276.0003 429 296 429 296 429 C296 428.9972 276.134 422.1608 276 422 C275.9811 421.9773 285.9636 417.0436 286 417 C286.0086 416.9896 280.9998 416.0001 281 416 C281.0003 415.9999 289.0001 416 289 416 C288.9999 416 273.0008 417.9995 273 418 C272.9995 418.0003 282.1038 418.0519 284 419 C284.5771 419.2886 285.2211 423.3367 285 424 C284.9052 424.2843 282 424.9814 282 425 C282 425.0373 285 427 285 427 "/>
<path id="5" d="M277 60 C277 60 278.3368 62.2702 278 63 C274.152 71.3372 270.508 74.168 265 86 C257.1286 102.9088 251 121 251 121 "/>
<path id="6" d="M299 59 C299 59 297.1093 75.9666 298 92 C298.5738 102.3284 299.6013 103.0056 302 113 C302.4893 115.0389 303.9972 117 304 117 C304 117 304 113 304 113 "/>
<path id="7" d="M308 55 C308 55 309.4091 65.6545 314 73 C323.4985 88.1976 327.2006 87.6719 338 103 C342.3585 109.1862 345 117 345 117 "/>
</g>
</g>
</svg>
