<?xml version="1.0" encoding="utf-8"?>
<!DOCTYPE svg PUBLIC "-//W3C//DTD SVG 1.1//EN" "http://www.w3.org/Graphics/SVG/1.1/DTD/svg11.dtd">
<svg viewBox="0 0 800 800" preserveAspectRatio="xMinYMin meet" xmlns="http://www.w3.org/2000/svg" version="1.1">
<g fill="none" stroke="black" stroke-linecap="round" stroke-linejoin="round" stroke-width="1.1137">
<g transform="translate(87.52,207.3938) scale(2.6938) translate(-104,-105)">
<path id="0" d="M185,151C185,151 191.22863636027404,143.5740082653798 197,142C210.10353631409484,138.42630827797413 213.89482812390776,139 229,139C234.66443945353458,139 236.082579332356,139.67069547322126 241,142C244.60610848960562,143.70815665297107 244.30072266737815,145.9448459263212 248,148C252.73348389873118,150.62971327707288 259,152 259,152"/>
<path id="1" d="M259,152C259,152 260.7694570295535,144.15355524771692 264,140C266.64317152127444,136.60163661550433 270.0000129376108,137.42855664273054 273,134C276.10809470427716,130.4478917665404 276.82615043763695,128.8910398431793 278,124C279.59727386878683,117.34469221338816 278.22038566348465,113.15794312808194 279,109C279.070582367915,108.6235607044535 281,108 281,108"/>
<path id="2" d="M283,112C283,112 288.11657999086645,113.94696704915272 291,117C295.9375378032508,122.22798120344201 298.87121430463344,124.10523025753032 300,130C302.606646735832,143.6124885093447 300.8501498462571,153.79820184491467 300,164C299.9437400837036,164.6751189955571 297,166 297,166"/>
<path id="3" d="M183,153C183,153 187.84892093376956,139.9064743973826 190,127C191.75517494361134,116.46895033833201 191,105 191,105"/>
<path id="4" d="M191,105C191,105 187.95628369635926,111.9856886122977 184,115C178.97410214469016,118.82925550880749 174.78103185052217,117.08824666775459 170,121C165.49479691008486,124.6860752553851 162.648,127.816 162,133C160.218,147.256 164,169 164,169"/>
<path id="5" d="M165,173C165,173 169.21205954915766,180.59281813222464 171,188C172.54804906959723,194.41334614547426 169.75503708936813,197.33738472407225 172,202C174.91098771276307,208.04589755727716 177.50547418710732,211.61743447245175 184,215C198.61808917707694,222.6135881130609 202.50203669310025,223.18226255122187 220,227C228.60893204129482,228.8783124453734 232.08703696062213,229.7050724936696 239,227C251.38638457627658,222.15315386145698 253.28980923877756,218.6839548656933 266,209C274.0126231816361,202.89514424256293 274.3903025996187,202.58171172396683 281,195C291.1461358769111,183.36178531766077 300,170 300,170"/>
<path id="6" d="M213,187C213,187 229.40581858352442,188.49810549572467 232,190C232.5794110777915,190.3354485187214 232.08410260798166,197.97476921760548 232,198C231.70213659673158,198.08935902098054 226.93529726614588,194.48058917984377 222,193C217.57969027466936,191.6739070824008 212,192 212,192"/>
<path id="7" d="M247,190L336,191"/>
<path id="8" d="M248,200L316,214"/>
<path id="9" d="M243,210C243,210 247.89071383003767,217.3730258960873 254,223C266.56847418241966,234.5762262206497 267.6538980559466,233.95495011526617 281,245C282.07908985970226,245.8930398838915 283,246.8831138830084 283,247C283,247.05844305849578 281,248 281,248"/>
<path id="10" d="M193,191C193,191 115.11938485804415,190.7501261829653 104,191C103.99438485804417,191.0001261829653 104,193 104,193"/>
<path id="11" d="M190,203C190,203 171.26541314954258,203.08162076116193 154,205C149.55124323754117,205.49430630693988 147.70476408006178,205.91941224610633 145,208C142.7552298111052,209.72674629914985 141,215 141,215"/>
<path id="12" d="M200,207C200,207 192.411591465087,206.99637766716032 186,209C177.01281196346775,211.80849626141634 175.94563464822917,212.17586467786086 168,217C162.62428155830744,220.26382905388476 161.60150884085817,221.74367136989488 158,226C157.000462304079,227.1812718224521 156.89959335111567,229.7991867022313 157,230C157.04303142095043,230.08606284190085 160,230 160,230"/>
<path id="13" d="M221,205C221,205 221.781746117975,213.218253882025 221,214C219.87081116292504,215.12918883707496 210,216 210,216"/>
<path id="14" d="M222,215L228,221"/>
<path id="15" d="M208,166L195,168"/>
<path id="16" d="M236,167L253,169"/>
</g>
</g>
</svg>
