<?xml version="1.0" encoding="utf-8"?>
<!DOCTYPE svg PUBLIC "-//W3C//DTD SVG 1.1//EN" "http://www.w3.org/Graphics/SVG/1.1/DTD/svg11.dtd">
<svg viewBox="0 0 800 800" preserveAspectRatio="xMinYMin meet" xmlns="http://www.w3.org/2000/svg" version="1.1">
<g fill="none" stroke="black" stroke-linecap="round" stroke-linejoin="round" stroke-width="1.8289">
<g transform="translate(133.4488,87.52) scale(1.6403) translate(-202,-62)">
<path id="0" d="M414 132 C414 132 410.6581 125.1219 409 125 C390.1016 123.6104 373.5535 124.974 346 127 C343.7221 127.1675 341.0006 130 341 130 C340.9997 130 344.0001 126.9998 344 127 C343.9999 127.0003 342.4218 130.8809 340 133 C335.0254 137.3528 331.4361 136.7049 328 141 C325.0325 144.7094 325.0585 147.0016 324 153 C322.1378 163.5527 322 164.2712 322 175 C322 182.3151 323.2541 182.5411 324 190 C324.2454 192.4536 324.0021 194.9937 324 195 C323.9993 195.0021 323.02 193 323 193 C322.98 193 321.8778 194.3891 322 195 C322.5838 197.919 325 202.992 325 203 C325 203.003 322.2215 201.1077 322 200 C321.5815 197.9077 323.0885 193.6192 323 193 C322.9963 192.9742 321.1 193.175 321 193 C320.2875 191.7532 319.0004 186 319 186 C319 186 318.2982 190.6606 319 193 C319.391 194.3034 322.056 195.804 322 196 C321.8582 196.4964 317.1303 199.7829 317 200 C316.9963 200.0062 318.9569 200.7413 319 201 C319.1563 201.9379 317.7601 205.7121 318 206 C318.3455 206.4145 324 207 324 207 C324 207 320.2531 205.9367 320 206 C319.9662 206.0084 320 208.0001 320 208 C320.0001 207.9998 321.1281 203.3203 321 203 C320.9666 202.9164 318.0057 202.9715 318 203 C317.9563 203.2185 320 206.7856 320 208 C320 208.4858 317.9886 209.9857 318 210 C318.2224 210.278 323.9614 212.9485 324 213 C324.0064 213.0086 321 214 321 214 C321 214 323.2186 212.7395 324 213 C326.149 213.7163 327.2568 216.4514 330 217 C335.6478 218.1296 337.3215 215.9524 344 217 C362.2489 219.8626 362.8591 221.3718 381 225 C382.4099 225.282 383.4775 225.4479 384 225 C385.5924 223.6351 386.5508 219.3294 388 219 C392.8019 217.9086 405.4326 220.0334 406 220 C406.0279 219.9984 405.0003 217.9974 405 218 C404.9983 218.0137 404.9798 227.9987 405 228 C405.4994 228.0312 415.8634 222.928 421 219 C421.9111 218.3033 422.2933 216.173 422 215 C421.6285 213.5142 419.0579 212.5627 419 211 C418.6772 202.2856 421.5102 194.6322 421 188 C420.9261 187.0398 417.9411 186.5058 417 185 C416.0375 183.46 416 182.4245 416 180 C416 170.302 418.0877 168.9736 417 160 C416.2555 153.858 413.5473 153.447 412 147 C410.6663 141.4428 412.2292 139.9168 411 135 C410.5234 133.0935 409.5058 131.9411 408 131 C406.46 130.0375 403 130 403 130 "/>
<path id="1" d="M354 165 C354 165 349.138 162.9172 349 163 C348.891 163.0654 349.678 167.1283 349 168 C347.7194 169.6465 342 171.9546 342 172 C342 172.0227 348.9671 174.0329 349 174 C349.0197 173.9803 345.9659 168.2044 346 168 C346.0041 167.9752 349.9766 168.0701 350 168 C350.0935 167.7195 347.8831 162.2338 348 162 C348.0584 161.8831 353 162 353 162 C353 161.9924 348.125 159.5 348 159 C347.875 158.5 351 154 351 154 "/>
<path id="2" d="M396 164 C396 164 392.4834 162.9668 392 162 C390.9727 159.9455 391.001 153.9993 391 154 C390.998 154.0013 389.666 162.335 389 164 C388.9507 164.1233 386.9952 163.9962 387 164 C387.059 164.0463 403 175 403 175 C403 175 398.7893 173.2628 398 172 C397.3557 170.9691 398.4454 167.668 398 167 C397.6734 166.5101 394 166 394 166 "/>
<path id="3" d="M398 205 C398 205 395.0067 197.6421 393 197 C387.6914 195.3012 377.0275 194.9863 373 197 C370.4828 198.2586 367 208.2719 367 210 C367 210.3988 371.1094 213.2701 373 213 C378.3809 212.2313 381.983 210.7248 388 207 C391.3224 204.9433 390.8439 201.6532 394 200 C399.5815 197.0764 401.6305 197.1791 409 196 C413.712 195.2461 418.636 195.9191 419 196 C419.0202 196.0045 418.0004 198.0025 418 198 C417.9982 197.9892 417.2666 190.5018 418 190 C421.0042 187.9445 433.1005 187.3397 437 185 C437.9217 184.447 437.0132 179.2687 438 178 C438.8458 176.9125 442.1787 177.4166 444 176 C445.6606 174.7084 446.9683 171.1587 447 171 C447.0023 170.9887 444.9993 171.0003 445 171 C445.0068 170.9973 459.6812 167.029 462 165 C462.6253 164.4529 460.6391 158.0826 461 157 C461.1098 156.6705 464.9501 156.0748 465 156 C465.0091 155.9864 463.0422 153.9747 463 154 C462.6836 154.1898 460.0013 159.0019 460 159 C459.9969 158.9954 461 151 461 151 "/>
<path id="4" d="M394 203 C394 203 389 203 389 203 C389 203 394.9532 203.078 395 203 C395.0416 202.9307 391.9705 198.0295 392 198 C392.1179 197.8821 398.8901 197.0751 400 198 C401.7111 199.4259 402.0274 206.924 404 208 C407.9832 210.1727 416.7487 208.8945 422 210 C422.4051 210.0853 422.5697 211.8924 423 212 C427.4463 213.1116 431.2415 214 438 214 C440.7034 214 443.8472 212.1528 444 212 C444 212 442 210 442 210 C441.9786 210.0214 442 214.0001 442 214 C442.0001 213.9999 442.6718 208.1313 443 208 C443.7916 207.6834 451.4262 209.7131 452 210 C452 210 451 212 451 212 C451.0214 212.0107 454 211.0003 454 211 C454 211 451 211 451 211 C451 211.1473 454.0017 215.9983 454 216 C453.9983 216.0017 449.4911 213.9822 449 213 C448.5982 212.1964 449.8668 208 450 208 C453.9957 208 465.3734 209.4422 480 213 C502.0983 218.3753 502.7901 220.1334 524 226 C525.3369 226.3698 526.8125 226.1875 527 226 C527.1875 225.8125 527.1233 223.0462 527 223 C526.1233 222.6712 519 223 519 223 "/>
<path id="5" d="M402 198 C402 198 412.1985 199.5027 421 198 C431.7448 196.1655 442.994 191.0022 443 191 C443.0007 190.9997 439.9993 191.0005 440 191 C440.0017 190.9989 445.75 189.5 446 189 C446.25 188.5 443.6957 183.5478 444 183 C444.4288 182.2282 450.75 180.625 451 180 C451.25 179.375 448.0003 173.0003 448 173 C447.9998 172.9998 448.8782 178.0029 449 178 C454.6891 177.8645 487.9431 173.0579 490 172 C490.008 171.9959 484 160 484 160 "/>
<path id="6" d="M369 209 C369 209 349.8379 206.3081 336 207 C332.9717 207.1514 329.0135 210.9892 329 211 C328.9974 211.0021 330.9963 211.0258 331 211 C331.0885 210.3808 330.7647 204.5562 330 204 C328.6532 203.0205 320.2614 203.5555 320 203 C319.3101 201.5341 322.5458 187.3359 322 187 C320.0521 185.8013 294.0699 187.0091 294 187 C293.9885 186.9985 299.0142 184.0025 299 184 C298.9109 183.9845 284.2363 185.3484 271 183 C254.1952 180.0185 253.9505 178.1246 237 173 C232.4642 171.6287 229.741 171.5669 228 170 C227.0476 169.1429 228.2012 165.2012 227 164 C223.3964 160.3964 214 156 214 156 C214 156 216.9256 158 217 158 C217 158 216.925 156.025 217 156 C217.675 155.775 220.6123 155.0775 223 156 C240.7361 162.8526 261 173 261 173 "/>
<path id="7" d="M369 209 C369 209 364.3394 208.2982 362 209 C360.6966 209.391 359.4371 210.6886 359 212 C358.3443 213.9671 359.3 217.85 359 218 C357.8 218.6 347.6528 218.178 347 218 C346.9901 217.9973 348.0439 215.0027 348 215 C346.1809 214.8898 330.4483 216.931 314 216 C304.6833 215.4726 301.9372 212.6307 295 212 C293.9904 211.9082 292.6252 214.1563 292 214 C289.4367 213.3592 287.592 210.3506 283 209 C271.3911 205.5856 270.099 207.4242 258 204 C243.8788 200.0034 242.595 199.7577 230 194 C226.2325 192.2777 223.0181 188.0543 223 188 C222.9964 187.9891 228 188 228 188 "/>
<path id="8" d="M374 210 C374 210 367.9002 210.5626 367 210 C366.4695 209.6684 366.1209 205 366 205 C363.22 205 352.9654 206.1897 343 210 C337.3761 212.1503 336.8754 213.4996 332 218 C324.1055 225.2872 318.6964 231.6512 317 234 C316.9649 234.0486 319 235.5669 319 236 C319 236.8662 318.3812 238.6188 317 240 C311.4753 245.5247 309.6384 247.7356 304 251 C302.2533 252.0112 298.5192 251.3462 298 251 C297.7692 250.8462 298.4625 247.555 298 247 C297.287 246.1444 295.235 245 293 245 C283.1659 245 271 247 271 247 "/>
<path id="9" d="M412 129 C412 129 410.384 119.6996 411 112 C411.3 108.2503 413.7947 106.0533 414 104 C414.0445 103.5547 412 102.6331 412 102 C412 97.8848 414 95.1489 414 89 C414 83.7971 411.7465 82.5634 412 78 C412.1669 74.9966 414.1605 74.3581 415 71 C415.5416 68.8335 415.547 67.2763 415 66 C414.6406 65.1613 411.9978 64.003 412 64 C412.0581 63.9225 415.9601 61.7086 418 62 C421.0599 62.4371 422.2172 65.3695 426 66 C432.9837 67.164 434.7402 64.7483 442 66 C448.2898 67.0844 453.4553 69.9702 455 71 C455.0946 71.0631 454.0003 74.0003 454 74 C453.9993 73.9993 453.9849 69.9985 454 70 C454.3971 70.0397 463.4748 73.2931 464 75 C465.3255 79.3078 464.9621 86.9161 462 96 C457.9999 108.2669 455.9097 111.9873 449 121 C446.497 124.2648 443.5503 125.2087 439 126 C433.6307 126.9338 426.0892 124.9822 426 125 C425.9833 125.0033 428.9678 128 429 128 C429 128 429.0213 124.9979 429 125 C427.5443 125.1456 412.7394 128.6912 409 130 C408.8797 130.0421 409.066 131.9811 409 132 C408.191 132.2311 403.0495 132.6996 402 132 C401.1005 131.4003 400 126 400 126 "/>
<path id="10" d="M354 223 C354 223 351.0788 243.1718 353 262 C355.9696 291.1017 360.9244 294.4732 364 321 C364.4925 325.2479 360.547 327.2253 361 331 C361.7387 337.1555 364.9186 338.5663 367 346 C368.2828 350.5814 366.4973 351.6422 368 356 C371.2108 365.3112 371.3685 366.8907 377 375 C383.2696 384.0282 384.2292 386.3355 393 392 C406.3425 400.617 409.379 400.4211 425 406 C429.3727 407.5617 434.9835 407.0024 435 407 C435.0045 406.9994 432.064 405.3842 432 405 C431.9061 404.4366 433.9997 400.9987 434 401 C434.0007 401.003 433.0002 409.0003 433 409 C432.9996 408.9995 430.7225 400.1291 432 398 C434.0636 394.5607 439.475 393.9111 445 389 C447.9525 386.3756 449.7878 384.9701 450 382 C451.4109 362.2472 450.5004 357.306 449 333 C448.0138 317.0243 446.0513 316.9793 445 301 C443.5642 279.1751 448.3224 275.8151 444 257 C440.709 242.6746 436.6655 240.7203 428 227 C425.1797 222.5346 422.5588 222.1985 420 219 C419.6446 218.5558 419.9906 216.9976 420 217 C420.0894 217.0224 424 220 424 220 "/>
<path id="11" d="M434 408 C434 408 429.2537 427.4608 429 428 C428.982 428.0383 426 425 426 425 C425.6786 425.3214 424.6969 431.6807 422 435 C419.2903 438.335 417.2441 440.0416 413 441 C403.8903 443.057 401.4778 442.9525 391 442 C380.2613 441.0238 369.6285 436.9686 369 437 C368.9509 437.0025 371 442.9916 371 443 C371 443.0028 368.9847 441.0458 369 441 C369.0229 440.9312 372.0098 440.0038 372 440 C371.8904 439.9571 358.343 437.1075 346 432 C329.7363 425.2702 314.5984 416.3847 314 416 C313.9616 415.9753 318.0102 414.0356 318 414 C317.9204 413.7214 312.5373 410.2088 312 409 C311.782 408.5095 314.2773 405.7209 314 405 C312.9966 402.3911 309.5692 400.7713 307 396 C302.8213 388.2395 304.5866 385.7592 300 379 C295.9632 373.051 294.4184 372.2051 288 368 C280.5676 363.1305 279.5424 362.278 271 360 C258.0228 356.5394 247.2505 357.518 243 356 C242.6905 355.8895 243.1442 350.0288 243 350 C239.3942 349.2788 224.8545 348.1282 213 350 C209.4645 350.5582 207.3487 352.7972 205 356 C202.7832 359.0229 202.0018 364.9994 202 365 C201.9992 365.0003 202 357 202 357 C202 357 204 401 204 401 "/>
<path id="12" d="M342 129 C342 129 327.6489 108.3191 321 103 C319.8229 102.0583 312.6934 103.7198 312 105 C309.5625 109.4999 308.0657 126.7918 308 127 C307.9933 127.0212 306 124.8394 306 124 C306 122.8808 308 120.1528 308 120 C308 120 305.9932 119.9818 306 120 C306.0896 120.2391 310.9963 127.9973 311 128 C311.0016 128.0012 310.7189 123.7189 310 123 C309.2811 122.2811 305.3728 121.9254 305 122 C304.9689 122.0062 304.6503 123.5337 305 124 C306.836 126.4479 307.7515 128.1193 311 130 C316.4503 133.1554 323.9677 134.9758 324 135 C324.0082 135.0061 318.9997 135.9987 319 136 C319.0059 136.0235 324.9996 138.9993 325 139 C325.0002 139.0004 319.9961 137.9948 320 138 C320.0141 138.0189 331 147 331 147 "/>
</g>
</g>
</svg>
