<?xml version="1.0" encoding="utf-8"?>
<!DOCTYPE svg PUBLIC "-//W3C//DTD SVG 1.1//EN" "http://www.w3.org/Graphics/SVG/1.1/DTD/svg11.dtd">
<svg viewBox="0 0 800 800" preserveAspectRatio="xMinYMin meet" xmlns="http://www.w3.org/2000/svg" version="1.1">
<g fill="none" stroke="black" stroke-linecap="round" stroke-linejoin="round" stroke-width="1.6081">
<g transform="translate(87.52,185.4615) scale(1.8656) translate(-26,-124)">
<path id="0" d="M277 139 C277 139 277.1447 137.0596 277 137 C273.6513 135.6211 268.1064 132.5066 260 132 C245.5432 131.0964 240.949 129.7957 229 134 C218.077 137.8433 213.1187 142.563 206 151 C202.407 155.2583 202.1102 166 202 166 C201.6144 166 194.7332 155.7693 188 151 C184.8784 148.7888 178.1198 148.8202 178 149 C177.6747 149.4879 177.6578 157.0545 180 163 C183.6956 172.3813 191 182 191 182 "/>
<path id="1" d="M277 138 C277 138 289.9197 123.9598 290 124 C290.1874 124.0937 293 146 293 146 "/>
<path id="2" d="M271 174 C271 174 272.9963 174.0258 273 174 C273.0885 173.3808 273.2744 169.3668 272 167 C270.4394 164.1018 268.5892 161.7061 266 161 C260.5751 159.5205 254.9743 159.5788 250 161 C247.9126 161.5964 245.8989 164.3033 245 167 C243.9448 170.1657 243.9081 172.3603 245 176 C246.553 181.1765 248.5055 185.8567 251 187 C255.0665 188.8638 263.9381 188.3805 269 187 C270.5851 186.5677 272.2084 183.7706 273 181 C273.8866 177.8969 273.2353 173.9412 273 173 C272.9853 172.9412 271 173 271 173 "/>
<path id="3" d="M237 177 C237 177 226.7573 176.3603 221 177 C220.2004 177.0888 219 178.3442 219 179 C219 184.5744 218.6269 191.0381 221 196 C222.3618 198.8474 225.862 200.4482 230 202 C232.5748 202.9655 235.3677 202.9522 237 202 C239.1181 200.7644 241.277 198.1814 242 195 C243.333 189.1349 243.1482 182.1688 242 180 C241.4822 179.0219 233 178 233 178 "/>
<path id="4" d="M229 187 C229 187 225.9255 193.7392 226 194 C226.0173 194.0606 230.6189 194.3049 231 194 C231.2439 193.8049 231 190 231 190 "/>
<path id="5" d="M263 179 C263 179 262.75 182.75 263 183 C263.25 183.25 266.8546 183.2617 267 183 C267.6253 181.8745 268 174 268 174 "/>
<path id="6" d="M259 191 C259 191 247.7462 191.0166 245 193 C242.8761 194.5339 240.5524 201.0159 241 204 C241.4325 206.8836 245.0206 211.7812 248 213 C252.1838 214.7116 261.6364 214.3636 263 213 C265.0908 210.9092 265.9255 202.9541 267 194 C267.3243 191.2972 266.7772 188.9067 266 188 C265.4009 187.301 261 187 261 187 "/>
<path id="7" d="M229 196 C229 196 219.3891 202.4867 217 208 C214.4396 213.9087 214.3532 222.9598 216 226 C217.2812 228.3654 223.2716 230.5582 230 232 C236.1625 233.3205 238.3172 233.4207 244 232 C248.668 230.833 250.2743 229.4773 254 226 C256.9774 223.2211 258.1875 218.1875 259 218 C259.8125 217.8125 263.2959 222.1948 267 223 C273.1144 224.3292 276.3964 224.7242 282 223 C287.0289 221.4527 291.011 218.6466 293 215 C295.0665 211.2114 294.5515 205.6877 294 201 C293.8668 199.8678 292.6146 198.6343 291 198 C280.1258 193.728 266 190 266 190 "/>
<path id="8" d="M221 181 C221 181 214.1635 179.6336 212 181 C207.7742 183.6689 203.1771 187.7032 202 193 C199.2688 205.2903 199.419 212.8084 202 226 C203.1545 231.9006 205.7064 235.0676 211 239 C221.117 246.5155 224.1099 248.0338 237 252 C248.5681 255.5594 250.2285 254.7446 263 255 C274.7423 255.2348 277.1664 255.4584 287 253 C290.813 252.0467 290.8229 249.0886 295 247 C300.3163 244.3418 302.8432 246.0724 307 243 C312.7276 238.7665 312.845 236.6279 318 230 C319.7538 227.7451 320.7265 227.2789 321 225 C322.0204 216.4967 321.9717 214.3929 321 205 C320.5477 200.6274 320.3029 199.7574 318 196 C311.242 184.9738 310.6148 183.572 302 174 C297.7636 169.2929 295.7203 167.5019 291 166 C287.2776 164.8156 280 167 280 167 "/>
<path id="9" d="M186 182 C186 182 179.3328 182.0802 174 184 C167.4934 186.3424 166.0711 186.4771 161 191 C148.5643 202.0913 147.3545 203.3912 137 217 C130.3631 225.7227 128.4771 227.2823 126 237 C122.5773 250.4277 122.5708 254.2798 124 268 C124.8229 275.8998 126.2926 278.1529 131 285 C136.4627 292.9458 137.9541 295.2108 146 300 C157.0801 306.5953 159.9103 307.4334 173 310 C183.8476 312.127 197 310 197 310 "/>
<path id="10" d="M221 266 C221 266 215.1959 269.2714 212 273 C209.9211 275.4254 209.4111 276.6084 209 280 C207.5417 292.0311 207.6337 295.3781 208 306 C208.0433 307.2554 208.7553 307.9212 210 309 C215.8629 314.0812 216.2202 315.5007 223 319 C230.8757 323.0649 232.2457 324.0089 241 325 C257.4033 326.857 276 325 276 325 "/>
<path id="11" d="M257 278 C257 278 256.8841 284.0435 258 285 C260.7556 287.3619 268.1916 288.4878 271 290 C271.1927 290.1038 270.9881 292.0007 271 292 C274.0812 291.8074 291.1323 286.6814 303 288 C308.2653 288.585 313.7249 292.9374 316 297 C318.3142 301.1325 317.8405 307.1163 317 313 C316.7047 315.0672 315.2314 316.5655 313 318 C309.1117 320.4996 307.8061 321.3992 303 322 C292.93 323.2587 281 322 281 322 "/>
<path id="12" d="M303 247 C303 247 307.3963 259.9309 312 263 C317.54 266.6933 324.6033 267.2709 333 267 C337.088 266.8681 338.0647 263.4806 343 262 C347.4203 260.6739 350.9496 259.9145 353 261 C355.6617 262.4091 358.4708 266.2214 360 271 C361.914 276.9811 362.1728 280.8398 361 286 C360.336 288.9215 358.3598 290.862 355 293 C348.4265 297.1831 346.6773 298.2664 339 300 C332.4496 301.4791 324 300 324 300 "/>
<path id="13" d="M128 278 C128 278 117.3445 283.5823 116 288 C112.3947 299.8461 110.7038 311.6943 114 324 C116.2821 332.5198 121.8871 337.5543 131 344 C139.8845 350.2842 143.3257 351.5033 155 353 C180.1218 356.2207 185.9934 354.7799 209 354 C211.1749 353.9263 212.9134 352.778 214 351 C217.3494 345.5191 218.7467 343.3407 220 336 C222.0469 324.0112 222.9671 315.7224 221 310 C220.2237 307.7417 214.6999 305.2667 209 304 C202.5876 302.575 199.2709 302.3958 194 304 C190.4402 305.0834 187.9002 307.3579 186 311 C182.9241 316.8954 182 327 182 327 "/>
<path id="14" d="M133 271 C133 271 126.3044 267.4203 121 263 C117.6374 260.1978 117.0552 259.6993 115 256 C112.3703 251.2665 113.7999 249.5229 111 245 C107.7648 239.7739 106.6925 238.8126 102 235 C99.414 232.8989 97.421 234.0485 95 232 C91.759 229.2576 92.0355 226.0236 89 224 C86.2324 222.1549 83.8211 223.6717 80 222 C76.4449 220.4446 75.8903 217.2409 73 217 C61.7634 216.0636 56.8744 216.4251 44 219 C38.6576 220.0685 36.2768 221.3591 33 225 C28.8165 229.6484 27.0771 232.3836 26 239 C23.9368 251.6737 22.9637 257.7232 26 268 C27.9727 274.6767 32.1581 276.4839 39 283 C42.2001 286.0477 43.2577 287.3763 47 288 C58.9328 289.9888 62.8731 290.8864 75 289 C82.9459 287.764 83.6903 283.2663 92 281 C99.0494 279.0774 103.8195 278.2313 108 280 C112.0463 281.7119 112.9771 288.8607 118 292 C122.5565 294.8478 132 295 132 295 "/>
<path id="15" d="M280 206 C280 206 280.6399 204.0514 281 204 C288.6421 202.9083 294.9237 204.0341 308 202 C316.9906 200.6015 326 197 326 197 "/>
<path id="16" d="M228 213 L200 242 "/>
<path id="17" d="M237 224 C237 224 237.8949 228.0597 237 231 C234.6822 238.6157 230 247 230 247 "/>
<path id="18" d="M278 204 L329 171 "/>
</g>
</g>
</svg>
