<?xml version="1.0" encoding="utf-8"?>
<!DOCTYPE svg PUBLIC "-//W3C//DTD SVG 1.1//EN" "http://www.w3.org/Graphics/SVG/1.1/DTD/svg11.dtd">
<svg viewBox="0 0 800 800" preserveAspectRatio="xMinYMin meet" xmlns="http://www.w3.org/2000/svg" version="1.1">
<g fill="none" stroke="black" stroke-linecap="round" stroke-linejoin="round" stroke-width="1.5649">
<g transform="translate(87.52,127.7782) scale(1.9171) translate(-36,-178.1333)">
<path id="0" d="M262 219.1333 C262 219.1333 273.5102 193.0916 281 179.1333 C281.3894 178.4076 283.9757 178.0832 284 178.1333 C286.1532 182.5744 291.2809 206.246 297 212.1333 C299.6247 214.8353 308.6387 211.3215 318 213.1333 C322.8445 214.071 325.1681 215.1126 328 218.1333 C331.0905 221.4298 332.2519 223.8963 333 229.1333 C334.5328 239.8629 335.7459 248.4653 333 253.1333 C330.5098 257.3666 313 263.1333 313 263.1333 "/>
<path id="1" d="M314 225.1333 L324 220.1333 "/>
<path id="2" d="M335 232.1333 C335 232.1333 339 234.0569 339 234.1333 C339 234.2479 335 237.1333 335 237.1333 "/>
<path id="3" d="M331 240.1333 C331 240.1333 315.4803 253.3463 299 264.1333 C288.3418 271.1096 276 276.1333 276 276.1333 "/>
<path id="4" d="M326 241.1333 C326 241.1333 311.4483 245.7631 298 252.1333 C283.1877 259.1497 269 268.1333 269 268.1333 "/>
<path id="5" d="M332 246.1333 C332 246.1333 331.2633 254.9791 328 262.1333 C318.6565 282.6172 306 303.1333 306 303.1333 "/>
<path id="6" d="M333 245.1333 L298 288.1333 "/>
<path id="7" d="M265 217.1333 C265 217.1333 258.4073 241.933 247 262.1333 C235.2254 282.9842 230.2556 282.25 217 302.1333 C213.9807 306.6623 215.8069 308.3967 213 313.1333 C208.1482 321.3208 206.015 320.775 201 329.1333 C195.7256 337.924 197.2337 339.1421 192 348.1333 C177.8651 372.4164 175.3638 371.7444 162 396.1333 C155.6789 407.6693 155.6166 409.1986 152 421.1333 C150.9678 424.5396 151.0277 426.0221 152 429.1333 C153.1622 432.8523 153.9605 434.4316 157 437.1333 C162.0472 441.6198 163.9158 444.1973 170 445.1333 C192.3637 448.5739 198.7253 448.8447 222 447.1333 C229.4128 446.5883 232.7899 443.1981 238 440.1333 C238.716 439.7121 239 437.1333 239 437.1333 "/>
<path id="8" d="M314 297.1333 C314 297.1333 315.796 316.5389 321 334.1333 C326.0802 351.3092 327.0832 351.6747 335 368.1333 C345.9896 390.9801 349.3448 390.962 359 413.1333 C362.1875 420.4528 362.2214 425.7048 362 430.1333 C361.9579 430.9744 359.92 432.7493 358 433.1333 C346.8976 435.3538 334.2373 437.2106 332 436.1333 C331.207 435.7515 330.385 427.2062 331 420.1333 C331.2806 416.9061 334.6427 415.0294 334 413.1333 C327.5763 394.1833 320.4632 387.1571 311 361.1333 C306.7957 349.5716 306 336.1333 306 336.1333 "/>
<path id="9" d="M306 262.1333 C306 262.1333 302.6891 266.3435 302 270.1333 C300.8946 276.2129 300.918 277.9118 302 284.1333 C302.7493 288.442 303.5458 289.5884 306 293.1333 C307.5559 295.3808 311 297.1333 311 297.1333 "/>
<path id="10" d="M204 421.1333 C204 421.1333 211.9966 414.2344 219 412.1333 C224.9351 410.3528 229.3645 409.8858 234 412.1333 C241.9599 415.9927 243.7955 425.8613 252 428.1333 C269.3937 432.9501 291.2756 428.5241 299 430.1333 C299.4344 430.2238 300.6833 437.2222 300 438.1333 C298.9161 439.5786 294.7452 441.8413 290 442.1333 C264.5282 443.7008 235 442.1333 235 442.1333 "/>
<path id="11" d="M245 410.1333 C245 410.1333 257.2921 406.9873 267 402.1333 C271.2939 399.9864 272.0984 399.1509 275 395.1333 C284.5374 381.9277 286.0215 378.9273 293 366.1333 C293.7191 364.815 292.3136 363.5551 293 362.1333 C298.4496 350.8449 307 337.1333 307 337.1333 "/>
<path id="12" d="M304 350.1333 C304 350.1333 305.9173 361.741 310 372.1333 C316.7526 389.3218 321.5337 389.9431 326 406.1333 C328.7904 416.2486 325.1 427.4333 326 430.1333 C326.1 430.4333 334 430.1333 334 430.1333 "/>
<path id="13" d="M157 411.1333 C157 411.1333 154.0404 416.9347 150 420.1333 C142.8727 425.7758 141.11 428.8661 133 430.1333 C98.1432 435.5797 90.4271 430.2005 54 435.1333 C45.7326 436.2529 40.4118 439.5319 37 443.1333 C35.309 444.9183 34.8893 452.2452 36 454.1333 C37.3303 456.3948 41.5162 458.446 47 460.1333 C53.6659 462.1844 55.7801 462.851 62 462.1333 C66.8755 461.5708 67.8944 457.5115 73 457.1333 C92.2748 455.7056 114.8485 458.2485 116 458.1333 C116.0671 458.1266 114.7492 454.5327 113 453.1333 C110.651 451.2542 109.4615 450.8256 106 450.1333 C99.9879 448.9309 98.975 448.4694 93 449.1333 C86.3039 449.8773 85.8679 452.1522 79 453.1333 C72.4014 454.076 65.9852 453.5122 65 453.1333 C64.935 453.1083 65.4942 448.2851 66 448.1333 C72.1102 446.3003 80.7608 444.633 95 444.1333 C108.6477 443.6545 111.0613 447.7252 123 446.1333 C130.7773 445.0964 132.8572 442.6788 140 438.1333 C142.8512 436.3189 145 432.1333 145 432.1333 "/>
</g>
</g>
</svg>
