<?xml version="1.0" encoding="utf-8"?>
<!DOCTYPE svg PUBLIC "-//W3C//DTD SVG 1.1//EN" "http://www.w3.org/Graphics/SVG/1.1/DTD/svg11.dtd">
<svg viewBox="0 0 800 800" preserveAspectRatio="xMinYMin meet" xmlns="http://www.w3.org/2000/svg" version="1.1">
<g fill="none" stroke="black" stroke-linecap="round" stroke-linejoin="round" stroke-width="2.3041">
<g transform="translate(87.52,170.848) scale(1.302) translate(-61,-113.1333)">
<path id="0" d="M191 227.1333 C191 227.1333 192.3143 224.9414 192 224.1333 C189.8203 218.5284 186.7763 216.7051 184 209.1333 C181.5075 202.3357 181.3644 201.5428 181 194.1333 C179.8934 171.6322 180.1955 170.6601 181 148.1333 C181.1761 143.2012 181.1098 142.4293 183 138.1333 C186.294 130.6469 191.9649 123.1105 192 123.1333 C196.0303 125.753 223.3499 149.8768 243 177.1333 C251.6444 189.124 253.9953 209.1218 254 209.1333 C254.0006 209.1349 253.5669 204.9996 254 204.1333 C254.2166 203.7002 255.6916 203.0212 257 203.1333 C271.5208 204.378 276.1919 206.7872 289 207.1333 C290.9622 207.1864 293.9512 205.0281 294 204.1333 C294.7739 189.9455 288.2263 169.4924 292 152.1333 C293.5146 145.1663 302.1906 143.6451 309 135.1333 C311.3143 132.2404 309.8017 130.3575 312 127.1333 C316.8542 120.0138 319.4366 117.3925 324 113.1333 C324.5462 112.6236 326.9052 112.9438 327 113.1333 C327.537 114.2073 326.3787 118.2321 328 121.1333 C334.8306 133.3565 338.906 133.7639 346 147.1333 C351.4365 157.3791 352.1505 158.8306 354 170.1333 C356.4471 185.0881 356.5805 188.2252 355 202.1333 C354.3714 207.6649 349 209.9782 349 214.1333 C349 219.3273 354.1853 221.9366 355 229.1333 C356.9745 246.5752 355 267.1333 355 267.1333 "/>
<path id="1" d="M192 232.1333 L200 260.1333 "/>
<path id="2" d="M216 258.1333 C216 258.1333 201.1038 264.7752 195 271.1333 C192.261 273.9864 192.506 277.2298 192 283.1333 C191.0505 294.2111 190.6854 296.2739 192 306.1333 C192.4306 309.3627 193.8757 311.8837 196 313.1333 C199.8638 315.4061 204.3246 314.0878 209 316.1333 C210.5517 316.8122 210.7866 319.9 212 320.1333 C219.4659 321.5691 235 321.1333 235 321.1333 "/>
<path id="3" d="M345 265.1333 C345 265.1333 354.5103 268.3923 360 273.1333 C364.1343 276.7039 365.1284 279.0534 367 284.1333 C368.1026 287.1262 368.1764 289.6335 367 292.1333 C365.123 296.122 363.4625 297.6005 359 301.1333 C351.9435 306.7197 350.6948 308.2146 343 311.1333 C337.7986 313.1063 330 312.1333 330 312.1333 "/>
<path id="4" d="M281 269.1333 C281 269.1333 279.7283 277.2224 277 282.1333 C275.5064 284.8218 270.999 287.1335 271 287.1333 C271.002 287.133 278.7651 284.2743 284 281.1333 C285.1984 280.4143 286.0217 278.1551 286 278.1333 C285.8479 277.9812 281.8597 278.1665 280 277.1333 C278.5185 276.3103 277 273.1333 277 273.1333 "/>
<path id="5" d="M276 291.1333 C276 291.1333 277.9966 291.1043 278 291.1333 C278.2466 293.2293 280.0476 302.1954 278 308.1333 C276.1393 313.5293 272.0074 319.1082 268 320.1333 C257.96 322.7017 240.4642 321.4101 235 319.1333 C233.5556 318.5315 232 305.1333 232 305.1333 "/>
<path id="6" d="M276 290.1333 C276 290.1333 275.7052 306.5278 278 315.1333 C278.5932 317.3577 281.2403 319.471 284 320.1333 C291.3744 321.9032 298.0882 322.0264 303 321.1333 C304.0203 320.9478 304.1136 317.5759 306 316.1333 C311.5616 311.8804 315.6878 312.9846 320 308.1333 C325.8824 301.5156 330 289.1333 330 289.1333 "/>
<path id="7" d="M265 321.1333 C265 321.1333 272.2807 324.3438 276 327.1333 C276.7799 327.7182 276.5541 329.8658 277 330.1333 C277.6369 330.5155 280.3631 330.5155 281 330.1333 C281.4459 329.8658 281.3087 327.5222 282 327.1333 C286.7269 324.4744 295.5375 322.3708 297 321.1333 C297.1625 320.9958 295 316.1333 295 316.1333 "/>
<path id="8" d="M301 234.1333 C301 234.1333 312.9238 234.026 315 235.1333 C315.6762 235.494 316.5055 240.4484 316 242.1333 C315.6831 243.1895 313.5558 245.0711 312 245.1333 C304.0999 245.4493 291.0398 243.1959 291 243.1333 C290.9998 243.133 305 234.1333 305 234.1333 "/>
<path id="9" d="M267 242.1333 C267 242.1333 255.4089 238.9832 251 240.1333 C248.4116 240.8086 244.1009 247.629 244 248.1333 C243.9893 248.187 246.8677 250.1333 249 250.1333 C253.691 250.1333 255.8631 249.9432 260 248.1333 C262.5039 247.0379 265 243.1333 265 243.1333 "/>
<path id="10" d="M225 331.1333 C225 331.1333 230.5526 331.5368 231 332.1333 C231.5694 332.8926 231.9186 336.2463 231 339.1333 C228.7393 346.2385 225.3182 346.9776 224 354.1333 C222.1388 364.2369 224.9936 366.2035 224 377.1333 C223.5562 382.015 221.0619 382.3682 221 387.1333 C220.5871 418.9232 220.8966 429.2436 223 454.1333 C223.1358 455.7408 226.1257 456.3848 227 458.1333 C227.5828 459.299 226.8752 462.106 227 462.1333 C231.6568 463.152 255.7692 465.4362 259 465.1333 C259.0573 465.128 258.0876 460.8277 259 459.1333 C260.6376 456.0921 265.8034 453.8044 266 452.1333 C266.2365 450.123 261.5736 446.7219 261 442.1333 C259.8191 432.6864 260.9542 424.1421 262 420.1333 C262.1083 419.7184 265.5046 420.2209 267 419.1333 C269.8958 417.0273 270.2491 413.2337 273 412.1333 C277.5016 410.3327 281.0499 409.7946 287 411.1333 C299.2026 413.8789 308.7279 417.0255 313 421.1333 C314.7301 422.7969 313.9237 428.9748 313 436.1333 C311.983 444.0154 309.2831 445.6231 309 452.1333 C308.8798 454.8984 310.0434 456.9811 312 459.1333 C314.0846 461.4264 315.7782 462.7306 319 463.1333 C329.7395 464.4758 335.0631 464.366 344 463.1333 C345.6271 462.9089 347.4579 460.9765 348 459.1333 C349.3922 454.3997 347.7462 451.4618 349 446.1333 C349.4458 444.2388 351.7317 443.9445 352 442.1333 C353.3975 432.6999 354.3951 429.8958 353 419.1333 C351.0457 404.0572 346.6348 403.5006 345 388.1333 C341.7555 357.6349 343 325.1333 343 325.1333 "/>
<path id="11" d="M360 237.1333 C360 237.1333 374.0833 234.6429 387 236.1333 C412.0574 239.0246 414.9589 238.1787 438 246.1333 C454.7393 251.9124 454.2826 256.9385 471 265.1333 C479.2735 269.189 480.6414 267.3864 489 271.1333 C494.7117 273.6938 495.0301 274.2097 500 278.1333 C504.3052 281.5322 504.9672 281.8008 508 286.1333 C511.6126 291.2942 510.5446 293.5261 514 298.1333 C515.7801 300.5068 518.5854 299.7285 520 302.1333 C527.1835 314.3453 526.4287 318.1264 534 332.1333 C536.0644 335.9525 538.3005 335.7342 540 339.1333 C541.2747 341.6826 540.9085 342.6578 541 346.1333 C541.4035 361.4673 543.2636 362.646 541 377.1333 C538.4762 393.2855 537.4784 395.3256 531 410.1333 C527.5658 417.9829 526.2958 418.8375 520 425.1333 C510.3141 434.8192 509.4712 436.5435 498 443.1333 C487.2986 449.281 485.5956 449.093 473 452.1333 C457.1436 455.9607 456.407 455.9779 440 457.1333 C421.3065 458.4498 420.8928 457.7738 402 457.1333 C391.5255 456.7783 390.9964 457.0077 381 455.1333 C375.5049 454.103 372.9406 454.0739 370 451.1333 C364.7069 445.8403 362.3603 442.2871 360 434.1333 C357.4742 425.4079 356.7475 422.0024 359 413.1333 C364.0289 393.3322 366.0362 385.0302 376 371.1333 C380.7911 364.451 386.2399 364.7749 397 360.1333 C411.5216 353.8691 412.3333 351.5117 427 349.1333 C447.3787 345.8287 465.8953 347.3212 471 348.1333 C471.1482 348.1569 472.1026 353.1405 471 356.1333 C469.1284 361.2133 468.0618 362.5936 464 367.1333 C460.0125 371.59 459.1784 373.0011 454 375.1333 C443.6891 379.379 440.6141 377.4733 430 381.1333 C427.4026 382.029 425.4886 383.472 425 385.1333 C423.8389 389.0812 424.2045 397.6914 425 398.1333 C428.0965 399.8536 440.7951 400.7924 452 400.1333 C455.0158 399.9559 456.2208 398.6709 459 396.1333 C467.2243 388.6242 471.1452 385.8151 475 379.1333 C476.2378 376.9877 475.3534 373.2912 474 370.1333 C472.9747 367.741 469 365.1333 469 365.1333 "/>
<path id="12" d="M321 198.1333 C321 198.1333 313.5023 192.3232 312 187.1333 C308.9547 176.6131 310 173.2905 310 160.1333 C310 153.7984 310.3945 149.1403 312 147.1333 C313.0997 145.7587 319.6663 144.1332 322 145.1333 C326.0111 146.8524 329.2695 150.4133 333 156.1333 C335.9986 160.7313 334.3892 162.9118 337 168.1333 C338.5851 171.3036 341.3902 171.3455 342 174.1333 C344.2728 184.5232 344 200.1333 344 200.1333 "/>
<path id="13" d="M213 224.1333 C213 224.1333 207.2317 223.365 205 221.1333 C200.3338 216.4671 199.0286 214.2 196 207.1333 C193.4075 201.0842 193.133 199.9167 193 193.1333 C192.6503 175.2997 193.5143 158.9396 195 156.1333 C195.2136 155.73 205.508 155.7771 211 159.1333 C220.7351 165.0825 224.1392 168.2233 231 178.1333 C236.1898 185.6297 236.2085 188.4078 238 198.1333 C239.5147 206.3561 238 216.1333 238 216.1333 "/>
<path id="14" d="M253 239.1333 L253 248.1333 "/>
<path id="15" d="M306 240.1333 L306 235.1333 "/>
<path id="16" d="M330 271.1333 C330 271.1333 331.1775 268.2931 333 267.1333 C351.4939 255.3645 352.8537 252.1362 374 243.1333 C402.1119 231.1649 404.5768 234.9419 434 224.1333 C477.8658 208.0193 521 189.1333 521 189.1333 "/>
<path id="17" d="M343 281.1333 C343 281.1333 360.108 284.1507 375 281.1333 C434.2333 269.1318 435.6515 264.4819 496 250.1333 C506.6778 247.5946 518 247.1333 518 247.1333 "/>
<path id="18" d="M344 290.1333 C344 290.1333 353.6395 296.7932 363 299.1333 C374.2326 301.9415 375.5199 300.6341 388 301.1333 C400.4403 301.6309 400.9072 302.477 413 301.1333 C427.3501 299.5389 427.6522 296.381 442 295.1333 C461.4404 293.4429 482 295.1333 482 295.1333 "/>
<path id="19" d="M235 293.1333 C235 293.1333 227.917 285.346 220 282.1333 C195.2291 272.0814 192.2453 275.0423 166 265.1333 C143.6066 256.6787 144.274 253.6326 122 245.1333 C106.7136 239.3003 90 236.1333 90 236.1333 "/>
<path id="20" d="M205 299.1333 C205 299.1333 200.0569 294.3273 195 293.1333 C166.3873 286.3775 163.8998 285.1311 133 282.1333 C97.6285 278.7018 61 280.1333 61 280.1333 "/>
<path id="21" d="M214 309.1333 C214 309.1333 199.8826 318.692 185 326.1333 C168.1331 334.5668 167.779 334.6492 150 341.1333 C125.4712 350.0791 125.1531 350.5592 100 357.1333 C81.5097 361.966 62 364.1333 62 364.1333 "/>
</g>
</g>
</svg>
