<?xml version="1.0" encoding="utf-8"?>
<!DOCTYPE svg PUBLIC "-//W3C//DTD SVG 1.1//EN" "http://www.w3.org/Graphics/SVG/1.1/DTD/svg11.dtd">
<svg viewBox="0 0 800 800" preserveAspectRatio="xMinYMin meet" xmlns="http://www.w3.org/2000/svg" version="1.1">
<g fill="none" stroke="black" stroke-linecap="round" stroke-linejoin="round" stroke-width="1.6657">
<g transform="translate(107.3314,87.52) scale(1.801) translate(-155,-41)">
<path id="0" d="M258 91 C258 91 247.9435 87.9816 240 89 C230.1969 90.2568 227.4982 91.2197 219 96 C213.1428 99.2947 212.333 101.0163 208 107 C202.2331 114.9638 199.9689 116.5338 198 125 C195.5783 135.4133 197.0229 137.9497 198 150 C198.4785 155.9014 198.5399 157.0799 201 162 C203.5512 167.1023 204.4359 168.1661 209 172 C216.3026 178.1342 217.3554 178.9478 226 183 C232.5841 186.0863 240.8553 187.0121 241 187 C241.0255 186.9979 238 182 238 182 "/>
<path id="1" d="M259 91 C259 91 284.0417 88.6689 301 92 C307.4159 93.2603 310.3654 96.0619 315 102 C324.9769 114.7829 327.4348 117.9739 333 133 C336.5077 142.4708 336.7987 147.2313 335 156 C333.5627 163.007 330.8834 165.8903 325 172 C318.9381 178.2951 317.2354 179.3157 309 183 C299.2832 187.347 297.705 188.2767 287 189 C262.1874 190.6765 235 188 235 188 "/>
<path id="2" d="M226 152 C226 152 229.3991 151.1996 231 152 C235.0022 154.0011 235.6625 157.0722 240 159 C243.3825 160.5033 244.5196 159.9138 249 160 C270.3608 160.4108 277.6455 162.0506 292 160 C294.3368 159.6662 298 153 298 153 "/>
<path id="3" d="M265 141 C265 141 266.9625 141.681 267 142 C267.4861 146.1317 267 158 267 158 "/>
<path id="4" d="M240 116 C240 116 238.0399 111.1657 236 110 C232.9401 108.2515 228.8763 107.5891 226 108 C224.6464 108.1934 222.1731 110.6152 222 112 C221.548 115.6158 222.8013 123.041 224 124 C225.3434 125.0747 235.5822 124.9114 237 124 C237.7401 123.5242 238 115 238 115 "/>
<path id="5" d="M309 112 C309 112 299.5859 110.631 297 112 C294.8958 113.114 293.0217 117.1688 292 121 C291.4331 123.1257 292.3854 126.6927 293 127 C295.0743 128.0372 304.5757 128.9792 306 128 C307.3014 127.1053 309.3167 118.3751 309 116 C308.8999 115.2493 304 113 304 113 "/>
<path id="6" d="M302 111 C302 111 302.0799 127.3606 302 128 C301.9965 128.0282 300 127 300 127 "/>
<path id="7" d="M230 109 L231 122 "/>
<path id="8" d="M241 87 C241 87 241.2142 82.9731 240 81 C237.9246 77.6274 236.911 76.7138 233 74 C212.967 60.0996 212.182 59.0519 191 47 C183.8311 42.9211 175.0024 40.9159 175 41 C174.9824 41.6156 181.8436 62.1915 190 82 C192.1561 87.2362 194.4741 87.041 196 92 C198.1402 98.9555 198 108 198 108 "/>
<path id="9" d="M298 91 C298 91 301.1 85.6562 305 82 C308.6947 78.5362 309.2439 77.9817 314 76 C332.5419 68.2742 352.504 61.7024 353 62 C353.1653 62.0992 349.5671 79.3864 344 94 C342.0096 99.2248 340.9292 99.8088 337 104 C333.7973 107.4162 329 110 329 110 "/>
<path id="10" d="M251 147 C251 147 221.0551 147.0679 195 145 C191.6419 144.7335 188 142 188 142 "/>
<path id="11" d="M240 152 L177 152 "/>
<path id="12" d="M251 141 C251 141 229.4383 142.0827 210 140 C202.6537 139.2129 195 135 195 135 "/>
<path id="13" d="M284 145 L354 145 "/>
<path id="14" d="M292 149 L346 150 "/>
<path id="15" d="M299 154 L354 174 "/>
<path id="16" d="M320 179 C320 179 322.6212 180.5267 323 182 C326.3694 195.1031 324.6756 198.6242 329 214 C333.5411 230.146 336.4557 230.0951 341 246 C343.2538 253.8883 342.984 262.9681 343 263 C343.0049 263.0098 343.8349 258.1651 346 256 C351.6292 250.3708 353.3163 249.2687 361 245 C366.1764 242.1242 367.1547 241.7794 373 241 C381.3948 239.8807 383.516 240.2872 391 241 C392.3265 241.1263 393.5508 241.8943 394 243 C398.7537 254.7014 399.6491 257.9392 404 273 C406.099 280.2658 406.3812 280.5739 407 288 C407.8522 298.2261 409.5145 300.3789 407 309 C403.2782 321.7606 401.2728 324.6938 393 336 C387.2898 343.804 384.7027 346.0244 377 350 C371.683 352.7442 362.345 352.0531 362 352 C361.9675 351.995 364 348 364 348 "/>
<path id="17" d="M215 181 C215 181 220.4251 187.8403 221 194 C223.6326 222.2062 222.0176 255.9295 222 256 C221.9945 256.022 215.6336 237.2884 211 234 C207.5177 231.5287 199.2181 231.6259 191 234 C179.1842 237.4135 171.9855 239.5181 166 247 C158.5997 256.2504 158.1691 263.4424 155 279 C152.9638 288.9959 153.4009 290.7202 155 301 C156.7509 312.2559 156.7215 314.2251 162 324 C169.4505 337.7973 171.6105 343.5789 182 351 C191.1805 357.5575 210.7713 358.9085 211 359 C211.0227 359.0091 207.2409 360.3577 207 361 C206.6129 362.0323 207.5855 366.6545 208 367 C208.2879 367.2399 212.4009 366.699 213 366 C213.7772 365.0933 214.0826 360.4954 214 360 C213.9953 359.9717 212 360 212 360 C212 360.4603 213.6 366.925 214 367 C215.6 367.3 227.1028 362.9359 228 363 C228.0234 363.0017 227.3028 366.9541 228 368 C229.1156 369.6734 231.2751 370.7889 234 372 C235.051 372.4671 236.9007 372.1654 237 372 C237.2757 371.5404 237.7644 368.8563 237 367 C234.7249 361.4748 230.1323 355.3969 230 355 C229.9908 354.9723 233 355 233 355 "/>
<path id="18" d="M362 354 C362 354 359.0071 366.4911 357 369 C356.4084 369.7395 352.1727 369.9053 350 369 C347.8014 368.0839 345 364 345 364 C345 364 347 365.5669 347 366 C347 366.8662 345.6512 369.8224 345 370 C343.1612 370.5015 338.508 370.4331 336 369 C333.6417 367.6524 331.0001 362.0001 331 362 C330.9999 362 334.0688 367.8625 334 368 C333.9542 368.0917 329.8114 368.8234 328 368 C325.8044 367.002 323.4229 364.5507 323 363 C322.6375 361.6708 325 357 325 357 "/>
<path id="19" d="M240 360 C240 360 250.6331 356.1012 251 354 C253.6402 338.8786 251.8581 324.029 251 297 C250.9087 294.1247 249.0001 290.998 249 291 C248.9993 291.0253 248.6256 358.3896 249 368 C249.0006 368.0146 251.6711 368.4019 252 368 C254.1315 365.3948 258 357 258 357 "/>
<path id="20" d="M285 293 C285 293 284.6601 308.3003 287 320 C287.7686 323.843 290.7717 323.8765 292 328 C297.3951 346.1122 301 367 301 367 "/>
<path id="21" d="M278 300 C278 300 279.0546 304.9678 278 309 C270.9171 336.0815 261.0797 364.7654 261 365 C260.9966 365.0101 260.0921 362 260 362 C259.4471 362 254 365 254 365 "/>
<path id="22" d="M247 359 C247 359 244.8841 377.5362 245 378 C245.0094 378.0376 250.0669 376.4663 251 375 C252.1819 373.1427 251.9977 366.9983 252 367 C252.0051 367.0038 254.1904 377.7017 255 378 C256.6675 378.6144 264.3645 376.4446 271 374 C272.5589 373.4257 273.3443 372.3114 274 371 C274.4371 370.1257 274.3118 368.4158 274 368 C273.6622 367.5496 271 367 271 367 "/>
<path id="23" d="M326 297 C326 297 326.8529 302.8827 326 308 C324.9404 314.3579 322.2842 314.747 322 321 C320.8582 346.1196 323.2848 371.0954 323 374 C322.9924 374.0775 317 372 317 372 "/>
<path id="24" d="M299 370 C299 370 300.5022 377.7737 301 378 C301.6744 378.3065 307.0538 376.9641 310 375 C311.6963 373.8691 312.8685 369.9836 313 370 C313.3183 370.0398 317.9923 376.0108 318 376 C318.0413 375.9422 318 363 318 363 "/>
<path id="25" d="M410 290 C410 290 416.4718 284.969 421 279 C427.1668 270.871 427.569 270.1574 432 261 C434.8376 255.1357 432.981 253.4342 436 248 C439.9886 240.8205 441.108 239.0885 447 234 C450.9087 230.6243 452.8893 229.6195 458 229 C467.6342 227.8322 480.0003 229.9945 480 230 C479.9412 231.0874 462.9073 249.1462 456 266 C452.1708 275.3431 457.1015 279.8919 455 291 C453.9041 296.7924 452.7797 299.0214 449 303 C444.6544 307.5743 442.7557 308.3291 436 311 C421.9734 316.5454 406 320 406 320 "/>
<path id="26" d="M238 157 L157 160 "/>
<path id="27" d="M313 154 L369 173 "/>
<path id="28" d="M220 256 L225 274 "/>
<path id="29" d="M348 261 C348 261 343.3858 264.5355 342 268 C339.9656 273.0861 340 281 340 281 "/>
<path id="30" d="M217 362 C217 362 205.8706 364.595 204 367 C202.2945 369.1928 202.4916 378.8985 203 380 C203.131 380.2838 207.2 380.875 210 380 C214.225 378.6797 216.928 376.8418 219 375 C219.411 374.6347 218.9987 371.9981 219 372 C219.005 372.0075 220.6975 379.0264 223 381 C225.471 383.118 229.5491 384.3633 233 384 C236.3946 383.6427 239.3587 381.3772 242 379 C242.9 378.19 243 375 243 375 "/>
<path id="31" d="M282 312 L283 370 "/>
<path id="32" d="M288 369 C288 369 283.3114 372.3772 282 375 C281.1257 376.7485 281.2642 378.6087 282 381 C283.0094 384.2804 285.0361 387.8394 286 388 C288.4875 388.4146 296.7959 385.9225 300 384 C300.7815 383.5311 300.995 378.9963 301 379 C301.0164 379.0123 302.4986 385.9606 304 387 C305.8801 388.3016 309.7147 388.5042 314 388 C317.1885 387.6249 319.6431 386.5266 321 385 C322.0136 383.8597 322 379 322 379 "/>
<path id="33" d="M221 179 C221 179 215.1045 187.278 211 196 C207.2515 203.9656 206.4168 204.7352 205 213 C203.5854 221.2517 204.5094 226.3392 205 231 C205.033 231.3134 207 232 207 232 "/>
<path id="34" d="M323 176 C323 176 337.1391 182.9176 347 192 C355.0187 199.3856 356.4818 201.2858 361 211 C365.7448 221.2013 365.4754 223.4131 367 235 C367.8529 241.4823 366 249 366 249 "/>
</g>
</g>
</svg>
