<?xml version="1.0" encoding="utf-8"?>
<!DOCTYPE svg PUBLIC "-//W3C//DTD SVG 1.1//EN" "http://www.w3.org/Graphics/SVG/1.1/DTD/svg11.dtd">
<svg viewBox="0 0 800 800" preserveAspectRatio="xMinYMin meet" xmlns="http://www.w3.org/2000/svg" version="1.1">
<g fill="none" stroke="black" stroke-linecap="round" stroke-linejoin="round" stroke-width="1.5553">
<g transform="translate(87.52,128.9911) scale(1.9289) translate(-126,-30.4167)">
<path id="0" d="M130 174.4167 C130 174.4167 126.5075 166.6915 126 159.4167 C125.0722 146.1182 126.6612 132.8849 127 131.4167 C127.0102 131.3727 131.5445 132.293 132 133.4167 C136.4178 144.3139 139.9015 166.3932 142 168.4167 C142.4933 168.8924 151.9697 161.396 160 160.4167 C169.5785 159.2486 179.495 165.5955 183 163.4167 C188.0021 160.3073 197 137.4167 197 137.4167 "/>
<path id="1" d="M197 137.4167 C197 137.4167 198.2086 158.8709 201 176.4167 C201.3857 178.8413 203.6046 179.044 204 181.4167 C205.3781 189.685 203.6477 191.627 205 200.4167 C205.5268 203.8408 207.5433 204.0679 208 207.4167 C208.9245 214.1964 210.1655 218.2301 208 222.4167 C204.8588 228.4896 199.433 228.9115 193 236.4167 C187.7989 242.4847 187.995 248.4192 184 250.4167 C178.6317 253.1008 169.6743 253.705 163 251.4167 C157.0365 249.3721 156.3026 243.6746 149 238.4167 C144.4359 235.1305 141.5418 236.5157 138 233.4167 C135.0341 230.8215 133.9193 228.6456 133 224.4167 C131.724 218.5472 134.1712 216.741 133 210.4167 C131.835 204.1258 129.2097 203.7073 128 197.4167 C126.8736 191.5593 127.0908 189.8718 128 184.4167 C128.3847 182.1087 131 179.4167 131 179.4167 "/>
<path id="2" d="M204 182.4167 C204 182.4167 207.2313 178.8362 210 178.4167 C221.3798 176.6925 230.0414 181.4142 237 177.4167 C245.8164 172.3519 245.683 161.6455 257 151.4167 C270.2632 139.4288 274.1937 134.796 289 130.4167 C304.1119 125.9469 310.0737 128.2152 328 130.4167 C336.6688 131.4813 341.7515 138.2914 346 137.4167 C350.8447 136.4192 357.2791 130.498 362 123.4167 C365.5726 118.0578 362.898 114.5069 366 107.4167 C369.5607 99.2779 372.0191 99.7404 376 91.4167 C382.8458 77.1027 379.6447 71.0434 388 61.4167 C398.8557 48.9091 406.1527 47.0606 422 38.4167 C425.5904 36.4583 428.0717 38.988 432 37.4167 C436.8348 35.4827 437.4282 32.1946 442 30.4167 C444.8748 29.2987 449.36 29.9367 450 30.4167 C450.36 30.6867 450.7903 34.0458 450 36.4167 C448.595 40.6316 447.6405 42.7762 445 45.4167 C443.4911 46.9255 440.8739 45.751 439 47.4167 C433.1107 52.6516 433.509 56.3541 427 61.4167 C421.1861 65.9386 417.3848 63.8012 412 68.4167 C404.9302 74.4765 405.1137 76.6829 399 85.4167 C391.1529 96.6267 388.4752 97.5084 384 108.4167 C381.481 114.5568 384.4271 116.996 383 124.4167 C382.0509 129.352 381.9736 130.9259 379 134.4167 C371.6399 143.0568 366.9088 143.817 360 151.4167 C358.8088 152.727 358.6105 155.3781 359 156.4167 C359.3789 157.4272 362.4526 157.9308 363 159.4167 C365.0931 165.0979 365.1479 167.4072 366 175.4167 C367.6297 190.7359 370.2278 193.7924 368 206.4167 C366.405 215.4548 360.1729 217.8499 357 226.4167 C356.1262 228.7758 357.5188 233.0042 358 233.4167 C358.3536 233.7197 362.6544 232.0803 364 232.4167 C364.6435 232.5776 365.7516 234.0506 366 235.4167 C366.5907 238.6657 366.9148 239.8717 366 243.4167 C363.1338 254.5233 363.8999 257.2814 358 266.4167 C349.6521 279.3425 345.038 282.7171 335 291.4167 C333.2321 292.9488 330.0037 292.9631 328 292.4167 C326.4837 292.0031 324.6381 290.1716 324 288.4167 C323.181 286.1645 323.6231 282.0763 324 281.4167 C324.1231 281.2013 328 281.4167 328 281.4167 C328 281.4166 324.2732 280.8947 324 280.4167 C323.5012 279.5438 322.9973 275.805 324 274.4167 C327.5743 269.4676 332.3805 268.884 337 262.4167 C341.5575 256.0362 341.5829 254.0131 344 246.4167 C344.7956 243.9161 344.2466 240.5091 344 240.4167 C342.2466 239.7591 331.8446 242.2554 328 240.4167 C325.0539 239.0077 321.5672 234.1808 321 229.4167 C319.5256 217.0317 321.3743 212.6415 323 198.4167 C323.2201 196.4905 323.8343 195.2909 325 194.4167 C326.7485 193.1053 331 192.4167 331 192.4167 "/>
<path id="3" d="M193 233.4167 C193 233.4167 196.171 248.9207 201 253.4167 C205.9916 258.064 222 260.4167 222 260.4167 "/>
<path id="4" d="M232 222.4167 C232 222.4167 235.3888 250.7643 231 269.4167 C228.7209 279.1029 224.123 281.044 216 290.4167 C211.5722 295.5257 208.1204 295.2562 205 299.4167 C203.5981 301.2859 203.6844 306.1642 204 306.4167 C204.8096 307.0644 213.8397 307.9968 215 307.4167 C215.4973 307.168 215.9996 300.4163 216 300.4167 C216.0006 300.4173 216.9859 309.4143 217 309.4167 C217.0208 309.4201 221.9767 301.41 222 301.4167 C222.0417 301.4286 223.9991 311.4168 224 311.4167 C224.015 311.4142 225.0816 305.0861 228 300.4167 C237.1064 285.8464 242.5028 285.494 249 271.4167 C253.0947 262.5449 249.2788 257.185 252 248.4167 C252.894 245.536 256.2225 245.6162 258 242.4167 C260.7086 237.5412 262 230.4167 262 230.4167 "/>
<path id="5" d="M222 260.4167 L231 260.4167 "/>
<path id="6" d="M208 258.4167 C208 258.4167 209.9196 265.4739 209 268.4167 C208.2524 270.8088 206.1053 272.864 203 274.4167 C198.3421 276.7456 195.8191 275.3083 191 277.4167 C188.9185 278.3273 187.7034 279.6581 187 281.4167 C186.2463 283.3009 186.8382 287.3088 187 287.4167 C187.1888 287.5425 192.8004 285.2456 193 285.4167 C193.3659 285.7303 193.9965 293.4167 194 293.4167 C194.0141 293.4167 197.921 285.428 198 285.4167 C198.0307 285.4123 200.9435 292.4526 201 292.4167 C202.8579 291.2344 231 264.4167 231 264.4167 "/>
<path id="7" d="M257 250.4167 C257 250.4167 269.0738 252.6184 277 250.4167 C284.4418 248.3495 285.1648 243.103 293 240.4167 C300.9389 237.6948 304.5369 240.9902 312 238.4167 C316.836 236.7491 322 230.4167 322 230.4167 "/>
<path id="8" d="M296 241.4167 C296 241.4167 299.7972 244.2516 301 246.4167 C301.6186 247.5301 300.6107 250.1442 301 250.4167 C302.6823 251.5943 308.5807 251.8771 311 253.4167 C311.7203 253.875 312.4146 256.9244 312 257.4167 C308.1513 261.9869 300.9289 265.2396 295 272.4167 C293.0296 274.8019 292.7294 279.0639 293 280.4167 C293.0997 280.9151 296.4789 282.6121 297 282.4167 C297.9419 282.0635 300.9703 277.4241 301 277.4167 C301.0056 277.4153 300.6234 280.946 301 281.4167 C301.3954 281.9109 304.4614 282.7244 305 282.4167 C305.9201 281.8909 307.9571 277.4274 308 277.4167 C308 277.4167 308.1903 280.445 309 281.4167 C309.8935 282.4888 312.9925 283.4304 313 283.4167 C313.9743 281.6452 315.5717 270.5897 320 261.4167 C321.811 257.6652 325.823 257.6535 327 254.4167 C328.8945 249.2068 328 239.4167 328 239.4167 "/>
<path id="9" d="M133 179.4167 L131 173.4167 "/>
<path id="10" d="M143 189.4167 C143 189.4167 140.0037 188.3965 140 188.4167 C139.9045 188.942 139.4982 196.9841 141 200.4167 C141.7999 202.2451 146.9842 204.4364 147 204.4167 C147.3075 204.0323 149.5625 193.6041 149 190.4167 C148.84 189.5099 144 187.4167 144 187.4167 "/>
<path id="11" d="M182 181.4167 C182 181.4167 178.0509 182.128 178 182.4167 C177.5274 185.0946 178.3661 197.4306 179 198.4167 C179.1197 198.6029 186.4036 197.3857 187 196.4167 C187.9475 194.8769 187.9976 189.1577 187 185.4167 C186.5405 183.6935 183 181.4167 183 181.4167 "/>
<path id="12" d="M143 193.4167 L146 200.4167 "/>
<path id="13" d="M180 186.4167 L186 194.4167 "/>
<path id="14" d="M163 201.4167 C163 201.4167 162.2462 214.0974 163 215.4167 C163.2462 215.8474 170.4443 216.0835 171 215.4167 C172.1391 214.0497 173.9426 205.8404 173 203.4167 C172.2021 201.3649 165.0698 197.5058 164 197.4167 C163.7091 197.3924 161 202.4167 161 202.4167 "/>
<path id="15" d="M163 229.4167 C163 229.4167 163.3677 235.679 164 236.4167 C164.3449 236.819 168.1283 237.0947 169 236.4167 C170.6465 235.136 171.9946 229.726 173 229.4167 C174.3195 229.0107 181.5891 232.7155 182 232.4167 C182.6027 231.9784 184 221.4167 184 221.4167 "/>
<path id="16" d="M189 220.4167 C189 220.4167 192.7403 211.4295 198 204.4167 C202.8551 197.9432 210 192.4167 210 192.4167 "/>
<path id="17" d="M157 231.4167 L138 246.4167 "/>
<path id="18" d="M184 227.4167 C184 227.4167 183.64 224.7253 184 224.4167 C185.3401 223.268 188.7396 223.1748 191 221.4167 C192.2378 220.4539 191.7576 218.0856 193 217.4167 C201.7885 212.6844 217 207.4167 217 207.4167 "/>
<path id="19" d="M193 225.4167 L205 225.4167 "/>
<path id="20" d="M165 233.4167 L149 250.4167 "/>
<path id="21" d="M167 235.4167 C167 235.4167 166.6181 246.1442 164 253.4167 C162.7431 256.9081 158 260.4167 158 260.4167 "/>
</g>
</g>
</svg>
