<?xml version="1.0" encoding="utf-8"?>
<!DOCTYPE svg PUBLIC "-//W3C//DTD SVG 1.1//EN" "http://www.w3.org/Graphics/SVG/1.1/DTD/svg11.dtd">
<svg viewBox="0 0 800 800" preserveAspectRatio="xMinYMin meet" xmlns="http://www.w3.org/2000/svg" version="1.1">
<g fill="none" stroke="black" stroke-linecap="round" stroke-linejoin="round" stroke-width="1.5553">
<g transform="translate(172.3911,87.52) scale(1.9289) translate(-237,-136.6667)">
<path id="0" d="M279 177.6667 C279 177.6667 267.5676 183.884 259 190.6667 C256.5252 192.6259 255.5357 193.8098 255 196.6667 C252.907 207.8295 251.6762 211.2816 253 222.6667 C253.9152 230.5376 255.6034 232.5222 260 239.6667 C262.9998 244.5414 264.0719 245.6078 269 248.6667 C277.6446 254.0323 279.4653 256.2826 289 257.6667 C307.795 260.395 311.0984 258.4959 331 257.6667 C333.8826 257.5466 334.8218 257.264 337 255.6667 C341.5509 252.3293 344.5303 250.7818 346 246.6667 C348.3292 240.145 348.4887 235.961 347 227.6667 C345.3044 218.2198 343.8851 216.9717 339 207.6667 C333.585 197.3523 333.1275 193.2103 326 187.6667 C318.7061 181.9936 314.1852 181.3237 303 179.6667 C288.663 177.5427 272 179.6667 272 179.6667 "/>
<path id="1" d="M263 187.6667 C263 187.6667 255.4487 173.8865 252 160.6667 C249.7762 152.1421 250.991 141.6681 251 141.6667 C251.0533 141.6585 257.261 151.3699 265 158.6667 C274.3001 167.4353 276.7804 166.5996 286 174.6667 C287.9427 176.3665 289 179.6667 289 179.6667 "/>
<path id="2" d="M306 182.6667 C306 182.6667 320.6897 137.1321 321 136.6667 C321.0462 136.5974 325.4455 142.9856 328 149.6667 C331.7958 159.5942 332.3243 160.1934 334 170.6667 C336.2373 184.6501 336 199.6667 336 199.6667 "/>
<path id="3" d="M279 200.6667 C279 200.6667 282.5436 204.0452 284 206.6667 C284.4977 207.5626 284.0035 209.669 284 209.6667 C283.9889 209.6593 281 204.6667 281 204.6667 "/>
<path id="4" d="M306 202.6667 C306 202.6667 309.0003 209.6669 309 209.6667 C308.9995 209.6663 302.4521 200.6613 302 199.6667 C301.9969 199.6598 303.8105 198.5719 304 198.6667 C304.4422 198.8878 306 201.6667 306 201.6667 "/>
<path id="5" d="M297 213.6667 C297 213.6667 297 219.6667 297 219.6667 C297 219.6667 296.8 216.0667 297 215.6667 C297.05 215.5667 299 215.6667 299 215.6667 "/>
<path id="6" d="M298 224.6667 C298 224.6667 257 225.6667 257 225.6667 C257 225.6667 273.3232 225.2344 289 223.6667 C292.9922 223.2674 296.9216 221.7294 297 221.6667 C297.0114 221.6575 295.2852 219.7095 294 219.6667 C270.1121 218.8704 237 219.6667 237 219.6667 C237 219.6667 265.5353 222.7772 294 223.6667 C329.3784 224.7722 365 223.6667 365 223.6667 C365 223.6667 298.0013 224.6668 298 224.6667 C297.9996 224.6666 309.5858 221.7802 321 220.6667 C329.7838 219.8097 330.4895 221.8487 339 220.6667 C347.8388 219.4391 357.0026 215.6673 357 215.6667 C356.9939 215.6652 337.1082 214.0355 318 215.6667 C296.6392 217.4902 275 222.6667 275 222.6667 C275 222.6667 316 217.6667 316 217.6667 "/>
<path id="7" d="M292 223.6667 C292 223.6667 297.6394 234.422 301 235.6667 C305.3142 237.2645 315.2377 235.6374 319 233.6667 C320.5237 232.8685 322 224.6667 322 224.6667 "/>
<path id="8" d="M275 254.6667 C275 254.6667 275.7193 257.8223 275 258.6667 C267.3409 267.6578 261.1526 270.4019 252 281.6667 C249.4889 284.7573 249.1864 286.3803 249 290.6667 C248.2457 308.0164 246.8443 310.8365 250 327.6667 C252.4662 340.8197 261 354.6667 261 354.6667 "/>
<path id="9" d="M347 239.6667 C347 239.6667 351.6954 240.5187 355 242.6667 C361.1442 246.6604 363.2386 247.0245 367 252.6667 C374.105 263.3241 374.4465 265.5754 379 278.6667 C382.2281 287.9475 380.4268 289.8443 383 298.6667 C383.5926 300.6986 385.8683 300.9284 386 302.6667 C387.9361 328.2235 388.4023 337.3073 388 364.6667 C387.9608 367.3351 385 370.6667 385 370.6667 "/>
<path id="10" d="M261 353.6667 C261 353.6667 269.0283 361.3867 271 368.6667 C274.7647 382.5672 272.1682 397.3489 274 401.6667 C274.2494 402.2546 279.8827 400.8138 285 401.6667 C291.3579 402.7263 291.7493 405.4199 298 405.6667 C327.9098 406.8473 332.2177 407.0004 361 404.6667 C366.204 404.2447 368.3557 402.5301 372 399.6667 C373.8832 398.187 372.9318 395.5469 375 393.6667 C382.7614 386.6109 387.0004 386.333 394 379.6667 C395.67 378.0762 396.2751 375.8673 396 373.6667 C395.4977 369.6482 392.0045 363.6711 392 363.6667 C391.9981 363.6648 391.0693 368.6812 392 369.6667 C396.3519 374.2746 401.2091 380.1321 409 381.6667 C428.7942 385.5655 434.9499 381.0491 458 382.6667 C461.8568 382.9373 463.2811 383.4916 466 385.6667 C469.7123 388.6365 471.3257 390.6005 473 394.6667 C474.1273 397.4043 473.9869 399.706 473 402.6667 C471.9309 405.8741 471.0389 407.3139 468 409.6667 C456.5781 418.5094 455.6111 421.1111 442 426.6667 C408.3686 440.3938 406.1909 441.5713 370 449.6667 C331.3153 458.3198 294.5387 460.322 290 460.6667 C289.9225 460.6726 290.0548 456.5173 291 455.6667 C293.1653 453.7179 295.5865 452.3457 300 451.6667 C313.9114 449.5265 315.3308 451.7961 330 449.6667 C345.9893 447.3457 347.6143 448.695 362 442.6667 C398.4466 427.3938 416.0924 416.027 435 405.6667 C435.3332 405.4841 435.4952 403.3034 435 402.6667 C433.1108 400.2377 431.7899 399.0354 428 396.6667 C416.1014 389.2301 414.4551 390.5044 403 382.6667 C395.9735 377.8591 390 370.6667 390 370.6667 "/>
<path id="11" d="M287 401.6667 C287 401.6667 290.5428 358.38 289 341.6667 C288.852 340.0633 281 336.6667 281 336.6667 "/>
<path id="12" d="M319 404.6667 C319 404.6667 320.3462 398.4918 323 393.6667 C325.5834 388.9695 329.0353 388.5255 330 384.6667 C331.3237 379.372 327.9581 376.3351 329 369.6667 C330.2591 361.6085 333.3483 360.9249 335 352.6667 C336.1798 346.7679 334.122 345.52 335 339.6667 C335.5032 336.3122 338 332.6667 338 332.6667 "/>
<path id="13" d="M346 340.6667 C346 340.6667 347.9662 341.9072 348 342.6667 C348.6948 358.2997 349.7796 365.7348 348 385.6667 C347.4435 391.8995 344.135 392.7081 343 398.6667 C342.3647 402.0018 344 406.6667 344 406.6667 "/>
<path id="14" d="M276 206.6667 L286 202.6667 "/>
<path id="15" d="M305 203.6667 L309 202.6667 "/>
<path id="16" d="M304 205.6667 L313 202.6667 "/>
<path id="17" d="M268 182.6667 C268 182.6667 265.8244 171.8227 266 171.6667 C266.1881 171.4995 277 174.6667 277 174.6667 "/>
<path id="18" d="M317 181.6667 C317 181.6667 319.4076 177.0316 321 175.6667 C321.5225 175.2188 323.6711 175.2647 324 175.6667 C326.1315 178.2719 330 186.6667 330 186.6667 "/>
</g>
</g>
</svg>
