<?xml version="1.0" encoding="utf-8"?>
<!DOCTYPE svg PUBLIC "-//W3C//DTD SVG 1.1//EN" "http://www.w3.org/Graphics/SVG/1.1/DTD/svg11.dtd">
<svg viewBox="0 0 800 800" preserveAspectRatio="xMinYMin meet" xmlns="http://www.w3.org/2000/svg" version="1.1">
<g fill="none" stroke="black" stroke-linecap="round" stroke-linejoin="round" stroke-width="1.6465">
<g transform="translate(87.52,156.7576) scale(1.822) translate(-121,-98)">
<path id="0" d="M265 176 C265 176 258.1861 175.1395 254 177 C246.3594 180.3958 242.4917 181.7808 238 188 C231.5833 196.8846 230.9365 200.9604 228 213 C226.2877 220.0204 226.7002 221.6346 228 229 C229.5483 237.7734 230.2226 239.1305 234 247 C235.7874 250.7237 236.6463 251.5778 240 254 C244.9548 257.5785 245.8697 258.0167 252 260 C262.3853 263.3599 263.1354 263.8442 274 265 C286.0547 266.2824 289.8382 268.1189 299 265 C309.0585 261.5758 314.9894 257.7427 321 249 C328.64 237.8873 328.514 232.5287 332 217 C333.7193 209.3414 334.0876 206.6425 332 200 C329.365 191.6159 327.1799 187.9422 321 182 C316.2559 177.4384 313.5909 177.711 306 175 C299.8963 172.8201 299.4036 172.4269 293 172 C277.4761 170.9651 273.8706 170.9274 261 172 C259.2906 172.1424 257 175 257 175 "/>
<path id="1" d="M231 210 C231 210 227.4002 216.2632 227 222 C225.9918 236.4507 224.6821 241.2597 228 253 C229.9506 259.9022 233.5387 261.8324 240 268 C243.8612 271.6856 245.4125 273.4982 250 274 C273.2942 276.5478 282.209 277.6019 304 275 C309.6922 274.3203 313.176 271.0986 317 266 C322.0986 259.2018 322.1919 256.3604 325 247 C326.4828 242.0574 326 236 326 236 "/>
<path id="2" d="M319 179 C319 179 327.4394 169.8216 328 170 C329.6526 170.5258 335.6108 177.6468 341 186 C345.3128 192.6848 348.3546 199.1383 348 201 C347.79 202.1027 337 207 337 207 "/>
<path id="3" d="M228 237 C228 237 214.9375 249.3125 215 251 C215.0625 252.6875 221.8575 258.286 229 264 C231.4589 265.9671 232.3568 266.6224 235 267 C238.2305 267.4615 243 266 243 266 "/>
<path id="4" d="M336 176 C336 176 338.8045 174.782 339 174 C339.7109 171.1564 339 164 339 164 "/>
<path id="5" d="M340 162 C340 162 351.2888 168.911 360 177 C364.6765 181.3425 368 188 368 188 "/>
<path id="6" d="M342 195 C342 195 358.5543 195.1455 366 194 C366.7588 193.8833 368 191 368 191 "/>
<path id="7" d="M354 155 C354 155 350.1816 157.3458 349 159 C348.5318 159.6554 349 162 349 162 "/>
<path id="8" d="M353 152 C353 152 357.593 155.7018 360 160 C364.2243 167.5434 362.6763 169.7939 367 177 C369.6105 181.3509 372.4412 181.8015 375 185 C375.3554 185.4442 375.1657 186.9171 375 187 C373.0941 187.9529 365 190 365 190 "/>
<path id="9" d="M361 159 C361 159 363.6246 152.3754 366 150 C367.018 148.982 370.7309 148.6368 371 149 C374.8923 154.2546 386.2375 174.1496 386 177 C385.9156 178.0123 368 185 368 185 "/>
<path id="10" d="M371 151 C371 151 378.0103 140.5306 380 139 C380.2687 138.7933 383.2554 139.7235 384 141 C388.7829 149.1993 390.0495 152.7287 394 163 C394.6114 164.5896 394.5424 166.2406 394 167 C393.1089 168.2476 389 170 389 170 "/>
<path id="11" d="M386 141 C386 141 393.3522 131.1495 394 131 C394.2127 130.9509 397.3784 134.3147 399 138 C402.6379 146.268 402.6339 147.3245 405 156 C405.482 157.7672 405.2525 159.8835 405 160 C403.0957 160.8789 392 162 392 162 "/>
<path id="12" d="M397 134 C397 134 404.8055 123.9313 405 124 C405.6373 124.2249 410.4769 131.993 414 140 C415.7439 143.9634 416.5483 148.2872 416 149 C415.0278 150.2639 404 153 404 153 "/>
<path id="13" d="M408 128 C408 128 409.117 118.6188 410 117 C410.1593 116.7079 413.5929 116.4572 414 117 C418.6816 123.2421 428.0495 139.6632 428 141 C427.9925 141.2024 413 144 413 144 "/>
<path id="14" d="M419 123 C419 123 418.244 118.2758 419 115 C419.5379 112.6691 420.7873 111.0105 422 110 C422.5076 109.577 424.7397 109.6183 425 110 C428.8404 115.6325 436.0934 129.2801 437 132 C437.0232 132.0697 433 134 433 134 "/>
<path id="15" d="M218 254 C218 254 213.713 255.1444 213 256 C212.5375 256.555 212.2939 259.0921 213 260 C217.3937 265.6491 221.8386 272.1075 227 274 C231.0194 275.4738 243 271 243 271 "/>
<path id="16" d="M215 263 C215 263 205.9423 264.9406 204 266 C203.7485 266.1372 203.4909 268.3778 204 269 C206.6073 272.1867 208.3599 274.3137 213 277 C216.9951 279.313 220.5236 280.4643 223 280 C224.8696 279.6495 229 274 229 274 "/>
<path id="17" d="M203 270 C203 270 199.9649 269.4486 199 270 C197.7249 270.7286 195.833 273.7217 196 274 C197.8978 277.163 205.2138 284.8567 211 290 C211.594 290.528 213.4545 290.5066 214 290 C218.1954 286.1042 225 277 225 277 "/>
<path id="18" d="M199 272 C199 272 186.7602 276.562 182 280 C181.0363 280.696 180.5038 283.5113 181 285 C181.9216 287.7648 183.0918 289.2857 186 292 C190.169 295.8911 194.1152 299.349 196 299 C200.1625 298.2292 213 287 213 287 "/>
<path id="19" d="M179 287 C179 287 172.8606 292.6051 173 293 C173.5469 294.5495 179.8106 300.9956 185 304 C186.9776 305.1449 189.3171 304.8255 192 304 C194.7713 303.1473 198 300 198 300 "/>
<path id="20" d="M170 294 C170 294 165.8911 295.7524 165 297 C164.4576 297.7594 164.3135 299.7033 165 301 C168.0489 306.7591 170.373 311.0531 174 314 C175.2978 315.0545 178.3238 314.986 181 314 C186.5738 311.9465 193 307 193 307 "/>
<path id="21" d="M166 302 C166 302 154.0607 305.7169 154 306 C153.9255 306.3477 158.3972 311.1095 163 316 C166.3861 319.5978 167.0301 321.11 170 323 C171.0371 323.66 172.8073 323.6505 174 323 C177.0629 321.3293 181 317 181 317 "/>
<path id="22" d="M278 214 C278 214 277.6733 222.4772 278 223 C278.0771 223.1234 282.9927 222.0294 283 222 C283.0065 221.9739 279 219 279 219 "/>
<path id="23" d="M279 216 C279 216 281.6126 216.4189 282 217 C282.7318 218.0977 283 222 283 222 "/>
<path id="24" d="M159 311 C159 311 155.7748 310.9078 154 312 C150.11 314.3939 146.0689 317.6909 146 319 C145.892 321.0519 153 331 153 331 "/>
<path id="25" d="M149 321 C149 321 152.3306 320.2295 154 321 C157.5956 322.6595 158.436 325.218 162 327 C163.296 327.648 165.275 327.4833 166 327 C166.8458 326.4361 168 323 168 323 "/>
<path id="26" d="M144 318 C144 318 142.0678 317.8644 142 318 C141.5594 318.8813 140.2608 322.7434 141 324 C143.3862 328.0566 149.8134 334.7148 152 335 C153.9266 335.2513 164 327 164 327 "/>
<path id="27" d="M429 114 C429 114 428.3599 110.9145 429 110 C430.7443 107.5081 432.2561 105.9533 436 104 C443.07 100.3113 449.0233 97.1495 452 98 C455.3339 98.9525 461.0427 107.1607 464 112 C464.4698 112.7687 463.9213 115.3367 463 116 C454.9078 121.8264 439 130 439 130 "/>
<path id="28" d="M433 124 L453 110 "/>
<path id="29" d="M143 328 C143 328 138.25 328.625 138 329 C137.75 329.375 137.833 332.4739 139 334 C143.2871 339.6062 148.4115 344.8495 151 346 C151.6305 346.2802 157 342 157 342 "/>
<path id="30" d="M311 185 L298 196 "/>
<path id="31" d="M314 190 C314 190 316.5457 197.2265 316 199 C315.6195 200.2365 312.769 202.077 310 203 C307.7344 203.7552 304 203 304 203 C304 203 307.7393 202.2996 309 203 C310.7089 203.9494 313 208 313 208 "/>
<path id="32" d="M306 240 C306 240 308.2442 245.6093 308 246 C307.6723 246.5243 301.4327 248.0618 301 248 C300.9724 247.9961 301 245 301 245 C301 245 300.6253 252.8745 300 254 C299.8546 254.2617 296.555 254.4625 296 254 C295.1444 253.287 294 249 294 249 "/>
<path id="33" d="M248 238 C248 238 244.1593 237.7079 244 238 C243.117 239.6188 241.9178 248.0957 242 249 C242.0021 249.0228 244.925 249.15 245 249 C245.3 248.4 245 243 245 243 "/>
<path id="34" d="M257 240 C257 240 255.2316 238.0947 254 238 C250.1249 237.7019 244.759 238.1651 244 239 C243.2479 239.8274 243.3785 248.3094 244 249 C244.5035 249.5594 253 249 253 249 "/>
<path id="35" d="M246 241 C246 241 250.393 241.9884 251 243 C252.044 244.74 252 251 252 251 "/>
<path id="36" d="M262 183 C262 183 257.5388 182.7845 257 183 C256.9138 183.0345 256.925 184.975 257 185 C257.675 185.225 263 185 263 185 "/>
<path id="37" d="M263 184 L248 192 "/>
<path id="38" d="M261 185 C261 185 262.9655 185.0862 263 185 C263.2155 184.4612 263.2956 180.2111 263 180 C262.4206 179.5861 256.1729 179.8271 256 180 C255.9259 180.0741 258 185 258 185 "/>
<path id="39" d="M299 199 L287 220 "/>
<path id="40" d="M286 221 L296 238 "/>
<path id="41" d="M140 330 C140 330 136.9377 330.0037 136 331 C130.6285 336.7072 128.0043 338.9913 124 347 C121.1788 352.6425 120.6073 357.4657 121 361 C121.1309 362.1781 124.0802 364.4241 126 365 C127.4553 365.4366 129.5556 365.2036 131 364 C139.6249 356.8126 150 345 150 345 "/>
<path id="42" d="M168 331 L152 341 "/>
</g>
</g>
</svg>
