<?xml version="1.0" encoding="utf-8"?>
<!DOCTYPE svg PUBLIC "-//W3C//DTD SVG 1.1//EN" "http://www.w3.org/Graphics/SVG/1.1/DTD/svg11.dtd">
<svg viewBox="0 0 800 800" preserveAspectRatio="xMinYMin meet" xmlns="http://www.w3.org/2000/svg" version="1.1">
<g fill="none" stroke="black" stroke-linecap="round" stroke-linejoin="round" stroke-width="1.1281">
<g transform="translate(171.2912,87.52) scale(2.6594) translate(-294,-91.1333)">
<path id="0" d="M344 197.1333 C344 197.1333 341.1856 190.7679 339 190.1333 C330.7388 187.7349 321.1153 185.9977 313 188.1333 C308.171 189.4041 305.5257 193.7021 301 200.1333 C296.5891 206.4015 295.2513 207.983 294 215.1333 C292.072 226.1507 291.7512 229.3888 294 240.1333 C295.7886 248.6789 298.2123 253.7446 303 258.1333 C306.5047 261.346 310.6326 261.4146 318 262.1333 C330.4463 263.3476 333.1157 264.4657 344 262.1333 C351.5054 260.525 352.8691 258.2676 360 253.1333 C364.9104 249.5978 368.2827 247.8093 369 244.1333 C371.1209 233.2639 371.4243 223.1399 368 212.1333 C366.1937 206.3273 360.0755 205.5623 355 199.1333 C353.3464 197.0388 353.8549 193.4325 353 193.1333 C349.1738 191.7942 335 192.1333 335 192.1333 "/>
<path id="1" d="M329 229.1333 L328 203.1333 "/>
<path id="2" d="M330 231.1333 C330 231.1333 334.7308 222.3989 340 218.1333 C343.6555 215.1742 351 214.1333 351 214.1333 "/>
<path id="3" d="M338 189.1333 C338 189.1333 335.9454 173.9744 338 161.1333 C339.7082 150.4569 341.1556 148.4992 346 139.1333 C347.9684 135.3277 349.2195 134.521 353 132.1333 C358.0174 128.9644 359.2691 127.7563 365 127.1333 C380.5339 125.4449 384.3737 124.5522 399 127.1333 C406.9964 128.5445 409.3501 130.491 416 136.1333 C424.6703 143.4899 426.7016 145.5963 432 155.1333 C435.6519 161.7067 435.2201 163.7492 436 172.1333 C437.1673 184.6815 437.6912 185.5899 436 198.1333 C431.7967 229.3075 434.7518 235.7898 424 261.1333 C416.3058 279.2697 408.9036 281.0213 394 297.1333 C391.5511 299.7808 390.285 300.3121 387 301.1333 C383.3044 302.0572 381.3141 302.5047 378 301.1333 C368.8068 297.3293 366.244 296.2323 358 289.1333 C349.2049 281.5598 346.8637 278.3408 342 270.1333 C340.6339 267.828 342 262.1333 342 262.1333 "/>
<path id="4" d="M310 263.1333 C310 263.1333 308.9574 267.7738 310 271.1333 C313.1009 281.1251 315.6852 282.1889 319 292.1333 C319.8287 294.6194 318.0798 296.1614 319 298.1333 C320.8813 302.1648 321.9627 304.5642 326 307.1333 C336.6699 313.9233 338.9133 315.7732 352 319.1333 C374.4092 324.8871 376.1447 323.7132 400 326.1333 C410.2845 327.1767 410.8947 327.052 421 326.1333 C426.9057 325.5964 427.91 325.6783 433 323.1333 C442.0489 318.6089 443.1782 317.7518 451 311.1333 C455.5734 307.2635 457.2213 306.2154 459 301.1333 C463.4607 288.3885 463.1315 286.0816 465 271.1333 C466.5875 258.4334 466.2395 251.5996 466 245.1333 C465.9901 244.8658 464.0327 244.4701 464 244.1333 C462.0405 223.978 464.1699 207.6901 459 173.1333 C454.8139 145.1527 452.7414 144.4318 445 117.1333 C443.397 111.4807 442.8866 107.5232 440 106.1333 C424.238 98.5442 414.8604 96.3966 391 91.1333 C382.3333 89.2216 380.9289 89.6171 372 91.1333 C355.3038 93.9685 353.8139 94.9938 338 100.1333 C334.8736 101.1494 334.7009 101.8826 332 104.1333 C328.8168 106.786 327.8915 106.9178 326 110.1333 C323.3496 114.6391 322.6664 115.6687 322 121.1333 C317.8387 155.2556 316 192.1333 316 192.1333 "/>
</g>
</g>
</svg>
