<?xml version="1.0" encoding="utf-8"?>
<!DOCTYPE svg PUBLIC "-//W3C//DTD SVG 1.1//EN" "http://www.w3.org/Graphics/SVG/1.1/DTD/svg11.dtd">
<svg viewBox="0 0 800 800" preserveAspectRatio="xMinYMin meet" xmlns="http://www.w3.org/2000/svg" version="1.1">
<g fill="none" stroke="black" stroke-linecap="round" stroke-linejoin="round" stroke-width="2.645">
<g transform="translate(87.52,237.2382) scale(1.1342) translate(-23,-78.1333)">
<path id="0" d="M332 211.1333 C332 211.1333 332.7914 204.8539 331 201.1333 C327.1071 193.0481 325.8001 191.1763 319 184.1333 C312.4705 177.3707 311.421 176.8573 303 172.1333 C291.4527 165.6556 290.6717 165.276 278 161.1333 C265.1664 156.9377 264.337 156.8359 251 155.1333 C241.3933 153.9069 240.6661 154.0349 231 155.1333 C219.1261 156.4826 218.4368 157.0835 207 160.1333 C203.9301 160.952 203.057 161.3049 201 163.1333 C199.2331 164.7039 199.2476 167.2422 198 168.1333 C197.2406 168.6758 194.77 167.454 194 168.1333 C188.95 172.5892 185.7115 175.1442 181 183.1333 C174.7855 193.671 172.7512 195.5119 171 207.1333 C167.6256 229.5274 170 231.8094 170 256.1333 C170 261.0974 169.3324 261.9644 171 266.1333 C175.8424 278.2392 175.9571 281.0797 184 291.1333 C192.7245 302.039 195.0458 303.3492 207 311.1333 C215.3656 316.5807 217.2314 317.4095 227 319.1333 C241.2235 321.6434 243.7548 322.3719 258 320.1333 C276.8836 317.1659 278.2455 315.0794 297 308.1333 C304.7544 305.2613 307.5464 304.0629 312 300.1333 C313.6508 298.6768 312.2099 295.8185 314 293.1333 C322.4494 280.4592 326.1939 280.5921 334 267.1333 C340.0663 256.6741 339.887 254.9629 343 243.1333 C344.6839 236.7345 345.1076 233.5637 344 229.1333 C343.3959 226.7167 339.8915 226.3489 338 223.1333 C335.3496 218.6276 334 212.1333 334 212.1333 "/>
<path id="1" d="M283 187.1333 C283 187.1333 279.7477 182.7099 276 180.1333 C272.2721 177.5704 271.2417 176.4796 267 176.1333 C248.8079 174.6483 245.1921 174.6483 227 176.1333 C222.7583 176.4796 221.5149 177.3825 218 180.1333 C210.7686 185.7927 209.413 186.6022 204 194.1333 C198.4956 201.7916 198.2021 203.0197 195 212.1333 C191.9124 220.921 191.8353 221.7363 191 231.1333 C189.878 243.7562 188.38 245.9985 191 257.1333 C193.8037 269.0491 196.1813 270.7688 203 282.1333 C206.2611 287.5686 207.004 288.4824 212 292.1333 C219.2231 297.4117 220.8099 299.1833 229 301.1333 C239.7979 303.7043 242.8564 304.062 254 302.1333 C266.8959 299.9014 268.9926 298.5373 281 292.1333 C290.4573 287.0894 293.307 285.8595 299 278.1333 C305.5502 269.2437 307.4915 265.5311 309 254.1333 C311.6132 234.389 311.4769 226.3589 308 210.1333 C306.871 204.8646 302.9383 203.3293 297 198.1333 C291.2344 193.0884 284 189.1333 284 189.1333 "/>
<path id="2" d="M248 235.1333 C248 235.1333 245.9065 229.4139 246 229.1333 C246.0234 229.0632 249.6042 228.681 250 229.1333 C251.2015 230.5065 253.2286 235.876 253 237.1333 C252.8801 237.7927 249.3492 239.9647 248 240.1333 C247.3097 240.2196 245 238.1333 245 238.1333 "/>
<path id="3" d="M282 204.1333 C282 204.1333 283.9883 204.0983 284 204.1333 C284.0468 204.2736 283 207.1333 283 207.1333 "/>
<path id="4" d="M290 262.1333 L294 260.1333 "/>
<path id="5" d="M298 226.1333 L301 217.1333 "/>
<path id="6" d="M293 239.1333 C293 239.1333 293.3673 241.7379 294 242.1333 C295.8155 243.268 301 244.1333 301 244.1333 "/>
<path id="7" d="M265 198.1333 L260 188.1333 "/>
<path id="8" d="M229 193.1333 C229 193.1333 232.36 191.4133 233 190.1333 C233.64 188.8533 233 185.1333 233 185.1333 "/>
<path id="9" d="M220 199.1333 C220 199.1333 218.0678 199.2689 218 199.1333 C217.5594 198.252 217 193.1333 217 193.1333 "/>
<path id="10" d="M209 217.1333 L201 218.1333 "/>
<path id="11" d="M205 237.1333 C205 237.1333 206.2211 241.47 206 242.1333 C205.9052 242.4176 203 243.1333 203 243.1333 "/>
<path id="12" d="M212 265.1333 C212 265.1333 216 265.1333 216 265.1333 C216 265.1334 212 266.1333 212 266.1333 "/>
<path id="13" d="M227 275.1333 C227 275.1333 230.75 274.8833 231 275.1333 C231.25 275.3833 231 279.1333 231 279.1333 "/>
<path id="14" d="M254 279.1333 L256 287.1333 "/>
<path id="15" d="M271 282.1333 L272 282.1333 "/>
<path id="16" d="M257 235.1333 C257 235.1333 272.1898 235.7045 284 240.1333 C294.5831 244.102 294.2502 247.8962 305 253.1333 C313.2288 257.1422 323 259.1333 323 259.1333 "/>
<path id="17" d="M251 237.1333 L255 218.1333 "/>
<path id="18" d="M313 174.1333 C313 174.1333 331.5591 169.9097 341 166.1333 C342.0893 165.6976 341.8274 162.6392 343 162.1333 C360.8674 154.4258 367.9784 153.8812 392 144.1333 C402.2641 139.9682 402.9955 139.6746 412 134.1333 C415.337 132.0798 414.7953 129.5699 418 128.1333 C427.6396 123.8121 433.2154 124.5586 441 121.1333 C442.1223 120.6395 441.8954 117.6006 443 117.1333 C451.0657 113.7209 462.3029 112.0904 467 110.1333 C467.2181 110.0424 466.6169 107.6122 467 107.1333 C467.6641 106.3032 468.938 105.9495 471 105.1333 C492.83 96.4923 494.2028 95.3487 515 88.1333 C517.084 87.4103 518.3014 87.3407 520 88.1333 C524.5069 90.2366 526.9565 90.983 530 95.1333 C536.7524 104.3412 539.2017 106.94 542 118.1333 C545.6055 132.5555 547.9889 142.4167 544 151.1333 C539.1176 161.8023 530.173 165.682 515 177.1333 C504.2135 185.2741 503.2963 185.116 491 191.1333 C480.0775 196.4784 479.633 197.2698 468 200.1333 C447.8286 205.0986 444.512 203.109 426 207.1333 C424.0212 207.5635 423.8446 209.885 422 210.1333 C401.6689 212.8702 397.277 210.5771 374 214.1333 C361.9957 215.9673 350 221.1333 350 221.1333 "/>
<path id="19" d="M169 243.1333 C169 243.1333 132.1227 255.3051 96 269.1333 C68.2157 279.7695 55.0737 280.5566 41 292.1333 C35.2821 296.8368 35.9306 306.343 34 320.1333 C32.5344 330.6022 33.0428 331.6045 34 342.1333 C34.4904 347.5283 34.7026 348.3297 37 353.1333 C39.924 359.2471 44.3913 364.6906 45 365.1333 C45.0033 365.1357 46.2048 362.1805 48 361.1333 C62.4456 352.7068 65.0856 350.9538 81 344.1333 C84.7247 342.537 85.9019 344.414 90 343.1333 C101.3592 339.5836 102.3167 339.3027 113 334.1333 C117.2582 332.0729 116.8135 329.7826 121 328.1333 C132.213 323.7161 134.1519 325.4984 146 321.1333 C152.6928 318.6675 152.3655 316.1869 159 314.1333 C172.4982 309.9553 177.6154 311.1482 188 308.1333 C188.9698 307.8518 190 305.1333 190 305.1333 "/>
<path id="20" d="M58 325.1333 C58 325.1333 40.0583 323.8343 30 326.1333 C26.9357 326.8337 23.0508 333.0444 23 333.1333 C22.9921 333.1472 24.8164 333.5936 26 333.1333 C32.9919 330.4143 33.8791 328.3006 41 326.1333 C44.3255 325.1212 49 326.1333 49 326.1333 "/>
<path id="21" d="M524 91.1333 C524 91.1333 528.3047 86.983 533 85.1333 C544.0558 80.778 550.3648 78.3545 557 78.1333 C558.5881 78.0804 561.9365 81.1792 563 84.1333 C565.617 91.4027 563.5671 94.0651 566 103.1333 C568.9663 114.1895 572.3247 115.0817 574 125.1333 C574.9812 131.0207 574.1148 135.4805 572 139.1333 C570.5755 141.5939 567.4242 142.7362 563 144.1333 C558.6859 145.4957 553.2832 145.3812 553 145.1333 C552.8448 144.9975 553.2957 139.349 555 137.1333 C556.993 134.5425 562.7904 133.7755 563 132.1333 C564.4534 120.7487 562.8139 99.001 561 90.1333 C560.8532 89.4157 556.0837 87.4388 554 88.1333 C546.2136 90.7288 534 99.1333 534 99.1333 "/>
</g>
</g>
</svg>
