<?xml version="1.0" encoding="utf-8"?>
<!DOCTYPE svg PUBLIC "-//W3C//DTD SVG 1.1//EN" "http://www.w3.org/Graphics/SVG/1.1/DTD/svg11.dtd">
<svg viewBox="0 0 800 800" preserveAspectRatio="xMinYMin meet" xmlns="http://www.w3.org/2000/svg" version="1.1">
<g fill="none" stroke="black" stroke-linecap="round" stroke-linejoin="round" stroke-width="1.2625">
<g transform="translate(307.3253,87.52) scale(2.3763) translate(-265,-21.1333)">
<path id="0" d="M277 137.1333 C277 137.1333 279.6945 177.1074 283 179.1333 C288.5763 182.5511 311.8971 177.4302 339 175.1333 C340.484 175.0076 341.982 174.3992 342 174.1333 C342.8698 161.3038 346.2853 118.9283 343 116.1333 C338.4367 112.2511 279.5967 114.7608 275 117.1333 C274.3291 117.4796 281 148.1333 281 148.1333 "/>
<path id="1" d="M300 181.1333 C300 181.1333 303.9542 193.181 305 205.1333 C307.4041 232.6085 307 261.1333 307 261.1333 "/>
<path id="2" d="M329 182.1333 C329 182.1333 333.9514 207.2575 336 232.1333 C337.4177 249.348 336.8518 256.6276 336 267.1333 C335.9454 267.8067 334.2021 269.1333 333 269.1333 C321.7804 269.1333 306.9454 266.0526 305 267.1333 C304.3891 267.4727 305.0391 283.6941 306 284.1333 C309.6746 285.8132 324.5636 283.9909 340 283.1333 C340.9317 283.0816 341.9529 282.4632 342 282.1333 C342.4765 278.798 342.6627 271.4528 342 269.1333 C341.8908 268.751 338 268.1333 338 268.1333 "/>
<path id="3" d="M295 114.1333 C295 114.1333 295.2917 106.4107 293 100.1333 C284.1838 75.9845 272 51.1333 272 51.1333 "/>
<path id="4" d="M330 115.1333 C330 115.1333 330.3225 109.7621 329 105.1333 C324.4814 89.3183 325.181 87.7346 318 73.1333 C310.6397 58.1673 309.4197 57.5692 299 44.1333 C290.7246 33.4624 289.3348 31.5368 280 24.1333 C276.6853 21.5044 272.6445 20.9444 270 21.1333 C268.8418 21.2161 266.4774 23.3191 266 25.1333 C264.5577 30.6139 263.8564 35.33 265 40.1333 C265.5755 42.5505 268.9546 42.9515 271 46.1333 C273.0603 49.3382 274 54.1333 274 54.1333 "/>
<path id="5" d="M283 46.1333 L286 46.1333 "/>
<path id="6" d="M294 63.1333 L296 63.1333 "/>
<path id="7" d="M301 82.1333 L302 81.1333 "/>
<path id="8" d="M323 269.1333 L324 276.1333 "/>
<path id="9" d="M311 146.1333 C311 146.1333 315.6463 144.7224 318 142.1333 C324.7719 134.6842 331 124.1333 331 124.1333 "/>
<path id="10" d="M315 149.1333 C315 149.1333 322.2231 151.0424 327 154.1333 C329.785 155.9354 332.0003 160.1335 332 160.1333 C331.9992 160.1329 316 147.1333 316 147.1333 "/>
<path id="11" d="M311 120.1333 L313 121.1333 "/>
<path id="12" d="M316 173.1333 L314 172.1333 "/>
<path id="13" d="M290 149.1333 L289 147.1333 "/>
<path id="14" d="M338 144.1333 L340 143.1333 "/>
</g>
</g>
</svg>
