<?xml version="1.0" encoding="utf-8"?>
<!DOCTYPE svg PUBLIC "-//W3C//DTD SVG 1.1//EN" "http://www.w3.org/Graphics/SVG/1.1/DTD/svg11.dtd">
<svg viewBox="0 0 800 800" preserveAspectRatio="xMinYMin meet" xmlns="http://www.w3.org/2000/svg" version="1.1">
<g fill="none" stroke="black" stroke-linecap="round" stroke-linejoin="round" stroke-width="1.9921">
<g transform="translate(87.52,347.2925) scale(1.5059) translate(-24,-176)">
<path id="0" d="M39 199 C39 199 104.8131 201.0515 168 199 C180.325 198.5998 192.3388 193.233 193 194 C194.3582 195.5756 193.507 219.1277 193 228 C192.9834 228.2908 191.9475 228.9362 191 229 C144.0669 232.159 139.9536 233.1471 89 235 C57.5959 236.142 33.0416 238.575 26 235 C23.9038 233.9358 22.6986 207.8562 24 202 C24.2088 201.0606 34 199 34 199 "/>
<path id="1" d="M193 196 C193 196 196.2729 180.3259 198 180 C219.9161 175.8649 283.7425 171.1008 299 176 C302.1402 177.0083 304.0367 195.5742 307 215 C308.4848 224.7334 309.2743 234.2818 308 235 C300.2845 239.3487 279.6286 243.4179 252 246 C227.3371 248.3049 209.2373 248.5303 201 245 C198.6203 243.9801 196 222 196 222 "/>
<path id="2" d="M299 192 C299 192 307.778 193.0783 316 192 C337.788 189.1426 338.0893 186.3759 360 184 C379.0983 181.9291 380.341 184.7941 399 183 C405.3879 182.3858 405.6533 179.6681 412 179 C423.8224 177.7555 430.5955 178.0512 437 179 C437.6642 179.0984 438.7921 181.129 439 183 C439.6893 189.2039 440.2874 191.8503 439 197 C438.3333 199.6668 436.7178 200.9617 434 203 C431.3537 204.9847 430.555 205.3229 427 206 C379.4657 215.0542 378.0219 214.8297 329 223 C318.0612 224.8231 317.9254 224.7394 307 226 C305.0443 226.2257 303.32 226.24 303 226 C302.82 225.865 303 223 303 223 "/>
<path id="3" d="M350 205 L352 205 "/>
<path id="4" d="M385 198 L377 200 "/>
<path id="5" d="M420 195 L421 194 "/>
<path id="6" d="M49 193 C49 193 53.8312 194.2065 54 195 C56.5384 206.9303 60.1992 235.4029 59 240 C58.8508 240.5718 42.1961 241.5338 42 241 C40.1171 235.8742 40.4327 205.7499 41 191 C41.024 190.3755 44 189 44 189 "/>
<path id="7" d="M206 191 C206 191 225.7038 191.608 245 190 C267.4643 188.128 285.632 182.18 290 184 C291.4218 184.5924 290.6469 197.3521 293 210 C294.5887 218.539 296.1191 218.724 298 227 C298.5185 229.2816 298.4201 231.7059 298 232 C296.6317 232.9578 293.0022 233.6066 288 234 C248.9013 237.0752 216.9929 242.704 209 239 C206.6103 237.8926 206 196 206 196 "/>
<path id="8" d="M249 214 L252 213 "/>
<path id="9" d="M252 213 L253 195 "/>
<path id="10" d="M256 215 C256 215 272.4195 216.0161 288 215 C294.9117 214.5492 302 212 302 212 "/>
</g>
</g>
</svg>
