<?xml version="1.0" encoding="utf-8"?>
<!DOCTYPE svg PUBLIC "-//W3C//DTD SVG 1.1//EN" "http://www.w3.org/Graphics/SVG/1.1/DTD/svg11.dtd">
<svg viewBox="0 0 800 800" preserveAspectRatio="xMinYMin meet" xmlns="http://www.w3.org/2000/svg" version="1.1">
<g fill="none" stroke="black" stroke-linecap="round" stroke-linejoin="round" stroke-width="1.7137">
<g transform="translate(272.2071,87.52) scale(1.7506) translate(-176,-90.4167)">
<path id="0" d="M291 223.4167 C291 223.4167 278.9359 212.8861 268 210.4167 C251.4601 206.6818 247.3678 207.8601 229 209.4167 C219.3201 210.237 218.0389 211.4998 209 215.4167 C203.7873 217.6755 203.2142 218.4366 199 222.4167 C194.5744 226.5964 193.6814 227.2977 191 232.4167 C188.6246 236.9516 188.1031 238.16 188 243.4167 C187.6276 262.4114 184.8469 267.9575 190 283.4167 C194.5617 297.1018 200.2104 301.627 211 312.4167 C215.3159 316.7325 218.0816 316.4795 225 318.4167 C229.977 319.8102 230.6859 319.7874 236 319.4167 C251.6936 318.3218 253.3956 319.2138 268 315.4167 C276.9907 313.0791 279.6123 312.2568 286 306.4167 C295.2614 297.9491 295.8373 295.1375 303 283.4167 C306.4443 277.7805 307.3202 276.6707 308 270.4167 C309.6564 255.1782 308.8052 252.7153 308 237.4167 C307.8754 235.0499 307.5113 234.1439 306 232.4167 C301.1861 226.9151 294 221.4167 294 221.4167 "/>
<path id="1" d="M224 209.4167 C224 209.4167 233.5894 171.3135 237 134.4167 C238.9611 113.2014 235 90.4167 235 90.4167 "/>
<path id="2" d="M291 217.4167 C291 217.4167 290.7483 200.4599 293 184.4167 C294.6808 172.4413 296.9212 172.4735 299 160.4167 C301.8805 143.7098 299.4353 142.7124 303 126.4167 C306.29 111.3767 313 96.4167 313 96.4167 "/>
<path id="3" d="M206 310.4167 C206 310.4167 207.2903 325.8169 204 339.4167 C192.6424 386.3613 176 434.4167 176 434.4167 "/>
<path id="4" d="M274 317.4167 C274 317.4167 267.3556 356.1379 265 394.4167 C263.392 420.5459 266 447.4167 266 447.4167 "/>
<path id="5" d="M206 322.4167 C206 322.4167 227.9968 320.4931 247 323.4167 C258.7216 325.22 271 332.4167 271 332.4167 "/>
<path id="6" d="M228 196.4167 C228 196.4167 231.2338 200.3766 235 202.4167 C242.6396 206.5548 243.4006 206.9274 252 209.4167 C262.0148 212.3157 262.592 212.4013 273 213.4167 C282.7315 214.3661 293 213.4167 293 213.4167 "/>
<path id="7" d="M311 261.4167 C311 261.4167 310.0577 271.3031 311 272.4167 C311.9686 273.5614 321.6963 274.7756 322 274.4167 C322.6234 273.68 322.7785 260.8764 322 259.4167 C321.7785 259.0014 314 259.4167 314 259.4167 "/>
<path id="8" d="M312 268.4167 L320 267.4167 "/>
<path id="9" d="M314 263.4167 L321 263.4167 "/>
<path id="10" d="M243 264.4167 L243 263.4167 "/>
<path id="11" d="M244 261.4167 C244 261.4167 243.9236 266.2639 244 266.4167 C244 266.4167 246 265.4167 246 265.4167 "/>
<path id="12" d="M247 263.4167 L251 223.4167 "/>
<path id="13" d="M245 265.4167 L273 264.4167 "/>
<path id="14" d="M243 265.4167 L230 276.4167 "/>
<path id="15" d="M247 213.4167 L246 219.4167 "/>
<path id="16" d="M252 215.4167 C252 215.4167 252.5541 212.6842 253 212.4167 C253.6369 212.0345 256.9175 212.2311 257 212.4167 C257.4175 213.3561 256.5224 220.557 257 221.4167 C257.1474 221.682 262 221.4167 262 221.4167 "/>
<path id="17" d="M280 221.4167 L280 228.4167 "/>
<path id="18" d="M288 238.4167 C288 238.4167 289.1542 234.9806 290 234.4167 C290.725 233.9333 293.95 234.2667 294 234.4167 C294.45 235.7667 293.4675 245.1386 294 246.4167 C294.0925 246.6386 299 246.4167 299 246.4167 "/>
<path id="19" d="M290 250.4167 C290 250.4167 300.7866 255.0966 301 255.4167 C301.0115 255.434 297.0566 257.7261 296 259.4167 C295.4068 260.3658 295.7383 263.2713 296 263.4167 C297.1255 264.0419 303.9685 263.729 305 264.4167 C305.3557 264.6538 305.64 268.1367 305 269.4167 C304.36 270.6967 302.9193 271.9049 301 272.4167 C296.4949 273.618 291.0827 273.6135 290 273.4167 C289.9454 273.4067 290 270.4167 290 270.4167 "/>
<path id="20" d="M286 282.4167 C286 282.4167 285.65 289.2417 286 289.4167 C287.4 290.1167 300 289.4167 300 289.4167 "/>
<path id="21" d="M292 284.4167 L292 304.4167 "/>
<path id="22" d="M270 291.4167 C270 291.4167 270 304.4167 270 304.4167 C270 304.4167 269.5803 301.8364 270 301.4167 C271.5389 299.8777 275.1674 297.4167 277 297.4167 C278.5708 297.4167 281.7702 299.4842 283 301.4167 C284.2012 303.3042 284.3621 307.6926 284 308.4167 C283.805 308.8066 279 309.4167 279 309.4167 "/>
<path id="23" d="M274 289.4167 L279 287.4167 "/>
<path id="24" d="M247 298.4167 C247 298.4167 245.6819 312.1014 246 319.4167 C246.0317 320.1452 247.3076 321.3301 248 321.4167 C249.8079 321.6427 253.1794 321.4014 254 320.4167 C255.9604 318.0642 258.1873 309.8288 258 309.4167 C257.9165 309.233 249 309.4167 249 309.4167 "/>
<path id="25" d="M217 304.4167 C217 304.4167 227.9404 301.3315 228 301.4167 C228.1294 301.6015 224 314.4167 224 314.4167 "/>
<path id="26" d="M210 285.4167 C210 285.4167 207.7158 281.2746 206 280.4167 C204.4162 279.6248 200.1617 280.158 200 280.4167 C199.6821 280.9253 199.9531 286.9211 201 288.4167 C201.7461 289.4825 206.6714 289.5952 207 290.4167 C207.9708 292.8436 207.356 301.8738 207 303.4167 C206.981 303.4988 204.3927 303.8094 204 303.4167 C202.8219 302.2386 201.1996 299.4127 201 297.4167 C200.8796 296.2127 201.7159 294.444 203 293.4167 C205.7659 291.204 211 289.4167 211 289.4167 "/>
<path id="27" d="M201 258.4167 C201 258.4167 199.3174 255.9107 198 255.4167 C196.4032 254.8179 194.0488 254.6825 193 255.4167 C190.9234 256.8703 189.2294 259.2203 188 262.4167 C187.1734 264.566 187.7 268.2667 188 268.4167 C189.2 269.0167 198.485 269.2324 200 268.4167 C200.6021 268.0925 200.9995 261.4156 201 261.4167 C201.0011 261.4192 203 275.4167 203 275.4167 "/>
<path id="28" d="M196 234.4167 C196 234.4167 194.7124 239.9657 195 243.4167 C195.1021 244.6423 197 246.4167 197 246.4167 "/>
<path id="29" d="M204 238.4167 C204 238.4167 201.1873 240.293 201 241.4167 C200.5274 244.2525 201.2697 249.4777 202 250.4167 C202.3486 250.8648 206.7433 251.045 208 250.4167 C208.8378 249.9978 209.4523 248.4249 210 246.4167 C210.8763 243.2035 211.3312 240.2998 211 239.4167 C210.875 239.0834 207 238.4167 207 238.4167 "/>
<path id="30" d="M216 218.4167 L215 234.4167 "/>
<path id="31" d="M224 222.4167 L224 233.4167 "/>
<path id="32" d="M200 368.4167 C200 368.4167 210.5289 365.4852 221 364.4167 C234.7453 363.0141 236.2715 361.9702 249 363.4167 C256.6143 364.2819 265 369.4167 265 369.4167 "/>
<path id="33" d="M185 408.4167 C185 408.4167 194.2162 409.2736 203 408.4167 C214.4142 407.3031 214.5968 405.0248 226 404.4167 C251.5443 403.0543 278 404.4167 278 404.4167 "/>
<path id="34" d="M237 164.4167 C237 164.4167 254.9243 162.6758 269 163.4167 C271.7131 163.5595 272.1702 165.9922 275 166.4167 C281.1423 167.338 282.859 167.6449 289 166.4167 C294.2637 165.3639 300 161.4167 300 161.4167 "/>
<path id="35" d="M243 120.4167 C243 120.4167 252.0564 124.3556 261 125.4167 C280.8356 127.77 302 127.4167 302 127.4167 "/>
</g>
</g>
</svg>
