<?xml version="1.0" encoding="utf-8"?>
<!DOCTYPE svg PUBLIC "-//W3C//DTD SVG 1.1//EN" "http://www.w3.org/Graphics/SVG/1.1/DTD/svg11.dtd">
<svg viewBox="0 0 800 800" preserveAspectRatio="xMinYMin meet" xmlns="http://www.w3.org/2000/svg" version="1.1">
<g fill="none" stroke="black" stroke-linecap="round" stroke-linejoin="round" stroke-width="1.4833">
<g transform="translate(87.52,347.4144) scale(2.0225) translate(-38,-178)">
<path id="0" d="M225 180 C225 180 220.9633 181.0367 219 183 C215.7278 186.2722 214.0292 187.7363 213 192 C211.0062 200.26 211.6503 202.5573 212 212 C212.1239 215.3461 212.3113 216.467 214 219 C216.7019 223.0528 218.3715 226.0451 222 227 C232.9612 229.8845 239.0229 229.3605 252 229 C254.6363 228.9268 256.1775 227.8225 258 226 C259.8225 224.1775 260.8493 222.7133 261 220 C261.732 206.8248 263.496 198.6372 260 190 C257.8756 184.7514 250.5957 179.4478 244 178 C235.3842 176.1087 219 181 219 181 "/>
<path id="1" d="M261 187 C261 187 272.9082 186.6497 273 187 C274.2186 191.6527 273.4635 223.8778 272 229 C271.8912 229.3807 261 229 261 229 "/>
<path id="2" d="M213 187 C213 187 206.0591 186.7803 206 187 C205.1841 190.0303 206.8889 200.2591 206 213 C205.4116 221.4332 202.6016 229.4024 203 230 C203.1771 230.2656 212.7734 229.1524 216 228 C216.4874 227.8259 217 225 217 225 "/>
<path id="3" d="M274 192 L328 192 "/>
<path id="4" d="M277 222 L326 221 "/>
<path id="5" d="M329 192 L339 200 "/>
<path id="6" d="M341 200 L342 205 "/>
<path id="7" d="M342 203 L322 220 "/>
<path id="8" d="M340 201 C340 201 339.994 213.994 340 214 C340.0023 214.0023 343.0412 209.3144 344 205 C344.8726 201.0734 344 196 344 196 C344 196 343.9985 210.9975 344 211 C344.0008 211.0013 346.9986 201.0014 347 201 C347.0008 200.9992 347 208 347 208 "/>
<path id="9" d="M206 193 L109 190 "/>
<path id="10" d="M124 224 L201 224 "/>
<path id="11" d="M100 225 L139 225 "/>
<path id="12" d="M110 191 L95 191 "/>
<path id="13" d="M96 191 L68 197 "/>
<path id="14" d="M70 195 L54 198 "/>
<path id="15" d="M112 226 C112 226 73.7126 227.6149 64 225 C62.4909 224.5937 62.9722 217.2585 60 212 C57.0617 206.8014 50.9129 202.1632 51 202 C51.2355 201.5584 68 197 68 197 "/>
<path id="16" d="M234 180 C234 180 235.4035 186.7453 235 193 C234.4324 201.7972 231.4275 210.5878 232 211 C233.6095 212.1588 260 211 260 211 "/>
<path id="17" d="M236 213 C236 213 233.0521 215.0174 233 215 C232.9777 214.9926 232.8125 212.1875 233 212 C233.1875 211.8125 236.0001 211.9999 236 212 C235.9998 212.0001 231.0322 213.0214 231 213 C231 213 233.0042 210.0042 233 210 C232.9873 209.9873 229.2531 211.0633 229 211 C228.9662 210.9916 228.8846 209.0769 229 209 C229.2596 208.8269 231.9936 208.9871 232 209 C232.0043 209.0086 230 211 230 211 "/>
<path id="18" d="M80 209 C80 209 82 211 82 211 C81.9986 211.0014 79.0229 210.0688 79 210 C78.9847 209.9542 81 208 81 208 "/>
<path id="19" d="M98 209 C98 209 95.0001 212 95 212 C94.9999 212 97 209 97 209 "/>
<path id="20" d="M111 209 L111 210 "/>
<path id="21" d="M122 211 C122 211 122 214 122 214 C122 214 122 211 122 211 "/>
<path id="22" d="M60 198 C60 198 57.1741 189.3202 56 189 C52.8746 188.1476 39.1077 191.1138 38 192 C37.7719 192.1824 40.7482 196.7187 41 201 C41.6845 212.6364 38.6292 224.3681 40 226 C41.0485 227.2483 62 226 62 226 "/>
<path id="23" d="M53 202 C53 202 51.0118 201.9471 51 202 C50.7618 203.0721 50.9169 210.8754 51 211 C51.0031 211.0046 54.584 209.248 55 208 C55.864 205.408 55 199 55 199 C55 199 55 212 55 212 C55 212 54.0413 201.0724 54 201 C53.9918 200.9857 51.3852 203.2022 51 205 C50.1702 208.8722 50.9612 214.9094 51 215 C51.0067 215.0155 53.609 213.3034 54 212 C54.7018 209.6606 54.0765 205.1276 54 205 C53.9978 204.9964 51.3594 206.1613 51 207 C50.453 208.2763 51 212 51 212 C51 212 51 209 51 209 "/>
<path id="24" d="M52 212 L59 212 "/>
</g>
</g>
</svg>
