<?xml version="1.0" encoding="utf-8"?>
<!DOCTYPE svg PUBLIC "-//W3C//DTD SVG 1.1//EN" "http://www.w3.org/Graphics/SVG/1.1/DTD/svg11.dtd">
<svg viewBox="0 0 800 800" preserveAspectRatio="xMinYMin meet" xmlns="http://www.w3.org/2000/svg" version="1.1">
<g fill="none" stroke="black" stroke-linecap="round" stroke-linejoin="round" stroke-width="0.95046">
<g transform="translate(204.3055,87.52) scale(3.1564) translate(-195,-57)">
<path id="0" d="M254 101 C254 101 247.1227 125.1933 238 148 C232.2599 162.3503 228.5445 164.8134 224 176 C223.5152 177.1934 224.4484 179.7636 225 180 C227.8161 181.2069 231.4903 181.2489 238 182 C244.4529 182.7446 250.1408 184.1098 251 183 C254.8403 178.0396 257.4875 166.9672 262 151 C263.872 144.3758 261.9655 143.4425 264 137 C267.7762 125.042 271.2201 118.5598 274 113 C274.0959 112.8083 275.95 113.1 276 113 C276.2 112.6 276.5905 109.5905 276 109 C273.3428 106.3428 265 102 265 102 "/>
<path id="1" d="M227 181 C227 181 223.1231 180.7846 223 181 C222.6231 181.6596 222.7803 187.9409 223 188 C226.0303 188.8159 249 188 249 188 "/>
<path id="2" d="M262 98 C262 98 266.4872 86.7828 272 79 C274.1047 76.0286 276.7064 76.8671 279 74 C282.0293 70.2133 284 64 284 64 "/>
<path id="3" d="M277 106 C277 106 281.474 103.2929 283 100 C290.1298 84.6147 290.9938 76.264 296 65 C296.2865 64.3555 299 64 299 64 "/>
<path id="4" d="M288 57 C288 57 287.4172 59.8343 288 61 C288.8743 62.7485 290.6982 64.783 292 65 C294.1387 65.3565 300 63 300 63 "/>
<path id="5" d="M292 57 L299 60 "/>
<path id="6" d="M295 71 C295 71 301.1063 70.9438 302 72 C303.9861 74.3472 305.6116 78.1739 306 84 C307.9969 113.9535 307 147 307 147 "/>
<path id="7" d="M279 104 C279 104 286.1182 100.8432 288 101 C288.7169 101.0597 290.8487 103.2604 291 105 C292.4941 122.1825 290.3748 134.8111 292 147 C292.1414 148.0607 294.6777 149.5355 297 150 C301.147 150.8294 304.9844 150.5497 307 150 C307.3665 149.9001 308 147 308 147 "/>
<path id="8" d="M295 148 C295 148 284.2176 147.5648 284 148 C283.3274 149.3453 283.8981 163.9894 286 166 C288.7154 168.5973 298.8573 170.2714 307 170 C310.5771 169.8808 315.2404 167.0257 316 165 C317.7234 160.4043 316.5845 148.2212 316 146 C315.9595 145.8462 311 146 311 146 "/>
<path id="9" d="M291 169 L286 182 "/>
<path id="10" d="M313 169 L310 181 "/>
<path id="11" d="M249 191 L251 186 "/>
<path id="12" d="M311 180 C311 180 307.2024 184.1104 304 185 C299.8008 186.1665 296.6505 186.1408 293 185 C290.8221 184.3194 288 180 288 180 "/>
<path id="13" d="M277 193 C277 193 271.367 188.2598 266 186 C262.7595 184.6356 258 185 258 185 "/>
<path id="14" d="M219 186 C219 186 210.8633 189.7815 209 193 C207.1673 196.1655 206.8638 201.402 208 205 C208.8956 207.8362 211.2705 209.7209 215 212 C219.446 214.717 220.663 215.1789 226 216 C232.8921 217.0603 234.96 217.963 241 216 C252.7679 212.1754 254.1083 209.9048 266 203 C269.2528 201.1113 270.7241 200.1264 272 198 C272.7418 196.7637 272.676 194.5209 272 193 C271.2189 191.2425 268 189 268 189 "/>
<path id="15" d="M195 180 L219 180 "/>
<path id="16" d="M261 180 L281 180 "/>
<path id="17" d="M205 182 C205 182 201.5329 185.8612 200 190 C196.7556 198.76 193.9719 204.7407 195 209 C195.7452 212.0872 202.7044 213.8453 207 219 C209.2552 221.7062 208.6886 226.193 210 227 C211.6551 228.0185 215.0156 227.2077 220 227 C238.9824 226.2091 243.8092 229.7303 258 225 C268.2761 221.5746 269.386 211.5489 280 207 C290.1037 202.6698 300.4688 206.3948 307 204 C308.3791 203.4943 309.4956 199.867 310 196 C310.9016 189.0875 310 181 310 181 "/>
<path id="18" d="M199 216 L203 247 "/>
<path id="19" d="M209 235 C209 235 226.5282 238.3223 242 238 C249.0851 237.8524 255.5394 233.8174 257 234 C257.1763 234.022 258.5316 239.3502 258 240 C256.6476 241.6529 252.6805 244.4681 248 245 C232.9418 246.7112 228.1235 246.4124 214 245 C211.3415 244.7341 208.6962 242.3924 208 241 C207.453 239.906 209 235 209 235 "/>
<path id="20" d="M217 238 L217 243 "/>
<path id="21" d="M224 241 L226 243 "/>
<path id="22" d="M233 239 L235 246 "/>
<path id="23" d="M243 242 L243 241 "/>
<path id="24" d="M243 240 L244 238 "/>
<path id="25" d="M250 240 L253 242 "/>
<path id="26" d="M200 248 C200 248 209.7988 253.7371 219 255 C233.7508 257.0246 237.0951 257.5029 251 255 C259.5254 253.4654 261.2133 251.3702 269 246 C274.9787 241.8768 275.6181 236.1951 280 235 C286.7152 233.1686 292.747 237.8675 302 237 C306.4409 236.5837 311.4921 233.8793 312 232 C314.1101 224.1926 312 200 312 200 "/>
<path id="27" d="M314 187 C314 187 318.0259 192.7399 319 198 C320.3069 205.057 319.9506 207.6626 319 214 C318.7356 215.7626 316.5523 216.067 316 218 C314.8304 222.0935 315 228 315 228 "/>
<path id="28" d="M264 103 L253 102 "/>
</g>
</g>
</svg>
