<?xml version="1.0" encoding="utf-8"?>
<!DOCTYPE svg PUBLIC "-//W3C//DTD SVG 1.1//EN" "http://www.w3.org/Graphics/SVG/1.1/DTD/svg11.dtd">
<svg viewBox="0 0 800 800" preserveAspectRatio="xMinYMin meet" xmlns="http://www.w3.org/2000/svg" version="1.1">
<g fill="none" stroke="black" stroke-linecap="round" stroke-linejoin="round" stroke-width="0.91206">
<g transform="translate(110.5448,87.52) scale(3.2893) translate(-259,-128)">
<path id="0" d="M279 290 L339 290 "/>
<path id="1" d="M264 318 L356 318 "/>
<path id="2" d="M342 290 C342 290 348.9347 296.6834 354 304 C357.668 309.2982 360 316 360 316 "/>
<path id="3" d="M279 291 C279 291 271.0301 298.2669 264 306 C261.1657 309.1178 260.3261 309.8174 259 313 C258.2701 314.7519 259 318 259 318 "/>
<path id="4" d="M280 281 L282 291 "/>
<path id="5" d="M340 279 L340 291 "/>
<path id="6" d="M272 280 C272 280 298.9997 281.3867 325 280 C335.8972 279.4188 347 276 347 276 "/>
<path id="7" d="M274 275 C274 275 300.0391 275.7829 325 274 C334.4258 273.3267 344 270 344 270 "/>
<path id="8" d="M345 269 L347 276 "/>
<path id="9" d="M275 275 L272 279 "/>
<path id="10" d="M343 270 C343 270 356.1022 265.2745 367 259 C371.8882 256.1856 372.3333 255.4386 376 251 C381.5259 244.3108 382.1896 243.8213 386 236 C391.4427 224.8281 391.6375 224.0488 395 212 C397.516 202.9845 397.0865 202.4391 398 193 C398.5682 187.1282 399.2391 186.1631 398 181 C396.5089 174.7871 392 168 392 168 "/>
<path id="11" d="M345 279 C345 279 366.8634 278.5643 383 273 C392.9986 269.5522 394.4197 266.6927 403 259 C408.2082 254.3306 409.3391 253.2089 412 247 C416.2911 236.9875 416.788 235.3119 418 224 C419.6917 208.2112 419.0627 206.9402 418 191 C417.6071 185.107 417.7234 183.0851 415 179 C410.9798 172.9697 407.2968 170.9726 402 167 C401.2777 166.4583 399 167 399 167 "/>
<path id="12" d="M355 183 C355 183 363.1448 181.4276 370 178 C385.6689 170.1655 385.2382 167.8809 401 160 C409.866 155.567 420 153 420 153 "/>
<path id="13" d="M343 148 C343 148 363.8073 144.7578 383 139 C393.2032 135.9391 403 130 403 130 "/>
<path id="14" d="M404 128 L417 155 "/>
<path id="15" d="M406 128 C406 128 408.7581 137.7281 413 145 C415.23 148.8228 420 152 420 152 "/>
<path id="16" d="M340 150 C340 150 340.8484 158.2362 342 161 C342.219 161.5255 344.6666 161.3331 345 162 C348.3343 168.6687 353 183 353 183 "/>
<path id="17" d="M340 150 L334 150 "/>
<path id="18" d="M357 184 L353 187 "/>
<path id="19" d="M336 152 C336 152 340.7576 166.5556 347 178 C349.1103 181.869 354 185 354 185 "/>
<path id="20" d="M336 153 L318 149 "/>
<path id="21" d="M354 189 L348 196 "/>
<path id="22" d="M322 151 L347 192 "/>
<path id="23" d="M336 176 C336 176 333.7319 179.393 331 181 C325.86 184.0235 319.9693 186 319 186 C318.9192 186 317.7311 181.1921 318 181 C319.9421 179.6128 333 176 333 176 "/>
<path id="24" d="M333 170 C333 170 314.2434 161.8499 308 160 C307.6858 159.9069 305.9277 161.7591 306 162 C306.4903 163.6345 308.2521 168.5787 311 170 C319.306 174.2962 335 177 335 177 "/>
<path id="25" d="M340 180 C340 180 337.3365 188.328 334 194 C332.9811 195.7321 329.9877 196.9898 330 197 C330.0956 197.0796 339.8457 199.2469 340 199 C340.6535 197.9544 340 181 340 181 "/>
<path id="26" d="M411 138 L426 133 "/>
<path id="27" d="M419 146 L431 142 "/>
<path id="28" d="M427 136 L433 144 "/>
<path id="29" d="M429 132 C429 132 433.6254 132.3756 434 133 C434.8991 134.4985 435 142 435 142 "/>
</g>
</g>
</svg>
