<?xml version="1.0" encoding="utf-8"?>
<!DOCTYPE svg PUBLIC "-//W3C//DTD SVG 1.1//EN" "http://www.w3.org/Graphics/SVG/1.1/DTD/svg11.dtd">
<svg viewBox="0 0 800 800" preserveAspectRatio="xMinYMin meet" xmlns="http://www.w3.org/2000/svg" version="1.1">
<g fill="none" stroke="black" stroke-linecap="round" stroke-linejoin="round" stroke-width="0.94566">
<g transform="translate(190.6225,87.52) scale(3.1724) translate(-112,-62.1333)">
<path id="0" d="M122 214.1333 C122 214.1333 122.4525 227.9796 124 241.1333 C124.4111 244.6277 124.387 245.5122 126 248.1333 C127.8994 251.2199 129.6596 253.9773 132 254.1333 C168.2277 256.5485 195.6225 258.6392 231 255.1333 C235.7179 254.6658 241.8686 248.2246 243 243.1333 C246.2399 228.5537 246.8273 213.5158 243 201.1333 C241.3365 195.7515 234.5607 193.2063 226 188.1333 C221.9186 185.7147 220.771 185.1846 216 185.1333 C176.5385 184.709 169.8374 183.9982 133 187.1333 C127.9018 187.5672 126.3364 189.4474 122 193.1333 C117.0576 197.3344 113 201.0299 113 204.1333 C113 210.9044 118.6604 216.6302 122 228.1333 C122.8784 231.159 122 235.1333 122 235.1333 "/>
<path id="1" d="M121 214.1333 C121 214.1333 118.8183 200.8149 121 197.1333 C123.5001 192.9144 129.9047 187.7358 137 187.1333 C174.8643 183.9184 187.1734 184.7196 227 188.1333 C233.9346 188.7277 241.0721 192.9129 242 196.1333 C245.884 209.6131 246.3622 228.8259 244 247.1333 C243.4278 251.5676 238.4466 256.6511 234 258.1333 C225.4322 260.9893 220.9939 259.0119 208 259.1333 C167.5335 259.5115 160.9644 259.942 127 259.1333 C125.7221 259.1029 124.6172 258.3162 124 257.1333 C119.5519 248.6079 118.5232 246.7029 115 236.1333 C112.6512 229.0869 112.6021 228.5588 112 221.1333 C111.1311 210.4164 111.5029 204.8498 112 199.1333 C112.0265 198.8283 114 198.1333 114 198.1333 "/>
<path id="2" d="M173 120.1333 C173 120.1333 170.2737 126.7478 170 133.1333 C168.8118 160.8572 170 190.1333 170 190.1333 "/>
<path id="3" d="M204 64.1333 C204 64.1333 190.16 77.1083 182 91.1333 C175.0664 103.0505 172 119.1333 172 119.1333 "/>
<path id="4" d="M239 85.1333 C239 85.1333 228.5407 97.3245 222 110.1333 C217.0336 119.8593 219.3647 121.6184 215 132.1333 C208.4761 147.85 204.5855 148.4596 200 163.1333 C197.8156 170.1233 200 180.1333 200 180.1333 "/>
<path id="5" d="M207 65.1333 C207 65.1333 213.017 69.7445 217 75.1333 C221.1623 80.7646 221.0964 85.9129 224 88.1333 C225.7139 89.444 234 88.1333 234 88.1333 "/>
<path id="6" d="M205 62.1333 C205 62.1333 215.0493 61.1395 223 62.1333 C225.8159 62.4853 226.8804 63.2065 229 65.1333 C231.7598 67.6423 233.2411 68.9461 234 72.1333 C235.2971 77.5813 234 86.1333 234 86.1333 "/>
<path id="7" d="M125 228.1333 C125 228.1333 148.2313 226.3827 170 227.1333 C176.3437 227.3521 176.6161 229.871 183 230.1333 C212.1874 231.3328 243 230.1333 243 230.1333 "/>
<path id="8" d="M131 228.1333 C131 228.1333 243 229.1333 243 229.1333 C243 229.1333 230.489 230.6912 219 229.1333 C201.726 226.7911 201.4573 223.558 184 221.1333 C165.9787 218.6304 165.3676 219.4935 147 219.1333 C140.0672 218.9974 132.9981 220.1311 133 220.1333 C133.0037 220.1377 142.7037 224.6111 152 225.1333 C185.7506 227.0294 222 225.1333 222 225.1333 "/>
</g>
</g>
</svg>
