<?xml version="1.0" encoding="utf-8"?>
<!DOCTYPE svg PUBLIC "-//W3C//DTD SVG 1.1//EN" "http://www.w3.org/Graphics/SVG/1.1/DTD/svg11.dtd">
<svg viewBox="0 0 800 800" preserveAspectRatio="xMinYMin meet" xmlns="http://www.w3.org/2000/svg" version="1.1">
<g fill="none" stroke="black" stroke-linecap="round" stroke-linejoin="round" stroke-width="0.78725">
<g transform="translate(278.0566,87.52) scale(3.8107) translate(-145,-49.7333)">
<path id="0" d="M190 49.7333 C190 49.7333 195.1256 67.2469 196 68.7333 C196.0137 68.7566 199.3623 67.7536 200 66.7333 C200.9388 65.2313 201.3364 62.0789 201 60.7333 C200.8391 60.0898 199.447 58.9964 198 58.7333 C189.67 57.2188 180.8266 56.4449 179 56.7333 C178.9228 56.7455 178.3028 60.6875 179 61.7333 C180.1156 63.4067 182.2679 65.2366 185 65.7333 C191.498 66.9148 197.508 66.7033 201 65.7333 C201.7396 65.5279 203.2673 61.2146 203 60.7333 C202.4577 59.7571 199.4552 57.8131 196 56.7333 C192.0999 55.5145 191.199 55.3682 187 55.7333 C180.2816 56.3175 175.3615 57.7212 173 58.7333 C172.8014 58.8185 172.4802 61.0186 173 61.7333 C175.3944 65.0256 177.294 68.2832 181 69.7333 C186.1247 71.7386 196 70.7333 196 70.7333 "/>
<path id="1" d="M188 67.7333 C188 67.7333 184.6619 69.7476 184 71.7333 C181.766 78.4353 181.7201 80.2367 181 88.7333 C179.2402 109.4992 179 130.7333 179 130.7333 "/>
<path id="2" d="M200 72.7333 L198 148.7333 "/>
<path id="3" d="M177 129.7333 C177 129.7333 179.336 140.272 178 148.7333 C176.5744 157.7619 170.9789 167.7242 171 167.7333 C171.4371 167.9234 196.306 162.9731 201 158.7333 C203.2358 156.7139 202 139.7333 202 139.7333 "/>
<path id="4" d="M202 154.7333 C202 154.7333 204.4054 180.969 203 181.7333 C196.8196 185.0946 145 185.7333 145 185.7333 "/>
<path id="5" d="M203 182.7333 L203 211.7333 "/>
<path id="6" d="M191 107.7333 C191 107.7333 185.4886 107.2448 185 107.7333 C184.3486 108.3848 183.0637 112.9387 184 114.7333 C187.2929 121.0447 192.0549 126.0792 197 130.7333 C197.705 131.3968 199.9286 131.3762 201 130.7333 C203.5714 129.1905 205.5891 127.7316 207 124.7333 C208.9095 120.6757 208.6626 118.7937 209 113.7333 C209.1192 111.9456 208.7538 110.3794 208 109.7333 C206.687 108.6079 204.9175 108.0575 202 107.7333 C196.3734 107.1082 190.5335 107.1028 190 107.7333 C189.3614 108.4881 189.4239 115.4798 191 120.7333 C192.0073 124.0909 193.8784 126.7432 196 127.7333 C198.5665 128.931 204.8409 128.471 206 127.7333 C206.6323 127.331 207.2586 123.5774 207 120.7333 C206.8435 119.0119 206.1232 117.2949 205 116.7333 C200.5071 114.4869 192.1844 112.4965 191 112.7333 C190.7847 112.7764 189.2895 118.9136 190 119.7333 C192.3322 122.4243 201.468 127.4668 204 127.7333 C204.7452 127.8118 207.6712 124.391 209 121.7333 C209.6253 120.4827 209.6225 119.2451 209 117.7333 C206.5283 111.7307 204.6859 106.3449 202 104.7333 C199.7496 103.3831 191.3597 104.2585 189 105.7333 C187.5063 106.6669 185.4759 112.5061 186 114.7333 C186.6095 117.3239 193 122.7333 193 122.7333 "/>
<path id="7" d="M206 209.7333 C206 209.7333 197.9975 207.9336 191 208.7333 C181.3298 209.8385 171 213.7333 171 213.7333 "/>
<path id="8" d="M174 166.7333 C174 166.7333 171.7698 164.8374 170 164.7333 C164.4379 164.4062 158.6081 164.9911 157 165.7333 C156.7243 165.8606 156.36 169.4533 157 170.7333 C157.64 172.0133 159.6613 173.8449 161 173.7333 C176.9156 172.407 194.5535 169.2869 205 166.7333 C205.452 166.6229 206.3967 163.8243 206 162.7333 C205.038 160.0878 202.4194 156.3785 201 155.7333 C200.1168 155.3319 195 157.7333 195 157.7333 "/>
</g>
</g>
</svg>
