<?xml version="1.0" encoding="utf-8"?>
<!DOCTYPE svg PUBLIC "-//W3C//DTD SVG 1.1//EN" "http://www.w3.org/Graphics/SVG/1.1/DTD/svg11.dtd">
<svg viewBox="0 0 800 800" preserveAspectRatio="xMinYMin meet" xmlns="http://www.w3.org/2000/svg" version="1.1">
<g fill="none" stroke="black" stroke-linecap="round" stroke-linejoin="round" stroke-width="1.1761">
<g transform="translate(236.7451,87.52) scale(2.5509) translate(-193,-175.1333)">
<path id="0" d="M193 419.1333 L299 419.1333 "/>
<path id="1" d="M226 383.1333 L268 383.1333 "/>
<path id="2" d="M227 387.1333 C227 387.1333 221.4037 397.7297 214 405.1333 C205.641 413.4923 194 420.1333 194 420.1333 "/>
<path id="3" d="M266 384.1333 C266 384.1333 271.2979 394.1632 278 401.1333 C283.0491 406.3844 284.9404 405.2857 291 410.1333 C294.7798 413.1571 295.8031 414.3088 298 417.1333 C298.3531 417.5873 298.0306 419.1181 298 419.1333 C297.9542 419.1562 296 418.1333 296 418.1333 "/>
<path id="4" d="M227 386.1333 C227 386.1333 223.6669 375.1366 223 366.1333 C222.7749 363.0939 224.4565 359.1949 225 359.1333 C234.9046 358.0121 273.3012 359.2533 276 360.1333 C276.0229 360.1408 274.0257 367.5317 271 374.1333 C268.632 379.2998 266.1033 382.8921 265 384.1333 C264.944 384.1963 263 383.1333 263 383.1333 "/>
<path id="5" d="M213 358.1333 L230 358.1333 "/>
<path id="6" d="M214 356.1333 C214 356.1333 213.8272 349.1689 214 349.1333 C218.0772 348.2939 231.0858 348.4186 248 349.1333 C266.4697 349.9137 277.6809 350.5925 285 352.1333 C285.3992 352.2174 286.1097 357.0724 286 357.1333 C285.3827 357.4763 276 357.1333 276 357.1333 "/>
<path id="7" d="M276 361.1333 C276 361.1333 285.0304 355.9251 290 349.1333 C299.0945 336.7042 303.0517 333.7691 306 320.1333 C310.0873 301.2295 307.7963 294.1738 306 275.1333 C305.6618 271.5488 303.9893 270.3219 301 267.1333 C296.9063 262.7667 296.1962 262.6886 291 259.1333 C286.8289 256.2794 286.2319 255.0951 282 254.1333 C276.5726 252.8998 269.8391 254.413 269 254.1333 C268.9785 254.1262 269.0379 251.63 270 250.1333 C273.138 245.252 276.0942 240.4798 278 240.1333 C280.5058 239.6777 285.6488 242.4102 292 246.1333 C299.7765 250.6919 301.3442 250.9857 307 257.1333 C311.8713 262.4282 312.2789 263.9418 315 271.1333 C319.0385 281.8065 319.7429 282.8198 321 294.1333 C322.6466 308.9525 323.7422 311.6717 321 325.1333 C318.7673 336.094 316.5767 337.8737 310 348.1333 C304.5344 356.6597 303.6164 357.254 296 364.1333 C288.5477 370.8644 287.0916 372.0875 279 376.1333 C275.6578 377.8044 270 377.1333 270 377.1333 "/>
<path id="8" d="M291 223.1333 C291 223.1333 276.7528 242.6239 262 258.1333 C258.3434 261.9774 253.9379 264.6784 252 264.1333 C245.8876 262.4142 230.0416 250.9617 230 249.1333 C229.9235 245.7688 240.1051 232.8441 251 220.1333 C254.1791 216.4244 256.2862 217.6614 260 214.1333 C265.8991 208.5292 270.2334 200.9417 271 201.1333 C273.5966 201.7825 292 222.1333 292 222.1333 "/>
<path id="9" d="M274 202.1333 C274 202.1333 283.0252 196.1081 290 189.1333 C294.0887 185.0447 294.9047 180.8476 297 179.1333 C297.4391 178.774 301.0323 180.0952 301 180.1333 C300.3633 180.8857 275 205.1333 275 205.1333 "/>
<path id="10" d="M296 175.1333 C296 175.1333 298.3544 174.6491 299 175.1333 C301.0446 176.6667 304 181.1333 304 181.1333 "/>
<path id="11" d="M260 242.1333 C260 242.1333 256.2028 239.2984 255 237.1333 C254.3814 236.0199 254.7582 233.2542 255 233.1333 C256.2694 232.4987 261.7163 231.8597 265 232.1333 C265.7175 232.1931 267 233.5083 267 234.1333 C267 237.8838 265.9712 244.4684 265 246.1333 C264.7849 246.5021 260.5078 246.6411 260 246.1333 C259.086 245.2193 258 239.1333 258 239.1333 "/>
<path id="12" d="M231 250.1333 L221 246.1333 "/>
<path id="13" d="M254 263.1333 C254 263.1333 254.2382 271.0613 254 272.1333 C253.9882 272.1863 252 272.1333 252 272.1333 "/>
<path id="14" d="M228 249.1333 C228 249.1333 215.9889 249.1055 216 249.1333 C216.0514 249.2618 224.591 257.448 234 264.1333 C243.3658 270.788 254 276.1333 254 276.1333 "/>
<path id="15" d="M223 253.1333 C223 253.1333 209.54 257.5933 209 258.1333 C208.9716 258.1618 211.9998 263.0745 213 263.1333 C215.9732 263.3082 226 259.1333 226 259.1333 "/>
<path id="16" d="M232 262.1333 C232 262.1333 227.4522 268.1606 224 270.1333 C222.3523 271.0748 217.9997 270.1331 218 270.1333 C218.0005 270.1337 224.6433 272.9189 227 272.1333 C230.2993 271.0336 236 264.1333 236 264.1333 "/>
<path id="17" d="M245 270.1333 C245 270.1333 240.9573 285.4929 241 286.1333 C241.0018 286.1605 245.8569 285.5625 246 285.1333 C246.7511 282.88 246 271.1333 246 271.1333 "/>
</g>
</g>
</svg>
