<?xml version="1.0" encoding="utf-8"?>
<!DOCTYPE svg PUBLIC "-//W3C//DTD SVG 1.1//EN" "http://www.w3.org/Graphics/SVG/1.1/DTD/svg11.dtd">
<svg viewBox="0 0 800 800" preserveAspectRatio="xMinYMin meet" xmlns="http://www.w3.org/2000/svg" version="1.1">
<g fill="none" stroke="black" stroke-linecap="round" stroke-linejoin="round" stroke-width="0.81605">
<g transform="translate(184.9402,87.52) scale(3.6762) translate(-296,-100.4167)">
<path id="0" d="M336 143.4167 C336 143.4167 356.5317 141.9528 373 143.4167 C376.719 143.7472 377.7774 144.8079 381 147.4167 C387.7455 152.8773 390.6357 153.8859 394 160.4167 C397.768 167.7311 397.1159 170.692 398 180.4167 C398.5604 186.5814 399.3246 189.0257 397 193.4167 C391.8454 203.1532 388.8546 207.3851 380 214.4167 C374.2774 218.9611 371.3895 218.8712 363 220.4167 C353.1837 222.2249 342 221.4167 342 221.4167 "/>
<path id="1" d="M335 129.4167 C335 129.4167 371.2811 129.3905 398 133.4167 C402.644 134.1165 405.0383 136.6088 408 140.4167 C410.8281 144.0527 411.7154 146.1992 412 151.4167 C413.1148 171.8553 413.351 174.5936 411 195.4167 C410.0046 204.2332 409.1999 205.7169 405 213.4167 C400.7463 221.2152 398.0946 227.0842 393 228.4167 C375.8751 232.8955 360.3952 231.12 340 230.4167 C338.0203 230.3484 335 226.4167 335 226.4167 "/>
<path id="2" d="M333 103.4167 L333 157.4167 "/>
<path id="3" d="M333 154.4167 L333 179.4167 "/>
<path id="4" d="M326 104.4167 C326 104.4167 327.3112 128.815 326 152.4167 C325.3383 164.3268 322 176.4167 322 176.4167 "/>
<path id="5" d="M322 177.4167 C322 177.4167 326.0506 179.7078 327 181.4167 C327.7004 182.6773 326.9893 186.4182 327 186.4167 C327.1174 186.3999 334 180.4167 334 180.4167 "/>
<path id="6" d="M305 198.4167 L372 199.4167 "/>
<path id="7" d="M343 202.4167 C343 202.4167 341.8261 211.0689 341 211.4167 C338.6345 212.4127 326.0179 211.7619 324 210.4167 C323.0482 209.7821 322.5249 199.7651 323 199.4167 C324.0757 198.6278 339 199.4167 339 199.4167 "/>
<path id="8" d="M333 214.4167 C333 214.4167 334.8105 213.3219 335 213.4167 C335.4422 213.6378 336.8988 215.1013 337 216.4167 C337.7379 226.0096 337 239.4167 337 239.4167 "/>
<path id="9" d="M325 213.4167 C325 213.4167 325.1468 247.9993 326 250.4167 C326.0202 250.4738 331.6128 247.686 337 247.4167 C370.3618 245.7486 397.7271 243.8166 406 246.4167 C406.9911 246.7282 407.447 269.3191 407 269.4167 C394.6277 272.1161 308.5479 274.0341 296 270.4167 C294.9218 270.1058 294.3207 240.6766 296 237.4167 C296.4457 236.5516 304.911 236.4055 313 237.4167 C320.3753 238.3386 320.6849 241.1211 328 241.4167 C368.5277 243.0542 399.7184 239.8273 412 241.4167 C412.3543 241.4625 413 252.4167 413 252.4167 "/>
<path id="10" d="M357 221.4167 C357 221.4167 355 221.4167 355 221.4167 C355 221.9904 356.1888 228.9005 357 229.4167 C357.9568 230.0255 365.4566 229.028 366 228.4167 C366.4294 227.9336 365.6633 221.3011 365 220.4167 C364.7157 220.0376 361.7088 219.7332 360 220.4167 C357.7444 221.3189 355 224.4167 355 224.4167 "/>
<path id="11" d="M360 225.4167 C360 225.4167 363.9106 228.3943 364 228.4167 C364.0094 228.419 364 226.4167 364 226.4167 "/>
<path id="12" d="M355 131.4167 C355 131.4167 348.2865 129.9021 347 130.4167 C346.3229 130.6875 345 133.3062 345 135.4167 C345 139.6377 345.7502 143.6981 347 145.4167 C347.5852 146.2214 352.7134 146.7391 353 146.4167 C353.7789 145.5404 355.1939 138.7439 355 136.4167 C354.9556 135.8842 352 134.4167 352 134.4167 "/>
<path id="13" d="M328 104.4167 C328 104.4167 334.003 102.4207 334 102.4167 C333.9893 102.4025 326.3248 100.2842 325 100.4167 C324.8043 100.4362 323.8276 103.1293 324 103.4167 C324.3161 103.9436 328 105.4167 328 105.4167 "/>
<path id="14" d="M325 123.4167 C325 123.4167 321.0023 122.4058 321 122.4167 C320.7108 123.7902 319.6239 140.8112 321 142.4167 C322.1304 143.7355 339 143.4167 339 143.4167 "/>
<path id="15" d="M337 123.4167 C337 123.4167 341.9482 123.2355 342 123.4167 C342.7713 126.1162 343.7874 141.5295 343 144.4167 C342.8895 144.8219 336 145.4167 336 145.4167 "/>
<path id="16" d="M322 140.4167 C322 140.4167 318.3225 163.599 315 168.4167 C313.9914 169.8792 303.4311 168.536 302 169.4167 C301.5472 169.6953 301.4352 173.5928 302 176.4167 C302.2743 177.7883 303.5669 179.4167 304 179.4167 C306.3821 179.4167 314.4695 176.063 315 176.4167 C315.4912 176.7441 315.3523 186.607 316 187.4167 C316.2525 187.7323 322.6758 187.0188 323 186.4167 C323.8158 184.9017 323.5008 175.2037 323 174.4167 C322.8558 174.1901 316.4738 175.8905 316 175.4167 C314.8945 174.3111 313 164.4167 313 164.4167 "/>
<path id="17" d="M307 198.4167 C307 198.4167 306.8043 216.2426 308 218.4167 C308.32 218.9985 317.5865 219.0557 318 218.4167 C319.1277 216.6738 319 201.4167 319 201.4167 "/>
<path id="18" d="M352 128.4167 L353 135.4167 "/>
<path id="19" d="M356 130.4167 C356 130.4167 354 131.7916 354 132.4167 C354 136.1671 355.2 143.3167 356 144.4167 C356.2 144.6917 361.0153 144.4014 362 143.4167 C363.5474 141.8692 364.4564 138.9502 365 135.4167 C365.3113 133.3929 364.5453 130.8711 364 130.4167 C363.4723 129.9769 360.5968 129.8179 359 130.4167 C357.6826 130.9107 356.494 132.0993 356 133.4167 C355.4012 135.0135 355.4012 136.8198 356 138.4167 C356.494 139.7341 357.6886 140.9795 359 141.4167 C360.9671 142.0724 363.0329 142.0724 365 141.4167 C366.3114 140.9795 367.5629 139.7281 368 138.4167 C368.6557 136.4496 368.604 133.1069 368 132.4167 C367.1822 131.482 361 130.4167 361 130.4167 "/>
</g>
</g>
</svg>
