<?xml version="1.0" encoding="utf-8"?>
<!DOCTYPE svg PUBLIC "-//W3C//DTD SVG 1.1//EN" "http://www.w3.org/Graphics/SVG/1.1/DTD/svg11.dtd">
<svg viewBox="0 0 800 800" preserveAspectRatio="xMinYMin meet" xmlns="http://www.w3.org/2000/svg" version="1.1">
<g fill="none" stroke="black" stroke-linecap="round" stroke-linejoin="round" stroke-width="1.8961">
<g transform="translate(199.0635,87.52) scale(1.5822) translate(-129,-16)">
<path id="0" d="M163 351 C163 351 236.3561 377.8658 310 401 C331.337 407.7027 332.3069 407.6626 354 411 C364.0037 412.539 372.9944 413.0748 375 411 C378.7281 407.1434 380.2636 395.708 383 381 C384.1297 374.9278 383.9923 368.5067 383 368 C375.1346 363.9836 359.1819 359.125 336 357 C300.7503 353.7688 295.0418 360.4828 263 357 C254.1833 356.0417 244.1205 347.2108 244 347 C243.9868 346.9769 249.7661 343.1853 255 343 C302.9156 341.3039 321.916 345.8705 357 343 C360.005 342.7541 363.123 337.9887 365 334 C366.1764 331.5002 365.9667 327.45 365 326 C363.8722 324.3083 361.0901 323.5069 357 322 C351.7737 320.0745 351.3354 319.1096 346 319 C280.885 317.662 275.3891 315.8005 211 319 C198.4095 319.6256 197.425 322.2212 185 327 C178.2945 329.5791 177.5129 330.0185 172 334 C169.1503 336.0581 167.5828 337.5229 167 340 C166.1257 343.7156 168 351 168 351 "/>
<path id="1" d="M180 337 L180 264 "/>
<path id="2" d="M210 320 L210 254 "/>
<path id="3" d="M182 270 C182 270 181.1655 252.4053 182 252 C185.2942 250.4 217 253 217 253 "/>
<path id="4" d="M183 252 C183 252 229.3227 254.3279 272 252 C282.2269 251.4422 293 246 293 246 "/>
<path id="5" d="M293 246 C293 246 264.5868 244.5124 239 247 C230.2105 247.8545 229.7469 252.0793 221 253 C202.6907 254.9273 199.7324 254.4777 182 253 C177.7563 252.6464 176.844 251.6209 173 249 C166.2804 244.4184 164.0525 244.1599 160 238 C152.7676 227.0068 149.8318 223.9634 148 211 C143.8417 181.572 143.8838 176.2276 147 146 C148.591 130.5669 152.2036 129.733 158 114 C159.1424 110.8993 159.1126 110.0971 161 108 C163.0392 105.7342 163.8261 105.091 167 104 C210.0229 89.2109 213.113 83.4848 257 75 C284.5422 69.6752 317 75 317 75 "/>
<path id="6" d="M315 80 C315 80 311.9569 86.5581 310 87 C302.2682 88.7459 295.5894 84.17 284 87 C254.9696 94.0888 254.1533 98.5136 224 108 C209.8746 112.444 208.0813 110.2142 195 115 C188.8132 117.2635 187.8791 118.3331 183 123 C176.9443 128.7924 176.0962 129.5878 172 137 C165.9764 147.8998 164.3114 149.443 162 161 C159.6886 172.557 160.7151 174.7938 162 187 C162.6138 192.8313 163.245 193.7195 166 199 C168.9676 204.6879 169.4414 205.4414 174 210 C179.5183 215.5183 180.5512 217.7429 187 220 C198.0997 223.8849 206.8629 219.6079 214 224 C219.8886 227.6237 219.939 236.2554 226 244 C227.587 246.0278 232 247 232 247 "/>
<path id="7" d="M219 229 C219 229 219.7787 224.0106 220 224 C238.3777 223.1165 310.3585 222.2817 323 224 C323.2335 224.0317 323.8077 237.4615 323 238 C321.1827 239.2115 311.7581 236.339 302 238 C289.2858 240.1641 288.7122 244.3857 276 246 C258.5898 248.2108 239.9104 245.922 239 246 C238.9571 246.0037 241 249 241 249 "/>
<path id="8" d="M265 90 C265 90 262.2895 89.7105 262 90 C261.5175 90.4825 261.0278 92.0527 261 94 C260.5426 126.0155 260.9225 157.4814 261 160 C261.0011 160.0358 263 159 263 159 "/>
<path id="9" d="M305 87 C305 87 307.2881 150.3297 303 157 C301.3372 159.5866 260 157 260 157 "/>
<path id="10" d="M260 155 C260 155 254.9133 160.1735 252 166 C245.6879 178.6242 240.4832 191.9295 241 193 C241.3352 193.6944 263.0341 196.7795 266 195 C268.1185 193.7289 269.7036 184.8523 271 175 C272.1296 166.4153 271 157 271 157 "/>
<path id="11" d="M279 159 C279 159 274.5749 188.2066 276 193 C276.3083 194.0369 283.0768 195.2582 290 196 C296.7678 196.7251 302.5216 196.6336 304 196 C304.2716 195.8836 304.9526 192.2717 304 190 C299.1651 178.4705 295.9755 176.4819 291 165 C290.1879 163.1259 291 160 291 160 "/>
<path id="12" d="M242 194 C242 194 241.2366 200.9095 242 202 C242.6584 202.9406 247.3838 204.6061 249 204 C252.1032 202.8363 258 196 258 196 "/>
<path id="13" d="M283 195 C283 195 285.264 203.8426 287 205 C288.7903 206.1935 296.9403 205.578 298 205 C298.3153 204.828 298 199 298 199 "/>
<path id="14" d="M269 73 L272 41 "/>
<path id="15" d="M273 40 C273 40 312.941 37.5237 316 40 C317.8869 41.5275 315 74 315 74 "/>
<path id="16" d="M283 37 C283 37 285.0761 29.2282 284 26 C283.0584 23.1753 277.2308 19.7693 277 19 C276.9544 18.8478 279.3002 16.1244 281 16 C295.9052 14.9094 313.4052 15.6274 318 16 C318.0302 16.0024 318.4389 18.5611 318 19 C316.098 20.902 310.9881 21.9003 310 24 C308.6472 26.8747 310 36 310 36 "/>
<path id="17" d="M153 157 C153 157 148.8647 154.4831 145 154 C137.6166 153.0771 130.1327 153.0088 129 154 C128.1327 154.7588 127.0117 162.9527 129 168 C132.4258 176.6962 136.2243 183.2737 142 187 C146.2636 189.7507 153.7819 188.3109 160 188 C160.7275 187.9636 161.9317 186.786 162 186 C162.6602 178.4076 163.8598 172.9707 162 165 C161.0583 160.964 158.7822 158.7316 155 156 C151.1088 153.1897 144 152 144 152 "/>
<path id="18" d="M144 165 C144 165 150.617 164.1199 152 165 C153.2887 165.8201 155 170.3544 155 172 C155 172.7053 152.9704 174.9254 152 175 C149.0426 175.2275 143.4013 174.2739 142 173 C141.0191 172.1083 140.4512 167.0124 141 165 C141.2906 163.9346 145 162 145 162 "/>
<path id="19" d="M130 157 L146 167 "/>
<path id="20" d="M141 172 C141 172 141.4596 184.9735 142 187 C142.0283 187.1062 145 187 145 187 "/>
<path id="21" d="M150 179 C150 179 153.9698 190.9457 154 191 C154.0052 191.0093 155 188 155 188 "/>
<path id="22" d="M152 175 C152 175 156.9987 175.0007 157 175 C157.0007 174.9997 154 174 154 174 "/>
<path id="23" d="M151 160 L156 157 "/>
<path id="24" d="M298 78 C298 78 294.3276 75.3328 291 75 C280.5159 73.9516 276.5558 73.2888 268 75 C264.9497 75.6101 262.0414 78.2664 261 81 C259.1519 85.8514 258.3856 90.4392 260 96 C262.0747 103.1462 264.7314 107.2104 270 112 C273.3563 115.0512 276.1521 115.1646 282 116 C289.4428 117.0633 291.0783 117.3311 298 116 C302.742 115.0881 304.6413 113.842 308 111 C309.9063 109.387 310.6323 107.8192 311 105 C311.9781 97.5013 311.9425 95.8543 311 88 C310.5365 84.1375 310.2117 82.8923 308 80 C304.4233 75.3228 302.6875 72.9531 298 71 C293.0852 68.9522 284 70 284 70 "/>
<path id="25" d="M289 75 L282 103 "/>
<path id="26" d="M263 86 C263 86 277.1775 88.7009 289 93 C292.6522 94.3281 296 98 296 98 "/>
<path id="27" d="M288 95 C288 95 282.1346 98.6795 280 102 C278.6565 104.09 280.2598 106.3003 279 109 C277.1777 112.9049 273 117 273 117 "/>
<path id="28" d="M288 99 C288 99 300.9207 115.9207 301 116 C301.0106 116.0106 301 112 301 112 "/>
<path id="29" d="M293 94 L309 97 "/>
<path id="30" d="M295 89 L304 81 "/>
<path id="31" d="M279 91 C279 91 279.9727 85.134 279 81 C278.2275 77.7171 275 74 275 74 "/>
<path id="32" d="M276 99 L265 103 "/>
<path id="33" d="M234 248 C234 248 229.3595 246.5468 228 247 C226.9604 247.3465 225.2505 249.3716 225 251 C224.5033 254.2286 224.5034 257.9592 226 260 C228.0501 262.7956 231.3289 264.7261 236 266 C240.8171 267.3138 246.279 267.1473 248 266 C249.3864 265.0758 251.3162 258.2134 251 256 C250.8443 254.9098 248.5571 252.9421 246 252 C240.0335 249.8018 232 249 232 249 "/>
<path id="34" d="M237 255 C237 255 321.9334 256.6061 329 255 C329.0419 254.9905 325 235 325 235 "/>
<path id="35" d="M239 255 C239 255 240.2437 257.4313 240 258 C239.4583 259.2639 236 262 236 262 "/>
<path id="36" d="M229 254 L244 259 "/>
</g>
</g>
</svg>
