<?xml version="1.0" encoding="utf-8"?>
<!DOCTYPE svg PUBLIC "-//W3C//DTD SVG 1.1//EN" "http://www.w3.org/Graphics/SVG/1.1/DTD/svg11.dtd">
<svg viewBox="0 0 800 800" preserveAspectRatio="xMinYMin meet" xmlns="http://www.w3.org/2000/svg" version="1.1">
<g fill="none" stroke="black" stroke-linecap="round" stroke-linejoin="round" stroke-width="1.1233">
<g transform="translate(87.52,190.3446) scale(2.6708) translate(-174,-75)">
<path id="0" d="M316 203 C316 203 311.344 193.551 305 188 C296.4865 180.5507 294.6135 179.8765 284 175 C276.9811 171.7751 275.5116 171.1878 268 171 C256.8375 170.7209 252.4905 170.9872 244 174 C240.6672 175.1826 238.0577 178.2392 237 182 C234.3938 191.2664 234.3612 195.7795 235 206 C235.2207 209.5317 236.3913 210.7774 239 214 C244.4607 220.7455 245.1761 221.8821 252 227 C256.4243 230.3182 257.7567 231.2056 263 232 C272.8109 233.4865 274.578 233.4212 285 232 C295.8096 230.526 298.9821 230.2762 307 226 C311.2423 223.7375 313.3564 220.52 315 216 C316.5279 211.7983 315.8803 208.6949 315 204 C314.6653 202.2149 312 200 312 200 "/>
<path id="1" d="M316 211 C316 211 319.8634 206.1071 323 205 C326.4402 203.7858 329.1278 204.1702 333 205 C334.7978 205.3852 337 208 337 208 "/>
<path id="2" d="M337 208 C337 208 345.7428 191.8537 350 186 C350.2953 185.594 352.2848 186.5526 353 186 C360.661 180.0802 362.6481 174.6678 372 169 C377.0483 165.9404 380.1746 165.4363 386 166 C393.4702 166.7229 397.8364 168.2446 403 172 C405.9663 174.1573 406.8125 177.25 408 182 C409.0555 186.2222 409.2667 187.7393 408 192 C404.1657 204.8973 402.4027 211.6327 397 219 C395.295 221.325 390.6803 219.6599 386 222 C380.3837 224.8082 380.0826 228.8843 375 230 C362.9592 232.6431 351.8181 233.0833 345 231 C342.7805 230.3218 340.3682 224.7009 339 219 C337.6766 213.4857 339 206 339 206 "/>
<path id="3" d="M395 167 C395 167 379.1778 137.8744 365 116 C363.744 114.0621 361.3232 114.9186 360 113 C352.542 102.1859 353.1846 98.5949 345 87 C341.7893 82.4515 340.669 82.424 336 79 C333.4247 77.1114 332.8469 76.5694 330 76 C326.1178 75.2236 324.4607 75.2014 321 76 C319.1957 76.4164 317.8757 77.3736 317 79 C315.0263 82.6654 314.6118 84.1054 314 89 C313.1744 95.6047 313.4615 101.9999 314 103 C314.1065 103.1978 320.908 102.3833 321 102 C321.8156 98.6015 319.3803 86.3656 320 78 C320.0835 76.8734 323 75 323 75 "/>
<path id="4" d="M238 181 C238 181 237.4366 174.7209 235 170 C229.8137 159.9515 227.5723 160.1612 222 150 C219.2901 145.0584 220.6131 144.0395 218 139 C213.7658 130.834 213.697 130.2686 208 123 C199.4222 112.056 198.5729 111.5729 189 102 C187.0854 100.0854 186.3309 99.5379 184 99 C180.7242 98.244 176.2036 98.552 176 99 C174.7171 101.8225 173.6993 118.7946 174 121 C174.0094 121.0692 178.9175 121.2356 179 121 C179.9753 118.2133 181 101 181 101 "/>
<path id="5" d="M316 213 C316 213 313.9262 221.3354 314 222 C314.0028 222.0252 316.9479 222.1432 317 222 C317.5425 220.508 318 211 318 211 "/>
<path id="6" d="M338 208 C338 208 334.5125 214.4127 334 218 C333.8199 219.2604 335.9958 222.0056 336 222 C336.0148 221.9803 337 214 337 214 "/>
<path id="7" d="M280 186 C280 186 275.6009 185.7685 274 187 C270.7073 189.5329 268.487 191.7248 267 196 C265.1341 201.3643 266 210 266 210 "/>
<path id="8" d="M286 195 C286 195 282.2126 195.4685 282 196 C280.7899 199.0253 280 210 280 210 "/>
<path id="9" d="M290 204 L289 205 "/>
<path id="10" d="M379 186 C379 186 375.118 186.5675 375 187 C373.7845 191.457 373 208 373 208 "/>
<path id="11" d="M385 191 C385 191 382.1132 191.6225 382 192 C381.4636 193.7881 382 201 382 201 "/>
<path id="12" d="M391 192 L391 194 "/>
</g>
</g>
</svg>
