<?xml version="1.0" encoding="utf-8"?>
<!DOCTYPE svg PUBLIC "-//W3C//DTD SVG 1.1//EN" "http://www.w3.org/Graphics/SVG/1.1/DTD/svg11.dtd">
<svg viewBox="0 0 800 800" preserveAspectRatio="xMinYMin meet" xmlns="http://www.w3.org/2000/svg" version="1.1">
<g fill="none" stroke="black" stroke-linecap="round" stroke-linejoin="round" stroke-width="1.5217">
<g transform="translate(87.52,283.6825) scale(1.9715) translate(-116.5,-130.6667)">
<path id="0" d="M116.5 201.6667 L122.5 240.6667 "/>
<path id="1" d="M119.5 204.6667 C119.5 204.6667 122.7612 201.7707 125.5 201.6667 C158.2011 200.4249 176.7266 199.1862 198.5 201.6667 C200.5954 201.9054 202.4403 205.9855 204.5 210.6667 C207.7205 217.986 208.1519 218.8475 209.5 226.6667 C210.5394 232.695 210.4011 234.5607 209.5 239.6667 C209.1861 241.4457 207.951 243.2314 206.5 243.6667 C196.6543 246.6204 192.8161 248.0009 179.5 248.6667 C153.6251 249.9604 150.3612 249.6225 126.5 247.6667 C122.7565 247.3598 119.0364 244.9183 118.5 243.6667 C117.8398 242.1262 120.5 233.6667 120.5 233.6667 "/>
<path id="2" d="M209.5 218.6667 C209.5 218.6667 208.4387 223.6656 208.5 223.6667 C212.2705 223.7352 264.5 219.6667 264.5 219.6667 "/>
<path id="3" d="M263.5 198.6667 C263.5 198.6667 262.1131 209.7269 263.5 219.6667 C265.0083 230.476 269.4987 241.6634 269.5 241.6667 C269.5004 241.6676 269.5 234.6667 269.5 234.6667 "/>
<path id="4" d="M265.5 198.6667 C265.5 198.6667 295.1084 199.8334 323.5 198.6667 C330.903 198.3624 336.5842 194.6632 338.5 195.6667 C340.4022 196.6631 343.3916 202.858 344.5 209.6667 C346.6583 222.9245 346.3214 232.3006 345.5 238.6667 C345.4247 239.2499 342.8988 240.5256 340.5 240.6667 C310.915 242.407 307.5161 242.6667 277.5 242.6667 C274.1649 242.6667 271.5204 241.5413 270.5 240.6667 C270.0986 240.3226 270.5 236.6667 270.5 236.6667 "/>
<path id="5" d="M120.5 220.6667 L119.5 220.6667 "/>
<path id="6" d="M120.5 200.6667 C120.5 200.6667 129.3549 201.1537 133.5 198.6667 C139.2798 195.1988 138.9564 191.0821 145.5 185.6667 C153.0053 179.4554 154.7787 180.7905 162.5 174.6667 C168.9586 169.5443 169.7153 169.0462 174.5 162.6667 C178.2594 157.6541 176.7308 155.3227 180.5 150.6667 C184.5034 145.7213 185.6912 145.5392 191.5 141.6667 C200.498 135.668 202.2006 132.7415 210.5 130.6667 C216.7961 129.0926 227.5 132.6667 227.5 132.6667 "/>
<path id="7" d="M348.5 219.6667 C348.5 219.6667 366.0322 206.2989 379.5 190.6667 C393.4104 174.5207 391.7166 167.7544 404.5 154.6667 C409.4943 149.5535 414.1159 149.6805 421.5 147.6667 C423.346 147.1632 426.5 148.6667 426.5 148.6667 "/>
<path id="8" d="M417.5 147.6667 L433.5 148.6667 "/>
<path id="9" d="M209.5 223.6667 C209.5 223.6667 214.5546 221.2319 219.5 220.6667 C231.5084 219.2943 232.0052 219.9714 244.5 219.6667 C252.4889 219.4718 260.4929 219.664 260.5 219.6667 C260.5031 219.6678 256.378 222.3294 252.5 222.6667 C234.6202 224.2214 214.5 223.6667 214.5 223.6667 "/>
</g>
</g>
</svg>
