<?xml version="1.0" encoding="utf-8"?>
<!DOCTYPE svg PUBLIC "-//W3C//DTD SVG 1.1//EN" "http://www.w3.org/Graphics/SVG/1.1/DTD/svg11.dtd">
<svg viewBox="0 0 800 800" preserveAspectRatio="xMinYMin meet" xmlns="http://www.w3.org/2000/svg" version="1.1">
<g fill="none" stroke="black" stroke-linecap="round" stroke-linejoin="round" stroke-width="2.3089">
<g transform="translate(87.52,255.7785) scale(1.2993) translate(-93,-87)">
<path id="0" d="M322 171 C322 171 317.2508 170.5866 314 172 C306.7109 175.1692 305.2567 175.8314 299 181 C294.4651 184.7462 293.84 185.757 291 191 C287.6895 197.1117 286.8614 198.1086 286 205 C283.5114 224.9086 283.2832 227.287 284 247 C284.2248 253.1806 284.7455 255.1183 288 260 C293.7473 268.6209 295.1281 271.1412 304 277 C319.9301 287.5199 322.3001 288.2247 341 295 C355.8391 300.3765 357.066 299.5949 373 302 C383.1952 303.5389 386.3034 305.4489 394 303 C404.3355 299.7114 407.5585 296.2233 417 288 C421.8306 283.7927 422.0375 282.1718 425 276 C427.7904 270.1866 428.2298 269.3542 429 263 C430.1423 253.5758 430.4625 252.2625 429 243 C427.6145 234.225 426.6736 233.5718 423 225 C419.2753 216.3091 419.4435 215.4596 414 208 C406.3466 197.512 405.9696 195.2328 396 188 C382.0979 177.9142 379.1104 175.1309 363 171 C343.2628 165.9392 318 168 318 168 "/>
<path id="1" d="M283 233 C283 233 282.924 228.7108 282 228 C278.9786 225.6759 275.7649 224.4412 270 223 C266.5193 222.1298 265.3288 221.9262 262 223 C251.0875 226.5201 249.035 227.1732 239 233 C234.5949 235.5578 231 241 231 241 "/>
<path id="2" d="M287 230 C287 230 284.9881 240.133 286 243 C286.5177 244.4668 291.5007 246.6668 293 247 C293.2956 247.0657 294.7086 245.8743 295 245 C295.4371 243.6886 295.6713 242.3426 295 241 C292.3149 235.6297 287 229 287 229 "/>
<path id="3" d="M232 241 C232 241 231.2245 232.2274 228 225 C217.0935 200.5544 214.8164 188.2709 203 176 C197.9872 170.7944 189.3027 171.8582 176 171 C158.9908 169.9026 157.9458 170.1514 141 172 C131.0835 173.0818 130.361 173.6784 121 177 C115.3557 179.0028 115.0217 179.5641 110 183 C105.7482 185.9091 105.1119 186.17 102 190 C98.989 193.7059 99.163 194.4036 97 199 C95.2068 202.8105 94.3986 203.1464 94 207 C92.9926 216.7379 92.4204 218.1274 94 228 C96.2777 242.2353 96.9995 243.2488 102 257 C104.8065 264.7179 105.2142 265.2644 110 272 C118.4452 283.8858 118.6859 285.7716 129 295 C136.5161 301.7249 138.4178 301.5283 148 306 C152.9234 308.2976 153.7198 308.5938 159 309 C166.0162 309.5397 166.941 309.5263 174 308 C184.9081 305.6415 185.7685 305.3406 196 301 C201.7241 298.5716 203.6347 298.2432 207 294 C213.7454 285.4949 214.7109 283.1992 219 272 C223.4023 260.5051 221.2539 258.9195 225 247 C226.6123 241.8699 230 237 230 237 "/>
<path id="4" d="M228 233 C228 233 226.0492 231 225 231 C222.2022 231 220.4742 231.5524 217 233 C214.9352 233.8604 213.7286 234.5429 213 236 C211.9072 238.1857 211.408 242.3541 212 243 C213.5571 244.6987 218.6705 246.8157 224 248 C226.3486 248.5219 228.6657 247.7624 230 247 C230.5511 246.6851 231 244 231 244 "/>
<path id="5" d="M427 234 C427 234 431.7457 214.7847 439 197 C447.095 177.1541 446.4536 174.6782 458 158 C467.7412 143.9293 470.3141 143.6476 484 132 C493.3599 124.0341 494.0817 123.4592 505 118 C518.453 111.2735 521.2272 109.9476 534 107 C537.863 106.1085 540.2332 107.2422 544 109 C546.5265 110.179 546.8382 111.2977 549 114 C552.7472 118.684 554.3119 119.418 556 124 C557.2078 127.2783 555.7618 131.9279 556 133 C556.0118 133.0529 557.9322 132.8644 558 133 C558.4406 133.8813 559 136.0568 559 139 C559 155.1874 558 172 558 172 "/>
<path id="6" d="M420 221 C420 221 421.7439 210.1987 426 201 C436.9443 177.3461 437.1428 176.2292 451 154 C460.8171 138.2518 461.3838 135.8109 474 124 C483.164 115.421 485.7908 115.0872 498 110 C508.845 105.4812 510.1771 105.3642 522 104 C535.4066 102.4531 538.4372 101.4305 550 104 C557.938 105.764 561.2932 108.2932 567 114 C571.4386 118.4386 573.1361 121.5208 574 128 C575.7856 141.3922 575.8537 146.1586 573 159 C571.5376 165.5807 568.5678 169.4704 564 173 C560.4694 175.7282 551 176 551 176 "/>
<path id="7" d="M98 245 C98 245 98.9785 236.2193 98 228 C96.5268 215.6251 94.0858 215.3783 93 203 C91.6341 187.429 91.5384 186.5901 93 171 C94.4873 155.1358 94.1673 153.7525 99 139 C103.3053 125.8576 103.9255 123.6123 112 113 C120.2653 102.1371 122.7599 99.9581 134 93 C141.7528 88.2006 144.2403 89.0193 154 87 C158.1352 86.1444 159.2333 85.8229 163 87 C173.9339 90.4169 178.8966 90.7577 186 97 C191.9657 102.2426 196 116 196 116 "/>
<path id="8" d="M95 195 C95 195 97.1423 186.7969 101 180 C107.3955 168.7318 110.0541 169.5082 116 158 C125.247 140.1026 122.9199 137.824 132 120 C136.0538 112.0426 137.4415 109.7644 143 105 C145.929 102.4894 148.1255 102.3848 153 102 C166.3327 100.9474 169.7166 100.3881 181 102 C184.1087 102.4441 187.0366 104.6451 188 107 C190.1829 112.336 190 124 190 124 "/>
<path id="9" d="M190 124 L198 116 "/>
</g>
</g>
</svg>
