<?xml version="1.0" encoding="utf-8"?>
<!DOCTYPE svg PUBLIC "-//W3C//DTD SVG 1.1//EN" "http://www.w3.org/Graphics/SVG/1.1/DTD/svg11.dtd">
<svg viewBox="0 0 800 800" preserveAspectRatio="xMinYMin meet" xmlns="http://www.w3.org/2000/svg" version="1.1">
<g fill="none" stroke="black" stroke-linecap="round" stroke-linejoin="round" stroke-width="1.1953">
<g transform="translate(87.52,225.5634) scale(2.5099) translate(-217,-171.1333)">
<path id="0" d="M413 237.1333 C413 237.1333 415.7376 228.8444 420 224.1333 C424.1574 219.5383 426.75 217.6646 432 216.1333 C436.2885 214.8825 439.2109 215.2519 444 217.1333 C451.7012 220.1588 454.1489 221.5482 460 227.1333 C463.7793 230.7408 464.586 232.9487 466 238.1333 C467.2309 242.6466 467.5463 245.113 466 249.1333 C463.3508 256.0213 461.5923 257.9818 456 264.1333 C452.2648 268.2421 451.1773 268.2858 446 271.1333 C441.4394 273.6416 440.8238 274.0614 436 275.1333 C432.456 275.9209 430.9929 276.236 428 275.1333 C422.92 273.2618 420.484 271.8662 417 268.1333 C414.8208 265.7985 414.2351 263.895 414 260.1333 C413.3126 249.1355 415 236.1333 415 236.1333 "/>
<path id="1" d="M353 256.1333 C353 256.1333 356.0722 253.0483 359 252.1333 C363.1645 250.8319 365.1501 250.2167 369 251.1333 C373.9016 252.3004 376.6093 253.5431 380 257.1333 C383.6551 261.0034 384.8214 263.437 386 269.1333 C387.5131 276.4466 387.4601 278.5893 386 286.1333 C384.6978 292.8614 383.8453 295.6472 380 300.1333 C376.5278 304.1843 374.0117 305.2547 368 307.1333 C359.1281 309.9058 354.3461 312.0372 348 310.1333 C339.8597 307.6912 332.3688 301.7906 328 295.1333 C325.2574 290.9541 326.372 285.6699 327 278.1333 C327.2692 274.9034 327.9929 274.144 330 271.1333 C334.7577 263.9968 335.2119 263.2619 341 257.1333 C343.2941 254.7042 344.2294 253.9249 347 253.1333 C350.1031 252.2467 355 253.1333 355 253.1333 "/>
<path id="2" d="M392 271.1333 C392 271.1333 394.3553 262.6409 394 262.1333 C393.6588 261.6458 385 261.1333 385 261.1333 "/>
<path id="3" d="M415 250.1333 C415 250.1333 406.0484 256.4076 406 257.1333 C405.9525 257.8463 414 265.1333 414 265.1333 "/>
<path id="4" d="M412 248.1333 L384 260.1333 "/>
<path id="5" d="M400 256.1333 L404 255.1333 "/>
<path id="6" d="M391 261.1333 L393 256.1333 "/>
<path id="7" d="M325 279.1333 C325 279.1333 317.7574 270.2541 309 264.1333 C271.9829 238.2612 262.436 231.8877 232 214.1333 C230.1605 213.0603 227.3116 213.8124 225 215.1333 C221.6416 217.0524 218 222.1333 218 222.1333 "/>
<path id="8" d="M460 226.1333 C460 226.1333 451.6977 217.1367 442 211.1333 C410.4021 191.5727 408.563 191.0492 376 174.1333 C371.2014 171.6405 370.3898 171.5703 365 171.1333 C352.536 170.1227 345.353 168.3098 339 171.1333 C334.819 172.9916 329 187.1333 329 187.1333 "/>
<path id="9" d="M223 218.1333 C223 218.1333 219.7435 220.1505 219 222.1333 C217.2763 226.7298 217 234.1333 217 234.1333 "/>
</g>
</g>
</svg>
