<?xml version="1.0" encoding="utf-8"?>
<!DOCTYPE svg PUBLIC "-//W3C//DTD SVG 1.1//EN" "http://www.w3.org/Graphics/SVG/1.1/DTD/svg11.dtd">
<svg viewBox="0 0 800 800" preserveAspectRatio="xMinYMin meet" xmlns="http://www.w3.org/2000/svg" version="1.1">
<g fill="none" stroke="black" stroke-linecap="round" stroke-linejoin="round" stroke-width="2.1409">
<g transform="translate(87.52,212.2317) scale(1.4013) translate(-164,-15)">
<path id="0" d="M221 146 C221 146 214.0386 145.1678 209 147 C198.8116 150.7049 196.3661 151.2167 188 158 C179.2183 165.1203 176.7047 167.1986 172 177 C165.8564 189.7991 165.7189 192.745 164 208 C161.8448 227.1277 163.5713 228.2805 164 248 C164.0645 250.9686 163.687 252.081 165 254 C169.1665 260.0896 170.3584 262.3878 177 267 C187.2124 274.092 188.931 274.8021 201 279 C211.0202 282.4853 212.0963 282.3185 223 283 C243.5822 284.2864 247.5485 286.7018 265 283 C276.2063 280.6229 279.0263 276.8581 289 269 C294.2543 264.8602 294.9994 263.2155 298 257 C301.564 249.6175 302.0646 248.4187 303 240 C305.4628 217.8344 307.3751 214.1882 305 194 C303.7972 183.7761 301.1614 181.1081 295 172 C290.5459 165.4157 288.9446 164.8612 282 160 C274.4389 154.7072 273.743 154.1475 265 151 C249.3455 145.3644 248.2006 144.651 232 142 C221.661 140.3082 216.8643 140.9017 210 142 C208.8643 142.1817 207 146 207 146 "/>
<path id="1" d="M307 200 C307 200 321.537 198.8812 323 200 C324.0004 200.765 323.1148 212.5397 324 213 C326.7376 214.4235 345.2624 214.4235 348 213 C348.8852 212.5397 348.197 200.3123 349 200 C353.693 198.175 384 199 384 199 "/>
<path id="2" d="M435 137 C435 137 435.1 135.05 435 135 C434.6 134.8 432.529 134.3629 431 135 C421.7624 138.849 419.1913 138.5894 411 145 C397.3564 155.6776 395.0148 157.6469 385 171 C379.8825 177.8233 378.9315 180.3501 378 189 C375.6655 210.6779 375.2761 214.2091 378 236 C379.5141 248.1125 381.094 250.2619 387 261 C391.3679 268.9415 393.25 271.5 400 276 C405.9674 279.9783 408.8765 280.5402 417 281 C433.8678 281.9548 437.752 282.9434 453 279 C463.5901 276.2612 467.3017 273.6983 475 266 C482.6983 258.3017 483.3777 254.9779 488 244 C490.9044 237.102 490.5339 235.9229 491 228 C492.0084 210.8578 494.4551 206.8205 491 193 C488.5814 183.3256 485.1116 180.5623 477 172 C468.0411 162.5433 466.453 162.1914 455 155 C445.4382 148.9961 444.2042 147.6104 434 145 C424.3599 142.5339 421.1608 143.3214 412 144 C409.8181 144.1616 407 147 407 147 "/>
<path id="3" d="M324 205 C324 205 321.7795 226.9687 318 235 C316.9976 237.1302 308 239 308 239 "/>
<path id="4" d="M349 210 C349 210 352.4552 210.8558 353 212 C356.0498 218.4046 354.9451 222.62 359 231 C362.0277 237.2573 363.9497 241.0499 368 243 C373.0654 245.4389 386 244 386 244 "/>
<path id="5" d="M181 168 C181 168 179.9762 161.1572 182 158 C190.4416 144.8311 192.4087 141.0812 206 129 C240.7974 98.069 242.531 97.9329 281 70 C320.806 41.0963 327.6469 36.3673 363 15 C365.761 13.3313 370.5633 13.8506 372 15 C374.4903 16.9923 375.9497 20.8491 378 27 C381.8077 38.423 381.9193 39.2091 384 51 C384.8303 55.7053 385.4448 58.7125 384 61 C381.6048 64.7925 372 70 372 70 "/>
<path id="6" d="M453 154 C453 154 463.4449 142.698 475 133 C491.2781 119.338 490.9791 117.442 509 107 C543.4731 87.0249 548.5737 85.8562 582 71 C585.0046 69.6646 587.3319 69.9328 590 71 C593.135 72.254 594.3295 73.6174 597 77 C601.4752 82.6685 602.1967 83.3151 605 90 C608.4447 98.2144 608.7003 99.1621 610 108 C611.1099 115.5476 611.6388 121.7057 610 124 C608.3905 126.2534 595 129 595 129 "/>
</g>
</g>
</svg>
