<?xml version="1.0" encoding="utf-8"?>
<!DOCTYPE svg PUBLIC "-//W3C//DTD SVG 1.1//EN" "http://www.w3.org/Graphics/SVG/1.1/DTD/svg11.dtd">
<svg viewBox="0 0 800 800" preserveAspectRatio="xMinYMin meet" xmlns="http://www.w3.org/2000/svg" version="1.1">
<g fill="none" stroke="black" stroke-linecap="round" stroke-linejoin="round" stroke-width="2.2705">
<g transform="translate(87.52,314.1175) scale(1.3213) translate(-35,-127)">
<path id="0" d="M134 172 C134 172 136.4217 184.0484 137 196 C137.9101 214.8095 137 234 137 234 C137 234 139 189 139 189 "/>
<path id="1" d="M136 176 C136 176 185.2448 178.4276 228 178 C231.7326 177.9627 235.9501 174.9068 236 175 C237.3489 177.518 241.2149 190.6036 243 206 C245.1389 224.4477 245.1254 241.1061 244 244 C243.8853 244.2949 235.6044 241.131 229 242 C218.2796 243.4106 217.5234 246.784 206 249 C192.0008 251.6922 191.0309 249.5056 177 252 C168.9763 253.4264 168.8216 255.7385 161 257 C154.0191 258.1259 151.3896 257.6341 146 257 C145.1969 256.9055 144.294 255.9994 144 255 C142.1962 248.8671 141.506 247.4209 141 240 C140.035 225.846 141 211 141 211 "/>
<path id="2" d="M244 207 C244 207 258.1014 208.9831 270 207 C280.6782 205.2203 281.3219 200.9866 292 199 C301.5469 197.2238 313 199 313 199 "/>
<path id="3" d="M313 173 C313 173 312.6031 195.6504 314 218 C315.0927 235.4829 318 253 318 253 "/>
<path id="4" d="M314 176 C314 176 363.0811 176.3274 406 175 C408.3606 174.927 410.9888 172.9622 411 173 C412.1381 176.8208 416.4081 197.5753 420 222 C421.3666 231.2931 422.5232 239.5354 421 241 C418.1097 243.7791 407.3123 246.1592 394 247 C360.9367 249.0882 357.9294 245.0531 326 247 C319.2832 247.4096 312 252 312 252 "/>
<path id="5" d="M419 209 C419 209 432.1162 200.1447 444 190 C472.9851 165.2566 478.6716 157.668 501 139 C501.8964 138.2506 504.804 138.664 505 139 C506.1549 140.9799 507.3887 145.0905 508 151 C508.8442 159.1608 508 168 508 168 "/>
<path id="6" d="M141 200 C141 200 102.3515 174.4612 70 147 C61.081 139.4293 60.9803 131.9836 55 127 C53.3003 125.5836 47.6834 125.6533 46 127 C41.5484 130.5613 35 143 35 143 "/>
</g>
</g>
</svg>
