<?xml version="1.0" encoding="utf-8"?>
<!DOCTYPE svg PUBLIC "-//W3C//DTD SVG 1.1//EN" "http://www.w3.org/Graphics/SVG/1.1/DTD/svg11.dtd">
<svg viewBox="0 0 800 800" preserveAspectRatio="xMinYMin meet" xmlns="http://www.w3.org/2000/svg" version="1.1">
<g fill="none" stroke="black" stroke-linecap="round" stroke-linejoin="round" stroke-width="0.84485">
<g transform="translate(87.52,265.0655) scale(3.5509) translate(-157,-160.9833)">
<path id="0" d="M181 194.9833 C181 194.9833 187.953 193.4226 193 193.9833 C195.6886 194.2821 196.4247 195.0948 199 196.9833 C203.669 200.4073 205.2401 200.9689 208 204.9833 C209.8237 207.636 209.7884 209.1745 210 212.9833 C210.2594 217.6531 210.5951 219.3945 209 222.9833 C207.3031 226.8013 205.8694 228.2747 202 230.9833 C196.7179 234.6808 195.199 235.2927 189 236.9833 C185.1882 238.0229 183.1999 238.2924 180 236.9833 C174.0689 234.557 170.3823 233.0567 167 227.9833 C161.2565 219.3682 157.0526 208.365 158 203.9833 C158.7163 200.6702 167.293 194.0194 175 190.9833 C180.5744 188.7874 183.7339 189.8655 191 190.9833 C195.8208 191.725 201 194.9833 201 194.9833 "/>
<path id="1" d="M215 213.9833 C215 213.9833 209.9962 213.9897 210 213.9833 C210.0125 213.9625 213.8584 210.7583 218 208.9833 C224.0082 206.4084 224.5359 206.0978 231 204.9833 C238.6365 203.6667 241.7348 202.9804 247 203.9833 C248.9824 204.3609 252 208.9833 252 208.9833 "/>
<path id="2" d="M252 207.9833 C252 207.9833 251.1556 212.6056 252 215.9833 C252.95 219.7833 253.4162 221.215 256 223.9833 C259.5968 227.837 260.8694 228.4181 266 230.9833 C270.3705 233.1686 271.6777 233.9833 276 233.9833 C281.1868 233.9833 284.3077 233.5679 288 230.9833 C292.1113 228.1054 292.6257 225.6937 296 219.9833 C298.994 214.9166 300.1246 214.2357 301 208.9833 C302.4056 200.55 303.3516 194.2456 301 189.9833 C298.6698 185.7598 291.8627 181.699 285 179.9833 C279.2501 178.5459 274.9108 179.1124 269 181.9833 C259.8453 186.4299 254.446 189.9968 250 196.9833 C246.8371 201.9536 248 214.9833 248 214.9833 "/>
<path id="3" d="M305 202.9833 L333 181.9833 "/>
<path id="4" d="M157 204.9833 C157 204.9833 165.5599 194.5963 175 186.9833 C180.4131 182.6179 182.5435 184.3109 188 179.9833 C196.4384 173.2908 195.9268 170.6525 204 163.9833 C206.619 161.8198 211 160.9833 211 160.9833 "/>
</g>
</g>
</svg>
