<?xml version="1.0" encoding="utf-8"?>
<!DOCTYPE svg PUBLIC "-//W3C//DTD SVG 1.1//EN" "http://www.w3.org/Graphics/SVG/1.1/DTD/svg11.dtd">
<svg viewBox="0 0 800 800" preserveAspectRatio="xMinYMin meet" xmlns="http://www.w3.org/2000/svg" version="1.1">
<g fill="none" stroke="black" stroke-linecap="round" stroke-linejoin="round" stroke-width="1.1761">
<g transform="translate(87.52,276.2834) scale(2.5509) translate(-173,-155.1333)">
<path id="0" d="M182 155.1333 L341 156.1333 "/>
<path id="1" d="M342 156.1333 C342 156.1333 347.921 158.6369 350 162.1333 C357.6003 174.9156 364 193.1333 364 193.1333 "/>
<path id="2" d="M365 194.1333 C365 194.1333 403.6736 193.5596 409 195.1333 C409.4263 195.2593 409 207.1333 409 207.1333 "/>
<path id="3" d="M410 205.1333 L410 213.1333 "/>
<path id="4" d="M402 216.1333 C402 216.1333 416.9356 215.1354 418 216.1333 C418.9356 217.0104 418.6789 230.8424 418 231.1333 C414.3039 232.7174 383 231.1333 383 231.1333 "/>
<path id="5" d="M346 232.1333 C346 232.1333 345.1775 224.3858 347 220.1333 C348.8225 215.8808 351.3572 212.5904 355 211.1333 C360.4642 208.9477 367.4296 208.8869 372 210.1333 C373.8878 210.6482 376.1727 213.8242 377 217.1333 C378.7298 224.0524 377.4697 232.7191 378 234.1333 C378.0267 234.2045 383 233.1333 383 233.1333 "/>
<path id="6" d="M380 231.1333 L384 230.1333 "/>
<path id="7" d="M345 232.1333 L275 232.1333 "/>
<path id="8" d="M182 156.1333 C182 156.1333 179.5225 155.6855 179 156.1333 C177.4076 157.4983 175.1511 159.5275 175 162.1333 C173.4729 188.4765 175 225.1333 175 225.1333 "/>
<path id="9" d="M237 232.1333 C237 232.1333 238.6642 223.8674 237 221.1333 C233.8953 216.0327 229.2131 212.1156 223 209.1333 C219.5413 207.4731 216.711 207.9556 212 209.1333 C205.7901 210.6858 200.9189 212.191 199 215.1333 C196.574 218.8533 197 232.1333 197 232.1333 "/>
<path id="10" d="M196 233.1333 C196 233.1333 174.863 234.1495 173 233.1333 C172.5508 232.8883 174 221.1333 174 221.1333 "/>
<path id="11" d="M238 232.1333 L277 232.1333 "/>
<path id="12" d="M246 219.1333 C246 219.1333 290.1691 220.4182 330 219.1333 C334.3135 218.9942 339 216.1333 339 216.1333 "/>
<path id="13" d="M337 216.1333 C337 216.1333 344.6474 204.5766 351 202.1333 C359.3189 198.9338 367.5608 199.551 376 201.1333 C378.8273 201.6634 381.8036 205.057 383 208.1333 C384.3536 211.614 382.4348 218.8373 383 219.1333 C385.0598 220.2123 404 219.1333 404 219.1333 "/>
<path id="14" d="M245 218.1333 C245 218.1333 243.0187 212.6165 240 209.1333 C237.0719 205.7547 235.622 203.7517 232 203.1333 C218.6868 200.8603 211.4408 200.8574 199 202.1333 C196.5371 202.3859 194.4998 204.4064 193 207.1333 C189.7925 212.9651 190.1971 220.0736 188 222.1333 C186.7322 223.3219 177 222.1333 177 222.1333 "/>
<path id="15" d="M340 166.1333 C340 166.1333 355.0203 189.121 355 189.1333 C354.0018 189.7375 318.8739 190.3386 302 189.1333 C300.9539 189.0586 299.3051 186.9641 299 185.1333 C297.6326 176.9288 297.2299 165.4915 298 165.1333 C302.0814 163.235 342 165.1333 342 165.1333 "/>
<path id="16" d="M188 169.1333 C188 169.1333 216.6417 166.4597 219 168.1333 C220.2708 169.0352 220.3758 190.1126 219 191.1333 C216.5008 192.9876 202.7021 191.5657 188 191.1333 C186.5633 191.0911 185.0348 190.4237 185 190.1333 C184.3852 185.0097 185 166.1333 185 166.1333 "/>
<path id="17" d="M231 169.1333 C231 169.1333 284.4609 166.6267 291 169.1333 C291.9609 169.5017 291.9609 191.765 291 192.1333 C284.4609 194.64 237.6112 194.5574 231 192.1333 C230.1112 191.8074 231 170.1333 231 170.1333 "/>
<path id="18" d="M355 192.1333 C355 192.1333 351.7831 191.3532 350 192.1333 C344.985 194.3274 343.3963 195.365 339 199.1333 C337.1159 200.7483 336.5379 201.8025 336 204.1333 C335.244 207.4092 336.2552 212.0677 336 212.1333 C331.6267 213.2579 303.9837 214.9236 301 213.1333 C299.8551 212.4464 301 191.1333 301 191.1333 "/>
<path id="19" d="M290 192.1333 C290 192.1333 291.0958 212.5433 290 213.1333 C286.2208 215.1683 258.2504 214.5481 251 213.1333 C250.338 213.0042 250.803 207.3871 249 205.1333 C246.1828 201.6118 243.8578 200.2924 239 198.1333 C235.8712 196.7428 231.9795 197.7455 231 197.1333 C230.7161 196.9559 231 193.1333 231 193.1333 "/>
<path id="20" d="M255 198.1333 C255 198.1333 260.4 197.8333 261 198.1333 C261.15 198.2083 261.15 201.0583 261 201.1333 C260.4 201.4333 255.6 201.4333 255 201.1333 C254.85 201.0583 255 198.1333 255 198.1333 "/>
<path id="21" d="M307 196.1333 C307 196.1333 313.4206 195.7195 314 196.1333 C314.2956 196.3445 314.2956 200.9222 314 201.1333 C313.4206 201.5472 307.6596 201.5103 307 201.1333 C306.7846 201.0103 307 197.1333 307 197.1333 "/>
<path id="22" d="M407 200.1333 C407 200.1333 398.8514 200.3765 398 201.1333 C397.4643 201.6095 397.6192 207.9112 398 208.1333 C399.1192 208.7862 410 208.1333 410 208.1333 "/>
<path id="23" d="M176 202.1333 C176 202.1333 182.7344 201.6802 185 202.1333 C185.3524 202.2038 186 203.3329 186 204.1333 C186 206.1344 185.5413 208.7467 185 209.1333 C184.2895 209.6408 179 209.1333 179 209.1333 "/>
<path id="24" d="M231 227.1333 C231 227.1333 225.4386 220.1307 221 218.1333 C217.8409 216.7117 215.275 217.1833 211 218.1333 C207.2 218.9778 206.2009 219.8054 203 222.1333 C201.2662 223.3943 200.2089 224.3926 200 226.1333 C198.9939 234.5176 198.0251 243.9242 200 247.1333 C201.3962 249.4021 208.1947 250.5723 216 252.1333 C220.1322 252.9598 222.7739 253.3855 225 252.1333 C227.9835 250.4551 231.3209 246.8007 232 243.1333 C233.1628 236.854 230 225.1333 230 225.1333 "/>
<path id="25" d="M215 236.1333 L211 222.1333 "/>
<path id="26" d="M218 233.1333 L225 221.1333 "/>
<path id="27" d="M215 233.1333 C215 233.1333 216.2521 230.2736 217 230.1333 C221.0863 229.3672 231 230.1333 231 230.1333 "/>
<path id="28" d="M218 233.1333 L231 242.1333 "/>
<path id="29" d="M217 236.1333 L218 250.1333 "/>
<path id="30" d="M217 237.1333 L206 243.1333 "/>
<path id="31" d="M215 234.1333 L201 234.1333 "/>
<path id="32" d="M373 220.1333 C373 220.1333 359.3748 218.7312 354 220.1333 C352.4257 220.544 350.3111 223.5412 350 226.1333 C349.0937 233.6858 349.2178 240.0095 351 245.1333 C351.5927 246.8374 354.7142 248.2571 358 249.1333 C361.2586 250.0023 363.8585 250.2755 366 249.1333 C369.0159 247.5248 372.1514 244.6488 373 241.1333 C374.839 233.5145 374.5396 222.494 373 220.1333 C372.1362 218.8088 363.2207 217.2254 358 218.1333 C354.7777 218.6937 350 224.1333 350 224.1333 "/>
<path id="33" d="M362 233.1333 C362 233.1333 362.869 228.3919 362 225.1333 C361.1238 221.8476 358 218.1333 358 218.1333 "/>
<path id="34" d="M365 231.1333 C365 231.1333 364.577 228.641 365 228.1333 C366.0105 226.9207 370 225.1333 370 225.1333 "/>
<path id="35" d="M360 233.1333 L373 233.1333 "/>
<path id="36" d="M361 230.1333 L355 225.1333 "/>
<path id="37" d="M360 232.1333 L351 236.1333 "/>
<path id="38" d="M363 234.1333 C363 234.1333 359.8235 244.8392 359 246.1333 C358.9485 246.2142 356 245.1333 356 245.1333 "/>
<path id="39" d="M366 238.1333 L371 251.1333 "/>
</g>
</g>
</svg>
