<?xml version="1.0" encoding="utf-8"?>
<!DOCTYPE svg PUBLIC "-//W3C//DTD SVG 1.1//EN" "http://www.w3.org/Graphics/SVG/1.1/DTD/svg11.dtd">
<svg viewBox="0 0 800 800" preserveAspectRatio="xMinYMin meet" xmlns="http://www.w3.org/2000/svg" version="1.1">
<g fill="none" stroke="black" stroke-linecap="round" stroke-linejoin="round" stroke-width="1.6753">
<g transform="translate(87.52,281.8127) scale(1.7907) translate(-126,-93)">
<path id="0" d="M147 154 L147 154 "/>
<path id="1" d="M197 99 C197 99 314.6529 100.338 415 99 C418.2406 98.9568 418.6792 96.3019 422 96 C433.872 94.9207 435.536 97.0106 448 96 C453.3898 95.563 457.9985 92.2489 459 93 C461.5752 94.9314 465.0617 101.8179 468 111 C472.8183 126.0572 476.8668 134.6844 475 143 C473.7092 148.7501 464.553 151.6917 457 160 C455.4565 161.6979 455 165 455 165 "/>
<path id="2" d="M199 98 C199 98 196.3665 106.4502 192 113 C186.7454 120.882 184.825 126.0195 179 128 C166.8736 132.123 158.2912 128.0606 142 130 C139.6563 130.279 139.1315 131.1965 137 133 C132.8241 136.5335 130.8403 136.9847 129 141 C126.2592 146.9799 125.7581 152.1615 126 157 C126.0641 158.2821 128.2769 160.5405 130 161 C133.741 161.9976 136.8008 162.1665 141 161 C144.2024 160.1104 144.6022 157.1992 148 156 C152.0135 154.5835 158.0013 154.9874 158 155 C157.9923 155.0765 148.82 160.995 147 166 C144.2865 173.4621 143.5495 179.8946 146 188 C148.8497 197.4259 152.1746 201.1746 160 209 C165.5896 214.5896 168.4808 216.171 176 218 C184.6812 220.1116 188.7338 219.8666 197 218 C201.5585 216.9707 206.2488 213.8684 207 211 C209.7539 200.485 209.7587 192.1218 208 176 C206.9534 166.4059 205.3865 163.128 201 156 C198.9178 152.6164 196.0982 150.7451 192 150 C182.253 148.2278 179.0124 148.5118 168 150 C161.7249 150.848 155 155 155 155 "/>
<path id="3" d="M204 157 C204 157 217.8222 184.7703 228 189 C242.4622 195.0103 255.1185 190.6591 281 189 C293.3648 188.2074 293.6373 184.7631 306 184 C333.3547 182.3114 334.1036 184.9875 362 184 C390.4651 182.9924 419 180 419 180 "/>
<path id="4" d="M465 181 C465 181 466.8182 170.2727 465 168 C461.0839 163.1049 454.1932 159.8041 445 156 C441.6859 154.6286 439.5253 155.0599 436 156 C433.232 156.7381 432.6508 157.7026 430 160 C425.2957 164.077 424.5434 164.1911 421 169 C417.898 173.2098 416.6932 174.286 416 179 C414.4502 189.5387 414.9547 191.8499 416 203 C416.3607 206.8474 416.6861 208.5704 419 211 C425.221 217.5321 428.0764 221.4202 436 224 C445.8242 227.1986 452.6664 226.6471 462 225 C465.338 224.4109 467.243 221.5841 470 218 C471.58 215.9459 472 214.7695 472 212 C472 199.9988 471.8611 197.9111 470 186 C469.5425 183.0717 467 180 467 180 "/>
<path id="5" d="M200 114 C200 114 201.847 108.2493 203 108 C212.2388 106.0024 226.9676 104.2872 237 106 C239.5444 106.4344 241.8043 110.2707 244 115 C247.9049 123.4106 248.4339 133.8645 250 134 C286.6249 137.1676 408.0179 135.3615 429 131 C429.7087 130.8527 428 97 428 97 "/>
<path id="6" d="M430 98 C430 98 429.6814 113.0992 431 122 C431.1881 123.2696 432.8199 124.8959 434 125 C445.2053 125.9887 461.367 125.9376 465 125 C465.242 124.9376 466.2449 119.0371 465 117 C462.3979 112.7419 458.2638 112.1775 454 107 C451.8812 104.4272 451 100 451 100 "/>
<path id="7" d="M256 161 C256 161 298.3651 164.408 339 162 C364.7375 160.4748 365.209 155.9382 391 153 C404.1325 151.5039 418 153 418 153 "/>
<path id="8" d="M133 153 C133 153 144.0686 146.2037 154 143 C158.0995 141.6776 164 143 164 143 "/>
<path id="9" d="M178 167 C178 167 174.4536 170.2786 174 173 C172.7754 180.3478 172.5766 183.883 174 191 C174.6326 194.1631 176.9234 196.5464 179 198 C180.0488 198.7342 182.308 198.846 184 198 C191.614 194.193 197.6467 191.5369 201 187 C202.7076 184.6897 201.8803 179.6949 201 175 C200.6653 173.2149 199.4097 171.4699 198 171 C192.9036 169.3012 188.2207 168.092 183 169 C179.7777 169.5604 175 175 175 175 "/>
<path id="10" d="M433 174 C433 174 428.7347 176.0175 427 178 C426.0858 179.0449 426.089 180.0413 426 182 C425.6039 190.7153 424.7748 192.3428 426 200 C426.52 203.2501 427.6925 204.6925 430 207 C431.888 208.888 433.156 209.4668 436 210 C440.3337 210.8126 442.758 211.3651 446 210 C450.0099 208.3116 453.9421 205.4089 455 202 C457.0584 195.3673 456.7909 186.1738 455 181 C454.3079 179.0006 450.1999 177.4999 446 176 C444.053 175.3047 442.0309 175.3557 441 176 C439.7372 176.7893 438.0111 180.9926 438 181 C437.9965 181.0023 438.3526 178.3526 438 178 C437.1772 177.1772 433 176 433 176 "/>
</g>
</g>
</svg>
