<?xml version="1.0" encoding="utf-8"?>
<!DOCTYPE svg PUBLIC "-//W3C//DTD SVG 1.1//EN" "http://www.w3.org/Graphics/SVG/1.1/DTD/svg11.dtd">
<svg viewBox="0 0 800 800" preserveAspectRatio="xMinYMin meet" xmlns="http://www.w3.org/2000/svg" version="1.1">
<g fill="none" stroke="black" stroke-linecap="round" stroke-linejoin="round" stroke-width="1.9009">
<g transform="translate(87.52,190.8909) scale(1.5782) translate(-61,-52.1333)">
<path id="0" d="M112 269.1333 C112 269.1333 139.7821 274.6722 154 272.1333 C159.5966 271.1339 162.8461 266.1613 168 259.1333 C173.0653 252.2261 172.362 245.1099 176 242.1333 C178.4606 240.1201 183.8553 240.5481 190 241.1333 C193.2196 241.44 194.2414 241.9782 197 244.1333 C209.4553 253.864 210.4107 262.7853 222 266.1333 C246.4517 273.1972 259.2982 271.8225 287 270.1333 C294.5071 269.6756 296.6236 266.4749 304 261.1333 C310.4895 256.434 310.9274 255.5894 316 249.1333 C321.6475 241.9456 320.5278 239.5176 326 233.1333 C328.6407 230.0526 330.6413 228.5364 334 228.1333 C340.5455 227.3479 346.8803 227.4967 351 230.1333 C354.8222 232.5796 355.9962 237.0335 359 244.1333 C361.2927 249.5525 359.4521 251.6745 362 256.1333 C364.6275 260.7315 368.3683 265.2156 371 265.1333 C387.7051 264.6113 400.1084 260.987 426 254.1333 C432.6406 252.3755 434.2889 251.3958 439 247.1333 C443.5951 242.9759 446.287 240.6426 447 235.1333 C451.014 204.1162 454.0503 189.3283 450 162.1333 C448.6863 153.3129 441.4983 150.0011 433 141.1333 C431.006 139.0526 429.8037 138.4337 427 138.1333 C417.2427 137.0879 415.3859 136.5355 405 138.1333 C390.2564 140.4016 387.5587 144.4809 375 146.1333 C371.9242 146.538 369.2274 145.5413 367 143.1333 C353.3305 128.3555 347.8194 124.3281 338 106.1333 C332.6477 96.2159 336.4756 92.5877 333 80.1333 C330.5954 71.5168 329.9752 70.0899 326 63.1333 C324.702 60.8618 322.9681 59.2427 321 59.1333 C309.3591 58.4866 304.9154 61.7183 290 61.1333 C280.2771 60.752 279.8324 57.4685 270 57.1333 C236.8129 56.002 235.5292 59.6302 202 58.1333 C180.1582 57.1583 167.4745 48.2321 158 52.1333 C149.3307 55.703 142.7443 70.3936 134 86.1333 C131.8652 89.9759 134.3257 92.3609 133 97.1333 C132.0466 100.5657 131.5889 101.4551 129 104.1333 C117.7628 115.758 114.5636 115.8152 104 127.1333 C101.7657 129.5272 101.1862 130.843 101 134.1333 C99.8051 155.2436 99.4956 157.5668 101 180.1333 C101.9593 194.5236 104.4796 194.6055 106 209.1333 C108.9569 237.388 110 266.1333 110 266.1333 "/>
<path id="1" d="M97 173.1333 C97 173.1333 94.2815 169.5136 92 169.1333 C79.3844 167.0307 63.6628 165.8449 61 167.1333 C60.2707 167.4862 59.3322 176.4008 61 184.1333 C64.5684 200.6776 65.5897 202.1077 72 218.1333 C74.3037 223.8925 75.7328 227.5602 79 229.1333 C84.57 231.8152 90.0598 231.7101 99 231.1333 C104.0651 230.8065 110 227.1333 110 227.1333 "/>
<path id="2" d="M188 247.1333 C188 247.1333 179.7766 258.4899 177 269.1333 C174.2914 279.5163 174.138 285.6853 176 293.1333 C176.8036 296.3478 180.6575 298.3417 185 301.1333 C186.7326 302.2471 187.8184 302.39 190 302.1333 C195.5198 301.4839 197.7718 301.6703 202 299.1333 C206.1057 296.6699 207.1669 294.8552 210 290.1333 C212.751 285.5483 213.1248 284.5596 214 279.1333 C215.5152 269.7388 217.173 264.3151 215 259.1333 C213.1277 254.6687 207.7505 250.7144 201 248.1333 C193.3007 245.1895 181 246.1333 181 246.1333 "/>
<path id="3" d="M342 242.1333 C342 242.1333 333.8805 242.1675 327 244.1333 C320.4982 245.991 319.7308 246.4864 314 250.1333 C309.1985 253.1888 308.277 253.8481 305 258.1333 C302.3447 261.6056 301.2692 263.0955 301 267.1333 C300.3938 276.2256 300.1009 279.2129 303 288.1333 C306.023 297.4349 307.5253 300.6586 314 307.1333 C320.0431 313.1764 323.8362 314.9068 332 317.1333 C337.8006 318.7153 343.1923 318.5812 347 316.1333 C352.8246 312.3889 354.7104 308.0296 360 299.1333 C365.4226 290.0135 366.8844 288.8651 369 279.1333 C371.5262 267.513 372.4881 262.6335 370 253.1333 C368.1494 246.0675 364.14 241.6815 358 237.1333 C353.376 233.7081 343 233.1333 343 233.1333 "/>
<path id="4" d="M329 82.1333 C329 82.1333 318.7036 82.826 310 86.1333 C294.4337 92.0485 282.1783 96.3659 279 101.1333 C277.1584 103.8958 280.4482 113.8861 284 125.1333 C286.2509 132.2612 286.6655 134.3654 291 139.1333 C295.2184 143.7736 297.9442 145.339 304 147.1333 C309.5159 148.7677 311.5349 148.3088 318 147.1333 C327.2779 145.4464 328.3469 145.2539 337 141.1333 C348.7448 135.5406 360 127.1333 360 127.1333 "/>
<path id="5" d="M209 88.1333 C209 88.1333 212.533 115.3604 214 142.1333 C214.5121 151.4788 214.7699 153.7589 213 161.1333 C212.3377 163.893 210.7659 165.1577 208 167.1333 C204.4682 169.656 203.3569 170.5282 199 171.1333 C186.6258 172.852 182.1791 173.8299 172 172.1333 C168.1433 171.4906 165.7907 168.6851 163 165.1333 C161.3001 162.9698 160.9305 161.3992 161 158.1333 C161.4001 139.3271 159.5888 135.5023 164 118.1333 C166.8463 106.926 170.0373 105.7605 177 95.1333 C179.1939 91.7847 179.741 91.125 183 89.1333 C188.0758 86.0314 195 84.1333 195 84.1333 "/>
<path id="6" d="M249 62.1333 C249 62.1333 253.1862 68.7045 254 75.1333 C257.9774 106.5551 258.4666 108.2423 259 141.1333 C259.9602 200.348 257 260.1333 257 260.1333 "/>
<path id="7" d="M212 93.1333 C212 93.1333 203.426 86.1903 195 82.1333 C190.857 80.1385 185 80.1333 185 80.1333 "/>
<path id="8" d="M256 257.1333 L258 280.1333 "/>
<path id="9" d="M403 148.1333 C403 148.1333 409.7611 168.4087 418 187.1333 C420.5439 192.915 422.9844 196.3009 425 198.1333 C425.3665 198.4665 428.3242 197.8092 429 197.1333 C429.6758 196.4575 429.3434 193.4318 430 193.1333 C435.5286 190.6203 451 187.1333 451 187.1333 "/>
<path id="10" d="M413 169.1333 C413 169.1333 427.967 166.6029 440 161.1333 C448.8194 157.1245 457 149.1333 457 149.1333 "/>
<path id="11" d="M334 269.1333 C334 269.1333 330.7592 273.3374 330 277.1333 C328.9648 282.3096 329.4675 287.8552 330 289.1333 C330.0925 289.3552 333.4525 289.9071 335 289.1333 C338.095 287.5858 341.8084 283.7082 342 283.1333 C342.0383 283.0184 338 280.1333 338 280.1333 "/>
<path id="12" d="M194 272.1333 C194 272.1333 193.1818 284.0879 194 286.1333 C194.1987 286.6301 198.9677 287.5205 200 287.1333 C200.6423 286.8925 201.6204 285.0313 202 283.1333 C202.5176 280.5452 202.596 278.7227 202 277.1333 C201.6896 276.3056 199 275.1333 199 275.1333 "/>
</g>
</g>
</svg>
