<?xml version="1.0" encoding="utf-8"?>
<!DOCTYPE svg PUBLIC "-//W3C//DTD SVG 1.1//EN" "http://www.w3.org/Graphics/SVG/1.1/DTD/svg11.dtd">
<svg viewBox="0 0 800 800" preserveAspectRatio="xMinYMin meet" xmlns="http://www.w3.org/2000/svg" version="1.1">
<g fill="none" stroke="black" stroke-linecap="round" stroke-linejoin="round" stroke-width="2.8226">
<g transform="translate(87.52,198.0571) scale(1.0629) translate(-53,-33.4667)">
<path id="0" d="M204 355.4667 C204 355.4667 197.5484 346.2409 192 343.4667 C187.5305 341.2319 181.509 340.8584 178 342.4667 C173.9835 344.3075 172.1107 348.095 168 354.4667 C162.3298 363.2555 159.7685 365.8873 158 373.4667 C157.1461 377.1261 158.3823 380.54 161 384.4667 C165.3629 391.011 169.507 396.4682 174 397.4667 C180.1897 398.8421 186.7848 395.8717 197 392.4667 C200.5891 391.2703 201.8393 389.8974 204 387.4667 C204.9413 386.4077 205 385.3898 205 383.4667 C205 369.5237 204 354.4667 204 354.4667 "/>
<path id="1" d="M414 341.4667 C414 341.4667 406.2649 341.0021 405 342.4667 C400.727 347.4144 398.2037 353.5353 395 363.4667 C393.6776 367.5662 394.1874 369.1329 395 373.4667 C395.5332 376.3107 396.1355 377.136 398 379.4667 C399.7758 381.6864 400.7485 382.8234 403 383.4667 C406.2987 384.4091 410.7124 384.1105 412 383.4667 C412.5007 383.2163 411.9413 379.979 413 378.4667 C414.7087 376.0256 417.9113 375.9162 419 373.4667 C420.9723 369.0291 422.3085 364.6828 421 360.4667 C418.948 353.8547 410 344.4667 410 344.4667 "/>
<path id="2" d="M149 364.4667 C149 364.4667 136.4959 365.773 125 364.4667 C115.1479 363.3471 114.0553 362.9719 105 359.4667 C99.3405 357.2759 98.3755 356.6519 94 352.4667 C87.4852 346.2351 85.8822 344.9722 82 337.4667 C79.1531 331.9626 79.0402 330.3014 79 323.4667 C78.5526 247.4101 72.5198 240.5268 81 167.4667 C84.8422 134.3646 90.7319 131.2457 105 99.4667 C112.0601 83.7418 113.0608 80.6931 125 69.4667 C144.3246 51.2958 149.3879 49.1859 172 36.4667 C178.4452 32.8412 180.6764 33.5947 189 33.4667 C212.4234 33.1063 213.314 33.6162 237 35.4667 C244.985 36.0905 245.1063 38.3288 253 38.4667 C357.7506 40.2964 369.6919 30.381 466 39.4667 C490.5247 41.7803 496.225 50.3325 518 63.4667 C524.3692 67.3084 525.0272 69.9183 529 77.4667 C544.5109 106.9373 541.5864 111.3291 558 139.4667 C565.0022 151.4704 567.484 154.6751 578 161.4667 C588.3943 168.1797 593.873 165.5401 606 170.4667 C608.1548 171.3421 609.3403 172.3833 610 174.4667 C617.6098 198.4975 621.6428 202.9377 625 230.4667 C628.8896 262.3613 627.579 267.256 625 297.4667 C624.3996 304.4997 622.5159 306.3086 618 312.4667 C612.1682 320.4191 610.9191 322.9132 603 327.4667 C593.078 333.1718 590.6604 332.4392 578 335.4667 C544.9072 343.3802 542.953 340.9972 511 349.4667 C502.8117 351.6371 502.487 356.6231 495 357.4667 C470.6359 360.2119 449.0661 362.2744 440 357.4667 C435.1273 354.8826 435.319 338.0782 429 322.4667 C427.4899 318.7357 426.3371 317.6357 423 315.4667 C417.3381 311.7864 413.6963 309.0523 409 309.4667 C401.7505 310.1063 398.0693 313.2842 389 318.4667 C384.6715 320.9401 383.2534 321.5233 381 325.4667 C374.2121 337.3455 373.4197 340.2074 369 353.4667 C367.8951 356.7815 369.2353 360.5255 369 361.4667 C368.9853 361.5255 367.9629 361.6171 367 361.4667 C352.1799 359.151 351.7952 356.7883 337 356.4667 C283.9509 355.3134 251.2684 361.592 229 358.4667 C227.2374 358.2193 226.7699 348.9986 223 340.4667 C217.3876 327.7648 217.2163 325.9631 210 315.4667 C207.1959 311.3879 205.0823 309.8274 201 308.4667 C196.6776 307.0259 194.4538 307.4178 189 308.4667 C182.2002 309.7743 180.386 310.0392 175 313.4667 C170.6969 316.205 169.9616 317.5306 167 322.4667 C155.3682 341.8531 153.8288 343.8898 145 363.4667 C143.188 367.4846 144 373.4667 144 373.4667 "/>
<path id="3" d="M374 64.4667 C374 64.4667 345.5851 62.3447 318 64.4667 C281.1693 67.2998 280.9146 70.9357 244 74.4667 C223.7612 76.4025 208.1166 71.6031 203 75.4667 C198.6886 78.7222 196.1997 93.8714 195 111.4667 C193.2975 136.437 192.3054 153.5918 197 163.4667 C198.936 167.5389 210.4735 169.9749 224 172.4667 C247.5626 176.8071 248.5736 176.7309 273 177.4667 C331.1454 179.218 347.4062 178.5315 390 177.4667 C391.1195 177.4387 392.9168 175.6316 393 174.4667 C394.0096 160.332 394.6291 154.4733 393 135.4667 C391.6836 120.1081 390.628 119.7562 387 104.4667 C383.6546 90.368 384.3045 88.6357 379 76.4667 C376.486 70.6993 374.1605 68.587 370 65.4667 C368.1308 64.0648 363 64.4667 363 64.4667 "/>
<path id="4" d="M291 78.4667 L291 170.4667 "/>
<path id="5" d="M429 74.4667 C429 74.4667 431.4919 106.9102 436 138.4667 C437.4366 148.5231 439.2647 158.0986 441 158.4667 C458.6887 162.2188 524.0217 161.8025 535 159.4667 C535.523 159.3554 538.0587 145.8949 535 138.4667 C529.371 124.7962 525.438 121.4503 514 108.4667 C507.8458 101.4809 506.31 101.8681 498 96.4667 C486.4428 88.9545 486.0704 86.877 474 82.4667 C461.6346 77.9485 459.2264 81.2046 446 77.4667 C436.8891 74.8918 428 69.4667 428 69.4667 "/>
<path id="6" d="M494 73.4667 C494 73.4667 520.8538 98.1641 544 124.4667 C553.278 135.0098 560 148.4667 560 148.4667 C560 148.4667 551 134.4667 551 134.4667 "/>
<path id="7" d="M494 69.4667 C494 69.4667 493.5521 66.9892 494 66.4667 C495.3649 64.8742 497.2458 63.0787 500 62.4667 C504.7977 61.4005 506.6089 61.3884 512 62.4667 C518.2896 63.7246 525 67.4667 525 67.4667 "/>
<path id="8" d="M80 303.4667 C80 303.4667 63.5151 302.3533 56 303.4667 C54.8751 303.6333 53.2336 305.8311 53 307.4667 C52.4799 311.1071 52.2919 313.8796 54 317.4667 C56.4923 322.7005 58.7137 326.3235 63 328.4667 C68.321 331.1271 80 330.4667 80 330.4667 "/>
<path id="9" d="M628 286.4667 C628 286.4667 640.1226 285.6568 641 286.4667 C641.7476 287.1568 642.0833 295.7583 641 298.4667 C640.5125 299.6854 637.844 300.9334 635 301.4667 C630.6663 302.2792 627.0031 302.3013 625 301.4667 C624.1821 301.1258 623 296.4667 623 296.4667 "/>
<path id="10" d="M612 208.4667 C612 208.4667 604.9221 209.8991 604 211.4667 C602.184 214.5538 601.2848 220.2216 602 225.4667 C602.4523 228.7839 604.3657 231.0719 607 233.4667 C608.6781 234.9922 612.9955 235.479 613 235.4667 C613.4608 234.2159 615.2393 220.9111 614 214.4667 C613.6335 212.5607 608 209.4667 608 209.4667 "/>
<path id="11" d="M506 138.4667 L516 150.4667 "/>
<path id="12" d="M502 119.4667 C502 119.4667 499.4729 118.9937 499 119.4667 C496.0048 122.4619 492.1179 125.995 491 130.4667 C489.9251 134.7663 491.4178 138.4036 493 143.4667 C493.4572 144.9298 494.908 146.224 496 146.4667 C497.7208 146.8491 501.2386 146.4819 502 145.4667 C504.6995 141.8673 506.2657 137.693 508 130.4667 C509.0549 126.0711 508.8795 121.5221 508 120.4667 C507.0912 119.376 498.6407 118.2104 498 118.4667 C497.8329 118.5335 498 124.4667 498 124.4667 "/>
<path id="13" d="M512 144.4667 C512 144.4667 521 154.4667 521 154.4667 C521 154.4666 516.0679 146.7041 511 140.4667 C509.9836 139.2157 508.0744 138.4667 508 138.4667 C508 138.4667 507.6349 139.8734 508 140.4667 C510.9065 145.1897 511.5692 146.458 516 151.4667 C522.9289 159.2994 531 166.4667 531 166.4667 "/>
<path id="14" d="M406 336.4667 C406 336.4667 401.929 335.6261 401 336.4667 C394.8332 342.0462 392.607 345.7296 385 355.4667 C380.1626 361.6586 378.7193 362.0392 376 368.4667 C373.7598 373.7616 372.8491 376.8632 374 381.4667 C375.5882 387.8195 378.0053 390.5905 383 396.4667 C385.6021 399.528 387.1348 400.4125 391 401.4667 C396.8917 403.0735 400.3385 404.2147 405 402.4667 C412.8263 399.5318 421.1712 394.8514 423 389.4667 C426.8272 378.1976 425.53 366.228 423 349.4667 C422.1014 343.5132 417.7425 338.6606 415 336.4667 C414.0759 335.7274 410.3138 336.0527 408 337.4667 C402.7982 340.6455 400.8862 342.1232 397 347.4667 C393.6241 352.1085 395.1019 354.3908 392 359.4667 C390.0084 362.7257 387.1579 362.379 386 365.4667 C382.0352 376.0394 380.607 380.8433 380 391.4667 C379.7979 395.0039 381.3274 397.6159 384 400.4667 C387.6289 404.3375 389.8981 406.1439 395 407.4667 C401.37 409.1181 406.0013 409.5032 411 407.4667 C415.8367 405.4961 420.8487 401.2638 422 396.4667 C425.3121 382.6661 423.992 376.3142 423 357.4667 C422.5362 348.6542 421.896 346.1274 419 339.4667 C417.8837 336.8992 415.6376 335.0162 413 334.4667 C406.2578 333.062 402.1965 332.8674 395 334.4667 C390.8687 335.3847 388.0364 336.9758 386 340.4667 C379.3026 351.9478 376.5881 356.4908 374 370.4667 C372.102 380.7156 373.2165 384.4461 376 394.4667 C377.6122 400.2704 379.5053 403.3038 384 406.4667 C390.5395 411.0685 393.7877 411.6242 403 413.4667 C410.2253 414.9117 413.8439 415.7225 419 413.4667 C426.13 410.3473 433.1788 405.0604 435 399.4667 C437.6877 391.2114 437.0047 382.4807 433 370.4667 C428.0054 355.4829 421.1072 344.8336 415 339.4667 C413.2124 337.8958 405.1498 338.7201 400 341.4667 C392.7989 345.3073 390.776 347.9328 385 355.4667 C379.9866 362.0059 379.1908 363.4338 377 371.4667 C373.4947 384.3193 372.7837 392.7613 373 399.4667 C373.0245 400.2272 375.5318 401.9057 378 402.4667 C385.5823 404.1899 386.5797 404.2836 395 404.4667 C409.3167 404.7779 416.2415 404.718 424 403.4667 C424.7038 403.3532 426.2752 400.063 426 399.4667 C424.8647 397.0068 418 390.4667 418 390.4667 "/>
<path id="15" d="M193 337.4667 C193 337.4667 184.034 334.317 182 335.4667 C177.7797 337.8521 174.2537 342.6681 170 350.4667 C165.8001 358.1665 165.4125 359.5881 164 368.4667 C162.0506 380.7199 160.8182 386.8303 163 394.4667 C164.0303 398.0727 168.2383 399.9595 174 403.4667 C179.2601 406.6684 180.2232 407.2108 186 408.4667 C190.8556 409.5222 192.0872 409.5584 197 408.4667 C204.7413 406.7464 208.2797 406.6423 213 402.4667 C218.5468 397.5599 220.727 393.4223 223 385.4667 C225.0605 378.2551 223.9378 375.9065 223 367.4667 C222.5138 363.0904 222.1459 362.4518 220 358.4667 C215.3662 349.861 215.2658 348.2547 209 341.4667 C204.1542 336.217 202.5104 335.8769 196 332.4667 C192.6748 330.7249 191.9406 330.9045 188 330.4667 C183.2073 329.9341 181.4176 329.0996 178 330.4667 C173.4888 332.2711 171.7823 333.7943 168 338.4667 C155.4444 353.9765 151.7313 357.3263 144 372.4667 C141.8271 376.7218 142.3321 380.6484 144 385.4667 C146.0676 391.4396 149.0809 396.899 153 398.4667 C160.2863 401.3812 167.5266 400.707 179 399.4667 C184.1139 398.9138 185.224 397.6507 190 394.4667 C196.7753 389.9498 199.0323 389.4183 203 383.4667 C207.7747 376.3046 208.06 373.1966 210 364.4667 C210.734 361.1635 210.3342 359.8021 209 356.4667 C206.6493 350.5899 206.3484 348.989 202 344.4667 C194.7318 336.9077 191.399 334.0292 184 330.4667 C181.4524 329.24 177.6695 329.8353 175 331.4667 C170.8028 334.0316 166.8784 337.0745 166 341.4667 C163.0074 356.4297 162.0025 366.2069 165 381.4667 C166.3824 388.5044 171.9125 394.4518 177 397.4667 C180.5525 399.5718 189.7989 399.3009 192 397.4667 C195.7663 394.3281 198.8447 387.0456 201 377.4667 C202.9571 368.7684 202.6595 365.211 201 357.4667 C200.2295 353.871 195 349.4667 195 349.4667 "/>
<path id="16" d="M443 176.4667 C443 176.4667 449.6448 187.3833 452 198.4667 C457.88 226.1373 455.0093 227.77 460 256.4667 C462.974 273.567 462.9681 274.652 468 290.4667 C469.6398 295.6202 472.6655 295.7958 474 300.4667 C475.2532 304.8527 473.0865 306.351 474 311.4667 C475.4859 319.7879 477.8099 320.1358 479 328.4667 C480.2093 336.9319 479 346.4667 479 346.4667 "/>
<path id="17" d="M480 228.4667 C480 228.4667 470.9998 226.4669 471 226.4667 C471.0004 226.4663 482 226.4667 482 226.4667 C482 226.4667 471 226.4667 471 226.4667 "/>
<path id="18" d="M394 186.4667 C394 186.4667 392.9068 199.2232 394 211.4667 C395.375 226.8671 397.8506 227.0654 399 242.4667 C400.3189 260.1393 400.7948 260.9672 399 278.4667 C396.8651 299.2815 391.3062 319.4971 391 320.4667 C390.9812 320.5263 387 316.4667 387 316.4667 "/>
<path id="19" d="M289 182.4667 C289 182.4667 297.1675 215.6642 299 248.4667 C302.1112 304.1571 299.0276 361.3142 299 361.4667 C298.9933 361.5035 284 331.4667 284 331.4667 "/>
<path id="20" d="M192 195.4667 C192 195.4667 193.4548 208.4128 192 220.4667 C190.0305 236.7851 189.7504 237.5528 185 253.4667 C179.8717 270.6463 176.2565 271.0956 172 287.4667 C170.1781 294.4741 171.5792 302.625 172 303.4667 C172.0395 303.5456 179 301.4667 179 301.4667 "/>
<path id="21" d="M334 223.4667 C334 223.4667 316 220.4666 316 220.4667 C316 220.4667 331.0092 224.4564 331 224.4667 C330.9731 224.4965 307 230.4667 307 230.4667 "/>
<path id="22" d="M221 226.4667 C221 226.4667 207.0008 223.467 207 223.4667 C206.9996 223.4665 214 223.4667 214 223.4667 "/>
<path id="23" d="M93 265.4667 C93 265.4667 86.5044 265.0343 86 265.4667 C85.6294 265.7843 85.2463 269.5825 86 271.4667 C86.7034 273.2252 89.4172 273.7181 90 275.4667 C90.8743 278.0895 90.48 282.8267 90 283.4667 C89.73 283.8267 84 283.4667 84 283.4667 "/>
<path id="24" d="M90 268.4667 L90 266.4667 "/>
<path id="25" d="M96 266.4667 C96 266.4667 95.9979 283.4664 96 283.4667 C96.0041 283.4672 103 267.4667 103 267.4667 "/>
<path id="26" d="M107 265.4667 C107 265.4667 111.9955 279.4667 112 279.4667 C112.0009 279.4667 111.4201 269.5293 113 265.4667 C113.6954 263.6785 119 261.4667 119 261.4667 "/>
</g>
</g>
</svg>
