<?xml version="1.0" encoding="utf-8"?>
<!DOCTYPE svg PUBLIC "-//W3C//DTD SVG 1.1//EN" "http://www.w3.org/Graphics/SVG/1.1/DTD/svg11.dtd">
<svg viewBox="0 0 800 800" preserveAspectRatio="xMinYMin meet" xmlns="http://www.w3.org/2000/svg" version="1.1">
<g fill="none" stroke="black" stroke-linecap="round" stroke-linejoin="round" stroke-width="1.6225">
<g transform="translate(87.52,237.2885) scale(1.849) translate(-123,-98)">
<path id="0" d="M136 143 C136 143 218.0092 130.5619 267 143 C294.8389 150.0679 329 192 329 192 "/>
<path id="1" d="M175 109 C175 109 160.5988 117.8631 150 127 C147.3751 129.2628 148.4738 131.3359 146 134 C142.4542 137.8186 137 141 137 141 "/>
<path id="2" d="M173 109 C173 109 229.552 108.588 286 109 C297.9926 109.0875 301.0355 108.9656 310 110 C310.8293 110.0957 312 112 312 112 "/>
<path id="3" d="M315 116 C315 116 309.7618 117.3668 306 120 C300.2617 124.0168 299.1685 124.5151 295 130 C290.2139 136.2975 287 145 287 145 "/>
<path id="4" d="M315 114 C315 114 317.443 114.1923 318 115 C325.2103 125.455 326.2904 130.3316 335 143 C336.6322 145.3741 338.462 144.6478 340 147 C346.3147 156.6578 347.6003 168.0223 352 169 C374.6644 174.0365 439 169 439 169 "/>
<path id="5" d="M334 208 C334 208 408.1172 202.014 434 203 C435.3855 203.0528 437.6759 207.5863 439 212 C440.425 216.7499 440 223 440 223 "/>
<path id="6" d="M440 172 C440 172 439.8863 178.5124 438 184 C434.5665 193.9884 429 204 429 204 "/>
<path id="7" d="M439 168 C439 168 442.8222 169.1293 444 171 C450.0452 180.6013 452.3037 184.5831 456 195 C456.8692 197.4496 456.3776 199.3701 455 202 C451.4776 208.7246 445 216 445 216 "/>
<path id="8" d="M133 144 C133 144 130.1949 152.6212 130 161 C129.2126 194.8576 127.7668 198.0271 131 230 C131.9736 239.6283 135.5462 247.3432 139 250 C141.6585 252.045 155.6721 251.1066 157 250 C157.9221 249.2316 155.112 240.6639 157 235 C159.3075 228.0774 161.5705 224.9359 167 220 C170.8006 216.5449 173.2508 215.7371 179 215 C191.2797 213.4257 196.2111 214.3249 206 215 C206.7751 215.0535 207.308 215.8755 208 217 C211.1471 222.114 212.8049 222.6221 214 228 C216.4656 239.095 215.0525 252.8206 216 253 C234.289 256.4638 330.3295 256.0136 346 253 C346.5795 252.8886 344.9247 239.1111 346 228 C346.2706 225.2043 347.0971 223.4272 349 222 C353.4401 218.6699 356.1819 216.7757 362 216 C369.0548 215.0594 374.6553 215.4656 379 218 C382.3482 219.9531 384.3426 224.199 386 230 C387.928 236.7481 386.1737 245.7126 387 246 C392.6635 247.9699 410.3894 246.8312 432 246 C435.3986 245.8693 438.8928 244.6075 439 244 C440.0545 238.0246 438 212 438 212 "/>
<path id="9" d="M459 201 C459 201 463.1189 212.9381 461 218 C456.4938 228.7648 441 244 441 244 "/>
<path id="10" d="M167 125 C167 125 161.9765 100.0044 162 100 C172.767 97.9761 238.1045 100.8718 300 100 C301.8067 99.9746 304.0009 97.999 304 98 C303.9952 98.0056 294.9733 105.6985 288 114 C284.8734 117.7222 283 123 283 123 "/>
<path id="11" d="M171 117 L262 117 "/>
<path id="12" d="M128 188 L171 183 "/>
<path id="13" d="M165 137 C165 137 163.0092 151.5574 165 164 C166.7903 175.1891 168.5266 184.1446 173 187 C181.5734 192.4724 192.5798 192.1282 212 194 C233.5846 196.0804 256 195 256 195 "/>
<path id="14" d="M248 138 C248 138 253.6718 159.2912 257 180 C258.0725 186.6731 256.663 193.9343 257 194 C266.5396 195.8584 334 195 334 195 "/>
<path id="15" d="M352 163 L325 202 "/>
<path id="16" d="M329 209 C329 209 317.9651 206.1163 316 204 C314.964 202.8843 315.989 195.0146 316 195 C316.0034 194.9955 318.7299 197.839 319 200 C319.5465 204.3723 317.4841 210.3694 318 211 C318.4146 211.5067 328 211 328 211 "/>
<path id="17" d="M135 242 C135 242 125.944 241.1347 125 242 C123.8593 243.0456 122.6597 252.7989 123 253 C124.9043 254.1252 147 255 147 255 "/>
<path id="18" d="M183 223 C183 223 175.6664 221.5798 171 223 C165.894 224.554 163.4008 226.1458 160 230 C157.2458 233.1214 156.8777 235.1727 156 240 C155.0182 245.4 154.4282 247.4592 156 252 C158.2419 258.4765 160.0084 262.5059 165 266 C171.8767 270.8137 175.7725 271.0113 186 273 C192.8607 274.334 195.6104 273.6341 201 273 C201.8031 272.9055 202.3094 272.13 203 271 C207.6076 263.4602 209.6707 262.5057 212 255 C213.6113 249.808 213.3234 247.5143 212 242 C210.6318 236.2991 209.6814 234.6631 206 230 C202.8974 226.0701 201.1463 223.9756 197 223 C187.1727 220.6877 172 222 172 222 "/>
<path id="19" d="M365 226 C365 226 354.8327 224.6584 348 225 C346.7504 225.0625 346.0596 225.7891 345 227 C342.8236 229.4873 341.3721 230.3025 341 233 C339.6939 242.4695 338.4943 247.3439 341 256 C342.9811 262.8436 346.462 266.4689 352 271 C355.2016 273.6195 357.599 273.4213 363 274 C371.11 274.8689 375.53 276.1522 380 274 C384.2752 271.9416 388.1988 267.0586 390 261 C392.7399 251.7839 393.2402 243.9243 391 237 C389.6865 232.94 384.3802 228.6304 379 227 C371.4829 224.7221 358 227 358 227 "/>
<path id="20" d="M372 194 L402 188 "/>
<path id="21" d="M376 183 L403 182 "/>
<path id="22" d="M440 202 C440 202 439.891 206.9346 440 207 C440.138 207.0828 444.6216 205.8325 445 205 C445.797 203.2465 445.5625 196.5625 445 196 C444.4375 195.4375 439.0856 195.2286 436 196 C434.7143 196.3214 433.6557 197.6886 433 199 C432.5629 199.8743 432.8875 201.9625 433 202 C434.0125 202.3375 442 202 442 202 "/>
<path id="23" d="M445 181 C445 181 446.1254 186.9796 447 188 C447.3441 188.4014 450.8049 188.2439 451 188 C451.3049 187.6189 451.547 184.2763 451 183 C450.6406 182.1613 448 181 448 181 "/>
<path id="24" d="M259 199 L259 253 "/>
</g>
</g>
</svg>
