<?xml version="1.0" encoding="utf-8"?>
<!DOCTYPE svg PUBLIC "-//W3C//DTD SVG 1.1//EN" "http://www.w3.org/Graphics/SVG/1.1/DTD/svg11.dtd">
<svg viewBox="0 0 800 800" preserveAspectRatio="xMinYMin meet" xmlns="http://www.w3.org/2000/svg" version="1.1">
<g fill="none" stroke="black" stroke-linecap="round" stroke-linejoin="round" stroke-width="2.4242">
<g transform="translate(87.52,276.2455) scale(1.2375) translate(-57,-158)">
<path id="0" d="M160 226 C160 226 163.5358 223.1946 165 220 C168.6641 212.0055 168.9981 211.0084 171 202 C172.9098 193.4058 171.1713 192.6209 173 184 C174.5941 176.4851 174.8396 175.8954 178 169 C180.1475 164.3145 180.8808 163.1192 184 160 C185.4556 158.5444 186.6759 158.0192 189 158 C242.7375 157.5559 247.0906 157.6212 305 159 C330.9897 159.6188 331.0228 161.0722 357 162 C372.9531 162.5698 373.1598 162.9457 389 162 C406.4435 160.9586 420.8182 157.2727 424 158 C424.256 158.0585 422.1327 167.0342 424 170 C427.9998 176.3526 433.3938 177.0769 441 185 C445.0605 189.2297 446.25 190.1876 448 195 C449.7246 199.7427 447.4295 201.8398 449 207 C450.6371 212.379 452.0485 216.0815 455 218 C458.4341 220.2321 462.073 219.93 469 220 C510.9914 220.4242 532.1552 217.7588 554 219 C554.8592 219.0488 556.7602 222.1826 557 225 C558.5749 243.5046 556.3524 245.8996 558 266 C558.8152 275.9459 562.1148 285.9855 562 286 C549.9595 287.5251 483.0379 288.5732 408 285 C390.7656 284.1793 390.1009 277.3054 373 277 C226.5472 274.3848 72 279 72 279 "/>
<path id="1" d="M164 207 C164 207 101.4192 199.8089 79 207 C70.5847 209.6992 64.5412 224.9443 58 241 C54.8632 248.6995 55.6709 255.4621 57 261 C57.4493 262.8721 61.85 263.3723 64 266 C65.5305 267.8706 65.12 271.52 66 272 C67.5021 272.8193 72.1737 270.8695 75 272 C77.6379 273.0551 78.5897 277.3305 81 278 C84.6853 279.0237 93 277 93 277 "/>
<path id="2" d="M161 215 C161 215 220.6968 220.7804 280 221 C355.2271 221.2786 355.5257 217.8682 431 216 C456.4704 215.3695 482 216 482 216 C482 216 476.0807 215.4596 475 216 C474.5368 216.2316 473.8996 219.7992 474 220 C474.043 220.0861 477 220 477 220 "/>
<path id="3" d="M298 161 C298 161 300.4624 167.5489 301 174 C302.4234 191.0812 302 209 302 209 "/>
<path id="4" d="M406 280 C406 280 398.7367 279.6641 397 281 C395.0582 282.4937 393.4155 285.7414 393 290 C391.5841 304.5126 389.0367 310.7046 393 322 C396.9655 333.3015 402.5534 339.5057 413 347 C421.7404 353.2703 427.2625 353.5686 439 355 C445.3675 355.7765 447.1003 354.4916 454 352 C464.5581 348.1874 466.5752 348.2584 475 342 C482.6712 336.3014 485.2275 333.006 489 326 C490.6027 323.0236 490.4599 319.5037 489 316 C486.3479 309.6349 483.0039 309.0068 479 302 C477.3462 299.1059 478.7043 297.6339 477 295 C473.7485 289.975 468 285 468 285 "/>
<path id="5" d="M437 319 L437 285 "/>
<path id="6" d="M437 315 C437 315 446.0623 312.6236 455 312 C467.2708 311.1439 469.2605 313.3424 480 312 C483.2218 311.5973 487 308 487 308 "/>
<path id="7" d="M435 318 C435 318 441.3512 331.2081 449 343 C453.1489 349.3963 459 355 459 355 "/>
<path id="8" d="M437 318 C437 318 433.6035 318.1551 433 319 C430.2955 322.7862 429.4427 329.7318 427 332 C425.9187 333.0041 421.7789 330.8299 419 332 C414.009 334.1015 412.9073 337.5464 408 340 C406.3642 340.8179 403 340 403 340 "/>
<path id="9" d="M437 319 C437 319 429.3585 319.1195 423 317 C410.572 312.8573 409.8031 310.0573 398 306 C395.1293 305.0132 391 306 391 306 "/>
<path id="10" d="M146 278 C146 278 140.329 277.4516 140 278 C137.8431 281.5948 134.5856 288.6305 134 298 C133.2007 310.7896 132.7664 315.9731 137 326 C140.4364 334.1388 144.1937 336.7377 153 343 C165.4361 351.8435 168.3795 353.3567 182 358 C187.989 360.0417 190.7597 359.5601 197 358 C203.1363 356.4659 204.8576 355.4078 210 351 C218.0036 344.1398 223.1015 341.594 225 334 C229.3231 316.7077 228.5064 302.5952 226 287 C225.4324 283.4683 220.2432 280.7278 216 278 C214.9248 277.3088 212 278 212 278 "/>
<path id="11" d="M180 315 C180 315 185.8635 308.9878 189 303 C190.8855 299.4005 191 294 191 294 "/>
<path id="12" d="M183 313 C183 313 191.5968 303.8064 196 295 C198.3364 290.3272 195.9403 287.3483 198 283 C199.6411 279.5355 205 276 205 276 "/>
<path id="13" d="M181 314 C181 314 182.621 316.6323 184 317 C188.4514 318.187 190.0756 318.1317 196 318 C212.3444 317.6368 229 316 229 316 "/>
<path id="14" d="M181 321 L167 344 "/>
<path id="15" d="M184 316 L207 341 "/>
<path id="16" d="M186 311 C186 311 133.1502 306.0256 133 306 C132.9847 305.9974 139 303 139 303 "/>
<path id="17" d="M187 314 C187 314 183.7366 298.6767 177 287 C169.4886 273.9802 157.015 262.009 157 262 C156.9937 261.9962 159.7706 273.7889 162 278 C162.3727 278.7041 166 279 166 279 "/>
<path id="18" d="M269 279 C269 279 272.8433 294.1615 272 304 C271.6416 308.1808 269.2754 309.742 266 314 C264.6381 315.7704 263.7729 316.7974 262 317 C249.2982 318.4516 231 318 231 318 "/>
<path id="19" d="M244 296 C244 296 246.9543 294.5425 248 295 C252.5499 296.9906 254.1802 300.3811 260 303 C263.1524 304.4186 268 304 268 304 "/>
<path id="20" d="M250 295 C250 295 247.2511 295.7218 246 295 C236.412 289.4685 224 280 224 280 "/>
<path id="21" d="M504 292 C504 292 519.2296 295.5657 521 298 C522.4724 300.0246 522.4774 309.3755 520 314 C517.0785 319.4535 512.2733 323.5716 506 326 C500.2802 328.2141 492.7377 326.9836 489 326 C488.271 325.8082 487 321 487 321 "/>
<path id="22" d="M488 300 C488 300 499.3476 306.8569 511 311 C521.2957 314.6607 533 316 533 316 "/>
<path id="23" d="M314 163 L313 215 "/>
</g>
</g>
</svg>
