<?xml version="1.0" encoding="utf-8"?>
<!DOCTYPE svg PUBLIC "-//W3C//DTD SVG 1.1//EN" "http://www.w3.org/Graphics/SVG/1.1/DTD/svg11.dtd">
<svg viewBox="0 0 800 800" preserveAspectRatio="xMinYMin meet" xmlns="http://www.w3.org/2000/svg" version="1.1">
<g fill="none" stroke="black" stroke-linecap="round" stroke-linejoin="round" stroke-width="2.0401">
<g transform="translate(87.52,213.2472) scale(1.4705) translate(-121,-149.9167)">
<path id="0" d="M523 329.9167 C523 329.9167 519.3966 329.0787 518 329.9167 C513.6984 332.4977 512.7905 335.723 508 338.9167 C506.3034 340.0478 504.6733 338.7215 503 339.9167 C492.2911 347.5659 492.1956 353.5811 480 358.9167 C447.6488 373.0703 407 381.9167 407 381.9167 "/>
<path id="1" d="M527 328.9167 C527 328.9167 528.7669 307.232 527 289.9167 C526.5238 285.2503 522 279.9167 522 279.9167 "/>
<path id="2" d="M520 276.9167 C520 276.9167 509.5051 275.0368 501 275.9167 C496.3129 276.4015 495.972 279.0127 491 279.9167 C480.1713 281.8855 478.4893 279.3583 468 281.9167 C459.0901 284.0898 459.1524 287.1312 450 289.9167 C436.6414 293.9823 435.4358 292.1271 422 295.9167 C416.3844 297.5006 416.3178 300.119 411 300.9167 C397.8073 302.8956 382 301.9167 382 301.9167 "/>
<path id="3" d="M382 304.9167 C382 304.9167 381.2996 310.8619 383 314.9167 C387.2483 325.0472 390.3109 325.1316 395 335.9167 C400.0935 347.6318 397.9651 349.5883 403 360.9167 C405.5664 366.6911 409.1267 367.6348 411 371.9167 C411.5895 373.264 410 376.9167 410 376.9167 "/>
<path id="4" d="M518 273.9167 C518 273.9167 513.21 269.0007 508 266.9167 C496.6845 262.3905 494.9345 264.283 483 259.9167 C474.8042 256.9182 475.1671 254.639 467 251.9167 C454.7493 247.8331 441 245.9167 441 245.9167 "/>
<path id="5" d="M372 298.9167 L308 280.9167 "/>
<path id="6" d="M440 248.9167 C440 248.9167 432.8988 247.7369 427 248.9167 C418.7417 250.5683 418.5821 252.8235 410 254.9167 C398.391 257.7481 398.0413 257.4482 386 258.9167 C357.1202 262.4386 328 264.9167 328 264.9167 "/>
<path id="7" d="M441 243.9167 C441 243.9167 439.8328 235.4916 436 229.9167 C424.2956 212.8921 408 195.9167 408 195.9167 "/>
<path id="8" d="M408 195.9167 C408 195.9167 364.961 199.3255 322 200.9167 C297.5748 201.8213 273 200.9167 273 200.9167 "/>
<path id="9" d="M276 209.9167 C276 209.9167 275.147 214.8223 276 218.9167 C277.5204 226.2144 277.7888 226.8253 281 233.9167 C289.6685 253.0596 300 271.9167 300 271.9167 "/>
<path id="10" d="M407 191.9167 C407 191.9167 391.6226 192.2125 378 188.9167 C361.5465 184.936 361.6132 181.0131 345 176.9167 C325.8363 172.1914 323.8478 175.7034 305 170.9167 C293.4075 167.9725 293.6325 163.959 282 160.9167 C262.0956 155.7109 259.3804 158.0402 240 153.9167 C237.4874 153.3821 235 150.9167 235 150.9167 "/>
<path id="11" d="M275 206.9167 C275 206.9167 270.7335 202.7295 266 200.9167 C248.1534 194.0818 243.2203 194.8563 228 188.9167 C226.3736 188.282 226.5871 185.5515 225 184.9167 C216.5815 181.5493 211.1767 181.9829 203 178.9167 C201.9463 178.5215 201.9627 176.1841 201 175.9167 C188.7874 172.5243 167 168.9167 167 168.9167 "/>
<path id="12" d="M228 149.9167 C228 149.9167 219.7702 149.6271 213 150.9167 C210.0712 151.4745 209.8183 153.7063 207 153.9167 C179.3102 155.9831 175.2501 153.2576 146 155.9167 C138.1333 156.6318 130 160.9167 130 160.9167 "/>
<path id="13" d="M130 160.9167 C130 160.9167 131.6485 188.4958 132 215.9167 C132.1469 227.3718 132.6656 228.5902 131 238.9167 C130.3783 242.7711 127 246.9167 127 246.9167 "/>
<path id="14" d="M128 251.9167 C128 251.9167 125.0058 251.8705 125 251.9167 C124.6308 254.8705 126.1133 268.4016 125 275.9167 C124.8333 277.0416 121 278.9167 121 278.9167 "/>
<path id="15" d="M121 278.9167 C121 278.9167 121.4803 282.557 123 283.9167 C129.5111 289.7424 136.1496 294.5165 140 295.9167 C140.639 296.149 144.2589 293.7695 145 291.9167 C146.4081 288.3964 145.397 281.1062 146 280.9167 C150.6 279.471 167.1221 279.0321 180 280.9167 C182.9839 281.3533 186.4825 284.4768 187 286.9167 C188.8669 295.7179 184.6653 306.7003 187 313.9167 C187.913 316.7388 192.308 318.2896 198 320.9167 C204.9227 324.1118 206.0423 322.5401 213 325.9167 C239.5861 338.8187 241.9906 342.5224 266 353.9167 C268.1732 354.948 271.5114 354.4052 272 353.9167 C272.6514 353.2653 271.7423 348.5936 273 346.9167 C274.7851 344.5365 277.3629 342.4082 281 341.9167 C293.1577 340.2737 297.5018 340.528 310 341.9167 C313.2083 342.2732 314.3296 343.4243 317 345.9167 C321.3124 349.9416 322.7912 350.6708 325 355.9167 C330.1828 368.2258 327.4915 378.4081 333 383.9167 C339.1206 390.0373 348.1841 390.295 363 393.9167 C369.9614 395.6184 371.4444 392.9886 378 394.9167 C387.2787 397.6457 389.9844 403.5474 397 403.9167 C403.7123 404.2699 406.3552 399.0475 416 396.9167 C448.6952 389.6933 453.708 391.426 483 384.9167 C485.476 384.3664 485.4632 381.6322 488 380.9167 C502.8919 376.7164 509.149 379.3427 522 373.9167 C527.5871 371.5577 527.0376 366.8854 533 361.9167 C538.5839 357.2635 542.6549 356.7472 546 353.9167 C546.4295 353.5532 546.5511 351.6515 546 350.9167 C540.81 343.9967 537.2146 338.3187 531 333.9167 C528.9317 332.4516 522 333.9167 522 333.9167 "/>
<path id="16" d="M411 369.9167 C411 369.9167 401.9233 369.1613 401 369.9167 C400.2278 370.5485 401.7111 376.0209 400 378.9167 C396.4156 384.9826 391.9498 385.8401 388 391.9167 C386.5473 394.1516 387 398.9167 387 398.9167 "/>
<path id="17" d="M408 336.9167 C408 336.9167 411.1129 331.6425 413 330.9167 C414.9665 330.1603 417.981 330.6228 421 331.9167 C423.9167 333.1667 426.0781 334.7657 427 336.9167 C428.0958 339.4735 427.6898 345.1503 427 345.9167 C426.3026 346.6916 420.6583 347.6762 418 346.9167 C416.039 346.3564 415.2235 344.5849 413 341.9167 C410.2913 338.6663 409.4364 338.0767 408 334.9167 C407.3804 333.5535 407.7561 331.1118 408 330.9167 C408.3811 330.6118 413 330.9167 413 330.9167 "/>
<path id="18" d="M506 304.9167 C506 304.9167 509.8417 304.8742 511 305.9167 C513.395 308.0722 514.6768 310.2118 516 313.9167 C516.8113 316.1883 516.3629 319.7212 516 319.9167 C514.4791 320.7356 506.2798 322.01 503 320.9167 C501.1011 320.2837 499.4573 317.4559 498 313.9167 C496.2588 309.688 496 303.9167 496 303.9167 "/>
<path id="19" d="M480 299.9167 C480 299.9167 478.0068 299.8761 478 299.9167 C477.7568 301.3761 477.3331 306.0813 478 311.9167 C479.3036 323.3235 481.9974 334.9078 482 334.9167 C482.0006 334.9188 483 328.9167 483 328.9167 "/>
<path id="20" d="M465 308.9167 L466 335.9167 "/>
<path id="21" d="M457 314.9167 C457 314.9167 453.016 314.8287 453 314.9167 C452.516 317.5787 453 336.9167 453 336.9167 "/>
<path id="22" d="M441 321.9167 L441 341.9167 "/>
<path id="23" d="M256 215.9167 C256 215.9167 257.9422 227.6681 263 236.9167 C274.879 258.6382 278.1119 261.7928 291 279.9167 C291.9924 281.3123 295 281.9167 295 281.9167 "/>
<path id="24" d="M280 271.9167 C280 271.9167 285.0006 273.9174 285 273.9167 C284.9987 273.915 280.4502 268.4001 276 266.9167 C267.3614 264.0371 263.6386 266.7962 255 263.9167 C250.5498 262.4333 250.7535 259.4915 246 256.9167 C239.2181 253.2431 235.3839 255.144 231 250.9167 C223.9873 244.1544 221.0248 239.689 218 229.9167 C215.4616 221.7157 217.9797 208.9172 218 208.9167 C219.6858 208.8765 258.2645 228.1729 260 228.9167 C260.0294 228.9293 260 226.9167 260 226.9167 "/>
<path id="25" d="M213 208.9167 C213 208.9167 211 206.9167 211 206.9167 C210.9256 206.991 210.0616 209.4543 210 211.9167 C209.5712 229.0678 210.2492 242.5559 210 246.9167 C209.9992 246.9309 208 246.9167 208 246.9167 "/>
<path id="26" d="M208 246.9167 C208 246.9167 194.1554 235.8804 182 231.9167 C174.1302 229.3504 162 231.9167 162 231.9167 "/>
<path id="27" d="M162 231.9167 C162 231.9167 153.734 224.8098 153 219.9167 C151.4853 209.8189 156 191.9167 156 191.9167 "/>
<path id="28" d="M156 191.9167 C156 191.9167 161.4184 197.3662 167 198.9167 C186.4997 204.3333 210 206.9167 210 206.9167 "/>
<path id="29" d="M200 319.9167 C200 319.9167 192.855 325.767 188 331.9167 C185.8819 334.5996 186.8792 336.5677 185 338.9167 C183.6006 340.6659 182.3223 341.4522 180 341.9167 C175.853 342.7461 173.9891 343.3246 170 341.9167 C158.7365 337.9413 156.8895 336.4504 146 329.9167 C142.6494 327.9063 142.5579 327.1852 140 323.9167 C133.6883 315.8518 131.3085 314.6365 128 306.9167 C126.3564 303.0817 128 295.9167 128 295.9167 "/>
<path id="30" d="M170 301.9167 C170 301.9167 170.4956 309.3503 170 309.9167 C169.6206 310.3503 163.5602 310.5391 163 309.9167 C161.9507 308.7508 160.8509 300.6623 161 299.9167 C161.0124 299.8545 165 299.9167 165 299.9167 "/>
<path id="31" d="M247 344.9167 L246 359.9167 "/>
<path id="32" d="M266 354.9167 C266 354.9167 263.104 371.8493 266 379.9167 C268.2039 386.0561 273.9444 392.5192 280 393.9167 C298.0047 398.0716 311.1402 395.9806 331 394.9167 C333.0326 394.8078 335.9813 391.0099 336 390.9167 C336.0007 390.9129 332 389.9167 332 389.9167 "/>
<path id="33" d="M300 360.9167 C300 360.9167 302 363.5316 302 364.9167 C302 366.648 300.6737 369.6173 300 369.9167 C298.954 370.3815 294.1014 369.7427 293 368.9167 C292.325 368.4104 291.8719 364.237 292 363.9167 C292.0334 363.8331 295 363.9167 295 363.9167 "/>
<path id="34" d="M421 248.9167 C421 248.9167 407.8422 249.1623 406 248.9167 C405.9672 248.9123 406.0481 246.9263 406 246.9167 C404.7981 246.6763 400.3171 247.9446 396 246.9167 C390.7372 245.6636 389.996 242.2914 385 241.9167 C372.3289 240.9663 356 243.9167 356 243.9167 "/>
<path id="35" d="M363 255.9167 L306 246.9167 "/>
</g>
</g>
</svg>
