<?xml version="1.0" encoding="utf-8"?>
<!DOCTYPE svg PUBLIC "-//W3C//DTD SVG 1.1//EN" "http://www.w3.org/Graphics/SVG/1.1/DTD/svg11.dtd">
<svg viewBox="0 0 800 800" preserveAspectRatio="xMinYMin meet" xmlns="http://www.w3.org/2000/svg" version="1.1">
<g fill="none" stroke="black" stroke-linecap="round" stroke-linejoin="round" stroke-width="2.1505">
<g transform="translate(87.52,243.76) scale(1.395) translate(-61,-156)">
<path id="0" d="M75 236 C75 236 170.7714 235.1766 227 233 C228.1519 232.9554 229.5279 231.4949 230 230 C232.0267 223.582 232.5757 221.9198 233 214 C234.0501 194.3973 231.855 191.1751 233 174 C233.1489 171.7672 234.2534 169.9527 236 169 C242.9588 165.2043 245.4534 163.7986 255 162 C279.023 157.4739 280.1403 156.5808 305 156 C386.3001 154.1005 469 157 469 157 "/>
<path id="1" d="M469 157 C469 157 472.6012 167.1301 473 177 C474.5626 215.6735 470.1157 217.3498 473 256 C475.0353 283.2735 483 311 483 311 "/>
<path id="2" d="M76 237 L62 270 "/>
<path id="3" d="M63 275 C63 275 58.4248 322.0284 61 324 C65.7856 327.664 127 324 127 324 "/>
<path id="4" d="M68 272 L218 272 "/>
<path id="5" d="M218 274 C218 274 229.3518 295.7727 238 317 C239.9977 321.9033 240 328 240 328 "/>
<path id="6" d="M242 325 C242 325 347.2129 331.0443 377 324 C381.6344 322.904 382.6709 306.3239 390 290 C393.5031 282.1976 399 275 399 275 "/>
<path id="7" d="M401 279 C401 279 403.7853 276.1089 406 276 C430.0937 274.8151 462 276 462 276 "/>
<path id="8" d="M462 275 C462 275 471.1455 290.1487 478 305 C479.8194 308.942 478.9634 313.2225 480 314 C481.1847 314.8886 490 314 490 314 "/>
<path id="9" d="M478 291 L487 314 "/>
<path id="10" d="M126 325 L151 324 "/>
<path id="11" d="M221 337 C221 337 223.7356 334.7626 224 333 C224.9506 326.6626 224.3437 324.9049 224 317 C223.8487 313.5201 224.2352 312.8233 223 310 C221.0694 305.5871 220.2061 302.6583 217 301 C209.1456 296.9374 205.3167 296.4146 194 295 C182.0876 293.511 179.2598 292.84 169 295 C162.9737 296.2687 159.9001 298.1639 156 303 C149.1051 311.5497 146.7128 314.9399 144 326 C140.8373 338.894 141.5049 344.9366 143 356 C143.391 358.8935 145.6032 360.5737 149 363 C155.3965 367.569 156.402 367.9045 164 371 C169.502 373.2415 170.1773 373.6935 176 374 C188.4268 374.654 193.2214 376.4706 202 373 C209.7577 369.933 214.1265 365.3255 219 357 C224.4644 347.6651 226 332 226 332 "/>
<path id="12" d="M475 324 C475 324 474.4048 314.7019 471 310 C465.4967 302.4002 462.7844 299.9857 454 295 C445.9414 290.4262 443.782 290.7786 434 289 C427.9706 287.9037 426.214 287.4551 421 289 C414.4342 290.9454 413.2547 292.4511 407 297 C402.6389 300.1717 400.9665 300.6737 399 305 C391.9944 320.4124 390.5053 323.4737 387 341 C384.8092 351.9539 386.0404 356.364 387 365 C387.1333 366.1994 388.3073 367.0596 390 368 C401.1234 374.1797 402.8082 377.5861 414 380 C425.2744 382.4317 429.8534 381.8515 441 379 C448.5896 377.0585 450.462 374.7836 457 369 C462.6575 363.9953 463.104 362.753 467 356 C470.2972 350.2848 470.7618 349.5006 472 343 C474.6243 329.2223 475 314 475 314 "/>
<path id="13" d="M434 328 C434 328 425.7971 327.001 423 328 C421.7831 328.4346 420.4081 330.6873 420 333 C419.1143 338.0191 418.582 341.1511 420 345 C421.1319 348.0724 424.1561 351.1468 427 352 C430.9689 353.1907 436.5721 352.7139 440 351 C442.2853 349.8574 443.5239 346.9363 445 343 C446.2519 339.6616 446.9215 336.6382 446 335 C444.3119 331.999 436 327 436 327 "/>
<path id="14" d="M192 324 C192 324 178.0913 323.6519 177 325 C175.2049 327.2175 173.9946 341.6967 175 345 C175.2975 345.9777 179.6184 347.4523 184 348 C191.0105 348.8763 194.3724 349.3883 199 348 C201.0979 347.3706 203.1585 344.6927 204 342 C205.1127 338.4395 205.3651 335.242 204 332 C202.3116 327.9901 196 323 196 323 "/>
<path id="15" d="M318 160 C318 160 321.6664 206.0153 321 251 C320.6771 272.7981 318.9008 273.0832 316 295 C314.4068 307.0373 314.6525 308.0111 312 319 C311.3918 321.5196 309 324 309 324 "/>
<path id="16" d="M393 156 C393 156 392.1483 163.7602 393 171 C394.1056 180.3975 396.5193 180.627 397 190 C398.4767 218.7949 395.9553 219.7471 397 249 C397.4446 261.4484 400 274 400 274 "/>
<path id="17" d="M232 232 C232 232 273.2257 231.1275 309 232 C311.3457 232.0572 311.6873 234 314 234 C385.6927 234 469 232 469 232 "/>
<path id="18" d="M332 172 L334 220 "/>
<path id="19" d="M335 174 C335 174 378.8161 169.9859 385 174 C388.8362 176.4902 389.5205 194.0569 392 211 C392.2513 212.7171 391.6246 214.5539 391 215 C389.9127 215.7766 387.9721 215.9041 385 216 C372.6823 216.3973 372.2489 215.0001 360 216 C348.0811 216.973 336 220 336 220 "/>
<path id="20" d="M247 180 C247 180 239.3728 222.8377 241 224 C245.461 227.1864 302.9918 229.4162 310 225 C313.4458 222.8286 315.7939 179.3074 314 178 C310.4374 175.4035 251 182 251 182 "/>
<path id="21" d="M412 175 C412 175 404.5926 218.8022 406 220 C408.1242 221.8078 453.4999 219.0472 459 215 C461.4278 213.2135 461.388 183.0081 459 181 C455.1143 177.7325 415 178 415 178 "/>
<path id="22" d="M477 218 C477 218 482.4806 211.5065 487 210 C491.9951 208.335 500.6042 209.1184 501 210 C504.3118 217.3763 506.9062 234.6596 509 259 C510.8541 280.554 511.1559 293.5925 509 303 C508.6805 304.3942 503.3367 305.9327 498 307 C493.9297 307.8141 489 307 489 307 "/>
<path id="23" d="M480 255 C480 255 484.9968 251.9944 485 252 C485.4158 252.7276 487.3675 260.7781 488 269 C488.3275 273.2578 487.8634 276.2733 487 278 C486.7274 278.5453 483 279 483 279 "/>
<path id="24" d="M479 221 C479 221 490.7669 241.2154 495 260 C498.1794 274.1086 496.2206 276.4371 495 292 C494.2633 301.3931 491 311 491 311 "/>
<path id="25" d="M163 328 L173 336 "/>
<path id="26" d="M177 314 L181 326 "/>
<path id="27" d="M197 315 L197 323 "/>
<path id="28" d="M169 351 L177 345 "/>
<path id="29" d="M183 358 L189 342 "/>
<path id="30" d="M209 351 L204 343 "/>
<path id="31" d="M215 326 L213 326 "/>
<path id="32" d="M217 327 L204 330 "/>
<path id="33" d="M161 331 C161 331 164.0434 320.2685 168 317 C172.2901 313.456 176.1859 313.4471 184 312 C189.0783 311.0596 190.2694 310.7736 195 312 C202.6613 313.9863 206.8498 315.0573 211 319 C213.8218 321.6807 213.9827 325.1507 215 331 C215.8814 336.0681 216.3727 338.078 215 342 C213.5711 346.0824 211.9432 348.2569 208 351 C201.7942 355.3171 199.6751 356.2091 192 358 C185.9064 359.4218 182.5758 359.961 178 358 C171.7433 355.3186 167.336 351.8871 164 346 C160.703 340.1818 161 328 161 328 "/>
<path id="34" d="M414 351 C414 351 408.5882 347.8757 406 345 C405.0392 343.9325 405.1032 342.9608 405 341 C404.618 333.7424 403.8482 332.335 405 326 C405.5934 322.7365 406.4781 321.3643 409 319 C413.6558 314.6352 415.307 312.5526 421 311 C429.5394 308.6711 434.6181 307.8909 442 310 C448.1092 311.7455 450.9115 315.108 456 321 C459.3757 324.9087 459.9032 326.7352 461 332 C462.1841 337.6837 461.853 339.0291 461 345 C460.447 348.8712 460.2637 350.6032 458 353 C453.1476 358.1378 450.4157 360.9304 444 363 C437.6684 365.0425 431.656 365.328 427 363 C421.3855 360.1927 418.4603 354.1758 414 348 C413.4513 347.2403 413.4802 345.7148 414 345 C416.3944 341.7077 422 337 422 337 "/>
<path id="35" d="M408 329 C408 329 415.3723 327.9281 421 329 C424.793 329.7225 429 333 429 333 "/>
<path id="36" d="M427 311 L429 326 "/>
<path id="37" d="M455 323 L444 327 "/>
<path id="38" d="M421 358 L429 348 "/>
<path id="39" d="M444 364 C444 364 444.6684 361.1459 444 360 C441.9808 356.5386 437 352 437 352 "/>
<path id="40" d="M467 343 L444 341 "/>
</g>
</g>
</svg>
