<?xml version="1.0" encoding="utf-8"?>
<!DOCTYPE svg PUBLIC "-//W3C//DTD SVG 1.1//EN" "http://www.w3.org/Graphics/SVG/1.1/DTD/svg11.dtd">
<svg viewBox="0 0 800 800" preserveAspectRatio="xMinYMin meet" xmlns="http://www.w3.org/2000/svg" version="1.1">
<g fill="none" stroke="black" stroke-linecap="round" stroke-linejoin="round" stroke-width="1.5457">
<g transform="translate(87.52,274.8139) scale(1.9409) translate(-61,-212.1333)">
<path id="0" d="M97 290.1333 C97 290.1333 95.8939 274.3232 97 267.1333 C97.1739 266.0032 99.9079 265.8807 101 264.1333 C104.326 258.8117 103.3026 256.4154 107 251.1333 C109.7086 247.2639 112.243 247.7174 115 244.1333 C116.58 242.0793 115.8808 239.2525 117 238.1333 C117.8394 237.2939 120.4358 238.2804 122 237.1333 C126.729 233.6654 126.544 230.5888 132 227.1333 C140.5848 221.6963 141.9312 220.5693 152 218.1333 C171.7276 213.3605 173.1743 213.2652 194 212.1333 C218.5748 210.7977 219.6414 211.1035 244 213.1333 C254.9026 214.0419 256.5194 213.72 266 218.1333 C284.0205 226.5222 284.8066 228.3527 302 240.1333 C311.5193 246.6558 313.1925 247.1913 320 255.1333 C324.0589 259.8687 324.3836 261.6677 326 268.1333 C328.1738 276.8285 328 287.1333 328 287.1333 "/>
<path id="1" d="M100 299.1333 C100 299.1333 122.2221 302.3468 144 302.1333 C172.7458 301.8515 173.3067 297.7376 202 298.1333 C245.1219 298.7281 246.2682 303.4152 289 304.1333 C304.6663 304.3966 308.5407 303.164 321 300.1333 C323.3489 299.562 326 295.1333 326 295.1333 "/>
<path id="2" d="M101 290.1333 C101 290.1333 131.679 286.1333 162 286.1333 C208.2271 286.1333 208.7459 289.8053 255 290.1333 C278.8552 290.3025 279.1984 287.4465 303 287.1333 C316.8598 286.951 331 289.1333 331 289.1333 "/>
<path id="3" d="M332 293.1333 C332 293.1333 336.6436 291.3809 337 290.1333 C338.4717 284.9823 336.0901 278.9542 338 272.1333 C338.9069 268.8945 341.571 267.0226 344 265.1333 C344.6367 264.6381 346.8125 265.3208 347 265.1333 C347.1875 264.9458 346.8105 262.2281 347 262.1333 C348.0739 261.5964 352.0234 260.2095 355 261.1333 C364.3304 264.029 371.0186 265.4403 376 271.1333 C380.9375 276.7762 381.9963 283.0966 383 293.1333 C383.7826 300.9593 383.0402 306.1931 380 311.1333 C377.549 315.1162 370.4215 318.8223 367 319.1333 C364.8927 319.3249 362.5335 315.0422 358 313.1333 C353.7356 311.3378 352.8924 311.2445 348 311.1333 C331.4522 310.7572 314 312.1333 314 312.1333 "/>
<path id="4" d="M99 301.1333 C99 301.1333 68.5601 292.9186 61 290.1333 C60.8013 290.0601 60.5803 287.553 61 287.1333 C62.5389 285.5944 64.7278 283.7878 68 283.1333 C73.4536 282.0426 75.1574 281.9245 81 283.1333 C88.7488 284.7365 97 289.1333 97 289.1333 "/>
<path id="5" d="M311 315.1333 L295 309.1333 "/>
<path id="6" d="M259 305.1333 C259 305.1333 256.8178 311.0593 254 314.1333 C252.2367 316.0569 249.4797 315.2501 248 317.1333 C245.1366 320.7777 244.3149 322.8738 243 328.1333 C242.034 331.9975 242.4414 336.5049 243 337.1333 C243.4414 337.6299 249.1945 336.4111 251 337.1333 C251.8125 337.4583 252.1542 340.5694 253 341.1333 C253.725 341.6167 256.0688 341.7541 257 341.1333 C259.0953 339.7365 259.2822 337.1717 262 335.1333 C264.6463 333.1486 268.3083 333.5936 269 332.1333 C270.8561 328.215 268.6757 320.7819 271 316.1333 C272.4356 313.2621 280 310.1333 280 310.1333 "/>
<path id="7" d="M129 305.1333 C129 305.1333 122.3365 314.0196 115 320.1333 C111.078 323.4017 106.8362 323.1135 105 325.1333 C104.2181 325.9934 104.6294 330.8157 105 331.1333 C105.5044 331.5657 109.0777 330.2567 112 331.1333 C118.1785 332.9869 121.7388 337.1333 125 337.1333 C126.756 337.1333 129.4789 334.5999 132 331.1333 C140.948 318.8298 141.3237 313.4088 149 304.1333 C150.4566 302.3732 156 302.1333 156 302.1333 "/>
<path id="8" d="M117 332.1333 L122 331.1333 "/>
<path id="9" d="M121 335.1333 L127 335.1333 "/>
<path id="10" d="M127 335.1333 L130 332.1333 "/>
<path id="11" d="M115 330.1333 L123 326.1333 "/>
<path id="12" d="M247 332.1333 L251 330.1333 "/>
<path id="13" d="M253 333.1333 L259 332.1333 "/>
<path id="14" d="M368 278.1333 C368 278.1333 365.9996 281.133 366 281.1333 C366.0004 281.1337 369 279.1333 369 279.1333 "/>
<path id="15" d="M130 286.1333 C130 286.1333 133.4833 283.3184 135 280.1333 C138.1454 273.5279 140.7459 266.1279 140 265.1333 C138.2595 262.8127 117 256.1333 117 256.1333 "/>
<path id="16" d="M137 265.1333 C137 265.1333 143.9586 260.2671 151 258.1333 C159.6959 255.4982 169.8807 255.5084 170 255.1333 C170.2003 254.5038 164.398 244.664 158 236.1333 C155.8293 233.239 152 231.1333 152 231.1333 "/>
<path id="17" d="M170 259.1333 C170 259.1333 175.2899 266.6967 178 273.1333 C178.7802 274.9863 178 278.1333 178 278.1333 "/>
<path id="18" d="M168 258.1333 C168 258.1333 179.7622 256.7199 189 254.1333 C191.0213 253.5674 192.9814 251.1015 193 251.1333 C193.9137 252.6997 203 278.1333 203 278.1333 "/>
<path id="19" d="M193 254.1333 C193 254.1333 192.189 250.9766 193 249.1333 C197.0292 239.976 197.8068 237.4941 204 229.1333 C207.007 225.0739 213 222.1333 213 222.1333 "/>
<path id="20" d="M201 250.1333 L231 249.1333 "/>
<path id="21" d="M242 293.1333 C242 293.1333 243.0635 287.1852 242 282.1333 C239.2267 268.9599 234 255.1333 234 255.1333 "/>
<path id="22" d="M234 254.1333 C234 254.1333 234.3106 249.9072 236 248.1333 C242.8694 240.9205 254 233.1333 254 233.1333 "/>
<path id="23" d="M238 253.1333 L278 255.1333 "/>
<path id="24" d="M278 255.1333 L278 282.1333 "/>
<path id="25" d="M276 255.1333 L293 247.1333 "/>
<path id="26" d="M282 260.1333 C282 260.1333 288.0832 259.353 292 261.1333 C303.0011 266.1338 315 275.1333 315 275.1333 "/>
</g>
</g>
</svg>
