<?xml version="1.0" encoding="utf-8"?>
<!DOCTYPE svg PUBLIC "-//W3C//DTD SVG 1.1//EN" "http://www.w3.org/Graphics/SVG/1.1/DTD/svg11.dtd">
<svg viewBox="0 0 800 800" preserveAspectRatio="xMinYMin meet" xmlns="http://www.w3.org/2000/svg" version="1.1">
<g fill="none" stroke="black" stroke-linecap="round" stroke-linejoin="round" stroke-width="2.2273">
<g transform="translate(87.52,264.6369) scale(1.3469) translate(-76,-118.1333)">
<path id="0" d="M212 154.1333 C212 154.1333 203.2661 153.0155 196 154.1333 C191.1792 154.875 188.8414 155.7291 186 158.1333 C184.1058 159.7361 184.9285 163.7405 183 165.1333 C178.3715 168.4761 173.0206 167.7863 168 171.1333 C166.1503 172.3665 167.034 175.219 165 177.1333 C159.4931 182.3163 156.323 181.8103 151 187.1333 C148.3385 189.7948 147.476 191.325 147 195.1333 C145.2008 209.5266 147.1636 217.2426 146 227.1333 C145.9148 227.8579 143 228.6422 143 229.1333 C143 233.3082 143.2567 238.5892 146 246.1333 C148.9225 254.1703 151.0823 257.3762 155 262.1333 C155.8564 263.1732 158.6886 262.1134 160 263.1333 C161.9671 264.6633 161.6778 267.0222 164 269.1333 C166.6125 271.5083 168.9154 270.8403 171 273.1333 C172.9566 275.2856 171.9454 278.6147 174 280.1333 C180.8853 285.2224 183.8311 287.292 194 290.1333 C216.5355 296.43 218.0624 296.9735 242 299.1333 C283.8171 302.9063 285.0065 302.4862 327 302.1333 C343.819 301.992 344.0773 300.3029 361 298.1333 C363.5145 297.811 364.5802 298.3026 366 297.1333 C371.5359 292.5744 375.1409 289.8515 378 284.1333 C379.6552 280.8228 377.0601 278.068 378 273.1333 C378.9196 268.3055 379.2556 266.9333 382 263.1333 C385.0875 258.8584 390.9702 255.2129 391 255.1333 C391.0059 255.1176 385 255.1333 385 255.1333 "/>
<path id="1" d="M202 151.1333 C202 151.1333 256.0771 150.5732 306 153.1333 C312.3326 153.4581 312.6405 156.1912 319 157.1333 C325.5501 158.1037 326.4756 155.9195 333 157.1333 C347.2084 159.7768 347.4563 162.1148 362 165.1333 C373.6797 167.5574 374.9529 165.534 386 168.1333 C390.9975 169.3092 391.0919 171.8529 396 173.1333 C401.7576 174.6353 404.4462 172.4556 409 174.1333 C411.7968 175.1637 411.9408 179.1136 415 180.1333 C429.786 185.062 434.0506 183.4033 451 188.1333 C454.5981 189.1375 456.645 189.916 458 192.1333 C460.6919 196.5382 461.3143 199.2763 462 206.1333 C463.2381 218.5141 463.0793 220.2613 462 232.1333 C461.6981 235.4542 460.1487 237.7932 459 239.1333 C458.6914 239.4934 456.4496 238.6372 456 239.1333 C446.8113 249.2725 443.5292 256.8921 430 271.1333 C425.371 276.006 423.9478 277.434 418 279.1333 C405.0339 282.8379 402.0243 279.8719 388 283.1333 C381.4729 284.6513 381.3446 287.7875 375 289.1333 C366.0152 291.0392 355 290.1333 355 290.1333 "/>
<path id="2" d="M463 199.1333 C463 199.1333 466.6033 197.2546 470 197.1333 C493.5364 196.2927 496.5055 195.9283 519 197.1333 C522.2873 197.3094 523.1173 198.0985 526 200.1333 C531.1703 203.783 534.2937 204.7456 536 209.1333 C539.7804 218.8544 541.4419 229.8251 540 236.1333 C539.4062 238.7312 534.1765 241.0451 528 244.1333 C522.5956 246.8355 521.6813 247.9838 516 248.1333 C485.9881 248.9231 452 246.1333 452 246.1333 "/>
<path id="3" d="M432 180.1333 C432 180.1333 445.8382 181.822 454 180.1333 C457.0575 179.5007 457.6614 175.4317 461 174.1333 C465.0739 172.549 467.3009 174.6997 472 173.1333 C478.3576 171.0141 479.9515 169.9197 485 166.1333 C486.8673 164.7329 486.7524 162.0245 488 161.1333 C488.7594 160.5909 491.9428 160.9999 492 161.1333 C492.2192 161.6449 492.1981 165.3377 491 168.1333 C489.5254 171.5741 488.8124 172.9236 486 175.1333 C482.7475 177.6889 480.4926 176.5138 477 179.1333 C473.2163 181.9711 473.3205 184.9987 470 187.1333 C467.91 188.4769 464.6456 186.9365 463 188.1333 C461.064 189.5413 459 195.1333 459 195.1333 "/>
<path id="4" d="M152 188.1333 C152 188.1333 134.8888 185.7157 118 185.1333 C106.1317 184.7241 104.8386 184.6882 94 186.1333 C91.1257 186.5166 90.0971 187.2459 88 189.1333 C85.7342 191.1726 85.9507 193.7678 84 195.1333 C82.4061 196.249 78.7691 195.2681 78 196.1333 C76.8126 197.4691 76.2534 200.2056 76 204.1333 C75.283 215.2463 74.9493 217.3264 76 227.1333 C76.2431 229.4023 77.1337 230.5541 79 232.1333 C82.8915 235.4261 84.5532 237.7628 89 238.1333 C110.1397 239.895 116.801 236.7222 139 237.1333 C140.793 237.1665 143 239.1333 143 239.1333 "/>
<path id="5" d="M154 261.1333 C154 261.1333 147.1443 267.8167 141 269.1333 C128.801 271.7474 121.724 268.1313 112 270.1333 C109.924 270.5607 109.4411 274.4246 107 276.1333 C105.4876 277.192 102.7889 276.2458 102 277.1333 C100.4543 278.8722 100.5385 283.1553 99 285.1333 C98.3879 285.9203 95.7331 285.217 95 286.1333 C91.4393 290.5842 91.253 294.5718 87 300.1333 C85.5575 302.0197 82.2177 302.0993 82 303.1333 C81.1519 307.1619 82.1964 318.5188 83 319.1333 C83.8322 319.7697 92.6741 318.3474 99 316.1333 C101.0035 315.4321 101.2451 312.7715 103 312.1333 C105.2521 311.3144 107.5024 312.9658 110 312.1333 C112.2597 311.3801 112.5684 308.7055 115 308.1333 C127.2543 305.25 131.251 307.6393 144 304.1333 C149.4744 302.6279 149.4054 299.4644 155 297.1333 C160.7286 294.7464 165.6804 295.7902 168 294.1333 C168.9191 293.4768 169 287.1333 169 287.1333 "/>
<path id="6" d="M177 166.1333 C177 166.1333 176.5391 163.349 176 163.1333 C172.2753 161.6435 167.6 162.8213 162 160.1333 C156.4435 157.4662 156.6106 154.1937 151 151.1333 C146.5436 148.7026 144.4564 150.5641 140 148.1333 C134.3894 145.073 134.2993 142.4454 129 139.1333 C127.207 138.0127 125.4516 139.2739 124 138.1333 C119.7706 134.8102 119.8277 131.425 115 128.1333 C109.9919 124.7187 105.2321 125.442 102 123.1333 C101.1084 122.4965 100.9604 118.1371 101 118.1333 C104.243 117.8245 138.3903 118.742 144 119.1333 C144.0182 119.1346 143.9068 121.1059 144 121.1333 C146.8345 121.967 155.1677 122.2915 161 124.1333 C161.9578 124.4358 162.1705 126.9381 163 127.1333 C167.6706 128.2323 171.8383 126.2374 178 128.1333 C183.2947 129.7625 186.7563 132.2777 189 135.1333 C190.004 136.4112 188.0814 139.2463 189 142.1333 C191.2607 149.2385 192.8995 152.1725 196 157.1333 C196.4601 157.8695 198.8487 157.7299 199 158.1333 C199.4984 159.4623 199 165.1333 199 165.1333 "/>
<path id="7" d="M87 197.1333 C87 197.1333 81.0768 203.0571 80 208.1333 C78.1026 217.0783 79.2737 219.6026 80 230.1333 C80.2356 233.55 80.35 235.3459 82 237.1333 C84.8408 240.2109 92 243.1333 92 243.1333 "/>
</g>
</g>
</svg>
