<?xml version="1.0" encoding="utf-8"?>
<!DOCTYPE svg PUBLIC "-//W3C//DTD SVG 1.1//EN" "http://www.w3.org/Graphics/SVG/1.1/DTD/svg11.dtd">
<svg viewBox="0 0 800 800" preserveAspectRatio="xMinYMin meet" xmlns="http://www.w3.org/2000/svg" version="1.1">
<g fill="none" stroke="black" stroke-linecap="round" stroke-linejoin="round" stroke-width="2.2465">
<g transform="translate(87.52,281.8185) scale(1.3354) translate(-7,-211.1333)">
<path id="0" d="M51 254.1333 C51 254.1333 56.0143 242.8469 62 240.1333 C87.2128 228.7035 93.8398 229.049 126 220.1333 C144.1359 215.1056 144.6429 213.8909 163 212.1333 C190.7528 209.4761 191.9984 209.3987 220 211.1333 C247.784 212.8545 248.5941 213.4909 276 219.1333 C299.1412 223.8977 299.7759 224.2564 322 232.1333 C338.8265 238.0972 343.6751 239.3847 355 247.1333 C358.279 249.3768 357.6237 256.0965 360 258.1333 C361.6234 259.5248 369 259.1333 369 259.1333 "/>
<path id="1" d="M49 255.1333 C49 255.1333 37.1607 256.3727 30 253.1333 C18.9591 248.1386 7.3714 236.1333 7 236.1333 C6.9839 236.1333 5.8559 246.7011 8 253.1333 C9.5668 257.8338 11.5191 259.6708 16 263.1333 C21.5299 267.4065 23.3525 268.7233 30 270.1333 C38.1565 271.8635 49 270.1333 49 270.1333 "/>
<path id="2" d="M51 272.1333 C51 272.1333 55.3838 275.6442 60 277.1333 C70.2707 280.4465 82 282.1333 82 282.1333 "/>
<path id="3" d="M82 282.1333 C82 282.1333 68.9695 284.1125 60 288.1333 C56.317 289.7843 54.346 292.0567 53 295.1333 C51.7961 297.8851 53.8141 300.063 53 304.1333 C51.9327 309.47 51.6678 310.1789 49 315.1333 C44.8657 322.8113 43.1266 322.3656 39 330.1333 C34.7909 338.0564 33.433 338.945 32 347.1333 C30.1916 357.467 31.2506 359.2676 32 370.1333 C32.2 373.033 32.6149 374.7483 34 376.1333 C35.7313 377.8646 37.6382 378.5401 41 379.1333 C45.4649 379.9212 46.6663 379.9459 51 379.1333 C53.844 378.6001 55.7726 378.1226 57 376.1333 C67.6573 358.8611 66.9171 352.6555 80 332.1333 C92.0096 313.2947 98.244 311.4642 108 296.1333 C109.4502 293.8544 108.7624 291.1827 108 288.1333 C107.5474 286.3227 105 284.1333 105 284.1333 "/>
<path id="4" d="M109 291.1333 C109 291.1333 124.6451 293.3327 140 293.1333 C162.8231 292.8369 163.0698 290.2758 186 290.1333 C243.2961 289.7775 301 292.1333 301 292.1333 "/>
<path id="5" d="M304 294.1333 C304 294.1333 290.5006 304.3823 286 312.1333 C283.9436 315.6749 284.9086 320.2222 286 325.1333 C286.4944 327.358 287.7526 328.5774 290 330.1333 C293.5449 332.5875 295.796 331.2726 299 334.1333 C308.6212 342.7237 307.7134 346.0713 318 355.1333 C328.1755 364.0975 329.0919 364.187 341 371.1333 C352.7853 378.0081 354.1534 379.4882 366 383.1333 C371.7804 384.9119 373.7961 383.8227 380 383.1333 C381.871 382.9254 383.9462 381.6712 384 381.1333 C384.3989 377.1439 384.9904 370.5307 382 363.1333 C376.2965 349.0247 372.1778 348.0902 365 334.1333 C363.7611 331.7244 365.3815 329.7195 364 328.1333 C354.42 317.1341 349.0563 316.1407 338 303.1333 C332.8827 297.1129 330.1118 288.6925 330 288.1333 C329.9933 288.0996 335 288.1333 335 288.1333 "/>
<path id="6" d="M329 290.1333 C329 290.1333 342.5054 283.1069 355 282.1333 C378.8617 280.274 406 284.1333 406 284.1333 "/>
<path id="7" d="M360 258.1333 C360 258.1333 373.5868 261.2727 383 259.1333 C392.7138 256.9257 393.2676 251.8409 404 248.1333 C419.9098 242.6372 421.0957 242.8501 438 240.1333 C448.6165 238.4271 449.4834 238.7828 460 239.1333 C463.8619 239.2621 466.0988 239.3589 468 241.1333 C471.5069 244.4064 473.0436 247.5437 475 253.1333 C476.0831 256.2279 475.8866 258.0302 475 261.1333 C474.2084 263.904 473.3228 265.9405 471 267.1333 C457.9851 273.8167 454.6323 274.69 438 280.1333 C427.4476 283.5869 426.8549 283.5826 416 285.1333 C409.7874 286.0208 403 285.1333 403 285.1333 "/>
<path id="8" d="M56 250.1333 C56 250.1333 54.8316 263.9649 57 266.1333 C61.4644 270.5977 69.3948 272.1226 82 276.1333 C91.0676 279.0185 91.6777 279.6823 101 280.1333 C121.8615 281.1428 122.869 277.8126 144 279.1333 C170.2984 280.777 170.6164 284.1259 197 286.1333 C216.2212 287.5958 216.7229 287.2349 236 286.1333 C251.4358 285.2513 251.6112 282.573 267 282.1333 C303.5854 281.088 309.1214 285.967 341 283.1333 C348.246 282.4892 354.1549 278.4009 357 274.1333 C359.7968 269.9381 359 256.1333 359 256.1333 "/>
<path id="9" d="M118 293.1333 C118 293.1333 120.4976 304.4035 118 310.1333 C113.6791 320.046 107.5528 321.4419 101 332.1333 C98.9331 335.5056 100.9921 337.7183 99 341.1333 C94.6893 348.5232 92.0133 348.2553 87 356.1333 C81.7451 364.3911 82.7321 365.8522 78 374.1333 C77.0361 375.8202 76.2687 376.8615 75 377.1333 C71.1689 377.9543 69.4198 377.5502 64 377.1333 C56.5336 376.559 51.2592 375.8864 49 375.1333 C48.8558 375.0853 49 372.1333 49 372.1333 "/>
<path id="10" d="M286 293.1333 C286 293.1333 285.1169 297.7816 283 301.1333 C279.4305 306.785 276.1842 306.7722 274 312.1333 C271.4959 318.2797 270.3544 323.7949 272 328.1333 C273.936 333.2373 279.6312 334.1306 285 341.1333 C290.7662 348.6544 288.6262 352.9895 295 358.1333 C313.9187 373.4011 320.0564 376.5155 342 387.1333 C347.5671 389.8271 351.691 389.1446 357 388.1333 C359.4923 387.6586 363 383.1333 363 383.1333 "/>
<path id="11" d="M69 238.1333 C69 238.1333 66.4784 246.6561 67 252.1333 C67.2788 255.0608 68.5076 256.463 71 259.1333 C75.0249 263.4457 76.4833 265.688 81 267.1333 C86.3942 268.8595 92.4943 268.8027 96 267.1333 C98.5152 265.9356 101.1538 261.8478 102 257.1333 C104.2291 244.7143 103 228.1333 103 228.1333 "/>
<path id="12" d="M123 222.1333 C123 222.1333 121.0941 232.9802 122 241.1333 C122.405 244.7783 123.7552 245.3172 126 249.1333 C128.7167 253.7517 129.4596 256.7884 132 258.1333 C134.5959 259.5076 138.0654 259.0733 143 258.1333 C147.8278 257.2137 149.045 256.9018 153 254.1333 C158.2528 250.4564 159.3231 249.3861 163 244.1333 C165.7685 240.1783 166.4177 238.9369 167 234.1333 C168.2773 223.596 167 211.1333 167 211.1333 "/>
<path id="13" d="M197 212.1333 C197 212.1333 194.5947 220.2038 194 228.1333 C193.1203 239.8627 192.4373 242.1322 194 252.1333 C194.5718 255.7926 196.0962 258.1007 199 260.1333 C204.2596 263.8151 206.9922 264.8819 214 266.1333 C219.5907 267.1317 222.4617 267.3242 227 265.1333 C234.4981 261.5136 239.9904 257.9756 243 252.1333 C245.9066 246.4911 242.232 241.4782 244 232.1333 C245.5881 223.7392 250 215.1333 250 215.1333 "/>
<path id="14" d="M284 222.1333 C284 222.1333 277.3535 230.8961 275 239.1333 C272.8011 246.8295 272.405 250.5255 274 257.1333 C275.1614 261.9448 277.4043 264.7291 282 268.1333 C289.3046 273.5441 292.4691 275.4745 301 277.1333 C307.8293 278.4612 310.453 277.2896 318 275.1333 C323.4609 273.5731 324.6626 272.7478 329 269.1333 C332.9308 265.8577 334.0739 264.788 336 260.1333 C339.573 251.4986 341 240.1333 341 240.1333 "/>
<path id="15" d="M449 249.1333 L451 249.1333 "/>
<path id="16" d="M473 264.1333 L446 266.1333 "/>
</g>
</g>
</svg>
