<?xml version="1.0" encoding="utf-8"?>
<!DOCTYPE svg PUBLIC "-//W3C//DTD SVG 1.1//EN" "http://www.w3.org/Graphics/SVG/1.1/DTD/svg11.dtd">
<svg viewBox="0 0 800 800" preserveAspectRatio="xMinYMin meet" xmlns="http://www.w3.org/2000/svg" version="1.1">
<g fill="none" stroke="black" stroke-linecap="round" stroke-linejoin="round" stroke-width="1.5313">
<g transform="translate(87.52,193.3126) scale(1.9591) translate(-127,-68.1333)">
<path id="0" d="M182 99.1333 C182 99.1333 183.0066 97.136 183 97.1333 C182.8024 97.0543 177.675 97.3583 177 97.1333 C176.925 97.1083 177 95.1333 177 95.1333 C172.6116 95.1333 143.3349 96.4494 138 97.1333 C137.9477 97.14 138.4532 99.6801 138 100.1333 C135.734 102.3994 130.2325 103.3322 129 106.1333 C126.5399 111.7244 126.0331 119.0903 127 125.1333 C127.3603 127.3849 130.3842 130.6467 133 131.1333 C146.737 133.6891 154.4567 129.9612 170 133.1333 C175.6644 134.2893 178.6535 136.5119 182 141.1333 C187.5176 148.7529 191 162.1333 191 162.1333 "/>
<path id="1" d="M183 96.1333 C183 96.1333 190.6446 100.6317 195 106.1333 C199.3647 111.6467 199.4957 112.9334 202 120.1333 C207.3531 135.5236 206.0665 138.4713 211 152.1333 C211.762 154.2435 215 156.1333 215 156.1333 "/>
<path id="2" d="M215 156.1333 C215 156.1333 230.0281 132.0767 246 113.1333 C250.1855 108.1692 252.4619 106.9794 258 105.1333 C262.5312 103.6229 268.5405 105.3766 270 105.1333 C270.0405 105.1266 270 103.1333 270 103.1333 C278.5071 103.1333 309.4025 102.6885 342 105.1333 C345.75 105.4146 346.2 108.1833 350 109.1333 C353.3777 109.9778 354.3498 108.2845 358 109.1333 C375.0306 113.0939 376.2738 112.6709 393 119.1333 C419.8011 129.4883 435.8898 133.7862 446 143.1333 C449.1079 146.0067 449.7596 159.9179 446 168.1333 C439.0288 183.3666 433.2245 186.2548 419 202.1333 C412.0736 209.8651 411.6946 211.3908 403 216.1333 C380.1935 228.5732 376.9877 232.9595 353 238.1333 C330.2152 243.0477 318.8869 245.3215 301 238.1333 C276.137 228.1417 263.3072 209.9231 246 195.1333 C245.3552 194.5823 246.7425 192.1941 246 191.1333 C238.4447 180.3401 233.7898 178.3181 225 165.1333 C221.4108 159.7496 223.1554 157.5836 220 152.1333 C218.1193 148.8848 214 146.1333 214 146.1333 "/>
<path id="3" d="M189 152.1333 C189 152.1333 189.8921 163.9985 194 171.1333 C198.1421 178.3274 200.3126 180.8004 208 185.1333 C225.7628 195.1451 229.0359 195.5996 249 202.1333 C255.1428 204.1437 263 203.1333 263 203.1333 "/>
<path id="4" d="M262 206.1333 C262 206.1333 251.0722 218.8988 251 219.1333 C250.9905 219.1642 257.2608 218.8165 258 219.1333 C258.1358 219.1915 257.9716 222.1286 258 222.1333 C258.3222 222.187 264 220.1333 264 220.1333 "/>
<path id="5" d="M258 211.1333 C258 211.1333 256.2841 225.1814 260 234.1333 C265.9725 248.5216 268.9388 251.9077 280 264.1333 C286.5053 271.3234 289.0603 272.5091 298 276.1333 C305.9041 279.3377 316.6937 279.6198 317 279.1333 C317.9822 277.5734 315 249.1333 315 249.1333 "/>
<path id="6" d="M292 93.1333 C292 93.1333 298.6723 84.6769 305 81.1333 C309.2099 78.7758 312.1445 81.2444 317 79.1333 C322.4624 76.7584 322.8436 72.1462 328 71.1333 C346.6994 67.4602 367.3403 67.149 373 68.1333 C373.3707 68.1978 374.5402 75.0816 374 79.1333 C373.7813 80.7739 372.7704 82.2113 371 83.1333 C351.5184 93.28 326 104.1333 326 104.1333 "/>
<path id="7" d="M298 91.1333 L290 98.1333 "/>
<path id="8" d="M298 111.1333 C298 111.1333 296.1685 116.9087 293 121.1333 C287.5272 128.4304 287.1082 130.933 280 135.1333 C267.272 142.6544 263.9733 143.7432 249 147.1333 C239.2301 149.3454 227 147.1333 227 147.1333 "/>
<path id="9" d="M297 105.1333 C297 105.1333 297.7109 112.2897 297 115.1333 C296.8045 115.9153 294 117.1333 294 117.1333 "/>
<path id="10" d="M284 140.1333 C284 140.1333 283.785 144.7033 285 147.1333 C286.215 149.5633 287.2209 150.577 290 152.1333 C298.9216 157.1294 299.9465 157.8727 310 161.1333 C317.884 163.6903 318.5659 163.5162 327 164.1333 C338.7552 164.9935 343.844 164.959 351 164.1333 C351.6995 164.0526 353 161.1333 353 161.1333 "/>
<path id="11" d="M361 113.1333 C361 113.1333 361.7109 120.2897 361 123.1333 C360.8045 123.9153 358.2412 124.3295 358 125.1333 C357.3347 127.3508 358.6653 130.9158 358 133.1333 C357.7588 133.9372 355.1782 134.361 355 135.1333 C354.2718 138.2888 356.2793 142.0823 355 146.1333 C353.8493 149.7773 350.4524 150.5023 349 154.1333 C348.0224 156.5773 350.0624 158.7429 349 161.1333 C346.7909 166.1039 341 172.1333 341 172.1333 "/>
<path id="12" d="M355 149.1333 C355 149.1333 354.4958 160.2876 357 163.1333 C361.5445 168.2975 367.6272 172.415 377 174.1333 C394.0286 177.2552 401.0577 177.7922 417 174.1333 C426.6503 171.9185 438 160.1333 438 160.1333 "/>
<path id="13" d="M300 160.1333 C300 160.1333 299.3329 172.9659 303 179.1333 C308.1693 187.8271 311.9089 189.6297 322 197.1333 C330.7808 203.6626 332.3977 205.6284 342 208.1333 C353.0262 211.0097 360.455 212.2199 368 209.1333 C375.5986 206.0248 378.9442 199.7548 386 190.1333 C389.0531 185.97 390 179.1333 390 179.1333 "/>
<path id="14" d="M298 156.1333 C298 156.1333 298.8733 159.7505 298 161.1333 C294.2309 167.1011 292.6743 169.919 286 175.1333 C277.6799 181.6334 276.0482 181.9958 266 186.1333 C259.759 188.7031 252 189.1333 252 189.1333 "/>
<path id="15" d="M320 201.1333 C320 201.1333 321.6673 229.4524 321 245.1333 C320.9525 246.2491 318 248.1333 318 248.1333 "/>
<path id="16" d="M395 204.1333 C395 204.1333 403.9957 210.1076 404 210.1333 C404.0008 210.1379 398.6944 211.3458 396 210.1333 C390.5944 207.7008 384 201.1333 384 201.1333 "/>
<path id="17" d="M316 168.1333 C316 168.1333 315.1996 171.5324 316 173.1333 C318.0011 177.1356 318.9574 179.0609 323 182.1333 C330.4777 187.8164 332.5605 190.4785 341 192.1333 C354.9525 194.8691 363.3389 195.378 374 192.1333 C379.5764 190.4362 382.8617 184.6363 387 178.1333 C388.6046 175.6118 388 170.1333 388 170.1333 "/>
<path id="18" d="M383 119.1333 C383 119.1333 378.6676 120.1878 377 122.1333 C373.6941 125.9903 372.9202 128.0127 371 133.1333 C370.2754 135.0657 371.2155 137.5945 371 138.1333 C370.9655 138.2195 369.003 138.1059 369 138.1333 C368.753 140.3559 367.7954 149.207 369 156.1333 C369.3812 158.325 370.979 160.2824 373 161.1333 C378.3836 163.4001 380.5757 163.5622 388 164.1333 C399.6989 165.0332 404.0433 166.634 412 164.1333 C416.793 162.627 418.5758 156.6095 423 153.1333 C423.6757 152.6024 425.6935 153.5165 426 153.1333 C427.7879 150.8984 431 143.1333 431 143.1333 "/>
<path id="19" d="M288 125.1333 C288 125.1333 286.7468 131.7472 288 136.1333 C289.3345 140.8042 290.8544 144.2984 294 146.1333 C299.4051 149.2863 303.112 149.3927 312 150.1333 C326.5439 151.3453 336.9437 153.0606 342 150.1333 C345.495 148.1099 347.2834 138.9996 350 128.1333 C351.613 121.6815 351 114.1333 351 114.1333 "/>
<path id="20" d="M230 134.1333 C230 134.1333 250.2953 139.0719 261 136.1333 C269.5748 133.7795 271.5905 128.4973 281 120.1333 C284.8799 116.6845 285.9808 115.5948 288 112.1333 C288.6684 110.9875 288 108.1333 288 108.1333 "/>
<path id="21" d="M223 161.1333 C223 161.1333 228.6102 158.5703 234 158.1333 C246.464 157.1227 249.788 159.9354 260 158.1333 C263.558 157.5054 264.369 153.5857 268 152.1333 C270.444 151.1557 274.191 152.3645 275 152.1333 C275.066 152.1145 275 150.1333 275 150.1333 C275.0001 150.1337 279.2355 166.5077 278 168.1333 C276.1358 170.5862 266.9081 172.7748 256 175.1333 C248.941 176.6596 243.0265 175.5929 241 176.1333 C240.8938 176.1616 241 179.1333 241 179.1333 "/>
<path id="22" d="M296 189.1333 C296 189.1333 290.2359 189.1477 286 191.1333 C275.1197 196.2335 264 204.1333 264 204.1333 "/>
<path id="23" d="M296 186.1333 C296 186.1333 296.6963 193.0617 299 196.1333 C301.3977 199.3303 307.5092 199.843 308 202.1333 C310.2284 212.5327 308 238.1333 308 238.1333 "/>
<path id="24" d="M337 222.1333 C337 222.1333 335 222.1333 335 222.1333 C335 223.668 336.9999 238.1334 337 238.1333 C337.0001 238.1332 336.2518 219.3788 337 219.1333 C344.7594 216.5873 401 217.1333 401 217.1333 "/>
<path id="25" d="M383 231.1333 C383 231.1333 386.248 242.9399 390 247.1333 C392.0135 249.3837 398.6025 250.6923 400 250.1333 C401.3657 249.587 404.0807 245.3622 405 241.1333 C406.276 235.2639 405 227.1333 405 227.1333 "/>
<path id="26" d="M400 120.1333 C400 120.1333 415.6366 105.709 427 98.1333 C428.6363 97.0424 431.9125 97.4083 433 98.1333 C434.2687 98.9792 435.6151 101.3107 436 104.1333 C436.9609 111.18 437.6626 114.1953 436 120.1333 C434.8611 124.2009 429 129.1333 429 129.1333 "/>
<path id="27" d="M161 112.1333 C161 112.1333 155.7125 111.3936 153 112.1333 C151.7054 112.4864 150 114.4281 150 115.1333 C150 116.779 152.986 122.1298 153 122.1333 C153.0015 122.1337 153.6295 116.5038 154 116.1333 C154.1588 115.9745 158 117.1333 158 117.1333 "/>
<path id="28" d="M158 113.1333 L158 116.1333 "/>
<path id="29" d="M129 118.1333 L136 118.1333 "/>
</g>
</g>
</svg>
