<?xml version="1.0" encoding="utf-8"?>
<!DOCTYPE svg PUBLIC "-//W3C//DTD SVG 1.1//EN" "http://www.w3.org/Graphics/SVG/1.1/DTD/svg11.dtd">
<svg viewBox="0 0 800 800" preserveAspectRatio="xMinYMin meet" xmlns="http://www.w3.org/2000/svg" version="1.1">
<g fill="none" stroke="black" stroke-linecap="round" stroke-linejoin="round" stroke-width="1.2577">
<g transform="translate(87.52,122.1075) scale(2.3853) translate(-193,-80)">
<path id="0" d="M315 147 C315 147 293.3812 145.379 277 148 C271.3679 148.9011 269.4854 150.7096 265 155 C258.9186 160.817 260.0987 163.2479 254 170 C246.3313 178.4903 242.2985 177.6107 237 186 C231.7641 194.2902 234.9593 198.0813 230 208 C220.373 227.2539 215.2212 228.8427 207 246 C205.3229 249.5 205.4919 252.0966 207 256 C213.1182 271.8353 216.3599 283.2916 224 290 C228.1999 293.6877 238.1991 289.9722 248 292 C250.3395 292.484 251.0215 295.9253 253 296 C271.4078 296.6946 283.7755 298.2355 301 294 C306.7531 292.5853 307.0246 286.6675 314 281 C322.7517 273.8893 326.5167 275.0019 333 268 C337.1443 263.5242 335.3283 260.2944 339 254 C342.0773 248.7247 344.2832 248.8299 347 244 C348.2296 241.8141 347.5594 238.8813 348 238 C348.0678 237.8644 349.9507 238.1233 350 238 C350.666 236.335 349.8623 231.8982 352 228 C357.6301 217.7333 363.9928 216.623 367 207 C370.1609 196.8853 368.886 192.3935 367 180 C365.5984 170.7897 364.9286 168.5001 360 161 C354.4627 152.5737 351.0012 147.3834 344 145 C333.8802 141.555 313 145 313 145 "/>
<path id="1" d="M330 143 C330 143 333.0824 138.2053 337 135 C343.7047 129.5144 344.4884 129.0973 352 125 C354.9713 123.3793 355.7492 123 359 123 C367.8236 123 376.5508 123.261 378 125 C379.8555 127.2266 381.1369 139.7345 379 147 C377.5001 152.0996 372.4552 152.7627 368 159 C365.3397 162.7244 364 168 364 168 "/>
<path id="2" d="M370 199 C370 199 382.9037 198.5921 395 196 C410.5332 192.6715 410.8184 189.6791 426 187 C435.3172 185.3558 438.7742 186.3431 446 187 C446.7883 187.0717 447.7033 187.9782 448 189 C451.5673 201.2875 453.5062 203.7025 455 218 C456.9092 236.2738 457.2628 238.1805 455 256 C453.4508 268.1997 450.1806 274.1087 447 281 C446.6845 281.6836 443.0195 282.0501 443 282 C442.2921 280.1798 442.7882 271.7629 440 263 C436.0178 250.4845 435.642 248.1075 429 238 C425.3139 232.3907 423.1153 231.6136 417 228 C412.98 225.6246 411.8544 225.2601 407 225 C385.0228 223.8227 382.9772 223.8227 361 225 C356.1456 225.2601 351 228 351 228 "/>
<path id="3" d="M325 276 C325 276 326.2426 297.0297 325 302 C324.8208 302.7169 318.6416 304.5213 318 304 C315.4708 301.945 309 289 309 289 "/>
<path id="4" d="M276 150 C276 150 276.9981 141.7632 276 134 C272.5591 107.2378 268.9525 82.7713 267 80 C266.822 79.7474 253.0099 83.4277 245 90 C235.7049 97.6267 237.0534 101.9766 228 112 C223.4108 117.0809 220.4155 116.3646 217 121 C214.5618 124.3089 213.7216 129.1906 214 131 C214.11 131.715 216.6873 133.5919 219 134 C224.0191 134.8857 226.3454 135.3299 231 134 C235.1559 132.8126 235.8464 129.1328 240 128 C245.0766 126.6155 249.0521 126.8389 253 128 C254.6613 128.4886 256.1967 130.59 257 133 C258.3107 136.9321 256.4095 138.9354 258 143 C260.469 149.3095 266 156 266 156 "/>
<path id="5" d="M219 229 C219 229 210.8408 229.632 204 232 C198.4223 233.9307 194.4627 235.8059 193 238 C192.0858 239.3713 193.2355 246.4266 194 247 C195.0851 247.8138 205 247 205 247 "/>
<path id="6" d="M231 292 C231 292 230.9991 312.9932 231 313 C231.0002 313.0019 231.3322 308.9805 233 307 C238.3804 300.6108 247 294 247 294 "/>
<path id="7" d="M296 161 C296 161 284.6675 160.3072 280 163 C275.2383 165.7471 273.1642 170.3044 270 176 C269.1474 177.5347 269.444 180.2217 270 181 C270.6195 181.8673 272.5995 182.7176 275 183 C280.5024 183.6473 281.7622 183.873 287 183 C289.8371 182.5271 290.867 181.9552 293 180 C296.2503 177.0206 295.6773 175.0671 299 172 C301.6543 169.5498 305.4635 169.073 306 168 C306.3577 167.2847 304.8917 162.535 304 162 C302.7261 161.2357 296 162 296 162 "/>
<path id="8" d="M257 188 C257 188 268.68 189.3029 270 191 C271.5885 193.0423 272.1904 204.8096 271 206 C268.7892 208.2108 251.1676 211.7615 250 211 C249.0098 210.3542 247.4588 192.8041 248 191 C248.067 190.7768 256 191 256 191 "/>
<path id="9" d="M244 217 C244 217 241.6866 216.4719 241 217 C236.951 220.1146 233.0874 222.6166 231 227 C229.4446 230.2664 230.0704 237.2344 231 238 C232.9981 239.6455 244.7879 242.4913 248 241 C251.7928 239.2391 255.805 232.2614 259 225 C260.3798 221.8641 259.5514 216.4511 259 216 C258.1764 215.3261 248 216 248 216 "/>
<path id="10" d="M244 218 L248 218 "/>
<path id="11" d="M334 175 C334 175 331.8783 179.1579 329 181 C320.4043 186.5012 313.5538 186.6631 309 191 C307.3768 192.5459 307.2605 200.1261 308 201 C309.0626 202.2558 314.5346 204 320 204 C327.2873 204 334.2775 203.0096 336 201 C338.0316 198.6298 338 190.614 338 183 C338 181.308 337.1944 180.0238 336 179 C334.5227 177.7337 331 177 331 177 "/>
<path id="12" d="M279 193 C279 193 277.8703 203.5879 279 205 C280.1862 206.4827 285.0885 207.2289 291 208 C296.2477 208.6845 301.019 208.8175 302 208 C302.8324 207.3064 304.0486 199.4855 303 198 C301.1749 195.4144 295.8618 192.4068 290 191 C285.3041 189.873 278 192 278 192 "/>
<path id="13" d="M305 181 C305 181 315.1684 183.1206 321 181 C328.7865 178.1685 332.7425 174.2575 338 169 C339.2691 167.7309 339.0641 163.0192 339 163 C337.3185 162.4955 327.705 162.2535 318 163 C315.6182 163.1832 314.0066 163.6273 313 165 C309.909 169.215 307 178 307 178 "/>
<path id="14" d="M312 210 C312 210 332.8246 210.8407 336 213 C337.2828 213.8723 337.768 222.3922 337 227 C336.7409 228.5545 334.9093 230.4272 333 231 C326.9049 232.8285 319.146 234.073 317 233 C315.5693 232.2847 314.0633 226.8479 313 221 C312.1646 216.4052 313 211 313 211 "/>
<path id="15" d="M283 215 C283 215 275.4536 213.9093 270 215 C266.7278 215.6544 263.4133 217.5536 263 219 C261.8488 223.0293 262.4806 231.6588 264 236 C264.4466 237.2761 267.1531 238.4306 270 239 C273.8822 239.7764 277.5782 239.9479 279 239 C280.3165 238.1223 279.8897 233.9544 282 231 C284.2887 227.7959 287.6109 227.5798 289 225 C289.9954 223.1515 289.5404 219.0807 289 218 C288.7684 217.5368 285 217 285 217 "/>
<path id="16" d="M299 229 C299 229 298.6041 233.5939 297 236 C295.2676 238.5986 291.9219 238.849 291 241 C289.9042 243.5569 290.4094 249.6063 291 250 C292.5421 251.0281 300.9432 251.5619 306 251 C307.1321 250.8742 308.6586 249.3654 309 248 C310.2061 243.1755 311.0509 237.5522 310 235 C309.3911 233.5212 305.8 231.95 302 231 C298.6223 230.1556 294 231 294 231 "/>
<path id="17" d="M236 246 C236 246 227.3269 245.051 221 246 C218.7012 246.3448 216.9929 247.5106 216 249 C214.9548 250.5678 214.4467 252.7869 215 255 C216.0825 259.33 218.1086 264.2262 220 265 C223.4519 266.4121 230.6876 265.2625 237 264 C238.3212 263.7358 239.5066 262.4803 240 261 C241.5626 256.3123 242.5096 249.9463 242 249 C241.7273 248.4935 233 248 233 248 "/>
<path id="18" d="M273 244 C273 244 261.9503 243.255 260 245 C257.1485 247.5514 253.6202 260.5117 254 261 C254.5883 261.7564 268.3365 263.4925 274 263 C274.9563 262.9168 276.6861 260.779 277 259 C277.9011 253.894 277.6183 247.3396 277 246 C276.8683 245.7146 271 246 271 246 "/>
<path id="19" d="M302 260 C302 260 288.0459 260.9541 286 263 C284.1695 264.8305 283.3979 277.5621 284 278 C285.6712 279.2154 305.9511 280.3933 308 279 C309.1633 278.209 309.9715 263.7756 309 261 C308.7358 260.2452 301 259 301 259 "/>
<path id="20" d="M249 268 C249 268 240.2467 269.6286 239 271 C238.1751 271.9074 238.0629 276.7508 239 279 C239.7126 280.7103 241.6832 282.4735 244 283 C250.7544 284.5351 259.3274 284.9292 261 284 C261.7233 283.5982 262.9393 275.0128 262 273 C261.3104 271.5223 254 269 254 269 "/>
<path id="21" d="M253 268 L250 268 "/>
<path id="22" d="M348 133 L349 133 "/>
<path id="23" d="M368 146 L368 148 "/>
</g>
</g>
</svg>
