<?xml version="1.0" encoding="utf-8"?>
<!DOCTYPE svg PUBLIC "-//W3C//DTD SVG 1.1//EN" "http://www.w3.org/Graphics/SVG/1.1/DTD/svg11.dtd">
<svg viewBox="0 0 800 800" preserveAspectRatio="xMinYMin meet" xmlns="http://www.w3.org/2000/svg" version="1.1">
<g fill="none" stroke="black" stroke-linecap="round" stroke-linejoin="round" stroke-width="1.8577">
<g transform="translate(87.52,150.5005) scale(1.6149) translate(-144,-67)">
<path id="0" d="M264 150 C264 150 253.0451 156.4521 245 165 C221.6707 189.7873 222.1359 191.2183 200 218 C181.6532 240.1974 180.6089 239.9509 164 263 C156.422 273.5164 156.7374 274.5252 151 286 C149.4441 289.1118 149.0884 289.6427 149 293 C148.612 307.7447 146.1431 313.7148 150 324 C152.8735 331.6626 157.7747 334.081 167 341 C179.0937 350.0703 181.2956 354.3337 194 357 C216.686 361.7613 224.7346 361.3236 248 358 C258.6761 356.4748 262.5333 353.9612 271 346 C293.7093 324.6464 294.271 321.3824 315 295 C349.1215 251.5726 381 206 381 206 "/>
<path id="1" d="M151 291 C151 291 146.6362 303.0788 145 315 C143.2112 328.0323 141.2407 332.873 144 342 C146.0911 348.9168 150.2971 351.4299 158 358 C166.6617 365.3879 167.7975 366.0366 178 371 C185.5314 374.6639 186.7164 375.4326 195 376 C221.7483 377.8321 226.564 379.2581 251 376 C259.8726 374.817 261.6978 372.1436 270 366 C286.0321 354.1362 287.5452 353.678 301 339 C314.3536 324.4324 313.8232 322.9085 325 306 C333.2149 293.5723 332.542 290.8141 340 280 C341.3232 278.0814 343.7805 278.7615 345 277 C347.41 273.5189 346.0889 271.1055 349 267 C364.834 244.67 365.5433 243.2721 384 222 C394.7319 209.631 408 199 408 199 "/>
<path id="2" d="M253 358 L253 371 "/>
<path id="3" d="M226 192 C226 192 225.577 189.5076 226 189 C227.0105 187.7873 228.731 186.2431 231 186 C240.807 184.9493 245.0966 183.3083 254 186 C263.2635 188.8006 263.7102 193.5843 274 199 C282.3126 203.375 285.3554 202.2031 292 206 C293.769 207.0109 293.0415 209.2653 295 211 C309.5079 223.8498 313.7792 223.1643 327 237 C333.896 244.2167 334.9536 247.1379 338 256 C339.7384 261.0571 338 269 338 269 "/>
<path id="4" d="M266 150 C266 150 275.8665 148.7402 285 150 C304.278 152.659 305.637 152.5233 324 158 C333.1776 160.7372 333.5121 161.8626 342 167 C352.3075 173.2387 353.3927 173.2257 362 181 C368.2343 186.631 369.3016 187.8498 373 195 C376.2061 201.1985 377 210 377 210 "/>
<path id="5" d="M266 151 C266 151 268.8422 147.4958 272 146 C277.6204 143.3377 278.6433 142.8202 285 142 C293.4655 140.9077 294.6315 140.5123 303 142 C316.214 144.3492 318.0272 143.9448 330 150 C360.1603 165.2535 361.5139 167.5678 390 186 C394.5063 188.9158 396.9288 190.5187 398 194 C399.843 199.9899 398 212 398 212 "/>
<path id="6" d="M295 157 C295 157 285.0929 162.8916 279 170 C274.0149 175.816 271 185 271 185 "/>
<path id="7" d="M341 176 C341 176 330.5895 182.1805 323 190 C314.6658 198.5868 308 210 308 210 "/>
<path id="8" d="M338 151 C338 151 341.2818 141.3305 346 138 C355.2748 131.4531 364.5286 132.4103 372 127 C374.2528 125.3687 372.7993 121.4014 375 117 C378.0618 110.8763 378.1381 108.8107 383 105 C394.8225 95.7337 397.0795 92.8005 412 88 C452.0114 75.1268 455.4238 76.0549 498 68 C509.9449 65.7402 523 67 523 67 "/>
<path id="9" d="M343 158 C343 158 344.5458 152.5449 347 149 C348.5559 146.7526 349.4747 145.8418 352 145 C358.7784 142.7405 360.7432 144.5023 368 142 C374.5664 139.7357 375.0135 138.7416 381 135 C382.6797 133.9502 383.4257 133.5589 384 132 C386.4446 125.3645 384.656 120.6444 388 116 C391.3794 111.3064 394.7887 109.4038 402 107 C421.6543 100.4486 424.7421 103.5348 445 97 C454.7402 93.858 454.8802 89.0064 464 87 C477.4302 84.0454 480.1003 87.8245 495 86 C503.9105 84.9089 504.0484 82.4919 513 81 C521.6347 79.5609 531 80 531 80 "/>
<path id="10" d="M161 342 L161 356 "/>
<path id="11" d="M188 356 L189 367 "/>
<path id="12" d="M221 364 L222 371 "/>
<path id="13" d="M290 337 L290 343 "/>
<path id="14" d="M311 303 L313 306 "/>
<path id="15" d="M333 279 L333 285 "/>
</g>
</g>
</svg>
