<?xml version="1.0" encoding="utf-8"?>
<!DOCTYPE svg PUBLIC "-//W3C//DTD SVG 1.1//EN" "http://www.w3.org/Graphics/SVG/1.1/DTD/svg11.dtd">
<svg viewBox="0 0 800 800" preserveAspectRatio="xMinYMin meet" xmlns="http://www.w3.org/2000/svg" version="1.1">
<g fill="none" stroke="black" stroke-linecap="round" stroke-linejoin="round" stroke-width="1.7329">
<g transform="translate(87.52,177.5419) scale(1.7312) translate(-256,-148.1333)">
<path id="0" d="M269 163.1333 C269 163.1333 261.7101 178.7063 259 194.1333 C255.3988 214.6326 256.3692 216.0907 256 237.1333 C255.8803 243.9589 256.0785 244.5282 258 251.1333 C263.9394 271.5501 267.0447 271.4504 272 292.1333 C278.3856 318.7861 275.0986 334.2767 281 347.1333 C282.4692 350.3341 290.6426 351.9203 300 353.1333 C316.6208 355.2879 317.7295 354.8735 335 354.1333 C352.3764 353.3886 353.173 353.5558 370 350.1333 C382.0409 347.6843 393.0554 344.9198 394 342.1333 C396.9061 333.5602 388.5151 315.3862 390 291.1333 C391.3929 268.3823 396.903 267.3609 400 244.1333 C401.7941 230.6774 401.3552 229.0073 400 216.1333 C399.4956 211.3419 398.437 210.8448 396 206.1333 C391.0147 196.4951 391.5971 195.1736 385 187.1333 C376.236 176.4522 375.2327 175.2591 364 167.1333 C352.5584 158.8564 351.1211 159.0378 338 153.1333 C331.5816 150.2451 330.8421 149.67 324 149.1333 C306.3138 147.7462 301.361 145.7389 287 149.1333 C278.8209 151.0666 269 162.1333 269 162.1333 "/>
<path id="1" d="M304 148.1333 C304 148.1333 306.7714 171.1183 312 193.1333 C316.1932 210.7888 320.5416 210.9245 323 228.1333 C326.3035 251.2577 324.8821 261.843 324 277.1333 C323.9418 278.1427 322.0512 279.5778 320 280.1333 C300.092 285.5251 276.0001 290.1333 276 290.1333 C275.9999 290.1333 287.9737 289.7878 299 287.1333 C314.528 283.3951 314.7563 279.4303 330 277.1333 C349.7661 274.1549 351.373 277.7704 372 276.1333 C382.4497 275.304 393 272.1333 393 272.1333 "/>
<path id="2" d="M325 259.1333 C325 259.1333 322.9925 273.1158 323 273.1333 C323.0028 273.1398 328 266.1333 328 266.1333 "/>
<path id="3" d="M331 257.1333 L331 256.1333 "/>
<path id="4" d="M331 256.1333 C331 256.1333 325.8942 255.8219 324 257.1333 C321.1586 259.1004 318.7429 262.1617 318 265.1333 C317.4135 267.4794 318.8545 272.2742 320 273.1333 C321.5393 274.2878 327.1397 275.1429 330 274.1333 C332.808 273.1423 335.7326 270.2114 337 267.1333 C338.2825 264.0187 338.0939 259.6859 337 257.1333 C336.2811 255.456 333.7713 253.986 331 253.1333 C328.3171 252.3078 326.8902 252.2833 324 253.1333 C319.2639 254.5263 316.3659 255.2604 314 258.1333 C311.266 261.4531 309.7509 269.8344 310 270.1333 C310.3353 270.5357 322.5354 271.1098 324 270.1333 C324.8021 269.5986 325 260.1333 325 260.1333 "/>
<path id="5" d="M325 259.1333 L325 257.1333 "/>
<path id="6" d="M325 257.1333 C325 257.1333 321.8028 255.7319 321 256.1333 C318.9357 257.1655 315.1916 260.4093 315 262.1333 C314.668 265.1217 316.7514 270.9852 319 274.1333 C319.9514 275.4652 323.0343 276.312 325 276.1333 C326.7814 275.9714 329.4116 274.5064 330 273.1333 C331.3077 270.0821 331.5491 264.5126 331 262.1333 C330.851 261.4875 327 260.1333 327 260.1333 "/>
<path id="7" d="M350 354.1333 C350 354.1333 348 356.4635 348 358.1333 C348 364.3952 349.1783 372.6814 350 373.1333 C351.2667 373.83 359.2982 370.0035 368 369.1333 C373.6278 368.5705 376.1743 368.1373 380 370.1333 C385.1142 372.8016 385.3513 376.9711 391 381.1333 C394.0189 383.3578 395.2362 384.0273 399 384.1333 C428.3166 384.9592 448.6877 382.7173 462 383.1333 C462.2312 383.1406 462.1851 385.5102 463 386.1333 C468.8498 390.6067 470.8367 391.5075 479 396.1333 C485.7692 399.9692 485.9772 400.6051 493 403.1333 C497.9822 404.9269 498.8579 405.3106 504 405.1333 C512.5161 404.8397 513.8118 404.9293 522 402.1333 C533.5159 398.2011 534.7074 394.3498 545 391.1333 C548.3822 390.0764 551.2431 390.4267 554 392.1333 C559.5683 395.5804 560.7243 402.023 566 404.1333 C571.6526 406.3944 575.4063 405.0223 584 404.1333 C589.3999 403.5747 589.8103 401.2955 595 401.1333 C604.7946 400.8273 612.5899 403.4433 616 403.1333 C616.2234 403.113 617 399.1333 617 399.1333 "/>
</g>
</g>
</svg>
