<?xml version="1.0" encoding="utf-8"?>
<!DOCTYPE svg PUBLIC "-//W3C//DTD SVG 1.1//EN" "http://www.w3.org/Graphics/SVG/1.1/DTD/svg11.dtd">
<svg viewBox="0 0 800 800" preserveAspectRatio="xMinYMin meet" xmlns="http://www.w3.org/2000/svg" version="1.1">
<g fill="none" stroke="black" stroke-linecap="round" stroke-linejoin="round" stroke-width="2.1457">
<g transform="translate(188.1847,87.52) scale(1.3981) translate(-65,-33)">
<path id="0" d="M173 69 C173 69 166.0571 72.4486 161 77 C156.5223 81.0299 156.2442 81.7593 153 87 C149.9417 91.9403 148.9741 92.7399 148 98 C146.6931 105.057 145.9237 107.6113 148 114 C151.6628 125.27 153.3591 127.0163 161 138 C177.0358 161.0514 179.8629 159.9961 196 183 C203.0574 193.0605 203.1632 193.7141 208 205 C213.4987 217.8303 213.4671 218.4119 217 232 C219.8947 243.1336 220.0868 243.5849 221 255 C222.0573 268.2165 223.6388 269.9367 221 282 C217.0845 299.8994 214.6885 302.0853 207 319 C205.2753 322.7943 201 326 201 326 "/>
<path id="1" d="M146 103 C146 103 146.8814 110.2109 145 115 C141.9745 122.7012 135.4594 127.1716 135 131 C134.782 132.8163 139.4518 135.1867 142 140 C148.1817 151.6766 149.2301 152.3015 153 165 C158.5183 183.5879 159.3023 184.5422 161 204 C165.7227 258.1299 161.4561 263.191 166 314 C166.5569 320.2272 168.2467 321.7453 172 327 C175.1329 331.3861 177.0305 333.0153 181 335 C183.1374 336.0687 185.342 336.0401 188 335 C195.4126 332.0994 198.3492 329.9888 204 326 C204.7881 325.4437 205 323 205 323 "/>
<path id="2" d="M174 70 C174 70 176.9983 75.599 181 78 C195.4468 86.6681 199.889 84.1223 214 94 C228.4303 104.1012 229.9739 105.9242 241 120 C252.6146 134.8271 254.0807 136.83 261 154 C266.8929 168.6231 268 187 268 187 "/>
<path id="3" d="M181 64 C181 64 190.0575 62.4001 196 64 C201.1045 65.3743 201.9037 67.1171 207 71 C212.2597 75.0074 212.8386 75.1042 217 80 C221.0306 84.7419 219.7125 86.5934 224 91 C237.0513 104.4138 243.2288 102.6197 253 117 C267.6034 138.4918 268.8093 144.4279 277 169 C279.7302 177.1907 277.6881 186.7064 277 189 C276.9381 189.2064 271 189 271 189 "/>
<path id="4" d="M177 68 L181 63 "/>
<path id="5" d="M182 63 C182 63 190.5219 54.8903 199 52 C210.5889 48.0492 212.7978 48.5177 226 48 C237.6294 47.5439 241.3001 45.9723 250 50 C264.1875 56.5683 266.1889 61.0553 280 73 C284.0924 76.5394 282.9552 78.2831 287 82 C301.0316 94.8939 303.1358 93.7257 317 107 C326.292 115.8966 327.1748 116.3011 334 127 C345.2316 144.6062 344.9694 145.855 354 165 C357.3048 172.0061 357.2226 172.4058 359 180 C362.6717 195.688 363.3448 196 365 212 C367.8064 239.1289 370.3057 241.1254 368 267 C366.0172 289.2518 363.1687 290.8113 356 313 C352.8513 322.746 352.2092 323.0402 347 332 C339.8411 344.3132 340.0046 345.4517 331 356 C323.0568 365.3049 321.8171 369.0983 312 373 C287.3913 382.7804 281.8029 382.6461 253 387 C240.3467 388.9127 237.7786 388.7567 226 386 C216.3378 383.7386 215.1481 381.8446 206 376 C197.5741 370.6168 196.8971 370.1434 190 363 C183.3119 356.0731 181.1003 354.2341 178 347 C176.2403 342.8941 178 335 178 335 "/>
<path id="6" d="M173 70 C173 70 170.0799 64.0799 166 60 C159.5202 53.5202 158.5803 52.5482 151 48 C146.9708 45.5825 145.4808 45 141 45 C133.3826 45 130.7888 44.6845 124 48 C111.209 54.2468 108.7954 56.554 98 66 C94.1861 69.3372 94.065 70.7768 92 76 C85.7662 91.7678 85.0237 92.4024 81 109 C77.1404 124.9207 77.439 125.5951 76 142 C74.9672 153.7744 74.8805 154.2457 76 166 C77.8458 185.3805 77.787 185.8658 82 205 C89.7282 240.099 95.7285 240.2454 100 275 C106.4767 327.6965 103.5846 330.4197 104 384 C104.0761 393.817 103.4968 394.4669 101 404 C98.1057 415.0509 97.7152 415.6266 93 426 C90.3916 431.7385 88.3798 431.2204 86 437 C78.1546 456.053 72 477 72 477 "/>
<path id="7" d="M179 63 C179 63 172.4875 50.3399 165 40 C162.499 36.5462 161.0963 34.5557 158 34 C145.664 31.7858 138.3575 29.748 126 33 C114.6262 35.9931 110.8514 39.5864 101 49 C89.801 59.7013 89.1479 61.9264 81 76 C73.0745 89.6896 70.042 91.4508 68 106 C62.5832 144.5946 65.8774 148.3213 65 190 C64.8854 195.4434 64.6641 195.8047 66 201 C77.9488 247.4675 85.7264 248.6198 92 295 C99.2871 348.8728 95.9498 353.7943 94 408 C93.5467 420.6009 91.9106 421.8081 87 434 C77.652 457.2087 65 480 65 480 "/>
<path id="8" d="M276 188 C276 188 290.4157 206.1406 293 223 C300.0516 269.0034 297 325 297 325 "/>
</g>
</g>
</svg>
