<?xml version="1.0" encoding="utf-8"?>
<!DOCTYPE svg PUBLIC "-//W3C//DTD SVG 1.1//EN" "http://www.w3.org/Graphics/SVG/1.1/DTD/svg11.dtd">
<svg viewBox="0 0 800 800" preserveAspectRatio="xMinYMin meet" xmlns="http://www.w3.org/2000/svg" version="1.1">
<g fill="none" stroke="black" stroke-linecap="round" stroke-linejoin="round" stroke-width="1.9777">
<g transform="translate(109.515,87.52) scale(1.5169) translate(-64,0)">
<path id="0" d="M138 214 C138 214 135.3675 199.0603 137 186 C138.6984 172.4126 139.5818 170.0403 145 158 C147.8291 151.7131 149.3386 150.1174 155 146 C164.5914 139.0244 166.9455 136.6613 178 134 C191.3397 130.7886 193.595 132.5284 209 133 C242.3885 134.0221 243.0493 137.5538 276 137 C301.649 136.5689 302.6039 131.9768 328 131 C340.5858 130.5159 341.045 133.4285 354 134 C374.8213 134.9186 376.9119 131.3157 396 134 C406.5737 135.4869 407.7688 137.6152 418 143 C426.338 147.3884 428.1294 147.8742 434 154 C438.3937 158.5847 439.703 162.0715 441 167 C441.4783 168.8176 438.6957 172.4522 439 173 C439.4288 173.7718 444.4662 174.4662 446 176 C446.9203 176.9203 447.3493 179.2534 447 181 C446.5925 183.0377 444.0504 183.8818 444 186 C443.6325 201.4342 446 204.5687 446 223 C446 253.8849 447.3311 254.7429 444 285 C441.4248 308.391 437.4315 308.4696 434 332 C430.4888 356.0766 434.8747 359.0638 430 381 C427.4921 392.2857 424.6568 397.9483 418 404 C412.4649 409.0319 407.377 409.0234 397 411 C387.154 412.8754 386.4474 412 376 412 C366.5476 412 365.518 412.5774 357 411 C353.1192 410.2813 352.807 407.3701 349 407 C319.8232 404.1634 316.7853 406.4184 285 404 C270.9927 402.9342 266.9154 402.5588 257 400 C255.6229 399.6446 255.2281 396.1873 254 396 C234.6903 393.0545 222.1386 397.322 198 391 C184.3311 387.4201 181.6195 383.5861 170 374 C163.0325 368.2518 160.3015 365.288 158 358 C155.4415 349.898 159.3587 346.3262 158 336 C156.9712 328.1812 153.8304 327.8056 153 320 C151.4429 305.3632 155.3983 302.857 153 289 C151.2548 278.9167 149.0939 276.2776 144 268 C142.2134 265.0968 138.9058 265.772 137 263 C134.3295 259.1156 133.4346 257.2155 133 252 C132.0445 240.5335 132.2926 238.9517 134 227 C135.2029 218.5795 139 210 139 210 "/>
<path id="1" d="M280 139 C280 139 280.6265 165.6908 280 173 C279.9768 173.2703 277.0342 173.7007 277 174 C276.1311 181.6032 276 208 276 208 "/>
<path id="2" d="M276 206 C276 206 283.0572 208.5371 290 209 C312.5234 210.5016 318.9868 208.9367 336 210 C336.7849 210.0491 337.2447 211.978 338 212 C375.0721 213.0798 439 213 439 213 "/>
<path id="3" d="M275 206 C275 206 267.7843 209.799 261 210 C202.8565 211.7228 140 210 140 210 "/>
<path id="4" d="M276 137 C276 137 276.7487 128.246 275 123 C273.902 119.706 270.8387 119.4148 269 116 C267.8249 113.8176 269.2315 111.6009 268 110 C265.4671 106.7073 263.6465 104.4062 259 103 C228.9763 93.9139 223.6711 96.5395 192 87 C183.7488 84.5147 183.3403 83.1382 176 78 C168.6268 72.8388 166.2699 72.1677 162 66 C158.6991 61.2321 160.4942 56.7113 158 52 C157.1261 50.3493 153.8798 50.4663 153 49 C151.8856 47.1427 152.9485 42.9485 152 42 C150.8144 40.8144 147.157 41.8416 144 40 C136.0789 35.3794 135.8373 30.5591 128 28 C114.5015 23.5923 95 24 95 24 "/>
<path id="5" d="M93 24 C93 24 87.8806 24.2935 84 23 C79.5651 21.5217 78.1873 21.1873 75 18 C69.0807 12.0807 64 3 64 3 "/>
<path id="6" d="M283 135 C283 135 279.302 131.1203 279 128 C278.0229 117.9034 282.3707 106.0681 280 104 C272.5286 97.4824 255.6932 92.6271 232 87 C217.2138 83.4883 212.7438 89.3199 200 85 C187.091 80.6241 180.1033 73.5772 173 67 C171.9456 66.0237 174.0299 62.207 173 60 C171.3423 56.4478 169.83 55.1119 166 52 C162.2941 48.989 158.6717 49.0432 157 47 C156.1887 46.0084 157.8325 42.9981 157 41 C155.8784 38.3082 154.5641 35.9204 152 35 C138.7845 30.256 133.4905 32.809 118 27 C106.7484 22.7807 106.2369 17.5967 96 14 C90.2203 11.9693 85.7835 16.1603 81 14 C73.8813 10.7851 65 0 65 0 "/>
</g>
</g>
</svg>
