<?xml version="1.0" encoding="utf-8"?>
<!DOCTYPE svg PUBLIC "-//W3C//DTD SVG 1.1//EN" "http://www.w3.org/Graphics/SVG/1.1/DTD/svg11.dtd">
<svg viewBox="0 0 800 800" preserveAspectRatio="xMinYMin meet" xmlns="http://www.w3.org/2000/svg" version="1.1">
<g fill="none" stroke="black" stroke-linecap="round" stroke-linejoin="round" stroke-width="2.1985">
<g transform="translate(87.52,266.9572) scale(1.3645) translate(-182,-155)">
<path id="0" d="M274 162 C274 162 263.001 158.5099 252 157 C237.8043 155.0516 236.0436 154.0683 223 155 C216.9625 155.4313 214.7361 156.4994 210 160 C204.6472 163.9564 203.1192 165.5305 200 172 C190.3211 192.0748 188.6026 194.5235 183 216 C180.078 227.201 180.5486 230.2594 182 241 C182.7478 246.5337 184.0622 248.4059 188 253 C195.2193 261.4225 196.3252 262.3804 206 269 C224.2942 281.5171 225.2988 283.964 245 292 C261.3953 298.6876 263.8415 295.0681 282 300 C304.1587 306.0184 304.656 308.848 326 314 C332.3069 315.5224 333.5259 315.3575 340 314 C363.4573 309.0815 366.7448 309.5021 388 301 C396.8696 297.4521 398.4155 295.2899 405 288 C411.4871 280.8179 411.6157 279.0818 416 270 C418.3413 265.1501 418.5856 264.3874 419 259 C420.0332 245.5684 421.3715 243.5691 419 231 C416.7228 218.9306 415.402 216.4032 409 206 C404.3526 198.448 402.7442 196.8219 395 192 C377.672 181.2109 375.6395 181.57 356 173 C348.4493 169.7051 347.9475 168.9782 340 168 C316.3856 165.0936 314.797 167.6441 291 165 C284.0324 164.2258 277.6379 160.2381 277 161 C271.5951 167.4559 263.2796 184.1073 255 208 C246.1321 233.5903 250.354 236.6039 242 262 C238.2804 273.3075 230 284 230 284 "/>
<path id="1" d="M190 196 C190 196 193.4877 195.1961 196 196 C205.0274 198.8888 206.1603 199.089 215 204 C232.8051 213.8917 250 226 250 226 "/>
<path id="2" d="M424 256 C424 256 434.0282 254.4389 441 257 C456.3527 262.6398 459.6578 264.3812 473 274 C479.3591 278.5845 479.3878 280.5876 484 288 C493.1998 302.7853 490.954 305.8629 501 319 C509.4075 329.9944 511.5885 332.2017 523 339 C533.0155 344.9667 535.7941 345.3164 548 347 C563.4308 349.1284 564.8256 348.1553 581 347 C592.4131 346.1848 592.5853 344.0871 604 343 C613.2759 342.1166 614.5226 341.3516 623 343 C631.1923 344.593 640 350 640 350 "/>
</g>
</g>
</svg>
