<?xml version="1.0" encoding="utf-8"?>
<!DOCTYPE svg PUBLIC "-//W3C//DTD SVG 1.1//EN" "http://www.w3.org/Graphics/SVG/1.1/DTD/svg11.dtd">
<svg viewBox="0 0 800 800" preserveAspectRatio="xMinYMin meet" xmlns="http://www.w3.org/2000/svg" version="1.1">
<g fill="none" stroke="black" stroke-linecap="round" stroke-linejoin="round" stroke-width="1.0753">
<g transform="translate(87.52,94.495) scale(2.79) translate(-155,-15)">
<path id="0" d="M300 85 C300 85 298.4829 69.0577 294 58 C291.9212 52.8722 288.9087 49.7767 285 48 C281.2487 46.2949 278.1904 47.381 272 48 C268.5715 48.3429 267.7958 48.4024 265 50 C261.4194 52.046 261.2388 55.0931 258 56 C251.1791 57.9099 246.9762 55.256 240 57 C237.2286 57.6928 234.2144 60.1564 234 62 C232.5746 74.2582 232.7188 81.7504 235 100 C236.6081 112.8645 237.5096 113.7262 242 126 C244.8185 133.7039 246.9045 133.402 250 141 C252.2415 146.502 250.6113 147.9838 253 153 C255.1939 157.6071 258.5877 157.4099 260 162 C265.7954 180.8351 262.4071 185.8493 269 205 C272.1651 214.194 274.0919 217.1078 281 223 C288.9258 229.7602 292.741 232.5344 303 234 C323.829 236.9756 332.6915 236.6017 351 233 C356.7603 231.8668 360.3204 228.1764 364 222 C372.821 207.1934 376.2737 202.9868 379 186 C382.1714 166.2394 379.129 162.9999 377 141 C376.1809 132.5361 376.5003 131.0007 373 124 C368.2101 114.4201 364.2935 114.9988 359 105 C351.2071 90.2801 353.9025 87.7853 346 73 C338.7727 59.4779 334.8211 59.619 328 47 C325.6936 42.7332 327.6125 39.7625 326 36 C325.3589 34.5041 323.5768 33.0478 322 33 C310.8453 32.662 305.6133 32.4127 293 35 C288.1834 35.988 286.7613 37.8656 283 41 C281.6627 42.1145 281 45 281 45 "/>
<path id="1" d="M253 139 C253 139 251.2182 125.7096 255 119 C264.1908 102.6938 270.3281 97.6719 284 84 C286.5635 81.4365 289.2252 83.2306 293 81 C299.6259 77.0847 300.3601 71.9577 306 71 C321.2834 68.4047 346 72 346 72 "/>
<path id="2" d="M279 47 C279 47 275.641 34.3578 270 27 C265.6522 21.3289 262.396 18.6832 256 17 C246.7703 14.5711 240.5678 15.776 232 17 C230.368 17.2331 228.7034 19.2414 228 21 C227.2463 22.8842 228 27 228 27 C228.0336 27 232.2149 23.3553 233 21 C233.5803 19.2591 232.407 15.1062 232 15 C228.5091 14.0893 219.5713 13.311 210 15 C204.3187 16.0026 203.1642 17.2817 198 21 C191.1523 25.9303 188.8878 28.2151 185 33 C184.3108 33.8483 184.8276 36.931 185 37 C186.0776 37.431 194.2378 37.6098 195 37 C195.4878 36.6098 195.3333 29.1154 195 29 C191.8287 27.9022 178.4193 25.9634 169 28 C164.2706 29.0226 161.2291 32.387 158 37 C155.467 40.6186 155 48 155 48 "/>
</g>
</g>
</svg>
