<?xml version="1.0" encoding="utf-8"?>
<!DOCTYPE svg PUBLIC "-//W3C//DTD SVG 1.1//EN" "http://www.w3.org/Graphics/SVG/1.1/DTD/svg11.dtd">
<svg viewBox="0 0 800 800" preserveAspectRatio="xMinYMin meet" xmlns="http://www.w3.org/2000/svg" version="1.1">
<g fill="none" stroke="black" stroke-linecap="round" stroke-linejoin="round" stroke-width="2.5058">
<g transform="translate(87.52,270.0993) scale(1.1972) translate(-4,-106)">
<path id="0" d="M160 203 C160 203 160.8067 207.1765 160 210 C159.0616 213.2845 156.2378 214.0275 156 217 C155.4205 224.2444 158.3079 226.9935 158 235 C157.8606 238.6253 155.0014 242.9917 155 243 C154.9996 243.0023 157 241 157 241 "/>
<path id="1" d="M157 202 C157 202 152.7979 207.856 153 212 C153.6452 225.2258 159 243 159 243 "/>
<path id="2" d="M152 205 C152 205 172.1986 185.2311 194 170 C207.8377 160.3326 210.3395 162.7963 225 154 C232.4386 149.5369 233.5614 148.4386 239 143 C240.5228 141.4772 239.577 139.2041 241 138 C244.6717 134.8932 246.454 133.7212 252 132 C260.1629 129.4667 261.0881 129.2453 270 129 C314.8491 127.7656 316.0785 126.4084 361 129 C393.3431 130.8659 394.2452 131.9193 426 138 C440.6218 140.7999 441.9762 140.5798 455 147 C476.3516 157.5255 477.7568 158.7228 497 173 C507.9382 181.1155 509.699 182.4261 517 193 C523.0927 201.824 523.9757 204.6257 526 215 C527.6024 223.2121 527.7573 226.4173 525 234 C520.6633 245.9258 517.7821 246.7711 510 259 C507.3377 263.1836 507.5374 264.6037 504 267 C493.5278 274.0941 490.5371 278.8267 479 280 C438.2823 284.1408 431.5763 281.5938 386 279 C371.1397 278.1543 370.5779 277.1797 356 273 C299.4561 256.7881 299.437 253.8978 243 238 C229.0315 234.0652 226.9143 237.5439 214 233 C201.4356 228.5792 200.3443 226.941 189 219 C180.9155 213.3409 181.324 210.095 174 205 C171.2197 203.0659 166 203 166 203 "/>
<path id="3" d="M162 245 C162 245 189.2084 260.962 217 274 C229.2429 279.7436 230.7914 277.3167 243 283 C259.3292 290.6015 258.467 294.2778 275 301 C303.057 312.4078 304.7469 313.9853 334 320 C356.608 324.6484 358.0242 322.112 382 323 C398.4453 323.6091 401.1192 324.6928 415 323 C418.6215 322.5583 418.816 319.4516 423 318 C442.4114 311.2654 445.7681 314.5082 464 306 C481.5016 297.8326 483.4928 295.8005 498 283 C507.7291 274.4155 510.4639 270.8726 515 261 C517.2824 256.0324 515 246 515 246 "/>
<path id="4" d="M200 167 C200 167 191.5853 163.5944 183 162 C156.9089 157.1545 153.2497 159.9886 130 154 C123.5318 152.3339 120.0128 149.0888 117 145 C115.2589 142.637 117.785 138.5699 116 135 C112.6851 128.3701 105.4526 121.8487 105 121 C104.9863 120.9744 107.8724 120.1914 108 120 C108.0567 119.9149 107.6787 118.4319 107 118 C98.4486 112.5582 95.7538 109.6577 86 106 C81.7925 104.4222 79.5734 104.9837 75 106 C71.7201 106.7289 70.307 107.3634 68 110 C57.4334 122.0761 49.217 135.6906 47 138 C46.9945 138.0058 45.5946 135.5563 44 135 C26.5877 128.9259 4 123 4 123 "/>
<path id="5" d="M205 170 C205 170 211.0205 173.0559 217 174 C229.4574 175.967 234.1434 176 243 176 C243.6813 176 244.6667 173.9231 245 174 C247.6332 174.6077 250.4603 177.7216 256 179 C269.1831 182.0422 270.8169 179.9578 284 183 C289.5397 184.2784 289.5714 186.5838 295 188 C300.4094 189.4112 301.6897 187.5517 307 189 C311.917 190.341 311.8681 192.4604 317 194 C331.3248 198.2974 333.3027 196.3229 347 201 C352.6625 202.9335 352.3446 205.0377 358 208 C362.6639 210.443 367.9915 211.9988 368 212 C368.0027 212.0004 365 209 365 209 "/>
<path id="6" d="M271 249 C271 249 286.1784 243.6533 296 237 C299.5863 234.5706 298.4792 230.9649 302 228 C306.8991 223.8745 310.9957 224.1462 315 221 C315.8967 220.2954 315.1257 218.02 316 217 C317.3114 215.47 320.4305 215.2529 321 214 C321.8641 212.0991 320.1134 209.1031 321 206 C321.7916 203.2294 325.2295 200.8031 325 200 C324.5141 198.2994 320.3551 192.6547 317 192 C305.4198 189.7404 295.7432 193.8066 284 192 C281.5364 191.621 280.6335 187.2154 278 186 C275.8979 185.0298 273.9209 186.9389 271 186 C261.03 182.7954 260.3064 178.7177 250 177 C226.4099 173.0683 223.0579 173.6299 199 174 C192.3608 174.1021 189.5635 174.8254 185 178 C180.2828 181.2816 180.9887 184.7619 176 190 C171.2769 194.9592 165 199 165 199 "/>
<path id="7" d="M333 192 C333 192 365.1534 162.8466 382 146 C382.532 145.468 381.6169 143.4789 382 143 C382.6641 142.1699 385.5811 141.8378 386 141 C386.6283 139.7433 386.2106 135.059 386 135 C382.8308 134.1126 371.8795 135.4506 361 134 C358.6625 133.6883 358.2374 131.1598 356 131 C340.1235 129.866 336.7844 132.1115 319 131 C313.6226 130.6639 313.3692 128.2826 308 128 C285.8646 126.835 283.6891 126.2222 262 128 C254.7342 128.5956 253.2023 129.7512 247 133 C243.7815 134.6859 242.42 136.3967 241 139 C240.2343 140.4037 241.678 143.1283 241 144 C239.7194 145.6465 236.6543 145.5498 234 148 C230.6773 151.0671 228.9394 152.618 228 156 C227.0552 159.4014 227.6371 162.8199 229 166 C229.8028 167.8732 231.5581 169.408 234 170 C245.8499 172.8727 248.0239 172.957 262 174 C281.2982 175.4402 283.1444 171.802 301 175 C314.6587 177.4463 315.6878 181.6931 329 186 C331.5309 186.8188 334.9975 186.0124 335 186 C335.0082 185.9588 329.9975 181 330 181 C330.0056 181 341 186 341 186 "/>
</g>
</g>
</svg>
