<?xml version="1.0" encoding="utf-8"?>
<!DOCTYPE svg PUBLIC "-//W3C//DTD SVG 1.1//EN" "http://www.w3.org/Graphics/SVG/1.1/DTD/svg11.dtd">
<svg viewBox="0 0 800 800" preserveAspectRatio="xMinYMin meet" xmlns="http://www.w3.org/2000/svg" version="1.1">
<g fill="none" stroke="black" stroke-linecap="round" stroke-linejoin="round" stroke-width="1.0657">
<g transform="translate(150.8605,87.52) scale(2.8151) translate(-257.3611,-259.0278)">
<path id="0" d="M257.3611 317.0278 C257.3611 317.0278 255.7696 300.2735 258.3611 287.0278 C259.8686 279.3226 261.6289 277.9869 266.3611 271.0278 C269.6983 266.1201 271.1644 263.2561 275.3611 262.0278 C287.2209 258.5566 294.0349 257.4286 307.3611 259.0278 C315.3973 259.9921 317.717 262.8298 325.3611 268.0278 C329.3036 270.7087 329.7823 271.8079 332.3611 276.0278 C334.9749 280.3049 336.1025 281.27 336.3611 286.0278 C338.4377 324.2368 339.6291 329.8494 337.3611 368.0278 C336.8237 377.0742 334.3618 379.3599 330.3611 387.0278 C329.1939 389.2649 327.7873 390.1613 325.3611 391.0278 C321.8297 392.289 316.3611 392.0278 316.3611 392.0278 "/>
<path id="1" d="M257.3611 307.0278 C257.3611 307.0278 260.5116 317.6214 261.3611 328.0278 C262.4764 341.6906 258.6355 343.9896 261.3611 356.0278 C264.0592 367.9443 266.4091 371.8511 273.3611 381.0278 C277.0009 385.8323 280.3059 387.4131 286.3611 389.0278 C293.1633 390.8417 295.2003 388.1836 303.3611 389.0278 C309.2706 389.6391 315.3611 392.0278 315.3611 392.0278 "/>
<path id="2" d="M299.3611 259.0278 L303.3611 316.0278 "/>
<path id="3" d="M261.3611 317.0278 L336.3611 316.0278 "/>
<path id="4" d="M305.3611 387.0278 C305.3611 387.0278 305.1353 404.8719 309.3611 414.0278 C312.0656 419.8876 316.6234 423.08 323.3611 426.0278 C329.9675 428.9181 333.1992 425.6651 341.3611 428.0278 C351.2918 430.9025 351.1752 433.4849 361.3611 437.0278 C373.8829 441.3832 376.9958 438.1303 387.3611 444.0278 C403.5378 453.2318 403.4155 458.9029 419.3611 470.0278 C423.7469 473.0876 426.8409 471.4463 430.3611 474.0278 C432.6686 475.72 434.3611 481.0278 434.3611 481.0278 "/>
</g>
</g>
</svg>
