<?xml version="1.0" encoding="utf-8"?>
<!DOCTYPE svg PUBLIC "-//W3C//DTD SVG 1.1//EN" "http://www.w3.org/Graphics/SVG/1.1/DTD/svg11.dtd">
<svg viewBox="0 0 800 800" preserveAspectRatio="xMinYMin meet" xmlns="http://www.w3.org/2000/svg" version="1.1">
<g fill="none" stroke="black" stroke-linecap="round" stroke-linejoin="round" stroke-width="1.3105">
<g transform="translate(87.52,303.8523) scale(2.2892) translate(-104,-171)">
<path id="0" d="M219 217 C219 217 218.0091 206.4614 220 198 C221.723 190.6772 222.7163 189.1578 227 183 C230.0745 178.5804 231.3777 177.5423 236 175 C240.3636 172.6 241.6246 172.3225 247 172 C265.7514 170.8749 267.1774 170.6311 286 172 C293.8625 172.5718 293.9962 175.0171 302 176 C322.0775 178.4657 323.2779 176.3952 343 179 C348.9688 179.7883 349.6249 180.2198 355 183 C363.6686 187.4838 366.0625 188.0625 372 194 C375.3929 197.3929 376.4343 199.7955 377 205 C378.7152 220.7801 379.3511 227.0687 377 240 C376.2977 243.8626 372.75 246.7941 369 249 C366.2954 250.591 362.7912 248.985 360 250 C359.0786 250.335 358.6469 252.9739 358 253 C328.4056 254.1957 305.7378 257.8447 261 254 C246.2136 252.7293 244.4673 248.8892 230 242 C224.1643 239.2211 220.5884 237.5739 219 234 C216.6037 228.6083 218 215 218 215 "/>
<path id="1" d="M221 209 L270 209 "/>
<path id="2" d="M273 255 L273 215 "/>
<path id="3" d="M269 211 L270 218 "/>
<path id="4" d="M272 217 L272 171 "/>
<path id="5" d="M220 212 C220 212 219.2756 209.0459 219 209 C217.0098 208.6683 211.2131 208.0442 208 210 C202.4885 213.3548 201.0911 221.6212 196 223 C184.1914 226.1982 174.0848 225.6409 160 223 C154.6448 221.9959 152.4142 219.1818 148 214 C141.7147 206.6216 141.6213 198.9708 137 196 C133.5194 193.7625 128.1287 195.0147 120 196 C112.1176 196.9554 104 200 104 200 "/>
</g>
</g>
</svg>
