<?xml version="1.0" encoding="utf-8"?>
<!DOCTYPE svg PUBLIC "-//W3C//DTD SVG 1.1//EN" "http://www.w3.org/Graphics/SVG/1.1/DTD/svg11.dtd">
<svg viewBox="0 0 800 800" preserveAspectRatio="xMinYMin meet" xmlns="http://www.w3.org/2000/svg" version="1.1">
<g fill="none" stroke="black" stroke-linecap="round" stroke-linejoin="round" stroke-width="2.2753">
<g transform="translate(87.52,210.1387) scale(1.3185) translate(-40,-82.1333)">
<path id="0" d="M483 82.1333 C483 82.1333 472.6951 81.9595 464 84.1333 C457.5344 85.7497 456.3772 88.5518 451 90.1333 C449.6503 90.5303 448.5418 88.8087 447 89.1333 C440.4689 90.5083 438.7371 91.1016 432 94.1333 C429.3442 95.3284 429.5668 97.2405 427 98.1333 C419.2122 100.8421 416.7878 99.4245 409 102.1333 C406.4332 103.0261 406.5388 105.3209 404 106.1333 C395.3971 108.8863 392.9293 106.5011 384 110.1333 C364.5388 118.0497 364.6655 122.0174 345 130.1333 C333.9815 134.6806 332.3855 132.2383 321 136.1333 C313.8352 138.5844 314.1892 140.9509 307 143.1333 C286.9211 149.2287 283.7275 147.5549 265 153.1333 C262.4221 153.9012 262.3798 156.4334 260 157.1333 C255.263 158.5266 252.5119 156.2534 248 158.1333 C242.2769 160.518 236 167.1333 236 167.1333 "/>
<path id="1" d="M484 83.1333 C484 83.1333 495.3017 81.8118 501 84.1333 C505.6071 86.0103 507.0414 88.9567 511 94.1333 C513.0848 96.8597 513.8294 97.892 514 101.1333 C514.7376 115.1474 515.8316 120.2407 513 132.1333 C511.8087 137.1369 508.9821 138.8629 504 143.1333 C499.1337 147.3044 498.0645 148.5915 492 150.1333 C470.42 155.6198 468.5057 155.5477 445 158.1333 C418.8188 161.0133 415.6234 158.3773 392 161.1333 C388.6938 161.5191 388.5627 164.1154 385 165.1333 C375.312 167.9013 374.514 167.8459 364 169.1333 C350.181 170.8255 342.5814 169.9986 336 171.1333 C335.6477 171.1941 335.4039 174.0507 335 174.1333 C323.9309 176.3975 309.1934 176.7694 292 180.1333 C290.6039 180.4065 290.4533 182.737 289 183.1333 C281.4566 185.1906 278.2161 183.99 270 186.1333 C268.0137 186.6515 266 189.1333 266 189.1333 "/>
<path id="2" d="M479 109.1333 C479 109.1333 450.0498 120.5038 445 124.1333 C444.5771 124.4373 445.2777 130.5187 447 132.1333 C450.7279 135.6282 455.6768 138.5191 461 139.1333 C465.148 139.6119 469.062 138.2837 473 135.1333 C479.6842 129.786 481.7954 126.6416 486 119.1333 C487.7266 116.05 487.4926 110.9544 487 110.1333 C486.695 109.6251 480 109.1333 480 109.1333 "/>
<path id="3" d="M269 188.1333 C269 188.1333 279.6176 196.1554 286 204.1333 C288.4581 207.2059 288.8265 208.7961 289 213.1333 C290.7319 256.4298 293.1939 266.5165 290 304.1333 C289.4432 310.691 285.55 312.707 280 319.1333 C276.5313 323.1498 274.7663 322.1159 271 326.1333 C260.0975 337.7627 259.7093 342.0937 250 351.1333 C247.8373 353.1468 245.0543 351.3007 242 353.1333 C236.0241 356.7189 236.0741 360.8732 230 363.1333 C217.16 367.911 214.2835 368.3027 199 369.1333 C169.2656 370.7493 145.3731 368.0125 138 368.1333 C137.996 368.1334 138.0376 370.1276 138 370.1333 C136.4126 370.3776 131.3648 370.73 125 370.1333 C115.56 369.2483 112.7806 370.6205 106 367.1333 C98.1727 363.1078 98.6428 357.0479 90 352.1333 C74.8629 343.526 67.7504 347.0586 55 338.1333 C46.5472 332.2163 41.8192 326.4893 40 317.1333 C36.1355 297.2586 38.5032 290.7891 41 266.1333 C42.4027 252.2817 45.4666 252.0669 48 238.1333 C49.4004 230.4309 46.0304 227.3062 49 222.1333 C58.8943 204.8982 63.3637 201.5878 79 184.1333 C84.2171 178.3096 85.1148 178.1195 92 174.1333 C103.7068 167.3557 104.3924 165.408 117 162.1333 C141.2486 155.835 167.931 154.3733 169 154.1333 C169.0462 154.123 165.9912 151.1411 166 151.1333 C166.3419 150.8342 171.687 147.6926 177 147.1333 C189.5603 145.8112 192.0438 145.7669 204 147.1333 C207.745 147.5613 208.9177 150.2927 212 151.1333 C212.9247 151.3855 213.9842 149.8794 215 150.1333 C220.2637 151.4493 222.7447 151.6298 228 155.1333 C235.293 159.9954 242 168.1333 242 168.1333 "/>
<path id="4" d="M193 186.1333 C193 186.1333 188.1974 185.5737 184 186.1333 C181.0774 186.523 179.313 187.0079 178 188.1333 C177.2462 188.7794 177.5619 191.9193 177 192.1333 C172.2083 193.9587 166.9831 194.8854 157 196.1333 C147.1995 197.3584 142.9763 194.332 137 197.1333 C131.5803 199.6738 129.4263 203.9406 125 211.1333 C122.0067 215.9975 121.7996 217.216 121 223.1333 C119.3973 234.9936 118.3747 237.2982 120 248.1333 C121.0497 255.1315 122.5507 256.9044 127 263.1333 C131.9577 270.0742 132.8396 271.3042 140 276.1333 C153.4182 285.1828 155.89 287.6181 170 292.1333 C178.0353 294.7046 185.7555 292.7397 190 292.1333 C190.3032 292.09 190.2798 289.6735 191 289.1333 C193.0499 287.5959 196.7636 287.9317 198 286.1333 C200.4926 282.5078 198.7936 278.4774 202 273.1333 C210.1202 259.5997 216.2628 258.7006 222 246.1333 C225.0895 239.3658 224.3451 235.7803 223 227.1333 C221.0553 214.6319 220.0867 211.9427 215 201.1333 C212.9894 196.8609 211.1276 195.523 207 193.1333 C202.838 190.7238 198.0435 191.0622 196 190.1333 C195.8497 190.065 196 188.1333 196 188.1333 "/>
</g>
</g>
</svg>
