<?xml version="1.0" encoding="utf-8"?>
<!DOCTYPE svg PUBLIC "-//W3C//DTD SVG 1.1//EN" "http://www.w3.org/Graphics/SVG/1.1/DTD/svg11.dtd">
<svg viewBox="0 0 800 800" preserveAspectRatio="xMinYMin meet" xmlns="http://www.w3.org/2000/svg" version="1.1">
<g fill="none" stroke="black" stroke-linecap="round" stroke-linejoin="round" stroke-width="1.9105">
<g transform="translate(87.52,199.793) scale(1.5703) translate(-110,-85.9333)">
<path id="0" d="M305 153.9333 C305 153.9333 295.8157 148.7631 287 147.9333 C255.0946 144.9305 249.3681 142.0769 220 145.9333 C205.0515 147.8963 203.1062 152.2695 188 160.9333 C169.4852 171.5521 167.7156 171.2383 152 184.9333 C133.7085 200.8731 132.4011 203.0747 118 221.9333 C112.4857 229.1544 111.4056 231.3238 110 239.9333 C107.743 253.7577 107.9502 256.8778 110 270.9333 C111.1916 279.1041 112.0243 281.5131 117 287.9333 C126.2302 299.8433 128.0249 301.6075 141 310.9333 C159.0971 323.9406 160.7742 324.5983 181 333.9333 C192.281 339.1399 193.729 339.3995 206 340.9333 C220.7015 342.771 222.6312 343.163 237 340.9333 C250.1621 338.8909 251.0335 337.4736 264 331.9333 C305.7159 314.1093 315.04 312.044 347 293.9333 C351.3925 291.4443 351.7993 287.5354 354 280.9333 C357.0618 271.7478 356.8352 270.8338 358 260.9333 C358.7966 254.1623 356.9768 253.584 358 246.9333 C359.8946 234.6187 362.7023 234.2611 364 221.9333 C365.6201 206.5426 367.7887 198.5933 364 189.9333 C361.0179 183.117 353.9976 180.2511 343 173.9333 C331.2273 167.1703 329.2318 169.0492 317 162.9333 C312.7286 160.7976 308.919 156.9828 309 156.9333 C310.0053 156.319 330.8572 147.9933 353 140.9333 C365.1367 137.0637 366.1205 139.1016 378 134.9333 C394.1776 129.257 393.8214 126.7114 410 120.9333 C421.4312 116.8508 422.793 119.3907 434 114.9333 C466.0813 102.1737 494.4872 84.7466 498 85.9333 C499.8304 86.5517 509.4461 133.3705 508 139.9333 C507.7189 141.209 496.5648 143.2992 485 144.9333 C450.7881 149.7676 448.9446 148.165 416 152.9333 C412.5091 153.4386 412.4625 155.4266 409 155.9333 C392.9704 158.2791 389.9107 154.9394 375 158.9333 C364.1976 161.8268 353 170.9333 353 170.9333 "/>
<path id="1" d="M309 180.9333 C309 180.9333 294.7606 175.8269 281 174.9333 C257.2808 173.3931 255.0718 172.8976 232 175.9333 C218.7649 177.6748 216.6491 179.8369 205 184.9333 C202.2937 186.1174 202.7425 188.5025 200 189.9333 C192.1957 194.0051 186.5619 191.8151 182 196.9333 C170.2208 210.1491 168.3599 216.5203 159 235.9333 C155.4629 243.2695 155.7621 244.5501 155 252.9333 C153.8149 265.9691 153.1796 268.101 155 279.9333 C155.8713 285.5967 157.3438 286.8146 161 291.9333 C164.4638 296.7827 165.314 297.4189 170 300.9333 C172.7521 302.9974 173.6923 303.6853 177 303.9333 C192.1079 305.0664 194.1594 305.7218 210 303.9333 C224.2999 302.3188 224.5911 298.9918 239 296.9333 C252.0367 295.071 252.9607 297.4856 266 295.9333 C273.4412 295.0475 274.193 295.0032 281 291.9333 C299.0541 283.7913 300.4159 283.6984 317 272.9333 C328.2146 265.6537 328.8097 264.1236 338 254.9333 C340.5921 252.3412 341.6803 251.1299 342 247.9333 C343.4255 233.6783 343.7926 230.4695 342 214.9333 C340.9303 205.6623 339.9896 203.3426 336 195.9333 C333.9707 192.1646 330.3604 192.474 328 188.9333 C326.2137 186.2539 327.6341 183.9682 326 180.9333 C324.6151 178.3615 323.2346 176.492 321 175.9333 C314.1174 174.2127 308.9709 176.4488 302 174.9333 C300.2336 174.5493 298 170.9333 298 170.9333 "/>
</g>
</g>
</svg>
