<?xml version="1.0" encoding="utf-8"?>
<!DOCTYPE svg PUBLIC "-//W3C//DTD SVG 1.1//EN" "http://www.w3.org/Graphics/SVG/1.1/DTD/svg11.dtd">
<svg viewBox="0 0 800 800" preserveAspectRatio="xMinYMin meet" xmlns="http://www.w3.org/2000/svg" version="1.1">
<g fill="none" stroke="black" stroke-linecap="round" stroke-linejoin="round" stroke-width="2.8274">
<g transform="translate(87.52,348.5389) scale(1.0611) translate(-49,-191)">
<path id="0" d="M50 212 C50 212 89.9641 232.4341 128 236 C212.3663 243.9093 219.2536 238.1687 306 236 C316.7824 235.7304 317.0439 232.4608 328 231 C339.1817 229.5091 340.6296 232.8061 351 230 C381.2828 221.8058 384.7879 220.6593 413 208 C421.5703 204.1543 429 195 429 195 "/>
<path id="1" d="M49 211 C49 211 58.9674 201.2283 67 201 C229.1211 196.3919 436 200 436 200 "/>
<path id="2" d="M51 214 C51 214 54.9265 213.9265 56 215 C59.2204 218.2204 61.4443 220.5551 63 226 C65.9746 236.4111 62.52 240.0571 66 250 C68.7576 257.8789 70.7949 259.2778 77 266 C82.2196 271.6546 83.2202 272.5007 90 276 C97.8757 280.0649 98.8951 279.6753 108 282 C122.2327 285.6339 122.7371 287.6591 137 288 C245.6478 290.5972 260.576 292.084 359 288 C367.6076 287.6428 369.0694 283.7156 378 278 C393.85 267.856 396.1558 267.9268 409 256 C415.6897 249.7881 416.8258 247.7668 420 239 C426.75 220.3571 430 198 430 198 "/>
<path id="3" d="M431 198 C431 198 469.6173 198.9596 508 198 C529.4719 197.4632 529.7716 197.3587 551 195 C561.0155 193.8872 561.1234 191.4594 571 191 C603.2924 189.498 630.8819 187.0735 637 191 C639.6509 192.7013 639.9397 229.8297 638 234 C637.5546 234.9576 625.8867 236.3183 617 234 C605.0959 230.8946 604.3638 226.2218 592 222 C584.9113 219.5795 583.9505 220.1097 576 220 C512.0093 219.1174 510.8499 219.5305 447 220 C443.5316 220.0255 442.7369 219.8596 440 221 C437.5399 222.0251 436.6531 222.6196 435 225 C424.8481 239.6187 424.9765 243.698 415 257 C413.0365 259.6179 411.2804 259.9906 408 261 C405.6087 261.7358 402 261 402 261 "/>
<path id="4" d="M92 278 C92 278 103.1762 276.8092 113 278 C118.8404 278.7079 119.0064 280.9725 125 282 C136.0287 283.8906 136.5359 283.9075 148 284 C260.0702 284.9038 373 284 373 284 "/>
<path id="5" d="M418 245 C418 245 424.0002 244.9996 424 245 C423.9996 245.0008 417 247 417 247 "/>
<path id="6" d="M426 224 C426 224 431.4 223.7 432 224 C432.15 224.075 432.18 226.865 432 227 C431.68 227.24 428.9649 227.5514 428 227 C426.7249 226.2714 425 223 425 223 "/>
</g>
</g>
</svg>
