<?xml version="1.0" encoding="utf-8"?>
<!DOCTYPE svg PUBLIC "-//W3C//DTD SVG 1.1//EN" "http://www.w3.org/Graphics/SVG/1.1/DTD/svg11.dtd">
<svg viewBox="0 0 800 800" preserveAspectRatio="xMinYMin meet" xmlns="http://www.w3.org/2000/svg" version="1.1">
<g fill="none" stroke="black" stroke-linecap="round" stroke-linejoin="round" stroke-width="0.58564">
<g transform="translate(87.52,166.9207) scale(5.1226) translate(-236,-87)">
<path id="0" d="M331 88 C331 88 315.5393 86.9778 304 90 C296.7231 91.9059 295.0182 93.704 289 99 C283.3704 103.9541 281.0834 105.6011 279 112 C274.9883 124.3217 273.0995 134.2079 275 142 C275.9439 145.8699 281.8344 149.1613 289 153 C294.8148 156.1151 296.1402 156.2779 303 157 C314.4162 158.2017 315.5838 158.2017 327 157 C333.8598 156.2779 336.5029 156.4477 341 153 C349.0543 146.825 353.762 142.7616 357 134 C360.5573 124.3745 358.9649 119.5439 358 107 C357.5589 101.2657 356.7651 97.212 354 95 C348.4292 90.5434 333 87 333 87 "/>
<path id="1" d="M275 146 C275 146 268.9234 146.7024 264 149 C254.4178 153.4717 253.3516 153.8969 245 160 C241.0321 162.8996 240.0045 163.991 238 168 C236.0827 171.8347 235.6706 177.634 236 178 C236.3976 178.4418 242.1449 179.1204 247 178 C254.2317 176.3311 258.7391 175.828 262 172 C266.8303 166.3297 265.5333 157.5686 270 151 C271.7096 148.4858 279 147 279 147 "/>
</g>
</g>
</svg>
