<?xml version="1.0" encoding="utf-8"?>
<!DOCTYPE svg PUBLIC "-//W3C//DTD SVG 1.1//EN" "http://www.w3.org/Graphics/SVG/1.1/DTD/svg11.dtd">
<svg viewBox="0 0 800 800" preserveAspectRatio="xMinYMin meet" xmlns="http://www.w3.org/2000/svg" version="1.1">
<g fill="none" stroke="black" stroke-linecap="round" stroke-linejoin="round" stroke-width="2.5922">
<g transform="translate(87.52,288.896) scale(1.1573) translate(-96,-110.1333)">
<path id="0" d="M250 218.1333 C250 218.1333 250.36 220.8247 250 221.1333 C248.6599 222.282 246.4807 223.5689 243 224.1333 C228.8259 226.4318 227.9533 226.7656 213 227.1333 C167.2557 228.2582 156.9154 223.9951 121 227.1333 C116.3988 227.5354 114.6634 231.0969 110 236.1333 C102.4738 244.2616 98.9305 245.9699 96 254.1333 C93.3273 261.5786 93.847 267.4782 96 275.1333 C97.3873 280.0659 99.9174 282.0281 105 286.1333 C112.1266 291.8895 114.0584 294.3284 122 296.1333 C133.1258 298.6619 135.6017 296.8989 149 296.1333 C170.4514 294.9075 171.2548 295.3524 192 292.1333 C199.5027 290.9691 200.506 290.6123 207 287.1333 C213.7433 283.5209 213.2567 280.7458 220 277.1333 C226.494 273.6544 227.6005 273.0112 235 272.1333 C255.992 269.6428 257.3759 271.9975 279 270.1333 C285.9802 269.5316 287.5091 269.7594 293 267.1333 C297.5629 264.9511 301.7102 261.9158 302 259.1333 C303.2837 246.8101 302.7478 232.8493 298 219.1333 C296.0673 213.5501 290.4914 209.5444 284 207.1333 C276.4836 204.3415 271.9941 204.9728 263 206.1333 C258.4126 206.7253 256.8 208.0459 253 211.1333 C249.6223 213.8777 246.8647 218.5472 247 219.1333 C247.1447 219.7603 252.7422 221.0927 256 224.1333 C259.4326 227.3371 259.5479 228.5015 262 233.1333 C263.9309 236.7806 264.4937 237.2093 265 241.1333 C266.3963 251.9545 266 264.1333 266 264.1333 "/>
<path id="1" d="M299 270.1333 C299 270.1333 328.0567 286.6825 357 296.1333 C375.265 302.0974 377.2143 301.5799 397 302.1333 C447.7076 303.5517 448.9467 302.4716 500 300.1333 C513.957 299.4941 514.388 299.2446 528 296.1333 C549.0636 291.3188 549.5531 291.0589 570 284.1333 C580.2306 280.6681 580.609 280.4413 590 275.1333 C603.3297 267.5991 606.805 267.9852 616 258.1333 C625.5664 247.8836 628.9897 243.6796 632 230.1333 C637.9994 203.1362 637.3122 197.0022 636 168.1333 C635.4404 155.8216 633.6322 153.6324 628 142.1333 C622.1949 130.2813 619.0072 124.2295 612 119.1333 C608.2044 116.3729 602.0134 117.2567 595 118.1333 C591.8829 118.523 590.4489 119.4859 588 122.1333 C573.0964 138.2454 574.2392 142.4446 558 158.1333 C545.6443 170.0702 544.2748 172.4415 529 179.1333 C494.231 194.3655 491.1669 193.2755 453 204.1333 C433.586 209.6563 433.0527 209.0483 413 212.1333 C394.2193 215.0227 393.9452 215.3679 375 216.1333 C344.7168 217.3569 343.7026 217.9013 314 216.1333 C302.6557 215.4581 294.8514 213.7009 291 211.1333 C289.7812 210.3208 289 204.1333 290 200.1333 C290.9767 196.2264 292.5189 194.3968 296 191.1333 C299.7674 187.6014 300.7601 186.8983 306 185.1333 C346.8684 171.3671 348.8734 172.9395 391 159.1333 C408.2345 153.4851 407.8005 151.2932 425 146.1333 C442.4264 140.9054 442.9035 140.6802 461 138.1333 C510.0107 131.2355 512.2299 134.8382 560 127.1333 C572.5389 125.1109 572.6718 121.1402 585 118.1333 C592.3637 116.3373 601 117.1333 601 117.1333 "/>
<path id="2" d="M303 230.1333 C303 230.1333 314.1183 233.0521 325 233.1333 C380.334 233.5463 382.3644 235.0872 437 231.1333 C456.8049 229.7001 457.5486 227.869 477 222.1333 C496.2117 216.4683 497.323 216.5067 515 208.1333 C524.9642 203.4135 525.2898 202.431 534 195.1333 C561.9891 171.683 562.8284 171.097 589 146.1333 C594.7623 140.637 596.4651 139.6517 599 133.1333 C602.6857 123.6559 603 110.1333 603 110.1333 "/>
</g>
</g>
</svg>
