<?xml version="1.0" encoding="utf-8"?>
<!DOCTYPE svg PUBLIC "-//W3C//DTD SVG 1.1//EN" "http://www.w3.org/Graphics/SVG/1.1/DTD/svg11.dtd">
<svg viewBox="0 0 800 800" preserveAspectRatio="xMinYMin meet" xmlns="http://www.w3.org/2000/svg" version="1.1">
<g fill="none" stroke="black" stroke-linecap="round" stroke-linejoin="round" stroke-width="1.5313">
<g transform="translate(87.52,272.6571) scale(1.9591) translate(-137,-207.1333)">
<path id="0" d="M371 236.1333 C371 236.1333 391.8952 237.623 412 241.1333 C423.066 243.0655 423.3884 243.4193 434 247.1333 C443.1586 250.3388 446.1032 250.9213 452 255.1333 C453.9893 256.5542 455.1284 259.4372 455 262.1333 C454.7343 267.7128 454.1517 271.3007 451 276.1333 C447.9308 280.8395 445.8354 281.5904 440 285.1333 C432.2533 289.8367 431.6944 290.2943 423 293.1333 C407.6559 298.1437 406.9401 299.5836 391 301.1333 C336.2497 306.4563 334.5322 306.4477 279 307.1333 C254.2497 307.4389 253.769 306.1975 229 303.1333 C205.4598 300.2211 200.2834 301.5325 182 295.1333 C175.5568 292.8782 173.0022 288.1367 169 282.1333 C167.3991 279.732 167.3925 277.1708 168 274.1333 C168.6075 271.0958 169.4781 269.4976 172 267.1333 C176.6558 262.7685 178.0302 261.6208 184 259.1333 C188.9965 257.0515 196 257.1333 196 257.1333 "/>
<path id="1" d="M138 211.1333 L137 213.1333 "/>
<path id="2" d="M137 213.1333 C137 213.1333 154.195 217.7308 169 225.1333 C181.4674 231.367 180.5856 234.4296 193 241.1333 C205.1482 247.6933 219 252.1333 219 252.1333 "/>
<path id="3" d="M148 207.1333 C148 207.1333 161.4422 206.815 174 209.1333 C193.4521 212.7245 193.854 213.2119 213 219.1333 C242.1949 228.1627 271 239.1333 271 239.1333 "/>
<path id="4" d="M274 239.1333 C274 239.1333 292.271 235.1333 310 235.1333 C341.0258 235.1333 373 239.1333 373 239.1333 "/>
<path id="5" d="M207 253.1333 L214 251.1333 "/>
<path id="6" d="M165 282.1333 L174 318.1333 "/>
<path id="7" d="M176 320.1333 C176 320.1333 184.8984 325.9313 194 328.1333 C214.8616 333.1805 216.0446 333.3847 238 335.1333 C272.0777 337.8475 272.7039 337.9961 307 337.1333 C351.8417 336.0052 354.3904 338.386 397 331.1333 C422.3088 326.8254 448 313.1333 448 313.1333 "/>
<path id="8" d="M456 271.1333 L452 312.1333 "/>
<path id="9" d="M141 210.1333 L149 207.1333 "/>
<path id="10" d="M137 215.1333 L138 223.1333 "/>
<path id="11" d="M149 225.1333 C149 225.1333 161.3372 229.4614 171 236.1333 C181.5879 243.444 180.8214 246.1359 191 254.1333 C194.3219 256.7434 199 258.1333 199 258.1333 "/>
<path id="12" d="M201 256.1333 L213 250.1333 "/>
<path id="13" d="M138 223.1333 L148 224.1333 "/>
<path id="14" d="M153 213.1333 C153 213.1333 153.5541 210.4008 154 210.1333 C154.6369 209.7512 157.9972 210.1277 158 210.1333 C158.0007 210.1347 155 212.1333 155 212.1333 "/>
<path id="15" d="M206 277.1333 C206 277.1333 199.0548 280.8594 193 285.1333 C190.7844 286.6973 189.7811 287.3758 189 289.1333 C188.324 290.6543 189 294.1333 189 294.1333 "/>
<path id="16" d="M212 273.1333 C212 273.1333 228.4815 266.773 245 263.1333 C257.5102 260.3769 258.018 260.7824 271 260.1333 C297.8327 258.7917 298.1354 258.5678 325 259.1333 C345.4366 259.5636 345.6078 260.0147 366 262.1333 C384.0267 264.0062 386.5081 262.0584 402 267.1333 C412.9429 270.7181 415.8964 273.9648 424 281.1333 C426.819 283.6271 428 290.1333 428 290.1333 "/>
<path id="17" d="M280 238.1333 C280 238.1333 259.991 235.9321 243 239.1333 C227.3465 242.0825 211 251.1333 211 251.1333 "/>
<path id="18" d="M206 276.1333 L212 273.1333 "/>
</g>
</g>
</svg>
