<?xml version="1.0" encoding="utf-8"?>
<!DOCTYPE svg PUBLIC "-//W3C//DTD SVG 1.1//EN" "http://www.w3.org/Graphics/SVG/1.1/DTD/svg11.dtd">
<svg viewBox="0 0 800 800" preserveAspectRatio="xMinYMin meet" xmlns="http://www.w3.org/2000/svg" version="1.1">
<g fill="none" stroke="black" stroke-linecap="round" stroke-linejoin="round" stroke-width="0.54243">
<g transform="translate(87.52,95.8159) scale(5.5306) translate(-203,-164.1333)">
<path id="0" d="M269 172.1333 C269 172.1333 262.8129 176.199 259 181.1333 C254.8037 186.5638 254.3185 187.7574 252 194.1333 C250.6035 197.9738 250.2689 199.4777 251 203.1333 C251.997 208.1183 254.5426 208.8865 256 214.1333 C256.8235 217.0979 254.7567 219.2684 256 221.1333 C262.4533 230.8133 267.8734 237.903 276 244.1333 C278.1594 245.7889 281.9246 245.2977 286 244.1333 C291.1816 242.6529 292.1883 241.7421 297 238.1333 C303.8295 233.0112 304.9335 232.392 310 226.1333 C312.7528 222.7328 313.0015 221.6266 314 217.1333 C315.8624 208.7527 316.2875 207.4707 316 199.1333 C315.822 193.9706 315.3158 192.9578 313 188.1333 C309.5896 181.0284 309.2993 178.8438 304 174.1333 C297.3552 168.2269 294.4299 166.9433 286 164.1333 C281.2582 162.5527 278.6149 162.9189 274 164.1333 C270.802 164.9749 268.9334 166.7166 267 169.1333 C265.9421 170.4557 266 174.1333 266 174.1333 "/>
<path id="1" d="M259 228.1333 C259 228.1333 251.5275 240.328 242 247.1333 C225.1711 259.154 203.467 267.8479 203 268.1333 C202.9785 268.1465 206 269.1333 206 269.1333 "/>
<path id="2" d="M266 235.1333 C266 235.1333 263.5785 242.1785 260 247.1333 C257.5778 250.4871 256.8202 250.8759 253 253.1333 C235.3149 263.5836 233.8001 264.6378 216 273.1333 C213.1405 274.4981 209 274.1333 209 274.1333 "/>
<path id="3" d="M211 274.1333 C211 274.1333 205.8813 273.574 205 273.1333 C204.8644 273.0655 205 271.1333 205 271.1333 "/>
</g>
</g>
</svg>
