<?xml version="1.0" encoding="utf-8"?>
<!DOCTYPE svg PUBLIC "-//W3C//DTD SVG 1.1//EN" "http://www.w3.org/Graphics/SVG/1.1/DTD/svg11.dtd">
<svg viewBox="0 0 800 800" preserveAspectRatio="xMinYMin meet" xmlns="http://www.w3.org/2000/svg" version="1.1">
<g fill="none" stroke="black" stroke-linecap="round" stroke-linejoin="round" stroke-width="1.4305">
<g transform="translate(87.52,235.3713) scale(2.0972) translate(-136,-122)">
<path id="0" d="M137 124 C137 124 138.7249 122.0258 140 122 C180.2605 121.1867 188.6871 119.2704 236 122 C265.8265 123.7208 270.9823 122.7589 296 131 C308.42 135.0913 309.5766 139.8821 321 150 C326.6337 154.9898 325.3914 157.1926 331 162 C338.8205 168.7033 344.0668 167.0628 349 174 C357.5446 186.0159 363 207 363 207 "/>
<path id="1" d="M139 126 C139 126 135.5468 152.73 141 164 C146.2546 174.8595 154.4226 182.6991 169 188 C223.6293 207.8652 233.3743 209.4453 295 220 C320.6985 224.4014 325.7593 221.571 350 219 C355.1187 218.4571 358.1562 216.0626 361 213 C362.7288 211.1382 363 205 363 205 "/>
<path id="2" d="M138 127 C138 127 136.0791 128.6953 136 130 C135.24 142.5405 134.8714 145.3278 136 160 C136.8392 170.9101 136.9398 171.9012 140 182 C141.6899 187.5768 142.1697 189.0032 146 193 C152.6982 199.9894 154.2831 201.3852 163 206 C170.1711 209.7964 172.1093 207.6183 180 211 C189.1861 214.9369 189.2773 217.8017 198 221 C202.9787 222.8255 204.8302 220.1906 210 222 C223.6258 226.769 223.8135 229.4991 238 235 C248.0155 238.8836 248.6321 240.0126 259 241 C289.3714 243.8925 293.1305 243.7909 322 243 C326.6367 242.873 329.3469 240.9295 332 239 C332.8034 238.4157 332.1055 235.8945 333 235 C334.968 233.032 337.3613 233.4188 340 231 C342.8242 228.4111 342.8819 225.2356 345 224 C346.6323 223.0478 350.859 224.7987 352 224 C353.2877 223.0986 355 217 355 217 "/>
<path id="3" d="M355 217 C355 217 357.9172 218.221 359 220 C364.1977 228.539 365.6791 235.2559 369 240 C369.3444 240.492 372.6042 239.5477 373 240 C374.2015 241.3732 373.6987 245.1873 376 248 C381.7833 255.0685 382.8201 257.0279 391 262 C407.121 271.799 410.3498 272.0963 427 279 C428.9339 279.8019 431.7496 279.3934 432 279 C432.9657 277.4825 434.9051 269.1464 434 268 C431.9421 265.3934 423.7795 265.3267 417 260 C404.0025 249.7877 404.3925 244.713 392 235 C387.7941 231.7035 385.0352 233.7694 380 231 C375.7981 228.689 375.9498 225.6928 372 224 C367.0243 221.8676 359 222 359 222 "/>
</g>
</g>
</svg>
