<?xml version="1.0" encoding="utf-8"?>
<!DOCTYPE svg PUBLIC "-//W3C//DTD SVG 1.1//EN" "http://www.w3.org/Graphics/SVG/1.1/DTD/svg11.dtd">
<svg viewBox="0 0 800 800" preserveAspectRatio="xMinYMin meet" xmlns="http://www.w3.org/2000/svg" version="1.1">
<g fill="none" stroke="black" stroke-linecap="round" stroke-linejoin="round" stroke-width="1.2961">
<g transform="translate(87.52,301.6267) scale(2.3147) translate(-108,-171)">
<path id="0" d="M183,201C183,201 184.01323340287902,210.35786031793145 187,213C193.4844274805916,218.7362243097541 198.77405888349307,217.56144448219933 209,224C225.43221011679412,234.34620636983334 224.75923845512935,236.97910457869682 241,247C247.57560082816275,251.057285617377 248.4537286157161,251.11343215392904 256,253C265.9473577338288,255.4868394334572 266.55639744545726,255.45981366097192 277,256C295.26566510354416,256.9447757812178 296.3950357870401,257.6300892789778 314,256C322.30904967608666,255.2306435485105 323.1230196247091,254.43355554820374 331,251C342.1836272173248,246.12508557193536 343.22481259701135,246.01808326368413 353,239C362.0956727007708,232.46977344560045 362.6802694588926,231.49088742768458 370,223C374.7508262342171,217.4890415683082 378,210 378,210"/>
<path id="1" d="M185,200C185,200 189.28106795063581,203.83783373457368 193,205C196.11126341384718,205.97226981682724 200.2808988764045,204.5505617977528 201,205C201.2808988764045,205.1755617977528 200.96307566778014,209.99788139077427 201,210C216.71710575461668,210.90180114985506 262.6231452044958,209.55228967045252 323,212C335.9388522120983,212.52454806265263 336.07519117917616,214.9862895042491 349,216C361.27953148029087,216.96310050825812 368.28526173249577,217.42868456687606 374,216C375.0858002708258,215.72854993229356 377,209 377,209"/>
<path id="2" d="M237,171L238,172"/>
<path id="3" d="M183,201C183,201 283.7321575878656,198.50991070956647 363,201C367.92714890153377,201.15477954664504 374,207 374,207"/>
<path id="4" d="M184,209C184,209 180.87812643998257,205.71953160999564 178,205C172.1409568900355,203.53523922250886 169.77693561016892,202.59479944617513 164,204C153.32004634740872,206.59782656414381 152.04365755796874,211.74619233510842 141,214C129.5333172543992,216.3401393358369 122.36956907830615,216.23320275100187 115,214C112.15696111314763,213.1384730645902 108.00340619537263,203.9914845115684 108,204C107.99110604541589,204.0222348864603 109.83711159148734,223.74442012999722 111,224C124.8371625191223,227.04113461958732 199,224 199,224"/>
</g>
</g>
</svg>
