<?xml version="1.0" encoding="utf-8"?>
<!DOCTYPE svg PUBLIC "-//W3C//DTD SVG 1.1//EN" "http://www.w3.org/Graphics/SVG/1.1/DTD/svg11.dtd">
<svg viewBox="0 0 800 800" preserveAspectRatio="xMinYMin meet" xmlns="http://www.w3.org/2000/svg" version="1.1">
<g fill="none" stroke="black" stroke-linecap="round" stroke-linejoin="round" stroke-width="0.53283">
<g transform="translate(90.3351,87.52) scale(5.6303) translate(-196,-168.1333)">
<path id="0" d="M198 263.1333 C198 263.1333 197.2337 259.5855 198 257.1333 C199.4767 252.4078 200.0016 251.7099 203 247.1333 C209.3629 237.4215 209.3363 236.9185 217 228.1333 C229.6579 213.6231 231.594 214.7103 244 200.1333 C251.3162 191.5368 257 181.1333 257 181.1333 "/>
<path id="1" d="M214 269.1333 C214 269.1333 228.2884 254.0848 244 241.1333 C265.0754 223.7603 269.7972 223.1705 288 208.1333 C289.566 206.8397 290 203.1333 290 203.1333 "/>
<path id="2" d="M256 182.1333 C256 182.1333 255.7754 177.4521 257 176.1333 C260.3834 172.4897 263.877 169.0939 269 168.1333 C276.4473 166.737 283.43 167.4515 289 170.1333 C292.2672 171.7064 294.6257 176.0288 296 181.1333 C297.5999 187.0759 297.4681 190.0164 296 196.1333 C294.8804 200.7985 290 206.1333 290 206.1333 "/>
<path id="3" d="M199 263.1333 C199 263.1333 200.7813 268.6458 202 269.1333 C204.7083 270.2167 214 269.1333 214 269.1333 "/>
<path id="4" d="M201 267.1333 C201 267.1333 196.5174 268.8915 196 270.1333 C195.0839 272.332 195.4414 278.5049 196 279.1333 C196.4414 279.6299 202.6008 280.2702 204 279.1333 C207.2466 276.4955 212 266.1333 212 266.1333 "/>
<path id="5" d="M297 200.1333 L297 213.1333 "/>
<path id="6" d="M226 260.1333 C226 260.1333 233.4642 258.9052 238 256.1333 C241.2274 254.1611 240.5133 251.574 244 249.1333 C259.578 238.2287 261.5956 239.2759 278 228.1333 C287.9209 221.3946 297 213.1333 297 213.1333 "/>
<path id="7" d="M239 259.1333 C239 259.1333 244.2941 257.1444 248 254.1333 C251.83 251.0215 251.3087 248.2426 255 246.1333 C260.1951 243.1647 262.9492 245.2452 269 242.1333 C279.6265 236.6683 280.0677 235.4906 290 228.1333 C293.3068 225.6838 294.8695 224.7712 296 222.1333 C297.0551 219.6713 296 214.1333 296 214.1333 "/>
<path id="8" d="M291 229.1333 L302 240.1333 "/>
<path id="9" d="M216 269.1333 C216 269.1333 250.6461 261.1012 284 251.1333 C293.723 248.2276 303 243.1333 303 243.1333 "/>
<path id="10" d="M199 272.1333 C199 272.1333 198.7648 279.0647 199 279.1333 C201.7648 279.9397 211.7658 280.8956 223 279.1333 C236.2259 277.0587 236.86 274.1368 250 271.1333 C253.6464 270.2999 254.8428 272.3737 258 271.1333 C280.3545 262.3512 297.0281 254.4783 306 249.1333 C306.378 248.9081 305 243.1333 305 243.1333 "/>
<path id="11" d="M286 238.1333 C286 238.1333 287.2847 243.7757 288 244.1333 C289.073 244.6698 295.7578 243.5774 296 243.1333 C296.4023 242.3957 294.4801 233.5067 294 233.1333 C293.7709 232.9551 287 236.1333 287 236.1333 "/>
</g>
</g>
</svg>
