<?xml version="1.0" encoding="utf-8"?>
<!DOCTYPE svg PUBLIC "-//W3C//DTD SVG 1.1//EN" "http://www.w3.org/Graphics/SVG/1.1/DTD/svg11.dtd">
<svg viewBox="0 0 800 800" preserveAspectRatio="xMinYMin meet" xmlns="http://www.w3.org/2000/svg" version="1.1">
<g fill="none" stroke="black" stroke-linecap="round" stroke-linejoin="round" stroke-width="1.6369">
<g transform="translate(87.52,262.5455) scale(1.8327) translate(-124,-153)">
<path id="0" d="M127 214 C127 214 136.793 213.9565 146 212 C176.4232 205.5351 176.4356 202.9348 207 197 C227.5496 193.0098 229.8197 195.7608 249 192 C253.4538 191.1267 253.3771 188.3355 258 187 C274.9572 182.1012 287.4313 180.8246 294 179 C294.0955 178.9735 293.979 177.0017 294 177 C300.8634 176.4617 320.0914 178.0839 345 175 C371.9083 171.6685 399 164 399 164 "/>
<path id="1" d="M398 163 C398 163 409.0848 163.583 412 163 C412.3332 162.9334 413 160 413 160 "/>
<path id="2" d="M130 215 C130 215 129.078 246.142 128 258 C127.9705 258.3245 126 259 126 259 "/>
<path id="3" d="M128 259 C128 259 140.5048 261.4312 151 260 C161.0779 258.6257 162.1659 257.3994 172 253 C180.7509 249.0851 180.3556 245.1813 189 243 C230.7489 232.4652 234.7743 236.2059 279 226 C299.2475 221.3275 299.3075 217.1772 319 213 C331.0723 210.4392 332.285 213.6146 345 212 C363.4391 209.6585 364.7286 210.1511 382 205 C392.1551 201.9713 392.9955 200.5412 402 195 C405.337 192.9465 404.7055 190.774 408 189 C416.6756 184.3285 424.5895 184.24 428 181 C429.2913 179.7733 428.997 174.9849 428 170 C426.6405 163.2025 425.0072 157.0438 423 156 C419.8159 154.3443 405.1903 157.3286 403 157 C402.9338 156.9901 403 153 403 153 "/>
<path id="4" d="M124 286 C124 286 123.8502 302.9894 124 303 C153.8502 305.1144 245.7793 305.1974 364 303 C378.3308 302.7336 378.5298 299.5504 393 298 C406.2804 296.5771 407.0045 298.8194 420 297 C431.4154 295.4018 431.6855 292.6164 443 291 C452.011 289.7127 461.4475 291.7367 462 291 C462.6592 290.1211 459.8254 275.7917 458 271 C457.786 270.4381 454.373 270.5968 454 270 C453.1874 268.6998 453 263 453 263 "/>
<path id="5" d="M124 289 C124 289 226.2509 289.3755 328 287 C354.4753 286.3819 355.1755 286.0835 381 283 C387.9913 282.1652 388.1344 279.8322 395 279 C404.0057 277.9084 405.129 280.1447 414 279 C419.8437 278.246 420.0715 275.6975 426 275 C444.6525 272.8056 465 273 465 273 "/>
<path id="6" d="M138 261 C138 261 137.1182 290.1727 137 291 C136.9938 291.0431 134 289 134 289 "/>
<path id="7" d="M199 244 C199 244 200.7253 250.545 201 257 C201.7137 273.7725 201.0784 289.7061 201 291 C200.998 291.0334 199 290 199 290 "/>
<path id="8" d="M204 264 C204 264 227.5063 267.0969 249 265 C267.1313 263.2311 267.7784 257.5769 286 256 C318.3156 253.2035 321.8772 256.8645 353 256 C355.3484 255.9348 357.6035 254.5947 358 254 C358.2478 253.6283 356.6922 250.5386 357 250 C357.5258 249.0799 361.9131 247.1158 362 247 C362.0064 246.9914 360.0074 246.2664 360 246 C359.7548 237.1736 361 211 361 211 "/>
<path id="9" d="M361 256 C361 256 365.3542 251.7622 370 250 C379.0217 246.578 388.7415 247.2521 390 245 C392.2127 241.0404 390.4719 225.4201 389 216 C388.817 214.8288 385.0065 213.0195 385 213 C384.9985 212.9955 387.9835 213.0768 388 213 C388.3585 211.3268 388 199 388 199 "/>
<path id="10" d="M375 214 C375 214 372.5256 218.6202 372 223 C371.1016 230.4869 371.0771 231.6166 372 239 C372.4831 242.8647 374.4162 244.081 375 247 C375.1222 247.6109 374.0584 249 374 249 C373.8831 249 372 247 372 247 "/>
</g>
</g>
</svg>
