<?xml version="1.0" encoding="utf-8"?>
<!DOCTYPE svg PUBLIC "-//W3C//DTD SVG 1.1//EN" "http://www.w3.org/Graphics/SVG/1.1/DTD/svg11.dtd">
<svg viewBox="0 0 800 800" preserveAspectRatio="xMinYMin meet" xmlns="http://www.w3.org/2000/svg" version="1.1">
<g fill="none" stroke="black" stroke-linecap="round" stroke-linejoin="round" stroke-width="1.3153">
<g transform="translate(87.52,246.0409) scale(2.2809) translate(-175,-176.1333)">
<path id="0" d="M175 207.1333 C175 207.1333 177.482 196.6594 182 190.1333 C185.4363 185.1698 188.0768 183.3488 193 181.1333 C195.9441 179.8085 198.9144 181.9047 202 181.1333 C203.2857 180.8119 203.8176 178.2408 205 178.1333 C215.8387 177.148 221.6096 176.2649 235 178.1333 C241.1762 178.9951 241.6133 182.4775 248 184.1333 C254.2567 185.7554 255.3733 183.6607 262 185.1333 C277.3759 188.5502 277.8652 188.981 293 194.1333 C301.1677 196.9138 300.9133 199.0686 309 201.1333 C323.6741 204.8799 326.3713 201.8933 340 206.1333 C347.0329 208.3214 346.9333 212.1048 354 215.1333 C360.0491 217.7258 362.1803 215.4313 368 218.1333 C375.0485 221.4059 375.3576 225.7764 382 228.1333 C388.5691 230.4643 391.7435 226.9991 399 229.1333 C407.2437 231.558 416 238.1333 416 238.1333 "/>
<path id="1" d="M176 206.1333 L176 215.1333 "/>
<path id="2" d="M180 217.1333 C180 217.1333 176.9972 217.1314 177 217.1333 C177.0125 217.1423 182.2644 221.2877 187 222.1333 C194.8254 223.5307 198.4027 220.2484 205 222.1333 C209.5029 223.4199 210.4983 228.2379 215 230.1333 C218.0306 231.4094 220.1882 229.0937 224 230.1333 C230.199 231.824 230.6289 234.975 237 236.1333 C251.1808 238.7117 254.2356 235.5115 268 238.1333 C273.3261 239.1478 273.5503 242.63 279 244.1333 C286.9889 246.3372 289.2401 244.1934 297 246.1333 C299.9362 246.8674 300.225 249.6997 303 250.1333 C313.9558 251.8452 317.44 249.0039 329 251.1333 C334.7858 252.1991 334.9601 255.5846 341 257.1333 C353.5031 260.3393 356.3092 257.5362 368 261.1333 C373.9888 262.976 374.4869 267.0331 380 269.1333 C383.2974 270.3895 385.7588 267.9894 389 269.1333 C392.6438 270.4194 397 275.1333 397 275.1333 "/>
<path id="3" d="M176 207.1333 C176 207.1333 175.1344 217.883 176 219.1333 C176.5216 219.8867 185 220.1333 185 220.1333 "/>
<path id="4" d="M307 251.1333 C307 251.1333 310.1429 250.9806 312 252.1333 C323.4162 259.2193 326.0452 259.7473 336 269.1333 C342.4873 275.25 343.7117 277.2919 347 285.1333 C349.5267 291.1586 349 300.1333 349 300.1333 "/>
<path id="5" d="M192 222.1333 L192 231.1333 "/>
<path id="6" d="M275 245.1333 C275 245.1333 273.9895 251.1438 272 253.1333 C269.6487 255.4846 267.2877 256.7505 263 257.1333 C241.4225 259.0599 238.8224 259.1707 216 258.1333 C206.6766 257.7095 201.4672 257.3497 197 254.1333 C193.717 251.7696 192.6064 247.0178 191 240.1333 C189.3067 232.8763 190 224.1333 190 224.1333 "/>
<path id="7" d="M394 272.1333 C394 272.1333 397.2696 272.953 399 272.1333 C405.3207 269.1393 411.5061 266.8682 413 263.1333 C415.6604 256.4822 413 237.1333 413 237.1333 "/>
<path id="8" d="M351 299.1333 C351 299.1333 261.4458 297.2709 189 298.1333 C186.3007 298.1655 183 301.1333 183 301.1333 "/>
<path id="9" d="M184 302.1333 C184 302.1333 174.9348 310.1296 175 310.1333 C175.9917 310.1907 240.4602 308.6973 305 309.1333 C313.9435 309.1938 314.1371 311.1333 323 311.1333 C338.2639 311.1333 339.5555 311.4848 354 309.1333 C359.9086 308.1715 360.2256 305.4457 366 304.1333 C370.3957 303.1343 376 304.1333 376 304.1333 "/>
<path id="10" d="M400 276.1333 C400 276.1333 420.1419 283.7536 426 287.1333 C426.4179 287.3745 426.6428 290.0619 426 291.1333 C424.4572 293.7047 423.3559 295.1407 420 297.1333 C408.1665 304.1595 406.3417 307.5866 394 310.1333 C378.0794 313.4185 357 310.1333 357 310.1333 "/>
<path id="11" d="M425 289.1333 C425 289.1333 423.7796 306.1388 422 307.1333 C417.6992 309.5367 391 308.1333 391 308.1333 "/>
<path id="12" d="M417 239.1333 C417 239.1333 416.8793 246.0847 419 250.1333 C421.5902 255.0782 425.419 255.8317 428 260.1333 C428.838 261.53 427.2405 263.3611 428 265.1333 C429.7578 269.2348 433.4351 270.0849 434 274.1333 C435.9524 288.1256 435.8573 304.9759 434 308.1333 C433.3573 309.2259 414 308.1333 414 308.1333 "/>
<path id="13" d="M438 303.1333 C438 303.1333 447.8813 302.0316 449 302.1333 C449.0186 302.135 449.32 303.8133 449 304.1333 C446.76 306.3733 444.644 308.9826 441 310.1333 C436.949 311.4126 430 310.1333 430 310.1333 "/>
<path id="14" d="M200 225.1333 C200 225.1333 199.3535 235.3705 201 241.1333 C201.6499 243.4081 203.5987 245.3329 206 246.1333 C212.0033 248.1344 214.8115 248.4209 222 248.1333 C226.1181 247.9686 226.5934 245.5433 231 245.1333 C247.1908 243.6272 250.4802 246.2076 265 244.1333 C268.7059 243.6039 273 239.1333 273 239.1333 "/>
<path id="15" d="M200 258.1333 C200 258.1333 220.5873 256.3873 237 258.1333 C241.6718 258.6303 242.3036 262.5312 247 263.1333 C259.7992 264.7743 261.7831 261.9486 276 263.1333 C291.4016 264.4168 291.5333 266.6833 307 268.1333 C323.2654 269.6582 340 269.1333 340 269.1333 "/>
<path id="16" d="M199 180.1333 L212 176.1333 "/>
<path id="17" d="M354 299.1333 C354 299.1333 379.7874 295.2065 393 297.1333 C396.5201 297.6467 397.7138 303.0717 402 306.1333 C403.5875 307.2673 407 307.1333 407 307.1333 "/>
<path id="18" d="M338 267.1333 L342 267.1333 "/>
<path id="19" d="M200 294.1333 L197 302.1333 "/>
<path id="20" d="M202 291.1333 L348 290.1333 "/>
</g>
</g>
</svg>
