<?xml version="1.0" encoding="utf-8"?>
<!DOCTYPE svg PUBLIC "-//W3C//DTD SVG 1.1//EN" "http://www.w3.org/Graphics/SVG/1.1/DTD/svg11.dtd">
<svg viewBox="0 0 800 800" preserveAspectRatio="xMinYMin meet" xmlns="http://www.w3.org/2000/svg" version="1.1">
<g fill="none" stroke="black" stroke-linecap="round" stroke-linejoin="round" stroke-width="1.5361">
<g transform="translate(97.285,87.52) scale(1.953) translate(-110,-70)">
<path id="0" d="M110 204 C110 204 114.7421 203.4989 115 204 C123.3618 220.2457 144.9945 271.9884 145 272 C145.0005 272.0011 144 265 144 265 "/>
<path id="1" d="M111 200 C111 200 123.4525 198.852 131 194 C142.2309 186.7801 141.0817 181.4014 153 173 C170.6518 160.557 172.1128 160.8036 192 151 C207.3242 143.4458 207.7948 143.4017 224 138 C239.0158 132.9947 240.7233 136.0401 255 130 C291.6339 114.501 291.3414 109.8135 328 94 C341.4374 88.2035 342.8731 90.8435 357 86 C377.6882 78.9069 394.6012 70 398 70 C398.2487 70 398.0758 78.9818 401 86 C407.6254 101.9011 417.4378 116.1447 418 118 C418.017 118.056 413.9052 117.6221 411 119 C330.5833 157.1405 326.7173 159.4658 243 201 C197.7392 223.455 195.9372 223.5797 153 247 C148.0144 249.7194 144 255 144 255 "/>
<path id="2" d="M420 117 C420 117 418.3367 131.6287 414 145 C406.4931 168.1464 401.3409 168.1799 396 191 C390.7949 213.2399 396.6711 216.0689 392 239 C385.9077 268.9078 380.9271 277.8724 374 299 C373.826 299.5308 372.0025 300.015 372 300 C371.9743 299.8458 373 293 373 293 "/>
<path id="3" d="M373 137 C373 137 367.7216 161.2478 358 183 C328.1086 249.8821 326.309 250.2147 293 316 C286.4561 328.9242 286.7424 330.5092 278 341 C270.1513 350.4184 257.8942 357.9167 258 358 C259.3228 359.0414 303.887 368.6165 325 378 C327.8748 379.2777 330 390 330 390 "/>
<path id="4" d="M331 385 C331 385 334.8883 365.335 341 347 C344.7459 335.7624 344.9542 335.1413 351 325 C360.1934 309.5788 363.2676 310.0197 372 295 C375.1706 289.5466 376 282 376 282 "/>
<path id="5" d="M164 243 C164 243 167.3761 245.2162 169 248 C173.9742 256.5273 174.4965 263.3019 178 267 C179.0852 268.1455 182.8678 267.8264 187 267 C194.8053 265.4389 199.5229 264.7044 203 262 C204.5734 260.7762 206.0323 255.3822 205 253 C201.5097 244.9455 190 232 190 232 "/>
<path id="6" d="M184 264 L193 276 "/>
<path id="7" d="M195 261 L201 273 "/>
<path id="8" d="M203 259 L212 271 "/>
</g>
</g>
</svg>
