<?xml version="1.0" encoding="utf-8"?>
<!DOCTYPE svg PUBLIC "-//W3C//DTD SVG 1.1//EN" "http://www.w3.org/Graphics/SVG/1.1/DTD/svg11.dtd">
<svg viewBox="0 0 800 800" preserveAspectRatio="xMinYMin meet" xmlns="http://www.w3.org/2000/svg" version="1.1">
<g fill="none" stroke="black" stroke-linecap="round" stroke-linejoin="round" stroke-width="1.3537">
<g transform="translate(87.52,160.6536) scale(2.2162) translate(-152,-120)">
<path id="0" d="M152 237 C152 237 155.1132 210.6478 157 207 C157.2416 206.5329 162.8879 206.3068 167 208 C178.593 212.7736 178.9692 215.7975 191 221 C196.8068 223.5111 203.8078 223.1832 204 224 C204.946 228.0203 200.8524 252.7266 199 255 C198.4797 255.6386 189.787 254.148 182 251 C166.9154 244.902 152 236 152 236 "/>
<path id="1" d="M157 208 C157 208 194.4981 190.1336 233 176 C273.1682 161.2547 274.5338 164.2178 315 150 C348.3618 138.2783 381 124 381 124 "/>
<path id="2" d="M206 225 C206 225 211.4641 225.344 216 224 C224.4028 221.5103 224.8581 221.1167 233 217 C269.1576 198.7181 268.1828 195.7351 305 179 C361.238 153.4373 418.9485 132.6088 420 132 C420.1136 131.9342 410.1042 127.0312 400 124 C390.4371 121.1311 380 120 380 120 "/>
<path id="3" d="M201 257 C201 257 214.7211 256.308 225 251 C273.3383 226.0384 272.9245 219.3099 323 194 C364.1455 173.2036 366.6415 176.8688 409 158 C421.3671 152.491 423.3267 150.804 433 145 C433.6692 144.5985 434.0364 143.0273 434 143 C433.1252 142.3439 427.7074 141.2152 425 139 C423.6563 137.9006 423 134 423 134 "/>
<path id="4" d="M160 244 C160 244 161.4572 272.8646 163 280 C163.0876 280.4052 167.9799 281.0563 168 281 C168.3838 279.9254 168 266 168 266 "/>
<path id="5" d="M163 266 L191 272 "/>
<path id="6" d="M191 272 L192 252 "/>
<path id="7" d="M185 272 C185 272 184.3077 282.9615 185 284 C185.3077 284.4615 192.7333 284.381 193 284 C193.4429 283.3673 192 274 192 274 "/>
<path id="8" d="M192 274 C192 274 238.2135 256.9171 282 236 C316.2814 219.6235 315.1582 216.6971 349 199 C369.5597 188.2486 371.8354 187.7112 391 179 C391.7502 178.659 392.9978 178.9764 393 179 C393.2478 181.6014 393.7387 189.658 393 200 C392.2538 210.4475 389.1504 216.7522 390 221 C390.2332 222.1661 394.2 224.05 398 225 C401.3777 225.8444 403.538 226.0551 406 225 C408.6379 223.8695 409.8527 222.3035 412 219 C416.0234 212.8101 416.2366 212.1849 419 205 C423.6481 192.9148 424.5438 192.5041 427 180 C429.92 165.1346 430 149 430 149 "/>
<path id="9" d="M399 208 C399 208 400.0594 214.3416 401 215 C402.0905 215.7634 408.2809 215.4494 409 215 C409.2809 214.8244 409.4023 210.3449 409 210 C408.2624 209.3677 402 209 402 209 "/>
<path id="10" d="M351 198 C351 198 350.6741 207.0392 352 214 C352.4563 216.3953 353.7704 218.5271 355 219 C357.4976 219.9606 364.5076 219.848 365 219 C368.0226 213.7945 373 188 373 188 "/>
<path id="11" d="M359 208 C359 208 358.7 213.4 359 214 C359.075 214.15 361.925 214.15 362 214 C362.3 213.4 362 208 362 208 "/>
<path id="12" d="M373 197 C373 197 378.1401 196.649 382 198 C387.408 199.8928 393 204 393 204 "/>
<path id="13" d="M353 208 C353 208 348.6467 206.9022 347 208 C334.375 216.4167 332.7778 222.3449 317 232 C300.2631 242.242 297.5549 239.3055 280 249 C264.4672 257.5778 265.2977 260.9012 250 269 C240.6883 273.9297 238.2661 271.367 229 276 C222.1923 279.4039 222.9586 282.3918 216 286 C196.7397 295.9868 175.0565 303.9587 175 304 C174.9851 304.0109 183.4065 302.9395 190 305 C206.0935 310.0292 212.0775 319.3413 223 319 C233.5661 318.6698 239.1995 311.8234 254 303 C264.9319 296.4829 263.9898 294.2391 275 288 C293.5743 277.4746 294.2063 277.3191 314 269 C328.4087 262.9442 329.4477 264.8946 344 259 C368.7497 248.9748 375.5007 246.2643 393 237 C394.3409 236.2901 394.1444 232.713 395 232 C395.555 231.5375 397.7265 232.6792 399 232 C403.8606 229.4077 410 224 410 224 "/>
<path id="14" d="M174 303 C174 303 175.2637 309.9582 177 311 C181.3185 313.5911 186.3816 311.863 194 315 C202.6277 318.5526 203.175 319.4107 211 325 C216.8803 329.2002 217.3716 331.9144 222 335 C223.0479 335.6986 225.8537 335.2926 226 335 C227.1338 332.7324 229 321 229 321 "/>
<path id="15" d="M226 336 C226 336 236.8781 334.6232 245 330 C268.0613 316.8728 267.1803 312.7421 291 299 C331.7846 275.4704 333.7822 275.6089 375 255 C378.4996 253.2502 380.0196 254.9074 383 253 C391.3373 247.6641 391.1739 244.6943 400 239 C406.0591 235.0909 407.7631 236.3019 414 233 C415.666 232.118 417 230.7053 417 230 C417 228.3544 414 223 414 223 "/>
<path id="16" d="M204 303 L205 303 "/>
<path id="17" d="M223 311 L223 309 "/>
</g>
</g>
</svg>
