<?xml version="1.0" encoding="utf-8"?>
<!DOCTYPE svg PUBLIC "-//W3C//DTD SVG 1.1//EN" "http://www.w3.org/Graphics/SVG/1.1/DTD/svg11.dtd">
<svg viewBox="0 0 800 800" preserveAspectRatio="xMinYMin meet" xmlns="http://www.w3.org/2000/svg" version="1.1">
<g fill="none" stroke="black" stroke-linecap="round" stroke-linejoin="round" stroke-width="0.72005">
<g transform="translate(87.52,154.1824) scale(4.1664) translate(-180.5,-56.6667)">
<path id="0" d="M282.5 64.6667 C282.5 64.6667 276.9362 71.7157 270.5 76.6667 C264.3903 81.3665 261.5319 79.8535 256.5 84.6667 C251.2963 89.6441 252.9387 93.0725 247.5 98.6667 C236.1975 110.2921 231.5459 110.9928 221.5 120.6667 C220.467 121.6614 221.1758 123.9908 220.5 124.6667 C219.8242 125.3425 217.573 124.6913 216.5 125.6667 C213.1818 128.6832 213.4919 131.055 209.5 134.6667 C203.4243 140.1637 201.7028 141.402 195.5 144.6667 C193.89 145.5141 190.5282 144.5369 190.5 144.6667 C189.9032 147.4119 189.8959 167.2891 190.5 167.6667 C191.2985 168.1657 203.3421 164.6877 214.5 159.6667 C222.7876 155.9373 222.1411 153.4662 230.5 149.6667 C249.1411 141.1935 250.9626 142.7264 269.5 134.6667 C273.2358 133.0424 272.8051 131.0878 276.5 129.6667 C291.3434 123.9577 293.5887 125.8797 308.5 119.6667 C316.8146 116.2023 324.5 109.6667 324.5 109.6667 "/>
<path id="1" d="M283.5 66.6667 C283.5 66.6667 294.5709 82.0355 294.5 83.6667 C294.472 84.3106 286.6205 85.5462 282.5 89.6667 C268.3071 103.8595 269.2507 108.5807 254.5 123.6667 C248.0966 130.2156 246.4384 130.5387 238.5 134.6667 C234.8305 136.5748 233.3421 134.8076 229.5 136.6667 C218.5955 141.943 218.0251 146.2399 207.5 149.6667 C198.9437 152.4524 186.5 150.6667 186.5 150.6667 "/>
<path id="2" d="M324.5 112.6667 C324.5 112.6667 321.2952 100.4895 319.5 99.6667 C316.5377 98.3089 306.9538 98.6415 300.5 101.6667 C294.3194 104.5638 294.5643 109.1531 287.5 114.6667 C274.4285 124.8688 273.2038 125.6728 259.5 133.6667 C256.2859 135.5416 254.922 133.8844 251.5 135.6667 C231.8273 145.9129 230.4602 149.5658 211.5 158.6667 C207.6069 160.5354 201.5 159.6667 201.5 159.6667 "/>
<path id="3" d="M251.5 100.6667 C251.5 100.6667 247.6111 98.9889 245.5 96.6667 C243.125 94.0542 242.5128 93.1103 241.5 89.6667 C240.2249 85.3312 239.692 82.6966 240.5 79.6667 C241.0257 77.6951 242.7864 76.0235 245.5 74.6667 C252.7362 71.0486 254.9143 72.6826 262.5 68.6667 C271.2799 64.0185 276.2658 57.6958 279.5 56.6667 C280.0296 56.4982 283.6748 59.3285 284.5 61.6667 C286.0069 65.9363 286.6499 70.7097 285.5 73.6667 C284.5977 75.987 281.064 77.8847 277.5 79.6667 C276.204 80.3147 274.2089 78.9951 273.5 79.6667 C267.8196 85.0481 266.4136 89.7531 258.5 97.6667 C254.9029 101.2638 249.5 103.6667 249.5 103.6667 "/>
<path id="4" d="M284.5 119.6667 C284.5 119.6667 281.0008 116.6701 280.5 114.6667 C279.9365 112.4129 280.4091 108.31 281.5 107.6667 C291.5909 101.7156 308.41 95.0993 319.5 91.6667 C320.293 91.4212 323.2365 93.4808 323.5 94.6667 C324.5165 99.2408 324.9666 107.3446 323.5 109.6667 C322.3679 111.4592 311.5 113.6667 311.5 113.6667 "/>
<path id="5" d="M195.5 144.6667 C195.5 144.6667 181.876 146.7403 180.5 148.6667 C178.9103 150.8923 179.3303 158.0634 180.5 165.6667 C181.1616 169.9671 182.7887 173.5665 184.5 174.6667 C186.2488 175.7909 190.1284 175.9338 194.5 174.6667 C222.8264 166.4561 253.5 154.6667 253.5 154.6667 "/>
<path id="6" d="M249.5 158.6667 C249.5 158.6667 255.6725 152.8306 262.5 149.6667 C275.4762 143.6533 277.978 145.7671 290.5 139.6667 C296.3605 136.8115 295.6168 133.6083 301.5 130.6667 C314.5948 124.1193 328.6217 121.8864 330.5 119.6667 C330.9797 119.0997 323.5 104.6667 323.5 104.6667 "/>
</g>
</g>
</svg>
