<?xml version="1.0" encoding="utf-8"?>
<!DOCTYPE svg PUBLIC "-//W3C//DTD SVG 1.1//EN" "http://www.w3.org/Graphics/SVG/1.1/DTD/svg11.dtd">
<svg viewBox="0 0 800 800" preserveAspectRatio="xMinYMin meet" xmlns="http://www.w3.org/2000/svg" version="1.1">
<g fill="none" stroke="black" stroke-linecap="round" stroke-linejoin="round" stroke-width="1.0369">
<g transform="translate(87.52,261.12) scale(2.8933) translate(-105,-167)">
<path id="0" d="M105 197 C105 197 103.3357 182.7093 106 177 C108.0916 172.5181 113.5255 167.3802 119 167 C171.3685 163.3633 185.4504 164.9954 250 167 C264.8589 167.4615 265.7992 168.0138 280 172 C293.6058 175.8192 295.793 176.3364 307 183 C312.5268 186.2862 313.9517 188.3388 317 194 C320.1915 199.927 320.2013 201.8117 321 209 C321.6148 214.5335 322.0493 217.0591 320 221 C316.8508 227.0562 314.6096 230.2821 308 234 C292.9841 242.4465 290.1554 243.409 272 248 C247.6539 254.1565 246.3468 254.087 221 256 C193.9851 258.0389 193.2142 254.3435 166 256 C136.1009 257.8199 106 263 106 263 "/>
<path id="1" d="M109 201 C109 201 113.2041 204.2408 117 205 C122.1762 206.0352 123.2436 204.1427 129 205 C146.2895 207.575 146.6948 210.9646 164 212 C204.0643 214.397 206.4731 213.2751 246 212 C251.349 211.8275 251.6236 209.3292 257 209 C275.2679 207.8816 295 209 295 209 "/>
<path id="2" d="M306 211 C306 211 305 216.9999 305 217 C305 217.0001 305.3118 214.4158 305 214 C304.6622 213.5496 302.0007 213.0007 302 213 C301.9997 212.9997 303.9611 213.1038 304 213 C304.4349 211.8404 305.3927 206.9635 305 205 C304.8691 204.3455 302.0521 202.9826 302 203 C301.9777 203.0074 302 206 302 206 "/>
<path id="3" d="M305 211 C305 211 294.1248 219.3347 283 222 C248.2849 230.3172 245.7626 231.1539 209 234 C169.2587 237.0767 167.6786 232.76 128 234 C120.6062 234.2311 119.6082 236.2658 113 237 C111.755 237.1383 110.1792 236.4182 110 236 C109.5295 234.9023 110 230 110 230 C110 230.0001 107 262 107 262 "/>
<path id="4" d="M125 241 C125 241 122 250 122 250 C122 250 125 239 125 239 "/>
</g>
</g>
</svg>
