<?xml version="1.0" encoding="utf-8"?>
<!DOCTYPE svg PUBLIC "-//W3C//DTD SVG 1.1//EN" "http://www.w3.org/Graphics/SVG/1.1/DTD/svg11.dtd">
<svg viewBox="0 0 800 800" preserveAspectRatio="xMinYMin meet" xmlns="http://www.w3.org/2000/svg" version="1.1">
<g fill="none" stroke="black" stroke-linecap="round" stroke-linejoin="round" stroke-width="0.83525">
<g transform="translate(87.52,236.5766) scale(3.5917) translate(-146,-217)">
<path id="0" d="M146 224 C146 224 149.6296 227.5739 151 231 C152.2791 234.1977 151.5941 238.9145 152 239 C157.5955 240.178 186.5614 240.5779 189 239 C189.7405 238.5209 187.9567 218.2661 186 217 C182.4806 214.7228 167.7199 215.092 155 217 C150.9378 217.6093 146 223 146 223 "/>
<path id="1" d="M185 218 C185 218 196.1644 217.0712 207 218 C230.8946 220.0481 232.4597 218.3649 255 224 C275.0358 229.009 277.7277 230.1727 295 240 C304.7338 245.5382 312.1164 256.0059 313 257 C313.0208 257.0234 311 258 311 258 "/>
<path id="2" d="M190 240 C190 240 194.5769 242.5979 199 243 C221.029 245.0026 222.8132 241.9493 245 245 C261.8948 247.323 262.3314 250.8746 279 254 C285.539 255.2261 287.1089 253.0698 293 254 C295.3033 254.3637 295.8335 256.7451 298 257 C302.8091 257.5658 309.9287 255.9733 310 256 C310.0153 256.0058 306 260 306 260 "/>
<path id="3" d="M158 281 C158 281 195.3409 282.5939 232 281 C252.4188 280.1122 253.3056 280.3765 273 276 C293.0581 271.5426 295.3951 269.5507 313 263 C314.6162 262.3986 316.0064 260.0193 316 260 C315.9957 259.9871 312 260 312 260 "/>
<path id="4" d="M159 284 C159 284 161.4274 287.5645 162 291 C163.3106 298.8634 162.0391 307.5607 163 308 C166.6746 309.6798 194.3823 308.7179 197 307 C197.8403 306.4485 195 287 195 287 "/>
<path id="5" d="M199 308 C199 308 244.0282 300.575 289 295 C304.3395 293.0984 317.3634 295.2964 320 293 C321.7534 291.4728 321.3424 278.7395 320 268 C319.5973 264.7782 316 261 316 261 "/>
<path id="6" d="M312 254 C312 254 316.0359 258.0538 318 261 C318.3571 261.5357 318.1 262.95 318 263 C317.6 263.2 314 263 314 263 "/>
<path id="7" d="M171 305 C171 305 168.6864 295.2851 169 295 C169.575 294.4773 180.3943 293.7958 182 295 C183.4821 296.1116 185 307 185 307 "/>
<path id="8" d="M160 245 C160 245 160.7436 254.9812 161 255 C179.0557 256.3211 283 254 283 254 "/>
<path id="9" d="M163 246 L163 244 "/>
<path id="10" d="M298 255 L298 269 "/>
<path id="11" d="M307 283 C307 283 307.2811 278.7189 308 278 C308.7189 277.2811 312.1964 276.5982 313 277 C313.9822 277.4911 316.0682 281.5226 316 282 C315.9616 282.2685 312 284 312 284 "/>
<path id="12" d="M306 282 L315 281 "/>
<path id="13" d="M175 249 L181 249 "/>
</g>
</g>
</svg>
