<?xml version="1.0" encoding="utf-8"?>
<!DOCTYPE svg PUBLIC "-//W3C//DTD SVG 1.1//EN" "http://www.w3.org/Graphics/SVG/1.1/DTD/svg11.dtd">
<svg viewBox="0 0 800 800" preserveAspectRatio="xMinYMin meet" xmlns="http://www.w3.org/2000/svg" version="1.1">
<g fill="none" stroke="black" stroke-linecap="round" stroke-linejoin="round" stroke-width="0.91686">
<g transform="translate(87.52,177.5012) scale(3.272) translate(-207,-137)">
<path id="0" d="M322 139 C322 139 296.8618 138.8479 279 142 C275.2828 142.656 274.6395 146.6352 271 148 C268.1595 149.0652 266.6088 147.1222 263 148 C248.9307 151.4223 243.9771 152.8161 234 157 C232.8805 157.4695 233.134 160.244 232 161 C229.975 162.35 227.1098 161.5232 225 163 C223.3675 164.1428 223.8275 166.5942 222 168 C218.304 170.8431 214.4773 170.0272 212 173 C208.8104 176.8275 207.6245 179.7549 207 186 C205.2884 203.1163 206.7507 218.3885 207 223 C207.0007 223.0135 208.9053 223.1578 209 223 C209.4418 222.2636 209.4695 218.3316 210 218 C210.9002 217.4374 216.191 218.2311 217 218 C217.066 217.9811 216.8884 216.0406 217 216 C218.7993 215.3457 226.2007 214.6543 228 214 C228.1116 213.9594 227.9419 212.0116 228 212 C230.9642 211.4072 238.5721 211.9999 248 210 C254.4904 208.6232 254.3887 206.5916 261 205 C280.9804 200.1899 281.9529 202.0824 302 197 C317.1583 193.157 316.8864 191.0483 332 187 C344.6442 183.6132 348.3486 185.2171 358 182 C359.9768 181.3411 359.8731 177.8801 362 177 C371.7766 172.9545 382.6982 173.3091 387 170 C388.5574 168.802 389.733 159.4758 388 157 C383.4349 150.4785 377.0318 147.3545 366 140 C362.6905 137.7936 361.8274 137.261 358 137 C341.2059 135.8549 322 137 322 137 "/>
<path id="1" d="M217 216 C217 216 216.7596 224.7981 217 226 C217.0096 226.0481 218.9171 225.8343 219 226 C219.9529 227.9059 221.2117 235.8108 222 236 C225.0715 236.7372 233.4688 235.0379 244 232 C259.0883 227.6476 258.9721 224.5781 274 221 C289.6422 217.2757 292.0004 220.409 307 217 C312.469 215.757 312.3557 213.0028 318 211 C327.361 207.6784 330.9022 209.5489 338 206 C341.1546 204.4227 340.5149 200.4686 344 198 C351.2814 192.8423 355.7753 193.3573 362 189 C363.4089 188.0138 362.5486 185.1289 364 184 C369.6686 179.5911 373.8216 179.4622 380 175 C381.3425 174.0304 381.3578 171.1376 382 171 C384.6491 170.4323 392.9829 170.9047 394 172 C395.1666 173.2564 395.7348 184.2652 395 185 C394.0203 185.9797 380.9278 186.8698 380 186 C378.9444 185.0103 378.8153 170.9237 379 170 C379.0023 169.9883 383 171 383 171 "/>
<path id="2" d="M222 258 C222 258 227.5586 272.3514 229 273 C230.0797 273.4859 235.4192 268.828 242 267 C252.8184 263.9949 254.8325 266.2895 265 263 C270.5515 261.2039 270.633 258.2598 276 256 C279.2405 254.6356 280.585 256.4379 284 255 C316.8694 241.1602 318.6511 240.5215 352 224 C372.9614 213.6154 374.4278 212.7086 393 201 C395.939 199.1472 397.5838 197.2196 398 195 C398.5774 191.9205 396 185 396 185 "/>
<path id="3" d="M225 256 C225 256 234.0899 255.7107 238 254 C239.4619 253.3604 239.2652 250.1152 241 249 C244.7885 246.5645 247.2665 247.6297 252 245 C255.6993 242.9448 255.2795 240.4709 259 239 C275.0174 232.6675 276.9582 232.5925 295 228 C304.19 225.6607 304.9404 227.5431 314 225 C333.0164 219.6621 333.4382 219.1392 352 212 C359.2056 209.2286 360.8356 209.0772 366 205 C368.9929 202.6372 367.9576 199.1905 371 197 C378.6909 191.4626 391 187 391 187 "/>
</g>
</g>
</svg>
