<?xml version="1.0" encoding="utf-8"?>
<!DOCTYPE svg PUBLIC "-//W3C//DTD SVG 1.1//EN" "http://www.w3.org/Graphics/SVG/1.1/DTD/svg11.dtd">
<svg viewBox="0 0 800 800" preserveAspectRatio="xMinYMin meet" xmlns="http://www.w3.org/2000/svg" version="1.1">
<g fill="none" stroke="black" stroke-linecap="round" stroke-linejoin="round" stroke-width="1.0369">
<g transform="translate(87.52,188.7867) scale(2.8933) translate(-183,-141)">
<path id="0" d="M217 146 C217 146 241.3258 160.5097 264 177 C296.1588 200.3882 295.0677 203.1912 327 226 C336.4028 232.7163 348 237 348 237 "/>
<path id="1" d="M217 146 C217 146 192.2612 168.7569 191 172 C190.8137 172.479 196.6312 177.8204 203 182 C212.3388 188.1286 214.7627 187.1653 223 193 C225.4452 194.732 224.501 196.8797 227 199 C240.1029 210.1176 242.412 209.3532 256 221 C263.0982 227.0842 261.7443 229.3273 269 235 C288.5966 250.321 291.289 249.3216 311 264 C313.9346 266.1853 315.2347 270 316 270 C317.3775 270 321.5022 267.4978 325 264 C328.9642 260.0358 328.1463 257.5968 332 254 C334.7683 251.4162 337.2014 252.634 340 250 C344.8277 245.4563 349 238 349 238 "/>
<path id="2" d="M190 172 C190 172 190.8379 181.4362 189 188 C187.7943 192.306 182.5193 195.9103 183 197 C185.5928 202.8771 192.8329 212.7395 204 222 C211.349 228.0943 215.9889 224.9116 224 231 C239.5326 242.8048 238.0264 247.2211 254 260 C272.4957 274.7966 276.8191 276.4572 294 287 C295.2149 287.7455 296.9286 287.6428 298 287 C300.5714 285.4572 302.4572 283.5714 304 281 C304.6428 279.9286 303.3957 277.6043 304 277 C307.0214 273.9786 315.8137 269.1863 316 269 C316.0186 268.9814 313 268 313 268 "/>
<path id="3" d="M312 282 L307 282 "/>
<path id="4" d="M299 286 C299 286 312.643 277.7071 325 274 C330.8445 272.2466 332.5083 274.9987 339 274 C344.8497 273.1 348.4488 271.9625 351 270 C351.9502 269.2691 352.6447 266.3209 352 264 C348.2759 250.5931 341 234 341 234 "/>
<path id="5" d="M215 145 C215 145 220.7593 141.2096 226 141 C267.7943 139.3282 273.4263 135.4568 315 141 C344.74 144.9653 346.9613 149.6051 376 161 C385.4126 164.6936 385.9939 166.0824 394 172 C396.8907 174.1366 397.782 175.3204 399 178 C399.7361 179.6195 399.7773 182.0813 399 183 C396.3092 186.18 390.0804 191.3901 388 191 C382.8265 190.03 377.8352 182.0718 367 177 C355.303 171.5248 354.1242 171.5943 341 169 C311.6032 163.189 310.9057 162.5781 281 160 C253.4019 157.6209 252.0796 160.6167 225 159 C219.5999 158.6776 214 156 214 156 "/>
<path id="6" d="M212 159 L216 146 "/>
<path id="7" d="M356 175 C356 175 351.6406 184.6821 352 185 C355.0778 187.7227 376.5611 196.8802 382 198 C382.4602 198.0947 386 192 386 192 "/>
<path id="8" d="M324 240 C324 240 317.3309 237.6765 312 234 C303.1949 227.9275 299.464 221.86 295 220 C293.9573 219.5656 290.86 221.6166 288 224 C285.2322 226.3065 283 229.7949 283 230 C283 230.0342 286.2309 229.8206 288 231 C299.7594 238.8396 305.861 246.3154 313 250 C313.913 250.4713 317.8068 248.6406 319 247 C320.532 244.8936 321 239 321 239 "/>
<path id="9" d="M317 236 L308 245 "/>
<path id="10" d="M311 234 C311 234 307.9319 238.1342 305 240 C303.3169 241.0711 300 241 300 241 "/>
<path id="11" d="M301 231 L294 240 "/>
<path id="12" d="M297 225 L289 233 "/>
</g>
</g>
</svg>
