<?xml version="1.0" encoding="utf-8"?>
<!DOCTYPE svg PUBLIC "-//W3C//DTD SVG 1.1//EN" "http://www.w3.org/Graphics/SVG/1.1/DTD/svg11.dtd">
<svg viewBox="0 0 800 800" preserveAspectRatio="xMinYMin meet" xmlns="http://www.w3.org/2000/svg" version="1.1">
<g fill="none" stroke="black" stroke-linecap="round" stroke-linejoin="round" stroke-width="0.56644">
<g transform="translate(87.52,129.8902) scale(5.2963) translate(-244,-92.1333)">
<path id="0" d="M244 132.1333 C244 132.1333 243.2121 126.5982 244 122.1333 C244.5933 118.7716 244.8531 117.6827 247 115.1333 C252.1714 108.9922 253.1978 107.9516 260 103.1333 C264.6007 99.8745 265.3806 99.76 271 98.1333 C283.9734 94.3779 284.6618 93.8006 298 92.1333 C308.0937 90.8716 308.7232 91.322 319 92.1333 C327.4352 92.7993 328.5729 92.4101 336 95.1333 C342.5381 97.5306 345.6382 98.3492 349 103.1333 C356.4819 113.7807 359.0388 118.2386 362 132.1333 C364.9826 146.1285 363.1055 149.0248 362 164.1333 C361.6815 168.4863 361.0783 169.2077 359 173.1333 C356.8063 177.2771 356.451 178.4089 353 181.1333 C347.8088 185.2316 346.1971 187.0316 340 188.1333 C326.0008 190.6221 308 189.1333 308 189.1333 "/>
<path id="1" d="M246 126.1333 C246 126.1333 241.9534 148.9304 244 164.1333 C244.8251 170.2626 248.2934 172.7992 253 178.1333 C254.7792 180.1497 256.943 179.3049 259 181.1333 C260.7669 182.7039 260.158 184.7825 262 186.1333 C266.5313 189.4563 268.2561 191.38 274 192.1333 C296.1288 195.0355 323 194.1333 323 194.1333 "/>
<path id="2" d="M271 144.1333 C271 144.1333 270.8642 141.1915 271 141.1333 C271.7392 140.8165 277.3404 140.7564 278 141.1333 C278.2154 141.2564 278.25 144.8833 278 145.1333 C277.75 145.3833 274.4707 145.5099 274 145.1333 C273.5058 144.7379 273 141.1333 273 141.1333 "/>
<path id="3" d="M323 119.1333 C323 119.1333 332.5086 118.3876 334 119.1333 C334.5423 119.4045 335.0826 124.638 335 125.1333 C334.9953 125.1616 333.0947 125.2911 333 125.1333 C332.5582 124.3969 332 120.1333 332 120.1333 "/>
<path id="4" d="M315 158.1333 C315 158.1333 318.8049 157.8894 319 158.1333 C319.3049 158.5144 319.062 163.0714 319 163.1333 C318.9876 163.1457 316.2719 161.9491 316 161.1333 C315.3655 159.2299 316 154.1333 316 154.1333 "/>
<path id="5" d="M297 109.1333 C297 109.1333 297.3375 117.1208 297 118.1333 C296.9625 118.2458 294.135 118.3133 294 118.1333 C293.76 117.8133 294 114.1333 294 114.1333 "/>
<path id="6" d="M279 175.1333 C279 175.1333 282.9501 176.0585 283 176.1333 C283.0091 176.1469 281 178.1333 281 178.1333 "/>
<path id="7" d="M346 155.1333 C346 155.1333 347.9655 155.0471 348 155.1333 C348.2155 155.6721 348 160.1333 348 160.1333 "/>
<path id="8" d="M266 117.1333 L263 121.1333 "/>
<path id="9" d="M254 155.1333 C254 155.1333 257.8508 154.0214 258 154.1333 C258.1377 154.2366 258 158.1333 258 158.1333 "/>
<path id="10" d="M315 134.1333 L313 135.1333 "/>
<path id="11" d="M338 176.1333 C338 176.1333 339.1119 172.2825 339 172.1333 C338.8967 171.9956 335.4 172.3333 335 172.1333 C334.9 172.0833 335 170.1333 335 170.1333 "/>
</g>
</g>
</svg>
