<?xml version="1.0" encoding="utf-8"?>
<!DOCTYPE svg PUBLIC "-//W3C//DTD SVG 1.1//EN" "http://www.w3.org/Graphics/SVG/1.1/DTD/svg11.dtd">
<svg viewBox="0 0 800 800" preserveAspectRatio="xMinYMin meet" xmlns="http://www.w3.org/2000/svg" version="1.1">
<g fill="none" stroke="black" stroke-linecap="round" stroke-linejoin="round" stroke-width="0.56164">
<g transform="translate(111.5569,87.52) scale(5.3415) translate(-252,-250.1333)">
<path id="0" d="M311 367.1333 C311 367.1333 293.0784 369.1305 280 366.1333 C271.9209 364.2819 269.3797 362.0405 263 356.1333 C257.1962 350.7594 254.4194 348.1013 253 341.1333 C249.7338 325.0994 249.8381 320.2397 252 302.1333 C253.6167 288.5936 254.2358 284.4911 261 274.1333 C268.1921 263.1205 273.2545 256.9825 284 253.1333 C299.8687 247.449 314.291 246.9346 328 250.1333 C334.3216 251.6084 337.1955 258.1513 344 267.1333 C349.3318 274.1713 350.5933 275.0106 353 283.1333 C358.1669 300.5715 358.163 302.4569 360 321.1333 C361.0874 332.1888 360.5898 333.3227 359 344.1333 C358.2041 349.5455 357.748 351.2403 355 355.1333 C352.6847 358.4134 350.8664 360.2827 347 361.1333 C329.1201 365.0669 324.4685 364.9414 305 366.1333 C301.8351 366.3271 298 364.1333 298 364.1333 "/>
</g>
</g>
</svg>
