<?xml version="1.0" encoding="utf-8"?>
<!DOCTYPE svg PUBLIC "-//W3C//DTD SVG 1.1//EN" "http://www.w3.org/Graphics/SVG/1.1/DTD/svg11.dtd">
<svg viewBox="0 0 800 800" preserveAspectRatio="xMinYMin meet" xmlns="http://www.w3.org/2000/svg" version="1.1">
<g fill="none" stroke="black" stroke-linecap="round" stroke-linejoin="round" stroke-width="1.4401">
<g transform="translate(132.3088,87.52) scale(2.0832) translate(-213,-61.6333)">
<path id="0" d="M357 297.6333 C357 297.6333 328.8815 299.898 303 297.6333 C290.245 296.5173 289.2292 295.2533 277 290.6333 C267.2755 286.9596 264.5393 287.1726 258 280.6333 C244.6959 267.3292 241.9131 264.4596 233 246.6333 C220.3491 221.3316 218.5478 217.8173 213 190.6333 C209.1218 171.6304 210.6542 168.7027 213 148.6333 C215.0136 131.4062 215.9196 128.6742 222 113.6333 C224.5246 107.3884 227.3943 105.6249 232 101.6333 C233.3245 100.4854 236.3675 101.1393 237 100.6333 C237.2617 100.424 236.5439 98.0324 237 97.6333 C241.452 93.7379 244.6988 91.5164 253 86.6333 C270.0587 76.5988 271.1518 75.6563 288 67.6333 C290.8596 66.2716 292.8412 67.5928 295 66.6333 C295.9666 66.2037 296.3135 63.6824 297 63.6333 C318.1272 62.1242 331.7254 60.3535 365 61.6333 C382.749 62.316 383.2731 63.9013 401 67.6333 C411.5911 69.863 413.7105 68.8669 422 73.6333 C431.7558 79.2429 433.0435 81.722 441 90.6333 C444.8319 94.925 444.2105 97.914 447 101.6333 C447.5849 102.4132 449.6148 101.9329 450 102.6333 C453.4018 108.8185 455.1112 112.606 458 121.6333 C458.8039 124.1456 457.775 126.9583 458 127.6333 C458.025 127.7083 459.9996 127.6234 460 127.6333 C460.519 141.1281 468.5094 191.689 462 231.6333 C459.808 245.0841 438 262.6333 438 262.6333 "/>
<path id="1" d="M362 298.6333 C362 298.6333 360.0406 298.7449 360 298.6333 C359.3457 296.834 358.4588 293.1392 358 287.6333 C355.9764 263.35 355.7008 245.5014 355 238.6333 C354.9971 238.6049 353.021 238.7175 353 238.6333 C351.2327 231.564 350.2828 217.9 345 198.6333 C341.9365 187.4607 335.996 176.6343 336 176.6333 C336.0185 176.6287 345.9613 187.287 357 195.6333 C366.0746 202.4946 371.6786 203.6423 377 207.6333 C377.4129 207.943 376.5319 210.2173 377 210.6333 C382.1879 215.2448 386.7942 216.5594 395 223.6333 C400.9969 228.8031 399.817 230.9617 406 235.6333 C421.5979 247.4184 426.6737 247.6386 440 257.6333 C441.5174 258.7713 442 262.6333 442 262.6333 "/>
<path id="2" d="M368 233.6333 C368 233.6333 378.8773 260.8868 385 287.6333 C388.1155 301.2432 385.5053 307.3661 387 316.6333 C387.1266 317.4183 389.8264 317.8001 390 318.6333 C391.4824 325.7488 390.1962 330.5323 392 340.6333 C392.5273 343.5862 394.5963 343.8071 395 346.6333 C395.9421 353.2279 395 361.6333 395 361.6333 "/>
<path id="3" d="M372 238.6333 C372 238.6333 393.936 260.5907 418 276.6333 C437.791 289.8273 456.8117 293.172 462 298.6333 C463.0002 299.6862 460.7137 310.1316 456 316.6333 C447.8432 327.884 443.4416 327.1813 433 338.6333 C428.3116 343.7754 429.6426 346.5963 425 350.6333 C419.4705 355.4416 417.0847 356.7441 410 358.6333 C403.7975 360.2873 395 358.6333 395 358.6333 "/>
<path id="4" d="M257 123.1333 C257 123.1333 261.5986 124.9291 262 126.1333 C263.0322 129.2298 262.956 134.5483 262 138.1333 C261.676 139.3483 259.8225 140.5258 258 141.1333 C256.1775 141.7408 254.359 141.9261 253 141.1333 C249.9876 139.3761 246.7409 136.6524 246 134.1333 C245.2302 131.5161 246.7336 125.6811 248 124.1333 C248.7321 123.2385 255 123.1333 255 123.1333 "/>
<path id="5" d="M277 210.1333 C277 210.1333 273.7916 206.904 273 204.1333 C272.1134 201.0302 272.1086 199.0305 273 196.1333 C273.6943 193.8769 275.9098 191.2891 277 191.1333 C279.2134 190.8171 286.5101 193.0922 287 194.1333 C287.8303 195.8977 286.5342 204.6267 285 208.1333 C284.5681 209.1205 281.0544 210.3676 280 210.1333 C278.8685 209.8819 276 206.1333 276 206.1333 "/>
<path id="6" d="M352 95.1333 C352 95.1333 354.7823 91.6002 357 91.1333 C362.3146 90.0145 365.1306 89.8574 371 91.1333 C375.2289 92.0527 377.8086 93.394 380 96.1333 C382.2274 98.9175 383.3654 102.8445 383 106.1333 C382.6766 109.0441 380.0704 112.6276 378 114.1333 C376.8517 114.9685 373.6071 115.0976 372 114.1333 C368.143 111.8191 365.1105 109.3543 363 105.1333 C361.2022 101.5377 362 94.1333 362 94.1333 "/>
<path id="7" d="M412 171.1333 C412 171.1333 407.5695 169.3862 407 168.1333 C406.1359 166.2324 406.0332 162.067 407 160.1333 C407.846 158.4414 410.2287 156.986 413 156.1333 C415.6829 155.3078 417.6168 155.2167 420 156.1333 C422.6975 157.1708 425.3342 159.025 426 161.1333 C427.3519 165.4143 426.8502 174.0513 426 175.1333 C425.4752 175.8013 418.83 176.41 415 175.1333 C411.8663 174.0888 408 169.1333 408 169.1333 "/>
<path id="8" d="M325 153.1333 C325 153.1333 326.9611 153.0295 327 153.1333 C327.4349 154.2929 327.4533 160.655 328 161.1333 C328.4185 161.4996 332.2631 161.2737 335 160.1333 C337.4601 159.1083 339.3953 157.8264 340 156.1333 C341.0451 153.207 341.0011 147.4348 340 146.1333 C338.9296 144.7418 330 143.1333 330 143.1333 "/>
<path id="9" d="M303 100.1333 C303 100.1333 292.2934 107.9813 288 113.1333 C287.1582 114.1435 288 118.1333 288 118.1333 "/>
<path id="10" d="M295 154.1333 L298 163.1333 "/>
<path id="11" d="M326 214.1333 L325 221.1333 "/>
<path id="12" d="M312 280.1333 L310 278.1333 "/>
<path id="13" d="M288 265.1333 L283 261.1333 "/>
<path id="14" d="M227 198.1333 L231 194.1333 "/>
<path id="15" d="M440 113.1333 C440 113.1333 435.5742 113.9405 433 116.1333 C423.0225 124.6327 413 136.1333 413 136.1333 "/>
<path id="16" d="M385 156.1333 L385 153.1333 "/>
<path id="17" d="M327 86.1333 L327 81.1333 "/>
<path id="18" d="M448 220.1333 L446 221.1333 "/>
<path id="19" d="M403 289.1333 C403 289.1333 402.9236 293.9805 403 294.1333 C403 294.1333 404.7937 293.6491 405 293.1333 C406.1231 290.3255 407 287.6822 407 284.1333 C407 282.556 406.2841 281.1606 405 280.1333 C402.2341 277.9206 397.1914 276.0057 397 276.1333 C396.7248 276.3168 396 286.1333 396 286.1333 "/>
<path id="20" d="M407 336.1333 C407 336.1333 403.02 334.7361 402 333.1333 C400.47 330.7291 400 328.2283 400 325.1333 C400 323.5858 401.0332 321.6167 402 321.1333 C404.0545 320.1061 409.5838 319.7172 410 320.1333 C410.654 320.7873 411.808 327.1034 411 330.1333 C410.4743 332.1049 406 335.1333 406 335.1333 "/>
<path id="21" d="M431 316.1333 L432 316.1333 "/>
<path id="22" d="M421 308.1333 L420 308.1333 "/>
<path id="23" d="M400 296.1333 C400 296.1333 397 296.1333 397 296.1333 C397 296.133 400 295.1333 400 295.1333 "/>
<path id="24" d="M427 289.1333 C427 289.1333 426.7987 295.6283 428 300.1333 C428.5118 302.0526 431 304.1333 431 304.1333 "/>
<path id="25" d="M441 311.1333 L441 321.1333 "/>
<path id="26" d="M421 334.1333 L421 335.1333 "/>
<path id="27" d="M357 298.1333 C357 298.1333 357.1113 306.1203 357 306.1333 C349.8592 306.9664 322.5373 310.9488 297 305.1333 C277.4912 300.6907 273.1297 294.4316 256 283.1333 C252.3167 280.7039 253.4326 277.3371 250 274.1333 C246.7422 271.0927 241 269.1333 241 269.1333 "/>
<path id="28" d="M443 256.1333 C443 256.1333 453.1417 255.0389 456 253.1333 C457.2704 252.2864 457.2875 247.3801 458 246.1333 C458.1 245.9583 459.9981 246.1549 460 246.1333 C460.2481 243.2799 460.0798 223.692 460 223.1333 C459.9945 223.0952 457.4962 224.1409 457 225.1333 C456.0784 226.9765 456 231.1333 456 231.1333 "/>
<path id="29" d="M445 263.1333 C445 263.1333 451.5412 265.5792 456 265.1333 C459.8808 264.7453 462.0049 263.7005 465 261.1333 C467.8574 258.6842 469.8361 256.6405 470 253.1333 C471.9705 210.9636 470.2499 166.5033 470 154.1333 C469.9999 154.1283 468.0677 154.2881 468 154.1333 C466.5929 150.917 464.8967 146.1941 463 138.1333 C460.9345 129.3548 462.252 127.211 460 120.1333 C459.3736 118.1645 456 116.1333 456 116.1333 "/>
</g>
</g>
</svg>
