<?xml version="1.0" encoding="utf-8"?>
<!DOCTYPE svg PUBLIC "-//W3C//DTD SVG 1.1//EN" "http://www.w3.org/Graphics/SVG/1.1/DTD/svg11.dtd">
<svg viewBox="0 0 800 800" preserveAspectRatio="xMinYMin meet" xmlns="http://www.w3.org/2000/svg" version="1.1">
<g fill="none" stroke="black" stroke-linecap="round" stroke-linejoin="round" stroke-width="1.4209">
<g transform="translate(101.2438,87.52) scale(2.1114) translate(-128,-92.1333)">
<path id="0" d="M242 95.1333 C242 95.1333 233.2568 95.631 226 98.1333 C219.4336 100.3976 218.9845 101.019 213 105.1333 C195.2356 117.3464 193.0574 116.9617 178 131.1333 C168.7064 139.8802 168.1786 141.5733 162 153.1333 C153.0982 169.7883 155.1324 172.094 147 189.1333 C144.953 193.4223 141 197.1333 141 197.1333 "/>
<path id="1" d="M141 197.1333 C141 197.1333 134.6187 215.7881 133 234.1333 C130.2058 265.801 131.5679 268.0226 132 299.1333 C132.0467 302.4977 132.2274 303.3938 134 306.1333 C142.5363 319.3259 143.4077 321.1743 154 333.1333 C158.2031 337.8787 165 341.1333 165 341.1333 "/>
<path id="2" d="M165 341.1333 C165 341.1333 181.305 354.2494 199 362.1333 C230.7087 376.261 232.9836 376.4881 266 386.1333 C276.0748 389.0765 288 388.1333 288 388.1333 "/>
<path id="3" d="M235 96.1333 C235 96.1333 259.2577 94.4611 282 96.1333 C292.3394 96.8936 293.2434 97.3222 303 101.1333 C324.5986 109.5703 326.8422 109.3439 346 121.1333 C357.8837 128.4464 358.6258 130.1367 368 141.1333 C384.1035 160.024 385.4464 161.3207 398 182.1333 C403.6985 191.5809 403.1835 193.149 406 204.1333 C408.0508 212.1315 407.6743 212.6658 408 221.1333 C408.6675 238.488 410.0247 239.4295 408 256.1333 C406.1506 271.3909 405.4396 272.5452 400 287.1333 C394.6825 301.394 394.1681 302.2624 386 315.1333 C378.0151 327.7157 377.7441 329.1302 367 339.1333 C349.6069 355.3269 346.6094 359.3856 328 369.1333 C319.3027 373.6891 314.4273 368.8271 304 372.1333 C295.5705 374.8061 295.482 378.2186 287 382.1333 C283.1061 383.9305 282.3749 384.0008 278 384.1333 C266.4262 384.4841 254 383.1333 254 383.1333 "/>
<path id="4" d="M245 227.1333 C245 227.1333 244.0792 222.6297 245 221.1333 C246.8298 218.1599 249.0508 215.5438 253 214.1333 C260.9253 211.3029 271.3706 210.3574 273 211.1333 C273.6309 211.4338 272.9206 220.0858 274 224.1333 C274.2278 224.9876 277.0145 226.1309 277 226.1333 C276.8517 226.158 260.4065 229.0516 250 228.1333 C247.1131 227.8786 243 223.1333 243 223.1333 "/>
<path id="5" d="M238 273.1333 L246 275.1333 "/>
<path id="6" d="M246 275.1333 C246 275.1333 240.4492 277.276 238 280.1333 C235.4328 283.1284 235.1474 284.8304 234 289.1333 C233.3161 291.698 233.1887 294.1418 234 295.1333 C235.6717 297.1766 241.8312 298.3801 243 300.1333 C243.673 301.1428 241.881 307.0917 242 307.1333 C243.7239 307.7367 254.6157 308.1394 263 307.1333 C264.7407 306.9244 267.0178 304.1622 267 304.1333 C266.4256 303.1999 255.5802 295.8738 255 294.1333 C254.7514 293.3874 261.234 286.5588 261 286.1333 C259.9371 284.2008 244 274.1333 244 274.1333 "/>
<path id="7" d="M356 232.1333 C356 232.1333 350.7572 228.1457 349 225.1333 C348.2073 223.7744 348.324 221.6543 349 220.1333 C349.7811 218.3758 350.789 217.2915 353 216.1333 C360.4968 212.2064 362.6579 213.2832 370 209.1333 C373.2903 207.2736 373.2032 204.1637 376 203.1333 C380.5538 201.4556 384.6817 201.5935 389 202.1333 C390.132 202.2748 392.0782 204.7422 392 205.1333 C391.7393 206.437 387.2382 209.5127 387 212.1333 C386.5293 217.3107 390.2104 223.3457 390 227.1333 C389.9543 227.9561 388.1413 229.16 386 230.1333 C377.5437 233.9771 377.0053 234.6773 368 237.1333 C360.9685 239.051 353.7132 239.7515 353 239.1333 C352.3011 238.5276 353 224.1333 353 224.1333 "/>
<path id="8" d="M226 161.1333 C226 161.1333 210.9508 150.2417 211 150.1333 C211.2633 149.554 228.8601 143.5271 236 139.1333 C236.9163 138.5695 236.6127 134.3546 237 134.1333 C237.5451 133.8219 242.8013 134.6366 243 135.1333 C243.8182 137.1788 244.3761 143.1704 243 149.1333 C241.6844 154.8342 239.541 159.6087 237 161.1333 C234.305 162.7504 223 161.1333 223 161.1333 "/>
<path id="9" d="M174 227.1333 C174 227.1333 165.3854 219.2164 165 216.1333 C164.6106 213.0184 171.0449 203.2142 171 203.1333 C170.9902 203.1157 164.1036 204.2608 160 207.1333 C155.2422 210.4638 153.445 212.7866 151 217.1333 C150.0261 218.8648 150.0785 221.2904 151 223.1333 C152.7661 226.6656 156.582 228.2973 158 231.1333 C158.4316 231.9965 156.9679 235.1219 157 235.1333 C158.1518 235.5447 169.6157 236.9748 172 236.1333 C172.7277 235.8765 174.1583 230.5581 174 229.1333 C173.9455 228.6428 171 227.1333 171 227.1333 "/>
<path id="10" d="M194 216.1333 C194 216.1333 191 214.4492 191 214.1333 C191 213.1857 192.5792 208.8984 194 208.1333 C196.4031 206.8394 203.5654 206.7953 204 207.1333 C204.2461 207.3247 204.0395 213.8339 203 215.1333 C202.1022 216.2555 196 217.1333 196 217.1333 "/>
<path id="11" d="M189 304.1333 C189 304.1333 183.4621 298.0803 181 297.1333 C180.0258 296.7586 176.1186 298.5109 176 299.1333 C175.2446 303.0991 175.8848 314.9471 177 318.1333 C177.1787 318.6438 182.2327 318.366 183 319.1333 C183.7673 319.9006 183.0498 324.4024 184 325.1333 C186.5512 327.0958 190.1507 328.1161 196 329.1333 C201.0681 330.0147 202.417 329.9926 207 329.1333 C209.3175 328.6988 211.7692 326.9797 212 326.1333 C212.3943 324.6874 211.6829 321.4992 210 318.1333 C207.4756 313.0846 206.8564 312.7128 203 308.1333 C198.9776 303.3568 197.6719 301.8873 194 299.1333 C193.3006 298.6088 191 299.1333 191 299.1333 "/>
<path id="12" d="M283 272.1333 C283 272.1333 286.1018 267.6939 289 266.1333 C291.3668 264.8589 294.2504 264.1856 296 265.1333 C302.6599 268.7408 313.1855 278.1795 313 279.1333 C312.5375 281.5118 299.0983 291.035 289 301.1333 C288.1219 302.0114 287.7032 303.651 288 304.1333 C289.934 307.2762 294.1144 309.9652 297 314.1333 C297.5334 314.9037 297.4479 316.6108 297 317.1333 C295.6351 318.7258 291.0129 321.2123 291 321.1333 C290.7995 319.9015 290 274.1333 290 274.1333 "/>
<path id="13" d="M366 291.1333 C366 291.1333 363.059 291.192 362 292.1333 C359.5692 294.294 358.1443 295.9293 357 299.1333 C356.0883 301.6861 356.1163 305.3086 357 306.1333 C359.9125 308.8516 371.3191 313.3035 372 313.1333 C372.1927 313.0852 371.4968 306.8577 373 302.1333 C374.7145 296.7449 379.1103 291.3355 379 291.1333 C378.9066 290.9621 367 291.1333 367 291.1333 "/>
<path id="14" d="M347 183.1333 C347 183.1333 339.1536 179.5023 337 177.1333 C336.2865 176.3484 336.2564 173.9923 337 172.1333 C338.8441 167.523 341.3637 162.6242 343 162.1333 C345.3272 161.4352 355.0957 163.8719 357 166.1333 C359.0122 168.5229 360.2833 178.7806 359 181.1333 C357.6496 183.6091 345 188.1333 345 188.1333 "/>
<path id="15" d="M305 145.1333 C305 145.1333 302.1344 151.372 299 155.1333 C297.8855 156.4707 295.0076 157.1562 295 157.1333 C294.8396 156.6521 294.4688 143.5507 295 143.1333 C295.5623 142.6916 309 146.1333 309 146.1333 "/>
<path id="16" d="M260 170.1333 C260 170.1333 252.4239 170.8496 247 173.1333 C243.9178 174.4311 242.0887 175.6838 241 178.1333 C239.0277 182.5709 238.5071 186.6973 239 191.1333 C239.21 193.0235 242.9902 196.1568 243 196.1333 C243.0511 196.0107 241.8883 184.9991 244 179.1333 C245.3234 175.4571 248.0524 173.1071 252 171.1333 C256.2765 168.9951 264 169.1333 264 169.1333 "/>
<path id="17" d="M321 217.1333 C321 217.1333 328.844 224.9444 334 233.1333 C336.882 237.7106 338.6944 241.3557 338 244.1333 C336.9237 248.4386 328.0002 257.1332 328 257.1333 C327.9998 257.1334 332.2808 251.2908 334 246.1333 C334.9257 243.3562 335.1834 241.4156 334 239.1333 C329.3916 230.2457 320 219.1333 320 219.1333 "/>
<path id="18" d="M208 247.1333 C208 247.1333 203.1727 246.228 201 247.1333 C198.8014 248.0494 197.788 249.4513 196 252.1333 C194.069 255.0299 193.4364 255.7874 193 259.1333 C192.0553 266.3763 192.9999 275.1335 193 275.1333 C193.0001 275.1331 193.4281 263.1348 196 254.1333 C196.9918 250.6622 198.8753 248.2774 201 247.1333 C202.9383 246.0896 209 247.1333 209 247.1333 "/>
<path id="19" d="M247 345.1333 C247 345.1333 256.6604 348.674 266 350.1333 C272.1379 351.0924 273.0303 350.7966 279 350.1333 C281.3981 349.8669 282.7959 349.5563 284 348.1333 C287.1068 344.4617 290.0359 337.1302 290 337.1333 C289.8445 337.1468 271.8862 348.4014 261 350.1333 C256.0785 350.9163 246 344.1333 246 344.1333 "/>
<path id="20" d="M279 115.1333 C279 115.1333 291.1434 113.9907 299 117.1333 C308.6696 121.0012 318.9995 131.1334 319 131.1333 C319.0003 131.1333 311.807 121.9163 304 116.1333 C299.3047 112.6553 297.5778 112.0258 292 111.1333 C286.4048 110.2381 279 112.1333 279 112.1333 "/>
<path id="21" d="M198 115.1333 C198 115.1333 210.8239 104.8378 223 100.1333 C230.8179 97.1128 233.4245 100.3464 242 98.1333 C247.9533 96.597 249.4083 91.8734 254 92.1333 C270.3457 93.0586 275.6393 95.103 295 101.1333 C305.2165 104.3155 305.0779 108.4461 315 111.1333 C327.5892 114.5429 332.7269 110.6189 343 114.1333 C347.75 115.7583 347.6375 120.2333 353 124.1333 C358.0803 127.8281 359.624 126.7733 365 130.1333 C367.2187 131.52 367.9233 131.98 369 134.1333 C371.5122 139.1577 369.8023 142.2089 373 146.1333 C379.2169 153.7631 386.2527 155.0674 391 161.1333 C392.3057 162.8017 389.7875 166.4389 391 169.1333 C393.4325 174.5389 398.3467 175.5121 400 181.1333 C402.5165 189.6893 399.0847 193.0096 401 203.1333 C402.3927 210.495 407 218.1333 407 218.1333 "/>
<path id="22" d="M233 101.1333 C233 101.1333 222.7105 99.2491 218 101.1333 C213.6036 102.8919 210.0238 107.3106 208 111.1333 C207.1438 112.7506 209.3519 117.7814 209 118.1333 C208.4134 118.7199 203.646 117.5248 200 119.1333 C187.9604 124.4449 186.277 125.3021 175 133.1333 C168.9465 137.3371 166.4273 140.2497 164 144.1333 C163.4059 145.0839 163.9289 147.4502 165 149.1333 C166.8658 152.0653 171.0501 155.0718 171 155.1333 C169.023 157.5597 148.3955 170.3228 143 176.1333 C142.4096 176.7691 145.5775 180.727 145 183.1333 C143.2356 190.485 139.484 192.3012 137 201.1333 C135.2481 207.3622 137.352 208.6437 136 215.1333 C134.9691 220.0814 131.8654 221.0943 132 225.1333 C132.2752 233.3889 137.451 237.9167 137 245.1333 C136.7151 249.6924 131.2265 251.5262 130 257.1333 C128.1871 265.4209 130 277.1333 130 277.1333 "/>
<path id="23" d="M131 268.1333 C131 268.1333 127.2685 276.0612 128 279.1333 C128.8466 282.689 134.4935 284.614 136 289.1333 C137.665 294.1284 134.92 298.2735 136 303.1333 C136.3771 304.8304 139.2643 305.2206 140 307.1333 C141.2465 310.3743 139.2607 313.5823 141 316.1333 C145.0503 322.0737 155 329.1333 155 329.1333 "/>
<path id="24" d="M149 321.1333 C149 321.1333 148.9048 332.4794 151 335.1333 C153.0528 337.7335 159.7162 336.5945 164 340.1333 C169.3928 344.5883 169.4992 351.6329 174 354.1333 C178.4445 356.6025 185.893 353.0054 191 355.1333 C194.1522 356.4467 194.7982 362.6087 198 364.1333 C202.107 366.089 206.8759 363.27 212 365.1333 C215.762 366.5013 216.4012 371.3107 220 372.1333 C230.2074 374.4665 236.2226 371.4494 247 373.1333 C249.2324 373.4821 249.7683 376.6082 252 377.1333 C256.5077 378.194 258.9867 378.1888 264 377.1333 C267.2762 376.4436 269.3245 372.9239 271 373.1333 C273.5133 373.4475 275.3574 377.1989 280 379.1333 C286.7284 381.9368 289.6829 384.0448 295 383.1333 C303.0659 381.7506 306.4322 376.0991 315 373.1333 C317.0647 372.4186 319.6248 374.8209 321 374.1333 C324.0004 372.6331 324.9392 368.1637 329 366.1333 C334.2452 363.5107 343 363.1333 343 363.1333 "/>
<path id="25" d="M343 361.1333 C343 361.1333 353.5037 357.3428 356 354.1333 C357.7182 351.9242 354.9003 345.8721 357 343.1333 C363.4003 334.7851 371.357 334.4738 379 324.1333 C386.7749 313.6144 383.7795 308.9749 391 297.1333 C395.6135 289.5672 399.538 289.975 404 283.1333 C406.0454 279.997 405.9292 278.5224 406 274.1333 C406.4153 248.3867 403.2505 245.9763 405 221.1333 C405.6089 212.4865 411 203.1333 411 203.1333 "/>
</g>
</g>
</svg>
