<?xml version="1.0" encoding="utf-8"?>
<!DOCTYPE svg PUBLIC "-//W3C//DTD SVG 1.1//EN" "http://www.w3.org/Graphics/SVG/1.1/DTD/svg11.dtd">
<svg viewBox="0 0 800 800" preserveAspectRatio="xMinYMin meet" xmlns="http://www.w3.org/2000/svg" version="1.1">
<g fill="none" stroke="black" stroke-linecap="round" stroke-linejoin="round" stroke-width="1.1473">
<g transform="translate(87.52,145.0477) scale(2.6149) translate(-118,-156.9167)">
<path id="0" d="M140 186.9167 C140 186.9167 144.9313 178.6891 151 174.9167 C161.7957 168.2058 163.8597 167.395 177 163.9167 C196.9309 158.6408 198.1429 158.7885 219 156.9167 C236.6141 155.3359 238.3474 154.0025 255 156.9167 C276.4865 160.6768 278.9818 161.7191 299 170.9167 C314.5554 178.0637 315.911 180.177 329 190.9167 C334.3151 195.2778 334.7952 196.507 338 202.9167 C347.4203 221.7572 350.2268 223.3214 355 242.9167 C359.1618 260.002 359.1053 263.8114 357 280.9167 C355.4258 293.7073 350.9944 299.3133 347 307.9167 C346.6979 308.5673 344.5103 308.1877 344 308.9167 C342.0575 311.6916 342.7665 314.4222 340 317.9167 C333.8891 325.6357 332.9671 326.5979 325 332.9167 C318.9736 337.6963 318.148 338.9063 311 340.9167 C287.7691 347.4504 285.8476 348.237 261 350.9167 C235.6517 353.6503 234.1414 353.5079 209 351.9167 C195.7461 351.0778 194.4314 350.1616 182 345.9167 C174.8397 343.4717 172.2349 343.1918 168 337.9167 C146.5339 311.1782 141.7662 306.1019 125 274.9167 C118.4266 262.6902 120.1136 259.7119 118 244.9167 C116.7046 235.8486 115.8355 234.0753 118 225.9167 C121.8106 211.5536 123.6708 209.179 131 195.9167 C133.4483 191.4865 134.6674 190.9495 139 187.9167 C144.1609 184.3041 151 181.9167 151 181.9167 "/>
<path id="1" d="M157 188.9167 C157 188.9167 153.7095 197.1177 154 197.9167 C154.167 198.3758 160.9404 200.0189 161 199.9167 C161.4007 199.2298 161.1793 186.6935 161 185.9167 C160.9961 185.8996 158 186.9167 158 186.9167 "/>
<path id="2" d="M204 179.9167 C204 179.9167 199.6906 186.7176 198 192.9167 C196.9604 196.7285 197.9142 201.9006 198 201.9167 C198.7563 202.0585 209.7513 198.9852 214 195.9167 C215.4743 194.8519 216 188.9167 216 188.9167 "/>
<path id="3" d="M214 259.9167 C214 259.9167 215.9494 266.2863 217 266.9167 C217.9338 267.477 221.3003 267.1765 224 265.9167 C227.9049 264.0944 232 259.9167 232 259.9167 "/>
<path id="4" d="M246 233.9167 C246 233.9167 251.6789 235.0451 252 235.9167 C253.3245 239.5118 252.6786 252.2738 253 252.9167 C253 252.9167 259 249.9167 259 249.9167 "/>
<path id="5" d="M256 276.9167 C256 276.9167 242.696 279.9784 241 281.9167 C240.0526 282.9994 242.6211 290.8981 242 292.9167 C241.7945 293.5847 237 294.9167 237 294.9167 "/>
<path id="6" d="M155 283.9167 C155 283.9167 145.5823 279.4154 141 273.9167 C136.9817 269.0947 135 259.9167 135 259.9167 "/>
<path id="7" d="M187 235.9167 L198 244.9167 "/>
<path id="8" d="M183 261.9167 C183 261.9167 176.0422 254.9378 174 253.9167 C173.6858 253.7596 171.3594 255.078 171 255.9167 C170.453 257.1929 170.1596 259.4226 171 260.9167 C173.6999 265.7164 176.4426 268.9066 180 271.9167 C180.7772 272.5743 183.3631 272.2988 184 271.9167 C184.4459 271.6492 185.1041 270.1659 185 268.9167 C184.6728 264.9905 183 259.9167 183 259.9167 "/>
<path id="9" d="M170 215.9167 C170 215.9167 172.7681 215.5853 173 215.9167 C174.4137 217.9362 176.202 221.3947 177 225.9167 C177.5086 228.7988 177.0334 230.3331 176 232.9167 C175.4134 234.3831 174.2857 235.5953 173 235.9167 C169.9144 236.6881 167.776 236.9103 164 235.9167 C159.2524 234.6673 158.0273 233.6015 154 230.9167 C152.7918 230.1112 152 228.8935 152 227.9167 C152 225.9631 152.8978 222.5465 154 221.9167 C156.6685 220.3918 166 219.9167 166 219.9167 "/>
<path id="10" d="M217 228.9167 C217 228.9167 221.6606 229.6185 224 228.9167 C225.3034 228.5257 226.7334 226.983 227 225.9167 C227.3377 224.5659 226.5453 221.3711 226 220.9167 C225.4723 220.4769 221.5277 220.4769 221 220.9167 C220.4547 221.3711 220 225.9167 220 225.9167 "/>
<path id="11" d="M283 282.9167 C283 282.9167 281.9232 292.2775 281 292.9167 C279.9335 293.655 272.7762 293.3973 270 291.9167 C268.1385 290.9239 265.765 285.9351 266 284.9167 C266.2945 283.6404 271.3643 279.5709 273 278.9167 C273.3828 278.7635 276 280.9167 276 280.9167 "/>
<path id="12" d="M277 251.9167 C277 251.9167 279.4863 260.0245 281 261.9167 C281.367 262.3754 283.8343 262.4995 285 261.9167 C286.7485 261.0424 288.0131 259.8904 289 257.9167 C290.0691 255.7784 290.1077 252.0961 290 251.9167 C289.9721 251.8702 286 252.9167 286 252.9167 "/>
<path id="13" d="M273 209.9167 C273 209.9167 278.6622 211.5809 283 213.9167 C284.6473 214.8037 285.4742 215.4706 286 216.9167 C287.0751 219.8731 285.8248 223.3008 287 224.9167 C288.0895 226.4147 294.0048 227.9128 294 227.9167 C293.9867 227.9273 287.4822 229.2212 282 228.9167 C279.1952 228.7608 276.393 227.7681 276 226.9167 C275.0936 224.9529 275.1433 220.2003 276 215.9167 C276.3583 214.1253 279 211.9167 279 211.9167 "/>
<path id="14" d="M258 186.9167 C258 186.9167 254.2294 190.7203 253 193.9167 C252.1734 196.066 252.2113 198.7899 253 199.9167 C254.1699 201.588 256.5676 202.9632 260 203.9167 C264.7724 205.2423 270.703 205.2467 271 204.9167 C271.307 204.5755 271.0705 197.3048 269 193.9167 C266.8824 190.4516 264.3499 188.9637 260 186.9167 C257.0029 185.5063 254.375 185.3229 252 185.9167 C250.4678 186.2997 248 189.9167 248 189.9167 "/>
<path id="15" d="M200 303.9167 C200 303.9167 203.0667 312.7901 205 314.9167 C205.5653 315.5385 209.0132 315.4806 210 314.9167 C210.8458 314.4333 212 310.9167 212 310.9167 "/>
<path id="16" d="M256 336.9167 L260 337.9167 "/>
<path id="17" d="M256 330.9167 L255 334.9167 "/>
<path id="18" d="M297 316.9167 C297 316.9167 295.0003 319.9167 295 319.9167 C294.9998 319.9167 296 316.9167 296 316.9167 "/>
<path id="19" d="M317 291.9167 C317 291.9167 315.9256 299.768 316 299.9167 C316 299.9167 319.675 298.7292 320 297.9167 C320.7222 296.1111 320.7398 292.6291 320 289.9167 C319.6469 288.6221 317 286.9167 317 286.9167 "/>
<path id="20" d="M328 255.9167 C328 255.9167 325.0036 258.9293 325 258.9167 C324.9836 258.8593 326.2981 252.7917 326 248.9167 C325.9053 247.6851 324 245.9167 324 245.9167 "/>
<path id="21" d="M320 210.9167 C320 210.9167 314.9736 223.7848 315 223.9167 C315.0035 223.9343 322 220.9167 322 220.9167 "/>
<path id="22" d="M306 199.9167 C306 199.9167 304.777 204.6936 305 204.9167 C305.4461 205.3627 312 205.9167 312 205.9167 "/>
<path id="23" d="M181 320.9167 C181 320.9167 181.9797 324.279 183 324.9167 C184.502 325.8554 189 325.9167 189 325.9167 "/>
</g>
</g>
</svg>
