<?xml version="1.0" encoding="utf-8"?>
<!DOCTYPE svg PUBLIC "-//W3C//DTD SVG 1.1//EN" "http://www.w3.org/Graphics/SVG/1.1/DTD/svg11.dtd">
<svg viewBox="0 0 800 800" preserveAspectRatio="xMinYMin meet" xmlns="http://www.w3.org/2000/svg" version="1.1">
<g fill="none" stroke="black" stroke-linecap="round" stroke-linejoin="round" stroke-width="1.8289">
<g transform="translate(87.52,208.9033) scale(1.6403) translate(-63,-136)">
<path id="0" d="M231 136 C231 136 66.2253 356.3481 63 361 C62.9214 361.1133 69.2826 361.9761 75 361 C109.4903 355.1114 112.5309 358.9296 145 347 C266.0331 302.531 387.9385 246.0249 388 246 C388.0017 245.9993 382.4918 251.1844 382 251 C380.3159 250.3684 377.6665 244.4523 372 240 C315.7254 195.7842 312.2515 196.0032 256 152 C251.4228 148.4195 252.3884 146.2913 248 143 C243.0909 139.3182 235.9936 136.9997 236 137 C236.0558 137.0029 305.5062 130.5029 343 148 C384.9075 167.5568 389.256 187.4959 431 228 C438.6785 235.4505 439.7021 238.0654 444 246 C445.0298 247.9011 444.4705 250.9023 444 252 C443.8208 252.4182 442.4345 252.9658 441 253 C422.4983 253.4405 418.932 255.2793 402 253 C395.9469 252.1852 395.3664 248.2144 389 246 C384.7318 244.5154 379 245 379 245 "/>
<path id="1" d="M112 317 C112 317 114.0547 326.082 118 332 C121.2532 336.8798 123.619 338.6807 128 341 C130.077 342.0996 132.0682 341.7818 135 341 C138.7973 339.9874 140.6646 339.6857 143 337 C149.274 329.7849 152.4513 323.8621 155 318 C155.3295 317.2422 154.2729 314.8812 153 314 C149.1402 311.3278 147.2551 309.9061 142 309 C134.0257 307.6251 130.8404 307.113 124 309 C118.9811 310.3845 114.9937 314.6076 113 317 C112.6322 317.4413 114 321 114 321 "/>
<path id="2" d="M153 258 C153 258 148.0333 264.9001 146 271 C144.9391 274.1826 144.9449 276.538 146 279 C147.1305 281.6379 149.3665 283.7846 152 285 C154.1021 285.9702 156.0777 285.8767 159 285 C165.1785 283.1464 166.8743 282.9429 172 279 C178.9164 273.6797 181.4359 271.0316 185 265 C186.3151 262.7745 186.1168 259.3931 185 257 C183.5668 253.9289 181.6747 253.0622 178 250 C175.8525 248.2104 175.3309 247.5379 173 247 C169.7242 246.244 167.8972 246.1086 165 247 C162.7435 247.6943 161.5555 248.6667 160 251 C155.1214 258.3179 151 268 151 268 "/>
<path id="3" d="M203 202 C203 202 198.4926 204.6766 196 208 C192.9535 212.062 190.6514 215.211 191 218 C191.5578 222.4623 194.7442 225.9709 199 232 C200.2615 233.7871 201.5429 235 203 235 C210.6498 235 215.192 234.7335 224 232 C227.9608 230.7708 228.9329 229.3227 232 226 C234.4502 223.3457 235.1787 222.285 236 219 C236.9239 215.3044 237.1146 213.5296 236 210 C234.5269 205.3352 232.8849 201.5736 230 200 C225.6956 197.6521 220.5367 196.8465 214 198 C205.8906 199.4311 196 206 196 206 "/>
<path id="4" d="M203 258 C203 258 194.4406 275.5094 194 283 C193.8518 285.5199 198.2501 290.9001 201 292 C204.2687 293.3075 209.6686 293.3011 214 291 C222.8029 286.3235 225.1402 283.2015 233 275 C235.7189 272.1629 236.1556 270.8 237 267 C237.95 262.725 238.3247 259.8149 237 257 C235.574 253.9698 232.3465 250.9127 229 250 C224.364 248.7356 219.9257 248.8108 215 251 C208.8997 253.7112 202 262 202 262 "/>
<path id="5" d="M265 223 C265 223 261.6493 226.2406 261 229 C259.9711 233.373 259.3408 236.405 261 240 C264.098 246.7124 267.5765 251.7861 273 255 C277.0484 257.399 281.4964 256.8129 288 256 C292.1535 255.4808 293.2382 254.6332 297 252 C302.7383 247.9832 303.7362 247.1775 308 242 C310.1188 239.4272 310.6032 238.1742 311 235 C311.4775 231.1802 311.4452 229.3032 310 226 C308.5261 222.6312 307.2821 221.5788 304 219 C300.8199 216.5013 299.6483 215.3531 296 215 C286.0375 214.0359 282.2035 213.9218 273 216 C269.293 216.8371 267.653 218.6837 265 222 C262.3897 225.2628 261 231 261 231 "/>
<path id="6" d="M63 360 C63 360 65.8182 363.9546 69 366 C72.2048 368.0603 73.1811 368.7754 77 369 C97.0834 370.1814 99.057 370.7213 120 369 C134.8516 367.7793 135.8806 367.445 150 363 C162.1598 359.1719 162.7692 358.502 174 352 C190.9143 342.2075 190.1456 340.1126 207 330 C217.4337 323.7398 217.7149 323.44 229 319 C247.9092 311.5603 248.8746 313.3428 268 306 C304.7446 291.8927 304.0152 287.9146 341 276 C377.5975 264.2102 381.3133 268.7444 417 258 C425.7709 255.3593 434 248 434 248 "/>
</g>
</g>
</svg>
