<?xml version="1.0" encoding="utf-8"?>
<!DOCTYPE svg PUBLIC "-//W3C//DTD SVG 1.1//EN" "http://www.w3.org/Graphics/SVG/1.1/DTD/svg11.dtd">
<svg viewBox="0 0 800 800" preserveAspectRatio="xMinYMin meet" xmlns="http://www.w3.org/2000/svg" version="1.1">
<g fill="none" stroke="black" stroke-linecap="round" stroke-linejoin="round" stroke-width="1.6321">
<g transform="translate(189.5355,87.52) scale(1.8381) translate(-177,-52)">
<path id="0" d="M195 124 C195 124 200.8485 145.0191 210 164 C227.5937 200.4907 232.434 198.9702 249 236 C283.1116 312.2494 296.3255 355.5041 312 392 C312.1471 392.3425 315.6851 392.458 316 392 C318.3832 388.5335 320.5165 384.1955 323 376 C330.3923 351.6055 328.5222 350.6329 336 326 C345.4779 294.7788 347.6559 295.0225 357 264 C360.0367 253.9181 358.1439 252.8377 361 243 C362.4759 237.9164 364.4136 238.1731 366 233 C375.7 201.3696 374.0347 199.8122 384 168 C386.8929 158.7651 389.173 159.1334 392 150 C395.5272 138.6045 398.3413 128.9701 397 126 C396.0388 123.8716 386.4165 123.6512 378 119 C368.1598 113.562 368.5413 110.5932 359 105 C354.8763 102.5827 353.8679 102.2028 349 102 C296.0738 99.7947 293.0866 100.4663 239 100 C236.0545 99.9746 235.0213 99.6128 233 101 C212.3426 115.1766 193.0591 133.2199 188 135 C187.6694 135.1163 180.814 127.2559 179 120 C175.8979 107.5914 175.2104 100.9707 177 91 C177.7258 86.9564 181.3337 83.1959 186 81 C195.4727 76.5422 199.4424 79.0608 211 75 C217.1648 72.834 217.3892 69.2669 223 68 C230.8497 66.2275 234.746 66.0656 242 68 C247.0142 69.3371 247.9834 74.0889 253 76 C256.5711 77.3604 259.0706 77.4289 263 76 C273.7523 72.0901 275.4385 70.7209 286 64 C291.4218 60.5498 290.946 57.527 296 55 C301.4026 52.2987 303.0834 52.5187 310 52 C322.6419 51.0519 327.7387 48.5877 336 52 C344.8485 55.6548 345.5824 62.4765 356 71 C361.7283 75.6868 362.281 75.9656 369 79 C377.3759 82.7827 379.1487 80.8434 387 85 C395.2875 89.3875 396.114 90.8388 403 97 C404.9248 98.7222 405.6722 99.7056 406 102 C406.9661 108.7625 407.2998 110.6346 406 118 C404.4517 126.7734 400 136 400 136 "/>
<path id="1" d="M207 166 C207 166 205.8187 160.9991 207 159 C210.8277 152.5224 213.1941 151.1018 220 144 C224.6061 139.1936 224.7658 138.4023 230 135 C234.161 132.2954 235.1306 131.6243 240 131 C253.4918 129.2703 257.767 127.1367 269 130 C278.9917 132.5469 284.2743 136.5537 291 144 C295.4518 148.9288 295.8996 152.7469 297 161 C298.731 173.9824 299.164 176.557 297 189 C295.5013 197.6174 294.4179 201.418 289 207 C280.533 215.7235 275.8529 218.0854 264 223 C257.8496 225.5502 249.7446 224.109 248 224 C247.9863 223.9991 248 222 248 222 "/>
<path id="2" d="M264 267 C264 267 262 263.7136 262 261 C262 253.7638 261.3464 250.5113 264 245 C266.5493 239.7053 268.9264 238.2515 275 234 C288.284 224.7012 290.4515 221.3457 304 217 C313.4379 213.9727 318.1067 215.6809 328 217 C330.6932 217.3591 332.3446 218.5656 334 221 C339.8348 229.5806 341.0195 231.5893 345 242 C347.1737 247.6852 346.4126 248.5389 347 255 C347.401 259.4114 348.3352 261.8151 347 264 C344.6675 267.8169 341.8531 269.4882 336 273 C327.2918 278.2249 326.4223 279.1988 317 282 C308.9171 284.403 307.9726 283.5015 299 284 C290.0825 284.4954 288.9507 284.9938 281 284 C278.1841 283.648 277.4124 282.9601 275 281 C269.8177 276.7894 267.3321 275.6643 265 271 C263.0565 267.1131 264 259 264 259 "/>
<path id="3" d="M389 144 C389 144 381.055 138.2576 374 136 C369.9823 134.7143 365.9487 134.4749 364 136 C358.7216 140.1309 356.5092 144.7214 351 154 C347.238 160.336 346.0338 161.2064 345 168 C342.7711 182.6468 340.2489 192.4979 344 200 C347.6915 207.383 370 218 370 218 "/>
<path id="4" d="M337 320 C337 320 335.2813 316.6295 333 315 C328.9108 312.0791 327.75 311.1875 323 310 C318.7778 308.9445 317.8272 309.6552 313 310 C311.0346 310.1404 309.8257 310.0472 309 311 C304.97 315.65 303.4104 317.8951 300 325 C297.6842 329.8245 297.5787 330.599 297 336 C296.1311 344.11 294.9514 346.8542 297 353 C298.9683 358.9048 301.5113 360.5113 307 366 C311.0569 370.0569 317 373 317 373 "/>
<path id="5" d="M318 373 L327 373 "/>
</g>
</g>
</svg>
