<?xml version="1.0" encoding="utf-8"?>
<!DOCTYPE svg PUBLIC "-//W3C//DTD SVG 1.1//EN" "http://www.w3.org/Graphics/SVG/1.1/DTD/svg11.dtd">
<svg viewBox="0 0 800 800" preserveAspectRatio="xMinYMin meet" xmlns="http://www.w3.org/2000/svg" version="1.1">
<g fill="none" stroke="black" stroke-linecap="round" stroke-linejoin="round" stroke-width="2.597">
<g transform="translate(87.52,158.5644) scale(1.1552) translate(-26,-63.1333)">
<path id="0" d="M75 156.1333 C75 156.1333 61.8549 153.9598 51 155.1333 C44.8481 155.7984 43.1344 156.642 38 160.1333 C31.6885 164.4252 26 172.1333 26 172.1333 "/>
<path id="1" d="M26 172.1333 C26 172.1333 26.704 169.1053 28 168.1333 C31.564 165.4603 33.3069 163.72 38 163.1333 C51.2512 161.4769 68 163.1333 68 163.1333 "/>
<path id="2" d="M27 173.1333 C27 173.1333 31.1697 170.4069 35 170.1333 C50.8539 169.0009 69 170.1333 69 170.1333 "/>
<path id="3" d="M64 164.1333 L71 164.1333 "/>
<path id="4" d="M76 157.1333 L75 157.1333 "/>
<path id="5" d="M75 157.1333 C75 157.1333 75.1376 146.1592 78 139.1333 C79.8255 134.6525 81.5671 133.7602 86 130.1333 C92.1641 125.09 92.9333 124.1619 100 121.1333 C106.0491 118.5409 107.2533 118.302 114 118.1333 C126.4388 117.8224 140 120.1333 140 120.1333 "/>
<path id="6" d="M140 120.1333 C140 120.1333 151.059 126.8828 159 134.1333 C161.5963 136.5039 163 141.1333 163 141.1333 "/>
<path id="7" d="M163 141.1333 C163 141.1333 177.6593 149.1289 191 157.1333 C192.1354 157.8146 193.0049 159.13 193 159.1333 C192.9629 159.1581 188 159.1333 188 159.1333 "/>
<path id="8" d="M188 159.1333 C188 159.1333 201.3852 166.7846 212 174.1333 C213.2586 175.0047 214.0099 177.1254 214 177.1333 C213.8078 177.2871 207 178.1333 207 178.1333 "/>
<path id="9" d="M207 178.1333 C207 178.1333 214.9638 185.2284 217 191.1333 C218.9807 196.8773 217 207.1333 217 207.1333 "/>
<path id="10" d="M218 192.1333 C218 192.1333 222.3454 187.0594 227 185.1333 C235.6347 181.5604 237.1475 181.279 247 180.1333 C258.0103 178.8531 258.9749 178.6384 270 180.1333 C287.7766 182.5437 306 188.1333 306 188.1333 "/>
<path id="11" d="M298 189.1333 C298 189.1333 298.9086 182.1493 302 179.1333 C316.8923 164.6042 322.1709 164.3969 339 149.1333 C342.712 145.7666 341.4719 143.8471 345 140.1333 C350.6042 134.2342 351.1541 133.9255 358 129.1333 C365.9373 123.5772 366.1991 123.2937 375 119.1333 C393.4561 110.4086 393.8073 109.3507 413 103.1333 C428.6747 98.0556 429.6838 97.5262 446 96.1333 C469.7962 94.1019 472.9333 92.2845 495 96.1333 C512.8408 99.2451 514.2047 102.704 532 111.1333 C542.3629 116.0421 545.2831 118.0157 552 123.1333 C552.9329 123.8441 553 127.1333 553 127.1333 "/>
<path id="12" d="M553 127.1333 C553 127.1333 558.6773 133.0314 560 138.1333 C561.6515 144.5033 560.0134 154.1325 560 154.1333 C559.7701 154.1469 552.0587 144.6107 543 139.1333 C531.6544 132.2732 530.1872 132.2259 517 128.1333 C501.6793 123.3786 500.8172 122.7859 485 121.1333 C468.0865 119.3663 467.128 120.3721 450 121.1333 C445.0628 121.3528 444.2166 121.1872 440 123.1333 C432.0419 126.8063 430.3864 127.1226 424 133.1333 C414.2725 142.2886 406 155.1333 406 155.1333 "/>
<path id="13" d="M409 150.1333 C409 150.1333 410.193 147.2627 412 146.1333 C424.8131 138.1252 426.435 136.4659 441 130.1333 C448.5907 126.833 449.629 126.7208 458 126.1333 C477.3765 124.7736 479.7245 123.5225 498 126.1333 C509.0959 127.7185 510.7914 129.2688 521 135.1333 C533.4446 142.2824 534.1407 143.7219 545 153.1333 C548.5467 156.2071 549.6352 157.4939 551 161.1333 C552.0652 163.9739 551.3288 168.2566 551 169.1333 C550.9538 169.2566 549.4898 169.2264 548 169.1333 C541.5133 168.7279 541.1586 169.5545 535 168.1333 C515.6648 163.6714 514.9197 160.044 496 157.1333 C483.983 155.2846 481.2433 155.5186 470 158.1333 C461.8167 160.0364 460.8026 161.8666 453 167.1333 C441.1144 175.1561 440.8013 177.8039 430 185.1333 C428.2582 186.3153 425 186.1333 425 186.1333 "/>
<path id="14" d="M530 169.1333 C530 169.1333 550.3888 175.2294 562 182.1333 C565.0252 183.9321 566.297 187.0909 567 191.1333 C567.9849 196.7963 567.0758 204.0575 566 205.1333 C565.0676 206.0657 559.0802 206.3494 553 205.1333 C520.1667 198.5667 518.9169 195.1182 486 189.1333 C476.1121 187.3355 474.1088 186.9551 465 189.1333 C453.0153 191.9992 451.8908 194.018 440 200.1333 C434.725 202.8462 434.2291 203.0881 430 207.1333 C423.0727 213.7595 417 222.1333 417 222.1333 "/>
<path id="15" d="M521 196.1333 C521 196.1333 545.4324 223.2014 562 249.1333 C566.6431 256.4008 565.5846 258.7916 567 268.1333 C568.0029 274.7528 568.2916 276.4504 567 282.1333 C566.1571 285.842 564.4033 287.7301 562 290.1333 C561.0757 291.0577 558.9112 291.475 558 291.1333 C556.6175 290.6149 555.3233 289.3388 554 287.1333 C551.1053 282.3088 552.3524 280.7834 549 276.1333 C537.3522 259.9767 536.8576 257.9909 523 244.1333 C515.8323 236.9656 513.3071 234.9024 505 232.1333 C498.2033 229.8678 487 232.1333 487 232.1333 "/>
<path id="16" d="M532 253.1333 C532 253.1333 538.7047 269.64 541 285.1333 C542.5047 295.2901 540.2973 306.6576 540 307.1333 C539.9951 307.1412 534.1187 304.7944 531 301.1333 C523.4863 292.3129 525.117 289.062 517 280.1333 C505.7762 267.7872 504.2746 266.5227 491 257.1333 C484.9563 252.8585 483.521 253.2081 476 251.1333 C469.4289 249.3206 468.9001 249.325 462 249.1333 C451.2136 248.8337 450.3504 248.7533 440 250.1333 C436.0719 250.6571 432 253.1333 432 253.1333 "/>
<path id="17" d="M495 261.1333 C495 261.1333 495.23 267.6021 497 273.1333 C499.0893 279.6623 501.8488 280.1471 503 286.1333 C504.0417 291.5502 502.3598 299.0546 502 299.1333 C499.221 299.7412 485.164 297.7583 471 293.1333 C461.8614 290.1493 453.0097 283.0961 453 283.1333 C452.9453 283.3429 459.9079 300.4327 465 316.1333 C465.5521 317.8357 465.4282 319.8219 465 320.1333 C462.9528 321.6222 459.3237 323.488 454 324.1333 C443.8021 325.3694 442.4518 325.2946 432 324.1333 C425.1377 323.3709 423.2423 323.3594 418 320.1333 C411.8268 316.3344 406.0058 308.128 406 308.1333 C405.8771 308.2459 407.179 328.8735 406 331.1333 C405.679 331.7485 398.6579 332.686 394 331.1333 C387.0132 328.8044 380.9178 326.0888 379 322.1333 C376.1144 316.1817 379.4406 308.578 378 298.1333 C377.6769 295.7907 375 293.1333 375 293.1333 "/>
<path id="18" d="M329 306.1333 C329 306.1333 328.1536 336.3565 329 365.1333 C329.13 369.5517 329.8077 373.2162 331 374.1333 C332.5726 375.343 338.0333 376.0148 342 375.1333 C344.9852 374.4699 348.152 372.3592 349 370.1333 C350.8118 365.3774 349.9997 354.1346 350 354.1333 C350.0001 354.1329 349.687 358.2143 351 360.1333 C355.1665 366.2229 360.0971 371.1376 363 373.1333 C363.3639 373.3835 366.2666 372.3556 367 371.1333 C369.6668 366.6887 370.2112 358.8621 372 358.1333 C375.6805 356.6339 387.4602 361.3012 394 360.1333 C396.1907 359.7421 398.6593 356.2617 400 353.1333 C400.9805 350.8454 400.8261 349.1622 400 346.1333 C398.0368 338.9349 394 331.1333 394 331.1333 "/>
<path id="19" d="M65 171.1333 C65 171.1333 64.9099 180.7292 62 186.1333 C59.0362 191.6375 55.5004 191.2117 51 197.1333 C46.3322 203.2752 45.0905 204.2347 43 211.1333 C40.5045 219.3685 40.941 230.1097 41 230.1333 C41.1244 230.1831 57.5909 217.0472 58 217.1333 C58.16 217.167 57.9708 227.7557 60 234.1333 C60.7583 236.5167 62.8143 238.0405 65 239.1333 C66.4571 239.8619 69.1516 239.9319 70 239.1333 C74.5916 234.8119 80.4151 230.1934 82 223.1333 C84.7788 210.7551 81 190.1333 81 190.1333 "/>
<path id="20" d="M92 127.1333 C92 127.1333 105.953 124.5373 114 125.1333 C115.9504 125.2778 117.1114 126.9749 119 129.1333 C120.2967 130.6152 120.6848 131.2419 121 133.1333 C121.582 136.6252 121.8222 138.8723 121 141.1333 C120.5422 142.3923 117.0997 143.1866 117 144.1333 C116.54 148.5029 120.851 156.0611 119 160.1333 C115.967 166.8059 110.7968 170.2215 102 177.1333 C97.674 180.5323 95.3113 178.8485 91 182.1333 C85.649 186.2103 84.8989 187.61 81 193.1333 C79.3998 195.4003 79 199.1333 79 199.1333 "/>
<path id="21" d="M81 226.1333 C81 226.1333 79 265.1333 79 265.1333 C79 265.1333 77.9953 260.7168 79 258.1333 C80.9695 253.0689 85.9837 247.131 86 247.1333 C86.0051 247.1341 84.7895 253.888 86 259.1333 C87.5519 265.8581 90.0272 270.0645 92 273.1333 C92.2131 273.4648 94.865 273.3133 95 273.1333 C95.24 272.8133 94.9999 269.1331 95 269.1333 C95.0005 269.1355 101.9846 301.0922 102 301.1333 C102.0032 301.1419 102.858 295.1889 104 293.1333 C104.3342 292.5317 106.6785 291.8655 107 292.1333 C111.2036 295.6363 121.7306 308.0323 122 308.1333 C122.0353 308.1466 122.9646 298.1617 123 298.1333 C123.0031 298.1308 124.5782 302.0142 127 304.1333 C131.9746 308.4861 138.0958 312.2929 139 312.1333 C139.5928 312.0287 142.7009 306.5465 144 301.1333 C145.5164 294.8151 145 287.1333 145 287.1333 "/>
<path id="22" d="M150 268.1333 C150 268.1333 148.1262 281.4856 151 291.1333 C154.4381 302.6754 163.7949 315.0127 164 315.1333 C164.032 315.1522 165.9172 303.2161 168 301.1333 C169.3885 299.7448 178.0307 301.0145 179 300.1333 C179.6659 299.5279 179 291.1333 179 291.1333 "/>
<path id="23" d="M132 309.1333 C132 309.1333 135.2342 317.8014 140 325.1333 C148.0254 337.4801 151.8623 341.7681 158 349.1333 C158.2623 349.4481 159.9225 349.2993 160 349.1333 C161.4384 346.051 164.9863 334.1295 165 334.1333 C165.3059 334.2183 174.6435 352.1969 178 354.1333 C179.3836 354.9316 187.2123 348.804 191 349.1333 C194.1979 349.4114 196.4358 355.0683 201 356.1333 C208.8468 357.9643 214.6127 353.7381 221 356.1333 C226.2695 358.1094 226.5849 362.9519 233 368.1333 C239.2899 373.2137 247 377.1333 247 377.1333 "/>
<path id="24" d="M247 377.1333 C247 377.1333 250.2982 385.4315 255 390.1333 C259.7018 394.8351 263.2405 396.6303 268 398.1333 C269.6456 398.653 271.8992 397.6039 274 396.1333 C276.1292 394.6429 277.3192 391.1333 278 391.1333 C279.5318 391.1333 287 396.1333 287 396.1333 "/>
<path id="25" d="M287 396.1333 C287 396.1333 289.9586 402.0919 294 406.1333 C298.9924 411.1257 300.6967 412.3257 306 415.1333 C307.5817 415.9707 309.0367 415.7878 311 415.1333 C314.2722 414.0426 317.3646 412.7671 318 411.1333 C319.3233 407.7307 317.5476 397.3595 318 397.1333 C319.1632 396.5517 328.9395 401.1333 338 401.1333 C345.2484 401.1333 348.4882 400.3486 354 397.1333 C358.1589 394.7073 357.6876 391.1582 362 387.1333 C364.6704 384.641 367.9508 385.2317 369 383.1333 C371.7978 377.5377 373 365.1333 373 365.1333 "/>
<path id="26" d="M301 411.1333 C301 411.1333 302.8592 427.996 300 438.1333 C298.4468 443.6403 295.2613 446.1247 290 450.1333 C286.1391 453.075 281.9055 451.0274 279 454.1333 C270.0867 463.6614 261 481.1333 261 481.1333 "/>
<path id="27" d="M314 409.1333 C314 409.1333 313.3316 411.9875 314 413.1333 C316.0192 416.5948 317.0056 418.4275 321 421.1333 C331.5514 428.281 344.9383 434.0669 345 434.1333 C345.0161 434.1507 338.8644 433.7435 334 435.1333 C329.074 436.5408 327.5521 437.0252 324 440.1333 C320.5714 443.1333 319.612 444.758 318 449.1333 C316.5091 453.18 316.1706 455.8156 317 459.1333 C317.6168 461.6004 319.1292 463.5929 322 465.1333 C337.5723 473.4892 358 481.1333 358 481.1333 "/>
<path id="28" d="M262 479.1333 C262 479.1333 249.7267 477.462 241 478.1333 C238.8183 478.3012 236 481.1333 236 481.1333 "/>
<path id="29" d="M263 476.1333 C263 476.1333 267.8957 473.3043 272 473.1333 C278.7094 472.8538 287 475.1333 287 475.1333 "/>
<path id="30" d="M242 375.1333 C242 375.1333 241.9046 380.4125 240 383.1333 C235.8666 389.0382 233.222 393.5266 228 395.1333 C219.0152 397.8979 213.2108 393.7766 201 395.1333 C196.7287 395.6079 195.7738 396.6175 192 399.1333 C188.7653 401.2898 187.7775 401.9338 186 405.1333 C183.2914 410.0088 181.9669 417.1135 182 417.1333 C182.1077 417.1979 195.9994 411.132 196 411.1333 C196.0165 411.1747 186.014 427.0425 186 427.1333 C185.9966 427.1553 193.9242 424.0702 194 424.1333 C194.0643 424.1869 192 432.1333 192 432.1333 C192.2974 432.2077 199.2435 427.7476 206 427.1333 C225.1647 425.3911 229.2407 424.3776 247 427.1333 C254.9685 428.3698 263.8725 436.0993 264 436.1333 C264.0219 436.1392 263.4286 432.5619 262 431.1333 C259.3469 428.4802 257.1814 429.1026 254 426.1333 C250.1321 422.5233 247.2414 420.5936 247 417.1333 C246.142 404.8359 251 383.1333 251 383.1333 "/>
<path id="31" d="M93 146.1333 C93 146.1333 94.1417 141.6102 95 141.1333 C96.2575 140.4347 99.5024 140.3008 102 141.1333 C104.2597 141.8866 106.9342 144.4757 107 145.1333 C107.0818 145.9517 104.6555 150.5125 103 151.1333 C99.8214 152.3253 91.711 151.7151 91 151.1333 C90.6229 150.8248 92 142.1333 92 142.1333 "/>
<path id="32" d="M83 134.1333 C83 134.1333 79.3846 116.8645 81 103.1333 C82.0996 93.7867 88.9757 83.1657 89 83.1333 C89.0068 83.1243 88.8125 87.8084 90 91.1333 C91.0555 94.0889 93.8286 97.0762 94 97.1333 C94.019 97.1397 94.6467 94.2785 96 93.1333 C100.2534 89.5343 104.792 86.9826 107 86.1333 C107.1985 86.057 108.9578 88.1586 109 88.1333 C109.3164 87.9435 110.0436 84.6618 112 83.1333 C124.6416 73.2571 140.264 63.2602 141 63.1333 C141.0587 63.1232 140.769 78.0525 141 78.1333 C141.7569 78.3982 151.5519 73.4196 161 70.1333 C162.2441 69.7006 163.9982 70.1117 164 70.1333 C164.0855 71.159 161.8491 82.0623 162 82.1333 C162.7084 82.4667 180.3087 77.7674 181 78.1333 C181.1999 78.2392 181.626 87.8223 179 91.1333 C173.1211 98.5459 164.6074 100.2255 158 107.1333 C156.5432 108.6564 156.7808 113.6218 157 114.1333 C157.0572 114.2668 160.0351 113.5819 161 114.1333 C162.2751 114.8619 164 118.0533 164 118.1333 C164 118.1333 161.5397 117.6476 161 118.1333 C158.2837 120.578 154 127.1333 154 127.1333 "/>
</g>
</g>
</svg>
