<?xml version="1.0" encoding="utf-8"?>
<!DOCTYPE svg PUBLIC "-//W3C//DTD SVG 1.1//EN" "http://www.w3.org/Graphics/SVG/1.1/DTD/svg11.dtd">
<svg viewBox="0 0 800 800" preserveAspectRatio="xMinYMin meet" xmlns="http://www.w3.org/2000/svg" version="1.1">
<g fill="none" stroke="black" stroke-linecap="round" stroke-linejoin="round" stroke-width="1.7473">
<g transform="translate(87.52,147.6123) scale(1.7169) translate(-130,-88)">
<path id="0" d="M172 130 C172 130 172.406 157.6907 179 175 C182.3859 183.8881 186.8452 186.4273 196 193 C204.9273 199.4094 207.3129 200.6488 218 203 C230.4624 205.7417 235.1978 205.5003 246 204 C249.4248 203.5243 249.7794 200.0259 254 198 C261.712 194.2982 264.2455 195.5381 271 192 C273.2196 190.8374 272.7209 188.1763 275 187 C286.317 181.1589 295.7832 178.9933 302 176 C302.1854 175.9108 301.8636 174.0545 302 174 C304.8294 172.8683 309.6266 171.0924 317 170 C322.6746 169.1593 324.2454 168.2711 329 170 C343.9841 175.4488 346.0014 177.0009 361 186 C370.5183 191.711 369.54 194.84 379 200 C390.607 206.3311 392.6027 206.1258 405 210 C407.554 210.7981 411 210 411 210 "/>
<path id="1" d="M410 210 C410 210 411.1084 199.3534 414 191 C415.2385 187.4222 415.9858 186.3186 419 184 C427.998 177.0784 429.2679 176.6641 440 171 C446.9978 167.3067 447.7807 166.8048 455 165 C458.9378 164.0156 464.0211 164.9736 464 165 C463.8829 165.1464 450.5159 174.5637 439 185 C434.9527 188.6678 433.5848 189.9248 432 194 C430.7832 197.1288 432 203 432 203 C432.001 203 432.6256 196.6537 435 194 C439.5776 188.8838 441.7277 187.8786 449 184 C456.2222 180.1482 457.0726 179.9818 465 178 C470.5492 176.6127 477.0089 176.9734 477 177 C476.9616 177.1152 467.3491 184.2971 460 193 C448.6858 206.3984 439.0034 221.9938 439 222 C438.999 222.0018 443.3197 217.3401 448 215 C453.6163 212.1918 454.6501 211.7055 461 211 C471.863 209.793 473.9136 209.4718 484 211 C488.7176 211.7148 493.1379 215.0302 494 216 C494.1379 216.1552 493.1837 219.4301 492 220 C483.1557 224.2584 479.4231 226.9557 467 229 C441.358 233.2196 435.7789 230.2508 413 233 C411.1762 233.2201 410.0189 234.2679 409 236 C405.6635 241.672 406.9533 244.07 403 250 C397.4361 258.3459 396.9643 261.0809 389 266 C365.6367 280.4303 362.2715 281.3944 335 292 C318.1975 298.5343 316.5902 298.9306 299 301 C283.8668 302.7804 281.3692 302.7633 267 300 C257.3003 298.1347 256.4708 296.2392 247 291 C233.1971 283.3644 231.6509 283.8584 220 274 C206.53 262.6023 205.0754 261.1055 195 247 C188.4542 237.8359 191.5086 233.4611 185 225 C177.9013 215.7717 172.7905 217.3944 165 208 C156.74 198.0394 157.2554 196.1816 151 184 C147.8777 177.9198 146.4751 177.018 146 171 C145.1189 159.8389 148 146 148 146 "/>
<path id="2" d="M148 146 C148 146 139.7401 145.7244 134 147 C132.1165 147.4185 130 150.008 130 150 C130 149.9734 131.7051 141.8646 134 140 C136.7326 137.7797 146 137 146 137 "/>
<path id="3" d="M147 136 C147 136 146.3011 127.8539 148 123 C149.158 119.6914 154 116 154 116 "/>
<path id="4" d="M154 115 C154 115 147.5462 108.2473 143 105 C142.2483 104.463 140.0573 105.0573 140 105 C139.9809 104.9809 140.6396 103.0801 141 103 C142.9959 102.5565 145.5081 102.418 149 103 C150.8914 103.3152 152.1065 103.9278 153 105 C153.8097 105.9717 153.998 109.0044 154 109 C154.0079 108.9821 154.328 99.7408 157 96 C159.9241 91.9063 168.9979 87.9974 169 88 C169.0087 88.0105 164.1033 95.3896 162 102 C160.9631 105.2589 161.9782 110.0059 162 110 C162.1397 109.9619 167.4527 102.2359 173 99 C177.698 96.2595 185.9998 95.9999 186 96 C186.0001 96 180.0851 97.3567 176 100 C172.2585 102.421 170.7572 103.9876 169 107 C168.2073 108.359 168.6667 111.8 169 112 C170.1778 112.7067 178.3064 112.1676 179 113 C179.8175 113.981 180.4331 120.5964 179 124 C177.5189 127.5176 172.9727 128.5478 171 132 C170.0585 133.6477 171 138 171 138 "/>
<path id="5" d="M159 132 C159 132 160.6172 137.7448 161 138 C161.1701 138.1134 165.0033 136.0133 165 136 C164.9892 135.9569 160 134 160 134 "/>
<path id="6" d="M274 303 C274 303 275.8073 310.4068 275 317 C272.914 334.0356 270.0214 334.6736 268 352 C266.5891 364.0938 267.8408 376.2996 268 377 C268.0119 377.0522 273 374 273 374 "/>
<path id="7" d="M318 297 L317 363 "/>
<path id="8" d="M271 376 L254 380 "/>
<path id="9" d="M267 377 C267 377 267.3534 374.2447 267 374 C264.0811 371.9792 254 368 254 368 "/>
<path id="10" d="M269 374 L286 380 "/>
<path id="11" d="M318 363 C318 363 315.4225 360.5383 313 360 C307.3476 358.7439 300.0022 359.0005 300 359 C299.9992 358.9998 305 358 305 358 "/>
<path id="12" d="M319 363 L311 382 "/>
<path id="13" d="M317 364 L333 361 "/>
</g>
</g>
</svg>
