<?xml version="1.0" encoding="utf-8"?>
<!DOCTYPE svg PUBLIC "-//W3C//DTD SVG 1.1//EN" "http://www.w3.org/Graphics/SVG/1.1/DTD/svg11.dtd">
<svg viewBox="0 0 800 800" preserveAspectRatio="xMinYMin meet" xmlns="http://www.w3.org/2000/svg" version="1.1">
<g fill="none" stroke="black" stroke-linecap="round" stroke-linejoin="round" stroke-width="1.4689">
<g transform="translate(95.6894,87.52) scale(2.0424) translate(-141,-57.7)">
<path id="0" d="M179 88.4167 C179 88.4167 169.0772 89.666 160 92.4167 C152.8961 94.5694 152.0839 94.8944 146 98.4167 C143.2512 100.0081 140.9516 103.4081 141 103.4167 C141.4601 103.4979 180 104.4167 180 104.4167 "/>
<path id="1" d="M180 89.4167 C180 89.4167 184.6443 83.222 188 82.4167 C193.81 81.0223 201.972 81.3102 205 83.4167 C207.8123 85.373 209.0006 90.9902 211 98.4167 C212.3561 103.4536 212 109.4167 212 109.4167 "/>
<path id="2" d="M180 109.4167 C180 109.4167 183.4154 112.4936 184 115.4167 C186.9919 130.3761 188 149.4167 188 149.4167 "/>
<path id="3" d="M202 86.4167 C202 86.4167 211.9556 91.6463 214 96.4167 C217.5488 104.6972 214.438 111.8091 217 121.4167 C217.6289 123.7751 220.5929 123.7783 222 126.4167 C224.129 130.4086 222.7809 131.9784 225 136.4167 C229.0523 144.5214 235 152.4167 235 152.4167 "/>
<path id="4" d="M187 140.4167 C187 140.4167 189.0107 171.3997 194 199.4167 C195.2479 206.4241 195.8683 207.6065 200 213.4167 C211.1937 229.1578 212.4707 231.5473 226 244.4167 C231.5128 249.6606 233.7049 250.8308 241 252.4167 C254.6995 255.3948 272 254.4167 272 254.4167 "/>
<path id="5" d="M236 151.4167 C236 151.4167 270.7224 151.2354 305 153.4167 C325.4881 154.7205 328.9683 154.7929 346 158.4167 C348.8602 159.0252 350.6306 160.6779 352 163.4167 C356.1938 171.8042 359 184.4167 359 184.4167 "/>
<path id="6" d="M175 87.7 C175 87.7 177.9286 88.3429 179 87.7 C181.5714 86.1572 183.6631 84.5648 185 81.7 C186.4382 78.6182 184.477 76.3553 186 72.7 C189.0326 65.4217 194.8505 57.7498 195 57.7 C195.0071 57.6976 197.8228 68.6517 198 68.7 C198.1719 68.7469 205.851 60.7 206 60.7 C206.0186 60.7 206.8396 68.6083 207 68.7 C207.107 68.7611 212.893 64.6389 213 64.7 C213.1604 64.7917 213.9841 72.703 214 72.7 C214.5427 72.5983 228.6505 61.7932 229 61.7 C229.0364 61.6903 230.1528 66.2297 229 68.7 C224.1362 79.1224 215 91.7 215 91.7 "/>
<path id="7" d="M271 255.7 C271 255.7 298.2176 260.4036 317 256.7 C328.4646 254.4394 330.4222 249.7694 342 241.7 C346.4332 238.6102 350 233.7 350 233.7 "/>
<path id="8" d="M347 157.7 C347 157.7 352.1233 158.5887 354 160.7 C358.6804 165.9655 361.523 168.6103 363 175.7 C365.9066 189.6519 365.2964 193.4669 364 208.7 C363.4318 215.3762 362.5754 216.9396 359 222.7 C354.1775 230.4695 346 237.7 346 237.7 "/>
<path id="9" d="M339 248.7 C339 248.7 346.2437 249.1237 351 251.7 C357.08 254.9933 359.0366 255.9599 363 261.7 C372.4802 275.43 373.2269 277.5034 380 293.7 C384.4178 304.2643 386 316.7 386 316.7 "/>
<path id="10" d="M351 159.7 C351 159.7 354.624 144.788 360 133.7 C361.8403 129.9044 363.2296 128.9622 367 126.7 C372.3863 123.4682 373.858 122.4445 380 121.7 C388.9736 120.6123 391.0943 120.4218 400 122.7 C411.2369 125.5746 412.3167 126.9005 423 132.7 C429.3455 136.1447 433.7242 137.6335 435 141.7 C439.3231 155.4798 438.3243 162.7521 439 183.7 C440.3153 224.4731 441.213 225.8662 439 265.7 C438.2893 278.4922 436.867 279.2066 433 291.7 C430.4782 299.8474 427.737 299.7869 426 307.7 C423.4802 319.1789 424 332.7 424 332.7 "/>
<path id="11" d="M392 310.7 C392 310.7 398.0335 312.9141 400 315.7 C402.7379 319.5787 404 327.7 404 327.7 "/>
<path id="12" d="M381 310.7 C381 310.7 388.725 318.6529 397 324.7 C401.3074 327.8477 402.1005 328.4751 407 329.7 C413.206 331.2515 418.03 332.0365 421 330.7 C423.3015 329.6643 427 320.7 427 320.7 "/>
<path id="13" d="M235 251.7 C235 251.7 241.2952 252.6194 244 254.7 C246.2448 256.4267 247.521 258.3468 248 261.7 C250.6843 280.4903 250.1611 282.727 251 303.7 C251.6573 320.1318 252.1331 321.5921 251 336.7 C250.7519 340.0077 248 343.7 248 343.7 "/>
<path id="14" d="M258 260.7 C258 260.7 259.6726 298.3929 262 334.7 C262.1274 336.6871 262.9966 338.7034 263 338.7 C263.0101 338.6899 265 331.7 265 331.7 "/>
<path id="15" d="M286 260.7 L288 327.7 "/>
<path id="16" d="M296 260.7 L298 329.7 "/>
<path id="17" d="M287 333.7 L288 340.7 "/>
<path id="18" d="M289 322.7 L291 341.7 "/>
<path id="19" d="M298 324.7 C298 324.7 300.1118 338.0322 299 339.7 C298.095 341.0575 286 342.7 286 342.7 "/>
<path id="20" d="M265 335.7 C265 335.7 265.4696 345.4359 265 345.7 C263.7113 346.4249 249 344.7 249 344.7 "/>
<path id="21" d="M258 346.7 C258 346.7 257.5991 349.4432 257 349.7 C251.0834 352.2357 245.9587 351.8606 237 355.7 C232.8042 357.4982 229 361.7 229 361.7 C229 361.7 235.1298 355.2012 242 350.7 C249.2219 345.9684 258 342.7 258 342.7 "/>
<path id="22" d="M262 348.7 C262 348.7 252.9998 362.6998 253 362.7 C253.0007 362.7005 266 351.7 266 351.7 "/>
<path id="23" d="M267 343.7 C267 343.7 277.0194 355.6806 277 355.7 C276.7674 355.9326 254.0032 356.7038 254 356.7 C253.9986 356.6983 272 349.7 272 349.7 "/>
<path id="24" d="M288 341.7 C288 341.7 276.9973 350.6978 277 350.7 C277.0104 350.7087 293.9991 346.6943 294 346.7 C294.0094 346.7609 279.0102 363.6556 279 363.7 C278.9966 363.7147 285.5722 362.4139 291 359.7 C298.1725 356.1138 305 350.7 305 350.7 "/>
<path id="25" d="M304 338.7 C304 338.7 313.8306 337.7197 322 338.7 C325.3404 339.1008 329.0154 341.6937 329 341.7 C328.9315 341.7282 313.7189 342.8975 305 345.7 C303.0666 346.3215 300.9637 350.6274 301 350.7 C301.0545 350.8089 308 351.7 308 351.7 "/>
<path id="26" d="M218 151.7 C218 151.7 216.453 163.4221 219 171.7 C221.8075 180.8245 223.4789 182.9713 230 190.7 C236.1104 197.9419 237.637 198.4731 246 203.7 C253.063 208.1144 254.1233 209.1589 262 210.7 C275.7817 213.3964 277.7497 210.825 292 212.7 C295.9529 213.2201 296.1546 215.3504 300 215.7 C311.6207 216.7564 314.2208 218.2363 325 215.7 C337.4278 212.7758 342.1448 209.8987 351 203.7 C353.6514 201.844 355 194.7 355 194.7 "/>
<path id="27" d="M196 94.7 C196 94.7 194.0801 95.3396 194 95.7 C193.5565 97.6959 193.1359 101.7991 194 103.7 C194.5695 104.9529 197.8144 106.7 199 106.7 C199.9485 106.7 202.584 104.948 203 103.7 C203.864 101.108 203.5452 95.401 203 94.7 C202.6702 94.276 196 94.7 196 94.7 "/>
<path id="28" d="M160 97.7 L175 98.7 "/>
<path id="29" d="M357 158.7 C357 158.7 359.1764 154.0892 362 151.7 C364.9429 149.2098 366.2488 148.1547 370 147.7 C381.0528 146.3603 382.6578 147.0671 395 147.7 C401.9623 148.057 404.373 148.254 409 149.7 C409.9294 149.9904 410.839 151.2968 411 152.7 C413.9205 178.1497 414.4605 181.7565 416 210.7 C416.9512 228.5829 417.0524 229.1605 416 246.7 C415.5855 253.6086 414.9992 255.0357 413 260.7 C412.4612 262.2267 410 263.7 410 263.7 "/>
<path id="30" d="M363 182.7 C363 182.7 363.0757 179.6243 364 178.7 C366.4033 176.2967 368.2791 174.7336 372 173.7 C375.9631 172.5991 380.0264 172.5722 382 173.7 C383.6917 174.6667 384.6252 177.5757 386 181.7 C390.0261 193.7782 391.9011 194.4547 393 206.7 C395.2726 232.0237 393 259.7 393 259.7 "/>
<path id="31" d="M356 223.7 C356 223.7 359.8843 219.138 363 217.7 C364.9136 216.8168 368.7311 217.211 369 217.7 C370.8539 221.0708 372.6687 227.8484 374 237.7 C375.0946 245.8002 374.4885 250.3036 374 254.7 C373.9649 255.0161 372 255.7 372 255.7 "/>
</g>
</g>
</svg>
