<?xml version="1.0" encoding="utf-8"?>
<!DOCTYPE svg PUBLIC "-//W3C//DTD SVG 1.1//EN" "http://www.w3.org/Graphics/SVG/1.1/DTD/svg11.dtd">
<svg viewBox="0 0 800 800" preserveAspectRatio="xMinYMin meet" xmlns="http://www.w3.org/2000/svg" version="1.1">
<g fill="none" stroke="black" stroke-linecap="round" stroke-linejoin="round" stroke-width="1.8817">
<g transform="translate(87.52,106.6514) scale(1.5943) translate(-3,-59.1333)">
<path id="0" d="M376 112.1333 C376 112.1333 395.0062 127.124 395 127.1333 C394.9484 127.2108 366 127.1333 366 127.1333 "/>
<path id="1" d="M377 112.1333 C377 112.1333 370.2189 103.5475 363 98.1333 C359.1696 95.2605 353.618 95.7402 353 94.1333 C351.2671 89.6279 354.2922 81.1789 353 72.1333 C352.614 69.4314 351.1874 67.2791 349 66.1333 C342.992 62.9863 340.4847 62.4832 332 61.1333 C318.975 59.0612 305 59.1333 305 59.1333 C305 59.1333 312.31 58.2349 318 59.1333 C320.8335 59.5807 321.3077 60.2913 324 62.1333 C330.6339 66.6723 333.4354 68.2945 337 72.1333 C337.646 72.829 337.5326 74.7131 337 76.1333 C336.3176 77.9531 335.195 79.8522 334 80.1333 C329.755 81.1322 325.1496 82.0644 320 80.1333 C311.7239 77.0298 309.8852 69.8475 302 68.1333 C291.4531 65.8405 274.0031 70.1199 274 70.1333 C273.9981 70.1416 287.6409 74.6863 299 81.1333 C305.4263 84.7807 310.7276 90.8004 311 91.1333 C311.02 91.1578 308.8967 92.4515 308 92.1333 C297.0646 88.253 293.3084 84.336 280 80.1333 C275.8136 78.8113 274.3337 79.3208 270 80.1333 C267.156 80.6666 263.9459 83.0978 264 83.1333 C264.727 83.6111 294.7271 97.3705 305 103.1333 C305.3311 103.3191 305.5028 105.5886 305 106.1333 C301.4675 109.9602 298.6741 113.4196 293 116.1333 C289.1193 117.9893 282 117.1333 282 117.1333 "/>
<path id="2" d="M285 122.1333 C285 122.1333 281.5428 121.3594 279 122.1333 C270.8927 124.6008 269.3754 124.3831 262 129.1333 C240.7514 142.8189 220 160.1333 220 160.1333 "/>
<path id="3" d="M228 164.1333 C228 164.1333 213.0172 159.2403 202 151.1333 C187.7098 140.6179 189.2382 135.7422 175 125.1333 C164.8858 117.5972 163.2865 117.6384 151 113.1333 C133.8392 106.8411 132.8859 105.9208 115 103.1333 C95.3267 100.0674 92.6493 99.1554 74 101.1333 C62.1329 102.392 48.9983 110.1303 49 110.1333 C49.0068 110.1458 65.0039 109.7146 80 112.1333 C95.4594 114.6268 96.7548 114.1828 111 120.1333 C135.2425 130.26 136.0239 131.7924 159 145.1333 C166.4927 149.4839 166.9136 150.047 173 156.1333 C179.5733 162.7066 185 171.1333 185 171.1333 "/>
<path id="4" d="M114 128.1333 C114 128.1333 75.3274 124.8006 41 128.1333 C26.4363 129.5473 10.9861 138.1259 11 138.1333 C11.0328 138.151 40.6468 136.7651 67 142.1333 C92.8206 147.3931 94.523 149.1609 119 160.1333 C137.0978 168.2461 154 181.1333 154 181.1333 "/>
<path id="5" d="M126 175.1333 C126 175.1333 116.874 170.2213 108 168.1333 C100.667 166.4079 99.5794 168.4868 92 167.1333 C86.0436 166.0697 85.8123 163.6078 80 163.1333 C62.5534 161.7091 59.6339 160.5522 43 163.1333 C32.9313 164.6957 31.578 166.626 22 172.1333 C12.1018 177.8248 2.8578 186.0833 3 186.1333 C4.1748 186.5465 60.0852 191.5499 113 204.1333 C140.3157 210.6291 167 225.1333 167 225.1333 "/>
<path id="6" d="M143 217.1333 C143 217.1333 128.2836 215.9596 115 218.1333 C101.6478 220.3182 101.5945 223.1379 88 226.1333 C72.3547 229.5806 56.1451 231.0139 56 231.1333 C55.9695 231.1584 65.1239 235.1386 71 240.1333 C74.0613 242.7354 73.0107 244.9448 76 248.1333 C80.0937 252.4999 80.657 253.057 86 256.1333 C96.7304 262.3114 97.2777 262.5879 109 267.1333 C121.512 271.9849 135 275.1333 135 275.1333 "/>
<path id="7" d="M135 259.1333 C135 259.1333 133.5153 267.0429 135 272.1333 C136.4895 277.2401 138.0314 279.3982 142 283.1333 C145.3632 286.2987 146.9391 286.6338 152 288.1333 C159.8852 290.4697 160.5686 290.8121 169 291.1333 C212.3724 292.7856 216.8033 295.3634 257 292.1333 C268.3402 291.2221 281 282.1333 281 282.1333 "/>
<path id="8" d="M280 283.1333 C280 283.1333 284.3056 284.0457 286 283.1333 C289.0412 281.4958 291.3104 279.935 293 276.1333 C300.3156 259.6732 301.1016 257.1148 306 238.1333 C308.9345 226.7622 305.4658 224.2646 309 214.1333 C312.2716 204.7546 313.8488 202.2846 321 195.1333 C329.9967 186.1366 337.1922 188.3238 344 179.1333 C354.4253 165.0591 352.0439 159.0456 361 141.1333 C362.6371 137.859 365.1011 137.83 366 135.1333 C367.0552 131.9676 366 126.1333 366 126.1333 "/>
<path id="9" d="M201 259.1333 C201 259.1333 179.6506 268.5154 172 278.1333 C166.5854 284.9402 167.5412 290.804 166 303.1333 C164.6234 314.1459 164.2649 316.3009 166 326.1333 C166.9097 331.2885 168.3621 332.5859 172 337.1333 C175.9142 342.0261 177.2095 342.9397 182 346.1333 C183.6966 347.2644 187 347.1333 187 347.1333 "/>
<path id="10" d="M227 263.1333 C227 263.1333 231.0333 282.8334 228 296.1333 C225.4831 307.1692 219.9873 307.8736 214 320.1333 C209.6472 329.0461 211.0188 332.0231 207 339.1333 C205.7061 341.4226 201 343.1333 201 343.1333 "/>
<path id="11" d="M183 348.1333 L180 381.1333 "/>
<path id="12" d="M202 335.1333 C202 335.1333 203.3324 352.8113 202 369.1333 C201.3994 376.491 198 384.1333 198 384.1333 "/>
<path id="13" d="M186 378.1333 C186 378.1333 193.5755 387.517 202 393.1333 C209.0204 397.8136 219 400.1333 219 400.1333 "/>
<path id="14" d="M191 388.1333 C191 388.1333 189.4085 392.3236 190 395.1333 C191.1372 400.5349 194.2968 401.5079 195 407.1333 C196.107 415.9892 194 427.1333 194 427.1333 "/>
<path id="15" d="M190 381.1333 C190 381.1333 190.3023 384.9357 189 387.1333 C183.0958 397.0966 174 408.1333 174 408.1333 "/>
<path id="16" d="M279 262.1333 C279 262.1333 287.123 261.9165 292 264.1333 C296.4308 266.1473 298.8287 268.7557 301 272.1333 C301.945 273.6034 301 278.1333 301 278.1333 "/>
<path id="17" d="M272 272.1333 C272 272.1333 270.2314 279.1764 271 285.1333 C272.1135 293.7627 273.0321 294.9716 276 303.1333 C276.7624 305.2299 277.72 306.4933 279 307.1333 C280.28 307.7733 284 307.1333 284 307.1333 "/>
<path id="18" d="M306 281.1333 L306 299.1333 "/>
<path id="19" d="M285 310.1333 C285 310.1333 294.4185 316.3219 296 319.1333 C296.6118 320.2209 294 326.1333 294 326.1333 "/>
<path id="20" d="M299 304.1333 C299 304.1333 301.773 304.5658 302 305.1333 C304.167 310.5507 307 324.1333 307 324.1333 "/>
<path id="21" d="M295 330.1333 C295 330.1333 295.984 338.6093 299 343.1333 C301.8235 347.3686 309 351.1333 309 351.1333 "/>
<path id="22" d="M310 337.1333 L322 338.1333 "/>
<path id="23" d="M303 329.1333 L288 351.1333 "/>
<path id="24" d="M338 99.1333 C338 99.1333 335.3238 98.4714 334 99.1333 C329.532 101.3673 324.34 105.5666 324 106.1333 C323.9843 106.1595 326.1165 108.7148 328 109.1333 C333.7401 110.4089 337.3123 110.6848 342 110.1333 C343.1322 110.0001 344.6021 108.5656 345 107.1333 C346.6145 101.3212 347.3006 92.9749 347 92.1333 C346.9684 92.045 340 93.1333 340 93.1333 "/>
<path id="25" d="M339 99.1333 C339 99.1333 344.8898 108.0546 345 108.1333 C345.0165 108.1451 346.2257 104.4041 346 104.1333 C345.5011 103.5347 340 102.1333 340 102.1333 "/>
<path id="26" d="M342 102.1333 C342 102.1333 339 105.0187 339 105.1333 C339 105.1715 341.9976 106.1394 342 106.1333 C342.0683 105.9625 341.0017 100.1342 341 100.1333 C340.9994 100.133 339.6699 104.3631 340 105.1333 C340.2682 105.7591 344 107.1333 344 107.1333 C344 107.1333 335 103.1333 335 103.1333 C335 103.1333 342 106.1333 342 106.1333 "/>
</g>
</g>
</svg>
