<?xml version="1.0" encoding="utf-8"?>
<!DOCTYPE svg PUBLIC "-//W3C//DTD SVG 1.1//EN" "http://www.w3.org/Graphics/SVG/1.1/DTD/svg11.dtd">
<svg viewBox="0 0 800 800" preserveAspectRatio="xMinYMin meet" xmlns="http://www.w3.org/2000/svg" version="1.1">
<g fill="none" stroke="black" stroke-linecap="round" stroke-linejoin="round" stroke-width="1.8337">
<g transform="translate(87.52,260.1202) scale(1.636) translate(-89,-108.1333)">
<path id="0" d="M105 140.1333 C105 140.1333 105.2642 131.7606 107 130.1333 C109.8516 127.4599 116.0548 128.0423 121 125.1333 C122.7343 124.1132 124 120.1333 124 120.1333 "/>
<path id="1" d="M125 121.1333 C125 121.1333 128.8785 128.116 129 128.1333 C129.0521 128.1408 130.4671 123.6662 132 122.1333 C132.8516 121.2817 135.5703 120.7991 136 121.1333 C137.4965 122.2973 140.8507 129.0694 141 129.1333 C141.0025 129.1344 142.1444 124.8463 143 124.1333 C143.555 123.6709 146.3963 123.6159 147 124.1333 C148.2289 125.1867 150 130.1333 150 130.1333 "/>
<path id="2" d="M106 141.1333 C106 141.1333 98.8509 142.962 95 146.1333 C91.5837 148.9468 88.9434 155.1161 89 155.1333 C89.4924 155.2832 116.4243 151.6663 118 153.1333 C119.5677 154.5929 116.4794 171.7929 118 182.1333 C118.3007 184.1783 121.0219 186.6388 123 187.1333 C126.4023 187.9839 129.9221 187.2984 134 186.1333 C135.3937 185.7351 136.8416 184.348 137 183.1333 C137.9344 175.9697 137.6569 170.3591 137 163.1333 C136.9283 162.3451 134.979 161.1386 135 161.1333 C135.1996 161.0834 149 160.1333 149 160.1333 "/>
<path id="3" d="M152 132.1333 C152 132.1333 152.8945 136.9751 155 140.1333 C157.4564 143.8179 159.9598 143.393 162 147.1333 C165.3431 153.2624 163.3961 156.0518 167 162.1333 C170.7153 168.403 173.6695 168.1373 178 174.1333 C179.6164 176.3714 179.1338 179.2671 180 180.1333 C180.4331 180.5664 183.2265 179.5532 184 180.1333 C185.6436 181.366 187.6131 186.1333 188 186.1333 C188.6771 186.1333 193.5051 182.6961 195 180.1333 C195.8895 178.6084 194.1202 176.1863 195 174.1333 C196.5502 170.5163 198.283 167.2977 201 166.1333 C205.4459 164.2279 209.9714 167.2121 216 165.1333 C222.7195 162.8163 222.7386 159.5505 230 156.1333 C239.2759 151.7682 240.4048 150.1259 250 149.1333 C267.546 147.3182 272.3862 147.531 288 150.1333 C292.5682 150.8947 294.9917 153.4308 298 157.1333 C300.2749 159.9332 300.6119 165.6806 301 166.1333 C301.0192 166.1557 303.8875 164.0458 304 164.1333 C305.0125 164.9208 306.7279 169.5638 310 173.1333 C311.7112 175.0001 314.8413 176.1016 315 176.1333 C315.0113 176.1356 314.9689 174.1395 315 174.1333 C315.3728 174.0588 318.9662 174.0307 320 175.1333 C324.4304 179.8591 324.6088 185.6406 330 190.1333 C334.3529 193.7608 343.244 195.5113 344 195.1333 C344.5588 194.854 344.0472 187.9918 346 182.1333 C348.3339 175.1317 348.7784 173.938 353 168.1333 C356.2165 163.7107 359.2323 164.2848 362 160.1333 C364.3723 156.5749 362.6277 153.6917 365 150.1333 C367.7677 145.9819 369.3046 144.6944 374 142.1333 C379.3342 139.2238 380.5778 138.9361 387 138.1333 C399.9038 136.5204 402.6159 135.4257 414 137.1333 C419.9571 138.0269 422.2239 139.7552 427 144.1333 C433.088 149.714 433.7775 155.1748 438 159.1333 C438.8424 159.9231 441.7637 158.3915 443 159.1333 C445.1264 160.4092 447.9922 165.1385 448 165.1333 C448.0594 165.0937 448.9894 155.1413 449 155.1333 C449.0028 155.1312 452 162.1333 452 162.1333 "/>
<path id="4" d="M349 192.1333 C349 192.1333 356.5606 188.3288 359 186.1333 C359.4277 185.7484 358.4784 183.6811 359 183.1333 C365.442 176.3693 368.81 171.6436 379 165.1333 C385.2092 161.1663 387.1779 161.3555 395 160.1333 C402.4579 158.968 403.5118 158.8549 411 160.1333 C423.2596 162.2264 428.071 161.644 436 167.1333 C443.3977 172.2548 442.3599 178.5764 450 187.1333 C454.1895 191.8255 456.1385 191.0197 461 195.1333 C462.2417 196.184 463 197.4144 463 198.1333 C463 198.8523 461 201.1333 461 201.1333 "/>
<path id="5" d="M148 162.1333 C148 162.1333 154.5898 178.33 159 194.1333 C160.4184 199.216 157.9797 201.0928 160 205.1333 C165.8852 216.9036 168.2762 218.6338 177 230.1333 C178.794 232.4981 180.4344 234.0215 182 234.1333 C184.6023 234.3192 188.8009 230.8192 191 231.1333 C192.4661 231.3428 193.6126 235.4512 196 236.1333 C204.8599 238.6647 219 239.1333 219 239.1333 "/>
<path id="6" d="M219 241.1333 C219 241.1333 229.7307 243.4319 236 243.1333 C237.5364 243.0602 239.9901 240.106 240 240.1333 C240.0899 240.3806 241.7726 248.6382 240 254.1333 C237.4391 262.0721 233.6606 263.446 230 271.1333 C229.3271 272.5463 229.9871 275.129 230 275.1333 C230.0193 275.1398 233 272.1333 233 272.1333 "/>
<path id="7" d="M231 274.1333 C231 274.1333 238.6287 276.0475 240 275.1333 C242.1941 273.6706 244.5497 269.572 246 264.1333 C248.2484 255.7019 245.9216 252.2591 248 245.1333 C248.6854 242.7833 253 240.1333 253 240.1333 "/>
<path id="8" d="M257 241.1333 C257 241.1333 260.5475 256.8484 259 266.1333 C258.2263 270.7758 251.9337 275.1102 251 277.1333 C250.9316 277.2816 252.7475 279.1965 253 279.1333 C254.1782 278.8388 256.5366 275.7492 259 275.1333 C261.0235 274.6274 263.9677 276.5205 265 276.1333 C265.6423 275.8925 266.9007 273.9709 267 272.1333 C267.7979 257.3724 267 239.1333 267 239.1333 "/>
<path id="9" d="M267 239.1333 C267 239.1333 267.5034 235.3086 268 235.1333 C271.4396 233.9194 277.6953 235.9705 284 233.1333 C295.6395 227.8955 297.0715 221.8592 308 217.1333 C312.5949 215.1463 315.9234 218.5178 321 217.1333 C325.1536 216.0005 325.7261 212.2018 330 211.1333 C337.8354 209.1745 343.3628 211.849 349 210.1333 C350.7013 209.6155 350.5194 206.2171 353 204.1333 C362.22 196.3885 363.4199 194.5663 374 189.1333 C380.6549 185.716 382.1333 185.7503 390 185.1333 C406.8776 183.8096 408.676 183.9944 425 185.1333 C428.8288 185.4005 429.591 186.0027 433 188.1333 C441.1127 193.2037 442.0912 195.988 449 200.1333 C450.1912 200.848 452.4787 199.5426 453 200.1333 C456.9443 204.6035 464 217.1333 464 217.1333 "/>
<path id="10" d="M335 192.1333 C335 192.1333 334.6353 174.5919 338 161.1333 C339.5896 154.7749 341.2549 152.8784 346 148.1333 C351.197 142.9363 353.0197 141.597 360 139.1333 C368.558 136.1128 370.6311 138.5511 380 136.1333 C385.5428 134.7029 385.6285 131.9689 391 131.1333 C406.6483 128.6991 408.8148 128.2505 425 129.1333 C435.1592 129.6875 437.4533 129.86 446 134.1333 C455.6377 138.9522 459.4106 141.3082 465 149.1333 C469.751 155.7847 469.7156 160.4639 471 169.1333 C471.4122 171.9155 469 176.1333 469 176.1333 "/>
<path id="11" d="M122 139.1333 L132 137.1333 "/>
<path id="12" d="M124 141.1333 C124 141.1333 132.5168 142.5378 134 142.1333 C134.3188 142.0464 135 138.1333 135 138.1333 "/>
<path id="13" d="M201 183.1333 C201 183.1333 208.5508 198.5693 215 202.1333 C221.6085 205.7854 227.5007 204.6444 239 204.1333 C249.1848 203.6807 249.8612 202.7498 260 200.1333 C265.0768 198.8232 266.0059 198.8661 270 196.1333 C274.7533 192.8811 274.134 189.8018 279 187.1333 C288.2139 182.0805 290.4025 181.9593 301 179.1333 C304.513 178.1965 309 179.1333 309 179.1333 "/>
<path id="14" d="M205 196.1333 C205 196.1333 205.2072 200.8624 207 203.1333 C211.6525 209.0265 214.0163 212.8454 220 215.1333 C227.2745 217.9148 232.0719 217.778 241 216.1333 C248.9236 214.6737 249.5572 210.5456 258 208.1333 C266.1301 205.8104 268.7085 208.6476 276 206.1333 C281.3677 204.2824 281.4624 200.3894 287 198.1333 C293.6882 195.4085 296.3804 197.5405 303 195.1333 C306.0281 194.0322 309 190.1333 309 190.1333 "/>
<path id="15" d="M118 123.1333 C118 123.1333 117.9649 125.1216 118 125.1333 C118.1403 125.1801 120.7083 124.7532 121 124.1333 C123.2199 119.4161 124.4409 111.2515 126 108.1333 C126.1264 107.8805 128.469 107.6687 129 108.1333 C130.9693 109.8564 133.7129 115.0616 134 115.1333 C134.0744 115.1519 135.7524 111.0245 137 110.1333 C137.7594 109.5909 140.4482 109.5815 141 110.1333 C142.9312 112.0646 145.9849 119.1242 146 119.1333 C146.0052 119.1365 145.8329 113.2002 146 113.1333 C146.6407 112.8771 155.9526 114.9438 156 115.1333 C156.0869 115.4808 151.234 120.6654 149 125.1333 C148.3381 126.4572 149 129.1333 149 129.1333 "/>
<path id="16" d="M98 154.1333 C98 154.1333 100.3125 160.1489 102 161.1333 C103.6701 162.1076 109.9757 161.1431 110 161.1333 C110.0067 161.1307 106.985 159.2082 107 159.1333 C107.0407 158.93 108.9963 156.7595 111 156.1333 C116.1235 154.5322 123 154.1333 123 154.1333 "/>
</g>
</g>
</svg>
