<?xml version="1.0" encoding="utf-8"?>
<!DOCTYPE svg PUBLIC "-//W3C//DTD SVG 1.1//EN" "http://www.w3.org/Graphics/SVG/1.1/DTD/svg11.dtd">
<svg viewBox="0 0 800 800" preserveAspectRatio="xMinYMin meet" xmlns="http://www.w3.org/2000/svg" version="1.1">
<g fill="none" stroke="black" stroke-linecap="round" stroke-linejoin="round" stroke-width="1.8769">
<g transform="translate(87.52,126.6799) scale(1.5984) translate(-194,-59.1333)">
<path id="0" d="M249 104.1333 C249 104.1333 249.761 100.0465 249 99.1333 C246.6663 96.3329 244.1889 94.0967 239 92.1333 C226.8372 87.5312 225.1654 88.1062 212 85.1333 C210.1574 84.7173 207.9978 85.1321 208 85.1333 C208.0114 85.1395 218.0458 88.024 225 92.1333 C227.8116 93.7947 228.6712 95.4757 230 98.1333 C230.6253 99.384 230 102.1333 230 102.1333 "/>
<path id="1" d="M221 90.1333 C221 90.1333 223.5815 92.2499 224 94.1333 C225.2756 99.8734 223.5411 102.5896 225 108.1333 C225.6191 110.4859 229.0254 113.1169 229 113.1333 C228.1739 113.6679 216.8696 114.8329 208 119.1333 C201.7497 122.1638 200.6705 124.1292 196 129.1333 C194.4872 130.7542 194 131.8602 194 134.1333 C194 150.9542 193.6085 163.7748 196 171.1333 C196.4176 172.4184 204.0076 174.7633 207 174.1333 C209.7342 173.5577 214.9993 167.1325 215 167.1333 C215.0231 167.161 211.7667 175.9342 212 180.1333 C212.0949 181.8421 214.2897 184.4207 216 185.1333 C218.2492 186.0705 220.5295 185.9499 224 185.1333 C228.3126 184.1186 231.1334 183.6221 233 181.1333 C236.5595 176.3874 238.5949 165.7185 239 165.1333 C239.0186 165.1065 241.989 168.1433 242 168.1333 C242.8008 167.4053 245.953 160.1921 250 155.1333 C251.0848 153.7774 253.7318 153.7591 254 153.1333 C254.3301 152.3631 253 148.1333 253 148.1333 "/>
<path id="2" d="M249 96.1333 C249 96.1333 254.1016 76.7684 261 66.1333 C263.6992 61.9721 267.3831 60.4891 273 59.1333 C279.9752 57.4497 288.0543 57.674 290 59.1333 C291.631 60.3566 293.2354 69.6614 293 74.1333 C292.9332 75.402 288.9909 78.1333 289 78.1333 C289.034 78.1333 303.8507 73.9569 304 74.1333 C304.2339 74.4097 302.3322 82.9708 300 91.1333 C299.4124 93.19 298.8301 94.4692 298 95.1333 C297.5211 95.5165 295 95.1333 295 95.1333 C295 95.1333 307.0428 93.2771 309 94.1333 C309.7937 94.4806 311.6999 100.1502 311 102.1333 C309.8654 105.3479 307.2671 108.8474 303 111.1333 C295.274 115.2723 283 117.1333 283 117.1333 "/>
<path id="3" d="M241 105.1333 C241 105.1333 244.4266 104.5599 245 105.1333 C247.2937 107.427 251.0153 115.1149 251 115.1333 C250.9841 115.1524 241.8033 112.7727 240 111.1333 C239.328 110.5224 240 105.1333 240 105.1333 "/>
<path id="4" d="M247 162.1333 C247 162.1333 247.8985 166.1111 247 169.1333 C242.7295 183.4976 238.6685 184.5778 236 199.1333 C233.4996 212.7721 234.911 214.977 236 229.1333 C236.3351 233.4891 236.7955 234.1885 239 238.1333 C246.0081 250.6742 245.7777 253.6683 255 263.1333 C263.0513 271.3965 266.1911 271.8927 277 277.1333 C281.4942 279.3123 287.0957 279.2155 288 279.1333 C288.0228 279.1313 288 276.1333 288 276.1333 "/>
<path id="5" d="M289 115.1333 C289 115.1333 299.7902 127.0943 308 140.1333 C316.5388 153.695 323 169.1333 323 169.1333 "/>
<path id="6" d="M286 256.1333 C286 256.1333 283.539 272.0278 286 281.1333 C287.4473 286.4884 290.6471 290.2399 296 293.1333 C306.1705 298.6309 309.8237 300.0466 323 301.1333 C356.346 303.8835 360.5687 305.7664 393 301.1333 C416.8271 297.7295 417.6117 290.5513 442 284.1333 C454.6742 280.798 467.9281 281.4906 469 281.1333 C469.051 281.1163 467.9288 277.6947 466 276.1333 C458.4152 269.9933 457.2568 269.1825 448 264.1333 C441.1088 260.3745 440.6659 260.2835 433 258.1333 C400.0219 248.8834 366 241.1333 366 241.1333 "/>
<path id="7" d="M323 164.1333 C323 164.1333 333.6831 170.9891 345 175.1333 C368.6933 183.8098 371.0686 181.4871 394 190.1333 C400.3003 192.5089 400.2009 193.8955 406 198.1333 C413.1614 203.3667 414.2553 203.115 420 209.1333 C424.1692 213.5011 423.5461 214.6072 427 220.1333 C428.5444 222.6044 429.5655 222.8158 430 225.1333 C430.8593 229.7163 430 236.1334 430 236.1333 C430 236.1332 429.8033 227.602 432 220.1333 C439.5871 194.3371 439.5643 193.1791 450 168.1333 C456.8548 151.6817 457.0095 148.2272 467 136.1333 C473.8019 127.8995 477.2009 127.2875 488 122.1333 C498.276 117.2289 499.7573 117.2044 511 115.1333 C517.943 113.8544 519.0602 113.9087 526 115.1333 C535.2803 116.771 538.0124 116.4749 545 121.1333 C553.8104 127.007 554.4087 129.59 562 139.1333 C571.7094 151.3394 572.2142 151.9313 580 165.1333 C583.3913 170.8838 583.835 171.8425 585 178.1333 C586.1712 184.4576 585.8256 185.5286 585 192.1333 C584.3882 197.0279 582.1526 197.3014 582 202.1333 C580.7152 242.8193 582.8101 251.4899 582 287.1333 C581.971 288.4104 580.0217 290.1637 580 290.1333 C579.6863 289.6941 575.0759 281.869 572 273.1333 C562.6891 246.6905 555.0137 219.163 555 219.1333 C554.9968 219.1264 555.7653 227.2194 554 234.1333 C549.9722 249.9091 543.9108 264.6868 543 266.1333 C542.9714 266.1788 539.0915 264.0615 537 261.1333 C527.1858 247.3935 518.0118 231.1278 518 231.1333 C517.9546 231.1548 518.2556 268.2415 518 270.1333 C517.9913 270.1976 513.5495 269.3479 513 268.1333 C507.0265 254.9287 499.0047 228.1405 499 228.1333 C498.998 228.1303 500.9204 240.1566 500 248.1333 C499.7009 250.7254 497.9127 253.0176 496 254.1333 C493.811 255.4102 490.2435 256.2551 488 255.1333 C479.0261 250.6464 466.5033 239.202 466 239.1333 C465.9631 239.1283 467.0475 246.3719 466 252.1333 C465.2162 256.4443 464.2039 258.7091 462 261.1333 C460.6999 262.5635 457.1465 263.3881 456 263.1333 C455.1975 262.955 454.269 259.6409 453 259.1333 C451.069 258.3609 446 259.1333 446 259.1333 "/>
<path id="8" d="M443 288.1333 C443 288.1333 441.9031 303.3364 443 316.1333 C443.2843 319.4501 445.9991 323.1287 446 323.1333 C446.0003 323.1348 444 321.1333 444 321.1333 "/>
<path id="9" d="M412 298.1333 C412 298.1333 435.1416 332.0234 435 332.1333 C428.8737 336.891 373.2995 351.9385 318 371.1333 C315.8643 371.8746 313.9992 374.1322 314 374.1333 C314.0092 374.1472 320 374.1333 320 374.1333 "/>
<path id="10" d="M448 327.1333 C448 327.1333 448.467 335.3313 448 338.1333 C447.9434 338.473 446.6091 339.2767 446 339.1333 C440.4164 337.8195 434.0053 333.8328 431 334.1333 C429.8186 334.2515 428.7471 340.0473 426 341.1333 C393.5781 353.9513 384.9098 357.4168 345 368.1333 C332.5468 371.4773 318 370.1238 318 370.1333 C318 370.2145 332.2495 378.2466 345 387.1333 C348.3418 389.4624 349.2483 390.0679 351 393.1333 C352.6986 396.1059 353.0018 401.1355 353 401.1333 C352.9925 401.1243 343.3215 381.1237 336 375.1333 C332.7827 372.501 327.4003 375.4203 320 374.1333 C316.5585 373.5348 315.8611 371.0274 313 371.1333 C304.632 371.4433 300.8488 371.4398 293 375.1333 C285.9529 378.4496 284.1881 381.0297 279 387.1333 C276.7099 389.8276 275.9942 395.1369 276 395.1333 C276.0188 395.1217 283.4885 385.3235 292 379.1333 C299.0276 374.0224 309 371.1333 309 371.1333 "/>
</g>
</g>
</svg>
