<?xml version="1.0" encoding="utf-8"?>
<!DOCTYPE svg PUBLIC "-//W3C//DTD SVG 1.1//EN" "http://www.w3.org/Graphics/SVG/1.1/DTD/svg11.dtd">
<svg viewBox="0 0 800 800" preserveAspectRatio="xMinYMin meet" xmlns="http://www.w3.org/2000/svg" version="1.1">
<g fill="none" stroke="black" stroke-linecap="round" stroke-linejoin="round" stroke-width="1.4065">
<g transform="translate(87.52,101.3843) scale(2.133) translate(-141,-184.1333)">
<path id="0" d="M279 301.1333 C279 301.1333 292.5199 306.956 305 308.1333 C317.5508 309.3174 322.694 308.8704 332 306.1333 C335.1549 305.2054 336.689 302.3352 339 298.1333 C341.7694 293.0981 342.3779 292.0433 343 286.1333 C345.2644 264.622 342.1768 261.9547 345 241.1333 C345.9238 234.3202 347.1224 233.1651 351 227.1333 C355.7152 219.7986 356.5319 219.039 363 213.1333 C367.539 208.989 368.3446 209.0957 374 206.1333 C378.6639 203.6904 379.1753 202.9374 384 202.1333 C390.3324 201.0779 394.2337 200.2502 398 202.1333 C402.3043 204.2855 405.5 208.3 408 214.1333 C410.5877 220.1714 411.3417 227.0475 410 230.1333 C408.9166 232.625 403.6214 235.6199 398 237.1333 C392.3319 238.6594 388.2885 235.9421 384 237.1333 C382.3493 237.5919 381.0491 239.4703 380 242.1333 C374.9674 254.9084 373.5612 256.4734 371 270.1333 C369.2745 279.3358 371.9494 280.4018 371 290.1333 C369.9846 300.5413 367 311.1333 367 311.1333 "/>
<path id="1" d="M411 216.1333 C411 216.1333 415.7541 216.1989 417 217.1333 C418.0614 217.9293 417.4701 220.6034 419 222.1333 C424.9012 228.0345 434.0038 234.1289 434 234.1333 C433.889 234.2629 407 236.1333 407 236.1333 "/>
<path id="2" d="M412 238.1333 C412 238.1333 412.9805 242.8454 412 245.1333 C410.6593 248.2617 408.5348 250.5203 406 252.1333 C404.7877 252.9048 402.2607 252.8337 401 252.1333 C399.2911 251.1839 398.2479 249.6291 397 247.1333 C396.0195 245.1724 395.8437 243.0712 396 242.1333 C396.0431 241.8746 398 241.1333 398 241.1333 "/>
<path id="3" d="M381 218.1333 C381 218.1333 387.2996 226.2609 392 229.1333 C393.8566 230.2679 397.4697 229.8135 399 229.1333 C399.8259 228.7663 401 225.1333 401 225.1333 "/>
<path id="4" d="M412 218.1333 C412 218.1333 416.8804 212.7985 418 208.1333 C419.4681 202.0164 419.1153 195.5033 418 193.1333 C417.5714 192.2225 412.4599 192.8363 410 191.1333 C407.4192 189.3466 407.0339 185.7153 405 184.1333 C404.2211 183.5275 401.9312 183.5125 401 184.1333 C398.9047 185.5302 397.0151 190.0657 396 190.1333 C394.1828 190.2545 390.2347 186.2626 386 185.1333 C384.2314 184.6617 381.4544 185.588 381 186.1333 C380.5602 186.661 381.1424 191.0926 381 191.1333 C379.6329 191.5239 367.4042 189.8761 367 190.1333 C366.9368 190.1736 370.2148 197.8946 370 198.1333 C369.4811 198.7099 359.4643 199.0351 358 200.1333 C357.4306 200.5604 357.2208 206.1593 358 207.1333 C359.0463 208.4413 366 210.1333 366 210.1333 "/>
<path id="5" d="M372 301.1333 C372 301.1333 367.904 308.0315 367 314.1333 C366.0887 320.2845 366.5588 321.6481 368 328.1333 C369.4299 334.5679 371.5726 334.8528 373 341.1333 C373.9088 345.1318 373.8434 346.127 373 350.1333 C371.9839 354.9597 371.94 356.1796 369 360.1333 C358.2162 374.6357 356.9221 379.1726 344 389.1333 C336.041 395.2684 332.3405 394.8652 321 397.1333 C310.7659 399.1802 308.6938 399.749 299 398.1333 C289.5282 396.5547 288.1339 394.9857 279 390.1333 C272.6793 386.7754 271.5298 386.2809 267 381.1333 C261.2566 374.6068 261.1033 373.34 257 365.1333 C253.7759 358.6852 255.5057 355.1925 252 351.1333 C248.1551 346.6813 244.0467 344.3844 238 343.1333 C232.3662 341.9677 228.1744 342.0709 223 345.1333 C207.0201 354.5908 189.4302 372.0258 189 372.1333 C188.9287 372.1511 188.6747 361.6595 191 353.1333 C192.8927 346.1934 193.5656 344.6236 198 339.1333 C203.2588 332.6224 204.7694 331.0985 212 327.1333 C218.9359 323.3298 229 322.1333 229 322.1333 "/>
<path id="6" d="M193 347.1333 C193 347.1333 187.7691 358.2361 181 366.1333 C176.5423 371.3339 169.0285 375.1369 169 375.1333 C168.9928 375.1324 171.9379 370.1783 173 365.1333 C175.8254 351.7128 173.2078 348.8017 177 337.1333 C178.9317 331.1896 180.7286 329.1998 186 325.1333 C196.848 316.7649 200.4365 313.2651 212 310.1333 C220.2539 307.8979 234 312.1333 234 312.1333 "/>
<path id="7" d="M281 301.1333 L273 301.1333 "/>
<path id="8" d="M281 302.1333 C281 302.1333 268.6401 300.2166 264 296.1333 C259.4015 292.0867 260.9137 286.5212 256 280.1333 C251.7346 274.5883 249.5928 271.6586 244 270.1333 C231.6407 266.7626 225.6323 265.5773 212 268.1333 C197.0745 270.9319 194.1704 273.3949 180 282.1333 C165.2891 291.2051 164.449 293.0208 152 305.1333 C146.6504 310.3384 143.0501 317.8074 143 318.1333 C142.9962 318.1577 147.9081 319.3157 150 318.1333 C156.9775 314.1895 157.4782 309.95 166 305.1333 C179.6318 297.4284 181.4233 295.322 196 292.1333 C211.1869 288.8112 216.9789 289.3164 230 291.1333 C233.8366 291.6687 238.9917 298.1166 239 298.1333 C239.0029 298.1391 233 297.1333 233 297.1333 "/>
<path id="9" d="M165 307.1333 C165 307.1333 156.553 316.7215 151 327.1333 C144.8675 338.6318 141.3071 350.8537 141 352.1333 C140.9892 352.1782 143.9216 352.8822 145 352.1333 C158.3082 342.8915 160.6024 338.5113 177 327.1333 C184.7241 321.7738 185.3626 320.8325 194 318.1333 C208.3321 313.6545 225 312.1333 225 312.1333 "/>
<path id="10" d="M263 297.1333 C263 297.1333 262.7557 307.4057 265 316.1333 C267.0471 324.0943 267.6534 324.889 272 332.1333 C277.8959 341.9598 278.1124 343.0203 286 351.1333 C295.05 360.4419 296.9203 362.6615 307 368.1333 C312.0303 370.8641 314.8855 370.4113 321 370.1333 C324.5768 369.9707 325.7268 369.2513 329 367.1333 C333.6677 364.1131 335.6072 363.5771 338 359.1333 C344.9778 346.1746 346.4116 343.3151 350 328.1333 C352.5703 317.2589 352.1546 315.102 351 304.1333 C350.2981 297.4651 346 290.1333 346 290.1333 "/>
<path id="11" d="M302 401.1333 C302 401.1333 307.6818 413.2846 310 425.1333 C312.0127 435.4204 311.6105 439.5015 311 447.1333 C310.9098 448.2614 308.0516 449.9271 308 450.1333 C307.9931 450.1608 310 451.1333 310 451.1333 "/>
<path id="12" d="M312 402.1333 C312 402.1333 317.4205 414.5504 319 426.1333 C320.2573 435.3532 316.9247 443.1763 318 446.1333 C318.2887 446.9273 325.4737 446.9123 327 448.1333 C327.8351 448.8014 328.633 452.8674 328 454.1333 C326.9067 456.3199 324.1169 459.2428 321 460.1333 C315.9925 461.564 309.1615 461.2141 307 460.1333 C306.0737 459.6702 304.9316 452.6806 305 452.1333 C305.0033 452.1069 308 452.1333 308 452.1333 "/>
<path id="13" d="M309 463.1333 L311 463.1333 "/>
<path id="14" d="M319 464.1333 L322 463.1333 "/>
<path id="15" d="M323 460.1333 L326 460.1333 "/>
<path id="16" d="M350 390.1333 L359 432.1333 "/>
<path id="17" d="M360 380.1333 C360 380.1333 363.3587 403.7405 367 425.1333 C367.1711 426.1384 367.6476 427.0628 368 427.1333 C370.2656 427.5865 376.002 426.3168 377 427.1333 C378.0383 427.9828 379.5844 435.1836 379 436.1333 C378.2362 437.3745 373.8278 439.2137 369 440.1333 C364.0654 441.0733 358.5898 440.3103 358 440.1333 C357.9946 440.1317 359 437.1333 359 437.1333 "/>
<path id="18" d="M371 444.1333 L375 445.1333 "/>
<path id="19" d="M380 440.1333 L382 440.1333 "/>
<path id="20" d="M367 439.1333 L372 446.1333 "/>
<path id="21" d="M361 387.1333 L359 374.1333 "/>
<path id="22" d="M349 395.1333 L347 384.1333 "/>
</g>
</g>
</svg>
