<?xml version="1.0" encoding="utf-8"?>
<!DOCTYPE svg PUBLIC "-//W3C//DTD SVG 1.1//EN" "http://www.w3.org/Graphics/SVG/1.1/DTD/svg11.dtd">
<svg viewBox="0 0 800 800" preserveAspectRatio="xMinYMin meet" xmlns="http://www.w3.org/2000/svg" version="1.1">
<g fill="none" stroke="black" stroke-linecap="round" stroke-linejoin="round" stroke-width="1.7089">
<g transform="translate(87.52,221.8162) scale(1.7555) translate(-78,-193.9167)">
<path id="0" d="M128 265.9167 C128 265.9167 138.4783 265.4167 147 261.9167 C165.4956 254.3202 166.6508 249.021 184 242.9167 C190.7514 240.5412 192.8745 241.7829 201 242.9167 C213.8274 244.7065 217.0215 244.0553 227 248.9167 C233.6701 252.1662 234.3053 254.984 240 261.9167 C245.5831 268.7134 246.2301 269.0491 250 276.9167 C257.4723 292.5111 256.9302 304.175 263 309.9167 C266.5543 313.2788 287 311.9167 287 311.9167 "/>
<path id="1" d="M134 268.9167 C134 268.9167 136.6702 253.9378 135 243.9167 C134.1817 239.007 130.8468 233.8952 128 232.9167 C121.3988 230.6475 112.2557 230.6028 103 232.9167 C98.0945 234.143 96.5044 237.112 92 241.9167 C89.4927 244.5911 88 248.6945 88 248.9167 C88 248.9167 91.9832 248.8329 92 248.9167 C92.31 250.4667 91 256.6742 91 263.9167 C91 266.3308 91.0375 267.3766 92 268.9167 C92.9411 270.4225 94.2757 271.7442 96 271.9167 C106.4257 272.9592 111.6659 274.6724 122 271.9167 C130.8237 269.5637 141 259.9167 141 259.9167 "/>
<path id="2" d="M95 236.9167 C95 236.9167 94.1642 224.1454 95 221.9167 C95.1811 221.4338 100.5006 220.4173 101 220.9167 C102.8975 222.8142 106.9984 233.921 107 233.9167 C107.0034 233.9073 104.8701 210.4362 105 209.9167 C105.0124 209.8669 110.8706 211.9089 112 213.9167 C113.8675 217.2366 113.9998 225.9167 114 225.9167 C114.0005 225.9165 113.5876 218.5662 115 212.9167 C115.8528 209.5056 117.4611 207.4556 119 205.9167 C119.4197 205.497 121.9052 205.7272 122 205.9167 C122.537 206.9906 123.4137 210.4004 123 213.9167 C122.5091 218.0889 122.0705 219.2933 120 222.9167 C118.4816 225.5738 115.4042 226.8388 115 227.9167 C114.8677 228.2694 116.9931 230.9216 117 230.9167 C118.0307 230.1805 124.322 221.9709 129 217.9167 C129.6032 217.3939 131.925 217.7667 132 217.9167 C132.3 218.5167 132.9124 222.2223 132 223.9167 C130.3624 226.9579 125 230.9167 125 230.9167 "/>
<path id="3" d="M134 267.9167 C134 267.9167 129.8674 271.1819 128 274.9167 C124.2652 282.3863 122.9507 283.6773 122 291.9167 C120.1193 308.2162 120.8611 310.5926 122 326.9167 C122.2671 330.7455 122.8821 331.6435 125 334.9167 C128.0202 339.5843 128.9754 342.1126 133 343.9167 C140.6225 347.3336 143.6042 346.5753 154 347.9167 C158.8316 348.5401 159.853 348.7461 164 347.9167 C166.3223 347.4522 168.9881 344.8645 169 344.9167 C169.1592 345.6171 172.1868 361.856 169 369.9167 C165.8488 377.8874 152 387.9167 152 387.9167 "/>
<path id="4" d="M172 373.9167 L181 390.9167 "/>
<path id="5" d="M170 379.9167 L169 392.9167 "/>
<path id="6" d="M166 344.9167 C166 344.9167 173.4925 351.5929 181 353.9167 C192.9195 357.606 194.5107 356.6196 208 357.9167 C220.362 359.1053 223.1921 360.1427 233 358.9167 C236.0064 358.5409 239.976 353.8568 240 353.9167 C240.3397 354.766 244.4315 374.8507 243 383.9167 C242.5433 386.8094 237.9515 387.9652 234 391.9167 C233.3027 392.614 232.9771 393.8708 233 393.9167 C233.0153 393.9472 235 393.9167 235 393.9167 "/>
<path id="7" d="M244 384.9167 L251 393.9167 "/>
<path id="8" d="M245 387.9167 L246 396.9167 "/>
<path id="9" d="M239 351.9167 C239 351.9167 239.6604 353.8601 240 353.9167 C242.802 354.3837 245.8935 354.6826 251 353.9167 C255.3869 353.2586 256.5559 353.2649 260 350.9167 C266.6048 346.4134 267.6074 345.5076 273 338.9167 C280.7315 329.467 279.3695 327.1369 287 317.9167 C290.8112 313.3114 297 309.9167 297 309.9167 "/>
<path id="10" d="M277 304.9167 C277 304.9167 277.085 293.8109 279 283.9167 C279.9647 278.9322 280.464 278.566 283 273.9167 C298.2917 245.8819 297.1664 242.4379 315 217.9167 C323.6509 206.0216 327.349 203.9073 339 196.9167 C344.6663 193.5169 348.2585 193.1676 355 193.9167 C363.9409 194.9101 366.9749 195.6758 375 200.9167 C389.8038 210.5844 391.0326 212.6405 404 225.9167 C411.4649 233.5593 411.4175 234.5381 417 243.9167 C423.7547 255.2646 424.2729 255.8034 429 267.9167 C432.059 275.7553 432.2042 276.4811 433 284.9167 C434.653 302.4381 434 320.9167 434 320.9167 "/>
<path id="11" d="M286 309.9167 C286 309.9167 287.7224 298.7095 292 289.9167 C296.2624 281.155 297.4772 280.3713 304 272.9167 C307.5282 268.8844 308.1696 268.4526 313 265.9167 C327.6151 258.2437 328.8345 255.485 344 251.9167 C360.5702 248.0178 366.1483 247.4864 381 249.9167 C389.0186 251.2288 391.6016 254.4431 399 260.9167 C406.7331 267.6832 407.8347 268.8328 413 277.9167 C421.801 293.3942 422.8237 295.1699 428 311.9167 C430.8963 321.287 430 332.9167 430 332.9167 "/>
<path id="12" d="M310 296.9167 C310 296.9167 321.07 292.7383 332 290.9167 C341.5835 289.3194 342.3925 289.1961 352 289.9167 C361.7884 290.6508 362.5435 290.9183 372 293.9167 C382.6061 297.2796 383.6854 297.9011 393 302.9167 C395.7722 304.4094 396.4934 305.1773 398 307.9167 C401.5576 314.3851 402.3081 315.397 404 322.9167 C406.6569 334.725 406.1508 335.4619 407 347.9167 C407.6401 357.3055 407.6036 362.8926 407 366.9167 C406.9539 367.2238 404 367.9167 404 367.9167 "/>
<path id="13" d="M299 315.9167 C299 315.9167 303.6856 312.8754 308 311.9167 C311.9266 311.0441 312.9026 310.9638 317 311.9167 C333.5378 315.7627 335.7265 315.6081 351 321.9167 C357.2957 324.5171 357.9152 325.8319 363 330.9167 C369.5376 337.4542 370.8097 338.374 375 345.9167 C377.6431 350.6743 377.2906 352.0049 378 357.9167 C378.7461 364.1345 378.5652 370.3986 378 370.9167 C377.5178 371.3587 366 368.9167 366 368.9167 "/>
<path id="14" d="M283 310.9167 C283 310.9167 276.0973 304.1112 273 297.9167 C271.3653 294.6473 273.3845 292.6745 272 288.9167 C270.1955 284.0188 267.4378 283.9489 266 278.9167 C262.7913 267.6861 262.5791 266.2709 262 253.9167 C261.1044 234.8105 260.6189 231.2441 263 214.9167 C263.6007 210.7979 265.515 209.6195 269 205.9167 C273.1428 201.5149 279 197.9167 279 197.9167 "/>
<path id="15" d="M143 270.9167 C143 270.9167 150.9186 286.041 160 297.9167 C163.1518 302.0382 164.256 301.9297 169 304.9167 C177.5968 310.3295 177.7147 311.3454 187 314.9167 C203.0859 321.1035 205.2563 321.4607 221 324.9167 C223.9493 325.5641 228 323.9167 228 323.9167 "/>
<path id="16" d="M191 275.9167 C191 275.9167 196.1686 287.35 201 289.9167 C207.5371 293.3895 223 292.9167 223 292.9167 "/>
<path id="17" d="M217 273.9167 C217 273.9167 219.71 281.0186 223 282.9167 C229.8965 286.8954 243 288.9167 243 288.9167 "/>
<path id="18" d="M256 331.9167 L264 327.9167 "/>
<path id="19" d="M108 248.9167 C108 248.9167 107.9305 252.8968 108 252.9167 C108.3908 253.0283 115 250.9224 115 250.9167 C115 250.911 108 248.9167 108 248.9167 "/>
<path id="20" d="M92 248.9167 C92 248.9167 81.1717 262.0371 78 266.9167 C77.842 267.1598 78.6396 268.8366 79 268.9167 C80.9959 269.3602 83.6223 269.7611 87 268.9167 C90.8 267.9667 95 264.9167 95 264.9167 "/>
</g>
</g>
</svg>
