<?xml version="1.0" encoding="utf-8"?>
<!DOCTYPE svg PUBLIC "-//W3C//DTD SVG 1.1//EN" "http://www.w3.org/Graphics/SVG/1.1/DTD/svg11.dtd">
<svg viewBox="0 0 800 800" preserveAspectRatio="xMinYMin meet" xmlns="http://www.w3.org/2000/svg" version="1.1">
<g fill="none" stroke="black" stroke-linecap="round" stroke-linejoin="round" stroke-width="0.79685">
<g transform="translate(313.4092,87.52) scale(3.7648) translate(-253.5,-167.6667)">
<path id="0" d="M255.5 191.6667 C255.5 191.6667 256.0177 258.8538 255.5 282.6667 C255.4941 282.9397 253.5126 283.3822 253.5 283.6667 C252.989 295.1633 253.422 325.9896 253.5 327.6667 C253.5016 327.7012 255.4542 326.6437 255.5 326.6667 C255.5306 326.6819 255.5 328.6667 255.5 328.6667 "/>
<path id="1" d="M257.5 193.6667 C257.5 193.6667 256.9603 195.9308 257.5 196.6667 C261.1097 201.589 263.099 205.9662 268.5 208.6667 C275.0129 211.9231 286.6895 212.0004 287.5 211.6667 C287.5966 211.6269 287.5419 203.6158 285.5 201.6667 C280.1058 196.5176 275.261 195.1718 265.5 190.6667 C262.9849 189.5058 259.9451 189.5183 259.5 189.6667 C259.4214 189.6929 259.5 192.6667 259.5 192.6667 "/>
<path id="2" d="M287.5 212.6667 C287.5 212.6667 289.4996 212.6571 289.5 212.6667 C289.7496 219.1571 291.0311 242.0833 289.5 264.6667 C289.2859 267.8245 285.6879 268.5197 285.5 271.6667 C283.9427 297.7512 287.1868 321.2085 285.5 331.6667 C285.3984 332.2964 278.4574 333.8942 275.5 333.6667 C274.5296 333.592 273.724 330.8415 272.5 330.6667 C266.0742 329.7487 254.5 330.6667 254.5 330.6667 "/>
<path id="3" d="M270.5 195.6667 C270.5 195.6667 274.0898 193.923 275.5 191.6667 C278.4936 186.8769 277.1241 184.3085 280.5 179.6667 C284.3862 174.3232 286.0025 173.3316 291.5 169.6667 C294.0931 167.9379 298.242 167.4409 298.5 167.6667 C298.9361 168.0483 299.9775 172.8469 299.5 176.6667 C299.1032 179.8409 298.2485 181.6996 296.5 183.6667 C295.3343 184.9781 292.7827 184.1576 291.5 185.6667 C285.7125 192.4755 284.8477 196.8929 279.5 203.6667 C278.8443 204.4972 276.7209 204.856 276.5 204.6667 C275.4691 203.783 272.5 197.6667 272.5 197.6667 "/>
</g>
</g>
</svg>
