<?xml version="1.0" encoding="utf-8"?>
<!DOCTYPE svg PUBLIC "-//W3C//DTD SVG 1.1//EN" "http://www.w3.org/Graphics/SVG/1.1/DTD/svg11.dtd">
<svg viewBox="0 0 800 800" preserveAspectRatio="xMinYMin meet" xmlns="http://www.w3.org/2000/svg" version="1.1">
<g fill="none" stroke="black" stroke-linecap="round" stroke-linejoin="round" stroke-width="1.2241">
<g transform="translate(324.0245,87.52) scale(2.4508) translate(-224,-134)">
<path id="0" d="M226 205 C226 205 220.7941 363.0528 226 387 C226.3059 388.4073 246.0148 388.2862 266 389 C273.9798 389.285 281.3478 389.9376 282 389 C283.3478 387.0626 281.0283 377.0126 282 366 C282.4759 360.6064 284.8325 360.36 285 355 C286.767 298.456 287.9345 295.2609 286 238 C285.4839 222.7247 283.9422 217.9168 280 207 C279.1052 204.5222 276.3206 202.8662 273 202 C266.4979 200.3038 264.9914 201.1665 257 201 C241.0381 200.6675 231.0862 200.2623 225 201 C224.7176 201.0342 224 205 224 205 "/>
<path id="1" d="M252 200 L248 176 "/>
<path id="2" d="M248 173 C248 173 241.6939 170.9011 239 168 C236.4358 165.2385 235.3683 163.174 235 159 C234.019 147.8824 235.1256 136.3319 236 134 C236.0689 133.8162 243.4511 134.1018 244 135 C245.7555 137.8727 244.7141 144.8157 247 152 C247.7986 154.51 250.6654 154.8253 251 157 C252.2512 165.1327 251 178 251 178 "/>
</g>
</g>
</svg>
