<?xml version="1.0" encoding="utf-8"?>
<!DOCTYPE svg PUBLIC "-//W3C//DTD SVG 1.1//EN" "http://www.w3.org/Graphics/SVG/1.1/DTD/svg11.dtd">
<svg viewBox="0 0 800 800" preserveAspectRatio="xMinYMin meet" xmlns="http://www.w3.org/2000/svg" version="1.1">
<g fill="none" stroke="black" stroke-linecap="round" stroke-linejoin="round" stroke-width="1.0945">
<g transform="translate(335.5853,87.52) scale(2.7411) translate(-262,-59)">
<path id="0" d="M269 149 C269 149 291.6047 151.006 295 150 C295.4843 149.8565 296.8729 142.7457 296 141 C295.0758 139.1516 291.3587 136.403 288 136 C281.4545 135.2145 274.8463 136.3805 271 138 C270.0242 138.4108 268.8741 143.8112 269 144 C269.1079 144.1618 275 144 275 144 "/>
<path id="1" d="M270 148 C270 148 272.9382 151.2792 273 154 C274.284 210.4953 272.094 220.2052 273 280 C273.0434 282.8618 274.1107 285.6542 275 286 C278.3633 287.308 291 287 291 287 "/>
<path id="2" d="M294 149 C294 149 295.8593 266.5504 295 283 C294.9973 283.0513 287 283 287 283 "/>
<path id="3" d="M282 133 L282 141 "/>
<path id="4" d="M283 130 C283 130 277.832 126.7338 277 124 C275.1603 117.9552 274.4517 113.1932 276 107 C277.2017 102.1933 281.8311 101.5208 284 96 C286.7878 88.9038 287 78.9995 287 79 C287.0001 79.0013 288.226 115.1916 287 125 C286.9267 125.5864 281 127 281 127 "/>
<path id="5" d="M263 117 L266 119 "/>
<path id="6" d="M262 102 L267 105 "/>
<path id="7" d="M265 87 L271 92 "/>
<path id="8" d="M272 77 L273 83 "/>
<path id="9" d="M280 69 L280 72 "/>
<path id="10" d="M288 59 L290 64 "/>
<path id="11" d="M301 69 L301 74 "/>
<path id="12" d="M306 88 L303 90 "/>
<path id="13" d="M308 99 L299 104 "/>
<path id="14" d="M309 113 L305 115 "/>
<path id="15" d="M306 127 L301 127 "/>
<path id="16" d="M269 146 C269 146 264.7033 147.7341 264 149 C263.2697 150.3145 263.2113 153.8733 264 155 C265.1699 156.6713 270.0926 157.3148 271 159 C272.0512 160.9522 271 168 271 168 "/>
<path id="17" d="M265 158 C265 158 264.0579 166.4055 265 173 C265.4037 175.8262 266.1715 176.943 268 179 C269.5706 180.7669 273 182 273 182 "/>
<path id="18" d="M270 177 C270 177 267.956 184.4066 269 189 C270.0077 193.4338 275 199 275 199 "/>
<path id="19" d="M267 189 C267 189 265.474 197.3319 267 203 C268.5134 208.6214 274 215 274 215 "/>
</g>
</g>
</svg>
