<?xml version="1.0" encoding="utf-8"?>
<!DOCTYPE svg PUBLIC "-//W3C//DTD SVG 1.1//EN" "http://www.w3.org/Graphics/SVG/1.1/DTD/svg11.dtd">
<svg viewBox="0 0 800 800" preserveAspectRatio="xMinYMin meet" xmlns="http://www.w3.org/2000/svg" version="1.1">
<g fill="none" stroke="black" stroke-linecap="round" stroke-linejoin="round" stroke-width="1.4785">
<g transform="translate(306.6618,87.52) scale(2.0291) translate(-211,-36.1333)">
<path id="0" d="M228 168.1333 C228 168.1333 228.365 247.8717 227 326.1333 C226.8788 333.0844 224.4375 336.9459 225 340.1333 C225.16 341.0401 227.6047 342.6771 230 343.1333 C236.9608 344.4592 238.0319 344.1333 246 344.1333 C264.4261 344.1333 268.7018 345.408 283 343.1333 C286.0608 342.6464 288.637 340.3137 290 337.1333 C294.9111 325.674 295.9653 322.3763 298 308.1333 C299.8226 295.3754 297.1382 294.4906 298 281.1333 C299.1253 263.6907 301.2407 263.5972 302 246.1333 C303.7279 206.3916 303.7531 186.7173 303 166.1333 C302.9798 165.5808 299.6696 165.2813 299 164.1333 C297.1842 161.0206 296.0668 154.1205 296 154.1333 C294.3939 154.4422 284.2305 166.2572 273 169.1333 C247.6714 175.6199 222.8131 176.2705 214 175.1333 C213.2725 175.0395 210.3874 165.4215 211 161.1333 C211.3547 158.6507 213.6475 156.697 217 154.1333 C221.6032 150.6133 222.4332 149.7706 228 148.1333 C238.5435 145.0323 239.5898 144.8695 251 144.1333 C270.1331 142.8989 275.5168 141.7195 290 144.1333 C293.8374 144.7729 296.3927 148.9467 299 152.1333 C299.5091 152.7556 299 155.1333 299 155.1333 "/>
<path id="1" d="M258 160.1333 C258 160.1333 258.7539 149.1952 257 140.1333 C255.9605 134.7628 253.5557 134.5783 252 129.1333 C250.7125 124.6272 251 119.1333 251 119.1333 "/>
<path id="2" d="M261 147.1333 C261 147.1333 268.8093 139.8879 271 133.1333 C274.0045 123.8696 273 120.8881 273 110.1333 C273 106.8601 272.698 105.9987 271 103.1333 C265.13 93.2277 260.882 93.2266 257 83.1333 C251.7534 69.4921 255.7857 65.1914 251 51.1333 C248.4127 43.5332 241.1232 36.0944 241 36.1333 C240.6342 36.2488 233.6489 47.0569 232 57.1333 C229.5054 72.3784 229.7257 75.2136 232 91.1333 C234.0258 105.314 235.2425 106.4593 241 120.1333 C247.0255 134.4439 256 148.1333 256 148.1333 "/>
</g>
</g>
</svg>
