<?xml version="1.0" encoding="utf-8"?>
<!DOCTYPE svg PUBLIC "-//W3C//DTD SVG 1.1//EN" "http://www.w3.org/Graphics/SVG/1.1/DTD/svg11.dtd">
<svg viewBox="0 0 800 800" preserveAspectRatio="xMinYMin meet" xmlns="http://www.w3.org/2000/svg" version="1.1">
<g fill="none" stroke="black" stroke-linecap="round" stroke-linejoin="round" stroke-width="1.8961">
<g transform="translate(332.7575,87.52) scale(1.5822) translate(-253,-4)">
<path id="0" d="M263 84 C263 84 290.4728 84.6273 298 84 C298.2688 83.9776 299.0465 81.0232 299 81 C297.1867 80.0934 290.1909 76.8855 282 76 C272.711 74.9958 262.3785 76.0326 262 77 C260.1035 81.8465 262.0478 100.1352 264 122 C264.4869 127.4532 267 127.7084 267 133 C267 260.9595 258.5528 367.5011 264 399 C264.1739 400.0054 312.1554 401.1831 313 399 C319.1728 383.044 314.2482 327.5852 317 262 C317.1221 259.091 318.9493 258.8639 319 256 C319.8987 205.2261 321.7378 200.2351 319 149 C318.3764 137.3289 314.382 137.093 312 125 C307.9471 104.4238 309.5696 92.449 306 83 C305.423 81.4726 295 80 295 80 "/>
<path id="1" d="M295 80 C295 80 297.3778 79.4909 298 80 C301.1867 82.6073 303.5888 84.3968 306 89 C308.4808 93.7361 306.2398 96.3076 309 101 C315.417 111.9089 321.1442 112.7488 326 123 C328.6618 128.6193 327.6813 137.6373 327 139 C326.8022 139.3956 318.2473 139.517 318 139 C316.6237 136.1223 317.7981 126.7888 316 116 C315.422 112.5322 313 109 313 109 "/>
<path id="2" d="M326 128 C326 128 331.0638 139.585 335 151 C335.9568 153.7746 336.0826 156.5046 336 157 C335.9953 157.0283 334.2238 157.2797 334 157 C331.9301 154.4126 329.3345 151.6709 328 147 C326.7468 142.6139 328 136 328 136 "/>
<path id="3" d="M308 91 C308 91 314.9221 90.8349 319 92 C320.3937 92.3982 321.1713 93.3426 322 95 C325.3148 101.6296 328 109.2591 328 110 C328 110 323.3206 110.9143 322 110 C319.0878 107.9839 315 101 315 101 "/>
<path id="4" d="M287 80 C287 80 279.5665 68.5228 277 58 C275.0047 49.8191 274.2612 46.1208 277 39 C282.8656 23.7494 296.9996 5.9998 297 6 C297.052 6.0312 300.2735 32.2516 297 51 C295.5509 59.2995 286 69 286 69 "/>
<path id="5" d="M296 20 C296 20 289.843 30.2178 286 40 C284.6521 43.4311 285 48 285 48 "/>
<path id="6" d="M285 53 C285 53 283.5995 44.8353 285 39 C286.2444 33.815 291 28 291 28 "/>
<path id="7" d="M267 58 C267 58 267.5363 55.6512 267 55 C262.4364 49.4585 253 41 253 41 "/>
<path id="8" d="M265 30 L265 15 "/>
<path id="9" d="M284 14 L284 4 "/>
<path id="10" d="M316 17 L319 11 "/>
<path id="11" d="M321 34 L338 34 "/>
<path id="12" d="M318 59 L334 64 "/>
<path id="13" d="M299 150 C299 150 291.7662 199.0392 288 248 C285.2889 283.2442 286 319 286 319 "/>
</g>
</g>
</svg>
