<?xml version="1.0" encoding="utf-8"?>
<!DOCTYPE svg PUBLIC "-//W3C//DTD SVG 1.1//EN" "http://www.w3.org/Graphics/SVG/1.1/DTD/svg11.dtd">
<svg viewBox="0 0 800 800" preserveAspectRatio="xMinYMin meet" xmlns="http://www.w3.org/2000/svg" version="1.1">
<g fill="none" stroke="black" stroke-linecap="round" stroke-linejoin="round" stroke-width="1.6369">
<g transform="translate(254.2982,87.52) scale(1.8327) translate(-143,-89)">
<path id="0" d="M216 145 C216 145 215.6027 171.7128 213 198 C210.6221 222.0164 207.4847 222.0156 206 246 C201.0224 326.4071 196.3955 391.9802 200 408 C200.1672 408.7429 238.3486 410.5492 242 406 C251.1257 394.6303 254.6661 369.0985 261 332 C268.5059 288.037 268.112 286.8389 270 242 C272.0881 192.4088 268.5519 189.9491 269 142 C269.0315 138.6343 271.0082 135.0026 271 135 C270.2375 134.7617 261.6263 135.0231 253 137 C238.0159 140.4339 236.4266 143.5901 223 146 C219.3303 146.6587 215.4303 144.7946 214 144 C213.7642 143.869 214 141 214 141 "/>
<path id="1" d="M236 141 C236 141 232.5761 134.3372 232 128 C230.6636 113.2993 230.1131 109.2647 232 97 C232.5431 93.4697 235.5265 90.7989 238 89 C239.0465 88.2389 242.5958 88.4947 243 89 C244.2531 90.5663 245.7406 94.201 246 99 C246.6878 111.7251 246.0515 112.6811 245 126 C244.5667 131.4881 244.8099 132.8631 243 137 C241.9045 139.5039 238 142 238 142 "/>
<path id="2" d="M184 396 C184 396 187.2981 401.4813 191 403 C204.3846 408.4911 207.7828 411.0607 223 412 C245.7884 413.4067 249.1263 412.6326 272 408 C286.8926 404.9838 302 396 302 396 C302 396 298.025 396.38 296 398 C291.4705 401.6236 291.9979 404.483 287 408 C279.4166 413.3365 278.2603 413.7589 269 417 C248.7719 424.0798 247.7623 424.9104 227 429 C215.6757 431.2305 214.6885 430.8202 203 430 C186.7098 428.8568 184.3698 429.7899 170 425 C159.499 421.4997 156.6182 419.0538 149 412 C145.0543 408.3466 144.5282 404.8903 143 400 C142.5939 398.7003 143.2959 396.3727 144 396 C148.2111 393.7706 152.1779 392.2222 160 391 C167.4579 389.8347 168.5849 389.7288 176 391 C185.2821 392.5912 195 397 195 397 "/>
</g>
</g>
</svg>
