<?xml version="1.0" encoding="utf-8"?>
<!DOCTYPE svg PUBLIC "-//W3C//DTD SVG 1.1//EN" "http://www.w3.org/Graphics/SVG/1.1/DTD/svg11.dtd">
<svg viewBox="0 0 800 800" preserveAspectRatio="xMinYMin meet" xmlns="http://www.w3.org/2000/svg" version="1.1">
<g fill="none" stroke="black" stroke-linecap="round" stroke-linejoin="round" stroke-width="1.0609">
<g transform="translate(332.131,87.52) scale(2.8279) translate(-183,-73.4167)">
<path id="0" d="M188 161.4167 C188 161.4167 187.8687 209.5772 186 257.4167 C185.3753 273.4085 183 289.4167 183 289.4167 "/>
<path id="1" d="M183 289.4167 C183 289.4167 201.9076 293.302 219 294.4167 C223.6439 294.7195 229 292.4167 229 292.4167 "/>
<path id="2" d="M229 292.4167 L227 156.4167 "/>
<path id="3" d="M189 162.4167 C189 162.4167 195.4731 158.5483 201 158.4167 C214.6759 158.0911 231 161.4167 231 161.4167 "/>
<path id="4" d="M210 159.4167 L211 136.4167 "/>
<path id="5" d="M211 143.4167 C211 143.4167 210.7766 139.0207 210 138.4167 C208.4822 137.2362 203.995 138.3067 202 136.4167 C196.726 131.4202 193.0494 127.9312 191 120.4167 C187.9504 109.2347 187.4847 99.0642 190 92.4167 C191.3364 88.8848 199.0317 88.5711 205 83.4167 C209.098 79.8775 211.7546 73.553 212 73.4167 C212.0152 73.4082 212.5022 77.0187 214 78.4167 C218.8079 82.904 222.9217 82.6187 227 87.4167 C229.929 90.8626 230.3125 93.0888 231 98.4167 C232.1939 107.6696 233.6409 111.0221 231 118.4167 C227.3876 128.5314 216 140.4167 216 140.4167 "/>
<path id="6" d="M220 139.4167 L213 141.4167 "/>
</g>
</g>
</svg>
