<?xml version="1.0" encoding="utf-8"?>
<!DOCTYPE svg PUBLIC "-//W3C//DTD SVG 1.1//EN" "http://www.w3.org/Graphics/SVG/1.1/DTD/svg11.dtd">
<svg viewBox="0 0 800 800" preserveAspectRatio="xMinYMin meet" xmlns="http://www.w3.org/2000/svg" version="1.1">
<g fill="none" stroke="black" stroke-linecap="round" stroke-linejoin="round" stroke-width="1.4689">
<g transform="translate(300.9459,87.52) scale(2.0424) translate(-207,-50)">
<path id="0" d="M209 153 C209 153 207.4969 159.9442 209 165 C212.541 176.9107 218.915 178.0008 220 190 C226.8264 265.4915 226 353 226 353 "/>
<path id="1" d="M296 155 C296 155 304.8968 318.821 303 338 C302.9847 338.1549 289.8165 335.9258 278 337 C268.7711 337.839 267.7106 338.3222 259 342 C245.8332 347.5593 238.744 354.3324 233 356 C232.3221 356.1968 228 351 228 351 "/>
<path id="2" d="M210 152 C210 152 213.2885 161.0209 216 162 C224.7692 165.1667 231.0372 164.276 246 165 C261.8835 165.7686 263.1222 166.8218 278 165 C286.2454 163.9904 289.1667 162.0702 295 159 C296.188 158.3747 297.1597 155.1742 297 155 C295.5323 153.3989 290.6118 149.1038 284 147 C270.003 142.5464 268.3601 142.4629 253 141 C237.4314 139.5173 234.0598 138.4448 221 141 C214.5677 142.2585 207 150 207 150 "/>
<path id="3" d="M254 156 L253 109 "/>
<path id="4" d="M253 121 C253 121 252.0921 124 252 124 C251.4471 124 246.7556 122.5868 246 121 C243.4321 115.6074 242 111.6104 242 103 C242 78.6038 246 52 246 52 "/>
<path id="5" d="M254 123 C254 123 254.9862 114.0415 257 108 C257.5035 106.4896 259.8675 106.2259 260 105 C261.3598 92.4223 263.7907 84.9533 261 71 C259.068 61.34 249 50 249 50 "/>
<path id="6" d="M298 196 L301 213 "/>
<path id="7" d="M301 217 L303 225 "/>
<path id="8" d="M303 235 L303 243 "/>
<path id="9" d="M303 246 L303 253 "/>
<path id="10" d="M303 264 L303 271 "/>
<path id="11" d="M303 281 L303 284 "/>
<path id="12" d="M294 154 C294 154 295.95 153.9 296 154 C296.2 154.4 296 158 296 158 "/>
<path id="13" d="M296 160 L297 165 "/>
<path id="14" d="M297 167 L297 173 "/>
<path id="15" d="M297 175 L297 181 "/>
<path id="16" d="M297 185 L297 187 "/>
<path id="17" d="M299 197 L299 199 "/>
<path id="18" d="M300 204 L300 237 "/>
<path id="19" d="M301 242 C301 242 303.5433 245.6512 304 249 C304.9245 255.7798 304 264 304 264 "/>
<path id="20" d="M219 182 L219 191 "/>
<path id="21" d="M219 203 L219 204 "/>
<path id="22" d="M219 208 L219 214 "/>
<path id="23" d="M218 218 L215 224 "/>
<path id="24" d="M219 218 L220 222 "/>
<path id="25" d="M220 223 L221 227 "/>
<path id="26" d="M220 235 L220 236 "/>
<path id="27" d="M220 249 L220 252 "/>
<path id="28" d="M220 259 L220 263 "/>
<path id="29" d="M219 266 L219 268 "/>
<path id="30" d="M220 278 L220 280 "/>
<path id="31" d="M223 262 L220 275 "/>
<path id="32" d="M221 242 L221 237 "/>
<path id="33" d="M221 229 L221 228 "/>
<path id="34" d="M221 225 L219 218 "/>
<path id="35" d="M219 217 L219 216 "/>
<path id="36" d="M300 220 L303 233 "/>
<path id="37" d="M303 233 L303 243 "/>
<path id="38" d="M302 247 L302 253 "/>
<path id="39" d="M301 256 L301 267 "/>
<path id="40" d="M299 273 L299 275 "/>
</g>
</g>
</svg>
