<?xml version="1.0" encoding="utf-8"?>
<!DOCTYPE svg PUBLIC "-//W3C//DTD SVG 1.1//EN" "http://www.w3.org/Graphics/SVG/1.1/DTD/svg11.dtd">
<svg viewBox="0 0 800 800" preserveAspectRatio="xMinYMin meet" xmlns="http://www.w3.org/2000/svg" version="1.1">
<g fill="none" stroke="black" stroke-linecap="round" stroke-linejoin="round" stroke-width="1.7185">
<g transform="translate(341.5191,87.52) scale(1.7457) translate(-184,-26.4167)">
<path id="0" d="M186 132.4167 C186 132.4167 184.0389 136.5259 184 140.4167 C183.0685 233.5624 182.3866 236.8206 184 332.4167 C184.3787 354.8556 183.3565 372.7732 188 377.4167 C193.212 382.6287 232.9424 387.3772 236 384.4167 C241.9962 378.6108 248.6807 349.9692 251 316.4167 C256.0057 244.0014 253.0887 240.5225 251 167.4167 C250.6335 154.5899 250.0654 153.3738 246 141.4167 C241.8788 129.2955 237.7814 129.0518 234 117.4167 C231.7874 110.6086 233.0344 101.4855 233 101.4167 C232.9917 101.4 231.4462 105.228 229 107.4167 C222.5135 113.2203 221.7898 113.4968 214 118.4167 C202.9224 125.4131 191 131.4167 191 131.4167 "/>
<path id="1" d="M205 117.4167 C205 117.4167 206.8252 108.0671 205 104.4167 C202.6132 99.643 197.0368 99.3657 193 93.4167 C188.4134 86.6574 187.7091 84.7483 186 76.4167 C183.9415 66.3816 184.6843 65.1514 185 54.4167 C185.1733 48.5248 185.1378 47.7704 187 42.4167 C188.9196 36.8979 189.5363 36.035 193 31.4167 C195.1229 28.5861 197.3122 26.923 199 26.4167 C199.7651 26.1871 202.8743 27.7255 203 28.4167 C203.9215 33.4852 201.9855 38.6775 203 48.4167 C204.4467 62.3052 206.96 62.6363 208 76.4167 C208.9135 88.5203 207 101.4167 207 101.4167 "/>
<path id="2" d="M206 117.4167 L206 125.4167 "/>
</g>
</g>
</svg>
