<?xml version="1.0" encoding="utf-8"?>
<!DOCTYPE svg PUBLIC "-//W3C//DTD SVG 1.1//EN" "http://www.w3.org/Graphics/SVG/1.1/DTD/svg11.dtd">
<svg viewBox="0 0 800 800" preserveAspectRatio="xMinYMin meet" xmlns="http://www.w3.org/2000/svg" version="1.1">
<g fill="none" stroke="black" stroke-linecap="round" stroke-linejoin="round" stroke-width="1.0369">
<g transform="translate(347.92,87.52) scale(2.8933) translate(-224,-48)">
<path id="0" d="M229 99 C229 99 230.2554 166.5048 230 190 C229.9971 190.2638 228.0275 190.6746 228 191 C226.3456 210.5772 224 261 224 261 "/>
<path id="1" d="M230 103 C230 103 240.3667 103.9956 248 103 C250.2863 102.7018 252.7308 100.7179 253 100 C253.2347 99.3741 251.7893 95.2819 251 95 C248.4981 94.1064 243.6546 93.6701 239 95 C234.8441 96.1874 230 101 230 101 "/>
<path id="2" d="M253 101 L250 258 "/>
<path id="3" d="M243 96 L243 84 "/>
<path id="4" d="M242 84 C242 84 237.1588 83.9595 235 83 C234.0334 82.5704 232.9366 81.1097 233 80 C233.7082 67.6066 236.9941 48.0169 237 48 C237.0019 47.9945 237.7867 56.0653 240 60 C241.1925 62.1201 244.4562 61.8772 246 64 C247.5606 66.1458 247.2875 69.7532 248 71 C248.1 71.175 249.9904 70.9519 250 71 C250.2404 72.2019 250.9727 76.866 250 81 C249.2275 84.2829 246 88 246 88 "/>
<path id="5" d="M252 101 C252 101 255.5802 99.6851 256 100 C257.1949 100.8962 259.8433 104.492 260 107 C260.1905 110.0485 257.3548 111.7425 257 116 C256.4279 122.8657 258.5993 125.3069 258 131 C257.8264 132.6496 255 135 255 135 "/>
<path id="6" d="M255 146 C255 146 258.9975 145.9749 259 146 C259.061 146.6097 256.2069 151.4471 256 156 C255.7569 161.3491 258.9806 164.7312 258 168 C257.1054 170.982 250 176 250 176 "/>
<path id="7" d="M229 262 C229 262 244.8948 265.1781 250 264 C251.7017 263.6073 255 256 255 256 "/>
<path id="8" d="M243 88 C243 88 244.1408 80.6505 243 77 C242.3194 74.8221 238.998 74.1956 238 72 C237.1766 70.1886 238 66 238 66 "/>
</g>
</g>
</svg>
