<?xml version="1.0" encoding="utf-8"?>
<!DOCTYPE svg PUBLIC "-//W3C//DTD SVG 1.1//EN" "http://www.w3.org/Graphics/SVG/1.1/DTD/svg11.dtd">
<svg viewBox="0 0 800 800" preserveAspectRatio="xMinYMin meet" xmlns="http://www.w3.org/2000/svg" version="1.1">
<g fill="none" stroke="black" stroke-linecap="round" stroke-linejoin="round" stroke-width="2.1217">
<g transform="translate(87.52,297.4896) scale(1.4139) translate(-28,-240.1333)">
<path id="0" d="M71 336.1333 C71 336.1333 77.5876 342.5212 85 347.1333 C99.7853 356.3331 100.0986 357.8163 116 364.1333 C135.6979 371.9585 136.9612 372.5607 158 376.1333 C189.0624 381.4081 190.0714 380.4075 222 382.1333 C245.3294 383.3944 246.0742 381.0058 269 382.1333 C275.9009 382.4727 276.0921 384.727 283 385.1333 C301.0292 386.1939 301.8703 386.833 320 385.1333 C349.323 382.3843 350.5601 382.7194 379 376.1333 C397.1627 371.9272 407.1739 366.6116 415 363.1333 C415.2498 363.0223 414.82 360.2683 415 360.1333 C415.32 359.8933 418.623 360.636 419 360.1333 C421.7646 356.4471 427 344.1333 427 344.1333 "/>
<path id="1" d="M425 344.1333 C425 344.1333 425.1782 340.1531 424 338.1333 C422.2998 335.2187 421.3032 334.1782 418 332.1333 C411.4259 328.0636 410.4766 326.5627 403 325.1333 C378.2216 320.3963 365.7337 321.4643 350 319.1333 C349.6215 319.0773 349.3171 317.1613 349 317.1333 C340.082 316.3464 320.3001 316.7849 316 316.1333 C315.9214 316.1214 316.3766 312.604 316 312.1333 C315.6046 311.6391 314.0068 311.3399 312 311.1333 C280.3951 307.8799 279.7812 305.461 248 305.1333 C183.5273 304.4687 182.7503 305.8409 118 309.1333 C94.5004 310.3282 91.2686 310.3799 71 314.1333 C67.648 314.7541 65.7867 316.5525 64 319.1333 C62.297 321.5932 61.2177 325.4818 62 327.1333 C63.7981 330.9293 73 338.1333 73 338.1333 "/>
<path id="2" d="M68 317.1333 C68 317.1333 54.1127 314.0439 42 309.1333 C36.2683 306.8097 34.8686 305.7044 31 302.1333 C29.5344 300.7804 29.3061 299.5821 29 297.1333 C27.885 288.213 27.6511 285.809 28 278.1333 C28.0569 276.8817 28.8075 275.8672 30 275.1333 C34.3647 272.4473 36.2736 270.4593 41 270.1333 C48.4128 269.6221 59 273.1333 59 273.1333 "/>
<path id="3" d="M425 336.1333 C425 336.1333 428.2868 338.9867 431 339.1333 C444.6255 339.8698 449.5078 340.3755 462 338.1333 C465.6367 337.4806 469.0486 334.4438 470 332.1333 C471.0838 329.5012 470.425 325.8833 469 321.1333 C467.6759 316.7197 467.1262 315.6273 464 312.1333 C459.1886 306.7559 458.2747 304.4992 452 302.1333 C430.554 294.0471 427.1746 291.3997 403 289.1333 C349.4759 284.1154 344.3021 289.3309 292 287.1333 C288.174 286.9726 287.965 284.548 284 284.1333 C214.1985 276.8338 211.4513 275.5873 139 271.1333 C89.7433 268.1053 40 269.1333 40 269.1333 "/>
<path id="4" d="M59 269.1333 C59 269.1333 56.5402 268.8536 56 268.1333 C54.4626 266.0835 53.7759 264.4957 53 261.1333 C52.3948 258.5107 52.2081 256.7171 53 255.1333 C53.8579 253.4176 55.3299 252.347 58 251.1333 C65.7254 247.6218 66.4256 246.9471 75 245.1333 C91.9232 241.5534 92.7184 240.2075 110 240.1333 C207.6962 239.714 209.3391 240.5815 308 244.1333 C333.9817 245.0687 334.873 244.2413 360 249.1333 C390.5042 255.0722 397.6688 256.4676 421 266.1333 C425.7907 268.118 427.7743 272.6927 430 278.1333 C431.4193 281.6027 430 288.1333 430 288.1333 "/>
</g>
</g>
</svg>
