<?xml version="1.0" encoding="utf-8"?>
<!DOCTYPE svg PUBLIC "-//W3C//DTD SVG 1.1//EN" "http://www.w3.org/Graphics/SVG/1.1/DTD/svg11.dtd">
<svg viewBox="0 0 800 800" preserveAspectRatio="xMinYMin meet" xmlns="http://www.w3.org/2000/svg" version="1.1">
<g fill="none" stroke="black" stroke-linecap="round" stroke-linejoin="round" stroke-width="2.0785">
<g transform="translate(87.52,329.9987) scale(1.4433) translate(-126,-163)">
<path id="0" d="M165 186 C165 186 157.3324 184.9446 151 186 C146.1753 186.8041 145.365 187.381 141 190 C135.7901 193.1259 134.8673 193.6171 131 198 C127.917 201.4941 126.2576 203.2648 126 207 C125.4544 214.9114 126.2024 219.4464 129 227 C130.2712 230.4322 132.2434 231.8533 136 234 C141.7569 237.2897 142.9185 237.8044 150 239 C218.4789 250.5614 220.5309 251.6158 290 260 C306.5711 262 307.1159 260.9277 324 260 C352.4421 258.4372 352.6659 255.7392 381 255 C409.7395 254.2503 410.0671 257.182 439 257 C489.4036 256.683 490.6748 255.8791 540 254 C541.9698 253.925 544 253.0766 544 253 C544 252.3868 542.6926 247.8272 540 245 C533.5617 238.2398 532.4843 236.6278 524 232 C511.5073 225.1858 510.2524 225.1636 496 221 C466.1458 212.2786 465.617 212.0141 435 206 C409.9233 201.0742 409.3746 200.2965 384 199 C341.5094 196.8289 340.6987 200.6052 298 199 C274.5713 198.1192 274.4318 195.0014 251 194 C216.2596 192.5154 210.5215 196.5512 181 194 C176.1058 193.577 175.0986 188.6995 170 187 C166.176 185.7253 160 187 160 187 "/>
<path id="1" d="M148 173 C148 173 142.4837 173.6776 139 176 C132.8772 180.0819 130.6918 182.6929 127 187 C126.4797 187.607 126.8125 189.8125 127 190 C127.1875 190.1875 129.4775 189.5521 130 190 C131.5924 191.3649 134 196 134 196 "/>
<path id="2" d="M149 173 C149 173 195.0091 172.1593 240 176 C276.4532 179.1119 277.2093 183.7788 313 187 C325.9735 188.1676 326.5719 185 340 185 C373.8188 185 374.3636 187.6469 408 187 C425.8556 186.6566 426.098 183.5019 444 183 C479.1831 182.0136 482.0932 180.7455 515 184 C524.6228 184.9517 535 192 535 192 "/>
<path id="3" d="M535 192 C535 192 542.7113 200.9692 543 204 C543.1906 206.0017 540.1594 211.7241 537 213 C520.3266 219.7335 491 225 491 225 "/>
<path id="4" d="M485 185 C485 185 478.3904 187.7784 474 192 C466.0001 199.6922 464.5485 204.4515 459 210 C458.4956 210.5044 456 210 456 210 "/>
<path id="5" d="M425 188 C425 188 416.8337 195.6135 411 198 C408.5522 199.0014 403 197 403 197 "/>
<path id="6" d="M358 185 L343 198 "/>
<path id="7" d="M298 185 C298 185 291.8012 192.3752 285 197 C280.0502 200.3659 273 202 273 202 "/>
<path id="8" d="M241 176 L224 192 "/>
<path id="9" d="M184 174 L160 195 "/>
<path id="10" d="M172 164 C172 164 268.8544 161.5094 365 163 C397.4218 163.5027 397.6383 167.2913 430 168 C465.7648 168.7832 466.6549 164.9804 502 166 C517.7924 166.4555 520.3038 166.4346 534 171 C542.0008 173.6669 543.9903 175.7499 550 182 C555.3877 187.6032 557.4275 190.0112 559 197 C561.3091 207.2626 559.9984 210.0198 559 222 C558.5507 227.3911 558.5069 229.1433 556 233 C552.9995 237.6162 546 242 546 242 "/>
<path id="11" d="M552 240 L536 245 "/>
</g>
</g>
</svg>
