<?xml version="1.0" encoding="utf-8"?>
<!DOCTYPE svg PUBLIC "-//W3C//DTD SVG 1.1//EN" "http://www.w3.org/Graphics/SVG/1.1/DTD/svg11.dtd">
<svg viewBox="0 0 800 800" preserveAspectRatio="xMinYMin meet" xmlns="http://www.w3.org/2000/svg" version="1.1">
<g fill="none" stroke="black" stroke-linecap="round" stroke-linejoin="round" stroke-width="2.1169">
<g transform="translate(312.1371,87.52) scale(1.4171) translate(-236,-17)">
<path id="0" d="M340 177 L340 177 "/>
<path id="1" d="M255 80 C255 80 267.9498 79.3568 280 81 C289.4353 82.2866 289.6651 85.1194 299 86 C315.2998 87.5377 320.6955 86.9977 333 86 C334.1737 85.9048 335.5629 84.3114 336 83 C336.6557 81.0329 336.69 77.5276 336 77 C332.6387 74.4296 327.5084 72.4702 319 70 C312.4817 68.1076 311.9527 68.2015 305 68 C277.7985 67.2116 256.7654 67.1389 250 68 C249.8904 68.0139 248.9412 73.0148 250 75 C251.8554 78.4789 255.6866 78.6624 258 83 C262.9537 92.2881 264.1526 94.0833 266 105 C269.4418 125.3377 271.8045 128.0731 269 148 C262.7362 192.5061 254.8271 194.3418 247 240 C243.0491 263.0471 241.4732 266.8393 245 288 C248.3172 307.9029 253.0148 310.3959 262 330 C263.4963 333.2646 265.5993 332.8167 267 336 C270.6964 344.4009 271.4516 352.4662 273 355 C273.1404 355.2298 278 354 278 354 "/>
<path id="2" d="M339 83 C339 83 334.1255 90.3481 332 98 C326.8291 116.6154 325.8167 117.6979 324 137 C321.8978 159.3354 321.0016 161.0117 324 183 C328.305 214.5702 334.1232 215.4635 339 247 C341.4266 262.6923 341.9328 265.5802 339 280 C336.4724 292.4275 331.7472 292.8133 327 306 C322.9041 317.3774 322.391 318.1768 321 330 C319.4799 342.9211 320.7514 353.6434 321 357 C321.0014 357.0184 323 357 323 357 "/>
<path id="3" d="M280 357 C280 357 282.6359 355.1153 285 355 C301.6959 354.1856 321 355 321 355 "/>
<path id="4" d="M292 356 L292 386 "/>
<path id="5" d="M304 355 L305 375 "/>
<path id="6" d="M304 365 L307 382 "/>
<path id="7" d="M291 386 C291 386 286.7485 385.1257 285 386 C282.3772 387.3114 280.5218 388.818 279 392 C275.6729 398.9567 275.407 400.5581 274 409 C272.4878 418.0731 271.9366 421.6198 273 428 C273.3294 429.9762 275.4888 432.0434 278 433 C284.2347 435.3751 294.0006 435.9999 294 436 C293.9986 436.0002 272.3154 434.2331 255 436 C250.3336 436.4762 246.92 438.44 245 441 C243.08 443.56 242.6227 451.7824 243 452 C245.6308 453.5178 257.0889 455.5244 271 456 C315.0024 457.5044 350.8168 457.2523 360 456 C360.0657 455.991 359.6699 444.2124 359 444 C353.379 442.2177 337.505 444.5749 319 443 C315.6506 442.7149 312.747 440.8715 312 440 C311.7391 439.6957 312.1484 436.8516 313 436 C314.5329 434.4671 316.8532 434.9934 319 433 C323.2238 429.0779 323.8496 428.1552 327 423 C329.0807 419.5952 329.4724 418.8692 330 415 C330.8784 408.5584 331.4393 406.2775 330 401 C329.0093 397.3675 327.497 395.7022 324 393 C317.4105 387.9081 308 384 308 384 "/>
<path id="8" d="M296 183 C296 183 288.3509 207.6808 278 230 C272.6714 241.4898 264.4413 248.8006 264 252 C263.8964 252.7515 270.5278 254.7438 274 259 C285.0254 272.515 286.3224 274.1409 295 290 C300.3869 299.845 302.7015 311.9057 303 312 C303.1188 312.0375 309.7207 304.3446 314 296 C319.4607 285.3517 323 273 323 273 "/>
<path id="9" d="M299 183 C299 183 305.002 205.0061 312 226 C313.3799 230.1396 313.4241 230.7372 316 234 C320.5442 239.756 325.4168 240.4087 327 245 C328.8895 250.4796 328.134 255.1043 326 263 C323.4967 272.2623 317 282 317 282 "/>
<path id="10" d="M300 214 C300 214 296.3812 216.2377 295 219 C289.4753 230.0494 283.549 237.7496 285 244 C287.325 254.0154 300.2924 265.4425 308 275 C308.2509 275.3111 309.9391 275.1488 310 275 C311.8498 270.4784 317 253 317 253 "/>
<path id="11" d="M301 218 C301 218 301.2034 227.4707 304 235 C307.3524 244.0257 314 253 314 253 "/>
<path id="12" d="M274 134 C274 134 276.3181 138.2759 279 140 C282.3092 142.1273 283.6559 142.7285 288 143 C306.4401 144.1525 327 143 327 143 "/>
<path id="13" d="M275 126 C275 126 287.3998 134.9224 299 138 C309.7816 140.8604 324 139 324 139 "/>
<path id="14" d="M236 34 C236 34 249.0858 43.1462 257 54 C265.5632 65.7439 263.3773 69.2956 271 82 C273.3454 85.9091 278 89 278 89 "/>
<path id="15" d="M241 38 C241 38 249.6264 40.501 256 45 C265.9083 51.9941 267.9796 52.6395 275 62 C283.4245 73.2326 289 89 289 89 "/>
<path id="16" d="M308 95 C308 95 307.2165 87.9938 309 83 C311.7732 75.2351 312.2344 72.4773 318 67 C330.365 55.2533 349 45 349 45 "/>
<path id="17" d="M350 43 C350 43 338.0831 41.9644 331 45 C323.3054 48.2977 321.1681 50.7305 315 58 C307.995 66.2559 303 78 303 78 "/>
<path id="18" d="M297 86 C297 86 287.9476 59.1795 277 34 C273.1495 25.1439 267 17 267 17 C267 17 274.0373 28.3594 278 40 C281.8083 51.1868 279.6502 52.4046 283 64 C286.0689 74.6232 291 85 291 85 "/>
<path id="19" d="M297 77 C297 77 297.4732 58.9747 303 47 C308.1116 35.9248 321 25 321 25 C321 25 311.2818 35.4365 306 46 C302.4788 53.0424 302.932 54.6117 302 63 C300.9849 72.1363 302 82 302 82 "/>
<path id="20" d="M319 396 L276 431 "/>
<path id="21" d="M308 389 C308 389 288.0492 397.6635 271 407 C268.1845 408.5418 266 412 266 412 "/>
<path id="22" d="M331 410 L299 435 "/>
<path id="23" d="M269 439 L274 458 "/>
<path id="24" d="M297 444 C297 444 299.6971 443.6062 300 444 C302.4133 447.1373 307 457 307 457 "/>
<path id="25" d="M347 446 L348 452 "/>
</g>
</g>
</svg>
