<?xml version="1.0" encoding="utf-8"?>
<!DOCTYPE svg PUBLIC "-//W3C//DTD SVG 1.1//EN" "http://www.w3.org/Graphics/SVG/1.1/DTD/svg11.dtd">
<svg viewBox="0 0 800 800" preserveAspectRatio="xMinYMin meet" xmlns="http://www.w3.org/2000/svg" version="1.1">
<g fill="none" stroke="black" stroke-linecap="round" stroke-linejoin="round" stroke-width="2.0449">
<g transform="translate(166.0068,87.52) scale(1.467) translate(-138,0)">
<path id="0" d="M206 87 C206 87 219.0071 95.6525 231 97 C260.3813 100.3013 267.4936 101.8709 295 97 C310.0471 94.3354 326.9395 80.252 327 80 C327.0043 79.982 313.503 72.8826 301 72 C273.2973 70.0445 270.7379 71.2631 242 74 C229.5847 75.1824 228.7104 75.9938 217 80 C210.336 82.2798 204 87 204 87 "/>
<path id="1" d="M204 87 C204 87 209.1598 91.7253 212 97 C215.8175 104.0897 217.372 105.2842 218 113 C220.6694 145.795 223.9034 149.8601 219 183 C209.8437 244.8841 198.4883 247.1625 189 309 C184.4342 338.7564 187.6989 342.0855 190 372 C190.5612 379.2962 191.1394 380.823 195 387 C205.357 403.5713 207.6697 408.2862 220 420 C224.3216 424.1055 227.6448 424.1673 235 425 C253.0091 427.0388 255.0379 427.3063 273 426 C281.2233 425.4019 283.5069 423.9219 290 421 C291.6191 420.2714 293 417 293 417 "/>
<path id="2" d="M325 84 C325 84 320.439 84.9226 320 86 C317.0159 93.3246 318.0578 99.052 314 111 C309.1861 125.1742 305.5022 124.8319 302 139 C294.8215 168.0404 294.9129 169.7061 292 200 C289.9785 221.0234 288.7525 222.5874 292 243 C298.9738 286.8353 303.016 287.488 313 332 C314.9894 340.8696 315.5037 341.0674 316 350 C316.9834 367.7013 318.5281 369.7075 316 386 C314.3569 396.5886 312.6844 400.6576 307 408 C302.9551 413.2247 298.9868 414.6711 292 417 C287.3421 418.5526 280 417 280 417 "/>
<path id="3" d="M282 135 C282 135 282.1094 127.6172 284 121 C288.9861 103.5488 288.6479 102.5421 296 86 C302.4001 71.5997 303.6304 70.5544 312 58 C313.9481 55.0779 314.8574 54.1785 318 53 C329.4229 48.7164 331.2438 47.1303 344 46 C369.3972 43.7496 371.371 43.8385 397 46 C411.7925 47.2476 412.4429 48.6329 427 53 C437.1582 56.0475 438.9323 55.8904 447 61 C452.4607 64.4585 456.9954 71.9974 457 72 C457.002 72.0011 456.1983 66.7861 454 65 C442.7556 55.8639 439.5051 53.4137 425 46 C418.2387 42.5442 416.8449 42.424 409 42 C380.9414 40.4833 379.0586 40.4833 351 42 C343.1551 42.424 342.1947 42.9829 335 46 C327.3589 49.2043 326.7137 49.8023 320 55 C311.5611 61.5333 310.3267 61.7754 304 70 C295.9447 80.4719 296.1561 81.6878 290 94 C282.7517 108.4966 281.7927 109.023 277 124 C274.0593 133.1897 274.0004 143.9939 274 144 C273.9999 144.0012 275.9127 141.833 276 140 C276.8099 122.9915 278.1844 120.2034 276 102 C273.811 83.7583 273.0359 82.5829 267 65 C261.7596 49.7344 261.2474 47.0766 253 35 C248.7136 28.7234 245.1684 24.9253 239 24 C212.9271 20.0891 173 23 173 23 C173 23 181.073 22.3701 188 24 C197.3875 26.2088 200.4556 25.7645 207 31 C217.9073 39.7258 219.0106 42.9245 228 56 C235.1232 66.361 234.9827 67.293 240 79 C243.8457 87.9734 244.3858 88.43 246 98 C251.2712 129.2509 254 162 254 162 C254 162 255.4275 153.1216 253 147 C244.8449 126.4348 240.7898 125.2111 231 104 C229.1724 100.0402 230.9561 98.7064 229 95 C222.0022 81.7411 221.1165 78.6883 212 68 C208.2138 63.5611 206.1086 62.8468 200 61 C185.8002 56.707 184.3601 56.4865 169 55 C153.9223 53.5409 138 55 138 55 C138 55 142.1867 53.977 145 55 C157.203 59.4375 159.8147 59.2986 171 67 C189.1695 79.5101 190.6699 81.3292 206 97 C212.1528 103.2895 211.8374 104.6749 216 113 C226.2082 133.4164 227.2775 133.6966 235 155 C241.5753 173.1387 245 193 245 193 "/>
<path id="4" d="M258 180 C258 180 272.4371 136.291 292 108 C300.8968 95.1339 307.335 95.6126 323 86 C328.6563 82.5291 329.664 81.8089 336 81 C351.8549 78.976 355.4705 78.6484 370 80 C374.0559 80.3773 375.2286 81.9143 379 85 C385.8094 90.5714 386.5596 90.9275 392 98 C401.2432 110.0161 402.5366 110.4673 409 124 C418.124 143.1033 423.9458 164.9308 424 165 C424.0161 165.0205 426.7028 155.9174 427 147 C428.1824 111.5276 430.6961 94.9588 427 75 C426.3954 71.7351 419.5718 68.6604 412 66 C402.2423 62.5716 400.9071 62.7522 390 62 C372.373 60.7843 371.0356 59.7453 354 62 C338.2936 64.0788 336.5053 64.8631 322 71 C311.6702 75.3703 310.7703 76.5452 302 84 C291.309 93.0874 291.2081 94.0014 282 105 C273.3649 115.3142 272.0782 115.4514 266 127 C257.5347 143.0841 252 162 252 162 "/>
<path id="5" d="M250 172 C250 172 251.7495 154.5415 257 139 C263.99 118.3097 267.0219 118.3441 275 98 C276.7903 93.4348 275.0921 92.4183 277 88 C284.2603 71.1866 284.6352 70.1461 294 54 C298.9023 45.5478 299.0509 43.7019 306 38 C317.0973 28.8945 333 22 333 22 "/>
<path id="6" d="M347 19 C347 19 340.1629 20.8039 335 24 C330.228 26.9541 329.2676 27.3828 326 32 C307.0837 58.7296 305.9249 60.0866 289 89 C282.2353 100.5564 282.0342 101.2017 278 114 C267.701 146.6725 269.5271 148.0884 260 181 C258.6598 185.6297 256.0191 189.9924 256 190 C255.9955 190.0018 255 183 255 183 "/>
<path id="7" d="M335 18 C335 18 330.4237 18.4237 330 18 C329.4068 17.4068 328.3977 12.7026 329 12 C331.2417 9.3846 336.2386 7.0727 342 4 C342.6673 3.6441 343.975 3.9168 344 4 C344.4284 5.428 344.9466 13.9771 345 14 C345.0303 14.013 347.6225 9.4887 351 7 C356.4964 2.95 357.9368 2.2338 364 0 C366.3352 -0.86032 369.73 -0.36 370 0 C370.48 0.64 369.9493 7.9922 370 8 C370.4977 8.0766 379.9112 2.5792 383 2 C383.533 1.9001 385.9018 3.8705 386 5 C386.5998 11.8974 386.9729 17.3901 385 25 C384.1668 28.2137 381.5889 30.7056 379 32 C376.8199 33.09 371.3902 32.4878 371 32 C370.3902 31.2378 369.7952 25.8151 371 22 C372.3126 17.8436 376.9889 12.9842 377 13 C377.0455 13.065 379.4496 27.6513 378 32 C377.3788 33.8637 373.2312 35.7555 369 37 C365.7672 37.9508 364.2586 37.869 361 37 C357.7142 36.1238 354.8394 34.6788 354 33 C352.8808 30.7616 352.703 26.335 354 23 C355.3906 19.4241 360.9991 15 361 15 C361.0005 15 359.6024 20.8933 357 23 C350.9671 27.8837 341.7867 32.481 340 32 C338.3689 31.5609 333.3293 23.5057 331 16 C329.3887 10.808 330.5235 6.3354 331 3 C331.0471 2.6701 333 2 333 2 "/>
<path id="8" d="M332 2 L298 60 "/>
<path id="9" d="M383 23 C383 23 368.448 27.6715 355 34 C343.1973 39.5542 342.5068 39.8825 332 47 C327.5671 50.0029 326.8332 50.7502 324 55 C321.3085 59.0373 322.8513 61.1424 320 65 C315.0246 71.7314 307 78 307 78 "/>
</g>
</g>
</svg>
