<?xml version="1.0" encoding="utf-8"?>
<!DOCTYPE svg PUBLIC "-//W3C//DTD SVG 1.1//EN" "http://www.w3.org/Graphics/SVG/1.1/DTD/svg11.dtd">
<svg viewBox="0 0 800 800" preserveAspectRatio="xMinYMin meet" xmlns="http://www.w3.org/2000/svg" version="1.1">
<g fill="none" stroke="black" stroke-linecap="round" stroke-linejoin="round" stroke-width="2.0689">
<g transform="translate(278.1981,87.52) scale(1.45) translate(-209,-14)">
<path id="0" d="M240 103 C240 103 240.725 104.9929 241 105 C261.1456 105.5166 317.1802 105.0693 318 105 C318.0585 104.9951 315.2347 100.7791 312 99 C306.1741 95.7958 304.7253 94.4484 298 94 C269.3782 92.0919 252.9059 92.9901 237 94 C236.4123 94.0373 235 96.4911 235 98 C235 100.6405 235.2834 102.5031 237 105 C240.113 109.528 243.537 109.2381 246 114 C250.1673 122.0567 249.7927 123.9446 252 134 C254.2426 144.2164 254.6706 144.5688 255 155 C256.1556 191.5926 256.7331 192.3163 255 229 C253.7521 255.4139 253.9454 256.0862 249 282 C241.5446 321.0662 236.2229 321.4182 230 360 C226.4565 381.97 225.6835 386.3774 229 406 C230.9681 417.6445 234.5724 420.1681 242 431 C245.8421 436.603 247.3199 437.8192 253 441 C258.5569 444.1119 260.1762 444.5926 267 445 C292.3997 446.5164 294.5381 445.8487 320 445 C323.3949 444.8868 324.0434 444.4783 327 443 C329.587 441.7065 331.5511 440.7207 332 439 C333.63 432.7518 334.4771 428.7282 333 420 C329.2325 397.7374 325.7341 396.4872 321 374 C319.9269 368.9026 321 363 321 363 "/>
<path id="1" d="M317 106 C317 106 318.9322 105.8644 319 106 C319.4406 106.8813 319.9406 109.032 320 112 C320.4339 133.693 322.5913 134.8381 320 156 C316.7333 182.6782 311.4831 183.2072 308 210 C305.1081 232.2454 303.5301 234.6326 307 256 C312.6206 290.611 320.1892 292.2648 327 327 C329.8181 341.3722 328.5571 343.3632 327 358 C326.1696 365.8056 322 374 322 374 "/>
<path id="2" d="M281 143 C281 143 284.0015 174.589 280 204 C274.2019 246.616 261 290 261 290 "/>
<path id="3" d="M302 163 C302 163 299.1641 203.8128 301 242 C301.5881 254.2315 307 267 307 267 "/>
<path id="4" d="M257 356 C257 356 271.3115 361.2623 285 364 C290.5494 365.1099 293.4149 364.956 297 364 C298.2149 363.676 300 360 300 360 "/>
<path id="5" d="M258 379 C258 379 271.5198 384.08 284 386 C289.921 386.9109 297 385 297 385 "/>
<path id="6" d="M209 28 C209 28 227.6218 58.1085 242 88 C246.0563 96.4328 244.3433 100.0261 247 107 C247.3994 108.0485 250 109 250 109 "/>
<path id="7" d="M209 24 C209 24 211.5458 32.3186 216 39 C232.156 63.2341 237.8508 62.7935 251 87 C258.4346 100.6864 260 120 260 120 "/>
<path id="8" d="M289 103 C289 103 288.9994 113.0014 289 113 C289.0019 112.9955 291.3088 96.7374 297 84 C301.1597 74.6903 302.5814 72.969 310 66 C317.9898 58.4944 319.5769 58.4449 330 53 C352.7565 41.1123 377 31 377 31 C377 31 365.482 34.3512 356 40 C342.5768 47.9968 340.9245 48.3183 330 59 C319.3532 69.4102 319.4353 71.0659 311 84 C304.6441 93.7457 303.6977 94.3692 300 105 C296.0174 116.45 295 130 295 130 "/>
<path id="9" d="M253 116 C253 116 255.3531 91.7949 252 70 C248.5855 47.8055 239 25 239 25 C239 25 252.4928 47.1244 257 68 C261.3467 88.1319 258 113 258 113 "/>
<path id="10" d="M260 116 C260 116 262.4585 105.2722 267 96 C274.2355 81.2275 274.5054 80.6226 284 67 C297.298 47.9202 297.3988 46.213 313 30 C321.9344 20.7152 335.0001 13.9998 335 14 C334.9998 14.0004 320.2437 26.2987 308 40 C299.5967 49.4036 298.8972 49.9666 293 61 C283.7426 78.3204 282.6861 79.5201 277 98 C273.0354 110.885 273 126 273 126 "/>
<path id="11" d="M318 109 C318 109 320.7875 119.0831 321 129 C322.2709 188.3108 315.5262 191.0925 321 249 C324.7768 288.9543 334.9375 290.0327 340 330 C344.1881 363.0639 343.3373 366.9619 340 399 C338.6437 412.0203 330 426 330 426 "/>
</g>
</g>
</svg>
