<?xml version="1.0" encoding="utf-8"?>
<!DOCTYPE svg PUBLIC "-//W3C//DTD SVG 1.1//EN" "http://www.w3.org/Graphics/SVG/1.1/DTD/svg11.dtd">
<svg viewBox="0 0 800 800" preserveAspectRatio="xMinYMin meet" xmlns="http://www.w3.org/2000/svg" version="1.1">
<g fill="none" stroke="black" stroke-linecap="round" stroke-linejoin="round" stroke-width="2.0881">
<g transform="translate(197.4268,87.52) scale(1.4367) translate(-123,0)">
<path id="0" d="M161 155 C161 155 160.5048 157.3633 161 158 C162.8892 160.429 164.2023 161.7737 168 164 C178.2726 170.0218 178.8005 170.6729 190 175 C200.3753 179.0086 201.4247 177.2231 212 181 C222.1685 184.6316 222.315 188.5603 232 190 C256.6449 193.6634 259.4134 190.0734 286 192 C293.4721 192.5415 295.0506 192.8081 301 195 C303.022 195.745 303.346 198.7243 305 199 C312.0886 200.1814 315.8913 200.7821 325 199 C337.6433 196.5263 340.2271 195.8232 351 190 C356.9147 186.8029 356.244 183.5442 362 179 C365.2628 176.4241 367.1838 177.668 370 175 C375.7959 169.5091 377.7601 167.1853 381 161 C382.1476 158.8091 382.2171 156.0538 381 154 C375.8741 145.35 372.9382 138.0469 365 134 C353.4671 128.1205 347.261 128.4828 330 128 C277.0192 126.518 274.9544 126.9078 222 130 C207.6245 130.8394 206.8458 131.8463 193 136 C182.3459 139.1962 181.7182 139.8169 172 145 C167.2037 147.558 166.4505 148.262 163 152 C161.0233 154.1414 160.6212 155.018 160 158 C158.273 166.2895 157.4396 169.5551 158 176 C158.1681 177.9335 159.6328 179.6343 162 181 C183.4638 193.383 185.7834 194.7691 210 206 C219.8527 210.5694 220.4606 210.6579 231 213 C242.5258 215.5613 243.0571 215.6188 255 216 C289.6949 217.1073 290.3255 216.8159 325 216 C332.4536 215.8246 332.9263 215.9118 340 214 C350.9981 211.0276 352.1404 210.9298 362 206 C367.309 203.3455 369.9497 202.3057 372 198 C378.2275 184.9223 382 164 382 164 "/>
<path id="1" d="M176 190 C176 190 169.7797 201.3218 168 212 C166.0169 223.8986 169.2712 225.2881 168 238 C165.8145 259.8547 163.2495 260.1481 161 282 C159.7928 293.7272 159.2411 294.9441 161 306 C162.5474 315.7263 163.1951 316.9727 168 326 C179.3082 347.2458 179.6983 350.5893 194 368 C200.8687 376.3619 204.8661 374.4409 214 382 C218.9957 386.1344 217.8938 388.334 223 392 C236.5463 401.7256 237.9706 404.9902 253 410 C272.7608 416.5869 276.1145 415.2902 298 417 C307.0545 417.7074 311.0126 417.2453 317 415 C319.3116 414.1332 319.053 409.9269 322 408 C330.4742 402.4592 335.0901 404.1796 343 398 C349.237 393.1273 349.468 390.8051 354 383 C358.2517 375.6776 359.307 374.957 361 367 C364.0626 352.6057 361.0601 350.6993 364 336 C365.8979 326.5106 369.0205 326.5015 371 317 C373.8664 303.2412 373.2432 302.5049 374 288 C376.2363 245.1385 377 202 377 202 "/>
<path id="2" d="M239 403 C239 403 208.7723 410.087 186 417 C184.4444 417.4722 183.3214 418.7143 183 420 C182.2286 423.0856 182.7794 428.9611 183 429 C194.9534 431.1094 225.5848 433.9396 268 435 C325.2718 436.4318 368.3872 434.5083 383 434 C383.0133 433.9995 383.4836 431.4551 383 431 C377.9928 426.2874 374.3579 422.8219 366 418 C362.5361 416.0016 360.2123 417.8896 357 416 C352.9893 413.6407 353.0835 410.139 349 408 C344.1189 405.4432 336 405 336 405 "/>
<path id="3" d="M237 176 C237 176 236.4821 161.3644 232 149 C222.4019 122.5224 220.9556 121.1491 208 96 C204.4022 89.0161 202.0852 89.8706 198 83 C191.2865 71.7091 192.4672 69.4193 186 59 C184.2059 56.1096 182.9502 55.4751 180 54 C177.744 52.872 174 53 174 53 "/>
<path id="4" d="M256 170 C256 170 253.5212 142.7716 257 119 C259.218 103.8438 261.7504 102.9991 268 88 C271.6444 79.2535 277 71 277 71 "/>
<path id="5" d="M283 174 C283 174 303.7943 117.4133 327 63 C332.5384 50.0133 332.9675 49.2454 341 38 C347.5243 28.8659 357 21 357 21 "/>
<path id="6" d="M357 21 C357 21 356.453 24.7237 357 26 C357.3594 26.8387 358.6229 27.694 360 28 C362.3988 28.5331 365.625 28.375 366 28 C366.375 27.625 366.4696 22.4109 366 22 C365.2061 21.3054 358 21 358 21 "/>
<path id="7" d="M359 28 C359 28 358.0339 41.36 361 51 C363.3961 58.7873 365.6536 60.7101 371 67 C373.1713 69.5545 375.1098 70.6958 378 71 C382.5914 71.4833 389.3121 70.1465 390 69 C391.3459 66.7569 391.2246 58.3478 390 51 C389.5464 48.2786 388.4661 47.1298 386 45 C378.1499 38.2204 367.9989 32.0101 368 32 C368.0002 31.9983 377.6009 34.9839 387 36 C395.7062 36.9412 403.2807 36.9552 405 36 C405.5307 35.7052 406.1976 29.1937 405 26 C404.012 23.3652 401.6221 20.5736 399 20 C389.5984 17.9434 374.3429 19.5255 373 19 C372.9934 18.9974 375.5887 14.7018 376 11 C376.4881 6.6072 375.9626 1.8145 375 1 C373.6931 -0.10587 365.3503 -1.106 363 0 C361.1174 0.88595 359.1982 4.6066 358 9 C356.4655 14.6266 357.0015 21.9979 357 22 C356.9992 22.0011 356.5851 15.3776 355 13 C353.9262 11.3894 351.6723 10.334 349 10 C344.8606 9.4826 341.8194 9.4141 339 11 C336.1973 12.5765 333.8947 15.6003 333 19 C331.9972 22.8106 333.4688 29.8293 334 30 C337.0868 30.9922 360.9811 27.9991 361 28 C361.0041 28.0002 356.635 29.0147 355 31 C350.7612 36.1471 349.1815 38.4556 347 45 C345.6911 48.9266 346.375 54.375 347 55 C347.625 55.625 357 55 357 55 "/>
<path id="8" d="M277 73 C277 73 282.0422 73.7663 283 73 C284.6602 71.6718 286.2976 68.5119 287 65 C287.5428 62.2862 286.6539 58.5086 286 58 C285.1882 57.3686 278.2647 57.497 278 58 C276.7393 60.3953 276 77 276 77 "/>
<path id="9" d="M277 55 C277 55 273.3002 54.4859 272 53 C267.5386 47.9012 266.0951 46.1426 263 39 C259.9337 31.9239 259.284 29.2474 259 23 C258.8971 20.7362 260.7239 17.4466 262 17 C266.3412 15.4806 272.0118 15.3647 279 16 C281.1791 16.1981 282.4294 17.2331 284 19 C285.8285 21.057 286.4306 22.1531 287 25 C287.7764 28.8822 288.3532 30.8875 287 34 C284.2412 40.3452 281.0262 40.8103 277 48 C274.2802 52.8567 272.9998 59.0002 273 59 C273.0004 58.9995 279.4518 41.646 285 38 C290.2287 34.564 303.6536 35.8189 308 36 C308.2134 36.0089 308.8789 37.5465 309 39 C309.3535 43.2426 310.0346 45.7583 309 48 C308.2218 49.6861 305.8277 51.4345 303 52 C295.0158 53.5968 284.0002 52.9999 284 53 C283.9999 53 293.0819 51.8777 297 54 C302.0634 56.7427 305.7007 61.1714 308 66 C309.137 68.3876 307.5887 74.723 307 75 C305.2538 75.8217 297.5626 75.3125 291 74 C289.1365 73.6273 287.7286 72.2751 287 71 C286.4486 70.0351 287 67 287 67 C287 67.0001 287.0099 72.5248 288 75 C288.3772 75.9429 290.9441 76.3566 291 77 C291.5175 82.951 291.0643 95.5167 290 98 C289.8297 98.3973 284.7125 98.7398 282 98 C280.7054 97.6469 279.3514 96.4055 279 95 C277.3602 88.441 277.7106 78.5329 277 78 C276.5062 77.6297 269.9591 81.8119 263 83 C250.1902 85.187 239.6773 86.1412 236 85 C235.2453 84.7658 233.3776 77.7344 234 74 C234.4571 71.2576 236.153 68.8505 239 67 C244.6343 63.3377 246.7711 62.0843 254 61 C265.3662 59.2951 279 61 279 61 "/>
<path id="10" d="M176 50 C176 50 175.0938 37.8751 174 37 C172.9238 36.139 161.9637 36.7793 161 38 C159.3248 40.1219 158.5222 50.9831 159 56 C159.0907 56.9524 161.1894 58.5474 163 59 C166.0494 59.7624 169.0663 59.9668 171 59 C172.692 58.154 175 53 175 53 "/>
<path id="11" d="M166 35 C166 35 177.6705 10.9301 187 3 C191.0066 -0.40564 198.6738 0.41391 206 1 C208.4576 1.1966 210.3264 2.7685 212 5 C214.0182 7.691 214.4724 9.1308 215 13 C215.8784 19.4416 216.6056 23.7888 215 27 C213.7385 29.5231 209.7144 32.1538 205 33 C192.581 35.2291 176 34 176 34 C176 34 199.7443 29.9364 210 34 C218.241 37.2653 229.0591 54.9635 229 55 C228.4807 55.3208 180.0254 51.9809 176 55 C173.8544 56.6092 178.2767 85.063 177 94 C176.8686 94.92 173.3431 96.5821 170 97 C162.2938 97.9633 154.5194 98.1818 153 97 C151.9374 96.1735 150.3601 88.2179 152 83 C154.9683 73.5555 163.994 62.0968 164 62 C164.0016 61.9747 156.9087 63.6243 153 67 C147.108 72.0885 147.2812 77.3262 142 81 C138.5899 83.3722 131.94 83.97 130 83 C127.9718 81.9859 125.2406 77.3169 124 72 C122.0757 63.753 121.8418 53.7513 123 53 C127.2181 50.2639 160.9527 48.0103 161 48 C161.0067 47.9985 156.8801 47.6294 155 46 C150.4942 42.095 149.4773 40.7955 146 35 C142.2683 28.7804 141.9111 27.6887 140 21 C139.1487 18.0205 139.6919 14.1268 140 14 C141.8169 13.2518 151.1115 12.6617 157 14 C159.1255 14.4831 161.0505 16.6262 162 19 C163.4107 22.5267 161.8304 24.9065 163 29 C163.5523 30.933 166 33 166 33 "/>
</g>
</g>
</svg>
