<?xml version="1.0" encoding="utf-8"?>
<!DOCTYPE svg PUBLIC "-//W3C//DTD SVG 1.1//EN" "http://www.w3.org/Graphics/SVG/1.1/DTD/svg11.dtd">
<svg viewBox="0 0 800 800" preserveAspectRatio="xMinYMin meet" xmlns="http://www.w3.org/2000/svg" version="1.1">
<g fill="none" stroke="black" stroke-linecap="round" stroke-linejoin="round" stroke-width="1.7281">
<g transform="translate(188.208,87.52) scale(1.736) translate(-163,-41.1333)">
<path id="0" d="M201 164.1333 C201 164.1333 228.0373 158.8791 255 157.1333 C297.1522 154.4041 340 155.1333 340 155.1333 "/>
<path id="1" d="M201 167.1333 C201 167.1333 206.0003 167.3836 208 169.1333 C212.4565 173.0328 214.0825 174.8121 217 181.1333 C222.6266 193.3243 223.0424 194.6896 226 208.1333 C228.3922 219.0071 227.7235 219.6592 228 231.1333 C228.7198 261.0033 229.9572 261.4193 228 291.1333 C224.486 344.4821 214.9962 385.1673 217 398.1333 C217.1394 399.0356 231.0435 400.6164 245 401.1333 C271.3133 402.1079 271.8183 402.7201 298 401.1333 C320.9034 399.7452 342.1158 398.7304 344 395.1333 C348.8178 385.9357 338.6019 354.9375 342 317.1333 C346.4373 267.7685 353.4502 267.0362 360 217.1333 C363.8643 187.6907 364.4216 165.947 363 157.1333 C362.9021 156.5266 355.7702 154.4739 350 155.1333 C339.7506 156.3047 328 161.1333 328 161.1333 "/>
<path id="2" d="M205 164.1333 C205 164.1333 262.5531 167.7204 316 164.1333 C334.6203 162.8836 354 154.1333 354 154.1333 "/>
<path id="3" d="M289 163.1333 C289 163.1333 289.4896 139.8489 287 123.1333 C286.5215 119.9208 284.9608 118.2866 282 116.1333 C275.0915 111.1089 265.0257 107.1526 265 107.1333 C264.9946 107.1293 269.5912 106.5493 270 107.1333 C273.0721 111.5221 274.0221 122.5241 279 127.1333 C283.0935 130.9237 297 132.1333 297 132.1333 "/>
<path id="4" d="M280 115.1333 C280 115.1333 278.0784 109.6881 279 106.1333 C281.1165 97.9695 282.2315 96.4782 287 88.1333 C292.0401 79.3131 292.2069 78.395 299 71.1333 C306.1968 63.4402 306.922 62.5801 316 57.1333 C331.2253 47.9981 348.1557 41.3708 349 41.1333 C349.0668 41.1145 349.2401 45.157 348 48.1333 C344.5304 56.4603 344.1616 57.2681 339 65.1333 C333.8455 72.9879 333.1428 72.762 327 80.1333 C320.6525 87.7504 321.1348 88.5618 314 95.1333 C302.4472 105.7741 289 115.1333 289 115.1333 "/>
<path id="5" d="M276 118.1333 C276 118.1333 268.8154 107.2876 260 99.1333 C249.327 89.2608 248.6637 88.3157 236 81.1333 C215.8829 69.7236 214.5062 68.4985 193 61.1333 C179.3185 56.4479 165.5778 55.9615 163 56.1333 C162.9595 56.136 161.941 60.4376 163 63.1333 C166.8309 72.8848 167.6917 74.8211 174 84.1333 C177.7192 89.6235 178.6375 90.2333 184 94.1333 C189.0803 97.8281 189.9373 98.2518 196 100.1333 C203.8423 102.5671 204.6233 102.8833 213 103.1333 C237.4936 103.8645 263 102.1333 263 102.1333 "/>
<path id="6" d="M262 96.1333 C262 96.1333 261.8692 83.4891 265 73.1333 C268.0151 63.1604 271.997 58.1384 275 53.1333 C275.1386 52.9023 276.9495 53.0154 277 53.1333 C277.438 54.1554 277.8057 56.6367 278 60.1333 C278.8 74.533 279 89.1333 279 89.1333 "/>
<path id="7" d="M261 164.1333 C261 164.1333 248.4903 136.746 233 123.1333 C220.1928 111.8786 212.7795 112.85 195 106.1333 C192.1983 105.0749 190.8902 105.2833 188 106.1333 C183.2639 107.5263 177.9658 111.1055 178 111.1333 C178.1873 111.2855 191.8611 113.897 204 119.1333 C216.7935 124.6521 229 133.1333 229 133.1333 "/>
<path id="8" d="M249 124.1333 C249 124.1333 260.8938 116.149 272 111.1333 C275.2512 109.665 278.6114 109.5022 280 110.1333 C281.054 110.6124 282.4127 113.1968 283 116.1333 C284.2636 122.4514 284 130.1333 284 130.1333 "/>
<path id="9" d="M300 161.1333 C300 161.1333 316.3956 144.1517 334 130.1333 C342.8661 123.0733 343.803 122.8184 354 118.1333 C361.7125 114.5897 364.8472 113.1333 371 113.1333 C374.2574 113.1333 376.7342 115.4613 380 118.1333 C381.3154 119.2096 382 122.1333 382 122.1333 "/>
<path id="10" d="M346 132.1333 C346 132.1333 344.0586 118.2181 347 108.1333 C350.3652 96.5955 352.4181 92.449 360 84.1333 C365.5854 78.0074 369.386 76.1494 378 74.1333 C390.3804 71.2358 407 73.1333 407 73.1333 "/>
<path id="11" d="M367 115.1333 C367 115.1333 376.7122 113.0335 385 109.1333 C393.2409 105.2552 398.8226 103.352 401 99.1333 C403.5044 94.2811 401 78.1333 401 78.1333 "/>
<path id="12" d="M261 158.1333 C261 158.1333 258.5059 148.3173 254 144.1333 C246.7584 137.409 243.1181 136.1193 233 132.1333 C228.1257 130.2131 226.0489 130.0887 221 131.1333 C213.1019 132.7674 212.359 136.1665 204 138.1333 C196.2739 139.9512 187.0432 139.0613 187 139.1333 C186.9907 139.1488 192.0304 144.8367 198 148.1333 C224.7127 162.8851 254 176.1333 254 176.1333 "/>
<path id="13" d="M307 164.1333 C307 164.1333 310.4608 152.9456 316 144.1333 C321.0025 136.1748 322.1151 136.0182 329 129.1333 C333.426 124.7073 336.387 121.5459 339 121.1333 C340.9048 120.8326 348 126.1333 348 126.1333 "/>
<path id="14" d="M256 162.1333 C256 162.1333 271.9884 179.8092 284 187.1333 C287.6109 189.3351 291.6421 188.5758 297 187.1333 C303.1346 185.4817 310 180.1333 310 180.1333 "/>
<path id="15" d="M321 131.1333 C321 131.1333 325.2622 122.3056 331 115.1333 C338.9851 105.1519 339.1797 104.1499 349 96.1333 C363.1084 84.6162 364.4485 84.1749 380 75.1333 C385.1559 72.1357 392 71.1333 392 71.1333 "/>
</g>
</g>
</svg>
