<?xml version="1.0" encoding="utf-8"?>
<!DOCTYPE svg PUBLIC "-//W3C//DTD SVG 1.1//EN" "http://www.w3.org/Graphics/SVG/1.1/DTD/svg11.dtd">
<svg viewBox="0 0 800 800" preserveAspectRatio="xMinYMin meet" xmlns="http://www.w3.org/2000/svg" version="1.1">
<g fill="none" stroke="black" stroke-linecap="round" stroke-linejoin="round" stroke-width="1.6225">
<g transform="translate(87.52,241.911) scale(1.849) translate(-134,-191)">
<path id="0" d="M141 232 C141 232 154.0918 236.1582 167 237 C199.3932 239.1126 201.2926 235.4488 233 238 C243.3081 238.8294 243.4294 242.2605 254 244 C282.4377 248.6796 283.5594 249.736 312 251 C327.5426 251.6908 328.0392 248.4837 344 248 C377.3233 246.9902 378.6683 250.3823 411 248 C424.7607 246.9861 429.2182 245.7512 439 241 C442.6938 239.2059 444.8178 235.3349 446 231 C447.1642 226.7313 446.3918 224.0103 445 219 C444.1939 216.0981 443.3749 214.3922 441 213 C431.0644 207.1757 428.4546 204.9654 416 202 C398.4347 197.8178 396.9724 198.8546 378 198 C341.7027 196.365 341.3919 198.6123 305 197 C262.5191 195.1179 262.2896 192.9223 220 191 C207.6242 190.4375 207.3725 190.9002 195 192 C185.0056 192.8884 184.5876 192.5072 175 195 C159.9588 198.9107 157.561 198.7195 145 205 C139.6167 207.6916 136.877 210.3929 135 215 C132.6785 220.6983 133.6584 225.1673 134 232 C134.0625 233.2496 135.2589 234.8692 136 235 C140.3952 235.7756 151 235 151 235 "/>
<path id="1" d="M145 237 C145 237 143.6676 239.4644 144 240 C149.2801 248.5068 152.3314 254.4273 163 266 C181.3569 285.9126 184.2783 284.1262 203 304 C216.4946 318.325 214.5341 321.2414 228 335 C236.8739 344.0668 238.2734 344.564 249 351 C254.9592 354.5755 255.9283 354.5857 263 356 C282.8951 359.979 283.6685 361.0499 304 362 C336.4834 363.5179 340.9352 365.0089 370 361 C379.8954 359.6351 381.6822 356.4707 391 350 C399.0435 344.4143 398.7613 343.2387 406 336 C417.7318 324.2682 418.497 324.5452 429 312 C436.2561 303.333 437.1463 302.7074 442 293 C445.7116 285.5767 443.4636 283.0729 447 276 C449.3576 271.2847 453.1836 271.5409 455 267 C458.3648 258.5881 457.7002 256.3985 459 246 C459.665 240.6798 460.3727 238.922 459 235 C457.5711 230.9176 454.4404 230.6367 452 226 C449.7723 221.7673 449 216 449 216 "/>
<path id="2" d="M424 246 C424 246 435.5991 245.4473 446 243 C452.0357 241.5798 453.2463 241.1691 458 238 C461.3069 235.7954 461.571 232.8892 464 231 C464.6367 230.5048 466.9982 231.0217 467 231 C467.0855 229.9743 467.1986 223.597 465 219 C462.403 213.57 460.962 212.4658 456 208 C451.4581 203.9123 450.4089 202.2247 445 201 C426.4621 196.8027 403 196 403 196 "/>
<path id="3" d="M410 192 L404 193 "/>
<path id="4" d="M199 291 L307 305 "/>
<path id="5" d="M274 326 C274 326 290.5324 329.568 307 331 C324.7739 332.5456 325.5272 333.3978 343 332 C362.2434 330.4605 382 325 382 325 "/>
<path id="6" d="M358 307 C358 307 375.8921 308.1331 391 307 C394.3077 306.7519 394.5418 304.494 398 304 C414.4932 301.6438 433 301 433 301 "/>
<path id="7" d="M149 244 C149 244 155.0844 242.068 161 242 C197.8961 241.5759 199.828 241.6766 236 243 C239.4097 243.1247 241.1845 243.8653 243 245 C243.6327 245.3954 243.5733 247.8687 244 248 C246.7307 248.8402 251.111 247.1456 256 249 C264.2119 252.1149 265.502 258.6533 273 259 C339.9434 262.0956 353.5459 260.7312 429 257 C441.735 256.3702 443.948 255.1217 455 250 C462.7705 246.399 466.4144 243.6948 470 238 C472.7186 233.6822 473.683 227.0132 472 223 C469.351 216.683 457 207 457 207 "/>
<path id="8" d="M143 238 C143 238 141.6413 227.6092 142 219 C142.0962 216.6916 142.6293 215.2336 144 214 C146.4461 211.7985 148.0998 210.5065 152 210 C183.9448 205.8513 194.2356 207.3455 221 204 C222.2951 203.8381 222.621 201.3677 224 201 C228.4514 199.813 230.0869 199.7519 236 200 C300.9231 202.724 301.6464 205.4942 367 207 C409.8282 207.9868 427.6738 204.7122 453 205 C453.5992 205.0068 454.9173 206.7602 455 208 C455.3148 212.7217 454 220 454 220 "/>
</g>
</g>
</svg>
