<?xml version="1.0" encoding="utf-8"?>
<!DOCTYPE svg PUBLIC "-//W3C//DTD SVG 1.1//EN" "http://www.w3.org/Graphics/SVG/1.1/DTD/svg11.dtd">
<svg viewBox="0 0 800 800" preserveAspectRatio="xMinYMin meet" xmlns="http://www.w3.org/2000/svg" version="1.1">
<g fill="none" stroke="black" stroke-linecap="round" stroke-linejoin="round" stroke-width="0.89286">
<g transform="translate(226.96,87.52) scale(3.36) translate(-179,-193)">
<path id="0" d="M217 379 L263 378 "/>
<path id="1" d="M219 378 C219 378 220.8301 363.5492 219 351 C217.5074 340.765 214.243 340.6169 212 330 C206.8422 305.5864 209.3209 304.4133 204 280 C200.919 265.8637 200.8421 264.5605 195 252 C191.3487 244.1497 187.9895 244.7297 184 237 C180.415 230.0541 179.3696 228.3926 179 221 C178.4575 210.1499 182 197 182 197 "/>
<path id="2" d="M266 378 C266 378 269.4316 358.6563 268 341 C266.5369 322.9551 262.0169 322.3758 260 304 C257.5981 282.1159 254.3328 275.4465 259 259 C262.6785 246.0377 274.9385 243.4406 281 230 C284.4964 222.2471 283.093 218.1103 282 208 C281.2241 200.8229 277 193 277 193 "/>
<path id="3" d="M184 196 L276 193 "/>
</g>
</g>
</svg>
