<?xml version="1.0" encoding="utf-8"?>
<!DOCTYPE svg PUBLIC "-//W3C//DTD SVG 1.1//EN" "http://www.w3.org/Graphics/SVG/1.1/DTD/svg11.dtd">
<svg viewBox="0 0 800 800" preserveAspectRatio="xMinYMin meet" xmlns="http://www.w3.org/2000/svg" version="1.1">
<g fill="none" stroke="black" stroke-linecap="round" stroke-linejoin="round" stroke-width="1.7521">
<g transform="translate(277.5763,87.52) scale(1.7122) translate(-193,-27.4167)">
<path id="0" d="M235 133.4167 L237 133.4167 "/>
<path id="1" d="M236 135.4167 C236 135.4167 246.8396 129.0105 257 127.4167 C270.6964 125.2682 276.5355 125.2136 287 127.4167 C290.378 128.1278 293.5189 131.899 295 135.4167 C296.4331 138.8203 295.821 142.5855 295 146.4167 C294.7281 147.6854 293.1472 149.3563 292 149.4167 C272.3834 150.4491 260.6279 150.2106 238 149.4167 C236.7135 149.3715 235.2719 148.2324 235 147.4167 C234.3655 145.5132 234.181 142.6688 235 140.4167 C235.6381 138.6618 239 136.4167 239 136.4167 "/>
<path id="2" d="M234 149.4167 C234 149.4167 236.6763 160.7331 234 165.4167 C225.8038 179.7601 216.2225 181.2129 206 198.4167 C196.9952 213.5711 196.5077 217.835 193 234.4167 C191.59 241.0823 192.1656 244.2478 195 250.4167 C199.6726 260.5865 204.0608 260.7887 210 271.4167 C213.0796 276.9275 211.2401 278.4099 214 284.4167 C219.575 296.5505 223.1611 296.4484 227 308.4167 C231.1268 321.2827 229.931 322.9848 231 337.4167 C231.9123 349.7321 231.9984 350.4364 231 362.4167 C230.5507 367.8078 228 373.4167 228 373.4167 "/>
<path id="3" d="M296 149.4167 C296 149.4167 299.8395 149.9353 300 150.4167 C301.215 154.0616 299.8437 159.8696 302 167.4167 C303.5602 172.8775 304.2328 173.9645 308 178.4167 C314.6872 186.3197 316.9907 185.4932 324 193.4167 C328.1334 198.0892 328.6689 198.8221 331 204.4167 C333.3869 210.1453 333.6804 211.025 334 217.4167 C335.1422 240.2616 335.7875 242.2513 334 264.4167 C333.4142 271.6809 332.287 272.456 329 279.4167 C323.9512 290.1082 323.7221 290.9446 317 300.4167 C313.1063 305.9032 311.1306 304.9718 307 310.4167 C300.3991 319.1178 300.3053 319.6223 295 329.4167 C287.3889 343.468 284.579 344.6119 281 358.4167 C278.2578 368.9935 281.8948 381.7016 281 383.4167 C280.8475 383.709 274.2024 383.4976 269 381.4167 C260.0583 377.84 259.4709 373.7061 251 371.4167 C243.2258 369.3155 240.5249 370.1988 232 371.4167 C227.7055 372.0302 223.7067 373.915 223 375.4167 C221.9248 377.7014 222.4166 386.4939 224 388.4167 C225.6845 390.4621 230.7488 392.1632 237 392.4167 C265.9519 393.5904 275.8082 394.3112 298 391.4167 C301.283 390.9885 306.0829 383.8038 306 383.4167 C305.8897 382.902 300.1711 378.4509 295 377.4167 C286.9467 375.806 284.6325 376.4206 276 377.4167 C272.6623 377.8018 269 380.4167 269 380.4167 "/>
<path id="4" d="M223 67.4167 C223 67.4167 218 46.4167 218 46.4167 C218 46.4167 217.8238 50.0643 219 52.4167 C221.4428 57.3023 226 62.4167 226 62.4167 "/>
<path id="5" d="M228 43.4167 L228 63.4167 "/>
<path id="6" d="M229 43.4167 C229 43.4167 229.4189 47.1169 231 49.4167 C234.4703 54.4644 238.1786 54.9643 240 59.4167 C241.5975 63.3217 240 71.4167 240 71.4167 "/>
<path id="7" d="M221 59.4167 C221 59.4167 224.2221 67.6192 227 69.4167 C229.5944 71.0954 234.1024 68.9551 238 70.4167 C240.3557 71.3 242.3214 73.004 243 75.4167 C245.979 86.0087 246.3373 88.9971 247 102.4167 C248.3158 129.061 247 156.4167 247 156.4167 "/>
<path id="8" d="M259 71.4167 C259 71.4167 257.7253 48.7148 260 34.4167 C260.4869 31.3559 264.3369 28.1726 266 27.4167 C266.741 27.0799 269.5714 27.9881 271 29.4167 C273.6531 32.0698 275.1571 33.708 276 37.4167 C277.2916 43.0996 276.6277 46.3953 276 51.4167 C275.8991 52.2237 273.9992 53.417 274 53.4167 C274.0034 53.4154 284 48.4167 284 48.4167 "/>
<path id="9" d="M277 52.4167 C277 52.4167 299.0495 37.6543 300 37.4167 C300.0444 37.4056 301.9996 45.1315 301 46.4167 C298.4875 49.647 286 55.4167 286 55.4167 C286 55.4167 287.6784 53.5316 289 53.4167 C297.328 52.6925 300.4967 52.3963 309 53.4167 C311.2789 53.6901 313.4867 55.0234 314 56.4167 C315.7742 61.2324 316.5502 66.364 316 72.4167 C315.7786 74.8517 314.1684 76.4892 312 78.4167 C310.4254 79.8164 309.3787 80.2468 307 80.4167 C296.3621 81.1765 292.577 82.7992 284 80.4167 C278.1163 78.7823 271.2132 70.3839 271 70.4167 C270.9657 70.422 272.3331 78.1952 271 82.4167 C270.0119 85.5458 267.0985 88.7995 265 89.4167 C262.2887 90.2141 257.6757 89.4587 254 87.4167 C250.5267 85.487 249.5788 83.6366 247 79.4167 C244.3862 75.1395 243.8373 73.8825 243 69.4167 C242.5473 67.002 243.4304 64.1001 244 63.4167 C244.2778 63.0833 247.8049 63.6606 248 63.4167 C248.3049 63.0356 248.704 60.4112 248 58.4167 C246.0123 52.7849 243.4864 52.1144 242 46.4167 C240.7947 41.7964 241.9856 35.4158 242 35.4167 C242.3952 35.4399 254.7983 42.7207 259 47.4167 C260.0809 48.6247 259 54.4167 259 54.4167 "/>
<path id="10" d="M262 88.4167 C262 88.4167 266.1617 113.6084 264 124.4167 C263.3199 127.817 257.243 128.6079 253 133.4167 C250.3848 136.3805 249.3933 137.6803 249 141.4167 C247.5989 154.7274 249 171.4167 249 171.4167 "/>
<path id="11" d="M210 218.4167 C210 218.4167 208.4125 236.2046 213 249.4167 C219.9638 269.4724 223.0622 270.7192 235 290.4167 C242.8898 303.4348 248.5506 303.3396 253 315.4167 C257.6567 328.0564 258.0772 334.0303 256 347.4167 C254.1647 359.2441 249.2201 363.3493 244 373.4167 C243.67 374.0531 242.0851 374.4734 242 374.4167 C241.8086 374.2891 241 371.4167 241 371.4167 "/>
<path id="12" d="M313 215.4167 C313 215.4167 325.1093 227.4329 332 239.4167 C335.6106 245.6959 335.0147 247.5343 336 255.4167 C336.9554 263.0602 337.28 264.2488 336 271.4167 C334.9686 277.1926 334.4679 278.53 331 283.4167 C324.0713 293.1798 323.459 294.8124 314 302.4167 C298.8518 314.5946 295.9904 312.7873 280 324.4167 C274.476 328.4341 272.8274 329.0944 270 334.4167 C265.251 343.3559 265.2997 345.4293 263 356.4167 C260.9009 366.4457 261 377.4167 261 377.4167 "/>
<path id="13" d="M296 81.4167 C296 81.4167 293.3305 59.4221 297 52.4167 C299.983 46.7219 318 39.4167 318 39.4167 "/>
<path id="14" d="M301 77.4167 C301 77.4167 312.5548 69.5097 316 62.4167 C319.242 55.7419 318 42.4167 318 42.4167 "/>
<path id="15" d="M316 44.4167 C316 44.4167 317.5737 48.1217 317 50.4167 C315.4534 56.603 314.7653 57.9619 311 64.4167 C294.0023 93.5555 290.5945 94.5108 275 122.4167 C272.7806 126.3882 273 132.4167 273 132.4167 "/>
</g>
</g>
</svg>
