<?xml version="1.0" encoding="utf-8"?>
<!DOCTYPE svg PUBLIC "-//W3C//DTD SVG 1.1//EN" "http://www.w3.org/Graphics/SVG/1.1/DTD/svg11.dtd">
<svg viewBox="0 0 800 800" preserveAspectRatio="xMinYMin meet" xmlns="http://www.w3.org/2000/svg" version="1.1">
<g fill="none" stroke="black" stroke-linecap="round" stroke-linejoin="round" stroke-width="1.6033">
<g transform="translate(142.7186,87.52) scale(1.8711) translate(-135,-61)">
<path id="0" d="M192 197 C192 197 204.67 204.8339 217 207 C239.8229 211.0094 243.9827 212.0549 266 210 C278.1716 208.864 279.9145 205.458 292 200 C294.6956 198.7826 296.3478 197.3045 297 196 C297.3512 195.2976 296.8051 192.4696 296 192 C289.0361 187.9377 284.0607 183.4838 273 182 C246.1295 178.3954 238.2374 176.2058 214 181 C199.261 183.9154 182.5317 198.3606 182 200 C181.7916 200.6425 194.8747 208.2027 202 218 C209.603 228.4541 210.4215 230.6801 214 244 C228.0142 296.1641 229.3694 298.7779 238 352 C241.0853 371.0263 235.7753 385.6226 238 392 C238.4579 393.3126 245.595 394.678 253 395 C279.4283 396.1491 280.2969 396.2716 307 395 C321.9293 394.2891 334.3512 393.9051 337 391 C339.6115 388.1358 339.2053 375.4642 338 361 C336.7712 346.2538 333.4376 345.8557 332 331 C330.4956 315.4548 329.2835 313.4881 332 299 C334.9075 283.4932 336.3779 281.4821 344 267 C350.8578 253.9701 357.9636 253.4366 362 242 C365.3473 232.516 364.8872 225.9941 362 216 C359.4731 207.253 355.7488 204.3916 349 197 C346.5286 194.2932 344.7168 193.3232 341 193 C324.0809 191.5288 303 193 303 193 "/>
<path id="1" d="M260 196 C260 196 258.8187 189.316 260 184 C261.6079 176.7643 262.6433 176.2728 266 169 C268.6011 163.3644 268.2661 162.5825 272 158 C278.8237 149.6255 279.4828 149.1724 288 142 C298.251 133.3676 298.5995 132.9958 310 126 C320.3012 119.6788 320.6968 118.6699 332 115 C358.3204 106.4544 360.3993 108.7756 387 101 C392.1595 99.4918 393.3801 99.2752 397 96 C402.8987 90.6631 408 82 408 82 "/>
<path id="2" d="M259 187 C259 187 246.4705 164.0618 231 145 C219.1148 130.3558 217.4088 130.6517 203 118 C197.1753 112.8856 196.7771 112.4979 190 109 C181.699 104.7156 180.8291 103.6426 172 102 C160.4797 99.8567 158.507 102.866 147 101 C141.1414 100.05 135 96 135 96 "/>
<path id="3" d="M266 190 C266 190 266.7663 186.4522 266 184 C264.5233 179.2745 263.7289 178.8608 261 174 C247.7556 150.4084 245.2399 150.7643 234 127 C228.2111 114.7606 229.0687 113.5024 226 100 C224.1413 91.8219 225.8274 91.0928 224 83 C222.4158 75.9842 222.0502 74.4904 219 69 C217.7678 66.782 214 65 214 65 "/>
<path id="4" d="M265 176 C265 176 263.2618 151.2789 267 130 C269.414 116.2587 270.9957 114.7351 278 102 C287.0716 85.5061 300 70 300 70 "/>
<path id="5" d="M266 134 C266 134 267.6727 129.3576 270 128 C277.6541 123.5351 286.5094 123.6569 290 120 C291.9269 117.9814 291.0306 106.0061 291 106 C290.7653 105.9531 275 117 275 117 "/>
<path id="6" d="M271 106 C271 106 307.6217 90.4698 312 88 C312.0219 87.9876 311.0722 84.8935 310 84 C309.0283 83.1903 307.9643 83.131 306 83 C300.6866 82.6458 299.8425 82.0315 295 83 C290.6858 83.8628 286 87 286 87 "/>
<path id="7" d="M286 87 C286 87 279.4009 74.1053 276 72 C274.2786 70.9343 265.8278 72.7583 265 74 C263.5218 76.2174 263.1595 84.1163 264 90 C264.2953 92.0672 265.7526 93.4441 268 95 C271.5449 97.4542 277 99 277 99 "/>
<path id="8" d="M273 110 C273 110 264.3804 105.1075 257 102 C255.8568 101.5187 254.2094 101.7383 254 102 C253.494 102.6325 252.8644 104.6954 253 107 C253.3325 112.6518 253.3297 117.6638 255 119 C258.0526 121.4421 273 123 273 123 "/>
<path id="9" d="M273 161 C273 161 275.9077 158.0756 279 157 C286.6944 154.3237 288.0995 153.2257 296 153 C304.2698 152.7637 313.2571 156.5681 314 156 C314.5314 155.5936 314.6426 144.6933 313 140 C312.3872 138.249 309.7641 136.691 307 136 C303.0513 135.0128 297 136 297 136 "/>
<path id="10" d="M322 118 C322 118 334.9589 120.6393 343 126 C349.5143 130.3429 354.1234 139.474 355 140 C355 140 357.5014 137.3268 358 135 C358.7952 131.2888 359.465 127.9277 358 126 C353.045 119.4802 339 110 339 110 "/>
<path id="11" d="M371 111 C371 111 385.4149 120.2381 398 125 C401.8966 126.4744 406.8153 125.8886 408 125 C409.0366 124.2225 410.2267 119.6275 410 116 C409.8164 113.0622 408.9475 110.3633 407 109 C401.6012 105.2208 390 102 390 102 "/>
<path id="12" d="M223 136 C223 136 213.0278 139.0307 208 143 C205.4732 144.9948 204.8943 147.1993 204 151 C203.0998 154.8257 203.2048 156.2888 204 160 C204.4986 162.3268 206.6017 164.9557 207 165 C207.6223 165.0691 211.2302 163.4581 213 161 C219.3051 152.2429 225 140 225 140 "/>
<path id="13" d="M203 120 C203 120 195.7674 122.6074 190 126 C187.7834 127.3039 186.7034 128.2414 186 130 C185.2463 131.8842 186 136 186 136 C187.052 136 198.343 133.5999 204 130 C206.3571 128.5 208 122 208 122 "/>
<path id="14" d="M172 100 C172 100 168.4696 99.7838 167 101 C156.1479 109.9811 143.1999 123.6002 143 124 C142.9714 124.0571 150.5675 126.1563 155 125 C159.8429 123.7366 161.2711 122.0533 166 118 C171.4044 113.3676 176 107 176 107 "/>
<path id="15" d="M178 102 C178 102 173.7145 96.3884 172 91 C170.4968 86.2757 170.7898 82.5228 171 80 C171.0225 79.7304 172.9742 78.9627 173 79 C175.5562 82.6923 189 106 189 106 "/>
<path id="16" d="M199 108 C199 108 197.9918 96.0825 198 96 C198.0012 95.9875 199.7033 96.9782 200 98 C203.5673 110.2875 207 127 207 127 "/>
<path id="17" d="M222 80 C222 80 232.941 61.0045 233 61 C233.0029 60.9998 235.6221 74.645 235 79 C234.8696 79.9131 230 82 230 82 "/>
<path id="18" d="M221 92 C221 92 221.2519 87.3384 220 84 C218.5239 80.0637 217.0704 77.5058 215 76 C213.8517 75.1649 209.6497 75.3503 209 76 C207.7007 77.2993 205.3295 83.1801 206 85 C207.1622 88.1544 211.2881 91.7605 216 95 C217.8673 96.2838 222 96 222 96 "/>
<path id="19" d="M233 116 L230 107 "/>
<path id="20" d="M233 105 C233 105 234.5828 112.7544 234 118 C233.7588 120.1706 231 123 231 123 "/>
<path id="21" d="M321 114 L328 101 "/>
<path id="22" d="M329 98 C329 98 332.4066 101.7365 333 105 C334.1518 111.335 333 120 333 120 "/>
<path id="23" d="M375 101 C375 101 374.1487 96.9795 375 94 C376.9111 87.3113 381 80 381 80 "/>
<path id="24" d="M387 76 L398 92 "/>
</g>
</g>
</svg>
