<?xml version="1.0" encoding="utf-8"?>
<!DOCTYPE svg PUBLIC "-//W3C//DTD SVG 1.1//EN" "http://www.w3.org/Graphics/SVG/1.1/DTD/svg11.dtd">
<svg viewBox="0 0 800 800" preserveAspectRatio="xMinYMin meet" xmlns="http://www.w3.org/2000/svg" version="1.1">
<g fill="none" stroke="black" stroke-linecap="round" stroke-linejoin="round" stroke-width="0.99366">
<g transform="translate(167.527,87.52) scale(3.0191) translate(-229,-91)">
<path id="0" d="M237 93 C237 93 286.2849 90.3327 335 91 C358.8944 91.3273 382.999 94.9999 383 95 C383.0001 95 379.9171 93.4875 379 94 C368.0263 100.1324 362.6851 103.1141 349 114 C341.2699 120.1489 341.4566 123.2608 335 129 C333.8452 130.0265 331.6685 129.1644 331 130 C329.0582 132.4273 327.6283 134.6021 327 139 C324.8151 154.294 326.915 157.4459 325 172 C324.6894 174.3604 321.6522 175.9217 322 177 C324.6046 185.0744 329.6511 189.9621 335 203 C337.4293 208.9215 335.1382 211.6231 338 216 C342.2375 222.4809 347.2259 221.8389 352 229 C359.268 239.902 360.6329 243.0621 364 255 C365.4573 260.1668 364.5761 262.7465 363 268 C361.9927 271.3575 360.7756 271.7862 358 275 C351.3564 282.6926 349.5328 285.3893 344 290 C343.1649 290.6959 341.1954 289.3169 340 290 C335.6453 292.4884 334.271 297.5119 330 298 C306.5205 300.6834 298.0297 301.1494 270 298 C255.9274 296.4188 251.461 294.3317 241 288 C235.9658 284.953 234.078 281.4073 232 275 C228.74 264.9484 229.3205 262.5369 229 251 C228.8411 245.2781 228.7467 244.0367 231 239 C236.716 226.2231 237.2495 224.5138 246 213 C255.7051 200.2302 258.6069 201.5328 269 189 C275.3029 181.3994 278.5262 179.6636 280 172 C282.6836 158.0451 280.7912 153.4787 279 137 C278.4166 131.6329 278.1095 129.8868 275 126 C267.3359 116.4198 265.5073 115.1724 255 107 C248.0511 101.5953 239 98 239 98 "/>
<path id="1" d="M276 145 L326 143 "/>
<path id="2" d="M273 194 L325 194 "/>
<path id="3" d="M293 149 C293 149 289 156.8217 289 160 C289 161.4447 292.4403 162.7613 293 165 C294.0261 169.1043 294.3192 172.7962 293 176 C291.9347 178.587 287.5826 179.0106 286 182 C284.0337 185.7141 284 193 284 193 "/>
<path id="4" d="M313 151 C313 151 309.2267 152.8533 308 155 C305.9044 158.6674 305.495 160.2974 305 165 C304.5732 169.0548 304.8139 171.1535 306 174 C306.5878 175.4107 309.8225 175.9349 310 177 C310.7181 181.3089 310.099 187.3294 309 192 C308.8048 192.8295 306 194 306 194 "/>
</g>
</g>
</svg>
