<?xml version="1.0" encoding="utf-8"?>
<!DOCTYPE svg PUBLIC "-//W3C//DTD SVG 1.1//EN" "http://www.w3.org/Graphics/SVG/1.1/DTD/svg11.dtd">
<svg viewBox="0 0 800 800" preserveAspectRatio="xMinYMin meet" xmlns="http://www.w3.org/2000/svg" version="1.1">
<g fill="none" stroke="black" stroke-linecap="round" stroke-linejoin="round" stroke-width="1.3729">
<g transform="translate(223.0008,87.52) scale(2.1852) translate(-207,-15.4167)">
<path id="0" d="M246 143.4167 C246 143.4167 253.9324 147.8936 255 151.4167 C257.5182 159.7267 258.4345 167.564 256 176.4167 C254.1981 182.9689 244 191.4167 244 191.4167 "/>
<path id="1" d="M307 144.4167 C307 144.4167 300.6274 148.4589 300 151.4167 C298.0775 160.4801 297.1137 168.3139 300 177.4167 C302.1227 184.1114 313 192.4167 313 192.4167 "/>
<path id="2" d="M246 191.4167 C246 191.4167 223.2594 205.5286 211 218.4167 C207.3797 222.2226 207.5828 225.5693 207 232.4167 C205.659 248.1738 203.5004 253.2847 207 265.4167 C209.4738 273.9925 214.4493 276.5064 222 284.4167 C223.9778 286.4887 225.8804 285.4898 228 287.4167 C230.7598 289.9256 230.1022 292.2007 233 294.4167 C237.6431 297.9673 239.395 299.9496 245 300.4167 C277.322 303.1102 286.1622 303.6194 317 301.4167 C322.3591 301.0339 324.9928 298.4238 329 294.4167 C332.1636 291.2531 330.7952 288.6411 334 284.4167 C341.411 274.6476 347.9374 273.884 351 265.4167 C354.4098 255.9895 349.6301 250.0879 351 237.4167 C351.4615 233.1481 354.1785 232.7295 355 228.4167 C356.0098 223.115 355 216.4167 355 216.4167 C355 216.4167 355.821 223.5855 355 227.4167 C354.7281 228.6854 352 230.4167 352 230.4167 "/>
<path id="3" d="M353 237.4167 C353 237.4167 354.0967 229.4166 352 224.4167 C348.4013 215.835 347.009 212.6246 340 206.4167 C331.3427 198.7488 317 193.4167 317 193.4167 "/>
<path id="4" d="M317 194.4167 L315 193.4167 "/>
<path id="5" d="M245 143.4167 C245 143.4167 306.5608 144.6187 308 144.4167 C308.1084 144.4015 305.2608 138.4267 302 135.4167 C299.7735 133.3615 298.3045 132.6527 295 132.4167 C278.9682 131.2715 273.617 129.4209 260 132.4167 C253.2226 133.9077 245 143.4167 245 143.4167 "/>
<path id="6" d="M358 218.4167 C358 218.4167 363.739 217.5945 366 218.4167 C367.259 218.8745 368.8276 220.6924 369 222.4167 C370.0426 232.8424 372.0948 239.545 369 248.4167 C366.3537 256.0029 354 265.4167 354 265.4167 "/>
<path id="7" d="M356 227.4167 C356 227.4167 358.5047 225.2329 359 223.4167 C359.7197 220.7779 359.5626 217.3169 359 216.4167 C358.6684 215.8862 354.2879 215.1768 354 215.4167 C353.5855 215.7621 353 221.4167 353 221.4167 "/>
<path id="8" d="M281 246.4167 C281 246.4167 287.4479 243.6646 288 241.4167 C292.4142 223.4447 293.5589 215.3564 295 189.4167 C298.0289 134.8964 297.4298 133.1397 297 79.4167 C296.9413 72.078 297.1795 70.2227 294 64.4167 C286.7495 51.1766 274 37.4167 274 37.4167 "/>
<path id="9" d="M273 39.4167 C273 39.4167 275 38.6018 275 38.4167 C275 36.9358 273.9822 31.2898 273 30.4167 C272.2454 29.7459 266.6596 30.0397 266 30.4167 C265.7846 30.5397 265.5142 33.9309 266 34.4167 C267.2144 35.6311 273 37.4167 273 37.4167 "/>
<path id="10" d="M274 37.4167 C274 37.4167 268.5874 23.9019 269 22.4167 C269.1751 21.7862 278.9116 19.3283 279 19.4167 C279.0884 19.5051 276 29.4167 276 29.4167 "/>
<path id="11" d="M271 29.4167 C271 29.4167 267.2318 22.6485 263 18.4167 C260.9955 16.4121 257.5193 15.2868 257 15.4167 C256.6785 15.497 254.5744 19.5124 255 20.4167 C256.7516 24.1388 265 32.4167 265 32.4167 "/>
<path id="12" d="M265 32.4167 C265 32.4167 258.3678 31.4544 255 32.4167 C253.268 32.9115 251.9869 34.4429 251 36.4167 C249.9309 38.5549 249.5949 41.6065 250 42.4167 C250.3314 43.0795 252.5862 43.9339 255 44.4167 C257.235 44.8637 258.8629 45.2506 260 44.4167 C264.1088 41.4035 270 33.4167 270 33.4167 "/>
<path id="13" d="M270 34.4167 C270 34.4167 266.6232 44.2142 267 47.4167 C267.1367 48.5785 270.0294 50.8792 272 51.4167 C273.8529 51.922 277.7569 50.9433 278 50.4167 C278.7738 48.7401 278 38.4167 278 38.4167 "/>
<path id="14" d="M298 78.4167 C298 78.4167 298.8774 74.1635 301 71.4167 C306.8811 63.8059 307.3431 61.7972 315 56.4167 C324.5879 49.6792 338 45.4167 338 45.4167 "/>
<path id="15" d="M335 46.4167 C335 46.4167 347.2422 47.6693 348 47.4167 C348.0399 47.4034 347.699 43.0158 347 42.4167 C346.0933 41.6395 341.3439 41.9899 341 41.4167 C340.3271 40.2951 340.2048 36.1278 341 32.4167 C341.4986 30.0898 342.2508 28.8161 344 27.4167 C346.349 25.5375 347.6498 25.3304 351 24.4167 C352.7141 23.9492 354.2265 23.8366 355 24.4167 C356.6436 25.6494 358.2619 27.6487 359 30.4167 C359.9401 33.9419 360.0517 37.7076 359 39.4167 C357.9573 41.1111 351 43.4167 351 43.4167 "/>
<path id="16" d="M351 44.4167 C351 44.4167 358.0737 43.3716 361 44.4167 C362.6931 45.0213 364.8785 48.2019 365 49.4167 C365.1057 50.4739 363.2529 53.8472 362 54.4167 C360.0991 55.2807 356.1043 55.6003 354 54.4167 C350.5641 52.484 346 45.4167 346 45.4167 "/>
<path id="17" d="M343 45.4167 C343 45.4167 342.4579 51.6752 344 54.4167 C345.8545 57.7136 348.497 59.5304 352 61.4167 C353.4882 62.218 356.4922 61.9245 357 61.4167 C357.914 60.5027 359 54.4167 359 54.4167 "/>
</g>
</g>
</svg>
