<?xml version="1.0" encoding="utf-8"?>
<!DOCTYPE svg PUBLIC "-//W3C//DTD SVG 1.1//EN" "http://www.w3.org/Graphics/SVG/1.1/DTD/svg11.dtd">
<svg viewBox="0 0 800 800" preserveAspectRatio="xMinYMin meet" xmlns="http://www.w3.org/2000/svg" version="1.1">
<g fill="none" stroke="black" stroke-linecap="round" stroke-linejoin="round" stroke-width="1.7665">
<g transform="translate(87.52,216.5878) scale(1.6983) translate(-85,-1.1333)">
<path id="0" d="M212 133.1333 C212 133.1333 211.9087 151.5731 214 161.1333 C214.3746 162.8458 217.1098 164.9233 219 165.1333 C223.4361 165.6262 230.0142 162.6038 232 163.1333 C232.5734 163.2862 232.7758 168.154 234 169.1333 C235.7283 170.516 238.5775 171.536 242 171.1333 C253.7712 169.7485 261.5472 169.368 268 165.1333 C271.415 162.8922 270.3614 156.8041 274 150.1333 C276.0456 146.3831 280.1445 145.1562 280 143.1333 C279.2163 132.1616 275.7626 113.0283 271 108.1333 C267.923 104.9708 254.0451 105.5055 244 106.1333 C242.0377 106.256 241.4358 109.4374 239 110.1333 C232.4291 112.0107 226.1622 109.4396 223 112.1333 C217.84 116.5289 212 133.1333 212 133.1333 "/>
<path id="1" d="M226 110.1333 L247 94.1333 "/>
<path id="2" d="M268 166.1333 C268 166.1333 272.4716 155.9707 278 151.1333 C282.602 147.1066 292 145.1333 292 145.1333 "/>
<path id="3" d="M249 93.1333 C249 93.1333 259.3851 97.0215 260 97.1333 C260.0191 97.1368 259.9412 95.148 260 95.1333 C260.9412 94.898 265.7825 94.4681 268 95.1333 C268.8038 95.3745 269.0075 97.6371 270 98.1333 C271.8432 99.0549 275.8343 98.6364 276 99.1333 C277.1228 102.5016 274.9041 112.0596 277 119.1333 C277.937 122.2958 281.5129 122.5409 284 126.1333 C285.5504 128.3728 286 132.1333 286 132.1333 "/>
<path id="4" d="M294 142.1333 L285 125.1333 "/>
<path id="5" d="M222 110.1333 C222 110.1333 220.7878 107.271 219 106.1333 C210.8232 100.9299 209.7079 100.365 200 96.1333 C190.42 91.9574 188.5189 94.1335 180 89.1333 C166.6648 81.3061 166.0197 76.3451 154 69.1333 C150.9634 67.3114 148.4304 69.785 145 68.1333 C136.3973 63.9913 136.3294 60.6843 127 56.1333 C116.4782 51.0007 114.7694 52.8449 104 48.1333 C99.2757 46.0665 99.3998 43.945 95 42.1333 C91.7735 40.8048 88.4955 42.1802 87 41.1333 C85.9342 40.3873 84.7692 37.557 85 35.1333 C85.6111 28.7164 89 20.1333 89 20.1333 "/>
<path id="6" d="M88 24.1333 C88 24.1333 93.2403 20.1806 95 16.1333 C97.5979 10.1581 97.6089 1.5245 98 1.1333 C98.0435 1.0899 101.4233 4.9796 105 6.1333 C115.6364 9.5644 121.46 8.5233 129 11.1333 C129.9918 11.4766 130.574 15.0116 131 15.1333 C131.6003 15.3049 134.5638 12.7144 136 13.1333 C143.0321 15.1844 145.6666 18.6765 155 22.1333 C158.4981 23.4289 160.0573 21.5569 163 23.1333 C172.4808 28.2123 172.6545 31.2974 183 37.1333 C191.7195 42.052 194.6049 40.5114 202 45.1333 C204.8887 46.9388 204.9661 50.5514 207 52.1333 C207.7789 52.7392 209.843 51.4392 211 52.1333 C215.7435 54.9794 216.279 58.2728 222 61.1333 C229.1974 64.732 233.908 61.7865 239 66.1333 C250.8774 76.2726 263 96.1333 263 96.1333 "/>
<path id="7" d="M289 141.1333 C289 141.1333 326.4641 149.3861 363 155.1333 C370.1919 156.2646 371.0181 153.9364 378 155.1333 C387.7879 156.8113 388.0705 159.9418 398 161.1333 C424.5299 164.3169 447.9703 160.2925 453 164.1333 C455.6146 166.1299 454.076 184.1247 453 203.1333 C452.6091 210.0397 451.1595 216.7241 450 217.1333 C445.5766 218.6945 431.9326 216.9808 419 215.1333 C417.1694 214.8718 416.5131 212.2174 415 212.1333 C409.9562 211.8531 406.0438 214.4135 401 214.1333 C399.4869 214.0493 398.7851 211.468 397 211.1333 C392.3051 210.253 388.4665 211.8761 385 211.1333 C384.2366 210.9697 383.8583 208.31 383 208.1333 C372.2369 205.9174 357.67 205.9524 351 204.1333 C350.5236 204.0034 350.8089 199.8411 350 199.1333 C348.6832 197.9812 346.5366 197.7038 343 197.1333 C315.8133 192.7484 314.5987 194.2184 288 189.1333 C281.4334 187.8779 280.1331 187.7265 275 184.1333 C266.227 177.9922 258 168.1333 258 168.1333 "/>
<path id="8" d="M220 136.1333 L198 136.1333 "/>
<path id="9" d="M256 161.1333 L257 179.1333 "/>
<path id="10" d="M238 135.1333 C238 135.1333 236.674 138.1775 237 140.1333 C237.5058 143.1682 239.296 147.0453 240 147.1333 C243.7245 147.5989 256.1765 146.2872 261 143.1333 C263.7574 141.3304 266.0964 130.5187 266 130.1333 C265.9918 130.1005 261.6516 131.4985 258 131.1333 C252.3146 130.5648 250.8519 127.9128 246 128.1333 C241.8359 128.3226 237.7664 130.5436 236 132.1333 C235.4155 132.6594 236 137.1333 236 137.1333 "/>
</g>
</g>
</svg>
