<?xml version="1.0" encoding="utf-8"?>
<!DOCTYPE svg PUBLIC "-//W3C//DTD SVG 1.1//EN" "http://www.w3.org/Graphics/SVG/1.1/DTD/svg11.dtd">
<svg viewBox="0 0 800 800" preserveAspectRatio="xMinYMin meet" xmlns="http://www.w3.org/2000/svg" version="1.1">
<g fill="none" stroke="black" stroke-linecap="round" stroke-linejoin="round" stroke-width="1.8433">
<g transform="translate(87.52,226.6712) scale(1.6275) translate(-105,-91.1333)">
<path id="0" d="M203 165.1333 C203 165.1333 205 169.2816 205 173.1333 C205 205.8734 201.4505 207.9734 203 241.1333 C203.8974 260.3374 206.8138 279.0532 210 280.1333 C227.5444 286.0806 314.996 287.7377 321 281.1333 C328.2769 273.1287 327.6811 166.9436 320 159.1333 C312.8144 151.827 202 160.1333 202 160.1333 "/>
<path id="1" d="M202 160.1333 C202 160.1333 210.3696 159.5452 215 156.1333 C227.3937 147.0012 228.4196 136.4165 240 132.1333 C256.7875 125.9242 264.5281 132.1425 288 129.1333 C302.9887 127.2117 303.1944 123.7278 318 122.1333 C334.8498 120.3187 337.9895 121.0075 353 122.1333 C355.2409 122.3014 357.8272 124.039 358 125.1333 C359.6031 135.2862 359 160.1333 359 160.1333 "/>
<path id="2" d="M352 188.1333 C352 188.1333 346.5382 189.4242 345 191.1333 C343.5445 192.7505 342.8217 197.9907 343 198.1333 C343.6339 198.6405 355 199.1333 355 199.1333 "/>
<path id="3" d="M353 188.1333 C353 188.1333 368.1302 189.2433 370 189.1333 C370.013 189.1326 370 187.1333 370 187.1333 C370 187.1335 368.9873 200.7512 368 202.1333 C367.7167 202.53 360 201.1333 360 201.1333 "/>
<path id="4" d="M369 201.1333 C369 201.1333 367.4561 219.3574 363 236.1333 C359.1128 250.7675 355.395 250.7701 352 265.1333 C349.1559 277.1661 348.1472 289.4756 350 291.1333 C354.1091 294.8099 370.001 297.1022 390 299.1333 C433.3707 303.5382 473.1066 304.8998 478 304.1333 C478.1224 304.1142 473.3291 294.8862 473 286.1333 C470.9194 230.7901 469.6835 227.5145 473 171.1333 C474.6031 143.88 476.7741 142.2043 483 116.1333 C484.4573 110.0309 489.0926 104.1669 489 104.1333 C484.5336 102.5151 450.5112 95.2315 414 91.1333 C403.1241 89.9126 393.6996 89.9069 391 93.1333 C383.1137 102.5584 379.5276 116.6934 373 140.1333 C368.8442 155.0564 369.8958 156.3075 369 172.1333 C368.4178 182.4182 370 193.1333 370 193.1333 "/>
<path id="5" d="M360 158.1333 L359 188.1333 "/>
<path id="6" d="M359 200.1333 C359 200.1333 365.2314 225.578 360 238.1333 C351.5092 258.5114 336.666 269.9227 324 284.1333 C323.2771 284.9443 319 284.1333 319 284.1333 "/>
<path id="7" d="M379 125.1333 C379 125.1333 391.1835 124.6864 403 126.1333 C439.9092 130.6528 477 137.1333 477 137.1333 "/>
<path id="8" d="M371 158.1333 C371 158.1333 387.3345 157.9643 403 160.1333 C419.4868 162.4161 419.4763 164.7728 436 167.1333 C454.19 169.7319 473 170.1333 473 170.1333 "/>
<path id="9" d="M370 202.1333 C370 202.1333 394.9491 200.7754 419 203.1333 C445.3945 205.721 472 212.1333 472 212.1333 "/>
<path id="10" d="M365 232.1333 C365 232.1333 386.5589 231.449 408 232.1333 C433.4779 232.9465 433.9395 232.7839 459 235.1333 C465.4904 235.7418 472 238.1333 472 238.1333 "/>
<path id="11" d="M353 260.1333 C353 260.1333 387.256 259.1649 421 261.1333 C446.9556 262.6474 473 267.1333 473 267.1333 "/>
<path id="12" d="M439 94.1333 C439 94.1333 434.8268 100.7552 434 107.1333 C431.5005 126.4149 434.9023 128.0812 432 148.1333 C423.9942 203.4459 419.9531 203.8235 412 259.1333 C409.0466 279.6725 410 301.1333 410 301.1333 "/>
<path id="13" d="M225 143.1333 C225 143.1333 235.3403 95.9816 234 95.1333 C228.4041 91.5916 156.3148 91.844 146 93.1333 C145.809 93.1572 146.8725 99.8807 146 106.1333 C143.9304 120.9652 144.1047 121.767 140 136.1333 C137.2451 145.7756 135.0487 145.4493 132 155.1333 C126.6399 172.1596 126.2837 172.5048 123 190.1333 C116.8345 223.2321 119.4668 224.4399 113 257.1333 C110.6016 269.2586 104.3209 280.43 105 281.1333 C106.6588 282.8514 123.0924 285.2555 141 286.1333 C173.6086 287.7318 198.767 286.5076 207 286.1333 C207.017 286.1326 207 283.1333 207 283.1333 "/>
<path id="14" d="M191 93.1333 C191 93.1333 186.5991 129.498 180 165.1333 C176.6427 183.263 174.2916 183.0296 171 201.1333 C166.3409 226.7584 168.6777 227.5622 164 253.1333 C161.2377 268.2337 156 283.1333 156 283.1333 "/>
<path id="15" d="M142 127.1333 L225 128.1333 "/>
<path id="16" d="M133 157.1333 L205 160.1333 "/>
<path id="17" d="M123 195.1333 C123 195.1333 129.1137 193.1333 135 193.1333 C167.3747 193.1333 201 195.1333 201 195.1333 "/>
<path id="18" d="M118 228.1333 L200 228.1333 "/>
<path id="19" d="M113 260.1333 L201 262.1333 "/>
<path id="20" d="M259 193.1333 C259 193.1333 247.7762 192.1503 245 194.1333 C241.7925 196.4244 240.0156 201.5106 238 208.1333 C236.8754 211.8285 236.8854 213.6037 238 217.1333 C239.4731 221.7982 240.4081 224.3223 244 227.1333 C250.043 231.8626 252.9133 232.8228 261 235.1333 C265.6124 236.4512 268.7962 236.4526 272 235.1333 C274.587 234.0681 275.9448 231.8326 278 228.1333 C280.6297 223.3998 281.1789 222.4703 282 217.1333 C283.0603 210.2412 283.4731 207.5347 282 202.1333 C281.1519 199.0235 278.8311 196.195 276 195.1333 C269.8455 192.8254 258 193.1333 258 193.1333 "/>
<path id="21" d="M318 160.1333 C318 160.1333 333.3131 150.7057 346 140.1333 C350.6392 136.2673 354 130.1333 354 130.1333 "/>
</g>
</g>
</svg>
