<?xml version="1.0" encoding="utf-8"?>
<!DOCTYPE svg PUBLIC "-//W3C//DTD SVG 1.1//EN" "http://www.w3.org/Graphics/SVG/1.1/DTD/svg11.dtd">
<svg viewBox="0 0 800 800" preserveAspectRatio="xMinYMin meet" xmlns="http://www.w3.org/2000/svg" version="1.1">
<g fill="none" stroke="black" stroke-linecap="round" stroke-linejoin="round" stroke-width="2.5442">
<g transform="translate(87.52,315.6894) scale(1.1792) translate(-39,-126)">
<path id="0" d="M248 137 C248 137 249.8823 140.5873 250 144 C251.8157 196.655 252 253 252 253 "/>
<path id="1" d="M250 140 C250 140 265.5692 136.6935 281 136 C309.7041 134.7099 310.7883 137.192 339 136 C345.385 135.7302 351.6841 132.5118 352 133 C354.4995 136.8628 359.7807 151.8631 361 170 C363.6565 209.5161 365.3207 247.9735 360 252 C350.5901 259.121 250 254 250 254 "/>
<path id="2" d="M365 190 C365 190 371.3166 190.888 377 190 C386.8424 188.4621 397 185 397 185 "/>
<path id="3" d="M250 197 L218 197 "/>
<path id="4" d="M396 162 C396 162 401.431 174.6437 403 187 C405.3108 205.1973 404 225 404 225 "/>
<path id="5" d="M398 152 L401 234 "/>
<path id="6" d="M396 152 C396 152 403.6877 148.2176 411 148 C485.0128 145.7972 545.4806 139.2641 564 147 C568.0038 148.6725 566.8009 180.5735 569 214 C569.294 218.4682 569.4531 220.7344 569 223 C568.9295 223.3524 568.0044 223.8347 567 224 C530.3536 230.0304 528.0215 228.9176 490 236 C477.3779 238.3512 477.2986 241.8819 465 243 C434.7333 245.7515 407.3025 247.4508 402 244 C399.6754 242.4872 402 202 402 202 "/>
<path id="7" d="M210 158 C210 158 214.9354 238.0441 211 240 C194.3202 248.29 59.9456 248.9685 43 241 C39.1948 239.2107 39.0533 167.3311 43 161 C44.3282 158.8694 67.0279 163.5819 91 164 C152.8605 165.079 215 164 215 164 "/>
<path id="8" d="M210 201 L225 197 "/>
<path id="9" d="M283 137 C283 137 280.9583 126.0096 281 126 C285.0037 125.0825 324.9904 124.7981 331 126 C331.2404 126.0481 331.4608 133.4657 331 136 C330.9372 136.3456 329 137 329 137 "/>
<path id="10" d="M277 257 C277 257 276.6926 267.9304 277 268 C283.5699 269.4875 308.8475 269.7422 330 269 C331.6395 268.9425 333.6498 267.2257 334 266 C334.9298 262.7457 334 255 334 255 "/>
<path id="11" d="M323 178 C323 178 301.1277 173.9757 293 177 C287.6985 178.9726 282.2366 186.8835 280 194 C278.1574 199.8629 279.7437 204.9491 282 212 C283.0797 215.3742 284.652 216.7093 288 219 C293.3078 222.6316 294.8098 223.2314 301 225 C304.3656 225.9616 307.1711 226.2803 309 225 C313.9838 221.5113 318.4033 217.6772 321 211 C324.1686 202.8522 324.0931 197.7446 323 189 C322.4597 184.678 320.1344 182.7613 317 179 C315.8855 177.6627 313 177 313 177 "/>
<path id="12" d="M402 179 C402 179 418.0082 175.2069 434 174 C470.6619 171.2331 471.969 174.5325 508 171 C521.9122 169.6361 522.2058 165.694 536 164 C549.8612 162.2977 565 164 565 164 "/>
<path id="13" d="M401 213 C401 213 443.7955 214.6244 484 213 C491.8286 212.6837 492.1179 209.9273 500 209 C508.6141 207.9866 509.1742 209.8954 518 209 C543.3545 206.4278 569 202 569 202 "/>
<path id="14" d="M417 151 C417 151 415.2765 159.5243 416 167 C416.7 174.233 418.9261 174.4829 420 182 C422.3743 198.6203 422.2288 199.0329 423 216 C423.723 231.9053 423 248 423 248 "/>
<path id="15" d="M443 150 C443 150 443.2827 169.658 446 188 C447.1833 195.9871 450.2278 196.1495 451 204 C453.1116 225.4678 452 249 452 249 "/>
<path id="16" d="M472 147 L481 236 "/>
<path id="17" d="M502 147 L516 238 "/>
<path id="18" d="M533 143 L544 227 "/>
<path id="19" d="M39 182 C39 182 95.5586 186.7423 152 189 C182.8913 190.2357 214 189 214 189 "/>
<path id="20" d="M39 218 C39 218 99.3261 220.3562 159 219 C186.9096 218.3657 215 214 215 214 "/>
<path id="21" d="M68 164 C68 164 68.867 187.0895 67 208 C66.4767 213.8607 63.4301 214.2648 63 220 C62.0235 233.0207 64 248 64 248 "/>
<path id="22" d="M92 167 L91 250 "/>
<path id="23" d="M119 167 C119 167 118.118 175.7091 119 184 C120.5841 198.8904 123.1649 199.1761 124 214 C125.1292 234.0432 123 255 123 255 "/>
<path id="24" d="M155 165 L155 247 "/>
<path id="25" d="M183 166 L183 246 "/>
</g>
</g>
</svg>
