<?xml version="1.0" encoding="utf-8"?>
<!DOCTYPE svg PUBLIC "-//W3C//DTD SVG 1.1//EN" "http://www.w3.org/Graphics/SVG/1.1/DTD/svg11.dtd">
<svg viewBox="0 0 800 800" preserveAspectRatio="xMinYMin meet" xmlns="http://www.w3.org/2000/svg" version="1.1">
<g fill="none" stroke="black" stroke-linecap="round" stroke-linejoin="round" stroke-width="2.3425">
<g transform="translate(87.52,353.2561) scale(1.2807) translate(-44,-186.1333)">
<path id="0" d="M240 186.1333 L240 257.1333 "/>
<path id="1" d="M242 187.1333 L330 186.1333 "/>
<path id="2" d="M330 186.1333 C330 186.1333 331.2535 238.1376 331 256.1333 C330.9963 256.3977 329 257.1333 329 257.1333 "/>
<path id="3" d="M239 259.1333 C239 259.1333 243.6865 256.2725 248 256.1333 C287.8309 254.8485 332 256.1333 332 256.1333 "/>
<path id="4" d="M277 230.1333 C277 230.1333 272.0969 227.4839 271 225.1333 C269.528 221.9791 269.4753 219.0685 270 215.1333 C270.2872 212.9797 271.2385 211.3528 273 210.1333 C276.4811 207.7234 278.7052 206.5854 283 206.1333 C286.6224 205.752 290.3122 206.5862 292 208.1333 C293.7527 209.74 294.5965 212.8967 295 217.1333 C295.5173 222.5649 295.0346 228.3861 294 229.1333 C292.1032 230.5032 277 230.1333 277 230.1333 "/>
<path id="5" d="M333 214.1333 L349 214.1333 "/>
<path id="6" d="M333 225.1333 L350 224.1333 "/>
<path id="7" d="M240 216.1333 L224 217.1333 "/>
<path id="8" d="M240 225.1333 L225 225.1333 "/>
<path id="9" d="M224 205.1333 L223 239.1333 "/>
<path id="10" d="M349 205.1333 L351 238.1333 "/>
<path id="11" d="M350 207.1333 C350 207.1333 349.9658 201.1349 350 201.1333 C372.8436 200.1124 505.1105 195.0418 529 199.1333 C530.0232 199.3086 531 232.1333 531 232.1333 "/>
<path id="12" d="M352 241.1333 C352 241.1333 404.6004 242.2978 457 241.1333 C494.4727 240.3006 532 237.1333 532 237.1333 "/>
<path id="13" d="M532 237.1333 L531 233.1333 "/>
<path id="14" d="M224 207.1333 C224 207.1333 132.1217 207.4913 52 206.1333 C49.6553 206.0936 47 204.1333 47 204.1333 "/>
<path id="15" d="M45 205.1333 L44 248.1333 "/>
<path id="16" d="M44 247.1333 L226 246.1333 "/>
<path id="17" d="M224 239.1333 L225 246.1333 "/>
<path id="18" d="M46 226.1333 L221 226.1333 "/>
<path id="19" d="M61 208.1333 L60 246.1333 "/>
<path id="20" d="M81 209.1333 L81 248.1333 "/>
<path id="21" d="M101 207.1333 L101 246.1333 "/>
<path id="22" d="M120 209.1333 C120 209.1333 121.9856 209.8461 122 210.1333 C122.5092 220.3182 122 249.1333 122 249.1333 "/>
<path id="23" d="M140 208.1333 L139 247.1333 "/>
<path id="24" d="M158 209.1333 C158 209.1333 156.0209 210.4035 156 211.1333 C155.6658 222.8305 157 244.1333 157 244.1333 "/>
<path id="25" d="M171 210.1333 L172 248.1333 "/>
<path id="26" d="M194 212.1333 L195 243.1333 "/>
<path id="27" d="M354 221.1333 C354 221.1333 360.124 218.3003 366 218.1333 C445.7665 215.8672 530 216.1333 530 216.1333 "/>
<path id="28" d="M365 203.1333 L366 241.1333 "/>
<path id="29" d="M385 201.1333 L387 242.1333 "/>
<path id="30" d="M404 202.1333 L406 239.1333 "/>
<path id="31" d="M429 198.1333 C429 198.1333 428.9413 223.3119 430 238.1333 C430.0566 238.9259 432 240.1333 432 240.1333 "/>
<path id="32" d="M453 200.1333 L459 239.1333 "/>
<path id="33" d="M472 198.1333 C472 198.1333 476.5765 210.7129 479 223.1333 C480.4886 230.7625 480 239.1333 480 239.1333 "/>
<path id="34" d="M496 198.1333 C496 198.1333 495.1203 210.404 496 222.1333 C496.5947 230.0629 499 238.1333 499 238.1333 "/>
<path id="35" d="M511 198.1333 L514 238.1333 "/>
</g>
</g>
</svg>
