<?xml version="1.0" encoding="utf-8"?>
<!DOCTYPE svg PUBLIC "-//W3C//DTD SVG 1.1//EN" "http://www.w3.org/Graphics/SVG/1.1/DTD/svg11.dtd">
<svg viewBox="0 0 800 800" preserveAspectRatio="xMinYMin meet" xmlns="http://www.w3.org/2000/svg" version="1.1">
<g fill="none" stroke="black" stroke-linecap="round" stroke-linejoin="round" stroke-width="1.6465">
<g transform="translate(176.8,87.52) scale(1.822) translate(-142,-80)">
<path id="0" d="M279 158 C279 158 276.2409 155.1681 274 155 C258.9895 153.8742 255.3059 152.3558 239 155 C219.924 158.0934 217.804 159.0281 200 167 C185.5317 173.4784 184.859 175.1315 172 185 C163.8469 191.257 162.85 191.9563 157 200 C151.4579 207.6204 151.0567 208.83 148 218 C143.7789 230.6633 141.7419 234.4173 142 245 C142.1362 250.5845 144.7784 253.1953 149 259 C152.2165 263.4226 153.1587 264.3289 158 267 C166.8114 271.8615 168.2529 273.7175 178 275 C204.0491 278.4275 207.5124 279.5968 234 277 C256.3925 274.8047 258.2576 272.9545 280 265 C298.3747 258.2775 302.2664 258.129 316 247 C328.3528 236.99 332.1955 231.9309 338 218 C342.9047 206.2287 343.2548 199.1758 341 187 C339.1183 176.8387 335.2008 174.1465 328 164 C324.7852 159.4701 323.8748 158.9249 319 156 C309.4623 150.2774 308.1885 148.4364 298 146 C287.0066 143.3712 285.2327 144.4563 273 145 C263.131 145.4386 262.7462 145.7509 253 148 C236.9496 151.7039 236.4286 151.7403 221 157 C214.8206 159.1066 209 163 209 163 "/>
<path id="1" d="M143 239 C143 239 149.6733 260.9403 158 281 C160.4009 286.784 160.9268 287.2837 165 292 C170.1051 297.9111 170.5013 298.848 177 303 C187.8154 309.9098 188.7303 309.8546 201 315 C219.5409 322.7752 219.7977 322.8278 239 329 C261.6716 336.2873 261.9556 335.9556 285 342 C292.3629 343.9312 298.7776 344.9185 300 345 C300.0107 345.0007 300 343 300 343 "/>
<path id="2" d="M328 165 C328 165 338.5424 175.8926 350 185 C357.7831 191.1866 360.3602 189.9376 367 196 C370.7149 199.3918 371.4045 200.8145 373 206 C380.988 231.961 384.6477 234.2692 387 261 C389.9172 294.1501 384 331 384 331 "/>
<path id="3" d="M314 418 C314 418 308.5607 393.3269 306 369 C304.6128 355.8218 303.8962 354.0969 306 342 C307.5889 332.864 308.8696 331.062 314 323 C318.7432 315.5464 320.0217 314.9047 327 309 C332.5524 304.3018 333.4501 304.2749 340 301 C343.0823 299.4589 343.5833 299.2356 347 299 C357.5307 298.2737 361.0412 298.3368 369 299 C369.7838 299.0653 370.5756 299.9087 371 301 C376.9073 316.1903 381.216 318.6198 383 335 C386.3799 366.0333 384.2329 384.3846 382 402 C381.8332 403.3158 377.8373 405.5907 374 406 C343.2957 409.2751 307 410 307 410 "/>
<path id="4" d="M281 342 C281 342 274.4804 345.9352 270 351 C263.3944 358.4671 260.4849 359.4803 258 368 C251.0149 391.9488 247.0999 421.2899 249 423 C252.195 425.8755 285.7814 423.3062 318 422 C320.3711 421.9039 322.6216 420.8325 323 420 C323.797 418.2465 323 411 323 411 "/>
<path id="5" d="M234 209 L229 276 "/>
<path id="6" d="M234 211 C234 211 242.6251 205.9445 245 207 C256.5026 212.1123 261.667 220.1244 279 231 C286.7798 235.8814 288.6108 234.2709 296 239 C300.3828 241.805 299.9472 244.2981 304 247 C306.533 248.6887 311 249 311 249 "/>
<path id="7" d="M242 197 C242 197 234.6956 190.1642 229 187 C227.4653 186.1474 225.4571 186.2714 224 187 C221.8143 188.0928 219.7583 189.6166 219 192 C216.9708 198.3776 215.5608 205.0023 217 209 C218.0573 211.9369 223.0295 214.7909 228 217 C230.3904 218.0624 232.4472 217.9117 235 217 C238.204 215.8557 239.2419 214.9305 242 212 C246.8721 206.8234 248.0151 205.9699 251 200 C252.99 196.0201 253.4545 190.3939 253 190 C251.6637 188.8419 243.2078 186.5195 236 187 C230.2795 187.3814 223 192 223 192 "/>
<path id="8" d="M155 80 C155 80 159.0689 81.6826 161 84 C163.4318 86.9181 165 92 165 92 "/>
<path id="9" d="M173 108 L185 118 "/>
<path id="10" d="M191 129 L201 141 "/>
<path id="11" d="M198 153 L211 169 "/>
<path id="12" d="M214 179 L223 190 "/>
</g>
</g>
</svg>
