<?xml version="1.0" encoding="utf-8"?>
<!DOCTYPE svg PUBLIC "-//W3C//DTD SVG 1.1//EN" "http://www.w3.org/Graphics/SVG/1.1/DTD/svg11.dtd">
<svg viewBox="0 0 800 800" preserveAspectRatio="xMinYMin meet" xmlns="http://www.w3.org/2000/svg" version="1.1">
<g fill="none" stroke="black" stroke-linecap="round" stroke-linejoin="round" stroke-width="1.7473">
<g transform="translate(87.52,185.3846) scale(1.7169) translate(-41,-137)">
<path id="0" d="M170 239 C170 239 176.7655 256.9329 181 275 C184.1763 288.5521 185 303 185 303 "/>
<path id="1" d="M172 237 C172 237 163.0829 243.0641 154 247 C148.5909 249.3439 147.2093 247.6124 142 250 C135.8982 252.7967 136.372 255.161 130 258 C86.8149 277.2409 41 295 41 295 "/>
<path id="2" d="M42 296 C42 296 40.8221 328.5899 42 360 C42.2965 367.9077 45 376 45 376 "/>
<path id="3" d="M45 376 C45 376 96.5486 357.4043 146 336 C163.0494 328.6204 163.3538 327.5404 179 318 C183.365 315.3384 187 311 187 311 "/>
<path id="4" d="M186 301 L190 315 "/>
<path id="5" d="M237 209 C237 209 238.9598 208.8795 239 209 C241.3702 216.1106 245.5947 226.9094 249 245 C253.5062 268.9391 255 294 255 294 "/>
<path id="6" d="M240 209 C240 209 254.0855 202.274 268 199 C278.7594 196.4684 280.4716 199.7374 291 197 C304.3665 193.5247 304.2376 190.3983 318 186 C352.4524 174.9894 388 166 388 166 "/>
<path id="7" d="M257 294 C257 294 263.5714 290.3775 270 289 C276.9507 287.5106 278.3963 289.7121 285 288 C290.8664 286.4791 290.8109 284.1472 297 282 C314.9395 275.7761 315.3436 275.3387 334 271 C358.0965 265.3962 362.0184 269.3879 383 262 C394.1139 258.0866 405 246 405 246 "/>
<path id="8" d="M391 164 L404 248 "/>
<path id="9" d="M162 197 C162 197 170.48 214.1936 176 232 C185.8599 263.8061 193 297 193 297 "/>
<path id="10" d="M219 165 C219 165 217.5705 172.5674 219 179 C225.2851 207.2828 226.1797 208.4224 235 237 C238.6125 248.7046 241.1672 248.451 244 260 C247.4816 274.1942 248 290 248 290 "/>
<path id="11" d="M164 200 C164 200 161.6179 186.1045 164 181 C166.1982 176.2895 170.8205 173.9886 178 170 C183.4342 166.981 184.5359 167.1145 191 166 C198.6365 164.6834 199.2662 165 207 165 C209.4168 165 210.5207 164.8905 212 166 C215.3446 168.5084 219 174 219 174 "/>
<path id="12" d="M193 298 C193 298 193.8501 305.4703 195 308 C195.2491 308.5481 196.8917 309.254 198 309 C217.0988 304.6232 221.1236 303.4342 243 297 C246.1025 296.0875 248.3096 295.2657 249 294 C249.8805 292.3858 249 286 249 286 "/>
<path id="13" d="M196 276 C196 276 195.6009 288.8442 197 295 C197.2844 296.2515 201 298 201 298 "/>
<path id="14" d="M198 276 C198 276 208.8144 275.9646 217 274 C219.9246 273.2981 220.0126 270.8962 223 270 C229.0579 268.1826 235.7098 267.0682 237 268 C238.5243 269.1009 239.374 275.6829 241 283 C241.307 284.3816 241.2038 285.9242 241 286 C232.2677 289.2492 198 299 198 299 "/>
<path id="15" d="M173 205 L189 257 "/>
<path id="16" d="M190 256 L231 248 "/>
<path id="17" d="M231 251 C231 251 229.9426 238.8277 227 230 C225.9899 226.9696 222.8956 226.9852 222 224 C218.9909 213.9696 220.9954 211.3824 218 200 C216.1373 192.9219 212 186 212 186 "/>
<path id="18" d="M174 207 C174 207 176.3335 200.5293 180 196 C184.3712 190.6003 185.6383 188.5736 191 186 C196.0766 183.5632 198.9025 184 205 184 C207.1777 184 210 186 210 186 "/>
<path id="19" d="M239 241 L251 231 "/>
<path id="20" d="M241 245 C241 245 240.9265 248.9265 242 250 C245.2204 253.2204 253 257 253 257 "/>
<path id="21" d="M184 261 L177 260 "/>
<path id="22" d="M185 267 L182 272 "/>
<path id="23" d="M223 311 C223 311 216.2146 315.5371 211 321 C205.9953 326.243 204.4691 326.9223 202 333 C198.5896 341.3948 198.9904 343.0962 198 353 C197.029 362.7097 198 373 198 373 "/>
<path id="24" d="M221 313 C221 313 232.3833 310.3843 240 312 C246.3636 313.3499 247.3547 315.6805 254 320 C257.2015 322.081 258.1836 322.1151 260 325 C265.9858 334.5069 271 347 271 347 "/>
<path id="25" d="M199 373 C199 373 220.9584 374.409 241 374 C244.3614 373.9314 245.1937 373.6838 248 372 C254.5024 368.0986 255.905 367.5802 261 362 C265.7303 356.8192 266.1458 355.3427 269 349 C270.281 346.1534 270 342 270 342 "/>
<path id="26" d="M201 371 C201 371 206.274 367.045 212 365 C240.6613 354.7638 271 346 271 346 "/>
<path id="27" d="M214 317 C214 317 213.6961 311.6951 215 310 C217.1689 307.1805 221.0767 304.5481 224 304 C225.8586 303.6515 229.0329 305.2515 231 307 C232.3114 308.1657 233 312 233 312 "/>
<path id="28" d="M228 362 C228 362 231.0861 362.6596 232 364 C237.3166 371.7977 243 384 243 384 "/>
<path id="29" d="M240 357 L240 387 "/>
<path id="30" d="M199 137 C199 137 204.8526 138.8401 209 142 C214.8207 146.4348 220 153 220 153 "/>
<path id="31" d="M198 139 C198 139 198.8823 144.2351 201 148 C203.0558 151.6548 204.0817 153.6868 207 155 C211.7522 157.1385 221 157 221 157 "/>
<path id="32" d="M201 148 L203 153 "/>
<path id="33" d="M201 151 C201 151 197.784 161.406 198 162 C198.0555 162.1526 204.5625 162.4375 205 162 C205.4375 161.5625 205 155 205 155 "/>
<path id="34" d="M156 166 C156 166 158.9629 165.34 160 166 C162.9699 167.89 167 173 167 173 "/>
<path id="35" d="M168 166 L171 170 "/>
</g>
</g>
</svg>
