<?xml version="1.0" encoding="utf-8"?>
<!DOCTYPE svg PUBLIC "-//W3C//DTD SVG 1.1//EN" "http://www.w3.org/Graphics/SVG/1.1/DTD/svg11.dtd">
<svg viewBox="0 0 800 800" preserveAspectRatio="xMinYMin meet" xmlns="http://www.w3.org/2000/svg" version="1.1">
<g fill="none" stroke="black" stroke-linecap="round" stroke-linejoin="round" stroke-width="1.7233">
<g transform="translate(87.52,97.0946) scale(1.7408) translate(-110.5,-101.6667)">
<path id="0" d="M201.5 248.6667 C201.5 248.6667 187.0606 217.6405 181.5 188.6667 C178.1196 171.0532 180.7545 168.5179 182.5 149.6667 C183.1863 142.2548 183.6001 141.4332 186.5 134.6667 C189.3504 128.0158 189.8825 126.7973 194.5 121.6667 C198.1575 117.6028 199.3181 116.8875 204.5 114.6667 C212.5291 111.2256 213.8898 110.8147 222.5 109.6667 C227.9736 108.9368 229.7109 108.7852 234.5 110.6667 C242.2012 113.6921 244.3533 114.5199 250.5 120.6667 C263.7391 133.9058 266.3352 135.4521 275.5 151.6667 C284.8237 168.1624 285.7077 171.2472 289.5 189.6667 C292.2828 203.1831 291.9711 205.9634 289.5 219.6667 C286.7832 234.7327 285.0953 236.4868 278.5 250.6667 C275.5442 257.0216 274.5204 257.6463 269.5 262.6667 C264.9577 267.2089 264.2871 267.5802 258.5 270.6667 C249.6804 275.3705 249.1099 275.632 239.5 278.6667 C230.454 281.5233 229.7216 281.8021 220.5 282.6667 C214.3572 283.2426 211.6755 282.9715 207.5 281.6667 C206.167 281.2501 204.779 279.5083 204.5 277.6667 C202.6644 265.552 202.5 248.6667 202.5 248.6667 "/>
<path id="1" d="M204.5 166.6667 C204.5 166.6667 207.1203 180.2489 206.5 181.6667 C206.2832 182.1623 198.1808 183.3474 197.5 182.6667 C195.9682 181.1349 193.1532 169.1081 193.5 168.6667 C193.8765 168.1875 208.5 168.6667 208.5 168.6667 "/>
<path id="2" d="M243.5 174.6667 C243.5 174.6667 245.2581 170.1841 246.5 169.6667 C248.6987 168.7505 255.3709 169.4085 255.5 169.6667 C255.8012 170.2691 254.0036 178.4089 252.5 181.6667 C252.2321 182.2471 249.5 182.6667 249.5 182.6667 C249.2131 181.806 248.5 169.6667 248.5 169.6667 "/>
<path id="3" d="M224.5 194.6667 C224.5 194.6667 210.0576 213.8629 203.5 225.6667 C202.8169 226.8962 204.1252 230.5304 204.5 230.6667 C205.7816 231.1327 212.013 231.0878 214.5 229.6667 C216.3821 228.5912 218.1213 222.7011 218.5 222.6667 C219.0272 222.6187 222.8607 228.0802 225.5 228.6667 C228.8431 229.4096 235.4799 228.1239 236.5 226.6667 C238.6138 223.647 240.7365 213.4361 239.5 208.6667 C238.6677 205.4562 234.2905 202.8603 229.5 199.6667 C227.8034 198.5356 224.5 198.6667 224.5 198.6667 "/>
<path id="4" d="M178.5 180.6667 C178.5 180.6667 177.7272 176.1325 175.5 173.6667 C164.8153 161.8372 159.7805 161.7313 150.5 149.6667 C146.4542 144.4072 146.329 141.9622 145.5 134.6667 C143.9557 121.0767 144.441 117.3154 145.5 105.6667 C145.656 103.9504 147.231 102.1743 148.5 101.6667 C150.431 100.8943 153.2177 100.4833 155.5 101.6667 C164.3876 106.2751 166.7143 108.2867 175.5 115.6667 C178.5097 118.1948 179.0406 119.0181 180.5 122.6667 C183.7432 130.7746 185.5 140.6667 185.5 140.6667 "/>
<path id="5" d="M280.5 158.6667 C280.5 158.6667 284.4196 147.6179 290.5 139.6667 C296.7146 131.5399 298.1035 131.3838 306.5 124.6667 C312.8573 119.5808 314.1395 118.5289 320.5 115.6667 C322.6143 114.7152 324.945 114.8185 326.5 115.6667 C328.644 116.8361 330.5202 118.7272 331.5 121.6667 C333.5022 127.6734 335.1354 131.2573 333.5 136.6667 C329.8039 148.8924 326.6256 151.2282 318.5 164.6667 C313.7541 172.5156 313.7376 173.6601 307.5 179.6667 C300.9809 185.9443 291.5 190.6667 291.5 190.6667 "/>
<path id="6" d="M189.5 224.6667 C189.5 224.6667 179.592 232.871 171.5 241.6667 C168.4619 244.969 168.2686 245.4662 166.5 249.6667 C160.4388 264.0621 158.6168 264.7507 155.5 279.6667 C151.8691 297.0433 152.8306 298.4828 152.5 316.6667 C152.3397 325.482 152.6401 325.9396 154.5 334.6667 C159.0769 356.1428 157.9994 357.6652 165.5 377.6667 C171.0707 392.5219 172.6093 393.3307 181.5 406.6667 C186.2068 413.7269 186.9127 414.3145 193.5 419.6667 C202.423 426.9166 203.3648 426.4548 213.5 432.6667 C218.8189 435.9266 218.8017 436.6406 224.5 438.6667 C240.7947 444.4603 241.7044 445.8674 258.5 448.6667 C273.6474 451.1912 276.3894 451.6421 290.5 449.6667 C298.9681 448.4811 300.0824 446.3706 308.5 441.6667 C316.7964 437.0304 318.1218 437.2005 324.5 430.6667 C337.7756 417.0673 338.7871 415.8667 349.5 399.6667 C358.8716 385.495 359.0585 384.3104 365.5 368.6667 C369.2802 359.4861 369.1013 358.6572 370.5 348.6667 C372.546 334.0525 373.825 332.8004 372.5 318.6667 C370.9555 302.1921 370.5926 300.0201 364.5 284.6667 C358.6415 269.9033 357.6246 268.0642 347.5 255.6667 C334.011 239.1495 332.0239 239.1672 315.5 224.6667 C307.8162 217.9237 306.1336 216.3308 298.5 212.6667 C295.8168 211.3787 293.5494 213.429 290.5 212.6667 C288.6894 212.214 286.5 209.6667 286.5 209.6667 "/>
<path id="7" d="M177.5 411.6667 C177.5 411.6667 173.0012 410.7318 172.5 409.6667 C170.6103 405.651 171.8142 399.5523 169.5 394.6667 C168.5357 392.631 166.4278 391.5816 163.5 390.6667 C159.3355 389.3653 158.0825 390.976 153.5 389.6667 C144.5896 387.1208 141.5316 386.8626 135.5 382.6667 C132.5301 380.6006 131.6763 377.9013 130.5 373.6667 C129.481 369.9982 129.4448 367.8324 130.5 364.6667 C131.3989 361.97 132.8181 360.0076 135.5 358.6667 C142.037 355.3981 149.9209 352.4631 152.5 353.6667 C156.3452 355.4611 159.8486 362.8382 165.5 372.6667 C171.2101 382.5972 170.6908 385.7658 175.5 393.6667 C176.2874 394.9602 179.5 395.6667 179.5 395.6667 "/>
<path id="8" d="M335.5 414.6667 C335.5 414.6667 329.886 407.4983 328.5 406.6667 C328.2886 406.5398 325.6086 408.7585 325.5 408.6667 C323.7563 407.1912 318.5235 401.4114 315.5 395.6667 C314.5067 393.7793 314.8661 390.681 315.5 389.6667 C316.0415 388.8003 318.0622 387.9375 320.5 387.6667 C330.8218 386.5198 336.73 385.0181 342.5 386.6667 C344.7776 387.3174 346.9728 391.3032 348.5 395.6667 C350.0616 400.1284 350.8937 404.2008 349.5 406.6667 C346.8403 411.3723 335.7415 418.6149 335.5 418.6667 C335.4719 418.6727 335.5 409.6667 335.5 409.6667 "/>
<path id="9" d="M367.5 289.6667 C367.5 289.6667 364.8823 284.7256 365.5 282.6667 C366.9863 277.7123 368.67 275.1675 373.5 269.6667 C386.1839 255.2212 386.9784 254.4997 401.5 241.6667 C408.0629 235.8669 416.1674 231.4399 416.5 231.6667 C417.4774 232.3331 421.6724 244.3954 423.5 256.6667 C425.0439 267.0331 424.5414 269.2941 423.5 278.6667 C423.2475 280.9388 422.3376 281.8291 420.5 283.6667 C417.7436 286.423 417.0551 287.1113 413.5 288.6667 C409.6789 290.3384 408.6543 290.6667 404.5 290.6667 C399.4226 290.6667 397.6369 290.4765 393.5 288.6667 C390.9961 287.5712 390.4819 284.133 388.5 283.6667 C384.725 282.7784 381.3942 282.9644 376.5 284.6667 C371.175 286.5188 367.7249 291.031 365.5 291.6667 C365.1333 291.7714 362.5 288.6667 362.5 288.6667 "/>
<path id="10" d="M163.5 280.6667 C163.5 280.6667 158.4871 274.6988 152.5 270.6667 C134.4423 258.5054 128.0312 258.6205 114.5 247.6667 C111.4159 245.1701 110.1908 239.295 110.5 236.6667 C110.6969 234.9927 113.3741 233.1674 116.5 230.6667 C118.1208 229.37 118.7244 228.7601 120.5 228.6667 C126.9648 228.3264 133.1231 228.2685 135.5 229.6667 C136.6122 230.3209 135.4624 235.0806 137.5 238.6667 C147.1624 255.6725 152.3682 258.1102 160.5 273.6667 C162.0564 276.6441 160.5 282.6667 160.5 282.6667 "/>
<path id="11" d="M156.5 309.6667 C156.5 309.6667 160.2365 313.0733 163.5 313.6667 C169.835 314.8185 171.5724 312.5121 178.5 313.6667 C185.8125 314.8854 186.2081 317.8741 193.5 318.6667 C208.043 320.2474 210.921 321.8154 224.5 318.6667 C242.7704 314.4301 246.7113 313.3874 262.5 302.6667 C284.9505 287.4225 290.5967 283.8926 305.5 263.6667 C315.3209 250.3383 318.5 226.6667 318.5 226.6667 "/>
<path id="12" d="M182.5 161.6667 C182.5 161.6667 194.8261 139.9555 195.5 139.6667 C195.573 139.6354 203.3393 152.4881 203.5 152.6667 C203.5167 152.6852 203.6867 150.2582 204.5 149.6667 C212.2848 144.005 216.1283 139.7906 225.5 136.6667 C230.9257 134.8581 235.2057 135.549 240.5 137.6667 C245.1755 139.5369 247.0073 146.2786 250.5 146.6667 C258.579 147.5643 276.5 141.6667 276.5 141.6667 "/>
<path id="13" d="M362.5 384.6667 C362.5 384.6667 384.0737 385.4933 403.5 384.6667 C406.3832 384.544 406.5791 383.835 409.5 382.6667 C416.5446 379.8488 417.0471 380.4093 423.5 376.6667 C441.7143 366.1024 442.5729 365.81 459.5 353.6667 C465.0372 349.6943 469.4805 343.696 469.5 343.6667 C469.5043 343.6602 465.7726 344.1214 465.5 344.6667 C464.6366 346.3934 465.9452 350.3634 464.5 353.6667 C463.0261 357.0355 461.7229 357.4438 458.5 360.6667 C453.7896 365.3771 453.7839 366.1441 448.5 369.6667 C443.7665 372.8223 442.9529 373.6522 437.5 374.6667 C422.6188 377.4353 421.151 375.3357 405.5 377.6667 C397.9773 378.7871 397.8589 381.0534 390.5 381.6667 C374.6624 382.9865 369.482 382.3514 357.5 381.6667 C356.7323 381.6228 355.5 379.6667 355.5 379.6667 "/>
<path id="14" d="M361.5 377.6667 C361.5 377.6667 371.5588 380.9661 379.5 379.6667 C396.9346 376.8137 398.8977 375.7076 416.5 368.6667 C438.3541 359.925 440.4522 358.8713 459.5 347.6667 C464.0747 344.9757 467.5 338.6667 467.5 338.6667 "/>
<path id="15" d="M257.5 392.6667 C257.5 392.6667 258.5061 399.6626 258.5 399.6667 C258.4989 399.6674 254.5813 395.236 254.5 394.6667 C254.4771 394.5061 257.5 392.6667 257.5 392.6667 "/>
<path id="16" d="M174.5 160.6667 C174.5 160.6667 169.4746 151.7073 164.5 145.6667 C163.3665 144.2903 160.6622 144.3156 160.5 143.6667 C159.9727 141.5575 160.8245 134.2746 161.5 133.6667 C162.0472 133.1742 167.1176 133.049 170.5 134.6667 C177.2028 137.8724 179.2243 139.7207 184.5 144.6667 C186.0094 146.0817 185.6772 148.8439 186.5 149.6667 C186.8526 150.0193 189.5 149.6667 189.5 149.6667 "/>
<path id="17" d="M286.5 166.6667 C286.5 166.6667 288.7575 163.0975 291.5 161.6667 C299.3043 157.5949 308.595 154.3809 309.5 154.6667 C309.7926 154.7591 311.8367 164.6963 310.5 167.6667 C309.2752 170.3885 305.2786 173.1375 300.5 174.6667 C294.5189 176.5806 285.5 175.6667 285.5 175.6667 "/>
<path id="18" d="M210.5 243.6667 C210.5 243.6667 227.3804 244.4241 239.5 243.6667 C240.806 243.585 242.4925 241.6417 242.5 241.6667 C242.5819 241.9395 243.3803 248.9717 242.5 253.6667 C242.1653 255.4517 240.2997 257.6667 239.5 257.6667 C233.1024 257.6667 223.1794 256.9944 215.5 253.6667 C212.5456 252.3864 212.3382 247.5048 209.5 244.6667 C208.5539 243.7206 205.5 243.6667 205.5 243.6667 "/>
</g>
</g>
</svg>
