<?xml version="1.0" encoding="utf-8"?>
<!DOCTYPE svg PUBLIC "-//W3C//DTD SVG 1.1//EN" "http://www.w3.org/Graphics/SVG/1.1/DTD/svg11.dtd">
<svg viewBox="0 0 800 800" preserveAspectRatio="xMinYMin meet" xmlns="http://www.w3.org/2000/svg" version="1.1">
<g fill="none" stroke="black" stroke-linecap="round" stroke-linejoin="round" stroke-width="1.6945">
<g transform="translate(97.2573,87.52) scale(1.7704) translate(-131,-81.1333)">
<path id="0" d="M208 123.1333 C208 123.1333 206.8727 117.8709 208 115.1333 C209.6743 111.0672 210.9062 108.6455 215 106.1333 C230.7067 96.4951 233.2721 95.8087 252 88.1333 C263.3392 83.4861 264.2443 82.4823 276 81.1333 C293.5365 79.1209 295.7555 78.5974 313 81.1333 C328.1335 83.3588 329.0995 85.3027 344 91.1333 C351.7379 94.1612 352.6035 94.5644 359 99.1333 C362.3968 101.5596 362.3786 102.4634 365 106.1333 C367.2895 109.3387 368.1787 109.8483 369 113.1333 C369.9239 116.829 369 122.1333 369 122.1333 "/>
<path id="1" d="M370 124.1333 C370 124.1333 378.8939 121.0622 383 122.1333 C386.9774 123.1709 389.9759 125.6861 393 130.1333 C397.4463 136.6719 398.53 138.9436 400 147.1333 C401.7714 157.0025 401.5229 159.9956 400 169.1333 C399.3885 172.8023 398.0054 174.6288 395 177.1333 C390.1484 181.1763 388.0999 182.1 382 184.1333 C378.8174 185.1942 376.6484 185.3104 374 184.1333 C369.5125 182.1389 364 176.1333 364 176.1333 "/>
<path id="2" d="M207 124.1333 C207 124.1333 200.2429 122.719 196 124.1333 C189.957 126.1477 187.1128 127.7786 183 132.1333 C180.2055 135.0922 179.6205 137.3247 179 142.1333 C177.761 151.7359 177.9687 154.1953 179 163.1333 C179.2625 165.4088 180.3179 167.2923 182 168.1333 C188.7285 171.4976 191.734 172.2801 201 174.1333 C206.0458 175.1425 207.7163 174.9901 212 174.1333 C213.7913 173.7751 215.0589 172.6392 216 171.1333 C216.9625 169.5933 217 166.1333 217 166.1333 "/>
<path id="3" d="M217 169.1333 C217 169.1333 216.7783 186.4751 220 193.1333 C221.6211 196.4836 225.7821 197.9761 232 200.1333 C249.44 206.1839 251.0642 208.4046 269 210.1333 C290.6414 212.2192 295.599 212.7786 315 208.1333 C326.9345 205.2758 328.7467 201.6956 340 193.1333 C351.1928 184.6171 360.7187 173.3343 361 173.1333 C361.0285 173.113 361 178.1333 361 178.1333 "/>
<path id="4" d="M251 130.1333 C251 130.1333 246.5678 130.0882 245 131.1333 C243.5106 132.1262 242.5379 133.8025 242 136.1333 C241.244 139.4092 241.2602 141.4209 242 144.1333 C242.3531 145.4279 243.7143 146.8119 245 147.1333 C248.0856 147.9047 253.4592 147.7823 254 147.1333 C254.9254 146.0228 255.2871 139.1523 255 135.1333 C254.9484 134.4114 253 133.1333 253 133.1333 "/>
<path id="5" d="M321 129.1333 C321 129.1333 313.8693 132.3294 312 135.1333 C310.4942 137.3921 310.5274 141.2975 311 144.1333 C311.1873 145.257 312.8682 147.0142 314 147.1333 C319.4255 147.7044 328.3134 147.1875 330 146.1333 C330.5707 145.7767 331.1305 139.9596 330 137.1333 C328.9449 134.4955 324 131.1333 324 131.1333 "/>
<path id="6" d="M259 167.1333 C259 167.1333 260.2253 170.016 261 170.1333 C270.8795 171.6302 282.3236 173.8701 292 172.1333 C295.0365 171.5883 300 163.1333 300 163.1333 "/>
<path id="7" d="M256 162.1333 C256 162.1333 254.9759 173.5749 256 183.1333 C256.357 186.4658 257.1686 188.7903 259 190.1333 C262.3626 192.5992 265.1547 193.354 271 194.1333 C279.3948 195.2526 281.9914 195.8855 289 194.1333 C293.575 192.9896 295.9917 190.8358 299 187.1333 C301.2749 184.3335 301.4744 182.5132 302 178.1333 C302.8984 170.6464 302 162.1333 302 162.1333 "/>
<path id="8" d="M266 178.1333 C266 178.1333 276.2755 180.6306 281 180.1333 C282.4123 179.9847 285 176.1333 285 176.1333 "/>
<path id="9" d="M225 198.1333 C225 198.1333 218.0231 202.1452 215 207.1333 C208.9659 217.0896 206.4936 219.6323 205 231.1333 C201.8709 255.2277 203.7935 258.7966 205 284.1333 C205.2309 288.9821 205.4383 290.2396 208 294.1333 C217.0869 307.9454 217.8727 310.264 230 322.1333 C240.4613 332.372 242.292 332.4417 255 340.1333 C260.6739 343.5675 261.732 344.3498 268 345.1333 C280.4211 346.686 285.3514 348.9295 295 345.1333 C310.5244 339.0254 314.4966 334.6365 329 321.1333 C342.3673 308.688 342.7913 306.2704 353 291.1333 C356.6188 285.7675 356.4568 284.727 358 278.1333 C361.8557 261.6591 362.2551 261.0008 364 244.1333 C365.2096 232.4404 367.3857 228.1946 364 220.1333 C359.0879 208.4378 343 194.1333 343 194.1333 "/>
<path id="10" d="M219 307.1333 C219 307.1333 216.1134 306.5147 215 307.1333 C212.835 308.3361 211.8949 309.3408 210 312.1333 C202.6622 322.947 201.0958 323.4129 196 335.1333 C191.5135 345.4522 191.212 346.8215 190 358.1333 C188.3083 373.9221 190 391.1333 190 391.1333 "/>
<path id="11" d="M244 332.1333 C244 332.1333 239.0308 339.9735 236 348.1333 C232.6679 357.1043 232.2275 357.6637 231 367.1333 C228.7971 384.1269 229 402.1333 229 402.1333 "/>
<path id="12" d="M191 390.1333 C191 390.1333 189.0699 403.7583 191 413.1333 C192.0441 418.2045 194.1184 420.2518 198 424.1333 C200.5877 426.721 202.2136 427.4748 206 428.1333 C212.5316 429.2693 216.0382 429.7121 221 428.1333 C224.0523 427.1622 225.3615 424.8272 228 421.1333 C230.0103 418.3189 230.5433 417.4821 231 414.1333 C231.9245 407.3536 233.1815 403.0872 231 399.1333 C227.6802 393.1162 223.1256 391.7112 215 385.1333 C212.7916 383.3456 212.3127 382.5415 210 382.1333 C204.9809 381.2476 201.1397 380.4887 198 382.1333 C194.1376 384.1565 189 393.1333 189 393.1333 "/>
<path id="13" d="M307 340.1333 C307 340.1333 316.9509 346.0842 324 353.1333 C328.2295 357.3628 329.8097 358.9256 331 364.1333 C333.2889 374.1474 332.909 376.9229 332 388.1333 C331.4937 394.3782 328.1655 400.9205 328 401.1333 C327.9829 401.1553 325 397.1333 325 397.1333 "/>
<path id="14" d="M333 316.1333 C333 316.1333 336.6789 315.3204 338 316.1333 C341.4145 318.2346 342.5105 319.813 346 324.1333 C352.8769 332.6476 353.5219 332.8206 359 342.1333 C363.297 349.4383 365.3294 350.5648 366 358.1333 C368.5421 386.8224 369.0537 395.3469 366 421.1333 C365.3182 426.8906 360.8168 432.225 357 434.1333 C352.8139 436.2264 344.736 436.3322 340 434.1333 C335.2541 431.9299 331.2708 427.1888 329 421.1333 C326.4309 414.2823 326.5682 408.338 328 402.1333 C328.6572 399.2853 331.3061 397.7718 335 395.1333 C337.8144 393.123 338.665 392.5039 342 392.1333 C351.0955 391.1227 357.6664 390.5082 362 392.1333 C363.598 392.7326 366 401.1333 366 401.1333 "/>
<path id="15" d="M360 208.1333 C360 208.1333 368.5827 199.8191 376 198.1333 C387.3658 195.5502 390.102 197.5419 404 198.1333 C413.473 198.5364 414.2476 197.7851 423 200.1333 C433.9378 203.0679 434.1687 205.8511 445 209.1333 C449.9511 210.6337 451.8333 208.4667 456 210.1333 C460.3129 211.8585 465 217.1333 465 217.1333 "/>
<path id="16" d="M370 232.1333 C370 232.1333 374.7019 226.4899 378 226.1333 C388.9766 224.9467 396.595 224.9318 407 228.1333 C411.5944 229.547 411.6335 234.4001 417 238.1333 C422.4353 241.9144 423.3887 241.536 430 244.1333 C437.3032 247.0024 437.6901 248.0891 445 249.1333 C454.3035 250.4624 460.2786 251.2317 465 249.1333 C467.9116 247.8393 470.2785 242.9434 472 237.1333 C473.871 230.8188 474.5647 225.7321 473 222.1333 C471.6268 218.975 466.5192 215.8908 462 214.1333 C459.8827 213.3099 457.3138 213.7194 455 215.1333 C449.7982 218.3122 448.4991 219.7907 444 225.1333 C440.9146 228.7973 440.1763 229.8987 439 234.1333 C437.981 237.8018 438.0575 239.8347 439 243.1333 C439.6433 245.3848 442.9976 248.1317 443 248.1333 C443.001 248.134 442 245.1333 442 245.1333 "/>
<path id="17" d="M213 215.1333 C213 215.1333 183.6044 212.0308 164 217.1333 C152.7471 220.0622 140 234.1333 140 234.1333 "/>
<path id="18" d="M155 260.1333 C155 260.1333 157.6233 255.497 161 253.1333 C166.855 249.0348 168.2727 247.3293 175 246.1333 C188.7585 243.6874 206 245.1333 206 245.1333 "/>
<path id="19" d="M142 233.1333 C142 233.1333 134.2635 238.989 132 244.1333 C129.8776 248.957 129.2777 254.2581 131 258.1333 C133.3859 263.5015 137.5184 267.2924 144 271.1333 C148.9395 274.0604 157.4942 274.6986 158 274.1333 C159.3105 272.6687 163.2452 258.42 161 252.1333 C158.1647 244.1945 149.3842 236.096 143 232.1333 C140.9515 230.8619 132 234.1333 132 234.1333 "/>
<path id="20" d="M243 326.1333 C243 326.1333 239.4299 302.1232 242 282.1333 C243.5985 269.7007 245.5809 267.3668 252 256.1333 C256.8577 247.6323 259.0306 244.1158 266 240.1333 C273.0124 236.1262 277.9259 236.1333 287 236.1333 C291.7531 236.1333 293.4415 237.2843 298 240.1333 C304.7111 244.3277 306.3797 244.973 311 251.1333 C317.5129 259.8172 319.7578 261.9571 322 272.1333 C325.6797 288.8335 326.0179 293.7015 324 310.1333 C322.9254 318.8838 315 329.1333 315 329.1333 "/>
</g>
</g>
</svg>
