<?xml version="1.0" encoding="utf-8"?>
<!DOCTYPE svg PUBLIC "-//W3C//DTD SVG 1.1//EN" "http://www.w3.org/Graphics/SVG/1.1/DTD/svg11.dtd">
<svg viewBox="0 0 800 800" preserveAspectRatio="xMinYMin meet" xmlns="http://www.w3.org/2000/svg" version="1.1">
<g fill="none" stroke="black" stroke-linecap="round" stroke-linejoin="round" stroke-width="0.89286">
<g transform="translate(188.32,87.52) scale(3.36) translate(-184,-146.1333)">
<path id="0" d="M231 156.1333 C231 156.1333 213.9684 159.407 205 166.1333 C197.2363 171.9561 194.7527 177.0197 191 186.1333 C188.9609 191.0855 190.0573 193.5347 191 200.1333 C191.9811 207.0013 192.0505 208.0075 195 214.1333 C198.2101 220.8005 198.7971 221.9305 204 227.1333 C210.1489 233.2822 212.1651 236.7888 219 238.1333 C237.3962 241.7523 243.0329 239.5478 265 239.1333 C268.3622 239.0699 269.2663 238.7736 272 237.1333 C276.0673 234.693 278.2861 233.5612 280 230.1333 C282.1814 225.7706 281.5831 223.5948 282 217.1333 C282.5715 208.2746 283.6595 206.9568 282 199.1333 C280.4802 191.9684 279.7662 189.989 275 184.1333 C263.304 169.7639 259.4572 163.8197 247 156.1333 C241.6027 152.8031 228 155.1333 228 155.1333 "/>
<path id="1" d="M192 179.1333 C192 179.1333 192.7802 175.9863 192 174.1333 C189.2899 167.6967 185.7454 166.367 184 160.1333 C182.8478 156.0185 184.0482 149.7679 185 149.1333 C187.0179 147.7881 200.357 146.8033 202 148.1333 C203.8846 149.6589 206 166.1333 206 166.1333 "/>
<path id="2" d="M261 163.1333 C261 163.1333 260.3316 160.2792 261 159.1333 C263.0192 155.6719 264.177 153.7491 268 151.1333 C272.7264 147.8995 279.8053 145.9386 280 146.1333 C280.5286 146.6619 282.8895 158.6537 281 164.1333 C279.4168 168.7247 270 175.1333 270 175.1333 "/>
<path id="3" d="M216 187.1333 C216 187.1333 213.5462 194.5027 214 198.1333 C214.2322 199.9909 216.2842 202.2755 218 203.1333 C219.5838 203.9252 222.0019 203.9659 224 203.1333 C226.6918 202.0117 228.9239 200.2855 230 198.1333 C230.9416 196.2502 230.8325 193.6309 230 191.1333 C229.2468 188.8736 227.9156 187.0912 226 186.1333 C223.4949 184.8808 219.9635 184.7406 218 185.1333 C217.3455 185.2642 216 188.1333 216 188.1333 "/>
<path id="4" d="M252 182.1333 C252 182.1333 247.438 186.0176 246 189.1333 C245.1168 191.0469 245.6008 194.9204 246 195.1333 C248.0042 196.2022 257.3822 197.895 261 197.1333 C262.3061 196.8584 264.077 193.9024 265 191.1333 C265.7552 188.8678 265.8234 186.9447 265 185.1333 C264.002 182.9377 262.1857 180.8619 260 180.1333 C256.7215 179.0405 250 180.1333 250 180.1333 "/>
<path id="5" d="M230 191.1333 C230 191.1333 226.1231 190.9179 226 191.1333 C225.6231 191.7929 225.7689 197.3244 226 198.1333 C226.0189 198.1994 228 198.1333 228 198.1333 "/>
<path id="6" d="M250 188.1333 C250 188.1333 252.9791 188.0603 253 188.1333 C253.1634 188.7053 252 195.1333 252 195.1333 "/>
<path id="7" d="M235 214.1333 C235 214.1333 246.2797 215.9505 252 215.1333 C253.5513 214.9117 256 211.1333 256 211.1333 "/>
<path id="8" d="M244 205.1333 L244 212.1333 "/>
<path id="9" d="M211 237.1333 C211 237.1333 199.5055 247.3517 194 258.1333 C188.5142 268.8763 188.5423 271.3546 187 284.1333 C185.1616 299.366 185.1542 301.3666 187 316.1333 C187.9662 323.8628 192.1789 331.3122 193 332.1333 C193.0746 332.208 199 328.1333 199 328.1333 "/>
<path id="10" d="M282 228.1333 C282 228.1333 297.0696 243.824 306 259.1333 C309.8368 265.7107 308.9832 267.745 310 276.1333 C310.9304 283.8093 311.3315 284.7152 310 292.1333 C307.9815 303.3795 307.8473 305.1695 303 315.1333 C299.4477 322.4354 292 329.1333 292 329.1333 "/>
<path id="11" d="M197 330.1333 C197 330.1333 204.5691 330.4664 208 328.1333 C214.7176 323.5654 214.7564 317.2446 222 313.1333 C230.4958 308.3114 233.8236 308.3482 245 307.1333 C255.8169 305.9576 263.9589 305.3958 268 308.1333 C271.6778 310.6247 272.3078 325.0319 276 328.1333 C278.656 330.3643 293 329.1333 293 329.1333 "/>
</g>
</g>
</svg>
