<?xml version="1.0" encoding="utf-8"?>
<!DOCTYPE svg PUBLIC "-//W3C//DTD SVG 1.1//EN" "http://www.w3.org/Graphics/SVG/1.1/DTD/svg11.dtd">
<svg viewBox="0 0 800 800" preserveAspectRatio="xMinYMin meet" xmlns="http://www.w3.org/2000/svg" version="1.1">
<g fill="none" stroke="black" stroke-linecap="round" stroke-linejoin="round" stroke-width="1.4209">
<g transform="translate(183.5865,87.52) scale(2.1114) translate(-179,-147)">
<path id="0" d="M272 183 C272 183 257.8098 182.813 245 185 C238.0409 186.1881 237.4481 186.7759 231 190 C222.7933 194.1033 222.0361 194.3711 215 200 C210.0161 203.9871 209.5826 204.7639 206 210 C203.3977 213.8034 202.8091 214.5502 202 219 C199.9736 230.1453 198.4868 232.4077 200 243 C201.6773 254.7408 202.7513 258.7426 209 268 C214.4595 276.0881 217.5702 277.1382 227 283 C235.2732 288.1428 236.3619 288.3013 246 291 C260.8293 295.1522 261.7492 295.7499 277 297 C291.4886 298.1876 293.4912 299.0504 307 296 C322.6137 292.4743 324.146 290.0361 339 283 C342.2576 281.4569 343.1979 280.785 345 278 C348.0909 273.2231 349.0227 271.8639 350 266 C351.8404 254.9576 354.3937 250.363 351 242 C342.8348 221.8785 337.9904 212.4828 322 197 C311.0949 186.4411 304.6504 185.9132 288 181 C276.1361 177.4992 261 179 261 179 "/>
<path id="1" d="M206 209 C206 209 196.9091 202.6599 191 195 C184.0081 185.9365 182.1973 183.3012 179 174 C177.6439 170.0551 178.2911 166.4177 180 163 C181.6346 159.7309 183.8271 158.782 188 156 C190.965 154.0233 192.1093 153.1927 195 153 C198.1584 152.7894 200.5501 153.1626 203 155 C206.9972 157.9979 208.2492 159.6359 211 165 C217.857 178.3712 218.2898 186.5629 223 194 C223.6992 195.104 230 195 230 195 "/>
<path id="2" d="M321 196 C321 196 320.1697 190.7053 321 186 C323.0807 174.2091 322.6895 172.6325 327 162 C329.715 155.303 331.6587 151.96 336 149 C339.4907 146.6199 345.8594 145.3848 349 147 C357.4698 151.3559 361.5888 156.8648 371 167 C373.7269 169.9367 374.1556 171.2 375 175 C375.95 179.275 376.4243 181.6767 375 185 C372.884 189.9374 371.0262 192.8956 366 196 C356.0786 202.1279 341 206 341 206 "/>
<path id="3" d="M240 220 C240 220 236.6943 222.7435 236 225 C235.1086 227.8972 235.0751 231.8901 236 233 C237.4259 234.7111 243.4793 236.5799 246 237 C246.3939 237.0656 247.9446 235.72 248 235 C248.2809 231.3484 248.2013 228.5051 247 224 C246.4882 222.0807 245.2751 220.7286 244 220 C243.0351 219.4486 240 220 240 220 "/>
<path id="4" d="M303 219 C303 219 295.785 221.5421 295 223 C294.2005 224.4849 295.2466 231.4784 296 232 C297.2503 232.8656 306.485 232.8158 308 232 C308.6021 231.6758 309.6316 226.3894 309 225 C308.3509 223.572 303 221 303 221 "/>
<path id="5" d="M269 245 C269 245 270.0277 263.9443 271 267 C271.0683 267.2148 275.332 267.4454 276 267 C276.4899 266.6734 276.9991 262.9995 277 263 C277.0032 263.0016 276.98 266.6886 278 268 C279.53 269.9671 282.1259 271.8558 284 272 C286.0112 272.1547 290.3164 270.5039 291 269 C293.2519 264.0458 294 250 294 250 "/>
<path id="6" d="M227 276 C227 276 217.3055 280.1556 210 286 C202.9282 291.6574 199.9101 292.9545 197 300 C191.8199 312.5412 192.8652 316.1454 191 332 C189.9164 341.2105 189.3557 342.2304 191 351 C193.6558 365.1641 193.9492 366.6017 200 380 C207.6093 396.8491 208.0861 399.5675 219 413 C226.0413 421.6662 232.5088 425.6199 239 428 C241.1722 428.7965 249 424 249 424 "/>
<path id="7" d="M353 265 C353 265 353.4401 272.1633 356 278 C365.5935 299.8732 368.9779 299.946 378 322 C382.0932 332.0056 381.9257 333.0781 383 344 C384.8675 362.986 386.3188 365.6088 384 383 C382.6755 392.9336 380.492 395.0393 375 404 C371.6594 409.4505 370.504 409.9836 365 414 C352.4612 423.1499 351.7302 423.1542 338 431 C330.8945 435.0603 330.628 435.6529 323 438 C311.6435 441.4943 310.8739 441.9006 299 443 C284.4385 444.3483 283.6462 444.1487 269 443 C258.5945 442.1839 256.8532 442.7942 248 439 C237.4764 434.4899 232.8625 432.035 227 425 C223.4019 420.6822 223 409 223 409 "/>
</g>
</g>
</svg>
