<?xml version="1.0" encoding="utf-8"?>
<!DOCTYPE svg PUBLIC "-//W3C//DTD SVG 1.1//EN" "http://www.w3.org/Graphics/SVG/1.1/DTD/svg11.dtd">
<svg viewBox="0 0 800 800" preserveAspectRatio="xMinYMin meet" xmlns="http://www.w3.org/2000/svg" version="1.1">
<g fill="none" stroke="black" stroke-linecap="round" stroke-linejoin="round" stroke-width="0.89286">
<g transform="translate(169.84,87.52) scale(3.36) translate(-89,-200.4167)">
<path id="0" d="M166 205.4167 C166 205.4167 159.2817 201.3404 153 200.4167 C143.3959 199.0043 141.705 199.6701 132 200.4167 C129.6182 200.5999 128.4286 200.9881 127 202.4167 C124.3469 205.0698 122 210.4167 122 210.4167 "/>
<path id="1" d="M167 210.4167 C167 210.4167 171.9325 204.5556 176 203.4167 C181.938 201.754 186.3957 202.2958 192 203.4167 C193.6813 203.7529 195.5372 205.5655 196 207.4167 C197.8974 215.0063 199.53 220.6411 198 227.4167 C196.98 231.9337 189 238.4167 189 238.4167 "/>
<path id="2" d="M124 214.4167 C124 214.4167 114.218 208.4712 106 206.4167 C101.9937 205.4151 99.4461 205.909 96 207.4167 C93.1523 208.6625 90.832 210.6828 90 213.4167 C88.1603 219.4615 87.2687 225.2227 89 230.4167 C90.3851 234.5718 95.8854 236.3676 99 240.4167 C99.5281 241.1032 98.6169 243.1102 99 243.4167 C101.2349 245.2046 109 248.4167 109 248.4167 "/>
<path id="3" d="M116 219.4167 C116 219.4167 104.1317 218.9306 100 219.4167 C99.681 219.4542 99 220.5707 99 221.4167 C99 225.2237 98.4414 228.1496 100 230.4167 C102.2323 233.6637 110 237.4167 110 237.4167 "/>
<path id="4" d="M116 220.4167 C116 220.4167 117.1328 226.0183 116 229.4167 C114.6155 233.5702 110 238.4167 110 238.4167 "/>
<path id="5" d="M171 219.4167 C171 219.4167 178.942 220.7409 182 223.4167 C184.8998 225.954 187 233.4167 187 233.4167 "/>
<path id="6" d="M189 232.4167 C189 232.4167 192.5118 219.0072 192 218.4167 C191.3326 217.6466 176 217.4167 176 217.4167 "/>
<path id="7" d="M133 238.4167 C133 238.4167 129.9959 240.414 130 240.4167 C130.0146 240.4264 136 240.4167 136 240.4167 "/>
<path id="8" d="M163 242.4167 L161 242.4167 "/>
<path id="9" d="M166 238.4167 L160 238.4167 "/>
<path id="10" d="M140 235.4167 L132 235.4167 "/>
<path id="11" d="M144 245.4167 L135 250.4167 "/>
<path id="12" d="M143 245.4167 C143 245.4167 147.0864 244.5335 149 245.4167 C152.1157 246.8547 156 251.4167 156 251.4167 "/>
<path id="13" d="M136 251.4167 L136 256.4167 "/>
<path id="14" d="M157 254.4167 L158 262.4167 "/>
<path id="15" d="M138 256.4167 L138 264.4167 "/>
<path id="16" d="M149 255.4167 C149 255.4167 145.32 255.1767 145 255.4167 C144.82 255.5517 144.82 258.2817 145 258.4167 C145.32 258.6567 149 258.4167 149 258.4167 "/>
<path id="17" d="M148 258.4167 L147 264.4167 "/>
<path id="18" d="M139 267.4167 L146 265.4167 "/>
<path id="19" d="M148 264.4167 L159 266.4167 "/>
<path id="20" d="M111 249.4167 C111 249.4167 110.3014 252.3687 111 253.4167 C114.0856 258.0451 115.6516 261.4082 121 264.4167 C129.5699 269.2372 143 271.4167 143 271.4167 "/>
<path id="21" d="M191 240.4167 C191 240.4167 191.8266 244.2674 191 246.4167 C189.7706 249.613 189.0128 251.185 186 253.4167 C176.644 260.3471 175.2368 261.3334 164 266.4167 C154.8455 270.558 144 272.4167 144 272.4167 "/>
<path id="22" d="M120 264.4167 C120 264.4167 117.4076 264.6955 117 265.4167 C112.8187 272.8143 112.7227 277.2429 107 287.4167 C103.9962 292.7567 101.9796 292.27 99 297.4167 C96.8135 301.1933 96.4094 302.0495 96 306.4167 C94.9854 317.239 94.5984 328.4822 96 329.4167 C99.3517 331.6512 114.7056 328.9128 132 330.4167 C136.9175 330.8443 137.7616 331.2975 142 333.4167 C145.1327 334.983 147.7048 336.4348 148 338.4167 C150.111 352.5906 150.039 364.1385 149 380.4167 C148.8698 382.4566 146.6613 384.928 145 385.4167 C141.0521 386.5778 133.8982 387.0561 132 385.4167 C128.2898 382.2124 124.5837 375.6308 123 366.4167 C119.5051 346.0826 116.6226 339.9213 121 321.4167 C126.277 299.1093 145 273.4167 145 273.4167 "/>
<path id="23" d="M175 263.4167 C175 263.4167 182.6671 271.0844 186 279.4167 C193.0906 297.1432 194.3452 299.1694 197 318.4167 C200.1541 341.2841 200.2988 345.3992 198 366.4167 C197.19 373.8225 194.4254 376.885 190 382.4167 C187.9454 384.985 185.5714 385.7864 182 386.4167 C178.3803 387.0554 174.0213 386.7383 173 385.4167 C169.5101 380.9004 166.8857 374.7882 165 364.4167 C162.1142 348.5445 162.6375 344.5536 163 330.4167 C163.0542 328.3025 164.2755 326.6709 166 325.4167 C168.6459 323.4924 170.6549 324.6119 174 322.4167 C186.0172 314.5304 186.0056 310.8527 198 304.4167 C204.8229 300.7556 209.7854 303.8262 215 300.4167 C219.6522 297.3748 221.8912 293.7431 224 287.4167 C226.7239 279.245 227.53 274.1922 226 267.4167 C224.98 262.8996 222.0312 260.2404 217 256.4167 C210.6009 251.5534 208.9853 251.1702 201 248.4167 C195.1725 246.4072 188 246.4167 188 246.4167 "/>
<path id="24" d="M153 274.4167 C153 274.4167 156.0203 280.657 158 282.4167 C158.6538 282.9979 161.931 282.5891 162 282.4167 C162.431 281.3391 162.6098 273.1789 162 272.4167 C161.6098 271.9289 154 272.4167 154 272.4167 "/>
<path id="25" d="M174 266.4167 C174 266.4167 177.3057 269.1602 178 271.4167 C178.8914 274.3139 178.6414 278.9233 178 279.4167 C176.4847 280.5823 165 281.4167 165 281.4167 "/>
<path id="26" d="M154 276.4167 C154 276.4167 145.0632 277.1601 144 278.4167 C142.796 279.8395 142.5542 289.1282 143 289.4167 C144.3118 290.2655 156.3392 289.9073 161 289.4167 C161.3134 289.3837 162 287.4167 162 287.4167 "/>
<path id="27" d="M161 282.4167 C161 282.4167 161.5625 295.7292 161 297.4167 C160.9375 297.6042 156 297.4167 156 297.4167 "/>
<path id="28" d="M129 344.4167 C129 344.4167 127.8563 350.297 128 350.4167 C128.2215 350.6012 134.8776 349.6003 135 349.4167 C135.0648 349.3195 132 344.4167 132 344.4167 "/>
<path id="29" d="M137 344.4167 C137 344.4167 139.9714 346.4357 140 346.4167 C140.0458 346.3862 140 342.4167 140 342.4167 "/>
<path id="30" d="M142 340.4167 C142 340.4167 142.9719 344.4073 143 344.4167 C143.0121 344.4207 145 341.4167 145 341.4167 "/>
<path id="31" d="M143 361.4167 C143 361.4167 136.2726 360.0035 134 360.4167 C133.344 360.5359 132.2086 362.061 132 363.4167 C131.3695 367.5152 131.2019 369.9581 132 373.4167 C132.2947 374.6937 133.4614 375.7756 135 376.4167 C138.56 377.9 143.7675 378.675 144 378.4167 C144.4574 377.9085 145.4366 370.5212 144 366.4167 C142.749 362.8423 137 358.4167 137 358.4167 "/>
<path id="32" d="M172 337.4167 C172 337.4167 171.9958 343.4125 172 343.4167 C172.0014 343.4181 174 339.4167 174 339.4167 "/>
<path id="33" d="M181 334.4167 L181 341.4167 "/>
<path id="34" d="M192 332.4167 L196 345.4167 "/>
<path id="35" d="M178 352.4167 C178 352.4167 176.4406 371.7435 178 374.4167 C178.7206 375.652 191.6341 376.9133 192 376.4167 C192.9241 375.1625 193.4695 363.3519 192 355.4167 C191.5154 352.7996 189.3886 350.7028 187 349.4167 C184.5221 348.0824 179 348.4167 179 348.4167 "/>
</g>
</g>
</svg>
