<?xml version="1.0" encoding="utf-8"?>
<!DOCTYPE svg PUBLIC "-//W3C//DTD SVG 1.1//EN" "http://www.w3.org/Graphics/SVG/1.1/DTD/svg11.dtd">
<svg viewBox="0 0 800 800" preserveAspectRatio="xMinYMin meet" xmlns="http://www.w3.org/2000/svg" version="1.1">
<g fill="none" stroke="black" stroke-linecap="round" stroke-linejoin="round" stroke-width="1.2097">
<g transform="translate(87.52,96.2) scale(2.48) translate(-124,-100)">
<path id="0" d="M185 132 C185 132 191.6746 125.4804 198 124 C212.7592 120.5457 215.3285 120.7716 232 121 C251.1732 121.2626 254.8526 120.5146 271 125 C278.2686 127.019 280.3708 129.7212 286 136 C292.4153 143.1555 294.3526 145.3958 297 154 C299.6379 162.5732 299.6758 165.7829 298 175 C296.0168 185.9075 295.361 190.1423 289 198 C280.7587 208.1804 275.3717 213.0716 264 217 C253.1916 220.7338 247.9768 218.9184 234 217 C223.7686 215.5957 223.0727 214.092 213 210 C207.3234 207.6939 205.7454 207.7454 202 204 C196.9326 198.9326 196.6046 197.2092 193 190 C189.7851 183.5702 188.4193 182.5692 188 176 C187.0374 160.9191 186.9405 157.3794 190 143 C191.4372 136.245 197.484 129.469 198 129 C198.0158 128.9856 199.72 132.36 201 133 C202.28 133.64 204.6034 133.838 206 133 C210.3016 130.419 216 124 216 124 "/>
<path id="1" d="M190 150 C190 150 182.9149 138.4936 180 128 C178.353 122.0709 178.8773 119.8942 180 114 C180.6225 110.7321 181.5371 109.1345 184 107 C187.9635 103.565 189.6746 102.2854 195 101 C202.8037 99.1164 206.6561 98.7312 213 100 C215.9225 100.5845 217.8309 102.6629 220 106 C223.6802 111.6619 226 120 226 120 "/>
<path id="2" d="M193 133 C193 133 193.3797 128.1604 195 126 C196.9539 123.3948 198.796 122.1443 202 121 C204.5528 120.0883 207.5703 120.0102 209 121 C211.4981 122.7294 212.1715 127.4286 215 130 C216.1785 131.0714 220 131 220 131 "/>
<path id="3" d="M276 128 C276 128 277.5987 122.6009 280 121 C286.0033 116.9978 288.8102 115.47 297 114 C306.8691 112.2286 310.5027 111.94 319 114 C323.9977 115.2116 328.011 118.3534 330 122 C332.0665 125.7886 331.5981 130.3183 331 136 C330.7712 138.1737 329.9085 139.6482 328 141 C319.3937 147.0961 316.2824 146.688 307 153 C304.6444 154.6018 304.7089 157.0506 303 158 C301.7393 158.7004 298 158 298 158 "/>
<path id="4" d="M289 134 C289 134 288.8343 132.0829 289 132 C290.9059 131.0471 295.2064 128.6551 299 129 C303.8572 129.4416 309.927 132.3905 311 134 C311.7153 135.073 310.4883 142.7908 309 144 C306.5838 145.9631 295 147 295 147 "/>
<path id="5" d="M208 168 C208 168 207.5027 144.1479 209 143 C211.0393 141.4365 229.9959 141.7551 238 145 C241.563 146.4445 244.2057 151.9442 246 158 C247.6343 163.5159 247.6818 168.4682 246 172 C244.5871 174.9672 240.7235 177.7404 236 179 C227.9329 181.1512 224.2923 180.6634 216 180 C213.8187 179.8255 211.9352 178.6366 211 177 C208.9699 173.4474 208 166 208 166 "/>
<path id="6" d="M224 182 C224 182 226 180.1328 226 179 C226 174.0913 224.6349 168.0635 224 166 C223.9713 165.9067 222.0017 166.0186 222 166 C221.8983 164.8813 221.7597 156.0853 223 155 C225.0575 153.1997 231.6211 152.3189 238 152 C240.0631 151.8968 242.3086 152.963 243 154 C243.9938 155.4907 244 161 244 161 "/>
<path id="7" d="M261 174 C261 174 258.7741 169.3867 258 165 C257.3501 161.3173 257.2602 159.7125 258 157 C258.3531 155.7054 259.3699 154.8891 261 154 C264.388 152.152 265.1442 151.4131 269 151 C278.267 150.0071 283.8671 148.6046 289 151 C293.2432 152.9802 296.1272 158.6799 299 165 C300.2392 167.7263 300.1864 171.1018 299 173 C296.8868 176.3811 294.134 178.1763 289 181 C284.8464 183.2845 283.8962 183.2269 279 184 C274.7927 184.6643 271.9853 185.1344 270 184 C267.8887 182.7935 265 176 265 176 "/>
<path id="8" d="M264 176 C264 176 263.7118 173.2059 264 173 C265.1336 172.1903 267.6824 171.1746 271 171 C276.5785 170.7064 280.1205 170.2403 283 172 C285.7654 173.6899 287.1559 177.3897 289 182 C289.7436 183.859 289.2757 186.5404 289 187 C288.9007 187.1654 286 187 286 187 "/>
<path id="9" d="M247 184 C247 184 260.7312 183.7988 263 185 C263.7186 185.3804 264.2547 190.4532 264 193 C263.9291 193.7092 262.8624 194.8638 262 195 C255.6105 196.0089 246.6726 196.9292 245 196 C244.2767 195.5982 243.16 186.68 244 185 C244.56 183.88 252 182 252 182 "/>
<path id="10" d="M236 207 C236 207 257.5878 202.6414 269 204 C272.4794 204.4142 274.1455 209.628 278 212 C279.1074 212.6815 282 212 282 212 "/>
<path id="11" d="M196 199 C196 199 197.9847 198.9694 198 199 C198.0229 199.0458 197.6524 200.6458 197 201 C183.4774 208.3408 180.1085 211.3967 163 218 C152.4848 222.0585 150.9519 219.6536 140 223 C133.3768 225.0238 129.1742 225.8746 127 229 C124.2414 232.9655 122.3119 241.5851 124 246 C126.4616 252.4381 131.6986 255.3904 140 263 C143.3074 266.0318 144.0762 266.6151 148 268 C151.7583 269.3265 153.9681 270.1736 157 269 C166.5159 265.3164 168.3527 261.3237 179 256 C181.4283 254.7858 183.2236 256.3323 185 255 C191.4477 250.1642 194.7779 247.9541 199 241 C201.9689 236.11 199.5017 231.9965 202 227 C203.5312 223.9376 206.7113 224.2041 209 221 C211.1103 218.0456 210.8773 214.4969 212 213 C212.2464 212.6714 215 213 215 213 "/>
<path id="12" d="M295 196 C295 196 316.4428 197.2812 333 204 C348.7019 210.3718 350.8235 212.9685 364 224 C371.0086 229.8677 372.562 232.8375 376 240 C377.422 242.9625 377.2631 246.3159 376 249 C374.3489 252.5086 372.118 255.0234 368 257 C361.4196 260.1586 359.3738 260.3797 351 261 C333.0868 262.3269 331.1616 261.8172 314 261 C311.6367 260.8875 310.9291 260.4752 309 259 C302.9694 254.3884 302.0108 251.4449 297 248 C295.9754 247.2956 293.6957 248.646 293 248 C289.1612 244.4354 286.4829 241.7337 283 235 C279.4378 228.113 279.4471 226.8141 278 219 C277.0596 213.9217 278 208 278 208 "/>
<path id="13" d="M182 259 C182 259 178.3881 274.6806 179 286 C179.2341 290.3317 180.609 292.9481 184 296 C193.7611 304.785 196.2357 306.01 209 313 C216.547 317.1329 218.0306 318.241 226 319 C237.2523 320.0716 240.0188 320.2537 251 317 C265.2232 312.7857 267.2356 311.3246 280 303 C289.184 297.0104 290.2046 295.794 297 287 C306.5941 274.5841 314 259 314 259 "/>
<path id="14" d="M175 328 C175 328 176.5485 324.6455 176 323 C174.1978 317.5933 170.9447 316.112 169 310 C167.8506 306.3875 167.793 302.3679 169 301 C171.8479 297.7724 177.3495 294.9397 184 293 C187.3412 292.0255 189.2644 292.5058 193 294 C200.7891 297.1156 205.0409 297.774 209 303 C214.7768 310.6254 215.7828 315.6371 218 327 C219.4466 334.4139 218.3359 342.9981 217 344 C214.6925 345.7306 202.13 347.439 194 345 C186.5147 342.7544 180.8133 338.292 177 332 C173.4297 326.1089 174 312 174 312 "/>
<path id="15" d="M190 304 C190 304 183.9253 306.885 183 309 C181.7375 311.8856 181.3685 317.239 183 320 C185.7708 324.6891 191.3068 328.9886 196 331 C197.8924 331.811 202.3552 330.6448 204 329 C206.6317 326.3683 207.6173 323.2544 209 318 C209.8982 314.5869 210.0122 311.3158 209 310 C207.3941 307.9124 199 305 199 305 "/>
<path id="16" d="M270 312 C270 312 271.947 306.8834 275 304 C280.228 299.0625 281.2772 298.3614 288 295 C294.7228 291.6386 295.8174 290.7367 303 290 C314.0648 288.8652 319.7812 287.6683 327 291 C333.7421 294.1117 338.859 300.8205 342 308 C343.9413 312.4372 343.3804 318.2391 341 323 C338.0053 328.9895 334.6554 330.0841 328 336 C325.9221 337.847 325.2554 338.795 323 339 C311.023 340.0888 308.4738 340.2249 295 339 C287.1257 338.2842 285.1379 338.1917 279 335 C274.3558 332.585 271.4141 330.101 270 326 C267.623 319.1066 269 306 269 306 "/>
<path id="17" d="M294 309 C294 309 310.1777 306.8173 320 309 C324.4494 309.9888 327.4418 313.2789 330 317 C331.4941 319.1732 331.2547 322.4532 331 325 C330.9291 325.7092 329.7883 326.9283 329 327 C321.7742 327.6569 317.4979 328.6448 309 327 C303.8327 325.9999 300.2326 323.7907 298 321 C296.5217 319.1521 296.735 314.9155 297 312 C297.0649 311.286 299 310 299 310 "/>
<path id="18" d="M223 289 C223 289 220.2506 289.6253 219 289 C216.3424 287.6712 215.6135 286.7768 213 284 C207.7441 278.4156 202.9965 272.0032 203 272 C203.0764 271.9312 221.2316 275.1768 223 275 C223.0449 274.9955 223.8013 271.4882 223 270 C221.1138 266.497 218.4458 266.1579 216 262 C213.8273 258.3064 212.8451 253.7747 213 253 C213.0369 252.8155 216.8914 253.1086 218 252 C222.065 247.935 223.4376 242.0874 227 239 C228.0547 238.086 230.8203 238.1025 233 239 C238.0433 241.0767 238.985 243.8059 244 246 C245.7831 246.7801 248.7424 246.4185 249 246 C250.2427 243.9806 250.5631 234.6982 252 233 C252.626 232.2602 257.7508 233.9371 260 233 C261.7103 232.2874 262.3094 229.0566 264 228 C264.9491 227.4068 267.2265 227.4199 268 228 C269.6436 229.2327 271.3879 231.2458 272 234 C273.0662 238.7977 271.127 240.7622 272 246 C272.4729 248.8371 273.1961 250.3765 275 252 C277.083 253.8747 281.4406 253.6714 282 255 C283.5445 258.6682 284.691 265.9271 283 271 C281.4529 275.6412 278.5651 278.838 273 282 C258.6319 290.1637 255.6215 290.5799 239 296 C233.6875 297.7323 231.6006 297.9201 227 297 C223.4911 296.2982 219 292 219 292 "/>
<path id="19" d="M255 199 L255 207 "/>
<path id="20" d="M138 239 C138 239 138.1016 247.1185 140 252 C140.9568 254.4604 142.5511 255.6642 145 257 C147.0744 258.1315 148.0204 257.7708 151 258 C154.4322 258.264 157.4472 258.5528 158 258 C158.7107 257.2893 159.9343 251.1835 159 250 C155.9379 246.1213 143 239 143 239 "/>
<path id="21" d="M328 241 C328 241 337.3985 233.2804 345 231 C349.8269 229.5519 353.4462 230.3223 358 232 C360.7968 233.0304 363.4158 235.9551 364 238 C364.5626 239.9691 363.4476 244.6731 362 246 C360.0225 247.8127 357.0149 248.1642 352 249 C342.2886 250.6186 337.6635 251.4925 332 251 C331.0437 250.9168 329 247 329 247 "/>
</g>
</g>
</svg>
