<?xml version="1.0" encoding="utf-8"?>
<!DOCTYPE svg PUBLIC "-//W3C//DTD SVG 1.1//EN" "http://www.w3.org/Graphics/SVG/1.1/DTD/svg11.dtd">
<svg viewBox="0 0 800 800" preserveAspectRatio="xMinYMin meet" xmlns="http://www.w3.org/2000/svg" version="1.1">
<g fill="none" stroke="black" stroke-linecap="round" stroke-linejoin="round" stroke-width="2.0161">
<g transform="translate(87.52,241.528) scale(1.488) translate(-105,-145)">
<path id="0" d="M203 244 C203 244 210.6676 242 218 242 C230.2207 242 230.5429 243.9034 243 244 C294.7854 244.4014 347 243 347 243 "/>
<path id="1" d="M206 248 C206 248 197.5119 259.7119 194 271 C191.0282 280.5522 191.7517 282.3225 192 293 C192.2383 303.2477 192.6893 304.0969 195 314 C196.0578 318.5332 197.0251 321.9138 199 323 C202.7733 325.0753 215 325 215 325 "/>
<path id="2" d="M240 324 C240 324 234.6925 318.1376 230 317 C220.6757 314.7396 214.0923 314.1697 207 316 C203.7808 316.8308 199.6217 321.6426 199 325 C197.9652 330.5878 198.8581 339.3344 202 343 C206.2765 347.9892 213.0384 349.9813 223 353 C227.9745 354.5074 230.014 354.1872 235 353 C239.2342 351.9919 242.6375 350.3162 244 348 C245.6661 345.1676 245.5173 341.4316 245 336 C244.5965 331.7634 243.5662 331.475 242 327 C240.0675 321.4786 240.775 320.1625 238 316 C235.4957 312.2436 230 309 230 309 "/>
<path id="3" d="M341 291 C341 291 328.36 297.64 321 305 C317.5365 308.4635 317.1965 310.7355 316 316 C314.9155 320.7716 314.4015 323.0764 316 327 C318.9763 334.3055 320.5451 337.7663 327 343 C337.0571 351.1544 340.8515 352.639 353 357 C358.0903 358.8273 360.0507 357.9915 366 357 C371.3391 356.1101 373.5541 355.929 377 353 C381.798 348.9217 383.4058 346.5852 386 340 C389.3829 331.4127 391.878 326.1706 390 320 C386.8526 309.6586 381.6714 304.9609 372 294 C367.7076 289.1353 365.7915 287.5653 360 286 C349.5554 283.1771 346.5253 284 335 284 C332.2339 284 330.313 284.8746 329 286 C328.2462 286.6461 328 290 328 290 "/>
<path id="4" d="M437 290 C437 290 429.7747 288.0905 425 289 C420.9761 289.7665 418.7377 290.8301 416 294 C410.5052 300.3625 408.6468 302.8189 406 311 C403.734 318.0039 403.2507 321.586 405 328 C406.9584 335.1809 409.5879 336.8967 415 344 C417.1932 346.8786 417.7977 347.3146 421 349 C426.7993 352.0523 431.308 352.3434 434 354 C434.3091 354.1902 433.8437 356.9375 434 357 C435.3548 357.5419 439.6783 358.8365 444 358 C453.8518 356.0932 457.4655 355.8609 465 351 C470.4294 347.4972 472.9299 343.5203 475 338 C476.3131 334.4983 475.8693 331.5257 474 327 C467.0498 310.1731 464.8516 305.2773 456 292 C454.2422 289.3634 451.7898 288.6891 448 288 C441.9205 286.8946 434 288 434 288 "/>
<path id="5" d="M248 328 C248 328 279.5529 323.3743 308 323 C315.5527 322.9006 324 327 324 327 "/>
<path id="6" d="M390 331 L395 330 "/>
<path id="7" d="M478 332 C478 332 483.759 332.2465 487 331 C488.9127 330.2643 491.1696 327.7162 491 327 C488.9396 318.3003 481.1415 309.231 478 293 C475.6078 280.6403 479 265 479 265 "/>
<path id="8" d="M377 244 C377 244 380.6789 226.9096 382 210 C383.1524 195.2492 380.1893 182.3618 382 180 C383.0643 178.6118 393.7848 178.8398 405 180 C422.3693 181.7968 422.9314 185.8566 440 186 C480.8852 186.3436 512.1337 180.5812 524 181 C524.1815 181.0064 525.1314 188.9629 525 189 C520.7269 190.2052 489.582 188.1307 485 192 C481.2774 195.1435 481.2437 209.5875 480 227 C478.7688 244.2366 480 262 480 262 "/>
<path id="9" d="M398 201 C398 201 401.9289 218.2911 403 234 C403.349 239.1185 400.657 244.8079 401 245 C403.3648 246.3243 414.5976 247.5606 428 248 C444.7996 248.5508 456.1159 248.7979 462 247 C462.8671 246.735 464 241.8382 464 237 C464 220.5501 464.5832 204.62 462 203 C455.4783 198.9101 405 200 405 200 "/>
<path id="10" d="M224 232 L223 239 "/>
<path id="11" d="M257 230 L256 239 "/>
<path id="12" d="M207 160 C207 160 219.9979 177.457 228 195 C232.3585 204.5551 233 217 233 217 "/>
<path id="13" d="M290 158 C290 158 280.5956 168.9727 274 181 C263.8554 199.4989 256 220 256 220 "/>
<path id="14" d="M209 153 L287 156 "/>
<path id="15" d="M235 216 C235 216 203.1369 216.9858 203 217 C202.9881 217.0012 206 219 206 219 "/>
<path id="16" d="M229 224 L203 222 "/>
<path id="17" d="M211 196 C211 196 211.4192 212.0039 211 225 C210.9706 225.9107 210.3604 226.9199 210 227 C208.0041 227.4435 205.9679 227.2204 202 227 C197.0125 226.7229 192.2077 226.6231 192 226 C190.4503 221.3509 189.3458 196.6468 191 194 C191.692 192.8928 212 194 212 194 "/>
<path id="18" d="M200 260 C200 260 171.6691 278.278 147 299 C134.8726 309.187 136.622 311.9314 125 323 C115.8702 331.6951 107.5753 336.2817 105 339 C104.9186 339.086 106.218 341.8045 107 342 C109.8436 342.7109 112.8306 343.2354 117 342 C125.0762 339.607 125.5088 336.8304 134 334 C139.9007 332.0331 140.5508 332.2015 147 332 C172.1798 331.2131 198 332 198 332 "/>
<path id="19" d="M110 344 C110 344 132.797 344.4331 154 342 C162.4246 341.0332 162.4865 338.6107 171 337 C180.6675 335.171 191 335 191 335 "/>
<path id="20" d="M191 282 C191 282 180.5927 289.9018 172 299 C163.8444 307.6353 165.3696 310.9876 157 318 C148.3231 325.2698 135 329.9999 135 330 C135 330 158 322 158 322 "/>
<path id="21" d="M195 295 C195 295 164.0049 322.9951 164 323 C163.9993 323.0007 170 320 170 320 "/>
<path id="22" d="M198 312 C198 312 195.9525 316.3756 193 319 C187.475 323.9111 180.0061 327.9946 180 328 C179.9986 328.0013 184 327 184 327 "/>
<path id="23" d="M201 320 L196 330 "/>
<path id="24" d="M218 265 C218 265 252.7218 264.8629 287 263 C298.489 262.3756 298.5946 260.2924 310 260 C337.1701 259.3033 338.5814 259.3742 365 261 C369.8866 261.3007 375 264 375 264 "/>
<path id="25" d="M371 243 C371 243 368.391 247.2859 368 251 C367.4878 255.8659 368.5258 261.908 369 262 C379.0438 263.9488 402.0083 263.3402 435 264 C451.9854 264.3397 453.7895 264.8006 469 264 C470.8366 263.9033 473 262 473 262 "/>
<path id="26" d="M313 243 C313 243 315.9453 239.5158 317 236 C318.7493 230.1689 317.5188 226.703 319 223 C319.3864 222.034 321.137 221.1774 323 221 C330.5578 220.2802 338.9517 219.8352 340 221 C341.432 222.5911 341.3159 234.0503 341 241 C340.9669 241.7282 339 243 339 243 "/>
<path id="27" d="M273 310 C273 310 274.3272 317.4379 274 323 C273.8959 324.7698 272 327 272 327 "/>
<path id="28" d="M268 314 L269 321 "/>
<path id="29" d="M226 331 C226 331 223.2094 330.7383 223 331 C222.494 331.6325 222 336 222 336 C222 336 223 329 223 329 "/>
<path id="30" d="M359 325 C359 325 350.63 322.7977 348 323 C347.4591 323.0416 345.98 325.99 346 326 C346.619 326.3095 358.2263 329.626 360 329 C360.8465 328.7012 363.1663 320.3742 363 320 C362.9325 319.8482 356 320 356 320 "/>
<path id="31" d="M446 325 C446 325 439.7316 325.0489 439 326 C437.3604 328.1314 435.8849 337.9233 436 338 C436.2838 338.1892 451 334 451 334 "/>
<path id="32" d="M285 300 C285 300 285.2634 302.5647 286 303 C293.1491 307.2245 296.226 309.3558 307 313 C329.7112 320.6817 354 326 354 326 "/>
<path id="33" d="M282 312 C282 312 288.1467 311.3822 293 313 C306.7035 317.5678 307.3331 321.2198 321 325 C329.4118 327.3267 340 326 340 326 "/>
<path id="34" d="M353 319 C353 319 370.524 320.7424 385 320 C388.2414 319.8338 388.8067 317.0523 392 317 C416.4471 316.5992 446 319 446 319 "/>
<path id="35" d="M370 333 L437 330 "/>
<path id="36" d="M199 145 C199 145 209.5552 148.9702 220 150 C244.394 152.405 268.9379 152.0221 270 152 C270.0412 151.9991 267.9809 149.0286 268 149 C268.0305 148.9542 270.0259 148.8283 272 149 C281.4628 149.8229 287.3057 149.707 291 151 C291.5157 151.1805 292 156 292 156 "/>
<path id="37" d="M436 321 C436 321 437.0334 318.4296 438 318 C440.1588 317.0405 441.7138 316.8174 445 317 C450.2579 317.2921 454.0364 317.4895 456 319 C457.277 319.9823 458.5981 326.0697 458 327 C456.8357 328.8112 451.972 332.629 447 333 C422.7103 334.8127 417.9797 330.8758 391 332 C383.2054 332.3248 382.8799 335.1705 375 336 C364.443 337.1113 362.6341 337.5053 353 336 C348.2787 335.2623 345.416 333.6174 343 331 C341.3284 329.1891 340.6183 323.3308 341 323 C342.6505 321.5696 358 318 358 318 "/>
</g>
</g>
</svg>
