<?xml version="1.0" encoding="utf-8"?>
<!DOCTYPE svg PUBLIC "-//W3C//DTD SVG 1.1//EN" "http://www.w3.org/Graphics/SVG/1.1/DTD/svg11.dtd">
<svg viewBox="0 0 800 800" preserveAspectRatio="xMinYMin meet" xmlns="http://www.w3.org/2000/svg" version="1.1">
<g fill="none" stroke="black" stroke-linecap="round" stroke-linejoin="round" stroke-width="2.501">
<g transform="translate(87.52,215.8707) scale(1.1995) translate(-53,-37)">
<path id="0" d="M126 305 C126 305 107.5431 304.947 102 307 C100.664 307.4948 99.1218 311.3463 99 315 C98.6702 324.8937 98.1942 331.1881 101 337 C102.563 340.2376 107.381 342.3611 113 344 C117.802 345.4006 119.2919 344.6009 125 344 C128.4299 343.639 129.2042 343.5976 132 342 C135.5806 339.954 137.3699 338.8527 139 336 C140.3973 333.5548 140.4684 331.591 140 328 C139.0762 320.9172 138.8484 318.1789 136 313 C134.5344 310.3353 129 308 129 308 "/>
<path id="1" d="M228 303 C228 303 211.5984 307.663 203 313 C200.5297 314.5333 199.7996 317.2017 199 321 C198.0052 325.7252 197.4133 329.6199 199 332 C201.7888 336.1832 206.6198 340.4438 213 342 C223.4791 344.5559 227.9378 342.7782 240 342 C241.8446 341.881 242.2938 341.2187 244 340 C245.6164 338.8454 246.8487 338.2105 247 337 C247.9415 329.4679 248.2752 325.2449 247 316 C246.4807 312.2353 245.268 309.512 243 308 C238.9499 305.2999 229 304 229 304 "/>
<path id="2" d="M342 304 C342 304 340.8031 302.0945 340 302 C334.6104 301.3659 331.3119 300.685 325 302 C320.7745 302.8803 318.8059 304.1941 316 307 C313.9958 309.0042 313.5301 310.6429 313 314 C312.1489 319.3903 311.5592 321.6776 313 326 C314.3608 330.0823 316.4041 331.7037 320 335 C321.6113 336.477 322.6889 336.9111 325 337 C334.5422 337.367 337.8002 338.1866 346 336 C350.1898 334.8827 353.0685 332.541 355 329 C357.6982 324.0534 358.6507 318.9884 358 314 C357.6088 311.001 355.3777 308.7444 352 306 C348.2 302.9125 342 301 342 301 "/>
<path id="3" d="M495 262 C495 262 486.0706 257.2228 478 256 C470.858 254.9179 467.4364 254.1636 462 257 C448.18 264.2104 441.768 267.79 432 280 C424.726 289.0925 424.6721 294.2333 422 307 C420.5497 313.9293 421.0253 316.8291 423 323 C424.36 327.25 426.0024 328.9109 430 332 C436.068 336.6889 437.9166 338.3809 445 340 C453.4183 341.9242 455.9446 341.8111 465 340 C477.1342 337.5732 480.2056 337.2111 490 331 C498.5419 325.5832 500.0404 322.6414 506 314 C509.1374 309.4508 509.7377 307.6404 510 302 C510.6654 287.6946 510.3784 285.2703 508 271 C507.1018 265.6107 506.1119 264.7876 503 260 C499.899 255.2292 497.9463 251.9821 495 251 C491.6966 249.8989 482 253 482 253 "/>
<path id="4" d="M117 316 C117 316 156.0623 323.965 195 329 C213.6958 331.4176 233 331 233 331 "/>
<path id="5" d="M335 333 C335 333 344.6738 332.8484 353 330 C381.8248 320.1389 381.9178 317.3076 411 307 C421.0113 303.4517 421.4788 303.4767 432 302 C449.6572 299.5218 468 299 468 299 "/>
<path id="6" d="M231 310 L331 310 "/>
<path id="7" d="M63 200 C63 200 61.4043 209.2136 62 218 C63.3732 238.2553 65.7073 238.5752 67 259 C68.1889 277.7853 64.6258 294.6867 67 297 C69.5008 299.4367 86.9357 298.0591 106 297 C113.4139 296.5881 113.6113 294.1944 121 294 C169.5098 292.7234 171.3484 295.6083 220 294 C230.8765 293.6404 231.0913 290.7934 242 290 C258.1495 288.8255 259.15 291.0807 275 290 C280.3816 289.6331 280.684 287.0723 286 287 C351.4755 286.1092 422 288 422 288 "/>
<path id="8" d="M518 290 C518 290 553.9786 288.816 561 285 C563.1301 283.8423 561.4548 274.4172 564 265 C566.3105 256.4511 569.022 256.5055 571 248 C573.8349 235.8099 573.7124 234.9412 574 222 C575.2025 167.8853 575.8711 166.8887 574 113 C573.3962 95.6105 570.3394 95.4119 569 78 C567.8644 63.2377 569.7301 48.148 569 48 C551.2301 44.398 494.8856 46.924 421 48 C392.023 48.422 377.1323 48.0368 363 51 C361.5304 51.3081 360.1276 55.9259 359 61 C355.2376 77.9309 354.628 78.5575 353 96 C351.1645 115.6662 353.1797 135.7529 352 136 C328.0964 141.006 255.4406 137.763 162 136 C151.1435 135.7952 150.8837 132.4268 140 132 C100.703 130.4589 75.8072 128.8386 60 132 C58.3402 132.332 56.5266 140.4948 55 149 C53.0929 159.6255 52.0888 160.6126 53 171 C54.4869 187.9505 60 206 60 206 "/>
<path id="9" d="M109 126 C109 126 112.6074 114.8622 114 104 C115.0456 95.8441 114.9362 95.1918 114 87 C112.9835 78.106 110.5284 77.8072 110 69 C109.0747 53.5778 109.6145 37.4571 111 37 C122.5088 33.2033 196.5891 31.4265 207 37 C210.4024 38.8215 210 63.6792 210 90 C210 114.8309 208.8303 120.9648 207 140 C206.9202 140.8298 205 142 205 142 "/>
<path id="10" d="M426 76 C426 76 424.1006 84.0504 424 92 C423.1083 162.4415 425.7449 167.2559 424 234 C423.8635 239.2195 420.6453 239.6763 420 245 C418.7639 255.1979 419.9999 266.9976 420 267 C420 267.0004 420.0392 264.0675 421 263 C423.5882 260.1243 424.728 259.075 429 257 C441.6596 250.8511 442.3727 249.6772 456 246 C473.1063 241.384 474.0424 241.9046 492 240 C506.7567 238.4349 519.6388 242.1311 522 239 C529.2031 229.4481 534.3124 208.5012 538 179 C542.0445 146.6439 539.2557 143.2287 538 111 C537.8317 106.679 535.5062 106.4292 535 102 C533.5851 89.6199 535.9582 78.0335 534 76 C532.179 74.109 521.3506 74.5589 509 75 C493.6103 75.5496 493.2272 77.7014 478 78 C468.2138 78.1919 467.5385 78.0081 458 76 C449.0023 74.1057 448.7744 71.5042 440 70 C432.161 68.6562 423 70 423 70 "/>
<path id="11" d="M374 73 C374 73 377.1443 84.0895 378 95 C379.1121 109.1798 377.5917 109.7083 378 124 C378.0849 126.971 378.2376 128.6657 379 130 C379.3149 130.5511 380.5622 130.9536 382 131 C395.277 131.4283 409.3196 132.3851 410 131 C412.8196 125.2601 412.7565 79.8193 410 74 C409.3815 72.6943 383 74 383 74 "/>
<path id="12" d="M513 159 C513 159 526.5461 158.3569 527 159 C527.716 160.0144 525.5495 175.6947 525 176 C524.4185 176.323 511.8208 171.8208 509 169 C507.8962 167.8962 508.3102 160.7664 509 160 C509.6974 159.2251 518 159 518 159 "/>
</g>
</g>
</svg>
