<?xml version="1.0" encoding="utf-8"?>
<!DOCTYPE svg PUBLIC "-//W3C//DTD SVG 1.1//EN" "http://www.w3.org/Graphics/SVG/1.1/DTD/svg11.dtd">
<svg viewBox="0 0 800 800" preserveAspectRatio="xMinYMin meet" xmlns="http://www.w3.org/2000/svg" version="1.1">
<g fill="none" stroke="black" stroke-linecap="round" stroke-linejoin="round" stroke-width="1.5217">
<g transform="translate(87.52,216.6521) scale(1.9715) translate(-124,-169.4167)">
<path id="0" d="M419 306.4167 C419 306.4167 420.4022 303.0711 420 300.4167 C418.0808 287.7498 417.8518 286.4536 414 273.4167 C411.4473 264.7768 411.1787 264.1772 407 256.4167 C404.4308 251.6454 403.9636 250.7544 400 247.4167 C395.1349 243.3198 394.0117 242.2953 388 240.4167 C379.1281 237.6442 377.8007 238.0107 368 237.4167 C361.7164 237.0358 358.0889 240.3823 355 238.4167 C342.6446 230.5541 336.4065 212.4849 324 209.4167 C304.3313 204.5524 292.928 213.9892 262 215.4167 C228.2299 216.9753 227.1165 212.2742 194 215.4167 C159.7957 218.6623 131.0808 220.946 125 228.4167 C118.5103 236.3897 124 265.0124 124 301.4167 C124 309.8944 123.4649 311.6623 125 318.4167 C125.5265 320.7335 127.1638 322.9776 129 323.4167 C144.3501 327.0873 150.0123 327.6677 171 329.4167 C197.749 331.6458 198.1332 331.4167 225 331.4167 C240.9211 331.4167 241.0921 329.7286 257 329.4167 C266.424 329.2319 266.7883 329.0349 276 330.4167 C286.4624 331.986 286.5765 334.2999 297 335.4167 C313.9922 337.2373 314.6679 337.0749 332 336.4167 C353.888 335.5855 355.0894 336.7933 376 332.4167 C396.954 328.031 418 318.4167 418 318.4167 "/>
<path id="1" d="M407 260.4167 C407 260.4167 397.9728 260.4438 396 262.4167 C392.5096 265.9071 390.9844 272.1326 389 278.4167 C388.7075 279.3429 389.1798 280.7605 390 281.4167 C395.114 285.5079 397.0029 287.0702 404 290.4167 C407.806 292.2369 409.0279 292.4167 413 292.4167 C416.0894 292.4167 420 290.4167 420 290.4167 "/>
<path id="2" d="M333 217.4167 C333 217.4167 335.0171 215.4174 335 215.4167 C334.7598 215.4071 320.5605 214.3719 308 216.4167 C300.1497 217.6946 299.4197 218.8681 292 222.4167 C288.3073 224.1828 285.36 225.9766 285 227.4167 C284.4533 229.6035 285.4627 235.9897 288 238.4167 C293.7273 243.895 299.5383 248.7852 308 249.4167 C326.9191 250.8285 355 243.4167 355 243.4167 "/>
<path id="3" d="M375 333.4167 C375 333.4167 373.3174 330.9107 372 330.4167 C370.4032 329.8179 368.8528 329.7429 367 330.4167 C364.2377 331.4211 362.2327 332.773 361 334.4167 C360.4199 335.1901 360.9807 338.4156 361 338.4167 C362.5517 338.5029 379 335.4167 379 335.4167 "/>
<path id="4" d="M378 338.4167 C378 338.4167 377.7062 332.911 377 332.4167 C375.6827 331.4946 369.184 330.4196 368 331.4167 C364.4708 334.3886 357.9756 348.2461 358 348.4167 C358.002 348.4308 365.7718 347.9536 370 345.4167 C374.1057 342.9533 375.8975 340.3589 378 336.4167 C378.9509 334.6337 378.6557 332.3838 378 330.4167 C377.5629 329.1053 376.5997 328.3054 375 327.4167 C372.5623 326.0624 371.1103 325.2408 369 325.4167 C366.739 325.6051 363 328.4167 363 328.4167 "/>
<path id="5" d="M333 336.4167 C333 336.4167 322.5527 332.1164 320 332.4167 C319.0412 332.5295 315.9702 338.4124 316 338.4167 C316.165 338.4402 333.9998 334.4168 334 334.4167 C334.0001 334.4166 321 335.4167 321 335.4167 "/>
<path id="6" d="M335 337.4167 C335 337.4167 323.8435 335.1906 320 335.4167 C319.4379 335.4497 317.834 337.6696 318 338.4167 C319.061 343.1912 323.3223 353.1908 324 353.4167 C324.5545 353.6015 333.9342 347.797 336 344.4167 C337.061 342.6805 336.3114 338.258 335 335.4167 C334.1257 333.5224 332.2515 332.0599 330 331.4167 C326.7013 330.4742 324.0526 330.272 321 331.4167 C317.8626 332.5932 314 337.4167 314 337.4167 "/>
<path id="7" d="M284 331.4167 C284 331.4167 277.1788 331.1941 274 332.4167 C272.6108 332.951 270.7809 335.8141 271 336.4167 C272.6571 340.9737 277.2685 348.798 282 354.4167 C282.9043 355.4905 285.1334 355.7561 287 355.4167 C289.5358 354.9556 291.5452 354.1948 293 352.4167 C294.9231 350.0663 296.5767 345.8997 296 344.4167 C294.8278 341.4023 291.0244 338.185 286 334.4167 C283.8467 332.8017 280 332.4167 280 332.4167 "/>
<path id="8" d="M369 238.4167 C369 238.4167 371.7989 226.0738 371 219.4167 C370.719 217.0746 368.6585 215.0118 366 213.4167 C362.3523 211.228 358.7128 212.5481 356 210.4167 C353.742 208.6425 352.5165 206.2386 352 202.4167 C350.2381 189.3784 349.6376 180.91 351 173.4167 C351.2493 172.0457 354.885 169.823 358 169.4167 C364.5721 168.5594 366.2747 169.0261 374 170.4167 C390.9212 173.4625 405.6358 175.4003 408 178.4167 C409.7113 180.6001 406.9828 200.4468 403 207.4167 C401.1783 210.6047 388.953 211.2174 388 213.4167 C386.2363 217.4868 390 237.4167 390 237.4167 "/>
<path id="9" d="M418 291.4167 C418 291.4167 427.9592 305.7334 436 320.4167 C439.2567 326.3638 441.3196 333.1291 441 333.4167 C439.593 334.683 428.2679 337.4352 416 338.4167 C403.964 339.3796 392.843 338.2981 391 337.4167 C390.7987 337.3204 393 327.4167 393 327.4167 "/>
<path id="10" d="M407 312.4167 L407 337.4167 "/>
<path id="11" d="M416 303.4167 L421 338.4167 "/>
<path id="12" d="M425 304.4167 L429 335.4167 "/>
<path id="13" d="M242 330.4167 C242 330.4167 238.6448 327.4167 237 327.4167 C234.3683 327.4167 229 330.0456 229 330.4167 C229 333.0144 235.8208 350.2374 237 351.4167 C237.122 351.5387 242.453 349.1952 245 346.4167 C247.0135 344.2201 248.379 339.9852 248 339.4167 C246.7367 337.5217 235 331.4167 235 331.4167 "/>
<path id="14" d="M195 335.4167 C195 335.4167 191.5968 334.8179 190 335.4167 C188.6826 335.9107 187.4757 336.9895 187 338.4167 C185.89 341.7467 185.9994 347.4169 186 347.4167 C186.0011 347.4163 190 337.4167 190 337.4167 "/>
<path id="15" d="M158 326.4167 C158 326.4167 149.0043 330.2704 145 333.4167 C144.1033 334.1212 143.9648 337.4214 144 337.4167 C144.3855 337.3653 160 331.4167 160 331.4167 C160 331.4167 148.8295 332.8748 144 335.4167 C142.3574 336.2812 141 341.4167 141 341.4167 "/>
</g>
</g>
</svg>
