<?xml version="1.0" encoding="utf-8"?>
<!DOCTYPE svg PUBLIC "-//W3C//DTD SVG 1.1//EN" "http://www.w3.org/Graphics/SVG/1.1/DTD/svg11.dtd">
<svg viewBox="0 0 800 800" preserveAspectRatio="xMinYMin meet" xmlns="http://www.w3.org/2000/svg" version="1.1">
<g fill="none" stroke="black" stroke-linecap="round" stroke-linejoin="round" stroke-width="2.8754">
<g transform="translate(87.52,269.061) scale(1.0433) translate(-29,-25)">
<path id="0" d="M52 197 C52 197 48.9238 213.6793 48 230 C47.4455 239.7961 49 250 49 250 "/>
<path id="1" d="M54 197 C54 197 60.6009 195 67 195 C107.856 195 150 197 150 197 "/>
<path id="2" d="M50 252 L151 255 "/>
<path id="3" d="M153 257 C153 257 149.5549 249.3529 149 242 C147.6219 223.7401 147.6762 222.7539 149 204 C150.6521 180.5954 151.184 159.1407 155 157 C163.8944 152.0105 227.958 153.7583 231 158 C236.1745 165.2152 230.2666 246.114 226 256 C225.4659 257.2374 207.9172 253.4977 190 253 C172.138 252.5038 154 254 154 254 "/>
<path id="4" d="M62 196 C62 196 61.4563 186.41 63 179 C63.7027 175.6269 65.5052 172.3488 67 172 C73.8993 170.3902 90.9495 170.2533 93 172 C94.6241 173.3835 94 195 94 195 "/>
<path id="5" d="M112 195 C112 195 112.1707 185.1403 113 184 C113.36 183.505 119.4573 183.3093 120 184 C121.6916 186.1529 124 198 124 198 "/>
<path id="6" d="M78 255 C78 255 69.3284 257.2731 68 259 C66.9775 260.3293 67.136 265.408 68 268 C68.416 269.248 70.1894 270.5474 72 271 C75.0494 271.7624 76.7242 271.756 80 271 C82.3309 270.4621 84.0825 269.5728 85 268 C86.5765 265.2975 87.4378 259.8026 87 259 C86.6478 258.3543 79 257 79 257 "/>
<path id="7" d="M99 259 C99 259 93.092 259.0294 92 260 C90.8619 261.0117 89.6587 264.7815 90 267 C90.3374 269.193 92.3226 272.2811 94 273 C96.5525 274.0939 101.7616 274.1192 104 273 C105.6788 272.1606 107.1238 269.2858 108 266 C108.869 262.7414 108.8249 258.9074 108 258 C106.7533 256.6286 98 255 98 255 "/>
<path id="8" d="M125 257 C125 257 118.2726 255.5868 116 256 C115.344 256.1193 114.2743 257.6284 114 259 C113.4352 261.8239 113.1745 263.3171 114 266 C114.8527 268.7713 116.0175 270.2653 118 272 C119.0449 272.9142 120.0304 272.803 122 273 C124.8823 273.2882 125.8507 273.8266 128 273 C131.1964 271.7706 133.6524 270.3583 135 268 C136.4331 265.492 136.5015 260.8388 136 259 C135.8224 258.3488 132 257 132 257 "/>
<path id="9" d="M188 254 C188 254 186.9538 265.7692 188 271 C188.2338 272.1692 190.1894 273.5474 192 274 C195.0494 274.7624 198.0991 274.8641 200 274 C201.2529 273.4305 202.4621 271.3309 203 269 C203.756 265.7242 203.7624 264.0494 203 261 C202.5474 259.1894 201.3746 257.4124 200 257 C194.2397 255.2719 186.0469 254.8307 183 255 C182.7895 255.0117 182 258 182 258 "/>
<path id="10" d="M221 258 C221 258 211.8922 256.9187 210 258 C208.6976 258.7443 207.5436 262.4665 207 266 C206.6887 268.0237 207.0347 269.713 208 271 C209.1331 272.5108 210.6825 273.5655 213 274 C217.583 274.8593 220.8445 274.7282 224 274 C224.7723 273.8218 225.5294 272.5293 226 271 C227.3816 266.5097 228.8036 262.6072 228 261 C227.0178 259.0356 218 255 218 255 "/>
<path id="11" d="M50 249 C50 249 45.0773 251.4831 42 255 C35.0465 262.9468 28.9605 272.9577 29 273 C29.1494 273.1601 53.1829 272.191 56 270 C57.3445 268.9543 56 252 56 252 "/>
<path id="12" d="M51 249 C51 249 53.6463 247.0584 56 247 C110.0814 245.6591 114.2242 244.9804 172 246 C198.9349 246.4753 226 250 226 250 "/>
<path id="13" d="M169 173 C169 173 169.278 177.9836 168 182 C165.9553 188.4263 163.1285 188.7933 162 195 C160.3983 203.8095 162 215 162 215 "/>
<path id="14" d="M169 171 C169 171 194.5787 170.9381 204 174 C206.1606 174.7022 208.0467 179.0972 209 184 C211.2928 195.7915 211.3042 201.1774 211 210 C210.9636 211.0559 209.4803 212.5066 208 213 C203.3123 214.5626 201.9512 214.7295 196 215 C180.2495 215.7159 164 215 164 215 "/>
<path id="15" d="M233 233 C233 233 259.934 234.9885 260 235 C260.0088 235.0015 256 237 256 237 "/>
<path id="16" d="M227 253 C227 253 243.038 253.7856 256 253 C257.842 252.8884 260 251 260 251 "/>
<path id="17" d="M263 258 C263 258 260.2225 224.1013 261 193 C261.1808 185.7694 262.6627 180.4834 265 178 C266.6559 176.2406 271.0948 176 277 176 C351.3066 176 410.3082 169.1541 428 178 C433.0049 180.5025 436.2525 248.1919 433 254 C431.8749 256.009 409.3769 252.2579 386 253 C346.6014 254.2508 346.4578 256.4217 307 258 C284.0826 258.9167 261 258 261 258 "/>
<path id="18" d="M277 174 C277 174 274.646 169.876 274 166 C273.24 161.44 273.2891 158.8436 274 156 C274.1955 155.218 275.4927 154.4019 277 154 C282.3467 152.5742 286.2057 150.7851 289 152 C293.0714 153.7702 299.2804 164.1251 300 164 C301.1934 163.7924 306.6651 152.5346 312 148 C313.8443 146.4324 318.2345 146.0192 320 147 C323.8209 149.1227 329.0233 158.0465 330 158 C331.1927 157.9432 335.1694 150.13 341 146 C345.946 142.4966 347.7152 142.3663 354 141 C358.4614 140.0301 361.7048 139.709 364 141 C366.539 142.4282 368.91 149.8076 370 150 C371.428 150.252 375.5613 145.4503 381 144 C389.4314 141.7516 394.223 140.5558 400 142 C403.513 142.8783 406.4148 146.5347 409 151 C411.0299 154.5061 410.9999 160.9995 411 161 C411 161.0001 411 159 411 159 C411.9271 159 420.5148 159.5148 422 161 C423.4852 162.4852 424 172 424 172 "/>
<path id="19" d="M290 163 C290 163 287.9928 168.9713 288 169 C288.0016 169.0065 291 167 291 167 "/>
<path id="20" d="M284 159 C284 159 281.6497 165.898 282 168 C282.1482 168.8893 284.067 170.4477 286 171 C290.0935 172.1696 295.3673 172.4429 296 172 C296.381 171.7333 296.5197 165.5592 296 164 C295.8701 163.6102 293.447 162.8212 293 163 C292.4498 163.2201 291.2484 164.6339 291 166 C290.4093 169.249 290.5565 172.0041 291 174 C291.0801 174.3604 292.0874 174.9662 293 175 C304.1998 175.4148 308.9964 175.9647 318 175 C319.1962 174.8718 320.5243 173.4272 321 172 C322.11 168.6699 322.2809 166.9321 322 163 C321.8382 160.7351 320.8228 158.8228 320 158 C319.6474 157.6474 317.131 157.7642 317 158 C316.2054 159.4303 314.9299 166.8365 315 167 C315.0012 167.0029 319.5768 165.8463 320 165 C320.7523 163.4954 320.4494 157.7191 320 157 C319.8244 156.7191 316.8225 156.3925 315 157 C313.1775 157.6075 311.2812 158.805 311 160 C310.0012 164.245 310.3528 173.6764 311 174 C313.3578 175.1789 327.7775 175.4413 337 173 C340.5527 172.0596 343.1446 168.4789 345 165 C346.0588 163.0148 345.2781 158.3337 345 158 C344.8742 157.849 340.9203 158.0797 340 159 C338.4662 160.5338 337.8395 162.6419 337 166 C336.4584 168.1665 336.7243 170.5404 337 171 C337.0993 171.1654 339.3417 171.5348 340 171 C345.1702 166.7992 349.7787 164.2279 353 158 C355.782 152.6214 355.0507 142.1014 355 142 C354.9915 141.9831 349.7494 144.8193 348 148 C345.1228 153.2312 343.8026 161.6616 344 162 C344.0747 162.1281 353.2673 161.7327 355 160 C357.2658 157.7342 358.8725 147.8285 359 147 C359.0029 146.9813 357.0308 146.9075 357 147 C356.5684 148.2947 355.048 153.3025 356 156 C357.1528 159.2663 359.5675 162.794 363 164 C374.1107 167.9038 391.438 169.5579 393 169 C393.1859 168.9336 392.17 155.17 391 154 C390.2429 153.2429 381.9563 153.6204 379 155 C377.6246 155.6419 376.7764 158.1531 376 161 C375.4306 163.0877 375.8502 165.9539 376 166 C377.2355 166.3802 384.8912 166.849 389 165 C392.2381 163.5428 394.2138 160.9694 396 157 C398.0666 152.4076 398.2362 145.9447 398 145 C397.9743 144.8973 394.2123 144.2286 393 145 C390.4652 146.613 388.5792 148.6161 387 152 C385.6357 154.9235 385.907 159.2563 386 160 C386.003 160.0236 387.1713 160.2762 388 160 C391.3148 158.8951 394.0141 158.4789 395 157 C396.2431 155.1353 396.4926 148.821 396 148 C395.695 147.4917 391.7138 146.4572 389 147 C385.4881 147.7024 381.6475 149.5201 381 151 C380.0018 153.2815 380.2403 160.1205 382 163 C383.6899 165.7654 387.3681 167.263 392 169 C394.2687 169.8508 396.8517 169.8351 398 169 C400.0704 167.4942 402.9415 161 403 161 C403.0234 161 403.8126 167.6642 405 169 C405.7691 169.8652 410.7125 170.2875 411 170 C411.5176 169.4824 412.3357 162.3357 412 162 C411.5684 161.5684 405.9441 160.6752 403 162 C398.0768 164.2154 392.4181 171.0597 392 171 C391.8033 170.9719 390.6839 161.0945 389 160 C385.964 158.0266 379.8568 158 372 158 C368.7649 158 366.1487 158.8513 365 160 C364.1065 160.8935 364.0123 166.0088 364 166 C363.9481 165.9629 360.239 157.4629 358 155 C357.5052 154.4557 355.0371 154.34 354 155 C351.0301 156.89 348.4332 158.9289 347 162 C345.8832 164.3931 347.0222 170.0081 347 170 C346.8828 169.9574 340.426 160.1168 336 158 C332.9536 156.543 325.6111 157.7341 324 159 C322.7579 159.9759 322.0001 169.0004 322 169 C321.9998 168.9991 323.2581 151.9355 322 150 C321.3743 149.0373 313.0577 147.9322 309 149 C306.5855 149.6354 303.988 152.3652 303 155 C301.8024 158.1937 303.0041 164.9959 303 165 C302.9984 165.0016 301.0709 158.5841 300 158 C298.8291 157.3613 293.4983 157.7514 292 159 C290.0494 160.6255 288.1733 167.9615 288 168 C287.9005 168.0221 283.0267 161.0053 283 161 C282.995 160.999 282.1649 165.8517 283 167 C284.5058 169.0704 287.2364 171.3157 291 172 C301.638 173.9342 305.1177 174.7715 316 173 C324.4572 171.6232 329.2049 165 334 165 C336.664 165 342.3823 173.0809 344 173 C345.7609 172.912 348.7597 166.5356 354 164 C362.726 159.7777 372.142 158 375 158 C375.2722 158 377.2548 162.8535 377 164 C376.8217 164.8025 373.4633 167.1853 373 167 C370.584 166.0336 364.8578 161.6373 362 158 C361.1901 156.9692 361.3782 153.5653 362 153 C364.1266 151.0667 367.9246 148.8121 373 148 C378.9528 147.0475 385.3029 147.3972 387 149 C389.1703 151.0497 390.9994 164.9983 391 165 C391.0001 165.0004 390.4557 161.4948 391 161 C393.4629 158.761 396.8425 156.7192 402 155 C404.7771 154.0743 408.4472 154.4472 409 155 C409.7107 155.7107 410 163 410 163 "/>
<path id="21" d="M281 258 C281 258 274.2878 257.5889 274 258 C273.4128 258.8389 272.9989 266.6985 274 268 C275.0704 269.3916 282.9028 271.422 284 271 C284.7537 270.7101 286.5152 266.6357 287 263 C287.3963 260.028 286 256 286 256 "/>
<path id="22" d="M298 258 C298 258 292.9353 260.1293 292 262 C290.597 264.806 290.1668 270.9396 291 272 C292.2142 273.5454 301.6279 276.3659 303 276 C303.6442 275.8282 305.3159 271.8768 306 268 C306.7219 263.9093 306.8262 260.136 306 259 C305.2823 258.0132 298 257 298 257 "/>
<path id="23" d="M322 262 C322 262 317.1466 261.7068 317 262 C316.2669 263.4662 315.1977 272.8768 316 274 C316.7008 274.9811 323.929 276.7226 327 276 C329.1617 275.4914 332.6375 271.8125 333 270 C333.4229 267.8854 331.9414 262.5774 330 261 C326.9408 258.5144 317 257 317 257 "/>
<path id="24" d="M392 252 C392 252 386.0755 254.1179 385 256 C383.5788 258.487 383.3839 263.3304 384 266 C384.2474 267.072 386.2149 268.6653 388 269 C392.6949 269.8803 398.7497 269.8656 400 269 C400.7534 268.4784 401.634 262.7471 401 260 C400.6441 258.4577 399.0702 257.0351 397 256 C393.8947 254.4474 389 254 389 254 "/>
<path id="25" d="M415 256 C415 256 409.3894 254.3684 408 255 C406.572 255.6491 404.3374 258.807 404 261 C403.6587 263.2185 404.5232 265.8902 406 268 C407.1428 269.6325 408.666 270.4165 411 271 C413.8414 271.7104 416.0965 271.6345 418 271 C418.8158 270.7281 420 269.1422 420 268 C420 262.6697 419.8299 256.5924 418 254 C416.8057 252.308 408 251 408 251 "/>
<path id="26" d="M434 236 L455 235 "/>
<path id="27" d="M436 252 L452 250 "/>
<path id="28" d="M460 255 C460 255 460.472 241.248 459 228 C457.5039 214.5348 455.366 214.3867 454 201 C452.9076 190.2946 453.1819 185.5447 454 179 C454.0883 178.2935 455.7257 177.0245 457 177 C499.359 176.1854 507.5618 176.1151 558 177 C592.9834 177.6137 628 180 628 180 "/>
<path id="29" d="M463 256 C463 256 583.6998 261.695 615 257 C617.422 256.6367 621.4783 244.3258 623 232 C626.2935 205.3225 625 176 625 176 "/>
<path id="30" d="M468 257 C468 257 463.5893 256.404 462 257 C461.1722 257.3104 460.3958 258.6147 460 260 C459.5567 261.5515 459.4172 262.8343 460 264 C460.8743 265.7485 461.9523 267.0549 464 268 C467.4758 269.6042 472.5619 270.3504 473 270 C473.5328 269.5738 474 260 474 260 "/>
<path id="31" d="M492 259 C492 259 485.0045 258.9955 484 260 C482.7723 261.2277 481.5148 266.8975 482 269 C482.2929 270.2691 484.7403 272.2468 487 273 C489.4976 273.8325 493.4398 273.6225 494 273 C495.0493 271.8341 496.1939 265.3272 496 263 C495.9556 262.4675 493 261 493 261 "/>
<path id="32" d="M511 260 C511 260 503.8311 259.179 500 260 C498.7313 260.2719 497.3531 261.7054 497 263 C496.2602 265.7125 496.4322 270.6451 497 271 C498.9591 272.2244 511.1841 273.8071 513 273 C513.7744 272.6558 515.1398 264.5379 515 263 C514.9819 262.8006 512 262 512 262 "/>
<path id="33" d="M594 260 C594 260 589.7409 258.4197 588 259 C585.6447 259.7851 582.7742 262.142 582 264 C581.3205 265.6309 582.0294 269.908 583 271 C584.0117 272.1381 586.5779 272.3156 590 273 C591.3873 273.2775 592.4924 273.423 593 273 C594.2127 271.9895 595.6723 270.1298 596 268 C596.4707 264.9403 595 260 595 260 "/>
<path id="34" d="M607 259 C607 259 599.6165 258.3835 599 259 C598.2293 259.7707 597.5274 265.1642 598 268 C598.1873 269.1236 599.6346 270.6586 601 271 C605.8245 272.2061 611.0816 272.5837 614 272 C614.6384 271.8723 615.7976 269.6189 616 268 C616.1845 266.5239 615.8725 264.6711 615 264 C611.4442 261.2648 603 258 603 258 "/>
<path id="35" d="M73 158 C73 158 66.8126 153.6925 63 149 C60.8989 146.414 60.175 144.9743 60 142 C59.7591 137.9042 60.1414 134.788 62 132 C63.6947 129.458 66.3008 127.7707 70 127 C76.5461 125.6362 80.3957 125.8791 86 127 C87.6813 127.3363 89.9936 131.0335 90 131 C90.0493 130.7413 88.6889 117.4721 90 106 C90.5484 101.2014 91.4674 98.9547 94 96 C96.0476 93.6111 98.0529 93.0387 102 92 C106.9109 90.7076 109.8521 89.8403 113 91 C116.2414 92.1942 120.8475 99.0305 121 99 C121.0953 98.9809 121.0647 93.3985 123 89 C131.6805 69.2716 132.1036 63.4303 143 49 C147.3182 43.2813 151.673 43.4696 160 40 C162.9763 38.7599 165.8532 38.1399 167 39 C171.5874 42.4405 179.0677 55 180 55 C180.8606 55 185.418 44.8226 192 39 C197.0817 34.5046 199.0501 33.9547 206 32 C214.0788 29.7278 218.2448 29.2493 224 30 C225.8338 30.2392 227.4883 32.2789 229 35 C232.0666 40.5199 233.9153 48.0061 234 48 C234.2081 47.9851 237.9878 39.8967 243 34 C245.9633 30.5137 246.9915 29.3876 251 28 C258.5733 25.3785 265.2234 23.6012 269 25 C272.0892 26.1442 275.1938 31.4522 278 38 C280.7111 44.3258 280.9099 52.8842 281 53 C281.015 53.0193 282.6778 49.1111 285 47 C287.6125 44.625 288.7817 43.3901 292 43 C303.1793 41.6449 308.704 40.676 318 43 C322.3798 44.095 324.7084 47.1723 328 52 C331.4146 57.0081 331.865 59.0414 333 65 C333.6353 68.3352 333.1739 70.8478 332 73 C331.2132 74.4424 329.3536 75.6513 327 76 C317.4254 77.4185 315.2493 77.366 305 77 C302.1669 76.8988 300.259 74.4964 299 75 C296.0461 76.1816 294.8882 80.1856 290 83 C279.1022 89.2745 277.4777 91.3137 266 94 C256.0661 96.325 252.4989 96.43 243 94 C233.5779 91.5897 224.6275 82.8047 223 83 C222.418 83.0698 221.1053 91.0998 218 97 C216.5751 99.7074 215.6423 100.7484 213 102 C207.3002 104.6999 205.6961 105.256 199 106 C193.025 106.6639 188.6275 103.0579 186 105 C173.3843 114.3247 168.0355 124.9645 153 140 C152.1156 140.8844 150.125 141.125 150 141 C149.5 140.5 148.0376 134.9671 148 135 C147.6357 135.3187 140.5735 148.1135 134 155 C132.2895 156.792 128.7448 157.6158 127 157 C123.4452 155.7454 118.6553 148.8495 117 149 C114.6956 149.2095 110.3907 156.8437 105 159 C100.6201 160.752 95.3354 159.4765 92 159 C91.6701 158.9529 91.0046 156.9969 91 157 C90.9354 157.0431 89.8125 160.675 89 161 C87.1945 161.7222 81 161 81 161 "/>
</g>
</g>
</svg>
