<?xml version="1.0" encoding="utf-8"?>
<!DOCTYPE svg PUBLIC "-//W3C//DTD SVG 1.1//EN" "http://www.w3.org/Graphics/SVG/1.1/DTD/svg11.dtd">
<svg viewBox="0 0 800 800" preserveAspectRatio="xMinYMin meet" xmlns="http://www.w3.org/2000/svg" version="1.1">
<g fill="none" stroke="black" stroke-linecap="round" stroke-linejoin="round" stroke-width="3.0146">
<g transform="translate(87.52,211.4173) scale(0.99516) translate(-13,-49.4167)">
<path id="0" d="M26 417.4167 C26 417.4167 43.147 416.942 59 418.4167 C63.9241 418.8747 64.1917 421.3754 69 421.4167 C343.3332 423.7735 641 423.4167 641 423.4167 "/>
<path id="1" d="M30 408.4167 C30 408.4167 62.7677 410.2387 87 413.4167 C88.8465 413.6588 89.0611 415.955 91 416.4167 C98.1877 418.128 99.5302 418.2393 108 418.4167 C194.4988 420.2282 195.8497 418.1963 282 420.4167 C291.9377 420.6728 292.0683 423.0395 302 423.4167 C331.1325 424.523 331.8605 424.9503 361 423.4167 C378.91 422.474 379.0486 419.5157 397 418.4167 C427.6858 416.5379 428.0144 417.2865 459 417.4167 C546.9694 417.7863 635 419.4167 635 419.4167 "/>
<path id="2" d="M27 340.4167 C27 340.4167 44.2896 339.2838 61 340.4167 C73.4203 341.2587 73.5879 343.7802 86 344.4167 C112.0996 345.7551 112.8687 343.3279 139 344.4167 C148.4295 344.8096 148.5944 347.3016 158 347.4167 C310.1813 349.2782 313.335 343.7551 466 348.4167 C508.2939 349.7081 508.8842 355.817 551 359.4167 C566.64 360.7534 567.5517 360.7053 583 358.4167 C607.3293 354.8123 632 347.4167 632 347.4167 "/>
<path id="3" d="M25 325.4167 C25 325.4167 39.5122 325.6327 45 326.4167 C45.3503 326.4667 45.7005 328.3987 46 328.4167 C59.1211 329.2039 70.79 327.4603 95 329.4167 C119.9424 331.4322 123.1944 332.3786 145 336.4167 C146.9365 336.7753 147.3178 339.3435 149 339.4167 C184.8584 340.9757 193.4297 338.3084 237 340.4167 C254.9341 341.2845 255.1675 345.1983 273 345.4167 C376.3396 346.6821 379.5722 340.6268 482 343.4167 C505.6504 344.0608 506.0201 349.1194 530 352.4167 C545.7188 354.578 546.0158 353.9727 562 354.4167 C581.9457 354.9707 582.6305 356.4033 602 354.4167 C620.7984 352.4886 640 346.4167 640 346.4167 "/>
<path id="4" d="M94 344.4167 L82 414.4167 "/>
<path id="5" d="M109 351.4167 C109 351.4167 109.9507 355.4781 109 358.4167 C104.8497 371.2449 101.7777 371.925 98 385.4167 C95.006 396.1096 95 408.4167 95 408.4167 "/>
<path id="6" d="M185 349.4167 C185 349.4167 187.399 358.2066 186 365.4167 C181.2456 389.9199 172 416.4167 172 416.4167 "/>
<path id="7" d="M196 352.4167 L175 416.4167 "/>
<path id="8" d="M263 352.4167 C263 352.4167 256.0871 376.5752 252 400.4167 C250.1835 411.0129 251 422.4167 251 422.4167 "/>
<path id="9" d="M273 349.4167 C273 349.4167 274.6002 356.4027 273 361.4167 C267.6944 378.041 262.5685 379.6656 258 396.4167 C255.6626 404.987 258 416.4167 258 416.4167 "/>
<path id="10" d="M308 356.4167 L319 419.4167 "/>
<path id="11" d="M316 353.4167 C316 353.4167 324.2719 376.037 329 398.4167 C331.6165 410.8014 330.4271 420.6926 331 424.4167 C331.0067 424.4602 333 424.4167 333 424.4167 "/>
<path id="12" d="M438 354.4167 L437 353.4167 "/>
<path id="13" d="M435 353.4167 C435 353.4167 437.3931 358.4399 438 363.4167 C439.8293 378.4172 437.7839 379.5375 440 394.4167 C441.1856 402.3772 445 410.4167 445 410.4167 "/>
<path id="14" d="M427 355.4167 C427 355.4167 430.4446 358.8616 432 362.4167 C433.6717 366.2378 433.7812 366.968 434 371.4167 C435.2516 396.8664 435 423.4167 435 423.4167 "/>
<path id="15" d="M531 360.4167 C531 360.4167 538.8007 365.1017 541 370.4167 C549.368 390.6393 555 418.4167 555 418.4167 "/>
<path id="16" d="M529 361.4167 C529 361.4167 534.3361 385.0746 542 404.4167 C544.0961 409.707 550 414.4167 550 414.4167 "/>
<path id="17" d="M624 357.4167 L631 417.4167 "/>
<path id="18" d="M616 360.4167 C616 360.4167 614.5777 375.8517 617 389.4167 C619.3749 402.716 626 416.4167 626 416.4167 "/>
<path id="19" d="M164 425.4167 C164 425.4167 174.177 420.0807 182 413.4167 C187.0922 409.0789 187.6394 408.1777 191 402.4167 C194.2917 396.7738 194.4113 395.97 196 389.4167 C198.317 379.8592 198.3912 379.3599 199 369.4167 C199.8747 355.1302 200.0241 354.412 199 340.4167 C198.5685 334.5195 198.2062 333.9323 196 328.4167 C193.3592 321.8147 193.1473 321.1768 189 315.4167 C184.4205 309.0563 183.6408 307.87 178 303.4167 C175.1433 301.1614 173.7654 300.5536 170 300.4167 C148.1926 299.6237 142.5144 296.1977 123 301.4167 C104.4697 306.3724 101.6487 311.7761 84 323.4167 C79.4036 326.4483 78.5611 327.7213 76 332.4167 C73.0905 337.7508 72.877 339.0581 72 345.4167 C70.9645 352.924 71.1016 353.9298 72 361.4167 C72.5256 365.7965 73.0187 366.2559 75 370.4167 C77.9132 376.5344 77.8506 377.1055 82 382.4167 C90.0909 392.773 90.0323 396.2462 100 402.4167 C118.623 413.9452 122.8187 413.7805 145 421.4167 C152.1821 423.8892 161 423.4167 161 423.4167 "/>
<path id="20" d="M328 422.4167 C328 422.4167 360.3346 426.0784 382 422.4167 C389.6343 421.1264 392.6076 417.2657 399 410.4167 C405.4842 403.4693 405.7204 401.754 410 392.4167 C416.5084 378.2165 416.1819 377.5133 421 362.4167 C423.6278 354.183 424.1819 353.8024 425 345.4167 C426.1291 333.8437 427.1802 331.833 425 321.4167 C423.1029 312.3528 421.8382 308.6315 416 302.4167 C408.6282 294.5693 405.3738 294.3311 394 288.4167 C380.6994 281.5004 380.1444 281.5327 366 276.4167 C356.8992 273.1249 356.4241 272.5947 347 271.4167 C333.0139 269.6684 332.1491 270.0629 318 270.4167 C312.6041 270.5516 311.2176 270.3079 307 272.4167 C301.5522 275.1406 298.4237 276.7118 296 281.4167 C291.5231 290.1071 290.957 293.6138 290 305.4167 C288.0459 329.5174 286.5649 332.802 290 355.4167 C292.1176 369.3576 294.7208 371.258 302 384.4167 C307.2584 393.9223 308.4053 394.8219 316 402.4167 C320.7467 407.1634 321.8955 408.2718 328 410.4167 C339.0283 414.2915 340.5018 413.9338 353 415.4167 C369.7194 417.4003 387 417.4167 387 417.4167 "/>
<path id="21" d="M530 295.4167 C530 295.4167 522.0795 294.3113 516 295.4167 C512.2102 296.1057 511.4163 296.8994 508 299.4167 C502.2678 303.6404 500.9969 304.0091 497 309.4167 C493.1565 314.6168 491.5115 316.2788 491 322.4167 C488.3068 354.7352 488.7867 360.2521 490 393.4167 C490.1906 398.6259 491.1931 399.68 494 404.4167 C498.8518 412.6042 499.3565 414.9186 506 420.4167 C512.2169 425.5617 514.887 426.4499 523 428.4167 C529.8539 430.0782 532.4972 430.4175 539 428.4167 C549.8484 425.0787 553.8108 423.6699 562 416.4167 C569.0203 410.1987 572.5434 406.2605 574 397.4167 C578.606 369.4518 578.9479 359.9129 576 331.4167 C575.0081 321.8283 570.9723 319.5509 565 310.4167 C563.1097 307.5256 562.2389 306.9803 559 305.4167 C548.4735 300.3349 547.0875 299.1136 536 296.4167 C529.8376 294.9177 522 296.4167 522 296.4167 "/>
<path id="22" d="M13 56.4167 C13 56.4167 23.3124 106.1603 27 155.4167 C30.2436 198.7414 25.7355 200.4251 27 243.4167 C27.2024 250.2993 29.4813 250.5001 30 257.4167 C30.9481 270.0586 28.9249 272.3073 30 283.4167 C30.2188 285.6771 32.8143 286.1418 33 288.4167 C34.5608 307.5365 32.4077 311.7162 34 332.4167 C34.2973 336.2822 35.2348 338.4553 37 340.4167 C38.2208 341.7731 40.0229 342.0764 43 342.4167 C56.9707 344.0133 72 344.4167 72 344.4167 "/>
<path id="23" d="M210 355.4167 C210 355.4167 248.5345 353.9329 286 355.4167 C298.4023 355.9079 298.5985 358.9351 311 359.4167 C349.4537 360.91 350.1037 360.685 389 359.4167 C441.9567 357.6898 495 353.4167 495 353.4167 "/>
<path id="24" d="M594 358.4167 C594 358.4167 612.148 358.8224 630 358.4167 C633.9784 358.3263 636.8404 357.8515 638 357.4167 C638.1038 357.3777 638 355.4167 638 355.4167 "/>
<path id="25" d="M17 52.4167 C17 52.4167 108.1853 53.5961 199 52.4167 C223.4695 52.0989 223.5431 49.5622 248 49.4167 C391.1925 48.5643 393.4723 46.2663 535 50.4167 C561.7563 51.2013 562.0973 56.6432 589 59.4167 C610.1111 61.5931 612.5209 59.5509 632 60.4167 C632.9252 60.4578 633.9597 61.0945 634 61.4167 C634.4833 65.2833 632.666 69.556 634 76.4167 C635.9887 86.6442 641 97.4167 641 97.4167 "/>
<path id="26" d="M30 107.4167 C30 107.4167 68.8146 117.5002 107 118.4167 C254.2537 121.9508 257.7215 123.1922 405 116.4167 C462.2045 113.785 462.4868 105.7431 520 99.4167 C562.1002 94.7856 563.2553 98.7351 605 94.4167 C620.486 92.8147 636 87.4167 636 87.4167 "/>
<path id="27" d="M40 189.4167 C40 189.4167 39.9987 187.4167 40 187.4167 C62.9993 187.293 134.7769 184.4846 226 188.4167 C248.7455 189.3971 249.2409 196.0233 272 197.4167 C321.3796 200.4399 322.973 195.63 373 197.4167 C392.4058 198.1097 392.6009 201.8324 412 202.4167 C474.9284 204.3121 476.1337 205.0777 539 202.4167 C569.8583 201.1105 570.268 199.0848 601 194.4167 C609.5599 193.1164 609.9345 193.2396 618 190.4167 C629.6161 186.351 641 180.4167 641 180.4167 "/>
<path id="28" d="M42 130.4167 C42 130.4167 40.0731 134.5405 40 138.4167 C39.5907 160.1085 41 183.4167 41 183.4167 "/>
<path id="29" d="M44 130.4167 C44 130.4167 89.2483 133.3418 100 135.4167 C100.4073 135.4953 101.3268 138.6719 101 141.4167 C98.9601 158.5521 98.3682 162.8213 95 177.4167 C94.6673 178.8582 93.4856 180.0069 92 180.4167 C81.3734 183.3481 78.7881 184.5032 66 185.4167 C51.4791 186.4539 36 184.4167 36 184.4167 "/>
<path id="30" d="M120 141.4167 C120 141.4167 114.8857 176.0674 117 178.4167 C119.3486 181.0262 153.6916 183.1783 156 181.4167 C157.4727 180.2928 156.9888 164.3326 155 149.4167 C154.1541 143.0727 152.1061 137.2357 150 136.4167 C143.4256 133.86 119 135.4167 119 135.4167 "/>
<path id="31" d="M189 144.4167 C189 144.4167 184.5172 150.9685 183 157.4167 C180.7396 167.0232 181 178.4167 181 178.4167 "/>
<path id="32" d="M187 141.4167 C187 141.4167 187.7452 138.4398 188 138.4167 C192.1859 138.0361 199.1572 137.7293 209 139.4167 C215.9072 140.6008 222.2239 142.2824 223 144.4167 C226.0555 152.8193 226.7898 176.4203 225 183.4167 C224.6593 184.7483 218.3586 186.5396 212 187.4167 C204.4927 188.4522 203.1617 188.8911 196 187.4167 C187.298 185.6251 178 180.4167 178 180.4167 "/>
<path id="33" d="M230 63.4167 C230 63.4167 223.2581 151.5915 227 232.4167 C228.0548 255.2012 236.9378 256.2313 240 279.4167 C243.7169 307.5588 241 338.4167 241 338.4167 "/>
<path id="34" d="M401 57.4167 C401 57.4167 398.6459 169.7007 400 274.4167 C400.0939 281.6805 404 289.4167 404 289.4167 "/>
<path id="35" d="M427 129.4167 C427 129.4167 424.3001 137.0141 424 144.4167 C422.8291 173.2991 424 203.4167 424 203.4167 "/>
<path id="36" d="M426 126.4167 C426 126.4167 460.1154 122.8033 464 123.4167 C464.1471 123.4399 464.5644 128.0896 464 132.4167 C463.0975 139.3358 461.3286 139.517 461 146.4167 C459.8617 170.3216 464.0891 191.2422 461 195.4167 C459.2108 197.8345 424 196.4167 424 196.4167 "/>
<path id="37" d="M483 124.4167 C483 124.4167 483.5889 140.8457 482 156.4167 C481.1384 164.8605 478.6706 165.1454 478 173.4167 C477.2289 182.9267 479 193.4167 479 193.4167 "/>
<path id="38" d="M490 120.4167 C490 120.4167 526.601 120.8741 532 122.4167 C532.3623 122.5202 532.8592 127.7769 532 132.4167 C530.4598 140.7339 528.0414 140.9551 527 149.4167 C524.1404 172.6508 527.4773 192.2534 524 197.4167 C522.5259 199.6054 508.6611 199.0276 494 198.4167 C485.1299 198.0471 476 195.4167 476 195.4167 "/>
<path id="39" d="M555 123.4167 C555 123.4167 556.7387 132.3169 555 139.4167 C551.0945 155.364 546.5525 156.4303 543 172.4167 C540.9083 181.8292 543 193.4167 543 193.4167 "/>
<path id="40" d="M562 121.4167 C562 121.4167 593.0297 116.0573 594 116.4167 C594.0179 116.4233 590.2407 123.8691 589 131.4167 C584.3616 159.6334 587.7381 176.9842 582 189.4167 C580.3492 192.9933 569.6251 192.1002 559 196.4167 C554.2977 198.327 552.0507 202.1237 550 202.4167 C549.0787 202.5483 545 198.4167 545 198.4167 "/>
<path id="41" d="M612 63.4167 C612 63.4167 609.8967 88.6451 606 113.4167 C602.9207 132.9924 600.1544 133.0273 598 152.4167 C595.7256 172.8862 598.8416 173.8519 597 194.4167 C595.8865 206.8503 592.6789 207.0608 592 219.4167 C590.2272 251.6815 589.0612 254.0692 592 285.4167 C593.3734 300.0663 597.6326 300.8246 601 315.4167 C601.9448 319.5109 600.2286 321.331 601 324.4167 C601.3214 325.7024 603.7949 326.1348 604 327.4167 C605.3061 335.5796 605 349.4167 605 349.4167 "/>
<path id="42" d="M364 149.4167 C364 149.4167 389.9121 147.0972 393 147.4167 C393.0555 147.4224 393.1119 152.3959 393 152.4167 C389.7369 153.0209 366 152.4167 366 152.4167 "/>
<path id="43" d="M201 152.4167 C201 152.4167 203.5728 160.3099 204 160.4167 C204.6622 160.5822 211.1784 157.7848 213 155.4167 C214.3398 153.675 214.3274 147.7077 214 147.4167 C213.4642 146.9404 204.7633 146.5898 204 147.4167 C202.7724 148.7466 202 160.4167 202 160.4167 "/>
<path id="44" d="M204 162.4167 C204 162.4167 206.0743 163.9524 206 164.4167 C204.9407 171.0374 200 187.4167 200 187.4167 "/>
<path id="45" d="M205 169.4167 L195 177.4167 "/>
<path id="46" d="M206 174.4167 L211 177.4167 "/>
<path id="47" d="M140 159.4167 C140 159.4167 137.5076 158.9937 137 159.4167 C135.7873 160.4272 134.7048 161.9497 134 164.4167 C132.8826 168.3277 132.7581 173.2957 133 173.4167 C134.1405 173.9869 142.8659 173.9676 150 172.4167 C152.8464 171.7979 154.0726 170.585 156 168.4167 C157.3997 166.842 157.3158 165.8112 158 163.4167 C158.2456 162.5571 158.048 161.4251 158 161.4167 C155.6661 161.0048 143.8756 159.9374 141 160.4167 C140.7153 160.4641 140 164.4167 140 164.4167 "/>
<path id="48" d="M148 182.4167 C148 182.4167 146.0947 179.4167 146 179.4167 C145.9053 179.4167 144 182.4167 144 182.4167 "/>
<path id="49" d="M65 149.4167 C65 149.4167 65.0062 154.9259 66 156.4167 C66.6914 157.4537 68.6019 158.1502 71 158.4167 C76.9697 159.08 80.2233 159.172 84 158.4167 C84.7553 158.2656 86 156.4347 86 155.4167 C86 153.0413 85.0413 148.9099 84 148.4167 C80.4843 146.7513 69.2079 145.4231 67 146.4167 C65.9098 146.9073 64 157.4167 64 157.4167 "/>
<path id="50" d="M76 161.4167 C76 161.4167 68.1479 159.2569 65 160.4167 C61.7586 161.6109 58.6088 164.4677 57 168.4167 C54.1105 175.5091 54 187.4167 54 187.4167 "/>
<path id="51" d="M59 181.4167 C59 181.4167 60.1563 177.6803 61 177.4167 C64.7153 176.2556 75 176.4167 75 176.4167 "/>
<path id="52" d="M436 168.4167 C436 168.4167 441.859 169.2154 443 168.4167 C444.2877 167.5153 445.0687 164.9557 446 161.4167 C447.4977 155.7255 448.452 153.0325 448 149.4167 C447.8269 148.0319 445.637 145.6592 444 145.4167 C435.8016 144.2021 429.3251 144.7507 421 145.4167 C420.2182 145.4792 419.0945 146.6135 419 147.4167 C418.3659 152.8062 417.4671 157.818 419 162.4167 C419.8516 164.9715 422.6914 167.2586 426 168.4167 C430.8539 170.1155 439 169.4167 439 169.4167 "/>
<path id="53" d="M432 172.4167 L431 191.4167 "/>
<path id="54" d="M433 184.4167 C433 184.4167 438.3151 182.9112 440 183.4167 C441.0562 183.7335 443 187.4167 443 187.4167 "/>
<path id="55" d="M511 156.4167 C511 156.4167 503.3337 153.4165 501 154.4167 C496.9889 156.1357 492.4273 161.533 490 165.4167 C489.4059 166.3672 490.052 169.3333 491 170.4167 C492.3312 171.9381 494.1593 172.9154 497 173.4167 C501.7856 174.2612 506.8923 174.4453 508 173.4167 C509.5177 172.0073 509.8717 166.8101 511 160.4167 C511.3336 158.5264 511.0705 156.5224 511 156.4167 C510.9941 156.4079 509 157.4167 509 157.4167 "/>
<path id="56" d="M497 180.4167 C497 180.4167 501.9978 178.3968 502 178.4167 C502.0161 178.5618 498 189.4167 498 189.4167 "/>
<path id="57" d="M506 179.4167 C506 179.4167 502.9522 183.1297 503 183.4167 C503.0364 183.6353 507 185.4167 507 185.4167 "/>
<path id="58" d="M572 148.4167 C572 148.4167 565.0604 147.6765 561 149.4167 C556.229 151.4614 553.2335 154.0664 551 157.4167 C549.934 159.0157 550.3637 164.0228 551 164.4167 C554.6291 166.6632 561.7643 168.1421 572 170.4167 C574.7499 171.0278 577.828 170.732 578 170.4167 C578.578 169.357 579.1408 163.0672 578 159.4167 C577.3194 157.2388 573.06 154.3967 573 154.4167 C572.94 154.4367 572 161.4167 572 161.4167 "/>
<path id="59" d="M564 172.4167 L553 200.4167 "/>
<path id="60" d="M562 181.4167 L570 182.4167 "/>
<path id="61" d="M563 182.4167 C563 182.4167 559.7519 181.6867 558 182.4167 C554.8174 183.7427 551 187.4167 551 187.4167 "/>
<path id="62" d="M294 310.4167 C294 310.4167 292.856 304.6579 294 301.4167 C295.286 297.7729 297.0126 295.174 300 293.4167 C303.3978 291.418 305.6016 291.5422 311 291.4167 C326.627 291.0533 328.8862 289.0562 343 292.4167 C358.0311 295.9955 361.426 297.6149 374 306.4167 C384.3859 313.6868 389.8866 317.7799 393 327.4167 C398.1219 343.2703 396.8841 351.9471 395 371.4167 C394.1925 379.7608 391.4508 382.8888 387 389.4167 C385.3352 391.8583 383.5355 392.5043 380 393.4167 C368.9817 396.2601 367.7374 396.982 356 397.4167 C341.4542 397.9554 337.722 398.88 326 395.4167 C319.39 393.4637 315.7697 388.7249 312 384.4167 C311.1893 383.4902 312.5988 381.0135 312 379.4167 C311.506 378.0993 309.3702 377.8974 309 376.4167 C304.3356 357.759 303.1774 353.6584 300 331.4167 C298.7643 322.7671 300 313.4167 300 313.4167 "/>
<path id="63" d="M115 320.4167 C115 320.4167 127.1705 314.5297 139 311.4167 C145.3988 309.7328 147.6635 308.8471 153 310.4167 C162.0469 313.0775 164.6367 315.1442 173 321.4167 C177.5887 324.8582 179.033 326.21 181 331.4167 C186.8002 346.7701 187.395 349.4844 190 366.4167 C191.2061 374.2564 191.2892 378.0059 189 383.4167 C187.2617 387.5255 184.2467 390.0182 179 392.4167 C168.5171 397.2088 166.2717 397.8548 154 399.4167 C139.7807 401.2264 135.1035 402.3776 124 399.4167 C117.2639 397.6204 113.641 393.8257 109 387.4167 C104.667 381.433 106.109 376.9801 103 370.4167 C102.464 369.2851 100.0641 369.0999 100 368.4167 C99.1576 359.4315 98.9464 352.8157 100 338.4167 C100.394 333.0317 100.7215 331.0623 103 327.4167 C104.6591 324.7621 106.382 323.8324 110 322.4167 C117.0956 319.6401 126 318.4167 126 318.4167 "/>
<path id="64" d="M514 321.4167 C514 321.4167 512.9131 319.5035 513 319.4167 C514.8241 317.5926 519.5333 312.309 525 310.4167 C530.0633 308.664 532.3404 309.6175 539 310.4167 C544.4038 311.0651 545.7062 310.9631 550 313.4167 C555.114 316.3389 557.6149 317.8169 560 322.4167 C563.3752 328.926 563.354 331.5347 564 340.4167 C565.3067 358.3837 565.0606 359.1207 564 377.4167 C563.076 393.3548 562.9866 394.8571 560 409.4167 C559.2884 412.8859 558.0941 415.2533 556 416.4167 C551.8413 418.7271 548.8473 419.119 542 419.4167 C526.5145 420.09 514.6101 421.2824 510 418.4167 C507.3607 416.7761 505.9485 407.3242 505 396.4167 C503.0093 373.5235 502.8778 371.4865 504 349.4167 C504.2917 343.6801 505.0445 342.0611 508 337.4167 C511.325 332.1917 518 327.4167 518 327.4167 "/>
<path id="65" d="M519 317.4167 C519 317.4167 511.1955 324.2919 508 330.4167 C506.2058 333.8556 506.7264 337.1329 507 340.4167 C507.0598 341.1341 509 342.4167 509 342.4167 "/>
</g>
</g>
</svg>
