<?xml version="1.0" encoding="utf-8"?>
<!DOCTYPE svg PUBLIC "-//W3C//DTD SVG 1.1//EN" "http://www.w3.org/Graphics/SVG/1.1/DTD/svg11.dtd">
<svg viewBox="0 0 800 800" preserveAspectRatio="xMinYMin meet" xmlns="http://www.w3.org/2000/svg" version="1.1">
<g fill="none" stroke="black" stroke-linecap="round" stroke-linejoin="round" stroke-width="2.2705">
<g transform="translate(87.52,171.4205) scale(1.3213) translate(-78,-13.4167)">
<path id="0" d="M79 197.4167 C79 197.4167 78.3457 244.51 80 290.4167 C80.322 299.3517 83 308.4167 83 308.4167 "/>
<path id="1" d="M79 201.4167 C79 201.4167 82.4145 197.6383 85 197.4167 C96.7861 196.4064 113.4478 197.0165 114 198.4167 C117.0905 206.2533 110.4122 234.4874 113 268.4167 C114.8047 292.078 123.2847 309.0135 123 316.4167 C122.9733 317.1103 117.0288 319.3061 111 320.4167 C98.4317 322.7319 92.6287 324.1549 85 323.4167 C83.3441 323.2564 81.2407 320.4297 80 317.4167 C78.1797 312.996 78 306.4167 78 306.4167 "/>
<path id="2" d="M112 222.4167 L149 220.4167 "/>
<path id="3" d="M141 130.4167 C141 130.4167 142.2183 180.5459 144 222.4167 C144.0395 223.345 144.9923 224.432 145 224.4167 C145.097 224.2227 151 208.4167 151 208.4167 "/>
<path id="4" d="M161 130.4167 C161 130.4167 158.7084 168.5702 161 201.4167 C161.4977 208.5497 167 216.4167 167 216.4167 "/>
<path id="5" d="M115 106.4167 C115 106.4167 113.2985 114.8591 115 118.4167 C117.3056 123.2375 121.3548 128.5847 126 129.4167 C146.1204 133.0203 182 130.4167 182 130.4167 "/>
<path id="6" d="M114 107.4167 C114 107.4167 126.2352 102.0637 138 100.4167 C150.2452 98.7023 154.7739 97.4128 164 100.4167 C171.6499 102.9074 174.2793 107.3599 181 114.4167 C183.1943 116.7207 183.2791 118.0525 184 121.4167 C184.6603 124.4979 184.6345 126.5132 184 128.4167 C183.7281 129.2324 181 130.4167 181 130.4167 "/>
<path id="7" d="M166 218.4167 L168 221.4167 "/>
<path id="8" d="M168 214.4167 C168 214.4167 224.3577 215.5883 258 217.4167 C258.7868 217.4594 260 219.4167 260 219.4167 "/>
<path id="9" d="M163 307.4167 C163 307.4167 159.0434 302.0057 156 301.4167 C147.0503 299.6845 143.5335 300.1352 132 301.4167 C121.6412 302.5676 117.9749 302.8001 111 306.4167 C107.8465 308.0518 106.1564 311.1216 105 315.4167 C103.1188 322.4039 102.3379 326.5992 104 332.4167 C105.3496 337.1403 107.8676 339.4818 113 343.4167 C121.8909 350.2331 123.3601 350.5527 134 355.4167 C140.3587 358.3235 141.263 358.7851 148 359.4167 C156.392 360.2034 159.4423 360.6026 166 358.4167 C170.1731 357.0256 173.4525 354.2854 175 350.4167 C178.095 342.6792 179.3039 337.3268 178 328.4167 C176.7713 320.0206 174.1864 317.0437 169 309.4167 C166.6381 305.9432 161 303.4167 161 303.4167 "/>
<path id="10" d="M179 330.4167 C179 330.4167 209.798 332.4077 239 330.4167 C252.8267 329.4739 267 324.4167 267 324.4167 "/>
<path id="11" d="M288 294.4167 C288 294.4167 274.7853 292.902 266 294.4167 C262.8604 294.958 260.7774 296.6698 259 299.4167 C256.279 303.6218 255.7303 305.5746 255 311.4167 C253.8316 320.764 252.9195 323.326 255 331.4167 C256.8011 338.4209 258.8314 340.1599 264 346.4167 C267.7462 350.9516 268.8811 351.7353 274 354.4167 C278.5349 356.7921 279.6001 356.8581 285 357.4167 C293.5937 358.3057 295.6522 358.6413 303 357.4167 C305.7214 356.9631 306.2991 355.6674 309 353.4167 C312.1832 350.764 312.9826 350.6446 315 347.4167 C317.5865 343.2783 318.3587 342.2902 319 337.4167 C320.7138 324.3921 320.3854 322.5206 320 309.4167 C319.9165 306.5782 319.499 305.915 318 303.4167 C315.2519 298.8365 314.8224 297.7295 311 294.4167 C308.0385 291.85 306.7898 291.1057 303 290.4167 C296.9205 289.3113 294.8942 289.294 289 290.4167 C285.7321 291.0391 283.408 292.4807 282 294.4167 C280.8032 296.0623 281 301.4167 281 301.4167 "/>
<path id="12" d="M385 289.4167 C385 289.4167 378.1103 287.1996 375 288.4167 C369.5254 290.5589 365.8631 293.1901 362 298.4167 C358.8564 302.6698 358.9085 305.0575 358 311.4167 C356.9959 318.4452 356.8482 320.0817 358 326.4167 C358.5934 329.6801 359.5262 330.7526 362 333.4167 C365.5458 337.2352 366.3467 338.2839 371 340.4167 C377.4161 343.3574 378.6304 343.6608 386 344.4167 C397.4775 345.5939 400.1067 345.7358 410 344.4167 C412.6932 344.0576 413.8889 342.7389 416 340.4167 C418.375 337.8042 419.8226 336.4324 420 333.4167 C420.6591 322.2117 421.0212 316.5789 418 306.4167 C416.6122 301.7486 413.9395 300.0676 409 296.4167 C403.222 292.146 401.425 290.746 395 289.4167 C388.8475 288.1437 380 290.4167 380 290.4167 "/>
<path id="13" d="M322 323.4167 C322 323.4167 325.1082 325.256 328 325.4167 C342.1963 326.2054 347.1142 326.097 358 325.4167 C358.7711 325.3685 360 323.4167 360 323.4167 "/>
<path id="14" d="M277 292.4167 C277 292.4167 272.1004 283.6698 271 275.4167 C269.269 262.4342 272.0375 261.1631 271 247.4167 C270.0625 234.9949 269.3724 234.6741 267 222.4167 C266.4121 219.3792 265.8165 217.3965 265 216.4167 C264.7337 216.0972 262 216.4167 262 216.4167 "/>
<path id="15" d="M259 169.4167 C259 169.4167 255.7439 188.3435 257 203.4167 C257.5383 209.8766 263 217.4167 263 217.4167 "/>
<path id="16" d="M258 171.4167 C258 171.4167 258.6866 169.4497 259 169.4167 C263.6608 168.9261 268.3532 170.2814 277 169.4167 C282.9087 168.8258 283.1117 166.77 289 166.4167 C307.3708 165.3144 308.9152 163.8932 327 166.4167 C350.6409 169.7154 369.939 170.7084 375 178.4167 C386.4166 195.8051 382.1888 222.5379 392 265.4167 C395.5933 281.1209 402 296.4167 402 296.4167 "/>
<path id="17" d="M259 170.4167 C259 170.4167 244.0007 171.7812 243 170.4167 C240.0663 166.4161 238.8903 154.7828 237 140.4167 C236.5169 136.7453 237.35 132.6283 238 132.4167 C245.9256 129.8362 259.115 127.4438 280 126.4167 C319.5034 124.4739 322.7295 124.4129 360 126.4167 C366.1817 126.749 367.3832 128.2071 373 131.4167 C377.2505 133.8455 378.7901 134.5494 381 138.4167 C385.8836 146.9629 387.0754 149.5189 389 159.4167 C390.2633 165.9136 389.8445 170.7277 388 174.4167 C386.8695 176.6776 382.8312 178.395 379 179.4167 C376.8743 179.9835 373 178.4167 373 178.4167 "/>
<path id="18" d="M286 202.4167 C286 202.4167 290.4612 213.3382 293 224.4167 C295.8951 237.0498 297 250.4167 297 250.4167 "/>
<path id="19" d="M288 205.4167 C288 205.4167 346.3623 201.0228 354 203.4167 C354.9591 203.7173 353.3513 215.4254 355 226.4167 C356.2641 234.8441 360.511 243.041 360 243.4167 C356.9421 245.6651 340.2908 248.967 321 251.4167 C309.4301 252.8859 307.0143 252.1585 297 251.4167 C295.6864 251.3194 294.3594 250.2554 294 249.4167 C293.453 248.1404 294 244.4167 294 244.4167 "/>
<path id="20" d="M314 214.4167 L323 247.4167 "/>
<path id="21" d="M304 232.4167 C304 232.4167 312.2747 232.8072 320 231.4167 C336.9212 228.3709 354 223.4167 354 223.4167 "/>
<path id="22" d="M118 103.4167 C118 103.4167 129.7272 89.5113 139 75.4167 C141.8011 71.159 141.9839 70.243 143 65.4167 C143.8434 61.4103 143 56.4167 143 56.4167 C143.3016 56.4167 152.766 61.9339 156 65.4167 C156.7674 66.2431 156.3257 70.2538 156 70.4167 C154.0457 71.3938 145.0318 72.4167 142 72.4167 C141.7834 72.4167 140.9694 70.4196 141 70.4167 C141.8328 70.3374 160.2725 70.1687 163 70.4167 C163.0225 70.4187 163.3678 72.0047 163 72.4167 C154.1138 82.3692 138 98.4167 138 98.4167 "/>
<path id="23" d="M152 50.4167 C152 50.4167 148.5236 50.9403 148 50.4167 C146.4292 48.8459 145.0126 46.214 144 42.4167 C143.2182 39.4849 143.6777 35.6584 144 35.4167 C144.445 35.0829 151.7695 36.7938 152 36.4167 C153.2346 34.3964 154.257 18.8202 155 17.4167 C155.0425 17.3365 158.9459 17.8366 161 19.4167 C164.5841 22.1737 167.1328 27.5034 168 27.4167 C169.9582 27.2209 174.344 20.7447 181 17.4167 C187.2862 14.2736 196 13.4167 196 13.4167 "/>
<path id="24" d="M294 316.4167 C294 316.4167 288.535 317.525 288 318.4167 C287.2357 319.6905 287.0285 325.4452 288 326.4167 C290.4288 328.8454 295.5171 332.108 302 332.4167 C333.7228 333.9273 340.3025 332.8549 372 330.4167 C375.7537 330.1279 378.7773 328.0979 380 326.4167 C380.8717 325.218 380.7987 320.5577 380 319.4167 C379.0986 318.1289 376.3222 316.631 373 316.4167 C347.5692 314.776 340.467 316.9399 318 315.4167 C316.2851 315.3004 315.7446 312.6347 314 312.4167 C306.0246 311.4197 301.0053 311.0156 294 312.4167 C291.8984 312.837 289.1372 316.9366 289 317.4167 C288.9756 317.502 292 319.4167 292 319.4167 "/>
<path id="25" d="M309 321.4167 C309 321.4167 312.8546 321.1549 313 321.4167 C313.6253 322.5421 314.4926 329.5956 314 330.4167 C313.695 330.9249 307.3549 331.811 307 331.4167 C306.1429 330.4643 305 320.4167 305 320.4167 "/>
<path id="26" d="M372 323.4167 C372 323.4167 374.9794 322.3823 375 322.4167 C375.1547 322.6745 375.5075 327.7062 375 328.4167 C374.6133 328.958 370.1258 329.5676 370 329.4167 C369.7219 329.083 370 322.4167 370 322.4167 "/>
<path id="27" d="M140 319.4167 C140 319.4167 136.9649 318.8653 136 319.4167 C134.7249 320.1453 133.2791 321.6489 133 323.4167 C132.0641 329.3439 132.3108 337.7767 133 338.4167 C133.6008 338.9746 145.9828 337.7245 147 336.4167 C148.2628 334.7931 147.6397 326.174 147 320.4167 C146.9112 319.617 145.7024 318.4947 145 318.4167 C142.8224 318.1747 138.5562 318.6519 138 319.4167 C137.0205 320.7635 137 329.4167 137 329.4167 "/>
<path id="28" d="M407 131.4167 C407 131.4167 397.6723 130.2745 394 132.4167 C388.9759 135.3474 385.1298 139.3822 383 145.4167 C380.3062 153.0491 380.0329 159.4226 382 166.4167 C383.3114 171.0794 386.9697 173.0571 392 177.4167 C393.734 178.9195 394.6581 179.3703 397 179.4167 C441.6108 180.3001 450.4195 184.9424 493 179.4167 C509.5027 177.2751 519.5484 167.7291 528 162.4167 C528.5814 162.0512 528.7135 158.2016 528 157.4167 C525.8464 155.0477 523.1769 153.4206 518 151.4167 C508.2018 147.6238 507.2846 147.2866 497 145.4167 C491.4133 144.4009 490.7605 146.3091 485 145.4167 C455.8593 140.9019 455.4532 138.49 426 134.4167 C408.8324 132.0424 391 132.4167 391 132.4167 "/>
<path id="29" d="M502 180.4167 C502 180.4167 509.4417 188.9745 514 198.4167 C523.143 217.3558 522.415 218.2873 530 238.4167 C535.3998 252.7468 536.0851 252.8009 540 267.4167 C543.5023 280.4918 545 294.4167 545 294.4167 "/>
<path id="30" d="M398 318.4167 C398 318.4167 391.4375 317.9792 391 318.4167 C390.5625 318.8542 389.9004 323.3396 391 325.4167 C393.3193 329.7977 396.4927 333.663 400 335.4167 C402.1294 336.4814 408.3193 335.3016 409 334.4167 C410.0971 332.9904 410.9156 325.3465 410 322.4167 C409.5398 320.9439 406.7641 319.1077 404 318.4167 C400.0513 317.4295 394 318.4167 394 318.4167 "/>
<path id="31" d="M401 324.4167 C401 324.4167 402.9502 325.1675 403 325.4167 C403.1353 326.0931 402 329.4167 402 329.4167 "/>
<path id="32" d="M537 286.4167 C537 286.4167 534.7886 284.4744 533 284.4167 C521.1327 284.0339 511.6586 282.5874 506 285.4167 C502.9135 286.9599 500.0673 294.1594 499 301.4167 C497.8904 308.9623 498.4192 311.9088 501 319.4167 C503.3607 326.2843 504.778 327.7199 510 333.4167 C515.1438 339.0281 517.0951 341.3805 523 343.4167 C528.744 345.3974 533.9227 345.3695 539 343.4167 C543.3939 341.7267 547.6641 337.9808 549 333.4167 C552.264 322.2646 552.2339 315.6816 551 302.4167 C550.4971 297.0106 548.5627 295.6237 545 290.4167 C542.392 286.605 541.4528 284.7447 538 283.4167 C530.8203 280.6553 525.4129 279.9036 519 280.4167 C516.8122 280.5917 513 285.4167 513 285.4167 "/>
<path id="33" d="M522 311.4167 C522 311.4167 523.5211 317.4307 525 318.4167 C526.8647 319.6598 531.0845 319.6817 534 319.4167 C534.714 319.3518 535.8834 318.2327 536 317.4167 C536.612 313.1328 537.0833 308.125 536 305.4167 C535.5125 304.1979 532.6983 302.6865 530 302.4167 C524.0466 301.8213 518.8481 301.9088 516 303.4167 C514.5817 304.1675 513 311.4167 513 311.4167 "/>
<path id="34" d="M408 321.4167 C408 321.4167 412.011 316.5418 416 315.4167 C429.339 311.6544 431.6154 311.1356 447 310.4167 C484.435 308.6674 513.6617 309.1879 523 310.4167 C523.1617 310.4379 523.7854 318.0604 523 320.4167 C522.7382 321.2021 521.0719 321.7655 519 322.4167 C503.8569 327.1759 503.5976 327.8369 488 331.4167 C473.3072 334.7888 472.8977 335.3049 458 336.4167 C439.8519 337.771 438.0768 337.87 421 336.4167 C416.2275 336.0105 413.1533 334.3742 411 332.4167 C409.9808 331.4901 410 326.4167 410 326.4167 "/>
<path id="35" d="M519 309.4167 C519 309.4167 516.075 309.2667 516 309.4167 C515.7 310.0167 515.421 314.8377 516 315.4167 C516.9649 316.3816 524 317.4167 524 317.4167 "/>
<path id="36" d="M423 324.4167 C423 324.4167 433.1558 325.3116 443 324.4167 C471.3692 321.8376 500 317.4167 500 317.4167 "/>
<path id="37" d="M426 205.4167 C426 205.4167 433.6829 220.7451 439 236.4167 C443.0596 248.3818 445 261.4167 445 261.4167 "/>
<path id="38" d="M435 203.4167 C435 203.4167 465.2237 201.7456 482 202.4167 C483.1146 202.4613 484.4411 203.826 485 205.4167 C490.1717 220.136 491.4971 223.8483 495 239.4167 C495.558 241.8969 495.154 244.5136 494 245.4167 C487.6399 250.3941 482.5878 254.2885 472 257.4167 C462.7592 260.1469 458.0911 259.5725 450 258.4167 C447.5145 258.0616 444 253.4167 444 253.4167 "/>
<path id="39" d="M459 205.4167 C459 205.4167 463.8206 211.7332 466 218.4167 C471.078 233.9892 469.0802 235.4274 474 251.4167 C476.9775 261.0935 482.0012 270.4044 482 270.4167 C481.9995 270.4221 473 261.4167 473 261.4167 "/>
<path id="40" d="M442 242.4167 C442 242.4167 441.8804 239.4466 442 239.4167 C447.9816 237.9213 478 233.4167 478 233.4167 "/>
<path id="41" d="M490 233.4167 L488 233.4167 "/>
<path id="42" d="M490 232.4167 L483 231.4167 "/>
</g>
</g>
</svg>
