<?xml version="1.0" encoding="utf-8"?>
<!DOCTYPE svg PUBLIC "-//W3C//DTD SVG 1.1//EN" "http://www.w3.org/Graphics/SVG/1.1/DTD/svg11.dtd">
<svg viewBox="0 0 800 800" preserveAspectRatio="xMinYMin meet" xmlns="http://www.w3.org/2000/svg" version="1.1">
<g fill="none" stroke="black" stroke-linecap="round" stroke-linejoin="round" stroke-width="2.8994">
<g transform="translate(87.52,304.8074) scale(1.0347) translate(-27,-101.4167)">
<path id="0" d="M29 179.4167 C29 179.4167 25.9811 243.0726 29 244.4167 C44.2311 251.1976 161.0694 251.1885 175 244.4167 C178.0559 242.9311 176.794 176.2111 173 174.4167 C157.2222 166.9542 45.1954 173.4197 27 174.4167 C26.9454 174.4197 27 182.4167 27 182.4167 "/>
<path id="1" d="M178 210.4167 L190 210.4167 "/>
<path id="2" d="M193 176.4167 L192 177.4167 "/>
<path id="3" d="M192 182.4167 L192 191.4167 "/>
<path id="4" d="M192 192.4167 L192 199.4167 "/>
<path id="5" d="M192 200.4167 L192 218.4167 "/>
<path id="6" d="M192 221.4167 C192 221.4167 189.7957 239.6468 191 242.4167 C191.3972 243.3302 196.5729 244.3223 202 244.4167 C253.1491 245.3062 302.0415 244.6518 306 244.4167 C306.1006 244.4107 303.2752 241.2861 303 238.4167 C300.0513 207.6656 303.5404 174.1088 299 171.4167 C287.6817 164.7058 203.569 170.5453 190 171.4167 C189.944 171.4203 190 178.4167 190 178.4167 "/>
<path id="7" d="M303 206.4167 L326 205.4167 "/>
<path id="8" d="M323 167.4167 L323 172.4167 "/>
<path id="9" d="M323 177.4167 L325 206.4167 "/>
<path id="10" d="M325 210.4167 L325 224.4167 "/>
<path id="11" d="M325 227.4167 L325 238.4167 "/>
<path id="12" d="M325 240.4167 C325 240.4167 324.9733 245.4155 325 245.4167 C339.5983 246.0405 427.5814 247.142 442 245.4167 C442.2064 245.392 443.0079 238.1358 442 231.4167 C438.5912 208.6915 435.7698 208.191 433 185.4167 C431.3532 171.8763 433.8171 157.6191 433 157.4167 C419.6921 154.1191 333.8804 155.5741 320 157.4167 C319.7554 157.4491 320 172.4167 320 172.4167 "/>
<path id="13" d="M62 249.4167 C62 249.4167 53.8159 247.8679 51 249.4167 C47.1473 251.5357 42 260.4167 42 260.4167 "/>
<path id="14" d="M40 264.4167 L39 267.4167 "/>
<path id="15" d="M60 274.4167 C60 274.4167 65.7686 269.3216 68 265.4167 C68.8221 263.978 68.7802 262.2696 68 260.4167 C65.2899 253.9801 62.8804 248.6193 60 246.4167 C58.7319 245.4469 53.9508 245.8545 51 247.4167 C47.2114 249.4224 44.6009 251.6813 43 255.4167 C41.119 259.8057 42 268.4167 42 268.4167 "/>
<path id="16" d="M56 284.4167 C56 284.4167 61.08 286.0567 63 285.4167 C64.92 284.7767 66.9072 282.6023 68 280.4167 C68.7286 278.9596 68.0212 275.4179 68 275.4167 C66.6415 275.3412 55.9614 280.3782 50 279.4167 C45.0359 278.616 42.3977 275.1397 37 270.4167 C35.093 268.7481 34 265.4167 34 265.4167 "/>
<path id="17" d="M34 265.4167 L33 262.4167 "/>
<path id="18" d="M33 262.4167 L34 259.4167 "/>
<path id="19" d="M156 251.4167 L140 255.4167 "/>
<path id="20" d="M138 256.4167 L134 259.4167 "/>
<path id="21" d="M126 275.4167 C126 275.4167 135.9945 281.6219 145 284.4167 C149.1323 285.6991 155 284.4167 155 284.4167 "/>
<path id="22" d="M162 277.4167 C162 277.4167 164.3772 269.2962 163 266.4167 C160.6781 261.5619 151 254.4167 151 254.4167 "/>
<path id="23" d="M215 247.4167 L207 256.4167 "/>
<path id="24" d="M206 257.4167 L200 272.4167 "/>
<path id="25" d="M225 266.4167 L225 263.4167 "/>
<path id="26" d="M225 256.4167 L224 255.4167 "/>
<path id="27" d="M217 246.4167 L219 250.4167 "/>
<path id="28" d="M211 281.4167 C211 281.4167 206.3206 282.331 205 281.4167 C202.0878 279.4006 198.2264 272.9827 198 272.4167 C197.9962 272.4071 201 271.4167 201 271.4167 "/>
<path id="29" d="M213 274.4167 C213 274.4167 222.7492 277.2435 225 277.4167 C225.1557 277.4286 225.9227 276.3448 226 275.4167 C226.3713 270.9615 227.2546 269.3596 226 265.4167 C224.2151 259.807 219 253.4167 219 253.4167 "/>
<path id="30" d="M284 246.4167 L266 264.4167 "/>
<path id="31" d="M278 275.4167 L287 257.4167 "/>
<path id="32" d="M282 249.4167 L281 248.4167 "/>
<path id="33" d="M264 268.4167 L265 270.4167 "/>
<path id="34" d="M276 276.4167 L284 264.4167 "/>
<path id="35" d="M271 275.4167 L262 266.4167 "/>
<path id="36" d="M262 264.4167 L276 246.4167 "/>
<path id="37" d="M278 243.4167 L284 257.4167 "/>
<path id="38" d="M285 257.4167 L283 269.4167 "/>
<path id="39" d="M352 248.4167 C352 248.4167 346.6484 247.2396 344 248.4167 C339.5125 250.4111 337.9221 252.1929 334 256.4167 C332.0066 258.5635 331.3776 259.7735 331 262.4167 C330.5385 265.6472 332 270.4167 332 270.4167 "/>
<path id="40" d="M357 279.4167 C357 279.4167 361.3311 271.6484 363 264.4167 C364.1204 259.5616 364.2625 256.3023 363 253.4167 C362.0747 251.3017 356 248.4167 356 248.4167 "/>
<path id="41" d="M358 280.4167 C358 280.4167 346.7947 281.4865 343 279.4167 C339.8266 277.6857 336 268.4167 336 268.4167 "/>
<path id="42" d="M417 247.4167 L400 262.4167 "/>
<path id="43" d="M398 267.4167 L398 269.4167 "/>
<path id="44" d="M398 271.4167 L398 273.4167 "/>
<path id="45" d="M399 274.4167 L401 276.4167 "/>
<path id="46" d="M415 278.4167 L423 245.4167 "/>
<path id="47" d="M439 206.4167 L459 206.4167 "/>
<path id="48" d="M459 167.4167 L459 219.4167 "/>
<path id="49" d="M459 222.4167 L459 235.4167 "/>
<path id="50" d="M459 239.4167 C459 239.4167 458.9795 244.416 459 244.4167 C477.9795 245.041 595.1182 247.4872 611 244.4167 C611.3768 244.3438 607.3526 217.9702 609 215.4167 C609.9628 213.9244 630.5503 213.9307 631 213.4167 C631.1481 213.2474 624.5449 205.9825 623 199.4167 C621.0546 191.1486 624.2443 180.5479 623 179.4167 C621.4943 178.0479 602.375 180.7917 601 179.4167 C599.625 178.0417 602.2429 158.4205 601 157.4167 C599.2379 155.9934 575.5042 159.4833 575 158.4167 C572.4992 153.1266 578.2634 107.8877 575 102.4167 C573.7599 100.3376 541.9228 99.7249 541 101.4167 C537.4188 107.9821 540.9887 163.9237 539 168.4167 C538.8516 168.7519 526.3118 163.4016 514 162.4167 C489.8402 160.4839 468.2995 161.8902 464 162.4167 C463.9772 162.4195 465 168.4167 465 168.4167 "/>
<path id="51" d="M490 248.4167 C490 248.4167 483.9116 245.7647 480 246.4167 C473.9302 247.4283 471.6026 248.5967 466 252.4167 C461.6221 255.4016 458 261.4167 458 261.4167 "/>
<path id="52" d="M456 265.4167 C456 265.4167 491.134 279.1414 496 278.4167 C497.2757 278.2267 500.81 268.1152 503 258.4167 C504.1163 253.4732 504.2968 249.722 503 247.4167 C501.8137 245.3078 494 242.4167 494 242.4167 "/>
<path id="53" d="M582 247.4167 C582 247.4167 572.4809 248.6907 564 251.4167 C558.8958 253.0573 558.0789 253.4255 554 256.4167 C551.1945 258.474 549 262.4167 549 262.4167 "/>
<path id="54" d="M548 278.4167 L556 285.4167 "/>
<path id="55" d="M559 285.4167 L586 267.4167 "/>
<path id="56" d="M584 261.4167 L582 257.4167 "/>
<path id="57" d="M577 252.4167 L575 251.4167 "/>
</g>
</g>
</svg>
