<?xml version="1.0" encoding="utf-8"?>
<!DOCTYPE svg PUBLIC "-//W3C//DTD SVG 1.1//EN" "http://www.w3.org/Graphics/SVG/1.1/DTD/svg11.dtd">
<svg viewBox="0 0 800 800" preserveAspectRatio="xMinYMin meet" xmlns="http://www.w3.org/2000/svg" version="1.1">
<g fill="none" stroke="black" stroke-linecap="round" stroke-linejoin="round" stroke-width="1.6849">
<g transform="translate(87.52,179.2164) scale(1.7805) translate(-79,-97)">
<path id="0" d="M255 190 C255 190 248.4095 186.1963 245 182 C242.7931 179.2838 243.994 176.991 242 174 C240.5377 171.8066 238.0674 172.217 237 170 C232.5266 160.7091 231.1361 151.9129 229 147 C228.9299 146.8387 226.9951 146.9879 227 147 C227.0401 147.1002 230.9932 152.0188 231 152 C231.0308 151.9152 229.2244 142.7077 231 136 C233.2619 127.4551 234.4956 125.6583 240 118 C245.413 110.4688 246.6789 108.437 254 104 C261.3704 99.5331 263.661 99.0896 273 98 C292.4918 95.726 294.3487 95.7114 314 97 C323.7588 97.6399 325.4981 98.3158 334 102 C339.1651 104.2382 339.9751 105.6876 344 110 C346.4924 112.6704 347.3632 113.6036 348 117 C350.0851 128.1204 350.3322 130.3734 350 142 C349.8657 146.7013 348.9026 147.2435 347 152 C344.9615 157.0962 344.3524 159.1248 342 162 C341.2867 162.8718 339.059 162.0587 338 163 C335.5692 165.1607 335.8705 168.1733 333 170 C326.4862 174.1451 323.6605 172.6591 316 177 C309.1799 180.8647 302.995 186.9936 303 187 C304.5983 189.0392 326.0323 199.4355 345 214 C352.9477 220.1027 353.3152 221.6081 359 230 C363.4039 236.5011 361.759 238.0887 366 245 C375.0715 259.7832 375.0797 260.6226 386 274 C394.752 284.7212 395.3675 286.7506 406 294 C415.7416 300.642 424.5496 301.0477 430 304 C430.3011 304.1631 430.4515 306.5861 430 307 C426.8259 309.9096 423.9851 312.3978 418 315 C413.4103 316.9955 412.4551 316.5804 407 317 C399.6639 317.5643 398.032 318.8279 392 317 C383.5431 314.4373 381.5428 313.1714 374 307 C360.3811 295.8573 359.8053 294.6215 348 281 C340.6379 272.5053 339.8725 272.0234 335 262 C322.7426 236.7849 313.0274 209.0274 313 209 C312.9887 208.9887 311.0154 225.2259 313 240 C315.3821 257.7332 319.3745 258.1466 322 276 C324.2614 291.3773 325.4501 294.0344 323 308 C320.9267 319.8176 312.1041 333 312 333 C311.9148 333 304.4726 320.1083 303 308 C300.2347 285.2632 304.4547 283.2452 303 259 C301.4752 233.5871 297.0535 208.1105 297 208 C296.9845 207.9679 290.7985 218.0779 288 228 C285.5708 236.6127 288.0447 238.2368 286 247 C284.722 252.477 282.3552 252.5792 281 258 C279.5342 263.8633 281.4831 264.9194 280 271 C276.6187 284.8634 273.9943 286.2742 271 299 C270.4269 301.4358 272.8377 303.6837 272 305 C265.5969 315.062 261.7404 320.5686 250 332 C243.7427 338.0926 242.1047 337.9477 234 342 C229.5617 344.2191 224.0704 345.1349 224 345 C223.1414 343.3544 221.6826 331.3798 222 319 C222.16 312.7612 222.6518 312.0173 225 306 C230.4805 291.9562 230.7592 291.4828 238 278 C245.1603 264.6671 247.9025 265.4565 254 252 C262.0488 234.2372 267.0736 214.0501 267 214 C266.8639 213.9075 243.7049 223.2361 229 235 C221.7012 240.839 222.1858 244.1649 217 254 C207.7936 271.4604 209.6292 273.3094 200 290 C195.0601 298.5625 194.3931 299.6631 187 306 C174.2301 316.9456 171.5529 319.0582 158 326 C153.6789 328.2132 151.2155 327.549 146 327 C142.7922 326.6623 138.9975 324.0059 139 324 C140.2519 320.9955 149.2509 306.2047 161 291 C165.7637 284.8352 167.804 285.9383 173 280 C178.0449 274.2344 178.1737 273.8023 182 267 C191.5591 250.006 189.8727 247.3543 200 232 C204.4453 225.2603 205.9623 224.2226 213 220 C224.9153 212.8508 239.3145 208.3999 240 208 C240.037 207.9784 238.258 206.028 237 206 C219.6542 205.6145 212.5703 202.4887 195 207 C179.7728 210.9097 179.1227 217.8688 163 225 C154.0386 228.9637 152.9524 228.5436 143 230 C132.8486 231.4856 132.494 230.7719 122 231 C109.52 231.2713 108.8296 232.4083 97 231 C88.6742 230.0088 82.1753 228.5378 80 226 C78.1264 223.8141 78.3759 216.5529 79 210 C79.2074 207.8222 80.2652 206.1152 82 205 C85.7885 202.5645 87.4133 202.1906 93 201 C117.4717 195.7847 119.1417 198.2097 143 192 C154.67 188.9626 154.9571 184.4006 166 182 C176.0893 179.8067 178.5563 179.6502 189 182 C216.7212 188.2373 218.5103 192.5028 246 200 C249.9963 201.0899 254.1188 200.8011 255 200 C256.086 199.0128 257 190 257 190 "/>
<path id="1" d="M269 158 C269 158 264.962 151.7722 264 146 C262.6506 137.9039 262.5954 134.7422 264 128 C264.5495 125.3624 266.5759 123.5426 269 122 C270.8243 120.8391 273.4046 120.2443 275 121 C280.1206 123.4255 283.4249 125.853 288 131 C290.264 133.547 290.5664 135.3141 291 139 C291.4611 142.9195 291.593 144.6546 290 148 C287.2622 153.7494 281 159.8509 281 160 C281 160.0124 290 159 290 159 "/>
<path id="2" d="M306 157 C306 157 306.312 148.6 309 143 C311.6671 137.4435 314.7143 134.0535 318 132 C319.3194 131.1753 324.2848 132.1954 325 133 C325.8803 133.9903 326.3506 137.3185 326 141 C325.4107 147.1875 324.5337 150.9325 323 154 C322.6827 154.6346 319 155 319 155 "/>
<path id="3" d="M319 146 L318 147 "/>
<path id="4" d="M278 145 L280 147 "/>
<path id="5" d="M292 168 L283 184 "/>
</g>
</g>
</svg>
