<?xml version="1.0" encoding="utf-8"?>
<!DOCTYPE svg PUBLIC "-//W3C//DTD SVG 1.1//EN" "http://www.w3.org/Graphics/SVG/1.1/DTD/svg11.dtd">
<svg viewBox="0 0 800 800" preserveAspectRatio="xMinYMin meet" xmlns="http://www.w3.org/2000/svg" version="1.1">
<g fill="none" stroke="black" stroke-linecap="round" stroke-linejoin="round" stroke-width="1.6273">
<g transform="translate(99.503,87.52) scale(1.8435) translate(-99,-93)">
<path id="0" d="M130 154 C130 154 145.7331 150.2316 153 153 C161.1849 156.118 168.5233 161.4882 172 170 C180.1557 189.9674 175.8277 197.5963 182 224 C184.7247 235.6559 185.6447 235.9137 190 247 C191.0293 249.6201 191.863 251.7293 193 252 C197.884 253.1628 204.1596 253.887 211 252 C216.0189 250.6155 218.2654 248.0219 222 244 C223.611 242.2651 223.7227 240.912 224 238 C224.672 230.9439 223.1237 230.0105 224 223 C224.5477 218.6184 226.8119 218.3258 227 214 C228.2359 185.5735 225.5294 183.707 227 154 C228.011 133.5777 227.4481 130.2323 232 113 C233.5464 107.1458 236.1377 103.7013 241 101 C250.759 95.5783 257.3068 93.5216 268 93 C273.3514 92.739 276.6199 94.8753 282 99 C290.3979 105.4384 293.2183 106.949 298 116 C305.9541 131.056 308.2368 134.5153 310 152 C313.9329 191.0011 308.7374 194.5954 310 235 C310.1992 241.3741 310.7741 242.157 313 248 C314.5589 252.0921 315.8889 254.8741 318 256 C320.2781 257.215 324.3579 257.5451 328 256 C338.5399 251.5285 342.2939 249.8899 351 242 C356.5118 237.0049 359.0957 234.026 360 227 C364.8419 189.3818 359.7651 171.6218 364 141 C364.4523 137.7293 369.2217 133.7779 373 133 C381.7987 131.1885 398 134 398 134 "/>
<path id="1" d="M225 225 C225 225 227.5221 243.2686 225 257 C223.5299 265.0041 221.3701 266.5285 216 274 C210.2652 281.9789 209.6912 283.1796 202 289 C192.0375 296.5392 190.2852 299.1366 179 302 C159.6832 306.9013 155.3193 302.874 135 306 C131.0763 306.6037 129.7986 307.366 127 310 C122.1723 314.5437 120.2335 315.8251 118 322 C112.4522 337.3382 113.0599 339.7879 110 357 C109.1599 361.7257 110 367 110 367 "/>
<path id="2" d="M308 227 C308 227 307.1627 244.0765 309 260 C310.0862 269.4136 309.2738 273.0058 314 279 C326.6454 295.038 331.9442 298.4581 350 312 C356.0929 316.5697 359.2987 313.6639 366 318 C383.685 329.4432 386.189 331.7081 401 345 C403.7955 347.5088 404.559 349.2519 405 353 C406.3535 364.5045 405 379 405 379 "/>
<path id="3" d="M112 366 C112 366 114.3939 376.7576 115 377 C115.819 377.3276 123.0198 375.4116 127 372 C131.9229 367.7803 133.7656 364.9585 136 359 C137.501 354.9973 135.0315 352.8425 136 348 C136.8628 343.6858 137.1279 341.7657 140 339 C148.927 330.4036 152.5151 325.0732 163 322 C176.1142 318.1562 181.834 324.0956 198 322 C207.1949 320.8081 208.9315 319.7975 217 315 C226.3771 309.4244 230.6297 307.648 235 300 C240.2591 290.7965 240.9998 273 241 273 C241.0001 273 243.8337 290.0524 239 299 C223.7725 327.1871 215.1422 329.0157 194 360 C186.4219 371.1058 185.7542 371.8503 181 384 C177.0843 394.0067 177.1317 395.1357 176 406 C174.6935 418.5426 175.2761 429.7379 176 432 C176.0434 432.1357 180.981 432.2939 184 431 C186.9167 429.75 189.5669 428.0209 190 426 C191.5846 418.6052 188.3269 413.3176 190 403 C191.0892 396.2832 191.7367 394.3291 196 389 C206.6128 375.734 209.8416 376.4728 222 363 C228.1271 356.2105 228.2872 355.7622 233 348 C236.6181 342.0409 235.3067 340.7707 239 335 C243.0354 328.6947 245.7532 329.4937 249 323 C259.6 301.8 267.9783 277.0263 268 277 C268.0081 276.9902 267.0021 288.7735 268 300 C268.97 310.912 267.9575 312.5156 272 322 C280.25 341.3558 286.2916 341.8833 294 361 C297.8983 370.6679 296.446 372.5512 297 384 C297.9335 403.2914 295.4498 418.6815 297 423 C297.1998 423.5565 305.9786 423.6277 311 423 C311.807 422.8991 312.974 421.7528 313 421 C313.7026 400.6247 315.4728 391.8914 313 365 C311.5987 349.7604 310.4097 348.7143 305 334 C298.1067 315.2502 293.9699 314.9096 288 297 C285.5747 289.7242 286.6492 287.3666 287 280 C287.0847 278.2204 288.9566 275.9527 289 276 C290.3694 277.4939 303.9363 296.9477 320 316 C325.1291 322.0834 325.5514 322.6316 332 327 C340.5447 332.7883 341.2104 332.9336 351 337 C373.4347 346.319 378.5033 346.293 397 354 C398.1325 354.4719 398.89 355.6806 399 357 C399.7292 365.7498 397.4528 371.2953 399 378 C399.4704 380.0384 403.9926 382.7761 405 383 C405.3305 383.0735 408 380 408 380 "/>
<path id="4" d="M130 154 C130 154 129.2376 158.9506 130 162 C130.4526 163.8106 131.667 165.5834 133 166 C137.1755 167.3048 141.0137 165.4254 146 167 C148.838 167.8962 151.0143 169.3305 152 172 C161.1043 196.6574 159.2547 203.1412 170 232 C176.4969 249.4487 177.6798 252.0197 187 266 C190.1524 270.7286 193.2797 272.4981 198 274 C201.7224 275.1844 209 273 209 273 C209 273 182.5483 278.389 162 274 C135.2475 268.2859 128.8228 258.6076 106 251 C103.7297 250.2432 99.3017 252.1811 99 253 C97.8799 256.0403 98.0228 269.4843 99 270 C103.0359 272.13 117.6472 269.7081 135 272 C143.4507 273.1161 144.2949 273.4776 152 277 C161.2005 281.206 161.1714 285.425 170 288 C182.8527 291.7487 197.0194 291.2981 200 291 C200.0602 290.994 200 285 200 285 "/>
<path id="5" d="M398 135 C398 135 400.0761 142.7718 399 146 C398.0584 148.8247 395.7805 150.6123 392 153 C386.9826 156.1689 380.4123 156.1923 380 158 C377.2168 170.2031 381.3685 184.9614 379 210 C377.974 220.8468 374.9126 221.0027 373 232 C370.9792 243.6198 374.097 247.9001 371 256 C369.2234 260.6464 365.6066 264.0667 360 266 C340.4238 272.7504 314.5691 275.1953 313 276 C312.9136 276.0443 317.8426 285.3928 321 286 C335.0002 288.6924 346.6679 289.4373 365 286 C374.2702 284.2618 375.2992 276.8896 385 274 C396.3555 270.6175 399.8974 271.0923 412 272 C418.0288 272.4522 423.1415 274.8555 425 277 C426.1425 278.3183 425.4012 286.7531 425 287 C424.2328 287.4721 417.752 284.1226 412 285 C390.3973 288.2953 388.9152 292.3671 366 296 C348.5693 298.7634 330 298 330 298 "/>
<path id="6" d="M239 191 C239 191 245.44 189.5165 251 190 C256.2556 190.457 258.0733 191.1877 262 193 C263.0731 193.4953 264 195.2811 264 196 C264 196.7189 262.6934 198.9257 262 199 C254.2336 199.8321 241.5618 199.618 236 199 C235.7148 198.9683 234.7844 196.3018 235 196 C235.7816 194.9058 238.231 192.923 241 192 C243.2656 191.2448 244.6012 191.4669 247 192 C248.3771 192.306 249.7991 193.3973 250 194 C250.2455 194.7366 249.0748 197.9501 249 198 C248.9864 198.0091 247 196 247 196 "/>
<path id="7" d="M279 193 C279 193 288.1005 190.705 294 191 C296.0391 191.102 298.4589 193.1883 299 194 C299.1994 194.299 298.3819 196.9101 298 197 C294.3655 197.8552 284.1965 198.646 282 198 C281.6133 197.8863 281 192 281 192 "/>
<path id="8" d="M286 196 C286 196 290.8753 192.9751 291 193 C291.0227 193.0045 291 197 291 197 "/>
</g>
</g>
</svg>
