<?xml version="1.0" encoding="utf-8"?>
<!DOCTYPE svg PUBLIC "-//W3C//DTD SVG 1.1//EN" "http://www.w3.org/Graphics/SVG/1.1/DTD/svg11.dtd">
<svg viewBox="0 0 800 800" preserveAspectRatio="xMinYMin meet" xmlns="http://www.w3.org/2000/svg" version="1.1">
<g fill="none" stroke="black" stroke-linecap="round" stroke-linejoin="round" stroke-width="1.1233">
<g transform="translate(87.52,132.9231) scale(2.6708) translate(-179,-56)">
<path id="0" d="M233 154 C233 154 229.7748 154.0922 228 153 C224.11 150.6061 223.4966 149.8463 220 146 C213.6526 139.0179 210.3664 137.4539 208 131 C206.215 126.1319 206.743 121.6425 209 116 C211.8432 108.8919 214.4199 106.0221 220 101 C222.6648 98.6017 224.638 98.3739 229 98 C241.2514 96.9499 246.8866 94.6809 255 98 C262.9148 101.2379 266.5679 107.1176 273 116 C275.7301 119.7701 275.1001 121.6008 276 127 C276.5477 130.2865 276.1636 133.6727 276 134 C275.9883 134.0234 273 133 273 133 C273 133 278 134 278 134 C278 134 273 133 273 133 "/>
<path id="1" d="M233 154 C233 154 248.975 153.325 251 154 C251.225 154.075 250.7 159.4 251 160 C251.075 160.15 254.0019 160.0076 254 160 C253.9874 159.9495 250.8052 157.9324 250 156 C248.8041 153.1298 248.5306 150.8165 249 148 C249.2697 146.382 250.7233 144.5674 252 144 C253.6033 143.2874 257.7766 143.6171 258 144 C258.803 145.3766 259.6653 152.6735 259 156 C258.7858 157.0712 255 159 255 159 "/>
<path id="2" d="M277 135 C277 135 271.3468 133.6532 271 134 C270.237 134.763 268.6496 142.5619 269 143 C269.4262 143.5328 277.2261 144.5913 279 144 C279.6728 143.7757 281.2343 140.0544 281 139 C280.7486 137.8685 277.9869 136.9738 277 135 C275.9309 132.8617 276 129 276 129 "/>
<path id="3" d="M272 141 L270 137 "/>
<path id="4" d="M253 150 C253 150 252.9979 147.0021 253 147 C253.0007 146.9993 254.0567 148.9149 254 149 C253.8724 149.1914 251 150 251 150 "/>
<path id="5" d="M275 126 C275 126 277.4515 125.097 278 124 C279.8022 120.3956 278.3948 117.6247 281 114 C288.7956 103.1539 296.5821 101.3008 301 92 C303.4579 86.8255 299.5151 82.7291 300 74 C300.491 65.1628 302.9989 56 303 56 C303.0011 56 305.8599 65.1748 306 74 C306.349 95.9894 307.3526 102.5418 304 119 C303.2001 122.9266 299.8158 125.2217 295 128 C288.0569 132.0056 278 134 278 134 "/>
<path id="6" d="M283 141 C283 141 282.969 138.0026 283 138 C287.469 137.6276 302.9514 135.7973 319 138 C326.1152 138.9766 327.1176 144.3963 334 145 C352.4355 146.6171 375.9975 142.9997 376 143 C376.0011 143.0001 366.5344 146.4109 357 148 C342.8185 150.3636 342.3623 150.8085 328 151 C305.2631 151.3032 304.2112 150.9831 282 149 C277.0613 148.559 272 146 272 146 "/>
<path id="7" d="M242 152 C242 152 238.8864 151.3352 238 152 C234.7313 154.4515 232.9869 156.2707 230 161 C227.3375 165.2156 228.6282 167.7147 226 171 C223.7302 173.8373 222.1202 174.4549 218 176 C210.6984 178.7381 209.1947 176.9829 202 180 C194.3589 183.2043 194.2891 185.8308 187 189 C183.7492 190.4134 178.9996 189.9999 179 190 C179.0013 190.0002 193.1879 193.7299 204 192 C215.6532 190.1355 217.3283 187.659 229 182 C233.2658 179.9317 234.0206 179.2503 237 176 C238.9552 173.867 237.9378 172.1559 240 170 C248.1779 161.4504 254.5808 158.1558 259 153 C259.4173 152.5132 258 149 258 149 "/>
<path id="8" d="M256 158 C256 158 260.6347 170.1027 262 182 C264.0524 199.8854 266.3836 207.27 263 219 C261.1921 225.2675 246.9995 234.0002 247 234 C247.0009 233.9997 263.5813 224.935 276 215 C279.7088 212.033 281.8087 209.5397 282 206 C282.5701 195.4526 281.3356 191.0393 278 178 C276.0702 170.4564 272.8682 169.5386 271 163 C270.372 160.8021 271.9836 156.9918 272 157 C272.0983 157.0491 276.6159 161.967 279 167 C280.781 170.7598 278.8917 172.893 281 176 C287.2159 185.1602 290.3732 185.1487 298 195 C302.1309 200.3357 304.4693 201.6044 305 207 C307.0454 227.7947 303.9261 255.8522 304 256 C304.0206 256.0411 316.204 244.7861 319 235 C322.9018 221.3437 324.2128 212.6383 320 200 C314.8961 184.6882 306.021 178.5263 296 166 C295.2089 165.0111 291.9999 165 292 165 C292.0004 165 307.2863 165.5477 322 168 C337.0353 170.5059 337.2014 173.637 352 175 C374.2138 177.046 379.2057 178.081 398 175 C404.7984 173.8855 412.0399 166.0401 413 165 C413.0093 164.9899 411.1045 162.0217 410 162 C374.2601 161.2992 357.7306 164.997 311 163 C302.3788 162.6316 300.1841 161.2113 293 157 C287.1745 153.585 282 146 282 146 "/>
<path id="9" d="M304 81 L307 81 "/>
<path id="10" d="M310 89 L315 90 "/>
<path id="11" d="M309 102 L311 101 "/>
<path id="12" d="M308 119 L311 119 "/>
<path id="13" d="M294 130 L302 132 "/>
<path id="14" d="M284 109 L282 103 "/>
<path id="15" d="M295 97 L287 86 "/>
<path id="16" d="M357 145 L357 139 "/>
<path id="17" d="M343 144 L343 140 "/>
<path id="18" d="M326 140 L328 136 "/>
<path id="19" d="M340 153 L343 153 "/>
<path id="20" d="M361 151 L362 152 "/>
<path id="21" d="M317 154 L317 154 "/>
<path id="22" d="M390 161 C390 161 386 161 386 161 C386 160.8513 390 155 390 155 "/>
<path id="23" d="M374 158 L377 153 "/>
<path id="24" d="M362 159 L365 155 "/>
<path id="25" d="M345 168 C345 168 348.6211 169.9895 349 171 C349.3895 172.0386 348 176 348 176 "/>
<path id="26" d="M372 173 C372 173 375.4567 173.3481 376 174 C376.7314 174.8776 377 179 377 179 "/>
<path id="27" d="M386 174 L388 182 "/>
<path id="28" d="M304 230 L300 230 "/>
<path id="29" d="M305 213 L302 213 "/>
<path id="30" d="M298 197 L295 199 "/>
<path id="31" d="M302 174 L308 174 "/>
<path id="32" d="M310 183 L328 189 "/>
<path id="33" d="M322 198 L327 199 "/>
<path id="34" d="M325 210 C325 210 328.2252 209.9078 330 211 C333.89 213.3939 338 218 338 218 "/>
<path id="35" d="M326 223 L328 225 "/>
<path id="36" d="M321 236 L322 236 "/>
<path id="37" d="M262 216 L252 212 "/>
<path id="38" d="M264 193 L258 187 "/>
<path id="39" d="M261 175 L256 172 "/>
<path id="40" d="M281 194 C281 194 284.0332 193.5166 285 194 C285.846 194.423 287 197 287 197 "/>
<path id="41" d="M281 212 C281 212 286.91 214.91 287 215 C287.01 215.01 285 216 285 216 "/>
<path id="42" d="M273 219 L273 226 "/>
<path id="43" d="M213 179 C213 179 209.0105 177.2127 208 176 C207.577 175.4924 208 173 208 173 "/>
<path id="44" d="M223 172 C223 172 217.1325 168.2651 217 168 C216.9905 167.9811 220 166 220 166 "/>
<path id="45" d="M233 163 C233 163 227.9151 159.4642 227 158 C226.7516 157.6026 228 155 228 155 "/>
<path id="46" d="M194 183 L192 176 "/>
<path id="47" d="M204 192 L209 198 "/>
<path id="48" d="M223 180 C223 180 226.9802 179.8218 229 181 C231.9146 182.7002 234.9997 186.9998 235 187 C235.0001 187.0001 233 184 233 184 "/>
<path id="49" d="M244 166 L249 169 "/>
</g>
</g>
</svg>
