<?xml version="1.0" encoding="utf-8"?>
<!DOCTYPE svg PUBLIC "-//W3C//DTD SVG 1.1//EN" "http://www.w3.org/Graphics/SVG/1.1/DTD/svg11.dtd">
<svg viewBox="0 0 800 800" preserveAspectRatio="xMinYMin meet" xmlns="http://www.w3.org/2000/svg" version="1.1">
<g fill="none" stroke="black" stroke-linecap="round" stroke-linejoin="round" stroke-width="2.2657">
<g transform="translate(87.52,157.6956) scale(1.3241) translate(0,-33)">
<path id="0" d="M200 102 C200 102 196.7725 107.5922 196 113 C194.3882 124.2829 194.3019 126.5286 195 137 C195.1808 139.7127 196.0248 141.2881 198 143 C202.3519 146.7716 204.4104 148.0436 210 150 C213.0946 151.0831 214.8947 151.0351 218 150 C222.6579 148.4474 225.5951 147.3668 228 144 C231.3982 139.2425 232.2245 136.29 233 129 C234.5978 113.9805 234.404 111.7424 233 97 C232.5445 92.2175 231.2369 88.6155 229 87 C225.7775 84.6727 219.6616 83.1035 215 84 C210.2983 84.9042 205.6426 88.3411 203 92 C201.3 94.3539 202 102 202 102 "/>
<path id="1" d="M219 120 C219 120 214.0306 122.0383 214 122 C213.9051 121.8814 214.6124 115.4651 215 115 C215.1154 114.8615 218.6734 115.5101 219 116 C219.4454 116.668 219.547 119.7237 219 121 C218.6406 121.8387 216.0286 123.0191 216 123 C215.9542 122.9695 215.8 119.4 216 119 C216.05 118.9 218 119 218 119 "/>
<path id="2" d="M259 87 C259 87 253.4535 93.0119 253 98 C251.2754 116.9706 251.7887 137.8658 254 142 C254.5346 142.9996 273.1857 143.8903 276 141 C282.4774 134.3475 287.0507 121.0123 291 104 C292.8083 96.2105 290.9189 86.4557 289 85 C285.5775 82.4036 267.9841 81.4016 262 82 C261.1932 82.0807 259 88 259 88 "/>
<path id="3" d="M268 113 C268 113 265.9957 111.0086 266 111 C266.0064 110.9871 268.865 110.82 269 111 C269.24 111.32 269.24 114.68 269 115 C268.865 115.18 266.1875 115.1875 266 115 C265.8125 114.8125 266 112 266 112 "/>
<path id="4" d="M251 37 C251 37 244.3106 33.3944 238 33 C213.7101 31.4819 210.2815 30.8509 187 33 C180.3562 33.6133 178.6619 35.3198 173 39 C169.6629 41.1691 168.5711 42.2468 167 46 C160.224 62.1872 156.7589 64.411 155 82 C150.0732 131.2682 153 186 153 186 "/>
<path id="5" d="M253 37 C253 37 283.6176 41.5126 312 48 C317.6027 49.2806 318.9909 50.1363 323 53 C324.808 54.2915 325.0314 55.3848 326 58 C329.8979 68.5244 332.2394 69.2675 333 80 C336.5547 130.1613 335 185 335 185 "/>
<path id="6" d="M155 184 C155 184 121.5493 192.6639 93 205 C82.9381 209.3477 82.8006 211.317 74 219 C51.5086 238.6353 51.1333 238.8667 30 260 C19.309 270.691 19.3559 271.1492 10 283 C4.4779 289.9947 2.0376 291.0721 0 298 C-2.1579 305.3368 -0.41681 316.8007 0 317 C0.87949 317.4206 14.0582 315.3607 23 309 C59.5867 282.9744 60.0675 275.6994 97 248 C104.4019 242.4486 106.4843 242.8386 115 240 C117.4723 239.1759 121.0006 239.9842 121 240 C120.9309 241.7956 119.9527 256.3268 114 266 C105.8717 279.2086 102.2071 280.0388 89 292 C75.9622 303.8078 73.0567 301.9433 61 314 C51.3546 323.6454 49.2537 325.9396 44 337 C40.9653 343.3889 40.7233 348.0419 42 354 C42.9796 358.5713 46.6071 363.0357 50 365 C52.5975 366.5038 58.6221 366.8495 61 365 C71.1123 357.1349 75.1874 351.694 86 337 C94.2271 325.8196 92.1279 323.8082 100 312 C116.9672 286.5493 120.3702 286.6169 136 262 C139.3337 256.7495 137.3711 254.8421 140 249 C141.6431 245.3487 142.5692 244.1607 145 242 C146.059 241.0587 149 241 149 241 C149.2869 242.1475 151.2595 250.7539 149 258 C137.6966 294.2487 132.5623 295.9543 120 334 C115.3053 348.2184 116.023 349.1646 114 364 C113.081 370.7394 113.4457 376.448 114 378 C114.0707 378.198 118.5889 378.5605 119 378 C121.1749 375.0342 121.0496 369.7303 125 363 C134.2408 347.2564 138.7453 348.323 146 332 C163.9468 291.6196 163.9769 277.3258 177 246 C177.7236 244.2595 182.5423 242.7503 183 243 C184.0394 243.5669 186.6294 247.3898 188 252 C191.8928 265.094 192.7964 266.1586 194 280 C195.7302 299.897 195.4548 300.9234 194 321 C192.9936 334.8883 190.0064 335.1117 189 349 C187.5452 369.0766 188.1729 370.976 189 390 C189.1026 392.3604 190.3229 394.7292 191 395 C192.2865 395.5146 198.2277 395.1971 199 394 C203.731 386.667 206.1262 379.163 211 364 C215.0204 351.4921 216.0527 350.8561 217 338 C219.4746 304.4166 216.7249 303.0017 218 269 C218.2045 263.5455 218.7606 260.1247 220 258 C220.399 257.316 224.4131 256.4914 225 257 C228.1427 259.7237 231.0627 263.6175 235 271 C242.8339 285.6886 242.8348 286.217 249 302 C267.7756 350.0657 281.011 389.5261 285 399 C285.0112 399.0267 288.6145 398.0118 289 397 C291.245 391.1068 292.2775 387.3923 293 378 C294.2348 361.947 294.8863 360.9285 293 345 C290.4812 323.7302 289.4283 323.0747 284 302 C280.9982 290.3459 278.4355 290.4471 276 279 C273.5917 267.6811 273.9189 255.4055 274 255 C274.0096 254.9519 277.9249 256.4738 280 259 C299.7216 283.0089 299.1598 286.0601 320 311 C329.4042 322.2542 331.1014 324.6559 341 332 C344.1075 334.3056 350.7546 334.3477 351 334 C351.9902 332.5972 353.3012 323.7356 353 315 C352.8392 310.3378 352.0632 309.6423 350 305 C346.1769 296.3981 346.361 295.7064 341 288 C330.6288 273.0914 327.1765 272.3824 318 259 C316.6297 257.0016 316.8691 253.0818 317 253 C317.3986 252.7509 322.2481 252.5707 326 254 C331.8659 256.2346 332.6024 256.8554 338 261 C360.2562 278.0896 360.2274 280.8722 382 297 C385.9939 299.9585 386.988 300.0254 392 301 C404.3622 303.4038 416.0295 305.1677 418 304 C418.9973 303.409 419.326 294.127 419 285 C418.8441 280.6342 419.1139 279.2211 417 276 C409.7296 264.9212 408.6315 262.715 398 253 C380.3557 236.8767 377.3705 234.5266 359 223 C354.7889 220.3578 347.9527 221.4331 347 221 C346.9732 220.9878 347.6598 218.0729 348 218 C350.6916 217.4232 355.7277 216.0961 361 218 C388.7357 228.0157 390.1792 232.7411 420 244 C438.6999 251.0602 440.1607 249.9456 459 255 C459.8982 255.241 460.9655 255.0862 461 255 C461.2155 254.4612 460.1901 251.0308 461 250 C463.8578 246.3627 470.1622 244.4919 472 241 C473.1773 238.7632 472.9389 233.6176 471 231 C465.3905 223.4271 461.952 221.3929 452 214 C444.8619 208.6974 444.3034 208.2369 436 205 C415.3749 196.9597 414.146 195.1193 393 191 C377.1871 187.9196 373.893 191.8162 359 190 C355.7319 189.6014 355.382 186.7352 352 186 C345.0305 184.4849 336 185 336 185 "/>
</g>
</g>
</svg>
