<?xml version="1.0" encoding="utf-8"?>
<!DOCTYPE svg PUBLIC "-//W3C//DTD SVG 1.1//EN" "http://www.w3.org/Graphics/SVG/1.1/DTD/svg11.dtd">
<svg viewBox="0 0 800 800" preserveAspectRatio="xMinYMin meet" xmlns="http://www.w3.org/2000/svg" version="1.1">
<g fill="none" stroke="black" stroke-linecap="round" stroke-linejoin="round" stroke-width="2.741">
<g transform="translate(87.52,185.4778) scale(1.0945) translate(-15,-73)">
<path id="0" d="M260 195 C260 195 256.0646 188.9695 251 185 C238.0988 174.8882 235.5408 176.3462 223 166 C216.2379 160.4212 215.4649 159.4414 211 152 C205.44 142.7333 204.4452 141.2699 202 131 C199.756 121.5753 198.9507 118.402 201 110 C203.2395 100.818 205.5534 97.1904 212 90 C216.8461 84.5947 219.2395 84.4718 227 81 C237.8411 76.15 239.1174 74.232 250 73 C263.5539 71.4656 266.0917 72.1134 280 75 C291.3717 77.3602 292.1796 78.5898 303 84 C313.8204 89.4102 314.4198 89.8149 324 97 C329.9973 101.498 330.3969 102.1182 335 108 C339.103 113.2427 340.618 114.165 342 120 C344.6788 131.3103 346.9114 136.4571 344 146 C339.5163 160.6966 328.4204 163.8776 324 179 C320.3919 191.3435 326.3327 205.9652 325 211 C324.8048 211.7373 315 213 315 213 "/>
<path id="1" d="M259 197 C259 197 256.4367 202.3178 253 206 C249.8301 209.3963 249.1865 210.3508 245 212 C233.787 216.4172 232.2092 218.3658 220 219 C157.8787 222.2271 149.9273 214.5099 91 220 C75.7975 221.4164 72.5767 225.7909 59 234 C52.8749 237.7036 52.3163 239.6525 48 246 C44.2155 251.5655 42 259 42 259 "/>
<path id="2" d="M43 262 C43 262 45.6766 257.4926 49 255 C53.062 251.9535 53.8515 251.9802 59 250 C73.1833 244.5449 74.0634 240.7657 88 240 C160.1603 236.0352 174.6854 242.8133 241 240 C246.3299 239.7739 251.5541 236.2774 253 233 C256.3312 225.4494 256 206 256 206 "/>
<path id="3" d="M256 229 C256 229 240.1404 242.2043 223 251 C202.9825 261.2721 201.4443 260.9691 180 268 C171.6191 270.7478 170.9307 270.7072 162 271 C110.6648 272.6831 105.279 266.5184 58 272 C41.7709 273.8816 37.6392 278.4359 24 287 C18.8059 290.2614 17.8076 293.6967 15 299 C14.1626 300.5817 15 304 15 304 C15.2209 304 19.279 300.0944 23 299 C26.5361 297.96 27.9297 299.8141 32 299 C37.3367 297.9327 37.7709 295.1687 43 295 C96.0943 293.2873 103.3391 300.9914 156 295 C182.1728 292.0223 184.2916 287.1086 210 276 C224.0149 269.9442 224.0327 268.3906 237 260 C240.7779 257.5555 242.1447 257.2047 244 254 C246.8267 249.1175 246.6758 243.4592 248 241 C248.1412 240.7379 251 241 251 241 "/>
<path id="4" d="M252 230 C252 230 253.6038 248.3769 251 264 C249.3742 273.7549 247.7992 274.6683 243 284 C238.9912 291.7949 239.0071 293.4935 233 299 C222.2505 308.8537 220.6774 311.1382 207 317 C173.6178 331.3066 168.31 326.1956 135 341 C116.196 349.3573 115.2795 352.112 99 365 C92.1675 370.409 87.0942 378.9058 87 379 C86.9928 379.0072 86.8099 377.095 87 377 C92.0367 374.4817 98.1634 369.6771 109 368 C138.0079 363.5107 141.5332 369.184 171 364 C193.8572 359.9788 195.6961 357.5963 217 349 C222.8232 346.6503 223.8381 345.6822 228 341 C235.1533 332.9525 236.6113 332.0619 241 322 C256.5147 286.4297 257.9791 282.8178 269 247 C271.1089 240.1462 269.7839 235.7035 269 231 C268.8775 230.2651 267.3744 229.5498 266 229 C265.2766 228.7107 263.9975 228.9975 264 229 C264.0102 229.0102 268.3234 230.3462 269 232 C275.211 247.1823 278.3854 252.9808 282 273 C284.585 287.3168 285.4445 290.222 282 304 C272.6943 341.2229 263.8446 343.4105 255 381 C250.5184 400.0468 254 423 254 423 "/>
<path id="5" d="M252 425 C252 425 270.7514 404.7792 282 383 C293.3045 361.1125 295.4142 357.8349 299 334 C303.4511 304.413 302.555 299.0864 299 270 C297.4811 257.5726 288 244 288 244 "/>
<path id="6" d="M290 244 C290 244 306.4242 241.1798 317 244 C325.304 246.2144 327.8093 249.034 335 256 C342.8658 263.62 344.7914 264.946 349 275 C361.9015 305.8203 358.6453 309.2601 371 342 C378.5131 361.9097 378.7771 362.542 389 381 C396.509 394.5579 397.1275 395.0491 407 407 C415.8222 417.6796 416.2281 419.5943 427 427 C438.7893 435.1051 440.7311 434.3675 455 440 C478.5625 449.301 478.815 449.6265 503 457 C519.5707 462.052 537 465 537 465 "/>
<path id="7" d="M533 465 C533 465 530.5828 455.6659 526 449 C520.2061 440.5726 519.3775 439.3829 511 433 C488.699 416.0088 485.0721 418.3424 463 401 C450.9077 391.4989 450.1059 390.5748 441 378 C408.7462 333.4591 411.5781 326.2656 379 285 C369.107 272.4688 365.5694 273.1368 351 264 C336.4786 254.8933 320 248 320 248 "/>
<path id="8" d="M323 242 C323 242 327.2343 239.1448 331 239 C351.3988 238.2154 357.034 234.3078 375 240 C402.0895 248.5828 403.0656 258.3043 432 271 C450.9606 279.3194 452.9197 280.683 473 283 C502.8471 286.4439 508.1168 287.7401 536 283 C553.6549 279.9987 556.8722 275.1635 573 266 C576.9907 263.7325 577.7843 262.261 580 258 C583.8299 250.6347 586.3293 241.3998 586 241 C585.5503 240.4539 575.0829 239.1463 566 241 C551.903 243.8769 551.0667 249.471 537 251 C507.5453 254.2016 503.5635 253.2173 474 251 C465.8114 250.3859 465.4132 246.7846 457 245 C449.5356 243.4166 448.6345 245.4444 441 244 C430.5615 242.0251 430.3301 241.4434 420 238 C395.8965 229.9655 394.7428 225.3736 372 221 C358.8628 218.4736 356.248 220.9149 342 223 C336.5509 223.7974 335.6838 224.1897 331 227 C323.7996 231.3203 317 238 317 238 "/>
<path id="9" d="M322 235 C322 235 326.4128 225.4515 333 220 C353.9064 202.6981 355.5786 199.6803 380 187 C405.8566 173.5745 410.5732 178.1702 437 166 C447.0867 161.3548 448.5442 159.9218 456 152 C463.5383 143.9905 463.2796 142.2365 469 132 C472.6408 125.4849 473.0666 125.0084 475 118 C476.9206 111.0379 477.0204 102.9833 477 103 C476.915 103.0693 463.683 124.317 448 140 C438.4951 149.5049 436.4927 150.5684 424 156 C403.3835 164.9637 398.6267 159.6514 379 170 C345.9527 187.4249 314 214 314 214 "/>
<path id="10" d="M274 208 C274 208 276.3503 205 277 205 C278.2993 205 282.8505 207.2524 283 208 C283.4058 210.0291 281.1549 218.0201 280 220 C279.804 220.336 276.9668 220.4834 276 220 C275.154 219.577 274.2086 218.3557 274 217 C273.3695 212.9015 273.2891 209.8436 274 207 C274.1955 206.218 277 205 277 205 "/>
<path id="11" d="M300 212 C300 212 307.7173 212.5759 308 213 C308.2976 213.4464 307.3876 219.0177 306 221 C305.1881 222.1599 301.84 223.12 301 223 C300.5673 222.9382 298.927 220.9484 299 220 C299.2622 216.5908 302 210 302 210 "/>
<path id="12" d="M287 229 C287 229 289.2515 225.8743 291 225 C292.1657 224.4172 295 225 295 225 C295 225.5958 291.516 235.7186 291 236 C290.7795 236.1203 284.9603 232.7605 284 231 C283.406 229.911 285 225 285 225 "/>
<path id="13" d="M264 219 C264 219 265.1327 214.6195 266 214 C266.7783 213.444 270.6551 213.5977 271 214 C271.6323 214.7376 272.5463 220.2196 272 221 C271.2542 222.0654 264.0639 224.0822 264 224 C263.7773 223.7137 265 212 265 212 "/>
<path id="14" d="M225 224 C225 224 232.7263 220.8632 233 221 C233.1474 221.0737 233.819 225.7479 233 228 C232.3619 229.7549 230.2083 231.7583 229 232 C227.5903 232.2819 223.48 230.88 223 230 C222.1807 228.4979 223 221 223 221 "/>
<path id="15" d="M190 229 C190 229 200.6858 224.9057 201 225 C201.0353 225.0106 201.0472 230.9528 200 232 C198.4292 233.5708 192.5731 235.363 191 235 C189.9804 234.7647 187.352 231.112 187 229 C186.7008 227.2048 189 223 189 223 "/>
<path id="16" d="M161 225 C161 225 160.8644 223.0678 161 223 C161.8813 222.5594 166.806 221.7506 167 222 C167.5702 222.7332 168.5566 231.1253 168 232 C167.6379 232.569 161.9635 233.3927 160 233 C159.3455 232.8691 158.1322 231.1901 158 230 C157.7583 227.8249 158.0612 225.502 159 224 C159.6377 222.9797 163 222 163 222 "/>
<path id="17" d="M152 278 C152 278 153.5539 275.5258 155 275 C157.9564 273.9249 161.927 273.4635 163 274 C163.7153 274.3577 165.3826 278.3421 165 280 C164.4367 282.4408 161.9693 285.2769 160 287 C159.469 287.4647 157.531 287.4647 157 287 C155.0307 285.2769 152.8743 282.8414 152 280 C151.4172 278.1058 153 274 153 274 "/>
<path id="18" d="M172 275 C172 275 173.9776 272.2921 175 272 C175.9846 271.7187 178.913 272.6812 179 273 C179.4045 274.4832 178.4096 282.5319 178 283 C177.8776 283.1399 172.5997 281.8995 172 281 C171.3004 279.9505 171.1299 275.9142 172 274 C172.7797 272.2847 177 270 177 270 "/>
<path id="19" d="M189 270 C189 270 196.9029 266.9029 197 267 C197.1748 267.1748 196.5702 276.2668 196 277 C195.806 277.2494 190.0594 276.2377 190 276 C189.7563 275.0253 193 265 193 265 "/>
<path id="20" d="M216 259 C216 259 222.5 257.625 223 258 C223.5 258.375 224.5055 263.3151 224 265 C223.6831 266.0562 221.58 267.684 220 268 C218.0078 268.3984 214.7673 267.7673 214 267 C213.2327 266.2327 212.4084 262.3015 213 261 C213.8244 259.1864 219 256 219 256 "/>
<path id="21" d="M234 248 C234 248 237.7684 248.5368 238 249 C238.5404 250.0807 238.819 253.7479 238 256 C237.3619 257.7549 235.7261 259.0137 234 260 C233.1762 260.4708 231.0085 260.0511 231 260 C230.7983 258.7899 232 248 232 248 "/>
<path id="22" d="M209 328 C209 328 211.0401 321.72 212 321 C212.4945 320.6291 216.7114 321.4229 217 322 C217.9481 323.8962 218.6984 329.5079 218 333 C217.6896 334.552 215.491 336.5527 214 337 C212.3656 337.4903 208.4343 336.6824 208 336 C207.0413 334.4935 206.2354 328.6759 207 326 C207.4273 324.5046 212 322 212 322 "/>
<path id="23" d="M222 316 C222 316 231.3026 311.6781 232 312 C232.6514 312.3006 235.259 321.2877 235 322 C234.8969 322.2835 229.3731 323.7393 228 323 C225.8096 321.8206 223.5502 318.6171 222 315 C221.1202 312.9471 221.1675 310.9981 222 309 C223.1216 306.3082 227 303 227 303 "/>
<path id="24" d="M244 292 C244 292 247.4361 293.1542 248 294 C248.4833 294.725 248.6428 296.9286 248 298 C246.4572 300.5714 242.3629 304.0363 242 304 C241.6841 303.9684 239.0907 300.2722 238 297 C237.3456 295.0367 237.4361 292.9868 238 292 C238.4833 291.1542 242 290 242 290 "/>
<path id="25" d="M255 264 C255 264 257.7236 260 258 260 C258.3686 260 261.1257 262.2515 262 264 C262.5828 265.1657 262.291 266.2541 262 268 C261.8424 268.9457 261.1466 270 261 270 C260.2669 270 256.0581 268.4355 256 268 C255.7257 265.9424 259 255 259 255 "/>
<path id="26" d="M265 241 C265 241 269 241.9575 269 242 C269 242.2127 266.6542 245.8184 265 247 C264.3446 247.4682 262.075 247.15 262 247 C261.7 246.4 262 241 262 241 "/>
<path id="27" d="M244 153 C244 153 251.6897 144.8338 253 144 C253.0647 143.9588 255 145.3957 255 146 C255 149.0214 254.6273 153.8846 253 156 C251.709 157.6783 245.2737 159.1368 245 159 C244.8526 158.9263 244.2982 154.3394 245 152 C245.391 150.6966 248 149 248 149 "/>
<path id="28" d="M308 153 C308 153 312.0516 148.2108 313 148 C313.5173 147.885 316.4924 149.731 317 151 C317.7724 152.931 317.8701 156.0858 317 158 C316.2203 159.7153 312.5866 162 312 162 C311.6481 162 309.4526 159.8106 309 158 C308.2376 154.9506 309 150 309 150 "/>
<path id="29" d="M273 179 C273 179 277.721 170.7092 280 169 C280.668 168.499 284.8279 169.6128 285 170 C285.4035 170.908 285.044 176.26 284 178 C283.393 179.0116 279.1319 180.1319 279 180 C278.5162 179.5162 277 171 277 171 "/>
<path id="30" d="M298 183 C298 183 303.8908 183.6724 304 184 C304.3762 185.1286 302.5846 194.3423 302 195 C301.8475 195.1716 296.7461 194.0658 296 193 C294.9531 191.5045 295 185 295 185 "/>
<path id="31" d="M266 167 C266 167 266 165 266 165 C265.9786 165 264 167 264 167 C264.0014 167.0014 267.0027 166.0018 267 166 C266.9922 165.9948 261 165 261 165 "/>
<path id="32" d="M287 263 L288 254 "/>
<path id="33" d="M288 274 C288 274 292.805 274.6101 293 275 C293.3621 275.7241 292.0145 282 292 282 C291.9131 282 286 275 286 275 "/>
<path id="34" d="M289 298 C289 298 291 296 291 296 C291.0744 296.0744 292.2469 300.5062 292 301 C291.8354 301.3292 288.2213 302.177 288 302 C287.6543 301.7234 287 297 287 297 "/>
<path id="35" d="M291 315 C291 315 292.9882 314.9471 293 315 C293.2382 316.0721 293.5364 322.2119 293 324 C292.8868 324.3775 290.006 325.0141 290 325 C289.8307 324.605 290 317 290 317 "/>
<path id="36" d="M285 337 C285 337 284.7845 332.5388 285 332 C285.0345 331.9138 286.9882 331.9471 287 332 C287.2382 333.0721 287.9355 339.7526 287 341 C285.9865 342.3513 279.1553 344.5391 278 344 C276.3786 343.2433 272 334 272 334 "/>
<path id="37" d="M227 120 C227 120 228.7131 111.5738 229 111 C229 111 231 112 231 112 "/>
<path id="38" d="M244 116 L249 110 "/>
<path id="39" d="M276 105 C276 105 279.68 104.76 280 105 C280.18 105.135 280 108 280 108 C279.9997 108 279 105 279 105 "/>
<path id="40" d="M302 108 L304 108 "/>
<path id="41" d="M297 131 C297 131 300 129.9998 300 130 C300 130.0003 297 132 297 132 "/>
<path id="42" d="M325 134 C325 134 327.0114 132.0143 327 132 C326.7776 131.722 321 129 321 129 "/>
<path id="43" d="M231 145 C231 145 235.5404 144.7243 236 145 C236.1654 145.0993 236.18 147.865 236 148 C235.68 148.24 232.3577 148.3577 232 148 C231.4635 147.4635 230.9786 143.0322 231 143 C231 143 234 145 234 145 "/>
<path id="44" d="M269 125 C269 125 273.4635 125.4635 274 126 C274.3577 126.3577 274.4625 129.445 274 130 C273.287 130.8556 269.138 132.0828 269 132 C268.891 131.9346 268.6875 127.3125 269 127 C269.3125 126.6875 274 127 274 127 "/>
<path id="45" d="M334 202 C334 202 340.4236 198.928 341 199 C341.1305 199.0163 342.3512 202.2976 342 203 C341.3478 204.3045 337.0459 207.0306 337 207 C336.8753 206.9169 336 199 336 199 "/>
<path id="46" d="M350 190 C350 190 354.5456 190.4547 355 191 C355.4398 191.5277 355.5639 195.0132 355 196 C354.5167 196.8458 351.5634 198.0939 351 198 C350.6158 197.936 349.5709 196.5224 349 195 C348.1817 192.818 347.6623 191.3507 348 190 C348.2666 188.9336 351 187 351 187 "/>
<path id="47" d="M369 183 C369 183 373.5062 181.7531 374 182 C374.3292 182.1646 375.2002 185.7998 375 186 C374.3994 186.6006 368.3858 188.2412 368 188 C367.6393 187.7746 366.5815 183.0923 367 181 C367.2215 179.8923 370 178 370 178 "/>
<path id="48" d="M395 172 C395 172 401.4884 170.7808 402 171 C402.1335 171.0572 402.3705 174.7221 402 175 C400.8266 175.88 394.2152 177.2152 394 177 C393.6414 176.6414 394 167 394 167 "/>
<path id="49" d="M348 225 C348 225 349.6423 223 350 223 C350.5365 223 352.6406 224.1613 353 225 C353.547 226.2763 353.4331 229.1338 353 230 C352.7834 230.4331 351.4605 230.8174 350 231 C347.6632 231.2921 346.2607 231.7004 345 231 C343.2911 230.0506 341.9022 228.2556 341 226 C340.3165 224.2912 340.4922 221.5078 341 221 C341.914 220.086 348 219 348 219 "/>
<path id="50" d="M373 227 C373 227 375 228.5142 375 229 C375 230.2144 373.3154 233.9757 373 234 C371.5857 234.1088 363.8033 231.6394 362 230 C361.328 229.389 361.6538 224.2308 362 224 C362.7788 223.4808 367.3261 223.3877 371 224 C372.3607 224.2268 373.7799 225.4498 374 226 C374.1788 226.447 373 229 373 229 "/>
<path id="51" d="M377 230 C377 230 381.8224 228.758 384 229 C384.7024 229.078 385.2576 229.8865 386 231 C388.1529 234.2293 389.6025 235.4165 390 238 C390.2971 239.9311 388.21 243.9809 388 244 C387.2951 244.0641 381.6405 241.6405 379 239 C377.4911 237.4911 376.6738 233.3987 377 233 C378.0466 231.7208 386.4502 228.3875 388 228 C388.0633 227.9842 389 230 389 230 "/>
<path id="52" d="M413 243 C413 243 416 245.2947 416 246 C416 247.6456 414.2779 252.0061 413 253 C412.092 253.7062 408.8114 253.8234 407 253 C404.8044 252.002 402.7293 249.8232 402 248 C401.5207 246.8019 402.3999 243.3273 403 243 C404.6977 242.074 413 242 413 242 "/>
<path id="53" d="M426 252 C426 252 430.5024 251.1675 433 252 C435.2597 252.7532 437.2874 254.2897 438 256 C438.9371 258.2492 438.6653 261.7825 438 264 C437.7588 264.8038 435.6822 266.1706 435 266 C431.0431 265.0108 422.471 260.5233 422 260 C421.9894 259.9882 426 256 426 256 "/>
<path id="54" d="M361 278 C361 278 365.4826 279.7581 366 281 C366.9161 283.1987 367.0512 288.0478 366 290 C365.0926 291.6852 359.4341 294.1973 359 294 C358.3222 293.6919 354.6738 286.6308 355 285 C355.2943 283.5283 362 279 362 279 "/>
<path id="55" d="M363 270 C363 270 350.4241 246.8765 342 237 C340.7055 235.4823 334 236 334 236 "/>
<path id="56" d="M331 245 C331 245 337.198 245.8972 338 247 C339.1002 248.5128 339.2063 255.5873 339 256 C338.9636 256.0728 335.1287 256.0033 334 255 C332.0407 253.2584 330.6836 250.9621 330 248 C329.5023 245.8431 330.2228 242.9067 331 242 C331.5991 241.301 336 241 336 241 "/>
<path id="57" d="M347 257 C347 257 347.9416 254 348 254 C348.2338 254 351.4924 255.731 352 257 C352.7724 258.931 352.5404 262.9193 352 264 C351.7684 264.4632 348.5183 265.2592 348 265 C347.4076 264.7038 345.8834 262.2824 346 261 C346.2221 258.5573 349 254 349 254 "/>
<path id="58" d="M372 296 C372 296 375.8049 295.7561 376 296 C376.3049 296.3811 376.6443 299.9691 376 301 C375.2107 302.2628 371.1188 304.0849 371 304 C370.6792 303.7708 368.8276 297.7239 369 296 C369.0508 295.4917 372 294 372 294 "/>
<path id="59" d="M370 323 C370 323 372.391 320.1015 373 320 C373.464 319.9227 376.0113 321.9718 376 322 C375.9295 322.1762 371.4774 325.0682 371 325 C370.7315 324.9616 369 322.4571 369 321 C369 318.8143 371 315 371 315 "/>
<path id="60" d="M383 312 C383 312 385.1978 316.8242 385 319 C384.876 320.3635 382.1674 323.0239 382 323 C381.6751 322.9536 378.3108 319.5539 378 318 C377.7535 316.7676 380 313 380 313 "/>
<path id="61" d="M241 155 C241 155 242.5645 147.7885 245 144 C246.1152 142.2652 248.0409 141.1306 250 141 C253.7173 140.7522 258.4976 141.2972 260 143 C262.6946 146.0539 263.8574 150.6876 265 158 C266.2308 165.8771 266.1383 169.0241 265 175 C264.6812 176.6739 262.7586 178.2966 261 179 C259.1158 179.7537 255.8193 179.7374 255 179 C253.3478 177.513 251.5718 174.2884 251 170 C249.7405 160.5534 251.18 150.2003 251 149 C250.9953 148.9686 248.0999 149.6335 248 150 C247.4503 152.0156 247.1706 155.853 248 160 C248.4645 162.3223 251 165 251 165 "/>
<path id="62" d="M307 166 C307 166 305.8433 157.0729 307 151 C307.5215 148.2624 308.8185 147.1815 311 145 C312.3089 143.6911 314.4493 142.8427 315 143 C315.6654 143.1901 317.6861 145.221 318 147 C318.9011 152.106 319.1264 154.1427 318 160 C316.7903 166.2906 315.2859 169.4442 313 173 C312.4965 173.7832 309.2708 174.2257 309 174 C308.4014 173.5011 307 170.6778 307 168 C307 162.198 309 155 309 155 "/>
<path id="63" d="M255 166 C255 166 254.4374 159.9002 255 159 C255.3316 158.4695 259.6841 157.6841 260 158 C260.9476 158.9476 263.0285 166.7723 263 167 C262.9984 167.0132 259.173 166.4326 259 166 C258.4011 164.5027 259 157 259 157 "/>
<path id="64" d="M275 141 C275 141 278.8846 139.8615 279 140 C279.3876 140.4651 280.2552 146.5535 280 147 C279.8866 147.1985 275.3125 147.3125 275 147 C274.6875 146.6875 274.444 142.7783 275 142 C275.6195 141.1327 280 140 280 140 "/>
<path id="65" d="M238 93 C238 93 244.8401 90.8934 245 91 C245.0846 91.0564 244.6002 96.4856 244 97 C243.4138 97.5025 238.4109 97.4696 238 97 C237.3054 96.2061 237 89 237 89 "/>
<path id="66" d="M217 130 C217 130 217.4688 123.9295 218 123 C218.1203 122.7895 220.7536 122.6714 221 123 C222.1227 124.4969 224.1857 130.0715 224 131 C223.9247 131.3764 219.9804 133.2941 219 133 C217.5517 132.5655 214.998 130.1956 214 128 C213.1766 126.1886 213.3717 123.2567 214 122 C214.4189 121.1622 218 120 218 120 "/>
<path id="67" d="M268 84 C268 84 273.6089 84.4133 274 85 C274.6258 85.9386 274.6258 92.0614 274 93 C273.6089 93.5867 268.5202 94.3901 268 94 C267.2816 93.4612 266 87 266 87 "/>
<path id="68" d="M302 105 C302 105 306.1964 103.5982 307 104 C307.9822 104.4911 310.0037 108.989 310 109 C309.9994 109.0018 306 107 306 107 "/>
<path id="69" d="M282 182 C282 182 281.9981 209.0013 282 209 C282.0033 208.9978 291 176 291 176 "/>
<path id="70" d="M293 180 C293 180 295.3208 192.8675 294 200 C293.4593 202.9197 288.1995 206.9751 288 207 C287.9637 207.0045 286 201 286 201 "/>
<path id="71" d="M396 358 C396 358 401.9743 358.9358 402 359 C402.0181 359.0454 399.7485 362.4172 398 363 C395.3772 363.8743 390.8 363.4 390 363 C389.8 362.9 389.6234 359.4707 390 359 C390.3954 358.5058 394 358 394 358 "/>
<path id="72" d="M395 336 C395 336 400.5526 336.4034 401 337 C401.5694 337.7593 401.516 343.5872 401 344 C400.0049 344.7961 391.8389 345.3355 391 345 C390.8252 344.9301 390.3557 341.0309 391 340 C391.7893 338.7372 396 337 396 337 "/>
<path id="73" d="M375 318 C375 318 376.0746 322.6272 376 323 C375.9938 323.0311 374 323 374 323 "/>
<path id="74" d="M373 318 L372 318 "/>
</g>
</g>
</svg>
