<?xml version="1.0" encoding="utf-8"?>
<!DOCTYPE svg PUBLIC "-//W3C//DTD SVG 1.1//EN" "http://www.w3.org/Graphics/SVG/1.1/DTD/svg11.dtd">
<svg viewBox="0 0 800 800" preserveAspectRatio="xMinYMin meet" xmlns="http://www.w3.org/2000/svg" version="1.1">
<g fill="none" stroke="black" stroke-linecap="round" stroke-linejoin="round" stroke-width="2.1121">
<g transform="translate(87.52,136.5225) scale(1.4204) translate(-68,-97)">
<path id="0" d="M244 229 C244 229 225.7331 229.9743 223 227 C216.9754 220.4438 214.1891 209.3148 210 192 C206.9818 179.5246 206.816 177.5508 208 165 C209.1774 152.5199 209.7288 150.2612 215 139 C220.0452 128.2216 221.4559 126.5441 230 118 C239.0187 108.9813 241.0056 106.5271 252 102 C263.9446 97.0816 266.8166 97.7212 281 97 C295.4957 96.2629 299.7221 95.4116 311 99 C317.5592 101.087 318.8736 104.436 325 111 C332.5928 119.1352 334.881 119.6087 339 129 C346.4776 146.049 346.0456 148.947 350 168 C351.341 174.4613 351.278 175.6102 350 182 C347.9553 192.2237 348.1042 194.1658 343 203 C335.8713 215.3381 328.4947 215.6563 324 227 C319.7528 237.7191 320.6979 242.7189 322 256 C323.0255 266.4604 323.9996 270.1423 329 278 C332.7632 283.9135 336.0977 286.2391 343 289 C351.3278 292.3311 353.9695 289.3158 364 292 C388.9726 298.6828 391.2468 298.3471 414 308 C422.4505 311.5851 421.5133 315.2852 430 320 C447.9718 329.9843 450.851 327.2499 468 338 C483.3261 347.6074 497.0035 361.9959 497 362 C496.879 362.1391 471.3208 363.4007 448 361 C438.6829 360.0409 438.5441 356.9976 429 355 C417.3959 352.5712 416.104 354.429 405 352 C401.0031 351.1257 399.9528 350.6843 397 348 C389.7565 341.415 390.5014 339.2427 383 332 C376.2276 325.4612 375.0974 321.9715 368 320 C352.5792 315.7164 341.6084 321.45 329 317 C323.5567 315.0788 317.0309 302 317 302 C316.9949 302 316.7361 310.4142 319 317 C321.8997 325.4356 322.8508 326.2762 328 334 C331.5821 339.3731 331.8311 341.1079 337 344 C370.8932 362.9641 380.1675 361.6078 412 381 C419.0972 385.3236 417.2893 390.5378 424 397 C430.0306 402.8072 439.0035 406.9929 439 407 C438.9859 407.0282 427.4979 405.3552 419 407 C413.8327 408.0001 413.37 411.9717 408 413 C391.8334 416.0957 387.7875 417.8117 372 416 C360.4225 414.6714 358.5355 411.7677 347 406 C342.1936 403.5968 340.6532 402.8913 338 399 C334.1442 393.3448 333.9994 391.4265 332 384 C330.6439 378.9631 332.8458 377.0273 331 373 C328.1675 366.82 324.9262 366.8708 321 360 C315.1857 349.8249 316.8768 347.9906 311 338 C307.2309 331.5925 303.4896 331.6582 301 326 C298.9597 321.3631 300.0033 312.9936 300 313 C299.9882 313.0228 290.5974 332.582 288 351 C285.3917 369.4953 286.2 371.8669 289 391 C292.0415 411.7837 297.0487 412.3409 300 433 C302.3707 449.595 300.7791 466.5878 300 468 C299.9371 468.1141 290.8047 465.9258 284 462 C278.688 458.9354 274.7922 456.8288 274 453 C270.4637 435.9078 276.4703 425.7928 272 404 C269.1165 389.9427 260.5537 388.4069 258 375 C255.2889 360.7665 258.2894 357.7638 260 341 C260.7655 333.4983 262.001 328.4975 263 326 C263.074 325.815 265.6474 326.3526 266 326 C266.8228 325.1772 268.0055 320.9965 268 321 C267.9737 321.0169 258.9671 327.4755 252 335 C246.8418 340.5708 246.3764 341.1222 243 348 C233.1458 368.0733 235.752 371.1841 225 390 C218.5665 401.2587 214.6375 399.8534 207 411 C196.456 426.3886 197.9107 428.1429 188 444 C185.6259 447.7986 185.1134 449.2703 182 451 C177.6972 453.3904 170.0445 454.1113 170 454 C169.1839 451.9597 167.4309 436.1812 170 421 C172.6362 405.4224 174.6823 404.5072 181 389 C185.586 377.7435 185.5034 376.8748 192 367 C197.6019 358.4851 198.4441 357.4765 206 351 C211.6864 346.1259 215.7722 347.9827 220 343 C227.8433 333.7562 233.8782 318.5844 234 318 C234.0125 317.9398 227.4738 317.1447 225 319 C214.7878 326.6592 214.5249 333.3134 202 342 C184.9993 353.7908 180.9316 350.9652 163 362 C155.8757 366.3842 156.7776 371.289 150 374 C130.2764 381.8894 124.7512 381.4856 103 386 C100.4542 386.5284 97.1992 385.4383 97 385 C96.4898 383.8775 96.0284 377.9574 98 375 C104.0381 365.9429 106.5935 362.909 117 355 C130.5954 344.6675 133.0689 346.6775 148 337 C159.9047 329.284 159.0078 327.1953 171 320 C183.5702 312.4579 185.7063 314.6836 198 307 C209.0687 300.0821 208.1273 297.6403 219 290 C226.3674 284.8229 235.0032 280.9997 235 281 C234.99 281.0009 208.3886 285.1608 184 293 C167.1852 298.4048 166.9862 304.1246 151 308 C136.4947 311.5164 132.9493 306.2316 118 309 C107.7891 310.8909 107.0915 315.7848 97 318 C88.2155 319.9283 85.9857 319.2394 77 318 C72.7085 317.4081 67.9189 314.0633 68 314 C69.1904 313.0715 100.3128 298.2919 127 279 C140.3188 269.372 140.2843 257.5283 151 254 C170.5015 247.5788 180.5247 254.7264 209 252 C226.9441 250.2819 236.4516 249.2742 245 245 C247.2724 243.8638 249 232 249 232 "/>
<path id="1" d="M331 277 C331 277 397.0298 280.1151 463 282 C484.4671 282.6133 496.0144 283.1095 506 282 C506.5935 281.9341 508.3352 277.4693 508 277 C506.3508 274.6911 502.2347 270.3878 496 268 C480.4819 262.0569 478.3501 261.6288 461 259 C446.1367 256.748 444.9393 260.312 430 258 C403.695 253.929 403.1768 248.8557 377 246 C349.5262 243.0029 320 246 320 246 "/>
<path id="2" d="M289 353 C289 353 292.728 381.2054 303 402 C311.6961 419.6043 329.971 436.0462 330 436 C330.1123 435.8214 329.2894 398.1955 325 367 C324.2722 361.7066 319 356 319 356 "/>
</g>
</g>
</svg>
