<?xml version="1.0" encoding="utf-8"?>
<!DOCTYPE svg PUBLIC "-//W3C//DTD SVG 1.1//EN" "http://www.w3.org/Graphics/SVG/1.1/DTD/svg11.dtd">
<svg viewBox="0 0 800 800" preserveAspectRatio="xMinYMin meet" xmlns="http://www.w3.org/2000/svg" version="1.1">
<g fill="none" stroke="black" stroke-linecap="round" stroke-linejoin="round" stroke-width="1.9153">
<g transform="translate(93.7853,87.52) scale(1.5663) translate(-116,-60)">
<path id="0" d="M246 148 C246 148 244.8253 123.1021 246 100 C246.2729 94.6324 246.7274 93.7724 249 89 C251.438 83.8802 251.9779 83.0221 256 79 C260.4952 74.5048 261.2279 74.0922 267 71 C274.8355 66.8024 275.4754 65.8754 284 64 C299.5779 60.5729 300.6793 60.9238 317 60 C326.7961 59.4455 329.8993 58.4804 337 61 C342.0751 62.8009 344.5113 65.4498 348 71 C354.5826 81.4723 356.5735 83.8673 359 96 C362.1402 111.7012 363.6513 118.9721 360 131 C357.215 140.1741 350.1003 141.1996 342 152 C338.3607 156.8524 336.8113 157.8616 336 163 C334.1665 174.6124 333.7268 177.6006 336 190 C338.9482 206.0809 340.2385 207.3037 347 223 C354.0454 239.3554 354.0129 240.4355 364 255 C377.5558 274.7688 378.8942 275.4301 395 293 C400.3147 298.7979 401.4976 299.0986 408 303 C410.8063 304.6838 411.559 304.7654 415 305 C432.8735 306.2186 443.1042 310.9712 452 306 C464.8878 298.798 468.3326 281.0155 483 267 C486.8292 263.341 490.651 263.5291 497 263 C501.3557 262.637 507.0148 264.9683 507 265 C506.8839 265.2487 493.7566 271.2694 490 278 C484.336 288.148 488.3428 298.2857 483 308 C480.1194 313.2374 475.7815 314.3254 468 318 C458.4101 322.5285 457.2375 323.2938 447 325 C437.3013 326.6164 435.9344 326.5284 426 325 C410.7527 322.6543 409.7065 322.1905 395 317 C384.7694 313.3892 380.6777 313.3265 375 307 C366.3741 297.3883 368.3627 291.7581 360 278 C353.0397 266.5491 350.208 267.4228 344 256 C338.1569 245.2487 340.8342 242.6961 335 232 C329.3125 221.573 325.1666 222.0612 320 212 C316.4464 205.0798 316 195 316 195 C316 195 331.1988 245.1945 342 294 C344.3944 304.8189 343.5568 305.6776 343 317 C342.0733 335.8437 339.4885 336.1917 339 355 C338.5007 374.225 338.4757 376.3301 341 394 C341.6884 398.8191 342.7669 400.0484 346 404 C351.1939 410.3481 353.8299 409.5373 359 416 C363.293 421.3663 363.2446 423.0956 366 429 C366.3388 429.7259 366.066 430.9811 366 431 C365.191 431.2311 361.1423 432.1275 359 431 C353.7166 428.2193 352.2675 426.487 347 421 C340.5086 414.2382 339.9239 413.921 335 406 C328.6777 395.8294 325.2086 394.4457 324 384 C318.8407 339.409 328.0319 331.293 321 285 C316.603 256.0529 309.0844 255.2282 300 226 C297.8343 219.032 298.0034 210.997 298 211 C297.9927 211.0063 293.1584 222.0195 293 232 C292.6848 251.8557 293.0313 253.8917 297 274 C300.3549 290.9981 300.9727 292.4815 308 308 C312.4864 317.9075 321 327 321 327 "/>
<path id="1" d="M340 341 C340 341 365.2519 353.8849 390 361 C403.7002 364.9388 420.0001 363.9999 420 364 C419.9999 364.0001 402.6444 366.9556 387 365 C363.9795 362.1224 340 354 340 354 "/>
<path id="2" d="M280 222 C280 222 276.8928 240.8388 278 258 C278.8144 270.6239 279.3181 271.9406 284 284 C295.4831 313.5776 297.0931 319.1087 311 343 C313.7892 347.7916 323 351 323 351 "/>
<path id="3" d="M248 148 C248 148 249.3944 175.5071 248 202 C247.4265 212.8967 248.829 216.0886 244 224 C227.9477 250.2985 218.2224 250.6853 201 279 C190.0216 297.0492 190.0866 299.9598 185 321 C179.4052 344.1422 180.3224 345.6673 179 370 C177.8486 391.1852 177.8321 393.1275 180 413 C180.6309 418.7832 181.8311 419.9826 185 425 C187.3877 428.7805 188.3585 430.3816 192 432 C200.0032 435.557 211.9978 436.9994 212 437 C212.0003 437.0001 209.6456 437.4842 209 437 C206.9554 435.4666 205.845 434.2288 204 431 C200.0421 424.0737 198.6557 423.4509 197 416 C193.933 402.1984 194.4323 400.9132 194 386 C193.4401 366.6832 192.1634 365.1541 195 347 C196.9129 334.7572 197.7815 332.3641 204 322 C210.3003 311.4995 214.0019 312.4803 222 302 C228.2575 293.8005 229.2584 293.4142 233 284 C244.364 255.4066 252.9998 223.9998 253 224 C253.0002 224.0002 243.4522 257.8059 240 291 C237.0706 319.1668 241.076 320.3057 240 349 C239.5898 359.9397 238.705 360.0394 237 371 C235.2073 382.5243 236.1553 384.5341 233 394 C231.833 397.5011 226.9961 400.9974 227 401 C227.0295 401.0196 235.1047 400.7097 239 398 C244.5423 394.1445 246.2053 391.4217 250 385 C251.9814 381.6469 251.7286 380.4787 252 376 C255.6712 315.4259 253.0228 312.726 258 253 C258.8665 242.6024 263.9994 231.9956 264 232 C264.0022 232.0161 261.2945 269.5333 265 305 C268.1608 335.2531 272.7037 335.3736 278 366 C284.174 401.7016 280.8897 405.8165 288 438 C289.5319 444.9339 291.9096 447.8885 297 452 C302.6785 456.5865 305.8465 456.8048 314 459 C317.8858 460.0462 323.0163 459.0698 323 459 C322.7385 457.8792 313.1746 444.4365 307 429 C297.4328 405.0819 298.0648 404.1977 291 379 C283.1003 350.8244 282.8369 350.601 277 322 C272.8825 301.8242 273.0721 301.3757 271 281 C270.1036 272.1858 269.6989 271.4569 271 263 C272.5846 252.6999 277 242 277 242 "/>
<path id="4" d="M199 279 C199 279 194.6965 287.3214 189 294 C180.4767 303.9929 179.7305 304.018 170 313 C166.9067 315.8553 166.4591 316.8994 163 318 C156.7041 320.0032 154.065 317.6673 148 320 C142.5858 322.0824 140.6249 323.2597 137 328 C128.7237 338.8228 128.4601 340.7722 122 354 C118.1366 361.9108 118.1398 362.7973 116 371 C115.3084 373.651 115.9975 377.0035 116 377 C116.0086 376.9877 118.3946 367.1406 123 361 C127.8763 354.4982 130.5396 351.2101 137 349 C145.6859 346.0285 151.9624 351.3891 161 348 C172.2623 343.7766 185 331 185 331 "/>
<path id="5" d="M203 329 C203 329 217.4929 324.4719 230 319 C232.6908 317.8228 233.4441 317.2474 235 315 C237.4542 311.4551 239 306 239 306 "/>
<path id="6" d="M225 300 C225 300 232.4798 298.5815 236 296 C238.3075 294.3078 240 289 240 289 "/>
<path id="7" d="M373 310 C373 310 373.0626 317.9111 375 324 C376.2695 327.9899 376.9606 328.8006 380 332 C386.0312 338.3486 390.2893 337.5907 394 344 C399.6534 353.765 397.2338 357.4888 402 370 C405.1254 378.2041 405.4655 378.8744 410 386 C412.1109 389.3171 412.8182 389.9546 416 392 C419.2048 394.0603 419.9431 394.0839 424 395 C435.1753 397.5234 446.9992 398.9971 447 399 C447.0002 399.0008 436.4444 401.0784 426 402 C419.6149 402.5634 418.9709 402.853 413 402 C409.1288 401.447 406.923 401.1633 405 399 C400.7949 394.2692 399.1877 391.2924 397 384 C395.0763 377.5877 396 369 396 369 "/>
<path id="8" d="M359 275 C359 275 358.5623 305.3299 364 329 C366.2438 338.7673 369.3365 339.9133 376 349 C380.0105 354.4688 386 359 386 359 "/>
<path id="9" d="M284 88 C284 88 281.2505 90.3716 281 92 C280.5033 95.2286 281.1366 99.2733 282 101 C282.2726 101.5453 285.7998 102.2002 286 102 C286.6006 101.3994 287.4281 98.4316 288 95 C288.39 92.6603 288.2155 90.5388 288 90 C287.9655 89.9138 286 90 286 90 "/>
<path id="10" d="M314 91 C314 91 311 90 311 90 C310.8247 90.526 310.0128 96.0513 311 100 C311.691 102.7641 314.9207 106.0113 315 106 C315.1009 105.9856 317.3694 102.3635 318 99 C318.7505 94.9972 318.3375 91.0125 318 90 C317.9625 89.8875 315 90 315 90 "/>
<path id="11" d="M264 128 C264 128 273.0652 134.6692 282 137 C294.6386 140.297 297.7343 140.8557 310 140 C316.8051 139.5252 319.0473 137.8822 325 134 C329.3653 131.1531 333 125 333 125 "/>
</g>
</g>
</svg>
