<?xml version="1.0" encoding="utf-8"?>
<!DOCTYPE svg PUBLIC "-//W3C//DTD SVG 1.1//EN" "http://www.w3.org/Graphics/SVG/1.1/DTD/svg11.dtd">
<svg viewBox="0 0 800 800" preserveAspectRatio="xMinYMin meet" xmlns="http://www.w3.org/2000/svg" version="1.1">
<g fill="none" stroke="black" stroke-linecap="round" stroke-linejoin="round" stroke-width="1.6993">
<g transform="translate(87.52,129.0075) scale(1.7654) translate(-96,-73)">
<path id="0" d="M243 203 C243 203 233.5861 187.6006 230 173 C227.0564 161.0155 226.6072 155.8107 229 146 C230.492 139.8829 234.108 137.0885 240 132 C243.9087 128.6243 245.8932 127.6589 251 127 C259.7141 125.8756 264.1066 125.623 271 128 C275.101 129.4141 276.6312 132.1875 280 137 C283.1926 141.5609 284.3101 142.7105 285 148 C287.0801 163.9474 286.4016 166.9357 286 183 C285.942 185.3195 285.5028 186.266 284 188 C279.6404 193.0303 273 198 273 198 "/>
<path id="1" d="M250 206 C250 206 244.8005 210.3979 244 214 C242.3705 221.3329 242.5478 225.1581 244 233 C244.6822 236.684 246.0519 238.707 249 241 C253.6411 244.6098 262 247 262 247 "/>
<path id="2" d="M243 203 C243 203 245.3564 207.7673 247 209 C247.7735 209.5801 251 209 251 209 "/>
<path id="3" d="M275 202 C275 202 280.2125 202.35 282 204 C285.0775 206.8408 286.9649 209.3421 288 214 C289.5526 220.9868 289.1861 224.4762 288 231 C287.6004 233.1978 284 236 284 236 "/>
<path id="4" d="M246 208 C246 208 239.2661 208.536 234 207 C228.1091 205.2818 227.2625 204.789 222 201 C202.7815 187.1627 200.6796 187.0501 184 171 C175.2178 162.5492 173.8273 160.7517 169 150 C163.5795 137.9271 162.7029 135.1207 162 122 C161.3117 109.1518 161.9608 104.7711 166 94 C168.2079 88.1124 171.7686 84.5255 177 82 C182.9082 79.1478 190.359 78.9911 195 80 C196.7231 80.3746 199.9783 87 200 87 C200 87 200.819 82.2521 200 80 C199.3619 78.2451 198.0254 76.868 196 76 C192.1517 74.3507 190.8109 74 186 74 C173.9727 74 168.6243 72.7324 161 76 C156.4086 77.9678 154.75 82.25 151 89 C147.6093 95.1033 146.7204 96.2278 146 103 C144.364 118.3787 145.0285 119.8084 146 136 C146.5058 144.4294 148.1663 150.1655 149 153 C149.0274 153.0932 150.9299 152.8387 151 153 C153.1361 157.9129 154.2317 165.1919 159 176 C161.5322 181.7395 161.7583 182.7583 166 187 C173.5407 194.5407 174.474 195.856 184 201 C198.5424 208.8529 200.1773 209.6048 216 214 C226.0219 216.7838 238 216 238 216 "/>
<path id="5" d="M281 197 C281 197 294.3275 184.9694 306 172 C312.1188 165.2013 312.5747 164.7443 317 157 C320.2967 151.2308 320.9519 150.2886 322 144 C323.288 136.2718 324.7039 131.1059 322 127 C315.3548 116.9091 303.5415 113.3719 295 103 C293.0005 100.572 292.9768 96.5812 294 93 C295.3693 88.2075 296.8657 85.5706 301 82 C306.4897 77.2589 308.8672 75.2112 316 74 C332.6433 71.1738 336.9364 70.4146 354 73 C367.3749 75.0265 381.9992 83.9991 382 84 C382.0005 84.0006 370.7463 80.3838 360 80 C343.534 79.4119 332.4138 79.5732 326 82 C324.6085 82.5265 321.7283 90.7783 323 94 C326.8925 103.861 336.0847 107.3607 341 120 C345.3443 131.1711 345.2654 135.8522 344 148 C343.0479 157.1405 341.1877 159.2035 336 168 C330.1558 177.9098 329.5697 179.9207 321 187 C307.9634 197.7694 290 206 290 206 "/>
<path id="6" d="M235 215 C235 215 231.0257 214.1216 228 215 C216.4969 218.3396 215.8311 219.1212 204 224 C167.3755 239.1029 166.9067 238.9476 131 255 C124.7456 257.7961 124.227 257.8184 119 262 C109.6152 269.5078 107.4937 270.2477 101 279 C97.2115 284.1063 97.4155 286.2058 96 293 C95.059 297.5169 94.6069 299.285 96 303 C98.4206 309.4548 99.5466 311.5466 105 317 C115.6698 327.6698 116.9003 329.6458 130 337 C144.0069 344.8635 145.8416 345.2297 162 349 C189.9058 355.5114 192.1373 352.056 220 358 C228.5994 359.8345 229.6783 360.3978 237 365 C246.3843 370.8987 254.6699 379.8349 255 380 C255.0388 380.0194 255.8832 375.9136 255 374 C253.562 370.8843 252.4746 369.6727 249 367 C227.2136 350.2412 226.9394 346.6738 203 334 C177.685 320.5979 174.695 324.0021 147 313 C138.3147 309.5497 137.1084 309.265 130 305 C128.2392 303.9435 127.2055 302.6442 127 301 C126.4422 296.5373 125.8356 292.0757 128 289 C132.7137 282.3016 136.3663 280.1829 146 274 C169.3531 259.0122 170.592 258.3977 195 246 C201.1893 242.8562 202.6059 244.9511 209 242 C228.0581 233.2039 247 222 247 222 "/>
<path id="7" d="M247 222 C247 222 239.1203 223.3427 234 227 C222.7884 235.0083 221.0408 236.0218 212 247 C200.7408 260.6719 198.9932 262.7974 192 278 C188.4547 285.7072 188.2552 290.0486 189 297 C189.3845 300.5887 191.4611 303.2654 195 306 C201.0595 310.6824 202.8888 310.395 211 314 C216.2999 316.3555 216.4529 316.8906 222 318 C236.0088 320.8018 237.5859 318.1349 251 322 C266.0126 326.3257 267.4918 327.3249 281 335 C288.5219 339.2738 289.8443 340.5554 295 347 C298.9556 351.9446 299.1464 353.8215 301 360 C301.8767 362.9223 300.9918 366.9945 301 367 C301.0006 367.0004 303.8384 364.1819 304 362 C304.6786 352.8392 305.5165 348.556 303 340 C301.3467 334.3788 299.2139 332.0366 294 328 C285.0802 321.0944 283.1767 319.7256 272 316 C255.9515 310.6505 251.6878 313.7821 237 309 C232.9501 307.6814 229.868 305.1247 229 302 C226.2183 291.9859 224.2894 285.1979 227 273 C231.4615 252.9234 245 230 245 230 "/>
<path id="8" d="M245 230 C245 230 240.9526 246.6501 244 259 C249.6103 281.7363 252.4483 284.8867 264 307 C269.3039 317.1531 270.8969 317.3567 279 326 C285.6326 333.0748 286.0876 333.2855 294 339 C303.859 346.1204 304.2141 346.8638 315 352 C324.6526 356.5965 326.0513 358.0051 336 359 C349.2038 360.3204 354.687 361.5233 365 357 C378.1471 351.2337 380.6374 346.3626 393 334 C400.9993 326.0007 401.9682 324.824 407 315 C411.9193 305.3957 412.2968 303.503 414 293 C415.0924 286.2638 415.257 283.6425 413 278 C410.1568 270.8919 406.6679 265.693 402 263 C398.4374 260.9447 393.3269 262.051 387 263 C384.7012 263.3448 383.8376 264.1624 382 266 C379.2436 268.7564 376.9304 272.8956 377 273 C377.1772 273.2658 386.2305 273.1264 388 275 C391.0947 278.2767 392.2148 283.2643 394 291 C395.0269 295.4497 394.8645 296.4612 394 301 C392.9831 306.3385 392.8103 308.1088 390 312 C387.2684 315.7822 385.8072 316.5236 381 319 C369.8834 324.7267 368.3674 326.9539 357 329 C345.6238 331.0477 340.9459 331.8126 331 328 C315.0037 321.8681 311.3446 318.4136 297 306 C286.7487 297.1287 286.0713 294.7854 279 283 C274.6903 275.8172 274.2215 274.3976 273 266 C270.3831 248.0087 270.9812 228.105 271 228 C271.0044 227.9756 273.8533 234.6507 278 238 C285.6693 244.1945 287.8474 246.8367 297 249 C312.4546 252.6529 318.5352 254.2384 333 251 C347.1612 247.8296 353.0913 242.0211 364 234 C366.2275 232.3622 366.4956 229.867 367 226 C367.9016 219.0875 365.2007 213.2991 367 211 C369.6494 207.6146 376.4843 205.8386 385 203 C387.4723 202.1759 388.8992 202.2361 391 203 C393.26 203.8218 394.8635 204.727 396 207 C402.2946 219.5891 401.0045 223.0089 408 237 C411.6921 244.3842 412.5461 244.9401 418 251 C421.1301 254.4779 426 257 426 257 C426 257 413.8846 250.9604 407 243 C399.2532 234.0428 398.4971 224.3016 394 220 C392.838 218.8885 385.4837 219.3749 384 221 C379.3068 226.1402 379.1845 232.9094 373 243 C370.0084 247.8811 369.4553 249.3547 365 252 C355.0043 257.935 352.5568 259.6415 341 262 C329.9051 264.2643 328.133 263.103 316 262 C306.6024 261.1457 304.8693 261.4428 297 258 C290.4106 255.1172 289.4887 253.4887 284 248 C279.9431 243.9431 277 238 277 238 "/>
<path id="9" d="M264 249 L272 247 "/>
<path id="10" d="M257 220 C257 220 262.8024 219.921 263 220 C263.0066 220.0026 262.3456 221.9372 262 222 C259.4657 222.4608 252.374 222.2805 252 222 C251.9065 221.9299 253.9997 215.9999 254 216 C254.0009 216.0005 253.8766 222.9177 254 223 C254.1058 223.0705 260 220 260 220 "/>
<path id="11" d="M269 213 C269 213 266.0521 215.0174 266 215 C265.9777 214.9926 265.82 212.135 266 212 C266.32 211.76 269.7221 211.6295 270 212 C270.88 213.1734 272.029 219.7973 272 220 C271.9979 220.015 269.2675 219.4459 269 219 C268.6178 218.3631 268.6234 215.4707 269 215 C269.3954 214.5058 273 214 273 214 "/>
<path id="12" d="M259 215 C259 215 261 216.4764 261 217 C261 218.5708 259 223 259 223 "/>
<path id="13" d="M257 216 L257 218 "/>
<path id="14" d="M280 202 C280 202 289.4551 208.7381 298 211 C304.7077 212.7756 309.0988 213.8768 314 211 C346.9899 191.6364 355.5146 174.7262 390 157 C400.4742 151.6161 408.3488 153.9873 421 156 C426.8548 156.9314 429.1698 159.424 434 164 C437.6319 167.4407 437.8591 168.7816 440 174 C445.687 187.8621 446.3172 189.0055 450 203 C451.0478 206.9818 451.191 210.2136 450 212 C448.3238 214.5142 444.6648 216.5269 440 218 C436.4704 219.1146 434.0856 218.7714 431 218 C429.7143 217.6786 428.5352 216.4987 428 215 C426.46 210.688 426.0002 204.0003 426 204 C425.9999 203.9998 425.1972 209.3944 426 211 C426.6308 212.2615 430.7998 214.1335 431 214 C431.6673 213.5551 434.1372 209.3142 435 205 C435.9685 200.1575 435.8212 198.9274 435 194 C434.4401 190.6404 433.9024 190.1707 432 187 C428.0222 180.3703 427.9853 177.9467 423 174 C417.8963 169.9595 414.8937 169.4362 408 168 C404.2703 167.223 401.3128 167.1828 399 169 C390.6099 175.5922 390.4029 180.9975 380 190 C364.9527 203.0217 363.977 203.8733 347 214 C336.2485 220.4132 334.958 220.2238 323 224 C316.5575 226.0345 316.0067 225.3219 309 226 C300.5602 226.8168 299.2475 227.8697 292 227 C288.3591 226.5631 286.9471 225.7016 284 223 C275.7901 215.4742 273.8169 214.4525 268 205 C262.5848 196.2003 260 184 260 184 "/>
<path id="15" d="M249 204 C249 204 255.977 187.0051 256 187 C256.0028 186.9994 258.9056 199.1324 258 202 C257.5887 203.3025 249.999 206.0001 250 206 C250.0028 205.9998 270.4814 202.0303 273 201 C273.064 200.9738 272.9212 197.7795 272 197 C268.2342 193.8136 260 190 260 190 "/>
</g>
</g>
</svg>
