<?xml version="1.0" encoding="utf-8"?>
<!DOCTYPE svg PUBLIC "-//W3C//DTD SVG 1.1//EN" "http://www.w3.org/Graphics/SVG/1.1/DTD/svg11.dtd">
<svg viewBox="0 0 800 800" preserveAspectRatio="xMinYMin meet" xmlns="http://www.w3.org/2000/svg" version="1.1">
<g fill="none" stroke="black" stroke-linecap="round" stroke-linejoin="round" stroke-width="1.3297">
<g transform="translate(175.5108,87.52) scale(2.2562) translate(-127,-38.1333)">
<path id="0" d="M209 188.1333 C209 188.1333 211.4832 198.6674 212 209.1333 C213.4675 238.8509 216.3302 241.8866 213 269.1333 C211.25 283.4519 208.1476 285.4597 201 299.1333 C197.1082 306.5784 190.3844 312.1082 190 313.1333 C189.9973 313.1404 195 315.1333 195 315.1333 "/>
<path id="1" d="M242 187.1333 C242 187.1333 239.3999 202.932 240 218.1333 C240.8771 240.3532 240.542 243.5867 245 263.1333 C246.3357 268.9899 248.1933 270.6582 253 275.1333 C261.7661 283.2949 263.3373 283.5982 274 290.1333 C278.3972 292.8284 284 294.1333 284 294.1333 "/>
<path id="2" d="M242 190.1333 C242 190.1333 247.7567 194.3389 253 195.1333 C262.8109 196.6198 266.6545 197.8505 275 195.1333 C284.6952 191.9767 290.8624 186.5156 296 181.1333 C297.2072 179.8686 297.0886 174.1229 296 173.1333 C291.0743 168.6554 273.9721 161.1503 274 161.1333 C274.0877 161.08 298.4684 160.8094 319 159.1333 C320.8927 158.9788 322.0372 158.3712 323 157.1333 C324.7581 154.8729 325.6623 153.3411 326 150.1333 C326.549 144.9178 326.8907 142.4819 325 138.1333 C322.7325 132.9181 321.1575 131.1626 316 127.1333 C306.0514 119.361 304.1817 117.109 293 113.1333 C283.9232 109.906 271 111.1333 271 111.1333 "/>
<path id="3" d="M273 109.1333 C273 109.1333 295.2199 108.8266 311 105.1333 C315.3115 104.1243 317.4099 101.8027 320 98.1333 C322.3505 94.8035 323.8866 89.2268 323 88.1333 C316.7022 80.366 303.5278 71.005 290 61.1333 C288.9733 60.3841 287.0043 60.4244 286 61.1333 C280.6091 64.9387 278.3109 66.6154 273 73.1333 C267.75 79.5765 264.0134 88.1561 264 88.1333 C263.955 88.0568 265.673 68.6073 263 56.1333 C262.028 51.5973 259.2348 48.5765 255 46.1333 C248.5769 42.4277 246.0381 42.7401 237 41.1333 C223.8256 38.7912 215.3057 36.8069 210 38.1333 C208.4336 38.5249 205.7542 44.0426 205 49.1333 C203.9817 56.0066 203.5301 60.0171 206 65.1333 C208.8885 71.1166 214.301 72.0918 219 78.1333 C220.1747 79.6437 220.0123 83.143 220 83.1333 C219.8946 83.0508 206.8763 65.4605 196 60.1333 C188.1386 56.2828 180.1006 57.7114 171 59.1333 C168.0924 59.5876 166.1232 61.9485 164 65.1333 C161.8104 68.4177 161.1777 70.0451 161 74.1333 C160.7291 80.363 161.1826 82.0755 163 88.1333 C163.8962 91.1208 164.6826 92.2022 167 94.1333 C169.9181 96.5651 171.207 97.4108 175 98.1333 C180.6277 99.2053 188 98.1333 188 98.1333 C188 98.1333 157.3645 94.8983 141 96.1333 C138.746 96.3034 137.0186 98.817 135 102.1333 C130.4263 109.6473 129.481 111.0701 127 119.1333 C125.8527 122.8622 126.0599 124.6081 127 128.1333 C127.7381 130.9013 129.3247 133.7769 131 134.1333 C144.9222 137.0955 173.9993 138.133 174 138.1333 C174.0005 138.1336 153.5533 137.6768 144 140.1333 C141.8711 140.6808 139.3758 144.1269 139 147.1333 C137.774 156.9412 138.5432 160.8431 140 172.1333 C140.3703 175.003 141.123 176.8084 143 178.1333 C147.7307 181.4727 149.9916 182.2 157 184.1333 C163.9621 186.0539 166.4334 187.4828 172 186.1333 C179.8327 184.2345 189.9988 176.1303 190 176.1333 C190.0063 176.1491 180.6385 186.0833 176 196.1333 C172.3458 204.0507 173.5606 205.7699 172 215.1333 C171.6032 217.5139 171.453 218.8571 172 220.1333 C172.3594 220.972 174.0885 222.2736 175 222.1333 C183.0992 220.8873 193.9842 220.1491 198 216.1333 C202.0158 212.1175 204 193.1333 204 193.1333 "/>
<path id="4" d="M205 194.1333 L208 190.1333 "/>
</g>
</g>
</svg>
