<?xml version="1.0" encoding="utf-8"?>
<!DOCTYPE svg PUBLIC "-//W3C//DTD SVG 1.1//EN" "http://www.w3.org/Graphics/SVG/1.1/DTD/svg11.dtd">
<svg viewBox="0 0 800 800" preserveAspectRatio="xMinYMin meet" xmlns="http://www.w3.org/2000/svg" version="1.1">
<g fill="none" stroke="black" stroke-linecap="round" stroke-linejoin="round" stroke-width="1.3825">
<g transform="translate(185.17,87.52) scale(2.17) translate(-163,-145.1333)">
<path id="0" d="M243 295.1333 C243 295.1333 235.2552 318.9593 230 343.1333 C222.8027 376.2408 224.3429 377.0594 218 410.1333 C217.4157 413.1799 216.21 416.1142 216 416.1333 C215.2951 416.1974 207 411.1333 207 411.1333 "/>
<path id="1" d="M270 296.1333 C270 296.1333 264.0984 314.0463 262 331.1333 C260.7242 341.5222 261.2756 342.5714 263 353.1333 C265.1896 366.5449 267.8147 367.3859 270 380.1333 C270.6067 383.6721 268.3647 384.7982 269 388.1333 C270.135 394.0919 274.0496 400.4892 274 401.1333 C273.9982 401.1569 268.0013 401.1107 268 401.1333 C267.9369 402.2057 273 418.1333 273 418.1333 "/>
<path id="2" d="M237 286.1333 C237 286.1333 223.8336 301.9848 212 315.1333 C211.3566 315.8482 210.0059 316.1421 210 316.1333 C209.9295 316.0276 210.2 312.5333 210 312.1333 C209.95 312.0333 208.43 311.775 208 312.1333 C204.0586 315.4178 201.9338 321.0482 198 322.1333 C192.312 323.7024 183.0837 322.8035 179 320.1333 C175.6201 317.9234 173.145 311.7743 172 305.1333 C171.0353 299.5379 174.0907 292.4037 174 291.1333 C173.9986 291.1137 170.9995 291.1335 171 291.1333 C171.0034 291.1321 185.069 288.0299 188 286.1333 C188.5624 285.7695 188.2822 280.2431 188 280.1333 C185.7757 279.2683 171.5011 280.1046 170 279.1333 C169.5596 278.8484 171.2594 273.803 171 269.1333 C170.7884 265.3245 170.507 263.8961 169 261.1333 C168.141 259.5586 165.2986 259.4272 165 258.1333 C163.2143 250.3953 162.3813 245.3419 163 235.1333 C163.277 230.5631 166.7232 226.6559 167 225.1333 C167.0164 225.043 164.9931 224.1608 165 224.1333 C165.0516 223.9271 166.6886 221.5705 168 221.1333 C169.9671 220.4776 173.9921 221.1314 174 221.1333 C174.0023 221.1339 172 222.0374 172 222.1333 C172 222.4211 172.8848 224.4363 174 225.1333 C176.0866 226.4374 180 227.1733 180 227.1333 C180 226.7733 175.8755 217.8858 174 209.1333 C173.0275 204.595 173.569 200.2109 174 199.1333 C174.069 198.9609 177.8314 199.4465 178 199.1333 C179.1441 197.0085 178.5305 191.9544 181 186.1333 C185.268 176.0732 186.2795 171.8538 192 166.1333 C195.1371 162.9963 201.4298 161.3094 205 162.1333 C209.5253 163.1776 213.8563 166.6811 218 172.1333 C222.077 177.4978 222.0368 179.9349 224 187.1333 C224.8261 190.1622 224 194.1333 224 194.1333 C224 194.1333 221.5768 179.804 223 168.1333 C223.8652 161.0385 225.3758 159.1737 229 153.1333 C230.6757 150.3405 231.9894 149.1805 235 148.1333 C242.0192 145.6919 248.5335 144.9509 252 145.1333 C252.455 145.1573 252.7622 148.1706 254 149.1333 C256.2604 150.8914 260.4592 151.0517 261 152.1333 C261.7073 153.5478 259.1234 157.9777 260 161.1333 C261.072 164.9925 265.0233 166.2264 266 170.1333 C267 174.1333 264.9853 181.1424 265 181.1333 C265.0487 181.1034 271.6512 167.5368 279 162.1333 C285.4138 157.4173 289.2403 158.1526 299 156.1333 C303.1352 155.2778 304.9598 154.6623 308 156.1333 C317.8833 160.9156 320.4163 163.3927 330 171.1333 C332.4851 173.1405 333.1939 174.2314 334 177.1333 C335.3918 182.1436 336.1033 184.0895 335 189.1333 C332.9631 198.445 331.2032 202.6884 327 209.1333 C325.739 211.0668 320 212.1334 320 212.1333 C320.0001 212.1332 324.8304 207.3869 328 207.1333 C334.3242 206.6274 337.6716 207.6905 345 210.1333 C348.5285 211.3095 349.9477 212.1831 352 215.1333 C357.045 222.3855 358.802 224.5854 361 233.1333 C362.8394 240.2867 361.8442 241.9726 361 250.1333 C360.3887 256.0429 360.4859 257.6135 358 262.1333 C355.7418 266.2392 354.2498 267.3002 350 270.1333 C345.9627 272.8248 344.8263 273.1173 340 274.1333 C335.9937 274.9768 334.6956 275.0572 331 274.1333 C327.715 273.3121 324.0132 270.052 324 270.1333 C323.812 271.2929 326.0025 308.4124 325 311.1333 C324.9377 311.3025 314.5866 311.1911 310 308.1333 C304.0644 304.1762 298.0044 293.1295 298 293.1333 C297.8704 293.2444 297.8593 307.4902 296 320.1333 C295.4931 323.5802 293.0041 327.1292 293 327.1333 C292.9984 327.135 293.5443 323.6281 293 323.1333 C290.5371 320.8944 282.3976 318.6574 282 317.1333 C281.2964 314.4364 285.5994 307.8364 287 300.1333 C287.3768 298.0609 286 295.1333 286 295.1333 "/>
<path id="3" d="M226 230.1333 C226 230.1333 231.6599 232.8581 232 234.1333 C232.6356 236.5169 230.0688 245.1075 230 245.1333 C229.9663 245.146 225.4524 240.7644 224 237.1333 C223.0224 234.6894 223.0834 232.5166 224 230.1333 C225.0375 227.4358 226.2976 226.0042 229 224.1333 C231.9749 222.0738 235.9409 220.7803 237 221.1333 C237.9582 221.4527 240.0466 224.701 241 228.1333 C242.3257 232.9057 243.4099 235.1051 242 239.1333 C237.4659 252.0879 234.6264 254.5752 227 268.1333 C226.0451 269.8309 225.3174 270.6393 224 271.1333 C222.4032 271.7321 220.0252 271.9535 219 271.1333 C214.9811 267.9182 209.9157 263.4065 209 259.1333 C208.0196 254.558 209.9861 248.6589 213 243.1333 C214.7179 239.9838 216.8229 239.2219 221 237.1333 C226.3163 234.4752 233 233.1333 233 233.1333 "/>
<path id="4" d="M300 222.1333 C300 222.1333 300.1234 228.0099 299 229.1333 C297.034 231.0994 289.3935 233.348 289 233.1333 C288.6751 232.9561 287.1706 226.4511 288 223.1333 C288.6168 220.6663 290.3792 219.0394 293 217.1333 C295.0865 215.6159 296.085 215.7811 299 215.1333 C300.357 214.8318 302 215.1333 302 215.1333 C302 215.1333 299.9979 215.1209 300 215.1333 C300.0403 215.3749 303 218.7811 303 221.1333 C303 226.2298 302.6837 229.1788 300 234.1333 C296.9875 239.6948 294.6052 242.8307 290 245.1333 C285.6919 247.2874 278.4666 247.4899 276 246.1333 C273.6893 244.8625 271.7899 239.8014 270 234.1333 C269.0983 231.2778 269.125 229.9333 270 227.1333 C271.3203 222.9084 271.8157 220.7869 275 218.1333 C282.1752 212.154 285.4314 209.6535 294 207.1333 C299.6671 205.4666 305.6902 205.9748 309 208.1333 C312.6224 210.4957 314.0789 215.1228 317 222.1333 C318.8257 226.5149 318.8129 227.2697 319 232.1333 C319.2963 239.8371 319.7633 240.7274 318 248.1333 C314.9439 260.9689 314.7195 265.6785 309 274.1333 C305.886 278.7366 301.5444 279.9519 295 282.1333 C291.0734 283.4422 289.2605 283.2448 285 282.1333 C278.7946 280.5145 273.1784 278.7426 272 276.1333 C269.4735 270.539 269.5499 260.7038 271 251.1333 C271.5199 247.702 273.6668 245.414 277 243.1333 C281.7705 239.8693 290 238.1333 290 238.1333 "/>
<path id="5" d="M249 185.1333 C249 185.1333 248.2127 193.9206 248 194.1333 C247.9575 194.1759 243.5695 192.3862 243 191.1333 C242.1359 189.2324 242.1257 185.7561 243 183.1333 C243.5828 181.3848 244.8751 180.5499 247 179.1333 C249.0186 177.7876 251.1377 176.774 252 177.1333 C254.0522 177.9884 257.8681 181.061 259 184.1333 C260.418 187.9822 260.1076 190.8167 259 196.1333 C257.7962 201.9114 256.3833 206.3108 254 208.1333 C251.854 209.7744 247.6006 209.7127 242 209.1333 C233.802 208.2853 233.1625 207.4655 225 205.1333 C222.9433 204.5457 221.5517 204.1264 221 203.1333 C220.0127 201.3562 219.3591 198.6968 220 196.1333 C220.9732 192.2406 221.8908 190.4369 225 187.1333 C229.1634 182.7097 230.7441 180.5539 236 179.1333 C246.5982 176.269 254.0947 175.5058 262 177.1333 C265.044 177.76 269.4131 182.3187 270 186.1333 C272.4666 202.1661 274.5917 211.4224 270 229.1333 C265.3608 247.0273 258.5561 251.8435 249 267.1333 C248.1589 268.4791 246.8408 269.025 245 269.1333 C231.5882 269.9223 225.6603 265.5799 215 269.1333 C205.5242 272.2919 196.6483 285.1147 194 286.1333 C193.7781 286.2187 189.7915 282.4314 189 279.1333 C187.2393 271.7971 185.9233 268.2536 188 261.1333 C192.0313 247.3116 194.587 245.1551 203 231.1333 C207.789 223.1517 213.0659 222.3225 215 216.1333 C216.6891 210.7281 212.6407 200.6603 213 199.1333 C213.0307 199.0029 219 199.1333 219 199.1333 "/>
<path id="6" d="M279 187.1333 C279 187.1333 279.5901 195.3065 278 198.1333 C276.6935 200.4559 270.0067 203.1481 270 203.1333 C269.9282 202.9753 270.2975 191.097 273 187.1333 C275.1239 184.0183 280.9341 182.1498 285 181.1333 C286.0541 180.8698 287.9762 181.9389 289 183.1333 C290.2663 184.6107 290.8138 185.8986 291 188.1333 C291.2493 191.125 291.1851 192.9607 290 195.1333 C288.9434 197.0704 287.4601 198.1083 285 199.1333 C282.2631 200.2737 280.7138 200.6761 278 200.1333 C274.4881 199.4309 270.5085 197.4045 270 196.1333 C269.2797 194.3325 270.196 189.7722 272 185.1333 C273.37 181.6104 274.0479 180.4639 277 178.1333 C282.6975 173.6353 284.5308 172.721 291 170.1333 C293.2567 169.2307 295.4162 169.3414 297 170.1333 C298.7158 170.9912 300.2468 172.8736 301 175.1333 C301.8325 177.6309 302.1511 179.4954 301 182.1333 C291.3845 204.1688 277.1165 229.99 277 230.1333 C276.9752 230.1639 274.3449 221.3397 275 214.1333 C275.7229 206.1815 280 197.1333 280 197.1333 "/>
<path id="7" d="M263 271.1333 C263 271.1333 267.0021 272.1227 267 272.1333 C266.892 272.6733 261.4851 281.0525 261 281.1333 C260.6874 281.1854 256.254 277.2683 255 274.1333 C253.9328 271.4652 254.2366 267.2239 255 266.1333 C255.6584 265.1927 260.8906 263.5416 262 264.1333 C264.4931 265.463 268.4935 269.614 270 274.1333 C271.665 279.1284 271.6619 282.94 270 288.1333 C268.3904 293.1635 265.6817 296.6788 262 299.1333 C259.4388 300.8408 256.2853 300.6375 252 300.1333 C248.8115 299.7582 247.3905 299.0892 245 297.1333 C242.7474 295.2903 241.338 293.7248 241 291.1333 C240.1257 284.4301 239.6605 280.0885 242 274.1333 C244.008 269.0219 247.0522 266.7067 252 263.1333 C254.6041 261.2526 256.587 260.8365 260 261.1333 C266.6933 261.7154 270.2979 262.4111 275 265.1333 C277.1867 266.3993 278.2648 268.7514 279 272.1333 C280.5151 279.1028 281.1498 281.2344 280 288.1333 C278.9107 294.6692 277.7317 295.9138 274 302.1333 C270.5227 307.9288 266.1462 312.3692 265 313.1333 C264.9298 313.1801 263.495 310.5134 262 310.1333 C238.5379 304.1684 219.9395 302.94 206 298.1333 C204.897 297.753 203.3283 292.9321 204 290.1333 C205.69 283.0916 206.7831 278.9299 212 273.1333 C218.4888 265.9236 221.3032 264.8507 231 260.1333 C238.8237 256.3272 249 255.1333 249 255.1333 "/>
<path id="8" d="M200 304.1333 C200 304.1333 184.8096 309.3863 184 309.1333 C183.8248 309.0786 184.344 300.2801 184 299.1333 C183.969 299.0301 181 299.1333 181 299.1333 C181 299.1263 183.2811 297.1333 184 297.1333 C184.7189 297.1333 186.4515 298.0363 187 299.1333 C188.8022 302.7378 189.7931 304.5805 190 309.1333 C190.2431 314.4824 188.7041 320.6459 188 321.1333 C187.3905 321.5553 179.1318 319.7322 177 318.1333 C176.1151 317.4697 175.3048 314.2189 176 312.1333 C178.5763 304.4044 179.9787 299.3829 185 294.1333 C188.2901 290.6937 197.6946 288.8483 198 289.1333 C198.7233 289.8084 200.308 299.5094 200 308.1333 C199.8518 312.2826 198.5247 314.5922 197 317.1333 C196.6047 317.7922 194 318.1333 194 318.1333 "/>
<path id="9" d="M180 245.1333 C180 245.1333 182.0385 246.941 182 247.1333 C181.9135 247.566 179 250.1333 179 250.1333 C178.92 250.0533 179.1968 244.7789 178 243.1333 C176.592 241.1973 173.5658 241.4425 171 239.1333 C169.1846 237.4995 168.1686 235.4825 168 234.1333 C167.9137 233.4431 169.3491 231.278 170 231.1333 C171.6543 230.7657 175.5125 230.8938 177 232.1333 C179.3736 234.1113 181.1595 237.1411 182 241.1333 C182.8185 245.021 182.1432 249.1736 181 251.1333 C180.4059 252.1518 175.7192 253.5529 175 253.1333 C173.326 252.1568 170.2339 247.8351 169 244.1333 C168.3643 242.2264 168.8247 239.3086 170 238.1333 C173.1901 234.9432 181.2976 231.7655 182 231.1333 C182.0077 231.1264 180 229.1333 180 229.1333 C180 229.1333 186.7869 233.0761 189 237.1333 C191.6806 242.0478 192.1978 244.8043 192 251.1333 C191.7422 259.3824 190.5903 264.1882 188 269.1333 C187.1407 270.7739 181.3521 272.4384 181 272.1333 C179.2504 270.617 173 256.1333 173 256.1333 "/>
<path id="10" d="M192 192.1333 C192 192.1333 210.6675 192.4671 212 193.1333 C212.13 193.1983 209.9895 201.0703 210 201.1333 C210.0021 201.1457 212.9999 199.1333 213 199.1333 C213.0001 199.1333 211.0214 201.1333 211 201.1333 C211 201.1333 211.0164 199.1316 211 199.1333 C209.4863 199.2927 196.352 203.5118 192 203.1333 C190.945 203.0416 188.2214 199.5683 188 197.1333 C187.4498 191.0806 188.1801 185.4557 190 181.1333 C190.5972 179.7151 193.3802 178.5364 196 178.1333 C198.7758 177.7063 201.8066 177.8604 203 179.1333 C206.5506 182.9207 208.7424 187.0783 211 194.1333 C212.2857 198.151 211.834 199.463 211 204.1333 C209.4244 212.9569 209.2567 214.3173 206 222.1333 C204.6892 225.2792 202.858 227.3592 201 228.1333 C199.3691 228.8129 195.1833 228.3167 194 227.1333 C191.6334 224.7667 189.3658 221.1324 189 216.1333 C188.0392 203.0027 188.6247 198.6886 191 186.1333 C191.6213 182.8493 193.5229 180.4447 196 179.1333 C199.7156 177.1662 206.2582 176.1657 208 177.1333 C210.0262 178.259 213.7571 183.7899 214 189.1333 C215.066 212.5851 213.7458 231.9541 211 243.1333 C210.714 244.2978 204.2453 245.8503 200 246.1333 C198.5343 246.231 197.0238 245.3278 196 244.1333 C194.7337 242.656 194 239.1333 194 239.1333 "/>
<path id="11" d="M234 162.1333 C234 162.1333 239.4719 163.901 240 165.1333 C241.0427 167.5663 241.3561 173.2515 240 176.1333 C238.7961 178.6915 232.8937 182.2021 232 182.1333 C231.3434 182.0828 228.2294 178.3297 227 175.1333 C226.1734 172.9841 226.1699 171.4852 227 169.1333 C228.8148 163.9914 230.4993 159.9672 233 158.1333 C234.6 156.96 240.1956 156.8928 242 158.1333 C244.9196 160.1405 247.9505 164.2355 249 169.1333 C250.4094 175.7104 250.0674 180.6203 248 186.1333 C246.8101 189.3063 240 193.1333 240 193.1333 "/>
<path id="12" d="M311 177.1333 C311 177.1333 312.5146 183.8468 312 185.1333 C311.7292 185.8104 307.3235 187.4029 307 187.1333 C305.35 185.7583 302.1594 180.6861 300 175.1333 C299.1199 172.8703 299.421 169.7123 300 169.1333 C300.9649 168.1684 308 167.1333 308 167.1333 "/>
<path id="13" d="M323 166.1333 C323 166.1333 325.4724 170.2642 326 174.1333 C326.8784 180.5749 327.0554 181.8009 326 188.1333 C325.1959 192.958 324.7692 193.9795 322 198.1333 C317.1903 205.3479 314.776 208.2002 310 212.1333 C308.9851 212.9691 306.4575 213.0078 305 212.1333 C298.5288 208.2506 291.8558 205.0379 290 200.1333 C287.415 193.3015 289.2869 183.4134 291 175.1333 C291.3422 173.4796 293.5921 171.7615 296 171.1333 C303.3795 169.2082 306.4343 168.8181 314 169.1333 C316.5864 169.2411 319.1542 170.8646 320 172.1333 C320.725 173.2208 320 178.1333 320 178.1333 "/>
<path id="14" d="M330 237.1333 C330 237.1333 331.448 242.6692 331 245.1333 C330.7968 246.2508 328.0332 248.157 328 248.1333 C327.6241 247.8648 323.5647 241.9615 324 240.1333 C324.9353 236.2052 329.755 229.4239 333 227.1333 C334.3022 226.2141 339.308 226.8644 341 228.1333 C342.9337 229.5836 344.1556 232.3334 345 236.1333 C345.95 240.4083 345.8973 241.4975 345 246.1333 C343.0116 256.4069 342.4511 257.5468 339 267.1333 C338.243 269.2361 337.248 270.7173 336 271.1333 C333.408 271.9973 330.6956 272.0572 327 271.1333 C323.715 270.3121 321.9197 269.533 320 267.1333 C317.0004 263.3839 315.6364 261.3519 315 256.1333 C313.3555 242.6483 313.9362 238.1895 315 226.1333 C315.1512 224.4195 316.285 223.0861 318 222.1333 C324.0206 218.7885 325.7807 217.9382 333 216.1333 C336.9378 215.1489 339.7578 214.9375 342 216.1333 C344.5578 217.4975 346.4119 220.0748 348 224.1333 C350.4823 230.4769 350.4569 231.7104 351 239.1333 C351.9279 251.8142 353.2379 259.1656 351 265.1333 C350.0962 267.5434 344.6999 269.8667 339 271.1333 C332.5876 272.5583 330.705 272.4743 324 271.1333 C316.7586 269.6851 309 265.1333 309 265.1333 "/>
<path id="15" d="M313 294.1333 C313 294.1333 315.5047 296.3171 316 298.1333 C316.7197 300.7721 316.2177 304.9778 316 305.1333 C315.7574 305.3066 311.8924 304.4188 309 303.1333 C307.9408 302.6626 307.0516 301.8553 307 301.1333 C306.7129 297.1143 306.1201 293.6452 308 289.1333 C310.3846 283.4102 316.9621 277.1291 317 277.1333 C317.0071 277.1341 318.4974 285.6412 317 290.1333 C315.8098 293.704 312.8093 295.8859 310 298.1333 C309.371 298.6365 307.4532 298.5865 307 298.1333 C304.734 295.8673 301.4904 292.9342 301 289.1333 C299.9091 280.6786 303 267.1333 303 267.1333 "/>
<path id="16" d="M295 256.1333 L288 262.1333 "/>
<path id="17" d="M291 257.1333 L276 272.1333 "/>
<path id="18" d="M273 423.1333 C273 423.1333 267.01 420.3942 264 417.1333 C261.9448 414.9068 261.1492 410.1085 261 410.1333 C259.644 410.3593 252.4299 414.4454 246 420.1333 C239.9331 425.5002 235.0879 433.1647 235 433.1333 C234.8696 433.0868 232.2104 415.2385 232 415.1333 C231.9036 415.0851 224.1711 424.3496 221 426.1333 C220.2851 426.5355 216.5415 424.9997 216 424.1333 C215.3661 423.119 216.009 418.132 216 418.1333 C215.9159 418.1453 209.0074 425.1398 209 425.1333 C208.8883 425.0356 207.6725 416.7003 208 411.1333 C208.0732 409.8884 209.9627 408.124 210 408.1333 C210.0896 408.1557 212 412.1333 212 412.1333 "/>
<path id="19" d="M274 391.1333 C274 391.1333 282.942 398.8807 288 407.1333 C291.7172 413.1982 293.1839 422.0184 293 422.1333 C291.7812 422.8951 264 422.1333 264 422.1333 "/>
<path id="20" d="M269 376.1333 C269 376.1333 275.5488 380.3635 281 385.1333 C283.297 387.1432 284.9508 389.8383 285 390.1333 C285.0043 390.1594 282.125 390.8833 282 391.1333 C281.875 391.3833 282.1811 393.0074 283 394.1333 C285.876 398.0878 288.9057 398.4401 290 402.1333 C292.096 409.2075 292.1006 418.5653 291 421.1333 C290.6275 422.0025 281 423.1333 281 423.1333 "/>
</g>
</g>
</svg>
