<?xml version="1.0" encoding="utf-8"?>
<!DOCTYPE svg PUBLIC "-//W3C//DTD SVG 1.1//EN" "http://www.w3.org/Graphics/SVG/1.1/DTD/svg11.dtd">
<svg viewBox="0 0 800 800" preserveAspectRatio="xMinYMin meet" xmlns="http://www.w3.org/2000/svg" version="1.1">
<g fill="none" stroke="black" stroke-linecap="round" stroke-linejoin="round" stroke-width="2.1793">
<g transform="translate(100.5974,87.52) scale(1.3766) translate(-101,-11)">
<path id="0" d="M304 282 C304 282 314.012 317.2929 317 352 C320.4032 391.529 318.1075 392.7606 317 433 C316.616 446.9509 314 461 314 461 "/>
<path id="1" d="M326 290 C326 290 331.0347 313.0064 333 336 C336.0052 371.161 338.1303 372.6487 336 407 C334.2346 435.4663 325 465 325 465 "/>
<path id="2" d="M302 286 C302 286 298.65 278.7068 294 273 C287.9471 265.5714 287.5186 264.8209 280 259 C272.5107 253.2018 270.5652 254.863 263 249 C250.995 239.6961 252.141 237.4852 240 228 C220.3876 212.6778 220.1453 212.09 199 199 C178.4696 186.2907 161.5243 179.2883 156 176 C155.9814 175.989 156.9189 173.9804 157 174 C161.7301 175.1418 171.259 177.9375 185 183 C199.6648 188.4028 200.0778 188.1754 214 195 C225.324 200.551 225.1582 203.2168 236 208 C241.0358 210.2217 242.4775 208.1107 248 210 C260.9584 214.4332 261.5379 214.769 274 221 C283.2971 225.6485 291.5038 232.0276 292 232 C292.019 231.9989 293.4006 225.3399 292 220 C285.7909 196.3278 282.9993 195.6499 276 171 C271.557 155.353 274.0886 154.2658 269 139 C257.7853 105.356 243 72 243 72 "/>
<path id="3" d="M260 118 C260 118 213.0001 103 213 103 C212.9999 103 235.4561 109.8898 252 120 C260.2999 125.0721 267 136 267 136 "/>
<path id="4" d="M251 72 C251 72 256.5992 73.166 260 76 C270.616 84.8467 272.707 85.5478 281 97 C292.9577 113.513 294.2712 115.0092 302 134 C311.2817 156.8064 312.0358 158.7192 316 183 C319.8128 206.3533 317.9728 231.9498 318 232 C318.0103 232.0191 325.1061 219.7064 329 207 C334.4147 189.3309 332.1205 188.1872 337 170 C343.0773 147.3482 341.6177 145.9722 351 125 C366.658 89.9997 368.5806 89.508 388 56 C393.8217 45.9548 394.5017 45.4763 402 37 C405.5745 32.9592 411 30 411 30 "/>
<path id="5" d="M315 145 C315 145 326.966 123.0255 327 123 C327.0116 122.9913 328.7351 130.7947 327 136 C323.3963 146.8111 315 159 315 159 "/>
<path id="6" d="M364 105 C364 105 365.9771 55.0916 366 55 C366.0056 54.9778 370.6661 61.9984 373 69 C374.9528 74.8585 375 82 375 82 "/>
<path id="7" d="M414 36 C414 36 426.6092 29.5545 439 24 C440.8143 23.1867 442.7469 22.9367 443 23 C443.0338 23.0084 443.3344 24.699 443 25 C433.2461 33.7785 425.8122 36.8593 413 50 C407.3851 55.7589 407.9384 57.2463 404 65 C376.0416 120.0431 372.6533 120.0317 349 176 C337.7654 202.5833 333 233 333 233 "/>
<path id="8" d="M332 239 C332 239 361.1594 231.6925 388 222 C396.315 218.9974 396.2351 215.7732 404 213 C408.9938 211.2165 415.9998 211.9966 416 212 C416.0171 212.2559 411.6594 222.7493 405 228 C387.8796 241.4988 381.9318 239.5512 364 253 C357.5476 257.8393 357.1386 259.6966 353 267 C349.0319 274.0026 350.7806 275.6909 347 283 C343.5061 289.755 338 296 338 296 "/>
<path id="9" d="M370 225 C370 225 371.89 226.0943 372 226 C373.0592 225.0921 374.9804 222.7027 377 219 C383.8706 206.404 389.9958 193.0005 390 193 C390.0018 192.9998 386 218 386 218 "/>
<path id="10" d="M368 264 C368 264 364.9977 264.0035 365 264 C365.0074 263.9889 367.3961 261.9469 370 261 C378.045 258.0746 386.9213 255.9055 387 256 C387.0959 256.1151 383.2537 271.2828 380 273 C373.8775 276.2313 351 275 351 275 "/>
<path id="11" d="M244 232 C244 232 232.8421 229.1889 226 231 C218.8062 232.9042 209.9782 240.9962 210 241 C210.0755 241.0133 260 237 260 237 "/>
<path id="12" d="M232 204 C232 204 237.412 190.0532 241 176 C243.3408 166.8319 243.9985 156.9988 244 157 C244.0026 157.0022 246.7498 169.239 247 181 C247.2387 192.2203 245 204 245 204 "/>
<path id="13" d="M280 320 C280 320 270.7877 325.9184 263 327 C254.8873 328.1268 252.0713 328.1043 244 325 C221.6077 316.3876 219.6929 315.2044 198 302 C162.7097 280.5189 161.0986 279.6338 129 255 C119.3519 247.5957 118.0666 245.9491 112 236 C106.4474 226.8937 106.5796 225.0219 104 214 C101.2227 202.1332 100.7212 200.7113 101 189 C101.1912 180.9688 105 172 105 172 "/>
<path id="14" d="M119 182 C119 182 116.7936 170.6514 118 161 C119.1414 151.8687 119.5831 150.3922 124 142 C134.0928 122.8236 134.1687 119.8432 148 104 C160.2151 90.0082 163.1625 90.6141 179 79 C185.3778 74.323 185.8989 73.5063 193 71 C202.0377 67.8102 209.9242 66.7204 213 67 C213.3987 67.0362 215 73 215 73 "/>
<path id="15" d="M260 53 C260 53 280.1582 46.307 300 43 C312.4606 40.9232 313.2671 42 326 42 C328.9384 42 330.6996 41.7996 332 43 C335.2221 45.9743 339 54 339 54 "/>
<path id="16" d="M343 46 C343 46 346.5375 39.1609 351 36 C357.2006 31.6079 358.8499 31.3286 367 29 C382.8475 24.4721 383.4117 24.2968 400 22 C448.1121 15.3383 462.9004 9.2513 497 11 C504.3802 11.3785 507.9341 18.9341 517 28 C523.1256 34.1256 524.6421 34.7245 528 42 C532.9692 52.7665 532.7436 54.5898 535 67 C536.6474 76.0607 536.557 76.7173 536 86 C535.0813 101.311 535.2574 102.0702 532 117 C529.3688 129.0597 528.9129 130.1915 524 141 C521.8344 145.7643 521.1008 146.6929 517 150 C506.386 158.5596 493 166 493 166 "/>
<path id="17" d="M480 178 C480 178 491.402 190.4468 499 203 C502.2101 208.3037 502.2526 209.6472 503 216 C504.1651 225.9037 504.722 227.242 503 237 C500.4098 251.6779 500.1495 253.2819 494 267 C487.5639 281.3575 487.4247 284.752 477 295 C460.2617 311.4546 456.8441 313.2378 435 325 C412.7514 336.98 408.5737 338.3566 386 344 C378.2304 345.9424 373.2602 344.9214 367 342 C361.7866 339.5671 360.4552 336.2373 356 330 C353.3397 326.2756 352 321 352 321 "/>
</g>
</g>
</svg>
