<?xml version="1.0" encoding="utf-8"?>
<!DOCTYPE svg PUBLIC "-//W3C//DTD SVG 1.1//EN" "http://www.w3.org/Graphics/SVG/1.1/DTD/svg11.dtd">
<svg viewBox="0 0 800 800" preserveAspectRatio="xMinYMin meet" xmlns="http://www.w3.org/2000/svg" version="1.1">
<g fill="none" stroke="black" stroke-linecap="round" stroke-linejoin="round" stroke-width="2.0401">
<g transform="translate(194.8661,87.52) scale(1.4705) translate(-182,-45.2)">
<path id="0" d="M255 154.2 C255 154.2 253.7022 158.3489 252 159.2 C244.4173 162.9914 241.461 164.1533 231 166.2 C219.1259 168.5232 214.1007 169.6729 206 168.2 C202.8912 167.6348 201.1 164.6052 198 160.2 C191.918 151.5572 191.4322 150.8954 187 141.2 C183.6271 133.8218 182.495 132.7893 182 125.2 C181.0945 111.315 181.7554 106.4229 184 95.2 C184.443 92.985 186.2789 91.7117 189 90.2 C194.5199 87.1334 195.7145 86.1821 202 85.2 C210.6658 83.846 218.7258 84.7212 221 85.2 C221.1008 85.2212 221.2 88.8 221 89.2 C220.95 89.3 219.0866 89.3732 219 89.2 C217.7873 86.7746 215.7079 83.0404 215 77.2 C213.8092 67.3762 213.9759 65.7585 215 56.2 C215.357 52.8675 216.9125 49.4014 218 49.2 C231.0499 46.7834 258.213 44.8271 269 46.2 C270.1236 46.343 271.928 51.3762 273 56.2 C273.7876 59.744 273 64.2001 273 64.2 C273.0001 64.1998 273.1804 55.9621 275 50.2 C275.7789 47.7335 277.6064 45.2858 279 45.2 C298.7146 43.9868 331.4094 43.3365 340 46.2 C341.2139 46.6046 343.5124 59.7185 342 66.2 C341.0632 70.215 333.0916 76.1491 333 76.2 C332.9825 76.2097 332.2647 72.0022 333 71.2 C335.5124 68.4592 338.2908 66.674 344 64.2 C352.7876 60.392 353.74 60.1159 363 58.2 C367.5748 57.2535 368.7778 57.1445 373 58.2 C377.75 59.3875 378.7754 60.0315 383 63.2 C390.2971 68.6728 394.736 70.54 397 76.2 C399.6779 82.8946 399.6158 91.1575 397 98.2 C394.8802 103.9072 384.15 111.0731 384 111.2 C383.9894 111.2089 383.8486 109.2637 384 109.2 C387.8694 107.5708 393.6005 104.7666 403 103.2 C413.8877 101.3854 417.0214 99.9031 426 102.2 C435.1071 104.5297 437.1652 107.4977 446 114.2 C451.035 118.0196 452.9834 119.0912 455 124.2 C459.5188 135.6476 459.9996 140.5286 461 152.2 C461.2366 154.96 459.961 158.1541 458 159.2 C437.516 170.1248 428.493 174.272 401 184.2 C394.6039 186.5097 392.4648 185.5403 386 185.2 C384.2244 185.1065 383.1703 184.5653 382 183.2 C377.9348 178.4573 374 171.2 374 171.2 "/>
<path id="1" d="M224 168.2 C224 168.2 218.5739 167.6275 215 169.2 C207.2767 172.5982 202.0498 174.715 199 179.2 C196.7097 182.568 196.479 188.4961 198 194.2 C199.7963 200.9363 202.1296 203.0308 207 209.2 C208.925 211.6383 209.9116 212.2073 213 213.2 C223.0069 216.4165 224.1355 216.9066 235 218.2 C244.6166 219.3448 245.7471 219.3939 255 218.2 C260.3279 217.5125 266 214.2 266 214.2 "/>
<path id="2" d="M408 183.2 C408 183.2 410.4021 187.8153 411 192.2 C411.8261 198.2581 411.8844 203.6523 411 205.2 C410.621 205.8633 406.0428 204.7587 403 206.2 C397.6892 208.7156 397.8512 211.2744 392 214.2 C375.4217 222.4891 373.574 223.6753 357 229.2 C352.8565 230.5812 351.147 230.0294 347 229.2 C344.6777 228.7355 343.2826 228.0812 342 226.2 C336.8331 218.6218 332 207.2 332 207.2 "/>
<path id="3" d="M268 214.2 C268 214.2 269.1405 227.97 268 241.2 C266.6723 256.6012 266.3183 258.927 263 272.2 C262.3827 274.6694 259.9842 274.5286 259 277.2 C250.1421 301.2428 251.7669 303.7725 242 329.2 C222.852 379.0509 219.8789 380.1038 201 428.2 C199.6234 431.7071 201.3669 432.7828 200 436.2 C195.7041 446.9398 189 458.2 189 458.2 "/>
<path id="4" d="M316 210.2 C316 210.2 313.5993 232.2265 313 254.2 C312.1028 287.0991 311.9219 287.3192 313 320.2 C313.9169 348.1642 311.3478 349.9736 317 376.2 C323.414 405.9611 323.7667 411.874 338 436.2 C348.6116 454.3362 372 470.2 372 470.2 "/>
<path id="5" d="M317 224.2 C317 224.2 321.1308 226.6724 325 227.2 C331.4416 228.0784 337.285 227.445 339 227.2 C339.035 227.195 339 225.2 339 225.2 "/>
</g>
</g>
</svg>
