<?xml version="1.0" encoding="utf-8"?>
<!DOCTYPE svg PUBLIC "-//W3C//DTD SVG 1.1//EN" "http://www.w3.org/Graphics/SVG/1.1/DTD/svg11.dtd">
<svg viewBox="0 0 800 800" preserveAspectRatio="xMinYMin meet" xmlns="http://www.w3.org/2000/svg" version="1.1">
<g fill="none" stroke="black" stroke-linecap="round" stroke-linejoin="round" stroke-width="1.5985">
<g transform="translate(114.733,87.52) scale(1.8768) translate(-157,-97)">
<path id="0" d="M255 113 C255 113 262.7989 102.8406 270 99 C275.1498 96.2535 277.5389 97.2816 285 97 C303.8069 96.2903 316.5247 94.9468 323 97 C324.2136 97.3848 325.6887 109.9555 326 110 C327.0622 110.1517 335.0441 103.7059 344 100 C348.7848 98.0201 349.5528 98.2724 355 98 C369.2315 97.2884 370.3214 96.4802 384 98 C391.8089 98.8677 393.2533 99.964 400 103 C402.1442 103.9649 402.9127 104.8255 404 107 C406.99 112.98 407.524 114.2105 409 121 C409.8805 125.0502 409.864 127.408 409 130 C408.584 131.248 404.9858 132.9957 405 133 C405.0642 133.0193 412.859 131.7718 419 133 C424.2637 134.0527 425.7107 134.6855 430 138 C435.8503 142.5207 436.8927 143.6109 441 150 C445.415 156.8677 446.6436 158.1628 448 166 C450.8644 182.5501 453.0515 190.8838 450 202 C448.3308 208.0807 433.7689 216.2143 434 217 C434.5982 219.0339 454.761 227.6564 460 236 C463.6525 241.8169 463.2652 251.1657 461 260 C459.2999 266.6305 456.1477 269.3442 450 275 C444.7051 279.8713 436 283 436 283 "/>
<path id="1" d="M257 114 C257 114 252.4755 100.7073 250 100 C242.2521 97.7863 227.7363 98.8159 215 102 C210.9638 103.009 208.9533 106.0778 206 111 C200.5855 120.0241 200.3148 122.0556 197 132 C196.1713 134.4861 196.183 137.1087 197 138 C199.1901 140.3892 208.0161 143.9807 208 144 C207.8806 144.1432 196.6716 145.855 187 150 C176.2733 154.5971 175.2071 155.2481 166 162 C160.9536 165.7007 158.6029 167.5474 157 172 C155.184 177.0445 155.9293 179.9333 157 187 C158.3389 195.8369 158.056 198.6457 162 205 C165.5638 210.7417 168.5306 211.7949 175 216 C177.6648 217.7321 180.9796 217.1254 182 218 C182.4014 218.3441 182.7141 221.1272 182 222 C176.1571 229.1413 166.0514 232.2504 164 240 C159.4944 257.0212 160.4998 286.3625 164 290 C167.6455 293.7885 193.8612 294.0396 215 293 C219.2795 292.7895 224.9539 286.9539 225 287 C225.1615 287.1615 223.0214 297.107 224 302 C224.3967 303.9836 226.9044 306.7232 229 307 C246.8685 309.36 253.4985 308.5648 277 309 C279.9264 309.0542 281.1403 309.0332 283 308 C284.4815 307.177 286 304 286 304 "/>
<path id="2" d="M278 280 C278 280 287.9802 290.4781 290 300 C294.159 319.6069 293.5306 323.8065 292 346 C290.6133 366.1076 290.0204 367.844 284 387 C279.3789 401.7034 275.9085 401.5981 270 416 C268.1599 420.4853 268 426 268 426 "/>
<path id="3" d="M341 272 C341 272 340.3008 288.5962 337 304 C334.4168 316.0551 330.3729 316.254 329 328 C326.0754 353.0214 325.8052 355.4858 328 381 C329.6912 400.6606 331.6031 402.1108 337 421 C338.3221 425.6272 342 430 342 430 "/>
<path id="4" d="M343 306 C343 306 349.1885 312.8386 354 314 C360.6078 315.595 365.1791 314.9099 372 313 C375.2388 312.0931 377.4088 310.1824 379 307 C382.4336 300.1328 383.9936 289.0096 384 289 C384.0025 288.9963 383.2798 295.5917 385 298 C388.8957 303.454 392.4989 307.5143 399 310 C406.1286 312.7256 412.2037 313.3251 419 311 C426.879 308.3046 432.4726 303.5648 437 297 C439.8075 292.9292 439 282 439 282 "/>
</g>
</g>
</svg>
