<?xml version="1.0" encoding="utf-8"?>
<!DOCTYPE svg PUBLIC "-//W3C//DTD SVG 1.1//EN" "http://www.w3.org/Graphics/SVG/1.1/DTD/svg11.dtd">
<svg viewBox="0 0 800 800" preserveAspectRatio="xMinYMin meet" xmlns="http://www.w3.org/2000/svg" version="1.1">
<g fill="none" stroke="black" stroke-linecap="round" stroke-linejoin="round" stroke-width="2.0833">
<g transform="translate(168.88,87.52) scale(1.44) translate(-64,-39.1333)">
<path id="0" d="M229 219.1333 C229 219.1333 235.0884 249.2645 237 279.1333 C239.0534 311.2174 238.0413 311.8516 237 344.1333 C236.5499 358.0874 236.3997 358.3894 234 372.1333 C230.9379 389.6708 230.877 390.064 226 407.1333 C222.9542 417.7935 223.4509 418.8521 218 428.1333 C205.4788 449.4533 189 470.1333 189 470.1333 "/>
<path id="1" d="M283 212.1333 C283 212.1333 282.0371 240.727 283 269.1333 C284.0328 299.6006 283.1294 300.0792 287 330.1333 C291.5727 365.6394 291.6282 366.4503 300 401.1333 C305.4903 423.8789 306.3407 424.6583 315 446.1333 C318.5677 454.9812 319.0805 457.622 325 463.1333 C331.4886 469.1744 344 473.1333 344 473.1333 "/>
<path id="2" d="M225 224.1333 C225 224.1333 208.0548 226.6205 204 223.1333 C191.9208 212.7452 184.0863 186.7126 175 181.1333 C171.0693 178.7197 159.837 185.7993 147 188.1333 C144.8871 188.5175 143.84 188.3137 142 187.1333 C119.4394 172.6605 117.0596 171.5759 94 154.1333 C78.3028 142.2598 68.6678 135.6019 64 128.1333 C62.8656 126.3183 65.3957 119.74 69 114.1333 C73.6811 106.8516 74.7462 104.513 82 100.1333 C99.1999 89.7485 104.9076 93.448 122 82.1333 C138.5267 71.1932 136.826 62.0498 153 53.1333 C171.8351 42.7499 189.6619 39.8991 200 39.1333 C201.3471 39.0335 204.1193 48.3605 207 49.1333 C217.195 51.8686 225.0015 48.6097 241 50.1333 C244.8879 50.5036 245.1353 52.6502 249 53.1333 C256.3834 54.0563 257.454 54.3618 265 53.1333 C278.2714 50.9729 278.5771 48.5196 292 46.1333 C300.6388 44.5975 308.2944 43.7378 310 45.1333 C311.9402 46.7208 311.2145 57.7266 314 64.1333 C314.8876 66.1749 318.7673 66.4897 320 68.1333 C320.5801 68.9068 319.3287 70.7908 320 72.1333 C322.6851 77.5036 323.1887 80.3426 328 84.1333 C337.9317 91.9583 343.8719 91.2873 353 98.1333 C355.1213 99.7243 353.9396 103.6834 356 105.1333 C364.4342 111.0685 371.069 110.6661 380 117.1333 C383.1466 119.4119 383.8853 121.8974 385 126.1333 C386.0806 130.2395 386.0806 132.0271 385 136.1333 C383.8853 140.3692 383.2992 141.7592 380 145.1333 C362.3903 163.1433 354.0055 162.5177 341 181.1333 C331.6677 194.4913 335.092 207.7262 329 218.1333 C327.4745 220.7394 320.7406 222.9516 317 222.1333 C309.4663 220.4853 306.7329 215.4591 297 211.1333 C294.0888 209.8395 292.4337 209.2909 290 210.1333 C281.7845 212.9772 279.7889 214.4631 271 220.1333 C264.6283 224.2441 264.1266 228.4245 259 230.1333 C254.0963 231.7679 251.0314 228.4529 244 229.1333 C236.2685 229.8815 228 233.1333 228 233.1333 "/>
<path id="3" d="M252 251.1333 L255 282.1333 "/>
<path id="4" d="M265 243.1333 L266 260.1333 "/>
<path id="5" d="M260 310.1333 L261 371.1333 "/>
<path id="6" d="M246 358.1333 L248 410.1333 "/>
<path id="7" d="M270 336.1333 L276 382.1333 "/>
<path id="8" d="M274 415.1333 L278 445.1333 "/>
<path id="9" d="M252 442.1333 L254 455.1333 "/>
</g>
</g>
</svg>
