<?xml version="1.0" encoding="utf-8"?>
<!DOCTYPE svg PUBLIC "-//W3C//DTD SVG 1.1//EN" "http://www.w3.org/Graphics/SVG/1.1/DTD/svg11.dtd">
<svg viewBox="0 0 800 800" preserveAspectRatio="xMinYMin meet" xmlns="http://www.w3.org/2000/svg" version="1.1">
<g fill="none" stroke="black" stroke-linecap="round" stroke-linejoin="round" stroke-width="1.9873">
<g transform="translate(87.52,175.8296) scale(1.5096) translate(-113,-60.1333)">
<path id="0" d="M238 190.1333 C238 190.1333 241.7252 196.5631 243 203.1333 C248.0693 229.2598 249.1638 230.279 251 257.1333 C253.1207 288.1492 252.5975 291.3785 251 320.1333 C250.7662 324.3426 247 329.1333 247 329.1333 "/>
<path id="1" d="M306 186.1333 C306 186.1333 297.3382 217.6291 292 248.1333 C290.5091 256.6528 290.5894 257.6698 292 266.1333 C294.4555 280.8662 297.6876 281.3918 300 296.1333 C301.5537 306.0381 298.3126 308.9775 300 317.1333 C300.7426 320.7225 306 325.1333 306 325.1333 "/>
<path id="2" d="M283 208.1333 C283 208.1333 286.4431 199.307 290 194.1333 C290.8981 192.827 292.8297 193.4987 294 192.1333 C298.0652 187.3906 302 180.1333 302 180.1333 "/>
<path id="3" d="M276 210.1333 C276 210.1333 272.3058 200.6699 267 195.1333 C261.9655 189.88 256.5296 190.7011 253 186.1333 C250.2718 182.6027 251.9824 178.4197 250 173.1333 C249.4211 171.5895 247 170.1333 247 170.1333 "/>
<path id="4" d="M304 199.1333 C304 199.1333 322.7234 203.8966 332 201.1333 C340.045 198.737 342.3954 193.3638 351 185.1333 C353.4429 182.7967 354.2084 181.904 355 179.1333 C355.8866 176.0302 356.1864 173.0315 355 171.1333 C352.8868 167.7522 347.5023 166.3863 345 163.1333 C344.2027 162.0969 344.4866 160.3582 345 158.1333 C345.8926 154.2655 345.852 153.4379 348 150.1333 C351.9937 143.9892 352.8255 142.699 358 138.1333 C360.4246 135.994 361.8208 135.2024 365 135.1333 C382.5295 134.7523 399.7468 137.7877 404 137.1333 C404.1353 137.1125 405.3084 130.9324 404 129.1333 C399.8071 123.3681 396.1346 120.0141 388 115.1333 C382.5325 111.8528 380.8754 111.6542 374 111.1333 C348.9675 109.2369 345.2859 108.3421 322 110.1333 C315.9629 110.5977 314.2821 112.4359 309 116.1333 C305.1306 118.8419 305.9246 121.2791 302 124.1333 C295.626 128.769 292.6777 128.1255 287 132.1333 C285.6736 133.0696 285 134.4304 285 136.1333 C285 144.6479 287.9247 147.1173 287 156.1333 C286.0837 165.0676 280.1116 170.5433 281 175.1333 C281.7133 178.8186 288.2022 183.2951 293 187.1333 C293.6664 187.6664 296 187.1333 296 187.1333 "/>
<path id="5" d="M265 181.1333 C265 181.1333 270.6135 173.649 277 168.1333 C281.1744 164.5282 285.7697 164.9015 287 162.1333 C289.5784 156.3319 289.3304 150.0541 289 141.1333 C288.9035 138.5281 288.0958 136.8593 286 135.1333 C273.037 124.4579 269.0766 124.6169 255 113.1333 C250.8754 109.7685 251.8031 106.0925 248 104.1333 C238.1555 99.0619 234.6982 97.5249 222 96.1333 C199.7944 93.6998 198.1731 95.6961 175 96.1333 C172.0324 96.1893 170.2406 95.8927 169 97.1333 C164.5693 101.564 161.0995 105.2049 159 112.1333 C156.904 119.0501 157.7864 122.2451 159 130.1333 C159.5809 133.9089 160.69 137.0672 163 138.1333 C179.6323 145.8098 189.8369 145.9937 211 154.1333 C213.1644 154.9658 213.0873 157.3977 215 158.1333 C218.241 159.3799 221.1535 157.9473 224 159.1333 C225.4107 159.7211 227.0754 162.0019 227 163.1333 C226.7764 166.4879 225.8617 170.2496 223 174.1333 C219.8468 178.4127 216.5498 177.8228 213 182.1333 C210.3119 185.3974 209.8689 187.3683 209 191.1333 C208.67 192.5635 209.0813 193.9084 210 195.1333 C211.499 197.1319 212.3632 198.2368 215 199.1333 C235.489 206.0996 260 212.1333 260 212.1333 "/>
<path id="6" d="M296 231.1333 C296 231.1333 386.6392 230.2848 477 228.1333 C491.4958 227.7882 493.1559 228.8856 506 226.1333 C512.3285 224.7772 516.5592 223.0852 519 219.1333 C524.1874 210.7347 524.296 205.3152 527 192.1333 C528.1329 186.6104 527.6917 185.8977 527 180.1333 C526.2299 173.7157 526.7405 171.8313 524 167.1333 C520.7641 161.586 517.2358 161.9575 513 156.1333 C509.737 151.6468 511.177 148.7339 508 145.1333 C504.9443 141.6702 501.8449 142.7859 498 139.1333 C492.5266 133.9336 493.5592 131.6926 488 126.1333 C482.4408 120.5741 481.9752 119.6781 475 116.1333 C452.3668 104.6312 443.0156 103.7818 427 95.1333 C425.5857 94.3696 426.6358 90.7691 425 89.1333 C420.0927 84.226 418.0784 82.048 411 79.1333 C402.5427 75.6509 401.0488 76.3018 391 75.1333 C336.8505 68.8369 336.4932 67.4561 282 64.1333 C213.8063 59.9752 201.1238 55.0619 145 60.1333 C132.3832 61.2734 127.2444 69.9972 116 79.1333 C113.8017 80.9194 112.4658 85.1883 113 86.1333 C115.522 90.5953 125.3585 95.8214 129 102.1333 C130.36 104.4907 129.3946 107.7504 128 112.1333 C126.1201 118.0416 123.6251 118.4453 122 124.1333 C120.9335 127.8661 120.9274 129.2453 122 133.1333 C124.6465 142.7268 124.8496 144.6352 130 153.1333 C134.202 160.0666 140.2665 160.2661 142 166.1333 C145.2789 177.2311 139.7411 189.4654 143 197.1333 C144.6385 200.9886 151.0151 203.8767 159 206.1333 C172.4049 209.9217 174.3137 207.0886 189 210.1333 C215.0553 215.535 241 223.1333 241 223.1333 "/>
<path id="7" d="M272 322.1333 C272 322.1333 270.1053 330.2332 267 336.1333 C265.5751 338.8407 262.3507 340.958 262 341.1333 C262 341.1333 261 339.1333 261 339.1333 "/>
<path id="8" d="M288 323.1333 C288 323.1333 295.5178 333.8982 303 340.1333 C305.9501 342.5918 311.9972 343.1319 312 343.1333 C312.0008 343.1337 309 343.1333 309 343.1333 "/>
<path id="9" d="M288 332.1333 L285 344.1333 "/>
<path id="10" d="M278 335.1333 L279 357.1333 "/>
</g>
</g>
</svg>
