<?xml version="1.0" encoding="utf-8"?>
<!DOCTYPE svg PUBLIC "-//W3C//DTD SVG 1.1//EN" "http://www.w3.org/Graphics/SVG/1.1/DTD/svg11.dtd">
<svg viewBox="0 0 800 800" preserveAspectRatio="xMinYMin meet" xmlns="http://www.w3.org/2000/svg" version="1.1">
<g fill="none" stroke="black" stroke-linecap="round" stroke-linejoin="round" stroke-width="2.5298">
<g transform="translate(87.52,157.4871) scale(1.1859) translate(-46,-37)">
<path id="0" d="M259 274 L260 403 "/>
<path id="1" d="M307 278 C307 278 306.5878 287.2241 308 296 C313.5282 330.3537 316.2897 330.6824 321 365 C323.2051 381.0656 322 398 322 398 "/>
<path id="2" d="M309 300 C309 300 317.9468 299.0228 325 296 C331.1431 293.3672 332.2219 292.5127 337 288 C340.5429 284.654 341.578 283.4437 343 279 C345.1669 272.2286 344.0213 265.2369 345 263 C345.1269 262.71 348.7237 262.453 350 263 C350.8387 263.3594 351.5088 266 352 266 C356.1749 266 360.5758 264.053 369 263 C372.3939 262.5758 375.191 262.7689 376 263 C376.066 263.0189 376 265 376 265 C376.0001 264.9997 375.9443 257.7965 378 253 C379.9186 248.5232 381.1321 247.61 385 244 C388.1814 241.0307 389.0506 240.5798 393 239 C395.9226 237.831 397.9717 237.2756 400 238 C402.7916 238.997 403.8717 242.6593 407 244 C409.2879 244.9805 411.6809 245.1969 414 244 C424.687 238.4841 427.8951 230.8557 438 228 C445.4939 225.8822 455.1656 233.3582 460 231 C467.1138 227.5299 471.2336 219.8049 479 208 C483.1451 201.6994 483.0368 200.1985 485 193 C485.8261 189.9711 485.8085 187.3475 485 186 C484.2377 184.7295 481.8227 183.3849 479 183 C471.9533 182.0391 466.8019 184.7281 463 183 C460.4942 181.861 458.9092 177.9093 457 173 C455.7014 169.6608 455.2556 165.5955 456 165 C462.0382 160.1694 473.8009 157.7994 487 149 C491.6461 145.9026 493.0056 143.4875 495 139 C496.177 136.3516 495.7353 134.4313 495 131 C494.3895 128.1508 494.031 126.8053 492 125 C486.1778 119.8247 478.9142 119.2113 477 115 C474.3822 109.2408 478.9467 95.2851 477 92 C475.8589 90.0744 467.8074 91.4037 461 88 C447.9525 81.4762 448.1697 76.8251 435 71 C423.7419 66.0204 417.6866 68.923 409 65 C406.394 63.8231 406.9759 58.8239 404 57 C394.1611 50.9697 390.7346 48.4346 378 46 C358.7948 42.3284 356.5503 46.466 336 44 C319.5364 42.0244 319.2994 39.3285 303 37 C295.3297 35.9042 292.6614 35.3487 287 37 C283.4469 38.0363 280.9855 40.6908 279 44 C277.5529 46.4118 276.8994 49.563 278 52 C282.3411 61.6125 287.547 64.821 293 75 C293.8785 76.6399 293.5845 79.474 293 80 C291.2336 81.5898 287.8247 83.1959 283 84 C276.6676 85.0554 275.6393 84.9158 269 84 C261.6248 82.9827 261.2036 82.6195 254 80 C239.3938 74.6887 238.6376 75.081 225 68 C213.082 61.8118 213.7083 59.5046 202 53 C196.1043 49.7246 195.1519 48.6651 189 48 C178.1451 46.8265 165.3372 49.0674 165 49 C164.9575 48.9915 169.0777 44.1068 169 44 C168.4528 43.2477 162.6778 38.9733 157 38 C146.9766 36.2817 145.2572 36.9577 134 38 C118.6006 39.4259 117.6331 39.0603 103 43 C92.4036 45.8529 90.3024 46.3758 82 52 C76.4453 55.7629 73.9204 58.4133 72 64 C69.4692 71.3622 68.847 76.9537 71 84 C73.15 91.0364 76.2916 92.9083 83 100 C93.4868 111.0861 98.8443 111.2682 106 121 C108.7313 124.7145 109.0728 129.53 108 134 C106.8072 138.9698 104.5891 142.0367 100 146 C94.9907 150.3263 92.64 151.7089 86 153 C76.4902 154.8491 73.697 154.2929 64 153 C60.2388 152.4985 58.6598 151.4381 56 149 C53.6252 146.8231 52.0027 142.0009 52 142 C51.9987 141.9996 53.5427 145.5577 53 148 C50.8812 157.5344 47.9355 158.7695 46 169 C44.6128 176.3323 44.3485 178.63 46 185 C47.3227 190.1019 48.9051 191.1373 53 196 C64.647 209.8308 64.7774 210.587 78 223 C88.9876 233.3149 93.8833 233.259 102 242 C104.1345 244.2987 104.1015 246.7362 104 251 C103.625 266.7513 100.3529 269.4392 101 284 C101.2407 289.4148 102.4052 291.3782 106 296 C115.4771 308.1848 120.3805 309.2256 129 320 C130.3824 321.728 129.3534 325.6957 130 326 C132.8649 327.3482 140.7314 330.0021 146 328 C160.5128 322.4851 163.7711 318.3022 180 307 C191.5265 298.9726 190.6247 296.4837 202 289 C208.926 284.4434 210.0865 283.4931 218 282 C235.1633 278.7617 242.4766 278.6946 255 279 C256.3897 279.0339 257.9127 280.8255 259 283 C261.99 288.98 264 297 264 297 "/>
<path id="3" d="M234 247 C234 247 206.3567 227.7615 183 207 C175.924 200.7103 175.3968 199.3307 171 191 C166.3353 182.1616 164 172.6259 164 171 C164 170.9187 168.3127 169.3282 171 170 C176.7727 171.4432 183.9728 176.0155 184 176 C184.0008 175.9995 179.9069 171.0852 178 166 C175.6455 159.7214 175.7418 158.9232 175 152 C174.2749 145.2322 173.5693 143.0075 175 138 C175.8905 134.8831 178.1042 133.106 181 131 C182.4954 129.9125 185.9999 130.0001 186 130 C186.0001 129.9999 182.7735 130.5801 182 130 C180.3564 128.7673 178.8572 126.9146 178 124 C176.6509 119.4131 176.4596 117.5934 177 113 C177.3155 110.3185 177.9495 108.6939 180 107 C187.9217 100.456 190.3216 97.2995 200 94 C209.7775 90.6668 223.3434 91.8749 224 92 C224.0516 92.0098 221.0068 97.9955 221 98 C220.9974 98.0017 220.4453 94.6339 221 94 C222.404 92.3955 224.5785 90.9004 228 90 C233.2105 88.6288 239.1047 88.4778 240 89 C240.3659 89.2135 240.9903 94.2271 240 97 C239.0362 99.6986 234.9924 102.9932 235 103 C235.3342 103.3008 247.0922 104.3643 250 106 C250.7624 106.4288 251.7246 110.5509 251 112 C249.0898 115.8204 246.6772 118.4233 242 122 C239.1077 124.2117 234.0477 124.4989 234 125 C233.7789 127.3218 240.9682 139.3694 240 143 C239.0712 146.483 230.2999 149.5534 226 155 C224.5471 156.8404 224.1359 159.6956 225 162 C227.7066 169.2176 231.7043 170.276 235 179 C239.8608 191.8667 242 207 242 207 "/>
<path id="4" d="M274 240 C274 240 298.8058 190.1482 312 148 C314.8414 138.9234 308.0879 133.9233 310 125 C311.8093 116.5567 316.1059 109.2627 321 106 C325.0669 103.2887 332.7513 103.3632 340 105 C345.3307 106.2037 350.4369 110.8116 352 113 C352.4312 113.6037 351.5131 117.8231 350 119 C344.9562 122.923 333.9889 126.9856 334 127 C334.0642 127.0834 355.625 130.4856 360 132 C360.2184 132.0756 360.6083 135.4557 360 136 C354.7937 140.6582 340.9937 148.9912 341 149 C341.4738 149.6633 361.3785 155.1667 380 164 C399.9623 173.4693 403.6884 174.7715 419 186 C422.9066 188.8648 424.8443 194.3539 425 197 C425.0782 198.3299 422.7519 201.1654 420 203 C416.127 205.582 414.9121 206.1813 410 207 C400.7131 208.5478 390 208 390 208 "/>
<path id="5" d="M283 172 C283 172 278.4426 166.4259 278 162 C277.1654 153.654 277.6278 147.3914 280 142 C281.018 139.6865 288.8811 137.0149 289 137 C289.0185 136.9977 288.8034 140.4157 288 141 C285.3469 142.9295 278 144.9764 278 145 C278 145.0177 284.7513 146.0008 288 148 C289.6666 149.0256 290.5014 150.6732 291 153 C291.7952 156.7112 291 162 291 162 "/>
<path id="6" d="M362 236 C362 236 357.1032 230.5069 355 226 C354.2073 224.3014 354.2286 222.2123 355 221 C356.613 218.4652 358.4375 216.9 362 215 C365.1666 213.3111 366.0624 213.6058 370 213 C372.3698 212.6354 375.0088 212.9801 375 213 C374.9483 213.1164 371.0131 218.9433 366 222 C351.5516 230.81 349.4243 233.3998 334 238 C323.3884 241.1649 321.2501 239.5326 309 239 C298.6279 238.549 288 236 288 236 "/>
<path id="7" d="M97 147 C97 147 94.5092 158.8719 97 164 C100.8472 171.9206 104.7767 174.2115 114 182 C126.8579 192.8577 136.8001 192.7744 142 202 C147.332 211.46 142.1104 220.3048 145 237 C146.4675 245.4787 147.9298 248.1667 151 254 C151.6253 255.188 155 256 155 256 "/>
<path id="8" d="M504 67 C504 67 508.3238 66.014 511 67 C516.5738 69.0535 521.2112 74 523 74 C523.7454 74 525.0352 69.4967 528 67 C533.8723 62.0549 542 58 542 58 "/>
<path id="9" d="M547 98 C547 98 553.3233 95.1483 556 96 C561.0769 97.6154 567.7576 104.9269 569 105 C569.3241 105.0191 573 97 573 97 "/>
<path id="10" d="M530 128 C530 128 535.7312 137.4588 539 141 C539.4248 141.4602 541.3544 141.4842 542 141 C544.0446 139.4666 544.6114 136.2862 547 135 C549.4779 133.6658 555 134 555 134 "/>
<path id="11" d="M247 422 C247 422 237.9746 405.5316 231 400 C228.1239 397.7189 222.4829 397.7774 218 399 C214.1575 400.0479 212.3128 402.1776 209 406 C206.4333 408.9615 205.304 410.3519 205 414 C203.9816 426.2211 206 442 206 442 "/>
<path id="12" d="M323 435 C323 435 332.8402 430.9224 341 425 C363.4213 408.7265 368.6954 405.9577 385 390 C387.8682 387.1929 387.9853 378.9826 388 379 C388.0535 379.0632 393.684 391.7507 396 403 C396.8844 407.2959 395 413 395 413 "/>
<path id="13" d="M337 369 C337 369 346.3447 376.3117 355 381 C357.311 382.2518 361 382 361 382 "/>
<path id="14" d="M323 326 C323 326 342.9819 350.7243 358 372 C359.2119 373.7169 359 377 359 377 "/>
<path id="15" d="M258 362 C258 362 246.4639 374.9219 241 387 C238.0074 393.6152 239 404 239 404 "/>
<path id="16" d="M304 354 C304 354 319.4641 371.4236 330 390 C337.8492 403.8394 334.7948 406.5896 342 421 C346.9658 430.9315 355 440 355 440 "/>
<path id="17" d="M363 444 L371 434 "/>
<path id="18" d="M400 425 C400 425 407.408 426.5461 413 430 C423.7343 436.63 434 446 434 446 "/>
</g>
</g>
</svg>
