<?xml version="1.0" encoding="utf-8"?>
<!DOCTYPE svg PUBLIC "-//W3C//DTD SVG 1.1//EN" "http://www.w3.org/Graphics/SVG/1.1/DTD/svg11.dtd">
<svg viewBox="0 0 800 800" preserveAspectRatio="xMinYMin meet" xmlns="http://www.w3.org/2000/svg" version="1.1">
<g fill="none" stroke="black" stroke-linecap="round" stroke-linejoin="round" stroke-width="1.4545">
<g transform="translate(213.337,87.52) scale(2.0626) translate(-190,-66)">
<path id="0" d="M248 175 C248 175 255.3421 192.9895 260 211 C262.713 221.4903 262.5376 222.0574 263 233 C264.0239 257.2326 265.2357 258.6846 263 282 C261.8743 293.7392 260.0404 296.5725 256 306 C255.0808 308.1449 252.298 307.7285 251 310 C247.0248 316.9566 248.2243 319.4566 244 327 C241.593 331.2982 239.0163 330.7994 237 335 C233.5567 342.1735 235.4383 345.1233 232 352 C230.1486 355.7028 226.7572 355.9876 225 359 C224.2073 360.359 224.9551 364.0112 225 364 C225.8089 363.7978 236.2859 360.2243 245 354 C260.0432 343.2548 262.3653 338.0896 274 329 C274.7192 328.4381 276.4956 328.4956 277 329 C282.5485 334.5485 286.633 338.614 292 347 C293.4857 349.3213 291.6342 351.405 293 354 C296.0372 359.7707 298.4424 362.9506 302 366 C302.9224 366.7906 306.938 365.938 307 366 C307.0124 366.0124 305.0004 369.0073 305 369 C304.9971 368.947 307.4326 354.4469 306 348 C305.479 345.6557 298.9991 341.9999 299 342 C299.0016 342.0002 308.079 344.8171 313 349 C316.5767 352.0402 315.4605 356.2649 319 359 C324.5202 363.2656 335.0016 366.0112 335 366 C334.9959 365.9714 322.1187 354.9814 317 345 C313.7786 338.7182 318.2634 332.9052 315 327 C309.7903 317.5728 302.8648 317.5424 296 307 C289.8799 297.6012 290.2344 295.4673 287 284 C284.9022 276.5624 285.2746 275.9631 285 268 C284.2823 247.1866 283.9823 246.6938 285 226 C285.464 216.5658 285.4534 216.0111 288 207 C291.8269 193.4587 291.827 191.42 298 180 C300.9346 174.571 306.0863 174.9209 308 170 C311.7967 160.2369 308.1727 154.115 312 144 C314.0565 138.5649 322.0022 133.0155 322 133 C321.9994 132.9961 314.0445 133.7952 311 137 C298.0106 150.673 295.9045 163.1659 284 173 C279.667 176.5795 272.3262 175.5861 265 175 C262.5424 174.8034 261.7713 171.8527 259 171 C256.3171 170.1745 254.2879 170.0195 252 171 C248.8717 172.3407 245 177 245 177 "/>
<path id="1" d="M260 207 C260 207 255.5774 212.4783 252 213 C235.8176 215.3599 225.6962 217.8806 212 214 C203.3443 211.5475 197.4394 204.4063 192 196 C188.9597 191.3014 189.0612 185.633 190 180 C190.5393 176.764 193.4422 173.3642 196 172 C198.2422 170.8042 204.9412 172.0471 205 172 C205.0052 171.9958 201.0693 169.4557 201 168 C200.373 154.8322 199.5007 144.289 203 130 C204.2227 125.0072 208.6527 120.9925 213 119 C217.0462 117.1455 224.0848 118.417 227 119 C227.3332 119.0666 228.001 122.0007 228 122 C227.9976 121.9984 224.2478 119.065 224 117 C223.1011 109.5089 222.2459 102.6918 225 97 C227.3898 92.0611 233.2873 88.5967 239 86 C241.2687 84.9688 245.8615 85.9753 247 87 C248.1769 88.0592 248.999 95.0016 249 95 C249.002 94.9967 247.8103 84.3519 250 82 C256.3198 75.2121 264.6111 70.4956 276 66 C280.09 64.3855 283.7304 65.4931 288 67 C290.3381 67.8252 292.4413 69.7654 293 72 C294.7207 78.8826 294.3489 83.3244 294 91 C293.9431 92.2517 292.0007 94.002 292 94 C291.9984 93.9951 292.1475 88.5328 293 88 C296.1407 86.0371 302.9304 82.8593 308 84 C318.0403 86.2591 327.9958 90.7448 333 97 C336.7001 101.6251 337.6565 112.926 336 119 C334.8838 123.0928 323.9981 129.9962 324 130 C324.0009 130.0019 331.689 126.0751 339 125 C347.8278 123.7018 352.3707 122.5372 358 125 C363.6663 127.479 369.4114 132.8899 371 139 C374.2906 151.656 371.8055 158.8904 371 175 C370.9083 176.8347 370.3426 177.9931 369 179 C363.6297 183.0277 361.0989 185.8196 355 187 C348.4835 188.2613 338.0001 185 338 185 C338 185 346.6629 186.05 347 187 C348.9283 192.4344 351.6963 206.4592 349 216 C346.986 223.1264 340.4351 229.3534 334 233 C330.0814 235.2205 324.9272 233.9359 319 233 C317.2322 232.7209 316.8811 231.6246 315 230 C305.919 222.1573 304.2723 222.619 297 214 C291.4984 207.4796 288 198 288 198 "/>
</g>
</g>
</svg>
