<?xml version="1.0" encoding="utf-8"?>
<!DOCTYPE svg PUBLIC "-//W3C//DTD SVG 1.1//EN" "http://www.w3.org/Graphics/SVG/1.1/DTD/svg11.dtd">
<svg viewBox="0 0 800 800" preserveAspectRatio="xMinYMin meet" xmlns="http://www.w3.org/2000/svg" version="1.1">
<g fill="none" stroke="black" stroke-linecap="round" stroke-linejoin="round" stroke-width="2.621">
<g transform="translate(87.52,168.7877) scale(1.1446) translate(-7,-54)">
<path id="0" d="M232 156 C232 156 232.5239 148.1587 233 148 C235.5536 147.1488 248.5374 150.3016 253 149 C254.4341 148.5817 255.8613 141.2997 257 141 C259.6505 140.3025 268.1804 144.8681 272 144 C274.3524 143.4654 276.8315 136.1971 279 136 C286.1689 135.3483 295.1402 141.5189 305 141 C309.7384 140.7506 311.4262 136.0535 317 134 C319.6762 133.014 320.902 133.1968 324 134 C333.6547 136.5031 341.8183 138.1294 344 141 C345.6942 143.2293 344.2672 157.3708 343 159 C342.3177 159.8773 335.2518 160.2504 330 159 C326.2872 158.116 322.4267 153.8222 322 154 C321.4111 154.2454 320.3904 160.1156 318 164 C316.9524 165.7024 315.3563 167.0543 314 167 C306.6033 166.7041 300.3967 163.2959 293 163 C291.6437 162.9457 291.0199 165.4614 289 166 C277.4979 169.0672 275.6361 169.6699 263 171 C257.3338 171.5964 255.131 168.7427 251 170 C246.2547 171.4442 244.991 175.8985 240 178 C237.2211 179.1701 235.0946 179.0831 232 178 C226.4104 176.0436 221.3862 173.2179 220 171 C219.2591 169.8145 220.3472 163.7905 222 162 C224.0162 159.8158 232 158 232 158 "/>
<path id="1" d="M233 178 C233 178 232.4123 200.7076 234 206 C234.2469 206.8229 239.2753 206.6377 242 208 C243.0596 208.5298 243.761 209.5658 244 211 C245.5298 220.179 244.1709 228.1756 246 232 C246.5252 233.0981 251.6009 232.3005 255 234 C257.5493 235.2747 259.3834 236.7393 260 239 C261.6735 245.1362 260.4332 255.6883 261 256 C261.8597 256.4729 271.4402 251.1807 280 250 C284.198 249.421 285.2326 252 290 252 C298.5813 252 300.0091 249.4489 308 250 C313.0445 250.3479 318.6323 254.3432 319 254 C320.0524 253.0178 320.7461 237.8619 323 236 C325.3681 234.0437 341.5462 236.0337 342 235 C343.922 230.6221 339.9438 214.0124 341 195 C341.3761 188.2306 344.0527 187.8679 345 181 C345.9765 173.9205 346.4808 171.9231 345 166 C343.9635 161.8538 339 157 339 157 "/>
<path id="2" d="M253 229 C253 229 257.7116 225.5718 262 225 C271.4466 223.7405 274.2742 226.8509 283 225 C288.6031 223.8115 289.6993 218.465 295 218 C313.8363 216.3477 334.0054 218.9343 340 220 C340.141 220.0251 340.1399 225.9729 340 226 C336.2649 226.7229 323.0228 224.1303 309 226 C302.3053 226.8926 301.7706 231.0707 295 232 C278.0378 234.3281 271.4021 230.5632 258 233 C255.0181 233.5422 251.0137 240.0027 251 240 C250.999 239.9998 253 232 253 232 "/>
<path id="3" d="M252 191 C252 191 251.239 186.9132 252 186 C254.3337 183.1995 257.8519 180.464 262 179 C264.211 178.2196 266.91 178.6565 269 180 C272.3205 182.1346 276.0053 187.9959 276 188 C275.8962 188.0807 266.5721 186.1428 260 187 C256.885 187.4063 253 191 253 191 "/>
<path id="4" d="M306 178 C306 178 307.1962 175.2412 308 175 C310.2175 174.3347 312.8969 174.1134 316 175 C318.7706 175.7916 319.4708 176.6815 322 179 C325.2488 181.978 327.3329 183.4985 328 186 C328.5792 188.1718 326.0373 194.0149 326 194 C325.2425 193.697 315.3984 183.3807 308 178 C307.0014 177.2738 304 178 304 178 "/>
<path id="5" d="M293 194 C293 194 296.4665 205.6005 296 207 C295.8186 207.5443 289.7239 209.1724 288 209 C287.4917 208.9492 286 206 286 206 "/>
<path id="6" d="M269 194 C269 194 261.4114 195.7455 260 197 C259.4623 197.4779 259.5218 201.5816 260 202 C261.0657 202.9325 267.375 204.375 268 204 C268.625 203.625 270 196 270 196 "/>
<path id="7" d="M308 189 C308 189 307.5114 194.5114 308 195 C308.6514 195.6514 314.4 196.375 315 196 C315.4471 195.7206 316.4051 190.8102 316 190 C315.6686 189.3371 311 188 311 188 "/>
<path id="8" d="M222 173 C222 173 213.4033 177.4281 212 181 C209.601 187.1065 210.4002 194.1026 211 201 C211.0982 202.1295 213.4742 202.5539 214 204 C215.0751 206.9564 213.956 210.26 215 212 C215.607 213.0116 219.7181 213.2107 220 214 C220.8936 216.5019 221.4202 221.3336 220 226 C218.446 231.106 214.1261 232.721 213 237 C212.3447 239.4903 213.0085 242.9319 215 245 C223.449 253.7739 237.4789 260.1972 239 264 C239.6382 265.5956 232.304 272.7312 229 280 C228.0351 282.1227 228.421 285.421 229 286 C229.9649 286.9649 234.333 286.0604 237 288 C243.8213 292.9609 246.4027 295.5638 251 302 C252.4777 304.0688 251.2141 308.3713 252 309 C253.1669 309.9335 259.3766 308.6085 261 310 C263.3763 312.0368 264.8123 320.6607 266 321 C268.1253 321.6072 275.291 316 282 316 C289.1283 316 290.8825 320.5225 299 321 C314.9037 321.9355 317.7783 318.6287 333 319 C336.1712 319.0773 338.9656 322.5172 340 322 C343.6674 320.1663 348.8252 315.5231 353 309 C355.7258 304.741 353.7904 302.2478 356 297 C357.5169 293.3974 358.9661 291.5819 361 290 C361.7789 289.3942 364.0351 290.5514 365 290 C366.2751 289.2714 367.1396 288.0648 368 286 C369.4476 282.5258 370 281.8385 370 278 C370 254.9691 367.3323 253.3703 368 230 C368.308 219.2201 370.9608 218.9117 372 208 C372.9287 198.2491 373.7291 197.0776 372 188 C369.9663 177.323 369.0223 175.7492 364 166 C360.9936 160.164 358.1867 160.5042 355 155 C353.1997 151.8905 354.53 149.4042 353 147 C351.98 145.3972 348 144 348 144 "/>
<path id="9" d="M223 158 C223 158 222.9573 142.809 226 129 C229.3035 114.0073 230.2043 113.3188 236 99 C238.525 92.7618 238.6539 91.8117 243 87 C252.0058 77.0292 252.9708 75.1818 264 68 C273.2076 62.0043 275.0119 62.4534 286 59 C292.0315 57.1044 292.4821 57.6518 299 57 C317.4179 55.1582 317.5321 54.5596 336 54 C366.8703 53.0645 368.8421 50.5011 398 54 C416.5482 56.2258 418.7611 57.8464 436 66 C454.5031 74.7515 460.1571 76.0183 472 89 C482.3063 100.2973 481.3249 105.6943 488 123 C494.6869 140.3365 494.6369 141.1841 499 159 C500.4935 165.0984 500 172 500 172 "/>
<path id="10" d="M334 134 C334 134 336.9925 119.8911 343 111 C348.1254 103.4144 350.5239 102.4153 359 97 C367.7498 91.4099 369.4777 89.2985 379 88 C399.6351 85.1861 406.1175 84.7031 425 88 C432.7667 89.3561 433.2457 94.6228 442 99 C449.7816 102.8908 453.3134 100.9056 459 105 C463.4384 108.1956 463.9607 110.7314 467 117 C471.762 126.8216 472.6921 127.5096 475 138 C478.0076 151.6707 478.3892 164.178 478 167 C477.9869 167.0953 473.2521 166.181 471 167 C469.2451 167.6381 468.4605 168.8092 467 171 C464.6632 174.5053 464.0126 175.2027 463 179 C462.2182 181.9318 462.5625 185.5625 463 186 C463.4375 186.4375 467.6606 186.7018 470 186 C471.3034 185.609 472.9924 182.9715 473 183 C473.0631 183.2367 472.5003 194.4011 474 201 C474.4039 202.7773 476.2769 204.5405 478 205 C481.741 205.9976 487.685 206.1396 489 205 C490.825 203.4183 490.7342 194.2658 493 192 C494.7327 190.2673 503.4788 191.0423 504 190 C505.3898 187.2205 504 170 504 170 "/>
<path id="11" d="M224 254 C224 254 191.8372 253.077 173 256 C170.0314 256.4606 168.4616 259.0614 166 263 C154.0166 282.1734 153.8869 283.4824 143 304 C141.0373 307.699 140.3851 308.1485 140 312 C138.9791 322.2087 140 334 140 334 "/>
<path id="12" d="M368 238 C368 238 385.6264 240.6663 401 246 C409.2174 248.8509 409.8925 249.7267 417 255 C424.9567 260.9034 426.5844 261.6889 432 269 C435.6024 273.8633 436.3484 275.7011 437 282 C439.1743 303.0179 438 327 438 327 "/>
<path id="13" d="M396 347 C396 347 397.5492 357.6465 402 365 C408.2322 375.2966 409.839 378.7539 419 385 C429.1124 391.8948 432.9071 392.5754 446 395 C458.2525 397.269 464.1504 398.503 473 395 C482.3481 391.2997 484.4902 385.862 494 376 C497.5824 372.2849 498.2845 371.5033 500 367 C501.9399 361.9077 499.7467 360.0367 502 355 C507.716 342.2231 510.9285 342.1017 517 329 C520.1054 322.2988 521 314 521 314 "/>
<path id="14" d="M441 323 C441 323 440 332.6782 440 342 C440 345.4343 439.8627 346.4979 441 349 C441.8877 350.9529 443.124 352.3747 445 353 C448.9864 354.3288 452.2776 355.1844 456 354 C460.7203 352.4981 462.7081 350.721 467 346 C477.0794 334.9127 482.2265 332.9767 486 321 C491.9989 301.9601 486.9036 293.9009 490 273 C490.4201 270.1644 491.7342 269.0392 494 267 C496.0971 265.1126 499.9601 263.9487 500 264 C500.3059 264.3932 500.9353 276.0418 501 276 C501.4861 275.6864 520.14 252.6323 531 244 C532.6074 242.7223 536.5921 243.6369 540 245 C542.9003 246.1601 543.9427 247.1945 546 250 C548.9912 254.0789 549.4714 254.9774 551 260 C552.8055 265.9323 554.4069 268.4275 553 273 C549.557 284.1899 546.7681 286.6781 539 299 C532.4296 309.4221 524 319 524 319 "/>
<path id="15" d="M138 327 C138 327 134.8958 331.894 132 334 C130.5046 335.0875 128.8339 335.4585 127 335 C122.2706 333.8176 119.3501 333.4789 116 330 C108.1699 321.8687 107.4589 319.3677 101 308 C95.1422 297.6903 93.2586 296.6769 91 286 C88.1705 272.6241 87.2931 264.537 90 256 C91.4079 251.5596 96.6611 249.2613 104 245 C111.5827 240.5971 117.8946 240.7401 121 238 C121.9458 237.1655 121.4435 231.9959 121 230 C120.9199 229.6396 119.8652 229 119 229 C112.9438 229 110.0158 228.4161 105 230 C102.695 230.7279 100 235 100 235 "/>
<path id="16" d="M50 259 C50 259 51.997 258.9712 52 259 C52.5509 264.2336 49.3142 280.2391 54 297 C61.4992 323.8239 64.7074 326.1333 78 352 C82.6749 361.0971 83.632 362.053 91 369 C100.413 377.8752 102.0364 377.6909 113 385 C115.1256 386.4171 115.6859 386.9202 118 387 C128.9409 387.3773 134.9628 388.7722 142 386 C145.96 384.44 148.549 380.1274 151 374 C154.9278 364.1804 152.0534 361.3597 156 351 C159.6749 341.3534 167 332 167 332 "/>
<path id="17" d="M30 174 C30 174 83.6721 169.4137 88 174 C94.2859 180.6612 100.5615 240.7809 97 245 C93.1539 249.5561 40.4744 250.5401 23 251 C22.5535 251.0117 21.0618 248.8227 21 247 C20.1646 222.3549 19.8735 219.0362 21 192 C21.3508 183.5819 24 175 24 175 "/>
<path id="18" d="M24 249 C24 249 8.6558 248.8312 7 250 C6.2739 250.5126 6.6563 260.9122 7 261 C12.7839 262.4767 54 262 54 262 "/>
<path id="19" d="M27 175 C27 175 35.6454 165.2153 44 158 C45.774 156.4679 46.6179 156.1211 49 156 C74.2371 154.7168 102.6133 154.8432 103 155 C103.0759 155.0308 86 171 86 171 "/>
<path id="20" d="M106 158 C106 158 109.1366 201.553 108 233 C107.8759 236.4334 103 241 103 241 "/>
<path id="21" d="M185 339 C185 339 180.551 351.6567 180 364 C178.0994 406.5745 180 451 180 451 "/>
<path id="22" d="M390 344 C390 344 387.1693 388.2999 391 428 C392.4105 442.6179 401 458 401 458 "/>
<path id="23" d="M162 334 C162 334 172.4398 328.8326 182 326 C184.9915 325.1136 188.999 325.9781 189 326 C189.0647 327.359 183 347 183 347 "/>
</g>
</g>
</svg>
