<?xml version="1.0" encoding="utf-8"?>
<!DOCTYPE svg PUBLIC "-//W3C//DTD SVG 1.1//EN" "http://www.w3.org/Graphics/SVG/1.1/DTD/svg11.dtd">
<svg viewBox="0 0 800 800" preserveAspectRatio="xMinYMin meet" xmlns="http://www.w3.org/2000/svg" version="1.1">
<g fill="none" stroke="black" stroke-linecap="round" stroke-linejoin="round" stroke-width="2.0641">
<g transform="translate(211.7853,87.52) scale(1.4534) translate(-79,-51.1333)">
<path id="0" d="M138 172.1333 C138 172.1333 142.4299 166.8027 146 166.1333 C155.3899 164.3727 167.0462 165.7641 170 166.1333 C170.0462 166.1391 169.9967 169.1366 170 169.1333 C170.0119 169.1214 172.5052 162.4821 174 162.1333 C180.8993 160.5235 196.2252 161.0149 200 162.1333 C200.4893 162.2783 200.9905 170.1388 201 170.1333 C201.0342 170.1138 204.5223 159.2345 207 158.1333 C211.591 156.0929 219.8673 156.8821 228 158.1333 C230.1747 158.4679 231.9434 160.4428 233 162.1333 C233.5932 163.0824 232.9949 166.1384 233 166.1333 C233.0203 166.113 236.7146 156.9244 239 156.1333 C243.7474 154.49 251.0364 155.5406 259 157.1333 C261.2866 157.5906 262.9434 159.4428 264 161.1333 C264.5932 162.0824 264 165.1333 264 165.1333 "/>
<path id="1" d="M138 172.1333 C138 172.1333 136.7839 179.8903 138 183.1333 C138.8015 185.2708 141.3191 187.3886 144 188.1333 C148.354 189.3428 152.4424 189.8348 156 188.1333 C160.8208 185.8277 165.625 177.1333 167 177.1333 C168.375 177.1333 173.4251 186.4389 178 188.1333 C182.7435 189.8902 188.7714 188.8762 194 187.1333 C196.2408 186.3864 198.7756 181.1333 199 181.1333 C199.1346 181.1333 200.1126 185.0362 202 187.1333 C204.0392 189.3992 205.2458 190.5213 208 191.1333 C212.7977 192.1995 215.646 192.3428 220 191.1333 C222.6809 190.3886 224.4157 188.7078 226 186.1333 C227.6824 183.3994 227.8617 178.127 228 178.1333 C229.7247 178.2117 239.0354 185.3404 248 187.1333 C254.0038 188.3341 257.9036 186.8321 263 185.1333 C264.4097 184.6634 265.7609 182.8864 266 181.1333 C266.9759 173.9764 266 163.1333 266 163.1333 "/>
<path id="2" d="M136 186.1333 C136 186.1333 134.0649 200.523 136 212.1333 C137.2776 219.7992 138.7316 220.7031 143 228.1333 C152.0585 243.9018 152.4153 244.8987 163 259.1333 C166.3902 263.6926 168.3889 262.6624 172 267.1333 C178.5491 275.2417 177.1381 277.3565 184 285.1333 C191.6526 293.8063 193.9802 298.4032 202 301.1333 C211.9192 304.5101 217.1003 302.3969 231 301.1333 C238.3638 300.4639 239.0153 299.8773 246 297.1333 C252.6385 294.5254 254.5662 294.3454 259 290.1333 C263.1517 286.1892 265.6575 283.5155 266 278.1333 C268.697 235.7525 266 180.1333 266 180.1333 "/>
<path id="3" d="M136 187.1333 L137 182.1333 "/>
<path id="4" d="M161 257.1333 C161 257.1333 157.1782 257.536 155 259.1333 C150.4491 262.4707 149.0841 263.1073 146 268.1333 C136.2215 284.0686 135.2811 286.2719 128 303.1333 C126.3945 306.8514 128.3163 308.0646 127 312.1333 C123.0136 324.455 118.8257 325.0836 117 337.1333 C114.1769 355.7656 117 378.1333 117 378.1333 "/>
<path id="5" d="M268 242.1333 C268 242.1333 278.6283 247.9512 283 255.1333 C291.0821 268.4111 290.9231 271.6334 296 288.1333 C298.7337 297.0179 298.7025 297.7118 299 307.1333 C300.1842 344.6324 299 383.1333 299 383.1333 "/>
<path id="6" d="M118 381.1333 C118 381.1333 130.583 378.3277 133 379.1333 C133.9555 379.4518 135.9258 387.1448 136 387.1333 C136.4842 387.0588 141.7017 379.6617 146 377.1333 C147.8944 376.019 150.5239 376.1138 153 377.1333 C157.5568 379.0097 162.4327 384.1333 163 384.1333 C163.1135 384.1333 163.8546 377.8206 165 377.1333 C167.6233 375.5593 172.9721 374.854 178 375.1333 C180.0155 375.2453 181.5261 376.4489 183 378.1333 C184.349 379.6751 184.9464 383.1441 185 383.1333 C185.5043 383.0325 189.4241 377.524 193 376.1333 C196.335 374.8364 200.1011 374.9738 203 376.1333 C205.1452 376.9914 207.9572 382.1162 208 382.1333 C208.0093 382.137 207.4068 379.0824 208 378.1333 C209.0566 376.4428 210.7403 374.8866 213 374.1333 C215.4976 373.3008 217.793 373.1034 220 374.1333 C223.5522 375.791 226.7976 381.0474 228 381.1333 C228.7881 381.1896 231.3772 376.4447 234 375.1333 C235.7485 374.2591 238.445 374.2851 240 375.1333 C242.144 376.3028 244.9612 381.15 245 381.1333 C245.0936 381.0932 245.97 372.8464 247 372.1333 C248.3765 371.1804 255.6569 370.755 258 372.1333 C260.531 373.6222 263.9639 382.1378 264 382.1333 C264.0256 382.1301 264.8916 372.3525 266 371.1333 C266.6289 370.4416 271.3772 370.2591 274 371.1333 C275.7485 371.7162 277.1948 373.2009 278 375.1333 C279.1959 378.0036 278.9948 383.1298 279 383.1333 C279.0017 383.1344 280.1486 377.5263 281 377.1333 C282.9638 376.227 288.259 376.1357 292 377.1333 C293.7231 377.5928 296 381.1333 296 381.1333 "/>
<path id="7" d="M118 383.1333 C118 383.1333 120.9217 394.6446 124 398.1333 C125.5079 399.8423 130.4929 400.519 133 400.1333 C134.3312 399.9285 136.7263 396.0512 137 396.1333 C137.7919 396.3709 140.4192 402.1297 143 403.1333 C146.5507 404.5142 152.0953 404.7309 155 403.1333 C158.401 401.2628 161.8885 392.5038 163 392.1333 C163.4764 391.9745 166.8709 397.1452 170 398.1333 C174.2215 399.4664 177.7983 399.6612 182 398.1333 C186.52 396.4897 191.1823 390.0788 192 390.1333 C192.4837 390.1656 194.2353 396.7635 197 399.1333 C199.5162 401.2901 204.1119 402.4238 206 402.1333 C207.0546 401.9711 209.0978 399.3889 210 397.1333 C210.6835 395.4246 209.9758 392.1353 210 392.1333 C210.6771 392.0769 220.7815 396.3944 222 396.1333 C222.3827 396.0513 223.9644 389.1333 224 389.1333 C224.089 389.1333 227.1526 395.2807 229 396.1333 C230.692 396.9142 235.5045 396.1802 237 395.1333 C238.0658 394.3873 238.3427 389.6029 239 389.1333 C239.4482 388.8132 243.1606 389.2939 244 390.1333 C245.1192 391.2525 245.0991 395.4577 246 396.1333 C246.8316 396.757 250.8733 396.922 252 396.1333 C253.6713 394.9634 255.8666 389.1025 256 389.1333 C256.6325 389.2793 261.3486 396.3246 265 399.1333 C265.875 399.8064 268.3462 399.7145 269 399.1333 C270.9797 397.3736 273.8027 391.1333 274 391.1333 C274.1973 391.1333 276.9296 397.6276 279 399.1333 C280.1483 399.9685 284.5098 399.6848 285 399.1333 C285.9907 398.0188 286.8423 390.1859 287 390.1333 C287.1577 390.0808 291.2084 395.1363 294 396.1333 C296.0283 396.8577 300.7069 395.7196 301 395.1333 C301.8468 393.4396 301 382.1333 301 382.1333 "/>
<path id="8" d="M122 398.1333 C122 398.1333 118.909 420.9591 122 436.1333 C123.4838 443.4172 128.678 448.2915 133 452.1333 C134.1995 453.1996 138.582 453.0787 140 452.1333 C142.0933 450.7378 144.7522 444.0979 145 444.1333 C145.6701 444.2291 150.1503 451.8688 154 454.1333 C156.0694 455.3506 161.3835 454.7499 162 454.1333 C162.7707 453.3627 162.9794 445.1363 163 445.1333 C163.0437 445.1271 165.7972 450.7846 169 453.1333 C172.0229 455.3501 174.1145 455.9048 178 456.1333 C181.3376 456.3297 184.0567 455.7528 186 454.1333 C188.1444 452.3464 189.8639 446.1124 190 446.1333 C190.5178 446.213 195.1111 454.0865 199 456.1333 C201.7265 457.5683 207.0264 457.2611 209 456.1333 C210.6917 455.1667 212.7662 448.1333 213 448.1333 C213.4675 448.1333 217.5211 454.2779 221 456.1333 C222.9852 457.1921 227.3404 456.5103 228 456.1333 C228.2154 456.0103 227.4172 453.299 228 452.1333 C228.8743 450.3848 231.5929 448.017 232 448.1333 C233.7507 448.6335 237.5967 453.7849 242 456.1333 C243.5432 456.9564 245.9635 456.9306 247 456.1333 C250.2529 453.6311 253.9103 446.3376 255 446.1333 C255.7379 445.995 260.4095 452.5238 263 453.1333 C265.2272 453.6574 270.055 451.6893 272 450.1333 C272.8531 449.4509 272.9871 445.1314 273 445.1333 C273.7282 445.2454 284.061 452.3094 285 452.1333 C285.5162 452.0366 288.2493 442.3836 289 442.1333 C289.9554 441.8149 299.9755 447.2414 300 447.1333 C300.568 444.6247 301 389.1333 301 389.1333 "/>
<path id="9" d="M265 451.1333 C265 451.1333 272.2892 461.5733 278 464.1333 C282.8532 466.3089 292.2555 462.8734 294 464.1333 C295.2418 465.0302 294.7981 475.7128 296 477.1333 C296.623 477.8696 305 477.1333 305 477.1333 C305 477.1333 269.061 478.8134 249 478.1333 C247.8882 478.0956 246.2642 476.4545 246 475.1333 C244.7375 468.8209 245 458.1333 245 458.1333 "/>
<path id="10" d="M176 456.1333 C176 456.1333 177.3209 465.5854 176 471.1333 C175.3668 473.7928 173.2754 476.295 171 477.1333 C166.4657 478.8038 162.7401 476.8578 157 478.1333 C155.1165 478.5519 154.7732 480.8378 153 481.1333 C147.4832 482.0528 144.3146 482.2522 139 481.1333 C136.7823 480.6664 135.4904 479.2625 134 477.1333 C132.5294 475.0325 131.6059 472.217 132 471.1333 C132.5367 469.6573 135.3128 466.9237 138 466.1333 C141.9568 464.9696 146.2029 467.1323 149 466.1333 C150.2169 465.6987 151.4621 463.4642 152 461.1333 C152.756 457.8575 152 453.1333 152 453.1333 "/>
<path id="11" d="M256 149.1333 C256 149.1333 252.4664 135.7839 246 125.1333 C235.9855 108.6388 234.9204 107.9781 222 93.1333 C211.7351 81.3397 210.8808 81.3168 199 71.1333 C193.6476 66.5455 193.198 66.6751 187 63.1333 C179.3059 58.7367 178.9331 57.4666 171 55.1333 C162.9652 52.7701 161.9639 53.352 153 53.1333 C121.2143 52.3581 89 53.1333 89 53.1333 "/>
<path id="12" d="M89 53.1333 C89 53.1333 80.5493 58.0346 79 61.1333 C77.8678 63.3978 78.7095 67.5201 80 71.1333 C80.6764 73.0272 82.2769 74.6738 84 75.1333 C87.741 76.1309 90.8957 76.1594 95 75.1333 C97.2387 74.5737 99.2589 72.9861 100 71.1333 C101.4081 67.613 102.2786 62.6905 101 60.1333 C99.2344 56.602 90 51.1333 90 51.1333 "/>
<path id="13" d="M92 76.1333 C92 76.1333 105.8106 75.374 115 79.1333 C125.2928 83.344 126.9349 86.006 136 94.1333 C140.7004 98.3475 143.4684 100.2901 144 105.1333 C147.1824 134.1281 145 176.1333 145 176.1333 "/>
<path id="14" d="M258 156.1333 L257 149.1333 "/>
<path id="15" d="M146 176.1333 C146 176.1333 146.6903 182.6024 146 185.1333 C145.7839 185.9259 143 187.1333 143 187.1333 "/>
<path id="16" d="M170 169.1333 L168 177.1333 "/>
<path id="17" d="M201 170.1333 L201 184.1333 "/>
<path id="18" d="M234 163.1333 C234 163.1333 229.234 168.6654 227 173.1333 C226.3381 174.4572 227 177.1333 227 177.1333 "/>
<path id="19" d="M191 378.1333 L191 392.1333 "/>
<path id="20" d="M241 379.1333 C241 379.1333 241.2404 387.9314 241 389.1333 C240.9904 389.1814 239 389.1333 239 389.1333 "/>
<path id="21" d="M194 382.1333 L210 377.1333 "/>
<path id="22" d="M197 393.1333 L210 382.1333 "/>
<path id="23" d="M204 395.1333 C204 395.1333 214.0047 390.1298 222 384.1333 C225.4265 381.5634 228 377.1333 228 377.1333 "/>
<path id="24" d="M228 388.1333 L239 384.1333 "/>
<path id="25" d="M210 385.1333 L223 372.1333 "/>
<path id="26" d="M281 253.1333 C281 253.1333 290.86 255.5942 299 259.1333 C301.6618 260.2906 302.4599 260.8231 304 263.1333 C307.9203 269.0138 310.4246 270.5876 311 277.1333 C314.0352 311.6583 312 316.4775 312 354.1333 C312 356.5785 312.1365 357.3769 311 359.1333 C307.2826 364.8783 301 371.1333 301 371.1333 "/>
<path id="27" d="M275 246.1333 C275 246.1333 276.6806 244.2433 278 244.1333 C286.7498 243.4042 289.0303 242.9939 299 244.1333 C305.8635 244.9177 307.3933 244.8778 313 248.1333 C321.6316 253.1452 323.4414 254.5254 330 262.1333 C335.0117 267.9468 337.3863 270.2293 338 277.1333 C340.9296 310.0909 342.5007 319.3422 338 352.1333 C336.2644 364.7783 331.526 366.2316 324 379.1333 C321.2 383.9333 320.8154 385.0333 317 388.1333 C313.7344 390.7866 308 392.1333 308 392.1333 "/>
<path id="28" d="M308 390.1333 C308 390.1333 302.0069 392.1471 302 392.1333 C301.9553 392.044 305.2265 384.8884 305 384.1333 C304.8788 383.7292 299 382.1333 299 382.1333 "/>
<path id="29" d="M143 273.1333 C143 273.1333 121.5794 270.5262 114 275.1333 C104.0597 281.1755 100.2432 289.3524 92 304.1333 C86.6262 313.7692 85.8748 316.1103 85 327.1333 C83.5203 345.7774 83.0101 350.8889 87 367.1333 C88.9655 375.1359 92.1075 377.4632 99 384.1333 C106.6505 391.537 118 397.1333 118 397.1333 "/>
<path id="30" d="M120 384.1333 C120 384.1333 106.058 375.0789 104 368.1333 C100.2295 355.408 101.2131 347.1335 104 330.1333 C105.807 319.1104 108.2788 313.7699 114 307.1333 C117.4252 303.1601 129 301.1333 129 301.1333 "/>
<path id="31" d="M175 217.1333 C175 217.1333 172.0386 216.4035 172 216.1333 C171.6526 213.7017 171.7998 206.1338 173 203.1333 C173.3583 202.2377 176.1217 200.9992 178 201.1333 C181.5633 201.3879 186.3381 202.7433 187 204.1333 C188.6786 207.6584 188.8921 220.7951 188 222.1333 C187.5539 222.8024 176.8613 222.931 175 222.1333 C174.4886 221.9142 174 216.1333 174 216.1333 "/>
<path id="32" d="M231 215.1333 C231 215.1333 229.0453 213.858 229 213.1333 C228.7029 208.3804 228.7771 204.3305 230 199.1333 C230.3184 197.7803 231.8725 196.3068 233 196.1333 C236.2071 195.6399 241.8951 195.8706 243 197.1333 C245.0964 199.5293 247.1908 208.5075 247 212.1333 C246.945 213.1785 244.483 215.3057 242 216.1333 C236.642 217.9193 229.9576 218.5016 229 218.1333 C228.7892 218.0523 229 211.1333 229 211.1333 "/>
<path id="33" d="M214 215.1333 C214 215.1333 212.8705 222.3764 214 224.1333 C215.3536 226.2389 222.1606 227.0815 223 229.1333 C224.6436 233.1511 224.0254 244.7924 223 246.1333 C222.4004 246.9174 212.9838 247.2523 210 246.1333 C208.795 245.6815 207 240.1333 207 240.1333 "/>
<path id="34" d="M216 252.1333 C216 252.1333 232.1143 253.8547 243 251.1333 C249.092 249.6103 255.9999 242.133 256 242.1333 C256.0004 242.1342 249.1252 248.9456 245 255.1333 C243.8504 256.8578 244.948 259.0499 244 260.1333 C242.6688 261.6547 240.8371 262.6605 238 263.1333 C232.7622 264.0063 227.4118 263.4863 226 263.1333 C225.9118 263.1113 226 260.1333 226 260.1333 "/>
<path id="35" d="M210 253.1333 C210 253.1333 201.6819 254.247 195 253.1333 C190.6939 252.4156 186.3042 249.0319 186 249.1333 C185.9074 249.1642 185.2276 254.2023 186 256.1333 C186.5076 257.4023 187.9571 258.5116 190 259.1333 C198.4064 261.6918 209 263.1333 209 263.1333 "/>
<path id="36" d="M166 265.1333 C166 265.1333 170.2164 265.4158 172 267.1333 C181.9265 276.6921 186.7347 279.0667 193 291.1333 C198.5853 301.8902 193.8154 309.8913 199 319.1333 C202.7252 325.7738 207.9935 328.2681 216 332.1333 C220.2938 334.2062 224.1036 334.536 228 333.1333 C233.5567 331.1329 235.8234 328.8646 241 323.1333 C249.2257 314.0263 249.4367 312.5574 256 302.1333 C257.565 299.6478 257.8773 299.0165 258 296.1333 C258.8267 276.707 256.5142 274.0768 258 255.1333 C258.3737 250.368 261.9985 245.1258 262 245.1333 C262.0058 245.1621 264.0164 263.5327 263 280.1333 C262.5856 286.9016 261.5045 287.4547 259 294.1333 C257.0812 299.25 257.2517 300.197 254 304.1333 C248.347 310.9765 240 317.1333 240 317.1333 "/>
<path id="37" d="M190 287.1333 C190 287.1333 197.037 289.6148 200 293.1333 C203.7091 297.5379 202.2564 300.5179 206 306.1333 C209.8904 311.969 216 317.1333 216 317.1333 "/>
<path id="38" d="M202 309.1333 C202 309.1333 202.4565 312.4354 204 314.1333 C211.553 322.4417 212.893 322.7853 222 331.1333 C224.8699 333.7641 226.9736 335.7484 228 336.1333 C228.1629 336.1944 230 334.1333 230 334.1333 "/>
<path id="39" d="M230 299.1333 L229 319.1333 "/>
<path id="40" d="M251 293.1333 C251 293.1333 247.5055 301.2249 243 308.1333 C240.1998 312.427 238.8093 313.8859 236 316.1333 C235.371 316.6365 233 316.1333 233 316.1333 "/>
<path id="41" d="M215 306.1333 C215 306.1333 219.0889 313.6083 224 319.1333 C226.6244 322.0858 231 324.1333 231 324.1333 "/>
<path id="42" d="M204 284.1333 L222 298.1333 "/>
<path id="43" d="M225 285.1333 C225 285.1333 226.7658 299.3136 227 300.1333 C227.0064 300.1559 229 299.1333 229 299.1333 "/>
<path id="44" d="M246 282.1333 C246 282.1333 242.5135 289.539 242 293.1333 C241.8796 293.9765 244 296.1333 244 296.1333 "/>
<path id="45" d="M257 283.1333 L254 291.1333 "/>
<path id="46" d="M146 161.1333 C146 161.1333 148.6773 156.2004 152 153.1333 C154.6543 150.6832 156.02 149.3626 159 149.1333 C166.6854 148.5422 175.272 151.5425 178 151.1333 C178.2553 151.095 177.8905 147.6127 179 146.1333 C181.5084 142.7887 184.1352 139.6542 187 139.1333 C191.1567 138.3776 199.9612 142.2817 201 142.1333 C201.0547 142.1255 200.1661 138.2705 201 137.1333 C204.0131 133.0245 208.5698 128.0688 212 127.1333 C214.4761 126.458 221.0094 131.5066 223 131.1333 C224.2259 130.9035 225.9257 124.8593 228 124.1333 C232.1765 122.6716 243 124.1333 243 124.1333 "/>
<path id="47" d="M146 121.1333 C146 121.1333 154.9704 109.6481 162 106.1333 C166.1878 104.0394 173.1298 107.644 176 106.1333 C178.1041 105.0259 178.6298 98.1389 181 96.1333 C182.5576 94.8154 185.9403 94.6626 189 95.1333 C191.1298 95.461 193.5266 98.3858 194 98.1333 C196.2092 96.9551 200.1791 89.256 204 87.1333 C205.7655 86.1525 210.2696 88.3256 212 88.1333 C212.2681 88.1035 213 86.1333 213 86.1333 "/>
<path id="48" d="M131 89.1333 C131 89.1333 130.3723 80.1547 131 75.1333 C131.1009 74.3263 132.193 73.2342 133 73.1333 C138.0214 72.5057 146.5415 73.6335 147 73.1333 C147.3304 72.7728 143.7633 61.8433 144 61.1333 C144.0502 60.9827 150.6206 61.567 151 61.1333 C151.4956 60.567 150.6712 54.01 151 53.1333 C151.0462 53.01 154 53.1333 154 53.1333 "/>
</g>
</g>
</svg>
