<?xml version="1.0" encoding="utf-8"?>
<!DOCTYPE svg PUBLIC "-//W3C//DTD SVG 1.1//EN" "http://www.w3.org/Graphics/SVG/1.1/DTD/svg11.dtd">
<svg viewBox="0 0 800 800" preserveAspectRatio="xMinYMin meet" xmlns="http://www.w3.org/2000/svg" version="1.1">
<g fill="none" stroke="black" stroke-linecap="round" stroke-linejoin="round" stroke-width="1.6609">
<g transform="translate(140.8042,87.52) scale(1.8062) translate(-137,-54)">
<path id="0" d="M192 212 C192 212 195.9895 207.4152 199 207 C207.559 205.8194 214.2115 209.2571 221 208 C222.9017 207.6478 225.5472 202.1132 226 202 C226.1393 201.9652 228.0381 205.9313 229 206 C236.2773 206.5198 244.008 206.2563 254 204 C256.7988 203.368 258.5392 198.9231 260 199 C263.3907 199.1785 271.8762 204.8395 273 205 C273.0348 205.005 273.0132 202.0766 274 201 C277.4456 197.2412 279.709 195.6406 284 193 C284.8626 192.4691 286.9624 192.8778 287 193 C287.542 194.7616 287.8654 205.9103 288 206 C288.0464 206.0309 294.1455 202.2969 296 199 C297.5421 196.2585 296.5405 190.1225 297 190 C300.8831 188.9645 317.6156 191.5409 326 191 C326.6356 190.959 327.4201 188.0232 328 188 C334.27 187.7492 346.7986 190.6722 351 190 C351.5483 189.9123 352.173 184.2363 353 184 C358.9164 182.3096 379 182 379 182 "/>
<path id="1" d="M193 209 C193 209 190.5481 199.4299 192 193 C193.5469 186.1493 197.3408 184.9804 200 178 C200.8841 175.6793 198.9693 173.3339 200 172 C205.0052 165.5226 209.3897 164.5616 217 156 C225.1539 146.8268 228.588 145.0986 232 136 C234.663 128.8986 230.782 125.1352 232 116 C232.6415 111.1888 235.6562 110.6981 236 106 C237.0329 91.8835 235 75 235 75 "/>
<path id="2" d="M380 183 C380 183 382.1857 172.3713 380 168 C376.7215 161.443 368.7297 159.4648 365 153 C363.2655 149.9936 366.5867 144.3801 365 142 C362.2112 137.8168 357.2428 137.597 351 132 C343.023 124.8482 344.1139 122.3928 336 116 C328.3937 110.0072 326.451 107.7606 318 106 C305.3762 103.37 300.4806 109.1202 288 106 C275.7274 102.9319 273.7538 100.0971 262 92 C251.873 85.0236 252.1948 81.4704 243 75 C240.2064 73.0341 235 73 235 73 "/>
<path id="3" d="M239 75 C239 75 233.548 79.287 233 79 C229.7924 77.3198 221.3262 69.9397 218 64 C216.6581 61.6038 218.2589 54.3901 219 54 C221.13 52.8789 230.0736 52.7954 237 54 C239.1917 54.3812 241.2589 56.1472 242 58 C243.4081 61.5203 243.8256 67.9492 243 69 C241.9954 70.2786 231 72 231 72 "/>
<path id="4" d="M190 204 C190 204 181.5982 210.8502 180 216 C178.2339 221.6907 181 233 181 233 "/>
<path id="5" d="M248 231 C248 231 235.7608 227.8098 231 229 C228.4032 229.6492 227.3092 235.0145 224 237 C221.5882 238.4471 216 238 216 238 "/>
<path id="6" d="M247 229 C247 229 245.8783 239.6622 245 240 C241.6711 241.2803 221 239 221 239 "/>
<path id="7" d="M326 227 C326 227 325.785 222.43 327 220 C328.215 217.57 330.1546 215.205 332 215 C339.234 214.1962 354 217 354 217 "/>
<path id="8" d="M326 222 C326 222 326.5621 230.5621 328 232 C329.4379 233.4379 334.5029 234.4371 338 234 C340.3314 233.7086 342.0926 232.3843 344 230 C347.4247 225.7192 347.2231 221.7769 350 219 C351.1434 217.8566 356 218 356 218 "/>
<path id="9" d="M334 221 C334 221 339 222 339 222 C339.0107 221.9464 336.5107 217.5107 335 216 C334.6979 215.6979 333.0117 215.9649 333 216 C332.9532 216.1403 334 219 334 219 "/>
<path id="10" d="M325 210 C325 210 332.6554 204.5227 339 203 C343.3538 201.9551 350 204 350 204 "/>
<path id="11" d="M245 223 C245 223 241.8469 220.5694 239 220 C235.1178 219.2236 233.776 219.0063 230 220 C225.2524 221.2494 220 225 220 225 "/>
<path id="12" d="M235 232 C235 232 236.813 235.9065 237 236 C237.0468 236.0234 239.011 234.0147 239 234 C238.8733 233.831 234 232 234 232 "/>
<path id="13" d="M293 264 C293 264 288.6274 262.6079 288 263 C287.032 263.605 285.1332 266.4685 285 269 C284.721 274.3011 285.5972 280.8448 287 282 C288.747 283.4387 297.021 283.7862 302 283 C303.5537 282.7547 305.3619 280.7549 306 279 C306.819 276.7479 307.0288 274.3515 306 272 C304.2272 267.9479 302.2785 265.1857 299 263 C296.8143 261.5429 291 262 291 262 "/>
<path id="14" d="M279 263 C279 263 283.5402 255.3538 287 254 C291.5043 252.2375 298.4657 252.8219 302 254 C303.1781 254.3927 305 260 305 260 "/>
<path id="15" d="M306 281 C306 281 306.9818 275.691 309 273 C310.6736 270.7685 311.8809 270.0755 315 269 C325.5961 265.3462 326.6855 264.6164 338 263 C347.011 261.7127 348.1069 264.3682 357 263 C366.7932 261.4934 369.4128 261.4055 377 257 C382.805 253.6293 388 245 388 245 "/>
<path id="16" d="M307 275 C307 275 304.7905 284.0668 305 287 C305.0391 287.5478 306.6927 288.9157 308 289 C319.6987 289.7548 326.7719 293.5042 336 289 C361.0518 276.7724 392 248 392 248 "/>
<path id="17" d="M286 281 C286 281 281.3543 278.3266 277 278 C262.3675 276.9026 260.4433 279.111 246 278 C242.1652 277.705 241.2732 277.1179 238 275 C233.3323 271.9798 233.0017 268.7785 229 267 C226.1315 265.7251 220 267 220 267 "/>
<path id="18" d="M282 278 C282 278 284.1249 288.9569 284 289 C281.8654 289.7361 267.6746 289.9141 253 288 C245.6217 287.0376 243.0398 286.9708 238 283 C228.8074 275.7573 227.9352 268.0198 220 262 C217.2501 259.9139 209 261 209 261 "/>
<path id="19" d="M230 267 L213 261 "/>
<path id="20" d="M276 289 C276 289 275.1734 292.8507 276 295 C277.2294 298.1964 279.0605 301.5886 281 302 C289.3743 303.7764 296.2031 303.0969 309 302 C312.3167 301.7157 315.1794 300.4361 316 299 C317.3565 296.6261 317 288 317 288 "/>
<path id="21" d="M269 289 C269 289 268.8715 297.9558 271 302 C272.5466 304.9385 275.3633 307.3473 279 308 C291.4922 310.2422 298.7295 311.6951 310 309 C316.5472 307.4344 320.7547 302.7437 325 297 C327.2946 293.8956 327 286 327 286 "/>
<path id="22" d="M180 234 C180 234 183.0509 233.4068 184 234 C185.6906 235.0566 186.2911 238.0506 188 239 C189.2607 239.7004 192.8728 238.7243 193 239 C193.7422 240.6081 192.0914 249.2734 194 252 C196.243 255.2042 202.1293 255.4282 207 259 C208.3251 259.9717 209 263 209 263 "/>
<path id="23" d="M371 184 C371 184 370.8973 194.6866 374 202 C377.1661 209.4629 381.8328 209.8738 385 217 C386.9817 221.4589 386 229 386 229 "/>
<path id="24" d="M377 265 C377 265 382.6175 265.5033 386 264 C390.3375 262.0722 391.0171 257.7337 395 257 C406.2255 254.9321 423.9115 256.8893 424 257 C424.0053 257.0067 415.672 266.1154 407 272 C402.6241 274.9694 396.3809 274.7621 396 276 C394.9128 279.5332 399.6366 292.4826 399 298 C398.862 299.1956 392.9852 301.9951 393 302 C393.0571 302.019 410.4817 301.7038 411 302 C411.0165 302.0094 409.3321 307.6679 407 310 C405.0565 311.9435 400 313 400 313 "/>
<path id="25" d="M179 234 C179 234 173.5948 234.8354 169 234 C163.1521 232.9367 161.6949 232.9064 157 230 C152.2742 227.0745 148.0044 220.9941 148 221 C147.9711 221.0386 147.8732 233.0338 151 238 C154.1146 242.9467 164.9451 247.8352 165 248 C165.005 248.015 157.5283 247.7634 155 250 C147.5721 256.5708 142.5906 261.0262 139 271 C135.0123 282.077 137 293.0503 137 300 C137 300.2396 138.9099 301.0901 139 301 C141.2535 298.7465 145.0114 290.1179 150 287 C153.4415 284.8491 162.7102 285.4873 163 286 C164.0955 287.9383 165.5007 302.0433 163 310 C161.4936 314.793 157.1142 318.3317 152 321 C148.1743 322.996 141.4662 321.2669 140 322 C139.7068 322.1466 139.4306 324.9123 140 327 C140.7764 329.8469 141.147 331.4559 143 333 C145.8566 335.3805 147.7175 336.4647 152 337 C162.3682 338.296 166.4352 339.7157 175 337 C183.2378 334.388 185.1499 330.7796 193 324 C195.4661 321.8702 196.9986 317.9951 197 318 C197.0036 318.0125 193.6741 328.1072 195 331 C196.8608 335.0599 205.8004 337.6009 208 342 C209.5711 345.1422 208.9465 349.9391 207 355 C204.606 361.2243 199.7478 362.3196 198 368 C196.5932 372.572 197.5699 375.5656 199 381 C199.7605 383.8897 201.091 386.1962 203 387 C207.634 388.9511 217.4295 389.3511 218 389 C218.1721 388.8941 215.7889 383.4333 216 379 C216.2375 374.0125 216.3255 372.1455 219 368 C225.4028 358.0756 235.7499 348.0395 236 348 C236.0085 347.9987 235.0718 358.7777 238 365 C241.8498 373.1808 244.3557 375.1465 252 382 C258.0307 387.4068 260.0057 388.7518 267 391 C272.0817 392.6334 279.9876 391.0495 280 391 C280.0362 390.8553 270.9734 383.7282 270 379 C268.5195 371.8088 272.9529 356.9826 273 357 C273.3278 357.1214 286.575 372.9902 297 389 C299.9778 393.5731 300.9136 399.9914 301 400 C301.0847 400.0085 303.4028 394.0204 307 390 C311.4103 385.0709 313.0614 382.4338 318 381 C325.2557 378.8935 330.9114 382.1814 338 381 C339.654 380.7243 341.0549 379.0477 342 377 C343.6042 373.5242 342.0312 371.1172 344 368 C347.1299 363.0444 351.9814 358.5937 354 358 C354.8625 357.7463 358.7902 360.1876 361 363 C363.5555 366.2525 362.6195 369.1434 365 372 C366.5441 373.853 368.0257 374.4051 371 375 C379.7425 376.7485 389.4284 377.7304 390 377 C391.0757 375.6255 387.3335 361.7214 389 352 C389.7518 347.6147 394.5919 346.8501 396 342 C398.5255 333.3009 395.9918 330.0369 398 321 C398.6451 318.097 402 315 402 315 "/>
</g>
</g>
</svg>
