<?xml version="1.0" encoding="utf-8"?>
<!DOCTYPE svg PUBLIC "-//W3C//DTD SVG 1.1//EN" "http://www.w3.org/Graphics/SVG/1.1/DTD/svg11.dtd">
<svg viewBox="0 0 800 800" preserveAspectRatio="xMinYMin meet" xmlns="http://www.w3.org/2000/svg" version="1.1">
<g fill="none" stroke="black" stroke-linecap="round" stroke-linejoin="round" stroke-width="2.3858">
<g transform="translate(87.52,208.0271) scale(1.2575) translate(-86.3611,-148.1667)">
<path id="0" d="M217.3611 227.9444 C217.3611 227.9444 214.1803 235.5718 213.3611 242.9444 C212.2473 252.9691 212.0577 254.0383 213.3611 263.9444 C214.4571 272.2741 215.2682 273.3841 218.3611 280.9444 C219.4388 283.5788 219.991 284.2063 222.3611 285.9444 C234.253 294.6652 236.4482 294.1059 248.3611 302.9444 C251.2771 305.1079 250.459 306.9353 253.3611 308.9444 C262.6527 315.3771 263.8414 315.4898 274.3611 320.9444 C277.0805 322.3545 277.5209 322.8677 280.3611 322.9444 C294.8916 323.3372 299.2644 325.4006 311.3611 321.9444 C319.757 319.5456 320.182 314.5175 329.3611 308.9444 C333.7671 306.2694 336.4945 307.9213 339.3611 304.9444 C347.4391 296.5558 350.2241 293.0746 355.3611 281.9444 C358.2222 275.7453 359.4163 270.8769 357.3611 265.9444 C351.7827 252.5563 347.1199 246.6316 335.3611 233.9444 C330.0127 228.1738 327.5891 228.5025 319.3611 224.9444 C309.4227 220.6468 308.597 219.4689 298.3611 217.9444 C286.2875 216.1462 284.5551 216.2024 272.3611 217.9444 C261.1051 219.5524 260.8388 222.7466 249.3611 224.9444 C237.8634 227.1461 225.3611 226.9444 225.3611 226.9444 "/>
<path id="1" d="M211.3611 233.9444 C211.3611 233.9444 214.2773 229.0794 217.3611 226.9444 C219.7451 225.294 224.3611 224.9444 224.3611 224.9444 "/>
<path id="2" d="M282.3611 322.9444 C282.3611 322.9444 289.2785 315.428 295.3611 313.9444 C306.6671 311.1869 323.3611 312.9444 323.3611 312.9444 "/>
<path id="3" d="M245.3611 298.9444 C245.3611 298.9444 276.7198 301.9444 303.3611 301.9444 C307.0358 301.9444 308.3685 301.1889 311.3611 298.9444 C317.4923 294.3461 318.1828 288.3567 323.3611 286.9444 C334.211 283.9854 355.3611 286.9444 355.3611 286.9444 "/>
<path id="4" d="M306.3611 280.9444 C306.3611 280.9444 313.9555 286.6144 316.3611 290.9444 C317.5983 293.1713 317.3278 297.4945 316.3611 298.9444 C315.2333 300.6361 312.1541 302.222 308.3611 302.9444 C302.7334 304.0164 299.8483 304.0002 295.3611 302.9444 C293.6556 302.5431 291.3611 298.9444 291.3611 298.9444 "/>
<path id="5" d="M234.3611 260.9444 C234.3611 260.9444 233.8628 258.488 234.3611 257.9444 C237.5306 254.4868 240.1459 251.2119 245.3611 248.9444 C249.7096 247.0538 257.3611 247.9444 257.3611 247.9444 "/>
<path id="6" d="M293.3611 245.9444 L323.3611 241.9444 "/>
<path id="7" d="M314.3611 256.9444 L312.3611 255.9444 "/>
<path id="8" d="M246.3611 260.9444 L246.3611 259.9444 "/>
<path id="9" d="M248.3611 259.9444 C248.3611 259.9444 248.3611 264.9444 248.3611 264.9444 C248.3611 264.9444 248.2802 261.9984 248.3611 261.9444 C248.4555 261.8815 251.3611 262.9446 251.3611 262.9444 C251.3611 262.9441 248.3611 260.9444 248.3611 260.9444 "/>
<path id="10" d="M212.3611 245.9444 C212.3611 245.9444 206.4549 254.3543 204.3611 261.9444 C202.8661 267.3639 203.2 270.9966 204.3611 274.9444 C204.8497 276.6058 209.1501 277.4248 209.3611 278.9444 C210.7998 289.3032 207.0653 299.1786 209.3611 310.9444 C210.1188 314.8275 213.027 316.9106 217.3611 319.9444 C222.0589 323.2329 228.5492 323.0253 229.3611 324.9444 C231.0191 328.8634 227.892 344.3806 228.3611 345.9444 C228.386 346.0275 233.4734 346.2928 235.3611 344.9444 C238.647 342.5973 242.3464 335.9381 242.3611 335.9444 C242.3852 335.9548 240.8305 345.0363 242.3611 347.9444 C243.9253 350.9163 247.8043 353.0681 252.3611 354.9444 C254.8372 355.964 257.9267 353.9198 259.3611 354.9444 C262.2593 357.0146 262.381 360.7303 266.3611 364.9444 C270.5409 369.37 271.6013 370.9972 276.3611 372.9444 C280.8112 374.765 283.6241 372.5512 288.3611 373.9444 C290.7409 374.6444 292.0946 375.635 293.3611 377.9444 C299.6692 389.4475 300.3631 398.86 305.3611 404.9444 C306.722 406.6012 312.3093 406.4847 316.3611 405.9444 C318.0017 405.7257 319.7096 404.3778 320.3611 402.9444 C321.5044 400.4293 320.9263 396.1041 321.3611 394.9444 C321.4001 394.8406 322.9023 394.5774 323.3611 394.9444 C328.5452 399.0917 333.2627 406.1362 336.3611 406.9444 C337.9813 407.3671 341.9976 402.0927 346.3611 400.9444 C349.6536 400.078 352.5699 400.9294 355.3611 401.9444 C356.2825 402.2795 357.3608 404.9444 357.3611 404.9444 C357.3613 404.9444 356.2361 402.1944 356.3611 401.9444 C356.4861 401.6944 359.204 401.4157 359.3611 400.9444 C360.513 397.4886 360.2092 390.4002 361.3611 386.9444 C361.5182 386.4732 363.9737 386.5256 364.3611 385.9444 C365.0929 384.8468 365.1962 383.4178 365.3611 380.9444 C365.6866 376.0628 365.7639 371.5487 365.3611 370.9444 C365.2403 370.7632 359.36 371.9452 359.3611 371.9444 C359.3647 371.942 371.4519 368.4121 375.3611 363.9444 C378.9815 359.8068 379.4588 355.6138 380.3611 347.9444 C381.3338 339.6768 377.7814 334.8809 379.3611 329.9444 C380.2439 327.1858 385.1652 326.673 388.3611 322.9444 C390.44 320.5191 391.8152 317.1553 391.3611 315.9444 C390.4047 313.3939 383.8075 311.4443 382.3611 306.9444 C376.2932 288.0666 378.6574 281.9446 373.3611 259.9444 C372.5033 256.3813 371.9426 255.403 369.3611 252.9444 C362.2504 246.1724 359.8421 243.9966 352.3611 239.9444 C350.1829 238.7646 346.4418 240.4848 345.3611 239.9444 C344.8979 239.7129 344.3611 235.9444 344.3611 235.9444 "/>
<path id="11" d="M214.3611 229.0556 C214.3611 229.0556 207.4503 228.3454 207.3611 228.0556 C207.0479 227.0376 207.7576 218.6591 210.3611 216.0556 C215.3946 211.0221 220.6944 211.7338 229.3611 206.0556 C234.753 202.523 234.6124 199.6937 239.3611 197.0556 C242.0696 195.5508 244.846 197.1988 247.3611 196.0556 C248.7945 195.404 249.0443 192.4429 250.3611 192.0556 C254.868 190.73 260.8169 189.5146 264.3611 191.0556 C267.9621 192.6212 273.0682 202.0946 273.3611 202.0556 C273.6618 202.0155 276.3151 190.93 279.3611 189.0556 C284.1142 186.1306 290.3129 188.6825 299.3611 186.0556 C304.8851 184.4518 305.1779 181.2517 310.3611 180.0556 C316.639 178.6068 318.1561 179.1075 325.3611 180.0556 C336.7249 181.5508 337.0374 183.1032 348.3611 185.0556 C351.2084 185.5465 351.9902 185.8459 354.3611 185.0556 C358.5761 183.6506 359.1518 180.8072 363.3611 180.0556 C371.4454 178.6119 376.3477 178.5522 382.3611 180.0556 C384.4183 180.5699 386.1431 183.376 387.3611 186.0556 C388.0973 187.6751 386.6752 190.2934 387.3611 191.0556 C389.1582 193.0524 393.7206 193.4151 396.3611 196.0556 C397.87 197.5644 398.778 201.4535 398.3611 202.0556 C397.0411 203.9623 392.7974 207.2435 387.3611 209.0556 C380.5657 211.3207 376.3464 208.4632 371.3611 211.0556 C367.0546 213.295 367.4028 217.35 362.3611 222.0556 C352.7139 231.0597 350.1518 233.0779 341.3611 239.0556 C340.2812 239.7899 337.3656 239.0578 337.3611 239.0556 C337.3594 239.0547 339.3611 238.0556 339.3611 238.0556 "/>
<path id="12" d="M205.3611 224.1667 C205.3611 224.1667 202.6211 230.5301 198.3611 234.1667 C183.1869 247.1202 179.9891 245.4654 164.3611 259.1667 C143.9053 277.1005 143.9269 280.8667 125.3611 298.1667 C123.6697 299.7427 122.4102 300.1667 120.3611 300.1667 C117.0826 300.1667 112.759 299.062 112.3611 298.1667 C111.2151 295.5882 110.4254 289.2057 112.3611 282.1667 C120.836 251.3488 121.2952 247.393 134.3611 218.1667 C139.3431 207.0229 141.1166 204.8112 150.3611 197.1667 C165.3762 184.7504 167.9138 184.119 186.3611 175.1667 C201.1178 168.0053 202.2189 168.0408 218.3611 164.1667 C239.182 159.1697 240.0192 159.538 261.3611 157.1667 C271.1112 156.0833 272.0439 158.8109 281.3611 157.1667 C296.5427 154.4876 297.189 149.6839 312.3611 148.1667 C340.4223 145.3606 343.0113 147.3076 371.3611 148.1667 C374.7538 148.2695 375.768 148.4379 378.3611 150.1667 C383.8586 153.8317 387.965 155.656 389.3611 160.1667 C392.7585 171.1428 391.3611 192.1667 391.3611 192.1667 "/>
<path id="13" d="M110.3611 292.1667 C110.3611 292.1667 101.8688 291.5398 95.3611 293.1667 C90.9871 294.2602 86.8349 297.456 86.3611 298.1667 C86.275 298.2959 89.0028 300.3753 89.3611 302.1667 C90.2178 306.4503 87.7583 309.961 89.3611 313.1667 C91.7653 317.9751 95.0131 321.2699 100.3611 324.1667 C104.8024 326.5724 108.0778 327.194 113.3611 326.1667 C123.7299 324.1505 132.1516 320.6441 136.3611 317.1667 C137.5037 316.2228 137.5526 308.7915 136.3611 307.1667 C134.8042 305.0436 125.3611 302.1667 125.3611 302.1667 "/>
<path id="14" d="M307.3611 319.1667 L305.3611 319.1667 "/>
<path id="15" d="M300.3611 319.1667 L298.3611 319.1667 "/>
<path id="16" d="M314.3611 314.1667 L317.3611 314.1667 "/>
<path id="17" d="M206.3611 316.5 C206.3611 316.5 199.6392 321.9046 195.3611 328.5 C176.1338 358.1421 177.776 360.2637 158.3611 390.5 C147.4014 407.5684 147.2351 409.3386 134.3611 423.5 C128.3618 430.0993 126.0245 432.2861 118.3611 434.5 C106.5419 437.9144 89.3611 436.5 89.3611 436.5 "/>
<path id="18" d="M375.3611 291.5 C375.3611 291.5 383.2614 287.5249 391.3611 285.5 C404.8993 282.1155 405.6641 281.1736 419.3611 280.5 C435.3158 279.7153 439.6036 279.098 452.3611 282.5 C457.941 283.988 459.2035 287.0709 464.3611 292.5 C468.3739 296.724 468.6052 297.2086 471.3611 302.5 C480.9291 320.8705 479.5668 322.0636 489.3611 340.5 C496.4655 353.873 495.7561 355.7867 505.3611 366.5 C520.6635 383.568 522.7843 383.9039 541.3611 398.5 C550.3023 405.5252 551.0885 405.8529 561.3611 410.5 C571.5279 415.0993 583.3611 417.5 583.3611 417.5 "/>
<path id="19" d="M339.3611 424.5 C339.3611 424.5 331.4952 424.9609 330.3611 426.5 C327.6435 430.1882 324.4932 439.5942 325.3611 443.5 C326.0409 446.5591 331.4765 451.3763 336.3611 453.5 C340.1802 455.1605 344.0209 455.2361 348.3611 453.5 C356.6075 450.2015 361.9786 446.126 366.3611 441.5 C367.417 440.3854 367.4199 436.4852 366.3611 434.5 C364.5057 431.0211 362.4219 428.5304 358.3611 426.5 C353.1159 423.8774 344.3611 423.5 344.3611 423.5 "/>
</g>
</g>
</svg>
