<?xml version="1.0" encoding="utf-8"?>
<!DOCTYPE svg PUBLIC "-//W3C//DTD SVG 1.1//EN" "http://www.w3.org/Graphics/SVG/1.1/DTD/svg11.dtd">
<svg viewBox="0 0 800 800" preserveAspectRatio="xMinYMin meet" xmlns="http://www.w3.org/2000/svg" version="1.1">
<g fill="none" stroke="black" stroke-linecap="round" stroke-linejoin="round" stroke-width="1.3201">
<g transform="translate(147.7434,87.52) scale(2.2726) translate(-159,-85.8167)">
<path id="0" d="M181 209.8167 C181 209.8167 179.9037 216.7872 181 222.8167 C182.7786 232.5987 182.9417 233.6855 187 242.8167 C190.6604 251.0527 190.922 253.56 197 258.8167 C207.4126 267.8222 210.2636 269.1749 224 274.8167 C237.0423 280.1733 238.7005 279.9967 253 281.8167 C265.4381 283.3997 266.2866 282.7248 279 281.8167 C286.9284 281.2503 287.6415 281.2695 295 278.8167 C302.0699 276.46 302.9612 276.2233 309 271.8167 C320.8811 263.1467 321.3278 262.4889 332 251.8167 C346.6433 237.1734 360 220.8167 360 220.8167 "/>
<path id="1" d="M185 236.8167 C185 236.8167 179.1655 247.9892 177 258.8167 C174.8712 269.4606 174.2101 272.8669 176 281.8167 C177.0677 287.1551 179.4394 291.0563 184 293.8167 C194.9533 300.4463 198.9478 300.9898 214 304.8167 C227.7764 308.3191 228.5687 307.7066 243 308.8167 C254.3254 309.6878 255.294 310.482 266 308.8167 C276.7473 307.1449 278.1932 306.7201 288 301.8167 C300.3065 295.6634 303.3353 294.9497 312 285.8167 C319.8968 277.493 323.1156 267.7161 325 262.8167 C325.1242 262.4936 322 259.8167 322 259.8167 "/>
<path id="2" d="M189 298.8167 C189 298.8167 189.423 301.309 189 301.8167 C187.9895 303.0293 184.6239 303.2916 184 304.8167 C181.4483 311.0543 180.9476 314.6568 180 323.8167 C179.517 328.4861 181.7223 329.4829 181 333.8167 C179.9104 340.354 176 347.6168 176 347.8167 C176 347.8452 178.6808 345.8761 181 345.8167 C196.5988 345.4167 206.7051 350.0625 215 346.8167 C219.7967 344.9397 221.8641 337.6216 227 327.8167 C232.7356 316.8668 237 304.8167 237 304.8167 "/>
<path id="3" d="M273 307.8167 C273 307.8167 274.3898 325.9608 273 338.8167 C272.7116 341.4842 268.9913 344.8167 269 344.8167 C269.026 344.8167 275.1091 340.5349 281 338.8167 C286.2661 337.2807 292.001 339.2042 293 337.8167 C295.9348 333.7405 297.1827 325.6293 299 313.8167 C300.0938 306.7072 299 298.8167 299 298.8167 "/>
<path id="4" d="M182 345.8167 C182 345.8167 166.0857 348.482 162 350.8167 C161.1062 351.3274 160.5815 355.7244 161 357.8167 C161.2215 358.9244 162.8151 360.7056 164 360.8167 C174.472 361.7984 180.5894 361.9117 193 360.8167 C195.253 360.6179 195.6732 358.3153 198 357.8167 C201.7112 357.0214 204.1315 359.0916 207 357.8167 C211.0017 356.0381 212.6363 354.0213 216 349.8167 C218.0802 347.2164 219 342.8167 219 342.8167 "/>
<path id="5" d="M277 342.8167 C277 342.8167 259.2831 348.3448 259 348.8167 C258.9393 348.9178 263.6148 355.7194 268 357.8167 C272.9298 360.1744 275.9484 360.4651 282 359.8167 C288.3809 359.133 294.6594 357.019 296 354.8167 C297.7846 351.8849 296 336.8167 296 336.8167 C296 336.8167 296.001 339.8176 296 339.8167 C295.9978 339.8144 294 334.8167 294 334.8167 "/>
<path id="6" d="M194 164.8167 C194 164.8167 186.7427 168.7365 181 173.8167 C174.0455 179.9687 171.7848 180.419 168 187.8167 C161.8411 199.8545 162.0275 202.6882 159 216.8167 C157.7275 222.7552 157.0166 225.4532 159 229.8167 C163.0916 238.8182 166.3627 240.5715 174 249.8167 C175.4865 251.6161 177.0363 252.679 178 252.8167 C178.5907 252.901 181 250.8167 181 250.8167 "/>
<path id="7" d="M365 178.8167 C365 178.8167 368.9396 182.5585 371 186.8167 C376.1693 197.4999 377.5472 198.534 380 209.8167 C382.2818 220.3131 381.6792 222.2897 381 232.8167 C380.7574 236.5774 380.2774 237.8694 378 240.8167 C372.5222 247.9056 371.4303 249.0376 364 254.8167 C358.4936 259.0994 357.284 260.2933 351 261.8167 C342.3449 263.9149 336.2054 263.7219 331 262.8167 C329.984 262.64 328 257.8167 328 257.8167 "/>
<path id="8" d="M236 125.8167 C236 125.8167 239.2098 133.3886 240 140.8167 C241.6447 156.2772 239.3777 157.134 241 172.8167 C242.34 185.7705 242.7361 187.5743 246 198.8167 C246.7326 201.3399 247.7187 202.1871 250 203.8167 C254.0892 206.7375 255.1331 207.7738 260 208.8167 C268.0068 210.5324 269.507 210.566 278 209.8167 C285.7539 209.1325 289.9401 209.5183 294 205.8167 C302.8065 197.7872 305.6895 192.4894 312 178.8167 C316.9632 168.0631 315.9103 166.3547 318 153.8167 C320.371 139.5908 321 124.8167 321 124.8167 "/>
<path id="9" d="M240 157.8167 C240 157.8167 228.3718 162.9972 217 164.8167 C204.195 166.8655 190 165.8167 190 165.8167 "/>
<path id="10" d="M318 158.8167 C318 158.8167 329.4413 161.4815 330 161.8167 C330.0081 161.8215 327.9628 164.8043 328 164.8167 C328.7807 165.0769 344.8394 166.8685 348 167.8167 C348.1361 167.8575 348.3118 170.4009 348 170.8167 C347.6622 171.2671 344.9908 171.8129 345 171.8167 C345.0797 171.8495 365 177.8167 365 177.8167 "/>
<path id="11" d="M235 127.8167 C235 127.8167 238.8137 123.4007 243 121.8167 C256.0547 116.877 261.1005 117.6842 272 113.8167 C273.0491 113.4444 273.3703 110.8482 274 110.8167 C285.1149 110.2609 296.819 110.0514 312 111.8167 C314.1766 112.0698 315.6638 113.6454 317 115.8167 C319.0478 119.1444 320.4207 124.2812 320 124.8167 C318.9866 126.1064 313.01 128.2832 306 129.8167 C297.4371 131.6898 296.9686 131.5074 288 131.8167 C268.1457 132.5013 266.9757 133.7142 248 131.8167 C238.2275 130.8394 237.4424 126.7609 228 125.8167 C218.9243 124.9091 216.9744 125.4411 208 127.8167 C201.0699 129.6511 200.2798 130.6302 194 134.8167 C187.1595 139.377 183.1131 144.5488 181 145.8167 C180.9138 145.8684 179 143.8167 179 143.8167 C178.4262 144.3904 173 153.8168 173 153.8167 C173.0001 153.8163 176.888 138.7218 184 127.8167 C190.9443 117.1688 192.5457 114.9107 203 107.8167 C218.7962 97.0978 221.5156 96.7091 240 89.8167 C249.9338 86.1125 251.0897 86.9357 262 85.8167 C270.2764 84.9678 271.2986 84.2047 279 85.8167 C291.632 88.4606 299.1526 88.9693 305 94.8167 C311.1815 100.9982 315 121.8167 315 121.8167 "/>
<path id="12" d="M177 147.8167 C177 147.8167 169.151 149.2523 167 150.8167 C166.1813 151.4121 165.7952 153.7688 166 155.8167 C166.2173 157.9899 166.7516 159.9087 168 160.8167 C170.4767 162.6179 175.8869 164.2448 177 163.8167 C178.004 163.4305 180.8241 158.8062 181 155.8167 C181.1884 152.6135 178 146.8167 178 146.8167 "/>
<path id="13" d="M314 119.8167 L319 123.8167 "/>
<path id="14" d="M292 154.8167 C292 154.8167 283.4401 157.4866 279 160.8167 C277.0971 162.2438 276.3776 164.1735 276 166.8167 C275.5385 170.0472 276.4424 174.5164 277 174.8167 C278.2041 175.465 284.7304 175.3236 289 173.8167 C291.3381 172.9914 293.0839 171.0153 294 168.8167 C294.9053 166.6439 294.7018 164.1561 294 161.8167 C293.609 160.5133 291 158.8167 291 158.8167 "/>
<path id="15" d="M264 144.8167 C264 144.8167 261.8611 153.1917 262 153.8167 C262.0144 153.8816 265.0688 154.4375 266 153.8167 C268.0953 152.4198 271.0334 148.0839 271 147.8167 C270.9829 147.6799 265 145.8167 265 145.8167 "/>
<path id="16" d="M302 143.8167 C302 143.8167 299.0582 143.6809 299 143.8167 C298.6832 144.5559 298.2982 148.4773 299 150.8167 C299.391 152.12 300.6886 153.3795 302 153.8167 C303.9671 154.4724 307.2895 154.3242 308 153.8167 C308.5413 153.43 309.4366 150.272 309 148.8167 C308.4241 146.8969 306.9581 144.9916 305 143.8167 C303.1537 142.7089 299 142.8167 299 142.8167 "/>
<path id="17" d="M276 171.8167 C276 171.8167 270.9578 171.0504 270 171.8167 C268.3398 173.1448 268.5933 176.8529 266 179.8167 C262.2228 184.1335 255.9972 187.8153 256 187.8167 C256.0063 187.8198 264.9794 184.2208 272 182.8167 C273.5693 182.5028 275.0193 184.209 276 183.8167 C278.1794 182.9449 280.2913 181.2577 282 178.8167 C283.0587 177.3043 282.1561 174.4009 283 173.8167 C285.7936 171.8827 292.7935 169.0812 295 169.8167 C297.6202 170.6901 300.4426 177.8066 304 180.8167 C304.7772 181.4743 308.0002 180.8166 308 180.8167 C307.9995 180.8168 301.5784 183.5946 298 182.8167 C292.5673 181.6356 285 175.8167 285 175.8167 "/>
<path id="18" d="M247 199.8167 C247 199.8167 249.7279 200.9323 250 201.8167 C251.0527 205.2378 249.1942 209.0245 251 212.8167 C253.2479 217.5372 256.4383 219.8486 260 222.8167 C260.6165 223.3304 262.5803 222.397 263 222.8167 C264.5389 224.3556 265.776 229.3459 267 229.8167 C268.5053 230.3956 271.8404 229.3491 276 227.8167 C281.0589 225.9529 281.9044 226.0219 286 222.8167 C292.8218 217.4779 294.8033 216.5779 299 209.8167 C302.8052 203.6861 300.7333 201.2835 304 193.8167 C307.581 185.6314 313 177.8167 313 177.8167 "/>
</g>
</g>
</svg>
