<?xml version="1.0" encoding="utf-8"?>
<!DOCTYPE svg PUBLIC "-//W3C//DTD SVG 1.1//EN" "http://www.w3.org/Graphics/SVG/1.1/DTD/svg11.dtd">
<svg viewBox="0 0 800 800" preserveAspectRatio="xMinYMin meet" xmlns="http://www.w3.org/2000/svg" version="1.1">
<g fill="none" stroke="black" stroke-linecap="round" stroke-linejoin="round" stroke-width="1.9297">
<g transform="translate(98.4024,87.52) scale(1.5546) translate(-37,-47.4167)">
<path id="0" d="M192 182.4167 C192 182.4167 199.972 173.7514 209 168.4167 C221.1781 161.2205 222.3869 161.482 236 156.4167 C243.5662 153.6013 244.1559 152.835 252 152.4167 C280.5446 150.8943 282.4982 150.1495 311 152.4167 C325.2784 153.5525 326.3423 154.5389 340 159.4167 C353.7197 164.3165 367 172.4167 367 172.4167 "/>
<path id="1" d="M206 209.4167 C206 209.4167 213.4885 199.6068 222 193.4167 C229.0276 188.3057 230.415 187.9922 239 185.4167 C249.7092 182.2039 250.5941 182.0684 262 181.4167 C285.0784 180.0979 286.008 180.3042 309 181.4167 C316.4089 181.7752 316.9479 182.0159 324 184.4167 C340.0335 189.8749 343.5499 190.0743 356 197.4167 C360.0481 199.804 363 207.4167 363 207.4167 "/>
<path id="2" d="M363 207.4167 C363 207.4167 367.605 200.3022 370 193.4167 C371.3622 189.5003 371.3651 188.6157 371 184.4167 C370.4158 177.6983 368 170.4167 368 170.4167 "/>
<path id="3" d="M206 211.4167 C206 211.4167 200.8481 207.5265 200 204.4167 C198.5269 199.0153 201.7964 194.2072 200 189.4167 C198.5179 185.4645 191 180.4167 191 180.4167 "/>
<path id="4" d="M367 167.4167 C367 167.4167 358.2328 161.6343 353 154.4167 C344.4388 142.6082 346.5887 139.8226 338 127.4167 C328.9165 114.296 325.9565 115.6382 317 102.4167 C305.3035 85.1504 307.1843 82.5659 296 65.4167 C292.7195 60.3866 291.8493 59.8805 287 56.4167 C281.8813 52.7604 281.0439 52.1714 275 50.4167 C266.2604 47.8794 265.4279 47.7888 256 47.4167 C227.8915 46.3071 226.0028 44.814 199 47.4167 C186.3177 48.6391 185.2765 50.4476 173 55.4167 C164.7523 58.755 164.4162 59.2142 157 64.4167 C131.1896 82.5225 129.8342 87.5203 106 102.4167 C101.4564 105.2565 96.2535 102.8984 93 104.4167 C91.9882 104.8889 91.0022 109.4144 91 109.4167 C90.999 109.4176 90.9835 106.4174 91 106.4167 C99.4835 106.0424 151.6576 103.5013 159 106.4167 C160.1576 106.8763 156.6445 123.7328 159 133.4167 C160.0634 137.7885 163.7706 140.0936 168 143.4167 C169.4516 144.5572 171.207 143.2961 173 144.4167 C178.2993 147.7287 181.5932 148.9469 184 153.4167 C187.0023 158.9924 184.2406 163.142 187 170.4167 C189.2872 176.4466 194.8414 182.0994 195 182.4167 C195.0099 182.4365 193 182.4167 193 182.4167 "/>
<path id="5" d="M94 110.4167 C94 110.4167 93.1053 99.4318 91 93.4167 C90.4868 91.9504 88.6442 90.6222 87 90.4167 C82.5373 89.8588 79.1631 89.5243 75 91.4167 C70.2899 93.5576 66.0644 96.7505 65 100.4167 C63.0587 107.1032 63.7399 115.1342 66 122.4167 C66.9606 125.512 71.491 129.216 74 129.4167 C78.8656 129.8059 86.2241 127.6006 91 124.4167 C93.3488 122.8508 95 118.8168 95 115.4167 C95 110.8832 91 103.4167 91 103.4167 "/>
<path id="6" d="M274 252.4167 C274 252.4167 276.8784 246.4068 279 245.4167 C281.5665 244.219 284.3263 244.8325 289 245.4167 C291.9211 245.7818 292.9459 245.8366 295 247.4167 C298.5841 250.1737 301.4427 252.6304 302 255.4167 C302.6758 258.7958 300.7993 266.0172 299 267.4167 C296.5847 269.2952 288.91 270.5951 284 269.4167 C279.9692 268.4493 276.2259 265.312 274 261.4167 C271.7045 257.3996 272 248.4167 272 248.4167 "/>
<path id="7" d="M282 220.4167 C282 220.4167 272.6804 207.7981 267 202.4167 C266.2911 201.7451 264.7672 201.9347 263 202.4167 C254.3245 204.7827 252.4579 204.5385 245 208.4167 C241.2428 210.3704 240.5236 211.6312 238 215.4167 C234.8996 220.0673 235.329 223.3113 233 226.4167 C232.3684 227.2588 229 227.4167 229 227.4167 "/>
<path id="8" d="M282 222.4167 C282 222.4167 279.26 225.5949 277 226.4167 C274.8992 227.1806 273.1288 227.3924 271 226.4167 C262.8248 222.6697 261.322 218.5733 253 215.4167 C248.8714 213.8506 245.6759 213.7993 242 215.4167 C235.7042 218.1868 228 226.4167 228 226.4167 "/>
<path id="9" d="M301 214.4167 C301 214.4167 298.7854 210.7743 299 210.4167 C299.8277 209.0371 303.3626 205.4559 307 204.4167 C311.8676 203.0259 316.8266 202.5655 320 204.4167 C324.6787 207.1459 327.45 215.5323 331 218.4167 C331.6644 218.9565 335.9256 217.491 336 217.4167 C336 217.4167 334 215.4167 334 215.4167 "/>
<path id="10" d="M303 210.4167 C303 210.4167 305.5362 216.0315 307 216.4167 C310.8666 217.4342 319.982 214.786 322 215.4167 C322.395 215.5401 322.0612 219.9146 323 221.4167 C323.6377 222.4369 327 223.2605 327 223.4167 C327 223.8072 322.9965 228.4172 323 228.4167 C323.0088 228.4154 331.1562 225.4792 334 222.4167 C335.7288 220.5549 336 214.4167 336 214.4167 "/>
<path id="11" d="M239 232.4167 C239 232.4167 246.1676 235.0371 253 235.4167 C263.5835 236.0046 275 234.4167 275 234.4167 "/>
<path id="12" d="M309 228.4167 C309 228.4167 307.6623 232.0659 308 233.4167 C308.2666 234.483 309.7808 236.2504 311 236.4167 C317.7949 237.3432 329.2831 236.4963 330 236.4167 C330.0293 236.4134 329 234.4167 329 234.4167 "/>
<path id="13" d="M246 230.4167 C246 230.4167 245.6435 227.676 246 227.4167 C248.3919 225.6771 257 222.4167 257 222.4167 "/>
<path id="14" d="M310 227.4167 C310 227.4167 309.8161 225.5188 310 225.4167 C311.7651 224.436 318.9974 222.4182 319 222.4167 C319.001 222.4161 315 222.4167 315 222.4167 "/>
<path id="15" d="M311 225.4167 C311 225.4167 310.4808 233.6378 311 234.4167 C311.2308 234.7628 316.325 234.6417 317 234.4167 C317.075 234.3917 317.3531 232.8706 317 232.4167 C314.8031 229.5921 310.0057 225.4511 310 225.4167 C309.9986 225.4082 315.968 226.3847 316 226.4167 C316.0046 226.4212 313.423 227.5707 313 228.4167 C312.5166 229.3835 313.0681 232.3894 313 232.4167 C312.8212 232.4882 308.0012 230.419 308 230.4167 C307.9995 230.4156 311.3631 230.0345 312 230.4167 C312.4459 230.6842 313 233.4167 313 233.4167 "/>
<path id="16" d="M250 229.4167 C250 229.4167 247.9914 224.421 248 224.4167 C248.1203 224.3565 255.9534 226.3236 256 226.4167 C256.0116 226.44 251.6686 229.2465 251 230.4167 C250.7632 230.8311 252.02 233.4167 252 233.4167 C251.82 233.4167 244.7651 231.3973 243 230.4167 C242.8161 230.3145 243 228.4167 243 228.4167 "/>
<path id="17" d="M270 249.4167 C270 249.4167 262.1321 241.3197 256 239.4167 C250.7333 237.7822 245.6547 238.1824 241 240.4167 C236.4054 242.6221 233.8813 245.8756 231 251.4167 C228.2325 256.7388 228 259.1139 228 265.4167 C228 270.8191 228.4744 273.9891 231 277.4167 C233.6846 281.06 237.2928 282.9302 242 284.4167 C244.7381 285.2813 249.9707 283.4655 250 283.4167 C250.0051 283.4083 245 279.4167 245 279.4167 "/>
<path id="18" d="M304 256.4167 C304 256.4167 306.4661 249.5579 310 246.4167 C314.1141 242.7597 316.3061 241.5554 322 240.4167 C329.7643 238.8638 333.1099 238.4163 340 240.4167 C345.9764 242.1517 351.66 245.8434 353 249.4167 C355.185 255.2433 354.8414 264.9854 352 272.4167 C350.1058 277.3708 345.328 281.5261 340 283.4167 C333.6344 285.6754 321 283.4167 321 283.4167 "/>
<path id="19" d="M279 269.4167 C279 269.4167 262.4514 271.8361 251 276.4167 C247.3564 277.8741 246.3537 279.5399 244 283.4167 C238.3361 292.7455 237.6416 294.5843 234 304.4167 C233.1155 306.8047 233.6538 309.8974 234 310.4167 C234.1538 310.6474 238 310.4167 238 310.4167 "/>
<path id="20" d="M299 269.4167 C299 269.4167 302.0141 268.672 304 269.4167 C312.8868 272.7492 316.6012 272.9658 323 278.4167 C327.7813 282.4897 329.7253 286.0434 331 292.4167 C332.6995 300.9144 330 313.4167 330 313.4167 "/>
<path id="21" d="M235 301.4167 C235 301.4167 236.9019 311.4718 235 316.4167 C233.1176 321.3108 224.9993 327.4134 225 327.4167 C225.0003 327.4181 230.8053 322.1742 236 321.4167 C252.2495 319.047 258.705 323.3948 273 320.4167 C277.9464 319.3862 280.5896 315.8765 284 311.4167 C285.8665 308.9758 286 303.4167 286 303.4167 "/>
<path id="22" d="M287 305.4167 C287 305.4167 286.3715 314.2291 288 318.4167 C288.892 320.7103 291.548 323.1987 294 323.4167 C308.8052 324.7327 320.4016 320.985 333 322.4167 C334.8408 322.6259 337.9821 328.3091 338 328.4167 C338.0017 328.4272 334.1751 328.7451 334 328.4167 C332.5934 325.7793 330 313.4167 330 313.4167 "/>
<path id="23" d="M247 239.4167 C247 239.4167 239.6018 233.3999 233 232.4167 C218.5172 230.2597 215.5413 231.0352 200 232.4167 C194.1812 232.9339 193.6791 233.9178 188 236.4167 C181.3633 239.3368 180.5192 239.5207 175 243.4167 C172.6837 245.0517 172.3915 245.7 171 248.4167 C162.1746 265.6472 154.0001 284.4165 154 284.4167 C154 284.4167 156.0696 278.2921 159 276.4167 C166.2739 271.7614 178.9874 268.4223 179 268.4167 C179.0011 268.4162 177.0386 268.2982 177 268.4167 C174.2213 276.9511 169.4081 290.0061 165 311.4167 C162.5365 323.3822 163 336.4166 163 336.4167 C163 336.4167 162.521 333.8657 163 333.4167 C167.641 329.0657 172.0665 328.1191 179 321.4167 C186.6453 314.0262 192.9952 304.4084 193 304.4167 C193.0137 304.4401 187.299 319.1274 186 333.4167 C183.8961 356.5601 184.0809 364.1446 186 381.4167 C186.2665 383.8156 191.9713 387.4586 192 387.4167 C192.4509 386.7577 194.754 374.0932 199 362.4167 C200.5134 358.2547 203.9999 354.4166 204 354.4167 C204.0017 354.4178 202 359.6333 202 364.4167 C202 373.9835 201.4155 375.2094 204 384.4167 C209.1447 402.7447 212.1977 403.2363 218 421.4167 C219.4439 425.9408 219 431.4166 219 431.4167 C219 431.4167 218.3088 428.4919 219 427.4167 C221.7278 423.1735 224.4774 422.7005 228 417.4167 C231.1556 412.6832 231.9741 411.8392 233 406.4167 C235.2653 394.4429 234.968 380.3858 235 380.4167 C235.1122 380.5251 250.789 408.2374 263 435.4167 C265.7732 441.5893 265.9996 449.4159 266 449.4167 C266.0002 449.4171 264.9127 444.6785 266 441.4167 C268.99 432.4467 271.635 431.8998 275 422.4167 C276.927 416.9859 276.9157 410.3721 277 410.4167 C277.927 410.9074 295.7956 432.7581 309 440.4167 C313.6563 443.1173 318.5421 441.2409 327 439.4167 C343.324 435.8958 344.4962 435.6182 360 429.4167 C368.7994 425.8969 371.4167 423.7592 377 419.4167 C377.9264 418.6962 377.9389 417.3707 378 415.4167 C378.4241 401.8448 379.8604 399.1989 378 387.4167 C377.2726 382.8101 371.9907 377.4129 372 377.4167 C372.033 377.4302 399.8196 396.4413 400 396.4167 C400.0213 396.4138 397.9172 384.7691 394 374.4167 C391.0905 366.7273 386 359.4167 386 359.4167 "/>
<path id="24" d="M341 240.4167 C341 240.4167 347.3872 236.1908 353 235.4167 C360.4583 234.3879 362.8806 234.1791 370 236.4167 C378.6937 239.149 381.3258 240.0762 388 246.4167 C399.7951 257.622 401.4193 260.6875 410 274.4167 C412.8517 278.9793 413.0498 286.317 413 286.4167 C412.9976 286.4214 409.4814 283.3249 406 282.4167 C398.849 280.5512 391.9788 279.6471 390 280.4167 C389.285 280.6947 386.9775 287.4447 388 289.4167 C391.3766 295.9287 395.5301 299.2493 404 307.4167 C409.2506 312.4798 415.7716 316.1629 416 316.4167 C416.0196 316.4385 412.9817 317.3882 413 317.4167 C413.4085 318.052 421.0274 325.1199 425 330.4167 C425.5417 331.139 425.0235 333.4261 425 333.4167 C424.7491 333.3163 420.2415 328.3822 415 326.4167 C397.5111 319.8583 379.5049 316.0099 377 315.4167 C376.9708 315.4098 376.6241 316.8527 377 317.4167 C382.3259 325.4056 383.2875 327.7968 391 336.4167 C400.0258 346.5044 401.9421 345.6342 411 355.4167 C414.0491 358.7097 414.5807 359.7265 416 363.4167 C416.7151 365.2761 416.4331 367.5504 416 368.4167 C415.7834 368.8498 413.1753 369.592 413 369.4167 C411.7728 368.1894 410.403 361.3929 408 360.4167 C400.0538 357.1885 381 356.4167 381 356.4167 "/>
<path id="25" d="M206 209.4167 C206 209.4167 203.2829 210.4736 203 211.4167 C201.1562 217.5628 200 229.4167 200 229.4167 "/>
<path id="26" d="M362 209.4167 C362 209.4167 363.9754 209.3306 364 209.4167 C364.6268 211.6106 366.248 216.9697 366 223.4167 C365.7842 229.0266 363 235.4167 363 235.4167 "/>
<path id="27" d="M55 71.4167 C55 71.4167 58.9747 74.0244 60 76.4167 C61.3534 79.5745 61 85.4167 61 85.4167 "/>
<path id="28" d="M77 65.4167 L77 79.4167 "/>
<path id="29" d="M37 100.4167 L57 101.4167 "/>
<path id="30" d="M44 124.4167 L64 121.4167 "/>
<path id="31" d="M76 147.4167 L59 146.4167 "/>
<path id="32" d="M85 133.4167 C85 133.4167 89.6688 134.8953 91 136.4167 C91.948 137.5001 92 141.4167 92 141.4167 "/>
<path id="33" d="M242 79.4167 C242 79.4167 243.2168 85.2879 242 88.4167 C240.4152 92.4919 235.0033 97.4134 235 97.4167 C234.9992 97.4175 235.5417 94.5833 236 94.4167 C238.2717 93.5906 245.99 93.3832 246 93.4167 C246.0446 93.5655 241.1941 99.4016 239 104.4167 C238.2199 106.1998 238.9755 109.4142 239 109.4167 C239.4695 109.4636 249 105.4167 249 105.4167 C249 105.4167 246.3528 105.7552 246 106.4167 C243.7385 110.657 243.2937 116.9761 241 120.4167 C240.4266 121.2768 236.7189 120.6977 236 121.4167 C235.2811 122.1356 234.9997 126.4164 235 126.4167 C235.0002 126.4168 235.8231 123.0892 237 122.4167 C240.923 120.175 249 118.4167 249 118.4167 "/>
<path id="34" d="M243 85.4167 C243 85.4167 259.9999 87.4167 260 87.4167 C260 87.4167 254.9035 86.7822 253 87.4167 C252.1842 87.6886 250.9633 90.4031 251 90.4167 C251.9227 90.7566 263.3893 92.1704 272 94.4167 C272.9851 94.6736 274.018 96.4141 274 96.4167 C273.8319 96.4407 258.0018 96.4156 258 96.4167 C257.999 96.4173 264.4716 97.4759 269 99.4167 C270.5797 100.0937 272.0176 102.4101 272 102.4167 C271.8966 102.4555 261.0151 102.4184 261 102.4167 C260.9974 102.4164 262.6963 101.2479 263 101.4167 C267.6493 103.9996 278.9958 112.3979 279 112.4167 C279.0015 112.4233 271.7854 110.7251 265 110.4167 C261.1696 110.2426 260.3355 110.0825 257 111.4167 C251.1232 113.7674 248.8679 117.208 245 118.4167 C244.0799 118.7042 241 116.4167 241 116.4167 "/>
<path id="35" d="M256 112.4167 C256 112.4167 253 110.4159 253 110.4167 C253 110.4183 255.6653 112.6316 256 114.4167 C256.8803 119.1116 256 126.4167 256 126.4167 "/>
</g>
</g>
</svg>
