<?xml version="1.0" encoding="utf-8"?>
<!DOCTYPE svg PUBLIC "-//W3C//DTD SVG 1.1//EN" "http://www.w3.org/Graphics/SVG/1.1/DTD/svg11.dtd">
<svg viewBox="0 0 800 800" preserveAspectRatio="xMinYMin meet" xmlns="http://www.w3.org/2000/svg" version="1.1">
<g fill="none" stroke="black" stroke-linecap="round" stroke-linejoin="round" stroke-width="0.93126">
<g transform="translate(87.52,113.2915) scale(3.2214) translate(-141,-171.1333)">
<path id="0" d="M141 274.1333 C141 274.1333 144.4439 261.1009 146 248.1333 C147.411 236.3747 145.0823 235.3657 147 224.1333 C148.4301 215.7572 148.5831 212.4337 153 207.1333 C158.7889 200.1867 163.9306 201.3381 172 194.1333 C177.1975 189.4927 176.0109 185.0217 181 182.1333 C191.8837 175.8322 195.6913 175.7105 210 172.1333 C216.9272 170.4015 217.5575 171.0072 225 171.1333 C246.873 171.5041 249.6598 169.0921 269 173.1333 C280.1063 175.4541 283.3309 179.1317 292 185.1333 C293.9809 186.5047 292.95 188.897 295 191.1333 C303.2977 200.1853 307.2846 199.5399 314 209.1333 C320.0718 217.8073 319.6848 220.0036 323 231.1333 C326.5582 243.0786 324.3026 244.7331 328 256.1333 C329.9819 262.2443 335 268.1333 335 268.1333 "/>
<path id="1" d="M143 276.1333 C143 276.1333 150.4005 271.7957 158 270.1333 C181.643 264.9614 182.4501 265.0347 207 262.1333 C237.2741 258.5555 237.901 258.2212 268 257.1333 C278.7878 256.7434 279.2518 259.1333 290 259.1333 C297.8168 259.1333 300.3577 256.596 306 257.1333 C307.9204 257.3162 308.7753 260.639 311 261.1333 C315.9112 262.2247 320.0173 259.4017 324 261.1333 C328.3956 263.0445 334 271.1333 334 271.1333 "/>
<path id="2" d="M224 264.1333 C224 264.1333 223.7855 281.5872 223 288.1333 C222.9596 288.4699 220.9883 288.9301 221 289.1333 C221.6796 300.9138 224.7846 315.8253 226 340.1333 C226.2111 344.3546 224 349.1333 224 349.1333 "/>
<path id="3" d="M224 348.1333 C224 348.1333 236.5361 349.9722 248 349.1333 C256.2854 348.5271 265 345.1333 265 345.1333 "/>
<path id="4" d="M265 345.1333 C265 345.1333 266.0244 330.4748 265 316.1333 C263.0421 288.7221 259 261.1333 259 261.1333 "/>
<path id="5" d="M142 277.1333 C142 277.1333 164.1454 282.1333 185 282.1333 C203.4296 282.1333 223 277.1333 223 277.1333 "/>
<path id="6" d="M260 278.1333 C260 278.1333 276.1103 278.89 292 278.1333 C307.464 277.3969 308.2974 277.6435 323 275.1333 C327.9843 274.2824 333 271.1333 333 271.1333 "/>
<path id="7" d="M266 261.1333 L266 275.1333 "/>
<path id="8" d="M274 268.1333 L275 279.1333 "/>
<path id="9" d="M282 270.1333 L305 274.1333 "/>
<path id="10" d="M303 269.1333 L313 272.1333 "/>
<path id="11" d="M311 266.1333 L321 270.1333 "/>
<path id="12" d="M220 271.1333 C220 271.1333 218.9931 274.5816 218 275.1333 C216.2229 276.1206 211 276.1333 211 276.1333 "/>
<path id="13" d="M199 270.1333 L185 275.1333 "/>
<path id="14" d="M173 272.1333 L161 276.1333 "/>
<path id="15" d="M156 274.1333 L153 276.1333 "/>
</g>
</g>
</svg>
