<?xml version="1.0" encoding="utf-8"?>
<!DOCTYPE svg PUBLIC "-//W3C//DTD SVG 1.1//EN" "http://www.w3.org/Graphics/SVG/1.1/DTD/svg11.dtd">
<svg viewBox="0 0 800 800" preserveAspectRatio="xMinYMin meet" xmlns="http://www.w3.org/2000/svg" version="1.1">
<g fill="none" stroke="black" stroke-linecap="round" stroke-linejoin="round" stroke-width="1.3441">
<g transform="translate(87.52,94.216) scale(2.232) translate(-170,-57)">
<path id="0" d="M172 102 C172 102 172.9084 97.7543 175 96 C186.6594 86.2211 188.5196 83.0139 203 76 C218.8792 68.3085 220.87 69.7843 239 65 C256.761 60.3131 257.3051 58.0678 275 57 C313.7725 54.6603 318.1177 52.2199 355 58 C381.2891 62.1199 383.9912 66.3521 409 78 C419.0804 82.695 419.8735 84.0873 428 92 C438.3089 102.0376 447 115 447 115 "/>
<path id="1" d="M172 103 L170 107 "/>
<path id="2" d="M170 109 L170 116 "/>
<path id="3" d="M171 118 C171 118 220.0843 140.3282 268 152 C295.2954 158.6489 297.5339 154.9382 327 156 C352.9068 156.9336 354.7875 159.5682 379 156 C399.9825 152.9078 402.7686 151.1976 422 142 C435.5781 135.5061 438.9651 131.031 448 123 C449.1469 121.9805 449.3895 119.0386 449 118 C448.6211 116.9895 445 115 445 115 "/>
<path id="4" d="M289 159 C289 159 290.6988 171.9051 288 183 C277.6111 225.7099 270.5626 227.5165 262 270 C258.1012 289.3441 260.2093 293.7351 262 312 C262.4046 316.1271 263.9292 318.6271 267 321 C272.9547 325.6014 275.7553 327.6484 284 329 C303.9585 332.2719 309.829 332.0483 328 331 C331.432 330.802 332.8037 329.0187 336 326 C341.3597 320.9381 344.701 319.4321 346 314 C349.0905 301.0762 348.9816 296.2127 347 280 C343.6387 252.4985 341.8372 251.6744 335 224 C331.3795 209.3456 327.9044 209.1775 326 195 C323.6044 177.166 326.2493 161.7369 326 157 C325.9993 156.9869 324 157 324 157 "/>
<path id="5" d="M171 117 C171 117 174.2977 125.7066 179 130 C184.2785 134.8195 188.0052 133.0043 194 138 C202.07 144.725 200.6371 147.9489 209 155 C225.5133 168.923 226.5374 170.9295 245 181 C258.0442 188.115 260.1736 187.2072 275 191 C281.0365 192.5442 288 192 288 192 "/>
<path id="6" d="M327 194 C327 194 338.001 194.8517 348 193 C364.3619 189.97 365.3761 189.9738 381 184 C398.7928 177.1969 399.1594 176.3225 416 167 C426.902 160.9649 427.4469 160.506 437 153 C440.9662 149.8837 440.9506 149.2222 444 145 C447.3478 140.3645 448.7261 139.6711 450 135 C451.3138 130.1829 450 123 450 123 "/>
<path id="7" d="M208 133 L192 134 "/>
<path id="8" d="M226 140 L202 141 "/>
<path id="9" d="M237 147 L203 149 "/>
<path id="10" d="M256 150 C256 150 248.0029 152.8833 240 154 C226.8155 155.8397 213 156 213 156 "/>
<path id="11" d="M267 155 C267 155 252.214 160.4156 238 163 C230.9991 164.2729 223 163 223 163 "/>
<path id="12" d="M280 157 C280 157 267.6335 163.9573 255 168 C243.217 171.7706 230 173 230 173 "/>
<path id="13" d="M291 160 C291 160 285.4989 167.3543 279 171 C266.2203 178.1691 250 183 250 183 "/>
<path id="14" d="M286 159 C286 159 276.8068 166.4838 268 169 C257.6248 171.9643 244 171 244 171 "/>
<path id="15" d="M239 179 C239 179 244.9154 174.3402 251 172 C257.2758 169.5862 265 169 265 169 "/>
<path id="16" d="M289 176 C289 176 280.1073 180.5325 272 183 C269.4572 183.7739 266 183 266 183 "/>
<path id="17" d="M245 181 C245 181 254.9689 173.0155 265 168 C270.1102 165.4449 277 165 277 165 "/>
<path id="18" d="M263 188 L268 184 "/>
<path id="19" d="M341 159 C341 159 336.8233 158.7648 334 160 C329.5871 161.9306 325 166 325 166 "/>
<path id="20" d="M355 161 C355 161 347.586 161.5863 343 164 C339.3916 165.8992 339.5084 169.1426 336 171 C332.376 172.9186 326 173 326 173 "/>
<path id="21" d="M368 162 C368 162 354.4569 171.2328 341 177 C334.4441 179.8097 326 180 326 180 "/>
<path id="22" d="M393 156 C393 156 390.011 155.2586 389 156 C378.3503 163.8098 376.5701 168.6706 363 178 C353.2452 184.7064 341 189 341 189 "/>
<path id="23" d="M406 155 C406 155 394.4785 166.8694 382 176 C374.5237 181.4704 365 185 365 185 "/>
<path id="24" d="M427 143 C427 143 421.7648 152.5587 415 160 C407.1555 168.629 397 176 397 176 "/>
<path id="25" d="M439 136 L425 161 "/>
<path id="26" d="M445 131 L445 148 "/>
<path id="27" d="M336 190 L356 189 "/>
<path id="28" d="M332 187 C332 187 337.8962 186.4623 342 184 C354.4505 176.5297 355.9024 175.1842 367 166 C369.4938 163.9361 368.6974 161.7713 371 160 C374.2278 157.5171 380 156 380 156 "/>
<path id="29" d="M406 155 L410 150 "/>
<path id="30" d="M419 147 C419 147 410.2787 160.7213 400 171 C393.5459 177.4541 384 182 384 182 "/>
<path id="31" d="M396 153 C396 153 393.1335 153.6237 392 155 C387.0254 161.0406 387.6806 163.803 382 170 C377.2988 175.1286 374.8276 174.1724 370 179 C367.4713 181.5287 367.9018 184.8297 366 186 C363.7989 187.3545 357 187 357 187 "/>
<path id="32" d="M329 181 L352 179 "/>
<path id="33" d="M331 186 L343 187 "/>
<path id="34" d="M180 128 L185 127 "/>
<path id="35" d="M240 92 L210 102 "/>
<path id="36" d="M241 98 C241 98 235.945 97.685 232 99 C226.0825 100.9725 225.8826 103.3529 220 105 C214.2894 106.599 207 106 207 106 "/>
<path id="37" d="M320 76 C320 76 310.6798 75.0356 302 76 C293.1059 76.9882 291.393 77.5357 284 80 C282.4704 80.5099 281 83 281 83 "/>
<path id="38" d="M289 83 C289 83 305.0444 78.9595 321 77 C333.2446 75.4963 346 76 346 76 "/>
<path id="39" d="M389 90 L355 90 "/>
<path id="40" d="M377 93 L351 94 "/>
<path id="41" d="M259 124 C259 124 262.0572 121.4527 265 121 C280.2395 118.6555 298 118 298 118 "/>
<path id="42" d="M272 121 L304 121 "/>
<path id="43" d="M396 126 L424 126 "/>
<path id="44" d="M398 128 L424 128 "/>
<path id="45" d="M304 229 L296 233 "/>
<path id="46" d="M304 231 L289 242 "/>
<path id="47" d="M316 176 L309 179 "/>
<path id="48" d="M307 172 L303 176 "/>
<path id="49" d="M319 282 L308 287 "/>
<path id="50" d="M320 283 L311 288 "/>
<path id="51" d="M285 278 L272 288 "/>
<path id="52" d="M282 282 L275 288 "/>
<path id="53" d="M314 310 L295 317 "/>
<path id="54" d="M314 317 L292 323 "/>
</g>
</g>
</svg>
