<?xml version="1.0" encoding="utf-8"?>
<!DOCTYPE svg PUBLIC "-//W3C//DTD SVG 1.1//EN" "http://www.w3.org/Graphics/SVG/1.1/DTD/svg11.dtd">
<svg viewBox="0 0 800 800" preserveAspectRatio="xMinYMin meet" xmlns="http://www.w3.org/2000/svg" version="1.1">
<g fill="none" stroke="black" stroke-linecap="round" stroke-linejoin="round" stroke-width="1.0177">
<g transform="translate(111.1034,87.52) scale(2.9479) translate(-205,-121)">
<path id="0" d="M294 223 C294 223 262.7637 223.5078 234 220 C223.1105 218.672 219.4259 217.6092 212 213 C208.1024 210.5808 206.6995 207.0986 205 202 C203.7253 198.176 204.1702 195.8722 205 192 C205.3852 190.2022 206.1856 189.2312 208 188 C219.17 180.4204 221.3251 181.3977 233 173 C249.5394 161.1032 249.3793 160.2776 265 147 C269.2733 143.3677 270.0901 143.0738 273 139 C274.5762 136.7933 273.3637 134.4726 275 133 C281.3682 127.2686 288.1997 121.2743 293 121 C297.2205 120.7588 301.204 126.9844 310 131 C323.8768 137.3351 325.7613 134.9536 339 142 C355.9817 151.0387 356.1717 152.371 372 164 C380.4628 170.2176 381.0893 170.3744 388 178 C395.2214 185.9684 398.0289 187.7723 401 196 C403.3565 202.5258 403.1424 208.5465 401 214 C399.2954 218.339 394.8961 222.987 390 224 C372.2372 227.6751 365.5438 223.4951 343 226 C335.0964 226.8782 328.3493 229.1688 327 231 C325.9933 232.3662 326.3674 239.8994 329 245 C333.2426 253.2201 337.1897 252.984 343 262 C351.4103 275.0504 353.6945 276.5454 358 290 C360.9298 299.1557 360.8949 304.1835 359 312 C357.852 316.7356 353.3735 321.0156 350 323 C348.3838 323.9507 344.9481 321.049 342 322 C331.8054 325.2886 329.435 329.9309 319 333 C314.7418 334.2524 311.4212 333.0527 308 332 C307.1156 331.7279 307.1206 329.5603 306 329 C301.5175 326.7588 297.5987 328.1835 294 325 C286.8649 318.6882 282.8963 314.8821 280 306 C276.6414 295.7004 276.4316 290.8786 279 279 C283.8594 256.5253 289.0615 254.4481 296 232 C297.0623 228.5633 296.573 225.2892 296 224 C295.801 223.5524 292 223 292 223 "/>
<path id="1" d="M296 222 C296 222 318.6125 221.4544 336 223 C338.2843 223.203 341 226 341 226 "/>
<path id="2" d="M242 196 L242 195 "/>
<path id="3" d="M258 209 L258 208 "/>
<path id="4" d="M307 189 L307 190 "/>
<path id="5" d="M290 205 L295 206 "/>
<path id="6" d="M347 179 L347 181 "/>
<path id="7" d="M355 207 L356 208 "/>
<path id="8" d="M320 203 L321 202 "/>
<path id="9" d="M272 180 L276 177 "/>
<path id="10" d="M309 146 L307 146 "/>
<path id="11" d="M306 147 L307 150 "/>
<path id="12" d="M318 245 L318 251 "/>
<path id="13" d="M317 300 L316 300 "/>
<path id="14" d="M304 282 L305 279 "/>
<path id="15" d="M316 260 L318 269 "/>
<path id="16" d="M330 297 L333 297 "/>
<path id="17" d="M341 302 C341 302 339.4663 307.0669 338 308 C336.1427 309.1819 330 309 330 309 "/>
<path id="18" d="M329 309 L326 312 "/>
<path id="19" d="M323 312 L319 313 "/>
<path id="20" d="M296 314 L295 311 "/>
</g>
</g>
</svg>
