<?xml version="1.0" encoding="utf-8"?>
<!DOCTYPE svg PUBLIC "-//W3C//DTD SVG 1.1//EN" "http://www.w3.org/Graphics/SVG/1.1/DTD/svg11.dtd">
<svg viewBox="0 0 800 800" preserveAspectRatio="xMinYMin meet" xmlns="http://www.w3.org/2000/svg" version="1.1">
<g fill="none" stroke="black" stroke-linecap="round" stroke-linejoin="round" stroke-width="1.0609">
<g transform="translate(87.52,153.975) scale(2.8279) translate(-167,-92.1333)">
<path id="0" d="M254 92.1333 C254 92.1333 244.7223 91.2539 240 94.1333 C227.271 101.8949 223.932 104.1831 213 117.1333 C192.4506 141.4765 191.0195 143.9699 175 171.1333 C168.9793 181.3424 166.6007 194.7801 167 195.1333 C167.9994 196.0174 184.26 195.7838 201 194.1333 C219.4548 192.3138 219.6272 188.8725 238 188.1333 C305.6078 185.4135 357.6296 187.5137 375 187.1333 C375.0056 187.1332 374.9595 185.1401 375 185.1333 C376.4595 184.8901 383.931 185.6055 387 185.1333 C387.3344 185.0819 388.1277 183.2959 388 183.1333 C385.7456 180.2641 380.4318 177.6846 376 171.1333 C369.5143 161.5458 371.7973 158.423 365 149.1333 C357.5572 138.9615 356.5422 136.5387 346 130.1333 C319.2097 113.8557 316.0737 114.5873 286 101.1333 C278.4843 97.771 277.9957 97.5685 270 96.1333 C258.9468 94.1494 247 94.1333 247 94.1333 "/>
<path id="1" d="M255 189.1333 C255 189.1333 253.4437 214.828 255 216.1333 C257.0729 217.8719 270.5613 215.9053 286 215.1333 C290.4999 214.9083 295 214.1333 295 214.1333 C295 214.1333 292.5076 214.5563 292 214.1333 C290.7873 213.1228 289.2431 211.4023 289 209.1333 C287.9493 199.3264 289 186.1333 289 186.1333 "/>
<path id="2" d="M261 217.1333 L265 256.1333 "/>
<path id="3" d="M286 216.1333 C286 216.1333 289.6035 216.3602 290 217.1333 C296.0035 228.8402 306 255.1333 306 255.1333 "/>
<path id="4" d="M266 256.1333 C266 256.1333 271.8407 264.7964 276 266.1333 C281.5644 267.9219 286.5593 267.1859 294 265.1333 C299.2646 263.681 305 258.1333 305 258.1333 "/>
<path id="5" d="M206 127.1333 C206 127.1333 209.3388 128.0313 210 129.1333 C211.3826 131.4377 211.8397 133.2856 212 137.1333 C212.3165 144.7297 213.1491 149.8381 211 153.1333 C208.9183 156.3253 203.3715 158.663 197 160.1333 C192.1978 161.2415 185 159.1333 185 159.1333 "/>
<path id="6" d="M173 177.1333 C173 177.1333 184.1759 175.0351 187 176.1333 C188.4754 176.7071 190.05 180.3334 191 184.1333 C191.8444 187.5111 191.7624 189.0839 191 192.1333 C190.5474 193.9439 188 196.1333 188 196.1333 "/>
<path id="7" d="M247 125.1333 C247 125.1333 241.9219 127.9823 241 130.1333 C239.9042 132.6902 240.2286 136.0477 241 139.1333 C241.3214 140.419 242.3315 141.1066 244 142.1333 C248.5022 144.9039 249.2569 145.8158 254 147.1333 C257.3318 148.0588 260.9095 147.8967 262 147.1333 C262.9406 146.4749 264 140.1333 264 140.1333 "/>
<path id="8" d="M265 139.1333 C265 139.1333 264.4598 134.5663 263 132.1333 C262.0387 130.5311 261.0187 129.8062 259 129.1333 C254.2896 127.5632 248 127.1333 248 127.1333 "/>
<path id="9" d="M230 103.1333 C230 103.1333 232.4116 103.3768 233 104.1333 C234.9615 106.6552 234.8799 110.5024 237 112.1333 C239.2005 113.826 244.0692 114.9284 246 114.1333 C248.7642 112.9951 252.4456 108.6863 254 105.1333 C254.8161 103.268 253 98.1333 253 98.1333 "/>
<path id="10" d="M254 97.1333 L253 95.1333 "/>
<path id="11" d="M292 104.1333 C292 104.1333 284.3898 107.8482 283 111.1333 C280.4478 117.1658 279.2556 126.3761 281 130.1333 C282.541 133.4524 289.0231 136.7182 296 139.1333 C300.2365 140.5998 303.078 140.506 307 139.1333 C311.0824 137.7045 312.8041 135.8619 316 132.1333 C318.0789 129.708 318.4067 128.4951 319 125.1333 C319.7879 120.6685 319 115.1333 319 115.1333 "/>
<path id="12" d="M292 157.1333 C292 157.1333 286.5356 158.1387 286 159.1333 C284.8186 161.3274 284.3016 166.6412 285 170.1333 C285.3104 171.6854 287.2515 173.5505 289 174.1333 C291.6228 175.0076 294.538 175.1885 297 174.1333 C299.6379 173.0028 303.0996 168.9301 303 168.1333 C302.7913 166.464 298.3085 160.4965 295 158.1333 C293.6891 157.197 289 158.1333 289 158.1333 "/>
<path id="13" d="M341 131.1333 C341 131.1333 337.3263 130.9965 336 132.1333 C331.8269 135.7103 328.4832 138.1892 327 143.1333 C324.943 149.9902 325.3895 155.1544 327 162.1333 C327.7107 165.2131 329.652 166.8426 333 169.1333 C338.3078 172.765 341.6328 174.9435 346 175.1333 C349.2217 175.2734 354.7688 172.5958 356 170.1333 C358.7702 164.5929 359.5497 153.5311 359 149.1333 C358.9001 148.3337 354.9143 148.1673 353 146.1333 C347.817 140.6264 347.513 136.9687 343 132.1333 C342.0845 131.1525 339 131.1333 339 131.1333 "/>
<path id="14" d="M231 181.1333 C231 181.1333 234.2792 170.9077 236 170.1333 C238.4385 169.036 245.1879 170.5189 251 172.1333 C252.4323 172.5312 253.8492 174.0021 254 175.1333 C254.5264 179.0817 254.0953 186.1163 253 187.1333 C251.7436 188.3 244.6319 189.2362 240 188.1333 C236.5779 187.3185 232 182.1333 232 182.1333 "/>
</g>
</g>
</svg>
