<?xml version="1.0" encoding="utf-8"?>
<!DOCTYPE svg PUBLIC "-//W3C//DTD SVG 1.1//EN" "http://www.w3.org/Graphics/SVG/1.1/DTD/svg11.dtd">
<svg viewBox="0 0 800 800" preserveAspectRatio="xMinYMin meet" xmlns="http://www.w3.org/2000/svg" version="1.1">
<g fill="none" stroke="black" stroke-linecap="round" stroke-linejoin="round" stroke-width="1.0033">
<g transform="translate(87.52,148.8199) scale(2.9902) translate(-152,-93)">
<path id="0" d="M168 195 C168 195 163.5717 195.9823 162 195 C157.7433 192.3396 153.0162 189.2681 152 185 C149.3735 173.9685 148.9115 166.542 152 153 C154.6991 141.1656 157.3091 138.8733 165 128 C171.1439 119.3138 172.5834 118.9136 181 112 C186.1263 107.7891 186.7859 107.2094 193 105 C208.5257 99.4798 209.5337 98.5662 226 96 C247.2838 92.683 248.0654 93.4821 270 93 C293.3841 92.4861 296.3303 91.7854 317 94 C321.1841 94.4483 322.2091 95.9312 326 99 C332.309 104.1073 332.9273 104.5069 338 111 C345.1567 120.1606 345.7125 120.6768 351 131 C355.9779 140.7187 356.7336 141.5745 359 152 C361.5351 163.6614 362.5524 167.1684 361 177 C360.103 182.6809 357.5622 184.3643 353 190 C349.4194 194.4231 348.7673 195.1829 344 198 C338.4592 201.2741 337.142 202.2555 331 203 C322.0264 204.0877 319.2458 204.8543 311 202 C295.6462 196.6852 295.0667 192.0292 279 185 C271.7687 181.8363 270.8722 181.6845 263 181 C248.5538 179.7438 247.3476 179.1011 233 181 C214.2567 183.4807 212.902 184.1412 195 190 C186.2796 192.854 186.0236 196.6706 178 199 C172.2726 200.6628 167.6012 199.4802 164 199 C163.6742 198.9566 163 197 163 197 "/>
<path id="1" d="M215 184 C215 184 216.7473 203.0274 215 221 C213.315 238.3317 208 256 208 256 "/>
<path id="2" d="M279 186 C279 186 281.1844 216.1514 279 242 C278.3951 249.1578 276.0509 255.3438 273 257 C266.2757 260.6504 258.4316 260.1119 244 261 C226.2357 262.0932 224.1096 261.8055 208 261 C206.1653 260.9083 204 259 204 259 "/>
</g>
</g>
</svg>
