<?xml version="1.0" encoding="utf-8"?>
<!DOCTYPE svg PUBLIC "-//W3C//DTD SVG 1.1//EN" "http://www.w3.org/Graphics/SVG/1.1/DTD/svg11.dtd">
<svg viewBox="0 0 800 800" preserveAspectRatio="xMinYMin meet" xmlns="http://www.w3.org/2000/svg" version="1.1">
<g fill="none" stroke="black" stroke-linecap="round" stroke-linejoin="round" stroke-width="1.3057">
<g transform="translate(162.1935,87.52) scale(2.2976) translate(-161,-11.6667)">
<path id="0" d="M246 138.6667 C246 138.6667 247.885 168.7635 246 197.6667 C244.9332 214.0245 244.818 215.2489 240 230.6667 C235.1129 246.3055 234.8018 249.0927 226 261.6667 C218.7299 272.0525 215.382 273.2988 205 280.6667 C201.3483 283.2582 195 283.6667 195 283.6667 "/>
<path id="1" d="M295 140.6667 C295 140.6667 292.3095 174.7259 295 205.6667 C296.1464 218.8501 297.3956 220.3801 303 232.6667 C309.9871 247.9845 311.2149 249.5074 321 262.6667 C324.8747 267.8775 326.239 268.3061 332 271.6667 C337.6428 274.9583 345 276.6667 345 276.6667 "/>
<path id="2" d="M251 147.6667 C251 147.6667 247.8735 147.684 247 148.6667 C241.6951 154.6347 239.5057 161.1609 235 165.6667 C234.2231 166.4435 231.5347 166.5193 230 165.6667 C224.3044 162.5024 220.9858 161.424 217 155.6667 C208.8831 143.9423 206.3325 140.6631 203 126.6667 C199.4712 111.8457 200.3877 106.8553 202 92.6667 C202.5083 88.1941 204.2652 86.4015 208 82.6667 C215.4696 75.197 216.8187 73.3814 226 68.6667 C233.8613 64.6298 235.6587 64.6604 245 63.6667 C258.3913 62.2421 260.0558 61.5485 273 63.6667 C286.1627 65.8206 290.5865 68.4468 300 72.6667 C301.1505 73.1824 300.6749 75.6949 302 76.6667 C306.8707 80.2385 309.8024 79.4591 315 83.6667 C319.4816 87.2946 319.9125 90.8598 323 93.6667 C323.542 94.1594 325.8089 93.3391 326 93.6667 C329.321 99.3599 334.4743 106.1863 337 117.6667 C339.4855 128.9646 338.5322 131.7152 337 143.6667 C336.1961 149.9371 335.1716 151.9093 332 156.6667 C330.1229 159.4823 328.1511 161.0831 325 161.6667 C317.0486 163.1392 313.0958 163.6293 305 161.6667 C298.9527 160.2007 292 153.6667 292 153.6667 "/>
<path id="3" d="M247 151.6667 C247 151.6667 247.659 162.2407 245 168.6667 C242.593 174.4836 240.3677 176.5189 235 180.6667 C230.5817 184.0808 223 185.6667 223 185.6667 "/>
<path id="4" d="M220 185.6667 C220 185.6667 212.3243 186.8378 206 185.6667 C199.7092 184.5017 197.917 184.2069 193 180.6667 C186.6731 176.1113 186.162 174.6155 181 167.6667 C173.3681 157.393 171.3728 156.8172 167 145.6667 C162.0128 132.9493 161.7662 130.8407 161 116.6667 C159.8271 94.968 158.6081 91.8177 163 71.6667 C166.5058 55.5811 169.6861 54.2552 178 38.6667 C181.4067 32.2792 181.7662 30.6317 187 26.6667 C196.7926 19.2481 199.4065 16.3839 211 13.6667 C228.3467 9.601 231.1851 12.0552 251 11.6667 C256.434 11.5601 257.4949 11.4653 262 12.6667 C263.9193 13.1785 264.179 15.4391 266 15.6667 C284.4697 17.9754 291.456 13.4042 310 18.6667 C324.5156 22.786 327.7327 26.0831 340 36.6667 C351.702 46.7625 353.2444 49.4535 361 62.6667 C365.7598 70.776 365.7668 72.8013 367 82.6667 C369.1469 99.8419 368.2525 100.7419 368 118.6667 C367.7543 136.1143 368.8826 137.2357 366 153.6667 C364.0916 164.5445 363.4512 169.242 358 175.6667 C352.7037 181.9087 347.3938 183.7143 338 186.6667 C331.993 188.5546 329.9276 187.8213 323 186.6667 C315.6875 185.4479 314.6054 184.8121 308 181.6667 C304.8149 180.15 304.8387 179.3161 302 176.6667 C297.3694 172.3448 295.0045 171.8762 293 167.6667 C291.1176 163.7137 292 155.6667 292 155.6667 "/>
<path id="5" d="M180 127.6667 C180 127.6667 181.2399 132.3788 181 132.6667 C180.6545 133.0812 175.5202 134.0568 175 133.6667 C174.2816 133.1279 172.6267 127.2889 173 126.6667 C173.5021 125.8299 181 123.6667 181 123.6667 "/>
<path id="6" d="M195 43.6667 C195 43.6667 199.0571 47.4609 200 50.6667 C201.1131 54.4513 200.5 59.6667 200 60.6667 C199.875 60.9167 195.3898 61.1864 195 60.6667 C193.4408 58.5877 191 48.6667 191 48.6667 "/>
<path id="7" d="M196 83.6667 C196 83.6667 198.2304 89.6711 198 92.6667 C197.8898 94.0994 196.28 96.0267 195 96.6667 C193.72 97.3067 191.4571 97.3952 190 96.6667 C187.8143 95.5738 185.845 93.8636 185 91.6667 C184.0236 89.128 184.2477 85.1712 185 83.6667 C185.4232 82.8204 190 81.6667 190 81.6667 "/>
<path id="8" d="M256 28.6667 C256 28.6667 261.4682 30.144 265 32.6667 C267.7659 34.6423 268.9625 35.9692 270 38.6667 C270.9166 41.0499 270.7792 44.6927 270 45.6667 C268.9537 46.9746 263.6795 49.1145 262 48.6667 C259.9317 48.1151 255.5572 43.4776 255 41.6667 C254.691 40.6623 258 35.6667 258 35.6667 "/>
<path id="9" d="M198 86.6667 L191 81.6667 "/>
<path id="10" d="M318 42.6667 C318 42.6667 326.2336 45.0769 328 46.6667 C328.5845 47.1927 328.7004 50.406 328 51.6667 C327.0506 53.3756 325.26 54.8449 323 55.6667 C320.8992 56.4306 317.2982 56.0926 317 55.6667 C316.2404 54.5815 316 45.6667 316 45.6667 "/>
<path id="11" d="M348 108.6667 C348 108.6667 347.4361 104.6535 348 103.6667 C348.4833 102.8208 350.2995 101.8367 352 101.6667 C354.3889 101.4278 357.4856 102.0665 358 102.6667 C358.5025 103.2529 358.1721 108.5806 358 108.6667 C357.5984 108.8675 350 106.6667 350 106.6667 "/>
<path id="12" d="M347 155.6667 C347 155.6667 344.8538 162.3254 345 162.6667 C345.051 162.7857 348.9691 163.311 350 162.6667 C351.2628 161.8774 352.2237 159.9956 353 157.6667 C353.5175 156.114 353.4834 154.6335 353 153.6667 C352.577 152.8207 350 151.6667 350 151.6667 "/>
</g>
</g>
</svg>
