<?xml version="1.0" encoding="utf-8"?>
<!DOCTYPE svg PUBLIC "-//W3C//DTD SVG 1.1//EN" "http://www.w3.org/Graphics/SVG/1.1/DTD/svg11.dtd">
<svg viewBox="0 0 800 800" preserveAspectRatio="xMinYMin meet" xmlns="http://www.w3.org/2000/svg" version="1.1">
<g fill="none" stroke="black" stroke-linecap="round" stroke-linejoin="round" stroke-width="1.7089">
<g transform="translate(87.52,133.1631) scale(1.7555) translate(-113,-53)">
<path id="0" d="M232 240 C232 240 233.9851 256.3598 232 271 C230.1375 284.7357 230.1559 287.0985 224 299 C216.0739 314.3238 208.8234 315.6633 202 329 C199.8499 333.2025 201.0936 335.882 202 342 C203.0174 348.8675 204.2675 355.3336 206 356 C212.5325 358.5125 234.0539 361.1677 241 357 C249.1576 352.1054 253.8244 338.4276 261 323 C262.4914 319.7935 259.9107 317.9216 261 314 C264.6042 301.0247 268.96 300.2597 271 287 C274.6675 263.1611 273.7489 257.7192 273 236 C272.895 232.9561 269 229 269 229 "/>
<path id="1" d="M230 243 C230 243 239.2727 232.5758 247 230 C254.9688 227.3437 269 230 269 230 "/>
<path id="2" d="M231 260 C231 260 226.6582 256.4141 222 255 C199.5711 248.1912 197.0941 251.0832 175 243 C157.1213 236.459 155.3118 235.2079 140 225 C132.7242 220.1495 131.1784 218.5831 127 211 C118.5666 195.6949 116.1968 192.8972 113 176 C109.6885 158.4963 111.2385 154.6152 113 137 C113.5194 131.8058 114.6965 130.7609 118 126 C131.2698 106.8759 131.5783 105.3904 147 88 C154.4939 79.5494 155.5222 79.3975 165 73 C175.1434 66.1532 175.757 65.0153 187 61 C202.7646 55.3698 204.3891 53.6557 221 53 C278.081 50.7468 280.4548 52.373 339 55 C357.9504 55.8503 359.1751 55.4773 377 60 C391.5458 63.6907 392.5706 64.7688 406 72 C417.9729 78.4469 419.8211 78.6338 429 88 C443.1661 102.4552 443.7577 104.512 455 122 C461.302 131.8031 461.387 132.9031 465 144 C468.1904 153.7992 468.0318 154.5919 469 165 C469.9966 175.7139 469.8689 176.283 469 187 C468.3979 194.4255 468.8951 195.5204 466 202 C458.9054 217.8784 458.1674 219.4752 448 234 C441.1838 243.7375 439.9739 243.9235 431 252 C425.2967 257.1329 424.8853 257.6761 418 261 C396.4954 271.3815 394.6374 276.1578 373 280 C345.2676 284.9244 338.0305 284.6009 311 280 C295.8614 277.4232 293.593 272.6061 279 264 C275.0808 261.6887 272 257 272 257 "/>
</g>
</g>
</svg>
