<?xml version="1.0" encoding="utf-8"?>
<!DOCTYPE svg PUBLIC "-//W3C//DTD SVG 1.1//EN" "http://www.w3.org/Graphics/SVG/1.1/DTD/svg11.dtd">
<svg viewBox="0 0 800 800" preserveAspectRatio="xMinYMin meet" xmlns="http://www.w3.org/2000/svg" version="1.1">
<g fill="none" stroke="black" stroke-linecap="round" stroke-linejoin="round" stroke-width="1.0129">
<g transform="translate(87.52,167.4912) scale(2.9619) translate(-170,-97)">
<path id="0" d="M171 176 C171 176 171.3481 161.6456 176 155 C182.6646 145.4792 188.9876 146.4574 199 136 C210.9755 123.4923 209.5125 119.8254 221 108 C225.3411 103.5313 226.8811 103.2436 233 101 C241.1772 98.0017 242.1105 97.773 251 97 C264.566 95.8203 265.2236 95.9981 279 97 C292.4275 97.9765 293.4068 97.4739 306 101 C317.5542 104.2352 318.5504 104.8155 329 111 C342.4584 118.9652 344.341 119.132 355 130 C368.7774 144.0476 372.4002 147.8003 380 163 C383.2571 169.5142 381.5918 179.0412 381 182 C380.937 182.3148 378.4493 183 376 183 C277.0501 183 217.8959 184.7701 174 182 C172.9665 181.9348 170 170 170 170 "/>
<path id="1" d="M258 185 L254 204 "/>
<path id="2" d="M281 183 C281 183 290.3734 188.1068 298 194 C300.882 196.227 302.1113 198.0005 303 200 C303.2762 200.6215 302.7286 202.2714 302 203 C300.9072 204.0928 299.828 204.9254 298 205 C277.8463 205.8226 253 205 253 205 "/>
<path id="3" d="M257 203 C257 203 254.4688 207.0618 254 211 C252.0793 227.1343 252 245 252 245 "/>
<path id="4" d="M302 205 C302 205 303.2758 210.3677 306 214 C311.789 221.7187 313.9802 220.9737 320 229 C328.7346 240.6461 336.0433 253.9675 336 254 C335.2564 254.5577 311.3763 255.1818 288 253 C274.6042 251.7497 273.9294 248.7958 261 247 C256.8837 246.4283 252.272 248.306 252 248 C251.646 247.6017 253 238 253 238 "/>
</g>
</g>
</svg>
