<?xml version="1.0" encoding="utf-8"?>
<!DOCTYPE svg PUBLIC "-//W3C//DTD SVG 1.1//EN" "http://www.w3.org/Graphics/SVG/1.1/DTD/svg11.dtd">
<svg viewBox="0 0 800 800" preserveAspectRatio="xMinYMin meet" xmlns="http://www.w3.org/2000/svg" version="1.1">
<g fill="none" stroke="black" stroke-linecap="round" stroke-linejoin="round" stroke-width="1.6273">
<g transform="translate(87.52,183.3841) scale(1.8435) translate(-157,-112)">
<path id="0" d="M204 139 C204 139 204.9156 143.0036 204 146 C199.7673 159.8525 199.2088 161.4867 193 175 C191.0388 179.2685 188.973 178.7252 187 183 C180.306 197.5037 182.0531 199.1885 175 214 C167.2059 230.3676 157 246 157 246 "/>
<path id="1" d="M206 142 C206 142 209.2448 149.0863 214 154 C223.7046 164.0281 226.382 162.5805 236 173 C249.947 188.1092 251.3214 188.6769 262 206 C273.2634 224.2718 281 246 281 246 "/>
<path id="2" d="M206 143 C206 143 221.2249 143.0065 236 141 C261.4888 137.5386 261.6928 134.1286 287 132 C314.3818 129.6969 316.601 134.9999 343 132 C358.6209 130.2249 360.7782 127.8346 375 122 C378.7272 120.4709 378.7531 116.764 382 116 C392.6036 113.505 401.3579 115.0917 409 114 C409.3601 113.9486 409.9772 111.9772 410 112 C410.7978 112.7978 416.9668 123.1712 426 131 C446.1995 148.5062 452.207 147.6304 470 164 C474.2975 167.9537 472.3684 171.6922 476 177 C478.2907 180.348 483 183 483 183 "/>
<path id="3" d="M165 246 C165 246 164.0104 248.0069 164 248 C163.7204 247.8136 158.9926 242 159 242 C159.0208 242 166.2884 246.9674 173 248 C184.2436 249.7298 186.5905 249.0696 198 248 C201.323 247.6885 201.7321 245.1167 205 245 C240.4048 243.7355 282 245 282 245 "/>
<path id="4" d="M284 246 C284 246 309.36 242.7809 334 238 C342.5891 236.3335 346.0476 235.2011 351 233 C351.6012 232.7328 351.5581 230.1146 352 230 C358.7208 228.2576 365.6027 229.2233 378 226 C390.0763 222.8602 390.5076 222.0279 402 217 C406.1908 215.1665 406.8476 214.9099 410 212 C412.8641 209.3563 413.0843 205.3725 415 205 C424.3357 203.1847 431.2259 206.081 446 205 C450.8705 204.6436 451.5499 204.225 456 202 C465.0936 197.4532 467.0616 196.6168 474 191 C476.0263 189.3597 475.1225 186.1948 477 185 C483.6337 180.7785 496 177 496 177 "/>
<path id="5" d="M166 248 C166 248 162.8784 266.5542 162 285 C160.8899 308.3112 162 332 162 332 "/>
<path id="6" d="M275 249 L275 335 "/>
<path id="7" d="M473 195 L474 303 "/>
<path id="8" d="M163 332 C163 332 176.6444 342.2557 189 344 C215.3226 347.7161 222.5336 347.056 248 344 C255.3723 343.1153 256.0222 338.2502 264 335 C268.7927 333.0474 275 333 275 333 "/>
<path id="9" d="M276 334 C276 334 294.4607 334.7795 312 334 C316.4281 333.8032 319.4714 332.6794 321 332 C321.1374 331.9389 320.9828 330.0012 321 330 C324.6078 329.7512 335.9495 331.4535 350 330 C364.3512 328.5154 365.3963 328.2323 379 324 C387.1485 321.4649 391.3138 318.7646 395 316 C395.5027 315.623 394.8637 312.0359 395 312 C397.4949 311.3435 405.5992 313.494 414 311 C435.9168 304.4935 438.8412 297.7247 459 293 C466.494 291.2436 478 296 478 296 "/>
<path id="10" d="M188 342 C188 342 185.3474 321.5073 188 304 C190.0603 290.4018 191.8995 286.9809 198 276 C200.4644 271.564 203.503 269.2406 208 268 C214.9996 266.0691 220.0211 266.3895 227 268 C230.0798 268.7107 231.9214 270.7089 234 274 C237.2229 279.1028 237.0516 280.4243 239 287 C241.0032 293.7607 241.4186 294.023 242 301 C243.8837 323.6039 244 347 244 347 "/>
<path id="11" d="M231 320 C231 320 231.9993 322.0007 232 322 C232.0021 321.9979 232 319 232 319 "/>
<path id="12" d="M309 276 C309 276 308.1739 282.9419 309 289 C309.5979 293.3847 310.862 297.5208 312 298 C314.6112 299.0995 320.8095 298.7976 328 297 C335.8542 295.0364 341.2996 292.8692 344 290 C345.2242 288.6993 345.1249 284.3388 344 280 C341.8835 271.8365 337 263 337 263 "/>
<path id="13" d="M309 277 C309 277 317.3767 266.0909 324 263 C328.6138 260.8469 339 263 339 263 "/>
<path id="14" d="M398 252 C398 252 398.683 262.4425 401 272 C402.5887 278.5533 404.2215 282.4311 406 285 C406.2992 285.4322 409.0688 285.6208 410 285 C412.0953 283.6032 412.116 280.9227 415 279 C423.2248 273.5168 431.2259 272.8529 434 269 C435.6729 266.6766 435.1211 259.5148 433 254 C431.0062 248.8161 427.5574 246.0101 424 243 C423.2228 242.3423 421.1638 242.2795 420 243 C412.7121 247.5116 410.3627 251.6493 403 256 C401.5085 256.8814 398 256 398 256 "/>
</g>
</g>
</svg>
