<?xml version="1.0" encoding="utf-8"?>
<!DOCTYPE svg PUBLIC "-//W3C//DTD SVG 1.1//EN" "http://www.w3.org/Graphics/SVG/1.1/DTD/svg11.dtd">
<svg viewBox="0 0 800 800" preserveAspectRatio="xMinYMin meet" xmlns="http://www.w3.org/2000/svg" version="1.1">
<g fill="none" stroke="black" stroke-linecap="round" stroke-linejoin="round" stroke-width="1.7665">
<g transform="translate(96.8604,87.52) scale(1.6983) translate(-104,-16.1333)">
<path id="0" d="M105 202.1333 C105 202.1333 105.1352 239.8379 107 277.1333 C107.6245 289.6231 109.6229 289.6885 110 302.1333 C111.1122 338.8365 105.6491 364.531 110 376.1333 C111.0142 378.8379 125.1654 381.2251 140 382.1333 C173.2184 384.1671 174.2496 383.7278 208 382.1333 C237.4242 380.7432 237.576 377.753 267 376.1333 C291.7968 374.7684 311.6121 378.2885 317 376.1333 C317.8621 375.7885 318.2918 365.7298 317 356.1333 C314.8722 340.3269 312.1142 340.1075 310 324.1333 C307.6714 306.5396 308.2606 306.1163 308 288.1333 C307.2622 237.2225 308 186.1333 308 186.1333 "/>
<path id="1" d="M104 203.1333 C104 203.1333 115.627 203.9575 127 203.1333 C149.9252 201.4721 150.8397 201.4163 173 198.1333 C177.0036 197.5402 177.2695 195.1743 181 195.1333 C219.5349 194.7099 224.1322 199.9148 264 197.1333 C286.5019 195.5634 310 186.1333 310 186.1333 "/>
<path id="2" d="M104 200.1333 C104 200.1333 107.3483 193.1895 112 188.1333 C118.4393 181.1341 120.5958 182.3138 127 175.1333 C136.7244 164.2303 135.2001 162.3113 145 151.1333 C167.0059 126.0329 169.5293 127.5353 191 102.1333 C204.7137 85.9087 204.2619 84.9184 216 67.1333 C220.6223 60.1298 221.5562 59.1593 224 52.1333 C225.0994 48.9725 223.9913 44.1197 224 44.1333 C224.1668 44.3962 255.6673 101.5824 290 156.1333 C300.3095 172.514 304.6157 172.8692 314 187.1333 C315.5359 189.4679 315 194.1333 315 194.1333 "/>
<path id="3" d="M192 384.1333 C192 384.1333 195.0501 368.5698 196 353.1333 C197.0337 336.3364 194.2215 320.2715 196 319.1333 C199.9819 316.5849 242.4169 317.48 246 321.1333 C249.579 324.7826 247 371.1333 247 371.1333 "/>
<path id="4" d="M227 44.1333 C227 44.1333 241.1412 44.3149 254 41.1333 C288.8539 32.5097 289.0987 28.0654 324 20.1333 C343.0949 15.7936 364 16.1333 364 16.1333 "/>
<path id="5" d="M309 195.1333 C309 195.1333 333.7539 182.281 359 171.1333 C372.0884 165.3541 373.0668 167.1268 386 161.1333 C413.7909 148.2546 441 133.1333 441 133.1333 "/>
<path id="6" d="M364 20.1333 C364 20.1333 368.4934 20.4024 370 22.1333 C388.2911 43.1486 391.8593 47.3926 411 74.1333 C425.6652 94.6214 426.2128 95.9163 438 117.1333 C440.5742 121.7669 439.9406 126.1911 441 128.1333 C441.1372 128.3848 444 128.1333 444 128.1333 "/>
<path id="7" d="M322 377.1333 C322 377.1333 352.5417 356.6803 381 335.1333 C387.0579 330.5466 385.8904 328.3337 392 324.1333 C409.1562 312.3385 411.3016 313.8143 429 302.1333 C435.9598 297.5398 435.2211 295.4719 442 291.1333 C447.1417 287.8426 448.9826 289.3022 454 286.1333 C457.7805 283.7457 461 279.1333 461 279.1333 "/>
<path id="8" d="M443 134.1333 C443 134.1333 441.9883 141.0634 443 147.1333 C444.3878 155.4601 447.6107 155.8804 448 164.1333 C450.0102 206.7486 446.3482 210.1867 448 253.1333 C448.2812 260.4458 449.2124 261.1643 452 268.1333 C455.0563 275.7741 460 283.1333 460 283.1333 "/>
<path id="9" d="M249 373.1333 L249 378.1333 "/>
<path id="10" d="M323 204.1333 L323 233.1333 "/>
<path id="11" d="M325 203.1333 C325 203.1333 357.4709 191.3906 359 192.1333 C359.779 192.5117 360.9378 216.2482 360 220.1333 C359.901 220.5436 355.1326 219.9285 352 221.1333 C349.5571 222.0729 349.2515 224.4901 347 225.1333 C343.7013 226.0758 341.8303 224.0608 338 225.1333 C330.3564 227.2735 322 232.1333 322 232.1333 "/>
<path id="12" d="M400 171.1333 L403 193.1333 "/>
<path id="13" d="M404 169.1333 C404 169.1333 410.6672 169.7332 416 168.1333 C424.8446 165.48 425.5451 163.2078 434 160.1333 C435.6175 159.5452 437.3631 159.7512 438 160.1333 C438.4459 160.4008 439 161.728 439 163.1333 C439 175.3125 440.1537 187.2407 438 189.1333 C434.8721 191.8821 406 192.1333 406 192.1333 "/>
<path id="14" d="M131 225.1333 C131 225.1333 129.2652 254.923 131 256.1333 C134.3932 258.5006 169.8301 257.9764 174 255.1333 C175.983 253.7813 175 226.1333 175 226.1333 "/>
<path id="15" d="M175 225.1333 C175 225.1333 175.0451 221.1374 175 221.1333 C169.5451 220.6374 136.4887 220.8838 131 221.1333 C130.9887 221.1338 131 223.1333 131 223.1333 "/>
<path id="16" d="M209 354.1333 C209 354.1333 207.9532 356.9931 208 357.1333 C208.0117 357.1684 210 357.1333 210 357.1333 "/>
<path id="17" d="M250 220.1333 C250 220.1333 248.2403 248.9056 250 250.1333 C253.6153 252.6556 289.4632 252.6831 293 250.1333 C294.8382 248.8081 294.8471 220.3396 293 219.1333 C288.4696 216.1747 244 218.1333 244 218.1333 "/>
<path id="18" d="M326 309.1333 L328 328.1333 "/>
<path id="19" d="M325 306.1333 C325 306.1333 338.3214 303.118 351 299.1333 C355.6116 297.684 356.4869 297.7096 360 295.1333 C363.2775 292.7298 362.9162 290.2683 366 288.1333 C368.384 286.4829 372.995 286.1176 373 286.1333 C373.5742 287.9276 376.2763 306.4941 374 313.1333 C372.9363 316.2359 367.6708 318.8592 361 321.1333 C346.8389 325.961 330 328.1333 330 328.1333 "/>
<path id="20" d="M404 270.1333 C404 270.1333 404.2339 267.5976 405 267.1333 C416.4991 260.1642 435.8649 249.927 437 250.1333 C437.2035 250.1703 438.5409 270.6451 438 273.1333 C437.969 273.2758 433.8407 272.0646 432 273.1333 C421.1242 279.4483 418.0634 285.2762 407 291.1333 C404.1164 292.66 398.9258 292.2134 398 291.1333 C394.554 287.113 389.0467 271.115 389 270.1333 C388.9992 270.1159 393.7672 271.0842 397 270.1333 C401.2312 268.8889 406 265.1333 406 265.1333 "/>
<path id="21" d="M129 319.1333 L128 350.1333 "/>
<path id="22" d="M131 315.1333 C131 315.1333 172.2525 314.2773 178 315.1333 C178.1275 315.1523 178.2733 318.6712 178 322.1333 C176.7803 337.5829 177.4114 351.6383 175 353.1333 C169.8994 356.2957 128 353.1333 128 353.1333 "/>
<path id="23" d="M232 57.1333 L366 26.1333 "/>
<path id="24" d="M247 74.1333 L378 40.1333 "/>
<path id="25" d="M262 104.1333 C262 104.1333 286.1144 98.3618 309 90.1333 C330.319 82.4681 329.7007 79.9013 351 72.1333 C371.9381 64.4971 394 59.1333 394 59.1333 "/>
<path id="26" d="M272 128.1333 C272 128.1333 278.5673 128.8049 284 127.1333 C309.9753 119.1409 310.2488 116.3441 337 108.1333 C360.5007 100.9203 361.8562 103.6551 385 96.1333 C401.2988 90.8362 417 82.1333 417 82.1333 "/>
<path id="27" d="M289 151.1333 C289 151.1333 307.3788 149.1197 324 144.1333 C336.6787 140.3297 336.2575 137.1878 349 133.1333 C368.7539 126.848 370.1445 129.5236 390 123.1333 C413.2568 115.6484 436 105.1333 436 105.1333 "/>
<path id="28" d="M306 173.1333 C306 173.1333 310.4914 174.1503 314 173.1333 C343.2957 164.6418 345.259 164.6608 375 153.1333 C409.4457 139.7823 443 123.1333 443 123.1333 "/>
<path id="29" d="M242 45.1333 C242 45.1333 247.8598 51.7939 252 59.1333 C258.6967 71.0048 256.9911 72.4519 264 84.1333 C273.2726 99.5877 276.4173 99.5801 285 114.1333 C287.0613 117.6286 285.2083 119.1518 287 123.1333 C293.9134 138.4963 293.6015 140.5885 303 154.1333 C309.8063 163.9424 313.007 162.6602 321 172.1333 C326.2007 178.2971 330 186.1333 330 186.1333 "/>
<path id="30" d="M265 41.1333 C265 41.1333 271.2975 46.0507 275 52.1333 C298.6186 90.9354 296.6877 93.8864 321 133.1333 C331.4063 149.9321 334.2886 149.4782 345 165.1333 C346.63 167.5156 345.5233 169.4926 347 171.1333 C348.9499 173.2999 354 175.1333 354 175.1333 "/>
<path id="31" d="M290 29.1333 C290 29.1333 295.5892 46.6498 304 62.1333 C317.3182 86.6509 317.556 87.6598 334 110.1333 C347.1529 128.109 350.5265 126.6177 364 144.1333 C370.0649 152.0177 374 162.1333 374 162.1333 "/>
<path id="32" d="M310 28.1333 C310 28.1333 310.9676 35.4054 314 41.1333 C324.0649 60.1448 324.0313 61.5628 337 79.1333 C354.6417 103.035 357.773 101.4382 376 125.1333 C387.5487 140.1466 396.3004 156.1794 397 157.1333 C397.0187 157.1588 398 155.1333 398 155.1333 "/>
<path id="33" d="M324 19.1333 C324 19.1333 337.4398 41.1274 353 61.1333 C372.256 85.8911 375.1054 84.6815 394 109.1333 C400.1006 117.0282 400.1215 117.9912 404 127.1333 C406.9115 133.9962 408 142.1333 408 142.1333 "/>
<path id="34" d="M344 17.1333 C344 17.1333 356.605 37.4413 371 56.1333 C389.972 80.7686 392.8739 79.5092 411 104.1333 C418.857 114.807 418.5738 116.0041 424 128.1333 C426.8736 134.5566 428 142.1333 428 142.1333 "/>
<path id="35" d="M408 142.1333 L408 145.1333 "/>
<path id="36" d="M360 20.1333 C360 20.1333 365.9697 34.888 375 46.1333 C391.7372 66.9759 396.8399 65.185 413 86.1333 C422.8719 98.9303 420.089 102.6019 429 116.1333 C433.0105 122.2233 436.4762 121.7121 440 127.1333 C441.9997 130.2098 442 136.1333 442 136.1333 "/>
<path id="37" d="M112 192.1333 C112 192.1333 154.2484 182.0051 196 179.1333 C247.6399 175.5814 301 179.1333 301 179.1333 "/>
<path id="38" d="M136 168.1333 C136 168.1333 149.5537 169.3476 162 168.1333 C169.3674 167.4146 169.556 165.0411 177 164.1333 C189.5552 162.6022 190.2123 164.616 203 163.1333 C224.4524 160.6461 224.5641 158.1994 246 156.1333 C265.6796 154.2365 286 155.1333 286 155.1333 "/>
<path id="39" d="M160 143.1333 C160 143.1333 175.9206 144.7418 191 143.1333 C212.8181 140.8061 213.1034 137.2077 235 135.1333 C259.9967 132.7652 286 134.1333 286 134.1333 "/>
<path id="40" d="M157 142.1333 L153 142.1333 "/>
<path id="41" d="M180 120.1333 C180 120.1333 193.9594 123.7685 206 122.1333 C232.5655 118.5257 261 109.1333 261 109.1333 "/>
<path id="42" d="M207 85.1333 L238 84.1333 "/>
<path id="43" d="M131 209.1333 C131 209.1333 131.8099 204.7614 134 202.1333 C143.5288 190.6988 148.1135 189.9773 156 179.1333 C158.3163 175.9484 155.6837 172.7525 158 169.1333 C170.1562 150.1393 174.436 149.0804 188 129.1333 C190.8565 124.9326 189.2962 123.3821 192 119.1333 C195.9577 112.9141 198.5533 113.2314 202 107.1333 C204.4789 102.7475 202.6596 101.0604 205 96.1333 C211.8939 81.6198 212.3605 80.4526 221 67.1333 C223.8937 62.6722 229 59.1333 229 59.1333 "/>
<path id="44" d="M176 199.1333 C176 199.1333 176.5688 192.8337 179 188.1333 C183.6888 179.0683 187.0078 178.9733 191 170.1333 C193.37 164.8854 191.0554 163.1293 193 157.1333 C196.8816 145.1651 197.2447 144.6439 203 133.1333 C210.1445 118.8443 212.9924 119.333 219 105.1333 C223.5854 94.2951 223.0559 93.0759 225 81.1333 C226.4916 71.9707 226 62.1333 226 62.1333 "/>
<path id="45" d="M217 199.1333 C217 199.1333 221.487 177.6336 224 156.1333 C225.9633 139.3359 222.4798 137.4713 226 122.1333 C229.0396 108.8896 233.2273 108.35 238 95.1333 C239.4259 91.1847 239 86.1333 239 86.1333 "/>
<path id="46" d="M253 197.1333 C253 197.1333 255 173.0592 255 149.1333 C255 122.2168 253 95.1333 253 95.1333 "/>
<path id="47" d="M240 86.1333 L241 76.1333 "/>
<path id="48" d="M152 226.1333 L152 261.1333 "/>
<path id="49" d="M131 238.1333 L181 237.1333 "/>
<path id="50" d="M149 315.1333 L147 359.1333 "/>
<path id="51" d="M128 336.1333 L176 336.1333 "/>
<path id="52" d="M271 220.1333 L271 257.1333 "/>
<path id="53" d="M253 239.1333 L297 239.1333 "/>
<path id="54" d="M338 199.1333 L340 232.1333 "/>
<path id="55" d="M328 218.1333 L369 204.1333 "/>
<path id="56" d="M418 164.1333 L418 194.1333 "/>
<path id="57" d="M406 181.1333 C406 181.1333 416.0493 182.1272 424 181.1333 C426.8159 180.7813 430 178.1333 430 178.1333 "/>
<path id="58" d="M342 303.1333 C342 303.1333 344.8914 304.4094 345 305.1333 C345.7978 310.4521 345 323.1333 345 323.1333 "/>
<path id="59" d="M359 294.1333 L359 316.1333 "/>
<path id="60" d="M361 317.1333 L361 319.1333 "/>
<path id="61" d="M408 266.1333 L409 293.1333 "/>
<path id="62" d="M422 260.1333 L423 279.1333 "/>
</g>
</g>
</svg>
