<?xml version="1.0" encoding="utf-8"?>
<!DOCTYPE svg PUBLIC "-//W3C//DTD SVG 1.1//EN" "http://www.w3.org/Graphics/SVG/1.1/DTD/svg11.dtd">
<svg viewBox="0 0 800 800" preserveAspectRatio="xMinYMin meet" xmlns="http://www.w3.org/2000/svg" version="1.1">
<g fill="none" stroke="black" stroke-linecap="round" stroke-linejoin="round" stroke-width="2.3281">
<g transform="translate(87.52,226.6864) scale(1.2886) translate(-142,-95)">
<path id="0" d="M273 107 C273 107 246.1924 135.6227 225 156 C223.8945 157.0629 221.8294 155.9885 221 157 C205.6248 175.7502 203.3359 184.1576 184 206 C177.6025 213.2268 167 218 167 218 "/>
<path id="1" d="M273 107 C273 107 273.196 113.3612 275 118 C276.37 121.5229 278.4947 121.2763 280 125 C287.619 143.8471 286.1686 145.5918 294 165 C297.5395 173.7717 299.7868 173.529 303 182 C305.0082 187.2944 302.6502 189.0766 305 194 C312.4492 209.6079 314.7197 212.4663 324 226 C325.3249 227.9322 328.1202 227.5337 329 229 C330.1144 230.8573 330 236 330 236 "/>
<path id="2" d="M168 217 C168 217 156.7738 233.9736 157 234 C160.7108 234.4334 231.2631 232.5762 305 233 C317.96 233.0745 331 235 331 235 "/>
<path id="3" d="M159 234 C159 234 160.8482 290.8638 160 346 C159.8633 354.8851 157 364 157 364 "/>
<path id="4" d="M159 364 C159 364 184.0448 361.3159 209 361 C262.8559 360.3183 263.7117 362.4404 317 362 C323.423 361.9469 330 360 330 360 "/>
<path id="5" d="M330 234 C330 234 333.7931 263.5526 335 293 C336.2842 324.335 335.865 325.7251 335 356 C334.9031 359.3913 333 363 333 363 "/>
<path id="6" d="M273 108 C273 108 375.1216 108.9782 477 107 C529.4809 105.981 582 102 582 102 "/>
<path id="7" d="M334 360 C334 360 335.621 357.3677 337 357 C341.4514 355.813 343.0184 356.0301 349 356 C442.175 355.5318 442.5448 356.4248 536 356 C552.4944 355.925 556.7381 356.051 569 355 C569.8048 354.931 571 353 571 353 "/>
<path id="8" d="M580 103 C580 103 584.1654 120.7782 590 135 C591.5291 138.7272 594.2126 138.2763 596 142 C599.7774 149.8695 599.6254 150.8765 602 160 C609.0873 187.23 610.1252 187.4717 615 215 C618.5482 235.0369 618.4628 235.5877 619 256 C619.9536 292.2377 617.598 292.8211 618 329 C618.0938 337.4375 620 346 620 346 "/>
<path id="9" d="M571 357 C571 357 585.07 353.995 599 353 C612.7893 352.0151 627 353 627 353 "/>
<path id="10" d="M622 344 C622 344 624.6051 346.6178 625 348 C625.2207 348.7724 624 351 624 351 "/>
<path id="11" d="M334 241 C334 241 337.3317 243.2864 338 243 C340.8557 241.7761 343.2074 237.2702 348 235 C351.2926 233.4403 353.8475 232.9969 357 234 C362.6447 235.7961 363.978 239.8102 370 242 C373.4067 243.2388 376.5659 243.2887 379 242 C382.4523 240.1723 383.9679 233.5177 387 233 C397.3836 231.2272 406.1363 236.5069 420 235 C425.8194 234.3675 426.8654 229.6516 433 228 C438.3579 226.5575 440.0303 227.3367 446 228 C448.3981 228.2665 449.4254 228.6003 451 230 C453.1684 231.9274 453.3139 235.2218 455 236 C457.2417 237.0346 462.2431 237.1295 464 236 C466.1055 234.6464 466.9481 227.8394 469 227 C473.0178 225.3564 477.741 226.1306 486 227 C496.4069 228.0955 501.8261 231.7665 507 231 C508.8217 230.7301 510.4647 224.5602 513 223 C514.6247 222.0002 517.6485 221.9712 520 223 C524.0521 224.7728 524.9177 228.6392 529 230 C533.3224 231.4408 535.4976 230.6473 541 230 C543.4005 229.7176 544.3887 229.477 546 228 C549.5959 224.7037 550.008 220.584 553 219 C555.5432 217.6536 559.5598 217.7858 563 219 C566.1366 220.1071 566.8717 223.6593 570 225 C572.2879 225.9805 573.9602 225.5527 577 225 C578.8949 224.6555 580.1536 224.2091 581 223 C582.7809 220.4559 583.0709 215.4288 584 215 C585.2601 214.4184 589.2039 217 594 217 C604.5514 217 616 215 616 215 "/>
<path id="12" d="M216 359 L219 272 "/>
<path id="13" d="M219 272 L256 271 "/>
<path id="14" d="M256 271 C256 271 257.0362 290.1408 256 309 C254.5473 335.4399 251 362 251 362 "/>
<path id="15" d="M289 259 L291 290 "/>
<path id="16" d="M297 259 L301 287 "/>
<path id="17" d="M307 259 C307 259 309.825 262.2871 310 265 C310.7047 275.9223 309 290 309 290 "/>
<path id="18" d="M290 261 L310 260 "/>
<path id="19" d="M288 289 C288 289 288.7317 290.9878 289 291 C294.1538 291.2343 310 290 310 290 "/>
<path id="20" d="M157 234 L148 233 "/>
<path id="21" d="M147 232 L142 232 "/>
<path id="22" d="M142 232 L174 205 "/>
<path id="23" d="M176 205 C176 205 178.5993 196.9313 183 191 C189.6195 182.0781 199 174 199 174 "/>
<path id="24" d="M261 106 C261 106 251.337 112.3913 244 120 C238.2925 125.9189 239.7562 128.457 234 134 C227 140.7407 222.6064 139.6291 217 146 C213.3816 150.1118 214.8962 154.3661 212 159 C210.8999 160.7602 208.615 160.1159 207 162 C203.2317 166.3963 200 173 200 173 "/>
<path id="25" d="M258 107 L283 102 "/>
<path id="26" d="M282 101 C282 101 388.0162 100.8153 494 100 C517.9993 99.8154 518.1793 100.4704 542 99 C558.4781 97.9828 565.9371 94.0705 575 95 C576.8967 95.1945 581 103 581 103 "/>
<path id="27" d="M522 250 L522 301 "/>
<path id="28" d="M521 251 L556 248 "/>
<path id="29" d="M556 248 C556 248 559.5779 254.1966 560 260 C561.4766 280.3035 560 303 560 303 "/>
<path id="30" d="M519 301 L560 301 "/>
<path id="31" d="M532 253 L530 303 "/>
<path id="32" d="M539 252 C539 252 541.762 258.1693 542 264 C542.7256 281.7768 541 301 541 301 "/>
<path id="33" d="M550 252 C550 252 548.1206 258.0924 548 264 C547.6297 282.1435 549 301 549 301 "/>
<path id="34" d="M522 263 L562 261 "/>
<path id="35" d="M521 281 L559 281 "/>
</g>
</g>
</svg>
