<?xml version="1.0" encoding="utf-8"?>
<!DOCTYPE svg PUBLIC "-//W3C//DTD SVG 1.1//EN" "http://www.w3.org/Graphics/SVG/1.1/DTD/svg11.dtd">
<svg viewBox="0 0 800 800" preserveAspectRatio="xMinYMin meet" xmlns="http://www.w3.org/2000/svg" version="1.1">
<g fill="none" stroke="black" stroke-linecap="round" stroke-linejoin="round" stroke-width="1.7713">
<g transform="translate(144.2576,87.52) scale(1.6937) translate(-149,-48.1333)">
<path id="0" d="M184 212.1333 C184 212.1333 182.1016 234.9737 183 257.1333 C183.5827 271.5068 186.2786 271.706 187 286.1333 C188.2599 311.3317 185.8377 312.3367 187 337.1333 C187.2995 343.5224 189.489 343.6608 190 350.1333 C192.4412 381.0547 193 413.1333 193 413.1333 "/>
<path id="1" d="M193 414.1333 C193 414.1333 236.5501 416.9254 280 417.1333 C340.915 417.4248 402 415.1333 402 415.1333 "/>
<path id="2" d="M402 415.1333 C402 415.1333 404.4703 409.6068 405 404.1333 C407.4063 379.2682 407.4421 378.6099 408 353.1333 C408.9395 310.2281 408.887 307.9357 408 267.1333 C407.9377 264.266 406.1176 264.0153 406 261.1333 C405.1683 240.7564 407.3519 239.0874 406 218.1333 C405.3945 208.7488 402 199.1333 402 199.1333 "/>
<path id="3" d="M402 196.1333 C402 196.1333 371.9603 199.5785 342 200.1333 C264.1993 201.5741 213.4693 196.6997 186 200.1333 C184.8554 200.2764 182 220.1333 182 220.1333 "/>
<path id="4" d="M149 223.1333 C149 223.1333 158.9572 218.3635 166 212.1333 C171.1681 207.5616 169.8908 205.377 175 200.1333 C188.5931 186.1825 192.7121 188.0563 204 173.1333 C220.9984 150.6609 218.0694 146.5602 234 122.1333 C240.2721 112.5161 240.9241 112.4218 249 104.1333 C259.7488 93.1016 261.2299 94.1727 272 83.1333 C281.0708 73.8357 279.7769 71.0388 289 63.1333 C296.1778 56.9809 307 53.1333 307 53.1333 "/>
<path id="5" d="M451 219.1333 C451 219.1333 433.6413 211.444 421 200.1333 C396.8357 178.5127 391.8004 177.242 375 151.1333 C357.0417 123.2251 361.8916 116.124 347 85.1333 C344.1278 79.1561 343.0105 78.4606 338 74.1333 C332.6079 69.4765 329.6479 70.7813 325 66.1333 C320.7947 61.9281 318 54.1333 318 54.1333 "/>
<path id="6" d="M317 52.1333 C317 52.1333 311.625 48.0083 311 48.1333 C310.375 48.2583 307 54.1333 307 54.1333 "/>
<path id="7" d="M266 415.1333 C266 415.1333 261.2307 406.2073 261 398.1333 C260.288 373.2117 261.386 348.8237 264 345.1333 C264.8042 343.998 279.6022 348.6528 295 350.1333 C305.2715 351.121 314.1827 348.9218 316 350.1333 C316.8077 350.6718 317.0793 357.5031 316 364.1333 C313.6764 378.4071 311.128 378.8454 309 393.1333 C307.725 401.6939 309 411.1333 309 411.1333 "/>
<path id="8" d="M300 391.1333 L303 391.1333 "/>
<path id="9" d="M339 237.1333 C339 237.1333 337.1306 286.6997 341 291.1333 C343.856 294.4058 369.1295 293.1845 387 292.1333 C389.0365 292.0135 391.0911 290.1783 392 288.1333 C394.2398 283.0939 394.8743 280.9227 395 274.1333 C395.3575 254.8297 395.8567 236.4187 393 234.1333 C388.9669 230.9069 345 234.1333 345 234.1333 "/>
<path id="10" d="M212 246.1333 C212 246.1333 211.9395 274.3059 214 291.1333 C214.2045 292.8032 216.2981 294.8902 218 295.1333 C232.2533 297.1695 247.0949 298.7901 256 297.1333 C257.6236 296.8313 260.7233 291.699 261 287.1333 C262.5024 262.3444 263.009 241.1632 260 231.1333 C259.5137 229.5122 251.2755 227.7867 243 227.1333 C233.0015 226.344 229.714 226.5905 222 228.1333 C220.2534 228.4826 218.5943 230.1806 218 232.1333 C215.7317 239.5862 215 251.1333 215 251.1333 "/>
<path id="11" d="M238 232.1333 C238 232.1333 239.3494 248.953 238 264.1333 C237.4368 270.469 235.1145 270.6692 234 277.1333 C232.6834 284.7698 233 293.1333 233 293.1333 "/>
<path id="12" d="M219 261.1333 L272 268.1333 "/>
<path id="13" d="M365 236.1333 L365 283.1333 "/>
<path id="14" d="M336 259.1333 L399 260.1333 "/>
<path id="15" d="M272 181.1333 C272 181.1333 277.0093 171.0871 279 161.1333 C281.3628 149.3191 277.5521 145.7874 281 136.1333 C283.902 128.0078 289.2874 124.1405 294 119.1333 C294.4551 118.6497 296.4534 118.6209 297 119.1333 C301.931 123.7561 307.4937 126.7462 310 134.1333 C315.5568 150.5114 316 166.2982 316 175.1333 C316 175.7798 312.8392 177.8421 310 178.1333 C295.1001 179.6615 277 179.1333 277 179.1333 "/>
</g>
</g>
</svg>
