<?xml version="1.0" encoding="utf-8"?>
<!DOCTYPE svg PUBLIC "-//W3C//DTD SVG 1.1//EN" "http://www.w3.org/Graphics/SVG/1.1/DTD/svg11.dtd">
<svg viewBox="0 0 800 800" preserveAspectRatio="xMinYMin meet" xmlns="http://www.w3.org/2000/svg" version="1.1">
<g fill="none" stroke="black" stroke-linecap="round" stroke-linejoin="round" stroke-width="0.58564">
<g transform="translate(254.0052,87.52) scale(5.1226) translate(-229,-139)">
<path id="0" d="M262 139 L261 163 "/>
<path id="1" d="M246 158 C246 158 249.5041 158.898 250 160 C252.6427 165.8726 254.5147 169.2643 255 178 C256.4323 203.7822 255.2616 207.6088 254 232 C253.9042 233.8517 252 236 252 236 "/>
<path id="2" d="M251 236 C251 236 243.4673 238.7358 239 243 C233.4132 248.3329 229 257 229 257 "/>
<path id="3" d="M282 161 C282 161 283.2818 173.5036 281 184 C278.5472 195.2827 274.7924 195.5765 272 207 C269.508 217.1945 270 229 270 229 "/>
<path id="4" d="M268 231 C268 231 270.8073 230.3495 272 231 C275.0629 232.6707 277.6868 234.0817 279 237 C281.1385 241.7522 279.0639 245.7449 281 251 C281.8989 253.4399 285.8247 255.6493 286 256 C286 256 284 257 284 257 "/>
<path id="5" d="M258 252 C258 252 254.4954 251.9125 253 253 C250.1042 255.106 249.8036 258.6807 247 260 C243.5399 261.6283 239.578 261.5111 236 261 C234.8701 260.8386 233 258 233 258 "/>
<path id="6" d="M254 252 C254 252 254.2434 254.4116 255 255 C257.5219 256.9615 259.0966 258.1868 263 259 C270.1625 260.4922 277.2554 260.109 279 260 C279.0137 259.9991 279 258 279 258 "/>
</g>
</g>
</svg>
