<?xml version="1.0" encoding="utf-8"?>
<!DOCTYPE svg PUBLIC "-//W3C//DTD SVG 1.1//EN" "http://www.w3.org/Graphics/SVG/1.1/DTD/svg11.dtd">
<svg viewBox="0 0 800 800" preserveAspectRatio="xMinYMin meet" xmlns="http://www.w3.org/2000/svg" version="1.1">
<g fill="none" stroke="black" stroke-linecap="round" stroke-linejoin="round" stroke-width="0.61444">
<g transform="translate(146.11,87.52) scale(4.8825) translate(-210,-257.1333)">
<path id="0" d="M265 287.1333 C265 287.1333 253.8134 298.4365 246 311.1333 C234.1956 330.3154 236.6734 333.002 225 352.1333 C219.11 361.7864 213.5999 362.6764 210 370.1333 C208.5 373.2404 209.5447 378.0148 211 381.1333 C211.863 382.9827 214.3612 384.9134 217 385.1333 C234.4996 386.5916 238.8338 385.9564 259 385.1333 C262.4002 384.9945 263.8354 384.7984 266 383.1333 C269.0811 380.7633 269.8698 375.4884 272 375.1333 C280.6177 373.697 302 377.1333 302 377.1333 "/>
<path id="1" d="M265 289.1333 C265 289.1333 283.6044 276.5836 298 264.1333 C300.6498 261.8416 302 257.1333 302 257.1333 "/>
<path id="2" d="M306 378.1333 C306 378.1333 312.9058 374.1425 314 371.1333 C315.6564 366.5782 314.7006 362.7887 314 356.1333 C313.8034 354.2652 313.2479 352.9356 312 352.1333 C307.8467 349.4633 300 347.1333 300 347.1333 "/>
<path id="3" d="M309 378.1333 L304 378.1333 "/>
<path id="4" d="M305 260.1333 C305 260.1333 299.7377 269.8596 299 279.1333 C296.3837 312.0244 298 348.1333 298 348.1333 "/>
<path id="5" d="M306 262.1333 L305 260.1333 "/>
</g>
</g>
</svg>
