<?xml version="1.0" encoding="utf-8"?>
<!DOCTYPE svg PUBLIC "-//W3C//DTD SVG 1.1//EN" "http://www.w3.org/Graphics/SVG/1.1/DTD/svg11.dtd">
<svg viewBox="0 0 800 800" preserveAspectRatio="xMinYMin meet" xmlns="http://www.w3.org/2000/svg" version="1.1">
<g fill="none" stroke="black" stroke-linecap="round" stroke-linejoin="round" stroke-width="0.51363">
<g transform="translate(186.8127,87.52) scale(5.8407) translate(-227,-124)">
<path id="0" d="M254 124 C254 124 271.5131 149.9168 287 176 C290.238 181.4534 291.0988 182.2323 292 188 C293.4102 197.0252 293.2394 199.0143 292 208 C291.4081 212.2915 290.6842 213.3093 288 217 C283.1029 223.7334 280.7237 228.3762 276 230 C270.4607 231.9042 263.408 230.2794 256 228 C253.1805 227.1325 251.4408 224.8816 250 222 C248.6392 219.2785 249 214 249 214 "/>
<path id="1" d="M257 212 C257 212 244.5294 207.4958 241 208 C239.6275 208.1961 236 215 236 215 "/>
<path id="2" d="M241 191 C241 191 236.6009 190.7685 235 192 C231.7073 194.5329 229.2038 196.7867 228 201 C225.8895 208.3869 226.3598 211.3574 227 220 C227.2781 223.7547 228.7508 227.4448 230 228 C232.8583 229.2703 243.1578 228.2456 245 228 C245.0328 227.9956 245 226 245 226 "/>
<path id="3" d="M295 192 C295 192 298.8652 193.2719 299 194 C300.239 200.6906 301.7715 210.6485 300 219 C299.307 222.2671 295.9897 224.7835 292 227 C288.4378 228.979 282 229 282 229 "/>
<path id="4" d="M247 231 L252 224 "/>
</g>
</g>
</svg>
