<?xml version="1.0" encoding="utf-8"?>
<!DOCTYPE svg PUBLIC "-//W3C//DTD SVG 1.1//EN" "http://www.w3.org/Graphics/SVG/1.1/DTD/svg11.dtd">
<svg viewBox="0 0 800 800" preserveAspectRatio="xMinYMin meet" xmlns="http://www.w3.org/2000/svg" version="1.1">
<g fill="none" stroke="black" stroke-linecap="round" stroke-linejoin="round" stroke-width="0.46563">
<g transform="translate(151.9489,87.52) scale(6.4429) translate(-234,-88)">
<path id="0" d="M234 88 C234 88 241.8968 87.4226 244 89 C246.7879 91.091 248.3678 94.8313 250 100 C251.0126 103.2067 248.8236 105.5002 250 108 C251.877 111.9887 253.7615 112.7615 258 117 C274.7046 133.7046 275.4539 136.9744 292 150 C296.4549 153.5071 300.0891 151.2717 305 154 C307.6885 155.4936 309.1972 157.1903 310 160 C311.6519 165.7815 311.8222 169.5189 311 175 C310.69 177.0669 308.7158 179.1421 307 180 C305.4162 180.7919 302.6944 180.9124 301 180 C297.9588 178.3624 297.5727 175.2967 294 173 C291.4259 171.3452 290.4323 171.4038 287 171 C282.2562 170.4419 281.3963 170.372 277 171 C275.1159 171.2692 274.0238 171.8056 273 173 C271.7337 174.4773 270.7497 176.6233 271 178 C271.3632 179.9976 273.783 183.9064 275 184 C284.4845 184.7296 309.9985 181.0004 310 181 C310.0007 180.9998 299.9909 178.4489 292 179 C286.9555 179.3479 286.1563 182.3274 281 183 C275.6881 183.6929 269 182 269 182 "/>
<path id="1" d="M284 185 C284 185 275.3269 185.949 269 185 C266.7012 184.6552 265.5792 183.8663 264 182 C260.7072 178.1085 259.9069 177.0852 258 172 C255.6455 165.7214 255 158 255 158 "/>
</g>
</g>
</svg>
