<?xml version="1.0" encoding="utf-8"?>
<!DOCTYPE svg PUBLIC "-//W3C//DTD SVG 1.1//EN" "http://www.w3.org/Graphics/SVG/1.1/DTD/svg11.dtd">
<svg viewBox="0 0 800 800" preserveAspectRatio="xMinYMin meet" xmlns="http://www.w3.org/2000/svg" version="1.1">
<g fill="none" stroke="black" stroke-linecap="round" stroke-linejoin="round" stroke-width="0.48003">
<g transform="translate(215.6368,87.52) scale(6.2496) translate(-140,-134)">
<path id="0" d="M151 202 C151 202 146.4797 203.1168 145 205 C142.1366 208.6443 140.9741 210.7399 140 216 C138.6931 223.057 139.6025 224.8444 140 232 C140.0511 232.9193 140.6701 233.9529 141 234 C144.3354 234.4765 154 234 154 234 "/>
<path id="1" d="M186 199 C186 199 188.8541 198.3316 190 199 C193.4614 201.0192 197.2248 202.9851 198 206 C200.4187 215.406 200.2786 231.4428 199 234 C198.6513 234.6974 184 234 184 234 "/>
<path id="2" d="M150 228 L158 227 "/>
<path id="3" d="M182 230 C182 230 181.927 227.0209 182 227 C182.572 226.8366 189 228 189 228 "/>
<path id="4" d="M154 192 C154 192 157.6099 188.2183 158 185 C159.3551 173.8207 158 159 158 159 "/>
<path id="5" d="M158 150 L158 139 "/>
<path id="6" d="M186 187 C186 187 179.9417 182.036 179 178 C177.1402 170.0293 179 157 179 157 "/>
<path id="7" d="M179 155 L181 134 "/>
</g>
</g>
</svg>
