<?xml version="1.0" encoding="utf-8"?>
<!DOCTYPE svg PUBLIC "-//W3C//DTD SVG 1.1//EN" "http://www.w3.org/Graphics/SVG/1.1/DTD/svg11.dtd">
<svg viewBox="0 0 800 800" preserveAspectRatio="xMinYMin meet" xmlns="http://www.w3.org/2000/svg" version="1.1">
<g fill="none" stroke="black" stroke-linecap="round" stroke-linejoin="round" stroke-width="0.90246">
<g transform="translate(208.8553,87.52) scale(3.3243) translate(-204,-128)">
<path id="0" d="M225 143 C225 143 227.6693 149.6069 228 156 C229.1312 177.869 230.0048 179.2338 228 201 C226.5902 216.3063 226.0284 217.3718 221 232 C215.2566 248.7082 210.8363 248.7841 206 265 C202.8256 275.6436 203.1332 278.3099 204 289 C204.4874 295.0116 205.4407 296.942 209 302 C214.1395 309.3035 217.5417 313.7414 223 316 C226.9083 317.6172 236.0655 315.7069 238 314 C239.5544 312.6285 239.9989 301.0019 240 301 C240.0006 300.999 239.8041 306.1298 241 309 C241.8052 310.9324 242.8443 311.7425 245 313 C248.3186 314.9358 249.1269 315.419 253 316 C258.5003 316.825 262.3709 317.4606 265 316 C267.5317 314.5935 269.5269 310.6648 271 306 C272.1146 302.4704 270.8903 297.0914 271 297 C271.039 296.9675 274.2733 300.5258 277 301 C283.923 302.204 287.7368 303.2617 294 301 C302.7296 297.8476 306.7628 294.9856 313 288 C317.2374 283.2541 317.968 280.2242 319 273 C320.7572 260.6993 320.9399 258.1937 319 246 C317.6986 237.8196 316.3409 236.6605 312 229 C308.1353 222.1799 307.6237 221.6237 302 216 C292.9533 206.9533 290.5791 208.151 282 199 C276.1506 192.7607 276.2378 191.7692 272 184 C267.3667 175.5056 266.6203 175.1711 264 166 C258.7963 147.787 256 128 256 128 "/>
<path id="1" d="M301 296 C301 296 294.0933 296.6074 293 296 C292.4837 295.7132 291.8537 291.0788 292 291 C293.3034 290.2982 305.2848 288.835 306 289 C306.0081 289.0019 305.6497 293.5669 305 294 C303.7007 294.8662 297.7437 295.093 297 295 C296.9764 294.997 297 293 297 293 C297.0014 293 298.0229 294.9542 298 295 C297.9847 295.0306 296 295 296 295 "/>
<path id="2" d="M296 295 C296 295 297.1699 291.6641 298 291 C298.4789 290.6169 300.9461 290.9191 301 291 C301.0629 291.0944 300.0186 294 300 294 C299.9627 294 297.9919 291.0049 298 291 C298.5587 290.6648 309.5467 287.9176 310 288 C310.0036 288.0007 309.83 292.4813 309 293 C305.3531 295.2793 301.1956 295.8836 294 298 C293.1262 298.257 292.0084 298.0338 292 298 C291.9367 297.7469 292.3242 294.6758 293 294 C293.6758 293.3242 296.9868 292.9692 297 293 C297.1399 293.3265 296.4349 299.8404 296 301 C295.9611 301.1038 294.0062 301.0311 294 301 C293.9254 300.6272 293.9967 297.1287 295 296 C296.7416 294.0407 302 292 302 292 "/>
<path id="3" d="M218 310 C218 310 223.7425 309.3014 225 310 C225.8583 310.4768 227.0025 315.0006 227 315 C226.9942 314.9986 221.0772 309.0386 221 309 C220.9871 308.9936 221.0021 312.0021 221 312 C220.9937 311.9937 217.9909 306.0034 218 306 C218.1202 305.9549 229 309 229 309 "/>
<path id="4" d="M229 309 L229 310 "/>
</g>
</g>
</svg>
