<?xml version="1.0" encoding="utf-8"?>
<!DOCTYPE svg PUBLIC "-//W3C//DTD SVG 1.1//EN" "http://www.w3.org/Graphics/SVG/1.1/DTD/svg11.dtd">
<svg viewBox="0 0 800 800" preserveAspectRatio="xMinYMin meet" xmlns="http://www.w3.org/2000/svg" version="1.1">
<g fill="none" stroke="black" stroke-linecap="round" stroke-linejoin="round" stroke-width="1.2913">
<g transform="translate(289.6446,87.52) scale(2.3233) translate(-273,-33)">
<path id="0" d="M287 93 C287 93 286.0755 101.2202 287 108 C287.4567 111.3488 287.9056 112.2075 290 115 C294.9812 121.6416 295.4443 123.1925 302 128 C309.4893 133.4922 313.4159 131.109 320 137 C330.7074 146.5803 329.1283 150.8631 340 162 C349.1567 171.38 351.9865 169.9865 361 179 C365.2695 183.2695 368 190 368 190 "/>
<path id="1" d="M319 192 C319 192 317.0377 192.7362 317 193 C316.8283 194.2016 317.0169 196.5423 318 199 C318.7987 200.9969 319.72 202.36 321 203 C322.28 203.64 323.862 203.6681 326 203 C338.8815 198.9745 339.9684 196.2579 353 193 C358.7427 191.5643 362.6646 193.4765 366 193 C366.3299 192.9529 367 191 367 191 "/>
<path id="2" d="M362 194 C362 194 361.0415 198.6049 360 199 C352.1748 201.9682 341.0627 203.8879 333 205 C332.5005 205.0689 331 203 331 203 "/>
<path id="3" d="M348 196 C348 196 342.6992 201.3097 339 204 C338.5007 204.3631 337.0153 204.0306 337 204 C336.9771 203.9542 337.5811 202.2094 338 202 C338.6283 201.6858 340.4924 202.423 341 202 C342.2127 200.9895 344.0001 196.9999 344 197 C343.9997 197.0002 339.8093 202.7525 337 205 C336.371 205.5032 334.135 205.18 334 205 C333.76 204.68 333.3991 201.6677 334 201 C336.1183 198.6463 338.694 196.2057 343 195 C349.5638 193.1621 358.5785 193.8379 359 194 C359.0187 194.0072 357.4663 199.0669 356 200 C354.1427 201.1819 351.7348 201 348 201 C346.1326 201 343.9989 200.0039 344 200 C344.06 199.7899 347.4286 195.5428 350 194 C351.0714 193.3572 353.68 193.76 354 194 C354.18 194.135 354.3118 196.5842 354 197 C353.6622 197.4504 352.462 197.7911 351 198 C349.1393 198.2658 347.32 198.24 347 198 C346.82 197.865 346.7642 195.131 347 195 C348.4303 194.2054 353.975 192.8159 356 193 C356.5219 193.0474 357.7909 195.9477 358 196 C358.114 196.0285 360 194 360 194 "/>
<path id="4" d="M301 51 C301 51 288.4234 68.4826 282 85 C278.7753 93.292 278.1018 97.2346 280 105 C282.7414 116.2147 287.6822 117.5917 293 130 C294.8886 134.4067 292.7832 136.4286 295 140 C300.7051 149.1915 305.9867 150.8534 311 159 C312.2166 160.9769 310.1051 163.0597 311 166 C313.3178 173.6157 315.5498 173.8328 318 182 C322.9274 198.4246 323.7637 199.2278 326 216 C327.6581 228.4356 327.2408 232.6942 326 242 C325.7837 243.6225 322.2472 244.3193 322 246 C320.376 257.0431 324.6971 264.0389 321 276 C317.3473 287.8176 311.7631 294.4874 305 301 C302.9811 302.9441 294 302 294 302 "/>
<path id="5" d="M331 33 C331 33 328.1197 32.9462 327 34 C313.5906 46.6206 310.6157 48.8511 297 65 C289.5116 73.8816 288.9533 74.643 284 85 C278.2745 96.9715 276.5783 99.1627 275 111 C273.9207 119.0946 277.6732 122.8113 278 130 C278.0497 131.0928 276.3125 132.9375 276 133 C275.6875 133.0625 273 131 273 131 "/>
<path id="6" d="M289 85 C289 85 286.0872 86.3463 286 87 C285.5327 90.5048 287 100 287 100 "/>
</g>
</g>
</svg>
