<?xml version="1.0" encoding="utf-8"?>
<!DOCTYPE svg PUBLIC "-//W3C//DTD SVG 1.1//EN" "http://www.w3.org/Graphics/SVG/1.1/DTD/svg11.dtd">
<svg viewBox="0 0 800 800" preserveAspectRatio="xMinYMin meet" xmlns="http://www.w3.org/2000/svg" version="1.1">
<g fill="none" stroke="black" stroke-linecap="round" stroke-linejoin="round" stroke-width="0.78725">
<g transform="translate(87.52,98.9522) scale(3.8107) translate(-231,-128)">
<path id="0" d="M388 161 C388 161 385.8237 191.7752 388 221 C389.2522 237.8146 392.6001 238.2005 395 255 C396.0285 262.1998 396.7585 263.9428 395 270 C392.8179 277.5161 389.7659 283.3802 386 286 C383.3809 287.822 378.4665 287.2933 372 286 C356.8499 282.97 356.1901 279.5317 341 277 C330.2501 275.2084 328.183 275.3028 318 277 C311.8016 278.0331 311.1067 282.469 305 283 C279.7091 285.1992 271.6234 284.1312 249 283 C247.3234 282.9162 246.933 280.5523 245 280 C240.9065 278.8304 238.1788 280.2226 235 279 C233.6108 278.4657 232.4766 276.9065 232 275 C230.7708 270.0832 230.56 263.1987 231 263 C234.2761 261.5205 247.4596 263.133 263 261 C272.4791 259.699 273.7663 260.0293 282 256 C296.1312 249.0847 297.0214 247.734 310 238 C316.5675 233.0744 317.6367 232.4301 322 226 C326.4948 219.3761 328.2584 217.6633 329 210 C332.4327 174.5292 331 133 331 133 "/>
<path id="1" d="M389 164 L390 128 "/>
<path id="2" d="M241 264 L232 272 "/>
<path id="3" d="M233 263 C233 263 233.8127 258.2498 234 258 C234.0163 257.9783 235.7057 259.1472 236 259 C237.6679 258.166 241.6532 254.0991 242 254 C242.0067 253.9981 243 257 243 257 C243.2292 256.9236 247.314 252.0762 248 252 C248.439 251.9512 250.5497 255.5166 252 256 C253.269 256.423 255.5447 254.5634 257 255 C258.9198 255.5759 259.7485 258.3567 262 259 C265.2987 259.9425 271 259 271 259 "/>
<path id="4" d="M243 258 L244 263 "/>
<path id="5" d="M245 253 L249 262 "/>
<path id="6" d="M251 256 C251 256 256.1845 256.8653 258 258 C258.6327 258.3954 259 261 259 261 "/>
</g>
</g>
</svg>
