<?xml version="1.0" encoding="utf-8"?>
<!DOCTYPE svg PUBLIC "-//W3C//DTD SVG 1.1//EN" "http://www.w3.org/Graphics/SVG/1.1/DTD/svg11.dtd">
<svg viewBox="0 0 800 800" preserveAspectRatio="xMinYMin meet" xmlns="http://www.w3.org/2000/svg" version="1.1">
<g fill="none" stroke="black" stroke-linecap="round" stroke-linejoin="round" stroke-width="0.79205">
<g transform="translate(290.1585,87.52) scale(3.7876) translate(-227,-50)">
<path id="0" d="M270 52 C270 52 267.6854 98.1793 270 141 C270.5806 151.7409 271.8697 153.2643 276 163 C278.4221 168.7092 281.8401 168.7202 284 174 C285.7266 178.2205 284.8432 179.5128 285 185 C285.3412 196.941 285.9443 202.862 285 209 C284.8971 209.6689 281.0044 211.0081 281 211 C280.5292 210.1257 278.0001 196 278 196 C277.9999 196 279.8018 204.9219 279 210 C278.6738 212.066 275.0097 215.0097 275 215 C274.8545 214.8545 273.8203 207.2475 272 203 C271.5498 201.9495 269.2412 201.8038 269 201 C268.3347 198.7825 269 193 269 193 C269 193 269.0671 213.8754 269 214 C268.9865 214.0251 264.3017 210.1431 262 206 C259.7413 201.9344 259 196 259 196 C259 196 263 205.4986 263 209 C263 210.0773 259.8503 212.7571 259 213 C258.5985 213.1147 256.302 212.0068 256 211 C250.6257 193.0856 250.8314 185.5035 244 163 C242.741 158.8526 241.1061 156.296 239 155 C237.3021 153.9551 233.2492 155.9371 231 155 C229.2897 154.2874 227.0911 151.7313 227 150 C226.7579 145.4007 229.7935 142.8833 230 136 C231.2604 93.987 230 50 230 50 "/>
</g>
</g>
</svg>
