<?xml version="1.0" encoding="utf-8"?>
<!DOCTYPE svg PUBLIC "-//W3C//DTD SVG 1.1//EN" "http://www.w3.org/Graphics/SVG/1.1/DTD/svg11.dtd">
<svg viewBox="0 0 800 800" preserveAspectRatio="xMinYMin meet" xmlns="http://www.w3.org/2000/svg" version="1.1">
<g fill="none" stroke="black" stroke-linecap="round" stroke-linejoin="round" stroke-width="1.6657">
<g transform="translate(246.9118,87.52) scale(1.801) translate(-177,-120)">
<path id="0" d="M269 196 C269 196 262.2741 181.9532 261 169 C259.45 153.2421 258.6264 144.1274 263 135 C266.0104 128.7174 274.0597 124.4675 284 121 C292.5828 118.006 296.1473 119.3205 306 120 C309.2378 120.2233 310.4272 120.8812 313 123 C318.1775 127.2638 320.553 128.5413 323 134 C326.0574 140.8203 325.5535 143.0704 326 152 C327.0332 172.6636 328.4044 182.459 326 194 C325.5373 196.2212 316 200 316 200 "/>
<path id="1" d="M260 168 C260 168 260.7973 164.0365 260 163 C257.4977 159.7471 254.8035 157.4018 250 155 C247.0836 153.5418 244.4641 153.552 242 154 C240.8825 154.2032 239.0832 155.8351 239 157 C237.9904 171.1347 236.2786 179.3692 239 196 C240.2192 203.4509 248 212 248 212 "/>
<path id="2" d="M235 171 C235 171 232.7554 167.7829 230 166 C224.686 162.5615 219.5811 160.4865 218 160 C217.9561 159.9865 217.2564 160.9745 217 162 C215.3193 168.7227 214.5462 169.0818 214 176 C213.0793 187.6624 213.2751 188.4009 214 200 C214.2454 203.9268 214.2165 204.9681 216 208 C218.6638 212.5285 224 217 224 217 "/>
<path id="3" d="M212 184 C212 184 210.7607 180.2173 210 180 C207.0955 179.1701 201.7684 178.4926 198 180 C194.4828 181.4069 190.8212 184.7154 190 188 C188.3782 194.4872 188.5344 199.7066 191 208 C193.4262 216.1608 196.1461 218.8517 201 225 C202.1596 226.4688 206 227 206 227 "/>
<path id="4" d="M191 204 C191 204 183.9263 202.9549 181 204 C179.3069 204.6047 177.4669 206.7823 177 209 C175.8811 214.3146 175.12 218.7273 177 223 C179.1271 227.8342 188 234 188 234 "/>
<path id="5" d="M184 231 C184 231 179.7157 246.5587 178 262 C176.2602 277.658 174.3875 280.2251 177 294 C179.3222 306.2443 181.4008 308.8122 189 320 C198.6355 334.1856 202.7281 332.9929 213 347 C218.6657 354.7259 218.0047 355.8343 222 365 C226.4626 375.2377 227.8396 375.6782 230 386 C232.1161 396.1101 228.8186 398.4564 231 408 C232.4328 414.2683 233.957 416.1484 238 421 C240.5045 424.0054 244.9891 423.7535 246 426 C247.8162 430.0359 245.4367 434.2259 247 441 C248.2475 446.4056 248.7138 447.4359 252 452 C257.2579 459.3026 259.1971 463.9275 265 466 C274.4643 469.3801 279.8514 467.9278 294 467 C309.808 465.9634 311.8508 465.7961 326 462 C330.5025 460.792 333.2957 458.9438 335 456 C337.1524 452.2823 337 443 337 443 "/>
<path id="6" d="M323 205 C323 205 321.0515 214.693 323 222 C326.5761 235.4105 331.6133 236.2115 335 250 C338.2273 263.1397 335.0035 265.0242 337 279 C337.9252 285.4766 340.6771 285.7027 341 292 C342.5896 322.9972 343.2585 328.0165 341 357 C340.5668 362.5593 336.6251 363.312 335 369 C333.9335 372.7327 333.9464 374.6284 335 378 C336.0024 381.2077 339.9922 385.014 340 385 C340.0295 384.947 340 369 340 369 "/>
<path id="7" d="M339 363 C339 363 336.8793 379.2158 339 393 C340.6421 403.674 344.8653 404.3267 347 415 C348.6281 423.1407 348.6317 425.0747 347 433 C345.419 440.6793 344.4192 442.0223 340 449 C335.3285 456.3761 328 463 328 463 "/>
</g>
</g>
</svg>
