<?xml version="1.0" encoding="utf-8"?>
<!DOCTYPE svg PUBLIC "-//W3C//DTD SVG 1.1//EN" "http://www.w3.org/Graphics/SVG/1.1/DTD/svg11.dtd">
<svg viewBox="0 0 800 800" preserveAspectRatio="xMinYMin meet" xmlns="http://www.w3.org/2000/svg" version="1.1">
<g fill="none" stroke="black" stroke-linecap="round" stroke-linejoin="round" stroke-width="0.76325">
<g transform="translate(173.9925,87.52) scale(3.9306) translate(-214,-132.3333)">
<path id="0" d="M286 132.3333 C286 132.3333 291.3965 141.6286 293 150.3333 C294.6626 159.3587 293.9488 160.8455 293 170.3333 C292.5114 175.2196 290.0967 175.593 290 180.3333 C289.6254 198.6891 295.0555 206.6414 292 219.3333 C290.5237 225.4657 284.1481 231.7215 277 234.3333 C263.5764 239.2381 257.7357 234.9107 240 238.3333 C229.9748 240.268 227.5548 240.9748 220 245.3333 C216.6638 247.2581 215.5502 249.7163 214 253.3333 C213.1202 255.3863 213.7846 259.2653 214 259.3333 C216.1596 260.0153 226.141 259.9866 233 259.3333 C233.7908 259.258 235.0129 257.3376 235 257.3333 C234.9228 257.3076 229.6681 256.2661 227 257.3333 C223.865 258.5873 221.613 260.7986 220 263.3333 C219.2286 264.5456 219.3821 267.7154 220 268.3333 C221.6065 269.9398 224.6858 271.4705 229 272.3333 C233.8425 273.3018 240 272.3333 240 272.3333 C240 272.3333 233.2837 271.4766 229 272.3333 C227.2087 272.6916 225.0643 274.6901 225 275.3333 C224.8733 276.6008 226.7502 281.7501 228 282.3333 C230.3933 283.4502 234.8238 283.3686 240 282.3333 C243.7959 281.5741 248 278.3336 248 278.3333 C248 278.3332 240.9515 279.1703 240 280.3333 C238.9067 281.6695 238.6016 288.8851 239 289.3333 C239.3929 289.7754 245.408 290.1973 248 289.3333 C249.248 288.9173 250.9988 285.3326 251 285.3333 C251.0138 285.3426 250.6691 291.1348 251 291.3333 C251.9191 291.8848 258.8417 292.3295 261 291.3333 C262.2452 290.7586 261.9853 287.5999 264 285.3333 C269.4759 279.1729 269.8845 277.5189 277 273.3333 C294.2358 263.1946 298.0888 265.48 315 255.3333 C321.6536 251.3412 323.078 249.2164 327 243.3333 C329.0264 240.2938 329.8891 236.6673 329 234.3333 C327.2937 229.8542 322.4467 228.4314 319 222.3333 C316.5211 217.9475 316.7721 216.7377 316 211.3333 C315.3244 206.6045 315.05 205.6083 316 201.3333 C316.8444 197.5334 318.9529 197.3908 320 193.3333 C322.786 182.5376 324 181.2942 324 170.3333 C324 156.5131 320 141.3333 320 141.3333 "/>
</g>
</g>
</svg>
