<?xml version="1.0" encoding="utf-8"?>
<!DOCTYPE svg PUBLIC "-//W3C//DTD SVG 1.1//EN" "http://www.w3.org/Graphics/SVG/1.1/DTD/svg11.dtd">
<svg viewBox="0 0 800 800" preserveAspectRatio="xMinYMin meet" xmlns="http://www.w3.org/2000/svg" version="1.1">
<g fill="none" stroke="black" stroke-linecap="round" stroke-linejoin="round" stroke-width="0.52803">
<g transform="translate(130.1309,87.52) scale(5.6815) translate(-193,-299.6667)">
<path id="0" d="M200 409.6667 C200 409.6667 197.3104 408.4944 197 407.6667 C196.404 406.0774 196.275 402.7542 197 401.6667 C197.8458 400.3979 202.9941 398.6902 203 398.6667 C203.0003 398.6654 198.5365 398.2032 198 397.6667 C197.6423 397.309 197.5986 394.0108 198 393.6667 C199.0204 392.7921 204.9944 391.6949 205 391.6667 C205.003 391.6517 200.5329 390.1995 199 388.6667 C198.1484 387.8151 197.7998 384.8669 198 384.6667 C198.6006 384.0661 205.0005 382.6671 205 382.6667 C204.9992 382.6658 199.0856 383.4381 196 382.6667 C194.7143 382.3453 193 380.4521 193 379.6667 C193 377.3104 194.8026 370.966 196 370.6667 C207.404 367.8157 225.0259 369.9352 245 366.6667 C247.7427 366.2179 250.8346 363.5139 251 361.6667 C252.8522 340.9835 251 299.6667 251 299.6667 "/>
<path id="1" d="M198 409.6667 C198 409.6667 243.0726 410.6576 275 406.6667 C279.9516 406.0477 284.7488 402.2278 286 398.6667 C289.1323 389.7517 290.3546 378.443 288 369.6667 C286.7188 364.8912 276.0034 362.6836 275 357.6667 C271.0002 337.6677 274 299.6667 274 299.6667 "/>
</g>
</g>
</svg>
