<?xml version="1.0" encoding="utf-8"?>
<!DOCTYPE svg PUBLIC "-//W3C//DTD SVG 1.1//EN" "http://www.w3.org/Graphics/SVG/1.1/DTD/svg11.dtd">
<svg viewBox="0 0 800 800" preserveAspectRatio="xMinYMin meet" xmlns="http://www.w3.org/2000/svg" version="1.1">
<g fill="none" stroke="black" stroke-linecap="round" stroke-linejoin="round" stroke-width="1.0897">
<g transform="translate(137.0763,87.52) scale(2.7531) translate(-231,-120.4167)">
<path id="0" d="M372 126.4167 C372 126.4167 374.1528 151.8392 372 176.4167 C368.2089 219.6982 360 263.4167 360 263.4167 "/>
<path id="1" d="M410 126.4167 C410 126.4167 412.12 175.4816 409 223.4167 C406.6647 259.2949 399 295.4167 399 295.4167 "/>
<path id="2" d="M361 261.4167 C361 261.4167 356.0243 267.969 351 269.4167 C329.9339 275.4866 326.2971 275.9317 302 278.4167 C283.0181 280.358 281.227 279.8748 263 278.4167 C257.7095 277.9934 256.6153 277.226 252 274.4167 C245.7866 270.6346 245.243 267.3294 240 264.4167 C238.2081 263.4212 234.1164 264.1451 234 264.4167 C233.3664 265.8951 233.0047 277.4214 234 278.4167 C235.1375 279.5541 249.0009 279.4133 249 279.4167 C248.9965 279.4306 236.9182 283.4111 232 286.4167 C231.2038 286.9032 230.9925 290.4146 231 290.4167 C232.9441 290.9469 253.9999 292.4165 254 292.4167 C254.0001 292.4168 241.4238 292.1256 234 293.4167 C232.704 293.6421 231.2947 295.1397 231 296.4167 C230.2019 299.8753 230.3695 302.3182 231 306.4167 C231.2086 307.7723 232.2809 309.3139 233 309.4167 C238.6258 310.2204 243.3675 310.4127 252 309.4167 C255.3377 309.0316 259 306.4165 259 306.4167 C259 306.417 252.8248 309.1255 252 311.4167 C249.7273 317.7297 249.2222 330.3611 250 331.4167 C250.453 332.0314 261.5752 331.1975 266 330.4167 C266.3701 330.3514 267 328.4164 267 328.4167 C266.9996 328.4192 262.9576 347.4065 263 347.4167 C269.183 348.9037 307.7369 349.4305 346 347.4167 C351.6533 347.1191 354.4042 345.2933 358 342.4167 C359.9327 340.8705 359.4662 336.9504 361 335.4167 C361.9203 334.4964 364.538 335.635 366 334.4167 C377.2781 325.0182 384.7982 321.1505 391 310.4167 C394.4809 304.3921 390.4893 295.4594 392 289.4167 C392.3021 288.2081 395.7458 288.1412 397 286.4167 C398.9243 283.7708 400 278.415 400 278.4167 C400 278.4255 399.6719 300.568 397 320.4167 C396.336 325.3496 395.6652 328.5129 393 330.4167 C385.5511 335.7373 380.8631 337.5695 369 340.4167 C357.101 343.2724 343 342.4167 343 342.4167 "/>
<path id="3" d="M241 286.4167 L241 301.4167 "/>
<path id="4" d="M241 304.4167 L241 311.4167 "/>
<path id="5" d="M253 314.4167 C253 314.4167 257.6226 325.228 260 335.4167 C260.9453 339.4681 260 344.4167 260 344.4167 "/>
<path id="6" d="M370 126.4167 C370 126.4167 369.3572 129.3453 370 130.4167 C371.5428 132.988 372.7411 133.882 376 136.4167 C381.5672 140.7467 382.0149 141.8145 388 144.4167 C392.5897 146.4122 393.6117 146.2582 399 146.4167 C410.1922 146.7459 420.3523 146.4366 422 145.4167 C422.3787 145.1822 422.2082 137.8331 420 133.4167 C417.537 128.4907 415.6586 126.7812 411 123.4167 C407.7932 121.1007 406.3707 120.8537 402 120.4167 C392.1306 119.4297 389.1327 119.1655 381 120.4167 C378.8253 120.7512 377.213 122.3372 376 124.4167 C374.3924 127.1726 374 132.4167 374 132.4167 "/>
</g>
</g>
</svg>
