<?xml version="1.0" encoding="utf-8"?>
<!DOCTYPE svg PUBLIC "-//W3C//DTD SVG 1.1//EN" "http://www.w3.org/Graphics/SVG/1.1/DTD/svg11.dtd">
<svg viewBox="0 0 800 800" preserveAspectRatio="xMinYMin meet" xmlns="http://www.w3.org/2000/svg" version="1.1">
<g fill="none" stroke="black" stroke-linecap="round" stroke-linejoin="round" stroke-width="1.5985">
<g transform="translate(156.0216,87.52) scale(1.8768) translate(-167,-49)">
<path id="0" d="M167 80 C167 80 169.496 96.5374 170 113 C170.9899 145.3364 168.2448 145.7489 170 178 C172.226 218.902 176.518 219.1404 178 260 C179.9983 315.0969 173.7374 347.1422 177 371 C177.245 372.7915 185.467 375.359 194 377 C210.8129 380.2333 211.5686 380.6259 229 381 C327.3815 383.1112 412.1761 392.2448 427 382 C433.3798 377.5909 420.5277 284.8822 420 249 C419.9884 248.2111 424.9669 246.9212 425 246 C426.9976 190.353 434.0977 79.8933 427 54 C426.2456 51.2477 398.9394 49.8623 371 49 C318.26 47.3722 317.0749 46.2592 265 49 C242.1946 50.2003 242.0421 54.0585 219 57 C195.2281 60.0347 189.5217 58.4578 171 61 C169.6984 61.1787 168.3982 62.6063 168 64 C166.8349 68.0779 166.7788 69.6902 167 75 C167.2641 81.3394 169 88 169 88 "/>
<path id="1" d="M198 80 C198 80 269.8387 81.797 341 80 C368.4326 79.3073 388.4777 72.9601 396 75 C397.3595 75.3687 399.5334 85.6173 400 96 C401.4982 129.3348 398.6901 130.2704 400 164 C400.6772 181.4379 405.1592 198.356 404 199 C398.9711 201.7939 364.4254 197.1469 337 199 C333.9964 199.2029 333.0889 203.7478 330 204 C291.9552 207.1057 284.369 206.6639 239 207 C217.0761 207.1624 195.813 207.1743 195 205 C190.0377 191.7288 196.437 147.9302 196 92 C195.9419 84.5674 194 77 194 77 "/>
<path id="2" d="M217 228 C217 228 213.0529 227.1202 211 228 C207.3829 229.5502 205.9794 230.7497 203 234 C201.0448 236.133 200.1623 237.566 200 240 C199.7679 243.4809 200.2154 246.5015 202 249 C203.8335 251.5669 206.2836 253.0709 210 254 C214.8213 255.2053 217.492 255.4344 222 254 C226.5934 252.5385 230.7752 249.7219 232 247 C233.3367 244.0296 232.5746 238.9863 231 234 C230.1038 231.162 228.7024 229.8709 226 228 C223.0251 225.9404 218 225 218 225 "/>
<path id="3" d="M279 229 C279 229 271.1454 229.5483 268 231 C266.9854 231.4683 266.0889 233.2223 266 235 C265.6542 241.9159 265.2637 247.1416 267 251 C267.8022 252.7826 271.3515 254.6781 275 255 C286.3181 255.9987 297.4832 255.563 301 254 C301.7832 253.6519 302.9902 247.1587 302 243 C300.9485 238.5837 299.5185 235.963 296 233 C291.5954 229.2909 289.1785 228.8536 283 227 C280.0777 226.1233 276.1276 226.9235 276 227 C275.9964 227.0022 278 230 278 230 "/>
<path id="4" d="M346 229 C346 229 328.0003 228.6998 326 230 C325.2444 230.4911 324.6624 237.5413 326 242 C327.0924 245.6413 329.1243 247.4118 332 250 C333.0675 250.9608 334.0392 250.8968 336 251 C343.2576 251.382 345.4521 252.3209 351 251 C353.6595 250.3668 355.8151 248.3698 357 246 C358.407 243.1859 359.0312 238.9478 358 237 C356.3816 233.9431 348 229 348 229 "/>
<path id="5" d="M408 228 C408 228 402.4798 225.7964 398 226 C392.5132 226.2494 389.6923 226.4154 386 229 C381.8887 231.8779 379.8202 235.5795 378 240 C377.2884 241.7282 377.8459 244.5895 379 246 C380.9542 248.3885 383.0101 249.7305 387 251 C393.0889 252.9374 397.6302 254.0109 401 253 C403.1124 252.3663 406.0093 248.6325 407 245 C408.4393 239.7225 407.7662 235.0863 407 231 C406.8598 230.2521 404 229 404 229 "/>
<path id="6" d="M310 280 C310 280 305.3142 276.8628 301 276 C296.1575 275.0315 295.1157 275.0865 290 276 C281.6788 277.4859 280.6778 277.5326 273 281 C265.798 284.2525 263.8225 284.9363 259 290 C255.1749 294.0164 253.8948 296.333 253 302 C251.2031 313.3801 251.7151 315.7938 253 328 C253.6138 333.8313 253.8246 336.0686 257 340 C262.7814 347.158 265.0189 348.6113 274 354 C284.2541 360.1524 286.1856 361.788 297 364 C305.9793 365.8367 308.8096 365.407 318 363 C328.2093 360.3261 333.9174 359.319 339 353 C348.2367 341.5166 350.3347 334.2034 355 317 C357.66 307.1912 356.3146 303.8594 355 294 C354.5694 290.7707 353.5413 289.5413 351 287 C345.6863 281.6863 344.6068 279.9837 338 277 C330.5293 273.6262 328.7312 273.8185 320 273 C313.3922 272.3805 306 274 306 274 "/>
<path id="7" d="M312 300 C312 300 302.1794 298.6835 293 299 C288.1266 299.168 287.1493 299.3403 283 301 C280.4643 302.0143 278.6226 303.1323 278 305 C276.059 310.8229 275.0285 315.4426 276 322 C276.6333 326.2747 278.6053 329.4539 282 332 C286.4635 335.3476 289.2058 335.5845 296 337 C300.5169 337.941 301.2087 337.6249 306 337 C312.4161 336.1631 313.338 336.2648 319 334 C322.5886 332.5646 325.1023 331.2444 326 329 C327.7725 324.5688 327.6008 320.6089 327 314 C326.7069 310.7762 326.1744 309.0657 324 307 C317.6008 300.9207 307 295 307 295 "/>
</g>
</g>
</svg>
