<?xml version="1.0" encoding="utf-8"?>
<!DOCTYPE svg PUBLIC "-//W3C//DTD SVG 1.1//EN" "http://www.w3.org/Graphics/SVG/1.1/DTD/svg11.dtd">
<svg viewBox="0 0 800 800" preserveAspectRatio="xMinYMin meet" xmlns="http://www.w3.org/2000/svg" version="1.1">
<g fill="none" stroke="black" stroke-linecap="round" stroke-linejoin="round" stroke-width="1.7713">
<g transform="translate(198.4546,87.52) scale(1.6937) translate(-170,-47.2167)">
<path id="0" d="M223 96.2167 C223 96.2167 266.2214 92.3526 290 96.2167 C295.3635 97.0882 301.1563 103.1432 303 109.2167 C307.8104 125.0627 303.9318 131.0181 307 152.2167 C309.3947 168.762 312.1514 168.8106 314 185.2167 C316.0851 203.7222 313.6156 204.3889 315 223.2167 C316.1015 238.1974 318.2343 238.2856 319 253.2167 C320.2168 276.9442 320.1959 278.4954 319 301.2167 C318.7718 305.5516 317.1459 309.9302 316 310.2167 C306.942 312.4812 294.8083 310.2747 275 312.2167 C270.0503 312.7019 269.8428 315.0149 265 315.2167 C235.3451 316.4523 233.8046 315.6505 203 315.2167 C198.5214 315.1536 195.6774 315.6704 194 314.2167 C191.2119 311.8003 190.0378 308.33 188 302.2167 C185.1859 293.7745 184.8083 293.1077 184 284.2167 C182.8556 271.6284 185.0791 270.8962 184 258.2167 C183.1143 247.8094 180.5581 247.2624 180 237.2167 C179.6085 230.1689 182 229.6319 182 222.2167 C182 167.8385 178.5109 156.1443 180 112.2167 C180.1111 108.9387 182.6837 106.8697 186 104.2167 C189.2628 101.6064 190.6332 100.8588 195 100.2167 C206.4528 98.5324 211.7199 100.9298 220 99.2167 C221.6538 98.8745 224 94.2167 224 94.2167 "/>
<path id="1" d="M190 122.2167 C190 122.2167 189.8844 159.5203 192 194.2167 C192.2987 199.1154 193.6963 203.7697 195 204.2167 C201.6288 206.4894 211.9637 204.0686 227 206.2167 C231.9234 206.92 232.2109 209.7255 237 210.2167 C250.3411 211.585 251.7437 211.3481 266 210.2167 C282.9094 208.8746 283.3008 207.9246 300 205.2167 C301.5169 204.9707 302.4598 204.9369 303 204.2167 C304.5374 202.1668 305.8331 200.2201 306 197.2167 C306.2535 192.6533 305.8203 190.6373 304 186.2167 C302.7593 183.2036 299.3104 182.7621 299 180.2167 C297.3563 166.7382 300.3237 162.0942 299 145.2167 C298.383 137.3499 295.9008 137.0984 295 129.2167 C293.96 120.117 295.3978 110.2907 295 110.2167 C285.3843 108.4277 248.5115 109.6247 209 113.2167 C202.7964 113.7806 202.1631 117.2704 196 119.2167 C193.5173 120.0007 190.15 118.9167 190 119.2167 C189.4 120.4167 190 131.2167 190 131.2167 "/>
<path id="2" d="M240 224.2167 C240 224.2167 235.2709 224.4239 233 226.2167 C227.1068 230.8692 222.7414 233.2461 221 239.2167 C217.2446 252.0925 218.0085 258.3528 219 274.2167 C219.3785 280.2722 220.9331 283.2061 224 287.2167 C225.8444 289.6286 227.9425 290.1696 232 291.2167 C242.7957 294.0027 243.8083 294.2292 255 295.2167 C260.2294 295.6781 262.0343 296.0193 266 294.2167 C271.2247 291.8418 273.6805 290.2749 277 285.2167 C283.0505 275.9968 284.2436 273.2421 287 262.2167 C288.8376 254.8663 287.9781 252.7154 287 245.2167 C286.6323 242.3974 286.072 241.1945 284 239.2167 C276.0897 231.6659 274.3989 230.6079 265 224.2167 C262.631 222.6057 261.7488 222.2167 259 222.2167 C249.3793 222.2167 238 224.2167 238 224.2167 "/>
<path id="3" d="M249 234.2167 C249 234.2167 251.9989 235.2189 252 235.2167 C252.0044 235.2078 250 232.2167 250 232.2167 "/>
<path id="4" d="M257 232.2167 C257 232.2167 257.5674 236.0436 258 236.2167 C259.4973 236.8156 267 236.2167 267 236.2167 "/>
<path id="5" d="M258 232.2167 C258 232.2167 266.7981 231.9763 268 232.2167 C268.0481 232.2263 268 234.2167 268 234.2167 "/>
<path id="6" d="M231 234.2167 C231 234.2167 232.408 241.0821 233 241.2167 C236.2221 241.949 252.9424 239.2311 253 239.2167 C253.0098 239.2142 249.8935 238.2888 249 237.2167 C248.1903 236.245 248.355 233.3002 248 233.2167 C245.0742 232.5282 232 233.2167 232 233.2167 "/>
<path id="7" d="M272 260.2167 C272 260.2167 278.6524 259.985 279 260.2167 C279.0828 260.2718 278.6246 263.7705 278 264.2167 C276.9127 264.9933 272 265.2167 272 265.2167 "/>
<path id="8" d="M271 264.2167 L271 263.2167 "/>
<path id="9" d="M225 264.2167 C225 264.2167 229.4107 263.6207 231 264.2167 C231.8278 264.5271 233 266.2399 233 267.2167 C233 269.1703 231.5 272.9667 231 273.2167 C230.5 273.4667 225.8662 272.0829 225 271.2167 C224.5669 270.7835 225 267.2167 225 267.2167 "/>
<path id="10" d="M253 281.2167 C253 281.2167 252.5469 287.9511 253 290.2167 C253.0705 290.5691 254.1996 291.2167 255 291.2167 C257.0011 291.2167 259.6684 290.7471 260 290.2167 C260.5626 289.3164 260 283.2167 260 283.2167 "/>
<path id="11" d="M260 282.2167 L255 282.2167 "/>
<path id="12" d="M248 256.2167 C248 256.2167 256.6095 256.8261 257 257.2167 C257.1562 257.3729 256.5174 261.1302 255 263.2167 C253.094 265.8375 249.0388 268.2444 249 268.2167 C248.8699 268.1237 248 258.2167 248 258.2167 "/>
<path id="13" d="M181 107.2167 C181 107.2167 183.8573 98.4307 188 92.2167 C190.2469 88.8463 191.9551 86.555 195 86.2167 C231.7591 82.1323 261.3343 83.1485 287 81.2167 C287.3197 81.1926 287.6889 79.2478 288 79.2167 C292.925 78.7242 298.2195 78.0459 307 79.2167 C312.3299 79.9273 315.7582 80.5792 318 83.2167 C321.5433 87.3852 323.3487 91.4946 324 99.2167 C326.6469 130.6009 322.9759 134.6402 325 166.2167 C325.3397 171.5166 328.3072 171.751 329 177.2167 C332.6507 206.0168 332.3365 207.2742 334 237.2167 C334.8279 252.1189 335.53 256.5069 334 267.2167 C333.7086 269.2566 330.0127 269.6849 329 272.2167 C326.6563 278.0759 328.4925 280.419 326 287.2167 C323.2237 294.7884 318 302.2167 318 302.2167 "/>
<path id="14" d="M265 86.2167 L263 67.2167 "/>
<path id="15" d="M263 63.2167 C263 63.2167 266.99 63.1467 267 63.2167 C267.49 66.6467 267 91.2167 267 91.2167 "/>
<path id="16" d="M266 62.2167 C266 62.2167 268.6273 55.4162 272 53.2167 C277.9423 49.3412 280.7556 49.0487 289 47.2167 C293.4969 46.2173 294.6624 46.0118 299 47.2167 C311.4826 50.6841 313.0424 51.0988 325 57.2167 C333.8923 61.7662 334.3845 62.5242 342 69.2167 C350.5539 76.7337 353.3026 76.9364 358 86.2167 C372.3464 114.5595 372.145 118.4269 383 150.2167 C385.847 158.5542 383.8721 160.4144 386 168.2167 C386.5448 170.2143 388.8533 170.5051 389 172.2167 C390.0683 184.6801 387.0544 188.7638 389 203.2167 C390.3771 213.4467 394.2087 213.9806 396 224.2167 C397.5314 232.9674 398.0147 234.6542 396 243.2167 C390.405 266.9955 389.2116 268.8334 380 292.2167 C376.5122 301.0703 375.9195 303.7054 370 309.2167 C363.5114 315.2577 360.7015 315.1318 351 319.2167 C342.0025 323.0051 341.5558 323.343 332 325.2167 C316.473 328.2612 315.9382 328.1541 300 329.2167 C286.1694 330.1387 283.5469 326.5142 272 329.2167 C263.1029 331.2989 260.7146 333.8797 253 340.2167 C247.8111 344.479 246.673 346.8707 244 352.2167 C243.028 354.1607 242.943 356.6312 244 358.2167 C249.0499 365.7915 251.672 368.5549 260 376.2167 C263.4785 379.4169 264.6599 380.4571 269 381.2167 C282.7785 383.6279 286.3152 381.316 300 383.2167 C302.3699 383.5458 302.8251 386.1429 305 386.2167 C328.0066 386.9965 333.329 387.1614 359 385.2167 C364.8405 384.7742 365.1632 381.8837 371 381.2167 C381.7767 379.985 394 381.2167 394 381.2167 "/>
<path id="17" d="M244 353.2167 C244 353.2167 244.462 363.1719 242 367.2167 C239.3621 371.5503 236.2348 373.5915 230 376.2167 C218.5695 381.0295 216.0459 379.0759 204 383.2167 C200.8726 384.2917 200.8277 386.6511 198 387.2167 C190.0158 388.8135 179 388.2167 179 388.2167 "/>
<path id="18" d="M396 382.2167 C396 382.2167 393.3125 382.5916 393 383.2167 C391.1248 386.9671 388.5855 395.3284 389 396.2167 C389.2656 396.7858 396.0763 398.6783 400 398.2167 C402.3585 397.9392 405.0783 396.1753 406 394.2167 C407.8831 390.215 408.4886 381.9224 408 381.2167 C407.6797 380.754 397 381.2167 397 381.2167 "/>
<path id="19" d="M180 389.2167 C180 389.2167 175.1378 415.941 175 416.2167 C174.979 416.2587 170 409.2167 170 409.2167 "/>
<path id="20" d="M170 407.2167 L170 397.2167 "/>
<path id="21" d="M170 395.2167 L174 389.2167 "/>
<path id="22" d="M177 387.2167 L181 387.2167 "/>
</g>
</g>
</svg>
