<?xml version="1.0" encoding="utf-8"?>
<!DOCTYPE svg PUBLIC "-//W3C//DTD SVG 1.1//EN" "http://www.w3.org/Graphics/SVG/1.1/DTD/svg11.dtd">
<svg viewBox="0 0 800 800" preserveAspectRatio="xMinYMin meet" xmlns="http://www.w3.org/2000/svg" version="1.1">
<g fill="none" stroke="black" stroke-linecap="round" stroke-linejoin="round" stroke-width="0.81125">
<g transform="translate(263.1744,87.52) scale(3.698) translate(-236,-96)">
<path id="0" d="M253 99 C253 99 253 97 253 97 C259.6341 97 309.2111 96.5896 310 99 C316.188 117.9079 313.4413 242.9104 307 262 C306.3109 264.0422 280.637 260.9167 255 262 C245.5701 262.3984 236.0288 265.123 236 265 C234.3369 257.9099 233.1182 222.21 236 181 C238.0481 151.7118 242.0549 151.4086 246 122 C247.5125 110.7251 245.6874 107.532 247 99 C247.1962 97.7245 248.908 96.2427 250 96 C251.7208 95.6176 256 97 256 97 "/>
<path id="1" d="M256 181 C256 181 263.3588 173.7477 270 172 C279.8443 169.4094 283.4819 170.6244 294 171 C295.787 171.0638 297.1978 171.7521 298 173 C300.67 177.1533 302.0044 179.2258 303 185 C304.3158 192.6319 303.9633 194.2938 303 202 C302.5821 205.3431 301.9659 205.9618 300 209 C296.6631 214.157 296.2129 215.3488 292 219 C289.5733 221.1031 288.3999 221.5613 285 222 C273.8948 223.4329 271.5181 223.3756 261 223 C259.213 222.9362 257.9165 222.2601 257 221 C254.7767 217.943 253.5718 216.2884 253 212 C251.7405 202.5534 251.5876 200.6041 253 191 C253.9238 184.7183 258 178 258 178 "/>
<path id="2" d="M274 191 C274 191 276.7818 195.5244 280 198 C282.6311 200.0239 287.0076 200.9937 287 201 C286.9752 201.0207 274.4308 203.235 274 203 C273.9145 202.9534 276 195 276 195 "/>
</g>
</g>
</svg>
