<?xml version="1.0" encoding="utf-8"?>
<!DOCTYPE svg PUBLIC "-//W3C//DTD SVG 1.1//EN" "http://www.w3.org/Graphics/SVG/1.1/DTD/svg11.dtd">
<svg viewBox="0 0 800 800" preserveAspectRatio="xMinYMin meet" xmlns="http://www.w3.org/2000/svg" version="1.1">
<g fill="none" stroke="black" stroke-linecap="round" stroke-linejoin="round" stroke-width="1.2385">
<g transform="translate(257.0828,87.52) scale(2.4223) translate(-227,-113)">
<path id="0" d="M227 118 C227 118 226.2792 189.587 228 261 C229.2768 313.9867 233 367 233 367 "/>
<path id="1" d="M228 119 C228 119 245.9025 120.6576 263 120 C271.3701 119.6781 271.5482 117.4631 280 117 C307.6017 115.4876 309.6617 117.6461 336 116 C339.8465 115.7596 344 113 344 113 "/>
<path id="2" d="M343 114 C343 114 344.9237 123.5447 345 133 C345.9183 246.8643 345 362 345 362 "/>
<path id="3" d="M235 368 C235 368 246.3776 369.5742 257 369 C264.3389 368.6033 265.7418 365.553 272 366 C277.6535 366.4038 278.7367 370.2544 285 371 C298.3603 372.5905 299.7986 372.2035 314 371 C328.8986 369.7374 344 366 344 366 "/>
<path id="4" d="M239 138 L242 237 "/>
<path id="5" d="M241 139 C241 139 244.6973 141.8328 248 142 C281.2724 143.6847 285.5212 143.4364 320 143 C323.3648 142.9574 324.5671 142.4598 327 141 C328.6022 140.0387 330 137 330 137 "/>
<path id="6" d="M331 140 L332 232 "/>
<path id="7" d="M243 237 L331 237 "/>
<path id="8" d="M284 271 C284 271 279.5722 272.0085 278 274 C273.3048 279.9473 272.8921 281.8914 269 290 C267.0003 294.166 266.5979 294.6153 266 299 C265.1739 305.0581 265.3367 306.0303 266 312 C266.2665 314.3981 266.4466 315.4466 268 317 C276.2108 325.2108 278.7721 328.8093 288 334 C291.9214 336.2058 296.3572 336.4571 300 335 C305.4642 332.8143 309.1445 329.5423 313 324 C315.7097 320.1047 315.494 317.9036 316 312 C316.9495 300.9222 317.3095 299.149 316 289 C315.5151 285.2422 314.5559 284.2862 312 281 C307.9105 275.7421 306.632 273.0381 302 271 C297.0335 268.8147 287 270 287 270 "/>
<path id="9" d="M288 285 C288 285 281.6708 291.9435 280 298 C278.2421 304.3723 278.4998 309.4994 280 314 C280.6876 316.0628 283.8369 318.3674 287 319 C294.117 320.4234 297.8431 319.9759 305 319 C306.7531 318.7609 308.8097 317.1416 309 316 C310.0897 309.4616 311.5159 299.3329 309 295 C306.5498 290.7803 291 285 291 285 "/>
<path id="10" d="M286 302 L287 308 "/>
<path id="11" d="M287 302 C287 302 292.9873 303.9239 293 304 C293.0134 304.0803 288 308 288 308 "/>
<path id="12" d="M298 301 L298 306 "/>
<path id="13" d="M301 300 L301 303 "/>
<path id="14" d="M292 274 L292 279 "/>
<path id="15" d="M289 277 L296 277 "/>
<path id="16" d="M291 328 L297 328 "/>
<path id="17" d="M313 303 L314 307 "/>
<path id="18" d="M313 304 C313 304 316.0003 304.9997 316 305 C315.9993 305.0007 312 305 312 305 "/>
<path id="19" d="M320 303 L320 308 "/>
<path id="20" d="M322 303 C322 303 327.9992 303.9983 328 304 C328.0003 304.0006 323 305 323 305 "/>
<path id="21" d="M275 302 L274 308 "/>
<path id="22" d="M273 302 C273 302 269.9959 303.9973 270 304 C270.0146 304.0098 276 304 276 304 "/>
<path id="23" d="M268 300 L266 306 "/>
<path id="24" d="M267 300 C267 300 262.5388 299.7845 262 300 C261.9138 300.0345 261.925 301.975 262 302 C262.675 302.225 268 302 268 302 "/>
</g>
</g>
</svg>
