<?xml version="1.0" encoding="utf-8"?>
<!DOCTYPE svg PUBLIC "-//W3C//DTD SVG 1.1//EN" "http://www.w3.org/Graphics/SVG/1.1/DTD/svg11.dtd">
<svg viewBox="0 0 800 800" preserveAspectRatio="xMinYMin meet" xmlns="http://www.w3.org/2000/svg" version="1.1">
<g fill="none" stroke="black" stroke-linecap="round" stroke-linejoin="round" stroke-width="1.3969">
<g transform="translate(87.52,204.5658) scale(2.1476) translate(-209,-98)">
<path id="0" d="M261 252 C261 252 254.0769 241.3845 252 231 C248.3927 212.9637 249 210.7785 249 192 C249 184.7775 249.2753 183.6414 252 177 C256.9242 164.9972 257.4928 163.8724 265 153 C271.6128 143.4228 273.8256 141.4911 281 135 C282.3121 133.8128 284.2755 135.1496 286 134 C292.1877 129.8748 292.03 127.4918 299 123 C314.1274 113.2512 314.7381 112.6707 331 105 C340.7602 100.3961 341.814 98.926 352 98 C378.3637 95.6033 381.0548 95.9535 408 98 C419.286 98.8572 422.0195 98.6407 431 104 C450.4269 115.5935 453.1039 118.4168 470 135 C478.9055 143.7406 479.5355 145.6157 485 157 C491.0483 169.6007 492.0472 171.3301 494 185 C496.3339 201.3372 495.3445 203.1935 494 220 C493.4115 227.3565 492.8251 228.0458 490 235 C486.4898 243.6405 486.3313 247.8873 481 252 C472.8721 258.2701 467.5432 260.371 455 262 C431.5666 265.0433 422.2805 258.1223 404 262 C397.5589 263.3663 395.9546 271.0324 389 276 C387.1322 277.3341 385.9663 276.9537 383 277 C354.4002 277.4469 340.1672 276.4859 325 277 C324.7208 277.0095 324.3916 278.9161 324 279 C320.3776 279.7762 317.4887 279.8558 311 280 C295.055 280.3543 291.4444 282.1247 279 280 C275.0353 279.3231 272.7907 276.5518 270 273 C268.3001 270.8365 269.7166 268.4969 268 266 C264.887 261.472 259.5057 260.1355 259 257 C257.9667 250.5936 259.8067 240.0717 263 235 C264.7173 232.2726 269.8981 230.904 276 230 C282.1512 229.0887 283.9109 229.5502 290 231 C293.4009 231.8097 294.2381 232.4427 297 235 C307.1779 244.424 308.0173 252.1251 317 256 C326.7161 260.1913 338.3142 259.8617 348 257 C353.4057 255.4029 356.1785 250.3591 361 243 C365.0536 236.813 365.4489 235.2385 367 228 C368.2382 222.2219 368.4878 218.5336 367 215 C365.9278 212.4536 362.9168 210.1016 359 209 C348.9554 206.175 341.9607 209.0163 335 206 C332.157 204.768 330.6402 200.6473 329 196 C328.0525 193.3154 328.125 191.8 329 189 C330.3203 184.775 330.9881 182.5099 334 180 C338.3371 176.3857 340.4982 175.8576 347 174 C353.8805 172.0341 354.7191 172 362 172 C370.7371 172 374.6876 171.154 380 174 C384.7255 176.5315 386.9089 180.3762 390 187 C393.3011 194.0738 391.1315 196.255 394 204 C395.897 209.1219 396.3946 210.1825 400 214 C404.2318 218.4808 405.972 220.2511 411 222 C415.3777 223.5227 421.0385 223.7436 423 222 C428.939 216.7209 433.4154 209.0031 438 198 C439.8187 193.6351 439.0352 191.1762 438 186 C437.2408 182.2041 435.9546 180.1989 434 178 C433.2295 177.1331 430.9678 178.0162 430 177 C422.9089 169.5543 421.1671 167.2387 414 157 C410.8989 152.5698 410.2249 151.8995 409 147 C407.4485 140.794 407.2973 136.9819 408 133 C408.1884 131.9325 410.1619 130.3197 412 130 C419.7945 128.6444 424.7447 131.0017 431 129 C433.6679 128.1463 435.902 125.294 437 122 C438.7487 116.754 438 108 438 108 "/>
<path id="1" d="M302 129 C302 129 298.9649 128.4486 298 129 C296.7249 129.7286 295.6066 130.9781 295 133 C292.908 139.9734 290.5073 146.2944 292 149 C294.4436 153.4291 304.5581 155.8649 311 162 C312.7791 163.6944 312.2875 167.7532 313 169 C313.1 169.175 314.9882 168.9471 315 169 C315.2382 170.0721 315.7764 174.1178 315 178 C314.4306 180.8469 314.0749 182.2444 312 184 C302.6138 191.9422 297.9612 191.6789 289 200 C285.6184 203.14 284.8456 205.2644 284 210 C282.6026 217.8254 281.4467 222.0956 284 228 C287.6766 236.502 295.2797 238.7395 300 247 C301.5095 249.6417 301.1251 253.7497 300 256 C298.9374 258.1253 294.3114 258.5229 293 261 C291.0329 264.7156 290.2385 272.0628 291 273 C292.1881 274.4622 306 277 306 277 "/>
<path id="2" d="M302 129 C302 129 304.3417 129.5348 305 129 C310.1702 124.7992 312.0956 118.2341 318 116 C326.0328 112.9605 333.2504 112.8717 342 115 C347.6837 116.3825 353.4384 120.6497 355 125 C358.126 133.7082 353.5884 142.5451 356 154 C356.8647 158.1073 359.0164 160.1783 363 163 C369.751 167.7819 371.8845 169.145 380 171 C387.7584 172.7734 389.7189 172.2939 398 171 C404.8003 169.9375 405.2025 167.3595 412 166 C416.9849 165.003 418.7635 164.5335 423 166 C429.9769 168.4151 432.068 169.9154 438 175 C441.5816 178.0699 442.8436 179.705 444 184 C445.8812 190.9872 445.7442 196.0384 445 201 C444.841 202.06 442.7557 203.8244 441 204 C426.2601 205.474 419.9858 202.0028 405 205 C398.4592 206.3082 396.8723 209.0549 391 214 C388.0352 216.4967 386.8662 217.6794 386 221 C384.3038 227.5021 384.1439 230.7217 385 237 C385.3532 239.5905 386.7685 241.3264 389 243 C391.691 245.0182 392.9592 244.6531 397 246 C401.9388 247.6463 402.201 248.7406 407 249 C419.7251 249.6878 421.6529 250.5626 434 248 C446.741 245.3556 449.3113 244.1078 460 238 C464.9592 235.1662 465.9463 233.3439 469 228 C473.4365 220.2362 474.5142 218.7024 476 210 C477.7803 199.5726 477.9217 195.7848 476 187 C475.1201 182.9776 472.2018 179.5247 469 178 C464.893 176.0443 458.8905 177.7781 455 177 C454.6164 176.9233 454.2779 175.0087 454 175 C437.5225 174.4851 416.7743 176.841 391 175 C387.9901 174.785 386.6838 172.8902 384 170 C380.5994 166.3378 379.4639 165.1477 378 161 C376.9466 158.0154 376.5801 155.2589 378 153 C385.2466 141.4713 393.2124 137.724 400 126 C401.8789 122.7546 400.7282 118.1555 400 115 C399.8218 114.2277 398.3391 113.1057 397 113 C382.1252 111.8257 378.2642 110.4656 362 112 C353.3492 112.8161 350.8326 113.4449 344 118 C334.6828 124.2115 330.4444 127.8129 326 136 C323.1925 141.1717 322.723 149.2051 325 153 C329.3318 160.2196 338.3691 161.4763 347 171 C351.6283 176.107 351.9697 178.1476 354 185 C355.6795 190.6683 355.3182 197.8987 355 198 C350.4017 199.4631 325.7396 202.4102 310 199 C303.662 197.6268 301.5953 192.5374 295 185 C287.8577 176.8373 287.2701 169.5598 282 167 C276.7853 164.4671 264.0956 165.7247 260 168 C257.6798 169.289 255.5727 175.5092 255 182 C254.2138 190.9099 255.1479 198.6046 257 202 C257.6546 203.2001 262.6184 202.1743 267 204 C274.0105 206.9211 273.8863 208.5978 281 212 C285.1641 213.9915 285.6256 214.5313 290 215 C298.9164 215.9553 300.3696 216.5898 309 215 C318.2161 213.3023 319.4643 210.0486 328 208 C330.3774 207.4294 332.1757 207.8391 334 209 C336.4241 210.5426 338.1585 212.3073 339 215 C340.1127 218.5605 340.6248 222.0753 339 225 C334.8837 232.4093 329.7722 234.0633 324 242 C322.8155 243.6287 322.5973 244.9863 323 247 C324.3424 253.7122 324.7215 257.6287 328 262 C330.1857 264.9142 333.2787 266.2623 338 267 C347.6341 268.5053 351.6675 268.4879 360 267 C362.6107 266.5338 364.5187 264.6335 366 262 C368.2441 258.0104 368.596 256.3862 369 251 C370.0436 237.0847 370.059 233.6487 369 222 C368.844 220.2837 366.3583 219.7913 366 218 C365.1433 213.7163 364.9573 209.433 366 207 C366.5281 205.7677 369.1208 204.3971 372 204 C382.3868 202.5673 388.545 200.4897 395 203 C400.3765 205.0909 400.8045 212.4975 408 218 C416.6485 224.6135 418.9965 227.1812 429 229 C448.6512 232.573 456.8878 232.9004 474 230 C480.0556 228.9736 481.5402 224.8981 488 219 C492.8711 214.5525 494.473 214.054 497 209 C499.7013 203.5974 499.2308 201.923 500 195 C500.6977 188.721 501.2335 187.4274 500 182 C499.0382 177.7681 498.1281 175.5594 495 173 C488.8358 167.9566 485.7232 169.2319 478 164 C470.6004 158.9873 469.3864 154.1546 464 152 C461.0776 150.831 456.9167 151.7862 453 154 C447.118 157.3246 444.3697 160.5071 441 165 C440.1576 166.1232 441 170 441 170 "/>
<path id="3" d="M339 104 C339 104 332.4101 101.5061 326 101 C313.8935 100.0442 304.1051 100.7516 301 101 C300.9801 101.0016 301.166 102.9225 301 103 C297.9176 104.4384 291.7788 103.9264 286 108 C263.294 124.0059 260.5641 126.133 240 146 C232.2042 153.5316 232.6632 155.1419 227 165 C219.2883 178.4241 219.1991 178.8799 213 193 C210.3211 199.1019 209.7055 199.6501 209 206 C207.793 216.863 208.0941 217.8273 209 229 C209.561 235.9189 209.6951 236.5976 212 243 C214.0114 248.5872 214.4943 249.6853 218 254 C220.3601 256.9048 221.8816 258.5275 225 259 C235.4514 260.5835 242.8051 256.1965 251 259 C256.184 260.7735 257.9385 268.71 263 272 C264.9801 273.287 268.7825 272.6653 271 272 C271.8038 271.7588 273 269 273 269 "/>
<path id="4" d="M221 250 C221 250 220.1891 242.0243 222 238 C223.6873 234.2505 225.6389 233.1717 230 230 C236.2547 225.4511 239.0522 226.3981 244 222 C246.6041 219.6852 247.2004 217.7983 248 214 C248.9948 209.2748 248.6317 203.3446 248 203 C245.6263 201.7053 234.23 203.0288 226 202 C225.163 201.8954 224.614 201.1052 224 200 C222.2896 196.9213 221.1927 195.8907 221 193 C220.7894 189.8416 221.3327 186.0957 223 185 C232.8463 178.5296 243.3042 177.5489 256 170 C258.472 168.5301 259.7863 165.9924 260 163 C260.6119 154.4335 257.1722 149.4499 258 142 C258.2612 139.6495 260.8598 136.5351 263 136 C270.6554 134.0861 277.8062 137.185 286 135 C289.1226 134.1673 291.6088 131.4007 293 128 C295.231 122.5464 293.4672 114.4426 295 113 C296.516 111.5732 304.3069 111.4007 310 112 C311.6496 112.1736 314 115 314 115 "/>
</g>
</g>
</svg>
