<?xml version="1.0" encoding="utf-8"?>
<!DOCTYPE svg PUBLIC "-//W3C//DTD SVG 1.1//EN" "http://www.w3.org/Graphics/SVG/1.1/DTD/svg11.dtd">
<svg viewBox="0 0 800 800" preserveAspectRatio="xMinYMin meet" xmlns="http://www.w3.org/2000/svg" version="1.1">
<g fill="none" stroke="black" stroke-linecap="round" stroke-linejoin="round" stroke-width="0.35522">
<g transform="translate(104.4108,87.52) scale(8.4454) translate(-190.5,-296.6667)">
<path id="0" d="M230.5 369.6667 C230.5 369.6667 221.0803 367.2048 214.5 362.6667 C207.5602 357.8806 206.199 355.7082 201.5 349.6667 C200.3253 348.1563 201.2189 345.3856 200.5 344.6667 C199.7811 343.9477 196.2108 344.5907 195.5 343.6667 C193.1759 340.6453 191.2742 337.2795 190.5 331.6667 C189.4713 324.2084 190.3951 322.4012 191.5 314.6667 C191.7762 312.733 192.1018 311.8651 193.5 310.6667 C201.4846 303.8228 203.9919 300.774 212.5 296.6667 C215.803 295.0721 218.6034 295.1923 222.5 296.6667 C235.0851 301.4286 238.9641 304.1271 249.5 310.6667 C250.8234 311.4881 250.4278 313.7732 251.5 314.6667 C252.4717 315.4764 254.9376 314.8544 255.5 315.6667 C257.8069 318.9988 259.7629 321.9175 260.5 327.6667 C262.0743 339.9463 263.5821 346.2424 260.5 354.6667 C258.2755 360.7471 252.6738 365.0798 245.5 368.6667 C239.6305 371.6014 233.1933 371.136 228.5 370.6667 C227.5502 370.5717 225.5 366.6667 225.5 366.6667 "/>
<path id="1" d="M225.5 366.6667 C225.5 366.6667 229.4765 362.6526 229.5 362.6667 C229.5765 362.7126 230.5 369.6667 230.5 369.6667 "/>
<path id="2" d="M219.5 363.6667 C219.5 363.6667 216.8378 363.1171 216.5 362.6667 C216.1882 362.2509 216.077 360.1743 216.5 359.6667 C217.5105 358.454 219.4186 357.0451 221.5 356.6667 C223.6838 356.2696 227.3426 357.3519 227.5 357.6667 C227.7361 358.1388 225.5 364.6667 225.5 364.6667 "/>
<path id="3" d="M214.5 359.6667 C214.5 359.6667 211.0076 357.9356 210.5 356.6667 C209.7276 354.7356 209.6972 351.2723 210.5 349.6667 C211.1308 348.4051 215.4983 346.664 215.5 346.6667 C215.6457 346.8997 215.5 357.6667 215.5 357.6667 "/>
<path id="4" d="M215.5 356.6667 C215.5 356.6667 217.828 350.9324 220.5 347.6667 C221.5762 346.3513 222.604 346.2084 224.5 345.6667 C225.7442 345.3112 227.4791 345.5937 227.5 345.6667 C227.6634 346.2387 226.5 352.6667 226.5 352.6667 "/>
<path id="5" d="M225.5 356.6667 C225.5 356.6667 241.2691 355.6134 241.5 355.6667 C241.5304 355.6737 240.0748 358.8077 238.5 359.6667 C235.7372 361.1736 230.5 361.6667 230.5 361.6667 "/>
<path id="6" d="M225.5 348.6667 C225.5 348.6667 231.5955 346.5536 232.5 346.6667 C232.6843 346.6897 233.7166 349.2336 233.5 349.6667 C233.0669 350.5329 229.5 352.6667 229.5 352.6667 "/>
<path id="7" d="M232.5 350.6667 C232.5 350.6667 240.6403 350.1891 241.5 350.6667 C241.7653 350.8141 241.6985 355.5533 241.5 355.6667 C241.0535 355.9218 234.5 354.6667 234.5 354.6667 "/>
<path id="8" d="M210.5 344.6667 C210.5 344.6667 215.4723 349.6778 215.5 349.6667 C215.5259 349.6563 216.2724 344.5977 215.5 342.6667 C214.9924 341.3977 211.5975 339.6277 211.5 339.6667 C211.3955 339.7085 210.5 344.6667 210.5 344.6667 "/>
<path id="9" d="M216.5 339.6667 C216.5 339.6667 219.7265 339.0866 220.5 339.6667 C222.1436 340.8994 223.6611 344.9676 224.5 345.6667 C224.6087 345.7573 226.4731 344.9356 226.5 344.6667 C226.6995 342.672 226.1877 336.6982 225.5 335.6667 C225.2629 335.311 220.687 335.5264 220.5 335.6667 C220.4532 335.7017 221.5 338.6667 221.5 338.6667 "/>
<path id="10" d="M200.5 330.6667 C200.5 330.6667 201.3164 337.5442 201.5 337.6667 C201.5972 337.7315 205.6089 335.9143 206.5 334.6667 C207.0424 333.9073 206.5458 330.6972 206.5 330.6667 C206.4714 330.6476 203.5004 332.667 203.5 332.6667 C203.4996 332.6663 205.5 329.6667 205.5 329.6667 "/>
<path id="11" d="M204.5 319.6667 C204.5 319.6667 204.6009 327.1681 205.5 328.6667 C205.8746 329.2911 210.3904 329.8311 210.5 329.6667 C211.0012 328.9149 211.5994 320.6602 211.5 319.6667 C211.498 319.6466 209.737 319.3902 209.5 319.6667 C208.0582 321.3488 205.5108 326.6532 205.5 326.6667 C205.4979 326.6693 205.3821 324.7172 205.5 324.6667 C206.5221 324.2286 209.5761 324.8978 212.5 323.6667 C218.3893 321.187 224.5 316.6667 224.5 316.6667 "/>
<path id="12" d="M225.5 312.6667 C225.5 312.6667 220.5647 317.6408 220.5 317.6667 C220.4889 317.6711 220.5 314.6667 220.5 314.6667 "/>
<path id="13" d="M220.5 314.6667 C220.5 314.6667 219.8557 318.6358 220.5 319.6667 C221.2893 320.9295 225.2289 322.8543 225.5 322.6667 C227.0122 321.6198 233.4975 310.6636 233.5 310.6667 C233.5074 310.6755 230.1773 325.4398 230.5 328.6667 C230.5456 329.1224 235.4608 330.7255 235.5 330.6667 C235.8433 330.1517 236.5 319.6667 236.5 319.6667 C236.5 319.6667 235.4711 326.2937 236.5 330.6667 C237.1493 333.4261 239.6611 335.9676 240.5 336.6667 C240.6087 336.7573 242.2698 336.2257 242.5 335.6667 C244.7797 330.1303 246.6423 325.0985 247.5 319.6667 C247.6371 318.7983 245.7743 316.6667 245.5 316.6667 C244.8141 316.6667 241.8148 317.7884 240.5 319.6667 C235.787 326.3995 233.2105 331.7794 231.5 336.6667 C231.3048 337.2245 233.438 339.6899 233.5 339.6667 C234.0843 339.4476 238.8727 335.2348 239.5 333.6667 C239.739 333.0693 237.8383 329.7043 237.5 329.6667 C236.5773 329.5642 231.0833 331.4168 230.5 332.6667 C229.3831 335.06 230.1348 343.8633 230.5 344.6667 C230.5387 344.7519 233.9876 344.7253 235.5 343.6667 C237.9411 341.9579 239.7553 340.3476 240.5 337.6667 C241.7094 333.3127 241.456 329.2517 240.5 325.6667 C240.176 324.4517 237.0173 322.5517 236.5 322.6667 C235.5516 322.8774 232.345 325.4697 231.5 327.6667 C230.5236 330.2053 231.1197 335.3339 231.5 335.6667 C231.8871 336.0053 239.1546 335.3142 239.5 334.6667 C240.4181 332.9453 240.9943 323.8213 239.5 320.6667 C238.5113 318.5794 234.4684 316.5485 230.5 315.6667 C227.0549 314.9011 222.4295 315.7372 221.5 316.6667 C220.5705 317.5962 220.5 325.6666 220.5 325.6667 C220.5 325.6667 221.1557 321.6338 220.5 319.6667 C220.0629 318.3553 218.9987 317.2019 217.5 316.6667 C213.188 315.1267 208.5651 313.9783 206.5 314.6667 C205.2343 315.0886 203.3213 318.3817 202.5 321.6667 C201.5761 325.3623 201.7286 327.581 202.5 330.6667 C202.8214 331.9524 204.6929 333.5658 205.5 333.6667 C206.6359 333.8087 209.4301 332.8894 210.5 331.6667 C211.8006 330.1802 212.4993 325.666 212.5 325.6667 C212.5013 325.668 212.1 333.4667 212.5 333.6667 C214.1 334.4667 222.1626 334.6173 228.5 333.6667 C230.2626 333.4023 232.3538 331.0321 232.5 330.6667 C232.5381 330.5713 231.1156 328.6667 230.5 328.6667 C227.1142 328.6667 221.9758 328.8511 219.5 330.6667 C217.3949 332.2104 215.5001 339.6671 215.5 339.6667 C215.4999 339.6659 218.7166 327.2915 218.5 325.6667 C218.4734 325.4675 214.8507 324.329 213.5 324.6667 C212.4336 324.9333 210.7719 326.3979 210.5 327.6667 C209.679 331.4978 210.4137 338.6322 210.5 338.6667 C210.6412 338.7231 218.0214 334.3931 220.5 331.6667 C221.1161 330.9889 220.8766 328.1374 220.5 327.6667 C220.1046 327.1724 216.7918 326.354 216.5 326.6667 C213.7955 329.5644 206.514 342.5758 206.5 342.6667 C206.4966 342.6886 212.1989 341.8034 214.5 339.6667 C217.7612 336.6384 220.5 332.6192 220.5 329.6667 C220.5 326.1237 217.2352 321.2225 214.5 317.6667 C213.8289 316.7942 211.0334 316.2933 210.5 316.6667 C208.625 317.9792 205.6041 320.881 204.5 324.6667 C202.655 330.9923 203.4981 340.6665 203.5 340.6667 C203.5435 340.6706 211.4981 332.747 215.5 325.6667 C217.0736 322.8826 216.5 321.5445 216.5 317.6667 C216.5 313.7888 216.6739 311.8189 215.5 309.6667 C214.7132 308.2242 210.7683 306.4751 210.5 306.6667 C208.7831 307.893 204.6402 313.3862 201.5 319.6667 C200.1542 322.3583 200.4902 326.6667 200.5 326.6667 C200.5886 326.6667 206.5932 323.4679 209.5 319.6667 C212.2343 316.091 212.0325 314.4361 213.5 309.6667 C213.892 308.3927 213.8286 306.9131 213.5 306.6667 C212.0031 305.544 208.5929 303.9046 205.5 303.6667 C203.6789 303.5266 200.4753 305.6345 200.5 305.6667 C200.8019 306.0592 212.6418 316.438 215.5 316.6667 C217.1703 316.8003 222.5319 311.2284 225.5 307.6667 C226.0137 307.0502 225.68 304.8017 225.5 304.6667 C225.18 304.4267 222.1911 304.0287 221.5 304.6667 C218.0311 307.8687 212.6062 316.6348 212.5 316.6667 C212.4857 316.671 211.7459 308.0109 211.5 307.6667 C211.4783 307.6363 208.2197 308.4235 207.5 309.6667 C203.9891 315.7309 200.4853 326.6581 200.5 326.6667 C200.5663 326.7054 212.3041 322.53 219.5 316.6667 C224.2122 312.8271 227.4782 304.6412 227.5 304.6667 C227.6247 304.8122 227.7886 320.1033 231.5 330.6667 C233.4179 336.1254 236.0596 338.4597 240.5 341.6667 C243.237 343.6434 249.0932 343.9379 249.5 343.6667 C249.783 343.478 249.5257 335.6753 249.5 335.6667 C249.4614 335.6538 243.4998 341.6666 243.5 341.6667 C243.5004 341.6669 251.4999 336.6665 251.5 336.6667 C251.501 336.6682 245.4998 344.6665 245.5 344.6667 C245.5002 344.6669 250.9667 341.8908 253.5 338.6667 C255.6356 335.9486 256.5 330.6666 256.5 330.6667 C256.5 330.6667 253.0846 340.4052 252.5 345.6667 C252.3949 346.613 254.4953 348.6695 254.5 348.6667 C254.654 348.5743 257.4999 342.6666 257.5 342.6667 C257.5001 342.6668 255.5004 349.6667 255.5 349.6667 C255.5 349.6667 255.6006 342.7472 255.5 342.6667 C255.4533 342.6293 251.8392 343.8811 250.5 345.6667 C248.1192 348.841 246.5519 354.6044 246.5 354.6667 C246.4909 354.6776 245.5045 351.6649 245.5 351.6667 C245.3651 351.7206 241.5 356.6667 241.5 356.6667 C241.5 356.6666 249.4993 348.6667 249.5 348.6667 C249.5004 348.6667 244.4987 356.6658 244.5 356.6667 C244.5324 356.6883 255.5001 352.6666 255.5 352.6667 C255.4999 352.6668 245.6373 357.2534 242.5 359.6667 C242.1062 359.9696 242.7347 362.5102 242.5 362.6667 C241.7178 363.1881 236.5 363.6667 236.5 363.6667 "/>
<path id="14" d="M241.5 361.6667 L241.5 362.6667 "/>
<path id="15" d="M240.5 364.6667 L240.5 366.6667 "/>
<path id="16" d="M252.5 360.6667 L250.5 360.6667 "/>
<path id="17" d="M255.5 358.6667 C255.5 358.6667 251.5 365.6667 251.5 365.6667 C251.4249 365.6238 248.5 354.6667 248.5 354.6667 "/>
<path id="18" d="M240.5 312.6667 C240.5 312.6667 244.4455 318.5031 244.5 318.6667 C244.505 318.6815 242.5 318.6667 242.5 318.6667 "/>
<path id="19" d="M235.5 309.6667 L240.5 311.6667 "/>
<path id="20" d="M237.5 305.6667 L240.5 306.6667 "/>
<path id="21" d="M232.5 302.6667 L235.5 303.6667 "/>
<path id="22" d="M230.5 304.6667 L233.5 305.6667 "/>
<path id="23" d="M222.5 300.6667 L226.5 300.6667 "/>
<path id="24" d="M215.5 298.6667 L218.5 299.6667 "/>
<path id="25" d="M211.5 300.6667 L215.5 300.6667 "/>
<path id="26" d="M215.5 304.6667 L220.5 305.6667 "/>
<path id="27" d="M245.5 313.6667 C245.5 313.6667 252.9635 319.8473 255.5 324.6667 C256.7477 327.0374 255.5 332.6667 255.5 332.6667 "/>
<path id="28" d="M250.5 324.6667 C250.5 324.6667 255.5 324.6667 255.5 324.6667 C255.5 324.6667 250.5 325.6667 250.5 325.6667 "/>
<path id="29" d="M250.5 325.6667 L250.5 327.6667 "/>
<path id="30" d="M250.5 329.6667 C250.5 329.6667 252.5 327.6666 252.5 327.6667 C252.5 327.6668 250.5 330.6667 250.5 330.6667 "/>
<path id="31" d="M197.5 313.6667 L196.5 323.6667 "/>
<path id="32" d="M196.5 323.6667 L195.5 324.6667 "/>
<path id="33" d="M195.5 325.6667 L195.5 333.6667 "/>
<path id="34" d="M197.5 341.6667 L201.5 347.6667 "/>
</g>
</g>
</svg>
