<?xml version="1.0" encoding="utf-8"?>
<!DOCTYPE svg PUBLIC "-//W3C//DTD SVG 1.1//EN" "http://www.w3.org/Graphics/SVG/1.1/DTD/svg11.dtd">
<svg viewBox="0 0 800 800" preserveAspectRatio="xMinYMin meet" xmlns="http://www.w3.org/2000/svg" version="1.1">
<g fill="none" stroke="black" stroke-linecap="round" stroke-linejoin="round" stroke-width="2.1793">
<g transform="translate(87.52,236.8772) scale(1.3766) translate(-131,-130)">
<path id="0" d="M204 311 L194 311 "/>
<path id="1" d="M191 311 C191 311 178.9382 310.008 168 307 C159.4106 304.6379 158.3805 304.5585 151 300 C142.1231 294.5172 138.4049 292.8276 134 286 C130.6593 280.8219 131.2112 277.2369 131 269 C130.7285 258.4133 130.4553 255.4824 133 247 C134.1372 243.2092 136.4374 241.5447 140 239 C142.3617 237.3131 146.3994 237.6006 147 237 C147.2002 236.7998 146.9868 234.0766 146 233 C142.5544 229.2412 138.5023 228.2529 136 225 C135.2027 223.9635 135.1004 221.1566 136 220 C142.8966 211.133 145.6356 207.277 157 198 C169.4538 187.8336 175.1244 187.4918 185 180 C185.9565 179.2744 185.6067 176.121 186 176 C188.1156 175.3491 197.2879 176.9495 198 176 C199.7604 173.6527 197.3872 162.1418 201 156 C204.9839 149.2274 210.2633 144.0723 218 142 C232.6412 138.0783 238.4312 139.1693 257 141 C272.651 142.5431 288.5071 148.9046 289 149 C289.0204 149.0039 287.884 147.1418 288 147 C289.6869 144.9383 292.7152 141.3631 298 138 C303.1015 134.7536 304.2036 133.5269 310 133 C345.4978 129.7729 353.5939 126.7594 386 130 C396.8306 131.0831 398.3956 138.0769 410 143 C413.7053 144.5719 415.5903 142.3634 419 144 C426.6537 147.6738 428.5361 148.5361 435 155 C445.7732 165.7732 446.4234 176.1016 455 180 C464.5709 184.3504 475.3563 180.7707 490 180 C491.2992 179.9316 491.7795 178 493 178 C509.6795 178 518.0071 175.663 534 180 C542.3912 182.2756 545.4271 185.9664 552 194 C562.2338 206.5079 570 224 570 224 "/>
<path id="2" d="M576 235 C576 235 581.0863 242.5578 583 250 C585.3368 259.0875 585.2034 260.2358 585 270 C584.714 283.729 585.37 285.2978 582 298 C579.2319 308.4337 577.9861 309.7487 572 319 C567.4751 325.993 564.6798 325.2728 560 332 C557.1979 336.0281 558.7191 337.6814 556 342 C550.5295 350.6884 549.6034 352.049 543 359 C541.0426 361.0604 537 362 537 362 "/>
<path id="3" d="M535 362 L519 365 "/>
<path id="4" d="M515 365 C515 365 506.9285 366.87 499 367 C476.7547 367.3647 472.4332 369.8037 454 366 C445.6507 364.2771 445.3651 358.8954 436 354 C423.75 347.5966 422.8547 345.7267 410 343 C391.5635 339.0892 370 340 370 340 "/>
<path id="5" d="M364 340 L349 339 "/>
<path id="6" d="M347 339 C347 339 289.7508 340.0565 257 339 C255.8731 338.9636 255.5305 336.4638 254 336 C241.4236 332.189 238.1936 333.6284 224 329 C215.8184 326.3321 214.6778 325.808 208 321 C203.0285 317.4205 199 311 199 311 "/>
<path id="7" d="M201 267 L194 259 "/>
<path id="8" d="M193 258 C193 258 189.9038 249.7585 191 246 C192.4043 241.1853 196.0089 235.6737 200 234 C206.3766 231.3259 222 233 222 233 "/>
<path id="9" d="M224 228 C224 228 214.9104 223.5036 214 221 C212.7783 217.6404 213.9075 212.7425 216 206 C218.1664 199.0194 219.2719 195.7281 223 192 C225.3079 189.6921 228.5421 189 233 189 C240.1326 189 241.6051 189.6231 249 192 C255.0716 193.9516 260.8639 197.9629 261 198 C261.0181 198.0049 260 195 260 195 "/>
<path id="10" d="M261 200 C261 200 261.2478 190.1651 264 187 C268.3699 181.9747 273.0499 179.4091 281 177 C287.3505 175.0756 291.5751 175.5205 297 177 C299.5892 177.7061 301.1301 179.7277 303 183 C306.6548 189.3959 309 198 309 198 "/>
<path id="11" d="M319 197 C319 197 319.1016 188.8815 321 184 C321.9568 181.5396 323.8472 179.4036 326 179 C335.8575 177.1517 343.1137 176.5461 353 178 C355.902 178.4268 359.6532 182.0061 360 184 C360.7917 188.5522 358.8697 195.9252 357 201 C356.6413 201.9737 353 203 353 203 "/>
<path id="12" d="M381 201 C381 201 374.2838 202.8647 374 204 C372.2522 210.9913 374.6173 222.3258 373 233 C372.7445 234.6866 370.5484 236.6682 369 237 C365.8804 237.6685 362.2837 235.7264 359 236 C358.2825 236.0598 357 238 357 238 "/>
<path id="13" d="M326 294 C326 294 321.5609 291.6828 321 290 C319.9112 286.7335 319.5553 282.973 321 279 C322.8268 273.9763 325.6346 269.3221 329 268 C334.4626 265.854 344.5543 266.647 349 268 C350.1404 268.3471 349.9515 272.579 352 275 C354.7424 278.241 357.6591 278.1388 360 281 C361.0857 282.3269 361.1281 285.6797 361 286 C360.9666 286.0836 358 286 358 286 "/>
<path id="14" d="M257 276 L257 275 "/>
<path id="15" d="M258 274 C258 274 258.7056 266.3338 261 262 C262.3806 259.3922 264.2724 257.5845 267 257 C275.5684 255.1639 280.0743 254.8099 289 256 C292.5376 256.4717 294.8903 258.187 297 261 C299.6851 264.5801 300.0513 267.2563 301 272 C301.3055 273.5276 300 276 300 276 "/>
<path id="16" d="M411 251 C411 251 416.2383 240.7471 421 238 C425.6675 235.3072 430.7406 234.9208 437 236 C442.6804 236.9794 444.8024 238.7924 450 243 C454.4816 246.628 458 253 458 253 "/>
<path id="17" d="M424 210 C424 210 425.3703 203.7335 428 199 C430.0552 195.3007 430.7818 194.4756 434 192 C436.6311 189.9761 438.2816 188.7986 441 189 C449.17 189.6052 455.1998 191.3635 461 194 C462.1127 194.5058 463 199 463 199 "/>
<path id="18" d="M475 213 C475 213 485.5898 204.4558 486 204 C486.0174 203.9807 484.0498 203.2492 484 203 C483.8647 202.3236 484.7246 199.0306 485 199 C491.6722 198.2586 504.4505 196.0382 520 199 C533.4551 201.5629 535.7601 204.053 548 211 C552.9606 213.8155 555.3811 216.0426 557 220 C558.6596 224.0567 557.3697 226.7144 557 233 C556.8846 234.9625 556.1916 236.8084 556 237 C555.9617 237.0383 554 236 554 236 "/>
<path id="19" d="M536 258 C536 258 544.7929 256.1992 552 257 C557.1911 257.5768 559.6948 258.3145 563 261 C565.8558 263.3204 567.1889 265.7823 568 270 C569.3842 277.1978 568.1174 286.8156 568 287 C567.9893 287.0168 561 281 561 281 "/>
<path id="20" d="M467 252 C467 252 471.8667 246.9618 474 243 C474.6683 241.7589 473.8885 239.0262 474 239 C476.0135 238.5262 484.022 237.6044 491 239 C494.6942 239.7388 497.3053 241.458 499 244 C500.8586 246.788 501 249.4175 501 254 C501 258.1243 499 263 499 263 "/>
<path id="21" d="M477 304 C477 304 479.5189 294.9452 483 291 C485.2722 288.4248 488.226 287.1572 492 287 C498.1241 286.7448 500.2023 287.5075 507 290 C514.5717 292.7763 515.6084 293.7389 522 298 C523.7813 299.1875 524.5474 300.1894 525 302 C525.7624 305.0494 525.2472 309.5675 525 310 C524.9603 310.0695 521 309 521 309 "/>
<path id="22" d="M409 300 C409 300 410.3641 291.2718 413 286 C414.0708 283.8583 418 282 418 282 "/>
<path id="23" d="M418 281 L429 280 "/>
<path id="24" d="M438 284 C438 284 442.3256 285.4927 445 288 C449.8047 292.5044 451.5611 294.1223 454 299 C455.1014 301.2028 454.6986 304.7425 454 306 C453.5232 306.8583 449 308 449 308 "/>
<path id="25" d="M357 337 C357 337 359.7053 335.277 360 334 C360.7981 330.5414 359.013 327.7012 360 324 C360.5988 321.7546 361.9471 320.1054 364 319 C367.0912 317.3355 371.4714 317.6794 373 317 C373.1374 316.9389 373 315 373 315 C375.0272 315 387.4227 313.5917 393 317 C400.4169 321.5326 409 337 409 337 "/>
<path id="26" d="M434 348 L447 338 "/>
<path id="27" d="M451 336 C451 336 457.2056 334.7627 462 336 C471.6168 338.4818 473.6656 338.8918 482 344 C487.9377 347.6392 489.052 349.5336 493 355 C494.7598 357.4366 495.0281 361.9297 495 362 C494.9982 362.0045 491 360 491 360 "/>
<path id="28" d="M281 335 L287 331 "/>
<path id="29" d="M291 328 C291 328 295.7157 323.1108 300 322 C307.4111 320.0786 310.5523 319.4666 318 321 C325.3862 322.5207 327.5983 324.3442 334 329 C337.4676 331.5219 338.761 334.0265 340 337 C340.4228 338.0148 339 341 339 341 "/>
</g>
</g>
</svg>
