<?xml version="1.0" encoding="utf-8"?>
<!DOCTYPE svg PUBLIC "-//W3C//DTD SVG 1.1//EN" "http://www.w3.org/Graphics/SVG/1.1/DTD/svg11.dtd">
<svg viewBox="0 0 800 800" preserveAspectRatio="xMinYMin meet" xmlns="http://www.w3.org/2000/svg" version="1.1">
<g fill="none" stroke="black" stroke-linecap="round" stroke-linejoin="round" stroke-width="1.2913">
<g transform="translate(236.2094,87.52) scale(2.3233) translate(-212,-37)">
<path id="0" d="M281 37 C281 37 271.6669 35.9431 263 37 C251.6321 38.3863 249.0824 37.8481 240 42 C233.8835 44.7961 232.3068 46.9313 228 53 C222.0203 61.426 222.0534 62.8666 218 73 C215.1964 80.0089 214.6064 80.6018 214 88 C212.1769 110.242 211.5637 112.8143 213 134 C213.4171 140.1525 214.3657 142.3273 218 147 C223.6906 154.3165 225.6575 155.2466 234 161 C239.5728 164.8433 242.0663 163.5174 247 167 C249.3574 168.664 248.6407 171.0036 251 173 C254.439 175.9099 255.3642 175.9844 260 178 C266.7102 180.9175 267.2009 181.9698 274 183 C282.7537 184.3263 285.3427 185.3823 293 183 C305.2337 179.194 308.2052 177.4981 319 169 C330.4028 160.0233 331.9039 158.1441 340 146 C347.075 135.3876 347.9201 133.3196 351 121 C354.0521 108.7914 355.6448 105.075 353 94 C348.5826 75.5022 344.6427 71.4311 335 54 C332.7947 50.0134 331.2538 48.8395 327 47 C314.3116 41.5131 312.1498 40.83 298 38 C290.6495 36.5299 282 38 282 38 "/>
<path id="1" d="M246 169 L244 235 "/>
<path id="2" d="M337 159 L327 228 "/>
<path id="3" d="M288 187 L287 243 "/>
<path id="4" d="M232 223 C232 223 236.9646 229.1117 242 231 C251.1025 234.4134 254.1052 231.6149 264 235 C272.0786 237.7637 272.4793 242.1198 280 244 C288.2419 246.0605 290.4735 245.2991 300 244 C311.8215 242.388 315.725 243.5167 324 238 C337.4962 229.0025 351 210 351 210 "/>
<path id="5" d="M239 227 C239 227 233.9099 228.2125 231 227 C223.6646 223.9436 215.0275 216.9451 215 217 C214.3206 218.3588 212 265 212 265 "/>
<path id="6" d="M219 152 L218 221 "/>
<path id="7" d="M216 263 C216 263 215.1451 288.8867 216 300 C216.0515 300.67 217.6399 301.8912 219 302 C250.1273 304.4902 255.3293 305.6697 291 306 C308.8124 306.1649 310.6988 306.4483 327 303 C334.8725 301.3347 336.6121 299.9137 343 295 C348.545 290.7346 352.4948 287.9259 353 283 C355.552 258.1184 351 217 351 217 "/>
<path id="8" d="M348 155 C348 155 348.9726 170.6812 348 186 C346.988 201.9384 344 218 344 218 "/>
</g>
</g>
</svg>
