<?xml version="1.0" encoding="utf-8"?>
<!DOCTYPE svg PUBLIC "-//W3C//DTD SVG 1.1//EN" "http://www.w3.org/Graphics/SVG/1.1/DTD/svg11.dtd">
<svg viewBox="0 0 800 800" preserveAspectRatio="xMinYMin meet" xmlns="http://www.w3.org/2000/svg" version="1.1">
<g fill="none" stroke="black" stroke-linecap="round" stroke-linejoin="round" stroke-width="2.1889">
<g transform="translate(208.8116,87.52) scale(1.3705) translate(-103,-22.1333)">
<path id="0" d="M309 24.1333 C309 24.1333 266.68 21.7799 226 24.1333 C207.1769 25.2223 204.3945 24.2304 188 31.1333 C159.6153 43.0848 154.236 45.8543 131 64.1333 C120.2297 72.606 120.4022 76.871 113 90.1333 C108.8213 97.6201 108.8207 98.576 107 107.1333 C103.9266 121.5782 103.9956 122.1988 103 137.1333 C102.0131 151.9362 101.4856 152.8978 103 167.1333 C103.885 175.4526 104.7348 176.0664 108 184.1333 C113.1246 196.7941 112.614 198.1663 120 209.1333 C128.516 221.7783 129.5723 222.6199 141 233.1333 C154.0617 245.1501 155.0746 244.9953 170 255.1333 C181.3815 262.8641 181.6458 263.7424 194 269.1333 C208.5103 275.4651 209.7308 277.1631 225 279.1333 C254.4401 282.9321 256.3492 281.4816 287 281.1333 C299.8751 280.987 300.6307 280.6706 313 278.1333 C319.5183 276.7962 321.092 276.8143 326 273.1333 C335.7427 265.8263 337.7012 264.4375 345 254.1333 C353.9104 241.554 353.5236 239.9663 360 225.1333 C368.9243 204.6939 369.7626 204.2218 376 183.1333 C380.068 169.3795 379.5536 168.5978 381 154.1333 C382.5249 138.8843 384.3848 137.2433 382 123.1333 C378.736 103.8216 377.1888 101.8883 369 83.1333 C362.0333 67.1774 361.0985 66.2712 351 52.1333 C344.0593 42.4164 343.0785 41.5612 334 34.1333 C327.3147 28.6635 326.037 28.0559 318 25.1333 C310.4558 22.39 301 22.1333 301 22.1333 "/>
<path id="1" d="M215 280.1333 C215 280.1333 219.0434 282.6222 220 285.1333 C222.3751 291.368 221.4103 300.2563 223 301.1333 C226.4945 303.0613 237.8906 300.0582 249 301.1333 C251.2605 301.3521 251.6967 303.7697 254 304.1333 C259.8911 305.0635 262.8719 305.6941 268 304.1333 C272.077 302.8925 275.7812 300.1127 277 297.1333 C278.7116 292.9495 277 282.1333 277 282.1333 "/>
<path id="2" d="M224 304.1333 C224 304.1333 219.6254 311.9414 219 319.1333 C217.7475 333.5374 222.0588 336.2365 220 350.1333 C218.3762 361.094 215.6998 362.0247 211 373.1333 C210.3257 374.7271 209.0857 376.1048 209 376.1333 C208.9905 376.1365 208 374.1333 208 374.1333 "/>
<path id="3" d="M274 301.1333 C274 301.1333 276.7271 313.0739 281 324.1333 C285.1332 334.8309 287.7498 334.6326 291 345.1333 C293.958 354.6898 291.1184 356.7027 294 366.1333 C296.2936 373.6396 301.9979 381.1121 302 381.1333 C302.0008 381.141 295 376.1333 295 376.1333 "/>
<path id="4" d="M248 304.1333 C248 304.1333 247.3544 329.4494 249 354.1333 C249.8305 366.5903 253 379.1333 253 379.1333 "/>
<path id="5" d="M208 374.1333 C208 374.1333 203.5358 379.7863 201 384.1333 C200.6399 384.7507 200.8644 386.0655 201 386.1333 C201.8813 386.574 204.0339 387.0884 207 387.1333 C236.5864 387.5816 237.13 387.8531 267 387.1333 C278.4742 386.8568 278.7574 386.863 290 385.1333 C298.0145 383.9003 298.2453 383.2874 306 381.1333 C307.0323 380.8466 308.0036 380.137 308 380.1333 C307.9819 380.1152 304 379.1333 304 379.1333 "/>
<path id="6" d="M252 377.1333 L254 388.1333 "/>
<path id="7" d="M197 387.1333 C197 387.1333 194.3017 417.9305 195 437.1333 C195.072 439.1124 196.9722 441.3398 199 442.1333 C206.0013 444.873 208.6787 445.8902 218 446.1333 C264.8269 447.3549 268.8884 446.8684 314 445.1333 C317.812 444.9867 321.0865 443.8081 322 442.1333 C324.6277 437.3159 327.4615 430.5629 326 423.1333 C322.377 404.7167 310 381.1333 310 381.1333 "/>
<path id="8" d="M207 26.1333 C207 26.1333 193.2842 49.3427 184 73.1333 C177.6123 89.5017 178.4978 90.6445 175 108.1333 C173.061 117.8282 173.2524 118.1641 173 128.1333 C172.2573 157.4683 172.0223 157.8029 173 187.1333 C173.5154 202.5939 172.2583 203.7011 176 218.1333 C182.4368 242.9609 184.562 246.9922 194 268.1333 C195.4839 271.4574 200.6069 273.9859 201 274.1333 C201.0053 274.1353 202 271.1333 202 271.1333 "/>
<path id="9" d="M303 27.1333 C303 27.1333 298.1852 33.5776 296 40.1333 C293.4347 47.8292 295.3988 49.0039 293 57.1333 C286.5049 79.1446 282.1469 79.423 278 101.1333 C273.9843 122.1566 276 123.688 276 146.1333 C276 185.5374 274.4146 186.6713 278 225.1333 C279.8039 244.4837 281.2645 246.2098 287 264.1333 C288.8132 269.7997 290.2366 271.0804 294 275.1333 C295.8433 277.1184 299.9683 278.127 300 278.1333 C300.0067 278.1347 299 276.1333 299 276.1333 "/>
<path id="10" d="M236 305.1333 C236 305.1333 235.7243 309.6738 236 310.1333 C236.0993 310.2988 238.7337 310.4528 239 310.1333 C239.8165 309.1535 241 304.1333 241 304.1333 "/>
<path id="11" d="M197 441.1333 C197 441.1333 200.1529 446.7119 201 452.1333 C202.5416 461.9998 199.7628 469.7117 202 473.1333 C203.5975 475.5765 210.8947 477.936 218 478.1333 C226.7563 478.3766 228.1675 474.4887 238 474.1333 C268.7326 473.0225 270.2424 475.922 301 475.1333 C308.3638 474.9445 308.8614 474.2154 316 472.1333 C320.5717 470.7999 324.5178 469.7246 325 468.1333 C327.1004 461.202 326 439.1333 326 439.1333 "/>
<path id="12" d="M229 302.1333 C229 302.1333 226.1125 307.4075 226 312.1333 C225.643 327.1264 228.365 329.5331 228 344.1333 C227.9077 347.8234 227.2099 348.8835 225 352.1333 C219.1627 360.7175 215.77 361.9784 211 369.1333 C210.2754 370.2202 211.6253 371.8827 211 373.1333 C209.6712 375.7909 207.1216 376.4415 206 379.1333 C205.1675 381.1314 206.0098 385.1187 206 385.1333 C205.9973 385.1374 204 382.1333 204 382.1333 "/>
<path id="13" d="M278 300.1333 C278 300.1333 277.9324 312.4194 281 322.1333 C283.5188 330.1094 286.9872 330.0219 290 338.1333 C293.1908 346.7241 290.3458 349.216 294 357.1333 C298.6385 367.1834 302.583 368.6208 308 377.1333 C308.3748 377.7222 308.0094 379.1357 308 379.1333 C307.9106 379.111 304 376.1333 304 376.1333 "/>
<path id="14" d="M238 307.1333 C238 307.1333 241.976 312.1333 242 312.1333 C242 312.1333 241.4295 307.7038 242 307.1333 C243.2551 305.8783 249.1653 303.8298 250 304.1333 C250.67 304.377 252.9278 307.957 253 311.1333 C253.3774 327.7399 249.328 330.6969 251 348.1333 C252.6745 365.5957 256.2298 366.539 260 384.1333 C260.5964 386.9166 260.0917 390.0875 260 390.1333 C259.8625 390.2021 254 387.1333 254 387.1333 "/>
<path id="15" d="M206 382.1333 L248 372.1333 "/>
<path id="16" d="M260 366.1333 C260 366.1333 278.4742 366.1926 294 368.1333 C296.8898 368.4946 300 371.1333 300 371.1333 C300 371.1333 291.6728 365.5105 284 364.1333 C273.7734 362.2978 270.7961 362.2285 261 364.1333 C254.8833 365.3227 248 371.1333 248 371.1333 "/>
</g>
</g>
</svg>
