<?xml version="1.0" encoding="utf-8"?>
<!DOCTYPE svg PUBLIC "-//W3C//DTD SVG 1.1//EN" "http://www.w3.org/Graphics/SVG/1.1/DTD/svg11.dtd">
<svg viewBox="0 0 800 800" preserveAspectRatio="xMinYMin meet" xmlns="http://www.w3.org/2000/svg" version="1.1">
<g fill="none" stroke="black" stroke-linecap="round" stroke-linejoin="round" stroke-width="1.7041">
<g transform="translate(219.5538,87.52) scale(1.7605) translate(-189,-38)">
<path id="0" d="M243 250 C243 250 232.8762 233.6416 223 221 C221.4715 219.0436 218.8376 219.7719 218 218 C208.3291 197.5424 205.3228 192.1573 197 166 C191.5783 148.9602 191.8138 147.9108 190 130 C187.8704 108.9702 187.038 106.2929 189 87 C189.7643 79.4841 191.0631 76.5177 196 71 C206.2356 59.5603 209.2969 58.7364 223 49 C227.6777 45.6764 228.7355 45.1965 234 44 C238.7716 42.9155 239.9542 45.0092 245 44 C254.266 42.1468 254.7164 39.3262 264 38 C274.7529 36.4639 276.39 36.194 287 38 C298.6995 39.9914 299.6566 40.9585 311 46 C326.2769 52.7897 327.0649 53.0002 341 62 C350.566 68.178 353.2567 69.259 359 77 C362.9922 82.3808 363.9319 85.4438 364 93 C364.4029 137.7223 364.4294 141.8606 360 188 C358.5712 202.8832 358.5444 206.1779 352 218 C344.6376 231.2999 337.9113 238.9078 329 244 C324.7965 246.402 319.2467 241.7945 310 242 C297.2845 242.2826 296.5683 242.6848 284 245 C277.9712 246.1106 277.8755 248.4124 272 249 C253.947 250.8053 234 250 234 250 "/>
<path id="1" d="M250 253 L260 292 "/>
<path id="2" d="M325 246 C325 246 329.3352 251.8957 331 258 C335.1065 273.0573 337 290 337 290 "/>
<path id="3" d="M260 293 C260 293 243.9785 288.9021 233 290 C227.3668 290.5633 225.5192 293.1041 220 297 C217.6837 298.635 216.4336 299.6877 216 302 C213.9359 313.0085 213.5736 315.7816 214 329 C214.5561 346.2393 214.8515 355.2292 218 364 C218.6558 365.827 223.3586 367.8969 228 368 C264.7833 368.8174 271.7364 367.7268 308 366 C309.8541 365.9117 310.1297 364.1151 312 364 C339.7271 362.2937 343.2237 363.7262 373 362 C376.9542 361.7708 378.5548 361.6301 381 360 C383.0959 358.6027 384.9202 356.5123 385 354 C385.7412 330.6535 385.2825 324.7707 383 297 C382.348 289.0674 380.973 282.6615 379 281 C377.3063 279.5737 371.0268 279.7508 364 281 C349.2801 283.6169 334 289 334 289 "/>
<path id="4" d="M255 292 C255 292 283.4471 293.5835 311 292 C326.3939 291.1153 342 287 342 287 "/>
<path id="5" d="M273 252 C273 252 276.2175 256.6093 277 260 C277.4182 261.8122 275.9592 264.9972 276 265 C277.8542 265.1279 303.1868 264.4381 306 262 C307.7202 260.5092 306 239 306 239 "/>
<path id="6" d="M293 264 C293 264 287.408 261.936 286 260 C284.8032 258.3544 284.5629 255.4042 285 253 C285.2914 251.3972 287.7689 248.9538 288 249 C288.8615 249.1723 294.3242 252.9725 295 255 C295.6758 257.0275 293 264 293 264 "/>
<path id="7" d="M254 297 C254 297 252.1409 331.127 256 362 C257.9074 377.2591 266 393 266 393 "/>
<path id="8" d="M297 298 L311 382 "/>
<path id="9" d="M332 294 C332 294 336.8437 317.8233 343 341 C345.293 349.6323 345.891 351.4366 349 358 C349.536 359.1316 351.6708 358.9824 352 360 C355.8334 371.8488 360 392 360 392 "/>
<path id="10" d="M215 321 C215 321 266.061 315.992 317 314 C355.3511 312.5002 394 314 394 314 "/>
<path id="11" d="M227 338 C227 338 258.3712 340.2011 289 339 C308.87 338.2208 309.0786 335.0597 329 334 C355.7163 332.5789 383 334 383 334 "/>
<path id="12" d="M228 354 C228 354 229.2507 355.9831 230 356 C278.0052 357.0828 296.3162 357.8567 361 357 C370.896 356.8689 381 354 381 354 "/>
</g>
</g>
</svg>
