<?xml version="1.0" encoding="utf-8"?>
<!DOCTYPE svg PUBLIC "-//W3C//DTD SVG 1.1//EN" "http://www.w3.org/Graphics/SVG/1.1/DTD/svg11.dtd">
<svg viewBox="0 0 800 800" preserveAspectRatio="xMinYMin meet" xmlns="http://www.w3.org/2000/svg" version="1.1">
<g fill="none" stroke="black" stroke-linecap="round" stroke-linejoin="round" stroke-width="1.2001">
<g transform="translate(213.7619,87.52) scale(2.4998) translate(-181,-114)">
<path id="0" d="M229 304 C229 304 215.0351 288.2845 206 271 C192.55 245.2696 190.074 242.8812 183 216 C178.3043 198.1564 179.8118 195.0116 181 176 C181.7263 164.3785 182.2552 162.2013 187 152 C191.5182 142.2858 193.6278 140.3722 201 133 C204.351 129.649 206.109 129.1738 211 128 C217.6553 126.4027 222.0521 128.6623 226 127 C227.7786 126.2511 227.5498 122.6543 230 120 C233.0671 116.6773 235.2193 114.4634 238 114 C240.9352 113.5108 245.1013 114.9932 248 117 C249.7171 118.1887 250.7551 123.0367 251 123 C253.1402 122.679 259.983 116.4051 268 114 C273.2904 112.4129 277.48 112.416 281 114 C283.992 115.3464 286.1187 118.9686 288 123 C288.9202 124.9719 287.9002 128.9572 288 129 C288.2217 129.095 291.6596 126.4008 295 126 C303.1694 125.0197 304.5148 125.2929 313 126 C315.9069 126.2422 316.7933 126.4238 319 128 C323.0738 130.9099 325.5181 132.0931 327 136 C329.9731 143.8381 329.5768 146.5622 330 157 C331.0618 183.1913 335.4768 186.7707 330 210 C322.0599 243.677 317.4861 246.2896 301 280 C284.2394 314.2716 263 347 263 347 "/>
<path id="1" d="M227 300 C227 300 235.2067 304.9615 242 311 C248.4582 316.7406 248.9866 317.0767 254 324 C259.2047 331.1874 261.5602 334.001 263 340 C263.6565 342.7352 259.8337 348.6258 260 349 C260.0675 349.1518 266.9897 349.0514 267 349 C267.0661 348.6695 262 339 262 339 "/>
<path id="2" d="M258 333 C258 333 256.4207 360.9401 258 364 C258.4207 364.8151 272.9496 365.1122 274 364 C275.3169 362.6057 276.0155 354.1239 275 346 C274.1691 339.3532 270 332 270 332 "/>
<path id="3" d="M261 342 C261 342 260.2762 358.0953 261 359 C261.3236 359.4045 271.8213 358.3601 273 357 C274.3181 355.4791 274 344 274 344 "/>
<path id="4" d="M269 338 C269 338 269.4906 351.3392 269 356 C268.967 356.3134 267 357 267 357 "/>
<path id="5" d="M254 122 C254 122 252.4345 133.1428 253 144 C254.9146 180.761 257.9029 181.0647 259 218 C260.8931 281.7346 259 346 259 346 "/>
<path id="6" d="M289 125 C289 125 291.9152 205.2034 289 276 C288.6276 285.0433 286.526 286.4245 282 295 C277.3466 303.8169 274.1813 303.376 270 312 C266.7127 318.7801 266 328 266 328 "/>
<path id="7" d="M226 123 C226 123 221.6853 129.3711 220 136 C214.3973 158.0371 212.1914 159.3637 211 182 C208.7724 224.3246 207.6113 229.9317 213 269 C214.9098 282.846 218.0875 286.479 227 298 C237.0439 310.9836 254 322 254 322 "/>
</g>
</g>
</svg>
