<?xml version="1.0" encoding="utf-8"?>
<!DOCTYPE svg PUBLIC "-//W3C//DTD SVG 1.1//EN" "http://www.w3.org/Graphics/SVG/1.1/DTD/svg11.dtd">
<svg viewBox="0 0 800 800" preserveAspectRatio="xMinYMin meet" xmlns="http://www.w3.org/2000/svg" version="1.1">
<g fill="none" stroke="black" stroke-linecap="round" stroke-linejoin="round" stroke-width="0.94566">
<g transform="translate(185.864,87.52) scale(3.1724) translate(-224,-26.4167)">
<path id="0" d="M320 166.4167 L322 166.4167 "/>
<path id="1" d="M322 168.4167 C322 168.4167 319.9389 165.8783 318 165.4167 C310.8123 163.7053 307.7697 163.109 301 163.4167 C298.9436 163.5101 297.6899 166.2477 296 166.4167 C294.4695 166.5697 293.235 164.4167 291 164.4167 C281.1659 164.4167 269.9563 167.2295 269 166.4167 C268.3334 165.8501 272.3579 154.2063 271 147.4167 C270.0801 142.8173 267.5775 141.2289 263 136.4167 C248.3675 121.0338 244.2728 121.8364 232 106.4167 C226.3057 99.2623 226.3525 96.5326 224 87.4167 C222.6598 82.2235 222.7041 80.6002 224 75.4167 C225.9168 67.7494 226.5018 66.3684 231 59.4167 C237.0706 50.0348 238.3193 50.1947 246 41.4167 C248.7762 38.2439 248.7015 37.3658 252 35.4167 C258.9582 31.305 260.1019 30.0698 268 28.4167 C280.3993 25.8215 281.9406 26.1199 295 26.4167 C303.2695 26.6046 304.777 26.2977 312 29.4167 C325.3872 35.1975 327.3728 36.2231 339 45.4167 C347.8653 52.4265 348.4472 54.2427 355 63.4167 C357.8629 67.4247 358.0804 68.5889 359 73.4167 C359.9399 78.3513 360.0359 79.4096 359 84.4167 C357.1879 93.1751 357.6478 95.22 353 102.4167 C343.1953 117.5982 335 117.7167 328 132.4167 C322.0898 144.8281 323 165.4167 323 165.4167 "/>
<path id="2" d="M273 170.4167 L277 192.4167 "/>
<path id="3" d="M322 165.4167 L311 191.4167 "/>
<path id="4" d="M298 165.4167 L295 188.4167 "/>
<path id="5" d="M312 195.4167 C312 195.4167 314.0628 191.4237 314 191.4167 C312.0973 191.2053 272.3294 188.3071 267 190.4167 C265.9803 190.8203 265.3909 200.9763 266 210.4167 C266.342 215.7173 267.1674 219.584 269 221.4167 C270.5708 222.9875 274.164 223.4167 279 223.4167 C294.9587 223.4167 306.1442 224.4987 312 221.4167 C314.489 220.1067 315.7774 211.9746 317 203.4167 C317.6439 198.909 316 193.4167 316 193.4167 "/>
</g>
</g>
</svg>
