<?xml version="1.0" encoding="utf-8"?>
<!DOCTYPE svg PUBLIC "-//W3C//DTD SVG 1.1//EN" "http://www.w3.org/Graphics/SVG/1.1/DTD/svg11.dtd">
<svg viewBox="0 0 800 800" preserveAspectRatio="xMinYMin meet" xmlns="http://www.w3.org/2000/svg" version="1.1">
<g fill="none" stroke="black" stroke-linecap="round" stroke-linejoin="round" stroke-width="1.9921">
<g transform="translate(169.5931,87.52) scale(1.5059) translate(-78,-13.4167)">
<path id="0" d="M195 221.4167 C195 221.4167 197.5129 232.4722 202 242.4167 C215.8442 273.0983 218.9556 272.6454 232 303.4167 C238.1606 317.9493 237.9284 318.839 241 334.4167 C244.8412 353.8971 243.0571 366.6917 246 374.4167 C246.4347 375.5579 256.4292 377.0826 257 376.4167 C259.2282 373.8172 258.8778 362.6854 264 353.4167 C268.3346 345.5732 272.0256 346.3826 278 338.4167 C283.7401 330.7632 282.0194 328.9218 288 321.4167 C307.0833 297.469 309.78 298.6635 329 274.4167 C342.061 257.9397 342.1334 257.4506 353 239.4167 C365.4918 218.6856 364.9917 218.0402 376 196.4167 C378.9268 190.6676 379.4373 190.4723 381 184.4167 C383.3251 175.4068 383.5508 174.8499 384 165.4167 C385.0325 143.7342 388.1191 140.639 384 121.4167 C379.8943 102.2568 376.6367 99.0432 366 81.4167 C360.0903 71.6235 358.4544 70.2172 349 63.4167 C331.1491 50.5765 329.6912 48.6581 309 40.4167 C272.1474 25.7381 269.7097 25.5848 231 16.4167 C214.0188 12.3948 211.6757 11.5217 195 13.4167 C169.9918 16.2585 167.9178 18.5854 143 26.4167 C133.7463 29.325 133.1784 30.0309 125 35.4167 C113.0867 43.262 112.0791 43.6176 102 53.4167 C94.6515 60.561 93.0343 61.5076 89 70.4167 C81.7762 86.3693 80.7681 88.8018 78 106.4167 C75.5055 122.2908 76.1357 124.1703 78 140.4167 C79.5245 153.702 80.0957 154.7017 85 167.4167 C93.3744 189.1281 95.9175 188.8458 105 210.4167 C107.7703 216.9961 106.012 218.0672 109 224.4167 C117.7316 242.9713 117.3258 244.3223 129 261.4167 C158.8909 305.1855 162.6866 303.8411 193 347.4167 C202.3202 360.8145 203.246 363.1105 209 376.4167 C210.2816 379.3803 208.1257 381.7939 209 384.4167 C209.5828 386.1652 213 388.4167 213 388.4167 "/>
<path id="1" d="M256 376.4167 L250 376.4167 "/>
<path id="2" d="M258 376.4167 L241 397.4167 "/>
<path id="3" d="M217 393.4167 L219 398.4167 "/>
<path id="4" d="M211 387.4167 C211 387.4167 214.4446 399.3645 217 400.4167 C223.395 403.0499 242.9156 400.0538 245 401.4167 C245.6155 401.8191 244.0243 417.0069 243 417.4167 C239.0734 418.9873 217.6798 416.5461 210 415.4167 C209.6676 415.3678 208.7243 413.3126 209 412.4167 C210.1814 408.577 211.9124 404.0225 214 402.4167 C215.3158 401.4045 222 402.4167 222 402.4167 "/>
<path id="5" d="M211 415.4167 C211 415.4167 211.1613 428.0273 212 428.4167 C215.2187 429.9111 231.1369 429.9386 239 428.4167 C240.5031 428.1257 242.309 425.1808 243 422.4167 C243.9872 418.468 243 412.4167 243 412.4167 "/>
<path id="6" d="M247 373.4167 L235 402.4167 "/>
<path id="7" d="M195 223.4167 C195 223.4167 198.2647 214.0175 197 208.4167 C195.4324 201.4746 191.4212 200.6276 188 192.4167 C184.1024 183.0625 183.4124 182.3038 182 172.4167 C180.0264 158.6018 179.3306 156.4935 181 143.4167 C182.0924 134.8594 183.58 133.4767 188 125.4167 C191.741 118.5948 198 112.4167 198 112.4167 "/>
<path id="8" d="M192 117.4167 L223 91.4167 "/>
<path id="9" d="M231 392.4167 L232 392.4167 "/>
<path id="10" d="M231 392.4167 C231 392.4167 225.7339 392.7343 223 394.4167 C220.4256 396.0009 218 400.4167 218 400.4167 "/>
</g>
</g>
</svg>
