<?xml version="1.0" encoding="utf-8"?>
<!DOCTYPE svg PUBLIC "-//W3C//DTD SVG 1.1//EN" "http://www.w3.org/Graphics/SVG/1.1/DTD/svg11.dtd">
<svg viewBox="0 0 800 800" preserveAspectRatio="xMinYMin meet" xmlns="http://www.w3.org/2000/svg" version="1.1">
<g fill="none" stroke="black" stroke-linecap="round" stroke-linejoin="round" stroke-width="2.1841">
<g transform="translate(87.52,276.3815) scale(1.3735) translate(-86,-227.1333)">
<path id="0" d="M146 286.1333 C146 286.1333 147.9485 286.7989 148 287.1333 C148.4722 290.2023 149.7849 294.3735 148 299.1333 C140.2839 319.7096 136.213 321.776 127 343.1333 C125.7096 346.1246 127.3342 347.2743 126 350.1333 C120.8062 361.263 112.8277 373.0831 113 373.1333 C115.3121 373.8077 155.6429 373.3195 198 371.1333 C232.9941 369.3272 232.9706 367.1515 268 365.1333 C354.3768 360.1569 354.6776 362.2759 441 357.1333 C472.0292 355.2848 500.0458 356.1327 503 351.1333 C510.3287 338.7308 508.1562 258.9359 506 247.1333 C505.9162 246.6748 494.792 246.0841 484 247.1333 C459.1389 249.5504 458.9983 251.661 434 254.1333 C413.6838 256.1426 413.4643 256.1333 393 256.1333 C295.6696 256.1333 294.8441 257.0058 198 254.1333 C177.5705 253.5274 161.2076 248.1315 157 249.1333 C156.5168 249.2484 157.4943 257.0886 156 264.1333 C154.1068 273.0586 150 282.1333 150 282.1333 "/>
<path id="1" d="M418 259.1333 C418 259.1333 420.9137 280.6798 422 302.1333 C422.9052 320.0102 423.0002 320.4628 422 338.1333 C421.523 346.5611 419 355.1333 419 355.1333 "/>
<path id="2" d="M445 286.1333 C445 286.1333 447.563 291.7435 448 297.1333 C449.0106 309.5974 446.4711 322.059 448 323.1333 C451.0961 325.309 484.87 323.141 485 323.1333 C485.0101 323.1327 482.4117 322.1625 482 321.1333 C480.1732 316.5664 479.2115 314.4773 479 308.1333 C478.2418 285.3887 481.7794 264.0762 480 261.1333 C479.5273 260.3515 457.5163 262.1224 453 265.1333 C450.9194 266.5204 449.5096 275.0029 450 281.1333 C450.2925 284.7898 455 290.1333 455 290.1333 "/>
<path id="3" d="M447 270.1333 C447 270.1333 449.492 272.7205 450 275.1333 C451.2818 281.2219 451 289.1333 451 289.1333 "/>
<path id="4" d="M113 375.1333 C113 375.1333 113.9733 384.7153 116 391.1333 C116.4721 392.6282 117.8528 394.073 119 394.1333 C138.6166 395.1658 146.2524 395.3631 173 394.1333 C189.4369 393.3776 189.4769 391.2288 206 390.1333 C279.7763 385.2421 280.0566 384.5777 354 382.1333 C400.8803 380.5836 401.1514 382.9141 448 382.1333 C460.9748 381.9171 461.3981 382.3904 474 380.1333 C494.4584 376.4691 509.0421 373.4102 515 370.1333 C515.7175 369.7387 515.4822 363.3209 514 358.1333 C512.7419 353.7299 509 349.1333 509 349.1333 "/>
<path id="5" d="M413 260.1333 C413 260.1333 418.8586 269.3296 421 278.1333 C423.066 286.6269 420.6477 288.3436 422 297.1333 C422.5268 300.5574 424.7269 300.7884 425 304.1333 C426.586 323.5623 426 346.1333 426 346.1333 "/>
<path id="6" d="M507 238.1333 C507 238.1333 506.5016 228.3526 507 228.1333 C509.8814 226.8655 529.9462 225.1458 532 227.1333 C535.0765 230.1106 537.0297 242.7164 538 258.1333 C541.4692 313.2556 543.4716 356.1687 541 370.1333 C540.8876 370.7686 518 371.1333 518 371.1333 "/>
<path id="7" d="M159 246.1333 C159 246.1333 156.032 228.1244 156 228.1333 C155.5445 228.2609 138.5306 241.3538 134 253.1333 C128.4279 267.6209 136.8423 275.7282 131 293.1333 C114.1736 343.262 91.3577 376.6035 86 396.1333 C85.7139 397.1762 94.2142 404.4802 100 406.1333 C104.609 407.4502 108.5262 406.4141 114 404.1333 C118.9203 402.0832 124 396.1333 124 396.1333 "/>
<path id="8" d="M121 401.1333 C121 401.1333 120.7663 407.0271 121 407.1333 C121.9036 407.5441 126.5323 406.7766 132 406.1333 C135.0087 405.7794 137.8301 405.4306 138 405.1333 C138.1863 404.8073 136 399.1333 136 399.1333 "/>
<path id="9" d="M485 384.1333 C485 384.1333 487.6298 392.1278 490 394.1333 C491.5576 395.4513 494.7015 395.4082 498 395.1333 C499.7361 394.9887 501.8001 393.8829 502 393.1333 C502.8473 389.9558 502 380.1333 502 380.1333 "/>
</g>
</g>
</svg>
