<?xml version="1.0" encoding="utf-8"?>
<!DOCTYPE svg PUBLIC "-//W3C//DTD SVG 1.1//EN" "http://www.w3.org/Graphics/SVG/1.1/DTD/svg11.dtd">
<svg viewBox="0 0 800 800" preserveAspectRatio="xMinYMin meet" xmlns="http://www.w3.org/2000/svg" version="1.1">
<g fill="none" stroke="black" stroke-linecap="round" stroke-linejoin="round" stroke-width="1.5169">
<g transform="translate(87.52,222.9939) scale(1.9777) translate(-112,-105.1333)">
<path id="0" d="M114 226.1333 C114 226.1333 376.8497 232.7932 413 230.1333 C413.2315 230.1163 413.3196 204.1644 413 204.1333 C375.3159 200.4661 263.9926 202.6233 115 201.1333 C114.0002 201.1233 113 201.1333 113 201.1333 C113 203.7798 115 226.1333 115 226.1333 "/>
<path id="1" d="M115 227.1333 C115 227.1333 112.4596 235.7067 112 244.1333 C110.9824 262.7898 110.5897 275.0819 112 282.1333 C112.1336 282.8014 118.2197 284.457 120 284.1333 C120.8689 283.9753 122.8772 281.853 123 280.1333 C124.5177 258.8851 124 228.1333 124 228.1333 "/>
<path id="2" d="M409 232.1333 C409 232.1333 402.5318 275.6382 403 280.1333 C403.0113 280.2421 413.7738 280.7064 414 280.1333 C416.0619 274.9098 418.8309 254.5973 418 242.1333 C417.8356 239.667 411 235.1333 411 235.1333 "/>
<path id="3" d="M417 202.1333 C417 202.1333 424.5066 202.7747 425 202.1333 C426.1656 200.618 427 195.5283 427 189.1333 C427 153.7153 424.5831 151.3208 425 117.1333 C425.0581 112.3661 428.3531 107.9807 428 107.1333 C427.7848 106.6168 423.9399 105.5481 420 105.1333 C414.7215 104.5777 409.6329 104.3057 409 105.1333 C407.6059 106.9563 407.1082 113.6975 407 122.1333 C406.6126 152.3512 405.7878 153.6374 408 183.1333 C408.7018 192.4904 411.1324 198.9075 413 202.1333 C413.2963 202.6451 419 202.1333 419 202.1333 "/>
<path id="4" d="M114 202.1333 C114 202.1333 115.1549 169.1414 117 164.1333 C117.1912 163.6143 127.8826 163.7491 128 164.1333 C129.2576 168.2491 128 200.1333 128 200.1333 "/>
<path id="5" d="M401 180.1333 C401 180.1333 373.0599 178.554 370 180.1333 C369.1849 180.554 369.1188 195.6652 370 196.1333 C373.3726 197.925 398.0552 198.8737 402 197.1333 C403.1323 196.6338 404.2716 186.2944 404 181.1333 C403.946 180.108 402.3114 178.5705 401 178.1333 C399.0329 177.4776 395 178.1333 395 178.1333 "/>
</g>
</g>
</svg>
