<?xml version="1.0" encoding="utf-8"?>
<!DOCTYPE svg PUBLIC "-//W3C//DTD SVG 1.1//EN" "http://www.w3.org/Graphics/SVG/1.1/DTD/svg11.dtd">
<svg viewBox="0 0 800 800" preserveAspectRatio="xMinYMin meet" xmlns="http://www.w3.org/2000/svg" version="1.1">
<g fill="none" stroke="black" stroke-linecap="round" stroke-linejoin="round" stroke-width="2.0161">
<g transform="translate(87.52,151.504) scale(1.488) translate(-4,-34.1333)">
<path id="0" d="M250 129.1333 C250 129.1333 252.4459 119.5855 257 112.1333 C263.0286 102.2684 264.0987 101.7217 272 93.1333 C275.2183 89.6351 280 87.1333 280 87.1333 "/>
<path id="1" d="M317 160.1333 C317 160.1333 326.547 158.2438 331 154.1333 C337.5217 148.1133 339.2795 144.7191 343 136.1333 C344.9939 131.5321 344 124.1333 344 124.1333 "/>
<path id="2" d="M355 134.1333 C355 134.1333 350.1387 132.9667 348 134.1333 C341.4171 137.724 338.9911 139.5976 333 146.1333 C328.7151 150.8077 327.709 152.5179 326 158.1333 C324.6696 162.5047 326 169.1333 326 169.1333 "/>
<path id="3" d="M366 190.1333 C366 190.1333 379.0848 193.1584 383 191.1333 C387.8162 188.6422 390.9262 182.99 395 175.1333 C397.2067 170.8776 397 164.1333 397 164.1333 "/>
<path id="4" d="M397 163.1333 C397 163.1333 391.8978 152.4393 385 147.1333 C374.2822 138.8889 358 133.1333 358 133.1333 "/>
<path id="5" d="M328 175.1333 C328 175.1333 343.2081 185.448 356 191.1333 C358.9146 192.4287 364 191.1333 364 191.1333 "/>
<path id="6" d="M254 131.1333 C254 131.1333 254.9235 135.5619 257 137.1333 C270.9476 147.6883 273.7529 148.9259 291 159.1333 C298.0216 163.289 298.6142 163.7699 306 166.1333 C310.4212 167.5481 316 167.1333 316 167.1333 "/>
<path id="7" d="M281 91.1333 C281 91.1333 294.709 92.3163 305 97.1333 C316.704 102.6118 316.2268 106.3173 328 113.1333 C334.7413 117.0362 343 119.1333 343 119.1333 "/>
<path id="8" d="M343 119.1333 C343 119.1333 327.8395 126.0999 324 132.1333 C320.7448 137.2487 324.1756 146.9119 322 152.1333 C321.2342 153.9713 315.7558 154.1824 314 156.1333 C312.9183 157.3353 313 162.1333 313 162.1333 "/>
<path id="9" d="M395 160.1333 C395 160.1333 387.0747 167.5511 383 174.1333 C381.5512 176.4737 382.8273 180.1879 382 181.1333 C381.3434 181.8837 377.1035 181.0298 376 182.1333 C373.6354 184.498 371 192.1333 371 192.1333 "/>
<path id="10" d="M244 131.1333 C244 131.1333 253.2183 132.076 259 136.1333 C279.7924 150.7245 279.1002 155.417 301 171.1333 C321.1186 185.5714 324.2182 183.8109 344 197.1333 C347.5027 199.4923 348.9982 200.6727 350 204.1333 C353.7204 216.9858 353.9226 219.6909 355 235.1333 C356.8926 262.2608 356 290.1333 356 290.1333 "/>
<path id="11" d="M230 138.1333 C230 138.1333 236.7729 145.7915 244 151.1333 C247.6602 153.8387 249.6356 152.2307 253 155.1333 C273.6736 172.9694 273.8604 176.7858 295 195.1333 C299.466 199.0095 301.3537 197.455 306 201.1333 C312.8711 206.5729 314.0207 207.1171 319 214.1333 C324.4635 221.8319 326.6454 223.4411 328 232.1333 C332.1519 258.7744 327.7091 271.6874 331 291.1333 C331.4067 293.5364 335.2143 296.0292 339 297.1333 C345.3256 298.9783 355 298.1333 355 298.1333 "/>
<path id="12" d="M337 300.1333 C337 300.1333 313.4754 303.3238 290 304.1333 C241.1774 305.8169 240.6731 303.5505 192 305.1333 C179.5391 305.5386 179.2412 305.7641 167 308.1333 C148.4607 311.7216 148.1893 315.9296 130 317.1333 C82.1023 320.303 72.4754 318.7133 31 317.1333 C28.4225 317.0351 26.013 314.8217 25 313.1333 C24.2002 311.8004 25.9189 309.4305 25 307.1333 C21.4777 298.3276 17.5435 297.7089 15 288.1333 C9.4964 267.4139 10.1152 265.4938 8 243.1333 C6.6567 228.9322 9.3303 227.769 8 214.1333 C7.4316 208.3075 4.4097 207.8697 4 202.1333 C3.0019 188.1592 2.4371 181.6162 5 172.1333 C5.7986 169.1784 10.7037 168.7292 14 165.1333 C15.477 163.522 14.5718 161.2759 16 160.1333 C20.4274 156.5914 22.2921 155.4665 29 153.1333 C44.7023 147.6717 45.3948 147.2227 62 144.1333 C88.0048 139.2952 88.5203 139.1878 115 137.1333 C146.2333 134.7101 147.1635 137.1621 178 135.1333 C184.4462 134.7092 184.6096 132.4425 191 132.1333 C214.8208 130.9807 240 132.1333 240 132.1333 "/>
<path id="13" d="M251 130.1333 C251 130.1333 253.9875 115.0678 255 100.1333 C255.97 85.826 257.1115 80.6352 255 71.1333 C254.3609 68.2573 247.8776 67.0951 247 64.1333 C245.1269 57.8117 244.8143 50.6903 247 44.1333 C248.4571 39.762 252.9794 35.9426 257 34.1333 C259.6481 32.9417 263.3867 33.8429 267 35.1333 C268.8939 35.8097 270.5714 37.4191 271 39.1333 C272.0285 43.2475 272.4366 47.0288 271 51.1333 C269.749 54.7077 264.5177 55.7316 264 59.1333 C261.8301 73.3929 264 97.1333 264 97.1333 "/>
<path id="14" d="M263 89.1333 C263 89.1333 268.4067 82.8461 273 82.1333 C293.0162 79.0274 302.0396 76.6617 321 80.1333 C331.2483 82.0098 334.4109 87.2566 344 95.1333 C347.1414 97.7138 347.143 102.7619 349 103.1333 C358.8475 105.1028 368.1244 101.1894 384 103.1333 C390.6835 103.9517 393.4792 105.6172 398 109.1333 C400.4757 111.0588 402 117.1333 402 117.1333 "/>
<path id="15" d="M398 194.1333 C398 194.1333 399.8819 188.5638 400 183.1333 C400.8659 143.3028 402.431 133.0413 400 102.1333 C399.7434 98.8706 394.7661 97.6656 393 94.1333 C392.0785 92.2904 392.0315 89.4246 393 88.1333 C396.0668 84.0442 399.4021 80.1197 405 78.1333 C411.9683 75.6607 422.5267 76.2028 424 77.1333 C424.6586 77.5493 425.5936 85.751 424 90.1333 C422.5401 94.1479 418.9541 94.3613 416 99.1333 C412.8039 104.2962 411.637 105.4 411 111.1333 C409.3257 126.2025 409.6383 128.4733 411 144.1333 C411.5508 150.4675 414.7937 150.8398 415 157.1333 C417.6724 238.6423 417.8326 253.4504 417 327.1333 C416.9655 330.1873 415.1211 333.2054 413 334.1333 C403.6709 338.2148 398.6896 338.2295 385 341.1333 C382.6785 341.6258 380.8662 341.5664 380 341.1333 C379.5669 340.9168 379 339.5297 379 338.1333 C379 329.7551 377.8273 324.1445 380 320.1333 C381.4647 317.4292 387.8859 317.7903 392 314.1333 C395.5339 310.9921 397.8287 308.5197 398 304.1333 C399.9749 253.5759 397 186.1333 397 186.1333 "/>
<path id="16" d="M397 296.1333 L359 296.1333 "/>
<path id="17" d="M398 302.1333 L288 303.1333 "/>
<path id="18" d="M28 317.1333 C28 317.1333 26.0262 340.0008 28 355.1333 C28.4562 358.6308 30.6223 360.3889 34 363.1333 C37.8 366.2208 39.2967 367.4978 44 368.1333 C55.8952 369.7408 61.3989 369.6335 71 368.1333 C73.0558 367.8121 75.2714 365.319 76 363.1333 C77.0928 359.8548 77.3071 354.5131 76 353.1333 C72.5946 349.5388 65.7867 349.5035 58 344.1333 C52.0213 340.0101 51.3405 339.0058 47 333.1333 C43.2711 328.0884 41 321.1333 41 321.1333 "/>
</g>
</g>
</svg>
