<?xml version="1.0" encoding="utf-8"?>
<!DOCTYPE svg PUBLIC "-//W3C//DTD SVG 1.1//EN" "http://www.w3.org/Graphics/SVG/1.1/DTD/svg11.dtd">
<svg viewBox="0 0 800 800" preserveAspectRatio="xMinYMin meet" xmlns="http://www.w3.org/2000/svg" version="1.1">
<g fill="none" stroke="black" stroke-linecap="round" stroke-linejoin="round" stroke-width="1.9969">
<g transform="translate(87.52,109.3035) scale(1.5023) translate(-35,-53.1333)">
<path id="0" d="M207 425.1333 C207 425.1333 210.8262 379.7369 212 335.1333 C212.3119 323.2825 209.751 322.838 210 311.1333 C210.2397 299.8653 214.1979 290.5291 213 288.1333 C212.3871 286.9076 197.4553 284.4602 197 285.1333 C194.571 288.7241 190 322.1333 190 322.1333 "/>
<path id="1" d="M183 320.1333 C183 320.1333 159.5752 313.3716 136 309.1333 C115.3507 305.4211 94 304.1333 94 304.1333 "/>
<path id="2" d="M38 292.1333 C38 292.1333 37.3976 277.5934 39 264.1333 C39.8249 257.2038 41.5633 251.2109 43 250.1333 C44.0404 249.353 54.9271 251.6229 55 252.1333 C55.9086 258.4937 50 299.1333 50 299.1333 "/>
<path id="3" d="M47 296.1333 L94 303.1333 "/>
<path id="4" d="M38 281.1333 C38 281.1333 39.1185 298.2197 38 313.1333 C37.7125 316.9666 35.121 317.3429 35 321.1333 C33.715 361.3981 35 407.1333 35 407.1333 "/>
<path id="5" d="M36 408.1333 C36 408.1333 34.9052 409.9438 35 410.1333 C35.2211 410.5755 36.4536 411.6501 38 412.1333 C43.9457 413.9914 49.508 415.8355 51 415.1333 C52.1815 414.5773 53.9837 409.6501 55 404.1333 C57.3857 391.1824 58 377.1333 58 377.1333 "/>
<path id="6" d="M54 380.1333 C54 380.1333 98.5179 382.1587 141 389.1333 C164.5916 393.0066 188 402.1333 188 402.1333 "/>
<path id="7" d="M189 402.1333 C189 402.1333 188.6984 428.5301 192 435.1333 C193.2441 437.6215 207.226 440.5431 208 440.1333 C208.4876 439.8752 209 426.1333 209 426.1333 "/>
<path id="8" d="M55 288.1333 C55 288.1333 54.9903 285.2152 56 284.1333 C60.7349 279.0603 61.9509 277.34 69 273.1333 C92.2451 259.2613 93.1883 259.4349 118 247.1333 C152.6218 229.9679 153.4473 231.4097 188 214.1333 C215.3625 200.4521 214.4516 197.5571 242 185.1333 C264.8617 174.8231 290 168.1333 290 168.1333 "/>
<path id="9" d="M214 360.1333 C214 360.1333 212.7564 371.3608 214 379.1333 C214.4346 381.8496 216.2308 384.4815 218 385.1333 C222.378 386.7463 226.2666 386.9103 233 386.1333 C238.1849 385.5351 240.0664 385.3444 244 382.1333 C262.5817 366.9646 262.3405 362.8439 282 346.1333 C291.9587 337.6684 293.8174 339.4645 304 331.1333 C326.553 312.6809 325.0952 309.8193 348 292.1333 C364.0666 279.7275 366.1877 281.927 383 270.1333 C399.5137 258.5491 415 245.1333 415 245.1333 "/>
<path id="10" d="M232 322.1333 C232 322.1333 261.0754 298.4785 292 278.1333 C336.795 248.6629 384 222.1333 384 222.1333 "/>
<path id="11" d="M330 145.1333 C330 145.1333 327.176 142.3509 325 142.1333 C318.8825 141.5216 316.034 140.9922 310 143.1333 C302.3181 145.8592 298.6538 148.7532 294 153.1333 C292.7827 154.279 292.3243 158.3865 293 159.1333 C297.389 163.9844 303.0079 169.5029 313 174.1333 C321.4729 178.0598 323.5765 177.5273 334 178.1333 C365.9383 179.9902 399 179.1333 399 179.1333 "/>
<path id="12" d="M404 180.1333 C404 180.1333 415.801 171.4318 420 165.1333 C421.4724 162.9248 421.0552 159.299 420 156.1333 C419.1011 153.4366 417.87 152.0051 415 150.1333 C407.314 145.1207 406.1885 144.6674 397 141.1333 C387.0211 137.2953 386.5243 136.7778 376 135.1333 C355.0712 131.8632 333 131.1333 333 131.1333 "/>
<path id="13" d="M382 224.1333 L398 213.1333 "/>
<path id="14" d="M426 239.1333 C426 239.1333 428 235.9387 428 233.1333 C428 211.6251 427.6203 209.817 426 187.1333 C425.6438 182.1471 425.012 178.3983 424 177.1333 C423.5813 176.6099 418 177.1333 418 177.1333 "/>
<path id="15" d="M423 237.1333 L422 239.1333 "/>
<path id="16" d="M444 223.1333 C444 223.1333 442.0179 221.8838 442 221.1333 C440.9178 175.679 443.1424 157.5486 441 97.1333 C440.7039 88.7839 438.0168 88.5217 437 80.1333 C436.0696 72.4574 437.6372 65.3281 437 64.1333 C436.8699 63.8894 432.6815 65.4839 429 65.1333 C422.8125 64.544 416.0796 61.9515 416 62.1333 C414.951 64.5311 414.5984 81.069 415 97.1333 C415.058 99.4528 417 102.1333 417 102.1333 "/>
<path id="17" d="M416 96.1333 L418 97.1333 "/>
<path id="18" d="M416 96.1333 C416 96.1333 415.4825 99.6509 415 100.1333 C414.7105 100.4228 413.3397 100.4859 412 100.1333 C404.2672 98.0984 403.9756 96.2527 396 95.1333 C376.2202 92.3572 355 92.1333 355 92.1333 "/>
<path id="19" d="M356 95.1333 C356 95.1333 356.2364 63.9718 354 61.1333 C352.8742 59.7044 331.7197 61.3517 330 62.1333 C329.853 62.2002 331.8681 66.7146 332 71.1333 C332.8444 99.4217 332.7035 108.0287 332 129.1333 C331.9749 129.8853 330 131.1333 330 131.1333 "/>
<path id="20" d="M441 217.1333 C441 217.1333 442.4434 263.713 441 268.1333 C440.9087 268.4128 431.6609 265.8306 425 266.1333 C422.4308 266.2501 419.0048 269.1863 419 269.1333 C418.9517 268.602 423 244.1333 423 244.1333 "/>
<path id="21" d="M216 381.1333 L210 386.1333 "/>
<path id="22" d="M60 318.1333 C60 318.1333 56.2723 359.7659 59 362.1333 C63.0881 365.6815 86.8942 360.9068 113 364.1333 C130.3786 366.2813 130.9229 367.6885 148 373.1333 C165.2013 378.6178 181.7533 386.4623 182 386.1333 C182.987 384.8174 183.2367 342.0066 178 333.1333 C175.4569 328.8241 162.0848 327.5111 146 325.1333 C105.122 319.0905 63 316.1333 63 316.1333 "/>
<path id="23" d="M351 108.1333 C351 108.1333 352.57 105.0917 353 105.1333 C368.3103 106.615 384.5064 109.5376 413 114.1333 C414.0021 114.295 414.95 114.783 415 115.1333 C415.784 120.6211 415.5837 125.1423 416 135.1333 C416.0831 137.1274 416.2 138.7333 416 139.1333 C415.95 139.2333 414 139.1333 414 139.1333 "/>
<path id="24" d="M349 104.1333 L349 120.1333 "/>
<path id="25" d="M411 160.1333 L402 168.1333 "/>
<path id="26" d="M313 141.1333 L327 131.1333 "/>
<path id="27" d="M260 221.1333 C260 221.1333 241.6624 230.6255 225 234.1333 C215.379 236.1588 213.728 232.61 203 233.1333 C193.6428 233.5898 184 236.1333 184 236.1333 "/>
<path id="28" d="M192 237.1333 C192 237.1333 213.7829 245.2954 234 247.1333 C250.3621 248.6208 269 244.1333 269 244.1333 "/>
<path id="29" d="M141 257.1333 C141 257.1333 171.0796 258.0485 200 261.1333 C207.9941 261.986 209.0285 262.4775 216 265.1333 C218.5954 266.122 221 269.1333 221 269.1333 "/>
<path id="30" d="M117 279.1333 L194 280.1333 "/>
<path id="31" d="M270 199.1333 C270 199.1333 271.2154 201.0897 272 201.1333 C298.0585 202.581 342 203.1333 342 203.1333 "/>
<path id="32" d="M252 209.1333 L254 209.1333 "/>
<path id="33" d="M265 265.1333 C265 265.1333 266.8497 263.1333 268 263.1333 C273.7516 263.1333 283 265.1333 283 265.1333 "/>
<path id="34" d="M303 301.1333 L303 322.1333 "/>
<path id="35" d="M303 322.1333 C303 322.1333 304.9936 300.1418 305 300.1333 C305.003 300.1293 309 314.1333 309 314.1333 "/>
<path id="36" d="M333 296.1333 L332 294.1333 "/>
<path id="37" d="M352 275.1333 C352 275.1333 352.9992 277.135 353 277.1333 C353.0022 277.1289 353 273.1333 353 273.1333 "/>
<path id="38" d="M352 275.1333 C352 275.1333 363.4863 271.7315 364 270.1333 C365.278 266.1573 361 247.1333 361 247.1333 "/>
<path id="39" d="M364 246.1333 L377 269.1333 "/>
<path id="40" d="M391 258.1333 L390 256.1333 "/>
<path id="41" d="M391 258.1333 L391 239.1333 "/>
<path id="42" d="M395 241.1333 L396 239.1333 "/>
<path id="43" d="M242 381.1333 C242 381.1333 245.9974 360.1406 246 360.1333 C246.0008 360.1312 246.0405 364.9745 247 367.1333 C247.4296 368.1 250 369.1333 250 369.1333 "/>
<path id="44" d="M202 284.1333 C202 284.1333 206.4059 281.8091 209 282.1333 C212.651 282.5897 218 286.1333 218 286.1333 "/>
<path id="45" d="M218 286.1333 C218 286.1333 216.6206 296.2694 217 306.1333 C217.6104 322.0031 220.1812 322.3718 220 338.1333 C219.688 365.2753 216.9338 365.7426 216 393.1333 C215.4417 409.5102 218.8357 412.6714 217 426.1333 C216.3322 431.0303 210 437.1333 210 437.1333 "/>
<path id="46" d="M51 414.1333 C51 414.1333 61.5049 409.4973 63 406.1333 C65.1305 401.3396 62.5075 392.0583 63 387.1333 C63.0311 386.8223 65 386.2583 65 386.1333 C65 385.6333 63 382.1333 63 382.1333 "/>
<path id="47" d="M46 251.1333 C46 251.1333 51.6254 245.4127 54 245.1333 C56.3265 244.8596 62.6658 247.7547 63 249.1333 C64.5548 255.5468 62.3985 274.2816 62 278.1333 C61.9972 278.1607 60.0007 278.121 60 278.1333 C59.8892 280.1283 61 296.1333 61 296.1333 "/>
<path id="48" d="M415 61.1333 C415 61.1333 421.2525 56.4498 426 56.1333 C433.8753 55.6083 444.6624 57.8956 445 59.1333 C447.5879 68.6223 444 122.1333 444 122.1333 "/>
<path id="49" d="M446 90.1333 C446 90.1333 449.8073 136.2135 451 182.1333 C451.8023 213.0227 450.8467 213.2289 450 244.1333 C449.8495 249.6276 450.7057 250.7742 449 255.1333 C446.7344 260.9233 441 267.1333 441 267.1333 "/>
<path id="50" d="M332 64.1333 C332 64.1333 335.9086 55.3928 339 54.1333 C344.6968 51.8124 358.557 52.2917 359 53.1333 C360.8136 56.5791 359 92.1333 359 92.1333 "/>
</g>
</g>
</svg>
