<?xml version="1.0" encoding="utf-8"?>
<!DOCTYPE svg PUBLIC "-//W3C//DTD SVG 1.1//EN" "http://www.w3.org/Graphics/SVG/1.1/DTD/svg11.dtd">
<svg viewBox="0 0 800 800" preserveAspectRatio="xMinYMin meet" xmlns="http://www.w3.org/2000/svg" version="1.1">
<g fill="none" stroke="black" stroke-linecap="round" stroke-linejoin="round" stroke-width="1.7617">
<g transform="translate(87.52,156.487) scale(1.7029) translate(-122,-115)">
<path id="0" d="M131 161 C131 161 132.6226 229.7848 137 298 C138.6054 323.0175 142.038 323.2294 143 348 C144.0135 374.0968 138.1735 397.0578 141 401 C142.572 403.1925 168.7938 402.8987 181 401 C182.8581 400.711 185.8283 396.9867 186 394 C187.8844 361.212 184.0158 352.0966 186 314 C186.4033 306.2567 189.5092 298.2584 191 298 C204.3253 295.6903 226.4103 301 261 301 C274.3418 301 274.5335 298.37 288 298 C365.0996 295.8819 443 296 443 296 C443 296 441.025 295.925 441 296 C440.775 296.675 440.2097 299.6291 441 302 C442.405 306.215 444.6294 306.3898 446 311 C449.8928 324.094 450.3184 325.0663 452 339 C453.7634 353.6111 450.9796 356.2044 453 369 C453.5888 372.7293 455.9256 376.3777 458 377 C465.0922 379.1277 474.4766 379.3747 483 378 C485.391 377.6144 488.8434 374.3225 489 372 C491.0291 341.9018 490.6063 325.1408 489 289 C488.8611 285.8746 485.0985 285.0874 485 282 C483.7977 244.3285 487.7459 238.0663 486 195 C484.7696 164.6495 482.959 162.5927 479 134 C478.7268 132.0266 477.8458 130.5639 477 130 C476.275 129.5167 474.8326 129.5771 473 130 C462.2866 132.4723 458.2395 131.6563 451 136 C446.7015 138.5791 443.7944 142.5274 443 148 C439.9733 168.8508 441.2323 173.1764 442 198 C442.724 221.4101 447.5708 244.1772 446 245 C439.4156 248.449 401.3437 241.6295 358 242 C343.6953 242.1223 343.4208 245.6016 329 246 C253.6885 248.0804 210.7374 249.1627 177 247 C175.9552 246.933 173.2611 241.2744 173 236 C170.9003 193.5857 173.8445 190.6361 172 146 C171.3616 130.5505 170.6485 117.1474 168 115 C165.0739 112.6275 145.9119 112.4418 135 116 C129.2487 117.8754 125.4322 123.9276 122 130 C120.553 132.56 120.8343 135.1443 122 139 C126.9127 155.2498 135 173 135 173 "/>
<path id="1" d="M174 223 C174 223 177.6137 216.6552 182 213 C185.8044 209.8296 187.0123 209.0439 192 208 C207.278 204.8023 208.5506 204.5087 225 204 C304.9842 201.5263 305.6774 202 386 202 C404.4592 202 407.6769 199.5209 423 204 C436.4414 207.929 451 221 451 221 "/>
<path id="2" d="M202 304 C202 304 207.9125 389.5383 206 399 C205.9259 399.3665 183 398 183 398 "/>
<path id="3" d="M414 297 C414 297 411.2804 318.9297 412 338 C412.2137 343.6622 415.196 344.0277 416 350 C418.5907 369.2452 418.921 389.3997 419 390 C419.0034 390.0258 420.2412 388.033 421 388 C436.9979 387.3044 463.323 388.078 465 388 C465.0346 387.9984 463.8434 386.2871 464 386 C465.3802 383.4697 469.4893 380.0214 471 377 C471.3021 376.3957 470 374 470 374 "/>
<path id="4" d="M177 188 C177 188 183.3058 179.6092 189 178 C202.3839 174.2176 213.1568 172.6462 223 175 C227.5391 176.0854 232.6981 184.1661 235 189 C235.7061 190.4829 234.3173 195.1476 233 196 C229.4516 198.296 225.2748 199.4925 218 200 C204.7015 200.9278 201.3619 201.9065 190 199 C182.9397 197.1939 175 189 175 189 "/>
<path id="5" d="M239 193 C239 193 259.0462 189.5452 279 189 C350.154 187.0559 368.9628 183.9462 422 188 C427.5639 188.4253 429.5015 194.192 436 201 C439.8655 205.0496 442.5961 209.1922 443 210 C443 210 441 211 441 211 "/>
</g>
</g>
</svg>
