<?xml version="1.0" encoding="utf-8"?>
<!DOCTYPE svg PUBLIC "-//W3C//DTD SVG 1.1//EN" "http://www.w3.org/Graphics/SVG/1.1/DTD/svg11.dtd">
<svg viewBox="0 0 800 800" preserveAspectRatio="xMinYMin meet" xmlns="http://www.w3.org/2000/svg" version="1.1">
<g fill="none" stroke="black" stroke-linecap="round" stroke-linejoin="round" stroke-width="2.3762">
<g transform="translate(87.52,296.4713) scale(1.2625) translate(-63,-237.1333)">
<path id="0" d="M145 241.1333 C145 241.1333 314.4812 242.9767 479 241.1333 C490.3512 241.0061 490.7356 237.5027 502 237.1333 C520.4732 236.5277 540 239.1333 540 239.1333 "/>
<path id="1" d="M148 243.1333 C148 243.1333 138.3064 251.8855 132 262.1333 C114.7963 290.0894 117.0349 293.499 100 321.1333 C95.2366 328.8606 92.2005 328.1993 87 335.1333 C85.3577 337.323 85.8165 340.1535 85 341.1333 C84.7337 341.4528 82.6456 340.6491 82 341.1333 C79.9554 342.6667 78.68 343.8722 77 347.1333 C70.4998 359.7514 68.7915 362.0696 65 374.1333 C64.053 377.1465 65.8219 382.1304 66 382.1333 C132.1899 383.2313 487 381.1333 487 381.1333 "/>
<path id="2" d="M537 239.1333 C537 239.1333 544.2477 238.4566 550 239.1333 C551.874 239.3538 553.3359 240.3032 554 241.1333 C554.3831 241.6122 554.5078 243.033 554 244.1333 C549.169 254.6004 546.0884 255.2515 542 267.1333 C530.4139 300.8054 533.4737 303.8597 522 337.1333 C518.9489 345.9814 515.9719 345.3534 512 354.1333 C506.6353 365.9921 507.7387 368.0763 503 379.1333 C502.2962 380.7755 501.2346 381.9384 500 382.1333 C494.3133 383.0312 484 382.1333 484 382.1333 "/>
<path id="3" d="M555 242.1333 C555 242.1333 558.419 248.5247 558 253.1333 C557.1195 262.8192 555.7476 264.4824 552 275.1333 C546.3153 291.2897 544.1041 290.8332 539 307.1333 C528.7218 339.9573 531.9165 342.4402 521 374.1333 C516.9022 386.0303 508 397.1333 508 397.1333 "/>
<path id="4" d="M500 382.1333 C500 382.1333 503.1939 385.2314 504 388.1333 C505.3918 393.1436 505 400.1333 505 400.1333 "/>
<path id="5" d="M65 377.1333 C65 377.1333 62.973 400.1313 63 400.1333 C96.3105 402.6553 222.609 402.2103 382 401.1333 C444.4721 400.7112 507 397.1333 507 397.1333 "/>
<path id="6" d="M147 241.1333 L143 244.1333 "/>
</g>
</g>
</svg>
