<?xml version="1.0" encoding="utf-8"?>
<!DOCTYPE svg PUBLIC "-//W3C//DTD SVG 1.1//EN" "http://www.w3.org/Graphics/SVG/1.1/DTD/svg11.dtd">
<svg viewBox="0 0 800 800" preserveAspectRatio="xMinYMin meet" xmlns="http://www.w3.org/2000/svg" version="1.1">
<g fill="none" stroke="black" stroke-linecap="round" stroke-linejoin="round" stroke-width="1.6609">
<g transform="translate(87.52,89.3262) scale(1.8062) translate(-90,-82.2)">
<path id="0" d="M108 203.2 C108 203.2 113.8425 204.0863 117 202.2 C148.2158 183.5516 149.9845 177.2788 185 157.2 C220.9161 136.6048 260 120.2 260 120.2 "/>
<path id="1" d="M108 205.2 C108 205.2 113.767 206.2903 117 209.2 C132.3439 223.0095 131.2121 227.1101 148 241.2 C186.6018 273.598 190.1827 271.1011 229 303.2 C241.5741 313.5978 239.6988 316.3046 252 327.2 C274.4185 347.0564 278.08 347.2685 299 365.2 C300.4272 366.4233 299.7562 368.5603 301 369.2 C313.3239 375.538 334 383.2 334 383.2 "/>
<path id="2" d="M264 120.2 C264 120.2 295.4945 143.3057 324 169.2 C360.7088 202.5462 359.0808 204.7175 395 239.2 C409.0246 252.6636 409.1597 253.2554 424 265.2 C429.2416 269.4188 436 272.2 436 272.2 "/>
<path id="3" d="M436 272.2 C436 272.2 430.3202 273.4639 426 276.2 C415.8315 282.64 414.7991 282.8008 406 291.2 C393.2383 303.3816 392.8911 304.1972 382 318.2 C375.6668 326.3427 377.1357 327.8554 371 336.2 C364.8159 344.6104 362.5653 343.7311 357 352.2 C351.4978 360.5729 351.8828 366.632 348 371.2 C346.8636 372.537 340.9903 371.3197 340 372.2 C339.1954 372.9152 340.1851 377.0273 339 379.2 C337.9434 381.1371 334 383.2 334 383.2 "/>
<path id="4" d="M334 384.2 L334 426.2 "/>
<path id="5" d="M434 274.2 L434 321.2 "/>
<path id="6" d="M112 206.2 L111 258.2 "/>
<path id="7" d="M110 205.2 C110 205.2 103.8387 206.1645 103 205.2 C98.2731 199.7641 92.0558 192.9536 90 182.2 C86.37 163.2121 86.3439 155.4806 90 137.2 C91.8362 128.0191 95.5947 124.6053 103 117.2 C109.0589 111.1411 112.3287 112.806 120 107.2 C124.916 103.6076 124.0864 101.0531 129 98.2 C138.4038 92.7397 139.9045 92.4782 151 89.2 C161.4308 86.1182 161.998 86.1874 173 85.2 C200.6878 82.7152 203.5499 80.5474 229 82.2 C238.814 82.8373 244.2837 84.841 250 90.2 C256.3431 96.1466 261 112.2 261 112.2 "/>
<path id="8" d="M150 191.2 C150 191.2 157.0424 200.6447 161 208.2 C161.6955 209.5277 160.76 211.88 161 212.2 C161.135 212.38 163.2017 212.7617 164 212.2 C173.9438 205.2025 175.7902 201.1199 188 193.2 C193.4599 189.6584 200.8134 188.9089 201 188.2 C201.2635 187.1986 195.0972 180.7539 193 174.2 C191.6069 169.8466 193.2224 163.2785 193 163.2 C192.1274 162.892 182.8912 164.1661 176 168.2 C163.8539 175.3099 152 187.2 152 187.2 "/>
<path id="9" d="M209 154.2 C209 154.2 218.1452 177.5252 219 178.2 C219.056 178.2442 224.1889 171.65 228 169.2 C229.2888 168.3715 231.4183 170.0374 233 169.2 C238.3033 166.3924 238.8281 163.286 245 160.2 C250.9849 157.2076 256.6184 157.7311 259 156.2 C259.462 155.903 259.8004 152.8009 259 151.2 C256.9989 147.1978 254.4077 146.7478 252 142.2 C250.2834 138.9575 250.0203 134.1955 250 134.2 C246.4498 134.9793 211 151.2 211 151.2 "/>
<path id="10" d="M148 242.2 C148 242.2 146.8795 232.9566 149 230.2 C153.752 224.0224 158.0524 220.9825 168 216.2 C182.8024 209.0835 186.6604 211.2377 201 205.2 C203.7075 204.06 203.2288 201.7663 206 200.2 C213.975 195.6924 217.4204 196.1478 224 192.2 C225.2697 191.4381 224.6706 189.0047 226 188.2 C240.2835 179.5547 245.6562 179.6322 262 169.2 C268.1199 165.2937 267.0971 162.6272 273 158.2 C278.5963 154.0028 279.4443 153.3852 286 151.2 C293.6958 148.6347 298.7063 146.8199 303 148.2 C306.9782 149.4787 308.0128 155.1339 314 160.2 C320.6403 165.8187 329 170.2 329 170.2 "/>
<path id="11" d="M112 217.2 C112 217.2 122.4644 234.0946 135 247.2 C143.6995 256.2949 146.507 254.7241 156 263.2 C160.0451 266.8117 158.9277 268.6213 163 272.2 C174.9023 282.6596 175.7173 283.5662 189 292.2 C195.0964 296.1627 197.0147 294.3694 203 298.2 C208.8377 301.9361 209.9723 303.501 214 308.2 C215.0069 309.3747 213.9957 311.4063 215 312.2 C238.3058 330.6191 246.3801 334.255 276 357.2 C281.4836 361.4478 280.5687 363.7084 286 367.2 C293.6511 372.1185 295.724 370.3724 304 375.2 C313.3409 380.6488 312.9202 383.9123 322 388.2 C329.4811 391.7328 340 392.2 340 392.2 "/>
<path id="12" d="M335 392.2 C335 392.2 344.0335 387.5384 350 382.2 C352.5571 379.9121 351.4287 377.9486 354 375.2 C365.3431 363.0747 367.2396 363.6324 379 351.2 C384.5433 345.3399 386.345 344.041 389 338.2 C390.3619 335.2038 387.828 332.8624 389 329.2 C391.4169 321.6473 392.1426 320.2653 397 313.2 C402.7893 304.7792 406.1749 303.7484 411 297.2 C411.5501 296.4535 410.7105 294.4895 411 294.2 C411.4825 293.7175 413.9163 294.2235 415 293.2 C421.3804 287.174 422.6782 282.8564 429 277.2 C430.3161 276.0225 434 276.2 434 276.2 "/>
</g>
</g>
</svg>
