<?xml version="1.0" encoding="utf-8"?>
<!DOCTYPE svg PUBLIC "-//W3C//DTD SVG 1.1//EN" "http://www.w3.org/Graphics/SVG/1.1/DTD/svg11.dtd">
<svg viewBox="0 0 800 800" preserveAspectRatio="xMinYMin meet" xmlns="http://www.w3.org/2000/svg" version="1.1">
<g fill="none" stroke="black" stroke-linecap="round" stroke-linejoin="round" stroke-width="1.7809">
<g transform="translate(87.52,341.0415) scale(1.6845) translate(-160.3611,-207.3056)">
<path id="0" d="M164.3611 212.3056 L162.3611 277.3056 "/>
<path id="1" d="M165.3611 214.3056 C165.3611 214.3056 485.5268 208.567 530.3611 216.3056 C531.6532 216.5286 530.3611 277.3056 530.3611 277.3056 "/>
<path id="2" d="M160.3611 275.3056 C160.3611 275.3056 267.1338 272.5441 373.3611 273.3056 C406.2931 273.5416 406.4193 276.6761 439.3611 277.3056 C484.7188 278.1723 530.3611 276.3056 530.3611 276.3056 "/>
<path id="3" d="M165.3611 211.3056 C165.3611 211.3056 231.7031 213.6987 297.3611 213.3056 C314.781 213.2012 314.9019 210.6595 332.3611 210.3056 C388.6318 209.1649 389.2076 209.1108 445.3611 210.3056 C459.307 210.6023 459.5602 213.3056 473.3611 213.3056 C497.0198 213.3056 498.4547 210.7146 521.3611 210.3056 C525.1576 210.2378 527.6144 211.1411 529.3611 212.3056 C530.0473 212.763 530.3611 216.3056 530.3611 216.3056 "/>
<path id="4" d="M461.3611 210.3056 C461.3611 210.3056 514.9647 208.8883 529.3611 209.3056 C529.5913 209.3122 530.3611 212.3056 530.3611 212.3056 "/>
<path id="5" d="M465.3611 211.3056 L531.3611 214.3056 "/>
<path id="6" d="M441.3611 210.3056 L528.3611 207.3056 "/>
<path id="7" d="M511.3611 209.3056 C511.3611 209.3056 401.6435 207.3177 295.3611 210.3056 C279.0426 210.7643 278.5939 215.6627 262.3611 216.3056 C229.1895 217.6193 194.3611 214.3056 194.3611 214.3056 "/>
<path id="8" d="M163.3611 276.3056 L530.3611 275.3056 "/>
</g>
</g>
</svg>
