<?xml version="1.0" encoding="utf-8"?>
<!DOCTYPE svg PUBLIC "-//W3C//DTD SVG 1.1//EN" "http://www.w3.org/Graphics/SVG/1.1/DTD/svg11.dtd">
<svg viewBox="0 0 800 800" preserveAspectRatio="xMinYMin meet" xmlns="http://www.w3.org/2000/svg" version="1.1">
<g fill="none" stroke="black" stroke-linecap="round" stroke-linejoin="round" stroke-width="1.1857">
<g transform="translate(87.52,239.3321) scale(2.5302) translate(-172,-137)">
<path id="0" d="M173 138 L172 241 "/>
<path id="1" d="M173 141 L389 137 "/>
<path id="2" d="M390 137 C390 137 394.4556 172.1051 397 207 C397.9382 219.8672 397 233 397 233 "/>
<path id="3" d="M173 243 C173 243 223.3575 243.7337 268 242 C271.8126 241.8519 272.1289 239.2294 276 239 C336.2578 235.4292 403 234 403 234 "/>
<path id="4" d="M173 244 C173 244 172.1834 248.5295 173 252 C174.0147 256.3126 177 261 177 261 "/>
<path id="5" d="M399 234 C399 234 399.9775 237.7396 402 240 C407.9449 246.6443 416 253 416 253 "/>
<path id="6" d="M177 264 C177 264 219.9693 263.4724 262 261 C270.4758 260.5014 270.601 258.18 279 258 C339.5399 256.7027 341.577 259.3041 402 258 C409.8917 257.8297 415.7465 256.4084 418 255 C418.5516 254.6553 418 248 418 248 "/>
<path id="7" d="M391 140 L410 140 "/>
<path id="8" d="M413 142 C413 142 412.8031 175.4122 415 208 C415.773 219.4661 418.1933 219.7058 419 231 C419.6558 240.1809 418 250 418 250 "/>
<path id="9" d="M183 237 C183 237 181.6641 214.4269 182 202 C182.0197 201.2701 183.2092 200.0753 184 200 C190.859 199.3468 200.651 200.2473 203 200 C203.026 199.9973 203 198 203 198 C203 198 201.5674 233.3754 200 237 C199.8591 237.3258 187 235 187 235 "/>
<path id="10" d="M183 183 C183 183 180.5621 156.4706 182 150 C182.2193 149.013 186.6219 147.5052 191 147 C198.9634 146.0811 207.6456 146.2079 208 147 C209.7706 150.9579 210.181 181.6849 208 185 C207.056 186.4349 183 185 183 185 "/>
</g>
</g>
</svg>
