<?xml version="1.0" encoding="utf-8"?>
<!DOCTYPE svg PUBLIC "-//W3C//DTD SVG 1.1//EN" "http://www.w3.org/Graphics/SVG/1.1/DTD/svg11.dtd">
<svg viewBox="0 0 800 800" preserveAspectRatio="xMinYMin meet" xmlns="http://www.w3.org/2000/svg" version="1.1">
<g fill="none" stroke="black" stroke-linecap="round" stroke-linejoin="round" stroke-width="1.5169">
<g transform="translate(87.52,88.5089) scale(1.9777) translate(-182,-59)">
<path id="0" d="M182 75 C182 75 193.9382 113.2562 202 151 C204.7545 163.8963 204 178 204 178 "/>
<path id="1" d="M183 75 C183 75 211.4338 78.9114 238 76 C282.9445 71.0746 284.2412 64.87 329 59 C343.8199 57.0564 356.6022 58.3559 360 60 C360.7311 60.3538 358.3756 67.7462 360 74 C367.9124 104.4626 372.5489 106.4506 380 137 C382.0857 145.5512 380 156 380 156 "/>
<path id="2" d="M204 128 C204 128 270.73 133.3033 331 131 C345.4132 130.4492 347.3934 127.0539 361 122 C363.6467 121.0169 363.7485 118.6433 366 118 C369.2987 117.0575 375 118 375 118 "/>
<path id="3" d="M203 128 C203 128 202.5918 190.5425 203 253 C203.0915 266.9937 203.9594 280.648 204 281 C204.0026 281.0222 206 279 206 279 "/>
<path id="4" d="M371 120 C371 120 381.4127 129.2354 388 140 C401.3654 161.841 398.9399 164.6603 412 187 C417.6033 196.5846 420.2733 195.5289 426 205 C432.9797 216.5434 431.162 218.2387 438 230 C443.4654 239.4005 451 248 451 248 "/>
<path id="5" d="M195 280 C195 280 231.6681 287.477 268 290 C303.0035 292.4308 305.3457 291.262 339 290 C343.3194 289.838 343.6043 287.314 348 287 C377.1681 284.9166 379.7128 288.905 409 285 C430.7981 282.0936 431.4032 276.5995 453 273 C466.1459 270.809 481 273 481 273 "/>
<path id="6" d="M451 247 C451 247 457.0575 254.2322 460 261 C461.5498 264.5646 461 270 461 270 "/>
<path id="7" d="M195 280 C195 280 201.9741 293.4846 206 307 C208.7782 316.3269 208.4264 317.0578 209 327 C209.9099 342.771 209 359 209 359 "/>
<path id="8" d="M482 271 C482 271 481.6698 276.4182 483 281 C486.0149 291.3846 489.3339 291.587 491 302 C495.0859 327.5371 495 356 495 356 "/>
<path id="9" d="M211 362 C211 362 211.8322 372.726 213 374 C213.6965 374.7598 219.8013 374.9161 222 374 C223.2419 373.4826 224.9251 371.198 225 369 C226.2189 333.2449 225 286 225 286 "/>
<path id="10" d="M464 274 C464 274 463.2977 281.1058 465 286 C466.8522 291.325 470.1284 291.92 472 297 C473.1026 299.9929 470.9879 301.6745 472 305 C474.1672 312.1209 477.6816 312.6756 479 320 C481.8671 335.9281 478.4807 350.0941 481 355 C481.7503 356.4611 498 357 498 357 "/>
<path id="11" d="M227 341 C227 341 326.5186 348.9586 418 343 C452.1432 340.7761 488 324 488 324 "/>
<path id="12" d="M265 296 C265 296 270.0914 312.4128 272 328 C272.9804 336.0066 271 345 271 345 "/>
<path id="13" d="M273 295 C273 295 281.9291 301.0618 288 308 C291.7762 312.3156 292.9446 313.7228 294 319 C296.0936 329.4679 295 343 295 343 "/>
<path id="14" d="M343 295 C343 295 350.2037 306.3739 354 318 C357.9449 330.0812 359 344 359 344 "/>
<path id="15" d="M349 287 C349 287 355.373 291.4832 360 297 C368.0816 306.6358 371.7181 308.1542 375 318 C378.4502 328.3507 375.9116 344.676 376 345 C376.0118 345.0432 381 340 381 340 "/>
<path id="16" d="M407 287 C407 287 417.4211 296.9569 424 308 C430.8802 319.5488 430.8654 321.2516 435 334 C436.5835 338.8826 436 345 436 345 "/>
<path id="17" d="M427 285 C427 285 446.5708 303.8664 454 319 C457.3016 325.7254 454 340 454 340 "/>
<path id="18" d="M209 82 C209 82 217.6642 91.1046 221 100 C224.4285 109.1425 224 122 224 122 "/>
<path id="19" d="M223 79 C223 79 228.7405 92.2902 231 105 C232.5656 113.8062 231 124 231 124 "/>
<path id="20" d="M275 74 C275 74 286.4193 95.6236 293 115 C294.6761 119.9353 293 127 293 127 "/>
<path id="21" d="M289 72 C289 72 296.9892 85.4637 301 99 C304.6996 111.4862 305 126 305 126 "/>
<path id="22" d="M329 62 C329 62 337.5935 79.6679 342 97 C344.8194 108.0895 344 121 344 121 "/>
<path id="23" d="M340 64 C340 64 348.8474 80.4998 352 96 C354.4715 108.1515 352 123 352 123 "/>
<path id="24" d="M213 159 C213 159 215.5359 168.0283 216 177 C218.5089 225.5053 219 275 219 275 "/>
<path id="25" d="M216 161 C216 161 214.1791 144.4627 216 139 C216.6621 137.0136 225 134 225 134 "/>
<path id="26" d="M197 127 C197 127 197.3602 190.6583 198 200 C198.0024 200.035 202 200 202 200 "/>
</g>
</g>
</svg>
