<?xml version="1.0" encoding="utf-8"?>
<!DOCTYPE svg PUBLIC "-//W3C//DTD SVG 1.1//EN" "http://www.w3.org/Graphics/SVG/1.1/DTD/svg11.dtd">
<svg viewBox="0 0 800 800" preserveAspectRatio="xMinYMin meet" xmlns="http://www.w3.org/2000/svg" version="1.1">
<g fill="none" stroke="black" stroke-linecap="round" stroke-linejoin="round" stroke-width="1.5457">
<g transform="translate(161.273,87.52) scale(1.9409) translate(-167,-19)">
<path id="0" d="M194 24 C194 24 338.8103 18.1263 361 24 C362.9814 24.5245 365.2581 52.015 364 69 C363.7326 72.6105 360.8186 74.4542 357 78 C354.3359 80.4738 353.1385 81.8793 350 82 C284.5967 84.5155 259.9963 85.867 201 84 C197.3472 83.8844 195.2756 80.9308 192 77 C188.3855 72.6626 186.8578 71.1468 186 66 C184.2129 55.2776 183.6786 51.9108 186 41 C188.2404 30.47 196 19 196 19 "/>
<path id="1" d="M197 80 C197 80 191.1205 245.2268 197 280 C197.3798 282.246 214.7304 286.3247 232 287 C302.5008 289.757 365.4494 295.8654 376 287 C383.4494 280.7404 378.0999 221.8567 376 166 C375.7885 160.3737 371.338 159.6898 371 154 C368.552 112.7925 371.7552 97.6468 370 65 C369.9169 63.4548 366 61 366 61 "/>
<path id="2" d="M363 58 C363 58 362.6891 64.2141 361 69 C359.9305 72.0303 357 75 357 75 "/>
<path id="3" d="M201 281 C201 281 180.0041 280.4104 172 283 C169.864 283.6911 167.1644 288.1368 167 292 C166.3242 307.881 166.5322 317.996 170 330 C170.8823 333.0542 174.8884 334.9919 180 337 C187.8463 340.0825 189.1683 340.7706 198 341 C264.3456 342.7233 266.0189 341.3756 334 341 C356.4965 340.8757 358.1854 341.6011 379 340 C382.3389 339.7432 382.6456 337.5032 386 337 C391.8534 336.122 394.0422 338.6526 399 337 C405.4833 334.8389 411.9708 331.3448 413 328 C415.2725 320.6145 414.0857 307.7714 411 298 C409.876 294.4407 405.596 291.149 401 290 C390.9462 287.4866 375 289 375 289 "/>
<path id="4" d="M235 91 C235 91 240.6993 116.0966 244 117 C261.6138 121.8206 293.9368 117.8104 330 117 C331.2769 116.9713 332.6406 115.8387 333 115 C333.547 113.7237 333.6494 112.078 333 110 C331.3684 104.779 330.8634 102.6443 328 99 C326.5203 97.1168 324.7348 96.0943 322 96 C285.706 94.7485 241 96 241 96 "/>
<path id="5" d="M258 136 L258 222 "/>
<path id="6" d="M289 137 L289 196 "/>
<path id="7" d="M326 131 L325 217 "/>
</g>
</g>
</svg>
