<?xml version="1.0" encoding="utf-8"?>
<!DOCTYPE svg PUBLIC "-//W3C//DTD SVG 1.1//EN" "http://www.w3.org/Graphics/SVG/1.1/DTD/svg11.dtd">
<svg viewBox="0 0 800 800" preserveAspectRatio="xMinYMin meet" xmlns="http://www.w3.org/2000/svg" version="1.1">
<g fill="none" stroke="black" stroke-linecap="round" stroke-linejoin="round" stroke-width="1.1569">
<g transform="translate(87.52,253.4845) scale(2.5932) translate(-196,-131.4167)">
<path id="0" d="M213 170.4167 C213 170.4167 223.0894 164.8127 223 164.4167 C222.3109 161.3648 208.765 141.9412 206 139.4167 C205.837 139.2678 201.5048 141.1595 200 143.4167 C197.4293 147.2727 196.6726 149.2604 196 154.4167 C195.3071 159.7286 195.345 163.2905 197 166.4167 C198.2199 168.7209 201.2811 170.2545 205 171.4167 C208.1113 172.3889 209.1453 171.7379 213 171.4167 C214.9675 171.2527 216.1484 171.2683 217 170.4167 C218.5329 168.8838 220 164.4167 220 164.4167 "/>
<path id="1" d="M206 169.4167 L209 239.4167 "/>
<path id="2" d="M219 178.4167 C219 178.4167 217.8906 196.6665 219 214.4167 C219.8706 228.3457 223.2491 238.8053 223 242.4167 C222.9873 242.6008 218.5711 244.09 217 243.4167 C213.8982 242.0873 209 236.4167 209 236.4167 "/>
<path id="3" d="M217 193.4167 C217 193.4167 221.9746 191.7294 226 192.4167 C241.2119 195.0138 242.2449 198.0826 258 200.4167 C268.4448 201.964 269.2117 201.5523 280 200.4167 C325.734 195.6026 326.3464 192.0823 372 188.4167 C394.0597 186.6455 414.4097 186.8264 417 189.4167 C419.1398 191.5565 416.5026 229.1654 414 230.4167 C406.3856 234.2239 377.0815 227.0887 341 227.4167 C322.6873 227.5832 322.3694 231.118 304 231.4167 C261.3947 232.1094 218 229.4167 218 229.4167 "/>
<path id="4" d="M419 162.4167 C419 162.4167 420.0408 184.0795 419 205.4167 C418.0513 224.8658 413.9841 241.4472 415 244.4167 C415.13 244.7967 431.7243 244.3189 432 243.4167 C435.2278 232.8531 435.7735 207.1678 437 172.4167 C437.24 165.6158 436.642 160.805 435 158.4167 C434.1256 157.1448 429.7374 156.1968 426 156.4167 C422.5597 156.619 418 159.4167 418 159.4167 "/>
<path id="5" d="M422 161.4167 C422 161.4167 416.014 156.8474 414 152.4167 C411.7832 147.5397 412 144.7758 412 139.4167 C412 137.7677 412.6911 136.7255 414 135.4167 C416.1815 133.2352 417.4519 131.9263 420 131.4167 C423.2976 130.7572 426.9204 130.8264 429 132.4167 C432.6581 135.214 436.5111 140.9944 437 144.4167 C437.3082 146.5742 432 153.4167 432 153.4167 "/>
<path id="6" d="M223 242.4167 C223 242.4167 230.5386 239.0266 236 239.4167 C242.5598 239.8852 244.515 244.214 251 244.4167 C258.2204 244.6423 260.4452 240.6865 268 240.4167 C272.8005 240.2452 273.5979 242.8164 279 243.4167 C286.6264 244.2641 289.3133 244.3146 295 243.4167 C296.2346 243.2217 296.5539 240.9425 298 240.4167 C300.9564 239.3416 302.7317 238.8399 306 239.4167 C310.0547 240.1322 310.6874 242.4019 315 243.4167 C318.4705 244.2333 319.7414 244.2856 323 243.4167 C326.2858 242.5405 326.5186 240.3249 330 239.4167 C337.151 237.5512 339.6576 236.6556 346 237.4167 C349.8634 237.8803 351.4032 242.3006 355 242.4167 C363.5868 242.6937 368.09 238.4167 377 238.4167 C380.24 238.4167 381.5279 242.1273 385 242.4167 C391.5971 242.9664 393.4133 240.1796 401 240.4167 C408.6611 240.6561 417 243.4167 417 243.4167 "/>
<path id="7" d="M233 197.4167 L235 197.4167 "/>
<path id="8" d="M233 197.4167 C233 197.4167 244.0162 197.4511 244 197.4167 C243.9189 197.2444 229.3778 188.3384 225 180.4167 C221.481 174.049 222.6656 159.7288 223 159.4167 C223.1989 159.2311 232.8218 161.7719 240 166.4167 C248.9041 172.1782 251.5077 174.7039 257 181.4167 C258.4853 183.2321 258.5428 185.7029 258 188.4167 C257.2976 191.9286 254 196.4167 254 196.4167 "/>
</g>
</g>
</svg>
