<?xml version="1.0" encoding="utf-8"?>
<!DOCTYPE svg PUBLIC "-//W3C//DTD SVG 1.1//EN" "http://www.w3.org/Graphics/SVG/1.1/DTD/svg11.dtd">
<svg viewBox="0 0 800 800" preserveAspectRatio="xMinYMin meet" xmlns="http://www.w3.org/2000/svg" version="1.1">
<g fill="none" stroke="black" stroke-linecap="round" stroke-linejoin="round" stroke-width="1.9009">
<g transform="translate(89.8873,87.52) scale(1.5782) translate(-51,-60.4167)">
<path id="0" d="M67 247.4167 C67 247.4167 72.409 245.0076 76 241.4167 C83.4213 233.9954 82.3434 232.1714 90 224.4167 C121.098 192.92 124.5386 194.3931 154 162.4167 C164.615 150.8955 161.8482 147.1303 172 135.4167 C180.6267 125.4628 193 117.4167 193 117.4167 "/>
<path id="1" d="M194 117.4167 C194 117.4167 199.3382 116.6976 202 118.4167 C220.2801 130.2226 221.5689 134.2721 242 148.4167 C253.8966 156.6528 253.9873 157.5992 267 163.4167 C295.8453 176.3122 296.9987 178.0509 327 186.4167 C347.6322 192.1699 349.5745 188.1965 371 192.4167 C382.0864 194.6004 382.485 195.052 393 199.4167 C408.7167 205.9406 408.9273 208.233 424 214.4167 C427.4119 215.8164 432 215.4167 432 215.4167 "/>
<path id="2" d="M66 254.4167 C66 254.4167 119.7201 298.8482 171 335.4167 C177.7041 340.1974 180.5625 337.1667 188 341.4167 C204.2273 350.6894 203.9687 353.9436 220 363.4167 C225.1171 366.4404 227.042 364.5835 232 367.4167 C236.7101 370.1082 236.2725 373.7802 241 375.4167 C271.3577 385.9251 310 394.4167 310 394.4167 "/>
<path id="3" d="M439 224.4167 C439 224.4167 394.9649 267.6947 358 311.4167 C350.1199 320.7373 350.2621 323.2697 346 334.4167 C344.2416 339.0157 346.5649 340.5655 345 345.4167 C341.8345 355.2297 341.5467 356.2915 336 365.4167 C326.3371 381.3137 314 396.4167 314 396.4167 "/>
<path id="4" d="M63 247.4167 C63 247.4167 59.3208 235.8639 58 224.4167 C56.3689 210.2804 59.1301 208.8059 57 195.4167 C55.8345 188.0907 49.699 182.7428 51 180.4167 C58.3536 167.2694 68.4384 154.2102 90 136.4167 C118.0103 113.3013 124.2501 117.8028 154 95.4167 C173.8654 80.4685 188.359 62.1559 191 60.4167 C191.0558 60.3799 194.7859 64.7762 195 68.4167 C196.1166 87.3989 194 111.4167 194 111.4167 "/>
<path id="5" d="M69 161.4167 C69 161.4167 72.2056 173.5008 73 185.4167 C74.1785 203.094 73 221.4167 73 221.4167 "/>
<path id="6" d="M99 133.4167 L99 201.4167 "/>
<path id="7" d="M138 108.4167 L140 168.4167 "/>
<path id="8" d="M170 95.4167 C170 95.4167 168.7684 107.64 170 118.4167 C170.6671 124.2535 171.3892 125.1951 174 130.4167 C175.5851 133.5869 179 136.4167 179 136.4167 "/>
<path id="9" d="M122 225.4167 C122 225.4167 119.222 224.7092 118 225.4167 C111.4721 229.196 110.4802 231.9965 103 236.4167 C100.1534 238.0988 97.912 236.5916 96 238.4167 C88.8885 245.2049 80.953 256.9229 81 257.4167 C81.0097 257.5184 89.8178 257.5285 98 259.4167 C115.4818 263.4509 127.4331 271.1981 133 269.4167 C137.0824 268.1103 140.2925 254.4274 148 243.4167 C149.7315 240.943 152.3264 241.6482 154 239.4167 C156.0182 236.7257 154.8491 234.643 157 231.4167 C160.4414 226.2545 163.0179 226.1881 166 221.4167 C167.2644 219.3936 167.4784 215.7755 167 215.4167 C161.4982 211.2903 141.9864 200.5244 138 200.4167 C136.9668 200.3887 134.9529 208.9134 130 214.4167 C122.2669 223.009 111 230.4167 111 230.4167 "/>
<path id="10" d="M154 181.4167 C154 181.4167 176.938 210.4167 179 210.4167 C180.897 210.4167 191.8016 196.1867 202 181.4167 C205.8954 175.7751 204.0877 173.8194 208 168.4167 C214.059 160.0494 223.2608 153.8945 223 152.4167 C222.5761 150.0144 206.9753 135.696 202 134.4167 C199.7315 133.8333 194.1137 138.2812 188 143.4167 C182.0224 148.4378 181.4962 148.9421 177 155.4167 C169.2794 166.5343 163 179.4167 163 179.4167 "/>
<path id="11" d="M62 249.4167 L66 311.4167 "/>
<path id="12" d="M310 394.4167 C310 394.4167 311.3625 414.2049 311 433.4167 C310.8695 440.3352 309 447.4167 309 447.4167 "/>
<path id="13" d="M435 216.4167 L436 276.4167 "/>
<path id="14" d="M258 160.4167 C258 160.4167 227.9534 216.3008 193 260.4167 C179.1322 277.9197 172.4545 274.7804 155 290.4167 C149.1762 295.6338 150.3941 298.0225 145 303.4167 C141.9511 306.4655 137.3499 306.4631 137 308.4167 C133.5887 327.463 133 370.4167 133 370.4167 "/>
<path id="15" d="M134 369.4167 C134 369.4167 133.2589 376.8609 134 377.4167 C136.3467 379.1767 147.8686 379.5517 150 381.4167 C150.9564 382.2535 149.1114 390.2319 150 391.4167 C150.7775 392.4533 155.0279 393.4167 159 393.4167 C162.0894 393.4167 165.4213 391.1997 166 391.4167 C166.2662 391.5165 165.8932 395.0885 167 396.4167 C169.7512 399.7181 171.9197 402.1184 176 403.4167 C180.7246 404.9199 187.4572 403.0606 189 403.4167 C189.0822 403.4356 188.5048 405.7799 189 406.4167 C190.8892 408.8457 192.7982 411.6162 196 412.4167 C204.0045 414.4178 211.56 411.83 217 413.4167 C218.2136 413.7706 218.0367 417.4534 220 419.4167 C223.2722 422.6889 224.843 424.1696 229 425.4167 C233.234 426.6869 238.8059 424.3022 240 425.4167 C241.8526 427.1458 241.9682 436.8769 244 439.4167 C244.8741 440.5093 250.3394 438.9637 252 440.4167 C255.6252 443.5887 255.953 448.3579 260 453.4167 C261.0848 454.7726 262.3218 455.4167 264 455.4167 C270.7128 455.4167 275.853 453.1863 280 453.4167 C280.5655 453.4481 281.1613 456.0572 282 456.4167 C283.2763 456.9636 284.9068 457.0777 287 456.4167 C293.6542 454.3153 295.2415 451.5135 301 450.4167 C303.5171 449.9372 308 452.4167 308 452.4167 "/>
<path id="16" d="M438 276.4167 C438 276.4167 441.8008 280.0189 443 283.4167 C444.4165 287.4302 444.6685 290.297 444 293.4167 C443.6682 294.9651 442.0626 296.7054 440 297.4167 C429.6211 300.9956 415.1459 303.3309 415 303.4167 C414.9711 303.4337 421.5556 305.7917 423 307.4167 C423.65 308.1479 423.8612 310.8509 423 312.4167 C419.3744 319.0086 418.0037 322.1634 412 327.4167 C407.4583 331.3906 401.8836 330.1726 399 333.4167 C396.5909 336.1269 398.8514 341.2075 396 345.4167 C389.6614 354.7736 385.7616 355.4296 378 364.4167 C377.1319 365.4218 376.9371 367.3223 377 367.4167 C377.0539 367.4976 379.865 367.2367 380 367.4167 C380.24 367.7367 380.7323 370.4751 380 371.4167 C372.7987 380.6755 368.8694 382.5734 359 394.4167 C354.0044 400.4114 352.2861 402.5587 350 407.4167 C349.5319 408.4115 351.4018 410.9053 351 411.4167 C348.5714 414.5077 342.3707 417.4842 339 421.4167 C338.3354 422.1921 339.6912 424.3415 339 425.4167 C336.2722 429.6599 335.0636 431.5806 330 435.4167 C319.1971 443.6007 306 450.4167 306 450.4167 "/>
<path id="17" d="M64 277.4167 C64 277.4167 82.1443 286.3321 96 297.4167 C103.4475 303.3746 102.6949 307.4435 109 313.4167 C110.7678 315.0914 113.2515 314.1053 115 315.4167 C116.1657 316.2909 115.6347 318.2464 117 319.4167 C121.7427 323.4819 124.7894 322.9584 129 327.4167 C132.2064 330.8116 134 337.4167 134 337.4167 "/>
<path id="18" d="M167 334.4167 C167 334.4167 155.3062 352.8738 150 369.4167 C147.6389 376.7776 150 387.4167 150 387.4167 "/>
<path id="19" d="M169 334.4167 C169 334.4167 174.8084 323.5445 182 314.4167 C187.527 307.4016 189.2703 308.4197 195 301.4167 C207.0765 286.6565 208.2728 286.0497 218 270.4167 C221.6734 264.5131 219.662 262.8454 223 256.4167 C232.9405 237.272 233.2823 236.3595 245 218.4167 C248.9227 212.4101 250.8228 213.366 255 207.4167 C267.0878 190.2008 278 171.4167 278 171.4167 "/>
</g>
</g>
</svg>
