<?xml version="1.0" encoding="utf-8"?>
<!DOCTYPE svg PUBLIC "-//W3C//DTD SVG 1.1//EN" "http://www.w3.org/Graphics/SVG/1.1/DTD/svg11.dtd">
<svg viewBox="0 0 800 800" preserveAspectRatio="xMinYMin meet" xmlns="http://www.w3.org/2000/svg" version="1.1">
<g fill="none" stroke="black" stroke-linecap="round" stroke-linejoin="round" stroke-width="1.5073">
<g transform="translate(87.52,196.9875) scale(1.9903) translate(-137,-126)">
<path id="0" d="M142 127 C142 127 153.4633 125.3979 164 126 C170.3248 126.3614 171.5682 126.2841 177 129 C187.4889 134.2445 188.5071 135.3445 198 143 C203.5478 147.474 205.649 148.3298 208 154 C213.1072 166.3173 213.1972 170.6596 215 184 C215.392 186.9011 212.2469 189.4937 213 191 C216.3264 197.6528 221.6656 199.9876 228 210 C236.9208 224.1006 236.6256 224.8825 244 240 C246.5263 245.179 247.0608 245.5213 248 251 C249.9565 262.4129 247.3937 264.0536 250 275 C252.1195 283.9019 257.51 293.0503 258 293 C260.6483 292.7284 273.062 280.9613 289 271 C300.7977 263.6264 301.3394 264.1325 314 258 C333.3039 248.6497 333.3979 247.2717 353 240 C363.6662 236.0432 371.363 237.3185 376 235 C376.8183 234.5909 377.7031 230.5313 377 228 C375.6751 223.2303 372.2965 222.186 371 217 C369.6516 211.6065 370.0908 209.4552 371 204 C371.3847 201.692 372.9614 199.2308 374 199 C377.7333 198.1704 382.4923 198.3731 389 200 C393.374 201.0935 394.532 202.0274 398 205 C400.8713 207.4611 402.4774 209.3871 403 212 C403.4965 214.4823 401.187 220 401 220 C399.1299 220 386.8148 216.6518 381 212 C377.7843 209.4274 376 200 376 200 "/>
<path id="1" d="M394 202 C394 202 398.2375 196.3946 401 196 C408.2829 194.9596 414.0377 196.089 422 198 C423.8386 198.4413 425.1123 200.0471 426 202 C427.1373 204.5021 427.7762 207.4475 427 209 C425.6864 211.6273 418.9979 215.9992 419 216 C419.0044 216.0018 429.8749 210.5526 432 211 C433.4043 211.2956 437.4628 217.493 438 220 C438.2276 221.062 436.7615 223.7805 435 225 C431.5189 227.41 424.9997 228.9999 425 229 C425.0005 229.0001 436.1192 225.4179 440 226 C441.5737 226.2361 445.0792 231.8755 445 232 C444.6449 232.558 432.9945 236.9908 433 237 C433.0397 237.0662 449.8488 241.1558 451 242 C451.0744 242.0546 449.3168 247.5611 448 248 C442.2941 249.902 435.507 250.3272 427 250 C424.9202 249.92 422.9929 248.4894 422 247 C420.9548 245.4322 420.5288 241.7067 421 241 C421.6773 239.984 424.6382 238.5933 428 238 C432.4649 237.2121 438.0005 237.9998 438 238 C437.999 238.0004 423.1324 242.1878 419 242 C418.2913 241.9678 415.7876 237.3304 416 237 C417.156 235.2018 428 228 428 228 C428 228 424.435 231.7786 422 232 C415.9473 232.5502 406.4619 230.5039 406 230 C405.8499 229.8362 408.1002 222.5373 411 220 C414.058 217.3243 421.9911 215.9964 422 216 C422.0034 216.0014 419.2155 220.1085 416 222 C411.4943 224.6504 409.9666 225.1235 405 226 C402.5292 226.436 400.5678 226.0452 399 225 C397.5106 224.0071 396 220 396 220 "/>
<path id="2" d="M426 247 C426 247 413.3927 257.1284 403 262 C399.8854 263.46 398.0703 262.8141 394 262 C388.6633 260.9327 385.9025 257.1205 383 258 C375.2181 260.3581 372.3088 265.8316 361 272 C350.5238 277.7143 348.8505 275.7161 339 282 C320.5258 293.7852 321.5463 297.8134 303 309 C291.0694 316.1963 288.8973 316.1657 276 320 C271.7393 321.2667 270.2076 318.725 266 320 C255.0476 323.3189 249.1783 329.8183 243 330 C240.1527 330.0837 237.7165 324.5388 232 321 C227.6962 318.3357 226.008 319.8629 222 317 C212.8261 310.4472 209.3437 310.0249 204 301 C188.7681 275.275 188.7088 271.0038 177 241 C173.0242 230.812 177.0749 225.5974 172 219 C160.8231 204.47 137 189 137 189 "/>
</g>
</g>
</svg>
