<?xml version="1.0" encoding="utf-8"?>
<!DOCTYPE svg PUBLIC "-//W3C//DTD SVG 1.1//EN" "http://www.w3.org/Graphics/SVG/1.1/DTD/svg11.dtd">
<svg viewBox="0 0 800 800" preserveAspectRatio="xMinYMin meet" xmlns="http://www.w3.org/2000/svg" version="1.1">
<g fill="none" stroke="black" stroke-linecap="round" stroke-linejoin="round" stroke-width="1.4689">
<g transform="translate(87.52,216.1882) scale(2.0424) translate(-143,-106)">
<path id="0" d="M173 106 C173 106 179.1493 107.6895 182 111 C193.1669 123.968 194.9644 125.8825 204 142 C213.0514 158.1457 210.6373 160.0357 219 177 C228.0461 195.3507 228.2916 195.8665 239 213 C243.0295 219.4471 245.1506 218.5843 249 225 C255.3302 235.5503 260 248 260 248 "/>
<path id="1" d="M262 248 C262 248 324.9274 248.7697 382 247 C386.3236 246.8659 391 244 391 244 "/>
<path id="2" d="M143 125 C143 125 144.8106 131.6179 148 137 C152.5867 144.7401 155.4666 144.1892 159 152 C164.416 163.9722 160.6271 168.0245 167 179 C177.3226 196.7778 182.7645 195.6468 195 214 C210.4273 237.141 207.8466 240.7984 223 263 C228.3925 270.9007 230.4361 274.194 238 277 C256.8555 283.9948 261.7199 284.3238 285 286 C323.1096 288.7439 325.4971 288.2502 363 286 C373.7508 285.355 385 280 385 280 "/>
<path id="3" d="M382 282 C382 282 431.2582 282.2989 441 281 C441.3185 280.9575 442.4178 274.4178 442 274 C441.1645 273.1645 432.1394 272.2509 432 272 C431.9221 271.8598 434.228 266.9058 437 265 C440.8844 262.3295 448 261 448 261 "/>
<path id="4" d="M390 245 C390 245 390.1935 235.7207 392 230 C392.6083 228.0738 394.3187 227.1209 396 226 C396.5044 225.6637 397.9942 225.9624 398 226 C398.2442 227.5874 397.8691 238.9832 398 239 C400.9818 239.3823 434.85 231.0566 437 231 C437.0649 230.9983 437.4013 235.9618 436 238 C433.1064 242.2089 426.0002 246.9997 426 247 C425.9999 247.0002 430.2861 243.238 434 242 C436.6894 241.1035 440.2407 241.4306 441 242 C441.5966 242.4474 442.3701 247.577 442 248 C441.35 248.7428 436.7628 248.493 434 250 C432.4252 250.859 430.9639 253.9904 431 254 C431.3361 254.0896 446.9112 253.4198 449 254 C449.1612 254.0448 449.4237 258.5763 449 259 C448.4068 259.5932 443 260 443 260 "/>
</g>
</g>
</svg>
