<?xml version="1.0" encoding="utf-8"?>
<!DOCTYPE svg PUBLIC "-//W3C//DTD SVG 1.1//EN" "http://www.w3.org/Graphics/SVG/1.1/DTD/svg11.dtd">
<svg viewBox="0 0 800 800" preserveAspectRatio="xMinYMin meet" xmlns="http://www.w3.org/2000/svg" version="1.1">
<g fill="none" stroke="black" stroke-linecap="round" stroke-linejoin="round" stroke-width="1.0321">
<g transform="translate(166.0033,87.52) scale(2.9068) translate(-138,-81)">
<path id="0" d="M145 138 C145 138 149.0723 152.554 150 167 C152.5353 206.4778 149.3193 207.4597 152 247 C153.2848 265.9506 153.4962 275.0917 158 285 C159.3672 288.0079 164.9376 289.0137 172 291 C180.4833 293.3859 181.0297 293.5017 190 294 C225.6068 295.9782 229.5335 299.8722 262 296 C279.549 293.907 299 281 299 281 "/>
<path id="1" d="M171 134 C171 134 179.3219 149.8969 181 165 C184.0833 192.75 178.8975 195.1652 181 224 C182.3367 242.3323 184.8213 255.654 188 261 C188.6887 262.1584 201.4169 262.3193 203 261 C204.6359 259.6367 202.9878 249.9159 206 246 C210.1903 240.5526 214.5401 237.5539 223 235 C238.6158 230.2858 241.7129 230.2788 259 230 C271.4263 229.7996 285 234 285 234 "/>
<path id="2" d="M173 135 C173 135 180.2682 127.1526 184 120 C185.5334 117.061 185.5256 112.657 185 112 C184.3284 111.1605 178.2527 109.296 176 110 C173.5287 110.7723 169.682 116.6969 169 117 C168.955 117.02 167.0973 115.3136 167 114 C166.2582 103.9857 168.7722 99.747 167 90 C166.2549 85.9018 161.0298 80.9957 161 81 C160.9846 81.0022 160.143 90.857 160 91 C159.987 91.013 155.9295 87 155 87 C154.0705 87 151.0566 89.3094 150 91 C149.4068 91.9491 150 95 150 95 C150 95 150.2308 91.1538 150 91 C149.4808 90.6538 144.0315 90.8952 144 91 C143.841 91.53 147.171 100.7435 147 101 C146.8931 101.1603 138.0536 99.9571 138 100 C138 100 141.0113 102.4046 142 105 C144.6558 111.9715 145.0727 113.1179 146 121 C147.0134 129.6141 146 139 146 139 "/>
</g>
</g>
</svg>
