<?xml version="1.0" encoding="utf-8"?>
<!DOCTYPE svg PUBLIC "-//W3C//DTD SVG 1.1//EN" "http://www.w3.org/Graphics/SVG/1.1/DTD/svg11.dtd">
<svg viewBox="0 0 800 800" preserveAspectRatio="xMinYMin meet" xmlns="http://www.w3.org/2000/svg" version="1.1">
<g fill="none" stroke="black" stroke-linecap="round" stroke-linejoin="round" stroke-width="2.2753">
<g transform="translate(87.52,194.317) scale(1.3185) translate(-85,-71)">
<path id="0" d="M85 284 C85 284 108.895 282.3754 130 275 C200.3876 250.4022 200.9635 247.9697 271 219 C310.8799 202.5042 350 184 350 184 "/>
<path id="1" d="M112 383 C112 383 129.7984 378.1361 145 370 C164.5472 359.5381 163.3131 355.5302 183 345 C205.6992 332.8586 208.8467 336.1687 231 324 C243.2375 317.278 241.7677 312.8152 254 306 C275.7399 293.8878 279.4628 297.5634 301 285 C320.3865 273.6912 318.7857 268.9075 338 257 C353.5248 247.379 355.6234 249.8595 372 241 C385.8968 233.482 399 224 399 224 "/>
<path id="2" d="M401 227 C401 227 401.1903 230.0283 402 231 C402.8935 232.0722 403.9395 232.4316 406 233 C418.0664 236.3286 418.7057 238.2068 431 239 C463.9306 241.1246 468.0577 242.6209 499 239 C511.4166 237.547 513.4197 234.6587 525 228 C532.4873 223.6948 534.3796 222.3227 539 216 C542.6691 210.9791 544.7908 204.3724 544 202 C543.081 199.2429 536.6092 193.8697 531 192 C526.3066 190.4355 522.3643 191.1341 517 193 C512.7248 194.487 512.8198 197.4562 508 200 C495.344 206.6796 494.0832 209.3834 481 212 C464.0007 215.3999 443 213 443 213 "/>
<path id="3" d="M444 210 C444 210 445.3111 206.1013 446 206 C454.5566 204.7417 464.0806 206.5048 478 205 C480.3082 204.7505 480.8635 203.8398 483 202 C498.5268 188.6297 497.859 187.0455 514 174 C534.1814 157.689 542.3564 156.3335 556 143 C558.5906 140.4683 558.2618 131.1636 558 131 C557.2028 130.5017 546.4185 129.3153 540 133 C498.286 156.9469 490.8156 168.349 450 193 C446.2482 195.266 439 194 439 194 "/>
<path id="4" d="M439 193 C439 193 438.4486 189.9649 439 189 C439.7286 187.7249 440.8677 187.2184 443 186 C458.1923 177.3187 459.657 178.8608 474 169 C507.159 146.2032 507.7268 145.3865 539 120 C549.8153 111.2205 553.3957 108.4064 559 100 C560.6813 97.4781 559.7981 93.4586 559 90 C558.7053 88.723 557.2537 87.2351 556 87 C551.4252 86.1422 548.3232 85.4791 543 87 C535.9219 89.0223 534.9955 90.3977 528 95 C516.1986 102.7641 514.9452 102.5783 505 112 C496.6075 119.9508 498.4752 123.3517 490 131 C478.8627 141.0508 477.0595 141.8172 464 149 C458.1068 152.2412 456.1563 150.028 450 153 C442.3379 156.6989 442.7172 159.7506 435 163 C424.7456 167.3177 412 169 412 169 "/>
<path id="5" d="M413 168 C413 168 413.7271 164.8812 415 164 C418.8598 161.3278 421.2665 162.1556 426 159 C431.2839 155.4774 430.6258 153.1504 436 150 C444.3342 145.1144 446.5648 147.2356 455 142 C474.8439 129.6831 476.65 129.3258 494 114 C505.7285 103.6398 508.2281 99.6415 515 89 C516.4121 86.7809 516.1427 82.714 515 81 C513.0479 78.0719 509.2094 75.4031 505 74 C502.3834 73.1278 499.6902 73.3859 497 75 C489.0547 79.7672 487.0778 81.2373 480 89 C472.1389 97.6218 473.5613 99.6938 466 109 C460.7583 115.4513 460.7158 116.8426 454 121 C430.5934 135.4898 403 148 403 148 "/>
<path id="6" d="M350 181 C350 181 350.5442 171.7613 354 165 C361.4137 150.4949 362.2487 148.0952 373 136 C381.122 126.8627 384.1883 125.3806 394 120 C397.4761 118.0938 404 119 404 119 "/>
<path id="7" d="M405 146 C405 146 405.2423 143.5246 406 143 C409.9779 140.2461 413.3425 140.9921 418 137 C429.8378 126.8533 431.2949 125.7698 441 113 C449.7505 101.4862 451.3662 99.0479 456 87 C457.8962 82.07 456.8578 78.5748 456 74 C455.7649 72.7463 454.2946 71.3531 453 71 C450.2875 70.2602 448.1113 70.0277 445 71 C441.2811 72.1622 440.2888 72.9461 437 76 C426.7247 85.5413 424.7238 85.7653 417 97 C409.0122 108.6186 404 124 404 124 "/>
</g>
</g>
</svg>
