<?xml version="1.0" encoding="utf-8"?>
<!DOCTYPE svg PUBLIC "-//W3C//DTD SVG 1.1//EN" "http://www.w3.org/Graphics/SVG/1.1/DTD/svg11.dtd">
<svg viewBox="0 0 800 800" preserveAspectRatio="xMinYMin meet" xmlns="http://www.w3.org/2000/svg" version="1.1">
<g fill="none" stroke="black" stroke-linecap="round" stroke-linejoin="round" stroke-width="1.4641">
<g transform="translate(87.52,246.3213) scale(2.049) translate(-156,-145)">
<path id="0" d="M156 152 C156 152 154.738 189.3457 156 223 C156.162 227.3194 157.0769 227.8791 159 232 C160.4547 235.1171 160.4938 236.2007 163 238 C178.3234 249.0014 179.9729 251.4737 198 260 C215.9251 268.4781 218.146 271.6679 237 273 C305.4854 277.8386 382 273 382 273 "/>
<path id="1" d="M218 145 C218 145 215.8689 182.8204 218 202 C218.2534 204.2806 221.6041 207.1313 225 208 C239.8327 211.7944 243.053 211.9646 261 213 C294.659 214.9419 296.8724 210.2203 329 214 C345.6464 215.9584 346.2687 222.1722 363 225 C380.3425 227.9311 395.6407 226.2356 400 226 C400.0191 225.999 400 223 400 223 "/>
<path id="2" d="M400 224 C400 224 397.6919 201.5697 399 200 C399.9881 198.8143 419.0119 198.8143 420 200 C421.3081 201.5697 419 223.9987 419 224 C419 224.0002 419.2462 220.6461 420 220 C421.313 218.8746 423.0807 218.3434 426 218 C431.1501 217.3941 431.9917 217.0894 437 218 C442.3394 218.9708 444.107 219.252 448 222 C451.2801 224.3153 452.3405 226.4044 454 230 C454.7705 231.6694 454.1202 234.976 454 235 C450.9952 235.601 429.0014 234.9996 429 235 C428.9992 235.0002 437.7193 235.0865 443 238 C450.479 242.1263 452.3639 244.4246 458 251 C460.3042 253.6883 461.085 258.9433 461 259 C460.4535 259.3644 452.4863 260.5724 446 259 C437.3778 256.9098 428.0025 250.9992 428 251 C427.9986 251.0005 433.7327 256.9126 440 261 C444.8255 264.1471 446.2973 262.9571 451 266 C454.2647 268.1125 455.4572 269.4286 457 272 C457.6428 273.0714 457.3334 275.7222 457 276 C456.3165 276.5696 453.5176 277.4196 451 277 C445.5332 276.0889 444.4575 275.7288 439 273 C429.8392 268.4196 421.0036 262 421 262 C420.998 262 429.1176 268.1058 431 273 C432.9019 277.9449 432.4434 282.9482 431 288 C430.2577 290.598 427.7968 292.9696 425 294 C420.4462 295.6777 416.231 296.4103 412 295 C407.3237 293.4412 403.771 290.1565 401 286 C399.36 283.54 401.5065 280.0129 400 277 C398.335 273.6699 396.2526 271.2391 393 270 C388.1612 268.1566 379 269 379 269 "/>
</g>
</g>
</svg>
