<?xml version="1.0" encoding="utf-8"?>
<!DOCTYPE svg PUBLIC "-//W3C//DTD SVG 1.1//EN" "http://www.w3.org/Graphics/SVG/1.1/DTD/svg11.dtd">
<svg viewBox="0 0 800 800" preserveAspectRatio="xMinYMin meet" xmlns="http://www.w3.org/2000/svg" version="1.1">
<g fill="none" stroke="black" stroke-linecap="round" stroke-linejoin="round" stroke-width="1.3777">
<g transform="translate(222.5288,87.52) scale(2.1776) translate(-310,-37.4167)">
<path id="0" d="M366 37.4167 C366 37.4167 356.6478 35.4026 352 37.4167 C344.8181 40.5288 340.0665 48.4802 336 50.4167 C335.3455 50.7283 331.4582 47.2084 331 47.4167 C329.7857 47.9686 326.7207 51.287 325 55.4167 C322.1048 62.365 323.6175 64.873 321 71.4167 C320.1672 73.4987 317.0001 75.4164 317 75.4167 C316.9999 75.4168 319.9938 73.3698 320 73.4167 C320.1547 74.5926 322 113.4167 322 113.4167 "/>
<path id="1" d="M322 115.4167 C322 115.4167 314.3149 131.671 311 147.4167 C308.5647 158.9844 310.2499 159.9217 310 172.4167 C309.7503 184.9017 307.6909 187.1541 310 197.4167 C311.5725 204.4055 316.0757 204.973 319 212.4167 C321.1749 217.9528 321 225.4167 321 225.4167 "/>
<path id="2" d="M321 226.4167 C321 226.4167 323.8616 235.9876 328 238.4167 C342.0873 246.6853 347.9863 245.0153 367 253.4167 C390.8204 263.942 392.4626 266.8905 414 276.4167 C415.8835 277.2498 419 276.4167 419 276.4167 "/>
<path id="3" d="M365 115.4167 C365 115.4167 355.8545 130.5654 349 145.4167 C347.1806 149.3587 347.2848 149.9548 347 154.4167 C345.8123 173.0234 344.9453 174.4871 346 192.4167 C346.3679 198.6712 350 205.4167 350 205.4167 "/>
<path id="4" d="M347 185.4167 C347 185.4167 360.1996 187.3873 372 191.4167 C380.172 194.2071 381.4082 194.4728 388 199.4167 C394.5169 204.3043 395.3752 205.6155 400 212.4167 C403.3659 217.3665 402.3397 220.6922 405 224.4167 C405.9519 225.7493 409.1479 225.0997 410 226.4167 C413.0734 231.1665 412.1787 234.7294 416 241.4167 C419.8805 248.2076 421.0891 250.0835 426 254.4167 C428.0047 256.1856 433 256.4167 433 256.4167 "/>
<path id="5" d="M415 277.4167 C415 277.4167 418.8821 291.459 425 303.4167 C429.5495 312.3089 431.2012 316.9022 437 320.4167 C442.9328 324.0123 458 323.4167 458 323.4167 "/>
<path id="6" d="M432 258.4167 C432 258.4167 446.0476 267.0442 454 276.4167 C458.3574 281.5522 456.4768 284.3703 460 291.4167 C462.3488 296.1143 463.1618 297.5785 466 300.4167 C466.9461 301.3627 470.0004 301.4166 470 301.4167 C469.9982 301.4168 454.0179 301.3585 454 301.4167 C453.9662 301.5267 460.4641 309.8577 466 314.4167 C467.4198 315.5859 471.0001 315.4167 471 315.4167 C470.9997 315.4167 452 314.4167 452 314.4167 C452 314.4167 462.5541 313.5113 467 315.4167 C469.717 316.5811 473.0271 323.1726 473 323.4167 C472.9934 323.4758 469.0367 324.7963 466 324.4167 C461.859 323.899 457 321.4167 457 321.4167 "/>
</g>
</g>
</svg>
