<?xml version="1.0" encoding="utf-8"?>
<!DOCTYPE svg PUBLIC "-//W3C//DTD SVG 1.1//EN" "http://www.w3.org/Graphics/SVG/1.1/DTD/svg11.dtd">
<svg viewBox="0 0 800 800" preserveAspectRatio="xMinYMin meet" xmlns="http://www.w3.org/2000/svg" version="1.1">
<g fill="none" stroke="black" stroke-linecap="round" stroke-linejoin="round" stroke-width="2.7794">
<g transform="translate(87.52,262.919) scale(1.0794) translate(-60,-73.1333)">
<path id="0" d="M74 211.1333 C74 211.1333 94.0528 191.5595 114 179.1333 C122.2331 174.0045 124.7199 174.0971 135 173.1333 C155.5005 171.2114 156.7414 174.5049 178 173.1333 C202.9107 171.5262 203.0897 168.7758 228 167.1333 C248.2661 165.7971 248.5479 166.379 269 167.1333 C370.4282 170.8745 430.8031 175.5304 472 176.1333 C472.3878 176.139 472.2908 171.7286 474 170.1333 C484.9148 159.9462 489.0465 159.7583 502 148.1333 C508.1498 142.6143 509.5114 142.2048 513 135.1333 C527.1665 106.4175 528.628 80.6883 539 73.1333 C546.698 67.5261 566.8015 74.3201 594 76.1333 C596.4965 76.2998 598.9414 76.8053 599 77.1333 C599.8356 81.8127 597.4543 91.2524 599 104.1333 C600.3579 115.4494 603.9405 115.7438 605 127.1333 C607.8417 157.6815 605.1696 187.3338 607 190.1333 C607.2824 190.5653 638.8782 179.1627 639 179.1333 C639.0139 179.13 636.5165 181.1706 636 183.1333 C634.3256 189.496 634 190.7236 634 198.1333 C634 241.1098 636.1003 284.7322 636 285.1333 C635.9786 285.2191 625.1534 264.1634 618 262.1333 C601.8329 257.5454 589.8824 264.3779 562 264.1333 C533.0996 263.8798 532.7927 260.5174 504 261.1333 C439.8157 262.5063 439.4273 265.1065 375 268.1333 C365.0367 268.6014 364.7148 269.2331 355 268.1333 C338.6406 266.2813 338.52 264.0642 322 262.1333 C300.2599 259.5923 299.736 258.5337 278 259.1333 C227.9164 260.5149 227.2059 265.3279 177 266.1333 C134.3297 266.8179 131.6033 266.9319 91 262.1333 C79.2314 260.7425 74.8508 258.277 67 253.1333 C63.9665 251.1459 63.1559 248.0872 62 243.1333 C59.8814 234.0538 58.1345 228.3906 60 223.1333 C61.5099 218.8783 73 212.1333 73 212.1333 "/>
<path id="1" d="M109 185.1333 C109 185.1333 132.6269 185.1328 136 184.1333 C136.2563 184.0574 136 177.1333 136 177.1333 "/>
<path id="2" d="M229 167.1333 C229 167.1333 228.3151 163.9894 229 163.1333 C232.5272 158.7243 237.6398 157.8654 241 152.1333 C244.8998 145.4807 242.0367 141.1791 246 134.1333 C250.0585 126.9183 259 120.1333 259 120.1333 "/>
<path id="3" d="M322 163.1333 L310 119.1333 "/>
<path id="4" d="M266 114.1333 L302 116.1333 "/>
<path id="5" d="M230 268.1333 C230 268.1333 234.7874 272.3224 236 276.1333 C237.7521 281.64 235.5588 283.6481 237 290.1333 C238.4299 296.5679 238.6267 298.9167 242 303.1333 C245.1352 307.0523 249.0291 305.9639 253 310.1333 C258.1286 315.5184 258.2913 323.1781 262 324.1333 C278.9968 328.5113 293.3553 327.1333 319 327.1333 C322.1493 327.1333 325.8245 325.1866 326 324.1333 C328.4225 309.5982 329 267.1333 329 267.1333 "/>
<path id="6" d="M576 108.1333 C576 108.1333 572.1099 102.9815 569 102.1333 C563.5987 100.6602 558.1838 100.4218 554 102.1333 C551.0206 103.3522 548.159 106.9319 547 111.1333 C544.8502 118.9265 544.8013 130.1566 546 131.1333 C548.3219 133.0253 565.7561 133.6652 574 133.1333 C574.9637 133.0712 576.8213 130.8605 577 129.1333 C578.0363 119.1155 577 104.1333 577 104.1333 "/>
<path id="7" d="M541 122.1333 C541 122.1333 567.9023 124.284 580 122.1333 C582.3023 121.724 584.4498 117.7504 586 114.1333 C586.8798 112.0804 586.6688 110.3627 586 108.1333 C585.4538 106.3127 584.2257 104.4835 583 104.1333 C579.7457 103.2035 572 104.1333 572 104.1333 "/>
<path id="8" d="M550 113.1333 C550 113.1333 543.0811 112.3766 541 113.1333 C540.2012 113.4238 539.475 115.2333 539 117.1333 C538.5778 118.8222 538.8 120.7333 539 121.1333 C539.05 121.2333 541 121.1333 541 121.1333 "/>
</g>
</g>
</svg>
