<?xml version="1.0" encoding="utf-8"?>
<!DOCTYPE svg PUBLIC "-//W3C//DTD SVG 1.1//EN" "http://www.w3.org/Graphics/SVG/1.1/DTD/svg11.dtd">
<svg viewBox="0 0 800 800" preserveAspectRatio="xMinYMin meet" xmlns="http://www.w3.org/2000/svg" version="1.1">
<g fill="none" stroke="black" stroke-linecap="round" stroke-linejoin="round" stroke-width="1.7425">
<g transform="translate(87.52,282.9276) scale(1.7217) translate(-190,-78.1333)">
<path id="0" d="M262 147.1333 C262 147.1333 246.1886 158.9447 233 172.1333 C226.1615 178.9719 227.6378 181.0214 221 188.1333 C213.9392 195.6984 211.5064 195.2655 205 202.1333 C203.4615 203.7573 204.477 205.522 203 207.1333 C199.7037 210.7292 197.9618 212 194 214.1333 C192.7589 214.8016 190 214.1333 190 214.1333 C190 214.1333 228.713 215.5992 254 214.1333 C256.0672 214.0135 256.7485 210.7766 259 210.1333 C262.2987 209.1909 264.4747 211.0734 268 210.1333 C270.768 209.3952 271.359 206.3581 274 206.1333 C291.0779 204.6799 315 206.1333 315 206.1333 "/>
<path id="1" d="M261 146.1333 C261 146.1333 280.2593 147.2691 299 146.1333 C312.9285 145.2892 313.0954 142.5278 327 142.1333 C382.8886 140.5478 387.0727 143.4456 440 142.1333 C443.7819 142.0396 444.1999 139.2874 448 139.1333 C478.8816 137.8814 489.3776 134.9295 514 139.1333 C520.8608 140.3047 527.8719 147.3166 530 153.1333 C532.8548 160.9366 532.7579 173.4005 529 180.1333 C525.0677 187.1787 517.48 190.9151 506 196.1333 C497.3469 200.0666 495.3654 199.8192 485 200.1333 C430.5259 201.7841 429.4268 199.1939 374 200.1333 C341.0181 200.6923 308 203.1333 308 203.1333 "/>
<path id="2" d="M451 156.1333 C451 156.1333 453.5856 151.1209 457 148.1333 C461.0053 144.6287 463.6034 145.2469 467 142.1333 C468.4427 140.8109 467.6206 138.107 469 137.1333 C473.9746 133.6219 477.8422 134.417 484 130.1333 C488.4196 127.0588 487.4418 124.4596 492 121.1333 C505.1843 111.5124 508.2164 112.8074 521 103.1333 C525.6692 99.5999 524.6481 96.2418 529 93.1333 C533.7625 89.7316 536.5893 91.515 542 88.1333 C547.7882 84.5157 552.9848 78.1112 553 78.1333 C553.1626 78.3698 554.0751 93.024 553 104.1333 C552.7812 106.3938 550.4007 106.7292 550 109.1333 C548.1544 120.2068 550.6546 122.5498 548 134.1333 C545.3867 145.5368 542.699 149.7353 539 157.1333 C538.6637 157.8059 536.5044 157.3768 536 158.1333 C532.8616 162.8409 531.6761 169.2513 529 172.1333 C528.2727 172.9166 523 172.1333 523 172.1333 "/>
<path id="3" d="M518 96.1333 C518 96.1333 500.8976 95.4666 493 100.1333 C483.7642 105.5908 483.6876 115.6749 474 122.1333 C466.2307 127.3129 455.31 126.4468 451 128.1333 C450.8004 128.2114 451.5198 130.4186 451 131.1333 C448.6056 134.4256 443 139.1333 443 139.1333 "/>
<path id="4" d="M518 93.1333 L516 108.1333 "/>
</g>
</g>
</svg>
