<?xml version="1.0" encoding="utf-8"?>
<!DOCTYPE svg PUBLIC "-//W3C//DTD SVG 1.1//EN" "http://www.w3.org/Graphics/SVG/1.1/DTD/svg11.dtd">
<svg viewBox="0 0 800 800" preserveAspectRatio="xMinYMin meet" xmlns="http://www.w3.org/2000/svg" version="1.1">
<g fill="none" stroke="black" stroke-linecap="round" stroke-linejoin="round" stroke-width="2.0737">
<g transform="translate(87.52,285.7133) scale(1.4467) translate(-181,-142)">
<path id="0" d="M257,212C257,212 248.13935607176302,212.12168706036238 240,214C228.9921483963381,216.5402734469989 228.10119970087808,216.2464942584103 218,221C203.22405904220392,227.95338398013933 202.45177668869996,228.91096169682433 189,238C184.5460071845159,241.00945460505682 180.9380912368712,245.97707082847083 181,246C181.43927909131824,246.1626959597475 198.72776645669046,246.08086293963228 216,248C230.0030410745443,249.55589345272713 230.1117430847348,251.9936045713576 244,253C264.0765860057666,254.45482507288165 266.64338127984626,253.81584972089573 285,253C286.83068717859527,252.91863612539578 289,251 289,251"/>
<path id="1" d="M258,212C258,212 266.3147212875401,210.29483881975486 271,206C294.2786595488433,184.66122874689364 294.6153981788798,174.38855007211504 318,157C328.5640333979861,149.14469311431804 333.4202934515901,150.84994631983108 349,148C373.8623482909253,143.45200945897707 374.59461639566444,143.92952280539256 400,142C413.82452854435183,140.95003580675808 414.25357837549876,140.96253421701877 428,142C440.4218001337305,142.9374943497155 440.58328944158853,145.2696052612699 453,146C474.1576116974331,147.24456539396664 480.0704796358722,142.6464167654468 496,146C502.12223916075413,147.2888924548956 504.08300390752384,151.4002735891612 510,158C516.689862155117,165.46176932686126 515.3382391589683,167.78309242221576 522,175C526.7636152863267,180.16058322685396 528.8300747428844,183.48868871083474 534,184C565.6850747428845,187.13368871083472 613,184 613,184"/>
<path id="2" d="M281,252C281,252 355.9999026773909,259.9999810761593 356,260C356.00004982663335,260.000009688512 317.0004983212961,259.0003114508101 317,259C316.99964158594474,258.9997759912155 332.563505564151,255.96478090224056 348,255C364.3009381242565,253.98119136723397 365.0785161009766,256.8195981598884 381,255C399.2924754406962,252.90943137820614 399.6323505741004,248.49330483137396 418,247C460.03419317980643,243.58258592034093 462.3013784327904,249.69454679895736 504,245C536.2507772029033,241.36911779834864 537.6413360958493,238.79572280238375 569,230C577.7196425798678,227.5542465934517 579.791582239372,227.4124667656757 586,222C597.5669130898545,211.91602448576785 598.8420155861747,209.03251628121293 608,196C611.050671470316,191.65865983070415 612,185 612,185"/>
<path id="3" d="M475,252L450,297"/>
<path id="4" d="M450,297C450,297 450.56688611699155,299.7834430584958 451,300C451.86622776601683,300.43311388300844 455.7438524590164,300.30737704918033 456,300C456.3688524590164,299.55737704918033 456.3,294.6 456,294C455.925,293.85 453,294 453,294"/>
<path id="5" d="M477,249L472,255"/>
<path id="6" d="M271,234C271,234 263.8740625113786,224.2728645586797 264,224C264.16743961555346,223.63721416630088 271.8041005666325,223.13948800197485 277,221C279.06118324629454,220.15127748681988 280.9920812519114,216.98614219084487 281,217C281.0508119669021,217.08892094207866 282.0888490239885,224.7334529280345 281,228C280.43907777552107,229.68276667343676 278.0399494936612,231.56286796564404 276,232C272.94007575950826,232.65569805153393 267,231 267,231"/>
</g>
</g>
</svg>
