<?xml version="1.0" encoding="utf-8"?>
<!DOCTYPE svg PUBLIC "-//W3C//DTD SVG 1.1//EN" "http://www.w3.org/Graphics/SVG/1.1/DTD/svg11.dtd">
<svg viewBox="0 0 800 800" preserveAspectRatio="xMinYMin meet" xmlns="http://www.w3.org/2000/svg" version="1.1">
<g fill="none" stroke="black" stroke-linecap="round" stroke-linejoin="round" stroke-width="2.0065">
<g transform="translate(308.7977,87.52) scale(1.4951) translate(-227,-32)">
<path id="0" d="M235 113 C235 113 233.0177 113.7075 233 114 C232.4941 122.347 231.8076 130.2601 233 146 C234.2811 162.9099 237.3133 163.1078 238 180 C239.7868 223.9551 237.1055 224.5735 238 269 C238.6036 298.9806 236.6899 325.4083 241 329 C246.6112 333.676 276.2349 330.5175 310 329 C319.875 328.5562 327.7467 327.3606 330 325 C331.8496 323.0623 332.1524 315.3958 331 307 C328.8003 290.9734 325.3041 290.5126 323 274 C319.3829 248.0773 322.4308 247.1267 319 221 C315.9758 197.9696 313.4073 198.0941 310 175 C304.4328 137.267 306.9453 136.4206 301 99 C298.5221 83.404 298.8815 82.1593 293 68 C285.8214 50.7182 282.2164 43.5416 274 34 C271.9878 31.6633 266.559 31.3487 262 32 C258.2193 32.5401 255.324 33.8627 253 37 C246.9946 45.1073 244.7749 47.9005 242 59 C235.245 86.0201 232.4694 112.6791 233 117 C233.009 117.0733 241.3635 117.3166 249 116 C255.4641 114.8855 255.6759 112.4773 262 112 C281.017 110.5648 302 112 302 112 "/>
<path id="1" d="M240 332 C240 332 231.0228 356.4461 227 374 C226.5044 376.1627 228.5333 379.9682 229 380 C237.0973 380.5521 250.1838 379.3715 271 377 C289.5261 374.8894 289.7997 371.9334 308 371 C327.9516 369.9768 346.3357 373.4782 349 373 C349.0252 372.9955 348.9159 367.8318 347 364 C336.9414 343.8828 324 323 324 323 "/>
<path id="2" d="M246 382 C246 382 247.3792 396.9426 251 411 C255.7928 429.6072 262.8917 447.9718 263 448 C263.0146 448.0038 273.9108 416.9964 274 417 C274.1397 417.0056 282.4351 438.1975 288 449 C288.3612 449.7012 290.9932 450.0174 291 450 C292.2274 446.8756 298.9147 421.0792 299 421 C299.0216 420.9799 301.0929 429.9184 305 437 C308.7466 443.7908 314.9805 450.0244 315 450 C315.1154 449.8558 316.9278 422.1155 317 422 C317.0173 421.9724 320.3772 429.3772 325 434 C329.6228 438.6228 337 442 337 442 C337.0858 441.8713 336.2745 431.2778 333 422 C327.5035 406.4266 323.915 406.0726 319 391 C316.882 384.5048 318 376 318 376 "/>
<path id="3" d="M287 121 C287 121 287.2331 133.1657 289 142 C289.3798 143.899 290.72 145.36 292 146 C293.28 146.64 295.7237 146.547 297 146 C297.8387 145.6406 298.7645 144.4133 299 143 C300.0717 136.5696 301.1859 133.4551 300 128 C299.2536 124.5665 297.1027 122.5855 294 120 C292.1221 118.4351 288 118 288 118 "/>
<path id="4" d="M295 161 C295 161 294.2908 183.0452 295 186 C295.0408 186.1702 299.7433 186.6283 301 186 C301.8378 185.5811 302.7096 183.8878 303 182 C303.6068 178.0559 303.9375 176.9373 303 173 C301.6261 167.2295 298 161 298 161 "/>
<path id="5" d="M299 203 C299 203 297.5766 213.883 299 221 C299.6326 224.1631 303.9058 228.0282 304 228 C304.2598 227.9221 309 221.7937 309 218 C309 211.1714 304 200 304 200 "/>
<path id="6" d="M308 243 C308 243 307.0785 257.9315 308 263 C308.1257 263.6912 311.7246 265.1721 312 265 C312.8386 264.4758 315.0616 261.2845 316 258 C316.8067 255.1765 316.7018 253.3394 316 251 C315.609 249.6966 313 248 313 248 "/>
<path id="7" d="M249 118 C249 118 246.0113 117.9358 246 118 C245.6363 120.0608 244.8829 126.7741 246 135 C250.3037 166.6909 252.5367 166.9067 257 199 C263.0204 242.2894 263.7653 242.6548 267 286 C268.7326 309.2172 267 333 267 333 "/>
</g>
</g>
</svg>
