<?xml version="1.0" encoding="utf-8"?>
<!DOCTYPE svg PUBLIC "-//W3C//DTD SVG 1.1//EN" "http://www.w3.org/Graphics/SVG/1.1/DTD/svg11.dtd">
<svg viewBox="0 0 800 800" preserveAspectRatio="xMinYMin meet" xmlns="http://www.w3.org/2000/svg" version="1.1">
<g fill="none" stroke="black" stroke-linecap="round" stroke-linejoin="round" stroke-width="1.5265">
<g transform="translate(103.2423,87.52) scale(1.9653) translate(-156,-66)">
<path id="0" d="M220,172C220,172 221.59076312845158,162.88386026545572 225,155C229.40459939963097,144.8143638883534 229.89767926595996,144.4308593162437 236,135C240.75213263236523,127.65579502270829 240.8482760697415,126.05320179985519 247,121C253.66924991169293,115.52168757253794 256.1318017048658,112.68419115609863 264,112C307.4001353394202,108.2260751878765 314.93392248954074,108.72260915271971 362,111C374.65583806596083,111.61237926125616 375.2672060689838,115.52417895785797 388,118C392.6536099646354,118.90486860423465 393.8439856760565,116.70124552376765 398,118C408.441985988908,121.26312062153376 410.2987148422038,122.00802975547883 420,128C426.4708989726845,131.99673171842278 425.84617997904513,134.46560630034904 432,139C434.81915838656306,141.07727460062543 436.57334865881284,139.89690217097112 439,142C443.2129363562277,145.65121150873068 445.25719969915434,146.88052411626586 447,152C452.4411507720382,167.98338039286227 453.29724041663667,170.57923723452376 455,189C458.71225096430873,229.1598058866128 457.3120878471876,230.06922690766427 458,271C458.310067737047,289.4490303542984 461.52259811965166,293.35539656493745 457,308C452.4934457838079,322.5926517476697 448.68289633107394,326.4184193357665 437,339C424.10504525993855,352.88687433545084 420.40220818747815,355.8629843537851 405,364C397.30532420684005,368.06511173978265 392.42097762471155,363.36366875296545 384,367C372.7033572333125,371.8780957401605 371.5983741619964,380.69009793905206 361,383C338.90551911146246,387.8154637833992 332.2510465505849,385.94452196671 306,384C293.325860195402,383.06117482928903 292.0424226226984,382.0326542303814 280,377C259.27684239076404,368.33957592449843 258.6554029012354,366.87320160493874 239,356C235.72542418305338,354.1885325267955 234.83459629968988,353.7518944495348 233,351C230.41797557821422,347.12696336732136 229.2234057248068,345.691520220943 229,341C227.83912539259265,316.6216332444456 232.42832214224052,312.89030195796544 230,288C228.62854097545198,273.9425449983828 222.08485180199378,273.1030734259192 221,259C217.78479155056763,217.20229015737925 221,171 221,171"/>
<path id="1" d="M222,172C222,172 223.56185436192717,166.659795241534 226,164C228.17691574827933,161.62518282005894 229.8794215407012,160.32281846130678 233,160C242.21659219374297,159.04655942823348 253.2898440323095,159.2898440323095 255,161C256.7101559676905,162.7101559676905 253.86461972030952,172.6516186445769 256,183C260.18070520805736,203.26034062366253 261.27153838994576,205.00199074808214 268,224C269.3041815551717,227.68239497930818 270.0931344299072,228.965194100935 273,231C278.84309341867145,235.09016539307 280.4148719266988,234.74923082572806 288,238C294.3811394902375,240.73477406724464 294.79468342838134,242.66457748261521 301,243C346.85109678580954,245.4784376640978 350.99961626063316,245.21009370771512 399,244C409.3378474628656,243.7393819967345 411.05635297185097,243.35386763555587 420,240C425.564935928626,237.91314902676524 426.53996057047834,236.46003942952163 431,232C434.52108376014865,228.47891623985134 435.1203437063886,227.59471538438333 437,223C439.33465245992204,217.29307176463502 437.71222631241005,215.94821158773394 440,210C442.5364447405889,203.4052436744689 445.76839661675126,203.2948617366046 447,197C449.86194069087753,182.37230313551487 449,164 449,164"/>
<path id="2" d="M237,132C237,132 225.97933514074336,120.35685702896856 224,111C221.45170617507537,98.95352010035626 222.49666806268485,92.12691824455247 226,80C227.90575340432414,73.40316129272409 232.47352433205228,67.26741318702537 237,66C248.83194041889823,62.6870566827085 259.6745288391875,65.22259661138987 276,66C277.2956723143502,66.06169868163572 277.7962504022228,66.79625040222282 279,68C282.1297489542207,71.12974895422067 284.30324343496295,71.74846936316031 285,75C287.9972545340819,88.98718782571556 288,110 288,110"/>
<path id="3" d="M241,127C241,127 239.03752813226194,126.31898912422652 239,126C238.51392133451196,121.8683313433517 240.0632626469083,117.44283852835801 239,110C238.16457934885778,104.15205544200442 235.630609615237,103.83313894094219 235,98C233.7319263171865,86.27031843397493 233.76732506842444,81.93689325392275 235,73C235.224431849611,71.37286909032028 237.35194630833035,69.26368859066714 239,69C246.45886369074625,67.80658180948059 250.13060661904436,68.01306066190443 260,69C264.37073135442324,69.43707313544232 267.50182935274313,69.94001536002176 269,72C272.78109734783885,77.19900885327841 273.9233243495055,81.80329354780994 276,91C277.21085163320373,96.362342947045 274.78556438496883,98.3851446628816 276,103C276.84158257532863,106.19801378624872 281,110 281,110"/>
<path id="4" d="M222,180C222,180 218.67114751119826,179.8724917645577 218,179C215.26475731285245,175.44418450670818 215.952907582778,171.5853727960225 212,167C204.3164366664074,158.08706653303258 201.71312936189676,153.4852517447587 193,150C184.0842397227103,146.4336958890841 176.3335562207082,147.35290184340442 167,149C163.66203114658043,149.58905332707403 161.36818494200972,152.34007781689408 159,156C156.6775770858552,159.58919904913284 156.12266390747675,161.17521963924804 156,166C154.68525749631317,217.7132051450151 152.67077393901695,222.21203905137463 156,274C157.0042724910148,289.62201652689685 159.78103732510542,290.715895023523 165,306C166.59327163718964,310.66600979462686 166.89970020442863,311.1556282534915 170,315C179.07067910486478,326.2476420900323 179.44497495787243,329.88683094987055 190,337C199.71826587836338,343.5492661354188 204.27390435854588,343.0684760896365 216,346C218.38672743144642,346.5966818578616 219.98020181921134,346.1782156054601 222,345C224.91464547607478,343.2997901389564 228,339 228,339"/>
<path id="5" d="M221,189C221,189 211.17297826683995,178.35637500490424 201,170C197.7756658652744,167.35143981790395 196.91524192716457,166.69092504597023 193,166C181.14845686912344,163.90855121219826 174.3087877297104,162.6296023006793 167,164C164.8608426156945,164.4010920095573 161.24563176895307,168.60209386281588 161,172C158.81563176895307,202.2170938628159 157.38955980279684,211.8802635362964 161,247C162.59489227402932,262.51395212010334 167.84347638257736,262.92810867929915 172,279C175.22485355374502,291.46943374114744 173.1129174776448,293.45166991057925 176,305C176.74850287616616,307.9940115046646 177.7775763928687,308.22197049108587 180,311C183.72014386411106,315.6501798301388 183.61155363020043,316.7086652226503 188,320C192.90910949841984,323.6818321238149 194.2391251695953,325.03985419493256 200,326C213.36818390132373,328.2280306502206 230,327 230,327"/>
<path id="6" d="M285,239C285,239 287.2700859908711,246.4085381551915 287,251C286.8823387762542,253.00024080367896 284.3636781589022,253.69670499361942 284,256C283.0698231705002,261.89111992016575 284,270 284,270"/>
</g>
</g>
</svg>
