<?xml version="1.0" encoding="utf-8"?>
<!DOCTYPE svg PUBLIC "-//W3C//DTD SVG 1.1//EN" "http://www.w3.org/Graphics/SVG/1.1/DTD/svg11.dtd">
<svg viewBox="0 0 800 800" preserveAspectRatio="xMinYMin meet" xmlns="http://www.w3.org/2000/svg" version="1.1">
<g fill="none" stroke="black" stroke-linecap="round" stroke-linejoin="round" stroke-width="0.82085">
<g transform="translate(96.6568,87.52) scale(3.6547) translate(-147,-42.1333)">
<path id="0" d="M153 68.1333 C153 68.1333 153.8537 98.533 153 127.1333 C152.8834 131.0403 151 131.6507 151 135.1333 C151 138.1806 153.2324 139.1127 153 142.1333 C152.3447 150.6522 149.9399 151.7343 149 161.1333 C147.9826 171.3076 147.3126 173.9775 149 182.1333 C149.7426 185.7225 153.218 186.5693 155 190.1333 C155.648 191.4293 154.9237 194.1221 155 194.1333 C159.4273 194.7844 180.0763 196.5423 189 195.1333 C190.3462 194.9208 191.8983 191.7139 193 188.1333 C195.7079 179.3326 196.3701 178.582 197 169.1333 C199.8183 126.8594 200.3956 119.9238 200 83.1333 C199.9676 80.1192 197.6586 76.859 196 76.1333 C193.1818 74.9004 189.5529 77.1249 184 76.1333 C176.1829 74.7374 175.5251 71.7435 168 71.1333 C158.4417 70.3583 147 73.1333 147 73.1333 "/>
<path id="1" d="M202 82.1333 C202 82.1333 209.5448 78.7309 217 77.1333 C223.1299 75.8198 223.7299 75.5928 230 76.1333 C252.1003 78.0385 254.4005 77.1496 275 82.1333 C283.5045 84.1909 284.8231 85.5969 292 91.1333 C301.5578 98.5065 305.3183 100.4388 310 109.1333 C313.8233 116.2338 313.7714 122.6764 313 130.1333 C312.6786 133.2404 308.8273 133.9165 307 138.1333 C302.6846 148.092 304.7304 150.6726 300 160.1333 C296.8464 166.4405 292.9128 166.8904 290 172.1333 C289.0045 173.9252 290.7663 177.5203 290 178.1333 C285.5302 181.7092 279.0012 182.0713 270 188.1333 C255.0208 198.2213 254.6708 204.9193 241 211.1333 C231.6761 215.3715 226.3987 213.7847 215 213.1333 C210.9362 212.9011 207.7772 211.0883 206 209.1333 C204.8461 207.8641 206.4219 203.9927 205 202.1333 C201.4885 197.5413 193 192.1333 193 192.1333 "/>
<path id="2" d="M154 72.1333 C154 72.1333 152.4465 64.9447 153 59.1333 C153.3554 55.4021 153.9404 54.1083 156 51.1333 C157.8709 48.4309 158.9537 47.1878 162 46.1333 C170.4265 43.2165 174.4204 41.2671 182 42.1333 C188.1723 42.8387 191.3163 45.5864 197 50.1333 C200.0278 52.5555 200.4202 54.1839 202 58.1333 C203.169 61.0559 203.8548 62.9963 203 65.1333 C200.85 70.5083 194 78.1333 194 78.1333 "/>
</g>
</g>
</svg>
