<?xml version="1.0" encoding="utf-8"?>
<!DOCTYPE svg PUBLIC "-//W3C//DTD SVG 1.1//EN" "http://www.w3.org/Graphics/SVG/1.1/DTD/svg11.dtd">
<svg viewBox="0 0 800 800" preserveAspectRatio="xMinYMin meet" xmlns="http://www.w3.org/2000/svg" version="1.1">
<g fill="none" stroke="black" stroke-linecap="round" stroke-linejoin="round" stroke-width="1.6945">
<g transform="translate(87.52,126.4693) scale(1.7704) translate(-151.5,-90.6667)">
<path id="0" d="M226.5 141.6667 C226.5 141.6667 232.1828 138.2575 237.5 137.6667 C249.1153 136.3761 251.2341 135.6638 262.5 137.6667 C272.1536 139.3829 274.1344 140.2193 282.5 145.6667 C294.4542 153.4508 296.0339 155.0173 305.5 165.6667 C311.1172 171.9861 311.0842 173.5213 314.5 181.6667 C317.3809 188.5364 315.3776 190.0545 318.5 196.6667 C323.5175 207.2919 324.1735 212.6297 331.5 217.6667 C343.0488 225.6065 349.504 227.7056 366.5 229.6667 C398.7312 233.3857 402.9567 233.7688 435.5 229.6667 C459.9738 226.5817 462.2592 223.1883 485.5 214.6667 C490.7623 212.7372 492.5886 211.5485 495.5 207.6667 C498.8632 203.1825 500.5 194.6667 500.5 194.6667 "/>
<path id="1" d="M225.5 141.6667 C225.5 141.6667 236.0096 131.13 247.5 124.6667 C259.0131 118.1905 261.0726 115.5941 273.5 114.6667 C323.6812 110.9218 330.7067 110.6758 381.5 114.6667 C396.9564 115.8811 399.455 119.8146 413.5 125.6667 C415.6755 126.5731 415.7425 128.8855 417.5 129.6667 C419.0209 130.3426 420.7106 128.8714 422.5 129.6667 C428.425 132.3 428.8046 134.5581 435.5 137.6667 C442.4386 140.8882 444.4077 138.9038 450.5 142.6667 C460.2279 148.6751 462.7439 151.5728 469.5 158.6667 C470.6795 159.9051 469.3398 161.8877 470.5 163.6667 C476.0689 172.2057 476.8786 174.3276 484.5 181.6667 C489.5359 186.516 492.1113 185.0863 497.5 189.6667 C501.4871 193.0557 504.5 198.6667 504.5 198.6667 "/>
<path id="2" d="M226.5 142.6667 C226.5 142.6667 218.7512 145.4865 215.5 149.6667 C209.6942 157.1312 206.4742 160.2788 205.5 169.6667 C201.5127 208.0895 204.5 212.9872 204.5 255.6667 C204.5 260.1331 204.1556 260.6334 205.5 264.6667 C209.4373 276.4784 213.9995 277.038 215.5 288.6667 C219.6091 320.5121 214.8543 328.9416 217.5 357.6667 C217.7853 360.7643 219.5208 362.4646 222.5 364.6667 C229.9354 370.1624 240.5 374.6667 240.5 374.6667 "/>
<path id="3" d="M350.5 229.6667 C350.5 229.6667 350.2249 235.3312 351.5 239.6667 C352.5128 243.1103 354.9854 243.5789 355.5 246.6667 C356.2272 251.0298 354.5 257.6667 354.5 257.6667 "/>
<path id="4" d="M356.5 273.6667 L356.5 306.6667 "/>
<path id="5" d="M354.5 325.6667 L355.5 348.6667 "/>
<path id="6" d="M352.5 359.6667 C352.5 359.6667 353.4981 363.6704 352.5 365.6667 C348.9233 372.82 341.5 381.6667 341.5 381.6667 "/>
<path id="7" d="M241.5 377.6667 C241.5 377.6667 274.4894 390.6889 306.5 393.6667 C358.0148 398.4587 362.982 398.5873 413.5 393.6667 C436.3799 391.4381 438.1828 386.6672 460.5 378.6667 C463.6675 377.5312 463.5586 375.6471 466.5 374.6667 C470.2436 373.4188 473.5209 375.3877 475.5 373.6667 C481.6205 368.3445 485.0573 364.5179 489.5 354.6667 C495.8285 340.6338 497.2019 338.3735 498.5 322.6667 C502.0316 279.9349 501.0361 277.061 499.5 233.6667 C499.0826 221.8738 494.5 209.6667 494.5 209.6667 "/>
<path id="8" d="M338.5 386.6667 C338.5 386.6667 334.562 390.6357 330.5 392.6667 C327.1766 394.3284 322.5 394.6667 322.5 394.6667 "/>
<path id="9" d="M205.5 208.6667 L215.5 199.6667 "/>
<path id="10" d="M207.5 223.6667 L213.5 219.6667 "/>
<path id="11" d="M208.5 241.6667 L216.5 234.6667 "/>
<path id="12" d="M208.5 260.6667 L215.5 254.6667 "/>
<path id="13" d="M215.5 277.6667 L222.5 274.6667 "/>
<path id="14" d="M215.5 296.6667 L225.5 291.6667 "/>
<path id="15" d="M218.5 311.6667 L235.5 304.6667 "/>
<path id="16" d="M222.5 326.6667 L227.5 324.6667 "/>
<path id="17" d="M221.5 344.6667 L228.5 335.6667 "/>
<path id="18" d="M228.5 363.6667 L235.5 352.6667 "/>
<path id="19" d="M243.5 374.6667 L250.5 367.6667 "/>
<path id="20" d="M206.5 183.6667 C206.5 183.6667 204.0767 176.7069 200.5 173.6667 C195.579 169.4838 193.1443 168.4555 186.5 166.6667 C181.4806 165.3153 179.1149 165.4522 174.5 166.6667 C171.302 167.5083 169.2632 168.8749 167.5 171.6667 C164.2888 176.7511 162.805 178.9558 162.5 185.6667 C159.9691 241.3474 160.3094 254.4539 161.5 303.6667 C161.5615 306.2099 163.1323 308.2636 165.5 309.6667 C174.5644 315.0382 177.1759 317.1027 188.5 319.6667 C202.1499 322.7572 218.5 321.6667 218.5 321.6667 "/>
<path id="21" d="M201.5 171.6667 C201.5 171.6667 197.9759 171.1426 196.5 169.6667 C192.9157 166.0824 193.0238 161.6584 189.5 159.6667 C184.5716 156.881 177.2656 155.5684 173.5 156.6667 C170.7821 157.4594 167.6469 161.7289 165.5 166.6667 C163.2908 171.7478 163.5 179.6667 163.5 179.6667 "/>
<path id="22" d="M160.5 195.6667 C160.5 195.6667 156.2177 206.3312 155.5 216.6667 C153.7853 241.3589 157.0181 243.3767 155.5 267.6667 C155.1056 273.9773 152.377 274.3081 151.5 280.6667 C150.4645 288.174 150.409 289.3027 151.5 296.6667 C152.2904 302.0021 152.6907 303.0514 155.5 307.6667 C159.2821 313.8801 160.1177 315.0918 165.5 319.6667 C169.2969 322.894 170.3894 322.5373 175.5 324.6667 C182.3024 327.501 182.7133 328.8183 189.5 329.6667 C201.5652 331.1748 215.5 329.6667 215.5 329.6667 "/>
<path id="23" d="M180.5 170.6667 C180.5 170.6667 176.6037 172.9862 175.5 175.6667 C170.3861 188.0861 169.2679 190.0889 166.5 204.6667 C161.8906 228.9428 160.5 254.6667 160.5 254.6667 "/>
<path id="24" d="M243.5 131.6667 L257.5 131.6667 "/>
<path id="25" d="M267.5 131.6667 L282.5 136.6667 "/>
<path id="26" d="M291.5 140.6667 L304.5 154.6667 "/>
<path id="27" d="M310.5 156.6667 C310.5 156.6667 309.4335 161.9339 310.5 165.6667 C312.1251 171.3547 316.5 177.6667 316.5 177.6667 "/>
<path id="28" d="M320.5 181.6667 L324.5 192.6667 "/>
<path id="29" d="M329.5 199.6667 L338.5 206.6667 "/>
<path id="30" d="M341.5 212.6667 L358.5 220.6667 "/>
<path id="31" d="M366.5 223.6667 L387.5 225.6667 "/>
<path id="32" d="M395.5 226.6667 L408.5 227.6667 "/>
<path id="33" d="M425.5 228.6667 L444.5 227.6667 "/>
<path id="34" d="M439.5 224.6667 L455.5 223.6667 "/>
<path id="35" d="M462.5 220.6667 L476.5 215.6667 "/>
<path id="36" d="M481.5 212.6667 L495.5 203.6667 "/>
<path id="37" d="M499.5 198.6667 L501.5 194.6667 "/>
<path id="38" d="M418.5 225.6667 C418.5 225.6667 417.848 233.1257 415.5 239.6667 C410.9916 252.2258 407.7524 252.4701 404.5 264.6667 C402.1402 273.5158 402.6011 277.1755 403.5 284.6667 C403.7478 286.7316 405.7897 288.954 407.5 289.6667 C409.7492 290.6038 412.9613 290.6431 415.5 289.6667 C417.6969 288.8217 419.0751 287.374 420.5 284.6667 C423.6053 278.7665 423.9583 277.45 425.5 270.6667 C426.3148 267.0815 426.3166 266.1372 425.5 262.6667 C424.4853 258.354 422.184 258.0441 421.5 253.6667 C419.8545 243.1353 420.3603 230.946 420.5 230.6667 C420.5155 230.6356 425.89 233.7988 429.5 237.6667 C432.4693 240.8481 432.7354 241.4958 434.5 245.6667 C438.0829 254.1354 438.3887 254.5883 440.5 263.6667 C443.3226 275.8039 441.4006 280.2139 444.5 288.6667 C445.3861 291.0833 448.8324 293.1665 451.5 293.6667 C454.3986 294.2102 460.1531 292.5531 460.5 291.6667 C461.8192 288.2955 461.7772 279.288 460.5 270.6667 C460.099 267.9601 457.5555 267.6222 456.5 264.6667 C455.3125 261.3417 457.1221 259.404 455.5 256.6667 C450.235 247.7821 448.6954 245.8621 440.5 237.6667 C434.2329 231.3996 425.5 226.6667 425.5 226.6667 "/>
<path id="39" d="M265.5 234.6667 C265.5 234.6667 261.9007 239.6642 260.5 244.6667 C258.5882 251.4945 257.4858 257.7396 258.5 259.6667 C259.2502 261.092 264.7056 263.2928 270.5 263.6667 C294.1352 265.1915 297.8428 265.5238 320.5 263.6667 C325.6703 263.2429 330.3206 260.9272 331.5 258.6667 C333.5341 254.768 333.2883 241.1244 332.5 240.6667 C329.8312 239.1171 315.9477 242.3563 300.5 240.6667 C284.6827 238.9367 268.5 233.6667 268.5 233.6667 "/>
<path id="40" d="M265.5 263.6667 C265.5 263.6667 261.8537 295.9046 265.5 308.6667 C266.7617 313.0827 273.7478 317.4518 281.5 319.6667 C295.211 323.5841 300.3781 322.6667 314.5 322.6667 C317.0676 322.6667 318.3804 321.5935 320.5 319.6667 C323.2598 317.1577 323.5719 316.3622 325.5 312.6667 C329.4435 305.1084 330.0555 304.7335 332.5 296.6667 C334.9159 288.6943 334.9116 288.0998 335.5 279.6667 C336.3889 266.9257 335.5 253.6667 335.5 253.6667 "/>
<path id="41" d="M292.5 262.6667 C292.5 262.6667 290.4977 259.6667 290.5 259.6667 C290.5058 259.6667 295.2595 262.7698 295.5 262.6667 C295.796 262.5398 297.5 257.6438 297.5 256.6667 C297.5 256.5038 295.5059 255.6579 295.5 255.6667 C295.4295 255.7724 295.5007 259.666 295.5 259.6667 C295.4997 259.667 294.4998 256.6667 294.5 256.6667 C294.5003 256.6667 296.4901 259.6617 296.5 259.6667 C296.5028 259.6681 296.6 257.7167 296.5 257.6667 C296.1 257.4667 292.5 257.6667 292.5 257.6667 C292.5 257.6695 296.5 259.6667 296.5 259.6667 "/>
<path id="42" d="M396.5 307.6667 C396.5 307.6667 395.1048 319.4459 396.5 320.6667 C400.3022 323.9936 408.8 326.7167 420.5 328.6667 C431.5842 330.514 434.6067 329.9858 444.5 328.6667 C447.1932 328.3076 448.3185 326.8481 450.5 324.6667 C451.8089 323.3578 452.5 322.3156 452.5 320.6667 C452.5 315.3075 451.3044 307.8603 450.5 307.6667 C442.3456 305.7036 398.5 307.6667 398.5 307.6667 "/>
<path id="43" d="M403.5 325.6667 C403.5 325.6667 401.2934 354.9578 403.5 364.6667 C403.9115 366.4772 408.7751 368.9046 413.5 369.6667 C422.6819 371.1476 425.9849 371.5294 434.5 369.6667 C439.5812 368.5552 441.2714 366.631 445.5 362.6667 C448.5097 359.8451 448.927 358.7115 450.5 354.6667 C452.2048 350.2829 452.0874 349.6174 452.5 344.6667 C453.0681 337.8493 453.1277 335.6881 452.5 330.6667 C452.3991 329.8597 450.5 328.6667 450.5 328.6667 "/>
<path id="44" d="M420.5 319.6667 C420.5 319.6667 423.2577 322.6667 423.5 322.6667 C423.6616 322.6667 425.5399 319.8264 425.5 319.6667 C425.4721 319.5549 422.5 318.6667 422.5 318.6667 C422.4236 318.8959 422.8486 325.0153 423.5 325.6667 C423.9886 326.1552 429.5 325.6667 429.5 325.6667 C429.5 325.6625 423.4949 322.6972 423.5 322.6667 C423.5106 322.6031 430.1786 319.6667 430.5 319.6667 C430.5 319.6667 430.6654 322.5674 430.5 322.6667 C430.0404 322.9424 425.5 322.6667 425.5 322.6667 "/>
<path id="45" d="M259.5 382.6667 C259.5 382.6667 266.67 383.9434 270.5 382.6667 C273.6337 381.6221 277.5 376.6667 277.5 376.6667 "/>
<path id="46" d="M287.5 393.6667 L299.5 384.6667 "/>
<path id="47" d="M312.5 390.6667 C312.5 390.6667 321.0753 390.1344 324.5 388.6667 C325.4893 388.2427 326.5 384.6667 326.5 384.6667 "/>
<path id="48" d="M349.5 399.6667 L355.5 387.6667 "/>
<path id="49" d="M373.5 394.6667 L375.5 383.6667 "/>
<path id="50" d="M368.5 111.6667 C368.5 111.6667 359.5801 99.3649 353.5 94.6667 C351.9874 93.4978 349.4318 95.4485 346.5 94.6667 C342.7027 93.654 342.2864 91.3252 338.5 90.6667 C331.9684 89.5307 330.3921 89.6063 323.5 90.6667 C318.163 91.4877 317.7344 92.224 312.5 94.6667 C302.872 99.1597 300.5551 99.5357 293.5 104.6667 C291.5226 106.1048 290.5 110.6667 290.5 110.6667 "/>
<path id="51" d="M295.5 111.6667 C295.5 111.6667 299.6772 110.4895 300.5 109.6667 C300.8526 109.314 300.0318 107.3221 300.5 106.6667 C301.6816 105.0124 302.8455 103.9939 305.5 102.6667 C310.4298 100.2018 311.2809 99.0146 316.5 98.6667 C332.2191 97.6187 337.4059 96.7569 350.5 99.6667 C355.4741 100.772 361.5 108.6667 361.5 108.6667 "/>
</g>
</g>
</svg>
