<?xml version="1.0" encoding="utf-8"?>
<!DOCTYPE svg PUBLIC "-//W3C//DTD SVG 1.1//EN" "http://www.w3.org/Graphics/SVG/1.1/DTD/svg11.dtd">
<svg viewBox="0 0 800 800" preserveAspectRatio="xMinYMin meet" xmlns="http://www.w3.org/2000/svg" version="1.1">
<g fill="none" stroke="black" stroke-linecap="round" stroke-linejoin="round" stroke-width="1.8433">
<g transform="translate(205.5137,87.52) scale(1.6275) translate(-169,-53)">
<path id="0" d="M169 158 C169 158 168.063 153.4804 169 150 C171.329 141.3493 171.0886 136.6307 176 132 C184.6345 123.8589 189.8178 121.9525 204 117 C219.977 111.4207 221.7002 110.9688 239 110 C282.9924 107.5364 285.7314 105.851 329 110 C356.5681 112.6435 365.2864 115.338 385 124 C390.2624 126.3123 391.3327 135.0708 395 139 C395.5626 139.6028 399 139 399 139 "/>
<path id="1" d="M169 153 C169 153 171.9752 164.9949 173 177 C175.4527 205.7317 176 235 176 235 "/>
<path id="2" d="M177 228 C177 228 174.9798 324.534 181 404 C181.7797 414.2918 185.297 418.3724 192 426 C197.6767 432.4597 202.062 436.559 210 437 C279.0722 440.8373 372 436 372 436 "/>
<path id="3" d="M366 437 C366 437 377.0786 438.5972 384 437 C387.6086 436.1672 389.2189 434.4763 392 431 C396.5753 425.2809 397.1503 424.2192 400 417 C404.445 405.7394 405.9471 404.732 407 393 C409.3085 367.2764 407 339 407 339 "/>
<path id="4" d="M408 344 C408 344 405.9008 169.7375 405 144 C404.9994 143.982 401.25 144.25 401 144 C400.75 143.75 401 140 401 140 "/>
<path id="5" d="M193 119 C193 119 200.6991 114.8904 208 114 C220.1606 112.517 224.2004 111.4873 234 114 C239.8662 115.5042 242.3774 118.4529 247 124 C251.4007 129.2808 252.2386 130.9544 254 138 C257.9422 153.7688 257.4331 155.0251 259 172 C260.4137 187.3153 259.8545 187.5022 260 203 C260.8541 293.9641 261.448 294.5067 261 385 C260.9507 394.9495 261.2564 395.9746 259 405 C257.5141 410.9436 253 417 253 417 "/>
<path id="6" d="M263 395 C263 395 262.6454 404.3865 260 411 C258.1851 415.5372 256.9276 416.0724 253 420 C245.6357 427.3643 243.807 429.6682 237 434 C235.3603 435.0434 231 434 231 434 "/>
<path id="7" d="M286 111 C286 111 292.1798 111.6251 295 114 C300.1253 118.3161 301.4555 120.0292 305 127 C316.0089 148.6508 323.1403 151.2415 325 173 C332.3282 258.7399 325.8915 267.3941 325 361 C324.8956 371.9634 323 383 323 383 "/>
<path id="8" d="M328 364 C328 364 327.6636 376.7539 325 388 C323.3378 395.0184 322.6313 395.4636 319 402 C312.7616 413.2292 312.9095 415.2723 305 424 C299.6201 429.9364 290 434 290 434 "/>
<path id="9" d="M178 192 L259 194 "/>
<path id="10" d="M328 193 C328 193 362.0252 194.2298 394 193 C399.8695 192.7743 406 190 406 190 "/>
<path id="11" d="M179 218 L260 219 "/>
<path id="12" d="M330 224 C330 224 342.582 227.2358 355 228 C374.6751 229.2108 376.4757 229.7476 395 228 C401.2388 227.4114 408 223 408 223 "/>
<path id="13" d="M188 207 C188 207 193.7456 203.3827 199 202 C202.4131 201.1018 203.751 201.4093 207 202 C208.3661 202.2484 209.6896 203.1722 210 204 C210.596 205.5893 210.3126 209.8749 210 210 C207.2904 211.0838 192.3575 212.6736 190 212 C189.6013 211.8861 189 204 189 204 "/>
<path id="14" d="M191 208 C191 208 199.8863 214.6635 206 222 C209.2683 225.922 210.1224 227.2611 211 232 C212.3655 239.3735 212.225 244.9168 211 249 C210.6541 250.1529 207.8371 251.5271 205 252 C199.7622 252.873 195.1134 253.3675 193 252 C190.8659 250.6191 188.8467 246.2494 188 241 C186.5657 232.1076 186.8316 230.3474 188 221 C188.7303 215.1579 192 209 192 209 "/>
<path id="15" d="M199 247 C199 247 199 228 199 228 C199 228 200 249 200 249 C200 249 197 226.0002 197 226 C197 225.9999 197.2404 234.7981 197 236 C196.9904 236.0481 195.0147 236.0588 195 236 C194.7647 235.0588 194.5506 228.7191 195 228 C195.1756 227.7191 199.2217 227.444 200 228 C200.8673 228.6195 202 233 202 233 "/>
<path id="16" d="M238 110 C238 110 248.547 78.4508 258 56 C258.7094 54.3152 260.2087 53.3583 262 53 C266.2837 52.1433 269.8127 51.1649 273 53 C282.5442 58.4952 284.5046 62.0877 295 72 C302.4008 78.9896 303.0966 79.0433 309 87 C314.2733 94.1075 318 103 318 103 "/>
<path id="17" d="M260 101 C260 101 262.1339 85.7399 265 71 C265.5912 67.9595 266.1338 65.8662 267 65 C267.4331 64.5669 269.9733 64.2508 271 65 C284.5278 74.8716 293.2691 79.4806 304 92 C307.4106 95.979 307 107 307 107 "/>
<path id="18" d="M263 97 L261 112 "/>
<path id="19" d="M320 106 L320 102 "/>
</g>
</g>
</svg>
