<?xml version="1.0" encoding="utf-8"?>
<!DOCTYPE svg PUBLIC "-//W3C//DTD SVG 1.1//EN" "http://www.w3.org/Graphics/SVG/1.1/DTD/svg11.dtd">
<svg viewBox="0 0 800 800" preserveAspectRatio="xMinYMin meet" xmlns="http://www.w3.org/2000/svg" version="1.1">
<g fill="none" stroke="black" stroke-linecap="round" stroke-linejoin="round" stroke-width="2.0545">
<g transform="translate(87.52,99.9316) scale(1.4602) translate(-104,-42)">
<path id="0" d="M198 146 C198 146 201.691 138.331 207 134 C219.5736 123.7426 220.8097 122.3553 236 115 C267.4437 99.7746 268.98 100.6373 302 88 C309.1509 85.2633 309.6516 84.5157 317 84 C337.1975 82.5826 338.4307 82.5308 359 84 C372.8878 84.992 373.9194 84.693 387 89 C414.0222 97.8975 416.0943 98.2195 441 111 C452.72 117.0142 454.3417 123.223 463 128 C464.7792 128.9817 468.8532 126.1399 470 127 C474.5874 130.4405 477.8283 134.9192 483 143 C485.3222 146.6284 485.7904 147.6692 486 152 C487.2145 177.0988 489.5137 180.9895 486 205 C483.961 218.9334 481.4088 221.462 474 234 C469.2225 242.0849 467.8186 243.5749 460 249 C444.5655 259.7096 441.8459 263.7378 425 268 C404.4728 273.1936 400.3703 270.6677 377 270 C366.2201 269.692 365.294 269.1862 355 266 C344.9064 262.8758 343.4032 262.1712 335 257 C331.6083 254.9128 331.2783 253.7971 329 250 C322.5091 239.1819 324.3227 237.3183 317 227 C291.8316 191.5354 288.394 181.4418 263 157 C256.1507 150.4075 249.7695 151.3145 237 150 C216.9286 147.9338 195 150 195 150 "/>
<path id="1" d="M196 149 C196 149 193.2183 214.3411 197 278 C199.1582 314.3298 200.0896 316.2629 208 351 C211.2198 365.139 212.7845 366.1725 220 379 C225.9047 389.4973 226.8211 390.529 235 399 C240.1118 404.2944 241.111 405.0324 248 408 C272.5667 418.5826 274.043 420.5777 300 427 C321.1668 432.2371 345 432 345 432 "/>
<path id="2" d="M341 256 C341 256 341.1208 270.0438 344 283 C348.0008 301.0034 351.363 300.8152 355 319 C363.7401 362.7007 360.892 364.217 369 408 C370.7803 417.6135 370.2818 420.8838 375 427 C381.4298 435.3349 385.4788 436.3366 396 443 C399.6835 445.3329 405 446 405 446 "/>
<path id="3" d="M343 432 C343 432 355.6132 432.4327 366 431 C368.8792 430.6029 372 428 372 428 "/>
<path id="4" d="M489 185 C489 185 498.6711 203.7166 505 222 C507.3347 228.7447 504.8408 230.1624 507 237 C510.6133 248.4421 513.2769 248.2721 517 260 C523.1413 279.345 523.0359 279.9153 527 300 C530.4931 317.6984 530.6828 318.0855 532 336 C533.159 351.763 533.3446 352.4025 532 368 C530.8894 380.8831 530.839 381.9346 527 394 C524.097 403.1236 523.2549 403.7423 518 412 C512.9867 419.8781 512.7398 420.6346 506 427 C495.1963 437.2035 493.9634 439.2888 482 446 C475.3574 449.7263 473.37 449.4228 465 450 C445.1358 451.3699 444.2471 450.9797 424 450 C413.5579 449.4947 413.111 448.9444 403 447 C400.4767 446.5148 399.4773 446.2663 398 445 C396.8056 443.9762 396 441 396 441 "/>
<path id="5" d="M300 162 C300 162 304.3708 177.1306 306 181 C306.0637 181.1514 308 181 308 181 "/>
<path id="6" d="M314 194 L328 209 "/>
<path id="7" d="M345 229 C345 229 353.2645 240.2385 359 243 C362.4618 244.6668 372 242 372 242 "/>
<path id="8" d="M394 246 C394 246 400.8104 246.8537 407 246 C414.8807 244.913 423 242 423 242 "/>
<path id="9" d="M438 240 L457 222 "/>
<path id="10" d="M474 203 L472 180 "/>
<path id="11" d="M469 159 L464 140 "/>
<path id="12" d="M432 378 C432 378 431.8816 371.0212 430 365 C427.0309 355.4987 421.5325 347.1947 422 346 C422.3138 345.1981 431.2659 344.7843 439 342 C443.1103 340.5203 442.9184 338.139 447 337 C463.0535 332.52 476.5894 328.2785 482 330 C484.589 330.8238 487.8991 341.0082 491 351 C492.0426 354.3595 491.9597 358.3528 491 359 C480.8321 365.8574 469.6053 370.9397 448 380 C439.2018 383.6896 429 385 429 385 "/>
<path id="13" d="M421 350 C421 350 421.6938 343.6058 420 341 C416.7002 335.9233 412.8139 335.5016 408 330 C406.4887 328.2727 405.949 325.0255 406 325 C414.3665 320.8168 439.9507 310.4516 474 297 C480.2792 294.5193 486.5086 292.43 487 293 C489.9555 296.4284 499.8799 323.549 499 326 C498.5298 327.3098 473 332 473 332 "/>
<path id="14" d="M244 314 C244 314 240.9018 350.6463 243 352 C248.7362 355.7007 301.1369 356.7903 306 354 C307.5119 353.1325 306.1794 318.1217 304 317 C297.2716 313.5368 240.4877 320.5663 238 319 C237.5901 318.7419 244.5704 285.9985 250 283 C259.4612 277.7752 294.2796 279.8196 305 282 C306.2998 282.2644 308.3813 288.658 309 295 C310.2938 308.2615 309.3707 319.5397 309 323 C308.9957 323.0397 306 323 306 323 "/>
<path id="15" d="M201 154 C201 154 200.9963 146.4879 199 140 C195.1651 127.5364 195.141 126.5997 189 115 C181.905 101.5984 180.9335 100.9113 172 89 C169.4064 85.5419 168.5678 84.5291 165 83 C159.3022 80.5581 157.9158 80.506 151 80 C137.8683 79.0391 131.3865 76.8608 124 80 C118.467 82.3515 114.4824 88.3856 111 97 C105.9262 109.5511 105.9919 112.1218 105 127 C102.5508 163.7387 102.5968 165.1655 104 202 C104.5651 216.8349 105.6884 217.4291 109 232 C110.6099 239.0834 112.4341 238.9536 114 246 C116.3488 256.5696 114.0736 257.6716 117 268 C122.3746 286.9692 123.4929 287.2322 131 306 C139.4713 327.1783 139.0565 327.7815 149 348 C153.8692 357.9007 153.8247 359.4369 161 367 C171.3239 377.882 173.0844 377.9003 186 387 C194.8382 393.2269 195.3111 393.8102 205 398 C213.2229 401.5559 214.2949 402.1072 223 403 C232.8264 404.0078 244 402 244 402 "/>
<path id="16" d="M188 156 C188 156 188.8101 152.5204 188 150 C184.6389 139.5433 184.7574 137.8699 179 128 C171.1649 114.5685 170.0415 113.0456 160 102 C156.0551 97.6606 154.3149 96.7716 149 95 C143.6851 93.2284 138.2504 92.6498 136 94 C133.3141 95.6116 131.0802 100.5282 129 107 C126.8662 113.6385 127 114.6 127 122 C127 153.5732 125.2535 156.0284 129 186 C130.4651 197.7204 135.4717 197.8644 138 210 C145.2591 244.8435 141.1118 247.2918 149 282 C153.3604 301.1859 153.0589 303.7328 163 320 C184.7328 355.5627 215 390 215 390 "/>
<path id="17" d="M255 111 C255 111 244.3223 105.2674 240 99 C236.0445 93.2646 235.6673 90.0081 235 82 C234.2784 73.3405 234.9173 71.6283 237 63 C238.198 58.0368 238.9093 57.327 242 53 C246.1318 47.2155 251.9979 42.0015 252 42 C252.0008 41.9994 248.9553 47.9976 249 48 C249.3623 48.0191 260.1426 44.508 271 43 C277.6978 42.0697 278.9437 41.3751 285 43 C297.9566 46.4762 302.2561 47.0767 312 54 C318.2603 58.4481 319.3647 61.8205 323 70 C326.8674 78.7016 328 90 328 90 "/>
<path id="18" d="M268 101 C268 101 260.371 93.4017 258 87 C256.259 82.2992 256.0288 77.6796 258 74 C261.4929 67.4798 266.1256 62.9282 273 59 C276.958 56.7383 281.1516 56.8981 286 58 C289.9339 58.8941 291.9301 60.4184 295 64 C300.0846 69.932 300.9618 71.5427 304 79 C306.0857 84.1195 306 91 306 91 "/>
<path id="19" d="M226 410 C226 410 239.4849 427.7833 253 432 C294.2287 444.8633 301.9965 442.1395 351 449 C376.6588 452.5922 403 453 403 453 "/>
<path id="20" d="M439 264 C439 264 440.9916 263.9662 441 264 C441.0633 264.2531 440.8667 266.2666 440 268 C436.5332 274.9336 431.9743 281.9537 432 282 C432.006 282.0108 443.5051 279.1848 445 277 C446.5062 274.7986 444.391 263.273 445 263 C447.7705 261.7581 470.3039 263.1078 474 264 C474.1831 264.0442 474.8234 268.1886 474 270 C473.002 272.1956 471.1606 274.3998 469 275 C464.6036 276.2212 460.1918 276.7466 456 275 C451.1096 272.9623 445 265 445 265 "/>
</g>
</g>
</svg>
