<?xml version="1.0" encoding="utf-8"?>
<!DOCTYPE svg PUBLIC "-//W3C//DTD SVG 1.1//EN" "http://www.w3.org/Graphics/SVG/1.1/DTD/svg11.dtd">
<svg viewBox="0 0 800 800" preserveAspectRatio="xMinYMin meet" xmlns="http://www.w3.org/2000/svg" version="1.1">
<g fill="none" stroke="black" stroke-linecap="round" stroke-linejoin="round" stroke-width="1.2721">
<g transform="translate(131.1493,87.52) scale(2.3583) translate(-194,-43)">
<path id="0" d="M200 90 C200 90 257.539 57.1501 301 43 C310.855 39.7914 315.454 44.3389 329 48 C352.1005 54.2434 352.118 58.0376 375 63 C392.4917 66.7934 412 66 412 66 "/>
<path id="1" d="M194 94 C194 94 240.7329 115.4932 287 134 C294.8951 137.158 304 138 304 138 "/>
<path id="2" d="M413 69 C413 69 405.7137 76.5361 398 82 C394.2294 84.6708 392.9167 83.3367 389 86 C368.4809 99.953 369.2826 105.1274 348 116 C325.4483 127.521 297 133 297 133 "/>
<path id="3" d="M416 69 C416 69 417.6471 85.9971 414 90 C404.4863 100.4418 395.1612 104.2517 375 114 C350.43 125.88 347.8321 122.8435 323 134 C314.0656 138.014 308.9599 144.63 306 145 C305.0335 145.1208 299 137 299 137 "/>
<path id="4" d="M194 89 C194 89 193.0915 99.9436 194 106 C194.1844 107.2291 195.4008 108.4717 197 109 C245.177 124.9156 306 143 306 143 "/>
<path id="5" d="M196 108 C196 108 195.4311 125.3694 197 142 C197.8917 151.4519 200.6139 151.6379 201 161 C202.5713 199.1031 199.3817 201.3753 201 239 C201.3148 246.3185 205 254 205 254 "/>
<path id="6" d="M309 146 C309 146 310.3341 213.741 309 276 C308.8967 280.8199 307.0235 285.7775 306 286 C297.4942 287.8491 284.1301 287.4277 263 286 C247.6007 284.9595 247.1467 284.3323 232 281 C222.4118 278.8906 221.2918 279.0029 213 275 C207.7507 272.4659 207.2086 271.4424 203 267 C198.5252 262.2766 197.4536 260.9073 195 256 C194.1821 254.3642 194.2364 252.9091 195 251 C197.7796 244.0509 200.3291 243.4786 203 236 C205.0513 230.2564 205 223 205 223 "/>
<path id="7" d="M202 269 C202 269 203.9689 269.6889 204 270 C204.4925 274.925 203.7114 287.7015 204 289 C204.0017 289.0076 207.8247 288.4966 208 288 C209.214 284.5604 210 272 210 272 "/>
<path id="8" d="M292 286 C292 286 290.3511 296.0923 289 306 C288.8676 306.9709 288.9689 307.9938 289 308 C289.3728 308.0746 293.9639 307.253 294 307 C294.4156 304.0907 292 287 292 287 "/>
<path id="9" d="M416 78 L418 232 "/>
<path id="10" d="M309 287 C309 287 333.4847 281.0242 355 271 C376.5931 260.9396 375.9513 257.5172 397 246 C401.9858 243.2719 403.4415 244.849 408 242 C414.7111 237.8056 421 231 421 231 "/>
<path id="11" d="M313 149 L313 198 "/>
<path id="12" d="M312 147 C312 147 318.8938 147.9849 325 147 C333.8335 145.5752 335.4412 145.8874 343 142 C351.7031 137.5241 351.7163 133.1418 360 129 C364.9349 126.5325 367.2339 128.9959 373 127 C379.4949 124.7518 379.9001 122.0333 386 120 C389.1826 118.9391 391.0155 121.2159 394 120 C402.7599 116.4311 412.8406 108.9469 413 109 C413.0139 109.0046 409.6558 117.13 409 125 C407.7151 140.4188 409.6833 145.3833 409 157 C408.9548 157.7687 407.8581 158.8856 407 159 C396.2989 160.4268 392.7027 159.0069 379 161 C365.4999 162.9637 364.6865 162.6174 352 167 C337.8219 171.8979 336.0361 172.1626 324 180 C315.825 185.3233 309 195 309 195 "/>
<path id="13" d="M315 203 C315 203 313.9999 218.9989 314 219 C314.0001 219.0005 316 212 316 212 "/>
<path id="14" d="M316 201 C316 201 337.992 183.5195 358 178 C376.7379 172.8309 383.8683 179.9687 403 177 C409.0339 176.0637 415.9768 168.9797 416 169 C416.0314 169.0274 412.5941 176.4851 411 184 C409.1713 192.6209 410.8663 195.1569 409 202 C408.4877 203.8785 407.1533 204.9233 405 206 C399.9756 208.5122 398.9469 209.0088 393 210 C384.4708 211.4215 383.4032 209.1993 375 211 C363.1366 213.5421 361.7045 213.4495 351 219 C335.6475 226.9606 322.6397 239.3364 321 239 C320.0665 238.8085 312 211 312 211 "/>
<path id="15" d="M314 248 C314 248 315.8851 249.6784 316 251 C316.7242 259.328 316 271 316 271 "/>
<path id="16" d="M317 247 C317 247 316.7105 244.2895 317 244 C317.4825 243.5175 318.9832 243.2823 321 243 C343.8176 239.8055 345.467 242.5146 367 237 C385.0473 232.3781 386.2816 230.6807 403 222 C411.4877 217.5929 418.5307 210.0276 419 210 C419.0099 209.9994 421.5245 217.646 420 221 C415.7681 230.3101 412.597 236.2129 404 243 C396.7047 248.7594 393.1439 247.9045 382 251 C366.3833 255.338 365.2743 253.4502 350 258 C342.3438 260.2806 342.4603 262.9654 335 265 C326.8177 267.2315 322.9392 267 317 267 C316.3401 267 315 265 315 265 "/>
<path id="17" d="M362 242 C362 242 361.9085 249.939 362 250 C362.0572 250.0381 366.987 247.6884 368 246 C368.7998 244.667 368.3706 240.3176 368 240 C367.4956 239.5676 362.329 239.5016 361 240 C360.5966 240.1513 360.0003 243 360 243 C360 243 360 240 360 240 "/>
<path id="18" d="M358 190 C358 190 355.5207 197.4878 356 203 C356.3867 207.4471 358.4102 211.2336 360 213 C360.526 213.5845 363.5429 213.7286 365 213 C367.1857 211.9072 369.4643 210.1428 370 208 C371.2857 202.8573 370.8861 198.3165 370 193 C369.7932 191.7595 368.3034 190.391 367 190 C364.6606 189.2982 362.2879 189.0195 360 190 C356.8717 191.3407 353 196 353 196 "/>
<path id="19" d="M360 147 C360 147 360.7097 161.4977 362 165 C362.1957 165.5312 365.6493 166.3377 367 166 C368.0664 165.7334 369.7649 164.2537 370 163 C370.8578 158.4252 371.2504 154.7517 370 150 C369.2963 147.326 366.2643 144.3161 365 144 C363.7843 143.6961 358.7488 145.7164 358 147 C357.0486 148.6309 358 156 358 156 "/>
<path id="20" d="M422 237 C422 237 422.4559 254.5556 421 263 C420.7948 264.1904 417 266 417 266 "/>
<path id="21" d="M416 241 L416 273 "/>
<path id="22" d="M346 279 C346 279 345.3373 289.6805 346 292 C346.1092 292.3823 349.2634 293.2455 350 293 C350.6027 292.7991 352 290 352 290 "/>
<path id="23" d="M352 276 L352 292 "/>
</g>
</g>
</svg>
