<?xml version="1.0" encoding="utf-8"?>
<!DOCTYPE svg PUBLIC "-//W3C//DTD SVG 1.1//EN" "http://www.w3.org/Graphics/SVG/1.1/DTD/svg11.dtd">
<svg viewBox="0 0 800 800" preserveAspectRatio="xMinYMin meet" xmlns="http://www.w3.org/2000/svg" version="1.1">
<g fill="none" stroke="black" stroke-linecap="round" stroke-linejoin="round" stroke-width="1.0081">
<g transform="translate(87.52,151.504) scale(2.976) translate(-118,-26.1333)">
<path id="0" d="M119 59.1333 C119 59.1333 118.2783 181.5711 127 187.1333 C145.1071 198.6812 245.6487 186.3119 315 184.1333 C316.1409 184.0975 317.4751 182.7079 318 181.1333 C323.161 165.6502 326.904 162.6701 328 145.1333 C331.2302 93.4508 332.1108 61.0521 327 37.1333 C326.3327 34.0105 314.9651 31.3435 303 28.1333 C295.0564 26.0021 293.8803 25.2436 286 26.1333 C264.3822 28.574 263.2707 32.3876 241 35.1333 C227.4761 36.8007 226.7517 34.2365 213 35.1333 C204.0635 35.7161 203.9158 37.8518 195 38.1333 C157.0599 39.3314 127.0167 35.7913 118 38.1333 C117.3917 38.2913 118 58.1333 118 58.1333 "/>
<path id="1" d="M225 38.1333 L227 193.1333 "/>
<path id="2" d="M190 103.1333 L190 124.1333 "/>
<path id="3" d="M253 102.1333 L253 128.1333 "/>
</g>
</g>
</svg>
