<?xml version="1.0" encoding="utf-8"?>
<!DOCTYPE svg PUBLIC "-//W3C//DTD SVG 1.1//EN" "http://www.w3.org/Graphics/SVG/1.1/DTD/svg11.dtd">
<svg viewBox="0 0 800 800" preserveAspectRatio="xMinYMin meet" xmlns="http://www.w3.org/2000/svg" version="1.1">
<g fill="none" stroke="black" stroke-linecap="round" stroke-linejoin="round" stroke-width="3.0242">
<g transform="translate(87.52,282.448) scale(0.992) translate(-7,-81.1333)">
<path id="0" d="M240 166.1333 C240 166.1333 237.3001 173.7308 237 181.1333 C235.8291 210.0158 239.0636 211.2429 237 240.1333 C235.6184 259.4752 232.1007 259.7018 230 279.1333 C228.1449 296.2928 229 314.1333 229 314.1333 "/>
<path id="1" d="M405 163.1333 C405 163.1333 396.8765 191.3619 395 219.1333 C391.954 264.214 395 311.1333 395 311.1333 "/>
<path id="2" d="M229 313.1333 C229 313.1333 265.1348 311.6338 300 313.1333 C310.8878 313.6016 311.052 316.34 322 317.1333 C345.1204 318.8087 347.7834 320.3836 369 318.1333 C377.9802 317.1809 378.8632 312.2217 388 310.1333 C395.0187 308.5291 404 310.1333 404 310.1333 "/>
<path id="3" d="M10 158.1333 C10 158.1333 61.8822 169.4905 113 175.1333 C137.8578 177.8774 139.2616 177.2197 164 175.1333 C179.8085 173.8001 180.2162 169.1111 196 168.1333 C235.4186 165.6915 236.9453 170.0407 277 168.1333 C299.3939 167.067 299.6064 163.1913 322 162.1333 C362.5506 160.2176 363.196 161.0689 404 162.1333 C420.4601 162.5627 420.8037 162.7339 437 165.1333 C447.5285 166.6931 447.5216 168.8465 458 170.1333 C475.5718 172.2913 476.0315 172.0111 494 172.1333 C549.3787 172.5101 605 171.1333 605 171.1333 "/>
<path id="4" d="M35 164.1333 C35 164.1333 33.9557 180.1655 35 195.1333 C35.4113 201.0284 37.7954 201.2675 38 207.1333 C39.2509 242.9932 38.389 244.1793 38 281.1333 C37.8896 291.6255 38.3331 292.1354 37 302.1333 C36.4071 306.5804 34 311.1333 34 311.1333 "/>
<path id="5" d="M37 312.1333 C37 312.1333 158.4727 319.8215 177 312.1333 C181.2762 310.3588 182.5015 281.5323 184 251.1333 C185.9787 210.9945 184 170.1333 184 170.1333 "/>
<path id="6" d="M152 232.1333 C152 232.1333 147.7033 233.8675 147 235.1333 C146.2697 236.4479 146.081 239.9637 147 241.1333 C149.5491 244.3777 153.1394 246.541 158 249.1333 C159.2735 249.8125 161.0351 249.6847 162 249.1333 C163.2751 248.4047 164.5815 247.0168 165 245.1333 C166.2756 239.3933 166.5969 231.6507 166 231.1333 C165.1886 230.4301 150 232.1333 150 232.1333 "/>
<path id="7" d="M368 240.1333 C368 240.1333 363.7958 240.5357 361 242.1333 C357.4194 244.1794 355.3891 245.5535 354 248.1333 C353.0046 249.9818 353.1299 253.2191 354 255.1333 C354.7797 256.8486 357.611 259.2064 359 259.1333 C363.1364 258.9156 366.9348 256.9875 373 254.1333 C374.6363 253.3633 375.6786 252.419 376 251.1333 C376.7714 248.0477 377.1958 244.3755 376 242.1333 C374.6358 239.5755 368 236.1333 368 236.1333 "/>
<path id="8" d="M7 81.1333 C7 81.1333 24.5587 85.5269 42 87.1333 C62.1588 88.9901 62.7219 86.3615 83 88.1333 C113.9443 90.8372 114.1921 95.5693 145 96.1333 C330.8992 99.5365 336.1423 97.9952 520 96.1333 C529.8256 96.0338 530.1337 92.5022 540 92.1333 C582.5998 90.5408 627 92.1333 627 92.1333 "/>
<path id="9" d="M605 175.1333 L637 173.1333 "/>
<path id="10" d="M518 175.1333 C518 175.1333 520.0364 234.5228 518 291.1333 C517.5931 302.4456 512.9891 314.131 513 314.1333 C521.462 315.9189 627 314.1333 627 314.1333 "/>
<path id="11" d="M624 239.1333 C624 239.1333 623.2019 245.6747 624 249.1333 C624.2947 250.4103 625.7054 251.7803 627 252.1333 C629.7125 252.8731 634.6098 252.6211 635 252.1333 C635.6098 251.3711 635.628 246.5297 635 242.1333 C634.7308 240.2492 633.8458 238.6167 633 238.1333 C632.0132 237.5694 628 238.1333 628 238.1333 "/>
</g>
</g>
</svg>
