<?xml version="1.0" encoding="utf-8"?>
<!DOCTYPE svg PUBLIC "-//W3C//DTD SVG 1.1//EN" "http://www.w3.org/Graphics/SVG/1.1/DTD/svg11.dtd">
<svg viewBox="0 0 800 800" preserveAspectRatio="xMinYMin meet" xmlns="http://www.w3.org/2000/svg" version="1.1">
<g fill="none" stroke="black" stroke-linecap="round" stroke-linejoin="round" stroke-width="1.7041">
<g transform="translate(255.643,87.52) scale(1.7605) translate(-250,-126.1333)">
<path id="0" d="M250 129.1333 C250 129.1333 256.2193 190.6989 258 252.1333 C260.2109 328.408 259.6731 328.8394 258 405.1333 C257.1786 442.587 253 480.1333 253 480.1333 "/>
<path id="1" d="M252 128.1333 C252 128.1333 258.5634 126.2186 265 126.1333 C333.188 125.2302 385.3106 121.2056 403 126.1333 C404.649 126.5927 405 145.7092 405 165.1333 C405 192.0283 403.0854 192.1529 403 219.1333 C402.5858 350.0212 404 481.1333 404 481.1333 "/>
<path id="2" d="M258 207.1333 L409 212.1333 "/>
<path id="3" d="M260 289.1333 L396 289.1333 "/>
<path id="4" d="M259 393.1333 C259 393.1333 276.0484 397.2206 293 398.1333 C340.5407 400.6932 341.007 399.3401 389 400.1333 C401.4939 400.3398 413.9655 400.1366 414 400.1333 C414.0053 400.1328 410 398.1333 410 398.1333 "/>
<path id="5" d="M317 361.1333 C317 361.1333 350.9992 362.1333 351 362.1333 C351.0001 362.1333 346.1721 361.5206 346 361.1333 C345.5965 360.2254 347.1475 353.1807 347 353.1333 C344.2477 352.2487 320.3389 351.6321 318 352.1333 C317.9594 352.142 319 359.1333 319 359.1333 "/>
<path id="6" d="M314 257.1333 C314 257.1333 313.8317 264.0997 314 264.1333 C318.2067 264.9747 345.9061 264.7703 349 264.1333 C349.039 264.1253 348.3872 257.2155 348 257.1333 C343.013 256.0755 316 257.1333 316 257.1333 "/>
<path id="7" d="M314 169.1333 C314 169.1333 313.7527 177.0745 314 177.1333 C319.514 178.4462 352.3156 179.9421 356 179.1333 C356.1254 179.1058 355.5563 168.2863 355 168.1333 C349.6099 166.6511 316 168.1333 316 168.1333 "/>
<path id="8" d="M322 455.1333 C322 455.1333 320.607 467.9586 321 468.1333 C323.2669 469.1408 347.3022 467.5904 349 467.1333 C349.0231 467.1271 348.0077 461.5456 347 461.1333 C342.1982 459.169 327 458.1333 327 458.1333 "/>
</g>
</g>
</svg>
