<?xml version="1.0" encoding="utf-8"?>
<!DOCTYPE svg PUBLIC "-//W3C//DTD SVG 1.1//EN" "http://www.w3.org/Graphics/SVG/1.1/DTD/svg11.dtd">
<svg viewBox="0 0 800 800" preserveAspectRatio="xMinYMin meet" xmlns="http://www.w3.org/2000/svg" version="1.1">
<g fill="none" stroke="black" stroke-linecap="round" stroke-linejoin="round" stroke-width="1.5985">
<g transform="translate(87.52,194.4951) scale(1.8768) translate(-119.5,-124.1667)">
<path id="0" d="M133.5 143.1667 C133.5 143.1667 132.643 149.382 133.5 155.1667 C138.5546 189.2853 142.2895 189.9217 145.5 224.1667 C148.2011 252.9788 146.7268 254.951 145.5 283.1667 C145.2894 288.0114 143.0434 288.276 142.5 293.1667 C141.606 301.2126 141.8955 309.9853 142.5 310.1667 C149.6475 312.3109 173.306 307.4569 202.5 311.1667 C262.6076 318.8047 262.8798 323.5635 323.5 333.1667 C363.7158 339.5375 368.8672 343.1667 404.5 343.1667 C415.4978 343.1667 428.1357 337.2595 429.5 333.1667 C435.0812 316.4231 428.1507 295.1205 432.5 259.1667 C435.5092 234.2903 439.8114 234.1723 444.5 209.1667 C447.2425 194.5402 446.7261 194.1295 447.5 179.1667 C448.2186 165.2732 448.3968 164.9183 447.5 151.1667 C446.9172 142.2302 445.5197 133.4428 444.5 133.1667 C438.8484 131.636 421.9231 137.6061 399.5 138.1667 C302.5898 140.5894 295.8915 144.5653 204.5 139.1667 C184.3943 137.979 177.5132 123.2835 162.5 124.1667 C146.37 125.1155 119.5 144.1667 119.5 144.1667 "/>
<path id="1" d="M139.5 179.1667 C139.5 179.1667 148.7985 177.9908 157.5 179.1667 C185.2246 182.9132 185.7668 185.5176 213.5 189.1667 C223.1773 190.44 223.8767 187.7919 233.5 189.1667 C261.6824 193.1927 262.2566 197.6201 290.5 200.1667 C322.1565 203.0209 323.7632 201.3719 355.5 200.1667 C362.3912 199.905 363.0542 199.5301 369.5 197.1667 C377.5821 194.2032 378.0876 190.0315 385.5 189.1667 C404.7095 186.9256 407.7526 188.7859 429.5 190.1667 C438.9714 190.768 448.5 193.1667 448.5 193.1667 "/>
<path id="2" d="M288.5 200.1667 C288.5 200.1667 294.2851 241.3536 290.5 277.1667 C288.1544 299.3598 275.5 323.1667 275.5 323.1667 "/>
<path id="3" d="M145.5 204.1667 C145.5 204.1667 175.5812 210.0528 205.5 214.1667 C215.3165 215.5164 216.0349 213.4057 225.5 215.1667 C236.8952 217.2867 236.9471 219.9372 248.5 222.1667 C264.997 225.3503 282.5 226.1667 282.5 226.1667 "/>
<path id="4" d="M287.5 227.1667 C287.5 227.1667 308.6424 232.5444 329.5 234.1667 C353.0322 235.997 354.4123 235.8896 377.5 234.1667 C386.8184 233.4713 387.4578 229.4896 396.5 229.1667 C413.8939 228.5455 433.5 232.1667 433.5 232.1667 "/>
<path id="5" d="M432.5 191.1667 C432.5 191.1667 428.6173 199.3452 427.5 207.1667 C426.2299 216.0577 427.5 226.1667 427.5 226.1667 "/>
<path id="6" d="M308.5 205.1667 L310.5 233.1667 "/>
<path id="7" d="M258.5 193.1667 L258.5 219.1667 "/>
<path id="8" d="M160.5 184.1667 L168.5 207.1667 "/>
<path id="9" d="M135.5 154.1667 C135.5 154.1667 141.9181 154.5621 147.5 153.1667 C157.4107 150.689 158.0533 147.8843 167.5 146.1667 C173.1923 145.1317 174.6149 145.6409 180.5 147.1667 C187.4043 148.9567 187.5331 151.7733 194.5 153.1667 C208.9839 156.0635 210.0398 155.8575 225.5 156.1667 C309.6304 157.8493 311.5489 158.0634 394.5 157.1667 C402.3698 157.0816 403.0648 156.4544 410.5 154.1667 C415.5694 152.6068 416.0208 149.4866 420.5 149.1667 C434.2774 148.1826 452.5 151.1667 452.5 151.1667 "/>
<path id="10" d="M194.5 269.1667 C194.5 269.1667 194.2104 260.9368 195.5 254.1667 C196.0579 251.2379 197.2313 249.0125 198.5 248.1667 C199.5875 247.4417 202.945 247.3185 204.5 248.1667 C206.644 249.3361 209.7055 252.9336 209.5 254.1667 C208.7244 258.8205 200.8515 271.7858 200.5 272.1667 C200.4702 272.199 197.5 267.1667 197.5 267.1667 "/>
<path id="11" d="M340.5 268.1667 C340.5 268.1667 342.2626 275.5309 344.5 279.1667 C345.2415 280.3717 347.4762 279.9722 348.5 281.1667 C349.7663 282.644 349.6444 285.4537 350.5 286.1667 C351.055 286.6291 354.0142 286.6524 354.5 286.1667 C355.7144 284.9523 357.5 281.9896 357.5 279.1667 C357.5 274.3274 356.3204 271.4142 354.5 267.1667 C354.0498 266.1162 352.4768 265.1667 351.5 265.1667 C349.5464 265.1667 347.6282 267.4504 345.5 267.1667 C341.9613 266.6948 336.5 263.1667 336.5 263.1667 "/>
<path id="12" d="M348.5 212.1667 C348.5 212.1667 351.4198 222.2464 353.5 224.1667 C354.5351 225.1222 358.5393 225.1536 361.5 224.1667 C364.7074 223.0975 368.2664 220.0232 368.5 219.1667 C368.666 218.5581 366.3494 214.0297 364.5 213.1667 C361.3814 211.7113 353.5 212.1667 353.5 212.1667 "/>
<path id="13" d="M201.5 194.1667 C201.5 194.1667 203.6156 201.0361 205.5 202.1667 C207.9839 203.657 215.4677 203.4482 216.5 203.1667 C216.605 203.138 217.1725 200.1754 216.5 199.1667 C214.2583 195.8041 211.5004 192.6669 208.5 191.1667 C207.1248 190.4791 202.5 192.1667 202.5 192.1667 "/>
</g>
</g>
</svg>
