<?xml version="1.0" encoding="utf-8"?>
<!DOCTYPE svg PUBLIC "-//W3C//DTD SVG 1.1//EN" "http://www.w3.org/Graphics/SVG/1.1/DTD/svg11.dtd">
<svg viewBox="0 0 800 800" preserveAspectRatio="xMinYMin meet" xmlns="http://www.w3.org/2000/svg" version="1.1">
<g fill="none" stroke="black" stroke-linecap="round" stroke-linejoin="round" stroke-width="1.0513">
<g transform="translate(87.52,94.6542) scale(2.8537) translate(-147,-152.4167)">
<path id="0" d="M150 157.4167 C150 157.4167 148.1365 199.7988 150 241.4167 C151.1152 266.3223 154.5071 266.4637 156 291.4167 C157.988 324.645 152.7726 355.2343 157 358.4167 C164.2322 363.8611 202.8756 357.1271 245 358.4167 C249.8308 358.5646 254.9942 361.4385 255 361.4167 C255.6406 358.9824 256.3891 340.2117 255 320.4167 C254.4484 312.5563 251.2462 312.233 251 304.4167 C249.3055 250.6148 252.1283 248.7021 251 193.4167 C250.6335 175.4558 251.6389 162.079 248 157.4167 C245.3773 154.0564 233.395 153.5776 219 152.4167 C202.8441 151.1138 201.968 150.6424 186 152.4167 C166.6986 154.5613 147 160.4167 147 160.4167 "/>
<path id="1" d="M252 157.4167 C252 157.4167 298.415 158.6785 343 157.4167 C350.3908 157.2075 357.4325 153.7357 358 154.4167 C359.8616 156.6506 362.5611 168.075 363 181.4167 C365.0195 242.8097 361.6792 247.8625 363 306.4167 C363.0852 310.1958 366.1717 311.6697 366 314.4167 C365.8187 317.3175 362.0069 322.4064 362 322.4167 C361.9987 322.4186 362.0306 320.432 362 320.4167 C361.9542 320.3938 360.0063 321.1508 360 321.4167 C359.7524 331.8157 363.2984 360.6045 361 362.4167 C357.1115 365.4826 333.9101 360.9969 308 362.4167 C298.1155 362.9583 297.8921 365.7785 288 366.4167 C267.4912 367.7398 251.2381 366.6661 246 366.4167 C245.9881 366.4161 246 364.4167 246 364.4167 "/>
<path id="2" d="M268 238.4167 C268 238.4167 267.5047 274.34 268 279.4167 C268.0047 279.465 271.9591 279.5763 272 279.4167 C273.6181 273.1061 275.3053 259.7283 278 240.4167 C278.2706 238.4776 278.2439 236.6118 278 236.4167 C277.6189 236.1118 273 236.4167 273 236.4167 "/>
<path id="3" d="M231 235.4167 C231 235.4167 222.157 235.8935 222 236.4167 C220.7698 240.5174 220.505 251.6624 222 265.4167 C222.9044 273.7373 226.2523 281.1706 227 282.4167 C227.015 282.4416 230.8001 281.1662 231 280.4167 C231.8473 277.2392 230.5235 270.752 231 267.4167 C231.0471 267.0868 232.9796 266.7132 233 266.4167 C233.5032 259.1209 233 238.4167 233 238.4167 "/>
<path id="4" d="M246 163.4167 C246 163.4167 208.939 161.5946 174 162.4167 C167.6552 162.566 161.3787 164.249 161 165.4167 C159.2327 170.8659 160.5789 182.567 162 199.4167 C164.064 223.89 166.7954 223.9799 168 248.4167 C170.2738 294.5429 167.2648 297.17 169 341.4167 C169.17 345.7528 169.8625 346.8542 172 350.4167 C173.9 353.5833 175.3932 355.6346 178 356.4167 C182.6788 357.8203 185.3494 357.4398 192 356.4167 C204.3146 354.5221 204.6705 351.8125 217 350.4167 C230.4438 348.8947 231.3785 349.4437 245 350.4167 C251.915 350.9106 259 353.4167 259 353.4167 "/>
<path id="5" d="M251 166.4167 C251 166.4167 261.0745 164.9967 270 166.4167 C282.2672 168.3683 282.7305 171.9359 295 173.4167 C310.6664 175.3074 312.7014 172.6115 328 173.4167 C330.3668 173.5412 330.6088 175.1889 333 175.4167 C340.3712 176.1187 344.2965 176.2006 349 175.4167 C349.7349 175.2942 349.9912 172.837 351 172.4167 C354.3626 171.0156 360.9698 170.3297 361 170.4167 C361.4973 171.8464 359 195.4167 359 195.4167 "/>
<path id="6" d="M354 169.4167 C354 169.4167 357.5075 183.5044 358 197.4167 C359.4875 239.4379 358.3057 239.9262 358 282.4167 C357.8058 309.4142 358.9678 311.6226 357 336.4167 C356.661 340.6885 355.651 342.9216 353 345.4167 C348.836 349.3358 346.0417 351.8783 340 352.4167 C300.8955 355.9012 252 354.4167 252 354.4167 "/>
</g>
</g>
</svg>
