<?xml version="1.0" encoding="utf-8"?>
<!DOCTYPE svg PUBLIC "-//W3C//DTD SVG 1.1//EN" "http://www.w3.org/Graphics/SVG/1.1/DTD/svg11.dtd">
<svg viewBox="0 0 800 800" preserveAspectRatio="xMinYMin meet" xmlns="http://www.w3.org/2000/svg" version="1.1">
<g fill="none" stroke="black" stroke-linecap="round" stroke-linejoin="round" stroke-width="1.6945">
<g transform="translate(213.2202,87.52) scale(1.7704) translate(-172,-100.4167)">
<path id="0" d="M173 105.4167 L173 191.4167 "/>
<path id="1" d="M172 101.4167 C172 101.4167 197.3826 99.89 203 100.4167 C203.2499 100.4401 203.796 104.4115 204 104.4167 C218.436 104.7821 276.6765 99.2809 282 102.4167 C283.4903 103.2945 277.9726 125.0463 277 147.4167 C275.99 170.6474 279.8864 193.0018 278 194.4167 C275.4113 196.3582 251.1508 188.0016 225 186.4167 C202.5681 185.0572 179 188.4167 179 188.4167 "/>
<path id="2" d="M233 150.4167 L230 220.4167 "/>
<path id="3" d="M233 146.4167 C233 146.4167 264.5889 147.271 295 145.4167 C304.9199 144.8118 305.1114 142.007 315 141.4167 C337.964 140.0457 358.9587 139.4363 362 141.4167 C362.921 142.0164 358.9775 155.4867 358 169.4167 C356.9976 183.701 357.1031 184.0664 358 198.4167 C359.0902 215.8597 363.1643 232.7342 362 233.4167 C357.6711 235.9543 330.7293 234.2422 300 232.4167 C280.5417 231.2607 280.206 228.2517 261 227.4167 C246.3506 226.7797 233.6716 230.5744 231 229.4167 C230.4039 229.1584 231 214.4167 231 214.4167 "/>
<path id="4" d="M277 103.4167 C277 103.4167 314.3851 122.0559 352 139.4167 C359.7062 142.9734 360.0199 142.8775 368 145.4167 C370.8153 146.3125 373.8291 146.485 374 146.4167 C374.0061 146.4142 373 143.4167 373 143.4167 "/>
<path id="5" d="M174 105.4167 C174 105.4167 175.9974 110.4984 179 112.4167 C192.067 120.765 196.4508 120.4466 210 128.4167 C211.7947 129.4724 211.255 131.4771 213 132.4167 C222.6105 137.5915 226.316 137.0367 236 142.4167 C238.2985 143.6936 240 147.4167 240 147.4167 "/>
<path id="6" d="M176 191.4167 C176 191.4167 177.1699 194.7526 178 195.4167 C178.4789 195.7998 181.0007 195.4162 181 195.4167 C180.9983 195.4178 175.2251 197.1352 175 197.4167 C174.9536 197.4746 175.98 199.8338 177 200.4167 C178.53 201.2909 180.2461 200.2474 182 201.4167 C190.9756 207.4004 191.2516 210.3239 201 216.4167 C206.5398 219.8791 208.3517 218.0695 214 221.4167 C221.2602 225.719 228 232.4167 228 232.4167 "/>
<path id="7" d="M279 198.4167 C279 198.4167 313.2293 206.1619 343 217.4167 C352.4254 220.9799 361 229.4167 361 229.4167 "/>
<path id="8" d="M176 192.4167 L183 342.4167 "/>
<path id="9" d="M364 232.4167 C364 232.4167 361.3496 257.1365 362 281.4167 C362.8389 312.7346 367 344.4167 367 344.4167 "/>
<path id="10" d="M230 225.4167 C230 225.4167 233.7753 258.0647 234 290.4167 C234.2729 329.7096 231 369.4167 231 369.4167 "/>
<path id="11" d="M183 338.4167 C183 338.4167 180.5659 352.4587 180 366.4167 C179.0744 389.2484 180 412.4167 180 412.4167 "/>
<path id="12" d="M233 334.4167 L234 409.4167 "/>
<path id="13" d="M370 342.4167 L372 409.4167 "/>
<path id="14" d="M179 293.4167 C179 293.4167 184.487 297.8661 190 299.4167 C199.4916 302.0862 201.1157 299.7648 211 302.4167 C221.039 305.1101 231 310.4167 231 310.4167 "/>
<path id="15" d="M237 312.4167 C237 312.4167 259.0284 314.9248 281 315.4167 C325.8733 316.4213 371 315.4167 371 315.4167 "/>
<path id="16" d="M183 361.4167 C183 361.4167 184.78 364.3425 187 365.4167 C199.0892 371.2663 201.422 369.9743 214 376.4167 C221.3701 380.1916 228 386.4167 228 386.4167 "/>
<path id="17" d="M238 390.4167 C238 390.4167 242.1843 393.2047 246 393.4167 C267.4925 394.6107 269.3616 392.3555 292 393.4167 C300.9277 393.8352 301.1555 396.3088 310 396.4167 C341.3712 396.7992 374 394.4167 374 394.4167 "/>
<path id="18" d="M235 404.4167 L237 445.4167 "/>
<path id="19" d="M375 399.4167 L375 442.4167 "/>
<path id="20" d="M181 412.4167 L180 421.4167 "/>
<path id="21" d="M178 420.4167 C178 420.4167 180.0494 425.7084 183 427.4167 C196.5863 435.2824 199.4942 436.0953 216 442.4167 C222.4537 444.8883 224.7548 442.7941 230 445.4167 C234.0608 447.4471 238 453.4167 238 453.4167 "/>
<path id="22" d="M238 452.4167 C238 452.4167 265.7263 446.981 293 446.4167 C337.4986 445.496 372.5104 449.7663 383 449.4167 C383.0233 449.4159 383 443.4167 383 443.4167 "/>
<path id="23" d="M270 179.4167 C270 179.4167 272.9762 180.2222 274 181.4167 C275.2663 182.894 274.6886 185.251 276 186.4167 C277.9671 188.1652 282.9809 189.4484 283 189.4167 C283.197 189.0883 282.5988 176.8773 282 176.4167 C281.4724 176.0108 271.6515 178.0405 270 179.4167 C269.3356 179.9703 269.5016 185.0877 270 186.4167 C270.1513 186.8201 272.8597 187.4634 273 187.4167 C273.0351 187.405 273.1154 185.4936 273 185.4167 C272.7404 185.2436 269.998 185.4046 270 185.4167 C270.0268 185.5774 271.6974 189.6454 274 191.4167 C277.2278 193.8996 279.235 194.5478 283 195.4167 C284.4301 195.7467 286.6734 194.9066 287 194.4167 C287.4454 193.7486 287.6018 190.1045 287 189.4167 C285.9017 188.1615 280.3744 186.2763 280 186.4167 C279.7929 186.4943 279.0036 192.4185 279 192.4167 C278.9874 192.4104 278.2069 187.1329 276 184.4167 C272.5905 180.2204 266.0965 176.4059 266 176.4167 C266 176.4167 265.9172 184.5504 267 185.4167 C269.1656 187.1491 280.0509 188.6878 281 188.4167 C281.1444 188.3754 281.0544 181.4493 281 181.4167 C280.9663 181.3965 276.327 184.2177 276 185.4167 C275.6065 186.8596 278 192.4167 278 192.4167 "/>
<path id="24" d="M286 268.4167 C286 268.4167 285.8606 278.2216 286 278.4167 C286.008 278.4278 290.5476 276.4346 291 275.4167 C291.4813 274.3338 290.1521 269.5688 290 269.4167 C289.9783 269.3949 287.3006 270.5147 287 271.4167 C285.9645 274.5233 285.7294 280.5146 286 281.4167 C286.0335 281.5283 289.8546 281.6784 290 281.4167 C290.6253 280.2912 291 272.4167 291 272.4167 C291 272.4166 290.64 278.1467 291 278.4167 C291.64 278.8967 298.1233 278.7454 299 278.4167 C299.1233 278.3704 299.4197 275.8364 299 275.4167 C297.4611 273.8777 295.2845 272.3551 292 271.4167 C289.1765 270.6099 285.1052 271.1538 285 271.4167 C284.4516 272.7876 284.7854 284.4733 286 286.4167 C286.515 287.2407 292.7274 287.8299 295 287.4167 C295.656 287.2974 296.7257 285.7883 297 284.4167 C297.5648 281.5928 297.819 279.6688 297 277.4167 C296.3619 275.6618 293 273.4167 293 273.4167 "/>
<path id="25" d="M296 373.4167 C296 373.4167 296 370.4167 296 370.4167 C295.9997 370.4167 294.9656 373.396 295 373.4167 C295.2578 373.5714 300.2352 374.0965 301 373.4167 C302.2889 372.271 303.7882 368.8054 304 365.4167 C304.2037 362.1572 303.1645 359.1634 302 357.4167 C301.5425 356.7305 298.0632 356.3155 298 356.4167 C297.5944 357.0656 296.366 362.6695 297 365.4167 C297.3559 366.9589 299.0676 368.6115 301 369.4167 C303.8702 370.6126 307.6745 370.7112 309 370.4167 C309.284 370.3536 309.8964 368.8672 310 367.4167 C310.3711 362.2218 311.0261 360.521 310 356.4167 C309.4403 354.178 307.7153 352.1964 306 351.4167 C304.0858 350.5466 299.7593 350.8472 299 351.4167 C298.4034 351.8641 298 357.4167 298 357.4167 "/>
</g>
</g>
</svg>
