<?xml version="1.0" encoding="utf-8"?>
<!DOCTYPE svg PUBLIC "-//W3C//DTD SVG 1.1//EN" "http://www.w3.org/Graphics/SVG/1.1/DTD/svg11.dtd">
<svg viewBox="0 0 800 800" preserveAspectRatio="xMinYMin meet" xmlns="http://www.w3.org/2000/svg" version="1.1">
<g fill="none" stroke="black" stroke-linecap="round" stroke-linejoin="round" stroke-width="2.1793">
<g transform="translate(87.52,188.6974) scale(1.3766) translate(-118,-22.4167)">
<path id="0" d="M127 60.4167 C127 60.4167 121.535 81.0885 121 101.4167 C119.0637 174.996 120.17 176.1177 122 250.4167 C122.6643 277.3885 121.6432 282.6325 126 304.4167 C127.0177 309.505 130.0941 312.3716 135 315.4167 C142.5459 320.1003 145.0889 320.9592 155 322.4167 C177.8301 325.774 179.9308 326.3155 203 325.4167 C217.0843 324.8679 217.6189 320.4653 232 319.4167 C264.7671 317.0274 265.745 320.0794 299 318.4167 C315.4663 317.5934 315.6505 314.7341 332 314.4167 C366.5801 313.7452 372.3137 316.8125 402 316.4167 C404.1382 316.3882 406.3487 314.9798 407 313.4167 C409.9575 306.3187 411.397 302.7686 412 292.4167 C414.3241 252.5196 410.7226 251.2036 413 210.4167 C416.2073 152.9769 419.7792 152.6746 423 95.4167 C424.2526 73.1483 425.6502 70.6334 422 50.4167 C419.6436 37.3656 415.3627 27.4749 410 23.4167 C405.7411 20.1937 396.5732 20.97 385 22.4167 C373.892 23.8052 373.5955 27.0613 362 29.4167 C341.9545 33.4884 341.2698 35.1476 321 35.4167 C229.7359 36.6281 200.2257 28.5438 136 32.4167 C130.8206 32.729 124.9991 40.0857 122 47.4167 C117.5672 58.2524 118 76.4167 118 76.4167 "/>
<path id="1" d="M281 33.4167 C281 33.4167 281.5207 126.486 278 218.4167 C277.0447 243.3615 273.7131 243.4546 272 268.4167 C270.2306 294.1991 271 320.4167 271 320.4167 "/>
<path id="2" d="M246 171.4167 C246 171.4167 242.6493 174.6573 242 177.4167 C240.9711 181.7896 240.8362 184.4599 242 188.4167 C242.7904 191.1039 245.9075 194.2486 247 194.4167 C248.3621 194.6262 253.8722 192.1083 255 190.4167 C255.9667 188.9667 256.0534 185.4013 255 182.4167 C253.5361 178.2689 249 173.4167 249 173.4167 "/>
<path id="3" d="M411 24.4167 C411 24.4167 416.577 22.484 422 22.4167 C495.7837 21.5001 553.2533 22.1667 572 22.4167 C572.0033 22.4167 572.0335 23.4184 572 24.4167 C569.0352 112.867 569.6171 112.9986 566 201.4167 C565.12 222.9282 565.8031 223.2658 563 244.4167 C560.3478 264.4284 557.1059 264.5275 555 284.4167 C552.6745 306.3795 556.391 327.5413 554 329.4167 C550.9644 331.7976 528.8908 325.29 504 324.4167 C472.2686 323.3033 467.7532 328.9257 440 325.4167 C429.3472 324.0698 428.5491 318.2288 417 313.4167 C411.1224 310.9677 404 310.4167 404 310.4167 "/>
<path id="4" d="M284 120.4167 C284 120.4167 301.7094 119.7612 319 121.4167 C348.4449 124.2359 348.6377 127.0677 378 129.4167 C398.1853 131.0315 400.6434 130.2325 419 129.4167 C420.8307 129.3353 423.0207 127.4312 423 127.4167 C422.8606 127.3191 415.9998 123.6611 409 122.4167 C394.1751 119.7811 393.0395 121.8093 378 119.4167 C371.4847 118.3801 371.2063 115.5433 365 115.4167 C324.6927 114.5941 280 117.4167 280 117.4167 "/>
<path id="5" d="M278 212.4167 C278 212.4167 336.1317 211.1174 392 212.4167 C399.3853 212.5884 402.1144 213.1024 407 215.4167 C409.0357 216.3809 411.1455 221.0529 411 221.4167 C410.7619 222.012 406.7156 225.2181 403 225.4167 C347.2862 228.3937 280 228.4167 280 228.4167 "/>
<path id="6" d="M289 318.4167 C289 318.4167 290.0405 307.5614 289 297.4167 C288.0878 288.523 284.7022 279.5497 285 279.4167 C288.8552 277.6941 331.8001 274.1108 336 276.4167 C337.4484 277.2119 336 307.4167 336 307.4167 "/>
<path id="7" d="M335 276.4167 C335 276.4167 334.952 281.782 334 282.4167 C330.0015 285.0823 324.8108 287.8717 317 288.4167 C305.4351 289.2235 291 285.4167 291 285.4167 "/>
<path id="8" d="M353 276.4167 C353 276.4167 352.1675 288.2542 354 297.4167 C354.8644 301.7386 357.9411 302.1811 359 306.4167 C360.1364 310.9622 359 317.4167 359 317.4167 "/>
<path id="9" d="M351 271.4167 C351 271.4167 353.0495 273.9291 355 274.4167 C361.7754 276.1105 363.0353 276.1103 371 276.4167 C388.8349 277.1026 405.2595 276.1607 407 276.4167 C407.0611 276.4257 405.0702 279.0999 405 281.4167 C404.612 294.2214 406 309.4167 406 309.4167 "/>
<path id="10" d="M356 280.4167 C356 280.4167 355.4361 284.4299 356 285.4167 C356.4833 286.2625 357.9805 286.9777 360 287.4167 C368.949 289.3621 371.1855 291.3098 379 290.4167 C386.0367 289.6125 388.4327 287.2188 395 283.4167 C396.7409 282.4088 398 279.4167 398 279.4167 "/>
<path id="11" d="M290 171.4167 C290 171.4167 291.3978 182.1038 295 190.4167 C297.462 196.0982 298.4171 196.8338 303 201.4167 C309.5125 207.9292 310.9091 211.1605 318 213.4167 C329.1673 216.9699 334.412 217.4397 347 215.4167 C359.6272 213.3873 362.321 210.905 374 204.4167 C378.9381 201.6733 379.7943 200.2252 383 195.4167 C386.277 190.5012 387.05 189.2752 388 183.4167 C389.866 171.9096 389.1271 158.4369 389 158.4167 C387.2009 158.1305 365.7194 171.8707 344 176.4167 C325.7399 180.2385 322.1709 177.8914 303 176.4167 C297.7127 176.01 291.9728 172.4252 292 172.4167 C292.2421 172.3406 333.2897 162.3587 373 154.4167 C377.2245 153.5718 378.8712 153.1999 382 154.4167 C386.0752 156.0015 391 161.4167 391 161.4167 "/>
<path id="12" d="M299 121.4167 C299 121.4167 294.7754 77.5396 297 66.4167 C297.3178 64.8277 304.4938 61.6335 311 61.4167 C332.0801 60.714 353.6322 62.8129 357 64.4167 C357.2908 64.5551 353.6983 73.0371 353 81.4167 C351.7511 96.4033 353 112.4167 353 112.4167 "/>
<path id="13" d="M378 115.4167 C378 115.4167 377.2899 100.3925 375 87.4167 C374.4759 84.4469 372.2798 84.2149 372 81.4167 C370.934 70.7567 373.2815 68.9502 372 57.4167 C370.849 47.0579 366.2377 37.5125 367 36.4167 C367.7226 35.378 384.0165 33.0378 388 34.4167 C389.7277 35.0147 392.2317 40.0388 393 45.4167 C395.9794 66.2722 393.6217 68.1202 396 90.4167 C397.6023 105.4384 401 120.4167 401 120.4167 "/>
<path id="14" d="M392 39.4167 C392 39.4167 390.9688 41.4155 391 41.4167 C391.9099 41.4517 418 40.4167 418 40.4167 "/>
</g>
</g>
</svg>
