<?xml version="1.0" encoding="utf-8"?>
<!DOCTYPE svg PUBLIC "-//W3C//DTD SVG 1.1//EN" "http://www.w3.org/Graphics/SVG/1.1/DTD/svg11.dtd">
<svg viewBox="0 0 800 800" preserveAspectRatio="xMinYMin meet" xmlns="http://www.w3.org/2000/svg" version="1.1">
<g fill="none" stroke="black" stroke-linecap="round" stroke-linejoin="round" stroke-width="2.7938">
<g transform="translate(87.52,272.753) scale(1.0738) translate(-22,-105.5833)">
<path id="0" d="M40 105.5833 C40 105.5833 41.8932 146.583 40 185.5833 C39.45 196.9143 35.8476 197.2252 35 208.5833 C33.4044 229.965 36.4969 231.0285 35 252.5833 C34.0356 266.4701 31.244 266.5884 30 280.5833 C27.2768 311.219 27.6851 334.0881 27 342.5833 C26.9982 342.6053 25 342.5833 25 342.5833 "/>
<path id="1" d="M35 111.5833 C35 111.5833 51.1311 110.0166 67 110.5833 C92.8867 111.5079 93.0688 114.0612 119 114.5833 C167.2868 115.5555 168.7717 111.6942 216 113.5833 C229.7554 114.1335 229.9692 117.5466 244 119.5833 C260.7351 122.0126 261.0299 122.191 278 122.5833 C347.2479 124.1844 347.9765 121.0537 417 123.5833 C442.9241 124.5334 443.0904 127.7326 469 129.5833 C484.814 130.7129 485.5223 131.4481 501 129.5833 C526.2504 126.5411 528.1186 120.3883 552 119.5833 C569.5674 118.9912 571.8249 124.8357 590 126.5833 C596.4892 127.2073 604 124.5833 604 124.5833 "/>
<path id="2" d="M604 125.5833 C604 125.5833 605.3286 221.6555 604 303.5833 C603.9474 306.8276 601.4774 307.1458 601 310.5833 C599.1153 324.1531 599 339.5833 599 339.5833 "/>
<path id="3" d="M599 342.5833 C599 342.5833 578.6482 343.967 559 342.5833 C543.5997 341.4988 543.3316 338.3903 528 337.5833 C505.9576 336.4232 505.1766 339.4704 483 338.5833 C468.1235 337.9883 467.9091 334.9584 453 334.5833 C389.105 332.9759 388.1758 332.4236 324 334.5833 C284.5813 335.9099 284.2638 340.6372 245 341.5833 C201.8881 342.6222 200.3007 341.4863 158 338.5833 C150.5908 338.0749 150.2829 334.9415 143 334.5833 C120.9785 333.5003 113.4112 336.2532 97 335.5833 C95.885 335.5378 95.2599 332.737 94 332.5833 C79.6846 330.8376 74.5553 329.8102 56 330.5833 C39.2594 331.2809 22 335.5833 22 335.5833 "/>
<path id="4" d="M228 115.5833 C228 115.5833 224.8726 133.586 224 151.5833 C220.8853 215.8246 224.0538 217.3448 220 280.5833 C219.1412 293.9812 215.894 294.0884 214 307.5833 C211.9401 322.2603 211.9553 337.1961 212 337.5833 C212.0051 337.6279 217 333.5833 217 333.5833 "/>
<path id="5" d="M432 124.5833 C432 124.5833 426.1458 152.1645 424 179.5833 C421.6824 209.1967 424.8559 209.8885 423 239.5833 C421.8779 257.5362 419.2107 257.625 418 275.5833 C416.2319 301.8101 418.9599 303.8881 417 328.5833 C416.619 333.3835 413 338.5833 413 338.5833 "/>
<path id="6" d="M68 132.5833 C68 132.5833 70.7544 143.1534 70 152.5833 C68.841 167.0704 65.3927 167.728 64 182.5833 C62.4507 199.1096 65.5497 199.9246 64 216.5833 C61.596 242.426 58.5645 242.6536 56 268.5833 C54.1007 287.7878 55 307.5833 55 307.5833 "/>
<path id="7" d="M57 310.5833 C57 310.5833 78.6194 310.158 100 311.5833 C130.9788 313.6486 131.4455 316.1455 162 317.5833 C173.2372 318.1121 185 315.5833 185 315.5833 "/>
<path id="8" d="M185 312.5833 C185 312.5833 187.682 306.0061 188 299.5833 C190.1304 256.5486 190.3067 255.4432 190 211.5833 C189.8082 184.1561 187 182.873 187 156.5833 C187 150.8474 190 144.5833 190 144.5833 "/>
<path id="9" d="M191 140.5833 C191 140.5833 168.8704 140.3844 147 138.5833 C126.4928 136.8945 126.0341 136.9223 106 133.5833 C99.455 132.4925 99.3567 130.4035 93 129.5833 C84.5345 128.491 75 129.5833 75 129.5833 "/>
<path id="10" d="M177 236.5833 C177 236.5833 175.7283 234.0724 176 233.5833 C177.0373 231.7161 181.9997 227.5833 182 227.5833 C182.0002 227.5833 179.9825 231.8486 178 233.5833 C176.9551 234.4976 174.1076 234.6909 174 234.5833 C173.8207 234.404 173.444 230.3617 174 229.5833 C174.6195 228.716 178.9566 227.5399 179 227.5833 C179.0723 227.6556 178.7624 232.2491 178 233.5833 C177.6851 234.1344 175.0584 234.6418 175 234.5833 C174.8831 234.4664 174.4068 231.5324 175 230.5833 C176.0566 228.8928 179.9985 226.5804 180 226.5833 C180.0065 226.5962 177.0029 234.5814 177 234.5833 C176.9986 234.5843 176.1202 230.6363 177 228.5833 C178.5502 224.9663 181.7209 221.7025 183 220.5833 C183.1107 220.4865 185.0141 221.5383 185 221.5833 C184.3548 223.6478 178.888 235.4289 178 236.5833 C177.9866 236.6008 175.3104 235.4111 175 234.5833 C174.404 232.994 174.3667 231.1166 175 228.5833 C175.7125 225.7334 177.2962 222.9352 178 222.5833 C178.4692 222.3487 182.6216 223.7509 183 224.5833 C183.797 226.3368 183.9401 230.0581 183 233.5833 C182.2619 236.3513 180.3924 238.8871 179 239.5833 C177.906 240.1303 173.2491 239.0317 173 238.5833 C172.5721 237.8131 174 230.5833 174 230.5833 "/>
<path id="11" d="M247 148.5833 C247 148.5833 250.4331 171.6022 252 194.5833 C253.4224 215.4455 254.0066 215.7804 253 236.5833 C251.0244 277.4133 246 318.5833 246 318.5833 "/>
<path id="12" d="M250 320.5833 C250 320.5833 288.2256 323.5833 326 323.5833 C347.3723 323.5833 347.8459 323.0108 369 320.5833 C378.0089 319.5495 387 316.5833 387 316.5833 "/>
<path id="13" d="M391 315.5833 C391 315.5833 392.8742 311.9809 393 308.5833 C393.8361 286.0098 393.5584 285.0358 393 261.5833 C392.5598 243.097 393.0109 242.6811 391 224.5833 C390.0576 216.1017 387.22 215.8336 387 207.5833 C386.2548 179.6366 389 149.5833 389 149.5833 "/>
<path id="14" d="M389 146.5833 C389 146.5833 348.1191 147.1566 308 145.5833 C297.5456 145.1733 297.3879 142.9543 287 142.5833 C269.7923 141.9688 252 143.5833 252 143.5833 "/>
<path id="15" d="M377 232.5833 C377 232.5833 380.0007 232.5829 380 232.5833 C379.9983 232.5844 374 234.5912 374 234.5833 C374 234.5517 379.2923 227.1141 380 226.5833 C380.0295 226.5612 382 227.9582 382 228.5833 C382 232.3338 381.8565 236.0747 380 240.5833 C378.9781 243.0651 376.8821 244.8989 375 245.5833 C373.4441 246.1491 369.0312 244.6924 369 244.5833 C368.9442 244.3882 371.3266 239.6989 373 238.5833 C374.0459 237.8861 377.6189 238.2785 378 238.5833 C378.2439 238.7785 378.4834 241.6165 378 242.5833 C377.577 243.4293 375.0302 244.6135 375 244.5833 C374.7281 244.3115 372.3788 238.8258 373 237.5833 C374.4496 234.6842 382.9323 228.5683 383 228.5833 C383.0122 228.586 383.5951 237.0312 382 239.5833 C380.5422 241.9159 373.3368 244.7364 373 244.5833 C372.6723 244.4344 370.5578 235.91 371 234.5833 C371.1895 234.0148 376.9872 232.5748 377 232.5833 C377.0009 232.5839 374 236.5833 374 236.5833 "/>
<path id="16" d="M446 148.5833 C446 148.5833 447.2815 192.4403 451 234.5833 C451.7035 242.5559 454.1705 242.7034 455 250.5833 C456.1113 261.1404 455.9172 261.7599 455 272.5833 C453.4397 290.9948 452.1364 291.2099 450 309.5833 C449.6589 312.5167 450 315.5833 450 315.5833 C450.0007 315.5833 452 309.5833 452 309.5833 "/>
<path id="17" d="M446 141.5833 C446 141.5833 450.2805 144.5252 454 144.5833 C479.8701 144.9875 482.3205 141.5105 510 142.5833 C546.2665 143.989 583 149.5833 583 149.5833 "/>
<path id="18" d="M582 152.5833 C582 152.5833 579.5565 159.6267 579 166.5833 C577.5899 184.2095 578 184.5985 578 202.5833 C578 240.0517 577.4225 240.5126 579 277.5833 C579.4021 287.0323 582.2133 287.6243 582 296.5833 C581.7397 307.5145 578 319.5833 578 319.5833 "/>
<path id="19" d="M579 321.5833 C579 321.5833 562.2975 322.7615 546 321.5833 C521.0926 319.7828 520.163 319.3328 496 315.5833 C491.9837 314.9601 491.6467 312.5833 488 312.5833 C468.3992 312.5833 466.4604 314.2957 445 315.5833 C441.521 315.7921 438.7392 315.9001 438 315.5833 C437.8642 315.5251 438 312.5833 438 312.5833 "/>
<path id="20" d="M464 230.5833 C464 230.5833 465.9251 229.5084 466 229.5833 C466.9739 230.5572 469.5807 233.8932 471 237.5833 C471.7151 239.4427 471.5988 240.9865 471 242.5833 C470.506 243.9007 468 245.5834 468 245.5833 C468.0001 245.5832 476.9475 233.6358 477 233.5833 C477.0075 233.5758 477.4532 236.1301 477 236.5833 C474.734 238.8494 470.7723 241.7303 468 242.5833 C467.1349 242.8495 464.4189 241.4211 464 240.5833 C463.3717 239.3267 463.2874 236.1866 464 234.5833 C464.5674 233.3066 467.7662 231.5833 468 231.5833 C468.0584 231.5833 469.0584 234.5249 469 234.5833 C468.8831 234.7002 465.1951 234.8272 465 234.5833 C464.6951 234.2022 464.7243 230.0429 465 229.5833 C465.0993 229.4179 467.5842 229.2715 468 229.5833 C468.4504 229.9212 469.1375 231.483 469 232.5833 C468.7488 234.5926 467.0049 237.5846 467 237.5833 C466.9769 237.5776 464.7181 232.993 465 231.5833 C465.2417 230.375 467.7361 228.125 469 227.5833 C469.5687 227.3396 471.9731 228.4217 472 228.5833 C472.0838 229.0862 471.0998 232.4835 470 233.5833 C469.2144 234.3689 467.322 234.7722 466 234.5833 C464.8739 234.4225 463.1799 233.2128 463 232.5833 C462.7032 231.5447 463.4635 228.1198 464 227.5833 C464.3577 227.2257 467.5669 227.1502 468 227.5833 C468.8662 228.4496 470.4339 232.173 470 233.5833 C469.2871 235.9003 464.5052 240.3307 464 240.5833 C463.9734 240.5966 462 237.5833 462 237.5833 "/>
</g>
</g>
</svg>
