<?xml version="1.0" encoding="utf-8"?>
<!DOCTYPE svg PUBLIC "-//W3C//DTD SVG 1.1//EN" "http://www.w3.org/Graphics/SVG/1.1/DTD/svg11.dtd">
<svg viewBox="0 0 800 800" preserveAspectRatio="xMinYMin meet" xmlns="http://www.w3.org/2000/svg" version="1.1">
<g fill="none" stroke="black" stroke-linecap="round" stroke-linejoin="round" stroke-width="0.85925">
<g transform="translate(195.7533,87.52) scale(3.4914) translate(-191,-143)">
<path id="0" d="M191 311 C191 311 191.3113 306.9083 193 304 C199.8882 292.1369 202.2543 292.2065 209 280 C212.4431 273.7696 214 266 214 266 "/>
<path id="1" d="M192 311 C192 311 195.8724 316.6104 200 319 C204.162 321.4096 209.8755 322.8032 211 322 C213.9021 319.9271 215.6476 311.8502 221 304 C222.5979 301.6565 224.9126 302.1748 226 300 C229.0949 293.8101 227.5486 290.9029 231 284 C233.6119 278.7762 239 274 239 274 "/>
<path id="2" d="M214 263 L203 249 "/>
<path id="3" d="M241 274 C241 274 244.5585 276.4015 248 277 C255.4003 278.287 264 278 264 278 "/>
<path id="4" d="M206 247 C206 247 214.8315 247.2584 221 250 C227.0426 252.6856 226.8726 256.549 233 259 C242.8196 262.9278 249.4007 259.9553 256 264 C260.1981 266.573 264 278 264 278 "/>
<path id="5" d="M227 250 C227 250 234.1259 238.4287 243 229 C257.7949 213.2804 262.7614 214.9634 275 199 C284.1416 187.0762 284.2524 183.5592 289 169 C291.2424 162.1233 290 153 290 153 "/>
<path id="6" d="M246 258 C246 258 251.9467 253.4044 256 248 C260.6324 241.8235 258.9069 239.2346 264 234 C275.747 221.9267 280.0305 223.5136 292 211 C301.2097 201.3717 304.8087 198.5711 308 188 C311.4401 176.6047 311.2785 167.8355 308 158 C305.8143 151.443 299.0236 147.7555 293 143 C292.1024 142.2913 289.069 142.8276 289 143 C288.569 144.0776 289 153 289 153 "/>
</g>
</g>
</svg>
