<?xml version="1.0" encoding="utf-8"?>
<!DOCTYPE svg PUBLIC "-//W3C//DTD SVG 1.1//EN" "http://www.w3.org/Graphics/SVG/1.1/DTD/svg11.dtd">
<svg viewBox="0 0 800 800" preserveAspectRatio="xMinYMin meet" xmlns="http://www.w3.org/2000/svg" version="1.1">
<g fill="none" stroke="black" stroke-linecap="round" stroke-linejoin="round" stroke-width="1.7809">
<g transform="translate(87.52,369.6785) scale(1.6845) translate(-101,-256.1333)">
<path id="0" d="M102 272.1333 C102 272.1333 170.9993 267.7101 240 265.1333 C291.4404 263.2123 343 263.1333 343 263.1333 "/>
<path id="1" d="M101 273.1333 C101 273.1333 107.0705 273.6022 108 274.1333 C108.2105 274.2536 107.6882 276.7175 108 277.1333 C108.3378 277.5838 109.4842 277.8807 111 278.1333 C121.2914 279.8486 122.771 278.7406 132 281.1333 C134.9822 281.9065 135.0398 284.4188 138 285.1333 C148.0821 287.5669 149.6098 288.0643 161 288.1333 C231.2606 288.5592 232.5225 288.859 303 286.1333 C322.4419 285.3814 342 281.1333 342 281.1333 "/>
<path id="2" d="M343 259.1333 L343 291.1333 "/>
<path id="3" d="M345 257.1333 C345 257.1333 459.9306 253.4113 471 256.1333 C471.3189 256.2118 467 287.1333 467 287.1333 "/>
<path id="4" d="M345 292.1333 L472 288.1333 "/>
</g>
</g>
</svg>
