<?xml version="1.0" encoding="utf-8"?>
<!DOCTYPE svg PUBLIC "-//W3C//DTD SVG 1.1//EN" "http://www.w3.org/Graphics/SVG/1.1/DTD/svg11.dtd">
<svg viewBox="0 0 800 800" preserveAspectRatio="xMinYMin meet" xmlns="http://www.w3.org/2000/svg" version="1.1">
<g fill="none" stroke="black" stroke-linecap="round" stroke-linejoin="round" stroke-width="1.8337">
<g transform="translate(87.52,353.3734) scale(1.636) translate(-136,-154.1333)">
<path id="0" d="M273 158.1333 C273 158.1333 357.3775 160.1333 430 160.1333 C432.3128 160.1333 432.6492 158.2057 435 158.1333 C462.8663 157.2759 465.3142 159.2194 495 158.1333 C505.9391 157.7331 517 155.1333 517 155.1333 "/>
<path id="1" d="M275 184.1333 C275 184.1333 383.4102 185.486 479 184.1333 C482.7685 184.08 484.8076 183.1431 487 181.1333 C489.3114 179.0145 488.5682 176.0515 491 173.1333 C492.9311 170.816 495.606 171.3638 497 169.1333 C499.6082 164.9602 498.5341 160.8321 501 157.1333 C502.1769 155.368 507 154.1333 507 154.1333 "/>
<path id="2" d="M518 154.1333 C518 154.1333 514.8509 156.5806 514 159.1333 C511.2682 167.3288 513.4614 170.4688 510 178.1333 C507.2523 184.2175 505.5016 185.7779 500 190.1333 C494.4866 194.4981 492.1273 192.8914 486 197.1333 C479.6226 201.5484 478.6987 207.9041 474 208.1333 C401.6823 211.661 374.7449 208.5325 281 207.1333 C277.1 207.0751 273 205.1333 273 205.1333 "/>
<path id="3" d="M272 156.1333 L273 203.1333 "/>
<path id="4" d="M272 162.1333 C272 162.1333 203.6747 158.5133 149 160.1333 C143.5843 160.2938 138.4647 163.4292 137 166.1333 C134.8273 170.1445 134.8672 175.9771 136 184.1333 C137.1945 192.7336 138.4972 194.4271 142 202.1333 C142.9832 204.2965 143.9204 205.3535 146 206.1333 C154.2712 209.235 156.217 210.7541 166 211.1333 C218.8056 213.1801 240.1644 212.3775 275 211.1333 C276.0044 211.0975 277.5047 208.9496 278 207.1333 C278.7197 204.4946 278 200.1333 278 200.1333 "/>
</g>
</g>
</svg>
