<?xml version="1.0" encoding="utf-8"?>
<!DOCTYPE svg PUBLIC "-//W3C//DTD SVG 1.1//EN" "http://www.w3.org/Graphics/SVG/1.1/DTD/svg11.dtd">
<svg viewBox="0 0 800 800" preserveAspectRatio="xMinYMin meet" xmlns="http://www.w3.org/2000/svg" version="1.1">
<g fill="none" stroke="black" stroke-linecap="round" stroke-linejoin="round" stroke-width="1.8817">
<g transform="translate(87.52,345.7943) scale(1.5943) translate(-125.5,-204.6667)">
<path id="0" d="M125.5 226.6667 C125.5 226.6667 132.4113 231.9517 139.5 233.6667 C162.0556 239.1237 164.0812 236.7563 187.5 241.6667 C194.5941 243.1541 194.946 246.5257 201.5 246.6667 C238.1717 247.4553 269.8918 244.4724 280.5 243.6667 C280.5305 243.6644 280.4063 240.6887 280.5 240.6667 C282.7882 240.1283 289.0245 239.6667 297.5 239.6667 C326.4164 239.6667 327.616 242.3669 355.5 240.6667 C367.2264 239.9516 379.5 234.6667 379.5 234.6667 "/>
<path id="1" d="M125.5 228.6667 C125.5 228.6667 127.802 235.9964 131.5 241.6667 C134.9699 246.9871 135.4511 248.798 140.5 251.6667 C155.4668 260.1706 171.7164 265.4055 175.5 266.6667 C175.5 266.6667 176.1598 263.7396 176.5 263.6667 C179.1916 263.0899 183.25 262.8221 189.5 263.6667 C201.3632 265.2698 201.6479 267.9695 213.5 268.6667 C243.2593 270.4172 245.5982 267.428 274.5 268.6667 C278.8251 268.852 279.0981 271.2754 283.5 271.6667 C300.6432 273.1905 302.1111 274.5465 319.5 272.6667 C356.5169 268.6648 394.5 259.6667 394.5 259.6667 "/>
<path id="2" d="M384.5 234.6667 C384.5 234.6667 388.023 239.0715 389.5 243.6667 C392.3247 252.4548 393.5 262.6667 393.5 262.6667 "/>
<path id="3" d="M389.5 238.6667 L395.5 238.6667 "/>
<path id="4" d="M394.5 254.6667 L400.5 251.6667 "/>
<path id="5" d="M396.5 238.6667 C396.5 238.6667 398.4611 238.5628 398.5 238.6667 C398.9349 239.8263 398.1482 243.5769 399.5 246.6667 C401.2023 250.5575 405.5002 254.6673 405.5 254.6667 C405.4996 254.6651 397.466 238.2088 396.5 234.6667 C396.4492 234.4802 398.0386 232.9246 399.5 232.6667 C413.3197 230.2279 415.5778 232.1417 430.5 228.6667 C451.5422 223.7664 451.7575 220.8523 472.5 215.6667 C479.0322 214.0336 480.3603 216.5427 486.5 214.6667 C497.2535 211.3809 507.1702 204.7245 508.5 204.6667 C508.5361 204.6651 508.1975 209.6144 509.5 213.6667 C512.5142 223.0443 517.6317 229.3745 517.5 232.6667 C517.4552 233.7876 513.1827 237.1801 508.5 238.6667 C483.4027 246.6341 481.2358 247.2473 454.5 252.6667 C444.9969 254.593 444.1342 252.1845 434.5 253.6667 C425.0497 255.1206 424.8014 256.8064 415.5 258.6667 C412.7096 259.2248 411.1944 259.579 409.5 258.6667 C406.4588 257.0291 402.5 251.6667 402.5 251.6667 "/>
</g>
</g>
</svg>
