<?xml version="1.0" encoding="utf-8"?>
<!DOCTYPE svg PUBLIC "-//W3C//DTD SVG 1.1//EN" "http://www.w3.org/Graphics/SVG/1.1/DTD/svg11.dtd">
<svg viewBox="0 0 800 800" preserveAspectRatio="xMinYMin meet" xmlns="http://www.w3.org/2000/svg" version="1.1">
<g fill="none" stroke="black" stroke-linecap="round" stroke-linejoin="round" stroke-width="1.5073">
<g transform="translate(292.5228,87.52) scale(1.9903) translate(-141,-112.1333)">
<path id="0" d="M244 123.1333 C244 123.1333 243.3262 129.1487 241 134.1333 C229.6193 158.5206 225.7781 159.0373 216 183.1333 C212.4922 191.7774 215.4968 193.6003 213 203.1333 C210.1057 214.1843 207.6972 214.0994 205 225.1333 C202.3278 236.0649 205.0716 237.2803 202 248.1333 C190.3259 289.3817 187.3072 291.4768 175 331.1333 C174.4613 332.8692 174.9505 335.1284 175 335.1333 C179.9505 335.6284 211.3331 337.8398 215 335.1333 C217.2809 333.4498 213.3308 318.3514 217 304.1333 C224.8792 273.6015 229.9312 273.2263 239 242.1333 C243.7387 225.8862 242.6966 225.1786 245 208.1333 C247.6825 188.2825 248.378 188.0382 249 168.1333 C249.8676 140.3688 248.0014 112.149 248 112.1333 C247.9998 112.1306 245 122.1333 245 122.1333 "/>
<path id="1" d="M176 335.1333 C176 335.1333 176.0676 347.9062 172 358.1333 C159.2089 390.2939 140.8432 420.5849 141 423.1333 C141.0054 423.2203 158.9502 422.0895 176 423.1333 C182.9094 423.5564 189.4889 426.8858 190 426.1333 C195.5704 417.9325 201.7084 398.1266 212 370.1333 C214.1041 364.4101 214.4283 364.0411 215 358.1333 C215.8838 349.0004 215 339.1333 215 339.1333 "/>
<path id="2" d="M173 390.1333 L173 393.1333 "/>
</g>
</g>
</svg>
