<?xml version="1.0" encoding="utf-8"?>
<!DOCTYPE svg PUBLIC "-//W3C//DTD SVG 1.1//EN" "http://www.w3.org/Graphics/SVG/1.1/DTD/svg11.dtd">
<svg viewBox="0 0 800 800" preserveAspectRatio="xMinYMin meet" xmlns="http://www.w3.org/2000/svg" version="1.1">
<g fill="none" stroke="black" stroke-linecap="round" stroke-linejoin="round" stroke-width="1.6273">
<g transform="translate(332.7108,87.52) scale(1.8435) translate(-157,-62.1333)">
<path id="0" d="M186 285.1333 C186 285.1333 229.4267 281.648 230 283.1333 C234.4386 294.6333 234.5085 384.3556 230 399.1333 C229.4954 400.7873 210.288 403.2891 194 401.1333 C178.751 399.1151 168.3669 393.7147 162 390.1333 C161.3435 389.7641 161.1521 384.1697 162 383.1333 C163.3765 381.451 170.5145 380.5899 171 379.1333 C172.3641 375.0411 171.2016 362.2874 170 359.1333 C169.7838 358.5659 163.9455 358.9606 163 358.1333 C162.2496 357.4768 161.5043 352.753 162 352.1333 C163.0677 350.7987 171.004 348.1657 171 348.1333 C170.9926 348.0742 162.3284 345.8602 161 344.1333 C159.9775 342.8041 159.8323 336.4678 161 335.1333 C163.4976 332.279 172.0106 331.322 175 328.1333 C176.4761 326.5588 176.7193 321.471 176 319.1333 C175.5417 317.6439 171.6548 316.8358 171 315.1333 C170.005 312.5464 172.415 308.2558 171 306.1333 C167.646 301.1024 160.9332 298.9093 157 294.1333 C156.1642 293.1184 156.3455 289.7878 157 289.1333 C158.9635 287.1698 162.2551 285.0823 167 284.1333 C173.4703 282.8393 182 284.1333 182 284.1333 "/>
<path id="1" d="M190 284.1333 L179 284.1333 "/>
<path id="2" d="M215 283.1333 C215 283.1333 216.4133 191.4752 216 100.1333 C215.9142 81.1612 214 62.1333 214 62.1333 "/>
<path id="3" d="M214 62.1333 C214 62.1333 215.735 69.7115 214 75.1333 C208.3786 92.7001 203.197 93.8072 198 112.1333 C194.1401 125.7446 197.9367 128.4285 195 142.1333 C193.7267 148.0753 189.8707 148.2758 189 154.1333 C184.7623 182.6413 188.2177 185.7055 184 216.1333 C181.2923 235.6673 178.1967 235.6628 175 255.1333 C172.7628 268.7598 173 283.1333 173 283.1333 "/>
<path id="4" d="M187 339.1333 C187 339.1333 186.9793 341.1316 187 341.1333 C189.9793 341.3816 211 341.1333 211 341.1333 "/>
<path id="5" d="M191 325.1333 L201 318.1333 "/>
<path id="6" d="M191 296.1333 L213 299.1333 "/>
<path id="7" d="M184 377.1333 L203 379.1333 "/>
<path id="8" d="M195 398.1333 L202 398.1333 "/>
<path id="9" d="M196 370.1333 L206 370.1333 "/>
<path id="10" d="M190 352.1333 L204 352.1333 "/>
<path id="11" d="M195 322.1333 L196 322.1333 "/>
<path id="12" d="M206 327.1333 C206 327.1333 205.7398 329.9707 206 330.1333 C207.2837 330.9356 214 332.1333 214 332.1333 "/>
<path id="13" d="M207 308.1333 L211 308.1333 "/>
</g>
</g>
</svg>
