<?xml version="1.0" encoding="utf-8"?>
<!DOCTYPE svg PUBLIC "-//W3C//DTD SVG 1.1//EN" "http://www.w3.org/Graphics/SVG/1.1/DTD/svg11.dtd">
<svg viewBox="0 0 800 800" preserveAspectRatio="xMinYMin meet" xmlns="http://www.w3.org/2000/svg" version="1.1">
<g fill="none" stroke="black" stroke-linecap="round" stroke-linejoin="round" stroke-width="1.7521">
<g transform="translate(87.52,337.504) scale(1.7122) translate(-123,-194.4167)">
<path id="0" d="M129 246.4167 C129 246.4167 133.2676 236.0614 138 228.4167 C139.0995 226.6406 140.352 225.4482 142 225.4167 C225.2716 223.823 321.5814 227.8885 347 224.4167 C347.457 224.3543 345.7447 204.9487 347 197.4167 C347.1782 196.3473 351.9879 194.3781 352 194.4167 C352.1594 194.9267 351.0039 204.7842 352 213.4167 C352.3851 216.7543 354.88 217.1765 355 220.4167 C355.7926 241.8155 354.5187 261.3221 354 267.4167 C353.9972 267.4497 351.2895 267.7062 351 267.4167 C350.5175 266.9342 350.0962 265.3888 350 263.4167 C349.1197 245.3709 348.5992 244.051 349 226.4167 C349.0764 223.0567 351 219.4167 351 219.4167 "/>
<path id="1" d="M134 239.4167 C134 239.4167 123.1405 251.0513 123 251.4167 C122.9887 251.4461 126.0344 252.3905 129 252.4167 C238.0781 253.3777 350 253.4167 350 253.4167 "/>
<path id="2" d="M356 217.4167 C356 217.4167 466.5722 214.6202 486 217.4167 C486.7076 217.5185 487.4737 226.9428 488 236.4167 C488.4682 244.844 488.9836 249.679 488 253.4167 C487.8082 254.1457 485.338 255.381 483 255.4167 C424.439 256.3107 357 255.4167 357 255.4167 "/>
</g>
</g>
</svg>
