<?xml version="1.0" encoding="utf-8"?>
<!DOCTYPE svg PUBLIC "-//W3C//DTD SVG 1.1//EN" "http://www.w3.org/Graphics/SVG/1.1/DTD/svg11.dtd">
<svg viewBox="0 0 800 800" preserveAspectRatio="xMinYMin meet" xmlns="http://www.w3.org/2000/svg" version="1.1">
<g fill="none" stroke="black" stroke-linecap="round" stroke-linejoin="round" stroke-width="0.71525">
<g transform="translate(288.8494,87.52) scale(4.1944) translate(-130,-28.4167)">
<path id="0" d="M133 118.4167 C133 118.4167 131.448 165.561 132 176.4167 C132.0115 176.6421 134.0444 177.3468 136 177.4167 C147.6296 177.832 159.6232 177.8939 160 177.4167 C160.2365 177.1171 152.5764 167.5601 151 158.4167 C147.9952 140.989 147.7782 122.1245 150 119.4167 C151.5757 117.4963 183 119.4167 183 119.4167 "/>
<path id="1" d="M133 119.4167 C133 119.4167 129.7665 39.0416 130 28.4167 C130.0003 28.4038 133.2043 27.6004 135 28.4167 C142.738 31.9339 145.1271 32.4306 152 38.4167 C159.7008 45.1238 161.0121 46.3646 166 55.4167 C173.904 69.7609 175.3555 71.7974 179 87.4167 C181.9371 100.0043 180 115.4167 180 115.4167 "/>
<path id="2" d="M144 46.4167 C144 46.4167 158.3608 57.3552 164 68.4167 C169.6152 79.431 170 97.4167 170 97.4167 "/>
</g>
</g>
</svg>
