<?xml version="1.0" encoding="utf-8"?>
<!DOCTYPE svg PUBLIC "-//W3C//DTD SVG 1.1//EN" "http://www.w3.org/Graphics/SVG/1.1/DTD/svg11.dtd">
<svg viewBox="0 0 800 800" preserveAspectRatio="xMinYMin meet" xmlns="http://www.w3.org/2000/svg" version="1.1">
<g fill="none" stroke="black" stroke-linecap="round" stroke-linejoin="round" stroke-width="1.4305">
<g transform="translate(339.1817,87.52) scale(2.0972) translate(-333,-157.6667)">
<path id="0" d="M383 159.6667 C383 159.6667 385 207.7912 385 255.6667 C385 275.1161 382.4943 275.4509 383 294.6667 C383.4818 312.9736 386.542 313.3475 387 331.6667 C387.5302 352.8745 384.3302 353.9037 385 374.6667 C385.2984 383.9172 387.9831 384.1752 389 393.6667 C390.9479 411.847 390.2135 412.1846 391 430.6667 C391.2121 435.6504 391.8645 436.1278 391 440.6667 C389.9831 446.0052 387 451.6667 387 451.6667 "/>
<path id="1" d="M382 157.6667 C382 157.6667 374.5298 161.5191 370 166.6667 C364.2566 173.1932 363.8844 174.343 360 182.6667 C353.5845 196.4141 353.0434 196.9827 349 211.6667 C343.6722 231.0149 346.0015 232.3752 341 251.6667 C339.1509 258.7991 335.8095 258.8874 335 265.6667 C332.0716 290.1917 332.2492 293.5135 333 318.6667 C333.2003 325.3751 334.2317 327.4069 337 332.6667 C338.4023 335.331 340.3466 337.2364 343 337.6667 C355.1402 339.6353 363.0326 338.999 374 338.6667 C374.7297 338.6446 375.9901 336.6468 376 336.6667 C376.1091 336.8848 378 342.6644 378 346.6667 C378 348.2676 376 348.9511 376 350.6667 C376 360.5311 378 362.2419 378 373.6667 C378 409.4313 373.9677 417.8917 376 445.6667 C376.2994 449.7584 382.628 454.8663 384 455.6667 C384.2232 455.7968 388 452.6667 388 452.6667 "/>
<path id="2" d="M375 336.6667 L387 337.6667 "/>
</g>
</g>
</svg>
