<?xml version="1.0" encoding="utf-8"?>
<!DOCTYPE svg PUBLIC "-//W3C//DTD SVG 1.1//EN" "http://www.w3.org/Graphics/SVG/1.1/DTD/svg11.dtd">
<svg viewBox="0 0 800 800" preserveAspectRatio="xMinYMin meet" xmlns="http://www.w3.org/2000/svg" version="1.1">
<g fill="none" stroke="black" stroke-linecap="round" stroke-linejoin="round" stroke-width="1.5985">
<g transform="translate(87.52,217.0162) scale(1.8768) translate(-179.5,-74.6667)">
<path id="0" d="M188.5 253.6667 C188.5 253.6667 205.4407 245.1843 220.5 234.6667 C236.6206 223.4078 235.3914 220.993 251.5 209.6667 C267.106 198.6937 268.5661 200.4086 284.5 189.6667 C312.9398 170.4937 311.9081 168.2996 340.5 149.6667 C356.0838 139.5109 373.5 131.6667 373.5 131.6667 "/>
<path id="1" d="M225.5 269.6667 C225.5 269.6667 249.8127 256.5925 272.5 241.6667 C287.5762 231.7481 286.3563 229.2429 301.5 219.6667 C319.9496 208 322.023 210.4605 340.5 198.6667 C368.6694 180.6862 395.5 159.6667 395.5 159.6667 "/>
<path id="2" d="M190.5 254.6667 C190.5 254.6667 186.8577 254.309 186.5 254.6667 C185.9635 255.2032 184.9331 258.2495 185.5 259.6667 C187.0774 263.6101 189.7621 269.0299 192.5 269.6667 C203.0694 272.1247 228.5 269.6667 228.5 269.6667 "/>
<path id="3" d="M372.5 125.6667 C372.5 125.6667 377.0615 137.7274 380.5 143.6667 C380.9158 144.3849 382.9928 143.889 383.5 144.6667 C388.6168 152.5124 395.5 166.6667 395.5 166.6667 "/>
<path id="4" d="M372.5 125.6667 C372.5 125.6667 387.5458 120.4847 400.5 113.6667 C405.8645 110.8433 405.1359 108.4175 410.5 105.6667 C423.8712 98.8097 425.6902 100.4032 439.5 93.6667 C445.8009 90.5931 445.2599 88.024 451.5 85.6667 C466.6201 79.9546 484.5 76.6667 484.5 76.6667 "/>
<path id="5" d="M397.5 166.6667 C397.5 166.6667 403.9996 167.0379 407.5 164.6667 C431.8832 148.149 433.4531 142.8206 459.5 124.6667 C465.4287 120.5345 467.1338 122.3395 473.5 118.6667 C479.7681 115.0505 480.2506 112.6194 485.5 109.6667 C486.7306 108.9744 488.278 110.3741 489.5 109.6667 C496.0279 105.8874 497.9319 104.6092 504.5 98.6667 C507.9846 95.5139 510.3818 92.4394 510.5 90.6667 C510.5938 89.2597 508.4305 86.4248 505.5 83.6667 C500.3234 78.7945 498.9668 76.4239 493.5 74.6667 C487.6268 72.7789 477.5 74.6667 477.5 74.6667 "/>
<path id="6" d="M390.5 143.6667 L391.5 141.6667 "/>
<path id="7" d="M394.5 140.6667 L395.5 142.6667 "/>
<path id="8" d="M392.5 141.6667 C392.5 141.6667 392.5 143.6667 392.5 143.6667 C392.5014 143.6667 393.5 141.6667 393.5 141.6667 "/>
<path id="9" d="M187.5 254.6667 C187.5 254.6667 179.5262 260.6274 179.5 260.6667 C179.4938 260.6759 182.2265 259.9875 183.5 260.6667 C188.3606 263.259 194.5 268.6667 194.5 268.6667 "/>
<path id="10" d="M190.5 268.6667 C190.5 268.6667 190.253 265.1938 189.5 264.6667 C187.3005 263.127 180.5024 261.6684 180.5 261.6667 C180.4989 261.6659 183.641 260.9231 185.5 261.6667 C190.1103 263.5108 191.5084 264.7637 195.5 267.6667 C196.1821 268.1628 196.5088 269.6608 196.5 269.6667 C196.3942 269.7372 193.225 270.15 192.5 269.6667 C191.6542 269.1028 191.796 266.6387 190.5 265.6667 C186.936 262.9937 180.5027 260.666 180.5 260.6667 C180.4986 260.667 183.6184 265.2259 186.5 266.6667 C189.2215 268.0274 194.5 267.6667 194.5 267.6667 "/>
<path id="11" d="M395.5 162.6667 C395.5 162.6667 420.3761 154.6629 441.5 142.6667 C459.8277 132.2584 458.5155 126.9435 476.5 116.6667 C488.6615 109.7173 504.5 106.6667 504.5 106.6667 "/>
<path id="12" d="M502.5 104.6667 C502.5 104.6667 495.2015 111.7572 487.5 114.6667 C474.1113 119.7246 469.9863 115.9038 457.5 121.6667 C446.2854 126.8426 446.8415 131.31 435.5 138.6667 C428.7898 143.0193 426.7405 141.1281 420.5 145.6667 C411.0686 152.5259 402.5 162.6667 402.5 162.6667 "/>
<path id="13" d="M396.5 163.6667 L454.5 135.6667 "/>
<path id="14" d="M400.5 165.6667 C400.5 165.6667 407.5835 165.0333 413.5 162.6667 C422.0832 159.2334 422.8283 158.67 430.5 153.6667 C433.8254 151.4979 433.2993 149.267 436.5 147.6667 C443.0793 144.377 445.0575 146.0335 452.5 142.6667 C465.6772 136.7056 466.786 136.9472 478.5 128.6667 C495.1707 116.8822 499.6595 113.7826 510.5 101.6667 C512.9922 98.8813 513.4885 93.4911 512.5 90.6667 C511.3339 87.335 508.3493 85.1305 503.5 81.6667 C498.3813 78.0104 497.188 76.7332 491.5 75.6667 C482.8326 74.0415 480.0657 73.1287 471.5 75.6667 C442.329 84.3099 439.9025 86.7296 410.5 99.6667 C403.1206 102.9136 402.2227 103.3132 396.5 108.6667 C387.3849 117.1937 379.5 128.6667 379.5 128.6667 "/>
<path id="15" d="M379.5 128.6667 C379.5 128.6667 382.0332 124.2668 385.5 121.6667 C399.3672 111.2663 400.0183 110.0635 415.5 101.6667 C428.9581 94.3673 430.7285 94.1331 444.5 89.6667 C447.8495 88.5803 452.5 89.6667 452.5 89.6667 "/>
<path id="16" d="M378.5 124.6667 C378.5 124.6667 375.7675 125.2208 375.5 125.6667 C375.1178 126.3036 375.26 129.3467 375.5 129.6667 C375.635 129.8467 378.1594 129.2774 378.5 129.6667 C379.992 131.3719 381.6257 133.6698 382.5 137.6667 C384.929 148.7706 382.675 151.6221 385.5 161.6667 C386.6016 165.5834 391.5 169.6667 391.5 169.6667 "/>
<path id="17" d="M392.5 167.6667 C392.5 167.6667 392.2854 162.6201 390.5 158.6667 C385.5567 147.7207 378.5 136.6667 378.5 136.6667 "/>
<path id="18" d="M377.5 132.6667 C377.5 132.6667 378.2036 139.1553 380.5 144.6667 C385.5261 156.7292 392.5 168.6667 392.5 168.6667 "/>
<path id="19" d="M460.5 134.6667 C460.5 134.6667 469.6867 126.8316 479.5 121.6667 C488.1141 117.1329 490.0391 119.1615 498.5 114.6667 C505.3199 111.0436 511.5 104.6667 511.5 104.6667 "/>
<path id="20" d="M505.5 108.6667 C505.5 108.6667 501.2413 116.857 496.5 119.6667 C490.0953 123.462 478.5 124.6667 478.5 124.6667 "/>
<path id="21" d="M464.5 128.6667 C464.5 128.6667 482.2789 122.6996 494.5 113.6667 C503.4363 107.0616 510.5 94.6667 510.5 94.6667 "/>
<path id="22" d="M419.5 119.6667 C419.5 119.6667 420.6293 115.8445 422.5 114.6667 C432.1013 108.6214 446.5 102.6667 446.5 102.6667 "/>
<path id="23" d="M433.5 114.6667 C433.5 114.6667 432.8814 111.7801 433.5 110.6667 C434.7028 108.5016 435.7595 107.7547 438.5 105.6667 C446.0846 99.8879 454.5 94.6667 454.5 94.6667 "/>
<path id="24" d="M449.5 103.6667 C449.5 103.6667 450.9763 100.1515 452.5 99.6667 C468.2555 94.6535 493.5 89.6667 493.5 89.6667 "/>
<path id="25" d="M485.5 94.6667 C485.5 94.6667 487.6065 91.2077 489.5 90.6667 C495.9693 88.8183 506.5 88.6667 506.5 88.6667 "/>
</g>
</g>
</svg>
