<?xml version="1.0" encoding="utf-8"?>
<!DOCTYPE svg PUBLIC "-//W3C//DTD SVG 1.1//EN" "http://www.w3.org/Graphics/SVG/1.1/DTD/svg11.dtd">
<svg viewBox="0 0 800 800" preserveAspectRatio="xMinYMin meet" xmlns="http://www.w3.org/2000/svg" version="1.1">
<g fill="none" stroke="black" stroke-linecap="round" stroke-linejoin="round" stroke-width="1.9057">
<g transform="translate(181.1853,87.52) scale(1.5742) translate(-197,-40.1333)">
<path id="0" d="M203 119.1333 C203 119.1333 198.8273 115.4425 198 112.1333 C196.2702 105.2142 197.2295 103.626 197 95.1333 C196.7304 85.1579 195.782 84.2685 197 75.1333 C197.6415 70.3222 200.9354 65.1157 201 65.1333 C202.1359 65.4431 210.4134 78.7249 219 81.1333 C244.1871 88.198 251.3405 83.7157 283 88.1333 C294.0593 89.6765 295.2141 89.3277 305 93.1333 C312.1521 95.9147 314.1195 102.2254 319 102.1333 C332.8292 101.8724 338.6032 94.9719 358 92.1333 C378.7531 89.0963 383.9905 95.8715 401 90.1333 C419.9943 83.7256 422.4158 77.4655 441 64.1333 C444.4923 61.628 444.96 60.8995 447 57.1333 C451.1381 49.4937 453.9952 40.1225 454 40.1333 C454.0123 40.1611 455.8063 57.9329 455 75.1333 C454.3267 89.4965 451.9246 89.6472 451 104.1333 C448.9416 136.3822 455.0675 141.2779 449 169.1333 C445.258 186.3127 429 205.1333 429 205.1333 "/>
<path id="1" d="M200 119.1333 C200 119.1333 199.9685 145.7757 203 168.1333 C203.6552 172.9653 206.7506 173.3858 208 178.1333 C208.9937 181.9093 206.96 183.5972 208 187.1333 C209.0944 190.8543 210.0012 191.8014 213 195.1333 C218.6857 201.4507 219.2988 202.8446 226 207.1333 C230.7181 210.1529 233.25 208.2834 238 211.1333 C242.2222 213.6666 241.7963 217.1716 246 219.1333 C254.8851 223.2797 258.1192 221.1193 268 225.1333 C273.1931 227.243 273.4079 230.6026 278 232.1333 C282.0956 233.4985 288.9635 232.1425 289 232.1333 C289.0083 232.1313 286 230.1333 286 230.1333 "/>
<path id="2" d="M285 232.1333 C285 232.1333 294.5908 234.7992 302 238.1333 C303.636 238.8696 304.609 239.83 305 241.1333 C305.7018 243.4727 304.1283 246.9347 305 248.1333 C306.2227 249.8145 311.7447 252.743 313 252.1333 C320.7094 248.3888 326.4374 240.0561 340 231.1333 C344.5296 228.1533 345.6633 228.2007 351 227.1333 C355.0703 226.3193 356.112 228.2059 360 227.1333 C369.5934 224.4869 370.1214 220.8051 380 219.1333 C401.0524 215.5706 411.7529 219.51 425 216.1333 C427.4746 215.5026 431 206.1333 431 206.1333 "/>
<path id="3" d="M431 120.1333 C431 120.1333 423.2593 129.6661 416 134.1333 C412.2403 136.447 409.5513 134.4266 405 136.1333 C402.4823 137.0775 402.2177 139.6664 400 140.1333 C394.6854 141.2522 391.0118 137.9854 386 140.1333 C373.2147 145.6128 371.676 150.9354 358 158.1333 C353.9663 160.2563 351.8483 158.4841 348 160.1333 C345.9746 161.0014 344 164.1333 344 164.1333 "/>
<path id="4" d="M235 128.1333 C235 128.1333 239.1917 131.6573 243 132.1333 C257.3932 133.9325 261.6966 129.6843 275 133.1333 C285.4625 135.8458 288.3353 138.3807 297 146.1333 C305.963 154.1528 313 167.1333 313 167.1333 "/>
<path id="5" d="M372 150.1333 C372 150.1333 371.0946 160.6874 373 165.1333 C374.1644 167.8503 377.3605 169.7685 381 171.1333 C383.8405 172.1985 385.8887 172.1056 389 171.1333 C392.7189 169.9712 395.5351 168.6237 397 166.1333 C398.9887 162.7525 400.2946 156.8305 399 154.1333 C396.6875 149.3156 390.9234 144.9835 385 141.1333 C383.4169 140.1043 379.9916 140.322 379 141.1333 C376.9568 142.8051 374 150.1333 374 150.1333 "/>
<path id="6" d="M275 136.1333 C275 136.1333 269.6032 135.669 267 137.1333 C263.1997 139.271 260.0431 141.855 259 145.1333 C257.6467 149.3867 258.5502 153.0442 260 159.1333 C260.8097 162.5343 262.2449 165.5483 264 166.1333 C270.5585 168.3195 285.9617 168.1805 287 168.1333 C287.0391 168.1316 285.7283 165.6224 286 165.1333 C287.0373 163.2661 291.5146 161.3174 292 159.1333 C292.7648 155.6917 292.1884 149.708 290 147.1333 C286.6854 143.2338 275 139.1333 275 139.1333 "/>
<path id="7" d="M320 190.1333 C320 190.1333 328.5489 189.582 329 190.1333 C329.6739 190.957 330.3931 196.7799 329 201.1333 C326.9028 207.6872 321.0549 215.1278 321 215.1333 C320.9959 215.1337 321.1324 207.109 319 202.1333 C317.3072 198.1836 314.1659 197.5369 312 194.1333 C311.4783 193.3135 311.9372 191.1473 312 191.1333 C312.8274 190.9495 321 192.1333 321 192.1333 "/>
<path id="8" d="M387 162.1333 C387 162.1333 382.5277 162.5731 382 162.1333 C381.4547 161.6789 380.7965 157.3077 381 157.1333 C381.5485 156.6632 388.8523 155.961 389 156.1333 C389.1585 156.3183 387.0627 164.0549 387 164.1333 C386.9909 164.1448 385 161.1333 385 161.1333 "/>
<path id="9" d="M277 156.1333 C277 156.1333 272.7033 154.3992 272 153.1333 C271.2697 151.8188 271.3443 149.1004 272 147.1333 C272.4371 145.8219 273.8825 144.3365 275 144.1333 C277.4641 143.6853 281.7007 144.2671 283 145.1333 C283.6497 145.5664 284.4371 148.5305 284 150.1333 C283.3443 152.5376 281.6884 155.1203 280 156.1333 C278.667 156.9331 275.3145 156.8636 274 156.1333 C272.7341 155.4301 271 151.1333 271 151.1333 "/>
<path id="10" d="M210 210.1333 C210 210.1333 206.5816 224.1624 205 238.1333 C203.6096 250.4156 203.8852 260.2623 204 263.1333 C204.0004 263.1425 205.9882 263.0727 206 263.1333 C207.1205 268.896 206.4983 282.9271 211 299.1333 C213.5017 308.1394 215.0112 309.7072 221 317.1333 C226.7665 324.2837 230.4405 323.4035 236 330.1333 C238.913 333.6596 237.2264 336.0653 240 340.1333 C244.2496 346.3661 251 352.1333 251 352.1333 "/>
<path id="11" d="M449 178.1333 C449 178.1333 463.53 185.349 469 193.1333 C473.9358 200.1573 474.9148 204.6478 475 215.1333 C475.3903 263.1457 473.3928 266.0897 470 316.1333 C469.424 324.6288 470.2239 326.3273 467 333.1333 C462.0812 343.5174 452 354.1333 452 354.1333 "/>
<path id="12" d="M395 242.1333 C395 242.1333 392.5356 259.7272 392 277.1333 C391.5426 291.9984 392.9892 307.1284 393 307.1333 C393.001 307.1338 402.431 283.2239 403 282.1333 C403.018 282.0988 404.9608 283.3694 405 284.1333 C405.6894 297.5762 403.7902 302.9866 405 321.1333 C405.7607 332.5445 408.9953 344.1371 409 344.1333 C409.01 344.1253 411.4468 328.1356 415 313.1333 C415.845 309.5654 415.9129 308.3809 418 306.1333 C421.4733 302.3928 427.9779 299.0251 428 299.1333 C428.2495 300.356 427.9999 355.1307 428 355.1333 C428 355.1338 428.2386 347.8733 430 345.1333 C431.3266 343.0697 434.426 343.7073 437 341.1333 C444.2539 333.8794 451 324.1333 451 324.1333 "/>
<path id="13" d="M251 235.1333 C251 235.1333 250.6239 254.3526 254 272.1333 C257.979 293.0892 266.0105 313.776 266 314.1333 C265.9981 314.1987 258.3783 310.6624 253 306.1333 C249.5292 303.2105 246.9996 298.1305 247 298.1333 C247.001 298.1414 249.3953 312.1423 255 322.1333 C260.0001 331.0466 264.3273 330.6243 270 339.1333 C272.5212 342.9151 270.871 345.1414 273 349.1333 C274.4071 351.7717 278.0019 354.1338 278 354.1333 C277.9951 354.1322 263.9953 347.1134 264 347.1333 C264.0149 347.1961 282.5977 374.4293 283 375.1333 C283.0177 375.1644 280.7223 375.675 280 375.1333 C274.7032 371.1607 272.7923 369.5049 267 363.1333 C263.0205 358.7559 260 353.1333 260 353.1333 "/>
<path id="14" d="M313 382.1333 C313 382.1333 306.714 380.9907 305 382.1333 C302.0719 384.0854 299.11 387.2895 298 392.1333 C294.2773 408.3779 294.0001 430.1323 294 430.1333 C294 430.1335 294.1559 425.5043 296 423.1333 C303.4962 413.4954 314.9322 403.1732 315 403.1333 C315.0174 403.1231 313.3534 408.1852 313 413.1333 C312.3728 421.9146 312.3508 424.6413 313 431.1333 C313.0793 431.9268 315 433.1333 315 433.1333 C315.0214 433.1119 314.2906 430.4509 315 429.1333 C320.239 419.4038 320.9815 415.9278 329 407.1333 C335.3429 400.1766 345.9727 395.1224 346 395.1333 C346.0013 395.1339 340.6797 403.4547 339 411.1333 C337.467 418.1413 338.6025 419.9777 339 427.1333 C339.0511 428.0526 339.9884 429.1426 340 429.1333 C340.1703 428.9971 342.8389 426.2682 344 423.1333 C347.6039 413.4028 348.5952 412.4352 350 402.1333 C351.4809 391.2735 351.3026 380.498 350 379.1333 C348.9214 378.0033 338.8796 378.3601 329 380.1333 C320.1011 381.7306 311 386.1333 311 386.1333 "/>
<path id="15" d="M400 375.1333 C400 375.1333 396.2657 383.8973 396 392.1333 C395.303 413.7393 398 437.1333 398 437.1333 C398 437.1333 396.4104 428.8955 398 423.1333 C399.9537 416.0512 403.3408 415.1137 406 408.1333 C406.8841 405.8127 405.9799 402.12 406 402.1333 C406.107 402.2047 417.999 416.136 418 416.1333 C418.002 416.1281 408.945 394.1884 409 394.1333 C409.0466 394.0868 421.0349 398.6163 430 404.1333 C432.8699 405.8994 435.0001 410.1335 435 410.1333 C434.9997 410.1327 422.9388 389.1549 423 389.1333 C423.5711 388.9318 468.9462 398.1578 469 398.1333 C469.0197 398.1244 456.5476 383.1575 445 379.1333 C428.6357 373.4306 403 375.1333 403 375.1333 "/>
<path id="16" d="M283 368.1333 C283 368.1333 302.3117 382.4561 316 389.1333 C318.3779 390.2933 324 388.1333 324 388.1333 "/>
<path id="17" d="M358 389.1333 C358 389.1333 371.18 386.1341 381 382.1333 C383.1385 381.2621 383.0371 378.8261 385 378.1333 C389.9712 376.3788 398 376.1333 398 376.1333 "/>
<path id="18" d="M413 376.1333 C413 376.1333 419.0464 374.0869 421 372.1333 C421.9768 371.1565 420.982 368.1514 422 367.1333 C424.3754 364.7579 427.506 365.2595 431 362.1333 C436.3775 357.3219 441 350.1333 441 350.1333 "/>
<path id="19" d="M453 355.1333 C453 355.1333 443.0536 355.1869 443 355.1333 C443 355.1333 447.3179 352.5207 448 350.1333 C450.5314 341.2735 451 327.1333 451 327.1333 "/>
<path id="20" d="M358 389.7 L352 389.7 "/>
<path id="21" d="M210 209.7 L220 203.7 "/>
</g>
</g>
</svg>
