<?xml version="1.0" encoding="utf-8"?>
<!DOCTYPE svg PUBLIC "-//W3C//DTD SVG 1.1//EN" "http://www.w3.org/Graphics/SVG/1.1/DTD/svg11.dtd">
<svg viewBox="0 0 800 800" preserveAspectRatio="xMinYMin meet" xmlns="http://www.w3.org/2000/svg" version="1.1">
<g fill="none" stroke="black" stroke-linecap="round" stroke-linejoin="round" stroke-width="0.66724">
<g transform="translate(262.8685,87.52) scale(4.4961) translate(-254,-105)">
<path id="0" d="M266 113 C266 113 261.8114 112.1766 260 113 C257.8044 113.998 255.5863 115.7527 255 118 C253.3019 124.5095 253.1234 128.1108 254 136 C254.4628 140.1651 255.3274 142.1493 258 145 C261.6289 148.8709 263.8346 150.9669 269 152 C281.1636 154.4327 286.6003 154.7538 298 153 C302.3775 152.3265 304.8474 149.8282 308 146 C310.7509 142.6596 311.1959 140.8247 312 136 C313.0554 129.6676 313.6988 126.1527 312 122 C310.5825 118.5349 307.7298 117.6036 303 114 C297.3303 109.6802 296.6832 107.5044 291 106 C282.0371 103.6275 278.382 103.6203 269 105 C263.4693 105.8133 261.5313 107.677 257 111 C255.158 112.3508 254 116 254 116 "/>
<path id="1" d="M286 156 L269 153 "/>
<path id="2" d="M258 144 C258 144 261.3771 151.1485 262 158 C263.3009 172.3101 263.4654 173.6393 262 188 C261.047 197.3393 258.317 197.5618 257 207 C255.3861 218.5665 256 231 256 231 "/>
<path id="3" d="M309 144 C309 144 307.7623 170.8768 310 194 C310.5576 199.7622 314.5864 200.4859 315 206 C315.9307 218.4094 316.4056 225.3724 313 234 C311.21 238.5346 305.9034 242.0957 300 244 C293.4511 246.1126 288.8901 246.0004 282 244 C276.0236 242.2649 273.7566 240.1891 269 235 C263.7127 229.2321 260 220 260 220 "/>
<path id="4" d="M265 118 C265 118 259.6067 122.8148 259 126 C258.1626 130.3963 259.4032 137.2892 261 139 C262.4178 140.519 270.9629 141.4365 273 141 C273.5407 140.8841 274.7478 138.3957 275 136 C275.6776 129.563 276.5147 124.3983 275 122 C273.639 119.8451 263 117 263 117 "/>
<path id="5" d="M291 121 C291 121 286.8415 124.3073 286 127 C284.8873 130.5605 284.9844 135.9844 286 137 C287.828 138.828 299.4917 141.4066 300 141 C300.6495 140.4804 301.5711 130.4255 301 125 C300.8809 123.8682 299.277 122.2947 298 122 C294.5414 121.2019 288 122 288 122 "/>
<path id="6" d="M281 132 C281 132 279 148 279 148 C279 148 282 133 282 133 "/>
</g>
</g>
</svg>
