<?xml version="1.0" encoding="utf-8"?>
<!DOCTYPE svg PUBLIC "-//W3C//DTD SVG 1.1//EN" "http://www.w3.org/Graphics/SVG/1.1/DTD/svg11.dtd">
<svg viewBox="0 0 800 800" preserveAspectRatio="xMinYMin meet" xmlns="http://www.w3.org/2000/svg" version="1.1">
<g fill="none" stroke="black" stroke-linecap="round" stroke-linejoin="round" stroke-width="2.0545">
<g transform="translate(165.64,87.52) scale(1.4602) translate(-121,-22)">
<path id="0" d="M341 37 C341 37 329.6304 34.4048 321 35 C316.9695 35.278 314.7515 36.1385 312 39 C303.8711 47.4541 298.6604 50.8279 296 61 C291.6046 77.806 291.3829 87.4648 295 104 C297.0529 113.3848 301.4276 116.2133 310 125 C320.6788 135.9458 323.2213 140.3727 335 145 C346.3946 149.4764 352.7972 149.1605 366 147 C377.1054 145.1828 379.2894 142.7524 390 136 C401.5461 128.7209 412 118 412 118 "/>
<path id="1" d="M341 36 C341 36 349.6831 42.4472 353 43 C354.3436 43.2239 356.1632 39.591 359 39 C366.5591 37.4252 377 38 377 38 "/>
<path id="2" d="M359 43 C359 43 360.7685 38.6736 363 37 C365.691 34.9818 367.1565 34.3391 371 34 C383.0913 32.9331 386.0927 31.8185 397 34 C403.5444 35.3089 406.3549 37.613 411 42 C413.6937 44.544 413.9422 46.4668 415 51 C417.3107 60.9031 417.1047 61.5547 418 72 C418.5897 78.8793 418.8652 79.2229 418 86 C415.9134 102.3454 412 119 412 119 "/>
<path id="3" d="M405 36 C405 36 397.6643 29.9806 390 27 C380.4944 23.3034 379.2697 22.5071 369 22 C340.023 20.569 332.7216 19.9501 309 23 C304.6491 23.5594 302.6259 26.3381 299 31 C289.348 43.4098 288.7559 44.8984 281 59 C278.0941 64.2835 277.7794 65.1547 277 71 C275.8807 79.3948 277 89 277 89 "/>
<path id="4" d="M409 122 C409 122 410.8419 161.063 410 196 C409.8968 200.2846 409.4015 201.3978 407 205 C397.103 219.8454 396.4882 221.263 384 235 C371.8463 248.3691 367.706 246.156 357 260 C339.7384 282.321 344.8556 291.8627 326 310 C296.6642 338.2182 252 361 252 361 "/>
<path id="5" d="M277 80 C277 80 278.7565 90.4126 277 99 C274.5186 111.1313 273.4895 112.2368 268 124 C263.1873 134.313 263.2924 136.1319 256 144 C245.4329 155.4013 243.5021 155.5486 230 165 C218.787 172.8491 214.4975 170.3254 206 179 C192.7451 192.531 191.561 195.834 182 214 C172.0798 232.8484 170.3409 235.1946 166 255 C162.8789 269.2399 166 287 166 287 "/>
<path id="6" d="M167 286 C167 286 171.6298 293.3087 175 294 C185.8366 296.2229 191.8341 296.1794 206 294 C216.1587 292.4371 217.7487 291.0462 227 286 C233.3665 282.5274 234.4461 281.7291 239 276 C249.2791 263.0682 250.1335 261.8902 258 247 C263.7944 236.0321 265.0093 234.7451 267 223 C269.7428 206.8173 268.7521 204.171 268 188 C267.8249 184.2343 265 180 265 180 "/>
<path id="7" d="M183 293 C183 293 173.5036 303.6187 167 315 C161.8687 323.9797 163.7326 325.5347 159 335 C154.366 344.2681 152.4819 343.6287 148 353 C136.1459 377.7858 135.594 378.4159 126 404 C122.296 413.8774 120.8717 424.9384 121 425 C121.6486 425.3113 136.8519 422.0635 151 416 C199.1753 395.3534 199.9479 394.0904 247 371 C253.3459 367.8858 254.1315 367.6472 259 363 C264.556 357.6966 269 350 269 350 "/>
<path id="8" d="M167 281 C167 281 170.8215 280.9286 172 282 C174.8285 284.5714 175.1618 288.1618 178 291 C178.9461 291.9461 181.1788 292.5105 182 292 C193.6476 284.7596 215 268 215 268 "/>
<path id="9" d="M203 291 C203 291 211.1073 292.8073 215 291 C222.1483 287.6812 224.3784 285.3374 231 278 C242.3302 265.4449 243.6774 264.4974 252 250 C258.595 238.512 262 224 262 224 "/>
<path id="10" d="M253 211 C253 211 256.1756 232.0556 252 247 C247.738 262.2533 244.1262 266.1933 234 279 C228.8197 285.5515 218 290 218 290 "/>
<path id="11" d="M169 340 C169 340 160.6682 354.9958 155 370 C152.4086 376.8596 154.5021 378.0205 152 385 C145.1926 403.989 136 423 136 423 "/>
<path id="12" d="M203 342 C203 342 195.5682 356.5817 186 369 C172.3714 386.6882 169.8144 385.4181 156 403 C148.0816 413.078 142 425 142 425 "/>
<path id="13" d="M186 335 C186 335 176.8569 354.2864 170 374 C164.956 388.5016 167.1105 389.9462 162 404 C159.3742 411.221 154 418 154 418 "/>
<path id="14" d="M226 343 C226 343 215.9577 352.9477 208 364 C198.1677 377.656 199.7583 380.2133 190 393 C186.0282 398.2045 179 402 179 402 "/>
<path id="15" d="M252 334 C252 334 253.2125 342.3949 251 348 C246.4617 359.497 245.1459 362.0147 237 372 C230.591 379.8562 220 386 220 386 "/>
<path id="16" d="M237 348 C237 348 230.1465 357.2217 225 367 C220.2815 375.9651 217 386 217 386 "/>
<path id="17" d="M410 201 C410 201 402.7325 217.9904 394 234 C384.8109 250.8467 384.6372 251.2158 374 267 C369.3282 273.9324 369.3137 274.7955 363 280 C333.18 304.5814 332.4937 306.5363 300 328 C278.7782 342.0181 254 352 254 352 "/>
<path id="18" d="M341 71 C341 71 339.4894 66.9929 338 66 C336.4322 64.9548 333.427 64.3414 332 65 C329.364 66.2166 326.0212 68.8088 325 72 C322.9753 78.3271 323.6891 83.7819 324 90 C324.0364 90.7275 325.3957 92 326 92 C329.0214 92 334.2327 91.7673 336 90 C338.6509 87.3491 339.3538 83.2555 341 77 C341.6899 74.3782 341.6557 72.9671 341 71 C340.5629 69.6886 339.3174 68.494 338 68 C336.4032 67.4012 334.7519 67.2701 333 68 C329.8174 69.3261 327.2257 70.5487 326 73 C323.9812 77.0375 323.4965 80.9655 324 86 C324.2911 88.9106 326.5897 92.2308 328 93 C329.1643 93.6351 334.197 93.022 335 92 C336.9942 89.4619 337.5937 85.3282 339 79 C339.5063 76.7218 339.0619 74.0138 339 74 C338.5359 73.8969 331.1953 75.6719 330 77 C329.2462 77.8375 329.964 83.973 330 84 C330.0069 84.0051 332.9605 80.5197 334 80 C334.2599 79.8701 336 81 336 81 "/>
<path id="19" d="M387 68 C387 68 383.8122 66.5818 382 67 C378.6093 67.7825 376.6598 68.5619 374 71 C371.6252 73.1769 370.3042 75.1098 370 78 C369.5167 82.5914 371.125 89.375 372 90 C372.875 90.625 379.3123 89.5626 384 88 C385.4803 87.5066 386.7053 86.277 387 85 C387.7981 81.5414 388.1127 78.5605 387 75 C386.1585 72.3073 384.144 70.1695 382 69 C380.445 68.1518 378.1008 68.2361 376 69 C373.74 69.8218 371.8037 71.0481 371 73 C369.1662 77.4534 369 81.0913 369 86 C369 87.1328 370.4675 88.9556 371 89 C373.3272 89.1939 378.7746 88.7485 381 87 C383.1293 85.327 384.5282 81.5387 385 78 C385.2838 75.8718 383.2835 72.0567 383 72 C382.3621 71.8724 376.6309 73.8799 375 76 C373.3073 78.2005 373 81.7796 373 85 C373 86.0735 374.8 88.025 375 88 C375.8 87.9 379.7673 85.6436 381 84 C381.5801 83.2265 381.24 80.32 381 80 C380.865 79.82 378.043 80.0861 378 80 C377.8996 79.7992 379 76 379 76 "/>
<path id="20" d="M337 73 C337 73 331.1578 72.6466 328 74 C325.6077 75.0253 323 79 323 79 C323 79 327.9908 72.9762 328 73 C328.0427 73.1111 327.7114 90.7015 328 92 C328.0017 92.0076 331.6046 91.4942 332 91 C332.3766 90.5293 332 87 332 87 "/>
<path id="21" d="M338 90 L350 116 "/>
<path id="22" d="M371 86 C371 86 369.2629 92.254 366 97 C358.6127 107.7452 349 118 349 118 "/>
<path id="23" d="M351 111 C351 111 349.9615 125.9037 350 126 C350.0079 126.0198 354.3619 123.1694 355 121 C356.1833 116.9767 355 109 355 109 C355 109 355 119 355 119 "/>
<path id="24" d="M305 330 C305 330 298.7954 375.6362 302 397 C302.7343 401.8955 310.8219 402.7922 317 410 C325.3285 419.7166 332 432 332 432 "/>
<path id="25" d="M262 361 C262 361 263.4364 378.4466 268 389 C269.9875 393.5961 272.7296 394.9256 278 398 C283.8464 401.4104 287.4588 399.4909 292 403 C296.391 406.393 295.103 410.8762 300 415 C312.6696 425.6691 330 435 330 435 "/>
<path id="26" d="M345 292 C345 292 341.0569 294.3578 340 297 C335.8027 307.4933 334.2256 309.7441 333 322 C330.854 343.4598 333 367 333 367 "/>
<path id="27" d="M337 367 C337 367 339.1233 376.5286 344 382 C358.076 397.7925 378 413 378 413 "/>
<path id="28" d="M306 345 C306 345 304.8701 355.0639 308 361 C317.7702 379.5298 320.5982 382.5121 335 400 C340.7275 406.9548 342.0612 407.5217 350 412 C360.8095 418.0976 374 422 374 422 "/>
<path id="29" d="M383 415 C383 415 385.7514 412.1874 388 412 C401.2776 410.8935 406.5366 410.9317 419 412 C420.7116 412.1467 422.6498 413.7743 423 415 C423.9298 418.2543 423.0947 425.9656 423 426 C422.7998 426.0728 416.4606 419.3264 412 419 C400.4895 418.1578 382 423 382 423 "/>
<path id="30" d="M370 424 C370 424 357.0113 421.6663 346 422 C341.8185 422.1267 340.5625 422.8625 337 425 C333.8334 426.9 330.9916 430.9964 331 431 C331.0286 431.0122 338.1043 427.6315 344 428 C360.2778 429.0174 379 434 379 434 "/>
<path id="31" d="M387 424 C387 424 391.524 422.4207 395 423 C402.4696 424.2449 404.2485 424.1215 411 428 C426.6114 436.9682 442.0008 449.9993 442 450 C441.9982 450.0015 421.7666 439.9386 403 435 C395.1346 432.9302 392.6333 434.0044 385 435 C382.7137 435.2982 380 438 380 438 "/>
<path id="32" d="M327 427 L353 420 "/>
<path id="33" d="M353 427 L337 440 "/>
<path id="34" d="M321 433 C321 433 303.4302 431.0454 290 434 C280.8802 436.0064 271.0002 443.9999 271 444 C270.9999 444.0001 276.728 440.3347 282 440 C306.36 438.4533 334 440 334 440 "/>
</g>
</g>
</svg>
