<?xml version="1.0" encoding="utf-8"?>
<!DOCTYPE svg PUBLIC "-//W3C//DTD SVG 1.1//EN" "http://www.w3.org/Graphics/SVG/1.1/DTD/svg11.dtd">
<svg viewBox="0 0 800 800" preserveAspectRatio="xMinYMin meet" xmlns="http://www.w3.org/2000/svg" version="1.1">
<g fill="none" stroke="black" stroke-linecap="round" stroke-linejoin="round" stroke-width="1.8337">
<g transform="translate(231.4898,87.52) scale(1.636) translate(-158,-59.9833)">
<path id="0" d="M167 105.9833 C167 105.9833 166.5087 126.9679 169 142.9833 C169.5861 146.7511 172.6655 146.9797 174 150.9833 C175.8868 156.6437 173.8715 159.9391 176 163.9833 C177.5466 166.9218 180.9329 166.6606 184 169.9833 C186.4502 172.6377 185.752 175.5287 188 176.9833 C192.1085 179.6418 195.7415 178.0111 201 180.9833 C206.1986 183.9217 206.2605 187.4888 211 189.9833 C214.0638 191.5958 218.4872 189.8831 220 190.9833 C221.1028 191.7854 220.35 196.1959 222 197.9833 C224.8408 201.0609 227.3697 203.1415 232 203.9833 C241.6021 205.7292 247.8102 205.0895 255 203.9833 C256.1302 203.8095 256.5048 200.4533 258 199.9833 C270.0121 196.2081 278.412 196.3916 290 192.9833 C290.9807 192.6949 291.2754 190.0686 292 189.9833 C301.8907 188.8197 319.8273 189.6353 324 188.9833 C324.0811 188.9707 323.3181 185.9683 324 184.9833 C326.5966 181.2327 330.0695 180.6232 333 175.9833 C335.3738 172.2248 335.8522 170.7878 336 165.9833 C336.8052 139.815 334.5772 136.3541 335 110.9833 C335.0387 108.6608 337 105.9833 337 105.9833 "/>
<path id="1" d="M169 106.9833 C169 106.9833 169.6675 98.9485 172 94.9833 C173.545 92.3568 176.5389 92.8547 179 89.9833 C181.9726 86.5154 183.0153 81.131 184 80.9833 C186.1864 80.6554 194.2255 85.9223 199 86.9833 C199.747 87.1493 200.694 85.065 202 84.9833 C214.1196 84.2259 224.0122 87.0386 231 84.9833 C232.9135 84.4205 232.7167 78.892 236 74.9833 C242.5758 67.155 248.6126 61.4561 252 59.9833 C252.7259 59.6677 257.4063 62.5928 259 64.9833 C260.264 66.8793 259.92 71.9033 260 71.9833 C260 71.9833 261.5539 69.5092 263 68.9833 C265.9564 67.9083 269.7007 68.8496 271 67.9833 C271.6497 67.5502 271.7254 63.0657 272 62.9833 C272.9228 62.7065 277.0399 63.2233 281 64.9833 C289.988 68.978 292.0059 73.6719 299 74.9833 C303.6627 75.8576 310.0928 70.5243 313 70.9833 C314.3277 71.193 315.9661 76.4014 318 77.9833 C318.7789 78.5892 321.0351 77.432 322 77.9833 C323.2751 78.712 324.2741 79.8964 325 81.9833 C327.9849 90.5651 327.5571 97.4934 330 100.9833 C330.7926 102.1156 339 101.9833 339 101.9833 "/>
<path id="2" d="M215 115.9833 C215 115.9833 213.6573 110.4529 213 109.9833 C212.5518 109.6632 208.1158 110.5588 208 110.9833 C206.9579 114.8045 206.5005 128.3203 207 131.9833 C207.037 132.2547 209.7377 133.3717 211 132.9833 C214.6027 131.8748 218.2029 129.9801 220 127.9833 C220.6859 127.2212 220.7657 124.3871 220 122.9833 C218.58 120.38 214 116.9833 214 116.9833 "/>
<path id="3" d="M309 112.9833 C309 112.9833 293.6394 111.4047 292 111.9833 C291.7567 112.0692 291.3014 117.7258 292 118.9833 C292.4768 119.8416 294.9509 120.9833 297 120.9833 C300.2786 120.9833 302.9444 120.1253 305 118.9833 C305.6016 118.6491 306 115.9833 306 115.9833 "/>
<path id="4" d="M256 156.9833 C256 156.9833 262.4574 163.2779 268 164.9833 C273.3657 166.6343 280.3268 164.6248 282 164.9833 C282.0768 164.9998 282.5217 167.1635 282 167.9833 C279.8341 171.3869 277.9417 175.1718 275 175.9833 C267.9707 177.9225 253 175.9833 253 175.9833 "/>
<path id="5" d="M250 161.9833 C250 161.9833 256.7344 161.5302 259 161.9833 C259.3524 162.0538 259.98 163.9833 260 163.9833 C260.02 163.9833 260.9995 161.9809 261 161.9833 C261.0019 161.9927 260.0834 166.6001 261 168.9833 C262.0375 171.6808 266 174.9833 266 174.9833 "/>
<path id="6" d="M184 176.9833 C184 176.9833 178.6947 177.4427 177 178.9833 C174.8336 180.9528 174.1851 182.9203 173 186.9833 C170.8184 194.463 172.4038 196.0725 170 202.9833 C168.7675 206.5269 166.5607 206.3416 165 209.9833 C162.3175 216.2425 162.1237 217.0167 161 223.9833 C159.6833 232.1469 160.4119 238.6494 160 240.9833 C159.9915 241.0313 158 240.9833 158 240.9833 C158 247.6174 160 297.9833 160 297.9833 "/>
<path id="7" d="M336 173.9833 C336 173.9833 336.9699 181.4307 339 184.9833 C339.9352 186.6199 343.4081 186.5458 344 187.9833 C345.7345 192.1958 343.9792 195.5535 346 201.9833 C349.2917 212.4569 351.8378 212.4426 355 222.9833 C357.6552 231.834 355.5914 235.8281 358 241.9833 C358.7579 243.9201 363.9255 244.7166 364 245.9833 C365.0936 264.5737 364.7425 280.2071 362 309.9833 C361.4676 315.764 358.0648 316.0506 357 321.9833 C354.7412 334.5682 357.6291 339.0512 355 348.9833 C354.1545 352.1773 349.89 353.0134 348 355.9833 C347.34 357.0205 348 359.9833 348 359.9833 "/>
<path id="8" d="M162 295.9833 C162 295.9833 162.5828 298.8177 162 299.9833 C161.1257 301.7319 158.189 302.377 158 303.9833 C156.7319 314.7624 157.0147 323.1446 158 333.9833 C158.1075 335.1657 160.5725 335.4872 161 336.9833 C163.9289 347.2346 162.2317 351.3065 166 361.9833 C167.615 366.5591 170.6599 366.3031 173 370.9833 C175.8082 376.5997 173.9261 378.5588 177 383.9833 C181.9062 392.6413 185.2601 392.34 190 400.9833 C193.181 406.7841 191.717 411.6625 194 414.9833 C194.9286 416.334 199.0076 415.2566 201 416.9833 C205 420.45 204.3078 423.7939 209 427.9833 C217.5569 435.6235 219.8889 439.9586 229 441.9833 C245.952 445.7504 254.8227 444.0042 272 441.9833 C275.4777 441.5742 275.8783 437.9357 280 435.9833 C284.722 433.7466 288.4095 435.25 291 432.9833 C293.7806 430.5503 294.2605 424.3752 296 421.9833 C296.2593 421.6268 298.7337 422.3028 299 421.9833 C299.8165 421.0035 299.6994 417.4698 301 415.9833 C302.0699 414.7606 305.4025 415.1037 306 413.9833 C307.8694 410.4782 307.1107 404.1322 309 400.9833 C309.7149 399.7919 313.2362 400.6491 315 398.9833 C320.8503 393.4581 323.9248 391.3637 327 383.9833 C330.4211 375.7727 328.1524 370.0659 330 362.9833 C330.236 362.0786 331.7516 361.049 333 360.9833 C339.411 360.6459 349 361.9833 349 361.9833 "/>
<path id="9" d="M289 413.9833 C289 413.9833 291.405 421.4264 294 422.9833 C298.1919 425.4985 301.8122 425.7655 309 425.9833 C317.5446 426.2423 325.5202 423.4079 327 423.9833 C327.3007 424.1003 326.2286 429.8977 327 432.9833 C327.3214 434.269 329.8651 436.0103 330 435.9833 C330.1573 435.9519 332 431.9833 332 431.9833 "/>
<path id="10" d="M315 358.9833 C315 358.9833 315.0767 364.2907 317 366.9833 C321.546 373.3477 325.6092 378.1538 330 379.9833 C332.3245 380.9519 336.1251 377.2399 341 376.9833 C344.4492 376.8018 347.1077 379.6141 349 378.9833 C351.4084 378.1805 356 371.9833 356 371.9833 "/>
</g>
</g>
</svg>
