<?xml version="1.0" encoding="utf-8"?>
<!DOCTYPE svg PUBLIC "-//W3C//DTD SVG 1.1//EN" "http://www.w3.org/Graphics/SVG/1.1/DTD/svg11.dtd">
<svg viewBox="0 0 800 800" preserveAspectRatio="xMinYMin meet" xmlns="http://www.w3.org/2000/svg" version="1.1">
<g fill="none" stroke="black" stroke-linecap="round" stroke-linejoin="round" stroke-width="1.0225">
<g transform="translate(168.2073,87.52) scale(2.9341) translate(-128,-126)">
<path id="0" d="M145 128 C145 128 154.3394 125.813 160 128 C173.4225 133.1859 175.1796 140.0247 189 145 C197.4056 148.026 200.572 147.2741 210 146 C217.5962 144.9735 218.5245 143.7377 226 140 C236.2296 134.8852 236.289 130.9555 246 128 C256.9249 124.675 272 126 272 126 "/>
<path id="1" d="M268 130 L259 130 "/>
<path id="2" d="M255 133 C255 133 250.7457 136.1104 250 139 C247.3637 149.2157 249.3403 154.3044 247 164 C246.5482 165.8715 244.0366 165.8231 243 168 C239.514 175.3207 241.2578 178.5012 237 185 C232.8264 191.3703 230.216 194.2805 224 197 C217.2305 199.9617 214.1011 199.2528 205 199 C196.793 198.772 194.3078 199.2495 188 196 C180.1049 191.9329 178.7095 189.3485 172 182 C168.8186 178.5156 168.4605 177.5641 167 173 C164.6632 165.6974 164.4606 164.8294 164 157 C163.4892 148.3165 165.8766 146.8892 165 139 C164.5372 134.8349 161 130 161 130 "/>
<path id="3" d="M172 137 C172 137 172.3688 141.6844 173 142 C175.5249 143.2624 186 144 186 144 "/>
<path id="4" d="M174 140 C174 140 174.0784 144.1568 175 146 C175.4962 146.9925 176.5304 147.6906 178 148 C185.054 149.485 189.853 150.2304 194 150 C194.5655 149.9686 196 147 196 147 "/>
<path id="5" d="M214 149 C214 149 221.2759 151.0889 223 150 C226.7519 147.6304 233 137 233 137 "/>
<path id="6" d="M224 143 L225 146 "/>
<path id="7" d="M159 126 C159 126 178.0781 124.9179 193 127 C197.2387 127.5914 198.371 131.6976 202 132 C207.6843 132.4737 209.6482 129.3342 217 129 C231.0634 128.3608 238.135 129.2135 246 130 C246.3243 130.0324 247 132 247 132 "/>
<path id="8" d="M193 171 C193 171 194.9746 173.946 196 174 C201.161 174.2716 212 172 212 172 "/>
<path id="9" d="M208 172 C208 172 202.5597 176.435 201 180 C199.8721 182.5781 201.0038 188.0015 201 188 C200.9892 187.9957 196.9425 182.4769 196 178 C195.2505 174.4398 197 169 197 169 "/>
<path id="10" d="M169 175 C169 175 163.8924 199.8479 165 222 C165.7905 237.8094 168.8484 243.5032 173 255 C173.5559 256.5394 176.3603 256.0709 178 258 C184.1517 265.2373 184.3908 272.329 190 275 C198.7727 279.1775 212.2027 281.3211 220 278 C229.5216 273.9445 238.0875 265.0792 244 252 C252.194 233.8739 251.6069 214.5528 253 205 C253.0204 204.8599 251.0532 204.3545 251 204 C250.2166 198.7774 251.4781 194.1152 250 185 C248.549 176.0519 245 167 245 167 "/>
<path id="11" d="M248 164 C248 164 251.7688 163.8372 253 165 C258.8223 170.4988 262.4554 172.6779 266 181 C272.9551 197.3294 269.9608 200.5805 276 219 C279.8446 230.7262 283.966 231.1518 286 242 C288.0289 252.8209 286.2913 264.7863 285 267 C284.6677 267.5696 274.0918 267.5996 272 266 C269.9976 264.4687 268 254 268 254 "/>
<path id="12" d="M268 259 C268 259 262.3734 254.1423 260 249 C256.9066 242.2976 256 233.0068 256 233 C256 232.9975 258.9994 235.8982 260 239 C263.6968 250.4601 265.9986 263.9993 266 264 C266.0008 264.0004 267.8867 251.1642 266 242 C264.8473 236.401 259.282 230.0705 259 230 C258.9224 229.9806 255.552 234.344 254 239 C249.247 253.259 250.2136 257.4125 246 269 C245.4296 270.5685 242.0124 272.0141 242 272 C241.6633 271.6152 239 261 239 261 "/>
<path id="13" d="M169 175 C169 175 166.1968 175.0208 165 176 C161.6354 178.7529 161.0752 179.7421 158 184 C148.1726 197.6072 146.7563 197.6365 139 212 C133.6643 221.881 133.3251 223.0085 131 234 C127.9936 248.2122 127.8421 259.1063 128 264 C128.006 264.1848 131.8496 264.5488 132 265 C132.9239 267.7716 132.9947 279.0096 133 279 C133.022 278.9597 149.9887 232.0186 150 232 C150.0037 231.9938 149.985 250.9699 150 251 C150.0051 251.0103 154.9925 241.9862 155 242 C155.0247 242.0452 155.9545 261.9013 156 262 C156.0104 262.0226 160.7953 255.0256 161 255 C161.0784 254.9902 163.9819 261.0127 164 261 C164.2434 260.8296 167.8216 252.4497 171 248 C171.555 247.2231 174 247 174 247 "/>
<path id="14" d="M186 288 C186 288 186.4647 270.6764 187 268 C187.0159 267.9205 189.9675 267.8863 190 268 C190.5413 269.8946 191 282 191 282 "/>
<path id="15" d="M191 289 L194 289 "/>
<path id="16" d="M210 285 C210 285 209.4636 277.7881 210 276 C210.1132 275.6225 212.9985 274.995 213 275 C213.2844 275.9243 214 289 214 289 C214 289 211.9695 268.2741 212 268 C212.0037 267.9663 215.6498 269.7743 216 271 C216.9298 274.2543 216.242 280.669 216 282 C215.992 282.044 214 282 214 282 "/>
<path id="17" d="M216 275 C216 275 217.8831 273 218 273 C218.0584 273 219 275 219 275 "/>
<path id="18" d="M214 291 C214 291 215.0048 295.0012 215 295 C214.9851 294.9963 210 290 210 290 "/>
<path id="19" d="M173 285 C173 285 188.2426 283.111 203 284 C229.302 285.5845 238.4961 288.727 256 290 C256.6075 290.0442 258 288 258 288 "/>
<path id="20" d="M178 285 C178 285 177.0419 288.479 176 289 C173.1347 290.4326 166 291 166 291 "/>
<path id="21" d="M189 277 C189 277 182.6064 303.7286 173 325 C169.622 332.4798 160.927 338.9869 161 339 C161.3826 339.0687 186.5454 334.3407 212 332 C229.7893 330.3642 230.9508 330.2587 248 331 C252.8035 331.2088 257.9994 334.0006 258 334 C258.0002 333.9998 253.1994 332.0394 250 329 C243.6514 322.9688 242.0856 322.5175 238 315 C230.2227 300.6897 230.6588 292.62 225 283 C224.1268 281.5156 218 281 218 281 "/>
<path id="22" d="M218 293 L220 319 "/>
<path id="23" d="M218 303 C218 303 224.6737 308.2345 228 314 C231.5475 320.149 233.0055 329.0039 233 329 C232.9856 328.9898 211 302 211 302 "/>
<path id="24" d="M200 309 C200 309 200.0018 294.0092 200 294 C199.9994 293.9972 198 299 198 299 "/>
<path id="25" d="M202 284 C202 284 195.6865 290.6269 192 298 C185.5001 310.9999 181 326 181 326 "/>
<path id="26" d="M199 309 C199 309 198.9851 311.005 199 311 C199.1636 310.9455 205 307 205 307 "/>
<path id="27" d="M203 323 L206 321 "/>
</g>
</g>
</svg>
