<?xml version="1.0" encoding="utf-8"?>
<!DOCTYPE svg PUBLIC "-//W3C//DTD SVG 1.1//EN" "http://www.w3.org/Graphics/SVG/1.1/DTD/svg11.dtd">
<svg viewBox="0 0 800 800" preserveAspectRatio="xMinYMin meet" xmlns="http://www.w3.org/2000/svg" version="1.1">
<g fill="none" stroke="black" stroke-linecap="round" stroke-linejoin="round" stroke-width="1.8097">
<g transform="translate(132.2784,87.52) scale(1.6577) translate(-104,-39)">
<path id="0" d="M284 41 C284 41 263.5833 37.9837 248 39 C243.5139 39.2926 242.0789 41.0088 238 44 C235.1945 46.0573 235.1726 46.8963 233 50 C231.765 51.7642 231 52.4911 231 54 C231 56.6405 231.9318 60.5916 233 61 C240.8332 63.995 249.1363 65.4396 265 67 C279.1161 68.3885 281.5278 69.0787 294 67 C300.0927 65.9845 304.8686 63.1971 307 60 C308.9954 57.007 308.2971 50.7529 308 46 C307.9547 45.2753 306.9416 44.2047 306 44 C297.6266 42.1797 285 41 285 41 "/>
<path id="1" d="M233 57 C233 57 231.1752 104.5049 235 108 C239.5507 112.1584 265.0366 111.1127 291 110 C297.6003 109.7171 302.3052 107.8533 305 105 C307.3415 102.5208 307.4842 98.4477 308 92 C309.4446 73.9425 309 55 309 55 "/>
<path id="2" d="M238 108 C238 108 236.3088 106.0873 235 106 C223.7222 105.2481 211.566 104.2785 208 106 C206.8432 106.5585 204.6832 115.5557 206 120 C207.5678 125.2914 210.504 129.0743 216 133 C222.5545 137.6818 224.9875 137.4652 234 140 C240.5725 141.8485 241.0102 141.6415 248 142 C279.772 143.6293 282.5379 145.1479 312 144 C318.0816 143.7631 319.7768 142.4064 325 139 C330.307 135.5389 333.6291 133.4866 335 129 C337.7622 119.9599 336.6272 115.5449 336 103 C335.658 96.1595 334.5832 90.3038 333 89 C331.4744 87.7437 324.1934 87.3381 319 89 C313.9699 90.6096 311.9323 92.5762 308 97 C304.805 100.5943 306.3172 103.0449 303 107 C293.9757 117.7597 293.1075 118.8862 282 128 C274.1481 134.4426 272.7299 134.635 264 139 C261.5853 140.2073 258 140 258 140 "/>
<path id="3" d="M227 107 C227 107 230.3583 110.4393 234 112 C240.2592 114.6825 241.1642 115.5117 248 116 C268.0972 117.4355 269.9431 117.1571 290 116 C294.8581 115.7197 300 113 300 113 "/>
<path id="4" d="M228 138 C228 138 222.4067 136.8077 219 138 C213.9089 139.7819 211.1352 141.081 208 145 C204.6267 149.2166 203.6006 151.8438 203 158 C201.7575 170.7354 202.0112 174.0672 204 186 C204.6237 189.7423 205.9523 190.7999 209 194 C215.5161 200.8419 216.3653 203.2858 224 207 C232.7475 211.2555 235.1352 210.7367 246 212 C256.1039 213.1749 256.8462 212.8959 267 212 C273.4137 211.4341 274.6121 211.7668 280 209 C291.9376 202.8699 296.3225 201.207 304 193 C307.9289 188.8001 308.0872 185.3026 309 178 C310.4605 166.3158 310.5337 164.3497 309 153 C308.2224 147.2454 304 141 304 141 "/>
<path id="5" d="M228 155 C228 155 224.9271 162.949 225 163 C225.3449 163.2414 236.9553 162.5223 238 162 C238.1161 161.942 237.506 157.6325 237 157 C236.7906 156.7383 234.4158 157.3118 234 157 C233.5496 156.6622 233.2843 154.0948 233 154 C232.3367 153.7789 228 155 228 155 "/>
<path id="6" d="M269 161 C269 161 268.9385 168.9385 270 170 C271.2738 171.2738 279.4773 172.3136 280 172 C280.2851 171.8289 280.9856 165.1648 280 164 C278.2372 161.9167 270.1536 159.1923 269 159 C268.9513 158.9919 268 162 268 162 "/>
<path id="7" d="M245 169 C245 169 198.0035 202.9967 198 203 C197.9988 203.0011 208.6342 199.5315 217 195 C219.7637 193.503 219.4328 190.9508 222 190 C230.9367 186.6901 235.4152 188.877 244 185 C248.6235 182.912 251.7483 178.3245 253 176 C253.2642 175.5093 252.0472 172.748 251 172 C249.768 171.12 246 171 246 171 "/>
<path id="8" d="M232 197 L235 196 "/>
<path id="9" d="M240 196 L247 196 "/>
<path id="10" d="M251 194 L254 194 "/>
<path id="11" d="M263 194 L263 193 "/>
<path id="12" d="M269 192 L270 191 "/>
<path id="13" d="M218 203 C218 203 211.9949 202.0785 209 203 C207.2593 203.5356 205.8743 205.2515 205 207 C204.4172 208.1657 204.4674 209.5797 205 211 C205.6824 212.8197 206.3187 214.0393 208 215 C212.2259 217.4148 213.5786 218.4217 219 219 C249.5672 222.2605 251.7033 222.1871 283 223 C289.3215 223.1642 290.4709 223.2462 296 221 C305.3944 217.1835 311.7697 214.5905 315 210 C317.1208 206.9862 316.3405 196.8299 315 194 C314.3915 192.7154 306 191 306 191 "/>
<path id="14" d="M222 209 C222 209 221.6667 213.8 222 214 C223.1778 214.7067 231.0449 215.191 232 215 C232.0585 214.9883 232.18 212.135 232 212 C231.68 211.76 228 212 228 212 "/>
<path id="15" d="M252 212 C252 212 247.0645 220.3546 247 221 C246.9959 221.0408 250.7292 222.2257 251 222 C251.5986 221.5011 253 216 253 216 "/>
<path id="16" d="M276 210 C276 210 276.4375 217.5625 277 218 C277.5625 218.4375 284.5217 217.5467 285 217 C285.3662 216.5815 284.6539 210.5086 284 210 C283.1882 209.3686 276 210 276 210 "/>
<path id="17" d="M297 206 C297 206 298.7164 212.2512 300 213 C301.6309 213.9514 307.4979 213.8193 309 213 C309.88 212.52 311.166 208.4942 311 207 C310.9042 206.138 309.3034 204.391 308 204 C305.6606 203.2982 302.9035 203.3655 301 204 C300.1842 204.2719 299 207 299 207 "/>
<path id="18" d="M235 219 C235 219 241.7381 231.8891 250 243 C255.972 251.0313 256.8036 254.125 264 258 C273.2024 262.9552 282.0452 264.7948 289 264 C292.1873 263.6357 293.7405 257.8754 299 254 C302.6179 251.3342 308.0048 250.0097 308 250 C307.8255 249.651 300.0941 243.8972 292 240 C287.1608 237.67 284.1438 239.4452 281 237 C277.3322 234.1473 276.1423 231.3558 274 226 C272.5407 222.3518 273 217 273 217 "/>
<path id="19" d="M249 234 C249 234 256.8291 235.1424 257 235 C257.0715 234.9404 256.1059 229.9677 255 229 C253.9513 228.0823 249 228 249 228 "/>
<path id="20" d="M264 232 C264 232 270.8776 231.1836 271 231 C271.0648 230.9028 268 226 268 226 "/>
<path id="21" d="M268 226 L264 233 "/>
<path id="22" d="M261 246 C261 246 264.868 248.1132 265 248 C265.5694 247.512 268.1857 240.9285 268 240 C267.9247 239.6236 263.6259 237.7653 263 238 C262.2821 238.2692 260 243 260 243 "/>
<path id="23" d="M276 249 C276 249 278.8044 253.002 281 254 C282.8114 254.8234 286.9331 254.1671 287 254 C287.2563 253.3593 285.6424 244.571 285 244 C284.6919 243.7261 278 246 278 246 "/>
<path id="24" d="M294 249 C294 249 299.5549 250.1484 300 250 C300.0786 249.9738 300.2882 247.2059 300 247 C298.8664 246.1903 293 245 293 245 "/>
<path id="25" d="M208 215 C208 215 199.6683 218.0874 194 223 C185.4433 230.4158 184.3243 232.2162 178 241 C176.1918 243.5113 176.1239 244.6539 176 248 C175.6503 257.4427 174.144 260.384 177 268 C180.5393 277.4382 186.1284 282.2687 191 288 C191.3894 288.4581 193.2399 287.4361 194 288 C205.4173 296.4709 207.603 302.2489 222 311 C231.5554 316.8082 233.843 317.7249 245 319 C266.9274 321.506 269.8346 320.7875 292 319 C299.2642 318.4142 300.6704 317.6923 307 314 C317.7161 307.7489 320.7244 306.8671 328 298 C335.0117 289.4545 336.7673 285.9607 339 275 C341.7422 261.5384 341.3177 257.327 339 244 C337.7745 236.9533 335.6651 235.586 331 229 C327.5294 224.1003 326.7595 223.4374 322 220 C318.3494 217.3634 313 216 313 216 "/>
<path id="26" d="M185 281 C185 281 174.5752 282.6165 168 287 C159.6505 292.5663 157.6253 294.4496 152 303 C146.0789 312 144.9885 314.3945 143 325 C140.8173 336.6409 141.4454 339.1853 143 351 C143.7568 356.7519 144.4258 358.5322 148 363 C155.4166 372.2707 156.7128 373.8183 167 381 C182.4032 391.7532 183.7528 395.0922 201 400 C241.9457 411.6512 245.9209 410.2661 290 416 C306.4544 418.1404 308.1854 418.433 324 416 C339.1348 413.6716 341.0791 412.5343 355 406 C364.4 401.5878 365.2983 400.1093 373 393 C377.6605 388.698 380.0778 387.0722 381 382 C384.285 363.9324 384.2185 359.0194 383 338 C382.2962 325.859 380.9978 324.3271 377 313 C375.361 308.3561 374.4638 307.6947 371 304 C367.3438 300.1 366.7857 299.4754 362 297 C352.847 292.2657 351.5782 291.7366 342 289 C338.5617 288.0176 334 289 334 289 "/>
<path id="27" d="M104 194 C104 194 112.5079 199.2756 120 202 C122.3773 202.8645 123.7706 202.6688 126 202 C127.8206 201.4538 129.6498 200.2257 130 199 C130.9298 195.7457 130.8445 192.7856 130 188 C129.4987 185.1593 126.9295 182.1058 127 182 C127.0823 181.8766 133.8578 181.6251 134 182 C135.6342 186.3084 134.6721 198.0211 138 211 C139.2789 215.9876 142.0059 215.9039 144 221 C146.289 226.8498 144.7272 230.1362 147 234 C148.2496 236.1243 150.589 237.1472 154 238 C159.6495 239.4124 161.278 239.9537 167 239 C175.0256 237.6624 184 233 184 233 "/>
<path id="28" d="M105 198 C105 198 115.6877 201.545 124 207 C130.9669 211.572 133.8063 213.2513 137 219 C139.6768 223.8182 136.8656 228.1304 139 234 C140.2461 237.4267 142.2947 240.2146 145 241 C153.6158 243.5014 158.2654 243.326 170 243 C175.2139 242.8552 181 240 181 240 "/>
<path id="29" d="M315 256 C315 256 323.2331 249.0904 332 244 C338.3952 240.2867 339.1155 239.6064 346 238 C353.257 236.3067 357.3401 234.7927 362 237 C371.304 241.4072 373.3114 250.2647 384 256 C390.8423 259.6715 397.0619 259.2582 403 259 C404.3135 258.9429 405.2769 255.4595 407 255 C410.741 254.0024 413.766 253.7298 418 255 C422.157 256.2471 425.5779 259.0446 427 261 C427.4843 261.666 426.3451 265.908 426 266 C423.9689 266.5416 412.3802 264.7926 412 265 C411.9769 265.0126 413.0784 270.2386 415 272 C417.5848 274.3694 423.2825 275.0774 424 276 C424.2247 276.2889 423.0116 280.393 422 281 C420.26 282.044 416.9364 282.839 414 282 C408.2903 280.3687 405.3025 278.7647 401 275 C398.9472 273.2038 400.0485 270.421 398 268 C395.2576 264.759 394.2057 263.8692 390 262 C381.4571 258.2032 378.3254 260.186 371 256 C366.1941 253.2538 365.807 247.0575 362 246 C353.2725 243.5757 343.0565 242.856 335 246 C328.9595 248.3573 325.0654 259.1542 321 262 C320.2579 262.5195 315.7643 260.8917 315 260 C314.465 259.3758 315 255 315 255 "/>
</g>
</g>
</svg>
