<?xml version="1.0" encoding="utf-8"?>
<!DOCTYPE svg PUBLIC "-//W3C//DTD SVG 1.1//EN" "http://www.w3.org/Graphics/SVG/1.1/DTD/svg11.dtd">
<svg viewBox="0 0 800 800" preserveAspectRatio="xMinYMin meet" xmlns="http://www.w3.org/2000/svg" version="1.1">
<g fill="none" stroke="black" stroke-linecap="round" stroke-linejoin="round" stroke-width="1.4161">
<g transform="translate(107.6458,87.52) scale(2.1185) translate(-153,-93.1333)">
<path id="0" d="M294 93.1333 C294 93.1333 282.1723 91.7205 272 93.1333 C265.2056 94.077 263.7164 94.6156 258 98.1333 C251.7171 101.9997 250.13 103.3028 246 109.1333 C242.4966 114.0793 242.0844 115.8436 241 122.1333 C239.7483 129.3932 240.0553 130.8903 241 138.1333 C241.4364 141.4793 241.8115 142.9449 244 145.1333 C250.5654 151.6988 252.4229 153.9673 261 158.1333 C268.3368 161.6969 270.1871 161.6775 279 162.1333 C298.3367 163.1335 302.0338 164.0144 319 161.1333 C325.0645 160.1035 327.5097 157.6236 332 153.1333 C335.2073 149.926 335.5993 148.1358 337 143.1333 C338.9118 136.3055 339 135.4484 339 128.1333 C339 117.4045 339.9949 112.7648 337 106.1333 C335.1145 101.9583 331.0606 99.5208 325 97.1333 C316.1985 93.6661 304 93.1333 304 93.1333 "/>
<path id="1" d="M250 154.1333 C250 154.1333 242.5127 153.2958 237 155.1333 C228.7309 157.8897 227.3179 159.2547 220 164.1333 C217.6667 165.6888 217.2746 166.4567 216 169.1333 C212.5191 176.4433 210.9239 177.3464 210 185.1333 C207.6163 205.2244 206.5464 210.9578 209 228.1333 C209.8179 233.8585 212.7936 236.1439 218 241.1333 C223.9646 246.8494 225.2724 248.3631 233 251.1333 C250.1418 257.2785 252.4203 257.8812 271 260.1333 C284.2506 261.7395 286.2673 261.8618 299 259.1333 C312.6997 256.1977 313.2316 254.0726 327 248.1333 C338.666 243.1009 340.5162 244.0091 350 237.1333 C359.2006 230.4629 361.0394 228.3451 367 219.1333 C370.9536 213.0233 370.6519 210.9525 372 203.1333 C373.0394 197.105 372.878 195.9867 372 190.1333 C371.4968 186.7789 370.9813 186.1815 369 183.1333 C364.6831 176.492 364.756 174.81 359 170.1333 C349.8849 162.7274 337 157.1333 337 157.1333 "/>
<path id="2" d="M213 238.1333 C213 238.1333 198.232 242.6012 191 249.1333 C185.4847 254.1149 183.1698 258.0511 182 266.1333 C178.2106 292.3148 180 296.1429 180 325.1333 C180 331.5211 180.0237 332.2045 182 338.1333 C185.326 348.1112 185.7095 349.0219 191 358.1333 C194.403 363.994 194.8501 365.7452 200 369.1333 C212.1195 377.1067 214.3971 378.1788 229 383.1333 C241.4163 387.346 242.6132 387.0361 256 388.1333 C272.6054 389.4944 273.3024 389.6176 290 388.1333 C317.8512 385.6577 318.7174 385.6548 346 380.1333 C360.1204 377.2756 360.8356 376.8121 374 371.1333 C385.8124 366.0378 388.4913 365.5784 397 358.1333 C402.4765 353.3414 403.9882 350.5099 406 343.1333 C409.4368 330.5317 411.0518 326.6305 409 314.1333 C406.0996 296.4671 403.9309 293.525 395 276.1333 C385.4495 257.5351 383.2376 254.8184 371 240.1333 C367.6857 236.1561 360 234.1333 360 234.1333 "/>
<path id="3" d="M275 109.1333 C275 109.1333 268.8978 110.0111 268 111.1333 C266.9605 112.4327 266.5038 118.7134 267 119.1333 C268.4225 120.337 279.7799 122.54 281 122.1333 C281.3441 122.0186 282.6312 115.5219 282 114.1333 C281.5209 113.0793 276 111.1333 276 111.1333 "/>
<path id="4" d="M275 118.1333 L274 117.1333 "/>
<path id="5" d="M301 112.1333 C301 112.1333 296.3316 112.6028 296 113.1333 C295.4374 114.0335 295.2982 117.7939 296 120.1333 C296.391 121.4367 297.5013 122.5981 299 123.1333 C303.312 124.6733 306.0763 125.5949 310 125.1333 C312.3585 124.8559 314.7702 123.0658 316 121.1333 C317.2012 119.2458 317.5506 114.739 317 114.1333 C315.7344 112.7412 306 110.1333 306 110.1333 "/>
<path id="6" d="M307 118.1333 L307 119.1333 "/>
<path id="7" d="M269 134.1333 C269 134.1333 267 136.1119 267 136.1333 C267 136.1333 269 136.1333 269 136.1333 "/>
<path id="8" d="M274 144.1333 L275 144.1333 "/>
<path id="9" d="M285 148.1333 L286 146.1333 "/>
<path id="10" d="M298 147.1333 L298 145.1333 "/>
<path id="11" d="M309 142.1333 L310 143.1333 "/>
<path id="12" d="M288 127.1333 C288 127.1333 287.1035 131.4439 288 134.1333 C289.238 137.8473 291.0203 140.3736 293 142.1333 C293.6538 142.7145 296.3631 142.5155 297 142.1333 C297.4459 141.8658 297.8379 140.5921 298 139.1333 C298.3126 136.32 298.7552 135.3989 298 133.1333 C297.077 130.3643 294 127.1333 294 127.1333 "/>
<path id="13" d="M214 181.1333 C214 181.1333 187.9452 171.6356 164 161.1333 C160.2545 159.4906 157 156.1333 157 156.1333 "/>
<path id="14" d="M174 164.1333 L181 127.1333 "/>
<path id="15" d="M179 144.1333 C179 144.1333 175.0068 141.1786 171 140.1333 C164.1229 138.3393 156 138.1333 156 138.1333 "/>
<path id="16" d="M174 169.1333 L153 180.1333 "/>
<path id="17" d="M179 172.1333 L179 187.1333 "/>
<path id="18" d="M350 184.1333 L415 137.1333 "/>
<path id="19" d="M400 150.1333 C400 150.1333 398.9633 138.1547 400 128.1333 C400.3445 124.8034 403 121.1333 403 121.1333 "/>
<path id="20" d="M396 157.1333 C396 157.1333 398.8289 160.7917 402 162.1333 C410.8069 165.8593 422 168.1333 422 168.1333 "/>
<path id="21" d="M413 165.1333 L429 156.1333 "/>
<path id="22" d="M284 181.1333 C284 181.1333 281.5687 179.8896 281 180.1333 C279.7361 180.675 277.2295 182.8709 277 184.1333 C276.6778 185.9057 278.1669 190.8093 279 191.1333 C281.8229 192.2311 293.1779 191.7027 295 191.1333 C295.1779 191.0777 295.7004 187.394 295 186.1333 C294.0506 184.4244 292.2515 182.7766 290 182.1333 C286.7013 181.1909 281 182.1333 281 182.1333 "/>
<path id="23" d="M285 216.1333 C285 216.1333 280.0761 218.9812 279 221.1333 C278.0584 223.0165 278.5487 227.8944 279 228.1333 C281.1993 229.2977 293.5961 231.0949 296 230.1333 C297.0387 229.7179 299.2784 221.9428 299 220.1333 C298.89 219.4183 296.3223 217.5978 294 217.1333 C289.853 216.3039 284 217.1333 284 217.1333 "/>
<path id="24" d="M288 290.1333 C288 290.1333 280.7101 291.0288 280 292.1333 C278.7432 294.0884 278.7129 300.1143 279 304.1333 C279.0516 304.8553 280.1436 306.0049 281 306.1333 C287.7583 307.1471 291.1827 307.4887 299 307.1333 C300.7811 307.0524 302.0372 306.3712 303 305.1333 C304.7581 302.8729 305.5531 301.262 306 298.1333 C306.4126 295.2454 306.0904 292.1329 305 291.1333 C302.8437 289.1567 298.9666 288.0098 294 287.1333 C291.5292 286.6973 288 288.1333 288 288.1333 "/>
</g>
</g>
</svg>
