<?xml version="1.0" encoding="utf-8"?>
<!DOCTYPE svg PUBLIC "-//W3C//DTD SVG 1.1//EN" "http://www.w3.org/Graphics/SVG/1.1/DTD/svg11.dtd">
<svg viewBox="0 0 800 800" preserveAspectRatio="xMinYMin meet" xmlns="http://www.w3.org/2000/svg" version="1.1">
<g fill="none" stroke="black" stroke-linecap="round" stroke-linejoin="round" stroke-width="2.0689">
<g transform="translate(111.4454,87.52) scale(1.45) translate(-103,-50)">
<path id="0" d="M214 52 C214 52 213.0076 55.8167 214 58 C219.5935 70.3057 222.4816 71.1485 229 85 C238.3779 104.928 238.5479 105.5068 246 126 C248.3835 132.5547 249 140 249 140 "/>
<path id="1" d="M211 50 C211 50 264.0224 52.5682 317 54 C337.9697 54.5667 341.4136 54.7816 359 54 C360.2934 53.9425 362.0012 51.9968 362 52 C361.9953 52.0124 358.1524 56.7594 356 62 C346.8508 84.2764 348.9898 86.204 339 108 C332.8095 121.5064 329.488 122.6459 323 134 C322.6308 134.6462 322.9839 135.999 323 136 C326.8589 136.249 339.3675 134.9026 354 136 C358.3543 136.3266 361.259 137.4331 363 139 C363.9524 139.8571 364.5803 143.2591 364 145 C363.2149 147.3553 361.7789 149.7122 359 151 C343.9903 157.9557 340.4383 161.8202 323 164 C291.4836 167.9396 287.7628 167.0058 255 164 C234.8039 162.1471 232.5148 160.5145 214 154 C207.2764 151.6343 202.8278 147.6587 201 145 C200.4268 144.1663 201.7671 138.9247 203 138 C204.9556 136.5333 208.0643 136.2057 213 136 C231.6005 135.225 251 136 251 136 "/>
<path id="2" d="M223 158 C223 158 212.8205 166.5458 210 174 C207.1175 181.618 206.8597 186.6333 209 195 C211.5866 205.1113 214.2153 207.7482 221 217 C224.3776 221.6059 228.1931 221.9125 231 225 C231.4927 225.542 230.8125 227.8125 231 228 C231.1875 228.1875 234.0186 227.9704 234 228 C233.4991 228.7968 219.7644 245.2909 209 263 C204.7868 269.9315 204.1248 271.1261 203 279 C200.3118 297.8172 198.9072 300.6883 201 319 C202.6387 333.3389 211 346.1226 211 349 C211 349.1918 205.021 348.9895 201 351 C194.0547 354.4727 192.4807 355.2909 187 361 C181.2481 366.9916 180.1314 368.2637 177 376 C172.0955 388.117 172.5725 389.7698 170 403 C169.1836 407.1984 169.0912 408.0015 170 412 C171.4274 418.2805 171.7033 419.2308 175 425 C179.4253 432.7443 179.8697 433.3981 186 440 C192.5471 447.0507 192.9999 447.6666 201 453 C212.0424 460.3616 212.6784 460.7193 225 466 C240.2979 472.5562 240.953 473.1793 257 477 C271.8109 480.5264 272.5885 480.6309 288 481 C355.4034 482.6145 365.009 485.5089 424 481 C433.5067 480.2734 436.8422 476.3211 445 469 C454.9224 460.0953 456.1104 457.8501 463 446 C467.9553 437.4768 468.3392 435.7274 470 426 C471.6455 416.3622 473.0024 413.3399 470 405 C460.89 379.6944 457.7288 376.6897 443 351 C436.6037 339.8436 435.7236 338.4422 427 330 C421.3057 324.4894 419.3561 323.3119 412 321 C403.4886 318.325 392.0143 319.1003 392 319 C391.9511 318.6576 403.4933 309.9544 409 300 C415.3936 288.4424 416.359 285.5384 418 272 C420.1367 254.3718 419.1059 251.5494 417 234 C416.3039 228.1993 415.1483 225.823 412 222 C409.5756 219.056 403.1522 217.9129 403 217 C402.7191 215.3146 407.8888 210.0007 409 204 C410.0879 198.1253 410.1374 193.7816 408 190 C405.6839 185.9024 402.3931 183.9507 396 181 C377.4294 172.429 375.3818 174.3065 356 166 C347.7106 162.4474 340 157 340 157 "/>
<path id="3" d="M267 184 C267 184 268.4027 192.2036 269 193 C269.1138 193.1517 272.6046 192.4942 273 192 C273.3766 191.5293 273.5276 189.231 273 188 C272.4347 186.6811 270.2423 185 270 185 C269.8384 185 268 188 268 188 "/>
<path id="4" d="M304 187 C304 187 304.6862 192.6862 306 194 C307.3138 195.3138 312.9752 196.0124 313 196 C313.0041 195.9979 310.9592 192.4111 310 192 C309.2733 191.6886 306.0071 193.0036 306 193 C305.998 192.999 308 191 308 191 "/>
<path id="5" d="M269 216 C269 216 279.9057 224.6249 290 227 C302.9388 230.0444 320 228 320 228 "/>
<path id="6" d="M298 210 C298 210 353.9767 210.9793 354 211 C354.0101 211.009 332.9196 216.4368 316 226 C299.7768 235.1696 285.398 249.801 285 250 C284.9491 250.0255 284.5158 244.8341 286 241 C290.1516 230.2751 292.5473 229.7608 297 219 C298.2433 215.9954 298 212 298 212 "/>
<path id="7" d="M411 199 C411 199 417.6206 185.7643 427 177 C446.9364 158.3709 461.1121 156.9116 472 142 C476.6098 135.6865 473 113.9999 473 114 C473 114.0001 472.4266 147.5995 475 151 C476.3147 152.7372 501 151 501 151 "/>
<path id="8" d="M482 141 L501 131 "/>
<path id="9" d="M216 268 C216 268 194.7089 243.4387 171 223 C151.7987 206.4472 148.0053 207.8737 129 193 C126.4761 191.0247 125 187 125 187 "/>
<path id="10" d="M103 209 C103 209 143.9728 212.318 149 209 C151.8174 207.1405 153 176 153 176 "/>
</g>
</g>
</svg>
