<?xml version="1.0" encoding="utf-8"?>
<!DOCTYPE svg PUBLIC "-//W3C//DTD SVG 1.1//EN" "http://www.w3.org/Graphics/SVG/1.1/DTD/svg11.dtd">
<svg viewBox="0 0 800 800" preserveAspectRatio="xMinYMin meet" xmlns="http://www.w3.org/2000/svg" version="1.1">
<g fill="none" stroke="black" stroke-linecap="round" stroke-linejoin="round" stroke-width="1.8913">
<g transform="translate(93.8648,87.52) scale(1.5862) translate(-19,-53)">
<path id="0" d="M162,304C162,304 134.26288032126428,303.1522177964894 108,306C93.58459680143939,307.5631160094825 92.1617651751267,307.8385234607346 79,313C67.76494164791531,317.40590523611166 66.10343152436451,318.33395240053516 57,326C48.15832848751816,333.44561811577415 44.175582023237446,336.4656233125494 41,345C37.94575894875952,353.2082728252088 37.84675441143006,359.25360454442017 41,369C47.7161039619296,389.75886679141876 51.10029261368403,392.0853627755659 63,413C67.26545337978074,420.4968574553722 68.11537601495088,421.11537601495087 74,427C77.06000447222554,430.06000447222555 77.86118439512458,430.46710533152764 82,432C90.75997438174761,435.24443495620283 91.4237795384216,434.99208280644325 101,437C122.3404108435818,441.4746022736542 122.58068562019362,443.15350738105115 144,445C179.87354784052812,448.0925472276317 184.0914854369605,450.6906745304343 217,447C233.08447494887997,445.1961336505929 234.47358090880024,440.81654957016206 251,433C271.3144106926091,423.3918327805227 272.74512066083303,424.1699195594447 291,412C307.9026660547843,400.73155596347715 317.9915507844155,395.70771901262895 323,385C327.0094541568265,376.42806352678474 326.19062043829996,361.2294975392418 320,350C309.01321857155164,330.0704895018843 298.5803079632302,323.7587091433057 280,307C276.76763681774565,304.08453516894707 274.4713367766052,304.49101740302865 269,304C236.29646936941566,301.06506776392194 234.70902587250131,303.191124475366 202,300C194.5300776961461,299.27122709230695 194.37485342797308,296.8939216276331 187,296C178.42727409742463,294.96088170877874 177.10003067239273,294.5272671504741 169,296C161.75906348983074,297.3165339109399 154,302 154,302"/>
<path id="1" d="M124,304C124,304 112.98052069479306,303.5468980865747 105,300C96.42200716762886,296.1875587411684 93.31759613265024,295.03799488144886 88,288C78.1876557945819,275.0130738457702 77.55697560846126,271.3924390211531 71,255C68.00158401824133,247.50396004560335 66.57181324257452,242.7606225247516 68,238C69.47254038343247,233.09153205522506 73.30909521875658,229.2578484971549 80,225C93.71185419295175,216.27427460448524 95.63484886504358,215.39510476976585 112,210C140.3250489156191,200.66207178605964 142.04895454864686,200.36130471321354 171,195C181.30990467512217,193.0907583934959 182.76534914689773,193.2942248578163 193,195C205.7157783326422,197.1192963887737 207.52203242945708,197.26101621472856 219,203C233.34745946317864,210.17372973158933 234.75654951263954,211.64015727992577 247,222C253.34608166622348,227.36976140988142 253.7057938271329,228.58273479232045 258,236C264.40247276936514,247.05881660163075 265.39831648745013,248.29452858421303 269,260C271.0133006151613,266.5432269992742 270.61011150944006,268.5938291508796 270,275C269.74270057748856,277.70164393637026 269.02932646109684,278.7451928210035 267,281C260.58546233561333,288.1272640715407 259.84197470265485,288.9677117671886 252,295C247.24799741898826,298.6553866007783 246.41873463393492,299.0036240822345 241,301C237.5674151123679,302.26463653754865 233,302 233,302"/>
<path id="2" d="M131,206C131,206 125.22968746272224,203.06049996421336 121,199C113.07692515954184,191.39384815316015 112.61393828955349,190.70255038099142 106,182C103.4289479325116,178.61703675330474 102.53832815729997,177.76829710109982 102,174C100.74390096630006,165.20730676410042 99.05542196662406,160.47807167342705 102,154C106.87193820067652,143.28173595851163 111.87894341686905,135.48938662135916 122,130C135.28518566892495,122.79447556939662 141.59108812194168,124.56882657209596 161,122C175.11492453393302,120.13184822345005 176.6496412321149,120.27835898551973 190,121C193.76452693548208,121.2034879424585 194.73770992407142,121.82513994938094 198,124C204.6333231543881,128.42221543625874 205.7409229932895,128.78472717388757 211,135C221.73881458712915,147.69132633024355 221.7755567673006,148.962803776327 231,163C233.01144109379695,166.06088862099537 233.58210780552244,166.6568624441794 234,170C234.96327692286354,177.70621538290845 235.33830534421358,181.11145648546025 234,187C233.5169218677304,189.12554378198627 231.52562591964931,191.09077466892626 229,192C221.03685004157626,194.86673398503254 209,196 209,196"/>
<path id="3" d="M146,112C146,112 139.51493578951772,95.207363976892 137,79C135.17210180711746,67.22021164586796 136.17087109871645,58.311470286674506 137,54C137.06505472917763,53.66171540827631 139.58550264385033,52.9486277158266 142,53C162.38908878526388,53.433810399686465 179.90370198660213,51.74158112570625 184,55C186.65469156968382,57.111686475884845 186,71.72443838582954 186,88C186,97.37077789906783 184,107 184,107"/>
<path id="4" d="M147,112C147,112 132.37174092783726,114.62825907216273 131,116C130.4513036288651,116.54869637113491 133,126 133,126"/>
<path id="5" d="M187,107C187,107 194.4436685602462,107.19641014257786 195,108C196.07993750069855,109.55990972323121 196,120 196,120"/>
<path id="6" d="M142,154C142,154 142.62949487553885,159.62949487553885 143,160C143.15878791048334,160.15878791048334 146.8125,159.3125 147,159C147.1875,158.6875 146,155 146,155"/>
<path id="7" d="M187,151C187,151 186.79858777334144,155.86572518222763 187,156C187.32225956265367,156.2148397084358 192.21779326828593,155.52147115447605 193,155C193.23466201951422,154.84355865365717 193.18,152.135 193,152C192.68,151.76 189,152 189,152"/>
<path id="8" d="M173,171C173,171 173.58182107847463,168.1792195377966 174,168C175.0977196690041,167.52954871328396 178.685451729836,167.26969540546443 180,168C181.265861297195,168.70325627621943 183,173 183,173"/>
<path id="9" d="M246,216C246,216 259.3988566371678,216.8928687598496 272,220C295.55838122097003,225.80891591749946 296.84968239289486,225.03439525426697 319,234C337.9659591084345,241.67669773436634 338.3855756260821,243.11108311430527 356,254C365.5111403801708,259.8796140531965 374,268 374,268"/>
<path id="10" d="M369,262L405,248"/>
<path id="11" d="M365,265L382,298"/>
<path id="12" d="M375,270C375,270 384.798128791164,271.164045455705 390,273C390.9908326112069,273.34970562748475 392,276 392,276"/>
<path id="13" d="M103,214C103,214 80.82161712189551,213.86283888241712 63,218C55.123342868900465,219.8285096911481 50.23174840829019,221.90378135615776 47,227C40.528269429513145,237.20542128422926 42.879481013755765,243.6480217974155 37,259C34.03581984520271,266.73980373752624 31.438133947328758,266.6855981580137 29,274C27.297906489600674,279.10628053119796 28,286 28,286"/>
<path id="14" d="M28,283L42,291"/>
<path id="15" d="M30,286C30,286 27.19265299028303,285.34946200530015 26,286C22.937050274954934,287.67069985002456 19,292 19,292"/>
<path id="16" d="M31,288L31,299"/>
</g>
</g>
</svg>
