<?xml version="1.0" encoding="utf-8"?>
<!DOCTYPE svg PUBLIC "-//W3C//DTD SVG 1.1//EN" "http://www.w3.org/Graphics/SVG/1.1/DTD/svg11.dtd">
<svg viewBox="0 0 800 800" preserveAspectRatio="xMinYMin meet" xmlns="http://www.w3.org/2000/svg" version="1.1">
<g fill="none" stroke="black" stroke-linecap="round" stroke-linejoin="round" stroke-width="0.93126">
<g transform="translate(98.7951,87.52) scale(3.2214) translate(-193,-128.4167)">
<path id="0" d="M267 164.4167 C267 164.4167 260.9244 164.5699 257 166.4167 C253.4765 168.0748 252.4756 169.1985 250 172.4167 C247.9761 175.0478 247.0955 176.266 247 179.4167 C246.6507 190.9421 246.5301 193.6845 249 205.4167 C250.2399 211.3062 255 217.4167 255 217.4167 "/>
<path id="1" d="M252 168.4167 C252 168.4167 260.247 163.7458 268 162.4167 C276.6505 160.9337 279.6921 160.3613 287 162.4167 C292.9737 164.0968 295.7803 166.4937 300 171.4167 C303.4116 175.3969 303.8888 177.6385 305 183.4167 C306.2002 189.6578 306.7283 192.0398 305 197.4167 C302.9146 203.9046 301.1829 207.0311 296 211.4167 C290.0903 216.4172 287.1094 217.8343 279 219.4167 C268.5142 221.4627 263.6912 220.0852 255 219.4167 C254.22 219.3567 253 217.4167 253 217.4167 "/>
<path id="2" d="M254 220.4167 C254 220.4167 249.8218 228.3867 250 231.4167 C250.1042 233.1883 253.0241 237.068 255 237.4167 C264.4575 239.0856 270.3214 238.9365 284 237.4167 C291.8089 236.549 300 232.4167 300 232.4167 "/>
<path id="3" d="M266 233.4167 C266 233.4167 272.3652 233.8335 274 232.4167 C277.2081 229.6364 276.9883 224.6791 281 220.4167 C283.9072 217.3278 290 215.4167 290 215.4167 "/>
<path id="4" d="M268 230.4167 L268 240.4167 "/>
<path id="5" d="M290 214.4167 C290 214.4167 310.3339 211.5079 312 212.4167 C312.6085 212.7486 312.9213 220.2744 312 226.4167 C311.5755 229.2465 310.7781 230.9618 309 232.4167 C306.6496 234.3397 304.5335 234.8731 301 235.4167 C298.9763 235.728 296 234.4167 296 234.4167 "/>
<path id="6" d="M307 196.4167 C307 196.4167 310.7268 196.9387 311 197.4167 C311.4988 198.2896 311.945 201.9466 311 203.4167 C308.8287 206.7943 302 211.4167 302 211.4167 "/>
<path id="7" d="M249 207.4167 C249 207.4167 246.2161 208.6241 246 209.4167 C245.3097 211.9476 245.1989 217.5354 246 218.4167 C246.9872 219.5026 256 220.4167 256 220.4167 "/>
<path id="8" d="M265 184.4167 C265 184.4167 266.5673 187.3549 267 187.4167 C267.84 187.5367 272 185.4233 272 185.4167 C272 185.4134 267 184.4167 267 184.4167 "/>
<path id="9" d="M287 183.4167 C287 183.4167 287.5175 186.9342 288 187.4167 C288.2895 187.7062 290.9933 187.4436 291 187.4167 C291.0315 187.2908 289 183.4167 289 183.4167 "/>
<path id="10" d="M276 194.4167 C276 194.4167 275.9 196.3667 276 196.4167 C276.4 196.6167 279.9955 196.4189 280 196.4167 C280.0017 196.4158 278 195.4167 278 195.4167 "/>
<path id="11" d="M266 207.4167 C266 207.4167 270.4612 207.6322 271 207.4167 C271.0862 207.3822 271 205.4167 271 205.4167 "/>
<path id="12" d="M276 205.4167 C276 205.4167 277.9542 206.4396 278 206.4167 C278.0306 206.4014 278 204.4167 278 204.4167 "/>
<path id="13" d="M282 202.4167 L285 202.4167 "/>
<path id="14" d="M232 164.4167 C232 164.4167 302.3838 166.4985 312 165.4167 C312.1354 165.4014 312.1249 155.43 312 155.4167 C303.2431 154.4826 248.6459 155.5778 237 157.4167 C236.6012 157.4796 236 167.4167 236 167.4167 "/>
<path id="15" d="M259 156.4167 C259 156.4167 256.3079 138.1547 258 133.4167 C258.6672 131.5484 263.7404 129.7316 269 128.4167 C272.8642 127.4506 274.6879 127.0918 278 128.4167 C285.3601 131.3607 291.5621 133.971 294 138.4167 C296.7982 143.5193 295 159.4167 295 159.4167 "/>
<path id="16" d="M255 235.4167 C255 235.4167 249.7003 236.1427 247 238.4167 C241.3698 243.1579 237.9399 245.2987 236 251.4167 C232.6311 262.0417 233.6805 265.9962 234 279.4167 C234.1609 286.1726 234.268 287.5623 237 293.4167 C240.7491 301.4505 241.6098 303.6449 248 309.4167 C255.7427 316.4101 258.4514 318.5955 268 321.4167 C277.8527 324.3277 280.5361 323.2555 292 322.4167 C300.2854 321.8104 303.9943 322.539 309 318.4167 C325.1053 305.1535 332.0819 297.2618 343 280.4167 C346.0276 275.7455 344.762 271.7823 344 264.4167 C343.357 258.2014 342.997 257.0776 340 251.4167 C334.3676 240.7777 332.4779 236.1471 326 230.4167 C323.262 227.9946 313.9983 228.4137 314 228.4167 C314.0035 228.4228 324.4531 232.3981 330 237.4167 C333.2275 240.3368 334.4234 242.6395 335 247.4167 C337.6231 269.1511 340.0428 277.7131 337 295.4167 C335.8358 302.1904 330.5312 307.8999 324 311.4167 C315.3305 316.0849 298 316.4167 298 316.4167 "/>
<path id="17" d="M236 264.4167 C236 264.4167 232.8406 264.3414 232 263.4167 C229.1979 260.3343 229.5631 257.7299 226 253.4167 C220.3446 246.5707 216.1263 241.8235 213 240.4167 C212.1376 240.0286 206 244.4167 206 244.4167 "/>
<path id="18" d="M211 240.4167 C211 240.4167 210.6378 235.333 212 231.4167 C214.395 224.5312 219 217.4167 219 217.4167 "/>
<path id="19" d="M210 237.4167 C210 237.4167 212.004 240.4137 212 240.4167 C211.9048 240.4881 208.1493 241.2433 206 240.4167 C202.8036 239.1873 199 235.4167 199 235.4167 "/>
<path id="20" d="M337 252.4167 C337 252.4167 340.9229 251.4938 343 249.4167 C352.0009 240.4158 361 228.4167 361 228.4167 "/>
<path id="21" d="M361 228.4167 C361 228.4167 357.8487 226.4779 357 224.4167 C354.8605 219.2208 354 211.4167 354 211.4167 "/>
<path id="22" d="M362 228.4167 L380 234.4167 "/>
<path id="23" d="M361 228.4167 C361 228.4167 366.0719 225.7953 369 222.4167 C372.0187 218.9335 374 213.4167 374 213.4167 "/>
<path id="24" d="M211 243.4167 L193 251.4167 "/>
<path id="25" d="M309 226.4167 C309 226.4167 314.7935 224.0604 318 220.4167 C325.012 212.4485 323.9451 207.1488 331 201.4167 C337.1246 196.4404 343.118 197.5136 350 194.4167 C350.5903 194.151 351.0191 192.4358 351 192.4167 C350.9427 192.3594 348.6646 191.9736 348 192.4167 C346.7446 193.2536 345.4526 194.6061 345 196.4167 C344.2376 199.4661 343.9328 201.7486 345 204.4167 C346.254 207.5517 349.3005 208.0176 351 211.4167 C352.2747 213.966 352.3021 218.2702 352 218.4167 C347.159 220.7638 333.2048 221.3981 318 227.4167 C310.7307 230.2941 304 237.4167 304 237.4167 "/>
</g>
</g>
</svg>
