<?xml version="1.0" encoding="utf-8"?>
<!DOCTYPE svg PUBLIC "-//W3C//DTD SVG 1.1//EN" "http://www.w3.org/Graphics/SVG/1.1/DTD/svg11.dtd">
<svg viewBox="0 0 800 800" preserveAspectRatio="xMinYMin meet" xmlns="http://www.w3.org/2000/svg" version="1.1">
<g fill="none" stroke="black" stroke-linecap="round" stroke-linejoin="round" stroke-width="1.2001">
<g transform="translate(186.2637,87.52) scale(2.4998) translate(-127,-91)">
<path id="0" d="M185 109 C185 109 185.468 103.1064 187 101 C188.1932 99.3594 190.2957 98.2458 193 98 C199.8587 97.3765 204.3755 96.5226 209 99 C214.4535 101.9215 218.7264 106.529 221 113 C223.9145 121.2952 223.0481 130.5501 222 136 C221.8091 136.9926 218.8227 138.6151 216 139 C208.9533 139.9609 207.4022 140.1939 200 139 C192.6874 137.8205 189.6835 137.2785 185 134 C182.1393 131.9975 181.0475 129.3647 180 125 C178.3322 118.0508 177.9419 111.872 179 109 C179.4026 107.9073 187 106 187 106 "/>
<path id="1" d="M189 140 C189 140 180.5247 139.6951 174 141 C171.5962 141.4808 170.8559 142.0699 169 144 C158.9619 154.4396 157.4916 155.5548 149 167 C146.7052 170.093 146.07 171.2896 146 175 C145.6093 195.7073 143.8594 201.6629 148 220 C149.7955 227.9517 153.1417 230.8054 160 237 C167.2546 243.5525 169.3783 243.991 179 248 C186.6158 251.1732 187.6176 251.2549 196 252 C209.5235 253.2021 214.8656 255.6537 224 252 C233.7868 248.0853 238.8532 241.8956 246 232 C249.7615 226.7918 249.4385 223.8614 250 216 C251.3792 196.6912 251.002 195.7051 250 176 C249.5203 166.5649 249.3875 166.0196 247 157 C244.9992 149.4413 244.9291 147.6481 241 142 C237.9351 137.5942 235.4675 136.1023 231 134 C228.7281 132.9309 224 134 224 134 "/>
<path id="2" d="M239 172 C239 172 247.6363 170.0144 254 167 C256.1598 165.9769 256.2425 163.7811 258 163 C259.5209 162.324 261.3218 163.8391 263 163 C269.7128 159.6436 278 153 278 153 "/>
<path id="3" d="M269 147 C269 147 267.4962 155.4025 269 158 C270.9643 161.3929 274.6892 163.4844 280 166 C283.0428 167.4413 287.8091 167.0273 288 167 C288.0174 166.9975 287 165 287 165 "/>
<path id="4" d="M161 184 L134 157 "/>
<path id="5" d="M144 148 C144 148 144.2519 152.6616 143 156 C141.5239 159.9363 140.9751 161.3968 138 164 C133.9712 167.5252 127 170 127 170 "/>
<path id="6" d="M169 115 C169 115 181.1385 117.4608 193 118 C202.8064 118.4457 204.2961 118.3926 213 117 C215.3659 116.6214 217.2132 115.4424 218 114 C219.1739 111.8478 218.159 107.5137 219 106 C219.3167 105.4299 223 105 223 105 "/>
<path id="7" d="M179 106 C179 106 179.7166 92.6875 181 92 C184.5848 90.0796 198.8383 89.6836 207 91 C208.885 91.304 212 97 212 97 "/>
<path id="8" d="M173 115 L184 106 "/>
<path id="9" d="M216 101 L229 105 "/>
<path id="10" d="M192 126 L194 127 "/>
<path id="11" d="M216 123 L213 124 "/>
<path id="12" d="M205 134 C205 134 207 132.3577 207 132 C207 131.4635 204.9958 129.0042 205 129 C205.0127 128.9873 209 130 209 130 "/>
<path id="13" d="M176 249 C176 249 169.717 253.8654 163 257 C155.052 260.709 152.7521 259.317 146 263 C143.2447 264.5029 142.4958 265.8422 141 269 C138.3377 274.6204 137.9085 275.6408 137 282 C135.9959 289.0286 134.76 292.52 137 297 C140.7333 304.4667 146.5788 306.0679 153 314 C154.0311 315.2737 153.0929 317.3855 154 318 C164.1512 324.8766 168.8932 329.3959 184 335 C198.2411 340.283 200.1377 339.6962 216 341 C236.0152 342.6451 236.9787 342.4941 257 341 C269.8786 340.0389 271.1932 339.4726 283 336 C287.0704 334.8028 289.0813 333.878 291 331 C294.7136 325.4296 295.8334 322.8327 297 315 C299.1509 300.5579 302.0412 294.1838 298 284 C292.4119 269.9181 285.273 265.6317 272 252 C268.1302 248.0256 265.6032 249.5201 261 246 C257.6475 243.4363 258.4086 241.2724 255 239 C247.3306 233.8871 237 230 237 230 "/>
</g>
</g>
</svg>
