<?xml version="1.0" encoding="utf-8"?>
<!DOCTYPE svg PUBLIC "-//W3C//DTD SVG 1.1//EN" "http://www.w3.org/Graphics/SVG/1.1/DTD/svg11.dtd">
<svg viewBox="0 0 800 800" preserveAspectRatio="xMinYMin meet" xmlns="http://www.w3.org/2000/svg" version="1.1">
<g fill="none" stroke="black" stroke-linecap="round" stroke-linejoin="round" stroke-width="1.8577">
<g transform="translate(96.4019,87.52) scale(1.6149) translate(-134,-59)">
<path id="0" d="M164 369 C164 369 174.2758 376.0605 185 380 C198.0927 384.8096 199.3798 386.6803 213 387 C302.4429 389.0996 309.7104 389.2043 398 385 C410.1066 384.4235 410.6027 380.0156 423 377 C428.6329 375.6298 429.7058 377.7932 435 376 C459.3602 367.749 461.9417 367.6915 485 356 C496.1619 350.3404 506 340 506 340 "/>
<path id="1" d="M165 371 C165 371 157.001 368.3455 151 364 C143.0891 358.2714 136 350 136 350 "/>
<path id="2" d="M137 353 C137 353 134 353.8607 134 354 C134 355.5318 134.4009 360.7191 137 365 C142.1693 373.5141 145.7965 374.0212 151 382 C152.3247 384.0312 150.9055 387.2586 152 388 C160.6794 393.8796 166.7352 396.8405 182 403 C194.7987 408.1644 204.5414 406.1361 209 411 C213.5607 415.9753 211.0714 426.4998 215 439 C216.1268 442.5851 218.3573 445.9382 220 446 C276.4896 448.126 401 446 401 446 "/>
<path id="3" d="M402 412 C402 412 399.3648 417.8076 400 422 C401.5761 432.4024 406.9957 444.9217 407 445 C407.001 445.0178 401 440 401 440 "/>
<path id="4" d="M401 415 C401 415 415.7142 417.3858 427 414 C453.1334 406.16 456.6614 403.1693 481 391 C485.459 388.7705 486.0598 387.4103 489 383 C494.6599 374.5101 493.8331 371.5782 499 364 C500.2826 362.1188 503.2895 362.6148 504 361 C507.3667 353.3484 510 339 510 339 "/>
<path id="5" d="M294 126 C294 126 295.8512 173.3095 295 218 C294.8792 224.344 292.3655 224.5663 292 231 C289.9152 267.6924 292.1325 270.1733 290 306 C289.7394 310.3776 286.8864 311.0247 287 315 C287.3327 326.6455 290.1242 328.0377 291 341 C292.6025 364.7175 292 389 292 389 "/>
<path id="6" d="M304 131 C304 131 308.3068 148.1368 309 162 C309.1963 165.9261 305.8601 166.8961 306 171 C307.2454 207.5315 309.2187 210.5985 312 250 C312.2101 252.9766 312.7552 253.7344 312 256 C311.077 258.769 308.5215 259.2624 308 262 C306.8433 268.0729 308.2456 275.1578 308 277 C307.9956 277.0328 306.0007 276.9867 306 277 C305.6126 284.4888 303.0087 306.6235 305 335 C306.9467 362.7405 314 391 314 391 "/>
<path id="7" d="M293 124 C293 124 303.1114 123.1855 304 124 C304.8953 124.8207 305 135 305 135 "/>
<path id="8" d="M168 327 C168 327 174.9897 313.4875 177 302 C178.1082 295.6673 173.9869 293.4161 175 287 C176.6739 276.3985 177.9819 274.5938 183 264 C186.6971 256.1951 189.6436 255.7128 193 249 C193.8391 247.3218 192.5546 244.668 193 244 C193.3266 243.5101 196.6046 243.4942 197 243 C197.3766 242.5293 196.2817 240.0498 197 239 C201.2907 232.729 205.1775 231.7696 210 224 C213.5754 218.2396 211.5132 215.5789 215 210 C218.3086 204.7062 221.3778 205.4332 225 200 C229.8537 192.7195 227.597 189.3565 233 183 C243.2385 170.9547 259 160 259 160 "/>
<path id="9" d="M259 162 C259 162 260.9769 162.6997 261 163 C261.5005 169.5066 259.5929 175.864 261 188 C263.5287 209.8097 265.3834 210.3002 269 232 C269.3191 233.9147 269.2 235.6 269 236 C268.95 236.1 267.0008 235.987 267 236 C266.89 237.8698 266.6353 244.8119 268 253 C269.5767 262.46 272.3511 262.7528 273 272 C274.272 290.1255 273.8261 292.1046 272 310 C271.4533 315.3581 268.1538 316.0792 268 321 C267.711 330.2472 271.4136 337.0371 271 342 C270.9319 342.8172 266.3512 343.9464 266 345 C265.3478 346.9567 267 354 267 354 "/>
<path id="10" d="M168 327 C168 327 168.9295 332.3766 171 336 C172.5184 338.6571 173.2494 339.7056 176 341 C188.785 347.0165 190.5252 347.4104 205 352 C210.6291 353.7848 211.0575 353.8252 217 354 C244.5965 354.8117 272.4003 354.0222 273 354 C273.0206 353.9992 271 352 271 352 "/>
<path id="11" d="M322 152 C322 152 338.7718 161.9006 346 174 C359.5548 196.6896 362.3945 209.3806 368 229 C368.6272 231.1952 364.098 233.5704 364 237 C363.675 248.3755 366.4313 250.6344 367 264 C367.4184 273.8329 368.7121 275.6828 366 284 C361.9216 296.5069 355.7258 297.758 352 310 C349.5375 318.091 353.8257 321.9145 352 330 C350.8515 335.086 347.4205 338.0417 345 341 C344.7632 341.2894 343.1 341.175 343 341 C342.2875 339.7532 341 334 341 334 "/>
<path id="12" d="M323 153 C323 153 339.8052 152.2733 355 154 C360.893 154.6697 361.7348 155.0903 367 158 C380.1143 165.2474 381.2786 165.2836 393 175 C418.7662 196.3589 422.2979 198.4495 443 221 C447.6198 226.0322 445.187 229.3908 449 236 C452.3443 241.7968 455.3657 241.2374 458 247 C462.7408 257.3705 460.6869 259.4227 465 271 C470.1014 284.6931 473.192 284.6719 477 298 C479.8247 307.8866 476.8495 309.8621 479 320 C480.1566 325.4525 484.138 330.8482 484 331 C483.7085 331.3207 469 331 469 331 "/>
<path id="13" d="M345 345 C345 345 347.153 343.077 349 343 C390.6526 341.2645 396.1925 344.7625 441 341 C460.3273 339.3771 480 332 480 332 "/>
<path id="14" d="M295 123 C295 123 295.4706 109.3529 297 104 C297.2456 103.1404 300.9617 102.5738 301 102 C301.7246 91.1308 299.4133 64.0459 300 59 C300.0095 58.9179 305.9259 58.744 306 59 C307.683 64.8142 309.341 78.7505 311 97 C311.2549 99.8043 310.9216 101.1568 310 103 C309.5038 103.9925 307.0508 104.4917 307 105 C306.8276 106.7239 309 112.4262 309 113 C309 113 307.0084 112.9662 307 113 C306.9367 113.2531 308.1436 115.2772 308 117 C307.7007 120.5921 306.6948 123.6105 306 125 C305.9228 125.1544 304 125 304 125 "/>
<path id="15" d="M300 80 C300 80 282.7725 79.2863 266 80 C259.545 80.2747 255.0635 81.3651 253 82 C252.9067 82.0287 253.029 83.9966 253 84 C250.904 84.2466 244.0668 82.8796 236 84 C226.6546 85.298 224.9837 86.0968 217 89 C215.4311 89.5705 215.4097 91.5662 214 92 C210.296 93.1397 207.372 91.4132 204 93 C200.6848 94.5601 200.7415 97.579 197 100 C192.9149 102.6433 189.0498 101.4377 187 104 C183.4469 108.4413 180.9986 119.9995 181 120 C181.2965 120.1092 193.427 114.1433 206 111 C218.9191 107.7702 220.6953 109.6916 233 107 C235.4968 106.4538 235.7922 104.0946 238 104 C265.9821 102.8008 303 104 303 104 "/>
</g>
</g>
</svg>
