<?xml version="1.0" encoding="utf-8"?>
<!DOCTYPE svg PUBLIC "-//W3C//DTD SVG 1.1//EN" "http://www.w3.org/Graphics/SVG/1.1/DTD/svg11.dtd">
<svg viewBox="0 0 800 800" preserveAspectRatio="xMinYMin meet" xmlns="http://www.w3.org/2000/svg" version="1.1">
<g fill="none" stroke="black" stroke-linecap="round" stroke-linejoin="round" stroke-width="0.83525">
<g transform="translate(87.52,227.5972) scale(3.5917) translate(-171,-205.5333)">
<path id="0" d="M206 259.5333 C206 259.5333 226.9105 243.9453 244 226.5333 C252.6843 217.6852 258.3604 205.777 259 205.5333 C259.0291 205.5222 261.1114 213.5646 265 218.5333 C269.2612 223.9782 272.0737 222.9032 277 228.5333 C285.6511 238.4203 284.7359 242.8392 293 250.5333 C296.9992 254.2568 306.0055 255.5331 306 255.5333 C305.9638 255.5348 261.9765 253.1109 221 253.5333 C215.1988 253.5931 209 256.5333 209 256.5333 "/>
<path id="1" d="M260 207.5333 C260 207.5333 263.1509 270.4552 259 273.5333 C251.6862 278.957 181.9943 273.2835 171 273.5333 C170.9943 273.5335 170.8056 275.4384 171 275.5333 C181.4034 280.6141 196.1717 284.8763 214 294.5333 C216.9412 296.1265 217.3323 301.4352 219 301.5333 C248.8728 303.2906 287.422 304.5774 316 300.5333 C319.2305 300.0762 319.6691 292.0693 325 286.5333 C331.9075 279.3602 335.4346 280.0988 342 273.5333 C344.1885 271.3449 345.1085 266.5402 345 266.5333 C341.526 266.3135 297.7999 266.1606 263 268.5333 C260.3423 268.7145 257 272.5333 257 272.5333 "/>
</g>
</g>
</svg>
