<?xml version="1.0" encoding="utf-8"?>
<!DOCTYPE svg PUBLIC "-//W3C//DTD SVG 1.1//EN" "http://www.w3.org/Graphics/SVG/1.1/DTD/svg11.dtd">
<svg viewBox="0 0 800 800" preserveAspectRatio="xMinYMin meet" xmlns="http://www.w3.org/2000/svg" version="1.1">
<g fill="none" stroke="black" stroke-linecap="round" stroke-linejoin="round" stroke-width="1.7905">
<g transform="translate(87.52,105.9505) scale(1.6755) translate(-94,-2.2167)">
<path id="0" d="M99 288.2167 C99 288.2167 104.4848 288.0734 107 289.2167 C108.4334 289.8682 108.3398 292.5176 110 293.2167 C124.1955 299.1937 127.5705 301.974 145 305.2167 C169.2228 309.7232 170.539 308.2182 196 309.2167 C221.383 310.2121 221.6712 310.5156 247 309.2167 C279.9312 307.5279 284.8674 306.8337 313 303.2167 C314.8478 302.9791 315.1365 300.5893 317 300.2167 C323.5626 298.9041 325.7693 300.8235 333 299.2167 C338.3983 298.017 338.5944 295.4641 344 294.2167 C350.7741 292.6534 353.5194 294.6589 359 293.2167 C360.8143 292.7392 361.1491 289.5953 363 289.2167 C378.7589 285.9932 387.1668 287.1624 403 284.2167 C404.3764 283.9606 404.5528 281.6423 406 281.2167 C411.4378 279.6173 413.3948 281.1382 420 279.2167 C440.4167 273.2772 442.2513 272.7959 461 265.2167 C464.2231 263.9137 467.0001 260.2165 467 260.2167 C466.9998 260.217 459.5225 267.2643 454 275.2167 C447.2581 284.925 447.154 285.44 442 296.2167 C436.2593 308.2199 437.749 311.3155 432 321.2167 C430.0134 324.638 426.85 323.8917 424 327.2167 C421.4667 330.1722 422.5591 333.3251 420 335.2167 C413.3776 340.1114 410.2466 342.4927 401 344.2167 C382.9464 347.5826 380.561 344.1576 361 346.2167 C352.5253 347.1087 352.3926 349.8143 344 350.2167 C280.9552 353.2394 268.3559 352.8124 215 353.2167 C213.7656 353.226 213.3155 351.2884 212 351.2167 C189.9747 350.0153 181.2482 351.7344 160 350.2167 C158.2803 350.0938 157.8103 347.4296 156 347.2167 C136.3069 344.8998 118.6006 349.9461 109 344.2167 C102.0558 340.0725 98.2088 326.4907 94 310.2167 C91.3333 299.9056 92.9349 288.7729 94 286.2167 C94.1849 285.7729 100.5414 285.4185 104 286.2167 C105.277 286.5114 107 289.2167 107 289.2167 "/>
<path id="1" d="M239 309.2167 C239 309.2167 236.652 276.8811 237 245.2167 C237.147 231.8373 238.5744 224.8693 240 218.2167 C240.0847 217.8213 243 217.2167 243 217.2167 C243 217.2167 237.2578 220.2167 232 220.2167 C188.9819 220.2167 143.1063 217.3964 142 217.2167 C141.8976 217.2 149.0132 212.8259 152 207.2167 C168.2753 176.6509 170.0203 172.8625 183 140.2167 C185.7481 133.3047 183.1345 131.3677 185 124.2167 C185.9082 120.7353 188.0037 120.8283 189 117.2167 C195.6775 93.0109 193.5919 90.5575 201 66.2167 C203.8112 56.9799 206.9878 57.2534 210 48.2167 C212.7254 40.0406 209.8785 38.0203 213 30.2167 C218.365 16.8041 221.7127 12.997 228 3.2167 C228.5025 2.435 230.9788 2.1724 231 2.2167 C232.3538 5.0474 234.0745 15.709 239 26.2167 C241.0024 30.4883 243.9568 29.8637 246 34.2167 C254.7825 52.9271 253.0221 55.4033 262 75.2167 C267.3757 87.0803 269.7412 86.5303 275 98.2167 C278.5089 106.0143 276.4577 107.4235 280 115.2167 C286.2158 128.8915 289.5383 128.3523 295 142.2167 C302.1918 160.4727 301.389 161.6201 306 181.2167 C309.3457 195.436 308.3897 200.1018 311 210.2167 C311.2391 211.1431 313.6406 211.378 314 212.2167 C314.547 213.4929 314.4237 216.793 314 217.2167 C313.4068 217.8098 310.9688 218.1507 308 218.2167 C288.7739 218.6439 287.495 216.3358 269 218.2167 C259.226 219.2106 258.5453 223.468 249 224.2167 C234.6181 225.3447 218 222.2167 218 222.2167 "/>
<path id="2" d="M229 6.2167 C229 6.2167 227.4422 84.3689 231 161.2167 C232.4078 191.6254 239 222.2167 239 222.2167 "/>
</g>
</g>
</svg>
