<?xml version="1.0" encoding="utf-8"?>
<!DOCTYPE svg PUBLIC "-//W3C//DTD SVG 1.1//EN" "http://www.w3.org/Graphics/SVG/1.1/DTD/svg11.dtd">
<svg viewBox="0 0 800 800" preserveAspectRatio="xMinYMin meet" xmlns="http://www.w3.org/2000/svg" version="1.1">
<g fill="none" stroke="black" stroke-linecap="round" stroke-linejoin="round" stroke-width="1.7761">
<g transform="translate(102.7217,87.52) scale(1.6891) translate(-81,-14.1333)">
<path id="0" d="M103 311.1333 C103 311.1333 121.8011 322.8767 141 332.1333 C149.335 336.152 150.1059 336.9475 159 338.1333 C178.9959 340.7995 180.6812 337.7628 201 340.1333 C209.9406 341.1764 210.1946 344.4762 219 345.1333 C242.4836 346.8858 244.8046 347.18 268 345.1333 C277.2447 344.3176 277.3753 341.2461 287 339.1333 C318.0924 332.3082 319.2928 335.066 350 327.1333 C378.7599 319.7037 381.4157 319.098 407 308.1333 C413.9571 305.1517 420 297.1333 420 297.1333 "/>
<path id="1" d="M103 314.1333 C103 314.1333 106.5414 314.324 107 315.1333 C112.1056 324.1432 112.4582 330.9352 120 344.1333 C123.9927 351.1206 124.7378 352.7039 131 357.1333 C143.8119 366.1954 145.7364 368.2849 161 373.1333 C186.4496 381.2173 188.932 382.3807 216 384.1333 C256.7489 386.7717 261.4428 385.9134 300 382.1333 C308.6022 381.29 308.8095 377.2581 318 374.1333 C333.5512 368.8459 334.6081 370.7063 350 365.1333 C363.2469 360.3371 366.7684 360.8621 376 353.1333 C385.4996 345.1802 383.4089 339.6166 393 329.1333 C404.3453 316.7327 407.8218 317.6841 419 306.1333 C421.7552 303.2862 423 298.1333 423 298.1333 "/>
<path id="2" d="M107 312.1333 C107 312.1333 130.1094 316.527 153 317.1333 C205.0871 318.5131 206.3562 320.2648 258 316.1333 C305.2795 312.351 306.1887 309.5678 353 301.1333 C361.0976 299.6743 361.1162 296.9217 369 296.1333 C394.8972 293.5436 396.9457 296.1688 423 294.1333 C427.9237 293.7487 433 291.1333 433 291.1333 "/>
<path id="3" d="M266 342.1333 C266 342.1333 259.55 329.35 255 316.1333 C249.1278 299.0761 248.3434 298.458 245 281.1333 C242.9908 270.7221 245.6776 269.6786 244 259.1333 C242.2621 248.2096 239.8712 248.1269 238 237.1333 C235.9402 225.0323 238.3232 224.0074 236 212.1333 C233.9533 201.6723 231.5206 201.7558 229 191.1333 C224.5885 172.542 224.1623 172.1137 222 153.1333 C219.7022 132.964 222.7401 132.1573 220 112.1333 C216.3151 85.2049 213.3715 84.7599 209 58.1333 C207.9817 51.9307 209 45.1333 209 45.1333 C208.999 45.1333 208.0293 52.3882 205 58.1333 C193.9365 79.1158 192.9434 79.5761 180 100.1333 C176.0398 106.4231 176.1784 107.1073 171 112.1333 C159.6179 123.1807 155.2642 121.3987 146 133.1333 C134.2223 148.0518 137.5582 152.6522 126 169.1333 C111.0181 190.4964 107.5032 189.1179 92 210.1333 C85.4041 219.0744 80.6524 229.7857 81 230.1333 C83.2015 232.3348 103.4763 235.5258 125 243.1333 C161.2738 255.9543 160.8147 258.362 197 271.1333 C211.5053 276.2529 212.6436 274.006 227 279.1333 C240.2329 283.8594 240.2518 286.1113 253 291.1333 C256.0676 292.3418 259.8458 292.159 260 292.1333 C260.015 292.1308 259 290.1333 259 290.1333 "/>
<path id="4" d="M209 50.1333 C209 50.1333 213.9669 43.3317 215 37.1333 C216.6972 26.9503 214.9818 14.1424 215 14.1333 C215.0016 14.1325 219.051 23.999 225 32.1333 C243.2188 57.0447 243.5184 57.8588 264 81.1333 C276.2319 95.0332 280.4722 92.953 291 107.1333 C303.8801 124.482 303.0258 127.1849 313 147.1333 C315.2491 151.6315 313.5189 153.6598 316 157.1333 C319.999 162.7319 323.4256 162.0342 328 168.1333 C334.8615 177.282 333.3276 179.2483 340 189.1333 C346.6781 199.0269 355.4294 207.2519 355 208.1333 C353.6571 210.8898 338.5543 219.6169 321 228.1333 C288.4366 243.9314 254 257.1333 254 257.1333 "/>
</g>
</g>
</svg>
