<?xml version="1.0" encoding="utf-8"?>
<!DOCTYPE svg PUBLIC "-//W3C//DTD SVG 1.1//EN" "http://www.w3.org/Graphics/SVG/1.1/DTD/svg11.dtd">
<svg viewBox="0 0 800 800" preserveAspectRatio="xMinYMin meet" xmlns="http://www.w3.org/2000/svg" version="1.1">
<g fill="none" stroke="black" stroke-linecap="round" stroke-linejoin="round" stroke-width="2.4578">
<g transform="translate(87.52,138.7862) scale(1.2206) translate(-80,-36.2)">
<path id="0" d="M184 251.2 C184 251.2 399.5113 38.506 402 36.2 C402.0719 36.1334 400.9987 42.9921 402 49.2 C405.8983 73.3692 406.5194 73.8418 412 98.2 C415.5076 113.7893 415.1638 114.1223 420 129.2 C423.5857 140.379 425.6901 139.9752 429 151.2 C437.0725 178.5762 435.5619 179.4052 443 207.2 C445.034 214.8007 444.7255 215.1833 448 222.2 C455.0779 237.3669 455.1696 238.9544 464 252.2 C467.4019 257.3028 474.0744 261.1777 474 261.2 C473.4813 261.3556 448.9425 264.0886 424 264.2 C337.2278 264.5874 335.0745 267.6073 250 262.2 C219.3045 260.249 188 249.2 188 249.2 "/>
<path id="1" d="M353 267.2 C353 267.2 349.0917 269.2458 349 269.2 C348.9389 269.1694 349.0007 265.2007 349 265.2 C348.9997 265.1997 348.1036 266.7495 348 268.2 C347.6289 273.3949 349.0289 274.827 348 279.2 C347.3507 281.9594 344.9481 282.0768 344 285.2 C336.9103 308.5542 336.5033 310.2519 331 335.2 C329.0804 343.9023 329 353.2 329 353.2 "/>
<path id="2" d="M329 354.2 C329 354.2 292.9441 351.9252 259 344.2 C221.3181 335.6241 218.6973 335.9022 184 321.2 C161.7105 311.7553 162.0416 308.0954 141 294.2 C135.7135 290.7089 133.6505 289.3805 131 286.2 C130.3509 285.4211 131.3893 282.4725 131 282.2 C129.3177 281.0224 125.2327 281.4277 121 279.2 C116.3633 276.7596 116.1095 276.0526 112 272.2 C100.2328 261.1682 99.6129 261.1395 89 249.2 C83.87 243.4287 80.0082 236.1789 80 236.2 C79.974 236.267 78.8944 252.5347 82 267.2 C87.6717 293.983 87.7245 295.5111 98 321.2 C111.4058 354.7146 112.5641 355.2835 130 387.2 C141.8528 408.8966 141.5715 416.6644 157 429.2 C175.0945 443.9018 183.3516 441.7567 210 452.2 C220.0345 456.1325 220.428 456.3614 231 458.2 C254.5212 462.2906 255.3004 464.0669 279 464.2 C343.1275 464.5603 349.7622 463.0633 409 459.2 C412.7549 458.9551 412.9378 456.1672 417 455.2 C433.0761 451.3724 434.9335 453.8964 451 449.2 C466.6379 444.6289 468.4282 444.6578 482 436.2 C501.6786 423.9365 502.7267 422.5001 520 406.2 C537.6915 389.5052 540.3761 389.1879 553 369.2 C575.1809 334.0802 579.0896 328.283 592 292.2 C596.5422 279.5051 592.0558 260.2037 592 260.2 C590.8743 260.125 569.9437 275.6549 547 289.2 C528.6041 300.0602 528.551 301.1285 509 309.2 C474.6287 323.39 472.2686 320.6519 438 334.2 C430.1373 337.3085 430.3324 341.7693 423 343.2 C393.0836 349.0374 389.3981 347.8385 356 350.2 C340.1657 351.3196 324 350.2 324 350.2 "/>
</g>
</g>
</svg>
