<?xml version="1.0" encoding="utf-8"?>
<!DOCTYPE svg PUBLIC "-//W3C//DTD SVG 1.1//EN" "http://www.w3.org/Graphics/SVG/1.1/DTD/svg11.dtd">
<svg viewBox="0 0 800 800" preserveAspectRatio="xMinYMin meet" xmlns="http://www.w3.org/2000/svg" version="1.1">
<g fill="none" stroke="black" stroke-linecap="round" stroke-linejoin="round" stroke-width="1.5217">
<g transform="translate(87.52,97.3774) scale(1.9715) translate(-152,-109)">
<path id="0" d="M152 331 C152 331 162.717 330.0299 173 331 C188.9003 332.5 189.0962 334.88 205 336 C224.1719 337.3501 224.8314 334.3858 244 336 C271.8552 338.3457 272.1454 341.6294 300 344 C318.6743 345.5893 319.056 344.7286 338 344 C383.9603 342.2323 387.8293 345.3256 430 339 C443.6174 336.9574 446.4644 333.1249 458 326 C461.5031 323.8363 463.985 317.995 464 318 C464.015 318.005 465.7012 324.6749 464 328 C456.4711 342.7156 442.7577 358.7269 442 361 C441.9937 361.0188 450.2092 362.0715 452 364 C454.0094 366.164 455 375 455 375 "/>
<path id="1" d="M156 332 C156 332 180.0507 349.3545 202 367 C204.9084 369.3381 206.1038 370.162 207 373 C208.5746 377.9863 205.8577 382.9756 208 386 C211.4902 390.9273 216.977 396.4107 224 397 C276.739 401.4257 300.9664 399.1371 351 398 C353.006 397.9544 353.6938 394.5013 356 394 C363.1576 392.444 371.5386 393.4102 374 393 C374.0452 392.9925 373.8571 391.0571 374 391 C378.0003 389.3999 384.2245 386.0113 394 385 C412.0144 383.1364 413.8637 386.1335 432 385 C436.8622 384.6961 440.0941 382.9529 442 382 C442.1657 381.9171 441.9002 380.0312 442 380 C444.7053 379.1546 458 377 458 377 "/>
<path id="2" d="M307 109 C307 109 301.8749 160.6023 301 212 C299.8802 277.7867 303 344 303 344 "/>
<path id="3" d="M306 109 C306 109 305.0349 118.4168 301 125 C286.9838 147.8686 282.5116 147.459 268 171 C260.476 183.2055 263.7177 186.0451 256 198 C238.858 224.5533 233.1218 225.0496 217 250 C213.8804 254.828 214.8021 256.5829 214 263 C213.3403 268.2776 213.0702 270.7457 214 274 C214.3502 275.2257 217.2946 275.3776 218 277 C221.3652 284.74 219.9259 288.5607 224 297 C226.2886 301.7407 228.8766 301.1413 232 306 C237.6159 314.7358 235.9754 317.4693 242 325 C246.9535 331.1919 248.8723 331.4642 256 336 C259.3633 338.1403 260.1601 338.68 264 339 C277.0323 340.086 292 339 292 339 "/>
<path id="4" d="M329 115 C329 115 324.1402 129.0888 322 143 C320.2222 154.5559 321.1262 155.0065 321 167 C320.6267 202.4653 321.7081 212.1558 321 238 C320.9795 238.748 319.0817 239.1833 319 240 C317.9569 250.4313 318.1443 254.0053 318 268 C317.6446 302.4744 316.748 305.2825 318 337 C318.1292 340.2721 321 344 321 344 "/>
<path id="5" d="M335 118 C335 118 349.1117 146.6441 366 173 C381.8874 197.7939 385.0438 196.8712 401 221 C405.0297 227.0937 405.7741 228.1698 407 235 C409.0474 246.4069 411.7132 252.0111 408 260 C398.6468 280.1236 391.4468 284.588 374 306 C370.1775 310.6913 367.7772 309.6832 364 314 C361.4067 316.9638 362.7656 319.5021 360 322 C348.898 332.0276 342.4596 333.5539 333 342 C331.8477 343.0289 332 347 332 347 "/>
<path id="6" d="M210 372 L218 373 "/>
<path id="7" d="M152 405 C152 405 156.4327 402.8025 159 403 C161.3365 403.1797 162.0923 405.5154 165 406 C173.1268 407.3545 183 407 183 407 "/>
<path id="8" d="M210 413 L235 413 "/>
<path id="9" d="M311 416 L318 413 "/>
<path id="10" d="M363 415 C363 415 374.0234 413.3991 385 413 C401.4106 412.4033 413.8901 412.7509 418 413 C418.0151 413.0009 418 415 418 415 "/>
<path id="11" d="M415 399 C415 399 415.7032 397.0165 416 397 C430.1706 396.2127 469 396 469 396 "/>
</g>
</g>
</svg>
