<?xml version="1.0" encoding="utf-8"?>
<!DOCTYPE svg PUBLIC "-//W3C//DTD SVG 1.1//EN" "http://www.w3.org/Graphics/SVG/1.1/DTD/svg11.dtd">
<svg viewBox="0 0 800 800" preserveAspectRatio="xMinYMin meet" xmlns="http://www.w3.org/2000/svg" version="1.1">
<g fill="none" stroke="black" stroke-linecap="round" stroke-linejoin="round" stroke-width="3.077">
<g transform="translate(87.52,252.7785) scale(0.97498) translate(0,-22.4167)">
<path id="0" d="M31 238.4167 C31 238.4167 42.5089 236.2322 53 237.4167 C72.6061 239.6303 73.0165 242.6412 93 245.4167 C108.6898 247.5958 109.0224 247.2485 125 247.4167 C203.8375 248.2465 204.4441 245.8216 283 247.4167 C302.4308 247.8112 302.8098 251.1608 322 251.4167 C339.6702 251.6523 340.016 249.0112 358 248.4167 C400.362 247.0163 401.2136 249.6552 443 247.4167 C456.3966 246.699 456.4649 244.0195 470 242.4167 C494.269 239.5427 516.2132 238.1795 519 238.4167 C519.0756 238.4231 518.9046 243.6958 517 246.4167 C512.8666 252.3215 511.1657 255.4961 505 258.4167 C494.944 263.18 490.9632 259.8489 479 264.4167 C464.3151 270.0236 464.8907 273.3077 450 279.4167 C426.29 289.1439 425.7333 291.1402 401 296.4167 C352.0284 306.864 350.0603 306.836 300 311.4167 C274.6167 313.7393 272.8986 313.9071 248 310.4167 C220.7985 306.6034 220.6724 301.448 193 296.4167 C149.6335 288.5319 148.1678 292.6246 105 284.4167 C77.8164 279.248 73.93 278.8584 51 269.4167 C43.6256 266.3802 44.3368 261.9926 37 256.4167 C32.2194 252.7834 31.6427 252.2467 26 250.4167 C13.8193 246.4662 0.023866 244.4405 0 244.4167 C-0.0089497 244.4077 8.0513 241.3409 16 240.4167 C29.0906 238.8945 43 239.4167 43 239.4167 "/>
<path id="1" d="M8 303.4167 C8 303.4167 12.1723 296.7083 17 293.4167 C22.0081 290.0021 24.4815 288.294 30 288.4167 C43.7581 288.7224 46.1473 292.5143 62 294.4167 C70.7209 295.4632 71.5348 295.626 80 294.4167 C88.3309 293.2265 88.8091 290.3022 97 289.4167 C106.289 288.4125 107.5914 289.0726 117 290.4167 C120.9369 290.9791 121.2577 293.0913 125 293.4167 C131.7559 294.0041 140 292.4167 140 292.4167 "/>
<path id="2" d="M422 297.4167 C422 297.4167 452.9176 291.8574 482 292.4167 C503.4267 292.8287 504.1395 297.4032 526 299.4167 C541.669 300.8599 542.6698 297.9137 558 299.4167 C567.3371 300.3321 573.317 302.0227 577 304.4167 C578.0263 305.0837 576.5357 309.8134 578 312.4167 C580.1377 316.217 582.614 319.6846 586 320.4167 C596.0922 322.5988 600.7435 319.3798 615 320.4167 C627.9247 321.3566 641 324.4167 641 324.4167 "/>
<path id="3" d="M260 41.4167 C260 41.4167 255.7516 42.8485 253 45.4167 C241.3611 56.2797 240.6378 56.8447 230 69.4167 C218.7974 82.6562 218.1203 83.0848 209 97.4167 C204.49 104.5039 204.2107 105.3109 202 113.4167 C198.3754 126.7068 201.6363 128.8058 197 141.4167 C189.6422 161.4299 176.5337 180.8544 177 181.4167 C177.9117 182.5161 205.4154 184.9751 231 182.4167 C248.5627 180.6604 249.6717 174.4857 267 172.4167 C281.3313 170.7055 298 174.4167 298 174.4167 "/>
<path id="4" d="M259 43.4167 C259 43.4167 268.7283 35.0036 270 34.4167 C270.0516 34.3928 271.726 35.9295 272 37.4167 C278.117 70.623 276.6126 74.487 284 110.4167 C287.5295 127.5828 291.1125 127.6164 294 144.4167 C296.4391 158.608 295 174.4167 295 174.4167 "/>
<path id="5" d="M269 36.4167 L295 22.4167 "/>
<path id="6" d="M295 170.4167 L310 172.4167 "/>
<path id="7" d="M297 23.4167 C297 23.4167 295.4879 36.0756 297 47.4167 C298.3735 57.7182 301.2146 57.8414 303 68.4167 C307.6379 95.8874 308.4661 96.4663 310 124.4167 C312.941 178.0081 313.9808 182.8973 312 232.4167 C311.6828 240.3456 305 249.4167 305 249.4167 "/>
<path id="8" d="M180 179.4167 C180 179.4167 176.5825 185.2526 172 188.4167 C156.5868 199.0591 151.5085 197.8734 138 208.4167 C133.5436 211.8948 134.427 218.5808 131 220.4167 C125.2306 223.5074 119.1382 220.4602 110 223.4167 C103.5164 225.5143 103.4497 229.0279 97 231.4167 C91.0441 233.6225 83 233.4167 83 233.4167 "/>
<path id="9" d="M312 221.4167 C312 221.4167 337.3561 219.938 340 222.4167 C342.8495 225.0881 341.7445 243.6477 344 251.4167 C344.2581 252.3057 349 253.4167 349 253.4167 "/>
<path id="10" d="M343 223.4167 C343 223.4167 391.0865 221.9915 393 222.4167 C393.0982 222.4385 388.6386 228.3077 388 233.4167 C386.8532 242.5909 389 254.4167 389 254.4167 "/>
<path id="11" d="M323 202.4167 C323 202.4167 323.1544 200.4939 323 200.4167 C321.6105 199.7219 315.0699 198.504 315 198.4167 C314.9983 198.4146 317.2812 195.5778 319 195.4167 C330.2412 194.3628 343.6796 192.5332 347 195.4167 C351.5842 199.3977 357 228.4167 357 228.4167 "/>
<path id="12" d="M349 198.4167 C349 198.4167 384.5199 195.6255 387 197.4167 C388.1643 198.2575 385 224.4167 385 224.4167 "/>
<path id="13" d="M315 171.4167 C315 171.4167 361.2952 166.5836 365 169.4167 C367.4729 171.3077 366 210.4167 366 210.4167 "/>
<path id="14" d="M313 134.4167 C313 134.4167 332.8506 134.5488 334 136.4167 C336.9921 141.2788 337 173.4167 337 173.4167 "/>
<path id="15" d="M388 211.4167 C388 211.4167 393.6547 213.4167 399 213.4167 C415.5218 213.4167 431.1476 209.4614 433 211.4167 C435.5688 214.1282 435 251.4167 435 251.4167 "/>
<path id="16" d="M371 185.4167 C371 185.4167 399.0271 183.2546 402 185.4167 C403.8657 186.7735 401.9736 198.2714 404 209.4167 C404.8091 213.8665 408 218.4167 408 218.4167 "/>
<path id="17" d="M341 155.4167 C341 155.4167 353.5954 154.059 365 155.4167 C373.8363 156.4686 379.768 156.9261 383 160.4167 C387.2486 165.0051 387.7273 171.7026 390 182.4167 C391.0645 187.435 390 193.4167 390 193.4167 "/>
</g>
</g>
</svg>
