<?xml version="1.0" encoding="utf-8"?>
<!DOCTYPE svg PUBLIC "-//W3C//DTD SVG 1.1//EN" "http://www.w3.org/Graphics/SVG/1.1/DTD/svg11.dtd">
<svg viewBox="0 0 800 800" preserveAspectRatio="xMinYMin meet" xmlns="http://www.w3.org/2000/svg" version="1.1">
<g fill="none" stroke="black" stroke-linecap="round" stroke-linejoin="round" stroke-width="1.4833">
<g transform="translate(87.52,126.9592) scale(2.0225) translate(-116,-14)">
<path id="0" d="M116 245 C116 245 118.2406 251.9875 122 257 C126.7847 263.3796 127.5033 265.4423 134 269 C146.6019 275.9011 148.9255 275.8888 164 280 C175.9184 283.2505 176.5828 283.2587 189 284 C209.6634 285.2336 210.3694 285.7192 231 284 C257.8525 281.7623 258.4182 281.0472 285 276 C297.606 273.6064 297.4138 271.0977 310 269 C341.9063 263.6823 343.4934 266.1846 375 261 C382.0422 259.8412 383.02 258.99 389 256 C391.1745 254.9127 393 252 393 252 "/>
<path id="1" d="M117 244 C117 244 116.119 235.389 118 231 C119.6009 227.2647 121.7264 225.5253 126 223 C131.693 219.6359 132.8849 219.5709 140 218 C170.9259 211.1722 171.78 209.3154 203 206 C227.2865 203.4209 228.4619 203.6349 253 206 C310.6853 211.56 312.3498 211.0675 369 222 C396.7242 227.3503 407.0497 232.9463 424 239 C424.5749 239.2053 425.0161 241.9937 425 242 C422.5652 242.9528 412.2819 243.7969 401 248 C387.3066 253.1015 387.5891 255.9779 374 261 C365.2502 264.2336 355 265 355 265 "/>
<path id="2" d="M162 209 C162 209 157.9527 207.7466 157 206 C153.2043 199.0412 151.0712 196.1819 150 187 C147.7837 168.0031 148.7946 166.1903 150 146 C150.7714 133.0788 151.1049 132.6332 154 120 C156.5388 108.9215 156.5593 108.3616 161 98 C165.3899 87.7568 165.0224 86.094 172 78 C188.9503 58.3377 210.9845 39.9876 211 40 C211.0582 40.0466 202.3152 69.5257 197 98 C195.5093 105.9861 195.3347 107.2286 197 115 C201.0723 134.0041 206.1648 134.8082 209 154 C212.4175 177.134 210.7899 181.2787 210 203 C209.9015 205.7101 207 209 207 209 "/>
<path id="3" d="M294 212 C294 212 295.8911 207.2498 295 204 C288.2026 179.2094 284.1536 177.0593 277 150 C272.8215 134.1942 275.4605 133.0441 272 117 C270.0408 107.9163 267.6592 108.0502 266 99 C262.2719 78.6646 264.8193 77.3698 261 57 C258.9263 45.9404 255.206 45.3712 254 35 C252.9022 25.5591 255.7022 14.7659 256 14 C256.0144 13.9629 260.1147 15.3179 261 17 C263.929 22.5651 262.4846 25.6396 266 33 C278.2156 58.5764 280.3215 58.1553 293 84 C306.2743 111.0591 307.7236 111.285 318 139 C323.9107 154.941 322.9542 156.0788 326 173 C327.3906 180.7253 327.9351 181.753 327 189 C326.0782 196.1438 325.3176 198.1942 322 204 C320.1422 207.2512 315 210 315 210 "/>
<path id="4" d="M399 237 C399 237 411.0024 239.9964 411 240 C410.9934 240.0098 395 243 395 243 "/>
<path id="5" d="M125 254 C125 254 125.0331 262.3893 126 263 C128.8778 264.8175 144 266 144 266 "/>
<path id="6" d="M170 275 C170 275 176.5872 277.4503 183 278 C193.6419 278.9122 194.1921 278.7908 205 278 C214.442 277.3091 215.6247 277.3451 224 275 C227.0057 274.1584 227.5657 271.0518 230 271 C246.3762 270.6516 271 274 271 274 "/>
</g>
</g>
</svg>
