<?xml version="1.0" encoding="utf-8"?>
<!DOCTYPE svg PUBLIC "-//W3C//DTD SVG 1.1//EN" "http://www.w3.org/Graphics/SVG/1.1/DTD/svg11.dtd">
<svg viewBox="0 0 800 800" preserveAspectRatio="xMinYMin meet" xmlns="http://www.w3.org/2000/svg" version="1.1">
<g fill="none" stroke="black" stroke-linecap="round" stroke-linejoin="round" stroke-width="1.5601">
<g transform="translate(87.52,111.5569) scale(1.923) translate(-158,-47.8167)">
<path id="0" d="M159 272.8167 C159 272.8167 161.5561 268.2402 165 265.8167 C174.2811 259.2856 175.3558 259.1388 186 253.8167 C191.125 251.2542 191.4571 250.8982 197 249.8167 C211.4826 246.9908 212.0695 246.5632 227 245.8167 C251.7194 244.5807 252.547 243.1385 277 245.8167 C356.4814 254.5218 357.5316 259.944 437 268.8167 C459.4863 271.3273 481.5797 268.5799 483 268.8167 C483.0875 268.8312 481.5802 273.1372 479 275.8167 C469.2074 285.9859 468.4483 287.1531 457 295.8167 C450.5093 300.7285 449.5388 302.0685 442 303.8167 C417.0178 309.6097 414.8376 310.5233 388 311.8167 C332.7313 314.4802 331.4538 314.3373 276 311.8167 C244.1321 310.3681 242.8075 310.4183 212 303.8167 C187.8897 298.6502 182.2613 296.271 164 287.8167 C160.6493 286.2654 159.6493 282.9398 158 278.8167 C157.132 276.6466 157.999 272.8145 158 272.8167 C158.0049 272.8271 161.5758 286.33 167 297.8167 C169.7405 303.62 170.3207 305.8785 175 308.8167 C189.14 317.6953 192.1448 318.1962 210 324.8167 C236.3049 334.5702 236.9375 335.8317 264 341.8167 C288.0486 347.1351 289.0888 346.2915 314 347.8167 C337.7404 349.2702 339.8684 351.617 362 347.8167 C386.8608 343.5476 388.5249 340.8426 413 330.8167 C429.4524 324.0771 431.0806 323.8696 445 313.8167 C456.911 305.2143 457.5583 302.0794 467 291.8167 C467.8762 290.8643 468.0312 288.8323 468 288.8167 C467.4064 288.5199 458.9812 287.8543 459 287.8167 C459.1263 287.5641 476 272.8167 476 272.8167 "/>
<path id="1" d="M288 275.8167 C288 275.8167 290.8883 269.8805 292 263.8167 C296.3028 240.3471 296.9371 239.6872 299 215.8167 C300.4006 199.61 297.1836 198.9375 299 182.8167 C305.099 128.6883 308.5879 127.9185 315 73.8167 C316.5033 61.1323 315.0555 47.8832 315 47.8167 C314.9879 47.8022 308.6289 57.9086 305 61.8167 C304.5659 62.2842 302.5478 61.2937 302 61.8167 C294.87 68.6226 291.5797 71.8239 283 82.8167 C275.7811 92.0659 275.1129 92.9316 270 102.8167 C268.0802 106.5283 270.0978 108.2863 268 111.8167 C250.8748 140.6371 246.6384 141.0116 229 171.8167 C211.3633 202.6187 209.767 204.0718 197 235.8167 C192.0156 248.2103 195.3602 250.3761 192 263.8167 C190.4779 269.9051 186.8055 275.8037 187 275.8167 C194.8681 276.3412 272.5946 272.6708 357 274.8167 C389.8624 275.6522 390.096 279.7036 423 281.8167 C444.2924 283.1841 460.651 282.1898 466 281.8167 C466.026 281.8148 466 278.8167 466 278.8167 "/>
<path id="2" d="M314 48.8167 C314 48.8167 320.8843 55.8274 325 63.8167 C337.5161 88.1126 333.065 93.7815 348 114.8167 C366.4286 140.7724 373.5401 138.7365 396 163.8167 C403.0189 171.6545 401.4356 174.002 408 181.8167 C411.4037 185.8687 413.5991 184.6804 417 188.8167 C431.4118 206.3446 430.3048 208.6074 445 226.8167 C453.1304 236.8913 455.3093 235.6317 463 245.8167 C473.4646 259.6751 482 275.8167 482 275.8167 "/>
</g>
</g>
</svg>
