<?xml version="1.0" encoding="utf-8"?>
<!DOCTYPE svg PUBLIC "-//W3C//DTD SVG 1.1//EN" "http://www.w3.org/Graphics/SVG/1.1/DTD/svg11.dtd">
<svg viewBox="0 0 800 800" preserveAspectRatio="xMinYMin meet" xmlns="http://www.w3.org/2000/svg" version="1.1">
<g fill="none" stroke="black" stroke-linecap="round" stroke-linejoin="round" stroke-width="1.2577">
<g transform="translate(203.2092,87.52) scale(2.3853) translate(-161,-84.1333)">
<path id="0" d="M196 132.1333 C196 132.1333 195.5136 164.2969 189 194.1333 C180.2603 234.1666 175.2589 234.197 165 274.1333 C161.4249 288.0507 161.8881 288.7017 161 303.1333 C159.9068 320.8976 158.7689 337.1743 161 339.1333 C163.8939 341.6743 181.9537 338.0594 202 339.1333 C209.4126 339.5304 216.7778 342.5566 217 342.1333 C219.1036 338.1266 217.7978 319.7687 223 299.1333 C232.5893 261.096 236.8109 260.7545 247 223.1333 C249.537 213.766 247.0305 212.8292 249 203.1333 C253.4622 181.1655 259.9994 159.1281 260 159.1333 C260.0021 159.151 258.6703 231.688 261 303.1333 C261.6496 323.0557 262.6039 339.9029 266 343.1333 C268.765 345.7634 284.4009 341.2534 302 342.1333 C313.847 342.7257 325.9995 346.1365 326 346.1333 C326.5908 342.642 314.946 311.3279 313 277.1333 C308.0594 190.3196 312 100.1333 312 100.1333 "/>
<path id="1" d="M198 137.1333 C198 137.1333 196.1802 96.0987 199 92.1333 C200.3599 90.221 214.872 90.5067 230 92.1333 C260.7806 95.4431 261.2496 98.3833 292 102.1333 C301.7281 103.3197 307.9687 103.2328 312 102.1333 C312.733 101.9334 314 96.1333 314 96.1333 C308.6585 94.3528 285.6918 86.9025 258 84.1333 C227.0162 81.035 199.2292 83.2056 194 84.1333 C193.996 84.134 196 95.1333 196 95.1333 "/>
<path id="2" d="M263 94.1333 C263 94.1333 264.3583 105.3539 263 115.1333 C261.9849 122.442 258.5642 122.9398 258 130.1333 C256.6833 146.9213 259 166.1333 259 166.1333 "/>
<path id="3" d="M257 94.1333 L257 129.1333 "/>
<path id="4" d="M258 85.1333 L256 90.1333 "/>
<path id="5" d="M268 88.1333 C268 88.1333 265.2895 87.8439 265 88.1333 C264.5175 88.6158 264 92.1333 264 92.1333 "/>
</g>
</g>
</svg>
