<?xml version="1.0" encoding="utf-8"?>
<!DOCTYPE svg PUBLIC "-//W3C//DTD SVG 1.1//EN" "http://www.w3.org/Graphics/SVG/1.1/DTD/svg11.dtd">
<svg viewBox="0 0 800 800" preserveAspectRatio="xMinYMin meet" xmlns="http://www.w3.org/2000/svg" version="1.1">
<g fill="none" stroke="black" stroke-linecap="round" stroke-linejoin="round" stroke-width="1.7329">
<g transform="translate(221.6873,87.52) scale(1.7312) translate(-164.8,-88.6)">
<path id="0" d="M182.8 88.6 C182.8 88.6 189.7463 97.1123 197.8 103.6 C207.3984 111.332 208.228 113.7556 218.8 117.6 C233.4609 122.9312 235.9284 122.1113 252.8 123.6 C269.413 125.0658 271.5895 124.4006 286.8 123.6 C288.6366 123.5033 290.8 121.6 290.8 121.6 "/>
<path id="1" d="M185.8 91.6 C185.8 91.6 243.2294 90.5793 243.8 90.6 C243.8285 90.601 240.8 93.6 240.8 93.6 "/>
<path id="2" d="M188.8 90.6 C188.8 90.6 185.3782 150.5671 185.8 201.6 C185.8381 206.2138 189.597 206.88 189.8 211.6 C191.4565 250.1136 193.0739 254.6586 189.8 294.6 C188.2293 313.7621 185.2595 314.7018 179.8 333.6 C178.9051 336.6979 178.0567 338.6575 176.8 339.6 C175.9622 340.2283 171.8 339.6 171.8 339.6 "/>
<path id="3" d="M292.8 127.6 L291.8 174.6 "/>
<path id="4" d="M278.8 133.6 C278.8 133.6 283.2775 138.0326 284.8 142.6 C287.891 151.8731 288.8 163.6 288.8 163.6 "/>
<path id="5" d="M191.8 114.6 C191.8 114.6 200.0614 121.8628 207.8 123.6 C222.1642 126.8246 224.5585 124.0532 240.8 125.6 C245.2973 126.0283 247.5063 126.4531 249.8 127.6 C250.3734 127.8867 250.5441 130.5862 250.8 130.6 C266.8866 131.4695 287.4257 131.9531 323.8 131.6 C338.76 131.4548 348.4461 132.9281 353.8 129.6 C357.2365 127.4638 360.8602 108.6289 360.8 108.6 C360.2587 108.3402 344.506 115.5514 328.8 117.6 C311.2825 119.8849 297.9182 116.634 291.8 117.6 C291.478 117.6508 290.8 123.6 290.8 123.6 "/>
<path id="6" d="M287.8 129.6 C287.8 129.6 277.6236 130.2739 276.8 129.6 C276.2486 129.1489 275.8575 123.8987 276.8 120.6 C277.4433 118.3485 279.1094 116.6566 280.8 115.6 C281.7491 115.0068 284.7892 115.5407 284.8 115.6 C284.9578 116.4677 282.654 124.8479 282.8 126.6 C282.8168 126.8022 285.8 127.6 285.8 127.6 "/>
<path id="7" d="M288.8 135.6 C288.8 135.6 290.7654 137.3196 290.8 138.6 C291.6045 168.3664 290.8 209.6 290.8 209.6 "/>
<path id="8" d="M196.8 94.6 C196.8 94.6 212.7991 94.6023 212.8 94.6 C212.8001 94.5998 198.7942 89.6003 198.8 89.6 C198.8474 89.5976 256.7056 87.1958 310.8 89.6 C322.0375 90.0994 323.2721 91.5058 333.8 95.6 C340.4954 98.2038 341.4217 99.0709 346.8 103.6 C350.2708 106.5228 352.4944 111.4472 352.8 111.6 C352.8 111.6 354.0273 107.8377 354.8 107.6 C357.4308 106.7905 365.8 107.6 365.8 107.6 C365.8 107.6 353.0141 107.6023 340.8 105.6 C322.8069 102.6503 322.5407 98.6284 304.8 97.6 C255.174 94.7231 215.5451 97.3501 202.8 97.6 C202.7951 97.6001 202.8 99.6 202.8 99.6 "/>
<path id="9" d="M174.8 339.6 C174.8 339.6 176.7984 339.5801 176.8 339.6 C177.0484 342.7051 179.0236 353.7291 176.8 364.6 C174.9463 373.6623 170.9835 374.0495 167.8 383.6 C165.1953 391.4141 165.2682 392.1728 164.8 400.6 C163.7909 418.7635 163.7094 422.6948 164.8 437.6 C164.9244 439.2998 166.2179 441.0067 167.8 441.6 C179.0506 445.819 182.6709 448.5804 196.8 449.6 C229.2492 451.9417 256.1268 449.4928 264.8 448.6 C264.8787 448.5919 265.6301 444.9519 264.8 442.6 C262.9852 437.4581 260.0444 436.785 258.8 431.6 C257.3995 425.7647 258.115 424.4503 258.8 417.6 C260.0918 404.6822 261.9238 404.5239 262.8 391.6 C263.9006 375.3659 261.8175 374.9753 262.8 358.6 C264.8055 325.1744 263.8857 321.0855 268.8 291.6 C269.6793 286.3244 273.0904 286.2654 275.8 280.6 C278.4275 275.1062 278.7364 274.5564 279.8 268.6 C281.1535 261.0206 279.1322 259.5492 280.8 252.6 C281.8475 248.2353 285.1445 247.8606 285.8 243.6 C287.8232 230.4493 286.8 213.6 286.8 213.6 C286.8 213.6 285.3578 316.4453 285.8 418.6 C285.8561 431.5608 285.462 442.7675 287.8 444.6 C291.7023 447.6585 305.3327 446.9686 322.8 447.6 C346.6812 448.4632 370.607 448.6294 370.8 447.6 C375.5796 422.1088 369.9361 335.014 364.8 223.6 C363.4644 194.627 361.8462 190.6865 357.8 165.6 C357.4932 163.6976 355.0579 163.4054 354.8 161.6 C353.3939 151.7574 353.8 137.6 353.8 137.6 "/>
<path id="10" d="M221.8 126.6 C221.8 126.6 222.1247 130.5688 220.8 132.6 C215.5965 140.5787 213.9314 141.28 206.8 149.6 C204.9732 151.7312 204.9533 152.5233 202.8 153.6 C197.7756 156.1122 190.8 157.6 190.8 157.6 "/>
<path id="11" d="M330.8 132.6 C330.8 132.6 333.4047 132.9412 333.8 133.6 C335.3247 136.1412 334.5225 139.1837 336.8 142.6 C339.9057 147.2586 341.3948 149.3974 345.8 151.6 C350.3683 153.8842 358.8 153.6 358.8 153.6 "/>
</g>
</g>
</svg>
