<?xml version="1.0" encoding="utf-8"?>
<!DOCTYPE svg PUBLIC "-//W3C//DTD SVG 1.1//EN" "http://www.w3.org/Graphics/SVG/1.1/DTD/svg11.dtd">
<svg viewBox="0 0 800 800" preserveAspectRatio="xMinYMin meet" xmlns="http://www.w3.org/2000/svg" version="1.1">
<g fill="none" stroke="black" stroke-linecap="round" stroke-linejoin="round" stroke-width="2.0689">
<g transform="translate(204.9719,87.52) scale(1.45) translate(-222,-25)">
<path id="0" d="M225 55 C225 55 280.2203 49.061 290 53 C292.9686 54.1957 292.1846 69.2863 297 84 C300.9922 96.1985 307.9898 108.0036 308 108 C308.0668 107.9764 311.8936 93.0083 314 78 C315.8632 64.7248 312.0344 56.5519 316 51 C320.8823 44.1648 329.8268 42.9218 344 36 C351.1939 32.4867 352.6457 31.6722 359 30 C360.4322 29.6231 362.775 30.3667 363 31 C378.6836 75.1465 386.669 107.1106 413 182 C425.1039 216.4253 428.2317 216.2643 440 250 C442.8952 258.2997 440.3636 259.4665 443 268 C459.1318 320.2162 478 373 478 373 "/>
<path id="1" d="M222 57 C222 57 224 56.9978 224 57 C224.1228 70.999 220.4988 114.724 223 171 C224.4574 203.7911 229.0323 203.9313 232 237 C239.5107 320.6902 238.9187 321.1586 244 405 C244.9035 419.9071 242.0039 424.4493 244 435 C244.5539 437.9276 247.9563 441.3419 251 442 C261.8028 444.3357 266.3596 441.6381 281 443 C287.4603 443.601 291.1759 443.8819 294 446 C295.8056 447.3542 297.141 454.906 297 455 C296.1229 455.5848 286.9152 457.5486 279 456 C265.6823 453.3944 250.9996 446.0018 251 446 C251.0005 445.9976 281 446 281 446 "/>
<path id="2" d="M302 452 C302 452 299 453 299 453 C298.7131 452.1394 297.9608 446.4705 298 440 C298.4588 364.3035 295.5231 363.1482 300 288 C302.4638 246.6441 304.3081 245.921 312 205 C316.7316 179.8281 324.9016 155.0813 325 155 C325.0283 154.9766 329.0696 170.9269 335 186 C352.986 231.7144 353.2705 231.8415 373 277 C398.2515 334.7979 401.1959 334.0421 425 392 C435.4712 417.4951 437.7956 439.2339 442 445 C442.5224 445.7164 454.8143 442.1835 460 440 C460.5837 439.7542 460.2434 437.5044 461 437 C465.7076 433.8616 468.5877 434.1222 475 430 C482.3036 425.3048 484.5024 424.3409 489 419 C490.9112 416.7304 491.7093 413.128 491 411 C489.7748 407.3244 485.609 402.3045 483 401 C481.5952 400.2976 478.4687 401.3569 475 403 C469.45 405.6289 468.5419 405.9123 464 410 C459.038 414.4658 458.5118 415.1469 455 421 C449.7751 429.7082 446.0131 439.9797 446 440 C445.9974 440.0041 446 435 446 435 "/>
<path id="3" d="M476 371 C476 371 475.4375 385.9376 477 400 C477.8826 407.9436 481 416 481 416 "/>
<path id="4" d="M231 52 C231 52 244.2203 42.468 258 36 C268.0964 31.2609 268.9382 31.2958 280 29 C295.0131 25.8841 295.5639 25.908 311 25 C329.2849 23.9244 348 25 348 25 "/>
<path id="5" d="M278 63 C278 63 275.2675 63.5541 275 64 C274.6178 64.6369 274.5477 67.6042 275 68 C276.3732 69.2015 279.734 70.4062 283 71 C284.0771 71.1958 286 70 286 70 C285.9893 69.9678 282 68 282 68 "/>
<path id="6" d="M306 107 C306 107 299.6813 114.6154 299 117 C298.8216 117.6245 300.9299 120.7325 302 121 C304.3409 121.5852 309.696 121.1953 311 120 C312.5999 118.5335 314 110 314 110 "/>
<path id="7" d="M278 67 C278 67 283.7532 68.2875 285 69 C285.175 69.1 285.0588 70.9853 285 71 C284.0588 71.2353 278.2892 71.573 277 71 C276.5524 70.801 276 67 276 67 C276 67 277.3493 70.2534 277 72 C276.5925 74.0377 274.0111 76.9926 274 77 C273.9965 77.0023 273.6169 74.4789 274 74 C274.6641 73.1699 278 72 278 72 "/>
<path id="8" d="M324 64 L330 60 "/>
<path id="9" d="M345 91 C345 91 349.6939 86.1443 355 83 C362.8258 78.3625 372 75 372 75 "/>
<path id="10" d="M233 101 C233 101 254.888 98.0103 259 100 C261.0534 100.9936 264 116 264 116 "/>
<path id="11" d="M354 87 L352 96 "/>
</g>
</g>
</svg>
