<?xml version="1.0" encoding="utf-8"?>
<!DOCTYPE svg PUBLIC "-//W3C//DTD SVG 1.1//EN" "http://www.w3.org/Graphics/SVG/1.1/DTD/svg11.dtd">
<svg viewBox="0 0 800 800" preserveAspectRatio="xMinYMin meet" xmlns="http://www.w3.org/2000/svg" version="1.1">
<g fill="none" stroke="black" stroke-linecap="round" stroke-linejoin="round" stroke-width="1.4497">
<g transform="translate(100.9711,87.52) scale(2.0694) translate(-180.5,-118.6667)">
<path id="0" d="M201.5 118.6667 C201.5 118.6667 369.5091 114.9846 400.5 118.6667 C401.4113 118.7749 403.5 142.6667 403.5 142.6667 "/>
<path id="1" d="M201.5 120.6667 C201.5 120.6667 203.3799 142.4248 204.5 142.6667 C216.6918 145.299 247.3987 142.5454 289.5 139.6667 C305.4807 138.574 305.6556 135.1948 321.5 134.6667 C364.8301 133.2223 409.5 135.6667 409.5 135.6667 "/>
<path id="2" d="M205.5 145.6667 C205.5 145.6667 206.4427 174.8573 204.5 201.6667 C204.0396 208.0208 201.6272 208.0911 200.5 214.6667 C192.7247 260.0227 190.9345 260.843 186.5 306.6667 C183.5028 337.638 187.5844 338.7485 185.5 369.6667 C184.6296 382.5782 181.9312 382.7858 180.5 395.6667 C179.476 404.8827 179.96 414.5368 180.5 414.6667 C189.835 416.9118 238.1601 420.5071 259.5 414.6667 C265.7442 412.9577 269.1002 402.2342 275.5 388.6667 C293.8211 349.826 292.9642 348.7661 309.5 308.6667 C312.925 300.361 313.5528 300.2667 315.5 291.6667 C319.4624 274.166 321.2636 256.423 321.5 255.6667 C321.5172 255.6118 324.4142 257.4347 325.5 259.6667 C332.7701 274.6108 333.2673 275.9273 339.5 292.6667 C350.7248 322.8133 348.7998 323.7661 360.5 353.6667 C371.2154 381.0505 374.6039 382.514 384.5 407.6667 C385.5919 410.4419 384.178 414.567 384.5 414.6667 C391.0179 416.6841 405.6057 419.0594 426.5 420.6667 C444.2147 422.0293 444.8583 421.097 462.5 420.6667 C464.9622 420.6066 467.2496 420.1674 467.5 419.6667 C468.1438 418.379 467.5 410.6667 467.5 410.6667 "/>
<path id="3" d="M403.5 136.6667 C403.5 136.6667 412.4756 206.0123 425.5 273.6667 C430.3594 298.9087 431.6575 299.1164 439.5 323.6667 C443.0813 334.8777 445.4091 334.8484 448.5 345.6667 C450.1713 351.5161 447.3664 353.3326 449.5 358.6667 C456.6014 376.4202 462.5807 377.9088 468.5 395.6667 C471.6873 405.2286 469.7366 412.9878 469.5 418.6667 C469.4888 418.9346 467.5 419.6667 467.5 419.6667 "/>
</g>
</g>
</svg>
