<?xml version="1.0" encoding="utf-8"?>
<!DOCTYPE svg PUBLIC "-//W3C//DTD SVG 1.1//EN" "http://www.w3.org/Graphics/SVG/1.1/DTD/svg11.dtd">
<svg viewBox="0 0 800 800" preserveAspectRatio="xMinYMin meet" xmlns="http://www.w3.org/2000/svg" version="1.1">
<g fill="none" stroke="black" stroke-linecap="round" stroke-linejoin="round" stroke-width="0.90246">
<g transform="translate(112.4519,87.52) scale(3.3243) translate(-114,-215.6667)">
<path id="0" d="M160 268.6667 C160 268.6667 157.9299 282.5671 154 295.6667 C149.0058 312.3141 146.738 312.8733 142 328.6667 C141.0938 331.6873 143.1822 333.0912 142 335.6667 C130.7095 360.2637 114.7324 384.7843 114 389.6667 C113.9604 389.9309 123.636 394.4061 133 395.6667 C148.6642 397.7753 161.3749 398.5938 166 396.6667 C167.3721 396.0949 166.0577 387.4707 169 380.6667 C173.5284 370.1948 177.2311 370.5051 182 359.6667 C187.8826 346.2971 185.4357 344.2682 191 330.6667 C194.1807 322.8917 196.7611 323.4939 200 315.6667 C208.5117 295.0967 214.9824 272.6719 215 272.6667 C215.0058 272.665 217.5056 291.9588 217 310.6667 C216.5189 328.4685 216.7773 329.4327 213 346.6667 C208.9407 365.1874 208.08 366.1352 201 383.6667 C197.8472 391.4736 191.912 398.6292 192 398.6667 C193.9555 399.4988 245.9959 406.2333 248 403.6667 C252.077 398.4453 241.4572 360.6568 249 325.6667 C258.3104 282.4768 284.4906 240.5918 284 236.6667 C283.9725 236.4464 258.6982 240.8107 238 237.6667 C222.2106 235.2683 221.1001 227.8413 205 224.6667 C187.7075 221.2569 171.1795 221.8449 167 223.6667 C166.0158 224.0957 167.6163 233.3157 166 241.6667 C164.7591 248.0779 162.4299 248.2321 161 254.6667 C159.5588 261.1519 160 268.6667 160 268.6667 "/>
<path id="1" d="M168 220.6667 C168 220.6667 174.2923 234.3668 173 240.6667 C171.5244 247.8605 160 259.6667 160 259.6667 "/>
<path id="2" d="M282 238.6667 C282 238.6667 278.8864 238.0018 278 238.6667 C274.7313 241.1182 272.6843 242.8733 270 247.6667 C266.1448 254.551 265.3386 256.1703 264 263.6667 C263.073 268.8577 265 275.6667 265 275.6667 "/>
<path id="3" d="M168 222.6667 C168 222.6667 168.5334 215.8087 169 215.6667 C172.2791 214.6687 180.9266 214.2276 191 215.6667 C197.2795 216.5637 197.5764 219.7651 204 220.6667 C224.8252 223.5895 227.0185 220.7727 248 223.6667 C254.9395 224.6238 255.0928 227.4826 262 228.6667 C271.8428 230.354 272.7294 228.845 283 229.6667 C284.9879 229.8257 286.6734 230.1768 287 230.6667 C287.4454 231.3347 287.4331 234.8004 287 235.6667 C286.7834 236.0998 284 236.6667 284 236.6667 "/>
<path id="4" d="M231 223.6667 L229 233.6667 "/>
<path id="5" d="M239 225.6667 L238 234.6667 "/>
</g>
</g>
</svg>
