<?xml version="1.0" encoding="utf-8"?>
<!DOCTYPE svg PUBLIC "-//W3C//DTD SVG 1.1//EN" "http://www.w3.org/Graphics/SVG/1.1/DTD/svg11.dtd">
<svg viewBox="0 0 800 800" preserveAspectRatio="xMinYMin meet" xmlns="http://www.w3.org/2000/svg" version="1.1">
<g fill="none" stroke="black" stroke-linecap="round" stroke-linejoin="round" stroke-width="1.6513">
<g transform="translate(87.52,204.7) scale(1.8167) translate(-127,-135)">
<path id="0" d="M239 151 C239 151 242.1314 149.0667 245 149 C282.9531 148.1174 285.4553 150.4646 325 149 C338.9139 148.4847 351.3911 145.3575 353 145 C353.0309 144.9931 352 143 352 143 "/>
<path id="1" d="M239 149 C239 149 239.6886 151.5769 239 153 C233.1027 165.1878 232.1764 166.9845 224 180 C207.7565 205.857 205.2781 204.809 190 231 C177.5259 252.3842 180.3932 254.6416 168 276 C157.1643 294.6743 154.538 293.6015 143 312 C136.1846 322.8677 136.0644 326.897 131 335 C130.5226 335.7638 128 336 128 336 "/>
<path id="2" d="M352 144 C352 144 364.3062 158.3711 374 174 C388.6026 197.543 385.7126 200.4858 401 223 C412.5819 240.057 416.1825 238.272 429 255 C445.4859 276.5155 446.5128 277.2847 460 300 C464.9256 308.2957 464.3437 309.8926 467 319 C467.6312 321.1641 467.2155 323.4612 467 324 C466.9655 324.0862 465 324 465 324 "/>
<path id="3" d="M127 339 L171 350 "/>
<path id="4" d="M174 350 C174 350 185.4639 338.8132 196 327 C201.8861 320.4005 202.4969 320.2049 207 313 C209.6965 308.6857 208.2182 306.7753 211 303 C214.5169 298.2271 216.7281 299.0012 221 294 C236.946 275.3315 238.8814 275.2482 252 255 C261.2627 240.7032 260.7647 238.5883 267 223 C268.3783 219.5542 268.093 215.7437 268 215 C267.997 214.9764 266 215 266 215 "/>
<path id="5" d="M269 214 C269 214 285.086 211.4613 301 211 C319.3363 210.4685 324.8436 212.3373 338 212 C338.7299 211.9813 340 210 340 210 "/>
<path id="6" d="M337 210 C337 210 338.5027 217.2309 342 222 C348.8012 231.2743 351.5867 230.6528 359 240 C362.7107 244.6787 361.0988 246.6344 365 251 C381.2541 269.1892 386.7137 268.2492 401 287 C409.1406 297.6846 406.0105 302.5626 413 314 C416.0763 319.0339 419.9111 318.094 423 323 C427.525 330.1867 427.6931 340.1719 430 341 C435.2379 342.8803 449.2931 340.7191 462 337 C466.3446 335.7284 470.6409 329.4616 471 329 C471.0133 328.9829 469 328 469 328 "/>
<path id="7" d="M305 150 C305 150 305.0221 213.3144 305 214 C304.9993 214.0207 303 212 303 212 "/>
<path id="8" d="M290 151 C290 151 290.2903 209.5004 290 214 C289.9966 214.053 286 213 286 213 "/>
<path id="9" d="M300 154 C300 154 297.1102 151.3517 295 151 C292.3783 150.563 288.2663 151.4294 288 152 C287.1263 153.8722 287.247 165.3882 288 166 C289.0053 166.8168 298.3285 166.8046 304 165 C306.7488 164.1254 308.9449 161.6379 310 159 C311.1305 156.1737 311.0346 152.2417 310 150 C309.2218 148.3139 306.9414 146.9805 304 146 C300.2564 144.7521 297.4229 144.0023 295 145 C291.8137 146.312 290.3626 150.7583 287 153 C285.9912 153.6725 283 153 283 153 "/>
<path id="10" d="M242 150 C242 150 241.8199 137.7702 243 136 C243.5632 135.1552 247.5233 135.0411 252 135 C301.6905 134.5441 337.3084 133.3999 352 135 C352.3229 135.0352 353.2102 143.4772 353 146 C352.9775 146.2696 351 147 351 147 "/>
<path id="11" d="M468 320 L470 333 "/>
</g>
</g>
</svg>
