<?xml version="1.0" encoding="utf-8"?>
<!DOCTYPE svg PUBLIC "-//W3C//DTD SVG 1.1//EN" "http://www.w3.org/Graphics/SVG/1.1/DTD/svg11.dtd">
<svg viewBox="0 0 800 800" preserveAspectRatio="xMinYMin meet" xmlns="http://www.w3.org/2000/svg" version="1.1">
<g fill="none" stroke="black" stroke-linecap="round" stroke-linejoin="round" stroke-width="1.5457">
<g transform="translate(175.8296,87.52) scale(1.9409) translate(-71,-122.4167)">
<path id="0" d="M139 126.4167 C139 126.4167 155.6299 128.3577 171 127.4167 C179.2989 126.9086 179.6952 123.7168 188 123.4167 C219.9528 122.2618 246.8265 121.2647 254 124.4167 C255.3284 125.0003 252.6439 138.6419 254 152.4167 C262.0817 234.5095 262.9323 235.1245 273 317.4167 C274.4133 328.969 274.144 329.1896 277 340.4167 C288.5774 385.9279 301.6265 422.6395 302 431.4167 C302.0085 431.6175 291.1096 432.0096 281 434.4167 C270.447 436.9293 270.2305 439.4812 260 441.4167 C252.6677 442.8039 244.9248 442.5046 244 441.4167 C242.5822 439.7487 245.1206 430.7474 243 421.4167 C237.8438 398.7293 234.6851 398.612 229 375.4167 C222.2493 347.874 224.5767 347.1082 218 319.4167 C205.611 267.2523 204.8383 267.1988 191 215.4167 C189.3739 209.3317 188.351 205.7326 187 203.4167 C186.8351 203.1339 184.1055 203.1665 184 203.4167 C174.0893 226.9257 160.7998 254.652 144 305.4167 C138.3165 322.5907 141.8808 324.3061 138 342.4167 C135.9437 352.0126 133.3599 351.8972 132 361.4167 C127.0006 396.4128 129.6012 399.9536 125 433.4167 C124.4608 437.338 122.8278 440.7465 121 441.4167 C113.8557 444.0362 107.9554 443.5128 95 444.4167 C86.5968 445.0029 83.3083 445.6806 78 444.4167 C76.3793 444.0308 75.0007 441.9899 74 439.4167 C71.8375 433.8559 69.806 431.5337 71 426.4167 C82.0888 378.8932 90.3867 372.7749 102 319.4167 C108.5655 289.2511 103.4822 287.5393 108 256.4167 C112.4379 225.8442 113.047 225.5464 120 195.4167 C123.4975 180.261 125.8388 180.2743 129 165.4167 C130.7049 157.4034 128.3586 156.4186 130 148.4167 C132.2359 137.5168 137 126.4167 137 126.4167 "/>
<path id="1" d="M130 151.4167 C130 151.4167 150.1031 149.8536 170 150.4167 C202.9095 151.3481 204.3347 154.7765 236 154.4167 C246.5897 154.2963 258 149.4167 258 149.4167 "/>
<path id="2" d="M153 127.4167 L151 149.4167 "/>
<path id="3" d="M189 122.4167 L189 153.4167 "/>
<path id="4" d="M229 124.4167 L224 156.4167 "/>
</g>
</g>
</svg>
