<?xml version="1.0" encoding="utf-8"?>
<!DOCTYPE svg PUBLIC "-//W3C//DTD SVG 1.1//EN" "http://www.w3.org/Graphics/SVG/1.1/DTD/svg11.dtd">
<svg viewBox="0 0 800 800" preserveAspectRatio="xMinYMin meet" xmlns="http://www.w3.org/2000/svg" version="1.1">
<g fill="none" stroke="black" stroke-linecap="round" stroke-linejoin="round" stroke-width="1.3057">
<g transform="translate(249.5041,87.52) scale(2.2976) translate(-217,-93)">
<path id="0" d="M235 94 C235 94 334.3465 91.4626 348 94 C348.4715 94.0876 348.4194 114.9312 348 115 C332.4194 117.5562 236.9918 117.8978 220 115 C219.3692 114.8924 217.8078 94.1404 219 93 C220.4276 91.6345 243 93 243 93 "/>
<path id="1" d="M348 114 C348 114 346.0578 121.0624 346 128 C345.0678 239.8594 346 354 346 354 "/>
<path id="2" d="M221 112 C221 112 222.2643 234.8596 221 328 C220.9705 330.1736 218.2569 330.6882 218 333 C216.5016 346.4855 216.8791 363.3469 217 364 C217.0113 364.0612 220.2766 360.3242 223 360 C238.189 358.1918 259 359 259 359 "/>
<path id="3" d="M306 363 C306 363 326.9915 363.8099 344 363 C345.833 362.9127 347.7827 361.7607 348 361 C348.8299 358.0955 348 349 348 349 "/>
<path id="4" d="M259 360 C259 360 259.4955 317.0542 263 275 C264.4579 257.5048 265.1165 256.9461 269 240 C270.5102 233.4099 273.5921 233.2008 274 227 C275.9282 197.6915 274 164 274 164 "/>
<path id="5" d="M306 365 C306 365 297.8569 350.1802 296 336 C292.6224 310.2072 296.506 308.1087 295 281 C294.5304 272.5473 294.3438 272.0968 292 264 C288.9416 253.4348 285.4115 253.3512 284 243 C279.6841 211.3501 284.0928 207.6265 280 176 C278.8539 167.1441 273 158 273 158 "/>
</g>
</g>
</svg>
