<?xml version="1.0" encoding="utf-8"?>
<!DOCTYPE svg PUBLIC "-//W3C//DTD SVG 1.1//EN" "http://www.w3.org/Graphics/SVG/1.1/DTD/svg11.dtd">
<svg viewBox="0 0 800 800" preserveAspectRatio="xMinYMin meet" xmlns="http://www.w3.org/2000/svg" version="1.1">
<g fill="none" stroke="black" stroke-linecap="round" stroke-linejoin="round" stroke-width="1.0129">
<g transform="translate(87.52,112.6961) scale(2.9619) translate(-173,-70)">
<path id="0" d="M205 82 C205 82 173.8858 235.0955 173 258 C172.9798 258.5212 185.7194 262.0903 198 263 C212.0017 264.0372 212.9809 261.6311 227 262 C231.3802 262.1153 235.4118 264.3529 236 264 C236.4374 263.7376 235.6355 259.5223 237 256 C256.4035 205.9119 279 153 279 153 "/>
<path id="1" d="M280 154 C280 154 288.9672 168.8771 293 184 C298.6475 205.1781 294.9229 207.6763 300 229 C302.1655 238.0952 304.9748 237.9245 308 247 C310.3421 254.0262 309.9217 261.773 311 262 C323.8198 264.6989 383.7686 263.0266 384 263 C384.0352 262.996 376.1148 259.8496 372 255 C363.2698 244.7108 362.8339 242.8477 356 230 C350.5372 219.73 350.5434 219.1364 347 208 C343.638 197.4336 345.5389 196.3641 342 186 C338.705 176.3503 335.1265 176.5691 333 167 C326.5193 137.837 327.3802 135.7971 324 105 C322.9267 95.2213 324.4316 85.0755 324 85 C309.1806 82.4066 204 84 204 84 "/>
<path id="2" d="M215 101 C215 101 214.7485 111.2575 213 120 C212.4051 122.9743 212.0181 123.8474 210 126 C205.1337 131.1907 198 136 198 136 "/>
<path id="3" d="M217 89 L217 102 "/>
<path id="4" d="M302 89 C302 89 298.1111 109.1609 302 116 C307.832 126.2562 331 140 331 140 "/>
<path id="5" d="M209 73 L208 85 "/>
<path id="6" d="M212 70 C212 70 297.6261 69.6904 321 73 C322.2476 73.1767 325 86 325 86 "/>
<path id="7" d="M266 74 C266 74 266.9997 77 267 77 C267 77 266.82 74.135 267 74 C267.32 73.76 270.8462 73.7692 271 74 C271.3462 74.5192 271.1446 79.8843 271 80 C270.8976 80.0819 266.3965 78.5947 266 78 C265.7522 77.6283 267 74 267 74 "/>
</g>
</g>
</svg>
