<?xml version="1.0" encoding="utf-8"?>
<!DOCTYPE svg PUBLIC "-//W3C//DTD SVG 1.1//EN" "http://www.w3.org/Graphics/SVG/1.1/DTD/svg11.dtd">
<svg viewBox="0 0 800 800" preserveAspectRatio="xMinYMin meet" xmlns="http://www.w3.org/2000/svg" version="1.1">
<g fill="none" stroke="black" stroke-linecap="round" stroke-linejoin="round" stroke-width="0.79685">
<g transform="translate(87.52,211.759) scale(3.7648) translate(-161,-157.1333)">
<path id="0" d="M218 157.1333 L268 157.1333 "/>
<path id="1" d="M221 157.1333 C221 157.1333 216.5413 163.7385 211 168.1333 C202.5606 174.8267 200.7721 173.4878 192 180.1333 C184.5527 185.7752 178 193.1333 178 193.1333 "/>
<path id="2" d="M269 157.1333 C269 157.1333 276.0935 164.7773 284 170.1333 C291.1137 174.9523 292.6649 173.357 300 178.1333 C313.8418 187.1466 327 198.1333 327 198.1333 "/>
<path id="3" d="M180 193.1333 L161 210.1333 "/>
<path id="4" d="M213 257.1333 C213 257.1333 215.1533 255.2199 217 255.1333 C244.0867 253.8636 277 254.1333 277 254.1333 "/>
<path id="5" d="M278 255.1333 L327 197.1333 "/>
<path id="6" d="M162 211.1333 C162 211.1333 185.8216 234.0939 209 253.1333 C212.494 256.0034 218 257.1333 218 257.1333 "/>
</g>
</g>
</svg>
