<?xml version="1.0" encoding="utf-8"?>
<!DOCTYPE svg PUBLIC "-//W3C//DTD SVG 1.1//EN" "http://www.w3.org/Graphics/SVG/1.1/DTD/svg11.dtd">
<svg viewBox="0 0 800 800" preserveAspectRatio="xMinYMin meet" xmlns="http://www.w3.org/2000/svg" version="1.1">
<g fill="none" stroke="black" stroke-linecap="round" stroke-linejoin="round" stroke-width="1.7329">
<g transform="translate(87.52,129.9342) scale(1.7312) translate(-142,-107)">
<path id="0" d="M216 109 C216 109 219.1334 107.0597 222 107 C264.7018 106.1104 271.6437 106.1414 312 107 C313.8127 107.0386 314.1628 108.9302 316 109 C349.8232 110.2844 391 110 391 110 "/>
<path id="1" d="M217 112 C217 112 213.078 121.0797 207 126 C183.3665 145.1319 177.3203 143.6262 154 163 C146.725 169.0438 142 180 142 180 "/>
<path id="2" d="M393 114 C393 114 428.9949 135.8696 459 157 C462.0944 159.1792 460.9396 161.496 464 164 C481.8958 178.642 503 193 503 193 "/>
<path id="3" d="M144 183 C144 183 178.9369 216.6025 210 252 C221.3933 264.9831 219.0688 267.7675 230 281 C237.6529 290.264 240.2956 288.9198 248 298 C253.8452 304.889 252.3453 306.6054 258 314 C271.6726 331.8796 274.7121 335.9893 287 349 C288.127 350.1933 291.173 348.9212 292 350 C299.3236 359.5525 300.272 365.1376 310 379 C320.1503 393.4641 331.6358 406.4633 332 407 C332.0173 407.0254 329.0334 406.9164 329 407 C328.8719 407.3203 328.8905 410.5207 330 412 C332.5084 415.3446 338 419 338 419 "/>
<path id="4" d="M502 198 C502 198 498.3364 210.1851 492 218 C484.5121 227.2351 480.2084 225.9121 472 235 C467.0311 240.5012 467.8789 241.9475 464 249 C462.3873 251.9321 461.3547 252.3401 461 255 C460.5087 258.6851 463.0342 260.7681 462 264 C459.7505 271.0297 455.789 272.5626 453 280 C451.8484 283.0709 454.4484 286.3837 453 288 C429.3133 314.433 414.9008 321.2924 384 357 C371.2343 371.7514 375.1832 377.7431 363 392 C353.2852 403.3683 337 412 337 412 "/>
<path id="5" d="M225 119 C225 119 235.1478 144.6911 246 169 C247.423 172.1876 248.9058 174.2184 250 175 C250.3018 175.2156 252.5669 173.7834 253 174 C253.8662 174.4331 256 178 256 178 "/>
<path id="6" d="M144 180 C144 180 164.3042 178.8063 184 180 C196.9216 180.7831 196.9996 182.8857 210 184 C231.7989 185.8685 254 186 254 186 "/>
<path id="7" d="M288 187 C288 187 313.0355 185.0937 337 187 C356.3461 188.5389 376 194 376 194 "/>
<path id="8" d="M421 199 C421 199 440.0521 195.9843 459 195 C478.3408 193.9953 496.5144 195.0782 498 195 C498.0341 194.9982 497 193 497 193 "/>
<path id="9" d="M390 131 C390 131 396.4683 145.4023 400 160 C403.8454 175.8941 405 193 405 193 "/>
<path id="10" d="M389 214 C389 214 382.242 255.3536 372 295 C366.8885 314.7864 363.3502 315.2744 358 334 C356.7558 338.3548 359.0351 339.4716 358 344 C355.2231 356.149 352.8376 356.5146 350 369 C347.9416 378.0572 348 388 348 388 "/>
<path id="11" d="M272 208 C272 208 277.9458 219.3145 282 231 C286.3542 243.5505 283.7707 245.0664 289 257 C302.8567 288.6216 306.2938 288.325 321 320 C325.5805 329.8657 325.8498 330.4283 328 341 C331.7413 359.3947 331.8923 372.9868 333 379 C333.0105 379.0569 334.943 378.8549 335 379 C337.2883 384.8247 344 407 344 407 "/>
<path id="12" d="M348 381 C348 381 347.1922 386.2314 346 391 C345.7445 392.0218 345.02 393 345 393 C344.98 393 344 391 344 391 "/>
<path id="13" d="M321 121 C321 121 320.6584 125.0099 319 127 C314.0607 132.9271 311.4967 132.4462 306 139 C298.8233 147.5569 300.3488 149.5705 293 158 C283.7193 168.6455 278.7868 170.2437 272 178 C271.2926 178.8085 272.4834 181.0332 272 182 C271.577 182.846 269 184 269 184 "/>
<path id="14" d="M342 138 C342 138 362.7629 161.9602 381 186 C384.2421 190.2737 386 196 386 196 "/>
<path id="15" d="M401 202 L430 200 "/>
<path id="16" d="M391 202 C391 202 391.8264 206.8678 391 211 C389.4389 218.8053 386 227 386 227 "/>
<path id="17" d="M269 193 C269 193 269.1055 203.1589 271 212 C271.9612 216.4855 275 221 275 221 "/>
<path id="18" d="M273 185 L287 185 "/>
<path id="19" d="M263 189 L275 189 "/>
<path id="20" d="M396 117 L393 128 "/>
</g>
</g>
</svg>
