<?xml version="1.0" encoding="utf-8"?>
<!DOCTYPE svg PUBLIC "-//W3C//DTD SVG 1.1//EN" "http://www.w3.org/Graphics/SVG/1.1/DTD/svg11.dtd">
<svg viewBox="0 0 800 800" preserveAspectRatio="xMinYMin meet" xmlns="http://www.w3.org/2000/svg" version="1.1">
<g fill="none" stroke="black" stroke-linecap="round" stroke-linejoin="round" stroke-width="0.62884">
<g transform="translate(163.851,87.52) scale(4.7707) translate(-199,-153.1333)">
<path id="0" d="M200 201.1333 C200 201.1333 203.5363 196.2306 208 193.1333 C227.448 179.6388 229.1843 180.7993 249 167.1333 C257.9629 160.952 266 153.1333 266 153.1333 "/>
<path id="1" d="M267 154.1333 C267 154.1333 266.5045 161.8928 269 167.1333 C275.72 181.2453 279.2884 181.2814 287 196.1333 C292.5652 206.8514 296 219.1333 296 219.1333 "/>
<path id="2" d="M199 205.1333 C199 205.1333 217.7852 229.9117 235 255.1333 C239.104 261.1461 239.8808 261.7758 242 268.1333 C243.5664 272.8324 243 279.1333 243 279.1333 "/>
<path id="3" d="M298 222.1333 C298 222.1333 277.9665 250.1348 257 275.1333 C252.6271 280.3471 250.5819 280.9612 246 284.1333 C245.4682 284.5015 244.0345 284.2195 244 284.1333 C243.7845 283.5945 244 279.1333 244 279.1333 "/>
</g>
</g>
</svg>
