<?xml version="1.0" encoding="utf-8"?>
<!DOCTYPE svg PUBLIC "-//W3C//DTD SVG 1.1//EN" "http://www.w3.org/Graphics/SVG/1.1/DTD/svg11.dtd">
<svg viewBox="0 0 800 800" preserveAspectRatio="xMinYMin meet" xmlns="http://www.w3.org/2000/svg" version="1.1">
<g fill="none" stroke="black" stroke-linecap="round" stroke-linejoin="round" stroke-width="0.75365">
<g transform="translate(137.278,87.52) scale(3.9806) translate(-147,-143)">
<path id="0" d="M159 143 L257 143 "/>
<path id="1" d="M257 143 C257 143 262.7731 144.5875 265 147 C267.4827 149.6896 266.3973 152.3129 269 156 C272.0041 160.2558 277 164 277 164 "/>
<path id="2" d="M159 143 L147 167 "/>
<path id="3" d="M147 168 C147 168 150.1524 169.9783 153 170 C212.171 170.4517 278 169 278 169 "/>
<path id="4" d="M147 170 L156 190 "/>
<path id="5" d="M277 170 L267 190 "/>
<path id="6" d="M267 190 C267 190 263.9731 202.0974 259 213 C251.1229 230.269 248.8771 229.731 241 247 C236.0269 257.9026 237.8291 259.3761 233 270 C230.6102 275.2576 226 280 226 280 "/>
<path id="7" d="M157 191 C157 191 165.2068 210.7308 176 228 C184.8609 242.1775 187.3505 241.0618 197 255 C205.2199 266.8733 206.0562 267.2633 212 280 C216.235 289.0749 217.9798 300.0036 218 300 C218.1233 299.9782 229 277 229 277 "/>
<path id="8" d="M188 170 C188 170 192.1895 178.9476 194 188 C197.0929 203.4645 194.1429 204.7146 198 220 C207.4417 257.4171 221 295 221 295 "/>
<path id="9" d="M248 168 C248 168 244.8039 170.9854 244 174 C241.1485 184.6933 242.8881 186.2954 240 198 C233.4462 224.5603 230.4726 224.5013 225 251 C221.1148 269.8125 221 290 221 290 "/>
<path id="10" d="M189 170 C189 170 187.9582 165.8603 189 164 C193.6601 155.6783 203 145 203 145 "/>
<path id="11" d="M245 171 C245 171 246.1369 169.1826 246 169 C243.3986 165.5315 238.4728 162.2971 233 155 C229.8315 150.7754 228 145 228 145 "/>
<path id="12" d="M278 164 L279 170 "/>
</g>
</g>
</svg>
