<?xml version="1.0" encoding="utf-8"?>
<!DOCTYPE svg PUBLIC "-//W3C//DTD SVG 1.1//EN" "http://www.w3.org/Graphics/SVG/1.1/DTD/svg11.dtd">
<svg viewBox="0 0 800 800" preserveAspectRatio="xMinYMin meet" xmlns="http://www.w3.org/2000/svg" version="1.1">
<g fill="none" stroke="black" stroke-linecap="round" stroke-linejoin="round" stroke-width="1.2145">
<g transform="translate(87.52,218.4405) scale(2.4702) translate(-141,-187)">
<path id="0" d="M187 190 C187 190 222.2376 191.6884 257 191 C272.4286 190.6945 272.5411 188.4638 288 188 C322.3089 186.9707 357 188 357 188 "/>
<path id="1" d="M188 189 C188 189 181.5447 199.5122 174 208 C169.9477 212.5588 167.6854 211.3319 164 216 C153.3832 229.448 152.5873 234.4258 144 246 C143.3822 246.8327 141.0351 247.0468 141 247 C140.8597 246.813 141 242 141 242 "/>
<path id="2" d="M357 189 L393 232 "/>
<path id="3" d="M141 247 C141 247 148.6091 255.1946 154 259 C155.0043 259.7089 157.0855 258.3599 158 259 C160.4919 260.7443 160.5205 263.4106 164 266 C181.2601 278.8448 184.2284 278.0401 201 291 C205.1557 294.2112 203.8384 296.8556 208 300 C225.1559 312.9622 226.7363 314.3718 246 325 C254.8752 329.8966 266 332 266 332 "/>
<path id="4" d="M394 235 C394 235 390.81 235.1 390 236 C387.6228 238.6413 388.3327 241.8122 385 245 C366.7607 262.4463 364.9329 263.1374 344 280 C329.0167 292.0698 328.9587 292.2935 313 303 C289.584 318.7094 265 333 265 333 "/>
<path id="5" d="M144 246 L194 251 "/>
<path id="6" d="M195 252 L277 250 "/>
<path id="7" d="M278 251 C278 251 292.2732 251.9151 306 251 C314.4322 250.4379 323 248 323 248 "/>
<path id="8" d="M325 251 C325 251 334.1059 247.9882 343 247 C351.6798 246.0356 352.5364 248.4106 361 247 C375.7329 244.5445 391 239 391 239 "/>
<path id="9" d="M326 250 C326 250 304.6338 284.2201 282 317 C275.802 325.9764 268 334 268 334 "/>
<path id="10" d="M197 253 C197 253 213.6373 271.2506 226 288 C227.8578 290.517 226.1415 292.9866 228 295 C236.2584 303.9466 239.8149 306.4555 250 314 C251.6208 315.2006 253.7688 313.8372 255 315 C260.8223 320.4988 261.5555 324.1765 268 331 C269.3167 332.3942 272 333.0071 272 333 C272 332.9753 268 326 268 326 "/>
<path id="11" d="M264 251 C264 251 260.8403 265.581 262 279 C264.2411 304.9331 270.9991 331.9649 271 332 C271.0002 332.0087 263 319 263 319 "/>
<path id="12" d="M190 191 C190 191 201.5861 195.5971 213 198 C220.0938 199.4934 228 199 228 199 "/>
<path id="13" d="M228 199 C228 199 233.6013 201.4601 239 202 C248.0774 202.9077 248.5867 202.6276 258 202 C278.4451 200.637 299 198 299 198 "/>
<path id="14" d="M305 198 C305 198 314.8737 198.167 323 196 C328.9631 194.4098 328.9284 191.9516 335 190 C342.3949 187.6231 351 187 351 187 "/>
<path id="15" d="M303 198 C303 198 305.6744 198.3488 306 199 C308.6048 204.2096 308.1607 208.1081 312 216 C316.9802 226.237 319.6269 225.8872 324 236 C327.2517 243.5195 328 253 328 253 "/>
<path id="16" d="M257 205 C257 205 261.9792 218.7204 264 232 C265.3681 240.9902 264.4925 246.075 264 251 C263.9689 251.3111 262 252 262 252 "/>
<path id="17" d="M229 199 C229 199 224.465 199.26 222 201 C217.001 204.5287 215.7875 205.4645 212 211 C203.2415 223.8009 201.8395 225.6034 196 239 C194.0906 243.3804 195 250 195 250 "/>
</g>
</g>
</svg>
