<?xml version="1.0" encoding="utf-8"?>
<!DOCTYPE svg PUBLIC "-//W3C//DTD SVG 1.1//EN" "http://www.w3.org/Graphics/SVG/1.1/DTD/svg11.dtd">
<svg viewBox="0 0 800 800" preserveAspectRatio="xMinYMin meet" xmlns="http://www.w3.org/2000/svg" version="1.1">
<g fill="none" stroke="black" stroke-linecap="round" stroke-linejoin="round" stroke-width="0.96966">
<g transform="translate(87.52,124.6463) scale(3.0939) translate(-159,-202)">
<path id="0" d="M171 251 C171 251 172.8897 258.6909 177 264 C195.9886 288.5269 201.8645 287.4372 219 313 C231.1567 331.1354 226.821 335.7951 238 355 C245.7199 368.2625 256.2399 379.12 258 380 C258.1354 380.0677 261.3175 373.3596 266 369 C275.2146 360.4209 279.7322 359.9375 287 353 C288.1567 351.8959 286.842 349.5439 288 348 C291.8767 342.8311 294.8378 342.6487 299 337 C301.2244 333.9811 299.8491 331.933 302 329 C304.7132 325.3002 307.0747 325.9004 310 322 C314.1067 316.5244 312.5399 314.3521 317 309 C329.3936 294.1277 336.6132 295.1761 345 280 C355.3222 261.3217 359 233 359 233 "/>
<path id="1" d="M170 255 L167 240 "/>
<path id="2" d="M165 210 L166 210 "/>
<path id="3" d="M167 209 L168 209 "/>
<path id="4" d="M169 207 L181 204 "/>
<path id="5" d="M183 204 C183 204 277.7979 200.1264 340 202 C343.6507 202.11 345.5395 205.0781 349 209 C352.5423 213.0146 354.1581 214.3697 355 219 C356.7458 228.6021 356.2765 233.0643 355 242 C354.6908 244.1645 353.2563 245.5898 351 247 C346.2103 249.9936 344.6157 251.82 339 252 C272.5003 254.1314 263.6992 255.2329 195 252 C182.4164 251.4078 177.3606 249.5737 169 244 C163.4856 240.3237 160.8033 235.2131 159 228 C157.0749 220.2995 158.2811 209.7189 160 208 C161.8826 206.1174 181 206 181 206 "/>
<path id="6" d="M208 213 C208 213 239.9603 212.1782 271 215 C294.4472 217.1316 296.6158 218.7232 318 223 C319.496 223.2992 320.7799 224.4498 321 225 C321.1788 225.447 320.8357 227.3117 320 228 C313.9657 232.9694 311.0147 238.357 304 239 C261.1077 242.9318 242.8633 241.632 200 239 C195.7014 238.736 193.2875 235.5615 190 232 C188.4108 230.2783 187.4893 226.7661 188 226 C190.3347 222.4979 195.8741 217.3414 202 214 C204.3853 212.6989 210 214 210 214 "/>
<path id="7" d="M323 226 C323 226 327.6156 226.2451 331 228 C340.4458 232.8978 341.2652 236.5061 350 240 C354.0371 241.6148 361 240 361 240 "/>
<path id="8" d="M189 232 L168 240 "/>
<path id="9" d="M187 224 L166 207 "/>
<path id="10" d="M315 226 C315 226 320.2184 223.0942 321 222 C321.2156 221.6982 319.9417 219.0389 320 219 C320.4473 218.7018 324.8143 219.0928 327 218 C328.4571 217.2714 328.3746 214.6726 330 214 C340.2339 209.7653 356 206 356 206 "/>
<path id="11" d="M271 259 C271 259 273.5365 286.423 270 310 C267.8808 324.1277 261.6183 324.8174 259 339 C255.9468 355.5382 258 375 258 375 "/>
<path id="12" d="M258 375 L258 377 "/>
</g>
</g>
</svg>
