<?xml version="1.0" encoding="utf-8"?>
<!DOCTYPE svg PUBLIC "-//W3C//DTD SVG 1.1//EN" "http://www.w3.org/Graphics/SVG/1.1/DTD/svg11.dtd">
<svg viewBox="0 0 800 800" preserveAspectRatio="xMinYMin meet" xmlns="http://www.w3.org/2000/svg" version="1.1">
<g fill="none" stroke="black" stroke-linecap="round" stroke-linejoin="round" stroke-width="1.8913">
<g transform="translate(87.52,137.4851) scale(1.5862) translate(-70,-50.4167)">
<path id="0" d="M138 169.4167 C138 169.4167 150.5818 191.992 160 215.4167 C169.9316 240.1182 165.8032 242.5876 177 266.4167 C204.2693 324.4513 228.5543 367.3128 238 381.4167 C238.1234 381.601 245.4452 379.497 250 375.4167 C268.1262 359.1786 269.5268 357.7799 286 338.4167 C297.6596 324.7116 295.9783 322.3775 307 308.4167 C310.5743 303.8893 312.6019 304.9475 316 300.4167 C324.1209 289.5888 324.4607 288.7686 331 276.4167 C337.8283 263.5188 338.2951 263.2277 343 249.4167 C353.6653 218.1087 351.1698 216.5097 362 185.4167 C366.4751 172.5688 369.532 172.9271 374 160.4167 C376.7571 152.6968 377 143.4167 377 143.4167 "/>
<path id="1" d="M137 170.4167 C137 170.4167 129.0634 158.8332 127 153.4167 C126.6789 152.5738 128.3521 149.4733 129 149.4167 C156.9701 146.9727 179.6421 148.0696 230 144.4167 C276.0308 141.0777 276.1244 138.4979 322 135.4167 C342.8065 134.0192 343.8987 133.7416 364 135.4167 C372.8142 136.1512 381.4535 140.1776 382 140.4167 C382.0305 140.43 380 142.4167 380 142.4167 "/>
<path id="2" d="M129 148.4167 C129 148.4167 129.4941 141.2772 131 140.4167 C140.1339 135.1973 147.467 131.622 164 128.4167 C195.0555 122.3957 196.5059 123.7562 229 121.4167 C258.8352 119.2685 259.048 119.4167 289 119.4167 C331.9312 119.4167 332.8981 118.9877 375 121.4167 C383.913 121.9309 389.5192 123.4015 393 125.4167 C393.8657 125.9179 394.2375 129.3292 394 132.4167 C393.7889 135.1611 393.2569 137.5465 392 138.4167 C389.3291 140.2657 385.7902 141.1506 381 141.4167 C378.0449 141.5808 374 139.4167 374 139.4167 "/>
<path id="3" d="M114 173.4167 C114 173.4167 94.7066 169.4851 79 163.4167 C74.2696 161.589 70 156.4167 70 156.4167 "/>
<path id="4" d="M130 105.4167 C130 105.4167 131.2112 100.0504 130 96.4167 C127.1738 87.938 121 78.4167 121 78.4167 "/>
<path id="5" d="M171 81.4167 C171 81.4167 171.3886 73.8403 174 68.4167 C177.4015 61.3521 184 54.4167 184 54.4167 "/>
<path id="6" d="M258 64.4167 C258 64.4167 266.4181 57.5784 275 54.4167 C284.3244 50.9814 296 50.4167 296 50.4167 "/>
<path id="7" d="M329 65.4167 L360 59.4167 "/>
<path id="8" d="M395 85.4167 C395 85.4167 395.271 82.927 396 82.4167 C398.775 80.4742 400.4668 79.4744 405 78.4167 C414.9031 76.1059 426 75.4167 426 75.4167 "/>
<path id="9" d="M413 108.4167 C413 108.4167 419.6553 105.8228 425 106.4167 C436.1935 107.6604 449 112.4167 449 112.4167 "/>
<path id="10" d="M436 137.4167 C436 137.4167 445.1132 136.9561 453 138.4167 C457.9293 139.3295 463 142.4167 463 142.4167 "/>
<path id="11" d="M431 173.4167 C431 173.4167 442.7635 172.7357 454 173.4167 C458.9446 173.7163 462.335 174.7507 464 175.4167 C464.1233 175.466 464 177.4167 464 177.4167 "/>
<path id="12" d="M183 166.4167 C183 166.4167 188.4841 187.448 196 206.4167 C198.6916 213.2099 199.1971 213.9513 204 219.4167 C213.2207 229.9092 218.5524 231.434 225 239.4167 C226.0466 240.7125 225 245.4167 225 245.4167 "/>
<path id="13" d="M345 172.4167 C345 172.4167 331.3468 193.3866 316 212.4167 C306.5732 224.1059 295 234.4167 295 234.4167 "/>
<path id="14" d="M257 160.4167 C257 160.4167 257.0527 187.3644 260 212.4167 C260.9339 220.3546 265 228.4167 265 228.4167 "/>
</g>
</g>
</svg>
