<?xml version="1.0" encoding="utf-8"?>
<!DOCTYPE svg PUBLIC "-//W3C//DTD SVG 1.1//EN" "http://www.w3.org/Graphics/SVG/1.1/DTD/svg11.dtd">
<svg viewBox="0 0 800 800" preserveAspectRatio="xMinYMin meet" xmlns="http://www.w3.org/2000/svg" version="1.1">
<g fill="none" stroke="black" stroke-linecap="round" stroke-linejoin="round" stroke-width="0.65764">
<g transform="translate(96.6435,87.52) scale(4.5618) translate(-201,-197)">
<path id="0" d="M219 205 C219 205 237.0136 200.7548 255 199 C277.7109 196.7843 301 197 301 197 "/>
<path id="1" d="M219 205 C219 205 219.5963 210.2753 218 214 C211.1795 229.9144 201 247 201 247 "/>
<path id="2" d="M301 197 L332 221 "/>
<path id="3" d="M203 247 C203 247 225.7857 248.17 247 245 C268.3794 241.8054 268.5093 237.8573 290 234 C306.9818 230.952 307.7819 233.0021 325 231 C329.01 230.5337 331.6642 230.1874 333 229 C333.8652 228.2309 334 223 334 223 "/>
<path id="4" d="M203 249 C203 249 205.2014 258.7122 210 265 C218.7215 276.4282 220.3421 277.1555 232 287 C242.4896 295.8579 246.2524 293.656 255 303 C266.8073 315.6123 276 334 276 334 "/>
<path id="5" d="M334 230 C334 230 333.1505 237.694 330 243 C324.2818 252.6307 320.2093 251.9535 315 262 C306.8798 277.6604 309.9405 280.6067 302 297 C294.7475 311.9729 293.1263 311.6586 284 326 C282.6669 328.0948 281.0195 329.9935 281 330 C280.9955 330.0015 281.0861 327.043 281 327 C280.7992 326.8996 277.6758 327.3242 277 328 C276.3242 328.6758 276 332 276 332 "/>
<path id="6" d="M221 207 C221 207 228.4161 210.3468 234 215 C239.9624 219.9687 238.9459 222.1985 245 227 C252.8856 233.2541 263 238 263 238 "/>
<path id="7" d="M303 197 C303 197 294.5258 202.2901 289 209 C281.1258 218.5616 282.7415 222.0676 275 231 C270.8269 235.8151 263 239 263 239 "/>
<path id="8" d="M205 246 C205 246 211.2539 242.0427 216 237 C226.978 225.3359 225.8223 221.7447 237 212 C243.7508 206.1146 247.3152 207.8903 255 203 C257.3261 201.5198 259 198 259 198 "/>
<path id="9" d="M257 198 C257 198 268.6918 201.3243 278 207 C288.4567 213.376 287.66 217.3376 298 223 C307.2871 228.0858 320 230 320 230 "/>
<path id="10" d="M228 283 C228 283 233.4741 279.4074 237 275 C241.0827 269.8967 241.4447 269.1754 244 263 C247.2711 255.0949 248.9722 246.0648 249 246 C249.0037 245.9913 249.3274 248.6637 250 249 C257.3981 252.699 262.8689 252.3716 273 258 C279.9149 261.8416 284.8122 269.297 286 269 C288.2598 268.4351 296.6754 259.6492 301 251 C303.8831 245.2339 302.9738 234.994 303 235 C303.3966 235.0901 323 256 323 256 "/>
<path id="11" d="M224 248 C224 248 231.9597 253.4256 237 260 C242.8893 267.6817 241.3352 269.7861 247 278 C251.072 283.9044 253.1765 283.2648 257 289 C259.7414 293.1121 258.1674 294.8927 261 299 C267.6681 308.6687 271.7635 308.6293 277 318 C280.1254 323.5928 280 333 280 333 "/>
<path id="12" d="M277 239 L276 334 "/>
<path id="13" d="M280 316 C280 316 282.5018 306.9517 287 300 C293.0706 290.6181 295.4695 291.4988 302 282 C311.7741 267.7832 320 252 320 252 "/>
</g>
</g>
</svg>
