<?xml version="1.0" encoding="utf-8"?>
<!DOCTYPE svg PUBLIC "-//W3C//DTD SVG 1.1//EN" "http://www.w3.org/Graphics/SVG/1.1/DTD/svg11.dtd">
<svg viewBox="0 0 800 800" preserveAspectRatio="xMinYMin meet" xmlns="http://www.w3.org/2000/svg" version="1.1">
<g fill="none" stroke="black" stroke-linecap="round" stroke-linejoin="round" stroke-width="2.2033">
<g transform="translate(87.52,123.6016) scale(1.3616) translate(-77.5,-32.8333)">
<path id="0" d="M148.5 34.8333 C148.5 34.8333 260.6276 32.4641 372.5 32.8333 C411.9611 32.9636 412.5907 35.8333 451.5 35.8333 C462.3355 35.8333 473.5 32.8333 473.5 32.8333 "/>
<path id="1" d="M150.5 37.8333 L77.5 108.8333 "/>
<path id="2" d="M471.5 33.8333 L535.5 99.8333 "/>
<path id="3" d="M78.5 112.8333 C78.5 112.8333 103.4094 151.1748 132.5 184.8333 C163.3643 220.5441 168.871 216.8868 199.5 252.8333 C240.2957 300.7117 236.034 305.3842 276.5 353.8333 C309.1705 392.949 346.5 428.8333 346.5 428.8333 "/>
<path id="4" d="M536.5 103.8333 C536.5 103.8333 527.9177 113.7865 521.5 124.8333 C467.2539 218.2079 466.1176 219.4217 414.5 313.8333 C408.1459 325.4554 410.3046 326.8238 404.5 338.8333 C395.9033 356.6196 392.7363 356.1767 385.5 373.8333 C380.6869 385.5774 379.5082 399.8086 379.5 399.8333 C379.4986 399.8375 378.6457 394.9426 378.5 394.8333 C378.454 394.7988 376.4611 395.5664 375.5 396.8333 C366.1913 409.1039 364.1631 410.6966 356.5 423.8333 C354.4543 427.3403 356.0776 428.8892 354.5 432.8333 C353.2765 435.892 352.0924 437.4684 350.5 438.8333 C349.9775 439.2812 347.5 438.8333 347.5 438.8333 "/>
</g>
</g>
</svg>
