<?xml version="1.0" encoding="utf-8"?>
<!DOCTYPE svg PUBLIC "-//W3C//DTD SVG 1.1//EN" "http://www.w3.org/Graphics/SVG/1.1/DTD/svg11.dtd">
<svg viewBox="0 0 800 800" preserveAspectRatio="xMinYMin meet" xmlns="http://www.w3.org/2000/svg" version="1.1">
<g fill="none" stroke="black" stroke-linecap="round" stroke-linejoin="round" stroke-width="1.0465">
<g transform="translate(87.52,179.2572) scale(2.8668) translate(-163,-176.8167)">
<path id="0" d="M163 222.8167 C163 222.8167 203.8644 260.2891 239 299.8167 C250.8559 313.1546 258.4809 330.2975 259 330.8167 C259.0509 330.8676 259.6009 325.3706 262 322.8167 C273.3773 310.7053 277.2731 310.5436 290 297.8167 C293.1217 294.695 291.8414 292.5541 295 289.8167 C305.7462 280.5033 308.8512 282.002 320 271.8167 C348.8267 245.4811 376 215.8167 376 215.8167 "/>
<path id="1" d="M165 221.8167 C165 221.8167 169.1269 224.2357 173 224.8167 C178.5003 225.6417 180.8955 226.2532 185 224.8167 C188.5743 223.5657 189.9477 218.1558 193 217.8167 C202.6204 216.7477 214.053 221.8692 221 220.8167 C222.5667 220.5793 223.8939 214.1127 226 212.8167 C227.6979 211.7718 231.408 211.5207 234 212.8167 C241.128 216.3807 243.0215 220.829 250 224.8167 C251.5265 225.689 253.7393 225.517 255 224.8167 C256.7089 223.8673 256.8109 221.048 259 219.8167 C263.579 217.241 267.4888 217.7073 271 215.8167 C271.6488 215.4673 271.5009 213.0385 272 212.8167 C273.8061 212.0139 277.793 211.0284 280 211.8167 C282.3514 212.6564 283.1018 216.2561 286 217.8167 C288.3668 219.0911 291.4085 219.5512 293 218.8167 C295.2468 217.7797 295.7225 214.2202 299 211.8167 C302.5131 209.2404 303.8465 208.3359 308 207.8167 C314.5036 207.0037 316.2259 207.2534 323 208.8167 C328.4056 210.0641 329.1014 212.7281 334 213.8167 C336.7414 214.4259 338.3655 214.0326 341 212.8167 C343.9333 211.4628 344.326 208.5204 347 207.8167 C351.7517 206.5662 355.0428 206.0577 360 207.8167 C368.3521 210.7803 378 218.8167 378 218.8167 "/>
<path id="2" d="M165 221.8167 C165 221.8167 164.5271 219.2896 165 218.8167 C167.9952 215.8214 171.27 215.3101 176 210.8167 C180.9461 206.1179 181.5424 202.9862 185 199.8167 C185.5436 199.3184 187.5051 200.3116 188 199.8167 C192.4544 195.3623 194.6177 187.4263 200 184.8167 C206.0001 181.9075 211.0651 185.5553 221 183.8167 C230.4071 182.1704 230.8274 178.2213 240 177.8167 C295.7077 175.359 310.6722 173.0123 357 177.8167 C364.7022 178.6154 368.361 184.3478 375 191.8167 C379.0571 196.3809 379.4475 198.6067 381 204.8167 C382.1777 209.5277 381 215.8167 381 215.8167 "/>
<path id="3" d="M355 207.8167 L330 176.8167 "/>
<path id="4" d="M330 176.8167 C330 176.8167 327.4389 181.7823 324 184.8167 C319.4767 188.8078 315.4136 188.1159 313 191.8167 C309.8313 196.6754 309.964 206.7723 309 207.8167 C308.7853 208.0492 304.1623 207.0755 301 204.8167 C290.9785 197.6584 288.6644 196.4391 281 187.8167 C278.0126 184.4558 277.0046 177.819 277 177.8167 C276.998 177.8156 278.334 183.1486 277 185.8167 C272.0807 195.6552 267.8138 196.835 262 207.8167 C259.3615 212.8005 259.0029 219.8173 259 219.8167 C258.8288 219.7772 253.6467 212.4505 249 204.8167 C246.7006 201.0391 246.0126 200.614 245 196.8167 C244.2182 193.8849 245.9475 192.5012 245 189.8167 C243.3598 185.1694 239.3389 179.7955 239 179.8167 C238.3262 179.8588 230.6834 185.7665 229 190.8167 C226.377 198.6856 229.3883 203.7926 228 212.8167 C227.7204 214.634 225.023 216.8382 225 216.8167 C224.0561 215.9318 216.666 207.1487 212 197.8167 C209.8042 193.4251 211.1965 189.2097 210 186.8167 C209.7009 186.2184 206 185.8167 206 185.8167 "/>
<path id="5" d="M194 218.8167 C194 218.8167 203.2779 226.0437 210 234.8167 C232.3473 263.9818 236.7841 266.49 253 295.8167 C258.0138 304.8841 257 319.8167 257 319.8167 "/>
<path id="6" d="M262 224.8167 C262 224.8167 263.2387 256.9148 262 285.8167 C261.8146 290.1418 259.4094 290.4495 259 294.8167 C257.9854 305.639 259 317.8167 259 317.8167 "/>
<path id="7" d="M305 219.8167 C305 219.8167 290.8464 256.032 275 290.8167 C270.506 300.6815 270.1683 301.4894 264 309.8167 C260.6676 314.3154 259.6442 314.1676 255 317.8167 C252.7647 319.573 250.5702 320.7216 250 320.8167 C249.9309 320.8282 249 318.8167 249 318.8167 "/>
<path id="8" d="M355 212.8167 C355 212.8167 338.7966 232.6218 326 251.8167 C323.5869 255.4363 325.45 257.3866 323 260.8167 C313.8281 273.6573 311.9423 276.5583 301 286.8167 C297.7557 289.8582 294.8883 288.317 291 290.8167 C288.7686 292.2511 289.1828 294.8617 287 295.8167 C275.7333 300.7459 259 304.8167 259 304.8167 "/>
</g>
</g>
</svg>
