<?xml version="1.0" encoding="utf-8"?>
<!DOCTYPE svg PUBLIC "-//W3C//DTD SVG 1.1//EN" "http://www.w3.org/Graphics/SVG/1.1/DTD/svg11.dtd">
<svg viewBox="0 0 800 800" preserveAspectRatio="xMinYMin meet" xmlns="http://www.w3.org/2000/svg" version="1.1">
<g fill="none" stroke="black" stroke-linecap="round" stroke-linejoin="round" stroke-width="1.3777">
<g transform="translate(234.5054,87.52) scale(2.1776) translate(-191,-74.1333)">
<path id="0" d="M231 220.1333 C231 220.1333 248.0413 189.8178 263 159.1333 C267.3768 150.1553 265.3688 148.4208 270 140.1333 C274.3875 132.282 275.9386 130.3288 282 125.1333 C284.8217 122.7148 286.6256 122.602 291 122.1333 C299.9164 121.178 302.7872 119.7941 310 122.1333 C318.3106 124.8287 321.7616 127.895 328 134.1333 C330.9112 137.0446 331.8921 139.4928 332 144.1333 C332.8121 179.055 328.1473 184.9327 330 220.1333 C330.4728 229.1166 334.4978 229.5094 337 239.1333 C340.9132 254.184 341.8902 254.7817 343 270.1333 C344.8358 295.5291 344.211 297.51 343 322.1333 C342.787 326.4649 342.2387 327.6736 340 331.1333 C337.304 335.2999 336.4407 336.2191 332 339.1333 C321.0972 346.2883 319.3251 345.0147 308 352.1333 C302.1363 355.8191 301.8839 360.0063 297 361.1333 C286.5427 363.5466 281.1051 364.0057 269 361.1333 C254.1617 357.6124 251.1285 356.1592 238 347.1333 C220.6704 335.2192 218.202 332.9757 205 317.1333 C197.1936 307.7657 196.6735 304.9409 193 293.1333 C190.136 283.9276 189.2383 280.5505 191 272.1333 C193.0802 262.1944 195.5006 259.8825 202 250.1333 C207.0223 242.5999 208.1569 241.7864 215 236.1333 C218.9363 232.8816 222.057 234.4601 225 231.1333 C231.9078 223.3246 238 210.1333 238 210.1333 "/>
<path id="1" d="M303 120.1333 C303 120.1333 309.1562 110.1961 312 100.1333 C315.4225 88.0231 314.1419 77.8496 316 74.1333 C316.2986 73.5361 324.5684 73.7017 325 74.1333 C325.3357 74.469 325.3906 79.0046 324 82.1333 C321.841 86.9911 319.6292 86.8749 317 92.1333 C312.3258 101.4817 311.0943 102.8587 309 112.1333 C307.9653 116.7158 310 123.1333 310 123.1333 "/>
<path id="2" d="M321 262.1333 L320 262.1333 "/>
<path id="3" d="M323 283.1333 L325 283.1333 "/>
<path id="4" d="M315 302.1333 L318 302.1333 "/>
<path id="5" d="M297 299.1333 L298 292.1333 "/>
<path id="6" d="M303 264.1333 L304 263.1333 "/>
<path id="7" d="M295 338.1333 L296 338.1333 "/>
<path id="8" d="M308 324.1333 L311 322.1333 "/>
<path id="9" d="M282 325.1333 L284 325.1333 "/>
</g>
</g>
</svg>
