<?xml version="1.0" encoding="utf-8"?>
<!DOCTYPE svg PUBLIC "-//W3C//DTD SVG 1.1//EN" "http://www.w3.org/Graphics/SVG/1.1/DTD/svg11.dtd">
<svg viewBox="0 0 800 800" preserveAspectRatio="xMinYMin meet" xmlns="http://www.w3.org/2000/svg" version="1.1">
<g fill="none" stroke="black" stroke-linecap="round" stroke-linejoin="round" stroke-width="1.0465">
<g transform="translate(227.9927,87.52) scale(2.8668) translate(-217,-123)">
<path id="0" d="M282 173 C282 173 281.7664 164.1474 284 157 C286.4855 149.0465 286.8349 147.2719 292 141 C299.8822 131.4288 303.3487 128.0233 312 123 C315.1251 121.1854 319.7457 122.0702 323 123 C324.2257 123.3502 326.0084 126.9944 326 127 C325.6639 127.224 319.233 127.1684 314 129 C309.9825 130.4061 308.6226 130.8779 306 134 C299.0811 142.2368 297.3899 143.929 293 154 C289.4521 162.1393 289 173 289 173 "/>
<path id="1" d="M249 205 C249 205 248.8216 195.2628 251 189 C252.1856 185.5914 253.6296 184.2469 257 182 C263.2141 177.8573 264.8396 176.3923 272 175 C281.1905 173.2129 284.7338 173.1334 293 175 C297.5585 176.0293 301.5546 178.593 303 182 C306.5609 190.3935 307 208 307 208 "/>
<path id="2" d="M249 199 C249 199 251.4492 213.2452 248 220 C241.9476 231.8526 234.062 232.5531 225 246 C219.4555 254.2273 218.1827 256.3903 217 266 C214.4637 286.6073 214.9278 292.3504 217 311 C217.4451 315.0062 219.3813 316.5321 223 320 C230.7734 327.4495 231.7146 328.9809 241 334 C249.0781 338.3665 250.6951 339.1078 260 340 C285.7138 342.4657 292.4788 343.3177 314 341 C318.7368 340.4899 321.1536 337.6157 325 333 C330.2655 326.6814 332.1288 324.672 334 317 C336.5961 306.3558 335 292 335 292 "/>
<path id="3" d="M308 205 C308 205 308.9708 219.3106 311 223 C311.6609 224.2016 317.5659 223.297 319 225 C322.8962 229.6268 324.7231 233.5755 327 242 C329.4407 251.0305 326.5319 253.4988 329 262 C330.5629 267.3832 334.9388 267.8266 336 273 C338.4069 284.7336 337 301 337 301 "/>
</g>
</g>
</svg>
