<?xml version="1.0" encoding="utf-8"?>
<!DOCTYPE svg PUBLIC "-//W3C//DTD SVG 1.1//EN" "http://www.w3.org/Graphics/SVG/1.1/DTD/svg11.dtd">
<svg viewBox="0 0 800 800" preserveAspectRatio="xMinYMin meet" xmlns="http://www.w3.org/2000/svg" version="1.1">
<g fill="none" stroke="black" stroke-linecap="round" stroke-linejoin="round" stroke-width="1.8289">
<g transform="translate(205.6227,87.52) scale(1.6403) translate(-148,-30)">
<path id="0" d="M285 94 C285 94 274.584 94.1387 266 97 C255.9853 100.3382 250.7702 101.3464 246 107 C241.0468 112.8705 241.3657 117.8994 239 129 C234.9438 148.0329 237.6151 149.5395 233 168 C230.3506 178.5977 229.898 180.153 224 189 C216.6457 200.0315 215.3496 201.0003 205 210 C192.9113 220.5119 190.8397 218.9117 178 229 C170.0381 235.2558 169.5316 235.5778 163 243 C158.8793 247.6826 158.1424 248.287 156 254 C150.9684 267.4177 149.8585 268.9286 148 283 C146.5242 294.1741 146.9932 295.6283 149 307 C151.3583 320.3638 150.8482 322.38 157 334 C167.9944 354.7673 170.5637 355.3505 185 375 C188.2538 379.4288 188.5668 379.9102 193 383 C204.5778 391.0694 205.3047 391.0176 218 398 C225.1972 401.9585 225.5022 402.6731 233 405 C239.3837 406.9811 240.0007 406.5556 247 407 C271.3401 408.5454 271.7968 409.3185 296 409 C309.3631 408.8242 314.46 409.8205 323 406 C328.2017 403.6729 327.981 396.5143 334 392 C340.229 387.3283 345.2247 389.8438 351 385 C358.5593 378.66 359.806 376.0633 365 366 C375.356 345.9352 377.2173 344.1067 383 323 C386.6854 309.5482 387.6047 306.1768 385 293 C379.7425 266.4031 379.8927 257.7322 366 237 C351.4821 215.3349 340.5749 216.949 320 196 C314.3084 190.205 315.1585 188.5609 311 181 C309.7285 178.6881 309 178.2806 309 176 C309 156.387 312.8429 152.3506 311 133 C310.1062 123.6153 308.2087 121.4331 303 113 C298.3994 105.5514 296.4809 103.2375 290 99 C285.6231 96.1382 277 96 277 96 "/>
<path id="1" d="M282 96 C282 96 280.86 83.1756 283 72 C285.1701 60.6671 285.5459 58.9596 291 49 C296.4209 39.101 304.3632 30.8184 306 30 C306.2004 29.8998 310.7871 34.1275 313 38 C314.2118 40.1207 314.773 42.3768 314 44 C311.168 49.9471 309.0509 52.399 303 59 C298.3965 64.022 294.8218 63.0619 292 68 C286.251 78.0608 283 94 283 94 "/>
<path id="2" d="M193 236 C193 236 186.3342 236.7077 183 239 C179.8213 241.1854 179.8866 242.9248 177 247 C171.3938 254.9147 169.5278 255.1303 166 263 C163.6578 268.2249 163.3727 274.4318 164 276 C164.2674 276.6684 171.7102 278.3566 172 278 C173.4207 276.2514 172.8805 265.5524 177 260 C182.0009 253.2596 190.2853 251.9766 195 247 C195.9413 246.0064 195 241 195 241 "/>
<path id="3" d="M291 403 C291 403 300.004 407.996 300 408 C299.9861 408.0139 286.0395 408.0197 286 408 C285.9887 407.9944 291.9207 403.9603 292 404 C292.0694 404.0347 291.9997 411.0007 292 411 C292.0007 410.9983 296.0152 395.0152 296 395 C296 395 286 404.9821 286 405 C286 405.0054 295.8827 401.9853 296 402 C296.0183 402.0023 294 406 294 406 "/>
</g>
</g>
</svg>
