<?xml version="1.0" encoding="utf-8"?>
<!DOCTYPE svg PUBLIC "-//W3C//DTD SVG 1.1//EN" "http://www.w3.org/Graphics/SVG/1.1/DTD/svg11.dtd">
<svg viewBox="0 0 800 800" preserveAspectRatio="xMinYMin meet" xmlns="http://www.w3.org/2000/svg" version="1.1">
<g fill="none" stroke="black" stroke-linecap="round" stroke-linejoin="round" stroke-width="1.7281">
<g transform="translate(189.944,87.52) scale(1.736) translate(-159,-59)">
<path id="0" d="M261 139 C261 139 256.7199 142.5547 256 146 C250.4624 172.5012 253.5672 177.6572 247 206 C244.4278 217.1011 243.6301 220.1999 237 228 C228.6526 237.8205 225.5995 239.1664 213 246 C197.1051 254.6209 190.3924 251.1483 178 260 C170.0138 265.7045 168.8185 270.3486 164 281 C159.8992 290.0648 160.0152 291.6446 159 302 C157.5828 316.4559 157.7661 317.5011 159 332 C159.7132 340.3806 159.7422 341.3442 163 349 C169.4118 364.0677 170.0215 366.1735 179 379 C183.0098 384.7283 184.5512 385.629 191 389 C205.5225 396.5913 208.77 394.3886 223 402 C228.9724 405.1945 228.38 408.5209 234 412 C237.8764 414.3997 238.9486 413.9897 244 415 C256.2949 417.459 256.5892 418.3871 269 419 C296.5822 420.3621 299.458 420.5718 325 419 C329.2172 418.7405 330.1966 417.6023 334 415 C339.2361 411.4174 339.6386 410.9736 344 406 C367.8614 378.7896 369.9812 378.3939 391 350 C397.5753 341.1175 399.1941 338.8322 401 329 C403.1997 317.0239 403.4645 312.2597 400 301 C396.4978 289.6179 393.6002 287.1638 385 277 C377.9143 268.626 372.8006 270.4523 367 262 C356.8916 247.2706 356.9154 244.2566 350 226 C344.6178 211.791 342.9858 210.3922 342 196 C340.619 175.838 346.6673 172.7299 345 153 C343.8782 139.7254 341.802 136.604 336 125 C333.3222 119.6443 331.3564 118.4281 326 115 C319.8467 111.0619 318.0948 109.8652 311 109 C299.3294 107.5768 295.0777 106.7138 285 110 C275.5964 113.0664 273.5963 116.2633 265 124 C259.2779 129.1499 257.8325 130.82 255 137 C253.1542 141.0273 254 148 254 148 "/>
<path id="1" d="M269 69 C269 69 277.0474 67.0093 278 68 C283.2751 73.4861 290.9055 82.1064 294 95 C298.8644 115.2685 296 143 296 143 "/>
<path id="2" d="M297 131 C297 131 292.4936 133.3115 291 136 C288.2717 140.9109 286.8475 146.5607 287 149 C287.0396 149.6337 289.692 151.6153 292 152 C297.4552 152.9092 301.0847 152.9788 305 152 C306.2047 151.6988 307.6861 149.779 308 148 C308.9011 142.894 309.3598 139.3062 308 135 C307.1742 132.3849 302 129 302 129 "/>
<path id="3" d="M303 142 C303 142 305.7533 127.3082 306 113 C306.246 98.7342 306.5761 94.0183 304 84 C303.3192 81.3524 300.0629 79.6707 297 78 C295.8073 77.3495 293.4919 78.5676 293 78 C289.7647 74.2669 288.8549 68.1247 284 63 C281.415 60.2714 279.0547 59.7155 275 59 C271.7317 58.4232 267 60 267 60 "/>
<path id="4" d="M270 68 C270 68 280.8375 66.1902 285 68 C288.4265 69.4898 291.1419 73.2516 293 78 C294.895 82.8427 292.5721 85.8597 294 91 C294.6572 93.3658 297.6188 93.8083 298 96 C299.2046 102.9264 296.8704 105.4153 298 114 C299.2964 123.8523 301.5661 124.6793 303 134 C303.4036 136.6236 302.5215 139.2178 302 140 C301.8436 140.2347 299 140 299 140 "/>
<path id="5" d="M299 138 C299 138 302.1705 129.8799 303 122 C304.1113 111.443 304.0012 110.3459 303 100 C302.5772 95.6311 301.9671 95.2152 300 91 C295.0571 80.408 294.4471 75.2293 289 70 C286.0492 67.1672 279.2407 68.8553 275 67 C273.9615 66.5456 273 63 273 63 "/>
<path id="6" d="M268 61 L268 70 "/>
</g>
</g>
</svg>
