<?xml version="1.0" encoding="utf-8"?>
<!DOCTYPE svg PUBLIC "-//W3C//DTD SVG 1.1//EN" "http://www.w3.org/Graphics/SVG/1.1/DTD/svg11.dtd">
<svg viewBox="0 0 800 800" preserveAspectRatio="xMinYMin meet" xmlns="http://www.w3.org/2000/svg" version="1.1">
<g fill="none" stroke="black" stroke-linecap="round" stroke-linejoin="round" stroke-width="1.7713">
<g transform="translate(178.9776,87.52) scale(1.6937) translate(-152,-92)">
<path id="0" d="M252 138 C252 138 246.4969 137.0007 242 138 C233.7556 139.8321 229.9557 139.5089 225 144 C217.0834 151.1744 214.9905 155.0585 210 167 C201.5714 187.1684 200.921 188.9987 197 211 C192.0991 238.4992 197.8515 241.2867 192 268 C186.7682 291.8843 183.8167 293.2253 174 316 C171.7082 321.3169 169.6473 320.7053 167 326 C159.3521 341.2957 157.4066 342.43 153 358 C150.3921 367.2146 150.4803 370.1352 152 379 C153.109 385.4692 154.3861 387.3608 159 393 C171.566 408.3584 172.1127 412.1501 188 423 C210.7152 438.5128 214.1869 438.7311 241 449 C260.0927 456.3121 261.5341 455.2217 282 459 C293.6402 461.149 294.2073 461.2106 306 461 C321.7734 460.7183 322.349 460.331 338 458 C345.5227 456.8796 345.792 456.5577 353 454 C361.1143 451.1207 361.6776 451.2517 369 447 C376.8051 442.468 377.4003 442.1445 384 436 C391.5554 428.9657 392.2107 428.4208 398 420 C402.8574 412.9347 403.064 412.1788 406 404 C409.9133 393.0987 409.8906 392.4512 412 381 C413.3288 373.7867 412.7417 373.4917 413 366 C413.2406 359.0238 413.9436 358.7398 413 352 C410.5076 334.1973 411.1618 333.2061 406 316 C399.3479 293.8262 400.3583 291.4713 389 272 C369.8648 239.1967 361.8631 241.0787 343 208 C328.3422 182.2957 331.8337 176.7077 320 151 C318.4659 147.6673 317.3163 147.0186 314 145 C306.486 140.4263 305.6472 140.3063 297 137 C288.8473 133.8828 288.3267 133.3878 280 132 C273.9301 130.9883 267 132 267 132 "/>
<path id="1" d="M275 133 C275 133 266.9549 132.609 260 134 C255.0584 134.9883 250 138 250 138 "/>
<path id="2" d="M250 138 C250 138 255.291 131.6154 257 126 C258.3304 121.6286 258.7565 118.7325 257 115 C252.1251 104.6408 241 92 241 92 "/>
<path id="3" d="M255 138 C255 138 254.7093 128.3811 257 121 C258.8424 115.0633 260.1004 113.7995 264 109 C265.9567 106.5918 266.8802 106.0399 270 105 C282.4792 100.8403 283.7538 100.4401 297 98 C302.1506 97.0512 308.0028 97.9709 308 98 C307.9411 98.618 302.0193 114.4222 295 119 C284.7797 125.6654 277.7358 122.7547 262 128 C257.3375 129.5542 253 133 253 133 "/>
</g>
</g>
</svg>
