<?xml version="1.0" encoding="utf-8"?>
<!DOCTYPE svg PUBLIC "-//W3C//DTD SVG 1.1//EN" "http://www.w3.org/Graphics/SVG/1.1/DTD/svg11.dtd">
<svg viewBox="0 0 800 800" preserveAspectRatio="xMinYMin meet" xmlns="http://www.w3.org/2000/svg" version="1.1">
<g fill="none" stroke="black" stroke-linecap="round" stroke-linejoin="round" stroke-width="1.7809">
<g transform="translate(175.9577,87.52) scale(1.6845) translate(-158,-49)">
<path id="0" d="M203 145 C203 145 197.3525 151.2519 196 157 C193.7964 166.3654 192.6222 169.7858 195 179 C199.8545 197.8111 208.3713 199.9492 212 219 C215.6767 238.3026 213.3253 242.0723 211 263 C209.9633 272.3305 209.0549 273.62 205 282 C201.9723 288.2573 199.2661 287.5804 196 294 C185.1302 315.3648 181.8898 317.5024 176 339 C172.7331 350.9243 174.2184 354.232 176 367 C177.0077 374.2218 178.3107 375.1485 182 382 C185.0977 387.7529 185.2062 389.0451 190 393 C204.0796 404.6156 205.9058 406.1317 222 415 C229.2059 418.9706 230.7401 419.5742 239 420 C277.2894 421.9737 281.1704 424.517 319 420 C345.4383 416.8432 347.0713 413.4286 373 404 C384.861 399.6869 385.3421 398.832 396 392 C404.4498 386.5835 405.475 386.2241 412 379 C418.8547 371.4108 422.4093 369.2185 424 361 C427.4439 343.2063 425.9592 337.8983 424 317 C423.0844 307.2336 421.9689 306.3386 418 297 C413.6571 286.7813 414.0015 284.1682 407 277 C394.8666 264.5777 391.7953 264.5302 376 254 C369.6364 249.7576 369.2065 249.5523 362 247 C345.5826 241.1855 343.8257 242.8886 328 237 C323.2874 235.2465 322.5755 234.5755 319 231 C312.564 224.564 311.5177 224.0471 307 216 C295.9374 196.2947 299.4203 190.6431 287 174 C276.6606 160.1453 272.5481 159.2676 257 149 C247.1035 142.4645 245.0304 141.6903 234 139 C226.1952 137.0964 223.0681 136.8403 216 139 C207.6121 141.563 198 150 198 150 "/>
<path id="1" d="M228 137 C228 137 225.57 124.29 228 117 C230.43 109.71 233.2427 106.8563 240 101 C246.9662 94.9626 248.7218 94.9482 258 91 C271.8641 85.1004 273.793 87.3164 287 81 C295.8897 76.7484 302.0813 69.1668 304 69 C304.5456 68.9526 308.7009 74.1748 310 79 C311.8196 85.7585 312.6056 89.1797 311 95 C309.4191 100.7309 306.9373 103.5565 302 108 C298.303 111.3273 296.3284 112.1587 291 113 C278.7256 114.9381 276.0735 112.0421 264 114 C259.1946 114.7793 258.1474 115.8401 254 119 C248.1793 123.4348 248.9146 125.7415 243 130 C237.0479 134.2855 235.4246 134.1892 229 137 C228.2469 137.3295 227.0028 137.0274 227 137 C226.6015 133.1482 228.2793 121.391 226 108 C224.5004 99.1899 223.4866 97.9761 219 90 C214.8713 82.6602 213.9678 81.6837 208 76 C204.146 72.3295 199.8972 72.4664 198 70 C197.0301 68.7391 196.9128 65.4161 198 63 C200.6482 57.1151 207 50.448 207 50 C207 49.9655 202.1724 48.6207 198 49 C191.784 49.5651 190.2154 49.3923 185 52 C179.4249 54.7875 178.1497 55.8544 174 61 C166.2699 70.5854 166.7964 71.9559 160 83 C158.8388 84.8869 157.8046 86.4789 158 87 C158.3532 87.9419 160.2802 89.7594 163 91 C187.7231 102.2772 191.3423 101.7937 215 113 C217.7926 114.3228 219.1264 115.4665 220 118 C223.3421 127.6922 225 142 225 142 "/>
</g>
</g>
</svg>
