<?xml version="1.0" encoding="utf-8"?>
<!DOCTYPE svg PUBLIC "-//W3C//DTD SVG 1.1//EN" "http://www.w3.org/Graphics/SVG/1.1/DTD/svg11.dtd">
<svg viewBox="0 0 800 800" preserveAspectRatio="xMinYMin meet" xmlns="http://www.w3.org/2000/svg" version="1.1">
<g fill="none" stroke="black" stroke-linecap="round" stroke-linejoin="round" stroke-width="0.95526">
<g transform="translate(258.6774,87.52) scale(3.1405) translate(-206,-112)">
<path id="0" d="M223 178 C223 178 224.1841 186.8802 223 195 C220.7696 210.2944 221.0217 212.5041 216 226 C213.7063 232.1642 208.5107 232.4106 207 238 C204.3549 247.7867 205.3258 253.2238 206 263 C206.1138 264.6497 208.4176 264.9618 209 267 C212.0488 277.6708 209.8997 281.4326 214 291 C216.3975 296.5941 218.4873 298.3248 224 302 C232.2691 307.5127 244 311 244 311 "/>
<path id="1" d="M270 177 C270 177 268.3851 181.9414 269 186 C270.7311 197.4251 270.242 199.4496 275 210 C281.1763 223.6954 285.0424 223.4161 292 237 C295.1271 243.1053 295.0527 244.1321 296 251 C296.9765 258.0795 297.334 259.1393 296 266 C294.0113 276.2275 294.0087 278.3485 289 287 C283.865 295.8696 281.2954 299.5785 274 304 C268.286 307.463 263.9484 304.6817 256 307 C252.9821 307.8802 252.7594 310.3507 250 311 C245.627 312.0289 239 311 239 311 "/>
<path id="2" d="M226 184 C226 184 224.1309 170.0106 226 162 C226.8185 158.4923 230.2327 155.0762 233 154 C235.9042 152.8706 244 155 244 155 "/>
<path id="3" d="M271 180 C271 180 272.2992 167.4192 271 158 C270.554 154.7668 268.936 152.408 267 151 C265.3544 149.8032 262.4337 149.2842 260 150 C255.7303 151.2558 250 156 250 156 "/>
<path id="4" d="M249 156 C249 156 247.6153 131.9258 248 115 C248.0286 113.7421 250 112 250 112 "/>
</g>
</g>
</svg>
