<?xml version="1.0" encoding="utf-8"?>
<!DOCTYPE svg PUBLIC "-//W3C//DTD SVG 1.1//EN" "http://www.w3.org/Graphics/SVG/1.1/DTD/svg11.dtd">
<svg viewBox="0 0 800 800" preserveAspectRatio="xMinYMin meet" xmlns="http://www.w3.org/2000/svg" version="1.1">
<g fill="none" stroke="black" stroke-linecap="round" stroke-linejoin="round" stroke-width="1.2097">
<g transform="translate(191.68,87.52) scale(2.48) translate(-181,-118)">
<path id="0" d="M181 279 C181 279 184.7417 285.5288 186 292 C188.1063 302.8325 185.9341 304.0803 188 315 C189.3207 321.981 189.4367 323.3407 193 329 C197.2713 335.7839 198.3012 337.1433 205 342 C217.3815 350.9766 218.6712 351.3663 233 358 C245.208 363.6518 246.0203 364.3145 259 367 C274.1966 370.1441 278.9005 373.1564 291 370 C307.4641 365.705 314.2457 361.2261 328 349 C338.1304 339.9952 339.6906 335.3999 345 322 C349.3413 311.0433 347.8762 308.9234 349 296 C349.853 286.1901 351.3586 284.4234 349 276 C344.9999 261.7138 342.9512 260.3122 335 246 C325.5988 229.0779 323.4226 229.5838 314 213 C311.2166 208.1012 310.7505 207.4035 310 202 C308.3673 190.2448 309 177 309 177 "/>
<path id="1" d="M186 296 C186 296 181.0409 273.2325 183 257 C184.0246 248.5107 187.5251 247.0175 193 238 C195.8934 233.2343 196.0782 232.6911 200 229 C204.2052 225.0422 204.8176 223.8509 210 222 C224.4515 216.8387 227.423 219.3871 242 214 C249.225 211.3299 250.1128 210.2782 256 205 C264.0673 197.7672 265.5478 196.8273 271 188 C275.2982 181.0409 277 171 277 171 "/>
<path id="2" d="M279 171 C279 171 283.6112 167.7315 288 167 C297.6099 165.3983 307.3292 164.9657 309 166 C309.7105 166.4398 309 180 309 180 C309 180 310.019 174.6685 309 171 C307.8237 166.7654 306.0968 163.0484 304 162 C301.1307 160.5654 295.8372 160.2724 291 162 C284.0897 164.4679 275.9905 171.9794 276 172 C276.0392 172.0849 290.3731 176.2826 297 175 C300.8107 174.2624 307 166 307 166 "/>
<path id="3" d="M286 171 L301 168 "/>
<path id="4" d="M295 171 C295 171 295.7372 164.3202 294 159 C288.0952 140.9166 279 122 279 122 "/>
<path id="5" d="M298 164 C298 164 298.8966 159.5863 298 156 C294.6099 142.4394 294.4341 140.906 289 128 C286.7868 122.7436 283.784 119.1894 282 118 C281.5214 117.6809 277 120 277 120 "/>
</g>
</g>
</svg>
