<?xml version="1.0" encoding="utf-8"?>
<!DOCTYPE svg PUBLIC "-//W3C//DTD SVG 1.1//EN" "http://www.w3.org/Graphics/SVG/1.1/DTD/svg11.dtd">
<svg viewBox="0 0 800 800" preserveAspectRatio="xMinYMin meet" xmlns="http://www.w3.org/2000/svg" version="1.1">
<g fill="none" stroke="black" stroke-linecap="round" stroke-linejoin="round" stroke-width="1.7617">
<g transform="translate(87.52,135.2009) scale(1.7029) translate(-80,-131.1333)">
<path id="0" d="M167 202.1333 L212 355.1333 "/>
<path id="1" d="M219 376.1333 C219 376.1333 219.6653 370.3508 219 368.1333 C218.7588 367.3295 216.1402 366.8813 216 366.1333 C215.2338 362.0471 214.3129 357.7571 216 352.1333 C218.2535 344.6216 219.634 341.9659 225 336.1333 C229.8356 330.8773 232.5993 328.2411 239 327.1333 C254.6339 324.4275 259.8435 325.3827 277 327.1333 C282.1967 327.6636 284.3994 328.9564 288 332.1333 C291.4631 335.1891 293.0875 337.3427 294 342.1333 C296.6517 356.0549 299.107 368.5407 296 374.1333 C293.1836 379.2029 269 387.1333 269 387.1333 "/>
<path id="2" d="M217 363.1333 C217 363.1333 219.2752 372.1163 223 378.1333 C225.0567 381.4557 226.7576 383.4976 230 384.1333 C247.7596 387.6156 274 388.1333 274 388.1333 "/>
<path id="3" d="M224 185.1333 C224 185.1333 226.4451 199.6828 232 212.1333 C240.6077 231.4264 243.6579 231.0754 253 250.1333 C255.8941 256.0372 253.8922 257.5653 257 263.1333 C265.3981 278.1799 268.2551 277.6112 277 293.1333 C288.0758 312.7929 290.7381 313.9863 297 334.1333 C301.5002 348.6122 300 367.1333 300 367.1333 "/>
<path id="4" d="M256 173.1333 C256 173.1333 255.1771 176.268 256 178.1333 C261.8621 191.4208 264.4585 192.5966 271 207.1333 C273.2598 212.1551 271.4476 213.3999 274 218.1333 C298.0799 262.7906 326 309.1333 326 309.1333 "/>
<path id="5" d="M296 149.1333 C296 149.1333 304.1777 156.1938 310 164.1333 C314.8084 170.6902 313.3073 172.7844 318 179.1333 C321.2878 183.5816 323.9035 182.5386 327 187.1333 C338.6297 204.3903 337.5905 206.4345 349 225.1333 C355.5546 235.8756 355.3652 236.443 363 246.1333 C368.114 252.6241 370.6352 252.0226 375 258.1333 C377.3643 261.4433 375.8092 263.2995 378 267.1333 C381.5053 273.2675 387 279.1333 387 279.1333 "/>
<path id="6" d="M327 313.1333 C327 313.1333 326.8184 309.7088 328 308.1333 C333.2402 301.1464 334.6757 298.7674 342 293.1333 C346.5446 289.6375 348.9826 291.3022 354 288.1333 C357.7805 285.7457 357.9477 282.1045 361 281.1333 C365.9618 279.5546 371.6048 281.909 376 281.1333 C376.7411 281.0025 377.4316 278.1632 378 278.1333 C382.4504 277.8991 388.4607 277.5643 395 280.1333 C400.3444 282.2329 401.0899 284.2232 406 289.1333 C411.4011 294.5345 413.7568 295.7496 416 301.1333 C417.6651 305.1295 417.9592 310.2835 416 313.1333 C410.2652 321.4749 405.5059 324.2162 394 333.1333 C385.8615 339.4407 384.6024 342.1714 376 344.1333 C359.4501 347.9079 348.7814 346.6944 337 346.1333 C336.0338 346.0873 334.4164 343.9376 334 342.1333 C333.2014 338.6726 334.2382 334.2054 334 333.1333 C333.9882 333.0804 332.0015 333.1524 332 333.1333 C331.7515 329.9024 332 307.1333 332 307.1333 "/>
<path id="7" d="M246 232.1333 C246 232.1333 259.403 232.8753 269 230.1333 C274.8163 228.4715 281 222.1333 281 222.1333 "/>
<path id="8" d="M254 249.1333 C254 249.1333 266.5077 251.4687 275 249.1333 C283.9068 246.684 294 238.1333 294 238.1333 "/>
<path id="9" d="M262 267.1333 C262 267.1333 270.7402 268.9997 276 267.1333 C283.8533 264.3467 293 256.1333 293 256.1333 "/>
<path id="10" d="M165 201.1333 C165 201.1333 184.5646 194.5249 190 192.1333 C190.1652 192.0607 189.9519 190.1429 190 190.1333 C191.2019 189.8929 198.7981 190.3737 200 190.1333 C200.0481 190.1237 199.9471 188.1451 200 188.1333 C201.0721 187.8951 207.9279 188.3716 209 188.1333 C209.0529 188.1216 208.9726 186.1364 209 186.1333 C211.2226 185.8864 227 186.1333 227 186.1333 "/>
<path id="11" d="M255 172.1333 C255 172.1333 262.9234 173.5178 268 172.1333 C272.1536 171.0005 273.654 169.6762 277 166.1333 C281.5127 161.3552 281.6533 156.3645 285 154.1333 C287.0917 152.7389 292.0768 155.0328 295 154.1333 C296.2368 153.7528 298 150.1333 298 150.1333 "/>
<path id="12" d="M225 374.1333 C225 374.1333 223.3474 366.0911 225 361.1333 C227.1611 354.6501 230.4286 350.2583 234 347.1333 C235.1765 346.1039 240.191 347.3645 241 347.1333 C241.066 347.1145 240.934 345.1522 241 345.1333 C241.809 344.9022 247.191 345.3645 248 345.1333 C248.066 345.1145 247.9894 343.1338 248 343.1333 C253.8644 342.8838 277.9404 342.1098 295 343.1333 C296.1542 343.2026 298 346.1333 298 346.1333 "/>
<path id="13" d="M336 326.1333 C336 326.1333 336.9093 314.172 341 308.1333 C345.5596 301.4025 348.9251 299.1708 357 295.1333 C364.1777 291.5445 371.779 292.207 375 291.1333 C375.1111 291.0963 374.9664 289.1374 375 289.1333 C379.6056 288.5751 408 287.1333 408 287.1333 "/>
<path id="14" d="M174 187.1333 L179 199.1333 "/>
<path id="15" d="M172 185.1333 C172 185.1333 174.8664 185.8493 176 185.1333 C182.3987 181.092 184.2201 175.5988 191 173.1333 C197.3025 170.8415 206.3813 171.6369 209 173.1333 C210.434 173.9528 212 185.1333 212 185.1333 "/>
<path id="16" d="M266 158.1333 C266 158.1333 265.1987 161.6451 266 163.1333 C267.8862 166.6363 272.9968 171.127 273 171.1333 C273.0011 171.1355 269.1999 169.8829 269 169.1333 C268.1527 165.9558 267.9086 161.0445 269 156.1333 C269.4944 153.9086 270.8208 153.3125 273 151.1333 C274.6949 149.4384 275.221 148.4473 277 148.1333 C282.106 147.2323 286.0847 147.1545 290 148.1333 C291.2047 148.4345 293 152.1333 293 152.1333 "/>
<path id="17" d="M173 186.1333 C173 186.1333 173.1333 176.4333 176 172.1333 C179.3444 167.1167 182.7331 164.3452 189 162.1333 C197.2294 159.2288 205.3483 159.358 210 160.1333 C210.9003 160.2834 212.4306 163.2864 213 166.1333 C213.7764 170.0155 213 175.1333 213 175.1333 "/>
<path id="18" d="M266 162.1333 C266 162.1333 263.8542 147.5244 266 140.1333 C267.1327 136.2319 271.3777 132.6585 275 131.1333 C277.713 129.991 282.5969 130.8394 285 132.1333 C286.4208 132.8984 287.4987 135.2927 288 138.1333 C288.8445 142.919 288 149.1333 288 149.1333 "/>
<path id="19" d="M243 234.1333 C243 234.1333 239.0993 234.761 239 235.1333 C238.3273 237.6558 238.342 242.5537 239 249.1333 C239.2914 252.0472 240.1835 254.1535 241 255.1333 C241.2663 255.4528 243.9519 254.9891 244 255.1333 C244.7531 257.3925 244.5642 267.8361 246 270.1333 C246.5301 270.9816 254 271.1333 254 271.1333 "/>
<path id="20" d="M281 223.1333 C281 223.1333 291.2427 222.4936 297 223.1333 C297.7996 223.2222 298.6914 224.1046 299 225.1333 C302.5729 237.0431 306.2552 250.6661 306 253.1333 C305.981 253.3174 296 254.1333 296 254.1333 "/>
<path id="21" d="M263 266.1333 L257 266.1333 "/>
<path id="22" d="M171 197.1333 C171 197.1333 157.0302 213.453 149 225.1333 C148.2552 226.2167 149.648 227.8373 149 229.1333 C147.218 232.6973 146.2836 233.5761 143 237.1333 C140.444 239.9023 138.9541 239.1771 137 242.1333 C120.4768 267.1299 117.4298 272.5294 104 296.1333 C103.2619 297.4307 104.6505 298.9407 104 300.1333 C102.3293 303.1963 99.5784 303.4504 98 307.1333 C94.1129 316.2031 96.0303 318.4606 92 328.1333 C88.7843 335.851 85.9446 336.2625 83 343.1333 C82.0631 345.3195 83.596 347.544 83 349.1333 C82.6896 349.9611 80.0421 350.4739 80 351.1333 C79.1357 364.6743 78.4866 375.3239 80 396.1333 C80.3461 400.8922 81.4135 401.995 84 406.1333 C86.0174 409.3612 88.4394 409.2352 90 412.1333 C91.2744 414.5002 89.6706 417.8039 91 419.1333 C94.9882 423.1216 99.0359 425.6263 106 428.1333 C109.818 429.5078 112.1973 426.6909 116 428.1333 C124.8117 431.4757 125.4681 435.2084 135 439.1333 C141.577 441.8415 142.5791 441.6274 150 442.1333 C164.154 443.0984 166.4978 444.0087 179 442.1333 C184.1302 441.3638 184.4431 437.9195 190 436.1333 C197.7213 433.6515 199.2801 435.8904 207 433.1333 C219.5105 428.6653 220.2932 427.9109 232 421.1333 C238.8852 417.1472 239.2553 414.1569 245 411.1333 C246.8873 410.14 249.3287 412.168 251 411.1333 C257.4201 407.159 259.5644 399.2059 266 398.1333 C289.6182 394.197 302.4348 404.6658 329 398.1333 C356.9892 391.2507 360.4733 383.3789 388 368.1333 C391.3939 366.2536 391.3772 363.4447 394 362.1333 C395.7485 361.2591 398.0331 363.1561 400 362.1333 C408.4448 357.7421 410.6838 353.8338 419 349.1333 C420.2625 348.4197 422.4721 349.7555 423 349.1333 C431.3001 339.351 440.0214 330.9629 447 316.1333 C449.8359 310.107 447.6078 306.9468 447 298.1333 C446.6239 292.6798 447.0568 291.8897 445 287.1333 C439.4434 274.2836 439.3402 272.7708 431 261.1333 C418.32 243.4403 417.8141 242.448 402 227.1333 C370.8019 196.9204 369.4084 196.9066 336 169.1333 C328.3527 162.776 327.1646 161.9016 319 158.1333 C315.5009 156.5183 313.0016 158.7842 310 157.1333 C304.814 154.2811 299 147.1333 299 147.1333 "/>
</g>
</g>
</svg>
