<?xml version="1.0" encoding="utf-8"?>
<!DOCTYPE svg PUBLIC "-//W3C//DTD SVG 1.1//EN" "http://www.w3.org/Graphics/SVG/1.1/DTD/svg11.dtd">
<svg viewBox="0 0 800 800" preserveAspectRatio="xMinYMin meet" xmlns="http://www.w3.org/2000/svg" version="1.1">
<g fill="none" stroke="black" stroke-linecap="round" stroke-linejoin="round" stroke-width="1.5073">
<g transform="translate(161.1618,87.52) scale(1.9903) translate(-175,-98)">
<path id="0" d="M253 120 C253 120 252.0962 139.5962 254 158 C255.0251 167.9097 256.7838 168.2487 259 178 C259.2097 178.9227 259.1 179.95 259 180 C258.6 180.2 255.32 179.76 255 180 C254.82 180.135 254.6238 181.6835 255 183 C257.4719 191.6515 257.2527 194.3702 261 201 C262.569 203.7759 264.3214 204.4437 268 206 C276.6921 209.6774 277.7259 210.8871 287 212 C301.5789 213.7495 305.125 214.6823 318 212 C325.9258 210.3488 329.8782 207.5671 335 202 C339.099 197.5446 339.96 194.072 341 187 C342.2345 178.6053 340.4087 170.5885 340 168 C339.9933 167.9573 338.0213 168.0798 338 168 C337.3804 165.6764 336.2824 160.3417 336 153 C335.7947 147.6623 337.1017 143.1187 337 142 C336.9983 141.9814 335.0118 142.0529 335 142 C334.7618 140.9279 335.5364 134.7881 335 133 C334.8868 132.6225 332 132.1695 332 132 C332 128.7799 335 113 335 113 "/>
<path id="1" d="M251 118 C251 118 228.2875 121.6492 206 123 C195.6985 123.6243 192.5383 123.9544 185 122 C182.3209 121.3054 180.6813 118.5219 179 116 C178.4956 115.2434 178.5353 113.531 179 113 C180.7231 111.0307 182.9849 108.225 186 108 C210.5356 106.169 217.5459 107.1378 246 108 C248.8742 108.0871 251.4644 109.0054 252 110 C253.1814 112.1941 253.1017 119.8813 253 121 C252.9983 121.0186 251 121 251 121 "/>
<path id="2" d="M338 113 C338 113 334.5771 106.1146 335 104 C335.3625 102.1875 338.7057 98.155 341 98 C365.3324 96.3559 401.8701 97.6166 409 99 C409.1389 99.0269 409.5819 107.1583 408 111 C407.0479 113.3123 404.9502 114.5249 402 116 C399.744 117.128 398.9203 117.0621 396 117 C375.9528 116.5735 371.1082 117.6847 355 115 C351.8823 114.4804 351.6337 110.4804 348 109 C339.5213 105.5457 328 104 328 104 "/>
<path id="3" d="M181 110 C181 110 179.0632 111.7035 179 113 C178.2241 128.9051 179.4945 146.3021 179 151 C178.9945 151.0521 175.0043 150.9539 175 151 C174.5043 156.3289 173.685 172.9602 175 194 C175.6498 204.3976 175.8389 205.5166 179 215 C181.0288 221.0864 183.6348 220.8141 186 227 C189.9152 237.2396 189.9841 238.0566 192 249 C193.412 256.6653 190.6457 259.3104 193 265 C195.5175 271.084 197.9753 272.7284 204 278 C209.3852 282.7121 210.3581 283.2516 217 286 C224.1895 288.975 232.2072 289.6036 233 290 C233.022 290.011 230.8573 292.7554 231 293 C232.1092 294.9014 239.5799 301.3999 240 302 C240.011 302.0157 237.9842 302.9482 238 303 C238.9959 306.2723 244.7587 314.2417 247 325 C249.4604 336.8097 246.2882 340.0442 248 351 C248.4336 353.775 251.8719 354.5019 252 357 C252.6792 370.2438 251.4327 377.4639 250 390 C249.9039 390.8408 248.0427 391.2744 248 392 C247.6989 397.1195 247.9424 399.9493 249 407 C249.37 409.4666 250.7006 412 251 412 C253.5447 412 268 407 268 407 "/>
<path id="4" d="M411 108 C411 108 414.638 114.2079 415 120 C416.5367 144.5868 415.7793 146.2843 415 172 C414.7893 178.9534 414.446 181.373 413 186 C412.7096 186.9294 410.0473 187.3609 410 188 C409.469 195.1688 411.5326 200.7499 411 213 C410.549 223.3721 410.958 224.4435 408 234 C404.7498 244.5007 404.0223 245.9665 398 255 C393.6465 261.5302 392.3925 261.9392 386 267 C380.7844 271.129 378.6373 269.8264 374 274 C369.464 278.0824 368.7214 279.3305 366 285 C363.0806 291.0821 362.6375 292.1471 362 299 C360.7137 312.8278 363.7593 317.7376 362 328 C361.5736 330.4873 356.1493 332.0592 356 334 C355.545 339.9148 359.4453 347.8978 360 354 C360.0495 354.5448 358.0323 355.2418 358 356 C357.3037 372.3628 357.1636 379.6726 358 401 C358.113 403.8808 360.2302 406.6931 360 407 C359.5908 407.5456 355.9406 408.5622 352 409 C347.2073 409.5325 343.2019 409.2404 342 409 C341.9519 408.9904 341.7544 407.8596 342 407 C342.6842 404.6054 343.1821 402.3408 344 402 C346.0031 401.1654 349.3688 401.2688 354 402 C358.3875 402.6928 362.9999 404.9997 363 405 C363.0001 405.0002 355 404 355 404 "/>
<path id="5" d="M272 411 C272 411 267.3916 403.4982 265 403 C260.4813 402.0586 248 406 248 406 "/>
<path id="6" d="M274 412 C274 412 270 405.7325 270 404 C270 403.1338 273.7982 401.614 274 400 C275.2554 389.9572 274.3707 375.4603 274 372 C273.9957 371.9603 271.3526 372.3526 271 372 C270.1772 371.1772 268.9135 369.2189 269 367 C270.268 334.4538 268.6105 312.2463 274 295 C275.044 291.6592 284.3447 288.7963 294 287 C304.3345 285.0773 308.0154 284.7539 317 287 C322.9572 288.4893 327.04 291.6587 330 296 C332.3801 299.4907 330.0915 303.0625 332 309 C334.4131 316.5074 337.9492 317.2749 339 324 C340.0896 330.9732 335.9869 333.4015 337 341 C338.7599 354.1989 342.5077 355.0432 345 369 C347.4015 382.4487 347 397 347 397 "/>
<path id="7" d="M298 297 C298 297 293.1187 317.1366 294 333 C294.453 341.1534 297.5278 346.3704 301 351 C302.1947 352.593 307.2197 353.3237 309 353 C309.8689 352.842 311.4512 350.9757 312 349 C313.6527 343.0502 314.2556 341.3898 314 335 C313.7958 329.8955 311.4904 329.3949 311 324 C310.0428 313.4712 312.0983 308.8643 311 302 C310.8183 300.8643 307.9613 300.6022 307 299 C305.5402 296.5671 305.0981 292 305 292 C304.5584 292 296 299 296 299 "/>
<path id="8" d="M269 314 L293 313 "/>
<path id="9" d="M272 328 C272 328 288.5724 331.3265 300 331 C302.9125 330.9168 307 327 307 327 "/>
<path id="10" d="M314 313 C314 313 331.5248 313.2475 334 313 C334.0248 312.9975 334 311 334 311 "/>
<path id="11" d="M312 329 C312 329 324.6656 330.2762 332 328 C336.1466 326.7131 341 320 341 320 "/>
</g>
</g>
</svg>
