<?xml version="1.0" encoding="utf-8"?>
<!DOCTYPE svg PUBLIC "-//W3C//DTD SVG 1.1//EN" "http://www.w3.org/Graphics/SVG/1.1/DTD/svg11.dtd">
<svg viewBox="0 0 800 800" preserveAspectRatio="xMinYMin meet" xmlns="http://www.w3.org/2000/svg" version="1.1">
<g fill="none" stroke="black" stroke-linecap="round" stroke-linejoin="round" stroke-width="1.2241">
<g transform="translate(87.52,121.8315) scale(2.4508) translate(-166,-145)">
<path id="0" d="M194,228C194,228 185.10838624629434,226.19231005163047 181,228C175.67805966249256,230.3416537485033 173.45329026468403,233.35916566473358 169,239C166.7447347502757,241.85666931631744 166.1981498514684,243.23515282210056 166,247C165.27259828719022,260.82063254338567 163.58978898538052,265.5514344509203 167,277C169.34930969476244,284.8869682609882 173.30165027166822,288.1389439877097 180,294C183.48434335644163,297.04880043688643 185.66452846617253,297.2095597727663 191,298C198.36397349077785,299.0909590356708 200.4483447778293,299.51192043588554 207,298C211.66175467731378,296.92421045908145 214.7243121776056,295.3376754728451 217,292C220.44581099348372,286.9461438762239 220.9712155691739,283.81876167427845 222,276C223.35871055951128,265.6737997477144 223.77138065375684,263.8691207852167 222,254C220.53004309385213,245.810240094319 219.7674440675485,242.31753376765022 215,237C209.05305495573953,230.3668689890941 196,225 196,225"/>
<path id="1" d="M258,316C258,316 252.43125958427171,314.78437020786413 250,316C245.59334200350753,318.20332899824626 241.2882675148723,321.13519745538303 240,325C237.80646342062283,331.58060973813155 237.25060536079465,338.66828096211907 240,346C243.22399252335387,354.59731339561034 246.95004149104287,357.2481881024857 255,365C259.5308998949191,369.3630887876999 261.38309222826103,370.64419467578716 267,372C273.9751524722099,373.68365749329206 278.71262546938476,374.1878791161167 284,372C289.27664963298724,369.816558772557 293.8771769106469,365.61031816471904 296,360C299.30563791528357,351.2636712238934 299.14475244202026,344.73039575717246 298,335C297.55134405479015,331.18642446571624 295.4978050938396,329.4978050938396 292,326C288.03582089364846,322.03582089364846 287.13409910799225,322.020058298819 282,319C278.8125801371215,317.12504713948323 278.4187947702667,316.5064881141136 275,316C265.74714251231296,314.62920629812043 255,315 255,315"/>
<path id="2" d="M187,231C187,231 200.46627705718876,220.0531302516584 215,213C233.70533197003127,203.92241242630834 237.60748926231452,208.0919506749533 255,198C276.27220895040113,185.65686641149563 275.0969967910046,180.5258157893019 296,166C304.0172065376769,160.42872088059744 314,157 314,157"/>
<path id="3" d="M219,292C219,292 222.06213727259075,286.9938545455237 226,285C259.1291020332341,268.2257711224131 264.47439981621255,270.47328989718903 298,252C311.96710340311216,244.30384098195861 310.5269903338475,239.78674543444728 324,231C332.78032941003363,225.2736982108476 344,222 344,222"/>
<path id="4" d="M254,319C254,319 266.38653198234675,310.67606060794395 279,305C285.7701681372708,301.95342433822816 287.4241313803717,304.28793430981414 294,301C318.36939547274005,288.81530226363 319.5519471325601,287.5539638487558 343,273C347.93322670717566,269.9379972162358 347.14158028825636,267.6642946806336 352,265C361.77537460073716,259.63931070282154 374,256 374,256"/>
<path id="5" d="M294,370C294,370 295.2303739249309,366.88481303753457 297,366C327.968456313709,350.5157718431455 332.23996973207334,348.70767684665935 368,333C385.6298356480487,325.25605350038984 390.8077948680903,325.24893927300985 404,319C405.20521380217445,318.4291092516016 406,315 406,315"/>
<path id="6" d="M325,234C325,234 332.03399436613824,250.39225690130627 337,259C337.4248028915713,259.7363250120569 339.39647816037165,259.1953042138289 340,260C344.0389538498205,265.38527179976063 349,275 349,275"/>
<path id="7" d="M292,257C292,257 293.8753626678546,262.6602259275758 297,267C302.5967768684605,274.77330120619513 305.053823815181,274.9340340216871 310,282C311.16984250014394,283.6712035716342 310.0347471748575,285.7129962331433 311,287C312.1331228816891,288.51083050891873 316,290 316,290"/>
<path id="8" d="M316,290L316,290"/>
<path id="9" d="M312,156C312,156 333.51000350245925,208.72750671304686 342,225C342.3139598088459,225.60175630028794 346.0863941670321,225.88320269213904 348,225C351.1157428306016,223.56196484741463 353.50507124456015,221.56273500932545 355,219C355.8895443834022,217.47506677131048 356.0063403380104,215.18040406568917 355,213C348.0717338267746,197.9887566246784 344.15967462390045,195.826649168622 337,180C335.35509790180066,176.363900625033 337.37411130974555,175.0078246534245 336,171C331.62133337995453,158.22888902486744 328.5306794144227,150.73735404843694 325,145C324.6684808061575,144.46128131000591 321.93232426453227,144.27537840080038 320,145C314.8793406989894,146.92024723787898 310.0553440874837,149.00657227919746 309,151C308.11267089161816,152.6760660936101 311,162 311,162"/>
<path id="10" d="M312,162L312,162"/>
<path id="11" d="M372,250C372,250 376.6326392547506,254.13000075262977 379,259C393.6230256111935,289.0816526858838 397.3370394271,304.33058638098293 407,322C407.59574118456225,323.08935530891386 411.9717089010975,323.7243896781795 414,323C416.7916264587045,322.00299055046264 419.8663980159603,319.5910902492335 421,317C422.2508711548024,314.1408659318802 422.63600134252283,310.68100302067637 421,307C412.0565259942085,286.87718348696916 408.01116286335366,285.3281913618005 397,263C390.1139710160234,249.0366634491586 387.70939668966764,237.3544911395885 385,234C384.7010506634661,233.62987225000563 379.23180995986626,234.71872238127085 376,237C371.827716242289,239.9451414760313 368.55464311229167,243.22678443854153 368,246C367.46628681647405,248.66856591762985 372,257 372,257"/>
<path id="12" d="M372,257L372,257"/>
<path id="13" d="M297,277C297,277 290.65841731521607,278.05940383540564 290,279C289.2366176055466,280.09054627779056 289.2366176055466,285.90945372220943 290,287C290.65841731521607,287.94059616459435 296.8902419336701,289.14111751385274 297,289C297.3505176956987,288.5493343912445 297,278 297,278"/>
<path id="14" d="M297,278L297,278"/>
<path id="15" d="M333,247L346,241"/>
<path id="16" d="M346,239C346,239 345.22356515774043,244.1178257887021 346,248C346.5693855509904,250.8469277549518 347.7433436854001,253.05750776405003 349,254C349.8377708764,254.62832815729996 353.9194587628866,254.20940721649484 354,254C354.5444587628866,252.58440721649484 355.0995130575635,246.22268702342671 354,241C353.4213089170718,238.2512173560912 351.6436230360971,236.23271727707282 350,235C349.2265303359543,234.41989775196575 346.25,234.75 346,235C345.75,235.25 346,239 346,239"/>
<path id="17" d="M352,255C352,255 344.9262910832544,253.95489604169484 342,255C340.30693158754564,255.60466729016227 338,260 338,260"/>
<path id="18" d="M338,260L338,260"/>
<path id="19" d="M295,277L300,273"/>
<path id="20" d="M295,291L310,284"/>
<path id="21" d="M185,240C185,240 180.46114551391832,242.1286635670953 178,245C175.0274476260467,248.4679777696122 174.0081378970853,249.76582083224167 173,254C171.81284696231074,258.98604275829484 171.19275406700166,262.2464892160804 173,266C176.20172581957112,272.6497382406477 179.2368297720496,274.5749882834471 186,281C188.68044911786657,283.54642666197327 189.7142358012746,284.12379621367324 193,285C196.25860912270286,285.86896243272076 199.31063424156937,286.26702431882296 201,285C205.90971923543904,281.3177105734207 209.3408968905935,277.318206218813 213,270C215.43940207293767,265.12119585412466 216.49091666161968,259.54332842276295 215,257C211.57915040030704,251.1644330358179 205.19150903403462,246.70507457284907 196,241C192.42856740751455,238.7832487356987 186,239 186,239"/>
<path id="22" d="M252,330C252,330 249.02877947851115,344.0863384355335 251,350C252.36983120984817,354.10949362954454 256.27373598449116,356.3560138083125 262,360C266.46708554089434,362.84269079875093 267.66147813091595,362.983138691603 273,364C277.53882426116456,364.8645379545075 279.5414178929701,364.7981343323915 283,364C284.27701493182644,363.7053042465016 285.17589820518276,362.64820358963453 286,361C288.838572848815,355.32285430237 289.6900508490752,354.2877559244392 291,348C292.0261916197156,343.07428022536515 292.31922034604576,340.2038208403968 291,337C289.9347472072037,334.412957503209 287.68870746509105,332.9414249816269 284,331C278.8778569914798,328.30413525867356 277.8499971885881,327.97499953143136 272,327C266.457897400285,326.07631623338085 264.6148553371184,325.78556438496883 260,327C256.80198621375126,327.84158257532863 253,332 253,332"/>
</g>
</g>
</svg>
