<?xml version="1.0" encoding="utf-8"?>
<!DOCTYPE svg PUBLIC "-//W3C//DTD SVG 1.1//EN" "http://www.w3.org/Graphics/SVG/1.1/DTD/svg11.dtd">
<svg viewBox="0 0 800 800" preserveAspectRatio="xMinYMin meet" xmlns="http://www.w3.org/2000/svg" version="1.1">
<g fill="none" stroke="black" stroke-linecap="round" stroke-linejoin="round" stroke-width="1.2385">
<g transform="translate(87.52,165.0344) scale(2.4223) translate(-115,-152.1333)">
<path id="0" d="M179 236.1333 C179 236.1333 172.551 237.5823 170 240.1333 C167.0565 243.0768 165.9872 245.691 165 250.1333 C164.309 253.2429 164.6714 254.9068 166 258.1333 C167.8117 262.5331 168.8808 264.0141 172 267.1333 C173.4556 268.589 174.4687 268.606 177 269.1333 C186.171 271.044 188.7849 272.8797 196 272.1333 C200.1001 271.7092 201.3578 269.3472 206 266.1333 C207.6651 264.9805 208.7501 264.4455 209 263.1333 C210.273 256.4501 211.2688 251.4772 210 245.1333 C209.4155 242.2109 207.0838 240.2683 204 238.1333 C201.616 236.4829 200.2351 236.1333 197 236.1333 C189.1432 236.1333 180 238.1333 180 238.1333 "/>
<path id="1" d="M285 234.1333 C285 234.1333 279.0732 232.4545 275 233.1333 C271.4101 233.7317 269.4461 234.9318 267 237.1333 C265.6293 238.3669 265 239.9683 265 242.1333 C265 247.7625 264.7909 250.4943 267 255.1333 C268.8698 259.0599 271.3675 261.9657 275 263.1333 C281.9828 265.3778 286.6721 265.282 295 264.1333 C299.0628 263.573 302.2565 261.6693 304 259.1333 C305.9285 256.3282 306.9458 251.7588 306 248.1333 C304.7285 243.2593 302.2365 240.6724 298 236.1333 C296.1284 234.128 294.8469 233.7027 292 233.1333 C288.1178 232.3569 285.2656 232.6802 283 233.1333 C282.6476 233.2038 282 235.1333 282 235.1333 "/>
<path id="2" d="M213 255.1333 C213 255.1333 226.612 236.4961 236 217.1333 C242.1815 204.384 239.2604 201.8209 245 189.1333 C248.3151 181.8053 255 175.1333 255 175.1333 "/>
<path id="3" d="M276 181.1333 C276 181.1333 272.9362 190.2394 272 199.1333 C270.9835 208.7896 273.2201 209.6163 272 219.1333 C270.8018 228.4795 268.4058 230.7529 267 238.1333 C266.8725 238.8027 267.8828 240.1464 268 240.1333 C269.2557 239.9938 276 237.1333 276 237.1333 "/>
<path id="4" d="M309 153.1333 L310 153.1333 "/>
<path id="5" d="M310 152.1333 C310 152.1333 310.7764 157.2512 310 161.1333 C309.4306 163.9803 307.0288 164.4575 307 167.1333 C306.5851 205.7161 309 254.1333 309 254.1333 "/>
<path id="6" d="M164 244.1333 C164 244.1333 168.5173 242.4248 170 240.1333 C173.0539 235.4136 175 227.1333 175 227.1333 "/>
<path id="7" d="M232 165.1333 C232 165.1333 227.5119 168.2818 225 172.1333 C220.3918 179.1993 218.4118 186.4863 217 188.1333 C216.9118 188.2363 213.1331 185.9919 213 186.1333 C210.7153 188.5609 207.8605 196.8028 201 205.1333 C194.3072 213.2603 191.6296 211.9568 185 220.1333 C177.0957 229.882 173.1473 237.8387 171 242.1333 C170.926 242.2814 173 244.1333 173 244.1333 "/>
<path id="8" d="M251 187.1333 C251 187.1333 245.9538 193.1223 246 193.1333 C246.3334 193.2127 272 192.1333 272 192.1333 "/>
<path id="9" d="M260 185.1333 C260 185.1333 253 186.1335 253 186.1333 C253 186.1329 256.6358 183.8542 260 183.1333 C263.0812 182.4731 267 183.1333 267 183.1333 "/>
<path id="10" d="M237 161.1333 C237 161.1333 244.1443 161.0127 248 163.1333 C252.4452 165.5782 255.1394 169.1099 257 172.1333 C257.4331 172.8372 256.3025 176.0685 256 176.1333 C253.9175 176.5796 246.7886 176.9279 243 175.1333 C240.2473 173.8294 238.6595 170.7289 237 167.1333 C236.2295 165.4639 236.4012 163.7302 237 162.1333 C237.494 160.8159 240 159.1333 240 159.1333 "/>
<path id="11" d="M279 169.1333 C279 169.1333 276 186.1333 276 186.1333 C276 186.1333 276.5268 172.0691 279 166.1333 C279.805 164.2013 282.7543 162.6327 286 162.1333 C294.0979 160.8875 305 162.1333 305 162.1333 "/>
<path id="12" d="M250 184.1333 C250 184.1333 274.9989 184.1308 275 184.1333 C275.0002 184.1339 253.0975 191.0923 253 191.1333 C252.9899 191.1376 255.9721 192.0215 256 192.1333 C256.0399 192.293 254.2351 195.1595 254 195.1333 C252.95 195.0167 249.115 191.1333 247 191.1333 C244.5829 191.1333 238.9849 195.1294 239 195.1333 C239.0685 195.1512 270 197.1333 270 197.1333 "/>
<path id="13" d="M277 169.1333 C277 169.1333 278.9582 166.1786 280 166.1333 C286.6271 165.8452 291.2519 168.4573 300 168.1333 C303.122 168.0177 305.1421 166.9912 307 165.1333 C308.8579 163.2754 310.1437 158.3249 310 158.1333 C309.7656 157.8208 304.8033 156.4418 301 157.1333 C295.0009 158.2241 291.9891 159.474 288 162.1333 C286.6974 163.0017 286 167.1333 286 167.1333 "/>
<path id="14" d="M166 258.1333 C166 258.1333 156.8333 270.5456 151 283.1333 C147.7405 290.1671 149.1604 297.3844 147 299.1333 C144.7304 300.9706 136.7544 298.5983 130 300.1333 C127.6832 300.6599 126.5979 301.7898 125 304.1333 C119.6476 311.9835 117.2171 314.9279 115 322.1333 C114.2232 324.6579 115.1763 327.4806 117 330.1333 C119.7599 334.1477 121.1868 335.7267 126 338.1333 C135.9967 343.1317 145.7383 346.4828 149 346.1333 C149.9101 346.0358 153.2458 340.224 154 335.1333 C155.0183 328.2601 154.7938 326.0521 153 319.1333 C151.6148 313.7906 147 308.1333 147 308.1333 "/>
<path id="15" d="M308 256.1333 C308 256.1333 320.0351 261.8861 330 269.1333 C336.0193 273.511 335.9955 274.7118 341 280.1333 C341.6915 280.8825 342.0749 282.0584 342 282.1333 C341.0261 283.1072 335.2199 284.8291 334 287.1333 C332.345 290.2595 331.5589 294.9541 333 299.1333 C335.571 306.5892 338.3341 309.0509 344 316.1333 C345.5373 318.0549 346.6873 318.7252 349 319.1333 C354.0191 320.0191 355.6097 319.9844 361 319.1333 C364.3571 318.6033 365.3537 318.118 368 316.1333 C370.7178 314.095 372.1585 312.826 373 310.1333 C374.1127 306.5728 373.76 304.6934 373 300.1333 C372.354 296.2573 372.2429 294.2582 370 292.1333 C364.5991 287.0167 361.7487 285.8392 354 282.1333 C351.2118 280.7998 349.972 280.7371 347 281.1333 C343.3643 281.6181 339 284.1333 339 284.1333 "/>
</g>
</g>
</svg>
