<?xml version="1.0" encoding="utf-8"?>
<!DOCTYPE svg PUBLIC "-//W3C//DTD SVG 1.1//EN" "http://www.w3.org/Graphics/SVG/1.1/DTD/svg11.dtd">
<svg viewBox="0 0 800 800" preserveAspectRatio="xMinYMin meet" xmlns="http://www.w3.org/2000/svg" version="1.1">
<g fill="none" stroke="black" stroke-linecap="round" stroke-linejoin="round" stroke-width="1.9777">
<g transform="translate(87.52,206.5961) scale(1.5169) translate(-102,-159.1333)">
<path id="0" d="M211 175.1333 C211 175.1333 221.2735 169.8791 231 168.1333 C239.6941 166.5729 240.739 167.123 250 168.1333 C267.8661 170.0824 268.5822 170.2232 286 174.1333 C292.5864 175.6119 294.926 175.5907 299 179.1333 C304.4116 183.8391 309 194.1333 309 194.1333 "/>
<path id="1" d="M311 200.1333 C311 200.1333 343.6328 201.6724 351 201.1333 C351.2385 201.1159 351.6824 197.1886 352 197.1333 C356.1211 196.4166 374 197.1333 374 197.1333 "/>
<path id="2" d="M374 197.1333 C374 197.1333 381.386 179.5544 389 168.1333 C390.692 165.5953 392.4443 165.2155 396 164.1333 C403.3183 161.906 404.0026 161.8604 412 161.1333 C431.2562 159.3828 432.002 158.1591 451 159.1333 C470.1984 160.1179 474.3686 161.4981 490 165.1333 C491.9078 165.577 492.9391 167.0116 494 169.1333 C496.0333 173.1999 497 179.1333 497 179.1333 "/>
<path id="3" d="M497 180.1333 L498 188.1333 "/>
<path id="4" d="M210 172.1333 C210 172.1333 190.1713 191.8886 190 192.1333 C189.9788 192.1636 194.0329 191.4776 196 192.1333 C197.3114 192.5705 198.4742 193.6873 199 195.1333 C200.0751 198.0897 201.0312 200.8647 200 203.1333 C197.4033 208.846 195.4829 211.7439 189 217.1333 C155.2883 245.1587 117 272.1333 117 272.1333 "/>
<path id="5" d="M114 278.1333 L105 288.1333 "/>
<path id="6" d="M105 287.1333 L105 286.1333 "/>
<path id="7" d="M102 288.1333 C102 288.1333 104.6657 321.2824 105 322.1333 C105.0272 322.2024 109.1108 317.0819 113 316.1333 C126.9632 312.7277 136.1414 311.1475 146 312.1333 C148.3588 312.3692 151.0874 315.8983 153 320.1333 C157.483 330.0599 160 335.9889 160 343.1333 C160 345.929 157.0151 349.2425 153 352.1333 C145.7085 357.3832 144.0831 357.6173 135 361.1333 C129.0128 363.451 124.4876 365.151 122 364.1333 C119.061 362.931 115.2394 358.2116 113 352.1333 C108.9291 341.0837 108 326.1333 108 326.1333 "/>
<path id="8" d="M161 353.1333 C161 353.1333 202.3814 351.3743 209 350.1333 C209.1533 350.1046 208.2642 346.5247 209 344.1333 C210.0094 340.8529 210.5135 340.0342 213 337.1333 C219.1992 329.901 221.402 330.784 227 323.1333 C235.9377 310.9185 233.8385 308.5283 243 296.1333 C259.0147 274.4664 261.4253 275.7307 278 254.1333 C294.3172 232.8715 309 210.1333 309 210.1333 "/>
<path id="9" d="M378 364.1333 C378 364.1333 373.6944 363.221 372 364.1333 C368.9588 365.7709 367.5119 367.2818 365 371.1333 C360.3918 378.1993 358.3299 380.0405 357 387.1333 C355.8126 393.4662 357.1159 396.2248 359 403.1333 C359.8075 406.0941 360.6826 407.2022 363 409.1333 C365.9181 411.5651 367.0529 412.0946 371 413.1333 C375.9109 414.4257 378.4983 415.4465 382 414.1333 C387.5203 412.0632 391.343 409.5227 395 404.1333 C399.2885 397.8134 399.1879 394.8917 401 386.1333 C402.0359 381.1263 402.3192 378.3372 401 375.1333 C399.9347 372.5463 397.7284 370.7645 394 369.1333 C382.9601 364.3034 369 361.1333 369 361.1333 "/>
<path id="10" d="M363 373.1333 C363 373.1333 359.7003 365.0272 355 358.1333 C344.889 343.3039 334.3811 335.072 333 329.1333 C332.5462 327.1821 341.0027 322.6282 345 315.1333 C352.3284 301.3927 350.0102 299.0576 357 284.1333 C368.3968 259.7996 370.4386 260.34 382 236.1333 C386.3096 227.1101 387.4461 226.4569 389 217.1333 C391.2474 203.6489 390 188.1333 390 188.1333 "/>
<path id="11" d="M506 186.1333 C506 186.1333 504.278 197.8016 500 208.1333 C478.0791 261.0745 473.5761 260.9194 453 314.1333 C445.0042 334.8121 450.6919 348.7171 442 358.1333 C431.3697 369.6495 393 379.1333 393 379.1333 "/>
<path id="12" d="M261 289.1333 C261 289.1333 277.3977 295.9261 294 299.1333 C320.783 304.3073 348.7474 306.3101 349 306.1333 C349.0272 306.1143 337.1033 290.2539 324 278.1333 C317.9954 272.5791 313.2726 268.9024 309 269.1333 C302.3484 269.4929 298.1919 275.4928 287 280.1333 C277.9457 283.8875 268 286.1333 268 286.1333 "/>
<path id="13" d="M349 216.1333 C349 216.1333 333.6286 243.5801 321 271.1333 C317.4085 278.9694 316.2904 287.6251 316 288.1333 C315.9812 288.1662 313 285.1333 313 285.1333 "/>
<path id="14" d="M507 192.1333 C507 192.1333 510.5261 193.4489 512 195.1333 C513.349 196.6751 513.8997 197.8266 514 200.1333 C514.354 208.2759 514.9241 210.9865 513 218.1333 C511.9873 221.8948 510.1811 224.4792 507 226.1333 C500.2371 229.6501 488 231.1333 488 231.1333 "/>
<path id="15" d="M506 230.1333 C506 230.1333 508.2405 239.7853 506 246.1333 C500.2093 262.5403 497.8494 264.3314 488 281.1333 C480.9988 293.0766 477.9825 292.0109 472 304.1333 C459.4415 329.5808 463.3527 334.766 450 358.1333 C442.8652 370.6193 439.5379 370.4396 428 381.1333 C419.2361 389.256 418.7484 390.0406 409 396.1333 C403.4602 399.5957 401.9586 399.9984 396 401.1333 C392.6648 401.7686 388 400.1333 388 400.1333 "/>
<path id="16" d="M199 200.1333 C199 200.1333 201.4654 221.0719 207 228.1333 C211.1117 233.3793 217.9167 235.3881 228 237.1333 C241.857 239.5317 244.3496 238.8569 259 237.1333 C268.7855 235.9821 270.9789 235.8286 279 231.1333 C289.7585 224.8356 291.1707 222.8171 300 213.1333 C305.9701 206.5855 306.1148 204.9038 310 197.1333 C311.2026 194.7282 311 191.1333 311 191.1333 "/>
<path id="17" d="M251 313.1333 C251 313.1333 249.7765 324.5567 250 328.1333 C250.0168 328.4027 251.0755 329.0673 252 329.1333 C257.356 329.5159 258.7152 330.4884 264 329.1333 C277.0201 325.7948 277.9249 321.9757 291 319.1333 C299.5154 317.2822 308.9568 319.9925 310 319.1333 C310.5232 318.7024 310.3962 310.7245 308 305.1333 C305.0508 298.2519 302.8615 295.4547 298 291.1333 C295.8821 289.2508 293.8147 289.1333 290 289.1333 C274.7412 289.1333 272.9593 289.2155 258 291.1333 C254.5753 291.5724 254.2078 293.7957 251 294.1333 C245.7845 294.6823 240.0898 292.4627 239 293.1333 C238.3741 293.5185 236.9041 298.6402 238 302.1333 C243.9717 321.1682 245.4026 324.583 255 344.1333 C258.414 351.0879 259.8968 354.0349 265 357.1333 C270.8265 360.6708 274.5712 360.9055 283 361.1333 C291.8062 361.3713 294.9843 361.4219 302 358.1333 C308.4033 355.1318 311.0076 352.5972 315 346.1333 C320.3701 337.4389 321.7867 334.082 323 324.1333 C323.984 316.0645 323.3519 312.823 320 305.1333 C315.6916 295.2494 313.5342 293.9778 306 285.1333 C302.5388 281.0702 301.6676 280.3657 297 278.1333 C290.9847 275.2564 289.665 274.9331 283 274.1333 C277.9921 273.5324 276.7243 273.6301 272 275.1333 C266.6116 276.8478 263.662 277.5841 261 281.1333 C256.6568 286.9243 255.4502 290.4322 254 299.1333 C252.1841 310.0286 251.7124 313.7286 254 323.1333 C255.4478 329.0854 258.0625 330.9054 263 336.1333 C265.8834 339.1864 268.3473 341.2316 271 341.1333 C277.525 340.8917 282.0902 339.4478 290 335.1333 C297.2964 331.1535 301.7614 328.5059 304 323.1333 C307.065 315.7774 305.6502 310.5113 305 299.1333 C304.6966 293.8245 303.9901 293.2508 302 288.1333 C300.6006 284.5348 300.375 283.7458 298 281.1333 C295.8889 278.8111 294.7542 277.7454 292 277.1333 C287.2023 276.0672 283.6748 275.1122 280 277.1333 C267.7201 283.8873 263.937 287.9197 252 299.1333 C248.6998 302.2335 247.9618 303.9015 247 308.1333 C245.7665 313.5607 245.9606 315.105 247 321.1333 C248.3481 328.9525 248.0913 330.7372 252 337.1333 C258.2334 347.3335 259.5887 350.3252 269 357.1333 C281.0011 365.815 285.4919 366.7432 299 371.1333 C302.7826 372.3627 305.3867 371.4238 309 370.1333 C310.8939 369.457 312.3898 368.1166 313 366.1333 C315.7102 357.3253 316.4012 354.613 317 344.1333 C317.3471 338.0584 315 331.1333 315 331.1333 "/>
<path id="18" d="M388 200.1333 C388 200.1333 394.3695 211.9131 402 221.1333 C405.8112 225.7386 406.6859 226.0967 412 229.1333 C420.2316 233.8371 421.435 236.0627 430 237.1333 C450.7364 239.7254 458.1286 239.6864 476 237.1333 C480.3291 236.5149 484.0844 232.9646 486 229.1333 C488.5051 224.1232 488 213.1333 488 213.1333 "/>
</g>
</g>
</svg>
