<?xml version="1.0" encoding="utf-8"?>
<!DOCTYPE svg PUBLIC "-//W3C//DTD SVG 1.1//EN" "http://www.w3.org/Graphics/SVG/1.1/DTD/svg11.dtd">
<svg viewBox="0 0 800 800" preserveAspectRatio="xMinYMin meet" xmlns="http://www.w3.org/2000/svg" version="1.1">
<g fill="none" stroke="black" stroke-linecap="round" stroke-linejoin="round" stroke-width="1.3825">
<g transform="translate(87.52,120.07) scale(2.17) translate(-135,-115)">
<path id="0" d="M143 116 L400 116 "/>
<path id="1" d="M146 198 L399 198 "/>
<path id="2" d="M144 296 L407 296 "/>
<path id="3" d="M147 369 L417 369 "/>
<path id="4" d="M143 117 C143 117 145.6914 116.64 146 117 C147.1487 118.3401 148.2365 120.488 149 124 C150.6397 131.5428 150.7659 132.0394 151 140 C151.7582 165.7773 153.5589 172.4882 151 192 C150.5055 195.7707 143 201 143 201 "/>
<path id="5" d="M143 117 C143 117 138.1027 118.9729 138 120 C136.028 139.7204 133.5859 166.8828 136 187 C136.337 189.8085 147 195 147 195 "/>
<path id="6" d="M142 299 C142 299 147.069 298.2276 149 299 C150.269 299.5076 151.9228 301.3275 152 303 C153.1378 327.6525 153.8495 343.6553 152 364 C151.8319 365.8495 146 369 146 369 "/>
<path id="7" d="M143 298 C143 298 137.5158 302.3891 137 306 C134.1878 325.6852 133.9351 331.637 135 354 C135.3387 361.1135 137.6104 366.059 140 369 C140.9402 370.1571 147.2563 370.093 148 370 C148.0236 369.997 148 368 148 368 "/>
<path id="8" d="M399 115 C399 115 403.5865 121.7979 404 128 C405.9227 156.84 406.2679 167.6449 404 190 C403.718 192.78 397 197 397 197 "/>
<path id="9" d="M408 295 C408 295 411.2211 294.3509 412 295 C415.1805 297.6505 417.6778 299.9334 420 305 C422.6125 310.6999 422.6957 312.1032 423 319 C424.1626 345.3527 423.3738 366.2708 423 373 C422.9988 373.0208 420 373 420 373 "/>
<path id="10" d="M418 370 L422 370 "/>
<path id="11" d="M202 200 C202 200 199.5447 199.4972 199 200 C195.1731 203.5325 192.4598 205.5746 189 212 C182.4477 224.1685 180.5576 225.9797 178 239 C175.4565 251.9485 177.035 253.846 178 268 C178.506 275.4209 177.8591 278.4458 181 283 C185.7335 289.8636 198 297 198 297 "/>
<path id="12" d="M202 157 L201 340 "/>
<path id="13" d="M202 157 C202 157 231.9267 155.7763 257 159 C264.2147 159.9276 264.5211 163.8287 272 166 C279.2806 168.1137 281.9767 165.5907 288 168 C292.374 169.7496 297 176 297 176 "/>
<path id="14" d="M202 340 C202 340 225.785 343.1083 245 340 C256.9667 338.0642 259.2588 336.1608 270 329 C286.6101 317.9266 302 302 302 302 "/>
<path id="15" d="M297 174 C297 174 298.9958 174.7301 299 175 C299.5194 208.5028 299 303 299 303 "/>
<path id="16" d="M215 118 L216 155 "/>
<path id="17" d="M225 117 L224 159 "/>
<path id="18" d="M220 340 L220 368 "/>
<path id="19" d="M229 342 L229 369 "/>
<path id="20" d="M301 217 L309 217 "/>
<path id="21" d="M309 217 L309 254 "/>
<path id="22" d="M298 254 L310 254 "/>
<path id="23" d="M201 239 L301 239 "/>
</g>
</g>
</svg>
