<?xml version="1.0" encoding="utf-8"?>
<!DOCTYPE svg PUBLIC "-//W3C//DTD SVG 1.1//EN" "http://www.w3.org/Graphics/SVG/1.1/DTD/svg11.dtd">
<svg viewBox="0 0 800 800" preserveAspectRatio="xMinYMin meet" xmlns="http://www.w3.org/2000/svg" version="1.1">
<g fill="none" stroke="black" stroke-linecap="round" stroke-linejoin="round" stroke-width="1.0225">
<g transform="translate(103.6575,87.52) scale(2.9341) translate(-82,-105)">
<path id="0" d="M116 244 C116 244 109.2837 243.1433 105 244 C103.2087 244.3583 101.9634 245.3484 101 247 C99.0581 250.329 98.1027 251.7906 98 256 C97.6385 270.8235 98.6767 272.5611 100 288 C100.1269 289.4808 100.7192 290.971 101 291 C106.9994 291.6206 121.3286 293.6954 129 291 C132.7172 289.6939 136.0783 283.9786 138 278 C139.8137 272.3573 140.206 268.0002 138 263 C134.2326 254.4605 129.5696 250.2568 123 244 C121.6199 242.6856 117 243 117 243 "/>
<path id="1" d="M197 247 C197 247 191.8831 246.0584 190 247 C187.8478 248.0761 185.2399 250.5409 185 253 C183.7093 266.2294 183.8255 279.5195 186 288 C186.389 289.5172 190.7055 291.3865 195 292 C203.5249 293.2178 209.9572 293.9405 214 292 C216.5023 290.7989 219.0267 285.6778 220 280 C221.7183 269.9766 222.2179 265.1324 220 257 C218.799 252.5963 215.5467 249.5699 211 247 C206.1294 244.2471 197 244 197 244 "/>
<path id="2" d="M96 239 C96 239 98.4785 235.1141 100 235 C112.7117 234.0466 127.9685 232.4305 136 236 C139.8443 237.7086 142.9039 245.7774 145 255 C147.5125 266.0552 146 280 146 280 "/>
<path id="3" d="M97 238 C97 238 91.3138 238.6862 90 240 C88.6862 241.3138 88.2261 243.5518 88 247 C86.2836 273.1747 83.9853 289.1134 86 301 C86.2641 302.5581 92.4637 305.654 98 306 C114.1311 307.0082 118.0358 306.2276 134 304 C137.3259 303.5359 139.7194 301.6465 141 300 C141.678 299.1283 140.2263 296.5475 141 295 C142.5475 291.905 145.7017 291.3386 147 288 C148.5843 283.9261 148 277 148 277 "/>
<path id="4" d="M175 237 C175 237 177.6151 240.1773 178 243 C178.9609 250.0467 178.8979 253.3133 178 259 C177.8051 260.2346 175.0792 260.8381 175 262 C173.9864 276.8662 172.6866 301.4046 175 303 C179.6888 306.2337 229.2484 305.8163 233 302 C236.7505 298.1848 238.1425 259.8561 233 244 C230.8912 237.498 219.9537 232.6121 209 228 C204.0108 225.8993 199.8599 226.92 195 228 C193.3029 228.3771 192.7231 231.5405 191 232 C187.259 232.9976 183.2665 230.9112 180 232 C178.3172 232.5609 176 237 176 237 "/>
<path id="5" d="M156 267 C156 267 153.1792 267.5818 153 268 C152.5295 269.0977 152.5518 273.6514 153 274 C153.939 274.7303 161.0549 275.4726 162 275 C162.4448 274.7776 163.4813 270.0829 163 269 C162.5476 267.9821 158 266 158 266 "/>
<path id="6" d="M87 241 C87 241 87.3878 237.3031 89 235 C93.88 228.0285 96.1752 221.9253 101 221 C121.0418 217.1564 162 221 162 221 "/>
<path id="7" d="M235 245 C235 245 235.8645 239.5388 235 235 C233.9831 229.6615 233.8225 228.3424 231 224 C227.918 219.2585 226.7595 218.4374 222 215 C218.3494 212.3634 217.2417 211.3463 213 211 C194.8079 209.5149 188.9508 209.0062 173 211 C169.5108 211.4362 168.6395 215.6352 165 217 C162.1595 218.0652 157 217 157 217 "/>
<path id="8" d="M87 250 C87 250 84.9747 240.4134 87 234 C90.2644 223.6626 91.5925 220.4657 99 212 C107.6895 202.0691 111.9639 197.9677 122 194 C128.5331 191.4171 142 195 142 195 "/>
<path id="9" d="M235 246 C235 246 236.3568 231.2108 235 219 C234.5254 214.7287 233.7169 213.2603 231 210 C226.998 205.1976 225.7775 203.9884 220 201 C212.2119 196.9716 210.7608 195.7215 202 195 C170.2225 192.383 135 194 135 194 "/>
<path id="10" d="M85 243 C85 243 83.0756 245.1594 83 247 C81.7207 278.1289 82 316 82 316 "/>
<path id="11" d="M83 317 L147 317 "/>
<path id="12" d="M236 245 C236 245 238.0171 288.5896 237 313 C236.9376 314.4967 233 317 233 317 "/>
<path id="13" d="M233 318 C233 318 206.4489 318.3778 180 318 C171.5093 317.8787 169.9735 318.3283 163 317 C161.1456 316.6468 160.6467 314.1937 159 314 C154.1268 313.4267 146 315 146 315 "/>
<path id="14" d="M119 105 C119 105 112.6872 112.0102 111 119 C106.1867 138.9407 110.5048 142.5537 105 163 C100.4096 180.0501 94.4073 180.0321 90 197 C84.8481 216.8347 85 240 85 240 "/>
<path id="15" d="M284 110 C284 110 280.1704 109.1897 279 110 C275.6689 112.3061 272.686 114.3916 271 119 C266.1144 132.3539 269.3408 139.7842 264 151 C261.5527 156.1393 256.4887 155.5113 251 161 C246.9431 165.0569 244.9015 166.38 244 171 C241.5258 183.6802 244.4277 187.0092 243 202 C242.4818 207.4408 242.3401 208.3197 240 213 C237.1918 218.6163 234.2091 219.0295 232 224 C230.9376 226.3904 232 231 232 231 "/>
<path id="16" d="M284 112 C284 112 282.5259 128.3853 279 144 C275.5908 159.0978 272.9356 159.0552 270 174 C267.5611 186.4162 271.8726 188.9778 268 200 C259.8157 223.2938 249.8095 224.9945 244 248 C238.4923 269.8105 245.6523 279.4396 243 299 C242.5358 302.4232 236 307 236 307 "/>
<path id="17" d="M173 111 C173 111 174.2785 135.0335 169 155 C163.3741 176.2806 150 198 150 198 "/>
<path id="18" d="M209 121 C209 121 206.0625 120.8437 206 121 C205.4581 122.3548 206.3938 126.8187 205 131 C203.6962 134.9115 201.1075 135.1236 200 139 C198.4394 144.4622 200.2061 147.1755 199 152 C198.6586 153.3654 196.4275 153.5039 196 155 C193.0711 165.2513 195.3321 169.552 191 180 C187.6436 188.0948 179 196 179 196 "/>
<path id="19" d="M209 122 C209 122 215.6865 112.8735 221 112 C244.8843 108.0738 282 110 282 110 "/>
<path id="20" d="M173 112 C173 112 164.4083 105.6174 157 105 C137.4184 103.3682 113 107 113 107 "/>
<path id="21" d="M170 160 C170 160 171.2971 157.0844 172 157 C178.8505 156.1779 192.2094 156.5147 195 157 C195.0844 157.0147 195 161 195 161 "/>
<path id="22" d="M168 166 C168 166 175.2203 164 182 164 C190.7168 164 200 166 200 166 "/>
</g>
</g>
</svg>
