<?xml version="1.0" encoding="utf-8"?>
<!DOCTYPE svg PUBLIC "-//W3C//DTD SVG 1.1//EN" "http://www.w3.org/Graphics/SVG/1.1/DTD/svg11.dtd">
<svg viewBox="0 0 800 800" preserveAspectRatio="xMinYMin meet" xmlns="http://www.w3.org/2000/svg" version="1.1">
<g fill="none" stroke="black" stroke-linecap="round" stroke-linejoin="round" stroke-width="1.4833">
<g transform="translate(87.52,184.6012) scale(2.0225) translate(-62,-49.4167)">
<path id="0" d="M102 58.4167 C102 58.4167 102.1796 88.3556 100 117.4167 C99.2151 127.8816 96.5064 128.2892 96 138.4167 C95.5486 147.4454 95.0413 152.9007 98 157.4167 C101.0793 162.1166 106.3475 163.5091 115 167.4167 C121.3564 170.2873 124.5897 167.6679 129 171.4167 C150.7852 189.9341 175 218.4167 175 218.4167 "/>
<path id="1" d="M343 57.4167 C343 57.4167 338.8661 68.0237 338 78.4167 C335.9342 103.2061 342.5356 112.5792 337 129.4167 C333.8119 139.1138 325.6807 142.6561 314 151.4167 C309.0468 155.1316 306.9323 153.1539 301 156.4167 C287.3086 163.9469 283.9882 163.4285 274 173.4167 C263.5578 183.8589 256 201.4167 256 201.4167 "/>
<path id="2" d="M179 217.4167 C179 217.4167 177.0375 216.7357 177 216.4167 C176.5139 212.285 175.5788 205.391 177 200.4167 C177.5964 198.3292 180.1764 196.2638 183 195.4167 C188.3837 193.8016 193.4243 192.9539 197 194.4167 C200.181 195.718 203.4935 199.8973 205 204.4167 C206.665 209.4118 206.4346 212.9172 205 218.4167 C203.9173 222.5669 201.5161 226.3384 199 227.4167 C195.1712 229.0576 188.1917 229.0135 184 227.4167 C181.4717 226.4535 178 219.4167 178 219.4167 "/>
<path id="3" d="M239 197.4167 C239 197.4167 233.288 195.7127 231 196.4167 C229.0552 197.0151 226.6854 199.0667 226 201.4167 C223.9216 208.5425 223.2515 216.3001 224 220.4167 C224.1643 221.3203 227.1905 223.0925 230 223.4167 C238.8543 224.4383 244.1535 225.2156 250 223.4167 C252.4735 222.6556 255.0947 219.0378 256 215.4167 C257.5247 209.3178 257.3133 204.9324 256 199.4167 C255.4919 197.2826 253.1969 195.2616 251 194.4167 C248.4613 193.4403 243 194.4167 243 194.4167 "/>
<path id="4" d="M151 61.4167 C151 61.4167 149.8674 95.3874 151 118.4167 C151.0824 120.0924 152.6896 122.1638 154 122.4167 C173.2292 126.1276 181.9698 123.9685 208 129.4167 C224.0983 132.7861 227.7456 141.3474 240 140.4167 C258.9889 138.9745 281.7918 131.5864 287 123.4167 C294.2696 112.0133 291 60.4167 291 60.4167 "/>
<path id="5" d="M291 60.4167 C291 60.4167 296.8311 67.54 302 71.4167 C303.5439 72.5746 304.5371 72.3519 307 72.4167 C323.1699 72.8422 324.2651 73.5145 340 72.4167 C344.8679 72.077 348.6535 70.7632 350 69.4167 C350.7251 68.6916 350.8965 65.1061 350 62.4167 C348.762 58.7028 347.8111 56.2439 345 54.4167 C339.9703 51.1474 337.3126 50.5961 330 49.4167 C322.5978 48.2228 319.7964 47.3599 314 49.4167 C307.1519 51.8467 306.4318 56.3911 299 60.4167 C295.4245 62.3534 290 62.4167 290 62.4167 "/>
<path id="6" d="M102 59.4167 C102 59.4167 107.0522 67.4538 111 68.4167 C122.3704 71.1899 131.0333 72.159 143 69.4167 C150.0623 67.7982 159.0095 57.4394 159 57.4167 C158.9845 57.3794 147.6295 55.6111 138 57.4167 C124.8453 59.8832 122.5277 64.0433 111 66.4167 C108.3678 66.9586 104 64.4167 104 64.4167 "/>
<path id="7" d="M206 224.4167 C206 224.4167 207.2065 222.496 208 222.4167 C214.4921 221.7675 226 222.4167 226 222.4167 "/>
<path id="8" d="M194 192.4167 C194 192.4167 193.2345 167.892 189 145.4167 C186.9237 134.3964 181 123.4167 181 123.4167 "/>
<path id="9" d="M238 196.4167 C238 196.4167 238.378 164.9358 240 141.4167 C240.0923 140.0782 242 138.4167 242 138.4167 "/>
<path id="10" d="M161 59.4167 C161 59.4167 165.6131 58.271 168 59.4167 C176.1019 63.3056 176.7912 66.9438 186 71.4167 C193.5084 75.0636 194.678 75.492 203 76.4167 C216.273 77.8915 217.7985 78.6669 231 76.4167 C260.4945 71.3892 291 61.4167 291 61.4167 "/>
<path id="11" d="M99 132.4167 C99 132.4167 90.8006 142.5406 85 153.4167 C79.0228 164.6239 76.4288 165.7667 75 177.4167 C70.3348 215.4557 74.2312 232.3238 72 259.4167 C71.9097 260.5134 68.1283 262.5065 68 262.4167 C67.1223 261.8023 62.8691 257.0518 62 252.4167 C60.2814 243.2506 60.9854 239.2096 62 230.4167 C62.2004 228.6796 63.3484 227.3801 65 226.4167 C68.329 224.4748 74 223.4167 74 223.4167 "/>
<path id="12" d="M333 142.4167 C333 142.4167 330.8263 173.6384 332 201.4167 C332.2423 207.1502 333.52 207.6935 336 213.4167 C339.9548 222.5431 339.5686 223.2695 345 231.4167 C354.2787 245.3347 357.0546 248.7832 366 258.4167 C367.0855 259.5857 370.9919 259.4458 371 259.4167 C371.3958 257.9918 373.6229 245.6625 371 240.4167 C367.7558 233.9284 361.8685 229.6132 354 225.4167 C349.7405 223.1449 341 224.4167 341 224.4167 "/>
</g>
</g>
</svg>
