<?xml version="1.0" encoding="utf-8"?>
<!DOCTYPE svg PUBLIC "-//W3C//DTD SVG 1.1//EN" "http://www.w3.org/Graphics/SVG/1.1/DTD/svg11.dtd">
<svg viewBox="0 0 800 800" preserveAspectRatio="xMinYMin meet" xmlns="http://www.w3.org/2000/svg" version="1.1">
<g fill="none" stroke="black" stroke-linecap="round" stroke-linejoin="round" stroke-width="1.1617">
<g transform="translate(87.52,263.1286) scale(2.5825) translate(-196,-177.1167)">
<path id="0" d="M207 257.1167 C207 257.1167 205 254.3517 205 252.1167 C205 242.2826 204.2788 234.5986 207 230.1167 C208.7709 227.2 214.6437 225.4718 222 224.1167 C232.5897 222.1659 233.8295 223.1167 245 223.1167 C247.4284 223.1167 248.6776 222.9595 250 224.1167 C255.0365 228.5236 259.0601 230.9987 261 237.1167 C264.3689 247.7417 265.5425 255.5822 263 265.1167 C261.0808 272.3138 255.2677 279.0675 249 282.1167 C242.39 285.3323 236.3847 284.2705 226 283.1167 C219.8499 282.4333 218.9916 281.2323 213 278.1167 C206.7933 274.8892 204.768 274.5497 201 270.1167 C197.6357 266.1586 197.1372 263.5183 196 258.1167 C195.4085 255.307 195.5193 253.2884 197 251.1167 C201.7314 244.1773 211 236.1167 211 236.1167 "/>
<path id="1" d="M263 241.1167 C263 241.1167 272.0631 238.7125 281 238.1167 C294.258 237.2328 308 238.1167 308 238.1167 "/>
<path id="2" d="M272 267.1167 L317 268.1167 "/>
<path id="3" d="M322 268.1167 C322 268.1167 312.9346 252.7356 310 240.1167 C308.6147 234.1598 310.0095 229.3188 312 225.1167 C312.9131 223.189 315.5186 222.0249 319 221.1167 C326.151 219.2512 327.4438 218.8729 335 219.1167 C342.1585 219.3476 343.6742 219.4056 350 222.1167 C356.5478 224.9229 358.9356 225.9438 363 231.1167 C368.5149 238.1357 369.8779 241.363 372 250.1167 C373.3783 255.8022 372.9641 258.879 371 264.1167 C369.2238 268.8533 367.3829 270.2494 363 274.1167 C359.5059 277.1997 358.3468 278.1507 354 279.1167 C346.1662 280.8575 341.3194 282.1758 336 280.1167 C330.5539 278.0085 323 267.1167 323 267.1167 "/>
<path id="4" d="M206 226.1167 C206 226.1167 221.6916 208.7824 239 199.1167 C258.057 188.4745 261.1023 190.1552 283 183.1167 C288.6336 181.3059 295 181.1167 295 181.1167 "/>
<path id="5" d="M264 241.1167 C264 241.1167 270.1236 229.8171 278 225.1167 C298.2468 213.0339 326 204.1167 326 204.1167 "/>
<path id="6" d="M320 230.1167 C320 230.1167 325.0998 223.7789 331 220.1167 C338.8748 215.2288 339.8554 215.6626 349 212.1167 C364.2823 206.1909 364.5717 205.2099 380 201.1167 C388.429 198.8804 398 199.1167 398 199.1167 "/>
<path id="7" d="M373 272.1167 C373 272.1167 394.6493 264.6058 411 254.1167 C419.3372 248.7683 418.1156 245.055 426 238.1167 C430.1429 234.471 433.5669 235.1581 436 232.1167 C437.8422 229.8139 437.4768 227.5635 438 223.1167 C438.4532 219.2647 438.869 218.3753 438 215.1167 C437.1238 211.8309 436.5376 210.8959 434 208.1167 C426.4909 199.8924 424.7375 194.4379 417 192.1167 C401.5251 187.4742 374 190.1167 374 190.1167 "/>
<path id="8" d="M318 207.1167 C318 207.1167 319.9199 206.477 320 206.1167 C320.4435 204.1208 320.6791 201.7387 320 198.1167 C319.2731 194.24 319.0915 191.4892 317 190.1167 C307.4851 183.8725 288 177.1167 288 177.1167 "/>
<path id="9" d="M379 191.1167 L378 196.1167 "/>
<path id="10" d="M310 194.1167 C310 194.1167 340.8778 189.7488 367 190.1167 C373.4546 190.2076 381.0234 195.1073 381 195.1167 C380.8974 195.1577 356.2822 201.2411 332 204.1167 C318.9048 205.6674 305 204.1167 305 204.1167 "/>
</g>
</g>
</svg>
