<?xml version="1.0" encoding="utf-8"?>
<!DOCTYPE svg PUBLIC "-//W3C//DTD SVG 1.1//EN" "http://www.w3.org/Graphics/SVG/1.1/DTD/svg11.dtd">
<svg viewBox="0 0 800 800" preserveAspectRatio="xMinYMin meet" xmlns="http://www.w3.org/2000/svg" version="1.1">
<g fill="none" stroke="black" stroke-linecap="round" stroke-linejoin="round" stroke-width="1.8049">
<g transform="translate(87.52,90.0132) scale(1.6621) translate(-86,-63.4167)">
<path id="0" d="M194 327.4167 C194 327.4167 164.4886 315.5092 141 314.4167 C126.7234 313.7526 124.2194 318.5509 108 323.4167 C104.4108 324.4934 103.4261 324.2938 101 326.4167 C96.3053 330.5246 93.8877 331.8795 92 337.4167 C87.2976 351.2103 88.4466 354.106 86 370.4167 C85.4948 373.7847 84.9792 374.6944 86 377.4167 C88.9714 385.3404 89.9795 386.4429 95 394.4167 C98.3306 399.7065 98.6876 400.3918 103 404.4167 C105.6704 406.909 106.3778 407.1127 110 408.4167 C118.4977 411.4758 118.9947 412.1068 128 413.4167 C146.0018 416.0351 146.702 416.1308 165 416.4167 C178.3203 416.6248 179.567 416.707 192 414.4167 C197.4155 413.4191 198.4744 412.7743 203 409.4167 C213.2619 401.803 213.9129 400.5038 223 391.4167 C224.9131 389.5036 225.4896 388.8664 226 386.4167 C227.7617 377.9606 229.3687 375.4336 228 367.4167 C226.2734 357.3039 224.1703 355.7572 219 345.4167 C216.3661 340.1489 215.26 338.405 212 335.4167 C210.8069 334.323 208.3114 335.4366 207 334.4167 C205.0329 332.8867 204.6315 328.9605 203 328.4167 C199.1931 327.1477 189 328.4167 189 328.4167 "/>
<path id="1" d="M423 342.4167 C423 342.4167 406.606 336.4167 392 336.4167 C373.6246 336.4167 368.0987 336.4293 353 342.4167 C343.6073 346.1413 342.5271 350.3394 334 359.4167 C327.3266 366.5206 327.041 367.2251 322 375.4167 C319.3137 379.7819 318.7139 380.5982 318 385.4167 C316.8543 393.1499 316.9776 394.2374 318 402.4167 C319.4209 413.7835 319.364 422.8637 323 425.4167 C331.428 431.3342 344.1179 431.3868 365 435.4167 C372.222 436.8104 372.7397 437.048 380 436.4167 C406.5858 434.1049 408.7453 434.1519 434 429.4167 C438.9939 428.4803 440.7033 427.7134 444 424.4167 C449.9341 418.4825 452.9114 415.518 455 408.4167 C456.9225 401.88 456.3778 398.0989 454 390.4167 C450.4008 378.7885 448.427 377.3803 442 366.4167 C440.3576 363.6149 438.2218 364.0129 437 361.4167 C434.7715 356.6811 436.3904 353.7194 434 349.4167 C432.2703 346.3033 430.4148 345.2554 427 343.4167 C424.8176 342.2415 421 342.4167 421 342.4167 "/>
<path id="2" d="M92 331.4167 C92 331.4167 98.7757 311.4841 109 296.4167 C116.7448 285.0033 122.4567 287.0334 130 275.4167 C146.2972 250.3189 143.5974 245.9862 159 219.4167 C163.099 212.3459 166.4183 213.4681 170 206.4167 C181.6901 183.4017 179.0908 179.1842 191 156.4167 C195.2571 148.278 199.069 146.0395 204 141.4167 C204.5466 140.9042 206.8054 141.7225 207 141.4167 C208.3807 139.2471 209.6939 130.7432 211 130.4167 C217.095 128.8929 229.3014 129.3725 243 132.4167 C249.2394 133.8032 249.5077 138.6583 256 140.4167 C271.562 144.6314 277.0184 142.4732 291 145.4167 C292.4084 145.7132 293.7478 147.1557 294 148.4167 C294.8406 152.6199 295.1352 154.8544 294 160.4167 C290.3068 178.5131 287.0784 178.9461 284 197.4167 C280.696 217.2407 281.7153 232.551 281 238.4167 C280.9958 238.4513 279.1032 238.2275 279 238.4167 C277.753 240.7028 276.5449 243.8164 275 249.4167 C264.595 287.1348 264.9758 297.2091 255 325.4167 C253.8973 328.5347 248.3718 327.8589 246 331.4167 C239.8069 340.7063 239.4423 343.359 235 355.4167 C232.608 361.9093 232 369.4167 232 369.4167 "/>
<path id="3" d="M316 384.4167 C316 384.4167 321.7014 369.5515 325 354.4167 C330.1338 330.8615 330.8264 330.3258 333 306.4167 C335.279 281.3478 332.3856 278.4222 334 255.4167 C334.1963 252.619 336.7793 252.2496 337 249.4167 C339.5225 217.0443 337.2174 213.5468 340 178.4167 C341.1873 163.4272 340.8856 157.3716 345 148.4167 C346.5941 144.9471 351.3431 142.2513 357 141.4167 C378.3965 138.2598 383.0201 137.2281 406 139.4167 C422.9267 141.0287 431.9592 143.463 441 149.4167 C444.7383 151.8785 445.689 157.9677 447 166.4167 C450.0318 185.9549 449.3979 186.945 450 207.4167 C450.8939 237.8091 447.7697 238.785 450 268.4167 C451.1893 284.2171 455.3127 284.4813 457 300.4167 C459.7422 326.3152 456.9895 327.6822 459 353.4167 C459.4249 358.8556 461.6492 359.0372 462 364.4167 C463.0968 381.2339 462.6872 386.7041 462 399.4167 C461.9586 400.1824 460 401.4167 460 401.4167 "/>
<path id="4" d="M305 247.4167 C305 247.4167 300.211 245.6363 298 246.4167 C293.8519 247.8807 289.6461 249.9979 288 253.4167 C285.0123 259.6218 284.3868 268.511 285 273.4167 C285.1484 274.604 288.0854 276.5594 291 277.4167 C295.5869 278.7658 299.0958 279.5461 302 278.4167 C304.7673 277.3405 307.4679 274.4558 309 270.4167 C312.2377 261.881 313.7743 252.0716 313 249.4167 C312.7576 248.5856 302 246.4167 302 246.4167 "/>
<path id="5" d="M287 267.4167 C287 267.4167 269.9406 264.8286 257 267.4167 C247.5102 269.3146 238.5613 278.346 237 277.4167 C232.2393 274.5829 214.539 242.9511 215 242.4167 C217.0992 239.9835 248.3439 234.9889 281 226.4167 C288.1232 224.5468 292.0534 222.89 295 221.4167 C295.1786 221.3274 294.9502 219.4253 295 219.4167 C298.3449 218.835 312.7516 216.1046 318 217.4167 C319.6911 217.8395 320.9356 225.5319 323 226.4167 C326.7293 228.0149 331.2991 225.3358 339 226.4167 C359.274 229.2621 365.6123 229.9405 380 234.4167 C381.9409 235.0205 381.6426 238.7526 384 240.4167 C388.9337 243.8993 395.2737 245.122 397 246.4167 C397.1233 246.5092 396.7359 248.9997 396 249.4167 C385.9338 255.1208 379.0907 255.2554 367 263.4167 C360.7817 267.614 358.3022 276.2812 356 276.4167 C351.6258 276.674 344.3289 268.6183 333 265.4167 C322.7747 262.5269 310 263.4167 310 263.4167 "/>
<path id="6" d="M315 251.4167 L327 218.4167 "/>
<path id="7" d="M289 250.4167 C289 250.4167 288.9296 241.7779 291 234.4167 C293.2461 226.4304 298 218.4167 298 218.4167 "/>
<path id="8" d="M218 128.4167 C218 128.4167 225.8662 116.5471 234 105.4167 C235.2174 103.7508 235.6826 102.9107 237 102.4167 C238.5968 101.8179 239.7634 101.8202 242 102.4167 C261.3245 107.5699 264.5877 108.3426 282 114.4167 C283.5946 114.9729 285.0299 116.4886 285 117.4167 C284.7099 126.4086 281 145.4167 281 145.4167 "/>
<path id="9" d="M359 141.4167 C359 141.4167 358.981 110.5538 362 106.4167 C363.5841 104.2459 374.0209 104.8603 386 104.4167 C400.9278 103.8638 414.4118 102.5637 416 104.4167 C418.1618 106.9387 416 139.4167 416 139.4167 "/>
<path id="10" d="M242 101.4167 C242 101.4167 235.675 85.3047 228 71.4167 C225.5862 67.0488 220.9563 63.4157 221 63.4167 C221.3117 63.4238 247.4674 66.2835 272 72.4167 C284.6694 75.584 284.5546 78.7741 297 82.4167 C304.3912 84.5799 308.2847 83.3072 313 84.4167 C313.421 84.5157 314.075 86.3167 314 86.4167 C313.7 86.8167 310.8743 87.251 310 88.4167 C308.6886 90.1652 309.6493 93.0866 308 94.4167 C297.3107 103.037 279 113.4167 279 113.4167 "/>
<path id="11" d="M367 105.4167 C367 105.4167 363.8372 105.554 362 104.4167 C354.3397 99.6746 352.6066 99.0233 346 92.4167 C341.281 87.6977 337.852 80.4316 338 80.4167 C340.109 80.2034 427.5022 82.87 435 83.4167 C435.0546 83.4207 434.9 86.6067 434 87.4167 C431.3587 89.7938 428.4922 89.2737 425 92.4167 C419.1279 97.7016 414 105.4167 414 105.4167 "/>
<path id="12" d="M134 282.4167 C134 282.4167 143.5602 280.0067 153 279.4167 C167.2674 278.525 167.8455 278.2843 182 279.4167 C192.406 280.2491 193.0951 280.5035 203 283.4167 C209.5945 285.3562 209.8215 287.5631 216 289.4167 C218.9223 290.2934 221.8985 288.3764 223 289.4167 C227.2572 293.4374 228.5901 299.5642 234 306.4167 C235.0864 307.7928 238 308.4167 238 308.4167 "/>
<path id="13" d="M344 314.4167 C344 314.4167 352.8772 307.9333 362 305.4167 C380.6756 300.2648 382.5043 299.4165 402 298.4167 C420.2819 297.4791 421.8533 299.0497 440 301.4167 C443.9664 301.934 446.2611 302.871 448 304.4167 C448.8875 305.2056 449 309.4167 449 309.4167 "/>
<path id="14" d="M350 168.4167 C350 168.4167 375.1474 163.975 400 161.4167 C408.8198 160.5087 410.4059 159.3792 418 161.4167 C428.9487 164.3541 441 172.4167 441 172.4167 "/>
<path id="15" d="M274 166.4167 C274 166.4167 265.0486 157.6896 256 154.4167 C243.5216 149.9032 241.0534 150.295 227 149.4167 C217.9507 148.8511 208 151.4167 208 151.4167 "/>
<path id="16" d="M136 335.4167 C136 335.4167 149.6734 334.2533 158 338.4167 C175.3619 347.0976 180.5439 351.617 194 364.4167 C197.8477 368.0767 198.277 371.2714 199 377.4167 C200.1111 386.8606 197.9751 398.3847 198 398.4167 C198.0071 398.4258 204.2268 391.9579 206 386.4167 C207.5832 381.4691 207.3558 379.1788 206 373.4167 C203.6136 363.2743 202.7103 361.8373 198 352.4167 C196.1159 348.6484 195.3486 347.1956 192 345.4167 C181.2114 339.6852 178.5796 337.5856 166 335.4167 C151.4803 332.9133 134 335.4167 134 335.4167 "/>
<path id="17" d="M376 356.4167 C376 356.4167 395.0348 353.0151 402 356.4167 C409.3016 359.9826 411.8379 366.6735 419 377.4167 C422.3965 382.5114 423.6056 383.8954 424 389.4167 C424.9529 402.7572 421.9997 419.414 422 419.4167 C422.0001 419.4178 425.885 412.5096 426 406.4167 C426.3512 387.8038 428.1204 378.8837 423 366.4167 C419.993 359.0952 411.7471 353.5407 403 350.4167 C395.6378 347.7873 389.4409 349.0427 381 351.4167 C376.3593 352.7219 371 359.4167 371 359.4167 "/>
<path id="18" d="M306 258.4167 C306 258.4167 297.9841 253.9691 295 254.4167 C292.1164 254.8492 288.0434 258.1472 286 261.4167 C284.4421 263.9092 284.554 270.11 285 270.4167 C286.5799 271.5028 299.3722 273.3364 302 272.4167 C302.9915 272.0697 305.2988 263.8276 305 263.4167 C304.5617 262.814 298.065 261.4167 294 261.4167 C292.8914 261.4167 291.1799 262.7872 291 263.4167 C290.7032 264.4553 291.4547 267.9623 292 268.4167 C292.5277 268.8564 296.8657 268.6181 297 268.4167 C297.2148 268.0944 296 262.4167 296 262.4167 "/>
<path id="19" d="M303 223.4167 L298 246.4167 "/>
<path id="20" d="M313 226.4167 C313 226.4167 306.9006 235.0041 304 242.4167 C302.9599 245.0746 304 249.4167 304 249.4167 "/>
</g>
</g>
</svg>
