<?xml version="1.0" encoding="utf-8"?>
<!DOCTYPE svg PUBLIC "-//W3C//DTD SVG 1.1//EN" "http://www.w3.org/Graphics/SVG/1.1/DTD/svg11.dtd">
<svg viewBox="0 0 800 800" preserveAspectRatio="xMinYMin meet" xmlns="http://www.w3.org/2000/svg" version="1.1">
<g fill="none" stroke="black" stroke-linecap="round" stroke-linejoin="round" stroke-width="2.0449">
<g transform="translate(87.52,240.8259) scale(1.467) translate(-35,-105.1333)">
<path id="0" d="M35 308.1333 C35 308.1333 133.0339 314.1979 149 312.1333 C149.6271 312.0522 148.7144 301.7678 151 293.1333 C152.9724 285.6822 153.826 284.8117 158 278.1333 C161.0161 273.3076 163.8671 273.7546 166 269.1333 C169.167 262.2714 167.2157 259.8674 170 252.1333 C171.4797 248.023 173.9998 247.3841 175 244.1333 C175.492 242.5342 173.6623 240.4841 174 239.1333 C174.2666 238.067 175.358 237.3964 177 236.1333 C181.7595 232.4722 182.4642 231.1177 187 229.1333 C189.0834 228.2218 190.737 230.0134 193 229.1333 C198.5528 226.9739 199.1232 224.484 205 222.1333 C208.3355 220.7991 209.7061 222.6358 213 221.1333 C236.5288 210.4009 238.1862 205.8754 262 196.1333 C269.1643 193.2025 271.9021 196.7697 279 194.1333 C287.8352 190.8517 288.6096 185.6278 297 183.1333 C304.4949 180.9051 309.7336 180.7834 316 183.1333 C321.7717 185.2977 324.3475 189.2402 329 195.1333 C330.7928 197.4042 329.1918 199.622 331 202.1333 C337.3243 210.9171 343.2459 212.1559 347 220.1333 C349.3528 225.133 345.4387 229.2188 347 236.1333 C348.618 243.2988 350.4584 245.6599 354 251.1333 C354.8321 252.4193 357.6458 252.1888 358 253.1333 C359.4926 257.1137 359.3732 264.9394 360 267.1333 C360.0246 267.2194 361.9787 267.0536 362 267.1333 C362.6196 269.4569 364.6903 275.6908 364 282.1333 C363.3681 288.0312 358.6522 294.0204 359 295.1333 C359.1862 295.7293 364.3541 298.1333 369 298.1333 C384.3314 298.1333 385.6245 295.7398 402 295.1333 C412.3675 294.7493 412.9522 296.7244 423 296.1333 C429.3222 295.7614 429.7782 293.3062 436 293.1333 C446.9113 292.8302 457.6559 296.4236 459 295.1333 C460.719 293.4831 461.5444 281.8352 461 269.1333 C460.0712 247.4617 463.1836 243.18 456 225.1333 C444.546 196.3585 440.4995 192.3415 420 166.1333 C402.2111 143.3906 398.6367 134.4108 377 124.1333 C348.0852 110.3988 337.9654 115.4609 300 109.1333 C293.7918 108.0986 292.7614 110.1809 287 109.1333 C282.689 108.3495 282.1617 105.3117 278 105.1333 C250.3399 103.9479 246.6635 103.9628 217 106.1333 C206.6225 106.8927 205.9334 107.8222 196 111.1333 C189.8647 113.1784 189.5755 113.5853 184 117.1333 C167.7861 127.4513 166.2253 128.0692 152 139.1333 C149.4897 141.0858 150.5019 143.4473 148 145.1333 C129.6956 157.4689 123.5903 156.3124 106 170.1333 C97.745 176.6194 98.8439 181.1488 92 189.1333 C90.8015 190.5315 88.9304 189.8308 88 191.1333 C84.8804 195.5008 85.4554 198.5261 82 203.1333 C80.2199 205.5068 76.7667 205.035 76 207.1333 C69.4689 225.0078 72.6022 233.8211 63 255.1333 C53.0843 277.1413 43.2293 281.0416 35 298.1333 C33.5376 301.1706 37 309.1333 37 309.1333 "/>
<path id="1" d="M445 294.1333 C445 294.1333 440.717 253.9305 433 221.1333 C431.5871 215.1286 429.627 214.3985 425 209.1333 C415.4072 198.2174 415.0846 197.7064 404 188.1333 C393.3273 178.916 391.6713 180.1878 381 171.1333 C375.4872 166.4558 376.252 163.8848 371 160.1333 C366.9244 157.2222 365.3382 156.9874 360 156.1333 C353.5795 155.106 352.6393 157.0491 346 156.1333 C338.6248 155.1161 338.0923 154.8451 331 152.1333 C321.3712 148.4517 321.2807 144.6414 312 143.1333 C284.0389 138.5897 280.9756 139.1333 251 139.1333 C234.7837 139.1333 233.8999 139.5768 218 143.1333 C196.4648 147.9504 196.2581 150.8188 175 156.1333 C168.9098 157.6559 168.1581 155.9017 162 157.1333 C156.0285 158.3276 155.2481 158.2553 150 161.1333 C140.3387 166.4314 139.6599 167.2054 131 174.1333 C127.5832 176.8668 127.0782 177.3234 125 181.1333 C118.4161 193.2038 118.4142 199.1546 113 207.1333 C111.9296 208.7107 108.1604 207.513 106 209.1333 C103.3948 211.0872 101.5676 212.9169 101 216.1333 C99.043 227.2228 103.7222 233.3381 100 243.1333 C95.9434 253.8086 90.1053 254.2871 82 266.1333 C77.3011 273.001 77.7924 273.5486 74 281.1333 C71.3054 286.5225 70.4304 286.5905 69 292.1333 C66.5822 301.5022 66 312.1333 66 312.1333 "/>
<path id="2" d="M79 310.1333 C79 310.1333 92.5422 292.5781 101 277.1333 C102.7926 273.8599 100.2117 271.3693 102 268.1333 C109.4981 254.5653 114.2275 253.7456 122 239.1333 C126.051 231.5174 123.6195 228.8163 127 221.1333 C128.6133 217.4668 131.1 217.6958 133 214.1333 C134.6889 210.9667 132.9568 208.3004 135 206.1333 C146.6214 193.8076 150.5998 190.5001 166 179.1333 C170.219 176.0193 171.6742 175.7991 177 175.1333 C186.7254 173.9177 188.6078 176.7434 198 175.1333 C204.7215 173.9811 205.084 170.4828 212 169.1333 C224.4866 166.6969 226.333 169.7184 239 167.1333 C249.9221 164.9043 250.1643 161.4013 261 159.1333 C270.7074 157.1016 272.2705 157.4847 282 158.1333 C286.276 158.4184 286.553 160.5404 291 161.1333 C300.998 162.4664 302.7759 159.6736 312 162.1333 C323.6819 165.2485 324.0671 168.9407 336 173.1333 C341.8681 175.1951 344.1185 173.235 349 175.1333 C351.4604 176.0902 351.2162 178.5094 354 180.1333 C362.5273 185.1076 364.5693 183.6781 373 189.1333 C380.9513 194.2783 381.1017 195.235 388 202.1333 C392.9274 207.0607 393.6867 207.1693 397 213.1333 C410.7595 237.9005 413.6408 242.6712 423 265.1333 C424.1296 267.8443 421.7596 272.4922 422 273.1333 C422.0473 273.2595 425.9132 272.9251 426 273.1333 C426.6464 274.6846 425.1918 280.5123 427 285.1333 C429.062 290.403 435 296.1333 435 296.1333 "/>
<path id="3" d="M397 295.1333 C397 295.1333 397.2155 290.6721 397 290.1333 C396.9655 290.0471 395.0003 290.1422 395 290.1333 C394.8848 287.1372 398.5941 274.0774 396 264.1333 C393.6425 255.0963 390.0782 253.3657 383 244.1333 C378.8271 238.6904 376.8 239.4534 373 234.1333 C369.77 229.6113 371.4397 227.0421 368 223.1333 C361.5315 215.7828 357.2081 216.4701 351 209.1333 C347.4501 204.938 349.5338 199.7837 346 197.1333 C332.1805 186.7687 325.1216 181.0982 307 176.1333 C293.3436 172.3919 289.2685 174.9274 273 177.1333 C260.633 178.8102 256.8154 180.3553 248 184.1333 C246.3808 184.8273 246.9291 187.4936 245 189.1333 C237.7627 195.2851 236.7149 197.3073 228 201.1333 C217.5765 205.7095 215.4835 203.2185 204 207.1333 C193.8292 210.6006 191.1689 210.0674 184 216.1333 C173.7958 224.7676 175.0232 230.1101 165 240.1333 C160.5711 244.5622 158.2499 242.9696 153 247.1333 C144.1196 254.1764 142.0631 254.1902 136 263.1333 C123.0935 282.1705 121.3285 285.659 113 306.1333 C110.3901 312.5494 112.5394 319.9756 112 322.1333 C111.9751 322.2329 109 322.1333 109 322.1333 "/>
</g>
</g>
</svg>
