<?xml version="1.0" encoding="utf-8"?>
<!DOCTYPE svg PUBLIC "-//W3C//DTD SVG 1.1//EN" "http://www.w3.org/Graphics/SVG/1.1/DTD/svg11.dtd">
<svg viewBox="0 0 800 800" preserveAspectRatio="xMinYMin meet" xmlns="http://www.w3.org/2000/svg" version="1.1">
<g fill="none" stroke="black" stroke-linecap="round" stroke-linejoin="round" stroke-width="2.5538">
<g transform="translate(87.52,270.7789) scale(1.1747) translate(-40,-149)">
<path id="0" d="M162 353 C162 353 166.5089 342.7005 173 336 C181.068 327.6718 182.5733 326.8196 193 321 C203.2985 315.252 204.3328 315.0991 216 312 C235.8163 306.7363 236.7008 305.4499 257 304 C291.6691 301.5236 295.0368 301.1336 328 304 C338.0726 304.8759 340.0001 306.3935 349 312 C369.3278 324.6632 370.7256 326.1392 389 342 C396.4403 348.4576 396.844 349.8111 402 358 C404.882 362.5773 406 369 406 369 "/>
<path id="1" d="M164 353 L158 363 "/>
<path id="2" d="M136 360 C136 360 140.3865 347.6485 147 339 C152.5025 331.8045 155.504 333.1798 162 326 C174.1771 312.5411 172.575 309.425 185 297 C192.6462 289.3538 194.2976 288.1897 204 284 C214.876 279.3036 216.6941 278.6626 229 278 C280.0514 275.2511 283.002 274.4682 334 277 C351.6863 277.878 353.8828 279.3116 370 285 C377.6923 287.7149 379.5173 288.8459 385 295 C402.6684 314.8319 404.5355 317.126 419 340 C425.2406 349.8689 428 363 428 363 "/>
<path id="3" d="M117 353 C117 353 121.0911 351.045 122 349 C124.2398 343.9605 122.0299 340.6702 125 335 C132.239 321.1801 135.4527 321.1216 144 307 C146.6878 302.5594 144.8968 300.379 148 297 C165.3962 278.0575 168.4478 276.0859 189 258 C192.6564 254.7824 193.37 254.5965 198 253 C207.379 249.7659 208.1351 248.7131 218 248 C248.5578 245.791 249.5021 247.3058 281 247 C300.9956 246.8059 301.1907 245.8347 321 247 C343.4311 248.3195 347.7308 245.8245 366 252 C378.6865 256.2884 380.5167 260.8291 392 271 C397.2629 275.6614 395.9704 277.7517 401 283 C407.1981 289.4676 409.5336 288.1163 415 295 C435.753 321.1334 455 351 455 351 "/>
<path id="4" d="M94 345 C94 345 93.5129 334.9227 95 326 C95.9052 320.5688 96.0324 319.6049 99 315 C109.9524 298.0049 114.2591 297.2348 124 281 C126.4253 276.9579 123.8948 273.6362 126 270 C128.2874 266.049 131.7835 266.4226 135 262 C139.2216 256.1953 137.5612 253.7897 142 248 C148.4786 239.5496 149.2873 238.0786 158 232 C169.7935 223.772 171.426 223.3116 185 218 C193.5951 214.6367 195.6466 216.8916 204 214 C207.5778 212.7615 207.7253 209.5458 211 209 C228.3488 206.1085 231.5273 206.749 252 206 C272.418 205.253 273.1358 204.6301 293 206 C301.37 206.5772 301.992 207.088 310 210 C323.6096 214.949 323.8557 218.5825 337 222 C347.1506 224.6392 348.9882 221.2022 360 223 C372.9037 225.1067 374.1648 225.2659 386 230 C393.2326 232.8931 393.7267 233.7723 400 239 C429.324 263.4367 432.8846 262.627 458 290 C475.9403 309.5529 489 336 489 336 "/>
<path id="5" d="M63 333 C63 333 66.1936 326.8467 67 321 C68.0922 313.0812 66.0147 312.1287 67 304 C67.9554 296.1176 67.5333 294.7947 71 288 C79.4001 271.5359 83.1154 267.5865 92 255 C92.5792 254.1795 94.7151 254.6268 95 254 C97.9151 247.5868 96.2076 238.9921 102 233 C120.4202 213.9446 127.168 210.9854 153 194 C162.4094 187.813 163.8179 188.2775 175 185 C192.4031 179.8991 193.2646 177.9785 211 177 C264.0484 174.0732 266.4168 175.0444 320 177 C333.8542 177.5056 336.7112 177.1963 348 182 C357.5109 186.0472 356.7408 191.9174 367 197 C409.4329 218.0218 415.5286 213.1607 457 236 C482.4371 250.0088 484.7391 253.0415 505 273 C516.4124 284.2421 513.5116 289.1142 524 302 C530.3743 309.8312 540 316 540 316 "/>
<path id="6" d="M42 326 C42 326 40 323.2497 40 321 C40 309.3013 38.0341 305.0092 42 295 C47.111 282.1008 52.8489 282.038 61 268 C70.6167 251.4378 68.6469 249.8876 78 233 C86.5335 217.5924 86.4138 215.3505 97 203 C103.0772 195.9099 105.0927 195.9274 114 191 C128.2228 183.1321 129.9333 184.7367 144 177 C149.373 174.0449 148.5932 171.7034 154 169 C175.6271 158.1864 178.352 150.8555 200 149 C274.3293 142.6289 289.0476 146.1644 364 151 C374.3413 151.6672 375.952 154.8924 386 161 C400.9457 170.0846 399.5856 174.5497 415 182 C457.8703 202.7206 462.5958 198.8208 506 219 C518.2102 224.6767 518.4689 226.1833 529 235 C539.632 243.9013 538.501 246.0009 549 255 C555.6628 260.711 559.5173 259.3478 564 265 C569.1887 271.5423 572 284 572 284 "/>
</g>
</g>
</svg>
