<?xml version="1.0" encoding="utf-8"?>
<!DOCTYPE svg PUBLIC "-//W3C//DTD SVG 1.1//EN" "http://www.w3.org/Graphics/SVG/1.1/DTD/svg11.dtd">
<svg viewBox="0 0 800 800" preserveAspectRatio="xMinYMin meet" xmlns="http://www.w3.org/2000/svg" version="1.1">
<g fill="none" stroke="black" stroke-linecap="round" stroke-linejoin="round" stroke-width="2.765">
<g transform="translate(87.52,250.27) scale(1.085) translate(-59,-76)">
<path id="0" d="M65 312 C65 312 68.87 286.0772 75 261 C79.8097 241.3241 80.14 240.7748 87 222 C89.46 215.2674 89.9049 214.9852 94 209 C102.7476 196.215 102.211 194.789 113 184 C137.03 159.97 138.7216 160.1724 165 138 C170.4257 133.4221 170.6724 133.1119 177 130 C200.7546 118.3174 201.0311 116.1865 226 108 C261.0468 96.5092 262.3247 96.8178 299 90 C339.854 82.4053 340.6889 82.3661 382 79 C407.6051 76.9137 408.5554 76.4914 434 79 C478.7142 83.4084 481.9559 84.6744 524 93 C529.5236 94.0938 531.6786 96.2322 535 99 C535.8995 99.7496 534.9411 101.8881 536 103 C552.0673 119.8706 557.0745 121.0506 575 141 C587.6795 155.111 591.4966 156.3513 598 172 C605.9756 191.1914 603.3893 194.9473 607 218 C609.8656 236.2957 607.8209 237.3383 611 255 C612.1715 261.5084 615.241 261.6751 616 268 C618.0716 285.2632 616.4772 300.164 617 305 C617.0046 305.0423 620 305 620 305 "/>
<path id="1" d="M100 313 C100 313 94.4993 294.8617 98 289 C109.4935 269.755 122.1832 265.5341 143 241 C149.6022 233.2188 147.3711 230.3655 154 223 C164.573 211.2522 165.8487 210.4689 179 201 C190.2965 192.8665 191.2691 193.4698 204 187 C221.6959 178.007 221.8575 177.3914 240 170 C248.4686 166.5498 249.6885 168.6069 258 165 C275.6415 157.3442 275.0957 154.1158 293 147 C313.4582 138.8692 315.2984 141.833 336 134 C351.8443 128.0048 351.3643 124.9003 367 119 C377.1877 115.1556 378.1391 115.4291 389 114 C396.6695 112.9909 397.2132 113.0761 405 114 C426.3312 116.5308 426.9059 116.5255 448 121 C459.6104 123.4628 460.1443 123.4768 471 128 C483.7406 133.3086 484.8503 133.1403 496 141 C514.6507 154.1472 517.9045 154.9312 532 171 C540.9914 181.2502 540.8346 184.3117 546 198 C550.5224 209.9842 548.328 211.256 552 224 C556.7898 240.6233 556.7293 240.9143 563 257 C568.1591 270.2341 570.0789 269.7906 575 283 C579.4588 294.9684 577.3321 296.3303 582 308 C586.097 318.2425 588.2571 320.8856 593 328 C593.5206 328.7808 595.9649 329.0468 596 329 C596.1403 328.813 596 324 596 324 "/>
<path id="2" d="M78 314 C78 314 82.6998 268.8469 95 231 C101.1345 212.1246 103.9029 210.0076 117 194 C138.8863 167.2501 140.3999 163.6286 167 143 C187.0168 127.4768 192.1064 128.0887 215 118 C219.438 116.0443 220.8675 118.3998 226 117 C253.1525 109.5948 253.2361 105.1046 281 100 C363.3536 84.8587 367.0403 84.649 449 76 C463.7468 74.4438 465.0568 76.3102 480 79 C489.5136 80.7125 491.7028 80.3223 499 85 C509.2784 91.5887 510.3842 93.8177 519 104 C526.4351 112.7869 526.4829 113.56 532 124 C558.7908 174.6965 555.4883 177.4506 584 227 C606.5968 266.2701 634.92 302.7808 635 303 C635.0196 303.0538 618.8646 297.712 607 290 C600.3434 285.6732 599.8353 284.1161 595 277 C573.7744 245.7624 573.5059 244.8711 554 212 C546.6382 199.594 548.8792 197.8188 541 186 C521.3019 156.4529 520.504 153.317 498 128 C490.3601 119.4051 487.821 119.9515 477 114 C468.1773 109.1475 467.4577 108.0807 458 106 C443.5766 102.8269 442.2661 103.727 427 103 C421.6312 102.7443 421.1148 102.5654 416 104 C381.0091 113.8145 380.7022 118.735 345 126 C295.9734 135.9763 293.479 131.1658 244 139 C234.4219 140.5165 233.8753 141.0152 225 145 C209.7875 151.8301 207.2648 150.8899 195 161 C171.971 179.9834 174.0144 184.8268 151 206 C124.2559 230.6046 121.7901 229.0949 95 253 C89.8532 257.5925 89.1574 258.0641 86 264 C77.098 280.7357 75.6108 281.7128 70 300 C62.4051 324.7537 59 352 59 352 "/>
</g>
</g>
</svg>
