<?xml version="1.0" encoding="utf-8"?>
<!DOCTYPE svg PUBLIC "-//W3C//DTD SVG 1.1//EN" "http://www.w3.org/Graphics/SVG/1.1/DTD/svg11.dtd">
<svg viewBox="0 0 800 800" preserveAspectRatio="xMinYMin meet" xmlns="http://www.w3.org/2000/svg" version="1.1">
<g fill="none" stroke="black" stroke-linecap="round" stroke-linejoin="round" stroke-width="2.9378">
<g transform="translate(87.52,316.7741) scale(1.0212) translate(-4,-155.4167)">
<path id="0" d="M48 301.4167 C48 301.4167 56.4176 291.9159 66 284.4167 C79.1225 274.1469 79.5324 273.8172 94 265.4167 C110.2611 255.9748 110.7147 256.0425 128 248.4167 C144.5503 241.1151 144.8347 241.3504 162 235.4167 C185.2706 227.3725 185.5527 225.259 209 220.4167 C230.448 215.9872 232.2181 219.2403 254 216.4167 C258.4929 215.8343 258.6582 213.6772 263 213.4167 C282.3917 212.2532 283.8635 211.721 304 213.4167 C330.8521 215.6779 331.5699 215.5619 358 221.4167 C410.1193 232.9621 411.9413 233.3584 462 248.4167 C471.8259 251.3724 472.4553 252.4552 481 258.4167 C493.4844 267.1267 496.3564 267.1424 505 278.4167 C517.8003 295.1128 527 318.4167 527 318.4167 "/>
<path id="1" d="M28 292.4167 C28 292.4167 37.8756 279.2321 49 268.4167 C55.4474 262.1484 56.156 262.0807 64 257.4167 C74.3931 251.237 74.6954 250.9095 86 246.4167 C113.4125 235.522 115.2731 237.4893 142 226.4167 C149.3707 223.3631 148.6734 220.5566 156 217.4167 C172.4702 210.358 173.3101 210.343 191 205.4167 C212.5853 199.4056 213.1542 197.5832 235 195.4167 C272.4837 191.6993 274.9323 189.9197 312 193.4167 C352.3456 197.2229 353.9084 199.642 394 210.4167 C433.3593 220.9945 434.9256 221.3771 472 236.4167 C486.6109 242.3437 487.5571 243.4624 500 253.4167 C524.3474 272.8946 524.85 274.2667 547 296.4167 C554.3833 303.8 553.2261 305.9297 560 313.4167 C562.2206 315.871 566 317.4167 566 317.4167 "/>
<path id="2" d="M6 293.4167 C6 293.4167 12.7737 274.4631 24 265.4167 C59.7909 236.5754 66.7587 236.2787 109 210.4167 C114.7169 206.9165 115.3883 207.4828 122 205.4167 C147.2832 197.5157 147.3307 196.703 173 190.4167 C196.1014 184.7592 196.4602 184.3075 220 181.4167 C253.0862 177.3535 253.548 177.8968 287 176.4167 C309.8914 175.4038 310.3656 174.7311 333 176.4167 C356.875 178.1946 357.489 178.655 381 183.4167 C396.6158 186.5794 397.7249 186.0349 412 192.4167 C439.2939 204.6186 438.5245 208.8481 466 221.4167 C484.9543 230.0873 487.5822 226.3136 506 235.4167 C530.0757 247.3162 531.7813 248.3511 553 264.4167 C565.6688 274.0088 566.8641 275.8548 576 288.4167 C581.9547 296.6043 585 308.4167 585 308.4167 "/>
<path id="3" d="M4 254.4167 C4 254.4167 10.1526 244.4985 18 237.4167 C30.0483 226.5438 30.9373 226.0887 45 217.4167 C60.5465 207.8297 61.0785 207.5613 78 200.4167 C105.7408 188.7039 106.0866 186.9517 135 179.4167 C187.6377 165.699 189.3852 162.6903 243 157.4167 C309.2844 150.8969 312.7374 152.5513 379 155.4167 C403.1 156.4588 405.2412 157.4824 428 165.4167 C458.2496 175.9624 460.3344 176.6197 488 193.4167 C529.1775 218.4173 531.6621 219.4845 568 250.4167 C590.6635 269.7088 589.7588 273.1669 609 296.4167 C613.2832 301.5922 616 308.4167 616 308.4167 "/>
</g>
</g>
</svg>
