<?xml version="1.0" encoding="utf-8"?>
<!DOCTYPE svg PUBLIC "-//W3C//DTD SVG 1.1//EN" "http://www.w3.org/Graphics/SVG/1.1/DTD/svg11.dtd">
<svg viewBox="0 0 800 800" preserveAspectRatio="xMinYMin meet" xmlns="http://www.w3.org/2000/svg" version="1.1">
<g fill="none" stroke="black" stroke-linecap="round" stroke-linejoin="round" stroke-width="2.3714">
<g transform="translate(87.52,183.0351) scale(1.2651) translate(-119,-16)">
<path id="0" d="M142 216 C142 216 131.9969 237.7556 128 245 C127.8799 245.2177 126.0335 244.8921 126 245 C124.3186 250.4178 120.4295 259.7046 119 274 C117.0266 293.7343 115.7386 297.0621 119 315 C121.1622 326.8923 123.9032 328.929 131 340 C135.8481 347.563 137.1671 348.807 144 354 C148.5668 357.4708 150.2641 358.3482 156 359 C170.6043 360.6596 172.7388 361.0906 188 359 C208.2067 356.232 210.3485 356.8533 229 349 C265.7168 333.5403 267.9883 333.0181 302 311 C361.9479 272.1916 359.7853 267.1311 419 226 C443.0613 209.2868 445.2565 211.9596 469 195 C504.4036 169.7117 504.3039 168.8689 538 141 C570.7042 113.9514 602 85 602 85 "/>
<path id="1" d="M146 219 C146 219 145.1592 238.8012 147 255 C147.4309 258.7923 148.4516 260.2555 151 263 C154.1234 266.3636 155.9761 268.5073 160 269 C176.5341 271.0246 180.7526 270.9526 200 269 C214.2961 267.5497 215.0044 266.3542 229 262 C237.1599 259.4614 237.2164 258.8918 245 255 C274.1385 240.4308 275.6795 241.8338 303 225 C324.4682 211.7721 322.5082 207.11 344 194 C371.7302 177.0846 374.792 180.8196 403 164 C454.8585 133.0782 458.2548 134.1213 505 98 C533.3999 76.0547 537.4097 71.3345 557 45 C564.6271 34.7471 564.7302 16.7006 566 16 C566.6515 15.6405 577.5923 21.3744 586 29 C598.3194 40.1734 600.5213 42.125 609 55 C612.6337 60.5179 612.0483 62.6245 613 70 C613.9814 77.6055 614.1815 79.502 613 86 C612.5033 88.7321 609 92 609 92 "/>
<path id="2" d="M145 247 C145 247 144.8296 240.9461 147 237 C155.0167 222.4242 155.3276 219.2977 167 207 C182.0529 191.1407 184.2752 191.0034 203 178 C219.8718 166.2835 222.9932 165.4036 239 157 C240.3616 156.2852 241.5543 157.6961 243 157 C265.5951 146.1209 267.5842 141.975 293 131 C310.925 123.2596 312.4394 125.9602 331 119 C360.2603 108.0274 360.5177 107.9465 389 95 C415.378 83.01 416.3853 83.3032 441 69 C452.6927 62.2056 451.5063 59.4371 463 52 C476.7064 43.1311 477.247 41.5324 492 36 C508.0176 29.9934 509.7172 29.9752 527 28 C543.8428 26.0751 547.809 26.3106 562 28 C565.0795 28.3666 569 33 569 33 "/>
<path id="3" d="M420 126 C420 126 421.8957 127.6435 422 129 C424.4915 161.3896 422.5397 166.8013 426 204 C428.5133 231.0181 431.3163 231.1634 434 258 C435.2733 270.7327 436.4452 272.9964 434 284 C432.0041 292.9816 425.952 294.0207 424 303 C421.5109 314.45 423.2218 317.9378 424 330 C424.119 331.8446 425.1875 333.675 426 334 C427.8055 334.7222 430.7933 335.0126 434 334 C439.1687 332.3678 439.3696 329.6635 445 328 C460.4586 323.4327 462.5305 325.2541 478 321 C481.5878 320.0134 484.8116 317.7536 485 317 C485.2294 316.0826 481.4158 312.742 481 309 C479.6214 296.5922 482.4091 290.0185 481 281 C480.7594 279.46 476 277 476 277 "/>
<path id="4" d="M433 120 C433 120 433.9029 195.6748 441 256 C441.942 264.0071 444.9281 265.8872 451 273 C461.781 285.6292 464.9173 284.2549 476 297 C484.4911 306.7648 491 319 491 319 "/>
<path id="5" d="M426 123 L431 123 "/>
<path id="6" d="M353 80 C353 80 371.0929 95.9947 390 110 C397.7922 115.772 407 120 407 120 "/>
<path id="7" d="M368 80 L412 118 "/>
<path id="8" d="M351 81 L320 67 "/>
<path id="9" d="M234 169 L289 226 "/>
<path id="10" d="M259 159 C259 159 279.2529 172.5168 296 188 C305.052 196.3688 312 208 312 208 "/>
<path id="11" d="M344 117 L384 162 "/>
<path id="12" d="M334 127 C334 127 338.8855 127.716 342 130 C352.9719 138.0461 354.5578 138.6135 364 149 C374.0145 160.016 382 174 382 174 "/>
<path id="13" d="M452 69 C452 69 460.0501 72.3246 467 77 C487.2917 90.6508 507 106 507 106 "/>
<path id="14" d="M452 78 L498 112 "/>
<path id="15" d="M321 69 C321 69 306.3581 69.9337 305 69 C304.3581 68.5587 303.4319 61.4499 305 58 C307.2161 53.1246 309.649 51.077 315 47 C319.3113 43.7152 320.7061 42.7058 326 42 C341.4883 39.9349 359.9795 40.9985 360 41 C360.0041 41.0003 353.9679 42.3546 353 44 C350.8562 47.6444 348.5339 55.8009 350 58 C354.8869 65.3304 377 80 377 80 "/>
</g>
</g>
</svg>
