<?xml version="1.0" encoding="utf-8"?>
<!DOCTYPE svg PUBLIC "-//W3C//DTD SVG 1.1//EN" "http://www.w3.org/Graphics/SVG/1.1/DTD/svg11.dtd">
<svg viewBox="0 0 800 800" preserveAspectRatio="xMinYMin meet" xmlns="http://www.w3.org/2000/svg" version="1.1">
<g fill="none" stroke="black" stroke-linecap="round" stroke-linejoin="round" stroke-width="2.0305">
<g transform="translate(87.52,276.6332) scale(1.4774) translate(-142,-65)">
<path id="0" d="M191 141 C191 141 181.8013 148.416 180 154 C178.0758 159.965 178.6991 165.5575 181 172 C182.6563 176.6376 185.275 179.375 190 182 C196.7449 185.7471 199.5618 183.6758 208 187 C215.67 190.0215 215.4359 192.6726 223 195 C233.9296 198.363 235.1181 198.6789 247 199 C308.1147 200.6517 311.9277 204.0633 371 199 C395.9083 196.865 397.4094 192.1969 422 184 C426.6839 182.4387 427.532 181.9726 431 179 C433.8713 176.5389 435.512 175.1234 436 172 C437.568 161.9649 438.6934 152.3867 436 147 C434.1146 143.2293 427.2827 140.9581 419 138 C414.3465 136.338 408 137 408 137 "/>
<path id="1" d="M188 142 C188 142 206.0052 135.0011 206 135 C205.9872 134.9972 180.5916 133.6371 165 137 C160.5063 137.9692 158.5324 140.9317 155 146 C147.6871 156.4924 144.1436 159.0873 142 170 C139.4485 182.9896 141.5747 188.1412 144 202 C144.6654 205.8021 145.9229 206.9229 149 210 C155.8644 216.8644 156.9533 220.3178 165 223 C185.9742 229.9914 190.2653 231.0987 215 232 C311.8197 235.5278 314.8546 233.3555 412 232 C420.8969 231.8759 421.4413 231.3774 430 229 C439.0637 226.4823 439.5348 226.2326 448 222 C457.2526 217.3737 458.0675 217.1698 466 211 C471.0118 207.102 471.4174 206.2361 475 201 C477.6023 197.1966 478.6306 196.2476 479 192 C480.462 175.1873 481.8582 169.2908 479 155 C477.8413 149.2064 474.5472 146.8236 469 142 C464.0302 137.6784 462.4949 137.2482 456 135 C450.2339 133.0041 449.4134 133.1258 443 133 C424.3191 132.6337 405 134 405 134 "/>
<path id="2" d="M225 65 L227 110 "/>
<path id="3" d="M226 65 C226 65 307.4831 62.4966 320 65 C320.6392 65.1278 319.6182 74.7883 321 84 C322.5694 94.4624 326 105 326 105 "/>
<path id="4" d="M229 109 L328 108 "/>
<path id="5" d="M324 77 C324 77 323.9978 79 324 79 C352.1228 79.25 549 79 549 79 "/>
<path id="6" d="M325 88 L547 88 "/>
<path id="7" d="M549 77 C549 77 549.0133 67.9867 550 67 C550.9867 66.0133 559.8587 65.6514 560 66 C561.8523 70.569 565 104 565 104 "/>
<path id="8" d="M548 88 C548 88 548.4863 104.2971 550 106 C550.9524 107.0715 564 106 564 106 "/>
<path id="9" d="M237 73 L309 73 "/>
<path id="10" d="M235 74 C235 74 235.6197 99.5457 237 100 C247.0675 103.3134 306.0746 102.8156 314 100 C314.8844 99.6858 313 73 313 73 "/>
</g>
</g>
</svg>
