<?xml version="1.0" encoding="utf-8"?>
<!DOCTYPE svg PUBLIC "-//W3C//DTD SVG 1.1//EN" "http://www.w3.org/Graphics/SVG/1.1/DTD/svg11.dtd">
<svg viewBox="0 0 800 800" preserveAspectRatio="xMinYMin meet" xmlns="http://www.w3.org/2000/svg" version="1.1">
<g fill="none" stroke="black" stroke-linecap="round" stroke-linejoin="round" stroke-width="2.0065">
<g transform="translate(87.52,338.7001) scale(1.4951) translate(-93,-147.1333)">
<path id="0" d="M93 158.1333 C93 158.1333 92.6874 172.6013 94 181.1333 C94.1962 182.4089 96.609 182.83 97 184.1333 C97.7018 186.4727 96.0584 189.2502 97 191.1333 C98.0761 193.2855 101.2676 193.5347 103 196.1333 C104.6041 198.5394 103.5275 201.2927 105 203.1333 C106.3355 204.8028 109.3765 204.3295 111 206.1333 C112.8747 208.2164 111.8603 211.4216 114 213.1333 C122.0612 219.5823 125.1739 221.4936 136 226.1333 C141.4411 228.4652 142.5631 228.071 149 228.1333 C295.844 229.5544 314.9748 235.1437 446 229.1333 C459.5608 228.5113 463.5699 222.0575 476 213.1333 C481.2778 209.3441 482.0217 207.4403 485 201.1333 C490.0911 190.3522 487.9595 188.4144 493 177.1333 C498.2661 165.3474 504.5993 157.6351 506 154.1333 C506.0397 154.034 503 152.1333 503 152.1333 "/>
<path id="1" d="M95 155.1333 C95 155.1333 101.217 160.5912 107 162.1333 C114.618 164.1648 120.0429 162.3506 125 163.1333 C125.3592 163.19 125.7351 165.1318 126 165.1333 C214.4865 165.6554 301.3493 169.0897 464 165.1333 C479.5042 164.7562 485.4056 160.6738 496 156.1333 C497.6461 155.4278 497.2219 151.5882 499 150.1333 C501.3504 148.2103 507 147.1333 507 147.1333 "/>
<path id="2" d="M97 154.1333 C97 154.1333 108.0393 156.0646 119 156.1333 C266.885 157.0605 416 156.1333 416 156.1333 "/>
<path id="3" d="M413 156.1333 C413 156.1333 469.1927 157.6357 506 156.1333 C508.0435 156.0499 511 152.1333 511 152.1333 "/>
<path id="4" d="M220 157.1333 C220 157.1333 234.7098 158.0556 237 159.1333 C237.3604 159.3029 236.6311 164.6907 237 165.1333 C237.2561 165.4407 242 165.1333 242 165.1333 "/>
<path id="5" d="M328 159.1333 C328 159.1333 332.3293 163.0704 334 166.1333 C334.6505 167.326 334 170.1333 334 170.1333 "/>
<path id="6" d="M409 158.1333 C409 158.1333 415.5233 159.3321 418 161.1333 C419.2484 162.0413 419.9977 166.1322 420 166.1333 C420.001 166.1338 420 162.1333 420 162.1333 "/>
</g>
</g>
</svg>
