<?xml version="1.0" encoding="utf-8"?>
<!DOCTYPE svg PUBLIC "-//W3C//DTD SVG 1.1//EN" "http://www.w3.org/Graphics/SVG/1.1/DTD/svg11.dtd">
<svg viewBox="0 0 800 800" preserveAspectRatio="xMinYMin meet" xmlns="http://www.w3.org/2000/svg" version="1.1">
<g fill="none" stroke="black" stroke-linecap="round" stroke-linejoin="round" stroke-width="2.7986">
<g transform="translate(87.52,349.0813) scale(1.072) translate(-6,-142.3333)">
<path id="0" d="M47 153.3333 C47 153.3333 47.5834 157.512 49 159.3333 C50.2916 160.9939 51.3716 161.3404 54 162.3333 C73.4086 169.6655 74.3971 173.6295 94 176.3333 C129.6591 181.2518 132.0348 178.526 170 178.3333 C328.8859 177.5268 340.8787 177.5021 488 174.3333 C491.2675 174.263 491.6684 171.5713 495 171.3333 C517.6615 169.7147 526.3935 173.6159 544 170.3333 C548.2469 169.5415 548.5181 164.4447 554 160.3333 C566.1384 151.2295 579.0666 143.1155 580 143.3333 C580.4067 143.4282 581.0361 156.1364 584 167.3333 C585.3393 172.393 587.8125 172.5834 589 177.3333 C590.0555 181.5555 590.4079 183.3442 589 187.3333 C585.0247 198.5968 584.5739 202.0283 577 211.3333 C568.5394 221.7278 565.6223 222.2329 554 230.3333 C549.8991 233.1915 548.6965 234.2038 544 234.3333 C481.2892 236.0633 474.7555 233.0004 409 234.3333 C402.6384 234.4623 402.3516 237.2552 396 237.3333 C283.4559 238.7171 280.3026 238.5513 165 237.3333 C138.5295 237.0537 138.1354 237.4949 112 234.3333 C76.5156 230.0409 75.8283 229.7211 41 222.3333 C26.8362 219.3289 18.1688 218.7975 13 213.3333 C7.9572 208.0023 5.1481 194.7044 6 185.3333 C6.5293 179.5114 10.5438 175.0299 17 169.3333 C26.087 161.3154 28.6317 161.0175 40 155.3333 C43.7894 153.4386 49 153.3333 49 153.3333 "/>
<path id="1" d="M50 154.3333 C50 154.3333 64.0485 152.8011 76 154.3333 C82.2704 155.1372 82.722 158.8809 89 159.3333 C135.1517 162.6596 138.5777 159.2831 187 162.3333 C201.4568 163.244 201.6439 166.8548 216 167.3333 C275.5574 169.3186 276.5492 168.4128 337 167.3333 C416.48 165.914 418.769 168.2139 496 162.3333 C514.7826 160.9032 515.7077 158.1869 534 152.3333 C540.1803 150.3556 539.9512 147.9251 546 146.3333 C558.0507 143.1621 559.3714 143.4158 572 142.3333 C576.2735 141.967 581 143.3333 581 143.3333 "/>
</g>
</g>
</svg>
