<?xml version="1.0" encoding="utf-8"?>
<!DOCTYPE svg PUBLIC "-//W3C//DTD SVG 1.1//EN" "http://www.w3.org/Graphics/SVG/1.1/DTD/svg11.dtd">
<svg viewBox="0 0 800 800" preserveAspectRatio="xMinYMin meet" xmlns="http://www.w3.org/2000/svg" version="1.1">
<g fill="none" stroke="black" stroke-linecap="round" stroke-linejoin="round" stroke-width="1.0897">
<g transform="translate(87.52,273.3561) scale(2.7531) translate(-200,-204)">
<path id="0" d="M200 280 C200 280 219.1829 261.9694 240 248 C256.5084 236.922 257.6916 237.6311 276 229 C292.534 221.2054 292.7713 219.5339 310 215 C339.2118 207.3127 340.742 206.9455 371 204 C396.3487 201.5324 423 204 423 204 "/>
<path id="1" d="M201 283 C201 283 207.2803 291.4512 212 292 C241.4299 295.4221 250.0981 294.3795 287 293 C302.8447 292.4077 303.4367 291.5495 319 288 C331.5973 285.1269 332.382 285.261 344 280 C358.3061 273.5218 358.8096 272.8782 372 264 C384.5165 255.5754 384.4936 254.9722 396 245 C406.8998 235.5535 408.526 235.6608 417 225 C423.2237 217.1701 427 206 427 206 "/>
<path id="2" d="M226 260 L227 296 "/>
<path id="3" d="M252 244 L261 291 "/>
<path id="4" d="M276 229 C276 229 282.2365 248.2696 285 267 C286.6162 277.9541 285 290 285 290 "/>
<path id="5" d="M300 219 C300 219 306.5238 236.1619 309 253 C311.3937 269.2773 310 287 310 287 "/>
<path id="6" d="M330 211 C330 211 333.2978 242.2145 338 270 C338.507 272.996 341 276 341 276 "/>
<path id="7" d="M352 209 C352 209 360.3554 223.6821 364 238 C367.014 249.8409 366 264 366 264 "/>
<path id="8" d="M382 207 C382 207 386.4823 215.9363 389 225 C391.3774 233.5587 392 243 392 243 "/>
</g>
</g>
</svg>
