<?xml version="1.0" encoding="utf-8"?>
<!DOCTYPE svg PUBLIC "-//W3C//DTD SVG 1.1//EN" "http://www.w3.org/Graphics/SVG/1.1/DTD/svg11.dtd">
<svg viewBox="0 0 800 800" preserveAspectRatio="xMinYMin meet" xmlns="http://www.w3.org/2000/svg" version="1.1">
<g fill="none" stroke="black" stroke-linecap="round" stroke-linejoin="round" stroke-width="1.8049">
<g transform="translate(87.52,295.286) scale(1.6621) translate(-74,-180)">
<path id="0" d="M91 186 C91 186 91.9415 209.4494 91 214 C90.9246 214.3643 85.8813 214.5594 85 215 C84.8644 215.0678 85 217 85 217 "/>
<path id="1" d="M447 184 C447 184 444.6248 193.2522 444 202 C443.6594 206.7684 443.7249 207.6645 445 212 C446.0128 215.4436 449 219 449 219 "/>
<path id="2" d="M93 184 C93 184 104.1421 193.368 116 198 C134.8672 205.37 136.3947 205.2153 157 209 C184.9169 214.1276 185.6059 214.2254 214 216 C241.1891 217.6993 242.3533 219.2248 269 216 C319.5315 209.8847 320.4096 207.8408 371 197 C404.2159 189.8823 404.7562 186.9385 437 180 C443.0175 178.7051 450 180 450 180 "/>
<path id="3" d="M90 217 C90 217 95.8396 218.1197 100 221 C120.9023 235.4708 120.1235 240.2811 142 253 C161.6603 264.4304 164.3176 266.6635 186 271 C216.4282 277.0856 219.0302 274.0158 252 275 C285.9075 276.0122 290.0798 281.1254 320 275 C348.3022 269.2058 349.9736 262.835 379 249 C403.3603 237.389 405.3427 237.8742 427 224 C435.8807 218.3108 436.9142 216.0076 443 208 C445.4378 204.7924 445.5313 203.3744 446 199 C446.9553 190.0836 446 180 446 180 "/>
<path id="4" d="M170 195 C170 195 162.4327 207.9952 153 219 C135.7068 239.1754 133.5543 237.9881 116 258 C108.7766 266.2347 105.4315 273.9738 103 276 C102.7829 276.1809 100.176 273.2176 98 273 C91.8825 272.3883 86.1298 271.7831 83 274 C78.9487 276.8696 76.789 282.5626 74 290 C72.8484 293.0709 73.0332 296.0663 74 298 C74.846 299.692 77.232 301.2619 80 302 C83.5253 302.9401 85.7013 301.0575 89 302 C91.2515 302.6433 91.7613 305.4403 94 306 C98.1043 307.0261 101.1431 307.6713 105 306 C113.6371 302.2572 121.3888 296.7536 124 293 C124.7881 291.8671 123.4085 285.8902 121 283 C117.5317 278.8381 112.9608 278.6561 109 275 C108.0412 274.115 107.5404 271.6893 108 271 C111.1251 266.3124 113.9098 263.1233 121 257 C135.617 244.3762 139.2112 246.073 152 233 C160.403 224.4102 161.824 221.701 166 211 C169.0078 203.2926 168 192 168 192 "/>
</g>
</g>
</svg>
