<?xml version="1.0" encoding="utf-8"?>
<!DOCTYPE svg PUBLIC "-//W3C//DTD SVG 1.1//EN" "http://www.w3.org/Graphics/SVG/1.1/DTD/svg11.dtd">
<svg viewBox="0 0 800 800" preserveAspectRatio="xMinYMin meet" xmlns="http://www.w3.org/2000/svg" version="1.1">
<g fill="none" stroke="black" stroke-linecap="round" stroke-linejoin="round" stroke-width="2.3329">
<g transform="translate(87.52,313.843) scale(1.2859) translate(-46,-158.6333)">
<path id="0" d="M47 198.6333 C47 198.6333 74.725 201.6017 102 200.6333 C158.7477 198.6186 159.027 195.5802 216 192.6333 C245.9031 191.0866 246.3817 193.1522 276 191.6333 C284.9538 191.1742 285.0389 189.0316 294 188.6333 C351.8847 186.0607 353.9741 188.6347 411 185.6333 C418.8904 185.218 419.1582 182.0355 427 181.6333 C457.0024 180.0947 458.3967 183.3821 489 181.6333 C510.3941 180.4108 530.8893 175.189 532 175.6333 C532 175.6333 528.9512 186.3767 524 195.6333 C517.6735 207.4612 517.8294 208.8229 509 218.6333 C491.559 238.0122 489.9617 239.2362 470 255.6333 C462.9831 261.3972 461.7871 261.9224 453 264.6333 C416.0461 276.034 414.0257 278.245 376 284.6333 C353.2073 288.4625 351.7625 283.956 328 285.6333 C309.5355 286.9367 309.3649 290.0457 291 290.6333 C247.5252 292.0245 246.8327 291.2689 203 289.6333 C180.0228 288.776 176.0928 288.6283 157 285.6333 C154.6957 285.2719 154.6518 282.6598 152 281.6333 C140.2171 277.0722 138.2471 278.7363 126 273.6333 C114.7271 268.9363 113.188 268.9838 104 261.6333 C91.7299 251.8173 93.1275 248.2449 81 237.6333 C73.6615 231.2121 71.4867 232.8722 64 226.6333 C56.9425 220.7521 55.2003 219.8672 51 212.6333 C47.1204 205.9517 46 195.6333 46 195.6333 "/>
<path id="1" d="M262 189.6333 C262 189.6333 257.0323 190.714 257 190.6333 C256.4706 189.3097 255.7579 175.3112 256 174.6333 C256.0022 174.6271 261.1542 175.5458 262 176.6333 C262.9868 177.9021 261.6775 182.0904 263 183.6333 C265.7652 186.8594 270.1069 190.1255 274 190.6333 C277.751 191.1226 281.7984 189.5745 286 186.6333 C290.2584 183.6524 293.1904 176.8824 294 176.6333 C294.2305 176.5624 299.1586 181.8401 299 182.6333 C298.6637 184.3149 291 191.6333 291 191.6333 "/>
<path id="2" d="M252 158.6333 C252 158.6333 259.57 162.2777 265 167.6333 C295.3153 197.5334 294.3436 200.3601 325 230.6333 C333.9803 239.5013 336.426 238.4166 345 246.6333 C347.5985 249.1235 347.3304 252.8542 349 253.6333 C351.5274 254.8128 354.8827 252.7804 360 253.6333 C366.3579 254.693 367.4892 254.5538 373 257.6333 C383.628 263.5725 383.3577 266.506 394 272.6333 C399.1361 275.5905 406.0233 276.5973 406 276.6333 C405.8272 276.9004 393.8008 286.5131 383 289.6333 C374.1189 292.199 371.717 288.7644 361 289.6333 C353.5745 290.2354 352.3498 293.0713 346 292.6333 C339.8426 292.2087 333.8182 290.0576 332 287.6333 C330.1525 285.17 328.9164 276.8005 331 272.6333 C335.3827 263.8679 350.2124 253.1625 350 251.6333 C349.7879 250.1065 336.0575 245.5304 326 236.6333 C311.0434 223.4025 311.0823 218.3309 298 205.6333 C296.2115 203.8975 293.6645 205.3771 292 203.6333 C275.5506 186.4006 256 161.6333 256 161.6333 "/>
</g>
</g>
</svg>
