<?xml version="1.0" encoding="utf-8"?>
<!DOCTYPE svg PUBLIC "-//W3C//DTD SVG 1.1//EN" "http://www.w3.org/Graphics/SVG/1.1/DTD/svg11.dtd">
<svg viewBox="0 0 800 800" preserveAspectRatio="xMinYMin meet" xmlns="http://www.w3.org/2000/svg" version="1.1">
<g fill="none" stroke="black" stroke-linecap="round" stroke-linejoin="round" stroke-width="2.1505">
<g transform="translate(87.52,339.3175) scale(1.395) translate(-40,-186)">
<path id="0" d="M126 206 C126 206 155.0847 199.5381 184 198 C248.3909 194.575 249.8052 198.8085 314 196 C328.9122 195.3476 329.1048 192.4603 344 191 C354.259 189.9942 354.8961 192.1749 365 191 C375.8648 189.7367 387 186 387 186 "/>
<path id="1" d="M132 262 C132 262 169.1836 268.7128 206 272 C224.6803 273.6679 225.291 273.5273 244 272 C273.8621 269.5623 274.9635 270.3979 304 264 C333.1321 257.5811 332.8854 252.6777 362 246 C386.652 240.3459 413 239 413 239 "/>
<path id="2" d="M385 186 C385 186 400.0856 186.5718 414 190 C434.0477 194.9393 433.9777 198.4003 454 203 C470.2646 206.7365 488 207 488 207 "/>
<path id="3" d="M410 240 C410 240 431.2819 236.1307 450 229 C461.84 224.4895 461.4732 221.123 473 216 C478.7412 213.4484 482.5078 214.4966 486 213 C486.5587 212.7605 487 210 487 210 "/>
<path id="4" d="M128 205 C128 205 103.3618 207.0817 80 212 C65.8835 214.9719 64.9691 215.4881 52 221 C45.7243 223.6672 40 229 40 229 "/>
<path id="5" d="M141 263 C141 263 121.2721 262.2491 105 257 C91.9104 252.7775 92.3076 248.3697 79 243 C64.4384 237.1243 62.7983 238.9328 48 234 C45.3885 233.1295 44.3114 232.53 43 231 C42.1257 229.98 42 227 42 227 "/>
<path id="6" d="M164 205 C164 205 166.0883 227.8335 170 250 C172.0433 261.5787 176 273 176 273 "/>
<path id="7" d="M370 192 L370 238 "/>
</g>
</g>
</svg>
