<?xml version="1.0" encoding="utf-8"?>
<!DOCTYPE svg PUBLIC "-//W3C//DTD SVG 1.1//EN" "http://www.w3.org/Graphics/SVG/1.1/DTD/svg11.dtd">
<svg viewBox="0 0 800 800" preserveAspectRatio="xMinYMin meet" xmlns="http://www.w3.org/2000/svg" version="1.1">
<g fill="none" stroke="black" stroke-linecap="round" stroke-linejoin="round" stroke-width="1.3537">
<g transform="translate(87.52,207.1932) scale(2.2162) translate(-140,-191)">
<path id="0" d="M421 235 C421 235 421.8126 240.6663 421 245 C420.4668 247.844 419.8825 248.3226 418 251 C397.6801 279.8994 398.3627 282.9102 376 309 C366.5859 319.9831 364.4452 319.3645 352 328 C340.149 336.2231 339.9802 337.3101 327 343 C304.2044 352.9926 302.0406 353.3612 279 360 C274.2088 361.3805 273.0681 359.1186 268 360 C262.1507 361.0173 261.8179 363.6409 256 364 C223.1924 366.0252 217.7275 365.4209 187 365 C185.2061 364.9754 183 363 183 363 "/>
<path id="1" d="M422 240 L421 216 "/>
<path id="2" d="M420 216 C420 216 421.1923 210.4067 420 207 C418.2181 201.9089 413 196 413 196 "/>
<path id="3" d="M183 364 C183 364 174.4802 358.1808 168 351 C156.3142 338.0509 146 323 146 323 "/>
<path id="4" d="M146 320 C146 320 164.3935 321.6984 179 320 C183.6836 319.4554 183.8359 316.4949 189 315 C220.9935 305.7387 223.4008 308.9683 255 298 C282.9852 288.2861 283.2442 286.6455 310 273 C333.008 261.2659 333.5848 261.1841 355 247 C371.7129 235.9304 371.4255 234.9298 387 222 C397.8565 212.9871 400.3084 212.294 408 203 C410.6392 199.811 411 193 411 193 "/>
<path id="5" d="M147 316 C147 316 158.9169 317.0356 166 314 C173.6946 310.7023 173.5285 306.6477 182 301 C207.758 283.828 210.35 284.8441 235 268 C239.0675 265.2205 238.0349 263.1721 242 260 C252.5933 251.5254 253.2412 251.3095 265 244 C271.5498 239.9285 271.7763 239.3703 279 237 C303.1992 229.0597 304.9648 231.5188 329 223 C343.8518 217.7361 343.2049 214.2218 358 209 C376.5388 202.4569 379.2404 205.1615 397 199 C402.1973 197.1968 402.1294 194.292 407 192 C409.737 190.712 414 191 414 191 "/>
<path id="6" d="M150 315 C150 315 140.0486 315.9149 140 316 C139.9814 316.0326 146 322 146 322 "/>
<path id="7" d="M360 209 C360 209 369.3352 213.7258 378 219 C380.6745 220.628 381.8184 221.3458 383 223 C383.4682 223.6554 383 226 383 226 "/>
<path id="8" d="M348 218 L372 231 "/>
<path id="9" d="M351 219 L342 216 "/>
<path id="10" d="M308 229 C308 229 320.3454 236.9123 331 246 C337.0334 251.1461 342 258 342 258 "/>
<path id="11" d="M294 233 L322 266 "/>
<path id="12" d="M250 255 C250 255 251.2012 260.6415 254 264 C260.4296 271.7155 264.0944 271.3227 270 279 C273.0443 282.9576 274 290 274 290 "/>
<path id="13" d="M265 247 C265 247 268.5417 247.2797 269 248 C270.5396 250.4193 269.5104 253.9691 272 258 C279.3763 269.9425 290 282 290 282 "/>
<path id="14" d="M219 281 L231 302 "/>
<path id="15" d="M205 287 L218 309 "/>
<path id="16" d="M415 193 L413 195 "/>
</g>
</g>
</svg>
