<?xml version="1.0" encoding="utf-8"?>
<!DOCTYPE svg PUBLIC "-//W3C//DTD SVG 1.1//EN" "http://www.w3.org/Graphics/SVG/1.1/DTD/svg11.dtd">
<svg viewBox="0 0 800 800" preserveAspectRatio="xMinYMin meet" xmlns="http://www.w3.org/2000/svg" version="1.1">
<g fill="none" stroke="black" stroke-linecap="round" stroke-linejoin="round" stroke-width="1.8337">
<g transform="translate(87.52,317.3809) scale(1.636) translate(-93,-165)">
<path id="0" d="M111 204 C111 204 114.1327 198.9336 118 197 C133.4691 189.2655 135.2466 188.6902 153 183 C173.9179 176.2955 174.8751 173.3484 196 172 C266.1215 167.5242 273.2532 162.7103 341 171 C385.737 176.4742 389.1697 184.4156 433 201 C442.9833 204.7775 442.2191 208.5753 452 213 C462.4768 217.7395 474.7862 219.5011 475 220 C475.1015 220.2368 468.32 228.4368 461 234 C456.6032 237.3415 455.4605 237.8055 450 239 C440.3207 241.1174 439.0291 238.9009 429 241 C418.0127 243.2997 417.9773 245.8045 407 248 C396.0227 250.1955 394.9909 247.7189 384 250 C369.0414 253.1046 368.5354 258.3619 354 259 C270.3126 262.6741 263.6205 261.9324 179 259 C165.827 258.5435 164.515 256.9079 152 252 C139.7572 247.1989 139.2265 246.4209 128 239 C110.0247 227.118 96.2702 216.4882 93 213 C92.927 212.9222 95.8478 208.0761 98 207 C99.8831 206.0584 102.7121 207.9805 105 207 C108.1283 205.6593 112 201 112 201 "/>
<path id="1" d="M151 184 L155 255 "/>
<path id="2" d="M166 179 C166 179 165.0919 194.553 167 209 C168.5066 220.4074 171.6003 220.6028 173 232 C175.0121 248.384 174 266 174 266 "/>
<path id="3" d="M252 170 C252 170 251.0339 179.2375 252 186 C252.3278 188.2944 254.5118 188.5588 255 191 C256.7786 199.8928 256.5525 201.0061 257 211 C258.0479 234.4033 258 258 258 258 "/>
<path id="4" d="M277 165 C277 165 281.1638 179.1193 282 193 C283.625 219.9755 282.4209 220.6428 282 248 C281.9234 252.9817 281.0013 257.996 281 258 C280.9995 258.0014 280 254 280 254 "/>
<path id="5" d="M363 176 C363 176 370.0902 192.2972 372 208 C374.4237 227.9282 372.0776 248.9648 372 250 C371.9967 250.0437 369 248 369 248 "/>
<path id="6" d="M386 180 C386 180 386.0082 250.8201 386 251 C385.9994 251.0123 383 246 383 246 "/>
</g>
</g>
</svg>
