<?xml version="1.0" encoding="utf-8"?>
<!DOCTYPE svg PUBLIC "-//W3C//DTD SVG 1.1//EN" "http://www.w3.org/Graphics/SVG/1.1/DTD/svg11.dtd">
<svg viewBox="0 0 800 800" preserveAspectRatio="xMinYMin meet" xmlns="http://www.w3.org/2000/svg" version="1.1">
<g fill="none" stroke="black" stroke-linecap="round" stroke-linejoin="round" stroke-width="1.1761">
<g transform="translate(87.52,169.1474) scale(2.5509) translate(-105,-179.8167)">
<path id="0" d="M105 352.8167 C105 352.8167 105.9859 339.9466 110 328.8167 C116.7097 310.2125 116.7175 308.74 127 291.8167 C140.2169 270.0639 141.4216 269.4094 158 249.8167 C168.5227 237.3807 169.4586 237.2679 182 226.8167 C190.135 220.0375 190.6663 219.928 200 214.8167 C211.4048 208.5712 211.7322 208.2615 224 203.8167 C245.9499 195.8638 246.3516 194.7993 269 189.8167 C295.7372 183.9345 296.6864 184.8943 324 181.8167 C331.8177 180.9358 340 181.8167 340 181.8167 "/>
<path id="1" d="M105 354.8167 C105 354.8167 124.9158 360.0919 144 360.8167 C163.4045 361.5535 165.4824 362.1073 184 357.8167 C204.7983 352.9975 206.7046 351.8307 226 341.8167 C245.1692 331.8681 247.8263 329.0296 263 316.8167 C265.773 314.5847 264.2192 311.7611 267 308.8167 C288.3416 286.2197 292.2532 286.6346 314 262.8167 C323.1985 252.7421 323.1573 251.7281 330 239.8167 C336.4447 228.5981 336.9203 228.0556 341 215.8167 C346.7508 198.5642 350 181.1917 350 179.8167 C350 179.7403 341 181.8167 341 181.8167 "/>
<path id="2" d="M124 298.8167 C124 298.8167 133.8629 308.1669 140 318.8167 C150.3698 336.8113 158 357.8167 158 357.8167 "/>
<path id="3" d="M149 255.8167 C149 255.8167 163.9956 268.6576 176 282.8167 C183.0196 291.0962 182.7132 294.7676 188 301.8167 C188.6137 302.6349 190.7508 302.2002 191 302.8167 C196.9096 317.4351 207 348.8167 207 348.8167 "/>
<path id="4" d="M197 222.8167 C197 222.8167 219.7539 252.0967 229 265.8167 C229.3331 266.311 227.6621 268.1892 228 268.8167 C232.2655 276.7383 236.4946 279.9275 243 291.8167 C250.8505 306.1642 257 321.8167 257 321.8167 "/>
<path id="5" d="M244 196.8167 C244 196.8167 254.3327 208.8616 262 221.8167 C268.5613 232.903 266.7617 234.3798 273 245.8167 C278.6333 256.1445 280.5915 255.6006 286 265.8167 C289.3492 272.143 291 279.8167 291 279.8167 "/>
<path id="6" d="M297 188.8167 C297 188.8167 307.3684 204.0667 314 219.8167 C319.0308 231.7649 321 245.8167 321 245.8167 "/>
</g>
</g>
</svg>
