<?xml version="1.0" encoding="utf-8"?>
<!DOCTYPE svg PUBLIC "-//W3C//DTD SVG 1.1//EN" "http://www.w3.org/Graphics/SVG/1.1/DTD/svg11.dtd">
<svg viewBox="0 0 800 800" preserveAspectRatio="xMinYMin meet" xmlns="http://www.w3.org/2000/svg" version="1.1">
<g fill="none" stroke="black" stroke-linecap="round" stroke-linejoin="round" stroke-width="1.4353">
<g transform="translate(87.52,206.6595) scale(2.0902) translate(-147,-146)">
<path id="0" d="M183 186 C183 186 184.6599 191.9918 188 196 C201.4392 212.127 201.3799 216.2576 218 228 C244.9527 247.0427 248.6236 246.6192 280 261 C295.8831 268.2798 297.4313 270.0815 314 272 C342.6529 275.3177 346.2993 274.7012 375 272 C386.6463 270.9039 387.9819 269.4315 399 264 C422.78 252.2775 445.9775 237.0143 446 237 C446.0023 236.9985 441.8597 236.9668 440 238 C438.5185 238.823 437.7898 239.8735 437 242 C431.6388 256.4339 433.2268 258.3806 427 273 C421.9604 284.8322 421.7783 286.5718 414 296 C406.2736 305.3653 404.5495 307.5369 394 313 C378.5388 321.0067 376.1361 320.0538 358 325 C343.3904 328.9844 342.836 330.0727 328 331 C295.7636 333.0148 293.267 333.4871 262 331 C251.3139 330.15 249.8662 328.8184 240 324 C229.195 318.7232 226.8507 318.3741 219 310 C205.8329 295.9551 206.0724 293.439 195 276 C186.1942 262.1308 185.6384 261.9364 179 247 C167.8066 221.8149 167.3309 221.2944 159 195 C151.4595 171.2003 147 146.3154 147 146 C147 145.9421 154.5269 149.6323 159 155 C176.0684 175.482 174.9711 178.3268 192 200 C196.716 206.0021 198.4084 207.8433 203 211 C204.2368 211.8503 208 211 208 211 "/>
</g>
</g>
</svg>
