<?xml version="1.0" encoding="utf-8"?>
<!DOCTYPE svg PUBLIC "-//W3C//DTD SVG 1.1//EN" "http://www.w3.org/Graphics/SVG/1.1/DTD/svg11.dtd">
<svg viewBox="0 0 800 800" preserveAspectRatio="xMinYMin meet" xmlns="http://www.w3.org/2000/svg" version="1.1">
<g fill="none" stroke="black" stroke-linecap="round" stroke-linejoin="round" stroke-width="1.4785">
<g transform="translate(87.52,141.2909) scale(2.0291) translate(-142,-119)">
<path id="0" d="M252 229 C252 229 319.4659 173.2908 384 125 C389.9944 120.5144 391.7959 119.8645 399 119 C415.0398 117.0752 419.7292 116.5709 434 119 C439.4481 119.9273 442.9124 122.7545 446 127 C449.1212 131.2917 449.3051 134.2831 450 141 C450.7181 147.9419 450.4423 150.5194 449 156 C448.5226 157.8143 445.868 157.9746 445 160 C443.3507 163.8483 444.6171 166.9968 443 170 C442.169 171.5433 439.02 171.3972 438 173 C436.47 175.4042 437.5114 177.4734 436 181 C434.6836 184.0715 433.9825 185.2653 432 187 C430.9551 187.9142 428.7133 187.1282 428 188 C425.6476 190.8752 425.9522 194.2427 423 198 C421.153 200.3507 418.9074 199.6157 417 202 C413.5753 206.2808 414.6537 209.5386 411 213 C406.6319 217.1382 403.3868 215.7354 398 220 C392.0443 224.715 393.2263 227.2484 387 232 C356.08 255.5968 353.4926 254.2833 322 278 C313.3728 284.497 313.8645 286.9229 306 293 C303.8492 294.6619 302.3639 293.3422 300 295 C265.6817 319.0674 265.0473 325.3716 229 347 C212.2814 357.0312 207.5467 352.7427 190 361 C183.57 364.0259 184.1442 367.0063 178 371 C174.6954 373.148 173.7524 373.7114 170 374 C161.8288 374.6286 157.4282 375.2966 152 373 C148.3963 371.4754 146.969 368.0473 144 363 C142.3493 360.1937 142.1949 359.4105 142 356 C141.233 342.5773 141.7513 331.4822 142 328 C142.0013 327.9822 143.906 328.1881 144 328 C146.2569 323.4863 147.1014 315.7801 152 308 C154.4783 304.0639 157.4163 304.9819 161 301 C166.0078 295.4358 164.9113 293.3431 170 288 C174.3585 283.4236 175.2993 283.5629 181 280 C187.1906 276.1309 188.1964 277.1109 194 273 C199.844 268.8605 199.0777 266.5164 205 263 C214.2112 257.5308 217.2308 259.1966 226 254 C229.3794 251.9974 228.5416 249.2696 232 247 C243.4871 239.4616 245.9925 241.005 258 233 C269.5544 225.297 268.5383 222.9965 280 215 C289.7417 208.2035 291.7084 209.4326 301 203 C303.9021 200.9909 303.1849 198.4502 306 197 C317.714 190.9655 327.6506 188.948 334 186 C334.1781 185.9173 333.8713 184.046 334 184 C339.5585 182.0148 348.2666 178.1128 362 176 C373.2758 174.2653 375.6991 174.4393 386 176 C390.188 176.6345 392.0084 178.0084 395 181 C397.9916 183.9916 398.9919 185.7658 400 190 C401.1872 194.986 401.1634 196.8811 400 202 C398.9203 206.7505 398.2171 207.7105 395 212 C382.1314 229.1581 381.4973 231.8398 367 246 C361.5966 251.2778 357.1805 250.4384 352 254 C351.2261 254.5321 351.6328 256.7003 351 257 C345.5528 259.5803 340.4937 258.4726 333 263 C317.7889 272.1901 303 286 303 286 "/>
</g>
</g>
</svg>
