<?xml version="1.0" encoding="utf-8"?>
<!DOCTYPE svg PUBLIC "-//W3C//DTD SVG 1.1//EN" "http://www.w3.org/Graphics/SVG/1.1/DTD/svg11.dtd">
<svg viewBox="0 0 800 800" preserveAspectRatio="xMinYMin meet" xmlns="http://www.w3.org/2000/svg" version="1.1">
<g fill="none" stroke="black" stroke-linecap="round" stroke-linejoin="round" stroke-width="0.68164">
<g transform="translate(87.52,289.9718) scale(4.4011) translate(-203,-246)">
<path id="0" d="M227,277C227,277 229.160608996395,278.9264243598558 231,279C263.0270433568868,280.28108173427546 281.7473597488145,281.8653747599776 302,280C303.6385509648389,279.8490808321859 305.58071002777984,275.69015392777237 307,272C307.7151461100334,270.14062011391314 307.7003745866135,268.26067425590434 307,267C306.0506033381461,265.291086008663 304.4320796972101,263.5472179318723 302,263C287.10866456581106,259.6494495273075 284.4092938590322,259.0005341298294 267,258C241.3453923719018,256.52559726275296 239.98054026548974,257.15320202489863 215,258C211.60466581137248,258.1150960741908 211.06482240616057,258.60689890629066 208,260C205.92155721881065,260.94474671872245 204.48898318163924,261.63084709141014 204,263C202.74599474386068,266.51121471719005 201.6370494958594,270.5926237396485 203,274C205.3658763468101,279.91469086702523 208.28977557926257,284.8276530995903 214,288C222.61601909637895,292.78667727576606 226.60954879184058,292.9781071168528 239,294C274.07204143029355,296.89253949940564 276.2287425292024,296.7813765723775 311,296C319.2584451300879,295.8144169633688 320.6997715868622,295.1286693199162 328,292C333.6284203795948,289.58781983731654 336.48178637239795,288.2957761882623 339,284C343.27315009361586,276.7105086638317 346.35131531498626,266.5342092853487 345,263C343.53607507543154,259.1712732742056 335.15105002124596,252.321908214346 326,250C305.88484051554763,244.8961535636464 301.8644155073787,246.9674763043532 278,246C265.1370532576671,245.47852918612165 252,247 252,247"/>
</g>
</g>
</svg>
