<?xml version="1.0" encoding="utf-8"?>
<!DOCTYPE svg PUBLIC "-//W3C//DTD SVG 1.1//EN" "http://www.w3.org/Graphics/SVG/1.1/DTD/svg11.dtd">
<svg viewBox="0 0 800 800" preserveAspectRatio="xMinYMin meet" xmlns="http://www.w3.org/2000/svg" version="1.1">
<g fill="none" stroke="black" stroke-linecap="round" stroke-linejoin="round" stroke-width="1.1281">
<g transform="translate(87.52,219.1605) scale(2.6594) translate(-179,-210.1333)">
<path id="0" d="M281 290.1333 C281 290.1333 285.4703 284.4009 291 281.1333 C328.3293 259.0751 329.8475 256.8116 369 238.1333 C383.0268 231.4416 399.9125 229.1833 400 229.1333 C400.0201 229.1219 394.8878 226.4388 390 226.1333 C364.0614 224.5122 354.7664 216.6284 336 225.1333 C269.009 255.4938 257.6676 272.2219 187 318.1333 C182.3274 321.1691 180.3954 323.1215 179 327.1333 C177.342 331.9001 177.7448 336.3638 179 341.1333 C179.5662 343.285 181.8483 345.5671 184 346.1333 C188.7696 347.3885 192.1058 347.256 198 346.1333 C201.2679 345.5109 201.7455 342.6757 205 342.1333 C212.2165 340.9306 217.6065 343.731 222 342.1333 C224.044 341.3901 223.8663 336.3354 227 334.1333 C240.1725 324.877 244.7655 325.0807 259 316.1333 C260.8122 314.9942 260.2626 313.032 262 312.1333 C272.8616 306.5153 276.2187 307.7423 288 301.1333 C295.9584 296.6689 295.0177 294.1223 303 289.1333 C322.6454 276.8549 323.1999 276.5334 344 266.1333 C354.8953 260.6857 355.9491 262.4038 367 257.1333 C388.2546 246.9965 390.1891 246.3398 409 235.1333 C411.927 233.3896 412.8784 231.8252 414 229.1333 C414.8325 227.1353 414.822 223.864 414 223.1333 C409.8559 219.4497 405.0613 216.8145 396 213.1333 C389.7495 210.5941 388.8542 210.3442 382 210.1333 C357.2096 209.3705 352.4157 207.8386 331 211.1333 C324.5592 212.1242 323.3207 217.1393 317 220.1333 C315.2696 220.953 313.5158 219.2159 312 220.1333 C297.7751 228.7432 295.835 232.4496 279 243.1333 C270.0349 248.8227 268.5864 247.2046 260 253.1333 C248.0279 261.3998 247.6395 264.7957 237 272.1333 C235.0286 273.4929 231 273.1333 231 273.1333 "/>
</g>
</g>
</svg>
