<?xml version="1.0" encoding="utf-8"?>
<!DOCTYPE svg PUBLIC "-//W3C//DTD SVG 1.1//EN" "http://www.w3.org/Graphics/SVG/1.1/DTD/svg11.dtd">
<svg viewBox="0 0 800 800" preserveAspectRatio="xMinYMin meet" xmlns="http://www.w3.org/2000/svg" version="1.1">
<g fill="none" stroke="black" stroke-linecap="round" stroke-linejoin="round" stroke-width="0.72965">
<g transform="translate(87.52,260.2063) scale(4.1116) translate(-236,-197)">
<path id="0" d="M279 201 C279 201 267.6078 198.7974 261 201 C254.1475 203.2842 252.1786 205.8214 246 212 C240.2967 217.7033 237.6856 219.8195 236 226 C234.1129 232.9194 234.7556 237.5186 237 245 C238.5583 250.1943 240.5362 252.5507 245 256 C250.0418 259.8959 252.026 260.5735 259 262 C273.0209 264.8679 274.0449 264.5958 289 265 C329.2698 266.0884 337.0674 269.0326 370 265 C377.5092 264.0805 382.9936 258.3419 387 253 C389.0639 250.2481 389.0533 245.4238 388 241 C387.0661 237.0777 385.6187 235.4679 382 232 C374.2266 224.5505 372.0193 219.3987 364 218 C337.2553 213.3352 327.4174 216.5696 296 217 C293.6768 217.0318 292.5143 217.4857 291 219 C286.0243 223.9757 281 230.5178 281 232 C281 232.7981 286.42 237.8126 291 239 C297.59 240.7085 308 239 308 239 "/>
<path id="1" d="M277 202 C277 202 289.933 197.409 302 197 C318.2518 196.4491 336 200 336 200 "/>
</g>
</g>
</svg>
