<?xml version="1.0" encoding="utf-8"?>
<!DOCTYPE svg PUBLIC "-//W3C//DTD SVG 1.1//EN" "http://www.w3.org/Graphics/SVG/1.1/DTD/svg11.dtd">
<svg viewBox="0 0 800 800" preserveAspectRatio="xMinYMin meet" xmlns="http://www.w3.org/2000/svg" version="1.1">
<g fill="none" stroke="black" stroke-linecap="round" stroke-linejoin="round" stroke-width="2.1841">
<g transform="translate(87.52,303.1655) scale(1.3735) translate(-58,-175)">
<path id="0" d="M86 286 L459 287 "/>
<path id="1" d="M87 287 L87 251 "/>
<path id="2" d="M459 287 C459 287 456.0812 285.1634 456 284 C454.9883 269.4995 456.7335 248.89 456 244 C455.9835 243.89 450 244 450 244 "/>
<path id="3" d="M87 251 C87 251 89.3948 247.8684 92 247 C105.849 242.3837 108.5126 244.2401 123 239 C131.2304 236.023 131.2279 232.8786 139 230 C143.571 228.3071 145.7795 230.7266 150 229 C155.2798 226.8401 155.6892 223.5156 161 221 C164.0428 219.5587 166.7284 221.5901 169 220 C174.5093 216.1435 178.2742 210.9648 181 207 C181.2966 206.5685 180 204 180 204 "/>
<path id="4" d="M343 193 C343 193 348.4003 194.1005 349 195 C349.6996 196.0495 348.2089 201.4247 349 202 C353.4357 205.2259 364.2242 206.7651 371 211 C372.4104 211.8815 371.4911 215.4911 373 217 C375.6405 219.6405 377.5099 220.8775 382 222 C392.4038 224.6009 395.3035 221.6062 405 225 C413.4064 227.9422 414.231 232.7131 422 236 C425.229 237.3661 427.0218 235.0055 431 236 C440.1719 238.293 450 243 450 243 "/>
<path id="5" d="M180 206 C180 206 180.8409 196.6896 180 188 C179.3791 181.584 176.8555 175.0118 177 175 C189.0863 174.0118 313.6563 172.5274 339 175 C339.5571 175.0544 341 191 341 191 "/>
<path id="6" d="M86 275 C86 275 80.1829 285.7649 73 295 C66.4002 303.4854 57.956 310.7362 58 311 C58.0163 311.0977 67.0367 312.8899 76 313 C269.4608 315.3767 272.2093 317.3235 465 316 C488.8108 315.8365 513 310 513 310 "/>
<path id="7" d="M458 274 C458 274 489.2323 290.9458 509 304 C510.4801 304.9774 511.0344 308.9313 511 309 C510.9914 309.0172 507 308 507 308 "/>
</g>
</g>
</svg>
