<?xml version="1.0" encoding="utf-8"?>
<!DOCTYPE svg PUBLIC "-//W3C//DTD SVG 1.1//EN" "http://www.w3.org/Graphics/SVG/1.1/DTD/svg11.dtd">
<svg viewBox="0 0 800 800" preserveAspectRatio="xMinYMin meet" xmlns="http://www.w3.org/2000/svg" version="1.1">
<g fill="none" stroke="black" stroke-linecap="round" stroke-linejoin="round" stroke-width="0.48963">
<g transform="translate(283.5859,87.52) scale(6.1271) translate(-221,-154.4167)">
<path id="0" d="M231 160.4167 C231 160.4167 223.6468 183.1832 221 205.4167 C218.7652 224.189 219.2355 227.4772 221 244.4167 C221.4308 248.552 223.2607 251.2252 226 253.4167 C228.7842 255.644 234.2289 257.3022 236 256.4167 C240.4798 254.1768 244.0793 249.3109 250 241.4167 C254.2373 235.7669 256.0701 234.6161 257 228.4167 C260.1306 207.5459 261.107 202.7881 259 181.4167 C257.8796 170.0524 253.1562 160.3098 250 157.4167 C248.6595 156.1879 235 159.4167 235 159.4167 "/>
<path id="1" d="M241 154.4167 C241 154.4167 242.9493 195.8213 241 234.4167 C240.5309 243.7049 236 253.4167 236 253.4167 "/>
</g>
</g>
</svg>
