<?xml version="1.0" encoding="utf-8"?>
<!DOCTYPE svg PUBLIC "-//W3C//DTD SVG 1.1//EN" "http://www.w3.org/Graphics/SVG/1.1/DTD/svg11.dtd">
<svg viewBox="0 0 800 800" preserveAspectRatio="xMinYMin meet" xmlns="http://www.w3.org/2000/svg" version="1.1">
<g fill="none" stroke="black" stroke-linecap="round" stroke-linejoin="round" stroke-width="1.5937">
<g transform="translate(87.52,316.2328) scale(1.8824) translate(-170,-160)">
<path id="0" d="M215 163 C215 163 204.8506 164.6232 198 169 C188.1808 175.2734 185.9133 176.8645 179 186 C173.093 193.8057 172.3922 196.4313 170 206 C168.2798 212.8808 167.4395 218.3421 170 222 C176.9774 231.9677 184.6546 239.6785 198 246 C208.3123 250.8848 227 249 227 249 "/>
<path id="1" d="M229 249 L469 243 "/>
<path id="2" d="M469 243 C469 243 473.2044 243.1981 476 242 C479.4407 240.5254 480.6213 240.0047 483 237 C489.4309 228.8767 489.8488 227.7602 495 218 C499.208 210.027 500.9959 208.8324 502 201 C503.2199 191.4845 502.9998 186.384 500 179 C498.0974 174.3167 494.6012 172.3098 489 169 C484.769 166.4999 478 166 478 166 "/>
<path id="3" d="M214 176 C214 176 241.5868 177.6508 268 176 C280.8703 175.1956 281.1216 171.4814 294 171 C386.5114 167.5416 482 168 482 168 "/>
<path id="4" d="M214 176 C214 176 207.386 179.4052 203 184 C197.4179 189.8479 194.9039 191.4228 193 198 C190.2627 207.456 189.9358 214.2019 192 222 C193.0999 226.1551 197.1402 230.2554 202 232 C212.8842 235.9071 231 236 231 236 "/>
<path id="5" d="M231 236 C231 236 293.7624 238.0949 352 236 C360.75 235.6853 361.3671 231.4887 370 231 C386.4729 230.0676 405 233 405 233 "/>
<path id="6" d="M215 164 L412 160 "/>
</g>
</g>
</svg>
