<?xml version="1.0" encoding="utf-8"?>
<!DOCTYPE svg PUBLIC "-//W3C//DTD SVG 1.1//EN" "http://www.w3.org/Graphics/SVG/1.1/DTD/svg11.dtd">
<svg viewBox="0 0 800 800" preserveAspectRatio="xMinYMin meet" xmlns="http://www.w3.org/2000/svg" version="1.1">
<g fill="none" stroke="black" stroke-linecap="round" stroke-linejoin="round" stroke-width="1.4881">
<g transform="translate(87.52,158.08) scale(2.016) translate(-109,-165.1333)">
<path id="0" d="M388 219.1333 C388 219.1333 406.4794 240.8638 416 261.1333 C420.3863 270.4718 420.6465 279.096 419 285.1333 C418.1283 288.3296 412.6996 292.566 407 294.1333 C395.7584 297.2248 379 296.1333 379 296.1333 "/>
<path id="1" d="M414 283.1333 L398 283.1333 "/>
<path id="2" d="M386 249.1333 C386 249.1333 384.2847 260.8815 385 262.1333 C385.3536 262.7521 393.6014 263.3825 394 263.1333 C394.1309 263.0515 393.9388 258.6354 393 257.1333 C392.3623 256.1131 389 255.1333 389 255.1333 "/>
<path id="3" d="M371 242.1333 C371 242.1333 368.0366 255.3362 365 261.1333 C364.3666 262.3426 362.4123 262.7313 360 263.1333 C356.8338 263.661 354.0468 264.1103 353 263.1333 C349.8497 260.1931 345 249.1333 345 249.1333 "/>
<path id="4" d="M385 219.1333 C385 219.1333 385.9117 207.6921 384 198.1333 C382.6293 191.2799 381.9082 189.8807 378 184.1333 C374.0053 178.2588 372.9189 177.231 367 173.1333 C360.6898 168.7647 359.1664 167.0433 352 166.1333 C330.2932 163.3769 325.2328 163.9959 304 165.1333 C300.3624 165.3282 298.9429 166.6432 296 169.1333 C293.1764 171.5226 291.8858 172.701 291 176.1333 C288.3531 186.3902 288 200.1332 288 200.1333 C288 200.1334 289.1247 195.3828 288 193.1333 C285.1078 187.349 283.1289 183.3627 278 180.1333 C272.495 176.6672 269.3885 177.092 261 176.1333 C252.3506 175.1448 249.7422 174.7287 243 176.1333 C240.3624 176.6828 238.7286 178.2935 237 181.1333 C232.4309 188.6396 231.1545 190.5153 229 199.1333 C227.4918 205.166 228.0805 207.6166 229 213.1333 C229.2955 214.9066 232 217.1334 232 217.1333 C231.9999 217.1332 228.2379 211.8099 224 209.1333 C219.6083 206.3596 218.5792 206.4547 213 205.1333 C199.8384 202.0161 199.3881 201.373 186 200.1333 C172.8376 198.9146 171.1699 198.3524 159 200.1333 C152.2939 201.1147 148.5093 202.1853 145 206.1333 C139.3132 212.531 137.6739 216.924 135 227.1333 C132.593 236.3238 132.2887 239.8212 134 248.1333 C135.2054 253.9883 138.0621 257.6587 142 261.1333 C144.1771 263.0543 151.0139 263.116 151 263.1333 C150.9424 263.2053 141.1084 266.8683 134 271.1333 C132.2392 272.1898 131.3347 273.2588 131 275.1333 C129.2025 285.1996 127.3242 290.7544 129 299.1333 C129.9089 303.6778 133.3053 306.0254 138 310.1333 C140.4261 312.2562 141.4658 312.4057 145 313.1333 C157.9086 315.791 161.5105 318.353 172 317.1333 C178.7387 316.3498 182.3496 313.2701 188 308.1333 C191.7386 304.7346 193.9416 297.1333 194 297.1333 C194.0292 297.1333 194.2699 304.3633 197 308.1333 C203.4321 317.0157 205.3394 319.1294 215 326.1333 C224.3262 332.8948 226.6372 333.6791 237 337.1333 C241.4412 338.6137 243.8957 338.1594 248 337.1333 C250.2387 336.5737 251.4858 335.4046 253 333.1333 C255.9596 328.694 257.0611 327.391 258 322.1333 C259.3421 314.6178 258 305.1334 258 305.1333 C258 305.1333 257.1942 312.3412 259 316.1333 C261.2479 320.8538 263.1251 322.0281 268 326.1333 C272.2122 329.6804 273.1748 330.8342 278 332.1333 C284.7585 333.9529 290.6352 335.1522 294 333.1333 C299.5498 329.8035 303.8927 322.6414 308 314.1333 C309.5946 310.8303 308 304.1333 308 304.1333 C308 304.1333 306.7526 309.5138 308 312.1333 C310.7695 317.9493 312.7277 322.2834 318 325.1333 C327.532 330.2858 331.7227 330.068 345 332.1333 C353.5084 333.4569 361.0786 334.1828 363 332.1333 C367.9244 326.8806 375 300.1333 375 300.1333 "/>
<path id="5" d="M322 328.1333 C322 328.1333 320.6581 374.4998 321 376.1333 C321.0208 376.2327 326.6046 372.1675 331 371.1333 C333.6604 370.5074 337.7069 371.5471 338 372.1333 C338.8468 373.827 339.6207 382.1865 338 385.1333 C336.373 388.0915 328.7577 392.702 327 392.1333 C321.2002 390.2569 306.485 379.3957 304 374.1333 C302.6941 371.3679 308.5308 365.1119 310 356.1333 C312.9018 338.3999 312.9701 320.2093 313 319.1333 C313.0009 319.1027 311 320.1333 311 320.1333 "/>
<path id="6" d="M218 334.1333 C218 334.1333 219.6698 353.0494 219 371.1333 C218.6899 379.5049 215.3945 387.3415 216 388.1333 C216.5038 388.7921 230.1779 387.5639 232 388.1333 C232.1779 388.1889 232.7705 391.4639 232 393.1333 C230.3405 396.7289 228.1904 399.9539 226 401.1333 C224.6269 401.8727 221.1727 401.3184 219 400.1333 C217.0629 399.0767 215.2666 395.05 215 395.1333 C213.3458 395.6503 208.027 403.1662 203 405.1333 C199.6487 406.4447 193.257 405.1808 192 404.1333 C191.0971 403.3809 190.2927 396.5478 191 395.1333 C191.5408 394.0517 198 392.1358 198 392.1333 C198 392.1333 191.8375 392.8871 191 392.1333 C189.6719 390.9381 187.7848 383.3485 188 383.1333 C188.502 382.6313 199.4715 383.5663 201 382.1333 C202.7684 380.4755 203.5097 375.0951 204 368.1333 C205.9713 340.1415 206.3579 321.512 206 311.1333 C205.9928 310.9259 202 310.1333 202 310.1333 "/>
<path id="7" d="M131 271.1333 C131 271.1333 129.3754 265.7752 128 265.1333 C125.0437 263.7537 118.4103 262.8648 116 264.1333 C113.3133 265.5474 109.8129 271.4752 109 275.1333 C108.5899 276.9786 111.0789 281.9031 112 282.1333 C115.1995 282.9332 129 280.1333 129 280.1333 "/>
</g>
</g>
</svg>
