<?xml version="1.0" encoding="utf-8"?>
<!DOCTYPE svg PUBLIC "-//W3C//DTD SVG 1.1//EN" "http://www.w3.org/Graphics/SVG/1.1/DTD/svg11.dtd">
<svg viewBox="0 0 800 800" preserveAspectRatio="xMinYMin meet" xmlns="http://www.w3.org/2000/svg" version="1.1">
<g fill="none" stroke="black" stroke-linecap="round" stroke-linejoin="round" stroke-width="2.429">
<g transform="translate(87.52,188.7981) scale(1.2351) translate(-95,-40.1333)">
<path id="0" d="M112 181.1333 C112 181.1333 111.2495 170.6636 113 161.1333 C115.6425 146.7464 114.2853 140.4468 121 132.1333 C130.555 120.3033 140.2548 117.8292 155 109.1333 C156.55 108.2192 159.1516 108.3348 160 109.1333 C164.5916 113.4548 170.9551 124.997 172 125.1333 C172.6902 125.2234 177.1455 117.6797 183 112.1333 C186.1982 109.1035 186.8494 109.2086 191 107.1333 C197.7201 103.7733 198.612 102.522 205 101.1333 C208.6658 100.3364 212.6068 100.7402 214 102.1333 C216.7864 104.9197 218.5051 109.4062 220 116.1333 C221.2674 121.8367 220 129.1333 220 129.1333 C220 129.1333 219.2182 125.0651 220 122.1333 C221.0126 118.336 221.742 115.9075 224 114.1333 C226.7128 112.0019 229.5755 113.2155 234 111.1333 C237.6263 109.4269 238.8393 108.5641 241 106.1333 C241.9413 105.0744 241.3895 102.4182 242 102.1333 C245.2798 100.6028 251.8599 98.1397 256 99.1333 C260.1027 100.118 263.7024 103.1869 267 108.1333 C271.5763 114.9978 273.9832 126.1207 274 126.1333 C274.0066 126.1383 273.8708 119.7794 275 114.1333 C275.796 110.1533 276.2191 108.6775 278 106.1333 C278.8464 104.9242 279.9836 104.503 282 104.1333 C308.6212 99.2528 320.071 93.8707 338 95.1333 C343.1767 95.4979 348.1744 102.163 353 109.1333 C355.7858 113.1572 355.9996 121.1344 356 121.1333 C356.0007 121.1312 354.3419 109.2526 356 100.1333 C357.0336 94.4486 358.3766 92.7919 362 88.1333 C364.6571 84.717 367.0654 82.5526 370 82.1333 C374.1652 81.5383 378.5301 82.2048 383 85.1333 C390.9098 90.3156 391.1827 94.7374 399 101.1333 C401.052 102.8123 404.0486 101.8014 405 103.1333 C407.2486 106.2814 408.976 115.0012 409 115.1333 C409.0026 115.1475 407.0333 114.3999 407 114.1333 C406.8168 112.6674 406.736 109.0293 408 107.1333 C409.5937 104.7427 411.4299 103.7994 415 102.1333 C418.4171 100.5387 421.6105 100.8281 423 100.1333 C423.1544 100.0561 422.9365 98.148 423 98.1333 C424.8203 97.7133 430.4898 96.1129 436 97.1333 C442.4976 98.3366 447.4741 99.395 450 103.1333 C456.2795 112.427 460.993 134.122 461 134.1333 C461.0024 134.1373 460.1875 121.9458 461 121.1333 C461.8125 120.3208 471.6268 119.9467 474 121.1333 C475.2779 121.7723 477.4759 126.9919 477 129.1333 C476.2501 132.5077 470.3072 139.1333 470 139.1333 C469.7367 139.1333 464 129.1333 464 129.1333 C464.007 129.1292 474.2647 133.3925 475 136.1333 C477.5124 145.4977 476.9686 154.1037 475 170.1333 C473.6186 181.3822 472.8724 182.7241 468 193.1333 C462.2478 205.4221 461.2722 208.0053 453 217.1333 C448.4479 222.1564 439.4709 225.0661 439 225.1333 C438.9733 225.1371 438.154 220.1486 439 219.1333 C441.0211 216.708 443.9562 214.6168 449 213.1333 C459.7937 209.9587 469.6709 208.6212 473 209.1333 C473.4599 209.2041 475.2106 213.9749 475 217.1333 C474.8073 220.0241 473.1795 223.886 472 224.1333 C456.0915 227.469 418.9462 230.2341 413 230.1333 C412.988 230.1331 413 223.1333 413 223.1333 C413 223.1333 413.5149 240.6053 412 256.1333 C411.6204 260.0239 410.994 261.1423 409 264.1333 C407.5377 266.3267 406.0672 267.838 404 268.1333 C398.1163 268.9739 388.0185 267.1272 388 267.1333 C387.9933 267.1356 395.0189 271.132 395 271.1333 C394.6091 271.16 315.4679 275.726 256 276.1333 C253.0177 276.1538 249.4532 273.7951 249 272.1333 C246.734 263.8246 247 243.1334 247 243.1333 C247 243.1333 248.1447 249.0807 247 252.1333 C245.8235 255.2707 244.0168 258.0775 241 259.1333 C227.9868 263.6879 223.8095 263.8705 207 266.1333 C198.3409 267.299 197.6153 267.2379 189 266.1333 C178.642 264.8054 172.5292 263.8902 168 261.1333 C166.5913 260.2759 166 256.1708 166 252.1333 C166 248.5445 166.8355 245.8801 168 244.1333 C168.4575 243.4471 171.9603 243.0638 172 243.1333 C172.2472 243.5659 172.6567 250.7186 172 251.1333 C169.2023 252.9003 158.721 254.8733 153 255.1333 C152.1459 255.1722 150 252.8829 150 252.1333 C150 250.1345 153 244.1333 153 244.1333 C153 244.1333 151.4321 252.0181 151 252.1333 C149.7524 252.466 143.7222 250.8582 138 248.1333 C133.8318 246.1485 132.0407 245.3644 130 242.1333 C127.1334 237.5945 126.2169 229.2056 126 229.1333 C125.8698 229.0899 121.8233 236.4511 118 238.1333 C112.2842 240.6483 105.7971 241.1762 101 240.1333 C98.8218 239.6598 95.9881 236.2624 95 233.1333 C93.6669 228.9118 93.9902 226.435 95 221.1333 C95.8215 216.8205 98.8244 212.309 99 212.1333 C99.0135 212.1198 101.0019 215.1338 101 215.1333 C100.9951 215.1321 95.1507 212.4897 95 211.1333 C93.6795 199.2489 94.7514 189.6943 96 170.1333 C96.1863 167.2144 96.8941 165.101 98 164.1333 C99.0487 163.2157 102.8006 162.3758 104 163.1333 C108.7388 166.1263 117 176.1333 117 176.1333 "/>
<path id="1" d="M160 255.1333 C160 255.1333 153.8327 270.0972 150 285.1333 C147.4372 295.1876 149.1702 297.0908 147 306.1333 C146.5284 308.0984 144.257 308.2918 144 310.1333 C141.7076 326.5619 139.7852 345.4889 141 349.1333 C141.1705 349.6448 154.9562 350.5317 157 349.1333 C158.5194 348.0937 158.9736 338.3572 160 336.1333 C160.0988 335.9193 162.9844 336.2172 163 336.1333 C164.2287 329.5289 164.7216 313.2135 168 293.1333 C168.4856 290.1592 170.6834 289.9827 171 287.1333 C172.5052 273.5864 170.8399 266.414 172 257.1333 C172.0915 256.4017 175 255.1333 175 255.1333 "/>
<path id="2" d="M193 266.1333 C193 266.1333 192 301.6884 192 337.1333 C192 349.1147 192.5973 357.9117 193 361.1333 C193.0042 361.1667 194.067 361.3199 195 361.1333 C198.9188 360.3496 199.9681 360.9168 203 359.1333 C207.5285 356.4695 207.626 352.8829 212 351.1333 C218.0233 348.724 227.6876 350.1123 228 349.1333 C229.9644 342.9782 229.3153 325.6326 227 304.1333 C225.9403 294.2929 222.7808 294.055 221 284.1333 C219.3795 275.1048 220 265.1333 220 265.1333 "/>
<path id="3" d="M389 272.1333 C389 272.1333 390.5703 304.5039 394 336.1333 C395.0327 345.657 397.1829 345.7369 398 355.1333 C399.1402 368.2462 397.9898 382.0987 398 382.1333 C398.0032 382.1443 400.0791 376.2225 403 372.1333 C404.6295 369.852 405.3771 369.2377 408 368.1333 C414.1546 365.5419 418.3689 366.4028 422 364.1333 C423.2654 363.3425 424 360.9517 424 358.1333 C424 327.6011 424.3888 325.2121 422 293.1333 C420.923 278.6707 420.7966 275.5231 417 264.1333 C415.8445 260.6669 410 257.1333 410 257.1333 "/>
<path id="4" d="M433 229.1333 C433 229.1333 432.3617 236.2355 434 242.1333 C437.1463 253.4601 440.8351 253.8761 443 265.1333 C445.5554 278.4214 441.9935 281.4256 444 294.1333 C444.6737 298.3998 448.1049 298.658 449 303.1333 C453.2247 324.2568 450.2525 335.1546 455 349.1333 C456.0946 352.3562 464.6745 356.7147 467 356.1333 C472.3884 354.7862 486.0898 345.0473 487 341.1333 C488.1892 336.0197 483.3447 324.0923 477 313.1333 C473.8178 307.6368 467.9135 308.232 465 303.1333 C461.4939 296.9977 464.1634 293.4581 461 285.1333 C454.8903 269.0553 451.3826 269.2812 446 253.1333 C441.1993 238.7311 440 222.1333 440 222.1333 "/>
<path id="5" d="M480 150.1333 C480 150.1333 489.8734 145.8895 497 140.1333 C502.0826 136.0281 501.3185 132.0593 506 129.1333 C511.1607 125.9079 521 125.1333 521 125.1333 "/>
<path id="6" d="M448 102.1333 C448 102.1333 454.2124 100.2452 459 97.1333 C463.7708 94.0323 463.5361 90.7088 468 89.1333 C477.9716 85.6139 480.8066 86.1494 493 85.1333 C498.2544 84.6955 504 86.1333 504 86.1333 "/>
<path id="7" d="M496 57.1333 C496 57.1333 497.6855 66.0342 501 71.1333 C503.152 74.4441 507.2625 73.9256 509 77.1333 C512.4821 83.5618 509.9412 87.4667 514 95.1333 C522.7767 111.7116 523.6521 118.0492 536 128.1333 C548.8819 138.6535 555.8815 138.6636 574 144.1333 C580.3455 146.0489 585.7318 145.916 589 144.1333 C591.9513 142.5235 594.3611 137.7523 596 132.1333 C597.4006 127.3313 595.1594 124.3365 596 120.1333 C596.2522 118.8724 598.6469 118.4279 599 117.1333 C599.7398 114.4209 599.4 109.9333 599 109.1333 C598.9 108.9333 595.0446 109.285 595 109.1333 C594.3441 106.9031 595.5401 100.0905 594 92.1333 C592.6593 85.2063 592.7348 83.7356 589 78.1333 C581.5304 66.9289 579.7923 65.5759 570 56.1333 C566.6344 52.888 565.6257 53.2359 561 51.1333 C554.7329 48.2847 554.3322 46.9249 548 46.1333 C531.6757 44.0928 526.6703 43.5438 513 45.1333 C509.5915 45.5297 507.998 47.6357 505 51.1333 C499.5037 57.5456 495 66.1333 495 66.1333 "/>
<path id="8" d="M555 62.1333 C555 62.1333 547.782 63.3513 545 66.1333 C540.6282 70.5051 538.1475 75.0841 537 80.1333 C536.4691 82.4693 539.9978 88.1297 540 88.1333 C540.0007 88.1344 539.9572 85.139 540 85.1333 C541.591 84.9212 551.4012 87.6056 555 86.1333 C557.7355 85.0142 559.708 81.0039 562 76.1333 C563.288 73.3963 563.5254 69.7901 563 69.1333 C562.1356 68.0529 554 66.1333 554 66.1333 "/>
<path id="9" d="M549 75.1333 L550 79.1333 "/>
<path id="10" d="M511 45.1333 C511 45.1333 506.7442 75.0065 510 95.1333 C511.3027 103.1864 515.5689 106.0898 522 113.1333 C524.9355 116.3484 527.3973 117.0248 531 118.1333 C532.2623 118.5217 534.9894 117.3461 535 117.1333 C535.3449 110.2355 536.7503 96.1814 533 78.1333 C529.1076 59.4013 519 40.1333 519 40.1333 "/>
<path id="11" d="M597 107.1333 C597 107.1333 592.1371 107.3337 590 109.1333 C584.1457 114.0633 578.0518 122.8918 578 123.1333 C577.994 123.1614 582.9498 122.2528 587 123.1333 C593.7895 124.6093 601 128.1333 601 128.1333 "/>
</g>
</g>
</svg>
