<?xml version="1.0" encoding="utf-8"?>
<!DOCTYPE svg PUBLIC "-//W3C//DTD SVG 1.1//EN" "http://www.w3.org/Graphics/SVG/1.1/DTD/svg11.dtd">
<svg viewBox="0 0 800 800" preserveAspectRatio="xMinYMin meet" xmlns="http://www.w3.org/2000/svg" version="1.1">
<g fill="none" stroke="black" stroke-linecap="round" stroke-linejoin="round" stroke-width="2.6114">
<g transform="translate(87.52,273.6294) scale(1.1488) translate(-54,-204)">
<path id="0" d="M598 404 C598 404 593.6902 400.4193 590 399 C588.1406 398.2849 585 399 585 399 "/>
<path id="1" d="M89 269 C89 269 88.2376 250.9612 89 238 C89.0767 236.6965 89.8241 236.2935 91 235 C94.7275 230.8998 94.8574 228.7575 99 227 C109.0149 222.7512 111.7784 222.0721 124 221 C139.2791 219.6597 140.4475 219.8548 156 222 C183.3504 225.7725 183.7974 229.3509 211 233 C224.0051 234.7446 226.1343 235.5889 238 233 C251.4558 230.0642 252.4962 222.7032 266 221 C304.0918 216.1956 308.0369 218.275 349 219 C363.8472 219.2628 365.4726 219.135 379 223 C388.494 225.7126 389.8715 227.1939 398 233 C403.0192 236.5852 402.0915 238.7927 407 243 C412.2677 247.5151 414.269 246.1477 419 251 C433.0067 265.3659 438.8303 268.4045 446 283 C450.0378 291.2198 445.5494 297.1205 447 308 C447.3117 310.3375 449.3992 310.4965 450 313 C452.1764 322.0685 453.2875 324.375 453 333 C452.8536 337.392 451.8139 339.2481 449 343 C445.0497 348.2671 441.4861 347.5771 438 353 C433.4053 360.1473 435.5299 367.1564 431 371 C423.9863 376.951 417.5816 378.6261 405 381 C392.8185 383.2984 391.2526 382.0194 378 381 C365.5781 380.0445 363.1451 381.8189 353 377 C326.1663 364.254 323.6414 361.536 298 343 C282.9218 332.1001 284.602 327.728 270 317 C261.2122 310.5437 259.4501 310.6883 249 307 C243.161 304.9392 241.9748 307.0292 236 305 C216.1553 298.2603 214.7576 292.8059 196 289 C183.5976 286.4836 179.031 287.5999 167 291 C158.8171 293.3126 158.4638 298.7085 150 302 C141.9781 305.1196 137.0437 307.2536 131 305 C114.3296 298.7839 105.971 291.9087 91 280 C88.0115 277.6228 87 270 87 270 "/>
<path id="2" d="M179 282 C179 282 183.6 319.8005 182 355 C181.1796 373.0499 176.657 373.7332 174 392 C172.7468 400.6156 172.8768 408.8108 174 410 C175.0018 411.0608 186.6036 410.4885 191 410 C191.3161 409.9649 191.9732 408.9096 192 408 C192.4219 393.657 190.6934 391.3531 192 376 C192.6264 368.6399 195.2124 368.482 196 361 C199.1369 331.1997 200 300 200 300 "/>
<path id="3" d="M299 303 C299 303 301.9882 327.5152 303 352 C304.4825 387.8773 302.2473 417.184 304 424 C304.0575 424.2237 320.4924 423.1166 321 422 C322.5701 418.5458 318.2064 406.2113 319 391 C321.1685 349.4377 325.9816 337.5532 327 307 C327.0705 304.885 323.7691 301.283 322 301 C316.1585 300.0654 302 303 302 303 "/>
<path id="4" d="M371 382 C371 382 369.9544 390.8441 371 399 C372.3926 409.8622 374.7285 417.0038 376 421 C376.0343 421.1078 377.9134 421.1732 378 421 C379.2127 418.5746 381.5089 414.7291 382 409 C382.9116 398.3641 381 386 381 386 "/>
<path id="5" d="M222 300 C222 300 226.6419 305.8968 227 311 C228.4491 331.6494 225.2913 354.5196 226 357 C226.0044 357.0155 238.6951 354.3027 239 353 C240.8413 345.1324 237 310 237 310 "/>
<path id="6" d="M91 273 C91 273 96.5229 274.8743 99 274 C102.7156 272.6886 108 267 108 267 "/>
<path id="7" d="M125 238 C125 238 122.7894 242.8416 123 246 C123.1927 248.8907 124.7502 252.4167 126 253 C128.3933 254.1169 137.6264 253.523 138 253 C138.5479 252.233 138.0975 242.9852 136 239 C134.7166 236.5615 128 234 128 234 "/>
<path id="8" d="M129 244 C129 244 133.1246 247.7499 134 248 C134.2036 248.0582 136.0234 246.0468 136 246 C135.9065 245.813 132 244 132 244 "/>
<path id="9" d="M88 278 L72 269 "/>
<path id="10" d="M86 277 L80 293 "/>
<path id="11" d="M83 279 L75 281 "/>
<path id="12" d="M142 230 C142 230 142.5992 207.4739 143 204 C143.0035 203.9693 144.9938 203.9582 145 204 C145.5704 207.8503 147.1068 228.1171 147 231 C146.9996 231.0119 144 231 144 231 "/>
<path id="13" d="M89 238 C89 238 83.9888 227.6508 80 222 C79.4437 221.2119 77.0271 220.9511 77 221 C76.5476 221.8144 74.4226 227.9205 75 231 C75.4162 233.2196 77.3792 235.094 80 237 C82.0865 238.5174 86 239 86 239 "/>
<path id="14" d="M70 358 C70 358 73.6804 362.7654 74 367 C75.5117 387.0306 73.1659 390.1478 74 411 C74.1153 413.8814 76 417 76 417 "/>
<path id="15" d="M74 410 C74 410 81.2437 405.526 87 400 C93.4796 393.7796 99 386 99 386 "/>
<path id="16" d="M82 397 L54 380 "/>
<path id="17" d="M80 379 C80 379 78.6786 374.9442 77 374 C72.596 371.5228 67.9705 372.9779 64 370 C60.2156 367.1617 57 359 57 359 "/>
<path id="18" d="M83 370 C83 370 93.4619 367.9942 96 366 C97.022 365.197 97 359 97 359 "/>
<path id="19" d="M455 310 C455 310 451.0055 301.0069 451 301 C450.9982 300.9977 450.7111 304.87 451 305 C454.5709 306.6069 467.9562 307.8694 471 310 C471.816 310.5712 471.4961 318.752 471 319 C468.7401 320.1299 460.2526 320.6381 451 320 C446.7259 319.7052 442 317 442 317 "/>
</g>
</g>
</svg>
