<?xml version="1.0" encoding="utf-8"?>
<!DOCTYPE svg PUBLIC "-//W3C//DTD SVG 1.1//EN" "http://www.w3.org/Graphics/SVG/1.1/DTD/svg11.dtd">
<svg viewBox="0 0 800 800" preserveAspectRatio="xMinYMin meet" xmlns="http://www.w3.org/2000/svg" version="1.1">
<g fill="none" stroke="black" stroke-linecap="round" stroke-linejoin="round" stroke-width="0.99366">
<g transform="translate(87.52,202.247) scale(3.0191) translate(-121,-233)">
<path id="0" d="M191 264 C191 264 196.1942 259.2015 201 258 C208.6267 256.0933 217.1652 256.4903 219 257 C219.1725 257.0479 218.988 262.9998 219 263 C224.1797 263.1016 267.4619 257.8964 270 258 C270.0857 258.0035 267.9975 264.9992 268 265 C268.0472 265.0157 271.9456 261.2163 276 260 C285.9013 257.0296 293.7217 255.3418 298 256 C299.0465 256.161 300.836 260.2172 302 264 C302.6305 266.049 302.64 267.72 302 269 C301.36 270.28 298 272.0012 298 272 C298 271.9976 300.0493 267.3655 302 266 C303.5939 264.8843 305.021 265.1986 308 265 C312.4193 264.7054 314.4825 263.8252 317 265 C319.5921 266.2096 321.9491 269.2676 323 272 C323.634 273.6485 323.2006 276.1992 322 278 C320.0791 280.8813 314.997 283.9848 315 284 C315.0004 284.002 320.5359 282.552 323 283 C324.1175 283.2032 325.8585 284.868 326 286 C326.5398 290.3183 326.0465 293.4186 325 299 C324.7322 300.4284 323.9429 301.6228 323 302 C320.5248 302.9901 315 303 315 303 C315 303 321.8954 302.7162 322 303 C322.7704 305.0912 324.2365 319.2976 322 322 C318.485 326.2473 307.4612 328.8463 298 332 C297.077 332.3077 295.3149 331.5511 295 331 C294.2376 329.6657 294.0043 324.9949 294 325 C293.9873 325.0153 292.8902 333.7698 290 337 C286.5435 340.8631 282.2722 343.1889 277 344 C272.304 344.7225 266.4032 342.9226 264 341 C262.5643 339.8514 262.0214 332.0085 262 332 C261.9992 331.9997 260.9566 336.8477 259 339 C256.9154 341.2931 255.411 342.1472 252 343 C246.3505 344.4124 243.8484 345.1019 239 344 C235.0661 343.1059 231.5196 340.5326 230 338 C228.8003 336.0006 230 329 230 329 C229.9788 329 227.0147 335.9274 224 338 C221.1863 339.9344 218.0706 340.6784 214 340 C205.0868 338.5145 202.5763 337.1166 194 333 C191.2832 331.6959 189.9495 330.3738 189 328 C187.5893 324.4733 187.9006 318.9935 188 318 C188.002 317.9799 190.0023 317.9887 190 318 C189.9683 318.1587 188.2419 322.4826 187 323 C184.8013 323.9161 180.5569 324.0958 178 323 C175.849 322.0781 173.6027 319.6521 173 317 C171.6486 311.0539 172.1129 304.9917 173 301 C173.1602 300.2793 177.0003 299 177 299 C176.9994 299 170.1891 301.4324 169 301 C168.1528 300.6919 166.1 297.5996 166 295 C165.6743 286.5307 165.7559 279.4882 168 275 C168.9618 273.0765 177.5305 270.9531 178 271 C178.0245 271.0024 178.2155 275.4612 178 276 C177.9655 276.0862 176.0068 276.0405 176 276 C175.7568 274.5405 175.0182 269.4 176 264 C176.8777 259.1727 178.1393 255.0234 180 254 C183.2415 252.2172 193.0029 251.5014 196 253 C198.3204 254.1602 202 265 202 265 "/>
<path id="1" d="M168 277 C168 277 164.5734 271.0237 161 268 C159.1193 266.4086 155.8832 265.5985 155 266 C153.5806 266.6452 151.7247 272.6551 150 273 C144.718 274.0564 138.0166 273.4879 130 271 C125.6566 269.652 122.4188 266.9952 121 264 C119.4884 260.8088 120.1064 254.5019 121 252 C121.2819 251.2107 124.3887 251.477 126 250 C129.5959 246.7037 129.2714 244.1959 133 241 C135.4254 238.9211 136.508 238.873 140 238 C144.1679 236.958 147.7053 237.4316 149 237 C149.0925 236.9692 148.9726 235.003 149 235 C151.2226 234.753 162.2038 232.7732 167 235 C171.2728 236.9838 171.5508 242.5508 177 248 C180.5538 251.5538 186 254 186 254 "/>
<path id="2" d="M162 241 C162 241 161.4012 237.5968 162 236 C162.494 234.6826 163.7054 233.3531 165 233 C167.7125 232.2602 171.9622 232.1509 173 233 C174.3444 234.0999 175.7429 238.6572 176 242 C176.1071 243.3928 175.0722 245.1065 174 246 C173.0283 246.8097 170 247 170 247 "/>
<path id="3" d="M149 245 C149 245 149.9999 241 150 241 C150 241 150 245 150 245 "/>
<path id="4" d="M211 342 C211 342 210.5341 356.3751 209 362 C208.7692 362.8462 205 364 205 364 "/>
<path id="5" d="M225 345 L225 362 "/>
<path id="6" d="M289 336 C289 336 288.1642 348.7712 289 351 C289.1811 351.4829 295 352 295 352 "/>
<path id="7" d="M301 335 C301 335 301.2238 344.3776 302 348 C302.0839 348.3916 303.6416 349.1629 304 349 C306.7195 347.7639 313 343 313 343 "/>
<path id="8" d="M324 268 L328 259 "/>
</g>
</g>
</svg>
