<?xml version="1.0" encoding="utf-8"?>
<!DOCTYPE svg PUBLIC "-//W3C//DTD SVG 1.1//EN" "http://www.w3.org/Graphics/SVG/1.1/DTD/svg11.dtd">
<svg viewBox="0 0 800 800" preserveAspectRatio="xMinYMin meet" xmlns="http://www.w3.org/2000/svg" version="1.1">
<g fill="none" stroke="black" stroke-linecap="round" stroke-linejoin="round" stroke-width="1.4977">
<g transform="translate(87.52,176.6569) scale(2.0031) translate(-96,-203)">
<path id="0" d="M312 276 C312 276 306.1337 275.4332 303 277 C298.7118 279.1441 297.0235 280.5537 294 285 C289.195 292.0662 288.7916 293.3925 286 302 C282.9658 311.3554 281.1756 320.7045 282 322 C282.6355 322.9986 292.7556 324.5795 300 324 C302.9725 323.7622 304.5714 320.1619 307 320 C309.6068 319.8262 315 323 315 323 "/>
<path id="1" d="M306 326 C306 326 308.2425 322.7811 310 322 C311.5209 321.324 314.5062 321.3827 315 322 C317.5431 325.1789 319.3799 329.3412 322 337 C325.7736 348.0306 324.4372 350.3805 328 360 C328.7743 362.0906 329.7688 362.725 332 364 C339.6572 368.3756 340.5383 369.4359 349 372 C356.234 374.1921 358.6652 374.3017 365 374 C367.0484 373.9025 368.3108 372.9144 370 371 C375.2017 365.1047 376.4795 364.2611 380 357 C384.0922 348.5598 383.9458 347.2438 386 338 C386.8082 334.3631 386.9148 333.545 386 330 C383.1338 318.8933 378 307 378 307 "/>
<path id="2" d="M312 277 C312 277 319.1583 268.462 326 264 C329.1363 261.9546 330.5305 262.327 335 262 C350.673 260.8532 351.8691 259.599 367 261 C377.6961 261.9904 379.2093 263.0837 389 267 C393.1731 268.6692 394.5469 269.5657 397 273 C401.1882 278.8634 402.1162 280.4648 404 288 C407.374 301.4959 407.2649 304.871 408 317 C408.0975 318.6088 406.9931 320.4483 406 321 C404.2229 321.9873 401.5021 322.7506 399 322 C393.3609 320.3083 390.2815 319.0436 386 315 C382.8465 312.0217 383.3629 308.249 381 305 C380.4487 304.2419 378 304 378 304 "/>
<path id="3" d="M320 266 C320 266 318.8555 252.6555 314 244 C308.5376 234.2626 305.5496 233.1779 297 225 C294.8441 222.9378 293.7909 222.2537 291 222 C278.9869 220.9079 272.7693 219.745 264 222 C260.65 222.8614 256.1319 231.0616 256 231 C255.4978 230.7656 253.2683 221.5447 249 215 C246.4643 211.1119 245.2505 210.4289 241 208 C235.3832 204.7904 234.2906 204.2097 228 203 C222.1427 201.8736 219.93 201.1038 215 203 C202.9521 207.6338 198.4724 210.4221 189 218 C186.2081 220.2335 185.6127 227 185 227 C180.7108 227 170.6211 220.99 157 218 C151.0927 216.7033 149.6837 216.8159 144 218 C138.7352 219.0968 136.9098 219.6001 133 223 C126.6202 228.5477 124.0752 230.6196 121 238 C117.5789 246.2107 117.2459 251.9616 118 259 C118.2787 261.6014 120.7347 263.7551 124 266 C127.8504 268.6472 134.0015 269.9999 134 270 C133.996 270.0002 117.4687 265.7204 108 267 C103.5306 267.604 99.2008 271.332 97 275 C95.1007 278.1655 94.9704 282.264 96 287 C97.0752 291.9458 98.3566 293.9012 102 298 C105.5442 301.9873 106.9031 303.0667 112 305 C120.2634 308.1344 122.9446 308.3287 131 309 C133.0138 309.1678 136 307 136 307 C136 307 121.6422 309.6032 115 315 C108.8107 320.0288 107.3725 324.722 104 333 C102.6499 336.3139 102.6778 340.4445 104 342 C107.7388 346.3986 112.6625 349.7155 121 353 C127.5611 355.5847 129.6652 355.4732 137 355 C144.0516 354.5451 151.984 350.996 152 351 C152.0063 351.0016 146.4827 354.0346 145 357 C142.9711 361.0579 141.6464 366.3895 143 369 C145.8763 374.5472 150.5826 377.8273 159 384 C164.9649 388.3743 167.2315 390.1454 173 391 C177.8165 391.7136 182.5896 390.8857 186 388 C192.3819 382.6 197.1854 369.2835 199 369 C200.9105 368.7015 208.5355 379.474 218 383 C231.235 387.9307 234.1222 386.1098 250 388 C254.8712 388.5799 257.4244 389.5678 260 388 C265.5432 384.6259 268.538 380.8417 273 374 C275.0454 370.8637 274.9262 364.9918 275 365 C276.9436 365.216 288.1409 373.4423 300 377 C306.2198 378.8659 309.8473 378.7176 315 377 C319.0076 375.6641 321.9958 373.0084 324 369 C326.8059 363.3883 327 353 327 353 "/>
<path id="4" d="M289 374 C289 374 285.1067 379.0198 284 384 C281.3439 395.9524 280.4852 409.2279 281 410 C281.1358 410.2038 295.2999 407.0648 298 405 C298.7933 404.3934 298.9903 399.7729 298 397 C297.0362 394.3014 293.4331 393.5985 293 391 C291.4789 381.8737 293 367 293 367 "/>
<path id="5" d="M158 388 C158 388 158.4186 415.4543 161 423 C161.4601 424.3449 166.2643 425.549 171 426 C176.0207 426.4782 179.1118 426.1108 182 425 C182.8977 424.6547 184.1638 422.5147 184 421 C182.5438 407.5297 178 388 178 388 "/>
<path id="6" d="M188 387 C188 387 188.4657 398.815 189 399 C191.4841 399.8599 212.0757 397.757 214 396 C215.0014 395.0857 212 378 212 378 "/>
<path id="7" d="M268 380 C268 380 267.8963 389.9259 268 390 C268.0498 390.0355 271.5882 386.2794 275 385 C278.604 383.6485 283.8971 384.3772 284 384 C284.601 381.7963 281 363 281 363 "/>
<path id="8" d="M324 323 C324 323 323.8167 311.0917 324 311 C324.275 310.8625 336 317 336 317 "/>
<path id="9" d="M350 316 C350 316 351.2824 311.7176 353 310 C354.3359 308.6641 357.9507 308.0493 358 308 C358.007 307.993 356 307 356 307 C356 307 361 310 361 310 "/>
</g>
</g>
</svg>
