<?xml version="1.0" encoding="utf-8"?>
<!DOCTYPE svg PUBLIC "-//W3C//DTD SVG 1.1//EN" "http://www.w3.org/Graphics/SVG/1.1/DTD/svg11.dtd">
<svg viewBox="0 0 800 800" preserveAspectRatio="xMinYMin meet" xmlns="http://www.w3.org/2000/svg" version="1.1">
<g fill="none" stroke="black" stroke-linecap="round" stroke-linejoin="round" stroke-width="1.2289">
<g transform="translate(124.1387,87.52) scale(2.4413) translate(-113,-141)">
<path id="0" d="M254 159 C254 159 248.85 161.675 246 165 C243.4667 167.9555 242.2485 169.3556 242 173 C240.9207 188.8292 240.0012 192.6429 243 209 C245.141 220.6782 247.0417 222.6514 253 233 C255.8396 237.9319 257.1085 239.1325 262 242 C270.4598 246.9592 282 250 282 250 "/>
<path id="1" d="M256 158 C256 158 287.4238 155.2136 306 158 C310.2168 158.6325 313.194 162.5572 316 167 C318.0635 170.2672 317.8746 172.1112 318 177 C318.3614 191.0928 321.4021 194.9948 317 206 C308.3755 227.5613 300.5666 234.7658 288 252 C286.8069 253.6363 282 254 282 254 "/>
<path id="2" d="M254 187 C254 187 254.9187 180.7209 256 180 C257.7301 178.8466 266 179 266 179 "/>
<path id="3" d="M262 185 C262 185 262.2686 189.1224 263 190 C263.5433 190.6519 267.0007 191.0022 267 191 C266.9982 190.9947 262 187 262 187 "/>
<path id="4" d="M295 181 C295 181 290.0239 179.1676 290 179 C289.9609 178.7265 292.2034 174.5989 294 174 C298.5443 172.4852 306.5358 172.7908 308 173 C308.0453 173.0065 308 176 308 176 "/>
<path id="5" d="M296 184 C296 184 301.9987 190.0017 302 190 C302.0066 189.9911 299 180 299 180 "/>
<path id="6" d="M276 233 C276 233 288.5392 241.0658 289 241 C289.0944 240.9865 289.857 231.143 290 231 C290.013 230.987 294.9964 235.005 295 235 C295.0916 234.8718 295 224 295 224 "/>
<path id="7" d="M242 172 C242 172 240.6433 157.0664 238 152 C237.1414 150.3544 233.5379 149.1769 230 149 C224.8343 148.7417 220.7305 149.1228 218 151 C215.9202 152.4298 213.6047 158.4189 214 160 C214.4447 161.7787 217.7699 164.793 222 167 C228.3925 170.3352 237 172 237 172 "/>
<path id="8" d="M315 161 C315 161 321.6045 144.3955 325 141 C325.9055 140.0945 332.3766 140.6085 334 142 C336.3763 144.0368 337.747 147.7372 339 153 C340.0279 157.3171 340.2048 159.1849 339 163 C337.6874 167.1564 336.3092 168.0891 333 172 C331.0651 174.2867 330.483 175.1723 328 176 C322.642 177.786 315 178 315 178 "/>
<path id="9" d="M280 253 C280 253 237.2539 250.2811 196 252 C178.1882 252.7422 176.6684 253.9255 160 258 C155.4523 259.1117 154.6835 259.8427 151 263 C141.217 271.3855 140.1212 271.8485 132 282 C124.5437 291.3204 124.3741 292.2518 119 303 C115.0916 310.8168 112.2484 314.739 113 320 C113.9112 326.3784 118.2282 331.9534 124 338 C126.7432 340.8738 129.3105 341.531 134 342 C142.9733 342.8973 154 341 154 341 "/>
<path id="10" d="M287 254 C287 254 291.5187 256.3665 293 259 C295.2441 262.9896 295.2279 264.5956 296 270 C296.6756 274.7289 296.941 275.4831 296 280 C294.5845 286.7942 294.7151 290.8874 291 294 C280.731 302.6038 274.9581 305.8371 259 311 C242.9919 316.1791 240.3712 311.9392 223 316 C202.418 320.8114 182 329 182 329 "/>
<path id="11" d="M149 346 C149 346 173.0233 340.7928 195 334 C199.6622 332.559 204 329 204 329 "/>
<path id="12" d="M155 349 C155 349 155.6717 367.2539 158 382 C158.3807 384.4113 159.1136 385.5575 161 387 C166.5616 391.253 174.5551 394.5956 175 395 C175.0247 395.0225 171.9978 397.0205 172 397 C172.0201 396.8093 175.6146 386.4892 177 376 C179.0636 360.3758 179 344 179 344 "/>
<path id="13" d="M265 312 C265 312 261.5738 323.2578 263 331 C264.5813 339.5843 266.7583 341.675 272 350 C274.7704 354.4 276.7077 355.6056 280 358 C280.7148 358.5198 282.8352 358.2885 283 358 C284.621 355.1633 286.7854 350.802 288 344 C289.1418 337.6058 289.5445 335.516 288 330 C286.5703 324.8938 283.5529 324.6164 281 319 C278.7744 314.1037 278 308 278 308 "/>
<path id="14" d="M137 343 C137 343 137.7337 346.5227 139 348 C140.0238 349.1944 141.104 349.4583 143 350 C144.2442 350.3555 145.9007 350.1654 146 350 C146.2757 349.5404 146 345 146 345 "/>
<path id="15" d="M243 318 C243 318 246.7654 320.7062 250 322 C251.1283 322.4513 252.5842 322.3118 253 322 C253.4504 321.6622 254 319 254 319 "/>
<path id="16" d="M246 319 C246 319 246.9986 314.9958 247 315 C247.0077 315.0232 249.166 329.4149 251 334 C251.2315 334.5787 254.9978 335.0099 255 335 C255.4002 333.159 256 311 256 311 "/>
<path id="17" d="M140 345 C140 345 139.6298 357.4118 141 360 C141.5502 361.0392 148.935 362.13 149 362 C149.6662 360.6675 150 342 150 342 "/>
</g>
</g>
</svg>
