<?xml version="1.0" encoding="utf-8"?>
<!DOCTYPE svg PUBLIC "-//W3C//DTD SVG 1.1//EN" "http://www.w3.org/Graphics/SVG/1.1/DTD/svg11.dtd">
<svg viewBox="0 0 800 800" preserveAspectRatio="xMinYMin meet" xmlns="http://www.w3.org/2000/svg" version="1.1">
<g fill="none" stroke="black" stroke-linecap="round" stroke-linejoin="round" stroke-width="1.4785">
<g transform="translate(87.52,147.3782) scale(2.0291) translate(-189,-147.8167)">
<path id="0" d="M216 168.8167 C216 168.8167 215.5498 172.2668 214 173.8167 C206.2508 181.5658 203.2224 181.5942 195 189.8167 C192.4158 192.4009 191.9525 193.324 191 196.8167 C189.1699 203.5272 188.4651 211.4875 189 211.8167 C191.1169 213.1194 203.4235 211.2739 217 212.8167 C224.9461 213.7196 229.0459 213.7612 233 216.8167 C236.3233 219.3847 237.9257 224.7139 239 229.8167 C239.4202 231.8126 236.6728 233.4442 237 235.8167 C238.3621 245.6922 239.1583 247.8827 243 258.8167 C245.5184 265.9843 247.4218 265.6346 250 272.8167 C254.2956 284.783 252.6544 286.1169 257 297.8167 C258.9254 303.0004 259.4208 303.5216 263 307.8167 C269.1244 315.166 277 321.8167 277 321.8167 "/>
<path id="1" d="M276 321.8167 L292 322.8167 "/>
<path id="2" d="M292 321.8167 C292 321.8167 298.8179 311.976 299 311.8167 C299.0188 311.8002 300.0629 314.7223 300 314.8167 C299.9461 314.8976 297.0024 314.7927 297 314.8167 C296.9216 315.6005 299 324.8167 299 324.8167 "/>
<path id="3" d="M301 324.8167 C301 324.8167 318.1648 316.1966 334 311.8167 C340.0579 310.1411 342.0141 310.0314 348 311.8167 C368.553 317.9465 391 328.8167 391 328.8167 "/>
<path id="4" d="M387 327.8167 C387 327.8167 400.2422 332.5841 413 334.8167 C419.5605 335.9647 421.3319 336.3427 427 334.8167 C432.6214 333.3032 434.7947 332.0219 439 327.8167 C443.6479 323.1687 444.8102 320.8387 447 314.8167 C448.2388 311.4099 445.6674 309.4226 447 305.8167 C453.4088 288.4751 459.3327 277.9056 464 268.8167 C464.1048 268.6125 465.9317 268.9669 466 268.8167 C466.9289 266.7732 469 257.8167 469 257.8167 "/>
<path id="5" d="M450 301.8167 C450 301.8167 454.6801 304.1769 456 306.8167 C458.8048 312.4262 457.7226 317.9451 460 321.8167 C460.7257 323.0503 464.1302 324.3402 466 323.8167 C473.3966 321.7456 476.4727 319.7909 485 314.8167 C487.7838 313.1928 488.9072 312.0023 490 309.8167 C490.7286 308.3596 489.2849 306.676 490 304.8167 C491.4193 301.1265 493.427 300.8615 495 296.8167 C496.7048 292.4329 496.8704 291.7424 497 286.8167 C497.851 254.4768 497.8341 253.3478 497 220.8167 C496.8477 214.8766 496.9198 214.1494 495 208.8167 C492.6576 202.31 488 195.8167 488 195.8167 "/>
<path id="6" d="M233 217.8167 C233 217.8167 233.9326 208.0749 237 199.8167 C240.2023 191.1951 244.0007 191.0136 246 182.8167 C248.5251 172.4637 247 158.8167 247 158.8167 "/>
<path id="7" d="M247 159.8167 C247 159.8167 241.9825 163.5249 237 164.8167 C229.2731 166.8199 226.9753 164.9143 220 166.8167 C217.5785 167.4771 215 170.8167 215 170.8167 "/>
<path id="8" d="M259 180.8167 C259 180.8167 262 183.7021 262 183.8167 C262 183.8549 259.1394 184.352 259 184.8167 C257.54 189.6833 255.1607 198.5713 256 203.8167 C256.3227 205.8333 262.3514 209.9165 263 209.8167 C263.7718 209.6979 267.4025 205.8104 269 201.8167 C270.9661 196.9013 271 195.52 271 189.8167 C271 183.6381 269 177.9851 269 176.8167 C269 176.8167 271 176.8167 271 176.8167 "/>
<path id="9" d="M247 161.8167 C247 161.8167 254.3284 149.5685 259 147.8167 C264.2133 145.8617 271.6308 146.63 279 149.8167 C287.1424 153.3377 290.4306 156.2423 296 163.8167 C301.4396 171.2145 300.6329 177.3885 304 183.8167 C304.3579 184.5 307 184.8167 307 184.8167 "/>
<path id="10" d="M306 185.8167 C306 185.8167 319.5516 177.2288 328 176.8167 C335.025 176.474 337.9407 183.3853 347 183.8167 C406.9788 186.6728 418.4848 180.655 475 183.8167 C481.8205 184.1982 484.9351 187.5959 490 191.8167 C492.0649 193.5374 493 198.8167 493 198.8167 "/>
<path id="11" d="M470 206.8167 C470 206.8167 467.8093 215.8478 469 219.8167 C469.8532 222.6605 472.6699 225.1516 476 226.8167 C479.0129 228.3231 483.4526 228.1261 485 227.8167 C485.2813 227.7604 486 224.8167 486 224.8167 "/>
<path id="12" d="M276 324.8167 C276 324.8167 276.8206 342.8244 275 359.8167 C273.8832 370.2402 269.3982 379.914 270 380.8167 C270.4315 381.4638 280.4958 381.2216 289 380.8167 C289.9165 380.773 290.9295 380.1691 291 379.8167 C291.4531 377.5511 291.7714 373.9023 291 370.8167 C290.6786 369.531 288.1584 369.0314 288 367.8167 C287.0656 360.653 287.1291 357.6141 288 347.8167 C289.1041 335.3958 292 322.8167 292 322.8167 "/>
<path id="13" d="M306 321.8167 C306 321.8167 306.2757 326.3571 306 326.8167 C305.9007 326.9821 303.0063 326.7686 303 326.8167 C302.6313 329.6436 301.6681 338.8948 303 349.8167 C304.0777 358.6538 308.2849 367.5115 308 367.8167 C307.6852 368.1539 289 364.8167 289 364.8167 "/>
<path id="14" d="M424 336.8167 C424 336.8167 426.8594 337.9885 427 338.8167 C429.9152 355.984 431.7602 381.9126 433 389.8167 C433.0075 389.8644 435.0001 389.8166 435 389.8167 C434.9998 389.8167 430.8394 389.9773 430 390.8167 C428.8808 391.9359 427.9871 396.8117 428 396.8167 C428.6145 397.053 442.8692 396.4136 443 395.8167 C445.2036 385.7629 442.9257 350.3165 444 323.8167 C444.031 323.0511 446 321.8167 446 321.8167 "/>
<path id="15" d="M462 321.8167 C462 321.8167 460.8704 331.232 462 339.8167 C463.2964 349.6689 466.0179 351.9602 467 359.8167 C467.1786 361.2451 465.0577 362.028 465 363.8167 C464.6172 375.684 466.753 387.9122 466 390.8167 C465.9416 391.0419 458.8767 390.4879 458 390.8167 C457.8767 390.8629 457.868 393.7727 458 393.8167 C459.6275 394.3592 466.1357 395.5412 470 394.8167 C471.5539 394.5253 473.9093 392.3278 474 390.8167 C474.9824 374.4439 470.4287 365.9588 473 344.8167 C474.6375 331.353 483 316.8167 483 316.8167 "/>
<path id="16" d="M227 173.8167 C227 173.8167 228.444 180.8717 230 182.8167 C230.6824 183.6697 235 183.8167 235 183.8167 "/>
<path id="17" d="M217 213.8167 C217 213.8167 203.9846 215.5705 195 217.8167 C194.0234 218.0608 192.9619 219.7213 193 219.8167 C193.1462 220.1821 195.1694 222.5551 197 222.8167 C209.9326 224.6642 220.6851 225.6772 228 224.8167 C228.8811 224.713 231 218.8167 231 218.8167 "/>
</g>
</g>
</svg>
