<?xml version="1.0" encoding="utf-8"?>
<!DOCTYPE svg PUBLIC "-//W3C//DTD SVG 1.1//EN" "http://www.w3.org/Graphics/SVG/1.1/DTD/svg11.dtd">
<svg viewBox="0 0 800 800" preserveAspectRatio="xMinYMin meet" xmlns="http://www.w3.org/2000/svg" version="1.1">
<g fill="none" stroke="black" stroke-linecap="round" stroke-linejoin="round" stroke-width="1.8145">
<g transform="translate(87.52,187.5467) scale(1.6533) translate(-101,-93.4167)">
<path id="0" d="M186 183.4167 C186 183.4167 192.2585 171.1212 199 163.4167 C201.3636 160.7155 203.4536 160.0816 207 159.4167 C210.1664 158.823 214.1713 159.2565 215 160.4167 C218.0856 164.7366 221.7635 180.4064 222 180.4167 C222.4561 180.4365 229.8239 168.9387 238 161.4167 C241.0966 158.5678 244.9934 156.8694 247 157.4167 C250.9901 158.5049 255.3704 162.4784 260 167.4167 C261.6432 169.1694 261.99 173.4267 262 173.4167 C262.04 173.3767 263.1186 165.628 266 161.4167 C268.5727 157.6565 272.6026 154.1708 275 154.4167 C284.0108 155.3409 295.7901 160.5239 305 165.4167 C306.3329 166.1248 306.9776 171.4279 307 171.4167 C307.3589 171.2372 312.4202 162.0052 317 159.4167 C320.7018 157.3244 325.14 157.2017 330 158.4167 C334.86 159.6317 336.5338 161.5459 341 165.4167 C343.4076 167.5032 344.8714 171.4517 345 171.4167 C345.5143 171.2764 347.9522 165.2082 352 162.4167 C361.0679 156.163 363.8113 155.5676 374 151.4167 C375.9237 150.6329 377.0412 150.6705 379 151.4167 C386.462 154.2593 388.6752 154.9893 395 159.4167 C397.4011 161.0974 398.077 162.6476 399 165.4167 C399.7552 167.6822 398.625 171.0417 399 171.4167 C399.375 171.7917 402.5139 170.588 405 171.4167 C414.9444 174.7315 422.6005 177.8671 426 180.4167 C426.4288 180.7382 426.2226 185.1941 425 186.4167 C420.9828 190.4338 410.9709 195.3475 411 195.4167 C411.1806 195.8457 423.1314 199.9341 433 205.4167 C435.7855 206.9642 436.785 207.9867 438 210.4167 C439.215 212.8467 439.64 215.4967 439 217.4167 C438.36 219.3367 436.7302 221.0516 434 222.4167 C425.8093 226.512 416.053 228.504 415 229.4167 C414.9496 229.4604 418.2084 232.6461 419 235.4167 C419.8866 238.5198 419.9912 242.6647 419 243.4167 C412.5291 248.3256 403.4211 251.8903 390 257.4167 C388.0697 258.2115 386.0365 258.214 385 257.4167 C381.7471 254.9144 377.0022 247.4152 377 247.4167 C376.9878 247.4248 379.2839 255.4545 379 261.4167 C378.8542 264.4794 378.0485 265.9957 376 268.4167 C373.2576 271.6577 371.9937 272.8192 368 274.4167 C363.0847 276.3828 360.2254 276.6808 356 276.4167 C354.51 276.3235 352.4633 273.2313 352 273.4167 C349.584 274.3831 345.9538 280.4782 341 282.4167 C336.9064 284.0185 331.1533 284.1019 329 282.4167 C324.4983 278.8936 318.7963 264.8851 318 264.4167 C317.9523 264.3886 315.3163 269.7636 312 272.4167 C308.7372 275.0269 307.3148 275.5083 303 276.4167 C298.616 277.3396 296.5734 277.9932 293 276.4167 C282.0592 271.5898 276.8613 262.0332 269 261.4167 C260.8387 260.7766 255.2583 268.2298 242 272.4167 C237.0768 273.9714 232.9341 274.6382 231 273.4167 C227.9761 271.5069 224.7647 260.6183 223 260.4167 C218.1685 259.8645 199.7024 270.2629 196 269.4167 C194.2357 269.0134 189.2555 252.8534 188 252.4167 C186.9289 252.0441 179.437 259.9147 173 261.4167 C167.5292 262.6932 163.8997 260.8048 158 259.4167 C157.0578 259.195 156.0945 258.2198 156 257.4167 C155.3659 252.0271 154.2375 246.9209 156 242.4167 C157.3538 238.9569 164.7362 236.4391 165 234.4167 C165.4088 231.2824 160.6689 226.6484 159 219.4167 C157.8796 214.5616 157.9711 212.7896 159 208.4167 C159.6493 205.6573 163 202.9922 163 202.4167 C163 202.2248 159.4833 201.2625 159 200.4167 C158.4361 199.4299 158.1815 196.3443 159 195.4167 C163.1308 190.735 166.2898 187.3886 174 183.4167 C181.4895 179.5584 183.3061 179.3566 192 178.4167 C200.8587 177.459 202.1813 177.7632 211 179.4167 C217.4057 180.6177 224 184.4167 224 184.4167 "/>
<path id="1" d="M163 190.4167 C163 190.4167 145.5561 187.7563 134 188.4167 C131.5082 188.5591 129.5914 190.1019 128 192.4167 C124.9763 196.8147 125.8044 202.651 123 204.4167 C117.383 207.9533 101 209.4167 101 209.4167 C101 209.4167 116.9453 206.3563 130 201.4167 C134.1863 199.8327 135.846 195.3269 138 195.4167 C142.5281 195.6053 146.4035 199.9996 154 202.4167 C156.5006 203.2123 160 202.4167 160 202.4167 "/>
<path id="2" d="M444 131.4167 C444 131.4167 433.4347 128.701 426 130.4167 C416.248 132.6671 414.2007 134.5896 405 140.4167 C400.0518 143.5505 398.3759 144.863 396 149.4167 C393.2998 154.592 393.3111 157.8178 393 163.4167 C392.9146 164.9536 393.7894 166.785 395 167.4167 C402.457 171.3073 405.8333 173.6485 416 175.4167 C427.3512 177.3908 429.1355 177.1116 441 175.4167 C456.2543 173.2375 461.5169 172.6582 472 167.4167 C475.744 165.5447 478.0119 160.9621 479 156.4167 C479.9127 152.2185 479.5798 147.4572 477 144.4167 C468.8895 134.8578 462.9215 130.702 451 123.4167 C447.7425 121.426 441 122.4167 441 122.4167 "/>
<path id="3" d="M414 126.4167 C414 126.4167 410.3243 109.7815 411 107.4167 C411.1702 106.8208 419.5977 104.9197 420 105.4167 C422.2434 108.1879 428 128.4167 428 128.4167 "/>
<path id="4" d="M442 119.4167 C442 119.4167 444.5804 102.344 448 96.4167 C449.0587 94.5816 455.1847 92.9326 457 93.4167 C458.7415 93.8811 460.9442 96.7619 463 100.4167 C465.1177 104.1815 465.659 105.1546 466 109.4167 C466.5875 116.76 465 125.4167 465 125.4167 "/>
<path id="5" d="M428 151.4167 L430 150.4167 "/>
<path id="6" d="M450 147.4167 L451 147.4167 "/>
<path id="7" d="M433 162.4167 C433 162.4167 432.7859 165.3179 433 165.4167 C435.2239 166.4431 439.5853 167.5419 446 168.4167 C450.3054 169.0038 452.7583 169.4513 455 168.4167 C456.6861 167.6385 459 162.4167 459 162.4167 "/>
<path id="8" d="M202 267.4167 C202 267.4167 199.3666 290.706 196 306.4167 C195.6956 307.8373 193.6028 307.8343 193 309.4167 C190.1038 317.0192 189.522 318.589 188 327.4167 C187.1124 332.5648 186.5548 335.8153 188 338.4167 C189.6495 341.3859 198 345.4167 198 345.4167 "/>
<path id="9" d="M373 271.4167 C373 271.4167 368.9298 302.6621 370 329.4167 C370.3188 337.3857 372.4214 341.7198 376 346.4167 C377.9275 348.9466 386 350.4167 386 350.4167 "/>
<path id="10" d="M340 283.4167 C340 283.4167 337.8129 302.5434 341 317.4167 C343.2689 328.005 345.6754 329.4779 352 339.4167 C355.7869 345.3674 362 350.4167 362 350.4167 "/>
<path id="11" d="M222 274.4167 C222 274.4167 227.2021 281.8981 229 289.4167 C232.4458 303.8264 229.1402 306.759 233 320.4167 C235.1075 327.8739 237.1261 329.6289 242 335.4167 C244.1359 337.9531 249 339.4167 249 339.4167 "/>
</g>
</g>
</svg>
