<?xml version="1.0" encoding="utf-8"?>
<!DOCTYPE svg PUBLIC "-//W3C//DTD SVG 1.1//EN" "http://www.w3.org/Graphics/SVG/1.1/DTD/svg11.dtd">
<svg viewBox="0 0 800 800" preserveAspectRatio="xMinYMin meet" xmlns="http://www.w3.org/2000/svg" version="1.1">
<g fill="none" stroke="black" stroke-linecap="round" stroke-linejoin="round" stroke-width="2.2945">
<g transform="translate(87.52,181.6562) scale(1.3074) translate(-40,-120)">
<path id="0" d="M68 287 C68 287 61.1513 283.0253 57 278 C52.2699 272.2741 50.4117 270.8016 49 264 C45.4284 246.7912 44.7451 241.6278 46 225 C46.4702 218.7696 48.9015 216.855 53 211 C55.3637 207.6233 57.5174 205.3547 60 205 C64.2882 204.3874 70.0955 205.534 74 208 C76.6245 209.6576 77.5217 212.5651 79 217 C80.2935 220.8806 79.9955 226.007 80 226 C80.0152 225.9763 82.7504 212.9467 88 203 C91.6265 196.1287 93.0713 195.3641 99 190 C103.0186 186.3641 104.1021 185.8045 109 184 C112.7579 182.6155 115.0845 182.735 118 183 C118.714 183.0649 119.9627 185.0249 120 185 C120.4474 184.7017 121.5062 181.0639 124 179 C135.0976 169.8158 136.2477 167.9558 149 161 C157.1575 156.5505 158.5025 156.8995 168 155 C178.0617 152.9877 178.5856 153.2422 189 153 C199.8747 152.7471 201.6067 152.8728 211 154 C212.3759 154.1651 213.9417 155.5336 214 156 C214.1411 157.1291 212 162 212 162 C212.0042 162.0014 214.3253 158.2737 217 157 C223.6608 153.8282 225.1779 153.2222 233 152 C240.4579 150.8347 241.4816 150.7469 249 152 C261.7657 154.1276 262.5045 154.8348 275 159 C280.1452 160.7151 282.1133 161.3538 285 164 C286.4846 165.3609 286.893 169.9847 287 170 C287.1604 170.0229 289.4037 166.2218 292 165 C296.7356 162.7715 298.0882 162.739 304 162 C309.7326 161.2834 310.5462 160.9512 316 162 C322.7998 163.3077 323.391 163.8899 330 167 C340.175 171.7882 341.2746 171.8599 350 178 C353.9725 180.7954 354.9808 182.5386 357 186 C357.6684 187.1459 357.3822 189.3631 357 190 C356.7325 190.4459 353.9773 190.9835 354 191 C354.358 191.2604 368.1782 197.5831 379 206 C385.2307 210.8461 386.9403 212.8806 390 219 C391.902 222.804 391.7252 226.1324 391 230 C390.6144 232.0568 386.8967 234.8623 387 235 C388.1874 236.5832 396.5692 239.5692 403 246 C412.289 255.289 414.5578 258.3962 420 268 C421.3763 270.4288 420.9457 275.2995 420 276 C414.2726 280.2425 396.4609 283.5701 393 288 C391.0719 290.468 396.2928 302.1823 395 308 C394.4197 310.6114 391.2457 313.1269 387 315 C375.6932 319.9883 373.6903 321.6984 361 323 C336.3959 325.5235 315.4904 323.2496 309 323 C308.9904 322.9996 309.0076 320.9935 309 321 C308.9389 321.0524 305.4278 327.2861 302 329 C297.6373 331.1814 295.3891 331.0495 289 331 C231.9099 330.5574 230.7572 331.2087 173 328 C132.0092 325.7227 119.6921 325.4805 91 320 C88.005 319.4279 87.8186 314.5458 84 311 C81.3359 308.5262 80.2115 307.367 77 307 C64.9413 305.6219 52.589 308.7945 49 307 C47.7823 306.3911 45.4682 297.0551 47 292 C49.3026 284.4014 53.2686 280.3682 59 274 C60.4726 272.3637 65 272 65 272 "/>
<path id="1" d="M356 191 C356 191 367.2592 175.5556 380 166 C389.6115 158.7914 403.5082 155.3624 404 155 C404.0427 154.9685 400.242 153.863 399 152 C394.2936 144.9404 392.5156 141.8612 390 134 C389.1952 131.485 389.6791 129.3116 391 127 C392.9191 123.6416 395.7188 120.5069 398 120 C400.7552 119.3877 405.0744 120.601 409 123 C412.6367 125.2224 413.7228 126.9517 416 131 C417.7407 134.0945 417.9344 139.0073 418 139 C419.0103 138.8877 427.0056 130.4725 434 129 C442.3364 127.245 451.6035 128.8897 456 131 C457.4936 131.7169 459.3416 138.438 459 141 C458.7984 142.5123 454.9161 143.8014 454 146 C453.0947 148.1727 453.0256 152.1936 454 153 C461.2442 158.9952 468.1715 162.7256 483 170 C494.2844 175.5357 496.5134 173.9375 507 179 C509.7428 180.3241 510.393 181.2681 512 184 C515.0235 189.14 515.7783 190.0949 517 196 C518.6128 203.7953 519.8611 207.0444 518 213 C515.9437 219.5801 513.1147 223.3121 507 228 C500.1697 233.2366 497.1319 234.478 488 236 C474.9758 238.1707 467.6807 236.8401 459 236 C458.3144 235.9337 458.115 233.5017 457 233 C450.1105 229.8997 445.971 231.131 439 227 C434.173 224.1395 430.1721 216.8945 430 217 C427.6162 218.461 417.1981 231.3513 408 246 C404.3178 251.8643 405.2615 255.7597 403 260 C402.6472 260.6615 400.1403 261.0468 400 261 C399.9649 260.9883 400 259 400 259 "/>
<path id="2" d="M508 224 C508 224 493.5892 225.6994 481 225 C476.7171 224.7621 476.3151 223.8169 472 222 C466.9104 219.857 464.4016 219.7711 462 217 C459.7859 214.4452 459 207 459 207 "/>
<path id="3" d="M508 196 C508 196 509.0383 197.9617 509 198 C508.8084 198.1916 506.967 198.6722 505 199 C504.0559 199.1574 503.0117 199.0351 503 199 C502.9532 198.8597 504 196 504 196 "/>
<path id="4" d="M440 168 C440 168 442.8597 166.9532 443 167 C443.0351 167.0117 443.1 168.95 443 169 C442.6 169.2 439.4 169.2 439 169 C438.9 168.95 438.9 167.05 439 167 C439.4 166.8 442.9993 166.9993 443 167 C443.0003 167.0003 440 168 440 168 "/>
<path id="5" d="M349 322 C349 322 349.4601 331.8627 347 340 C343.2545 352.3891 338.5757 352.6733 336 365 C331.978 384.2482 330.1891 390.3904 333 407 C334.7186 417.1555 339.1137 420.3611 347 430 C351.7235 435.7731 357.2308 435.4506 360 440 C362.1038 443.4562 361.2179 449.95 361 453 C360.9807 453.2696 359.923 453.9385 359 454 C353.1939 454.3871 351.6164 455.2961 346 454 C339.7854 452.5659 339.3822 451.1911 333 448 C328.4128 445.7064 326.8059 445.8059 324 443 C321.9958 440.9958 321.7562 439.5291 321 436 C318.8585 426.0064 320.3874 425.0801 318 415 C315.9743 406.4472 312.1741 405.9206 312 398 C311.249 363.8281 316 324 316 324 "/>
<path id="6" d="M381 320 C381 320 376.0882 325.8235 373 332 C370.2978 337.4044 369.9278 338.0621 369 344 C367.5187 353.4801 366.4075 354.923 368 364 C371.1271 381.8247 372.8554 382.9278 379 401 C381.2684 407.6717 381.3359 408.0968 385 414 C390.1373 422.2767 393.1615 422.9628 397 430 C398.0215 431.8728 397.3629 435.8046 397 436 C395.4791 436.8189 389.816 437.8309 384 437 C376.8916 435.9845 373.4132 435.7071 369 432 C363.6122 427.4743 359.9528 423.4028 359 416 C354.2937 379.4354 357.7328 373.4539 356 331 C355.7345 324.496 355.542 319.7616 355 318 C354.9624 317.8778 352 318 352 318 "/>
<path id="7" d="M116 324 C116 324 117.2331 329.0199 116 332 C111.9976 341.6724 109.2273 342.2704 104 353 C99.8312 361.5571 99.418 362.3641 97 371 C96.152 374.0286 96.0611 375.0791 97 378 C100.2046 387.97 100.5245 389.2657 106 399 C113.7997 412.8661 117.6625 414.0292 124 426 C125.2144 428.2939 124.7724 431.069 124 433 C123.4924 434.269 121.7577 435.7489 120 436 C113.2527 436.9639 109.19 437.5475 103 436 C99.905 435.2263 98.3289 433.1053 96 430 C94.4474 427.9298 94.4947 427.0298 94 424 C90.5613 402.9377 89.6147 402.4518 88 381 C86.1392 356.2781 84.9394 352.98 87 331 C87.6052 324.545 94 317 94 317 "/>
<path id="8" d="M137 327 C137 327 135.8744 344.6162 137 360 C137.2804 363.8317 137.9638 364.3903 140 368 C148.7645 383.537 148.93 384.2547 159 399 C162.6973 404.414 164.7362 403.6243 168 409 C172.8241 416.9456 172.7943 418.5849 176 427 C176.4569 428.1994 176.0721 429.9856 176 430 C174.1971 430.3606 167.335 431.1518 161 430 C157.7365 429.4066 157.1659 428.3217 154 426 C149.8142 422.9304 148.3419 422.9443 146 419 C139.7155 408.4155 137.419 406.477 135 394 C128.3534 359.7175 127 321 127 321 "/>
<path id="9" d="M89 204 C89 204 85.057 202.8285 83 201 C81.2331 199.4294 80.7048 198.4669 80 196 C78.8826 192.089 78.6152 188.2828 79 187 C79.0973 186.6756 83.0004 186.0001 83 186 C82.9992 185.9998 78.1243 187.1572 75 186 C66.1332 182.716 64.7889 181.6702 56 176 C49.6283 171.8893 48.0086 171.2613 44 166 C41.0583 162.1391 39.834 155.4566 40 155 C40.0506 154.8608 48 155 48 155 C48 155 46.05 155.1 46 155 C45.8 154.6 45.3747 152.2506 46 151 C47.3288 148.3424 48.3402 146.1526 51 145 C60.811 140.7486 63.7355 139.3627 76 138 C94.0796 135.9912 104.15 137.015 114 138 C114.6221 138.0622 116.1721 141.7246 116 142 C115.4758 142.8386 108.9968 145.996 109 146 C109.0194 146.0243 115.9221 145.8349 120 147 C121.3937 147.3982 122.5243 148.5728 123 150 C124.11 153.3301 125.0225 156.8271 124 159 C122.5332 162.117 116.4865 163.5314 115 167 C113.3702 170.8029 116.6334 174.9183 115 180 C112.7518 186.9943 106 195 106 195 "/>
<path id="10" d="M171 229 C171 229 172.0014 234.9318 171 236 C167.7007 239.5192 163.4715 241.839 156 245 C151.294 246.991 145.9043 247.0822 145 247 C144.9772 246.9979 144.85 244.075 145 244 C145.6 243.7 149.4162 243.2081 151 244 C152.7158 244.8579 154.3001 246.6202 155 249 C156.3932 253.737 156.8228 258.5316 156 261 C155.6474 262.0579 152.8469 263.4306 150 264 C146.1178 264.7764 143.8263 265.1305 141 264 C138.3621 262.9449 135.0772 258.0257 135 258 C134.9871 257.9957 135 262 135 262 "/>
<path id="11" d="M106 270 C106 270 104.9115 263.6192 105 263 C105.0037 262.9742 106.9495 262.8821 107 263 C107.438 264.0221 108.4331 268.7007 108 270 C107.7834 270.6497 105.8914 271.6848 104 272 C100.5081 272.582 98.261 272.8222 96 272 C94.741 271.5422 93.7268 270.0766 93 268 C90.4957 260.8449 89.7721 259.7211 89 252 C88.3456 245.4559 90 238 90 238 "/>
<path id="12" d="M196 193 C196 193 198.5014 195.6732 199 198 C199.7952 201.7112 200.2631 204.3159 199 207 C197.3489 210.5086 195.1819 212.1249 191 215 C187.8829 217.143 183.5089 218.3393 183 218 C182.0387 217.3592 179 207 179 207 "/>
<path id="13" d="M157 194 C157 194 157.648 196.704 157 198 C155.218 201.564 154.3963 202.8301 151 206 C147.3178 209.4367 146.5335 210.0912 142 212 C137.7356 213.7955 136.9752 213.6529 132 214 C115.7736 215.1321 113.0873 216.3416 99 215 C94.943 214.6136 91.6717 212.0432 90 210 C89.1887 209.0084 90 204 90 204 "/>
<path id="14" d="M210 260 C210 260 215.6312 264.1875 219 269 C222.1926 273.5609 222.6173 274.7456 224 280 C224.8982 283.4131 225.2173 285.9306 224 288 C221.7355 291.8497 219.0477 293.5297 214 297 C211.7003 298.5811 208.9771 299 208 299 C207.8371 299 207.0078 296.9965 207 297 C206.2493 297.3336 202.6171 301.4498 199 303 C196.9471 303.8798 194.3854 304.0529 193 303 C185.2785 297.1317 174 284 174 284 "/>
<path id="15" d="M243 229 C243 229 255.427 228.6159 264 232 C272.4001 235.3158 276.8292 238.6707 281 244 C282.9421 246.4815 282.9746 251.6865 282 255 C281.2932 257.4032 277.7783 257.7399 276 261 C272.304 267.776 271.4157 276.3845 270 277 C268.4276 277.6837 253 271 253 271 "/>
<path id="16" d="M261 189 C261 189 273.6488 190.289 285 194 C299.1357 198.6213 304.4249 200.1911 313 206 C315.1591 207.4626 316.2596 214.0481 316 215 C315.8846 215.4231 310.9798 216.1835 310 217 C309.6805 217.2663 310 220 310 220 "/>
<path id="17" d="M364 257 C364 257 367.1787 260.715 368 264 C368.9239 267.6956 369.5091 270.2647 368 273 C363.1661 281.7614 359.1075 289.5289 352 293 C344.4178 296.7029 333.206 294.8206 325 294 C323.9628 293.8963 322.3347 291.7851 322 290 C321.1197 285.3051 322 278 322 278 "/>
<path id="18" d="M388 189 C388 189 393.8112 186.8741 394 187 C394.1618 187.1079 393.1675 191.0019 394 193 C395.1216 195.6918 397.7022 195.9178 399 199 C401.2838 204.4239 402.965 210.3113 402 212 C400.5831 214.4796 389.1919 219.6347 387 220 C386.7092 220.0485 384 215 384 215 "/>
<path id="19" d="M418 178 C418 178 422.424 189.328 425 200 C425.7612 203.1534 425.5694 206.2407 425 207 C424.5526 207.5966 420.2016 208.1717 419 208 C418.7362 207.9623 418 206 418 206 "/>
<path id="20" d="M397 171 C397 171 365.0359 170.87 361 173 C360.0228 173.5157 361 190 361 190 "/>
<path id="21" d="M307 242 C307 242 308.4538 247.4621 308 252 C307.5279 256.7212 305 258.0963 305 262 C305 264.7326 308.2352 268.2159 308 269 C307.8149 269.617 304.844 271.4668 302 272 C297.6663 272.8126 292 272 292 272 "/>
<path id="22" d="M316 300 C316 300 315.6995 305.6009 314 309 C312.7253 311.5493 311.785 312.5147 309 314 C297.7875 319.98 295.8549 321.1646 284 325 C280.2641 326.2087 278.2492 326.4335 275 325 C263.5855 319.9642 250 310 250 310 "/>
<path id="23" d="M166 287 C166 287 167.1421 292.8585 166 295 C164.3915 298.0159 162.2199 299.4212 158 302 C153.7228 304.6138 152.8195 304.866 148 306 C144.9166 306.7255 141.4762 306.5357 141 306 C140.2432 305.1486 140.3984 297.1839 140 297 C139.1795 296.6213 131.6419 300.4047 128 300 C125.9536 299.7726 122 295 122 295 "/>
<path id="24" d="M99 312 C99 312 101.5457 319.6616 105 325 C106.4804 327.2879 107.3543 327.8661 110 329 C117.149 332.0638 118.1812 332.9712 126 334 C136.3262 335.3587 143.3154 334.611 148 334 C148.2963 333.9614 148.9952 330.9968 149 331 C149.0258 331.0172 149.5714 334.5714 151 336 C153.6531 338.6531 155.3629 340.5085 159 341 C171.1577 342.6429 174.9037 342.8274 188 341 C194.7004 340.0651 195.9839 338.6096 202 335 C205.2815 333.0311 208 329 208 329 "/>
<path id="25" d="M231 337 C231 337 241.0406 341.9629 251 344 C262.3429 346.3201 268.4269 346.2528 275 346 C275.5812 345.9776 276.3666 343.0373 277 343 C286.2952 342.4532 294.7444 346.3759 309 344 C322.36 341.7733 330.6506 335.948 337 333 C337.1781 332.9173 337 331 337 331 "/>
<path id="26" d="M210 180 C210 180 223.1945 178.0441 225 179 C225.9101 179.4818 225.0049 186.1736 227 189 C229.4579 192.482 234.3695 193.3695 237 196 C237.4642 196.4642 237.2828 198.8351 237 199 C234.6841 200.351 225 203 225 203 "/>
<path id="27" d="M222 234 C222 234 227.0803 235.6003 229 238 C231.9996 241.7495 232.5426 243.7532 234 249 C234.8235 251.9646 234.4375 255.5625 234 256 C233.5625 256.4375 227 256 227 256 "/>
<path id="28" d="M69 228 C69 228 63.6904 229.7343 63 231 C62.1195 232.6142 61.8236 236.5002 63 239 C64.877 242.9887 71 248 71 248 "/>
</g>
</g>
</svg>
