<?xml version="1.0" encoding="utf-8"?>
<!DOCTYPE svg PUBLIC "-//W3C//DTD SVG 1.1//EN" "http://www.w3.org/Graphics/SVG/1.1/DTD/svg11.dtd">
<svg viewBox="0 0 800 800" preserveAspectRatio="xMinYMin meet" xmlns="http://www.w3.org/2000/svg" version="1.1">
<g fill="none" stroke="black" stroke-linecap="round" stroke-linejoin="round" stroke-width="1.5073">
<g transform="translate(87.52,188.0311) scale(1.9903) translate(-134,-129.4167)">
<path id="0" d="M155 154.4167 L181 154.4167 "/>
<path id="1" d="M181 155.4167 L190 155.4167 "/>
<path id="2" d="M192 159.4167 C192 159.4167 196.551 162.8122 197 165.4167 C198.5051 174.1462 200.2985 182.9615 197 188.4167 C191.8772 196.889 183.8447 201.9943 171 208.4167 C162.4369 212.6982 149 212.4167 149 212.4167 "/>
<path id="3" d="M154 156.4167 C154 156.4167 155.1211 165.9019 153 171.4167 C151.0062 176.6006 147.0603 176.8061 144 182.4167 C141.5692 186.8731 141.5399 188.018 141 193.4167 C140.0923 202.4941 140.0812 210.4769 141 212.4167 C141.2062 212.8519 150 212.4167 150 212.4167 "/>
<path id="4" d="M150 200.4167 C150 200.4167 157.9875 200.7542 159 200.4167 C159.1125 200.3792 159.0276 197.4206 159 197.4167 C158.5673 197.3549 152 199.4167 152 199.4167 "/>
<path id="5" d="M144 211.4167 C144 211.4167 157.1591 213.2694 160 211.4167 C162.9798 209.4733 167 196.4167 167 196.4167 "/>
<path id="6" d="M171 175.4167 C171 175.4167 174.8036 171.646 178 170.4167 C180.1493 169.59 184 170.4167 184 170.4167 "/>
<path id="7" d="M175 175.4167 C175 175.4167 180.9076 172.5707 181 172.4167 C181.0028 172.412 178.1597 170.3767 178 170.4167 C177.8882 170.4446 177 173.4167 177 173.4167 "/>
<path id="8" d="M154 155.4167 C154 155.4167 146.6194 153.9689 143 155.4167 C138.9858 157.0224 136.1713 160.039 134 163.4167 C133.055 164.8867 133.8343 169.3731 134 169.4167 C135.9662 169.9341 153 168.4167 153 168.4167 "/>
<path id="9" d="M148 156.4167 C148 156.4167 159.0727 145.1715 170 137.4167 C173.4272 134.9845 179 134.4167 179 134.4167 "/>
<path id="10" d="M171 136.4167 C171 136.4167 180.7949 130.7317 190 129.4167 C203.8076 127.4442 207.9508 126.4658 220 129.4167 C228.8115 131.5746 230.8767 134.9857 239 141.4167 C242.0047 143.7954 244 148.4167 244 148.4167 "/>
<path id="11" d="M245 146.4167 C245 146.4167 249.2811 150.2545 253 151.4167 C256.1113 152.3889 257.4437 150.5276 261 151.4167 C270.6687 153.8339 271.5045 158.0959 281 158.4167 C341.0294 160.4447 409 156.4167 409 156.4167 "/>
<path id="12" d="M411 157.4167 C411 157.4167 423.8222 160.625 430 166.4167 C437.3598 173.3165 437.6471 176.7108 443 187.4167 C446.4064 194.2295 447.1311 195.1175 448 202.4167 C449.5044 215.0537 450.4715 217.2652 448 229.4167 C444.8474 244.9168 436 261.4167 436 261.4167 "/>
<path id="13" d="M438 264.4167 C438 264.4167 440.5722 289.8745 438 311.4167 C436.8532 321.0214 433.9926 323.4316 430 331.4167 C429.4178 332.5812 427 333.4167 427 333.4167 "/>
<path id="14" d="M362 219.4167 C362 219.4167 369.9553 234.1076 380 244.4167 C387.9074 252.5322 389.6686 252.4353 400 258.4167 C408.3193 263.2331 417.0885 263.3783 418 266.4167 C421.5372 278.2075 419.1771 296.0518 418 318.4167 C417.8832 320.635 415.4345 321.0991 415 323.4167 C414.1407 327.9997 414.3156 333.6638 415 334.4167 C415.5656 335.0388 425 334.4167 425 334.4167 "/>
<path id="15" d="M362 224.4167 C362 224.4167 362.4712 230.4585 365 234.4167 C373.2291 247.297 379.246 248.3607 385 260.4167 C387.991 266.6836 386 278.4167 386 278.4167 "/>
<path id="16" d="M387 278.4167 C387 278.4167 388.7767 300.6501 387 318.4167 C386.5336 323.0804 381.8839 328.3006 382 328.4167 C382.3946 328.8113 397.8918 329.804 398 329.4167 C400.1775 321.6233 401 260.4167 401 260.4167 "/>
<path id="17" d="M387 266.4167 C387 266.4167 378.8464 274.502 370 279.4167 C361.6406 284.0608 360.1832 285.7221 351 286.4167 C303.9067 289.9783 251 288.4167 251 288.4167 "/>
<path id="18" d="M357 285.4167 C357 285.4167 367.8443 281.3238 370 277.4167 C373.2188 271.5826 373 256.4167 373 256.4167 "/>
<path id="19" d="M156 213.4167 C156 213.4167 167.7482 220.3395 178 228.4167 C183.9619 233.1139 185.5908 233.7347 189 239.4167 C192.1767 244.7112 190.2909 247.3965 193 253.4167 C194.4145 256.5601 197.425 256.7719 198 259.4167 C199.3792 265.7609 198 276.4167 198 276.4167 "/>
<path id="20" d="M214 150.4167 C214 150.4167 220.4545 151.4841 225 154.4167 C235.149 160.9644 237.4921 162.2831 245 170.4167 C247.983 173.6483 248.275 175.8252 249 180.4167 C249.6029 184.2353 248.6473 189.1254 248 189.4167 C245.5646 190.5126 233.5032 192.4188 229 189.4167 C218.0975 182.1483 203 159.4167 203 159.4167 "/>
<path id="21" d="M198 271.4167 C198 271.4167 197.4803 277.8575 198 279.4167 C198.1299 279.8065 200.7321 279.8363 201 280.4167 C202.5036 283.6745 203.624 286.5256 204 292.4167 C205.0795 309.3292 204.8085 310.8426 204 327.4167 C203.8591 330.3041 203.4166 331.5954 202 333.4167 C200.7084 335.0772 197.4524 335.3988 197 336.4167 C196.5187 337.4996 197.5171 342.2356 198 342.4167 C200.2288 343.2525 212.3666 343.3035 213 342.4167 C214.2416 340.6785 211.6417 331.1961 213 321.4167 C214.0151 314.108 216.8015 313.907 218 306.4167 C220.6912 289.5966 221 271.4167 221 271.4167 "/>
<path id="22" d="M212 266.4167 C212 266.4167 223.6041 278.0263 225 287.4167 C228.2079 308.9973 221.4187 333.8483 223 340.4167 C223.1388 340.9934 236.7445 342.2798 238 341.4167 C238.8114 340.8588 239 329.4167 239 329.4167 "/>
<path id="23" d="M239 332.4167 C239 332.4167 238.0698 324.3078 239 318.4167 C239.3637 316.1134 241.4345 315.9208 242 313.4167 C244.6795 301.5503 244.2188 293.4283 246 287.4167 C246.1432 286.9334 250 286.4167 250 286.4167 "/>
<path id="24" d="M221 165.4167 C221 165.4167 226.9125 169.1417 230 173.4167 C232.7444 177.2166 234 183.4167 234 183.4167 "/>
<path id="25" d="M155 169.4167 L154 173.4167 "/>
<path id="26" d="M156 170.4167 C156 170.4167 156.0322 176.3845 156 176.4167 C156 176.4167 153 173.4167 153 173.4167 "/>
<path id="27" d="M197 336.4167 C197 336.4167 200.7954 337.1439 201 337.4167 C201.1151 337.5701 200.6557 339.5424 200 340.4167 C199.5629 340.9995 198.0458 341.4396 198 341.4167 C197.9694 341.4014 198 339.4167 198 339.4167 "/>
<path id="28" d="M224 334.4167 L224 336.4167 "/>
<path id="29" d="M387 321.4167 C387 321.4167 387.0078 330.4128 387 330.4167 C386.9991 330.4171 383 323.4167 383 323.4167 "/>
<path id="30" d="M414 323.4167 C414 323.4167 414.9977 333.4151 415 333.4167 C415.001 333.4173 416.9996 325.4175 417 325.4167 C417.0002 325.4163 417 329.4167 417 329.4167 "/>
<path id="31" d="M267 287.4167 C267 287.4167 272.11 283.3866 274 280.4167 C274.66 279.3796 274 276.4167 274 276.4167 "/>
<path id="32" d="M289 288.4167 C289 288.4167 290.8525 284.1347 293 282.4167 C294.8547 280.9329 298.6416 281.253 299 280.4167 C299.9409 278.2212 297.8167 272.44 299 268.4167 C299.6381 266.2473 304 263.4167 304 263.4167 "/>
<path id="33" d="M322 288.4167 C322 288.4167 327.9113 284.3853 330 280.4167 C332.0617 276.4994 332 269.4167 332 269.4167 "/>
</g>
</g>
</svg>
