<?xml version="1.0" encoding="utf-8"?>
<!DOCTYPE svg PUBLIC "-//W3C//DTD SVG 1.1//EN" "http://www.w3.org/Graphics/SVG/1.1/DTD/svg11.dtd">
<svg viewBox="0 0 800 800" preserveAspectRatio="xMinYMin meet" xmlns="http://www.w3.org/2000/svg" version="1.1">
<g fill="none" stroke="black" stroke-linecap="round" stroke-linejoin="round" stroke-width="1.7713">
<g transform="translate(261.9668,87.52) scale(1.6937) translate(-243,-57.1333)">
<path id="0" d="M243 105.1333 C243 105.1333 242.0803 101.3176 243 99.1333 C245.509 93.1746 246.3857 91.9514 251 86.1333 C257.6542 77.7433 257.9689 74.5586 266 70.1333 C279.509 62.6896 283.0332 63.6347 300 59.1333 C307.1375 57.2397 307.5432 57.3495 315 57.1333 C341.7412 56.3582 345.545 53.478 369 57.1333 C379.8024 58.8168 382.0162 62.3701 392 69.1333 C396.5212 72.1961 398.084 73.4802 400 78.1333 C404.2812 88.5305 404.1523 90.8156 406 103.1333 C407.0701 110.2672 407.3209 112.5854 406 118.1333 C405.3668 120.7928 401 124.1333 401 124.1333 "/>
<path id="1" d="M403 125.1333 C403 125.1333 399.5746 125.7336 398 127.1333 C395.8316 129.0608 395.0472 129.9918 394 133.1333 C387.9074 151.4113 389.3915 153.3139 383 172.1333 C380.5506 179.3454 378.4501 178.9272 376 186.1333 C370.1067 203.4667 369.8769 204.041 366 222.1333 C362.4353 238.7688 361.741 239.2378 361 256.1333 C359.2676 295.6328 358.9485 296.8134 361 336.1333 C361.9055 353.4897 362.9559 354.0904 367 371.1333 C369.8755 383.2514 372.6632 383.4491 375 395.1333 C376.4605 402.436 376.6626 405.1953 375 411.1333 C373.8611 415.2009 371.8712 417.6086 368 420.1333 C362.0101 424.0398 359.7272 425.1871 352 426.1333 C336.7623 427.9992 335.1134 427.4761 319 426.1333 C305.6129 425.0177 295.8087 424.2853 292 421.1333 C289.8321 419.3392 288.0181 408.7396 290 402.1333 C292.7143 393.0856 301.5364 390.8119 304 381.1333 C307.4101 367.7366 302.8625 362.3006 304 347.1333 C304.2083 344.3564 306.5963 343.9596 307 341.1333 C307.9421 334.5388 306.1089 333.4105 307 326.1333 C309.0634 309.2819 312.2286 308.9756 313 292.1333 C315.1831 244.4685 316.0721 238.9113 313 195.1333 C312.4438 187.2075 309.9006 185.8794 305 178.1333 C294.6593 161.7884 294.7724 160.6087 282 146.1333 C265.2335 127.1313 254.5965 125.4359 245 110.1333 C241.2718 104.1884 245 87.1333 245 87.1333 "/>
<path id="2" d="M292 120.1333 C292 120.1333 287.0163 114.1659 284 108.1333 C282.3033 104.74 282.4637 104.0744 282 100.1333 C281.4933 95.8263 280.8695 93.9596 282 91.1333 C283.0551 88.4955 284.8729 86.7889 288 85.1333 C292.2898 82.8623 293.6001 82.6919 299 82.1333 C307.5937 81.2443 308.5345 81.041 317 82.1333 C323.3567 82.9535 323.6414 85.2563 330 86.1333 C337.5073 87.1688 338.4941 87.2706 346 86.1333 C354.3304 84.8711 354.9777 81.7838 363 81.1333 C372.1434 80.392 378.6555 80.3979 383 83.1333 C386.3606 85.2492 388.5678 91.211 390 98.1333 C391.201 103.9382 390.7521 106.6267 389 112.1333 C387.7874 115.9443 386.4453 117.5494 383 120.1333 C377.4732 124.2785 375.6443 125.3445 369 127.1333 C363.9806 128.4847 359.4251 128.665 357 127.1333 C354.0537 125.2725 351.8671 120.7346 350 115.1333 C348.8276 111.6162 350.9355 107.3807 350 106.1333 C348.9865 104.782 345.3798 103.6589 341 103.1333 C333.5131 102.2349 326.2571 101.6967 325 103.1333 C322.4521 106.0452 323.2402 118.8855 320 127.1333 C319.2067 129.1527 316.5711 130.6796 314 131.1333 C309.8502 131.8656 307.4618 131.6949 303 130.1333 C298.6365 128.6061 297.7116 127.6495 294 124.1333 C288.5989 119.0165 284 112.1333 284 112.1333 "/>
<path id="3" d="M334 392.1333 C334 392.1333 328.4592 392.3872 328 393.1333 C326.7053 395.2372 324.9186 401.7348 326 405.1333 C327.2241 408.9805 330.8099 412.7075 335 415.1333 C337.9972 416.8685 343.8851 416.9052 345 416.1333 C346.1886 415.3104 347.4536 410.7781 348 406.1333 C348.3633 403.0456 348.215 401.5633 347 399.1333 C345.785 396.7033 343.7829 394.448 342 394.1333 C338.4698 393.5104 330 396.1333 330 396.1333 "/>
</g>
</g>
</svg>
