<?xml version="1.0" encoding="utf-8"?>
<!DOCTYPE svg PUBLIC "-//W3C//DTD SVG 1.1//EN" "http://www.w3.org/Graphics/SVG/1.1/DTD/svg11.dtd">
<svg viewBox="0 0 800 800" preserveAspectRatio="xMinYMin meet" xmlns="http://www.w3.org/2000/svg" version="1.1">
<g fill="none" stroke="black" stroke-linecap="round" stroke-linejoin="round" stroke-width="1.0993">
<g transform="translate(87.52,248.5359) scale(2.7291) translate(-168,-171)">
<path id="0" d="M169 187 L168 273 "/>
<path id="1" d="M172 190 C172 190 173.4695 184.7807 176 183 C184.9144 176.7269 188.4502 173.9012 199 171 C205.709 169.155 209.1484 169.8736 216 172 C221.7324 173.779 224.8494 175.2197 228 180 C237.3484 194.1837 240.0892 207.1606 245 216 C245.1801 216.3242 248 216 248 216 "/>
<path id="2" d="M170 275 C170 275 178.018 280.8031 185 282 C193.5458 283.465 197.6123 284.1662 205 281 C218.5872 275.1769 221.7452 272.1407 234 261 C242.6185 253.165 249 241 249 241 "/>
<path id="3" d="M246 216 C246 216 280.9199 208.7271 316 204 C351.2399 199.2514 387 197 387 197 "/>
<path id="4" d="M253 240 C253 240 287.9205 241.64 322 239 C358.3968 236.1805 395 229 395 229 "/>
<path id="5" d="M390 200 C390 200 395.8413 206.5929 397 212 C398.3548 218.3226 396 228 396 228 "/>
<path id="6" d="M186 199 C186 199 188.6987 209.6041 189 220 C189.6855 243.6498 188 268 188 268 "/>
<path id="7" d="M188 202 C188 202 192.9382 196.0936 197 195 C203.3439 193.292 206.4483 193.4452 214 195 C222.1919 196.6866 229.976 199.0896 231 202 C234.763 212.6949 233.3298 232.5099 233 249 C232.9785 250.0745 231.5689 251.4295 230 252 C222.0163 254.9032 219.4011 253.2936 211 257 C203.3097 260.3928 202.5177 264.7439 196 267 C192.2387 268.302 185 266 185 266 "/>
</g>
</g>
</svg>
