<?xml version="1.0" encoding="utf-8"?>
<!DOCTYPE svg PUBLIC "-//W3C//DTD SVG 1.1//EN" "http://www.w3.org/Graphics/SVG/1.1/DTD/svg11.dtd">
<svg viewBox="0 0 800 800" preserveAspectRatio="xMinYMin meet" xmlns="http://www.w3.org/2000/svg" version="1.1">
<g fill="none" stroke="black" stroke-linecap="round" stroke-linejoin="round" stroke-width="1.1857">
<g transform="translate(119.1475,87.52) scale(2.5302) translate(-238,-83.6333)">
<path id="0" d="M268 183.6333 C268 183.6333 256.8191 175.4525 252 170.6333 C251.5015 170.1348 252.5446 168.3335 252 167.6333 C247.3006 161.5912 240.5164 159.2839 238 152.6333 C235.2725 145.4249 237.752 133.3608 238 130.6333 C238.002 130.6108 239.9404 130.778 240 130.6333 C241.3789 127.2846 241.7315 120.1704 245 113.6333 C246.3409 110.9515 248.0775 109.5632 251 108.6333 C257.405 106.5954 260.0512 108.6601 267 106.6333 C270.9633 105.4774 271.6977 104.6714 275 101.6333 C283.7956 93.5413 284.5905 86.471 292 83.6333 C301.3031 80.0704 318.2666 83.3844 322 83.6333 C322.0166 83.6344 321.8343 85.5505 322 85.6333 C323.9059 86.5863 329.2872 86.5019 332 88.6333 C334.258 90.4075 335.6906 92.9207 336 96.6333 C337.485 114.4538 332.3096 118.8328 336 136.6333 C340.2 156.8923 344.0172 158.2179 353 178.6333 C354.8517 182.8418 354.905 183.3835 358 186.6333 C374.3298 203.7796 374.6661 205.2565 393 220.6333 C405.1512 230.8247 407.7693 228.5114 420 238.6333 C436.2975 252.1209 439.7483 253.1622 451 268.6333 C457.7549 277.9214 458.0834 281.4948 460 293.6333 C462.3213 308.335 461.8267 315.9777 460 325.6333 C459.639 327.5416 456.1396 330.092 453 330.6333 C444.2147 332.148 440.1714 331.367 431 330.6333 C429.6826 330.5279 429.1771 329.8665 428 328.6333 C419.001 319.2058 419.6052 317.8893 410 308.6333 C392.2702 291.5482 387.6915 290.7016 373 275.6333 C371.0964 273.6809 372.6869 270.995 371 268.6333 C368.4553 265.0708 365.8684 265.6491 363 261.6333 C353.9435 248.9542 356.0244 245.7783 346 233.6333 C330.7627 215.1728 329.6381 213.5438 311 198.6333 C295.6753 186.3736 292.5706 184.1432 276 177.6333 C267.8036 174.4133 262.7935 177.9322 255 176.6333 C253.7113 176.4186 252 173.6333 252 173.6333 "/>
<path id="1" d="M280 157.6333 C280 157.6333 274.1771 157.6551 271 155.6333 C264.6177 151.5719 260.7036 148.8325 258 143.6333 C256.1265 140.0305 257.0212 134.5486 258 130.6333 C258.3012 129.4286 260.0495 128.121 262 127.6333 C268.7754 125.9395 271.2876 127.6762 278 125.6333 C281.4441 124.5851 282.6213 123.638 285 120.6333 C291.4309 112.51 290.8733 109.5619 297 101.6333 C298.4873 99.7085 299.6777 99.0978 302 98.6333 C306.147 97.8039 310.7981 98.3929 312 98.6333 C312.0481 98.6429 311.8962 100.5944 312 100.6333 C313.1596 101.0682 317.5548 100.2361 320 101.6333 C322.8527 103.2635 325.6807 105.7068 326 108.6333 C328.002 126.9848 328.6937 139.5734 326 156.6333 C325.4152 160.3371 321.1151 164.1636 317 165.6333 C310.4784 167.9625 306.932 167.4214 298 166.6333 C290.7488 165.9935 288.5854 165.1158 283 162.6333 C281.4094 161.9264 281.6753 159.6994 280 158.6333 C277.0064 156.7283 272 155.6333 272 155.6333 "/>
<path id="2" d="M433 298.6333 C433 298.6333 432.46 307.2283 433 307.6333 C433.96 308.3533 444.3647 308.3745 445 307.6333 C445.8647 306.6245 446.0017 294.7066 445 293.6333 C443.9935 292.5549 431.7981 291.8352 431 292.6333 C429.9563 293.677 430 308.6333 430 308.6333 "/>
</g>
</g>
</svg>
