<?xml version="1.0" encoding="utf-8"?>
<!DOCTYPE svg PUBLIC "-//W3C//DTD SVG 1.1//EN" "http://www.w3.org/Graphics/SVG/1.1/DTD/svg11.dtd">
<svg viewBox="0 0 800 800" preserveAspectRatio="xMinYMin meet" xmlns="http://www.w3.org/2000/svg" version="1.1">
<g fill="none" stroke="black" stroke-linecap="round" stroke-linejoin="round" stroke-width="1.3297">
<g transform="translate(228.5308,87.52) scale(2.2562) translate(-195,-96)">
<path id="0" d="M227 212 C227 212 214.3594 204.0366 205 195 C200.7068 190.8548 200.3311 189.5946 198 184 C195.6131 178.2714 195.1362 177.2646 195 171 C194.6565 155.1978 193.4283 151.7374 197 138 C199.1162 129.8608 201.8904 128.5642 208 121 C212.0307 116.0096 212.5287 115.0396 218 112 C234.0086 103.1063 236.2548 99.7212 253 96 C269.0696 92.429 273.9956 92.3233 290 96 C307.6937 100.0648 310.7775 103.1392 327 113 C334.7148 117.6894 335.5256 119.6096 341 127 C344.9186 132.2901 345.7143 133.7856 347 140 C348.4445 146.9818 348.7403 149.0386 347 156 C344.1176 167.5298 343.1893 172.4353 337 180 C332.5941 185.385 325.4926 183.7362 320 189 C315.6238 193.1939 313.4045 196.4883 313 203 C308.8759 269.3972 313.0429 291.804 310 350 C309.8705 352.4762 307.572 355.1679 305 356 C279.7378 364.1731 273.2242 365.1063 242 372 C235.3261 373.4735 231.9819 373.7027 228 373 C226.9325 372.8116 225.3197 370.8381 225 369 C223.6444 361.2055 223.0137 359.1235 224 350 C226.9223 322.9688 230.3567 322.3142 233 295 C234.7978 276.4225 234.1889 275.7853 233 257 C231.7073 236.5752 228 216 228 216 "/>
<path id="1" d="M237 185 C237 185 230.8005 186.6862 230 186 C227.6356 183.9734 223.9458 179.0805 223 173 C220.8517 159.1895 221.6119 155.9221 223 141 C223.4933 135.697 224.1775 134.3424 227 130 C230.082 125.2585 231.2684 123.5478 236 121 C242.7295 117.3764 244.6712 117.0678 253 116 C263.3868 114.6684 264.283 115.1311 275 116 C282.4255 116.6021 283.7203 116.1456 290 119 C299.0009 123.0913 301.3022 124.9401 308 131 C310.1663 132.96 308.945 135.3846 311 138 C313.9177 141.7135 316.4691 141.3187 319 145 C321.2399 148.258 321.8353 149.8819 322 154 C322.2875 161.1885 322.6307 164.7385 320 170 C317.6014 174.7972 313.8194 177.4635 309 180 C306.6293 181.2477 301.2454 180.4635 301 180 C299.9844 178.0816 300.9348 163.4042 300 163 C296.0188 161.2784 281.8854 162.9682 264 164 C256.0064 164.4612 249.1961 164.4521 248 166 C246.2701 168.2386 248.3923 183.342 247 186 C246.5768 186.8079 237 187 237 187 "/>
</g>
</g>
</svg>
