<?xml version="1.0" encoding="utf-8"?>
<!DOCTYPE svg PUBLIC "-//W3C//DTD SVG 1.1//EN" "http://www.w3.org/Graphics/SVG/1.1/DTD/svg11.dtd">
<svg viewBox="0 0 800 800" preserveAspectRatio="xMinYMin meet" xmlns="http://www.w3.org/2000/svg" version="1.1">
<g fill="none" stroke="black" stroke-linecap="round" stroke-linejoin="round" stroke-width="1.1857">
<g transform="translate(87.52,146.9798) scale(2.5302) translate(-125,-151.1167)">
<path id="0" d="M271 193.1167 C271 193.1167 270.1596 189.6108 271 188.1167 C273.6999 183.3169 275.0592 180.9345 280 177.1167 C284.9793 173.269 286.7987 172.1797 293 171.1167 C302.7251 169.4495 310.8582 168.5281 315 171.1167 C319.2359 173.7641 319.4588 182.1122 325 191.1167 C327.0535 194.4536 327.7845 195.2252 331 197.1167 C335.5057 199.7671 338.3639 198.2886 342 201.1167 C345.8079 204.0783 347.5919 206.2665 349 211.1167 C351.5255 219.8157 352.2503 224.6149 351 232.1167 C350.3849 235.807 347.8822 237.7197 344 241.1167 C340.5093 244.1711 338.8288 245.9203 335 246.1167 C322.6543 246.7498 315.4169 247.5494 305 243.1167 C296.9287 239.6821 293.7844 235.292 288 226.1167 C280.3691 214.0125 280.3569 210.9135 276 197.1167 C274.8041 193.3297 276 188.1167 276 188.1167 "/>
<path id="1" d="M319 156.1167 C319 156.1167 300.1441 154.1931 287 156.1167 C282.9425 156.7104 281.7156 158.5387 278 162.1167 C268.6319 171.1378 263.7411 172.2401 260 182.1167 C253.2131 200.0341 257.0482 205.4466 253 228.1167 C252.0973 233.1716 251.5178 235.3341 250 238.1167 C249.6561 238.7471 247.5402 238.3964 247 239.1167 C245.4626 241.1665 246.2755 244.1722 244 246.1167 C222.1663 264.7745 218.1348 267.3323 192 286.1167 C186.7204 289.9114 185.0626 288.3197 180 292.1167 C171.6391 298.3873 172.4076 303.1422 164 307.1167 C147.9064 314.7246 131.0255 313.4817 125 318.1167 C123.1445 319.544 123.8293 328.3361 125 337.1167 C125.7107 342.4466 126.5595 344.7 129 348.1167 C130.2831 349.9131 132.1702 350.6922 135 351.1167 C141.1423 352.038 143.1089 352.0468 149 351.1167 C151.3033 350.753 152.1625 350.0416 154 348.1167 C162.102 339.6288 160.7429 336.3488 170 329.1167 C207.141 300.1003 211.757 297.3784 250 273.1167 C254.9334 269.9869 256.5909 270.6097 263 270.1167 C275.5947 269.1478 276.1073 269.347 289 270.1167 C309.4492 271.3375 311.7845 275.0429 330 274.1167 C338.1959 273.6999 340.2362 271.5531 348 267.1167 C353.3439 264.063 353.6547 262.9732 358 258.1167 C361.9375 253.7159 362.3767 253.3632 365 248.1167 C369.1778 239.7611 370.0371 238.8094 372 230.1167 C373.3032 224.3454 372.878 222.97 372 217.1167 C371.4968 213.7622 370.9343 213.2889 369 210.1167 C358.6126 193.0813 359.455 190.467 347 176.1167 C337.6565 165.3514 335.2785 164.6035 323 157.1167 C315.8719 152.7703 306 151.1167 306 151.1167 "/>
<path id="2" d="M135 345.1167 C135 345.1167 136.2952 342.766 136 342.1167 C134.7561 339.3802 131.0928 337.3952 130 334.1167 C129.2714 331.931 129.9244 328.3117 131 327.1167 C132.3887 325.5737 136.1079 324.3577 139 324.1167 C140.3438 324.0047 142.5317 325.102 143 326.1167 C144.4517 329.262 145.6879 334.3652 145 337.1167 C144.5742 338.8199 139 342.1167 139 342.1167 "/>
</g>
</g>
</svg>
