<?xml version="1.0" encoding="utf-8"?>
<!DOCTYPE svg PUBLIC "-//W3C//DTD SVG 1.1//EN" "http://www.w3.org/Graphics/SVG/1.1/DTD/svg11.dtd">
<svg viewBox="0 0 800 800" preserveAspectRatio="xMinYMin meet" xmlns="http://www.w3.org/2000/svg" version="1.1">
<g fill="none" stroke="black" stroke-linecap="round" stroke-linejoin="round" stroke-width="0.87846">
<g transform="translate(277.057,87.52) scale(3.4151) translate(-223,-133.4167)">
<path id="0" d="M225 146.4167 C225 146.4167 225.5141 140.6054 227 139.4167 C230.3236 136.7578 233.652 135.2823 240 134.4167 C254.4465 132.4467 269.3568 133.3071 271 133.4167 C271.0425 133.4195 269.9858 136.4111 270 136.4167 C271.752 137.098 285.8057 139.0717 289 140.4167 C289.2601 140.5262 288.3572 143.3453 289 144.4167 C290.5428 146.988 294.6881 148.1553 295 150.4167 C296.0381 157.9431 296.945 165.3689 293 173.4167 C286.539 186.5972 272.301 188.9381 270 201.4167 C261.8958 245.3662 267 314.4167 267 314.4167 "/>
<path id="1" d="M267 314.4167 L243 314.4167 "/>
<path id="2" d="M245 314.4167 C245 314.4167 243.7996 316.3278 243 316.4167 C237.2427 317.0564 227 316.4167 227 316.4167 "/>
<path id="3" d="M223 146.4167 C223 146.4167 223.4777 179.4546 224 184.4167 C224.0043 184.4578 226.9538 184.2934 227 184.4167 C227.3288 185.2934 226.9955 192.4078 227 192.4167 C227.0017 192.42 228.4826 188.5029 229 188.4167 C230.8758 188.104 238.9767 190.2184 239 190.4167 C239.1033 191.2944 231.7009 198.4081 231 205.4167 C227.2207 243.2097 229 249.8161 229 290.4167 C229 293.7602 230.2875 296.1699 231 297.4167 C231.1 297.5917 233 297.4167 233 297.4167 C233 297.4167 227.0479 297.2441 227 297.4167 C226.4903 299.2514 228 315.4167 228 315.4167 "/>
<path id="4" d="M255 143.4167 C255 143.4167 258.6112 141.8738 261 142.4167 C268.1852 144.0497 275.2447 145.7837 277 148.4167 C278.8957 151.2603 277.5802 164.3278 277 166.4167 C276.9552 166.5778 272 166.4167 272 166.4167 C272 166.4167 275.9801 166.3472 276 166.4167 C276.1117 166.8075 275.7043 170.7827 274 173.4167 C270.7485 178.4417 268.8648 182.1284 265 183.4167 C258.4194 185.6102 250.1927 185.5521 244 183.4167 C240.624 182.2525 236 173.4167 236 173.4167 "/>
<path id="5" d="M234 173.4167 C234 173.4167 232.9254 168.7895 233 168.4167 C233.0062 168.3856 235 168.4167 235 168.4167 "/>
<path id="6" d="M255 141.4167 C255 141.4167 247.3777 139.894 243 141.4167 C237.972 143.1655 233.0901 146.2553 232 149.4167 C230.0907 154.9536 233 170.4167 233 170.4167 "/>
</g>
</g>
</svg>
