<?xml version="1.0" encoding="utf-8"?>
<!DOCTYPE svg PUBLIC "-//W3C//DTD SVG 1.1//EN" "http://www.w3.org/Graphics/SVG/1.1/DTD/svg11.dtd">
<svg viewBox="0 0 800 800" preserveAspectRatio="xMinYMin meet" xmlns="http://www.w3.org/2000/svg" version="1.1">
<g fill="none" stroke="black" stroke-linecap="round" stroke-linejoin="round" stroke-width="1.0081">
<g transform="translate(87.52,126.208) scale(2.976) translate(-153,-143)">
<path id="0" d="M164 261 C164 261 217.3956 231.1649 243 203 C253.0589 191.9352 249.867 182.3206 254 162 C255.74 153.4448 253.8935 147.0034 255 144 C255.1934 143.475 258.0298 143.0782 261 143 C276.7721 142.5849 279.1055 139.9895 293 143 C306.3807 145.8991 308.0122 148.4238 321 156 C331.4936 162.1213 332.641 162.641 341 171 C348.4037 178.4037 349.4123 179.6161 354 189 C359.9146 201.098 360.6776 202.8398 363 216 C364.9497 227.048 364.2262 228.6574 363 240 C362.3137 246.3483 360.3271 252.7523 359 253 C344.2996 255.7441 312.3883 243.3964 288 254 C247.0313 271.8125 243.0371 288.7531 198 323 C195.1418 325.1735 194.7713 326.1473 192 327 C189.3171 327.8255 186.241 328.1455 185 327 C177.7043 320.2655 173.34 315.6157 166 303 C157.9252 289.1215 157.4297 285.2892 153 272 C152.4149 270.2448 152.8129 268.3965 154 267 C159.8034 260.1725 170 252 170 252 "/>
<path id="1" d="M271 191 C271 191 277.2993 191.4836 281 194 C288.5365 199.1249 289.7451 200.7575 296 208 C298.6581 211.0778 299.3333 212.1329 300 216 C301.6245 225.4222 301 237 301 237 "/>
<path id="2" d="M268 192 C268 192 269.1618 161.5956 271 157 C271.2234 156.4414 277.0052 155.89 282 157 C294.159 159.702 295.4688 160.0135 307 165 C313.2639 167.7087 314.2986 168.2986 319 173 C325.1118 179.1118 327.2511 180.8988 330 188 C332.3391 194.0426 329.713 196.5997 331 204 C331.5985 207.4415 333.6149 207.6623 334 211 C334.9961 219.6325 334 230 334 230 "/>
<path id="3" d="M302 239 C302 239 312.5511 237.8633 322 235 C328.6007 232.9998 335 229 335 229 "/>
<path id="4" d="M185 273 C185 273 188.4993 282.1662 191 284 C192.6 285.1733 196.3261 284.6123 200 284 C201.3607 283.7732 202.6896 282.8278 203 282 C203.596 280.4107 203.8895 277.5249 203 276 C201.5051 273.4373 198.7324 271.0509 196 270 C194.3515 269.366 190 271 190 271 "/>
<path id="5" d="M204 264 L216 278 "/>
<path id="6" d="M206 263 C206 263 208.8143 259.0928 211 258 C212.4571 257.2714 215.4612 257.7845 216 258 C216.0862 258.0345 216.3245 259.6105 216 260 C214.6748 261.5903 213.26 263.1782 211 264 C208.8992 264.7639 205 264 205 264 "/>
<path id="7" d="M220 252 C220 252 222.9727 252.7159 224 254 C226.2127 256.7659 228 262 228 262 C228 262 221.5891 251.3013 222 250 C222.4388 248.6106 234 243 234 243 "/>
<path id="8" d="M226 255 L235 253 "/>
<path id="9" d="M226 256 C226 256 227.1903 261.8664 228 263 C228.2059 263.2882 229.9334 263.4923 231 263 C235.5401 260.9046 237.2387 260.1344 241 257 C242.3373 255.8855 243 253 243 253 "/>
<path id="10" d="M237 233 C237 233 240.3108 234.0856 242 236 C247.2017 241.8953 252 250 252 250 C252 250 239.96 232.052 240 232 C240.0543 231.9293 261.7665 237.1401 262 237 C262.0172 236.9897 255 223 255 223 "/>
</g>
</g>
</svg>
