<?xml version="1.0" encoding="utf-8"?>
<!DOCTYPE svg PUBLIC "-//W3C//DTD SVG 1.1//EN" "http://www.w3.org/Graphics/SVG/1.1/DTD/svg11.dtd">
<svg viewBox="0 0 800 800" preserveAspectRatio="xMinYMin meet" xmlns="http://www.w3.org/2000/svg" version="1.1">
<g fill="none" stroke="black" stroke-linecap="round" stroke-linejoin="round" stroke-width="1.2001">
<g transform="translate(87.52,261.2589) scale(2.4998) translate(-119,-160.4167)">
<path id="0" d="M172 166.4167 C172 166.4167 169.0303 163.4862 166 162.4167 C161.2141 160.7275 160.453 160.7802 155 160.4167 C145.694 159.7963 142.5443 158.846 136 160.4167 C133.4374 161.0317 131.9491 163.1182 130 166.4167 C125.8883 173.3749 125.4445 174.3499 123 182.4167 C120.5841 190.389 120.6049 190.9479 120 199.4167 C118.627 218.6384 116.6183 221.7446 119 238.4167 C120.1208 246.2623 122.6707 248.2222 128 255.4167 C132.0866 260.9336 133.1735 261.3635 139 265.4167 C144.248 269.0675 145.3187 270.4141 151 271.4167 C160.5713 273.1057 164.1032 273.1386 173 271.4167 C177.1092 270.6213 178.8766 268.7803 182 265.4167 C184.5484 262.6722 185.2632 261.3462 186 257.4167 C188.0525 246.4701 188.5872 244.5737 188 233.4167 C187.6508 226.7815 184 219.4167 184 219.4167 "/>
<path id="1" d="M171 164.4167 L179 196.4167 "/>
<path id="2" d="M180 193.4167 C180 193.4167 181.1775 197.5942 183 199.4167 C184.8225 201.2392 186.1905 202.0925 189 202.4167 C197.8543 203.4383 199.8913 204.1988 209 202.4167 C221.6433 199.943 222.0897 196.0465 235 193.4167 C248.1766 190.7326 249.692 193.265 263 191.4167 C266.961 190.8665 267.2379 188.5032 271 188.4167 C307.8222 187.5702 350 189.4167 350 189.4167 "/>
<path id="3" d="M185 221.4167 C185 221.4167 211.218 219.3782 235 221.4167 C244.7574 222.253 245.2978 226.9316 255 227.4167 C302.7941 229.8064 308.8641 229.4763 355 227.4167 C360.6393 227.1649 365.2218 224.957 367 222.4167 C369.1763 219.3077 370.6582 212.1149 369 207.4167 C366.2227 199.5476 361.0876 194.2144 355 188.4167 C353.4916 186.9801 348 187.4167 348 187.4167 "/>
<path id="4" d="M349 200.4167 C349 200.4167 344.6308 202.1551 344 203.4167 C343.1972 205.0223 343.5625 209.9792 344 210.4167 C344.4375 210.8542 349.9505 211.1163 351 210.4167 C351.8995 209.817 353 206.6023 353 204.4167 C353 202.9596 352.0472 201.1647 351 200.4167 C349.768 199.5367 346 199.4167 346 199.4167 "/>
<path id="5" d="M144 183.4167 C144 183.4167 138.6056 182.6139 137 183.4167 C135.7385 184.0474 134.3123 186.1264 134 188.4167 C133.0185 195.6147 131.9694 198.9189 134 205.4167 C136.1649 212.3445 142.2724 213.5064 144 220.4167 C146.4679 230.2885 142.0111 235.4719 144 245.4167 C144.907 249.9515 148.1434 253.2193 151 255.4167 C152.1666 256.314 157 255.4167 157 255.4167 "/>
<path id="6" d="M142 185.4167 C142 185.4167 147.1805 182.5507 152 181.4167 C155.0834 180.6912 156.3613 180.697 159 181.4167 C160.8163 181.912 161.8836 182.6801 163 184.4167 C165.8482 188.8473 166.9605 190.0461 168 195.4167 C169.7539 204.4786 166.5956 208.2033 169 215.4167 C170.5373 220.0285 174.5586 220.2545 178 225.4167 C180.1509 228.643 180.2731 229.54 181 233.4167 C181.6791 237.0387 181.8444 238.0389 181 241.4167 C180.05 245.2166 179.5399 247.0461 177 249.4167 C173.323 252.8485 171.5188 253.4971 166 255.4167 C160.6462 257.2789 155.3598 258.2966 154 257.4167 C152.2965 256.3144 149 244.4167 149 244.4167 "/>
<path id="7" d="M134 206.4167 C134 206.4167 136.8389 208.6979 137 210.4167 C138.0539 221.6579 135.2544 228.525 137 238.4167 C137.4401 240.9104 143 244.4167 143 244.4167 "/>
</g>
</g>
</svg>
