<?xml version="1.0" encoding="utf-8"?>
<!DOCTYPE svg PUBLIC "-//W3C//DTD SVG 1.1//EN" "http://www.w3.org/Graphics/SVG/1.1/DTD/svg11.dtd">
<svg viewBox="0 0 800 800" preserveAspectRatio="xMinYMin meet" xmlns="http://www.w3.org/2000/svg" version="1.1">
<g fill="none" stroke="black" stroke-linecap="round" stroke-linejoin="round" stroke-width="2.4242">
<g transform="translate(87.52,153.7286) scale(1.2375) translate(-28,-64.1333)">
<path id="0" d="M142 354.1333 C142 354.1333 135.1809 279.8556 139 243.1333 C139.5405 237.9366 146.9155 234.8598 155 229.1333 C158.1584 226.8961 159.1697 226.4069 163 226.1333 C178.8539 225.0009 180.1448 225.0799 197 226.1333 C227.9219 228.0659 228.7199 232.5887 259 232.1333 C293.785 231.6102 294.5843 225.7596 330 224.1333 C392.0534 221.2839 395.0252 222.679 455 223.1333 C458.3661 223.1588 458.7761 223.7517 462 225.1333 C465.5756 226.6657 466.8141 226.9474 469 229.1333 C470.391 230.5244 470.6793 231.7277 471 234.1333 C471.609 238.7009 471.9714 239.5537 471 244.1333 C468.6214 255.3465 465.1863 255.7979 464 267.1333 C460.8405 297.3242 462 330.1333 462 330.1333 "/>
<path id="1" d="M390 223.1333 C390 223.1333 383.0788 206.8397 381 191.1333 C378.7453 174.0978 379.9126 172.5319 381 155.1333 C381.3681 149.2432 384.0943 143.1687 384 143.1333 C381.7993 142.3081 366.0756 141.4469 349 143.1333 C326.1723 145.3879 325.8209 149.649 303 151.1333 C265.227 153.5901 263.7601 149.5921 226 151.1333 C215.6217 151.5569 214.9637 152.331 205 155.1333 C199.413 156.7047 198.6848 156.9391 194 160.1333 C188.2068 164.0832 184.3555 165.7279 183 170.1333 C180.0319 179.7797 183.5502 184.923 182 199.1333 C180.5863 212.0921 177 225.1333 177 225.1333 "/>
<path id="2" d="M238 153.1333 C238 153.1333 235.7882 132.6678 238 118.1333 C238.7624 113.123 241.0262 111.9019 245 107.1333 C248.2262 103.2618 248.858 101.7006 253 100.1333 C265.3104 95.4753 267.7312 95.5115 282 93.1333 C288.149 92.1085 289.3062 91.6421 295 93.1333 C308.9633 96.7904 320.2742 98.3849 324 104.1333 C329.8632 113.1794 330 147.1333 330 147.1333 "/>
<path id="3" d="M65 357.1333 C65 357.1333 100.9045 358.6339 136 363.1333 C159.0585 366.0895 159.2297 369.287 182 372.1333 C194.5629 373.7037 195.7058 373.9775 208 372.1333 C224.7153 369.626 225.5493 363.9842 242 363.1333 C281.0653 361.1127 284.4045 368.0492 324 366.1333 C344.5272 365.1401 345.3355 359.0119 366 357.1333 C388.1562 355.1191 392.1435 360.1526 412 358.1333 C417.932 357.5301 418.5051 353.3816 425 351.1333 C430.7661 349.1374 431.5373 349.3488 438 349.1333 C476.1002 347.8633 492.2987 345.9453 515 348.1333 C517.0272 348.3287 518.9403 352.4522 521 357.1333 C524.2205 364.4526 524.8388 365.1501 526 373.1333 C528.7376 391.9546 529 412.1333 529 412.1333 "/>
<path id="4" d="M529 412.1333 C529 412.1333 528.1566 417.127 529 421.1333 C530.0161 425.9597 532.2283 426.3105 533 431.1333 C534.0879 437.9324 533 446.1333 533 446.1333 "/>
<path id="5" d="M533 446.1333 C533 446.1333 511.0384 447.2192 490 451.1333 C468.427 455.1469 467.9069 461.1135 447 462.1333 C388.9642 464.9643 385.2422 462.7359 326 459.1333 C312.6222 458.3198 312.413 454.2628 299 453.1333 C265.7575 450.334 264.5339 453.3689 231 451.1333 C220.0408 450.4027 219.9117 448.1725 209 447.1333 C199.2491 446.2047 197.2739 445.6558 189 447.1333 C185.3211 447.7903 185.0911 450.8549 181 452.1333 C170.0636 455.551 168.8506 456.4523 157 457.1333 C126.2602 458.9 125.0477 459.0913 94 457.1333 C70.1271 455.6278 65.8358 449.8234 46 450.1333 C39.3212 450.2377 30 458.1333 30 458.1333 "/>
<path id="6" d="M30 458.1333 C30 458.1333 27.2262 423.8603 28 392.1333 C28.1889 384.3893 29.4426 383.8055 32 376.1333 C33.8689 370.5267 33.737 369.6199 37 365.1333 C41.2358 359.3091 43.2315 356.756 48 354.1333 C50.5171 352.7489 53.1358 353.1673 57 354.1333 C62.2596 355.4482 68 359.1333 68 359.1333 "/>
<path id="7" d="M144 350.1333 L143 365.1333 "/>
<path id="8" d="M461 329.1333 L465 346.1333 "/>
<path id="9" d="M202 373.1333 C202 373.1333 201.0317 355.0936 200 353.1333 C199.8427 352.8344 192.1216 353.7281 192 354.1333 C191.3421 356.3264 194 373.1333 194 373.1333 "/>
<path id="10" d="M286 366.1333 C286 366.1333 285.322 355.707 286 355.1333 C286.947 354.332 297.9015 354.3728 299 355.1333 C299.5265 355.4978 299 364.1333 299 364.1333 "/>
<path id="11" d="M397 360.1333 C397 360.1333 393.6042 337.6998 393 337.1333 C392.8936 337.0336 382.1837 342.8975 381 345.1333 C380.3888 346.2879 384 354.1333 384 354.1333 "/>
<path id="12" d="M342 221.1333 C342 221.1333 342.201 205.7039 341 204.1333 C340.3796 203.322 329.4911 203.3778 329 204.1333 C327.6998 206.1337 328 224.1333 328 224.1333 "/>
<path id="13" d="M250 231.1333 C250 231.1333 249.3028 218.4362 248 217.1333 C247.0229 216.1562 236.4009 216.6121 236 217.1333 C235.5022 217.7805 238 230.1333 238 230.1333 "/>
<path id="14" d="M283 92.1333 C283 92.1333 283.08 72.59 284 71.1333 C284.2104 70.8002 294.6489 72.3141 295 73.1333 C295.9487 75.3471 293 92.1333 293 92.1333 "/>
<path id="15" d="M221 150.1333 C221 150.1333 219.6073 135.7144 219 133.1333 C218.9836 133.0638 217.2618 132.8715 217 133.1333 C216.2146 133.9187 216.0472 136.3853 215 137.1333 C213.768 138.0133 210.0536 137.8655 210 138.1333 C209.6358 139.9543 212 152.1333 212 152.1333 "/>
<path id="16" d="M274 151.1333 C274 151.1333 271.8234 136.4108 272 136.1333 C272.0222 136.0984 279.975 138.4251 281 140.1333 C282.1994 142.1324 281 151.1333 281 151.1333 "/>
<path id="17" d="M351 145.1333 C351 145.1333 349.2927 137.5478 350 136.1333 C350.5408 135.0517 356.8484 133.0007 357 133.1333 C357.3377 133.4289 358 143.1333 358 143.1333 "/>
<path id="18" d="M157 226.1333 C157 226.1333 156.7391 212.4594 157 212.1333 C157.0447 212.0774 164.0333 214.4417 165 216.1333 C166.1278 218.1069 165 226.1333 165 226.1333 "/>
<path id="19" d="M415 225.1333 C415 225.1333 414.2023 213.9947 415 212.1333 C415.2192 211.622 420.8999 210.9665 421 211.1333 C421.4236 211.8393 421 222.1333 421 222.1333 "/>
<path id="20" d="M486 347.1333 C486 347.1333 484.0839 346.5249 484 346.1333 C483.2238 342.511 482.5004 333.7995 483 333.1333 C483.2651 332.7799 492.418 333.3185 493 334.1333 C493.9291 335.4341 493 347.1333 493 347.1333 "/>
<path id="21" d="M104 360.1333 C104 360.1333 103.9859 339.9679 103 337.1333 C102.8972 336.8377 96.0686 336.8981 96 337.1333 C95.1936 339.8981 96 361.1333 96 361.1333 "/>
<path id="22" d="M102 336.1333 C102 336.1333 103.1995 329.128 103 327.1333 C102.9731 326.8644 101.949 326.3231 101 326.1333 C99.7059 325.8745 98.0375 326.0208 98 326.1333 C97.6625 327.1458 97.4636 333.3452 98 335.1333 C98.1132 335.5108 101 336.1333 101 336.1333 "/>
<path id="23" d="M197 352.1333 C197 352.1333 200.353 345.1924 200 344.1333 C199.6806 343.1751 193.2899 340.0045 193 340.1333 C192.6916 340.2704 190.4864 346.9007 191 348.1333 C191.4957 349.3229 198 352.1333 198 352.1333 "/>
<path id="24" d="M295 356.1333 C295 356.1333 291.0994 355.477 290 354.1333 C287.7848 351.4259 286.7929 349.0978 286 345.1333 C285.5307 342.787 286.7929 339.211 287 339.1333 C287.3744 338.9929 293.1794 340.6972 294 342.1333 C295.3565 344.5073 295 353.1333 295 353.1333 "/>
<path id="25" d="M389 342.1333 C389 342.1333 388.9894 332.8295 388 331.1333 C387.6156 330.4744 382.1466 329.9378 382 330.1333 C381.623 330.6361 381.4808 338.3545 382 339.1333 C382.2308 339.4795 388 339.1333 388 339.1333 "/>
<path id="26" d="M489 333.1333 C489 333.1333 491 330.6808 491 329.1333 C491 326.0383 489.4752 321.7986 489 321.1333 C488.9424 321.0527 486.0506 321.8549 486 322.1333 C485.6784 323.9023 487 332.1333 487 332.1333 "/>
<path id="27" d="M334 206.1333 C334 206.1333 336.98 206.0076 338 205.1333 C339.53 203.8219 340.363 202.4689 341 200.1333 C341.6569 197.7248 341.5075 194.8438 341 194.1333 C340.6133 193.592 336.0485 193.0364 336 193.1333 C335.6446 193.8442 336 204.1333 336 204.1333 "/>
<path id="28" d="M419 213.1333 C419 213.1333 419.45 202.4833 419 201.1333 C418.95 200.9833 415.1951 200.8894 415 201.1333 C414.6951 201.5144 414.2639 204.5138 415 206.1333 C416.218 208.8129 420 212.1333 420 212.1333 "/>
<path id="29" d="M244 218.1333 C244 218.1333 238.255 216.026 238 215.1333 C237.4358 213.1588 239.8543 204.3034 240 204.1333 C240.0065 204.1257 243.4644 206.3927 244 208.1333 C244.9215 211.1283 244.4531 214.8677 244 217.1333 C243.9295 217.4858 242 218.1333 242 218.1333 "/>
<path id="30" d="M161 214.1333 C161 214.1333 160.8432 204.2677 161 204.1333 C161.0653 204.0773 167.1338 206.834 168 208.1333 C168.4331 208.783 167.5453 212.6789 167 213.1333 C166.4723 213.5731 162 213.1333 162 213.1333 "/>
<path id="31" d="M214 137.1333 C214 137.1333 210.4833 135.9792 210 135.1333 C209.4361 134.1465 209.5669 130.9996 210 130.1333 C210.2166 129.7002 212.2951 128.9924 213 129.1333 C213.6042 129.2542 214.922 130.4309 215 131.1333 C215.242 133.3109 214 138.1333 214 138.1333 "/>
<path id="32" d="M278 139.1333 C278 139.1333 273.8911 137.3809 273 136.1333 C272.4576 135.3739 272.6666 132.4112 273 132.1333 C273.6835 131.5638 278.9609 131.0551 279 131.1333 C279.1565 131.4464 277 140.1333 277 140.1333 "/>
<path id="33" d="M357 135.1333 C357 135.1333 357.3199 126.4132 357 126.1333 C356.7461 125.9112 349.3832 127.7501 349 128.1333 C348.9234 128.21 350.1542 131.5694 351 132.1333 C351.725 132.6167 355 132.1333 355 132.1333 "/>
<path id="34" d="M293 74.1333 C293 74.1333 295.9005 70.8821 297 68.1333 C297.5787 66.6866 297.2308 64.2872 297 64.1333 C296.4808 63.7872 291.27 63.7733 291 64.1333 C290.52 64.7733 290.5565 70.1375 291 72.1333 C291.0801 72.4937 293 73.1333 293 73.1333 "/>
</g>
</g>
</svg>
