<?xml version="1.0" encoding="utf-8"?>
<!DOCTYPE svg PUBLIC "-//W3C//DTD SVG 1.1//EN" "http://www.w3.org/Graphics/SVG/1.1/DTD/svg11.dtd">
<svg viewBox="0 0 800 800" preserveAspectRatio="xMinYMin meet" xmlns="http://www.w3.org/2000/svg" version="1.1">
<g fill="none" stroke="black" stroke-linecap="round" stroke-linejoin="round" stroke-width="1.0129">
<g transform="translate(87.52,185.2626) scale(2.9619) translate(-246,-166.1333)">
<path id="0" d="M247 166.1333 C247 166.1333 244.8341 208.8703 246 251.1333 C246.8251 281.0444 248.6057 304.821 251 311.1333 C251.1721 311.587 266.5236 310.7737 268 309.1333 C269.6129 307.3412 268.2173 296.0904 269 291.1333 C269.0567 290.7741 270.9937 290.407 271 290.1333 C271.5173 267.6301 273.8707 245.3993 271 204.1333 C270.0134 189.951 268.0691 187.6371 263 175.1333 C261.2961 170.9305 259.3446 169.6418 256 167.1333 C254.5207 166.0238 251 166.1333 251 166.1333 C251.0002 166.1334 322.2754 166.7913 383 181.1333 C416.4027 189.0224 431.5864 199.9807 450 213.1333 C453.2495 215.4544 453 231.1333 453 231.1333 "/>
<path id="1" d="M453 228.1333 C453 228.1333 451.0166 228.8426 451 229.1333 C450.493 238.0057 449.4286 246.6337 451 263.1333 C452.3667 277.4838 454.7978 277.8193 457 292.1333 C457.7359 296.9169 457.7109 299.2897 457 302.1333 C456.8045 302.9153 455.5073 303.7314 454 304.1333 C448.6533 305.5591 447.9398 305.983 442 306.1333 C408.9754 306.9694 408.3489 307.1142 375 306.1333 C357.535 305.6197 357.4357 303.4562 340 303.1333 C303.7009 302.4611 267 304.1333 267 304.1333 "/>
<path id="2" d="M273 220.1333 C273 220.1333 310.2826 230.3901 347 233.1333 C395.9753 236.7924 447 233.1333 447 233.1333 "/>
<path id="3" d="M275 260.1333 C275 260.1333 275.8343 263.2591 277 264.1333 C278.7485 265.4447 279.9727 265.5927 283 266.1333 C293.7317 268.0497 294.057 268.8376 305 269.1333 C367.4567 270.8214 372.7622 272.9256 431 270.1333 C440.425 269.6814 451 262.1333 451 262.1333 "/>
</g>
</g>
</svg>
