<?xml version="1.0" encoding="utf-8"?>
<!DOCTYPE svg PUBLIC "-//W3C//DTD SVG 1.1//EN" "http://www.w3.org/Graphics/SVG/1.1/DTD/svg11.dtd">
<svg viewBox="0 0 800 800" preserveAspectRatio="xMinYMin meet" xmlns="http://www.w3.org/2000/svg" version="1.1">
<g fill="none" stroke="black" stroke-linecap="round" stroke-linejoin="round" stroke-width="2.7698">
<g transform="translate(87.52,146.0085) scale(1.0831) translate(-63,-9)">
<path id="0" d="M201 130 C201 130 200.2121 124.4649 201 120 C201.5933 116.6382 202.0187 116.0482 204 113 C208.3169 106.3586 208.2502 105.2424 214 100 C224.6328 90.3054 225.4856 88.5985 238 82 C251.7509 74.7495 253.3529 74.4389 269 71 C298.0199 64.622 299.1653 64.3148 329 62 C356.5254 59.8644 357.5015 59.8291 385 62 C413.8294 64.276 414.7023 65.1334 443 71 C455.1284 73.5144 455.4425 74.2026 467 79 C481.7262 85.1128 482.6979 84.9031 496 93 C505.0479 98.5074 507.2186 99.842 513 107 C516.1754 110.9314 516.064 113.1499 517 119 C517.9627 125.0167 519.1802 127.8213 517 132 C509.3656 146.6325 505.3545 149.943 493 165 C490.0542 168.5902 489.1104 169.7871 485 171 C461.2136 178.0189 458.2667 180.0563 432 183 C401.4958 186.4186 399.4657 187.4909 369 184 C305.2273 176.6927 302.5322 174.098 240 161 C230.3384 158.9763 229.1202 158.1879 221 153 C212.0472 147.2801 204 138 204 138 "/>
<path id="1" d="M249 70 C249 70 246.8464 65.9475 244 64 C238.1262 59.9811 236.6499 58.6625 230 57 C224.0889 55.5222 222.5043 55.9159 216 57 C208.1793 58.3034 206.9459 58.415 200 62 C192.2703 65.9895 191.2806 67.0185 185 73 C181.4077 76.4212 182.5638 80.0201 179 82 C159.6689 92.7395 142.6784 92.864 131 103 C126.292 107.0862 127.3453 115.8927 126 128 C125.4268 133.1587 124.9643 136.2144 127 139 C131.8856 145.6855 142.7544 147.7916 145 154 C148.3029 163.1315 143.2592 171.9243 144 186 C144.1428 188.7131 144.993 189.8497 147 192 C151.394 196.7079 153.0626 198.884 158 201 C161.3233 202.4243 165.6196 199.4131 168 201 C173.8716 204.9144 174.4755 210.0329 182 217 C187.5708 222.1582 188.3542 221.8859 195 226 C198.7489 228.3208 199.0261 229.2052 203 230 C215.4637 232.4927 217.1862 232.6441 230 233 C234.2319 233.1176 235.3758 232.8121 239 231 C243.5303 228.7349 243.9338 225.6743 248 224 C250.7376 222.8727 253.2198 222.6438 256 224 C270.8588 231.2482 272.4398 236.4727 289 244 C298.5498 248.3408 300.2487 248.085 311 249 C322.9448 250.0166 325.1549 251.0728 336 248 C352.9576 243.1953 353.8332 237.0656 371 232 C382.4917 228.609 386.3085 227.4468 397 230 C415.9758 234.5315 417.8906 241.9972 438 248 C449.5336 251.4429 452.2722 251.091 464 250 C471.977 249.2579 473.6347 247.8299 481 244 C485.261 241.7843 484.7451 239.5529 489 237 C494.2314 233.8611 495.274 232.5965 501 232 C517.4634 230.2851 519.5235 233.07 537 232 C543.4001 231.6082 544.7846 231.6077 550 229 C555.5751 226.2125 557.2188 224.7895 561 220 C563.8134 216.4364 563.2298 215.0579 565 210 C566.7159 205.0974 567.4944 204.8877 568 200 C568.9318 190.9928 565.1835 185.4595 568 181 C573.0635 172.9828 581.9735 172.3129 592 162 C598.5593 155.2533 598.5436 153.5945 603 145 C605.2682 140.6256 605.5279 139.7212 606 135 C606.4538 130.4621 606.8516 128.4387 605 125 C600.9589 117.4951 597.156 117.1889 592 109 C589.118 104.4227 590.6356 102.217 588 98 C586.2917 95.2667 585.2181 94.6857 582 93 C575.226 89.4517 574.6237 88.9433 567 87 C549.5732 82.5579 548.8312 82.0132 531 80 C518.3985 78.5773 508.9676 81.0286 505 80 C504.5705 79.8886 505.1805 73.8995 504 73 C498.9938 69.1857 493.8694 66.0073 484 64 C466.0926 60.3578 450.5088 62.13 445 61 C444.8574 60.9707 445.7705 57.6694 445 56 C443.3405 52.4044 442.4991 50.4225 439 48 C430.8354 42.3476 428.726 40.0476 419 38 C402.5353 34.5337 398.6065 35.6226 382 36 C378.8237 36.0722 375.7841 39.2352 375 39 C374.383 38.8149 373.7176 34.7176 372 33 C370.6641 31.6641 369.5445 31.5566 367 31 C353.8537 28.1242 353.3843 27.4548 340 26 C330.7672 24.9964 329.2671 23.7453 321 26 C298.4138 32.1599 297.5956 36.4625 274 44 C262.1028 47.8005 260.44 46.14 249 49 C247.4747 49.3813 246.3594 50.1613 246 51 C245.453 52.2763 246.7611 54.9535 246 56 C244.2011 58.4735 238 62 238 62 "/>
<path id="2" d="M165 205 C165 205 182.1877 234.986 192 265 C198.5991 285.1855 196.8145 287.1453 199 309 C200.2712 321.7119 200.4426 322.4972 199 335 C197.519 347.8357 198.3073 351.6591 193 361 C187.8034 370.146 174 379 174 379 "/>
<path id="3" d="M543 233 C543 233 540.5076 232.577 540 233 C538.7873 234.0105 537.2655 235.6637 537 238 C535.0501 255.1592 533.3994 258.1131 535 277 C538.2983 315.9197 540.039 316.9411 547 356 C548.9791 367.1052 553.0669 376.5283 553 378 C552.999 378.0216 549.0264 377.2036 546 378 C540.2431 379.515 539.9896 381.9219 534 383 C516.022 386.236 514.9416 386.3524 496 387 C456.7626 388.3414 455.4477 391.2523 417 387 C348.5463 379.4291 347.9959 374.4288 279 363 C266.6092 360.9475 266.4518 360.5261 254 360 C231.2042 359.0368 230.0942 358.0788 208 360 C196.7023 360.9824 193.7431 361.1683 185 366 C177.2623 370.2761 170 381 170 381 "/>
<path id="4" d="M165 376 C165 376 165.7903 372.3709 165 370 C163.595 365.785 163.0205 364.9815 160 361 C152.2331 350.7618 151.7594 348.2995 143 341 C138.5336 337.278 136.4169 337.2834 130 336 C122.1164 334.4233 117.7261 333.0444 113 335 C108.0479 337.0491 104.8965 340.9285 101 348 C92.2054 363.9605 95.2699 367.6556 86 384 C76.8264 400.1745 70.613 401.429 63 415 C61.2659 418.0912 61.7017 421.4761 63 425 C64.5033 429.0803 65.8227 431.3049 70 434 C94.4643 449.7834 97.2232 452.2291 125 465 C139.4946 471.6642 140.9256 470.4582 157 474 C170.1882 476.9059 170.5995 477.6144 184 478 C239.3512 479.5928 241.5875 480.6823 296 478 C310.7424 477.2733 310.8795 473.6373 326 471 C482.549 443.6949 592.6497 432.5693 640 418 C641.61 417.5046 643.224 390.9094 638 375 C634.3423 363.8607 628.8795 361.3488 618 351 C609.0412 342.4782 607.6653 340.6661 597 336 C585.5366 330.9848 583.3159 332.0486 570 330 C564.2775 329.1196 562.0111 327.9944 558 330 C542.7911 337.6045 524 353 524 353 "/>
<path id="5" d="M622 416 C622 416 625 419.5789 625 422 C625 428.4562 625.2104 433.5666 622 438 C617.4006 444.3515 613.4647 446.9229 604 451 C582.5594 460.2359 580.695 461.0787 557 466 C516.5785 474.3952 515.2875 474.9604 474 478 C434.624 480.8988 433.7308 479.9263 394 478 C351.5934 475.9439 351.3851 472.9485 309 470 C294.1378 468.9661 292.7059 471.9988 279 470 C270.3101 468.7327 261 463 261 463 "/>
<path id="6" d="M177 399 C177 399 194.4973 408.7284 209 421 C226.4562 435.7706 227.4561 438.2094 242 454 C243.5697 455.7043 243.9987 459 244 459 C244 459 244 454 244 454 "/>
<path id="7" d="M426 32 C426 32 421.4345 117.1116 423 124 C423.021 124.0926 436.2296 123.4484 446 120 C451.5326 118.0473 455.7737 115.3443 457 112 C459.2419 105.8857 458.9501 100.2705 457 90 C451.695 62.0604 447.8364 43.9197 442 33 C441.1426 31.3958 426 32 426 32 "/>
<path id="8" d="M426 27 C426 27 426.9148 21.7107 429 19 C431.1007 16.269 432.544 15.5951 436 14 C438.3992 12.8927 441.9325 12.8785 442 13 C442.2732 13.4917 442.4249 19.2002 441 23 C439.9184 25.8842 436.9024 28.8359 436 29 C435.2188 29.142 430 25 430 25 "/>
<path id="9" d="M337 37 C337 37 340.0613 52.5119 341 68 C343.0467 101.7703 342.994 135.9271 343 136 C343.0006 136.0072 343.8835 130.494 346 129 C357.4606 120.9102 362.5293 120.8432 377 112 C379.8165 110.2788 381.2714 109.1857 382 107 C383.0928 103.7215 382.923 101.384 382 97 C381.0916 92.6852 380.6609 91.8704 378 88 C369.9891 76.3477 369.6254 75.7993 360 65 C349.2759 52.9681 347.0979 53.8389 337 42 C333.1811 37.5226 333.7848 33.5705 331 31 C329.6341 29.7392 325.8877 31.3483 324 30 C320.7141 27.6529 319.0011 25.0022 317 21 C316.1996 19.3991 316.2658 17.0488 317 16 C318.4536 13.9234 320.6687 11.7287 324 11 C334.4698 8.7097 346.4526 8.5924 349 9 C349.0991 9.0159 349.9923 13.3131 349 15 C346.208 19.7464 342.6974 20.1277 339 26 C334.6376 32.9285 332 42 332 42 "/>
<path id="10" d="M230 35 C230 35 234.5578 51.1359 236 67 C237.5066 83.5731 237.9422 84.9076 236 101 C234.5808 112.7592 228.8744 123.4931 229 125 C229.004 125.0483 234.2474 126.2509 238 125 C256.485 118.8383 259.7968 117.96 277 109 C281.9747 106.409 284.3042 103.9568 286 100 C287.5827 96.307 288.1107 91.849 286 88 C273.9257 65.9821 269.3147 60.952 252 38 C248.8438 33.8163 246.6584 32.3719 243 31 C240.9151 30.2182 236 32 236 32 "/>
<path id="11" d="M231 32 L232 32 "/>
<path id="12" d="M234 30 C234 30 230.1679 24.0877 229 20 C228.6204 18.6715 229.9963 15.9993 230 16 C230.0933 16.0187 233.3428 18.6342 234 21 C235.4279 26.1403 235 34 235 34 "/>
</g>
</g>
</svg>
