<?xml version="1.0" encoding="utf-8"?>
<!DOCTYPE svg PUBLIC "-//W3C//DTD SVG 1.1//EN" "http://www.w3.org/Graphics/SVG/1.1/DTD/svg11.dtd">
<svg viewBox="0 0 800 800" preserveAspectRatio="xMinYMin meet" xmlns="http://www.w3.org/2000/svg" version="1.1">
<g fill="none" stroke="black" stroke-linecap="round" stroke-linejoin="round" stroke-width="1.8001">
<g transform="translate(105.0189,87.52) scale(1.6666) translate(-72,-32)">
<path id="0" d="M72 74 C72 74 71.1766 77.8472 72 79 C74.6584 82.7218 78.0684 82.8996 82 88 C96.0743 106.2585 93.7815 113.3956 109 127 C122.9922 139.5082 128.381 139.4986 148 147 C161.1618 152.0325 162.52 151.2965 177 153 C196.1251 155.25 197.499 152.7799 216 155 C221.4126 155.6495 221.6842 158.6607 227 159 C266.2607 161.506 268.9837 158.116 310 161 C332.4429 162.578 332.6581 165.5176 355 168 C363.7849 168.9761 366.6195 170.7689 373 168 C388.9445 161.0807 400.0373 156.2643 408 145 C414.545 135.7413 412.0345 127.3615 414 110 C414.9916 101.2412 414.5235 100.8998 414 92 C413.5312 84.0309 413.8655 83.151 412 76 C411.0918 72.5186 410.5262 71.021 408 69 C401.895 64.116 400.2352 62.5812 392 60 C368.0389 52.4898 366.3718 51.5879 341 48 C317.7535 44.7126 316.6594 48.581 293 46 C262.0429 42.6229 261.8816 38.8788 231 36 C203.4744 33.4341 202.5265 33.4271 175 35 C150.6929 36.389 149.7188 38.0469 126 42 C123.4784 42.4203 121.9282 42.917 121 44 C120.135 45.0091 120.5009 48.8122 120 49 C117.3211 50.0046 110.5908 47.8036 105 50 C98.8514 52.4155 98.6705 56.5412 92 60 C86.1038 63.0573 83.874 61.5813 78 64 C76.41 64.6547 75.3108 65.6016 75 67 C72.9094 76.4076 72.1052 79.1166 72 91 C71.6105 135.0103 71.8806 136.341 74 180 C74.3365 186.9316 76.5299 187.0419 77 194 C78.9906 223.4611 78.5288 224.0016 79 254 C80.0283 319.4701 80 385 80 385 "/>
<path id="1" d="M416 91 C416 91 417.0752 131.2747 415 171 C413.592 197.9526 410.7005 198.0357 409 225 C407.2156 253.2955 406.5423 254.0119 408 282 C409.0063 301.3209 412.9711 301.6233 414 321 C415.9364 357.4682 412.0178 360.9067 414 395 C414.3292 400.6626 419.1339 407 419 407 C417.1518 407 384.2461 397.7956 350 395 C311.829 391.884 310.8767 394.0281 272 395 C251.029 395.5243 250.9729 397.1497 230 398 C214.0668 398.6459 213.6283 399.4208 198 398 C181.1285 396.4662 180.8588 393.9452 164 392 C155.2529 390.9907 154.3948 390.8807 146 392 C140.1547 392.7794 139.7322 395.5352 134 396 C122.41 396.9397 121.0712 396.5089 109 395 C101.5531 394.0691 101.3749 391.8939 94 391 C85.4273 389.9609 76 391 76 391 C76 391 78.869 391.2358 79 391 C79.7946 389.5697 81 382 81 382 "/>
<path id="2" d="M164 52 L163 60 "/>
<path id="3" d="M163 58 L168 57 "/>
<path id="4" d="M169 51 C169 51 167.0628 51.6544 167 52 C166.5392 54.5343 167 62 167 62 "/>
<path id="5" d="M178 53 C178 53 175.5363 52.5233 175 53 C172.6563 55.0833 169 61 169 61 C169 61 178.9986 46.999 179 47 C179.0267 47.0178 178 67 178 67 "/>
<path id="6" d="M171 60 L177 59 "/>
<path id="7" d="M189 54 L186 68 "/>
<path id="8" d="M186 54 C186 54 187.72 50.64 189 50 C190.28 49.36 192.7237 49.453 194 50 C194.8387 50.3594 196.1297 52.4164 196 53 C195.6504 54.5732 193.9507 57.6345 192 59 C190.4061 60.1157 186 60 186 60 "/>
<path id="9" d="M203 54 L201 72 "/>
<path id="10" d="M202 50 C202 50 211.241 50.1651 212 51 C212.7521 51.8274 212.504 60.5464 212 61 C211.4904 61.4586 202 60 202 60 "/>
<path id="11" d="M223 54 C223 54 223.5901 60.4153 225 63 C225.5843 64.0712 227.2302 64.8959 229 65 C234.5621 65.3272 242.0094 63.9764 242 64 C241.9641 64.0898 231.7767 71.5259 223 80 C217.5003 85.3101 213.0233 91.9634 213 92 C212.9963 92.0058 215.5103 91.6121 216 91 C216.6913 90.1359 217 87 217 87 "/>
<path id="12" d="M152 88 L145 100 "/>
<path id="13" d="M157 84 C157 84 158.7401 82.8701 159 83 C160.0395 83.5197 162.2189 85.2425 163 87 C163.676 88.5209 163.25 91.875 163 92 C162 92.5 153.8389 91.4128 153 92 C152.5889 92.2878 153.495 98.64 153 99 C151.8597 99.8293 142 100 142 100 "/>
<path id="14" d="M186 96 L173 99 "/>
<path id="15" d="M193 85 L193 87 "/>
<path id="16" d="M198 105 C198 105 185.0115 112.0148 185 112 C184.9581 111.9462 187.5672 98.985 191 96 C194.5302 92.9303 207.2071 91.7522 208 92 C208.0912 92.0285 208.0828 100.1338 207 101 C204.8344 102.7325 195.1663 102.7621 193 104 C192.6061 104.2251 192.3603 106.8675 193 109 C195.1495 116.1651 198.8928 123.801 199 124 C199.0086 124.016 200 122 200 122 "/>
<path id="17" d="M221 93 C221 93 214.58 97.7866 213 102 C210.9756 107.3984 212 117 212 117 "/>
<path id="18" d="M205 97 C205 97 206.1538 100.7692 207 101 C212.6249 102.5341 227 103 227 103 "/>
<path id="19" d="M229 99 L223 119 "/>
<path id="20" d="M223 110 L232 109 "/>
<path id="21" d="M236 97 L232 119 "/>
<path id="22" d="M250 102 C250 102 249.1075 114.0164 248 119 C247.9083 119.4127 246 120 246 120 "/>
<path id="23" d="M250 100 C250 100 253.0522 102.9986 254 106 C255.7789 111.6331 256 118.9998 256 119 C256 119 256 117 256 117 C255.0729 117 245.4402 119.088 245 119 C244.9917 118.9983 246 115 246 115 "/>
<path id="24" d="M266 103 C266 103 262.9992 119.0002 263 119 C263.0014 118.9997 270.9929 101.9984 271 102 C271.0088 102.002 272.1043 120.0615 272 121 C271.9963 121.0331 269 120 269 120 "/>
<path id="25" d="M264 115 L274 115 "/>
<path id="26" d="M277 103 C277 103 278.1163 111.5272 279 113 C279.1894 113.3156 281.7494 113.6253 283 113 C285.6576 111.6712 289 107.9999 289 108 C289 108.0002 285.0297 111.2113 283 115 C277.869 124.5778 274.023 135.7933 274 136 C273.9961 136.0355 281 133 281 133 "/>
<path id="27" d="M312 152 C312 152 311.5395 145.9293 313 141 C315.3368 133.1132 317.9394 132.6535 320 125 C321.1521 120.7206 319.4419 119.7438 320 115 C320.4038 111.5677 321.2875 109.2468 322 108 C322.1 107.825 323.2134 107.705 324 108 C326.8023 109.0508 329.9274 110.3463 330 111 C330.2884 113.5952 327.0216 118.5084 326 126 C324.0763 140.107 324.9425 152.6866 324 155 C323.9473 155.1293 318.0439 154.3836 315 153 C313.9667 152.5303 313 150 313 150 "/>
<path id="28" d="M351 157 C351 157 356.9176 146.2057 358 136 C360.2403 114.8774 357.9996 91.0148 358 91 C358 90.999 358.5974 93.9041 359 94 C363.8091 95.145 376.0844 95.2711 379 96 C379.1067 96.0267 379.4569 97.8006 379 99 C375.7943 107.4151 372.9224 108.0289 371 117 C367.211 134.6821 369.0619 149.7765 367 155 C366.7738 155.5731 358.2527 155.8664 356 155 C355.1966 154.691 354 150 354 150 "/>
<path id="29" d="M328 109 C328 109 332.0777 91.4766 332 90 C331.9989 89.9793 327.1466 90.2932 327 90 C326.2669 88.5338 325.145 83.1298 326 78 C326.9272 72.4367 330.5735 66.2326 331 66 C331.1008 65.945 336.1742 69.3849 337 72 C338.3598 76.3062 338.6093 81.7815 337 85 C335.5145 87.9709 327 92 327 92 "/>
<path id="30" d="M373 94 C373 94 375.5433 90.3488 376 87 C376.9245 80.2202 376.6811 74.7245 376 72 C375.9092 71.6367 372.0522 71.313 372 71 C371.2802 66.6813 370.881 50.3398 372 48 C372.256 47.4648 382.3722 47.3151 383 48 C383.7472 48.8151 383.6009 54.2919 383 60 C382.639 63.4299 382.5976 64.2042 381 67 C378.954 70.5806 375 74 375 74 "/>
<path id="31" d="M117 123 C117 123 118.9299 119.2675 120 119 C122.3409 118.4148 128.5652 119.2173 129 120 C130.2722 122.29 129.7772 136.6658 130 137 C130.0042 137.0063 133.8174 133.3261 137 132 C138.7519 131.2701 141.474 131.4155 142 132 C143.5898 133.7664 145.4797 141.948 146 142 C147.5817 142.1582 161.5992 133.8247 162 134 C162.2104 134.092 161.2215 147.5402 162 149 C162.2215 149.4152 166.456 149.7876 170 149 C174.8238 147.928 179.4462 144.644 180 145 C180.9212 145.5922 183.7076 157.9867 184 158 C185.1116 158.0505 194.7385 149.3282 202 146 C203.7124 145.2152 206.1403 145.9668 208 147 C209.4815 147.823 210.8403 151.0639 211 151 C213.4866 150.0054 220.6569 143.4059 228 139 C228.9103 138.4538 230.969 138.8968 231 139 C231.344 140.1468 230.4503 146.9844 231 149 C231.0999 149.3665 232.9025 150.2386 234 150 C242.4027 148.1733 253.2125 143.2417 254 144 C256.0938 146.0163 257.5918 164.412 261 176 C261.2884 176.9807 263.9936 178.0116 264 178 C264.2338 177.5792 264.1797 171.4206 266 167 C267.2407 163.9869 269.4149 164.1702 271 161 C273.6108 155.7784 272.5326 154.5517 275 149 C276.3929 145.866 276.7182 144.6298 279 143 C282.5407 140.4709 284.969 139.9302 289 139 C290.022 138.7642 291.8208 139.5818 292 140 C292.4705 141.0977 291.5012 145.1271 292 146 C292.2732 146.478 295.6734 146.5101 296 147 C296.4454 147.668 295.9228 151.9878 296 152 C297.8266 152.2884 313.0592 149.2237 315 150 C315.5332 150.2133 314.6984 158.1199 316 160 C317.0394 161.5014 320.297 162.9212 324 163 C341.8896 163.3806 361.6037 161.359 363 161 C363.0777 160.98 360.0907 157.2722 359 154 C358.3456 152.0367 358.7845 149.5388 359 149 C359.0345 148.9138 360.2079 148.6832 361 149 C371.6928 153.2771 379.456 155.2462 384 159 C385.0807 159.8928 383.5469 165.7344 384 168 C384.0705 168.3524 385.6658 169.1432 386 169 C387.4278 168.3881 390.2473 167.0073 391 165 C393.7547 157.6542 393.0548 146.848 395 145 C396.2729 143.7908 404.4485 147.0482 411 146 C415.0533 145.3515 420 141.0397 420 141 C420 140.9841 414.4098 140.9484 411 139 C405.0449 135.5971 401.9849 133.5922 399 129 C397.2141 126.2524 397.6465 119.2651 398 119 C398.6662 118.5004 410.9667 120.0799 411 120 C411.0729 119.8251 402.797 108.2857 403 107 C403.1338 106.1525 414.0038 101.0077 414 101 C413.8692 100.7384 396.0578 93.0642 396 93 C395.9854 92.9838 402.5015 92.7846 405 91 C407.5669 89.1665 410.3225 83.7257 410 83 C409.1192 81.0183 397.4699 74.007 397 73 C396.9357 72.8621 402.2258 69.858 403 68 C403.6795 66.3691 402.0042 61.0084 402 61 C401.9986 60.9972 401.7012 63.5538 401 64 C397.9761 65.9243 391.3988 68.1196 391 68 C390.9048 67.9715 391.7724 62.931 391 61 C390.4924 59.731 387.0764 58.1528 387 58 C387 58 389 57 389 57 "/>
<path id="32" d="M367 55 C367 55 368.9953 54.9717 369 55 C369.0826 55.4954 369.0691 58.8617 368 61 C367.0131 62.9738 365.9529 64.1123 364 65 C361.4979 66.1373 359.137 66.8548 357 66 C351.6251 63.85 346.7264 61.0896 344 57 C342.0452 54.0679 343.0051 44.9971 343 45 C342.9868 45.0075 339.5101 58.4899 337 61 C335.859 62.141 328.0776 61.431 327 61 C326.8276 60.931 327.6253 58.2506 327 57 C325.6712 54.3424 323.8136 51.8244 322 51 C320.6985 50.4084 318.0198 50.8218 316 52 C313.0854 53.7002 312.6033 56.58 310 58 C308.5963 58.7657 306.2569 58.8799 305 58 C298.7656 53.6359 290.2207 44.1177 290 44 C289.9686 43.9832 290.5558 49.5831 290 50 C288.24 51.32 280.3269 54.2362 278 53 C271.1521 49.3621 262.8509 36.6382 258 33 C257.6535 32.7401 255.0762 33.6846 254 35 C251.328 38.2658 250.874 43.063 249 44 C246.9287 45.0356 241.1393 44.662 238 43 C235.2131 41.5246 232.0008 35.0003 232 35 C231.9995 34.9998 235.2894 41.4694 235 42 C234.5193 42.8813 229.8912 45.8703 226 46 C217.0957 46.2968 212.861 46.335 205 43 C199.1176 40.5044 193.3653 32.1405 193 32 C192.9706 31.9887 193.2311 36.2218 192 38 C189.6935 41.3316 185.8906 45.1772 184 45 C177.5799 44.3981 160.4414 35.0602 160 35 C159.9486 34.993 162.4291 39.5684 162 42 C161.2975 45.981 157.8702 51.8757 157 52 C154.9695 52.2901 147.5991 48.9595 141 45 C138.7132 43.6279 137.0018 39.9954 137 40 C136.995 40.0124 139.3731 47.5749 139 50 C138.8608 50.9046 136.9389 52.5384 135 53 C127.8123 54.7114 125.6965 55.5131 118 55 C111.9462 54.5964 105.4761 50.707 105 51 C104.6664 51.2053 105.5173 62.6767 105 63 C103.9827 63.6358 89.6261 60.4157 89 61 C88.3828 61.5761 90.3824 76.4477 90 77 C89.902 77.1416 80 73.999 80 74 C80 74.0022 89.9538 80.1223 90 81 C90.0707 82.3442 80.9531 92.983 81 93 C81.2986 93.1086 111.1596 88.2941 112 89 C112.4561 89.3831 106.0005 113.9979 106 114 C106 114.0002 106.6544 112.0628 107 112 C109.5343 111.5392 116.7689 111.5148 117 112 C118.0189 114.1398 116.3398 125.4076 117 133 C117.0683 133.786 119 135 119 135 "/>
<path id="33" d="M77 191 C77 191 79.1363 197.9909 82 202 C83.2915 203.808 85.2109 205 87 205 C90.936 205 95.885 204.115 98 202 C100.4171 199.5829 101.9957 189.9976 102 190 C102.0181 190.0104 103.3345 204.3345 105 206 C106.1396 207.1396 112.362 207.3609 118 206 C125.6718 204.1482 133.0758 198.8913 134 199 C134.1254 199.0148 133.4502 204.4354 135 208 C137.9425 214.7678 142.9401 222.1034 144 222 C148.6867 221.5428 159.7829 211.7842 176 204 C184.332 200.0006 190.2627 199.661 194 198 C194.1607 197.9286 194 196 194 196 C194 196.0001 193.8396 212.9296 196 215 C198.7617 217.6467 209.2855 219.7262 218 219 C223.8655 218.5112 231.532 211.8128 232 212 C232.2591 212.1036 231.0816 222.0486 233 225 C235.0801 228.2001 238.79 229.443 245 232 C255.3827 236.2752 256.2528 237.2902 267 239 C277.2294 240.6274 278.6103 239.7421 289 239 C291.901 238.7928 293.72 238.28 295 237 C296.28 235.72 296.9741 230.9835 297 231 C297.2459 231.1565 300.9733 239.452 306 244 C310.2197 247.8178 312.3287 249.3492 318 250 C339.9525 252.5191 343.9158 251.4197 367 251 C369.8448 250.9483 371.38 250.62 373 249 C377.455 244.545 381.7161 236.1183 382 236 C382.0066 235.9973 383.2286 242.701 385 244 C387.8369 246.0804 395.2558 247.7752 397 247 C398.7806 246.2086 399.6941 239.8569 403 236 C404.6676 234.0545 409 233 409 233 "/>
<path id="34" d="M81 294 C81 294 79.8612 299.8245 81 304 C82.5529 309.6939 84.2095 313.7327 87 316 C88.9157 317.5565 93.1123 317.8185 97 317 C100.9922 316.1595 102.6173 314.8189 106 312 C107.8412 310.4656 108.9838 306.9815 109 307 C109.1125 307.1285 111.1638 318.5081 113 320 C114.5131 321.2294 120.6776 321.4408 125 320 C129.0823 318.6392 133.77 312.9042 134 313 C134.3025 313.126 134.5053 322.7222 137 325 C142.0438 329.6052 147.2843 332.0172 157 334 C169.9936 336.6518 175.8025 335.6373 186 335 C187.1233 334.9298 188.4648 333.4987 189 332 C190.54 327.688 190.3457 322.7993 191 321 C191.0406 320.8884 192.6219 320.6489 193 321 C197.551 325.2259 199.0122 330.3152 205 334 C209.7442 336.9195 213.2174 337.4283 219 337 C224.6116 336.5843 229.4341 334.3826 232 332 C233.2258 330.8617 232.1973 325.8061 233 324 C233.2218 323.5009 235.9065 322.869 236 323 C238.5025 326.5034 241.3819 336.9432 248 345 C251.1236 348.8026 253.7645 350.1061 259 351 C272.1366 353.2428 278.1422 354.3267 289 352 C294.1555 350.8953 294.8558 345.9937 301 342 C304.3046 339.852 306.5326 338.4044 309 339 C316.9401 340.9166 322.3071 348.1452 330 349 C334.9869 349.5541 338.4488 346.9704 345 343 C354.3101 337.3575 362.8659 329.0419 363 329 C363.0289 328.991 360.6496 337.5619 361 338 C361.4262 338.5328 366.0037 338.8216 371 339 C393.9188 339.8185 394.806 340 417 340 C418.9299 340 420.0757 339.9243 421 339 C423.4033 336.5967 426.0234 331.0205 426 331 C425.8581 330.8759 413.0009 331.9997 413 332 C412.9996 332.0001 419.5539 332.5539 420 333 C420.223 333.223 418.7789 337.3367 419 338 C419.0948 338.2843 422.0023 338.9994 422 339 C421.9907 339.0023 411 340 411 340 "/>
<path id="35" d="M80 371 C80 371 80.3969 368.2815 81 368 C84.9873 366.1393 88.2541 364.5952 95 364 C104.3585 363.1742 109.8338 363.4277 115 365 C116.2279 365.3737 117.845 368.2867 118 371 C118.7271 383.7248 117 399.9999 117 400 C117 400.0001 116.9343 390.3609 119 386 C120.1492 383.5739 122.798 381.5337 126 381 C137.9222 379.013 152.1558 378.8231 155 380 C155.5352 380.2215 154.9919 393.0036 155 393 C155.0233 392.9896 159.3519 381.4684 164 376 C165.8479 373.826 171.9946 372.9828 172 373 C172.2453 373.7768 169.9241 394.9566 170 395 C170.0575 395.0328 184.7307 381.7052 186 381 C186.0119 380.9934 186.9278 384.1065 188 385 C188.9717 385.8097 192 385.9144 192 386 C192 386.7706 188.4564 391.349 188 395 C187.6757 397.5941 189.1254 400.9796 190 402 C190.3441 402.4014 193.6101 402.5385 194 402 C199.5614 394.3199 204.6343 378.4012 211 373 C213.3182 371.0331 226.7602 373.3896 227 374 C227.824 376.0975 221.9329 400.9955 222 401 C223.0142 401.0676 247.8936 389.8065 272 377 C279.4192 373.0586 279.6799 369.8728 286 367 C288.7263 365.7608 290.7414 366.131 294 367 C297.2858 367.8762 300.6058 369.423 301 371 C302.9369 378.7477 301.9949 398.9827 302 399 C302.0018 399.006 303.0107 392.1519 306 388 C311.1861 380.7971 312.6507 380.1244 320 374 C324.2951 370.4208 325.7404 368.6553 330 368 C336.1195 367.0585 344.1367 368.719 346 370 C346.6636 370.4562 347.0462 375.1142 346 379 C343.8048 387.1535 338.9985 395.9985 339 396 C339.0003 396.0003 344.0306 387.1169 350 383 C356.8252 378.293 359.3125 378.0271 368 376 C373.3099 374.761 376.9035 374.9678 380 376 C381.2042 376.4014 382.492 378.5871 383 381 C384.2818 387.0886 383.9934 395 384 395 C384.066 395 388.7983 386.8953 394 381 C395.6892 379.0856 396.4238 379.2881 399 378 C402.3689 376.3156 402.6484 375.4788 406 375 C412.3165 374.0976 419.0828 374.7178 420 375 C420.0151 375.0047 419 379 419 379 "/>
</g>
</g>
</svg>
