<?xml version="1.0" encoding="utf-8"?>
<!DOCTYPE svg PUBLIC "-//W3C//DTD SVG 1.1//EN" "http://www.w3.org/Graphics/SVG/1.1/DTD/svg11.dtd">
<svg viewBox="0 0 800 800" preserveAspectRatio="xMinYMin meet" xmlns="http://www.w3.org/2000/svg" version="1.1">
<g fill="none" stroke="black" stroke-linecap="round" stroke-linejoin="round" stroke-width="0.79205">
<g transform="translate(87.52,203.0429) scale(3.7876) translate(-78,-298)">
<path id="0" d="M103,399C103,399 105.62701164395939,400.89973288636446 108,401C138.82255512873792,402.3023614843129 141.00220305183203,401.6489596069344 174,402C187.9968092776113,402.14890222635756 189.20310623317107,403.0968766085853 202,402C205.31674593548425,401.7157074912442 209,399 209,399"/>
<path id="1" d="M209,399C209,399 208.47476761173857,386.87538731376906 212,381C216.9495687067509,372.7507188220818 222.7603814028644,372.97712706044814 230,364C234.51272029238032,358.4042268374484 237,350 237,350"/>
<path id="2" d="M106,401C106,401 98.63052023344993,396.63052023344994 96,394C95.53579054703824,393.53579054703823 96.54171773846845,391.7222903179579 96,391C92.02740325123136,385.70320433497517 87.82803243472479,384.8053909950663 84,378C79.66317844420419,370.29009501191853 79.01684988975287,368.1516490077759 78,359C76.66143489089027,346.9529140180125 76.2667330839414,339.0131872153289 79,333C80.38072246275125,329.96241058194726 86.85150353622298,326.0458843019685 93,326C145.4858906844141,325.6083142486238 159.72981998145542,324.6523889629594 213,332C224.87329069477263,333.6376952682445 226.88774344023184,338.59182896015454 238,346C240.9129216224635,347.941947748309 243,352 243,352"/>
<path id="3" d="M78,338C78,338 80.67195214950035,341.44570289273815 83,342C89.35091453616303,343.5121225086102 90.99890839974198,342.78944495788795 99,343C166.93701915424333,344.7878162935327 235,346 235,346"/>
<path id="4" d="M92,325C92,325 105.77563200101113,324.2393720971417 116,320C124.617544964536,316.42687160007045 125.09347693811469,309.9766307654713 133,308C146.93524689657286,304.5161882758568 150.66891313505232,307 168,307C172.4565651938437,307 173.43541315568805,306.45017963290786 177,308C183.76778700394712,310.9425160886727 186.4282085584807,311.8047824528189 191,317C195.9406226459946,322.61434391590296 199,333 199,333"/>
<path id="5" d="M129,309C129,309 137.1802058908522,299.7445984930378 144,298C154.7193630645091,295.2578373555907 160.02300354998314,296.91118214090755 172,298C174.25540842240576,298.20503712930963 176.21073614980904,299.7371778396945 177,301C177.64429702056404,302.0308752329025 177,306 177,306"/>
</g>
</g>
</svg>
