<?xml version="1.0" encoding="utf-8"?>
<!DOCTYPE svg PUBLIC "-//W3C//DTD SVG 1.1//EN" "http://www.w3.org/Graphics/SVG/1.1/DTD/svg11.dtd">
<svg viewBox="0 0 800 800" preserveAspectRatio="xMinYMin meet" xmlns="http://www.w3.org/2000/svg" version="1.1">
<g fill="none" stroke="black" stroke-linecap="round" stroke-linejoin="round" stroke-width="0.96006">
<g transform="translate(87.52,189.076) scale(3.1248) translate(-192,-119.1333)">
<path id="0" d="M198 191.1333 C198 191.1333 252.5051 204.1904 305 220.1333 C319.3443 224.4897 333 232.1333 333 232.1333 "/>
<path id="1" d="M196 212.1333 C196 212.1333 202.7687 211.2524 208 213.1333 C245.3085 226.5476 246.2479 230.1962 285 244.1333 C302.847 250.552 322 254.1333 322 254.1333 "/>
<path id="2" d="M196 188.1333 C196 188.1333 192.7987 195.945 192 203.1333 C191.3852 208.6668 193 215.1333 193 215.1333 "/>
<path id="3" d="M233 203.1333 C233 203.1333 229.0955 205.6294 228 208.1333 C226.1901 212.2702 226.6543 217.334 226 219.1333 C225.9594 219.2449 224 219.1333 224 219.1333 "/>
<path id="4" d="M333 234.1333 C333 234.1333 325.7793 242.6054 322 249.1333 C321.2925 250.3553 321.8 253.0333 322 253.1333 C322.8 253.5333 328.0991 253.9974 330 253.1333 C331.2529 252.5638 332.6153 250.4413 333 248.1333 C333.9092 242.6782 333.0056 235.1328 333 235.1333 C332.951 235.1382 323.0012 249.132 323 249.1333 C322.9997 249.1337 324.2431 245.0794 325 244.1333 C325.1835 243.904 327 244.1333 327 244.1333 C327 244.3803 324.9997 249.1332 325 249.1333 C325.0013 249.134 329 245.1333 329 245.1333 "/>
<path id="5" d="M235 213.1333 L237 209.1333 "/>
<path id="6" d="M236 220.1333 C236 220.1333 234.6486 216.7145 235 215.1333 C235.3432 213.589 238 211.1333 238 211.1333 "/>
<path id="7" d="M341 236.1333 C341 236.1333 339.5474 229.9269 341 227.1333 C344.6736 220.0688 352.2494 218.2705 354 211.1333 C357.3756 197.3714 349.6599 184.0795 354 174.1333 C357.3399 166.4795 372.6765 164.6115 378 156.1333 C382.3277 149.2411 378.7776 142.9859 381 131.1333 C381.6575 127.6268 381.9865 126.3299 384 124.1333 C386.547 121.3548 392 119.1333 392 119.1333 "/>
<path id="8" d="M197 206.1333 L202 206.1333 "/>
<path id="9" d="M216 202.1333 L210 198.1333 "/>
<path id="10" d="M204 200.1333 L209 203.1333 "/>
<path id="11" d="M222 211.1333 L212 210.1333 "/>
<path id="12" d="M210 210.1333 C210 210.1333 208.8345 205.3402 209 205.1333 C209.1576 204.9363 214 205.1333 214 205.1333 "/>
<path id="13" d="M221 203.1333 L225 199.1333 "/>
<path id="14" d="M220 200.1333 L213 197.1333 "/>
<path id="15" d="M210 196.1333 L202 197.1333 "/>
<path id="16" d="M201 198.1333 L199 199.1333 "/>
<path id="17" d="M196 203.1333 L196 204.1333 "/>
<path id="18" d="M198 204.1333 C198 204.1333 197.9 206.0833 198 206.1333 C198.4 206.3333 202 206.1333 202 206.1333 "/>
<path id="19" d="M208 204.1333 L199 199.1333 "/>
<path id="20" d="M202 202.1333 L200 205.1333 "/>
<path id="21" d="M200 205.1333 C200 205.1333 199.7403 210.022 200 210.1333 C201.7486 210.8827 214 211.1333 214 211.1333 "/>
<path id="22" d="M212 206.1333 C212 206.1333 214.8403 208.1733 215 208.1333 C215.1118 208.1054 216 205.1333 216 205.1333 "/>
<path id="23" d="M223 199.1333 C223 199.1333 220.0865 201.7006 220 202.1333 C219.9615 202.3256 222 204.1333 222 204.1333 "/>
<path id="24" d="M223 207.1333 C223 207.1333 223.3831 209.6544 223 210.1333 C222.3359 210.9634 219 212.1333 219 212.1333 "/>
<path id="25" d="M219 212.1333 L219 213.1333 "/>
</g>
</g>
</svg>
