<?xml version="1.0" encoding="utf-8"?>
<!DOCTYPE svg PUBLIC "-//W3C//DTD SVG 1.1//EN" "http://www.w3.org/Graphics/SVG/1.1/DTD/svg11.dtd">
<svg viewBox="0 0 800 800" preserveAspectRatio="xMinYMin meet" xmlns="http://www.w3.org/2000/svg" version="1.1">
<g fill="none" stroke="black" stroke-linecap="round" stroke-linejoin="round" stroke-width="1.3969">
<g transform="translate(87.52,175.5728) scale(2.1476) translate(-159,-77)">
<path id="0" d="M172 286 C172 286 235.0764 287.1389 298 286 C345.4786 285.1407 393 282 393 282 "/>
<path id="1" d="M193 255 L398 255 "/>
<path id="2" d="M167 256 L195 256 "/>
<path id="3" d="M167 256 C167 256 160.296 258.8939 159 261 C157.9551 262.6979 158.1018 265.5869 159 269 C160.3827 274.2544 161.0337 277.0337 164 280 C166.5956 282.5956 174 284 174 284 "/>
<path id="4" d="M190 258 C190 258 186.4571 257.2714 185 258 C182.8143 259.0928 180.6002 260.8394 180 263 C178.7788 267.3964 178.2684 272.0173 180 276 C181.9111 280.3956 190 286 190 286 "/>
<path id="5" d="M398 256 C398 256 391.2887 266.5566 390 273 C389.4873 275.5635 393 281 393 281 "/>
<path id="6" d="M396 257 C396 257 400.8681 254.8681 401 255 C401.4838 255.4838 402.3206 262.4714 403 264 C403.0611 264.1374 405.0043 263.9914 405 264 C404.9743 264.0515 400.9819 267.9546 401 268 C401.0257 268.0642 406.9915 268.9323 407 269 C407.0308 269.2464 402.2951 274.3771 402 276 C401.8711 276.7089 404.6285 278.5142 405 280 C405.2933 281.173 404.7197 283.4602 404 284 C402.4706 285.1471 398.4611 286.2922 397 286 C396.1588 285.8318 394 282 394 282 "/>
<path id="7" d="M406 259 C406 259 413.1989 253.9707 417 249 C418.7609 246.6973 418.8106 245.4095 419 242 C419.7725 228.0955 420.6282 226.9561 419 213 C417.2136 197.6884 413.4287 197.307 412 182 C410.0141 160.7223 412 138 412 138 "/>
<path id="8" d="M428 255 C428 255 433.4962 249.8928 437 244 C444.2277 231.8443 448.7164 230.1445 450 218 C454.5483 174.9659 452.5959 168.0965 450 121 C449.1868 106.2467 445.3511 105.7785 443 91 C441.9421 84.3502 443 77 443 77 "/>
</g>
</g>
</svg>
