<?xml version="1.0" encoding="utf-8"?>
<!DOCTYPE svg PUBLIC "-//W3C//DTD SVG 1.1//EN" "http://www.w3.org/Graphics/SVG/1.1/DTD/svg11.dtd">
<svg viewBox="0 0 800 800" preserveAspectRatio="xMinYMin meet" xmlns="http://www.w3.org/2000/svg" version="1.1">
<g fill="none" stroke="black" stroke-linecap="round" stroke-linejoin="round" stroke-width="1.2001">
<g transform="translate(87.52,187.5136) scale(2.4998) translate(-152,-99)">
<path id="0" d="M203 229 C203 229 226.047 222.258 232 220 C232.1393 219.9472 231.9075 218.0308 232 218 C233.2947 217.5684 237.396 218.3515 241 217 C244.4118 215.7206 244.3624 213.3991 248 212 C256.5294 208.7194 263.39 208.33 267 207 C267.1276 206.953 266.9278 205.0163 267 205 C272.1351 203.8405 283.9747 203.7629 298 200 C303.0347 198.6492 302.7562 195.9976 308 194 C333.5482 184.2673 336.8811 185.6475 361 176 C364.7661 174.4936 364.2791 171.949 368 170 C374.0966 166.8065 376.2594 166.3507 382 165 C383.0458 164.7539 384.7834 165.5669 385 166 C385.4331 166.8662 384.1987 169.5118 385 171 C386.8862 174.503 389.9808 175.5386 392 179 C392.6684 180.1459 392.6542 182.1005 392 183 C389.9036 185.8826 388.2786 188.0441 384 190 C372.1137 195.4337 367.4988 194.6557 357 199 C355.8924 199.4583 356.1368 201.4316 355 202 C349.6407 204.6796 345.7338 204.3372 341 207 C339.8033 207.6731 339.9931 210.4483 339 211 C337.2229 211.9873 333.0221 211.562 332 212 C331.8821 212.0505 332.1613 213.9299 332 214 C327.0871 216.1361 313.9129 219.8639 309 222 C308.8387 222.0701 309.1357 223.9472 309 224 C305.5201 225.3533 300.0451 227.4925 291 229 C273.3901 231.935 271.3645 228.5369 255 233 C240.0794 237.0693 240.0173 241.1979 225 247 C218.5709 249.484 217.5737 247.6292 211 250 C187.5277 258.4654 185.994 260.6423 164 269 C162.7831 269.4624 161.1372 269.2515 161 269 C159.9406 267.0577 160.1937 262.875 158 258 C155.9217 253.3816 151.8658 249.9397 152 249 C152.1013 248.2911 158.098 245.902 160 244 C160.4389 243.5611 159.7485 241.1372 160 241 C161.9423 239.9406 168.9565 238.9289 171 238 C171.1503 237.9317 170.8842 236.0414 171 236 C173.4443 235.127 178.7585 235.1845 185 233 C188.0689 231.9259 188.232 229.7381 191 229 C194.5253 228.0599 200 229 200 229 "/>
<path id="1" d="M206 228 C206 228 211.6832 226.1312 214 227 C217.2283 228.2106 221.0029 231.0087 222 234 C223.7535 239.2606 222 251 222 251 "/>
<path id="2" d="M385 171 C385 171 382.0375 170.8875 382 171 C381.6625 172.0125 380.981 176.3315 382 180 C383.1763 184.2346 387 189 387 189 "/>
<path id="3" d="M381 182 C381 182 377.6185 176.3351 378 175 C378.5589 173.0439 385.0044 168.0111 385 168 C384.9983 167.9958 379.6376 168.3025 376 170 C372.9484 171.4241 369.8987 174.725 370 175 C370.6824 176.8522 380.1651 187.7851 383 189 C383.8739 189.3745 391.0388 184.1812 391 184 C390.8658 183.3737 380 175 380 175 "/>
<path id="4" d="M381 181 L369 175 "/>
<path id="5" d="M373 172 L373 170 "/>
<path id="6" d="M371 167 C371 167 369 167 369 167 C369 167 371 167 371 167 "/>
<path id="7" d="M380 164 L382 164 "/>
<path id="8" d="M389 166 C389 166 390.95 165.9 391 166 C391.2 166.4 391 170 391 170 "/>
<path id="9" d="M402 178 L400 178 "/>
<path id="10" d="M395 181 L391 175 "/>
<path id="11" d="M374 174 L376 175 "/>
<path id="12" d="M377 175 L383 182 "/>
<path id="13" d="M385 181 L387 181 "/>
<path id="14" d="M367 99 C367 99 372.7288 99.4577 373 100 C373.7457 101.4914 372.3016 109.3238 373 111 C373.1958 111.4698 377.7132 111.4837 378 112 C378.6074 113.0933 377.5565 118.0041 378 120 C378.0801 120.3604 380 121 380 121 "/>
<path id="15" d="M386 128 C386 128 387.9053 129.7684 388 131 C388.2981 134.8751 386.1421 138.9982 387 141 C387.6274 142.464 393.5123 143.5369 394 145 C395.0524 148.1573 393 159 393 159 "/>
<path id="16" d="M369 134 C369 134 372.7095 135.2012 373 136 C373.7567 138.0811 371.9654 142.7583 373 145 C373.7782 146.6861 378.2811 147.3226 379 149 C380.0939 151.5525 378.2146 156.6438 379 159 C379.2618 159.7854 382.5 161 383 161 C383.125 161 384 159 384 159 "/>
<path id="17" d="M397 152 C397 152 400.3456 155.7278 401 159 C402.0907 164.4536 402.0914 167.0888 401 172 C400.5056 174.2247 397 177 397 177 "/>
<path id="18" d="M371 155 C371 155 378.0123 158.8896 378 159 C377.9776 159.2017 370 164 370 164 "/>
<path id="19" d="M378 128 C378 128 381.3415 132.2136 382 136 C383.1359 142.5316 382 151 382 151 "/>
<path id="20" d="M397 166 C397 166 392.0972 169.0648 392 169 C391.8164 168.8776 392.0645 162.7688 391 162 C387.2498 159.2915 374 156 374 156 "/>
</g>
</g>
</svg>
