<?xml version="1.0" encoding="utf-8"?>
<!DOCTYPE svg PUBLIC "-//W3C//DTD SVG 1.1//EN" "http://www.w3.org/Graphics/SVG/1.1/DTD/svg11.dtd">
<svg viewBox="0 0 800 800" preserveAspectRatio="xMinYMin meet" xmlns="http://www.w3.org/2000/svg" version="1.1">
<g fill="none" stroke="black" stroke-linecap="round" stroke-linejoin="round" stroke-width="1.6753">
<g transform="translate(87.52,368.6625) scale(1.7907) translate(-119,-199)">
<path id="0" d="M131 229 C131 229 262.0565 230.824 387 229 C395.8136 228.8713 405 225 405 225 "/>
<path id="1" d="M136 203 C136 203 135.9991 201 136 201 C169.1245 200.8759 403 202 403 202 "/>
<path id="2" d="M403 202 C403 202 406.3507 205.2406 407 208 C408.0289 212.373 408.3652 214.9044 407 219 C405.4693 223.5921 400 229 400 229 "/>
<path id="3" d="M405 204 C405 204 405.6732 202.0292 406 202 C421.3239 200.6318 461 199 461 199 "/>
<path id="4" d="M399 228 L464 223 "/>
<path id="5" d="M461 202 C461 202 465.6524 208.9634 468 215 C468.7466 216.9198 468.7004 218.7393 468 220 C467.0506 221.7089 463 224 463 224 "/>
<path id="6" d="M401 203 C401 203 404.8171 206.0796 405 208 C405.5374 213.6423 403 224 403 224 "/>
<path id="7" d="M395 206 C395 206 397.7198 207.669 398 209 C399.2508 214.9411 399.3374 218.589 399 225 C398.9343 226.2484 397 228 397 228 "/>
<path id="8" d="M387 205 C387 205 391.9963 203.4535 394 204 C395.5163 204.4135 397.352 206.056 398 208 C399.782 213.346 400.2802 216.9562 400 222 C399.9159 223.5131 397 226 397 226 "/>
<path id="9" d="M382 208 C382 208 387.8245 208.3684 390 210 C392.1183 211.5887 393.1238 213.7142 394 217 C394.869 220.2586 394.7398 222.2875 394 225 C393.6469 226.2946 391 228 391 228 "/>
<path id="10" d="M415 210 L416 209 "/>
<path id="11" d="M427 208 L429 207 "/>
<path id="12" d="M442 208 L448 208 "/>
<path id="13" d="M419 218 L419 217 "/>
<path id="14" d="M430 216 L441 214 "/>
<path id="15" d="M449 217 L450 216 "/>
<path id="16" d="M134 232 C134 232 138.2146 227.7961 139 224 C140.8436 215.0893 140.6054 210.2647 140 203 C139.9059 201.8712 138.2946 200.3531 137 200 C134.2875 199.2602 131.7376 198.8727 129 200 C124.9338 201.6743 121.9169 203.7413 120 207 C118.3491 209.8065 118.1815 213.1123 119 217 C119.8405 220.9922 121.2004 222.2672 124 226 C125.3175 227.7566 126.1894 228.5474 128 229 C131.0494 229.7624 136 229 136 229 "/>
<path id="17" d="M135 224 C135 224 135.1793 219.1793 135 219 C134.8924 218.8924 130.9996 220.0004 131 220 C131.001 219.999 138.0014 216.0014 138 216 C137.9958 215.9958 128.2291 217.0859 128 217 C127.9881 216.9955 130.0939 213.5634 130 213 C129.936 212.6158 126.9903 211.0174 127 211 C127.3317 210.4029 132.8688 205.2787 135 204 C135.2446 203.8533 137.0126 204.958 137 205 C136.6695 206.1018 133.1085 210.3973 132 214 C131.6116 215.2623 132.9998 218.0003 133 218 C133.0003 217.9995 132.5295 213.0977 133 212 C133.1792 211.5818 135.701 210.8006 136 211 C136.8117 211.5411 138.9998 216.0004 139 216 C139.0004 215.9993 137.9421 209.7328 137 209 C136.1141 208.311 130.7546 208.3292 130 209 C129.0178 209.8731 127.9999 216.9999 128 217 C128 217 131.1159 210.4635 131 210 C130.9583 209.8331 125.9961 209.0022 126 209 C126.012 208.9932 138 206 138 206 C138 206 129.007 208.0093 129 208 C128.9978 207.9971 135.0069 202.0172 135 202 C134.9958 201.9895 129.5051 201.7475 127 203 C125.0844 203.9578 123 207.6095 123 208 C123 208.1562 127.0117 209.9182 127 210 C126.9532 210.3273 121.9889 214.9723 122 215 C122.0104 215.0259 128.2608 214.6832 129 215 C129.1358 215.0582 129.3118 217.5842 129 218 C128.6622 218.4504 126 219 126 219 C126 219 129.885 217.4598 130 217 C130.2108 216.157 127.8213 212.9657 128 211 C128.1619 209.2186 131 206 131 206 C131 206.0001 126.877 214.8882 127 215 C127.4679 215.4254 141.9952 215.9961 142 216 C142.0023 216.0019 132.0022 218.9992 132 219 C131.9996 219.0001 134 219 134 219 C134 219 132.0014 218.9826 132 219 C131.8963 220.2438 133.3148 226.2783 133 231 C132.9173 232.2398 131.2743 234 131 234 C130.3141 234 127.0256 232.6666 126 231 C124.0008 227.7513 123 221.0001 123 221 C123 221 124.0002 227 124 227 C123.9993 227 121.9237 224.002 121 221 C120.025 217.8313 119.975 214.0187 120 214 C120.0118 213.9912 124.9018 217.9804 125 218 C125.0102 218.002 125.3142 215.6283 125 215 C124.7906 214.5811 123 214 123 214 C122.8247 214.3507 121.998 221.001 122 221 C122.0041 220.9979 126.9833 211.9814 127 212 C127.0841 212.0934 131 231 131 231 C131 231 130.1814 225.3023 130 225 C129.9945 224.9908 128.2332 226.1333 128 226 C126.7173 225.267 123.0631 221.0378 123 221 C122.9905 220.9943 123 223 123 223 C123.1528 223 127 221 127 221 "/>
<path id="18" d="M461 202 C461 202 456.4729 203.7704 456 205 C455.0394 207.4976 454.8991 211.0369 456 215 C457.0336 218.7209 458.966 221.3728 461 223 C461.8921 223.7137 466 223 466 223 "/>
</g>
</g>
</svg>
