<?xml version="1.0" encoding="utf-8"?>
<!DOCTYPE svg PUBLIC "-//W3C//DTD SVG 1.1//EN" "http://www.w3.org/Graphics/SVG/1.1/DTD/svg11.dtd">
<svg viewBox="0 0 800 800" preserveAspectRatio="xMinYMin meet" xmlns="http://www.w3.org/2000/svg" version="1.1">
<g fill="none" stroke="black" stroke-linecap="round" stroke-linejoin="round" stroke-width="1.9009">
<g transform="translate(87.52,245.3382) scale(1.5782) translate(-156,-48)">
<path id="0" d="M157 198 C157 198 153.7771 235.0735 156 237 C159.1175 239.7018 190.0401 236.0033 202 237 C202.6067 237.0506 203.3616 240.8723 204 241 C206.9184 241.5837 210.6725 239.6045 217 240 C234.24 241.0775 234.5579 243.1694 252 244 C276.2867 245.1565 276.8947 245.7577 301 244 C324.3725 242.2958 324.6448 239.3694 348 237 C358.7695 235.9074 369.456 238.0621 370 237 C371.9546 233.1839 370.3767 211.1435 369 196 C368.8904 194.7939 367.224 193.1749 366 193 C359.5742 192.082 356.1 191.5273 348 193 C340.7591 194.3165 340.4775 197.2909 333 199 C323.6564 201.1357 322.9731 200.6501 313 201 C294.6143 201.6451 293.6561 199.873 276 201 C271.1367 201.3104 270.9826 203.4251 266 204 C245.6064 206.3531 244.9707 206.017 224 207 C213.052 207.5132 212.3868 208.3316 202 207 C193.6712 205.9322 193.322 202.9247 185 202 C171.727 200.5252 157 202 157 202 "/>
<path id="1" d="M207 205 L205 236 "/>
<path id="2" d="M159 208 C159 208 158.9957 234.9992 159 235 C159.0056 235.001 169.9882 210.0011 170 210 C170.0019 209.9998 170 234 170 234 C170 234 170.5023 214.0328 170 207 C169.9787 206.7023 168.0045 205.9798 168 206 C167.9191 206.364 166.6693 212.0078 168 216 C170.6615 223.9845 176.971 233.0242 177 233 C177.2003 232.8331 185.9934 201.0079 186 201 C186.0032 200.9962 186.9997 220.9995 187 221 C187.0002 221.0003 188.9997 205.9992 189 206 C189.0005 206.0014 190.9955 231.9917 191 232 C191.0021 232.0039 195 217 195 217 C195.0005 217.0001 194.7538 231.0308 195 233 C195.0038 233.0308 196.9842 233.0696 197 233 C197.7895 229.5263 199.9994 211.0014 200 211 C200.0003 210.9993 200.753 222.5061 201 223 C201 223 204.4157 222.0712 205 221 C206.4099 218.4153 206.9999 212 207 212 C207 212 207 221 207 221 "/>
<path id="3" d="M368 193 C368 193 375.9382 192.7836 376 193 C376.5527 194.9344 372.9415 205.2672 374 214 C374.649 219.3544 378.4471 220.3061 380 226 C381.1388 230.1755 380.4465 235.4259 380 236 C379.8015 236.2552 373 235 373 235 "/>
<path id="4" d="M406 222 C406 222 403.3927 222.3927 403 222 C401.8219 220.8219 400.4037 218.8262 400 216 C399.0579 209.4055 397.9456 207.1633 400 201 C406.6199 181.1404 410.5446 171.6831 419 159 C420.5983 156.6026 429.1806 155.3734 430 156 C431.7164 157.3125 434.808 164.252 436 172 C437.62 182.5302 437.854 187.0542 436 195 C435.3041 197.9825 431.808 201.0089 429 202 C426.1397 203.0095 421.9597 202.7758 419 201 C414.3649 198.219 412.644 195.7263 409 190 C406.1573 185.5329 406.5586 184.5664 405 179 C403.0916 172.1844 402.5766 171.9197 402 165 C401.1098 154.317 399.9932 146.8703 402 143 C403.1183 140.8433 409.4372 139.05 416 138 C420.8068 137.2309 425.3038 138.0106 427 139 C427.6589 139.3844 428.226 143.1921 428 145 C427.9135 145.6924 427.1169 146.3299 426 147 C422.3702 149.1779 421.8 150.05 418 151 C414.6223 151.8444 412.1428 152.2857 410 151 C404.8573 147.9144 400.84 144.2066 398 139 C396.4686 136.1925 397.3778 129.5656 398 129 C398.7528 128.3156 408.6261 128.3882 409 129 C410.0011 130.6382 410.7099 145.3585 409 147 C405.9562 149.9221 395.9268 151.2461 384 153 C379.9205 153.5999 377.8465 153.1861 375 152 C373.5893 151.4122 372.7777 150.074 372 148 C370.0082 142.6886 369.2121 141.8323 369 136 C368.2475 115.3068 367.5468 113.5453 370 93 C371.413 81.1664 373.2293 80.3121 377 69 C377.525 67.4249 378.154 66.423 379 66 C379.9668 65.5166 383 66 383 66 "/>
<path id="5" d="M428 138 C428 138 427.0097 143.2271 428 146 C428.9638 148.6986 431.0782 151.5632 433 152 C438.0652 153.1512 447.4506 152.97 450 151 C452.4908 149.0753 454.302 142.4454 455 135 C455.6702 127.8513 455.2218 121.9161 453 119 C451.0136 116.3929 445.8019 115.1337 439 114 C431.6631 112.7772 428.6043 112.8791 423 114 C421.3187 114.3363 419.3556 116.311 419 118 C417.8985 123.2323 417.8219 129.4657 419 133 C419.3927 134.1781 422.4685 135.8668 425 136 C430.3011 136.279 434.8306 136.6742 438 134 C446.6519 126.7 449.8001 122.1656 457 109 C466.7144 91.2366 466.1931 88.2935 473 70 C473.6057 68.3722 473.4834 66.9668 473 66 C472.577 65.154 471.4133 64.2355 470 64 C463.5696 62.9283 455.8498 62.8179 455 63 C454.9918 63.0018 455.0412 66.115 456 67 C459.9608 70.6561 462.2085 73.4347 468 75 C478.4446 77.8229 484.5948 77.5797 493 77 C494.4456 76.9003 496.0191 75.1018 497 73 C499.0732 68.5575 499.3244 67.4044 500 62 C500.7721 55.8235 500.4765 52.3354 500 49 C499.9529 48.6701 498 48 498 48 "/>
<path id="6" d="M427 177 C427 177 425.2406 185.0127 426 186 C427.1498 187.4947 431.6633 188.9327 437 190 C441.0703 190.8141 445.3093 190.8501 446 190 C447.8182 187.7623 450.0971 174.4529 450 174 C449.9968 173.985 443.1277 175.4124 443 176 C442.2541 179.4313 442.8776 195.1134 445 197 C447.8413 199.5256 462.0697 201.7147 470 200 C474.6825 198.9876 478.3707 194.8472 482 189 C486.2738 182.1145 485.6339 179.6755 488 171 C488.482 169.2328 488.3822 167.6369 488 167 C487.7325 166.5541 485 166 485 166 C485 166 492.2831 169.3051 499 170 C505.9419 170.7181 508.4092 171.1964 514 169 C520.1486 166.5845 521.6164 164.72 527 159 C537.1404 148.2258 539.2091 147.2235 546 135 C550.782 126.3924 549.9467 124.2664 552 114 C552.8324 109.838 552.6612 105.3737 552 105 C548.7166 103.1442 535.3735 100.1502 529 101 C526.7116 101.3051 523.3036 105.2521 522 109 C520.0826 114.5125 520.177 122.5368 521 124 C521.3777 124.6714 529.2532 125.8734 531 125 C532.471 124.2645 534.2521 120.9889 535 117 C538.4992 98.3376 541.3192 80.6058 540 77 C539.7126 76.2143 529.4404 75.3909 520 76 C514.6993 76.342 509 79 509 79 "/>
</g>
</g>
</svg>
