<?xml version="1.0" encoding="utf-8"?>
<!DOCTYPE svg PUBLIC "-//W3C//DTD SVG 1.1//EN" "http://www.w3.org/Graphics/SVG/1.1/DTD/svg11.dtd">
<svg viewBox="0 0 800 800" preserveAspectRatio="xMinYMin meet" xmlns="http://www.w3.org/2000/svg" version="1.1">
<g fill="none" stroke="black" stroke-linecap="round" stroke-linejoin="round" stroke-width="1.5505">
<g transform="translate(100.0966,87.52) scale(1.9349) translate(-129,-47.4167)">
<path id="0" d="M385 138.4167 C385 138.4167 385.7903 134.7876 385 132.4167 C383.595 128.2017 383.0238 124.9487 380 123.4167 C353.2118 109.844 343.3253 102.6743 310 94.4167 C291.5416 89.8429 287.3139 92.331 267 95.4167 C249.2663 98.1104 248.1246 99.9093 231 106.4167 C223.7376 109.1764 223.0023 109.6148 217 114.4167 C208.5262 121.1957 207.8886 121.8059 201 130.4167 C192.1978 141.4194 191.3054 141.806 185 154.4167 C168.6455 187.1257 167.605 188.6797 155 222.4167 C151.102 232.8495 151.5968 234.0767 151 245.4167 C150.1271 262.0024 149.7075 264.0241 152 279.4167 C152.9327 285.6792 154.4107 286.6185 158 292.4167 C160.6485 296.6951 161.1003 296.9896 165 300.4167 C177.3562 311.2751 177.4614 312.2989 191 321.4167 C201.4826 328.4764 202.321 329.8231 214 333.4167 C233.4538 339.4024 235.1877 339.1667 256 341.4167 C271.5371 343.0964 272.2231 342.6716 288 341.4167 C315.884 339.1986 317.8717 340.5645 344 334.4167 C358.5306 330.9977 359.7727 329.0591 373 321.4167 C381.5177 316.4954 382.8464 315.7613 389 308.4167 C397.5219 298.2454 397.9477 296.7734 404 284.4167 C409.678 272.8242 409.733 272.049 413 259.4167 C417.1306 243.4449 417.6907 242.783 419 226.4167 C420.6425 205.8854 422.5818 203.4448 419 184.4167 C415.0761 163.571 413.7353 158.1437 403 141.4167 C394.6711 128.439 389.9512 127.3375 376 117.4167 C368.5003 112.0835 358 109.4167 358 109.4167 "/>
<path id="1" d="M286 90.4167 C286 90.4167 290.4691 83.5031 293 76.4167 C295.3118 69.9437 294.7621 64.583 296 62.4167 C296.2251 62.0228 300.5404 62.1409 301 62.4167 C301.1654 62.5159 301.4417 64.1798 301 65.4167 C296.793 77.1964 291 90.4167 291 90.4167 "/>
<path id="2" d="M284 54.4167 C284 54.4167 292.9103 56.5992 300 60.4167 C305.2747 63.2569 309.5746 68.4167 310 68.4167 C310.0851 68.4167 312.6997 61.498 312 60.4167 C310.1833 57.6091 305.6672 54.6268 299 51.4167 C292.8741 48.4672 287.3396 47.1414 285 47.4167 C284.3592 47.4921 282 53.4167 282 53.4167 "/>
<path id="3" d="M180 100.4167 L241 74.4167 "/>
<path id="4" d="M367 85.4167 L418 121.4167 "/>
<path id="5" d="M370 82.4167 C370 82.4167 371.4909 76.1228 374 74.4167 C381.2082 69.5151 385.0886 67.1404 395 65.4167 C405.9044 63.5203 409.8369 64.0937 420 66.4167 C424.673 67.4848 426.7582 69.3217 430 73.4167 C435.2431 80.0395 436.7419 82.388 439 90.4167 C440.7342 96.5827 439.672 98.3606 439 105.4167 C438.7227 108.3287 438.6698 109.7468 437 111.4167 C430.7381 117.6785 420 124.4167 420 124.4167 "/>
<path id="6" d="M241 73.4167 C241 73.4167 239.1575 67.9066 236 64.4167 C230.2409 58.0513 229.0999 55.5929 222 52.4167 C212.3823 48.114 209.5318 48.8145 198 47.4167 C193.8389 46.9123 192.2694 46.782 189 48.4167 C182.8054 51.514 180.2533 52.8873 176 58.4167 C171.4522 64.3288 170.6797 66.738 169 74.4167 C167.467 81.4246 168.3152 82.8842 169 90.4167 C169.2646 93.3269 169.4474 94.3465 171 96.4167 C173.3289 99.5219 178 102.4167 178 102.4167 "/>
<path id="7" d="M193 324.4167 C193 324.4167 162.7939 359.7454 162 361.4167 C161.9586 361.5039 172.3842 365.34 174 364.4167 C176.7603 362.8393 177.7914 356.1685 183 349.4167 C191.0435 338.9899 201 329.4167 201 329.4167 "/>
<path id="8" d="M372 325.4167 C372 325.4167 383.0388 347.0233 389 363.4167 C389.7605 365.508 388.6146 369.1094 388 369.4167 C385.9257 370.4538 376.1809 371.2827 375 370.4167 C373.9603 369.6542 375.0082 363.7111 373 358.4167 C369.7868 349.9456 366.5707 349.4145 364 341.4167 C362.5785 336.9942 364 330.4167 364 330.4167 "/>
<path id="9" d="M290 130.4167 C290 130.4167 288.0502 201.5375 288 202.4167 C287.9987 202.4397 286.5236 200.4167 286 200.4167 C284.4292 200.4167 280.2042 201.8551 280 202.4167 C279.596 203.5276 280.7723 210.1889 282 211.4167 C283.0045 212.4212 289.343 212.9423 290 212.4167 C290.8395 211.7451 292.3617 204.7429 292 203.4167 C291.8561 202.889 287 201.4167 287 201.4167 "/>
<path id="10" d="M291 129.4167 C291 129.4167 286.6545 128.7622 286 129.4167 C284.0365 131.3802 281.4598 134.6877 281 139.4167 C278.2731 167.4649 279 201.4167 279 201.4167 "/>
<path id="11" d="M289 214.4167 C289 214.4167 304.6443 231.1119 317 249.4167 C331.3386 270.6591 338.9363 289.3678 343 294.4167 C343.1007 294.5418 348.032 292.3847 350 290.4167 C350.8945 289.5221 351.4945 287.4468 351 286.4167 C347.1736 278.4451 345.1235 274.8067 338 265.4167 C334.5775 260.9052 332.2907 262.0038 329 257.4167 C316.4308 239.896 317.8476 237.1255 305 219.4167 C299.7991 212.2479 292 206.4167 292 206.4167 "/>
<path id="12" d="M280 129.4167 C280 129.4167 289.717 113.4333 290 113.4167 C290.1582 113.4074 297.1986 128.1188 297 128.4167 C296.7822 128.7433 280 128.4167 280 128.4167 "/>
<path id="13" d="M346 296.4167 C346 296.4167 354.9939 284.4116 355 284.4167 C355.1309 284.5258 358.2468 306.1699 358 306.4167 C357.8831 306.5336 341.2228 298.8066 341 298.4167 C340.9892 298.3978 350 292.4167 350 292.4167 "/>
<path id="14" d="M351 102.4167 C351 102.4167 318.7048 92.3764 288 85.4167 C282.4886 84.1674 281.6996 84.4667 276 85.4167 C258.2678 88.372 257.0927 88.2889 240 93.4167 C232.8335 95.5666 232.3683 96.1711 226 100.4167 C208.7146 111.9403 207.3102 111.7469 192 125.4167 C179.9518 136.174 179.9509 137.29 170 150.4167 C156.641 168.0391 156.0677 168.5365 145 187.4167 C139.3701 197.0206 138.888 197.7672 136 208.4167 C131.0844 226.5431 130.9685 227.5758 129 246.4167 C127.5261 260.5237 127.3229 261.5211 129 275.4167 C130.7259 289.7171 129.8174 293.4475 136 304.4167 C143.4178 317.5773 147.7625 320.6267 160 330.4167 C165.6817 334.962 176 336.4167 176 336.4167 "/>
<path id="15" d="M189 344.4167 C189 344.4167 195.0002 349.5546 200 350.4167 C207.4065 351.6937 209.5053 348.3973 218 349.4167 C233.6021 351.2889 234.347 355.5928 250 356.4167 C280.4152 358.0175 282.855 357.9822 313 354.4167 C327.8085 352.6651 329.8822 351.8563 343 345.4167 C355.8961 339.0859 368 327.4167 368 327.4167 "/>
<path id="16" d="M208 91.4167 L211 106.4167 "/>
<path id="17" d="M394 104.4167 L382 118.4167 "/>
<path id="18" d="M395 112.4167 L387 121.4167 "/>
<path id="19" d="M396 109.4167 L389 117.4167 "/>
<path id="20" d="M205 93.4167 L209 109.4167 "/>
</g>
</g>
</svg>
