<?xml version="1.0" encoding="utf-8"?>
<!DOCTYPE svg PUBLIC "-//W3C//DTD SVG 1.1//EN" "http://www.w3.org/Graphics/SVG/1.1/DTD/svg11.dtd">
<svg viewBox="0 0 800 800" preserveAspectRatio="xMinYMin meet" xmlns="http://www.w3.org/2000/svg" version="1.1">
<g fill="none" stroke="black" stroke-linecap="round" stroke-linejoin="round" stroke-width="1.2577">
<g transform="translate(87.52,151.9243) scale(2.3853) translate(-224,-130)">
<path id="0" d="M303 188 C303 188 296.4538 186.9512 291 188 C284.2002 189.3077 282.6067 189.3957 277 193 C269.7183 197.6811 268.9234 202.1498 263 206 C261.4169 207.029 257.7074 205.1983 257 206 C253.6674 209.777 249.1941 215.0394 248 223 C245.2019 241.6543 245.4618 246.646 248 266 C249.1244 274.5739 251.1003 276.0057 256 284 C260.2234 290.8909 260.7928 292.0707 267 297 C276.9316 304.8868 277.9984 305.9391 290 311 C318.5907 323.0563 320.6622 324.1289 350 332 C359.9537 334.6705 362.682 335.4252 372 333 C396.0907 326.7298 398.6709 323.7686 423 313 C428.3243 310.6434 428.7948 309.9578 433 306 C436.9218 302.3089 437.2622 301.6543 440 297 C442.038 293.5353 442.739 292.8274 443 289 C444.1451 272.2059 444.4372 270.5343 443 253 C441.9856 240.6238 441.5861 239.9536 438 228 C434.2109 215.3698 433.3764 214.1368 428 203 C426.9309 200.7855 425.9127 199.7357 424 199 C420.759 197.7535 418.1231 199.7698 415 198 C405.1845 192.4379 404.4869 187.1156 394 182 C386.0083 178.1016 383.6401 180.8563 374 178 C356.9108 172.9365 355.856 168.2651 340 166 C327.3152 164.1879 324.9987 166.61 311 169 C304.984 170.0271 304.5188 170.3428 299 173 C291.3383 176.689 289.5559 176.9997 284 182 C280.8493 184.8357 279 191 279 191 "/>
<path id="1" d="M303 318 L287 338 "/>
<path id="2" d="M406 325 L422 338 "/>
<path id="3" d="M311 169 C311 169 309.7738 148.601 310 146 C310.0026 145.9704 312.9873 146.0679 313 146 C313.3623 144.0679 312.2656 130.3554 313 130 C315.8948 128.5993 329.2776 128.4481 344 131 C365.7625 134.7722 381.5707 137.7397 388 143 C390.3458 144.9193 389.2262 155.6574 388 167 C387.3137 173.3483 384 180 384 180 "/>
<path id="4" d="M393 179 C393 179 392.6911 174.6177 394 172 C396.1815 167.6371 399.0118 167.5729 401 163 C403.5265 157.189 401.2987 154.4026 404 149 C406.527 143.946 408.4132 143.234 413 139 C414.4709 137.6423 415.208 137.0407 417 137 C434.7087 136.5975 441.8573 134.5715 457 138 C462.8312 139.3203 464.4259 142.9614 470 149 C476.0961 155.6041 476.4133 156.2599 481 164 C484.1894 169.3821 485.038 170.2278 486 176 C487.3494 184.0961 487.1947 185.936 486 194 C485.3633 198.2975 484.6715 200.8142 482 203 C476.0372 207.8786 472.3438 210.2884 464 212 C455.2573 213.7934 452.8795 212.3627 443 211 C439.0675 210.4576 435 208 435 208 "/>
<path id="5" d="M294 174 C294 174 292.8661 167.7091 290 164 C285.1733 157.7537 283.7158 156.4772 277 152 C272.6294 149.0863 271.3394 148.9708 266 148 C260.9917 147.0894 257.2604 146.1453 255 148 C243.851 157.1479 240.4348 163.9649 227 180 C225.1799 182.1724 224.4345 182.6825 224 185 C223.1407 189.583 222.7458 191.3416 224 196 C225.9251 203.1505 226.5399 206.1344 231 211 C235.7378 216.1685 239.2243 218.3574 246 220 C253.0028 221.6976 264 219 264 219 "/>
<path id="6" d="M338 179 L339 190 "/>
<path id="7" d="M376 193 L375 199 "/>
<path id="8" d="M426 240 L429 241 "/>
<path id="9" d="M421 283 L425 289 "/>
<path id="10" d="M381 307 L377 314 "/>
<path id="11" d="M320 307 L308 308 "/>
<path id="12" d="M283 286 C283 286 279.28 286.64 278 286 C276.72 285.36 275 282 275 282 "/>
<path id="13" d="M273 246 C273 246 269.4773 245.2663 268 244 C266.8056 242.9762 266 240 266 240 "/>
<path id="14" d="M286 220 L282 217 "/>
<path id="15" d="M341 212 C341 212 338.7204 220.2906 339 227 C339.171 231.1043 342 236 342 236 "/>
<path id="16" d="M345 236 C345 236 341.6758 236.3242 341 237 C340.3242 237.6758 339.9172 240.9448 340 241 C340.3476 241.2317 346.9209 241.1385 347 241 C347.1045 240.817 344 234 344 234 "/>
<path id="17" d="M351 243 L379 261 "/>
</g>
</g>
</svg>
