<?xml version="1.0" encoding="utf-8"?>
<!DOCTYPE svg PUBLIC "-//W3C//DTD SVG 1.1//EN" "http://www.w3.org/Graphics/SVG/1.1/DTD/svg11.dtd">
<svg viewBox="0 0 800 800" preserveAspectRatio="xMinYMin meet" xmlns="http://www.w3.org/2000/svg" version="1.1">
<g fill="none" stroke="black" stroke-linecap="round" stroke-linejoin="round" stroke-width="1.2337">
<g transform="translate(117.9169,87.52) scale(2.4318) translate(-157,-50.6667)">
<path id="0" d="M226 107.6667 C226 107.6667 218.287 108.0874 212 110.6667 C199.479 115.8035 197.3637 115.8307 187 123.6667 C178.1894 130.3284 177.7614 132.1506 171 141.6667 C164.596 150.6797 164.7091 151.5757 160 161.6667 C157.864 166.2437 157.3564 166.7962 157 171.6667 C155.919 186.4408 155.351 187.6199 157 202.6667 C159.2807 223.4781 157.6394 228.2279 165 244.6667 C170.6277 257.2353 175.1417 259.9165 187 269.6667 C196.1585 277.197 198.1701 277.8184 210 281.6667 C238.5286 290.947 240.4698 292.1001 270 296.6667 C287.5325 299.3779 290.0058 299.7754 307 296.6667 C328.9288 292.6553 331.1236 290.2409 352 281.6667 C357.8294 279.2725 358.8194 278.2653 363 273.6667 C368.1518 267.9997 369.6288 266.7803 372 259.6667 C376.6029 245.8579 376.7021 244.0248 378 228.6667 C379.6477 209.1687 380.4782 207.3908 378 188.6667 C376.1915 175.0022 374.917 173.6385 369 160.6667 C362.2262 145.8164 361.6635 143.3197 352 131.6667 C346.1483 124.6102 343.8595 123.8011 335 119.6667 C322.3772 113.776 321.1442 113.9605 307 110.6667 C284.9758 105.5377 284.3212 105.0163 262 102.6667 C246.9056 101.0778 244.7613 100.5726 231 102.6667 C223.8685 103.7519 216 109.6667 216 109.6667 "/>
<path id="1" d="M270 109.6667 C270 109.6667 268.0147 109.6078 268 109.6667 C267.7647 110.6078 268 117.6667 268 117.6667 "/>
<path id="2" d="M355 195.6667 L365 197.6667 "/>
<path id="3" d="M264 258.6667 L264 276.6667 "/>
<path id="4" d="M173 186.6667 L187 190.6667 "/>
<path id="5" d="M234 130.6667 C234 130.6667 238.7618 143.7844 245 155.6667 C249.1048 163.4852 249.4169 163.8699 255 170.6667 C260.6947 177.5994 263.2084 177.0782 268 183.6667 C270.3861 186.9476 271 192.6667 271 192.6667 "/>
<path id="6" d="M273 193.6667 C273 193.6667 284.5996 210.1402 298 222.6667 C306.7659 230.8608 319 236.6667 319 236.6667 "/>
<path id="7" d="M273 193.6667 C273 193.6667 274 197.6667 274 197.6667 C274 197.6666 272.5947 193.0631 272 192.6667 C271.6283 192.4189 268.1492 193.7786 268 193.6667 C267.8623 193.5634 267.8 190.0667 268 189.6667 C268.05 189.5667 269.95 189.5667 270 189.6667 C270.2 190.0667 269.9999 193.6668 270 193.6667 C270.0001 193.6665 270.9999 188.6666 271 188.6667 C271.0001 188.6668 271.3689 194.224 271 194.6667 C270.7439 194.974 266.3811 194.9715 266 194.6667 C265.7561 194.4715 266 190.6667 266 190.6667 "/>
<path id="8" d="M195 275.6667 C195 275.6667 191.0544 276.6122 189 278.6667 C182.3801 285.2865 176 294.6667 176 294.6667 "/>
<path id="9" d="M333 293.6667 L342 307.6667 "/>
<path id="10" d="M324 116.6667 C324 116.6667 350.9026 105.8106 376 93.6667 C381.3221 91.0914 386 86.6667 386 86.6667 "/>
<path id="11" d="M225 105.6667 C225 105.6667 220.7176 104.7943 220 103.6667 C218.5774 101.4311 220.0331 98.281 218 94.6667 C207.3453 75.725 193 55.6667 193 55.6667 "/>
<path id="12" d="M178 85.6667 C178 85.6667 182.4111 83.4909 185 80.6667 C187.4188 78.028 186.6039 75.0057 189 73.6667 C200.1167 67.4544 204.744 66.2903 219 61.6667 C221.9444 60.7117 225.7778 61.2858 226 61.6667 C226.6528 62.7858 227.3376 69.208 226 73.6667 C224.9076 77.308 223.2715 80.0309 220 81.6667 C210.1854 86.574 206.6002 86.5166 194 89.6667 C191.2999 90.3417 190.0529 90.5465 188 89.6667 C184.3829 88.1165 180 83.6667 180 83.6667 "/>
<path id="13" d="M352 86.6667 C352 86.6667 356.761 88.0275 360 90.6667 C369.6851 98.5583 371.0806 103.184 379 108.6667 C380.762 109.8865 383.6606 109.3685 386 108.6667 C387.3034 108.2757 388.6786 106.9524 389 105.6667 C389.7714 102.581 390.4064 98.4868 389 96.6667 C384.9157 91.3811 380.4183 88.9281 372 83.6667 C369.2358 81.939 368.4299 82.0277 365 81.6667 C359.2919 81.0658 354.2 81.0667 353 81.6667 C352.7 81.8167 353 87.6667 353 87.6667 "/>
<path id="14" d="M211 66.6667 C211 66.6667 210.2489 54.92 211 52.6667 C211.1431 52.2375 213.5384 51.7013 216 51.6667 C283.2652 50.7193 285.9226 50.6667 353 50.6667 C355.4481 50.6667 357.9174 51.2773 358 51.6667 C359.2997 57.794 360 83.6667 360 83.6667 "/>
<path id="15" d="M281 104.6667 C281 104.6667 277.8429 93.1854 277 92.6667 C276.5159 92.3688 269.487 95.0144 268 96.6667 C267.2626 97.486 267.775 101.9917 268 102.6667 C268.025 102.7417 269.9389 102.8041 270 102.6667 C270.6794 101.138 271.2054 95.0969 272 93.6667 C272.131 93.4309 274.9418 93.5309 275 93.6667 C275.3168 94.4059 275.3168 99.9274 275 100.6667 C274.9418 100.8024 272.2094 100.9284 272 100.6667 C271.494 100.0342 271 95.6667 271 95.6667 "/>
<path id="16" d="M327 151.6667 L341 138.6667 "/>
<path id="17" d="M345 250.6667 C345 250.6667 344.4909 253.0444 345 253.6667 C347.6073 256.8533 354 261.6667 354 261.6667 "/>
<path id="18" d="M223 240.6667 L205 252.6667 "/>
<path id="19" d="M201 130.6667 L213 142.6667 "/>
<path id="20" d="M280 101.6667 L276 100.6667 "/>
<path id="21" d="M301 227.6667 C301 227.6667 312.7265 221.4479 313 221.6667 C313.6609 222.1954 316 239.6667 316 239.6667 "/>
<path id="22" d="M238 141.6667 L224 123.6667 "/>
<path id="23" d="M239 134.6667 C239 134.6667 245.0196 131.6791 245 131.6667 C244.9066 131.6072 234.26 130.1707 228 127.6667 C226.4518 127.0474 224.9832 123.6891 225 123.6667 C225.0432 123.6091 229.699 122.7126 231 123.6667 C234.7005 126.3804 240.0051 134.6648 240 134.6667 C239.9854 134.6721 223 126.6667 223 126.6667 "/>
<path id="24" d="M312 226.6667 L312 230.6667 "/>
<path id="25" d="M235 136.6667 L233 136.6667 "/>
<path id="26" d="M226 127.6667 C226 127.6667 225.8077 139.5171 226 139.6667 C226.1053 139.7486 235 134.6667 235 134.6667 C235 134.6667 228.0226 138.693 228 138.6667 C227.8856 138.5332 229 127.6667 229 127.6667 "/>
<path id="27" d="M310 227.6667 C310 227.6667 313 229.671 313 229.6667 C313 229.6537 310 223.6667 310 223.6667 "/>
<path id="28" d="M229 128.6667 C229 128.6667 229.7624 123.7161 229 120.6667 C228.5474 118.8561 226.0051 116.6463 226 116.6667 C225.9682 116.7938 225 136.6667 225 136.6667 C225 136.6667 224.5332 123.4172 225 121.6667 C225.0332 121.5422 228.0675 120.9673 229 121.6667 C233.8959 125.3386 241 133.6667 241 133.6667 "/>
<path id="29" d="M317 284.6667 C317 284.6667 318.226 280.4746 318 278.6667 C317.9135 277.9743 316 276.6667 316 276.6667 "/>
<path id="30" d="M179 227.6667 L189 222.6667 "/>
<path id="31" d="M303 139.6667 L305 132.6667 "/>
<path id="32" d="M306 230.4167 L317 237.4167 "/>
</g>
</g>
</svg>
