<?xml version="1.0" encoding="utf-8"?>
<!DOCTYPE svg PUBLIC "-//W3C//DTD SVG 1.1//EN" "http://www.w3.org/Graphics/SVG/1.1/DTD/svg11.dtd">
<svg viewBox="0 0 800 800" preserveAspectRatio="xMinYMin meet" xmlns="http://www.w3.org/2000/svg" version="1.1">
<g fill="none" stroke="black" stroke-linecap="round" stroke-linejoin="round" stroke-width="0.64324">
<g transform="translate(155.1463,87.52) scale(4.6639) translate(-185,-156.9167)">
<path id="0" d="M245 184.9167 C245 184.9167 237.531 183.3942 231 183.9167 C225.7264 184.3386 224.9993 184.7431 220 186.9167 C213.8878 189.5741 213.3298 189.8168 208 193.9167 C200.6421 199.5766 199.7558 200.0097 194 206.9167 C190.2665 211.3969 189.0773 212.5303 188 217.9167 C184.9448 233.1927 183.3808 237.3439 185 251.9167 C186.01 261.0066 188.7999 263.1415 194 271.9167 C196.2883 275.7783 197.9588 277.2791 201 278.9167 C202.6944 279.829 206.2895 278.4092 207 278.9167 C207.5413 279.3033 207.076 283.2059 208 283.9167 C211.0214 286.2408 214.146 288.1578 220 288.9167 C239.5589 291.4521 243.3901 292.9844 262 290.9167 C271.7999 289.8278 274.2254 286.8305 283 281.9167 C285.2914 280.6335 286.6971 279.1668 287 276.9167 C289.5925 257.658 291.2251 251.9685 290 229.9167 C289.3359 217.9621 287.8432 216.2175 283 204.9167 C279.2441 196.1528 277.9375 193.8542 272 187.9167 C268.6071 184.5238 266.364 183.9224 261 182.9167 C251.4796 181.1316 242.5458 184.2806 240 181.9167 C236.4923 178.6595 232.4371 158.0894 233 156.9167 C233.2372 156.4224 251.2885 155.889 252 156.9167 C253.3689 158.894 251 182.9167 251 182.9167 "/>
<path id="1" d="M238 237.9167 L239 232.9167 "/>
<path id="2" d="M217 199.9167 L222 204.9167 "/>
<path id="3" d="M253 195.9167 L254 199.9167 "/>
<path id="4" d="M274 205.9167 L272 211.9167 "/>
<path id="5" d="M283 240.9167 L289 238.9167 "/>
<path id="6" d="M283 261.9167 L289 263.9167 "/>
<path id="7" d="M272 279.9167 L278 288.9167 "/>
<path id="8" d="M249 282.9167 L249 289.9167 "/>
<path id="9" d="M228 279.9167 L227 286.9167 "/>
<path id="10" d="M214 271.9167 L209 276.9167 "/>
<path id="11" d="M202 256.9167 L194 255.9167 "/>
<path id="12" d="M188 227.9167 L195 228.9167 "/>
<path id="13" d="M239 235.9167 C239 235.9167 244.3253 226.6554 250 219.9167 C251.6197 217.9933 255 216.9167 255 216.9167 "/>
<path id="14" d="M239 235.9167 C239 235.9167 242.0953 244.4622 246 251.9167 C247.4087 254.6061 249.0716 256.2977 250 256.9167 C250.1688 257.0292 252 255.9167 252 255.9167 "/>
</g>
</g>
</svg>
