<?xml version="1.0" encoding="utf-8"?>
<!DOCTYPE svg PUBLIC "-//W3C//DTD SVG 1.1//EN" "http://www.w3.org/Graphics/SVG/1.1/DTD/svg11.dtd">
<svg viewBox="0 0 800 800" preserveAspectRatio="xMinYMin meet" xmlns="http://www.w3.org/2000/svg" version="1.1">
<g fill="none" stroke="black" stroke-linecap="round" stroke-linejoin="round" stroke-width="1.2721">
<g transform="translate(122.8951,87.52) scale(2.3583) translate(-197,-10)">
<path id="0" d="M204 97 C204 97 206.0191 99.9714 206 100 C205.9695 100.0458 202.1369 99.709 202 100 C200.6264 102.9189 198.279 108.769 198 117 C197.3172 137.1419 197.7102 139.9182 200 159 C200.4597 162.8308 204.0938 166.5779 204 167 C203.9692 167.1385 197.9973 167.9744 198 168 C198.1378 169.309 203.8345 176.9048 206 186 C211.0771 207.3237 211.1972 208.7654 213 231 C214.1441 245.1109 211.3608 245.9366 212 260 C212.3342 267.3518 215.1545 273.8412 215 275 C214.9929 275.0529 210.1343 275.2014 210 275 C209.7852 274.6777 210.8219 269.021 211 269 C212.6215 268.8092 226.3596 273.0427 227 273 C227.0271 272.9982 226.1873 268.2498 226 268 C225.9837 267.9783 224.0025 269.015 224 269 C223.9743 268.8458 224.774 262.0149 225 262 C236.5843 261.2379 294.3436 264.2293 300 264 C300.0602 263.9976 298.9951 259.0148 299 259 C299.0014 258.9958 300.3028 261 301 261 C314.5953 261 330.4338 259 340 259 C340.2453 259 341 261.0005 341 261 C341 260.9985 339.6885 255.5451 340 255 C340.2213 254.6127 344.1906 253.5504 345 254 C346.3354 254.7419 347.0175 258.2653 349 260 C350.0449 260.9142 351.044 260.9276 353 261 C364.1439 261.4127 375.9995 261 376 261 C376.0001 261 370.1783 260.2675 370 260 C369.8692 259.8038 372 257.0835 372 255 C372 251.2498 370 246.0051 370 246 C370 245.9983 370.9667 248.5303 372 249 C375.0439 250.3836 376.574 250.8193 381 251 C400.4941 251.7957 415.6627 254.2488 421 251 C424.0747 249.1284 425.2263 236.4801 427 223 C427.608 218.3793 425.4525 217.5623 426 213 C426.8578 205.8519 429.3413 205.246 430 198 C430.7679 189.5534 428.646 188.1426 429 180 C429.1003 177.6933 430.9619 177.3226 431 175 C431.4235 149.1641 432.1866 146.6063 430 119 C428.2237 96.5747 424.5112 96.0635 423 74 C422.0742 60.4828 425.3491 58.9183 425 46 C424.8865 41.8022 422.1462 36.9854 422 37 C420.7395 37.126 412.8132 44.9305 405 48 C400.9691 49.5836 394.2331 48.1457 394 48 C393.9974 47.9983 397.0536 43.0064 397 43 C396.38 42.9256 370.6099 44.5666 369 45 C368.9631 45.0099 371.0242 49.9879 371 50 C370.2982 50.3509 358.4642 51.2092 357 51 C356.9547 50.9935 357 48 357 48 C357 48 357.3505 52.8458 357 53 C352.5967 54.9375 344.3271 57.7248 332 59 C316.1224 60.6425 299.2342 59.0656 299 59 C298.9571 58.988 306.954 52.0644 307 52 C307.0078 51.9891 304.0057 52.0285 304 52 C303.9563 51.7815 306 47 306 47 C306 47 304.0001 53.0003 304 53 C303.9998 52.9995 305.5457 44.4366 305 44 C303.3804 42.7044 296.9248 41.4953 289 41 C273.3341 40.0209 272.8492 40.3396 257 41 C249.0341 41.3319 246.2535 41.5407 241 43 C240.1009 43.2497 240.0789 45.528 239 46 C233.8701 48.2444 231.7314 49.3486 225 50 C217.0913 50.7654 214.8327 48.6584 208 49 C206.7504 49.0625 205.0492 50.3599 205 51 C204.472 57.8646 207.2179 64.6477 206 75 C205.46 79.5897 202.1311 80.2492 201 85 C199.8881 89.6699 202.0261 91.8957 201 96 C200.4403 98.2387 197 101 197 101 "/>
<path id="1" d="M303 58 C303 58 304.501 71.1859 304 72 C303.8301 72.276 295.3714 70.7215 295 71 C294.8087 71.1435 296.2759 76.8964 296 78 C295.9285 78.2861 293 79 293 79 "/>
<path id="2" d="M330 239 C330 239 325.006 231.9927 325 232 C324.9723 232.0333 325.0245 244.8651 325 245 C324.9969 245.017 323.0953 242.9619 323 243 C322.6346 243.1462 321.0033 244.8679 320 247 C317.1536 253.0485 315 260 315 260 "/>
<path id="3" d="M219 156 L197 153 "/>
<path id="4" d="M432 129 L423 128 "/>
<path id="5" d="M320 135 C320 135 320.0214 138.9786 320 139 C320 139 318.0053 136.993 318 137 C317.929 137.0947 317.4406 142.1187 317 143 C316.9322 143.1356 315.0084 142.9662 315 143 C314.9367 143.2531 315.6756 146.9027 316 147 C317.2828 147.3848 324.6184 146.4361 325 146 C325.2257 145.742 323 139 323 139 "/>
<path id="6" d="M320 85 C320 85 321.462 105.4565 320 123 C319.6024 127.7706 316.6921 128.3862 316 133 C315.3569 137.2873 317.191 142.0449 317 143 C316.9883 143.0585 314 143 314 143 "/>
<path id="7" d="M321 147 C321 147 315.7395 149.1234 312 152 C309.716 153.7569 308.0045 156.9818 308 157 C307.9987 157.0053 311.0017 155.9983 311 156 C310.9848 156.0152 298.5081 164.1489 292 173 C287.5006 179.1192 286.0035 189.9937 286 190 C285.999 190.0019 286.1146 184.1146 286 184 C285.9618 183.9618 282.8746 184.6624 282 186 C275.8416 195.4187 269 210 269 210 "/>
<path id="8" d="M221 15 C221 15 217.119 16.3654 217 17 C216.4024 20.1872 218.9768 24.7485 218 31 C216.6638 39.5517 212.0096 49.0167 212 49 C211.9721 48.9512 206 10 206 10 "/>
</g>
</g>
</svg>
