<?xml version="1.0" encoding="utf-8"?>
<!DOCTYPE svg PUBLIC "-//W3C//DTD SVG 1.1//EN" "http://www.w3.org/Graphics/SVG/1.1/DTD/svg11.dtd">
<svg viewBox="0 0 800 800" preserveAspectRatio="xMinYMin meet" xmlns="http://www.w3.org/2000/svg" version="1.1">
<g fill="none" stroke="black" stroke-linecap="round" stroke-linejoin="round" stroke-width="0.91206">
<g transform="translate(87.52,181.264) scale(3.2893) translate(-154,-255.1333)">
<path id="0" d="M156 264.1333 C156 264.1333 154 291.7 154 319.1333 C154 349.0606 156 379.1333 156 379.1333 "/>
<path id="1" d="M157 386.1333 C157 386.1333 214.4392 381.7554 270 382.1333 C286.7382 382.2472 287.0906 385.7913 304 387.1333 C318.2563 388.2648 333 387.1333 333 387.1333 "/>
<path id="2" d="M336 388.1333 C336 388.1333 336.8846 367.4784 336 347.1333 C335.3931 333.1744 333 332.9453 333 319.1333 C333 293.4826 336 267.1333 336 267.1333 "/>
<path id="3" d="M159 270.1333 C159 270.1333 202.05 266.8696 245 266.1333 C289.4043 265.3721 334 267.1333 334 267.1333 "/>
<path id="4" d="M168 365.1333 C168 365.1333 166.4482 342.4828 167 320.1333 C167.4426 302.2071 170 284.1333 170 284.1333 "/>
<path id="5" d="M170 288.1333 C170 288.1333 188.7818 286.7185 192 286.1333 C192.0523 286.1238 191.9703 284.1365 192 284.1333 C197.1081 283.5811 229 282.1333 229 282.1333 "/>
<path id="6" d="M233 288.1333 C233 288.1333 232.0793 300.4709 233 312.1333 C233.5462 319.0515 235.867 319.3499 236 326.1333 C236.3497 343.9669 234 363.1333 234 363.1333 "/>
<path id="7" d="M170 366.1333 C170 366.1333 184.5679 369.2022 199 370.1333 C215.2779 371.1835 232 370.1333 232 370.1333 "/>
<path id="8" d="M249 289.1333 C249 289.1333 246.7007 301.3107 247 313.1333 C247.6886 340.3341 251 368.1333 251 368.1333 "/>
<path id="9" d="M251 368.1333 C251 368.1333 272.8321 366.2513 294 367.1333 C308.372 367.7322 323 371.1333 323 371.1333 "/>
<path id="10" d="M323 371.1333 C323 371.1333 321.1064 362.0729 321 353.1333 C320.6104 320.4042 322 287.1333 322 287.1333 "/>
<path id="11" d="M251 283.1333 C251 283.1333 269.4275 282.7658 272 283.1333 C272.0525 283.1408 272 286.1333 272 286.1333 C272 286.1333 272 284.1333 272 284.1333 C276.5131 284.1333 312 286.1333 312 286.1333 "/>
<path id="12" d="M188 305.1333 C188 305.1333 197.2471 303.8363 202 304.1333 C202.7247 304.1786 203.8342 305.2493 204 306.1333 C204.9902 311.4142 206.1375 316.5313 205 320.1333 C204.4006 322.0313 197.9609 325.0159 198 325.1333 C198.1565 325.6029 204.8393 328.25 209 332.1333 C211.4996 334.4663 212.2648 335.7514 213 339.1333 C214.5151 346.1028 214.9419 350.4239 214 355.1333 C213.7019 356.6237 211.3658 358.4762 209 359.1333 C203.8597 360.5612 196 360.1333 196 360.1333 "/>
<path id="13" d="M256 317.1333 C256 317.1333 257.0359 311.0795 259 308.1333 C260.1309 306.437 263.9898 305.1435 264 305.1333 C264.0025 305.1308 262.0068 305.0928 262 305.1333 C261.7568 306.5928 261.1489 311.743 262 317.1333 C262.5301 320.4904 264.6717 320.7686 265 324.1333 C266.5348 339.8652 266 358.1333 266 358.1333 "/>
<path id="14" d="M276 320.1333 C276 320.1333 278.4487 319.8914 279 319.1333 C281.3629 315.8844 283.8435 309.2674 284 309.1333 C284.0165 309.1192 285.8836 311.2707 286 313.1333 C287.2435 333.0301 287 357.1333 287 357.1333 "/>
<path id="15" d="M299 320.1333 C299 320.1333 302.8634 306.2016 303 306.1333 C303.0186 306.124 307.3507 311.0102 309 315.1333 C309.868 317.3034 309 321.1333 309 321.1333 "/>
<path id="16" d="M300 319.1333 L305 319.1333 "/>
<path id="17" d="M298 325.1333 L300 321.1333 "/>
<path id="18" d="M308 324.1333 L308 321.1333 "/>
<path id="19" d="M302 356.1333 C302 356.1333 300.7657 338.719 301 338.1333 C301.0027 338.1267 307.0773 341.2359 308 341.1333 C308.3383 341.0957 309.9973 337.1233 310 337.1333 C310.015 337.1897 312 356.1333 312 356.1333 "/>
<path id="20" d="M158 266.1333 C158 266.1333 158.3885 256.3312 159 256.1333 C163.8114 254.5767 189.129 254.1464 192 255.1333 C192.2747 255.2278 191 267.1333 191 267.1333 "/>
<path id="21" d="M336 295.1333 C336 295.1333 343.8288 296.5856 344 297.1333 C344.4969 298.7234 341.1729 304.392 341 311.1333 C340.6936 323.0812 343.5463 332.5824 343 336.1333 C342.9575 336.4099 337 337.1333 337 337.1333 "/>
</g>
</g>
</svg>
