<?xml version="1.0" encoding="utf-8"?>
<!DOCTYPE svg PUBLIC "-//W3C//DTD SVG 1.1//EN" "http://www.w3.org/Graphics/SVG/1.1/DTD/svg11.dtd">
<svg viewBox="0 0 800 800" preserveAspectRatio="xMinYMin meet" xmlns="http://www.w3.org/2000/svg" version="1.1">
<g fill="none" stroke="black" stroke-linecap="round" stroke-linejoin="round" stroke-width="1.6849">
<g transform="translate(251.3272,87.52) scale(1.7805) translate(-164,-47)">
<path id="0" d="M175 99 C175 99 166.305 113.9604 164 128 C161.1567 145.3182 163.1111 147.1102 164 166 C165.1039 189.4573 167.428 189.5499 168 213 C169.4208 271.2548 166.6968 272.6601 168 330 C168.1678 337.3847 170.3979 337.5745 171 345 C171.8689 355.717 172.2992 357.5808 171 367 C170.554 370.2332 167.3467 370.8799 167 374 C166.0738 382.3359 166.6439 393.2303 168 394 C172.015 396.2788 186.5906 393.5183 204 395 C209.4302 395.4621 209.6582 397.8619 215 398 C265.6325 399.3095 304.1975 401.5117 320 398 C321.2542 397.7213 322.8307 385.8507 323 374 C323.3237 351.3406 320.7919 350.8955 321 328 C321.2898 296.1193 320.694 294.8562 324 264 C325.061 254.0972 329.8124 253.005 330 244 C330.26 231.518 328.4992 228.947 325 216 C323.7659 211.434 320.725 211.205 320 207 C318.5297 198.4723 318.9894 196.0955 320 187 C320.3706 183.665 322.8636 183.2746 323 180 C324.2447 150.1265 321.1198 146.2119 323 115 C323.5294 106.2121 328 97 328 97 "/>
<path id="1" d="M175 102 C175 102 179.0253 97.1502 182 97 C219.7345 95.0942 228.0822 96.0755 274 97 C302.4792 97.5734 331 100 331 100 "/>
<path id="2" d="M207 109 L207 121 "/>
<path id="3" d="M209 110 C209 110 213.1202 111.5337 214 113 C215.1144 114.8573 215 120 215 120 "/>
<path id="4" d="M219 106 C219 106 220.6928 112.5362 220 116 C219.59 118.05 216 121 216 121 "/>
<path id="5" d="M226 111 C226 111 229.8107 117 230 117 C230.1893 117 234.0107 111.0536 234 111 C234 111 229 112 229 112 "/>
<path id="6" d="M237 108 C237 108 239.9874 112.2027 241 116 C241.7818 118.9318 240.9995 122.9978 241 123 C241.0002 123.0009 242 120 242 120 "/>
<path id="7" d="M247 109 C247 109 244.5934 112.4872 242 114 C239.3247 115.5606 234.9944 115.9944 235 116 C235.0168 116.0168 247 119 247 119 "/>
<path id="8" d="M249 111 L250 120 "/>
<path id="9" d="M258 110 L255 121 "/>
<path id="10" d="M260 112 L263 120 "/>
<path id="11" d="M258 120 L263 116 "/>
<path id="12" d="M218 128 L220 129 "/>
<path id="13" d="M225 126 L228 128 "/>
<path id="14" d="M233 127 L236 128 "/>
<path id="15" d="M241 127 L244 128 "/>
<path id="16" d="M249 126 L250 125 "/>
<path id="17" d="M225 130 L225 132 "/>
<path id="18" d="M231 130 L234 131 "/>
<path id="19" d="M239 131 L240 134 "/>
<path id="20" d="M246 130 L249 132 "/>
<path id="21" d="M187 157 C187 157 184.9675 179.8019 186 202 C186.947 222.3607 187.381 238.2501 191 243 C192.7422 245.2866 206.2303 245.0088 218 244 C221.6483 243.6873 222.4961 240 226 240 C262.3527 240 292.2538 243.8006 309 244 C309.1944 244.0023 310 241 310 241 "/>
<path id="22" d="M187 146 L189 158 "/>
<path id="23" d="M189 147 C189 147 196.6341 143.381 204 143 C252.9726 140.4669 305 141 305 141 "/>
<path id="24" d="M306 141 C306 141 306.7431 163.3728 310 184 C311.104 190.9918 314.1926 191.2175 315 198 C316.549 211.0119 315.6302 212.1365 315 226 C314.6379 233.967 314.1502 238.0895 313 242 C312.8695 242.4437 310 243 310 243 "/>
<path id="25" d="M183 261 C183 261 207.0536 262.3713 231 262 C271.4458 261.3729 312 259 312 259 "/>
<path id="26" d="M184 261 C184 261 187.1395 287.5382 188 314 C189.1338 348.8639 188 384 188 384 "/>
<path id="27" d="M312 259 C312 259 311 287.2304 311 315 C311 319.463 310.6369 320.5921 312 324 C313.1601 326.9003 316.4739 327.3694 317 330 C318.428 337.1401 317.9869 341.4337 317 349 C316.7719 350.7487 314.299 351.1462 314 353 C312.1781 364.2959 312 380 312 380 "/>
<path id="28" d="M189 387 L314 387 "/>
<path id="29" d="M313 387 L313 380 "/>
<path id="30" d="M226 265 C226 265 227.6402 284.4364 227 295 C226.932 296.1226 224.1111 296.8151 224 298 C223.0183 308.472 222.9632 312.7435 224 327 C224.94 339.9247 225.6665 340.1658 228 353 C228.6429 356.536 229.2875 358.7532 230 360 C230.1 360.175 231.998 359.9775 232 360 C232.248 362.7275 232.611 377.3154 232 382 C231.9614 382.2963 229 383 229 383 "/>
<path id="31" d="M264 263 C264 263 262.7544 289.9115 263 299 C263.0072 299.2663 264.9761 299.6899 265 300 C265.7871 310.2327 266.658 324.5109 266 338 C265.9454 339.1183 263.2351 339.7463 263 341 C262.1422 345.5748 261.9083 347.9175 263 354 C265.289 366.7528 270 380 270 380 "/>
<path id="32" d="M270 387 L268 381 "/>
<path id="33" d="M188 294 L310 294 "/>
<path id="34" d="M191 331 C191 331 209.7215 332.3977 223 331 C225.6644 330.7195 226.2458 327.6121 229 327 C233.7977 325.9338 239.5405 327.2432 241 327 C241.0405 326.9932 240.9967 325 241 325 C249.9984 324.8784 315 326 315 326 "/>
<path id="35" d="M192 359 L323 359 "/>
<path id="36" d="M205 273 L206 289 "/>
<path id="37" d="M235 277 C235 277 240.2635 273.8363 241 274 C241.5677 274.1262 244.2238 278.0302 244 279 C243.5124 281.1128 237.9664 286.9552 238 287 C238.0864 287.1152 250 287 250 287 "/>
<path id="38" d="M280 272 C280 272 285.7313 272.0132 287 273 C288.0875 273.8458 289.3262 278.6013 289 279 C287.9534 280.2792 278.0176 283.9736 278 284 C277.9948 284.0079 283.8986 284.174 285 285 C285.675 285.5063 286.2612 289.791 286 290 C284.8333 290.9334 275 293 275 293 "/>
<path id="39" d="M204 305 C204 305 203.0713 320.4213 204 322 C204.3213 322.5463 214 322 214 322 C214 322 212.0047 321.9717 212 322 C211.9174 322.4954 213 328 213 328 "/>
<path id="40" d="M210 319 C210 319 210.5496 321.6622 211 322 C211.4158 322.3118 214 322 214 322 "/>
<path id="41" d="M240 306 C240 306 240.9981 313.9961 241 314 C241.0008 314.0016 241.5101 310.3266 242 310 C242.668 309.5546 246.7629 309.6443 247 310 C247.6877 311.0315 248.4132 316.7274 248 319 C247.8807 319.656 245 321 245 321 "/>
<path id="42" d="M241 307 L247 304 "/>
<path id="43" d="M283 301 C283 301 283.5514 304.0351 283 305 C282.2714 306.2751 279.416 306.752 279 308 C278.136 310.592 278.4143 312.8998 279 317 C279.344 319.4081 280.1336 321.4585 281 322 C282.0143 322.6339 286.6824 322.3706 287 322 C287.4324 321.4956 287.4375 315.4375 287 315 C286.5625 314.5625 280 315 280 315 "/>
<path id="44" d="M201 343 C201 343 214.8831 340.3019 216 341 C216.6904 341.4315 217 353 217 353 "/>
<path id="45" d="M252 338 C252 338 247.2538 336.4365 245 337 C242.9966 337.5008 240.8579 339.2842 240 341 C239.2081 342.5838 239.328 346.389 240 347 C241.8033 348.6394 249.9107 349.475 251 351 C251.853 352.1943 250.8311 360.1689 250 361 C249.32 361.68 244.6956 361.9239 241 361 C237.715 360.1787 234.5423 357.9762 234 357 C233.7327 356.5188 234.475 353.7156 236 352 C241.725 345.5594 250 339 250 339 "/>
<path id="46" d="M286 334 C286 334 278.0006 335.9994 278 336 C277.9997 336.0003 283.4 335.7 284 336 C284.15 336.075 284.1654 338.9007 284 339 C283.5404 339.2757 279.6179 338.3821 279 339 C277.3935 340.6065 275.8889 344.4443 275 348 C274.7555 348.9778 275.8384 350.9731 276 351 C276.5029 351.0838 280.1129 350.2814 281 349 C283.2366 345.7694 284.9954 337.9962 285 338 C285.0137 338.0114 287 354 287 354 "/>
<path id="47" d="M215 366 L195 376 "/>
<path id="48" d="M199 366 C199 366 199.5931 370.4173 201 372 C202.5074 373.6958 204.8804 373.0731 207 375 C209.7598 377.5089 212 382 212 382 "/>
<path id="49" d="M206 365 L198 379 "/>
<path id="50" d="M195 370 L212 374 "/>
<path id="51" d="M243 370 C243 370 241.0333 370.7335 241 371 C240.8168 372.4659 240.9244 376.8049 242 378 C243.3887 379.543 249.1653 381.3035 250 381 C250.67 380.7564 253.334 374.668 253 374 C252.4231 372.8463 244 369 244 369 "/>
<path id="52" d="M284 369 L285 382 "/>
<path id="53" d="M292 370 L292 382 "/>
<path id="54" d="M293 366 L294 373 "/>
<path id="55" d="M286 367 L286 372 "/>
<path id="56" d="M280 378 L301 377 "/>
<path id="57" d="M279 372 L298 372 "/>
<path id="58" d="M280 147 C280 147 279.6178 150.3631 280 151 C280.2675 151.4459 281.6188 152 283 152 C288.5247 152 294.5061 151.247 295 151 C295 151 293.5275 147.0754 293 147 C290.5969 146.6567 281 149 281 149 "/>
<path id="59" d="M175 99 C175 99 172.5332 95.844 172 93 C171.1874 88.6663 171.1646 87.5948 172 83 C173.0633 77.1521 175.5778 76.4888 176 71 C176.475 64.8251 173.5014 62.9833 174 57 C174.3725 52.5305 176.7209 47.7309 178 47 C179.1662 46.3336 185.6392 47.3656 188 49 C189.627 50.1264 190.7983 52.7051 191 56 C192.1794 75.2642 191 98 191 98 "/>
</g>
</g>
</svg>
