<?xml version="1.0" encoding="utf-8"?>
<!DOCTYPE svg PUBLIC "-//W3C//DTD SVG 1.1//EN" "http://www.w3.org/Graphics/SVG/1.1/DTD/svg11.dtd">
<svg viewBox="0 0 800 800" preserveAspectRatio="xMinYMin meet" xmlns="http://www.w3.org/2000/svg" version="1.1">
<g fill="none" stroke="black" stroke-linecap="round" stroke-linejoin="round" stroke-width="1.0225">
<g transform="translate(112.4597,87.52) scale(2.9341) translate(-153,-84)">
<path id="0" d="M153 295 C153 295 158.7524 288.9874 159 284 C161.8501 226.5906 156.9884 217.9958 160 154 C160.9339 134.154 161.9271 133.1641 167 114 C170.7467 99.8458 172.9096 96.1809 178 86 C178.6078 84.7844 180.1877 84.0378 182 84 C223.2539 83.1405 231.5745 81.2754 274 84 C282.0468 84.5168 282.8927 88.5325 291 91 C293.5428 91.7739 295.0971 90.0486 297 91 C301.4401 93.22 301.8811 96.3186 307 99 C311.5349 101.3754 316.5857 99.7864 318 102 C323.7354 110.9772 325.9572 118.2514 330 135 C339.7827 175.5281 341.147 176.6219 346 218 C350.5371 256.6848 353.3066 291.5125 349 297 C346.1337 300.6523 315.7165 299.2202 284 297 C266.6828 295.7878 266.3227 291.318 249 290 C221.2116 287.8857 219.7884 287.8857 192 290 C174.6773 291.318 157 297 157 297 "/>
<path id="1" d="M206 120 C206 120 202.9683 122.9567 202 126 C199.7426 133.0946 199.2861 134.1335 199 142 C198.3081 161.0271 197.2848 172.4664 200 181 C200.6309 182.9829 206.4264 184.5392 213 186 C228.4247 189.4277 229.0997 190.0305 245 191 C269.6097 192.5006 272.9558 193.9176 295 191 C303.4611 189.8802 310.5371 186.1869 313 182 C316.2912 176.4049 316.3124 168.624 315 157 C312.9861 139.1629 311.8062 124.9298 306 120 C298.703 113.8044 283.8131 114.4578 262 112 C248.8834 110.5221 248.0467 110.5767 235 112 C221.1538 113.5105 207 118 207 118 "/>
<path id="2" d="M191 218 C191 218 190.1359 211.9009 191 210 C191.5695 208.7471 193.7012 207.3448 196 207 C202.3269 206.051 208.63 205.8847 211 207 C211.9108 207.4286 213.1181 214.9441 213 215 C211.5833 215.6711 192 216 192 216 "/>
<path id="3" d="M249 215 C249 215 250.0285 209.4858 251 209 C253.4288 207.7856 262.1875 207.3125 263 208 C263.8125 208.6875 264.5498 219.1754 264 220 C263.709 220.4366 258.2987 220.9425 255 220 C252.7485 219.3567 250 216 250 216 "/>
<path id="4" d="M293 219 C293 219 291.1266 210.7468 292 209 C292.7355 207.529 296.2172 206.164 300 205 C302.049 204.3695 303.4032 204.4012 305 205 C306.3174 205.494 307.6469 206.7054 308 208 C308.7398 210.7125 308.4615 215.6923 308 216 C306.9615 216.6923 296 216 296 216 "/>
<path id="5" d="M203 243 C203 243 202.4351 236.6457 203 236 C203.575 235.3428 206.5175 235.2487 210 235 C213.4473 234.7538 216.3543 234.4351 217 235 C217.6572 235.575 218.1638 241.9106 218 242 C217.334 242.3633 206 241 206 241 "/>
<path id="6" d="M258 247 C258 247 257.5052 240.2969 258 240 C259.9086 238.8549 272.1931 237.5966 273 238 C273.2017 238.1009 272.824 246.485 272 247 C270.0566 248.2146 262.9891 248.3327 257 248 C255.7532 247.9307 254 246 254 246 "/>
<path id="7" d="M297 247 C297 247 298.6487 239.0135 300 238 C301.2474 237.0645 308.2336 237.3102 309 238 C309.7749 238.6974 310.1988 246.9205 310 247 C308.4247 247.6301 289 246 289 246 "/>
<path id="8" d="M210 270 C210 270 209.6295 266.2779 210 266 C211.1734 265.12 214.0661 264.6557 218 264 C219.8883 263.6853 221.2406 263.4576 222 264 C223.2476 264.8911 225.0111 268.992 225 269 C224.8049 269.1394 215 269 215 269 "/>
<path id="9" d="M265 277 C265 277 262.7566 271.0952 263 270 C263.1073 269.5174 265.1051 268.3445 267 268 C270.0398 267.4473 273.2407 267.4306 274 268 C274.5966 268.4474 275.1955 273.8534 275 274 C274.4973 274.377 266 274 266 274 "/>
<path id="10" d="M302 274 C302 274 302.837 266.9515 304 266 C305.3362 264.9067 311.9058 264.5623 313 265 C313.3817 265.1527 314.1835 269.8623 314 270 C313.3493 270.488 305 271 305 271 "/>
<path id="11" d="M334 193 C334 193 330.1461 198.5388 330 200 C329.9467 200.5331 331.9336 202.7334 333 203 C334.3507 203.3377 337.4937 202.675 338 202 C338.826 200.8986 339.3936 195.3028 339 195 C337.5361 193.8739 325 192 325 192 "/>
<path id="12" d="M329 172 C329 172 327.3649 177.8357 328 179 C328.7692 180.4103 332.4165 182.6025 335 183 C336.9311 183.2971 340.2357 181.8917 341 181 C341.535 180.3758 341.5988 177.5968 341 176 C340.506 174.6826 339.3114 173.4371 338 173 C336.0329 172.3443 332 173 332 173 "/>
<path id="13" d="M178 210 C178 210 175.834 214.5058 176 216 C176.0958 216.862 177.6966 218.609 179 219 C181.3394 219.7018 185.5124 219.596 186 219 C187.0759 217.685 188.3198 209.279 188 208 C187.9315 207.7259 183 207 183 207 "/>
<path id="14" d="M179 184 C179 184 176.0539 183.9191 176 184 C175.9371 184.0944 176.3673 186.6046 177 187 C178.8155 188.1347 182.5945 189.4685 184 189 C185.5535 188.4822 187.9625 185.6975 189 183 C189.9166 180.6168 189.7251 176.7251 189 176 C187.6535 174.6535 181.7649 173.2304 179 173 C178.5055 172.9588 177.0709 174.2908 177 175 C176.7453 177.5468 178 183 178 183 "/>
</g>
</g>
</svg>
