<?xml version="1.0" encoding="utf-8"?>
<!DOCTYPE svg PUBLIC "-//W3C//DTD SVG 1.1//EN" "http://www.w3.org/Graphics/SVG/1.1/DTD/svg11.dtd">
<svg viewBox="0 0 800 800" preserveAspectRatio="xMinYMin meet" xmlns="http://www.w3.org/2000/svg" version="1.1">
<g fill="none" stroke="black" stroke-linecap="round" stroke-linejoin="round" stroke-width="1.6369">
<g transform="translate(253.3818,87.52) scale(1.8327) translate(-194,-25)">
<path id="0" d="M195 141 C195 141 207.4201 136.4348 220 134 C238.1231 130.4923 238.5243 130.5396 257 129 C274.3235 127.5564 276.6677 129.8253 292 128 C295.264 127.6114 299.0686 124.6629 299 124 C297.8414 112.8004 291.1847 97.0755 286 70 C282.2409 50.369 284.3816 46.9081 281 30 C280.5216 27.6081 276.9836 25.0091 277 25 C277.1749 24.9028 289.2799 23.8416 290 25 C293.8509 31.1949 294.2079 44.6237 300 62 C301.3882 66.1646 304.5193 66.3144 305 70 C307.1186 86.2424 304.1779 91.9658 306 108 C306.3086 110.7154 309.4144 111.0303 310 114 C315.7767 143.2962 313.0085 147.2693 320 179 C325.8806 205.689 330.0899 205.2309 336 232 C346.9743 281.707 355.2315 319.8233 354 333 C353.8932 334.1432 339.2871 335.1537 326 339 C320.8851 340.4806 321.0125 342.538 316 344 C309.6204 345.8607 308.6604 344.1438 302 346 C278.5835 352.5259 278.5755 355.2499 255 361 C238.1441 365.1112 221.216 367.4461 220 366 C217.4775 363.0003 221.227 340.9178 218 317 C212.8242 278.6383 209.0973 278.616 203 240 C197.1292 202.8181 197.4633 202.3266 194 165 C192.9953 154.1714 194 143 194 143 "/>
<path id="1" d="M210 155 C210 155 234.5786 155.5315 257 153 C264.3896 152.1657 264.5779 149.2724 272 148 C281.4414 146.3815 291.2152 145.701 292 147 C295.8547 153.3802 302.0416 190.5839 301 196 C300.8534 196.7624 290.6565 195.9771 282 199 C260.136 206.635 260.051 209.6857 238 218 C230.0232 221.0076 227.0988 221.3901 221 222 C220.0186 222.0981 218.1249 220.8116 218 220 C214.7498 198.8734 211 157 211 157 "/>
<path id="2" d="M220 246 C220 246 222.6732 243.4986 225 243 C228.7112 242.2048 232.8785 242.3271 234 243 C234.5732 243.3439 235.4239 248.5231 235 249 C234.0877 250.0264 230.3558 250.911 226 252 C224.6598 252.3351 223.075 252.15 223 252 C222.7 251.4 223 246 223 246 "/>
<path id="3" d="M252 236 C252 236 257.5813 231.9964 263 230 C266.4326 228.7354 270.6643 228.6643 271 229 C271.4316 229.4316 271.5906 237.6063 271 238 C269.4579 239.0281 258.018 239.6306 256 239 C255.605 238.8766 255 233 255 233 "/>
<path id="4" d="M293 224 C293 224 296.0722 220.9149 299 220 C303.1645 218.6986 308.6017 218.646 309 219 C309.306 219.272 308.7534 227.4784 308 228 C306.7497 228.8656 296.711 228.5817 296 228 C295.6229 227.6915 297 219 297 219 "/>
<path id="5" d="M227 277 C227 277 242.637 273.7595 244 274 C244.0876 274.0155 244.8743 278.2515 244 280 C242.6886 282.6228 241.0208 284.4896 238 286 C234.308 287.846 228.6478 288.4122 228 288 C227.5007 287.6823 227 279 227 279 "/>
<path id="6" d="M270 264 C270 264 281.1754 262.4502 282 263 C282.4366 263.291 282.6659 271.3946 282 272 C281.0307 272.8812 271.9304 273.6202 271 273 C270.3698 272.5798 270 264 270 264 "/>
<path id="7" d="M302 254 C302 254 320.3838 248.71 321 249 C321.1524 249.0717 319.2197 261.7803 319 262 C318.9854 262.0146 315.287 257.8316 313 257 C311.6438 256.5068 308.0771 258.1234 308 258 C307.6733 257.4772 308 249 308 249 "/>
<path id="8" d="M234 305 C234 305 243.8844 304.3491 246 305 C246.3933 305.121 246.836 307.0325 247 309 C247.3212 312.8547 247.6011 316.459 247 317 C246.09 317.819 237.4561 318.4561 237 318 C236.4425 317.4425 237 307 237 307 "/>
<path id="9" d="M278 295 C278 295 297.1861 289.3691 299 290 C299.6142 290.2136 301.5692 302.4308 301 303 C300.1204 303.8796 286.0573 304.4934 285 304 C284.814 303.9132 286 296 286 296 "/>
<path id="10" d="M314 284 C314 284 329.845 279.4867 331 280 C331.4805 280.2136 332.437 291.3992 332 292 C331.785 292.2956 323.3138 291.6626 323 291 C321.9267 288.734 323 273 323 273 "/>
</g>
</g>
</svg>
