<?xml version="1.0" encoding="utf-8"?>
<!DOCTYPE svg PUBLIC "-//W3C//DTD SVG 1.1//EN" "http://www.w3.org/Graphics/SVG/1.1/DTD/svg11.dtd">
<svg viewBox="0 0 800 800" preserveAspectRatio="xMinYMin meet" xmlns="http://www.w3.org/2000/svg" version="1.1">
<g fill="none" stroke="black" stroke-linecap="round" stroke-linejoin="round" stroke-width="0.80165">
<g transform="translate(252.1801,87.52) scale(3.7423) translate(-201,-152)">
<path id="0" d="M201 157 L202 298 "/>
<path id="1" d="M201 158 C201 158 203.8648 154.1686 206 154 C234.5816 151.7436 277 152 277 152 "/>
<path id="2" d="M277 152 L278 298 "/>
<path id="3" d="M205 298 L279 298 "/>
<path id="4" d="M209 159 C209 159 206.4237 198.8784 209 201 C212.7987 204.1284 238.6322 201.7914 260 201 C261.288 200.9523 263 199 263 199 "/>
<path id="5" d="M211 159 C211 159 263.9173 157.7571 271 160 C271.6693 160.212 271.857 169.2162 271 178 C269.8864 189.4142 267 201 267 201 "/>
<path id="6" d="M241 211 C241 211 231.625 210.375 231 211 C230.375 211.625 230.4955 220.6216 231 221 C231.7567 221.5675 240.2511 221.1781 243 220 C243.9163 219.6073 245.153 216.5305 245 215 C244.831 213.3101 242 210 242 210 "/>
<path id="7" d="M261 204 C261 204 259.7038 212.6615 260 213 C260.2187 213.25 267.0205 212.6122 268 212 C268.2839 211.8225 268.4625 208.555 268 208 C267.287 207.1444 263 206 263 206 "/>
<path id="8" d="M262 217 C262 217 261.6585 225.7609 262 226 C262.4662 226.3264 270.7351 225.012 272 224 C272.5234 223.5813 272.4886 218.4886 272 218 C271.3486 217.3486 265 217 265 217 "/>
<path id="9" d="M210 205 C210 205 209.6414 214.6414 210 215 C210.2152 215.2152 217.1269 213.9822 218 213 C218.6708 212.2454 218.689 206.8859 218 206 C217.2672 205.0579 211 204 211 204 "/>
<path id="10" d="M209 219 C209 219 208.5889 225.7122 209 226 C209.8389 226.5872 217.6938 226.7125 219 226 C219.5581 225.6956 220.1388 220.0992 220 220 C219.6921 219.7801 212 221 212 221 "/>
<path id="11" d="M211 234 L276 237 "/>
<path id="12" d="M224 234 L201 235 "/>
<path id="13" d="M203 255 L278 255 "/>
<path id="14" d="M203 275 C203 275 232.9196 275.5305 262 274 C270.4494 273.5553 279 271 279 271 "/>
<path id="15" d="M264 237 C264 237 264.9818 243.6 264 249 C263.1223 253.8273 260.3976 254.2294 260 259 C258.538 276.5435 260 297 260 297 "/>
<path id="16" d="M227 235 C227 235 225.9779 264.3058 227 281 C227.0707 282.1554 229.7932 282.7595 230 284 C230.8861 289.3165 230 299 230 299 "/>
<path id="17" d="M214 240 L214 242 "/>
<path id="18" d="M243 244 C243 244 244.9957 241.9914 245 242 C245.0257 242.0515 244.9286 247.9048 245 248 C245.003 248.004 248 246 248 246 "/>
<path id="19" d="M270 244 C270 244 274 245.96 274 246 C274 246.04 270 248 270 248 "/>
<path id="20" d="M212 262 C212 262 211.6875 266.6875 212 267 C212.3125 267.3125 216.4612 266.7845 217 267 C217.0862 267.0345 217 269 217 269 "/>
<path id="21" d="M244 261 C244 261 242 263 242 263 C242.0214 263.0214 245.5293 262.6234 246 263 C246.4942 263.3954 247.1076 266.8924 247 267 C246.8207 267.1793 242.1576 267.197 242 267 C241.8345 266.7931 243 262 243 262 "/>
<path id="22" d="M244 260 L246 260 "/>
<path id="23" d="M272 260 C272 260 268.9305 269.6872 269 270 C269.0008 270.0037 273.9998 269.0001 274 269 C274.0001 268.9999 271 269 271 269 "/>
<path id="24" d="M210 281 C210 281 211.9938 280.9689 212 281 C212.0746 281.3728 211 286 211 286 "/>
<path id="25" d="M246 282 C246 282 242.9945 282.9959 243 283 C243.0208 283.0156 248.7532 284.2875 250 285 C250.175 285.1 250.1154 286.9231 250 287 C249.7404 287.1731 247.0169 287.0677 247 287 C246.8251 286.3004 248 279 248 279 "/>
<path id="26" d="M274 288 C274 288 269.0647 283.0259 269 283 C268.9889 282.9956 268.9715 285.9943 269 286 C269.2185 286.0437 273.9819 283.9819 274 284 C274.0181 284.0181 272 289 272 289 "/>
<path id="27" d="M202 298 L202 315 "/>
<path id="28" d="M203 318 L276 319 "/>
<path id="29" d="M280 296 L276 316 "/>
<path id="30" d="M262 300 L261 317 "/>
<path id="31" d="M231 297 C231 297 232.967 297.6866 233 298 C233.4906 302.6608 233 316 233 316 "/>
<path id="32" d="M245 305 C245 305 244.881 309.949 245 310 C245.3412 310.1462 250.9796 308.8746 252 308 C252.4014 307.6559 252.1426 304.0855 252 304 C251.7387 303.8432 247 305 247 305 "/>
<path id="33" d="M214 309 C214 309 219.9894 308.0158 220 308 C220.0014 307.9979 216 306 216 306 "/>
<path id="34" d="M214 304 C214 304 214.9426 313.8471 215 314 C215.0069 314.0184 216.7438 312.9393 217 312 C217.9332 308.5784 218.024 303.024 218 303 C218 303 213 308 213 308 "/>
<path id="35" d="M266 306 C266 306 272 304.999 272 305 C272 305.0039 266 308.9994 266 309 C266 309.0003 272 307 272 307 "/>
<path id="36" d="M266 304 C266 304 270.9466 305.7711 272 307 C272.5174 307.6037 272 311 272 311 "/>
<path id="37" d="M268 303 L268 313 "/>
</g>
</g>
</svg>
