<?xml version="1.0" encoding="utf-8"?>
<!DOCTYPE svg PUBLIC "-//W3C//DTD SVG 1.1//EN" "http://www.w3.org/Graphics/SVG/1.1/DTD/svg11.dtd">
<svg viewBox="0 0 800 800" preserveAspectRatio="xMinYMin meet" xmlns="http://www.w3.org/2000/svg" version="1.1">
<g fill="none" stroke="black" stroke-linecap="round" stroke-linejoin="round" stroke-width="1.7569">
<g transform="translate(143.0151,87.52) scale(1.7075) translate(-135,0)">
<path id="0" d="M171 82 C171 82 175.1454 98.1044 176 114 C177.6155 144.0486 178.0017 145.3082 176 175 C175.0679 188.8259 171.4127 189.0493 170 203 C167.4715 227.9693 165.7529 252.7197 168 254 C175.2136 258.1101 214.0246 254.5185 256 252 C261.8304 251.6502 263.5298 250.9056 268 248 C272.2405 245.2437 272.25 241.2059 276 239 C278.7046 237.409 280.5074 238.1296 285 238 C332.299 236.6356 333.41 235.2103 380 236 C391.317 236.1918 402.3527 240.4088 403 240 C403.193 239.8781 399.5516 231.8604 399 224 C397.6109 204.205 397.2754 203.1778 399 183 C402.2328 145.1766 404.9296 144.9904 409 107 C410.9126 89.1491 410.4933 88.9862 411 71 C411.4918 53.5408 412.091 36.2915 411 36 C395.716 31.9165 344.1886 33.3095 280 36 C262.2166 36.7454 261.8335 41.496 244 43 C221.093 44.9319 212.5973 41.2003 197 43 C195.111 43.218 192.8962 46.162 192 49 C190.4254 53.9863 193.2433 56.9527 191 62 C184.2517 77.1837 179.8381 78.7156 172 94 C170.5893 96.7508 171 101 171 101 "/>
<path id="1" d="M142 45 C142 45 155.1382 98.9351 161 152 C164.4924 183.6156 161 217 161 217 "/>
<path id="2" d="M199 26 C199 26 204.0879 24.0457 209 24 C309.5105 23.065 352.362 19.6997 414 24 C417.3214 24.2317 418.669 33.3728 424 39 C426.5222 41.6623 430.0656 40.7138 432 43 C434.0726 45.4494 434.8921 47.6859 435 52 C436.7949 123.7949 436.439 127.931 436 203 C435.9418 212.9491 435.5216 213.1097 434 223 C430.5361 245.5153 431.2795 246.2221 426 268 C423.4199 278.6429 421.0004 278.4986 418 289 C416.1224 295.5714 418.1681 296.6098 416 303 C408.9445 323.7952 406.1704 337.0942 399 345 C396.3834 347.885 387.7595 344.4088 377 346 C317.2668 354.8338 316.5946 361.013 257 366 C198.715 370.8774 160.7454 368.2373 138 366 C137.201 365.9214 135.5538 359.9067 135 354 C134.0982 344.3809 133.8835 343.7297 135 334 C137.3337 313.6632 137.2644 313.1264 142 293 C153.2022 245.3906 153.4615 244.1156 167 198 C169.1239 190.7654 174 184 174 184 "/>
<path id="3" d="M229 298 C229 298 250.1055 293.3777 271 292 C295.1494 290.4077 318.7801 291.39 320 292 C320.0373 292.0187 313.1356 310.0178 309 311 C290.6045 315.3689 264.5188 314.8871 240 311 C234.6482 310.1515 227 298 227 298 "/>
<path id="4" d="M219 281 C219 281 339.5815 279.6945 346 281 C346.2082 281.0423 342.2546 293.44 337 305 C329.8409 320.7501 329.1252 323.0736 321 336 C319.462 338.4468 317.57 339.8545 315 340 C295.6238 341.0968 290.6544 341.8318 268 339 C247.6892 336.4611 240.5845 334.611 227 329 C224.376 327.9162 222.8759 324.3794 222 320 C219.6877 308.4385 219.0939 305.4778 220 294 C220.4346 288.4949 222.1335 286.7776 225 282 C226.032 280.2801 228.1996 280.6009 229 279 C231.0011 274.9978 232 268 232 268 "/>
<path id="5" d="M378 23 C378 23 376.518 2.3634 378 1 C379.8978 -0.74601 402.3897 -0.24411 403 0 C403.0347 0.013892 398 9 398 9 "/>
<path id="6" d="M397 8 C397 8 398.3573 24.5355 398 25 C397.9018 25.1277 387 21 387 21 "/>
<path id="7" d="M198 26 C198 26 151.122 29.2089 144 34 C141.5402 35.6547 143 63 143 63 "/>
</g>
</g>
</svg>
