<?xml version="1.0" encoding="utf-8"?>
<!DOCTYPE svg PUBLIC "-//W3C//DTD SVG 1.1//EN" "http://www.w3.org/Graphics/SVG/1.1/DTD/svg11.dtd">
<svg viewBox="0 0 800 800" preserveAspectRatio="xMinYMin meet" xmlns="http://www.w3.org/2000/svg" version="1.1">
<g fill="none" stroke="black" stroke-linecap="round" stroke-linejoin="round" stroke-width="1.7953">
<g transform="translate(268.8252,87.52) scale(1.671) translate(-226,-28.6667)">
<path id="0" d="M377 368.6667 L380 227.6667 "/>
<path id="1" d="M378 358.6667 C378 358.6667 373.5858 387.0818 370 398.6667 C369.7005 399.6342 367.3515 400.592 365 400.6667 C338.0642 401.5218 322.1672 400.1525 307 400.6667 C306.7208 400.6761 306.2879 402.6519 306 402.6667 C296.0776 403.1755 285.5356 405.1718 268 402.6667 C255.8701 400.9338 254.96 398.7924 243 393.6667 C237.7897 391.4337 236.2595 391.1435 233 387.6667 C229.8862 384.3453 229.198 382.6298 228 377.6667 C225.9173 369.0384 226.0689 368.1126 226 358.6667 C225.5722 300.0514 222.846 296.5567 227 240.6667 C228.0816 226.1145 233.8958 225.2563 237 210.6667 C238.6425 202.9467 235.7545 201.7627 237 193.6667 C239.6545 176.4123 243.0526 175.9495 245 158.6667 C246.9527 141.3364 243.4978 140.0923 245 122.6667 C245.936 111.809 248.6016 111.6791 250 100.6667 C252.5565 80.5339 250.9626 80.0409 253 59.6667 C253.9521 50.1455 253.6749 49.6766 256 40.6667 C257.5627 34.6111 259.5272 30.2867 261 28.6667 C261.3156 28.3195 265.1013 28.6781 266 29.6667 C268.3573 32.2597 270.6663 34.9954 271 39.6667 C273.8396 79.421 270.2508 115.4329 273 127.6667 C273.1568 128.3645 282.7987 129.6608 291 128.6667 C298.1588 127.7989 298.7063 124.4771 306 123.6667 C320.0665 122.1037 321.4385 122.3184 336 123.6667 C347.8739 124.7661 351.225 124.4045 360 128.6667 C365.5875 131.3806 367.5462 134.3686 371 140.6667 C375.2694 148.452 375.6324 150.2891 377 159.6667 C379.0055 173.4185 376.1903 174.7924 378 188.6667 C379.0966 197.0741 382.0753 197.3447 383 205.6667 C384.4748 218.9397 383.8384 228.8038 383 233.6667 C382.9442 233.9901 378 234.6667 378 234.6667 "/>
<path id="2" d="M342 168.6667 C342 168.6667 346.4824 176.902 347 184.6667 C348.8699 212.7145 351.6738 222.2221 347 243.6667 C345.2014 251.9193 337.3412 258.7921 330 262.6667 C324.8393 265.3904 319.7637 264.2601 311 262.6667 C298.7979 260.4481 298.3819 257.4526 286 254.6667 C278.9659 253.084 277.4733 255.6283 271 253.6667 C262.2322 251.0097 258.1041 249.2846 253 244.6667 C250.6479 242.5385 250.2648 239.522 250 234.6667 C248.8274 213.1695 249.6067 212.0821 250 189.6667 C250.105 183.6805 249.3557 182.1297 251 177.6667 C252.2245 174.3431 253.5936 172.5591 257 170.6667 C269.8219 163.5434 272.5924 160.5482 287 157.6667 C302.4682 154.573 305.8204 155.7632 322 157.6667 C329.7227 158.5752 332.5786 159.4963 338 163.6667 C343.4619 167.8681 348 177.6667 348 177.6667 "/>
<path id="3" d="M352 150.6667 C352 150.6667 362.1991 151.7056 363 152.6667 C363.6574 153.4556 362.7961 161.6715 362 162.6667 C361.5872 163.1827 357.1727 163.572 355 162.6667 C352.8014 161.7506 351.0928 159.8523 350 157.6667 C349.2714 156.2096 350 152.6667 350 152.6667 "/>
<path id="4" d="M277 303.6667 C277 303.6667 276.0585 290.1988 277 282.6667 C277.1513 281.4562 278.8754 279.7416 280 279.6667 C289.4651 279.0357 298.6801 278.5867 307 280.6667 C309.0609 281.1819 311.512 284.5432 312 287.6667 C313.568 297.7018 313.6514 311.2355 312 312.6667 C309.6474 314.7056 289.8806 315.7966 282 313.6667 C279.3564 312.9522 276.9695 307.7311 275 302.6667 C273.9953 300.0832 275 295.6667 275 295.6667 "/>
<path id="5" d="M325 290.6667 C325 290.6667 342.8448 289.8046 345 290.6667 C345.3448 290.8046 346.0449 296.9688 345 298.6667 C343.704 300.7727 340.721 302.5723 337 303.6667 C333.4639 304.7067 329.9853 304.8011 328 303.6667 C325.8887 302.4602 324.4193 299.3568 323 295.6667 C322.2849 293.8073 323 290.6667 323 290.6667 "/>
<path id="6" d="M242 288.6667 C242 288.6667 262.1223 289.2904 265 290.6667 C265.517 290.914 265.7714 296.581 265 299.6667 C264.6786 300.9524 263.2066 302.5219 262 302.6667 C254.0997 303.6147 242.3558 303.6304 240 302.6667 C239.6058 302.5054 240 293.6667 240 293.6667 "/>
<path id="7" d="M257 322.6667 C257 322.6667 252.9622 377.7211 256 379.6667 C263.7003 384.5983 338.6681 384.7743 346 379.6667 C349.4371 377.2723 348.5112 321.8944 345 317.6667 C342.9399 315.1862 317.1007 318.3474 297 320.6667 C295.193 320.8752 294.6935 323.5538 293 323.6667 C276.4685 324.7688 252 323.6667 252 323.6667 "/>
<path id="8" d="M256 344.6667 C256 344.6667 280.5692 341.2954 305 339.6667 C317.8757 338.8083 319.8906 338.5916 331 339.6667 C333.2605 339.8854 333.5871 342.1587 336 342.6667 C342.0886 343.9485 350 343.6667 350 343.6667 "/>
<path id="9" d="M345 362.6667 C345 362.6667 332.4673 364.1812 321 362.6667 C306.7019 360.7782 306.0867 356.6729 292 355.6667 C272.49 354.2731 251 357.6667 251 357.6667 "/>
<path id="10" d="M276 325.6667 L277 380.6667 "/>
<path id="11" d="M307 320.6667 L307 380.6667 "/>
<path id="12" d="M330 318.6667 L327 379.6667 "/>
</g>
</g>
</svg>
