<?xml version="1.0" encoding="utf-8"?>
<!DOCTYPE svg PUBLIC "-//W3C//DTD SVG 1.1//EN" "http://www.w3.org/Graphics/SVG/1.1/DTD/svg11.dtd">
<svg viewBox="0 0 800 800" preserveAspectRatio="xMinYMin meet" xmlns="http://www.w3.org/2000/svg" version="1.1">
<g fill="none" stroke="black" stroke-linecap="round" stroke-linejoin="round" stroke-width="0.97446">
<g transform="translate(92.1379,87.52) scale(3.0786) translate(-176,-102.1333)">
<path id="0" d="M261 223.1333 L233 273.1333 "/>
<path id="1" d="M260 223.1333 C260 223.1333 272.1663 227.6143 284 228.1333 C327.9745 230.062 374 228.1333 374 228.1333 "/>
<path id="2" d="M373 229.1333 C373 229.1333 364.1817 241.2753 358 254.1333 C351.8958 266.8302 348 281.1333 348 281.1333 "/>
<path id="3" d="M232 281.1333 C232 281.1333 283.0162 281.0507 333 283.1333 C342.4569 283.5274 352 286.1333 352 286.1333 "/>
<path id="4" d="M375 230.1333 L374 238.1333 "/>
<path id="5" d="M376 239.1333 C376 239.1333 367.1213 248.6397 361 259.1333 C353.4238 272.1211 348 287.1333 348 287.1333 "/>
<path id="6" d="M231 278.1333 C231 278.1333 230.9342 286.129 231 286.1333 C246.0592 287.129 352 286.1333 352 286.1333 "/>
<path id="7" d="M252 233.1333 C252 233.1333 251.836 218.7524 253 216.1333 C253.2743 215.5161 259.4438 214.6328 260 215.1333 C261.0941 216.118 263 225.1333 263 225.1333 "/>
<path id="8" d="M226 271.1333 C226 271.1333 226.9741 288.0988 227 288.1333 C227.0077 288.1435 232 279.1333 232 279.1333 "/>
<path id="9" d="M227 270.1333 C227 270.1333 236.8941 267.9612 237 268.1333 C237.3511 268.7038 235 283.1333 235 283.1333 "/>
<path id="10" d="M245 159.1333 L247 163.1333 "/>
<path id="11" d="M190 183.1333 C190 183.1333 191.1118 191.1054 194 198.1333 C205.9189 227.1359 208.3482 227.0037 220 256.1333 C224.1565 266.5246 226 278.1333 226 278.1333 "/>
<path id="12" d="M196 179.1333 C196 179.1333 195.922 185.8085 198 191.1333 C203.6034 205.4921 206.9793 206.0752 212 220.1333 C213.9724 225.6562 210.7304 228.2358 213 233.1333 C219.1262 246.353 225.7486 248.2966 231 261.1333 C233.376 266.9412 231 277.1333 231 277.1333 "/>
<path id="13" d="M254 228.1333 C254 228.1333 247.9612 223.0362 246 218.1333 C243.6525 212.2647 246.2241 209.8056 244 203.1333 C241.0188 194.1896 238.0754 194.3596 235 185.1333 C229.2885 167.9988 226 149.1333 226 149.1333 "/>
<path id="14" d="M263 221.1333 C263 221.1333 256.3467 212.7392 253 204.1333 C249.7067 195.6648 251.9051 194.2116 249 185.1333 C244.0093 169.5373 243.8892 168.6006 237 154.1333 C234.2211 148.2976 229 143.1333 229 143.1333 "/>
<path id="15" d="M186 182.1333 C186 182.1333 197.4452 173.2341 207 163.1333 C214.681 155.0134 213.6311 152.8372 221 145.1333 C223.97 142.0283 229 140.1333 229 140.1333 "/>
<path id="16" d="M187 180.1333 C187 180.1333 183.8406 175.2157 183 172.1333 C182.7478 171.2086 183.3341 169.609 184 169.1333 C185.5741 168.009 187.6823 168.7961 190 167.1333 C209.4026 153.2141 230 136.1333 230 136.1333 "/>
<path id="17" d="M215 211.1333 L239 193.1333 "/>
<path id="18" d="M214 230.1333 C214 230.1333 218.7112 228.1872 222 225.1333 C232.2753 215.592 242 204.1333 242 204.1333 "/>
<path id="19" d="M211 213.1333 L238 193.1333 "/>
<path id="20" d="M239 288.1333 C239 288.1333 236.391 289.83 236 291.1333 C235.2982 293.4727 235.0298 296.0312 236 298.1333 C237.2154 300.7668 239.4286 302.5905 242 304.1333 C243.0714 304.7762 244.8343 304.7162 246 304.1333 C247.7485 303.2591 249.3236 302.0272 250 300.1333 C251.2905 296.5201 251.5201 293.7737 251 290.1333 C250.7664 288.4978 249.2368 286.5139 248 286.1333 C245.0768 285.2339 240.5343 285.6726 238 286.1333 C237.6544 286.1962 237 288.1333 237 288.1333 "/>
<path id="21" d="M243 295.1333 C243 295.1333 240.3378 295.6829 240 296.1333 C239.6882 296.5491 239.7653 298.9769 240 299.1333 C240.7822 299.6548 244.7984 300.305 246 300.1333 C246.2638 300.0957 247 298.9634 247 298.1333 C247 295.228 246.294 291.3783 246 291.1333 C245.8566 291.0138 241 293.1333 241 293.1333 "/>
<path id="22" d="M327 287.1333 C327 287.1333 321.5868 293.6126 321 297.1333 C320.5999 299.5338 322.7449 303.8783 324 305.1333 C324.5705 305.7038 327.9541 305.8306 329 305.1333 C330.6734 304.0178 332.309 301.8974 333 299.1333 C333.9872 295.1846 333.8907 290.4694 333 289.1333 C332.3468 288.1536 325 287.1333 325 287.1333 "/>
<path id="23" d="M327 293.1333 C327 293.1333 325.0377 293.8696 325 294.1333 C324.8283 295.3349 325.8395 300.0531 326 300.1333 C326.1405 300.2036 330.7505 297.6323 331 297.1333 C331.0907 296.9519 329 294.1333 329 294.1333 "/>
<path id="24" d="M196 162.1333 C196 162.1333 189.1758 152.3118 185 142.1333 C181.4139 133.3922 179.6168 125.1453 180 123.1333 C180.0789 122.7193 185.0399 122.8934 189 121.1333 C197.988 117.1387 206.4249 111.1014 207 111.1333 C207.0201 111.1345 206.1747 116.975 207 122.1333 C208.0984 128.9986 207.9729 130.3121 211 136.1333 C213.9518 141.8098 220 147.1333 220 147.1333 "/>
<path id="25" d="M190 164.1333 C190 164.1333 184.9574 152.2235 182 141.1333 C181.1763 138.0445 182.9257 136.9104 182 134.1333 C180.2808 128.9758 177.4305 127.7109 176 123.1333 C175.4792 121.4667 176.0309 118.7501 177 118.1333 C186.7757 111.9124 207.2328 101.7897 209 102.1333 C209.5183 102.2341 209.6793 115.473 213 125.1333 C214.5539 129.6539 218.4967 130.053 220 134.1333 C221.2983 137.6572 220 144.1333 220 144.1333 "/>
<path id="26" d="M368 247.1333 C368 247.1333 368.5651 253.9737 369 255.1333 C369.0389 255.2372 370.4172 255.4248 371 255.1333 C371.8743 254.6962 373 253.6851 373 253.1333 C373 251.2021 371 246.1333 371 246.1333 "/>
<path id="27" d="M366 252.1333 L367 254.1333 "/>
</g>
</g>
</svg>
