<?xml version="1.0" encoding="utf-8"?>
<!DOCTYPE svg PUBLIC "-//W3C//DTD SVG 1.1//EN" "http://www.w3.org/Graphics/SVG/1.1/DTD/svg11.dtd">
<svg viewBox="0 0 800 800" preserveAspectRatio="xMinYMin meet" xmlns="http://www.w3.org/2000/svg" version="1.1">
<g fill="none" stroke="black" stroke-linecap="round" stroke-linejoin="round" stroke-width="1.2001">
<g transform="translate(87.52,137.5168) scale(2.4998) translate(-201,-142.1333)">
<path id="0" d="M201 220.1333 C201 220.1333 202.6487 229.5875 206 238.1333 C212.5281 254.7801 212.4698 255.5437 221 271.1333 C226.7258 281.5978 227.043 284.6045 235 291.1333 C244.1177 298.6145 247.6082 300.1292 260 303.1333 C278.6349 307.6509 280.6847 306.6317 301 307.1333 C320.7478 307.6209 321.4029 307.5168 341 305.1333 C357.9714 303.0692 362.2064 303.6958 375 298.1333 C381.0965 295.4827 382.2223 292.0609 387 285.1333 C391.8319 278.1271 392.1491 277.3506 395 269.1333 C400.4849 253.324 401.9604 251.8677 404 236.1333 C405.2382 226.5818 403.6764 223.1802 402 215.1333 C401.7162 213.7713 400.0582 212.1225 399 212.1333 C330.2032 212.8353 265.826 213.7928 206 217.1333 C204.6582 217.2083 202 223.1333 202 223.1333 "/>
<path id="1" d="M208 225.1333 C208 225.1333 215.5637 236.6009 224 244.1333 C228.4421 248.0995 229.8491 247.7523 236 250.1333 C245.1571 253.678 245.5298 254.7128 255 256.1333 C274.7257 259.0922 276.0115 260.0852 296 259.1333 C327.497 257.6335 328.9686 256.3052 360 251.1333 C367.0454 249.9591 368.0946 249.7124 374 246.1333 C383.7408 240.2298 385.4054 239.4629 393 231.1333 C400.0349 223.4177 405 212.1333 405 212.1333 "/>
<path id="2" d="M375 306.1333 L374 306.1333 "/>
<path id="3" d="M251 306.1333 C251 306.1333 249.4107 302.7211 248 302.1333 C245.1535 300.9473 241.0886 300.0341 239 301.1333 C235.1082 303.1817 232.7785 306.3397 229 312.1333 C225.7091 317.1794 226.1183 318.1316 224 324.1333 C223.1762 326.4673 222.674 327.1775 223 329.1333 C223.5058 332.1682 223.8467 333.7109 226 336.1333 C231.0244 341.7858 232.2889 342.9389 239 347.1333 C243.5585 349.9824 244.9682 350.7739 250 351.1333 C257.5159 351.6702 259.8706 351.2127 267 349.1333 C270.4295 348.133 271.9508 346.9277 274 344.1333 C276.6155 340.5668 277.4171 338.7969 278 334.1333 C278.7703 327.9708 278.836 325.8708 277 320.1333 C275.3025 314.8286 273.8833 313.294 270 309.1333 C267.6671 306.6338 266.3731 305.8361 263 305.1333 C255.59 303.5896 246 304.1333 246 304.1333 "/>
<path id="4" d="M300 307.1333 C300 307.1333 320.6968 329.2399 342 343.1333 C352.6941 350.1077 361.7768 351.4767 369 352.1333 C370.4163 352.2621 372.8313 349.4587 375 346.1333 C380.0033 338.4616 380.2372 337.8348 384 329.1333 C388.1474 319.5426 388.2633 319.2754 391 309.1333 C396.7136 287.9593 396.9072 287.6205 401 266.1333 C402.8576 256.381 403 246.1333 403 246.1333 "/>
<path id="5" d="M330 309.1333 C330 309.1333 341.7702 320.1408 354 329.1333 C358.3213 332.3108 359.2745 332.6566 364 334.1333 C366.4522 334.8996 369.5167 334.8583 370 334.1333 C375.8 325.4334 379.9308 316.4234 388 298.1333 C394.8485 282.61 400 266.1333 400 266.1333 "/>
<path id="6" d="M403 218.1333 C403 218.1333 402.2725 215.4899 403 214.1333 C418.4295 185.3593 421.2789 179.0871 440 149.1333 C442.5493 145.0545 447.8525 142.0663 448 142.1333 C448.2589 142.251 451.3576 148.77 451 154.1333 C449.9879 169.3144 449.7664 171.6427 445 187.1333 C440.0337 203.2737 439.0483 203.8218 431 219.1333 C418.6915 242.5494 404 265.1333 404 265.1333 "/>
</g>
</g>
</svg>
