<?xml version="1.0" encoding="utf-8"?>
<!DOCTYPE svg PUBLIC "-//W3C//DTD SVG 1.1//EN" "http://www.w3.org/Graphics/SVG/1.1/DTD/svg11.dtd">
<svg viewBox="0 0 800 800" preserveAspectRatio="xMinYMin meet" xmlns="http://www.w3.org/2000/svg" version="1.1">
<g fill="none" stroke="black" stroke-linecap="round" stroke-linejoin="round" stroke-width="1.3249">
<g transform="translate(87.52,217.72) scale(2.2643) translate(-187,-186.1333)">
<path id="0" d="M189 186.1333 C189 186.1333 208.2954 193.8483 227 195.1333 C272.044 198.228 275.4543 191.4491 320 195.1333 C339.5952 196.754 340.2142 202.8357 360 206.1333 C375.2138 208.669 392 207.1333 392 207.1333 "/>
<path id="1" d="M187 188.1333 C187 188.1333 189.8032 188.1541 191 189.1333 C194.3646 191.8862 196.0836 192.8495 198 197.1333 C203.9351 210.4 204.8298 212.5505 208 227.1333 C209.5765 234.3853 208 243.1333 208 243.1333 C208 243.1333 207.9684 239.1353 208 239.1333 C215.8434 238.6353 239.6349 240.4223 271 239.1333 C312.445 237.4301 312.5602 235.1385 354 233.1333 C374.3989 232.1463 376.6171 233.5608 395 233.1333 C395.9072 233.1122 396.9625 232.4523 397 232.1333 C397.4861 228.0017 396.0624 216.7856 397 216.1333 C398.9374 214.7856 420 216.1333 420 216.1333 "/>
<path id="2" d="M393 205.1333 C393 205.1333 397.5949 214.8585 400 215.1333 C418.5403 217.2522 463 213.1333 463 213.1333 "/>
<path id="3" d="M210 242.1333 C210 242.1333 212.0851 247.3636 215 249.1333 C224.1611 254.6954 227.6692 252.8538 238 259.1333 C252.4826 267.9365 251.425 272.9514 266 280.1333 C284.0177 289.0116 307 293.1333 307 293.1333 "/>
<path id="4" d="M377 235.1333 C377 235.1333 375.1393 243.9492 371 247.1333 C347.0213 265.5785 339.0276 264.9527 312 285.1333 C302.8932 291.9331 296.5625 302.637 296 303.1333 C295.9709 303.159 295 300.1333 295 300.1333 "/>
<path id="5" d="M314 283.1333 C314 283.1333 303.1241 281.0551 295 283.1333 C283.5348 286.0663 282.0465 287.8211 271 294.1333 C265.112 297.4979 263.9075 298.1405 260 303.1333 C255.6777 308.6563 255.5076 310.2374 253 317.1333 C251.7324 320.6192 250.981 323.7322 252 325.1333 C255.6938 330.2123 260.3222 335.0972 269 339.1333 C279.6262 344.0757 281.997 343.1329 295 345.1333 C307.7058 347.0881 311.5097 349.3404 321 347.1333 C328.3554 345.4228 336.1075 340.1429 338 335.1333 C341.3901 326.1596 341.8439 312.4513 338 302.1333 C335.0788 294.2922 328.7734 291.6263 319 284.1333 C314.5801 280.7448 308 279.1333 308 279.1333 "/>
<path id="6" d="M295 296.1333 C295 296.1333 289.3314 294.9676 287 296.1333 C283.5029 297.8819 279.9206 300.8454 279 304.1333 C277.4968 309.502 277.9476 319.2329 280 321.1333 C284.0958 324.9257 293.2829 327.3792 306 329.1333 C321.0146 331.2043 325.9063 330.9939 338 329.1333 C340.9944 328.6727 344.2441 324.7964 345 323.1333 C345.3368 322.3924 344.5343 319.5215 343 318.1333 C335.5525 311.3952 333.8686 310.1064 324 304.1333 C315.2185 298.8182 314.472 298.3893 305 295.1333 C299.1319 293.1162 292 293.1333 292 293.1333 "/>
</g>
</g>
</svg>
