<?xml version="1.0" encoding="utf-8"?>
<!DOCTYPE svg PUBLIC "-//W3C//DTD SVG 1.1//EN" "http://www.w3.org/Graphics/SVG/1.1/DTD/svg11.dtd">
<svg viewBox="0 0 800 800" preserveAspectRatio="xMinYMin meet" xmlns="http://www.w3.org/2000/svg" version="1.1">
<g fill="none" stroke="black" stroke-linecap="round" stroke-linejoin="round" stroke-width="1.8721">
<g transform="translate(87.52,195.6862) scale(1.6025) translate(-136,-70)">
<path id="0" d="M151 143 C151 143 168.4804 138.9466 186 137 C208.7591 134.4712 209.4496 136.9886 232 134 C250.4983 131.5484 250.4216 128.9557 269 126 C294.2199 121.9877 294.4951 122.1254 320 120 C342.3684 118.136 354.6709 114.2602 365 118 C369.9755 119.8015 373.8416 129.1409 378 141 C386.889 166.3502 392 195 392 195 "/>
<path id="1" d="M153 146 C153 146 153.7895 166.0578 157 185 C158.7006 195.0335 160.8822 194.8995 163 205 C167.3305 225.6531 166.8201 245.9225 170 247 C187.0232 252.7682 227.6195 249.1497 284 246 C316.3796 244.1911 318.1558 244.6451 349 237 C375.1309 230.5231 390.1126 223.4906 401 217 C402.1169 216.3341 402.1846 210.8867 401 206 C398.4218 195.3651 393 184 393 184 "/>
<path id="2" d="M218 253 C218 253 249.827 255.138 280 251 C336.2124 243.2909 339.4868 242.1786 393 229 C403.7141 226.3615 405.3014 224.1213 414 218 C417.5198 215.5231 417.8805 214.239 420 210 C424.1427 201.7147 422.3501 199.342 427 192 C431.0626 185.5853 432.5849 185.1814 439 180 C445.2899 174.9197 445.7089 174.1247 453 171 C466.0073 165.4255 466.9065 164.8959 481 162 C502.8292 157.5146 526 156 526 156 "/>
<path id="3" d="M340 117 C340 117 356.6861 119.8293 368 116 C385.6097 110.0398 386.0078 103.9099 405 95 C426.069 85.1158 426.8167 85.0052 449 78 C464.3722 73.1456 465.0637 73.4517 481 71 C490.71 69.5061 501 70 501 70 "/>
<path id="4" d="M202 253 C202 253 196.2984 252.3451 194 254 C186.2929 259.5491 181.732 262.719 177 271 C173.5079 277.1111 173.7412 280.9768 174 289 C174.1898 294.8837 174.922 296.5281 178 302 C183.4243 311.6432 185.0315 316.286 192 321 C197.8923 324.986 205.0059 325.8743 212 325 C216.6627 324.4172 219.3197 321.6803 224 317 C229.6163 311.3837 232.0887 309.6896 234 303 C237.2395 291.6617 238.5425 284.5345 236 275 C234.0808 267.8029 229.3939 263.4858 222 258 C216.0401 253.5781 205 252 205 252 "/>
<path id="5" d="M360 240 C360 240 355.5373 239.1578 352 240 C345.7255 241.4939 343.2688 241.5073 339 245 C334.0954 249.0129 332.1372 251.8022 330 258 C327.8308 264.2907 328.2185 266.706 329 274 C329.6112 279.7041 330.1682 280.6904 333 286 C337.8888 295.1665 338.5689 296.9564 345 304 C347.9355 307.2151 349.7641 307.8853 354 309 C358.1062 310.0806 359.7106 310.1833 364 309 C373.0965 306.4906 377.5747 305.7742 383 301 C386.8168 297.6412 388.0107 293.7841 389 287 C391.2711 271.4271 390.4 268.5988 390 253 C389.9405 250.6808 389.3846 250.0769 388 248 C385.5952 244.3927 385.333 242.8517 382 241 C373.4241 236.2356 361 233 361 233 "/>
<path id="6" d="M151 144 C151 144 145.7559 144.3924 143 146 C140.9205 147.213 140.6711 148.374 139 151 C137.2484 153.7526 136.5332 154.156 136 157 C135.1874 161.3337 135.2019 163.5414 136 167 C136.2947 168.277 137.7143 169.6786 139 170 C142.0856 170.7714 146.0006 171.1997 148 170 C150.5326 168.4804 152.0912 165.5335 154 161 C155.7955 156.7356 156 151 156 151 "/>
</g>
</g>
</svg>
