<?xml version="1.0" encoding="utf-8"?>
<!DOCTYPE svg PUBLIC "-//W3C//DTD SVG 1.1//EN" "http://www.w3.org/Graphics/SVG/1.1/DTD/svg11.dtd">
<svg viewBox="0 0 800 800" preserveAspectRatio="xMinYMin meet" xmlns="http://www.w3.org/2000/svg" version="1.1">
<g fill="none" stroke="black" stroke-linecap="round" stroke-linejoin="round" stroke-width="3.029">
<g transform="translate(87.52,169.2303) scale(0.99043) translate(-4,-13)">
<path id="0" d="M451 13 C451 13 411.4398 19.0739 396 28 C390.7334 31.0447 392.7671 40.0386 387 50 C376.637 67.8997 376.5275 69.2842 363 85 C343.101 108.1179 328.8385 119.8031 319 129 C318.8769 129.1151 317 128 317 128 "/>
<path id="1" d="M292 128 C292 128 373.7271 134.1277 454 143 C468.0591 144.5539 469.7485 144.2059 482 149 C491.1623 152.5853 493.2313 154.013 500 161 C507.4944 168.7362 509.049 171.8824 513 181 C514.5413 184.5569 514.5262 187.3607 513 191 C508.963 200.6266 500 212 500 212 "/>
<path id="2" d="M296 129 C296 129 286.299 128.0543 277 129 C257.1245 131.0212 255.636 129.4939 237 135 C212.9496 142.1058 210.6632 144.5696 189 155 C185.6586 156.6088 186.2866 158.9243 183 161 C177.3633 164.56 176.6591 164.7262 170 167 C156.4013 171.6435 155.1982 169.4843 142 175 C88.918 197.1835 88.2876 198.6909 36 223 C31.7928 224.956 30.9683 225.0317 28 228 C24.575 231.425 22.7907 233.0463 22 237 C20.7751 243.1244 21.4752 246.291 23 253 C23.6492 255.8565 24.7474 257.157 27 259 C29.3905 260.9559 30.4712 261.3975 34 262 C70.1124 268.1655 72.4397 266.6232 109 273 C114.56 273.9698 114.4101 275.8695 120 277 C158.2622 284.7384 158.9138 284.8579 198 291 C228.8289 295.8445 229.9192 293.8546 260 299 C267.0517 300.2062 267.1987 302.903 274 304 C281.8089 305.2595 282.6604 304.7581 291 304 C304.4236 302.7797 306.0572 304.4606 318 300 C345.6981 289.6549 345.7606 285.5509 374 273 C386.0433 267.6474 387.3531 269.8234 399 264 C430.7821 248.1089 430.3246 245.224 462 229 C470.8401 224.4721 472.3293 226.5418 481 222 C492.8038 215.8171 504 207 504 207 "/>
<path id="3" d="M451 15 C451 15 453.2304 26.853 453 31 C452.9686 31.5655 451.4916 32.7121 450 33 C425.4466 37.7384 410.1764 38.2028 396 42 C395.0935 42.2428 394.733 46.9006 394 48 C393.8667 48.1999 392.0683 48.1503 392 48 C391.0711 45.9565 388.9142 37.0667 389 37 C389.1373 36.8932 401 41 401 41 "/>
<path id="4" d="M329 132 C329 132 344.9481 118.4629 358 104 C362.8717 98.6017 361.2016 96.1983 366 91 C372.5367 83.9185 375.7699 85.0427 382 78 C386.4034 73.0222 386.57 71.6273 389 65 C391.8827 57.1381 390.0563 55.3591 393 48 C394.6459 43.8852 399 40 399 40 "/>
<path id="5" d="M509 200 C509 200 491.0475 210.3655 488 219 C482.2241 235.3652 489.4055 247.5458 485 268 C483.3699 275.5681 480.6752 279.3863 474 284 C450.2676 300.4033 445.7438 301.1604 417 315 C405.8696 320.3591 403.556 317.1632 393 323 C362.337 339.9548 362.3161 345.5636 332 362 C322.6802 367.0529 319.564 367.7609 310 368 C302.2819 368.193 300.097 366.5424 292 363 C284.8054 359.8524 283.5244 359.5244 278 354 C260.466 336.466 261.7092 333.6097 244 315 C232.3873 302.7969 219 292 219 292 "/>
<path id="6" d="M43 264 C43 264 43.0757 267.0757 44 268 C46.4033 270.4033 47.8543 270.8141 52 273 C75.2516 285.2599 75.9696 284.3495 99 297 C111.3371 303.7767 111.6598 303.7965 123 312 C134.9563 320.6493 133.7404 323.0958 146 331 C171.1598 347.2215 172.7097 348.0454 199 361 C205.9703 364.4346 206.9696 363.8924 215 365 C235.6448 367.8476 236.0165 367.9612 257 369 C286.3631 370.4536 291.5743 371.1273 316 370 C318.5624 369.8817 322 366 322 366 "/>
<path id="7" d="M51 271 C51 271 49.7424 286.2226 51 301 C53.7115 332.8604 59 365 59 365 "/>
<path id="8" d="M58 276 C58 276 56.5171 286.3495 58 295 C59.3291 302.753 62.7764 303.2505 64 311 C65.5884 321.06 62.8332 322.304 64 333 C65.785 349.3622 70 366 70 366 "/>
<path id="9" d="M41 392 C41 392 41.8272 383.0764 45 378 C48.2449 372.8082 50.2118 371.6176 56 368 C61.4107 364.6183 62.5697 364.0468 69 363 C83.1164 360.702 85.1 359.888 99 361 C108.5399 361.7632 110.0928 362.9774 119 367 C124.7315 369.5884 126.4212 370.276 130 375 C137.8016 385.2982 139.0836 387.5643 144 400 C147.0891 407.8137 147 409.3369 147 418 C147 430.9946 146.4642 432.3271 144 445 C143.1265 449.4923 142.5629 450.2721 140 454 C137.4234 457.7477 136.8382 459.0809 133 461 C120.3887 467.3056 118.0396 469.695 104 472 C86.6818 474.8433 83.8728 474.0852 66 472 C55.2685 470.748 51.0229 470.2672 44 465 C36.5261 459.3945 35.2008 455.1127 30 445 C26.7386 438.6583 27.0924 437.3734 26 430 C25.1593 424.3254 24.5798 422.6664 26 418 C27.554 412.894 30.5637 412.6846 33 407 C36.3312 399.2271 34.5216 397.492 38 390 C40.649 384.2945 46 379 46 379 "/>
<path id="10" d="M80 377 C80 377 71.9515 379.0485 68 383 C60.9751 390.0249 58.9634 392.5869 55 402 C51.7185 409.7936 52.2106 411.7341 52 421 C51.7244 433.1263 51.1713 435.8165 54 446 C55.4636 451.2688 57.9132 454.2755 62 457 C65.9979 459.6653 68.988 460.2454 75 460 C91.9022 459.3101 96.9383 460.1379 111 455 C118.8494 452.132 120.2423 448.1134 127 441 C129.0481 438.8441 129.6418 437.8652 130 435 C131.4677 423.2582 133.2128 418.8345 131 409 C129.605 402.7998 126.8243 398.6545 121 395 C104.7855 384.8262 80 377 80 377 "/>
<path id="11" d="M84 437 C84 437 83.9807 433.5289 85 432 C86.319 430.0215 87.2689 429.2966 90 428 C135.2933 406.4971 137.1293 403.453 184 385 C199.1079 379.052 200.4441 380.0695 217 378 C256.0378 373.1203 296 371 296 371 "/>
<path id="12" d="M91 442 C91 442 90.3792 438.9312 91 438 C92.3968 435.9047 93.7273 434.6763 97 433 C113.5128 424.5422 114.3186 423.9462 132 417 C142.0031 413.0702 143.6211 415.1378 153 411 C159.7309 408.0305 159.1576 405.4212 166 402 C179.6848 395.1576 180.3556 394.2516 195 390 C210.6623 385.4529 211.5555 385.7181 228 384 C244.6781 382.2575 246.0983 385.5108 262 383 C273.2953 381.2165 274.4209 376.1499 285 375 C295.0491 373.9077 297.6233 378 308 378 C312.0605 378 317 375 317 375 "/>
<path id="13" d="M313 380 C313 380 312.9847 381.9989 313 382 C314.4942 382.1067 322.4657 382.6705 327 381 C329.2754 380.1617 329.1011 376.7569 332 375 C344.2467 367.5778 346.8329 368.5241 360 361 C363.8143 358.8204 363.1492 356.9254 367 355 C398.7693 339.1154 434 324 434 324 "/>
<path id="14" d="M426 328 C426 328 430.7929 319.6578 437 316 C456.707 304.387 461.6526 307.0812 482 295 C492.3009 288.8838 495.2573 287.6435 501 278 C519.7095 246.5822 517.1523 241.3236 535 206 C541.0188 194.0879 541.1862 193.716 549 183 C558.4854 169.9915 570 158 570 158 "/>
<path id="15" d="M563 163 C563 163 567.4577 158.8603 570 154 C584.08 127.0824 582.9713 122.2659 597 98 C599.6998 93.33 602.1846 92.5494 607 90 C609.547 88.6516 611.1418 90.327 614 89 C624.1746 84.2761 631.7797 80.3898 635 77 C635.6148 76.3528 634.7322 72.2913 633 69 C630.0894 63.4699 625.7869 58 625 58 C623.8196 58 619.3475 64.6837 613 69 C607.4345 72.7845 604.9727 71.4086 600 75 C597.1152 77.0835 597.9203 79.8482 595 82 C589.4923 86.0583 584.1724 85.8276 581 89 C579.6404 90.3596 578.9581 95.1766 580 97 C582.8653 102.0142 593 110 593 110 "/>
<path id="16" d="M581 101 C581 101 575.2074 108.7284 572 117 C565.9312 132.6511 569.6945 135.979 562 150 C548.364 174.8478 541.7491 174.5381 527 199 C522.2414 206.8922 524.8187 209.0149 521 218 C516.4504 228.705 516.2442 229.6337 510 239 C506.6942 243.9586 503.8675 243.1085 501 248 C496.0408 256.4598 497.6742 258.6516 493 268 C490.3708 273.2585 490.0111 275.2231 486 278 C478.9308 282.8941 473.8369 281.5412 467 286 C464.5819 287.577 465.3761 291.2179 463 293 C458.9542 296.0344 456.1103 294.5931 451 298 C438.7796 306.1469 437.7203 311.9079 427 317 C421.8062 319.4671 417.3428 314.8377 411 317 C397.873 321.4751 383 332 383 332 "/>
<path id="17" d="M228 370 C228 370 228.8204 374.4052 231 377 C238.5828 386.0272 240.921 385.374 249 395 C264.2123 413.1253 262.6549 414.999 278 433 C288.4239 445.2281 289.1224 445.0361 301 456 C308.519 462.9406 308.799 463.4233 317 469 C320.8694 471.6312 321.4502 471.1387 326 473 C332.4359 475.6328 332.5714 476.6225 339 478 C345.9507 479.4894 351.9567 480.3281 354 479 C356.0077 477.695 358.428 471.7494 359 465 C360.7845 443.9429 357.4543 442.1557 359 420 C360.4227 399.6076 361.0689 398.2626 365 379 C365.8208 374.978 368.1538 374.989 369 371 C371.4515 359.4427 369.4947 357.9001 372 346 C373.3735 339.4757 377 333 377 333 "/>
<path id="18" d="M249 386 C249 386 257.7056 389.772 262 395 C267.9389 402.2299 266.0346 405.4028 272 414 C282.7292 429.4627 282.6668 431.6192 296 444 C309.4801 456.5173 311.5872 456.9143 328 466 C338.7672 471.9604 351.4424 475.4683 352 475 C352.8886 474.2536 354.054 459.4931 353 445 C352.1067 432.717 346.5117 430.6659 348 420 C351.8809 392.1871 365 359 365 359 "/>
<path id="19" d="M304 371 C304 371 306.0286 375.8953 309 378 C316.7828 383.5128 318.2832 383.8703 328 388 C338.0198 392.2584 341.8851 390.4261 349 395 C352.9261 397.5239 351.7222 401.437 356 406 C381.0121 432.6796 381.4594 434.7775 409 459 C422.1574 470.5722 425.8198 471.6776 439 479 C440.9236 480.0687 444.0936 479.9064 445 479 C449.532 474.468 454.7283 469.9921 457 461 C465.6445 426.7823 460.3802 421.5737 469 384 C479.7211 337.2671 496 291 496 291 "/>
<path id="20" d="M316 370 C316 370 319.447 374.6841 323 376 C331.2761 379.0652 337.0487 375.2251 343 380 C373.2961 404.3074 375.8409 416.0821 409 445 C416.7626 451.7697 420.1819 449.2226 429 455 C433.9473 458.2413 434.143 461.6858 438 464 C439.6071 464.9643 441.6087 464.7358 444 464 C447.2804 462.9906 447.5523 462.0686 451 460 C452.5405 459.0757 454 458.5325 454 458 C454 450.8115 451.1963 444.3483 451 431 C450.7026 410.778 450.2727 409.6972 453 390 C454.6498 378.0848 455.546 377.5061 460 366 C467.4341 346.7953 470.1554 347.3115 477 328 C483.9804 308.3054 481.6289 307.1327 488 287 C494.0774 267.7955 502 249 502 249 "/>
<path id="21" d="M131 320 C131 320 122.9129 323.6246 117 329 C101.4907 343.0994 87 360 87 360 "/>
<path id="22" d="M136 325 C136 325 122.776 332.4625 113 342 C103.0132 351.7432 95 365 95 365 "/>
<path id="23" d="M25 412 C25 412 19.8987 420.6631 14 426 C10.3801 429.2752 4.9414 428.9289 4 431 C2.3234 434.6886 2.6345 440.6265 4 448 C4.8776 452.7389 5.9535 453.938 9 458 C11.4926 461.3234 13.2232 463.6915 16 464 C26.423 465.1581 32.0953 465.7356 45 462 C68.0309 455.3332 92 442 92 442 "/>
<path id="24" d="M25 426 C25 426 17.331 430.8362 14 435 C12.7275 436.5906 13.2292 438.0204 13 441 C12.736 444.4322 11.9412 446.0148 13 448 C14.8554 451.4789 17.712 455.0794 21 456 C26.3686 457.5032 30.452 457.2873 38 455 C61.8865 447.7617 87 436 87 436 "/>
</g>
</g>
</svg>
