<?xml version="1.0" encoding="utf-8"?>
<!DOCTYPE svg PUBLIC "-//W3C//DTD SVG 1.1//EN" "http://www.w3.org/Graphics/SVG/1.1/DTD/svg11.dtd">
<svg viewBox="0 0 800 800" preserveAspectRatio="xMinYMin meet" xmlns="http://www.w3.org/2000/svg" version="1.1">
<g fill="none" stroke="black" stroke-linecap="round" stroke-linejoin="round" stroke-width="2.3425">
<g transform="translate(87.52,336.6075) scale(1.2807) translate(-137,-193.1333)">
<path id="0" d="M214 209.1333 C214 209.1333 198.0956 217.9441 182 222.1333 C162.6392 227.1725 153.0731 224.3773 141 228.1333 C139.1725 228.7019 136.8122 235.0065 137 236.1333 C137.1281 236.9016 140.2287 239.2806 143 240.1333 C145.6829 240.9588 148.3944 240.9361 150 240.1333 C151.2615 239.5026 152.9948 235.1203 153 235.1333 C153.0212 235.1863 152.87 248.9226 154 250.1333 C154.8605 251.0553 164.2136 251.4446 167 250.1333 C168.6643 249.3501 170.1057 245.934 171 242.1333 C171.9002 238.3077 171 233.1333 171 233.1333 "/>
<path id="1" d="M217 213.1333 C217 213.1333 213.5375 203.5998 214 201.1333 C214.2072 200.0282 217.2733 197.6075 220 197.1333 C226.923 195.9293 230.9436 196.2249 237 197.1333 C238.2291 197.3177 239.7053 198.8563 240 200.1333 C240.7981 203.5919 240 210.1333 240 210.1333 C240 210.1333 239.0298 205.2355 240 203.1333 C241.2154 200.4999 243.4198 197.8064 246 197.1333 C251.7981 195.6208 260.7881 195.8528 263 197.1333 C264.0888 197.7637 265 208.1333 265 208.1333 "/>
<path id="2" d="M172 250.1333 C172 250.1333 184.2141 240.7195 195 239.1333 C214.6517 236.2434 237.3408 239.5002 240 240.1333 C240.0504 240.1453 239.1727 245.4397 237 249.1333 C234.5542 253.2912 233.383 255.5956 230 257.1333 C224.94 259.4333 221.9825 257.0897 215 259.1333 C202.0403 262.9264 202.0317 266.3004 189 269.1333 C168.6078 273.5664 146.1958 274.0575 146 274.1333 C145.9595 274.149 151.9739 278.6681 158 281.1333 C162.386 282.9276 163.1392 283.1333 168 283.1333 C192.3039 283.1333 194.0419 284.5157 218 281.1333 C235.3492 278.684 240.0624 277.7459 253 271.1333 C258.3686 268.3894 257.6876 263.1506 263 258.1333 C265.8085 255.4808 267.3568 254.5537 271 254.1333 C278.7004 253.2448 289 255.1333 289 255.1333 "/>
<path id="3" d="M268 210.1333 C268 210.1333 275.0648 213.6225 278 213.1333 C280.7807 212.6699 286 207.1333 286 207.1333 "/>
<path id="4" d="M289 256.1333 C289 256.1333 275.141 266.6529 269 275.1333 C267.0331 277.8495 269.3014 280.9688 268 285.1333 C267.0851 288.0611 265.9507 289.7678 264 291.1333 C262.4061 292.249 257.9999 292.1333 258 292.1333 C258.0002 292.1334 265.5027 293.5791 268 292.1333 C271.8379 289.9114 273.6657 284.4677 277 281.1333 C277.3334 280.7999 278.9611 281.0295 279 281.1333 C279.4349 282.2929 279.9978 289.1344 280 289.1333 C280.0058 289.1304 280.4695 281.4764 283 279.1333 C290.821 271.8917 305.6484 264.674 307 264.1333 C307.0451 264.1153 308.3327 267.0261 308 269.1333 C306.9946 275.5007 303.8401 280.4149 304 283.1333 C304.0383 283.7839 308.0351 286.1333 309 286.1333 C309.579 286.1333 311.4742 284.5794 312 283.1333 C313.0751 280.1769 312.5651 276.2929 313 275.1333 C313.0389 275.0295 314.9495 275.0154 315 275.1333 C315.438 276.1554 314.7256 279.7665 316 282.1333 C317.5606 285.0315 321.9614 288.1462 322 288.1333 C322.0257 288.1248 320.7608 282.8597 322 280.1333 C324.8728 273.8132 332 266.1333 332 266.1333 "/>
<path id="5" d="M331 263.1333 C331 263.1333 335.9229 251.105 339 250.1333 C346.5455 247.7506 355.9344 252.4399 369 251.1333 C373.5882 250.6745 374.21 246.743 379 246.1333 C399.3801 243.5395 402.0106 243.7843 424 244.1333 C432.8252 244.2734 441.37 245.9183 442 247.1333 C443.12 249.2933 437.9843 271.1176 438 271.1333 C438.0031 271.1365 449.5387 255.1114 450 255.1333 C450.4027 255.1525 458.9668 272.1267 459 272.1333 C459.0054 272.1344 458.2058 262.7723 460 257.1333 C461.0435 253.8537 463.2725 250.7665 466 250.1333 C484.3834 245.8658 515.2905 243.9737 516 244.1333 C516.0966 244.1551 510.7053 251.5325 506 259.1333 C504.2554 261.9516 503.1125 264.3458 503 265.1333 C502.9875 265.2208 504.9559 266.1848 505 266.1333 C505.7059 265.3098 507.8859 258.461 509 258.1333 C511.1251 257.5083 521.1839 261.6774 522 261.1333 C522.7914 260.6057 524.4929 252.5694 524 248.1333 C523.79 246.2432 519.8501 243.583 520 243.1333 C520.3952 241.9479 524.1103 237.0898 528 236.1333 C549.9937 230.725 556.4309 233.5078 581 228.1333 C586.5252 226.9247 587.6626 225.7478 592 222.1333 C595.9308 218.8577 595.7305 215.1767 599 213.1333 C601.4926 211.5755 604.6578 213.8044 608 212.1333 C616.0916 208.0875 625.041 200.14 625 200.1333 C624.8218 200.1042 590.4926 200.1052 559 204.1333 C549.1063 205.3988 548.7255 209.3418 539 211.1333 C530.7772 212.6481 529.8955 211.4892 521 211.1333 C517.5209 210.9942 515.8789 211.5112 514 210.1333 C510.2747 207.4014 509.8002 201.3079 506 200.1333 C489.1547 194.9266 480.5527 192.3815 459 193.1333 C440.8616 193.7661 439.2378 201.6245 420 203.1333 C364.7991 207.4628 359.6854 201.5005 306 205.1333 C296.8402 205.7532 287 212.1333 287 212.1333 "/>
<path id="6" d="M143 243.1333 C143 243.1333 146.2121 250.8984 148 253.1333 C148.3065 253.5165 150.8125 253.3208 151 253.1333 C151.1875 252.9458 150.8346 250.2326 151 250.1333 C151.4596 249.8576 154.9691 250.7776 156 250.1333 C157.2628 249.3441 158.3704 245.4032 159 245.1333 C159.3848 244.9684 162.1978 245.8854 163 247.1333 C165.67 251.2866 167.6727 259.1333 168 259.1333 C168.982 259.1333 178.3501 248.3389 183 247.1333 C185.7481 246.4209 192.5528 252.2773 195 252.1333 C196.1191 252.0675 197.8462 247.1274 200 246.1333 C202.2178 245.1097 206.9095 246.8967 208 246.1333 C208.9406 245.4749 209.1254 240.1537 210 239.1333 C210.3441 238.7319 213.3323 238.5324 214 239.1333 C216.3537 241.2516 218.326 247.1568 220 248.1333 C220.7192 248.5529 225.2357 247.025 226 246.1333 C226.535 245.5091 226.0764 241.2861 226 241.1333 C226 241.1333 224 242.1333 224 242.1333 "/>
<path id="7" d="M160 273.1333 C160 273.1333 163.0131 271.1071 164 269.1333 C165.0691 266.9951 164.7604 263.1756 165 263.1333 C166.8004 262.8156 175.7745 266.6084 181 266.1333 C183.1446 265.9384 185.1348 261.642 187 261.1333 C188.1284 260.8256 191.0258 263.508 192 263.1333 C194.4621 262.1864 197.0045 257.5159 200 256.1333 C201.2105 255.5746 203.0442 257.4593 205 257.1333 C208.0349 256.6275 211.6786 254.1333 212 254.1333 C212 254.1333 212 257.1333 212 257.1333 "/>
<path id="8" d="M228 209.1333 C228 209.1333 226.875 211.8833 227 212.1333 C227.125 212.3833 229.9416 213.1918 230 213.1333 C230.1169 213.0164 230.4833 209.8583 230 209.1333 C229.4361 208.2875 226 207.1333 226 207.1333 "/>
<path id="9" d="M250 207.1333 C250 207.1333 248.05 207.0333 248 207.1333 C247.8 207.5333 247.5167 210.4083 248 211.1333 C248.5639 211.9792 251.9719 213.1521 252 213.1333 C252.0176 213.1216 251 209.1333 251 209.1333 "/>
</g>
</g>
</svg>
