<?xml version="1.0" encoding="utf-8"?>
<!DOCTYPE svg PUBLIC "-//W3C//DTD SVG 1.1//EN" "http://www.w3.org/Graphics/SVG/1.1/DTD/svg11.dtd">
<svg viewBox="0 0 800 800" preserveAspectRatio="xMinYMin meet" xmlns="http://www.w3.org/2000/svg" version="1.1">
<g fill="none" stroke="black" stroke-linecap="round" stroke-linejoin="round" stroke-width="2.0737">
<g transform="translate(87.52,211.21) scale(1.4467) translate(-46,-149)">
<path id="0" d="M238 227 L238 227 "/>
<path id="1" d="M82 182 C82 182 85.6236 189.6858 90 195 C91.9977 197.4257 93.0854 198.1428 96 199 C100.5869 200.3491 103.9162 198.1497 107 200 C111.1472 202.4883 110.9499 206.7916 116 211 C122.2547 216.2122 123.2905 217.5173 131 220 C151.3395 226.55 154.4754 223.9186 175 230 C180.1473 231.5251 180.3897 234.1559 185 236 C186.859 236.7436 188.1775 235.3925 190 236 C191.8225 236.6075 193.2714 237.7249 194 239 C194.5514 239.9649 194.6949 242.0525 194 243 C190.6878 247.5166 187.8085 251.5958 183 254 C179.7944 255.6028 176.9346 253.0601 172 254 C167.1722 254.9196 165.5454 255.1299 162 258 C156.2355 262.6665 157.1333 265.9241 151 271 C143.36 277.3227 141.4212 280.421 133 282 C113.6129 285.6351 108.8849 280.6432 87 283 C77.675 284.0042 77.2842 287.4945 68 289 C59.6329 290.3568 53.9346 290.3115 50 289 C48.8342 288.6114 46.9578 282.2957 47 282 C47.0037 281.9743 50.6886 282.4282 51 282 C52.4889 279.9528 52.1723 275.1328 55 271 C57.9144 266.7405 59.2259 265.31 64 263 C73.4166 258.4436 76.3071 260.9541 86 256 C97.815 249.9612 97.4179 245.175 109 240 C119.0782 235.497 122.0466 238.7472 133 235 C140.1304 232.5607 147 227 147 227 "/>
<path id="2" d="M84 185 C84 185 75.2144 178.2858 67 174 C64.6441 172.7708 62.3343 173.7624 61 173 C60.4489 172.6851 59.6901 170.4375 60 170 C64.5642 163.5564 70.6759 153.0689 78 149 C82.3067 146.6074 89.3171 147.9437 96 150 C99.7065 151.1405 101.4643 153.1119 104 157 C108.2683 163.5447 106.8628 167.2079 111 173 C113.1108 175.9552 115.328 177.5504 119 178 C136.5333 180.1469 140.2322 180.2551 160 179 C170.7769 178.3158 173.5416 172.7917 182 174 C193.4104 175.6301 196.6151 178.569 209 186 C238.4776 203.6866 267 225 267 225 "/>
<path id="3" d="M46 286 C46 286 48.4194 292.7097 51 294 C57.0214 297.0107 60.5963 297.4776 70 298 C104.7611 299.9312 107.4089 300.8662 141 299 C150.154 298.4914 151.954 297.4908 160 293 C172.2574 286.1587 184 275 184 275 "/>
<path id="4" d="M48 282 C48 282 46.3294 271.0898 47 270 C47.3852 269.3741 55.3682 269.7722 56 269 C56.7554 268.0767 55.3852 259.5123 56 259 C56.8852 258.2623 64.8088 260.5116 68 259 C70.9952 257.5812 72.9802 250.7574 75 250 C76.5331 249.4251 83.3159 253.421 84 253 C85.0299 252.3662 86.5483 243.2098 88 242 C88.7902 241.3415 94.118 243.8783 96 243 C98.6814 241.7487 100.908 235.3985 103 235 C106.249 234.3811 113.8599 239.8192 117 239 C119.8134 238.2661 123.2457 229.7512 126 229 C128.797 228.2372 136.2718 232.8181 139 233 C139.3702 233.0247 141 230 141 230 "/>
<path id="5" d="M60 170 C60 170 59.9386 182.9754 60 183 C60.0756 183.0302 69.9382 173.9588 70 174 C70.2059 174.1373 71.5854 190.6199 72 191 C72.1061 191.0973 81.8056 184.8704 82 185 C82.3673 185.2448 83.4754 198.3588 84 199 C84.0915 199.1118 90.7127 195.8085 91 196 C91.4597 196.3065 92.7319 204.8927 93 205 C93.2873 205.1149 100.8221 199.8666 101 200 C101.607 200.4552 103.7001 211.4001 105 214 C105.1219 214.2437 107.3446 214.4682 108 214 C109.6542 212.8184 111.9903 208.9903 112 209 C112.1455 209.1455 113.5179 219.8884 115 221 C116.6057 222.2042 125.9381 220.2636 128 221 C128.4418 221.1578 128.8679 225.956 129 226 C129.1982 226.0661 134 223 134 223 "/>
<path id="6" d="M137 223 C137 223 139.6224 234.8651 140 235 C140.4406 235.1573 149.8834 227.7062 151 228 C152.3605 228.358 157.7439 239.6511 159 240 C159.8928 240.248 166.4259 233.286 169 233 C170.778 232.8024 174.1629 237.6662 177 238 C179.8566 238.3361 186 235 186 235 "/>
<path id="7" d="M50 290 C50 290 57.2131 279 58 279 C59.1804 279 68.8297 289.87 70 290 C70.4426 290.0492 74.3176 281.4006 76 281 C78.9024 280.309 88.1439 285.5712 91 285 C92.3275 284.7345 95.4843 276.9714 96 277 C97.5281 277.0849 106.5401 286 109 286 C110.8922 286 115.438 278.3852 119 277 C120.9056 276.2589 126.0911 279.5593 127 279 C128.4976 278.0784 131.005 269.3109 132 269 C133.1558 268.6388 141.2436 274.4622 143 274 C144.9283 273.4926 149.5256 265.0723 151 264 C151.1492 263.8915 154 266 154 266 C154.1528 265.7708 154.0099 260.4752 155 258 C155.3772 257.0571 158 256 158 256 "/>
<path id="8" d="M167 205 C167 205 168.5895 196.7053 170 196 C173.2912 194.3544 180.0118 194.3647 187 195 C189.1791 195.1981 191.4116 196.627 192 198 C193.3077 201.0512 193 209 193 209 "/>
<path id="9" d="M170 201 C170 201 167.8691 203.3455 168 204 C168.3927 205.9635 169.5371 208.8655 172 211 C175.9635 214.435 178.0984 215.833 183 217 C186.8499 217.9166 192.09 216.819 193 216 C193.6011 215.459 193 208 193 208 "/>
<path id="10" d="M170 200 C170 200 180.9544 197.5505 185 198 C185.943 198.1048 186.4942 201.0589 188 202 C189.54 202.9625 192.9884 202.8957 193 203 C193.0563 203.5066 190.685 210.1014 189 211 C186.7579 212.1958 181.4806 212.3536 178 211 C174.9237 209.8036 172.1661 205.7491 171 204 C170.8667 203.8001 171.9309 201.9885 172 202 C172.5702 202.095 174.6691 204.4621 177 205 C180.2758 205.756 184.9571 205.0429 185 205 C185 205 181 201 181 201 C180.9999 201.0001 182.4892 204.8669 184 206 C185.287 206.9653 189.0002 206.9999 189 207 C188.9997 207.0001 181.64 206.52 181 207 C180.64 207.27 180.8554 212.8843 181 213 C181.1024 213.0819 185.6216 211.8325 186 211 C186.797 209.2465 186.4421 202.3929 186 202 C185.5518 201.6016 177.088 202.912 177 203 C177 203 179.2425 206.2189 181 207 C182.5209 207.676 186 207 186 207 "/>
<path id="11" d="M87 166 C87 166 86.7683 172.6524 87 173 C87.0552 173.0828 90.7684 172.4632 91 172 C91.5404 170.9193 91.2781 165.3337 91 165 C90.8742 164.849 86 166 86 166 "/>
<path id="12" d="M147 298 C147 298 151.4533 305.4301 156 308 C160.8706 310.7529 163.0478 310.4753 170 311 C189.0954 312.4412 190.6964 309.5182 209 312 C218.7979 313.3285 219.2727 317.3788 229 319 C239.1103 320.685 251 319 251 319 "/>
<path id="13" d="M256 213 C256 213 264.6742 208.9912 273 208 C284.8296 206.5917 286.2703 206.7319 298 208 C303.8331 208.6306 304.1544 210.8865 310 212 C314.1225 212.7852 316.0051 212.9215 319 212 C320.7407 211.4644 321.476 208.1203 323 208 C334.9785 207.0543 344.3772 211.2441 357 209 C361.7025 208.164 363.0768 202.2154 368 200 C370.9441 198.6752 373.0622 199.0156 377 200 C384.2193 201.8048 385.0194 205.4302 392 206 C407.2487 207.2448 411.7233 202.2518 426 204 C432.7586 204.8276 433.7076 209.8123 441 212 C447.4123 213.9237 456 213 456 213 "/>
<path id="14" d="M253 272 C253 272 245.2734 281.5105 244 290 C241.236 308.4269 239.9599 315.5871 244 332 C246.5913 342.5271 252.2214 346.9103 260 355 C262.3616 357.4561 269 358 269 358 "/>
<path id="15" d="M320 279 L289 285 "/>
<path id="16" d="M289 285 C289 285 289.8378 296.4189 291 297 C294.5594 298.7797 305.2563 295.7074 315 298 C319.6826 299.1018 321.6457 301.0168 325 305 C328.7092 309.4047 330.351 311.6456 331 317 C332.0585 325.7328 332.6566 330.6868 329 338 C323.0996 349.8009 319.0681 352.2575 308 363 C302.9226 367.928 301.7479 368.2316 295 371 C282.8645 375.9787 282.0476 376.0099 269 379 C258.3646 381.4373 247 382 247 382 "/>
<path id="17" d="M268 358 C268 358 239.3215 354.6873 224 357 C220.3806 357.5463 218.096 365.4662 215 366 C209.3341 366.9769 196.5676 361.8432 195 362 C194.952 362.0048 194.3443 366.0329 195 368 C195.4371 369.3114 196.6638 370.7526 198 371 C207.1585 372.696 221.528 372.2762 222 373 C222.4046 373.6204 212.9968 393.9991 213 394 C213.015 394.0041 232.9752 376.0071 233 376 C233.0099 375.9972 228.7503 383.2905 227 390 C225.988 393.8795 225.8077 395.5933 227 399 C228.7819 404.0911 233.9828 410.0207 234 410 C234.085 409.898 234.2051 393.5215 237 387 C238.0193 384.6216 246 382 246 382 "/>
<path id="18" d="M333 319 C333 319 342.1643 327.2625 352 333 C359.6332 337.4527 360.8919 339.2225 369 340 C394.6944 342.4639 397.425 341.1179 425 340 C433.9233 339.6382 434.2144 338.9524 443 337 C447.5497 335.989 448.1536 336.1369 452 334 C456.6478 331.4179 456.3784 328.9553 461 327 C468.2222 323.9445 478 323 478 323 "/>
<path id="19" d="M279 254 C279 254 283.8768 249.6493 288 248 C290.1701 247.132 292.3056 247.0876 294 248 C297.0412 249.6376 297.2158 253.0378 301 255 C309.4124 259.362 311.8965 261.4538 321 262 C334.2674 262.796 342.2823 257.5018 351 258 C352.5645 258.0894 353.1884 262.3386 356 264 C362.9542 268.1093 365.9003 271.1224 373 271 C390.3032 270.7017 393.8352 265.0165 414 263 C427.9417 261.6058 435.1668 264.9792 443 264 C443.9834 263.8771 446 259 446 259 "/>
<path id="20" d="M283 228 L320 227 "/>
<path id="21" d="M350 246 C350 246 349.4486 242.9649 350 242 C350.7286 240.7249 354 239 354 239 "/>
<path id="22" d="M389 260 C389 260 390.7977 233.5321 390 210 C389.8547 205.7134 387 201 387 201 "/>
<path id="23" d="M406 259 L410 219 "/>
<path id="24" d="M434 255 L438 216 "/>
<path id="25" d="M372 257 L364 222 "/>
<path id="26" d="M355 263 C355 263 356.1167 244.1442 355 230 C354.8228 227.7554 352 225 352 225 "/>
<path id="27" d="M324 280 C324 280 325.3903 264.2705 325 251 C324.9318 248.6827 323 246 323 246 "/>
</g>
</g>
</svg>
