<?xml version="1.0" encoding="utf-8"?>
<!DOCTYPE svg PUBLIC "-//W3C//DTD SVG 1.1//EN" "http://www.w3.org/Graphics/SVG/1.1/DTD/svg11.dtd">
<svg viewBox="0 0 800 800" preserveAspectRatio="xMinYMin meet" xmlns="http://www.w3.org/2000/svg" version="1.1">
<g fill="none" stroke="black" stroke-linecap="round" stroke-linejoin="round" stroke-width="2.717">
<g transform="translate(87.52,324.3644) scale(1.1042) translate(-29,-165.1333)">
<path id="0" d="M30 218.1333 C30 218.1333 51.2461 214.4187 71 208.1333 C83.7425 204.0789 83.2596 201.5824 96 197.1333 C114.4831 190.6789 134 186.1333 134 186.1333 "/>
<path id="1" d="M32 218.1333 C32 218.1333 30.0678 217.9977 30 218.1333 C29.5594 219.0146 28.5288 223.4266 29 224.1333 C29.6773 225.1493 32.6484 226.6545 36 227.1333 C42.3165 228.0357 43.2602 228.0769 50 227.1333 C67.8027 224.641 67.9664 222.7469 86 220.1333 C102.2895 217.7725 103.0003 219.5681 119 217.1333 C125.508 216.143 132.0004 213.1328 132 213.1333 C131.9993 213.1342 122.9818 220.5136 114 223.1333 C100.6168 227.0368 98.253 223.6326 84 227.1333 C70.4491 230.4616 70.4016 233.98 57 237.1333 C45.8275 239.7621 34.7008 238.7636 33 239.1333 C32.9758 239.1386 33.4165 241.9041 34 242.1333 C42.0734 245.305 47.6319 248.3972 61 250.1333 C84.9623 253.2453 86.7333 253.3171 111 252.1333 C126.7034 251.3673 127.2523 247.4456 143 246.1333 C156.5268 245.0061 171 247.1333 171 247.1333 "/>
<path id="2" d="M133 187.1333 C133 187.1333 137.2125 182.8908 141 182.1333 C150.3425 180.2648 152.1926 182.5369 163 181.1333 C190.4308 177.5709 190.7033 175.1663 218 172.1333 C230.6735 170.7252 231.6959 170.5626 244 172.1333 C254.3004 173.4483 255.428 173.931 265 178.1333 C275.2338 182.6262 274.7486 185.0076 285 190.1333 C293.4772 194.3719 293.8549 194.2543 303 197.1333 C320.7203 202.7119 320.9459 203.5225 339 207.1333 C355.5338 210.4401 356.511 208.2657 373 211.1333 C379.0336 212.1826 379.0914 214.5744 385 215.1333 C414.7299 217.9456 416.1131 215.685 447 218.1333 C498.0132 222.1771 549 228.1333 549 228.1333 "/>
<path id="3" d="M170 248.1333 C170 248.1333 182.6279 245.886 193 248.1333 C210.9557 252.0237 211.3543 256.8305 230 261.1333 C256.0323 267.1408 257.145 267.1255 284 269.1333 C310.0689 271.0824 311.086 271.9049 337 269.1333 C403.5644 262.0141 404.0852 255.7695 471 249.1333 C524.3399 243.8434 579 245.1333 579 245.1333 "/>
<path id="4" d="M547 228.1333 C547 228.1333 594.5051 228.0343 595 228.1333 C595.066 228.1465 589.3593 232.1226 587 236.1333 C585.1104 239.3456 586.0366 244.3558 585 245.1333 C583.8153 246.0219 575 245.1333 575 245.1333 "/>
<path id="5" d="M50 239.1333 C50 239.1333 46.98 235.1733 47 235.1333 C47.02 235.0933 52 235.1333 52 235.1333 "/>
<path id="6" d="M62 235.1333 L63 231.1333 "/>
<path id="7" d="M72 231.1333 C72 231.1333 73.9809 232.1524 74 232.1333 C74.0573 232.076 74 229.1333 74 229.1333 "/>
<path id="8" d="M44 226.1333 L44 231.1333 "/>
<path id="9" d="M57 226.1333 L56 229.1333 "/>
<path id="10" d="M74 222.1333 C74 222.1333 71.9172 226.9953 72 227.1333 C72.0654 227.2423 75.7393 227.8337 77 227.1333 C78.7089 226.1839 81 222.1333 81 222.1333 "/>
<path id="11" d="M91 221.1333 L91 223.1333 "/>
<path id="12" d="M126 197.1333 C126 197.1333 126.0588 195.148 126 195.1333 C125.0588 194.898 118.2338 194.8996 118 195.1333 C117.8831 195.2502 119.5 200.8833 120 201.1333 C120.5 201.3833 125.0202 199.9499 126 199.1333 C126.3195 198.8671 126.0809 196.1873 126 196.1333 C125.9056 196.0704 123 197.1333 123 197.1333 "/>
<path id="13" d="M307 199.1333 C307 199.1333 321.9974 192.1337 322 192.1333 C322.0013 192.1332 315 198.1333 315 198.1333 C315 198.1333 317.8005 193.9108 321 192.1333 C325.8754 189.4248 333.0002 188.1321 333 188.1333 C332.9996 188.1356 320 197.1333 320 197.1333 C320 197.1333 326.9996 192.1317 327 192.1333 C327.0009 192.1371 321 201.1333 321 201.1333 "/>
<path id="14" d="M335 206.1333 C335 206.1333 338.3452 202.1892 342 200.1333 C345.7649 198.0156 350.9995 197.1314 351 197.1333 C351.0102 197.1692 344 207.1333 344 207.1333 "/>
<path id="15" d="M355 207.1333 C355 207.1333 374.9054 200.1198 375 200.1333 C375.0235 200.1367 369 209.1333 369 209.1333 "/>
<path id="16" d="M380 215.1333 C380 215.1333 394.9765 206.1357 395 206.1333 C395.0086 206.1325 390 214.1333 390 214.1333 "/>
<path id="17" d="M407 215.1333 C407 215.1333 410.3939 210.8415 414 209.1333 C418.9174 206.804 425.8848 206.0469 426 206.1333 C426.0325 206.1577 422 215.1333 422 215.1333 "/>
<path id="18" d="M437 216.1333 C437 216.1333 461.9597 210.131 462 210.1333 C462.0124 210.1341 454 217.1333 454 217.1333 "/>
<path id="19" d="M466 219.1333 C466 219.1333 483.9898 215.1275 484 215.1333 C484.0042 215.1357 473 223.1333 473 223.1333 "/>
<path id="20" d="M496 223.1333 C496 223.1333 499.3413 219.6578 503 218.1333 C510.6866 214.9306 519.9647 213.1025 520 213.1333 C520.0042 213.137 511 225.1333 511 225.1333 "/>
<path id="21" d="M210 173.1333 C210 173.1333 209.8992 171.1632 210 171.1333 C214.8973 169.6823 223.7632 167.7807 237 165.1333 C238.4082 164.8517 240.0038 165.1283 240 165.1333 C239.9856 165.1525 234 169.1333 234 169.1333 "/>
<path id="22" d="M245 172.1333 C245 172.1333 269.8469 166.0883 270 166.1333 C270.0314 166.1426 262 177.1333 262 177.1333 "/>
<path id="23" d="M275 185.1333 C275 185.1333 298.9971 178.1327 299 178.1333 C299.0017 178.1337 284 187.1333 284 187.1333 "/>
<path id="24" d="M293 192.1333 C293 192.1333 297.08 188.0933 301 186.1333 C303.3164 184.9752 307.0041 185.1287 307 185.1333 C306.9856 185.1496 293 195.1333 293 195.1333 "/>
<path id="25" d="M192 250.1333 C192 250.1333 190.2943 248.9862 190 249.1333 C188.3321 249.9673 186.6031 251.3567 184 254.1333 C179.2379 259.2129 179.2863 262.9902 175 265.1333 C169.679 267.7938 164.1107 264.689 158 267.1333 C154.1551 268.6713 149.9919 275.1293 150 275.1333 C150.0284 275.1475 165.7595 271.0131 166 271.1333 C166.0172 271.1419 161.9906 281.1258 162 281.1333 C162.0099 281.1413 170.9492 275.0882 171 275.1333 C171.1723 275.2865 170.8277 288.9802 171 289.1333 C171.0508 289.1785 178.4645 285.8972 180 283.1333 C181.7526 279.9786 178.8111 274.3591 181 271.1333 C185.8711 263.9548 199 255.1333 199 255.1333 "/>
<path id="26" d="M207 256.1333 C207 256.1333 194.1188 271.0992 187 282.1333 C186.0851 283.5515 186.885 287.095 187 287.1333 C187.5749 287.325 193.6224 286.7184 196 285.1333 C197.6106 284.0596 198.9969 279.131 199 279.1333 C199.016 279.1453 199.7541 287.7891 200 288.1333 C200.0217 288.1637 203.4483 287.1264 204 286.1333 C204.9873 284.3562 205 279.1334 205 279.1333 C205 279.1333 204.577 281.6257 205 282.1333 C206.0105 283.346 209.9844 285.1801 210 285.1333 C210.2885 284.2678 212 261.1333 212 261.1333 "/>
<path id="27" d="M316 273.1333 C316 273.1333 310.6482 272.6741 307 274.1333 C301.6442 276.2757 299.7959 276.9578 296 281.1333 C290.8238 286.8272 287.0204 295.8478 287 296.1333 C286.998 296.162 292.4949 296.3859 295 295.1333 C296.9156 294.1755 298.997 290.1303 299 290.1333 C299.027 290.1603 298.9804 299.1268 299 299.1333 C299.0239 299.1413 304.9344 292.124 305 292.1333 C305.0281 292.1373 305.1973 298.3272 306 300.1333 C306.2218 300.6324 308.701 301.3327 309 301.1333 C309.8117 300.5922 311.5355 298.4556 312 296.1333 C312.8294 291.9864 310.7454 290.0762 312 286.1333 C313.7849 280.5236 319 274.1333 319 274.1333 "/>
<path id="28" d="M330 272.1333 C330 272.1333 322.5352 286.7856 317 299.1333 C316.6628 299.8856 316.9742 301.1296 317 301.1333 C317.6192 301.2218 322.8766 301.2568 324 300.1333 C325.966 298.1673 327.9995 290.1331 328 290.1333 C328.0031 290.1349 327.4675 300.8552 328 302.1333 C328.0925 302.3552 332.655 302.6077 333 302.1333 C334.2505 300.4139 335.8415 291.2038 336 291.1333 C336.058 291.1075 340.0365 296.9552 342 298.1333 C342.6545 298.526 345.7268 297.6113 346 297.1333 C346.4988 296.2604 346.9215 292.9762 346 291.1333 C344.2339 287.6011 340.3176 286.7096 339 283.1333 C337.63 279.4147 339 272.1333 339 272.1333 "/>
</g>
</g>
</svg>
