<?xml version="1.0" encoding="utf-8"?>
<!DOCTYPE svg PUBLIC "-//W3C//DTD SVG 1.1//EN" "http://www.w3.org/Graphics/SVG/1.1/DTD/svg11.dtd">
<svg viewBox="0 0 800 800" preserveAspectRatio="xMinYMin meet" xmlns="http://www.w3.org/2000/svg" version="1.1">
<g fill="none" stroke="black" stroke-linecap="round" stroke-linejoin="round" stroke-width="2.5778">
<g transform="translate(87.52,338.3187) scale(1.1638) translate(-3,-123.1333)">
<path id="0" d="M218 143.1333 C218 143.1333 222.5462 136.2498 228 133.1333 C238.6598 127.042 240.9306 125.4106 253 123.1333 C265.5691 120.7618 267.3401 121.8114 281 123.1333 C297.8702 124.7659 297.9509 127.0261 315 129.1333 C342.2941 132.5068 342.8702 130.341 370 134.1333 C389.0537 136.7968 390.9533 137.6687 408 142.1333 C410.0347 142.6662 412 145.1333 412 145.1333 "/>
<path id="1" d="M216 141.1333 C216 141.1333 202.9706 145.512 190 147.1333 C171.4532 149.4517 170.9986 148.7158 152 149.1333 C80.0667 150.7143 8 151.1333 8 151.1333 "/>
<path id="2" d="M5 153.1333 C5 153.1333 2.9615 154.941 3 155.1333 C3.0865 155.566 4.4733 157.5945 6 158.1333 C11.6643 160.1325 13.7313 158.6706 20 161.1333 C27.08 163.9148 26.7784 166.1243 34 169.1333 C44.3811 173.4588 45.2597 175.4543 56 176.1333 C128.8633 180.7396 136.2046 181.3712 208 180.1333 C218.4532 179.9531 219.1367 174.9069 230 173.1333 C242.7505 171.0516 257 172.1333 257 172.1333 "/>
<path id="3" d="M217 141.1333 L219 139.1333 "/>
<path id="4" d="M412 141.1333 L413 142.1333 "/>
<path id="5" d="M413 147.1333 C413 147.1333 422.0612 139.6942 430 137.1333 C435.4951 135.3607 437.2095 136.2691 444 137.1333 C464.3186 139.7193 464.4657 141.7804 485 144.1333 C512.2426 147.2549 540 148.1333 540 148.1333 "/>
<path id="6" d="M215 182.1333 C215 182.1333 225.3483 180.1174 235 181.1333 C271.947 185.0225 272.6582 189.8354 310 192.1333 C369.2428 195.779 371.6601 194.0106 430 193.1333 C436.3429 193.0379 443 190.1333 443 190.1333 "/>
<path id="7" d="M539 150.1333 C539 150.1333 524.8704 155.1426 511 156.1333 C476.8118 158.5753 449.9652 156.493 441 157.1333 C440.9634 157.1359 440.4764 160.6097 441 161.1333 C442.5708 162.7042 445.1296 164.6885 449 165.1333 C485.4587 169.324 516.6715 169.5559 528 171.1333 C528.0988 171.1471 528.8202 175.1081 528 176.1333 C524.7849 180.1522 521.845 184.2735 516 186.1333 C503.1899 190.2093 499.9743 189.171 484 190.1333 C458.7014 191.6573 433 191.1333 433 191.1333 "/>
<path id="8" d="M244 160.1333 C244 160.1333 225.1489 171.7388 221 175.1333 C220.8289 175.2733 221.6788 178.0766 222 178.1333 C225.3603 178.7263 230.9533 179.0942 238 178.1333 C240.8227 177.7484 244 175.1333 244 175.1333 "/>
<path id="9" d="M245 163.1333 C245 163.1333 261.4594 160.7836 273 161.1333 C275.1029 161.1971 276.6006 162.3841 278 164.1333 C279.8792 166.4823 281.6214 169.6687 281 171.1333 C277.3968 179.6267 273.0779 184.8133 264 197.1333 C259.2626 203.5627 258.6603 204.4165 253 209.1333 C250.4394 211.2672 246 212.1333 246 212.1333 "/>
<path id="10" d="M244 178.1333 C244 178.1333 248.6513 176.8344 249 177.1333 C249.6734 177.7105 251.6585 183.1203 251 184.1333 C248.372 188.1764 243.4985 192.8485 236 197.1333 C231.0806 199.9444 223 200.1333 223 200.1333 "/>
<path id="11" d="M354 175.1333 C354 175.1333 357.9563 168.7914 361 168.1333 C371.8028 165.7976 377.8248 166.4014 391 167.1333 C393.7133 167.2841 396.5795 168.9419 397 170.1333 C398.1503 173.3926 399.4238 180.6708 397 184.1333 C386.5259 199.0963 379.744 204.8735 362 220.1333 C356.3454 224.9963 347 227.1333 347 227.1333 "/>
<path id="12" d="M347 186.1333 C347 186.1333 351.2017 182.933 355 182.1333 C359.7252 181.1385 365.7573 181.7692 366 182.1333 C366.331 182.6298 365.5119 192.4417 363 194.1333 C349.3674 203.3145 317.045 215.1085 317 215.1333 C316.9938 215.1368 321.7242 215.8893 325 215.1333 C327.3309 214.5954 330.0003 212.1328 330 212.1333 C329.9992 212.1345 321.2427 220.7289 321 221.1333 C320.9865 221.1558 323.1576 222.4141 324 222.1333 C327.3697 221.0101 332.9984 217.1278 333 217.1333 C333.0065 217.156 325.9854 229.1078 326 229.1333 C326.0023 229.1374 331.8644 226.1086 337 224.1333 C337.7948 223.8276 338.9655 224.0471 339 224.1333 C339.2155 224.6721 338.7243 228.6738 339 229.1333 C339.0993 229.2988 341.3633 229.6286 342 229.1333 C344.429 227.2441 348 222.1333 348 222.1333 "/>
<path id="13" d="M232 204.1333 C232 204.1333 221.644 204.8061 213 207.1333 C209.4753 208.0823 206.7659 210.3674 206 211.1333 C205.9304 211.203 206.6778 213.0931 207 213.1333 C210.8666 213.6167 221.8324 212.9844 222 213.1333 C222.0124 213.1444 216.0925 220.717 216 221.1333 C215.9989 221.1383 219.0193 222.5256 220 222.1333 C222.1794 221.2616 225.9989 217.1312 226 217.1333 C226.0037 217.1408 221.9725 226.037 222 226.1333 C222.001 226.1368 226.38 225.7533 228 224.1333 C232.455 219.6783 231.9975 216.4137 237 211.1333 C240.3758 207.57 246 205.1333 246 205.1333 "/>
<path id="14" d="M431 148.1333 C431 148.1333 423.0474 154.0228 423 154.1333 C422.9943 154.1467 427.4753 155.5414 428 155.1333 C429.2702 154.1454 432 147.1333 432 147.1333 "/>
<path id="15" d="M503 159.1333 L504 165.1333 "/>
<path id="16" d="M486 159.1333 L487 162.1333 "/>
<path id="17" d="M518 159.1333 L518 162.1333 "/>
<path id="18" d="M474 159.1333 L474 163.1333 "/>
<path id="19" d="M518 169.1333 L518 166.1333 "/>
<path id="20" d="M499 166.1333 L498 164.1333 "/>
<path id="21" d="M481 168.1333 L480 165.1333 "/>
<path id="22" d="M408 139.1333 C408 139.1333 404.3159 132.1649 404 132.1333 C403.6371 132.097 399.5183 137.1844 398 138.1333 C397.7859 138.2672 396.5533 137.825 396 137.1333 C393.063 133.4621 390.8083 128.4028 390 128.1333 C389.6108 128.0036 384.7203 133.1333 384 133.1333 C383.5198 133.1333 381.2396 128.4432 380 128.1333 C378.2292 127.6906 372 130.1333 372 130.1333 "/>
<path id="23" d="M351 132.1333 L345 128.1333 "/>
<path id="24" d="M202 143.1333 C202 143.1333 198.1244 138.0815 198 138.1333 C197.2106 138.4622 190.3199 148.1067 190 148.1333 C189.8823 148.1431 186.2802 139.1843 186 139.1333 C185.7152 139.0816 179.7459 146.1333 179 146.1333 C178.3606 146.1333 175.5798 140.5225 173 139.1333 C171.1515 138.138 168.2521 138.3144 166 139.1333 C164.2451 139.7715 162.3385 143.2256 162 143.1333 C160.9635 142.8506 155.4487 136.0372 155 136.1333 C154.2541 136.2932 149.5776 145.2838 148 146.1333 C147.4415 146.4341 144.057 144.9618 142 143.1333 C140.2331 141.5627 139.1367 138.0992 139 138.1333 C138.1407 138.3481 133.8545 143.7613 130 146.1333 C128.8926 146.8148 126.9145 146.7735 126 146.1333 C123.5081 144.389 122.429 141.0226 120 139.1333 C119.3633 138.6381 117.6367 138.6381 117 139.1333 C114.571 141.0226 113.1782 145.6598 111 146.1333 C106.2029 147.1762 98.3203 143.1514 94 144.1333 C92.279 144.5245 91.1181 149.8977 89 151.1333 C87.3677 152.0855 84.2521 151.9523 82 151.1333 C80.2451 150.4952 79.5484 147.4651 78 147.1333 C74.8804 146.4648 70.0018 148.9912 68 148.1333 C66.536 147.5059 64.1019 141.1673 64 141.1333 C63.9946 141.1315 62.8325 145.7549 62 146.1333 C60.2465 146.9304 56.5361 147.1734 53 146.1333 C49.279 145.0389 46.2206 141.0394 45 141.1333 C44.1246 141.2007 40.5943 147.2076 40 147.1333 C38.322 146.9236 32.3896 139.3941 29 139.1333 C24.7573 138.807 21.2101 143.2524 14 145.1333 C10.5179 146.0417 8.261 144.3111 6 145.1333 C4.741 145.5911 3 149.1333 3 149.1333 "/>
<path id="25" d="M382 130.1333 L364 133.1333 "/>
</g>
</g>
</svg>
