<?xml version="1.0" encoding="utf-8"?>
<!DOCTYPE svg PUBLIC "-//W3C//DTD SVG 1.1//EN" "http://www.w3.org/Graphics/SVG/1.1/DTD/svg11.dtd">
<svg viewBox="0 0 800 800" preserveAspectRatio="xMinYMin meet" xmlns="http://www.w3.org/2000/svg" version="1.1">
<g fill="none" stroke="black" stroke-linecap="round" stroke-linejoin="round" stroke-width="1.8193">
<g transform="translate(87.52,323.3228) scale(1.649) translate(-114,-118.4167)">
<path id="0" d="M176 134.4167 C176 134.4167 190.3704 136.6974 200 134.4167 C206.4726 132.8837 213.6715 125.3697 214 125.4167 C214.0406 125.4225 213.422 135.357 214 136.4167 C214.172 136.732 217.5518 137.2641 220 136.4167 C229.432 133.1518 239.0919 127.2005 240 127.4167 C240.2204 127.4691 240.581 141.2491 241 141.4167 C242.0539 141.8382 250.5769 137.2489 260 135.4167 C268.0343 133.8545 275.5752 133.6624 277 134.4167 C277.458 134.6591 276.9282 144.4099 277 144.4167 C279.4013 144.6418 302.9424 136.9255 309 137.4167 C310.1199 137.5075 313.295 147.3873 314 147.4167 C316.424 147.5177 332.0927 138.2806 333 138.4167 C333.1439 138.4383 333.7433 150.381 334 150.4167 C337.2757 150.8716 358.6124 142.7242 369 143.4167 C372.2085 143.6306 377.165 153.4822 379 153.4167 C382.5002 153.2917 394.4261 142.0735 397 142.4167 C399.1795 142.7073 405.3482 156.9154 409 157.4167 C418.845 158.768 439.5046 148.5129 448 149.4167 C450.0895 149.639 455.167 162.4464 456 162.4167 C458.266 162.3357 470.5731 150.8045 476 148.4167 C476.7634 148.0808 479.8099 149.6316 481 151.4167 C483.8812 155.7385 484.485 157.6598 486 163.4167 C486.7964 166.443 484.9712 168.0652 486 170.4167 C487.7728 174.4688 493.1101 179.4093 493 179.4167 C491.0915 179.5451 396.8242 174.2682 382 177.4167 C380.9916 177.6309 381.8185 191.0512 380 203.4167 C379.4162 207.3863 378.1909 210.9836 377 211.4167 C373.1707 212.8091 358.0012 211.4173 358 211.4167 C357.9992 211.4163 370.3129 209.3099 371 208.4167 C371.4066 207.8881 368.4727 203.3014 368 198.4167 C367.0353 188.4482 368.0297 177.5353 368 177.4167 C367.9944 177.3941 364 182.4167 364 182.4167 "/>
<path id="1" d="M364 180.4167 C364 180.4167 363.9492 191.0437 361 198.4167 C358.6038 204.4072 355.8388 208.5741 352 210.4167 C347.8388 212.4141 336.0044 210.4186 336 210.4167 C335.9979 210.4158 344.2466 208.848 345 207.4167 C346.6092 204.3592 346.2365 191.4646 346 191.4167 C337.5551 189.7063 305.2376 193.7248 266 191.4167 C246.6697 190.2796 246.2344 187.6224 227 184.4167 C225.5634 184.1772 224.1203 184.2062 224 184.4167 C223.4688 185.3462 224.2045 188.4915 223 191.4167 C220.9734 196.3384 219.7245 200.2893 217 201.4167 C210.5965 204.0664 194.0001 203.4167 194 203.4167 C194 203.4167 204.3696 202.5055 205 201.4167 C206.2806 199.2048 204.5975 192.466 205 184.4167 C205.0722 182.9725 205.75 181.5417 206 181.4167 C206.25 181.2917 209 182.4167 209 182.4167 "/>
<path id="2" d="M242 189.4167 C242 189.4167 237.3602 200.5115 233 205.4167 C231.5062 207.0972 226.032 207.4407 226 207.4167 C225.9956 207.4134 228.7018 204.703 229 202.4167 C229.9956 194.7834 229 184.4167 229 184.4167 "/>
<path id="3" d="M206 183.4167 C206 183.4167 192.9623 182.6209 181 179.4167 C165.4245 175.2447 165.1314 174.5813 150 168.4167 C138.2803 163.642 136.6247 164.1005 127 157.4167 C119.8622 152.4599 118.3359 149.0867 114 143.4167 C113.4567 142.7062 113.9854 140.4174 114 140.4167 C116.1362 140.3149 134.9998 142.4191 135 142.4167 C135.0042 142.3534 116.8955 127.4174 115 125.4167 C114.9944 125.4108 116.6176 123.3284 117 123.4167 C123.4245 124.8992 129.183 129.483 141 131.4167 C155.5505 133.7977 156.6108 131.413 172 132.4167 C179.4954 132.9055 186.9948 134.4151 187 134.4167 C187.0016 134.4171 182 135.4167 182 135.4167 "/>
<path id="4" d="M169 135.4167 C169 135.4167 165.984 139.4087 166 139.4167 C166.176 139.5047 176.824 139.5047 177 139.4167 C177.016 139.4087 175.28 136.0567 174 135.4167 C172.72 134.7767 170.2607 134.7163 169 135.4167 C167.2911 136.3661 165 140.4167 165 140.4167 "/>
<path id="5" d="M120 128.4167 L121 133.4167 "/>
<path id="6" d="M118 140.4167 L118 135.4167 "/>
<path id="7" d="M125 139.4167 L122 136.4167 "/>
<path id="8" d="M122 134.4167 L123 134.4167 "/>
<path id="9" d="M128 137.4167 L129 137.4167 "/>
<path id="10" d="M116 124.4167 C116 124.4167 117.2863 118.714 118 118.4167 C119.5199 117.7834 126.8222 118.71 128 119.4167 C128.3333 119.6167 127.7986 124.2824 128 124.4167 C128.3223 124.6315 133.5625 123.1042 134 123.4167 C134.4375 123.7292 135 129.4167 135 129.4167 "/>
</g>
</g>
</svg>
