<?xml version="1.0" encoding="utf-8"?>
<!DOCTYPE svg PUBLIC "-//W3C//DTD SVG 1.1//EN" "http://www.w3.org/Graphics/SVG/1.1/DTD/svg11.dtd">
<svg viewBox="0 0 800 800" preserveAspectRatio="xMinYMin meet" xmlns="http://www.w3.org/2000/svg" version="1.1">
<g fill="none" stroke="black" stroke-linecap="round" stroke-linejoin="round" stroke-width="1.6177">
<g transform="translate(87.52,255.3505) scale(1.8545) translate(-79,-168)">
<path id="0" d="M185 182 C185 182 185.1138 183.9621 185 184 C181.1319 185.2894 172.7432 184.6284 164 189 C150.4201 195.7899 148.8405 201.3833 137 208 C134.7967 209.2313 132.5131 206.9073 130 208 C122.6947 211.1762 121.9267 214.6028 114 218 C108.976 220.1531 102 220 102 220 "/>
<path id="1" d="M112 219 C112 219 104.9311 212.4264 99 210 C95.8001 208.6909 92.9545 208.7834 90 210 C86.4275 211.471 84.2224 213.3633 82 217 C79.601 220.9256 78.605 226.973 79 228 C79.2037 228.5296 85.8012 228.5832 87 230 C88.8508 232.1873 88.8726 240.682 90 241 C96.6505 242.8758 117.6808 242.0946 126 241 C126.6142 240.9192 126.6867 236.985 128 236 C130.9691 233.7732 133.1913 232.6205 138 232 C147.6026 230.761 150.095 233.8334 159 232 C165.1237 230.7392 165.8763 226.2608 172 225 C180.905 223.1666 183.8265 227.0849 193 225 C204.0399 222.4909 216 215 216 215 "/>
<path id="2" d="M199 187 C199 187 208.5546 175.9886 216 172 C219.2713 170.2475 221.6327 171.5121 227 172 C232.456 172.496 237.2776 172.8835 238 174 C239.1885 175.8368 238 189 238 189 "/>
<path id="3" d="M223 178 C223 178 220.0371 177.34 219 178 C216.0301 179.89 213.0441 182.2157 212 185 C211.0644 187.495 212.3527 193.7087 213 194 C215.4354 195.0959 229.9516 195.229 232 194 C232.8841 193.4696 233.9156 183.526 233 182 C232.2772 180.7953 223 179 223 179 "/>
<path id="4" d="M214 186 C214 186 220.8565 184.8087 221 185 C221.2785 185.3714 220 194 220 194 "/>
<path id="5" d="M214 190 C214 190 216 188 216 188 C216.0744 188.0744 216.9993 193 217 193 C217.0007 193 218 188 218 188 "/>
<path id="6" d="M186 184 L194 178 "/>
<path id="7" d="M212 174 C212 174 209.444 168.3139 208 168 C202.8869 166.8885 195.1558 167.6009 189 169 C187.7485 169.2844 186.3852 171.2022 186 173 C185.1702 176.8722 186 183 186 183 "/>
<path id="8" d="M240 177 C240 177 248.931 177.4722 252 177 C252.3344 176.9485 253 175 253 175 C253.1528 175.0764 255.5474 177.1894 256 179 C256.7624 182.0494 255.5385 186.6923 256 187 C257.0385 187.6923 267.04 186.28 268 187 C268.54 187.405 267.4548 195.299 268 196 C268.3298 196.424 274.3404 195.6231 275 196 C275.2154 196.1231 274.8394 199.9416 275 200 C276.2144 200.4416 284.7856 199.5584 286 200 C286.1606 200.0584 285.8 203.9 286 204 C286.8 204.4 293.5 203.5 294 204 C294.5 204.5 293.6433 211.8662 294 212 C296.8983 213.0869 316.159 212.5998 318 213 C318.0099 213.0022 316.9038 216.923 317 217 C317.2624 217.2099 322.4808 216.6538 323 217 C323.2308 217.1538 322.8043 220.9309 323 221 C325.4548 221.8664 337.7098 221.9223 340 223 C340.3604 223.1696 339.7534 228.9075 340 229 C341.7534 229.6575 354.2466 228.3425 356 229 C356.2466 229.0925 355.6754 234.873 356 235 C359.3422 236.3078 375.7413 236.5832 379 238 C379.4081 238.1774 378.6203 244.8373 379 245 C381.7666 246.1857 398.9942 246.6824 400 247 C400.0343 247.0108 397.9685 250.8742 398 251 C398.0067 251.027 400.9418 250.8642 401 251 C401.3168 251.7392 400.4565 257.6237 401 258 C402.6133 259.1169 413.7469 259.908 414 260 C414.0235 260.0085 412.078 261.2976 412 262 C411.758 264.1776 413.4331 267.7007 413 269 C412.7834 269.6497 409.0935 270.813 409 271 C408.9766 271.0468 411 273 411 273 "/>
<path id="9" d="M95 243 C95 243 94.5143 245.4603 95 246 C97.4447 248.7163 100.1239 252.5478 104 253 C124.1373 255.3493 133.1254 255.4305 155 253 C160.4806 252.391 161.4098 247.087 167 246 C177.0414 244.0475 179.8571 247.2735 191 246 C196.3194 245.3921 196.5105 242.9981 202 242 C212.4684 240.0967 214.2381 242.3665 224 240 C229.4072 238.6892 230.7192 237.4247 235 234 C237.3843 232.0926 238.2619 230.768 239 228 C239.9401 224.4747 239 219 239 219 "/>
<path id="10" d="M209 243 C209 243 224.0589 242.1312 232 246 C239.7247 249.7633 248 262 248 262 "/>
<path id="11" d="M179 248 C179 248 198.0567 246.1973 212 250 C222.6181 252.8958 223.3527 257.6763 234 263 C236.4283 264.2142 240 264 240 264 "/>
<path id="12" d="M102 244 C102 244 105.5539 244.3754 106 245 C106.7766 246.0873 106.9999 251.0001 107 251 C107.0001 250.9999 107 244 107 244 "/>
<path id="13" d="M116 243 C116 243 117.12 249.8266 118 251 C118.2779 251.3705 121.7701 251.3613 122 251 C123.1661 249.1676 125 240 125 240 "/>
<path id="14" d="M129 237 C129 237 128.3004 242.9505 129 244 C129.5997 244.8995 134.9028 246.1337 135 246 C135.5945 245.1825 137 233 137 233 "/>
<path id="15" d="M139 234 C139 234 140.1171 241.6757 141 243 C141.2278 243.3418 144.8982 243.224 145 243 C145.6415 241.5888 146 232 146 232 "/>
<path id="16" d="M149 233 C149 233 148.4947 237.5958 149 238 C150.5663 239.2531 158.744 241.2304 159 241 C159.3788 240.6591 159 229 159 229 "/>
<path id="17" d="M162 229 C162 229 162.4304 234.3165 163 235 C163.2778 235.3334 166.8769 235.2154 167 235 C167.3769 234.3404 166.7689 228.809 167 228 C167.0189 227.934 169 228 169 228 "/>
<path id="18" d="M172 228 C172 228 173.1163 236.5272 174 238 C174.1894 238.3156 177.8989 238.2359 178 238 C178.876 235.9559 179.7837 224.1923 180 224 C180.025 223.9778 185.6109 227.4202 187 230 C187.9954 231.8485 186.4596 235.9193 187 237 C187.2316 237.4632 190.8684 238.1809 191 238 C192.0277 236.5869 195 226 195 226 "/>
<path id="19" d="M239 265 C239 265 249.361 273.3676 260 279 C265.6609 281.997 273 283 273 283 "/>
<path id="20" d="M250 262 C250 262 256.0165 264.6777 261 268 C263.2149 269.4766 264.1257 270.2515 265 272 C265.5828 273.1657 264.5134 275.6257 265 276 C267.7857 278.1429 278 282 278 282 "/>
<path id="21" d="M222 257 C222 257 211.5346 257.4654 210 259 C208.4654 260.5346 209.2003 269.9712 208 271 C206.8276 272.0049 197.4595 270.7568 196 271 C195.9595 271.0068 195.9816 272.9986 196 273 C199.3566 273.2486 211.9783 274.837 223 273 C227.0821 272.3196 227.8768 268.6493 232 267 C234.1701 266.132 238 267 238 267 "/>
<path id="22" d="M271 273 C271 273 275.9552 272.8388 276 273 C276.5802 275.0888 277.9266 285.4342 276 291 C274.8103 294.437 266.9534 298.9851 267 299 C267.246 299.0787 287.6615 300.3681 301 299 C303.1225 298.7823 305.5114 296.6613 306 295 C307.1611 291.0521 307.5991 286.5975 306 282 C304.4276 277.4794 301.2529 274.5023 298 272 C296.9635 271.2027 293 272 293 272 "/>
<path id="23" d="M276 295 C276 295 277 305 277 305 C277 305 276.6625 297.0125 277 296 C277.0375 295.8875 280 296 280 296 "/>
<path id="24" d="M288 295 L287 305 "/>
<path id="25" d="M299 296 C299 296 296.0462 295.8767 296 296 C295.6712 296.8767 296 304 296 304 "/>
<path id="26" d="M308 281 L337 281 "/>
<path id="27" d="M336 280 C336 280 334.7025 290.8831 335 291 C337.5974 292.0204 353.5889 292.2619 364 291 C365.6101 290.8048 367.6637 288.6813 368 287 C369.1209 281.3957 368.6397 276.7573 368 271 C367.9112 270.2004 366 269 366 269 "/>
<path id="28" d="M343 290 C343 290 339.9022 292.7444 339 295 C338.3165 296.7088 339 300 339 300 "/>
<path id="29" d="M347 286 L347 297 "/>
<path id="30" d="M355 285 L356 297 "/>
<path id="31" d="M372 277 C372 277 383.0782 278.5406 384 280 C385.3941 282.2073 384.7746 293.3664 384 296 C383.8804 296.4067 380.4198 295.8307 379 297 C373.4641 301.5589 372.0002 309.0277 367 310 C346.2822 314.0285 307 311 307 311 "/>
<path id="32" d="M410 274 C410 274 414.6189 273.6951 415 274 C415.2439 274.1951 415.4834 277.0332 415 278 C414.577 278.846 411.9993 279.9986 412 280 C412.0028 280.0056 415.75 279.75 416 280 C416.25 280.25 416.2439 283.8049 416 284 C415.6189 284.3049 411.2561 283.6926 411 284 C410.6311 284.4426 411.3689 289.5574 411 290 C410.7439 290.3074 406.2561 289.6926 406 290 C405.6311 290.4426 406.3689 295.5574 406 296 C405.7439 296.3074 401.3125 295.6875 401 296 C400.6875 296.3125 400.7845 300.4612 401 301 C401.0345 301.0862 403 301 403 301 C403 301 394.5027 300.623 394 301 C393.8045 301.1466 395.192 306.616 395 307 C394.9302 307.1396 391.1951 306.7561 391 307 C390.6951 307.3811 391.3125 311.6875 391 312 C390.6875 312.3125 386.2561 311.6926 386 312 C385.6311 312.4426 386.3604 317.8304 386 318 C383.7098 319.0777 371.5811 319.3927 369 320 C368.9305 320.0164 369.0328 321.9956 369 322 C367.1578 322.2456 355.8422 321.7544 354 322 C353.9672 322.0044 354.0137 323.9991 354 324 C352.2554 324.109 345.7412 324.3661 338 323 C320.5752 319.925 312.8862 318.0208 303 315 C302.494 314.8454 301.7834 312.4331 302 312 C302.4331 311.1338 306 309 306 309 "/>
<path id="33" d="M217 252 C217 252 218.1219 248.3136 219 248 C222.1648 246.8697 231 247 231 247 "/>
<path id="34" d="M234 254 C234 254 241.9886 250.0284 242 250 C242.0022 249.9945 236.5518 248.4983 236 249 C234.374 250.4781 231 260 231 260 "/>
<path id="35" d="M246 261 C246 261 239.3337 260.7219 239 261 C238.849 261.1258 240 266 240 266 "/>
<path id="36" d="M258 268 C258 268 252.908 267.2938 252 268 C250.7221 268.9939 249 275 249 275 "/>
<path id="37" d="M263 273 L258 273 "/>
<path id="38" d="M93 221 C93 221 96.8508 222.1119 97 222 C97.1377 221.8967 97.2439 218.1951 97 218 C96.6189 217.6951 92.5388 217.7845 92 218 C91.9138 218.0345 92 220 92 220 "/>
<path id="39" d="M106 223 C106 223 103.494 224.6826 103 226 C102.4012 227.5968 103 231 103 231 "/>
</g>
</g>
</svg>
