<?xml version="1.0" encoding="utf-8"?>
<!DOCTYPE svg PUBLIC "-//W3C//DTD SVG 1.1//EN" "http://www.w3.org/Graphics/SVG/1.1/DTD/svg11.dtd">
<svg viewBox="0 0 800 800" preserveAspectRatio="xMinYMin meet" xmlns="http://www.w3.org/2000/svg" version="1.1">
<g fill="none" stroke="black" stroke-linecap="round" stroke-linejoin="round" stroke-width="3.077">
<g transform="translate(87.52,174.7804) scale(0.97498) translate(0,-15)">
<path id="0" d="M87 161 C87 161 96.1695 150.8663 103 141 C104.6231 138.6555 103.72 136.28 105 135 C106.28 133.72 108.7003 134.5811 111 133 C116.0477 129.5297 115.7422 126.9443 121 124 C127.2226 120.5153 128.4256 120.4202 136 119 C159.9115 114.5166 170.0153 114.6972 185 112 C185.4055 111.927 185.6757 110.0324 186 110 C193.865 109.2135 202.2436 106.959 215 109 C224.9256 110.5881 226.5741 112.573 236 118 C242.393 121.6808 241.8251 124.675 248 128 C253.7378 131.0896 256.7791 128.4789 262 132 C276.3393 141.6707 276.6032 145.8025 291 157 C293.7737 159.1573 294.4742 159.1605 298 160 C304.6163 161.5753 306.0502 160.3473 312 162 C313.9757 162.5488 314.2966 164.869 316 165 C330.0916 166.084 333.9502 166.0439 351 165 C357.9094 164.577 358.9386 164.6266 365 162 C373.0554 158.5093 374.2238 157.9695 381 152 C394.598 140.0208 395.3545 139.3627 407 125 C425.0606 102.7252 423.4543 100.6145 441 78 C445.6709 71.9797 446.0056 71.7263 452 67 C471.7 51.4673 471.7832 49.9505 493 37 C509.5897 26.8738 510.9627 25.9227 529 20 C543.1592 15.3507 544.5987 16.1494 560 15 C577.6727 13.6811 578.1711 14.1232 596 15 C608.4542 15.6125 610.0654 15.5309 621 18 C623.9397 18.6638 624.9357 19.5229 627 22 C634.2632 30.7158 637.6238 32.836 641 42 C643.4156 48.5566 641.918 53.5742 641 60 C640.8251 61.224 639.1302 62.8973 638 63 C631.4702 63.5936 625.2633 64.8632 619 62 C611.6423 58.6365 610.962 52.1184 603 47 C598.6752 44.2198 593.1788 44.9078 591 44 C590.863 43.9429 591 42 591 42 C588.2294 42 576.6075 40.7112 565 44 C548.2878 48.7351 547.2964 50.487 531 59 C514.0757 67.841 513.8048 68.2647 498 79 C487.5275 86.1134 487.2344 86.3009 478 95 C452.9451 118.6025 452.1854 119.1875 429 144 C424.2362 149.0981 422.8457 150.2577 421 156 C418.9326 162.4319 421.287 164.5997 420 172 C419.4015 175.4415 418.2725 178.5373 417 179 C412.5567 180.6157 398 180 398 180 "/>
<path id="1" d="M89 160 C89 160 89.7387 165.9136 88 168 C75.7309 182.7229 69.5923 184.3739 54 202 C47.0368 209.8714 46.364 210.6486 42 220 C36.2307 232.3628 36.2346 233.3427 33 247 C27.3226 270.9713 26.2546 271.6999 24 296 C21.8284 319.4053 23.133 329.5495 24 344 C24.0394 344.6563 26.8849 345.2708 27 346 C27.7913 351.0114 27.9085 356.9436 27 363 C26.8156 364.2291 24.3414 364.6346 24 366 C22.7939 370.8245 23.0655 372.5148 23 379 C22.567 421.8691 23.7116 433.6884 23 465 C22.9831 465.7447 21 466.4764 21 467 C21 468.5708 21.5294 470.8992 23 473 C24.4904 475.1292 26.0229 476.9193 28 477 C44.8171 477.6864 65.0614 477.9526 72 475 C73.6491 474.2983 76.2105 464.263 75 457 C73.2246 446.3476 67.2648 444.8466 65 433 C61.1041 412.6214 59.8164 409.9627 62 389 C67.092 340.117 80 289 80 289 "/>
<path id="2" d="M80 300 C80 300 78.7523 382.3202 80 421 C80.0323 422.0002 82.1957 423.5836 84 424 C87.4607 424.7986 88.6946 424.5871 93 424 C99.4147 423.1253 104.7597 422.6833 106 421 C107.6503 418.7604 105.6192 412.6928 107 405 C109.0547 393.5523 112.2312 393.2762 113 382 C115.1348 350.6895 116.1192 346.1126 113 317 C112.042 308.0583 104 298 104 298 "/>
<path id="3" d="M105 304 C105 304 130.9302 343.443 159 374 C168.1446 383.9549 171.5338 383.5984 184 390 C189.0818 392.6096 190.5773 390.7816 196 393 C201.1059 395.0888 201.2305 397.9567 206 399 C215.3677 401.0492 218.8751 402.3227 228 400 C243.4498 396.0673 244.9904 393.3013 261 385 C285.3416 372.3784 287.5321 368.9365 309 358 C310.7382 357.1145 312.1567 358.811 314 358 C323.1573 353.9708 324.2671 351.3257 334 347 C336.9112 345.7061 338.7104 347.4971 341 346 C349.8133 340.2375 353.4727 338.9008 360 330 C368.5625 318.3239 373.9644 300.9481 374 301 C374.1299 301.1895 378.045 333.6368 384 365 C385.4413 372.5908 388.7521 379.8761 389 380 C389.0496 380.0248 395.5632 374.869 396 371 C398.3647 350.0552 396.5132 331.8566 396 318 C395.9896 317.7192 394.0375 317.319 394 317 C393.5139 312.8683 394.9609 308.0467 394 301 C393.6151 298.1773 390.8713 296.9312 391 295 C391.2057 291.9145 394.9756 285.9865 395 286 C395.5988 286.3326 404.1207 295.0463 409 305 C416.0544 319.391 418.0998 321.4532 420 337 C423.3052 364.0423 418.1268 366.5894 420 395 C421.0786 411.3584 422.6572 412.9573 426 428 C426.3354 429.5091 427.3463 430.9128 428 431 C431.5048 431.4673 436.8218 432.0891 441 430 C446.1067 427.4466 448.3886 425.0671 452 419 C460.095 405.4004 462.0545 403.3178 466 388 C470.0785 372.1658 469.5272 369.8714 469 353 C468.5596 338.9077 468.3101 337.384 464 324 C459.141 308.9115 458.4707 307.7144 450 294 C437.8806 274.3781 433.3389 275.6357 422 256 C413.5209 241.3166 414.6432 239.5977 409 223 C406.2312 214.8564 405.932 214.3883 405 206 C403.9849 196.8637 403.0844 193.7046 405 187 C406.1378 183.0176 413 178 413 178 "/>
<path id="4" d="M63 187 C63 187 51.7723 191.2277 45 198 C32.623 210.377 30.1686 212.3077 22 228 C12.1118 246.9957 12.0386 249.9008 7 271 C4.3782 281.9789 7.6005 283.3389 6 295 C4.155 308.442 1.9038 308.6731 0 322 C-1.0251 329.176 -0.042762 336.923 0 337 C0.0091858 337.0165 3.6462 333.9333 5 331 C6.2159 328.3655 4.7038 326.8517 6 324 C9.3196 316.6968 12.7268 316.5773 15 309 C19.7262 293.2461 16.2834 290.508 21 274 C25.0375 259.8687 26.3523 259.5725 33 246 C38.2741 235.232 38.1675 234.6597 45 225 C52.4202 214.5093 62 205 62 205 "/>
</g>
</g>
</svg>
