<?xml version="1.0" encoding="utf-8"?>
<!DOCTYPE svg PUBLIC "-//W3C//DTD SVG 1.1//EN" "http://www.w3.org/Graphics/SVG/1.1/DTD/svg11.dtd">
<svg viewBox="0 0 800 800" preserveAspectRatio="xMinYMin meet" xmlns="http://www.w3.org/2000/svg" version="1.1">
<g fill="none" stroke="black" stroke-linecap="round" stroke-linejoin="round" stroke-width="1.5073">
<g transform="translate(121.3554,87.52) scale(1.9903) translate(-101,-77)">
<path id="0" d="M101 390 C101 390 105.3425 389.1505 106 388 C107.8563 384.7514 108.47 381.9814 109 376 C111.9103 343.155 110.0251 340.449 113 309 C113.3216 305.6003 116 302 116 302 "/>
<path id="1" d="M103 391 C103 391 124.0201 392.9065 126 391 C128.4995 388.593 126.7269 377.3371 130 365 C133.0707 353.4258 136.022 353.3166 139 342 C140.7918 335.1913 140 327 140 327 "/>
<path id="2" d="M142 328 C142 328 151.1369 324.4488 160 324 C189.7019 322.4961 217.5438 320.3134 221 324 C224.8113 328.0654 218.1831 380.7325 220 388 C220.1211 388.4845 236.0552 389.056 237 388 C238.1802 386.681 235.9164 378.2105 237 369 C238.8652 353.1454 241.2698 352.8601 243 337 C244.2186 325.8291 243 314 243 314 "/>
<path id="3" d="M118 300 C118 300 118.6283 295.8378 118 295 C117.0575 293.7433 113.8225 293.8225 112 292 C110.1775 290.1775 109.3703 288.8697 109 286 C107.5432 274.7098 106.8264 272.4427 108 261 C108.6841 254.33 111.5143 254.0041 113 247 C114.9162 237.9665 112.0144 235.5634 115 228 C118.6406 218.7771 121.3389 215.1282 128 209 C131.4267 205.8474 134.2781 205.5364 140 205 C149.2041 204.1371 150.7254 204.1966 160 206 C167.884 207.533 167.9036 210.3588 176 212 C204.1342 217.7029 205.2034 217.8004 234 221 C245.2258 222.2473 245.9145 222.1085 257 221 C265.3864 220.1614 266.2942 220.124 274 217 C284.1215 212.8967 285.48 212.745 294 206 C308.6534 194.3994 310.3062 193.1557 322 179 C328.3591 171.3021 328.4349 169.7572 332 160 C337.7109 144.3702 335.2977 142.8109 341 127 C346.1426 112.7409 346.3548 111.742 354 99 C359.4243 89.9596 360.6495 88.4685 368 82 C371.9088 78.5603 378.8905 76.8652 379 77 C379.6295 77.7747 382.1129 88.3553 381 98 C379.2895 112.8243 378.6109 114.3493 373 129 C360.8565 160.708 360.7393 163.3195 345 192 C339.3102 202.368 334.9943 201.3412 328 211 C325.1191 214.9784 324.3801 216.1679 324 221 C321.0804 258.12 326.1803 273.8106 321 300 C320.0259 304.9247 313.8135 308.5816 306 312 C291.7476 318.2354 289.3619 317.97 273 321 C263.001 322.8517 261.2174 323.3168 252 322 C245.4342 321.062 238 316 238 316 "/>
<path id="4" d="M369 103 L372 104 "/>
<path id="5" d="M360 106 L378 109 "/>
</g>
</g>
</svg>
