<?xml version="1.0" encoding="utf-8"?>
<!DOCTYPE svg PUBLIC "-//W3C//DTD SVG 1.1//EN" "http://www.w3.org/Graphics/SVG/1.1/DTD/svg11.dtd">
<svg viewBox="0 0 800 800" preserveAspectRatio="xMinYMin meet" xmlns="http://www.w3.org/2000/svg" version="1.1">
<g fill="none" stroke="black" stroke-linecap="round" stroke-linejoin="round" stroke-width="1.6993">
<g transform="translate(151.0753,87.52) scale(1.7654) translate(-150,-106)">
<path id="0" d="M190 124 C190 124 184.5192 127.7014 179 129 C168.2549 131.5282 165.4173 129.4021 156 132 C153.0835 132.8046 151.3968 134.9047 150 137 C149.3792 137.9312 149.8276 140.931 150 141 C151.0776 141.431 160 141 160 141 "/>
<path id="1" d="M154 142 C154 142 156.6732 144.5014 159 145 C162.7112 145.7952 168 145 168 145 "/>
<path id="2" d="M188 126 C188 126 191.8649 125.4053 192 125 C192.6369 123.0894 192.7282 117.1555 192 114 C191.8218 113.2277 189.4962 112.9925 189 112 C188.0784 110.1568 187.8331 106.1001 188 106 C188.7059 105.5764 198.6544 105.5392 199 106 C199.4399 106.5865 196.2916 116.4821 197 118 C197.4609 118.9876 206 121 206 121 "/>
<path id="3" d="M198 117 C198 117 197.2182 123.3648 198 124 C200.8693 126.3313 212.1595 127.1851 214 130 C216.3093 133.5318 215 150 215 150 "/>
<path id="4" d="M199 138 C199 138 206.1966 132.355 213 130 C218.0089 128.2662 225.0054 128.9728 225 129 C224.9696 129.1518 216.0085 140.1932 210 145 C208.9193 145.8645 205 145 205 145 "/>
<path id="5" d="M182 137 C182 137 186.4162 136.2081 188 137 C189.7158 137.8579 192 142 192 142 "/>
<path id="6" d="M185 141 C185 141 185 143 185 143 C185.0014 143 186.0229 141.0458 186 141 C185.9847 140.9694 184 141 184 141 "/>
<path id="7" d="M167 144 C167 144 168.7039 149.6432 171 151 C177.0801 154.5928 182.3445 152.9043 189 157 C193.3426 159.6724 195.2238 162.2634 197 167 C198.9641 172.2376 195.7587 176.0001 198 181 C201.1614 188.0524 206.3859 188.5308 210 196 C213.0314 202.2648 210.6632 204.6974 213 212 C214.4605 216.5641 217.0924 216.5753 218 221 C220.7716 234.5117 218.52 236.4299 221 251 C222.451 259.5246 225.3048 259.6574 226 268 C228.1987 294.385 230.9554 301.8104 227 323 C225.3547 331.814 212 343 212 343 "/>
<path id="8" d="M213 344 C213 344 209.5843 344.1966 209 345 C207.0705 347.6531 205.5823 350.1964 205 355 C203.7227 365.5374 206.2765 369.0643 205 378 C204.6908 380.1645 201.1917 380.8911 201 383 C199.606 398.3343 204.0339 404.9 201 422 C199.059 432.9403 196.5155 435.9349 190 445 C186.2844 450.1696 180.2627 450.9145 178 454 C177.3305 454.9129 178.6469 459.9317 179 460 C183.9008 460.9485 206.8599 462.002 209 460 C211.0066 458.1228 207.0667 441.9331 210 431 C211.4715 425.5152 218.8038 424.5209 220 419 C224.1078 400.0407 220.5441 393.5128 223 371 C223.3724 367.5867 223.8317 366.5296 226 364 C232.0841 356.9019 234.4135 357.4456 241 350 C245.6078 344.7912 244.2621 341.7577 249 338 C257.0395 331.6238 260.1051 330.1098 270 327 C275.6642 325.2198 277.5257 325.6068 284 327 C315.7508 333.8325 317.21 337.4094 349 344 C356.8867 345.635 358.8352 345.5353 366 344 C371.1779 342.8904 377 338 377 338 "/>
<path id="9" d="M243 349 C243 349 246.741 354.0641 251 356 C261.9073 360.9579 263.7021 362.2972 276 364 C294.907 366.6179 296.0837 365 316 365 C323.4686 365 324.9294 366.4496 331 364 C351.0511 355.9092 373 342 373 342 "/>
<path id="10" d="M214 147 C214 147 213.8143 154.0821 216 159 C219.2974 166.4192 222.9504 166.4934 226 174 C228.9146 181.1744 226.3202 183.7645 229 191 C230.8633 196.0308 234.0661 196.1652 236 201 C237.5713 204.9283 235.2455 207.4909 237 211 C239.8407 216.6814 243.7622 217.0641 247 223 C249.0573 226.7718 247.1 228.9889 249 233 C251.1375 237.5125 251.9771 239.2702 256 242 C264.5281 247.7869 267.6234 246.0094 277 252 C284.9787 257.0975 284.0749 259.4764 292 265 C300.2245 270.7323 300.9076 272.4238 310 275 C329.1958 280.4388 333.2369 276.5005 352 282 C360.0634 284.3634 362.07 286.663 368 292 C370.6566 294.391 371.6767 296.2496 372 300 C373.9405 322.5101 371.4699 325.518 373 350 C373.4336 356.9381 375.7369 357.093 376 364 C377.6972 408.5506 377 414.3906 377 455 C377 455.8925 376.2855 456.9867 376 457 C365.028 457.5103 339.1766 457.6163 334 457 C333.9266 456.9913 333.2996 453.2607 334 452 C334.9494 450.2911 336.7957 448.4199 339 448 C345.1209 446.8341 351.7115 449.4798 355 448 C356.6545 447.2555 358.7816 443.2043 359 439 C360.6129 407.9511 360.2347 401.4552 359 371 C358.8889 368.2583 356.3677 367.8192 356 365 C355.0219 357.5013 356 348 356 348 "/>
<path id="11" d="M355 445 L379 435 "/>
<path id="12" d="M347 449 L355 449 "/>
<path id="13" d="M354 450 L370 450 "/>
<path id="14" d="M337 362 L338 450 "/>
<path id="15" d="M340 447 C340 447 341.3384 456.8219 341 457 C339.4125 457.8355 328.2258 457.6569 321 457 C320.2117 456.9283 319.0709 455.7092 319 455 C318.7453 452.4532 319.0716 447.7141 320 447 C321.7569 445.6486 331.8922 445.6556 332 445 C333.926 433.2837 333.626 406.926 332 374 C331.7665 369.2709 328 364 328 364 "/>
<path id="16" d="M324 452 L332 449 "/>
<path id="17" d="M196 447 L207 447 "/>
<path id="18" d="M262 361 C262 361 253.8953 361.2903 250 364 C244.4577 367.8555 239.7136 371.486 239 377 C235.438 404.5248 236.7095 429.4035 239 449 C239.1925 450.6472 246.0688 452.0688 248 454 C248.5518 454.5518 248.0763 457.9888 248 458 C243.5727 458.6511 214.9304 459.1861 214 459 C213.9284 458.9857 215.8334 453.9499 218 452 C219.6407 450.5233 223.8268 450.77 224 450 C226.0001 441.1107 227 412 227 412 "/>
<path id="19" d="M226 414 C226 414 226.9359 404.9272 226 399 C225.7209 397.2322 223 395 223 395 "/>
<path id="20" d="M226 452 L232 451 "/>
<path id="21" d="M354 282 C354 282 363.4785 282.7109 371 285 C374.0305 285.9223 375.0397 286.5496 377 289 C382.3463 295.6829 383.7259 297.0875 387 305 C389.2482 310.433 388.8742 311.5866 389 318 C389.3663 336.6809 389.0676 337.1393 388 356 C387.576 363.4901 388.1631 364.2943 386 371 C383.431 378.9639 378 387 378 387 "/>
<path id="22" d="M389 310 C389 310 392.5322 311.0429 394 313 C404.7639 327.3519 408.5562 330.1818 416 346 C419.2523 352.9111 415.6554 356.1847 418 364 C419.7773 369.9245 422.8446 370.0128 425 376 C427.0366 381.6573 425.1662 384.5466 427 389 C427.8037 390.9519 431.1421 391.2842 432 393 C432.7919 394.5838 432.0998 398.9572 432 399 C431.7783 399.095 425.3886 397.1658 425 396 C423.6885 392.0654 426.5743 385.6089 425 378 C423.9294 372.8254 420.6873 372.4838 419 367 C416.949 360.3341 419.7535 358.0314 417 352 C410.1352 336.9628 398 321 398 321 "/>
<path id="23" d="M431 394 C431 394 431.24 397.68 431 398 C430.865 398.18 428 398 428 398 "/>
<path id="24" d="M428 398 L429 398 "/>
<path id="25" d="M355 447 C355 447 354.322 456.5028 355 457 C356.4547 458.0668 370 458 370 458 "/>
<path id="26" d="M338 446 C338 446 346.7533 447.6286 348 449 C348.8249 449.9074 348.5907 453.751 348 457 C347.7516 458.3661 346.7634 459.8364 346 460 C342.5335 460.7428 334 460 334 460 "/>
<path id="27" d="M348 355 C348 355 342.6462 360.3148 342 365 C339.1187 385.8893 340 413 340 413 "/>
<path id="28" d="M357 282 C357 282 352.23 285.1772 350 289 C345.7581 296.2719 342.527 303.0435 343 306 C343.2907 307.8171 349.183 312.9123 354 314 C361.4379 315.6795 374 313 374 313 "/>
<path id="29" d="M327 336 C327 336 331.8091 329.4835 335 329 C343.6976 327.6822 349.1262 329.4466 360 331 C361.413 331.2019 362.8598 332.2521 363 333 C363.7662 337.0863 363 347 363 347 "/>
<path id="30" d="M302 289 C302 289 299.019 288.9178 299 289 C298.644 290.5428 297.6155 296.9234 299 302 C300.1328 306.1536 301.7604 309.1102 305 311 C311.0232 314.5135 314.1764 314.4244 323 316 C327.6703 316.834 332.3305 316.7304 333 316 C333.9434 314.9709 335.3266 307.6482 334 304 C332.4868 299.8388 329.9351 296.8414 325 294 C315.2413 288.3814 301 285 301 285 "/>
<path id="31" d="M223 259 C223 259 234.3354 259.5386 242 263 C248.0841 265.7477 251.7891 269.1811 254 273 C255.0986 274.8976 253.8448 281.4368 253 282 C251.2298 283.1801 243.0627 281.4201 239 283 C237.2118 283.6954 236.9671 287.47 235 289 C233.6886 290.02 230 290 230 290 "/>
<path id="32" d="M252 334 C252 334 249 333.1896 249 333 C249 326.5532 249.5049 310.8519 252 299 C252.364 297.2708 255.4344 295.1118 257 295 C259.6023 294.8141 263.2471 295.837 266 298 C268.7356 300.1494 269.9664 302.2791 271 306 C272.1009 309.9631 269.8722 314.0264 271 316 C271.9667 317.6917 277.1109 317.6387 279 320 C281.5793 323.2241 283 331 283 331 "/>
<path id="33" d="M270 247 C270 247 268.3137 272.2488 270 274 C271.5637 275.6238 285.788 275.8021 296 274 C299.558 273.3721 304 268 304 268 "/>
<path id="34" d="M239 211 C239 211 231.3902 210.5122 231 211 C230.3902 211.7622 230.7098 216.0672 231 221 C231.2048 224.482 230.6421 225.7368 232 228 C234.2871 231.8118 238.1118 232.2237 240 236 C241.6521 239.3043 240.1921 245.5768 241 246 C243.658 247.3923 257.0327 247.3778 261 247 C261.2563 246.9756 262 244 262 244 "/>
<path id="35" d="M197 181 C197 181 199.6777 178.4645 202 178 C206.147 177.1706 208.7215 176.9072 212 178 C214.1857 178.7286 216.4709 180.7324 217 183 C219.1851 192.3648 219.8171 202.2806 219 208 C218.8725 208.8926 213 211 213 211 "/>
<path id="36" d="M213 155 C213 155 213.5639 159.0132 213 160 C212.5167 160.8458 209.2409 161.3577 209 162 C208.6129 163.0323 209.0165 165.7871 210 168 C210.6613 169.488 211.647 170.6816 213 171 C218.1972 172.2229 227 172 227 172 "/>
<path id="37" d="M199 402 C199 402 203.3613 402.7197 206 402 C207.8163 401.5047 210 399 210 399 "/>
<path id="38" d="M212 365 L219 363 "/>
</g>
</g>
</svg>
