<?xml version="1.0" encoding="utf-8"?>
<!DOCTYPE svg PUBLIC "-//W3C//DTD SVG 1.1//EN" "http://www.w3.org/Graphics/SVG/1.1/DTD/svg11.dtd">
<svg viewBox="0 0 800 800" preserveAspectRatio="xMinYMin meet" xmlns="http://www.w3.org/2000/svg" version="1.1">
<g fill="none" stroke="black" stroke-linecap="round" stroke-linejoin="round" stroke-width="1.2481">
<g transform="translate(187.2732,87.52) scale(2.4037) translate(-209,-66.4167)">
<path id="0" d="M253 82.4167 C253 82.4167 252.4438 96.0556 255 107.4167 C256.6648 114.8159 260.382 115.2512 262 122.4167 C263.5613 129.3312 260.7156 130.8271 262 138.4167 C266.0829 162.5427 268.6375 163.0593 273 187.4167 C274.5559 196.104 271.5065 200.0461 274 205.4167 C276.1028 209.9458 280.601 214.3717 286 215.4167 C305.5215 219.195 314.0728 215.4233 336 217.4167 C338.3039 217.6261 338.6825 219.9821 341 220.4167 C345.583 221.276 348.8503 218.7734 352 220.4167 C357.2287 223.1447 360.7799 227.3182 364 232.4167 C365.1513 234.2395 363.6832 238.6774 364 239.4167 C364.0582 239.5524 367 239.4167 367 239.4167 "/>
<path id="1" d="M240 85.4167 C240 85.4167 238.5614 97.7713 240 108.4167 C240.9179 115.2092 244.2944 115.5955 245 122.4167 C247.1437 143.1394 244.7565 146.5199 246 166.4167 C246.1164 168.2793 247.9336 168.592 248 170.4167 C248.8309 193.2654 248 221.4167 248 221.4167 "/>
<path id="2" d="M249 221.4167 C249 221.4167 238.9881 227.1091 237 231.4167 C234.9528 235.8522 235.8216 240.6409 237 247.4167 C237.5668 250.6756 240.2973 251.0436 241 254.4167 C242.5437 261.8267 241.8713 262.9257 242 271.4167 C242.3705 295.8688 242 320.4167 242 320.4167 "/>
<path id="3" d="M243 321.4167 C243 321.4167 240.9802 326.4068 241 326.4167 C241.4742 326.6538 252.95 326.6899 253 326.4167 C254.6211 317.5632 253.6249 258.2091 254 255.4167 C254.0154 255.3018 258.2447 259.0814 262 259.4167 C283.6091 261.3461 310 260.4167 310 260.4167 "/>
<path id="4" d="M308 263.4167 L317 263.4167 "/>
<path id="5" d="M304 261.4167 C304 261.4167 326.7447 260.6266 327 261.4167 C329.2108 268.2595 324.4177 318.8466 325 326.4167 C325.0048 326.4795 331.9518 326.6163 332 326.4167 C332.8268 322.9913 330.7137 311.2445 332 297.4167 C332.6375 290.5638 335.1924 290.2812 336 283.4167 C337.1162 273.929 336 263.4166 336 263.4167 C336 263.4168 336.4377 280.1409 339 294.4167 C339.7083 298.3628 342.3953 298.6375 343 302.4167 C344.1898 309.8526 342.0648 317.0118 343 319.4167 C343.2048 319.9432 349.9986 320.428 350 320.4167 C350.6464 315.2452 350.514 278.3217 350 263.4167 C349.9904 263.1371 347.9974 262.4169 348 262.4167 C348.018 262.415 355.7773 263.5162 361 262.4167 C363.7488 261.838 366.5177 260.0244 367 258.4167 C368.3305 253.9816 366.5624 243.0488 367 242.4167 C367.0884 242.289 374.4005 243.5505 376 245.4167 C378.0261 247.7804 376.8143 253.1382 379 256.4167 C380.4571 258.6023 386.0033 260.4134 386 260.4167 C385.9881 260.4286 377.0365 261.9683 375 260.4167 C370.8917 257.2865 365 244.4167 365 244.4167 "/>
<path id="6" d="M251 84.4167 C251 84.4167 254.8496 83.8679 255 83.4167 C255.9239 80.6451 256.3906 70.7838 256 69.4167 C255.9593 69.2743 252.7088 68.7332 251 69.4167 C248.7444 70.3189 248.1801 73.0679 246 73.4167 C238.2692 74.6536 230.7962 70.5649 226 73.4167 C218.7862 77.706 209.2796 94.458 209 95.4167 C208.9905 95.4493 217.1748 98.2152 219 97.4167 C220.9877 96.547 222.4674 89.6163 225 88.4167 C228.208 86.8971 238 88.4167 238 88.4167 "/>
<path id="7" d="M254 69.4167 C254 69.4167 252.9416 66.4751 253 66.4167 C253.1169 66.2998 256.8462 66.1859 257 66.4167 C257.3462 66.9359 257 72.4167 257 72.4167 "/>
<path id="8" d="M234 77.4167 C234 77.4167 235.0014 80.4153 235 80.4167 C235 80.4167 233 78.4167 233 78.4167 "/>
<path id="9" d="M262 261.4167 C262 261.4167 261.6273 294.6961 262 299.4167 C262.0023 299.4461 264.9884 299.4877 265 299.4167 C266.033 293.0709 269 256.4167 269 256.4167 "/>
</g>
</g>
</svg>
