<?xml version="1.0" encoding="utf-8"?>
<!DOCTYPE svg PUBLIC "-//W3C//DTD SVG 1.1//EN" "http://www.w3.org/Graphics/SVG/1.1/DTD/svg11.dtd">
<svg viewBox="0 0 800 800" preserveAspectRatio="xMinYMin meet" xmlns="http://www.w3.org/2000/svg" version="1.1">
<g fill="none" stroke="black" stroke-linecap="round" stroke-linejoin="round" stroke-width="1.7617">
<g transform="translate(195.6534,87.52) scale(1.7029) translate(-177,-110)">
<path id="0" d="M205 176 C205 176 201.4773 175.2663 200 174 C198.8056 172.9762 198.0775 171.7825 198 170 C197.6405 161.7323 196.7556 158.4814 199 151 C200.5583 145.8057 202.464 144.0824 207 140 C211.6373 135.8264 213.3929 134.2265 219 133 C227.2876 131.1871 229.5624 132.274 239 133 C241.9039 133.2234 242.8467 133.385 245 135 C250.0244 138.7683 250.5176 139.828 255 145 C256.825 147.1057 257.5919 147.6873 258 150 C258.8857 155.0191 259.5074 158.2316 258 162 C256.5931 165.5172 250 170 250 170 "/>
<path id="1" d="M213 171 C213 171 208.5087 166.8652 208 165 C207.6923 163.8716 208.7817 162.132 210 160 C210.6233 158.9092 211.4095 158 212 158 C214.6572 158 220.6988 159.5984 221 160 C221.1291 160.1721 219.4874 164.9588 218 166 C216.4093 167.1135 211 167 211 167 "/>
<path id="2" d="M236 166 C236 166 235.5625 159.4375 236 159 C236.4375 158.5625 241.671 158.5016 243 159 C243.4034 159.1513 244.0973 161.9319 244 162 C242.7789 162.8548 233 166 233 166 "/>
<path id="3" d="M201 164 C201 164 193.6997 165.4164 192 164 C186.0197 159.0164 181.2045 151.5081 177 144 C176.3427 142.8262 177.2686 139.8776 178 139 C178.5433 138.3481 180.742 137.5597 182 138 C188.4795 140.2678 198 146 198 146 "/>
<path id="4" d="M252 143 C252 143 263.8483 138.1004 274 136 C276.941 135.3915 281.0084 136.9682 281 137 C280.7896 137.7995 275.5441 147.861 269 155 C265.5775 158.7336 259 161 259 161 "/>
<path id="5" d="M208 137 C208 137 210.9989 109.9996 211 110 C211.0025 110.001 216 140 216 140 "/>
<path id="6" d="M235 135 C235 135 235.5203 120.8066 237 114 C237.1831 113.1578 239.1606 112 240 112 C241.1192 112 243.8514 113.2572 244 114 C245.2309 120.1545 245 137 245 137 "/>
<path id="7" d="M209 177 C209 177 203.3757 177.6089 200 180 C192.4394 185.3554 189.4463 188.368 185 194 C184.1397 195.0897 184.2701 197.2481 185 199 C186.3261 202.1826 187.7556 205.1023 190 206 C194.4312 207.7725 200.702 209.0909 205 207 C214.2523 202.4989 227 188 227 188 "/>
<path id="8" d="M191 209 C191 209 191.3876 213.1189 193 215 C196.4636 219.0409 198.503 221.7594 203 223 C209.9996 224.9309 217.2321 225.6007 222 223 C227.9769 219.7398 230.5037 214.1604 236 205 C238.998 200.0034 239.2466 193.6781 240 193 C240.168 192.8488 244.7902 194.0341 246 196 C254.5102 209.8291 257.0405 213.4414 264 232 C285.2651 288.7069 303 348 303 348 "/>
<path id="9" d="M252 170 C252 170 255.7558 172.7912 257 176 C264.5902 195.5748 263.5727 200.2362 271 219 C272.0679 221.6978 274.3595 221.2238 276 224 C280.4809 231.5831 280.8066 232.3323 284 241 C287.7158 251.0857 285.8435 252.1908 290 262 C298.1304 281.1877 301.6019 281.1684 309 300 C312.1208 307.9439 309.1692 309.9431 312 318 C315.3448 327.5197 316.7285 334.4466 322 337 C338.4194 344.9531 353.4585 342.505 376 349 C378.5268 349.7281 378.2789 352.4883 381 354 C386.5199 357.0666 389.8278 355.7061 394 359 C397.4207 361.7006 400 369 400 369 "/>
<path id="10" d="M300 345 C300 345 305.9586 354.7004 308 364 C310.1853 373.9552 307.9712 377.77 309 386 C309.1046 386.837 310.9916 387.2704 311 388 C311.3523 418.6525 309.6477 442.3475 310 473 C310.0084 473.7296 311.9901 475.0198 312 475 C312.1091 474.7819 313.7175 469.9433 314 465 C314.6982 452.7815 312.2044 450.4743 314 440 C314.7921 435.3793 319.9941 429.9968 320 430 C320.1484 430.081 323.3877 437.9386 325 446 C327.8262 460.1311 328.9978 474.9942 329 475 C329.0009 475.0023 331.6825 467.0052 331 462 C330.4808 458.1925 326.7517 457.2093 326 453 C324.5564 444.9157 325.0734 440.7949 326 434 C326.1663 432.7808 329 431 329 431 "/>
<path id="11" d="M328 434 C328 434 328.5714 430.4286 330 429 C332.6531 426.3469 334.2959 424.8052 338 424 C344.1144 422.6708 346.3851 422.3866 353 424 C365.5414 427.0589 372.0969 428.433 379 434 C382.4646 436.794 382.7637 441.5823 384 449 C385.6527 458.9163 383.362 460.8274 385 470 C385.5966 473.3411 388.8788 477 389 477 C389.1212 477 392.876 473.0385 393 470 C393.7258 452.2191 391 428 391 428 "/>
<path id="12" d="M390 431 C390 431 390.9125 413.7803 394 398 C395.2775 391.4706 397.7591 391.4113 399 385 C400.6163 376.6491 400 367 400 367 "/>
<path id="13" d="M372 430 C372 430 373.699 435.4567 373 440 C370.8649 453.8783 366 468.9961 366 469 C366 469.0018 371.0849 462.5114 373 456 C375.7829 446.5381 376 435 376 435 "/>
<path id="14" d="M398 372 C398 372 400.6548 389.9536 405 407 C407.0707 415.1234 411 423 411 423 "/>
<path id="15" d="M411 423 C411 423 410.6104 430.3775 411 437 C411.0851 438.4469 411.9952 440.0032 412 440 C412.0258 439.9828 414 435 414 435 "/>
<path id="16" d="M414 423 C414 423 409.3649 425.4076 408 427 C407.5521 427.5225 408 430 408 430 "/>
<path id="17" d="M411 420 L417 433 "/>
</g>
</g>
</svg>
