<?xml version="1.0" encoding="utf-8"?>
<!DOCTYPE svg PUBLIC "-//W3C//DTD SVG 1.1//EN" "http://www.w3.org/Graphics/SVG/1.1/DTD/svg11.dtd">
<svg viewBox="0 0 800 800" preserveAspectRatio="xMinYMin meet" xmlns="http://www.w3.org/2000/svg" version="1.1">
<g fill="none" stroke="black" stroke-linecap="round" stroke-linejoin="round" stroke-width="1.6753">
<g transform="translate(216.4516,87.52) scale(1.7907) translate(-199,-69.1333)">
<path id="0" d="M204 140.1333 C204 140.1333 206.6224 170.26 206 200.1333 C204.6286 265.9627 202.04 266.1718 200 332.1333 C199.0431 363.0718 198.9282 363.4096 200 394.1333 C200.4167 406.0782 201.4346 417.5396 203 418.1333 C210.0151 420.7942 230.9825 419.2658 258 416.1333 C299.3947 411.3339 300.3962 410.5605 341 402.1333 C352.6559 399.7142 352.6352 395.9373 364 394.1333 C382.8793 391.1366 402.3893 394.3883 404 392.1333 C406.2881 388.93 399.2578 368.4649 399 345.1333 C398.266 278.708 403.3604 277.4519 402 211.1333 C401.379 180.8586 399.3488 180.1799 395 150.1333 C393.9075 142.585 392.0673 135.2326 391 135.1333 C357.7489 132.0402 303.3373 133.2307 223 134.1333 C218.2016 134.1872 217.8946 136.5215 213 137.1333 C206.3953 137.9589 199 137.1333 199 137.1333 "/>
<path id="1" d="M203 135.1333 C203 135.1333 204.9837 109.5218 211 89.1333 C213.2332 81.5654 217.2571 74.668 221 74.1333 C261.2914 68.3774 286.1509 70.7648 351 69.1333 C365.4398 68.7701 373.5036 67.246 380 70.1333 C383.0153 71.4735 385.9646 77.8854 387 85.1333 C390.1248 107.0066 389 133.1333 389 133.1333 "/>
<path id="2" d="M373 180.1333 L375 211.1333 "/>
<path id="3" d="M362 204.1333 L386 197.1333 "/>
<path id="4" d="M366 243.1333 L389 242.1333 "/>
<path id="5" d="M377 272.1333 L377 273.1333 "/>
<path id="6" d="M367 287.1333 L393 286.1333 "/>
<path id="7" d="M380 295.1333 L380 301.1333 "/>
<path id="8" d="M361 319.1333 C361 319.1333 371.5689 326.3512 379 335.1333 C387.4927 345.1701 394 358.1333 394 358.1333 "/>
<path id="9" d="M386 328.1333 C386 328.1333 380.8642 333.8347 375 337.1333 C365.4849 342.4856 360.9142 342.3619 354 346.1333 C353.2964 346.5171 353 349.1333 353 349.1333 "/>
<path id="10" d="M227 196.1333 C227 196.1333 228.9283 197.3451 229 198.1333 C229.6569 205.3591 229 218.1333 229 218.1333 "/>
<path id="11" d="M247 207.1333 C247 207.1333 250.3772 202.4447 253 201.1333 C254.7485 200.2591 258.5574 200.7645 259 201.1333 C259.3074 201.3895 259.8515 205.1315 259 206.1333 C253.9844 212.034 241.9796 221.0569 242 221.1333 C242.0109 221.1742 263 221.1333 263 221.1333 "/>
<path id="12" d="M281 201.1333 C281 201.1333 290.2544 198.9842 291 199.1333 C291.0621 199.1458 291.6186 202.0199 291 203.1333 C289.7972 205.2984 285.9695 208.0622 286 208.1333 C286.0579 208.2685 292.7163 209.331 294 210.1333 C294.2602 210.296 294.4479 212.6108 294 213.1333 C292.6351 214.7258 288 217.1333 288 217.1333 "/>
<path id="13" d="M318 197.1333 C318 197.1333 316.5114 207.7494 317 208.1333 C317.9589 208.8867 332 208.1333 332 208.1333 "/>
<path id="14" d="M334 199.1333 C334 199.1333 333.2068 207.0226 331 214.1333 C328.8028 221.2133 326.8234 224.9423 325 228.1333 C324.8804 228.3426 323 228.1333 323 228.1333 "/>
<path id="15" d="M227 268.1333 C227 268.1333 218.9945 275.1263 219 275.1333 C219.0963 275.2571 230.7669 275.9209 234 277.1333 C234.5132 277.3258 235.3114 280.4067 235 281.1333 C234.5889 282.0925 232.6028 283.8419 231 284.1333 C228.5958 284.5705 224 283.1333 224 283.1333 "/>
<path id="16" d="M226 274.1333 C226 274.1333 227.8402 271.1564 230 270.1333 C236.3637 267.1189 245 265.1333 245 265.1333 "/>
<path id="17" d="M262 269.1333 C262 269.1333 255.9727 273.6811 254 277.1333 C253.0585 278.781 253.6538 282.6141 254 283.1333 C254.1538 283.3641 257.3631 283.5155 258 283.1333 C258.4459 282.8658 259 280.1333 259 280.1333 "/>
<path id="18" d="M278 268.1333 C278 268.1333 283.725 267.1833 288 268.1333 C291.8 268.9778 295.9778 271.9109 296 272.1333 C296.0246 272.379 291.4222 274.7796 289 278.1333 C285.4215 283.0881 283 290.1333 283 290.1333 "/>
<path id="19" d="M312 259.1333 C312 259.1333 318.1575 258.1648 323 259.1333 C327.3142 259.9962 331.0968 261.6656 332 263.1333 C332.7939 264.4235 332.7903 269.29 331 272.1333 C325.7807 280.4228 320.6452 281.8316 315 290.1333 C313.4988 292.341 313.999 297.1337 314 297.1333 C314.002 297.1327 317.4578 292.7479 318 289.1333 C318.7471 284.1528 318.9056 281.8108 317 277.1333 C314.0704 269.9425 312.55 268.5596 307 262.1333 C303.5313 258.1169 298 255.1333 298 255.1333 "/>
<path id="20" d="M234 339.1333 C234 339.1333 227.7078 340.2703 226 342.1333 C224.0581 344.2518 222.7577 350.6487 223 351.1333 C223.1616 351.4564 228.5229 353.0076 231 352.1333 C234.7156 350.8219 239.9893 345.0797 240 345.1333 C240.0643 345.455 236 377.1333 236 377.1333 "/>
<path id="21" d="M274 343.1333 C274 343.1333 274.1762 346.781 273 349.1333 C270.5572 354.019 267.3436 354.8785 266 359.1333 C265.0444 362.1594 265.712 366.7379 267 368.1333 C268.8372 370.1236 277.3346 372.6587 278 372.1333 C279.9517 370.5925 283.0926 362.5016 286 353.1333 C287.3954 348.6372 287.8332 344.1937 287 343.1333 C285.7858 341.5879 275 339.1333 275 339.1333 "/>
<path id="22" d="M331 358.1333 C331 358.1333 332 362.1333 332 362.1333 C332 362.1333 331 358.1333 331 358.1333 "/>
</g>
</g>
</svg>
