<?xml version="1.0" encoding="utf-8"?>
<!DOCTYPE svg PUBLIC "-//W3C//DTD SVG 1.1//EN" "http://www.w3.org/Graphics/SVG/1.1/DTD/svg11.dtd">
<svg viewBox="0 0 800 800" preserveAspectRatio="xMinYMin meet" xmlns="http://www.w3.org/2000/svg" version="1.1">
<g fill="none" stroke="black" stroke-linecap="round" stroke-linejoin="round" stroke-width="1.3057">
<g transform="translate(153.0029,87.52) scale(2.2976) translate(-206,-96)">
<path id="0" d="M206 110 C206 110 206.1468 197.995 208 280 C208.0768 283.3976 209.8972 283.6073 210 287 C210.8591 315.3498 209.9224 343.7491 210 346 C210.0012 346.0355 212 345 212 345 "/>
<path id="1" d="M206 110 C206 110 217.4086 111.2036 228 110 C238.8649 108.7653 239.0564 106.008 250 105 C276.4006 102.5684 278.4573 105.0599 304 103 C307.8869 102.6865 308.1325 100.3033 312 100 C332.2305 98.4133 334.0982 100.5201 355 99 C360.9291 98.5688 361.1204 96.2892 367 96 C390.7166 94.8336 416 96 416 96 "/>
<path id="2" d="M420 99 L420 118 "/>
<path id="3" d="M419 119 L418 351 "/>
<path id="4" d="M210 342 C210 342 210.2361 367.8509 211 368 C226.2966 370.9847 273.1817 369.1692 333 366 C347.3625 365.2391 347.5985 361.2446 362 360 C387.4119 357.8039 407.2626 359.3887 414 359 C414.0149 358.9991 413.8644 357.0678 414 357 C414.8813 356.5594 419.4068 356.5932 420 356 C420.4237 355.5763 420 351 420 351 "/>
<path id="5" d="M206 145 L421 145 "/>
<path id="6" d="M398 108 C398 108 391.0472 114.5408 389 120 C387.4022 124.2608 387.7856 127.3851 389 132 C389.8416 135.198 392.3349 138.4797 394 139 C396.4035 139.7511 403.9799 138.4573 405 137 C407.1138 133.9803 408.2697 126.8204 408 119 C407.8322 114.133 406.2374 111.6357 404 108 C403.2585 106.795 400 106 400 106 "/>
<path id="7" d="M225 182 C225 182 250.4397 180.4397 252 182 C253.4447 183.4447 252.1512 199.9417 251 208 C250.8931 208.7486 249.3154 209.8988 248 210 C238.4071 210.7379 230.2086 211.4023 225 210 C223.8938 209.7022 222.2233 206.2378 222 203 C221.3205 193.1473 223 181 223 181 "/>
<path id="8" d="M269 182 C269 182 299.3845 180.2836 302 182 C303.013 182.6648 302.638 193.8274 301 203 C300.4034 206.3411 298.6271 209.5351 297 210 C290.4141 211.8817 278.2082 213.4509 273 211 C269.0157 209.125 265.9221 201.8897 263 194 C261.5886 190.1892 262.2019 187.4586 263 184 C263.2947 182.723 266 181 266 181 "/>
<path id="9" d="M314 185 C314 185 312.6234 207.7823 314 209 C315.6284 210.4405 337.967 209.7984 340 208 C341.4716 206.6982 340.4105 195.8522 340 186 C339.9619 185.0857 339.2965 184.0204 339 184 C331.7042 183.4968 311 184 311 184 "/>
<path id="10" d="M354 184 C354 184 350.7652 209.8534 352 211 C353.5559 212.4448 379.2637 211.5097 382 210 C382.6517 209.6405 382.6774 201.7094 381 195 C379.4051 188.6206 377.854 183.5856 375 182 C370.2273 179.3485 357.0905 179.5786 354 180 C353.7492 180.0342 353 185 353 185 "/>
<path id="11" d="M238 187 L237 203 "/>
<path id="12" d="M276 190 C276 190 284.9996 187.9969 285 188 C285.0049 188.0345 279.372 193.1455 277 197 C276.3185 198.1074 276.895 200.9714 277 201 C278.0323 201.2815 288 200 288 200 "/>
<path id="13" d="M324 190 C324 190 332.9989 190.9955 333 191 C333.0003 191.0014 325.0043 193.9787 325 194 C324.9994 194.0028 331.1822 195.0653 332 196 C332.604 196.6902 332.5764 201.5883 332 202 C329.7328 203.6194 318 206 318 206 "/>
<path id="14" d="M366 189 C366 189 358.8609 202.6104 359 203 C359.0519 203.1452 371 203 371 203 "/>
<path id="15" d="M365 196 L363 208 "/>
<path id="16" d="M226 227 C226 227 224.2216 256.7029 226 259 C226.977 260.262 248.9359 259.5962 250 258 C252.1909 254.7137 252.1159 225.7428 250 223 C248.7409 221.3678 224.2823 222.7435 223 223 C222.9525 223.0095 225 228 225 228 "/>
<path id="17" d="M242 228 C242 228 233.329 227.4883 233 228 C232.204 229.2383 232.1274 241.0603 233 242 C233.7524 242.8103 244.6992 241.0709 246 242 C246.8148 242.582 247.4262 251.6722 247 252 C246.1085 252.6858 233 252 233 252 "/>
<path id="18" d="M265 221 C265 221 263.9068 251.7651 266 255 C266.8209 256.2687 277.1306 255.9869 287 255 C291.3707 254.5629 295.5693 253.1963 296 252 C297.5184 247.7824 297.689 239.5713 296 230 C294.9974 224.3187 292.2487 218.7496 290 218 C284.0035 216.0012 263 219 263 219 "/>
<path id="19" d="M278 224 C278 224 274.2333 225.7866 274 227 C272.5642 234.4659 272.4752 243.4398 273 250 C273.0513 250.6411 274.7744 251.8979 276 252 C279.451 252.2876 284.8395 251.4013 285 251 C285.4466 249.8834 283.5832 238.3038 282 237 C280.4744 235.7437 268 237 268 237 "/>
<path id="20" d="M309 224 C309 224 334.9882 226.4592 339 229 C340.0725 229.6793 340.1418 236.6058 339 243 C337.7854 249.802 336.1141 256.0134 334 257 C329.4174 259.1386 311.7287 258.9491 309 257 C307.1133 255.6524 306.9039 246.9424 306 237 C305.4204 230.6244 305.4232 226.6916 306 224 C306.0729 223.6598 309 223 309 223 "/>
<path id="21" d="M313 236 C313 236 334.7164 237.3582 336 238 C336.0535 238.0267 335.1509 243.067 333 246 C330.2868 249.6998 325 253 325 253 "/>
<path id="22" d="M353 229 C353 229 351.1334 259.7026 353 262 C354.1384 263.4011 372.042 262.2425 379 261 C379.7214 260.8712 381 258.7368 381 257 C381 243.5395 381.4752 228.7312 379 226 C377.0788 223.88 355.0458 224.5488 352 225 C351.916 225.0124 352 230 352 230 "/>
<path id="23" d="M373 233 C373 233 367.7125 232.2602 365 233 C363.7054 233.3531 362.494 234.6826 362 236 C361.4012 237.5968 361.348 240.4023 362 241 C364.4896 243.2821 371.7717 244.5861 374 247 C374.9134 247.9895 374.7018 251.6606 374 254 C373.609 255.3034 371.862 256.9042 371 257 C369.5058 257.166 365.0785 255.4708 365 255 C364.5946 252.5673 365.7859 245.3259 368 239 C368.7012 236.9965 372 235 372 235 "/>
<path id="24" d="M225 279 C225 279 223.0843 280.6927 223 282 C222.2452 293.6987 221.2612 308.0525 223 310 C224.3862 311.5525 243.242 311.2336 248 310 C248.726 309.8118 249.8952 306.3528 250 303 C250.3704 291.1463 250.7588 279.6912 249 278 C247.2439 276.3114 224 278 224 278 "/>
<path id="25" d="M241 286 C241 286 238.7978 283.3852 237 283 C233.1278 282.1702 227.6042 282.5972 227 283 C226.8187 283.1208 227.7595 288.9485 228 289 C229.3005 289.2787 240.8262 285.7394 241 286 C241.6235 286.9353 240 307 240 307 "/>
<path id="26" d="M282 279 C282 279 265.6714 278.8065 265 280 C262.9938 283.5665 262.2512 309.3571 264 311 C266.1144 312.9863 295.0043 312.9384 298 311 C299.2543 310.1884 298.611 293.6846 298 289 C297.9614 288.7037 295.3439 288.6304 295 288 C293.4822 285.2174 293.5502 279.0658 292 278 C289.8512 276.5227 279 277 279 277 "/>
<path id="27" d="M282 289 C282 289 277.4976 288.1675 275 289 C272.7403 289.7532 271.1749 291.0419 270 293 C268.8922 294.8463 268.697 298.6464 269 299 C269.4125 299.4812 274.9779 299.562 276 300 C276.1179 300.0505 275.9624 301.9942 276 302 C277.5874 302.2442 284.4252 302.8578 289 302 C290.2537 301.7649 291.5629 300.3114 292 299 C292.6557 297.0329 292.6557 294.9671 292 293 C291.5629 291.6886 290.5182 290.5839 289 290 C285.064 288.4862 279 288 279 288 "/>
<path id="28" d="M312 279 C312 279 310.144 306.8585 312 309 C313.394 310.6085 334.0871 310.5372 338 309 C338.9513 308.6263 339.6482 303.4524 340 298 C340.6322 288.2014 341.1814 285.0886 340 278 C339.7243 276.346 337.6992 274.2741 336 274 C326.0643 272.3975 311.9045 272.247 309 273 C308.7747 273.0584 308.2602 278.2875 309 281 C309.3531 282.2946 312 284 312 284 "/>
<path id="29" d="M327 281 L328 304 "/>
<path id="30" d="M319 296 C319 296 319.6408 294.0567 320 294 C324.9571 293.2173 338 293 338 293 "/>
<path id="31" d="M354 276 C354 276 380.3114 274.2511 382 276 C383.8114 277.8761 382.6787 294.4798 382 305 C381.9502 305.7723 380.7783 306.9424 380 307 C370.9428 307.6709 358.8887 309.2036 355 307 C352.7238 305.7102 350.9613 298.171 350 290 C349.0773 282.1569 351 273 351 273 "/>
<path id="32" d="M362 293 L376 292 "/>
<path id="33" d="M224 323 C224 323 222.2486 352.6394 224 355 C224.8792 356.1851 246.148 355.3389 247 354 C248.6743 351.3689 247.2357 325.1105 245 322 C243.9908 320.5959 224 322 224 322 "/>
<path id="34" d="M240 328 C240 328 235.9567 329.5918 234 332 C230.1004 336.7995 227 344 227 344 "/>
<path id="35" d="M227 327 L246 342 "/>
<path id="36" d="M267 325 C267 325 265.0606 356.1746 267 358 C269.0643 359.9429 298.9375 359.1875 301 357 C303.0625 354.8125 302.1795 325.1795 300 323 C298.0696 321.0696 268 324 268 324 "/>
<path id="37" d="M297 326 C297 326 286.5947 332.4053 279 340 C274.2533 344.7467 271 352 271 352 "/>
<path id="38" d="M317 320 C317 320 312.0907 356.673 314 359 C315.5006 360.8289 347.3032 361.0462 349 359 C351.3485 356.168 350.711 321.1757 348 318 C346.12 315.7977 314 318 314 318 "/>
<path id="39" d="M320 333 L345 333 "/>
<path id="40" d="M323 345 L345 343 "/>
<path id="41" d="M320 343 L327 342 "/>
<path id="42" d="M358 319 C358 319 355.237 351.6778 357 353 C360.1841 355.3881 398.7233 354.9854 402 352 C404.601 349.6302 404.497 314.3781 402 312 C399.247 309.3781 367.8461 310.5734 360 312 C359.3547 312.1173 358 320 358 320 "/>
<path id="43" d="M364 316 C364 316 362.5792 325.3166 363 327 C363.0783 327.3132 366.998 328.0221 367 328 C367.037 327.5925 364 316 364 316 "/>
<path id="44" d="M373 316 L369 331 "/>
<path id="45" d="M372 318 C372 318 377.9983 330.0007 378 330 C378.0148 329.9937 379 315 379 315 "/>
<path id="46" d="M394 314 C394 314 382.2357 329.1329 370 343 C367.4898 345.8449 367.1327 346.4336 364 348 C359.7616 350.1192 354 351 354 351 "/>
<path id="47" d="M375 342 C375 342 372.4986 344.6732 372 347 C371.2048 350.7112 372 356 372 356 "/>
<path id="48" d="M374 340 L381 357 "/>
<path id="49" d="M370 349 L376 349 "/>
<path id="50" d="M400 338 C400 338 393.1542 337.528 390 339 C387.6494 340.0969 386.1216 342.3082 385 345 C384.1675 346.9981 384.7761 350.9067 385 351 C386.0373 351.4322 393.8352 351.1303 397 350 C397.8781 349.6864 399 346 399 346 "/>
</g>
</g>
</svg>
