<?xml version="1.0" encoding="utf-8"?>
<!DOCTYPE svg PUBLIC "-//W3C//DTD SVG 1.1//EN" "http://www.w3.org/Graphics/SVG/1.1/DTD/svg11.dtd">
<svg viewBox="0 0 800 800" preserveAspectRatio="xMinYMin meet" xmlns="http://www.w3.org/2000/svg" version="1.1">
<g fill="none" stroke="black" stroke-linecap="round" stroke-linejoin="round" stroke-width="1.4641">
<g transform="translate(195.0951,87.52) scale(2.049) translate(-192,-34)">
<path id="0" d="M194 95 C194 95 192.6919 202.044 194 308 C194.1845 322.9418 195.8542 337.8206 197 338 C226.0529 342.5487 368.2494 341.9232 392 339 C392.375 338.9538 393.7871 324.7224 392 314 C391.1422 308.8532 387.978 308.7013 386 303 C379.6772 284.7755 375.7628 283.4451 375 265 C370.4775 155.6384 376.9208 86.3001 375 37 C374.9718 36.2755 370.3012 34.0942 366 34 C305.2713 32.6702 301.3327 32.7248 238 34 C227.5796 34.2098 227.1096 34.5929 217 37 C206.447 39.5126 206.3064 40.2897 196 44 C193.9317 44.7446 192.0286 45.4371 192 46 C191.2602 60.5489 193 103 193 103 "/>
<path id="1" d="M206 60 C206 60 276.1638 61.3251 338 60 C341.7778 59.919 342.1288 57.553 346 57 C351.9709 56.147 358.5437 56.1113 359 57 C361.7399 62.3355 365.2599 93.9359 365 94 C352.0322 97.1987 247.4343 96.1619 209 94 C207.8898 93.9376 205.2091 89.0768 205 85 C204.321 71.759 207 55 207 55 "/>
<path id="2" d="M209 122 C209 122 228.9354 119.4369 231 120 C231.21 120.0573 231.9742 126.3299 231 128 C230.0156 129.6875 227.4324 131.0466 224 132 C219.2276 133.3257 213.3171 133.4122 213 133 C212.4377 132.2691 214 119 214 119 "/>
<path id="3" d="M253 120 C253 120 276.3255 117.5885 279 118 C279.0961 118.0148 279.4693 123.6871 279 124 C277.4356 125.0429 272.4337 126 267 126 C263.8303 126 260 124 260 124 "/>
<path id="4" d="M312 113 C312 113 316.9736 123.9824 317 124 C317.0079 124.0052 316.9096 117.9995 318 117 C320.1563 115.0234 323.9742 113.8376 329 113 C331.9437 112.5094 334.5093 113.0062 336 114 C337.037 114.6914 338.1081 118.9257 338 119 C336.3361 120.1439 320 125 320 125 "/>
<path id="5" d="M216 158 C216 158 214.1629 187.8907 216 190 C217.2927 191.4842 241.1181 190.8819 243 189 C244.7475 187.2525 244.0426 173.4257 243 163 C242.8276 161.2757 241.5066 159.5859 240 159 C234.6534 156.9208 231.4967 155.5809 225 156 C217.8381 156.4621 209 161 209 161 "/>
<path id="6" d="M266 150 C266 150 270.0878 179.0878 274 183 C276.3855 185.3855 298.1654 183.9598 299 183 C299.7161 182.1765 297.7812 170.1801 294 160 C291.7226 153.8685 289.1496 149.3858 286 148 C282.0725 146.2719 271.4393 147.2925 269 149 C267.3325 150.1673 266 162 266 162 "/>
<path id="7" d="M319 146 C319 146 318.0235 153.9205 319 161 C319.9473 167.8679 321.1693 173.9748 323 175 C326.2471 176.8184 343.0106 176.2721 344 175 C345.6356 172.8971 344.835 156.0713 344 148 C343.9286 147.3094 342.2484 146.0657 341 146 C334.589 145.6626 325 147 325 147 "/>
<path id="8" d="M217 231 C217 231 216.0428 242.4712 217 253 C217.4904 258.3949 218.965 263.7412 220 264 C226.6153 265.6538 252.4819 264.3432 257 263 C257.3601 262.8929 258.3568 257.0704 257 253 C253.3819 242.1457 250.8862 234.0437 246 230 C242.937 227.4651 235.4544 228.1055 228 229 C224.8815 229.3742 221 233 221 233 "/>
<path id="9" d="M271 233 C271 233 274.4869 254.7434 277 256 C282.0262 258.5131 311.4281 255.3009 313 254 C313.4678 253.6128 310.7368 239.4792 306 232 C303.2045 227.5861 298.6304 224.5975 294 224 C287.4326 223.1526 280.4904 224.5431 275 228 C270.8704 230.6001 267 241 267 241 "/>
<path id="10" d="M323 228 C323 228 326.9728 249.2001 330 251 C334.3053 253.5599 357.3326 251.9561 360 250 C361.3366 249.0198 361.2041 229.7902 360 229 C357.2041 227.1652 328 229 328 229 "/>
<path id="11" d="M231 310 C231 310 232.7311 325.6096 234 326 C241.8476 328.4146 276.9655 326.7389 283 326 C283.0905 325.9889 283.9018 322.3448 283 320 C279.4158 310.681 277.2082 302.2148 273 300 C267.2596 296.9788 256.7966 297.9356 245 300 C239.4282 300.9751 234.6296 303.8661 233 307 C230.7205 311.3837 232 325 232 325 "/>
<path id="12" d="M302 288 C302 288 301.5432 301.7098 303 313 C303.3703 315.8697 305.3729 318.9759 306 319 C310.4267 319.1703 317.6362 315.4952 329 314 C336.2051 313.052 342.2495 314.4668 344 314 C344.1245 313.9668 344.4861 311.7501 344 310 C342.1297 303.2668 342.4274 301.386 339 296 C336.2617 291.6969 334.7293 290.9869 330 288 C325.7844 285.3375 324.8238 285.072 320 284 C316.456 283.2124 314.7376 282.8727 312 284 C307.9338 285.6743 303 291 303 291 "/>
<path id="13" d="M346 290 C346 290 349.7585 311.1187 353 314 C355.2881 316.0339 363.8648 315.218 373 314 C377.8112 313.3585 382.4664 311.0672 383 310 C383.504 308.9921 382.246 304.2878 380 300 C377.0516 294.3712 374.4393 289.7115 372 289 C368.7718 288.0584 356 293 356 293 "/>
</g>
</g>
</svg>
