<?xml version="1.0" encoding="utf-8"?>
<!DOCTYPE svg PUBLIC "-//W3C//DTD SVG 1.1//EN" "http://www.w3.org/Graphics/SVG/1.1/DTD/svg11.dtd">
<svg viewBox="0 0 800 800" preserveAspectRatio="xMinYMin meet" xmlns="http://www.w3.org/2000/svg" version="1.1">
<g fill="none" stroke="black" stroke-linecap="round" stroke-linejoin="round" stroke-width="1.0081">
<g transform="translate(144.064,87.52) scale(2.976) translate(-191,-117.9167)">
<path id="0" d="M191 117.9167 C191 117.9167 192.54 132.05 194 136.9167 C194.1394 137.3813 197 137.8582 197 137.9167 C197 138.1504 194.0676 140.2502 194 141.9167 C192.8526 170.2202 192.278 177.4774 194 211.9167 C194.7441 226.7994 198.2846 227.0359 199 241.9167 C200.7507 278.3308 199 315.9167 199 315.9167 "/>
<path id="1" d="M191 119.9167 C191 119.9167 255.3959 119.2646 319 120.9167 C331.9557 121.2532 339.526 120.3747 345 123.9167 C348.9759 126.4893 351.354 133.9815 353 142.9167 C354.5127 151.1283 351.2096 152.6949 352 161.9167 C354.1564 187.0745 356.8108 187.467 359 212.9167 C360.7855 233.673 358.6214 239.407 360 254.9167 C360.107 256.1204 362.9456 256.7744 363 257.9167 C364.0384 279.7238 364.0092 302.2736 363 317.9167 C362.962 318.5054 361.0077 319.5624 359 319.9167 C336.7531 323.8426 335.4074 325.498 312 326.9167 C270.0162 329.4611 268.5707 329.4147 227 327.9167 C214.1907 327.4551 205.0281 324.9307 201 322.9167 C200.4347 322.634 201 314.9167 201 314.9167 "/>
<path id="2" d="M223 138.9167 L222 168.9167 "/>
<path id="3" d="M222 141.9167 C222 141.9167 267.4445 142.4414 312 144.9167 C320.977 145.4154 330 147.9167 330 147.9167 "/>
<path id="4" d="M223 169.9167 C223 169.9167 229.6658 173.3659 236 173.9167 C251.66 175.2784 252.8981 172.4529 269 173.9167 C285.368 175.4047 285.6324 178.3579 302 179.9167 C316.6264 181.3097 326.2229 181.9556 332 179.9167 C333.5859 179.357 335.4466 173.6352 336 167.9167 C336.8445 159.19 335 148.9167 335 148.9167 "/>
<path id="5" d="M228 222.9167 C228 222.9167 228.0357 234.6631 229 235.9167 C229.4848 236.5469 233.6353 236.3761 238 235.9167 C242.9517 235.3954 246.0772 235.1403 248 233.9167 C248.7133 233.4628 249.4962 230.4054 249 228.9167 C248.0784 226.1519 246.1253 222.9793 244 221.9167 C241.7497 220.7915 235 221.9167 235 221.9167 "/>
<path id="6" d="M263 219.9167 C263 219.9167 263.9862 228.8751 266 234.9167 C266.5035 236.4271 268.0819 237.9167 269 237.9167 C273.8965 237.9167 280.0005 236.3871 285 234.9167 C285.4703 234.7783 286.1635 233.2436 286 232.9167 C284.5289 229.9745 281.9347 224.0905 279 222.9167 C274.1978 220.9958 261 222.9167 261 222.9167 "/>
<path id="7" d="M306 221.9167 C306 221.9167 307.5967 234.8436 309 235.9167 C310.3551 236.9529 322.0846 235.8321 323 234.9167 C323.6713 234.2453 322.8685 223.4129 322 222.9167 C319.7894 221.6535 302 222.9167 302 222.9167 "/>
<path id="8" d="M230 257.9167 C230 257.9167 230.0366 272.3302 231 272.9167 C233.0344 274.155 250.4171 273.7462 253 271.9167 C254.5166 270.8424 255.6316 256.422 255 255.9167 C253.7133 254.8873 233 255.9167 233 255.9167 "/>
<path id="9" d="M272 258.9167 C272 258.9167 271.4091 271.5303 273 273.9167 C274.0493 275.4907 278.5965 276.1062 284 276.9167 C288.2473 277.5538 292.7296 277.3974 293 276.9167 C293.8546 275.3974 294.1462 261.8137 293 260.9167 C290.7515 259.1569 270 258.9167 270 258.9167 "/>
<path id="10" d="M312 259.9167 C312 259.9167 314.7649 261.663 315 262.9167 C315.8578 267.4914 314.1897 275.1643 315 275.9167 C315.9397 276.7893 322.3775 276.3062 329 275.9167 C330.4469 275.8316 332 275.0708 332 274.9167 C332 272.7588 330.5374 261.8525 329 260.9167 C326.3314 259.2923 309 260.9167 309 260.9167 "/>
<path id="11" d="M243 299.9167 C243 299.9167 242.1962 314.3244 243 314.9167 C244.3281 315.8953 253.31 314.7443 262 313.9167 C262.9535 313.8259 263.9199 313.277 264 312.9167 C264.4435 310.9208 264.4777 308.7384 264 304.9167 C263.5074 300.9755 262.632 297.0815 262 296.9167 C258.8333 296.0906 241 298.9167 241 298.9167 "/>
<path id="12" d="M282 295.9167 C282 295.9167 283.1775 310.5696 285 311.9167 C287.5493 313.801 304.4914 313.4253 305 312.9167 C305.2944 312.6222 302.6693 299.0057 300 296.9167 C297.0194 294.584 282 294.9167 282 294.9167 "/>
<path id="13" d="M327 294.9167 C327 294.9167 326.3305 307.1863 327 307.9167 C327.4678 308.427 336.9476 307.7777 338 306.9167 C338.5829 306.4398 338.582 302.4085 338 298.9167 C337.6848 297.0252 336.7496 295.1166 336 294.9167 C332.8225 294.0693 323 294.9167 323 294.9167 "/>
</g>
</g>
</svg>
