<?xml version="1.0" encoding="utf-8"?>
<!DOCTYPE svg PUBLIC "-//W3C//DTD SVG 1.1//EN" "http://www.w3.org/Graphics/SVG/1.1/DTD/svg11.dtd">
<svg viewBox="0 0 800 800" preserveAspectRatio="xMinYMin meet" xmlns="http://www.w3.org/2000/svg" version="1.1">
<g fill="none" stroke="black" stroke-linecap="round" stroke-linejoin="round" stroke-width="1.4641">
<g transform="translate(87.52,125.4274) scale(2.049) translate(-169,-89.1333)">
<path id="0" d="M169 187.1333 L169 355.1333 "/>
<path id="1" d="M170 187.1333 C170 187.1333 187.095 188.4317 203 187.1333 C210.8689 186.491 211.1278 183.8179 219 183.1333 C233.4462 181.8771 235.6346 184.2471 249 183.1333 C251.7845 182.9013 252.2968 180.1848 255 180.1333 C299.1739 179.2919 306.3319 182.3878 354 181.1333 C361.2751 180.9419 361.8727 177.2584 369 177.1333 C388.8385 176.7853 411 180.1333 411 180.1333 "/>
<path id="2" d="M413 181.1333 L414 351.1333 "/>
<path id="3" d="M170 357.1333 C170 357.1333 203.6662 356.9206 216 356.1333 C216.3019 356.1141 216.7364 354.1358 217 354.1333 C244.1611 353.8771 269.7509 356.7166 322 355.1333 C368.3967 353.7274 415 348.1333 415 348.1333 "/>
<path id="4" d="M182 198.1333 C182 198.1333 182.8406 205.9301 182 210.1333 C181.7478 211.3943 179.0246 212.0169 179 213.1333 C177.9318 261.5586 179 346.1333 179 346.1333 "/>
<path id="5" d="M181 348.1333 C181 348.1333 192.7223 349.0731 204 348.1333 C216.4218 347.0982 216.5571 344.6518 229 344.1333 C299.7641 341.1848 302.1334 344.19 372 341.1333 C380.3836 340.7665 380.6115 338.092 389 337.1333 C397.6494 336.1448 407 337.1333 407 337.1333 "/>
<path id="6" d="M407 337.1333 C407 337.1333 406.9207 319.2676 405 303.1333 C404.5312 299.1951 402 298.7583 402 295.1333 C402 278.821 403.9222 277.0962 405 259.1333 C405.417 252.1825 405.9024 251.4499 405 245.1333 C404.5212 241.7817 402.059 241.3213 402 238.1333 C401.607 216.9136 404 191.1333 404 191.1333 "/>
<path id="7" d="M184 200.1333 C184 200.1333 210.3568 200.0357 229 198.1333 C230.7759 197.9521 231.0543 195.5657 233 195.1333 C242.8675 192.9406 244.5444 192.4625 256 192.1333 C330.9561 189.9794 407 190.1333 407 190.1333 "/>
<path id="8" d="M407 190.1333 L409 184.1333 "/>
<path id="9" d="M170 187.1333 C170 187.1333 172.0458 194.1792 174 196.1333 C175.0522 197.1856 180 197.1333 180 197.1333 "/>
<path id="10" d="M180 348.1333 L169 356.1333 "/>
<path id="11" d="M408 337.1333 L410 345.1333 "/>
<path id="12" d="M180 186.1333 C180 186.1333 184.9014 178.5324 190 175.1333 C193.824 172.584 196.3197 174.4735 201 172.1333 C206.6163 169.3252 206.1875 166.4583 212 164.1333 C232.3029 156.0122 235.6719 157.9518 256 150.1333 C260.2429 148.5014 259.9472 145.5309 264 144.1333 C273.0078 141.0272 275.2008 143.3238 285 140.1333 C296.0969 136.5204 296.0233 132.5908 307 130.1333 C327.8854 125.4575 352 125.1333 352 125.1333 "/>
<path id="13" d="M402 179.1333 C402 179.1333 407.9697 170.1535 414 166.1333 C418.0851 163.41 421.6972 165.5238 426 163.1333 C429.1134 161.4037 428.5838 158.8378 432 156.1333 C440.1398 149.6894 450 144.1333 450 144.1333 "/>
<path id="14" d="M352 124.1333 C352 124.1333 376.5675 122.0122 396 123.1333 C399.6399 123.3433 399.9932 126.0881 404 127.1333 C410.8771 128.9273 412.2068 129.6018 419 129.1333 C425.5252 128.6833 426.3186 125.406 433 125.1333 C449.4726 124.461 467.6458 126.7968 468 127.1333 C468.011 127.1438 460.177 138.2045 453 144.1333 C450.6148 146.1037 445 146.1333 445 146.1333 "/>
<path id="15" d="M470 130.1333 C470 130.1333 466.2225 169.4797 467 202.1333 C467.131 207.6351 470.9629 208.2069 472 214.1333 C474.2837 227.183 473.8115 228.1829 474 242.1333 C474.3093 265.023 474.2478 267.3374 473 288.1333 C472.8884 289.9935 471 292.1333 471 292.1333 "/>
<path id="16" d="M473 292.1333 C473 292.1333 461.9008 301.5637 453 312.1333 C446.21 320.1965 448.045 322.8871 441 330.1333 C431.4154 339.9918 428.9173 340.4508 418 348.1333 C416.5602 349.1465 414.2531 349.1966 414 349.1333 C413.9662 349.1249 414 347.1333 414 347.1333 "/>
<path id="17" d="M322 153.1333 L323 114.1333 "/>
<path id="18" d="M320 154.1333 C320 154.1333 346.9561 154.1004 347 154.1333 C347.0134 154.1434 338.9761 161.6732 332 163.1333 C320.4308 165.5548 307.1723 164.153 304 163.1333 C303.6723 163.028 303.5039 154.3814 304 154.1333 C306.2599 153.0034 324 153.1333 324 153.1333 "/>
<path id="19" d="M329 155.1333 C329 155.1333 327.9279 138.4997 329 123.1333 C329.3755 117.7506 332 112.1333 332 112.1333 "/>
<path id="20" d="M311 113.1333 L370 111.1333 "/>
<path id="21" d="M288 114.1333 L318 114.1333 "/>
<path id="22" d="M277 118.1333 L307 94.1333 "/>
<path id="23" d="M306 120.1333 L325 102.1333 "/>
<path id="24" d="M329 121.1333 C329 121.1333 328.4506 118.7612 329 118.1333 C338.7978 106.9359 357 89.1333 357 89.1333 "/>
<path id="25" d="M358 118.1333 C358 118.1333 358.523 114.7446 360 113.1333 C363.2963 109.5374 365.9848 110.01 369 106.1333 C372.2066 102.0106 374 95.1333 374 95.1333 "/>
<path id="26" d="M301 126.1333 L312 116.1333 "/>
<path id="27" d="M357 126.1333 L359 115.1333 "/>
<path id="28" d="M281 117.1333 L265 127.1333 "/>
<path id="29" d="M375 97.1333 C375 97.1333 373.9933 104.2692 371 109.1333 C366.5737 116.3261 363.3963 116.2248 359 123.1333 C357.1159 126.0941 357 131.1333 357 131.1333 "/>
<path id="30" d="M329 97.1333 L325 105.1333 "/>
</g>
</g>
</svg>
