<?xml version="1.0" encoding="utf-8"?>
<!DOCTYPE svg PUBLIC "-//W3C//DTD SVG 1.1//EN" "http://www.w3.org/Graphics/SVG/1.1/DTD/svg11.dtd">
<svg viewBox="0 0 800 800" preserveAspectRatio="xMinYMin meet" xmlns="http://www.w3.org/2000/svg" version="1.1">
<g fill="none" stroke="black" stroke-linecap="round" stroke-linejoin="round" stroke-width="1.2913">
<g transform="translate(160.703,87.52) scale(2.3233) translate(-183,-19)">
<path id="0" d="M369 124 L369 124 "/>
<path id="1" d="M183 120 C183 120 181.7702 146.1734 183 172 C184.2591 198.4416 186.651 198.5589 188 225 C189.1399 247.3425 188 270 188 270 "/>
<path id="2" d="M183 117 C183 117 272.9137 118.7659 359 117 C368.3335 116.8085 369.2119 115.8247 378 113 C382.5952 111.523 387 108 387 108 "/>
<path id="3" d="M388 111 L389 272 "/>
<path id="4" d="M185 269 C185 269 208.028 266.4594 231 266 C282.8691 264.9626 285.3321 264.302 335 266 C341.2738 266.2145 341.6759 269.5227 348 270 C367.017 271.4352 388 270 388 270 "/>
<path id="5" d="M206 139 C206 139 272.8108 140.7004 337 139 C346.8518 138.739 347.2612 135.8593 357 135 C363.6567 134.4126 368.7903 133.9825 371 136 C375.0393 139.688 377.0303 146.2 380 156 C381.7383 161.7362 380.9189 162.5139 381 169 C381.4175 202.3962 384.3503 208.863 381 236 C380.2382 242.1705 371 250 371 250 "/>
<path id="6" d="M207 139 C207 139 199.8085 147.5217 199 155 C196.2196 180.7186 198.1833 184.4166 199 213 C199.1698 218.942 199.1137 219.5124 201 225 C204.4335 234.9884 210 245 210 245 "/>
<path id="7" d="M211 245 L373 248 "/>
<path id="8" d="M214 268 C214 268 214.666 283.333 216 284 C220.3353 286.1677 244.839 286.7242 248 285 C249.142 284.3771 249 266 249 266 "/>
<path id="9" d="M332 268 C332 268 332.4703 287.1259 334 288 C337.7592 290.1481 362.8279 289.5952 367 288 C367.7548 287.7114 368.3215 280.1445 368 275 C367.9223 273.7574 366 272 366 272 "/>
<path id="10" d="M238 115 C238 115 238.7398 108.8136 237 104 C224.3691 69.0545 208 32 208 32 "/>
<path id="11" d="M344 116 C344 116 347.9266 111.9371 348 109 C348.3405 95.3795 343.5939 88.3735 345 76 C345.5127 71.488 351.946 69.8182 353 65 C354.7179 57.1468 349.436 49.1281 352 44 C355.0643 37.8714 366.3495 35.1191 371 29 C372.5797 26.9215 371 19 371 19 "/>
</g>
</g>
</svg>
