<?xml version="1.0" encoding="utf-8"?>
<!DOCTYPE svg PUBLIC "-//W3C//DTD SVG 1.1//EN" "http://www.w3.org/Graphics/SVG/1.1/DTD/svg11.dtd">
<svg viewBox="0 0 800 800" preserveAspectRatio="xMinYMin meet" xmlns="http://www.w3.org/2000/svg" version="1.1">
<g fill="none" stroke="black" stroke-linecap="round" stroke-linejoin="round" stroke-width="1.3537">
<g transform="translate(87.52,135.1677) scale(2.2162) translate(-180,-118)">
<path id="0" d="M185 118 C185 118 182.2884 127.5794 182 137 C180.8067 175.9816 182.8807 177.6908 182 216 C181.9103 219.9017 180.0821 220.0998 180 224 C179.1117 266.1922 178.8047 267.9693 180 311 C180.2897 321.4279 182.9994 331.9989 183 332 C183.0004 332.0006 184 318 184 318 "/>
<path id="1" d="M189 120 C189 120 218.4224 117.1408 246 119 C261.7291 120.0604 261.9363 123.5287 278 126 C300.7133 129.4943 301.0839 130.3773 324 131 C392.5459 132.8627 462 131 462 131 "/>
<path id="2" d="M459 134 C459 134 453.5742 150.1688 453 166 C450.13 245.1307 461.7522 294.0633 452 327 C449.9808 333.8196 425.782 339.1783 400 345 C380.8341 349.3278 379.4676 347.5765 359 348 C307.1607 349.0725 306.3472 345.2493 255 348 C223.1637 349.7055 201.1763 359.7503 191 357 C188.0517 356.2031 183.2114 339.6891 181 328 C180.4679 325.1877 184 320 184 320 "/>
<path id="3" d="M337 330 L339 330 "/>
<path id="4" d="M354 332 L357 331 "/>
<path id="5" d="M397 333 L412 331 "/>
<path id="6" d="M403 334 C403 334 409 334 409 334 C409 334 405.1033 334.1377 405 334 C404.8881 333.8508 405.5058 330.3954 406 330 C406.4707 329.6234 409.68 329.76 410 330 C410.18 330.135 410.3118 332.5842 410 333 C409.6622 333.4504 407.0584 334.0584 407 334 C406.8831 333.8831 406.8 330.4 407 330 C407.05 329.9 409 330 409 330 "/>
<path id="7" d="M222 155 C222 155 230.0663 157.5174 235 161 C237.3574 162.664 238.7648 164.4127 239 167 C239.9946 177.9408 239.72 180.8135 238 194 C235.2712 214.921 231.7345 215.1863 230 236 C227.8048 262.3423 230 290 230 290 "/>
<path id="8" d="M419 157 C419 157 404.9791 164.1655 404 169 C399.6243 190.6049 402.3277 202.72 403 236 C403.3218 251.9298 402.0724 253.7626 406 268 C409.5397 280.8316 418.5682 292.9795 419 294 C419.0116 294.0274 417 294 417 294 "/>
<path id="9" d="M235 293 C235 293 221.0643 300.9276 221 301 C220.9864 301.0153 224.4092 302.5027 227 302 C255.4317 296.4834 257.8817 291.4848 288 288 C316.8583 284.661 318.4459 286.3938 348 288 C363.8961 288.8639 364.0956 291.6964 380 293 C394.2311 294.1665 395.2588 294.3087 409 293 C415.3404 292.3962 420.973 289.8403 422 289 C422.132 288.892 420 284 420 284 "/>
<path id="10" d="M235 163 C235 163 250.2883 169.8347 265 171 C299.0975 173.7008 300.6935 172.5024 336 171 C370.9362 169.5134 373.0137 169.7123 406 165 C412.9165 164.0119 420 159 420 159 "/>
</g>
</g>
</svg>
