<?xml version="1.0" encoding="utf-8"?>
<!DOCTYPE svg PUBLIC "-//W3C//DTD SVG 1.1//EN" "http://www.w3.org/Graphics/SVG/1.1/DTD/svg11.dtd">
<svg viewBox="0 0 800 800" preserveAspectRatio="xMinYMin meet" xmlns="http://www.w3.org/2000/svg" version="1.1">
<g fill="none" stroke="black" stroke-linecap="round" stroke-linejoin="round" stroke-width="1.9873">
<g transform="translate(161.4887,87.52) scale(1.5096) translate(-136,-0.13333)">
<path id="0" d="M138 121.1333 C138 121.1333 135.3734 282.9445 136 358.1333 C136.008 359.0957 138.1269 360.739 140 361.1333 C146.1514 362.4284 147.5087 362.0447 155 362.1333 C231.8563 363.0429 232.0867 361.3853 309 363.1333 C363.9867 364.383 364.3625 366.9369 419 368.1333 C432.376 368.4262 445.2991 367.8622 446 366.1333 C449.9639 356.3557 448.7134 330.1029 449 294.1333 C449.7123 204.7428 458.0907 121.0441 448 115.1333 C418.5269 97.8692 186.8914 112.0711 140 113.1333 C139.8167 113.1375 139 122.1333 139 122.1333 "/>
<path id="1" d="M165 116.1333 C165 116.1333 167.488 183.9584 165 251.1333 C163.0035 305.0391 156 359.1333 156 359.1333 "/>
<path id="2" d="M424 109.1333 C424 109.1333 430.098 143.2432 431 177.1333 C433.5796 274.0528 431 372.1333 431 372.1333 "/>
<path id="3" d="M166 119.1333 C166 119.1333 222.1028 123.7 278 124.1333 C350.8292 124.6979 424 121.1333 424 121.1333 "/>
<path id="4" d="M159 354.1333 C159 354.1333 184.0509 351.9492 209 352.1333 C319.3225 352.9475 430 356.1333 430 356.1333 "/>
<path id="5" d="M137 359.1333 C137 359.1333 135.6819 405.8422 137 406.1333 C168.838 413.1658 261.6117 411.3691 386 414.1333 C418.9358 414.8652 447.3377 416.8336 452 413.1333 C454.5051 411.1451 449 364.1333 449 364.1333 "/>
<path id="6" d="M199 380.1333 C199 380.1333 194.7312 379.4833 194 380.1333 C192.375 381.5778 190.8444 384.3334 190 388.1333 C189.05 392.4083 189.375 397.5083 190 398.1333 C190.625 398.7583 199.3103 398.938 200 398.1333 C201.2645 396.6581 202.2213 387.6733 202 384.1333 C201.9651 383.5752 199 382.1333 199 382.1333 "/>
<path id="7" d="M248 388.1333 C248 388.1333 242.0092 388.1195 242 388.1333 C241.9992 388.1345 245.9106 391.111 246 391.1333 C246.0094 391.1357 246 389.1333 246 389.1333 "/>
<path id="8" d="M260 389.1333 C260 389.1333 255.0173 389.0727 255 389.1333 C254.9255 389.3941 257.9961 396.132 258 396.1333 C258.0015 396.1338 258 390.1333 258 390.1333 "/>
<path id="9" d="M276 390.1333 C276 390.1333 272.6369 389.7512 272 390.1333 C271.5541 390.4008 270.9766 393.1216 271 393.1333 C271.3273 393.297 277.6727 393.297 278 393.1333 C278.0234 393.1216 277 390.1333 277 390.1333 "/>
<path id="10" d="M291 390.1333 C291 390.1333 288.9993 391.1326 289 391.1333 C289.0021 391.1354 292 391.1333 292 391.1333 "/>
<path id="11" d="M306 388.1333 C306 388.1333 303.075 387.9833 303 388.1333 C302.7 388.7333 302.7 393.5333 303 394.1333 C303.075 394.2833 305.957 394.2194 306 394.1333 C306.1004 393.9325 305 390.1333 305 390.1333 "/>
<path id="12" d="M330 390.1333 C330 390.1333 325.3125 389.8208 325 390.1333 C324.6875 390.4458 324.9236 394.9805 325 395.1333 C325 395.1333 327 394.1333 327 394.1333 "/>
<path id="13" d="M226 108.1333 C226 108.1333 205.4595 68.6947 189 31.1333 C186.7263 25.9447 188.9198 24.4661 187 19.1333 C184.6576 12.6267 183.9723 11.939 180 6.1333 C177.7435 2.8354 174.0046 0.11496 174 0.13333 C173.9824 0.20374 177 18.1333 177 18.1333 "/>
<path id="14" d="M229 107.1333 C229 107.1333 232.9186 94.1418 235 81.1333 C236.8775 69.3987 234.0012 67.8434 237 57.1333 C240.5849 44.3301 242.2239 42.9914 249 31.1333 C251.7988 26.2354 254.8671 26.7546 257 22.1333 C260.167 15.2714 261 5.1333 261 5.1333 "/>
</g>
</g>
</svg>
