<?xml version="1.0" encoding="utf-8"?>
<!DOCTYPE svg PUBLIC "-//W3C//DTD SVG 1.1//EN" "http://www.w3.org/Graphics/SVG/1.1/DTD/svg11.dtd">
<svg viewBox="0 0 800 800" preserveAspectRatio="xMinYMin meet" xmlns="http://www.w3.org/2000/svg" version="1.1">
<g fill="none" stroke="black" stroke-linecap="round" stroke-linejoin="round" stroke-width="0.87846">
<g transform="translate(87.52,140.4538) scale(3.4151) translate(-178.3611,-101.6667)">
<path id="0" d="M182.3611 101.6667 C182.3611 101.6667 179.1082 142.9515 178.3611 183.6667 C178.1157 197.0427 180.3611 210.6667 180.3611 210.6667 "/>
<path id="1" d="M185.3611 103.6667 C185.3611 103.6667 225.9934 102.674 266.3611 103.6667 C286.8309 104.17 286.8966 105.5083 307.3611 106.6667 C313.326 107.0043 314.1233 107.5396 319.3611 106.6667 C322.1982 106.1938 322.5806 103.8862 325.3611 103.6667 C339.6276 102.5404 351.8351 101.772 357.3611 103.6667 C358.5897 104.0879 360.3611 109.893 360.3611 115.6667 C360.3611 160.8936 357.3611 209.6667 357.3611 209.6667 "/>
<path id="2" d="M180.3611 212.6667 C180.3611 212.6667 214.8989 214.6667 249.3611 214.6667 C305.2997 214.6667 360.9179 212.6829 361.3611 212.6667 C361.3727 212.6662 358.3611 210.6667 358.3611 210.6667 "/>
<path id="3" d="M180.3611 201.6667 C180.3611 201.6667 272.0525 203.1173 351.3611 202.6667 C353.6854 202.6535 356.3611 200.6667 356.3611 200.6667 "/>
<path id="4" d="M186.3611 104.6667 C186.3611 104.6667 187.2793 118.288 186.3611 131.6667 C183.7944 169.0676 179.3611 206.6667 179.3611 206.6667 "/>
<path id="5" d="M352.3611 103.6667 C352.3611 103.6667 347.8105 167.7246 349.3611 199.6667 C349.4806 202.1287 355.1136 203.8573 357.3611 206.6667 C357.8643 207.2956 357.3611 209.6667 357.3611 209.6667 "/>
<path id="6" d="M180.3611 109.6667 C180.3611 109.6667 212.3927 112.7908 244.3611 113.6667 C285.2506 114.7869 285.4003 114.0531 326.3611 113.6667 C338.3544 113.5535 339.0782 114.2785 350.3611 112.6667 C355.7689 111.8941 361.3611 108.6667 361.3611 108.6667 "/>
<path id="7" d="M357.3611 106.6667 C357.3611 106.6667 355.3845 107.9098 355.3611 108.6667 C354.2822 143.5518 354.3611 203.6667 354.3611 203.6667 "/>
<path id="8" d="M259.3611 217.6667 C259.3611 217.6667 258.1865 239.8508 257.3611 241.6667 C257.3069 241.786 249.3611 239.6667 249.3611 239.6667 "/>
<path id="9" d="M284.3611 217.6667 C284.3611 217.6667 284.7551 238.9135 286.3611 241.6667 C286.8078 242.4325 298.3611 241.6667 298.3611 241.6667 "/>
<path id="10" d="M251.3611 240.6667 C251.3611 240.6667 223.1043 237.6667 208.3611 237.6667 C207.3325 237.6667 205.7521 239.3633 205.3611 240.6667 C204.6593 243.0061 205.134 247.6158 205.3611 247.6667 C213.9528 249.5924 234.4379 252.196 263.3611 253.6667 C293.1251 255.1801 294.0958 254.5149 323.3611 253.6667 C327.7792 253.5386 329.7764 253.0765 332.3611 251.6667 C333.4323 251.0824 334.3611 249.1755 334.3611 247.6667 C334.3611 245.0262 332.9737 240.762 332.3611 240.6667 C323.8335 239.3402 289.3611 240.6667 289.3611 240.6667 "/>
<path id="11" d="M325.3611 106.6667 L324.3611 204.6667 "/>
<path id="12" d="M335.3611 128.6667 C335.3611 128.6667 339.1111 128.9167 339.3611 128.6667 C339.6111 128.4167 339.6111 124.9167 339.3611 124.6667 C339.1111 124.4167 335.998 124.2845 335.3611 124.6667 C334.9153 124.9342 334.3611 127.6667 334.3611 127.6667 "/>
<path id="13" d="M331.3611 137.6667 C331.3611 137.6667 331.1957 140.5674 331.3611 140.6667 C331.8207 140.9424 335.9016 140.9424 336.3611 140.6667 C336.5266 140.5674 336.6506 137.9562 336.3611 137.6667 C335.8786 137.1842 332.3611 136.6667 332.3611 136.6667 "/>
<path id="14" d="M339.3611 137.6667 C339.3611 137.6667 339.2424 141.6271 339.3611 141.6667 C340.1327 141.9239 347.7675 140.9635 348.3611 140.6667 C348.3924 140.6511 347.7646 137.818 347.3611 137.6667 C346.0321 137.1683 340.3611 137.6667 340.3611 137.6667 "/>
<path id="15" d="M330.3611 155.6667 C330.3611 155.6667 330.0486 160.3542 330.3611 160.6667 C330.6736 160.9792 334.98 160.9715 335.3611 160.6667 C335.605 160.4715 335.7433 157.3036 335.3611 156.6667 C335.0936 156.2208 332.3611 155.6667 332.3611 155.6667 "/>
<path id="16" d="M339.3611 155.6667 C339.3611 155.6667 339.0537 160.4105 339.3611 160.6667 C339.8037 161.0355 344.8419 161.0128 345.3611 160.6667 C345.5919 160.5128 345.7377 157.1374 345.3611 156.6667 C344.9657 156.1724 341.3611 155.6667 341.3611 155.6667 "/>
<path id="17" d="M327.3611 189.6667 L357.3611 189.6667 "/>
</g>
</g>
</svg>
