<?xml version="1.0" encoding="utf-8"?>
<!DOCTYPE svg PUBLIC "-//W3C//DTD SVG 1.1//EN" "http://www.w3.org/Graphics/SVG/1.1/DTD/svg11.dtd">
<svg viewBox="0 0 800 800" preserveAspectRatio="xMinYMin meet" xmlns="http://www.w3.org/2000/svg" version="1.1">
<g fill="none" stroke="black" stroke-linecap="round" stroke-linejoin="round" stroke-width="0.78245">
<g transform="translate(87.52,99.0223) scale(3.8341) translate(-171,-137)">
<path id="0" d="M171 140 C171 140 251.75 142.2711 317 141 C320.6107 140.9297 325 137 325 137 "/>
<path id="1" d="M171 140 C171 140 173 172.5667 173 205 C173 234.9385 171 265 171 265 "/>
<path id="2" d="M171 265 C171 265 180.6024 261.8543 190 261 C202.133 259.897 208.4934 261.5005 215 261 C215.3003 260.9769 215.7453 259 216 259 C239.1779 259 261.5075 260.1948 307 261 C317.9939 261.1946 323.2835 261.4971 329 261 C329.305 260.9735 330 259 330 259 "/>
<path id="3" d="M323 137 C323 137 326.1484 137.1484 327 138 C328.5329 139.5329 329.8376 141.2387 330 144 C331.1834 164.1177 329.1126 166.5923 330 189 C331.1075 216.964 333.3381 225.804 334 245 C334.0228 245.6603 332.0516 246.278 332 247 C331.7129 251.019 333.7246 255.1357 333 259 C332.7086 260.5539 329 263 329 263 "/>
<path id="4" d="M231 258 C231 258 231.1224 270.3418 232 271 C233.1634 271.8725 245.0379 270.654 247 270 C247.1706 269.9431 247.4625 266.555 247 266 C246.287 265.1444 243.0998 265.0998 242 264 C241.2144 263.2144 241 260 241 260 "/>
<path id="5" d="M229 271 C229 271 261.3851 269.515 266 272 C267.5698 272.8453 268.5896 291.7553 268 292 C262.7765 294.1682 232.3796 294.6569 213 294 C211.541 293.9505 209.3318 291.5484 209 290 C208.3315 286.8804 208.3491 282.8065 210 280 C211.9169 276.7413 214.9273 274.1879 219 273 C224.5327 271.3863 234 273 234 273 "/>
<path id="6" d="M190 159 C190 159 217.4741 159.6245 244 162 C250.4856 162.5808 250.584 164.3791 257 165 C265.6896 165.8409 266.6052 166.1193 275 165 C280.8453 164.2206 281.3028 161.633 287 161 C293.8163 160.2426 298.0521 160.3377 302 162 C303.7786 162.7489 305.2884 165.5307 306 169 C308.9866 183.5596 308.8583 185.0161 310 201 C311.3463 219.8482 313.6298 236.3702 311 239 C307.6595 242.3405 289.4507 242.2666 268 243 C231.2019 244.2581 199.5635 244.097 194 243 C193.982 242.9965 196.7002 235.8962 197 229 C198.1671 202.1578 197.5136 188.3808 197 174 C196.99 173.7199 195.0207 173.2697 195 173 C194.7857 170.2135 196.1037 162.2438 196 161 C195.9986 160.9826 194 161 194 161 "/>
<path id="7" d="M240 168 C240 168 237.2976 176.3809 238 182 C238.5428 186.342 240.0791 187.9108 243 192 C244.6295 194.2813 245.672 195.4457 248 196 C254.3509 197.5121 261.4507 198.2746 264 197 C265.5625 196.2188 268.9014 188.0109 268 186 C265.4915 180.4041 257.5813 172.1438 251 168 C248.8234 166.6296 241 169 241 169 "/>
<path id="8" d="M243 195 C243 195 236.2921 199.1985 234 202 C233.3617 202.7802 234.5514 205.0351 234 206 C233.2714 207.2751 230.2675 207.9299 230 209 C229.4148 211.3409 229.4519 215.9359 231 218 C233.4214 221.2285 236.9188 223.8885 242 225 C250.5151 226.8627 255.4076 225.6602 263 225 C263.786 224.9317 264.3458 224.1215 265 223 C267.6685 218.4255 268.6825 217.7431 270 213 C270.9255 209.6682 271.1421 207.1415 270 205 C268.3915 201.9841 262 198 262 198 "/>
<path id="9" d="M232 223 C232 223 228.7532 225.7403 228 228 C227.1675 230.4976 227.0002 233.3753 228 235 C229.5602 237.5353 232.4044 239.3405 236 241 C237.6694 241.7705 240.8 241.3333 241 241 C241.7067 239.8222 242.5273 233.1091 242 231 C241.8378 230.351 238.3671 229.8259 238 229 C237.3199 227.4697 238 222 238 222 "/>
<path id="10" d="M264 229 C264 229 266.4991 238.3744 269 240 C272.3551 242.1808 282.6066 242.0929 284 242 C284.0187 241.9988 284.1731 239.2596 284 239 C283.9231 238.8846 282.1 239.175 282 239 C281.2875 237.7532 281.5606 234.1458 280 232 C278.4562 229.8772 275.3649 229.5924 274 228 C273.5521 227.4775 274.0546 225.0099 274 225 C272.9173 224.8031 263 226 263 226 "/>
</g>
</g>
</svg>
