<?xml version="1.0" encoding="utf-8"?>
<!DOCTYPE svg PUBLIC "-//W3C//DTD SVG 1.1//EN" "http://www.w3.org/Graphics/SVG/1.1/DTD/svg11.dtd">
<svg viewBox="0 0 800 800" preserveAspectRatio="xMinYMin meet" xmlns="http://www.w3.org/2000/svg" version="1.1">
<g fill="none" stroke="black" stroke-linecap="round" stroke-linejoin="round" stroke-width="0.97926">
<g transform="translate(139.6,87.52) scale(3.0635) translate(-67,-97)">
<path id="0" d="M76 153 C76 153 97.0825 157.1955 118 158 C161.6275 159.678 199.484 152.5947 206 158 C210.484 161.7197 204.8031 195.0932 206 231 C206.2804 239.411 208.1663 245.1655 209 248 C209.0274 248.0932 210.9847 247.9694 211 248 C211.0229 248.0458 210.3604 249.9199 210 250 C208.0041 250.4435 202 250 202 250 "/>
<path id="1" d="M78 153 C78 153 77.1654 162.6424 79 171 C81.4928 182.356 85.44 182.7332 87 194 C89.7268 213.6935 85.8811 216.2236 88 236 C88.7315 242.827 91.3325 249.6712 93 250 C107.1814 252.7963 127.6018 248.0855 159 250 C166.7567 250.473 167.0482 253.4609 175 255 C182.1204 256.3781 182.5085 255.7119 190 256 C195.4797 256.2108 196.6084 257.1557 201 256 C204.7192 255.0213 209 251 209 251 "/>
<path id="2" d="M79 144 C79 144 89.1732 148.2981 99 149 C123.136 150.724 124.269 150.3739 149 149 C168.9222 147.8932 182.7364 145.0961 189 144 C189.0536 143.9906 188.9775 142.002 189 142 C191.7275 141.752 201.0347 140.384 211 142 C218.2352 143.1733 223.1617 145.7294 226 148 C226.6881 148.5505 225.2097 151.6291 226 154 C227.405 158.215 230.1713 158.5803 231 163 C234.3148 180.679 233.2865 190.5764 235 202 C235.0563 202.375 236.9894 202.7188 237 203 C237.513 216.5944 238.7809 230.0671 237 255 C236.3713 263.8019 233.2626 264.1615 232 273 C230.853 281.0289 233.8186 287.3858 232 290 C230.1675 292.6342 223.6889 295.3114 216 296 C192.2879 298.1235 190.2273 294.6139 165 296 C145.078 297.0946 144.9225 299.6539 125 301 C108.2077 302.1346 103.7012 303.1169 91 301 C87.5757 300.4293 86.8725 296.2129 83 294 C80.8793 292.7882 77.7822 293.5215 77 293 C76.7653 292.8436 77 290 77 290 "/>
<path id="3" d="M82 144 C82 144 77.2521 143.181 75 144 C73.2451 144.6381 72.3475 145.8102 71 148 C68.6097 151.8842 67.7177 152.6939 67 157 C65.8863 163.6819 65.939 164.7855 67 172 C70.8527 198.1985 74.6053 198.6584 77 225 C80.0247 258.2712 77.2328 284.3045 78 293 C78.005 293.0563 83 293 83 293 "/>
<path id="4" d="M187 272 C187 272 185.9009 277.3243 185 278 C184.1684 278.6237 179.5192 278.3462 179 278 C178.7692 277.8462 178.7846 274.1231 179 274 C179.6596 273.6231 186 274 186 274 "/>
<path id="5" d="M114 271 C114 271 123.2635 272.0998 124 273 C124.5918 273.7234 123.7645 281.4266 123 282 C121.9149 282.8138 113.0851 282.8138 112 282 C111.2355 281.4266 110.735 275.9155 111 273 C111.0649 272.286 113 271 113 271 "/>
<path id="6" d="M136 274 C136 274 141.1028 273.1086 144 274 C146.2565 274.6943 148.6573 276.8578 149 278 C149.3364 279.1214 147.6948 283.7684 147 284 C144.7999 284.7334 135.4311 283.8807 134 283 C133.5472 282.7214 134 276 134 276 "/>
<path id="7" d="M110 107 C110 107 112.8073 106.3495 114 107 C117.0629 108.6707 118.6363 109.6233 121 113 C125.0985 118.855 124.4431 121.8263 128 127 C128.8981 128.3063 131.5167 128.1542 132 129 C132.5639 129.9868 131.1255 132.5425 132 134 C135.8827 140.4712 143.9544 149.0315 144 149 C145.1343 148.2177 151.1087 129.5863 161 114 C166.8658 104.7569 177 97 177 97 "/>
</g>
</g>
</svg>
