<?xml version="1.0" encoding="utf-8"?>
<!DOCTYPE svg PUBLIC "-//W3C//DTD SVG 1.1//EN" "http://www.w3.org/Graphics/SVG/1.1/DTD/svg11.dtd">
<svg viewBox="0 0 800 800" preserveAspectRatio="xMinYMin meet" xmlns="http://www.w3.org/2000/svg" version="1.1">
<g fill="none" stroke="black" stroke-linecap="round" stroke-linejoin="round" stroke-width="1.8433">
<g transform="translate(116.815,87.52) scale(1.6275) translate(-163,-27.4167)">
<path id="0" d="M173 152.4167 C173 152.4167 174.8103 267.2512 173 375.4167 C172.8696 383.2099 170.1067 383.4488 169 391.4167 C167.6538 401.1092 167.9569 411.4137 168 411.4167 C200.564 413.6702 363.6625 414.2754 458 411.4167 C460.3658 411.345 463.0118 406.9895 465 402.4167 C467.5265 396.6057 467.6494 395.3404 468 388.4167 C469.6114 356.5909 466.7189 355.3519 469 323.4167 C470.1718 307.0109 471.2301 306.2501 475 290.4167 C476.0898 285.8397 478.8186 285.6248 479 281.4167 C481.1168 232.3074 480.4503 226.2015 480 174.4167 C479.9663 170.5362 479.7737 169.6416 478 166.4167 C474.6963 160.4099 474.2419 158.8131 469 154.4167 C459.7225 146.6356 457.8742 143.6962 447 140.4167 C429.3722 135.1003 426.3705 135.713 406 135.4167 C289.952 133.7287 274.9145 133.8756 172 136.4167 C167.9879 136.5157 163 141.4167 163 141.4167 "/>
<path id="1" d="M330 132.4167 C330 132.4167 333.788 125.092 339 119.4167 C355.9265 100.9856 356.1491 100.1435 375 83.4167 C391.3578 68.902 393.866 70.9893 410 56.4167 C424.4513 43.3638 437 27.4167 437 27.4167 "/>
<path id="2" d="M334 127.4167 C334 127.4167 327.4061 117.2515 319 109.4167 C276.4891 69.7949 231 31.4167 231 31.4167 "/>
<path id="3" d="M174 139.4167 L175 172.4167 "/>
<path id="4" d="M176 141.4167 C176 141.4167 192.0296 140.0936 207 136.4167 C220.1042 133.1981 220.004 130.9906 233 127.4167 C239.6406 125.5905 241.3534 127.8871 247 125.4167 C255.8258 121.5554 255.8113 117.6385 265 113.4167 C273.3226 109.5928 284 108.4167 284 108.4167 "/>
<path id="5" d="M285 108.4167 L322 105.4167 "/>
<path id="6" d="M355 108.4167 C355 108.4167 490.9291 109.0331 507 110.4167 C507.0056 110.4172 507.8841 117.11 506 121.4167 C501.6037 131.4655 499.6634 135.4756 493 142.4167 C490.1022 145.4352 482 146.4167 482 146.4167 "/>
<path id="7" d="M500 121.4167 C500 121.4167 499.9607 164.5917 502 207.4167 C502.952 227.408 502.9242 227.9369 506 247.4167 C507.3466 255.9454 510.5913 256.16 511 264.4167 C512.9907 304.6288 512.2735 309.7859 511 348.4167 C510.8924 351.6814 510.1229 352.9905 508 355.4167 C503.8921 360.1114 501.5102 359.4317 497 364.4167 C492.4218 369.4768 491.6022 370.4316 489 376.4167 C487.0045 381.0064 489.1706 383.4373 487 387.4167 C484.0461 392.8322 477 398.4167 477 398.4167 "/>
<path id="8" d="M199 169.4167 C199 169.4167 199.8141 222.9588 199 276.4167 C198.3149 321.4041 198.5922 324.5089 196 366.4167 C195.7935 369.7557 193.1593 370.3896 193 373.4167 C192.7353 378.4469 193.2744 382.5406 195 385.4167 C195.9413 386.9854 198.6121 388.0779 202 388.4167 C222.0487 390.4215 223.5136 390.1223 245 390.4167 C296.4347 391.1213 296.6251 389.3892 348 390.4167 C371.4728 390.8861 377.1016 395.2368 395 393.4167 C399.9505 392.9132 405.2423 388.9365 407 384.4167 C413.2377 368.3769 415.1826 361.5885 416 339.4167 C419.1007 255.3095 416.3783 249.1976 415 167.4167 C414.9517 164.5481 413.4783 161.4323 413 161.4167 C366.8198 159.9061 230.7395 158.462 201 160.4167 C200.7213 160.435 200 175.4167 200 175.4167 "/>
<path id="9" d="M437 186.4167 C437 186.4167 432.0924 190.7754 431 194.4167 C429.6624 198.8754 430.175 200.9164 431 206.4167 C431.581 210.2898 432.1111 212.5278 434 214.4167 C435.8889 216.3055 438.1232 216.7325 442 217.4167 C446.0907 218.1386 447.9144 218.1881 451 217.4167 C452.2857 217.0953 453.0341 216.0725 454 214.4167 C456.3047 210.4658 457.2845 209.4714 458 205.4167 C458.5768 202.1483 458.4293 198.7708 457 197.4167 C452.4227 193.0803 447.2038 191.1457 439 187.4167 C437.5445 186.7551 435.555 186.9542 435 187.4167 C434.1444 188.1296 433 192.4167 433 192.4167 "/>
<path id="10" d="M439 259.4167 C439 259.4167 437.064 266.6617 438 268.4167 C439.1939 270.6553 442.8523 272.9528 447 274.4167 C449.9846 275.4701 453.0663 275.3835 455 274.4167 C456.692 273.5707 458.2805 271.2948 459 268.4167 C460.4648 262.5576 461.1375 258.0187 460 254.4167 C459.4006 252.5187 456.2024 250.3062 453 249.4167 C448.8008 248.2502 446.5455 248.2803 442 249.4167 C437.7644 250.4756 433.8848 252.3522 433 254.4167 C431.4017 258.146 433 270.4167 433 270.4167 "/>
</g>
</g>
</svg>
