<?xml version="1.0" encoding="utf-8"?>
<!DOCTYPE svg PUBLIC "-//W3C//DTD SVG 1.1//EN" "http://www.w3.org/Graphics/SVG/1.1/DTD/svg11.dtd">
<svg viewBox="0 0 800 800" preserveAspectRatio="xMinYMin meet" xmlns="http://www.w3.org/2000/svg" version="1.1">
<g fill="none" stroke="black" stroke-linecap="round" stroke-linejoin="round" stroke-width="2.1025">
<g transform="translate(87.52,176.6981) scale(1.4268) translate(-125,-83)">
<path id="0" d="M154 123 C154 123 148.3491 173.082 146 223 C144.3618 257.8115 143.8855 258.5632 146 293 C147.3421 314.8575 153 337 153 337 "/>
<path id="1" d="M154 126 C154 126 156.2601 120.2589 159 119 C171.2034 113.393 175.0069 111.3642 191 109 C231.1448 103.0655 232.5454 103.6499 274 102 C332.7581 99.6614 335.1871 96.9897 392 101 C417.4933 102.7995 430.1188 106.134 444 114 C448.653 116.6367 451.3272 124.8605 452 135 C457.9493 224.6643 458 325 458 325 "/>
<path id="2" d="M153 336 C153 336 164.0925 343.8472 175 346 C200.0179 350.9377 201.9888 349.0507 229 351 C250.4379 352.5471 250.5466 353 272 353 C323.3883 353 324.1389 354.7568 375 351 C411.3962 348.3116 416.4828 346.9184 448 340 C452.4034 339.0334 454.9566 336.2695 457 333 C458.5579 330.5074 458 324 458 324 "/>
<path id="3" d="M140 89 C140 89 173.0909 83.617 206 83 C332.4345 80.6294 460 83 460 83 "/>
<path id="4" d="M460 83 L519 85 "/>
<path id="5" d="M141 90 C141 90 137.2953 102.9605 136 116 C129.8407 178.0036 129.6693 178.6215 126 241 C124.6852 263.3511 124.9083 263.6195 126 286 C127.8994 324.9385 132 364 132 364 "/>
<path id="6" d="M133 366 C133 366 217.5085 369.7389 302 371 C418.4443 372.738 535 372 535 372 "/>
<path id="7" d="M518 86 C518 86 521.0375 86.0375 522 87 C525.2727 90.2727 526.9779 91.8003 529 97 C533.5652 108.7391 535.05 110.138 536 123 C541.39 195.9721 537.9796 198.846 542 273 C542.4323 280.9729 544.7955 281.1286 545 289 C545.7754 318.8517 546.7727 320.8867 544 350 C542.9259 361.2777 539.8754 367.2492 537 373 C536.6202 373.7595 532 374 532 374 "/>
<path id="8" d="M459 95 C459 95 459.7452 135.3493 463 174 C463.6702 181.9589 464.1051 183.6312 467 190 C468.4179 193.1194 470.5052 195.6436 473 196 C488.6962 198.2423 516 197 516 197 "/>
<path id="9" d="M460 94 C460 94 514.1117 90.7675 516 94 C521.9312 104.1533 519 195 519 195 "/>
<path id="10" d="M462 100 L513 100 "/>
<path id="11" d="M467 106 L515 107 "/>
<path id="12" d="M465 113 L518 115 "/>
<path id="13" d="M461 127 L515 127 "/>
<path id="14" d="M465 139 L519 140 "/>
<path id="15" d="M475 120 L499 119 "/>
<path id="16" d="M480 133 L519 135 "/>
<path id="17" d="M465 149 L522 150 "/>
<path id="18" d="M467 162 L513 160 "/>
<path id="19" d="M467 169 L511 168 "/>
<path id="20" d="M463 174 L515 175 "/>
<path id="21" d="M514 182 L478 181 "/>
<path id="22" d="M515 189 L473 188 "/>
<path id="23" d="M520 94 C520 94 523.9253 93.8058 524 94 C524.6499 95.6896 525.5837 104.0816 525 107 C524.8723 107.6384 521 109 521 109 "/>
<path id="24" d="M521 109 C521 109 524.9808 108.9038 525 109 C525.4808 111.4038 525.7094 125.2754 525 129 C524.9375 129.3281 521 130 521 130 "/>
<path id="25" d="M522 131 C522 131 526.9718 130.8703 527 131 C527.5968 133.7453 527.4193 143.0987 527 154 C526.9446 155.4401 526.4331 156.7834 526 157 C525.1338 157.4331 521 157 521 157 "/>
<path id="26" d="M521 159 C521 159 528.7101 159.3839 529 160 C529.9735 162.0688 530.146 173.4215 529 176 C528.6021 176.8953 521 178 521 178 "/>
<path id="27" d="M522 178 C522 178 529.6295 179.12 530 180 C531.1734 182.7867 531.0254 195.6591 530 197 C529.4004 197.7841 517 197 517 197 "/>
<path id="28" d="M495 225 C495 225 489.5922 226.6463 489 228 C487.5852 231.2337 487.2146 237.8584 488 241 C488.2618 242.0472 490.6732 243.5014 493 244 C496.7112 244.7952 501.377 244.7363 502 244 C503.2019 242.5795 505.0051 233.7282 504 231 C503.2365 228.9275 495 225 495 225 "/>
<path id="29" d="M500 220 C500 220 488.543 218.2285 485 220 C482.0475 221.4762 479.4297 225.8938 478 231 C476.4555 236.516 476.47 240.4101 478 245 C479.02 248.0599 481.4273 249.7033 485 252 C487.5741 253.6548 488.5715 253.6571 492 254 C498.1904 254.619 501.5323 255.7339 505 254 C508.8678 252.0661 512.4079 247.9532 514 243 C515.9482 236.939 515.3383 231.8885 514 226 C513.5169 223.8745 511.3738 221.9495 509 221 C505.4733 219.5893 499 220 499 220 "/>
<path id="30" d="M505 284 C505 284 500.3114 287.3772 499 290 C498.1257 291.7485 498.2081 294.4162 499 296 C499.8579 297.7158 502.2812 299.7135 504 300 C506.0221 300.337 510.3485 299.0588 511 298 C512.1998 296.0503 512.5422 288.3012 512 287 C511.8207 286.5697 506 286 506 286 "/>
<path id="31" d="M504 275 C504 275 500.359 274.2073 499 275 C495.9876 276.7572 493.0212 278.8088 492 282 C489.9753 288.3271 489.5521 293.4844 491 300 C491.8597 303.8686 494.8979 307.8511 498 309 C504.1152 311.2649 513.7281 311.5379 518 310 C519.8706 309.3266 521.5926 304.926 523 300 C524.3898 295.1356 525.1024 292.6747 524 289 C522.8564 285.1879 520.8186 283.5458 517 280 C514.3359 277.5262 513.285 276.8213 510 276 C506.3044 275.0761 501 276 501 276 "/>
<path id="32" d="M468 333 C468 333 471.1269 331.0833 474 331 C503.8792 330.1339 529.25 330.0159 537 331 C537.125 331.0159 537 339 537 339 "/>
<path id="33" d="M466 332 C466 332 465.8669 340.984 466 341 C475.2419 342.109 541 341 541 341 "/>
<path id="34" d="M506 335 C506 335 505.8875 337.9625 506 338 C507.0125 338.3375 514.0606 338.4175 515 338 C515.1856 337.9175 515.2 334.1 515 334 C514.2 333.6 507 334 507 334 "/>
<path id="35" d="M155 369 C155 369 154.2543 378.5086 155 380 C155.2712 380.5423 158.0442 381 161 381 C231.4471 381 232.6211 378.7344 304 380 C373.444 381.2313 373.6255 384.75 443 386 C484.3749 386.7455 515.3396 385.6697 526 384 C526.2205 383.9655 526 373 526 373 "/>
<path id="36" d="M155 381 C155 381 127.6619 379.8067 125 381 C124.5716 381.192 125.4356 393.8755 126 394 C135.8409 396.1708 159.5441 396.2574 193 396 C354.3439 394.7589 355.0458 394.9687 516 391 C536.9702 390.4829 558 387 558 387 "/>
<path id="37" d="M526 383 C526 383 555.6773 382.1456 562 383 C562.2943 383.0398 563 388 563 388 "/>
</g>
</g>
</svg>
