<?xml version="1.0" encoding="utf-8"?>
<!DOCTYPE svg PUBLIC "-//W3C//DTD SVG 1.1//EN" "http://www.w3.org/Graphics/SVG/1.1/DTD/svg11.dtd">
<svg viewBox="0 0 800 800" preserveAspectRatio="xMinYMin meet" xmlns="http://www.w3.org/2000/svg" version="1.1">
<g fill="none" stroke="black" stroke-linecap="round" stroke-linejoin="round" stroke-width="0.59524">
<g transform="translate(87.52,211) scale(5.04) translate(-109,-148.1333)">
<path id="0" d="M112 184.1333 C112 184.1333 123.0489 179.9815 129 181.1333 C134.7055 182.2376 137.6659 185.4268 143 190.1333 C145.0164 191.9125 145.6151 193.3107 146 196.1333 C146.9609 203.18 147.6513 206.4719 146 212.1333 C144.9637 215.6865 142.6998 217.4201 139 220.1333 C136.067 222.2842 134.8748 222.5215 131 223.1333 C125.97 223.9275 123.7067 224.6497 120 223.1333 C115.0526 221.1094 110.5707 217.9886 109 214.1333 C106.9029 208.9859 107.6251 204.1077 109 196.1333 C109.9061 190.8782 111.671 188.2387 114 185.1333 C114.6316 184.2912 118 184.1333 118 184.1333 "/>
<path id="1" d="M132 186.1333 C132 186.1333 157.5747 189.2909 183 191.1333 C191.9103 191.779 195.6812 191.9311 201 191.1333 C201.7239 191.0247 202.0786 188.4684 203 188.1333 C205.7912 187.1183 212 187.1333 212 187.1333 "/>
<path id="2" d="M214 188.1333 C214 188.1333 222.6888 187.5444 225 189.1333 C227.3483 190.7478 230.3396 196.0771 230 199.1333 C229.3568 204.9221 225.9893 213.4738 222 216.1333 C217.0478 219.4348 207.5986 219.6761 200 219.1333 C197.7827 218.975 194.9219 216.2843 194 214.1333 C192.9042 211.5765 193.0998 208.959 194 205.1333 C194.8943 201.3327 195.7569 198.2935 198 197.1333 C205.8887 193.053 211.6024 194.4074 223 190.1333 C226.6617 188.7602 227.85 187.7611 230 185.1333 C231.5305 183.2627 232.0537 179.4556 232 179.1333 C231.9953 179.1049 229 179.1333 229 179.1333 "/>
<path id="3" d="M229 179.1333 C229 179.1333 230.9982 184.14 231 184.1333 C231.0082 184.1027 233 164.1333 233 164.1333 "/>
<path id="4" d="M172 191.1333 C172 191.1333 170.9885 165.6162 172 163.1333 C172.1258 162.8246 178.9221 162.9682 183 164.1333 C184.3937 164.5315 186 167.1333 186 167.1333 C185.92 167.2133 182.0861 168.6081 179 168.1333 C170.0883 166.7623 160.3204 163.3393 160 163.1333 C159.965 163.1108 162.7435 159.8276 165 159.1333 C167.8972 158.2419 170.0393 158.1464 173 159.1333 C176.2074 160.2025 180.0076 164.1305 180 164.1333 C179.9788 164.1413 165 162.1333 165 162.1333 "/>
<path id="5" d="M233 166.1333 C233 166.1333 229.128 162.5174 228 159.1333 C226.5249 154.708 227.7215 149.4561 227 148.1333 C226.8296 147.8209 222 148.1333 222 148.1333 "/>
<path id="6" d="M233 170.1333 C233 170.1333 222.1682 172.7168 214 172.1333 C209.9778 171.846 205 168.1333 205 168.1333 "/>
</g>
</g>
</svg>
