<?xml version="1.0" encoding="utf-8"?>
<!DOCTYPE svg PUBLIC "-//W3C//DTD SVG 1.1//EN" "http://www.w3.org/Graphics/SVG/1.1/DTD/svg11.dtd">
<svg viewBox="0 0 800 800" preserveAspectRatio="xMinYMin meet" xmlns="http://www.w3.org/2000/svg" version="1.1">
<g fill="none" stroke="black" stroke-linecap="round" stroke-linejoin="round" stroke-width="1.6657">
<g transform="translate(87.52,147.8548) scale(1.801) translate(-160,-82.1333)">
<path id="0" d="M243 233.1333 C243 233.1333 242.2141 225.6881 240 223.1333 C237.5984 220.3623 234.483 218.439 230 218.1333 C215.3195 217.1324 210.9885 218.2117 196 220.1333 C193.644 220.4354 192.3392 221.3478 191 223.1333 C188.6192 226.3077 189.6842 228.4426 187 232.1333 C182.1029 238.8668 178.9572 238.2603 175 245.1333 C170.2237 253.4291 169.5474 255.407 168 265.1333 C166.2411 276.1893 166.4373 279.1322 168 289.1333 C168.5718 292.7926 172.1176 293.3096 173 297.1333 C174.7574 304.7487 171.2787 308.9649 174 315.1333 C177.2726 322.5511 180.5622 324.8398 188 331.1333 C192.6123 335.036 196.688 334.0579 200 337.1333 C201.6021 338.621 200.4842 342.6176 202 344.1333 C204.1894 346.3228 206.8959 347.9942 211 348.1333 C233.4315 348.8937 249.7396 347.8657 261 346.1333 C261.6543 346.0327 261.4744 341.8115 263 340.1333 C265.3948 337.499 269.098 337.0353 271 335.1333 C271.4389 334.6944 270.5158 332.779 271 332.1333 C272.5334 330.0888 275.7138 329.5219 277 327.1333 C278.3342 324.6555 276.7475 321.6384 278 319.1333 C278.9578 317.2177 282.8172 316.6321 283 315.1333 C284.467 303.1039 284.1509 295.3974 283 278.1333 C282.7449 274.3072 282.1745 273.2139 280 270.1333 C276.7003 265.4587 274.0616 265.4196 271 261.1333 C269.8661 259.5458 271.1581 257.9429 270 256.1333 C263.9219 246.6363 262.5874 244.8588 255 236.1333 C253.3128 234.1931 252.3223 233.5978 250 233.1333 C245.853 232.3039 240 233.1333 240 233.1333 "/>
<path id="1" d="M435 230.1333 C435 230.1333 414.0899 231.2169 397 235.1333 C392.034 236.2714 390.3934 237.5404 387 241.1333 C382.9109 245.463 383.7716 248.7814 380 253.1333 C378.2881 255.1085 376.1196 254.2065 374 256.1333 C371.2402 258.6423 370.5169 259.5307 369 263.1333 C366.7904 268.3811 366.3606 269.2441 366 275.1333 C364.905 293.0181 364.8885 294.3489 366 312.1333 C366.3361 317.5107 366.3731 318.9011 369 323.1333 C374.5778 332.1198 376.7872 334.264 384 341.1333 C385.7738 342.8227 388.7792 341.7769 390 343.1333 C391.7652 345.0947 391.518 350.1806 393 351.1333 C395.1189 352.4955 399.1488 350.5684 404 352.1333 C413.813 355.2988 414.211 358.3365 424 361.1333 C430.6292 363.0274 431.9196 362.8786 439 362.1333 C450.1836 360.9561 452.0792 361.4737 462 357.1333 C474.604 351.6191 477.3391 350.2857 487 341.1333 C494.6856 333.8522 493.4006 329.5659 500 321.1333 C501.512 319.2014 504.9062 319.0944 505 318.1333 C506.0189 307.6895 506.16 298.3392 504 280.1333 C502.7697 269.7635 502.977 267.1321 498 259.1333 C490.416 246.9448 487.0516 243.3512 476 235.1333 C470.2537 230.8605 467.223 230.7424 459 230.1333 C441.5195 228.8385 422 231.1333 422 231.1333 "/>
<path id="2" d="M210 152.1333 C210 152.1333 212 152.1333 212 152.1333 C212 151.9805 211.1785 148.8833 210 148.1333 C207.1715 146.3334 204.7633 147.4182 201 145.1333 C191.4364 139.3269 189.2311 138.8809 182 131.1333 C176.4399 125.1761 174.7386 122.7831 173 115.1333 C170.2805 103.1673 172 87.1333 172 87.1333 C172 87.1333 172 106.1333 172 106.1333 "/>
<path id="3" d="M213 152.1333 C213 152.1333 211.3864 167.8379 213 179.1333 C213.5208 182.7789 215.1273 183.5047 218 187.1333 C224.506 195.3515 224.9214 196.7289 232 203.1333 C234.4148 205.3181 236.2479 204.0693 239 206.1333 C243.686 209.6478 243.5581 213.2296 248 215.1333 C255.0084 218.1369 261.1292 218.6226 267 218.1333 C268.696 217.992 271.2171 215.3256 272 213.1333 C273.0384 210.2257 272.085 204.1819 272 204.1333 C271.9315 204.0942 268.204 207.989 265 209.1333 C262.4472 210.045 258 209.1333 258 209.1333 "/>
<path id="4" d="M211 211.1333 L212 160.1333 "/>
<path id="5" d="M220 214.1333 L219 185.1333 "/>
<path id="6" d="M184 83.1333 C184 83.1333 161.3487 81.1525 160 82.1333 C159.3994 82.5701 161.9211 98.8373 162 99.1333 C162.0066 99.1581 163.2234 97.1888 164 97.1333 C173.4231 96.4603 187.2434 98.2996 190 97.1333 C190.4934 96.9246 190 86.1333 190 86.1333 "/>
<path id="7" d="M266 200.1333 C266 200.1333 273.7616 218.8124 275 220.1333 C275.0708 220.2088 280.3509 217.5614 281 216.1333 C281.6316 214.7439 281.2577 210.8102 280 209.1333 C278.2149 206.7532 275.7128 205.0173 272 204.1333 C266.7482 202.8829 259 204.1333 259 204.1333 "/>
<path id="8" d="M221 156.1333 L394 158.1333 "/>
<path id="9" d="M216 150.1333 L392 151.1333 "/>
<path id="10" d="M312 150.1333 C312 150.1333 298.3759 151.4078 293 149.1333 C289.8915 147.8182 287.8763 143.6902 286 139.1333 C284.9804 136.6572 285.8961 132.1474 286 132.1333 C290.0353 131.588 323 134.1333 323 134.1333 "/>
<path id="11" d="M321 134.1333 C321 134.1333 339.2356 134.9418 355 134.1333 C357.3658 134.012 358.8641 131.9913 360 132.1333 C360.8071 132.2342 362.7478 133.8724 363 135.1333 C363.8406 139.3365 363.6923 146.0949 363 147.1333 C362.6923 147.5949 355 147.1333 355 147.1333 "/>
<path id="12" d="M383 156.1333 C383 156.1333 392.317 154.5202 399 156.1333 C405.1357 157.6144 405.4234 160.7846 412 163.1333 C418.819 165.5687 423.4254 166.1333 427 166.1333 C427.4766 166.1333 428.154 163.5563 429 163.1333 C429.9668 162.6499 432.2406 162.5909 433 163.1333 C434.2476 164.0245 434.7873 167.1228 436 168.1333 C436.5076 168.5563 438.7105 167.8439 439 168.1333 C439.4825 168.6158 439.2144 171.3478 440 172.1333 C441.0998 173.2331 444.4257 173.0668 445 174.1333 C446.478 176.8782 445.8035 182.7403 447 185.1333 C447.2991 185.7316 450.6046 185.6391 451 186.1333 C451.3766 186.604 450.34 189.0962 451 190.1333 C452.89 193.1033 455.8689 193.5816 458 197.1333 C459.7505 200.0508 458.858 203.0777 460 205.1333 C460.3342 205.735 462.8631 205.664 463 206.1333 C464.7645 212.1829 467 229.1333 467 229.1333 "/>
<path id="13" d="M386 150.1333 C386 150.1333 393.8861 148.2191 398 149.1333 C400.4839 149.6853 401.3082 153.0117 404 154.1333 C405.9981 154.9659 407.6021 153.2941 410 154.1333 C416.5742 156.4343 419.4598 156.7995 424 161.1333 C428.6899 165.6101 427.25 169.9084 432 175.1333 C436.2222 179.7777 442.0057 181.139 444 183.1333 C444.1994 183.3328 443 186.1333 443 186.1333 C443.2292 186.2097 447.9963 184.5869 450 185.1333 C451.5163 185.5469 452.328 186.9836 454 189.1333 C455.7243 191.3502 456.4276 191.7007 457 194.1333 C458.2274 199.3498 456.4899 201.0996 458 206.1333 C459.1664 210.0212 462.0709 210.4169 463 214.1333 C464.2053 218.9546 463.2432 224.6739 463 226.1333 C462.9932 226.1739 461 226.1333 461 226.1333 "/>
<path id="14" d="M435 296.1333 L436 296.1333 "/>
<path id="15" d="M436 295.1333 C436 295.1333 434.1077 292.3549 433 292.1333 C430.9077 291.7149 427.2687 292.1465 426 293.1333 C424.9125 293.9792 424 297.1797 424 299.1333 C424 300.1101 425.3455 302.0024 426 302.1333 C427.9635 302.526 433.1265 302.0068 434 301.1333 C434.8735 300.2598 435 293.1333 435 293.1333 "/>
<path id="16" d="M435 293.1333 C435 293.1333 460.0702 292.9623 482 289.1333 C489.9181 287.7508 490.3564 284.2735 498 282.1333 C501.8303 281.0608 507 282.1333 507 282.1333 "/>
<path id="17" d="M441 302.1333 C441 302.1333 441.5007 305.8104 443 307.1333 C448.5708 312.0488 450.7954 313.9633 458 317.1333 C461.8771 318.8393 463.8187 316.7396 468 318.1333 C471.9115 319.4372 473.8662 320.1209 476 323.1333 C481.0762 330.2997 480.0923 334.6082 485 342.1333 C486.5615 344.5277 491 346.1333 491 346.1333 "/>
<path id="18" d="M426 303.1333 L424 347.1333 "/>
<path id="19" d="M389 326.1333 C389 326.1333 395.0354 323.2631 399 319.1333 C406.5088 311.3117 408.2857 308.8783 413 301.1333 C413.8888 299.6732 412.2658 297.1821 413 296.1333 C414.4536 294.0567 420 291.1333 420 291.1333 "/>
<path id="20" d="M380 269.1333 C380 269.1333 399.1831 270.827 408 274.1333 C409.9552 274.8665 412 281.1333 412 281.1333 "/>
<path id="21" d="M402 245.1333 C402 245.1333 408.0273 249.6811 410 253.1333 C410.9415 254.781 409.001 257.8679 410 259.1333 C414.1362 264.3726 419.9164 265.8536 425 272.1333 C426.9449 274.5358 427 280.1333 427 280.1333 "/>
<path id="22" d="M426 283.1333 L427 283.1333 "/>
<path id="23" d="M444 243.1333 C444 243.1333 444.8018 250.827 443 257.1333 C439.0721 270.8811 431.9765 284.9764 432 285.1333 C432.0053 285.1685 439.4556 279.3148 446 277.1333 C449.9266 275.8245 451.3602 277.9925 456 277.1333 C464.3172 275.5931 464.6692 273.3585 473 272.1333 C480.9854 270.959 490 272.1333 490 272.1333 "/>
<path id="24" d="M216 282.1333 C216 282.1333 214.774 286.3254 215 288.1333 C215.0865 288.8257 216.1257 289.8419 217 290.1333 C218.3114 290.5705 220.8769 290.3487 221 290.1333 C221.3769 289.4737 221.5694 283.8926 221 283.1333 C220.5526 282.5368 215 282.1333 215 282.1333 "/>
<path id="25" d="M215 282.1333 C215 282.1333 220.7087 278.5218 224 274.1333 C227.6818 269.2242 226.2112 266.9746 230 262.1333 C234.6275 256.2205 235.86 255.4314 242 251.1333 C245.1479 248.9298 249.1808 248.8355 250 248.1333 C250.1218 248.029 249 245.1333 249 245.1333 "/>
<path id="26" d="M214 290.1333 C214 290.1333 202.328 290.8575 194 290.1333 C192.6784 290.0184 192.1691 288.1333 191 288.1333 C183.9851 288.1333 173 290.1333 173 290.1333 "/>
<path id="27" d="M185 251.1333 C185 251.1333 189.1232 263.1427 195 273.1333 C198.7691 279.5408 199.5345 280.1884 205 285.1333 C209.5421 289.2428 215.8964 292.2087 216 292.1333 C216.1913 291.9942 215.0755 283.9131 216 277.1333 C216.4567 273.7845 218.8728 271.1508 219 270.1333 C219.0129 270.0299 217 269.3805 217 269.1333 C217 258.2586 219 225.1333 219 225.1333 "/>
<path id="28" d="M219 296.1333 L217 349.1333 "/>
<path id="29" d="M225 293.1333 C225 293.1333 225.7674 301.3487 229 307.1333 C234.6512 317.246 235.9673 318.4581 244 327.1333 C247.8539 331.2956 254 334.1333 254 334.1333 "/>
<path id="30" d="M275 290.1333 L223 291.1333 "/>
<path id="31" d="M187 243.1333 C187 243.1333 183.2238 247.5442 182 252.1333 C177.5155 268.9504 177.1151 270.306 175 288.1333 C173.6792 299.2662 173.7854 302.9349 175 311.1333 C175.2425 312.7704 178.5405 313.4102 179 315.1333 C179.9976 318.8743 177.8719 325.0716 179 326.1333 C181.3653 328.3595 187.6696 329.8711 196 331.1333 C203.5059 332.2706 209.7721 330.2159 212 331.1333 C212.5406 331.3559 212.596 338.0483 213 338.1333 C219.0773 339.4128 250 339.1333 250 339.1333 C250 339.1333 246.9992 339.135 247 339.1333 C247.0022 339.1289 251.0152 337.2702 251 337.1333 C250.9262 336.4687 246.3115 332.3137 246 330.1333 C245.7347 328.276 247.5019 324.2228 249 323.1333 C250.6159 321.9581 255.2248 323.5281 257 322.1333 C259.7999 319.9334 259.9586 314.5664 263 312.1333 C265.3028 310.2911 271.8894 310.7554 272 310.1333 C273.3155 302.7338 272.2314 288.0665 271 267.1333 C270.7679 263.1869 270.7835 262.1653 269 259.1333 C266.3362 254.6049 265.4092 252.5269 261 250.1333 C249.9036 244.1096 247.535 243.8771 234 240.1333 C224.5284 237.5135 223.8482 237.6384 214 237.1333 C204.7407 236.6585 203.69 237.3057 195 238.1333 C194.0465 238.2241 193.0801 238.773 193 239.1333 C192.5565 241.1292 193.2353 246.1922 193 247.1333 C192.9853 247.1922 191 247.1333 191 247.1333 "/>
<path id="32" d="M395 250.1333 C395 250.1333 389.3095 252.617 386 256.1333 C381.9775 260.4073 379.5219 262.2623 379 267.1333 C377.006 285.7437 377.9369 290.4707 380 312.1333 C380.8453 321.0088 381.7433 322.3173 385 330.1333 C386.3108 333.2792 387.5956 335.3987 390 336.1333 C401.4453 339.6305 410.2649 338.5309 421 341.1333 C421.9089 341.3537 422.3727 344.1055 423 344.1333 C435.6301 344.6947 456.4333 344.003 466 343.1333 C466.2826 343.1076 466.3984 340.4676 467 340.1333 C469.0556 338.9913 472.5548 339.7635 475 338.1333 C477.0959 336.7361 478.2766 335.1175 479 332.1333 C481.9031 320.1578 478.8014 315.0125 483 305.1333 C485.7101 298.7566 492.9425 297.7779 496 292.1333 C497.6781 289.0353 497.1985 285.9272 496 281.1333 C493.9571 272.9619 493.667 271.0227 489 264.1333 C483.9591 256.692 480.4441 256.6662 475 250.1333 C473.9748 248.9031 474.8995 246.8829 474 246.1333 C470.6786 243.3655 468.4954 241.8919 463 240.1333 C456.773 238.1407 455.9569 238.391 449 238.1333 C429.2276 237.401 426.0065 236.0926 409 238.1333 C404.4423 238.6803 403.0146 240.5911 399 244.1333 C395.0781 247.5939 394.3347 248.7557 392 253.1333 C390.8021 255.3795 391.7624 257.7991 391 259.1333 C390.6851 259.6844 388 260.1333 388 260.1333 "/>
<path id="33" d="M389 144.1333 C389 144.1333 408.9047 143.5371 412 143.1333 C412.0349 143.1288 411.9904 141.1337 412 141.1333 C414.7459 141.0189 426.3284 143.1005 436 142.1333 C438.5899 141.8743 439.4109 138.3839 442 138.1333 C452.0948 137.1564 457.0153 135.9467 467 139.1333 C477.4378 142.4645 484.513 148.6463 489 153.1333 C489.7478 153.8812 489.4126 158.418 488 160.1333 C484.2614 164.6731 480.7743 169.0438 475 170.1333 C459.4848 173.0607 443.489 168.9206 435 170.1333 C434.3936 170.22 433.702 175.8826 433 176.1333 C431.027 176.838 421 175.1333 421 175.1333 "/>
<path id="34" d="M428 148.1333 C428 148.1333 426.9972 165.0939 427 165.1333 C427.0005 165.14 429 162.1333 429 162.1333 "/>
<path id="35" d="M454 139.1333 C454 139.1333 454.0431 156.7021 453 167.1333 C452.9183 167.95 451 169.1333 451 169.1333 "/>
<path id="36" d="M481 148.1333 C481 148.1333 484.391 153.5269 484 156.1333 C483.332 160.5867 478 168.1333 478 168.1333 "/>
<path id="37" d="M183 100.1333 C183 100.1333 180.5832 125.112 182 131.1333 C182.2357 132.135 188.2471 131.9703 191 134.1333 C193.7356 136.2827 193.6597 141.1158 196 142.1333 C201.2086 144.398 209.6387 142.9856 214 144.1333 C214.4213 144.2442 214.5496 146.7955 215 147.1333 C215.4158 147.4452 217.9951 147.0906 218 147.1333 C218.3701 150.3406 215.9881 161.3135 218 173.1333 C219.7304 183.2992 221.1682 186.4592 226 194.1333 C228.165 197.5719 231.8808 197.0141 235 200.1333 C236.4556 201.589 235.6886 203.9676 237 205.1333 C238.9671 206.8819 242.6599 206.9847 244 208.1333 C244.36 208.4419 243.7002 210.9334 244 211.1333 C245.6492 212.2328 250.0031 212.0586 253 214.1333 C255.206 215.6606 255.2118 219.4379 257 220.1333 C261.0627 221.7133 269.5788 221.4379 271 221.1333 C271.0884 221.1144 271 217.1333 271 217.1333 "/>
</g>
</g>
</svg>
