<?xml version="1.0" encoding="utf-8"?>
<!DOCTYPE svg PUBLIC "-//W3C//DTD SVG 1.1//EN" "http://www.w3.org/Graphics/SVG/1.1/DTD/svg11.dtd">
<svg viewBox="0 0 800 800" preserveAspectRatio="xMinYMin meet" xmlns="http://www.w3.org/2000/svg" version="1.1">
<g fill="none" stroke="black" stroke-linecap="round" stroke-linejoin="round" stroke-width="1.5601">
<g transform="translate(87.52,182.7062) scale(1.923) translate(-187,-67.1333)">
<path id="0" d="M209 184.1333 C209 184.1333 201.8187 188.0417 198 193.1333 C192.1335 200.9553 190.2372 202.9813 188 212.1333 C185.2621 223.3339 185.3609 226.1911 187 238.1333 C188.654 250.1842 189.3911 252.6805 195 263.1333 C199.502 271.5235 201.4128 272.331 209 279.1333 C215.4149 284.8847 216.3237 285.1531 224 289.1333 C229.3522 291.9086 230.1499 292.1973 236 293.1333 C242.0167 294.096 242.9419 293.9594 249 293.1333 C253.3847 292.5354 254.5454 292.5516 258 290.1333 C268.4572 282.8133 269.7355 281.7066 279 272.1333 C284.2483 266.7101 284.4989 265.9411 288 259.1333 C293.2886 248.85 294.7279 247.7365 297 237.1333 C298.8991 228.2709 299.504 223.6823 297 217.1333 C294.6249 210.9214 291.1444 208.8885 284 203.1333 C273.6758 194.8166 272.4671 193.8669 261 188.1333 C255.5484 185.4076 254.3961 185.4887 248 185.1333 C228.0831 184.0268 224.6078 183.985 207 185.1333 C204.7687 185.2789 202 188.1333 202 188.1333 "/>
<path id="1" d="M450 153.1333 C450 153.1333 443.7467 153.76 439 156.1333 C431.4053 159.9307 431.333 160.9391 424 166.1333 C419.365 169.4165 418.6911 169.2115 415 173.1333 C411.0422 177.3385 409.9634 177.9445 408 183.1333 C403.3979 195.2961 402.86 196.8479 401 210.1333 C399.4711 221.0542 398.7935 223.572 401 233.1333 C402.7342 240.6481 404.6027 243.0321 410 249.1333 C415.0421 254.833 416.9515 255.8608 424 259.1333 C429.8197 261.8354 431.0818 261.5872 438 262.1333 C449.6624 263.054 451.8434 264.3628 462 262.1333 C470.0303 260.3706 472.1848 258.7802 479 253.1333 C488.6336 245.1512 488.9565 243.5601 497 233.1333 C502.2086 226.3815 502.7843 225.851 506 218.1333 C510.0303 208.4606 510.4925 207.4349 512 197.1333 C513.3781 187.7161 513.6648 185.1799 512 177.1333 C511.1475 173.0129 509.5816 171.2033 506 168.1333 C500.068 163.0488 498.6223 161.4786 491 159.1333 C474.2046 153.9655 454 152.1333 454 152.1333 "/>
<path id="2" d="M234 226.1333 C234 226.1333 231.2506 225.508 230 226.1333 C227.3424 227.4621 224.4819 229.2058 224 231.1333 C222.9065 235.5075 223.5732 244.6173 225 246.1333 C226.4426 247.6661 236.3822 248.895 240 248.1333 C241.3061 247.8584 243.2619 244.9013 244 242.1333 C244.9401 238.6081 245.2978 235.3395 244 233.1333 C241.9982 229.7303 234 225.1333 234 225.1333 "/>
<path id="3" d="M454 194.1333 C454 194.1333 446.655 201.2924 444 207.1333 C442.6381 210.1295 443.3877 212.4594 444 216.1333 C444.2268 217.494 445.3442 219.0324 446 219.1333 C448.8896 219.5779 456.6498 218.8338 457 218.1333 C457.9968 216.1398 456 199.1333 456 199.1333 "/>
<path id="4" d="M236 227.1333 C236 227.1333 242.5675 207.1719 250 191.1333 C251.28 188.3712 255 186.1333 255 186.1333 "/>
<path id="5" d="M243 232.1333 C243 232.1333 264.4789 230.5345 281 225.1333 C288.0816 222.8182 288.8552 218.5471 295 215.1333 C296.2569 214.4351 299 215.1333 299 215.1333 "/>
<path id="6" d="M243 244.1333 C243 244.1333 254.2033 257.5738 262 271.1333 C265.1454 276.6036 266 284.1333 266 284.1333 "/>
<path id="7" d="M231 249.1333 C231 249.1333 225.6077 257.7797 219 264.1333 C213.0944 269.8118 205 274.1333 205 274.1333 "/>
<path id="8" d="M223 236.1333 L187 219.1333 "/>
<path id="9" d="M228 227.1333 C228 227.1333 224.3849 224.7052 223 222.1333 C221.3659 219.0985 222.7314 217.5961 221 214.1333 C214.5553 201.244 206 188.1333 206 188.1333 "/>
<path id="10" d="M456 200.1333 L453 196.1333 "/>
<path id="11" d="M454 198.1333 C454 198.1333 467.2542 188.7332 479 178.1333 C487.5514 170.4162 495 161.1333 495 161.1333 "/>
<path id="12" d="M458 200.1333 C458 200.1333 467.8965 205.5064 478 208.1333 C492.3224 211.8572 508 213.1333 508 213.1333 "/>
<path id="13" d="M459 217.1333 L468 259.1333 "/>
<path id="14" d="M447 219.1333 C447 219.1333 434.4993 225.8172 422 229.1333 C410.7921 232.1068 398 232.1333 398 232.1333 "/>
<path id="15" d="M444 206.1333 C444 206.1333 440.9994 195.8823 436 188.1333 C431.5229 181.1938 428.9812 181.7749 424 175.1333 C421.9056 172.3409 421 168.1333 421 168.1333 "/>
<path id="16" d="M451 194.1333 L452 152.1333 "/>
<path id="17" d="M233 230.1333 C233 230.1333 233.2083 225.1148 235 221.1333 C241.9134 205.7703 249.2178 204.6137 251 190.1333 C256.3516 146.6517 251 91.1333 251 91.1333 "/>
<path id="18" d="M230 81.1333 C230 81.1333 251.8885 96.6103 270 105.1333 C273.884 106.9611 278.1349 106.2794 281 105.1333 C282.667 104.4665 285 99.1333 285 99.1333 "/>
<path id="19" d="M231 83.1333 C231 83.1333 230.4298 75.2738 232 72.1333 C233.1606 69.8121 239 67.1333 239 67.1333 "/>
<path id="20" d="M253 131.1333 C253 131.1333 263.4116 138.232 272 146.1333 C275.4982 149.3517 275.1017 150.0634 278 154.1333 C298.5924 183.0503 300.1191 182.5099 319 212.1333 C328.8375 227.568 334.3678 244.2152 336 245.1333 C336.3012 245.3028 344.3997 238.1775 351 230.1333 C360.1723 218.9546 361.9489 218.7543 368 206.1333 C378.8467 183.5103 379.4039 181.0875 386 157.1333 C388.4786 148.132 387 137.1333 387 137.1333 "/>
<path id="21" d="M253 135.1333 L387 135.1333 "/>
<path id="22" d="M340 228.1333 C340 228.1333 334.9578 227.3671 334 228.1333 C332.3398 229.4615 330.6585 232.3469 330 236.1333 C328.8641 242.6649 328.4001 245.1908 330 251.1333 C331.3743 256.2378 334.0433 260.5846 337 262.1333 C340.2435 263.8323 345.8503 263.4208 351 262.1333 C353.6668 261.4666 356.5836 259.146 357 257.1333 C358.6012 249.394 358.9966 240.87 357 233.1333 C356.2459 230.2113 352.3288 227.132 349 226.1333 C345.1438 224.9765 337 227.1333 337 227.1333 "/>
<path id="23" d="M342 247.1333 C342 247.1333 344.9173 274.0591 343 278.1333 C342.3092 279.6013 328.596 279.9117 326 281.1333 C325.6682 281.2895 325.686 283.9352 326 286.1333 C326.1346 287.0754 326.6967 288.1081 327 288.1333 C332.98 288.6317 349.2581 289.3913 350 288.1333 C352.1331 284.5163 351.4763 261.8299 350 249.1333 C349.8266 247.6418 345 245.1333 345 245.1333 "/>
<path id="24" d="M336 283.1333 L335 287.1333 "/>
<path id="25" d="M339 282.1333 L339 285.1333 "/>
<path id="26" d="M341 281.1333 L343 282.1333 "/>
<path id="27" d="M389 139.1333 L393 109.1333 "/>
<path id="28" d="M393 109.1333 C393 109.1333 376.9408 111.1279 366 110.1333 C363.4127 109.8981 360.9237 107.8268 360 106.1333 C359.1109 104.5033 359.2364 99.6645 360 99.1333 C364.5885 95.9414 372.0313 91.5958 383 90.1333 C399.7098 87.9054 415.4819 89.7901 420 91.1333 C420.3601 91.2404 421.1976 97.9397 420 101.1333 C419.012 103.7681 416.692 106.4086 414 107.1333 C406.8349 109.0624 394 108.1333 394 108.1333 "/>
<path id="29" d="M390 132.1333 C390 132.1333 396.0132 134.4241 398 137.1333 C400.2305 140.175 398.4812 143.0313 401 147.1333 C415.1762 170.2202 416.1952 172.9447 433 194.1333 C438.1319 200.604 440.3456 201.3308 447 205.1333 C449.4837 206.5526 454 206.1333 454 206.1333 "/>
<path id="30" d="M389 145.1333 C389 145.1333 393.0692 146.0889 395 148.1333 C400.6564 154.1224 400.8908 155.4005 406 163.1333 C419.3486 183.3366 418.608 186.7599 432 204.1333 C435.396 208.5389 437.6547 209.097 443 211.1333 C447.0602 212.6801 453 212.1333 453 212.1333 "/>
<path id="31" d="M334 258.1333 C334 258.1333 327.8573 257.9514 326 259.1333 C324.5337 260.0664 322.9831 265.1232 323 265.1333 C323.3651 265.3524 334.6604 265.7516 336 265.1333 C336.2854 265.0016 336 259.1333 336 259.1333 "/>
</g>
</g>
</svg>
