<?xml version="1.0" encoding="utf-8"?>
<!DOCTYPE svg PUBLIC "-//W3C//DTD SVG 1.1//EN" "http://www.w3.org/Graphics/SVG/1.1/DTD/svg11.dtd">
<svg viewBox="0 0 800 800" preserveAspectRatio="xMinYMin meet" xmlns="http://www.w3.org/2000/svg" version="1.1">
<g fill="none" stroke="black" stroke-linecap="round" stroke-linejoin="round" stroke-width="1.0993">
<g transform="translate(168.0279,87.52) scale(2.7291) translate(-261,-48)">
<path id="0" d="M319 109 C319 109 309.0278 110.3115 301 114 C291.3046 118.4546 289.8778 119.2893 282 126 C277.3173 129.989 276.617 131.5043 274 137 C272.0646 141.0643 273.7048 142.6162 272 147 C270.427 151.0448 268.4751 150.8697 267 155 C263.716 164.1952 263.2684 165.0639 262 175 C260.3327 188.0603 259.7336 188.9739 261 202 C263.155 224.1652 263.4095 225.6247 269 247 C271.6537 257.1465 272.9484 258.5807 278 267 C279.7104 269.8506 281.2026 271.4914 284 272 C304.2072 275.674 308.5644 275.5793 333 277 C351.3426 278.0664 364.0867 281.0581 370 277 C376.0762 272.83 378.8104 258.681 384 242 C385.3187 237.7615 383.0872 236.5641 384 232 C385.4605 224.6974 388.6879 224.1787 389 217 C390.5784 180.6964 393.3273 171.337 388 140 C386.2245 129.5557 380.776 126.361 372 117 C366.8903 111.5497 364.6248 109.3495 358 108 C341.0931 104.556 334.1937 105.2959 318 106 C315.4951 106.1089 312 110 312 110 "/>
<path id="1" d="M305 115 C305 115 307.2381 100.455 305 92 C303.6978 87.0805 299.75 83.5781 296 81 C294.4151 79.9104 291.6762 81.986 289 81 C283.4262 78.9465 278.3744 77.066 277 74 C274.5077 68.4402 275.2095 58.5871 276 52 C276.1257 50.9523 278.282 49.1206 280 49 C301.6545 47.4804 306.8677 46.8513 333 48 C351.8603 48.829 352.1596 49.9721 371 53 C380.0517 54.4547 381.4803 53.438 389 57 C399.066 61.7681 400.821 63.0688 409 71 C416.4187 78.1939 417.3056 79.6111 422 89 C427.8441 100.6882 429.525 102.3803 431 115 C433.7808 138.7914 433.1377 142.4856 431 166 C430.3484 173.1675 427.0789 173.3775 425 181 C421.1717 195.0371 423.5477 197.2666 419 210 C416.6323 216.6296 413.129 219.3021 410 223 C409.7431 223.3036 408.025 223.075 408 223 C407.775 222.325 407.1899 219.5204 408 217 C411.3611 206.5433 415.2338 205.5971 417 195 C419.405 180.5699 419.6629 177.8363 417 163 C412.9629 140.5077 411.9484 137.4535 403 117 C398.8584 107.5335 396.4688 105.639 389 99 C384.4357 94.9429 382.2129 94.4911 376 93 C370.8369 91.7609 364.5299 92.2255 364 93 C362.7296 94.8567 363 112 363 112 "/>
<path id="2" d="M358 77 C358 77 357.8767 79.9538 358 80 C358.8767 80.3288 364.9067 80.6074 366 80 C366.5163 79.7132 367.1616 75.1616 367 75 C366.7577 74.7577 361 75 361 75 "/>
<path id="3" d="M372 75 C372 75 360.9264 73.7954 354 75 C351.8083 75.3812 350.0252 76.8472 349 79 C345.8863 85.5388 345.2622 87.6696 344 96 C342.8627 103.5059 342.1523 105.6359 344 112 C346.0339 119.0057 348.8745 124.9372 353 127 C359.5008 130.2504 372.3832 131.4289 378 129 C382.6041 127.009 387.4879 119.5027 390 111 C393.066 100.6228 393.2603 92.1917 391 85 C389.8762 81.4241 384.4619 77.6386 379 76 C372.3119 73.9936 361 76 361 76 "/>
<path id="4" d="M290 122 C290 122 300.1309 129.672 311 135 C325.2482 141.9844 326.8364 145.0328 341 147 C359.6611 149.5918 383 145 383 145 "/>
<path id="5" d="M273 152 C273 152 298.5126 161.7521 324 166 C354.5052 171.0842 387 171 387 171 "/>
<path id="6" d="M261 177 C261 177 281.7096 186.9839 303 194 C325.3424 201.3628 326.4028 202.1807 349 206 C360.7625 207.988 362.4384 207.6517 374 206 C382.2583 204.8202 391 200 391 200 "/>
<path id="7" d="M261 220 C261 220 280.8617 228.3529 301 232 C343.495 239.696 388 243 388 243 "/>
<path id="8" d="M274 254 C274 254 291.4884 258.3634 309 260 C344.64 263.3308 381 264 381 264 "/>
<path id="9" d="M298 118 C298 118 294.5134 127.974 293 138 C290.5607 154.16 293.0881 155.5593 290 171 C288.3089 179.4556 285.1165 179.8365 283 188 C281.8751 192.3388 283.9487 193.3354 283 198 C278.1197 221.9948 271 247 271 247 "/>
<path id="10" d="M322 111 C322 111 321.856 121.792 320 132 C317.9071 143.5111 315.4538 143.5517 314 155 C311.5373 174.3941 314.7699 175.9186 312 195 C310.4177 205.9004 309.253 206.5093 305 217 C301.8762 224.7053 299.0816 224.4171 297 232 C292.4428 248.6012 291 268 291 268 "/>
<path id="11" d="M344 106 C344 106 347.764 144.6765 344 180 C341.488 203.5738 336.5193 203.8896 331 228 C327.0618 245.2038 325 263 325 263 "/>
<path id="12" d="M368 136 C368 136 371.3741 155.5978 372 175 C372.8632 201.76 372.1808 202.2351 371 229 C370.6922 235.9771 370.8196 237.2379 369 243 C368.2211 245.4665 366.0006 245.3621 365 248 C360.9077 258.7887 358 272 358 272 "/>
</g>
</g>
</svg>
