<?xml version="1.0" encoding="utf-8"?>
<!DOCTYPE svg PUBLIC "-//W3C//DTD SVG 1.1//EN" "http://www.w3.org/Graphics/SVG/1.1/DTD/svg11.dtd">
<svg viewBox="0 0 800 800" preserveAspectRatio="xMinYMin meet" xmlns="http://www.w3.org/2000/svg" version="1.1">
<g fill="none" stroke="black" stroke-linecap="round" stroke-linejoin="round" stroke-width="1.4833">
<g transform="translate(179.5449,87.52) scale(2.0225) translate(-211.5,-66.6667)">
<path id="0" d="M248.5 130.6667 C248.5 130.6667 236.0928 139.9746 230.5 150.6667 C220.3528 170.0657 220.7682 173.233 214.5 195.6667 C211.4796 206.4767 211.7749 207.2602 211.5 218.6667 C210.7855 248.3176 209.931 249.2654 212.5 278.6667 C214.3684 300.049 214.3651 301.8012 220.5 321.6667 C224.4147 334.3428 225.5275 337.5553 233.5 346.6667 C241.0067 355.2458 244.2 355.0025 255.5 361.6667 C263.4561 366.3587 263.8308 366.7064 272.5 369.6667 C283.9446 373.5746 284.78 374.69 296.5 375.6667 C313.6813 377.0984 315.5608 376.2066 332.5 374.6667 C336.3828 374.3137 337.4429 373.9595 340.5 371.6667 C350.4916 364.173 352.4891 363.6803 360.5 353.6667 C373.7416 337.1147 374.7457 335.6016 384.5 316.6667 C391.2484 303.5668 392.2235 301.7812 394.5 287.6667 C396.9541 272.4515 397.0869 269.9724 394.5 254.6667 C391.3622 236.1011 389.7301 234.9828 382.5 216.6667 C374.8693 197.3354 374.1969 196.9831 364.5 178.6667 C360.8757 171.8207 360.786 171.1825 355.5 165.6667 C338.2773 147.6951 337.6936 145.9565 318.5 130.6667 C309.1639 123.2295 296.5 118.6667 296.5 118.6667 "/>
<path id="1" d="M247.5 129.6667 C247.5 129.6667 240.4144 111.4576 235.5 94.6667 C234.7344 92.0507 234.775 89.7542 235.5 88.6667 C236.3458 87.3979 238.6897 85.8618 241.5 85.6667 C271.4388 83.5876 292.1033 80.5457 307.5 83.6667 C310.1866 84.2113 313.1895 92.5799 315.5 100.6667 C316.8178 105.2791 316.8568 109.7446 315.5 111.6667 C313.7151 114.1952 309.0095 117.2294 303.5 117.6667 C281.0134 119.4513 276.1852 115.8638 252.5 116.6667 C248.7349 116.7943 244.5 119.6667 244.5 119.6667 "/>
<path id="2" d="M310.5 96.6667 C310.5 96.6667 325.7255 92.5916 330.5 95.6667 C346.3161 105.8533 352.8544 113.7975 369.5 134.6667 C385.487 154.7101 384.6944 156.6165 397.5 179.6667 C414.582 210.4143 428.564 240.2096 429.5 242.6667 C429.5379 242.7663 423.6415 243.8088 421.5 242.6667 C418.4841 241.0582 417.3858 238.9953 414.5 234.6667 C401.59 215.3017 402.663 213.471 389.5 194.6667 C385.6083 189.1071 383.0912 190.2393 379.5 184.6667 C369.1825 168.6568 371.8429 164.4618 360.5 149.6667 C350.0419 136.0257 347.6257 135.9672 333.5 124.6667 C322.9808 116.2513 310.5 109.6667 310.5 109.6667 "/>
<path id="3" d="M278.5 103.6667 C278.5 103.6667 266.1863 99.827 260.5 101.6667 C253.8788 103.8088 247.6405 108.2361 244.5 114.6667 C239.6051 124.6897 238.7166 132.3934 239.5 144.6667 C239.9622 151.9074 242.6416 154.9188 247.5 161.6667 C250.7446 166.1731 252.3503 165.9474 257.5 169.6667 C261.2898 172.4037 261.6456 173.6612 265.5 174.6667 C271.8219 176.3159 275.7047 177.3793 280.5 175.6667 C286.0438 173.6867 288.262 170.7777 293.5 164.6667 C299.7518 157.3729 301.7976 155.5282 304.5 147.6667 C306.4506 141.9922 305.5879 139.4658 304.5 132.6667 C303.7283 127.8438 303.3973 126.6175 300.5 122.6667 C293.0626 112.5247 282.5 102.6667 282.5 102.6667 "/>
<path id="4" d="M232.5 88.6667 C232.5 88.6667 230.56 89.8867 230.5 90.6667 C229.8314 99.3579 228.8988 106.9273 230.5 114.6667 C230.9164 116.6793 234.1579 119.3856 236.5 119.6667 C243.1572 120.4655 255.5 117.6667 255.5 117.6667 "/>
<path id="5" d="M270.5 89.6667 C270.5 89.6667 265.5005 66.6681 265.5 66.6667 C265.4998 66.6661 266.364 73.0747 265.5 75.6667 C265.084 76.9147 261.8502 77.441 261.5 78.6667 C260.5702 81.921 260.6825 88.6857 261.5 89.6667 C262.1936 90.499 269.2412 90.872 271.5 90.6667 C271.7694 90.6422 272.5 88.6667 272.5 88.6667 "/>
</g>
</g>
</svg>
