<?xml version="1.0" encoding="utf-8"?>
<!DOCTYPE svg PUBLIC "-//W3C//DTD SVG 1.1//EN" "http://www.w3.org/Graphics/SVG/1.1/DTD/svg11.dtd">
<svg viewBox="0 0 800 800" preserveAspectRatio="xMinYMin meet" xmlns="http://www.w3.org/2000/svg" version="1.1">
<g fill="none" stroke="black" stroke-linecap="round" stroke-linejoin="round" stroke-width="0.68164">
<g transform="translate(144.7346,87.52) scale(4.4011) translate(-211,-87)">
<path id="0" d="M229 100 C229 100 241.9045 91.5076 253 87 C256.0314 85.7685 259.806 86.1316 261 87 C262.3161 87.9572 264.4252 93.5117 264 95 C263.5237 96.6669 260.0887 100.4595 257 101 C244.2712 103.2275 224 102 224 102 C224 102 230.0151 101.003 235 102 C241.7975 103.3595 242.334 106.2793 249 107 C259.4946 108.1346 264.861 107.1422 272 106 C272.7645 105.8777 274.0905 103.1106 274 103 C272.8719 101.6212 263 95 263 95 "/>
<path id="1" d="M276 103 C276 103 268.4759 111.5722 266 119 C264.2071 124.3788 266 133 266 133 "/>
<path id="2" d="M224 101 C224 101 229.3772 100.1257 232 101 C233.7485 101.5828 235.4579 103.1568 236 105 C237.3922 109.7336 235.0391 113.6861 237 118 C238.9079 122.1973 243.1532 122.7298 246 127 C247.2652 128.8979 247.2417 130.8249 247 133 C246.8678 134.1901 245.8171 135.8429 245 136 C237.268 137.4869 230.0783 136.0546 221 138 C219.195 138.3868 217.3318 140.4516 217 142 C216.3315 145.1196 217.5904 151.5319 218 152 C218.1224 152.1399 221.1269 150.0833 224 150 C253.8792 149.1339 269.0402 151.3606 287 150 C287.9632 149.927 290.2726 145.8179 290 145 C289.1366 142.4099 285.9972 137.9979 282 135 C279.5501 133.1626 277.9399 133.4147 274 133 C268.7215 132.4444 267.3861 131.7468 263 133 C258.3291 134.3345 257.6701 137.7817 253 139 C247.7505 140.3694 240 139 240 139 "/>
<path id="3" d="M228 151 C228 151 220.4786 155.2736 218 158 C217.3839 158.6778 217.7383 161.8546 218 162 C219.1255 162.6253 222.5374 163 227 163 C253.7755 163 257.2399 164.2629 281 162 C285.1622 161.6036 288.0688 158.9312 290 157 C290.5518 156.4482 290.4625 153.555 290 153 C289.287 152.1444 285 151 285 151 "/>
<path id="4" d="M266 168 C266 168 234.8408 164.734 222 167 C219.4318 167.4532 214.886 176.9823 215 177 C216.3566 177.2105 252.7996 179.1793 280 176 C285.4032 175.3685 291.67 168.715 292 168 C292.0544 167.8822 288.9333 164.3538 286 163 C283.3655 161.7841 281.211 161.2196 279 162 C274.8519 163.464 273.2548 167.6564 269 169 C265.9739 169.9556 260 168 260 168 "/>
<path id="5" d="M250 176 C250 176 236.2645 177.5862 225 180 C223.5064 180.3201 222.2161 181.2075 222 182 C221.3097 184.531 221.9009 190.9903 222 191 C228.7952 191.6684 269.0316 189.9955 283 188 C283.6497 187.9072 285.3987 182.5981 285 182 C283.9178 180.3767 275 176 275 176 "/>
<path id="6" d="M257 192 C257 192 242.1263 190.4789 233 192 C230.4015 192.4331 227.4952 195.3907 227 197 C226.4659 198.7358 228.4436 204.9292 229 205 C238.7468 206.2405 278.4119 204.8612 282 204 C282.0243 203.9942 280.0594 194.9423 279 193 C278.8628 192.7485 276.5076 193.423 276 193 C274.7873 191.9895 273 188 273 188 "/>
<path id="7" d="M249 206 C249 206 243.532 206.7845 241 209 C236.7998 212.6751 232.9291 219.9731 233 220 C233.6857 220.2601 256.8545 222.0913 270 220 C272.8826 219.5414 277 213.7459 277 213 C277 212.3606 270 207 270 207 "/>
<path id="8" d="M263 225 C263 225 254.6308 224.1905 252 225 C251.2273 225.2377 249.9929 228.9968 250 229 C250.3509 229.1559 258.8627 230.0687 261 229 C262.263 228.3685 264.2944 222.8096 264 222 C263.6739 221.1032 257 218 257 218 "/>
<path id="9" d="M269 107 C269 107 298.4858 104.7202 314 109 C319.743 110.5843 323.8506 118.0134 327 123 C327.6194 123.9808 326.5413 127.6133 326 128 C325.2895 128.5075 322.2133 128.996 320 128 C304.47 121.0115 302.3117 116.8872 286 110 C281.5213 108.109 277.5019 109.834 275 109 C274.5585 108.8528 274 106 274 106 "/>
<path id="10" d="M231 102 C231 102 220.9281 99.312 215 99 C213.938 98.9441 212 100.5536 212 101 C212 103.6787 213.6954 112.1559 215 113 C216.6183 114.0471 224.8931 113.7292 229 112 C231.2633 111.047 233.7393 106.3037 234 105 C234.0782 104.6089 232.4323 102.3979 231 102 C225.1879 100.3855 221.2405 99.476 216 100 C214.0879 100.1912 212.1816 102.3458 211 104 C210.5318 104.6554 210.7653 106.8436 211 107 C211.7822 107.5215 217 108 217 108 "/>
<path id="11" d="M235 139 L236 146 "/>
<path id="12" d="M260 136 L260 148 "/>
<path id="13" d="M237 146 C237 146 238.109 160.2554 238 162 C237.9991 162.0137 236 162 236 162 "/>
<path id="14" d="M259 149 L258 161 "/>
<path id="15" d="M241 169 C241 169 242.3546 177.3617 242 178 C241.86 178.252 236 178 236 178 "/>
<path id="16" d="M262 169 L263 178 "/>
<path id="17" d="M243 182 C243 182 245.85 189.5004 246 191 C246.0129 191.129 244.1895 192.0948 244 192 C243.5578 191.7789 242 189 242 189 "/>
<path id="18" d="M266 176 L265 191 "/>
<path id="19" d="M244 193 C244 193 244.467 201.198 244 204 C243.9434 204.3396 242 205 242 205 "/>
<path id="20" d="M266 193 C266 193 267.1037 203.7562 267 205 C266.9986 205.0174 265 205 265 205 "/>
<path id="21" d="M252 208 L255 224 "/>
<path id="22" d="M268 207 C268 207 265.1955 208.218 265 209 C264.2891 211.8436 265.2404 217.7981 265 219 C264.9904 219.0481 263 219 263 219 "/>
</g>
</g>
</svg>
