<?xml version="1.0" encoding="utf-8"?>
<!DOCTYPE svg PUBLIC "-//W3C//DTD SVG 1.1//EN" "http://www.w3.org/Graphics/SVG/1.1/DTD/svg11.dtd">
<svg viewBox="0 0 800 800" preserveAspectRatio="xMinYMin meet" xmlns="http://www.w3.org/2000/svg" version="1.1">
<g fill="none" stroke="black" stroke-linecap="round" stroke-linejoin="round" stroke-width="0.93606">
<g transform="translate(132.3889,87.52) scale(3.2049) translate(-168,-54)">
<path id="0" d="M199,74C199,74 198.89998546225075,89.75996510940183 199,90C199.01198090816788,90.0287541796029 201.95002364606174,86.40999527078766 204,86C207.4637531497578,85.30724937004844 210.82124227234797,85.77740087397998 214,87C215.38923485875165,87.53432109951986 216.25216821525547,91 217,91C221.48699070846715,91 226.10789747796775,88.11151281525403 235,87C241.7291586653217,86.15885516683478 244.95157793099491,84.75087662833051 249,87C258.5748394965358,92.31935527585321 262.3735019040038,96.77600225659708 271,107C274.6281624893209,111.30004443178777 272.6583476750534,113.66757607721284 276,119C295.7231091848612,150.47304657158696 300.82960197160304,151.39189916677066 318,182C322.21398046850765,189.5118782264702 321.0830423968537,191.60118456775046 322,201C323.04037202268927,211.6638132325649 322,223 322,223"/>
<path id="1" d="M323,224C323,224 326.4068282054322,223.43385461511104 328,222C330.64747665862006,219.61727100724195 332.58838911991586,218.17528393207786 333,215C335.54341638250554,195.37935933495714 338.1232990502474,189.14233203244396 335,168C332.10999847005087,148.43691272034442 328.8877343140371,146.30783661325302 320,127C314.7227236942497,115.53557216336998 311.89716177590975,112.13866951820651 306,105C305.0986203503143,103.90885621353837 302.3403361152032,105.22207116386174 301,104C288.22346270283924,92.35080422905929 285.6192731882273,89.41128281825719 272,74C266.86999785008663,68.1949975672033 268.00775427539793,66.56417141710878 263,61C259.4162516796915,57.018057421879504 257.5154858270423,54.45361107445707 254,54C246.32776708756236,53.01003446291127 242.58354385874912,56.697613032607165 232,57C225.79774208536435,57.17720736898959 224.53566000042736,54.261911999943024 219,55C211.26166900463824,56.03177746604824 208.28448473125033,59.80295528928565 202,61C200.74640199586608,61.23878057221599 198.00489262245836,58.96330533156237 198,59C197.94417962558882,59.41865280808389 200,76 200,76"/>
<path id="2" d="M200,91C200,91 201.6059491444107,118.71933471933472 202,120C202.01535263073725,120.04989604989605 205.4216070113506,117.11210404298475 208,117C215.11343881265688,116.69072005162361 224.66117922974476,119.57798837278835 225,119C226.31861416649116,116.75059936304447 225,88 225,88"/>
<path id="3" d="M204,121C204,121 204.7758048530959,128.62597077911775 203,132C201.0376950938392,135.72837932170552 196.41577195403764,135.4445443152433 194,140C180.42238728561045,165.60349826142027 176.93074381555874,170.52078825981928 168,198C165.04324508739967,207.09770742338563 166.53605409115732,210.04516781986982 168,220C168.8474446237017,225.7626234411716 170.6931239471198,228.66784570139526 173,232C173.5623727691101,232.8123162220479 175.8252571016558,231.99307751570498 177,233C181.69897159337674,237.02768993718004 181.68512110726644,240.4567474048443 187,244C192.31487889273356,247.5432525951557 194.20017158689703,247.6923406897879 201,249C206.45384695343992,250.04881672181537 208.71610606331154,249.61198484809836 213,249C213.81597979746448,248.88343145750508 214.20923306144596,247.07531113700514 215,247C221.85904366267533,246.34675774641187 229.9759590331736,247.60360614502395 234,247C234.3070978632578,246.95393532051133 234.64774965287455,244.06709530421438 235,244C239.52588324791472,243.13792700039718 251.73853378762422,245.75186211669208 255,243C260.31027332329853,238.5194568834669 262.2634327914086,230.21252958186025 267,217C271.61269683327333,204.13300357034282 272.5151471920468,202.76973414839725 274,190C274.84174766203364,182.76097010651057 274.1921248486348,181.2340120004949 272,174C269.4358539635494,165.53831807971306 269.2894533495508,163.82510109619454 264,157C254.69215806054265,144.98988136844213 252.5907654265072,142.32157517800516 241,134C235.2535076016538,129.87431314990528 227.31977731406448,131.17479123193544 225,129C223.94874139846021,128.01444506105645 225,119 225,119"/>
<path id="4" d="M221,103C221,103 221.1651147111085,112.241013373735 222,113C222.82736379980238,113.75214890891126 227.5351468130695,113.78791526828185 232,113C235.3617718113359,112.40674615094072 237.7885333534239,111.51433330822013 239,110C240.0987720748016,108.62653490649801 240.76345942881105,105.41762152456836 240,103C238.3768972773308,97.86017471154758 234.64091285570552,92.0548725500964 233,91C232.4344426565287,90.63642742205415 228.15225418760386,92.04340528399648 226,94C223.7069441365716,96.08459623948037 222,101 222,101"/>
<path id="5" d="M179,174C179,174 186.53574451546422,176.90788359956582 189,176C192.27633967830326,174.7929274869409 194.05394385275952,168.86918449079812 198,167C200.97520106339562,165.5906942331284 204.43945167986223,168.11267135004306 208,167C210.6926646671042,166.15854229152995 211.2286364829684,162.6928408792579 214,162C220.97619092218298,160.25595226945427 224.19795460140352,163.28352548251604 232,161C243.1829317379883,157.72694680839368 255,150 255,150"/>
<path id="6" d="M176,233C176,233 179.35449457255797,234.54850180914735 181,234C186.4066606901667,232.19777976994442 187.46627324324635,229.0417896114855 194,227C202.57719685351608,224.3196259832762 204.73089539868874,226.7563682004371 213,224C218.51273640087416,222.1624211997086 218.36091060478998,219.29740679064113 224,217C231.17702286663095,214.07602772100222 233.90925102174728,216.77626436651667 240,213C256.72319281150123,202.63162045686923 274,186 274,186"/>
<path id="7" d="M168,212C168,212 173.7201288878799,213.39734035904135 176,212C185.8733128000685,205.94861473544188 186.9675931318073,200.12122039137938 199,193C210.21494895223685,186.3625812323496 212.80769715211574,188.75747634483423 225,183C230.28039155889382,180.5064817638557 230.1763703226081,177.837573210435 235,176C239.33401313119046,174.34894737859412 241.7783152307413,176.9065673151491 246,175C255.5374399575929,170.69276905140967 266,162 266,162"/>
<path id="8" d="M190,176C190,176 187.44378941109696,181.11831647793357 187,186C186.00638299993338,196.92978700073283 186.62093086830572,197.62792604917143 187,209C187.115918241721,212.4775472516302 186.71903758414453,213.1534168536545 188,216C190.8542249802954,222.34272217843426 196,229 196,229"/>
<path id="9" d="M211,165C211,165 207.3780309860062,177.82408480380641 210,185C215.24907410832844,199.36588703331995 230,217 230,217"/>
<path id="10" d="M234,163C234,163 233.73639089051713,170.68195445258567 235,177C235.58731127623852,179.9365563811926 235.96606333806673,180.6887083387122 238,183C246.40882147734453,192.5554789515279 257,202 257,202"/>
<path id="11" d="M251,155C251,155 254.27276215132605,168.02433078335935 259,180C261.6463695993978,186.70413631847452 266,193 266,193"/>
</g>
</g>
</svg>
