<?xml version="1.0" encoding="utf-8"?>
<!DOCTYPE svg PUBLIC "-//W3C//DTD SVG 1.1//EN" "http://www.w3.org/Graphics/SVG/1.1/DTD/svg11.dtd">
<svg viewBox="0 0 800 800" preserveAspectRatio="xMinYMin meet" xmlns="http://www.w3.org/2000/svg" version="1.1">
<g fill="none" stroke="black" stroke-linecap="round" stroke-linejoin="round" stroke-width="1.4353">
<g transform="translate(87.52,89.6102) scale(2.0902) translate(-135.5,-52.8333)">
<path id="0" d="M136.5 205.6667 C136.5 205.6667 137.1642 220.6978 140.5 234.6667 C145.0508 253.7233 145.6141 254.2 152.5 272.6667 C156.509 283.418 156.7899 283.7361 162.5 293.6667 C168.1514 303.4951 168.5907 303.5119 175.5 312.6667 C188.5403 329.945 189.9348 332.5308 202.5 346.6667 C203.8961 348.2373 205.1332 348.5421 207.5 348.6667 C222.7986 349.4719 224.9501 350.6104 240.5 348.6667 C251.7501 347.2604 253.9845 346.9531 263.5 341.6667 C274.8243 335.3754 276.154 332.6388 285.5 323.6667 C287.5843 321.6657 287.4642 320.774 288.5 317.6667 C294.8625 298.579 298.8476 297.6691 300.5 278.6667 C304.5852 231.6866 300.5 179.6667 300.5 179.6667 "/>
<path id="1" d="M136.5 210.8333 C136.5 210.8333 134.2587 190.0087 136.5 170.8333 C138.6321 152.5918 138.7706 148.4136 145.5 133.8333 C149.0848 126.0663 152.4122 124.298 160.5 118.8333 C169.7531 112.5813 172.0628 110.1062 182.5 108.8333 C209.4701 105.5443 213.8276 106.9715 242.5 108.8333 C250.779 109.3709 252.0215 110.2074 259.5 113.8333 C267.7135 117.8156 271.2042 120.806 275.5 124.8333 C276.1122 125.4073 274.7798 127.5987 275.5 128.8333 C280.5716 137.5275 283.8049 138.4786 289.5 148.8333 C294.5166 157.9545 294.8925 158.9829 297.5 168.8333 C299.1817 175.1863 298.5 182.8333 298.5 182.8333 "/>
<path id="2" d="M162.5 119.8333 C162.5 119.8333 164.8998 125.4313 165.5 130.8333 C166.3474 138.4598 163.7605 139.6435 165.5 146.8333 C170.8955 169.1349 176.8134 170.2527 180.5 192.8333 C184.4693 217.1451 179.8824 221.378 181.5 244.8333 C181.6928 247.6293 183.9491 247.8426 184.5 250.8333 C187.2524 265.7749 185.0499 267.4231 188.5 282.8333 C192.4291 300.3831 196.1035 300.5677 199.5 317.8333 C201.8942 330.0039 200.5 343.8333 200.5 343.8333 "/>
<path id="3" d="M199.5 109.8333 C199.5 109.8333 199.6224 117.2619 201.5 123.8333 C204.5004 134.3348 207.1139 134.4937 209.5 144.8333 C211.404 153.0841 208.1682 154.9053 210.5 162.8333 C215.231 178.9188 219.3204 179.3805 224.5 195.8333 C227.5385 205.4852 225.0929 206.7237 227.5 216.8333 C230.0126 227.3864 233.7297 227.5879 234.5 237.8333 C238.5161 291.2469 237.5 349.8333 237.5 349.8333 "/>
<path id="4" d="M238.5 108.8333 C238.5 108.8333 253.0654 155.5499 260.5 200.8333 C263.7658 220.7253 257.162 223.4727 260.5 242.8333 C264.282 264.7691 271.7421 265.7557 275.5 287.8333 C279.3857 310.6617 276.5 336.8333 276.5 336.8333 "/>
<path id="5" d="M135.5 167.8333 C135.5 167.8333 139.5 175.3667 143.5 178.8333 C145.4924 180.5601 147.6937 179.1826 150.5 180.8333 C155.5473 183.8023 155.3813 187.1881 160.5 188.8333 C180.5384 195.2743 183.9369 197.3291 206.5 198.8333 C242.2142 201.2143 245.4555 199.621 280.5 196.8333 C287.3038 196.2921 288.6741 195.0376 294.5 191.8333 C297.7347 190.0543 300.5 185.8333 300.5 185.8333 "/>
<path id="6" d="M144.5 248.8333 C144.5 248.8333 147.3948 252.7983 150.5 253.8333 C164.9459 258.6486 167.2944 260.9267 183.5 261.8333 C236.7959 264.8149 246.9184 264.5281 293.5 261.8333 C298.3296 261.5539 304.5 254.8333 304.5 254.8333 "/>
<path id="7" d="M180.5 317.8333 C180.5 317.8333 239.2968 320.4554 280.5 317.8333 C284.8039 317.5595 290.5 310.8333 290.5 310.8333 "/>
<path id="8" d="M142.5 139.8333 C142.5 139.8333 151.8972 146.0325 161.5 148.8333 C175.0253 152.7782 177.1071 150.3089 190.5 153.8333 C195.0573 155.0326 194.9139 157.4101 199.5 158.8333 C208.7322 161.6985 209.6036 162.1265 219.5 162.8333 C237.0625 164.0878 238.9852 165.1512 255.5 162.8333 C265.6487 161.409 265.9986 157.8337 276.5 154.8333 C283.0714 152.9558 285.0622 154.4327 290.5 152.8333 C291.9472 152.4077 293.5 149.8333 293.5 149.8333 "/>
<path id="9" d="M140.5 222.8333 C140.5 222.8333 163.7793 221.7304 185.5 224.8333 C204.891 227.6035 205.2437 232.872 224.5 234.8333 C257.7508 238.22 260.967 237.0383 293.5 235.8333 C299.2308 235.6211 305.5 231.8333 305.5 231.8333 "/>
<path id="10" d="M163.5 287.8333 C163.5 287.8333 236.9987 289.2805 300.5 288.8333 C302.8242 288.817 305.5 286.8333 305.5 286.8333 "/>
<path id="11" d="M189.5 107.8333 C189.5 107.8333 182.742 109.1984 179.5 107.8333 C175.4901 106.145 173.4849 104.2113 170.5 99.8333 C166.68 94.2307 165.3881 92.4049 164.5 85.8333 C163.129 75.6882 164.5654 63.0793 165.5 62.8333 C178.0262 59.537 249.5544 57.3418 259.5 60.8333 C260.8098 61.2932 262.3056 87.9777 259.5 95.8333 C258.5095 98.6069 249.9734 99.2917 244.5 102.8333 C243.2141 103.6654 243.419 106.4504 242.5 106.8333 C239.8893 107.9211 232.5 107.8333 232.5 107.8333 "/>
<path id="12" d="M166.5 62.8333 C166.5 62.8333 160.7146 63.0909 160.5 62.8333 C160.2782 62.5672 160.7311 57.238 161.5 56.8333 C165.2179 54.8766 170.6623 53.0991 179.5 52.8333 C235.5882 51.1465 240.0237 50.3758 294.5 52.8333 C303.1549 53.2238 304.2307 54.9571 312.5 58.8333 C319.7388 62.2265 321.3168 62.2709 326.5 67.8333 C340.6442 83.0125 343.1705 84.2402 353.5 102.8333 C372.3686 136.7968 367.8546 141.872 386.5 175.8333 C395.0182 191.3487 401.4742 189.6265 409.5 204.8333 C419.4334 223.6545 416.446 228.1011 424.5 247.8333 C425.8183 251.0633 428.3977 250.7469 429.5 253.8333 C432.8675 263.2625 435.2576 274.1805 434.5 275.8333 C434.1412 276.6161 424.905 275.7954 418.5 277.8333 C415.5775 278.7632 415.4003 281.6732 412.5 282.8333 C409.0921 284.1965 404.6421 284.9754 403.5 283.8333 C393.2214 273.5548 382.5732 264.3692 372.5 242.8333 C355.1434 205.7261 360.8851 200.0965 345.5 159.8333 C337.6453 139.2773 337.4048 138.0153 325.5 119.8333 C310.4962 96.9184 303.8315 93.7356 290.5 75.8333 C289.9292 75.0668 290.9399 73.2104 290.5 72.8333 C286.7855 69.6495 282.9922 65.781 276.5 63.8333 C270.2799 61.9673 260.5 63.8333 260.5 63.8333 "/>
<path id="13" d="M260.5 52.8333 C260.5 52.8333 255.9596 52.5576 255.5 52.8333 C255.3346 52.9326 255.9729 55.3604 255.5 55.8333 C252.5048 58.8286 246.2304 60.2283 244.5 63.8333 C242.2223 68.5785 243.086 79.074 243.5 80.8333 C243.529 80.9568 247.1457 81.7137 248.5 80.8333 C254.8518 76.7047 261.1523 72.7094 263.5 67.8333 C265.0135 64.6898 261.5 53.8333 261.5 53.8333 "/>
<path id="14" d="M255.5 70.8333 C255.5 70.8333 250.9886 73.172 250.5 74.8333 C249.3389 78.7812 248.759 83.1325 250.5 87.8333 C252.871 94.235 256.0091 99.4275 260.5 101.8333 C265.2567 104.3816 273.1149 103.8125 278.5 102.8333 C279.9836 102.5636 281.6782 100.0933 282.5 97.8333 C283.2639 95.7325 283.3801 94.0964 282.5 91.8333 C280.3406 86.2806 279.3489 85.4587 275.5 79.8333 C272.9542 76.1125 271.929 74.7226 269.5 72.8333 C268.8633 72.3381 266.8526 73.186 266.5 72.8333 C265.6772 72.0105 265.3325 68.2117 264.5 67.8333 C262.7465 67.0363 257.5811 67.0766 255.5 67.8333 C254.7012 68.1238 253.5 71.8333 253.5 71.8333 "/>
</g>
</g>
</svg>
