<?xml version="1.0" encoding="utf-8"?>
<!DOCTYPE svg PUBLIC "-//W3C//DTD SVG 1.1//EN" "http://www.w3.org/Graphics/SVG/1.1/DTD/svg11.dtd">
<svg viewBox="0 0 800 800" preserveAspectRatio="xMinYMin meet" xmlns="http://www.w3.org/2000/svg" version="1.1">
<g fill="none" stroke="black" stroke-linecap="round" stroke-linejoin="round" stroke-width="0.56164">
<g transform="translate(154.2892,87.52) scale(5.3415) translate(-193.5,-84.1667)">
<path id="0" d="M226.5 97.1667 C226.5 97.1667 221.711 95.3863 219.5 96.1667 C215.3519 97.6307 212.5421 98.9838 209.5 103.1667 C201.7882 113.7704 198.807 116.5586 195.5 129.1667 C191.5407 144.2615 192.3451 147.7094 193.5 164.1667 C194.2428 174.7517 195.0517 177.0083 199.5 186.1667 C202.775 192.9094 205.4001 196.981 210.5 199.1667 C218.1498 202.4452 224.1719 202.4577 234.5 201.1667 C241.8384 200.2494 245.0591 198.8015 250.5 194.1667 C256.6015 188.9691 258.325 186.21 261.5 178.1667 C265.1802 168.8435 264.6093 167.0779 265.5 156.1667 C266.5772 142.9715 267.0291 141.7052 265.5 129.1667 C264.6726 122.3821 263.934 121.1189 260.5 115.1667 C256.8861 108.9026 256.0229 106.6813 250.5 103.1667 C241.5039 97.4419 227.5 94.1667 227.5 94.1667 "/>
<path id="1" d="M213.5 98.1667 C213.5 98.1667 210.008 124.2289 208.5 150.1667 C207.5195 167.0317 208.5 184.1667 208.5 184.1667 "/>
<path id="2" d="M223.5 98.1667 L223.5 199.1667 "/>
<path id="3" d="M242.5 101.1667 L245.5 194.1667 "/>
<path id="4" d="M209.5 109.1667 L244.5 108.1667 "/>
<path id="5" d="M199.5 127.1667 L264.5 126.1667 "/>
<path id="6" d="M194.5 148.1667 L260.5 146.1667 "/>
<path id="7" d="M199.5 170.1667 L261.5 170.1667 "/>
<path id="8" d="M203.5 181.1667 C203.5 181.1667 215.5482 183.5789 227.5 184.1667 C245.8131 185.0673 264.5 184.1667 264.5 184.1667 "/>
<path id="9" d="M224.5 95.1667 C224.5 95.1667 223.6766 90.9781 224.5 89.1667 C225.498 86.971 227.3143 84.8952 229.5 84.1667 C232.7785 83.0738 234.6728 83.8219 239.5 84.1667 C241.4654 84.3071 243.4646 84.9367 243.5 85.1667 C243.7561 86.8312 241.5 97.1667 241.5 97.1667 "/>
<path id="10" d="M229.5 94.1667 C229.5 94.1667 224.3352 89.5205 219.5 88.1667 C213.1745 86.3955 210.9648 86.8264 204.5 87.1667 C202.7244 87.2601 201.8458 87.8209 200.5 89.1667 C197.3598 92.3069 195.5392 93.5293 194.5 97.1667 C193.1092 102.0343 192.9009 105.5692 194.5 110.1667 C196.0724 114.6873 198.2093 115.876 202.5 120.1667 C204.8837 122.5504 205.9095 123.8134 208.5 124.1667 C214.7783 125.0228 218.8244 125.3496 224.5 123.1667 C229.1631 121.3732 232.6042 118.3029 234.5 114.1667 C236.6575 109.4594 235.5 99.1667 235.5 99.1667 "/>
<path id="11" d="M226.5 93.1667 C226.5 93.1667 224.363 91.3441 222.5 91.1667 C214.9422 90.4469 211.6248 90.522 205.5 91.1667 C204.7036 91.2505 203.6285 92.3103 203.5 93.1667 C202.4863 99.9249 201.0688 104.9649 202.5 111.1667 C203.2745 114.5226 206.5382 118.2891 209.5 119.1667 C215.8216 121.0397 227.612 120.8973 229.5 119.1667 C231.7813 117.0755 233.5 97.1667 233.5 97.1667 "/>
<path id="12" d="M240.5 89.1667 C240.5 89.1667 256.586 94.2035 270.5 100.1667 C273.1912 101.32 273.9858 101.8954 275.5 104.1667 C278.4596 108.606 279.2673 109.6196 280.5 115.1667 C284.0737 131.2481 284.3418 132.257 285.5 149.1667 C286.8153 168.3696 286.7737 183.6509 285.5 188.1667 C285.3987 188.5259 279.3425 189.1352 274.5 188.1667 C270.1858 187.3038 265.5 184.1667 265.5 184.1667 "/>
</g>
</g>
</svg>
