<?xml version="1.0" encoding="utf-8"?>
<!DOCTYPE svg PUBLIC "-//W3C//DTD SVG 1.1//EN" "http://www.w3.org/Graphics/SVG/1.1/DTD/svg11.dtd">
<svg viewBox="0 0 800 800" preserveAspectRatio="xMinYMin meet" xmlns="http://www.w3.org/2000/svg" version="1.1">
<g fill="none" stroke="black" stroke-linecap="round" stroke-linejoin="round" stroke-width="1.7425">
<g transform="translate(220.9481,87.52) scale(1.7217) translate(-219,-17)">
<path id="0" d="M371 345 C371 345 369.9309 340.2719 371 338 C373.1023 333.5325 374.5455 332.2317 379 328 C384.2308 323.0307 385.1124 321.3986 391 319 C396.9433 316.5787 402.11 315.5996 406 317 C409.8028 318.369 412.5424 322.5255 416 328 C417.8496 330.9286 417.6421 332.0629 418 336 C418.6124 342.7369 419.276 344.1306 418 350 C417.0807 354.2289 416.2257 355.7743 413 359 C405.627 366.373 403.0045 368.9978 395 373 C391.7982 374.6009 388.645 374.215 385 373 C381.355 371.785 379.7424 370.241 377 367 C374.9515 364.579 374.4008 363.3404 374 360 C373.0197 351.8306 374 342 374 342 "/>
<path id="1" d="M418 325 C418 325 411.5782 319.5059 407 313 C392.8531 292.8965 380 271 380 271 "/>
<path id="2" d="M375 365 C375 365 362.8957 354.2845 354 342 C342.3104 325.8572 333 307 333 307 "/>
<path id="3" d="M254 340 C254 340 267.3644 336 277 336 C280.7704 336 282.7359 337.3119 286 340 C290.3105 343.5498 292.6497 345.7563 294 350 C295.2573 353.9516 294.6014 356.967 293 362 C291.4518 366.8659 290.5423 367.9854 287 372 C283.5395 375.9219 282.3004 377.3617 278 379 C273.4363 380.7386 269.2081 381.604 266 380 C259.4444 376.7222 254.2711 372.1185 250 365 C247.1873 360.3122 247.4736 356.3166 248 350 C248.3312 346.0255 249.7767 344.057 252 341 C252.9165 339.7399 256 339 256 339 "/>
<path id="4" d="M250 346 C250 346 249.0814 341.8871 250 339 C252.2607 331.8948 254.743 331.5918 257 324 C260.0641 313.6934 258.0044 312.4845 261 302 C263.8846 291.9038 269 282 269 282 "/>
<path id="5" d="M296 359 C296 359 299.4793 345.3818 301 332 C301.9377 323.7481 299.8662 323.1255 301 315 C302.7899 302.1726 304.6085 293.1453 307 289 C307.4215 288.2694 313.5244 290.2378 316 289 C319.0257 287.4871 322.941 280.9853 323 281 C323.0413 281.0103 322.3478 286.8695 324 291 C327.8763 300.6909 335 311 335 311 "/>
<path id="6" d="M270 283 C270 283 273.8628 275.7228 274 269 C274.818 228.9167 272 185 272 185 "/>
<path id="7" d="M382 273 C382 273 371.6203 264.1423 365 255 C361.9648 250.8085 361.6116 249.4023 361 244 C358.7451 224.0818 360.9664 222.7872 359 202 C357.4865 186.0001 354 170 354 170 "/>
<path id="8" d="M272 187 C272 187 268.242 188.137 267 190 C262.2936 197.0596 261.5706 198.7489 258 208 C250.6809 226.9632 249.8772 234.8069 245 247 C244.7572 247.6069 242.4404 248.2803 242 248 C239.5606 246.4477 237.7353 241.6009 234 240 C229.611 238.119 221.8985 238.1614 221 239 C219.8086 240.112 217.8856 250.6569 219 254 C219.6997 256.0991 223.843 258.7529 228 260 C232.234 261.2702 234.7163 260.8567 239 260 C240.7913 259.6417 242.7858 258.0712 243 257 C243.6653 253.6735 242 245 242 245 "/>
<path id="9" d="M220 238 C220 238 226.6497 203.5834 239 174 C247.4164 153.8399 263 135 263 135 "/>
<path id="10" d="M355 171 C355 171 367.566 172.9539 377 178 C387.8317 183.7937 395.6248 194 398 194 C399.2442 194 403.068 184.5564 409 178 C411.7973 174.9083 413.2861 174.238 417 173 C419.6894 172.1035 422.3944 172.1972 424 173 C425.2615 173.6308 426.6363 175.6967 427 178 C427.9302 183.8911 428.2971 186.552 427 192 C426.2411 195.1873 424.8242 196.4111 422 199 C419.3613 201.4188 418.2845 202.0616 415 203 C412.1765 203.8067 410.6829 203.8255 408 203 C405.2287 202.1473 403.3973 201.0959 402 199 C400.3699 196.5548 400 191 400 191 "/>
<path id="11" d="M425 173 C425 173 415.5711 168.2732 408 162 C398.4574 154.0933 398.6289 150.6376 390 144 C387.4155 142.0119 385.3174 143.8501 382 142 C360.5067 130.0133 338 115 338 115 "/>
<path id="12" d="M293 36 C293 36 285.4776 35.1031 282 37 C276.8794 39.793 274.0602 42.0021 271 48 C262.6842 64.299 261.22 67.6129 257 86 C254.6449 96.2614 254.8927 98.9317 257 109 C259.005 118.5797 260.2661 121.3548 266 129 C270.9837 135.6449 273.4668 137.6519 281 141 C289.4388 144.7506 292.0681 144.7517 302 145 C310.9081 145.2227 313.6978 145.0216 321 142 C325.951 139.9513 327.6557 138.0164 331 133 C336.9058 124.1412 336.7983 122.5042 341 112 C342.6471 107.8824 342.8931 107.3823 343 103 C343.3777 87.5142 344.8177 85.0887 342 71 C340.2674 62.3368 338.5344 60.4594 333 53 C327.755 45.9306 326.1852 46.2054 319 40 C315.2456 36.7575 314.6374 35.0392 311 34 C306.1324 32.6092 298 34 298 34 "/>
<path id="13" d="M260 78 C260 78 252.3011 78.828 251 78 C250.0669 77.4062 250.3138 72.3138 249 71 C247.6862 69.6862 242.5772 69.6734 242 69 C241.7011 68.6513 243.4018 64.8036 243 64 C242.5089 63.0178 238.2308 62.0386 238 61 C237.1704 57.2667 238.0698 48.9767 239 46 C239.1367 45.5626 242.7268 45.478 243 45 C243.4988 44.1271 242.3661 40.0143 243 39 C243.5415 38.1336 247.1772 37.8228 248 37 C248.3526 36.6474 247.973 34.0067 248 34 C248.1258 33.9685 251.9389 36.0458 252 36 C252.0917 35.9312 251.453 32.2763 252 31 C252.3594 30.1613 254.9865 28.9838 255 29 C255.2617 29.3141 256.5226 36.5908 257 37 C257.1771 37.1518 261.7616 34.8297 262 35 C262.4672 35.3337 263.6155 41.6796 264 42 C264.1145 42.0954 267.9416 39.9416 268 40 C268.2338 40.2338 268.7018 46.5527 269 47 C269.0389 47.0583 272 46 272 46 "/>
<path id="14" d="M261 68 C261 68 255.0441 63.7843 254 61 C253.0644 58.505 254.7649 52.0627 255 52 C255.8758 51.7665 269 57 269 57 "/>
<path id="15" d="M324 42 C324 42 323.1778 36.261 324 34 C324.4578 32.741 327.4122 32.4107 328 31 C329.1861 28.1535 328.4134 22.5866 329 22 C329.3519 21.6481 334.8739 23.563 336 23 C337.0395 22.4803 338.1069 17.6379 339 17 C339.4028 16.7123 342.6046 17.5058 343 18 C343.3766 18.4707 342.997 22.001 343 22 C343.0107 21.9964 344.7524 17.8911 346 17 C346.7594 16.4576 349.8769 16.7846 350 17 C350.3769 17.6596 349.4472 23.4472 350 24 C350.7107 24.7107 357.6546 24.3524 358 25 C358.9181 26.7214 358.3585 37.3268 358 39 C357.9835 39.0768 355.0065 38.9547 355 39 C354.7908 40.4642 356.2596 52.1565 356 53 C355.9898 53.0332 351.2558 51.7122 351 52 C350.0592 53.0584 349.8244 59.5675 348 62 C347.032 63.2907 342 64 342 64 "/>
<path id="16" d="M331 51 C331 51 330.6 43.8 331 43 C331.1 42.8 334.6423 43.3577 335 43 C335.5365 42.4635 335.8004 38.1198 336 38 C336.1397 37.9162 338.72 40 340 40 C341.28 40 343.9776 37.9721 344 38 C344.1304 38.163 344.9655 42.4252 344 45 C342.4482 49.138 338 54 338 54 "/>
<path id="17" d="M298 34 L291 35 "/>
<path id="18" d="M319 179 C319 179 315.2636 173.9432 313 173 C311.5131 172.3805 307.2019 173.4448 307 174 C305.6214 177.7912 304.7538 189.3363 305 195 C305.0251 195.577 306.8914 197 308 197 C312.065 197 316.2551 196.478 319 195 C320.0665 194.4257 321 192.1323 321 190 C321 185.309 319 179 319 179 "/>
<path id="19" d="M321 227 C321 227 311.4342 225.4869 311 226 C310.1361 227.021 309.0057 234.7799 310 240 C310.5726 243.0061 313.1154 246.2462 315 247 C317.3195 247.9278 324.4255 246.8878 325 246 C326.2801 244.0216 326.3458 236.9159 326 230 C325.9111 228.2223 324 226 324 226 "/>
<path id="20" d="M317 236 L316 235 "/>
<path id="21" d="M322 242 L322 241 "/>
<path id="22" d="M323 235 L323 233 "/>
<path id="23" d="M318 243 L317 241 "/>
<path id="24" d="M311 192 L311 191 "/>
<path id="25" d="M311 184 L311 183 "/>
<path id="26" d="M316 191 L316 191 "/>
<path id="27" d="M316 191 L316 190 "/>
<path id="28" d="M316 185 L316 183 "/>
<path id="29" d="M293 67 C293 67 290.5163 63.4135 289 63 C286.9963 62.4535 282.5207 63.1901 282 64 C280.6477 66.1037 279.721 71.6989 280 77 C280.1332 79.5315 281.1715 80.943 283 83 C284.5706 84.7669 285.6655 85.2997 288 86 C289.9784 86.5935 291.4032 86.5988 293 86 C294.3174 85.506 295.8585 84.132 296 83 C296.5398 78.6817 295 70 295 70 "/>
<path id="30" d="M322 66 C322 66 320.2419 61.5174 319 61 C316.8013 60.0839 310.3242 60.4489 310 61 C308.9231 62.8308 307.7937 72.451 309 78 C309.525 80.4151 312.9551 83.4158 315 84 C316.9691 84.5626 322.1077 83.2492 323 82 C324.5533 79.8254 325.4833 74.5914 325 70 C324.6958 67.1098 321 63 321 63 "/>
<path id="31" d="M295 71 L294 68 "/>
<path id="32" d="M286 73 L286 72 "/>
<path id="33" d="M290 71 L290 70 "/>
<path id="34" d="M288 80 L288 78 "/>
<path id="35" d="M292 78 L292 76 "/>
<path id="36" d="M314 70 L314 68 "/>
<path id="37" d="M320 72 L320 71 "/>
<path id="38" d="M315 76 L315 75 "/>
<path id="39" d="M320 79 L320 78 "/>
<path id="40" d="M305 88 C305 88 299.9454 98.9514 300 99 C300.1296 99.1152 313.8694 96.1679 314 96 C314.0052 95.9933 307 90 307 90 "/>
<path id="41" d="M307 98 L308 104 "/>
<path id="42" d="M308 110 L306 117 "/>
<path id="43" d="M303 123 L299 124 "/>
<path id="44" d="M294 124 C294 124 291.2094 124.2617 291 124 C290.494 123.3675 290 119 290 119 "/>
<path id="45" d="M288 114 L287 109 "/>
<path id="46" d="M286 104 L284 100 "/>
<path id="47" d="M312 110 L314 112 "/>
<path id="48" d="M319 116 L322 116 "/>
<path id="49" d="M328 115 L329 111 "/>
<path id="50" d="M330 105 L330 99 "/>
<path id="51" d="M330 91 L330 87 "/>
<path id="52" d="M284 144 C284 144 288.763 172.6953 289 173 C289.0288 173.0371 293.098 166.6297 298 162 C301.7081 158.4979 304.2903 159.335 307 156 C309.6969 152.6807 309.4863 147.8922 311 146 C311.367 145.5413 314.8791 145.7582 315 146 C315.6347 147.2694 316.5396 155.0106 316 156 C315.725 156.5042 309.572 157.1634 309 157 C308.927 156.9791 309 154 309 154 "/>
<path id="53" d="M317 154 C317 154 333.974 163.038 334 163 C334.2496 162.6352 330 135 330 135 "/>
<path id="54" d="M370 266 C370 266 362.6624 277.3757 362 284 C361.5948 288.0521 363.7662 291.2736 367 296 C369.6158 299.823 374.4746 303.2284 375 303 C377.3735 301.968 390 286 390 286 "/>
<path id="55" d="M363 272 L369 277 "/>
<path id="56" d="M367 265 L371 270 "/>
<path id="57" d="M367 288 L363 294 "/>
<path id="58" d="M369 294 L366 299 "/>
<path id="59" d="M380 291 L385 298 "/>
<path id="60" d="M384 288 L389 295 "/>
<path id="61" d="M291 76 C291 76 288.0124 73.9876 288 74 C287.938 74.062 287.938 78.938 288 79 C288.0124 79.0124 291 77.0947 291 77 C291 76.9053 288.046 74.9655 288 75 C287.8543 75.1093 286.9792 79.9167 287 80 C287.0022 80.0088 289 79 289 79 "/>
<path id="62" d="M287 75 C287 75 287.5541 72.2675 288 72 C288.6369 71.6178 291.9428 71.8665 292 72 C292.2192 72.5116 291.4461 78.5539 291 79 C290.777 79.223 286.5365 78.5365 286 78 C285.6423 77.6423 285.75 74.25 286 74 C286.25 73.75 290 74 290 74 "/>
<path id="63" d="M319 75 C319 75 316.8662 70.2676 317 70 C317.1171 69.7659 321.9872 68.966 322 69 C322.1204 69.321 320.7946 76.5697 320 78 C319.869 78.2358 317.0763 78.1716 317 78 C316.4597 76.7844 315.7428 69.7715 316 69 C316.0396 68.8813 320 69 320 69 "/>
<path id="64" d="M406 334 C406 334 406.3831 331.4789 406 331 C405.3359 330.1699 403.874 329.2205 402 329 C396.2477 328.3233 391.1568 327.5621 389 329 C386.8432 330.4379 385.2038 335.2219 384 341 C382.8924 346.3166 382.4884 349.8088 384 353 C385.4188 355.9952 389.9182 358.9727 393 360 C394.4503 360.4834 396.7606 359.5504 399 358 C402.5924 355.5129 405.0226 354.1767 406 351 C408.0616 344.2997 407 332 407 332 "/>
<path id="65" d="M278 352 C278 352 273.4815 347.7737 270 347 C266.2638 346.1697 260.4082 347.3196 260 348 C259.2185 349.3025 259.3849 356.6163 261 362 C261.8471 364.8236 263.7064 367.108 266 368 C270.1876 369.6285 274.6817 369.5398 279 369 C280.132 368.8585 281.7478 367.261 282 366 C282.8406 361.7968 282.8299 356.9045 282 354 C281.7827 353.2393 278 352 278 352 "/>
<path id="66" d="M235 248 C235 248 226.4621 245.7433 226 246 C225.7722 246.1265 225.4306 252.5729 226 253 C227.4643 254.0982 237.4318 255.2066 238 255 C238.0596 254.9783 237 249 237 249 "/>
<path id="67" d="M420 180 C420 180 414.2944 183.4111 413 186 C411.91 188.1801 412.52 193.36 413 194 C413.27 194.36 418.092 194.7062 419 194 C420.2779 193.0061 421.6032 190.1742 422 187 C422.4775 183.1802 421 178 421 178 "/>
</g>
</g>
</svg>
