<?xml version="1.0" encoding="utf-8"?>
<!DOCTYPE svg PUBLIC "-//W3C//DTD SVG 1.1//EN" "http://www.w3.org/Graphics/SVG/1.1/DTD/svg11.dtd">
<svg viewBox="0 0 800 800" preserveAspectRatio="xMinYMin meet" xmlns="http://www.w3.org/2000/svg" version="1.1">
<g fill="none" stroke="black" stroke-linecap="round" stroke-linejoin="round" stroke-width="1.8001">
<g transform="translate(117.5181,87.52) scale(1.6666) translate(-158,-51.1333)">
<path id="0" d="M216 85.1333 C216 85.1333 216.1605 80.2488 218 78.1333 C224.6625 70.4714 226.8117 68.9395 236 62.1333 C239.6822 59.4058 240.4238 59.182 245 58.1333 C263.7373 53.8394 264.6667 53.3889 284 51.1333 C294.1967 49.9437 294.8961 49.9585 305 51.1333 C315.8648 52.3967 316.4038 52.7152 327 56.1333 C347.1212 62.624 347.864 62.4623 367 71.1333 C379.4081 76.7557 391 85.1333 391 85.1333 "/>
<path id="1" d="M216 167.1333 C216 167.1333 215.2713 169.8783 216 171.1333 C222.8232 182.8844 223.7936 189.4153 234 198.1333 C244.4291 207.0415 248.8119 206.1772 264 212.1333 C273.9939 216.0525 274.7066 216.9896 285 218.1333 C300.6777 219.8753 301.7321 219.3689 318 218.1333 C340.9011 216.394 341.8666 216.2599 364 212.1333 C370.5445 210.9132 371.4602 210.5957 377 207.1333 C386.7484 201.0406 390.8023 200.349 396 192.1333 C404.0007 179.4871 404.9489 174.6601 408 158.1333 C410.6117 143.9865 408 127.1333 408 127.1333 "/>
<path id="2" d="M389 80.1333 C389 80.1333 388.3166 75.8168 389 75.1333 C391.3237 72.8096 394.8192 70.2846 400 69.1333 C406.7211 67.6398 410.7715 67.0793 416 69.1333 C421.3335 71.2286 423.8235 74.3906 428 80.1333 C430.9447 84.1823 431.2096 85.7979 432 91.1333 C433.091 98.4973 433.9738 101.212 432 107.1333 C429.8617 113.5481 426.7662 118.0829 422 121.1333 C417.9075 123.7525 407 123.1333 407 123.1333 "/>
<path id="3" d="M217 85.1333 C217 85.1333 217.1101 78.542 215 75.1333 C211.656 69.7314 208.8208 66.4389 204 64.1333 C200.4424 62.4319 197.1422 62.7309 192 64.1333 C181.9493 66.8744 178.9799 67.5474 171 73.1333 C165.9139 76.6936 163.2846 79.5278 162 85.1333 C158.6695 99.6662 160.4108 103.4679 160 121.1333 C159.9205 124.5524 159.7386 125.2952 161 128.1333 C163.391 133.513 164.1458 135.7325 168 139.1333 C171.1214 141.8875 173.1762 142.0614 178 143.1333 C181.544 143.9209 182.4117 143.9995 186 143.1333 C196.1772 140.6768 207 136.1333 207 136.1333 "/>
<path id="4" d="M207 136.1333 C207 136.1333 207.4623 147.617 210 157.1333 C211.2029 161.6441 215 166.1333 215 166.1333 "/>
<path id="5" d="M279 215.1333 C279 215.1333 272.7903 208.6652 272 203.1333 C269.7508 187.3889 270.2664 181.7355 272 166.1333 C272.4009 162.5256 273.9387 161.3338 277 158.1333 C284.4866 150.3064 285.1765 147.8679 294 143.1333 C303.7772 137.887 306.5568 137.301 318 136.1333 C329.481 134.9618 333.4244 135.0277 343 138.1333 C348.6909 139.979 349.8832 142.7323 355 148.1333 C358.5162 151.8449 358.9107 152.4323 361 157.1333 C364.7011 165.4608 365.577 166.3582 367 175.1333 C368.425 183.921 368.354 185.4676 367 194.1333 C366.0179 200.4189 364.8962 202.4994 362 207.1333 C360.8999 208.8935 357 210.1333 357 210.1333 "/>
<path id="6" d="M317 129.1333 C317 129.1333 313.4827 128.3493 311 129.1333 C304.8369 131.0796 303.3384 131.6791 298 135.1333 C295.7121 136.6137 293.976 140.111 294 140.1333 C294.9506 141.0161 303.4843 145.2948 312 148.1333 C314.4723 148.9574 317.6002 148.733 318 148.1333 C320.1989 144.835 324.2052 131.4328 324 130.1333 C323.9709 129.9488 318.1525 128.1303 315 129.1333 C309.3553 130.9294 302 137.1333 302 137.1333 "/>
<path id="7" d="M256 126.1333 C256 126.1333 258.9996 139.1337 259 139.1333 C259.0007 139.1327 259.0813 123.5125 259 123.1333 C258.9931 123.1012 256 125.1333 256 125.1333 "/>
<path id="8" d="M366 121.1333 C366 121.1333 366.851 133.997 368 138.1333 C368.12 138.5653 370.9961 139.1504 371 139.1333 C371.1793 138.3565 371.7662 129.2196 371 125.1333 C370.8598 124.3854 368.0021 123.121 368 123.1333 C367.9895 123.1964 370 131.1333 370 131.1333 "/>
<path id="9" d="M298 54.1333 L300 67.1333 "/>
<path id="10" d="M302 76.1333 L303 90.1333 "/>
<path id="11" d="M305 98.1333 L306 113.1333 "/>
<path id="12" d="M208 124.1333 C208 124.1333 198.5865 127.1426 190 128.1333 C186.3328 128.5565 183.4486 128.4785 182 127.1333 C179.2187 124.5507 177.1786 120.8297 176 115.1333 C174.4869 107.8201 174.051 104.4135 176 98.1333 C177.696 92.6685 180.9238 88.253 185 86.1333 C189.4186 83.8357 197.4124 83.154 201 85.1333 C206.1971 88.0007 214 102.1333 214 102.1333 "/>
<path id="13" d="M398 91.1333 C398 91.1333 399.8473 82.8427 401 82.1333 C402.267 81.3537 407.2273 81.5448 411 83.1333 C415.3252 84.9545 418.0831 86.8747 420 90.1333 C421.6509 92.9398 421.2736 96.8496 421 100.1333 C420.9402 100.8508 419.816 102.0168 419 102.1333 C414.7161 102.7453 410.069 102.6055 407 102.1333 C406.6656 102.0819 406 100.1333 406 100.1333 "/>
<path id="14" d="M301 170.1333 C301 170.1333 308.2844 172.0076 312 171.1333 C314.4771 170.5505 317.2098 168.3911 318 166.1333 C319.7085 161.252 319.3011 156.2528 319 151.1333 C318.9573 150.4077 316.9991 149.13 317 149.1333 C317.0078 149.1631 321.5447 166.1671 324 170.1333 C324.36 170.7148 328.1158 170.887 330 170.1333 C331.7586 169.4299 334 166.1333 334 166.1333 "/>
<path id="15" d="M258 125.1333 L257 123.1333 "/>
<path id="16" d="M369 136.1333 C369 136.1333 370.0324 121.5869 370 121.1333 C369.9981 121.1073 368 122.1333 368 122.1333 "/>
<path id="17" d="M369 121.1333 L369 120.1333 "/>
<path id="18" d="M259 126.1333 C259 126.1333 260.9322 125.9977 261 126.1333 C261.4406 127.0146 262 129.272 262 132.1333 C262 135.4716 261.0013 139.1356 261 139.1333 C260.9968 139.1277 258 125.1333 258 125.1333 "/>
<path id="19" d="M242 207.1333 C242 207.1333 241.7432 252.997 244 298.1333 C244.7234 312.6007 245.0215 313.2339 248 327.1333 C249.4037 333.684 250.1884 333.8072 253 340.1333 C256.1605 347.2445 255.7541 348.8883 260 354.1333 C263.259 358.1592 264.7932 359.2892 270 361.1333 C287.3329 367.2721 289.3086 368.5729 308 371.1333 C324.6167 373.4096 326.3577 372.7335 343 371.1333 C351.312 370.3341 352.6964 369.8895 360 366.1333 C369.2121 361.3957 370.5647 360.5687 378 353.1333 C387.3541 343.7792 390.0272 342.0261 395 331.1333 C399.3153 321.6808 397.9636 319.052 399 307.1333 C399.9365 296.3639 401.0036 295.3868 399 285.1333 C392.7779 253.2908 382 220.1333 382 220.1333 "/>
<path id="20" d="M381 218.1333 L379 211.1333 "/>
<path id="21" d="M403 309.1333 L418 321.1333 "/>
<path id="22" d="M422 343.1333 C422 343.1333 420.729 328.4788 422 315.1333 C422.6528 308.279 422.9073 307.1255 426 301.1333 C430.4652 292.482 431.384 290.4847 438 284.1333 C442.6069 279.7107 444.8681 278.8503 451 277.1333 C455.9186 275.7561 457.6097 276.2822 463 277.1333 C466.3571 277.6634 467.4394 277.9995 470 280.1333 C475.6603 284.8502 477.5319 285.7173 481 292.1333 C486.7715 302.8106 487.5732 304.9991 490 317.1333 C491.8111 326.1887 490 337.1333 490 337.1333 "/>
<path id="23" d="M476 393.1333 L473 395.1333 "/>
<path id="24" d="M492 333.1333 C492 333.1333 490.0608 346.5757 486 358.1333 C483.834 364.2982 483.3461 365.3216 479 370.1333 C469.9942 380.1041 469.0245 381.4162 458 389.1333 C449.8682 394.8256 448.2456 395.8219 439 398.1333 C429.7544 400.4447 427.5851 399.7944 418 399.1333 C414.2418 398.8741 412.5484 398.5574 410 396.1333 C394.2116 381.1151 377 360.1333 377 360.1333 "/>
<path id="25" d="M450 390.1333 C450 390.1333 446.497 387.897 445 385.1333 C440.4685 376.7675 439.6914 375.6755 437 366.1333 C434.3606 356.7753 434.1885 355.9367 434 346.1333 C433.6996 330.5118 432.6644 328.0318 436 314.1333 C438.095 305.404 440.1601 302.4599 446 296.1333 C450.4872 291.2722 453.4342 290.0788 460 288.1333 C465.214 286.5884 469.2115 286.2391 473 288.1333 C478.6827 290.9747 486 301.1333 486 301.1333 "/>
<path id="26" d="M387 222.1333 C387 222.1333 400.3408 221.991 413 224.1333 C432.4768 227.4294 433.4742 226.9581 452 233.1333 C468.7614 238.7205 471.3011 239.3052 485 248.1333 C491.7496 252.483 494.5716 255.86 497 262.1333 C499.2141 267.8531 497.7126 271.2952 497 279.1333 C496.7828 281.5225 496.4584 282.529 495 284.1333 C492.1609 287.2564 487 290.1333 487 290.1333 "/>
<path id="27" d="M432 288.1333 L397 278.1333 "/>
<path id="28" d="M241 227.1333 C241 227.1333 237.2489 226.1531 235 227.1333 C219.8538 233.7355 217.063 234.1686 202 244.1333 C185.2506 255.2137 182.7701 256.2023 170 270.1333 C162.3841 278.4416 161.6296 281.8495 158 292.1333 C156.3398 296.8371 156.8636 298.9061 158 304.1333 C159.1446 309.3984 160.0404 310.694 163 315.1333 C164.5142 317.4046 165.5364 318.4976 168 319.1333 C179.0402 321.9824 182.2682 323.1333 194 323.1333 C199.8659 323.1333 201.2246 322.021 207 319.1333 C215.6631 314.8018 216.2475 314.2245 224 308.1333 C229.9385 303.4674 230.5728 303.0363 235 297.1333 C239.1972 291.537 242 284.1333 242 284.1333 "/>
<path id="29" d="M246 318.1333 C246 318.1333 246.03 321.1033 245 322.1333 C236.9658 330.1675 224 340.1333 224 340.1333 "/>
<path id="30" d="M230 366.1333 C230 366.1333 231.1397 360.5885 230 356.1333 C225.9183 340.1776 225.2892 337.9314 219 323.1333 C217.4058 319.3823 216.3933 318.6783 213 316.1333 C206.9674 311.6089 205.5539 310.2306 199 308.1333 C194.6466 306.7402 191.4435 306.356 188 308.1333 C179.154 312.699 174.3875 315.7804 168 324.1333 C163.3895 330.1625 163.3499 333.3588 162 342.1333 C160.5019 351.8709 161.0672 352.8728 162 363.1333 C163.0378 374.5487 163.1023 375.0255 166 386.1333 C169.0235 397.7233 168.8339 399.0882 174 409.1333 C177.2662 415.4843 178.7216 416.9106 184 421.1333 C187.5548 423.9772 189.0707 424.2205 194 425.1333 C201.8868 426.5939 203.9903 427.843 211 426.1333 C222.1625 423.4108 226.1407 422.3444 235 415.1333 C245.3598 406.701 245.7896 403.6905 254 391.1333 C262.5225 378.0989 269 363.1333 269 363.1333 "/>
<path id="31" d="M164 363.1333 C164 363.1333 161.626 351.0468 164 343.1333 C166.8014 333.7954 169.589 329.8115 176 323.1333 C179.3601 319.6332 182.2256 319.4457 188 318.1333 C192.3957 317.1343 194.2807 316.6722 198 318.1333 C206.302 321.3948 211.1912 322.8998 216 329.1333 C221.9792 336.8841 222.8616 341.3723 225 353.1333 C227.6009 367.4384 228.1268 370.5751 226 384.1333 C224.5236 393.5457 222.2298 398.2213 217 404.1333 C213.5614 408.0205 203 410.1333 203 410.1333 "/>
<path id="32" d="M203 411.1333 C203 411.1333 190.1998 412.3199 182 410.1333 C177.8102 409.016 173 403.1333 173 403.1333 "/>
<path id="33" d="M314 223.1333 L318 242.1333 "/>
<path id="34" d="M319 250.1333 L320 272.1333 "/>
<path id="35" d="M323 283.1333 L324 303.1333 "/>
<path id="36" d="M325 310.1333 L328 342.1333 "/>
<path id="37" d="M329 350.1333 L332 375.1333 "/>
</g>
</g>
</svg>
