<?xml version="1.0" encoding="utf-8"?>
<!DOCTYPE svg PUBLIC "-//W3C//DTD SVG 1.1//EN" "http://www.w3.org/Graphics/SVG/1.1/DTD/svg11.dtd">
<svg viewBox="0 0 800 800" preserveAspectRatio="xMinYMin meet" xmlns="http://www.w3.org/2000/svg" version="1.1">
<g fill="none" stroke="black" stroke-linecap="round" stroke-linejoin="round" stroke-width="1.9489">
<g transform="translate(87.52,115.8177) scale(1.5393) translate(-93,-102.2)">
<path id="0" d="M164 209.2 C164 209.2 158.8405 210.2652 156 209.2 C152.3605 207.8352 151.1724 206.6896 148 203.2 C141.5684 196.1252 140.5238 195.4936 136 187.2 C131.9323 179.7425 131.3774 178.4646 130 170.2 C128.546 161.4762 128.2467 159.2149 130 151.2 C131.3409 145.0702 132.5439 143.4244 137 138.2 C146.3405 127.2491 147.8001 125.5199 159 117.2 C163.9787 113.5016 165.605 113.3285 172 112.2 C181.7551 110.4785 187.6092 108.6544 193 111.2 C199.1713 114.1142 201.4821 119.8888 208 129.2 C211.7049 134.4927 211.3467 135.0973 214 141.2 C216.3138 146.5217 217.0948 146.7688 218 152.2 C219.4871 161.1227 219 171.2 219 171.2 "/>
<path id="1" d="M219 168.2 C219 168.2 217.1942 159.4246 219 156.2 C222.1361 150.5999 225.5451 148.0923 233 143.2 C240.6927 138.1517 241.9623 137.8162 251 135.2 C260.2835 132.5127 261.0552 132.9851 271 132.2 C279.8456 131.5017 280.6329 130.8432 289 132.2 C298.2842 133.7055 299.3814 134.3365 308 138.2 C313.2205 140.5402 314.6059 141.0345 318 145.2 C324.6721 153.3885 330 165.2 330 165.2 "/>
<path id="2" d="M326 164.2 C326 164.2 323.4094 159.5672 323 155.2 C321.9854 144.3777 320.969 142.1013 323 132.2 C324.5578 124.6057 326.2678 123.1591 331 116.2 C334.3372 111.2923 335.1911 110.7434 340 107.2 C344.2098 104.098 345.258 103.1119 350 102.2 C356.9217 100.8689 359.5559 100.1019 366 102.2 C378.7103 106.3382 383.4812 107.5465 393 116.2 C402.7366 125.0515 403.93 129.0043 410 142.2 C414.8029 152.6411 414.5812 154.3765 416 166.2 C417.4923 178.6357 418.5009 182.6967 416 192.2 C414.5926 197.548 411.6611 199.9541 406 204.2 C396.7634 211.1274 394.6533 211.7325 384 216.2 C380.2879 217.7567 375 217.2 375 217.2 "/>
<path id="3" d="M161 211.2 C161 211.2 150.8451 213.7226 148 217.2 C144.5641 221.3995 144.3959 225.3829 143 233.2 C142.0084 238.7529 142.0622 239.5732 143 245.2 C144.4718 254.031 144.4083 255.247 148 263.2 C151.0255 269.8993 151.9048 273.2561 157 276.2 C170.4272 283.9579 174.7963 284.2558 193 289.2 C214.8479 295.134 215.736 296.6586 238 298.2 C279.4799 301.0717 281.343 300.7834 323 298.2 C344.8068 296.8476 347.5599 295.9979 367 290.2 C373.5732 288.2396 375.5852 286.5608 380 281.2 C388.3684 271.0384 391.7648 267.1498 395 256.2 C397.0235 249.3511 395.7899 245.1404 393 237.2 C389.904 228.3882 386.852 225.7848 382 219.2 C381.4033 218.3902 379 218.2 379 218.2 "/>
<path id="4" d="M231 210.2 C231 210.2 228.6411 199.5037 229 199.2 C229.7367 198.5766 241.63 198.0847 244 199.2 C244.9108 199.6286 246.4894 206.6217 246 207.2 C244.7587 208.667 233.6442 212.2495 233 212.2 C232.9764 212.1982 233 206.2 233 206.2 "/>
<path id="5" d="M301 206.2 C301 206.2 296.4544 205.7453 296 205.2 C295.5602 204.6723 295.6682 200.3561 296 200.2 C298.596 198.9783 311.1702 196.5259 313 197.2 C313.6544 197.4411 315.3231 206.8769 315 207.2 C314.5153 207.6847 303 207.2 303 207.2 "/>
<path id="6" d="M292 232.2 C292 232.2 287.2007 227.9001 283 227.2 C274.029 225.7048 268.6755 225.2927 262 227.2 C259.0483 228.0434 255.8386 231.8457 255 235.2 C253.6454 240.6184 253.9702 248.9769 256 251.2 C259.0316 254.5204 266.2745 256.4085 276 258.2 C284.2228 259.7147 287.6528 259.354 294 258.2 C295.6669 257.8969 297.6229 255.8971 298 254.2 C299.08 249.3401 299.5531 245.081 298 240.2 C296.8655 236.6343 291 232.2 291 232.2 "/>
<path id="7" d="M273 259.2 C273 259.2 274.5794 270.4061 274 276.2 C273.8869 277.3314 272.3892 278.9023 271 279.2 C261.221 281.2955 255.0989 283.0272 246 282.2 C242.8555 281.9141 240.2943 279.6414 238 276.2 C233.2765 269.1148 230 258.2 230 258.2 "/>
<path id="8" d="M275 260.2 C275 260.2 274.3096 268.2959 275 275.2 C275.2393 277.5934 275.651 278.6583 277 280.2 C278.4739 281.8845 279.5959 282.7993 282 283.2 C293.0735 285.0456 297.165 286.9211 307 285.2 C313.6132 284.0427 322 276.2 322 276.2 "/>
<path id="9" d="M216 297.4333 C216 297.4333 192.863 296.4489 171 293.4333 C164.4957 292.5362 163.8875 292.1095 158 289.4333 C153.3405 287.3154 153.4286 284.4482 149 283.4333 C131.8635 279.5062 128.5553 280.1202 110 278.4333 C107.6913 278.2235 106.5642 278.2862 105 279.4333 C100.271 282.9013 98.1299 284.4777 95 289.4333 C93.0312 292.5506 93.3703 293.9894 93 298.4333 C92.394 305.7053 90.7901 308.0467 93 313.4333 C97.5029 324.4092 100.6544 326.4323 109 337.4333 C111.2058 340.341 112.0113 341.5794 115 342.4333 C127.242 345.9311 129.6047 346.2134 144 347.4333 C158.6773 348.6772 159.1071 348.0412 174 347.4333 C183.4727 347.0467 183.9869 347.4362 193 345.4333 C201.498 343.5449 210 339.4333 210 339.4333 "/>
<path id="10" d="M350 296.4333 C350 296.4333 358.4547 297.1101 366 295.4333 C384.8116 291.253 385.3714 286.7887 404 284.4333 C427.1729 281.5034 430.801 282.5834 453 284.4333 C458.1722 284.8644 460.1327 285.8423 464 289.4333 C479.4691 303.7975 481.6063 306.5956 495 323.4333 C498.0098 327.2171 497.928 328.6095 499 333.4333 C499.7876 336.9773 499.8914 338.5361 499 341.4333 C498.3057 343.6898 497.1006 345.7233 495 346.4333 C467.8954 355.5955 460.6394 358.0506 428 365.4333 C420.2176 367.1936 418.8543 366.3759 411 365.4333 C407.1375 364.9698 406.0843 364.7466 403 362.4333 C389.1582 352.052 375 338.4333 375 338.4333 "/>
<path id="11" d="M215 343.4333 C215 343.4333 211.3392 344.6478 210 346.4333 C207.6192 349.6077 206.4885 351.1594 206 355.4333 C204.6571 367.1836 203.6599 369.9667 206 381.4333 C208.2538 392.477 209.1236 396.3227 216 404.4333 C226.3953 416.6945 234.1319 420.602 245 427.4333 C246.3433 428.2777 248.7379 425.9486 251 426.4333 C254.463 427.1754 255.3629 430.2419 259 430.4333 C280.6827 431.5745 285.2767 433.625 308 429.4333 C334.4821 424.5483 339.4474 421.8422 362 411.4333 C367.9862 408.6705 368.6179 405.7325 373 399.4333 C376.2284 394.7925 376.7871 393.959 378 388.4333 C381.0959 374.3296 380.9717 373.1725 382 358.4333 C382.4391 352.1392 381 345.4333 381 345.4333 "/>
<path id="12" d="M233 422.4333 C233 422.4333 228.2469 421.9348 225 423.4333 C210.094 430.313 207.5618 430.7042 194 440.4333 C185.6868 446.3971 179.0888 456.1966 179 456.4333 C178.9861 456.4703 184.0695 455.3852 188 456.4333 C198.1029 459.1274 198.8327 462.4967 209 464.4333 C218.4795 466.2389 224.4545 467.7606 230 464.4333 C242.4114 456.9865 259 434.4333 259 434.4333 "/>
<path id="13" d="M356 415.4333 C356 415.4333 380.5495 418.0234 403 422.4333 C407.5415 423.3254 407.9029 423.912 412 426.4333 C427.1235 435.7401 432.3666 437.0918 442 446.4333 C444.8546 449.2014 445.4763 458.0099 445 458.4333 C443.4744 459.7895 433.7634 459.2602 424 462.4333 C414.4007 465.5531 413.8654 469.7035 405 471.4333 C395.6866 473.2506 391.8532 473.2404 383 470.4333 C373.9533 467.5649 372.1137 465.388 364 458.4333 C355.2926 450.9698 354.4831 449.8879 348 440.4333 C342.9682 433.0954 340 423.4333 340 423.4333 "/>
</g>
</g>
</svg>
