<?xml version="1.0" encoding="utf-8"?>
<!DOCTYPE svg PUBLIC "-//W3C//DTD SVG 1.1//EN" "http://www.w3.org/Graphics/SVG/1.1/DTD/svg11.dtd">
<svg viewBox="0 0 800 800" preserveAspectRatio="xMinYMin meet" xmlns="http://www.w3.org/2000/svg" version="1.1">
<g fill="none" stroke="black" stroke-linecap="round" stroke-linejoin="round" stroke-width="0.78725">
<g transform="translate(190.4098,87.52) scale(3.8107) translate(-211,-153)">
<path id="0" d="M225 178 C225 178 212.5487 178.823 212 178 C210.6283 175.9424 209.3825 159.3786 211 157 C212.2927 155.099 226.7484 151.968 229 153 C230.7931 153.8218 235 168 235 168 "/>
<path id="1" d="M234 169 C234 169 236.6073 169.3927 237 169 C238.1781 167.8219 238.2824 164.7176 240 163 C241.3359 161.6641 242.6323 161.128 245 161 C259.8328 160.1982 266.6413 159.5613 277 161 C278.5196 161.2111 281 166 281 166 "/>
<path id="2" d="M281 166 C281 166 291.0247 165.9023 298 164 C300.4215 163.3396 301.0802 160.5759 303 160 C304.4553 159.5634 306.5046 159.9125 308 161 C310.8958 163.106 313.1953 165.1029 314 168 C314.9956 171.5842 314.1776 177.8224 313 179 C311.6262 180.3738 303.6036 181.5207 301 181 C300.1022 180.8204 298 176 298 176 "/>
<path id="3" d="M298 176 C298 176 300.9822 202.4578 297 209 C293.5123 214.7297 283.1216 217.1657 270 222 C265.3075 223.7288 259 223 259 223 "/>
<path id="4" d="M259 223 C259 223 245.3523 224.7102 239 223 C236.4957 222.3258 234.4763 219.6907 233 216 C228.0999 203.7499 228.0328 201.6476 225 188 C224.1852 184.3335 224.6 180.8 225 180 C225.1 179.8 229 180 229 180 "/>
<path id="5" d="M260 202 C260 202 254.375 202.375 254 202 C253.625 201.625 253.6538 196.2308 254 196 C254.7788 195.4808 262.4772 195.6733 263 196 C263.1234 196.0771 262 201 262 201 "/>
<path id="6" d="M270 185 C270 185 270.494 180.6325 271 180 C271.2094 179.7383 273.5211 179.6169 274 180 C274.8301 180.6641 275.372 182.1159 276 184 C276.2692 184.8075 276.0338 185.9916 276 186 C275.7469 186.0633 272.0181 185.0181 272 185 C271.9964 184.9964 274 184 274 184 "/>
<path id="7" d="M247 186 C247 186 245.0084 186.0338 245 186 C244.9367 185.7469 245.5058 182.3954 246 182 C246.4707 181.6234 249.68 181.76 250 182 C250.18 182.135 250 185 250 185 "/>
<path id="8" d="M263 201 C263 201 276.0914 201.8549 278 203 C278.4948 203.2969 278.9702 207.8979 278 210 C276.7846 212.6335 275.0654 214.2483 272 216 C269.0275 217.6986 267.9339 217.6853 264 218 C255.8043 218.6557 248.7943 219.3221 247 218 C245.7001 217.0422 244.1941 205.9572 245 204 C245.4101 203.0039 254 201 254 201 "/>
<path id="9" d="M259 203 L259 210 "/>
<path id="10" d="M251 210 C251 210 253.2189 211.919 255 212 C262.8173 212.3553 273 211 273 211 "/>
<path id="11" d="M294 233 C294 233 299.7111 249.0218 300 260 C300.1156 264.3934 295 271 295 271 "/>
<path id="12" d="M229 231 C229 231 226.9523 251.6808 228 266 C228.1888 268.5799 232 272 232 272 "/>
<path id="13" d="M294 273 L293 295 "/>
<path id="14" d="M232 271 L235 294 "/>
<path id="15" d="M270 282 L270 299 "/>
<path id="16" d="M255 285 L254 299 "/>
<path id="17" d="M257 286 L271 289 "/>
<path id="18" d="M273 300 C273 300 272.4536 309.7268 273 310 C275.459 311.2295 287.6772 312.5151 295 311 C297.8387 310.4127 300.47 307.0599 302 304 C303.02 301.9601 302.6479 297.6479 302 297 C300.9819 295.9819 293 295 293 295 "/>
<path id="19" d="M256 298 L254 311 "/>
<path id="20" d="M254 311 C254 311 253.5738 314.7352 253 315 C250.3946 316.2025 245.3435 317.9049 241 317 C235.9534 315.9486 234.5218 313.7963 229 310 C226.7831 308.4759 225.7811 307.7575 225 306 C224.324 304.4791 224.5815 301.2576 225 301 C227.0194 299.7573 238 298 238 298 "/>
<path id="21" d="M296 213 C296 213 301.0965 212.3655 303 213 C303.8158 213.2719 304.4549 214.4191 305 216 C309.249 228.322 313 242 313 242 "/>
<path id="22" d="M233 211 C233 211 226.0735 213.4235 225 216 C220.6308 226.4862 218 247 218 247 "/>
<path id="23" d="M316 243 C316 243 307.8125 241.7917 306 243 C303.8854 244.4097 302.0342 248.6046 301 253 C300.374 255.6604 301.1901 259.4793 302 260 C304.1037 261.3523 311.0144 262.4689 315 262 C316.3959 261.8358 318.3072 259.9629 319 258 C320.7545 253.0288 321.413 245.8948 321 245 C320.8737 244.7264 313 245 313 245 "/>
<path id="24" d="M219 247 C219 247 226.1509 250.5346 228 253 C228.8702 254.1602 228.3829 258.7766 228 259 C226.6234 259.803 216.7567 260.5675 216 260 C215.4955 259.6216 215.5 251 216 250 C216.125 249.75 221 250 221 250 "/>
<path id="25" d="M278 221 C278 221 278.5121 256.4543 278 269 C277.9885 269.2827 276.9174 269.9541 276 270 C267.9452 270.4027 264.9264 271.2046 258 270 C255.8083 269.6188 254.0252 268.1528 253 266 C249.8863 259.4612 249.2251 257.3308 248 249 C246.8257 241.0146 246.8102 239.436 248 232 C248.6047 228.2208 252 224 252 224 "/>
</g>
</g>
</svg>
