<?xml version="1.0" encoding="utf-8"?>
<!DOCTYPE svg PUBLIC "-//W3C//DTD SVG 1.1//EN" "http://www.w3.org/Graphics/SVG/1.1/DTD/svg11.dtd">
<svg viewBox="0 0 800 800" preserveAspectRatio="xMinYMin meet" xmlns="http://www.w3.org/2000/svg" version="1.1">
<g fill="none" stroke="black" stroke-linecap="round" stroke-linejoin="round" stroke-width="1.2241">
<g transform="translate(113.2536,87.52) scale(2.4508) translate(-163,-87.1333)">
<path id="0" d="M279 199.1333 C279 199.1333 277.3034 201.7423 276 202.1333 C273.6606 202.8351 271.7184 203.2042 269 202.1333 C256.9144 197.3723 252.6672 197.15 243 189.1333 C234.4803 182.0682 232.5383 178.4705 228 168.1333 C224.493 160.1451 225.5317 157.9703 225 148.1333 C224.5531 139.8655 223.3264 137.5815 226 131.1333 C230.7032 119.7903 233.4019 115.7315 242 107.1333 C246.729 102.4044 249.8362 101.6082 257 100.1333 C265.2787 98.4289 267.524 98.3947 276 100.1333 C285.6542 102.1137 288.2992 102.839 296 108.1333 C302.5306 112.6231 303.4478 114.7992 308 122.1333 C311.974 128.5359 313.1134 130.0402 314 137.1333 C315.4003 148.336 314.5089 150.0621 313 162.1333 C312.0691 169.5803 311.7518 170.2537 309 177.1333 C306.9444 182.2723 306.7083 183.5936 303 187.1333 C296.6785 193.1675 294.6241 195.0837 287 198.1333 C281.6183 200.286 273 199.1333 273 199.1333 "/>
<path id="1" d="M251 137.1333 C251 137.1333 246.3965 135.728 246 135.1333 C245.7522 134.7617 246.5058 131.5287 247 131.1333 C247.4707 130.7568 250.5142 130.6476 251 131.1333 C252.2144 132.3477 254.072 137.5569 254 138.1333 C253.9837 138.2638 250.4497 139.3132 250 139.1333 C249.7252 139.0234 249 136.1333 249 136.1333 "/>
<path id="2" d="M281 136.1333 C281 136.1333 276.1785 134.6093 276 134.1333 C275.7582 133.4884 277.6172 128.3885 278 128.1333 C278.1701 128.0199 281.6329 129.3074 282 130.1333 C282.6801 131.6637 282.2317 136.7858 282 137.1333 C281.9448 137.2161 278 136.1333 278 136.1333 "/>
<path id="3" d="M267 203.1333 C267 203.1333 261.4619 202.9661 258 201.1333 C253.9712 199.0005 253.082 198.0715 250 194.1333 C244.4624 187.0576 242.7395 185.53 240 178.1333 C238.4706 174.004 239.1555 171.919 240 167.1333 C240.5013 164.2927 240.9955 163.1379 243 161.1333 C247.2318 156.9015 248.8151 154.3391 254 153.1333 C267.0889 150.0894 274.5731 149.705 286 151.1333 C289.1941 151.5326 293.1987 155.1061 294 158.1333 C296.3962 167.1858 295.3828 173.266 295 185.1333 C294.9423 186.9219 294.3922 187.8958 293 189.1333 C286.3173 195.0735 284.0372 197.2949 277 201.1333 C275.1272 202.1549 271 201.1333 271 201.1333 "/>
<path id="4" d="M272 171.1333 C272 171.1333 267.1312 172.7891 265 172.1333 C262.5994 171.3947 260.1695 169.2774 259 167.1333 C258.1518 165.5783 258.4857 163.1904 259 161.1333 C259.2143 160.2762 260.3442 159.1333 261 159.1333 C266.5744 159.1333 275.8945 159.8948 278 161.1333 C278.5451 161.454 278.6653 166.9158 278 169.1333 C277.7588 169.9372 276.2362 171.045 275 171.1333 C270.7014 171.4404 267.6624 171.8682 264 170.1333 C260.2368 168.3507 256.5479 163.3388 256 162.1333 C255.9229 161.9638 257.5728 159.6091 259 159.1333 C262.3301 158.0233 264.9401 157.4776 268 158.1333 C270.0399 158.5705 272.0506 160.4244 273 162.1333 C273.7004 163.394 273.5988 165.5365 273 167.1333 C272.506 168.4507 271.2857 169.8119 270 170.1333 C266.9144 170.9047 261.9837 170.8219 261 170.1333 C260.3551 169.6819 259.4397 164.0672 260 163.1333 C260.6303 162.0828 263.909 160.6089 267 160.1333 C269.4218 159.7607 272.3434 160.383 273 161.1333 C273.8273 162.0788 274.3676 166.479 274 168.1333 C273.8554 168.7842 272.3853 169.7375 271 170.1333 C269.4485 170.5766 267.555 170.5958 267 170.1333 C266.1444 169.4204 264.9486 165.17 265 165.1333 C265.2944 164.9231 272.9875 164.7958 274 165.1333 C274.1125 165.1708 274.4842 167.4877 274 168.1333 C272.4666 170.1779 269.9995 172.2447 268 173.1333 C267.3785 173.4095 265.1513 172.5368 265 172.1333 C264.5016 170.8043 264.4351 165.779 265 165.1333 C265.575 164.4761 271.8958 164.0083 272 164.1333 C272.1149 164.2712 270.914 170.2193 270 171.1333 C269.4922 171.6411 265.5078 171.6411 265 171.1333 C264.086 170.2193 262.6945 164.5916 263 164.1333 C263.3954 163.5403 270.9415 162.0748 271 162.1333 C271.039 162.1723 269.1487 167.7932 268 169.1333 C267.6914 169.4934 265.0993 169.2988 265 169.1333 C264.7243 168.6738 265 164.1333 265 164.1333 "/>
<path id="5" d="M231 124.1333 C231 124.1333 222.8911 125.0635 217 124.1333 C214.6967 123.7697 213.7716 122.905 212 121.1333 C210.2284 119.3617 209.3637 118.4366 209 116.1333 C208.0698 110.2422 207.3621 106.6376 209 102.1333 C210.2763 98.6235 212.9262 97.0432 217 94.1333 C219.2067 92.5571 220.4296 92.0109 223 92.1333 C229.5918 92.4472 237.0979 93.5697 238 95.1333 C239.7804 98.2194 239.7778 111.9112 238 118.1333 C237.4369 120.1043 230 123.1333 230 123.1333 "/>
<path id="6" d="M303 115.1333 C303 115.1333 293.3323 110.6617 293 109.1333 C292.3531 106.1578 294.663 97.7806 298 92.1333 C299.6267 89.3805 302.2836 88.0624 306 87.1333 C310.8213 85.928 314.4493 85.7525 318 87.1333 C320.5808 88.137 323.1906 91.0308 324 94.1333 C325.5119 99.9289 325.164 103.1496 324 110.1333 C323.3695 113.9162 322.3889 116.0857 320 118.1333 C317.0453 120.6659 314.8195 120.9993 310 122.1333 C306.9166 122.8588 304.5303 122.8135 303 122.1333 C302.1741 121.7663 301 118.1333 301 118.1333 "/>
<path id="7" d="M308 108.1333 C308 108.1333 305.3517 105.2435 305 103.1333 C304.563 100.5116 305.7536 96.2566 306 96.1333 C306.3012 95.9827 312.1799 97.8447 313 99.1333 C313.8801 100.5163 313.6258 106.1947 313 107.1333 C312.6089 107.72 307 108.1333 307 108.1333 "/>
<path id="8" d="M222 114.1333 C222 114.1333 220.0851 115.19 220 115.1333 C219.8086 115.0057 218.8886 113.3592 219 112.1333 C219.3134 108.6855 220.1977 105.417 221 104.1333 C221.1626 103.8731 223.6073 103.7406 224 104.1333 C225.1781 105.3114 226.509 107.6782 227 110.1333 C227.2827 111.5469 226.3125 113.9458 226 114.1333 C225.6875 114.3208 222 113.1333 222 113.1333 "/>
<path id="9" d="M257 199.1333 C257 199.1333 226.7346 201.899 203 201.1333 C199.4228 201.0179 195 197.1333 195 197.1333 "/>
<path id="10" d="M295 194.1333 C295 194.1333 302.2539 199.3049 309 200.1333 C328.7404 202.5576 331.477 201.5438 352 201.1333 C355.3616 201.0661 359 199.1333 359 199.1333 "/>
<path id="11" d="M203 200.1333 C203 200.1333 179.8748 198.4178 170 201.1333 C167.1066 201.929 164.8763 206.5765 163 211.1333 C161.9804 213.6094 162.1739 215.1045 163 218.1333 C164.9632 225.3318 165.2752 227.1163 169 233.1333 C171.0567 236.4557 172.7684 238.4723 176 239.1333 C190.7743 242.1554 213 242.1333 213 242.1333 "/>
<path id="12" d="M352 200.1333 C352 200.1333 368.6815 197.0272 378 200.1333 C386.6017 203.0006 391.7486 209.3292 397 215.1333 C397.9788 216.2152 397.9869 219.1596 397 221.1333 C393.8749 227.3836 392.4987 230.551 387 235.1333 C382.178 239.1516 379.6919 240.2605 373 241.1333 C358.514 243.0228 355.3112 241.9284 341 241.1333 C339.1614 241.0312 337 239.1333 337 239.1333 "/>
<path id="13" d="M208 243.1333 C208 243.1333 220.9217 243.0029 221 243.1333 C221.0582 243.2303 214.8097 248.6219 214 253.1333 C211.9138 264.7562 214.0787 281.0313 214 282.1333 C213.9977 282.1659 212 281.1333 212 281.1333 "/>
<path id="14" d="M339 239.1333 C339 239.1333 330.9991 239.116 331 239.1333 C331.0443 240.0198 337.5408 249.5696 340 259.1333 C341.6531 265.5622 340.1796 273.2952 340 274.1333 C339.9957 274.1533 337 273.1333 337 273.1333 "/>
<path id="15" d="M240 341.1333 C240 341.1333 221.7397 344.0478 215 341.1333 C209.8997 338.9278 205.43 332.4233 203 325.1333 C200.57 317.8433 201.8316 314.4807 203 305.1333 C203.7303 299.2912 203.9226 297.4779 207 293.1333 C211.4 286.9216 213.937 284.5602 220 281.1333 C223.238 279.3031 226.1373 279.0934 230 280.1333 C237.2063 282.0735 241.5462 283.3084 246 288.1333 C250.9654 293.5125 252.1832 297.5037 254 306.1333 C255.8459 314.9014 255.218 316.9982 254 326.1333 C253.3585 330.9445 252.6817 332.5578 250 336.1333 C247.5246 339.4339 245.6413 341.0409 242 342.1333 C237.5413 343.4709 231.4118 342.4863 230 342.1333 C229.9118 342.1113 230 339.1333 230 339.1333 "/>
<path id="16" d="M321 331.1333 C321 331.1333 314.8414 331.4447 312 330.1333 C310.1058 329.2591 308.8277 327.6163 308 325.1333 C306.214 319.7754 306 318.3879 306 312.1333 C306 304.4354 305.9733 303.0822 308 296.1333 C309.156 292.1701 309.9219 290.9036 313 288.1333 C319.0553 282.6836 320.3389 282.73 328 278.1333 C332.7426 275.2878 333.25 274.3208 338 273.1333 C342.2222 272.0778 344.2988 272.1464 348 273.1333 C350.2454 273.7321 351.7686 274.9443 353 277.1333 C355.5757 281.7123 356.3329 283.2965 357 289.1333 C358.2316 299.91 358.2553 301.463 357 312.1333 C356.3739 317.4549 355.902 318.8771 353 323.1333 C349.0891 328.8693 347.5897 330.5763 342 334.1333 C337.9913 336.6844 336.403 336.5099 331 337.1333 C323.857 337.9575 319.543 338.9048 316 337.1333 C313.0475 335.6571 309 326.1333 309 326.1333 "/>
<path id="17" d="M328 314.1333 C328 314.1333 321.1975 314.5284 321 314.1333 C320.0689 312.2711 318.7751 304.2577 320 298.1333 C320.7907 294.1796 322.7392 292.1433 326 289.1333 C328.2265 287.0781 330.1093 286.326 333 286.1333 C336.1584 285.9228 338.8936 286.6014 341 288.1333 C342.6406 289.3265 342.822 291.0705 344 294.1333 C345.2793 297.4596 346 298.0111 346 301.1333 C346 305.5936 346.0635 307.8662 344 311.1333 C341.194 315.5761 338.4473 318.2274 334 320.1333 C330.4697 321.6463 325.6308 320.9428 323 320.1333 C322.2273 319.8956 321 316.1333 321 316.1333 "/>
<path id="18" d="M232 328.1333 C232 328.1333 228.7686 329.605 227 329.1333 C222.7653 328.0041 220.5142 327.179 217 324.1333 C214.0742 321.5977 213.3849 320.0571 212 316.1333 C210.6735 312.375 209.8543 309.6539 211 307.1333 C213.4134 301.824 217.6939 297.8653 222 294.1333 C222.7735 293.4629 224.8926 293.4519 226 294.1333 C229.8545 296.5053 232.1639 297.6553 235 302.1333 C240.8654 311.3944 242.0499 314.2998 245 324.1333 C245.9086 327.1621 244.6925 331.6717 244 332.1333 C242.7973 332.9351 236.2543 333.0631 233 332.1333 C231.7743 331.7831 230 328.1333 230 328.1333 "/>
<path id="19" d="M258 318.1333 C258 318.1333 271.0241 329.6304 282 334.1333 C287.3866 336.3432 292.1473 336.1104 297 334.1333 C302.332 331.961 309 323.1333 309 323.1333 "/>
<path id="20" d="M203 230.1333 C203 230.1333 195.2017 231.6612 191 230.1333 C186.48 228.4897 184.1634 225.8719 181 222.1333 C179.8765 220.8056 179.4531 217.899 180 217.1333 C182.1511 214.1218 187.1863 209.223 191 208.1333 C193.5692 207.3993 197.6701 208.7828 201 211.1333 C204.6693 213.7234 207.7552 217.3177 208 220.1333 C208.3457 224.1084 204.0662 233.156 203 234.1333 C202.7459 234.3662 196 231.1333 196 231.1333 "/>
<path id="21" d="M357 232.1333 C357 232.1333 351.5907 232.2468 350 231.1333 C348.5126 230.0922 347.7125 227.9833 347 225.1333 C346.3667 222.6 346.2448 221.3989 347 219.1333 C347.923 216.3643 348.937 214.1648 351 213.1333 C355.5681 210.8493 362.7605 209.6064 365 210.1333 C365.7828 210.3175 367.4401 213.7737 368 217.1333 C368.8212 222.0607 368.9298 224.879 368 228.1333 C367.6498 229.359 365.6028 230.8419 364 231.1333 C361.5958 231.5705 357 230.1333 357 230.1333 "/>
<path id="22" d="M282 306.1333 C282 306.1333 271.5005 303.3006 268 299.1333 C263.5441 293.8287 262.1039 289.807 261 281.1333 C258.8379 264.145 259.866 260.0099 261 244.1333 C261.1598 241.8959 262.2331 240.7039 264 239.1333 C266.057 237.3049 267.0634 236.7206 270 236.1333 C276.318 234.8697 278.311 234.3206 284 235.1333 C287.1084 235.5774 288.7062 236.6631 291 239.1333 C294.4017 242.7967 296.292 244.5313 297 249.1333 C298.8797 261.3514 298.7805 264.7793 297 278.1333 C295.9685 285.8695 294.9258 287.3286 291 294.1333 C287.9354 299.4453 286.2163 301.0413 282 304.1333 C280.2618 305.408 276 305.1333 276 305.1333 "/>
<path id="23" d="M275 261.1333 L282 264.1333 "/>
<path id="24" d="M279 280.1333 L280 280.1333 "/>
</g>
</g>
</svg>
