<?xml version="1.0" encoding="utf-8"?>
<!DOCTYPE svg PUBLIC "-//W3C//DTD SVG 1.1//EN" "http://www.w3.org/Graphics/SVG/1.1/DTD/svg11.dtd">
<svg viewBox="0 0 800 800" preserveAspectRatio="xMinYMin meet" xmlns="http://www.w3.org/2000/svg" version="1.1">
<g fill="none" stroke="black" stroke-linecap="round" stroke-linejoin="round" stroke-width="2.0017">
<g transform="translate(87.52,123.4889) scale(1.4987) translate(-68,-47)">
<path id="0" d="M267 96 C267 96 251.5503 94 237 94 C231.6649 94 230.7028 94.0405 226 96 C219.5087 98.7047 214.5442 100.3969 213 104 C209.8303 111.3959 210.5303 117.8495 211 131 C211.5083 145.2319 211.6622 147.3165 215 160 C216.1749 164.4648 217.4466 165.8207 221 169 C226.0972 173.5606 227.4352 174.421 234 177 C240.5793 179.5847 241.5798 179.5053 249 180 C263.645 180.9763 265.248 182.591 279 180 C298.0003 176.4202 300.9688 173.9673 318 167 C320.7075 165.8924 321.503 164.7637 323 162 C327.5315 153.6342 327.9322 152.5102 331 143 C332.7976 137.4275 333 136.7227 333 131 C333 124.3236 333.7716 121.8502 331 117 C325.2738 106.9792 322.2063 102.0627 313 96 C305.2047 90.8665 301.3161 91.5431 290 90 C280.0228 88.6395 279.1107 88.9357 269 90 C260.6124 90.8829 252 94 252 94 "/>
<path id="1" d="M212 106 C212 106 206.0347 105.5426 203 103 C189.4363 91.6358 188.5761 89.2907 175 75 C169.6541 69.3727 168.4029 68.9551 165 63 C163.0516 59.5902 162.6381 54.3317 163 54 C163.9168 53.1596 172.0105 51.2872 177 52 C179.8066 52.4009 180.9839 54.1096 184 57 C192.7605 65.3955 194.1099 65.3539 201 75 C208.6085 85.6518 214 99 214 99 "/>
<path id="2" d="M306 95 C306 95 307.2761 77.1049 312 65 C314.1767 59.4222 316.6733 56.9055 322 54 C330.9283 49.13 333.7662 49.1844 345 47 C350.9948 45.8343 356.6566 45.9253 358 47 C359.1987 47.959 361.3483 56.1997 360 59 C357.2853 64.6382 353.2155 68.523 345 74 C331.8553 82.7632 315 89 315 89 "/>
<path id="3" d="M232 117 C232 117 240.657 115.5322 241 116 C242.0699 117.459 243 132 243 132 "/>
<path id="4" d="M235 124 C235 124 235.0375 127.46 236 129 C236.9411 130.5058 239.9903 132.0241 240 132 C240.0897 131.7759 240.9788 122.9153 240 119 C239.6988 117.7953 236 116 236 116 "/>
<path id="5" d="M288 126 C288 126 283.9002 119.0975 284 118 C284.0451 117.5035 286.6732 115.4986 289 115 C292.7112 114.2048 295.7583 113.9654 298 115 C299.6861 115.7782 301.648 118.888 302 121 C302.2992 122.7952 300 127 300 127 "/>
<path id="6" d="M294 127 C294 127 294.5651 133.8404 295 135 C295.0389 135.1038 296.95 135.1 297 135 C297.2 134.6 297.6619 132.3238 297 131 C294.766 126.532 290 121 290 121 "/>
<path id="7" d="M264 136 C264 136 263.2337 141.0422 264 142 C265.3282 143.6602 271.9026 146.0852 272 146 C272.2082 145.8178 272 135 272 135 "/>
<path id="8" d="M249 161 C249 161 255.4992 164.052 262 165 C278.9599 167.4733 296.9596 167.9853 297 168 C297.0125 168.0046 290.3399 172.1731 284 173 C268.6146 175.0068 266.4813 174.397 251 174 C248.1589 173.9272 246.8706 173.5305 245 172 C242.3723 169.85 241.5951 168.456 240 165 C238.8927 162.6008 238.4197 160.7409 239 159 C239.7851 156.6447 244 153 244 153 "/>
<path id="9" d="M221 170 C221 170 215.866 169.5218 212 171 C199.8081 175.6616 199.7392 177.9524 187 183 C173.4852 188.3549 171.9043 186.2648 159 192 C150.1731 195.9231 146.82 196.5733 142 203 C134.1357 213.4857 133.0311 217.8912 129 232 C126.5004 240.7487 125.9666 243.8663 128 252 C130.7799 263.1194 132.2757 265.9439 140 276 C157.7874 299.1572 158.9865 301.7042 181 321 C198.1824 336.0611 202.2218 336.2125 221 347 C223.5891 348.4874 225.0052 348.4729 228 348 C233.5288 347.127 240 344 240 344 "/>
<path id="10" d="M317 166 C317 166 332.4879 165.218 345 166 C346.8433 166.1152 347.4573 166.6287 349 168 C360.3629 178.1003 362.7151 178.3939 372 190 C377.7916 197.2395 378.8907 199.1794 381 208 C383.9808 220.465 384.045 222.9381 383 236 C382.1562 246.5471 380.9421 247.4877 377 258 C370.5585 275.1773 371.9806 278.3011 362 292 C348.1763 310.9738 344.4052 311.8035 326 328 C320.2783 333.0351 319.2753 333.0619 312 336 C293.7387 343.3747 292.3939 344.4883 274 349 C267.3014 350.6431 266.1223 349.9496 259 349 C251.6245 348.0166 251.2528 347.5385 244 345 C231.3961 340.5886 221.7644 336.8029 219 335 C218.8894 334.9279 221 330 221 330 "/>
<path id="11" d="M373 191 C373 191 384.1077 187.5187 395 187 C425.433 185.5508 430.7786 182.3384 457 187 C470.0449 189.3191 482.1954 200.9505 485 203 C485.0136 203.0099 484.0994 205.487 483 206 C478.1929 208.2433 476.3201 209.5486 470 210 C449.5446 211.4611 447.9818 212.0089 427 210 C401.6942 207.5771 376 201 376 201 "/>
<path id="12" d="M130 205 C130 205 115.1522 203.1948 102 205 C90.7451 206.5448 87.8788 207.0383 79 212 C73.1584 215.2644 70.2226 219.1104 68 224 C66.752 226.7455 67.4435 232.0843 69 234 C71.2673 236.7905 74.9284 238.0484 81 240 C88.3949 242.3769 89.3214 243.1259 97 243 C118.6942 242.6444 142 239 142 239 "/>
<path id="13" d="M210 337 C210 337 206.7134 350.1594 206 363 C205.2398 376.684 204.8018 378.753 207 391 C207.9421 396.2487 209.2421 397.6784 213 402 C218.6016 408.4419 220.0285 409.12 227 414 C229.3031 415.6122 230.57 416 233 416 C235.43 416 238.3471 415.2556 239 414 C242.3973 407.4668 244.6061 402.3258 246 391 C248.4607 371.0065 247.4045 367.6069 247 349 C246.961 347.2077 245 345 245 345 "/>
<path id="14" d="M297 332 C297 332 295.8861 342.9753 297 353 C297.8192 360.3727 297.7167 361.8197 301 368 C305.5834 376.6276 308.3735 382.9331 314 385 C324.6325 388.9058 333.167 387.0521 350 386 C355.7378 385.6414 360.8679 383.7925 362 382 C363.4666 379.6779 363.2821 373.8381 362 367 C360.4507 358.7373 359.7759 358.0667 356 350 C337.9316 311.3993 318 273 318 273 "/>
</g>
</g>
</svg>
