<?xml version="1.0" encoding="utf-8"?>
<!DOCTYPE svg PUBLIC "-//W3C//DTD SVG 1.1//EN" "http://www.w3.org/Graphics/SVG/1.1/DTD/svg11.dtd">
<svg viewBox="0 0 800 800" preserveAspectRatio="xMinYMin meet" xmlns="http://www.w3.org/2000/svg" version="1.1">
<g fill="none" stroke="black" stroke-linecap="round" stroke-linejoin="round" stroke-width="1.6321">
<g transform="translate(105.9012,87.52) scale(1.8381) translate(-136,-97)">
<path id="0" d="M315 116 C315 116 309.5194 109.5065 305 108 C300.0049 106.335 296.9781 106.4176 291 108 C281.4425 110.5299 279.975 111.5153 271 117 C262.5725 122.1502 262.009 122.991 255 130 C250.4079 134.5921 249.6793 135.3979 247 141 C244.5722 146.0764 244 147.3251 244 153 C244 169.079 242.1837 174.1566 247 187 C250.9421 197.5124 255.82 199.4528 265 209 C267.5061 211.6063 268.5676 212.0466 272 213 C276.7724 214.3257 277.5122 213.823 283 214 C292.9486 214.3209 294.0143 215.2394 303 214 C307.2915 213.4081 308.6225 212.8497 312 210 C323.5738 200.2346 331.8599 196.8484 335 187 C339.7288 172.1687 336.4479 162.3318 334 141 C333.1672 133.7428 331.813 132.6092 328 126 C324.6557 120.2032 323.7079 119.394 319 115 C316.8497 112.993 313 112 313 112 "/>
<path id="1" d="M313 112 C313 112 312.6369 106.4079 314 103 C315.1601 100.0997 316.8626 97.8015 319 97 C322.243 95.7839 325.0726 96.1788 330 97 C333.3596 97.5599 333.9213 98.2896 337 100 C338.1052 100.614 338.9317 101.214 339 102 C339.6602 109.5924 340.0189 120.8602 339 123 C338.7689 123.4852 329 123 329 123 "/>
<path id="2" d="M263 118 C263 118 259.7701 111.3851 257 110 C253.5374 108.2687 249.1731 107.609 245 109 C238.4423 111.1859 232.1271 115.0496 230 119 C228.1806 122.3789 229.0292 132.718 231 135 C233.518 137.9156 249 141 249 141 "/>
<path id="3" d="M301 133 C301 133 298.5676 139.8109 299 141 C299.3081 141.8472 304.7519 144.1063 305 144 C305.1879 143.9195 306.3871 139.0323 306 138 C305.7591 137.3577 302.1258 135.9685 302 136 C301.973 136.0067 302 139 302 139 "/>
<path id="4" d="M270 139 C270 139 269.6875 143.6875 270 144 C270.3125 144.3125 274.6189 144.3049 275 144 C275.2439 143.8049 275.3577 140.3577 275 140 C274.4635 139.4635 270.1258 138.849 270 139 C269.7219 139.3337 269.2803 143.3613 270 146 C270.4953 147.8163 272.1338 149.5669 273 150 C273.4331 150.2166 275.7834 149.4331 276 149 C276.4331 148.1338 276.5639 144.9868 276 144 C275.5167 143.1542 273.8841 142.628 272 142 C271.1925 141.7308 270.0153 141.9694 270 142 C269.9771 142.0458 271 144 271 144 "/>
<path id="5" d="M273 171 C273 171 273.1195 158.6038 275 156 C276.2516 154.2671 280.8103 153.1622 286 153 C295.7946 152.6939 297.8933 152.8018 307 155 C310.9029 155.9421 313.6045 157.9067 315 160 C315.9454 161.418 315 167 315 167 C315 167 315 163 315 163 "/>
<path id="6" d="M293 165 C293 165 289.9973 165.9989 290 166 C290.0087 166.0035 297.9195 167.0644 298 167 C298.0112 166.9911 296.2615 162.6308 295 162 C293.3944 161.1972 288.5794 161.5861 288 162 C287.7044 162.2111 287.6926 166.7439 288 167 C288.4426 167.3689 293.9851 167.0446 294 167 C294.0347 166.8959 290 161 290 161 "/>
<path id="7" d="M294 170 C294 170 294.6341 179.6104 294 185 C293.9055 185.8031 292.9647 186.7427 292 187 C286.8464 188.3743 280.6399 189.3514 279 189 C278.7298 188.9421 278 184 278 184 "/>
<path id="8" d="M296 177 C296 177 295.3778 186.4344 296 187 C296.7528 187.6844 304.7579 188.1958 307 187 C308.685 186.1014 311 179 311 179 "/>
<path id="9" d="M286 190 C286 190 288.9794 188.9656 289 189 C289.1547 189.2578 288.7 194.85 289 195 C290.2 195.6 300.04 195.72 301 195 C301.54 194.595 301 186 301 186 "/>
<path id="10" d="M264 214 C264 214 255.7127 227.2894 250 241 C245.9112 250.8132 245.4717 251.6981 244 262 C242.586 271.8979 241.9375 273.6252 244 283 C247.0858 297.0265 248.0864 299.325 255 312 C259.3637 320.0001 261.1126 322.1788 268 327 C274.2133 331.3493 276.7953 332.2967 285 333 C309.8284 335.1281 318.1713 337.1892 338 333 C345.9199 331.3268 353.0611 325.1556 356 318 C361.6505 304.2423 359.6737 297.4245 361 277 C362.1554 259.2072 363.3092 257.934 361 241 C358.997 226.311 357.2363 224.8387 352 211 C350.6062 207.3164 349.8548 206.1411 347 204 C342.8919 200.9189 336 199 336 199 "/>
<path id="11" d="M308 234 C308 234 303.2674 233.5212 301 235 C293.5535 239.8564 290.2777 241.4001 285 249 C279.0626 257.5499 278.2721 260.3968 276 271 C274.1009 279.8624 273.2282 283.826 276 291 C280.2364 301.9647 284.8351 304.891 293 315 C294.1319 316.4014 295.2124 316.9384 297 317 C307.9679 317.3782 313.3078 319.1203 322 316 C328.3983 313.7032 330.9649 310.1653 336 303 C343.1504 292.8244 345.4402 289.7512 348 279 C349.6702 271.9851 349.5474 266.0081 346 261 C336.3778 247.4157 326.8266 241.1263 314 231 C312.6179 229.9089 308 231 308 231 "/>
<path id="12" d="M355 207 C355 207 353.6037 202.972 354 200 C354.4848 196.3643 354.5927 194.7776 357 192 C372.4882 174.129 374.4706 169.2767 393 155 C402.3942 147.7619 406.0885 148.7223 418 145 C420.9646 144.0736 423.0231 143.7834 425 145 C433.1466 150.0133 439.9533 154.1845 444 161 C446.3733 164.9972 444.6397 171.2427 444 177 C443.9112 177.7996 443.1128 178.5285 442 179 C415.9162 190.0525 412.6356 189.3763 385 202 C372.5569 207.6839 361 216 361 216 "/>
<path id="13" d="M256 229 C256 229 247.8209 222.9015 239 219 C222.2214 211.5787 221.476 210.821 204 206 C193.2083 203.023 192.4496 203.5822 181 203 C163.1969 202.0948 158.0368 201.9972 145 203 C143.83 203.09 142.8287 204.3426 142 206 C138.6852 212.6296 137.7343 213.7736 136 221 C134.9451 225.3956 135.1874 226.6663 136 231 C136.5332 233.844 137.2347 235.9912 139 237 C144.8845 240.3626 148.2266 241.4517 157 243 C164.3654 244.2998 165.3736 242.1526 173 243 C178.4021 243.6002 178.6803 245.86 184 246 C215.1979 246.821 249 245 249 245 "/>
<path id="14" d="M255 315 C255 315 241.8576 322.7138 233 333 C211.7951 357.625 210.6552 359.7815 193 387 C187.4372 395.5759 187.6227 397.0339 185 407 C182.802 415.3525 181.4039 422.2335 183 425 C184.6872 427.9244 191.9049 430.7669 200 433 C205.0576 434.3952 207.7498 434.7823 212 433 C220.6603 429.3682 224.8434 427.8595 231 420 C246.2203 400.5698 248.2537 395.5671 259 373 C262.0195 366.6591 258.397 363.833 261 357 C265.8659 344.227 275 331 275 331 "/>
<path id="15" d="M334 337 C334 337 333.5931 341.0007 335 343 C359.0103 377.1199 362.5261 383.5105 391 418 C396.4921 424.6524 398.1612 424.6195 406 429 C414.7001 433.8618 416.1957 435.0119 425 437 C429.9823 438.125 431.9772 437.6743 437 436 C442.8373 434.0542 447.2797 432.6216 449 429 C453.9204 418.6413 453.5736 412.2914 456 396 C456.9979 389.3001 457.4005 387.8353 456 382 C454.7556 376.815 453.9664 374.9664 450 371 C436.2344 357.2344 434.1188 354.4298 418 344 C410.5443 339.1758 407.1142 342.4435 399 338 C387.2362 331.5579 387.9293 327.3298 376 321 C364.5345 314.9163 350 312 350 312 "/>
<path id="16" d="M425 156 C425 156 420.9203 156.0797 420 157 C418.4662 158.5338 416.6607 163.1857 417 164 C417.4917 165.1802 421.279 167.9056 425 169 C428.5361 170.04 432.6989 169.828 434 169 C434.9331 168.4062 436.3222 163.7723 436 162 C435.7705 160.7375 433.3825 158.5184 432 158 C431.0888 157.6583 428 159 428 159 "/>
<path id="17" d="M148 216 C148 216 143.4152 217.9619 143 219 C142.4519 220.3703 143.3823 225.6397 144 226 C145.3366 226.7797 152.3987 227.4452 155 226 C157.9692 224.3505 162.0808 216.1078 162 216 C161.7617 215.6823 146.8589 214.229 146 214 C145.9758 213.9935 147 212 147 212 "/>
<path id="18" d="M210 413 C210 413 206.5507 408.4229 205 408 C203.6708 407.6375 200.5741 408.8757 199 410 C198.3341 410.4757 197.7141 412.0852 198 413 C199.5822 418.0631 201.7563 423.3483 204 426 C204.5251 426.6206 207.2912 426.6835 209 426 C211.2556 425.0978 213.2203 423.7153 214 422 C214.8701 420.0858 214.7987 416.141 214 415 C213.0986 413.7123 207 412 207 412 "/>
<path id="19" d="M443 396 C443 396 437.4402 393.3384 434 394 C426.6742 395.4088 419.9164 397.7596 417 401 C415.1822 403.0198 415.2237 408.5658 416 414 C416.5175 417.6228 418.1156 420.8694 420 422 C422.4839 423.4904 427.8521 424.1597 431 423 C434.2414 421.8058 437.7237 418.5098 439 415 C440.6379 410.4957 440.1503 404.2593 439 401 C438.5795 399.8086 433 398 433 398 "/>
</g>
</g>
</svg>
