<?xml version="1.0" encoding="utf-8"?>
<!DOCTYPE svg PUBLIC "-//W3C//DTD SVG 1.1//EN" "http://www.w3.org/Graphics/SVG/1.1/DTD/svg11.dtd">
<svg viewBox="0 0 800 800" preserveAspectRatio="xMinYMin meet" xmlns="http://www.w3.org/2000/svg" version="1.1">
<g fill="none" stroke="black" stroke-linecap="round" stroke-linejoin="round" stroke-width="2.1025">
<g transform="translate(87.52,106.7825) scale(1.4268) translate(-93,-59)">
<path id="0" d="M264 108 C264 108 253.8338 107.2592 246 109 C241.6532 109.966 240.4907 110.9456 237 114 C233.1178 117.397 232.1669 118.1736 230 123 C221.66 141.5754 218.3604 143.7976 215 163 C211.8603 180.941 212.0346 185.6513 216 203 C219.2951 217.4161 222.1608 220.7392 231 233 C236.3136 240.3705 238.484 240.8904 247 246 C260.3823 254.0294 261.2724 254.2726 276 260 C287.8534 264.6096 288.4931 264.4418 301 267 C310.1839 268.8785 310.6265 269 320 269 C336.7737 269 339.9731 271.0077 354 267 C364.5492 263.9859 368.5104 261.278 376 253 C385.383 242.6293 385.5284 238.9649 392 225 C394.6296 219.3255 394.4939 218.4101 395 212 C395.9558 199.8935 396.4083 198.8296 395 187 C394.0088 178.6742 393.5436 177.7125 390 170 C385.3149 159.803 384.8971 158.9662 378 150 C370.2499 139.9248 369.7505 138.1968 360 131 C349.9958 123.6159 348.2704 123.5207 336 119 C320.3212 113.2236 319.3697 112.1184 303 110 C277.9607 106.7596 251 108 251 108 "/>
<path id="1" d="M244 110 C244 110 244.8985 99.5216 242 93 C237.9133 83.8049 236.0011 80.6009 228 74 C217.8756 65.6474 214.4283 62.9129 202 60 C185.7716 56.1965 179.4661 57.3547 164 59 C160.0662 59.4185 158.6947 61.5362 155 65 C151.1 68.6562 150.5821 69.3522 148 74 C145.8631 77.8464 145.344 78.6427 145 83 C143.92 96.6802 142.2243 99.5096 145 112 C147.648 123.9162 149.5816 127.9065 157 137 C163.0772 144.4495 166.4181 144.5246 176 150 C179.8846 152.2198 180.5883 152.5696 185 153 C200.2383 154.4867 217 154 217 154 "/>
<path id="2" d="M366 138 C366 138 363.5126 124.045 366 115 C368.1656 107.1249 370.7128 105.4515 377 98 C383.818 89.9194 384.4837 87.8388 393 83 C404.6971 76.3539 407.4024 75.6662 421 73 C431.4385 70.9532 434.6073 70.7754 444 73 C450.9961 74.657 453.6375 76.6375 459 82 C464.8093 87.8093 465.8432 89.9865 469 98 C471.8786 105.3072 471.2331 106.5643 472 115 C472.7104 122.8142 474.0118 124.7816 472 131 C469.2892 139.3789 467.3756 141.6043 461 149 C455.6483 155.208 454.3638 156.1136 447 160 C437.2505 165.1456 435.8727 166.1254 425 168 C408.0977 170.9142 389 170 389 170 "/>
<path id="3" d="M298 110 C298 110 299.8589 183.7833 298 231 C297.9048 233.4181 295.1083 236.3342 293 237 C288.7191 238.3519 285.2238 238.4226 279 237 C268.8515 234.6803 266.1212 234.0408 258 229 C253.5565 226.242 250 219 250 219 "/>
<path id="4" d="M299 231 C299 231 301.6837 236.347 305 239 C308.2628 241.6103 309.7287 242.5254 314 243 C326.2108 244.3568 331.0987 245.5388 341 243 C346.3409 241.6305 349.1879 238.2416 353 233 C356.0349 228.8271 356.064 226.8501 357 221 C357.9627 214.9833 357 208 357 208 "/>
<path id="5" d="M299 188 C299 188 295.9461 188.0539 295 189 C292.1618 191.8382 290.1242 194.1776 289 198 C288.1952 200.7363 288.8181 204.1427 290 206 C290.9331 207.4663 293.3017 208.7302 296 209 C301.9534 209.5953 308.6024 208.9983 310 208 C310.6106 207.5638 311.2761 202.0306 310 199 C308.1046 194.4983 302 189 302 189 "/>
<path id="6" d="M266 144 C266 144 262.1356 143.7288 262 144 C261.1187 145.7626 260 150.8396 260 156 C260 158.1501 260.651 159.4583 262 161 C263.4739 162.6845 264.666 163.4165 267 164 C269.8414 164.7104 271.6606 164.7018 274 164 C275.3034 163.609 276.7649 162.2537 277 161 C277.8578 156.4252 278.1611 151.9479 277 148 C276.5114 146.3387 274.2556 144.9022 272 144 C270.2912 143.3165 267 144 267 144 "/>
<path id="7" d="M323 150 C323 150 317.7782 152.3139 317 154 C315.9654 156.2417 315.7961 160.2482 317 163 C318.346 166.0766 320.9289 168.5668 324 170 C326.3931 171.1168 330.1945 170.7222 332 170 C332.8125 169.675 334 167.6358 334 166 C334 161.0927 333.8772 156.7305 332 154 C330.5702 151.9202 323 150 323 150 "/>
<path id="8" d="M261 254 C261 254 229.3995 249.1134 198 247 C177.7171 245.6348 177.2346 246.2506 157 247 C150.5476 247.239 150.0516 247.2069 144 249 C136.9755 251.0813 135.2925 251.0306 130 255 C124.5644 259.0767 123.9937 260.8558 120 267 C117.852 270.3046 117.6118 271.1252 117 275 C116.2058 280.03 115.63 282.2814 117 286 C118.3176 289.5763 120.2273 291.3369 124 294 C127.8253 296.7002 129.441 298 134 298 C172.2954 298 218 294 218 294 "/>
<path id="9" d="M374 256 C374 256 383.0492 251.2096 392 250 C418.9039 246.3643 420.6096 246.3557 448 246 C458.2428 245.867 458.8524 246.5571 469 249 C485.5406 252.982 486.4804 253.4289 502 259 C505.154 260.1322 507.2001 261.1716 508 263 C509.5018 266.4326 509.9095 270.2253 509 275 C508.2335 279.0239 507.04 280.3086 504 284 C500.4283 288.337 499.8015 288.9445 495 292 C489.2692 295.6469 488.0734 297.5859 482 298 C448.03 300.3161 407 298 407 298 "/>
<path id="10" d="M221 294 C221 294 227.9065 305.2838 229 316 C232.6521 351.7908 231 392 231 392 "/>
<path id="11" d="M408 297 C408 297 403.392 306.9535 401 317 C398.4923 327.5322 398.6317 328.0513 398 339 C397.1454 353.8135 396.6737 354.4105 398 369 C399.1254 381.379 403 394 403 394 "/>
<path id="12" d="M232 393 C232 393 211.6437 392.5187 192 395 C164.543 398.4683 164.3614 399.5277 137 405 C124.4234 407.5153 123.8373 407.0542 112 411 C104.8392 413.3869 104.3169 414.1397 98 418 C95.7728 419.3611 94.5079 420.1717 94 422 C92.5813 427.1072 91.3664 431.2627 93 436 C95.2482 442.5198 97.9321 446.0558 104 451 C109.6711 455.6209 112.3092 457.0387 120 458 C141.9329 460.7416 144.2093 459.933 168 459 C194.8837 457.9457 195.0614 454.9163 222 454 C268.2486 452.4269 268.7923 451.6202 315 454 C384.8671 457.5983 385.1595 461.5183 455 466 C478.3182 467.4964 479.7619 468.0216 502 466 C511.2479 465.1593 514.0441 464.3175 521 460 C526.341 456.6849 528.8437 453.3907 531 448 C532.752 443.6201 532.0719 440.6277 531 435 C530.2775 431.207 529.6843 429.9528 527 427 C520.415 419.7565 519.5593 417.9454 511 413 C498.2322 405.623 496.5516 406.0761 482 401 C475.4023 398.6985 474.9484 398.4186 468 398 C434.1318 395.9597 399 396 399 396 "/>
<path id="13" d="M135 253 C135 253 146.3418 255.9947 152 261 C157.2334 265.6295 159.2037 269.2637 161 276 C162.521 281.7039 161.9671 286.1915 160 291 C158.6886 294.2056 152 298 152 298 "/>
<path id="14" d="M500 258 C500 258 493.234 256.7298 489 258 C484.843 259.2471 481.0051 261.2359 480 264 C476.955 272.3737 477.3744 279.0189 477 291 C476.9318 293.1834 477.7337 294.5227 479 296 C480.0238 297.1944 483 298 483 298 "/>
<path id="15" d="M121 409 C121 409 130.0992 409.4994 135 413 C145.4662 420.4759 147.4004 423.6088 156 434 C158.3489 436.8382 158.8554 438.3844 159 442 C159.3014 449.5341 157 459 157 459 "/>
<path id="16" d="M515 412 C515 412 512.2569 411.3017 511 412 C504.8552 415.4138 502.5143 416.2651 497 422 C490.7535 428.4964 488.9829 430.1987 486 438 C483.2299 445.2449 482.3324 450.0709 484 456 C485.6347 461.8122 495 470 495 470 "/>
<path id="17" d="M297 297 C297 297 291.4013 296.3991 289 298 C282.9967 302.0022 280.0291 303.9928 276 311 C269.5554 322.2081 268.5817 324.661 266 338 C262.8426 354.3131 261.7661 357.6111 264 373 C265.8405 385.6787 268.6187 388.245 275 400 C277.3888 404.4005 278.589 405.3534 283 408 C292.6491 413.7895 294.318 415.696 305 418 C317.919 420.7864 323.4421 422.1053 334 419 C343.8223 416.1111 348.4784 412.0259 356 403 C364.0693 393.3169 366.4695 389.4717 369 377 C372.8175 358.1851 370 355.3609 370 334 C370 328.5356 370.3128 328.0325 369 323 C367.4489 317.0542 367.1689 316.0174 364 311 C361.6123 307.2195 360.8667 306.1911 357 304 C346.8924 298.2724 344.8415 296.076 334 294 C323.64 292.0162 320.5969 292.7691 310 295 C303.2272 296.4259 296 302 296 302 "/>
</g>
</g>
</svg>
