<?xml version="1.0" encoding="utf-8"?>
<!DOCTYPE svg PUBLIC "-//W3C//DTD SVG 1.1//EN" "http://www.w3.org/Graphics/SVG/1.1/DTD/svg11.dtd">
<svg viewBox="0 0 800 800" preserveAspectRatio="xMinYMin meet" xmlns="http://www.w3.org/2000/svg" version="1.1">
<g fill="none" stroke="black" stroke-linecap="round" stroke-linejoin="round" stroke-width="1.5121">
<g transform="translate(156.96,87.52) scale(1.984) translate(-177,-69.4167)">
<path id="0" d="M241 94.4167 C241 94.4167 252.7926 82.0511 265 75.4167 C273.9836 70.5343 276.3783 69.9987 287 69.4167 C311.2084 68.0902 315.434 67.5482 338 71.4167 C347.1043 72.9774 348.3967 75.6811 357 81.4167 C362.9217 85.3645 368 91.4167 368 91.4167 "/>
<path id="1" d="M368 92.4167 C368 92.4167 374.7145 88.3988 381 87.4167 C389.6658 86.0626 391.2282 86.6857 400 87.4167 C402.3853 87.6154 403.3769 87.8891 405 89.4167 C410.9374 95.0048 414.0676 96.8751 417 103.4167 C419.3376 108.6313 418.3371 111.6751 418 118.4167 C417.885 120.7165 417.5024 121.5386 416 123.4167 C410.0358 130.8719 408.9294 133.9621 402 138.4167 C397.3315 141.4178 388 141.4167 388 141.4167 "/>
<path id="2" d="M240 96.4167 C240 96.4167 236.3544 93.9198 233 93.4167 C227.1466 92.5387 225.6837 92.2326 220 93.4167 C214.7352 94.5135 212.6443 95.5533 209 98.4167 C207.1168 99.8963 206.1871 101.7044 206 104.4167 C205.3089 114.4371 204.5995 117.8146 207 127.4167 C208.5487 133.6116 211.2866 138.8109 215 140.4167 C223.2594 143.9883 240.7058 141.2584 244 143.4167 C245.1152 144.1473 242.72 152.2488 244 159.4167 C245.0314 165.1926 245.3979 167.3823 249 171.4167 C256.4074 179.7129 259.1595 183.3165 269 187.4167 C279.9476 191.9782 283.0704 190.5033 297 191.4167 C313.2646 192.4832 314.2651 192.5145 330 191.4167 C334.8679 191.077 335.2653 190.4102 340 188.4167 C354.0713 182.4919 355.7269 182.9693 368 175.4167 C374.0579 171.6888 375.815 170.2558 379 164.4167 C383.8371 155.5487 386 142.4167 386 142.4167 "/>
<path id="3" d="M302 155.4167 C302 155.4167 301.4231 165.0321 302 165.4167 C303.2981 166.2821 315.5924 166.4724 317 165.4167 C317.9384 164.7129 318.5381 153.8203 318 153.4167 C316.8565 152.5591 301 153.4167 301 153.4167 "/>
<path id="4" d="M310 167.4167 C310 167.4167 314.8269 174.8397 319 178.4167 C320.3263 179.5535 321.8467 179.6858 324 179.4167 C329.0244 178.7886 331.0744 178.8157 335 176.4167 C338.6367 174.1942 342 168.4167 342 168.4167 "/>
<path id="5" d="M311 169.4167 C311 169.4167 306.9612 178.0707 304 179.4167 C300.1528 181.1654 292.6955 180.7782 289 179.4167 C287.3792 178.8195 285 172.4167 285 172.4167 "/>
<path id="6" d="M339 129.4167 C339 129.4167 333.9237 131.7232 333 133.4167 C332.1109 135.0467 332.404 139.929 333 140.4167 C334.315 141.4925 343.0829 142.981 344 142.4167 C344.7654 141.9456 346.4938 133.4043 346 132.4167 C345.6708 131.7582 338 130.4167 338 130.4167 "/>
<path id="7" d="M283 130.4167 C283 130.4167 279.9649 129.8653 279 130.4167 C277.7249 131.1453 276.2914 132.8139 276 134.4167 C275.5629 136.8209 276.0062 139.9259 277 141.4167 C277.6914 142.4537 279.7479 143.2434 282 143.4167 C285.4622 143.683 289.4878 143.121 290 142.4167 C290.7512 141.3837 290.8662 134.1491 290 132.4167 C289.5669 131.5504 284 130.4167 284 130.4167 "/>
<path id="8" d="M388 106.4167 C388 106.4167 396.7473 105.5502 399 106.4167 C399.8034 106.7257 401 109.3062 401 111.4167 C401 115.6377 400.4627 119.6614 399 121.4167 C397.9134 122.7206 391 123.4167 391 123.4167 "/>
<path id="9" d="M239 111.4167 C239 111.4167 230.6181 111.5513 230 112.4167 C228.8589 114.0142 227.977 121.734 229 125.4167 C229.5361 127.3465 232.3204 129.1987 235 130.4167 C236.6195 131.1528 240 130.4167 240 130.4167 "/>
<path id="10" d="M258 182.4167 C258 182.4167 249.2226 183.932 243 187.4167 C237.7422 190.361 237.156 191.4007 233 196.4167 C222.9637 208.5295 221.8963 209.4955 214 222.4167 C211.5156 226.482 211.0987 227.678 211 232.4167 C210.6276 250.2922 210.8189 252.2407 213 270.4167 C213.7118 276.3486 214.3892 277.1951 217 282.4167 C218.5851 285.5869 219.2447 286.9138 222 288.4167 C228.7521 292.0996 230.7358 293.0765 239 294.4167 C248.1962 295.9079 252.7764 296.5627 259 294.4167 C262.8736 293.0809 266.2569 288.8713 268 284.4167 C269.6759 280.1339 269.3484 276.8101 268 271.4167 C266.7035 266.2307 263.0342 265.5877 262 260.4167 C260.3893 252.3634 260.0691 248.4163 262 241.4167 C263.2406 236.9196 270 231.4167 270 231.4167 "/>
<path id="11" d="M358 230.4167 C358 230.4167 360.8866 229.7981 362 230.4167 C364.165 231.6195 365.8558 232.8421 367 235.4167 C369.2709 240.5261 369.3362 241.9995 370 248.4167 C370.798 256.1306 371.0633 256.9738 370 264.4167 C369.1646 270.2646 368.6959 271.2945 366 276.4167 C364.0586 280.1054 360.9881 280.2876 360 283.4167 C358.6669 287.6382 358.8587 293.8604 360 295.4167 C361.0525 296.8519 365.6051 297.9262 371 298.4167 C381.5288 299.3738 383.2343 300.2156 393 298.4167 C400.6747 297.0029 402.3761 295.9114 409 291.4167 C415.4301 287.0534 419.8805 284.5837 421 279.4167 C424.6973 262.3523 422.4096 252.7178 422 231.4167 C421.9655 229.6238 421.2796 229.1616 420 227.4167 C410.4809 214.4361 410.5815 213.6014 400 201.4167 C394.3176 194.8733 393.9574 194.4766 387 189.4167 C377.8011 182.7266 367 177.4167 367 177.4167 "/>
<path id="12" d="M225 314.4167 C225 314.4167 225.6401 311.3311 225 310.4167 C223.2557 307.9247 221.6548 306.4725 218 304.4167 C214.2351 302.2989 213.2718 301.7218 209 301.4167 C200.2245 300.7899 195.6744 299.7686 190 302.4167 C185.0252 304.7383 181.541 309.1618 179 315.4167 C176.118 322.5108 175.7589 325.8842 177 334.4167 C179.4846 351.4983 180.5471 355.5751 187 370.4167 C189.2947 375.6944 191.7421 376.3272 197 380.4167 C200.2862 382.9726 201.3522 384.0519 205 384.4167 C214.5104 385.3677 219.7922 386.6602 227 383.4167 C235.2352 379.7108 242.5938 373.7689 245 366.4167 C248.9944 354.2116 246.4712 345.3358 245 328.4167 C244.6768 324.6999 243.6934 323.3666 241 320.4167 C233.9448 312.6896 224 305.4167 224 305.4167 "/>
<path id="13" d="M405 307.4167 C405 307.4167 403.0521 304.4556 402 304.4167 C393.9088 304.117 388.6505 303.9823 378 306.4167 C372.6126 307.6481 371.6021 308.6996 367 312.4167 C359.125 318.7772 357.5683 319.6211 352 327.4167 C348.4116 332.4405 347.8719 334.1393 347 340.4167 C345.5357 350.9595 345.7227 352.8793 347 363.4167 C347.5823 368.2203 348.1428 370.5595 351 373.4167 C356.3062 378.7229 359.5722 380.9407 367 383.4167 C372.3788 385.2096 376.1484 385.6114 381 383.4167 C393.6817 377.6797 397.1862 374.5896 409 364.4167 C413.8823 360.2124 415.9088 357.994 417 352.4167 C419.7508 338.3572 420.6618 329.3059 418 318.4167 C416.9013 313.9219 406 307.4167 406 307.4167 "/>
<path id="14" d="M254 356.4167 C254 356.4167 275.2674 337.0163 293 329.4167 C301.4155 325.81 305.6574 328.1904 317 329.4167 C323.3483 330.103 324.0601 330.6447 330 333.4167 C338.6568 337.4565 347 343.4167 347 343.4167 "/>
<path id="15" d="M246 357.4167 L256 352.4167 "/>
<path id="16" d="M232 310.4167 C232 310.4167 239.4418 306.1377 242 302.4167 C243.4941 300.2434 243 294.4167 243 294.4167 "/>
<path id="17" d="M393 299.4167 L393 304.4167 "/>
<path id="18" d="M219 323.4167 C219 323.4167 210.2021 320.8965 205 321.4167 C202.5874 321.6579 200.718 323.2691 199 325.4167 C197.5162 327.2714 196.9204 328.7109 197 331.4167 C197.3762 344.2088 196.2144 349.3219 200 359.4167 C202.1446 365.1356 206.7934 368.5767 212 371.4167 C214.8075 372.948 219.5024 372.3773 222 371.4167 C223.2296 370.9437 224.8228 368.6613 225 366.4167 C226.1167 352.2724 227.3525 346.0614 225 333.4167 C224.181 329.0146 217 323.4167 217 323.4167 "/>
<path id="19" d="M393 325.4167 C393 325.4167 385.1205 325.1877 382 327.4167 C377.1578 330.8754 375.9014 333.9143 372 340.4167 C370.3162 343.223 370.1515 344.0838 370 347.4167 C369.6805 354.4456 369.7169 361.1336 371 362.4167 C372.2831 363.6998 380.3012 364.6039 386 363.4167 C389.949 362.594 390.874 360.7175 395 357.4167 C398.2291 354.8334 399.5891 354.4149 401 351.4167 C402.9095 347.3591 404.0817 343.6618 403 340.4167 C401.2902 335.2873 393 327.4167 393 327.4167 "/>
<path id="20" d="M179 319.4167 L185 320.4167 "/>
<path id="21" d="M191 303.4167 L191 314.4167 "/>
<path id="22" d="M210 302.4167 L205 311.4167 "/>
<path id="23" d="M388 305.4167 L388 315.4167 "/>
<path id="24" d="M412 312.4167 L404 321.4167 "/>
<path id="25" d="M413 336.4167 L422 335.4167 "/>
</g>
</g>
</svg>
