<?xml version="1.0" encoding="utf-8"?>
<!DOCTYPE svg PUBLIC "-//W3C//DTD SVG 1.1//EN" "http://www.w3.org/Graphics/SVG/1.1/DTD/svg11.dtd">
<svg viewBox="0 0 800 800" preserveAspectRatio="xMinYMin meet" xmlns="http://www.w3.org/2000/svg" version="1.1">
<g fill="none" stroke="black" stroke-linecap="round" stroke-linejoin="round" stroke-width="1.5265">
<g transform="translate(87.52,153.357) scale(1.9653) translate(-111,-122.1333)">
<path id="0" d="M369 269.1333 C369 269.1333 366.0434 266.7842 366 265.1333 C364.8284 220.6142 361.327 204.3798 366 155.1333 C367.1994 142.4933 372.216 134.7118 379 128.1333 C383.3023 123.9614 392.0184 122.6829 399 123.1333 C403.063 123.3955 406.9228 126.1511 410 130.1333 C413.8984 135.1783 413.9506 137.4749 416 145.1333 C423.3408 172.5646 426.5698 173.5914 429 201.1333 C432.3982 239.6467 431.3271 243.796 428 281.1333 C427.098 291.2558 424.9101 292.3131 420 302.1333 C414.5989 312.9356 414.5118 316.2654 407 323.1333 C399.5216 329.9708 395.1887 329.9824 385 334.1333 C383.0763 334.9171 381.2763 334.6803 380 334.1333 C379.1613 333.7739 378.5738 332.7222 378 331.1333 C372.3008 315.3509 370.1018 314.2065 367 298.1333 C364.8805 287.1503 365.9406 285.0802 367 274.1333 C367.3218 270.8081 370 269.9154 370 267.1333 C370 262.7615 367 256.1333 367 256.1333 "/>
<path id="1" d="M392 122.1333 C392 122.1333 382.0936 128.0091 372 131.1333 C361.706 134.3196 360.664 132.1761 350 135.1333 C301.5273 148.5753 301.3342 149.181 253 164.1333 C231.8681 170.6705 231.545 170.2124 211 178.1333 C190.22 186.1449 170 196.1333 170 196.1333 "/>
<path id="2" d="M386 336.1333 C386 336.1333 355.5684 331.0679 328 321.1333 C301.0387 311.4176 301.5227 307.6133 275 296.1333 C268.4624 293.3036 267.2421 295.2544 261 292.1333 C230.1797 276.7232 230.3841 272.8446 199 258.1333 C183.2324 250.7423 165 247.1333 165 247.1333 "/>
<path id="3" d="M171 197.1333 C171 197.1333 167.2355 199.8937 164 200.1333 C155.0732 200.7946 153.297 198.7758 144 199.1333 C141.1697 199.2422 140.2381 199.5169 138 201.1333 C132.004 205.4638 129.0365 206.3978 126 212.1333 C121.4196 220.7853 120.8358 223.8495 120 235.1333 C117.9322 263.0487 117.8095 264.9697 120 293.1333 C121.2291 308.9362 125.4568 309.4443 127 325.1333 C128.3644 339.0048 123.704 343.6738 126 354.1333 C127.1324 359.2922 130.8729 363.8139 136 366.1333 C147.6862 371.42 155.1229 373.6286 168 373.1333 C176.257 372.8158 178.972 369.4937 188 364.1333 C194.3897 360.3394 195.4575 359.6322 200 354.1333 C204.2847 348.9466 207.9006 344.9088 207 341.1333 C198.7438 306.5209 174 245.1333 174 245.1333 "/>
<path id="4" d="M198 258.1333 C198 258.1333 199.7636 263.9335 199 268.1333 C197.996 273.6554 194 280.1333 194 280.1333 "/>
<path id="5" d="M126 209.1333 C126 209.1333 113 227.1333 113 227.1333 C113 227.1333 133.9996 196.1334 134 196.1333 C134.0003 196.1332 120.2952 224.6019 120 225.1333 C119.9884 225.1542 118.8322 223.497 119 223.1333 C120.5524 219.7697 126 212.1332 126 212.1333 C125.9999 212.1336 117.001 232.1319 117 232.1333 C116.9996 232.1339 119 222.1333 119 222.1333 C119 222.1333 116.0011 233.1326 116 233.1333 C115.9994 233.1338 116.0043 224.1441 116 224.1333 C115.9985 224.1295 114.6038 226.0804 114 228.1333 C112.1731 234.3448 111 241.1333 111 241.1333 C111 241.1333 114.9932 229.1333 115 229.1333 C115.0034 229.1333 116.9922 241.1236 117 241.1333 C117.0031 241.1372 119 234.1333 119 234.1333 C119 234.1333 117 243.1333 117 243.1333 C117 243.1333 117.9998 234.1332 118 234.1333 C118.0003 234.1335 119 244.1333 119 244.1333 C119 244.1333 119 238.1333 119 238.1333 C118.9357 238.1333 113.0643 244.1333 113 244.1333 C113 244.1333 112.9997 238.1339 113 238.1333 C113.0002 238.133 113.9992 242.1349 114 242.1333 C114.0019 242.1295 114.999 234.1327 115 234.1333 C115.002 234.1346 116.998 244.1376 117 244.1333 C117.0054 244.1217 117.2016 230.2496 121 221.1333 C123.7077 214.6349 126.9849 214.8201 132 208.1333 C134.36 204.9866 134.5787 204.3313 136 201.1333 C136.3238 200.4047 136.0064 199.1312 136 199.1333 C135.9614 199.1462 133.0386 202.1205 133 202.1333 C132.9936 202.1355 132.6878 200.5236 133 200.1333 C133.9678 198.9236 137 197.1333 137 197.1333 "/>
</g>
</g>
</svg>
