<?xml version="1.0" encoding="utf-8"?>
<!DOCTYPE svg PUBLIC "-//W3C//DTD SVG 1.1//EN" "http://www.w3.org/Graphics/SVG/1.1/DTD/svg11.dtd">
<svg viewBox="0 0 800 800" preserveAspectRatio="xMinYMin meet" xmlns="http://www.w3.org/2000/svg" version="1.1">
<g fill="none" stroke="black" stroke-linecap="round" stroke-linejoin="round" stroke-width="1.2145">
<g transform="translate(87.52,112.222) scale(2.4702) translate(-204,-77.1333)">
<path id="0" d="M213 185.1333 C213 185.1333 223.8078 174.6027 236 169.1333 C275.7371 151.3074 285.513 153.4498 320 137.1333 C325.1057 134.7177 323.6334 129.5711 329 125.1333 C348.465 109.0373 349.7222 106.8635 372 94.1333 C390.6085 83.4999 405.4666 77.902 413 77.1333 C414.1944 77.0115 417.8683 82.8699 421 89.1333 C425.6976 98.5285 425.978 98.9209 429 109.1333 C440.3781 147.5836 441.0948 148.0141 450 187.1333 C455.0123 209.1518 455.48 209.7682 457 232.1333 C458.9386 260.658 457 290.1333 457 290.1333 "/>
<path id="1" d="M456 296.1333 C456 296.1333 429.5841 288.9923 403 285.1333 C367.9341 280.0431 361.7768 284.6363 332 278.1333 C324.3552 276.4638 324.4254 271.1885 316 266.1333 C299.7303 256.3715 299.3021 256.2601 282 248.1333 C266.4701 240.839 266.223 240.6955 250 235.1333 C231.4122 228.7604 212 224.1333 212 224.1333 "/>
<path id="2" d="M212 186.1333 C212 186.1333 207.4398 190.1738 206 194.1333 C203.9174 199.8605 204.4803 201.1684 204 208.1333 C203.4904 215.523 203.3093 216.9168 204 223.1333 C204.1484 224.4687 205.3565 225.9724 206 226.1333 C207.3456 226.4697 211.4176 226.0555 212 225.1333 C214.6496 220.9381 216.5375 215.9083 218 207.1333 C219.3855 198.8202 218.9956 196.7666 218 189.1333 C217.7018 186.847 215 184.1333 215 184.1333 "/>
<path id="3" d="M208 227.1333 C208 227.1333 206.9374 237.3925 208 247.1333 C209.8944 264.4985 212.3454 264.76 214 282.1333 C215.3024 295.8087 212.7328 307.1764 214 310.1333 C214.2328 310.6764 225.8953 310.4475 226 310.1333 C226.5935 308.3528 222.671 298.044 222 286.1333 C220.6981 263.0253 223.7875 261.2987 222 239.1333 C221.4142 231.8691 217 224.1333 217 224.1333 "/>
</g>
</g>
</svg>
