<?xml version="1.0" encoding="utf-8"?>
<!DOCTYPE svg PUBLIC "-//W3C//DTD SVG 1.1//EN" "http://www.w3.org/Graphics/SVG/1.1/DTD/svg11.dtd">
<svg viewBox="0 0 800 800" preserveAspectRatio="xMinYMin meet" xmlns="http://www.w3.org/2000/svg" version="1.1">
<g fill="none" stroke="black" stroke-linecap="round" stroke-linejoin="round" stroke-width="0.80165">
<g transform="translate(87.52,175.4635) scale(3.7423) translate(-226,-153)">
<path id="0" d="M229 188 C229 188 238.4253 190.0393 246 188 C300.5478 173.3141 304.4522 167.6859 359 153 C366.5747 150.9607 375.7307 152.4614 376 153 C376.6812 154.3624 371.4241 165.267 371 177 C369.9665 205.593 375.3459 233.9777 373 236 C370.4919 238.1622 342.7784 230.5264 313 227 C305.1977 226.076 304.7685 227.8398 297 227 C286.5938 225.875 286.1138 225.8897 276 223 C261.9059 218.9731 261.5791 215.952 248 213 C239.8995 211.239 236.3472 214.154 230 213 C228.3331 212.6969 226.3771 210.6971 226 209 C224.92 204.1401 224.918 201.2215 226 195 C226.7493 190.6913 230 186 230 186 "/>
<path id="1" d="M261 218 C261 218 267.0464 230.7903 269 243 C270.8584 254.615 270.8212 261.1704 269 268 C268.4803 269.9487 264.7192 272.0213 261 273 C256.6084 274.1557 253.1555 273.7282 250 273 C249.2277 272.8218 247.8565 270.2631 248 270 C248.9295 268.2959 255.3126 265.4372 256 262 C258.6638 248.6808 258.883 239.75 257 225 C256.4437 220.6422 253.5843 218.5843 250 215 C248.5241 213.5241 245 213 245 213 "/>
<path id="2" d="M378 155 C378 155 376 159.1469 376 163 C376 197.1962 378.3963 203.8821 378 234 C377.9719 236.1385 375 239 375 239 "/>
<path id="3" d="M375 187 C375 187 374.9548 188.9925 375 189 C377.4614 189.4102 390.9391 188.9695 393 190 C393.4456 190.2228 393.4318 197.8123 393 198 C390.0371 199.2882 370 200 370 200 "/>
<path id="4" d="M377 190 L372 190 "/>
<path id="5" d="M242 191 L243 213 "/>
<path id="6" d="M383 193 L383 200 "/>
<path id="7" d="M387 194 L388 195 "/>
</g>
</g>
</svg>
