<?xml version="1.0" encoding="utf-8"?>
<!DOCTYPE svg PUBLIC "-//W3C//DTD SVG 1.1//EN" "http://www.w3.org/Graphics/SVG/1.1/DTD/svg11.dtd">
<svg viewBox="0 0 800 800" preserveAspectRatio="xMinYMin meet" xmlns="http://www.w3.org/2000/svg" version="1.1">
<g fill="none" stroke="black" stroke-linecap="round" stroke-linejoin="round" stroke-width="2.5634">
<g transform="translate(87.52,282.9663) scale(1.1703) translate(-93,-118.9833)">
<path id="0" d="M100 222.9833 C100 222.9833 158.859 203.2256 213 186.9833 C216.0613 186.065 217.6606 187.6852 220 186.9833 C221.3034 186.5923 221.39 184.5657 223 183.9833 C242.3365 176.9893 245.7232 175.4995 267 169.9833 C271.4671 168.8252 273.282 171.4705 277 169.9833 C286.2206 166.2951 286.8531 161.6362 297 157.9833 C310.4179 153.1529 312.8683 156.5419 327 151.9833 C343.1586 146.7709 343.0614 142.2024 359 137.9833 C375.5425 133.6044 380.9722 136.7889 395 133.9833 C396.8297 133.6174 397.0549 130.4696 399 129.9833 C415.2414 125.923 419.1805 125.5058 439 122.9833 C446.2704 122.058 446.9205 123.9598 454 122.9833 C460.8679 122.036 467.912 118.8022 468 118.9833 C469.2714 121.601 468.3757 138.9574 471 157.9833 C472.311 167.488 475.2929 167.556 476 176.9833 C481.1647 245.8455 488.3217 310.3297 483 317.9833 C480.8988 321.0053 434.8818 310.3035 387 304.9833 C372.2042 303.3394 370.0515 305.4749 357 303.9833 C354.6844 303.7187 354.2993 301.1476 352 300.9833 C292.2507 296.7155 281.5262 301.8699 217 293.9833 C194.756 291.2646 194.1458 284.989 172 278.9833 C165.559 277.2366 164.5103 279.5152 158 277.9833 C148.1001 275.654 148.0587 272.9951 138 270.9833 C118.7286 267.1291 116.1634 269.2124 98 265.9833 C95.542 265.5464 93.4346 264.2002 93 262.9833 C92.001 260.1863 92.0317 257.0185 93 251.9833 C94.4051 244.6771 96.511 244.4286 98 236.9833 C99.4146 229.9104 99 221.9833 99 221.9833 "/>
<path id="1" d="M248 298.9833 C248 298.9833 238.7963 310.9569 230 315.9833 C224.0602 319.3775 216.6814 320.5067 213 318.9833 C208.7467 317.2233 205.5129 311.3974 201 303.9833 C199.135 300.9194 199 295.9833 199 295.9833 "/>
<path id="2" d="M499 162.9833 C499 162.9833 504.4877 158.2314 510 156.9833 C529.3392 152.6047 531.3767 154.9116 552 150.9833 C562.5848 148.9672 562.8265 148.3745 573 144.9833 C576.0963 143.9512 576.8586 143.96 579 141.9833 C582.738 138.5328 582.0692 136.259 586 132.9833 C590.3374 129.3688 591.6302 128.5495 597 126.9833 C602.5979 125.3506 610 125.9833 610 125.9833 "/>
<path id="3" d="M526 193.9833 C526 193.9833 566.7693 197.1189 605 195.9833 C615.7265 195.6647 627 190.9833 627 190.9833 "/>
<path id="4" d="M527 276.9833 C527 276.9833 556.417 287.7276 586 295.9833 C599.0636 299.629 601.3735 297.0059 613 300.9833 C618.5628 302.8864 624 308.9833 624 308.9833 "/>
</g>
</g>
</svg>
