<?xml version="1.0" encoding="utf-8"?>
<!DOCTYPE svg PUBLIC "-//W3C//DTD SVG 1.1//EN" "http://www.w3.org/Graphics/SVG/1.1/DTD/svg11.dtd">
<svg viewBox="0 0 800 800" preserveAspectRatio="xMinYMin meet" xmlns="http://www.w3.org/2000/svg" version="1.1">
<g fill="none" stroke="black" stroke-linecap="round" stroke-linejoin="round" stroke-width="2.837">
<g transform="translate(87.52,246.1393) scale(1.0575) translate(-49,-111)">
<path id="0" d="M159 226 C159 226 178.3952 224.65 194 219 C205.6695 214.7748 205.1288 209.7868 217 205 C235.0006 197.7417 237.5188 201.1461 256 194 C274.3558 186.9024 273.7925 182.7939 292 176 C306.3268 170.6542 307.5589 171.5735 323 169 C331.2406 167.6266 331.998 169.6414 340 168 C350.8999 165.7641 351.5757 165.5606 362 161 C399.148 144.7477 398.8127 141.8322 436 126 C448.7188 120.5851 463 118 463 118 "/>
<path id="1" d="M167 253 C167 253 166.834 254.9225 167 255 C170.0824 256.4384 174.4196 257.8118 182 260 C222.863 271.7955 222.7459 274.7492 264 283 C316.8777 293.5755 318.3501 289.4309 372 298 C390.1162 300.8936 390.5979 300.5434 408 306 C449.1654 318.9078 451.0352 322.1593 490 335 C492.5535 335.8415 495.325 335.225 496 335 C496.075 334.975 496 333 496 333 "/>
<path id="2" d="M462 119 C462 119 451.4171 133.0151 448 146 C444.6298 158.8067 448.7636 162.244 447 176 C446.4432 180.3434 443 181.0036 443 185 C443 211.6427 443.8088 215.3215 447 245 C448.7768 261.5239 448.6773 262.0741 453 278 C458.0593 296.6394 457.2017 300.2499 466 315 C472.3944 325.72 478.4613 330.2284 487 335 C490.3015 336.845 495.7671 336.1949 500 334 C506.4944 330.6326 511.6111 327.2865 514 321 C519.0724 307.6515 515.4095 299.4392 519 284 C519.6739 281.1022 523.6974 280.5416 524 278 C525.6516 264.1269 524.6617 259.8656 524 242 C523.6678 233.0305 523.8731 232.5629 522 224 C520.4666 216.99 517.7529 216.7763 517 210 C515.3964 195.568 519.1728 193.4854 517 179 C514.8727 164.8183 513.4393 162.2383 508 150 C506.3334 146.2502 503.5236 146.7854 501 143 C497.8996 138.3493 499.333 136.4996 496 132 C489.8544 123.7035 488.6712 123.6712 481 116 C478.7729 113.7729 478.41 112.8033 476 112 C472.0679 110.6893 469.4014 110.0552 466 111 C462.618 111.9394 460.5855 113.8973 458 117 C456.4351 118.8779 456 123 456 123 "/>
<path id="3" d="M160 226 C160 226 154.8694 219.8006 151 219 C143.6698 217.4834 139.9096 218.2181 131 220 C126.1482 220.9704 121.6768 222.8247 121 225 C117.5588 236.0611 121.3465 247.9244 117 265 C115.1408 272.304 110.5003 272.2993 107 280 C103.3695 287.9872 102.9703 289.1056 102 298 C100.0585 315.7975 103.0811 317.1623 101 335 C99.6712 346.3899 96.9271 346.4373 95 358 C91.4803 379.1179 88.5083 397.139 90 401 C90.3451 401.8931 101.4442 402.9958 112 402 C127.211 400.565 140.9354 399.8194 143 396 C149.6105 383.7706 145.9614 357.0608 152 328 C152.9035 323.6517 157.8564 322.8121 159 319 C160.1024 315.3253 159.3288 311.9864 158 308 C157.3747 306.124 154.0934 305.4482 154 304 C153.4104 294.8609 153.9175 286.2224 156 277 C156.3891 275.2769 159.4344 275.3484 161 273 C166.8355 264.2468 172 253 172 253 "/>
<path id="4" d="M157 305 C157 305 177.5069 307.9755 186 304 C194.0209 300.2455 198.8961 292.6706 204 283 C206.5985 278.0766 205 268 205 268 "/>
<path id="5" d="M121 230 C121 230 121.6155 233.446 121 234 C115.4261 239.0165 110.9071 244.904 101 248 C82.3544 253.8268 70.2266 251.1247 57 254 C56.1622 254.1821 55.0743 256.2164 55 258 C54.6367 266.718 56.4628 276.5345 56 278 C55.9715 278.0901 49.136 277.4306 49 277 C48.251 274.6281 47.7422 263.7037 50 259 C51.5003 255.8744 56.0223 254.3229 61 252 C62.3956 251.3487 65.0046 251.9923 65 252 C64.9824 252.0293 58 257 58 257 "/>
<path id="6" d="M54 278 C54 278 73.0878 274.6027 92 273 C102.3362 272.124 102.6566 273.3831 113 273 C115.9735 272.8899 118.9976 272.0071 119 272 C119.0003 271.9992 114 270 114 270 "/>
<path id="7" d="M554 184 C554 184 556.8306 179.6381 559 179 C563.0233 177.8167 565.3316 179.9678 571 179 C585.2632 176.5648 600 172 600 172 "/>
<path id="8" d="M573 202 C573 202 582.2741 202.2055 590 205 C604.9792 210.418 620 219 620 219 "/>
<path id="9" d="M555 240 C555 240 543.9924 244.9987 544 245 C544.0259 245.0043 561.7923 243.3854 579 244 C589.3879 244.371 596.8104 243.9203 600 247 C604.2897 251.1418 603.2937 262.5874 608 272 C609.3794 274.7589 611.5798 276.145 615 277 C625.6752 279.6688 640 280 640 280 "/>
<path id="10" d="M542 296 C542 296 539.1945 300.2495 539 302 C538.9147 302.7678 539.8435 304.4928 541 305 C563.5493 314.89 576.8939 315.4757 596 327 C600.9398 329.9795 599.3031 337.5615 604 343 C607.1779 346.6796 615 349 615 349 "/>
<path id="11" d="M159 274 C159 274 179.1223 274.6237 182 276 C182.517 276.2473 182.5327 280.7381 182 285 C181.5708 288.4332 180.349 291.9683 180 292 C177.4127 292.2352 168.9922 287.9634 160 287 C156.5908 286.6347 152.0207 288.9876 152 289 C151.9946 289.0032 155 290 155 290 "/>
</g>
</g>
</svg>
