<?xml version="1.0" encoding="utf-8"?>
<!DOCTYPE svg PUBLIC "-//W3C//DTD SVG 1.1//EN" "http://www.w3.org/Graphics/SVG/1.1/DTD/svg11.dtd">
<svg viewBox="0 0 800 800" preserveAspectRatio="xMinYMin meet" xmlns="http://www.w3.org/2000/svg" version="1.1">
<g fill="none" stroke="black" stroke-linecap="round" stroke-linejoin="round" stroke-width="1.0225">
<g transform="translate(87.52,267.9662) scale(2.9341) translate(-173,-133.1333)">
<path id="0" d="M188 142.1333 C188 142.1333 221.1637 134.7053 254 133.1333 C314.3037 130.2465 321.3484 131.0632 376 133.1333 C380.5645 133.3062 384.5903 136.0188 386 138.1333 C387.2083 139.9458 386.2404 146.9314 386 148.1333 C385.9904 148.1814 384 148.1333 384 148.1333 "/>
<path id="1" d="M189 142.1333 C189 142.1333 180.1616 143.0525 176 145.1333 C174.4214 145.9226 173.5379 147.8025 173 150.1333 C172.244 153.4092 172.0498 157.3641 173 158.1333 C177.1502 161.493 184.1037 166.4879 194 167.1333 C247.6375 170.6314 252.685 168.2476 311 167.1333 C330.9653 166.7518 331.6155 166.9933 351 164.1333 C361.4898 162.5857 362.0547 161.8628 372 158.1333 C377.6678 156.0079 378.7879 155.4428 383 152.1333 C384.8571 150.6742 386 147.1333 386 147.1333 "/>
<path id="2" d="M174 160.1333 C174 160.1333 180.1406 169.9573 188 177.1333 C202.5961 190.4602 203.684 190.3303 220 202.1333 C227.0074 207.2025 227.3538 208.5267 235 211.1333 C248.138 215.6122 264 217.1333 264 217.1333 "/>
<path id="3" d="M386 148.1333 C386 148.1333 376.5282 174.19 362 189.1333 C344.8999 206.722 337.8532 213.0571 316 220.1333 C292.6129 227.7063 279.6247 224.4642 257 223.1333 C253.3801 222.9204 248 216.1333 248 216.1333 "/>
<path id="4" d="M184 156.1333 C184 156.1333 195.0833 149.9808 206 148.1333 C226.3377 144.6916 227.9797 147.8026 249 145.1333 C258.9987 143.8637 259.2128 140.5378 269 140.1333 C317.9199 138.1118 324.7516 138.4728 370 140.1333 C373.6498 140.2673 376.9573 142.4389 378 144.1333 C379.0517 145.8424 378.1729 152.6722 378 153.1333 C377.9976 153.1397 375 152.1333 375 152.1333 "/>
</g>
</g>
</svg>
