<?xml version="1.0" encoding="utf-8"?>
<!DOCTYPE svg PUBLIC "-//W3C//DTD SVG 1.1//EN" "http://www.w3.org/Graphics/SVG/1.1/DTD/svg11.dtd">
<svg viewBox="0 0 800 800" preserveAspectRatio="xMinYMin meet" xmlns="http://www.w3.org/2000/svg" version="1.1">
<g fill="none" stroke="black" stroke-linecap="round" stroke-linejoin="round" stroke-width="1.3345">
<g transform="translate(87.52,141.4734) scale(2.2481) translate(-120,-138.1333)">
<path id="0" d="M155 141.1333 C155 141.1333 267.6866 138.0073 339 139.1333 C341.3564 139.1705 343.7138 141.7448 345 144.1333 C346.3342 146.6112 346.2547 149.5866 346 152.1333 C345.9291 152.8426 344.736 154.1257 344 154.1333 C274.0663 154.8543 217.9088 156.7829 152 154.1333 C149.4867 154.0323 144.8787 146.3489 145 146.1333 C145.5075 145.2312 161 138.1333 161 138.1333 "/>
<path id="1" d="M149 154.1333 C149 154.1333 148.6298 160.5004 150 166.1333 C153.0156 178.5307 155.8963 178.7215 158 191.1333 C160.7409 207.3047 163.5219 212.6111 160 225.1333 C156.2477 238.4747 150.7868 241.0505 140 255.1333 C133.0367 264.2243 128.0003 265.7329 124 272.1333 C123.0555 273.6446 125.5635 276.8795 125 279.1333 C124.4992 281.1367 121.8665 281.7072 121 284.1333 C119.7388 287.6647 119.521 288.9423 120 293.1333 C121.4323 305.6661 121.0611 307.3165 125 319.1333 C127.7051 327.2485 128.7232 328.5374 134 335.1333 C138.0486 340.194 139.2782 342.3047 145 344.1333 C183.3609 356.393 188.4753 360.9527 231 366.1333 C284.3445 372.6322 289.3653 370.4385 342 368.1333 C354.5049 367.5857 355.6118 365.031 368 360.1333 C376.733 356.6807 378.0717 356.522 385 351.1333 C390.5811 346.7924 392.317 345.1184 395 339.1333 C397.9861 332.4721 399.1143 329.488 398 322.1333 C394.5672 299.4766 392.6206 296.7209 385 273.1333 C382.3379 264.8934 381.1476 265.0514 377 257.1333 C370.1526 244.061 371.2939 241.2415 363 231.1333 C356.8562 223.6455 351.5295 225.3883 345 218.1333 C339.3873 211.897 337.2819 209.1098 336 201.1333 C333.2897 184.2692 333.3435 179.5484 336 162.1333 C337.4558 152.5895 345 142.1333 345 142.1333 "/>
</g>
</g>
</svg>
