<?xml version="1.0" encoding="utf-8"?>
<!DOCTYPE svg PUBLIC "-//W3C//DTD SVG 1.1//EN" "http://www.w3.org/Graphics/SVG/1.1/DTD/svg11.dtd">
<svg viewBox="0 0 800 800" preserveAspectRatio="xMinYMin meet" xmlns="http://www.w3.org/2000/svg" version="1.1">
<g fill="none" stroke="black" stroke-linecap="round" stroke-linejoin="round" stroke-width="0.94086">
<g transform="translate(87.52,226.2229) scale(3.1886) translate(-145,-150.1333)">
<path id="0" d="M145 179.1333 C145 179.1333 143.4094 190.7636 146 199.1333 C149.28 209.7304 150.8431 211.5162 158 221.1333 C166.3031 232.2906 167.8221 232.7094 178 242.1333 C180.7619 244.6906 181.4122 244.3395 185 246.1333 C192.3748 249.8208 192.357 250.5129 200 253.1333 C209.5381 256.4035 210.1421 257.4612 220 258.1333 C252.9883 260.3825 260.2993 264.3965 288 259.1333 C302.6245 256.3547 306.1443 250.2179 320 239.1333 C327.4475 233.1754 328.6909 231.2446 333 223.1333 C336.4097 216.7151 336.2523 215.0589 337 207.1333 C338.6935 189.1821 338 170.1333 338 170.1333 "/>
<path id="1" d="M146 179.1333 C146 179.1333 158.1131 166.6292 171 161.1333 C189.8084 153.1121 192.8658 151.9216 214 150.1333 C255.8538 146.5919 261.2374 148.4766 301 150.1333 C305.1895 150.3079 305.5718 153.2108 310 154.1333 C316.8487 155.5601 320.496 152.7205 325 155.1333 C330.9432 158.3172 338 169.1333 338 169.1333 "/>
<path id="2" d="M146 182.1333 C146 182.1333 165.7682 181.77 184 184.1333 C191.9334 185.1617 192.2727 188.8059 200 189.1333 C248.6176 191.1934 253.1632 190.4415 302 189.1333 C306.8264 189.0041 308.4108 188.4558 312 186.1333 C315.6599 183.7651 315.0321 181.033 319 178.1333 C327.3516 172.0302 338 167.1333 338 167.1333 "/>
<path id="3" d="M149 184.1333 C149 184.1333 154.4 183.1213 159 184.1333 C178.5132 188.4262 179.4304 193.7355 199 195.1333 C253.6989 199.0404 268.1725 200.1891 313 195.1333 C321.1365 194.2157 324.8166 188.3429 332 180.1333 C337.6502 173.676 341 163.1333 341 163.1333 "/>
<path id="4" d="M151 179.1333 C151 179.1333 157.6957 179.7855 161 178.1333 C164.7763 176.2452 164.7032 172.9263 169 170.1333 C173.9641 166.9066 174.9024 167.0933 181 165.1333 C188.746 162.6435 188.9888 162.1718 197 161.1333 C215.618 158.7199 216.0326 158.6369 235 158.1333 C272.3574 157.1415 274.0508 155.368 310 158.1333 C324.1953 159.2253 339 166.1333 339 166.1333 "/>
</g>
</g>
</svg>
