<?xml version="1.0" encoding="utf-8"?>
<!DOCTYPE svg PUBLIC "-//W3C//DTD SVG 1.1//EN" "http://www.w3.org/Graphics/SVG/1.1/DTD/svg11.dtd">
<svg viewBox="0 0 800 800" preserveAspectRatio="xMinYMin meet" xmlns="http://www.w3.org/2000/svg" version="1.1">
<g fill="none" stroke="black" stroke-linecap="round" stroke-linejoin="round" stroke-width="0.98406">
<g transform="translate(87.52,114.9573) scale(3.0486) translate(-125,-152)">
<path id="0" d="M142 161 C142 161 150.2431 152.5904 157 152 C194.6655 148.7088 203.8446 146.9666 245 152 C269.8238 155.036 273.503 159.2029 296 169 C301.9147 171.5758 301.1643 175.1096 307 179 C312.6155 182.7436 320 185 320 185 "/>
<path id="1" d="M144 158 C144 158 143.3006 162.5136 142 164 C140.9301 165.2227 137.9709 164.5723 137 166 C131.3978 174.2385 127.2664 181.9491 125 189 C124.6594 190.0595 126.0915 192.6482 128 194 C136.6063 200.0961 138.2707 201.2896 149 206 C158.245 210.0588 159.2204 211.3741 169 212 C219.437 215.228 222.9953 214.8293 274 214 C282.778 213.8573 285.0201 213.969 292 210 C308.255 200.757 325 185 325 185 "/>
<path id="2" d="M126 191 C126 191 124.767 221.8731 126 249 C126.173 252.8054 128.447 253.1288 129 257 C129.853 262.9709 126.8012 265.7714 129 270 C137.5451 286.4328 139.9839 293.2529 155 307 C172.7148 323.2178 178.2859 328.2539 200 335 C223.9557 342.4426 230.3992 339 258 339 C265.614 339 267.437 338.381 274 335 C282.6112 330.5639 283.0662 329.0004 291 322 C299.9174 314.1317 301.3504 314.2236 308 305 C316.2036 293.6208 318.6371 291.971 322 279 C328.4483 254.128 326.5034 251.4625 329 224 C330.4849 207.6661 331.0366 204.4753 330 191 C329.8014 188.4183 328.206 186.5272 326 185 C323.0031 182.9252 317 182 317 182 "/>
</g>
</g>
</svg>
