<?xml version="1.0" encoding="utf-8"?>
<!DOCTYPE svg PUBLIC "-//W3C//DTD SVG 1.1//EN" "http://www.w3.org/Graphics/SVG/1.1/DTD/svg11.dtd">
<svg viewBox="0 0 800 800" preserveAspectRatio="xMinYMin meet" xmlns="http://www.w3.org/2000/svg" version="1.1">
<g fill="none" stroke="black" stroke-linecap="round" stroke-linejoin="round" stroke-width="0.99846">
<g transform="translate(87.52,231.7415) scale(3.0046) translate(-94,-105)">
<path id="0" d="M127 162 C127 162 134.0439 190.6319 143 207 C145.518 211.6019 150.0495 214.367 156 215 C190.8895 218.7117 199.2816 217.82 237 217 C242.1655 216.8877 243.8085 216.0352 248 213 C257.1423 206.3797 260.3289 205.0318 266 196 C272.3422 185.8995 272.6784 181.2765 275 170 C275.6325 166.9278 272.8185 165.4492 273 162 C273.2566 157.1251 273.4931 154.8567 276 151 C279.0005 146.3838 280.8513 145.2518 286 142 C289.5764 139.7412 295 139 295 139 "/>
<path id="1" d="M128 164 C128 164 121.7752 153.4713 116 148 C114.1085 146.2081 110.2468 146.7125 109 146 C108.825 145.9 109.0153 144.0011 109 144 C107.5058 143.8933 95.0093 145.0023 95 145 C94.9964 144.9991 98.2743 142.0574 101 142 C183.7272 140.2584 217.6948 142.4397 285 141 C286.1207 140.976 286.6826 138.494 288 138 C289.5968 137.4012 293 138 293 138 "/>
<path id="2" d="M94 145 C94 145 95.1051 135.3688 98 129 C99.4179 125.8806 100.6965 125.1473 104 123 C110.1899 118.9766 111.3909 117.0281 118 116 C131.5783 113.8878 139.2154 114.8489 149 116 C150.0954 116.1289 150.5429 119.2714 152 120 C154.1857 121.0928 155.5563 121.0526 159 121 C220.1581 120.0663 224.3572 116.7697 283 118 C292.0497 118.1899 298.9055 121.557 302 124 C302.9263 124.7313 303.3352 130.8151 302 133 C299.6675 136.8169 291 142 291 142 "/>
<path id="3" d="M194 119 C194 119 195.265 112.9155 195 110 C194.9351 109.286 192.9619 108.0953 193 108 C193.1462 107.6346 195.382 105.2697 197 105 C199.8165 104.5306 203.8913 104.8913 205 106 C206.6015 107.6015 207.7696 113.2351 208 116 C208.0412 116.4945 206 118 206 118 "/>
</g>
</g>
</svg>
