<?xml version="1.0" encoding="utf-8"?>
<!DOCTYPE svg PUBLIC "-//W3C//DTD SVG 1.1//EN" "http://www.w3.org/Graphics/SVG/1.1/DTD/svg11.dtd">
<svg viewBox="0 0 800 800" preserveAspectRatio="xMinYMin meet" xmlns="http://www.w3.org/2000/svg" version="1.1">
<g fill="none" stroke="black" stroke-linecap="round" stroke-linejoin="round" stroke-width="0.95046">
<g transform="translate(138.0218,87.52) scale(3.1564) translate(-225,-22)">
<path id="0" d="M233 120 C233 120 226.3814 121.2372 226 122 C225.3412 123.3176 226.744 131.9825 227 132 C251.3491 133.6636 339.0354 134.4623 387 133 C388.2542 132.9618 391.0968 127.0117 391 127 C388.1743 126.6584 342.9843 125.8512 296 122 C282.5021 120.8936 282.3847 118.014 269 117 C249.9341 115.5556 230 117 230 117 "/>
<path id="1" d="M225 120 C225 120 218.9546 169.0737 225 190 C227.3759 198.2244 237.544 203.158 251 210 C265.1685 217.2043 267.8854 218.4045 284 220 C316.2385 223.1919 323.208 223.9262 352 220 C361.1611 218.7508 363.7811 214.7512 372 208 C376.6895 204.1479 377.3207 202.6021 380 197 C382.4278 191.9236 382.6359 190.9158 383 185 C384.5854 159.2378 384 132 384 132 "/>
<path id="2" d="M280 101 C280 101 273.7539 97.0668 270 93 C268.5085 91.3842 268.2076 90.3872 268 88 C267.2778 79.695 266.2889 78.2704 268 70 C272.0385 50.4806 280 30 280 30 "/>
<path id="3" d="M313 97 C313 97 298.5616 84.0613 292 75 C290.7655 73.2952 290.8445 70.311 292 68 C295.7966 60.4068 301.4002 58.7995 304 51 C306.3522 43.9433 304 32 304 32 "/>
<path id="4" d="M365 100 C365 100 360.4466 101.6524 358 101 C354.6087 100.0957 353.2004 99.0549 350 96 C342.6653 88.9987 339.0874 86.6497 336 80 C334.4171 76.5907 334.8766 71.822 337 68 C340.8521 61.0662 348.3393 59.6518 351 53 C353.5832 46.5419 351 33 351 33 "/>
<path id="5" d="M247 101 C247 101 240.0903 93.9967 239 88 C236.6617 75.1392 236.4806 69.8769 239 57 C240.3622 50.0378 246.1989 49.0043 248 42 C250.0805 33.9093 248 22 248 22 "/>
</g>
</g>
</svg>
