<?xml version="1.0" encoding="utf-8"?>
<!DOCTYPE svg PUBLIC "-//W3C//DTD SVG 1.1//EN" "http://www.w3.org/Graphics/SVG/1.1/DTD/svg11.dtd">
<svg viewBox="0 0 800 800" preserveAspectRatio="xMinYMin meet" xmlns="http://www.w3.org/2000/svg" version="1.1">
<g fill="none" stroke="black" stroke-linecap="round" stroke-linejoin="round" stroke-width="1.5841">
<g transform="translate(87.52,303.4153) scale(1.8938) translate(-197.3611,-158.3056)">
<path id="0" d="M198.3611 179.5556 C198.3611 179.5556 198.3807 184.9248 200.3611 188.5556 C206.784 200.3309 206.7641 203.1158 216.3611 212.5556 C235.8452 231.7202 239.2985 238.1304 261.3611 248.5556 C278.9041 256.8451 284.3772 253.3781 307.3611 255.5556 C331.5894 257.8509 331.8725 257.229 356.3611 257.5556 C406.8101 258.2282 409.5083 259.6182 457.3611 257.5556 C464.5701 257.2448 466.7736 256.5257 472.3611 252.5556 C483.9959 244.2887 485.5996 241.4434 495.3611 230.5556 C497.5804 228.0802 497.7744 223.9746 498.3611 223.5556 C498.5497 223.4209 502.3611 225.5156 502.3611 225.5556 C502.3611 225.5956 498.3611 227.5743 498.3611 227.5556 C498.3611 227.4523 499.5386 220.8979 502.3611 216.5556 C505.4431 211.8141 508.1697 212.5507 511.3611 207.5556 C519.1382 195.3827 525.3611 180.5556 525.3611 180.5556 "/>
<path id="1" d="M200.3611 178.5556 C200.3611 178.5556 212.3553 182.8672 224.3611 184.5556 C243.8951 187.3025 244.3743 187.0889 264.3611 187.5556 C372.6351 190.0834 373.5654 190.975 481.3611 190.5556 C501.2401 190.4782 521.3611 186.5556 521.3611 186.5556 "/>
<path id="2" d="M197.3611 177.3056 C197.3611 177.3056 203.7737 172.8626 210.3611 171.3056 C230.3061 166.5913 231.4753 165.581 252.3611 164.3056 C296.2033 161.6282 298.1379 165.3638 341.3611 163.3056 C349.2199 162.9313 349.468 159.8537 357.3611 159.3056 C384.5494 157.4175 386.4183 156.21 413.3611 158.3056 C430.0418 159.6029 430.4158 164.0157 447.3611 166.3056 C466.813 168.9342 469.1387 164.2055 487.3611 168.3056 C507.0026 172.7249 527.3611 184.3056 527.3611 184.3056 "/>
<path id="3" d="M200.3611 182.3056 L206.3611 196.3056 "/>
<path id="4" d="M203.3611 186.3056 C203.3611 186.3056 206.3634 198.192 211.3611 207.3056 C214.3013 212.6671 215.1891 213.8868 220.3611 217.3056 C243.2786 232.4544 270.3611 246.3056 270.3611 246.3056 "/>
<path id="5" d="M236.3611 230.3056 C236.3611 230.3056 251.8057 242.6491 267.3611 248.3056 C282.7658 253.9073 285.2445 252.559 302.3611 254.3056 C309.041 254.9872 316.3611 253.3056 316.3611 253.3056 "/>
<path id="6" d="M286.3611 253.3056 C286.3611 253.3056 303.3739 256.4911 320.3611 257.3056 C376.0766 259.9768 432.3611 260.3056 432.3611 260.3056 "/>
</g>
</g>
</svg>
