<?xml version="1.0" encoding="utf-8"?>
<!DOCTYPE svg PUBLIC "-//W3C//DTD SVG 1.1//EN" "http://www.w3.org/Graphics/SVG/1.1/DTD/svg11.dtd">
<svg viewBox="0 0 800 800" preserveAspectRatio="xMinYMin meet" xmlns="http://www.w3.org/2000/svg" version="1.1">
<g fill="none" stroke="black" stroke-linecap="round" stroke-linejoin="round" stroke-width="1.1041">
<g transform="translate(158.1677,87.52) scale(2.7172) translate(-198.3611,-150.3056)">
<path id="0" d="M263.3611 233.3056 C263.3611 233.3056 258.8261 233.5655 256.3611 235.3056 C251.3621 238.8342 249.4036 240.6036 246.3611 245.3056 C244.9486 247.4886 244.7977 250.0517 245.3611 252.3056 C245.862 254.3089 247.3894 256.6989 249.3611 257.3056 C262.5882 261.3754 267.2076 263.2965 284.3611 264.3056 C308.5242 265.7269 311.6387 266.566 334.3611 262.3056 C348.9925 259.5622 351.6257 256.8162 364.3611 249.3056 C369.3981 246.335 370.8666 244.0451 373.3611 239.3056 C374.9736 236.2418 375.2365 233.107 374.3611 230.3056 C373.4668 227.4437 371.0447 224.2001 368.3611 223.3056 C362.4571 221.3376 355.3182 223.0883 350.3611 222.3056 C350.0019 222.2488 349.6263 220.3107 349.3611 220.3056 C336.342 220.0552 323.4409 219.4008 298.3611 221.3056 C284.4258 222.3639 282.0935 222.2918 270.3611 226.3056 C265.3315 228.0262 260.3611 234.3056 260.3611 234.3056 "/>
<path id="1" d="M241.3611 250.3056 L241.3611 251.3056 "/>
<path id="2" d="M244.3611 251.3056 C244.3611 251.3056 243.322 271.7945 246.3611 290.3056 C248.639 304.1801 250.0295 305.5097 255.3611 318.3056 C257.1243 322.5373 258.084 322.6188 261.3611 326.3056 C266.0038 331.5285 265.9162 332.1749 271.3611 336.3056 C280.0623 342.9064 280.5392 344.6022 290.3611 348.3056 C309.6284 355.5703 332.3611 359.3056 332.3611 359.3056 "/>
<path id="3" d="M375.3611 234.3056 C375.3611 234.3056 379.5737 257.0298 376.3611 276.3056 C371.9965 302.4929 369.6892 306.2067 359.3611 330.3056 C355.7258 338.7879 353.4063 340.3041 346.3611 346.3056 C341.0797 350.8046 337.5348 349.7486 332.3611 353.3056 C331.0548 354.2036 331.1465 357.0438 330.3611 357.3056 C328.0049 358.091 320.3611 357.3056 320.3611 357.3056 "/>
<path id="4" d="M273.3611 341.3056 C273.3611 341.3056 279.0263 343.5463 281.3611 346.3056 C283.4517 348.7763 282.2131 351.001 284.3611 354.3056 C288.3548 360.4497 288.983 361.9518 294.3611 366.3056 C298.4662 369.6287 300.8002 368.1129 305.3611 371.3056 C310.1736 374.6743 310.4269 378.9942 314.3611 380.3056 C320.2624 382.2727 332.3611 380.3056 332.3611 380.3056 "/>
<path id="5" d="M361.3611 336.3056 C361.3611 336.3056 361.1179 346.8461 361.3611 348.3056 C361.3679 348.3461 363.3197 348.1897 363.3611 348.3056 C364.2341 350.7499 367.1169 358.1488 366.3611 362.3056 C365.8402 365.1703 363.1322 366.8038 359.3611 370.3056 C356.3181 373.1312 355.554 374.5073 352.3611 375.3056 C347.3299 376.5634 345.0449 374.1214 339.3611 375.3056 C334.0964 376.4024 333.0906 379.1232 328.3611 380.3056 C326.5272 380.764 323.3611 379.3056 323.3611 379.3056 "/>
<path id="6" d="M353.3611 339.3056 L359.3611 343.3056 "/>
<path id="7" d="M290.3611 231.3056 C290.3611 231.3056 286.9579 230.7067 285.3611 231.3056 C284.0437 231.7996 282.94 232.7617 282.3611 234.3056 C280.3787 239.5919 278.9619 241.9158 279.3611 247.3056 C279.8101 253.367 283.6155 260.4853 284.3611 261.3056 C284.4232 261.3739 289.3611 258.3056 289.3611 258.3056 "/>
<path id="8" d="M337.3611 235.3056 C337.3611 235.3056 339.0798 240.4306 338.3611 243.3056 C337.5033 246.7369 335.5327 250.4912 333.3611 251.3056 C328.1018 253.2778 314.3611 252.3056 314.3611 252.3056 "/>
<path id="9" d="M317.3611 239.3056 C317.3611 239.3056 317.5318 249.1653 318.3611 250.3056 C318.7211 250.8005 325.3611 250.3056 325.3611 250.3056 "/>
<path id="10" d="M363.3611 199.3056 C363.3611 199.3056 362.4652 190.4672 364.3611 184.3056 C365.9902 179.0109 371.3611 173.3056 371.3611 173.3056 "/>
<path id="11" d="M332.3611 198.3056 C332.3611 198.3056 329.8726 189.0309 326.3611 181.3056 C325.1474 178.6355 324.4903 177.796 322.3611 176.3056 C320.2603 174.835 316.3611 174.3056 316.3611 174.3056 "/>
<path id="12" d="M295.3611 202.3056 L264.3611 177.3056 "/>
<path id="13" d="M241.3611 221.3056 C241.3611 221.3056 247.1973 213.3574 248.3611 207.3056 C249.242 202.725 246.115 198.9979 246.3611 195.3056 C246.4275 194.3099 249.3611 192.3056 249.3611 192.3056 "/>
<path id="14" d="M291.3611 164.3056 C291.3611 164.3056 289.1178 157.7113 289.3611 154.3056 C289.4651 152.8495 292.3611 150.3056 292.3611 150.3056 "/>
<path id="15" d="M198.3611 197.3056 C198.3611 197.3056 198.2703 190.9771 200.3611 188.3056 C205.6096 181.5991 216.3611 174.3056 216.3611 174.3056 "/>
<path id="16" d="M336.3611 180.3056 L339.3611 176.3056 "/>
</g>
</g>
</svg>
