<?xml version="1.0" encoding="utf-8"?>
<!DOCTYPE svg PUBLIC "-//W3C//DTD SVG 1.1//EN" "http://www.w3.org/Graphics/SVG/1.1/DTD/svg11.dtd">
<svg viewBox="0 0 800 800" preserveAspectRatio="xMinYMin meet" xmlns="http://www.w3.org/2000/svg" version="1.1">
<g fill="none" stroke="black" stroke-linecap="round" stroke-linejoin="round" stroke-width="1.4881">
<g transform="translate(87.52,219.568) scale(2.016) translate(-118,-121)">
<path id="0" d="M118 142 C118 142 124.8098 137.7686 131 136 C134.3656 135.0384 135.5255 136.9772 139 136 C150.523 132.7592 151.0756 129.7908 163 127 C173.7193 124.4912 176.1123 127.0457 186 125 C188.8833 124.4035 189.4637 121.0437 192 121 C262.2015 119.7896 277.8394 119.0657 360 122 C373.7953 122.4927 374.0258 126.356 388 128 C407.5868 130.3043 428 130 428 130 "/>
<path id="1" d="M119 142 C119 142 122.2201 146.11 126 148 C136.3948 153.1974 137.8858 154.6738 149 157 C157.9329 158.8697 163.811 157.4942 169 157 C169.3089 156.9706 169.7358 155.0035 170 155 C189.3052 154.746 207.7786 153.9484 245 156 C270.9519 157.4304 271.0551 160.712 297 162 C341.1773 164.1932 348.9658 164.1695 386 163 C388.5502 162.9195 389.2359 159.691 392 159 C395.9487 158.0128 400.1586 160.5686 402 159 C408.7381 153.2601 410.0521 145.9803 419 136 C422.2919 132.3283 428 130 428 130 "/>
<path id="2" d="M428 130 C428 130 428.9174 155.292 427 176 C426.6518 179.7606 423.6585 180.2136 423 184 C421.8641 190.5316 424.4791 192.4496 423 199 C421.2664 206.6773 420.3466 207.7557 416 215 C410.1041 224.8265 407.9689 224.2612 402 234 C398.7398 239.3193 400.5849 241.6682 397 246 C389.7306 254.7839 387.7383 256.5078 378 263 C372.4353 266.7098 370.7241 267.5576 364 268 C334.9056 269.9141 332.5136 269.4192 302 268 C290.0967 267.4464 289.9189 265.0144 278 264 C266.7375 263.0415 263.6717 267.1534 255 264 C240.1929 258.6156 237.921 254.8799 223 244 C214.3717 237.7085 213.521 233.8908 207 229 C206.0428 228.2821 204.356 229.678 203 229 C196.7286 225.8643 195.3605 222.8622 189 220 C186.8857 219.0486 185.0395 221.0197 183 220 C173.1426 215.0713 170.0838 214.1754 161 206 C151.0761 197.0685 152.5039 193.5039 143 184 C138.7233 179.7233 134.8069 179.5517 132 177 C131.5591 176.5992 132.5066 174.5455 132 174 C128.1042 169.8046 120.5895 167.5034 119 163 C116.6908 156.4573 120 140 120 140 "/>
<path id="3" d="M242 258 C242 258 239.4232 269.0598 240 278 C240.3268 283.0651 241.2263 284.6083 244 289 C246.6766 293.2379 247.9392 294.9696 252 297 C257.2452 299.6226 259.0842 299.494 266 300 C279.1317 300.9609 279.6898 300.6655 293 300 C299.4579 299.6771 300.642 299.786 306 298 C308.483 297.1723 308.7545 294.2807 311 294 C335.2926 290.9634 347.4424 292.5468 370 290 C371.2668 289.857 372.8251 288.224 373 287 C373.918 280.5742 373 269 373 269 "/>
</g>
</g>
</svg>
