<?xml version="1.0" encoding="utf-8"?>
<!DOCTYPE svg PUBLIC "-//W3C//DTD SVG 1.1//EN" "http://www.w3.org/Graphics/SVG/1.1/DTD/svg11.dtd">
<svg viewBox="0 0 800 800" preserveAspectRatio="xMinYMin meet" xmlns="http://www.w3.org/2000/svg" version="1.1">
<g fill="none" stroke="black" stroke-linecap="round" stroke-linejoin="round" stroke-width="1.1521">
<g transform="translate(87.52,178.66) scale(2.604) translate(-179,-232)">
<path id="0" d="M221 269 C221 269 222.8808 272.6038 223 276 C223.8427 300.0178 221.1851 302.4061 223 326 C223.5584 333.2597 226.6465 333.6911 228 341 C229.0198 346.5072 227.1849 347.2943 228 353 C229.1256 360.8794 228.7127 362.2199 232 369 C236.1813 377.624 237.0761 381.1834 244 386 C256.9128 394.9828 261.5837 398.0487 278 401 C302.6848 405.4377 306.6326 402.799 333 402 C338.32 401.8388 339.1963 401.2974 344 399 C350.1138 396.076 352.8152 395.7135 356 391 C363.4704 379.9439 367.6904 375.6417 369 362 C373.1522 318.7476 368 266 368 266 "/>
<path id="1" d="M223 268 C223 268 220.4774 262.7316 221 262 C224.103 257.6559 228.9524 253.1071 238 247 C248.3734 239.9979 249.5229 239.099 261 235 C269.4426 231.9848 270.7867 232 280 232 C296.002 232 298.4114 230.3509 313 235 C341.4785 244.0756 354.193 251.8843 371 261 C371.9917 261.5379 372 267 372 267 "/>
<path id="2" d="M220 263 C220 263 234.7145 273.7143 249 278 C262.6032 282.081 265.6656 278.6755 280 281 C282.953 281.4789 283.2421 283.8468 286 284 C307.4669 285.1926 310.6539 285.4149 334 284 C342.8727 283.4623 344.3181 283.3891 352 280 C360.1049 276.4243 360.0616 273.128 368 269 C371.6695 267.0918 377 267 377 267 "/>
<path id="3" d="M374 267 C374 267 376.8022 263.3996 379 263 C385.5238 261.8139 390.4699 261.0857 396 263 C399.9411 264.3642 403.8078 267.6784 405 272 C410.2878 291.1684 407.1703 299.8237 412 321 C412.8943 324.921 417.3286 325.3555 418 329 C420.2255 341.0816 420.6696 348.7043 419 359 C418.5448 361.8071 415.7842 364.0378 412 366 C403.5876 370.362 401.7273 371.3788 392 373 C381.8897 374.685 375.7165 373.4971 370 373 C369.695 372.9735 369 371 369 371 "/>
<path id="4" d="M224 328 C224 328 215.5797 323.3656 213 319 C210.6397 315.0056 212.9241 311.9648 211 306 C208.0979 297.0034 208.3065 294.5311 203 288 C196.8 280.3693 185 274 185 274 "/>
<path id="5" d="M227 344 C227 344 218.404 341.2693 212 337 C207.1156 333.7437 206.8523 332.7414 203 328 C200.5794 325.0208 200.0769 324.5898 199 321 C195.7823 310.2745 198.4764 306.5052 194 298 C190.0016 290.403 179 283 179 283 "/>
<path id="6" d="M179 283 C179 283 181.9249 272.0429 182 272 C182 272 186.1771 277.9371 186 279 C185.8322 280.007 180 284 180 284 "/>
<path id="7" d="M304 255 C304 255 294.8402 252.6181 294 253 C293.6135 253.1757 292.3958 259.1692 293 260 C294.0158 261.3968 301.8382 264.1258 302 264 C302.235 263.8172 302.821 256.8311 302 253 C301.7281 251.7313 299 250 299 250 "/>
</g>
</g>
</svg>
