<?xml version="1.0" encoding="utf-8"?>
<!DOCTYPE svg PUBLIC "-//W3C//DTD SVG 1.1//EN" "http://www.w3.org/Graphics/SVG/1.1/DTD/svg11.dtd">
<svg viewBox="0 0 800 800" preserveAspectRatio="xMinYMin meet" xmlns="http://www.w3.org/2000/svg" version="1.1">
<g fill="none" stroke="black" stroke-linecap="round" stroke-linejoin="round" stroke-width="1.1137">
<g transform="translate(87.52,162.9462) scale(2.6938) translate(-192,-92.1333)">
<path id="0" d="M254 152.1333 C254 152.1333 244.3853 158.1567 240 165.1333 C234.5629 173.7832 233.7219 176.2857 232 187.1333 C228.9427 206.3942 227.9296 212.4574 230 228.1333 C230.6703 233.2086 233.9108 234.8851 239 240.1333 C249.6322 251.0978 250.4169 252.3582 262 261.1333 C265.8791 264.072 267.0788 264.507 272 265.1333 C293.2512 267.838 294.5703 267.6117 317 268.1333 C337.3927 268.6076 337.6558 267.981 358 267.1333 C361.4905 266.9879 362.2631 267.2737 365 266.1333 C367.4601 265.1083 367.6857 264.303 370 262.1333 C375.6369 256.8488 376.6828 256.8896 381 251.1333 C383.6912 247.545 384.8154 246.3429 385 242.1333 C387.1137 193.9409 388.5375 172.9754 386 137.1333 C385.7911 134.183 381.6593 130.9725 377 129.1333 C364.8274 124.3284 362.034 122.7712 348 122.1333 C319.8233 120.8526 315.9451 120.0996 289 125.1333 C273.34 128.0588 263.845 133.3254 257 139.1333 C254.9909 140.838 256 153.1333 256 153.1333 "/>
<path id="1" d="M279 124.1333 C279 124.1333 282.2265 124.7134 283 124.1333 C284.6436 122.9006 284.5515 120.1952 287 118.1333 C293.3348 112.7988 294.2391 112.5681 302 108.1333 C315.1132 100.6401 315.7906 98.2774 329 94.1333 C339.3629 90.8822 341.6124 92.54 353 92.1333 C354.8754 92.0664 355.9193 92.1298 357 93.1333 C361.636 97.4382 363.1157 98.8214 367 105.1333 C370.7855 111.2848 371.21 112.229 373 119.1333 C374.5258 125.0184 374 132.1333 374 132.1333 "/>
<path id="2" d="M391 170.1333 C391 170.1333 390.5048 167.7701 391 167.1333 C392.8892 164.7043 395.2529 161.5729 398 161.1333 C404.1017 160.1571 410.6764 160.4715 416 163.1333 C419.7825 165.0246 422.4527 169.1045 424 174.1333 C425.7242 179.7369 426.418 186.0353 424 189.1333 C415.7827 199.6618 405.2701 205.8084 392 215.1333 C390.6801 216.0608 387 215.1333 387 215.1333 "/>
<path id="3" d="M258 144.1333 C258 144.1333 252.464 145.2155 248 144.1333 C236.8671 141.4344 235.9258 141.0388 225 136.1333 C211.7347 130.1775 210.9051 129.7093 199 122.1333 C195.0936 119.6475 192.0138 115.0822 192 115.1333 C191.9112 115.4633 188.6532 136.4195 192 148.1333 C194.0284 155.2326 199.0549 159.0581 206 164.1333 C209.8364 166.9369 212.5775 164.874 218 167.1333 C224.1046 169.6769 224.4104 172.177 230 174.1333 C233.0946 175.2164 236.0617 173.0896 238 174.1333 C240.1247 175.2774 243 181.1333 243 181.1333 "/>
</g>
</g>
</svg>
