<?xml version="1.0" encoding="utf-8"?>
<!DOCTYPE svg PUBLIC "-//W3C//DTD SVG 1.1//EN" "http://www.w3.org/Graphics/SVG/1.1/DTD/svg11.dtd">
<svg viewBox="0 0 800 800" preserveAspectRatio="xMinYMin meet" xmlns="http://www.w3.org/2000/svg" version="1.1">
<g fill="none" stroke="black" stroke-linecap="round" stroke-linejoin="round" stroke-width="2.2945">
<g transform="translate(87.52,216.9573) scale(1.3074) translate(-77,-92)">
<path id="0" d="M213 152 C213 152 208.0103 157.7644 205 164 C201.224 171.8216 200.2071 172.5504 199 181 C195.3788 206.3487 195.429 207.6173 195 234 C194.4344 268.7862 194.6418 269.8068 197 304 C197.5808 312.4222 197.9264 313.2136 201 321 C205.1925 331.6209 205.5755 332.631 212 342 C217.1576 349.5215 218.3557 350.0551 225 356 C227.2604 358.0225 227.8918 357.9851 231 359 C252.0396 365.8701 253.0161 370.0789 274 372 C321.0106 376.3038 323.5753 372.7163 373 372 C392.4848 371.7176 394.1824 373.5635 412 370 C424.7527 367.4495 426.7121 366.0826 438 359 C451.0975 350.782 453.8419 349.2514 463 338 C469.6754 329.7988 469.2988 327.1037 473 316 C476.1168 306.6495 476.5181 305.8789 477 296 C478.4795 265.6712 478.6736 264.4589 477 234 C476.2098 219.6181 473.4392 219.3924 472 205 C470.9755 194.7546 473.7038 193.4924 472 184 C470.4377 175.2958 470.079 172.2641 465 166 C456.9234 156.0389 442 147 442 147 "/>
<path id="1" d="M219 153 C219 153 226.3678 158.1683 234 160 C262.6621 166.8789 264.0948 167.8648 294 171 C325.3998 174.2919 326.2366 173.5672 358 173 C381.8713 172.5737 383.3098 172.6016 406 169 C413.4425 167.8187 414.4495 167.0031 421 163 C431.8006 156.3997 442 147 442 147 "/>
<path id="2" d="M326 129 C326 129 325.3646 114.9561 328 105 C329.2735 100.1891 331.2975 98.0083 335 95 C337.7998 92.7251 342.8523 91.3624 344 92 C346.5387 93.4104 351.3458 98.8793 353 105 C355.6016 114.6259 354.2377 123.0586 354 129 C353.9893 129.2678 351.9973 129.9999 352 130 C352.0585 130.0015 373.3364 128.9668 394 130 C402.9296 130.4465 403.2409 130.9562 412 133 C418.058 134.4135 418.7519 134.122 424 137 C433.6613 142.2981 443 150 443 150 "/>
<path id="3" d="M324 125 C324 125 302.1994 123.1457 282 126 C257.221 129.5014 255.2973 130.1249 232 138 C221.2012 141.6503 211 150 211 150 "/>
<path id="4" d="M476 204 C476 204 479.3524 197.6907 484 194 C495.516 184.8549 497.5183 181.3119 510 177 C521.6273 172.9833 525.4491 174.6525 539 175 C543.717 175.1209 545.3956 176.1978 549 178 C550.097 178.5485 550.7142 179.5234 551 181 C553.4278 193.5436 554.3883 195.1338 555 209 C555.8675 228.6631 557.4664 230.5127 554 249 C550.3234 268.6087 547.6205 272.3074 540 289 C538.4895 292.3088 536.7969 292.975 533 295 C522.4529 300.6251 521.6765 301.5175 510 305 C493.7822 309.8369 476 312 476 312 "/>
<path id="5" d="M478 218 C478 218 481.1178 212.397 485 209 C488.4907 205.9456 489.6148 204.7973 494 204 C509.7306 201.1399 524.2168 199.4895 529 201 C530.0868 201.3432 531.6356 208.5905 532 216 C533.1066 238.5011 533.5197 240.7242 532 262 C531.6602 266.7573 530.9985 268.6416 528 272 C519.8803 281.0941 517.3414 285.6754 507 290 C493.9168 295.4712 473 295 473 295 "/>
<path id="6" d="M98 171 C98 171 98.5381 180.4951 101 189 C103.9117 199.0588 103.5173 200.7759 109 209 C116.647 220.4705 118.0782 222.402 129 231 C140.3577 239.9411 142.3214 239.4864 156 246 C162.9633 249.3159 163.473 249.5663 171 251 C184.0094 253.478 198 254 198 254 "/>
<path id="7" d="M99 169 C99 169 92.4459 161.0007 88 159 C85.5476 157.8964 80.7265 158.9013 79 160 C77.9576 160.6633 77.1311 163.1148 77 166 C76.1818 184.0003 75.9145 185.5473 77 204 C77.3764 210.3985 77.4081 211.2272 80 217 C88.0448 234.9179 88.4078 236.7807 99 253 C103.7022 260.2002 106.6333 258.9021 112 266 C121.7816 278.9369 119.9134 281.6719 130 294 C137.2538 302.8658 138.6647 303.9595 148 310 C154.5463 314.2359 155.9803 314.4578 164 316 C181.1902 319.3058 200 320 200 320 "/>
</g>
</g>
</svg>
