<?xml version="1.0" encoding="utf-8"?>
<!DOCTYPE svg PUBLIC "-//W3C//DTD SVG 1.1//EN" "http://www.w3.org/Graphics/SVG/1.1/DTD/svg11.dtd">
<svg viewBox="0 0 800 800" preserveAspectRatio="xMinYMin meet" xmlns="http://www.w3.org/2000/svg" version="1.1">
<g fill="none" stroke="black" stroke-linecap="round" stroke-linejoin="round" stroke-width="1.5505">
<g transform="translate(87.52,164.9144) scale(1.9349) translate(-104,-64.1333)">
<path id="0" d="M206 146.1333 C206 146.1333 233.8583 153.452 261 155.1333 C289.2744 156.8848 294.162 157.5914 319 153.1333 C328.4289 151.441 329.8884 147.902 339 141.1333 C347.0042 135.1874 347.6183 134.8751 354 127.1333 C377.7016 98.3806 380.0306 86.195 400 67.1333 C404.421 62.9132 415.2951 62.9135 420 64.1333 C422.3479 64.7421 425.935 69.5691 427 74.1333 C428.8309 81.9801 430.4387 88.4022 427 94.1333 C414.0707 115.6822 406.8625 122.2708 385 144.1333 C376.9204 152.2129 373.0226 149.7029 364 157.1333 C356.7852 163.0749 351 172.1333 351 172.1333 "/>
<path id="1" d="M207 150.1333 C207 150.1333 197.854 155.5649 191 162.1333 C186.3788 166.562 184.3981 167.6076 183 173.1333 C174.9181 205.0762 174.4169 209.4587 170 245.1333 C168.0199 261.1267 168.2074 262.5972 170 278.1333 C171.0697 287.4043 172.4823 289.0426 176 297.1333 C176.9343 299.2822 177.936 300.3903 180 301.1333 C188.6505 304.2475 190.675 305.6744 201 306.1333 C256.4847 308.5993 258.1706 307.8437 315 307.1333 C337.9524 306.8464 338.9784 307.2301 361 304.1333 C369.9391 302.8763 372.0718 302.3397 379 298.1333 C384.339 294.8918 385.4607 293.0321 389 287.1333 C393.955 278.8751 395.476 277.4297 397 268.1333 C400.1759 248.7603 401.3264 242.418 399 226.1333 C398.1396 220.1102 394.9663 217.6407 389 212.1333 C369.8999 194.5025 347 178.1333 347 178.1333 "/>
<path id="2" d="M185 176.1333 C185 176.1333 170.5071 168.2946 157 165.1333 C148.6062 163.1688 146.5606 163.7526 138 165.1333 C132.23 166.064 129.8783 166.5423 126 170.1333 C118.1829 177.3714 116.6892 179.7894 111 190.1333 C106.1969 198.8662 105.6608 200.4059 104 210.1333 C102.3545 219.7712 102.0541 222.1333 104 231.1333 C105.6429 238.7318 106.7645 241.8978 112 247.1333 C120.7258 255.8592 124.313 259.0213 136 263.1333 C148.2494 267.4433 157.9059 266.1333 166 266.1333 C166.5396 266.1333 166.9404 263.6631 168 263.1333 C170.7247 261.771 176 261.1333 176 261.1333 "/>
<path id="3" d="M224 147.1333 C224 147.1333 222.6445 137.2555 225 133.1333 C228.6488 126.748 232.1994 124.8338 240 119.1333 C244.5306 115.8225 245.7399 115.1074 251 114.1333 C258.057 112.8265 259.8575 112.9905 267 114.1333 C271.3034 114.8219 272.906 115.3206 276 118.1333 C282.7444 124.2646 284.384 125.9874 289 134.1333 C292.2134 139.8041 292.2002 141.4683 293 148.1333 C293.601 153.1413 292 159.1333 292 159.1333 "/>
</g>
</g>
</svg>
