<?xml version="1.0" encoding="utf-8"?>
<!DOCTYPE svg PUBLIC "-//W3C//DTD SVG 1.1//EN" "http://www.w3.org/Graphics/SVG/1.1/DTD/svg11.dtd">
<svg viewBox="0 0 800 800" preserveAspectRatio="xMinYMin meet" xmlns="http://www.w3.org/2000/svg" version="1.1">
<g fill="none" stroke="black" stroke-linecap="round" stroke-linejoin="round" stroke-width="2.2513">
<g transform="translate(87.52,260.7499) scale(1.3325) translate(-119,-134)">
<path id="0" d="M192 329 C192 329 187.4855 325.9612 183 325 C174.1589 323.1055 172.8414 325.3804 164 323 C147.6052 318.586 141.7153 318.4758 131 311 C125.1575 306.9238 123.6482 301.8273 121 293 C118.15 283.5001 117.6651 280.9162 119 271 C120.9173 256.7576 121.3814 253.0116 128 241 C133.475 231.0639 136.2856 229.7217 146 222 C154.9619 214.8764 157.1793 211.9974 167 210 C182.9205 206.7619 205 210 205 210 "/>
<path id="1" d="M206 229 C206 229 196.1295 227.8867 187 229 C176.1361 230.3249 173.351 229.8245 165 234 C158.8646 237.0677 157.6753 239.6747 153 246 C149.7078 250.4541 149.3827 251.7456 148 257 C147.1018 260.4131 146.9468 261.7087 148 265 C150.5751 273.0472 151.1834 274.5075 156 282 C159.7911 287.8973 160.7038 289.9988 166 293 C173.6344 297.3262 176.0961 297.4244 186 299 C197.4185 300.8166 210 300 210 300 "/>
<path id="2" d="M191 329 C191 329 200.9066 337.7269 210 339 C246.3558 344.0898 250.6038 341.9369 291 343 C307.4233 343.4322 308.4586 344.3024 324 342 C334.332 340.4693 334.5066 337.361 345 335 C354.0408 332.9658 354.5084 333.4187 364 333 C388.3872 331.9241 395.3935 335.2826 413 332 C417.2469 331.2082 419.9718 327.4189 423 322 C428.6393 311.9085 431.0049 309.3731 432 298 C434.2412 272.3861 428.7775 248.2234 430 242 C430.0561 241.7142 437.0763 243.097 443 242 C449.8013 240.7405 450.1596 237.665 457 237 C484.4795 234.3284 488.6588 233.8711 515 235 C520.5554 235.2381 522.0359 236.7733 527 240 C531.2968 242.7929 531.4849 246.4377 535 248 C538.0419 249.352 541.6286 249.5653 545 248 C553.1035 244.2377 555.4975 242.2346 563 235 C568.7739 229.4323 569.6227 228.2049 573 221 C576.6766 213.1565 576.9223 211.8371 578 203 C579.3319 192.0781 579.3153 180.7699 578 180 C573.9373 177.6219 554.4 180.1864 537 179 C535.6712 178.9094 533.9984 176.9928 534 177 C534.0073 177.0328 538.1215 182.9486 539 188 C539.8753 193.0329 540.1012 196.498 538 200 C534.4313 205.9479 531.1751 209.2014 524 213 C516.2186 217.1196 513.8299 217.2664 504 218 C481.3227 219.6923 480.3182 218.9453 457 218 C443.5441 217.4545 442.7815 217.2556 430 215 C426.5042 214.3831 423.6836 213.5039 423 212 C420.7481 207.0458 423.0056 201.3726 420 193 C416.4148 183.0127 414.983 182.1504 409 173 C406.8167 169.6608 405.6791 167.6946 403 167 C395.4617 165.0456 392.426 166 382 166 C375.0493 166 373.1241 165.1367 368 167 C364.238 168.368 364.2806 171.4706 360 174 C353.8116 177.6568 353.0259 178.291 346 180 C335.2155 182.6233 334.4363 182.6794 323 183 C281.3848 184.1668 270.8256 185.7377 239 183 C235.3294 182.6842 233.9423 177.1025 230 175 C228.2171 174.0491 226.2567 174.0973 224 175 C217.5308 177.5877 213.4535 178.5105 210 183 C205.8388 188.4095 205.6443 192.2302 204 201 C202.7963 207.4197 204 215 204 215 "/>
<path id="3" d="M238 176 C238 176 238.8249 170.7189 241 168 C243.9698 164.2877 245.7892 161.7397 250 161 C277.1892 156.2235 282.5814 157.1375 315 155 C327.889 154.1502 332.2781 152.0218 341 155 C347.6355 157.2658 348.7019 164.1346 356 169 C359.0992 171.0661 365 171 365 171 "/>
<path id="4" d="M307 138 C307 138 299.8835 133.8304 297 134 C294.846 134.1267 290.9603 137.2395 290 139 C289.406 140.089 290.0476 144.1429 291 145 C292.741 146.5669 295.774 147.5774 300 148 C304.9531 148.4953 310.2326 147.6906 311 147 C311.3998 146.6402 310.841 140.5137 310 139 C309.6833 138.4299 306 138 306 138 "/>
<path id="5" d="M555 169 L543 150 "/>
<path id="6" d="M566 163 L568 151 "/>
<path id="7" d="M573 166 C573 166 578.401 167.066 580 166 C583.3503 163.7665 588 156 588 156 "/>
<path id="8" d="M207 233 C207 233 206.161 238.7983 207 244 C208.5869 253.839 211.1802 254.1625 212 264 C213.6061 283.2735 212 304 212 304 "/>
</g>
</g>
</svg>
