<?xml version="1.0" encoding="utf-8"?>
<!DOCTYPE svg PUBLIC "-//W3C//DTD SVG 1.1//EN" "http://www.w3.org/Graphics/SVG/1.1/DTD/svg11.dtd">
<svg viewBox="0 0 800 800" preserveAspectRatio="xMinYMin meet" xmlns="http://www.w3.org/2000/svg" version="1.1">
<g fill="none" stroke="black" stroke-linecap="round" stroke-linejoin="round" stroke-width="1.2865">
<g transform="translate(87.52,167.9719) scale(2.3319) translate(-151,-124)">
<path id="0" d="M245 180 C245 180 258.0098 190.8067 270 193 C295.1233 197.5957 300.5863 195.7769 327 195 C332.1572 194.8483 333.3453 193.6948 338 191 C342.2131 188.5608 342.8245 187.8559 346 184 C349.4916 179.7602 350.0908 178.9093 352 174 C353.2986 170.6608 353 166 353 166 "/>
<path id="1" d="M247 181 C247 181 244.2218 180.4991 244 180 C243.1973 178.1939 243 172 243 172 "/>
<path id="2" d="M243 171 C243 171 236.7415 170.4579 234 172 C230.7031 173.8545 230.7135 177.0823 227 180 C224.3846 182.055 221.5121 180.9838 220 183 C215.7844 188.6208 212.6343 192.1767 212 200 C209.9571 225.1952 212.3043 229.0202 214 257 C214.2708 261.4679 214.1725 262.1013 216 266 C221.3503 277.4141 220.8962 281.9871 229 289 C243.2941 301.3699 249.2998 306.7499 268 311 C298.4652 317.9239 310.0072 317.8856 339 314 C350.5582 312.451 352.8071 306.6634 365 298 C371.4657 293.406 372.0342 292.8421 377 287 C380.1036 283.3487 381.4827 282.2932 382 278 C386.0186 244.6457 390.7416 233.6449 387 204 C385.4052 191.3645 378.8838 187.4345 369 175 C364.3594 169.1619 356 165 356 165 "/>
<path id="3" d="M243 170 C243 170 245.9747 164.2266 250 160 C255.6469 154.0707 256.2544 152.7217 263 149 C269.6358 145.3389 271.6374 147.3005 279 144 C285.6945 140.999 286.7123 136.9117 292 136 C297.6935 135.0184 301.1423 136.3059 308 139 C314.045 141.3748 314.461 145.472 320 147 C326.628 148.8284 330.9475 145.3053 337 147 C340.546 147.9929 342.4957 150.2436 345 154 C347.775 158.1625 347.093 161.7309 349 165 C349.3933 165.6743 352 166 352 166 "/>
<path id="4" d="M297 124 C297 124 292.0494 123.2376 289 124 C287.1894 124.4526 285.64 125.72 285 127 C284.36 128.28 284.2701 130.2481 285 132 C286.3261 135.1826 288.1224 138.5306 290 139 C295.2156 140.3039 306.2038 139.2583 309 138 C309.6613 137.7024 310.825 131.9249 310 130 C309.0194 127.7119 306.1283 125.3407 303 124 C300.7121 123.0195 296 124 296 124 "/>
<path id="5" d="M248 305 C248 305 242.1153 311.3864 236 315 C231.98 317.3754 226.9765 317.349 226 318 C225.9186 318.0543 226.3341 320.5243 227 321 C228.5741 322.1243 230.1411 322.966 233 323 C309.8858 323.9153 318.1062 323.466 395 323 C396.4268 322.9914 397.6622 322.4504 398 322 C398.3118 321.5842 398.4708 319.8238 398 319 C397.0137 317.2739 396.0626 315.7112 394 315 C383.6211 311.4211 380.0388 313.0141 369 309 C364.8651 307.4964 361 303 361 303 "/>
<path id="6" d="M210 224 C210 224 210.1233 226.9538 210 227 C209.1233 227.3288 204.9846 228.0534 202 227 C197.8523 225.5361 196.9102 224.3516 193 221 C190.1957 218.5963 188.6027 217.6521 188 215 C186.6486 209.0539 188.9661 205.7625 188 199 C187.6722 196.7056 186.8152 196.1177 185 194 C180.993 189.3251 179.9533 186.779 176 185 C172.6677 183.5005 165 185 165 185 "/>
<path id="7" d="M212 244 C212 244 201.7497 246.236 196 244 C186.8564 240.4442 184.8569 237.6759 176 230 C170.3772 225.1269 167.7688 223.1098 166 218 C164.438 213.4876 168.2402 208.3407 167 204 C166.1861 201.1514 163.3726 199.0754 160 197 C158.0269 195.7858 154 196 154 196 "/>
<path id="8" d="M154 196 C154 196 159.1515 196.9954 161 196 C163.5798 194.6109 165.562 192.1157 167 189 C167.8832 187.0864 167.404 183.2571 167 183 C165.7688 182.2165 158.638 181.0108 156 182 C154.1069 182.7099 151.5752 186.6992 151 189 C150.6862 190.255 153 194 153 194 "/>
<path id="9" d="M383 191 C383 191 381.8695 184.8263 383 182 C384.0551 179.3621 386.3652 176.988 389 176 C392.1937 174.8024 396.5027 174.5542 399 176 C402.8379 178.222 405.8929 181.5566 408 187 C411.0785 194.9529 412.7212 200.9758 411 207 C409.3173 212.8893 404.8574 215.766 398 222 C394.5128 225.1702 389.2978 225.6301 389 227 C388.2667 230.3733 390.0066 237.5164 393 245 C394.4356 248.5891 396.4079 250.7904 399 252 C401.5175 253.1748 408 252 408 252 "/>
<path id="10" d="M410 252 C410 252 410.5622 245.9508 409 243 C406.9942 239.2114 401.9295 236.7041 401 235 C400.8565 234.7369 402.2075 232.2161 403 232 C405.531 231.3097 408.9144 232.7714 412 232 C413.2857 231.6786 414.68 230.4171 415 229 C417.515 217.8621 418.5178 214.7437 419 201 C419.4958 186.8708 420.7009 181.7149 417 172 C414.7202 166.0156 408.8786 161.4325 403 159 C398.5753 157.1691 393.6344 157.9716 388 160 C383.2753 161.7009 378.5692 165.4384 378 168 C376.9914 172.5385 382 187 382 187 "/>
<path id="11" d="M254 316 C254 316 263.6052 314.8807 272 316 C277.8453 316.7794 284 320 284 320 "/>
<path id="12" d="M366 318 C366 318 342.8232 316.2177 325 318 C320.8702 318.413 320.058 322.6041 316 323 C302.355 324.3312 284 322 284 322 "/>
</g>
</g>
</svg>
