<?xml version="1.0" encoding="utf-8"?>
<!DOCTYPE svg PUBLIC "-//W3C//DTD SVG 1.1//EN" "http://www.w3.org/Graphics/SVG/1.1/DTD/svg11.dtd">
<svg viewBox="0 0 800 800" preserveAspectRatio="xMinYMin meet" xmlns="http://www.w3.org/2000/svg" version="1.1">
<g fill="none" stroke="black" stroke-linecap="round" stroke-linejoin="round" stroke-width="1.1617">
<g transform="translate(87.52,241.1775) scale(2.5825) translate(-110.5,-170.8333)">
<path id="0" d="M127.5 182.6667 C127.5 182.6667 138.9166 187.9259 146.5 194.6667 C151.2716 198.9081 151.4837 200.6341 154.5 206.6667 C156.1967 210.06 155.1174 212.3623 156.5 214.6667 C157.1612 215.7687 159.4464 215.2804 160.5 216.6667 C167.6911 226.1287 168.6368 232.8035 175.5 239.6667 C177.6673 241.834 180.5539 241.3476 185.5 241.6667 C195.7544 242.3282 203.8986 241.9144 206.5 241.6667 C206.5236 241.6644 206.5 239.6667 206.5 239.6667 "/>
<path id="1" d="M123.5 190.6667 C123.5 190.6667 139.0102 223.7954 156.5 246.6667 C162.2117 254.1359 166.5104 256.2817 175.5 258.6667 C187.7645 261.9205 205.5 259.6667 205.5 259.6667 "/>
<path id="2" d="M203.5 244.6667 C203.5 244.6667 207.8613 245.3863 210.5 244.6667 C212.3163 244.1713 213.3529 243.3874 214.5 241.6667 C216.8617 238.1241 217.7162 236.9776 218.5 232.6667 C219.5475 226.9053 217.1968 225.4379 218.5 219.6667 C220.4629 210.974 221.2017 208.5439 225.5 201.6667 C227.6131 198.2857 229.4084 197.4202 233.5 195.6667 C239.0292 193.297 246.5 192.6667 246.5 192.6667 "/>
<path id="3" d="M200.5 265.6667 C200.5 265.6667 203.7534 264.3174 205.5 264.6667 C207.5377 265.0742 208.61 265.7767 210.5 267.6667 C215.6974 272.8641 215.1225 274.8553 220.5 279.6667 C223.994 282.7929 224.8489 282.9613 229.5 284.6667 C239.4605 288.3189 240.1769 289.752 250.5 290.6667 C278.3499 293.1344 308.5 291.6667 308.5 291.6667 "/>
<path id="4" d="M243.5 193.8333 C243.5 193.8333 249.6444 194.8889 254.5 193.8333 C260.2768 192.5775 260.7481 189.5902 266.5 188.8333 C278.3147 187.2788 282.7004 186.3206 292.5 188.8333 C298.3662 190.3375 299.2421 195.0091 305.5 198.8333 C307.3373 199.9562 309.1797 198.6684 310.5 199.8333 C315.966 204.6563 319.8025 206.8516 322.5 213.8333 C327.1219 225.7959 324.3488 230.047 327.5 243.8333 C328.0753 246.3503 330.2812 246.5729 330.5 248.8333 C331.5751 259.9427 333.1514 265.1919 330.5 274.8333 C328.7639 281.1466 323.7081 284.9058 319.5 288.8333 C318.8006 289.4861 316.7506 288.208 315.5 288.8333 C312.8424 290.1622 311.9909 293.3352 309.5 293.8333 C304.5893 294.8155 295.5 292.8333 295.5 292.8333 "/>
<path id="5" d="M320.5 223.8333 C320.5 223.8333 329.8824 205.3299 337.5 196.8333 C339.3158 194.808 345.215 194.2403 346.5 194.8333 C347.7238 195.3982 350.1719 199.0607 350.5 202.8333 C352.904 230.4795 353.3963 244.4142 352.5 263.8333 C352.4377 265.1822 349.5613 267.4696 347.5 267.8333 C343.2286 268.5871 335.5 266.8333 335.5 266.8333 "/>
<path id="6" d="M329.5 228.8333 C329.5 228.8333 329.3304 222.9268 330.5 218.8333 C331.0523 216.9003 332.0429 215.5619 333.5 214.8333 C335.6857 213.7405 340.2842 213.4593 340.5 213.8333 C342.7451 217.7249 345.9855 227.632 348.5 240.8333 C349.8223 247.7756 349.4421 249.2388 348.5 255.8333 C348.0963 258.6596 347.185 260.7501 345.5 261.8333 C342.3231 263.8756 334.5 264.8333 334.5 264.8333 "/>
<path id="7" d="M123.5 189.8333 C123.5 189.8333 120.8874 189.4145 120.5 188.8333 C119.7682 187.7357 120.3531 184.5158 119.5 183.8333 C117.555 182.2774 110.5 180.8365 110.5 180.8333 C110.5 180.8323 115.3926 179.3405 119.5 179.8333 C127.1227 180.7481 135.5 183.8333 135.5 183.8333 "/>
<path id="8" d="M252.5 183.8333 L252.5 192.8333 "/>
<path id="9" d="M256.5 183.8333 C256.5 183.8333 262.2778 184.8889 266.5 183.8333 C271.25 182.6459 271.7611 179.7109 276.5 178.8333 C283.8735 177.4679 291.9291 177.5105 293.5 178.8333 C294.9298 180.0374 295.5 194.8333 295.5 194.8333 "/>
<path id="10" d="M274.5 170.8333 L275.5 181.8333 "/>
</g>
</g>
</svg>
