<?xml version="1.0" encoding="utf-8"?>
<!DOCTYPE svg PUBLIC "-//W3C//DTD SVG 1.1//EN" "http://www.w3.org/Graphics/SVG/1.1/DTD/svg11.dtd">
<svg viewBox="0 0 800 800" preserveAspectRatio="xMinYMin meet" xmlns="http://www.w3.org/2000/svg" version="1.1">
<g fill="none" stroke="black" stroke-linecap="round" stroke-linejoin="round" stroke-width="1.8289">
<g transform="translate(122.7868,87.52) scale(1.6403) translate(-136,-42.1333)">
<path id="0" d="M314 44.1333 C314 44.1333 337.6431 39.3006 357 42.1333 C375.6052 44.856 377.0475 48.3493 396 56.1333 C404.7654 59.7334 405.1347 59.9718 413 65.1333 C420.8545 70.2879 421.8802 70.3142 428 77.1333 C438.8036 89.1716 438.5984 90.3667 448 104.1333 C452.5006 110.7235 453.3835 110.8525 456 118.1333 C464.5886 142.0319 467.5206 143.3909 471 168.1333 C476.2363 205.3695 474.7298 208.182 474 246.1333 C473.7556 258.84 472.2955 259.4582 469 272.1333 C465.8517 284.242 466.0386 285.7412 461 296.1333 C458.6724 300.934 455.6259 300.2098 453 305.1333 C444.1854 321.6606 446.2747 324.2702 437 341.1333 C430.0957 353.6865 429.6546 354.6742 420 365.1333 C406.2291 380.0518 405.2487 380.4955 389 393.1333 C374.1196 404.707 373.213 405.55 357 414.1333 C348.6613 418.5479 347.548 418.0873 338 420.1333 C326.8718 422.5179 326.443 422.7095 315 423.1333 C286.2825 424.1969 284.5514 425.5143 257 423.1333 C245.7871 422.1643 244.4685 420.5745 234 416.1333 C228.7718 413.9153 229.2709 411.6889 224 409.1333 C213.2317 403.9123 207.6509 406.897 201 400.1333 C182.8248 381.6501 178.1209 375.6014 165 349.1333 C150.343 319.5666 152.1523 316.2708 143 283.1333 C137.8023 264.314 137.7363 263.4812 136 244.1333 C134.2912 225.0922 133.907 223.9703 136 205.1333 C138.3077 184.3643 138.5262 183.0342 145 163.1333 C151.7515 142.3786 151.5554 138.8026 163 122.1333 C172.6999 108.0053 178.723 109.9075 191 96.1333 C198.6103 87.595 196.6546 84.2948 204 76.1333 C209.2367 70.3147 210.7057 70.1334 218 66.1333 C225.8015 61.8551 226.7195 60.4852 235 59.1333 C249.6794 56.7367 253.6966 61.5824 267 58.1333 C277.4625 55.4208 278.1024 49.0961 289 45.1333 C298.4149 41.7097 311 42.1333 311 42.1333 "/>
<path id="1" d="M236 141.1333 C236 141.1333 241.602 136.9327 247 135.1333 C251.2907 133.7031 252.828 133.1913 257 134.1333 C266.7348 136.3315 274.1512 137.1672 278 142.1333 C284.3023 150.2653 284.8779 158.5228 288 174.1333 C289.6529 182.3977 289.7452 184.2801 288 192.1333 C286.0825 200.7622 285.2385 205.6028 280 210.1333 C270.8627 218.0358 264.509 218.8798 251 224.1333 C248.2546 225.201 246.8235 224.9401 244 224.1333 C240.7155 223.1949 239.5677 222.701 237 220.1333 C230.2306 213.364 226.026 211.5618 224 204.1333 C219.901 189.1035 220.7349 183.1614 222 165.1333 C222.5997 156.5873 224.147 155.1357 228 147.1333 C230.2817 142.3943 231.6985 140.8846 235 138.1333 C236.3282 137.0265 240 137.1333 240 137.1333 "/>
<path id="2" d="M366 132.1333 C366 132.1333 370.556 133.6746 371 135.1333 C375.4908 149.889 377.2664 156.872 380 178.1333 C381.6715 191.1336 381.625 192.4041 380 205.1333 C378.7502 214.9235 378.56 218.1848 374 225.1333 C369.8388 231.4741 365.7694 235.0504 359 237.1333 C350.3084 239.8077 341.7831 239.5999 335 237.1333 C331.2231 235.7599 329.086 231.3052 326 225.1333 C323.0076 219.1484 322.752 218.0515 322 211.1333 C320.3273 195.7446 318.6496 193.4711 321 179.1333 C323.2742 165.2607 325.9173 163.8194 332 150.1333 C333.6553 146.4089 334.1758 145.7222 337 143.1333 C339.6387 140.7145 340.5238 139.9183 344 139.1333 C354.8544 136.6823 368 136.1333 368 136.1333 "/>
<path id="3" d="M347 179.1333 C347 179.1333 342.9021 189.5947 343 190.1333 C343.0104 190.1905 347.4162 190.9252 349 190.1333 C350.7158 189.2755 352.3567 187.3848 353 185.1333 C353.9425 181.8347 353.828 177.4345 353 176.1333 C352.4062 175.2002 346 174.1333 346 174.1333 "/>
<path id="4" d="M255 169.1333 C255 169.1333 257.4924 168.7103 258 169.1333 C259.2127 170.1439 260.3454 171.6784 261 174.1333 C262.1588 178.4788 262.4586 183.6237 262 184.1333 C261.5464 184.6373 255.7012 185.1203 252 184.1333 C249.7546 183.5346 247.9578 182.049 247 180.1333 C245.7475 177.6283 245.6183 172.4456 246 172.1333 C246.8823 171.4114 258 171.1333 258 171.1333 "/>
<path id="5" d="M293 240.1333 C293 240.1333 273.2065 288.5006 273 291.1333 C272.9951 291.1962 282.1192 292.8535 289 291.1333 C298.5687 288.7412 309 282.1333 309 282.1333 "/>
<path id="6" d="M357 287.1333 C357 287.1333 353.7736 294.5173 349 300.1333 C337.1623 314.06 336.8625 315.4453 323 327.1333 C312.0583 336.3587 310.8324 336.4382 298 343.1333 C288.313 348.1874 287.3947 349.0952 277 351.1333 C263.0019 353.8781 261.328 354.1047 247 353.1333 C232.8916 352.1768 231.8276 351.4247 218 347.1333 C203.3381 342.5831 200.2834 342.1473 189 335.1333 C184.408 332.2789 183.3262 329.0765 181 324.1333 C180.0547 322.1245 181 318.1333 181 318.1333 "/>
</g>
</g>
</svg>
