<?xml version="1.0" encoding="utf-8"?>
<!DOCTYPE svg PUBLIC "-//W3C//DTD SVG 1.1//EN" "http://www.w3.org/Graphics/SVG/1.1/DTD/svg11.dtd">
<svg viewBox="0 0 800 800" preserveAspectRatio="xMinYMin meet" xmlns="http://www.w3.org/2000/svg" version="1.1">
<g fill="none" stroke="black" stroke-linecap="round" stroke-linejoin="round" stroke-width="1.5025">
<g transform="translate(127.4535,87.52) scale(1.9967) translate(-146,-66.1333)">
<path id="0" d="M236 67.1333 C236 67.1333 226.3948 66.014 218 67.1333 C212.1547 67.9127 210.8848 68.1014 206 71.1333 C197.3352 76.5115 196.7841 77.5925 189 85.1333 C180.985 92.8978 179.3811 92.9854 174 102.1333 C165.0764 117.3034 165.4638 118.8967 159 136.1333 C153.5558 150.6513 152.8747 151.0967 150 166.1333 C146.487 184.5091 146.8813 185.1861 146 204.1333 C144.8922 227.9501 142.9078 229.9257 146 252.1333 C148.0957 267.1844 150.6232 268.2541 157 283.1333 C160.9791 292.418 161.0229 293.1638 167 301.1333 C177.1377 314.6502 177.7445 315.0967 190 327.1333 C205.5245 342.3806 205.8884 343.6886 223 356.1333 C232.4904 363.0355 233.7299 362.8302 245 367.1333 C260.8376 373.1804 261.6497 374.6179 278 377.1333 C299.4484 380.4331 300.6854 379.4022 323 379.1333 C341.8715 378.906 342.5806 378.8125 361 376.1333 C369.4952 374.8977 370.8962 374.9072 378 371.1333 C385.725 367.0294 388.5575 366.0818 393 359.1333 C406.2397 338.4252 409.171 333.9215 417 310.1333 C421.2184 297.3158 419.5271 294.8909 419 280.1333 C418.0459 253.4183 417.1958 252.9782 414 226.1333 C412.2091 211.0894 412.6316 210.6598 409 196.1333 C405.2231 181.0258 405.7662 179.8486 399 166.1333 C387.7041 143.2362 387.0644 141.5146 372 121.1333 C362.3201 108.037 360.4704 108.3567 348 97.1333 C340.6709 90.5371 340.4801 89.7891 332 85.1333 C315.5624 76.1088 314.4056 75.1462 297 69.1333 C287.9653 66.0123 286.9358 66.5717 277 66.1333 C253.3109 65.0882 229 66.1333 229 66.1333 "/>
<path id="1" d="M188 135.1333 C188 135.1333 189.6493 130.9803 192 129.1333 C195.7573 126.1811 197.258 125.0453 202 124.1333 C208.9217 122.8022 211.6495 122.209 218 124.1333 C225.9501 126.5425 235.0346 133.9518 235 134.1333 C234.9233 134.536 223.6525 142.6583 214 145.1333 C206.81 146.9769 202.981 146.2018 196 144.1333 C191.7747 142.8814 187 137.1333 187 137.1333 "/>
<path id="2" d="M289 131.1333 C289 131.1333 303.227 126.3754 317 124.1333 C324.0899 122.9792 325.3715 122.6833 332 124.1333 C340.189 125.9247 349 130.9961 349 131.1333 C349 131.3294 340.3826 138.0851 332 141.1333 C325.2053 143.6041 322.6703 144.4039 316 143.1333 C304.0829 140.8634 290 133.1333 290 133.1333 "/>
<path id="3" d="M191 115.1333 C191 115.1333 198.5006 111.5915 206 110.1333 C216.0426 108.1806 219.1266 106.7018 227 108.1333 C232.1333 109.0667 239 116.1333 239 116.1333 "/>
<path id="4" d="M279 118.1333 C279 118.1333 293.7152 109.2453 307 105.1333 C312.8078 103.3357 315.0371 103.7573 321 105.1333 C326.7008 106.4489 333 111.1333 333 111.1333 "/>
<path id="5" d="M260 166.1333 C260 166.1333 261.2754 177.3693 258 185.1333 C248.8313 206.8665 242.7265 208.8097 233 230.1333 C230.852 234.8424 231.0844 239.2035 232 242.1333 C232.4602 243.6061 237.8364 246.0788 238 246.1333 C238.0149 246.1383 237.9826 244.1348 238 244.1333 C239.2438 244.0297 245.5007 246.5926 250 245.1333 C261.2586 241.4819 266.3162 234.0631 275 232.1333 C278.0791 231.4491 286 237.1333 286 237.1333 "/>
<path id="6" d="M245 311.1333 C245 311.1333 255.6008 308.3839 266 308.1333 C296.5853 307.3963 328 309.1333 328 309.1333 "/>
<path id="7" d="M247 311.1333 C247 311.1333 247.7726 303.9175 250 301.1333 C252.1914 298.394 254.5539 297.7025 259 296.1333 C262.45 294.9157 263.583 294.5938 267 295.1333 C272.0681 295.9336 274.0719 299.6402 278 299.1333 C285.8803 298.1165 290.9965 290.6664 298 291.1333 C307.258 291.7505 310.8987 296.2779 323 302.1333 C326.1669 303.6657 327.6351 304.5409 329 306.1333 C329.4479 306.6558 329 309.1333 329 309.1333 "/>
<path id="8" d="M247 312.1333 C247 312.1333 253.818 316.5552 261 319.1333 C272.9663 323.4289 274.8026 325.926 286 326.1333 C298.8725 326.3717 301.1518 323.6943 315 320.1333 C318.0702 319.3439 318.9603 319.173 321 317.1333 C326.6659 311.4675 332 303.1333 332 303.1333 "/>
<path id="9" d="M210 129.1333 C210 129.1333 207.0238 129.9389 206 131.1333 C204.7337 132.6107 203.6856 134.7708 204 136.1333 C204.6342 138.8816 207.5332 143.3999 209 144.1333 C209.9779 144.6223 214.1594 143.6058 216 142.1333 C217.6694 140.7978 219.3387 136.9237 219 136.1333 C218.1481 134.1455 210 128.1333 210 128.1333 "/>
<path id="10" d="M320 129.1333 C320 129.1333 316.3139 132.7208 316 134.1333 C315.8105 134.9862 316.9797 137.4957 318 138.1333 C319.502 139.0721 321.8431 139.6311 324 139.1333 C326.9621 138.4498 331 135.1333 331 135.1333 "/>
<path id="11" d="M321 128.1333 C321 128.1333 323.7494 127.508 325 128.1333 C327.6576 129.4621 331 133.1333 331 133.1333 "/>
</g>
</g>
</svg>
