<?xml version="1.0" encoding="utf-8"?>
<!DOCTYPE svg PUBLIC "-//W3C//DTD SVG 1.1//EN" "http://www.w3.org/Graphics/SVG/1.1/DTD/svg11.dtd">
<svg viewBox="0 0 800 800" preserveAspectRatio="xMinYMin meet" xmlns="http://www.w3.org/2000/svg" version="1.1">
<g fill="none" stroke="black" stroke-linecap="round" stroke-linejoin="round" stroke-width="1.5025">
<g transform="translate(214.309,87.52) scale(1.9967) translate(-190,-120.1333)">
<path id="0" d="M274 120.1333 C274 120.1333 264.6091 121.8374 258 126.1333 C245.7117 134.1207 244.6157 135.2649 234 146.1333 C224.0833 156.2862 223.2663 157.1064 216 169.1333 C209.2119 180.3688 209.1031 181.3506 205 194.1333 C196.2541 221.3802 191.6385 223.0976 190 250.1333 C186.8704 301.7719 190.7935 306.5522 195 359.1333 C195.6306 367.0157 196.5234 367.763 200 375.1333 C208.7932 393.775 209.2061 395.5827 220 412.1333 C223.3479 417.2668 224.6258 417.9829 230 421.1333 C238.3342 426.0189 239.3873 426.0157 249 429.1333 C257.5901 431.9193 258.3835 432.6676 267 433.1333 C275.9361 433.6164 277.7287 433.8215 286 431.1333 C296.3443 427.7714 297.3138 426.5174 307 420.1333 C318.9538 412.2547 319.0048 411.5578 330 402.1333 C336.3764 396.6679 336.8335 396.5914 342 390.1333 C348.6016 381.8813 349.371 381.5627 354 372.1333 C362.5957 354.6237 363.4479 353.8087 369 335.1333 C374.2336 317.5293 374.2651 316.4735 376 298.1333 C377.7044 280.1156 377.1915 279.3043 376 261.1333 C375.2187 249.2179 375.4982 248.3643 372 237.1333 C366.2258 218.595 365.5722 217.8492 357 200.1333 C350.7521 187.2209 350.1751 186.9731 342 175.1333 C335.8343 166.2036 335.8982 165.2256 328 158.1333 C312.0108 143.7757 310.9603 143.2157 293 131.1333 C283.9707 125.0591 273 121.1333 273 121.1333 "/>
<path id="1" d="M206 237.1333 C206 237.1333 205.4953 231.8419 207 229.1333 C209.6382 224.3846 211.3075 222.9459 216 219.1333 C218.586 217.0322 219.6404 216.6933 223 216.1333 C227.9274 215.3121 229.0654 215.1934 234 216.1333 C238.8278 217.0529 244 220.1333 244 220.1333 "/>
<path id="2" d="M281 223.1333 C281 223.1333 283.2644 217.2827 286 215.1333 C288.7529 212.9703 290.6427 212.4773 295 212.1333 C308.6802 211.0533 312.0063 209.8488 324 212.1333 C330.0067 213.2775 337 220.1333 337 220.1333 "/>
<path id="3" d="M258 225.1333 C258 225.1333 260.4675 235.1927 261 245.1333 C261.9509 262.8838 261.725 263.3716 261 281.1333 C260.7366 287.5876 261.1688 288.4016 259 294.1333 C254.5005 306.0247 250.7814 306.4982 247 318.1333 C244.7874 324.9414 244.7777 328.2664 246 334.1333 C246.716 337.5699 249.6948 341.5357 252 342.1333 C257.9216 343.6686 273 341.1333 273 341.1333 "/>
<path id="4" d="M211 257.1333 C211 257.1333 220.4555 247.3763 228 245.1333 C235.2273 242.9847 248 246.1333 248 246.1333 "/>
<path id="5" d="M213 260.1333 C213 260.1333 216.1773 262.7484 219 263.1333 C226.0467 264.0942 228.502 264.3148 235 263.1333 C237.7321 262.6366 239.2287 261.436 241 259.1333 C243.4829 255.9055 245 250.1333 245 250.1333 "/>
<path id="6" d="M286 244.1333 C286 244.1333 304.2157 239.534 318 240.1333 C324.1766 240.4019 332 246.1333 332 246.1333 "/>
<path id="7" d="M289 246.1333 C289 246.1333 300.0749 254.3339 310 257.1333 C317.4122 259.2239 322.6812 257.9311 328 257.1333 C328.7239 257.0247 330 254.1333 330 254.1333 "/>
<path id="8" d="M221 253.1333 C221 253.1333 228.8513 256.6705 231 256.1333 C232.8003 255.6833 237 249.1333 237 249.1333 "/>
<path id="9" d="M308 241.1333 C308 241.1333 311.1964 246.814 314 248.1333 C317.4601 249.7616 323.8813 249.235 325 249.1333 C325.0186 249.1316 325 247.1333 325 247.1333 "/>
<path id="10" d="M237 362.1333 C237 362.1333 244.7154 371.991 253 376.1333 C263.6259 381.4463 266.2312 381.0547 279 383.1333 C286.9983 384.4354 288.7232 384.9992 296 383.1333 C306.5145 380.4373 310.5011 379.1325 318 373.1333 C322.7993 369.2939 323.0628 365.9868 326 359.1333 C327.2519 356.2122 327 352.1333 327 352.1333 "/>
<path id="11" d="M235 353.1333 C235 353.1333 236.4233 359.5239 235 362.1333 C231.909 367.8002 223 375.1333 223 375.1333 "/>
<path id="12" d="M322 348.1333 L347 357.1333 "/>
</g>
</g>
</svg>
