<?xml version="1.0" encoding="utf-8"?>
<!DOCTYPE svg PUBLIC "-//W3C//DTD SVG 1.1//EN" "http://www.w3.org/Graphics/SVG/1.1/DTD/svg11.dtd">
<svg viewBox="0 0 800 800" preserveAspectRatio="xMinYMin meet" xmlns="http://www.w3.org/2000/svg" version="1.1">
<g fill="none" stroke="black" stroke-linecap="round" stroke-linejoin="round" stroke-width="1.4449">
<g transform="translate(125.9312,87.52) scale(2.0763) translate(-177,-62)">
<path id="0" d="M223 206 C223 206 226.1991 198.37 229 196 C230.5197 194.7141 232.5183 195.1934 236 195 C241.4281 194.6984 242.2115 193.8508 247 195 C253.7213 196.6131 254.9161 197.4777 261 201 C263.7488 202.5914 266 206 266 206 "/>
<path id="1" d="M225 206 C225 206 235.809 210.1766 239 212 C239.2092 212.1196 238.9887 213.9994 239 214 C241.2453 214.1123 251.0364 214.5927 259 213 C261.2866 212.5427 264 209 264 209 "/>
<path id="2" d="M240 196 C240 196 236.5343 197.6108 236 199 C234.7774 202.1788 234.7947 206.7412 235 209 C235.0245 209.2694 235.9679 209.656 237 210 C240.3912 211.1304 241.0084 212 244 212 C246.9916 212 250.198 211.1028 251 210 C252.1002 208.4872 252.9295 202.9918 252 201 C250.9398 198.7281 247.6171 196.5502 244 195 C241.9471 194.1202 240.3988 194.4669 238 195 C236.6229 195.306 235.1309 196.3455 235 197 C234.6073 198.9635 234.8642 203.7506 236 205 C237.4255 206.5681 244.1123 208.3699 245 208 C245.7254 207.6977 248.0759 200.1771 248 200 C247.9822 199.9586 242.5144 200.3998 242 201 C241.4975 201.5862 242 207 242 207 "/>
<path id="3" d="M268 205 L268 209 "/>
<path id="4" d="M341 204 C341 204 347.3846 198.709 353 197 C357.3714 195.6696 359.0151 196.003 364 197 C370.7975 198.3595 371.7957 198.763 378 202 C382.7263 204.4659 384.7079 206.1985 387 209 C387.6383 209.7802 387.4827 212.646 387 213 C383.6866 215.4298 378.8215 219.1254 372 220 C361.8118 221.3062 358.6746 220.2643 348 218 C343.603 217.0673 340.6851 215.3591 339 213 C337.5677 210.9948 338 204 338 204 "/>
<path id="5" d="M356 198 C356 198 352.8762 201.7142 352 205 C351.131 208.2586 351.1316 211.806 352 213 C352.9572 214.3161 356.6112 215.7882 360 216 C363.2594 216.2037 366.6484 215.3516 368 214 C369.3516 212.6484 370.2186 208.8414 370 206 C369.8543 204.1058 368.7615 202.2195 367 201 C363.5189 198.59 361.5915 197.725 357 197 C353.1813 196.3971 348.8347 197.0818 348 198 C347.0083 199.0909 346.2354 205.3241 347 208 C347.4273 209.4954 349.5571 211.0604 352 212 C355.1326 213.2049 358.5406 213.7859 360 213 C361.8205 212.0197 364.6515 207.2653 365 205 C365.1804 203.8276 363.0488 200.3814 362 200 C360.3377 199.3955 355.92 199.72 354 201 C352.08 202.28 350.7613 205.2087 350 208 C349.6493 209.2859 350.5524 211.801 351 212 C352.2892 212.573 358.2847 212.7153 359 212 C360.073 210.927 361.3486 202.9588 361 202 C360.8804 201.671 356.3456 200.6636 355 201 C354.3565 201.1609 353.306 202.6229 353 204 C352.4669 206.3988 352.8301 209.9029 353 210 C353.2903 210.1659 358.9796 208.8746 360 208 C360.4014 207.6559 360 204 360 204 "/>
<path id="6" d="M272 203 L273 211 "/>
<path id="7" d="M261 182 C261 182 255.1486 172.8714 249 169 C243.6637 165.6401 241.2512 165.6398 234 165 C225.068 164.2119 220.3917 163.6037 215 166 C211.4261 167.5884 207 177 207 177 "/>
<path id="8" d="M336 186 C336 186 338.7448 182.6276 342 181 C354.0634 174.9683 355.7976 172.7733 368 170 C375.6095 168.2706 379.5842 168.2256 386 171 C394.8711 174.8362 405 186 405 186 "/>
<path id="9" d="M338 181 C338 181 344.4001 173.5555 350 172 C359.3761 169.3955 362.4554 170.0576 374 171 C386.2637 172.0011 389.1147 172.293 399 176 C402.5403 177.3276 406 183 406 183 "/>
<path id="10" d="M271 183 C271 183 267.8134 177.8063 264 176 C250.6142 169.6594 247.9681 168.829 233 165 C227.6881 163.6411 224.9078 163.2806 221 165 C215.1905 167.5562 208.0043 175.9984 208 176 C207.998 176.0007 210.3657 170.3948 213 168 C214.6781 166.4744 216.1603 166.0789 219 166 C233.055 165.6096 235.6241 164.1705 249 167 C259.6769 169.2586 262.8046 171.6414 271 177 C273.4631 178.6105 275 184 275 184 "/>
<path id="11" d="M284 203 C284 203 286.7786 207.6796 287 211 C287.1854 213.7805 285 218 285 218 "/>
<path id="12" d="M229 193 L213 202 "/>
<path id="13" d="M213 200 L213 203 "/>
<path id="14" d="M214 204 L228 206 "/>
<path id="15" d="M222 198 C222 198 229.6142 200 233 200 C233.6156 200 235 198 235 198 "/>
<path id="16" d="M234 194 C234 194 249.9961 200.9996 250 201 C250.0018 201.0002 242.9972 194.9996 243 195 C243.0074 195.0011 262.9985 203.0002 263 203 C263.0009 202.9999 255.7606 195.3965 250 194 C242.5032 192.1826 238.732 193.383 230 195 C226.6514 195.6201 223 199 223 199 "/>
<path id="17" d="M345 202 C345 202 358.5787 199.2631 369 201 C377.4537 202.4089 386.9998 208.9999 387 209 C387.0001 209 383.0052 205.1444 379 204 C370.1399 201.4686 368.9448 201.7851 359 201 C350.1544 200.3017 348.641 199.585 341 201 C336.7864 201.7803 332 206 332 206 C332 206 339.3572 200.3286 346 199 C355.0584 197.1883 357.401 197.1178 367 199 C381.6092 201.8645 382.4104 205.8958 397 209 C404.7199 210.6425 414 209 414 209 "/>
<path id="18" d="M406 209 C406 209 386 208 386 208 C386 208 400 210 400 210 "/>
<path id="19" d="M232 197 C232 197 227.4061 197.3959 225 199 C222.4014 200.7324 222.829 203.0031 220 205 C215.0267 208.5105 213.6317 209.0123 208 211 C206.0054 211.704 203.4596 211.2757 203 211 C202.8346 210.9007 202.5158 208.6456 203 208 C204.5334 205.9554 205.7602 204.7549 209 203 C217.3087 198.4994 218.4134 197.4533 227 195 C231.2328 193.7906 237 195 237 195 "/>
<path id="20" d="M226 209 L220 207 "/>
<path id="21" d="M339 208 L338 211 "/>
<path id="22" d="M389 209 C389 209 382.5396 217.0654 378 218 C370.022 219.6425 355 216 355 216 "/>
<path id="23" d="M290 254 C290 254 286.2294 257.8036 285 261 C284.1734 263.1493 284.574 266.7018 285 267 C286.0852 267.7596 295 268 295 268 "/>
<path id="24" d="M269 300 C269 300 275.417 300.8593 280 300 C282.3175 299.5655 283.2968 297 285 297 C288.0658 297 289.9536 299.8073 294 300 C299.2688 300.2509 300.7928 297.3491 306 298 C315.1957 299.1495 326.0049 303.9983 326 304 C325.9889 304.0039 305.2742 306.0144 286 305 C277.6961 304.563 269 301 269 301 "/>
<path id="25" d="M274 313 C274 313 283.5694 317 292 317 C305.1142 317 320 313.0001 320 313 C320 312.9999 293 313 293 313 "/>
<path id="26" d="M182 206 C182 206 178.8746 227.3007 181 244 C182.0112 251.9448 186.0422 252.2746 189 261 C195.9125 281.3918 193.634 283.2456 201 303 C204.2854 311.8109 204.9928 312.9571 211 320 C218.8135 329.1606 219.8785 329.7125 230 337 C244.476 347.4227 245.2241 348.4042 261 356 C271.362 360.9891 272.7448 361.2094 284 363 C293.8019 364.5594 294.8893 364.0643 305 363 C313.3876 362.1171 314.2659 361.7843 322 359 C326.1103 357.5203 326.1763 354.8824 330 354 C337.6153 352.2426 339.5488 354.4571 348 353 C353.4363 352.0627 354.4933 351.8843 359 349 C366.2054 344.3885 367.8349 342.5094 373 337 C374.015 335.9173 373.0539 333.7791 374 333 C379.3394 328.6028 383.6293 328.9597 390 323 C398.2349 315.2963 399.3777 314.1513 405 304 C416.8654 282.5764 417.1542 280.8516 426 258 C428.8045 250.755 428.6169 249.9164 429 242 C430.0914 219.4451 429 196 429 196 "/>
<path id="27" d="M435 205 C435 205 440.0558 194.4424 441 185 C441.9076 175.9243 441.9261 173.3604 439 165 C435.5791 155.2261 433.9682 153.9853 427 145 C415.3103 129.9265 412.5946 131.1834 401 116 C391.9297 104.1223 393.6092 102.2516 385 90 C380.8328 84.0698 380.4776 82.3198 375 79 C365.6482 73.3322 363.6489 73.566 352 70 C339.4096 66.1458 338.8922 65.0112 326 64 C288.9087 61.0909 285.2007 59.2923 250 62 C236.648 63.0271 235.2595 66.2202 222 72 C216.2423 74.5098 215.5421 74.8905 211 79 C205.5345 83.945 203.9469 84.5937 201 91 C193.1925 107.9729 193.3436 109.8117 188 129 C182.4143 149.0578 181.8114 149.5532 179 170 C176.3858 189.0127 177 209 177 209 "/>
</g>
</g>
</svg>
