<?xml version="1.0" encoding="utf-8"?>
<!DOCTYPE svg PUBLIC "-//W3C//DTD SVG 1.1//EN" "http://www.w3.org/Graphics/SVG/1.1/DTD/svg11.dtd">
<svg viewBox="0 0 800 800" preserveAspectRatio="xMinYMin meet" xmlns="http://www.w3.org/2000/svg" version="1.1">
<g fill="none" stroke="black" stroke-linecap="round" stroke-linejoin="round" stroke-width="2.861">
<g transform="translate(87.52,176.1259) scale(1.0486) translate(-44.5,-2.8333)">
<path id="0" d="M302.5 36.8333 C302.5 36.8333 293.7173 36.5008 285.5 37.8333 C275.5357 39.4492 274.8173 39.1795 265.5 42.8333 C249.8519 48.9698 247.1192 49.1201 234.5 57.8333 C228.194 62.1875 228.0921 64.4461 223.5 71.8333 C216.7876 82.6315 215.5385 83.1665 211.5 94.8333 C206.878 108.1858 206.281 109.5148 205.5 123.8333 C203.3429 163.3801 204.0552 164.7399 205.5 204.8333 C206.0377 219.7541 206.5676 220.1711 209.5 234.8333 C212.0135 247.401 211.5588 248.1976 216.5 259.8333 C226.7793 284.0393 227.1458 284.9404 240.5 307.8333 C251.3952 326.5108 252.4523 326.685 265.5 343.8333 C269.6757 349.3214 270.2062 350.5247 275.5 353.8333 C281.0789 357.3201 286.1274 355.2013 289.5 358.8333 C295.8972 365.7226 294.6202 371.0837 301.5 381.8333 C310.4249 395.7785 310.3535 397.1914 321.5 408.8333 C332.1121 419.9171 334.9376 423.5548 346.5 428.8333 C353.7689 432.1517 358.072 431.1074 367.5 429.8333 C375.0962 428.8068 376.7225 428.1211 383.5 423.8333 C400.2132 413.2597 401.6156 412.5902 416.5 398.8333 C434.0815 382.5837 436.9019 381.7304 449.5 362.8333 C459.4916 347.846 455.6536 343.7219 464.5 326.8333 C471.848 312.8054 474.9303 313.0804 482.5 299.8333 C484.3562 296.585 484.1249 295.7715 484.5 291.8333 C485.0953 285.5827 483.527 285.0604 484.5 278.8333 C488.434 253.6556 491.676 253.2493 494.5 227.8333 C497.601 199.9245 498.1896 197.5296 496.5 170.8333 C495.8332 160.2986 495.1047 157.8448 489.5 148.8333 C470.9197 118.9592 467.8077 118.5769 445.5 88.8333 C434.8259 74.6012 435.7115 73.0448 423.5 60.8333 C408.3578 45.6911 406.8296 43.5896 389.5 32.8333 C379.7303 26.7694 377.1999 26.6686 365.5 24.8333 C352.9917 22.8713 351.4067 23.4304 338.5 24.8333 C329.1577 25.8488 329.0372 28.21 319.5 29.8333 C305.8024 32.1648 291.5 32.8333 291.5 32.8333 "/>
<path id="1" d="M264.5 2.8333 C264.5 2.8333 233.9039 1.257 207.5 2.8333 C202.7571 3.1165 202.0111 4.2019 197.5 6.8333 C184.363 14.4966 182.7989 14.0555 171.5 23.8333 C157.5592 35.8975 155.4684 36.689 145.5 51.8333 C130.4495 74.6985 131.0931 76.8749 119.5 102.8333 C108.2179 128.0955 107.7034 128.856 99.5 154.8333 C95.9462 166.0871 96.473 166.9144 95.5 178.8333 C94.5001 191.0822 92.9857 192.8091 95.5 203.8333 C99.0165 219.2519 103.6721 220.6068 108.5 235.8333 C109.7029 239.6271 109.2714 241.7477 108.5 244.8333 C108.1786 246.119 105.5745 246.6599 105.5 247.8333 C104.0974 269.9246 108.3809 280.9908 104.5 307.8333 C102.9133 318.808 100.4006 323.0701 93.5 330.8333 C86.8333 338.3334 78.0459 339.3438 72.5 343.8333 C71.9303 344.2945 72.6245 347.8001 72.5 347.8333 C70.7495 348.3001 64.0259 346.4349 57.5 347.8333 C51.2848 349.1652 46.6511 351.3513 44.5 353.8333 C43.3788 355.1271 42.9598 360.633 44.5 362.8333 C50.6096 371.5613 57.0788 372.6956 65.5 383.8333 C71.7936 392.1572 69.124 397.2699 75.5 403.8333 C83.7213 412.2965 88.899 415.9622 99.5 418.8333 C108.3618 421.2334 113.1082 420.5072 123.5 416.8333 C159.952 403.9463 162.7364 391.6719 198.5 383.8333 C229.283 377.0864 234.9623 385.2651 269.5 384.8333 C273.891 384.7785 275.3377 384.7659 278.5 382.8333 C282.9857 380.0921 287.5 373.8333 287.5 373.8333 "/>
<path id="2" d="M467.5 5.8333 C467.5 5.8333 487.7759 4.2192 506.5 5.8333 C515.8289 6.6376 517.0323 6.9844 525.5 10.8333 C538.1653 16.5903 539.4154 17.212 550.5 25.8333 C561.2487 34.1934 563.4779 34.9992 570.5 45.8333 C579.8142 60.2038 581.3959 63.1753 585.5 79.8333 C589.3643 95.5179 585.1931 97.8196 587.5 114.8333 C589.123 126.8027 589.155 127.5135 593.5 138.8333 C607.9182 176.3965 611.0048 176.1457 625.5 213.8333 C630.8256 227.6798 630.762 228.2306 633.5 242.8333 C638.1961 267.8794 639.6965 268.9242 640.5 293.8333 C641.1568 314.1936 642.4701 327.8732 636.5 335.8333 C630.0324 344.4568 615.6981 346.7463 595.5 353.8333 C588.3704 356.335 587.3518 355.8333 579.5 355.8333 C565.2686 355.8333 557.0384 350.3718 550.5 353.8333 C541.7592 358.4608 540.2117 370.8051 528.5 382.8333 C523.017 388.4645 520.4841 390.7421 513.5 391.8333 C492.5743 395.103 485.6476 395.3967 464.5 392.8333 C456.6729 391.8846 451.8287 388.1621 447.5 383.8333 C445.5021 381.8355 445.5 373.8333 445.5 373.8333 "/>
<path id="3" d="M305.5 304.8333 C305.5 304.8333 312.5136 304.3029 314.5 301.8333 C327.2114 286.03 337.1839 264.5925 342.5 258.8333 C342.7614 258.5502 347.7014 260.1993 350.5 262.8333 C355.3277 267.377 358.9366 274.9693 359.5 274.8333 C361.7694 274.2856 370.439 262.5452 379.5 255.8333 C381.5584 254.3086 385.6798 253.9803 386.5 254.8333 C400.0038 268.8773 407.6033 282.2184 429.5 307.8333 C433.781 312.8413 439.5 316.8333 439.5 316.8333 "/>
<path id="4" d="M307.5 307.8333 C307.5 307.8333 311.4563 323.6421 316.5 336.8333 C317.5151 339.4883 318.2264 340.7257 320.5 341.8333 C335.2741 349.031 338.6835 351.3912 355.5 355.8333 C363.322 357.8995 365.3306 356.8137 373.5 355.8333 C376.8404 355.4325 377.1758 354.6171 380.5 352.8333 C397.5637 343.6772 397.2445 342.4611 414.5 333.8333 C424.0203 329.0732 429.4878 329.7064 434.5 325.8333 C436.2142 324.5087 436.5 316.8333 436.5 316.8333 "/>
<path id="5" d="M314.5 203.8333 C314.5 203.8333 313.6207 221.1319 315.5 223.8333 C316.72 225.587 326.7124 227.0438 330.5 226.8333 C331.3228 226.7876 332.0429 223.5619 333.5 222.8333 C335.6857 221.7405 338.9842 221.0249 340.5 221.8333 C343.5004 223.4336 344.5703 228.672 348.5 230.8333 C352.4752 233.0197 357.7057 234.0483 360.5 232.8333 C364.5714 231.0632 366.5065 222.9274 371.5 220.8333 C377.8599 218.1663 388.842 221.2257 391.5 219.8333 C392.3079 219.4102 393.6916 212.4814 392.5 209.8333 C390.6907 205.8127 382.5 199.8333 382.5 199.8333 "/>
<path id="6" d="M243.5 159.8333 C243.5 159.8333 248.1444 154.6599 253.5 151.8333 C265.4768 145.5122 266.7932 144.1482 279.5 140.8333 C288.4177 138.507 291.4718 138.0493 299.5 139.8333 C306.8066 141.457 308.289 143.589 315.5 148.8333 C324.4265 155.3253 332.5 163.8333 332.5 163.8333 "/>
<path id="7" d="M242.5 163.8333 C242.5 163.8333 254.8629 172.9253 265.5 173.8333 C291.6957 176.0696 295.2876 172.9199 324.5 170.8333 C329.9972 170.4407 333.8812 169.7163 335.5 168.8333 C335.7921 168.674 335.5 164.8333 335.5 164.8333 "/>
<path id="8" d="M378.5 163.8333 C378.5 163.8333 387.2924 151.4371 396.5 146.8333 C408.1398 141.0135 411.753 142.4802 426.5 139.8333 C430.7463 139.0712 432.3469 138.432 435.5 139.8333 C443.6748 143.4666 453.5 151.8333 453.5 151.8333 "/>
<path id="9" d="M374.5 168.8333 C374.5 168.8333 383.6137 172.1224 392.5 172.8333 C408.0219 174.0751 408.9025 174.178 424.5 172.8333 C437.3831 171.7227 438.6932 171.3059 450.5 167.8333 C454.5704 166.6362 456.3445 165.2284 458.5 162.8333 C459.5424 161.6751 459.5 157.8333 459.5 157.8333 "/>
</g>
</g>
</svg>
