<?xml version="1.0" encoding="utf-8"?>
<!DOCTYPE svg PUBLIC "-//W3C//DTD SVG 1.1//EN" "http://www.w3.org/Graphics/SVG/1.1/DTD/svg11.dtd">
<svg viewBox="0 0 800 800" preserveAspectRatio="xMinYMin meet" xmlns="http://www.w3.org/2000/svg" version="1.1">
<g fill="none" stroke="black" stroke-linecap="round" stroke-linejoin="round" stroke-width="1.1521">
<g transform="translate(87.52,126.58) scale(2.604) translate(-157,-52)">
<path id="0" d="M205 151 C205 151 211.5024 144.1574 217 143 C227.4454 140.801 243 143 243 143 "/>
<path id="1" d="M224 153 C224 153 226.9007 152.8346 227 153 C227.2757 153.4596 227.2155 157.4612 227 158 C226.9655 158.0862 225 158 225 158 "/>
<path id="2" d="M279 144 C279 144 292.7557 142.3198 305 143 C309.7981 143.2666 315 146 315 146 "/>
<path id="3" d="M295 156 L297 157 "/>
<path id="4" d="M258 154 C258 154 259.1036 169.0777 257 182 C255.8066 189.3308 250.8737 196.8834 251 197 C251.2612 197.2411 270 194 270 194 "/>
<path id="5" d="M249 220 C249 220 250.3005 222.9193 251 223 C258.156 223.8257 266.5097 224.4638 275 223 C277.0738 222.6425 280 218 280 218 "/>
<path id="6" d="M188 132 C188 132 186.785 162.5738 189 191 C189.6895 199.8484 190.2052 201.031 194 209 C199.7986 221.177 199.9926 224.1884 209 233 C221.0658 244.8035 226.5223 246.138 240 254 C241.5581 254.9089 243.0412 253.2538 245 254 C252.462 256.8427 253.4343 260.7391 261 262 C274.9674 264.3279 281.7019 266.3844 293 262 C308.9196 255.8222 313.2917 250.108 328 236 C336.3783 227.9637 336.5626 225.8748 342 215 C347.7287 203.5426 349.1743 202.2319 351 190 C353.9211 170.429 353.9679 166.367 352 148 C351.3071 141.5332 349.3793 139.0362 345 134 C340.5733 128.9093 338.755 128.4939 332 125 C324.6909 121.2194 323.8284 120.1416 316 119 C301.0873 116.8252 298.3337 120.0477 284 118 C279.2221 117.3174 277.0673 115.8314 274 113 C272.0143 111.1671 272.5374 108.0499 271 106 C270.4598 105.2798 268 105 268 105 "/>
<path id="7" d="M189 133 C189 133 208.3399 133.8031 224 133 C225.8356 132.9059 226.0846 132.1267 228 131 C234.5517 127.1461 235.8056 127.7789 241 123 C247.5823 116.9443 247.3186 111.4494 253 108 C257.6336 105.1868 267.9196 107.418 269 106 C270.4465 104.1014 269 87 269 87 "/>
<path id="8" d="M206 232 C206 232 206.4198 235.6735 206 236 C204.4708 237.1894 201.3707 238.5629 197 239 C187.1306 239.9869 182.104 241.4798 176 239 C171.2675 237.0774 168.849 232.8877 165 226 C159.8798 216.8375 157.5581 214.9658 157 205 C154.2953 156.7026 153.4564 142.9406 158 101 C158.755 94.0306 163.0325 90.7482 170 85 C181.6195 75.4139 183.5 74.2703 198 68 C219.5284 58.6904 221.4773 55.9538 244 53 C279.7469 48.3119 282.8633 51.1838 320 52 C327.364 52.1618 328.9064 52.3188 335 55 C340.0481 57.2212 341.7934 58.4191 345 63 C351.3492 72.0702 351.4404 73.9268 356 85 C358.2747 90.5243 356.5863 91.7703 359 97 C362.2738 104.0932 365.3743 104.5816 368 111 C369.188 113.9039 366.5827 116.3754 368 119 C378.0238 137.5625 384.1634 140.8215 395 161 C397.5076 165.6693 396.7797 167.053 397 173 C397.7662 193.6869 397.694 199.7319 397 215 C396.9655 215.7601 396.0764 216.1389 395 217 C393.6247 218.1003 393.2583 218.9748 392 219 C372.5544 219.3889 345 218 345 218 "/>
</g>
</g>
</svg>
