<?xml version="1.0" encoding="utf-8"?>
<!DOCTYPE svg PUBLIC "-//W3C//DTD SVG 1.1//EN" "http://www.w3.org/Graphics/SVG/1.1/DTD/svg11.dtd">
<svg viewBox="0 0 800 800" preserveAspectRatio="xMinYMin meet" xmlns="http://www.w3.org/2000/svg" version="1.1">
<g fill="none" stroke="black" stroke-linecap="round" stroke-linejoin="round" stroke-width="1.3489">
<g transform="translate(87.52,160.9139) scale(2.2241) translate(-198,-88)">
<path id="0" d="M321 132 C321 132 301.0096 130.2496 283 131 C278.1961 131.2002 277.3523 131.6878 273 134 C261.949 139.8708 260.0844 139.8019 251 148 C240.5721 157.4105 239.6051 159.4271 232 171 C228.8649 175.7708 228.4745 177.1877 228 183 C226.5758 200.4466 226.8491 202.7359 228 220 C228.2551 223.8261 228.865 224.5603 231 228 C237.5617 238.5716 237.9383 239.9709 246 249 C249.7337 253.1817 250.8694 253.4347 256 256 C260.3705 258.1852 261.1095 258.6845 266 259 C290.9785 260.6115 292.8158 260.7749 318 260 C324.3445 259.8048 324.9252 259.2274 331 257 C339.588 253.8511 341.3436 254.1534 348 249 C355.573 243.1371 356.0488 241.3316 362 233 C365.7276 227.7813 366.3529 226.8826 368 221 C369.599 215.2894 367.664 214.1789 369 208 C371.5791 196.0718 374.4205 195.5829 376 184 C377.2573 174.7801 378.2953 171.1398 375 164 C368.1369 149.1299 362.0437 137.7145 352 132 C343.3305 127.0674 317 131 317 131 "/>
<path id="1" d="M327 95 C327 95 306.2026 93.6327 286 94 C279.0806 94.1258 276.8745 93.0257 272 96 C250.944 108.8477 246.2556 113.0098 227 130 C222.9677 133.558 224.4637 136.3817 221 141 C218.8771 143.8306 216.3198 143.1882 215 146 C206.2229 164.6991 201.8799 168.9033 198 190 C194.475 209.1671 197.7442 212.4879 199 233 C199.1786 235.9164 199.3651 236.9878 201 239 C205.0606 243.9976 207.6404 243.9697 212 249 C213.5028 250.734 212.4156 252.4543 214 254 C230.8496 270.4386 232.922 275.4178 253 289 C264.6737 296.8969 267.4388 295.2591 282 300 C288.6934 302.1792 289.1919 302.9013 296 303 C322.6491 303.3862 325.5494 303.9508 351 301 C357.7717 300.2149 358.5928 298.7375 365 295 C376.2584 288.4326 377.8875 288.6983 387 280 C398.9866 268.5583 399.8182 266.7727 409 253 C413.1869 246.7197 412.5852 245.5464 415 238 C416.5186 233.2545 416.9417 232.9008 417 228 C417.4306 191.8263 421.0666 185.9829 416 154 C413.993 141.3307 409.7562 138.6749 401 127 C394.018 117.6906 392.6502 115.9544 383 110 C370.6687 102.3913 367.9706 100.8415 354 98 C340.6695 95.2887 324 98 324 98 "/>
<path id="2" d="M277 94 C277 94 289.5808 90.8012 302 90 C320.1927 88.8263 329.34 90.5084 339 90 C339.2886 89.9848 339.7486 88 340 88 C355.5863 88 374.9351 84.259 402 90 C419.7893 93.7735 422.8085 98.2056 439 109 C446.8241 114.2161 446.9237 116.0743 453 124 C458.1712 130.745 458.5449 131.1884 462 139 C469.8625 156.776 471.0575 157.8773 476 176 C478.2126 184.1128 476.2173 189.0429 477 194 C477.0567 194.3592 479 194.7596 479 195 C479 202.2113 479.5202 210.6351 477 225 C474.6415 238.4432 474.1462 240.0994 469 252 C466.726 257.2587 465.6203 258.6791 461 262 C450.8562 269.2908 448.593 270.2264 437 275 C432.8879 276.6932 431.5013 274.5302 427 276 C407.865 282.2482 407.5775 284.5867 388 291 C378.9453 293.9662 370.5137 294.8407 369 295 C368.9836 295.0017 369 293 369 293 "/>
<path id="3" d="M339 96 C339 96 364.1482 96.6015 368 97 C368.0274 97.0028 367.803 98.9015 368 99 C376.1764 103.0882 387.1439 104.9698 402 114 C411.2082 119.5972 412.7141 121.7141 419 130 C422.653 134.8153 422.4878 140.1916 424 143 C424.1038 143.1927 425.9832 142.9273 426 143 C426.9786 147.2408 429.6252 156.1308 430 169 C431.1047 206.9283 431.3854 209.4236 429 246 C428.5256 253.274 427.2547 254.2193 424 261 C421.501 266.2064 420.9754 266.5476 417 271 C408.6648 280.3354 403.1866 285.4414 399 289 C398.8554 289.1229 397 288 397 288 "/>
<path id="4" d="M324 93 C324 93 351.7912 91.1997 377 92 C381.8046 92.1525 382.4274 92.8407 387 95 C400.0615 101.1679 401.8074 100.6055 413 109 C424.8059 117.8544 425.7887 119.5653 435 131 C439.5541 136.6534 439.605 138.1145 442 145 C443.3622 148.9164 442.5684 152.7053 443 154 C443.0308 154.0925 444.9913 153.9502 445 154 C445.5817 157.3449 446.4183 173.6551 447 177 C447.0087 177.0498 448.9905 176.9477 449 177 C449.5851 180.2182 450.4149 195.7818 451 199 C451.0095 199.0523 452.9999 198.9942 453 199 C453.1188 203.8723 453.9801 220.1993 452 240 C451.0605 249.3945 448.33 255.39 447 259 C446.953 259.1276 445.0893 258.8214 445 259 C443.5267 261.9466 440 273 440 273 "/>
<path id="5" d="M374 92 C374 92 386.0505 92.5823 388 93 C388.0588 93.0126 387.8884 94.9594 388 95 C389.7993 95.6543 394.8631 95.1901 399 97 C401.5039 98.0955 401.4066 100.4872 404 102 C406.6753 103.5606 408.6209 102.1218 411 104 C425.7268 115.6264 428.0142 117.1401 442 132 C451.5397 142.1359 454.543 143.2797 459 155 C466.836 175.6058 465.4626 179.2991 469 203 C470.358 212.0987 470.6852 213.1528 469 222 C464.8947 243.5526 457 266 457 266 "/>
<path id="6" d="M268 141 C268 141 261.4 147.6667 257 155 C252.6855 162.1909 251.1555 163.489 250 171 C248.4541 181.0485 248.9056 183.2954 251 194 C253.218 205.3367 254.0211 206.256 259 217 C263.306 226.2918 263.6773 227.36 270 235 C275.0759 241.1333 276.0226 241.8136 283 246 C295.3884 253.433 296.677 254.4581 310 259 C317.4948 261.555 327 261 327 261 "/>
<path id="7" d="M240 166 C240 166 237.7246 188.8219 240 208 C240.966 216.1418 242.2565 217.7266 247 225 C256.6783 239.8401 258.0671 242.6951 270 254 C275.1141 258.845 277.8948 258.7393 285 261 C287.8871 261.9186 292 261 292 261 "/>
</g>
</g>
</svg>
