<?xml version="1.0" encoding="utf-8"?>
<!DOCTYPE svg PUBLIC "-//W3C//DTD SVG 1.1//EN" "http://www.w3.org/Graphics/SVG/1.1/DTD/svg11.dtd">
<svg viewBox="0 0 800 800" preserveAspectRatio="xMinYMin meet" xmlns="http://www.w3.org/2000/svg" version="1.1">
<g fill="none" stroke="black" stroke-linecap="round" stroke-linejoin="round" stroke-width="0.75365">
<g transform="translate(87.52,143.2489) scale(3.9806) translate(-184,-232.1333)">
<path id="0" d="M281 232.1333 C281 232.1333 295.1401 232.6019 304 235.1333 C306.3874 235.8154 306.2606 238.6267 309 240.1333 C315.4684 243.691 319.0819 242.4448 324 246.1333 C326.9635 248.3559 326.0274 251.6654 329 255.1333 C331.4611 258.0047 334.3402 257.367 336 260.1333 C339.2475 265.5458 340.5284 267.9415 341 275.1333 C342.4133 296.6859 344.9276 304.1332 340 321.1333 C336.9654 331.6027 329.7533 337.502 321 344.1333 C317.2715 346.958 312.88 344.1733 307 346.1333 C303.5255 347.2915 303.7085 349.56 300 351.1333 C287.8765 356.2766 286.7518 358.2012 274 360.1333 C255.2889 362.9683 250.6702 364.9119 234 361.1333 C217.6204 357.4206 213.5127 352.921 199 343.1333 C194.2531 339.932 193.3875 337.8634 191 332.1333 C186.3499 320.973 184.9266 319.1796 184 307.1333 C182.5542 288.3382 181.7344 283.9292 186 267.1333 C188.7964 256.1225 192.1231 253.1356 200 244.1333 C204.7485 238.7065 206.9761 237.8522 214 235.1333 C221.296 232.3091 222.622 232.3567 231 232.1333 C259.4367 231.375 289 233.1333 289 233.1333 "/>
<path id="1" d="M288 279.1333 C288 279.1333 279.3714 275.9249 274 272.1333 C272.1484 270.8263 271.7842 267.1534 271 267.1333 C262.0005 266.9026 248.1397 266.403 235 271.1333 C228.3179 273.5389 224.328 278.6993 221 285.1333 C218.5689 289.8335 217.879 296.8635 220 300.1333 C225.6479 308.8405 233.296 316.7315 245 322.1333 C254.2967 326.4241 261.9549 324.7612 272 324.1333 C273.9623 324.0107 274.4999 321.0157 277 320.1333 C281.9543 318.3848 284.9943 320.6196 289 318.1333 C297.1469 313.0766 301.1791 309.3647 306 302.1333 C308.0577 299.0468 308.3032 294.3189 307 291.1333 C305.1431 286.5942 302.4012 283.9592 297 280.1333 C291.4597 276.2089 290.0689 276.1856 283 274.1333 C274.9751 271.8035 266 271.1333 266 271.1333 "/>
<path id="2" d="M311 305.1333 C311 305.1333 311.3426 309.2873 310 311.1333 C304.6297 318.5174 302.6137 321.8825 295 327.1333 C290.099 330.5133 287.9182 330.3814 281 331.1333 C265.6112 332.806 262.7749 334.7458 249 332.1333 C236.7557 329.8111 234.6077 326.8166 223 320.1333 C219.1094 317.8933 218.5766 316.8811 216 313.1333 C213.4371 309.4054 212 308.0258 212 304.1333 C212 289.4285 212.7205 283.2514 216 270.1333 C216.7028 267.3223 219.0393 265.1202 222 264.1333 C231.3754 261.0082 234.2032 260.4438 246 260.1333 C271.4224 259.4643 281.1926 256.9428 298 262.1333 C304.9851 264.2905 309.0225 272.0078 314 281.1333 C316.7091 286.1 316.2633 288.8143 316 295.1333 C315.8084 299.7307 313 305.1333 313 305.1333 "/>
</g>
</g>
</svg>
