<?xml version="1.0" encoding="utf-8"?>
<!DOCTYPE svg PUBLIC "-//W3C//DTD SVG 1.1//EN" "http://www.w3.org/Graphics/SVG/1.1/DTD/svg11.dtd">
<svg viewBox="0 0 800 800" preserveAspectRatio="xMinYMin meet" xmlns="http://www.w3.org/2000/svg" version="1.1">
<g fill="none" stroke="black" stroke-linecap="round" stroke-linejoin="round" stroke-width="0.62404">
<g transform="translate(111.5569,87.52) scale(4.8074) translate(-211,-119.4167)">
<path id="0" d="M269 127.4167 C269 127.4167 251.3904 132.1439 237 138.4167 C233.2394 140.0559 231.7761 141.1014 230 144.4167 C225.2118 153.3547 223.7433 155.7393 222 166.4167 C219.9805 178.7864 219.2502 182.1882 222 193.4167 C224.5399 203.788 226.8138 206.4959 234 215.4167 C240.2848 223.2184 242.2449 224.0506 251 229.4167 C256.8404 232.9963 258.4449 233.9593 265 234.4167 C278.1845 235.3365 282.5089 235.3631 294 232.4167 C298.6923 231.2135 301.3055 228.9483 304 224.4167 C310.9817 212.6748 310.5368 209.9853 316 195.4167 C317.9774 190.1437 318.5241 189.8103 319 184.4167 C319.9717 173.4041 321.6089 170.8488 319 161.4167 C315.8698 150.0998 312.3749 140.8318 306 137.4167 C294.6062 131.3129 263 131.4167 263 131.4167 "/>
<path id="1" d="M271 165.4167 C271 165.4167 263.3076 168.9553 261 172.4167 C258.9175 175.5404 258.0515 181.5197 259 183.4167 C260.1856 185.7879 266.5525 190.1033 270 190.4167 C273.1243 190.7007 279.5064 187.9772 281 185.4167 C283.7147 180.7629 284.953 171.1819 284 166.4167 C283.6064 164.4484 279.2133 161.5643 276 160.4167 C274.2123 159.7782 270.8813 160.976 270 161.4167 C269.8644 161.4845 270 163.4167 270 163.4167 "/>
<path id="2" d="M282 162.4167 L309 146.4167 "/>
<path id="3" d="M283 180.4167 L316 203.4167 "/>
<path id="4" d="M278 192.4167 C278 192.4167 278.0399 202.4563 280 211.4167 C281.4212 217.9137 283.6901 218.1289 285 224.4167 C286.0262 229.3424 285 235.4167 285 235.4167 "/>
<path id="5" d="M260 189.4167 C260 189.4167 257.595 195.164 254 198.4167 C247.8872 203.9473 245.2384 203.218 239 208.4167 C237.0839 210.0134 236 213.4167 236 213.4167 "/>
<path id="6" d="M257 178.4167 C257 178.4167 251.8795 179.4287 248 178.4167 C241.2905 176.6664 240.6887 174.3277 234 172.4167 C231.0205 171.5654 227 172.4167 227 172.4167 "/>
<path id="7" d="M267 167.4167 C267 167.4167 259.4324 153.6096 254 140.4167 C252.7555 137.3943 253 133.4167 253 133.4167 "/>
<path id="8" d="M217 143.4167 C217 143.4167 212.0904 155.6042 211 167.4167 C209.1793 187.1411 210.2128 188.3437 211 208.4167 C211.1935 213.3509 211.2045 214.1523 213 218.4167 C214.9088 222.9502 215.369 224.0882 219 227.4167 C226.623 234.4045 228.1263 236.7762 237 240.4167 C245.4544 243.8851 248.4837 240.879 258 243.4167 C262.5108 244.6195 262.6532 247.4507 267 248.4167 C274.8338 250.1575 276.0784 249.4167 285 249.4167 C291.4433 249.4167 293.6861 250.3775 298 248.4167 C302.1973 246.5088 302.7138 242.4783 307 239.4167 C308.5875 238.2828 310.6886 239.4366 312 238.4167 C313.9671 236.8867 314.7136 235.5742 316 232.4167 C320.0215 222.5457 320.9067 221.8829 323 211.4167 C325.2802 200.0159 322.5936 198.2456 325 187.4167 C326.3126 181.51 330.4888 180.9372 331 175.4167 C332.7061 156.9904 333.1069 150.1942 330 133.4167 C328.9934 127.9813 325.4367 125.0705 321 121.4167 C318.7333 119.5499 316.9003 119.4997 313 119.4167 C271.2932 118.5293 255.2888 117.8451 227 119.4167 C225.5929 119.4948 223.7352 121.9659 223 124.4167 C221.1501 130.5831 222.9511 134.7827 221 139.4167 C220.1962 141.3257 216.2298 141.4842 215 143.4167 C213.7988 145.3042 214 150.4167 214 150.4167 "/>
</g>
</g>
</svg>
