<?xml version="1.0" encoding="utf-8"?>
<!DOCTYPE svg PUBLIC "-//W3C//DTD SVG 1.1//EN" "http://www.w3.org/Graphics/SVG/1.1/DTD/svg11.dtd">
<svg viewBox="0 0 800 800" preserveAspectRatio="xMinYMin meet" xmlns="http://www.w3.org/2000/svg" version="1.1">
<g fill="none" stroke="black" stroke-linecap="round" stroke-linejoin="round" stroke-width="1.6753">
<g transform="translate(141.2415,87.52) scale(1.7907) translate(-202,-47)">
<path id="0" d="M343 60 C343 60 338.3588 57.3534 334 57 C320.796 55.9294 318.5975 54.2389 306 57 C284.1762 61.7833 281.1044 62.8062 261 73 C247.3198 79.9364 246.2858 81.9707 235 93 C224.9701 102.802 225.4114 104.2971 217 116 C214.0523 120.1011 213.3355 120.3771 212 125 C207.1012 141.9572 205.417 143.1456 204 161 C200.5127 204.9397 199.8463 207.9257 202 251 C202.7283 265.5657 203.9652 267.3423 210 281 C222.463 309.2057 223.1048 311.0745 240 337 C251.4603 354.5857 252.9191 355.4776 268 370 C279.1752 380.7613 280.6659 381.2958 294 389 C302.3098 393.8012 303.7848 394.4641 313 396 C323.5099 397.7517 324.8291 397.2186 336 396 C351.8601 394.2698 352.775 394.5675 368 390 C387.1439 384.2568 388.2457 383.8771 406 375 C417.511 369.2445 419.7543 369.0092 428 360 C445.1994 341.2081 447.62 339.0525 460 316 C475.7748 286.6262 476.2879 283.7263 486 252 C490.7542 236.4698 489.153 234.9407 490 218 C491.1393 195.2142 492.5605 194.0207 490 172 C487.7087 152.295 486.7209 150.7015 480 132 C475.5796 119.6999 474.0302 119.504 467 108 C463.1487 101.6978 463.3189 100.5936 458 96 C442.218 82.3701 441.1679 80.9542 423 70 C407.9269 60.9118 406.6879 60.399 390 55 C373.5715 49.6849 372.3284 49.9564 355 48 C341.9275 46.5241 340.8162 46.3073 328 48 C315.2196 49.688 302 55 302 55 "/>
<path id="1" d="M368 49 C368 49 365.833 47.0873 364 47 C346.9915 46.1901 326 47 326 47 "/>
<path id="2" d="M287 58 L311 50 "/>
<path id="3" d="M306 52 C306 52 319.2114 49.7236 329 52 C338.5015 54.2097 340.4209 55.7607 349 62 C361.5826 71.151 362.608 72.1235 373 84 C383.0899 95.5313 383.4746 96.4542 391 110 C400.7087 127.4757 401.1756 128.3879 408 147 C411.92 157.6908 412.4224 158.641 413 170 C415.3608 216.4294 416.596 219.7548 414 265 C413.2492 278.0857 411.573 279.5537 406 292 C396.9157 312.2883 393.8655 312.2689 384 332 C382.259 335.482 383.8881 336.7985 382 340 C373.0764 355.1313 372.5171 356.8916 361 371 C352.9834 380.8203 351.7324 382.2168 342 389 C336.6056 392.7598 334.6634 393.2596 328 394 C317.9795 395.1134 314.0875 396.4217 306 393 C291.9751 387.0664 276 372 276 372 "/>
<path id="4" d="M290 131 C290 131 292.2322 128.2791 294 128 C299.9272 127.0641 302.2957 126.7585 309 128 C314.7773 129.0699 316.1761 129.4917 321 133 C331.7416 140.8121 332.3541 142.0326 342 152 C347.0801 157.2495 347.4304 157.6368 351 164 C358.7163 177.7551 362.6621 179.1285 365 193 C369.4856 219.6147 369.6678 227.3252 366 253 C364.4156 264.091 358.2608 264.7248 353 277 C347.9425 288.8008 350.0349 290.6716 345 302 C342.4336 307.7744 341.4515 308.2866 337 313 C333.2815 316.9372 332.0727 318.8121 328 320 C322.4673 321.6137 317.4478 322.3475 313 320 C303.7996 315.1442 299.7395 311.3931 292 301 C283.4142 289.4706 282.8976 287.267 278 273 C271.7164 254.6957 271.0563 253.3291 269 234 C266.1641 207.3427 267.1948 205.1683 268 179 C268.1478 174.1955 269.1451 173.8228 271 169 C274.1086 160.9176 273.5856 160.063 278 153 C283.2268 144.637 284.0374 142.8914 291 137 C295.7426 132.987 304 131 304 131 "/>
<path id="5" d="M328 50 C328 50 324.995 49.005 325 49 C325.02 48.98 328.1117 47.1444 331 47 C347.0986 46.1951 365 47 365 47 C365 47 348.1996 46.65 332 48 C324.5327 48.6223 317 51 317 51 "/>
<path id="6" d="M426 364 C426 364 404.7807 364.6194 399 364 C398.7171 363.9697 398 361 398 361 "/>
<path id="7" d="M447 341 L420 340 "/>
<path id="8" d="M465 310 C465 310 458.4176 312.2299 452 313 C446.2357 313.6917 441.4118 313.3529 440 313 C439.9118 312.9779 440 310 440 310 "/>
<path id="9" d="M476 282 L460 281 "/>
<path id="10" d="M488 249 C488 249 471.9114 250.7975 465 250 C463.9546 249.8794 462 246 462 246 "/>
<path id="11" d="M489 210 L454 212 "/>
<path id="12" d="M491 177 L456 179 "/>
<path id="13" d="M479 135 C479 135 472.7271 138.4947 467 139 C456.8413 139.8964 445 138 445 138 "/>
<path id="14" d="M467 105 L448 107 "/>
<path id="15" d="M442 81 C442 81 436.9849 85.9607 432 88 C427.0327 90.0321 420 90 420 90 "/>
<path id="16" d="M416 69 L394 75 "/>
<path id="17" d="M394 58 L367 65 "/>
<path id="18" d="M370 48 L353 53 "/>
<path id="19" d="M341 395 L382 392 "/>
<path id="20" d="M395 382 L380 391 "/>
<path id="21" d="M369 77 C369 77 372.4525 77.7737 374 77 C377.095 75.4525 381 71 381 71 "/>
<path id="22" d="M382 96 C382 96 391.7981 94.836 397 93 C397.9908 92.6503 399 90 399 90 "/>
<path id="23" d="M398 120 C398 120 403.44 120.76 408 120 C411.876 119.354 413.0064 118.905 416 117 C417.6753 115.9339 419 113 419 113 "/>
<path id="24" d="M408 146 C408 146 417.3611 146.7942 423 145 C426.2796 143.9565 430 139 430 139 "/>
<path id="25" d="M416 172 C416 172 429.4076 172.6602 437 172 C437.786 171.9317 439 170 439 170 "/>
<path id="26" d="M419 192 L444 193 "/>
<path id="27" d="M417 221 C417 221 417.5949 222.9147 418 223 C423.2513 224.1055 436 225 436 225 "/>
<path id="28" d="M419 251 C419 251 419.6839 252.9649 420 253 C424.3964 253.4885 437 253 437 253 "/>
<path id="29" d="M410 278 C410 278 413.1702 280.5755 416 281 C422.1423 281.9213 430 281 430 281 "/>
<path id="30" d="M401 304 C401 304 406.7379 307.9881 412 309 C418.5988 310.269 427 309 427 309 "/>
<path id="31" d="M392 321 C392 321 392.2261 323.4679 393 324 C398.1805 327.5616 401.0196 329.3408 408 332 C410.3207 332.8841 414 332 414 332 "/>
<path id="32" d="M383 346 C383 346 384.0092 348.6503 385 349 C390.2019 350.836 400 352 400 352 "/>
<path id="33" d="M370 366 C370 366 374.8436 370.6874 379 372 C382.8151 373.2048 389 372 389 372 "/>
<path id="34" d="M313 131 C313 131 303.5437 135.9462 300 142 C293.0613 153.8536 290.7346 157.4922 289 172 C285.5657 200.7235 283.8417 205.7414 289 234 C294.674 265.0838 298.8781 269.2048 312 298 C315.6863 306.0895 318.7583 308.3866 325 313 C327.9744 315.1985 335 315 335 315 "/>
</g>
</g>
</svg>
