<?xml version="1.0" encoding="utf-8"?>
<!DOCTYPE svg PUBLIC "-//W3C//DTD SVG 1.1//EN" "http://www.w3.org/Graphics/SVG/1.1/DTD/svg11.dtd">
<svg viewBox="0 0 800 800" preserveAspectRatio="xMinYMin meet" xmlns="http://www.w3.org/2000/svg" version="1.1">
<g fill="none" stroke="black" stroke-linecap="round" stroke-linejoin="round" stroke-width="0.58084">
<g transform="translate(87.52,136.5871) scale(5.165) translate(-185,-131.4167)">
<path id="0" d="M227 135.4167 C227 135.4167 216.8066 135.1718 211 138.4167 C202.15 143.3623 198.8613 145.9764 193 154.4167 C187.887 161.7793 187.9256 164.5482 186 174.4167 C184.0898 184.2063 182.7782 187.085 185 195.4167 C187.9433 206.4542 190.6344 211.2891 198 219.4167 C202.6317 224.5275 205.8684 224.3673 214 227.4167 C221.4896 230.2253 222.2255 230.8186 230 231.4167 C240.9283 232.2573 244.6289 233.6057 253 230.4167 C261.8485 227.0458 265.7632 223.0092 272 215.4167 C275.3185 211.3768 275.4611 208.7493 276 202.4167 C277.3736 186.277 277.7024 183.7379 276 168.4167 C275.4214 163.2095 274.4969 161.3171 271 157.4167 C262.6822 148.1392 260.8218 146.6312 250 139.4167 C243.7693 135.2629 242.0885 134.3494 235 133.4167 C224.7334 132.0658 212 134.4167 212 134.4167 "/>
<path id="1" d="M244 232.4167 C244 232.4167 259.5005 234.4301 272 233.4167 C276.1746 233.0782 277.1655 232.0713 281 229.4167 C289.6964 223.3961 298 215.4167 298 215.4167 "/>
<path id="2" d="M238 131.4167 L235 131.4167 "/>
<path id="3" d="M237 133.4167 C237 133.4167 255.253 133.0073 269 137.4167 C279.396 140.7512 281.7614 143.8945 290 150.4167 C292.0404 152.032 293 156.4167 293 156.4167 "/>
<path id="4" d="M288 151.4167 C288 151.4167 290.4512 153.441 291 155.4167 C292.6527 161.3664 293 169.4167 293 169.4167 "/>
<path id="5" d="M291 152.4167 C291 152.4167 299.3469 154.6615 301 157.4167 C304.4565 163.1775 304.8544 167.5641 306 177.4167 C307.2803 188.427 308.3452 191.0359 306 200.4167 C304.0117 208.3699 299.114 214.3027 296 217.4167 C295.4233 217.9933 290 216.4167 290 216.4167 "/>
<path id="6" d="M224 172.4167 C224 172.4167 220.5988 175.1713 220 177.4167 C219.013 181.1178 218.9549 184.4904 220 187.4167 C220.6047 189.1097 223.0294 190.8792 225 191.4167 C226.8529 191.922 230.8013 190.9134 231 190.4167 C231.8182 188.3712 231.8728 181.3625 231 176.4167 C230.78 175.1698 229.3114 173.8538 228 173.4167 C226.0329 172.761 222.675 173.1917 222 173.4167 C221.925 173.4417 222 175.4167 222 175.4167 "/>
<path id="7" d="M222 175.4167 C222 175.4167 214.4264 158.2781 210 142.4167 C208.7822 138.053 210 132.4167 210 132.4167 "/>
<path id="8" d="M228 135.4167 L228 178.4167 "/>
<path id="9" d="M225 191.4167 L222 214.4167 "/>
<path id="10" d="M226 189.4167 C226 189.4167 227.95 189.2799 228 189.4167 C231.1297 197.971 241 230.4167 241 230.4167 "/>
<path id="11" d="M223 231.4167 C223 231.4167 220.2498 230.3446 220 229.4167 C217.7686 221.1287 216 205.4167 216 205.4167 "/>
<path id="12" d="M226 207.4167 L223 227.4167 "/>
<path id="13" d="M230 176.4167 L270 159.4167 "/>
<path id="14" d="M226 183.4167 L277 185.4167 "/>
<path id="15" d="M220 176.4167 L191 174.4167 "/>
<path id="16" d="M227 182.4167 C227 182.4167 206.3805 190.8522 188 197.4167 C186.7569 197.8606 185.075 197.5667 185 197.4167 C184.7 196.8167 185 191.4167 185 191.4167 "/>
<path id="17" d="M191 177.4167 L192 177.4167 "/>
</g>
</g>
</svg>
