<?xml version="1.0" encoding="utf-8"?>
<!DOCTYPE svg PUBLIC "-//W3C//DTD SVG 1.1//EN" "http://www.w3.org/Graphics/SVG/1.1/DTD/svg11.dtd">
<svg viewBox="0 0 800 800" preserveAspectRatio="xMinYMin meet" xmlns="http://www.w3.org/2000/svg" version="1.1">
<g fill="none" stroke="black" stroke-linecap="round" stroke-linejoin="round" stroke-width="0.94566">
<g transform="translate(97.0372,87.52) scale(3.1724) translate(-200,-129.4167)">
<path id="0" d="M218 227.4167 C218 227.4167 216.8542 206.5133 218 187.4167 C218.2916 182.5566 218.6144 181.5914 221 177.4167 C226.1784 168.3545 226.5536 166.0121 234 159.4167 C242.6225 151.7796 244.8661 151.6744 256 146.4167 C262.2869 143.4479 263.1138 142.9905 270 142.4167 C292.1399 140.5717 299.4348 136.1643 316 141.4167 C332.1584 146.5401 338.8006 153.6644 352 168.4167 C361.6796 179.235 360.6766 183.183 367 198.4167 C371.5219 209.3103 372.5131 210.0793 374 221.4167 C376.3704 239.4912 377.8612 243.0298 375 259.4167 C372.9505 271.155 370.6776 274.1126 363 284.4167 C352.7366 298.1912 349.6769 303.6411 337 310.4167 C325.9831 316.305 320.9047 314.1741 305 315.4167 C289.2871 316.6442 288.2748 316.7449 273 315.4167 C266.1512 314.8211 264.6491 314.8061 259 311.4167 C243.5684 302.1577 241.434 300.9745 228 288.4167 C219.3778 280.3568 218.6089 278.388 213 268.4167 C210.3003 263.6173 210.3421 262.2325 210 256.4167 C209.3835 245.9369 210.0905 245.3313 211 234.4167 C211.5835 227.4149 210.7253 225.4209 213 220.4167 C214.7753 216.5109 221 212.4167 221 212.4167 "/>
<path id="1" d="M209 215.4167 C209 215.4167 207.7474 190.6552 211 173.4167 C211.9601 168.328 215.8976 168.1442 219 162.4167 C222.1783 156.5491 220.2651 153.7262 224 149.4167 C231.5848 140.665 234.509 139.4107 245 132.4167 C248.5691 130.0373 249.6861 129.5573 254 129.4167 C293.3558 128.1333 297.6057 126.7904 337 129.4167 C347.6634 130.1276 349.0396 132.3588 359 136.4167 C361.6571 137.4992 362.3645 138.0657 364 140.4167 C369.8288 148.7955 371.501 149.8527 375 159.4167 C378.5657 169.163 376.1514 170.7343 379 181.4167 C384.088 200.4968 388.3002 201.0091 391 219.4167 C393.5024 236.4786 392.6004 240.8143 390 256.4167 C389.1488 261.5242 385.5529 261.8003 383 267.4167 C380.7744 272.313 382.399 274.491 380 278.4167 C377.7776 282.0534 374.6128 281.4974 372 285.4167 C367.2686 292.5137 369.4505 296.9662 364 302.4167 C352.881 313.5357 348.7406 315.3764 334 323.4167 C328.44 326.4494 326.8968 326.1124 320 326.4167 C293.6473 327.5793 288.5555 327.9204 266 326.4167 C263.3824 326.2422 262.7713 323.2694 260 322.4167 C257.3171 321.5912 256.0834 323.1422 253 322.4167 C248.1805 321.2827 246.9748 321.3455 243 318.4167 C228.975 308.0824 225.6281 307.3777 215 294.4167 C206.7031 284.2984 206.0778 281.1937 202 268.4167 C199.0733 259.2464 199.7984 257.6962 200 247.4167 C200.289 232.6753 200.6299 231.9762 203 217.4167 C204.0612 210.8977 204.358 208.9081 207 204.4167 C208.2957 202.214 213 200.4167 213 200.4167 "/>
<path id="2" d="M288 228.4167 C288 228.4167 290.9809 224.6714 292 224.4167 C292.7134 224.2383 295.7382 225.6313 296 226.4167 C296.7854 228.7729 296.5872 235.5777 296 236.4167 C295.7122 236.8277 289.7392 236.7335 289 236.4167 C288.8642 236.3585 289 233.4167 289 233.4167 "/>
<path id="3" d="M289 230.4167 L293 237.4167 "/>
<path id="4" d="M221 241.4167 C221 241.4167 219.8552 231.0333 221 221.4167 C222.2934 210.5522 224.4338 210.3802 226 199.4167 C227.3889 189.6943 225.3982 188.3868 227 179.4167 C227.6918 175.5429 228.5974 174.6201 231 171.4167 C232.6927 169.1597 233.4254 168.2472 236 167.4167 C247.4339 163.7283 249.1775 163.2931 262 161.4167 C269.1559 160.3695 269.9895 162.293 277 161.4167 C281.3816 160.869 281.6498 158.7202 286 158.4167 C302.0606 157.2962 303.7606 157.0634 320 158.4167 C326.846 158.9872 329.743 158.7826 334 162.4167 C347.0692 173.5733 351.6362 177.6321 361 193.4167 C367.5215 204.4101 367.1686 207.6813 369 221.4167 C371.0162 236.5382 370.9322 239.8916 369 253.4167 C368.3444 258.0055 366.6336 259.264 363 263.4167 C356.537 270.803 353.7124 270.201 348 277.4167 C345.0932 281.0884 346.7414 283.3046 344 287.4167 C340.1765 293.1519 339.3756 294.9018 334 298.4167 C327.7705 302.4898 325.7708 303.5667 318 304.4167 C295.5551 306.8716 291.9559 307.1592 270 305.4167 C262.9092 304.8539 261.2961 303.3809 255 299.4167 C248.6542 295.4212 248.9665 292.499 243 288.4167 C240.4429 286.6671 238.1062 288.2701 236 286.4167 C227.4406 278.8844 221.7843 275.5787 218 266.4167 C214.3566 257.5959 216.0959 249.4573 217 240.4167 C217.1536 238.8808 221 236.4167 221 236.4167 "/>
<path id="5" d="M207 229.4167 C207 229.4167 210 204.4168 210 204.4167 C210 204.4166 209.5688 209.6918 210 211.4167 C210.0924 211.7863 211.8212 212.524 212 212.4167 C212.6898 212.0028 214.9925 208.4142 215 208.4167 C215.0075 208.4192 215 213.4167 215 213.4167 "/>
</g>
</g>
</svg>
