<?xml version="1.0" encoding="utf-8"?>
<!DOCTYPE svg PUBLIC "-//W3C//DTD SVG 1.1//EN" "http://www.w3.org/Graphics/SVG/1.1/DTD/svg11.dtd">
<svg viewBox="0 0 800 800" preserveAspectRatio="xMinYMin meet" xmlns="http://www.w3.org/2000/svg" version="1.1">
<g fill="none" stroke="black" stroke-linecap="round" stroke-linejoin="round" stroke-width="1.4689">
<g transform="translate(316.2635,87.52) scale(2.0424) translate(-229,-123)">
<path id="0" d="M252 164 C252 164 300.6169 165.0313 305 164 C305.0681 163.984 303.6383 152.114 303 152 C294.7351 150.5241 261.1398 152.2657 249 154 C248.3611 154.0913 247 158.4292 247 160 C247 160.5236 249 162 249 162 "/>
<path id="1" d="M250 163 C250 163 256.8212 162.7774 260 164 C261.3892 164.5343 262.8772 166.2803 263 168 C264.5177 189.2482 265.0555 194.6684 264 220 C263.5903 229.832 263.5415 231.5005 260 240 C256.6356 248.0745 253.3893 247.77 249 256 C245.6545 262.2729 245.0934 263.0297 244 270 C241.2288 287.6661 243.6063 288.7556 241 307 C237.1402 334.0184 234.3689 334.0488 231 361 C228.4238 381.6097 228.614 383.7014 229 403 C229.0741 406.707 229.7756 407.9811 232 411 C236.1622 416.6487 237.0827 418.0551 243 422 C249.6704 426.4469 251.7117 428.4974 259 429 C277.48 430.2745 298.9943 426.7589 301 426 C301.039 425.9853 296 415 296 415 "/>
<path id="2" d="M296 168 C296 168 293.9127 207.5767 298 243 C299.6383 257.1983 305.9995 257.6886 308 272 C312.2395 302.3289 311.3189 304.4288 311 336 C310.8253 353.2936 308.0162 353.5208 307 371 C305.5273 396.3304 307.2798 397.6843 306 422 C305.847 424.9079 305.1059 427.0323 304 428 C302.9513 428.9177 299.9922 429.3984 298 429 C296.42 428.684 294 426 294 426 "/>
<path id="3" d="M251 277 C251 277 253 290.0672 253 303 C253 342.7933 246.8761 373.9925 251 383 C252.1114 385.4275 283.2323 388.0263 291 386 C292.9634 385.4878 296.3884 378.0946 297 371 C298.6914 351.3796 295.2986 349.0426 296 328 C296.2792 319.6254 298.6514 319.3663 299 311 C299.6302 295.8755 299.1828 294.9816 298 280 C297.7276 276.5495 297.4598 275.4329 296 273 C295.0387 271.3978 293.6425 270.0699 292 270 C274.906 269.2726 252.7361 269.542 249 271 C248.6682 271.1295 251 286 251 286 "/>
<path id="4" d="M262 149 C262 149 261.7334 132.3574 264 127 C264.7746 125.1691 268.6874 124.0147 273 123 C276.4705 122.1834 277.1251 122.5695 281 123 C285.9512 123.5501 288.212 123.1414 291 125 C293.542 126.6947 295.1846 129.195 296 133 C297.8169 141.4788 297 153 297 153 "/>
</g>
</g>
</svg>
