<?xml version="1.0" encoding="utf-8"?>
<!DOCTYPE svg PUBLIC "-//W3C//DTD SVG 1.1//EN" "http://www.w3.org/Graphics/SVG/1.1/DTD/svg11.dtd">
<svg viewBox="0 0 800 800" preserveAspectRatio="xMinYMin meet" xmlns="http://www.w3.org/2000/svg" version="1.1">
<g fill="none" stroke="black" stroke-linecap="round" stroke-linejoin="round" stroke-width="1.2711">
<g transform="translate(313.8556,87.52) scale(2.3601) translate(-277,-127.2)">
<path id="0" d="M295 142.2 C295 142.2 291.2732 141.678 291 141.2 C290.5012 140.3271 290.0636 136.5109 291 135.2 C293.3632 131.8915 298.1207 127.6113 301 127.2 C303.6578 126.8203 310.6941 130.3717 312 132.2 C312.8416 133.3782 311.9138 140.6087 311 141.2 C308.684 142.6986 295 143.2 295 143.2 "/>
<path id="1" d="M293 141.2 L295 231.2 "/>
<path id="2" d="M312 139.2 L316 230.2 "/>
<path id="3" d="M295 232 C295 232 287.7177 230.2072 286 231 C284.5453 231.6714 282.7493 234.5034 282 238 C278.5601 254.0527 277.879 255.5948 277 273 C275.4041 304.5986 275.5179 305.2831 277 337 C278.0012 358.4256 278.5137 361.0188 282 380 C282.5346 382.9107 283.6123 383.9534 286 386 C289.9547 389.3897 291.4274 391.4036 296 392 C311.2665 393.9913 314.2541 392.4225 332 392 C334.9694 391.9293 335.8617 392.0691 338 391 C339.9738 390.0131 341.1758 389.1292 342 387 C346.4709 375.4501 349.8079 372.7718 350 360 C350.75 310.1238 349.8023 304.2862 344 254 C342.6383 242.1989 339.5521 240.7596 335 230 C334.5341 228.8987 333.807 228.1009 333 228 C327.9786 227.3723 319 228 319 228 "/>
</g>
</g>
</svg>
