<?xml version="1.0" encoding="utf-8"?>
<!DOCTYPE svg PUBLIC "-//W3C//DTD SVG 1.1//EN" "http://www.w3.org/Graphics/SVG/1.1/DTD/svg11.dtd">
<svg viewBox="0 0 800 800" preserveAspectRatio="xMinYMin meet" xmlns="http://www.w3.org/2000/svg" version="1.1">
<g fill="none" stroke="black" stroke-linecap="round" stroke-linejoin="round" stroke-width="1.7905">
<g transform="translate(278.5265,87.52) scale(1.6755) translate(-211,-56.1333)">
<path id="0" d="M214 234.1333 C214 234.1333 216.927 294.876 216 355.1333 C215.4323 392.0326 207.7903 425.7261 211 429.1333 C213.823 432.13 246.0835 425.1032 281 424.1333 C317.8248 423.1104 353.0375 428.8228 355 425.1333 C362.2916 411.4252 357.6585 353.787 356 283.1333 C355.1689 247.7306 354.3811 226.4195 350 212.1333 C349.4458 210.3263 336.766 211.8993 333 208.1333 C323.854 198.9874 323.9908 191.1195 314 176.1333 C311.3905 172.219 310.7805 171.521 307 169.1333 C301.9826 165.9644 295.3063 165.8297 295 164.1333 C292.1288 148.2313 295.6802 128.6366 294 97.1333 C293.7955 93.2996 291.5831 93.1181 291 89.1333 C288.6894 73.344 290.4796 58.7782 288 56.1333 C286.3167 54.3378 263.3293 54.5923 261 57.1333 C257.3364 61.1299 257.0484 74.6085 255 92.1333 C252.5701 112.9222 252.573 113.2205 252 134.1333 C251.5783 149.5252 255.187 161.306 253 165.1333 C251.85 167.1458 240.7003 165.7655 232 169.1333 C226.9466 171.0895 226.2317 172.6789 222 177.1333 C217.0307 182.3642 216.4893 183.1063 213 189.1333 C211.346 191.9902 211.058 192.7703 211 196.1333 C210.5798 220.507 212 247.1333 212 247.1333 "/>
</g>
</g>
</svg>
