<?xml version="1.0" encoding="utf-8"?>
<!DOCTYPE svg PUBLIC "-//W3C//DTD SVG 1.1//EN" "http://www.w3.org/Graphics/SVG/1.1/DTD/svg11.dtd">
<svg viewBox="0 0 800 800" preserveAspectRatio="xMinYMin meet" xmlns="http://www.w3.org/2000/svg" version="1.1">
<g fill="none" stroke="black" stroke-linecap="round" stroke-linejoin="round" stroke-width="1.7377">
<g transform="translate(305.9107,87.52) scale(1.7264) translate(-201,-16)">
<path id="0" d="M233 42 L232 94 "/>
<path id="1" d="M262 46 L265 92 "/>
<path id="2" d="M233 93 C233 93 231.7259 98.2519 229 102 C220.1774 114.1311 217.1496 113.6246 209 126 C204.2621 133.1946 202 143 202 143 "/>
<path id="3" d="M266 92 C266 92 264.8965 96.3447 266 98 C275.2574 111.8861 281.0611 114.5916 292 131 C295.1875 135.7812 296 143 296 143 "/>
<path id="4" d="M202 142 C202 142 204.4348 238.205 204 333 C203.9385 346.4078 201 348.1977 201 360 C201 363.0599 201.9472 365.2038 204 367 C208.3025 370.7647 210.8763 372.7392 217 374 C225.905 375.8334 227.8 373.0049 238 374 C247.9038 374.9662 248.1072 377.3513 258 378 C278.0178 379.3126 281.8897 380.3033 299 378 C303.9838 377.3291 310 371 310 371 "/>
<path id="5" d="M296 150 C296 150 297.122 163.3771 296 176 C295.1647 185.3971 292.1527 185.6851 292 195 C290.6866 275.1176 294.7351 280.4867 293 359 C292.8189 367.1926 288 376 288 376 "/>
<path id="6" d="M294 367 L295 368 "/>
<path id="7" d="M206 236 C206 236 214.5171 224.1639 224 218 C232.6847 212.3549 235.3487 212.4346 246 210 C251.811 208.6718 252.9301 208.9883 259 210 C267.3267 211.3878 268.3881 211.6169 276 215 C281.192 217.3075 282.0358 218.0358 286 222 C289.4978 225.4978 292 231 292 231 "/>
<path id="8" d="M207 273 C207 273 220.8228 281.2737 234 284 C248.0464 286.9061 251.7999 287.3294 265 285 C274.3207 283.3552 276.0615 280.628 285 275 C288.8776 272.5586 289.7409 271.3887 292 268 C293.0973 266.3541 293 263 293 263 "/>
<path id="9" d="M219 237 C219 237 222.9911 244.9933 223 245 C223.0033 245.0025 223 240 223 240 "/>
<path id="10" d="M226 232 L232 239 "/>
<path id="11" d="M241 231 L242 233 "/>
<path id="12" d="M250 234 L256 227 "/>
<path id="13" d="M266 233 L267 232 "/>
<path id="14" d="M225 256 C225 256 227.4775 255.5521 228 256 C229.5924 257.3649 232 262 232 262 "/>
<path id="15" d="M234 262 L237 266 "/>
<path id="16" d="M241 264 L246 268 "/>
<path id="17" d="M253 263 L257 265 "/>
<path id="18" d="M265 260 L267 260 "/>
<path id="19" d="M271 258 L272 258 "/>
<path id="20" d="M246 122 L236 139 "/>
<path id="21" d="M247 123 L270 145 "/>
<path id="22" d="M241 132 C241 132 236.0269 141.6355 235 146 C234.8315 146.7163 235.7489 148.147 237 149 C245.7155 154.9424 254.7805 161.0822 257 161 C257.8491 160.9686 264 148 264 148 "/>
<path id="23" d="M267 143 C267 143 270.5139 143.8287 273 143 C282.9444 139.6852 294 134 294 134 "/>
<path id="24" d="M239 147 L213 137 "/>
<path id="25" d="M235 51 C235 51 259.493 51.3521 264 50 C264.523 49.8431 265.3506 45.6815 265 42 C264.4107 35.8125 262 29 262 29 "/>
<path id="26" d="M238 48 C238 48 230.1848 43.6634 230 42 C229.4515 37.0636 235 21 235 21 "/>
<path id="27" d="M232 19 L234 41 "/>
<path id="28" d="M232 20 C232 20 234.8402 16.2979 237 16 C246.3368 14.7122 257.8612 13.8353 261 16 C263.4578 17.695 264.7368 26.1473 266 36 C267.1627 45.0694 266 55 266 55 "/>
<path id="29" d="M205 139 C205 139 214.288 141.2982 222 145 C226.2206 147.0259 230 151 230 151 "/>
<path id="30" d="M273 149 C273 149 275.9167 149.0196 277 148 C282.9452 142.4045 290 133 290 133 "/>
</g>
</g>
</svg>
