<?xml version="1.0" encoding="utf-8"?>
<!DOCTYPE svg PUBLIC "-//W3C//DTD SVG 1.1//EN" "http://www.w3.org/Graphics/SVG/1.1/DTD/svg11.dtd">
<svg viewBox="0 0 800 800" preserveAspectRatio="xMinYMin meet" xmlns="http://www.w3.org/2000/svg" version="1.1">
<g fill="none" stroke="black" stroke-linecap="round" stroke-linejoin="round" stroke-width="0.79685">
<g transform="translate(305.8795,87.52) scale(3.7648) translate(-266,-145.4167)">
<path id="0" d="M282 146.4167 C282 146.4167 279.8012 155.6698 280 164.4167 C280.2886 177.1162 285.0819 183.0352 283 190.4167 C281.5972 195.3903 274.9449 196.7724 269 203.4167 C266.9775 205.6771 266.026 206.739 266 209.4167 C265.5818 252.4877 265.1752 277.6035 268 306.4167 C268.1681 308.1314 272.3629 310.9252 276 311.4167 C288.1577 313.0596 291.0955 312.1891 305 311.4167 C308.4095 311.2273 310.1845 310.5514 312 309.4167 C312.6327 309.0212 313.0129 307.8273 313 306.4167 C312.5413 256.4134 315.9032 236.5777 311 200.4167 C310.3588 195.6875 297 188.4167 297 188.4167 "/>
<path id="1" d="M297 188.4167 C297 188.4167 293.1739 186.5468 293 185.4167 C291.8939 178.2268 294.3146 172.2761 293 162.4167 C292.5694 159.1874 289.5428 158.4925 289 155.4167 C288.308 151.4956 290.4204 146.1173 290 145.4167 C289.8122 145.1036 283 145.4167 283 145.4167 "/>
<path id="2" d="M282 153.4167 L292 152.4167 "/>
<path id="3" d="M266 235.4167 C266 235.4167 282.7689 236.9056 292 235.4167 C294.0615 235.0842 294.3974 231.5321 297 230.4167 C303.4544 227.6505 307.0768 228.9106 313 226.4167 C314.5689 225.7561 316 222.4167 316 222.4167 "/>
<path id="4" d="M267 267.4167 C267 267.4167 283.2896 270.9484 291 270.4167 C292.732 270.2972 293.4368 266.4197 296 265.4167 C303.2091 262.5957 314 261.4167 314 261.4167 "/>
</g>
</g>
</svg>
