<?xml version="1.0" encoding="utf-8"?>
<!DOCTYPE svg PUBLIC "-//W3C//DTD SVG 1.1//EN" "http://www.w3.org/Graphics/SVG/1.1/DTD/svg11.dtd">
<svg viewBox="0 0 800 800" preserveAspectRatio="xMinYMin meet" xmlns="http://www.w3.org/2000/svg" version="1.1">
<g fill="none" stroke="black" stroke-linecap="round" stroke-linejoin="round" stroke-width="0.57124">
<g transform="translate(87.52,87.52) scale(5.2518) translate(-190,-202.1333)">
<path id="0" d="M197 204.1333 C197 204.1333 204.0739 203.3681 210 205.1333 C249.6811 216.9532 251.4711 217.7218 291 232.1333 C298.7961 234.9757 302.4725 237.3114 306 240.1333 C306.5275 240.5553 306.6428 243.0619 306 244.1333 C304.4572 246.7047 302.2016 249.6698 300 250.1333 C296.1871 250.9361 292.899 250.2226 287 248.1333 C269.6525 241.9894 269.823 239.3806 252 233.1333 C221.6027 222.4786 200.3665 219.0617 190 214.1333 C189.4521 213.8729 189.9122 206.7441 191 204.1333 C191.3829 203.2144 195 202.1333 195 202.1333 "/>
<path id="1" d="M191 209.1333 C191 209.1333 187.8576 275.1148 191 283.1333 C191.4826 284.3648 207.4753 279.607 220 283.1333 C255.4859 293.1245 259.0105 300.0536 294 312.1333 C298.1648 313.5712 303.8313 312.6171 304 312.1333 C306.1644 305.9287 307.4248 290.5565 309 269.1333 C309.9081 256.7836 309 244.1333 309 244.1333 "/>
<path id="2" d="M229 208.1333 C229 208.1333 231.4227 206.1333 233 206.1333 C236.5489 206.1333 239.8941 206.3082 242 208.1333 C245.0477 210.7747 248 219.1333 248 219.1333 "/>
<path id="3" d="M194 286.1333 C194 286.1333 189.9335 295.0873 190 295.1333 C190.5066 295.4841 207 295.1333 207 295.1333 C207 295.1333 205.0147 295.1922 205 295.1333 C204.7647 294.1922 204.7647 288.0745 205 287.1333 C205.0147 287.0745 207 287.1333 207 287.1333 "/>
<path id="4" d="M278 309.1333 C278 309.1333 274.645 316.5248 275 317.1333 C275.5585 318.0907 280.1762 320.0614 285 321.1333 C288.544 321.9209 292.945 321.202 293 321.1333 C293.0155 321.114 289.8218 318.3933 289 316.1333 C288.2361 314.0325 289 310.1333 289 310.1333 "/>
</g>
</g>
</svg>
