<?xml version="1.0" encoding="utf-8"?>
<!DOCTYPE svg PUBLIC "-//W3C//DTD SVG 1.1//EN" "http://www.w3.org/Graphics/SVG/1.1/DTD/svg11.dtd">
<svg viewBox="0 0 800 800" preserveAspectRatio="xMinYMin meet" xmlns="http://www.w3.org/2000/svg" version="1.1">
<g fill="none" stroke="black" stroke-linecap="round" stroke-linejoin="round" stroke-width="1.4401">
<g transform="translate(87.52,177.0976) scale(2.0832) translate(-169,-125)">
<path id="0" d="M217 207 C217 207 214.2813 276.733 217 328 C217.2555 332.8179 221.7913 338.9004 224 339 C293.8319 342.1482 389.565 342.4989 461 339 C463.5885 338.8732 468.7149 332.2029 469 327 C472.0713 270.9485 470.3262 255.7739 469 193 C468.9202 189.2226 467.905 187.9936 466 185 C464.9339 183.3247 463.8612 182.2863 462 182 C447.2068 179.7241 444.4266 179.0732 427 179 C325.9666 178.5755 224 181 224 181 "/>
<path id="1" d="M224 181 C224 181 220.5746 181.6003 219 183 C216.8316 184.9274 215.3721 186.3025 215 189 C213.6939 198.4695 215 212 215 212 "/>
<path id="2" d="M182 153 C182 153 170.2339 157.6999 170 160 C166.8415 191.0589 170 271 170 271 "/>
<path id="3" d="M220 338 C220 338 205.1735 328.9718 196 322 C195.1679 321.3676 195.7129 319.4277 195 319 C190.5189 316.3114 186.4817 317.0058 181 313 C174.5894 308.3154 170.2481 305.6163 169 300 C165.7338 285.3019 169 259 169 259 "/>
<path id="4" d="M183 153 C183 153 197.096 149.2897 211 149 C315.9713 146.8131 320.5867 145.821 423 148 C434.1737 148.2377 435.0307 150.2391 446 154 C452.1538 156.1099 454.3574 156.184 458 160 C463.1318 165.3762 464.2268 168.2351 467 176 C468.7835 180.9938 468 188 468 188 "/>
<path id="5" d="M192 156 C192 156 184.3048 161.364 180 166 C178.9965 167.0807 179 170 179 170 "/>
<path id="6" d="M196 164 C196 164 191.538 165.0137 191 166 C189.9137 167.9916 190 175 190 175 "/>
<path id="7" d="M205 169 C205 169 200.7457 169.0886 200 170 C198.0559 172.3761 196 180 196 180 "/>
<path id="8" d="M214 175 C214 175 208.0272 176.4022 207 178 C205.3174 180.6174 205 189 205 189 "/>
<path id="9" d="M287 161 C287 161 286.9118 163.9779 287 164 C288.4118 164.3529 298.2399 164.2764 299 164 C299.0288 163.9895 298.4184 160.1521 298 160 C296.2955 159.3802 288 160 288 160 "/>
<path id="10" d="M362 160 C362 160 361.8679 163.9623 362 164 C363.6179 164.4623 375.2232 164.1793 376 164 C376.0171 163.9961 375.4568 161.1427 375 161 C371.3163 159.8488 360 159 360 159 "/>
<path id="11" d="M291 160 C291 160 293.5466 136.0579 297 128 C297.685 126.4017 301.6659 125.2242 306 125 C329.1968 123.8002 345.6359 119.7504 355 125 C362.2127 129.0435 372 162 372 162 "/>
<path id="12" d="M306 137 C306 137 303.1402 138.2521 303 139 C302.2338 143.0863 304.2282 146.859 303 153 C301.9473 158.2637 298 164 298 164 "/>
<path id="13" d="M309 138 C309 138 313.6599 133.7595 318 133 C331.7785 130.5888 341.6851 130.1394 349 131 C349.8811 131.1037 350.068 135.068 352 137 C354.7907 139.7907 358.9024 139.4672 360 142 C363.5217 150.1271 365 167 365 167 "/>
</g>
</g>
</svg>
