<?xml version="1.0" encoding="utf-8"?>
<!DOCTYPE svg PUBLIC "-//W3C//DTD SVG 1.1//EN" "http://www.w3.org/Graphics/SVG/1.1/DTD/svg11.dtd">
<svg viewBox="0 0 800 800" preserveAspectRatio="xMinYMin meet" xmlns="http://www.w3.org/2000/svg" version="1.1">
<g fill="none" stroke="black" stroke-linecap="round" stroke-linejoin="round" stroke-width="0.88326">
<g transform="translate(87.52,119.787) scale(3.3965) translate(-116,-101.4167)">
<path id="0" d="M116 150.4167 C116 150.4167 119.5564 170.4957 121 190.4167 C122.0372 204.7298 120.2026 205.0641 121 219.4167 C121.692 231.8721 121.581 232.6671 124 244.4167 C124.9276 248.9222 125.7635 252.2186 128 253.4167 C134.8996 257.1129 140.1 258.5013 152 259.4167 C203.7163 263.3949 206.1944 260.3435 258 263.4167 C263.9385 263.769 264.0923 265.845 270 266.4167 C279.1329 267.3005 280.6595 267.6523 289 266.4167 C292.7719 265.8579 294.6679 264.7488 297 262.4167 C298.9435 260.4732 299.9423 258.6502 300 255.4167 C300.8594 207.2902 305.001 181.7261 299 150.4167 C297.9037 144.697 288.2959 140.8191 277 135.4167 C266.4111 130.3524 264.755 129.3209 253 128.4167 C214.6396 125.4659 212.6174 127.004 173 127.4167 C165.0652 127.4993 164.9776 128.277 157 129.4167 C136.986 132.2758 122.3509 131.7624 117 135.4167 C115.0556 136.7446 116 157.4167 116 157.4167 "/>
<path id="1" d="M169 127.4167 C169 127.4167 167.6942 113.8857 169 112.4167 C170.4993 110.73 177.0705 110.0114 185 109.4167 C196.7294 108.537 206.4994 107.6855 209 109.4167 C210.5068 110.4598 211 127.4167 211 127.4167 "/>
<path id="2" d="M221 127.4167 C221 127.4167 219.3038 102.6391 217 101.4167 C211.1745 98.3256 192.4901 99.8989 172 101.4167 C167.7671 101.7302 163.4963 103.8726 163 105.4167 C161.2719 110.7929 163 129.4167 163 129.4167 "/>
</g>
</g>
</svg>
