<?xml version="1.0" encoding="utf-8"?>
<!DOCTYPE svg PUBLIC "-//W3C//DTD SVG 1.1//EN" "http://www.w3.org/Graphics/SVG/1.1/DTD/svg11.dtd">
<svg viewBox="0 0 800 800" preserveAspectRatio="xMinYMin meet" xmlns="http://www.w3.org/2000/svg" version="1.1">
<g fill="none" stroke="black" stroke-linecap="round" stroke-linejoin="round" stroke-width="1.1857">
<g transform="translate(87.52,136.8589) scale(2.5302) translate(-197,-120)">
<path id="0" d="M220 182 C220 182 319.9117 184.9887 410 182 C420.0672 181.666 431 175 431 175 "/>
<path id="1" d="M222 182 C222 182 219.7577 189.9729 220 197 C220.2289 203.6376 222.8388 204.1239 223 211 C224.3057 266.7112 223 325 223 325 "/>
<path id="2" d="M225 325 C225 325 365.3442 324.5112 427 323 C427.6327 322.9845 428.1613 320.3594 429 320 C430.2763 319.453 434 320 434 320 "/>
<path id="3" d="M432 174 C432 174 434.8529 176.7353 435 179 C437.0419 210.4451 434.6483 215.2026 437 251 C439.1341 283.4864 440.898 283.6503 444 316 C444.3779 319.9408 444.4435 322.0041 444 324 C443.9199 324.3604 442.2332 325.1333 442 325 C440.7173 324.267 439.165 321.2028 437 320 C435.8866 319.3814 433 320 433 320 "/>
<path id="4" d="M222 326 C222 326 206.8039 329.1529 202 328 C200.297 327.5913 197.308 323.5726 197 320 C195.1735 298.8131 195.4092 294.6581 197 270 C198.3804 248.6032 201.6357 248.4386 203 227 C205.109 193.8582 198.9562 165.7643 204 160 C208.4029 154.9682 239.7284 158.1844 266 155 C267.8311 154.778 268.3275 152.0772 270 152 C294.6525 150.8622 300.9172 150.6169 331 152 C343.9129 152.5937 344.0833 155.3376 357 156 C382.6311 157.3144 390.0836 155.2994 409 156 C409.7545 156.0279 410.3302 158 411 158 C418.0334 158 425.2148 154.9948 432 156 C434.2577 156.3345 437.012 159.3652 438 162 C439.1976 165.1937 438 172 438 172 "/>
<path id="5" d="M433 181 L435 166 "/>
<path id="6" d="M285 167 C285 167 282.2804 162.8317 282 159 C280.8744 143.6162 279.2809 131.8914 282 126 C283.1789 123.4457 291.4356 120.4894 300 120 C324.2257 118.6157 341.3423 118.6344 352 122 C354.0356 122.6428 355.7604 130.0311 357 138 C359.1656 151.9219 359 167 359 167 "/>
</g>
</g>
</svg>
