<?xml version="1.0" encoding="utf-8"?>
<!DOCTYPE svg PUBLIC "-//W3C//DTD SVG 1.1//EN" "http://www.w3.org/Graphics/SVG/1.1/DTD/svg11.dtd">
<svg viewBox="0 0 800 800" preserveAspectRatio="xMinYMin meet" xmlns="http://www.w3.org/2000/svg" version="1.1">
<g fill="none" stroke="black" stroke-linecap="round" stroke-linejoin="round" stroke-width="1.7905">
<g transform="translate(87.52,211.5067) scale(1.6755) translate(-106,-95.4167)">
<path id="0" d="M117 159.4167 C117 159.4167 117.8523 221.0906 114 280.4167 C112.9366 296.793 106.8485 313.3934 107 313.4167 C125.4293 316.2457 227.7891 312.6865 342 315.4167 C349.8209 315.6036 350.1346 319.0112 358 319.4167 C397.3369 321.4443 437.3401 324.0965 439 320.4167 C447.6832 301.1671 446.9723 156.2633 441 135.4167 C440.4897 133.6356 413.1612 136.7256 386 135.4167 C372.0773 134.7457 371.9235 131.8601 358 131.4167 C294.1272 129.3825 293.3984 132.1572 229 130.4167 C182.5155 129.1603 182.2902 128.8038 136 125.4167 C120.9811 124.3177 106.3165 120.8411 106 121.4167 C104.9972 123.24 114 165.4167 114 165.4167 "/>
<path id="1" d="M111 119.4167 C111 119.4167 118.436 116.0027 123 112.4167 C124.3413 111.3628 125 108.4167 125 108.4167 "/>
<path id="2" d="M151 126.4167 C151 126.4167 150.8235 138.5763 152 139.4167 C154.4509 141.1673 170.2572 142.0266 172 141.4167 C172.2844 141.3171 172 132.4167 172 132.4167 "/>
<path id="3" d="M154 124.4167 C154 124.4167 159.1086 117.6056 163 115.4167 C164.937 114.3271 167.0185 114.7286 170 115.4167 C172.8504 116.0745 175.8276 117.7269 176 118.4167 C176.3161 119.6812 173 127.4167 173 127.4167 "/>
<path id="4" d="M348 132.4167 C348 132.4167 347.5648 141.2105 348 141.4167 C349.9398 142.3355 364.9088 142.1871 367 141.4167 C367.2838 141.3121 367 134.4167 367 134.4167 "/>
<path id="5" d="M349 129.4167 C349 129.4167 355.8579 122.3241 361 121.4167 C369.2996 119.952 382.9646 123.3941 383 123.4167 C383.0119 123.4242 372 128.4167 372 128.4167 "/>
<path id="6" d="M370 129.4167 L367 131.4167 "/>
<path id="7" d="M192 122.4167 C192 122.4167 193.8311 115.4341 197 110.4167 C199.3877 106.6362 200.2243 105.2436 204 103.4167 C214.1311 98.5145 216.6185 96.0708 228 95.4167 C257.2347 93.7365 262.8494 94.1941 291 98.4167 C299.1413 99.6379 304.0854 103.09 308 107.4167 C310.2173 109.8673 310.4943 118.9577 310 119.4167 C309.0848 120.2665 296.3664 121.3369 294 120.4167 C293.2252 120.1154 293.4779 113.484 292 112.4167 C288.2736 109.7254 283.7658 107.9414 276 107.4167 C248.4309 105.5539 237.6654 103.3197 218 107.4167 C212.1936 108.6263 209.0906 119.7696 204 122.4167 C201.6742 123.6261 193 120.4167 193 120.4167 "/>
<path id="8" d="M121 106.4167 C121 106.4167 123.0873 101.5324 125 100.4167 C127.189 99.1398 129.044 99.4167 133 99.4167 C153.2743 99.4167 153.8075 98.8391 174 100.4167 C185.4596 101.3119 197 104.4167 197 104.4167 "/>
<path id="9" d="M302 104.4167 C302 104.4167 464.2864 104.0106 467 104.4167 C467.2419 104.4529 458.5656 116.5322 449 126.4167 C443.998 131.5854 437 135.4167 437 135.4167 "/>
<path id="10" d="M467 108.4167 C467 108.4167 464.448 152.3851 468 194.4167 C470.349 222.2131 475.3714 222.7076 479 250.4167 C480.7688 263.9238 480.5931 265.672 479 278.4167 C478.2817 284.1631 477.7432 286.6734 474 290.4167 C460.128 304.2886 439 318.4167 439 318.4167 "/>
</g>
</g>
</svg>
