<?xml version="1.0" encoding="utf-8"?>
<!DOCTYPE svg PUBLIC "-//W3C//DTD SVG 1.1//EN" "http://www.w3.org/Graphics/SVG/1.1/DTD/svg11.dtd">
<svg viewBox="0 0 800 800" preserveAspectRatio="xMinYMin meet" xmlns="http://www.w3.org/2000/svg" version="1.1">
<g fill="none" stroke="black" stroke-linecap="round" stroke-linejoin="round" stroke-width="1.0033">
<g transform="translate(254.9734,87.52) scale(2.9902) translate(-246,-92)">
<path id="0" d="M247 98 C247 98 251 133.2933 251 168 C251 195.2696 248.0333 195.5129 247 223 C245.5378 261.8942 244.0286 291.9546 246 301 C246.0994 301.4562 263.1397 302.512 264 301 C269.589 291.177 273.8636 272.0205 279 243 C283.7325 216.2617 283.0853 215.4397 284 188 C285.5751 140.7474 286.9226 104.1059 284 93 C283.7976 92.2309 270.7751 91.961 259 93 C254.6363 93.385 250 96 250 96 "/>
<path id="1" d="M281 93 C281 93 303.9714 91.2894 326 92 C334.3753 92.2702 342.6554 93.7634 343 95 C345.5832 104.269 346.5952 148.9113 343 153 C340.2202 156.1613 292 153 292 153 "/>
<path id="2" d="M262 236 C262 236 271.8107 238.1893 272 238 C272.1893 237.8107 270.2339 228.2729 270 228 C269.9914 227.99 266.5343 229.6108 266 231 C264.7774 234.1788 265 241 265 241 "/>
<path id="3" d="M264 258 C264 258 262 260.0232 262 261 C262 262.9536 263.7434 266.943 264 267 C264.4704 267.1045 270.0926 264.6852 271 263 C272.0512 261.0478 271.4175 254.9394 271 254 C270.9175 253.8144 267.1951 253.7561 267 254 C266.6951 254.3811 267 259 267 259 "/>
</g>
</g>
</svg>
