<?xml version="1.0" encoding="utf-8"?>
<!DOCTYPE svg PUBLIC "-//W3C//DTD SVG 1.1//EN" "http://www.w3.org/Graphics/SVG/1.1/DTD/svg11.dtd">
<svg viewBox="0 0 800 800" preserveAspectRatio="xMinYMin meet" xmlns="http://www.w3.org/2000/svg" version="1.1">
<g fill="none" stroke="black" stroke-linecap="round" stroke-linejoin="round" stroke-width="0.98406">
<g transform="translate(87.52,264.338) scale(3.0486) translate(-206,-180.1333)">
<path id="0" d="M252 203.1333 C252 203.1333 303.6932 224.5853 356 242.1333 C380.7324 250.4307 407 255.1333 407 255.1333 "/>
<path id="1" d="M250 208.1333 C250 208.1333 254.0433 213.6157 259 217.1333 C269.0588 224.2718 269.6074 225.9361 281 230.1333 C306.3143 239.4597 308.6288 236.5712 335 245.1333 C346.7574 248.9507 346.2739 250.9947 358 255.1333 C380.0742 262.9242 381.3034 263.1774 403 269.1333 C405.6653 269.865 407.9857 269.7673 409 269.1333 C409.8664 268.5918 410.5979 266.5457 411 264.1333 C411.5277 260.9671 411.6986 258.3908 411 257.1333 C410.5232 256.275 406 255.1333 406 255.1333 "/>
<path id="2" d="M255 193.1333 C255 193.1333 255.3274 199.9441 253 204.1333 C246.2741 216.2399 235 229.1333 235 229.1333 "/>
<path id="3" d="M254 193.1333 C254 193.1333 250.6489 193.9936 249 193.1333 C240.9992 188.959 231 181.1333 231 181.1333 "/>
<path id="4" d="M229 180.1333 C229 180.1333 224.5951 182.4216 223 185.1333 C220.3158 189.6965 221.8318 191.8238 219 197.1333 C214.1112 206.2999 207 215.1333 207 215.1333 "/>
<path id="5" d="M206 217.1333 L232 230.1333 "/>
<path id="6" d="M221 187.1333 C221 187.1333 211.499 185.9116 211 186.1333 C210.9362 186.1617 211.1911 190.4256 212 191.1333 C213.3168 192.2855 219 193.1333 219 193.1333 "/>
</g>
</g>
</svg>
