<?xml version="1.0" encoding="utf-8"?>
<!DOCTYPE svg PUBLIC "-//W3C//DTD SVG 1.1//EN" "http://www.w3.org/Graphics/SVG/1.1/DTD/svg11.dtd">
<svg viewBox="0 0 800 800" preserveAspectRatio="xMinYMin meet" xmlns="http://www.w3.org/2000/svg" version="1.1">
<g fill="none" stroke="black" stroke-linecap="round" stroke-linejoin="round" stroke-width="1.3398">
<g transform="translate(291.3989,87.52) scale(2.2392) translate(-238,-89.0333)">
<path id="0" d="M244 202.1333 C244 202.1333 242.6541 278.3515 244 350.1333 C244.1096 355.9808 244.7715 357.3977 247 362.1333 C248.2218 364.7296 249.7527 366.5471 252 367.1333 C258.5095 368.8315 263.9912 369.1783 270 368.1333 C271.9785 367.7892 273.8199 365.7559 275 363.1333 C277.7347 357.0563 278.716 355.4463 279 348.1333 C280.649 305.6705 280.2437 303.9734 279 260.1333 C278.2494 233.6731 277.202 233.5575 275 207.1333 C274.7075 203.6239 274.3646 200.2115 274 200.1333 C270.0935 199.2962 247 201.1333 247 201.1333 "/>
<path id="1" d="M238 119.1333 L240 204.1333 "/>
<path id="2" d="M239 202.1333 C239 202.1333 246.8362 196.6082 254 195.1333 C262.2787 193.4289 264.1722 193.8351 273 195.1333 C280.311 196.2085 288 200.1333 288 200.1333 "/>
<path id="3" d="M239 118.0333 C239 118.0333 253.8664 123.136 268 124.0333 C284.2944 125.0679 289.2682 126.4316 302 122.0333 C311.8624 118.6263 313.7856 114.2477 323 105.0333 C329.7895 98.2438 334.994 88.9618 335 89.0333 C335.0588 89.7385 334.0086 236.8671 334 237.0333 C333.9993 237.0476 331.7367 229.7482 328 224.0333 C323.5415 217.2144 322.9947 216.5067 317 211.0333 C311.9399 206.4132 310.7712 205.111 305 203.0333 C299.8183 201.1679 292 202.0333 292 202.0333 "/>
<path id="4" d="M286 201.0333 L293 201.0333 "/>
</g>
</g>
</svg>
