<?xml version="1.0" encoding="utf-8"?>
<!DOCTYPE svg PUBLIC "-//W3C//DTD SVG 1.1//EN" "http://www.w3.org/Graphics/SVG/1.1/DTD/svg11.dtd">
<svg viewBox="0 0 800 800" preserveAspectRatio="xMinYMin meet" xmlns="http://www.w3.org/2000/svg" version="1.1">
<g fill="none" stroke="black" stroke-linecap="round" stroke-linejoin="round" stroke-width="1.5361">
<g transform="translate(87.52,193.9585) scale(1.953) translate(-173,-101)">
<path id="0" d="M175 298 C175 298 175.8645 305.0103 178 308 C179.5828 310.2159 184.9916 312.0274 185 312 C185.0734 311.7614 184.4204 302.5636 182 295 C180.7063 290.9571 177.5366 287.2385 177 287 C176.8606 286.9381 173.2591 289.4455 173 291 C172.232 295.6078 174 305 174 305 "/>
<path id="1" d="M177 289 C177 289 180.2062 282.2708 185 278 C206.7751 258.6003 207.6775 257.5796 232 240 C257.9006 221.2797 259.7846 223.2818 286 205 C297.5525 196.9436 296.4913 194.9857 308 187 C320.7141 178.178 335 171 335 171 "/>
<path id="2" d="M187 309 C187 309 205.6927 291.395 226 277 C244.7696 263.695 247.1023 266.083 266 253 C279.1976 243.8632 277.9731 241.6944 291 232 C320.8193 209.8089 322.2848 211.2864 352 189 C366.1008 178.4244 366.6575 177.9899 379 166 C383.674 161.4595 387 155 387 155 "/>
<path id="3" d="M334 172 C334 172 338.4588 173.5127 339 173 C343.2734 168.9515 344.9669 160.8282 353 154 C363.3245 145.2242 375.5264 138.3538 379 139 C382.1847 139.5925 386.7425 151.4567 396 162 C404.4657 171.6415 406.7742 170.259 415 180 C425.4003 192.3162 432.6458 206.5035 434 207 C434.2405 207.0882 438.4765 197.6421 445 191 C465.2528 170.379 489 151 489 151 "/>
<path id="4" d="M378 142 C378 142 380.8753 136.4204 385 133 C400.6083 120.0565 401.7323 118.0467 419 108 C427.9184 102.8111 435.352 99.246 440 101 C450.6814 105.0307 457.7164 113.4469 472 128 C483.6434 139.8631 493 155 493 155 "/>
<path id="5" d="M378 140 L332 172 "/>
</g>
</g>
</svg>
