<?xml version="1.0" encoding="utf-8"?>
<!DOCTYPE svg PUBLIC "-//W3C//DTD SVG 1.1//EN" "http://www.w3.org/Graphics/SVG/1.1/DTD/svg11.dtd">
<svg viewBox="0 0 800 800" preserveAspectRatio="xMinYMin meet" xmlns="http://www.w3.org/2000/svg" version="1.1">
<g fill="none" stroke="black" stroke-linecap="round" stroke-linejoin="round" stroke-width="2.2273">
<g transform="translate(87.52,247.1272) scale(1.3469) translate(-105,-109)">
<path id="0" d="M130 241 C130 241 122.4717 247.036 117 254 C111.7977 260.6211 112.1464 261.3982 108 269 C106.2013 272.2976 105.5933 272.6382 105 276 C104.2121 280.4649 103.3401 282.5929 105 286 C111.35 299.0343 113.998 301.664 124 315 C127.0064 319.0085 129.4267 318.1401 132 322 C135.7556 327.6334 135.4896 333.8034 138 336 C139.3756 337.2036 143.6829 337.0279 148 336 C153.2628 334.747 153.8648 333.9344 159 331 C164.1881 328.0354 166.5214 326.7264 169 324 C169.6161 323.3222 169 320 169 320 "/>
<path id="1" d="M131 241 C131 241 134.5429 240.2714 136 241 C138.1857 242.0928 139.5814 243.3205 141 246 C143.6189 250.9468 142.0919 252.6684 145 258 C156.7257 279.4972 163.2572 281.7978 171 301 C173.6922 307.6768 170 320 170 320 "/>
<path id="2" d="M126 276 C126 276 123.7188 286.0118 126 292 C130.576 304.0121 142 318 142 318 "/>
<path id="3" d="M125 277 C125 277 134.0187 279.0187 138 283 C144.0767 289.0767 145.0031 292.0838 149 301 C151.0736 305.6257 151.6419 311.1013 151 312 C150.2239 313.0865 139 315 139 315 "/>
<path id="4" d="M140 248 C140 248 197.2372 217.4802 255 189 C268.9974 182.0985 269.1394 181.2363 284 177 C378.6699 150.0126 476 126 476 126 "/>
<path id="5" d="M171 315 C171 315 191.018 308.2784 209 301 C211.1473 300.1309 211.9811 299.7321 213 298 C216.3365 292.328 218.7301 284.2159 219 284 C219.0126 283.99 222.6276 290.0958 223 290 C228.2826 288.6416 238.6716 282.0073 254 275 C255.8047 274.175 257.2976 273.6488 258 274 C259.3045 274.6522 261.6392 279.1234 262 279 C268.3288 276.8349 280.283 271.0589 296 261 C304.6181 255.4844 310.3102 248.0326 312 247 C312.0115 246.993 313.8217 250.0357 314 250 C315.1463 249.7707 319.0957 246.0561 322 245 C322.7799 244.7164 324.2731 246.3231 325 246 C330.4046 243.598 333.1552 242.1336 340 237 C348.8904 230.3322 354.558 222.7123 357 222 C357.5331 221.8445 363.4203 230.1799 364 230 C367.5003 228.9137 380.8494 216.0904 386 213 C386.2879 212.8272 388.6227 215.1886 389 215 C393.8103 212.5948 399.4601 206.1118 408 202 C410.7047 200.6977 413.0059 203.1406 416 202 C422.0061 199.712 423.7503 196.0416 429 194 C430.5025 193.4157 433.0225 195.5865 434 195 C437.5545 192.8673 438.8367 188.7291 444 185 C447.048 182.7986 448.6673 184.1791 452 182 C461.0846 176.0601 466.0659 169.02 470 168 C471.3069 167.6612 478.1669 175.3124 479 175 C481.7442 173.9709 488.7126 162.7767 494 159 C495.0575 158.2447 498.6985 160.5916 500 160 C501.8136 159.1756 502.8626 154.8015 505 154 C508.243 152.7839 512.3806 155.4478 516 154 C520.0142 152.3943 520.4913 148.5048 525 146 C528.3908 144.1162 530.4639 146.0038 534 144 C544.2943 138.1666 555 129 555 129 "/>
<path id="6" d="M472 127 C472 127 560.9122 108.9166 569 109 C569.0164 109.0002 570.9405 123.9572 569 128 C567.7989 130.5023 557 134 557 134 "/>
</g>
</g>
</svg>
