<?xml version="1.0" encoding="utf-8"?>
<!DOCTYPE svg PUBLIC "-//W3C//DTD SVG 1.1//EN" "http://www.w3.org/Graphics/SVG/1.1/DTD/svg11.dtd">
<svg viewBox="0 0 800 800" preserveAspectRatio="xMinYMin meet" xmlns="http://www.w3.org/2000/svg" version="1.1">
<g fill="none" stroke="black" stroke-linecap="round" stroke-linejoin="round" stroke-width="1.6561">
<g transform="translate(87.52,104.729) scale(1.8115) translate(-180,-63)">
<path id="0" d="M274 65 C274 65 271.1927 64.3495 270 65 C266.9371 66.6707 264.7686 67.735 263 71 C259.1619 78.0858 258.9434 80.2549 257 89 C256.0953 93.071 257 98 257 98 C257 98 255.3615 85.3733 257 78 C257.6827 74.9278 259.6374 73.8022 263 71 C268.3044 66.5797 269.4677 64.4277 275 63 C282.4737 61.0713 285.9467 61.3893 294 63 C299.1711 64.0342 303.9521 66.34 305 69 C307.818 76.1533 307.3336 85.6583 307 96 C306.9493 97.5729 304 100 304 100 "/>
<path id="1" d="M261 76 C261 76 259.0128 76.7315 259 77 C258.7671 81.8911 258.4073 89.0364 260 97 C260.4573 99.2866 261.7 100.5474 264 102 C270.2404 105.9413 276.8841 105.6394 279 109 C281.7354 113.3445 279.1786 127.2614 281 129 C282.8096 130.7274 298.8454 131.026 301 130 C301.6884 129.6722 302.4208 120.6834 302 119 C301.9217 118.6868 298.1521 118.4184 298 118 C297.3802 116.2955 297.116 109.5155 298 108 C298.5378 107.0781 304.2452 107.1741 305 106 C306.5427 103.6002 307 94 307 94 "/>
<path id="2" d="M278 80 C278 80 276.7545 83.2634 277 84 C277.2009 84.6027 278.6284 85.7257 280 86 C282.8239 86.5648 286.4206 86.4139 287 86 C287.2956 85.7889 287.109 81.0654 287 81 C286.862 80.9172 282 83 282 83 "/>
<path id="3" d="M296 83 C296 83 300.9913 84.0131 301 84 C301.0075 83.9888 298 80 298 80 "/>
<path id="4" d="M279 130 L279 137 "/>
<path id="5" d="M295 134 C295 134 297.8125 133.8125 298 134 C298.1875 134.1875 298 137 298 137 "/>
<path id="6" d="M279 134 C279 134 266.678 141.4576 254 145 C233.5718 150.7079 218.3399 150.9516 211 153 C210.8189 153.0506 210.5986 156.6559 211 157 C212.0204 157.8746 216.972 157.6636 218 159 C219.8525 161.4083 219.9406 168.0577 221 170 C221.1372 170.2515 223.926 170.185 224 170 C224.999 167.5025 224.9487 156.392 227 155 C231.3139 152.0727 239.9441 154.0688 252 151 C267.0804 147.1614 282 141 282 141 "/>
<path id="7" d="M296 134 C296 134 302.7152 132.5772 308 134 C327.276 139.1897 328.1437 142.6152 348 148 C356.86 150.4027 365.9348 149.2676 367 150 C367.1666 150.1146 365.1894 157.4708 364 159 C363.6735 159.4198 361.5914 159.5684 360 159 C355.3109 157.3253 354.7213 154.7377 350 154 C340.3659 152.4947 337.8548 155.6425 328 154 C321.2808 152.8801 314 148 314 148 "/>
<path id="8" d="M303 141 C303 141 311.0255 146.3418 319 149 C325.2657 151.0886 333 151 333 151 "/>
<path id="9" d="M215 160 C215 160 210.3175 161.0676 209 163 C204.3296 169.85 205.6241 173.7802 200 182 C193.1523 192.0082 189.3013 192.2482 183 201 C181.6445 202.8826 181.6875 206.5625 182 207 C182.3125 207.4375 186.7541 207.0655 188 208 C189.0614 208.796 189.9977 212.9988 190 213 C190.001 213.0005 189.3014 210.0479 190 209 C193.0856 204.3716 195.8876 203.9559 200 198 C210.1333 183.3241 219 167 219 167 "/>
<path id="10" d="M183 208 C183 208 179.0095 220.2666 180 222 C181.2554 224.1969 189.6441 224.5011 195 229 C200.5816 233.6885 199.1563 237.3233 205 243 C216.0012 253.6868 218.9802 252.7148 230 263 C233.1461 265.9364 234.8139 270.8139 235 271 C235.0143 271.0143 236 269 236 269 "/>
<path id="11" d="M191 209 C191 209 193.4288 216.8443 198 221 C219.0695 240.1541 246 259 246 259 "/>
<path id="12" d="M199 230 C199 230 201.8324 229.9492 203 231 C214.771 241.5939 215.4491 245.0248 229 257 C236.6377 263.7496 246 269 246 269 "/>
<path id="13" d="M236 270 C236 270 240.9997 289.0001 241 289 C241.001 288.9996 240.5175 270.5331 241 268 C241.0175 267.9081 244.5636 267.5091 245 268 C246.5409 269.7335 249 276.9819 249 277 C249 277.006 246.0476 275.7024 245 274 C242.6096 270.1156 240.9408 264.0592 241 264 C241.079 263.921 248.3137 264.3062 252 267 C259.4585 272.4504 267.0001 283 267 283 C266.9999 283.0001 249.0057 269.007 249 269 C248.9979 268.9975 254.4375 269.8625 258 272 C261.1666 273.9 261.0854 276.2998 264 278 C266.0198 279.1782 269.8206 279.1077 270 279 C270.0465 278.9721 269.9754 276.073 269 275 C265.9835 271.6818 263.5458 271.8186 260 268 C257.5262 265.3359 257.6838 262.0715 256 261 C254.6059 260.1129 249 261 249 261 "/>
<path id="14" d="M246 270 C246 270 254.6641 278.33 259 284 C259.5433 284.7105 259.18 286.865 259 287 C258.68 287.24 256.0088 287.6725 255 287 C251.6374 284.7583 250.1041 283.298 247 279 C243.9334 274.754 242 269 242 269 "/>
<path id="15" d="M242 269 C242 269 243.2378 274.7185 246 279 C252.8773 289.6598 262 299.9824 262 300 C262 300.0075 251.7277 296.2296 246 291 C241.7531 287.1224 239 279 239 279 "/>
<path id="16" d="M278 143 C278 143 274.5099 144.0874 273 146 C267.8068 152.578 265.9704 153.9374 263 162 C259.4577 171.6147 260.3214 173.0984 259 184 C258.3535 189.3333 257.9737 189.8683 259 195 C263.3107 216.5533 264.5736 221.9973 270 239 C270.4884 240.5305 272.2374 241.7356 274 242 C280.3374 242.9506 287.0149 243.7639 290 242 C292.5526 240.4916 292.4107 234.7982 296 229 C298.6485 224.7216 301.6094 224.5759 303 221 C304.297 217.665 302.8113 211.2202 303 211 C303.0404 210.9528 307.622 212.002 309 214 C315.8831 223.9805 318.0399 235.2307 323 240 C324.4039 241.3499 334.1645 239.7596 335 239 C335.4648 238.5774 334 230 334 230 "/>
<path id="17" d="M310 144 C310 144 312.3446 143.5318 313 144 C314.6542 145.1816 315.8341 146.3038 317 149 C323.443 163.8993 324.4589 164.854 329 181 C333.3244 196.3758 333.2048 197.1423 335 213 C336.1536 223.1903 335 234 335 234 "/>
<path id="18" d="M291 161 C291 161 284.5152 159.5328 282 161 C275.5256 164.7767 267 175 267 175 "/>
<path id="19" d="M290 164 L264 179 "/>
<path id="20" d="M296 179 C296 179 283.5132 183.3245 275 189 C271.5127 191.3249 269 197 269 197 "/>
<path id="21" d="M300 184 C300 184 289.8007 183.6459 283 186 C278.6091 187.5199 274 193 274 193 "/>
<path id="22" d="M297 192 C297 192 285.5624 195.8048 279 201 C275.3651 203.8776 272.9896 210.9172 273 211 C273.0013 211.0101 280 209 280 209 "/>
<path id="23" d="M305 200 C305 200 296.7985 198.4967 291 200 C284.864 201.5908 278 207 278 207 "/>
<path id="24" d="M306 156 C306 156 314.1006 160.5435 318 165 C319.7497 166.9997 320 172 320 172 "/>
<path id="25" d="M308 161 C308 161 312.8881 164.17 316 168 C319.011 171.7059 321 177 321 177 "/>
<path id="26" d="M312 176 L324 189 "/>
<path id="27" d="M310 181 C310 181 313.9193 180.1355 315 181 C321.0085 185.8068 330 197 330 197 "/>
<path id="28" d="M315 194 C315 194 318.3844 193.3844 319 194 C322.3858 197.3858 328 207 328 207 "/>
<path id="29" d="M316 198 C316 198 319.4971 199.1213 321 201 C324.7788 205.7235 327.78 212.725 328 213 C328.015 213.0187 329 211 329 211 "/>
<path id="30" d="M367 160 C367 160 366.0792 164.5037 367 166 C368.8298 168.9735 372.2317 169.167 375 173 C378.1655 177.383 378.5734 178.4973 380 184 C381.9165 191.3922 379.9571 193.2876 382 200 C383.0482 203.4441 385.5427 203.4608 387 207 C388.7412 211.2286 389 217 389 217 "/>
<path id="31" d="M366 156 C366 156 373.0432 154.8362 377 156 C379.6872 156.7904 382.4419 158.8473 383 161 C384.8951 168.3096 381.1302 173.8167 384 183 C387.9068 195.5016 392.2788 196.1272 398 209 C399.9334 213.3501 400.2484 218.6807 400 219 C399.8235 219.2269 392.4985 218.8991 391 218 C390.3756 217.6254 390 213 390 213 "/>
<path id="32" d="M389 219 C389 219 387.5555 224.7475 385 228 C382.7902 230.8124 380.6394 230.0006 378 233 C370.1479 241.9229 370.8643 244.4518 363 253 C360.1242 256.1259 358.7139 256.762 355 258 C352.3106 258.8965 348.5537 257.3356 348 258 C346.6238 259.6515 344.8663 269.1975 345 270 C345.0097 270.0582 349.1338 269.5669 350 270 C350.4331 270.2166 350.9782 273.0196 351 273 C351.2538 272.7716 354.8216 266.0261 360 261 C371.3821 249.9527 373.4032 250.8486 385 240 C388.5025 236.7235 388.9114 236.1771 391 232 C393.6582 226.6837 395 220 395 220 "/>
<path id="33" d="M392 220 L359 258 "/>
<path id="34" d="M357 270 C357 270 370.5191 261.7682 380 252 C386.044 245.7728 386.8598 243.7077 390 236 C391.7845 231.62 391 225 391 225 "/>
<path id="35" d="M346 267 C346 267 342.1383 266.9309 340 268 C338.0262 268.9869 336.8877 270.0471 336 272 C334.8627 274.5021 334.9609 278.9853 335 279 C335.1806 279.0677 343.9728 274.9546 344 275 C344.3695 275.6159 343.9966 293.9931 344 294 C344.0016 294.0033 347.9974 282.9993 348 283 C348.0201 283.0058 349.9736 293.7761 351 296 C351.0988 296.2141 353.9869 296.0721 354 296 C354.5333 293.0667 355 274 355 274 C355 274 355.0001 286.0001 355 286 C354.9999 285.9999 352.713 276.4526 353 271 C353.0801 269.4779 356 267 356 267 "/>
<path id="36" d="M276 256 C276 256 275.322 251.8717 276 251 C277.2806 249.3535 283 247 283 247 "/>
<path id="37" d="M295 239 C295 239 279.8103 247.4681 275 253 C273.6209 254.586 273.9654 259.7583 275 262 C275.7782 263.6861 280.7003 264.5613 281 266 C282.13 271.4238 278.9318 283.9608 280 286 C280.3996 286.7628 290.7862 288.1531 292 287 C294.9658 284.1825 298.5035 269.5848 300 267 C300.0448 266.9227 302.6047 267.3412 303 268 C304.5247 270.5412 303.7613 273.5403 306 277 C308.696 281.1666 314 285 314 285 "/>
<path id="38" d="M322 240 C322 240 325.5425 239.1255 327 240 C333.4712 243.8827 340.1738 249.8928 342 252 C342.0925 252.1068 341.097 254.4515 340 255 C336.3956 256.8022 331.0704 256.6084 330 258 C328.9989 259.3015 330 268 330 268 "/>
<path id="39" d="M332 259 C332 259 337.6089 259.4133 338 260 C338.6258 260.9386 339.0369 264.7411 338 268 C335.8967 274.6104 334.9461 276.5362 331 282 C329.2743 284.3894 327.5888 285.6302 325 286 C319.147 286.8361 314.1579 285.7796 310 285 C309.6236 284.9294 309 283 309 283 "/>
<path id="40" d="M282 291 C282 291 269.5736 310.0251 255 326 C244.0495 338.0035 237.3429 338.3977 230 348 C227.7204 350.981 228.0335 357.4228 229 360 C229.5508 361.4688 233.2055 363.6507 236 364 C239.2603 364.4075 243.4947 361.421 245 362 C246.224 362.4708 248.921 369 249 369 C249.0592 369 251.8542 365.0627 252 362 C252.2839 356.0379 248.8731 352.5076 250 348 C251.0017 343.9932 253.5619 341.7373 258 338 C262.3385 334.3465 264.7247 335.8616 269 332 C279.3818 322.6229 282.704 320.6759 289 310 C292.4967 304.0708 292 293 292 293 "/>
<path id="41" d="M237 367 C237 367 233.1 366.8 233 367 C232.6 367.8 232.0277 371.8887 233 375 C234.1622 378.7189 236.4134 382.9131 238 383 C279.1348 385.254 361.4183 383.8728 379 383 C379.0433 382.9978 379.2888 376.0875 379 376 C374.3831 374.6009 362.4211 373.4321 346 373 C324.667 372.4386 322.9292 374.7815 303 374 C299.2343 373.8523 298.6253 371.1394 295 371 C286.9935 370.6921 285.8629 373 277 373 C261.7361 373 246 371 246 371 "/>
<path id="42" d="M370 378 C370 378 381.9941 373.9911 382 374 C382.0069 374.0104 374 384 374 384 "/>
<path id="43" d="M369 376 C369 376 368.566 372.2893 369 372 C372.0923 369.9384 380.219 366.6302 384 366 C384.5908 365.9015 386.506 367.6826 387 369 C387.5988 370.5968 387.5705 373.4295 387 374 C385.7449 375.2551 379 377 379 377 "/>
<path id="44" d="M385 384 C385 384 455.9992 389 456 389 C456.0002 389 446.4502 385.875 437 385 C419.8795 383.4148 402.0322 384.0084 402 384 C401.9902 383.9975 408.0856 379.9857 414 379 C427.9795 376.6701 444.0001 377 444 377 C443.9999 377 405 376 405 376 C405 376 414.4563 377.6973 422 376 C433.1048 373.5014 444.9993 367.0067 445 367 C445.0002 366.9986 433.557 365.8887 423 367 C415.1201 367.8295 414.441 368.2441 407 371 C401.3719 373.0845 395.9999 377 396 377 C396.0001 377 407.2445 373.5529 416 369 C418.7542 367.5678 420.9741 364.0647 421 364 C421.0044 363.9889 419.1369 363.5026 418 364 C404.6885 369.8238 389 378 389 378 "/>
<path id="45" d="M323 290 L322 290 "/>
<path id="46" d="M322 290 C322 290 320.2226 298.1527 322 303 C324.8757 310.8427 327.0385 312.3826 333 320 C335.672 323.4143 336.3592 324.0725 340 326 C344.1459 328.1949 350 329 350 329 "/>
<path id="47" d="M327 290 C327 290 328.1542 286.5639 329 286 C329.725 285.5167 332.7707 285.6178 333 286 C334.7197 288.8662 334.5211 294.506 338 301 C341.6125 307.7433 342.6863 308.6863 348 314 C350.5413 316.5413 351.4663 317.2147 355 318 C376.8492 322.8554 394.3336 323.5533 402 326 C402.3456 326.1103 402.596 332.5124 402 333 C400.685 334.0759 395.9136 335.6254 391 335 C370.3563 332.3726 347 326 347 326 "/>
<path id="48" d="M407 329 C407 329 412.501 324.2045 417 324 C441.5946 322.8821 473 326 473 326 "/>
<path id="49" d="M412 329 C412 329 407.0584 328.8831 407 329 C406.8831 329.2338 408.5705 334.9859 409 335 C420.51 335.3774 447.7612 330.6838 468 331 C469.7438 331.0272 470.8143 335.2714 473 336 C476.2785 337.0928 479.5414 336.7981 483 336 C484.277 335.7053 485.6858 333.9425 486 333 C486.2094 332.3717 485.5804 330.2679 485 330 C481.7422 328.4964 473 327 473 327 "/>
<path id="50" d="M473 326 C473 326 497.9905 312.0024 498 312 C498.0038 311.999 493.8958 317.8386 489 322 C484.2581 326.0306 477.9959 329.0005 478 329 C478.016 328.9981 523 318 523 318 C523 318 482.9998 328.9991 483 329 C483.0003 329.0017 525.0001 329.9998 525 330 C524.9999 330.0002 480.0014 334.9994 480 335 C479.9992 335.0003 508 337 508 337 "/>
</g>
</g>
</svg>
