<?xml version="1.0" encoding="utf-8"?>
<!DOCTYPE svg PUBLIC "-//W3C//DTD SVG 1.1//EN" "http://www.w3.org/Graphics/SVG/1.1/DTD/svg11.dtd">
<svg viewBox="0 0 800 800" preserveAspectRatio="xMinYMin meet" xmlns="http://www.w3.org/2000/svg" version="1.1">
<g fill="none" stroke="black" stroke-linecap="round" stroke-linejoin="round" stroke-width="2.0737">
<g transform="translate(153.3433,87.52) scale(1.4467) translate(-149,-39.9333)">
<path id="0" d="M222 136.9333 C222 136.9333 218.7245 136.7837 217 137.9333 C210.8123 142.0585 210.2601 143.1949 204 148.9333 C192.2934 159.6643 191.659 159.5637 181 170.9333 C176.9474 175.2561 173.7919 180.5928 174 180.9333 C174.6911 182.0642 188.8274 188.6449 192 188.9333 C192.5852 188.9865 193.5407 185.1788 196 182.9333 C204.4835 175.1875 205.0474 174.4141 215 167.9333 C226.2318 160.6196 239 154.9333 239 154.9333 "/>
<path id="1" d="M240 154.9333 L238 154.9333 "/>
<path id="2" d="M169 187.9333 L171 192.9333 "/>
<path id="3" d="M199 199.9333 L196 198.9333 "/>
<path id="4" d="M173 242.9333 L172 259.9333 "/>
<path id="5" d="M173 240.9333 C173 240.9333 172.3622 198.5066 173 196.9333 C173.0133 196.9005 183.0392 200.8328 188 203.9333 C188.7361 204.3934 188.9599 205.4906 189 206.9333 C189.9136 239.8244 191.5121 246.8258 190 275.9333 C189.8189 279.4203 185.7089 283.8321 185 283.9333 C184.0603 284.0676 176 277.9333 176 277.9333 "/>
<path id="6" d="M174 284.9333 C174 284.9333 171.7534 291.6786 168 296.9333 C159.5714 308.7334 149 319.9333 149 319.9333 "/>
<path id="7" d="M189 296.9333 L169 328.9333 "/>
<path id="8" d="M171 308.9333 L170 312.9333 "/>
<path id="9" d="M162 331.9333 L162 328.9333 "/>
<path id="10" d="M184 314.9333 L185 340.9333 "/>
<path id="11" d="M185 339.9333 L188 331.9333 "/>
<path id="12" d="M199 308.9333 L206 325.9333 "/>
<path id="13" d="M192 295.9333 L193 295.9333 "/>
<path id="14" d="M194 297.9333 L202 301.9333 "/>
<path id="15" d="M363 134.9333 L367 137.9333 "/>
<path id="16" d="M402 168.9333 L400 165.9333 "/>
<path id="17" d="M366 133.9333 L367 134.9333 "/>
<path id="18" d="M401 146.9333 C401 146.9333 389 116.9333 389 116.9333 C389.0209 116.925 416 140.9333 416 140.9333 "/>
<path id="19" d="M375 143.9333 L404 174.9333 "/>
<path id="20" d="M442 202.9333 L442 193.9333 "/>
<path id="21" d="M416 147.9333 C416 147.9333 425.2979 157.4982 433 167.9333 C440.6514 178.2997 446.9168 187.5198 447 189.9333 C447.0243 190.6367 439.328 196.144 434 196.9333 C428.8547 197.6956 424.7596 197.0041 420 193.9333 C411.6466 188.544 403 176.9333 403 176.9333 "/>
<path id="22" d="M437 245.9333 L440 261.9333 "/>
<path id="23" d="M441 266.9333 L437 204.9333 "/>
<path id="24" d="M435 204.9333 L435 206.9333 "/>
<path id="25" d="M454 279.9333 L451 264.9333 "/>
<path id="26" d="M454 207.9333 C454 207.9333 455.6549 232.703 455 256.9333 C454.6646 269.3427 452.556 280.335 452 281.9333 C451.9944 281.9493 447 279.9333 447 279.9333 "/>
<path id="27" d="M435 284.9333 L434 284.9333 "/>
<path id="28" d="M434 285.9333 L418 311.9333 "/>
<path id="29" d="M441 299.9333 C441 299.9333 443 308.0445 443 314.9333 C443 318.1481 441.8097 320.7997 441 321.9333 C440.7941 322.2215 438 321.9333 438 321.9333 "/>
<path id="30" d="M451 303.9333 L457 318.9333 "/>
<path id="31" d="M457 320.9333 L458 321.9333 "/>
<path id="32" d="M458 299.9333 C458 299.9333 469.529 310.4055 481 317.9333 C484.6143 320.3052 489.8697 320.9892 490 320.9333 C490.0097 320.9292 488 314.9333 488 314.9333 "/>
<path id="33" d="M468 290.9333 L479 295.9333 "/>
<path id="34" d="M277 147.9333 C277 147.9333 271.9125 150.9929 269 154.9333 C263.8909 161.8456 262.4099 163.4357 260 170.9333 C258.4693 175.6955 258.9394 178.4257 260 182.9333 C260.5251 185.1651 262.3462 187.5912 264 187.9333 C272.2801 189.6465 276.9341 189.7377 289 188.9333 C298.8076 188.2795 299.5511 187.7966 309 184.9333 C315.6007 182.9331 322.0079 178.9345 322 178.9333 C321.9736 178.9296 281 180.9333 281 180.9333 "/>
<path id="35" d="M328 141.9333 C328 141.9333 343.9974 146.1544 357 151.9333 C360.7582 153.6037 361.7954 154.6264 364 157.9333 C367.1691 162.6871 368.218 164.9807 369 169.9333 C369.4087 172.5217 368.551 175.5017 367 176.9333 C364.1377 179.5754 361.2645 180.7369 356 181.9333 C351.2284 183.0178 349.9346 182.8733 345 181.9333 C340.1722 181.0138 338.347 180.1647 335 177.9333 C333.7669 177.1113 333 173.9333 333 173.9333 "/>
<path id="36" d="M282 170.9333 C282 170.9333 282.351 166.5823 284 164.9333 C289.3592 159.5742 291.3141 158.737 299 153.9333 C303.0406 151.408 303.6871 150.7548 308 149.9333 C313.3017 148.9235 317.7649 148.027 320 149.9333 C328.7047 157.3579 341.9827 178.8789 342 178.9333 C342.0057 178.9511 327 171.9333 327 171.9333 "/>
<path id="37" d="M272 200.9333 C272 200.9333 271.2875 209.6272 272 210.9333 C272.3044 211.4914 275.0818 211.9982 278 211.9333 C297.0602 211.5098 297.6381 211.4227 317 209.9333 C323.5047 209.433 329.9945 207.9354 330 207.9333 C330.0019 207.9326 325 206.9333 325 206.9333 "/>
<path id="38" d="M365 190.9333 C365 190.9333 365.9728 199.3958 364 203.9333 C361.9569 208.6324 359.172 211.748 355 213.9333 C351.3303 215.8555 347.3843 215.8564 343 214.9333 C340.0053 214.3029 336 209.9333 336 209.9333 "/>
<path id="39" d="M288 225.9333 C288 225.9333 290.2829 231.387 292 231.9333 C297.3229 233.627 301.292 233.4309 310 232.9333 C318.3336 232.4571 319.9038 232.7211 327 229.9333 C332.5208 227.7644 338 221.9333 338 221.9333 "/>
<path id="40" d="M361 215.9333 C361 215.9333 364.382 223.6865 364 226.9333 C363.7636 228.9425 361.4486 232.204 359 232.9333 C342.9882 237.7028 337.6999 237.4099 317 240.9333 C314.6131 241.3396 312.8662 241.3664 312 240.9333 C311.5669 240.7168 311 237.9333 311 237.9333 "/>
<path id="41" d="M294 254.9333 C294 254.9333 296.6528 258.8852 298 258.9333 C305.7696 259.2108 312.3052 259.0699 322 255.9333 C326.8874 254.3521 328.5544 251.6921 332 247.9333 C332.9868 246.8568 333 243.9333 333 243.9333 "/>
<path id="42" d="M360 236.9333 C360 236.9333 359.063 243.9952 356 247.9333 C349.6569 256.0888 346.2145 259.316 339 263.9333 C336.8812 265.2894 333.5781 265.0612 331 263.9333 C327.435 262.3737 323 256.9333 323 256.9333 "/>
<path id="43" d="M279 44.9333 C279 44.9333 277.49 52.6683 279 54.9333 C282.0703 59.5389 292.9514 64.7184 293 65.9333 C293.0567 67.3501 283.7034 73.951 280 79.9333 C278.8242 81.8327 279.3356 86.3797 280 86.9333 C281.6515 88.3096 288.0348 87.6009 292 89.9333 C294.6265 91.4783 296.1104 93.7309 297 96.9333 C298.1665 101.1326 296.1555 103.1477 297 107.9333 C297.5013 110.774 299.8167 113.9595 300 113.9333 C301.0386 113.785 307.2584 106.3491 311 105.9333 C315.8605 105.3933 323.7761 111.0945 327 110.9333 C327.8802 110.8893 330.409 107.7702 331 104.9333 C332.5748 97.3742 330.7625 88.6467 332 86.9333 C332.5728 86.1402 340.7932 88.2538 344 86.9333 C346.1064 86.066 349.1675 81.5245 349 79.9333 C348.6705 76.8027 346.1069 71.326 342 67.9333 C336.7106 63.5638 327.8221 63.1459 326 60.9333 C325.2457 60.0174 326.0646 54.9977 328 50.9333 C330.617 45.4376 336.0931 39.9515 336 39.9333 C335.2297 39.783 287 42.9333 287 42.9333 "/>
<path id="44" d="M283 41.9333 L324 39.9333 "/>
<path id="45" d="M302 65.9333 L302 67.9333 "/>
<path id="46" d="M302 68.9333 L303 69.9333 "/>
<path id="47" d="M310 66.9333 C310 66.9333 317.8997 66.0164 319 66.9333 C320.3856 68.088 322 76.9333 322 76.9333 "/>
<path id="48" d="M308 81.9333 L308 82.9333 "/>
<path id="49" d="M308 82.9333 L309 86.9333 "/>
<path id="50" d="M303 91.9333 C303 91.9333 303.1084 96.2965 304 96.9333 C307.2321 99.242 312.1915 101.7148 317 101.9333 C320.2056 102.079 324.2665 99.4742 326 97.9333 C326.4909 97.497 326.0796 93.9483 326 93.9333 C324.3214 93.6186 310 94.9333 310 94.9333 "/>
<path id="51" d="M292 281.9333 C292 281.9333 265.7082 337.6648 265 340.9333 C264.9778 341.0358 277.9364 340.7279 279 341.9333 C280.3447 343.4573 281.1971 350.5333 280 357.9333 C275.9231 383.1359 272.472 383.8468 268 409.9333 C263.5304 436.0061 262 462.9333 262 462.9333 "/>
<path id="52" d="M319 295.9333 C319 295.9333 310.0681 324.146 301 341.9333 C299.508 344.86 294.9992 344.0012 293 346.9333 C288.8364 353.0399 286.8078 362.7217 286 363.9333 C286 363.9333 283 361.9333 283 361.9333 "/>
<path id="53" d="M287 373.9333 L299 416.9333 "/>
<path id="54" d="M289 401.9333 C289 401.9333 292.5801 423.6291 292 443.9333 C291.6105 457.5664 287 471.9333 287 471.9333 "/>
<path id="55" d="M333 299.9333 L365 339.9333 "/>
<path id="56" d="M357 289.9333 L377 335.9333 "/>
<path id="57" d="M364 362.9333 L366 367.9333 "/>
<path id="58" d="M374 387.9333 L407 465.9333 "/>
<path id="59" d="M394 361.9333 L410 460.9333 "/>
<path id="60" d="M383 374.9333 L396 386.9333 "/>
<path id="61" d="M436 443.9333 L438 443.9333 "/>
</g>
</g>
</svg>
