<?xml version="1.0" encoding="utf-8"?>
<!DOCTYPE svg PUBLIC "-//W3C//DTD SVG 1.1//EN" "http://www.w3.org/Graphics/SVG/1.1/DTD/svg11.dtd">
<svg viewBox="0 0 800 800" preserveAspectRatio="xMinYMin meet" xmlns="http://www.w3.org/2000/svg" version="1.1">
<g fill="none" stroke="black" stroke-linecap="round" stroke-linejoin="round" stroke-width="1.9297">
<g transform="translate(214.9994,87.52) scale(1.5546) translate(-183,-79.1333)">
<path id="0" d="M306 81.1333 C306 81.1333 292.0011 79.5707 282 81.1333 C278.3407 81.7051 276.7388 83.0723 274 86.1333 C269.0321 91.6856 266.5754 93.6565 265 100.1333 C262.7618 109.335 263.3528 112.7012 265 123.1333 C266.1421 130.3666 269.4337 130.7496 271 138.1333 C272.7529 146.3971 270.2393 148.7971 272 156.1333 C272.7915 159.4314 274.873 162.5031 277 163.1333 C283.704 165.1197 289.3045 165.6249 299 164.1333 C307.0227 162.8991 308.3604 161.2715 316 157.1333 C319.7662 155.0933 321.0769 154.4987 323 151.1333 C328.2198 141.9988 330.0522 139.738 332 129.1333 C334.2234 117.0281 335.0943 109.8692 332 102.1333 C329.7767 96.575 322.9748 96.1081 316 89.1333 C311.9113 85.0447 309 79.1333 309 79.1333 "/>
<path id="1" d="M323 112.1333 C323 112.1333 319.0059 111.1144 319 111.1333 C318.5909 112.4424 317.9147 128.0115 318 128.1333 C318.0073 128.1438 324.4871 124.159 326 121.1333 C327.2378 118.6578 326 112.1333 326 112.1333 "/>
<path id="2" d="M300 112.1333 C300 112.1333 294.0062 110.1056 294 110.1333 C293.8192 110.9468 295.8108 129.5973 296 130.1333 C296.0145 130.1744 299.6127 128.4502 300 127.1333 C301.3256 122.6264 301 113.1333 301 113.1333 "/>
<path id="3" d="M305 126.1333 C305 126.1333 302.9555 144.0592 303 144.1333 C303.0085 144.1475 311 136.1333 311 136.1333 "/>
<path id="4" d="M295 150.1333 L314 150.1333 "/>
<path id="5" d="M287 164.1333 L286 180.1333 "/>
<path id="6" d="M290 165.1333 C290 165.1333 290.8075 168.7109 290 171.1333 C288.1159 176.7858 284 183.1333 284 183.1333 "/>
<path id="7" d="M285 185.1333 C285 185.1333 262.5699 192.29 247 203.1333 C236.9483 210.1336 235.7759 213.1877 229 224.1333 C223.5291 232.9709 223.7829 235.0453 221 245.1333 C220.0407 248.6109 222.0807 249.7929 221 253.1333 C217.0068 265.4759 216.5682 266.8611 210 279.1333 C197.7542 302.0137 191.474 304.252 183 324.1333 C180.6645 329.6127 183.3661 339.1473 184 340.1333 C184.1197 340.3195 191.9814 338.1296 192 338.1333 C192.0059 338.1345 189.1614 340.0034 189 341.1333 C188.4889 344.7113 189.9335 352.1222 190 352.1333 C190.2231 352.1705 197.3592 347.6144 201 343.1333 C202.7507 340.9787 203 336.1332 203 336.1333 C203 336.1338 200.993 354.1193 201 354.1333 C201.0029 354.1391 203.4577 348.1479 207 344.1333 C210.4605 340.2114 215.8134 337.5997 216 337.1333 C216.0176 337.0893 212.5706 335.9003 211 334.1333 C209.1715 332.0763 208.7272 331.1635 208 328.1333 C205.8659 319.2413 202.9415 314.7941 205 309.1333 C208.6676 299.0474 215.7053 296.7556 224 284.1333 C226.7944 279.881 227.2788 279.0615 228 274.1333 C230.132 259.5645 226.3537 255.3745 230 243.1333 C232.259 235.5496 235.0713 233.5291 242 227.1333 C253.7669 216.2716 255.0535 215.9566 269 207.1333 C279.1853 200.6895 290.5794 196.3857 291 196.1333 C291.0206 196.121 289 195.1333 289 195.1333 "/>
<path id="8" d="M298 166.1333 C298 166.1333 296.7488 182.6475 298 184.1333 C299.0061 185.3281 307.1819 183.0673 314 185.1333 C322.2501 187.6334 322.7822 189.254 331 194.1333 C338.7006 198.7056 340.1778 198.958 346 204.1333 C348.031 205.9387 346.9646 207.8837 349 210.1333 C355.8847 217.7427 358.9312 216.7197 365 225.1333 C380.1364 246.1179 378.6868 249.2426 393 271.1333 C395.2086 274.5112 398.3592 274.4784 399 277.1333 C400.9997 285.4176 400.9657 290.4767 400 300.1333 C399.688 303.2538 396.6443 304.1268 396 307.1333 C395.4436 309.7299 395.6479 312.5732 397 314.1333 C400.1625 317.7824 404.6047 317.3717 409 322.1333 C415.6993 329.3909 421 340.1333 421 340.1333 "/>
<path id="9" d="M403 333.1333 L411 345.1333 "/>
<path id="10" d="M394 334.1333 C394 334.1333 398.4523 348.2434 399 349.1333 C399.0047 349.1409 402 347.1333 402 347.1333 "/>
<path id="11" d="M381 332.1333 C381 332.1333 385.2809 340.1415 388 347.1333 C388.4603 348.3169 388.0836 350.0999 388 350.1333 C387.6797 350.2615 383 349.1333 383 349.1333 "/>
<path id="12" d="M384 329.1333 C384 329.1333 390.9336 320.1694 393 312.1333 C394.9258 304.6441 393.7222 302.4383 393 294.1333 C392.7924 291.7461 392.2663 290.6107 391 289.1333 C389.9762 287.9389 387.325 287.9458 387 287.1333 C386.2778 285.3278 388.3534 281.4792 387 279.1333 C382.491 271.3177 378.0316 270.6447 372 261.1333 C365.4283 250.7703 367.3911 248.7852 361 238.1333 C355.6453 229.2088 355.52 226.9822 348 221.1333 C334.8081 210.873 330.782 213.1851 316 203.1333 C306.3503 196.5715 298 187.1333 298 187.1333 "/>
<path id="13" d="M296 205.1333 C296 205.1333 293.9907 225.452 295 245.1333 C295.9665 263.9809 298.7715 264.2142 300 283.1333 C301.2502 302.3859 302.7214 305.5025 300 322.1333 C298.7808 329.5842 295.4622 331.9549 291 338.1333 C290.0304 339.4758 287.4683 339.1187 287 340.1333 C285.5483 343.2787 285.003 351.1274 285 351.1333 C284.9989 351.1356 284 346.1333 284 346.1333 "/>
<path id="14" d="M265 224.1333 C265 224.1333 276.6129 229.5101 287 230.1333 C299.9235 230.9087 303.9357 230.2068 315 227.1333 C318.816 226.0733 320.1639 221.5514 323 220.1333 C323.8632 219.7018 327 221.1333 327 221.1333 "/>
<path id="15" d="M259 241.1333 C259 241.1333 270.7599 248.1262 282 250.1333 C297.1554 252.8397 300.5014 252.9457 315 251.1333 C322.0012 250.2582 323.7656 248.1857 330 244.1333 C332.8381 242.2885 335 238.1333 335 238.1333 "/>
<path id="16" d="M261 260.1333 C261 260.1333 267.6604 263.7321 274 264.1333 C305.601 266.1334 312.5777 265.5308 340 265.1333 C341.2588 265.1151 343 263.1333 343 263.1333 "/>
<path id="17" d="M265 284.1333 C265 284.1333 282.9285 282.8918 300 284.1333 C309.897 284.8531 310.5967 287.8859 320 288.1333 C328.3817 288.3539 332.863 287.3349 338 285.1333 C339.484 284.4973 341 279.1333 341 279.1333 "/>
<path id="18" d="M244 303.1333 C244 303.1333 252.057 301.8544 259 303.1333 C270.2427 305.2044 270.7436 308.4568 282 310.1333 C293.2365 311.8068 294.9952 311.428 306 310.1333 C310.8011 309.5685 311.0766 307.0125 316 306.1333 C324.3533 304.6417 326.447 307.4412 334 305.1333 C342.6877 302.4788 351.9965 295.1348 352 295.1333 C352.0009 295.1329 348 299.1333 348 299.1333 "/>
<path id="19" d="M256 320.1333 L255 319.1333 "/>
<path id="20" d="M252 319.1333 C252 319.1333 266.7946 325.9495 281 327.1333 C313.0818 329.8068 318.6394 329.3918 348 327.1333 C353.0227 326.747 359 321.1333 359 321.1333 "/>
<path id="21" d="M244 352.1333 C244 352.1333 248.4382 351.2174 252 352.1333 C265.0516 355.4895 265.7525 359.2934 279 361.1333 C300.1674 364.0732 305.0118 365.4356 324 362.1333 C335.124 360.1987 348 349.1333 348 349.1333 "/>
<path id="22" d="M243 373.1333 C243 373.1333 262.2059 379.4627 281 381.1333 C306.2458 383.3774 307.2076 381.5632 333 381.1333 C336.9763 381.0671 337.7498 381.6107 341 380.1333 C353.0573 374.6527 366 366.1333 366 366.1333 "/>
<path id="23" d="M286 344.1333 L287 382.1333 "/>
<path id="24" d="M228 242.1333 C228 242.1333 216.0892 245.5964 214 248.1333 C212.689 249.7253 213.3706 254.0983 214 259.1333 C214.3004 261.5364 215.3614 263.9914 216 264.1333 C219.2388 264.8531 228.6367 264.4413 232 263.1333 C232.8893 262.7875 234.1133 259.7388 234 257.1333 C233.6718 249.5851 231 240.1333 231 240.1333 "/>
<path id="25" d="M363 234.1333 C363 234.1333 365.1546 247.4281 366 250.1333 C366.0312 250.2332 367.3716 250.4825 368 250.1333 C371.0724 248.4264 374.0937 246.946 375 245.1333 C375.6931 243.7472 375.2525 240.2805 374 238.1333 C372.5961 235.7266 368 233.1333 368 233.1333 "/>
<path id="26" d="M247 197.1333 C247 197.1333 251.2657 209.6648 253 213.1333 C253.0913 213.3159 254.9932 213.1739 255 213.1333 C255.2432 211.6739 255.3529 202.5451 255 201.1333 C254.9779 201.0451 252 201.1333 252 201.1333 "/>
<path id="27" d="M336 195.1333 C336 195.1333 331.4413 201.9448 330 207.1333 C329.3965 209.3058 330.0655 211.8874 331 213.1333 C331.796 214.1947 334.1421 215.1333 336 215.1333 C337.8579 215.1333 340.8082 213.8624 341 213.1333 C341.9836 209.3957 341 196.1333 341 196.1333 "/>
<path id="28" d="M256 385.1333 C256 385.1333 257.6346 382.4747 259 382.1333 C263.8245 380.9272 271.465 380.3309 272 381.1333 C274.1864 384.4129 275.9018 396.6874 277 409.1333 C277.2249 411.6817 276.6728 412.8816 275 415.1333 C264.5357 429.2198 251 444.1333 251 444.1333 "/>
<path id="29" d="M252 386.1333 C252 386.1333 243.8313 395.3993 242 404.1333 C237.9331 423.5292 238.5202 445.2547 239 448.1333 C239.0037 448.1554 244.6162 447.8381 249 446.1333 C253.0448 444.5603 257 441.1333 257 441.1333 "/>
<path id="30" d="M233 454.1333 C233 454.1333 241.4262 455.3464 243 456.1333 C243.2146 456.2406 243.5472 458.2073 243 459.1333 C238.1331 467.3696 230 478.1333 230 478.1333 "/>
<path id="31" d="M234 452.1333 C234 452.1333 224.2453 462.1018 221 469.1333 C219.7952 471.7437 221.8557 478.0612 222 478.1333 C222.118 478.1924 229 473.1333 229 473.1333 "/>
<path id="32" d="M337 383.1333 C337 383.1333 335.2426 381.211 334 381.1333 C328.8555 380.8118 324.2 380.2133 321 382.1333 C317.8 384.0533 313.6732 389.5386 314 393.1333 C315.4219 408.7737 319.5751 416.1454 326 437.1333 C326.7976 439.7389 327.7341 441.4301 329 442.1333 C330.3145 442.8636 334.8854 442.2479 335 442.1333 C335.0382 442.0951 333 438.1333 333 438.1333 "/>
<path id="33" d="M338 383.1333 C338 383.1333 340.9618 392.1735 342 400.1333 C342.3478 402.7998 340.4417 403.7885 341 406.1333 C342.5918 412.8191 345.3921 413.8976 347 421.1333 C348.1813 426.4493 348.5237 429.1336 347 433.1333 C345.4703 437.1489 342.3776 439.962 339 442.1333 C337.5299 443.0784 333 442.1333 333 442.1333 "/>
<path id="34" d="M343 445.1333 C343 445.1333 339.3829 446.2144 339 447.1333 C337.9122 449.7441 336.9358 453.113 338 457.1333 C340.9129 468.1378 346.5093 478.7908 348 481.1333 C348.0268 481.1754 351.9638 479.4958 352 479.1333 C352.1163 477.9704 349 471.1333 349 471.1333 "/>
<path id="35" d="M349 447.1333 C349 447.1333 346.7209 450.7143 347 453.1333 C347.9955 461.7613 349.0908 464.7695 352 473.1333 C352.5411 474.689 354.8985 475.5243 355 476.1333 C355.0773 476.5973 353.0373 479.1333 353 479.1333 C352.9814 479.1333 352 476.1333 352 476.1333 "/>
<path id="36" d="M256 229.1333 C256 229.1333 256.0794 240.9801 254 252.1333 C250.6479 270.1127 248.5801 270.2326 245 288.1333 C243.6551 294.8579 245.7321 295.6998 244 302.1333 C238.9624 320.8443 234.6876 322.7011 231 340.1333 C229.7714 345.9413 231.1851 347.6517 233 354.1333 C234.5456 359.6534 235.335 359.8033 238 365.1333 C238.7896 366.7126 239.6875 368.0708 240 368.1333 C240.3125 368.1958 243 366.1333 243 366.1333 "/>
<path id="37" d="M339 230.1333 C339 230.1333 343.0914 253.8623 349 275.1333 C350.2848 279.7585 352.7971 279.6225 354 284.1333 C356.5377 293.6496 354.1768 295.3606 357 305.1333 C360.4717 317.1506 363.8451 317.3741 367 329.1333 C369.0418 336.7435 368.616 338.4338 368 346.1333 C367.7 349.883 365.6841 350.2566 365 354.1333 C364.2781 358.224 364.5469 360.8677 365 363.1333 C365.0705 363.4858 367 364.1333 367 364.1333 "/>
<path id="38" d="M276 114.1333 C276 114.1333 276.2319 130.7009 277 133.1333 C277.0628 133.3322 281.9444 133.3113 282 133.1333 C282.5694 131.3113 282.8871 121.1251 282 117.1333 C281.8398 116.4126 278 115.1333 278 115.1333 "/>
</g>
</g>
</svg>
