<?xml version="1.0" encoding="utf-8"?>
<!DOCTYPE svg PUBLIC "-//W3C//DTD SVG 1.1//EN" "http://www.w3.org/Graphics/SVG/1.1/DTD/svg11.dtd">
<svg viewBox="0 0 800 800" preserveAspectRatio="xMinYMin meet" xmlns="http://www.w3.org/2000/svg" version="1.1">
<g fill="none" stroke="black" stroke-linecap="round" stroke-linejoin="round" stroke-width="1.9393">
<g transform="translate(125.4198,87.52) scale(1.5469) translate(-97,-77.1333)">
<path id="0" d="M251 79.1333 C251 79.1333 240.7552 77.6071 236 80.1333 C228.1927 84.2809 221.8254 89.1529 219 96.1333 C215.7894 104.0653 217.7857 109.687 219 122.1333 C219.7188 129.5007 219.6914 131.7568 223 137.1333 C226.4835 142.7941 228.5548 143.9752 235 148.1333 C243.3722 153.5347 244.9704 155.6822 254 157.1333 C270.34 159.7594 274.5873 158.8794 291 157.1333 C295.6718 156.6363 297.6413 154.9753 301 152.1333 C302.9063 150.5203 304 146.1333 304 146.1333 "/>
<path id="1" d="M247 77.1333 C247 77.1333 265.2141 74.0958 279 77.1333 C291.8659 79.9682 299.834 82.9103 306 90.1333 C311.9574 97.112 311.6138 104.4127 314 118.1333 C315.4614 126.5362 315.8478 128.742 314 136.1333 C312.3575 142.7034 310.5241 145.077 306 150.1333 C303.209 153.2526 297 155.1333 297 155.1333 "/>
<path id="2" d="M260 157.1333 L259 183.1333 "/>
<path id="3" d="M273 162.1333 L273 196.1333 "/>
<path id="4" d="M260 182.1333 C260 182.1333 260.5988 185.5365 260 187.1333 C259.506 188.4507 258.4899 189.6988 257 190.1333 C248.477 192.6192 246.395 193.5219 236 194.1333 C212.9928 195.4867 208.155 191.781 189 194.1333 C184.5741 194.6769 179 201.1333 179 201.1333 "/>
<path id="5" d="M271 192.1333 C271 192.1333 298.228 188.4589 321 190.1333 C329.4572 190.7552 330.3125 195.1062 339 197.1333 C344.3099 198.3723 350.4468 196.3035 351 197.1333 C352.5444 199.4499 349.951 211.1642 353 218.1333 C355.265 223.3104 359.982 223.0138 365 229.1333 C380.1168 247.5684 381.9915 248.2245 394 268.1333 C400.2556 278.5045 398.0901 281.5582 403 292.1333 C404.0206 294.3315 406.1657 293.9881 407 296.1333 C412.3894 309.9917 410.3693 313.3984 417 328.1333 C423.4763 342.5251 424.8069 343.1949 434 356.1333 C437.9235 361.6553 444 366.1333 444 366.1333 "/>
<path id="6" d="M178 201.1333 C178 201.1333 178.6411 209.997 176 213.1333 C166.1059 224.8825 159.1717 225.1384 146 239.1333 C135.8141 249.9559 134.2127 251.2477 128 264.1333 C121.4809 277.6544 124.4212 280.1018 119 295.1333 C113.5087 310.3591 110.3464 309.9208 106 325.1333 C99.6093 347.5009 96.9854 372.0651 97 372.1333 C97.0051 372.1572 108.2326 361.6728 112 353.1333 C114.206 348.1332 111.0579 344.7279 112 338.1333 C112.4037 335.3071 113.0148 334.5912 115 332.1333 C123.1401 322.0551 133 312.1333 133 312.1333 "/>
<path id="7" d="M183 232.1333 C183 232.1333 175.1042 236.5927 171 242.1333 C166.0187 248.8581 166.1467 250.4337 163 259.1333 C157.7398 273.6762 159.5977 275.3038 154 289.1333 C151.4646 295.3972 150.6545 295.9616 146 301.1333 C137.4909 310.5879 127 319.1333 127 319.1333 "/>
<path id="8" d="M183 232.1333 L186 407.1333 "/>
<path id="9" d="M341 222.1333 C341 222.1333 342.5462 232.6382 347 239.1333 C353.4005 248.4674 357.0722 247.681 365 257.1333 C369.7211 262.7624 370.5141 263.67 373 270.1333 C375.1291 275.6689 373.0759 277.1685 375 283.1333 C377.9021 292.1299 380.3466 292.2887 383 301.1333 C384.5998 306.4661 382.3655 307.8668 384 313.1333 C386.5867 321.4684 386.5605 323.334 392 330.1333 C409.4342 351.9261 411.6312 353.5332 432 373.1333 C437.1807 378.1186 439.1713 378.219 445 381.1333 C446.0286 381.6476 447.3446 381.6015 448 381.1333 C449.6542 379.9517 452 376.7199 452 376.1333 C452 375.7814 448 373.1333 448 373.1333 "/>
<path id="10" d="M340 226.1333 C340 226.1333 337.2293 281.4478 340 330.1333 C340.5168 339.2143 344.4906 339.7231 347 349.1333 C348.3549 354.2143 348 360.1333 348 360.1333 "/>
<path id="11" d="M345 354.1333 L346 362.1333 "/>
<path id="12" d="M187 406.1333 L261 406.1333 "/>
<path id="13" d="M344 359.1333 C344 359.1333 344.3339 371.6739 341 378.1333 C337.9644 384.0147 333.2589 389.4321 328 390.1333 C305.7636 393.0982 296.0774 387.3907 266 388.1333 C256.7274 388.3623 250.4573 390.059 247 392.1333 C246.063 392.6955 245.2218 399.1429 246 400.1333 C247.6643 402.2516 253.6326 403.0137 258 406.1333 C259.3026 407.0637 259.3729 410.0288 260 410.1333 C263.7235 410.7539 276 409.1333 276 409.1333 "/>
<path id="14" d="M229 408.1333 C229 408.1333 231.101 429.2239 229 448.1333 C227.751 459.3739 224.0788 460.3927 222 471.1333 C221.3337 474.576 223 479.1333 223 479.1333 "/>
<path id="15" d="M301 387.1333 C301 387.1333 300.3621 397.5602 303 406.1333 C308.0172 422.4391 311.2315 422.9816 317 439.1333 C318.4204 443.1105 316.5548 444.8301 318 448.1333 C319.4739 451.5022 322.0417 451.3319 324 455.1333 C330.1454 467.0627 335 481.1333 335 481.1333 "/>
<path id="16" d="M194 335.1333 C194 335.1333 194.3754 338.6872 195 339.1333 C196.0873 339.91 198.0304 340.0609 201 340.1333 C218.2524 340.5541 223.3293 341.1337 236 340.1333 C237.1718 340.0408 237.6966 337.5243 239 337.1333 C241.3394 336.4315 243.0205 336.282 246 337.1333 C252.6887 339.0444 260.0051 343.1238 260 343.1333 C259.9391 343.2465 249.0873 348.8176 239 350.1333 C227.5517 351.6266 225.2372 351.4853 214 349.1333 C205.23 347.2978 204.8863 343.1529 196 341.1333 C184.138 338.4374 170 339.1333 170 339.1333 "/>
<path id="17" d="M285 332.1333 C285 332.1333 279.9961 331.1355 280 331.1333 C280.012 331.1265 286.1143 328.4665 292 328.1333 C311.829 327.0109 332.9955 328.1326 333 328.1333 C333.0017 328.1336 324.7948 331.7944 317 332.1333 C291.4783 333.243 264 331.1333 264 331.1333 "/>
<path id="18" d="M192 308.1333 C192 308.1333 198.0986 305.6118 204 305.1333 C216.0503 304.1563 220.0631 306.366 229 305.1333 C230.6271 304.9089 231.7361 301.675 233 301.1333 C233.5687 300.8896 235.8724 301.942 236 302.1333 C236.0567 302.2184 235.6151 303.7978 235 304.1333 C231.4166 306.0879 229.7706 307.7358 225 308.1333 C207.4565 309.5953 187 308.1333 187 308.1333 "/>
<path id="19" d="M305 299.1333 C305 299.1333 305.2798 296.6735 306 296.1333 C308.0499 294.5959 309.6724 293.4661 313 293.1333 C323.4841 292.0849 335.771 293.0697 336 293.1333 C336.0359 293.1433 333.4111 297.0205 331 298.1333 C328.2082 299.4219 326.9757 299.074 323 299.1333 C293.7339 299.5701 264.4218 299.182 264 299.1333 C263.9549 299.1281 267.2498 295.1789 271 293.1333 C277.6708 289.4947 278.8305 287.7951 286 287.1333 C309.0475 285.0059 336 287.1333 336 287.1333 "/>
<path id="20" d="M193 268.1333 C193 268.1333 199.8206 263.0161 206 262.1333 C218.9322 260.2859 234.8044 262.08 235 262.1333 C235.0362 262.1432 231.5625 266.2333 228 268.1333 C224.8334 269.8222 223.9103 269.9985 220 270.1333 C195.7697 270.9689 170 270.1333 170 270.1333 "/>
<path id="21" d="M276 252.1333 C276 252.1333 309.9631 249.9084 340 252.1333 C348.1871 252.7398 357 258.0965 357 258.1333 C357 258.1701 348.198 263.4686 340 264.1333 C313.2773 266.3 283 264.1333 283 264.1333 "/>
<path id="22" d="M186 240.1333 C186 240.1333 189.7164 237.2975 193 237.1333 C217.3398 235.9163 220.6003 235.6169 246 237.1333 C252.8238 237.5407 259.061 240.9992 260 241.1333 C260.0184 241.136 260 239.1333 260 239.1333 C253.4908 239.1333 204 241.1333 204 241.1333 "/>
<path id="23" d="M277 228.1333 C277 228.1333 282.7379 224.4257 288 224.1333 C316.6031 222.5443 333.0941 223.1234 349 224.1333 C349.5877 224.1706 351.1929 227.8577 351 228.1333 C350.0874 229.4371 346.6564 232.304 342 234.1333 C333.4046 237.5101 332.3434 237.7593 323 239.1333 C315.8985 240.1777 308 239.1333 308 239.1333 "/>
<path id="24" d="M237 105.1333 L243 96.1333 "/>
<path id="25" d="M244 96.1333 C244 96.1333 241.0157 96.929 241 97.1333 C240.8487 99.1004 241.7478 106.8079 243 109.1333 C243.3535 109.7899 247.625 110.3833 248 110.1333 C248.375 109.8833 249 105.1333 249 105.1333 "/>
<path id="26" d="M271 93.1333 C271 93.1333 271.7383 98.3639 274 102.1333 C278.8584 110.2307 284.2528 117.2137 286 118.1333 C286.3287 118.3063 291.5051 114.6961 293 112.1333 C293.8895 110.6084 293.9736 107.3017 293 106.1333 C289.0243 101.3625 284.3987 98.1746 278 94.1333 C276.8664 93.4174 275.1657 93.5505 274 94.1333 C272.2515 95.0076 270 98.1333 270 98.1333 "/>
<path id="27" d="M244 100.1333 C244 100.1333 243.7561 103.9382 244 104.1333 C244.3811 104.4382 247.4525 104.9071 249 104.1333 C252.095 102.5858 254.0791 101.0147 256 98.1333 C257.2006 96.3325 257.3115 92.6784 257 92.1333 C256.7787 91.7461 253.9369 90.7029 252 91.1333 C246.2794 92.4046 239 96.1333 239 96.1333 "/>
<path id="28" d="M255 112.1333 C255 112.1333 252.9406 124.9996 253 125.1333 C253.0065 125.1481 256.7993 121.2492 259 121.1333 C263.5506 120.8938 271.4955 124.5214 272 124.1333 C272.4719 123.7704 272 111.1333 272 111.1333 "/>
<path id="29" d="M249 132.1333 C249 132.1333 294.5595 131.5141 301 132.1333 C301.0595 132.1391 301.3254 137.0051 301 137.1333 C295.0277 139.486 284.2553 142.6797 268 145.1333 C258.4961 146.5679 257.4878 146.0821 248 145.1333 C243.1138 144.6447 239.4535 143.4415 238 142.1333 C237.382 141.5771 237.2642 138.5247 238 136.1333 C239.0094 132.8529 241.5579 129.2217 242 129.1333 C242.4093 129.0515 245.3073 133.2919 248 134.1333 C251.5605 135.246 255.0768 135.0328 258 134.1333 C259.2368 133.7528 260.92 130.1033 261 130.1333 C261.4068 130.2859 264.5254 133.6926 266 137.1333 C267.1981 139.9289 266.5539 143.6873 267 144.1333 C267.223 144.3564 271.0232 144.1101 272 143.1333 C273.9536 141.1797 275.4047 135.3715 276 135.1333 C276.3638 134.9878 281.3914 139.2993 282 139.1333 C282.8565 138.8997 287 132.1333 287 132.1333 "/>
<path id="30" d="M259 133.1333 L252 146.1333 "/>
</g>
</g>
</svg>
