<?xml version="1.0" encoding="utf-8"?>
<!DOCTYPE svg PUBLIC "-//W3C//DTD SVG 1.1//EN" "http://www.w3.org/Graphics/SVG/1.1/DTD/svg11.dtd">
<svg viewBox="0 0 800 800" preserveAspectRatio="xMinYMin meet" xmlns="http://www.w3.org/2000/svg" version="1.1">
<g fill="none" stroke="black" stroke-linecap="round" stroke-linejoin="round" stroke-width="1.2241">
<g transform="translate(105.9012,87.52) scale(2.4508) translate(-186,-123)">
<path id="0" d="M186 378 C186 378 184.9764 372.2178 186 370 C186.9941 367.8462 190.5961 367.4067 192 365 C193.2525 362.8528 191.5808 360.4837 193 358 C196.8025 351.3456 199.7672 350.7019 204 344 C205.138 342.1982 204.135 340.0091 205 339 C205.9282 337.917 208.8404 338.4688 210 337 C214.8539 330.8517 214.6733 325.8874 220 320 C222.4832 317.2554 225.7372 318.6103 229 316 C232.3163 313.347 231.675 310.85 235 308 C237.9555 305.4667 243 304 243 304 "/>
<path id="1" d="M243 304 C243 304 243.5765 298.9427 242 296 C236.921 286.5192 233.2634 286.5268 228 276 C218.1555 256.311 213.3244 250.5292 211 234 C209.9069 226.227 214.7465 220.8614 219 212 C219.8099 210.3128 222.1699 210.6602 223 209 C225.9053 203.1893 224.6824 199.8058 228 194 C229.8578 190.7488 233.2557 190.4919 235 188 C235.6401 187.0855 234.3942 184.7789 235 184 C236.5819 181.9661 239.4911 181.7598 242 179 C243.9269 176.8804 243.0837 174.384 245 173 C250.2407 169.2151 253.596 170.2693 260 166 C264.8844 162.7437 265.1889 159.45 269 157 C270.2888 156.1715 272.3095 157.8875 274 157 C289.5609 148.8305 291.6437 144.8628 309 136 C314.1366 133.377 315.7522 135.2096 321 133 C324.6026 131.4831 324.9024 128.2853 328 128 C356.725 125.3543 397 126 397 126 "/>
<path id="2" d="M244 303 C244 303 252.6766 311.2188 262 316 C271.2943 320.7663 272.714 321.7899 283 323 C305.2077 325.6127 307.5329 325.6048 330 324 C341.2165 323.1988 343.094 322.2026 353 318 C358.1939 315.7965 359.2069 314.5517 363 310 C368.6509 303.2189 369.9745 301.7012 373 294 C374.8814 289.2109 374.5608 287.047 374 282 C373.7013 279.3114 371 278.1179 371 276 C371 273.1761 372.8773 269.4969 374 268 C374.2464 267.6714 376.865 268.18 377 268 C377.24 267.68 376.76 264.32 377 264 C377.135 263.82 379.8098 264.3091 380 264 C381.6566 261.308 382.7155 254.9979 385 251 C385.391 250.3157 387.7895 250.5525 388 250 C390.1515 244.3523 390.3483 237.2923 393 230 C393.3757 228.9669 395.4702 229.0596 396 228 C397.3623 225.2753 396.6174 222.3043 398 220 C398.6612 218.8979 401.8662 218.7786 402 218 C405.1472 199.6889 404.7156 185.5626 409 156 C409.5055 152.512 410.4626 151.0499 412 149 C412.5402 148.2798 414.8487 148.4034 415 148 C415.4984 146.671 414.0814 143.8871 415 141 C417.2607 133.8948 418.928 130.4683 422 126 C422.5814 125.1543 426 125 426 125 "/>
<path id="3" d="M399 123 L424 124 "/>
<path id="4" d="M403 124 L399 126 "/>
<path id="5" d="M246 302 C246 302 246.8501 294.5297 248 292 C248.2491 291.4519 250.6391 291.6993 251 291 C256.1992 280.9265 260.0866 267.906 264 261 C264.2374 260.5811 267.3957 261.6043 268 261 C271.0214 257.9786 271.4052 253.8367 276 249 C280.3252 244.4471 282.54 245.46 287 241 C290.5211 237.4789 289.4792 234.9649 293 232 C297.8991 227.8745 303.0047 227.5345 306 225 C306.5357 224.5467 305.3111 221.7164 306 221 C313.9289 212.754 320.5866 210.6385 331 199 C336.6452 192.6907 336.9685 187.042 340 183 C340.2998 182.6002 342.469 183.4647 343 183 C344.9693 181.2769 345.269 178.1007 348 176 C350.7107 173.9148 353.009 174.994 356 173 C358.1934 171.5377 358.3094 169.0566 360 168 C360.9491 167.4068 363.1947 168.7086 364 168 C372.1251 160.8499 373.9692 156.1823 385 146 C393.2577 138.3775 393.9305 138.8928 403 132 C406.4201 129.4007 406.5739 128.3704 410 127 C413.1977 125.7209 418 126 418 126 "/>
<path id="6" d="M341 193 C341 193 356.4135 193.7481 369 192 C372.8269 191.4685 373.255 188.428 377 188 C388.9562 186.6336 404 188 404 188 "/>
<path id="7" d="M341 178 C341 178 342.5289 165.4133 344 161 C344.1635 160.5096 346.9271 160.3402 347 160 C347.5768 157.3084 347.853 152.9709 347 147 C346.447 143.1288 344 139 344 139 "/>
<path id="8" d="M317 208 L302 155 "/>
<path id="9" d="M309 220 C309 220 313.1546 222.6504 317 223 C328.6207 224.0564 331.683 224.3312 342 223 C344.6891 222.653 345.9131 219.1304 348 219 C351.2764 218.7952 353.3218 221.8491 358 222 C367.7001 222.3129 379 220 379 220 "/>
<path id="10" d="M287 234 C287 234 279.5029 228.263 279 226 C278.5314 223.8913 282.786 219.8521 283 216 C283.164 213.0481 280 209.5061 280 208 C280 207.6235 283 206.5396 283 206 C283 197.9059 280 176 280 176 "/>
<path id="11" d="M277 261 C277 261 279.2022 258.3852 281 258 C284.8722 257.1702 287.0369 256.8991 291 258 C294.7209 259.0336 295.2644 262.3942 299 263 C311.3643 265.005 313.9134 262.1526 328 264 C343.9178 266.0876 360 271 360 271 "/>
<path id="12" d="M259 274 C259 274 253.5946 265.081 251 256 C247.7842 244.7446 247.9763 243.7151 247 232 C246.5219 226.2628 248 220 248 220 "/>
</g>
</g>
</svg>
