<?xml version="1.0" encoding="utf-8"?>
<!DOCTYPE svg PUBLIC "-//W3C//DTD SVG 1.1//EN" "http://www.w3.org/Graphics/SVG/1.1/DTD/svg11.dtd">
<svg viewBox="0 0 800 800" preserveAspectRatio="xMinYMin meet" xmlns="http://www.w3.org/2000/svg" version="1.1">
<g fill="none" stroke="black" stroke-linecap="round" stroke-linejoin="round" stroke-width="1.0561">
<g transform="translate(195.4676,87.52) scale(2.8407) translate(-175,-148)">
<path id="0" d="M271 328 C271 328 273.9853 332.6874 275 337 C275.8166 340.4705 276.0738 341.6712 275 345 C271.4799 355.9125 265.2362 366.9137 265 368 C264.9898 368.0469 268.7112 368.8285 270 368 C273.8111 365.55 278.5554 362.2012 279 359 C280.1471 350.741 278.4613 334.6921 275 332 C268.4621 326.9149 252.5348 330.1783 234 324 C222.8225 320.2742 222.2536 318.2525 212 311 C202.035 303.9516 201.0428 303.6173 193 295 C187.6593 289.2779 187.1904 288.2315 184 281 C179.9794 271.8866 180.5152 271.0608 178 261 C176.0405 253.1619 175.4024 252.8472 175 245 C174.4283 233.852 174.9683 230.5974 176 222 C176.1 221.167 177.2976 220.078 178 220 C180.1776 219.758 181.7928 219.9309 185 221 C194.9131 224.3044 197.0149 225.0074 205 229 C206.1645 229.5822 207.0002 232.0037 207 232 C206.9986 231.9747 203.7269 220.5594 204 211 C204.1843 204.5487 205.2774 203.612 208 197 C215.6561 178.4067 215.4161 176.7718 225 160 C228.7515 153.4349 234.9678 147.8471 236 148 C238.056 148.3046 244.8723 155.4468 252 164 C262.165 176.198 263.4689 176.6114 271 190 C276.4398 199.6708 274.56 202.38 279 212 C280.0103 214.189 282.9884 216.0106 283 216 C283.6312 215.4261 285.8341 208.3586 290 202 C295.1243 194.1786 301.2647 187.035 302 187 C302.4819 186.9771 307.4976 193.7616 311 201 C314.7979 208.849 315.801 209.6068 317 218 C319.6379 236.465 320.5956 238.6507 319 257 C317.7385 271.5068 316.0644 272.651 311 287 C307.2153 297.7232 306.9354 298.5573 301 308 C296.3138 315.4553 295.5604 316.6545 289 322 C282.969 326.9142 274 330 274 330 "/>
<path id="1" d="M271 326 C271 326 270.2624 301.485 265 279 C259.4831 255.4278 253.9231 255.3198 249 232 C244.736 211.8022 246 189 246 189 "/>
<path id="2" d="M268 289 C268 289 279.7602 273.3932 289 257 C295.0359 246.2911 299 234 299 234 "/>
<path id="3" d="M266 287 C266 287 245.9162 283.3896 230 276 C219.5598 271.1527 220.0435 267.2339 210 261 C206.278 258.6898 204.3277 260.0478 201 258 C198.8287 256.6638 197 253 197 253 "/>
</g>
</g>
</svg>
