<?xml version="1.0" encoding="utf-8"?>
<!DOCTYPE svg PUBLIC "-//W3C//DTD SVG 1.1//EN" "http://www.w3.org/Graphics/SVG/1.1/DTD/svg11.dtd">
<svg viewBox="0 0 800 800" preserveAspectRatio="xMinYMin meet" xmlns="http://www.w3.org/2000/svg" version="1.1">
<g fill="none" stroke="black" stroke-linecap="round" stroke-linejoin="round" stroke-width="1.0657">
<g transform="translate(87.52,283.1719) scale(2.8151) translate(-177.3611,-203.0556)">
<path id="0" d="M247.3611 235.0556 C247.3611 235.0556 242.1451 226.0595 239.3611 218.0556 C238.5167 215.628 238.473 213.0071 239.3611 212.0556 C242.6274 208.556 246.9288 204.3141 253.3611 203.0556 C266.4209 200.5004 269.9731 201.3182 285.3611 203.0556 C300.1674 204.7272 302.0314 204.0633 315.3611 210.0556 C354.7231 227.7504 369.5503 233.7428 394.3611 252.0556 C398.8185 255.3455 400.6365 268.1018 399.3611 272.0556 C398.2625 275.4613 391.1069 281.7064 384.3611 283.0556 C368.6731 286.1932 362.9902 285.8247 344.3611 283.0556 C327.7649 280.5886 326.9505 275.0471 310.3611 272.0556 C297.9134 269.8109 294.3828 270.2186 283.3611 272.0556 C279.279 272.7359 278.7633 276.7978 274.3611 278.0556 C266.3198 280.3531 263.1857 281.0652 255.3611 280.0556 C250.028 279.3674 247.151 277.6225 243.3611 274.0556 C240.266 271.1425 239.0646 268.6285 238.3611 264.0556 C237.3259 257.3268 237.0894 253.6316 239.3611 248.0556 C241.4482 242.9327 249.448 237.0794 249.3611 237.0556 C248.7385 236.8844 223.2227 235.2748 199.3611 237.0556 C191.0701 237.6743 189.402 238.8551 182.3611 242.0556 C179.7042 243.2633 177.3611 247.0556 177.3611 247.0556 "/>
<path id="1" d="M248.3611 241.0556 C248.3611 241.0556 282.8209 236.8146 312.3611 242.0556 C341.6934 247.2597 347.0689 252.5496 372.3611 263.0556 C375.1185 264.2009 377.3611 269.0556 377.3611 269.0556 "/>
<path id="2" d="M257.3611 242.0556 C257.3611 242.0556 257.6445 237.5525 259.3611 235.0556 C262.4741 230.5276 263.6196 229.1375 268.3611 226.0556 C272.7035 223.233 274.1467 222.5025 279.3611 222.0556 C290.3547 221.1133 303.3611 223.0556 303.3611 223.0556 "/>
<path id="3" d="M260.3611 235.0556 C260.3611 235.0556 262.7035 249.6352 267.3611 262.0556 C269.8766 268.7636 270.9969 268.9457 275.3611 275.0556 C278.3927 279.2998 278.6798 280.5247 282.3611 283.0556 C285.6191 285.2954 288.3701 285.8063 291.3611 286.0556 C292.2773 286.1319 294.3611 284.0556 294.3611 284.0556 "/>
<path id="4" d="M300.3611 239.0556 C300.3611 239.0556 299.3625 243.6158 300.3611 247.0556 C303.5584 258.0684 303.6861 260.408 309.3611 270.0556 C312.8652 276.0126 317.0921 278.7206 320.3611 281.0556 C320.7574 281.3386 323.0936 280.5014 323.3611 280.0556 C323.7433 279.4186 323.3611 276.0556 323.3611 276.0556 "/>
<path id="5" d="M309.3611 244.0556 C309.3611 244.0556 312.1165 241.2328 314.3611 241.0556 C328.5054 239.9389 347.3611 241.0556 347.3611 241.0556 "/>
<path id="6" d="M341.3611 251.0556 C341.3611 251.0556 343.8327 258.5868 347.3611 265.0556 C349.6639 269.2773 350.391 269.7142 353.3611 273.0556 C353.9799 273.7517 355.3611 274.0556 355.3611 274.0556 C355.3718 274.0341 354.3611 271.0556 354.3611 271.0556 "/>
<path id="7" d="M346.3611 253.0556 C346.3611 253.0556 356.6574 252.1993 366.3611 253.0556 C373.2821 253.6662 380.3611 256.0556 380.3611 256.0556 "/>
</g>
</g>
</svg>
