<?xml version="1.0" encoding="utf-8"?>
<!DOCTYPE svg PUBLIC "-//W3C//DTD SVG 1.1//EN" "http://www.w3.org/Graphics/SVG/1.1/DTD/svg11.dtd">
<svg viewBox="0 0 800 800" preserveAspectRatio="xMinYMin meet" xmlns="http://www.w3.org/2000/svg" version="1.1">
<g fill="none" stroke="black" stroke-linecap="round" stroke-linejoin="round" stroke-width="2.0209">
<g transform="translate(87.52,97.169) scale(1.4845) translate(-102,-35.4167)">
<path id="0" d="M211 183.4167 C211 183.4167 223.2896 149.7873 241 122.4167 C255.1605 100.5322 260.7206 102.8759 277 81.4167 C293.3862 59.8166 303.501 39.4017 307 35.4167 C307.013 35.4019 310.7893 37.4954 313 40.4167 C324.2728 55.3128 325.9771 55.7956 335 72.4167 C344.5861 90.0752 341.645 92.3303 351 110.4167 C363.9381 135.4303 367.2482 134.5843 380 159.4167 C385.912 170.9295 389 184.4167 389 184.4167 "/>
<path id="1" d="M388 184.4167 C388 184.4167 406.6052 181.2723 424 182.4167 C443.6218 183.7076 445.002 183.7948 464 189.4167 C493.1306 198.0369 522 211.4167 522 211.4167 "/>
<path id="2" d="M211 182.4167 C211 182.4167 201.4029 180.9553 193 182.4167 C179.2793 184.8029 178.5417 185.5136 165 190.4167 C149.7882 195.9244 149.1557 195.7771 135 203.4167 C118.046 212.5665 102 224.4167 102 224.4167 "/>
<path id="3" d="M105 226.4167 C105 226.4167 113.4116 245.1024 125 258.4167 C135.6719 270.678 138.1244 270.01 152 280.4167 C166.035 290.943 166.1757 291.2697 181 300.4167 C189.446 305.628 190.8316 304.1467 199 309.4167 C205.8956 313.8654 212 320.4167 212 320.4167 "/>
<path id="4" d="M523 216.4167 C523 216.4167 498.8678 233.3405 477 252.4167 C452.1027 274.1356 453.7314 276.6931 429 298.4167 C417.0577 308.9065 403 317.4167 403 317.4167 "/>
<path id="5" d="M212 323.4167 C212 323.4167 195.4212 348.2558 180 373.4167 C176.527 379.0831 175.5529 379.7228 174 385.4167 C172.8612 389.5922 173.4848 395.1455 174 395.4167 C175.8598 396.3955 184.1069 396.7848 193 395.4167 C202.7932 393.91 203.9947 393.8577 213 389.4167 C239.5915 376.303 241.2574 375.5532 266 359.4167 C274.7911 353.6833 275.3618 351.7925 282 344.4167 C283.5354 342.7107 284 339.4167 284 339.4167 "/>
<path id="6" d="M403 318.4167 C403 318.4167 409.0645 320.2016 412 323.4167 C418.4311 330.4602 419.418 332.0445 424 341.4167 C430.1221 353.9391 430.1529 354.9519 434 368.4167 C436.0064 375.439 436.4061 382.8887 436 383.4167 C435.7819 383.7002 429.2944 383.4249 424 381.4167 C415.529 378.2035 415.2437 374.8413 407 372.4167 C399.7435 370.2824 397.9111 373.1272 390 371.4167 C380.1142 369.2792 379.6019 368.5318 370 364.4167 C362.3065 361.1195 361.5843 361.2581 355 356.4167 C345.0679 349.1136 343.7387 348.5373 336 339.4167 C330.4774 332.9079 330.9295 327.8702 327 323.4167 C325.9669 322.2459 322.8079 322.1907 321 322.4167 C320.3076 322.5032 319.4048 323.3642 319 324.4167 C317.2233 329.036 316.1431 330.0738 316 335.4167 C314.6955 384.118 315.1008 387.8577 316 436.4167 C316.0627 439.8 318.0342 443.4024 318 443.4167 C317.5084 443.6215 304.1994 442.1343 304 441.4167 C302.8866 437.4085 307.8472 424.226 308 407.4167 C308.3411 369.8966 307.4319 350.6288 305 331.4167 C304.8763 330.4392 299.9403 328.0082 298 328.4167 C293.8948 329.2809 290.8377 331.4327 286 335.4167 C283.0686 337.8308 281 342.4167 281 342.4167 "/>
<path id="7" d="M312 65.4167 C312 65.4167 317.7816 130.3249 317 194.4167 C316.2902 252.6224 309 311.4167 309 311.4167 "/>
<path id="8" d="M302 181.4167 C302 181.4167 284.7613 169.4494 273 156.4167 C267.6631 150.5029 265 140.4167 265 140.4167 "/>
<path id="9" d="M327 178.4167 C327 178.4167 337.757 174.2812 341 169.4167 C345.4223 162.7832 347 148.4167 347 148.4167 "/>
<path id="10" d="M297 252.4167 C297 252.4167 275.1051 252.6651 272 252.4167 C271.9801 252.4151 272.1379 250.4679 272 250.4167 C264.7461 247.7224 253.4754 246.4429 237 239.4167 C220.1156 232.216 215.9734 228.812 204 221.4167 C203.2257 220.9384 203 218.4167 203 218.4167 "/>
<path id="11" d="M332 251.4167 C332 251.4167 350.6711 252.9558 369 252.4167 C384.4126 251.9634 385.2987 252.708 400 249.4167 C417.9575 245.3963 436 237.4167 436 237.4167 "/>
<path id="12" d="M273 306.4167 C273 306.4167 265.5463 306.5002 261 309.4167 C241.1209 322.1693 220 340.4167 220 340.4167 "/>
<path id="13" d="M337 295.4167 C337 295.4167 348.5866 297.4076 356 302.4167 C365.423 308.7836 364.2946 313.0221 374 320.4167 C384.6089 328.4996 398 334.4167 398 334.4167 "/>
</g>
</g>
</svg>
