<?xml version="1.0" encoding="utf-8"?>
<!DOCTYPE svg PUBLIC "-//W3C//DTD SVG 1.1//EN" "http://www.w3.org/Graphics/SVG/1.1/DTD/svg11.dtd">
<svg viewBox="0 0 800 800" preserveAspectRatio="xMinYMin meet" xmlns="http://www.w3.org/2000/svg" version="1.1">
<g fill="none" stroke="black" stroke-linecap="round" stroke-linejoin="round" stroke-width="1.7761">
<g transform="translate(237.8482,87.52) scale(1.6891) translate(-163,-32)">
<path id="0" d="M255 333 C255 333 239.3506 328.417 226 321 C208.4904 311.2724 207.0443 310.6372 192 298 C182.9825 290.4253 181.5308 289.0373 176 279 C168.8299 265.9876 166.2671 263.5225 165 249 C160.1226 193.0978 162.6228 189.2199 163 130 C163.1205 111.0779 165.4193 110.9691 166 92 C166.9147 62.121 164.8491 37.1346 166 32 C166.0175 31.9218 174.339 31.2901 179 34 C193.2737 42.2987 194.6757 48.2657 209 57 C212.9759 59.4243 216.1608 56.4871 220 59 C240.6645 72.5259 241.263 77.9404 264 93 C279.1284 103.0201 281.7467 100.2934 297 110 C308.6457 117.4109 309.8276 118.0839 319 128 C327.5804 137.2762 327.0742 138.7868 334 150 C337.4792 155.633 337.8596 155.8042 340 162 C347.2231 182.9089 349.7455 183.7373 353 205 C357.0008 231.1383 356.4159 234.5145 355 260 C354.5529 268.0481 353.471 269.8706 349 277 C335.7696 298.0971 318 319 318 319 "/>
<path id="1" d="M247 333 C247 333 260.1229 338.254 273 340 C288.8332 342.1469 299.5019 337.6717 306 341 C309.5375 342.8119 311.6035 350.9007 314 361 C318.4238 379.6431 317.1099 389.2279 320 400 C320.2378 400.8864 323.5962 402.4529 325 402 C334.6293 398.8938 344.9048 393.7509 351 390 C351.4494 389.7234 351.6864 387.4218 351 386 C345.5504 374.7115 344.7315 372.855 337 361 C329.8791 350.0813 325.6508 350.2808 321 340 C317.3178 331.8603 318 319 318 319 "/>
<path id="2" d="M177 50 C177 50 188.9617 85.1669 205 118 C241.7395 193.212 246.6308 191.7899 283 267 C297.8207 297.6487 308 331 308 331 "/>
</g>
</g>
</svg>
