<?xml version="1.0" encoding="utf-8"?>
<!DOCTYPE svg PUBLIC "-//W3C//DTD SVG 1.1//EN" "http://www.w3.org/Graphics/SVG/1.1/DTD/svg11.dtd">
<svg viewBox="0 0 800 800" preserveAspectRatio="xMinYMin meet" xmlns="http://www.w3.org/2000/svg" version="1.1">
<g fill="none" stroke="black" stroke-linecap="round" stroke-linejoin="round" stroke-width="2.9378">
<g transform="translate(87.52,307.0729) scale(1.0212) translate(-25,-173.4167)">
<path id="0" d="M480 209.4167 C480 209.4167 480.1073 207.4524 480 207.4167 C477.4248 206.5583 472.5314 205.3581 465 204.4167 C444.6715 201.8756 444.4455 201.0556 424 200.4167 C380.7475 199.065 379.7712 197.2026 337 200.4167 C294.2401 203.6298 293.0072 204.395 251 213.4167 C219.2644 220.2324 218.7463 221.348 188 232.4167 C156.5846 243.7262 156.329 244.4449 126 258.4167 C112.0977 264.8211 111.8714 265.1422 99 273.4167 C84.0712 283.0138 83.8323 283.2013 70 294.4167 C46.9732 313.087 25 333.4167 25 333.4167 "/>
<path id="1" d="M481 212.4167 C481 212.4167 449.9312 247.0227 416 274.4167 C396.8334 289.8906 394.7388 289.6254 372 300.4167 C336.3868 317.3178 335.2608 317.5681 298 330.4167 C277.9225 337.34 277.1437 337.0064 256 340.4167 C200.0442 349.4418 198.7966 351.5011 143 355.4167 C114.7283 357.4006 111.9578 355.2332 85 352.4167 C80.6462 351.9618 80.5243 349.3019 76 348.4167 C58.4358 344.9802 56.2423 347.0853 39 343.4167 C33.9883 342.3503 29 338.4167 29 338.4167 "/>
<path id="2" d="M25 333.4167 L35 338.4167 "/>
<path id="3" d="M478 211.4167 C478 211.4167 404.6039 245.0737 330 273.4167 C290.6453 288.368 289.8404 290.4755 249 298.4167 C165.4431 314.6638 163.1115 309.118 78 322.4167 C51.3494 326.5808 25 333.4167 25 333.4167 "/>
<path id="4" d="M461 219.4167 C461 219.4167 440.9888 227.4195 421 232.4167 C409.5613 235.2763 408.9499 234.8895 397 235.4167 C375.212 236.3779 353 235.4167 353 235.4167 "/>
<path id="5" d="M375 249.4167 L375 250.4167 "/>
<path id="6" d="M382 254.4167 C382 254.4167 368.0627 262.622 354 266.4167 C337.6364 270.8322 336.4 270.6468 319 271.4167 C280.4664 273.1217 279.1447 273.9597 241 271.4167 C220.1997 270.03 199 263.4167 199 263.4167 "/>
<path id="7" d="M275 294.4167 C275 294.4167 241.9717 296.2974 210 294.4167 C191.6272 293.3359 190.8402 292.8081 173 288.4167 C158.8762 284.9401 145 278.4167 145 278.4167 "/>
<path id="8" d="M187 308.4167 C187 308.4167 169.4345 308.0058 153 304.4167 C126.4794 298.6248 100 289.4167 100 289.4167 "/>
<path id="9" d="M132 315.4167 C132 315.4167 107.2758 316.9364 86 315.4167 C81.2427 315.0769 76 311.4167 76 311.4167 "/>
<path id="10" d="M130 322.4167 L127 321.4167 "/>
<path id="11" d="M132 316.4167 C132 316.4167 121.152 313.985 114 316.4167 C98.9887 321.5205 96.805 324.4557 82 333.4167 C78.6281 335.4576 76 339.4167 76 339.4167 "/>
<path id="12" d="M189 310.4167 C189 310.4167 169.1394 308.4404 153 310.4167 C146.8425 311.1707 144.8951 312.3656 140 316.4167 C131.5816 323.3836 124 334.4167 124 334.4167 "/>
<path id="13" d="M271 296.4167 C271 296.4167 264.3975 294.1463 260 295.4167 C244.3807 299.9289 239.8357 300.3606 226 309.4167 C214.6529 316.8439 205 331.4167 205 331.4167 "/>
<path id="14" d="M376 259.4167 C376 259.4167 366.1944 264.8061 356 268.4167 C342.4441 273.2177 338.2533 269.761 328 276.4167 C313.227 286.0062 299 305.4167 299 305.4167 "/>
<path id="15" d="M455 224.4167 C455 224.4167 435.9235 233.7802 420 245.4167 C410.694 252.2172 403 262.4167 403 262.4167 "/>
<path id="16" d="M479 210.4167 C479 210.4167 478.7451 207.53 479 207.4167 C489.0483 202.9507 501.1965 196.5637 524 190.4167 C557.9293 181.2705 594 176.4167 594 176.4167 "/>
<path id="17" d="M494 204.4167 C494 204.4167 507.7025 204.0412 520 200.4167 C554.4205 190.2717 554.8335 185.3729 589 176.4167 C604.7857 172.2787 623 173.4167 623 173.4167 "/>
<path id="18" d="M488 209.4167 C488 209.4167 497.5309 200.2076 508 195.4167 C525.8204 187.2616 527.435 186.9317 547 182.4167 C565.705 178.1001 566.6384 178.2772 586 177.4167 C611.1536 176.2987 637 178.4167 637 178.4167 "/>
<path id="19" d="M429 197.4167 C429 197.4167 417.6829 195.1289 407 194.4167 C403.1824 194.1622 399.522 195.1184 399 195.4167 C398.9565 195.4415 400.0141 198.4106 400 198.4167 C399.605 198.586 392 198.4167 392 198.4167 "/>
<path id="20" d="M289 207.4167 L266 208.4167 "/>
<path id="21" d="M434 230.4167 C434 230.4167 372.1896 235.3999 317 232.4167 C302.1084 231.6117 286 222.4167 286 222.4167 "/>
<path id="22" d="M350 266.4167 C350 266.4167 349.3364 268.3803 349 268.4167 C338.9836 269.4995 330.9836 270.1312 313 270.4167 C268.0806 271.1297 263.7491 276.3223 223 270.4167 C199.9548 267.0768 175 250.4167 175 250.4167 "/>
<path id="23" d="M263 297.4167 C263 297.4167 242.9473 297.6764 224 294.4167 C197.0355 289.7776 196.5006 288.778 170 281.4167 C160.8257 278.8683 160.3658 278.7191 152 274.4167 C143.2248 269.9037 135 263.4167 135 263.4167 "/>
<path id="24" d="M235 307.4167 C235 307.4167 228.9211 305.7247 225 306.4167 C221.9242 306.9595 220.8097 307.9192 218 310.4167 C212.2328 315.5431 211.6384 316.0113 207 322.4167 C201.3683 330.1938 197 339.4167 197 339.4167 "/>
<path id="25" d="M332 276.4167 C332 276.4167 325.1893 280.9679 320 286.4167 C315.4911 291.151 314.7678 291.5898 312 297.4167 C305.5996 310.8913 301 326.4167 301 326.4167 "/>
<path id="26" d="M442 234.4167 C442 234.4167 427.7099 243.1356 418 253.4167 C411.8375 259.9417 411.9076 261.7642 408 270.4167 C405.1294 276.7731 404 284.4167 404 284.4167 "/>
<path id="27" d="M161 308.4167 C161 308.4167 153.8589 307.4469 149 309.4167 C136.9852 314.2875 135.0304 315.6305 124 323.4167 C118.9219 327.0012 118.4621 328.0311 115 333.4167 C109.7833 341.5316 106 351.4167 106 351.4167 "/>
<path id="28" d="M93 321.4167 C93 321.4167 88.6771 322.8971 86 325.4167 C80.7043 330.4008 76 337.4167 76 337.4167 "/>
</g>
</g>
</svg>
