<?xml version="1.0" encoding="utf-8"?>
<!DOCTYPE svg PUBLIC "-//W3C//DTD SVG 1.1//EN" "http://www.w3.org/Graphics/SVG/1.1/DTD/svg11.dtd">
<svg viewBox="0 0 800 800" preserveAspectRatio="xMinYMin meet" xmlns="http://www.w3.org/2000/svg" version="1.1">
<g fill="none" stroke="black" stroke-linecap="round" stroke-linejoin="round" stroke-width="1.6705">
<g transform="translate(87.52,126.131) scale(1.7959) translate(-72,-20.4167)">
<path id="0" d="M126 292.4167 C126 292.4167 134.6807 290.6372 142 287.4167 C146.6811 285.357 147.3788 285.0379 151 281.4167 C161.8637 270.553 164.5781 270.3166 172 257.4167 C184.5643 235.5788 183.4071 232.9746 193 208.4167 C195.7775 201.3062 195.9076 200.7901 197 193.4167 C197.8407 187.7421 196.9998 181.4161 197 181.4167 C197.0007 181.4193 206.7016 228.962 207 229.4167 C207.048 229.4898 212.954 221.6584 218 213.4167 C227.9062 197.2365 229.3907 197.2658 237 180.4167 C243.0508 167.0184 242.423 165.9998 246 151.4167 C248.8633 139.7431 249.1172 139.3347 250 127.4167 C251.0901 112.7008 249.9874 97.4066 250 97.4167 C250.0298 97.4405 261.7666 120.4317 270 143.4167 C273.4741 153.1153 273.7469 164.3183 274 164.4167 C274.178 164.4859 283.1466 158.1821 288 150.4167 C299.7601 131.6005 300.378 129.9718 309 108.4167 C326.1757 65.4775 339.9644 20.4598 340 20.4167 C340.0145 20.3991 340.082 44.5792 342 68.4167 C343.5692 87.919 346.1879 88.1963 347 107.4167 C347.661 123.0608 348.3752 125.1371 345 139.4167 C342.3392 150.674 340.5935 151.958 334 162.4167 C326.4345 174.4172 315.9434 185.3909 316 185.4167 C316.3553 185.5782 341.6606 179.8299 367 177.4167 C383.1547 175.8781 384.1302 178.9138 400 177.4167 C409.8449 176.4879 420.0083 172.4082 420 172.4167 C419.9701 172.4475 395.3352 197.1135 368 210.4167 C323.3935 232.1252 270.0556 245.3512 270 245.4167 C269.9768 245.444 302.0939 249.4118 334 250.4167 C365.3148 251.403 396.9782 249.3881 397 249.4167 C397.0064 249.4251 373.6628 261.6732 350 271.4167 C340.0929 275.4961 339.612 275.5815 329 277.4167 C273.652 286.9881 272.4914 286.9297 217 294.4167 C210.2028 295.3338 209.3436 293.1106 203 294.4167 C193.2846 296.4169 193.1758 299.0087 183 301.4167 C128.1756 314.3904 72.0068 325.4174 72 325.4167 C71.9962 325.4163 136 296.4167 136 296.4167 "/>
<path id="1" d="M135 293.4167 L128 297.4167 "/>
<path id="2" d="M116 312.4167 C116 312.4167 133.9718 303.5074 151 293.4167 C160.8297 287.5917 161.4059 287.529 170 280.4167 C175.517 275.8509 174.3042 273.3255 180 269.4167 C198.6529 256.6157 201.2552 258.2937 221 245.4167 C235.532 235.9393 236.453 236.1382 249 224.4167 C273.9553 201.1032 276.6997 200.8348 297 174.4167 C312.0026 154.8927 311.1856 152.2814 322 129.4167 C328.4192 115.8446 332 100.4167 332 100.4167 "/>
<path id="3" d="M269 207.4167 L322 201.4167 "/>
<path id="4" d="M266 203.4167 C266 203.4167 266.5946 195.3929 265 188.4167 C262.7383 178.5217 258 168.4167 258 168.4167 "/>
<path id="5" d="M198 263.4167 C198 263.4167 206.9261 268.4829 216 270.4167 C236.6127 274.8095 259 276.4167 259 276.4167 "/>
<path id="6" d="M197 256.4167 C197 256.4167 200.4389 248.2219 202 240.4167 C202.8264 236.2845 202 231.4167 202 231.4167 "/>
</g>
</g>
</svg>
