<?xml version="1.0" encoding="utf-8"?>
<!DOCTYPE svg PUBLIC "-//W3C//DTD SVG 1.1//EN" "http://www.w3.org/Graphics/SVG/1.1/DTD/svg11.dtd">
<svg viewBox="0 0 800 800" preserveAspectRatio="xMinYMin meet" xmlns="http://www.w3.org/2000/svg" version="1.1">
<g fill="none" stroke="black" stroke-linecap="round" stroke-linejoin="round" stroke-width="2.2657">
<g transform="translate(87.52,258.9868) scale(1.3241) translate(-29,-190.1333)">
<path id="0" d="M76 194.1333 C76 194.1333 79.9168 190.1865 83 190.1333 C181.1364 188.4413 259.4081 187.587 308 190.1333 C308.9997 190.1857 309.2466 196.6266 312 202.1333 C321.5385 221.2104 333 240.1333 333 240.1333 "/>
<path id="1" d="M78 194.1333 C78 194.1333 77.3782 216.9154 78 223.1333 C78.0279 223.4121 79.5844 224.1333 81 224.1333 C107.4236 224.1333 136.9332 223.132 137 223.1333 C137.0047 223.1334 132.9938 225.133 133 225.1333 C133.0917 225.1385 161.5222 226.3039 190 226.1333 C244.9689 225.8042 300 224.1333 300 224.1333 "/>
<path id="2" d="M299 226.1333 L344 226.1333 "/>
<path id="3" d="M287 223.1333 C287 223.1333 288.9152 237.3199 288 250.1333 C287.4805 257.4068 284.3443 262.3787 284 265.1333 C283.9833 265.2666 285.981 265.839 286 266.1333 C286.5046 273.9549 284.1289 294.3792 286 296.1333 C288.1289 298.1292 318 296.1333 318 296.1333 "/>
<path id="4" d="M290 191.1333 C290 191.1333 368.1542 191.0999 369 191.1333 C369.0309 191.1345 367.3174 193.6393 366 194.1333 C364.4032 194.7321 361 194.1333 361 194.1333 C361 194.1333 391.1336 190.0213 393 192.1333 C396.5726 196.176 397.9049 214.7939 399 237.1333 C400.3769 265.2221 397.5846 268.7919 398 294.1333 C398.0294 295.9268 399.7751 296.7841 400 298.1333 C400.0951 298.7041 399.2713 300.1284 399 300.1333 C370.7347 300.652 291 300.1333 291 300.1333 "/>
<path id="5" d="M288 244.1333 C288 244.1333 284.3976 246.0075 281 246.1333 C258.4265 246.9694 239.6087 243.1046 234 246.1333 C231.9021 247.2662 233.4479 263.6476 231 273.1333 C230.5337 274.9401 226.6047 275.4403 226 277.1333 C224.9549 280.0596 227.1131 283.3487 226 287.1333 C225.0571 290.3391 221.9918 290.6622 221 294.1333 C218.4281 303.1348 219.45 309.8167 218 315.1333 C217.8792 315.5764 214.9902 316.0308 215 316.1333 C215.28 319.0739 217.8694 333.0896 220 336.1333 C220.5712 336.9493 229 336.1333 229 336.1333 "/>
<path id="6" d="M249 259.1333 C249 259.1333 243.4014 266.689 241 274.1333 C238.7264 281.1815 240.3147 282.245 239 290.1333 C238.3292 294.158 237.6948 296.7438 237 298.1333 C236.9228 298.2877 235 298.1333 235 298.1333 C235 298.1333 273.586 300.4235 276 298.1333 C277.949 296.2843 276.4279 264.8764 274 261.1333 C273.0953 259.7386 252 261.1333 252 261.1333 "/>
<path id="7" d="M220 337.1333 C220 337.1333 218.062 340.1566 218 340.1333 C217.4157 339.9142 214.4105 334.6154 212 334.1333 C205.706 332.8745 200.9842 333.5365 193 335.1333 C190.1723 335.6989 189.1462 336.701 187 339.1333 C182.1643 344.6138 179.3711 346.1921 178 352.1333 C175.6356 362.379 175.6677 367.249 178 378.1333 C179.6083 385.6387 181.6956 388.3467 187 394.1333 C191.3566 398.886 193.8868 400.9373 200 402.1333 C213.9326 404.8593 224.2779 406.2345 233 403.1333 C237.8212 401.4191 243.3264 393.4971 245 386.1333 C247.252 376.2245 247.0864 368.2791 243 359.1333 C238.8263 349.7922 233.7825 348.1912 224 339.1333 C220.707 336.0842 219.3913 335.0377 216 334.1333 C213.5534 333.4809 209 335.1333 209 335.1333 "/>
<path id="8" d="M207 352.1333 C207 352.1333 200.0942 356.1242 199 359.1333 C197.3436 363.6884 198.0641 368.2061 199 374.1333 C199.2791 375.9011 200.5141 377.5859 202 378.1333 C207.6812 380.2264 216.719 381.845 218 381.1333 C218.8242 380.6754 219.3203 374.5905 220 368.1333 C220.3087 365.2006 220.8113 364.4049 220 362.1333 C218.6768 358.4285 217.8667 357.5213 215 354.1333 C212.6381 351.342 210.6878 349.6397 209 349.1333 C208.2349 348.9038 205 351.1333 205 351.1333 "/>
<path id="9" d="M241 352.1333 L394 351.1333 "/>
<path id="10" d="M416 322.1333 C416 322.1333 407.6426 323.3002 404 326.1333 C400.6788 328.7165 399.3136 331.1707 398 336.1333 C395.1894 346.7513 393.5917 351.6838 395 360.1333 C395.809 364.9873 399.0222 367.4175 404 372.1333 C407.833 375.7646 409.201 377.1969 414 378.1333 C427.4855 380.7646 435.9061 382.3514 445 380.1333 C448.8527 379.1936 453.8386 373.2952 455 368.1333 C457.2638 358.0722 457.3676 349.5626 454 340.1333 C451.7436 333.8155 447.3035 331.2728 440 326.1333 C434.942 322.574 427 321.1333 427 321.1333 "/>
<path id="11" d="M429 338.1333 C429 338.1333 419.4613 343.826 416 349.1333 C413.6358 352.7584 413.272 358.0395 414 361.1333 C414.4048 362.8539 417.3073 365.2919 420 366.1333 C423.5605 367.246 426.5414 366.9315 430 366.1333 C431.277 365.8386 432.7478 364.3943 433 363.1333 C433.8406 358.9301 434.4344 355.6413 433 351.1333 C431.5385 346.5399 426 341.1333 426 341.1333 "/>
<path id="12" d="M413 322.1333 L429 320.1333 "/>
<path id="13" d="M404 260.1333 C404 260.1333 408.1227 264.5368 412 266.1333 C415.4852 267.5684 420.4064 266.8365 421 267.1333 C421.0312 267.149 419.8276 269.8459 420 270.1333 C420.3161 270.6602 421.9676 271.5914 424 272.1333 C429.1706 273.5122 429.905 272.3501 435 274.1333 C449.4577 279.1935 450.8526 278.7708 464 286.1333 C475.0273 292.3086 485 302.1333 485 302.1333 "/>
<path id="14" d="M407 299.1333 C407 299.1333 456.6502 295.6075 478 301.1333 C483.7247 302.615 488.1418 312.039 492 321.1333 C493.9336 325.6911 492.356 332.5905 492 334.1333 C491.981 334.2155 489.629 333.6302 489 334.1333 C486.1907 336.3808 484.6061 341.7324 482 342.1333 C471.9653 343.6771 450 340.1333 450 340.1333 "/>
<path id="15" d="M456 287.1333 C456 287.1333 455.5113 278.3664 457 276.1333 C458.276 274.2193 461.7055 272.7468 466 272.1333 C474.5249 270.9155 477.2275 270.8897 485 272.1333 C487.7163 272.5679 488.8538 273.701 491 276.1333 C495.8357 281.6138 497.3996 282.8924 500 289.1333 C501.7724 293.3871 502.1849 296.5787 501 300.1333 C499.593 304.3545 497.3168 306.3561 493 310.1333 C490.0362 312.7266 488.7959 313.3742 485 314.1333 C479.8238 315.1686 476.6858 315.9762 473 314.1333 C465.9355 310.6011 463.9057 307.3843 457 300.1333 C454.4469 297.4526 453.8528 296.5444 453 293.1333 C451.5876 287.4838 450.9072 284.5047 452 280.1333 C452.7286 277.2191 454.7225 275.5369 458 273.1333 C461.5131 270.5571 462.6971 270.2808 467 269.1333 C469.5646 268.4494 470.5173 268.3493 473 269.1333 C479.1631 271.0796 486 275.1333 486 275.1333 "/>
<path id="16" d="M77 206.1333 C77 206.1333 55.2555 204.4915 54 206.1333 C51.4091 209.5214 52.9299 235.759 51 240.1333 C50.7108 240.7889 42.693 238.5506 39 240.1333 C35.0432 241.8291 32.6621 244.874 30 249.1333 C28.6121 251.354 28.2842 253.6996 29 256.1333 C30.2558 260.4031 31.5174 262.6507 35 266.1333 C38.0473 269.1806 39.9467 270.4848 44 271.1333 C50.5515 272.1816 57.8423 270.6728 60 270.1333 C60.0996 270.1084 60.4681 267.5494 60 267.1333 C54.8121 262.5218 43.1606 256.7711 42 254.1333 C41.5051 253.0086 49 242.1333 49 242.1333 "/>
</g>
</g>
</svg>
