<?xml version="1.0" encoding="utf-8"?>
<!DOCTYPE svg PUBLIC "-//W3C//DTD SVG 1.1//EN" "http://www.w3.org/Graphics/SVG/1.1/DTD/svg11.dtd">
<svg viewBox="0 0 800 800" preserveAspectRatio="xMinYMin meet" xmlns="http://www.w3.org/2000/svg" version="1.1">
<g fill="none" stroke="black" stroke-linecap="round" stroke-linejoin="round" stroke-width="1.8577">
<g transform="translate(87.52,139.1963) scale(1.6149) translate(-168,-121)">
<path id="0" d="M388 441 L412 429 "/>
<path id="1" d="M413 430 L438 429 "/>
<path id="2" d="M436 429 L457 438 "/>
<path id="3" d="M412 428 C412 428 414.0006 430.0092 414 430 C413.9951 429.9214 411.547 420.9351 411 412 C410.0674 396.7673 412.1849 396.1075 411 381 C410.2236 371.1003 407.9662 370.6615 407 361 C406.5311 356.3113 406.4049 354.5889 408 351 C409.6969 347.182 414.9329 343.1341 415 343 C415.0087 342.9825 412.0521 343.1432 412 343 C411.4575 341.508 410.7191 335.6516 411 332 C411.0554 331.28 413.0656 330.3939 413 330 C412.5799 327.4793 410.1233 325.055 409 320 C406.2261 307.5172 405.5913 302.2786 405 294 C404.9582 293.4151 406.9754 292.7516 407 292 C407.7039 270.5308 405.4272 260.917 407 233 C407.3259 227.2153 410.6927 226.7372 411 221 C412.1058 200.3579 411.2435 196.8968 410 177 C409.8836 175.1373 408 173 408 173 "/>
<path id="4" d="M425 171 C425 171 427.5782 182.6108 428 194 C428.5651 209.2586 425.429 212.1175 427 225 C427.546 229.4773 432.2272 230.5178 433 235 C434.3186 242.6478 431.8884 251.8799 432 254 C432.0006 254.0118 434.0004 253.9907 434 254 C433.6768 261.4327 430.0898 288.8534 429 323 C428.6071 335.3119 429.9057 340.8872 431 348 C431.0565 348.3675 433 348.7491 433 349 C433 363.801 431 393.199 431 408 C431 408.2509 432.9433 408.6408 433 409 C433.7827 413.9571 434 427 434 427 "/>
<path id="5" d="M219 178 L539 178 "/>
<path id="6" d="M218 155 L532 155 "/>
<path id="7" d="M533 155 L552 158 "/>
<path id="8" d="M537 176 C537 176 553.1753 172.0528 555 170 C555.8478 169.0462 553 158 553 158 "/>
<path id="9" d="M538 154 C538 154 544.4847 157.8359 545 160 C545.9761 164.0997 543 175 543 175 "/>
<path id="10" d="M532 154 C532 154 535.1459 159.6618 536 165 C537.0273 171.4205 535.755 177.285 536 179 C536.005 179.035 538 179 538 179 "/>
<path id="11" d="M537 165 L554 165 "/>
<path id="12" d="M223 198 L551 198 "/>
<path id="13" d="M408 178 C408 178 405.1919 158.657 407 146 C407.6243 141.6296 411.3953 141.2094 414 136 C417.1835 129.633 418.4262 122.8606 419 122 C419 122 421.4702 122.9404 422 124 C423.3623 126.7247 423.12 130.8266 424 132 C424.2779 132.3705 427.8049 131.7561 428 132 C428.3049 132.3811 427.5546 136.332 428 137 C428.3266 137.4899 432.0075 137.9049 432 138 C431.5878 143.2215 425 175 425 175 "/>
<path id="14" d="M507 178 C507 178 501.2636 155.5656 502 151 C502.1578 150.0217 507.1738 147.8393 512 147 C517.866 145.9798 524.8816 146.5688 525 147 C526.7009 153.1962 527.9899 192.6586 526 198 C525.7071 198.7861 507.6948 199.6948 506 198 C503.6273 195.6273 502 174 502 174 "/>
<path id="15" d="M514 180 C514 180 508.4583 184.176 506 188 C504.7575 189.9328 504.6776 193.7134 505 194 C505.8763 194.7789 510.4175 196 515 196 C519.1243 196 522.8855 194.9907 524 194 C524.5515 193.5098 524.9969 189.5406 524 188 C520.9898 183.3479 513 177 513 177 "/>
<path id="16" d="M511 149 C511 149 497.0357 148.0852 488 146 C486.5918 145.675 486.4987 143.5352 485 143 C480.688 141.46 478.6257 143.0736 474 141 C465.0838 137.0031 464.1345 132.1985 456 130 C448.7355 128.0366 444.7868 132.797 437 131 C427.7452 128.8643 426.4607 122.6035 417 121 C399.9929 118.1174 391.8068 118.6499 378 121 C374.6858 121.5641 373.8003 126.8623 370 129 C367.3968 130.4643 364.4752 129.0099 362 130 C361.0571 130.3772 360.785 132.8734 360 133 C350.7327 134.4947 343.1146 133.1644 331 135 C329.1584 135.279 328.6766 137.9162 327 138 C304.3766 139.1312 294.3568 133.4975 271 138 C258.4522 140.4188 256.6192 150.1904 244 154 C233.6922 157.1118 218 154 218 154 "/>
<path id="17" d="M239 158 C239 158 240.995 157.965 241 158 C241.245 159.715 241.8411 165.2708 241 172 C239.8885 180.8921 236.4291 189.4834 237 190 C238.2038 191.0892 253.3273 191.8972 262 191 C263.5375 190.8409 265.8728 188.5267 266 187 C266.9371 175.7551 267.1597 158.3938 265 155 C264.0916 153.5725 245 154 245 154 "/>
<path id="18" d="M250 193 C250 193 248.1731 216.9851 246 222 C245.6535 222.7996 239.8414 221.6886 237 223 C235.1058 223.8743 234.0945 225.4463 233 228 C231.3932 231.7491 231 232.7011 231 237 C231 248.4637 230.9722 251.1991 233 261 C233.484 263.3395 235.3973 265.6516 237 266 C242.9862 267.3014 249.0211 267.6105 256 266 C259.0798 265.2893 262.2951 261.9736 263 260 C263.6042 258.3083 262.7585 254.4619 261 252 C258.8152 248.9413 255.4845 246.4969 253 246 C251.2716 245.6543 247.3401 247.8513 246 249 C245.64 249.3086 245.9805 252.0049 246 252 C246.2404 251.9399 250.2952 248.3232 254 247 C256.2716 246.1887 260 247 260 247 "/>
<path id="19" d="M216 156 C216 156 209.1047 160.7014 202 163 C192.6984 166.0093 191.5373 164.1949 182 167 C174.9 169.0882 167.9898 172.9981 168 173 C168.0372 173.0068 196.0306 171.8842 215 173 C216.6856 173.0992 219 176 219 176 "/>
<path id="20" d="M228 199 L171 200 "/>
<path id="21" d="M389 444 C389 444 399.1674 444.3622 407 443 C409.3798 442.5861 409.8229 440.0871 412 440 C431.1177 439.2353 457 441 457 441 "/>
</g>
</g>
</svg>
