<?xml version="1.0" encoding="utf-8"?>
<!DOCTYPE svg PUBLIC "-//W3C//DTD SVG 1.1//EN" "http://www.w3.org/Graphics/SVG/1.1/DTD/svg11.dtd">
<svg viewBox="0 0 800 800" preserveAspectRatio="xMinYMin meet" xmlns="http://www.w3.org/2000/svg" version="1.1">
<g fill="none" stroke="black" stroke-linecap="round" stroke-linejoin="round" stroke-width="1.4833">
<g transform="translate(87.52,119.8804) scale(2.0225) translate(-130,-23)">
<path id="0" d="M134 198 L130 244 "/>
<path id="1" d="M133 199 C133 199 184.8239 197.1235 193 199 C193.5741 199.1318 192.3444 206.5157 194 213 C198.1587 229.2883 205 246 205 246 "/>
<path id="2" d="M132 246 C132 246 130.05 245.9 130 246 C129.8 246.4 129.9731 249.9985 130 250 C139.2231 250.4985 174.0743 251.151 204 250 C205.6643 249.936 208 247 208 247 "/>
<path id="3" d="M151 265 C151 265 155.395 255.7304 159 254 C163.7452 251.7223 169.1673 252.6584 176 253 C177.2496 253.0625 177.8972 253.7746 179 255 C182.1443 258.4936 183.5476 259.369 185 263 C185.9776 265.444 184.7689 269.191 185 270 C185.0189 270.066 186.9942 269.9624 187 270 C187.2442 271.5874 188.3845 277.9234 187 283 C185.8672 287.1536 184.5057 289.5168 181 292 C174.2956 296.749 171.5578 297.3668 163 300 C159.6541 301.0295 158.1113 300.9723 155 300 C151.2811 298.8378 148.7227 297.7276 147 295 C144.1679 290.5158 145.4691 286.2468 143 281 C142.241 279.3871 139.3805 279.2368 139 278 C138.1005 275.0768 137.7253 271.824 139 268 C140.6995 262.9014 142.2992 259.4136 146 257 C150.8587 253.8313 162 253 162 253 "/>
<path id="4" d="M153 267 C153 267 163.9436 266.0915 170 267 C171.2291 267.1844 172.6816 268.647 173 270 C174.2229 275.1972 175.1916 280.7658 174 284 C173.3053 285.8856 169.3172 288.5477 166 289 C160.755 289.7152 156.2124 288.7345 152 287 C150.5624 286.4081 149.1068 284.0283 149 282 C148.7124 276.5361 149.0587 270.1839 151 268 C153.0233 265.7238 165 264 165 264 "/>
<path id="5" d="M186 267 C186 267 185.8343 268.9171 186 269 C187.9059 269.9529 191.0267 271.2632 196 272 C204.1653 273.2097 213 273 213 273 "/>
<path id="6" d="M204 273 L292 267 "/>
<path id="7" d="M180 251 C180 251 188.6676 254.7151 197 255 C245.6229 256.6623 297 255 297 255 "/>
<path id="8" d="M312 247 C312 247 298.1544 247.1257 293 249 C291.6461 249.4923 290.3242 252.1905 290 255 C288.9784 263.8543 289.5192 272.5962 290 275 C290.0192 275.0962 293.0509 274.4068 294 275 C295.6906 276.0566 295.8066 278.5377 298 280 C300.991 281.994 302.0584 282.4161 306 283 C314.9378 284.3241 318.706 285.2588 325 284 C327.4105 283.5179 329.7541 280.8477 331 278 C332.5077 274.5539 331.5716 269.428 332 268 C332.025 267.9168 333.9984 268.0199 334 268 C334.2484 264.8949 335.568 253.0351 334 243 C333.512 239.8766 331.1705 236.6105 329 236 C320.4152 233.5855 310.1164 231.8641 302 234 C297.6594 235.1423 293.6405 240.719 291 246 C289.4911 249.0177 290.2891 253.1564 291 256 C291.1955 256.782 294 258 294 258 "/>
<path id="9" d="M303 247 C303 247 315.8363 246.0656 323 247 C324.2147 247.1584 324.9913 248.386 326 250 C327.2932 252.0692 328 252.8223 328 255 C328 261.0975 328.3702 264.6546 326 269 C323.8868 272.8742 320.2211 275.593 316 277 C312.4454 278.1849 307.4508 277.8381 305 276 C300.9327 272.9495 298.3282 268.4672 296 262 C294.5145 257.8736 294.8205 253.5274 296 251 C296.7792 249.3304 303 247 303 247 "/>
<path id="10" d="M311 261 C311 261 316.325 260.775 317 261 C317.075 261.025 317.0832 262.975 317 263 C315.572 263.4284 307.6875 264.5625 307 264 C306.3125 263.4375 306 254 306 254 "/>
<path id="11" d="M160 205 C160 205 164.8797 212.8392 168 221 C171.2599 229.526 171.419 230.0412 173 239 C174.3544 246.675 174 255 174 255 "/>
<path id="12" d="M138 226 L201 229 "/>
<path id="13" d="M214 255 C214 255 212.6574 249.6851 214 247 C219.3703 236.2595 221.9988 233.2872 230 223 C231.5124 221.0555 233.693 221.8516 235 220 C238.7916 214.6286 237.481 211.831 242 206 C252.3757 192.6119 255.4307 193.8495 266 180 C284.1135 156.2651 282.6529 153.5425 300 130 C302.9804 125.9552 305.0157 126.9791 308 123 C315.059 113.5879 314.0153 111.4294 321 102 C323.5506 98.5566 325.4212 99.2821 328 96 C330.4987 92.8199 329.5619 90.6598 332 88 C334.1769 85.6252 336.7773 86.6343 339 84 C349.0688 72.0666 352.1894 64.2912 359 56 C359.3778 55.5401 361.5232 56.5076 362 56 C372.0342 45.3184 379.8905 30.2883 390 23 C392.6465 21.092 398.3581 22.7228 405 25 C414.9205 28.4013 423.9804 34.2203 425 35 C425.026 35.0199 423.4556 37.6226 422 38 C412.3531 40.501 407.5585 39.269 398 42 C396.0448 42.5586 394 46 394 46 "/>
<path id="14" d="M235 256 C235 256 247.6284 240.3716 255 233 C255.5143 232.4857 257.7453 232.618 258 233 C262.7114 240.0671 273 260 273 260 "/>
<path id="15" d="M271 214 C271 214 270.3202 220.5206 272 225 C274.3627 231.3006 277.6027 231.4619 280 238 C282.7233 245.4271 281.5289 250.5867 283 255 C283.1635 255.4904 286 256 286 256 "/>
<path id="16" d="M272 217 C272 217 270.8194 208.8814 273 206 C281.6119 194.62 288.1129 193.0375 300 180 C302.7352 177.0001 302.0454 174.1989 304 172 C304.7705 171.1331 307.3891 171.9164 308 171 C317.497 156.7545 319.5408 149.2916 332 130 C334.5405 126.0663 336.8524 126.6509 339 123 C341.2726 119.1366 339.6501 117.2297 342 113 C346.7668 104.4197 347.8483 103.2373 354 96 C355.6397 94.0709 357.6608 94.7856 359 93 C361.3808 89.8256 360.1604 87.4481 363 84 C373.3395 71.445 375.559 71.8278 387 59 C391.9376 53.4639 393.0472 52.2494 396 47 C396.6922 45.7694 396 43 396 43 "/>
<path id="17" d="M412 34 C412 34 411.2147 45.9791 412 47 C412.4647 47.6041 421.1611 47.5872 422 47 C422.4111 46.7122 422.7018 42.3394 422 40 C421.609 38.6966 419 37 419 37 "/>
<path id="18" d="M419 50 C419 50 419.3309 55.8015 419 56 C418.0809 56.5515 412.242 54.6349 409 56 C404.9901 57.6884 401.1888 60.4336 400 64 C397.5864 71.2408 397.3514 80.23 399 86 C399.6507 88.2776 403.3816 89.9217 408 92 C412.875 94.1937 416.9565 94.0711 419 95 C419.1503 95.0683 419 97 419 97 C420.9038 97 436.143 96.7642 438 95 C439.5238 93.5524 439.308 83.852 439 78 C438.9617 77.273 437.2243 75.9199 437 76 C434.4702 76.9035 430.5896 81.0436 425 83 C421.9054 84.0831 419.261 83.8222 417 83 C415.741 82.5422 414.4526 80.8106 414 79 C413.2376 75.9506 412.9245 72.2409 414 71 C416.4556 68.1666 424.7796 66.9036 427 64 C428.3107 62.2861 427.9872 57.9487 427 54 C426.309 51.2359 423 48 423 48 "/>
<path id="19" d="M335 264 C335 264 357.1048 263.2061 359 262 C359.4227 261.731 358.1316 250.6466 357 250 C354.5726 248.6129 344.859 250.6532 338 250 C337.2092 249.9247 336 248 336 248 "/>
<path id="20" d="M308 129 C308 129 310.8384 128.2901 312 129 C318.018 132.6776 326 140 326 140 "/>
<path id="21" d="M354 68 C354 68 363.8718 70.086 368 73 C369.8702 74.3201 371 80 371 80 "/>
<path id="22" d="M269 182 L294 191 "/>
</g>
</g>
</svg>
