<?xml version="1.0" encoding="utf-8"?>
<!DOCTYPE svg PUBLIC "-//W3C//DTD SVG 1.1//EN" "http://www.w3.org/Graphics/SVG/1.1/DTD/svg11.dtd">
<svg viewBox="0 0 800 800" preserveAspectRatio="xMinYMin meet" xmlns="http://www.w3.org/2000/svg" version="1.1">
<g fill="none" stroke="black" stroke-linecap="round" stroke-linejoin="round" stroke-width="1.6321">
<g transform="translate(87.52,192.2927) scale(1.8381) translate(-104,-110)">
<path id="0" d="M146 213 C146 213 145.99 226.2701 143 238 C139.6869 250.9975 136.7003 251.0488 133 264 C130.8751 271.4373 130.8396 279.9623 131 280 C137.3618 281.4969 172.6965 281.1474 201 280 C202.6665 279.9324 204.6585 278.3659 205 277 C207.5611 266.7558 209 262.1464 209 248 C209 225.073 207.0015 202.3888 205 201 C203.0331 199.6352 182.4007 208.9849 160 214 C149.5045 216.3497 138 216 138 216 "/>
<path id="1" d="M207 208 C207 208 215.2872 201.3564 222 198 C223.6782 197.1609 225.2392 198.8804 227 198 C249.8901 186.555 252.1057 183.1348 278 170 C321.0113 148.1827 322.2073 149.945 365 128 C380.4673 120.0681 387.0064 113.8757 395 110 C395.4191 109.7968 397.7313 111.0864 398 112 C399.4531 116.9407 399.1719 119.5475 400 127 C400.1632 128.4687 400.4019 129.6711 400 130 C397.3948 132.1315 393.3531 132.1306 389 136 C376.1777 147.3976 376.8607 149.8742 364 162 C359.6884 166.0653 359.057 165.5865 354 169 C319.0646 192.5814 319.9246 194.6613 284 216 C253.9125 233.8715 251.1723 231.2829 221 248 C215.0251 251.3104 210 257 210 257 "/>
<path id="2" d="M139 278 C139 278 139.3503 292.3031 136 296 C129.926 302.7024 115.4281 303.9688 110 310 C107.5472 312.7253 110.6397 318.8947 109 326 C107.8732 330.8828 103.94 335.9814 104 336 C105.0655 336.3307 121.204 336.3997 138 335 C150.9769 333.9186 151.0792 331.76 164 331 C184.6849 329.7832 193.1582 332.9126 206 331 C207.8476 330.7248 210.2717 327.2773 211 324 C212.8157 315.8292 212.9378 305.1136 212 304 C211.3482 303.226 200.852 305.308 195 305 C194.273 304.9617 193.2072 303.9323 193 303 C191.6063 296.7283 190.4468 293.3615 191 287 C191.2568 284.0465 195 280 195 280 "/>
<path id="3" d="M167 230 C167 230 160.5244 253.4452 161 254 C161.4432 254.517 175.8573 253.7428 185 251 C187.864 250.1408 189.7178 248.0773 191 245 C193.9667 237.88 195.2823 227.1976 195 227 C194.3041 226.5128 171 231 171 231 "/>
<path id="4" d="M401 127 C401 127 404.5814 129.3205 406 132 C408.6189 136.9468 409.1776 138.0787 410 144 C411.5811 155.384 411.6 156.1999 411 168 C410.118 185.3453 410.828 188.6452 407 203 C405.7122 207.8292 402.1443 207.6939 399 213 C394.3625 220.8258 393.1336 221.7026 391 230 C388.9559 237.9491 387.8823 241.0419 390 248 C393.8972 260.8049 396.9581 265.0631 405 276 C407.7513 279.7418 410.2391 280.9901 415 282 C424.8034 284.0795 427.9317 283.3729 438 283 C439.7863 282.9338 441.6979 281.9064 442 281 C443.5107 276.468 445.1734 266.76 444 265 C442.7466 263.12 434.0015 263.6933 428 260 C422.7245 256.7535 421.6974 254.8723 418 249 C413.6376 242.0715 411.7484 240.1094 411 233 C410.0304 223.7891 414.7763 220.3158 414 211 C413.4825 204.7895 408 197 408 197 "/>
</g>
</g>
</svg>
