<?xml version="1.0" encoding="utf-8"?>
<!DOCTYPE svg PUBLIC "-//W3C//DTD SVG 1.1//EN" "http://www.w3.org/Graphics/SVG/1.1/DTD/svg11.dtd">
<svg viewBox="0 0 800 800" preserveAspectRatio="xMinYMin meet" xmlns="http://www.w3.org/2000/svg" version="1.1">
<g fill="none" stroke="black" stroke-linecap="round" stroke-linejoin="round" stroke-width="3.0098">
<g transform="translate(87.52,251.4848) scale(0.99675) translate(-3,-86)">
<path id="0" d="M152 158 C152 158 162.8776 139.0512 176 127 C185.4679 118.3049 188.225 117.38 201 113 C221.7609 105.882 223.6607 105.8245 246 103 C266.3413 100.4281 267.6161 101.272 288 102 C294.8525 102.2447 296.0644 102.5718 302 105 C306.0752 106.6671 305.754 109.1268 310 111 C321.9521 116.273 325.1438 113.2863 336 120 C361.2783 135.6327 360.8468 140.1494 386 158 C391.3132 161.7706 392.312 162.3749 398 164 C401.7327 165.0665 405.2142 165.5068 407 164 C416.084 156.3354 417.9394 148.4087 430 137 C435.3588 131.9309 438.0259 133.912 444 129 C459.9224 115.9083 459.1403 113.6467 475 100 C480.3525 95.3944 480.7663 95.1168 487 92 C494.4025 88.2988 495.2818 86.8738 503 86 C520.1214 84.0617 528.9144 83.1081 540 86 C543.6344 86.9481 547.0121 93.0303 549 98 C549.9685 100.4211 549.1587 104.5838 548 106 C546.7457 107.533 543.9126 108.5397 540 109 C527.7663 110.4393 525.1816 106.8613 514 110 C499.019 114.2052 495.735 115.5027 483 125 C468.0188 136.1724 468.1146 139.2958 455 154 C451.9725 157.3944 451.1075 158.1236 450 162 C448.4394 167.4622 450.4748 172.6403 449 175 C448.0664 176.4937 440 178 440 178 "/>
<path id="1" d="M155 155 C155 155 122.1011 190.1057 113 199 C112.8905 199.107 110.996 198.0101 111 198 C111.1129 197.7179 115 194 115 194 "/>
<path id="2" d="M146 167 C146 167 140.9755 173.1471 140 179 C136.8109 198.1345 133.8534 205.2672 137 221 C138.9913 230.9565 144.4701 233.4229 153 244 C156.625 248.495 157.3748 250.2656 162 252 C174.9602 256.8601 177.6911 257.5116 193 259 C212.8124 260.9262 213.5785 259.6096 234 259 C246.9799 258.6125 247.2658 258.8571 260 257 C271.0087 255.3946 271.1081 252.8272 282 252 C309.7779 249.8903 320.5418 252.5382 339 251 C340.0779 250.9102 342 247 342 247 "/>
<path id="3" d="M321 159 C321 159 334.7486 157.9499 347 159 C351.362 159.3739 351.7288 160.1017 356 162 C365.0935 166.0415 367.0063 165.5049 374 171 C379.6388 175.4305 380.9643 177.3215 384 184 C387.8536 192.4778 387.5518 194.1526 389 204 C389.9778 210.6488 389.9024 211.6835 389 218 C388.5212 221.3516 388.1606 222.9531 386 225 C380.0731 230.6149 378.1762 231.6199 370 236 C364.7182 238.8296 363.8479 238.9367 358 240 C353.4052 240.8354 348.6042 240.4028 348 240 C347.8187 239.8792 349 234 349 234 "/>
<path id="4" d="M442 180 C442 180 429.5188 183.475 421 190 C407.3523 200.4536 406.4534 202.5254 395 216 C390.0472 221.8269 392.0004 224.6547 387 230 C378.4708 239.1174 375.9968 242.5828 366 247 C357.9765 250.5453 354.3251 247.2198 344 249 C340.5264 249.5989 340.323 251.6885 337 252 C325.5905 253.0696 323.5738 253.9654 312 252 C298.3298 249.6786 284 243 284 243 "/>
<path id="5" d="M146 152 C146 152 142.3676 152.3723 140 154 C127.2392 162.773 125.3094 162.9365 114 174 C102.9658 184.7943 101.8401 186.0233 94 199 C87.9878 208.9512 86.8705 210.7768 85 222 C82.1624 239.0256 83.2541 241.4706 84 259 C84.2044 263.8037 86.9844 269.0272 87 269 C87.0853 268.8507 99.8138 231.127 100 231 C100.032 230.9782 106.1731 242.6924 109 254 C110.9313 261.725 109.5881 268.6661 110 271 C110.0085 271.048 111.9915 271.048 112 271 C112.4119 268.6661 112.4616 256.2882 113 254 C113.0221 253.9063 115.3633 253.5048 116 254 C118.429 255.8892 120.0586 257.3113 122 261 C124.6959 266.1221 125.9999 273.0027 126 273 C126.0006 272.9832 120.3791 226.8553 124 200 C124.8906 193.3951 130.2466 190.4961 138 184 C148.0626 175.5692 161 169 161 169 "/>
<path id="6" d="M152 159 C152 159 154.4545 159.5066 155 159 C159.1954 155.1042 166 146 166 146 "/>
<path id="7" d="M531 88 C531 88 528.531 87.5353 528 88 C526.0307 89.7231 525.1457 91.3522 523 95 C520.2067 99.7486 519.1679 100.9123 518 105 C517.6204 106.3285 519 109 519 109 "/>
<path id="8" d="M535 97 C535 97 536.015 103.985 536 104 C536 104 532 100 532 100 "/>
<path id="9" d="M151 234 C151 234 184.9899 260.9899 185 261 C185.0025 261.0025 178.3858 260.0599 174 257 C158.0544 245.8751 142 231 142 231 "/>
<path id="10" d="M147 223 C147 223 151.3579 232.5762 157 240 C160.4036 244.4784 162.8571 243.8094 166 248 C168.1841 250.9121 166.7752 252.8852 169 256 C173.7317 262.6244 174.5838 263.4207 181 269 C185.7044 273.0908 186.308 273.3729 192 276 C198.9227 279.1951 199.473 279.5663 207 281 C220.0094 283.478 226.0559 282.5814 234 284 C234.3915 284.0699 234.7148 285.9894 235 286 C256.2488 286.787 276.1029 289.5095 315 287 C336.6932 285.6004 339.3766 284.7455 359 278 C369.1958 274.4952 370.0106 272.1296 379 265 C384.0214 261.0175 387.9069 255.1551 388 255 C388.0109 254.9819 385.1203 255.2105 385 255 C384.4688 254.0705 384 248 384 248 "/>
<path id="11" d="M395 218 C395 218 402.3643 216.2374 406 214 C407.205 213.2585 408 210 408 210 "/>
<path id="12" d="M412 201 C412 201 419.6278 201.2015 423 203 C425.0121 204.0731 426.5805 206.2313 427 209 C428.7242 220.3798 428.7166 224.1762 428 236 C427.8356 238.7132 426.9853 240.365 425 242 C419.8529 246.2388 415.9187 246.3929 411 250 C410.2077 250.581 410.6772 252.6874 410 253 C388.2849 263.0224 377.677 272.3698 346 280 C312.552 288.0568 273 286 273 286 "/>
<path id="13" d="M178 183 C178 183 184.6574 176.7705 192 173 C202.599 167.5572 203.6515 167.4389 215 164 C219.5447 162.6228 220.5972 164.5095 225 163 C237.2476 158.8008 237.5112 155.7201 250 152 C260.1114 148.9881 261.1039 149.3459 272 149 C292.2032 148.3586 292.7627 148.4669 313 150 C325.4664 150.9444 325.8127 151.0983 338 154 C357.0748 158.5416 376 165 376 165 "/>
<path id="14" d="M538 88 C538 88 547.2681 94.6939 551 99 C551.6704 99.7735 550.2793 101.8912 551 103 C555.4055 109.7776 564.0325 118.8863 564 119 C563.9924 119.0265 555.0928 118.8274 547 117 C539.9842 115.4158 535.9466 113.4733 533 112 C532.8214 111.9107 533.0755 110.0206 533 110 C531.4402 109.5746 522 109 522 109 "/>
<path id="15" d="M3 295 C3 295 23.0827 284.107 43 279 C60.6245 274.4809 62.3604 278.1884 81 275 C100.0517 271.7412 100.3248 269.3615 119 266 C124.6563 264.9819 131 266 131 266 "/>
<path id="16" d="M502 228 C502 228 539.6073 226.2931 576 229 C599.3834 230.7393 608.3861 233.4211 623 237 C623.8894 237.2178 625 241 625 241 "/>
<path id="17" d="M77 384 C77 384 115.9621 375.9549 155 370 C174.7832 366.9822 175.3232 369.158 195 366 C215.5495 362.7019 215.3725 360.203 236 357 C295.592 347.7466 296.1707 349.9048 356 341 C403.6074 333.9142 403.9213 328.8801 451 325 C493.4836 321.4986 537.8986 325.9904 538 326 C538.0145 326.0014 525.6077 331.558 525 332 C524.9809 332.0139 526.0835 333.8473 527 334 C550.3051 337.8842 556.982 335.836 585 342 C606.1354 346.6498 613.2 349.56 627 356 C628.7819 356.8315 630 363 630 363 "/>
<path id="18" d="M254 262 C254 262 254.0594 264.857 253 266 C237.6705 282.5397 231.8313 285.1898 216 303 C213.5838 305.7182 215.143 307.8829 213 311 C210.1249 315.1819 205.0388 318.8966 205 319 C204.9934 319.0176 208.2912 319.6835 210 319 C212.2556 318.0978 215 315 215 315 "/>
<path id="19" d="M214 300 C214 300 206.7942 303.5845 200 305 C195.4831 305.941 191.1468 305.344 190 305 C189.8968 304.969 190 302 190 302 "/>
<path id="20" d="M237 297 C237 297 251.4697 301.0387 255 303 C255.3677 303.2043 255.4833 306.275 255 307 C254.4361 307.8458 252.8397 308.8949 251 309 C237.1385 309.7921 220 309 220 309 "/>
<path id="21" d="M211 304 C211 304 212.675 317.6444 214 320 C214.2528 320.4495 217.5518 320.8475 220 320 C229.432 316.7351 240 311 240 311 "/>
<path id="22" d="M356 266 C356 266 357 282.7596 357 296 C357 296.8827 356.2638 297.9623 356 298 C354.7984 298.1717 350 297 350 297 "/>
<path id="23" d="M348 303 C348 303 346.0498 303.7508 346 304 C345.8647 304.6764 347.1119 307.8508 347 308 C346.8967 308.1377 343.2779 308.3705 343 308 C342.12 306.8266 341.8023 301.2837 341 300 C340.8374 299.7398 337.99 300.0179 338 300 C338.0804 299.8553 346 291 346 291 "/>
<path id="24" d="M372 287 L376 294 "/>
<path id="25" d="M362 286 C362 286 361.2996 289.7393 362 291 C362.9494 292.7089 366.9332 294.1979 367 295 C367.116 296.3923 363 301.2675 363 303 C363 303.8662 367 307 367 307 "/>
<path id="26" d="M136 203 C136 203 130.0806 209.2961 126 216 C123.3415 220.3675 122.7603 221.438 122 226 C121.4416 229.3502 123 234 123 234 "/>
</g>
</g>
</svg>
