<?xml version="1.0" encoding="utf-8"?>
<!DOCTYPE svg PUBLIC "-//W3C//DTD SVG 1.1//EN" "http://www.w3.org/Graphics/SVG/1.1/DTD/svg11.dtd">
<svg viewBox="0 0 800 800" preserveAspectRatio="xMinYMin meet" xmlns="http://www.w3.org/2000/svg" version="1.1">
<g fill="none" stroke="black" stroke-linecap="round" stroke-linejoin="round" stroke-width="1.9777">
<g transform="translate(111.7903,87.52) scale(1.5169) translate(-25,-39.1333)">
<path id="0" d="M265 161.1333 C265 161.1333 263.5272 146.9545 259 135.1333 C254.9051 124.441 254.3733 121.9052 247 114.1333 C237.5017 104.1216 234.8782 104.0358 222 96.1333 C213.2386 90.757 212.0647 89.2802 203 87.1333 C194.8497 85.203 192.8437 85.737 184 87.1333 C174.7154 88.5993 174.0711 89.4118 165 93.1333 C154.8126 97.3128 152.853 96.9461 145 103.1333 C137.7872 108.8162 136.1394 110.5785 132 119.1333 C121.93 139.9448 120.5464 142.6397 115 165.1333 C111.9892 177.344 112.9968 180.0944 114 192.1333 C114.3479 196.3078 115.2944 198.4277 118 201.1333 C122.3706 205.5039 126.8969 207.6852 131 209.1333 C131.8542 209.4348 134.5037 208.1968 135 207.1333 C136.8482 203.1729 137.4657 200.5452 138 194.1333 C138.9275 183.0032 136.0952 180.9294 138 171.1333 C139.1893 165.0167 140.7075 161.9108 145 158.1333 C151.0338 152.8236 154.293 151.1582 163 149.1333 C173.9341 146.5905 176.8344 146.3104 188 148.1333 C199.45 150.0027 201.5295 151.5901 212 157.1333 C217.3744 159.9786 219.1375 161.3625 222 166.1333 C225.6258 172.1763 226.047 174.3184 227 182.1333 C228.4345 193.8959 226.0544 194.8407 227 207.1333 C228.0329 220.5607 231 234.1333 231 234.1333 "/>
<path id="1" d="M270 156.1333 C270 156.1333 267.6158 170.1743 267 184.1333 C266.1244 203.981 267.824 205.1823 267 224.1333 C266.8746 227.0172 265.8917 229.369 265 230.1333 C264.3758 230.6684 260 230.1333 260 230.1333 "/>
<path id="2" d="M129 175.1333 L127 179.1333 "/>
<path id="3" d="M129 213.1333 C129 213.1333 127.7853 227.4156 128 229.1333 C128.0051 229.1739 130.6711 229.5353 131 229.1333 C133.1315 226.5281 135.447 223.3098 137 218.1333 C138.0919 214.4936 137 209.1333 137 209.1333 "/>
<path id="4" d="M138 208.1333 C138 208.1333 141.5258 211.4066 142 214.1333 C143.204 221.0563 141.82 230.1735 142 231.1333 C142.0046 231.158 144.9564 230.4493 145 230.1333 C145.8675 223.8439 147.0279 207.2729 146 202.1333 C145.8743 201.5048 139 200.1333 139 200.1333 "/>
<path id="5" d="M266 234.1333 C266 234.1333 279.8508 231.4292 291 226.1333 C298.8296 222.4143 300.2619 221.1447 306 215.1333 C309.7911 211.1617 309.9047 209.8206 312 204.1333 C316.7499 191.2408 318.2002 190.5499 320 177.1333 C323.5519 150.6556 323.9093 148.8061 323 122.1333 C322.45 106.0005 318.8123 105.6455 317 89.1333 C314.3439 64.9335 312.6156 45.9017 314 40.1333 C314.1319 39.5837 322.706 37.7347 329 39.1333 C338.7959 41.3102 340.1387 42.9126 350 48.1333 C356.7993 51.733 356.8985 52.2522 363 57.1333 C369.2827 62.1595 370.7586 61.889 375 68.1333 C387.9124 87.1432 390.8317 89.1681 399 110.1333 C404.9392 125.3774 403.3962 127.7591 405 145.1333 C406.3532 159.7935 406.3729 160.4894 405 175.1333 C403.4183 192.0043 403.4374 192.785 399 209.1333 C394.0769 227.2712 395.381 230.4989 386 245.1333 C372.0939 266.8268 366.337 270.1732 349 287.1333 C346.3502 289.7255 340 290.1333 340 290.1333 "/>
<path id="6" d="M236 237.1333 C236 237.1333 222.3156 248.0099 209 251.1333 C184.741 256.8237 181.9403 254.6366 155 256.1333 C137.1317 257.126 136.1208 258.7274 119 256.1333 C87.9577 251.43 86.3429 249.6293 56 241.1333 C49.8231 239.4038 47.0051 238.771 44 235.1333 C39.6977 229.9252 37.9273 218.9282 37 218.1333 C36.8833 218.0333 32.0026 220.2963 30 223.1333 C26.8716 227.5652 25.4238 229.6235 25 235.1333 C24.0813 247.077 22.8301 251.7991 27 262.1333 C32.7695 276.4317 36.4654 278.6294 48 292.1333 C56.4417 302.0163 57.7447 301.9998 68 310.1333 C71.8793 313.21 72.344 313.5813 77 315.1333 C91.259 319.8863 92.9384 322.1959 107 323.1333 C120.6932 324.0462 122.0661 320.2194 137 319.1333 C149.3254 318.2369 150.1704 317.725 162 319.1333 C170.3258 320.1245 177.9654 322.3598 179 324.1333 C180.1964 326.1843 178.8829 334.7248 176 343.1333 C173.2528 351.146 167.8242 356.6607 167 359.1333 C166.9566 359.2635 169.9701 360.5649 170 361.1333 C170.2342 365.5837 166.3802 373.5979 168 378.1333 C169.5203 382.3903 173.5929 385.4444 180 389.1333 C188.9488 394.2857 190.472 395.0277 201 397.1333 C221.9629 401.3259 223.1276 401.2124 245 402.1333 C270.2106 403.1948 271.5016 402.7398 296 401.1333 C300.8918 400.8126 301.7122 400.3793 306 398.1333 C311.6288 395.1849 313.7052 395.0145 317 390.1333 C338.5791 358.1642 343.5235 352.1848 360 318.1333 C363.9001 310.0732 362.8261 300.3 362 297.1333 C361.8351 296.5013 354 295.1333 354 295.1333 "/>
<path id="7" d="M212 403.1333 C212 403.1333 210.279 418.7415 206 429.1333 C204.3026 433.2557 198 437.1333 198 437.1333 "/>
<path id="8" d="M207 433.1333 C207 433.1333 210.6006 434.3841 212 436.1333 C213.8792 438.4823 215 443.1333 215 443.1333 "/>
<path id="9" d="M205 437.1333 C205 437.1333 205.5774 447.4428 206 449.1333 C206.0172 449.2023 208 449.1333 208 449.1333 "/>
<path id="10" d="M326 385.1333 C326 385.1333 330.8214 391.437 332 397.1333 C333.5131 404.4466 333.8044 411.6921 332 414.1333 C330.0295 416.7993 321.5778 415.9918 315 420.1333 C309.6417 423.5071 305 431.1333 305 431.1333 "/>
<path id="11" d="M332 420.1333 C332 420.1333 333.7668 419.0001 334 419.1333 C335.2827 419.8663 337.2542 421.4177 339 424.1333 C341.4593 427.9589 343 433.1333 343 433.1333 "/>
<path id="12" d="M333 422.1333 C333 422.1333 333.9158 429.494 333 436.1333 C331.9827 443.5085 329 451.1333 329 451.1333 "/>
</g>
</g>
</svg>
