<?xml version="1.0" encoding="utf-8"?>
<!DOCTYPE svg PUBLIC "-//W3C//DTD SVG 1.1//EN" "http://www.w3.org/Graphics/SVG/1.1/DTD/svg11.dtd">
<svg viewBox="0 0 800 800" preserveAspectRatio="xMinYMin meet" xmlns="http://www.w3.org/2000/svg" version="1.1">
<g fill="none" stroke="black" stroke-linecap="round" stroke-linejoin="round" stroke-width="2.1203">
<g transform="translate(87.52,225.9655) scale(1.4149) translate(-136.6667,-142.0556)">
<path id="0" d="M270.3611 292.0556 C270.3611 292.0556 267.0789 296.4933 264.3611 297.0556 C255.3951 298.9106 241.4278 298.0111 241.3611 298.0556 C241.3433 298.0675 246.6702 302.8137 252.3611 305.0556 C262.4392 309.0257 274.3611 311.0556 274.3611 311.0556 "/>
<path id="1" d="M270.3611 311.0556 C270.3611 311.0556 271.7791 317.1825 274.3611 321.0556 C276.1957 323.8075 277.2574 323.8829 280.3611 326.0556 C282.1253 327.2905 282.5834 327.9667 284.3611 328.0556 C291.277 328.4013 300.3611 327.0556 300.3611 327.0556 "/>
<path id="2" d="M268.3611 298.0556 C268.3611 298.0556 288.0638 279.8187 309.3611 269.0556 C332.7404 257.2402 335.315 258.9051 361.3611 251.0556 C371.4329 248.0202 371.974 247.5685 382.3611 247.0556 C411.7619 245.6037 414.6458 244.8383 442.3611 247.0556 C449.5117 247.6276 452.1892 249.5169 457.3611 253.0556 C459.7405 254.6835 459.1452 258.4728 461.3611 260.0556 C464.3508 262.191 471.2291 262.9613 471.3611 263.0556 C471.3782 263.0678 468.3611 265.0485 468.3611 265.0556 C468.3611 265.0556 471.3619 265.0702 471.3611 265.0556 C471.1699 261.327 468.4137 237.7847 466.3611 226.0556 C466.2916 225.6585 464.3724 225.3379 464.3611 225.0556 C463.8488 212.2477 462.3772 199.5322 464.3611 176.0556 C465.2724 165.2721 466.3403 163.025 470.3611 154.0556 C472.0121 150.3726 473.5907 149.3178 477.3611 147.0556 C482.7474 143.8238 484.8577 142.4958 490.3611 142.0556 C495.1909 141.6692 496.5219 143.1664 502.3611 145.0556 C513.4305 148.6368 517.3731 148.8628 524.3611 153.0556 C526.2385 154.182 525.4945 158.8422 527.3611 160.0556 C532.5284 163.4143 544.3622 166.0534 544.3611 166.0556 C544.3557 166.0663 530.3544 168.3469 523.3611 168.0556 C522.3163 168.012 520.3611 165.0536 520.3611 165.0556 C520.3611 165.06 521.8631 170.9661 523.3611 172.0556 C524.977 173.2307 531.3611 173.0556 531.3611 173.0556 "/>
<path id="3" d="M532.3611 169.0556 L526.3611 172.0556 "/>
<path id="4" d="M532.3611 174.0556 C532.3611 174.0556 525.5514 178.6056 522.3611 178.0556 C515.3188 176.8414 506.7721 168.5054 503.3611 169.0556 C500.5897 169.5026 492.5396 176.8914 491.3611 183.0556 C487.4418 203.5564 487.4823 213.7053 490.3611 237.0556 C491.4422 245.8245 496.6258 246.2727 500.3611 256.0556 C506.9418 273.2906 508.8316 274.911 511.3611 292.0556 C513.0221 303.3134 512.4493 307.791 509.3611 317.0556 C507.6365 322.2292 499.6862 327.4982 499.3611 328.0556 C499.3466 328.0804 502.3661 329.0506 502.3611 329.0556 C502.3411 329.0756 496.3611 331.0556 496.3611 331.0556 "/>
<path id="5" d="M275.3611 293.0556 C275.3611 293.0556 277.9439 300.7648 279.3611 301.0556 C288.1542 302.8593 297.4835 302.3793 314.3611 301.0556 C322.2279 300.4386 330.3611 297.0556 330.3611 297.0556 "/>
<path id="6" d="M327.3611 298.0556 C327.3611 298.0556 325.4559 299.824 325.3611 301.0556 C325.063 304.9306 325.9151 310.9552 326.3611 311.0556 C331.6821 312.2528 347.1637 312.5655 365.3611 310.0556 C374.6442 308.7751 384.3611 303.0556 384.3611 303.0556 "/>
<path id="7" d="M382.3611 303.0556 C382.3611 303.0556 380.6292 314.4201 381.3611 319.0556 C381.5289 320.1182 383.6308 321.8702 385.3611 322.0556 C394.9708 323.0852 400.7093 324.153 409.3611 322.0556 C413.3047 321.0995 418.3611 314.0556 418.3611 314.0556 "/>
<path id="8" d="M515.3611 158.0556 L515.3611 159.0556 "/>
<path id="9" d="M160.3611 318.0556 C160.3611 318.0556 196.1049 314.8745 229.3611 318.0556 C252.039 320.2247 252.8703 328.4111 275.3611 329.0556 C422.4851 333.2711 578.3611 328.0556 578.3611 328.0556 "/>
<path id="10" d="M274.6667 355.0556 C274.6667 355.0556 290.4876 363.5318 305.6667 367.0556 C317.0028 369.6872 330.6667 368.0556 330.6667 368.0556 "/>
<path id="11" d="M352.6667 364.0556 L411.6667 364.0556 "/>
<path id="12" d="M407.6667 388.0556 L448.6667 386.0556 "/>
<path id="13" d="M469.6667 374.0556 L507.6667 362.0556 "/>
<path id="14" d="M539.6667 352.0556 L552.6667 348.0556 "/>
<path id="15" d="M136.6667 383.0556 L157.6667 385.0556 "/>
</g>
</g>
</svg>
