<?xml version="1.0" encoding="utf-8"?>
<!DOCTYPE svg PUBLIC "-//W3C//DTD SVG 1.1//EN" "http://www.w3.org/Graphics/SVG/1.1/DTD/svg11.dtd">
<svg viewBox="0 0 800 800" preserveAspectRatio="xMinYMin meet" xmlns="http://www.w3.org/2000/svg" version="1.1">
<g fill="none" stroke="black" stroke-linecap="round" stroke-linejoin="round" stroke-width="3.0098">
<g transform="translate(87.52,205.6344) scale(0.99675) translate(-13,-47)">
<path id="0" d="M100 132 C100 132 109.4772 122.3415 120 115 C130.5919 107.6103 131.3683 107.3443 143 102 C149.3584 99.0786 150.0921 98.6908 157 98 C174.3177 96.2682 175.4432 95.6832 193 97 C214.7596 98.632 216.0531 98.6895 237 104 C250.6316 107.4559 253.6608 107.7156 264 115 C273.2505 121.5174 274.5783 124.7837 281 135 C284.7968 141.0404 284.9249 142.689 286 150 C287.2982 158.8278 286.9911 159.832 286 169 C285.0385 177.8941 285.3316 178.8099 282 187 C273.6596 207.5035 273.2789 208.7954 262 228 C255.1607 239.6453 254.0453 239.6245 245 250 C237.183 258.9665 237.124 259.4552 228 267 C211.4017 280.7255 210.8908 280.6141 193 293 C158.9582 316.5674 139.4668 325.6109 124 339 C122.8078 340.0321 123.6041 346.5077 126 351 C130.6695 359.7553 132.0802 361.4665 140 369 C151.9542 380.3711 157.6437 383.9637 167 390 C167.7741 390.4994 171 389 171 389 "/>
<path id="1" d="M98 131 C98 131 104.5411 116.5602 113 104 C120.7796 92.4485 121.2037 90.98 131 82 C138.2082 75.3925 139.6196 75.1337 149 71 C168.5471 62.386 169.2859 61.7142 190 56 C212.249 49.8623 213.212 49.1818 236 47 C259.3415 44.7652 260.5737 45.3955 284 47 C296.3683 47.8471 296.939 48.6341 309 52 C318.1175 54.5444 318.9192 54.4086 327 59 C340.3204 66.5684 342.2138 66.654 353 77 C365.6687 89.1516 366.7594 91.0958 376 106 C381.5452 114.9439 380.4873 116.4619 384 127 C385.4348 131.3043 385.9345 131.6102 386 136 C386.4207 164.1888 389.709 167.5775 385 194 C381.2743 214.9051 377.4906 216.0056 368 237 C344.5658 288.8392 319 340 319 340 "/>
<path id="2" d="M387 216 C387 216 408.4474 182.5977 432 160 C442.3514 150.0683 447.2881 148.9553 461 145 C470.463 142.2703 472.8513 143.6993 484 145 C502.3307 147.1386 503.6155 146.5102 521 152 C540.6713 158.212 542.3386 158.5426 560 169 C579.286 180.4193 581.1022 182.0756 597 197 C604.2593 203.8149 602.1272 207.8818 609 215 C615.1438 221.3632 617.6481 223.3913 625 226 C630.5407 227.9661 640 226 640 226 "/>
<path id="3" d="M446 337 C446 337 447.88 327.0232 452 319 C457.018 309.2282 457.4565 307.5435 465 300 C473.9579 291.0421 476.0023 290.5299 487 284 C491.1132 281.5578 492.0483 281.6002 497 281 C508.0473 279.6609 508.8232 279.4412 520 280 C528.3521 280.4176 529.0167 280.4453 537 283 C553.5179 288.2857 554.9446 288.1712 570 296 C578.9969 300.6784 578.8994 303.845 587 309 C588.8066 310.1497 591.4005 310.5424 592 310 C596.9915 305.4839 608 290 608 290 "/>
<path id="4" d="M432 231 C432 231 424.5381 233.6239 420 238 C411.4597 246.2353 411.2862 247.7331 404 258 C400.4543 262.9962 399.501 263.6394 398 269 C396.3096 275.0371 396.7029 278.2471 397 283 C397.0453 283.7247 398.186 284.9212 399 285 C409.7976 286.0449 415.5228 288.3542 428 286 C439.2924 283.8694 441.7112 282.2402 452 275 C480.9694 254.6141 480.7192 249.1452 509 229 C515.3872 224.4502 516.9854 224.6775 525 223 C537.832 220.3142 539.6439 219.0495 552 220 C563.788 220.9068 565.6797 222.1117 577 227 C586.7687 231.2183 587.8211 232.2816 596 239 C601.1118 243.199 601.583 244.098 605 250 C612.2777 262.5705 613.5252 263.8953 618 277 C620.0412 282.9779 619.3341 284.9864 619 291 C618.9015 292.7729 617 295 617 295 "/>
<path id="5" d="M203 420 C203 420 215.4595 413.8108 228 411 C243.7336 407.4735 244.5897 407.2904 261 407 C356.7701 405.305 360.052 410.964 454 407 C475.6236 406.0876 476.4638 398.5953 498 397 C528.7355 394.7233 531.9881 399.7898 562 399 C567.6813 398.8505 570.9031 396.9058 574 395 C574.7413 394.5438 575 391 575 391 "/>
<path id="6" d="M98 434 C98 434 107.0694 436.5381 116 437 C135.6762 438.0177 136.9968 439.7713 156 437 C183.5744 432.9787 184.8305 431.5643 212 423 C230.3167 417.2263 230.0147 413.1776 248 408 C261.8962 403.9996 263.1669 404.8396 278 404 C289.2591 403.3627 289.6746 403.6189 301 405 C330.4364 408.5898 330.6722 411.4123 360 414 C381.0906 415.8609 382.2367 416.4669 403 414 C431.6948 410.5907 432.6785 405.0453 461 402 C477.6159 400.2133 478.6714 402.0981 496 404 C519.5028 406.5796 520.1737 408.5543 543 411 C547.2511 411.4555 552 410 552 410 "/>
<path id="7" d="M13 397 C13 397 11.2894 388.5156 13 386 C16.9749 380.1546 21.3791 378.372 30 372 C32.5904 370.0854 33.1542 369.3077 36 369 C49.998 367.4867 52.8391 365.4713 67 368 C92.6635 372.5828 93.8917 378.452 120 384 C132.597 386.6769 133.7275 385.5309 147 385 C158.3821 384.5447 161.317 379.6319 170 382 C189.0742 387.2021 191.6051 395.0168 213 403 C223.7288 407.0033 225.087 405.746 237 407 C243.8294 407.7189 244.4658 407.8523 251 407 C255.3832 406.4283 260 404 260 404 "/>
<path id="8" d="M245 79 C245 79 243.8201 82.5503 244 83 C244.1099 83.2748 246.3717 84.2094 247 84 C247.9425 83.6858 250.045 81.315 250 81 C249.92 80.44 246.2338 77 246 77 C245.8831 77 243.995 80.995 244 81 C244.005 81.005 247.98 79 248 79 C248.005 79 247 81 247 81 "/>
<path id="9" d="M242 73 C242 73 236.8398 76.6486 236 79 C235.2118 81.207 235.6821 85.4424 237 87 C239.0056 89.3702 242.2508 90.9676 247 92 C252.5687 93.2106 258.3905 93.073 260 92 C261.073 91.2847 262.846 84.5379 262 82 C261.0332 79.0995 257.7495 75.6873 254 74 C249.9757 72.1891 247.1103 72.6806 242 73 C240.2342 73.1104 238 75 238 75 "/>
</g>
</g>
</svg>
