<?xml version="1.0" encoding="utf-8"?>
<!DOCTYPE svg PUBLIC "-//W3C//DTD SVG 1.1//EN" "http://www.w3.org/Graphics/SVG/1.1/DTD/svg11.dtd">
<svg viewBox="0 0 800 800" preserveAspectRatio="xMinYMin meet" xmlns="http://www.w3.org/2000/svg" version="1.1">
<g fill="none" stroke="black" stroke-linecap="round" stroke-linejoin="round" stroke-width="1.4881">
<g transform="translate(87.52,128.848) scale(2.016) translate(-111,-75.1333)">
<path id="0" d="M148 130.1333 C148 130.1333 148.6522 119.2284 150 118.1333 C151.699 116.7529 160.5623 116.3245 164 117.1333 C165.0431 117.3788 166.9496 120.0151 167 122.1333 C167.3675 137.5675 168.4155 142.0556 165 159.1333 C162.242 172.9234 157.4954 172.8928 154 187.1333 C144.2166 226.9917 143.0465 228.7614 138 269.1333 C135.7246 287.3367 135.1628 295.8475 139 307.1333 C140.7454 312.267 146.5255 315.7435 155 319.1333 C186.6978 331.8125 190.0612 336.6441 224 341.1333 C280.8226 348.6496 292.9747 344.1333 344 344.1333 C346.1261 344.1333 346.6691 341.6712 349 341.1333 C352.2758 340.3774 353.8007 342.312 357 341.1333 C371.06 335.9533 372.7269 334.9981 387 327.1333 C396.9016 321.6774 397.0425 321.1314 406 314.1333 C412.8742 308.7629 416.2502 307.8163 419 302.1333 C422.002 295.9291 421 283.1333 421 283.1333 "/>
<path id="1" d="M149 126.1333 C149 126.1333 145.0047 130.1701 145 130.1333 C144.9524 129.7642 141.3585 106.7406 145 95.1333 C147.1869 88.1625 153.1885 82.684 161 79.1333 C171.0085 74.584 179.2887 74.8477 189 75.1333 C191.141 75.1963 193.0763 77.3352 195 80.1333 C198.0437 84.5605 199.8221 86.0631 200 91.1333 C201.6391 137.8477 202.7204 145.0244 199 194.1333 C197.9287 208.2748 194.9289 211.5152 190 223.1333 C189.0807 225.3003 184.9983 227.1333 185 227.1333 C185.0038 227.1333 191.4545 226.0659 196 223.1333 C206.149 216.5856 207.9324 214.8343 216 207.1333 C217.5491 205.6547 216.609 203.5244 218 202.1333 C220.1859 199.9474 222.3902 200.7431 225 198.1333 C237.5745 185.5588 239.4718 184.7559 250 170.1333 C256.8479 160.6223 256.6044 159.4554 261 148.1333 C272.9703 117.3006 282.9453 85.2274 283 85.1333 C283.0132 85.1107 285.6576 95.2043 286 105.1333 C287.1411 138.2244 287.3156 138.9145 286 172.1333 C285.3293 189.0692 281.3611 203.0303 282 206.1333 C282.0436 206.3452 288.2987 207.4766 293 206.1333 C304.4785 202.8538 304.8425 199.8035 317 196.1333 C330.8639 191.948 332.5791 194.9798 346 190.1333 C367.6265 182.3238 370.2098 182.0908 389 170.1333 C401.4757 162.1942 411.6924 148.3473 412 148.1333 C412.0335 148.11 412.822 151.5988 412 154.1333 C407.2198 168.8724 407.4274 170.7287 400 185.1333 C391.2463 202.1103 380.0205 215.3074 379 218.1333 C378.9972 218.1411 383.1485 220.7482 387 221.1333 C397.2087 222.1542 402.4913 219.2737 409 221.1333 C411.4513 221.8337 414.6892 225.6705 415 229.1333 C417.551 257.5591 416.4213 267.957 416 299.1333 C415.9758 300.9272 414 303.1333 414 303.1333 "/>
<path id="2" d="M143 106.1333 C143 106.1333 134.3796 117.8055 125 125.1333 C119.6632 129.3027 110.9962 131.1321 111 131.1333 C111.0081 131.136 128.1285 132.175 137 129.1333 C141.1318 127.7167 146 119.1333 146 119.1333 "/>
<path id="3" d="M170 93.1333 C170 93.1333 161.242 92.5728 159 93.1333 C158.6433 93.2225 158.1621 94.6746 158 96.1333 C157.6874 98.9466 157.9448 102.1254 158 102.1333 C158.8653 102.2569 171.95 98.1561 172 98.1333 C172.008 98.1297 169 97.1333 169 97.1333 "/>
<path id="4" d="M189 231.1333 C189 231.1333 194.0709 240.59 201 246.1333 C215.378 257.6357 219.3375 256.2304 234 267.1333 C237.6038 269.813 237.1002 274.0459 240 275.1333 C248.8605 278.456 253.0888 278.5658 266 279.1333 C298.0612 280.5426 298.5547 279.5242 331 279.1333 C339.9909 279.025 341.0735 280.3131 349 278.1333 C359.735 275.1812 363.0452 273.2244 371 268.1333 C372.9159 266.9072 371.9161 264.0505 374 262.1333 C383.2065 253.6634 386.7233 254.0787 396 245.1333 C399.7797 241.4886 400.4474 239.7912 402 235.1333 C403.0351 232.0281 402 227.1333 402 227.1333 "/>
</g>
</g>
</svg>
