<?xml version="1.0" encoding="utf-8"?>
<!DOCTYPE svg PUBLIC "-//W3C//DTD SVG 1.1//EN" "http://www.w3.org/Graphics/SVG/1.1/DTD/svg11.dtd">
<svg viewBox="0 0 800 800" preserveAspectRatio="xMinYMin meet" xmlns="http://www.w3.org/2000/svg" version="1.1">
<g fill="none" stroke="black" stroke-linecap="round" stroke-linejoin="round" stroke-width="2.9762">
<g transform="translate(87.52,224.608) scale(1.008) translate(-2,-118)">
<path id="0" d="M124,175C124,175 123.39761122099396,160.46006574365074 125,147C125.82493850773554,140.07051653502145 126.08059579964153,139.08209208408016 129,133C131.72135416666583,127.33051215277955 132.85382656499144,124.48770406100513 137,122C142.50929894788808,118.69442063126715 145.8019574246362,118.84807336986522 154,118C159.60064294752576,117.4206231433594 161.8462879793357,116.85614863449585 166,119C174.87481253899665,123.58054840722407 179.75539554199722,126.35161849874592 185,134C189.38386916978828,140.39314253927455 189.442623831452,144.19017943355553 190,154C191.86853725075133,186.8862556132234 192.6233878458918,188.6829743571738 190,222C187.69344790251776,251.29321163802444 183.40281607084012,251.7357817907751 180,281C178.47287612746604,294.1332653037921 179.58668138556547,294.77380433809503 180,308C180.0770188621805,310.46460358977623 180.03747172816315,311.45995476506107 181,313C181.9411387546849,314.50582200749585 184.12748367011076,316.1982991658839 185,316C190.21119342235218,314.81563785855633 195.27051491177264,313.2129085478743 203,308C215.93881996876234,299.2738190908347 215.1429959957893,293.13180190970047 228,287C244.43843657831857,279.16013024726345 248.82471767042972,277.90449444950803 268,277C299.1587163448565,275.5302492290162 301.05119823031003,280.38486265834853 334,282C351.90557941368973,282.87772448106324 353.00799041090175,279.8422844966224 370,282C383.2234995259075,283.67917454297236 383.422646553528,287.53139028245965 397,290C421.3785068272117,294.4324557867658 422.09445546166546,294.1320841596249 447,296C461.8100363954417,297.11075272965814 477,296 477,296"/>
<path id="1" d="M476,296C476,296 479.98,284 480,284C480.02,284 483.9123648294562,290.3913490851943 484,296C484.37744422546404,320.15643042970066 486.7146712273101,325.6608306568787 481,348C476.7914430935059,364.45163154356794 473.4767615811028,368.91649179754284 462,382C450.63053501262635,394.96119008560595 431,405 431,405"/>
<path id="2" d="M359,136L359,136"/>
<path id="3" d="M161,143C161,143 155.3300684022694,142.88997719924353 152,144C150.57282782759884,144.47572405746706 149.58655172413793,145.53362068965518 149,147C147.96655172413793,149.58362068965516 147.8716202759397,153.9083001970998 148,154C148.21090954667048,154.15064967619318 152.3441077942072,153.40611238684337 156,152C158.56553839003004,151.01325446537305 159.52341611862297,150.80471363279415 161,149C163.34738976013784,146.13096807094263 165,141 165,141"/>
<path id="4" d="M158,150C158,150 157.5695576338847,144.68346916066164 157,144C156.72216700786112,143.66660040943336 153.1,143.8 153,144C152.6,144.8 152.76470588235293,151.05882352941177 153,152C153.01470588235293,152.05882352941177 155,152 155,152"/>
<path id="5" d="M125,176C125,176 118.21804054566262,179.3802413071314 114,184C108.35900601724637,190.17823150492063 104.10334776359734,198.12154400942262 104,199C103.99323541911,199.05749893756507 109.52153711162802,201.70813225382056 112,201C117.09991402030387,199.5428817084846 118.37774345389474,196.31112827305264 125,193C129.09021727847678,190.95489136076162 131.6437694101251,190 134,190C134.78541019662498,190 137,192.99582039324994 137,193C137,193.00139320225003 134,192 134,192"/>
<path id="6" d="M141,193C141,193 145.41467816851383,188.78435511471562 146,189C148.99649833133967,190.1039730694409 158.38751629843261,195.53466051873647 160,200C162.47452083614232,206.85251923854798 161.05401361616717,213.0867210262304 159,225C156.18065528301437,241.35219935851663 155.92773182539733,242.35078798095102 150,258C143.64057734254086,274.7888758156921 141.11490516670682,274.2291521070482 134,291C127.18854851900192,307.05556420520974 126.22478490163584,307.2845466935278 122,324C114.87365498903693,352.19553895641905 113.10069943379007,356.09137364992256 111,382C110.44373401867973,388.86061376961663 112.06332304797045,392.1887149755754 116,398C121.24671919896119,405.74515691275223 123.38637021353212,407.71436354012195 132,413C144.08548958317766,420.4160958805863 146.5991181025158,421.34521402795883 160,425C166.85626515685237,426.86989049732335 168.44688578639781,423.7411476310663 176,425C191.7356546116712,427.6226091019452 192.05525511715302,430.689167408283 208,433C225.93086913617364,435.598676686402 227.64917801455684,436.7106444211 245,435C261.4477558583784,433.37839026748383 262.2111183842168,427.8449320456905 279,426C306.4032090946059,422.9886583412521 308.8558701271657,428.120014927912 336,425C350.74927564030036,423.30468096088503 352.00294703717776,418.9467479921731 366,416C369.4184221757388,415.2803321735287 370.8903864455595,417.69102523432013 374,417C378.4423050777721,416.0128210938284 379.306882731231,412.58663965859614 384,412C397.25115464123013,410.3436056698462 408.3052089953255,412.7348117425386 414,412C414.2878012658276,411.96286435279643 415,408 415,408"/>
<path id="7" d="M420,409C420,409 425.53856148856033,409.9698779372695 430,409C436.2848090335063,407.6337371666291 443,404 443,404"/>
<path id="8" d="M126,178C126,178 125.4718665012428,180.31342645161564 126,181C129.11463345420915,185.0490234904719 136,191 136,191"/>
<path id="9" d="M126,190C126,190 113.073121660961,194.01624925799132 113,194C112.98389981777005,193.99642218172667 114.9041136053014,189.39725759646572 117,188C119.44520079381503,186.36986613745665 124.75938499706208,185.93125285630344 125,186C125.00462721159496,186.0013220604557 125.02268654502366,188.8409552489732 124,190C118.68942288066026,196.01865406858505 110.84065033474475,202.57967483262763 110,203C109.97949633329891,203.01025183335054 107.84957410823335,199.65468480943312 108,198C108.19583748173393,195.8457877009267 109.28294545504975,193.18873006958094 111,192C113.89868347910955,189.99321912984723 117.67062103779466,191.21958597480358 121,189C123.6819997195543,187.2120001869638 126.00501646767789,181.9981188246208 126,182C125.98297690476521,182.00638366071305 112.86893992015668,188.84169919292086 105,195C103.50742562183917,196.1681016872563 102.99583704052867,200.00288204886476 103,200C103.01882126746895,199.98696989175227 110.43936504563926,191.35544975933885 118,186C121.37573500470621,183.60885437166644 125.3508355993141,184.0994429337906 127,183C127.29984807285198,182.80010128476533 127.02585376448839,179.99294897332135 127,180C126.60070297067936,180.1088991898147 119.60018915574667,182.39981084425332 116,186C112.39981084425332,189.60018915574668 112.16605637519366,191.94586845788146 110,197C109.52118753811508,198.11722907773148 109.97796349935095,200.0044073001298 110,200C110.40400251189915,199.91919949762018 120,195 120,195"/>
<path id="10" d="M225,386C225,386 236.784770047677,384.8398037980356 248,386C265.36931415404746,387.79682560214286 266.2702610853634,392 283,392C304.9876568592366,392 307.4455214434954,391.81970921025623 329,386C356.0087302701938,378.70764282704766 363.6178774496232,377.04040946311283 383,365C390.0607867912333,360.6137536599914 388.2309265392393,353.5349187113939 395,345C399.06460719489604,339.87506049339197 406,336 406,336"/>
<path id="11" d="M287,333C287,333 310.5842014091412,330.58127857019883 333,332C349.2883606734898,333.0309089033854 349.6366529795728,336.2467842478114 366,338C377.1868317209715,339.19858911296125 377.98966702427515,336.71972872375295 389,338C398.8525224302492,339.1456421430522 409,343 409,343"/>
<path id="12" d="M2,392C2,392 12.412672786725195,390.8308137544787 22,392C32.35899013531888,393.2632914799169 32.64198747599928,395.67204967641015 43,397C51.61531373441766,398.10452740184843 52.476138886273,398.0654826392159 61,397C67.86644367494675,396.14169454063164 68.23263444271434,393.4319595036565 75,393C90.63564460101223,392.0019801318503 108,394 108,394"/>
<path id="13" d="M470,386C470,386 496.2112051915575,387.9640670956427 522,387C549.3889988028512,385.9761121942859 549.6191765649947,383.0952329374002 577,382C599.3014822760477,381.1079407089581 622,383 622,383"/>
<path id="14" d="M35,466C35,466 47.99832133766844,456.07023590576693 59,453C66.45484118112534,450.9195792052673 69.4713931731244,452.134367256621 78,454C84.35138524668136,455.38936552271155 84.42605373670334,457.95980978035623 91,460C98.4891127964702,462.3242074195942 99.12926091011023,462.77512174028885 107,463C133.40821694636193,463.7545204841818 161,462 161,462"/>
<path id="15" d="M284,463C284,463 295.4482220709603,451.86862471456413 307,445C312.61377499999844,441.66207972973063 314.5212158167069,440.79323029202254 321,441C358.46664994341523,442.19574414713025 361.5405457425521,442.71802580805814 401,448C424.5666494490196,451.1545908711286 424.7833593523556,454.73005061300784 448,458C459.5103740656346,459.621179445864 460.1077751052619,458.68608989777334 472,458C485.9600236144161,457.1946140222452 487.7495592436958,458.94505719270813 500,455C515.2897543201855,450.07618081214366 531,439 531,439"/>
<path id="16" d="M108,200C108,200 100.81177122854187,199.36862237780076 100,200C99.34607317700794,200.50860975121606 98.97439913140745,206.99409210724787 99,207C99.54401845759167,207.1255427209827 112.99998132023911,203.00000311329347 113,203C113.00001082577051,202.9999981957049 105,206 105,206"/>
</g>
</g>
</svg>
