<?xml version="1.0" encoding="utf-8"?>
<!DOCTYPE svg PUBLIC "-//W3C//DTD SVG 1.1//EN" "http://www.w3.org/Graphics/SVG/1.1/DTD/svg11.dtd">
<svg viewBox="0 0 800 800" preserveAspectRatio="xMinYMin meet" xmlns="http://www.w3.org/2000/svg" version="1.1">
<g fill="none" stroke="black" stroke-linecap="round" stroke-linejoin="round" stroke-width="2.0017">
<g transform="translate(87.52,203.6696) scale(1.4987) translate(-112.5,-205.6667)">
<path id="0" d="M126.5 245.6667 C126.5 245.6667 112.4998 254.6663 112.5 254.6667 C112.5106 254.6836 131.5 253.6667 131.5 253.6667 "/>
<path id="1" d="M127.5 245.6667 C127.5 245.6667 124.1433 242.9181 123.5 240.6667 C122.5575 237.368 122.9569 236.0118 123.5 231.6667 C124.4279 224.2437 124.0086 222.7569 126.5 216.6667 C127.9516 213.1183 129.2953 211.522 132.5 209.6667 C137.3825 206.84 139.1718 206.1729 145.5 205.6667 C163.0785 204.2604 167.6252 202.9892 182.5 205.6667 C188.3776 206.7246 192.7081 210.0683 195.5 214.6667 C199.0415 220.4997 199.2146 224.3183 199.5 233.6667 C201.1719 288.4209 199.037 290.1021 199.5 345.6667 C199.5331 349.6397 198.9295 351.3713 200.5 353.6667 C203.9742 358.7443 207.5969 363.6861 212.5 364.6667 C223.7563 366.9179 234.2756 366.4081 245.5 362.6667 C250.9455 360.8515 252.822 353.7209 257.5 349.6667 C258.1032 349.1439 260.2906 349.9284 260.5 349.6667 C261.006 349.0342 260.313 346.1504 261.5 344.6667 C267.0258 337.7594 270.588 334.5934 276.5 329.6667 C277.1449 329.1292 278.9924 330.0897 279.5 329.6667 C280.7127 328.6561 280.5417 326.3091 282.5 324.6667 C294.9173 314.2522 295.9508 313.0808 310.5 303.6667 C329.7 291.2432 330.3361 290.2528 350.5 280.6667 C359.9427 276.1775 361.2042 275.8546 371.5 274.6667 C386.2135 272.969 388.3699 272.2305 402.5 274.6667 C415.5927 276.924 417.8883 277.7784 429.5 284.6667 C446.0121 294.462 449.3542 295.5689 461.5 309.6667 C475.519 325.9387 485.5 349.6667 485.5 349.6667 "/>
<path id="2" d="M485.5 349.6667 C485.5 349.6667 487.7149 352.332 489.5 352.6667 C494.1949 353.547 497.2014 354.32 501.5 352.6667 C507.8927 350.2079 510.5751 348.5036 515.5 342.6667 C522.9439 333.8443 528.4577 320.709 528.5 320.6667 C528.5109 320.6558 528.5 329.6667 528.5 329.6667 "/>
<path id="3" d="M529.5 331.6667 C529.5 331.6667 526.4752 337.531 524.5 342.6667 C524.1943 343.4615 524.4649 344.655 524.5 344.6667 C524.6403 344.7134 527.4978 343.6375 527.5 343.6667 C527.5404 344.1924 525.3231 356.4282 525.5 357.6667 C525.5074 357.7183 529.1 357.4667 529.5 357.6667 C529.6 357.7167 529.8647 359.1804 529.5 359.6667 C526.4457 363.739 520.7935 368.7129 520.5 369.6667 C520.4664 369.7758 525.5362 372.4312 525.5 372.6667 C525.3201 373.8359 522.4578 378.4615 518.5 382.6667 C514.8089 386.5885 509.5 389.6667 509.5 389.6667 "/>
<path id="4" d="M510.5 390.6667 C510.5 390.6667 505.5 395.649 505.5 395.6667 C505.5 395.6702 510.5034 394.6619 510.5 394.6667 C510.4888 394.6823 500.4978 402.6641 500.5 402.6667 C500.5442 402.7172 517.4413 402.6583 517.5 402.6667 C517.5094 402.668 515.8661 404.4183 514.5 404.6667 C511.251 405.2574 509.6113 403.6944 506.5 404.6667 C502.7811 405.8288 502.1689 409.0552 498.5 409.6667 C489.3623 411.1896 476.5 409.6667 476.5 409.6667 "/>
<path id="5" d="M131.5 256.6667 C131.5 256.6667 137.3001 255.3996 137.5 254.6667 C138.5994 250.6354 135.9738 241.0259 137.5 234.6667 C137.9914 232.619 141.594 232.2875 143.5 229.6667 C145.0174 227.5802 144.0294 225.7675 145.5 223.6667 C146.9904 221.5375 148.3253 220.0012 150.5 219.6667 C158.6327 218.4155 163.9076 219.0065 171.5 219.6667 C172.286 219.735 173.4754 220.915 173.5 221.6667 C174.2039 243.1359 175.0728 252.7497 173.5 280.6667 C173.1741 286.4513 172.2694 287.6315 169.5 292.6667 C167.189 296.8686 164.0346 296.4666 162.5 300.6667 C155.467 319.9149 152.8147 323.0626 150.5 344.6667 C147.0243 377.1068 147.2291 386.4994 150.5 412.6667 C151.1373 417.7654 156.5799 418.3946 160.5 424.6667 C163.7488 429.8648 161.9528 432.8111 165.5 436.6667 C171.8165 443.5324 174.0828 444.8534 183.5 449.6667 C195.7704 455.9382 197.2812 457.3586 210.5 459.6667 C227.1348 462.5712 228.6634 459.1487 246.5 460.6667 C275.4634 463.1316 275.6047 465.7938 304.5 467.6667 C329.2164 469.2687 330.6635 470.7347 354.5 467.6667 C379.6109 464.4346 381.6347 462.6218 405.5 454.6667 C413.2634 452.0789 412.7952 448.708 420.5 445.6667 C431.0353 441.508 433.5158 444.326 443.5 439.6667 C454.7225 434.4295 455.795 432.6386 465.5 424.6667 C469.0548 421.7467 471.5 416.6667 471.5 416.6667 "/>
<path id="6" d="M470.5 420.6667 L478.5 409.6667 "/>
<path id="7" d="M132.5 229.6667 L132.5 226.6667 "/>
</g>
</g>
</svg>
