<?xml version="1.0" encoding="utf-8"?>
<!DOCTYPE svg PUBLIC "-//W3C//DTD SVG 1.1//EN" "http://www.w3.org/Graphics/SVG/1.1/DTD/svg11.dtd">
<svg viewBox="0 0 800 800" preserveAspectRatio="xMinYMin meet" xmlns="http://www.w3.org/2000/svg" version="1.1">
<g fill="none" stroke="black" stroke-linecap="round" stroke-linejoin="round" stroke-width="2.2609">
<g transform="translate(87.52,170.5936) scale(1.3269) translate(-170,-135.3333)">
<path id="0" d="M217 198.3333 C217 198.3333 193.9052 201.0527 177 200.3333 C173.9632 200.2041 170.0131 196.3235 170 196.3333 C169.9927 196.3388 170.8249 201.0374 173 203.3333 C178.7924 209.4476 181.2195 213.0086 188 215.3333 C195.0947 217.7658 198.8648 216.5513 208 215.3333 C212.8112 214.6918 218 211.3333 218 211.3333 "/>
<path id="1" d="M221 197.3333 C221 197.3333 217.3926 186.1955 216 175.3333 C214.9544 167.1774 215.0811 166.2967 216 158.3333 C216.5052 153.9553 216.6291 152.4945 219 149.3333 C223.215 143.7134 224.9156 142.0369 231 138.3333 C235.1742 135.7925 236.7969 135.4864 242 135.3333 C252.7649 135.0167 254.8269 134.7901 265 137.3333 C271.3852 138.9296 272.3307 140.2102 278 144.3333 C282.8716 147.8763 284.7664 148.5134 287 153.3333 C293.2127 166.7398 294.2568 169.6969 297 185.3333 C299.0318 196.9144 298.4921 198.2305 297 210.3333 C294.0689 234.108 289.9594 234.8201 288 258.3333 C286.5597 275.6166 286.9921 277.3795 290 294.3333 C292.2833 307.2029 292.9241 309.7665 299 320.3333 C303.2975 327.8072 305.5232 328.4035 313 334.3333 C319.5935 339.5627 320.3422 339.5044 328 343.3333 C333.1052 345.8859 333.5637 346.396 339 347.3333 C347.4512 348.7904 350.487 350.7757 357 348.3333 C374.091 341.9242 377.0512 338.5293 395 326.3333 C415.6997 312.2681 414.2376 307.9 435 295.3333 C450.9274 285.693 453.2954 283.537 471 280.3333 C502.8858 274.5635 507.0526 276.3333 540 276.3333 C547.64 276.3333 548.4145 277.4887 556 280.3333 C580.057 289.3547 582.0839 289.0218 604 300.3333 C611.5882 304.2498 611.982 305.7135 618 312.3333 C626.6509 321.8493 627.7595 322.4802 634 333.3333 C638.7579 341.6079 641 352.3333 641 352.3333 "/>
<path id="2" d="M221 210.1167 C221 210.1167 220.0574 221.9013 222 229.1167 C222.8685 232.3427 228 236.1167 228 236.1167 "/>
<path id="3" d="M225 220.1167 C225 220.1167 236.3866 246.3518 242 271.1167 C244.456 281.9521 243.5857 283.5291 242 295.1167 C237.1915 330.2555 231.79 331.1148 229 366.1167 C226.4112 398.594 227.6537 402.2568 231 433.1167 C231.8343 440.8109 233.2326 443.0658 238 449.1167 C245.0839 458.1078 246.8718 460.9722 257 466.1167 C275.9184 475.726 279.6094 476.6603 301 481.1167 C313.7095 483.7645 320.1867 482.2539 329 481.1167 C330.1067 480.9739 332 477.1167 332 477.1167 "/>
<path id="4" d="M233 177.1167 C233 177.1167 232.5375 173.6716 233 173.1167 C233.713 172.2611 235.5864 171.5555 238 171.1167 C240.7 170.6258 241.7284 170.3054 244 171.1167 C247.7048 172.4398 250.4273 173.6003 252 176.1167 C253.9266 179.1992 254.5644 186.1996 254 187.1167 C253.529 187.8821 246.789 189.6745 244 189.1167 C242.2569 188.768 240.2747 186.666 239 184.1167 C237.3005 180.7176 236.7693 175.6358 237 175.1167 C237.0759 174.946 241.9857 174.4827 243 175.1167 C243.8664 175.6582 245 180.1167 245 180.1167 "/>
<path id="5" d="M359 340.1167 C359 340.1167 365.6983 341.1265 371 340.1167 C375.3129 339.2952 376.4211 338.9528 380 336.1167 C401.7952 318.845 401.4025 316.1946 424 298.1167 C441.2518 284.3152 441.7778 283.7789 460 272.1167 C466.1756 268.1643 466.9993 267.4444 474 266.1167 C494.7868 262.1743 498.8353 260.7862 518 261.1167 C524.155 261.2228 527.178 263.0984 532 267.1167 C537.4987 271.699 537.3735 273.999 542 281.1167 C543.7942 283.877 544.5154 284.2089 545 287.1167 C546.3545 295.2434 547.9947 300.2962 546 305.1167 C544.1422 309.6064 536.7319 311.8106 533 316.1167 C532.3296 316.8902 532.2939 319.2088 533 320.1167 C537.3937 325.7658 542.5778 326.992 547 334.1167 C550.4074 339.6063 552.1967 346.7234 551 349.1167 C548.9749 353.1669 542.2889 356.9258 533 362.1167 C525.8847 366.0929 520.2408 366.0911 517 368.1167 C516.5898 368.3731 516.2892 371.2282 517 372.1167 C522.1176 378.5137 529.2735 381.9058 533 388.1167 C534.2228 390.1546 533.5911 393.5367 532 397.1167 C528.1439 405.7929 527.0465 407.479 521 415.1167 C518.2079 418.6436 517.2246 419.0044 513 421.1167 C505.7029 424.7652 504.8995 425.441 497 427.1167 C489.1283 428.7864 487.145 429.7243 480 428.1167 C469.2453 425.6969 468.6881 422.0906 457 418.1167 C443.9925 413.6941 443.5566 413.5219 430 411.1167 C412.8587 408.0755 395 407.1167 395 407.1167 "/>
</g>
</g>
</svg>
