<?xml version="1.0" encoding="utf-8"?>
<!DOCTYPE svg PUBLIC "-//W3C//DTD SVG 1.1//EN" "http://www.w3.org/Graphics/SVG/1.1/DTD/svg11.dtd">
<svg viewBox="0 0 800 800" preserveAspectRatio="xMinYMin meet" xmlns="http://www.w3.org/2000/svg" version="1.1">
<g fill="none" stroke="black" stroke-linecap="round" stroke-linejoin="round" stroke-width="0.96966">
<g transform="translate(87.52,194.2582) scale(3.0939) translate(-202,-152.1333)">
<path id="0" d="M249 195.1333 C249 195.1333 246.0007 206.1382 247 213.1333 C247.6125 217.4207 251.5418 222.0728 253 223.1333 C253.3895 223.4166 256.5227 222.3996 258 221.1333 C259.1944 220.1095 259.7308 219.0175 260 217.1333 C260.628 212.737 261.4571 210.0475 260 207.1333 C257.8143 202.762 250 197.1333 250 197.1333 "/>
<path id="1" d="M253 194.1333 C253 194.1333 273.2383 190.7623 286 194.1333 C295.1645 196.5541 295.5309 203.3424 306 208.1333 C323.8204 216.2884 325.8704 218.1576 345 221.1333 C368.855 224.8441 373.3799 222.927 396 222.1333 C398.7097 222.0383 401.9828 219.1054 402 219.1333 C402.4279 219.8287 405.2712 230.775 404 235.1333 C403.1239 238.137 398.8545 240.7613 395 243.1333 C393.8926 243.8148 392.7501 243.6195 391 243.1333 C384.2668 241.263 384.0363 239.6147 377 238.1333 C365.4861 235.7093 364.9477 235.6049 353 235.1333 C327.2405 234.1165 320.1566 239.9863 301 235.1333 C290.7537 232.5376 288.5949 221.8603 278 216.1333 C273.3696 213.6304 268.6877 214.5818 264 215.1333 C262.8678 215.2665 261 218.1333 261 218.1333 "/>
<path id="2" d="M226 154.1333 C226 154.1333 242.2835 153.6362 248 154.1333 C248.305 154.1599 248.9719 155.2135 249 156.1333 C250.7856 214.6128 252 285.1333 252 285.1333 "/>
<path id="3" d="M229 152.1333 C229 152.1333 209.6824 151.081 204 152.1333 C203.335 152.2565 202.2824 154.7328 202 157.1333 C201.3527 162.6357 200.3922 164.1088 202 169.1333 C207.7775 187.1881 215.3238 188.9018 218 207.1333 C222.7092 239.2146 217.5638 246.2882 218 278.1333 C218.0124 279.0365 218.7121 280.1186 219 280.1333 C228.9224 280.6422 257 280.1333 257 280.1333 "/>
<path id="4" d="M228 190.1333 C228 190.1333 226.0209 191.4035 226 192.1333 C225.6658 203.8305 225.4434 220.3219 227 225.1333 C227.1978 225.7448 236.9467 226.3144 237 226.1333 C237.9604 222.8681 235.9205 208.0458 237 191.1333 C237.376 185.2422 240.6571 182.2545 240 179.1333 C239.5102 176.8069 235.7843 173.1774 233 172.1333 C230.505 171.1977 224.8514 172.3765 224 173.1333 C223.4643 173.6095 223.0476 177.276 224 180.1333 C226.6759 188.161 232 197.1333 232 197.1333 "/>
<path id="5" d="M253 197.1333 C253 197.1333 241.0225 186.8075 239 186.1333 C238.7329 186.0443 235.2292 189.0706 235 191.1333 C234.0785 199.4265 234.62 202.783 236 213.1333 C236.5238 217.0615 238.0523 220.8626 239 221.1333 C242.1249 222.0262 257 219.1333 257 219.1333 "/>
</g>
</g>
</svg>
