<?xml version="1.0" encoding="utf-8"?>
<!DOCTYPE svg PUBLIC "-//W3C//DTD SVG 1.1//EN" "http://www.w3.org/Graphics/SVG/1.1/DTD/svg11.dtd">
<svg viewBox="0 0 800 800" preserveAspectRatio="xMinYMin meet" xmlns="http://www.w3.org/2000/svg" version="1.1">
<g fill="none" stroke="black" stroke-linecap="round" stroke-linejoin="round" stroke-width="2.2897">
<g transform="translate(132.7215,87.52) scale(1.3102) translate(-232,-3.1333)">
<path id="0" d="M232 151.1333 L232 197.1333 "/>
<path id="1" d="M232 197.1333 L256 200.1333 "/>
<path id="2" d="M256 200.1333 L256 147.1333 "/>
<path id="3" d="M256 147.1333 C256 147.1333 245.8031 144.5664 239 145.1333 C236.0363 145.3803 232 149.1333 232 149.1333 "/>
<path id="4" d="M236 147.1333 C236 147.1333 244.0242 140.9617 252 137.1333 C255.8192 135.3001 261 135.1333 261 135.1333 "/>
<path id="5" d="M257 149.1333 L268 142.1333 "/>
<path id="6" d="M268 142.1333 L260 134.1333 "/>
<path id="7" d="M270 147.1333 L270 194.1333 "/>
<path id="8" d="M270 194.1333 C270 194.1333 268.8686 196.8852 268 197.1333 C264.2652 198.2004 256 198.1333 256 198.1333 "/>
<path id="9" d="M254 135.1333 C254 135.1333 255.2249 120.6071 254 107.1333 C253.2842 99.2591 250.4987 98.9878 250 91.1333 C248.558 68.4213 245.8634 59.2199 250 44.1333 C251.7305 37.8222 258.2885 33.5953 267 29.1333 C276.5551 24.2392 291 23.1333 291 23.1333 "/>
<path id="10" d="M306 31.1333 C306 31.1333 289.4094 34.6225 279 40.1333 C275.1447 42.1744 272.9675 44.8765 272 49.1333 C268.7405 63.475 269.3961 66.7035 269 84.1333 C268.4016 110.4644 270 137.1333 270 137.1333 "/>
<path id="11" d="M268 198.1333 C268 198.1333 266.0671 247.4019 270 263.1333 C270.6605 265.7753 278.3227 268.3997 286 270.1333 C292.5504 271.6124 301 270.1333 301 270.1333 "/>
<path id="12" d="M253 200.1333 C253 200.1333 251.0989 234.5752 253 266.1333 C253.4984 274.406 254.2372 276.3133 258 283.1333 C261.441 289.3702 264.5115 294.06 269 295.1333 C280.2494 297.8234 304 294.1333 304 294.1333 "/>
<path id="13" d="M314 49.1333 C314 49.1333 303.9149 48.3482 299 51.1333 C291.8409 55.1901 284.5746 60.196 284 66.1333 C279.1104 116.6589 286.1354 140.7912 284 206.1333 C283.7992 212.2771 279.6634 212.8314 279 219.1333 C276.837 239.682 276.8789 243.7009 278 263.1333 C278.21 266.7732 280.3083 270.0056 282 271.1333 C283.45 272.1 290 271.1333 290 271.1333 "/>
<path id="14" d="M306 21.1333 C306 21.1333 307.7674 107.3897 306 189.1333 C305.8202 197.4471 302.5874 197.7624 302 206.1333 C300.6402 225.5098 299.0618 227.9696 302 246.1333 C304.1875 259.6559 310.2439 260.6033 313 274.1333 C315.3696 285.766 313 300.1333 313 300.1333 "/>
<path id="15" d="M242 3.1333 C242 3.1333 242.7876 7.5893 242 11.1333 C240.928 15.9571 238.1403 16.4332 238 21.1333 C236.2808 78.7269 238 145.1333 238 145.1333 "/>
<path id="16" d="M238 201.1333 C238 201.1333 238.6398 230.7012 238 260.1333 C237.6417 276.617 238.1057 277.3402 236 293.1333 C235.2067 299.0834 232.3509 299.3435 232 305.1333 C230.4522 330.6718 232 359.1333 232 359.1333 "/>
<path id="17" d="M232 356.1333 L233 480.1333 "/>
<path id="18" d="M329 7.1333 C329 7.1333 324.6359 97.1999 329 178.1333 C329.8573 194.0328 337.3587 195.0456 340 211.1333 C342.5801 226.8485 341.2282 228.5528 340 245.1333 C339.2668 255.0311 336.6382 255.2412 336 265.1333 C334.6769 285.6421 337.6237 286.4895 336 307.1333 C334.1618 330.5054 329.9606 330.8876 329 354.1333 C327.4985 390.4685 331 428.1333 331 428.1333 "/>
<path id="19" d="M331 435.1333 C331 435.1333 358.5336 447.6827 385 450.1333 C436.6055 454.9116 439.2151 448.5607 493 450.1333 C524.4473 451.0528 524.5501 454.0489 556 455.1333 C596.823 456.541 638 455.1333 638 455.1333 "/>
<path id="20" d="M326 145.1333 C326 145.1333 345.4976 148.5642 365 150.1333 C388.8375 152.0513 389.0146 151.953 413 152.1333 C521.8994 152.9521 631 152.1333 631 152.1333 "/>
<path id="21" d="M332 98.1333 C332 98.1333 359.0578 101.9917 386 103.1333 C417.8067 104.4811 418.3111 101.1799 450 103.1333 C490.876 105.6531 491.1716 110.4142 532 112.1333 C585.5057 114.3862 640 111.1333 640 111.1333 "/>
</g>
</g>
</svg>
