<?xml version="1.0" encoding="utf-8"?>
<!DOCTYPE svg PUBLIC "-//W3C//DTD SVG 1.1//EN" "http://www.w3.org/Graphics/SVG/1.1/DTD/svg11.dtd">
<svg viewBox="0 0 800 800" preserveAspectRatio="xMinYMin meet" xmlns="http://www.w3.org/2000/svg" version="1.1">
<g fill="none" stroke="black" stroke-linecap="round" stroke-linejoin="round" stroke-width="0.69604">
<g transform="translate(87.52,238.3724) scale(4.3101) translate(-136,-175)">
<path id="0" d="M148 188 C148 188 138.893 199.6333 136 210 C133.6033 218.5882 133.196 224.3406 136 231 C139.1694 238.5273 144.4518 243.654 152 248 C157.313 251.059 169 250 169 250 "/>
<path id="1" d="M147 190 C147 190 149.1692 187.3051 151 187 C159.2046 185.6326 162.6721 184.8513 171 186 C175.0628 186.5604 178.1059 188.3166 180 191 C182.3554 194.3368 183 203 183 203 "/>
<path id="2" d="M165 209 C165 209 159.393 210.1486 159 211 C158.0936 212.9638 158.422 220.9403 159 222 C159.172 222.3153 162.7137 221.0373 165 222 C179.7607 228.2151 197 238 197 238 "/>
<path id="3" d="M164 210 C164 210 168.2325 208.9356 171 210 C185.9325 215.7433 203 225 203 225 "/>
<path id="4" d="M205 225 C205 225 201.6253 227.124 201 229 C199.6712 232.9864 199.4841 239.3694 200 240 C200.4146 240.5067 206.7911 241.8102 210 240 C239.7853 223.1981 278 196 278 196 "/>
<path id="5" d="M203 228 C203 228 204.9427 220.4133 209 217 C233.5593 196.339 241.3071 189.6071 266 175 C270.2238 172.5014 276.3988 174.5198 280 175 C280.3258 175.0434 280.9517 176.0817 281 177 C281.4003 184.6052 282.9371 190.6793 281 194 C279.2718 196.9626 267 201 267 201 "/>
<path id="6" d="M186 200 L186 209 "/>
<path id="7" d="M180 228 C180 228 180.4181 233.3411 179 236 C177.2163 239.3444 172 243 172 243 "/>
<path id="8" d="M189 206 L189 212 "/>
<path id="9" d="M237 203 L237 215 "/>
<path id="10" d="M251 194 L253 200 "/>
<path id="11" d="M264 185 L266 190 "/>
</g>
</g>
</svg>
