<?xml version="1.0" encoding="utf-8"?>
<!DOCTYPE svg PUBLIC "-//W3C//DTD SVG 1.1//EN" "http://www.w3.org/Graphics/SVG/1.1/DTD/svg11.dtd">
<svg viewBox="0 0 800 800" preserveAspectRatio="xMinYMin meet" xmlns="http://www.w3.org/2000/svg" version="1.1">
<g fill="none" stroke="black" stroke-linecap="round" stroke-linejoin="round" stroke-width="1.2193">
<g transform="translate(87.52,187.1691) scale(2.4605) translate(-196,-139)">
<path id="0" d="M448 308 C448 308 446.119 305.8446 446 304 C445.2218 291.9378 445.7389 290.4912 446 277 C447.2385 213.0125 450.1831 203.4229 449 149 C448.9063 144.6906 445.1764 139.4897 443 139 C434.0899 136.9952 425.5263 138.5629 409 140 C403.0556 140.5169 402.8866 142.6604 397 143 C377.6571 144.1159 367.951 140.6194 357 143 C354.7622 143.4865 351.3706 148.5532 351 153 C349.2384 174.1397 352 203 352 203 "/>
<path id="1" d="M450 308 C450 308 438.9576 310.5786 428 311 C387.3519 312.5634 350.5065 315.6539 346 312 C343.6988 310.1341 354 251 354 251 "/>
<path id="2" d="M416 204 C416 204 414.1684 199.9274 412 198 C410.4254 196.6003 409.3633 196.1125 407 196 C389.8384 195.1828 385.6621 192.8145 370 196 C359.6542 198.1042 358.3226 206.0943 348 208 C329.6699 211.384 326.1117 209.6793 305 208 C282.633 206.2208 282.4955 203.4102 260 201 C240.7181 198.9341 238.2714 197.4299 221 199 C213.598 199.6729 211.5447 201.7317 205 206 C201.1119 208.5357 200.1329 209.9712 198 214 C196.1672 217.4619 196.0996 218.616 196 223 C195.6147 239.9522 195.2523 244.0183 197 258 C197.2737 260.1893 199.2034 262.4011 201 263 C205.5443 264.5148 209.4167 265.2407 215 264 C220.8985 262.6892 222.5469 261.1548 228 257 C232.4192 253.633 231.9266 249.9613 236 248 C242.9113 244.6723 245.5978 244.4013 255 244 C326.1774 240.9619 333.0597 245.1578 400 241 C407.5775 240.5293 413.1624 237.4682 416 234 C418.3497 231.1281 416.206 225.8771 418 219 C419.0453 214.9932 422 213.9142 422 211 C422 206.6287 418 199 418 199 "/>
<path id="3" d="M357 254 L355 243 "/>
<path id="4" d="M405 259 C405 259 386.4357 256.7129 375 259 C370.5782 259.8844 366.2981 263.4598 365 267 C362.5114 273.7871 361.8572 282.7663 364 289 C365.3976 293.0658 370.5877 297.7597 376 299 C389.7201 302.1442 399.7056 303.1339 412 300 C418.3866 298.372 423.0927 292.6654 427 286 C429.7723 281.2707 429.9012 276.8575 429 271 C428.2687 266.2465 426.4247 264.2808 423 260 C421.0926 257.6157 419.5922 256.3111 417 256 C409.4475 255.0937 398 257 398 257 "/>
<path id="5" d="M406 262 C406 262 399.9485 262.0515 399 263 C397.8144 264.1856 396.7072 270.6235 397 271 C397.3635 271.4674 405.9881 271.9585 406 272 C406.0133 272.0465 400.7443 275.5081 399 278 C398.3599 278.9145 398.8 281.9 399 282 C399.8 282.4 406.2 281.6 407 282 C407.2 282.1 407.3284 285.8249 407 286 C404.3627 287.4066 392.1489 289.8677 392 290 C391.9804 290.0174 396.987 292.3116 398 294 C398.7998 295.333 398 300 398 300 "/>
<path id="6" d="M434 152 C434 152 437.6 152.2 438 152 C438.1 151.95 438 150 438 150 C437.9786 150 436 152 436 152 "/>
<path id="7" d="M366 156 C366 156 365.9 154.05 366 154 C366.4 153.8 369.9786 153.9786 370 154 C370 154 368 156 368 156 "/>
<path id="8" d="M435 303 L432 300 "/>
<path id="9" d="M436 151 C436 151 438.8125 151.1875 439 151 C439.1875 150.8125 439 148 439 148 "/>
<path id="10" d="M356 305 L361 305 "/>
<path id="11" d="M372 194 C372 194 371.6108 191.3406 372 191 C373.7052 189.508 376.2488 187.4547 380 187 C391.0528 185.6603 392.6954 186.0714 405 187 C418.9297 188.0513 420.5976 188.0818 433 191 C435.9746 191.6999 438.4807 193.2475 439 195 C441.1204 202.1562 441 206.7539 441 218 C441 225.8234 441.6953 230.3118 439 234 C435.5389 238.7362 430.2786 242.007 422 244 C405.9088 247.8738 401.2754 247.3538 385 247 C380.9958 246.913 376 243 376 243 "/>
</g>
</g>
</svg>
