<?xml version="1.0" encoding="utf-8"?>
<!DOCTYPE svg PUBLIC "-//W3C//DTD SVG 1.1//EN" "http://www.w3.org/Graphics/SVG/1.1/DTD/svg11.dtd">
<svg viewBox="0 0 800 800" preserveAspectRatio="xMinYMin meet" xmlns="http://www.w3.org/2000/svg" version="1.1">
<g fill="none" stroke="black" stroke-linecap="round" stroke-linejoin="round" stroke-width="0.97926">
<g transform="translate(87.52,124.2824) scale(3.0635) translate(-132,-131.1333)">
<path id="0" d="M140 158.1333 C140 158.1333 153.0012 178.4601 167 192.1333 C172.5368 197.5414 174.7783 197.0502 183 200.1333 C198.4698 205.9345 198.9941 206.6654 215 210.1333 C228.4216 213.0413 229.1704 212.9103 243 213.1333 C259.7483 213.4035 261.0287 213.3112 277 211.1333 C281.9142 210.4632 284.3469 209.0628 287 207.1333 C287.8034 206.549 287.5175 203.6158 288 203.1333 C288.2895 202.8439 290.3551 203.6708 291 203.1333 C296.912 198.2066 306 188.1333 306 188.1333 "/>
<path id="1" d="M141 159.1333 C141 159.1333 136.4756 170.1306 134 181.1333 C132.0626 189.7441 130.239 193.146 132 199.1333 C133.9752 205.8489 137.0309 209.9065 144 215.1333 C156.9946 224.8792 159.6527 224.9814 176 232.1333 C191.2592 238.8092 192.1838 240.7265 208 243.1333 C236.3956 247.4544 244.2148 249.3634 268 246.1333 C277.1406 244.892 284.2919 237.7382 289 232.1333 C290.6368 230.1847 290.4331 224.537 289 221.1333 C287.5189 217.6157 285.0738 216.0432 281 213.1333 C278.7933 211.5571 275 211.1333 275 211.1333 "/>
<path id="2" d="M277 242.1333 C277 242.1333 285.9724 242.5302 289 240.1333 C294.6745 235.641 294.3646 230.7896 301 223.1333 C307.0865 216.1104 315 210.1333 315 210.1333 "/>
<path id="3" d="M303 189.1333 C303 189.1333 315.5192 202.8877 316 206.1333 C316.2202 207.6196 307 216.1333 307 216.1333 "/>
<path id="4" d="M289 132.1333 C289 132.1333 291 164.9941 291 169.1333 C291 169.1333 289.0147 169.0745 289 169.1333 C288.7647 170.0745 289.2353 176.1922 289 177.1333 C288.9853 177.1922 287.0011 177.1167 287 177.1333 C286.7511 180.8667 287 207.1333 287 207.1333 "/>
<path id="5" d="M288 133.1333 C288 133.1333 332.0644 128.7556 336 131.1333 C337.5753 132.0851 336.5053 154.049 336 162.1333 C335.9817 162.4267 334.0279 162.8265 334 163.1333 C333.5043 168.5861 334.4957 178.6805 334 184.1333 C333.9721 184.4402 332.0073 184.8578 332 185.1333 C331.4837 204.493 332 259.1333 332 259.1333 "/>
<path id="6" d="M332 259.1333 C332 259.1333 333.4208 277.7946 332 294.1333 C331.5394 299.4307 328 305.1333 328 305.1333 "/>
<path id="7" d="M285 240.1333 C285 240.1333 285.7416 252.6384 285 264.1333 C284.7797 267.5478 283.7125 269.8865 283 271.1333 C282.9 271.3083 281.0007 271.1202 281 271.1333 C280.7507 275.8702 281.6904 295.3253 281 309.1333 C280.9618 309.8964 278.9824 311.1333 279 311.1333 C279.4396 311.1333 329 309.1333 329 309.1333 "/>
</g>
</g>
</svg>
