<?xml version="1.0" encoding="utf-8"?>
<!DOCTYPE svg PUBLIC "-//W3C//DTD SVG 1.1//EN" "http://www.w3.org/Graphics/SVG/1.1/DTD/svg11.dtd">
<svg viewBox="0 0 800 800" preserveAspectRatio="xMinYMin meet" xmlns="http://www.w3.org/2000/svg" version="1.1">
<g fill="none" stroke="black" stroke-linecap="round" stroke-linejoin="round" stroke-width="1.9441">
<g transform="translate(260.3484,87.52) scale(1.5431) translate(-220,-51)">
<path id="0" d="M401 66 C401 66 375.6295 71.0395 351 78 C329.8002 83.9913 330.2145 86.1939 309 92 C282.9472 99.1302 256.5296 100.3925 256 104 C246.6556 167.6475 256 453 256 453 "/>
<path id="1" d="M385 51 C385 51 366.0105 52.4329 349 58 C311.9097 70.1386 312.3467 74.8406 275 87 C248.4888 95.6316 227.2477 95.3505 220 100 C218.6873 100.8421 219.8199 111.0684 222 121 C224.19 130.9768 226.8837 130.8639 229 141 C236.2484 175.7161 239.2066 176.6928 241 212 C247.1158 332.4048 245 456 245 456 "/>
<path id="2" d="M277 235 C277 235 303.4635 234.6205 304 236 C307.3302 244.5635 308.2835 298.4394 305 307 C304.3898 308.5909 276 309 276 309 "/>
<path id="3" d="M276 217 L276 232 "/>
<path id="4" d="M277 220 C277 220 282.806 218.7506 283 219 C283.5702 219.7332 283.3749 228.7685 284 229 C287.455 230.2796 309.7199 228.0767 310 229 C313.1712 239.4531 314.7903 307.9669 311 318 C310.3917 319.6101 279.8784 317.227 276 319 C275.2499 319.3429 276.8272 332.6213 276 334 C275.7022 334.4963 268.4218 334.9479 267 334 C265.6835 333.1223 264.5276 329.8692 264 326 C263.1216 319.5584 262.6028 314.515 264 312 C264.9537 310.2834 274 308 274 308 "/>
<path id="5" d="M283 220 C283 220 284.1004 223.7992 284 224 C283.957 224.0861 281.1875 223.8125 281 224 C280.8125 224.1875 281 227 281 227 "/>
<path id="6" d="M271 320 C271 320 268.1188 323.287 268 324 C267.956 324.2641 269.9967 326.0049 270 326 C270.0247 325.9629 270 321 270 321 "/>
</g>
</g>
</svg>
