<?xml version="1.0" encoding="utf-8"?>
<!DOCTYPE svg PUBLIC "-//W3C//DTD SVG 1.1//EN" "http://www.w3.org/Graphics/SVG/1.1/DTD/svg11.dtd">
<svg viewBox="0 0 800 800" preserveAspectRatio="xMinYMin meet" xmlns="http://www.w3.org/2000/svg" version="1.1">
<g fill="none" stroke="black" stroke-linecap="round" stroke-linejoin="round" stroke-width="0.58084">
<g transform="translate(188.2367,87.52) scale(5.165) translate(-214,-199.9167)">
<path id="0" d="M233 316.9167 C233 316.9167 226.305 307.6576 223 297.9167 C217.0885 280.4933 216.5249 279.1522 214 260.9167 C212.1515 247.5665 212.1948 246.0689 214 232.9167 C215.5448 221.6618 216.2026 219.2293 221 209.9167 C223.732 204.6134 226.6217 201.4264 231 199.9167 C237.1857 197.7837 245.4648 197.3656 250 199.9167 C255.5199 203.0216 259.2436 208.7135 263 217.9167 C268.457 231.2863 268.5299 233.7256 270 248.9167 C271.4342 263.7364 271.8082 265.8759 269 279.9167 C266.6599 291.6173 265.2509 293.589 259 303.9167 C254.4514 311.4318 252.5695 312.8402 246 317.9167 C242.8782 320.329 241.3378 319.7336 237 320.9167 C236.1164 321.1577 235.0611 321.0541 235 320.9167 C234.3206 319.388 233 311.9167 233 311.9167 "/>
<path id="1" d="M245 245.8167 C245 245.8167 247.6931 241.0213 251 238.8167 C255.7537 235.6475 257.6126 234.4153 263 233.8167 C269.3409 233.1121 271.8662 233.3631 278 235.8167 C285.3761 238.7671 289.2424 240.8065 293 245.8167 C295.8735 249.648 296.2309 253.8123 296 259.8167 C295.7979 265.0725 294.6082 267.6436 292 271.8167 C290.606 274.0471 287.3649 274.2242 286 275.8167 C285.5521 276.3392 286.0094 278.817 286 278.8167 C283.1663 278.7222 263.8805 279.1509 256 274.8167 C251.1298 272.138 248.7229 265.2577 246 256.8167 C244.3323 251.6469 246 243.8167 246 243.8167 "/>
</g>
</g>
</svg>
