<?xml version="1.0" encoding="utf-8"?>
<!DOCTYPE svg PUBLIC "-//W3C//DTD SVG 1.1//EN" "http://www.w3.org/Graphics/SVG/1.1/DTD/svg11.dtd">
<svg viewBox="0 0 800 800" preserveAspectRatio="xMinYMin meet" xmlns="http://www.w3.org/2000/svg" version="1.1">
<g fill="none" stroke="black" stroke-linecap="round" stroke-linejoin="round" stroke-width="0.76325">
<g transform="translate(325.3192,87.52) scale(3.9306) translate(-112,-78.4167)">
<path id="0" d="M120 89.4167 C120 89.4167 120.8568 79.3149 122 78.4167 C123.2889 77.4039 131.3305 76.7179 134 78.4167 C138.2064 81.0935 140.1214 85.1444 144 92.4167 C147.8518 99.6388 149.6541 100.8058 150 108.4167 C152.4661 162.6705 152.2679 177.5464 150 224.4167 C149.8379 227.7664 147.3673 229.2899 144 232.4167 C140.8298 235.3605 139.7086 236.5738 136 237.4167 C130.3171 238.7082 128.0795 238.522 122 237.4167 C118.2102 236.7276 114.8986 235.1016 114 233.4167 C112.8042 231.1746 113.1433 226.7003 114 222.4167 C114.3583 220.6253 116.7236 218.4167 117 218.4167 C117.3686 218.4167 120.2966 220.6581 121 222.4167 C121.7537 224.3009 121.0098 228.402 121 228.4167 C120.9973 228.4207 118.9996 225.417 119 225.4167 C119.0004 225.4163 121.6406 226.578 122 227.4167 C122.547 228.6929 121.9283 232.4064 122 232.4167 C124.0792 232.7137 140.5912 231.9078 143 230.4167 C143.7376 229.9601 143.839 224.6184 143 219.4167 C141.4131 209.5777 138.4078 209.2044 138 199.4167 C135.9819 150.9825 140.4405 117.372 138 99.4167 C137.8803 98.5363 126.5257 95.5327 124 96.4167 C122.1472 97.0652 118.4675 106.2998 118 106.4167 C117.7662 106.4751 112.6949 102.3354 112 99.4167 C110.8653 94.651 111.1994 89.9182 113 85.4167 C114.1004 82.6657 116.905 80.9642 120 79.4167 C121.5475 78.6429 125 79.4167 125 79.4167 "/>
</g>
</g>
</svg>
