<?xml version="1.0" encoding="utf-8"?>
<!DOCTYPE svg PUBLIC "-//W3C//DTD SVG 1.1//EN" "http://www.w3.org/Graphics/SVG/1.1/DTD/svg11.dtd">
<svg viewBox="0 0 800 800" preserveAspectRatio="xMinYMin meet" xmlns="http://www.w3.org/2000/svg" version="1.1">
<g fill="none" stroke="black" stroke-linecap="round" stroke-linejoin="round" stroke-width="1.7617">
<g transform="translate(87.52,227.1568) scale(1.7029) translate(-93,-92.1333)">
<path id="0" d="M102 135.1333 C102 135.1333 97.0875 134.4083 96 135.1333 C94.7313 135.9792 93.5332 138.2893 93 141.1333 C92.1874 145.467 92.1005 148.2101 93 151.1333 C93.3805 152.3701 95.2087 153.7751 97 154.1333 C101.2837 154.9901 104.6677 152.6338 108 154.1333 C111.9533 155.9123 113.918 158.3919 117 163.1333 C119.8225 167.4757 120.4254 168.8182 121 174.1333 C122.3068 186.2212 118.4792 188.4295 121 200.1333 C125.0736 219.0464 126.5363 222.5315 135 239.1333 C138.3236 245.6527 140.5734 246.437 147 251.1333 C152.9148 255.4557 153.9669 255.4959 161 258.1333 C165.5477 259.8387 166.0778 260.0275 171 260.1333 C211.6792 261.0082 213.9796 262.6801 254 260.1333 C267.2335 259.2912 267.5153 254.8383 281 253.1333 C310.2594 249.4339 312.6421 254.8049 341 249.1333 C373.2758 242.6782 375.9033 238.8822 406 228.1333 C408.6687 227.1802 409.7678 226.3513 411 224.1333 C414.0502 218.6429 414.4616 217.21 416 210.1333 C419.3739 194.6136 417.6527 193.3822 421 178.1333 C421.999 173.5823 422.2655 172.2096 425 169.1333 C429.2832 164.3147 431.2594 162.7427 437 160.1333 C440.7297 158.438 443.561 160.9276 447 159.1333 C453.1248 155.9378 457.2594 151.7875 460 148.1333 C460.5613 147.3849 460.1206 144.9263 459 143.1333 C455.688 137.8341 453.8479 133.645 450 132.1333 C444.5118 129.9773 440.168 131.1422 431 132.1333 C422.1059 133.0949 421.7895 135.4902 413 136.1333 C401.9838 136.9394 399.7718 138.2355 390 135.1333 C370.7092 129.0093 369.0712 120.9011 350 116.1333 C334.6578 112.2978 331.8009 114.9923 314 116.1333 C293.0738 117.4748 292.8542 120.1035 272 121.1333 C252.773 122.0828 251.0736 118.7693 233 120.1333 C226.3242 120.6372 226.0653 123.6914 219 125.1333 C202.0567 128.5911 201.5449 128.279 184 130.1333 C140.1256 134.7705 96 138.1333 96 138.1333 "/>
<path id="1" d="M151 263.1333 C151 263.1333 151.7159 265.9998 151 267.1333 C146.9587 273.5321 141.5887 275.7792 139 282.1333 C137.4911 285.837 138.9029 292.7071 140 294.1333 C140.6807 295.0183 147.7676 296.2992 149 295.1333 C158.4956 286.151 177 259.1333 177 259.1333 "/>
<path id="2" d="M176 266.1333 C176 266.1333 170.7871 285.9204 171 286.1333 C171.1845 286.3179 187.4546 283.6333 190 280.1333 C193.9349 274.7228 195 253.1333 195 253.1333 "/>
<path id="3" d="M406 237.1333 C406 237.1333 410.4177 247.7531 417 255.1333 C426.1411 265.3824 430.7416 265.1867 439 274.1333 C440.8585 276.1468 441.1757 281.0117 441 281.1333 C439.9884 281.8336 431.6626 284.182 426 283.1333 C420.8535 282.1803 418.847 280.3987 414 276.1333 C407.007 269.9795 404.7769 268.6871 401 261.1333 C397.3109 253.7552 397 242.1333 397 242.1333 "/>
<path id="4" d="M375 241.1333 C375 241.1333 374.554 254.5651 376 266.1333 C376.4245 269.529 377.2582 271.8892 379 273.1333 C381.8616 275.1773 384.8528 275.5614 390 276.1333 C393.1287 276.481 395.3049 276.4372 397 275.1333 C399.8195 272.9645 401.8212 269.9054 403 266.1333 C403.7249 263.8137 403.2069 260.1893 402 259.1333 C398.4218 256.0024 391.5158 255.8965 387 252.1333 C384.9047 250.3872 384 244.1333 384 244.1333 "/>
<path id="5" d="M127 133.1333 C127 133.1333 124.5831 119.7681 126 110.1333 C126.7367 105.1238 129.6108 101.3234 132 99.1333 C132.8913 98.3163 135.5478 98.367 138 99.1333 C142.7255 100.6101 145.1133 101.4872 148 104.1333 C149.4846 105.4942 149.7764 110.0774 150 110.1333 C150.3194 110.2132 155.7647 107.1529 156 106.1333 C156.363 104.5603 155.1407 99.4388 153 97.1333 C150.4052 94.3389 147.7508 93.2645 143 92.1333 C138.3301 91.0214 134.5959 90.759 132 92.1333 C129.4596 93.4782 128.3162 96.501 126 101.1333 C123.9733 105.1866 123.4094 105.7662 123 110.1333 C121.9854 120.9556 123 133.1333 123 133.1333 "/>
</g>
</g>
</svg>
