<?xml version="1.0" encoding="utf-8"?>
<!DOCTYPE svg PUBLIC "-//W3C//DTD SVG 1.1//EN" "http://www.w3.org/Graphics/SVG/1.1/DTD/svg11.dtd">
<svg viewBox="0 0 800 800" preserveAspectRatio="xMinYMin meet" xmlns="http://www.w3.org/2000/svg" version="1.1">
<g fill="none" stroke="black" stroke-linecap="round" stroke-linejoin="round" stroke-width="1.9969">
<g transform="translate(87.52,270.8015) scale(1.5023) translate(-102,-154.1333)">
<path id="0" d="M113 207.1333 C113 207.1333 112.1471 213.016 113 218.1333 C114.0596 224.4912 114.4247 224.9526 117 231.1333 C121.8434 242.7574 120.8146 244.7238 128 254.1333 C140.7399 270.8165 142.198 274.932 159 286.1333 C179.7617 299.9745 183.9389 298.8642 209 308.1333 C219.7118 312.0952 220.4581 311.0348 232 313.1333 C242.4009 315.0244 242.5622 315.7102 253 316.1333 C279.1913 317.1951 279.6927 317.6992 306 316.1333 C363.3772 312.718 364.1453 311.9076 421 306.1333 C427.5201 305.4711 428.0913 305.5833 434 303.1333 C448.023 297.3189 450.5969 297.9049 462 289.1333 C474.9416 279.1783 477.9662 276.935 486 263.1333 C495.9958 245.9611 496.6004 242.2065 501 222.1333 C504.2007 207.5302 502 190.1333 502 190.1333 "/>
<path id="1" d="M107 194.1333 C107 194.1333 101.9921 196.1175 102 196.1333 C102.2455 196.6243 107.4837 203.7931 113 206.1333 C121.5761 209.7717 124.2079 210.1333 135 210.1333 C263.034 210.1333 266.1159 209.941 396 206.1333 C418.9541 205.4604 418.9898 202.6422 442 201.1333 C479.8455 198.6517 507.889 199.5968 518 198.1333 C518.1532 198.1112 519.0329 191.6254 518 190.1333 C516.5499 188.0388 512.9243 185.1498 509 185.1333 C409.387 184.7148 394.487 187.4372 280 189.1333 C259.5076 189.4369 256.6078 190.2817 239 189.1333 C236.7687 188.9878 236.3033 186.497 234 186.1333 C228.1089 185.2032 226.7513 185.2067 220 186.1333 C201.6939 188.6459 201.3262 191.9231 183 193.1333 C149.2459 195.3624 114 193.1333 114 193.1333 "/>
<path id="2" d="M160 284.1333 C160 284.1333 161.1076 290.8167 160 296.1333 C158.7962 301.9114 158.605 303.9515 155 308.1333 C147.4318 316.9125 135.0249 324.9923 135 325.1333 C134.9964 325.1539 144.0146 326.3077 152 325.1333 C160.3308 323.9082 165.0672 323.9204 169 320.1333 C174.4485 314.8867 179 299.1333 179 299.1333 "/>
<path id="3" d="M473 286.1333 C473 286.1333 478.481 293.5069 485 298.1333 C493.2923 304.0182 499.1945 303.1094 504 308.1333 C506.7068 310.9632 507.455 320.6025 507 321.1333 C506.3954 321.8387 498.4357 323.2429 492 322.1333 C485.4745 321.0082 481.9044 320.307 478 316.1333 C470.0197 307.6026 463 291.1333 463 291.1333 "/>
<path id="4" d="M121 192.1333 C121 192.1333 119.157 180.1232 121 174.1333 C122.0712 170.652 124.5733 168.9369 129 166.1333 C138.8134 159.9182 140.3239 158.4183 151 155.1333 C158.2791 152.8936 162.9529 152.8167 168 154.1333 C170.3597 154.7489 172.842 157.8247 174 161.1333 C175.6989 165.9872 175.3595 173.9895 175 174.1333 C172.3811 175.1809 147.3752 171.2923 144 173.1333 C142.6298 173.8807 142 192.1333 142 192.1333 "/>
<path id="5" d="M107 185.1333 C107 185.1333 125.5765 182.0796 128 183.1333 C128.8689 183.5111 130.2667 195.0053 130 195.1333 C128.0848 196.0527 105.3677 196.1351 103 195.1333 C102.6796 194.9978 103.2165 185.3646 104 184.1333 C104.2571 183.7293 110 184.1333 110 184.1333 "/>
<path id="6" d="M110 184.1333 L110 194.1333 "/>
<path id="7" d="M115 186.1333 L115 192.1333 "/>
<path id="8" d="M149 184.1333 C149 184.1333 164.9888 180.4294 167 181.1333 C167.6526 181.3617 169.2942 190.967 169 191.1333 C166.8496 192.3488 146.2266 194.6677 144 194.1333 C143.8019 194.0858 143.1807 186.6354 144 185.1333 C144.48 184.2533 150 183.1333 150 183.1333 "/>
<path id="9" d="M150 185.1333 L150 193.1333 "/>
<path id="10" d="M155 185.1333 L156 196.1333 "/>
<path id="11" d="M162 184.1333 L162 191.1333 "/>
<path id="12" d="M151 320.1333 L146 320.1333 "/>
<path id="13" d="M163 318.1333 L151 326.1333 "/>
<path id="14" d="M496 312.1333 C496 312.1333 501.3772 311.2591 504 312.1333 C505.7485 312.7162 508 316.1333 508 316.1333 "/>
<path id="15" d="M500 318.1333 L504 318.1333 "/>
<path id="16" d="M493 318.1333 C493 318.1333 496.0332 317.6499 497 318.1333 C497.846 318.5563 499 321.1333 499 321.1333 "/>
</g>
</g>
</svg>
