<?xml version="1.0" encoding="utf-8"?>
<!DOCTYPE svg PUBLIC "-//W3C//DTD SVG 1.1//EN" "http://www.w3.org/Graphics/SVG/1.1/DTD/svg11.dtd">
<svg viewBox="0 0 800 800" preserveAspectRatio="xMinYMin meet" xmlns="http://www.w3.org/2000/svg" version="1.1">
<g fill="none" stroke="black" stroke-linecap="round" stroke-linejoin="round" stroke-width="1.6081">
<g transform="translate(87.52,211.5792) scale(1.8656) translate(-59,-120.4167)">
<path id="0" d="M98 165.4167 C98 165.4167 114.8412 174.127 132 178.4167 C155.9532 184.405 157.3316 185.636 182 186.4167 C234.9687 188.0929 237.1134 186.9424 290 183.4167 C303.3927 182.5238 304.0665 181.5888 317 177.4167 C334.6628 171.719 334.8712 170.9929 352 163.4167 C360.7244 159.5578 361.6758 159.9098 369 154.4167 C379.0226 146.8997 387.8719 136.3366 388 136.4167 C388.4235 136.6813 391.6978 153.0095 393 169.4167 C394.1697 184.155 393.764 184.9014 393 199.4167 C392.7936 203.3383 392.9369 204.4144 391 207.4167 C383.7835 218.6022 383.4167 221.2175 373 230.4167 C346.1532 254.1256 344.3672 255.2751 314 275.4167 C296.1361 287.2652 294.6744 288.6986 275 295.4167 C255.3675 302.1205 253.3185 301.6401 232 303.4167 C206.1249 305.5729 204.837 305.0944 179 303.4167 C167.142 302.6467 166.1297 302.4638 155 298.4167 C133.9163 290.7499 130.8287 290.8154 113 279.4167 C102.5338 272.7252 101.5344 270.1475 94 259.4167 C85.6771 247.5628 85.2673 246.1116 80 232.4167 C75.5585 220.8687 75.6409 219.8408 74 207.4167 C72.2102 193.8656 71.4769 190.992 73 179.4167 C73.5897 174.9352 75.5583 171.5529 79 169.4167 C86.8848 164.5226 102 161.4167 102 161.4167 "/>
<path id="1" d="M97 160.4167 C97 160.4167 111.833 149.5439 127 146.4167 C205.1079 130.312 210.05 129.1288 291 120.4167 C319.5292 117.3463 321.1295 119.5924 350 122.4167 C366.4285 124.0238 369.0042 124.3273 383 129.4167 C388.6198 131.4602 394 138.4167 394 138.4167 "/>
<path id="2" d="M116 264.4167 C116 264.4167 102.4145 262.4403 92 263.4167 C88.3515 263.7587 86.3706 264.8767 84 267.4167 C80.5681 271.0937 78.9681 273.1611 78 278.4167 C75.8259 290.2188 77.8476 293.1266 77 305.4167 C76.9352 306.356 76.3701 307.3514 76 307.4167 C71.5752 308.1975 62.1168 307.1715 60 308.4167 C59.1968 308.8891 58.7124 313.9657 59 317.4167 C59.1021 318.6423 60.2253 320.2993 61 320.4167 C70.8795 321.9136 89.5138 324.0482 92 322.4167 C93.3478 321.5322 91.57 309.4264 93 299.4167 C93.3354 297.0687 94.1957 296.6009 96 294.4167 C103.5321 285.2989 104.0838 282.8105 112 276.4167 C115.2203 273.8157 121.1231 274.5859 122 273.4167 C122.689 272.498 122.0933 265.7529 121 264.4167 C120.0485 263.2537 113 262.4167 113 262.4167 "/>
<path id="3" d="M329 240.4167 C329 240.4167 333.3821 235.8474 337 235.4167 C351.3113 233.7129 356.2712 233.704 371 235.4167 C375.1507 235.8993 377.3906 237.2579 380 240.4167 C385.5108 247.0876 387.5451 249.6199 390 258.4167 C393.0178 269.2306 392.8171 277.6973 392 283.4167 C391.8725 284.3093 388.9144 285.9098 386 286.4167 C378.3254 287.7514 370.5708 288.0635 369 287.4167 C368.6881 287.2882 367.9348 282.2572 369 279.4167 C370.3648 275.7772 374.5164 274.6812 375 271.4167 C376.0177 264.5475 375.6317 257.68 373 252.4167 C371.3552 249.1271 367.5361 247.9079 362 245.4167 C358.1267 243.6737 357.4388 243.7126 353 243.4167 C342.7939 242.7363 335.5711 244.2283 332 243.4167 C331.6367 243.3341 331 238.4167 331 238.4167 "/>
<path id="4" d="M141 283.4167 C141 283.4167 135.7583 283.0902 132 284.4167 C128.0762 285.8015 124.6223 287.3423 124 289.4167 C121.8723 296.5089 121.3957 310.9612 123 314.4167 C123.6212 315.7546 136.2704 318.181 137 317.4167 C139.2303 315.0801 141.4846 304.6343 144 292.4167 C144.8562 288.2581 144.9161 285.6154 144 283.4167 C143.4826 282.1748 139 280.4167 139 280.4167 "/>
<path id="5" d="M320 256.4167 C320 256.4167 331.8683 255.9306 336 256.4167 C336.319 256.4542 336.7905 257.3989 337 258.4167 C340.1571 273.7511 343.5538 286.651 343 290.4167 C342.9356 290.8545 332.3373 292.8745 332 292.4167 C330.7176 290.6763 331.4378 275.3171 329 271.4167 C327.881 269.6263 318.354 269.8835 317 268.4167 C316.0381 267.3747 316.3785 259.1073 317 258.4167 C317.5035 257.8573 326 258.4167 326 258.4167 "/>
</g>
</g>
</svg>
