<?xml version="1.0" encoding="utf-8"?>
<!DOCTYPE svg PUBLIC "-//W3C//DTD SVG 1.1//EN" "http://www.w3.org/Graphics/SVG/1.1/DTD/svg11.dtd">
<svg viewBox="0 0 800 800" preserveAspectRatio="xMinYMin meet" xmlns="http://www.w3.org/2000/svg" version="1.1">
<g fill="none" stroke="black" stroke-linecap="round" stroke-linejoin="round" stroke-width="1.1713">
<g transform="translate(87.52,195.0951) scale(2.5613) translate(-150,-111.4167)">
<path id="0" d="M391 113.4167 C391 113.4167 389.7292 111.4213 389 111.4167 C332.4797 111.0589 306.7717 106.5443 233 112.4167 C211.1662 114.1547 209.995 119.0852 188 127.4167 C177.2425 131.4915 173.1267 131.7438 167 137.4167 C162.973 141.1453 161.431 145.4134 161 152.4167 C159.6014 175.144 160.6322 183.8126 163 202.4167 C163.2656 204.5032 166.4872 204.8233 168 207.4167 C169.5606 210.092 168.2311 212.4119 170 214.4167 C174.3332 219.3276 176.4202 220.9952 183 224.4167 C187.9023 226.9659 189.1029 226.9852 195 227.4167 C208.9954 228.4407 211.5667 229.6773 224 227.4167 C231.0546 226.134 235.3318 222.1067 239 219.4167 C239.3867 219.1331 238.6754 216.5981 239 216.4167 C247.3152 211.77 255.7991 205.8485 273 200.4167 C292.6119 194.2235 294.203 195.0163 315 192.4167 C325.6403 191.0866 328.4021 195.4676 337 192.4167 C355.6835 185.787 364.4524 179.678 377 170.4167 C378.9284 168.9934 376.998 164.9201 379 161.4167 C384.3292 152.0906 390.2884 151.2744 393 142.4167 C396.5291 130.8884 394 112.4167 394 112.4167 "/>
<path id="1" d="M394 143.4167 C394 143.4167 392.351 154.8446 388 164.4167 C380.1816 181.6171 376.777 181.7517 369 198.4167 C366.835 203.0559 369.3566 205.0836 367 209.4167 C354.9572 231.5598 352.449 234.1682 338 255.4167 C336.3731 257.8092 335.6337 258.5201 333 259.4167 C313.921 265.9116 310.8364 268.1106 291 271.4167 C283.0354 272.7441 281.9423 269.4951 273 269.4167 C225.3588 268.9988 219.804 271.6514 177 270.4167 C173.3805 270.3123 172.1801 268.9153 169 266.4167 C165.7179 263.8379 164.7582 263.2107 163 259.4167 C155.8049 243.8903 154.4267 241.7614 150 225.4167 C148.3483 219.318 148.7675 217.7847 150 211.4167 C151.5989 203.1558 154.4063 202.9164 156 194.4167 C158.7752 179.6153 159 163.4167 159 163.4167 "/>
</g>
</g>
</svg>
