<?xml version="1.0" encoding="utf-8"?>
<!DOCTYPE svg PUBLIC "-//W3C//DTD SVG 1.1//EN" "http://www.w3.org/Graphics/SVG/1.1/DTD/svg11.dtd">
<svg viewBox="0 0 800 800" preserveAspectRatio="xMinYMin meet" xmlns="http://www.w3.org/2000/svg" version="1.1">
<g fill="none" stroke="black" stroke-linecap="round" stroke-linejoin="round" stroke-width="1.4833">
<g transform="translate(87.52,311.0089) scale(2.0225) translate(-189.8,-158.8)">
<path id="0" d="M244.8 209.8 C244.8 209.8 243.3668 191.6616 245.8 179.8 C246.6407 175.7018 250.1002 172.0705 252.8 170.8 C255.0899 169.7224 260.9123 169.9123 262.8 171.8 C271.8952 180.8952 277.564 196.6281 284.8 202.8 C286.3377 204.1116 292.482 203.2861 296.8 200.8 C306.9084 194.98 317.8 183.8 317.8 183.8 "/>
<path id="1" d="M273.8 173.8 C273.8 173.8 280.0366 168.9108 284.8 168.8 C298.4725 168.482 316.8 172.8 316.8 172.8 "/>
<path id="2" d="M314.8 180.8 C314.8 180.8 332.5255 172.3726 336.8 172.8 C338.6348 172.9835 342.1207 178.1979 344.8 183.8 C347.2278 188.8764 347.8 190.1203 347.8 195.8 C347.8 212.3658 349.2175 220.4189 344.8 230.8 C342.4578 236.3041 335.3592 241.7452 327.8 242.8 C299.8695 246.6973 277.6366 249.4239 258.8 242.8 C249.7222 239.6078 236.8 210.8 236.8 210.8 "/>
<path id="3" d="M339.8 173.8 C339.8 173.8 339.8612 169.302 340.8 167.8 C341.4377 166.7798 342.9653 165.8917 344.8 165.8 C360.9096 164.9945 378.7061 162.9322 380.8 165.8 C386.4002 173.4699 388.5983 202.7465 390.8 228.8 C391.0642 231.9267 389.0282 235.166 386.8 236.8 C383.819 238.986 381.2408 239.2818 375.8 239.8 C360.8092 241.2277 358.4654 241.1904 344.8 240.8 C343.0099 240.7489 340.8 238.8 340.8 238.8 "/>
<path id="4" d="M381.8 162.8 C381.8 162.8 397.3097 161.3362 405.8 162.8 C407.8738 163.1575 409.2221 165.0386 410.8 167.8 C414.8166 174.8291 417.0357 176.2841 417.8 183.8 C419.762 203.0929 418.8671 209.9188 416.8 226.8 C416.483 229.3885 413.5649 232.4931 411.8 232.8 C406.6449 233.6965 393.8 230.8 393.8 230.8 "/>
<path id="5" d="M245.8 185.8 C245.8 185.8 241.8734 175.2556 236.8 166.8 C234.8039 163.4732 232.9853 161.7933 230.8 160.8 C229.6618 160.2826 226.1247 161.0531 225.8 161.8 C220.5287 173.9241 216.3306 184.6774 210.8 206.8 C208.6161 215.5356 208.0357 219.1841 209.8 225.8 C211.062 230.5324 213.8968 234.2258 218.8 236.8 C230.8297 243.1156 249.8 246.8 249.8 246.8 "/>
<path id="6" d="M213.8 185.8 C213.8 185.8 205.4924 183.5538 201.8 183.8 C200.8043 183.8664 199.3388 185.2733 198.8 186.8 C196.8008 192.4643 196.4333 193.8332 195.8 200.8 C194.4647 215.4879 193.6812 227.7488 194.8 230.8 C194.9661 231.2531 206.8 230.8 206.8 230.8 "/>
<path id="7" d="M197.8 184.8 C197.8 184.8 189.8294 184.6312 189.8 184.8 C188.8294 190.3812 189.4266 225.0744 189.8 230.8 C189.8016 230.8244 192.8 230.8 192.8 230.8 "/>
<path id="8" d="M344.8 174.8 C344.8 174.8 355.6534 163.8133 363.8 158.8 C365.7769 157.5834 367.8682 158.0182 370.8 158.8 C374.5973 159.8126 376.0014 160.166 378.8 162.8 C383.6277 167.3437 385.2513 173.1009 387.8 174.8 C388.4996 175.2664 391.775 174.42 393.8 172.8 C398.3295 169.1764 398.3373 165.7751 402.8 162.8 C405.7435 160.8377 410.3288 159.9173 411.8 160.8 C415.4592 162.9955 418.8004 167.4323 422.8 174.8 C427.8753 184.1493 429.4653 186.0121 430.8 195.8 C432.1732 205.8699 432.2273 213.8018 428.8 218.8 C424.9909 224.3549 417.1493 228.6588 406.8 230.8 C391.5822 233.9485 385.4956 233.2493 370.8 230.8 C365.3572 229.8929 358.8 222.8 358.8 222.8 "/>
<path id="9" d="M347.8 171.8 C347.8 171.8 346.4176 182.6528 348.8 189.8 C351.1824 196.9472 355.4942 197.5874 358.8 204.8 C360.3966 208.2835 358.7397 211.4673 359.8 213.8 C360.2282 214.742 362.9257 214.6343 363.8 215.8 C365.1114 217.5485 364.8507 221.357 365.8 221.8 C368.4633 223.0429 376.9797 222.3799 378.8 222.8 C378.8635 222.8147 378.8 224.8 378.8 224.8 "/>
<path id="10" d="M357.8 230.8 C357.8 230.8 356.7829 233.7961 356.8 233.8 C357.5768 233.9793 370.8 233.8 370.8 233.8 "/>
<path id="11" d="M200.8 183.8 C200.8 183.8 201.4731 180.675 200.8 179.8 C197.9913 176.1486 190.8756 170.7698 190.8 170.8 C190.7386 170.8246 190.8 183.8 190.8 183.8 "/>
<path id="12" d="M202.8 176.8 C202.8 176.8 205.6394 172.4002 207.8 171.8 C212.1964 170.5788 220.8 171.8 220.8 171.8 "/>
<path id="13" d="M424.8 164.8 C424.8 164.8 429.1829 160.3502 432.8 158.8 C434.8529 157.9202 436.4021 157.9607 438.8 158.8 C445.3742 161.101 446.9195 161.8797 452.8 165.8 C455.1102 167.3401 455.1094 169.7434 456.8 170.8 C457.7491 171.3932 459.6343 171.3828 460.8 170.8 C462.5485 169.9257 463.1576 167.0527 464.8 166.8 C472.6288 165.5956 480.0422 164.2161 486.8 166.8 C492.0129 168.7932 496.3288 174.0339 498.8 179.8 C500.8431 184.5673 499.9359 188.2685 498.8 194.8 C498.1415 198.5864 497.4 201.1333 494.8 202.8 C481.7268 211.1803 476.6862 214.7341 459.8 219.8 C449.1461 222.9962 434.8 220.8 434.8 220.8 C434.8 220.8 454.8 220.8 454.8 220.8 "/>
</g>
</g>
</svg>
