<?xml version="1.0" encoding="utf-8"?>
<!DOCTYPE svg PUBLIC "-//W3C//DTD SVG 1.1//EN" "http://www.w3.org/Graphics/SVG/1.1/DTD/svg11.dtd">
<svg viewBox="0 0 800 800" preserveAspectRatio="xMinYMin meet" xmlns="http://www.w3.org/2000/svg" version="1.1">
<g fill="none" stroke="black" stroke-linecap="round" stroke-linejoin="round" stroke-width="0.53763">
<g transform="translate(87.52,201.91) scale(5.58) translate(-227.3611,-271.25)">
<path id="0" d="M232.3611 275.25 C232.3611 275.25 237.485 285.0691 242.3611 290.25 C243.8886 291.8729 246.2603 290.7794 248.3611 292.25 C250.4903 293.7404 250.2433 296.2468 252.3611 297.25 C257.9794 299.9113 259.9961 300.5649 267.3611 301.25 C280.7763 302.4979 284.0669 304.4769 295.3611 301.25 C308.4992 297.4962 312.6206 293.3054 323.3611 285.25 C326.0462 283.2362 324.8624 280.4301 327.3611 277.25 C329.9399 273.9679 334.3611 271.25 334.3611 271.25 "/>
<path id="1" d="M231.3611 277.25 C231.3611 277.25 231.7148 287.6987 232.3611 289.25 C232.4479 289.4582 235.1954 289.8328 236.3611 289.25 C238.1096 288.3757 240.3611 285.25 240.3611 285.25 "/>
<path id="2" d="M240.3611 285.25 C240.3611 285.25 238.4632 287.0244 238.3611 288.25 C238.0735 291.701 239.1814 297.1217 239.3611 297.25 C239.4371 297.3043 245.3611 293.25 245.3611 293.25 "/>
<path id="3" d="M245.3611 293.25 C245.3611 293.25 244.7985 299.3498 245.3611 300.25 C245.6927 300.7805 249.3225 301.6395 250.3611 301.25 C251.3716 300.8711 253.3611 297.25 253.3611 297.25 "/>
<path id="4" d="M253.3611 297.25 C253.3611 297.25 252.9436 305.3106 253.3611 306.25 C253.4436 306.4356 256.3962 306.8014 257.3611 306.25 C258.6362 305.5214 260.36 302.2492 260.3611 302.25 C260.375 302.2592 260.0302 308.0515 260.3611 308.25 C261.2802 308.8015 269.202 308.9876 270.3611 308.25 C270.9934 307.8477 271.3598 301.2491 271.3611 301.25 C271.364 301.2519 272.3311 309.5369 273.3611 310.25 C274.7376 311.203 282.8697 310.9957 284.3611 310.25 C284.9034 309.9788 285.3594 304.25 285.3611 304.25 C285.3645 304.25 286.4694 309.715 287.3611 310.25 C288.635 311.0143 294.5429 310.9864 295.3611 310.25 C296.3941 309.3203 297.3565 301.2561 297.3611 301.25 C297.363 301.2475 297.8246 305.7135 298.3611 306.25 C298.7188 306.6077 300.647 306.7175 302.3611 306.25 C305.7113 305.3363 308.2628 304.5052 309.3611 303.25 C309.9629 302.5622 309.3364 298.2871 309.3611 298.25 C309.3644 298.2451 310.6519 300.1791 311.3611 300.25 C313.9079 300.5047 318.5865 300.1107 319.3611 299.25 C320.2964 298.2108 320.3611 290.25 320.3611 290.25 "/>
<path id="5" d="M320.3611 290.25 C320.3611 290.25 321.5055 294.537 322.3611 295.25 C322.9161 295.7125 324.9408 295.7826 326.3611 295.25 C328.1808 294.5676 330.2956 292.774 330.3611 292.25 C330.4477 291.5576 327.3611 287.25 327.3611 287.25 "/>
<path id="6" d="M327.3611 284.25 L328.3611 287.25 "/>
<path id="7" d="M332.3611 278.25 C332.3611 278.25 335.3611 283.0504 335.3611 285.25 C335.3611 286.8211 332.3611 290.25 332.3611 290.25 "/>
<path id="8" d="M227.3611 304.25 C227.3611 304.25 232.1016 319.3099 239.3611 327.25 C245.833 334.3286 249.9456 337.3071 259.3611 339.25 C277.4608 342.9849 286.1069 344.3136 302.3611 340.25 C313.5775 337.4459 318.7495 332.258 327.3611 322.25 C335.0603 313.3023 339.3611 297.25 339.3611 297.25 "/>
<path id="9" d="M229.3611 309.25 C229.3611 309.25 234.1823 307.1785 234.3611 307.25 C234.4292 307.2773 234.1611 310.85 234.3611 311.25 C234.4111 311.35 236.3635 311.2406 236.3611 311.25 C236.3388 311.3394 233.3624 315.2493 233.3611 315.25 C233.3605 315.2503 234.0768 312.3448 234.3611 312.25 C235.0244 312.0289 238.762 312.551 239.3611 313.25 C240.1383 314.1567 240.8665 317.3971 240.3611 319.25 C239.8237 321.2206 236.3611 324.25 236.3611 324.25 C236.3611 324.25 237.8093 322.25 238.3611 322.25 C240.2924 322.25 244.6283 323.3079 245.3611 324.25 C246.0501 325.1359 245.3529 331.2445 245.3611 331.25 C245.3617 331.2504 247.0953 326.9533 248.3611 326.25 C249.6757 325.5197 254.1303 325.9038 254.3611 326.25 C254.8803 327.0288 254.361 335.2496 254.3611 335.25 C254.3612 335.2502 254.9712 330.445 255.3611 330.25 C256.0852 329.8879 261.9097 330.6051 262.3611 331.25 C263.0497 332.2337 262.3607 340.2498 262.3611 340.25 C262.3613 340.2501 263.5609 332.8102 264.3611 332.25 C265.1298 331.7119 271.6504 332.5393 272.3611 333.25 C272.9139 333.8028 272.3611 340.25 272.3611 340.25 C272.3636 340.25 274.0724 334.0701 275.3611 333.25 C276.7441 332.3699 282.7446 332.6335 283.3611 333.25 C284.1318 334.0207 284.3593 342.2494 284.3611 342.25 C284.3614 342.2501 285.3789 335.1231 286.3611 334.25 C287.1158 333.5792 292.1036 333.5514 293.3611 334.25 C294.2194 334.7268 295.3602 339.251 295.3611 339.25 C295.3633 339.2478 294.5526 333.5975 295.3611 332.25 C296.1234 330.9795 299.2069 329.4458 301.3611 329.25 C303.0158 329.0996 304.8838 329.9837 306.3611 331.25 C307.5555 332.2738 308.3608 335.2516 308.3611 335.25 C308.3619 335.246 306.9234 327.3442 307.3611 326.25 C307.5138 325.8683 310.6145 324.9007 312.3611 325.25 C314.3988 325.6575 317.3316 328.2795 317.3611 328.25 C317.479 328.1321 317.0161 320.6525 317.3611 320.25 C317.5398 320.0416 323.2184 321.3927 323.3611 321.25 C323.5038 321.1073 322.0247 316.5956 322.3611 315.25 C322.522 314.6065 324.4409 313.25 325.3611 313.25 C326.8949 313.25 330.287 315.3241 330.3611 315.25 C330.534 315.0771 329.4195 310.1331 330.3611 308.25 C331.4372 306.0978 336.3611 303.25 336.3611 303.25 "/>
<path id="10" d="M231.3611 275.25 C231.3611 275.25 227.846 279.4922 227.3611 283.25 C226.0516 293.399 226.4217 300.3788 227.3611 306.25 C227.4689 306.9239 231.3611 308.25 231.3611 308.25 "/>
<path id="11" d="M334.3611 273.25 C334.3611 273.25 336.3544 273.2064 336.3611 273.25 C336.934 276.9741 338.3611 299.25 338.3611 299.25 "/>
</g>
</g>
</svg>
