<?xml version="1.0" encoding="utf-8"?>
<!DOCTYPE svg PUBLIC "-//W3C//DTD SVG 1.1//EN" "http://www.w3.org/Graphics/SVG/1.1/DTD/svg11.dtd">
<svg viewBox="0 0 800 800" preserveAspectRatio="xMinYMin meet" xmlns="http://www.w3.org/2000/svg" version="1.1">
<g fill="none" stroke="black" stroke-linecap="round" stroke-linejoin="round" stroke-width="0.84005">
<g transform="translate(148.2304,87.52) scale(3.5712) translate(-139,-81)">
<path id="0" d="M150,245C150,245 146.9512917234593,233.4155006815115 146,222C144.9807588677222,209.76910641266625 144.49908955667297,209.0072835466162 146,197C147.91366081524197,181.69071347806434 151.59069048564191,180.93868085219563 153,166C153.97089499320498,155.70851307202733 153.9949021949086,153.21508367664188 151,144C148.1472399622449,135.22227680690736 142.87442852840115,134.62328558520346 140,126C137.56779124519903,118.70337373559707 137.54682547256823,114.78148112801486 139,108C139.93960280689362,103.61518690116308 141.78487203693763,100.99495934217589 146,98C158.87344118569607,88.8530812627949 164.88081984490583,82.4915914037039 177,81C189.04593545866635,79.51742332816414 194.45857776259348,86.08229473324583 211,90C212.83124266575805,90.43371536820585 213.85414608756613,90.6684147822531 215,90C218.46143369381065,87.98083034527712 219.4293521051605,84.1902159649465 223,83C227.4921054160884,81.50263152797053 231.04021473171562,81.28972921783297 236,83C243.4199440087862,85.55860138234007 249.77831649754546,93.17773468019636 252,93C253.455787347661,92.88353701218712 257.3707317073171,83.90341463414634 261,81C262.1707317073171,80.06341463414634 265.3928969325148,80.0357381595089 267,81C270.85704736196436,83.31422841717862 272.14765079678847,85.25864713450886 276,90C278.4206332158111,92.97924088099825 279.40664348552383,93.7365391703811 280,97C281.15180970457135,103.33495337514254 282.2866753421577,106.58418997910017 280,112C274.2037014660269,125.72807547519943 269.11369000330523,126.70881499377093 261,142C256.40196691767886,150.6655238859129 255.39025849483812,151.9633197835522 254,161C252.62572148786117,169.9328103289024 252.59607697112938,172.07114303562344 255,181C259.21028644335405,196.6382067896007 263.7571232780035,197.66036877432052 268,213C269.78794267125374,219.46410042684042 269.48076835925735,222.0769265629705 268,228C266.96346214851985,232.14615140592065 264.41858842582354,235.0211549243262 262,237C261.09508596312724,237.7403842119868 257.2319456735203,237.44842830213923 257,237C253.9352245005518,231.0747673677335 253.35126036036823,221.2548042303337 247,208C242.25809106263506,198.1038422176732 241.36665970337444,196.62068245176664 234,189C227.8235186858719,182.61053657159164 225.2856609594652,181.08239502131218 218,178C214.47249190044516,176.50759272711141 212.63124777429888,177.2687503514265 208,178C203.61250210855894,178.69276282496438 202.30915909031972,178.8726834419373 199,181C196.31806714248597,182.72409969411615 195.81400737206147,183.7347867302894 194,187C186.07806907137717,201.25947567152107 184.94909061912122,201.6696510968799 179,217C172.14615184922076,234.6618394654696 172.77983232353713,244.67932696910256 168,254C167.258450547521,255.44602143233405 162.2602677250867,256.4075334656358 159,256C156.20548480706853,255.65068560088358 153.07546775499958,253.88206857124925 152,252C150.5788461808934,249.51298081656347 151,242 151,242"/>
<path id="1" d="M156,155C156,155 160.98355456181622,155.27795991214938 165,154C171.42631270109405,151.95526414056098 171.80163600505648,149.0330606658239 178,148C188.18302656312153,146.3028289061464 192.73171670296043,148.95403268811995 201,148C202.202910780673,147.86120260223004 202.6788002911922,145.26423994176156 204,145C210.31239860874842,143.73752027825031 213.60323728149146,145.34486594881974 221,144C223.3873149514763,143.56594273609522 223.8294198243955,141.24117557506716 226,141C231.24556875771088,140.417159026921 234.14611674585464,140.30114086104913 239,142C242.30863952155226,143.1580238325433 242.63115492856525,146.5261302812473 246,148C249.3032182193938,149.44515797098478 252.20876742348756,147.98500633581366 255,149C255.92137774370315,149.33504645225568 257,152 257,152"/>
</g>
</g>
</svg>
