<?xml version="1.0" encoding="utf-8"?>
<!DOCTYPE svg PUBLIC "-//W3C//DTD SVG 1.1//EN" "http://www.w3.org/Graphics/SVG/1.1/DTD/svg11.dtd">
<svg viewBox="0 0 800 800" preserveAspectRatio="xMinYMin meet" xmlns="http://www.w3.org/2000/svg" version="1.1">
<g fill="none" stroke="black" stroke-linecap="round" stroke-linejoin="round" stroke-width="0.63364">
<g transform="translate(210.6182,87.52) scale(4.7345) translate(-230,-56)">
<path id="0" d="M230 77 C230 77 230.792 89.9701 234 102 C240.6785 127.0443 243.8797 126.9359 250 152 C254.2259 169.3059 255 188 255 188 "/>
<path id="1" d="M257 187 C257 187 267.061 174.4214 272 163 C274.1761 157.9677 272.9977 149.9977 273 150 C273.0046 150.0046 274.4955 160.2388 278 169 C281.2709 177.1772 286.8259 184.9884 287 185 C287.0865 185.0058 291.4927 177.5364 293 170 C296.8147 150.9264 293.7393 149.1733 298 130 C301.5698 113.9359 304.6601 113.3869 309 98 C309.8654 94.9316 309 91 309 91 "/>
<path id="2" d="M230 80 C230 80 231.2405 72.1274 234 69 C236.9829 65.6193 239.8168 64.1961 245 63 C251.2778 61.5513 254.1349 61.667 260 63 C263.1814 63.723 263.8036 66.7706 267 68 C269.1493 68.8266 270.8857 68.9514 273 68 C279.3605 65.1378 280.0197 61.4636 287 59 C295.558 55.9795 302.3255 55.5935 307 56 C307.8134 56.0707 309.8545 58.7687 310 61 C311.1483 78.6078 310 102 310 102 "/>
</g>
</g>
</svg>
