<?xml version="1.0" encoding="utf-8"?>
<!DOCTYPE svg PUBLIC "-//W3C//DTD SVG 1.1//EN" "http://www.w3.org/Graphics/SVG/1.1/DTD/svg11.dtd">
<svg viewBox="0 0 800 800" preserveAspectRatio="xMinYMin meet" xmlns="http://www.w3.org/2000/svg" version="1.1">
<g fill="none" stroke="black" stroke-linecap="round" stroke-linejoin="round" stroke-width="0.77285">
<g transform="translate(176.8,87.52) scale(3.8817) translate(-238,-132)">
<path id="0" d="M243 219 C243 219 238.4311 215.1041 238 212 C236.3751 200.3008 236.9564 196.9153 238 183 C238.404 177.6138 238.6163 176.7674 241 172 C245.2907 163.4187 246.9307 157.7519 252 155 C258.2866 151.5873 265.3997 152.6581 276 153 C279.143 153.1014 281.1421 154.1421 283 156 C284.8579 157.8579 284.3852 162.1029 286 163 C289.9067 165.1704 296.2184 167.1542 301 166 C306.4977 164.673 310.0927 160.9073 315 156 C316.6358 154.3642 315.8941 150.9677 317 150 C318.0487 149.0823 321.7434 148.2608 323 149 C327.0566 151.3862 334 160 334 160 "/>
<path id="1" d="M320 149 C320 149 326.1163 150.3362 331 153 C336.692 156.1047 338.1536 156.3843 342 161 C347.2655 167.3186 348.5954 169.1304 351 177 C353.6433 185.6507 353 187.1339 353 197 C353 212.2925 353.8908 213.5461 351 228 C348.6248 239.8761 345.0572 240.0491 342 252 C339.7321 260.8654 341.6426 266.6881 340 271 C339.6438 271.9351 334 273 334 273 "/>
<path id="2" d="M242 219 C242 219 245.5176 240.9069 253 260 C259.6143 276.878 266.0857 287.3576 271 293 C271.5895 293.6768 278.2797 292.2042 280 291 C280.7443 290.479 280.2682 287.0977 281 286 C281.3874 285.4189 283.7083 285.6199 284 285 C286.2199 280.2828 287.6519 276.8192 289 269 C290.0394 262.9717 288.0908 261.4552 289 256 C289.3847 253.692 291.4655 253.4587 292 251 C293.7433 242.9807 293.9992 233.0031 294 233 C294.0002 232.999 293.7126 236.793 295 239 C300.0029 247.5764 303.2625 248.1568 308 257 C310.101 260.9219 308.0897 262.7019 310 267 C313.7621 275.4647 314.524 276.9134 320 284 C322.3052 286.9832 323.7926 287.9309 327 289 C329.9607 289.9869 332.538 290.0551 335 289 C337.6379 287.8695 340.1742 285.6151 341 283 C342.3598 278.6938 341 270 341 270 "/>
<path id="3" d="M254 154 C254 154 257.1178 148.397 261 145 C264.4907 141.9456 265.7864 140.7803 270 140 C277.641 138.585 284.6737 139.2997 288 140 C288.3404 140.0717 288.5167 143.8141 289 144 C291.3578 144.9069 297.0649 146.4575 301 145 C307.4541 142.6096 308.6379 137.4181 316 134 C321.0999 131.6322 325.408 130.7069 329 132 C333.6684 133.6806 337.9219 138.3829 341 143 C342.134 144.701 340.014 147.3238 341 150 C343.0535 155.5738 348 162 348 162 "/>
<path id="4" d="M348 165 L350 170 "/>
</g>
</g>
</svg>
