<?xml version="1.0" encoding="utf-8"?>
<!DOCTYPE svg PUBLIC "-//W3C//DTD SVG 1.1//EN" "http://www.w3.org/Graphics/SVG/1.1/DTD/svg11.dtd">
<svg viewBox="0 0 800 800" preserveAspectRatio="xMinYMin meet" xmlns="http://www.w3.org/2000/svg" version="1.1">
<g fill="none" stroke="black" stroke-linecap="round" stroke-linejoin="round" stroke-width="1.3585">
<g transform="translate(119.5409,87.52) scale(2.2083) translate(-138,-188.1333)">
<path id="0" d="M149 216.1333 C149 216.1333 154.1024 207.736 160 202.1333 C163.3371 198.9631 164.846 197.6279 169 197.1333 C183.2864 195.4326 185.6101 196.7431 202 197.1333 C206.4818 197.24 207.6699 197.0233 211 198.1333 C212.4272 198.6091 212.7189 200.9554 214 201.1333 C226.4779 202.8664 230.941 203.4482 247 203.1333 C255.7985 202.9608 256.9178 202.9044 265 200.1333 C273.5312 197.2083 273.9872 192.2462 282 191.1333 C306.2092 187.7709 316.7015 191.2017 337 190.1333 C337.7762 190.0925 338.4812 188.0651 339 188.1333 C350.0281 189.5844 359.9542 189.8046 375 195.1333 C381.077 197.2856 383.0436 199.7805 387 205.1333 C390.5006 209.8695 391.7242 211.9974 392 218.1333 C393.5839 253.3744 397.4474 260.0908 391 294.1333 C385.8764 321.1859 376.4198 321.655 367 350.1333 C355.172 385.8923 361.1696 390.3504 348 424.1333 C339.1791 446.7608 321 468.1333 321 468.1333 "/>
<path id="1" d="M151 216.1333 C151 216.1333 141.0977 228.1607 139 239.1333 C135.2522 258.7374 135.8759 263.1953 138 284.1333 C139.1738 295.704 141.4685 297.1822 146 308.1333 C147.1043 310.802 149.3001 310.7535 150 313.1333 C151.3932 317.8703 149.0642 320.1231 151 325.1333 C156.9672 340.5777 160.036 340.8841 167 357.1333 C171.9157 368.6034 170.1253 370.084 175 381.1333 C177.3176 386.3865 180.694 386.3991 182 391.1333 C184.11 398.782 181.5871 400.9497 183 410.1333 C184.532 420.0915 185.0908 421.7695 188 430.1333 C188.5411 431.689 190.609 431.83 191 433.1333 C191.7018 435.4727 190.181 437.8812 191 440.1333 C191.6381 441.8882 194.1257 442.3848 195 444.1333 C195.5828 445.299 194.3599 447.2189 195 448.1333 C196.7443 450.6253 201.2441 452.4703 202 454.1333 C202.3368 454.8743 199.7657 458.079 200 459.1333 C200.2514 460.2648 202.0262 462.1464 204 463.1333 C206.1383 464.2025 210 464.1333 210 464.1333 "/>
<path id="2" d="M260 326.1333 C260 326.1333 253.8082 339.3241 250 352.1333 C248.5151 357.128 250.1651 359.0555 249 363.1333 C248.6018 364.527 246.2121 364.7897 246 366.1333 C242.6442 387.3866 244.4258 393.5786 240 420.1333 C236.4862 441.2162 232.4152 454.3303 230 462.1333 C229.9503 462.294 227.4532 461.6801 227 462.1333 C224.734 464.3994 223.3537 469.015 221 471.1333 C220.3323 471.7343 217.2747 471.5683 217 471.1333 C214.3846 466.9924 209 452.1333 209 452.1333 "/>
<path id="3" d="M260 329.1333 C260 329.1333 264.1736 328.3659 265 329.1333 C268.4828 332.3674 272.1582 335.687 274 342.1333 C278.4271 357.6282 274.8128 363.6391 279 378.1333 C280.2649 382.5117 285.1042 382.457 287 387.1333 C291.7751 398.912 288.9951 403.9458 294 415.1333 C296.3269 420.3346 300.2 419.8133 304 425.1333 C307.23 429.6554 307.707 430.5736 309 436.1333 C312.5254 451.2925 311.113 453.6984 314 468.1333 C314.2974 469.6206 315.3565 470.9724 316 471.1333 C317.3456 471.4697 320.6685 471.1689 322 470.1333 C323.5061 468.9619 325 464.1333 325 464.1333 "/>
<path id="4" d="M169 234.1333 C169 234.1333 176.4903 230.6795 184 229.1333 C193.0944 227.261 193.5559 227.2259 203 227.1333 C244.2083 226.7293 245.1774 229.5657 286 228.1333 C301.3398 227.5951 301.5988 224.461 317 223.1333 C330.23 221.9928 332.8909 220.4768 344 223.1333 C352.8998 225.2615 358.0524 230.4877 363 234.1333 C363.4035 234.4306 362.5318 236.4779 363 237.1333 C364.1816 238.7876 367.8569 239.7026 368 241.1333 C369.1414 252.547 369.059 259.6322 367 277.1333 C365.1288 293.0383 364.3201 293.4237 360 309.1333 C353.3622 333.2708 350.601 332.9369 345 357.1333 C338.2191 386.4267 340.1672 387.5392 335 417.1333 C334.7343 418.6549 334.4459 419.8658 334 420.1333 C333.3631 420.5155 330.32 419.8933 330 420.1333 C329.82 420.2683 330 423.1333 330 423.1333 C329.9997 423.1333 329 420.1333 329 420.1333 "/>
<path id="5" d="M167 230.1333 L164 235.1333 "/>
<path id="6" d="M163 232.1333 C163 232.1333 155.2361 244.9364 153 257.1333 C150.0681 273.1257 149.6268 276.5759 152 292.1333 C153.7383 303.529 156.2733 305.0168 162 316.1333 C164.4764 320.9405 167.4801 320.7425 169 325.1333 C171.3541 331.934 167.9212 335.5559 171 342.1333 C177.7566 356.5678 183.7368 356.6698 191 372.1333 C198.59 388.2927 199.8203 392.5641 202 408.1333 C202.7804 413.7074 198 422.1333 198 422.1333 "/>
</g>
</g>
</svg>
