<?xml version="1.0" encoding="utf-8"?>
<!DOCTYPE svg PUBLIC "-//W3C//DTD SVG 1.1//EN" "http://www.w3.org/Graphics/SVG/1.1/DTD/svg11.dtd">
<svg viewBox="0 0 800 800" preserveAspectRatio="xMinYMin meet" xmlns="http://www.w3.org/2000/svg" version="1.1">
<g fill="none" stroke="black" stroke-linecap="round" stroke-linejoin="round" stroke-width="0.67684">
<g transform="translate(278.1106,87.52) scale(4.4323) translate(-182,-233)">
<path id="0" d="M182 249 C182 249 184 294 184 294 C184 294 181.2404 278.9268 182 265 C182.6908 252.3353 184.7758 244.4595 187 239 C187.2733 238.3293 190.5021 237.6432 193 238 C196.5946 238.5135 198.0879 238.8159 201 241 C205.1906 244.1429 208.4382 250.1729 209 250 C211.495 249.2323 222.1824 235.0647 227 233 C228.497 232.3584 236.7932 236.4936 237 238 C238.4791 248.7764 236.3752 261.2663 234 284 C232.9016 294.5133 233.017 295.3455 230 305 C228.2542 310.5866 225.6873 310.5162 224 316 C221.949 322.6659 224.1592 324.1624 222 331 C218.3867 342.4421 214.5669 342.9625 212 354 C209.9729 362.7165 212 374 212 374 "/>
<path id="1" d="M183 289 C183 289 181.9342 368.1991 182 369 C182.0053 369.0644 187.47 365.0599 189 362 C190.02 359.9601 187.9599 357.658 189 355 C191.9006 347.5874 195.7895 346.8371 198 339 C200.8097 329.0383 200 316 200 316 C200 316.0001 198.3404 333.3957 200 348 C200.6518 353.7359 201.8514 354.6715 205 360 C208.1008 365.2475 213 370 213 370 "/>
</g>
</g>
</svg>
