<?xml version="1.0" encoding="utf-8"?>
<!DOCTYPE svg PUBLIC "-//W3C//DTD SVG 1.1//EN" "http://www.w3.org/Graphics/SVG/1.1/DTD/svg11.dtd">
<svg viewBox="0 0 800 800" preserveAspectRatio="xMinYMin meet" xmlns="http://www.w3.org/2000/svg" version="1.1">
<g fill="none" stroke="black" stroke-linecap="round" stroke-linejoin="round" stroke-width="1.3825">
<g transform="translate(160.215,87.52) scale(2.17) translate(-177,-115.4167)">
<path id="0" d="M185 127.4167 C185 127.4167 186.5085 123.9354 188 123.4167 C195.2654 120.8896 198.0997 120.2087 208 119.4167 C222.6166 118.2473 225.0625 118.018 238 119.4167 C241.2052 119.7632 241.8136 123.127 245 123.4167 C261.0105 124.8722 266.6098 121.985 282 123.4167 C284.6505 123.6632 285.3415 127.1508 288 127.4167 C302.1235 128.829 306.2064 129.464 322 127.4167 C331.7119 126.1577 332.0438 121.9592 342 120.4167 C366.375 116.6403 387.4574 113.5464 393 116.4167 C395.5023 117.7125 396.7379 133.0093 398 149.4167 C399.2098 165.1436 399.6193 165.831 398 181.4167 C395.6808 203.7389 392.8763 204.1256 390 226.4167 C388.9378 234.6489 390 243.4167 390 243.4167 "/>
<path id="1" d="M190 124.4167 C190 124.4167 183.2898 127.9441 182 131.4167 C178.138 141.8144 178.0028 145.6286 177 159.4167 C176.048 172.5065 176.3031 173.8594 178 186.4167 C178.6592 191.2945 181.1237 191.4507 182 196.4167 C183.9934 207.7128 182.0527 208.733 184 220.4167 C186.0006 232.4204 185.7758 233.3281 190 244.4167 C193.5049 253.617 194.4967 253.7948 200 262.4167 C209.4267 277.1852 209.6749 277.5175 220 291.4167 C222.4619 294.7307 222.7721 295.3992 226 297.4167 C230.1383 300.0031 234.924 299.444 236 301.4167 C238.1727 305.3999 236.1799 310.9228 238 319.4167 C239.0723 324.4208 241.7252 324.676 242 329.4167 C243.5847 356.7526 242 388.4167 242 388.4167 "/>
<path id="2" d="M388 224.4167 C388 224.4167 389.7425 243.9059 386 260.4167 C381.647 279.6209 377.0192 279.6738 371 299.4167 C364.6389 320.2812 363.728 321.0883 361 342.4167 C358.3429 363.1905 360 385.4167 360 385.4167 "/>
<path id="3" d="M246 383.4167 C246 383.4167 243.0285 384.8457 243 385.4167 C242.7623 390.1705 243.8316 401.7614 245 403.4167 C245.3647 403.9333 254.3652 403.2419 255 402.4167 C255.8763 401.2774 254.1143 395.4358 255 390.4167 C255.4081 388.1039 257.8354 387.6798 258 385.4167 C259.5794 363.7 256.786 356.8182 259 335.4167 C259.3764 331.7786 262.585 331.4849 264 327.4167 C266.331 320.715 264.4137 318.1065 267 312.4167 C268.6092 308.8764 270.4273 307.7134 274 305.4167 C276.5741 303.7619 277.5913 303.6009 281 303.4167 C295.3864 302.639 307.3155 302.9254 311 303.4167 C311.0655 303.4254 310.2682 306.2732 311 307.4167 C316.7154 316.3469 324.7991 318.5651 327 328.4167 C333.6379 358.1293 330.1341 394.8861 332 401.4167 C332.0322 401.5295 343.1203 400.9385 347 398.4167 C349.6323 396.7057 349.0478 392.174 352 388.4167 C353.847 386.0659 357.0763 386.1102 358 384.4167 C358.8891 382.7867 358 377.4167 358 377.4167 "/>
<path id="4" d="M191 134.4167 C191 134.4167 190.4643 137.9633 191 138.4167 C193.9953 140.9512 197.2675 142.9085 204 145.4167 C222.3199 152.2417 223.5516 156.0668 242 157.4167 C301.7895 161.7915 310.3116 160.2605 368 157.4167 C375.4835 157.0478 380.3556 154.558 384 150.4167 C388.0247 145.8431 388.2168 141.3328 390 132.4167 C391.5975 124.4293 391 115.4167 391 115.4167 "/>
<path id="5" d="M181 128.4167 C181 128.4167 181.269 132.6965 183 135.4167 C187.7366 142.8599 189.5916 146.4833 195 150.4167 C197.5325 152.2585 205 151.4167 205 151.4167 "/>
</g>
</g>
</svg>
