<?xml version="1.0" encoding="utf-8"?>
<!DOCTYPE svg PUBLIC "-//W3C//DTD SVG 1.1//EN" "http://www.w3.org/Graphics/SVG/1.1/DTD/svg11.dtd">
<svg viewBox="0 0 800 800" preserveAspectRatio="xMinYMin meet" xmlns="http://www.w3.org/2000/svg" version="1.1">
<g fill="none" stroke="black" stroke-linecap="round" stroke-linejoin="round" stroke-width="1.0897">
<g transform="translate(210.0342,87.52) scale(2.7531) translate(-146,-102)">
<path id="0" d="M159 261 C159 261 155.9276 256.5349 155 252 C151.5967 235.3616 151.6096 234.5272 150 217 C147.1235 185.678 146.981 185.3935 146 154 C145.4876 137.6039 144.4849 134.5188 147 121 C147.8566 116.3958 149.9308 114.4879 154 111 C159.4505 106.3281 161.2688 104.7309 168 103 C176.911 100.7086 179.8759 100.5204 189 102 C196.5029 103.2167 198.6008 104.2947 205 109 C214.452 115.95 223 127 223 127 "/>
<path id="1" d="M214 133 C214 133 214.0653 128.6598 215 128 C219.3213 124.9496 223.3227 122.7336 231 121 C237.5504 119.5209 239.0191 119.8741 246 121 C253.8216 122.2615 254.8042 122.6789 262 126 C267.2003 128.4001 269.1641 128.875 272 133 C278.796 142.885 280.8268 146.1005 284 158 C286.2505 166.4393 286.3406 169.3691 284 178 C278.928 196.7028 273.3412 197.2788 268 217 C260.6405 244.1735 265.1253 246.6863 258 274 C253.3797 291.7111 248.2857 292.1635 244 309 C241.7774 317.7318 244.0025 329.0031 244 329 C243.9949 328.9938 237.9342 313.0394 234 297 C231.518 286.8809 231.6145 286.4459 231 276 C230.1295 261.2016 232.072 260.2937 231 246 C230.6346 241.1282 229.1776 237.6823 228 236 C227.7275 235.6107 224.8561 235.3151 224 236 C219.591 239.5272 216.5394 241.4657 213 248 C204.3034 264.0553 206.6537 266.991 198 284 C192.4222 294.9632 186.536 303.1556 184 305 C183.622 305.2749 178.8744 302.8744 176 300 C173.5678 297.5678 173.9016 296.5496 172 293 C166.4066 282.559 165.5496 282.705 161 272 C157.1813 263.0149 155 253 155 253 "/>
<path id="2" d="M271 150 C271 150 274.9219 168.4783 274 182 C273.6402 187.2772 268 194 268 194 "/>
<path id="3" d="M248 155 C248 155 251.5762 168.4926 251 178 C250.7398 182.2928 246 188 246 188 "/>
<path id="4" d="M177 154 C177 154 171.3955 155.7569 171 157 C169.4435 161.8918 170 176 170 176 "/>
</g>
</g>
</svg>
