<?xml version="1.0" encoding="utf-8"?>
<!DOCTYPE svg PUBLIC "-//W3C//DTD SVG 1.1//EN" "http://www.w3.org/Graphics/SVG/1.1/DTD/svg11.dtd">
<svg viewBox="0 0 800 800" preserveAspectRatio="xMinYMin meet" xmlns="http://www.w3.org/2000/svg" version="1.1">
<g fill="none" stroke="black" stroke-linecap="round" stroke-linejoin="round" stroke-width="1.9633">
<g transform="translate(174.6171,87.52) scale(1.528) translate(-209,-72.1333)">
<path id="0" d="M292 161.1333 C292 161.1333 286.6466 157.5444 284 153.1333 C278.2105 143.4842 275.6241 141.2841 274 131.1333 C272.0951 119.2277 273.4862 114.1312 276 103.1333 C276.7395 99.898 282 96.1333 282 96.1333 "/>
<path id="1" d="M308 78.1333 L331 76.1333 "/>
<path id="2" d="M277 104.1333 C277 104.1333 283.1246 89.9149 291 83.1333 C298.514 76.663 302.2929 75.6937 313 73.1333 C323.6403 70.5889 325.5997 70.8897 337 72.1333 C352.1571 73.7868 356.8353 74.7915 368 79.1333 C370.5567 80.1276 370.4018 84.6899 373 86.1333 C377.2871 88.5151 381.6565 86.2377 386 89.1333 C392.9496 93.7664 394.5826 99.3532 400 104.1333 C400.5967 104.6599 402.925 103.9833 403 104.1333 C403.3 104.7333 402.1766 108.3219 403 110.1333 C403.998 112.329 407.7408 113.1117 408 115.1333 C409.5622 127.3185 410.3608 134.0832 408 149.1333 C406.7325 157.2139 404.2156 160.5125 400 166.1333 C398.4879 168.1495 395.349 167.2542 393 169.1333 C391.2508 170.5327 390.3954 171.7607 390 174.1333 C388.6219 182.4017 388.6472 184.3126 389 193.1333 C389.1131 195.9619 389.4086 197.2526 391 199.1333 C394.0237 202.7067 397.9839 203.2212 400 206.1333 C400.9143 207.454 399.3717 210.8767 400 212.1333 C400.4189 212.9711 402.9727 212.8492 404 214.1333 C406.2127 216.8992 405.4981 219.4229 408 222.1333 C410.6501 225.0042 413.515 224.027 416 227.1333 C422.4524 235.1988 421.2467 238.3247 428 247.1333 C432.2632 252.6941 434.7376 251.6869 439 257.1333 C443.2325 262.5416 441.9975 264.1296 446 270.1333 C449.8515 275.9105 450.4639 276.9213 455 281.1333 C456.6188 282.6365 458.6776 281.6907 460 283.1333 C463.1136 286.53 464.3838 287.9333 466 293.1333 C475.4378 323.4984 476.0475 325.2982 483 357.1333 C485.4064 368.1521 482.8937 369.3008 485 380.1333 C486.2583 386.6045 489.5142 386.9148 490 393.1333 C491.8503 416.8174 492.9694 420.3785 490 444.1333 C488.2388 458.2232 485.9104 460.2695 480 473.1333 C478.0267 477.4282 473 481.1333 473 481.1333 "/>
<path id="3" d="M292 159.1333 C292 159.1333 296.6194 167.029 297 174.1333 C298.0194 193.1614 298.5344 196.1018 295 215.1333 C292.348 229.4135 290.4335 231.605 284 244.1333 C281.7518 248.5114 278.5253 247.8598 276 252.1333 C272.6359 257.8264 274.2748 260.1295 271 266.1333 C268.6863 270.3752 264.9402 270.4901 264 274.1333 C261.7701 282.7741 264.8134 286.5554 263 297.1333 C261.9938 303.0027 258.7943 303.3084 258 309.1333 C255.9872 323.894 258.0496 329.2373 257 341.1333 C256.9288 341.9402 255.0296 342.3774 255 343.1333 C254.3011 360.9555 253.7947 369.2319 255 392.1333 C255.2007 395.9461 257.5781 396.2309 258 400.1333 C259.4752 413.7791 256.9935 416.4256 259 429.1333 C259.6737 433.3998 263.1925 433.8267 264 438.1333 C265.8841 448.1821 262.2908 451.4253 265 461.1333 C267.6848 470.754 276 481.1333 276 481.1333 "/>
<path id="4" d="M298 286.1333 C298 286.1333 297.4308 290.0791 296 291.1333 C290.0518 295.5162 287.3115 296.8087 279 300.1333 C275.6108 301.489 272.1596 300.6985 271 301.1333 C270.8962 301.1723 271.0743 303.1148 271 303.1333 C268.5474 303.7465 261.9245 305.666 255 305.1333 C250.4957 304.7868 249.8137 301.7973 245 301.1333 C236.3322 299.9378 233.6438 299.01 226 301.1333 C218.0432 303.3435 210.3492 307.5675 209 311.1333 C206.8763 316.746 207.5266 330.0812 212 338.1333 C216.7161 346.6224 223.8147 351.4133 234 356.1333 C240.5337 359.1611 253 357.1333 253 357.1333 "/>
<path id="5" d="M430 253.1333 C430 253.1333 432.4102 256.9703 434 257.1333 C446.617 258.4274 456.4465 258.7025 469 257.1333 C471.0175 256.8811 471.8659 252.6414 474 252.1333 C479.5157 250.8201 484.0787 250.1596 490 252.1333 C496.4148 254.2716 502.7684 258.336 504 262.1333 C506.2319 269.0151 506.704 281.3382 502 289.1333 C493.5093 303.2037 483.5307 309.8004 469 320.1333 C465.6445 322.5195 457 321.1333 457 321.1333 "/>
<path id="6" d="M317 129.1333 C317 129.1333 311.926 135.6703 307 138.1333 C302.5836 140.3415 295 140.0895 295 140.1333 C295 140.3964 301.7234 149.9499 307 152.1333 C312.2874 154.3212 324 152.1333 324 152.1333 "/>
<path id="7" d="M313 148.1333 C313 148.1333 320.6835 149.0357 327 148.1333 C330.3516 147.6545 331.1714 145.3354 334 145.1333 C336.6885 144.9413 341 147.1333 341 147.1333 "/>
<path id="8" d="M367 102.1333 C367 102.1333 371.9023 101.6629 373 102.1333 C373.4182 102.3126 373.9095 103.6853 374 105.1333 C374.3842 111.28 374.7364 116.0714 374 118.1333 C373.8422 118.5752 370.0386 119.5228 369 119.1333 C367.9895 118.7544 366.124 116.4968 366 115.1333 C365.8022 112.9575 368 108.1333 368 108.1333 "/>
<path id="9" d="M299 108.1333 C299 108.1333 297.9406 101.7917 297 101.1333 C295.9095 100.3699 290.1099 100.2084 289 101.1333 C287.2889 102.5593 284.7893 110.8436 285 111.1333 C285.2891 111.5308 295.8964 112.5012 297 112.1333 C297.1577 112.0808 297 107.1333 297 107.1333 "/>
</g>
</g>
</svg>
