<?xml version="1.0" encoding="utf-8"?>
<!DOCTYPE svg PUBLIC "-//W3C//DTD SVG 1.1//EN" "http://www.w3.org/Graphics/SVG/1.1/DTD/svg11.dtd">
<svg viewBox="0 0 800 800" preserveAspectRatio="xMinYMin meet" xmlns="http://www.w3.org/2000/svg" version="1.1">
<g fill="none" stroke="black" stroke-linecap="round" stroke-linejoin="round" stroke-width="1.3201">
<g transform="translate(229.5564,87.52) scale(2.2726) translate(-179,-106.1333)">
<path id="0" d="M266 106.1333 C266 106.1333 259.9346 105.1934 255 106.1333 C250.1722 107.0529 248.8576 107.2821 245 110.1333 C238.2686 115.1087 237.6007 116.4826 232 123.1333 C230.0059 125.5013 229.508 126.187 229 129.1333 C227.1804 139.6871 230.0456 145.172 227 152.1333 C225.1822 156.2882 219.6146 155.8401 215 161.1333 C203.3388 174.5094 200.3846 175.5436 193 191.1333 C183.3846 211.4324 184.7699 214.8779 179 237.1333 C178.0699 240.7208 178.0492 241.9005 179 245.1333 C180.2445 249.3645 183.9616 254.1813 184 254.1333 C184.2903 253.7704 188.9134 238.4477 195 225.1333 C196.482 221.8914 199.995 219.0941 200 219.1333 C200.0497 219.5223 199.2408 246.0967 201 272.1333 C201.7051 282.5692 201.6744 283.3148 205 293.1333 C211.956 313.6701 211.5579 315.6589 222 334.1333 C230.3429 348.8939 244 362.1333 244 362.1333 "/>
<path id="1" d="M269 107.1333 C269 107.1333 273.579 110.3918 276 114.1333 C278.6433 118.2184 279.0666 119.1552 280 124.1333 C281.9428 134.4948 278.3917 140.1718 282 146.1333 C286.4633 153.5076 294.4921 153.1528 303 162.1333 C311.5827 171.1929 311.4618 172.84 318 184.1333 C322.2728 191.5137 322.7189 192.0458 325 200.1333 C328.0621 210.9898 327.9381 211.7182 329 223.1333 C329.9087 232.9015 330.2789 238.2309 329 243.1333 C328.7081 244.2524 323.4581 246.4152 323 246.1333 C321.4815 245.1989 318.5865 240.8606 316 235.1333 C311.7697 225.7662 309.0008 215.1258 309 215.1333 C308.9964 215.1664 315.8908 262.7642 309 300.1333 C304.0715 326.8608 296.694 329.9536 283 356.1333 C280.4059 361.0927 275 365.1333 275 365.1333 "/>
<path id="2" d="M250 139.1333 C250 139.1333 256.9781 156.1353 257 156.1333 C257.0226 156.1313 261 138.1333 261 138.1333 "/>
<path id="3" d="M245 128.1333 C245 128.1333 243.7852 133.8111 244 134.1333 C244.1343 134.3347 248.8424 134.3304 249 134.1333 C249.1655 133.9265 248 129.1333 248 129.1333 "/>
<path id="4" d="M264 129.1333 C264 129.1333 261.2166 129.7002 261 130.1333 C260.5669 130.9996 260.6951 134.7522 261 135.1333 C261.1951 135.3772 264.6423 135.491 265 135.1333 C265.5365 134.5968 266 130.1333 266 130.1333 "/>
<path id="5" d="M247 362.1333 C247 362.1333 236.5381 364.1391 234 366.1333 C232.978 366.9363 232.9715 373.1355 233 373.1333 C233.2707 373.1125 246.2367 364.9537 247 365.1333 C247.3668 365.2196 249.9985 377.1336 250 377.1333 C250.0075 377.1321 252.9547 364.1503 253 364.1333 C253.0072 364.1306 256.2121 371.8984 258 374.1333 C258.3065 374.5165 260.969 374.2365 261 374.1333 C261.344 372.9865 261.4608 366.6676 261 364.1333 C260.9372 363.7878 259 363.1333 259 363.1333 "/>
<path id="6" d="M263 365.1333 C263 365.1333 264.4285 371.5618 267 376.1333 C268.5162 378.8288 272 381.1333 272 381.1333 C272.0536 381.0797 271.9505 371.2076 272 371.1333 C272.0066 371.1234 274.2739 374.147 276 375.1333 C276.8238 375.6041 278.957 375.2194 279 375.1333 C279.1004 374.9325 277.9426 371.162 278 371.1333 C278.5164 370.8751 285.9875 371.4708 287 371.1333 C287.1125 371.0958 287.4927 368.6753 287 368.1333 C284.1931 365.0458 277 360.1333 277 360.1333 "/>
</g>
</g>
</svg>
