<?xml version="1.0" encoding="utf-8"?>
<!DOCTYPE svg PUBLIC "-//W3C//DTD SVG 1.1//EN" "http://www.w3.org/Graphics/SVG/1.1/DTD/svg11.dtd">
<svg viewBox="0 0 800 800" preserveAspectRatio="xMinYMin meet" xmlns="http://www.w3.org/2000/svg" version="1.1">
<g fill="none" stroke="black" stroke-linecap="round" stroke-linejoin="round" stroke-width="1.4065">
<g transform="translate(184.5701,87.52) scale(2.133) translate(-180,-89.1333)">
<path id="0" d="M262 142.1333 C262 142.1333 260.5445 121.1438 262 105.1333 C262.2897 101.947 263.7256 101.2607 266 98.1333 C267.5859 95.9528 267.9204 94.9132 270 94.1333 C278.2712 91.0316 280.1494 90.5015 290 89.1333 C297.616 88.0756 299.4613 87.4987 306 89.1333 C311.6192 90.5381 314.4796 92.6129 318 96.1333 C319.6676 97.8009 319.864 99.7337 320 103.1333 C320.8259 123.781 321.1095 136.1478 320 146.1333 C319.9341 146.7268 315 148.1333 315 148.1333 "/>
<path id="1" d="M259 141.1333 L258 142.1333 "/>
<path id="2" d="M260 144.1333 C260 144.1333 251.8048 144.2505 247 147.1333 C238.5591 152.1978 236.6037 154.0058 230 162.1333 C224.4277 168.9915 224.1909 170.4722 221 179.1333 C217.4123 188.8715 217.0152 189.778 216 200.1333 C214.5828 214.5893 214.1007 215.8888 216 230.1333 C217.9668 244.8844 218.5554 245.8814 224 260.1333 C235.3536 289.8531 237.0639 293.2612 250 319.1333 C251.4373 322.008 256 324.1333 256 324.1333 "/>
<path id="3" d="M318 149.1333 C318 149.1333 321.9234 143.4794 325 142.1333 C327.7518 140.9294 333.1783 141.0377 334 142.1333 C339.2653 149.1537 342.283 158.0872 349 174.1333 C351.1506 179.2708 351.4105 179.6802 352 185.1333 C353.3591 197.7054 352.7047 198.1383 353 211.1333 C353.2043 220.122 353.889 220.5396 353 229.1333 C352.4414 234.5332 352.5749 235.6272 350 240.1333 C343.1721 252.0821 342.4091 253.2767 333 264.1333 C323.267 275.3637 320.2163 274.2713 311 285.1333 C307.0291 289.8134 308.668 291.8351 305 297.1333 C299.9347 304.4499 299.5393 307.4178 293 311.1333 C280.4651 318.2554 276.0931 318.7793 261 322.1333 C255.4009 323.3776 248 321.1333 248 321.1333 "/>
<path id="4" d="M263 141.1333 C263 141.1333 270.3729 146.9736 277 148.1333 C288.3172 150.1138 290.2356 147.263 303 148.1333 C311.9373 148.7427 313.2181 150.795 321 151.1333 C323.1088 151.225 326 149.1333 326 149.1333 "/>
<path id="5" d="M263 145.1333 C263 145.1333 265.9781 146.4986 266 147.1333 C266.8845 172.7844 270.8208 191.6923 266 232.1333 C262.1351 264.5554 254.9866 265.9174 248 298.1333 C246.3009 305.968 248 315.1333 248 315.1333 "/>
<path id="6" d="M255 323.1333 C255 323.1333 263.295 321.0829 269 317.1333 C275.3818 312.7151 278.003 310.9132 281 305.1333 C283.6376 300.0466 280.3559 295.4215 283 290.1333 C286.1399 283.8536 290.0031 284.1602 295 277.1333 C305.726 262.05 309.7922 260.2607 315 245.1333 C318.93 233.7176 313.1268 228.6707 316 216.1333 C318.0929 207.0006 321.8703 206.8502 326 197.1333 C330.2584 187.1135 331.334 186.1292 333 176.1333 C334.1148 169.4444 333.6269 167.641 332 161.1333 C330.9065 156.7593 329.672 155.3991 327 152.1333 C325.9238 150.818 323 150.1333 323 150.1333 "/>
<path id="7" d="M250 323.1333 C250 323.1333 249.8755 328.2479 248 331.1333 C244.138 337.0748 243.0991 338.559 237 343.1333 C227.8513 349.9949 226.1402 350.7392 216 355.1333 C212.349 356.7154 207.1756 355.987 207 356.1333 C206.994 356.1383 208.2679 359.1145 210 360.1333 C215.672 363.4698 217.1024 364.4089 224 366.1333 C230.3413 367.7187 233.2335 368.8247 238 367.1333 C245.4258 364.4984 252.0848 360.4778 255 355.1333 C257.9525 349.7203 254.5253 344.1615 256 334.1333 C256.9476 327.6897 260 321.1333 260 321.1333 "/>
<path id="8" d="M260 321.1333 C260 321.1333 259.2975 323.8561 260 325.1333 C263.8723 332.1739 266.3817 332.8203 271 341.1333 C276.2217 350.5325 274.7014 351.9306 280 361.1333 C283.9468 367.9883 284.7153 367.9678 290 374.1333 C293.6398 378.3798 294.7077 379.739 298 382.1333 C298.7148 382.6532 300.6971 382.5271 301 382.1333 C303.4133 378.9961 306.9591 375.2302 308 369.1333 C310.0532 357.1073 310.0638 352.3368 308 341.1333 C307.1679 336.6162 305.1935 334.9075 301 331.1333 C290.9618 322.0989 278 314.1333 278 314.1333 "/>
<path id="9" d="M352 201.1333 C352 201.1333 357.2417 200.8069 361 202.1333 C364.9238 203.5182 366.3258 204.0369 369 207.1333 C374.9506 214.0235 376.2378 215.7408 380 224.1333 C382.2124 229.0686 381.6277 230.1763 382 236.1333 C382.6141 245.9594 383.7047 252.414 382 256.1333 C381.2293 257.8148 373.893 260.7622 371 260.1333 C367.0144 259.2669 363.2832 255.952 359 251.1333 C356.2655 248.057 356.0147 246.446 355 242.1333 C354.1834 238.6628 355 234.1333 355 234.1333 "/>
<path id="10" d="M217 209.1333 C217 209.1333 206.7267 207.2888 198 208.1333 C192.2815 208.6867 189.6426 209.3002 186 212.1333 C182.6788 214.7165 180.898 217.4934 180 222.1333 C178.3103 230.8633 179.5478 242.9246 180 243.1333 C181.0193 243.6038 193.8765 239.2766 206 234.1333 C209.7085 232.56 210.1037 232.0297 213 229.1333 C217.8272 224.3061 219.9798 222.4262 222 218.1333 C222.7332 216.5753 221 212.1333 221 212.1333 "/>
<path id="11" d="M275 113.1333 C275 113.1333 271.5828 115.3848 271 117.1333 C270.1257 119.7561 270.3347 122.9158 271 125.1333 C271.2412 125.9372 273.6472 127.2656 274 127.1333 C275.0779 126.7291 278.3194 124.3112 279 122.1333 C280.1408 118.4828 279 111.1333 279 111.1333 "/>
<path id="12" d="M309 114.1333 C309 114.1333 309.7516 126.0091 310 126.1333 C310.2839 126.2753 318.3948 122.2648 321 120.1333 C321.4019 119.8045 321.4842 117.779 321 117.1333 C319.4666 115.0888 317.6796 113.3513 315 112.1333 C313.3805 111.3972 310 112.1333 310 112.1333 "/>
<path id="13" d="M288 126.1333 C288 126.1333 288.5823 138.1839 289 140.1333 C289.0126 140.1921 290.352 140.4573 291 140.1333 C292.782 139.2423 294.6988 138.338 295 137.1333 C295.9788 133.218 295 124.1333 295 124.1333 "/>
</g>
</g>
</svg>
