<?xml version="1.0" encoding="utf-8"?>
<!DOCTYPE svg PUBLIC "-//W3C//DTD SVG 1.1//EN" "http://www.w3.org/Graphics/SVG/1.1/DTD/svg11.dtd">
<svg viewBox="0 0 800 800" preserveAspectRatio="xMinYMin meet" xmlns="http://www.w3.org/2000/svg" version="1.1">
<g fill="none" stroke="black" stroke-linecap="round" stroke-linejoin="round" stroke-width="2.0161">
<g transform="translate(206.56,87.52) scale(1.488) translate(-191,-58)">
<path id="0" d="M321 58 C321 58 305.6802 56.92 292 58 C287.6427 58.344 285.8035 58.4768 283 61 C272.7923 70.1869 269.6843 72.7621 262 85 C257.2952 92.4928 257.5055 94.7158 256 104 C254.6432 112.3671 255.1591 113.3104 256 122 C256.6209 128.416 256.2841 129.5682 259 135 C264.2445 145.4889 265.5756 152.0483 273 156 C289.0379 164.5363 297.9482 164.7533 321 168 C331.5393 169.4844 335.0215 169.2231 344 166 C351.6876 163.2404 356.4434 160.0971 360 154 C364.4875 146.3072 364.1276 141.8649 365 130 C366.5753 108.5758 365.798 107.5453 365 86 C364.8173 81.0671 365.1428 78.3571 363 76 C357.8573 70.343 353.8718 68.2829 345 64 C340.5384 61.8461 338.7859 63.6891 334 62 C330.9697 60.9305 330.7641 58.691 328 58 C324.0513 57.0128 318 58 318 58 "/>
<path id="1" d="M260 138 C260 138 261.2824 150.9453 260 163 C258.8442 173.8646 258.7131 174.7344 255 185 C250.4242 197.6508 247.8617 197.3055 243 210 C239.0086 220.4221 239.0301 220.9019 237 232 C231.5816 261.6203 229.8388 262.17 228 292 C225.3885 334.3646 227.5544 335.2178 228 378 C228.0519 382.9799 227.5091 383.9533 229 388 C230.612 392.3754 232.9786 392.4518 235 397 C236.7134 400.8551 235.0053 402.7778 237 406 C240.6646 411.9198 242.6205 415.9216 248 418 C260.0179 422.6433 264.5831 422.2538 281 423 C329.9364 425.2244 337.2316 426.6494 380 424 C386.2661 423.6118 389.215 420.222 394 416 C396.0851 414.1602 396.5531 412.1286 397 409 C397.4126 406.112 396 402 396 402 "/>
<path id="2" d="M397 409 C397 409 395.7609 396.1845 397 384 C398.7154 367.1317 401.9256 366.9222 403 350 C405.879 304.6554 407.8994 298.9541 405 258 C404.3148 248.3217 398.4677 247.6342 395 237 C391.1936 225.3271 394.6801 223.0844 390 212 C376.3741 179.7282 357 147 357 147 "/>
<path id="3" d="M258 93 C258 93 260.8321 85.2163 262 85 C266.7821 84.1144 282.0025 85.602 285 88 C286.841 89.4728 284.5431 97.4404 287 105 C290.6992 116.3822 292.0293 121.0342 298 128 C300.9722 131.4676 304.7255 131.5061 311 133 C314.5373 133.8422 316.739 133.8222 319 133 C320.259 132.5422 321.7609 130.7531 322 129 C322.9759 121.8431 320.9413 116.5583 322 111 C322.2213 109.8383 325.298 109.5211 326 108 C327.5824 104.5715 326.0814 101.624 328 98 C329.8574 94.4916 331.1883 93.608 335 91 C340.207 87.4373 341.3061 86.1388 347 85 C354.7643 83.4471 365 85 365 85 "/>
<path id="4" d="M277 106 C277 106 279 113 279 113 C279 113 278.2183 110.132 277 108 C276.3767 106.9092 275.0086 105.9957 275 106 C274.9871 106.0064 275 109 275 109 "/>
<path id="5" d="M339 105 C339 105 340.98 110.98 341 111 C341.005 111.005 342 108 342 108 "/>
<path id="6" d="M307 116 C307 116 308.7711 120.9466 310 122 C310.6037 122.5174 313.9955 122.0227 314 122 C314.0249 121.8753 311 117 311 117 "/>
<path id="7" d="M259 160 C259 160 249.7279 164.1131 243 170 C234.3693 177.5519 233.5146 178.3162 227 188 C215.4204 205.213 210.8447 206.4287 206 225 C194.0346 270.8674 190.6187 324.4748 191 326 C191.048 326.1921 216.5075 311.7804 226 305 C226.5424 304.6126 226 301 226 301 "/>
<path id="8" d="M372 174 C372 174 391.6544 198.77 409 224 C413.3256 230.2918 413.3691 230.8089 416 238 C420.7542 250.9949 419.047 252.4523 424 265 C426.2604 270.7264 428.8059 270.985 431 276 C431.7801 277.7831 430.0887 279.4963 431 281 C438.3127 293.066 444.324 296.6495 451 309 C452.5481 311.864 451.394 317.8541 451 318 C447.7646 319.1983 433.3792 321.7711 424 319 C416.5764 316.8067 407 305 407 305 "/>
<path id="9" d="M261 424 C261 424 262.0618 442.9111 260 457 C259.4569 460.7114 256.9797 463.2403 255 465 C254.3462 465.5812 252.1657 464.4172 251 465 C249.2515 465.8743 246.9826 468.9942 247 469 C247.0826 469.0275 259.1134 467.3862 260 468 C260.4987 468.3453 259.9989 478.0003 260 478 C260.0029 477.9993 262.3122 468.6878 264 467 C264.7876 466.2124 269.9505 466.3004 271 467 C271.8995 467.5997 272.9994 473.0015 273 473 C273.0012 472.9969 274.2542 466.6584 273 462 C271.0749 454.8495 267.4325 454.1623 266 447 C264.2531 438.2655 266 427 266 427 "/>
<path id="10" d="M266 429 L266 424 "/>
<path id="11" d="M326 424 C326 424 327.9209 432.0778 326 437 C320.9402 449.9658 310.0073 464.9708 310 465 C309.9975 465.0098 320.6019 456.8127 321 457 C321.7444 457.3503 326.998 473.0011 327 473 C327.0079 472.9955 326.9436 454.2676 328 453 C328.4902 452.4118 341.8421 455.0632 342 455 C342.0191 454.9923 339.9671 450.53 338 449 C336.6886 447.98 333.0883 448.3707 333 448 C332.1941 444.6152 333 428 333 428 "/>
</g>
</g>
</svg>
