<?xml version="1.0" encoding="utf-8"?>
<!DOCTYPE svg PUBLIC "-//W3C//DTD SVG 1.1//EN" "http://www.w3.org/Graphics/SVG/1.1/DTD/svg11.dtd">
<svg viewBox="0 0 800 800" preserveAspectRatio="xMinYMin meet" xmlns="http://www.w3.org/2000/svg" version="1.1">
<g fill="none" stroke="black" stroke-linecap="round" stroke-linejoin="round" stroke-width="1.2961">
<g transform="translate(126.8693,87.52) scale(2.3147) translate(-167,-144.1333)">
<path id="0" d="M333 254.1333 C333 254.1333 304.7224 257.7772 278 257.1333 C264.3193 256.8037 263.3289 255.8654 250 252.1333 C238.8835 249.0207 238.1828 248.5076 228 243.1333 C220.6616 239.2603 218.1491 238.6655 214 233.1333 C209.2943 226.859 208.1661 223.6848 207 215.1333 C205.4088 203.4648 205.9849 201.2238 208 189.1333 C209.3092 181.2784 210.0319 180.1359 214 173.1333 C218.1386 165.8299 219.1013 164.4703 225 159.1333 C228.6199 155.8581 229.8634 155.6009 235 154.1333 C253.6842 148.795 254.6255 148.025 274 145.1333 C287.5184 143.1157 288.1372 143.6861 302 144.1333 C318.9008 144.6785 322.2019 144.3737 336 147.1333 C338.7915 147.6916 339.3424 150.8045 342 152.1333 C343.2506 152.7587 344.8073 151.4828 346 152.1333 C349.0629 153.804 350.4301 154.7068 353 158.1333 C358.9965 166.1286 361.8655 167.5951 364 176.1333 C367.1118 188.5806 365.3353 191.3809 365 206.1333 C364.8429 213.0454 364.8196 214.3712 363 220.1333 C362.2211 222.5998 360.0438 222.5239 359 225.1333 C356.3748 231.6964 358.2627 234.0157 355 240.1333 C350.9247 247.7744 347.8985 253.0552 343 255.1333 C337.5114 257.4618 322 254.1333 322 254.1333 "/>
<path id="1" d="M271 175.1333 C271 175.1333 263.6878 175.5862 262 177.1333 C260.2473 178.74 259.7312 181.7458 259 186.1333 C258.3072 190.2899 258.3364 194.6771 259 195.1333 C260.8633 196.4144 273.8659 198.0884 275 197.1333 C276.4385 195.9219 278.6132 182.3526 278 179.1333 C277.8475 178.3329 271 176.1333 271 176.1333 "/>
<path id="2" d="M320 180.1333 C320 180.1333 313.0821 181.5101 312 183.1333 C310.2686 185.7304 309.3795 194.6108 310 195.1333 C311.8654 196.7042 329.5952 199.6685 331 199.1333 C331.3297 199.0077 332.3808 190.684 331 187.1333 C329.9963 184.5525 327.095 182.6808 324 181.1333 C322.4525 180.3596 319 181.1333 319 181.1333 "/>
<path id="3" d="M272 215.1333 C272 215.1333 276.6223 215.9778 280 215.1333 C283.8 214.1833 284.2898 213.4166 288 211.1333 C290.6463 209.5049 291.5377 209.3267 293 207.1333 C294.994 204.1423 295.9986 199.133 296 199.1333 C296.0045 199.1344 295.6466 204.9755 297 208.1333 C298.0253 210.5256 299.3045 211.6171 302 213.1333 C306.5716 215.7048 313.0198 217.1076 313 217.1333 C312.8886 217.2782 298.3056 221.0403 292 226.1333 C288.7228 228.7803 287.0036 238.1344 287 238.1333 C286.9863 238.1294 287.4425 228.4547 285 224.1333 C282.5434 219.7871 274 215.1333 274 215.1333 "/>
<path id="4" d="M294 152.1333 C294 152.1333 268.2043 154.3453 250 161.1333 C242.3704 163.9783 241.2846 167.4996 235 174.1333 C232.9578 176.289 232.5481 177.1736 232 180.1333 C230.2133 189.7816 228.5491 191.8839 230 201.1333 C232.2141 215.2485 233.7091 217.9225 240 231.1333 C243.0334 237.5035 244.7799 239.502 250 243.1333 C254.4902 246.257 259.9408 244.6477 263 247.1333 C264.9414 248.7107 265.9982 256.131 266 256.1333 C266.0008 256.1344 266 251.1333 266 251.1333 "/>
<path id="5" d="M290 154.1333 C290 154.1333 304.0399 150.4655 315 150.1333 C318.4506 150.0288 319.4002 151.1175 323 153.1333 C331.6127 157.9564 334.6478 157.79 340 164.1333 C346.2167 171.5013 348.1941 175.3011 350 185.1333 C352.1997 197.1095 352.4645 201.8736 349 213.1333 C345.4978 224.5154 342.1481 227.4183 334 237.1333 C330.3858 241.4426 326.0452 240.6196 323 244.1333 C321.2072 246.2019 320.8734 251.6271 321 252.1333 C321.0169 252.2008 325 252.1333 325 252.1333 "/>
<path id="6" d="M238 249.1333 C238 249.1333 237.5526 253.0632 236 255.1333 C233.6711 258.2386 230.3578 257.9999 229 261.1333 C225.0017 270.3602 224.0738 273.3219 223 285.1333 C221.1627 305.344 221.1166 307.0433 223 327.1333 C224.0118 337.9257 224.7982 339.1541 229 349.1333 C232.4624 357.3565 233.2699 358.1576 239 365.1333 C244.3667 371.6667 245.4359 373.0308 252 377.1333 C256.1225 379.7099 257.7507 380.0216 263 380.1333 C280.0602 380.4963 281.7263 380.4586 299 378.1333 C306.9408 377.0644 307.9897 376.4983 315 373.1333 C319.7091 370.873 319.6223 368.4681 324 366.1333 C326.2461 364.9354 328.2947 366.4373 330 365.1333 C335.0861 361.244 337.3221 359.5696 341 353.1333 C346.6605 343.2275 346.8545 341.6667 350 330.1333 C352.6961 320.2476 352.8543 319.4796 353 309.1333 C353.3461 284.5627 353.828 279.6365 351 259.1333 C350.5034 255.5333 345 251.1333 345 251.1333 "/>
<path id="7" d="M346 250.1333 C346 250.1333 349.8507 249.3067 352 250.1333 C355.1964 251.3627 356.3385 252.4718 359 255.1333 C360.3307 256.4641 359.8056 258.1095 361 259.1333 C362.4773 260.3996 365.0728 259.9412 366 261.1333 C367.347 262.8652 366.387 265.5122 368 268.1333 C369.8994 271.2199 373.1181 271.135 374 274.1333 C379.4114 292.5321 381.743 297.1354 383 319.1333 C384.6524 348.0496 380.0004 379.1305 380 379.1333 C379.9999 379.1343 379.9057 368.0925 377 359.1333 C374.2404 350.6245 372.7343 349.4169 368 342.1333 C366.8397 340.3483 365.7913 339.4916 364 339.1333 C359.7163 338.2766 356.1555 339.8615 353 339.1333 C352.2277 338.9551 351 336.1333 351 336.1333 "/>
<path id="8" d="M234 245.1333 C234 245.1333 228.1755 243.9946 224 245.1333 C218.3061 246.6862 215.6866 247.1631 212 251.1333 C204.4732 259.2391 203.3563 261.8852 198 273.1333 C193.7292 282.102 192.8265 283.3333 192 293.1333 C189.4573 323.2821 191 356.1327 191 356.1333 C191 356.1335 191.1337 344.9928 194 336.1333 C196.2673 329.1253 197.3281 327.5839 202 322.1333 C205.4879 318.0641 207.8921 315.9891 212 315.1333 C216.8697 314.1188 226 317.1333 226 317.1333 "/>
<path id="9" d="M267 259.1333 C267 259.1333 265.5697 269.7394 262 279.1333 C256.2428 294.2838 253.4257 294.062 248 309.1333 C244.6802 318.3551 244.7718 319.3569 244 329.1333 C243.3192 337.7574 242.6199 343.6954 245 347.1333 C247.5172 350.7693 254.0555 353.8694 262 355.1333 C273.6697 356.9899 277.6202 355.8575 289 354.1333 C291.7687 353.7138 292.0722 351.0483 295 350.1333 C299.1645 348.8319 301.1079 350.8632 305 349.1333 C313.1568 345.5081 315.4508 344.0872 322 338.1333 C325.1974 335.2266 325.4056 333.7173 327 329.1333 C329.2335 322.712 329.5286 322.0467 330 315.1333 C330.9955 300.5323 329.2111 298.5451 330 285.1333 C330.1083 283.2925 332 282.8032 332 281.1333 C332 274.8715 330 266.1333 330 266.1333 "/>
<path id="10" d="M270 188.1333 C270 188.1333 268.0136 186.1243 268 186.1333 C267.9252 186.1832 266.9477 190.0941 267 190.1333 C267.1112 190.2167 272 189.1333 272 189.1333 "/>
<path id="11" d="M321 190.1333 C321 190.1333 322 193.1333 322 193.1333 C322.0322 193.1226 324 189.1333 324 189.1333 "/>
<path id="12" d="M249 380.1333 C249 380.1333 242.1554 374.0803 236 373.1333 C218.8793 370.4994 216.1756 371.7646 197 372.1333 C190.5861 372.2567 189.8275 372.1239 184 374.1333 C176.0147 376.8869 171.9907 378.6122 168 382.1333 C166.758 383.2292 166.5415 388.5439 167 389.1333 C167.6059 389.9123 171.1266 391.0453 175 391.1333 C192.3209 391.527 210.9379 390.1269 211 390.1333 C211.0114 390.1345 206.0466 391.6482 204 394.1333 C200.0671 398.909 199.7554 401.229 197 407.1333 C196.6612 407.8593 196.8456 409.0561 197 409.1333 C198.3895 409.8281 201.1416 410.9955 205 411.1333 C214.5436 411.4742 217.8075 413.0841 225 410.1333 C233.8641 406.4968 241.7192 396.0258 244 395.1333 C244.1515 395.074 245.9601 399.9676 248 401.1333 C251.0599 402.8819 253.2986 403.1333 258 403.1333 C264.1118 403.1333 265.6796 403.1601 271 401.1333 C274.9765 399.6185 277.5246 397.9202 279 395.1333 C280.662 391.9941 280 384.1333 280 384.1333 "/>
<path id="13" d="M328 372.1333 C328 372.1333 358.0461 367.766 383 369.1333 C391.3658 369.5917 395.8612 373.1582 401 376.1333 C401.7727 376.5807 402.3114 379.4067 402 380.1333 C401.5889 381.0925 399.7577 382.8822 398 383.1333 C391.2527 384.0972 381 383.1333 381 383.1333 C381 383.1334 397.8053 383.2455 401 385.1333 C402.282 385.8909 403.1329 396.0859 403 396.1333 C400.9572 396.8629 373.0723 395.1052 373 395.1333 C372.9783 395.1418 382.2701 399.9485 385 403.1333 C385.8957 404.1784 385.8234 407.3219 385 409.1333 C384.002 411.329 381.5537 414.1333 380 414.1333 C370.9885 414.1333 362.3404 414.3835 351 409.1333 C338.5933 403.3895 338.0401 396.924 326 389.1333 C322.7333 387.0196 320.6242 388.9454 317 387.1333 C312.4697 384.8682 308 380.1333 308 380.1333 "/>
<path id="14" d="M326 377.1333 L309 373.1333 "/>
<path id="15" d="M288 218.1333 L289 219.1333 "/>
</g>
</g>
</svg>
