<?xml version="1.0" encoding="utf-8"?>
<!DOCTYPE svg PUBLIC "-//W3C//DTD SVG 1.1//EN" "http://www.w3.org/Graphics/SVG/1.1/DTD/svg11.dtd">
<svg viewBox="0 0 800 800" preserveAspectRatio="xMinYMin meet" xmlns="http://www.w3.org/2000/svg" version="1.1">
<g fill="none" stroke="black" stroke-linecap="round" stroke-linejoin="round" stroke-width="1.8721">
<g transform="translate(87.52,115.5631) scale(1.6025) translate(-121,-14)">
<path id="0" d="M173 54 C173 54 171.0696 58.1025 171 62 C170.0992 112.4429 169.4308 114.6078 171 166 C171.4092 179.4026 171.1627 180.4415 175 193 C181.8664 215.4718 181.4205 218.0197 193 238 C205.9777 260.3929 208.4066 262.1034 226 281 C234.2454 289.8561 236.2754 289.8716 247 296 C253.1136 299.4935 254.1505 300.1613 261 301 C277.4638 303.016 279.0478 302.3853 296 302 C300.384 301.9004 301.0399 301.76 305 300 C313.988 296.0053 314.9334 295.9024 323 290 C334.9912 281.226 336.3734 281.1466 346 270 C364.1995 248.9269 366.6258 247.6834 380 224 C389.6216 206.9618 390.8397 204.1595 394 185 C398.4625 157.9463 396.7303 155.1172 396 127 C395.7592 117.7305 395.126 116.9315 392 108 C384.8055 87.4443 384.8574 86.0788 375 67 C369.8056 56.9464 369.1067 52.659 361 48 C331.456 31.0207 324.1217 30.646 288 17 C280.2678 14.0789 279.4311 14.5382 271 14 C256.2873 13.0609 254.3638 11.7727 241 14 C232.3878 15.4354 230.7145 16.6427 223 22 C195.7628 40.9147 169 64 169 64 "/>
<path id="1" d="M227 69 C227 69 221.7962 69.9472 220 72 C216.2353 76.3025 214.7424 78.6838 213 85 C211.1007 91.8851 210.5017 95.2209 212 101 C213.2445 105.8001 215.7235 108.7926 220 112 C223.9476 114.9607 226.1521 115.1646 232 116 C239.4428 117.0633 243.0313 117.2422 248 116 C249.6304 115.5924 251.5578 113.2109 252 111 C253.1436 105.2822 252.8987 103.1896 252 96 C250.9515 87.6121 251.257 85.7645 248 79 C245.5334 73.877 243.5573 72.9063 239 69 C237.2586 67.5074 236.1501 67 234 67 C228.8396 67 222 69 222 69 "/>
<path id="2" d="M233 96 C233 96 229.0566 98.3094 228 100 C227.4068 100.9491 227.7692 103.8462 228 104 C228.5192 104.3462 231.8992 104.7639 234 104 C236.26 103.1782 238.0506 101.7089 239 100 C239.7004 98.7393 239.6283 95.8378 239 95 C238.0575 93.7433 233.9495 91.8101 233 92 C232.1208 92.1758 229.7532 94.7403 229 97 C228.1675 99.4976 228.4351 103.3543 229 104 C229.575 104.6572 235.4 105.375 236 105 C236.4471 104.7206 237.226 100.8079 237 99 C236.9135 98.3076 235.0668 96.9618 235 97 C234.3431 97.3754 230.1795 102.9103 230 103 C229.9888 103.0056 228.8836 100.0905 229 100 C230.1446 99.1098 238.8673 95.9668 239 96 C239.0074 96.0018 237.9009 101.3243 237 102 C236.1684 102.6237 231.4169 102.5558 231 102 C229.68 100.24 228 91.7389 228 90 C228 89.8551 230.6289 88.7403 231 89 C233.0327 90.4229 236.1138 93.497 238 97 C238.8013 98.4882 238.4398 101.4723 238 102 C237.5456 102.5453 234.269 103.423 233 103 C231.5497 102.5166 229.7811 100.7575 229 99 C228.324 97.4791 228.4012 95.5968 229 94 C229.494 92.6826 230.6886 91.4371 232 91 C233.9671 90.3443 237.9661 90.8646 238 91 C238.3498 92.3992 236.2192 106.8027 236 107 C235.9773 107.0204 229.6085 103.0159 228 100 C226.8579 97.8585 227.0629 94.2492 228 92 C228.7126 90.2897 230.7444 88.9022 233 88 C234.7088 87.3165 236.72 87.36 238 88 C239.28 88.64 240.6285 90.5142 241 92 C241.2933 93.173 240 96 240 96 "/>
<path id="3" d="M296 105 C296 105 286.9888 96.0467 284 88 C281.441 81.1105 282.109 77.128 283 70 C283.324 67.408 284.6852 65.5914 287 64 C291.3981 60.9763 293.2295 60.3739 299 59 C302.9373 58.0625 305.0051 58.0785 308 59 C309.7407 59.5356 310.5899 60.7673 312 63 C316.3327 69.8602 318.0463 70.9179 320 78 C321.5896 83.7622 321.1418 85.6058 320 92 C318.7854 98.802 318.5633 100.3407 315 106 C310.7287 112.7839 307.8745 115.2724 303 119 C301.8892 119.8494 298.3649 119.5595 298 119 C294.6966 113.9347 288 96 288 96 "/>
<path id="4" d="M300 75 C300 75 299.7236 86.2399 300 87 C300.0105 87.0288 303.7684 86.4632 304 86 C304.5404 84.9193 304.0802 79.2406 304 79 C303.9962 78.9885 302.1175 79.5594 302 80 C300.8863 84.1764 300 92.71 300 94 C300 94 301.9 94.175 302 94 C302.7125 92.7532 303.4718 90.4334 304 87 C304.4337 84.181 304.6557 82.9671 304 81 C303.5629 79.6886 301.0057 77.9773 301 78 C300.9622 78.1514 300.4116 89.862 301 93 C301.0613 93.3269 303.75 94.125 304 94 C304.25 93.875 304.8964 92.4505 305 91 C305.3711 85.8051 306.146 82.8651 305 80 C304.3332 78.333 299.0271 75.9675 299 76 C298.4765 76.6282 295.6282 85.7181 295 92 C294.8544 93.4556 296.1542 95.5167 297 96 C297.9868 96.5639 300.5429 96.7286 302 96 C304.1857 94.9072 305.9747 93.3923 307 91 C308.3534 87.8422 308.1995 83.9947 308 82 C307.9731 81.7311 306.9457 81.1576 306 81 C304.2541 80.709 303.1657 80.4172 302 81 C300.2515 81.8743 298.8052 83.0676 298 85 C296.8041 87.8702 296.907 92.2563 297 93 C297.003 93.0236 298.975 93.075 299 93 C299.225 92.325 299.4705 88.0977 299 87 C298.8208 86.5818 296 86 296 86 "/>
<path id="5" d="M223 136 C223 136 287.8395 120.4516 290 122 C291.2838 122.9201 287.1463 150.7296 283 179 C281.6719 188.0554 281.4643 189.607 279 197 C278.4901 198.5296 276.0106 200.0113 276 200 C270.2635 193.8463 224 138 224 138 "/>
<path id="6" d="M265 253 C265 253 258.327 245.9468 256 240 C254.5916 236.4006 255.05 234.275 256 230 C256.8444 226.2 257.701 223.2261 260 222 C268.4174 217.5107 273.2858 216.1641 286 214 C295.7581 212.339 300.1586 211.6483 307 214 C311.8155 215.6553 314.126 219.189 318 225 C321.4514 230.177 321.9156 231.7102 323 238 C324.2517 245.2598 324.7822 247.985 323 254 C321.5107 259.0264 319.536 260.9176 315 265 C310.3627 269.1736 308.7232 270.7625 303 272 C292.3205 274.3091 289.6769 273.3767 278 273 C275.1637 272.9085 273.6358 272.6358 272 271 C267.0927 266.0927 265.4015 264.0646 262 257 C259.3886 251.5764 259 244 259 244 "/>
<path id="7" d="M166 123 C166 123 147.5154 159.6118 137 197 C125.4166 238.1853 127.5357 240.5178 121 283 C119.6701 291.6442 120.4174 300.2055 121 301 C121.164 301.2236 127.6989 300.7007 132 298 C147.7137 288.1333 148.9291 286.5591 164 274 C169.555 269.3709 170.2089 268.8973 174 263 C178.8166 255.5075 180.099 254.3645 182 246 C184.7735 233.7968 184 219 184 219 "/>
<path id="8" d="M397 153 C397 153 427.0179 184.5269 448 216 C455.1382 226.7073 453.9291 237.8178 457 243 C457.394 243.6648 461.0483 243.9082 464 243 C473.0496 240.2155 475.1904 240.3434 483 235 C492.9929 228.1627 495.9312 226.5367 502 217 C508.3988 206.9447 508.5383 203.3083 511 191 C512.222 184.8901 511.6751 183.2816 510 177 C507.9022 169.1333 507.7363 167.6605 503 161 C492.4386 146.148 491.368 143.9149 478 132 C469.6672 124.5729 467.9364 124.5099 457 120 C420.1021 104.7844 381 92 381 92 "/>
<path id="9" d="M388 253 C388 253 372.0025 255.1212 360 261 C349.1563 266.3112 348.3072 268.1959 339 277 C330.2497 285.2773 329.7163 286.4558 323 296 C320.7558 299.1892 320.4831 300.1353 320 304 C319.0771 311.3834 318.3485 313.63 320 320 C321.3227 325.1019 322.9155 327.499 327 331 C331.9725 335.2621 334.349 336.3946 341 338 C347.3586 339.5348 349.1619 339.2821 356 338 C364.2627 336.4507 365.2246 335.9781 373 332 C386.2443 325.2238 386.9683 324.893 399 316 C409.5934 308.1701 410.8836 307.5657 419 298 C424.0569 292.0401 425.2284 290.0865 427 283 C428.7716 275.9135 429.2112 272.0809 427 266 C424.3512 258.7159 421.0425 255.467 415 250 C412.3265 247.5811 410.3762 247.4862 406 247 C397.5601 246.0622 395.3369 244.962 388 247 C379.5308 249.3525 370 257 370 257 "/>
<path id="10" d="M191 291 C191 291 197.1571 285.2634 202 284 C206.4325 282.8437 208.6434 283.2819 214 285 C234.0564 291.4332 236.5568 291.9592 255 301 C260.4419 303.6676 261.4148 304.9808 265 310 C270.8061 318.1285 272.5723 320.0176 275 329 C277.0135 336.4499 276.3749 339.0257 275 347 C274.0939 352.2551 273.3929 354.6071 270 358 C264.0625 363.9375 260.8768 366.7783 253 369 C244.3797 371.4314 240.6111 371.0595 231 369 C221.4201 366.9472 219.7317 365.6756 211 360 C200.5119 353.1827 200.0467 352.0467 191 343 C185.3763 337.3763 185.1692 336.775 181 330 C177.3666 324.0957 176.1642 323.2091 175 317 C173.434 308.6479 172.7966 303.8091 175 298 C176.6436 293.6669 180.6599 289.9835 186 288 C195.1144 284.6146 210 285 210 285 "/>
</g>
</g>
</svg>
