<?xml version="1.0" encoding="utf-8"?>
<!DOCTYPE svg PUBLIC "-//W3C//DTD SVG 1.1//EN" "http://www.w3.org/Graphics/SVG/1.1/DTD/svg11.dtd">
<svg viewBox="0 0 800 800" preserveAspectRatio="xMinYMin meet" xmlns="http://www.w3.org/2000/svg" version="1.1">
<g fill="none" stroke="black" stroke-linecap="round" stroke-linejoin="round" stroke-width="1.5745">
<g transform="translate(200.8893,87.52) scale(1.9054) translate(-118,-120.4167)">
<path id="0" d="M197 187.4167 C197 187.4167 188.9276 180.814 187 175.4167 C185.0193 169.8708 185.2036 166.2429 187 159.4167 C189.7655 148.9078 190.8862 146.986 197 137.4167 C201.8037 129.8979 203.4766 128.0374 210 123.4167 C213.7361 120.7702 215.6025 120.939 221 120.4167 C230.5612 119.4914 232.2155 118.4884 241 120.4167 C251.0915 122.6319 256.4426 124.0578 262 129.4167 C266.5609 133.8147 267.4377 138.7124 269 147.4167 C270.7038 156.9091 270.5831 158.9181 269 168.4167 C267.7938 175.6537 266.7907 176.9184 263 183.4167 C260.1997 188.2172 255 192.4167 255 192.4167 "/>
<path id="1" d="M193 184.4167 C193 184.4167 197.7574 191.2036 199 197.4167 C200.4876 204.8548 200.787 206.673 199 214.4167 C192.1512 244.0948 181 275.4167 181 275.4167 "/>
<path id="2" d="M215 233.4167 C215 233.4167 211.5747 248.4767 205 255.4167 C196.5122 264.376 190.741 262.7836 179 271.4167 C174.4554 274.7583 175.5157 277.1467 171 280.4167 C161.7648 287.1042 158.591 285.3417 150 292.4167 C142.7181 298.4136 144.084 301.6051 137 308.4167 C131.5958 313.613 128.7775 312.3877 124 317.4167 C120.2631 321.3503 119.1513 323.2358 118 328.4167 C116.5064 335.1378 116.6486 338.4706 118 344.4167 C118.6027 347.0688 120.9873 350.0003 123 350.4167 C130.7393 352.0179 137.1067 351.7358 147 350.4167 C149.6932 350.0576 149.9077 347.4923 153 346.4167 C160.6944 343.7404 164.6631 344.6638 170 342.4167 C171.0523 341.9736 170.9882 338.8021 172 338.4167 C177.8932 336.1716 183.4219 338.2938 191 334.4167 C202.9575 328.2989 202.9154 324.8759 215 316.4167 C217.6745 314.5446 218.1593 313.918 221 313.4167 C225.7856 312.5721 230.669 313.6587 232 313.4167 C232.044 313.4087 232 311.4167 232 311.4167 "/>
<path id="3" d="M195 333.4167 C195 333.4167 195.8237 337.3279 195 340.4167 C192.0426 351.5069 188.4901 352.2406 187 363.4167 C184.7091 380.5987 184.1635 383.6556 187 400.4167 C189.2892 413.944 198 428.4167 198 428.4167 "/>
<path id="4" d="M260 187.4167 C260 187.4167 276.3983 223.4352 287 259.4167 C292.5382 278.213 291.5446 279.5267 293 299.4167 C294.5115 320.0744 294.4355 321.3194 293 341.4167 C292.5117 348.2525 291.4498 348.6116 289 355.4167 C282.4883 373.5047 283.4733 375.0753 275 391.4167 C270.0524 400.9585 261 409.4167 261 409.4167 "/>
<path id="5" d="M261 409.4167 C261 409.4167 262.5674 405.2411 265 403.4167 C271.5108 398.5336 273.8387 395.5064 281 394.4167 C293.2432 392.5536 297.3993 394.0365 311 396.4167 C315.8734 397.2695 318.1133 398.7705 321 401.4167 C322.4846 402.7776 323.1562 407.2605 323 407.4167 C322.6095 407.8072 314.1178 408.3381 314 408.4167 C313.9878 408.4248 316.506 410.0993 317 411.4167 C317.5988 413.0135 317.4454 415.7486 317 416.4167 C316.6734 416.9066 313.1646 417.0875 313 417.4167 C312.7531 417.9105 314.3493 422.0673 314 422.4167 C312.7773 423.6393 308.8137 425.7527 304 426.4167 C295.3322 427.6122 293.8451 427.9549 285 426.4167 C271.783 424.1181 258 418.4167 258 418.4167 "/>
<path id="6" d="M219 422.4167 C219 422.4167 222.7627 418.8791 226 418.4167 C234.9789 417.134 236.9891 417.0819 247 418.4167 C258.8224 419.993 260.1017 420.4537 271 424.4167 C275.6545 426.1092 278.0643 427.4251 280 430.4167 C282.0128 433.5273 282.5278 440.8449 282 441.4167 C281.1395 442.3489 268.5107 443.2039 268 443.4167 C267.9742 443.4274 270.0336 446.4055 270 446.4167 C269.4068 446.6144 254.6574 448.4167 253 448.4167 C253 448.4167 253.0184 446.418 253 446.4167 C249.6434 446.168 229.3566 446.6653 226 446.4167 C225.9816 446.4153 226.1364 444.4712 226 444.4167 C223.1706 443.2849 217.1644 443.0122 211 440.4167 C208.8998 439.5324 208.7586 437.1201 207 436.4167 C205.1158 435.663 202.7919 437.4122 201 436.4167 C195.757 433.5039 190.6522 430.4721 189 426.4167 C187.1587 421.8972 190 409.4167 190 409.4167 "/>
<path id="7" d="M257 188.4167 C257 188.4167 250.2967 200.7467 249 212.4167 C246.4993 234.923 247.0357 236.8452 249 260.4167 C251.4861 290.2494 250.4137 291.9682 258 320.4167 C266.0401 350.5672 281 380.4167 281 380.4167 "/>
<path id="8" d="M226 153.4167 C226 153.4167 230.638 144.5776 231 144.4167 C231.0715 144.3849 234.3057 147.1602 235 149.4167 C235.8914 152.3139 235.4 156.6167 235 157.4167 C234.9 157.6167 231.6538 157.9979 231 157.4167 C229.0203 155.657 226 149.4167 226 149.4167 "/>
<path id="9" d="M269 137.4167 C269 137.4167 290.8951 141.4541 308 149.4167 C317.9679 154.0569 327.0176 164.3764 327 164.4167 C326.9674 164.4912 312.5597 167.0297 301 165.4167 C292.9643 164.2954 292.4927 160.7328 284 158.4167 C276.5689 156.39 268 156.4167 268 156.4167 "/>
<path id="10" d="M268 156.4167 L269 156.4167 "/>
<path id="11" d="M272 163.4167 C272 163.4167 282.5932 166.5494 293 167.4167 C306.1712 168.5143 320 167.4167 320 167.4167 "/>
</g>
</g>
</svg>
