<?xml version="1.0" encoding="utf-8"?>
<!DOCTYPE svg PUBLIC "-//W3C//DTD SVG 1.1//EN" "http://www.w3.org/Graphics/SVG/1.1/DTD/svg11.dtd">
<svg viewBox="0 0 800 800" preserveAspectRatio="xMinYMin meet" xmlns="http://www.w3.org/2000/svg" version="1.1">
<g fill="none" stroke="black" stroke-linecap="round" stroke-linejoin="round" stroke-width="1.9489">
<g transform="translate(179.109,87.52) scale(1.5393) translate(-170,-38.4167)">
<path id="0" d="M340 57.4167 C340 57.4167 334.9395 50.757 329 46.4167 C322.4966 41.6642 321.0546 39.6993 314 38.4167 C301.5667 36.1561 294.3539 36.9994 285 38.4167 C283.4654 38.6492 283.0529 42.3113 281 43.4167 C277.9088 45.0812 274.5302 43.3265 272 45.4167 C265.3388 50.9194 263.3749 53.8801 258 62.4167 C255.5246 66.3482 255.3749 67.5436 255 72.4167 C253.9374 86.2299 252.4082 89.2354 255 101.4167 C256.7988 109.8712 259.249 111.6528 265 119.4167 C268.7139 124.4304 269.7361 125.9396 275 128.4167 C285.0927 133.1662 287.2397 133.5022 299 135.4167 C307.8883 136.8636 310.7691 137.9391 318 135.4167 C329.1252 131.5358 332.5536 128.6823 342 120.4167 C346.93 116.103 348.8308 113.5225 350 107.4167 C352.7509 93.0507 354.3768 86.2486 351 73.4167 C348.2764 63.067 335 50.4167 335 50.4167 "/>
<path id="1" d="M286 131.4167 C286 131.4167 277.9342 132.7558 273 136.4167 C263.7413 143.286 260.8051 144.5802 255 154.4167 C244.1245 172.8446 241.9608 176.7467 237 197.4167 C233.6453 211.3947 235.5128 213.718 237 229.4167 C239.9676 260.7418 239.2313 263.5604 246 292.4167 C248.1151 301.4336 250.0189 302.6634 256 310.4167 C263.0045 319.4966 263.811 321.2194 273 327.4167 C284.0058 334.8392 285.8888 334.5381 299 339.4167 C306.9568 342.3773 307.6223 342.7465 316 343.4167 C331.9621 344.6936 333.4552 345.6027 349 343.4167 C364.1989 341.2793 367.5468 341.4735 380 334.4167 C394.891 325.9785 397.007 322.6397 409 309.4167 C415.3281 302.4395 415.2788 300.5956 419 291.4167 C422.5479 282.6652 423.1358 281.7504 424 272.4167 C425.5541 255.632 426.3802 254.078 424 237.4167 C420.5512 213.2748 419.8603 211.7066 412 188.4167 C406.6567 172.5846 406.7068 170.2435 397 157.4167 C380.0333 134.9964 376.5018 133.3712 356 114.4167 C351.5452 110.298 344 108.4167 344 108.4167 "/>
<path id="2" d="M297 90.4167 C297 90.4167 293.3981 88.5449 290 88.4167 C267.9079 87.583 265.5301 86.6225 244 88.4167 C237.2524 88.979 235.0018 89.7116 230 93.4167 C223.1879 98.4627 218.9928 101.94 217 108.4167 C214.515 116.4928 215.8286 126.1197 218 132.4167 C218.7228 134.5127 223.0361 137.1923 227 137.4167 C245.7397 138.4774 252.5095 139.5257 271 135.4167 C280.0141 133.4135 281.2656 130.0959 290 123.4167 C297.9686 117.3231 300.6168 116.1204 305 109.4167 C307.45 105.6695 308.0002 100.9173 307 97.4167 C306.0123 93.9598 302.9321 89.9657 299 88.4167 C289.9489 84.8511 274 84.4167 274 84.4167 "/>
<path id="3" d="M226 116.4167 C226 116.4167 221.4039 119.0099 220 121.4167 C218.7475 123.5638 218.9971 128.4184 219 128.4167 C219.0068 128.4126 221.7388 121.4449 225 118.4167 C227.3011 116.2799 229.7502 117.6266 233 115.4167 C241.5842 109.5794 241.4414 105.8182 250 101.4167 C257.0934 97.7686 259.19 97.9154 268 97.4167 C284.8904 96.4606 294.1736 98.6618 303 98.4167 C303.2664 98.4093 304 96.4167 304 96.4167 "/>
<path id="4" d="M308 43.4167 C308 43.4167 300.5028 43.6346 300 44.4167 C298.8834 46.1536 298.2524 53.1804 299 57.4167 C299.2743 58.9713 301.2414 60.7132 303 61.4167 C304.8842 62.1703 306.9429 61.9309 309 61.4167 C309.8571 61.2024 310.9402 60.1341 311 59.4167 C311.2736 56.1329 311.5077 52.8628 310 49.4167 C308.7541 46.569 305.3717 43.7908 304 43.4167 C303.2488 43.2118 299.4346 45.1998 299 46.4167 C298.001 49.2137 298.9932 57.4054 299 57.4167 C299.0026 57.421 300.7711 52.47 302 51.4167 C302.6037 50.8992 305.0972 51.0556 306 51.4167 C306.4062 51.5792 307.0229 53.3708 307 53.4167 C306.9847 53.4472 305 53.4167 305 53.4167 "/>
<path id="5" d="M297 130.4167 C297 130.4167 295.9307 125.1989 297 123.4167 C299.047 120.005 303.2617 119.7197 306 115.4167 C309.4274 110.0307 307.7978 107.8211 311 101.4167 C314.1052 95.2063 314.7973 93.3567 319 89.4167 C321.3606 87.2036 323.8418 88.5222 327 86.4167 C330.6846 83.9603 333.1673 82.5392 334 79.4167 C336.185 71.2229 333.3624 65.5875 335 56.4167 C335.4037 54.1558 339 51.4167 339 51.4167 "/>
<path id="6" d="M261 142.4167 C261 142.4167 250.034 141.5474 242 144.4167 C230.735 148.4399 228.5626 149.3482 219 157.4167 C197.7194 175.3722 197.3282 177.8279 178 198.4167 C174.9134 201.7045 174.4838 202.3362 173 206.4167 C170.7193 212.6885 169.7656 213.7755 170 220.4167 C171.2013 254.4546 170.8015 257.9981 176 291.4167 C177.463 300.8218 179.3646 301.8081 184 310.4167 C186.0347 314.1954 186.6817 315.0743 190 317.4167 C194.4066 320.5272 195.7456 321.0339 201 322.4167 C204.4131 323.3149 206.8336 323.8403 209 322.4167 C220.4047 314.9221 226.0106 310.9669 236 299.4167 C239.9492 294.8504 239.6793 292.3977 241 285.4167 C243.0659 274.497 243 262.4167 243 262.4167 "/>
<path id="7" d="M354 89.4167 C354 89.4167 355.2711 87.4458 356 87.4167 C364.0462 87.0948 372.7035 85.7762 379 88.4167 C382.5038 89.886 385.1891 94.4901 387 100.4167 C390.1238 110.64 387.0092 121.5223 390 124.4167 C393.8553 128.1476 408.9508 124.1518 418 130.4167 C436.0118 142.8864 440.7878 151.5604 455 169.4167 C457.4068 172.4406 456.8356 174.4861 457 179.4167 C457.8163 203.9063 457.7905 208.4689 457 229.4167 C456.9514 230.7052 455.6511 232.3401 455 232.4167 C450.8818 232.9012 445.8379 233.4375 440 231.4167 C434.762 229.6035 434.2795 227.6403 429 223.4167 C424.3273 219.6785 421.8579 219.1325 420 215.4167 C418.1421 211.7009 419 203.4167 419 203.4167 "/>
<path id="8" d="M329 349.4167 C329 349.4167 322.303 355.0962 321 360.4167 C317.0808 376.4201 320.1939 382.8021 317 398.4167 C316.4222 401.2416 314.8727 402.2621 312 404.4167 C305.4229 409.3495 303.5719 412.1388 297 413.4167 C288.9132 414.9891 282.9354 410.8618 276 411.4167 C274.5623 411.5317 272.1356 413.993 272 415.4167 C271.4798 420.8791 271.4498 426.3888 274 432.4167 C275.8302 436.7427 278.3601 438.4862 283 441.4167 C286.7585 443.7905 288.3835 444.4167 293 444.4167 C305.9261 444.4167 311.7452 445.35 321 441.4167 C326.6746 439.005 330.913 433.9759 333 427.4167 C336.5884 416.1388 333.1599 412.1375 335 397.4167 C336.1254 388.4138 338.3295 388.3004 339 379.4167 C340.2822 362.4277 339 344.4167 339 344.4167 "/>
<path id="9" d="M371 339.4167 C371 339.4167 368.5933 343.0549 368 346.4167 C367.2121 350.8815 367.2641 351.6331 368 356.4167 C370.2022 370.7307 370.19 371.2651 374 385.4167 C377.1304 397.0437 377.8031 400.6224 382 408.4167 C382.9576 410.1951 384.9938 410.8441 388 411.4167 C404.9046 414.6366 414.7719 416.6474 424 416.4167 C425.0675 416.39 427.3222 413.382 428 410.4167 C430.9324 397.5875 432.6281 384.5574 432 381.4167 C431.9332 381.0826 424.9834 379.3175 422 380.4167 C418.2993 381.7801 415.7489 387.2386 413 388.4167 C412.0837 388.8094 408.6792 387.6516 408 386.4167 C404.9542 380.8788 403.2839 377.1897 402 368.4167 C400.4358 357.7281 404.3821 354.2305 402 345.4167 C400.2701 339.016 392 331.4167 392 331.4167 "/>
</g>
</g>
</svg>
