<?xml version="1.0" encoding="utf-8"?>
<!DOCTYPE svg PUBLIC "-//W3C//DTD SVG 1.1//EN" "http://www.w3.org/Graphics/SVG/1.1/DTD/svg11.dtd">
<svg viewBox="0 0 800 800" preserveAspectRatio="xMinYMin meet" xmlns="http://www.w3.org/2000/svg" version="1.1">
<g fill="none" stroke="black" stroke-linecap="round" stroke-linejoin="round" stroke-width="1.7713">
<g transform="translate(184.0585,87.52) scale(1.6937) translate(-83,-45.4167)">
<path id="0" d="M187 51.4167 C187 51.4167 177.668 64.5111 173 77.4167 C169.6813 86.592 170.9403 95.1258 170 98.4167 C169.9631 98.5457 167.1638 98.1189 167 98.4167 C164.5778 102.8206 164.0581 111.3353 159 118.4167 C155.7403 122.9802 147.4237 124.2275 147 126.4167 C146.1036 131.0481 154.5933 140.494 153 149.4167 C148.2952 175.7633 137.6135 180.5633 132 210.4167 C127.1437 236.2432 129.958 238.9767 131 266.4167 C131.4311 277.7688 131.4093 279.1234 135 289.4167 C138.5085 299.4745 138.8063 302.595 146 309.4167 C165.2509 327.6719 169.6405 328.4338 193 344.4167 C197.1936 347.286 198.1913 347.7962 203 348.4167 C212.6026 349.6557 213.7739 347.5645 224 348.4167 C231.4261 349.0355 231.647 351.0899 239 351.4167 C253.5548 352.0636 258.7604 354.4322 269 350.4167 C278.5856 346.6576 281.0723 341.754 290 331.4167 C299.5397 320.3707 304.7214 317.8096 307 306.4167 C311.8139 282.347 308.7905 275.9603 307 246.4167 C305.8253 227.0342 305.4939 225.3921 301 207.4167 C299.3633 200.8701 296.1491 201.1168 294 194.4167 C287.9091 175.4275 290.3148 173.812 284 154.4167 C276.4291 131.1631 277.108 129.6453 266 108.4167 C255.1507 87.6825 250.6736 88.6737 239 68.4167 C234.1604 60.0185 236.0285 55.5937 232 49.4167 C230.4243 47.0006 227.7612 45.9182 224 45.4167 C214.303 44.1237 212.7455 44.7451 202 45.4167 C197.0547 45.7258 195.8483 45.7674 192 47.4167 C189.9746 48.2847 188 51.4167 188 51.4167 "/>
<path id="1" d="M199 74.4167 C199 74.4167 194.1198 73.6163 194 73.4167 C193.9162 73.2769 195.9986 69.4153 196 69.4167 C196.0042 69.4209 196 75.4167 196 75.4167 "/>
<path id="2" d="M216 70.4167 C216 70.4167 219.5175 70.9342 220 71.4167 C220.2895 71.7062 220.0223 74.4092 220 74.4167 C219.9479 74.434 217 72.4167 217 72.4167 "/>
<path id="3" d="M202 88.4167 C202 88.4167 212.0891 89.0404 221 91.4167 C226.5505 92.8968 232.0101 96.4088 232 96.4167 C231.9693 96.4406 221.335 96.3746 212 98.4167 C206.0193 99.725 200 103.4167 200 103.4167 "/>
<path id="4" d="M172 332.4167 C172 332.4167 166.2808 378.8752 164 381.4167 C163.4222 382.0605 148.8583 373.4413 137 371.4167 C131.4285 370.4654 124.3701 373.1519 123 374.4167 C122.4029 374.9678 122.4942 381.158 124 383.4167 C125.8693 386.2206 128.2487 387.5161 133 389.4167 C152.4221 397.1855 154.4545 397.1976 174 403.4167 C175.29 403.8271 177.0061 403.424 177 403.4167 C176.9689 403.3793 170.3763 400.3069 169 397.4167 C166.7618 392.7165 168.8931 387.5551 167 382.4167 C166.2972 380.5091 162.6189 379.3451 162 378.4167 C161.8875 378.2479 163 376.4167 163 376.4167 "/>
<path id="5" d="M257 351.4167 C257 351.4167 261.8483 383.7449 262 384.4167 C262.0069 384.4471 263.2277 382.4665 264 382.4167 C274.5202 381.7379 292.2814 382.1042 293 382.4167 C293.0409 382.4345 289.1839 391.9127 287 392.4167 C278.3858 394.4046 254 391.4167 254 391.4167 C254 391.4167 264.673 389.7545 267 391.4167 C270.3499 393.8094 270.2517 400.3493 275 406.4167 C278.5346 410.9331 285 414.4167 285 414.4167 C285 414.4167 262.4587 396.4765 262 396.4167 C261.9646 396.4121 262.3606 409.6138 262 411.4167 C261.9856 411.4888 259.5397 411.9024 259 411.4167 C256.2837 408.972 253.2038 406.6299 252 402.4167 C249.8895 395.0298 251 383.4167 251 383.4167 C251 383.4167 252.4936 392.6956 251 399.4167 C249.8487 404.5975 245.5957 410.0917 245 410.4167 C244.8872 410.4782 240.4603 407.5339 240 405.4167 C238.6389 399.1556 238.272 392.6007 240 387.4167 C240.832 384.9207 243.975 382.8657 248 381.4167 C255.1626 378.8381 265 378.4167 265 378.4167 "/>
<path id="6" d="M147 379.4167 C147 379.4167 119.018 376.4023 119 376.4167 C118.9935 376.4218 136.9661 387.3752 137 387.4167 C137.0097 387.4285 130.0811 386.6599 128 387.4167 C127.2012 387.7071 125.9657 391.4059 126 391.4167 C127.0058 391.7343 144.3189 392.14 147 393.4167 C147.4653 393.6382 147.7523 399.9121 147 401.4167 C146.5768 402.263 142.1738 403.127 142 403.4167 C141.9374 403.521 143.1558 405.9101 144 406.4167 C144.6665 406.8166 146.4534 406.9291 147 406.4167 C151.931 401.7939 160 391.4167 160 391.4167 "/>
<path id="7" d="M203 149.4167 C203 149.4167 192.9738 157.9581 187 167.4167 C181.675 175.8479 181.4492 177.2934 179 187.4167 C174.1214 207.5814 174.1463 208.567 172 229.4167 C170.6938 242.1059 169.4604 244.3349 172 255.4167 C174.3951 265.868 176.1367 268.3394 183 277.4167 C190.7247 287.6332 192.26 288.5261 203 296.4167 C216.1216 306.057 218.6018 308.1197 232 313.4167 C237.2511 315.4927 243.7696 315.3039 246 313.4167 C250.8774 309.2896 253.4116 302.6327 258 291.4167 C262.1699 281.2237 262.8297 280.2835 264 269.4167 C266.2277 248.7313 266.0768 246.8757 265 226.4167 C264.6437 219.6472 264.1271 218.522 261 212.4167 C254.0424 198.8328 253.5667 197.2343 244 185.4167 C237.2497 177.0781 233.4941 178.5945 227 170.4167 C220.8611 162.6862 222.1669 158.9948 217 151.4167 C215.7174 149.5355 212 148.4167 212 148.4167 "/>
<path id="8" d="M276 131.4167 C276 131.4167 283.8104 132.3154 291 131.4167 C299.3879 130.3682 299.6961 129.9078 308 127.4167 C319.5889 123.94 321.7288 124.3613 331 119.4167 C334.8309 117.3735 338.0005 111.4041 338 111.4167 C337.998 111.4657 331.7761 127.6536 330 143.4167 C327.8947 162.1016 332.1788 164.3634 330 182.4167 C328.8913 191.6029 327.6532 192.8547 323 201.4167 C315.4945 215.2268 305 228.4167 305 228.4167 "/>
<path id="9" d="M145 129.4167 C145 129.4167 138.1591 130.9071 133 129.4167 C117.1977 124.8516 116.1547 120.94 100 116.4167 C92.3812 114.2834 83.2831 114.992 83 115.4167 C82.5707 116.0606 86.8922 125.0005 88 134.4167 C89.8164 149.8557 85.895 152.4443 89 166.4167 C91.3555 177.0164 95.9814 178.1874 100 188.4167 C100.9161 190.7484 99.1759 191.9444 100 194.4167 C102.8386 202.9324 102.522 205.7404 108 212.4167 C117.0747 223.4765 132 233.4167 132 233.4167 "/>
</g>
</g>
</svg>
