<?xml version="1.0" encoding="utf-8"?>
<!DOCTYPE svg PUBLIC "-//W3C//DTD SVG 1.1//EN" "http://www.w3.org/Graphics/SVG/1.1/DTD/svg11.dtd">
<svg viewBox="0 0 800 800" preserveAspectRatio="xMinYMin meet" xmlns="http://www.w3.org/2000/svg" version="1.1">
<g fill="none" stroke="black" stroke-linecap="round" stroke-linejoin="round" stroke-width="1.7809">
<g transform="translate(221.44,87.52) scale(1.6845) translate(-176,-27.1333)">
<path id="0" d="M237 391.1333 C237 391.1333 236.9252 360.3499 239 332.1333 C239.3234 327.7346 241.7395 327.4752 242 323.1333 C243.1635 303.7416 246.3943 297.6288 242 282.1333 C238.6359 270.2705 233.5433 267.7982 223 256.1333 C210.4702 242.2706 207.0475 243.9439 195 230.1333 C187.2733 221.2759 184.6792 219.0846 182 209.1333 C178.5806 196.4326 180.2855 192.7808 181 178.1333 C181.2342 173.3316 181.5189 171.6069 184 168.1333 C187.999 162.5348 190.4415 159.3567 196 157.1333 C202.2364 154.6388 205.6556 155.7856 214 156.1333 C216.8266 156.2511 218.1286 156.4589 220 158.1333 C226.3477 163.8128 230.0075 165.8391 233 173.1333 C236.7133 182.1844 233.6056 185.8455 236 197.1333 C236.9572 201.6457 237.4238 202.6203 240 206.1333 C242.4035 209.4109 244.1672 211.1891 247 212.1333 C249.4131 212.9377 251.8674 212.3382 255 211.1333 C257.4429 210.1938 259.0386 209.2965 260 207.1333 C264.0345 198.0558 266.413 195.2859 267 184.1333 C269.763 131.6359 265.3717 128.274 267 74.1333 C267.3422 62.7538 267.5562 61.4648 271 51.1333 C273.689 43.0663 275.8585 37.3259 280 35.1333 C286.1775 31.8629 294.7587 32.792 305 33.1333 C307.0948 33.2032 308.7805 34.3718 310 36.1333 C312.41 39.6144 313.6887 41.33 314 46.1333 C316.9798 92.1075 315.3313 133.3421 317 144.1333 C317.0145 144.2271 324.8991 144.86 329 143.1333 C332.2842 141.7505 335.261 139.4059 336 136.1333 C340.8727 114.554 339.0527 107.0099 343 81.1333 C343.3031 79.1464 343.7909 77.9797 345 77.1333 C347.5441 75.3524 349.2503 74.4333 353 74.1333 C360.6996 73.5174 363.5734 73.2589 370 75.1333 C373.252 76.0818 376.1037 78.2816 377 81.1333 C380.3071 91.656 380.0536 95.7011 381 110.1333 C382.0349 125.9158 383.9541 128.0447 381 142.1333 C377.9789 156.5416 375.6396 157.9776 368 172.1333 C358.8502 189.0874 358.8134 190.5727 347 205.1333 C338.0643 216.1472 336.574 216.5906 325 225.1333 C316.1471 231.6676 311.6858 230.6103 305 236.1333 C302.7914 237.9578 302.0936 240.3427 302 244.1333 C300.2145 316.4448 301 398.1333 301 398.1333 "/>
<path id="1" d="M180 206.1333 L181 195.1333 "/>
<path id="2" d="M183 174.1333 L180 173.1333 "/>
<path id="3" d="M183 166.1333 L183 159.1333 "/>
<path id="4" d="M190 159.1333 L192 150.1333 "/>
<path id="5" d="M205 155.1333 L205 149.1333 "/>
<path id="6" d="M210 154.1333 L211 149.1333 "/>
<path id="7" d="M218 158.1333 L222 151.1333 "/>
<path id="8" d="M228 165.1333 L231 160.1333 "/>
<path id="9" d="M235 173.1333 L236 173.1333 "/>
<path id="10" d="M239 188.1333 L243 183.1333 "/>
<path id="11" d="M236 199.1333 L241 197.1333 "/>
<path id="12" d="M246 210.1333 C246 210.1333 248.7337 210.4528 249 210.1333 C249.8165 209.1535 251 204.1333 251 204.1333 "/>
<path id="13" d="M178 186.1333 L180 186.1333 "/>
<path id="14" d="M181 200.1333 L176 200.1333 "/>
<path id="15" d="M185 218.1333 L179 220.1333 "/>
<path id="16" d="M192 227.1333 L193 228.1333 "/>
<path id="17" d="M191 226.1333 L182 234.1333 "/>
<path id="18" d="M201 238.1333 L202 238.1333 "/>
<path id="19" d="M200 237.1333 L199 237.1333 "/>
<path id="20" d="M200 237.1333 L198 241.1333 "/>
<path id="21" d="M213 245.1333 L210 246.1333 "/>
<path id="22" d="M218 254.1333 L217 258.1333 "/>
<path id="23" d="M228 265.1333 L229 265.1333 "/>
<path id="24" d="M240 281.1333 L241 281.1333 "/>
<path id="25" d="M242 299.1333 C242 299.1333 243.0468 301.9931 243 302.1333 C242.9883 302.1684 241 302.1333 241 302.1333 "/>
<path id="26" d="M242 322.1333 L242 323.1333 "/>
<path id="27" d="M242 322.1333 L238 324.1333 "/>
<path id="28" d="M241 342.1333 C241 342.1333 241.423 344.6257 241 345.1333 C239.9895 346.346 236 348.1333 236 348.1333 "/>
<path id="29" d="M239 362.1333 L233 365.1333 "/>
<path id="30" d="M237 385.1333 L234 387.1333 "/>
<path id="31" d="M265 181.1333 L265 182.1333 "/>
<path id="32" d="M267 149.1333 L268 151.1333 "/>
<path id="33" d="M262 160.1333 L266 161.1333 "/>
<path id="34" d="M266 136.1333 L268 137.1333 "/>
<path id="35" d="M265 101.1333 L267 104.1333 "/>
<path id="36" d="M263 68.1333 L266 69.1333 "/>
<path id="37" d="M271 45.1333 L273 47.1333 "/>
<path id="38" d="M284 30.1333 L285 31.1333 "/>
<path id="39" d="M299 27.1333 L299 32.1333 "/>
<path id="40" d="M315 32.1333 L312 36.1333 "/>
<path id="41" d="M318 55.1333 L316 63.1333 "/>
<path id="42" d="M322 86.1333 C322 86.1333 321.3707 89.8997 320 91.1333 C317.5539 93.3348 312 95.1333 312 95.1333 "/>
<path id="43" d="M321 114.1333 L319 118.1333 "/>
<path id="44" d="M322 141.1333 L322 147.1333 "/>
<path id="45" d="M333 134.1333 L335 136.1333 "/>
<path id="46" d="M335 123.1333 L337 125.1333 "/>
<path id="47" d="M337 104.1333 L338 106.1333 "/>
<path id="48" d="M341 78.1333 L342 80.1333 "/>
<path id="49" d="M347 70.1333 L348 76.1333 "/>
<path id="50" d="M363 71.1333 L363 75.1333 "/>
<path id="51" d="M373 77.1333 C373 77.1333 375 77.1333 375 77.1333 C375 77.2861 373 81.1333 373 81.1333 "/>
<path id="52" d="M388 92.1333 L385 96.1333 "/>
<path id="53" d="M384 121.1333 L385 124.1333 "/>
<path id="54" d="M379 152.1333 L381 156.1333 "/>
<path id="55" d="M373 165.1333 L374 170.1333 "/>
<path id="56" d="M363 185.1333 L363 186.1333 "/>
<path id="57" d="M346 208.1333 L347 208.1333 "/>
<path id="58" d="M338 217.1333 L339 220.1333 "/>
<path id="59" d="M328 226.1333 L329 228.1333 "/>
<path id="60" d="M317 230.1333 L317 232.1333 "/>
<path id="61" d="M305 243.1333 L305 244.1333 "/>
<path id="62" d="M300 265.1333 L301 266.1333 "/>
<path id="63" d="M304 287.1333 L308 287.1333 "/>
<path id="64" d="M304 307.1333 L307 309.1333 "/>
<path id="65" d="M302 336.1333 L306 338.1333 "/>
<path id="66" d="M300 351.1333 L304 356.1333 "/>
<path id="67" d="M301 372.1333 L309 377.1333 "/>
<path id="68" d="M208 189.1333 C208 189.1333 209.8958 206.4134 216 218.1333 C221.1264 227.976 223.9698 228.3472 233 237.1333 C242.2984 246.1804 253 254.1333 253 254.1333 "/>
<path id="69" d="M298 66.1333 C298 66.1333 303.2291 92.0136 300 112.1333 C297.3556 128.6098 288.1532 130.3161 285 147.1333 C281.2474 167.1473 286.1116 173.9764 285 192.1333 C284.8966 193.8214 282 196.1333 282 196.1333 "/>
<path id="70" d="M355 131.1333 C355 131.1333 357.5529 141.8126 356 149.1333 C354.5423 156.0051 353.1691 158.169 348 164.1333 C334.5982 179.597 329.9514 178.1508 317 194.1333 C307.3746 206.0115 309.6114 209.2162 301 222.1333 C298.0305 226.5875 297.4267 227.3297 293 230.1333 C283.1866 236.3485 280.0505 234.9919 271 241.1333 C267.4895 243.5155 265 249.1333 265 249.1333 "/>
<path id="71" d="M268 282.1333 L271 380.1333 "/>
</g>
</g>
</svg>
