<?xml version="1.0" encoding="utf-8"?>
<!DOCTYPE svg PUBLIC "-//W3C//DTD SVG 1.1//EN" "http://www.w3.org/Graphics/SVG/1.1/DTD/svg11.dtd">
<svg viewBox="0 0 800 800" preserveAspectRatio="xMinYMin meet" xmlns="http://www.w3.org/2000/svg" version="1.1">
<g fill="none" stroke="black" stroke-linecap="round" stroke-linejoin="round" stroke-width="1.3777">
<g transform="translate(194.2205,87.52) scale(2.1776) translate(-173,-136)">
<path id="0" d="M238 338 C238 338 234.9389 376.2674 237 401 C237.3139 404.7672 240.0129 406.611 244 410 C249.3887 414.5804 250.4619 415.6027 257 418 C264.4271 420.7233 267.2892 421.6942 274 421 C279.0747 420.475 282.9853 418.3915 286 415 C288.8137 411.8346 288.6331 409.0749 290 403 C293.086 389.2844 293.9315 388.89 295 375 C296.3928 356.8941 293.8885 355.7844 295 338 C295.3361 332.6226 298 327 298 327 "/>
<path id="1" d="M239 341 C239 341 217.5825 336.1195 198 330 C194.3644 328.8639 193.6704 328.4924 191 326 C186.6876 321.9751 185.4127 321.1966 183 316 C179.4249 308.2999 179.2626 306.8385 178 298 C176.853 289.9711 176.7977 288.9353 178 281 C179.1852 273.1778 181.498 272.8103 183 265 C183.8855 260.3953 181.813 258.9567 183 255 C184.4007 250.331 185.3758 248.6242 189 245 C193.5303 240.4697 195.9132 238.7804 201 237 C203.6293 236.0797 205.7735 236.6714 209 238 C213.3998 239.8117 215.7361 240.5375 218 244 C222.8062 251.3507 224.0633 254.123 226 264 C228.8187 278.3755 224.7432 287.7201 228 295 C229.4 298.1294 242.5809 302.3027 243 302 C243.7351 301.4691 245.6992 291.9255 246 282 C247.1827 242.9716 244.8173 242.0284 246 203 C246.3008 193.0745 246.6323 192.6683 249 183 C252.5633 168.45 252.5653 167.7467 258 154 C260.8649 146.7535 261.5973 145.2832 266 140 C268.0948 137.4862 269.715 136.8213 273 136 C276.6956 135.0761 278.6016 134.8672 282 136 C286.1536 137.3845 288.6828 138.6015 291 142 C294.8359 147.626 296.7979 150.5208 297 158 C298.1872 201.9246 290.641 237.732 294 253 C294.3739 254.6993 316.027 259.7343 319 258 C322.5227 255.9451 329.2799 232.4801 330 232 C330.0508 231.9661 336.5533 237.9019 340 244 C342.4789 248.3858 342.295 249.5952 343 255 C343.7426 260.6936 344.292 262.0473 343 267 C341.6471 272.186 340.7335 273.5198 337 278 C331.2442 284.907 330.2143 287.3928 323 291 C313.4982 295.7509 300.0618 294.2472 299 297 C294.4655 308.7561 296 361 296 361 "/>
<path id="2" d="M239 167 L256 183 "/>
<path id="3" d="M235 203 L248 220 "/>
<path id="4" d="M281 225 L326 225 "/>
<path id="5" d="M290 189 L311 183 "/>
<path id="6" d="M275 166 L277 177 "/>
<path id="7" d="M267 256 L264 271 "/>
<path id="8" d="M222 285 L238 275 "/>
<path id="9" d="M203 268 L197 254 "/>
<path id="10" d="M189 287 C189 287 182.1422 280.0711 178 278 C176.7974 277.3987 173 279 173 279 "/>
<path id="11" d="M218 326 L194 328 "/>
<path id="12" d="M312 293 L326 304 "/>
<path id="13" d="M335 277 L362 287 "/>
<path id="14" d="M327 259 L327 255 "/>
<path id="15" d="M255 373 C255 373 258.1621 381.8959 258 390 C257.6835 405.8255 254 423 254 423 "/>
</g>
</g>
</svg>
