<?xml version="1.0" encoding="utf-8"?>
<!DOCTYPE svg PUBLIC "-//W3C//DTD SVG 1.1//EN" "http://www.w3.org/Graphics/SVG/1.1/DTD/svg11.dtd">
<svg viewBox="0 0 800 800" preserveAspectRatio="xMinYMin meet" xmlns="http://www.w3.org/2000/svg" version="1.1">
<g fill="none" stroke="black" stroke-linecap="round" stroke-linejoin="round" stroke-width="1.6465">
<g transform="translate(258.7918,87.52) scale(1.822) translate(-233,-65.1333)">
<path id="0" d="M381 133.1333 C381 133.1333 385.7074 161.6327 386 189.1333 C386.1981 207.7559 385.7325 210.5066 382 227.1333 C380.7937 232.5069 379.3353 234.4549 375 238.1333 C364.2704 247.2372 349 255.1333 349 255.1333 "/>
<path id="1" d="M382 132.1333 C382 132.1333 374.512 124.9285 374 125.1333 C372.2276 125.8423 363.2612 133.3769 362 140.1333 C357.5833 163.794 365.7695 180.5672 360 200.1333 C357.6963 207.9457 339 218.1333 339 218.1333 "/>
<path id="2" d="M338 216.1333 C338 216.1333 341 196.3073 341 177.1333 C341 163.3674 340.2707 162.3791 338 149.1333 C337.4016 145.6427 335.1764 145.4399 335 142.1333 C333.3238 110.7055 336.3325 104.0669 334 74.1333 C333.6783 70.0048 331.0968 66.1817 329 65.1333 C326.1307 63.6987 320.9112 64.042 316 65.1333 C313.7753 65.6277 312.1626 66.9138 311 69.1333 C307.4619 75.8878 306.6645 77.5547 305 86.1333 C300.2937 110.389 297.861 111.6618 298 136.1333 C298.3508 197.8729 306 262.1333 306 262.1333 "/>
<path id="3" d="M306 263.1333 C306 263.1333 295.0309 264.8137 289 262.1333 C280.1265 258.1896 277.2639 255.3991 270 247.1333 C263.8611 240.1477 263.5459 238.2514 260 229.1333 C256.8321 220.9873 257.0185 220.096 256 211.1333 C254.5588 198.4509 256.7088 189.483 255 185.1333 C254.6162 184.1563 247.7015 182.458 245 183.1333 C242.8673 183.6665 241.1125 185.8686 239 189.1333 C235.9571 193.836 235.5557 194.6884 234 200.1333 C232.7125 204.6395 232.5418 205.3682 233 210.1333 C234.9698 230.6188 234.6357 231.9904 239 252.1333 C240.9671 261.2124 241.2382 263.3307 246 270.1333 C250.5331 276.6092 252.5423 278.6155 260 282.1333 C277.1199 290.2088 284.2072 287.7369 299 295.1333 C302.9014 297.084 304.202 300.0662 306 305.1333 C309.229 314.2332 309.1839 315.7279 310 326.1333 C311.1487 340.7795 311.5014 341.6198 310 356.1333 C308.5676 369.9796 304 384.1333 304 384.1333 "/>
<path id="4" d="M346 256.1333 C346 256.1333 347.4559 259.1578 347 261.1333 C344.8382 270.5013 341.6224 271.7905 340 282.1333 C337.7859 296.248 337.4658 297.6278 339 312.1333 C342.863 348.6561 344.1481 351.0173 351 386.1333 C351.7881 390.1722 352.4921 392.6422 355 394.1333 C366.835 401.1704 388 408.1333 388 408.1333 "/>
<path id="5" d="M306 382.1333 C306 382.1333 302.6693 388.8099 298 393.1333 C289.793 400.7324 279 407.1333 279 407.1333 "/>
</g>
</g>
</svg>
