<?xml version="1.0" encoding="utf-8"?>
<!DOCTYPE svg PUBLIC "-//W3C//DTD SVG 1.1//EN" "http://www.w3.org/Graphics/SVG/1.1/DTD/svg11.dtd">
<svg viewBox="0 0 800 800" preserveAspectRatio="xMinYMin meet" xmlns="http://www.w3.org/2000/svg" version="1.1">
<g fill="none" stroke="black" stroke-linecap="round" stroke-linejoin="round" stroke-width="1.7473">
<g transform="translate(203.4123,87.52) scale(1.7169) translate(-138,-91)">
<path id="0" d="M259 91 C259 91 248.3825 94.0229 240 99 C233.1065 103.093 231.9603 103.9123 227 110 C221.6398 116.5784 220.9241 117.8543 218 126 C214.2299 136.5025 213.5503 137.8112 213 149 C212.1028 167.2429 211.2367 170.0653 215 187 C217.7082 199.1871 220.1175 200.1706 227 212 C235.9602 227.4004 242.2753 227.4323 247 242 C252.8656 260.0856 251 286 251 286 "/>
<path id="1" d="M251 96 C251 96 253.7546 92.5988 256 92 C259.7012 91.013 262.0078 90.6693 266 92 C273.9845 94.6615 275.3349 95.7987 283 101 C288.8999 105.0035 290.3685 105.4014 294 111 C301.5094 122.5769 304.8983 125.0894 307 138 C311.2706 164.2336 310.3594 168.6872 308 197 C306.4883 215.141 301.0004 215.6324 299 234 C295.6176 265.0563 297 298 297 298 "/>
<path id="2" d="M284 296 C284 296 298.6826 282.7931 310 269 C313.9626 264.1706 314.6844 262.7008 316 257 C317.3761 251.0371 313.9905 247.7918 316 243 C319.2226 235.3154 322.366 231.1598 329 226 C333.329 222.633 336.1325 223.0174 343 222 C349.118 221.0936 353.2392 220.1595 356 222 C360.6013 225.0675 365.1652 230.6607 367 238 C369.74 248.96 368.6111 253.4333 367 266 C366.3302 271.2246 365.4973 273.5027 362 277 C353.6939 285.3061 351.5201 286.6966 340 293 C325.7236 300.8116 321.7352 297.7752 309 306 C299.7466 311.9761 292 324 292 324 "/>
<path id="3" d="M264 244 C264 244 257.7125 245.3923 253 244 C237.2169 239.3368 234.6502 239.0432 220 231 C210.4241 225.7426 209.6922 223.9999 202 216 C197.7784 211.6096 199.1543 209.1543 195 205 C189.9226 199.9226 188.0734 197.446 182 196 C170.2734 193.208 164.3997 193.2462 153 195 C148.6225 195.6735 146.6836 198.0708 143 202 C139.9209 205.2843 138.5418 206.9364 138 211 C136.8304 219.7717 136.3062 224.3676 139 232 C141.1298 238.0344 144.1521 240.614 150 245 C154.7206 248.5405 156.7102 248.9156 163 250 C170.2598 251.2517 171.2503 249.1389 179 250 C188.9024 251.1003 189.4627 251.1949 199 254 C206.1 256.0882 207.3381 256.3198 213 260 C216.3371 262.1691 216.8739 263.1593 219 267 C231.9442 290.3831 244 316 244 316 "/>
<path id="4" d="M239 242 C239 242 247.6481 251.2359 251 261 C258.5065 282.8668 262 309 262 309 "/>
<path id="5" d="M186 223 C186 223 176.0003 217.9983 176 218 C175.9991 218.0047 185 228 185 228 "/>
<path id="6" d="M175 211 C175 211 151.0769 201.9904 151 202 C150.9777 202.0028 159 213 159 213 "/>
<path id="7" d="M153 223 C153 223 147.9948 227.9935 148 228 C148.0377 228.0471 157 228 157 228 "/>
<path id="8" d="M178 239 C178 239 168.9994 240.9999 169 241 C169.0012 241.0003 187 241 187 241 "/>
<path id="9" d="M202 241 C202 241 201.7845 236.5388 202 236 C202.0345 235.9138 203.4682 235.6318 204 236 C208.5819 239.1721 215 245 215 245 "/>
<path id="10" d="M234 173 C234 173 234 158 234 158 C234 158 235 179 235 179 "/>
<path id="11" d="M250 158 C250 158 257.9817 142 258 142 C258.0023 142 259 158 259 158 "/>
<path id="12" d="M245 142 L246 131 "/>
<path id="13" d="M271 118 C271 118 266.0037 106 266 106 C266 106 266 118 266 118 "/>
<path id="14" d="M246 129 L250 136 "/>
<path id="15" d="M219 129 C219 129 222.9797 117.0102 223 117 C223.0051 116.9975 225 126 225 126 "/>
<path id="16" d="M285 143 C285 143 286.9993 137.9974 287 138 C287.002 138.0071 287 150 287 150 "/>
<path id="17" d="M267 182 L271 175 "/>
<path id="18" d="M271 175 L271 186 "/>
<path id="19" d="M281 200 C281 200 289.977 186.9949 290 187 C290.0126 187.0028 290 202 290 202 "/>
<path id="20" d="M271 221 L271 216 "/>
<path id="21" d="M271 216 L273 226 "/>
<path id="22" d="M246 214 C246 214 247.9772 204.0137 248 204 C248.0034 203.998 251 211 251 211 "/>
<path id="23" d="M332 267 C332 267 336.9993 255.9996 337 256 C337.0118 256.0059 338 270 338 270 "/>
<path id="24" d="M344 248 C344 248 348.9982 232.9975 349 233 C349.0034 233.0048 349 255 349 255 "/>
<path id="25" d="M349 267 C349 267 355.9913 261.985 356 262 C356.1622 262.278 356.2466 276.904 356 279 C355.9966 279.029 354 279 354 279 "/>
<path id="26" d="M241 317 C241 317 246.8337 317.8337 249 320 C252.7417 323.7417 253.9312 325.7937 256 332 C262.1101 350.3304 266 371 266 371 "/>
<path id="27" d="M288 322 L289 364 "/>
<path id="28" d="M239 375 C239 375 267.9236 376.3696 296 375 C308.4103 374.3946 309.1283 374.1658 321 371 C331.0803 368.3119 341 363 341 363 "/>
<path id="29" d="M239 365 C239 365 254.4119 414.5534 266 447 C266.3884 448.0875 268.6896 448.1722 269 449 C269.596 450.5893 268.9314 454.9937 269 455 C277.0564 455.7437 325.7018 461.1468 334 455 C341.7166 449.284 343.747 424.3111 350 395 C351.4791 388.0666 350.382 387.2576 350 380 C349.8968 378.0392 349.2776 376.0416 349 376 C345.7301 375.5095 330 377 330 377 "/>
</g>
</g>
</svg>
