<?xml version="1.0" encoding="utf-8"?>
<!DOCTYPE svg PUBLIC "-//W3C//DTD SVG 1.1//EN" "http://www.w3.org/Graphics/SVG/1.1/DTD/svg11.dtd">
<svg viewBox="0 0 800 800" preserveAspectRatio="xMinYMin meet" xmlns="http://www.w3.org/2000/svg" version="1.1">
<g fill="none" stroke="black" stroke-linecap="round" stroke-linejoin="round" stroke-width="2.2081">
<g transform="translate(99.0682,87.52) scale(1.3586) translate(-76,-20)">
<path id="0" d="M167 205 C167 205 161.8803 189.0726 155 176 C152.4263 171.1099 151.2833 169.6072 147 167 C141.266 163.5097 139.3026 162.9128 132 162 C120.3158 160.5395 116.801 160.218 107 162 C103.436 162.648 101.7811 164.5237 99 168 C94.4247 173.7191 92.3957 175.3316 91 182 C88.3991 194.4266 87.5941 198.3144 90 211 C92.6118 224.7712 95.1508 226.057 102 240 C109.0386 254.3286 109.0636 254.7268 118 268 C142.8946 304.9758 145.6329 304.2497 170 341 C175.6605 349.5372 175.5231 350.2647 179 360 C185.406 377.9368 187.5979 378.784 190 397 C193.3818 422.645 189.4266 424.6451 191 451 C191.3836 457.425 194 464 194 464 "/>
<path id="1" d="M167 207 C167 207 168.9559 205.9485 169 206 C169.7059 206.8235 171.6891 209.9035 173 214 C175.5822 222.0693 174.496 224.74 177 231 C177.6193 232.5482 179.3716 233.7495 181 234 C184.2286 234.4967 189.9446 233.3229 190 233 C190.729 228.7475 189.6585 215.5417 187 199 C185.2295 187.9836 182.3235 187.8083 181 177 C179.4282 164.164 177.7388 161.6651 181 150 C189.8498 118.3448 193.103 116.3011 207 84 C211.453 73.6498 211.7189 73.1599 218 64 C223.4536 56.0468 223.8945 54.8804 231 49 C237.5559 43.5744 238.8914 43.8921 247 40 C251.166 38.0003 251.6328 37.4094 256 37 C266.8223 35.9854 268.8964 35.1388 279 37 C286.1557 38.3182 287.4346 39.5639 294 44 C305.368 51.6811 308.1238 51.9024 316 62 C326.1387 74.9983 325.8934 77.8487 333 94 C336.6361 102.2638 337.04 103.1678 338 112 C339.4496 125.3363 339.5724 126.6347 338 140 C336.6688 151.3156 336.0347 152.1567 332 163 C328.207 173.1937 325.4172 172.7485 322 183 C315.6539 202.0384 313.5148 203.4975 312 223 C309.6655 253.057 310.1708 257.4547 314 286 C315.223 295.1171 317.4851 297.981 323 305 C327.0644 310.1729 330.0214 312.0783 336 314 C341.6427 315.8137 345.8345 316.3479 351 314 C364.1171 308.0377 367.7063 305.2474 380 294 C390.148 284.7157 388.1415 280.5846 398 271 C405.2463 263.955 407.8252 262.6332 416 259 C419.1531 257.5986 421.3875 257.8506 425 259 C431.112 260.9447 432.3495 261.7193 438 266 C448.3843 273.8669 449.3912 274.3151 458 284 C464.8977 291.76 465.5271 292.7912 470 302 C473.6469 309.5084 473.5648 310.6756 475 319 C475.9642 324.5924 475.8951 325.4056 475 331 C473.9826 337.359 473.4052 337.6863 471 344 C465.4404 358.594 465.9413 359.433 459 373 C455.2239 380.3806 454.9216 382.6934 449 387 C435.1829 397.0488 432.0527 397.4968 415 405 C407.7754 408.1788 406.9859 408.0221 399 409 C382.8997 410.9715 381.2637 408.4019 366 411 C359.1231 412.1705 358.0591 413.0909 352 417 C343.1739 422.6943 341.5945 423.7774 335 431 C332.1738 434.0954 331.6367 435.7025 331 440 C329.8053 448.064 331.3409 457.9487 331 458 C314.2122 460.5245 198 460 198 460 "/>
<path id="2" d="M190 427 L182 427 "/>
<path id="3" d="M191 394 L165 389 "/>
<path id="4" d="M179 358 C179 358 168.8777 357.5791 162 355 C158.49 353.6837 155 349 155 349 "/>
<path id="5" d="M149 307 L120 307 "/>
<path id="6" d="M110 260 L94 254 "/>
<path id="7" d="M117 212 L119 189 "/>
<path id="8" d="M128 163 L128 124 "/>
<path id="9" d="M99 165 L76 154 "/>
<path id="10" d="M162 196 C162 196 169.9542 194.0344 174 191 C176.3761 189.2179 178 184 178 184 "/>
<path id="11" d="M93 204 L76 206 "/>
<path id="12" d="M110 261 L77 250 "/>
<path id="13" d="M145 306 L113 308 "/>
<path id="14" d="M184 176 C184 176 169.2552 166.3983 157 156 C153.4358 152.9758 151 148 151 148 "/>
<path id="15" d="M184 131 L157 71 "/>
<path id="16" d="M216 63 C216 63 217.9247 61.7908 218 61 C218.6532 54.141 218.9553 50.9164 218 42 C217.5313 37.6256 215 33 215 33 "/>
<path id="17" d="M255 34 L275 20 "/>
<path id="18" d="M307 53 L336 43 "/>
<path id="19" d="M335 92 L371 92 "/>
<path id="20" d="M337 152 C337 152 341.4992 155.934 346 157 C359.2349 160.1346 375 161 375 161 "/>
<path id="21" d="M318 199 L344 200 "/>
<path id="22" d="M312 250 C312 250 321.3862 252.5664 328 251 C338.2243 248.5785 350 241 350 241 "/>
<path id="23" d="M321 304 L348 286 "/>
<path id="24" d="M360 307 C360 307 365.7218 296.0955 369 285 C372.0818 274.5692 373 263 373 263 "/>
<path id="25" d="M390 286 L404 248 "/>
<path id="26" d="M426 263 L450 250 "/>
<path id="27" d="M463 289 L519 289 "/>
<path id="28" d="M470 348 L493 359 "/>
<path id="29" d="M452 388 L466 413 "/>
<path id="30" d="M427 408 L454 424 "/>
<path id="31" d="M376 409 L394 431 "/>
<path id="32" d="M195 464 C195 464 184.0009 462.7499 174 464 C164.654 465.1683 155 469 155 469 "/>
<path id="33" d="M204 464 C204 464 223.1232 460.6475 238 464 C255.7671 468.0038 275 480 275 480 "/>
<path id="34" d="M284 462 C284 462 317.1834 463.8487 350 463 C374.9223 462.3555 376.5947 457.6068 400 459 C416.2438 459.9669 417.2935 465.315 434 468 C444.369 469.6664 456 468 456 468 "/>
<path id="35" d="M197 459 C197 459 186.1162 460.4601 176 459 C138.4154 453.5754 137.5101 452.8969 100 445 C90.3724 442.9731 81 439 81 439 "/>
<path id="36" d="M197 280 C197 280 179.395 265.7909 161 256 C149.3875 249.8192 135 247 135 247 "/>
<path id="37" d="M247 236 L235 165 "/>
<path id="38" d="M274 136 L286 100 "/>
<path id="39" d="M244 123 L225 102 "/>
<path id="40" d="M252 291 L283 274 "/>
<path id="41" d="M246 339 C246 339 236.0532 337.3458 227 334 C213.3494 328.9552 200 322 200 322 "/>
<path id="42" d="M226 374 L211 372 "/>
<path id="43" d="M289 402 C289 402 290.9087 393.406 295 389 C302.3958 381.0353 315 374 315 374 "/>
<path id="44" d="M386 383 C386 383 395.2836 377.2921 402 370 C412.2913 358.8266 421 345 421 345 "/>
<path id="45" d="M454 339 L454 300 "/>
<path id="46" d="M333 342 L325 316 "/>
<path id="47" d="M293 258 L296 238 "/>
<path id="48" d="M295 181 L314 161 "/>
<path id="49" d="M241 408 C241 408 235.0767 408.7604 231 407 C214.6755 399.9508 197 389 197 389 "/>
<path id="50" d="M233 427 L221 421 "/>
<path id="51" d="M295 438 C295 438 293.212 430.0414 294 424 C294.541 419.8524 298 415 298 415 "/>
<path id="52" d="M262 355 L273 335 "/>
<path id="53" d="M236 274 L240 250 "/>
<path id="54" d="M283 200 L265 170 "/>
<path id="55" d="M229 151 L216 140 "/>
<path id="56" d="M275 79 L275 54 "/>
</g>
</g>
</svg>
