<?xml version="1.0" encoding="utf-8"?>
<!DOCTYPE svg PUBLIC "-//W3C//DTD SVG 1.1//EN" "http://www.w3.org/Graphics/SVG/1.1/DTD/svg11.dtd">
<svg viewBox="0 0 800 800" preserveAspectRatio="xMinYMin meet" xmlns="http://www.w3.org/2000/svg" version="1.1">
<g fill="none" stroke="black" stroke-linecap="round" stroke-linejoin="round" stroke-width="0.97446">
<g transform="translate(133.6993,87.52) scale(3.0786) translate(-116,-119)">
<path id="0" d="M116 316 L281 318 "/>
<path id="1" d="M165 319 C165 319 163.0906 316.3567 163 314 C162.1609 292.183 167.0654 285.4298 163 267 C160.8973 257.4679 153.683 256.8719 148 246 C142.6439 235.7535 142.2925 234.1759 140 223 C138.5114 215.7432 138.8714 208.2791 140 207 C141.0041 205.862 153.4499 205.69 155 206 C155.0838 206.0168 154.76 209.68 155 210 C155.135 210.18 157.5468 209.5468 158 210 C160.266 212.266 161.0562 217.2957 164 219 C167.7177 221.1524 176.9957 221.0246 177 221 C178.4163 212.8797 177.227 174.2219 179 133 C179.1024 130.6199 179.5165 129.3776 181 128 C185.3389 123.971 187.2383 121.9944 193 120 C198.5966 118.0627 201.7266 117.8536 207 119 C210.9426 119.8571 213.8988 121.7674 216 125 C218.9435 129.5284 219.7166 132.1984 220 139 C221.6404 178.3693 217.9626 211.1724 220 221 C220.0876 221.4224 230.372 222.8284 237 221 C242.539 219.472 243.4328 217.3301 249 213 C252.2589 210.4653 253.8847 209.9742 255 207 C257.5855 200.1053 254.537 194.714 258 189 C262.4215 181.7046 267.1315 178.1966 275 174 C279.2595 171.7283 287.125 172.25 288 173 C288.875 173.75 290.4771 180.8973 289 186 C285.6911 197.4309 284.2576 199.8718 277 211 C269.7617 222.0988 265.4066 223.4578 259 232 C258.4429 232.7428 259.2998 234.8001 259 235 C257.3508 236.0994 251.7651 237.0194 250 238 C249.8161 238.1021 250.0125 239.9994 250 240 C245.0125 240.2494 225.7332 238.6015 210 240 C207.8935 240.1872 206.4623 241.8066 205 244 C203.006 246.991 202.15 248.201 202 252 C200.7439 283.8201 202.7072 295.2494 202 320 C201.9786 320.7488 200 322 200 322 "/>
<path id="2" d="M196 148 L190 144 "/>
<path id="3" d="M196 144 L196 135 "/>
<path id="4" d="M196 145 L200 143 "/>
<path id="5" d="M195 150 L187 153 "/>
<path id="6" d="M149 230 L144 229 "/>
<path id="7" d="M273 199 L273 187 "/>
<path id="8" d="M272 198 L285 193 "/>
<path id="9" d="M276 195 L276 185 "/>
<path id="10" d="M273 198 L261 196 "/>
<path id="11" d="M195 195 L188 184 "/>
<path id="12" d="M195 194 L199 187 "/>
<path id="13" d="M195 192 L194 183 "/>
<path id="14" d="M150 229 L150 219 "/>
<path id="15" d="M147 226 L146 222 "/>
</g>
</g>
</svg>
