<?xml version="1.0" encoding="utf-8"?>
<!DOCTYPE svg PUBLIC "-//W3C//DTD SVG 1.1//EN" "http://www.w3.org/Graphics/SVG/1.1/DTD/svg11.dtd">
<svg viewBox="0 0 800 800" preserveAspectRatio="xMinYMin meet" xmlns="http://www.w3.org/2000/svg" version="1.1">
<g fill="none" stroke="black" stroke-linecap="round" stroke-linejoin="round" stroke-width="1.8049">
<g transform="translate(233.7872,87.52) scale(1.6621) translate(-252,-63)">
<path id="0" d="M314 436 C314 436 322.2727 365.8399 314 333 C311.0834 321.4222 294.7523 319.7117 281 305 C274.609 298.1631 274.7059 295.9559 271 287 C269.0201 282.2152 269.1207 281.4308 269 276 C268.1368 237.1538 267.3784 235.1085 269 197 C269.3114 189.6821 270.4045 188.1644 273 182 C273.8843 179.8998 275.1061 178.6764 277 178 C280.6133 176.7095 284.287 175.8577 287 177 C290.6223 178.5252 292.9384 181.7138 296 186 C297.1339 187.5875 296.9616 188.5413 297 191 C297.4519 219.9228 295.7821 221.5825 297 250 C297.2297 255.3601 298.0593 256.4716 300 261 C300.677 262.5797 301.739 263.7478 303 264 C307.2032 264.8406 311.0922 265.7194 315 264 C320.8095 261.4438 327.3546 257.3334 328 253 C332.1484 225.1463 330.6129 210.9672 329 170 C328.14 148.1555 324.4439 147.8995 323 126 C321.4714 102.8158 320.4064 94.85 323 79 C323.5227 75.8055 328.0327 72.0579 332 71 C339.4831 69.0045 345.8912 69.0389 353 71 C356.4552 71.9532 358.4667 74.7778 361 79 C363.85 83.75 364.7251 85.2266 365 91 C366.6238 125.099 366.1659 127.1481 365 163 C364.172 188.4599 360.0858 208.8193 361 214 C361.0417 214.2363 369.0888 215.0914 374 214 C376.2247 213.5056 377.2242 212.2197 379 210 C380.8645 207.6693 381.7744 206.7825 382 204 C383.1202 190.184 380.5948 187.0523 382 173 C382.4261 168.739 383.4445 167.2525 386 164 C388.2098 161.1876 392.2608 158.6568 393 159 C397.6386 161.1536 407.7704 167.7709 414 177 C419.0437 184.4722 419.0621 188.214 420 199 C421.9573 221.509 421.0975 222.953 420 246 C419.6231 253.9158 419.8149 255.4319 417 262 C414.4177 268.0253 413.3667 269.7514 408 274 C390.7154 287.6836 383.3293 288.0589 369 300 C366.5199 302.0667 366.1608 304.6594 366 309 C363.7755 369.0626 364 435 364 435 "/>
<path id="1" d="M420 216 L436 210 "/>
<path id="2" d="M423 232 C423 232 445.0006 231.3794 451 232 C451.2808 232.029 452 235 452 235 "/>
<path id="3" d="M434 247 L440 257 "/>
<path id="4" d="M403 266 C403 266 413.0731 271.3851 419 277 C421.1606 279.0469 422 284 422 284 "/>
<path id="5" d="M378 292 C378 292 389.198 302.3258 397 308 C397.764 308.5556 399.9427 307.9427 400 308 C400.0191 308.0191 399 310 399 310 "/>
<path id="6" d="M286 309 L260 314 "/>
<path id="7" d="M281 272 C281 272 278.0923 269.0756 275 268 C267.3056 265.3237 258 264 258 264 "/>
<path id="8" d="M269 242 L252 212 "/>
<path id="9" d="M286 195 L273 169 "/>
<path id="10" d="M290 239 L337 234 "/>
<path id="11" d="M323 384 C323 384 313.7693 380.993 305 379 C303.167 378.5834 301.4 378.8 301 379 C300.9 379.05 301 381 301 381 "/>
<path id="12" d="M319 419 C319 419 306.0368 417.239 299 415 C298.0227 414.689 297 412 297 412 "/>
<path id="13" d="M338 356 L371 339 "/>
<path id="14" d="M336 305 L354 296 "/>
<path id="15" d="M369 273 C369 273 373.9798 268.6677 377 264 C379.1179 260.7268 380 256 380 256 "/>
<path id="16" d="M342 190 L331 173 "/>
<path id="17" d="M348 160 L367 149 "/>
<path id="18" d="M343 124 L328 102 "/>
<path id="19" d="M358 105 C358 105 373.2631 98.7369 388 92 C390.6123 90.8058 392.9131 89.1158 393 89 C393.0064 88.9914 391 88 391 88 "/>
<path id="20" d="M347 82 C347 82 344.2337 76.4406 344 72 C343.7953 68.1116 346 63 346 63 "/>
<path id="21" d="M406 201 L433 179 "/>
<path id="22" d="M376 233 C376 233 376.8945 220.2513 378 215 C378.0853 214.5949 380 214 380 214 "/>
<path id="23" d="M310 305 L307 295 "/>
<path id="24" d="M360 404 L391 399 "/>
<path id="25" d="M346 439 C346 439 354.2587 434.7203 362 433 C366.9128 431.9083 373 433 373 433 "/>
<path id="26" d="M357 414 L364 389 "/>
<path id="27" d="M334 390 L334 379 "/>
</g>
</g>
</svg>
