<?xml version="1.0" encoding="utf-8"?>
<!DOCTYPE svg PUBLIC "-//W3C//DTD SVG 1.1//EN" "http://www.w3.org/Graphics/SVG/1.1/DTD/svg11.dtd">
<svg viewBox="0 0 800 800" preserveAspectRatio="xMinYMin meet" xmlns="http://www.w3.org/2000/svg" version="1.1">
<g fill="none" stroke="black" stroke-linecap="round" stroke-linejoin="round" stroke-width="1.0273">
<g transform="translate(87.52,150.308) scale(2.9204) translate(-124,-165)">
<path id="0" d="M183 325 C183 325 185 318.0214 185 315 C185 314.3957 183.0345 313.7601 183 313 C182.306 297.7319 181.9027 291.8495 183 271 C184.3916 244.5593 183.6533 242.6315 188 218 C189.3097 210.5783 190.4891 209.2761 195 203 C201.418 194.0705 203.0221 192.3824 211 186 C214.0726 183.5419 215.6363 183.385 220 183 C231.7751 181.961 236.4038 180.0647 245 183 C252.1453 185.4399 257.5781 189.586 261 197 C270.1947 216.9218 268.8007 222.4736 275 248 C277.2482 257.2573 277.625 257.6242 278 267 C278.6073 282.1817 276.5543 282.6226 277 298 C277.5481 316.9105 280 336 280 336 "/>
<path id="1" d="M285 331 C285 331 285.0684 296.3378 287 272 C287.1384 270.2565 288.3247 269.0661 290 268 C292.9936 266.095 297.0972 264.4922 298 265 C300.1094 266.1866 303.7154 271.06 306 277 C308.238 282.8188 307.8644 284.0826 308 291 C308.3573 309.221 308.267 318.1171 307 328 C306.9142 328.6689 303 330 303 330 "/>
<path id="2" d="M138 322 C138 322 139.9845 320.7299 140 320 C140.342 303.9261 138.6182 297.1431 139 275 C139.1106 268.5837 138.9812 266.0375 141 262 C142.2257 259.5487 144.796 258.1443 148 257 C150.5528 256.0883 153.3753 256.0002 155 257 C157.5353 258.5602 159.3111 260.9889 161 265 C162.9 269.5125 162.7172 270.5323 163 276 C164.1984 299.1696 161.8999 316.6997 164 323 C164.2662 323.7986 179 324 179 324 "/>
<path id="3" d="M278 329 L283 329 "/>
<path id="4" d="M274 231 C274 231 279.7737 225.1131 286 222 C292.981 218.5095 295.1996 220.6269 302 217 C309.2376 213.1399 310.3163 211.9678 316 206 C319.6705 202.146 320.7817 200.6701 322 196 C323.3694 190.7505 322.4765 186.3354 322 183 C321.9529 182.6701 319.9966 181.9912 320 182 C320.0431 182.1108 328.4646 193.3254 329 201 C329.6433 210.2205 326.8695 213.714 323 225 C321.061 230.6554 320.4201 232.5799 317 236 C314.3846 238.6154 312.4211 239.1158 308 240 C300.6917 241.4617 298.9567 239.0434 292 241 C284.2021 243.1932 276 249 276 249 "/>
<path id="5" d="M189 223 C189 223 184.447 224.1215 182 223 C174.2949 219.4685 172.6649 218.1814 165 212 C157.5071 205.9573 156.7236 205.5551 151 198 C144.6421 189.6075 144.2322 188.4412 140 179 C138.0729 174.7011 139.5348 173.2975 138 169 C137.2735 166.9658 135.5431 165.181 135 165 C134.7076 164.9025 132.7339 165.8075 132 167 C129.314 171.3647 128.4574 172.7532 127 178 C126.1765 180.9646 125.8856 183.1056 127 185 C129.5284 189.2983 134.7283 189.9697 137 195 C140.5692 202.9031 137.983 206.3455 141 216 C142.7458 221.5866 143.1555 223.1555 147 227 C154.0105 234.0105 156.0291 235.6505 165 240 C171.0738 242.9449 179.2725 243.2079 180 243 C180.0514 242.9853 179 236 179 236 "/>
<path id="6" d="M145 189 L149 186 "/>
<path id="7" d="M153 196 L157 193 "/>
<path id="8" d="M159 203 L163 202 "/>
<path id="9" d="M165 209 L166 209 "/>
<path id="10" d="M132 192 C132 192 128.5968 191.4012 127 192 C125.6826 192.494 124 195 124 195 "/>
<path id="11" d="M136 203 C136 203 132.2763 202.453 131 203 C130.1613 203.3594 129 206 129 206 "/>
<path id="12" d="M135 211 L134 213 "/>
<path id="13" d="M144 223 L142 226 "/>
<path id="14" d="M152 236 L152 237 "/>
<path id="15" d="M288 225 C288 225 284.25 225.25 284 225 C283.75 224.75 284 221 284 221 "/>
<path id="16" d="M298 218 L297 216 "/>
<path id="17" d="M309 213 L305 207 "/>
<path id="18" d="M328 197 L338 196 "/>
<path id="19" d="M332 207 C332 207 335.9695 206.9542 336 207 C336.0191 207.0286 334 210 334 210 "/>
<path id="20" d="M323 218 L335 225 "/>
<path id="21" d="M323 233 L325 234 "/>
<path id="22" d="M306 239 C306 239 309 239 309 239 C309 239.0322 306 242 306 242 "/>
<path id="23" d="M288 239 C288 239 291.5517 244.0858 292 247 C292.2442 248.5872 290 252 290 252 "/>
<path id="24" d="M276 244 L275 247 "/>
<path id="25" d="M312 287 L316 286 "/>
<path id="26" d="M310 295 L314 296 "/>
<path id="27" d="M312 308 L315 309 "/>
<path id="28" d="M166 278 L168 277 "/>
<path id="29" d="M165 287 L172 289 "/>
<path id="30" d="M165 299 L169 299 "/>
<path id="31" d="M133 275 L143 279 "/>
<path id="32" d="M134 287 L139 290 "/>
<path id="33" d="M132 303 L147 308 "/>
</g>
</g>
</svg>
