<?xml version="1.0" encoding="utf-8"?>
<!DOCTYPE svg PUBLIC "-//W3C//DTD SVG 1.1//EN" "http://www.w3.org/Graphics/SVG/1.1/DTD/svg11.dtd">
<svg viewBox="0 0 800 800" preserveAspectRatio="xMinYMin meet" xmlns="http://www.w3.org/2000/svg" version="1.1">
<g fill="none" stroke="black" stroke-linecap="round" stroke-linejoin="round" stroke-width="1.4785">
<g transform="translate(97.6655,87.52) scale(2.0291) translate(-202.5,-139.6667)">
<path id="0" d="M244.5 288.6667 C244.5 288.6667 243.5396 281.3313 240.5 275.6667 C232.9427 261.5826 227.9007 261.1685 222.5 247.6667 C219.0018 238.9212 219.6385 233.9945 220.5 225.6667 C220.7972 222.7941 222.7402 221.1756 225.5 218.6667 C227.6196 216.7398 228.6531 216.2361 231.5 215.6667 C235.3822 214.8902 236.4498 214.7862 240.5 215.6667 C247.2895 217.1427 248.794 217.0529 254.5 220.6667 C262.7654 225.9014 265.9133 227.3697 270.5 234.6667 C275.2229 242.1803 276.4995 255.6711 276.5 255.6667 C276.502 255.6485 274.7492 209.3915 277.5 171.6667 C277.9069 166.0858 279.5498 164.1106 283.5 159.6667 C290.5648 151.7188 292.2925 149.9281 301.5 144.6667 C308.3809 140.7347 310.1692 140.8918 318.5 139.6667 C326.4854 138.4923 329.6115 138.3284 335.5 139.6667 C337.6255 140.1497 339.1188 141.9043 340.5 144.6667 C346.0247 155.716 348.7416 157.3582 350.5 169.6667 C355.8701 207.2575 355.4768 249.5251 355.5 249.6667 C355.5035 249.6877 357.6273 242.1991 361.5 236.6667 C367.6918 227.8213 368.6614 226.8521 376.5 219.6667 C379.9815 216.4753 381.4514 215.3414 385.5 214.6667 C391.6073 213.6488 400.1903 214.8408 400.5 215.6667 C402.3231 220.5282 406.4761 242.3161 400.5 254.6667 C388.8889 278.6629 375.9078 280.9951 355.5 308.6667 C346.9975 320.1955 344.032 322.0064 341.5 334.6667 C335.3457 365.4381 336.5 403.6667 336.5 403.6667 "/>
<path id="1" d="M242.5 281.6667 C242.5 281.6667 256.0407 288.5395 264.5 297.6667 C273.7588 307.6564 275.5461 309.7227 280.5 322.6667 C290.3272 348.3441 289.6481 350.7078 295.5 378.6667 C298.5306 393.1463 298.5 408.6667 298.5 408.6667 "/>
<path id="2" d="M202.5 443.6667 C202.5 443.6667 201.6834 439.1372 202.5 435.6667 C203.5147 431.354 203.7865 430.2282 206.5 426.6667 C211.2621 420.4164 212.5692 419.0368 218.5 414.6667 C220.9113 412.8899 222.1374 412.7278 225.5 412.6667 C248.4298 412.2498 252.3647 411.1591 273.5 413.6667 C278.6442 414.277 279.8817 416.2029 284.5 419.6667 C287.3306 421.7896 288.0759 422.615 289.5 425.6667 C291.1975 429.3042 291.4998 434.6671 291.5 434.6667 C291.5004 434.6659 290.5373 427.6834 291.5 421.6667 C292.436 415.8166 292.4968 414.0713 295.5 409.6667 C299.0686 404.4328 300.8199 402.8475 306.5 399.6667 C312.0569 396.5548 313.6354 396.4743 320.5 395.6667 C329.9876 394.5505 331.2471 394.4727 340.5 395.6667 C345.8279 396.3541 346.7556 396.8991 351.5 399.6667 C358.2014 403.5758 358.7461 404.1525 364.5 409.6667 C370.4768 415.3945 372.5075 415.9776 375.5 422.6667 C380.1228 432.9999 381.4035 447.5351 381.5 447.6667 C381.5208 447.695 383.3803 441.9562 386.5 437.6667 C391.0755 431.3754 391.9335 428.6355 397.5 425.6667 C404.2609 422.0609 407.1768 422.097 416.5 421.6667 C438.8322 420.636 441.1418 419.9969 462.5 422.6667 C471.2401 423.7592 472.0228 425.4281 480.5 429.6667 C490.7514 434.7924 500.5 441.6667 500.5 441.6667 "/>
<path id="3" d="M205.5 434.6667 C205.5 434.6667 217.6274 432.3093 223.5 429.6667 C224.602 429.1708 225.5 425.6667 225.5 425.6667 "/>
<path id="4" d="M206.5 259.6667 C206.5 259.6667 230.416 259.7507 230.5 259.6667 C230.507 259.6597 217.5 248.6667 217.5 248.6667 "/>
<path id="5" d="M225.5 260.6667 L218.5 254.6667 "/>
<path id="6" d="M227.5 224.6667 C227.5 224.6667 230.5845 223.2506 231.5 223.6667 C234.0116 224.8083 236.7703 226.5533 238.5 229.6667 C240.8904 233.9694 238.8071 236.9146 241.5 241.6667 C246.5974 250.6622 255.5 259.6667 255.5 259.6667 "/>
<path id="7" d="M325.5 148.6667 C325.5 148.6667 322.8733 166.3716 323.5 182.6667 C323.8354 191.3869 327.5 200.6667 327.5 200.6667 "/>
<path id="8" d="M400.5 235.6667 C400.5 235.6667 398.7446 234.5199 398.5 234.6667 C396.3688 235.9454 393.1557 237.6831 390.5 241.6667 C383.8248 251.6795 378.5 264.6667 378.5 264.6667 "/>
<path id="9" d="M295.5 152.6667 C295.5 152.6667 294.7496 160.3653 296.5 166.6667 C299.5036 177.4795 305.5 188.6667 305.5 188.6667 "/>
<path id="10" d="M296.5 214.6667 C296.5 214.6667 301.1575 219.8751 305.5 222.6667 C307.2326 223.7805 310.4677 223.7474 310.5 223.6667 C311.0294 222.3431 311.5 207.6667 311.5 207.6667 "/>
<path id="11" d="M306.5 214.6667 L309.5 223.6667 "/>
<path id="12" d="M329.5 255.6667 C329.5 255.6667 342.1251 277.3641 343.5 278.6667 C343.5101 278.6762 347.0714 276.3941 348.5 273.6667 C352.0894 266.8141 354.5 257.6667 354.5 257.6667 "/>
<path id="13" d="M342.5 262.6667 L342.5 281.6667 "/>
<path id="14" d="M263.5 284.6667 C263.5 284.6667 264.5542 287.4058 265.5 287.6667 C274.9927 290.2853 286.9688 292.4759 292.5 292.6667 C292.879 292.6797 294.8004 289.3534 294.5 288.6667 C292.9678 285.1645 285.5 276.6667 285.5 276.6667 "/>
<path id="15" d="M280.5 287.6667 L297.5 291.6667 "/>
<path id="16" d="M250.5 206.6667 C250.5 206.6667 249.8472 217.5475 250.5 218.6667 C250.7222 219.0475 254.8106 219.5631 257.5 218.6667 C261.2139 217.4287 265.5 213.6667 265.5 213.6667 "/>
<path id="17" d="M251.5 210.6667 L252.5 224.6667 "/>
<path id="18" d="M354.5 199.6667 C354.5 199.6667 341.5368 208.4277 341.5 208.6667 C341.4923 208.7168 352.5 212.6667 352.5 212.6667 "/>
<path id="19" d="M345.5 206.6667 L354.5 206.6667 "/>
<path id="20" d="M334.5 157.6667 C334.5 157.6667 335.6072 174.0218 336.5 174.6667 C337.3199 175.2588 352.5 170.6667 352.5 170.6667 "/>
<path id="21" d="M344.5 167.6667 L340.5 175.6667 "/>
<path id="22" d="M294.5 356.6667 C294.5 356.6667 305.5957 355.5456 307.5 354.6667 C307.7525 354.5501 308.1401 351.5811 307.5 350.6667 C305.7557 348.1747 300.5 344.6667 300.5 344.6667 "/>
<path id="23" d="M295.5 352.6667 L310.5 353.6667 "/>
<path id="24" d="M342.5 348.6667 C342.5 348.6667 336.3234 348.0281 332.5 349.6667 C327.2102 351.9337 321.491 357.6397 321.5 357.6667 C321.5118 357.7019 335.5 358.6667 335.5 358.6667 "/>
<path id="25" d="M330.5 354.6667 L333.5 354.6667 "/>
<path id="26" d="M321.5 304.6667 C321.5 304.6667 322.3298 310.7945 321.5 314.6667 C321.1148 316.4645 318.465 318.6542 318.5 318.6667 C318.8862 318.8046 335.5 319.6667 335.5 319.6667 "/>
<path id="27" d="M324.5 317.6667 L329.5 305.6667 "/>
<path id="28" d="M285.5 321.6667 C285.5 321.6667 294.5109 322.9994 300.5 322.6667 C301.7468 322.5974 303.5183 320.7033 303.5 320.6667 C302.9691 319.605 294.5 310.6667 294.5 310.6667 "/>
<path id="29" d="M290.5 319.6667 L299.5 321.6667 "/>
</g>
</g>
</svg>
