<?xml version="1.0" encoding="utf-8"?>
<!DOCTYPE svg PUBLIC "-//W3C//DTD SVG 1.1//EN" "http://www.w3.org/Graphics/SVG/1.1/DTD/svg11.dtd">
<svg viewBox="0 0 800 800" preserveAspectRatio="xMinYMin meet" xmlns="http://www.w3.org/2000/svg" version="1.1">
<g fill="none" stroke="black" stroke-linecap="round" stroke-linejoin="round" stroke-width="1.0801">
<g transform="translate(169.4592,87.52) scale(2.7776) translate(-192,-123)">
<path id="0" d="M241 338 C241 338 230.2065 338.9286 225 336 C217.3993 331.7246 215.7108 328.3087 209 320 C205.7427 315.9672 205.0452 314.9272 204 310 C201.7865 299.5651 200.5762 294.3565 202 287 C202.6012 283.8937 206.7133 279.9586 210 279 C214.9963 277.5428 220.5271 277.2636 226 280 C237.1116 285.5558 240.1005 288.8005 250 299 C255.5556 304.7239 256.4929 307.0359 259 314 C260.3745 317.818 260.1009 320.0369 259 324 C257.9664 327.7209 254 332 254 332 "/>
<path id="1" d="M259 318 C259 318 259.9064 314.645 259 313 C248.3265 293.6295 243.1762 291.6123 232 269 C222.0783 248.9259 222.9584 247.5709 216 226 C213.0684 216.9122 212.6799 216.2921 212 207 C211.2273 196.4391 212.2276 187.832 213 185 C213.0473 184.8266 216.2826 184.1918 218 185 C223.4149 187.5482 225.7894 188.5417 230 193 C233.2064 196.395 234.9892 202.9957 235 203 C235.0038 203.0015 235.9508 198.2328 235 195 C233.7555 190.7688 231.3173 190.6105 230 186 C225.579 170.5263 225.4264 169.2914 223 153 C222.0021 146.3001 221.5349 142.4797 223 139 C223.8758 136.92 230.6203 133.7288 231 134 C233.3394 135.671 244 154 244 154 "/>
<path id="2" d="M245 156 C245 156 258.6424 196.8084 259 197 C259.0007 197.0004 271.4156 172.8346 273 171 C273.0132 170.9847 276.8439 172.8033 278 175 C281.0739 180.8404 282.5743 182.7103 283 190 C286.4009 248.2409 286 311.9998 286 312 C286 312.0001 286.1961 279.5293 290 251 C290.9149 244.1381 292.4098 242.6845 296 237 C297.7739 234.1914 299.713 232.8316 302 232 C303.3562 231.5068 305.4876 231.9413 307 233 C309.4411 234.7087 310.4364 235.7611 312 239 C317.0818 249.5265 318.9228 250.6697 321 262 C324.1488 279.1754 325.1544 286.0734 323 299 C322.2557 303.4655 318.1775 305.7362 313 310 C310.4272 312.1188 309.5464 312.2746 306 313 C288.1939 316.6422 281.5906 313.0611 269 319 C261.1093 322.722 259.8365 334.0638 253 338 C248.6859 340.4839 243.2484 336.1879 236 338 C226.9395 340.2651 226.2787 344.271 217 347 C210.4444 348.9281 202 348 202 348 "/>
<path id="3" d="M228 252 C228 252 229.9853 252.0588 230 252 C230.2353 251.0588 230 244 230 244 "/>
<path id="4" d="M225 226 L226 223 "/>
<path id="5" d="M219 200 C219 200 221.9538 200.1233 222 200 C222.3288 199.1233 222 192 222 192 "/>
<path id="6" d="M233 166 C233 166 236.879 165.3933 237 165 C237.6509 162.8844 237 153 237 153 "/>
<path id="7" d="M243 193 C243 193 244.9199 192.3604 245 192 C245.4435 190.0041 245 184 245 184 "/>
<path id="8" d="M244 223 C244 223 252.7241 228.0307 253 228 C253.0218 227.9976 253 222 253 222 "/>
<path id="9" d="M266 212 C266 212 270.911 213.594 272 213 C273.7605 212.0397 277 206 277 206 "/>
<path id="10" d="M251 264 C251 264 256.9207 268.0397 257 268 C257.0694 267.9653 257 261 257 261 "/>
<path id="11" d="M266 247 C266 247 269.5429 247.7286 271 247 C273.1857 245.9072 274.6151 244.5719 276 242 C277.6341 238.9652 278 234 278 234 "/>
<path id="12" d="M261 286 C261 286 266.8959 290.0347 267 290 C267.0446 289.9851 267 284 267 284 "/>
<path id="13" d="M269 272 C269 272 272.8898 273.1575 273 273 C273.8024 271.8538 276 262 276 262 "/>
<path id="14" d="M211 302 C211 302 221.1007 302.6541 222 302 C222.4757 301.6541 222 294 222 294 "/>
<path id="15" d="M218 315 C218 315 222.862 317.0828 223 317 C223.109 316.9346 223 312 223 312 "/>
<path id="16" d="M235 305 C235 305 238.9618 307.0382 239 307 C239.1146 306.8854 239 301 239 301 "/>
<path id="17" d="M236 324 C236 324 243.6098 324.4878 244 324 C244.6098 323.2378 244 314 244 314 "/>
<path id="18" d="M301 264 C301 264 303.7792 270.9448 304 271 C304.1743 271.0436 309 266 309 266 "/>
<path id="19" d="M294 284 C294 284 295.8545 290.9272 296 291 C296.0529 291.0265 300 287 300 287 "/>
<path id="20" d="M304 287 C304 287 304.9953 290.0017 305 290 C306.048 289.6257 318 282 318 282 "/>
<path id="21" d="M301 298 C301 298 303.7314 303 304 303 C304.5372 303 310 298 310 298 "/>
<path id="22" d="M212 330 L215 327 "/>
<path id="23" d="M200 315 L205 315 "/>
<path id="24" d="M192 293 L196 293 "/>
<path id="25" d="M200 282 L208 289 "/>
<path id="26" d="M214 275 L215 281 "/>
<path id="27" d="M226 272 L229 281 "/>
<path id="28" d="M213 248 L222 253 "/>
<path id="29" d="M209 229 L212 233 "/>
<path id="30" d="M203 200 L202 200 "/>
<path id="31" d="M202 198 L216 204 "/>
<path id="32" d="M210 184 L212 187 "/>
<path id="33" d="M216 169 L222 186 "/>
<path id="34" d="M218 141 L220 143 "/>
<path id="35" d="M224 125 L225 129 "/>
<path id="36" d="M241 123 L241 141 "/>
<path id="37" d="M245 151 L245 154 "/>
<path id="38" d="M258 157 L257 172 "/>
<path id="39" d="M269 167 L269 173 "/>
<path id="40" d="M282 161 L282 169 "/>
<path id="41" d="M289 180 L283 189 "/>
<path id="42" d="M291 198 L286 208 "/>
<path id="43" d="M292 217 L286 227 "/>
<path id="44" d="M298 227 L298 232 "/>
<path id="45" d="M308 226 L308 232 "/>
<path id="46" d="M320 235 L319 244 "/>
<path id="47" d="M331 263 L320 276 "/>
<path id="48" d="M332 283 C332 283 333.0749 284.9251 333 285 C332.0261 285.9739 325 290 325 290 "/>
<path id="49" d="M320 307 C320 307 324.3058 302.7388 328 302 C334.978 300.6044 337.2718 303.288 345 302 C351.2886 300.9519 358 297 358 297 "/>
</g>
</g>
</svg>
