<?xml version="1.0" encoding="utf-8"?>
<!DOCTYPE svg PUBLIC "-//W3C//DTD SVG 1.1//EN" "http://www.w3.org/Graphics/SVG/1.1/DTD/svg11.dtd">
<svg viewBox="0 0 800 800" preserveAspectRatio="xMinYMin meet" xmlns="http://www.w3.org/2000/svg" version="1.1">
<g fill="none" stroke="black" stroke-linecap="round" stroke-linejoin="round" stroke-width="0.57604">
<g transform="translate(87.52,108.352) scale(5.208) translate(-196,-147.1333)">
<path id="0" d="M236 166.1333 C236 166.1333 232.9572 165.4154 232 166.1333 C225.479 171.0241 216.212 180.9611 216 181.1333 C215.9878 181.1433 215.9793 179.1351 216 179.1333 C218.9793 178.8851 237.2352 178.3269 240 179.1333 C240.2352 179.2019 239.1745 183.4505 240 186.1333 C240.8527 188.9046 243.3 191.7333 244 192.1333 C244.175 192.2333 246.6994 191.0353 247 190.1333 C248.0355 187.0267 247.2122 180.6257 248 180.1333 C249.63 179.1146 256.665 178.9815 263 180.1333 C266.2635 180.7267 269.9991 184.139 270 184.1333 C270.003 184.1154 264 174.1333 264 174.1333 C264 174.1333 265.863 178.8626 267 179.1333 C271.884 180.2962 282.975 179.8083 285 179.1333 C285.225 179.0583 285.9181 174.0514 285 173.1333 C280.1035 168.2369 274.7383 162.4999 266 160.1333 C254.7478 157.0859 250.0259 158.5051 237 160.1333 C231.7784 160.786 228.2586 163.2854 226 165.1333 C225.5102 165.5341 225.8 168.7333 226 169.1333 C226.05 169.2333 228 169.1333 228 169.1333 "/>
<path id="1" d="M228 166.1333 C228 166.1333 219.8232 165.1694 217 167.1333 C211.5844 170.9007 210.1243 174.312 205 182.1333 C200.8341 188.4919 201.0251 189.0748 198 196.1333 C196.6018 199.3957 195.8294 199.9774 196 203.1333 C196.7479 216.9699 194.8346 225.9018 200 233.1333 C206.468 242.1885 215.4447 246.5931 231 252.1333 C249.3256 258.6603 252.2089 256.2226 273 259.1333 C276.8699 259.6751 277.6595 260.2141 281 259.1333 C293.3425 255.1402 296.5239 254.7183 307 248.1333 C312.0653 244.9495 315.2181 241.9117 316 237.1333 C318.7584 220.2766 316.8335 213.5539 316 193.1333 C315.9037 190.7749 315.3846 190.2102 314 188.1333 C311.5952 184.5261 310.587 182.1986 308 181.1333 C304.7962 179.8141 300.0187 182.7146 297 181.1333 C292.6744 178.8676 287 170.1333 287 170.1333 "/>
<path id="2" d="M254 259.1333 C254 259.1333 246.7842 258.3607 244 256.1333 C241.2607 253.9419 238.9448 247.3819 239 247.1333 C239.0109 247.0843 244.1169 246.1918 246 247.1333 C248.1522 248.2094 250.4057 253.2076 251 253.1333 C252.678 252.9236 257.0927 247.587 262 245.1333 C263.6358 244.3154 266.7439 244.826 267 245.1333 C267.3689 245.576 267.7303 249.8188 267 251.1333 C266.2967 252.3992 261.999 254.1303 262 254.1333 C262.0015 254.1379 267.4808 253.7872 268 254.1333 C268.2308 254.2872 268 258.1333 268 258.1333 "/>
<path id="3" d="M252 163.1333 L255 147.1333 "/>
</g>
</g>
</svg>
