<?xml version="1.0" encoding="utf-8"?>
<!DOCTYPE svg PUBLIC "-//W3C//DTD SVG 1.1//EN" "http://www.w3.org/Graphics/SVG/1.1/DTD/svg11.dtd">
<svg viewBox="0 0 800 800" preserveAspectRatio="xMinYMin meet" xmlns="http://www.w3.org/2000/svg" version="1.1">
<g fill="none" stroke="black" stroke-linecap="round" stroke-linejoin="round" stroke-width="0.87366">
<g transform="translate(87.52,161.3477) scale(3.4338) translate(-191,-145)">
<path id="0" d="M228 160 C228 160 214.8893 159.9443 206 163 C201.0789 164.6916 198.6786 166.7143 196 171 C192.4051 176.7519 192.0862 179.1793 191 187 C189.6987 196.3692 189.9656 197.2765 191 207 C192.424 220.3853 191.7227 221.9228 196 234 C199.7539 244.5992 201.1675 245.3403 208 255 C215.4202 265.4907 216.3009 269.4835 225 275 C233.1487 280.1675 237.1848 279.2277 249 281 C256.5921 282.1388 259.2427 281.6397 265 281 C265.7996 280.9112 267 279 267 279 "/>
<path id="1" d="M230 159 C230 159 249.62 164.338 263 163 C270.3467 162.2653 271.9251 155.3458 280 154 C298.8415 150.8598 303.1517 150.6988 323 153 C335.5167 154.4512 338.6718 155.6622 349 162 C358.5165 167.8397 362.1792 170.9872 367 180 C371.8289 189.0279 370.7761 192.5568 372 205 C373.7332 222.6206 375.1095 225.6311 373 241 C372.0531 247.8988 369.9712 249.9931 365 256 C358.7364 263.5685 357.4419 264.6937 349 270 C340.8207 275.1413 339.6423 275.2451 330 278 C315.6337 282.1047 314.8555 282.4632 300 284 C286.4159 285.4052 284.464 285.0998 272 284 C269.2113 283.7539 266 281 266 281 "/>
<path id="2" d="M255 164 C255 164 248.0576 163.9095 244 162 C241.0018 160.5891 237.9786 156.1709 238 156 C238.0117 155.9064 244.7281 154.2719 245 154 C245.0302 153.9698 242.9905 151.0019 243 151 C243.045 150.991 248.1425 153.1857 250 153 C250.9014 152.9099 252.9051 149.9416 253 150 C254.3792 150.8487 263 161 263 161 "/>
<path id="3" d="M261 159 C261 159 260.7115 153.7918 262 151 C263.1128 148.5889 264.57 147.215 267 146 C269.43 144.785 273.8908 144.9345 274 145 C274.0068 145.0041 271.985 148.9979 272 149 C272.0901 149.0129 281.006 145.9777 281 146 C280.9763 146.0887 268 164 268 164 "/>
<path id="4" d="M266 281 L242 281 "/>
<path id="5" d="M304 172 C304 172 312.8472 171.2515 317 173 C319.7685 174.1657 322.9535 180.0133 323 180 C323.0415 179.9881 324.265 173.9155 324 171 C323.9351 170.286 322.646 169 322 169 C317.1552 169 307 171 307 171 "/>
</g>
</g>
</svg>
