<?xml version="1.0" encoding="utf-8"?>
<!DOCTYPE svg PUBLIC "-//W3C//DTD SVG 1.1//EN" "http://www.w3.org/Graphics/SVG/1.1/DTD/svg11.dtd">
<svg viewBox="0 0 800 800" preserveAspectRatio="xMinYMin meet" xmlns="http://www.w3.org/2000/svg" version="1.1">
<g fill="none" stroke="black" stroke-linecap="round" stroke-linejoin="round" stroke-width="1.3249">
<g transform="translate(87.52,162.2435) scale(2.2643) translate(-198,-137.1333)">
<path id="0" d="M298 207.1333 C298 207.1333 294.9767 200.6898 291 198.1333 C282.6689 192.7776 280.0577 190.5933 270 189.1333 C251.5136 186.4498 247.2178 187.3473 229 189.1333 C224.3388 189.5903 222.22 190.7791 219 194.1333 C211.6248 201.8158 210.5594 203.8087 205 214.1333 C200.4034 222.6699 198.6505 224.1561 198 233.1333 C196.3374 256.0765 195.0164 262.922 200 283.1333 C202.6595 293.9189 206.837 296.5233 216 306.1333 C226.4999 317.1454 228.0231 318.1263 241 326.1333 C250.5755 332.0416 251.8308 332.1194 263 335.1333 C282.7329 340.4581 283.4465 339.888 304 343.1333 C321.3284 345.8694 321.5577 346.2927 339 347.1333 C362.7898 348.2798 365.3999 351.0606 387 347.1333 C406.3092 343.6226 408.5131 340.7907 427 331.1333 C441.1162 323.7592 442.6659 322.5955 454 312.1333 C461.0471 305.6283 462.3309 303.7664 466 295.1333 C470.1713 285.3186 467.9617 282.3876 471 272.1333 C471.6067 270.0856 473.8816 269.8298 474 268.1333 C475.0966 252.4148 477.8629 245.0677 474 229.1333 C470.9415 216.5171 466.738 214.232 458 202.1333 C454.3235 197.0428 453.2839 196.6559 448 193.1333 C443.2665 189.9777 442.6156 189.7172 437 188.1333 C423.5642 184.3438 423.0343 184.8792 409 182.1333 C400.0586 180.3839 399.9369 179.7291 391 179.1333 C377.742 178.2495 376.4009 176.6217 364 179.1333 C338.6284 184.2719 334.5832 185.6061 312 195.1333 C305.6034 197.8319 300.1872 206.1868 300 206.1333 C299.8672 206.0954 300.3535 197.6054 298 191.1333 C294.7622 182.2295 293.6098 181.2363 288 173.1333 C284.9527 168.7317 280 165.1333 280 165.1333 C280.2332 164.9001 298.7533 162.1333 299 162.1333 C299.026 162.1333 297.0883 163.8971 297 165.1333 C296.693 169.4319 296.5622 171.1011 298 176.1333 C301.3852 187.9814 306.9005 200.0935 307 200.1333 C307.0064 200.1359 311.4028 191.0322 313 182.1333 C314.7733 172.2537 312.4915 171.0892 314 161.1333 C314.899 155.1997 315.5596 154.8276 318 149.1333 C319.9828 144.5067 320.1822 143.2073 323 140.1333 C324.7633 138.2097 328.7331 136.902 329 137.1333 C330.7952 138.6892 335.4128 145.6592 338 153.1333 C339.3535 157.0433 339.5765 159.56 338 163.1333 C333.1732 174.0741 331.6109 177.4787 323 187.1333 C316.3068 194.6378 305 200.1333 305 200.1333 "/>
<path id="1" d="M295 206.1333 C295 206.1333 283.1372 206.9162 274 211.1333 C258.4095 218.329 255.1997 220.2417 243 230.1333 C239.0779 233.3134 238.7993 235.7353 237 241.1333 C235.5698 245.4241 237.2875 246.6272 236 251.1333 C234.4443 256.5783 231 262.1333 231 262.1333 "/>
<path id="2" d="M300 208.1333 C300 208.1333 309.5195 226.9849 313 245.1333 C316.1896 261.7647 314 281.1333 314 281.1333 "/>
<path id="3" d="M302 205.1333 C302 205.1333 319.7918 204.8493 335 209.1333 C353.9428 214.4693 355.8461 216.7558 373 225.1333 C375.7864 226.4941 376.3761 227.3495 378 230.1333 C382.9742 238.6606 387 249.1333 387 249.1333 "/>
<path id="4" d="M340 346.1333 L337 338.1333 "/>
</g>
</g>
</svg>
