<?xml version="1.0" encoding="utf-8"?>
<!DOCTYPE svg PUBLIC "-//W3C//DTD SVG 1.1//EN" "http://www.w3.org/Graphics/SVG/1.1/DTD/svg11.dtd">
<svg viewBox="0 0 800 800" preserveAspectRatio="xMinYMin meet" xmlns="http://www.w3.org/2000/svg" version="1.1">
<g fill="none" stroke="black" stroke-linecap="round" stroke-linejoin="round" stroke-width="0.83525">
<g transform="translate(87.52,101.8869) scale(3.5917) translate(-236,-151.1333)">
<path id="0" d="M314 195.1333 C314 195.1333 304.9453 187.6162 297 185.1333 C291.0781 183.2827 287.8568 183.0834 282 185.1333 C270.3254 189.2194 267.0645 190.7872 257 199.1333 C248.0419 206.562 247.133 208.9116 241 219.1333 C237.2705 225.3492 236.1398 227.2838 236 234.1333 C235.686 249.5171 236.3912 252.714 240 268.1333 C241.5121 274.594 242.6938 275.5712 247 281.1333 C254.2851 290.5432 254.6946 292.66 264 299.1333 C276.2107 307.6278 278.7197 308.272 293 313.1333 C300.9005 315.8229 302.9585 315.8644 311 315.1333 C317.9748 314.4993 320.7724 310.6561 326 310.1333 C327.5852 309.9748 328.5714 312.717 331 313.1333 C344.4389 315.4371 348.9742 318.3198 361 316.1333 C372.1721 314.102 375.3814 310.903 386 303.1333 C394.75 296.7309 397.495 294.9556 402 286.1333 C408.1006 274.1864 407.9248 270.6601 410 256.1333 C411.2566 247.3373 411.2943 245.6045 409 237.1333 C405.1605 222.9568 404.7619 219.9014 397 208.1333 C390.5802 198.4001 388.0443 196.7479 378 190.1333 C368.9085 184.1463 366.0514 182.3395 356 181.1333 C343.9627 179.6889 338.9951 180.5599 328 184.1333 C322.2131 186.0141 320.3048 189.4974 316 194.1333 C314.9965 195.214 315 198.1333 315 198.1333 "/>
<path id="1" d="M334 204.1333 C334 204.1333 325.9425 194.8438 322 192.1333 C321.3551 191.69 318 193.1333 318 193.1333 "/>
<path id="2" d="M315 200.1333 L313 197.1333 "/>
<path id="3" d="M302 185.1333 C302 185.1333 294.3959 185.2231 291 187.1333 C288.4968 188.5414 285.97 194.1205 286 194.1333 C286.2784 194.2527 303.3412 191.7762 305 193.1333 C306.6919 194.5177 305.3385 204.1489 308 212.1333 C309.3307 216.1256 312.125 218.8208 314 220.1333 C314.5334 220.5067 317.9584 219.4109 318 219.1333 C318.4905 215.8634 316.7973 200.2347 317 200.1333 C317.3339 199.9664 335.8402 210.1134 336 210.1333 C336.0316 210.1373 335.1745 205.2139 333 202.1333 C329.7003 197.4587 324 193.1333 324 193.1333 "/>
<path id="4" d="M313 196.1333 C313 196.1333 306.1597 190.0726 304 184.1333 C300.8761 175.5426 299.8414 170.7801 301 163.1333 C301.7451 158.2159 305.7576 153.7273 309 151.1333 C310.2896 150.1016 315.2454 150.4625 316 151.1333 C316.9822 152.0064 318.6494 156.5358 318 159.1333 C316.8094 163.8955 312.1527 165.5344 311 171.1333 C309.1133 180.2975 309.7357 184.599 311 193.1333 C311.3214 195.3028 315 198.1333 315 198.1333 "/>
<path id="5" d="M311 317.1333 C311 317.1333 314.7645 314.373 318 314.1333 C326.9268 313.4721 338 315.1333 338 315.1333 "/>
<path id="6" d="M318 312.1333 L338 313.1333 "/>
<path id="7" d="M316 311.1333 L340 313.1333 "/>
<path id="8" d="M333 312.1333 L342 312.1333 "/>
<path id="9" d="M321 310.1333 C321 310.1333 316.2519 312.7636 312 313.1333 C305.6122 313.6888 298 312.1333 298 312.1333 "/>
<path id="10" d="M309 186.1333 L325 185.1333 "/>
<path id="11" d="M312 187.1333 C312 187.1333 314.124 183.7587 316 183.1333 C319.9864 181.8045 327 182.1333 327 182.1333 "/>
<path id="12" d="M318 185.1333 C318 185.1333 323.1132 181.9662 327 181.1333 C328.8871 180.729 332 182.1333 332 182.1333 "/>
</g>
</g>
</svg>
