<?xml version="1.0" encoding="utf-8"?>
<!DOCTYPE svg PUBLIC "-//W3C//DTD SVG 1.1//EN" "http://www.w3.org/Graphics/SVG/1.1/DTD/svg11.dtd">
<svg viewBox="0 0 800 800" preserveAspectRatio="xMinYMin meet" xmlns="http://www.w3.org/2000/svg" version="1.1">
<g fill="none" stroke="black" stroke-linecap="round" stroke-linejoin="round" stroke-width="1.8385">
<g transform="translate(87.52,192.7678) scale(1.6317) translate(-88,-125.4167)">
<path id="0" d="M138 176.4167 C138 176.4167 120.1923 183.0898 109 192.4167 C101.3769 198.7692 101.018 201.6448 96 211.4167 C91.88 219.4399 88.9837 222.4871 90 229.4167 C93.5319 253.4976 94.642 261.2745 107 286.4167 C122.345 317.6358 148 347.4167 148 347.4167 "/>
<path id="1" d="M418 188.4167 C418 188.4167 427.0852 185.9511 435 186.4167 C443.0803 186.892 446.7769 186.7605 452 190.4167 C458.5684 195.0145 461.8908 198.9526 465 207.4167 C469.8314 220.5689 468.3753 223.4404 470 239.4167 C471.3545 252.7357 472.0015 253.3978 471 266.4167 C470.0558 278.6916 469.9948 279.9022 466 291.4167 C461.7917 303.5465 461.368 304.8625 454 315.4167 C443.4289 330.5591 429 344.4167 429 344.4167 "/>
<path id="2" d="M196 209.4167 C196 209.4167 183.2512 227.3775 180 243.4167 C176.5259 260.5558 178.3221 264.6716 181 283.4167 C182.6105 294.6904 184.2382 295.3894 189 306.4167 C193.635 317.1503 193.0771 318.7187 200 327.4167 C211.6996 342.1161 228 355.4167 228 355.4167 "/>
<path id="3" d="M364 214.4167 C364 214.4167 369.9627 215.7252 374 218.4167 C378.2498 221.2498 378.9959 222.1609 382 226.4167 C384.6027 230.1038 384.3474 230.8262 386 235.4167 C388.8176 243.2433 389.8639 243.4643 391 251.4167 C393.2624 267.2535 396.1836 270.5092 393 284.4167 C387.6381 307.8395 383.3957 310.4858 372 334.4167 C368.717 341.311 368.1111 341.6241 363 347.4167 C353.3521 358.351 342 368.4167 342 368.4167 "/>
<path id="4" d="M145 340.4167 C145 340.4167 153.6518 349.9918 162 353.4167 C170.6837 356.9792 173.6473 356.848 184 356.4167 C196.4035 355.8999 210 351.4167 210 351.4167 "/>
<path id="5" d="M227 355.4167 C227 355.4167 227.6003 358.842 229 360.4167 C230.9274 362.585 231.8332 363.0092 235 364.4167 C244.998 368.8602 245.8342 370.6863 256 372.4167 C267.8198 374.4286 269.8839 374.0689 282 372.4167 C290.7694 371.2208 300 366.4167 300 366.4167 "/>
<path id="6" d="M303 368.4167 C303 368.4167 307.8811 373.7353 313 376.4167 C317.5349 378.7921 319.3581 379.8262 324 379.4167 C334.174 378.519 347 373.4167 347 373.4167 "/>
<path id="7" d="M357 361.4167 C357 361.4167 362.418 366.7286 367 368.4167 C370.2783 369.6245 372.0418 369.5115 376 368.4167 C394.2937 363.3567 397.8039 363.1773 414 355.4167 C419.4165 352.8213 419.8337 350.8329 424 345.4167 C429.5792 338.1637 434 329.4167 434 329.4167 "/>
<path id="8" d="M197 210.4167 C197 210.4167 213.9849 197.8843 230 191.4167 C237.7993 188.2669 240.2843 188.71 249 189.4167 C257.5156 190.1071 267 194.4167 267 194.4167 "/>
<path id="9" d="M330 190.4167 C330 190.4167 339.59 189.8729 347 191.4167 C350.3731 192.1194 350.7715 193.1106 354 195.4167 C361.1588 200.5301 364.0771 201.4477 368 206.4167 C369.5635 208.3971 369 214.4167 369 214.4167 "/>
<path id="10" d="M436 183.4167 C436 183.4167 421.7977 171.476 408 164.4167 C401.9518 161.3222 399.9956 161.4167 393 161.4167 C385.0716 161.4167 383.7484 161.7047 376 164.4167 C364.474 168.4508 353 175.4167 353 175.4167 "/>
<path id="11" d="M149 172.4167 C149 172.4167 159.9499 173.2113 170 171.4167 C187.3717 168.3146 187.8784 163.9911 205 162.4167 C229.8062 160.1356 233.6393 161.156 257 163.4167 C261.7011 163.8716 267 168.4167 267 168.4167 "/>
<path id="12" d="M219 157.4167 C219 157.4167 239.4718 144.077 260 135.4167 C270.2513 131.0919 272.345 130.2361 283 130.4167 C299.7864 130.7012 304.5732 132.5461 319 136.4167 C321.4325 137.0693 324 141.4167 324 141.4167 "/>
<path id="13" d="M255 179.4167 C255 179.4167 246.7685 178.7946 241 181.4167 C221.0916 190.4659 200.0002 204.4166 200 204.4167 C199.9999 204.4167 212.2993 192.767 225 186.4167 C234.7123 181.5605 236.6831 181.8614 248 180.4167 C259.4283 178.9577 272 180.4167 272 180.4167 "/>
<path id="14" d="M224 199.4167 C224 199.4167 243.6014 187.9702 259 184.4167 C265.529 182.91 276 187.4167 276 187.4167 "/>
<path id="15" d="M278 173.4167 C278 173.4167 277.0339 168.3053 275 166.4167 C271.4521 163.1222 269.6678 162.5421 264 160.4167 C254.0547 156.6872 253.2846 156.2866 243 154.4167 C237.4133 153.4009 230.9977 154.4156 231 154.4167 C231.0071 154.4201 253.6683 157.6072 264 164.4167 C270.1385 168.4625 275 183.4167 275 183.4167 "/>
<path id="16" d="M244 156.4167 C244 156.4167 260.2485 158.6591 269 164.4167 C275.9936 169.0177 282 181.4167 282 181.4167 "/>
<path id="17" d="M287 170.4167 C287 170.4167 329.9999 141.4167 330 141.4167 C330.0001 141.4167 297.0017 168.4155 297 168.4167 C296.9994 168.417 300.9986 161.9634 306 157.4167 C311.5758 152.3478 312.3934 151.72 319 148.4167 C323.719 146.0572 326.7496 144.4416 330 145.4167 C337.2731 147.5986 349 157.4167 349 157.4167 "/>
<path id="18" d="M304 176.4167 C304 176.4167 310.0423 169.4175 317 164.4167 C325.6569 158.1946 326.4412 158.7696 336 153.4167 C338.9178 151.7827 339.1531 150.9861 342 150.4167 C345.8822 149.6402 351 150.4167 351 150.4167 "/>
<path id="19" d="M303 181.4167 C303 181.4167 310.2506 177.9952 317 177.4167 C326.8417 176.5731 328.154 176.5412 338 178.4167 C348.377 180.3932 350.0169 180.5609 359 185.4167 C367.3464 189.9282 375 198.4167 375 198.4167 C375 198.4167 367.9808 190.8599 361 188.4167 C350.0701 184.5912 335 184.4167 335 184.4167 "/>
<path id="20" d="M317 189.4167 C317 189.4167 334.9815 186.26 349 188.4167 C358.4134 189.8649 369 197.4167 369 197.4167 "/>
<path id="21" d="M293 187.4167 C293 187.4167 298.8399 196.8897 299 204.4167 C299.2795 217.5538 294.0006 234.4093 294 234.4167 C293.9999 234.4182 296.4668 231.2607 297 228.4167 C297.8126 224.083 297.9128 222.9808 297 218.4167 C295.5395 211.114 295.2215 210.3553 292 203.4167 C288.8914 196.7212 284 190.4167 284 190.4167 "/>
<path id="22" d="M230 192.4167 C230 192.4167 243.9932 187.4144 244 187.4167 C244.0031 187.4177 236 194.4167 236 194.4167 C236 194.4167 247.0006 184.4199 247 184.4167 C246.9998 184.4156 234.9998 189.4166 235 189.4167 C235.0003 189.4167 252 185.4167 252 185.4167 C252 185.4167 236 190.4167 236 190.4167 C236.0001 190.4166 253.9994 182.4175 254 182.4167 C254.0004 182.4162 239.9998 185.4171 240 185.4167 C240.0003 185.4161 255.9997 178.4167 256 178.4167 C256.0002 178.4167 244.9992 185.4167 245 185.4167 C245.0016 185.4165 266.9947 177.4174 267 177.4167 C267.002 177.4164 258.9996 183.4165 259 183.4167 C259.0006 183.4169 269.9997 178.4163 270 178.4167 C270.0002 178.417 260.9879 186.3843 261 186.4167 C261.0118 186.4481 272.9994 186.4163 273 186.4167 C273.0004 186.4169 264 188.4167 264 188.4167 C264 188.4167 278.9991 185.4162 279 185.4167 C279.0006 185.417 267.9999 190.4166 268 190.4167 C268.0002 190.4167 281.9989 186.4156 282 186.4167 C282.0004 186.4171 271 193.4167 271 193.4167 C271 193.4167 282 187.4167 282 187.4167 "/>
<path id="23" d="M274 167.4167 C274 167.4167 277.9959 177.4115 278 177.4167 C278.0016 177.4186 278.7151 174.2761 278 172.4167 C276.5807 168.7265 273 164.4166 273 164.4167 C273.0001 164.4167 283.9993 178.4161 284 178.4167 C284.0003 178.417 280 170.4167 280 170.4167 C280 170.4167 286 184.4167 286 184.4167 C286 184.4166 281.0021 168.4204 281 168.4167 C280.9992 168.4153 280.2182 172.4849 281 175.4167 C282.0126 179.214 284.979 183.4302 285 183.4167 C285.3846 183.1694 294.9932 166.4218 295 166.4167 C295.0031 166.4144 293 177.4167 293 177.4167 C293 177.4167 297 160.4167 297 160.4167 C297 160.4167 293.9999 177.4166 294 177.4167 C294.0003 177.4167 301 161.4167 301 161.4167 C301 161.4167 295.9991 174.4169 296 174.4167 C296.0016 174.4164 305.9893 160.4233 306 160.4167 C306.0043 160.414 304.8045 164.9919 304 169.4167 C303.8282 170.3618 303.9694 171.4014 304 171.4167 C304.0458 171.4396 305.6277 171.0549 306 170.4167 C308.3915 166.317 311 159.4167 311 159.4167 C311 159.4167 302.9996 176.4168 303 176.4167 C303.0005 176.4164 316.9986 156.4173 317 156.4167 C317.0009 156.4163 310.0037 173.4037 310 173.4167 C309.9992 173.4193 311.8781 172.0995 313 170.4167 C318.6841 161.8905 324 152.4167 324 152.4167 C324 152.4167 315.9996 167.4168 316 167.4167 C316.0007 167.4165 328.9988 151.4171 329 151.4167 C329.0007 151.4164 321.999 165.4172 322 165.4167 C322.0017 165.4158 337 147.4167 337 147.4167 C337 147.4167 326 163.4167 326 163.4167 C325.9999 163.4166 335.0065 145.4157 335 145.4167 C334.9861 145.4188 313.0013 165.4161 313 165.4167 C312.9993 165.417 324.0008 150.4165 324 150.4167 C323.9987 150.417 305 167.4166 305 167.4167 C305 167.4168 313.3831 160.8023 322 155.4167 C325.1214 153.4658 328.0773 152.3142 329 152.4167 C329.3383 152.4543 331.1004 156.3339 331 156.4167 C328.886 158.1576 312 166.4167 312 166.4167 C312 166.4167 330 154.4167 330 154.4167 C330 154.4167 314 166.4167 314 166.4167 C314 166.4167 322.0789 159.0373 330 154.4167 C333.157 152.5751 338 152.4167 338 152.4167 "/>
<path id="24" d="M295 194.4167 C295 194.4167 292 192.3898 292 192.4167 C292 192.6856 295 212.4167 295 212.4167 C295 212.4167 295.5616 205.8784 294 201.4167 C292.4728 197.0532 287.9999 192.4163 288 192.4167 C288.0002 192.4174 296.9991 213.4158 297 213.4167 C297.0005 213.4172 293.9999 198.4167 294 198.4167 C294.0002 198.4167 300 213.4168 300 213.4167 C300 213.4166 295.0005 194.4205 295 194.4167 C294.9998 194.4156 298 199.4167 298 199.4167 "/>
<path id="25" d="M305 184.4167 C305 184.4167 326 179.4167 326 179.4167 C326 179.4167 306.0002 186.4163 306 186.4167 C305.9999 186.4169 324 183.4166 324 183.4167 C324 183.4168 306 189.4167 306 189.4167 C306 189.4167 323.9997 182.4169 324 182.4167 C324.0002 182.4165 309.9986 185.4162 310 185.4167 C310.0028 185.4177 335 186.4167 335 186.4167 C334.9999 186.4166 306 182.4167 306 182.4167 C306 182.4167 337.9996 185.4165 338 185.4167 C338.0002 185.4168 327.1306 186.9795 317 186.4167 C309.664 186.0091 301.9998 183.4167 302 183.4167 C302.0005 183.4166 340 185.4166 340 185.4167 C340 185.4167 304.0046 186.4188 304 186.4167 C303.9974 186.4155 316.0106 181.1987 327 179.4167 C333.3008 178.3949 341 180.4167 341 180.4167 C341 180.4167 321.0005 178.4169 321 178.4167 C320.9997 178.4165 329.1978 176.4562 334 177.4167 C337.0014 178.0169 341.0068 182.4099 341 182.4167 C340.9524 182.4643 327.9999 183.4166 328 183.4167 C328.0001 183.4168 342.999 184.4171 343 184.4167 C343.0006 184.4164 333 181.4167 333 181.4167 C333 181.4167 352 187.4167 352 187.4167 "/>
<path id="26" d="M203 208.4167 C203 208.4167 213.7963 201.8937 225 198.4167 C242.1749 193.0865 261 190.4167 261 190.4167 "/>
<path id="27" d="M271 176.4167 C271 176.4167 268.9604 171.4298 266 169.4167 C257.8709 163.8889 255.4863 162.0518 246 159.4167 C239.3365 157.5657 229.9999 159.4167 230 159.4167 C230.0002 159.4167 253.3831 159.2193 264 163.4167 C268.219 165.0847 273.0099 176.4191 273 176.4167 C272.973 176.4099 255.9606 164.0648 244 158.4167 C241.918 157.4335 237.1922 159.2629 237 159.4167 C236.9901 159.4246 238.191 162.2464 239 162.4167 C244.2908 163.5305 251.8387 160.6016 256 163.4167 C263.5057 168.494 273 185.4167 273 185.4167 "/>
<path id="28" d="M286 170.4167 C286 170.4167 285 178.4168 285 178.4167 C284.9999 178.4161 285.8853 163.9856 284 151.4167 C283.0452 145.0512 279 138.4162 279 138.4167 C279.0001 138.4178 283.6454 155.1778 285 170.4167 C285.5339 176.4227 283 183.4167 283 183.4167 C283 183.4167 284.4341 178.6131 284 174.4167 C283.0039 164.7876 282.9712 163.6272 280 154.4167 C278.1948 148.8206 273.8203 143.5963 274 143.4167 C275.0421 142.3746 297 137.4167 297 137.4167 "/>
<path id="29" d="M298 136.4167 C298 136.4167 302.521 143.871 303 150.4167 C303.8953 162.6523 302.877 164.2779 301 177.4167 C299.9289 184.9147 297 192.4167 297 192.4167 "/>
<path id="30" d="M277 138.4167 C277 138.4167 290.9816 141.4035 291 141.4167 C291.0064 141.4212 286.5673 143.6142 284 143.4167 C281.6635 143.2369 279.8 141.9595 278 140.4167 C277.25 139.7738 276.7382 137.9403 277 137.4167 C277.7854 135.8459 280.6604 132.4167 282 132.4167 C286.2866 132.4167 298 137.4167 298 137.4167 "/>
<path id="31" d="M282 141.4167 C282 141.4167 285.4396 146.7463 286 151.4167 C286.7957 158.0479 284.9999 166.4169 285 166.4167 C285.0002 166.4163 290.0007 144.42 290 144.4167 C289.9996 144.4149 283 157.4167 283 157.4167 C283 157.4167 289.9991 144.4142 290 144.4167 C290.0017 144.4213 285.9908 165.406 286 165.4167 C286.0028 165.42 295.9999 151.4165 296 151.4167 C296.0001 151.4169 287 169.4161 287 169.4167 C287 169.4171 296 157.4138 296 157.4167 C296 157.4227 287 182.4164 287 182.4167 C287 182.4169 296 165.4167 296 165.4167 C296 165.4167 288.0005 183.412 288 183.4167 C287.9998 183.4188 294.9987 175.4113 295 175.4167 C295.0032 175.4293 289.9988 191.4151 290 191.4167 C290.0006 191.4175 297.9998 179.4167 298 179.4167 C298.0002 179.4166 294.7335 185.2161 293 190.4167 C292.4526 192.0589 292.9958 194.4198 293 194.4167 C293.0128 194.407 296.9997 187.4168 297 187.4167 C297.0002 187.4166 294.9993 193.4154 295 193.4167 C295.0003 193.4173 298.0004 189.4167 298 189.4167 C297.9994 189.4167 293.0015 193.4196 293 193.4167 C292.9935 193.4038 296 185.4167 296 185.4167 "/>
<path id="32" d="M305 177.4167 L305 185.4167 "/>
<path id="33" d="M179 207.4167 L189 207.4167 "/>
<path id="34" d="M177 223.4167 L188 215.4167 "/>
<path id="35" d="M170 246.4167 L189 227.4167 "/>
<path id="36" d="M164 265.4167 L180 246.4167 "/>
<path id="37" d="M168 281.4167 L180 268.4167 "/>
<path id="38" d="M177 295.4167 L185 283.4167 "/>
<path id="39" d="M182 303.4167 L189 291.4167 "/>
<path id="40" d="M193 317.4167 L199 307.4167 "/>
<path id="41" d="M203 323.4167 L207 316.4167 "/>
<path id="42" d="M213 341.4167 L216 333.4167 "/>
<path id="43" d="M285 366.4167 L311 364.4167 "/>
<path id="44" d="M283 357.4167 L307 357.4167 "/>
<path id="45" d="M283 345.4167 L307 347.4167 "/>
<path id="46" d="M286 328.4167 L306 329.4167 "/>
<path id="47" d="M286 315.4167 L302 314.4167 "/>
<path id="48" d="M284 301.4167 L296 299.4167 "/>
<path id="49" d="M280 285.4167 L293 283.4167 "/>
<path id="50" d="M282 278.4167 L292 274.4167 "/>
<path id="51" d="M221 159.4167 C221 159.4167 226.088 149.3686 233 143.4167 C242.8987 134.8928 244.9642 134.7886 257 128.4167 C261.3666 126.105 267.0043 125.4122 267 125.4167 C266.9813 125.4362 236 150.4167 236 150.4167 C236 150.4167 247.9779 138.1762 259 133.4167 C266.9425 129.987 280 131.4167 280 131.4167 "/>
<path id="52" d="M94 218.4167 C94 218.4167 93.0412 227.8163 96 234.4167 C111.3374 268.6308 133 305.4167 133 305.4167 "/>
<path id="53" d="M88 237.4167 C88 237.4167 88.7773 245.8311 92 252.4167 C99.8486 268.4551 100.2619 269.5218 111 284.4167 C130.9735 312.1218 131.9181 312.7859 154 338.4167 C159.3843 344.6663 167 349.4167 167 349.4167 "/>
<path id="54" d="M125 302.4167 C125 302.4167 137.9754 323.3658 152 338.4167 C156.826 343.5958 166 346.4167 166 346.4167 "/>
<path id="55" d="M192 358.4167 C192 358.4167 202.8566 361.158 212 360.4167 C220.0223 359.7662 229 355.4167 229 355.4167 "/>
<path id="56" d="M209 350.4167 C209 350.4167 222.3228 363.1966 235 368.4167 C244.9543 372.5155 260 371.4167 260 371.4167 "/>
<path id="57" d="M254 373.4167 C254 373.4167 265.6958 377.5836 277 379.4167 C283.6016 380.4872 285.5049 381.1893 291 379.4167 C298.9388 376.8558 308 369.4167 308 369.4167 "/>
<path id="58" d="M355 361.4167 C355 361.4167 369.1804 364.4912 381 363.4167 C389.4901 362.6448 399 357.4167 399 357.4167 "/>
<path id="59" d="M346 369.4167 C346 369.4167 371.0341 372.4131 390 370.4167 C395.9354 369.7919 397.257 367.6282 403 363.4167 C411.8678 356.9136 420 348.4167 420 348.4167 "/>
<path id="60" d="M349 158.4167 C349 158.4167 360.2854 163.05 368 168.4167 C370.4294 170.1067 372 174.4167 372 174.4167 "/>
<path id="61" d="M231 166.4167 C231 166.4167 211.9996 164.4179 212 164.4167 C212.0012 164.4126 222.642 160.7446 233 159.4167 C241.6153 158.3121 251 159.4167 251 159.4167 C251 159.4167 219.0047 161.4195 219 161.4167 C218.9974 161.4151 240.9962 153.4174 241 153.4167 C241.0013 153.4164 237.5229 157.0467 234 158.4167 C229.3612 160.2207 223 160.4167 223 160.4167 C223 160.4167 228.7114 158.4167 234 158.4167 C243.6156 158.4167 254 160.4167 254 160.4167 "/>
<path id="62" d="M300 144.4167 C300 144.4167 293.1938 131.6832 293 131.4167 C292.9864 131.3979 292.1466 133.4167 292 133.4167 C291.2669 133.4167 286.9944 131.372 287 131.4167 C287.0575 131.8765 292.9591 146.1915 295 157.4167 C295.4933 160.13 293 164.4167 293 164.4167 "/>
<path id="63" d="M320 166.4167 C320 166.4167 323.5804 160.4912 328 157.4167 C334.1578 153.133 336.4238 151.1474 343 150.4167 C351.6139 149.4596 364.0001 153.4166 364 153.4167 C363.9999 153.4167 339.0002 152.4167 339 152.4167 C338.9999 152.4167 351 151.4167 351 151.4167 "/>
<path id="64" d="M336 188.4167 C336 188.4167 348.7299 187.5879 355 189.4167 C357.1939 190.0565 360 195.4167 360 195.4167 "/>
<path id="65" d="M307 194.4167 C307 194.4167 304.0006 190.4068 304 190.4167 C303.9968 190.4682 306.2076 200.6611 306 210.4167 C305.7185 223.646 303.6545 234.9856 303 237.4167 C302.9982 237.4234 299.0509 236.7054 299 236.4167 C298.5274 233.7388 301.1389 227.6296 300 220.4167 C298.339 209.8968 293.0001 198.4167 293 198.4167 C292.9999 198.4166 295.5723 208.4226 297 218.4167 C298.051 225.7734 298.0027 233.384 298 233.4167 C297.9995 233.4229 296.4364 231.9682 296 230.4167 C292.2068 216.9296 289.0384 201.6758 289 201.4167 C288.9969 201.3956 292 203.4167 292 203.4167 "/>
</g>
</g>
</svg>
