<?xml version="1.0" encoding="utf-8"?>
<!DOCTYPE svg PUBLIC "-//W3C//DTD SVG 1.1//EN" "http://www.w3.org/Graphics/SVG/1.1/DTD/svg11.dtd">
<svg viewBox="0 0 800 800" preserveAspectRatio="xMinYMin meet" xmlns="http://www.w3.org/2000/svg" version="1.1">
<g fill="none" stroke="black" stroke-linecap="round" stroke-linejoin="round" stroke-width="1.8769">
<g transform="translate(87.52,135.4709) scale(1.5984) translate(-52,-50)">
<path id="0" d="M80 112 C80 112 86.6872 111.9677 92 110 C99.4905 107.2257 99.5202 103.9097 107 102 C121.4927 98.2997 123.0137 99.193 139 98 C156.3603 96.7045 157.3876 95.3923 174 97 C187.1732 98.2748 187.4526 102.0432 201 104 C231.8887 108.4617 235.7387 111.5194 264 110 C277.7937 109.2584 279.1514 102.2172 294 99 C307.9545 95.9765 309.9436 95.4382 324 97 C344.3504 99.2612 346.0339 100.1151 366 107 C388.7989 114.8617 400.6366 115.0173 411 127 C423.3886 141.3243 421.493 153.843 430 181 C434.4262 195.1297 432.635 196.9051 437 210 C438.2073 213.622 441.6167 213.8696 442 217 C444.1211 234.322 443.7652 238.1476 443 259 C441.7749 292.3848 445.0528 302.6716 438 326 C435.3905 334.6313 426.7149 334.9907 417 345 C410.4266 351.7726 411.0238 356.4234 405 360 C398.553 363.8279 391.5405 361.4407 385 364 C383.4967 364.5882 383.6595 368.2341 382 369 C373.7986 372.7853 370.2414 375.2393 359 376 C306.2569 379.5691 303.3782 378 249 378 C241.5848 378 240.3497 378.1166 234 376 C229.5417 374.5139 228.9513 370.5199 225 370 C213.3479 368.4668 209.8865 371.6774 196 371 C190.174 370.7158 189.9362 368.3957 184 368 C153.2808 365.9521 149.2273 370.7045 121 366 C108.0006 363.8334 105.2115 360.2545 94 353 C89.94 350.373 89.623 348.8088 87 344 C80.861 332.7453 79.0721 331.816 76 320 C72.9667 308.3336 76.9539 305.2786 74 294 C71.9556 286.194 67.3756 286.2067 65 278 C56.8583 249.8743 56.3265 247.6196 52 218 C49.973 204.123 50.4132 200.1073 52 189 C52.3674 186.4284 57 185.0481 57 183 C57 172.7594 52.6385 167.0459 52 153 C51.7072 146.5579 53.0548 145.8084 55 139 C57.0201 131.9298 56.8065 131.0966 60 125 C61.949 121.2791 62.6083 120.0872 66 118 C74.4032 112.8288 86 109 86 109 "/>
<path id="1" d="M245 109 C245 109 244.1683 86.3769 245 66 C245.1176 63.118 245.5952 62.1072 247 60 C248.0855 58.3717 250.177 58.4815 251 57 C252.0332 55.1403 251.5583 51.1189 252 51 C256.2672 49.8511 276.2118 49.8209 277 50 C277.0521 50.0118 275.2187 55.5125 274 56 C271.2917 57.0833 266.4587 54.6624 262 56 C258.3587 57.0924 254.6013 59.4744 254 62 C251.2252 73.6543 254.1225 80.666 252 98 C251.21 104.4515 249.8752 107.2495 248 111 C247.6875 111.6251 245 112 245 112 "/>
<path id="2" d="M251 106 C251 106 252.5419 101.7698 255 100 C263.7571 93.6949 265.1825 92.7597 276 88 C289.7482 81.9508 291.1263 83.8076 305 78 C312.2528 74.9639 318.5232 70.1022 319 70 C319.0325 69.993 319.5988 73.4032 319 75 C318.506 76.3174 317.5499 77.5 316 78 C304.1801 81.8129 300.654 80.2548 288 85 C281.8021 87.3242 282.268 90.2142 276 93 C264.8967 97.9348 261.6443 96.5223 252 101 C249.8002 102.0213 248 106 248 106 "/>
<path id="3" d="M244 106 C244 106 244.6468 101.5544 244 101 C240.9816 98.4128 235.7261 98.3518 230 94 C224.0368 89.468 224.948 85.6049 219 82 C210.2605 76.7033 200.5023 74.9136 197 74 C196.9305 73.9819 195.8989 75.8888 196 76 C197.7602 77.9363 201.7007 81.688 207 85 C208.793 86.1206 210.9166 85.052 212 86 C213.5214 87.3312 212.9813 89.9813 215 92 C219.7104 96.7104 220.6829 97.5358 227 101 C235.7236 105.7839 246 109 246 109 "/>
<path id="4" d="M243 98 C243 98 239.3219 97.7041 239 97 C234.507 87.1715 233.4882 76.318 227 63 C225.6305 60.189 222.3827 60.6475 220 58 C218.5661 56.4068 219.083 53.9282 218 53 C216.9909 52.135 213.2613 51.8432 213 52 C212.8574 52.0855 212.4922 54.2588 213 56 C215.7984 65.5946 214.6859 68.6289 220 76 C228.5508 87.8608 235.5641 88.2928 244 99 C246.3301 101.9574 246 109 246 109 "/>
<path id="5" d="M251 97 C251 97 251.5697 93.0938 253 92 C258.1867 88.0337 263.3116 87.5163 268 84 C268.893 83.3302 268.2587 80.4562 269 80 C272.0969 78.0942 277.1213 78.7379 281 76 C283.7859 74.0335 283.0703 70.9297 286 68 C288.9297 65.0703 289.8427 64.7322 294 63 C301.4557 59.8935 309.5799 57.82 310 58 C310.0823 58.0353 310.1663 66.9239 308 69 C302.2135 74.5454 297.219 76.3037 286 81 C276.2389 85.086 274.8911 83.0956 265 87 C256.3007 90.4339 252.9793 92.1272 248 96 C246.9857 96.7889 247 101 247 101 "/>
<path id="6" d="M250 109 C250 109 259.2162 109.857 268 109 C279.4142 107.8864 282.4579 109.2711 291 105 C300.3963 100.3018 300.1946 94.0952 310 88 C317.2062 83.5205 328.0018 82.0025 328 82 C327.9955 81.9937 315.6082 79.5148 305 81 C291.9509 82.8269 290.9949 84.2458 278 89 C270.8089 91.6309 269.4656 91.5104 264 96 C256.4885 102.1701 250 112 250 112 "/>
<path id="7" d="M236 377 C236 377 237 370.0001 237 370 C237 370 237 374 237 374 C237 374 237 371 237 371 C237 371 237.0252 373.9972 237 374 C236.3354 374.0738 228.0825 371.9882 228 372 C227.9851 372.0021 229.684 375.0263 230 375 C231.8657 374.8445 239.6065 370.7853 240 371 C240.3249 371.1772 241.0001 380.9999 241 381 C241 381.0001 238.9399 373.1203 239 373 C239.0043 372.9914 243.9959 375 244 375 C244.0016 375 243.1119 373.7783 242 373 C238.2391 370.3674 237.721 369.0944 234 368 C230.4639 366.96 225.3235 367.9191 225 368 C224.982 368.0045 225.6455 369.9468 226 370 C231.2226 370.7834 238.2083 369.0983 245 371 C247.7054 371.7575 251.0066 376.9923 251 377 C250.9126 377.1019 239.1479 378.0493 239 378 C238.9789 377.993 242.0101 374.0083 242 374 C241.3286 373.4507 227.9999 369.0001 228 369 C228.0001 368.9999 243.6863 371.817 244 372 C244.0295 372.0172 239.9683 375.9445 240 376 C240.1401 376.2452 248 379 248 379 C248 379 241.6209 376.5174 241 376 C240.9564 375.9637 241.7362 374.0377 242 374 C243.2016 373.8283 247.9762 374.9881 248 375 C248.0055 375.0027 246.0038 376.0115 246 376 C245.9198 375.7594 246 369 246 369 C246 369 246.0453 371.9935 246 372 C244.5358 372.2092 233.9495 371.4177 232 371 C231.9412 370.9874 231.934 369.0189 232 369 C232.809 368.7689 238.6524 369.2317 239 369 C239.0828 368.9448 237.9981 365.0006 238 365 C238.0169 364.9944 242 368 242 368 "/>
</g>
</g>
</svg>
