<?xml version="1.0" encoding="utf-8"?>
<!DOCTYPE svg PUBLIC "-//W3C//DTD SVG 1.1//EN" "http://www.w3.org/Graphics/SVG/1.1/DTD/svg11.dtd">
<svg viewBox="0 0 800 800" preserveAspectRatio="xMinYMin meet" xmlns="http://www.w3.org/2000/svg" version="1.1">
<g fill="none" stroke="black" stroke-linecap="round" stroke-linejoin="round" stroke-width="0.46563">
<g transform="translate(87.52,174.499) scale(6.4429) translate(-192,-200)">
<path id="0" d="M253 204 C253 204 245.217 201.4656 240 203 C222.4651 208.1573 218.312 210.6543 202 219 C199.1499 220.4582 198.5975 221.805 197 225 C193.8989 231.2022 193.4155 232.2058 192 239 C191.059 243.5169 190.813 245.0433 192 249 C193.4007 253.669 194.3122 255.4878 198 259 C203.8258 264.5484 205.9131 267.0511 213 269 C223.0914 271.7751 226.5955 271.6292 238 270 C249.5356 268.3521 251.0337 267.2339 262 262 C272.3301 257.0697 273.9622 256.1447 282 249 C286.2736 245.2012 287.6257 243.1045 289 238 C290.5999 232.0575 289.8763 230.0105 289 223 C288.4523 218.6184 288.393 217.1408 286 214 C281.3554 207.904 279.1357 204.3216 273 202 C264.34 198.7233 249 200 249 200 "/>
<path id="1" d="M242 206 C242 206 237.8079 204.774 236 205 C235.3076 205.0865 234.078 206.2976 234 207 C233.758 209.1776 234.4594 213.7774 235 214 C237.2279 214.9174 246.0973 215.0321 251 214 C252.1773 213.7521 254.1389 210.4632 254 210 C253.6504 208.8346 250.2154 204.4431 248 204 C243.8154 203.1631 234 206 234 206 "/>
<path id="2" d="M243 209 C243 209 238.3125 208.6875 238 209 C237.6875 209.3125 237.2027 212.9635 238 214 C240.5023 217.2529 247.8117 221.9812 248 222 C248.0122 222.0012 248.9702 217.1021 248 215 C246.7846 212.3665 242.0098 209.0059 242 209 C241.9971 208.9983 242.2798 211.4598 243 212 C245.0499 213.5374 249.8732 215.0423 250 215 C250.0141 214.9953 249.675 210.5063 249 210 C247.8986 209.174 241.9987 209.0008 242 209 C242.0027 208.9984 253.9524 207.0238 254 207 C254.011 206.9945 250 205 250 205 "/>
</g>
</g>
</svg>
