<?xml version="1.0" encoding="utf-8"?>
<!DOCTYPE svg PUBLIC "-//W3C//DTD SVG 1.1//EN" "http://www.w3.org/Graphics/SVG/1.1/DTD/svg11.dtd">
<svg viewBox="0 0 800 800" preserveAspectRatio="xMinYMin meet" xmlns="http://www.w3.org/2000/svg" version="1.1">
<g fill="none" stroke="black" stroke-linecap="round" stroke-linejoin="round" stroke-width="1.4593">
<g transform="translate(169.7516,87.52) scale(2.0558) translate(-130,-64.4167)">
<path id="0" d="M173 156.4167 C173 156.4167 156.5415 170.3026 144 185.4167 C137.7846 192.9071 137.6509 194.2894 134 203.4167 C130.9133 211.1333 130.344 212.075 130 220.4167 C128.3968 259.2943 125.9906 263.6638 130 300.4167 C131.5691 314.8004 134.3528 317.4955 142 330.4167 C147.9899 340.5376 149.951 340.9514 159 349.4167 C165.0775 355.102 165.6895 356.0426 173 359.4167 C184.2679 364.6172 185.7934 366.3181 198 367.4167 C233.6373 370.624 240.0863 372.3272 273 368.4167 C285.1071 366.9782 288.0585 363.3047 299 355.4167 C308.2726 348.7318 309.1274 346.5801 316 337.4167 C318.9055 333.5427 318.8512 332.5146 320 327.4167 C326.7134 297.626 327.7912 296.5801 332 266.4167 C333.6789 254.3849 333.7086 253.3767 332 241.4167 C328.8269 219.2052 328.5565 217.7254 322 196.4167 C318.8529 186.1885 317.8446 185.5647 312 176.4167 C306.6168 167.9908 306.2573 167.3111 299 160.4167 C286.6729 148.706 285.8412 147.1427 272 138.4167 C264.0707 133.4178 262.2831 132.4742 253 131.4167 C224.7589 128.1993 214.9102 127.2256 193 129.4167 C189.0063 129.816 186.7262 133.4485 183 138.4167 C178.2576 144.7398 179.6138 146.6317 175 153.4167 C171.3614 158.7676 166 163.4167 166 163.4167 "/>
<path id="1" d="M225 129.4167 C225 129.4167 216.5082 94.4162 207 77.4167 C204.6424 73.2016 198.9501 71.7619 192 70.4167 C185.2829 69.1166 176.0527 71.4562 176 71.4167 C175.9905 71.4095 180.469 65.3321 184 64.4167 C190.8354 62.6445 194.7573 62.5145 203 64.4167 C212.5776 66.6269 214.7309 67.9039 223 73.4167 C228.5127 77.0918 228.7003 78.5995 233 84.4167 C237.0151 89.8488 237.4193 90.1687 240 96.4167 C246.7513 112.7618 252 130.4167 252 130.4167 "/>
<path id="2" d="M172 161.4167 C172 161.4167 159.6842 188.9321 157 215.4167 C152.4554 260.257 150.7369 266.4289 157 309.4167 C161.0114 336.9495 179 366.4167 179 366.4167 "/>
<path id="3" d="M217 131.4167 C217 131.4167 209.3968 139.086 205 147.4167 C200.3353 156.2551 198.767 157.7016 198 167.4167 C194.4862 211.9245 193.9644 215.6163 196 261.4167 C196.8964 281.5857 201.3054 281.9375 204 302.4167 C206.2596 319.5894 203.1329 321.4886 206 337.4167 C207.3184 344.7411 208.3605 346.6637 213 352.4167 C219.8578 360.9203 231 368.4167 231 368.4167 "/>
<path id="4" d="M256 134.4167 C256 134.4167 264.2817 148.0066 267 161.4167 C271.4462 183.3514 268.1239 185.1204 271 208.4167 C273.1038 225.4574 276.0173 225.4916 277 242.4167 C280.4669 302.1251 280 363.4167 280 363.4167 "/>
<path id="5" d="M294 153.4167 C294 153.4167 299.6645 184.6671 307 214.4167 C308.5119 220.5481 311.7801 220.7876 312 226.4167 C314.0915 279.9592 312 342.4167 312 342.4167 "/>
<path id="6" d="M254 130.4167 C254 130.4167 262.431 116.7075 270 113.4167 C280.1295 109.0125 300 110.4167 300 110.4167 "/>
<path id="7" d="M267 118.4167 C267 118.4167 271.4754 117.2765 274 118.4167 C284.9359 123.3555 286.7692 128.9986 298 132.4167 C306.7428 135.0775 310.879 134.5769 320 132.4167 C327.5172 130.6363 332.2461 126.7013 336 123.4167 C336.6879 122.8148 336.676 119.9376 336 118.4167 C335.2189 116.6591 334.226 115.6309 332 114.4167 C323.947 110.0241 322.6149 107.883 314 106.4167 C301.0966 104.2204 297.611 104.1747 285 106.4167 C277.4237 107.7636 269 114.4167 269 114.4167 "/>
<path id="8" d="M266 118.4167 C266 118.4167 272.78 104.1095 282 94.4167 C291.1397 84.8083 294.2403 81.8184 305 77.4167 C312.6902 74.2707 316.3992 75.077 326 76.4167 C336.5748 77.8922 339.2692 79.0513 348 83.4167 C351.2527 85.043 354.0465 90.3947 354 90.4167 C353.5507 90.6295 340.5857 89.8421 329 92.4167 C319.0838 94.6203 317.6756 95.7452 309 100.4167 C305.7055 102.1907 303 106.4167 303 106.4167 "/>
<path id="9" d="M289 105.4167 C289 105.4167 289.5911 101.4029 291 100.4167 C297.2247 96.0594 299.9863 93.6701 309 91.4167 C326.4709 87.0489 347 86.4167 347 86.4167 "/>
</g>
</g>
</svg>
