<?xml version="1.0" encoding="utf-8"?>
<!DOCTYPE svg PUBLIC "-//W3C//DTD SVG 1.1//EN" "http://www.w3.org/Graphics/SVG/1.1/DTD/svg11.dtd">
<svg viewBox="0 0 800 800" preserveAspectRatio="xMinYMin meet" xmlns="http://www.w3.org/2000/svg" version="1.1">
<g fill="none" stroke="black" stroke-linecap="round" stroke-linejoin="round" stroke-width="1.4449">
<g transform="translate(87.52,123.8549) scale(2.0763) translate(-157,-110)">
<path id="0" d="M255 168 C255 168 230.5857 165.0395 210 167 C201.4426 167.815 197.8898 168.9516 192 174 C182.99 181.7229 182.1284 184.9708 175 197 C166.4028 211.5078 166.5 212.4722 160 228 C157.6887 233.5214 157.1643 234.1667 157 240 C156.1981 268.4662 152.6188 273.1188 158 299 C162.1952 319.1769 167.2243 320.9349 178 341 C181.4393 347.4042 181.7832 348.3049 187 353 C196.0899 361.1809 197.336 361.2461 208 368 C212.0325 370.5539 212.477 371.0722 217 372 C231.1948 374.9117 232.0834 375.5265 247 376 C294.532 377.509 296.3684 380.288 343 376 C381.6029 372.4503 387.4951 370.5805 421 360 C429.6416 357.2711 430.4949 353.5051 438 346 C442.5999 341.4001 443.5878 340.6284 446 335 C449.1287 327.6998 447.1732 326.0094 450 318 C453.0436 309.3765 456.5919 309.0963 458 301 C460.2203 288.2334 459.0626 285.8132 458 272 C457.6251 267.1269 457.4806 266.1344 455 262 C444.6149 244.6916 443.9225 243.6147 431 227 C416.0976 207.8398 415.4824 207.6062 399 190 C393.773 184.4166 393.3477 184.0807 387 180 C379.7174 175.3183 379.0895 175.0684 371 172 C364.9915 169.7209 364.4358 169.4439 358 169 C336.0375 167.4853 333.7184 167.5856 313 168 C310.6785 168.0464 308 170 308 170 "/>
<path id="1" d="M256 167 C256 167 269.7331 169.4385 270 169 C271.0231 167.3192 268.8038 155.9619 270 144 C270.7369 136.6315 270.4825 134.1924 274 129 C279.4652 120.9323 291 113 291 113 "/>
<path id="2" d="M321 116 C321 116 309.3993 134.6021 304 152 C301.0816 161.4039 302.5626 171.5943 303 174 C303.0182 174.1002 308 174 308 174 "/>
<path id="3" d="M289 110 L318 113 "/>
<path id="4" d="M247 174 C247 174 245.3584 172.8371 245 173 C242.2805 174.2361 239.3946 175.3442 236 179 C227.0659 188.6214 225.2 189.3999 219 201 C210.3275 217.2259 210.6441 218.8795 205 237 C201.2862 248.9233 200.299 249.7413 200 262 C198.8342 309.797 198.5963 319.1556 202 360 C202.367 364.4034 205.2208 367.638 209 370 C214.7401 373.5876 226 375 226 375 "/>
<path id="5" d="M301 173 C301 173 294.1791 177.4365 291 183 C281.029 200.4492 279.5733 202.2801 273 222 C266.9136 240.2591 266.4619 241.7864 265 261 C263.0467 286.6726 263.4675 289.3989 266 314 C266.7448 321.2352 269.937 321.4355 272 329 C274.3336 337.5566 271.8365 339.4867 275 347 C279.1834 356.9357 282.4021 360.085 288 367 C288.7772 367.9601 292 368 292 368 "/>
<path id="6" d="M356 178 C356 178 347.9277 188.4444 344 199 C340.3772 208.7362 340.6413 210.0987 340 221 C338.6734 243.5525 338.7078 244.3857 340 267 C340.6806 278.9111 341.5287 279.1377 344 291 C346.5128 303.0613 346.0273 303.6494 350 315 C352.8616 323.1759 353.312 323.5773 358 331 C365.1492 342.3196 365.3146 344.5948 374 353 C379.2969 358.126 389 361 389 361 "/>
<path id="7" d="M412 212 C412 212 409.2181 214.2554 409 216 C408.0031 223.9754 407.8606 226.3154 409 236 C410.8062 251.3529 410.1179 252.549 415 267 C422.3052 288.6233 423.2781 290.2856 434 310 C438.1265 317.5874 446 324 446 324 "/>
<path id="8" d="M215 245 C215 245 238 245 238 245 C238 245 229.8753 245.358 222 245 C219.0244 244.8647 216.8813 244.4406 216 244 C215.8644 243.9322 215.6255 242.5762 216 242 C220.9531 234.3798 221.9844 232.2357 229 224 C233.2272 219.0376 238.9755 214.9532 239 215 C239.1989 215.3798 240.2321 241.519 240 245 C239.9984 245.0233 237 245 237 245 "/>
<path id="9" d="M305 241 L327 241 "/>
<path id="10" d="M304 241 C304 241 302.5995 232.8353 304 227 C305.2444 221.815 308.447 221.1765 310 216 C311.0919 212.3603 309.9765 206.9873 310 207 C310.105 207.0565 318.0785 214.6334 323 223 C327.6032 230.8255 330.1369 240.787 330 241 C329.9363 241.0992 321.3016 239.7381 314 237 C309.8798 235.4549 306.1819 233.0913 306 232 C305.6506 229.9036 311 219 311 219 C311 219 307.9655 224.1724 307 229 C306.106 233.47 306.7195 238.626 307 239 C307.0701 239.0935 312.8987 237.5569 313 237 C313.6433 233.462 311.5928 219.9642 311 217 C310.9884 216.9419 309.0118 216.9471 309 217 C308.7618 218.0721 307.981 222.3315 309 226 C310.1763 230.2346 311.1811 231.6173 314 235 C315.5344 236.8412 318.8812 238.0849 319 238 C319.3208 237.7708 321.4703 232.9787 321 230 C320.2784 225.4299 315.9997 218.9997 316 219 C316.0006 219.0006 330 239 330 239 C330 239 328.5219 234.3643 326 232 C321.3442 227.6352 314.1272 223.9422 314 224 C313.9254 224.0339 315 237 315 237 C315 237 312.9998 213 313 213 C313.0008 213 320.9854 236.9741 321 237 C321.0038 237.0068 321.9873 228.9937 322 229 C322.0548 229.0274 329 241 329 241 "/>
<path id="11" d="M221 241 C221 241 229.9457 233.678 234 229 C234.5228 228.3968 234.0223 226.0074 234 226 C233.9479 225.9826 232.2095 226.7905 231 228 C226.8875 232.1125 223 237 223 237 C223 237 232.9957 224.9961 233 225 C233.0984 225.0894 234.0735 246.853 234 247 C233.9863 247.0274 225.9958 239.0049 226 239 C226.0406 238.9527 240 240 240 240 C240 240 222.0023 240.0046 222 240 C221.9996 239.9992 234.96 236.584 237 234 C238.4864 232.1173 237 221 237 221 C237 221 236 242 236 242 C236 242 236.583 230.9152 236 228 C235.9334 227.6668 233.2082 226.8265 233 227 C232.2311 227.6407 230 233 230 233 "/>
<path id="12" d="M264 278 C264 278 290 275 290 275 C290 275 264.8004 276.1642 264 275 C262.6903 273.0949 267.9845 242.9994 268 243 C268.1241 243.0052 288.0106 275.7136 288 276 C287.9983 276.0464 269.546 272.7885 267 270 C265.2806 268.1169 266.9353 253.1553 267 253 C267.0111 252.9734 270.6151 255.4281 272 258 C273.6341 261.0348 274.1709 265.5441 274 266 C273.9558 266.1179 269 266 269 266 C269 266 270.9322 266.1356 271 266 C271.4406 265.1187 271.7517 262.9797 272 260 C272.2449 257.0611 272.6557 255.9671 272 254 C271.5629 252.6886 269.0011 250.9833 269 251 C268.9929 251.1068 269.6364 265.7614 271 269 C271.2552 269.6061 276.616 270.192 277 270 C277.1396 269.9302 277 266 277 266 C277.015 266 280 270 280 270 C280 269.9999 276.0011 262.9996 276 263 C275.9989 263.0004 275.8261 268.8478 277 271 C277.7868 272.4424 282 274 282 274 "/>
<path id="13" d="M224 305 C224 305 233.3034 310.6273 243 314 C255.897 318.4859 256.7214 319.6529 270 321 C290.1262 323.0418 291.9028 322.4355 312 321 C318.8358 320.5117 320.6299 320.4424 326 317 C338.4692 309.0069 340.7949 306.8634 351 296 C355.0459 291.6931 357 284 357 284 "/>
<path id="14" d="M225 306 C225 306 216.4044 297.2427 216 297 C215.9775 296.9865 214.6684 299.4315 215 300 C219.0824 306.9984 221.6072 312.345 230 321 C236.7256 327.9358 238.5829 330.0723 247 333 C259.0812 337.2022 261.572 336.2601 276 337 C300.2071 338.2414 305.0104 338.7848 325 337 C328.0378 336.7288 328.5593 333.4746 332 332 C334.7956 330.8019 336.698 332.4649 339 331 C346.0156 326.5355 349.9226 325.0977 354 318 C361.7133 304.5731 362.4556 300.1109 366 284 C367.5265 277.0614 365.167 268.0974 365 268 C364.9071 267.9458 357.5304 272.1457 354 277 C350.5451 281.7505 349 289.3323 349 290 C349 290 353.1622 290.6283 354 290 C355.2567 289.0575 357 284 357 284 "/>
<path id="15" d="M240 328 C240 328 253.3793 326.9436 265 328 C268.8454 328.3496 269.201 330.85 273 331 C304.8201 332.2561 341 331 341 331 "/>
<path id="16" d="M221 307 C221 307 244 323 244 323 C244 323 236.1788 317.0447 236 317 C235.9812 316.9953 235.4486 320.0351 236 321 C236.7286 322.2751 238.1803 323.3176 240 324 C241.4203 324.5326 243.8462 324.2308 244 324 C244.3462 323.4808 244.7887 319.1267 244 318 C242.8301 316.3287 240.2346 315.2938 237 314 C235.8717 313.5487 234.1875 313.8125 234 314 C233.8125 314.1875 233.6169 316.5211 234 317 C234.6641 317.8301 236.0547 318.7568 238 319 C254.6498 321.0812 273.9999 321.9999 274 322 C274.0001 322.0001 241.9999 323 242 323 C242.0001 323 286 326 286 326 C286 326 255 326 255 326 C255 326 300 328 300 328 C300 328 294.9989 328.0008 295 328 C295.0024 327.9982 299.5605 325.5549 304 325 C314.9508 323.6312 326.9983 323.9997 327 324 C327.0008 324.0001 316.0012 327.0003 316 327 C315.9993 326.9998 319.4443 324.0822 323 323 C330.3183 320.7727 338.9981 319.9962 339 320 C339.0009 320.0019 326 329 326 329 C326 329 337.9996 322.0001 338 322 C338.0003 321.9999 331 327.9998 331 328 C331 328.0002 336.005 326.3577 338 324 C340.4898 321.0575 341.9543 315.4113 342 315 C342.0016 314.9855 339.6554 314.5318 339 315 C337.3458 316.1816 335.0298 319.9777 335 320 C334.9942 320.0043 334.6226 318.5107 335 318 C341.3346 309.4297 352.0014 296.9998 352 297 C351.9977 297.0004 323.0001 319.9998 323 320 C322.9999 320.0001 348.9913 304.0017 349 304 C349.0041 303.9992 343.9504 311.3201 338 317 C333.2628 321.5219 326.9989 324.9996 327 325 C327.0019 325.0008 343 319 343 319 "/>
<path id="17" d="M335 323 C335 323 351 309 351 309 C351 309 332.6582 323.8945 331 325 C330.982 325.012 329.9195 323.0751 330 323 C332.5254 320.643 345.9888 310.9958 346 311 C346.0023 311.0009 337.9984 325.987 338 326 C338.0007 326.0055 343.6436 322.3564 347 319 C347.8391 318.1609 348.0107 316.0214 348 316 C348 316 346.8153 316.3329 346 317 C341.5028 320.6795 337 325.0001 337 325 C337.0001 324.9999 345.1193 317.4376 351 309 C356.3134 301.3764 360 291.9999 360 292 C360 292.0001 351 315 351 315 C351 315 362 288 362 288 C362 288 353.0203 310.9777 353 311 C352.9928 311.0079 351.5329 304.6058 352 299 C352.4802 293.2374 355.0002 286.9999 355 287 C354.9998 287.0001 348.9995 301.0003 349 301 C349.0008 300.9994 361.9807 282.0123 362 282 C362.0074 281.9953 360.0004 294.0006 360 294 C359.9994 293.999 359.0477 277.0796 359 277 C358.9891 276.9819 354.3532 283.7982 354 284 C353.9888 284.0064 352 281 352 281 C351.1394 281.5738 341.9995 292.0001 342 292 C342.0007 291.9999 357.851 280.0106 358 280 C358.0246 279.9982 356 291 356 291 "/>
</g>
</g>
</svg>
