<?xml version="1.0" encoding="utf-8"?>
<!DOCTYPE svg PUBLIC "-//W3C//DTD SVG 1.1//EN" "http://www.w3.org/Graphics/SVG/1.1/DTD/svg11.dtd">
<svg viewBox="0 0 800 800" preserveAspectRatio="xMinYMin meet" xmlns="http://www.w3.org/2000/svg" version="1.1">
<g fill="none" stroke="black" stroke-linecap="round" stroke-linejoin="round" stroke-width="3.0098">
<g transform="translate(87.52,219.0905) scale(0.99675) translate(-12,-49)">
<path id="0" d="M244 128 C244 128 255.1961 131.7917 265 137 C270.7992 140.0808 270.9858 143.6629 276 145 C283.254 146.9344 287.3427 147.3823 295 145 C307.2337 141.194 321 131 321 131 "/>
<path id="1" d="M261 135 C261 135 250.1665 126.3028 239 123 C216.4208 116.3216 214.2948 115.853 190 114 C156.2616 111.4267 154.7902 112.7932 121 114 C113.6018 114.2642 113.4563 115.3431 106 117 C99.9715 118.3397 99.5388 117.7499 94 120 C83.9175 124.096 83.2866 124.1959 74 130 C63.6079 136.4951 63.199 136.8832 54 145 C46.4617 151.6514 45.5405 151.8739 40 160 C30.9915 173.2125 30.2825 174.1732 24 189 C18.0627 203.0121 18.6121 203.9496 15 219 C12.6728 228.6966 12.307 229.0739 12 239 C10.8235 277.0388 8.8255 280.0223 12 316 C13.0634 328.0521 14.9312 329.8738 21 341 C29.4115 356.4211 30.1138 358.1629 42 371 C54.2245 384.2025 56.0828 385.2582 71 395 C79.4229 400.5006 80.8264 400.2105 91 403 C111.3842 408.5892 112.3237 410.3292 133 412 C160.5439 414.2258 162.437 412.6214 190 411 C195.3989 410.6824 196.0337 410.3246 201 408 C218.9739 399.5867 219.1295 396.7088 237 389 C243.5885 386.1579 244.5732 386.8252 252 386 C257.8123 385.3542 259.3135 384.3077 264 386 C275.2063 390.0467 275.7555 393.558 288 399 C297.9144 403.4064 298.3938 403.6227 309 406 C327.02 410.039 327.6931 411.533 346 412 C424.3336 413.9983 428.55 414.6794 505 411 C518.6439 410.3433 519.9487 408.5423 533 403 C555.7658 393.3323 557.4418 393.2361 578 380 C592.936 370.3837 593.8721 368.7498 606 356 C612.578 349.0846 612.6638 347.861 617 339 C623.9495 324.7988 624.4097 324.2316 629 309 C635.2832 288.1512 636.6418 287.224 639 266 C641.5127 243.386 642.2395 239.9097 639 219 C637.2283 207.5645 634.6506 206.1325 628 195 C611.9216 168.0861 611.247 167.8499 593 142 C581.3418 125.4842 581.7382 123.7382 568 110 C556.672 98.672 554.7615 95.0459 541 90 C513.8377 80.0405 509.1606 80.9329 478 77 C458.7177 74.5663 456.7437 74.1884 438 77 C418.4128 79.9381 417.164 81.6726 398 89 C383.6649 94.4811 382.8283 94.9126 370 103 C360.4356 109.0297 361.5033 111.6645 352 118 C340.9129 125.3914 340.0697 127.3012 328 131 C310.8171 136.2657 290 137 290 137 "/>
<path id="2" d="M273 96 C273 96 277.6635 102.302 280 109 C284.9616 123.2233 288 139 288 139 "/>
<path id="3" d="M294 94 C294 94 293.6927 99.365 295 104 C299.0458 118.3443 301.8029 118.9328 305 133 C306.5335 139.7474 305 148 305 148 "/>
<path id="4" d="M270 92 L287 155 "/>
<path id="5" d="M268 98 C268 98 268.8036 91.6513 267 87 C259.8762 68.6282 248.9794 49.0221 249 49 C249.0067 48.9928 266.1094 62.8365 281 72 C283.457 73.512 287.6255 72.1628 288 73 C291.7596 81.4039 298 110 298 110 "/>
<path id="6" d="M154 173 C154 173 154.0113 170.9977 154 171 C153.8413 171.0317 150.994 172.1306 149 174 C143.3211 179.324 142.3287 179.5069 138 186 C130.6859 196.9711 130.5397 197.7163 125 210 C119.1547 222.9613 118.6464 223.3868 115 237 C111.2724 250.9163 111.1109 251.5584 110 266 C108.1446 290.1198 103.2854 297.0679 109 315 C115.0526 333.9927 139 357 139 357 "/>
<path id="7" d="M205 189 C205 189 197.6182 190.5209 194 194 C186.1649 201.5338 183.986 203.4938 179 214 C170.6952 231.4994 168.8229 233.8046 166 253 C161.6328 282.697 162.2182 287.1354 164 316 C164.5223 324.4616 166.2568 327.4499 171 334 C175.3462 340.0018 185 345 185 345 "/>
<path id="8" d="M391 159 C391 159 390.1861 162.4168 391 165 C401.0715 196.9661 406.4274 198.5762 414 232 C420.5395 260.8638 418.2788 262.706 420 293 C420.756 306.3062 420.3294 306.7063 419 320 C417.8521 331.4787 418.1079 332.1224 415 343 C412.2599 352.5903 412.0421 353.5965 407 362 C401.9579 370.4035 401.3071 371.9455 394 378 C384.88 385.5566 372 391 372 391 "/>
<path id="9" d="M438 167 C438 167 458.0181 182.078 474 199 C482.7578 208.2729 484.1464 209.5131 489 221 C498.478 243.4314 498.3527 245.4344 504 270 C508.2153 288.3367 507.6487 289.0815 509 308 C510.1274 323.783 509 340 509 340 "/>
<path id="10" d="M516 133 C516 133 535.0439 147.5548 549 165 C572.2761 194.0952 573.8876 195.8348 592 228 C602.0614 245.8676 601.0487 247.9536 607 268 C610.372 279.3584 610.0832 280.0815 611 292 C612.0561 305.7289 611 320 611 320 "/>
</g>
</g>
</svg>
