<?xml version="1.0" encoding="utf-8"?>
<!DOCTYPE svg PUBLIC "-//W3C//DTD SVG 1.1//EN" "http://www.w3.org/Graphics/SVG/1.1/DTD/svg11.dtd">
<svg viewBox="0 0 800 800" preserveAspectRatio="xMinYMin meet" xmlns="http://www.w3.org/2000/svg" version="1.1">
<g fill="none" stroke="black" stroke-linecap="round" stroke-linejoin="round" stroke-width="1.4401">
<g transform="translate(87.52,154.1824) scale(2.0832) translate(-181,-154.1333)">
<path id="0" d="M283 246.1333 C283 246.1333 274.0303 238.8961 266 237.1333 C255.8434 234.9038 253.4533 235.8016 242 237.1333 C232.6554 238.2199 230.1 237.836 223 242.1333 C213.3637 247.9658 212.4035 250.494 204 260.1333 C195.715 269.6367 195.1103 270.3015 189 281.1333 C184.4479 289.203 183.7687 290.2896 182 299.1333 C179.976 309.2534 179.0024 312.2551 181 321.1333 C182.8577 329.3898 184.9444 331.3746 191 339.1333 C200.4269 351.2115 201.4842 351.5512 213 362.1333 C219.7031 368.293 220.046 369.4934 228 373.1333 C248.3763 382.4581 250.4458 383.1264 272 389.1333 C279.6854 391.2752 280.5079 389.9564 289 390.1333 C304.4666 390.4556 304.8914 391.7521 320 390.1333 C346.3008 387.3154 347.9027 388.304 373 381.1333 C399.1941 373.6493 403.6432 374.0617 425 360.1333 C446.272 346.2603 448.0535 341.5319 465 321.1333 C473.8288 310.5061 474.363 307.8851 479 295.1333 C481.7931 287.4524 482.6071 284.0976 481 277.1333 C478.843 267.7865 476.6968 264.7435 470 256.1333 C463.6053 247.9116 461.7587 246.7841 453 241.1333 C447.3444 237.4846 445.8427 236.9384 439 236.1333 C421.5897 234.0851 419.3708 232.9917 402 235.1333 C384.4614 237.2956 383.6597 243.2938 366 245.1333 C337.3949 248.113 335.7748 245.9067 306 245.1333 C297.538 244.9135 296.9467 245.0515 289 243.1333 C282.9969 241.6843 277 238.1333 277 238.1333 "/>
<path id="1" d="M243 276.1333 C243 276.1333 238.7604 288.8108 237 301.1333 C235.8426 309.2349 235.2915 311.5434 237 318.1333 C238.1874 322.7133 244 328.1333 244 328.1333 "/>
<path id="2" d="M286 289.1333 C286 289.1333 281.0602 304.8293 279 320.1333 C277.6456 330.1947 276.6236 334.004 279 341.1333 C280.7729 346.452 284.0128 348.0673 290 353.1333 C296.6403 358.7521 305 363.1333 305 363.1333 "/>
<path id="3" d="M358 282.1333 C358 282.1333 360.9448 284.4601 362 287.1333 C367.9895 302.3067 369.9065 303.8923 373 320.1333 C375.6612 334.1046 374 350.1333 374 350.1333 "/>
<path id="4" d="M426 266.1333 C426 266.1333 436.3023 284.1042 441 301.1333 C443.7938 311.2608 443.8381 314.2537 442 324.1333 C440.2537 333.5195 438.3546 336.5241 433 344.1333 C430.1457 348.1894 423 351.1333 423 351.1333 "/>
<path id="5" d="M330 241.1333 C330 241.1333 327.3125 240.7584 327 240.1333 C325.1248 236.3829 323.5823 233.5382 323 227.1333 C320.6828 201.6445 320.605 199.4113 321 174.1333 C321.0824 168.8615 321.8063 168.0083 324 163.1333 C326.0783 158.5149 327.734 156.3994 330 154.1333 C330.4532 153.6801 332.5142 153.6475 333 154.1333 C336.7248 157.8581 340.9665 161.0329 343 167.1333 C345.5315 174.7278 345.5194 178.0167 344 187.1333 C341.2676 203.5279 337.8849 204.0996 334 221.1333 C331.4639 232.253 331 244.1333 331 244.1333 "/>
<path id="6" d="M329 241.1333 C329 241.1333 328.8022 235.5908 327 233.1333 C324.411 229.6029 322.6641 227.9707 318 226.1333 C307.5418 222.0134 305.7909 222.2141 294 220.1333 C289.2947 219.303 284.3153 219.6429 284 220.1333 C283.3449 221.1524 283.2513 228.8874 285 234.1333 C286.098 237.4273 287.6475 238.5697 291 241.1333 C295.6032 244.6534 296.83 246.4505 302 247.1333 C320.4713 249.5729 326.6542 248.5188 344 248.1333 C345.258 248.1054 347 246.1333 347 246.1333 "/>
<path id="7" d="M328 240.1333 C328 240.1333 311.7696 235.9636 299 229.1333 C291.5255 225.1353 285 217.1333 285 217.1333 "/>
<path id="8" d="M337 244.1333 C337 244.1333 336.1706 238.2803 337 234.1333 C337.4645 231.811 338.1159 231.0174 340 229.1333 C344.7103 224.423 345.0921 223.6499 351 220.1333 C365.6365 211.4211 367.5014 209.4056 382 204.1333 C387.1193 202.2718 390.5128 203.0775 395 204.1333 C396.7055 204.5346 398.4579 206.2901 399 208.1333 C400.3922 212.867 401.2224 216.4474 400 221.1333 C398.8652 225.4834 397.1369 227.3412 393 231.1333 C385.8351 237.7011 384.6791 238.1739 376 243.1333 C371.1667 245.8952 370.3391 246.2435 365 247.1333 C359.0507 248.1249 357.106 248.0344 352 247.1333 C350.221 246.8194 348 244.1333 348 244.1333 "/>
<path id="9" d="M345 241.1333 C345 241.1333 342.8733 238.3324 343 238.1333 C344.0069 236.5511 347.1375 232.8887 352 230.1333 C361.3776 224.8193 362.3572 224.6809 373 221.1333 C383.0515 217.7828 386.0715 219.3047 394 216.1333 C396.0683 215.306 398 211.1333 398 211.1333 "/>
<path id="10" d="M368 227.1333 C368 227.1333 379.5169 227.5382 389 226.1333 C391.8898 225.7052 395 223.1333 395 223.1333 "/>
<path id="11" d="M372 223.1333 C372 223.1333 370.0058 223.1709 370 223.1333 C369.7558 221.5459 368.3107 212.8622 370 210.1333 C372.0853 206.7647 383 202.1333 383 202.1333 "/>
<path id="12" d="M289 232.1333 C289 232.1333 303.0386 230.7743 307 228.1333 C308.8529 226.898 310 218.1333 310 218.1333 "/>
<path id="13" d="M299 239.1333 C299 239.1333 317.0291 234.2017 321 231.1333 C321.9799 230.3761 321 222.1333 321 222.1333 "/>
<path id="14" d="M357 217.1333 C357 217.1333 353.6858 234.6314 355 236.1333 C356.9141 238.3209 378 241.1333 378 241.1333 "/>
<path id="15" d="M327 292.1333 C327 292.1333 324.4493 297.7422 324 303.1333 C323.0016 315.1136 321.2635 317.3699 324 328.1333 C328.139 344.4134 339 362.1333 339 362.1333 "/>
<path id="16" d="M216 277.1333 C216 277.1333 212.5329 282.3372 212 287.1333 C210.6734 299.0728 209.3033 302.3464 212 313.1333 C214.593 323.5054 217.2982 324.6864 224 335.1333 C234.1805 351.0029 246 366.1333 246 366.1333 "/>
</g>
</g>
</svg>
