<?xml version="1.0" encoding="utf-8"?>
<!DOCTYPE svg PUBLIC "-//W3C//DTD SVG 1.1//EN" "http://www.w3.org/Graphics/SVG/1.1/DTD/svg11.dtd">
<svg viewBox="0 0 800 800" preserveAspectRatio="xMinYMin meet" xmlns="http://www.w3.org/2000/svg" version="1.1">
<g fill="none" stroke="black" stroke-linecap="round" stroke-linejoin="round" stroke-width="1.2001">
<g transform="translate(95.0195,87.52) scale(2.4998) translate(-59,-89)">
<path id="0" d="M97 138 C97 138 89.6597 138.4584 85 141 C79.9054 143.7789 78.5324 144.9317 75 150 C67.6871 160.4924 65.9642 162.1075 62 174 C58.5022 184.4934 59.3981 186.0561 59 198 C57.9097 230.7093 56.5887 232.3084 59 264 C59.9694 276.7403 60.9972 278.2435 66 290 C70.5804 300.7638 71.1685 302.9727 79 311 C89.7748 322.0441 92.8313 324.4157 106 331 C113.2962 334.6481 125 334 125 334 "/>
<path id="1" d="M96 139 L112 139 "/>
<path id="2" d="M146 136 C146 136 143.182 133.1455 141 133 C130.5377 132.3025 119.4695 130.7974 116 134 C109.8022 139.721 104.0469 152.1862 102 169 C97.5386 205.6471 100.2816 209.4757 102 249 C102.7565 266.3993 105.5729 266.5896 107 284 C108.0479 296.7838 105.9499 297.7486 107 310 C107.3739 314.362 110 319 110 319 "/>
<path id="3" d="M149 137 C149 137 149.8056 134.0238 151 133 C152.4773 131.7337 153.6302 131.1354 156 131 C169.9009 130.2057 172.408 129.6059 186 131 C190.2635 131.4373 195 135 195 135 "/>
<path id="4" d="M196 135 C196 135 209.4071 134.2621 219 135 C220.3154 135.1012 221.6896 136.1722 222 137 C222.596 138.5893 222 143 222 143 "/>
<path id="5" d="M220 143 C220 143 228.5025 137.2496 236 136 C244.6621 134.5563 247.0299 135.3982 256 137 C259.8738 137.6918 262.04 138.2813 264 141 C275.1531 156.4704 278.4897 159.9243 287 180 C297.4363 204.619 298.9302 207.0552 303 233 C306.5925 255.9022 306.8511 259.6154 303 282 C299.3255 303.3579 295.5456 306.5781 287 326 C285.5534 329.2877 284.3032 329.9551 281 332 C274.4259 336.0697 273.1646 337.3282 266 339 C259.5389 340.5076 256.5126 340.9009 251 339 C244.5877 336.7889 240.5384 329.4246 237 329 C234.6348 328.7162 231.0986 334.7253 226 336 C219.2018 337.6995 213.3964 336.4885 209 336 C208.6839 335.9649 208.0584 334 208 334 C207.8831 334 206.7631 335.9618 206 336 C192.192 336.6904 181.7688 337.0075 168 336 C166.8335 335.9146 166.3034 333.391 165 333 C162.6606 332.2982 160.1727 332.0947 158 333 C155.8014 333.9161 155.0675 337.6554 153 338 C144.1392 339.4768 128 338 128 338 "/>
<path id="6" d="M149 137 C149 137 152.4999 160.2786 150 180 C148.2934 193.4629 142.0922 194.4005 140 208 C137.3793 225.0347 136.4364 229.3201 140 245 C143.1214 258.7344 149.9179 260.0241 155 274 C157.2662 280.232 156 289 156 289 "/>
<path id="7" d="M199 141 C199 141 202.9127 145.7817 205 151 C210.7233 165.3083 211.9982 165.9909 215 181 C218.8273 200.1366 218.001 201.0191 219 221 C220.4924 250.8471 220 281 220 281 "/>
<path id="8" d="M227 144 C227 144 237.5792 160.4765 244 178 C261.2948 225.2004 262.3826 228.1935 275 275 C277.1557 282.9968 276.9874 285.4481 275 293 C272.5013 302.4951 265 313 265 313 "/>
<path id="9" d="M159 132 C159 132 164.177 127.1148 165 123 C166.6943 114.5283 166.9148 106.1488 165 102 C164.0391 99.918 152.9937 97.025 153 97 C153.0336 96.8655 168 90 168 90 "/>
<path id="10" d="M170 89 C170 89 179.0049 89.2039 180 90 C180.516 90.4128 178.9953 94.4165 180 97 C181.9695 102.0645 185.9388 102.8266 187 108 C189.4069 119.7336 188 136 188 136 "/>
</g>
</g>
</svg>
