<?xml version="1.0" encoding="utf-8"?>
<!DOCTYPE svg PUBLIC "-//W3C//DTD SVG 1.1//EN" "http://www.w3.org/Graphics/SVG/1.1/DTD/svg11.dtd">
<svg viewBox="0 0 800 800" preserveAspectRatio="xMinYMin meet" xmlns="http://www.w3.org/2000/svg" version="1.1">
<g fill="none" stroke="black" stroke-linecap="round" stroke-linejoin="round" stroke-width="0.97446">
<g transform="translate(87.52,126.0028) scale(3.0786) translate(-234,-94.1333)">
<path id="0" d="M234 199.1333 C234 199.1333 249.3108 206.179 257 214.1333 C261.2955 218.577 259.1777 222.3881 263 229.1333 C267.4109 236.9172 269.8943 236.9484 274 244.1333 C275.2675 246.3515 273.8391 248.309 275 250.1333 C276.5426 252.5574 279.2676 252.5347 281 255.1333 C282.6041 257.5394 283 262.1333 283 262.1333 "/>
<path id="1" d="M234 196.1333 C234 196.1333 247.1474 188.2228 260 184.1333 C268.0329 181.5774 270.5992 185.0937 278 182.1333 C291.1483 176.874 292.4768 168.0342 305 166.1333 C341.2361 160.6332 349.4448 164.2795 390 165.1333 C394.8025 165.2344 395.1478 166.3003 400 168.1333 C417.5588 174.7667 420.7722 175.5962 435 182.1333 C436.1601 182.6664 436.9127 183.8246 437 185.1333 C437.7519 196.4111 439.8202 201.5575 437 212.1333 C434.7856 220.4373 430.2019 224.3195 425 230.1333 C424.0092 231.2407 421.3086 229.9386 420 231.1333 C411.9755 238.4601 409.9664 244.4416 402 251.1333 C400.2053 252.6409 395 252.1333 395 252.1333 "/>
<path id="2" d="M287 263.1333 C287 263.1333 302.1655 258.6538 317 258.1333 C358.2779 256.685 362.5473 259.9784 401 259.1333 C404.2354 259.0622 406.6599 257.282 408 256.1333 C408.36 255.8247 408 253.1333 408 253.1333 "/>
<path id="3" d="M332 161.1333 C332 161.1333 338.7038 147.4539 340 143.1333 C340.089 142.8368 338.0426 141.9 338 141.1333 C337.314 128.786 338 107.1334 338 107.1333 C338 107.1333 333.6475 121.0371 336 130.1333 C340.1223 146.0727 353 165.1333 353 165.1333 "/>
<path id="4" d="M390 165.1333 C390 165.1333 393.9876 162.0017 395 159.1333 C396.4802 154.9394 394.5919 151.6536 396 148.1333 C396.7411 146.2805 400.2589 145.9861 401 144.1333 C402.4081 140.613 400.5447 136.2519 402 133.1333 C402.863 131.2839 407.961 129.1008 408 129.1333 C408.1097 129.2248 408.9305 134.101 408 138.1333 C406.0991 146.3704 403.7079 146.8786 402 155.1333 C400.8765 160.5637 402 167.1333 402 167.1333 "/>
<path id="5" d="M292 174.1333 C292 174.1333 275.0001 139.1335 275 139.1333 C275 139.1333 276.8947 147.2332 280 153.1333 C281.4249 155.8407 283.7484 155.491 285 158.1333 C287.6999 163.8331 287.561 165.298 289 172.1333 C289.4848 174.436 289 177.1333 289 177.1333 C288.9924 177.1333 286.511 174.6033 286 172.1333 C283.7615 161.314 285.8106 158.7513 283 148.1333 C281.6864 143.1707 277 138.1333 277 138.1333 "/>
<path id="6" d="M297 206.1333 C297 206.1333 298.2547 211.5866 298 214.1333 C297.9291 214.8426 296 216.1333 296 216.1333 C295.753 215.8864 292.7498 209.6338 293 209.1333 C293.3185 208.4964 301 206.1333 301 206.1333 "/>
<path id="7" d="M347 197.1333 C347 197.1333 346.7158 211.1387 347 212.1333 C347.0027 212.1428 350.3539 211.8871 351 211.1333 C352.1254 209.8203 353.0537 205.4556 353 205.1333 C352.9953 205.1049 350.4389 205.5722 350 205.1333 C348.098 203.2314 345 197.1333 345 197.1333 "/>
<path id="8" d="M409 205.1333 C409 205.1333 403.8856 200.5761 399 198.1333 C396.6477 196.9572 393.2367 196.8178 393 197.1333 C391.9688 198.5083 389.7019 209.3583 390 210.1333 C390.0774 210.3346 396.3021 211.1782 398 210.1333 C400.1061 208.8373 403 202.1333 403 202.1333 "/>
<path id="9" d="M284 264.1333 C284 264.1333 286.4332 267.2405 289 268.1333 C296.7878 270.8421 306.5282 272.385 307 272.1333 C307.1011 272.0794 304 260.1333 304 260.1333 "/>
<path id="10" d="M404 259.1333 C404 259.1333 400.2419 263.8196 396 266.1333 C389.9961 269.4082 383.2967 271.5147 382 271.1333 C381.3851 270.9525 379 261.1333 379 261.1333 "/>
<path id="11" d="M334 95.1333 C334 95.1333 332.5341 107.8287 333 109.1333 C333.0732 109.3382 338.7266 109.5776 339 109.1333 C340.0538 107.4209 341.5295 98.1191 341 96.1333 C340.8471 95.5599 335 94.1333 335 94.1333 "/>
<path id="12" d="M271 125.1333 C271 125.1333 269.3313 135.6255 270 138.1333 C270.1751 138.7898 272.8895 140.1333 275 140.1333 C279.221 140.1333 284.7814 138.4248 285 138.1333 C285.069 138.0413 283.2818 133.7632 281 132.1333 C277.4593 129.6043 271.1266 128.2124 271 128.1333 C270.9861 128.1246 273 127.1333 273 127.1333 "/>
<path id="13" d="M412 119.1333 C412 119.1333 405.3298 118.7093 405 119.1333 C404.4548 119.8343 404.9861 128.1318 405 128.1333 C405.1128 128.1459 414 120.1333 414 120.1333 "/>
<path id="14" d="M346 221.1333 L349 240.1333 "/>
<path id="15" d="M393 222.1333 L379 241.1333 "/>
<path id="16" d="M297 228.1333 C297 228.1333 308.1228 230.8351 315 235.1333 C318.381 237.2464 321 243.1333 321 243.1333 "/>
</g>
</g>
</svg>
