<?xml version="1.0" encoding="utf-8"?>
<!DOCTYPE svg PUBLIC "-//W3C//DTD SVG 1.1//EN" "http://www.w3.org/Graphics/SVG/1.1/DTD/svg11.dtd">
<svg viewBox="0 0 800 800" preserveAspectRatio="xMinYMin meet" xmlns="http://www.w3.org/2000/svg" version="1.1">
<g fill="none" stroke="black" stroke-linecap="round" stroke-linejoin="round" stroke-width="1.2481">
<g transform="translate(87.52,205.3009) scale(2.4037) translate(-202,-166.1333)">
<path id="0" d="M428 325.1333 C428 325.1333 406.4653 327.8161 385 328.1333 C305.2113 329.3125 303.555 329.8694 225 328.1333 C214.6463 327.9045 210.4453 326.3752 204 324.1333 C203.0238 323.7938 202.1083 321.9742 202 320.1333 C201.2111 306.7215 200.8991 302.9775 202 290.1333 C202.1929 287.8825 204.5048 287.6093 205 285.1333 C207.7236 271.5154 207.2818 262.7425 209 255.1333 C209.0933 254.7203 211.701 253.934 212 254.1333 C212.8117 254.6744 214.6494 256.7374 215 259.1333 C217.3491 275.1852 215.2331 290.8677 218 295.1333 C219.0662 296.777 230.8545 296.785 239 296.1333 C240.6509 296.0013 241.6095 294.8715 243 293.1333 C245.2876 290.2738 245.9906 289.4138 247 286.1333 C247.7358 283.742 246.1675 282.1314 247 280.1333 C248.1216 277.4415 251.1365 277.1556 252 274.1333 C256.4172 258.6732 258.9787 238.1887 259 238.1333 C259.0049 238.1207 261.6604 243.2654 262 248.1333 C263.0978 263.8682 259.3012 269.2587 262 281.1333 C263.0855 285.9094 267.3575 289.0383 272 292.1333 C274.3212 293.6808 276.0187 293.0006 280 293.1333 C290.9031 293.4968 297.877 295.1185 302 293.1333 C304.1101 292.1174 305.6623 286.6734 307 280.1333 C310.0354 265.2936 307.4527 263 311 249.1333 C312.5276 243.1617 317.9906 237.1042 318 237.1333 C318.0391 237.2549 316.7657 260.3151 320 277.1333 C321.0842 282.7714 324.6132 287.3663 328 289.1333 C331.5623 290.9919 340.6758 291.1132 343 289.1333 C347.8952 284.9633 350.3545 277.7471 355 266.1333 C358.1081 258.363 355.3115 254.5782 359 249.1333 C363.7751 242.0844 376 235.1333 376 235.1333 C376 235.1333 371.8179 237.0514 371 239.1333 C367.3855 248.3339 366.7723 251.3181 365 263.1333 C363.8612 270.7254 364.0494 272.7959 365 279.1333 C365.2644 280.8959 366.3642 282.3154 368 283.1333 C372.9073 285.587 374.641 286.1159 381 287.1333 C386.5944 288.0284 388.7968 287.974 393 287.1333 C394.261 286.8811 395.1713 285.7907 396 284.1333 C399.3148 277.5037 399.9186 276.567 402 269.1333 C403.2828 264.5519 401.4095 263.198 403 259.1333 C405.469 252.8238 407.9512 249.1821 411 246.1333 C411.7259 245.4074 415.7059 245.7132 416 246.1333 C416.9578 247.5016 417.7399 251.192 418 256.1333 C418.7206 269.8249 416.0367 280.0759 418 284.1333 C418.7193 285.6198 432.512 287.7988 433 287.1333 C435.3263 283.9611 436.0046 268.9162 440 254.1333 C440.5509 252.0951 441.6308 250.6223 443 250.1333 C446.5112 248.8793 450.1866 250.7036 454 249.1333 C456.8306 247.9678 459.9914 243.0702 460 243.1333 C460.1078 243.9282 462.4124 277.6193 462 308.1333 C461.9426 312.3791 461.0082 313.117 459 317.1333 C457.1831 320.7671 456.0922 323.6378 454 324.1333 C443.4812 326.6246 421 326.1333 421 326.1333 "/>
<path id="1" d="M345 286.1333 C345 286.1333 343.9849 272.2238 346 260.1333 C347.3092 252.2784 351.0939 251.7446 352 244.1333 C353.403 232.3478 348.8574 222.4185 351 218.1333 C352.2183 215.6966 360.1183 213.0341 368 212.1333 C375.9199 211.2282 385.2984 215.0103 386 214.1333 C387.6182 212.1106 386.9083 194.7754 388 187.1333 C388.0514 186.7732 390.0024 186.1338 390 186.1333 C389.9906 186.1315 385.2939 184.9189 383 186.1333 C371.0292 192.4708 369.3801 197.1088 356 204.1333 C350.6498 206.9422 343.0333 207.2306 343 207.1333 C342.0569 204.3766 343.2494 171.2462 343 166.1333 C342.9994 166.1212 341.6056 165.7632 341 166.1333 C334.1196 170.338 326.6341 172.9314 325 177.1333 C322.7018 183.0431 328.4367 200.1937 327 202.1333 C325.8823 203.6422 313.9947 202.1345 305 204.1333 C302.64 204.6578 300.3099 206.8938 300 208.1333 C299.5573 209.9041 300.4289 214.5622 302 216.1333 C304.1996 218.3329 307.1753 219.3292 312 220.1333 C318.3324 221.1887 325.8836 219.6822 326 220.1333 C328.0146 227.94 325.9309 253.9937 328 282.1333 C328.2071 284.95 331 288.1333 331 288.1333 "/>
<path id="2" d="M435 300.1333 C435 300.1333 427.2876 299.4895 426 300.1333 C425.4993 300.3837 424.4543 304.4708 425 305.1333 C428.1817 308.9968 433.3749 313.6767 440 317.1333 C442.4929 318.434 447.7785 317.5486 448 317.1333 C448.7785 315.6736 448 302.1333 448 302.1333 "/>
<path id="3" d="M340 308.1333 C340 308.1333 333.1278 310.4417 332 312.1333 C331.0333 313.5833 331.3929 319.7864 332 320.1333 C335.0922 321.9003 352.0771 324.7332 353 324.1333 C353.5041 323.8057 353.3129 309.2818 352 307.1333 C351.4699 306.2658 342 306.1333 342 306.1333 "/>
<path id="4" d="M227 308.1333 C227 308.1333 229.506 309.8159 230 311.1333 C230.5988 312.7302 229.2996 314.8727 230 316.1333 C230.9494 317.8422 232.7485 319.4901 235 320.1333 C238.2987 321.0758 242.9875 320.4708 244 320.1333 C244.1125 320.0958 244.5217 317.9532 244 317.1333 C241.8341 313.7298 239.2815 310.5852 237 309.1333 C236.3653 308.7294 233 310.1333 233 310.1333 "/>
<path id="5" d="M282 306.1333 C282 306.1333 287.3016 310.8183 293 313.1333 C302.6475 317.0526 313.2197 319.0943 314 319.1333 C314.0458 319.1356 314.02 315.4447 313 314.1333 C311.47 312.1662 309.6932 310.4924 307 310.1333 C297.1067 308.8142 294.3765 309.712 283 310.1333 C281.5604 310.1867 280.3149 310.5822 280 311.1333 C279.2376 312.4676 279 317.1333 279 317.1333 "/>
<path id="6" d="M401 309.1333 C401 309.1333 375.8423 306.5243 373 307.1333 C372.8233 307.1712 372.6432 315.0144 373 315.1333 C377.549 316.6496 402.6186 319.3268 406 318.1333 C406.6663 317.8982 407.3327 309.1224 407 303.1333 C406.9307 301.8865 405.4327 300.1951 405 300.1333 C404.16 300.0133 400 302.1333 400 302.1333 "/>
</g>
</g>
</svg>
