<?xml version="1.0" encoding="utf-8"?>
<!DOCTYPE svg PUBLIC "-//W3C//DTD SVG 1.1//EN" "http://www.w3.org/Graphics/SVG/1.1/DTD/svg11.dtd">
<svg viewBox="0 0 800 800" preserveAspectRatio="xMinYMin meet" xmlns="http://www.w3.org/2000/svg" version="1.1">
<g fill="none" stroke="black" stroke-linecap="round" stroke-linejoin="round" stroke-width="0.71525">
<g transform="translate(108.4918,87.52) scale(4.1944) translate(-203,-177.1333)">
<path id="0" d="M203 303.1333 C203 303.1333 206.5214 292.0221 207 281.1333 C208.4892 247.253 204.8142 245.2843 207 212.1333 C207.7094 201.3734 209.0473 198.6469 213 190.1333 C214.4752 186.9561 216.4045 185.3634 220 184.1333 C233.2636 179.5958 235.6937 178.5431 251 177.1333 C272.7662 175.1286 275.2547 174.6187 296 177.1333 C306.1282 178.361 310.9237 180.4593 317 185.1333 C320.1844 187.5829 318.9923 193.9252 322 197.1333 C324.4106 199.7047 329.6849 198.3552 332 201.1333 C337.3185 207.5155 341.0168 211.7925 342 221.1333 C345.5028 254.4101 346.093 283.382 342 296.1333 C341.2171 298.5724 328.7722 301.578 316 302.1333 C261.5279 304.5017 204 302.1333 204 302.1333 "/>
<path id="1" d="M203 303.1333 C203 303.1333 203.1353 311.6327 204 312.1333 C206.6674 313.6776 217.5437 311.8083 222 314.1333 C224.3909 315.3808 224.327 320.5693 227 324.1333 C227.972 325.4293 229.184 326.0874 231 326.1333 C264.624 326.9846 272.0196 329.8712 306 326.1333 C317.875 324.8271 321.9401 320.634 331 315.1333 C332.8998 313.9799 332.068 311.0653 334 309.1333 C336.7907 306.3427 340.8741 306.2444 342 304.1333 C343.215 301.8552 342 294.1333 342 294.1333 "/>
<path id="2" d="M222 185.1333 C222 185.1333 231.4305 193.5275 232 200.1333 C235.626 242.1954 232 301.1333 232 301.1333 "/>
<path id="3" d="M252 181.1333 C252 181.1333 253.9172 184.7372 254 188.1333 C255.3634 244.0344 255 304.1333 255 304.1333 "/>
<path id="4" d="M273 179.1333 C273 179.1333 275.9996 192.1323 276 192.1333 C276.0001 192.1337 276 187.1333 276 187.1333 C276 187.1333 275 300.1333 275 300.1333 "/>
<path id="5" d="M296 179.1333 C296 179.1333 298.8814 184.3095 299 189.1333 C300.3188 242.7641 299 301.1333 299 301.1333 "/>
<path id="6" d="M320 198.1333 C320 198.1333 318.9665 210.4539 320 221.1333 C320.3725 224.9827 322.4289 225.1358 323 229.1333 C326.3006 252.2378 326.3383 253.205 328 277.1333 C328.8249 289.0116 328 301.1333 328 301.1333 "/>
</g>
</g>
</svg>
