<?xml version="1.0" encoding="utf-8"?>
<!DOCTYPE svg PUBLIC "-//W3C//DTD SVG 1.1//EN" "http://www.w3.org/Graphics/SVG/1.1/DTD/svg11.dtd">
<svg viewBox="0 0 800 800" preserveAspectRatio="xMinYMin meet" xmlns="http://www.w3.org/2000/svg" version="1.1">
<g fill="none" stroke="black" stroke-linecap="round" stroke-linejoin="round" stroke-width="1.2337">
<g transform="translate(87.52,262.6061) scale(2.4318) translate(-154,-173)">
<path id="0" d="M158 270 C158 270 158.6413 267.0717 159 267 C163.3039 266.1392 168.5093 266.0871 178 266 C222.934 265.5878 225.4386 262.0099 268 266 C286.5024 267.7346 287.319 276.0405 306 278 C356.1133 283.2566 411 281 411 281 "/>
<path id="1" d="M154 267 C154 267 153.3261 251.4705 156 237 C161.7029 206.1375 169.4002 179.4948 171 175 C171.0205 174.9423 175.2446 175.952 177 178 C183.0978 185.1141 184.2826 186.5651 189 196 C198.5332 215.0664 205.8846 235.8846 206 236 C206.0304 236.0304 206.8344 225.8937 210 217 C217.1376 196.9466 226.4696 177.2829 227 177 C227.0028 176.9985 231.9445 191.1762 240 201 C251.379 214.8769 267.126 227.346 268 227 C269.8663 226.2613 279.8346 195.7062 288 182 C288.9707 180.3706 295.175 179.395 296 180 C298.0878 181.5311 300.4918 186.2675 303 193 C309.825 211.3199 314.6996 230.9558 315 231 C315.2928 231.0431 327.2387 214.7336 337 198 C340.94 191.2457 338.9538 188.6197 343 183 C346.9038 177.5781 354.7494 172.8084 355 173 C357.8514 175.1805 367.715 190.4301 377 209 C387.9642 230.9283 386.0732 235.1464 396 255 C397.6992 258.3984 400.5113 257.6225 403 261 C407.05 266.4964 407.9683 267.6509 410 274 C411.6424 279.1326 411 286 411 286 "/>
</g>
</g>
</svg>
