<?xml version="1.0" encoding="utf-8"?>
<!DOCTYPE svg PUBLIC "-//W3C//DTD SVG 1.1//EN" "http://www.w3.org/Graphics/SVG/1.1/DTD/svg11.dtd">
<svg viewBox="0 0 800 800" preserveAspectRatio="xMinYMin meet" xmlns="http://www.w3.org/2000/svg" version="1.1">
<g fill="none" stroke="black" stroke-linecap="round" stroke-linejoin="round" stroke-width="1.0321">
<g transform="translate(87.52,170.3635) scale(2.9068) translate(-136,-96)">
<path id="0" d="M145 127 C145 127 149.3823 138.0789 156 144 C166.6574 153.5355 170.0571 157.0336 183 161 C197.3105 165.3855 202.868 164.0088 218 163 C222.4846 162.701 223.9044 161.2053 228 158 C234.8218 152.6612 236.2861 151.8089 241 145 C244.5272 139.9052 244.6901 138.2878 246 132 C247.0262 127.0743 246 121 246 121 "/>
<path id="1" d="M262 121 C262 121 259.5161 130.8526 261 137 C262.4059 142.8246 264.3523 145.5736 269 150 C273.4848 154.2713 275.6046 155.3555 282 157 C291.7289 159.5017 296.1259 161.3455 304 159 C314.9502 155.7382 319.0024 151.3313 329 143 C332.2601 140.2833 333.0029 138.4158 334 134 C336.2102 124.2122 336 112 336 112 "/>
<path id="2" d="M136 132 C136 132 146.4762 144.9525 153 158 C156.4037 164.8074 156.4059 166.079 157 174 C159.338 205.1739 159 238 159 238 "/>
<path id="3" d="M351 113 C351 113 347.3304 117.9002 346 123 C341.5483 140.0648 340.1338 141.1829 339 159 C336.6979 195.1764 338.4837 213.6403 339 233 C339.0073 233.2756 341 234 341 234 "/>
<path id="4" d="M158 241 C158 241 157.491 238.509 158 238 C164.2778 231.7222 167.7842 226.4643 178 221 C187.2032 216.0774 189.7162 215.8358 201 215 C228.9153 212.9322 231.1688 213.169 259 215 C267.7951 215.5786 268.0077 218.7807 277 220 C296.9347 222.703 298.8146 219.2775 318 223 C330.8913 225.5013 343.9807 232.9807 344 233 C344.0075 233.0075 335.3219 232.3508 329 234 C325.1456 235.0055 325.2032 237.4341 321 239 C300.452 246.6551 298.9618 250.9844 278 253 C224.541 258.1403 201.7396 256.7327 165 254 C162.1553 253.7884 157 244 157 244 "/>
<path id="5" d="M176 161 C176 161 182.4956 156.8047 187 152 C189.5073 149.3256 190.2415 148.4673 191 145 C193.4711 133.7037 194 120 194 120 "/>
<path id="6" d="M208 119 C208 119 210.8051 119.4431 211 120 C215.0742 131.6405 222 159 222 159 "/>
<path id="7" d="M289 119 C289 119 287.2374 137.8158 283 153 C281.7321 157.5434 277 162 277 162 "/>
<path id="8" d="M306 116 C306 116 308.6036 117.5467 309 119 C311.0573 126.5434 308.7915 130.8954 312 138 C314.6746 143.9224 323 150 323 150 "/>
<path id="9" d="M337 110 C337 110 336.8037 112.9108 337 113 C338.7146 113.7794 347.0829 115.5644 348 115 C348.7654 114.529 350.797 108.0284 350 105 C349.0879 101.5341 345.0392 97.098 343 96 C342.1525 95.5437 337.7149 96.8086 337 98 C335.1107 101.1488 333.7639 105.8062 334 111 C334.1685 114.7072 338 120 338 120 "/>
<path id="10" d="M290 122 C290 122 306.2866 122.2375 308 121 C308.7931 120.4272 308.8857 114.0191 308 109 C307.5919 106.6873 306.7669 105.5706 305 104 C302.943 102.1715 301.8262 101.9421 299 101 C297.7888 100.5963 296.3927 100.6073 296 101 C294.8219 102.1781 293.4245 104.1702 293 107 C292.0787 113.1423 291.5693 115.9925 293 121 C293.8905 124.1169 298.9495 127.9916 299 128 C299.007 128.0012 299 122 299 122 "/>
<path id="11" d="M247 124 C247 124 260.8567 124.9146 262 124 C262.7317 123.4146 263.1833 116.0233 262 112 C261.3619 109.8306 258.5507 107.4229 257 107 C255.6708 106.6375 252.5827 107.5931 251 109 C249.3042 110.5074 248.7764 112.1531 248 115 C247.4306 117.0877 247.2701 118.2481 248 120 C249.3261 123.1826 253 127 253 127 "/>
<path id="12" d="M200 122 C200 122 204.8597 122.0136 206 121 C207.5266 119.6431 209.1512 115.8148 209 114 C208.8805 112.5661 207.0265 110.0133 205 109 C201.5705 107.2853 195.096 106.8628 195 107 C194.8098 107.2717 195.8241 114.6482 198 119 C199.0477 121.0953 202.9018 122.9804 203 123 C203.0102 123.002 203 120 203 120 "/>
<path id="13" d="M139 129 C139 129 144.6106 130.6316 146 130 C147.428 129.3509 149.2084 126.7706 150 124 C150.8866 120.8969 151.0236 118.2178 150 116 C149.0059 113.8462 146.6576 112.3288 144 111 C142.7494 110.3747 140.9649 110.4486 140 111 C138.7249 111.7286 137.5523 113.067 137 115 C135.8304 119.0935 135.0552 121.5986 136 125 C136.9394 128.382 142 133 142 133 "/>
</g>
</g>
</svg>
