<?xml version="1.0" encoding="utf-8"?>
<!DOCTYPE svg PUBLIC "-//W3C//DTD SVG 1.1//EN" "http://www.w3.org/Graphics/SVG/1.1/DTD/svg11.dtd">
<svg viewBox="0 0 800 800" preserveAspectRatio="xMinYMin meet" xmlns="http://www.w3.org/2000/svg" version="1.1">
<g fill="none" stroke="black" stroke-linecap="round" stroke-linejoin="round" stroke-width="0.74885">
<g transform="translate(87.52,281.8185) scale(4.0062) translate(-177,-166)">
<path id="0" d="M181 222 C181 222 183.0117 217.1516 186 215 C194.3101 209.0167 195.8197 207.3934 206 204 C221.6289 198.7904 223.1729 198.6827 240 197 C257.4576 195.2542 258.2297 196.0647 276 197 C286.444 197.5497 287.174 197.2579 297 200 C308.0294 203.078 309.9683 203.4645 319 209 C323.9658 212.0436 328 219 328 219 "/>
<path id="1" d="M182 221 C182 221 176.8099 176.5875 177 176 C177.0255 175.9211 191.7636 187.2967 193 187 C194.2105 186.7095 201.271 170.1326 202 170 C202.6413 169.8834 214.0484 183.0827 215 183 C215.9063 182.9212 224.3931 168 225 168 C225.7283 168 236.2013 183.0333 237 183 C237.8894 182.9629 247.7756 167.2783 249 167 C249.5873 166.8665 254.301 173.9723 259 178 C260.1747 179.0069 262.4306 179.427 263 179 C266.8103 176.1423 270.449 170.2259 275 166 C275.3781 165.6489 276.9134 165.8268 277 166 C278.2127 168.4254 279.4408 175.9211 281 178 C281.3898 178.5197 284.5063 178.8648 286 178 C292.0848 174.4772 299.5039 166.8263 300 167 C300.6012 167.2104 304.2197 184.1734 306 185 C308.4402 186.1329 318.8787 182.9188 328 180 C329.5305 179.5102 330.9953 176.9655 331 177 C331.0723 177.5354 333 200.7403 333 217 C333 218.2195 331 220 331 220 "/>
<path id="2" d="M185 222 C185 222 184.9427 224.9427 185 225 C185.0191 225.0191 186.0697 224.5954 187 224 C198.4883 216.6475 198.7275 213.1409 210 209 C220.7157 205.0636 223.0457 206.5474 236 206 C258.3121 205.0572 259.5348 204.0486 281 206 C291.2773 206.9343 291.5535 209.9107 302 212 C308.682 213.3364 310.9799 210.8761 316 213 C321.6493 215.3901 328 223 328 223 "/>
</g>
</g>
</svg>
