<?xml version="1.0" encoding="utf-8"?>
<!DOCTYPE svg PUBLIC "-//W3C//DTD SVG 1.1//EN" "http://www.w3.org/Graphics/SVG/1.1/DTD/svg11.dtd">
<svg viewBox="0 0 800 800" preserveAspectRatio="xMinYMin meet" xmlns="http://www.w3.org/2000/svg" version="1.1">
<g fill="none" stroke="black" stroke-linecap="round" stroke-linejoin="round" stroke-width="0.44643">
<g transform="translate(87.52,141.28) scale(6.72) translate(-230,-282.4167)">
<path id="0" d="M237 343.4167 L315 344.4167 "/>
<path id="1" d="M237 344.4167 C237 344.4167 235.8404 351.5177 237 354.4167 C237.8581 356.5619 240.5385 359.2568 243 359.4167 C270.6321 361.211 292.6847 361.1219 314 359.4167 C315.345 359.3091 317.4225 355.9192 318 353.4167 C318.5647 350.9697 317.9595 348.5755 317 346.4167 C316.5704 345.45 314 344.4167 314 344.4167 "/>
<path id="2" d="M239 345.4167 C239 345.4167 232.0676 338.3896 230 332.4167 C228.3321 327.5984 228.4385 324.7952 230 319.4167 C232.4759 310.8884 233.3322 308.1744 239 301.4167 C245.047 294.2067 247.317 292.2533 256 288.4167 C266.938 283.5836 270.3813 282.4167 282 282.4167 C292.7249 282.4167 294.6962 284.6487 306 288.4167 C310.6374 289.9625 311.5169 290.398 315 293.4167 C318.3786 296.3448 320.3755 297.7479 321 301.4167 C323.7232 317.4158 324.3 331.1003 323 340.4167 C322.8282 341.6477 315 344.4167 315 344.4167 "/>
<path id="3" d="M311 346.4167 C311 346.4167 318.2556 342.9055 320 339.4167 C322.8063 333.8042 323 322.4167 323 322.4167 "/>
</g>
</g>
</svg>
