<?xml version="1.0" encoding="utf-8"?>
<!DOCTYPE svg PUBLIC "-//W3C//DTD SVG 1.1//EN" "http://www.w3.org/Graphics/SVG/1.1/DTD/svg11.dtd">
<svg viewBox="0 0 800 800" preserveAspectRatio="xMinYMin meet" xmlns="http://www.w3.org/2000/svg" version="1.1">
<g fill="none" stroke="black" stroke-linecap="round" stroke-linejoin="round" stroke-width="2.1409">
<g transform="translate(87.52,173.6972) scale(1.4013) translate(-168,-45)">
<path id="0" d="M237 93 C237 93 238.0391 83.5727 237 75 C236.1061 67.6251 234.3377 67.3571 233 60 C232.4046 56.7254 232.2803 55.6387 233 53 C233.4953 51.1837 234.7233 49.5674 236 49 C237.6033 48.2874 239.6087 48.2642 242 49 C245.2804 50.0094 246.3613 50.5812 249 53 C251.8242 55.5889 253.2413 56.7125 254 60 C255.7893 67.7535 255.911 71.1047 255 79 C254.6401 82.1195 251 86 251 86 "/>
<path id="1" d="M236 91 C236 91 221.4244 93.8484 209 99 C201.7333 102.013 198.0818 102.827 195 108 C186.7643 121.8243 189.0467 132.2908 181 146 C178.2787 150.6364 170.194 151.2575 168 154 C167.2607 154.9241 167.978 160.197 169 161 C171.5381 162.9942 175.6405 164.0579 182 165 C188.5501 165.9704 189.8436 166.5391 196 165 C208.5327 161.8668 222 155 222 155 "/>
<path id="2" d="M237 80 C237 80 214.4562 68 211 68 C210.2024 68 206.5529 74.3061 205 80 C203.8612 84.1755 204.2146 87.6438 205 90 C205.2618 90.7854 209 92 209 92 "/>
<path id="3" d="M226 155 C226 155 231.0301 157.5527 233 161 C242.0052 176.7591 240.8448 183.425 250 197 C252.9112 201.3166 256.4472 201.8406 262 204 C264.263 204.8801 268 204 268 204 "/>
<path id="4" d="M290 189 C290 189 279.8878 193.3217 271 199 C262.1414 204.6597 262.7155 207.9611 254 212 C243.8627 216.6978 240.1305 213.8845 230 218 C225.8448 219.688 224.36 221.2633 222 225 C219.1556 229.5037 217.7554 235.1652 218 237 C218.0811 237.608 221.3185 239.6845 224 240 C228.5934 240.5404 230.0589 240.5811 235 239 C254.1183 232.8822 255.2386 232.2983 274 224 C280.7993 220.9926 287 216 287 216 "/>
<path id="5" d="M249 186 C249 186 243.6245 189.8287 239 190 C218.9829 190.7414 200.8774 186.9551 195 188 C194.6259 188.0665 193.0601 196.5902 194 198 C195.242 199.863 199.7928 202.4214 205 203 C220.3212 204.7024 228.7982 203.8501 239 203 C239.6751 202.9437 241 200 241 200 "/>
<path id="6" d="M256 86 C256 86 260.8766 90.1413 264 95 C269.6159 103.7358 272.048 105.0207 274 114 C276.4891 125.45 270.8884 129.915 274 141 C277.9749 155.1606 280.7419 157.3699 290 171 C298.2879 183.2016 298.5359 185.7068 310 194 C343.3405 218.1187 346.6948 217.463 384 239 C394.9515 245.3225 395.8617 247.9889 407 250 C429.0041 253.973 433.6095 254.831 456 252 C474.2091 249.6977 476.0197 247.0183 494 239 C512.4408 230.7764 512.3719 229.433 530 219 C536.7534 215.0031 538.2047 215.3947 543 210 C553.2385 198.4817 553.8603 196.9902 562 183 C569.6069 169.9256 570.3815 169.1122 575 155 C579.1004 142.4709 579.441 141.2306 580 128 C580.9022 106.6476 581.7967 104.3392 578 84 C575.1559 68.7639 573.0978 63.6467 566 53 C562.8454 48.2681 552 45 552 45 C552 45 558.2315 46.7188 561 50 C570.2742 60.9917 570.8907 63.0984 579 77 C588.2806 92.9097 588.4216 93.1855 596 110 C604.3422 128.5093 604.5428 128.9871 611 148 C613.4003 155.0674 613.6472 155.5917 614 163 C615.1182 186.4829 616.5421 188.1207 614 211 C612.1993 227.2062 611.4796 229.1209 605 244 C598.5346 258.8466 596.8211 259.4959 587 273 C581.1243 281.0791 580.4222 281.4684 573 288 C568.3174 292.1207 567.7825 292.284 562 295 C535.1784 307.598 534.823 308.8562 507 319 C487.3557 326.162 466 330 466 330 "/>
<path id="7" d="M269 235 C269 235 272.1349 235.0563 273 236 C276.2286 239.5221 280 247 280 247 "/>
<path id="8" d="M305 245 C305 245 290.5466 249.9228 276 253 C264.7984 255.3696 259.7175 254.1191 253 256 C252.1209 256.2462 251.0484 258.2093 251 260 C250.6064 274.5641 249.7095 278.2755 252 293 C252.8935 298.7437 254.3492 299.752 258 305 C262.0532 310.8265 262.6193 311.4264 268 316 C272.1989 319.5691 272.8989 320.241 278 322 C286.6136 324.9702 287.6069 325.2633 297 326 C312.5629 327.2206 317.3833 326.6833 329 326 C329.7687 325.9548 331 324 331 324 "/>
<path id="9" d="M353 261 C353 261 344.2232 271.6851 338 283 C333.5049 291.1729 332.7916 292.298 331 301 C329.5255 308.1617 329.079 312.1975 331 317 C332.5608 320.902 337.0858 321.1072 341 326 C344.6379 330.5474 347.3964 336.2793 347 337 C346.0554 338.7175 338.4865 343.3888 330 346 C320.1597 349.0278 311.5814 347.1314 308 349 C307.1344 349.4516 306.0705 356.0082 307 358 C308.0602 360.2719 311.4422 363.6294 315 364 C351.4719 367.7992 363.3277 368.7779 403 368 C409.3702 367.8751 411.328 365.3365 417 362 C418.7321 360.9811 419.9116 359.5026 420 358 C420.2726 353.3652 418 351.2231 418 345 C418 338.2982 420 331 420 331 "/>
<path id="10" d="M421 334 C421 334 423.1693 335.9186 425 336 C443.3566 336.8158 447.4677 337.782 466 336 C471.1894 335.501 477 331 477 331 "/>
<path id="11" d="M300 327 C300 327 300.6557 331.0329 300 333 C299.5629 334.3114 298.4533 335.6036 297 336 C289.4566 338.0573 283.1978 336.5141 278 339 C276.0094 339.952 274.4949 343.3708 274 347 C273.1971 352.8877 273.9603 360.2722 275 361 C276.8292 362.2804 291.2434 361.9648 294 361 C294.5005 360.8248 295 354 295 354 "/>
<path id="12" d="M215 129 C215 129 214.6234 125.4707 215 125 C215.3954 124.5058 219 124 219 124 "/>
</g>
</g>
</svg>
