<?xml version="1.0" encoding="utf-8"?>
<!DOCTYPE svg PUBLIC "-//W3C//DTD SVG 1.1//EN" "http://www.w3.org/Graphics/SVG/1.1/DTD/svg11.dtd">
<svg viewBox="0 0 800 800" preserveAspectRatio="xMinYMin meet" xmlns="http://www.w3.org/2000/svg" version="1.1">
<g fill="none" stroke="black" stroke-linecap="round" stroke-linejoin="round" stroke-width="2.4338">
<g transform="translate(87.52,173.1901) scale(1.2327) translate(-14,-57.1333)">
<path id="0" d="M299 98.1333 C299 98.1333 306.4288 105.6572 315 110.1333 C350.521 128.6832 353.8121 126.551 389 145.1333 C397.1183 149.4205 400.8302 152.0617 404 157.1333 C405.7795 159.9806 404.873 163.8955 404 169.1333 C403.5271 171.9705 402.8063 172.5529 401 175.1333 C399.4836 177.2996 399.1002 178.249 397 179.1333 C390.8356 181.7289 389.4343 182.5211 382 183.1333 C347.9322 185.9389 346.2153 183.6298 312 186.1333 C306.0459 186.569 304.112 186.2975 300 189.1333 C291.6047 194.9232 287.4288 197.0153 283 206.1333 C272.2588 228.2476 276.6046 234.3893 266 259.1333 C259.1146 275.1994 256.9717 275.5593 247 290.1333 C244.3282 294.0383 243.8525 294.318 240 297.1333 C231.1698 303.5862 229.876 307.3304 221 309.1333 C202.2841 312.935 176 310.1333 176 310.1333 "/>
<path id="1" d="M239 61.1333 C239 61.1333 267.1149 82.5336 278 99.1333 C282.0503 105.3101 279.8763 111.3254 279 122.1333 C278.4523 128.8883 278.0896 130.3956 275 136.1333 C271.675 142.3083 270.5975 143.365 265 148.1333 C257.7006 154.3513 256.7847 154.9722 248 159.1333 C238.3826 163.6889 237.2277 165.2342 227 166.1333 C193.8365 169.0488 189.6539 163.4303 157 167.1333 C143.8972 168.6192 142.4467 170.7968 130 177.1333 C115.5858 184.4715 113.6154 184.6348 102 195.1333 C88.8255 207.0411 87.5427 209.2229 78 224.1333 C72.3811 232.9129 73.9771 236.8175 70 245.1333 C69.4497 246.2839 67.0202 246.5008 67 247.1333 C66.1138 274.9016 68.6091 294.0797 67 339.1333 C66.6477 348.9975 65.9193 349.7917 63 359.1333 C61.0939 365.2329 60.7183 365.9691 57 371.1333 C52.0697 377.981 49.9595 382.7493 45 384.1333 C35.2508 386.854 14 383.1333 14 383.1333 "/>
<path id="2" d="M14 383.1333 C14 383.1333 20.1985 384.9321 24 388.1333 C28.8856 392.2475 29.1366 398.0026 33 399.1333 C43.2098 402.1216 51.7018 403.4097 65 400.1333 C82.3526 395.858 86.1047 392.9951 102 382.1333 C114.483 373.6033 117.6368 371.0095 125 359.1333 C131.3159 348.9465 128.1762 345.0972 133 332.1333 C136.0537 323.9266 138.2756 323.6254 141 316.1333 C141.8645 313.756 141 310.1333 141 310.1333 "/>
<path id="3" d="M140 282.1333 C140 282.1333 139.7867 308.8549 143 333.1333 C144.1125 341.5387 146.8929 349.2115 149 350.1333 C152.8713 351.827 162.5627 349.7365 175 347.1333 C183.5269 345.3486 184.2199 344.8793 192 341.1333 C197.2302 338.6151 197.6203 334.8249 202 334.1333 C212.9803 332.3996 227.1974 333.4318 230 335.1333 C230.9517 335.7111 232.2684 344.8056 230 351.1333 C223.7886 368.4599 219.4431 369.4881 211 388.1333 C207.6186 395.6007 207.9973 396.1442 206 404.1333 C205.0448 407.9542 204.5306 409.3168 205 412.1333 C205.2697 413.7513 206.3172 415.352 208 416.1333 C218.109 420.8268 221.1037 424.7496 233 425.1333 C352.4793 428.9875 363.7906 426.9587 487 425.1333 C494.79 425.0179 502.951 421.2069 503 421.1333 C503.0056 421.125 498.0775 417.7581 493 416.1333 C486.0141 413.8978 485.3935 413.362 478 413.1333 C437.8308 411.891 430.5405 417.4928 396 413.1333 C386.4631 411.9296 375 400.1333 375 400.1333 "/>
<path id="4" d="M292 196.1333 C292 196.1333 292.4294 213.6674 290 230.1333 C288.0142 243.5926 287.314 243.9858 283 257.1333 C276.8752 275.7994 277.5681 277.2926 269 294.1333 C263.6343 304.6797 256.1859 304.8755 254 314.1333 C249.1279 334.7681 252 340.5111 252 366.1333 C252 373.5244 252.3256 374.7706 254 381.1333 C254.5165 383.0961 255.2064 383.7617 257 385.1333 C263.1819 389.8607 263.8275 390.5471 271 394.1333 C276.4278 396.8472 277.1596 397.4254 283 398.1333 C292.8238 399.3241 293.5224 398.466 304 398.1333 C324.9868 397.4671 325.6365 398.6396 346 396.1333 C357.4424 394.725 358.1698 394.3134 369 390.1333 C386.1873 383.4996 386.8028 378.5258 403 374.1333 C413.5618 371.2691 415.8408 372.9413 428 374.1333 C440.884 375.3965 441.2481 378.0481 454 379.1333 C464.0927 379.9923 464.6618 377.7114 475 378.1333 C488.8715 378.6995 489.1015 379.3046 503 381.1333 C508.0236 381.7943 509.0756 381.2865 513 383.1333 C516.5235 384.7915 519.1838 386.4807 520 389.1333 C522.0328 395.7399 522.472 407.819 521 409.1333 C518.0778 411.7424 492 414.1333 492 414.1333 "/>
<path id="5" d="M272 181.1333 C272 181.1333 285.7267 180.0978 292 183.1333 C297.1731 185.6364 299.8657 189.473 303 196.1333 C307.0269 204.6904 304.2371 210.1093 308 217.1333 C309.9637 220.7989 313.6547 223.6319 318 224.1333 C334.8401 226.0764 341.3747 223.1333 360 223.1333 C360.8869 223.1333 362 224.1133 362 224.1333 C362 224.1533 360 225.1333 360 225.1333 "/>
<path id="6" d="M268 198.1333 C268 198.1333 273.0658 215.7127 282 228.1333 C292.3502 242.5226 301.0159 253.5842 309 255.1333 C318.2335 256.9249 329.6906 246.1395 349 241.1333 C355.1961 239.5269 356.691 239.8715 363 241.1333 C370.7511 242.6836 379 247.1333 379 247.1333 C379 247.1333 376.2166 246.5664 376 246.1333 C375.5669 245.2671 376.7286 242.5904 376 241.1333 C374.9072 238.9477 373.5265 237.3124 371 236.1333 C367.2332 234.3755 360.9954 234.1359 361 234.1333 C361.012 234.1268 381.9918 230.2027 382 230.1333 C382.0136 230.0179 369.47 220.6624 363 217.1333 C362.3913 216.8013 360 218.1333 360 218.1333 "/>
<path id="7" d="M242 59.1333 C242 59.1333 243.6784 57.2483 245 57.1333 C253.328 56.4092 256.2835 55.1062 265 57.1333 C276.0375 59.7002 282.7937 61.0082 288 67.1333 C294.933 75.2898 299 97.1333 299 97.1333 "/>
<path id="8" d="M347 144.1333 C347 144.1333 346.9385 152.0719 348 153.1333 C349.2738 154.4071 357.4184 155.4241 358 155.1333 C358.2262 155.0202 359.0246 149.5678 358 148.1333 C355.9299 145.2352 348 141.1333 348 141.1333 "/>
</g>
</g>
</svg>
