<?xml version="1.0" encoding="utf-8"?>
<!DOCTYPE svg PUBLIC "-//W3C//DTD SVG 1.1//EN" "http://www.w3.org/Graphics/SVG/1.1/DTD/svg11.dtd">
<svg viewBox="0 0 800 800" preserveAspectRatio="xMinYMin meet" xmlns="http://www.w3.org/2000/svg" version="1.1">
<g fill="none" stroke="black" stroke-linecap="round" stroke-linejoin="round" stroke-width="2.6642">
<g transform="translate(87.52,188.3018) scale(1.1261) translate(-86,-101)">
<path id="0" d="M121 140 C121 140 87.3718 196.0605 86 199 C85.9587 199.0884 91.908 199.0294 93 200 C94.1381 201.0117 94.0916 206.5108 95 207 C96.7321 207.9326 101.4036 208.5321 106 207 C130.6534 198.7822 158 186 158 186 "/>
<path id="1" d="M121 139 L126 141 "/>
<path id="2" d="M123 141 C123 141 122.5793 138.3272 123 138 C127.7877 134.2763 132.3767 129.8744 141 127 C148.2966 124.5678 157.809 127.3233 159 126 C160.3156 124.5382 157.3195 113.0016 159 107 C159.704 104.4856 162.865 102.254 166 101 C168.6681 99.9328 170.7242 100.244 174 101 C176.3309 101.5379 178.5964 102.722 179 104 C180.438 108.5537 180 120 180 120 "/>
<path id="3" d="M164 122 C164 122 163.2366 115.0905 164 114 C164.6584 113.0594 169.0688 112 171 112 C171.5518 112 172.9351 113.286 173 114 C173.265 116.9155 172 123 172 123 "/>
<path id="4" d="M181 117 C181 117 180.6411 132.8683 183 145 C183.7455 148.8342 184.94 149.94 188 153 C193.8846 158.8846 194.6086 160.7307 202 164 C218.9678 171.505 221.3814 173.8389 240 176 C275.0302 180.066 277.7817 174.7826 314 177 C325.8865 177.7277 326.7478 177.9992 338 182 C371.0001 193.7334 372.0044 194.181 404 209 C419.0282 215.9604 418.6588 217.2706 433 226 C441.6364 231.257 442.3574 230.6802 450 237 C467.9998 251.8844 468.9809 251.9797 485 269 C500.6129 285.5887 502.7566 286.1015 514 305 C525.3396 324.0602 525.2288 326.332 532 348 C537.457 365.4625 537.3541 366.6601 539 385 C540.7934 404.9833 541.019 407.1563 539 426 C538.2297 433.1895 533 441 533 441 "/>
<path id="5" d="M157 185 C157 185 163.767 185.1684 169 187 C173.0175 188.4061 176.0455 189.7727 177 192 C178.8605 196.3413 178 208 178 208 "/>
<path id="6" d="M176 196 C176 196 180.789 201.3719 183 207 C185.9863 214.6016 186.6024 215.6507 187 224 C188.5496 256.5416 188.8777 258.7031 187 291 C186.4594 300.299 185.5609 301.5086 182 310 C179.4083 316.1803 176.9898 315.7904 174 322 C170.7168 328.8189 172.5035 330.4051 169 337 C164.3617 345.7309 157 354 157 354 "/>
<path id="7" d="M237 242 C237 242 233.1268 247.1172 232 252 C230.3603 259.1053 232.6541 260.5568 231 268 C228.8021 277.8903 228.1207 278.3254 224 288 C216.6817 305.182 217.0112 306.3139 208 322 C203.9694 329.0163 201.648 328.1503 197 335 C192.3601 341.8377 193.7111 343.4568 189 350 C185.0968 355.4211 184.1766 356.0414 179 360 C176.2737 362.0848 175.4089 362.5298 172 363 C161.8209 364.404 153.2581 364.7083 150 364 C149.6553 363.9251 148.4398 358.6722 149 358 C150.6444 356.0268 160 352 160 352 "/>
<path id="8" d="M93 200 L102 196 "/>
<path id="9" d="M137 150 C137 150 139.337 143.1105 140 143 C142.2806 142.6199 155 147 155 147 "/>
<path id="10" d="M138 152 C138 152 145.894 152.9011 151 152 C152.779 151.6861 155 149 155 149 "/>
<path id="11" d="M370 262 C370 262 362.8569 260.3287 359 262 C350.3629 265.7428 346.3659 267.2939 340 275 C329.1973 288.0769 328.6859 291.091 321 308 C313.9853 323.4322 311.548 325.0557 310 341 C306.8237 373.7156 307.447 380.0886 311 411 C311.9139 418.9508 314.8644 420.1615 320 428 C324.1611 434.3511 327.8453 438.0249 330 440 C330.1112 440.1019 332 439 332 439 "/>
<path id="12" d="M285 355 C285 355 274.0405 366.8276 268 375 C267.4435 375.7529 267.6224 376.8672 268 378 C268.4615 379.3845 269.8384 381 270 381 C270.2423 381 272.9943 377.9905 273 378 C273.0378 378.0631 272.3926 384.9067 273 386 C273.2868 386.5163 277.1906 387.4496 278 387 C279.3354 386.2581 279.6123 383.0466 282 381 C285.9547 377.6103 292 375 292 375 "/>
<path id="13" d="M281 359 C281 359 289.7342 353.3256 292 349 C293.5812 345.9813 291.0702 341.2543 292 338 C292.3502 336.7743 295.8134 334.8717 296 335 C298.0822 336.4315 308 349 308 349 "/>
<path id="14" d="M293 358 C293 358 296.44 354.08 297 354 C297.315 353.955 300 357 300 357 "/>
<path id="15" d="M293 358 C293 358 296.9498 361.8833 298 362 C298.7073 362.0786 302 359 302 359 "/>
<path id="16" d="M291 376 C291 376 299.7118 384.3659 300 385 C300.004 385.0088 296 386.9236 296 387 C296 387.1146 299.2263 388.4525 300 390 C301.5475 393.095 300.4235 396.2975 302 399 C302.9175 400.5728 306.9898 401.9898 307 402 C307.0025 402.0025 305 402 305 402 "/>
<path id="17" d="M332 362 C332 362 330.9959 366.5314 332 370 C336.1649 384.3878 340.6106 385.4465 343 400 C345.7796 416.9301 344.6301 419.395 343 437 C342.2306 445.309 339.0483 453.8713 338 454 C330.4909 454.9222 311.9378 446.5938 286 444 C247.6806 440.1681 217.009 440.8845 208 441 C207.9941 441.0001 207.5986 444.6559 208 445 C209.0204 445.8746 214.7064 446.4127 215 447 C215.3737 447.7474 212.7206 454.3714 213 455 C213.1441 455.3241 219.0022 455.9945 219 456 C218.9886 456.0284 210.9605 459.9675 211 460 C211.2789 460.2297 224.0182 468.954 236 470 C282.8136 474.0869 337 471 337 471 "/>
<path id="18" d="M348 456 C348 456 352.8768 460.3507 357 462 C359.1701 462.868 360.5173 461.216 363 462 C369.1631 463.9462 369.6277 466.4619 376 468 C383.1631 469.729 384.9506 467.0774 392 469 C400.3097 471.2663 400.8843 475.1965 409 477 C417.2118 478.8248 419.5667 478.4056 428 477 C433.2523 476.1246 434.2973 475.0429 439 472 C442.2647 469.8875 443.1085 469.2155 445 466 C447.6504 461.4943 446.0241 457.9759 449 455 C454.7534 449.2466 459.2824 445.4358 467 444 C476.4098 442.2493 479.9526 444.4367 492 447 C503.0376 449.3484 503.6173 449.7248 514 454 C520.21 456.557 519.9216 459.2822 526 461 C541.5222 465.3867 543.1293 465.6503 560 467 C580.0609 468.6049 582.5845 470.0234 601 467 C613.4893 464.9495 627 456 627 456 "/>
<path id="19" d="M538 436 C538 436 553.6404 434.0006 568 436 C592.1871 439.3678 592.874 442.9171 617 447 C624.5896 448.2844 625.6166 447.9229 633 447 C636.8647 446.5169 641 444 641 444 "/>
<path id="20" d="M624 463 L641 454 "/>
<path id="21" d="M233 246 C233 246 237.4279 263.3443 245 278 C252.4961 292.5086 252.9688 295.8173 264 306 C276.6585 317.6848 282.1412 318.7518 297 326 C299.7802 327.3562 301.6223 326.8444 305 326 C308.8 325.05 313 322 313 322 "/>
</g>
</g>
</svg>
