<?xml version="1.0" encoding="utf-8"?>
<!DOCTYPE svg PUBLIC "-//W3C//DTD SVG 1.1//EN" "http://www.w3.org/Graphics/SVG/1.1/DTD/svg11.dtd">
<svg viewBox="0 0 800 800" preserveAspectRatio="xMinYMin meet" xmlns="http://www.w3.org/2000/svg" version="1.1">
<g fill="none" stroke="black" stroke-linecap="round" stroke-linejoin="round" stroke-width="1.7665">
<g transform="translate(87.52,142.7135) scale(1.6983) translate(-109,-111)">
<path id="0" d="M132 159 C132 159 133.7988 152.8015 137 149 C141.1142 144.1144 143.0559 141.4832 148 140 C154.8568 137.943 158.9317 138.9915 167 140 C169.2825 140.2853 172 143 172 143 "/>
<path id="1" d="M167 140 C167 140 174.281 141.7675 180 145 C185.2477 147.9661 186.3488 148.7871 190 153 C192.1031 155.4267 192.5833 156.5831 193 160 C194.9372 175.8853 192.6894 184.2442 195 194 C195.3792 195.6011 198.7196 196.9906 202 198 C204.3913 198.7358 205.9471 197.1202 208 198 C211.6171 199.5502 212.355 202.785 216 204 C219.645 205.215 222.5929 202.3401 226 204 C239.0343 210.35 243.2082 212.8017 255 223 C259.9945 227.3196 258.1507 230.9641 263 236 C270.3391 243.6214 273.9398 242.6328 281 250 C284.3418 253.4871 282.898 255.7902 286 260 C289.5434 264.8089 291.2446 264.1401 295 269 C299.515 274.843 300.531 275.6905 303 282 C304.5905 286.0646 302.6376 287.4585 304 292 C306.963 301.8766 309.4634 301.8537 312 312 C317.3037 333.2149 320 356 320 356 "/>
<path id="2" d="M321 357 C321 357 320.359 371.3731 324 377 C328.3633 383.7433 334.4221 389.4498 343 391 C368.5705 395.6212 375.9624 392.8062 407 392 C413.3449 391.8352 414.4392 391.1625 420 389 C422.5732 387.9993 422.7435 385.6943 425 385 C427.8972 384.1086 430.2737 386.2392 433 385 C439.3201 382.1272 441.2246 380.7754 447 375 C455.6631 366.3369 456.4245 365.4112 463 355 C468.0351 347.0278 470.7748 337.1876 471 337 C471.0261 336.9782 474.474 341.1428 475 345 C477.2326 361.3727 477.3659 365.9982 477 381 C476.9484 383.1169 475.9011 384.5214 474 386 C467.9288 390.7221 466.731 391.0522 459 395 C443.3532 402.9898 442.5631 403.9266 427 410 C423.1393 411.5066 422.4654 411 418 411 C381.2843 411 376.7616 415.4102 344 410 C327.299 407.242 309 393 309 393 "/>
<path id="3" d="M309 396 C309 396 300.3536 388.7213 293 381 C290.6144 378.4951 289.8527 377.7713 289 375 C288.1745 372.3171 289.9163 368.9163 289 368 C286.2511 365.2511 281.6443 362.7889 275 361 C269.9806 359.6486 263 361 263 361 "/>
<path id="4" d="M193 350 C193 350 192.1188 360.0128 194 367 C195.1564 371.295 197.9403 371.3189 200 376 C203.2205 383.3193 204.078 385.5459 205 392 C205.2601 393.8204 204.3997 395.4254 203 397 C201.0726 399.1684 199.971 400.2573 197 401 C187.3444 403.4139 178.1186 402.5824 175 404 C174.5753 404.1931 175 411 175 411 "/>
<path id="5" d="M247 372 C247 372 249.7392 386.7126 247 391 C242.4307 398.152 235.0709 402.6065 224 408 C217.9927 410.9266 208 410 208 410 "/>
<path id="6" d="M134 159 C134 159 127.8329 167.807 121 173 C116.4332 176.4708 110.4379 175.8432 109 178 C107.5621 180.1568 107.6644 188.7295 109 191 C110.0153 192.726 114.1762 193.928 119 195 C122.544 195.7876 125.0617 196.0437 127 195 C129.1247 193.8559 129.4706 189.5176 132 188 C135.0793 186.1524 142 186 142 186 "/>
<path id="7" d="M143 187 C143 187 153.987 191.9741 156 196 C158.5324 201.0649 157 215 157 215 "/>
<path id="8" d="M158 211 C158 211 156.2063 240.1884 158 244 C158.4636 244.9852 167.1268 246.0183 174 245 C179.0907 244.2458 185 240 185 240 "/>
<path id="9" d="M158 246 C158 246 151.7193 244.5388 148 246 C139.698 249.2615 129.9962 256.9894 130 257 C130.0069 257.019 144.9999 258.3462 152 257 C153.5787 256.6964 155.3424 252.0658 156 252 C156.8184 251.9182 159.1512 255.482 162 256 C173.5876 258.1068 181.9262 259.5005 189 258 C191.1052 257.5534 195 249 195 249 "/>
<path id="10" d="M168 258 C168 258 169.8807 263.1096 170 268 C170.3677 283.0749 172.4169 288.0171 169 299 C167.0309 305.3294 158.9436 310.4489 156 313 C155.8673 313.115 154 312 154 312 "/>
<path id="11" d="M168 318 C168 318 177.1367 324.4266 183 332 C188.4867 339.087 186.96 342.4777 192 349 C194.3526 352.0446 196.7492 352.9998 200 354 C201.5992 354.492 205 353 205 353 "/>
<path id="12" d="M156 314 C156 314 152.5932 314.5661 151 316 C148.3525 318.3827 146.3073 320.1318 146 323 C145.1524 330.9114 145.6452 340.3207 148 344 C149.3697 346.1402 160.8156 348.2369 162 348 C162.2153 347.9569 163.3676 342.6543 163 341 C162.8554 340.3491 160.3104 339.8278 160 339 C159.404 337.4107 159.1887 333.9916 160 333 C161.6717 330.9568 165.7342 330.672 169 328 C170.3154 326.9238 171 324 171 324 "/>
<path id="13" d="M159 312 C159 312 162.0588 297.6761 161 290 C160.6185 287.2342 155.018 282.964 155 283 C154.892 283.216 152.6613 296.1768 153 306 C153.0902 308.6146 155.846 311.9076 156 312 C156.0047 312.0028 158 309 158 309 "/>
<path id="14" d="M154 312 C154 312 154.6835 308.7088 154 307 C153.0978 304.7444 152.2868 303.3721 150 302 C143.4009 298.0405 134.0427 294.9763 134 295 C133.9988 295.0007 137.7871 304.6795 141 307 C143.404 308.7362 148.8814 306.5447 152 308 C153.8494 308.863 155.9455 313.8364 156 314 C156.005 314.0149 154 314 154 314 "/>
<path id="15" d="M155 330 C155 330 161.428 328.8366 162 329 C162.073 329.0209 162.2895 331.7105 162 332 C161.5175 332.4825 158.7366 333.2455 158 333 C157.3973 332.7991 155.8855 330.2672 156 330 C156.3283 329.234 160.9998 326.0003 161 326 C161.0001 325.9998 157 328 157 328 "/>
<path id="16" d="M154 323 C154 323 155.8384 326 156 326 C156.2423 326 159 323.1146 159 323 C159 322.9618 156 322 156 322 "/>
<path id="17" d="M146 158 C146 158 146.9929 164.0024 147 164 C147.0542 163.9819 152.0797 156.2391 152 156 C151.9539 155.8616 144.6412 154.7596 144 155 C143.8739 155.0473 144 159 144 159 "/>
<path id="18" d="M141 185 C141 185 150.3456 183.3148 154 184 C155.0696 184.2005 156.9488 188 157 188 C157.0171 188 158 184 158 184 "/>
<path id="19" d="M153 140 C153 140 148.4514 129.606 149 127 C149.3468 125.3529 155.4235 123.8027 157 121 C158.5859 118.1806 158 111 158 111 C158.1072 111.0107 164.6772 117.0963 167 122 C168.2175 124.5702 167.6074 128.9067 167 130 C166.7132 130.5163 162.9768 130.0232 162 131 C160.0464 132.9536 158 139 158 139 "/>
<path id="20" d="M170 139 C170 139 168 137.018 168 136 C168 133.6246 168.2836 131.3405 170 129 C172.9597 124.964 175.8111 125.0586 179 121 C180.602 118.9611 180.7662 115.1169 181 115 C181.1169 114.9416 184.4924 116.731 185 118 C185.7724 119.931 185.5277 121.8338 185 125 C184.5979 127.4123 184.4286 128.5714 183 130 C180.3469 132.6531 176.9542 132.6115 175 135 C173.8459 136.4105 174.0119 140.9762 174 141 C173.9973 141.0055 173 139 173 139 "/>
<path id="21" d="M177 410 C177 410 175.9636 413.9956 176 414 C178.4031 414.2913 209.8317 414.0168 210 414 C210.0183 413.9982 206 411 206 411 "/>
<path id="22" d="M175 404 C175 404 164.0054 409.9838 164 410 C163.9983 410.005 172.5389 409.8271 173 410 C173.0064 410.0024 171.9417 412.9611 172 413 C172.4473 413.2982 179 414 179 414 "/>
<path id="23" d="M243 348 C243 348 242.1747 353.8416 243 359 C244.0984 365.8653 245.561 366.1647 247 373 C247.4848 375.3027 247.5988 376.4032 247 378 C246.506 379.3174 244 381 244 381 "/>
<path id="24" d="M267 362 C267 362 259.4047 363.4566 254 366 C251.8638 367.0053 250.8743 368.2515 250 370 C249.4172 371.1657 250 374 250 374 "/>
<path id="25" d="M390 393 L408 394 "/>
<path id="26" d="M472 343 C472 343 474.1885 358.6899 472 371 C470.5601 379.0993 469.298 383.1435 464 388 C454.4149 396.7863 436 404 436 404 "/>
<path id="27" d="M174 287 C174 287 184.0622 286.6759 193 288 C196.9416 288.5839 200.2559 289.5117 201 291 C202.9135 294.827 200.9206 300.8706 203 308 C204.0003 311.4295 207.2411 311.8127 208 315 C209.2971 320.448 206.2196 325.987 208 329 C209.9943 332.3749 219.6779 334.1154 221 337 C222.4287 340.1171 217.6924 346.8358 219 353 C220.5874 360.4834 225.0286 362.0763 228 370 C229.0208 372.7223 228 377 228 377 "/>
<path id="28" d="M189 340 C189 340 199.5374 347.1325 209 350 C214.3414 351.6186 215.9717 351.0394 222 350 C229.8192 348.6519 238 345 238 345 "/>
<path id="29" d="M113 190 L128 183 "/>
</g>
</g>
</svg>
