<?xml version="1.0" encoding="utf-8"?>
<!DOCTYPE svg PUBLIC "-//W3C//DTD SVG 1.1//EN" "http://www.w3.org/Graphics/SVG/1.1/DTD/svg11.dtd">
<svg viewBox="0 0 800 800" preserveAspectRatio="xMinYMin meet" xmlns="http://www.w3.org/2000/svg" version="1.1">
<g fill="none" stroke="black" stroke-linecap="round" stroke-linejoin="round" stroke-width="1.7761">
<g transform="translate(248.8272,87.52) scale(1.6891) translate(-223,-66.1333)">
<path id="0" d="M312 69.1333 C312 69.1333 308.8044 67.1333 306 67.1333 C284.9669 67.1333 282.4484 65.8336 261 69.1333 C244.6497 71.6488 241.3102 73.529 228 79.1333 C225.3078 80.2669 223.9638 82.4347 223 85.1333 C222.0097 87.9062 222.244 89.8575 223 93.1333 C223.5379 95.4642 224.1261 96.78 226 98.1333 C231.8893 102.3867 233.4799 104.5632 241 106.1333 C276.3201 113.5079 279.2626 112.8093 317 117.1333 C326.7689 118.2527 328.14 119.1022 337 117.1333 C349.0595 114.4534 350.483 113.0474 362 107.1333 C368.3524 103.8713 371.1816 102.2525 374 98.1333 C375.7496 95.5762 375.7646 90.8093 375 88.1333 C374.5727 86.638 372.6996 85.4831 370 84.1333 C360.1658 79.2162 359.69 78.1399 349 75.1333 C328.3157 69.3159 306 66.1333 306 66.1333 "/>
<path id="1" d="M223 91.1333 C223 91.1333 222.0398 96.4696 223 101.1333 C228.8458 129.527 228.0687 131.9958 237 159.1333 C240.5592 169.9478 242.334 170.4374 249 180.1333 C253.0736 186.0586 253.3404 186.9187 259 191.1333 C276.0716 203.8462 282.594 202.6211 296 215.1333 C301.5971 220.3573 301.9316 224.2393 304 233.1333 C306.6521 244.5373 306 258.1333 306 258.1333 "/>
<path id="2" d="M373 92.1333 C373 92.1333 374.4969 114.5785 373 136.1333 C372.0356 150.0201 371.4993 150.7725 368 164.1333 C366.1409 171.2316 366.3026 173.1585 362 178.1333 C351.801 189.9259 347.1502 188.6866 336 201.1333 C326.3101 211.95 325.92 213.6773 319 226.1333 C316.4552 230.7139 316.4904 231.7384 316 237.1333 C315.0428 247.6621 315.0428 248.6045 316 259.1333 C316.4904 264.5283 319 270.1333 319 270.1333 "/>
<path id="3" d="M306 260.1333 C306 260.1333 298.5185 280.3848 289 299.1333 C282.1809 312.5649 282.3945 315.0342 273 325.1333 C263.9635 334.8476 260.2364 333.0227 249 342.1333 C241.9993 347.8095 241.3022 348.1441 236 355.1333 C230.7058 362.112 230.5317 362.9833 227 371.1333 C224.2078 377.5769 223.7034 378.2749 223 385.1333 C221.7796 397.0318 222.0016 398.1531 223 410.1333 C223.4493 415.5244 223.5691 418.7024 226 421.1333 C230.1673 425.3006 233.8401 426.1025 242 429.1333 C250.9709 432.4654 251.6298 433.4774 261 434.1333 C300.2919 436.8838 302.3398 436.1333 342 436.1333 C347.3859 436.1333 347.9478 435.9947 353 434.1333 C375.8142 425.7281 399 415.1333 399 415.1333 "/>
<path id="4" d="M320 269.1333 C320 269.1333 321.3894 277.0231 325 283.1333 C340.3524 309.1143 341.7035 309.3727 359 335.1333 C365.1782 344.335 364.7618 345.0436 372 353.1333 C381.4752 363.7232 383.9368 362.9826 393 373.1333 C395.7064 376.1645 395.9533 377.0629 397 381.1333 C400.2791 393.8855 403.4371 399.7158 402 408.1333 C401.1179 413.3001 390 422.1333 390 422.1333 "/>
<path id="5" d="M227 381.1333 C227 381.1333 252.4541 378.0148 274 381.1333 C288.0241 383.1631 288.9695 389.1071 303 392.1333 C312.8389 394.2554 314.4056 393.6468 325 392.1333 C359.1223 387.2587 394 379.1333 394 379.1333 "/>
<path id="6" d="M313 273.1333 L313 289.1333 "/>
<path id="7" d="M312 307.1333 L312 315.1333 "/>
<path id="8" d="M315 346.1333 L314 351.1333 "/>
<path id="9" d="M300 361.1333 L299 373.1333 "/>
<path id="10" d="M320 378.1333 L321 391.1333 "/>
<path id="11" d="M236 157.1333 C236 157.1333 255.3946 153.2499 271 155.1333 C281.8139 156.4385 283.3781 163.4524 294 164.1333 C318.663 165.7143 326.575 159.7774 349 160.1333 C352.298 160.1857 353.2836 164.2042 357 165.1333 C361.8213 166.3387 369 165.1333 369 165.1333 "/>
<path id="12" d="M309 239.4167 L311 247.4167 "/>
</g>
</g>
</svg>
