<?xml version="1.0" encoding="utf-8"?>
<!DOCTYPE svg PUBLIC "-//W3C//DTD SVG 1.1//EN" "http://www.w3.org/Graphics/SVG/1.1/DTD/svg11.dtd">
<svg viewBox="0 0 800 800" preserveAspectRatio="xMinYMin meet" xmlns="http://www.w3.org/2000/svg" version="1.1">
<g fill="none" stroke="black" stroke-linecap="round" stroke-linejoin="round" stroke-width="1.8529">
<g transform="translate(115.0441,87.52) scale(1.6191) translate(-98,-53.1333)">
<path id="0" d="M140 135.1333 C140 135.1333 163.8308 152.585 185 166.1333 C186.8414 167.3118 188.5223 165.9195 190 167.1333 C200.4256 175.6972 205.1348 177.5814 213 189.1333 C219.501 198.6817 216.6863 202.5097 222 214.1333 C224.4091 219.4033 228.2265 219.4278 229 224.1333 C233.4272 251.0658 237.1592 259.4906 234 287.1333 C231.7763 306.5908 227.2088 309.8825 217 329.1333 C210.2871 341.7919 208.542 341.9462 199 353.1333 C194.3003 358.6433 193.4745 359.6758 188 363.1333 C185.0714 364.983 183.0234 363.1616 180 365.1333 C161.7185 377.0561 161.1926 382.1212 142 393.1333 C132.4095 398.6361 125.5611 396.3481 119 400.1333 C117.1521 401.1994 115.8082 407.9799 116 408.1333 C117.1961 409.0902 125.1145 411.4364 134 412.1333 C150.0109 413.3891 151.002 410.7049 167 412.1333 C178.3666 413.1482 178.6072 416.3291 190 417.1333 C220.2814 419.2708 221.0321 418.1333 252 418.1333 C268.9824 418.1333 269.3407 418.9002 286 417.1333 C301.9414 415.4426 302.0985 412.0827 318 411.1333 C368.1835 408.1373 371.9204 411.3188 420 409.1333 C423.8318 408.9592 427.9085 406.713 428 406.1333 C428.3265 404.0652 426.306 394.2172 423 390.1333 C420.5735 387.1359 416.1768 388.5501 411 385.1333 C391.8896 372.5205 392.4771 368.5199 373 357.1333 C361.2333 350.2543 358.8539 353.2542 346 347.1333 C306.7254 328.4311 289.8745 327.5656 268 307.1333 C257.5649 297.3863 258.3783 283.6317 255 262.1333 C253.2272 250.8521 254.1713 247.3168 257 237.1333 C258.4636 231.8645 260.467 230.8724 265 226.1333 C271.1708 219.682 271.3822 218.6828 279 214.1333 C306.537 197.6877 310.872 200.4432 337 183.1333 C349.1679 175.0721 347.4196 170.1081 359 161.1333 C366.4064 155.3934 369.7627 158.0137 377 152.1333 C392.5469 139.5015 396.3213 135.2234 407 122.1333 C408.7282 120.0149 408.6154 117.0052 408 114.1333 C407.458 111.604 406.4508 110.339 404 108.1333 C397.0127 101.8448 396.3141 99.6965 388 96.1333 C373.5066 89.9219 371.4502 90.0998 355 87.1333 C341.5252 84.7034 340.8827 84.8461 327 85.1333 C268.8527 86.3364 265.3254 81.6442 210 90.1333 C174.4454 95.5888 166.7372 102.5638 138 114.1333 C135.2488 115.241 133.6903 117.958 133 121.1333 C131.6343 127.4157 131.5788 132.159 133 137.1333 C133.5964 139.2208 139 142.1333 139 142.1333 "/>
<path id="1" d="M189 158.1333 C189 158.1333 198.7004 152.1747 208 150.1333 C217.9552 147.948 222.3274 147.1023 230 149.1333 C235.1704 150.502 235.8417 155.9402 242 159.1333 C248.1184 162.3059 250.2006 162.9067 257 163.1333 C263.6945 163.3565 264.6974 160.2592 272 160.1333 C292.8456 159.7739 294.1993 159.9438 315 162.1333 C321.942 162.8641 322.4698 163.8286 329 166.1333 C330.5702 166.6875 331.7789 167.6911 332 168.1333 C332.0948 168.3228 331 170.1333 331 170.1333 "/>
<path id="2" d="M242 318.1333 L246 321.1333 "/>
<path id="3" d="M248 334.1333 L248 338.1333 "/>
<path id="4" d="M247 344.1333 L247 352.1333 "/>
<path id="5" d="M248 357.1333 L248 363.1333 "/>
<path id="6" d="M247 369.1333 L246 376.1333 "/>
<path id="7" d="M245 385.1333 L246 390.1333 "/>
<path id="8" d="M249 390.1333 C249 390.1333 251.5842 390.4452 252 390.1333 C252.4504 389.7955 253 387.1333 253 387.1333 "/>
<path id="9" d="M157 403.1333 C157 403.1333 169.5226 405.4748 181 404.1333 C207.0316 401.0907 209.4547 400.5529 234 394.1333 C240.1041 392.5369 240.4282 388.1084 246 387.1333 C257.7966 385.0689 260.3652 385.9971 274 387.1333 C283.9014 387.9585 286.6552 388.0259 294 391.1333 C297.0343 392.4171 296.667 396.2817 300 398.1333 C308.5759 402.8977 321 406.1333 321 406.1333 "/>
<path id="10" d="M133 130.1333 C133 130.1333 122.0587 129.5048 122 129.1333 C120.8067 121.5755 122.1279 100.8401 124 73.1333 C124.6071 64.149 125.7506 55.4457 127 55.1333 C139.9105 51.9057 165.644 52.472 204 53.1333 C252.3832 53.9675 252.6717 57.5841 301 58.1333 C340.3202 58.5802 341.0569 53.8177 380 55.1333 C414.1907 56.2884 443.3113 56.957 449 63.1333 C454.4795 69.0825 453.4916 123.4954 450 131.1333 C449.1168 133.0654 433.0443 131.1278 417 133.1333 C409.5207 134.0682 402 137.1333 402 137.1333 "/>
<path id="11" d="M405 378.1333 C405 378.1333 425.9895 376.6778 442 378.1333 C445.1864 378.423 448.1606 380.4545 449 382.1333 C450.1192 384.3718 450.0198 387.6169 449 392.1333 C446.6971 402.3317 444.1665 402.92 442 413.1333 C440.8438 418.5841 443.0554 420.12 442 425.1333 C441.3103 428.4096 440.1183 430.5446 438 432.1333 C435.8245 433.765 433.9073 434.0149 430 434.1333 C401.8852 434.9853 400.7945 432.8003 372 434.1333 C347.0622 435.2879 346.9288 438.3733 322 439.1333 C265.3352 440.8609 255.8148 439.9507 208 439.1333 C206.7274 439.1116 206.3047 437.2124 205 437.1333 C192.4595 436.3733 188.8083 438.5142 175 437.1333 C170.2131 436.6546 169.8208 433.875 165 433.1333 C157.7339 432.0155 156.5654 434.0063 149 433.1333 C144.1079 432.5689 143.9133 430.5428 139 430.1333 C120.7447 428.6121 103.5183 432.0202 101 429.1333 C97.4147 425.0234 95.7534 385.431 98 383.1333 C100.3451 380.7349 145 384.1333 145 384.1333 "/>
<path id="12" d="M135 141.1333 C135 141.1333 135.874 157.8185 135 174.1333 C134.3866 185.5838 132 185.825 132 197.1333 C132 224.6666 134.5889 225.1783 135 253.1333 C135.5867 293.0303 135.6667 293.9657 134 333.1333 C133.7058 340.0465 131 340.4223 131 347.1333 C131 365.3489 132.2677 378.3776 134 385.1333 C134.1249 385.6204 139.954 386.5982 141 386.1333 C141.6737 385.8339 142.9586 383.4734 143 381.1333 C143.8883 330.9423 140.2113 326.119 143 273.1333 C144.147 251.34 149.8199 250.8816 151 229.1333 C153.2561 187.5567 149.5741 182.0411 150 144.1333 C150.0202 142.3392 152 140.1333 152 140.1333 "/>
<path id="13" d="M426 140.1333 C426 140.1333 428.5746 145.7447 429 151.1333 C430.0222 164.0811 429.892 164.7535 429 178.1333 C426.9055 209.5511 426.8233 210.5473 423 241.1333 C422.4378 245.6313 420.3739 245.7713 420 250.1333 C418.9499 262.3848 421.4227 263.5319 420 276.1333 C417.9868 293.9646 414.1995 294.3122 413 312.1333 C410.7635 345.3606 411.645 373.1501 413 380.1333 C413.0303 380.2897 423.7264 380.9282 426 379.1333 C428.8116 376.9137 431.6103 371.6807 432 365.1333 C433.8985 333.2381 432.3669 329.9897 431 295.1333 C430.3732 279.1494 428 278.4054 428 263.1333 C428 256.4518 430.6824 256.0668 431 249.1333 C433.6312 191.6852 434 132.1333 434 132.1333 "/>
<path id="14" d="M336 169.1333 C336 169.1333 336.3391 180.9463 334 189.1333 C332.8954 192.9994 328 197.1333 328 197.1333 "/>
<path id="15" d="M198 159.1333 C198 159.1333 194.3671 160.3074 194 161.1333 C193.3199 162.6637 192.8166 165.851 194 168.1333 C198.6084 177.021 200.9084 179.5487 208 188.1333 C209.602 190.0725 213 191.1333 213 191.1333 "/>
<path id="16" d="M338 180.1333 C338 180.1333 337.4684 184.1894 336 185.1333 C315.1811 198.5169 306.7723 200.0117 282 216.1333 C276.8208 219.5039 277.9206 222.15 273 226.1333 C267.9149 230.2499 264.2962 229.1046 261 233.1333 C257.098 237.9024 256.3578 240.8918 255 248.1333 C253.5685 255.7679 256.4512 259.8124 255 265.1333 C254.4335 267.2105 249.7272 267.7903 249 270.1333 C246.3581 278.6461 246 294.1333 246 294.1333 "/>
<path id="17" d="M238 248.1333 C238 248.1333 243.0218 257.6818 245 267.1333 C247.3604 278.4108 247 279.3134 247 291.1333 C247 301.9682 245 313.1333 245 313.1333 "/>
<path id="18" d="M246 326.1333 L247 329.1333 "/>
<path id="19" d="M250 345.1333 L252 354.1333 "/>
<path id="20" d="M252 364.1333 L252 366.1333 "/>
<path id="21" d="M254 375.1333 L255 382.1333 "/>
</g>
</g>
</svg>
