<?xml version="1.0" encoding="utf-8"?>
<!DOCTYPE svg PUBLIC "-//W3C//DTD SVG 1.1//EN" "http://www.w3.org/Graphics/SVG/1.1/DTD/svg11.dtd">
<svg viewBox="0 0 800 800" preserveAspectRatio="xMinYMin meet" xmlns="http://www.w3.org/2000/svg" version="1.1">
<g fill="none" stroke="black" stroke-linecap="round" stroke-linejoin="round" stroke-width="1.7761">
<g transform="translate(268.2517,87.52) scale(1.6891) translate(-241,-14.1333)">
<path id="0" d="M260 65.1333 C260 65.1333 257.3347 67.2588 257 69.1333 C255.2025 79.1996 256.0957 86.2855 255 93.1333 C254.9405 93.505 253.0123 93.8493 253 94.1333 C252.4887 105.8923 250.4253 118.8577 253 139.1333 C254.088 147.7013 255.7029 151.0515 261 157.1333 C267.2689 164.331 272.8271 163.6125 280 170.1333 C282.1794 172.1146 281.1421 175.2754 283 177.1333 C284.8579 178.9912 289.3568 178.654 290 180.1333 C292.2673 185.3482 292.7781 190.3714 293 200.1333 C293.2648 211.7858 292.2141 219.0747 291 224.1333 C290.9028 224.5384 287.9243 224.209 287 225.1333 C284.5967 227.5366 284.034 231.5061 282 233.1333 C281.1079 233.847 277.9868 232.5694 277 233.1333 C276.1542 233.6167 276.0722 236.2399 275 237.1333 C274.0283 237.943 271.8406 237.2086 271 238.1333 C268.1979 241.2157 266.3874 243.0882 265 248.1333 C261.2635 261.7206 261.3302 263.2353 260 278.1333 C258.8641 290.8556 260.2485 300.9024 260 304.1333 C259.9985 304.1524 258 304.1333 258 304.1333 C258 305.3017 260 310.7946 260 317.1333 C260 330.7859 258 345.1333 258 345.1333 "/>
<path id="1" d="M377 60.1333 C377 60.1333 379.6026 101.9898 376 135.1333 C375.1377 143.0667 372.3748 144.967 367 152.1333 C362.4739 158.1682 360.9665 159.051 355 163.1333 C352.4429 164.8829 350.0136 163.3028 348 165.1333 C340.8383 171.644 339.5179 173.8221 333 183.1333 C329.2951 188.426 328.9246 189.1191 327 195.1333 C325.1141 201.0266 325 201.9102 325 208.1333 C325 214.8351 324.6338 216.9706 327 222.1333 C329.2407 227.022 331.1502 228.3045 336 232.1333 C340.0037 235.2942 342.3857 233.8805 346 237.1333 C351.409 242.0014 355.194 244.3571 356 250.1333 C360.1029 279.5372 356.0548 286.9531 358 323.1333 C358.5364 333.111 361 343.1333 361 343.1333 "/>
<path id="2" d="M330 35.1333 C330 35.1333 304.6387 32.3499 291 35.1333 C286.7892 35.9927 285.049 42.0187 281 45.1333 C280.3134 45.6615 278.4949 44.6384 278 45.1333 C273.5456 49.5877 272.2785 54.1688 266 60.1333 C263.1777 62.8145 259.9536 62.1797 258 64.1333 C257.0232 65.1101 257 69.1333 257 69.1333 "/>
<path id="3" d="M333 37.1333 C333 37.1333 338.156 35.8693 341 37.1333 C349.6506 40.9781 350.2472 44.3887 360 49.1333 C368.214 53.1293 371.5815 51.7713 378 55.1333 C379.7058 56.0269 380.6723 58.0035 381 60.1333 C381.4707 63.1931 380 68.1333 380 68.1333 "/>
<path id="4" d="M258 348.1333 C258 348.1333 263.6514 356.1022 270 362.1333 C273.1994 365.1728 274.2941 366.6039 278 367.1333 C292.5198 369.2076 295.6314 369.4534 312 368.1333 C325.7456 367.0248 329.5693 365.4981 340 362.1333 C341.4949 361.6511 341.2526 359.2254 343 358.1333 C348.3216 354.8073 352.937 355.1963 356 352.1333 C357.7733 350.36 358 343.1333 358 343.1333 "/>
<path id="5" d="M302 263.1333 C302 263.1333 299.0576 263.7392 298 265.1333 C289.4592 276.3916 290.0292 280.6713 280 292.1333 C273.4605 299.6071 268.0072 300.4207 263 305.1333 C262.5164 305.5885 262.589 307.768 263 308.1333 C265.072 309.9751 267.8919 312.7852 272 313.1333 C293.7964 314.9805 297.1166 314.0014 322 313.1333 C339.9682 312.5065 355.4935 310.7968 358 310.1333 C358.0281 310.1259 357.4301 305.4334 356 304.1333 C353.5758 301.9295 350.4019 303.0176 347 300.1333 C328.6953 284.6141 310 265.1333 310 265.1333 "/>
<path id="6" d="M303 182.1333 C303 182.1333 314.8842 182.0947 315 182.1333 C315.0193 182.1398 313.3114 184.6962 312 185.1333 C310.0329 185.789 306.0015 185.1288 306 185.1333 C305.999 185.1364 310.4742 187.2132 311 188.1333 C311.3078 188.6719 310.4942 191.7379 310 192.1333 C309.5293 192.5099 306 192.1333 306 192.1333 C306 192.1361 310 193.8833 310 194.1333 C310 195.1333 306.2429 198.4895 306 202.1333 C304.9147 218.4132 307 239.1333 307 239.1333 "/>
<path id="7" d="M276 163.1333 C276 163.1333 276.1472 167.6217 277 168.1333 C281.9462 171.101 286.7949 173.8183 296 175.1333 C309.8076 177.1058 312.3036 177.2818 326 175.1333 C336.1604 173.5395 347 167.1333 347 167.1333 "/>
<path id="8" d="M318 185.1333 C318 185.1333 311 185.1333 311 185.1333 C310.9951 185.1366 312.9484 186.4114 313 187.1333 C313.2871 191.1523 312 199.1333 312 199.1333 "/>
<path id="9" d="M256 333.1333 C256 333.1333 242.9389 342.0184 241 348.1333 C238.5106 355.9846 240.8013 364.3964 243 374.1333 C243.5094 376.3895 245.3205 377.7148 248 379.1333 C252.9468 381.7522 254.1415 382.6194 260 383.1333 C281.3867 385.0094 282.5804 384.4136 305 384.1333 C322.4548 383.9151 323.2963 384.4719 340 382.1333 C347.4333 381.0927 349.9703 380.4026 355 377.1333 C357.8111 375.3061 356.8937 371.6184 360 369.1333 C368.0655 362.6809 375.0712 362.7342 380 357.1333 C382.4577 354.3405 383.3602 346.4003 382 344.1333 C379.441 339.8684 365 332.1333 365 332.1333 "/>
<path id="10" d="M275 19.1333 C275 19.1333 270.0827 18.0123 267 19.1333 C260.4843 21.5027 257.5284 23.171 253 27.1333 C251.4366 28.5013 252.1243 31.5593 251 33.1333 C250.5243 33.7993 248.0138 33.9258 248 34.1333 C247.8401 36.5316 248.0124 45.1519 250 48.1333 C251.3827 50.2074 255.134 51.6211 260 52.1333 C282.0445 54.4538 283.5283 53.9569 307 54.1333 C349.9308 54.4561 361.4187 54.5527 393 53.1333 C394.1506 53.0816 395.8492 51.2646 396 50.1333 C396.5264 46.185 395.6464 39.6846 395 38.1333 C394.9132 37.9251 392.356 38.8113 391 38.1333 C384.7286 34.9976 383.7112 31.3704 377 29.1333 C370.5519 26.984 368.3258 29.9153 361 28.1333 C350.6512 25.6161 350.5299 22.7658 340 20.1333 C329.1268 17.415 323.8802 18.5667 317 17.1333 C316.5874 17.0474 316.2836 15.1454 316 15.1333 C303.9788 14.6218 289.9557 13.6272 270 15.1333 C266.8323 15.3724 263 19.1333 263 19.1333 "/>
<path id="11" d="M261 62.1333 C261 62.1333 261.9434 54.1495 262 54.1333 C262.0738 54.1122 265.6243 59.3414 268 60.1333 C270.5736 60.9912 277 59.1333 277 59.1333 C277 59.1333 264.3671 60.5239 263 60.1333 C262.8576 60.0926 263.0013 55.1321 263 55.1333 C262.9972 55.1361 260 63.1333 260 63.1333 "/>
<path id="12" d="M260 55.1333 C260 55.1333 258.05 55.0333 258 55.1333 C257.8 55.5333 258 59.1333 258 59.1333 "/>
<path id="13" d="M300 14.1333 C300 14.1333 329.9404 13.1098 347 14.1333 C348.1542 14.2026 348.4941 16.7192 350 17.1333 C365.4326 21.3773 376.6667 22.1421 387 25.1333 C387.4911 25.2755 387.271 27.623 388 28.1333 C390.775 30.0758 396.2969 30.4927 397 32.1333 C398.5213 35.683 398.3568 44.3847 397 49.1333 C396.5439 50.7295 393.6055 53.0116 391 53.1333 C348.446 55.1218 290 54.1333 290 54.1333 "/>
<path id="14" d="M303 199.1333 C303 199.1333 316 199.1333 316 199.1333 C316 199.1333 307.428 199.7049 306 200.1333 C305.9168 200.1583 305.8821 202.0828 306 202.1333 C307.0221 202.5714 312.8776 202.9497 313 203.1333 C313.0648 203.2306 311.53 206.8219 310 208.1333 C308.98 209.0076 305.9987 209.132 306 209.1333 C306.003 209.1363 311.9705 210.0448 312 210.1333 C312.0361 210.2415 308.9022 212.8777 308 215.1333 C307.3165 216.8421 307.4012 218.5365 308 220.1333 C308.494 221.4507 311 222.2269 311 223.1333 C311 227.6654 308 238.1333 308 238.1333 "/>
<path id="15" d="M312 268.1333 L305 267.1333 "/>
</g>
</g>
</svg>
