<?xml version="1.0" encoding="utf-8"?>
<!DOCTYPE svg PUBLIC "-//W3C//DTD SVG 1.1//EN" "http://www.w3.org/Graphics/SVG/1.1/DTD/svg11.dtd">
<svg viewBox="0 0 800 800" preserveAspectRatio="xMinYMin meet" xmlns="http://www.w3.org/2000/svg" version="1.1">
<g fill="none" stroke="black" stroke-linecap="round" stroke-linejoin="round" stroke-width="1.6033">
<g transform="translate(145.5253,87.52) scale(1.8711) translate(-133,-111.1333)">
<path id="0" d="M170 119.1333 C170 119.1333 168.4853 127.5064 170 134.1333 C172.2043 143.7771 174.9456 143.9521 178 154.1333 C183.8633 173.6776 181.2791 175.4318 188 194.1333 C192.4204 206.4334 195.5186 205.9523 201 218.1333 C204.3513 225.5807 205.5151 226.3744 206 234.1333 C207.9026 264.5744 207.858 267.2902 206 298.1333 C205.4397 307.435 204.4859 308.1697 201 317.1333 C194.1392 334.7753 194.6707 335.9569 185 352.1333 C167.5716 381.2864 164.2672 380.3722 146 409.1333 C141.0672 416.8999 138 426.1333 138 426.1333 "/>
<path id="1" d="M390 124.1333 C390 124.1333 393.0877 136.8334 391 146.1333 C388.1531 158.8151 387.1777 162.1811 379 173.1333 C360.6132 197.7586 355.1453 196.5927 335 221.1333 C328.2873 229.3106 325.5676 231.298 324 240.1333 C320.7828 258.2665 319.3609 264.2457 324 283.1333 C332.4018 317.3406 335.9348 320.0639 352 354.1333 C364.6201 380.8967 368.5118 379.8669 382 406.1333 C387.2244 416.3071 385.6675 417.499 390 428.1333 C391.0672 430.7529 392.8842 433.0465 393 433.1333 C393.0086 433.1398 394 431.1333 394 431.1333 "/>
<path id="2" d="M160 116.1333 C160 116.1333 168.1837 120.1563 176 121.1333 C187.2837 122.5438 188.8499 122.1787 200 121.1333 C203.8474 120.7726 205.9467 118.3387 208 118.1333 C208.4453 118.0888 209.2523 120.1131 210 120.1333 C236.2088 120.8417 246.5859 118.9396 282 120.1333 C290.4114 120.4169 290.5312 122.5284 299 123.1333 C318.2217 124.5063 318.5033 123.9214 338 124.1333 C364.4882 124.4212 379.6575 125.3707 391 124.1333 C391.5681 124.0714 393.2895 118.5676 393 118.1333 C392.483 117.3578 388.8014 115.2917 385 115.1333 C355.057 113.8857 351.6999 116.7077 321 115.1333 C314.186 114.7839 313.7784 111.3083 307 111.1333 C239.2316 109.3845 196.4157 109.2323 166 111.1333 C165.2315 111.1814 163 120.1333 163 120.1333 "/>
<path id="3" d="M133 424.1333 C133 424.1333 142.9253 426.5655 152 426.1333 C163.132 425.6032 163.5853 423.2204 175 422.1333 C184.2759 421.2499 184.594 421.6108 194 422.1333 C202.4709 422.6039 202.7286 422.5324 211 424.1333 C218.0284 425.4937 218.8454 425.5419 225 428.1333 C227.6229 429.2377 227.5785 431.4729 230 432.1333 C236.9753 434.0357 238.5302 433.7394 247 434.1333 C259.8832 434.7326 261.128 435.2126 273 434.1333 C276.3208 433.8314 276.8253 431.2072 280 431.1333 C296.145 430.7579 301.0253 431.2615 316 433.1333 C317.8073 433.3592 318.3665 436.0966 320 436.1333 C354.1272 436.9002 399.1335 434.6386 405 435.1333 C405.0916 435.1411 403.5192 443.0918 403 443.1333 C378.7807 445.0709 341.2468 445.5068 280 445.1333 C259.5733 445.0088 257.8319 445.4962 239 442.1333 C231.6324 440.8177 231.0577 435.8292 224 435.1333 C198.8101 432.6498 194.3165 438.1582 168 435.1333 C152.8918 433.3968 145.119 430.4687 137 425.1333 C134.2895 423.3522 133 412.1333 133 412.1333 "/>
<path id="4" d="M211 163.1333 L217 164.1333 "/>
<path id="5" d="M236 163.1333 L239 163.1333 "/>
<path id="6" d="M292 161.1333 L293 161.1333 "/>
<path id="7" d="M308 161.1333 L314 169.1333 "/>
<path id="8" d="M315 175.1333 L310 190.1333 "/>
<path id="9" d="M309 189.1333 L299 196.1333 "/>
<path id="10" d="M293 198.1333 L285 197.1333 "/>
<path id="11" d="M268 174.1333 L267 167.1333 "/>
<path id="12" d="M258 169.1333 L251 184.1333 "/>
<path id="13" d="M240 199.1333 L235 209.1333 "/>
<path id="14" d="M206 193.1333 L207 199.1333 "/>
<path id="15" d="M233 209.1333 L239 211.1333 "/>
<path id="16" d="M256 208.1333 L260 213.1333 "/>
<path id="17" d="M275 213.1333 L276 214.1333 "/>
<path id="18" d="M285 212.1333 L288 215.1333 "/>
<path id="19" d="M296 218.1333 L304 215.1333 "/>
<path id="20" d="M319 206.1333 L321 209.1333 "/>
<path id="21" d="M311 237.1333 L311 241.1333 "/>
<path id="22" d="M303 240.1333 L299 240.1333 "/>
<path id="23" d="M287 237.1333 L276 242.1333 "/>
<path id="24" d="M265 238.1333 L260 240.1333 "/>
<path id="25" d="M239 234.1333 L235 238.1333 "/>
<path id="26" d="M227 228.1333 L223 220.1333 "/>
<path id="27" d="M214 147.1333 L218 146.1333 "/>
<path id="28" d="M232 141.1333 L251 141.1333 "/>
<path id="29" d="M256 139.1333 L265 138.1333 "/>
<path id="30" d="M277 142.1333 L287 147.1333 "/>
<path id="31" d="M299 151.1333 L302 150.1333 "/>
<path id="32" d="M309 140.1333 L313 140.1333 "/>
<path id="33" d="M325 149.1333 L329 152.1333 "/>
<path id="34" d="M344 150.1333 L346 150.1333 "/>
<path id="35" d="M358 159.1333 L360 164.1333 "/>
<path id="36" d="M345 180.1333 L335 182.1333 "/>
<path id="37" d="M330 179.1333 L331 178.1333 "/>
<path id="38" d="M334 170.1333 L330 171.1333 "/>
<path id="39" d="M315 176.1333 L308 179.1333 "/>
<path id="40" d="M302 179.1333 L289 183.1333 "/>
<path id="41" d="M270 180.1333 L256 179.1333 "/>
<path id="42" d="M223 180.1333 L218 184.1333 "/>
<path id="43" d="M261 263.1333 L260 268.1333 "/>
<path id="44" d="M260 283.1333 L260 289.1333 "/>
<path id="45" d="M259 304.1333 L259 307.1333 "/>
<path id="46" d="M264 323.1333 L264 329.1333 "/>
<path id="47" d="M254 355.1333 L254 356.1333 "/>
<path id="48" d="M266 358.1333 L264 364.1333 "/>
<path id="49" d="M346 416.1333 L348 416.1333 "/>
<path id="50" d="M326 414.1333 L324 417.1333 "/>
<path id="51" d="M358 422.1333 L352 424.1333 "/>
<path id="52" d="M341 420.1333 L336 419.1333 "/>
<path id="53" d="M301 407.1333 L295 410.1333 "/>
<path id="54" d="M289 414.1333 L284 422.1333 "/>
<path id="55" d="M283 426.1333 L283 428.1333 "/>
<path id="56" d="M272 427.1333 L268 426.1333 "/>
<path id="57" d="M249 414.1333 L246 416.1333 "/>
<path id="58" d="M235 415.1333 L233 418.1333 "/>
<path id="59" d="M267 428.1333 L265 426.1333 "/>
<path id="60" d="M250 413.1333 L244 415.1333 "/>
<path id="61" d="M215 405.1333 L213 408.1333 "/>
<path id="62" d="M207 406.1333 L202 409.1333 "/>
<path id="63" d="M180 404.1333 L179 406.1333 "/>
<path id="64" d="M172 406.1333 L169 408.1333 "/>
<path id="65" d="M158 408.1333 L154 411.1333 "/>
<path id="66" d="M155 413.1333 L155 415.1333 "/>
<path id="67" d="M158 410.1333 L159 409.1333 "/>
<path id="68" d="M165 400.1333 L166 401.1333 "/>
<path id="69" d="M169 399.1333 L167 401.1333 "/>
<path id="70" d="M160 399.1333 L160 401.1333 "/>
<path id="71" d="M172 400.1333 L199 406.1333 "/>
<path id="72" d="M182 400.1333 L190 399.1333 "/>
<path id="73" d="M214 401.1333 L220 404.1333 "/>
<path id="74" d="M244 406.1333 L251 409.1333 "/>
<path id="75" d="M266 414.1333 L267 416.1333 "/>
<path id="76" d="M276 409.1333 L276 408.1333 "/>
<path id="77" d="M285 406.1333 L281 409.1333 "/>
<path id="78" d="M265 409.1333 L271 407.1333 "/>
<path id="79" d="M274 405.1333 L288 407.1333 "/>
<path id="80" d="M290 406.1333 L297 408.1333 "/>
<path id="81" d="M304 409.1333 L324 412.1333 "/>
<path id="82" d="M333 408.1333 L340 412.1333 "/>
<path id="83" d="M345 412.1333 L346 413.1333 "/>
<path id="84" d="M351 411.1333 L354 414.1333 "/>
<path id="85" d="M373 412.1333 L370 414.1333 "/>
<path id="86" d="M294 243.1333 L277 242.1333 "/>
<path id="87" d="M262 242.1333 L258 243.1333 "/>
<path id="88" d="M238 242.1333 L228 240.1333 "/>
<path id="89" d="M220 237.1333 L220 239.1333 "/>
<path id="90" d="M216 229.1333 L214 231.1333 "/>
<path id="91" d="M212 234.1333 L216 233.1333 "/>
<path id="92" d="M222 228.1333 L227 229.1333 "/>
<path id="93" d="M235 225.1333 L242 224.1333 "/>
<path id="94" d="M251 224.1333 L256 225.1333 "/>
<path id="95" d="M259 223.1333 L260 223.1333 "/>
<path id="96" d="M267 223.1333 L268 226.1333 "/>
<path id="97" d="M274 227.1333 L290 227.1333 "/>
<path id="98" d="M305 221.1333 L308 220.1333 "/>
<path id="99" d="M310 220.1333 L301 231.1333 "/>
<path id="100" d="M276 229.1333 L277 228.1333 "/>
<path id="101" d="M280 225.1333 L282 226.1333 "/>
<path id="102" d="M284 226.1333 L299 229.1333 "/>
<path id="103" d="M304 226.1333 L305 226.1333 "/>
<path id="104" d="M312 221.1333 L316 219.1333 "/>
<path id="105" d="M322 213.1333 L323 212.1333 "/>
<path id="106" d="M327 206.1333 L330 196.1333 "/>
<path id="107" d="M339 168.1333 L334 174.1333 "/>
</g>
</g>
</svg>
