<?xml version="1.0" encoding="utf-8"?>
<!DOCTYPE svg PUBLIC "-//W3C//DTD SVG 1.1//EN" "http://www.w3.org/Graphics/SVG/1.1/DTD/svg11.dtd">
<svg viewBox="0 0 800 800" preserveAspectRatio="xMinYMin meet" xmlns="http://www.w3.org/2000/svg" version="1.1">
<g fill="none" stroke="black" stroke-linecap="round" stroke-linejoin="round" stroke-width="2.0833">
<g transform="translate(232.96,87.52) scale(1.44) translate(-215,-45)">
<path id="0" d="M224 48 L447 48 "/>
<path id="1" d="M447 48 L447 78 "/>
<path id="2" d="M447 78 C447 78 394.7098 77.8115 347 80 C342.6445 80.1998 342.2866 82.8496 338 83 C315.4187 83.7923 312.363 83.9278 290 82 C285.189 81.5853 284.7385 78.267 280 78 C251.7322 76.4074 219 78 219 78 "/>
<path id="3" d="M219 78 L220 45 "/>
<path id="4" d="M232 75 C232 75 236.6655 80.3291 238 85 C239.2532 89.3861 238 96 238 96 "/>
<path id="5" d="M238 96 C238 96 353.3721 97.3586 419 97 C419.7292 96.996 421 95 421 95 "/>
<path id="6" d="M421 95 L426 82 "/>
<path id="7" d="M424 93 C424 93 423.3761 103.3461 425 107 C425.7995 108.7988 431.8708 109.7599 432 111 C433.1962 122.4831 432.0109 134.489 430 155 C429.6681 158.3851 429.2346 159.6826 427 162 C417.0289 172.3404 410.8211 172.1513 403 183 C397.4772 190.6606 400.2938 198.8984 396 205 C393.8561 208.0466 387.9965 206.5485 384 210 C378.5897 214.6725 377.9385 220.5538 374 224 C372.9379 224.9293 370.5428 223.2261 368 224 C359.8927 226.4675 356.5019 226.2841 351 231 C344.883 236.2431 345.5727 242.1341 340 248 C337.8481 250.2652 334.4707 248.9094 332 251 C329.2407 253.3348 326.9872 258.984 327 259 C327.0134 259.0168 335.1 256.675 336 256 C336.1 255.925 335 253 335 253 "/>
<path id="8" d="M352 244 C352 244 349.2625 246.7246 349 249 C347.9687 257.938 347.5624 265.6872 349 270 C349.3879 271.1638 355.3911 271.0198 357 273 C359.8897 276.5565 359.9223 283.9223 362 286 C362.9234 286.9234 367.7508 285.0629 370 286 C371.7103 286.7126 372.9749 288.5399 374 291 C375.1404 293.7369 374.0294 296.908 375 298 C376.0117 299.1381 379.3247 298.4394 382 300 C384.5934 301.5128 385.5073 302.2278 387 305 C392.0156 314.3146 392.7384 321.7192 396 326 C396.6244 326.8196 400.3613 325.2803 403 326 C404.8163 326.4953 405.978 327.2286 407 329 C412.6505 338.7943 411.4381 342.2998 418 352 C422.121 358.0919 428.1649 358.0594 430 363 C432.8934 370.7899 428.3483 376.0618 431 387 C435.9918 407.5912 445.8217 428.2076 446 429 C446.0132 429.0585 441.3851 428.3851 440 427 C438.2687 425.2687 437.6269 423.4479 437 420 C435.7387 413.0626 436 405 436 405 "/>
<path id="9" d="M437 408 C437 408 429.8214 413.5476 428 418 C426.4025 421.9051 428.873 424.7622 428 430 C427.5271 432.8371 425 436 425 436 "/>
<path id="10" d="M336 253 C336 253 334.0321 253.6709 334 254 C332.9201 265.0691 332.3634 274.0134 332 294 C331.3646 328.9448 332 364 332 364 "/>
<path id="11" d="M330 360 C330 360 324.1633 362.08 321 365 C318.5695 367.2436 319.4311 370.4441 317 372 C309.3282 376.91 302.2819 377.2879 296 381 C295.1971 381.4744 295.9393 384.2584 295 385 C288.9716 389.7593 285.6612 392.4161 277 396 C272.6164 397.8139 269.3424 394.8319 266 397 C254.2589 404.6159 240 420 240 420 "/>
<path id="12" d="M333 363 C333 363 341.0402 361.2897 346 363 C353.4199 365.5586 353.7428 369.4907 362 373 C372.9994 377.6747 374.9442 375.6447 386 380 C390.6953 381.8497 391.2972 382.515 395 386 C399.4018 390.1428 399.2614 392.8366 403 396 C404.3277 397.1235 406.8783 395.8783 408 397 C412.4869 401.4869 412.705 406.2345 418 411 C421.1863 413.8677 424.9761 413.0757 428 415 C428.7012 415.4462 429 418 429 418 "/>
<path id="13" d="M252 168 C252 168 254.0096 164.024 255 164 C306.8096 162.744 417 164 417 164 "/>
<path id="14" d="M240 97 C240 97 236.2597 99.8571 236 102 C234.674 112.9395 235.6514 116.057 236 130 C236.1497 135.988 235.5178 136.8124 237 142 C238.2581 146.4034 240.4913 146.4739 242 151 C243.7916 156.3748 242.7478 160.6746 244 163 C244.3535 163.6566 248.4536 163.0666 249 164 C256.1132 176.1517 257.1727 187.4406 268 204 C272.5041 210.8886 277.5602 210.5602 283 216 C284.0074 217.0074 283.4981 219.7909 284 220 C286.1489 220.8954 290.4131 219.6509 295 221 C297.9146 221.8572 299.9404 222.8808 301 225 C303.7247 230.4493 301.8773 235.4753 305 241 C307.0669 244.6568 309.3095 245.5431 314 248 C319.2195 250.734 322.6374 249.5341 326 252 C327.8314 253.343 328.6445 255.8006 329 259 C329.5278 263.7506 329.254 266.4888 328 270 C327.511 271.3692 324.7286 271.5429 324 273 C322.9072 275.1857 324.2614 277.1619 323 280 C320.609 285.3797 319.512 288.9513 316 291 C311.0919 293.8631 303.8578 291.814 299 294 C297.491 294.679 297.7934 298.924 296 300 C290.4025 303.3585 285.2478 301.3505 279 306 C265.8004 315.8229 263.1511 319.142 253 332 C249.6929 336.189 249.975 338.15 249 344 C248.0763 349.5421 249.9749 354.0501 249 356 C248.5531 356.8937 244.1098 356.5232 242 358 C240.3675 359.1428 239.428 360.5545 239 363 C236.2347 378.802 236.3948 380.5656 235 398 C234.4077 405.4042 233.5513 406.7222 235 413 C236.1961 418.1832 239.2007 418.602 241 424 C242.4302 428.2907 242 434 242 434 "/>
<path id="15" d="M241 426 C241 426 252.9787 427.0367 263 426 C266.33 425.6555 266.7181 423.1588 270 423 C295.2623 421.7776 299.7377 424.2224 325 423 C328.2819 422.8412 328.7411 420.0914 332 420 C378.0028 418.7102 428.1819 419.9229 432 420 C432.0366 420.0007 431 422 431 422 "/>
<path id="16" d="M224 440 C224 440 241.7906 441.4148 257 440 C261.7804 439.5553 262.3132 436.1013 267 436 C348.3156 434.2418 442 436 442 436 "/>
<path id="17" d="M442 436 L442 472 "/>
<path id="18" d="M442 472 C442 472 401.6804 472.1248 368 475 C364.2166 475.323 363.7512 478.5453 360 479 C348.9472 480.3397 340.3428 479.6165 335 479 C334.7123 478.9668 334.244 476.0092 334 476 C310.9733 475.1311 279.563 477.1245 229 475 C222.1801 474.7134 215 471 215 471 "/>
<path id="19" d="M218 471 L218 439 "/>
<path id="20" d="M218 439 L228 439 "/>
<path id="21" d="M353 247 C353 247 354.3848 241.9639 357 239 C361.243 234.1913 363.8487 235.0253 368 230 C372.7301 224.2741 370.8274 220.5848 376 216 C390.7401 202.9349 398.06 204.6555 412 191 C420.1881 182.979 420.1352 179.3511 425 168 C427.1891 162.892 427 156 427 156 "/>
<path id="22" d="M268 199 C268 199 276.6294 202.6294 281 207 C283.7056 209.7056 282.2947 212.934 285 216 C288.8229 220.3327 292.1087 219.4601 296 224 C300.2422 228.9492 300.1266 234.6653 303 237 C304.4725 238.1964 309.5659 235.7113 312 237 C315.4523 238.8277 316.2716 244.0377 320 246 C323.374 247.7758 328.1118 245.8892 331 247 C331.8977 247.3453 333 251 333 251 "/>
<path id="23" d="M243 427 L243 438 "/>
</g>
</g>
</svg>
