<?xml version="1.0" encoding="utf-8"?>
<!DOCTYPE svg PUBLIC "-//W3C//DTD SVG 1.1//EN" "http://www.w3.org/Graphics/SVG/1.1/DTD/svg11.dtd">
<svg viewBox="0 0 800 800" preserveAspectRatio="xMinYMin meet" xmlns="http://www.w3.org/2000/svg" version="1.1">
<g fill="none" stroke="black" stroke-linecap="round" stroke-linejoin="round" stroke-width="1.2769">
<g transform="translate(243.76,87.52) scale(2.3495) translate(-222,-84.9167)">
<path id="0" d="M223 86.9167 C223 86.9167 344.3786 82.3977 352 84.9167 C352.1515 84.9667 347.8533 106.1793 341 125.9167 C335.5165 141.709 334.8042 142.7273 327 156.9167 C324.2978 161.8298 320.8618 161.2074 319 165.9167 C313.2508 180.4588 316.7929 186.3308 310 199.9167 C305.3243 209.268 293 217.9167 293 217.9167 "/>
<path id="1" d="M222 88.9167 C222 88.9167 226.9141 94.8676 229 100.9167 C231.6099 108.4853 229.0166 110.4582 232 117.9167 C237.5734 131.8501 240.9893 132.3925 247 145.9167 C248.4642 149.211 246.7115 151.1249 248 153.9167 C249.1128 156.3278 251.5929 156.2783 253 158.9167 C255.129 162.9086 253.6495 165.5868 256 168.9167 C258.5901 172.586 261.4255 171.8759 265 175.9167 C272.4983 184.393 272.891 185.1422 279 194.9167 C282.6874 200.8166 283.0708 201.4058 285 207.9167 C286.905 214.346 287 221.9167 287 221.9167 "/>
<path id="2" d="M292 219.9167 C292 219.9167 287.901 224.2506 286 228.9167 C282.6717 237.0861 284.1306 240.0295 281 246.9167 C280.0314 249.0477 276.974 248.8468 276 250.9167 C273.7904 255.6121 274.8694 260.4115 273 263.9167 C272.4025 265.037 268.8322 264.5461 268 265.9167 C262.4995 274.9764 262.8578 280.8135 256 291.9167 C253.217 296.4224 250.27 295.401 247 299.9167 C240.3125 309.1518 238.7594 310.2651 235 320.9167 C230.2153 334.4733 228.886 350.8882 229 350.9167 C238.5794 353.3115 351.7252 351.3085 355 350.9167 C355.1904 350.8939 348.5195 343.3555 346 336.9167 C344.7058 333.6094 347.4305 331.2247 346 327.9167 C340.4498 315.0819 335.6994 314.3551 330 299.9167 C321.11 277.3954 324.8797 272.3071 316 251.9167 C312.7727 244.5058 309.0187 243.2272 303 237.9167 C301.841 236.894 299.8651 237.8604 299 236.9167 C295.7714 233.3946 294.0767 230.96 292 225.9167 C291.1025 223.7369 292 219.9167 292 219.9167 "/>
<path id="3" d="M234 113.9167 L336 112.9167 "/>
<path id="4" d="M248 349.9167 C248 349.9167 254.804 344.8549 260 338.9167 C265.0449 333.151 264.2461 329.5901 269 325.9167 C273.0164 322.8131 276.5119 321.62 282 321.9167 C292.4424 322.4811 299.8477 325.4557 306 327.9167 C306.6059 328.159 306.0375 330.9541 307 331.9167 C310.2727 335.1893 314.9299 336.0185 317 338.9167 C318.0246 340.3511 317 345.9167 317 345.9167 "/>
<path id="5" d="M293 228.9167 C293 228.9167 293.9239 234.221 293 237.9167 C292.1787 241.2017 289.1461 243.4555 289 244.9167 C288.9467 245.4498 291.6469 246.6221 292 247.9167 C292.7398 250.6291 292 255.9167 292 255.9167 "/>
<path id="6" d="M289 266.9167 L289 273.9167 "/>
<path id="7" d="M288 291.9167 L288 294.9167 "/>
<path id="8" d="M294 298.9167 L294 301.9167 "/>
<path id="9" d="M292 309.9167 L292 314.9167 "/>
<path id="10" d="M277 337.9167 L282 337.9167 "/>
<path id="11" d="M292 340.9167 L293 340.9167 "/>
</g>
</g>
</svg>
