<?xml version="1.0" encoding="utf-8"?>
<!DOCTYPE svg PUBLIC "-//W3C//DTD SVG 1.1//EN" "http://www.w3.org/Graphics/SVG/1.1/DTD/svg11.dtd">
<svg viewBox="0 0 800 800" preserveAspectRatio="xMinYMin meet" xmlns="http://www.w3.org/2000/svg" version="1.1">
<g fill="none" stroke="black" stroke-linecap="round" stroke-linejoin="round" stroke-width="1.3873">
<g transform="translate(209.7008,87.52) scale(2.1625) translate(-181,-74.6667)">
<path id="0" d="M291 103.6667 C291 103.6667 265.3171 106.3834 243 104.6667 C234.8684 104.0412 234.3988 100.2998 226 98.6667 C217.1261 96.9412 213.7003 99.7283 207 97.6667 C203.8233 96.6892 200 90.7417 200 90.6667 C200 90.6667 204.8091 91.8143 207 90.6667 C213.1853 87.4268 214.2052 82.5161 221 79.6667 C227.5122 76.9358 231.441 79.3064 238 77.6667 C239.4055 77.3153 239.8895 74.7014 241 74.6667 C262.8851 73.9828 273.3136 74.0037 302 75.6667 C305.8403 75.8893 306.0535 78.0595 310 78.6667 C318.467 79.9693 320.5676 77.3308 328 79.6667 C336.1745 82.2358 340.8339 85.2691 345 89.6667 C346.5875 91.3423 346.1618 98.6165 346 98.6667 C343.2932 99.5067 329.829 96.4442 316 98.6667 C303.3482 100.7 290 107.6667 290 107.6667 "/>
<path id="1" d="M347 97.6667 C347 97.6667 349.0175 111.3899 347 117.6667 C345.9012 121.0853 340.4634 121.561 338 125.6667 C335.4631 129.8949 337.2096 132.4189 335 137.6667 C333.4831 141.2693 332.4308 142.506 330 144.6667 C328.941 145.608 326.5624 144.8544 326 145.6667 C323.6931 148.9988 323.67 153.5134 321 157.6667 C320.1978 158.9146 317.7861 158.4089 317 159.6667 C313.8992 164.6279 313.0522 166.5978 311 173.6667 C308.6702 181.6916 310.885 183.248 308 190.6667 C304.3033 200.1725 299.2662 200.6018 297 209.6667 C293.9523 221.8574 294.8725 224.855 296 238.6667 C296.7957 248.4138 297.1801 250.0082 301 258.6667 C304.1672 265.8457 307.2913 265.9236 311 272.6667 C312.2457 274.9317 310.5827 277.0338 312 278.6667 C329.7585 299.1275 343.5934 306.0037 357 325.6667 C360.2791 330.476 358.7234 340.071 357 344.6667 C356.2404 346.6924 352.6519 348.3275 348 349.6667 C320.8044 357.4957 319.0898 360.6416 291 363.6667 C255.9524 367.441 252.9667 365.8986 218 363.6667 C207.7576 363.0129 203.9525 362.5522 197 357.6667 C188.7137 351.8438 184.4415 346.7007 181 337.6667 C178.0986 330.0504 178.5958 322.8794 181 315.6667 C182.6028 310.8582 188.2129 310.6916 192 304.6667 C198.5353 294.2695 195.9833 290.0223 203 280.6667 C209.5816 271.8912 214.9608 273.2702 222 264.6667 C227.2541 258.245 227.1184 256.3115 230 247.6667 C233.4677 237.2635 233.3056 236.5111 235 225.6667 C235.7438 220.9065 236.0822 220.1307 235 215.6667 C232.3011 204.5338 231.4481 202.6749 227 192.6667 C226.0322 190.4891 224.1113 190.8893 223 188.6667 C217.6286 177.924 217.5123 176.7934 213 164.6667 C209.5439 155.3783 209.0567 155.1788 207 145.6667 C205.1323 137.0285 206.7272 135.2665 205 127.6667 C204.5618 125.7386 202.4526 125.4773 202 123.6667 C201.2376 120.6173 203.0649 118.9798 202 115.6667 C198.9526 106.1858 193 95.6667 193 95.6667 "/>
<path id="2" d="M327 140.6667 C327 140.6667 321.9049 134.898 318 132.6667 C316.5614 131.8446 314.1902 131.8732 313 132.6667 C310.0642 134.6239 309.0307 139.3197 306 140.6667 C302.8417 142.0703 299.6699 141.7786 295 140.6667 C290.2492 139.5355 289.917 137.0077 285 135.6667 C279.6897 134.2184 276.3373 133.6851 273 134.6667 C271.0714 135.2339 269.5351 137.5964 268 140.6667 C266.3746 143.9176 267.1769 147.6075 266 148.6667 C264.8615 149.6913 260.8439 150.5198 258 149.6667 C252.7923 148.1044 251.4237 143.3741 246 142.6667 C231.7742 140.8111 227.2605 144.7314 212 143.6667 C207.8266 143.3755 203.0585 139.6667 203 139.6667 C202.987 139.6667 203.6327 142.6033 205 143.6667 C211.3607 148.6139 221 153.6667 221 153.6667 "/>
<path id="3" d="M236 219.6667 C236 219.6667 237.6003 230.2046 241 234.6667 C243.5992 238.0782 249.3948 238.5352 252 240.6667 C252.4019 240.9955 251.4968 243.0377 252 243.6667 C254.2475 246.476 259.4589 248.0515 260 250.6667 C261.3494 257.189 257.1409 263.2163 258 272.6667 C258.451 277.6281 261.9126 278.2295 263 283.6667 C265.2111 294.7222 265.2997 299.5755 265 307.6667 C264.961 308.7188 262.4757 309.2395 262 310.6667 C260.89 313.9967 262.4382 316.5849 261 319.6667 C259.6631 322.5314 255 325.6667 255 325.6667 "/>
<path id="4" d="M296 212.6667 C296 212.6667 290.0053 219.0779 288 225.6667 C283.4754 240.5332 284.9343 248.3965 282 258.6667 C281.7343 259.5965 278.0806 260.0222 278 260.6667 C277.0333 268.3999 276.8991 277.8225 278 290.6667 C278.1929 292.9175 280.8678 293.4851 281 295.6667 C281.7129 307.4292 280 323.6667 280 323.6667 "/>
<path id="5" d="M350 337.6667 C350 337.6667 346.7564 332.171 343 329.6667 C338.8375 326.8916 336.217 328.3023 332 325.6667 C329.2667 323.9584 329.3817 320.574 327 319.6667 C321.5205 317.5793 313.4526 318.2798 311 317.6667 C310.9257 317.6481 311.0308 315.6705 311 315.6667 C309.0308 315.4205 302.1679 316.9467 295 315.6667 C289.2241 314.6353 283 310.6667 283 310.6667 "/>
<path id="6" d="M262 302.6667 C262 302.6667 250.5509 297.4331 245 298.6667 C237.535 300.3256 234.4532 306.2563 226 310.6667 C224.6615 311.365 222.6369 310.2845 222 310.6667 C221.5541 310.9342 221.5007 313.5113 221 313.6667 C213.2574 316.0696 198.9276 316.5053 193 319.6667 C191.6068 320.4097 191 329.6667 191 329.6667 "/>
</g>
</g>
</svg>
