<?xml version="1.0" encoding="utf-8"?>
<!DOCTYPE svg PUBLIC "-//W3C//DTD SVG 1.1//EN" "http://www.w3.org/Graphics/SVG/1.1/DTD/svg11.dtd">
<svg viewBox="0 0 800 800" preserveAspectRatio="xMinYMin meet" xmlns="http://www.w3.org/2000/svg" version="1.1">
<g fill="none" stroke="black" stroke-linecap="round" stroke-linejoin="round" stroke-width="1.5889">
<g transform="translate(212.1344,87.52) scale(1.8881) translate(-184,-52)">
<path id="0" d="M184,338C184,338 185.96461424438564,339.23920625429144 186,340C186.69316763497892,354.9031041520468 186,381 186,381"/>
<path id="1" d="M186,340L328,339"/>
<path id="2" d="M189,383C189,383 222.14756519945536,384.2438514500227 252,383C256.3238645643646,382.8198389764848 256.697607974534,380.0985280616519 261,380C318.8794859856883,378.674515588114 367.7540972595379,380.24993283181083 383,380C383.0040972595379,379.99993283181083 383,378 383,378"/>
<path id="3" d="M328,340C328,340 379.6908460061382,340.07700905846246 381,340C381.04504303419503,339.9973504097532 379,336.99251419972194 379,337C379,337.09981067037443 381,377 381,377"/>
<path id="4" d="M189,381L189,383"/>
<path id="5" d="M205,239C205,239 198.1815593054291,248.4421501590192 194,258C191.4866743282329,263.7447443926105 191.3926582151283,264.56040527189566 191,271C188.94117783224118,304.76468355124456 189,340 189,340"/>
<path id="6" d="M203,244C203,244 226.26051702247264,238.64086214961534 247,231C253.77892485673223,228.50250136857232 258.9463755732058,226.42427938708127 260,223C263.9443375977425,210.1809028073368 263,179 263,179"/>
<path id="7" d="M273,180C273,180 271.8000323252477,221.4737097304587 275,224C279.85954976395055,227.8364866557504 307.1300791776057,220.36811730179355 330,225C341.20159387219314,227.26867723993786 347.4502866129655,231.16550287330233 354,240C365.4017355544013,255.3790851664017 365.15371001886473,261.3442396520666 373,283C377.4314897511119,295.23091171306873 377.4283948570998,296.165224666315 379,309C380.3520603023271,320.04182580233816 379,332 379,332"/>
<path id="8" d="M265,182C265,182 249.19510529826522,165.30312569281543 234,156C227.37733992654992,151.9453101591122 223.99787483298198,154.9621758640674 216,152C211.39285917415677,150.29365154598398 210.06992563135205,149.58157990324403 207,146C201.9154356730732,140.06800828525206 201.16313085334335,138.6818892152624 198,131C194.4389910518965,122.3518354117486 193.95299088437773,121.33931066690172 193,112C191.53462698741083,97.63934447662602 193,82 193,82"/>
<path id="9" d="M274,186C274,186 274.0628697561326,180.14103869059028 276,178C281.604512744393,171.80553854567088 285.4540586503614,171.85994668148965 293,165C295.9755289233591,162.2949737060372 295.10218845905694,160.2159735313094 298,158C302.64308440082925,154.4494060464247 304.6047655228721,155.68455037462388 310,152C324.75514883517536,141.92331299061195 327.9197341507224,141.9112857879734 339,130C346.0659055249667,122.40415156066083 347.44136434001,119.23454263995991 350,109C353.39355887535515,95.42576449857948 352,78 352,78"/>
<path id="10" d="M195,81C195,81 209.2899725614221,75.34275068596444 223,75C287.26423163482616,73.39339420912934 355,77 355,77"/>
<path id="11" d="M190,55L191,81"/>
<path id="12" d="M191,52C191,52 334.6321005774197,50.143526300491786 355,53C355.38285809680246,53.05369351357596 355,75 355,75"/>
</g>
</g>
</svg>
