<?xml version="1.0" encoding="utf-8"?>
<!DOCTYPE svg PUBLIC "-//W3C//DTD SVG 1.1//EN" "http://www.w3.org/Graphics/SVG/1.1/DTD/svg11.dtd">
<svg viewBox="0 0 800 800" preserveAspectRatio="xMinYMin meet" xmlns="http://www.w3.org/2000/svg" version="1.1">
<g fill="none" stroke="black" stroke-linecap="round" stroke-linejoin="round" stroke-width="1.5657">
<g transform="translate(189.2316,87.52) scale(1.9161) translate(-174.5,-74.6667)">
<path id="0" d="M280.5 155.6667 C280.5 155.6667 278.6741 172.1801 279.5 173.6667 C279.7893 174.1874 287.8692 174.4761 290.5 173.6667 C291.2727 173.4289 292.5 171.244 292.5 169.6667 C292.5 166.1178 291.7082 161.6735 290.5 160.6667 C289.1223 159.5186 280.5 159.6667 280.5 159.6667 "/>
<path id="1" d="M285.5 159.6667 C285.5 159.6667 289.9157 147.3593 297.5 139.6667 C323.2765 113.5219 326.2074 113.421 355.5 88.6667 C361.4703 83.6213 361.7748 83.1538 368.5 79.6667 C374.8163 76.3916 377.9273 74.3149 382.5 74.6667 C386.711 74.9906 392.5333 79.5212 394.5 81.6667 C394.9461 82.1534 394.5702 85.6729 393.5 86.6667 C389.6255 90.2644 385.8745 89.9123 380.5 94.6667 C373.4678 100.8875 374.9223 103.6463 367.5 109.6667 C330.916 139.3404 290.5 167.6667 290.5 167.6667 "/>
<path id="2" d="M282.5 158.8333 C282.5 158.8333 264.906 153.3363 251.5 143.8333 C226.6852 126.2431 227.7945 119.9421 203.5 102.8333 C194.2282 96.3039 181.7871 93.1232 180.5 93.8333 C179.0874 94.6127 174.6121 115.9198 174.5 118.8333 C174.4964 118.9266 178.0207 118.7238 179.5 119.8333 C182.8446 122.3418 182.5256 124.6317 186.5 127.8333 C200.0738 138.7678 200.4626 140.1275 215.5 148.8333 C228.2684 156.2256 229.4958 156.3639 243.5 160.8333 C252.2807 163.6357 253.856 161.5061 262.5 163.8333 C266.0247 164.7823 266.118 167.0981 269.5 167.8333 C276.4695 169.3484 285.5 168.8333 285.5 168.8333 "/>
<path id="3" d="M294.5 171.8333 C294.5 171.8333 294.8134 175.5445 296.5 177.8333 C321.2757 211.4575 325.0827 212.0041 350.5 247.8333 C366.3577 270.187 365.9304 271.6337 379.5 294.8333 C381.0211 297.4339 381.587 300.7836 381.5 300.8333 C380.4561 301.4299 367.5884 304.8696 365.5 302.8333 C344.3927 282.2537 331.7689 263.1919 301.5 222.8333 C294.8196 213.9261 294.6593 213.1325 290.5 202.8333 C284.3674 187.648 280.5 170.8333 280.5 170.8333 "/>
<path id="4" d="M281.5 170.8333 C281.5 170.8333 318.8109 369.0833 320.5 396.8333 C320.5183 397.1345 297.3832 402.5014 295.5 400.8333 C291.9015 397.6461 287.3211 383.0512 285.5 365.8333 C282.0098 332.8347 287.0753 330.6344 284.5 296.8333 C283.138 278.9565 278.0644 278.4707 277.5 260.8333 C276.1148 217.5463 280.6023 171.9963 280.5 171.8333 C280.4681 171.7825 264.369 194.5934 250.5 217.8333 C246.1209 225.1713 248.3092 227.2207 243.5 233.8333 C229.1347 253.5856 222.2237 260.1327 210.5 272.8333 C210.0326 273.3397 207.6439 273.1031 207.5 272.8333 C205.9114 269.8547 206.4015 263.523 202.5 257.8333 C195.5076 247.6361 188.3503 244.3004 183.5 237.8333 C183.0398 237.2197 183.5675 234.591 184.5 233.8333 C189.3959 229.8554 191.7485 228.7091 199.5 224.8333 C216.5931 216.2868 217.7774 217.3891 234.5 208.8333 C238.7865 206.6403 239.4021 206.3537 242.5 202.8333 C249.9406 194.3781 248.3734 191.0364 256.5 183.8333 C269.0761 172.6863 286.5 163.8333 286.5 163.8333 "/>
</g>
</g>
</svg>
