<?xml version="1.0" encoding="utf-8"?>
<!DOCTYPE svg PUBLIC "-//W3C//DTD SVG 1.1//EN" "http://www.w3.org/Graphics/SVG/1.1/DTD/svg11.dtd">
<svg viewBox="0 0 800 800" preserveAspectRatio="xMinYMin meet" xmlns="http://www.w3.org/2000/svg" version="1.1">
<g fill="none" stroke="black" stroke-linecap="round" stroke-linejoin="round" stroke-width="2.2225">
<g transform="translate(188.0805,87.52) scale(1.3498) translate(-88.5,-16.6667)">
<path id="0" d="M234.5 149.6667 C234.5 149.6667 236.8162 293.5212 235.5 435.6667 C235.3249 454.5722 231.5 473.6667 231.5 473.6667 "/>
<path id="1" d="M254.5 148.6667 L251.5 479.6667 "/>
<path id="2" d="M234.5 459.6667 L234.5 479.6667 "/>
<path id="3" d="M252.5 151.6667 C252.5 151.6667 252.1785 159.2491 251.5 159.6667 C250.1254 160.5126 240.9118 160.0196 239.5 159.6667 C239.4118 159.6446 239.9682 157.3221 239.5 156.6667 C238.3184 155.0124 235.1404 154.4811 234.5 152.6667 C233.0167 148.4639 233.0022 139.9363 233.5 139.6667 C235.5597 138.551 255.7335 138.6707 258.5 139.6667 C258.8585 139.7957 259.5045 147.6622 258.5 148.6667 C256.3794 150.7873 245.5386 154.0943 244.5 153.6667 C243.8093 153.3823 241.4136 141.7819 241.5 141.6667 C241.5244 141.6342 249.5429 143.9652 250.5 145.6667 C251.7673 147.9196 250.9403 156.8595 250.5 157.6667 C250.4166 157.8195 246.8456 157.7329 244.5 156.6667 C242.0222 155.5404 240.3037 154.6186 239.5 152.6667 C237.6662 148.2133 237.1098 139.9593 237.5 139.6667 C238.3686 139.0152 253.2757 139.8017 255.5 140.6667 C255.7822 140.7764 256.3325 144.6686 255.5 146.6667 C254.3784 149.3585 252.4662 150.9813 250.5 152.6667 C250.1123 152.999 248.5866 152.8399 248.5 152.6667 C247.2873 150.2412 244.5 140.6667 244.5 140.6667 "/>
<path id="4" d="M249.5 135.6667 C249.5 135.6667 253.4185 128.2237 258.5 124.6667 C267.0199 118.7028 269.9769 120.8106 279.5 114.6667 C300.4373 101.1587 299.2547 97.0373 320.5 84.6667 C337.6931 74.6555 340.8856 78.3772 358.5 68.6667 C379.1482 57.2837 384.5277 54.3688 398.5 41.6667 C401.9242 38.5538 403.1255 30.0741 402.5 28.6667 C401.924 27.3707 394.9318 26.795 390.5 23.6667 C387.6629 21.664 385.9371 16.5387 385.5 16.6667 C379.344 18.4684 366.9729 25.4741 349.5 35.6667 C337.1298 42.8826 334.9585 42.7646 325.5 51.6667 C319.4318 57.3779 321.23 60.5615 315.5 67.6667 C309.048 75.6671 308.7485 76.9958 300.5 82.6667 C285.7138 92.8322 281.3755 90.5754 267.5 100.6667 C261.1233 105.3043 261.0552 107.2645 256.5 114.6667 C249.2623 126.428 243.5 139.6667 243.5 139.6667 "/>
<path id="5" d="M241.5 139.6667 C241.5 139.6667 222.7198 140.4097 206.5 136.6667 C191.6086 133.2302 191.7084 129.7361 176.5 124.6667 C158.906 118.802 158.1688 116.6745 140.5 114.6667 C115.7594 111.8552 93.1338 111.726 88.5 114.6667 C86.6338 115.851 87.7254 147.5137 88.5 147.6667 C107.7262 151.4644 250.5 146.6667 250.5 146.6667 "/>
<path id="6" d="M252.5 144.6667 C252.5 144.6667 259.6275 147.0093 263.5 150.6667 C267.5403 154.4825 267.0842 156.116 270.5 161.6667 C291.0805 195.11 292.0647 194.6548 311.5 228.6667 C327.9878 257.5203 333.0264 272.5601 342.5 287.6667 C342.9544 288.3913 346.3187 288.6689 348.5 287.6667 C362.6099 281.1837 372.5025 276.987 379.5 270.6667 C380.9998 269.312 380.6364 264.2122 379.5 259.6667 C378.4411 255.431 377.4403 254.7831 374.5 250.6667 C365.0777 237.4754 364.9596 236.569 354.5 224.6667 C350.9213 220.5944 348.5812 221.8103 345.5 217.6667 C334.9525 203.4821 337.7852 197.1542 325.5 185.6667 C302.2686 163.9438 297.1181 164.4729 268.5 145.6667 C262.6782 141.8409 255.5 139.6667 255.5 139.6667 "/>
</g>
</g>
</svg>
