<?xml version="1.0" encoding="utf-8"?>
<!DOCTYPE svg PUBLIC "-//W3C//DTD SVG 1.1//EN" "http://www.w3.org/Graphics/SVG/1.1/DTD/svg11.dtd">
<svg viewBox="0 0 800 800" preserveAspectRatio="xMinYMin meet" xmlns="http://www.w3.org/2000/svg" version="1.1">
<g fill="none" stroke="black" stroke-linecap="round" stroke-linejoin="round" stroke-width="2.0879">
<g transform="translate(245.5361,87.52) scale(1.4369) translate(-189.3611,-46.3056)">
<path id="0" d="M327.3611 162.3056 C327.3611 162.3056 324.8836 161.8577 324.3611 162.3056 C322.7687 163.6705 321.1672 165.4037 320.3611 168.3056 C318.9694 173.3159 318.4729 176.5305 319.3611 180.3056 C319.8274 182.2874 322.1625 184.3895 324.3611 185.3056 C326.5338 186.2109 329.1884 186.2109 331.3611 185.3056 C333.5597 184.3895 335.7949 182.4572 336.3611 180.3056 C337.6163 175.536 337.4411 171.1654 336.3611 166.3056 C335.984 164.6085 334.1187 163.0867 332.3611 162.3056 C330.8402 161.6296 327.3611 162.3056 327.3611 162.3056 "/>
<path id="1" d="M331.3611 163.3056 C331.3611 163.3056 350.4456 166.8043 369.3611 168.3056 C381.6769 169.283 394.3611 168.3056 394.3611 168.3056 "/>
<path id="2" d="M334.3611 184.3056 C334.3611 184.3056 387.0354 186.1856 395.3611 184.3056 C395.9291 184.1773 396.3611 170.3056 396.3611 170.3056 "/>
<path id="3" d="M330.3611 161.3056 C330.3611 161.3056 330.6015 152.1482 334.3611 146.3056 C365.3907 98.0838 404.3591 46.3081 404.3611 46.3056 C404.3617 46.3048 397.1561 63.815 388.3611 80.3056 C377.2365 101.1643 375.154 100.919 364.3611 121.3056 C362.0323 125.7044 363.7021 126.9579 361.3611 131.3056 C353.5629 145.788 352.7819 146.3629 343.3611 160.3056 C340.4477 164.6174 337.9764 167.0492 336.3611 168.3056 C336.2118 168.4217 334.3611 167.3056 334.3611 167.3056 "/>
<path id="4" d="M318.3611 168.3056 C318.3611 168.3056 304.019 161.1856 289.3611 157.3056 C270.5963 152.3384 269.586 154.7273 250.3611 150.3056 C219.7415 143.263 189.3611 134.3056 189.3611 134.3056 C189.3611 134.3056 205.8738 137.0654 220.3611 142.3056 C228.5915 145.2825 228.0842 147.8569 236.3611 151.3056 C251.6925 157.6936 252.2243 157.7334 268.3611 162.3056 C282.0089 166.1724 283.2672 164.4128 296.3611 168.3056 C300.9713 169.6762 301.1255 172.2467 305.3611 173.3056 C309.9067 174.4419 316.3611 173.3056 316.3611 173.3056 "/>
<path id="5" d="M324.3611 185.25 C324.3611 185.25 324.3611 322.25 324.3611 322.25 C324.3611 322.25 323.7426 311.6914 325.3611 302.25 C326.6335 294.8279 328.8539 294.7862 330.3611 287.25 C332.7727 275.1921 332.7449 274.7289 333.3611 262.25 C334.7346 234.4374 332.9203 233.9862 334.3611 206.25 C334.9049 195.7814 337.3611 185.25 337.3611 185.25 "/>
<path id="6" d="M342.3611 188.25 C342.3611 188.25 345.0167 208.2748 345.3611 228.25 C347.5111 352.951 347.3611 478.25 347.3611 478.25 "/>
<path id="7" d="M350.3611 189.25 C350.3611 189.25 352.3455 189.9607 352.3611 190.25 C352.8691 199.6475 351.4411 208.4623 352.3611 226.25 C352.9273 237.197 355.114 237.3133 355.3611 248.25 C357.0974 325.0786 354.7515 325.9877 356.3611 403.25 C356.7459 421.7219 357.0046 421.987 359.3611 440.25 C360.9775 452.7773 362.8522 452.8766 364.3611 465.25 C365.3038 472.9804 364.6073 479.2808 364.3611 481.25 C364.3573 481.2808 362.3611 481.25 362.3611 481.25 "/>
</g>
</g>
</svg>
