<?xml version="1.0" encoding="utf-8"?>
<!DOCTYPE svg PUBLIC "-//W3C//DTD SVG 1.1//EN" "http://www.w3.org/Graphics/SVG/1.1/DTD/svg11.dtd">
<svg viewBox="0 0 800 800" preserveAspectRatio="xMinYMin meet" xmlns="http://www.w3.org/2000/svg" version="1.1">
<g fill="none" stroke="black" stroke-linecap="round" stroke-linejoin="round" stroke-width="2.0161">
<g transform="translate(121,87.52) scale(1.488) translate(-129,-21.1333)">
<path id="0" d="M271 208.1333 C271 208.1333 268.2311 233.1759 268 258.1333 C267.2333 340.9413 266.386 344.4048 269 424.1333 C269.2702 432.3754 272.1034 438.2023 274 441.1333 C274.3639 441.6957 278.0329 441.789 280 441.1333 C281.3114 440.6962 282.23 439.7696 283 438.1333 C285.8542 432.0682 287.3173 431.0512 288 424.1333 C294.5467 357.7934 294.6554 355.0327 298 286.1333 C299.6423 252.3019 301.2709 244.3006 298 218.1333 C297.3627 213.0346 291.6272 207.7821 288 206.1333 C285.3969 204.9501 276 208.1333 276 208.1333 "/>
<path id="1" d="M282 205.1333 C282 205.1333 282.8962 24.8916 283 21.1333 C283.0016 21.0743 286.2646 22.5575 287 24.1333 C289.0249 28.4723 289.8417 30.2761 290 36.1333 C291.2972 84.1314 291.5789 85.8731 290 135.1333 C289.0884 163.575 284.6827 191.8051 285 192.1333 C285.0357 192.1702 301.4159 177.5456 319 165.1333 C335.1805 153.7118 335.5562 153.1278 353 144.1333 C367.0815 136.8726 367.8026 137.3504 383 132.1333 C401.1625 125.8985 401.3797 125.5298 420 121.1333 C437.1247 117.09 437.7837 115.9532 455 115.1333 C478.8611 113.9971 503.9973 117.1313 504 117.1333 C504.0017 117.1346 484.9168 119.2909 467 124.1333 C448.3361 129.1776 448.4844 132.2042 430 137.1333 C419.1286 140.0324 418.0777 137.4254 407 140.1333 C373.5593 148.3077 373.2112 149.17 340 159.1333 C333.376 161.1205 331.7458 160.3367 327 164.1333 C313.4325 174.9874 313.584 181.7943 300 191.1333 C292.5092 196.2832 287.9496 193.7772 279 197.1333 C277.4122 197.7288 276 200.1333 276 200.1333 "/>
<path id="2" d="M274 205.1333 C274 205.1333 245.6915 187.9372 220 168.1333 C198.0445 151.2093 197.92 150.4922 178 131.1333 C162.6434 116.2093 160.8291 115.6318 149 99.1333 C142.8487 90.5539 145.3053 87.9481 140 78.1333 C135.4985 69.8056 128.9971 62.1321 129 62.1333 C129.0061 62.1359 144.3996 73.2742 157 85.1333 C160.6726 88.5899 159.3736 90.5069 163 94.1333 C174.8462 105.9796 177.0819 104.9315 189 117.1333 C197.7739 126.1161 195.8532 129.3937 205 137.1333 C220.6436 150.3703 225.1841 147.6133 241 161.1333 C255.2136 173.2836 255.0554 175.293 267 190.1333 C271.2188 195.3749 274 202.1333 274 202.1333 "/>
</g>
</g>
</svg>
