<?xml version="1.0" encoding="utf-8"?>
<!DOCTYPE svg PUBLIC "-//W3C//DTD SVG 1.1//EN" "http://www.w3.org/Graphics/SVG/1.1/DTD/svg11.dtd">
<svg viewBox="0 0 800 800" preserveAspectRatio="xMinYMin meet" xmlns="http://www.w3.org/2000/svg" version="1.1">
<g fill="none" stroke="black" stroke-linecap="round" stroke-linejoin="round" stroke-width="2.0869">
<g transform="translate(98.1217,87.52) scale(1.4375) translate(-100.3611,-11.3056)">
<path id="0" d="M205.3611 198.3056 L205.3611 198.3056 "/>
<path id="1" d="M255.3611 204.4167 C255.3611 204.4167 245.9868 217.4411 241.3611 231.4167 C222.9479 287.0482 226.4063 289.7549 208.3611 346.4167 C201.5442 367.8219 198.1923 367.9231 191.3611 388.4167 C189.5936 393.7192 190.2165 400.3816 190.3611 400.4167 C192.8636 401.0233 207.4192 397.3711 224.3611 396.4167 C242.6765 395.3848 243.4223 394.7608 261.3611 396.4167 C275.2049 397.6946 275.7274 402.0077 289.3611 402.4167 C324.1517 403.4604 361.3611 399.4167 361.3611 399.4167 "/>
<path id="2" d="M292.3611 198.4167 C292.3611 198.4167 311.1591 228.6457 325.3611 259.4167 C331.7241 273.2031 327.7471 276.1886 334.3611 289.4167 C344.0425 308.7795 349.6557 307.6097 359.3611 327.4167 C373.6073 356.4906 372.7564 360.2537 383.3611 389.4167 C383.9609 391.066 383.8786 392.813 383.3611 393.4167 C382.3077 394.6456 380.3354 395.8218 377.3611 396.4167 C368.6186 398.1652 358.3611 398.4167 358.3611 398.4167 "/>
<path id="3" d="M277.3611 155.4167 C277.3611 155.4167 274.3461 154.7347 273.3611 155.4167 C269.6105 158.0132 266.1157 160.11 264.3611 164.4167 C261.7549 170.8138 261.0836 175.1774 262.3611 182.4167 C263.6216 189.5594 265.864 191.0285 270.3611 198.4167 C272.6565 202.1877 273.0791 202.8379 276.3611 205.4167 C279.5412 207.9153 280.5783 208.2527 284.3611 209.4167 C286.4102 210.0471 288.224 210.2506 289.3611 209.4167 C293.4699 206.4035 295.3443 204.155 299.3611 198.4167 C301.9943 194.6549 302.8201 193.5642 303.3611 189.4167 C304.1491 183.3752 304.5913 180.5632 302.3611 175.4167 C299.0854 167.8573 296.9182 165.9738 290.3611 159.4167 C286.1458 155.2014 284.1536 153.786 279.3611 152.4167 C275.7799 151.3935 269.3611 153.4167 269.3611 153.4167 "/>
<path id="4" d="M255.3611 205.4167 L263.3611 193.4167 "/>
<path id="5" d="M291.3611 155.4167 C291.3611 155.4167 315.5102 159.9248 339.3611 162.4167 C348.6604 163.3882 349.2646 161.2038 358.3611 162.4167 C371.192 164.1275 371.3473 166.81 384.3611 168.4167 C411.3681 171.7509 411.9343 171.7367 439.3611 172.4167 C472.2017 173.2309 497.5783 168.212 505.3611 171.4167 C507.0154 172.0978 504.256 186.9613 507.3611 200.4167 C511.4715 218.2283 520.3611 236.4167 520.3611 236.4167 "/>
<path id="6" d="M300.3611 193.4167 C300.3611 193.4167 319.5888 188.5277 330.3611 193.4167 C375.884 214.0771 379.9201 225.3417 430.3611 252.4167 C447.0311 261.3645 449.2866 258.1381 466.3611 266.4167 C481.8152 273.9096 482.6559 278.3998 496.3611 284.4167 C500.3386 286.1629 504.4793 285.7728 507.3611 284.4167 C509.9193 283.2128 512.7808 280.0917 513.3611 276.4167 C516.5697 256.0958 516.3611 227.4167 516.3611 227.4167 "/>
<path id="7" d="M279.3611 155.4167 C279.3611 155.4167 251.374 144.8254 225.3611 131.4167 C203.2554 120.022 204.2802 117.2648 182.3611 105.4167 C167.5442 97.4075 165.5249 99.4643 151.3611 91.4167 C144.3618 87.4398 138.4808 80.3706 138.3611 80.4167 C138.2771 80.449 137.2239 88.7813 138.3611 96.4167 C140.6385 111.7077 143.2191 112.1168 145.3611 127.4167 C146.6337 136.5066 145.9502 136.9908 145.3611 146.4167 C143.9581 168.8652 144.4832 171.1228 141.3611 191.4167 C140.8399 194.8047 137.2744 198.4167 137.3611 198.4167 C138.8127 198.4167 171.5855 196.6608 204.3611 191.4167 C220.9318 188.7654 220.9147 185.3346 237.3611 182.4167 C251.3156 179.9409 266.3611 180.4167 266.3611 180.4167 "/>
<path id="8" d="M264.3611 187.0556 C264.3611 187.0556 252.6857 193.8687 245.3611 203.0556 C224.2229 229.5678 223.2751 232.7265 205.3611 261.0556 C202.8024 265.1019 205.083 268.0313 202.3611 271.0556 C189.5662 285.2721 184.4299 285.1496 169.3611 301.0556 C157.8265 313.231 157.5833 313.8675 148.3611 328.0556 C125.3113 363.5169 125.7233 364.5619 104.3611 401.0556 C101.9078 405.2466 100.6303 406.0178 100.3611 410.0556 C99.755 419.1478 102.3611 431.0555 102.3611 431.0556 C102.3611 431.0556 102.3611 420.0556 102.3611 420.0556 "/>
<path id="9" d="M102.3611 440.0556 C102.3611 440.0556 112.4641 436.7753 122.3611 436.0556 C139.4326 434.814 140.1836 437.0466 157.3611 436.0556 C165.7894 435.5693 165.9511 433.3268 174.3611 433.0556 C211.7462 431.8496 214.0885 430.7885 250.3611 433.0556 C260.0855 433.6633 260.4379 437.8957 270.3611 439.0556 C297.8524 442.2688 299.8418 439.3036 327.3611 442.0556 C333.7967 442.6991 334.3164 446.0556 340.3611 446.0556 C363.145 446.0556 365.2981 445.5313 389.3611 442.0556 C409.8918 439.09 409.8797 436.4182 430.3611 433.0556 C443.0559 430.9713 444.0491 433.3462 456.3611 431.0556 C464.8188 429.482 473.3611 425.0556 473.3611 425.0556 "/>
<path id="10" d="M304.3611 198.0556 C304.3611 198.0556 336.4098 225.8174 366.3611 255.0556 C378.1755 266.5887 376.6837 268.3782 388.3611 280.0556 C404.0138 295.7082 405.8727 294.2027 421.3611 310.0556 C448.1876 337.5133 449.6163 337.4516 473.3611 367.0556 C487.5664 384.7661 485.1412 388.0618 498.3611 406.0556 C502.5279 411.727 509.3675 416.0488 509.3611 416.0556 C508.8086 416.6388 480.3611 425.0556 480.3611 425.0556 "/>
<path id="11" d="M160.3611 316.0556 L218.3611 317.0556 "/>
<path id="12" d="M195.3611 274.0556 L227.3611 274.0556 "/>
<path id="13" d="M324.3611 262.0556 C324.3611 262.0556 331.0451 263.2369 336.3611 262.0556 C343.5968 260.4476 343.8473 258.0592 351.3611 256.0556 C358.3921 254.1806 366.3611 254.0556 366.3611 254.0556 "/>
<path id="14" d="M346.3611 312.0556 C346.3611 312.0556 357.8441 307.8427 369.3611 306.0556 C386.4292 303.4071 404.3611 303.0556 404.3611 303.0556 "/>
<path id="15" d="M382.3611 363.0556 L448.3611 346.0556 "/>
<path id="16" d="M109.3611 402.0556 C109.3611 402.0556 112.3516 400.5962 114.3611 401.0556 C127.8619 404.1415 129.7528 404.6824 144.3611 410.0556 C173.0687 420.6147 201.3611 433.0556 201.3611 433.0556 "/>
<path id="17" d="M161.3611 345.0556 C161.3611 345.0556 176.9048 357.6644 188.3611 365.0556 C189.5095 365.7965 192.3611 365.0556 192.3611 365.0556 "/>
<path id="18" d="M232.3611 398.0556 C232.3611 398.0556 244.4162 407.5958 257.3611 415.0556 C273.6542 424.4448 291.3611 432.0556 291.3611 432.0556 "/>
<path id="19" d="M336.3611 403.0556 C336.3611 403.0556 354.1944 413.1503 372.3611 422.0556 C379.5539 425.5814 380.151 426.1747 387.3611 428.0556 C390.8432 428.9639 392.2498 427.0833 395.3611 428.0556 C399.08 429.2177 403.3611 433.0556 403.3611 433.0556 "/>
<path id="20" d="M405.3611 385.0556 C405.3611 385.0556 424.1649 393.4988 443.3611 399.0556 C461.7645 404.3828 481.3611 407.0556 481.3611 407.0556 "/>
<path id="21" d="M274.3611 150.3056 C274.3611 150.3056 272.5835 139.4639 275.3611 134.3056 C281.0326 123.7729 288.3771 122.5407 295.3611 111.3056 C298.4882 106.275 295.4449 103.2385 298.3611 97.3056 C309.2497 75.1528 310.5912 74.2354 324.3611 52.3056 C337.5148 31.357 350.7226 10.9634 352.3611 11.3056 C358.7272 12.6347 383.6237 42.5303 415.3611 71.3056 C420.566 76.0246 421.2374 76.2437 427.3611 79.3056 C431.7625 81.5063 437.4012 82.2845 437.3611 82.3056 C436.9624 82.5151 402.5145 95.7806 368.3611 110.3056 C359.1471 114.2241 358.5396 113.9198 350.3611 119.3056 C338.4478 127.1509 339.3994 130.5919 327.3611 137.3056 C314.559 144.4452 298.3611 148.3056 298.3611 148.3056 "/>
</g>
</g>
</svg>
