<?xml version="1.0" encoding="utf-8"?>
<!DOCTYPE svg PUBLIC "-//W3C//DTD SVG 1.1//EN" "http://www.w3.org/Graphics/SVG/1.1/DTD/svg11.dtd">
<svg viewBox="0 0 800 800" preserveAspectRatio="xMinYMin meet" xmlns="http://www.w3.org/2000/svg" version="1.1">
<g fill="none" stroke="black" stroke-linecap="round" stroke-linejoin="round" stroke-width="1.3249">
<g transform="translate(165.64,87.52) scale(2.2643) translate(-145,-77.4167)">
<path id="0" d="M233 144.4167 L232 323.4167 "/>
<path id="1" d="M243 145.4167 L242 352.4167 "/>
<path id="2" d="M232 320.4167 L232 353.4167 "/>
<path id="3" d="M234 352.4167 L241 353.4167 "/>
<path id="4" d="M233 143.4167 L241 143.4167 "/>
<path id="5" d="M242 143.4167 C242 143.4167 266.5624 135.355 289 124.4167 C306.0488 116.1054 305.1413 113.515 322 104.4167 C336.4573 96.6143 352 90.4167 352 90.4167 "/>
<path id="6" d="M235 144.4167 C235 144.4167 233.589 139.7703 231 137.4167 C223.5509 130.6448 221.0252 131.7285 213 124.4167 C198.8797 111.5515 200.1487 109.4335 186 96.4167 C175.3911 86.6565 163 78.4167 163 78.4167 "/>
<path id="7" d="M234 145.4167 C234 145.4167 216.1923 151.1039 201 159.4167 C190.4606 165.1835 191.4048 168.1738 181 174.4167 C171.8868 179.8846 170.3991 178.1949 161 183.4167 C152.687 188.035 145 194.4167 145 194.4167 "/>
<path id="8" d="M231 157.4167 C231 157.4167 222.9839 157.6478 218 160.4167 C210.9772 164.3182 211.4553 167.7305 204 172.4167 C194.5573 178.3521 193.3545 179.5927 183 182.4167 C172.7248 185.219 168.7831 181.4053 160 184.4167 C154.2788 186.3782 148 194.4167 148 194.4167 "/>
<path id="9" d="M147 196.4167 C147 196.4167 152.762 190.2298 158 188.4167 C163.8379 186.3959 166.2423 189.275 173 187.4167 C185.2767 184.0406 185.8304 182.9723 198 177.4167 C208.711 172.5269 209.1628 172.6001 219 166.4167 C226.3704 161.7839 233 155.4167 233 155.4167 "/>
<path id="10" d="M349 94.4167 C349 94.4167 328.0269 111.9176 307 123.4167 C297.8124 128.4411 293.4685 124.5473 285 129.4167 C275.7578 134.7309 276.3436 140.096 267 146.4167 C260.6468 150.7145 257.8526 148.8272 251 152.4167 C248.2726 153.8453 246 157.4168 246 157.4167 C246 157.4165 247.9431 152.4342 251 150.4167 C270.7524 137.3801 273.4487 135.6923 296 124.4167 C303.5819 120.6257 312.9976 119.4137 313 119.4167 C313.0001 119.4168 306.5894 126.5338 300 129.4167 C292.1307 132.8595 289.1544 129.8367 281 133.4167 C269.9421 138.2713 259 147.4167 259 147.4167 "/>
<path id="11" d="M163 77.4167 C163 77.4167 169.235 78.5875 174 81.4167 C184.6544 87.7427 184.4778 90.307 195 96.4167 C199.1586 98.8314 202.2638 96.7717 205 99.4167 C214.5731 108.6706 217.8225 117.6411 225 125.4167 C225.5961 126.0624 227.6199 124.7266 229 125.4167 C237.9707 129.902 245.6389 134.7631 249 137.4167 C249.1561 137.5399 248.4504 140.0788 248 140.4167 C247.5842 140.7285 245.8173 140.9913 245 140.4167 C219.7611 122.6706 184 95.4167 184 95.4167 "/>
</g>
</g>
</svg>
