<?xml version="1.0" encoding="utf-8"?>
<!DOCTYPE svg PUBLIC "-//W3C//DTD SVG 1.1//EN" "http://www.w3.org/Graphics/SVG/1.1/DTD/svg11.dtd">
<svg viewBox="0 0 800 800" preserveAspectRatio="xMinYMin meet" xmlns="http://www.w3.org/2000/svg" version="1.1">
<g fill="none" stroke="black" stroke-linecap="round" stroke-linejoin="round" stroke-width="2.2561">
<g transform="translate(87.52,211.8471) scale(1.3297) translate(-54,-74.1333)">
<path id="0" d="M99 183.1333 C99 183.1333 89.4139 185.1932 85 183.1333 C77.8957 179.818 74.2685 176.9512 69 169.1333 C60.0481 155.8499 58.4734 152.343 54 137.1333 C51.6657 129.1968 52.5564 126.2176 54 118.1333 C54.7517 113.924 55.8751 112.9093 59 109.1333 C67.4971 98.866 67.6952 97.3303 78 89.1333 C88.9019 80.4614 91.3553 78.0149 103 74.1333 C110.7631 71.5456 117.4598 71.3632 123 74.1333 C129.9253 77.596 132.5737 82.786 139 92.1333 C143.0164 97.9754 144.1863 99.391 145 106.1333 C147.4383 126.3366 143.0996 130.1528 146 150.1333 C147.2589 158.8059 149.1469 160.4254 154 168.1333 C157.0898 173.0406 163 177.1333 163 177.1333 "/>
<path id="1" d="M99 185.1333 C99 185.1333 101.634 184.4503 103 185.1333 C110.1717 188.7192 112.3059 189.183 119 195.1333 C129.6389 204.5901 129.9929 205.4771 139 217.1333 C163.7914 249.2163 164.7267 249.5466 187 283.1333 C195.8671 296.5044 193.2115 299.6594 202 312.1333 C207.8354 320.4159 210.209 323.3431 218 327.1333 C225.5108 330.7872 230.7101 331.1086 239 330.1333 C244.5502 329.4804 249.8686 326.3304 252 323.1333 C253.9954 320.1403 254.7643 312.1106 253 309.1333 C249.9636 304.0094 243.3684 303.5017 236 296.1333 C218.3159 278.4493 217.07 277.5091 202 258.1333 C196.8034 251.452 197.0212 250.3578 194 242.1333 C188.1496 226.2073 191.4897 222.524 184 209.1333 C176.4577 195.6486 169.9305 196.375 161 183.1333 C156.4722 176.4197 155 166.1333 155 166.1333 "/>
<path id="2" d="M96 182.1333 C96 182.1333 106.9319 184.9262 115 183.1333 C127.2214 180.4175 131.513 178.3592 141 172.1333 C144.5877 169.7789 144.9112 167.2392 147 162.1333 C149.2184 156.7106 150 150.1333 150 150.1333 "/>
<path id="3" d="M253 323.1333 C253 323.1333 261.8741 318.5034 270 316.1333 C272.9872 315.2621 274.553 315.0118 277 316.1333 C284.7051 319.6648 286.2648 320.9075 294 327.1333 C306.4784 337.177 306.2536 342.6353 318 349.1333 C326.1879 353.6628 329.6784 352.4257 341 353.1333 C353.1433 353.8923 355.3461 355.3295 366 352.1333 C382.8862 347.0675 383.2275 342.468 401 335.1333 C414.415 329.597 415.0402 329.2672 429 326.1333 C438.974 323.8943 441.3342 322.8954 450 324.1333 C456.2752 325.0298 457.6039 326.9177 464 331.1333 C479.2912 341.2116 479.2117 345.7392 494 353.1333 C502.6566 357.4616 505.8793 356.4586 516 357.1333 C519.5756 357.3717 524 355.1333 524 355.1333 "/>
<path id="4" d="M57 137.1333 C57 137.1333 61.4254 130.5602 67 126.1333 C77.9216 117.4603 78.5641 116.5904 91 110.1333 C103.9762 103.3957 105.4737 101.9947 119 99.1333 C129.7044 96.8689 143 99.1333 143 99.1333 "/>
<path id="5" d="M62 152.1333 C62 152.1333 62.0208 149.3301 63 148.1333 C65.7529 144.7687 66.652 143.5791 71 141.1333 C81.9951 134.9486 83.6813 134.0241 95 130.1333 C98.2594 129.0129 99.5649 131.0952 103 130.1333 C111.1411 127.8538 111.8267 124.3506 120 123.1333 C133.59 121.1093 150 123.1333 150 123.1333 "/>
<path id="6" d="M72 171.1333 C72 171.1333 80.5396 161.587 90 154.1333 C96.657 148.8884 97.3589 148.3376 105 145.1333 C112.1947 142.1162 113.1218 141.9212 121 141.1333 C132.5291 139.9804 145 141.1333 145 141.1333 "/>
<path id="7" d="M59 112.1333 C59 112.1333 67.5243 120.8247 73 130.1333 C77.0761 137.0627 74.8128 139.2664 79 146.1333 C86.7925 158.913 90.6103 158.603 98 171.1333 C101.339 176.795 102 185.1333 102 185.1333 "/>
<path id="8" d="M74 96.1333 C74 96.1333 95.0712 129.6605 112 163.1333 C116.5228 172.0761 118 183.1333 118 183.1333 "/>
<path id="9" d="M95 82.1333 C95 82.1333 100.3182 84.6046 103 88.1333 C109.0741 96.1256 109.854 97.2865 114 107.1333 C121.6272 125.248 119.9346 126.5403 127 145.1333 C129.3496 151.3166 129.677 152.602 133 157.1333 C134.3508 158.9753 137.5654 158.9164 138 160.1333 C138.999 162.9304 138 171.1333 138 171.1333 "/>
<path id="10" d="M153 208.1333 C153 208.1333 157.5206 217.158 160 220.1333 C160.3476 220.5504 162.8125 220.3208 163 220.1333 C163.1875 219.9458 163.411 217.4987 163 217.1333 C160.928 215.2915 154.8518 213.4719 154 212.1333 C153.6246 211.5434 155.1835 207.1132 156 206.1333 C156.2663 205.8138 158.7681 205.802 159 206.1333 C160.4137 208.1529 161.0757 213.1095 163 216.1333 C163.4462 216.8345 165.1257 216.4776 166 217.1333 C166.5828 217.5705 167.0067 219.1305 167 219.1333 C166.6038 219.3031 159 220.1333 159 220.1333 "/>
</g>
</g>
</svg>
