<?xml version="1.0" encoding="utf-8"?>
<!DOCTYPE svg PUBLIC "-//W3C//DTD SVG 1.1//EN" "http://www.w3.org/Graphics/SVG/1.1/DTD/svg11.dtd">
<svg viewBox="0 0 800 800" preserveAspectRatio="xMinYMin meet" xmlns="http://www.w3.org/2000/svg" version="1.1">
<g fill="none" stroke="black" stroke-linecap="round" stroke-linejoin="round" stroke-width="0.78245">
<g transform="translate(206.3774,87.52) scale(3.8341) translate(-213,-115.1333)">
<path id="0" d="M219 144.1333 C219 144.1333 230.2003 140.8697 236 141.1333 C237.7821 141.2143 241 145.1333 241 145.1333 "/>
<path id="1" d="M218 144.1333 L218 212.1333 "/>
<path id="2" d="M240 145.1333 C240 145.1333 240.9038 167.395 244 187.1333 C244.6993 191.5912 247.5115 191.8594 248 196.1333 C249.3429 207.8836 248 222.1333 248 222.1333 "/>
<path id="3" d="M217 206.1333 L217 230.1333 "/>
<path id="4" d="M216 230.1333 L252 228.1333 "/>
<path id="5" d="M249 222.1333 L250 229.1333 "/>
<path id="6" d="M215 232.1333 C215 232.1333 210.8318 272.4549 213 275.1333 C214.4746 276.9549 233.2285 275.9672 249 274.1333 C252.2599 273.7543 254.596 271.7379 256 270.1333 C256.5547 269.4994 256 266.1333 256 266.1333 "/>
<path id="7" d="M251 231.1333 C251 231.1333 252.967 232.3745 253 233.1333 C253.6956 249.1313 253.2495 271.6447 253 277.1333 C252.9995 277.1447 251 277.1333 251 277.1333 "/>
<path id="8" d="M220 239.1333 C220 239.1333 215.4628 268.4371 217 270.1333 C218.6306 271.9326 249 271.1333 249 271.1333 "/>
<path id="9" d="M248 238.1333 L248 271.1333 "/>
<path id="10" d="M227 143.1333 C227 143.1333 225.1491 118.1116 226 115.1333 C226.079 114.857 234.9717 114.9732 235 115.1333 C235.5957 118.5089 232 149.1333 232 149.1333 "/>
<path id="11" d="M218 237.1333 C218 237.1333 238.3766 240.0863 246 239.1333 C247.3049 238.9702 250 233.1333 250 233.1333 "/>
<path id="12" d="M214 245.1333 C214 245.1333 230.5894 246.2284 243 245.1333 C245.253 244.9345 248 242.1333 248 242.1333 "/>
<path id="13" d="M216 248.1333 C216 248.1333 240.3149 251.9347 251 251.1333 C252.6746 251.0077 256 245.1333 256 245.1333 "/>
<path id="14" d="M214 256.1333 C214 256.1333 228.0722 257.9054 239 256.1333 C244.6706 255.2138 251 250.1333 251 250.1333 "/>
<path id="15" d="M217 264.1333 C217 264.1333 236.7646 266.7165 246 265.1333 C248.3066 264.7379 252 258.1333 252 258.1333 "/>
<path id="16" d="M229 230.1333 C229 230.1333 230.9399 244.9397 229 257.1333 C227.6986 265.3138 222 274.1333 222 274.1333 "/>
<path id="17" d="M241 234.1333 C241 234.1333 240.6103 255.0987 238 271.1333 C237.5369 273.9782 234.0183 277.1288 234 277.1333 C233.9959 277.1344 234 272.1333 234 272.1333 "/>
<path id="18" d="M246 236.1333 L246 260.1333 "/>
<path id="19" d="M275 250.1333 C275 250.1333 282.1308 255.1873 284 259.1333 C285.4093 262.1085 285.2048 265.3183 284 269.1333 C282.6874 273.2897 278 278.1333 278 278.1333 "/>
<path id="20" d="M280 247.1333 C280 247.1333 285.8766 249.7697 289 253.1333 C291.5484 255.8778 292.3695 257.3505 293 261.1333 C294.164 268.117 293 277.1333 293 277.1333 "/>
<path id="21" d="M294 252.1333 C294 252.1333 300.799 253.3318 302 255.1333 C304.5461 258.9525 306 270.1333 306 270.1333 "/>
<path id="22" d="M305 248.1333 C305 248.1333 310.7298 253.3407 313 258.1333 C314.5597 261.426 314 267.1333 314 267.1333 "/>
</g>
</g>
</svg>
