<?xml version="1.0" encoding="utf-8"?>
<!DOCTYPE svg PUBLIC "-//W3C//DTD SVG 1.1//EN" "http://www.w3.org/Graphics/SVG/1.1/DTD/svg11.dtd">
<svg viewBox="0 0 800 800" preserveAspectRatio="xMinYMin meet" xmlns="http://www.w3.org/2000/svg" version="1.1">
<g fill="none" stroke="black" stroke-linecap="round" stroke-linejoin="round" stroke-width="1.6033">
<g transform="translate(87.52,88.4556) scale(1.8711) translate(-231,-116.1333)">
<path id="0" d="M270 124.1333 C270 124.1333 263.7935 122.6807 261 124.1333 C253.9355 127.8069 250.9326 129.8823 245 137.1333 C238.4059 145.1928 237.684 147.1339 234 157.1333 C231.0738 165.076 229.8018 168.9428 231 175.1333 C232.014 180.3723 234.7599 182.7125 240 188.1333 C248.7738 197.2097 249.9785 197.9751 260 205.1333 C263.1623 207.3922 264.1464 207.7347 268 208.1333 C277.7379 209.1407 279.3959 209.5457 289 208.1333 C295.2817 207.2096 296.1965 206.2989 302 203.1333 C306.73 200.5533 307.4495 200.1016 311 196.1333 C315.5189 191.0828 317.5609 189.8896 319 184.1333 C321.9295 172.4152 321.8114 169.3863 321 156.1333 C320.3799 146.0044 320.2494 142.7375 316 135.1333 C312.2811 128.4785 309.2923 126.2085 302 122.1333 C293.9915 117.658 291.7914 117.7211 282 116.1333 C274.0634 114.8463 271.0224 113.9963 265 116.1333 C258.6576 118.3839 251 127.1333 251 127.1333 "/>
<path id="1" d="M240 199.1333 C240 199.1333 249.6528 230.4247 252 261.1333 C255.544 307.5009 250.5214 308.8193 252 356.1333 C253.0141 388.5839 253.4857 411.8555 257 421.1333 C257.4505 422.3227 275.3499 423.8972 277 422.1333 C280.766 418.1076 283.7254 406.1819 286 390.1333 C292.581 343.7004 289.4683 342.3376 295 295.1333 C296.9409 278.5706 299.3146 278.65 301 262.1333 C304.2797 229.9924 305 197.1333 305 197.1333 "/>
<path id="2" d="M270 424.1333 C270 424.1333 269.6288 430.9228 271 436.1333 C271.9004 439.5548 272.7039 441.7766 275 443.1333 C281.0801 446.7261 284.2302 447.489 293 449.1333 C299.4197 450.337 301.4234 450.9375 307 449.1333 C316.3842 446.0973 319.4958 445.1685 327 438.1333 C341.8227 424.2371 339.9239 417.5343 355 404.1333 C364.9549 395.2846 369.2549 392.8969 381 390.1333 C390.8348 387.8193 394.6399 389.2933 406 392.1333 C417.3601 394.9734 417.2835 397.9759 429 402.1333 C448.0909 408.9075 448.7002 411.0276 468 414.1333 C490.7848 417.7998 493.6718 417.9685 516 416.1333 C527.9761 415.149 531.1038 414.1922 541 408.1333 C553.4023 400.5401 565 386.1333 565 386.1333 "/>
<path id="3" d="M263 157.1333 L260 157.1333 "/>
<path id="4" d="M270 135.1333 L273 135.1333 "/>
<path id="5" d="M302 147.1333 L301 147.1333 "/>
<path id="6" d="M277 157.1333 L283 157.1333 "/>
<path id="7" d="M286 142.1333 L286 141.1333 "/>
<path id="8" d="M295 130.1333 C295 130.1333 300.4856 130.5332 301 131.1333 C301.5025 131.7195 301 137.1333 301 137.1333 "/>
<path id="9" d="M306 174.1333 C306 174.1333 306.6345 179.2299 306 181.1333 C305.7281 181.9491 303 183.1333 303 183.1333 "/>
<path id="10" d="M293 189.1333 L285 189.1333 "/>
<path id="11" d="M290 175.1333 L295 170.1333 "/>
<path id="12" d="M309 166.1333 L311 168.1333 "/>
<path id="13" d="M246 146.1333 L256 149.1333 "/>
<path id="14" d="M247 169.1333 L251 169.1333 "/>
<path id="15" d="M273 176.1333 L277 176.1333 "/>
<path id="16" d="M258 193.1333 L262 193.1333 "/>
<path id="17" d="M286 197.1333 L288 197.1333 "/>
<path id="18" d="M257 181.1333 L261 182.1333 "/>
<path id="19" d="M275 199.1333 L277 199.1333 "/>
</g>
</g>
</svg>
