<?xml version="1.0" encoding="utf-8"?>
<!DOCTYPE svg PUBLIC "-//W3C//DTD SVG 1.1//EN" "http://www.w3.org/Graphics/SVG/1.1/DTD/svg11.dtd">
<svg viewBox="0 0 800 800" preserveAspectRatio="xMinYMin meet" xmlns="http://www.w3.org/2000/svg" version="1.1">
<g fill="none" stroke="black" stroke-linecap="round" stroke-linejoin="round" stroke-width="1.1857">
<g transform="translate(155.8355,87.52) scale(2.5302) translate(-137,-108)">
<path id="0" d="M194 190 C194 190 187.4297 191.2708 182 190 C164.9984 186.0209 162.2981 184.6361 147 179 C145.3918 178.4075 144.9518 177.6656 144 176 C141.2024 171.1042 140.4838 170.5114 139 165 C137.1325 158.0635 136.7646 157.0615 137 150 C137.238 142.8597 137.632 141.8408 140 135 C141.9307 129.4223 142.4296 128.7605 146 124 C149.628 119.1627 150.1184 118.3959 155 115 C161.0359 110.8011 162.3836 109.0771 169 108 C181.6737 105.9368 185.0677 105.6722 198 108 C208.0872 109.8157 212.9886 111.3894 219 117 C224.4661 122.1017 226.1093 126.7182 228 136 C231.2134 151.775 230 156.84 230 171 C230 172.2137 229.1446 173.4717 228 174 C218.4792 178.3942 215.3379 177.8464 204 183 C199.2667 185.1515 195 189 195 189 "/>
<path id="1" d="M191 191 C191 191 196.4443 192.212 199 195 C211.3837 208.5094 210.7687 211.7331 224 227 C243.1485 249.0944 247.7996 247.3195 264 270 C276.5141 287.5197 272.9684 291.3883 284 311 C290.7562 323.011 293.2052 322.183 300 334 C304.4366 341.7159 307 351 307 351 "/>
<path id="2" d="M231 174 C231 174 235.4505 176.5327 238 180 C247.4311 192.8263 245.9321 195.231 256 208 C266.0541 220.7515 268.5203 219.3371 279 232 C292.3179 248.0925 292.4159 249.0376 304 266 C306.0524 269.0053 306.4416 269.5377 307 273 C308.8149 284.2525 305.6491 286.3646 309 297 C316.5665 321.0155 320.9625 323.191 330 346 C330.6307 347.5917 330.3214 349.8393 330 350 C326.7058 351.6471 312 355 312 355 "/>
<path id="3" d="M236 219 C236 219 241.0734 218.9808 242 220 C243.9575 222.1533 244.5863 227.9804 246 230 C246.2319 230.3313 248.9994 230.0141 249 230 C249.1028 227.7395 247.9723 211.0557 247 208 C246.9317 207.7852 242.1433 207.693 242 208 C241.0217 210.0964 240 223 240 223 "/>
</g>
</g>
</svg>
