<?xml version="1.0" encoding="utf-8"?>
<!DOCTYPE svg PUBLIC "-//W3C//DTD SVG 1.1//EN" "http://www.w3.org/Graphics/SVG/1.1/DTD/svg11.dtd">
<svg viewBox="0 0 800 800" preserveAspectRatio="xMinYMin meet" xmlns="http://www.w3.org/2000/svg" version="1.1">
<g fill="none" stroke="black" stroke-linecap="round" stroke-linejoin="round" stroke-width="1.6465">
<g transform="translate(96.6302,87.52) scale(1.822) translate(-22,-138.1333)">
<path id="0" d="M286 251.1333 C286 251.1333 282.0466 263.451 276 274.1333 C267.2824 289.5345 266.5878 289.6326 256 304.1333 C243.6601 321.0337 243.7367 321.4735 230 337.1333 C218.9105 349.7754 217.154 348.5851 206 361.1333 C197.3338 370.8828 198.4759 372.6403 190 382.1333 C186.3883 386.1784 181 389.1333 181 389.1333 "/>
<path id="1" d="M141 371.1333 C141 371.1333 169.9753 330.3212 198 289.1333 C202.9012 281.93 203.344 281.9221 207 274.1333 C214.7156 257.6958 212.7911 255.943 221 240.1333 C225.923 230.652 234 222.1333 234 222.1333 "/>
<path id="2" d="M232 213.1333 C232 213.1333 235.0275 218.3379 239 221.1333 C247.7254 227.2734 249.987 225.7293 259 232.1333 C268.5161 238.8948 267.7989 242.6126 277 248.1333 C283.6675 252.1338 294 253.1333 294 253.1333 "/>
<path id="3" d="M294 253.1333 L321 221.1333 "/>
<path id="4" d="M231 213.1333 C231 213.1333 237.4112 201.4541 245 191.1333 C249.7205 184.7134 256 179.1333 256 179.1333 "/>
<path id="5" d="M261 175.1333 C261 175.1333 261.2695 179.2298 263 181.1333 C274.6104 193.9047 276.2794 198.565 291 208.1333 C303.8623 216.4938 323 220.1333 323 220.1333 "/>
<path id="6" d="M261 173.1333 L297 138.1333 "/>
<path id="7" d="M297 138.1333 C297 138.1333 297.2544 143.554 299 145.1333 C305.2542 150.7919 310.9509 151.8465 318 157.1333 C318.8182 157.747 318.3409 159.8305 319 160.1333 C330.7587 165.536 353.1185 173.6107 355 174.1333 C355.0524 174.1479 355.7301 171.1829 355 170.1333 C349.5003 162.2275 347.5967 157.9601 339 151.1333 C332.2658 145.7856 330.081 145.7279 321 143.1333 C309.7446 139.9175 297 139.1333 297 139.1333 "/>
<path id="8" d="M350 174.1333 C350 174.1333 355 174.1333 355 174.1333 C355 174.6058 353.5181 181.13 350 185.1333 C340.1522 196.3395 337.0405 195.7367 326 207.1333 C321.9056 211.3598 319 217.1333 319 217.1333 "/>
<path id="9" d="M181 388.1333 C181 388.1333 168.9994 387.1594 160 383.1333 C151.3369 379.2577 143 371.1333 143 371.1333 "/>
<path id="10" d="M152 379.1333 C152 379.1333 147.4523 386.2076 142 390.1333 C135.9026 394.5234 134.5559 394.0423 127 397.1333 C123.6931 398.4862 123.3077 399.1333 120 399.1333 C103.4614 399.1333 100.0602 395.1811 85 397.1333 C76.2577 398.2666 74.1093 400.5019 66 406.1333 C56.9718 412.4029 56.6687 413.643 49 422.1333 C42.9013 428.8854 42.7746 429.3432 38 437.1333 C33.4096 444.6229 32.9847 444.9254 30 453.1333 C25.1211 466.5502 22 481.1333 22 481.1333 "/>
</g>
</g>
</svg>
