<?xml version="1.0" encoding="utf-8"?>
<!DOCTYPE svg PUBLIC "-//W3C//DTD SVG 1.1//EN" "http://www.w3.org/Graphics/SVG/1.1/DTD/svg11.dtd">
<svg viewBox="0 0 800 800" preserveAspectRatio="xMinYMin meet" xmlns="http://www.w3.org/2000/svg" version="1.1">
<g fill="none" stroke="black" stroke-linecap="round" stroke-linejoin="round" stroke-width="0.96966">
<g transform="translate(352.0451,87.52) scale(3.0939) translate(-259,-75)">
<path id="0" d="M269 122 L270 273 "/>
<path id="1" d="M271 273 L283 273 "/>
<path id="2" d="M284 120 L280 277 "/>
<path id="3" d="M270 122 C270 122 278.6817 123.5398 283 123 C284.132 122.8585 286 120 286 120 "/>
<path id="4" d="M271 122 C271 122 261.2269 112.794 259 105 C256.2748 95.4618 258.2546 90.4355 259 80 C259.0937 78.6881 260.1668 77.1736 261 77 C268.1155 75.5176 277.4171 73.4599 283 75 C285.5401 75.7007 289.093 80.4652 290 85 C291.9889 94.9447 292.1529 100.5812 290 110 C288.9814 114.4565 285.403 117.9982 282 120 C279.7938 121.2978 273 120 273 120 "/>
<path id="5" d="M259 98 C259 98 270.7875 101.4496 277 100 C281.996 98.8343 289 91 289 91 "/>
<path id="6" d="M265 114 C265 114 284.8362 113.5499 288 115 C288.753 115.3451 289.301 124.8727 289 125 C286.4452 126.0809 264.958 126.6573 262 126 C261.8282 125.9618 261.65 119.175 262 119 C263.4 118.3 276 119 276 119 "/>
<path id="7" d="M269 121 L268 122 "/>
</g>
</g>
</svg>
