<?xml version="1.0" encoding="utf-8"?>
<!DOCTYPE svg PUBLIC "-//W3C//DTD SVG 1.1//EN" "http://www.w3.org/Graphics/SVG/1.1/DTD/svg11.dtd">
<svg viewBox="0 0 800 800" preserveAspectRatio="xMinYMin meet" xmlns="http://www.w3.org/2000/svg" version="1.1">
<g fill="none" stroke="black" stroke-linecap="round" stroke-linejoin="round" stroke-width="0.92166">
<g transform="translate(172.15,87.52) scale(3.255) translate(-195,-85)">
<path id="0" d="M218 163 C218 163 216.9878 161.0024 217 161 C217.1182 160.9764 222.1532 160.8886 223 162 C227.1978 167.5096 226.2521 174.3671 233 182 C255.0138 206.9008 262.5433 204.8669 284 231 C300.0956 250.6036 307.8899 275.5364 311 277 C311.8725 277.4106 334.8458 255.2262 335 255 C335.0247 254.9638 327.8149 256.2811 326 255 C322.6786 252.6555 319.5313 248.8469 318 243 C314.6554 230.2297 317.48 227.5701 315 213 C313.549 204.4754 313.8121 203.6242 310 196 C290.8416 157.6833 271.7489 122.2728 268 119 C267.9384 118.9463 258.3859 131.9377 247 141 C234.7211 150.773 231.5569 151.7216 219 158 C216.9359 159.0321 214.6944 158.9124 213 158 C209.9588 156.3624 208.4741 154.8658 206 151 C200.8794 142.999 198.5213 141.3672 197 133 C194.9998 121.9987 196.282 118.6826 198 107 C198.5643 103.1627 199.381 102.1101 202 99 C206.8621 93.2262 207.86 92.298 214 88 C217.1479 85.7964 218.2369 85.2214 222 85 C233.9391 84.2977 235.504 84.438 248 86 C254.9356 86.8669 258.3586 86.8336 262 90 C266.7737 94.151 269.6292 101.2023 271 106 C271.3058 107.0703 268.4081 108.6873 268 111 C267.1143 116.0191 268.7428 119.5335 268 123 C267.8364 123.7634 265 125 265 125 "/>
<path id="1" d="M203 105 C203 105 207.2232 109.3802 209 114 C211.913 121.5739 209.6976 123.4778 213 131 C218.3079 143.0902 226.9801 154.9917 227 155 C227.0082 155.0034 225 136 225 136 "/>
<path id="2" d="M217 94 C217 94 221.2892 95.3597 222 97 C226.1915 106.6728 224.8484 111.5756 230 124 C233.013 131.2667 236.006 131.6793 239 138 C239.8197 139.7304 239.0764 142.8472 239 143 C239 143 237 142 237 142 "/>
<path id="3" d="M238 88 C238 88 241.6423 88.2635 242 89 C246.9003 99.0889 249.623 106.8689 255 123 C255.7014 125.1041 255 128 255 128 C254.9924 128 253.7669 124.5706 252 123 C249.943 121.1715 246 120 246 120 "/>
<path id="4" d="M195 118 C195 118 202.769 115.154 209 111 C214.3408 107.4394 213.6048 105.2371 219 102 C227.8985 96.6609 239 93 239 93 "/>
<path id="5" d="M199 128 C199 128 208.5229 125.3129 217 121 C236.7339 110.9599 256 99 256 99 "/>
<path id="6" d="M210 143 C210 143 218.3987 141.9046 225 139 C230.1518 136.7332 229.721 134.5641 235 132 C246.7623 126.2869 249.035 127.6594 260 122 C263.3071 120.2931 266 116 266 116 "/>
</g>
</g>
</svg>
