<?xml version="1.0" encoding="utf-8"?>
<!DOCTYPE svg PUBLIC "-//W3C//DTD SVG 1.1//EN" "http://www.w3.org/Graphics/SVG/1.1/DTD/svg11.dtd">
<svg viewBox="0 0 800 800" preserveAspectRatio="xMinYMin meet" xmlns="http://www.w3.org/2000/svg" version="1.1">
<g fill="none" stroke="black" stroke-linecap="round" stroke-linejoin="round" stroke-width="0.97926">
<g transform="translate(87.52,98.2424) scale(3.0635) translate(-103,-235.7)">
<path id="0" d="M103 366.7 C103 366.7 106.4492 359.7646 108 352.7 C110.8635 339.655 112 325.7 112 325.7 "/>
<path id="1" d="M111 325.7 C111 325.7 103.6029 412.9058 109 423.7 C110.697 427.0941 135.623 427.5466 162 427.7 C221.1893 428.0441 222.4766 424.7 281 424.7 C290.3441 424.7 291.8354 425.1878 300 427.7 C303.4991 428.7767 306.9913 432.7564 307 432.7 C307.0675 432.2611 306.8175 416.7269 304 401.7 C300.9035 385.1853 296.3705 384.8031 295 368.7 C292.5276 339.6495 296 307.7 296 307.7 "/>
<path id="2" d="M113 327.7 C113 327.7 112.1298 323.1807 113 319.7 C114.4412 313.9351 114.625 312.1296 118 307.7 C121.7104 302.8301 124.1223 301.1389 129 298.7 C131.2028 297.5986 135.0496 297.8288 136 298.7 C138.0479 300.5772 140.4214 304.4928 141 309.7 C142.7024 325.0212 140.988 343.6559 141 343.7 C141.0037 343.7134 143.9377 333.2312 147 331.7 C154.7834 327.8083 161.1082 327.9186 175 326.7 C189.1661 325.4574 189.9284 325.3725 204 326.7 C215.8743 327.8202 216.1315 328.7988 228 331.7 C238.5718 334.2842 241.4685 334.0849 249 337.7 C251.1699 338.7415 253 343.7 253 343.7 "/>
<path id="3" d="M255 342.7 C255 342.7 256.8299 332.0402 261 323.7 C264.8858 315.9284 266.2116 314.199 272 308.7 C274.9343 305.9124 276.6995 305.3616 281 304.7 C288.6032 303.5303 290.9382 303.9938 298 304.7 C299.3293 304.8329 300.577 305.854 301 306.7 C301.4834 307.6668 301 310.7 301 310.7 "/>
<path id="4" d="M137 295.7 C137 295.7 139.2975 281.3088 145 269.7 C152.7783 253.8655 155.6791 248.923 165 238.7 C167.4667 235.9946 170.6265 236.01 176 235.7 C195.7184 234.5624 197.7832 233.0676 217 235.7 C232.6406 237.8425 234.2651 239.0693 249 245.7 C263.3918 252.1763 266.362 253.5818 277 262.7 C281.5336 266.586 282.7003 269.5731 284 275.7 C285.7945 284.1598 285.4496 288.1622 284 295.7 C283.4954 298.3237 279 301.7 279 301.7 "/>
<path id="5" d="M143 346.7 C143 346.7 146.3757 352.2001 149 352.7 C162.3665 355.246 167.3958 355.0144 185 354.7 C194.816 354.5247 195.1076 351.9826 205 351.7 C229.6114 350.9968 247.7683 353.8344 255 352.7 C255.3499 352.6451 256 343.7 256 343.7 "/>
<path id="6" d="M283 284.7 L285 307.7 "/>
<path id="7" d="M177 272.7 L176 274.7 "/>
<path id="8" d="M243 274.7 L243 278.7 "/>
</g>
</g>
</svg>
