<?xml version="1.0" encoding="utf-8"?>
<!DOCTYPE svg PUBLIC "-//W3C//DTD SVG 1.1//EN" "http://www.w3.org/Graphics/SVG/1.1/DTD/svg11.dtd">
<svg viewBox="0 0 800 800" preserveAspectRatio="xMinYMin meet" xmlns="http://www.w3.org/2000/svg" version="1.1">
<g fill="none" stroke="black" stroke-linecap="round" stroke-linejoin="round" stroke-width="1.3585">
<g transform="translate(187.9994,87.52) scale(2.2083) translate(-178,-80)">
<path id="0" d="M178 250 C178 250 181.2102 242.9981 186 238 C203.6371 219.5961 204.3086 218.994 224 202 C240.6217 187.6552 259 175 259 175 "/>
<path id="1" d="M179 250 C179 250 181.308 258.1042 183 259 C185.5096 260.3286 193.9575 261.0797 196 259 C211.5575 243.1597 216.1421 228.5626 238 203 C244.5484 195.3417 247.3743 197.0998 255 190 C261.5595 183.8928 267 176 267 176 "/>
<path id="2" d="M258 174 L267 174 "/>
<path id="3" d="M270 127 C270 127 266.4144 133.1979 266 139 C264.5158 159.7795 266 183 266 183 "/>
<path id="4" d="M266 129 C266 129 263.6187 97.777 267 90 C268.3085 86.9904 276.6972 84.0223 286 83 C320.036 79.2598 355.3042 76.2932 358 80 C363.5704 87.6593 358 182 358 182 "/>
<path id="5" d="M262 176 C262 176 265.0131 184.6115 266 193 C266.9603 201.1626 265.5363 209.8935 266 210 C274.7863 212.0185 304.9502 211.6302 340 210 C345.7719 209.7315 351.3743 207.6847 352 206 C354.3211 199.7508 353 175 353 175 "/>
<path id="6" d="M264 204 C264 204 256.8638 223.8834 247 241 C240.2979 252.6301 235.8616 252.156 230 263 C226.8762 268.7791 225.6929 275.5726 227 278 C228.9681 281.6551 235.2832 284.501 244 289 C250.3733 292.2894 251.2359 293.3368 258 294 C275.2719 295.6933 277.5306 291.9619 295 294 C306.2449 295.3119 306.7489 299.0791 318 301 C326.3703 302.4291 335.4366 302.1871 336 301 C340.2041 292.1413 339.7993 270.9366 346 242 C348.7092 229.3571 351.6211 229.192 354 217 C355.433 209.6557 354 201 354 201 "/>
<path id="7" d="M226 277 C226 277 231.5485 295.1679 233 313 C234.9845 337.381 231.8661 358.8133 233 363 C233.0345 363.1273 245.5946 361.9798 246 361 C247.4607 357.4701 246.3459 347.1228 245 334 C244.3888 328.0407 242.3209 327.8841 242 322 C240.8654 301.199 242 279 242 279 "/>
<path id="8" d="M334 297 C334 297 335.8741 305.0707 336 313 C336.3689 336.2382 336.4767 354.2161 335 360 C334.9122 360.3437 326.242 360.5605 324 360 C323.6433 359.9108 323.0251 358.4319 323 357 C322.5505 331.3757 323 303 323 303 "/>
<path id="9" d="M357 172 C357 172 336.5385 197.5164 318 224 C308.6723 237.3253 310.111 238.6589 301 252 C296.2818 258.9088 294.4222 258.3667 290 265 C287.8251 268.2623 287.7269 269.1233 287 273 C286.3209 276.622 286.7882 280.9529 287 281 C291.2882 281.9529 317.8335 285.3508 323 281 C331.8148 273.577 335.5422 257.1204 344 233 C348.7517 219.4489 348.2265 218.4412 350 204 C351.6772 190.3426 349.3063 187.1786 351 176 C351.3373 173.7739 355.0001 170.999 355 171 C354.9997 171.0024 351.4758 176.933 350 183 C347.0998 194.9231 346 208 346 208 "/>
<path id="10" d="M351 211 C351 211 355.5892 228.5412 357 246 C359.551 277.568 358.3863 304.4763 359 310 C359.0042 310.0382 362.6776 310.0579 364 309 C366.4168 307.0666 368.6675 305.1032 369 302 C371.1666 281.778 372.9974 274.2815 370 253 C368.5553 242.7427 363.0178 241.7141 359 231 C357.4044 226.7451 358 221 358 221 "/>
<path id="11" d="M274 295 C274 295 276.2537 306.5735 277 307 C277.6598 307.377 285.4143 304.9392 288 303 C288.8773 302.342 289 298 289 298 "/>
</g>
</g>
</svg>
