<?xml version="1.0" encoding="utf-8"?>
<!DOCTYPE svg PUBLIC "-//W3C//DTD SVG 1.1//EN" "http://www.w3.org/Graphics/SVG/1.1/DTD/svg11.dtd">
<svg viewBox="0 0 800 800" preserveAspectRatio="xMinYMin meet" xmlns="http://www.w3.org/2000/svg" version="1.1">
<g fill="none" stroke="black" stroke-linecap="round" stroke-linejoin="round" stroke-width="0.91686">
<g transform="translate(170.9571,87.52) scale(3.272) translate(-189,-121)">
<path id="0" d="M265 123 C265 123 259.4438 130.974 257 138 C255.9006 141.1608 256.3838 145.5599 257 146 C258.6638 147.1884 268.8061 147.3732 271 148 C271.086 148.0246 270.825 149.9 271 150 C272.2468 150.7125 274.5127 151.5451 278 152 C285.7473 153.0105 286.8369 151.271 294 153 C300.3723 154.5381 300.4982 157.1424 307 159 C313.8805 160.9659 319.6764 160.3804 322 161 C322.0798 161.0213 321.9999 163.0002 322 163 C322.0002 162.9996 323.1353 159.6764 323 159 C322.9502 158.7508 321 158 321 158 "/>
<path id="1" d="M265 121 C265 121 280.9086 123.1865 284 124 C284.0822 124.0216 283.9502 125.9913 284 126 C287.3449 126.5817 303.6551 127.4183 307 128 C307.0498 128.0087 306.8393 129.9286 307 130 C310.7373 131.661 317.2938 132.4972 325 136 C327.1631 136.9832 328.5051 138.268 329 140 C329.9622 143.3678 330.297 146.665 329 150 C327.6094 153.5759 322 158 322 158 "/>
<path id="2" d="M258 145 C258 145 256.7616 152.753 254 158 C252.3257 161.1811 249.7664 160.675 248 164 C241.8777 175.5243 237 190 237 190 "/>
<path id="3" d="M322 162 L288 217 "/>
<path id="4" d="M234 189 C234 189 238.7692 191.1536 239 192 C239.3943 193.4459 236.7979 197.7768 237 200 C237.0846 200.9306 238.3973 202.3836 240 203 C249.9129 206.8126 252.9582 205.1078 263 210 C271.3064 214.0467 271.872 218.436 279 222 C281.592 223.296 284.3772 222.8743 287 222 C288.7485 221.4172 291 218 291 218 "/>
<path id="5" d="M239 195 C239 195 238.4481 201.3278 236 205 C232.2598 210.6103 231.111 212.0618 225 216 C209.5949 225.9277 193.7049 230.5668 191 234 C190.4748 234.6667 194.3459 244.1132 199 249 C202.5861 252.7654 208.3734 252.8112 211 255 C211.515 255.4292 210.2956 257.9754 211 259 C214.4449 264.0108 217.4656 264.8462 222 271 C224.0773 273.8192 224.4002 277.8715 225 278 C226.352 278.2897 232.7694 276.2366 236 274 C237.2814 273.1129 236.7188 270.0249 238 269 C240.2207 267.2235 244.5031 267.1227 246 266 C246.3286 265.7536 245.7383 263.2094 246 263 C246.6325 262.494 249.768 262.88 251 262 C252.0472 261.252 251.5881 259.2102 253 258 C264.2207 248.3823 267.0977 248.4596 279 238 C283.0723 234.4213 283.8185 233.3629 286 229 C287.3089 226.3823 287 222 287 222 "/>
<path id="6" d="M289 222 C289 222 293.7825 235.6075 295 249 C297.214 273.354 296 299 296 299 "/>
<path id="7" d="M228 278 L234 312 "/>
<path id="8" d="M191 235 C191 235 191.2456 248.1578 191 250 C190.9956 250.0328 189 250 189 250 C189 255.1366 191 295 191 295 "/>
<path id="9" d="M251 261 L253 274 "/>
<path id="10" d="M256 146 C256 146 252.337 151.4283 248 155 C244.3086 158.04 243.6766 158.0309 239 160 C215.4173 169.9296 195.9873 174.7251 191 179 C190.335 179.57 197 196 197 196 "/>
<path id="11" d="M197 196 L243 174 "/>
<path id="12" d="M322 162 C322 162 313.6191 161.3258 309 164 C297.066 170.9092 296.2717 176.5724 284 184 C279.1 186.9658 273.3123 186.1107 271 187 C270.8743 187.0483 271.1881 188.906 271 189 C266.4863 191.2569 251 197 251 197 "/>
<path id="13" d="M252 198 C252 198 252.8116 210.3362 254 212 C254.4401 212.6162 259.1772 213.2273 262 212 C268.8269 209.0318 269.5304 205.7348 277 202 C280.7348 200.1326 282.6981 202.0099 286 200 C292.8849 195.8092 293.0631 192.6246 300 188 C302.6276 186.2483 307 186 307 186 "/>
</g>
</g>
</svg>
