<?xml version="1.0" encoding="utf-8"?>
<!DOCTYPE svg PUBLIC "-//W3C//DTD SVG 1.1//EN" "http://www.w3.org/Graphics/SVG/1.1/DTD/svg11.dtd">
<svg viewBox="0 0 800 800" preserveAspectRatio="xMinYMin meet" xmlns="http://www.w3.org/2000/svg" version="1.1">
<g fill="none" stroke="black" stroke-linecap="round" stroke-linejoin="round" stroke-width="1.0321">
<g transform="translate(248.8469,87.52) scale(2.9068) translate(-165.5,-108.8333)">
<path id="0" d="M166.5 113.8333 C166.5 113.8333 165.0848 142.3898 165.5 170.8333 C166.0833 210.7862 162.9606 246.1686 168.5 250.8333 C175.7423 256.9321 260.5 250.8333 260.5 250.8333 "/>
<path id="1" d="M180.5 252.8333 L181.5 323.8333 "/>
<path id="2" d="M199.5 255.8333 C199.5 255.8333 199.2504 298.7185 199.5 304.8333 C199.5004 304.8435 201.5 304.8333 201.5 304.8333 "/>
<path id="3" d="M234.5 254.8333 L234.5 295.8333 "/>
<path id="4" d="M252.5 253.8333 L254.5 320.8333 "/>
<path id="5" d="M165.5 108.8333 C165.5 108.8333 195.2314 107.8663 195.5 108.8333 C198.9814 121.3663 189.2053 207.6464 195.5 216.8333 C198.4553 221.1464 261.941 213.2581 269.5 216.8333 C271.191 217.6331 271.3935 247.8236 269.5 251.8333 C269.0116 252.8676 252.5 252.8333 252.5 252.8333 "/>
<path id="6" d="M194.5 216.8333 C194.5 216.8333 186.9342 219.8617 184.5 223.8333 C179.0275 232.7622 180.8943 237.9966 175.5 247.8333 C173.3771 251.7044 167.5 254.8333 167.5 254.8333 "/>
<path id="7" d="M199.5 286.8333 L183.5 303.8333 "/>
<path id="8" d="M234.5 283.8333 C234.5 283.8333 235.2789 290.2706 237.5 292.8333 C240.3083 296.0737 244.1009 295.4343 247.5 298.8333 C250.0493 301.3827 251.5 306.8333 251.5 306.8333 "/>
<path id="9" d="M182.5 283.8333 L252.5 283.8333 "/>
</g>
</g>
</svg>
