<?xml version="1.0" encoding="utf-8"?>
<!DOCTYPE svg PUBLIC "-//W3C//DTD SVG 1.1//EN" "http://www.w3.org/Graphics/SVG/1.1/DTD/svg11.dtd">
<svg viewBox="0 0 800 800" preserveAspectRatio="xMinYMin meet" xmlns="http://www.w3.org/2000/svg" version="1.1">
<g fill="none" stroke="black" stroke-linecap="round" stroke-linejoin="round" stroke-width="1.2577">
<g transform="translate(223.4846,87.52) scale(2.3853) translate(-205,-85.4167)">
<path id="0" d="M271 87.4167 C271 87.4167 277.1766 86.9487 282 88.4167 C287.8994 90.2122 288.3581 93.6644 294 94.4167 C308.5454 96.3561 312.7136 92.7159 327 94.4167 C331.154 94.9112 331.4974 98.0463 336 99.4167 C342.2515 101.3193 349.7564 100.6196 350 101.4167 C351.2836 105.6174 347.3804 118.4873 347 135.4167 C346.3861 162.737 348 190.4167 348 190.4167 "/>
<path id="1" d="M269 85.4167 C269 85.4167 260.0521 107.3061 257 128.4167 C254.2709 147.2928 255.3523 148.9187 257 168.4167 C258.2979 183.7748 263 199.4167 263 199.4167 "/>
<path id="2" d="M268 201.4167 C268 201.4167 273.6031 200.1953 278 201.4167 C299.1782 207.2995 300.7806 210.7329 322 216.4167 C327.3029 217.8371 329.7968 215.576 334 216.4167 C335.261 216.6689 335.5051 218.9446 337 219.4167 C343.418 221.4434 353 222.4167 353 222.4167 "/>
<path id="3" d="M349 191.4167 L350 222.4167 "/>
<path id="4" d="M351 229.4167 C351 229.4167 343.3613 238.7526 335 244.4167 C328.9069 248.5443 324.6285 247.0739 320 250.4167 C318.0715 251.8095 319.2022 255.1097 317 257.4167 C309.8151 264.9437 306.6922 264.4168 299 272.4167 C294.7784 276.8071 296.1334 278.7441 292 283.4167 C284.9907 291.3402 281.1433 292.6305 276 298.4167 C275.472 299.0107 276 301.4167 276 301.4167 "/>
<path id="5" d="M260 200.4167 C260 200.4167 236.2715 225.0861 218 239.4167 C215.5371 241.3483 212.241 239.1702 209 240.4167 C207.0873 241.1523 204.9438 244.3917 205 244.4167 C205.8732 244.8048 221.4119 246.9771 236 252.4167 C250.2607 257.7342 254.0797 258.3732 264 266.4167 C269.5393 270.908 268.5911 276.7481 273 282.4167 C274.1289 283.8681 277.6073 283.5004 278 284.4167 C279.1781 287.1656 279 296.4167 279 296.4167 "/>
<path id="6" d="M276 202.4167 C276 202.4167 262.4146 198.124 253 193.4167 C251.2883 192.5608 250 189.4167 250 189.4167 "/>
<path id="7" d="M228 248.4167 L276 205.4167 "/>
<path id="8" d="M257 258.4167 C257 258.4167 264.6108 250.7699 270 242.4167 C274.3128 235.7319 272.3462 231.7702 277 227.4167 C285.2083 219.7379 301 213.4167 301 213.4167 "/>
<path id="9" d="M273 271.4167 C273 271.4167 282.3846 263.3013 290 254.4167 C294.1006 249.6327 292.7113 246.8753 297 243.4167 C306.5362 235.7262 320.9987 229.4175 321 229.4167 C321.0001 229.4166 317.9986 230.4195 318 230.4167 C318.0042 230.4083 320.5889 226.5295 323 225.4167 C325.7918 224.1282 331 224.4167 331 224.4167 "/>
<path id="10" d="M279 202.4167 C279 202.4167 284.9417 182.8783 288 163.4167 C290.3696 148.3372 286.7781 146.5437 290 132.4167 C292.9201 119.6134 296.7473 119.1749 301 106.4167 C302.4813 101.9728 302 96.4167 302 96.4167 "/>
<path id="11" d="M313 213.4167 C313 213.4167 310.5792 192.2536 314 174.4167 C317.1852 157.808 321.1876 157.5121 327 140.4167 C329.6263 132.6922 330.0727 132.2988 331 124.4167 C332.0134 115.8026 331 106.4167 331 106.4167 "/>
<path id="12" d="M279 295.4167 C279 295.4167 283.5525 306.8467 286 318.4167 C288.9839 332.5224 290 347.4167 290 347.4167 "/>
<path id="13" d="M209 242.4167 C209 242.4167 206.1674 250.1125 207 256.4167 C209.4361 274.8616 216 295.4167 216 295.4167 "/>
<path id="14" d="M353 226.4167 L353 260.4167 "/>
</g>
</g>
</svg>
