<?xml version="1.0" encoding="utf-8"?>
<!DOCTYPE svg PUBLIC "-//W3C//DTD SVG 1.1//EN" "http://www.w3.org/Graphics/SVG/1.1/DTD/svg11.dtd">
<svg viewBox="0 0 800 800" preserveAspectRatio="xMinYMin meet" xmlns="http://www.w3.org/2000/svg" version="1.1">
<g fill="none" stroke="black" stroke-linecap="round" stroke-linejoin="round" stroke-width="1.6033">
<g transform="translate(87.52,91.2623) scale(1.8711) translate(-90,-139.8167)">
<path id="0" d="M161 143.8167 C161 143.8167 165.4015 147.5805 167 151.8167 C174.8311 172.569 177.6133 174.6903 181 196.8167 C184.8185 221.7639 182.3851 223.6319 182 249.8167 C181.8908 257.244 179.8233 257.5713 180 264.8167 C180.3082 277.4517 181.2127 289.2942 183 290.8167 C184.5241 292.1149 195.0476 288.6912 207 287.8167 C215.3896 287.2028 217.2527 286.8528 224 287.8167 C225.7577 288.0678 226.352 290.7774 228 290.8167 C277.382 291.9924 290.0129 292.8162 350 290.8167 C363.8495 290.355 375.4791 283.8491 378 285.8167 C382.3809 289.2359 385.6875 304.3999 391 322.8167 C393.0307 329.8566 391.1501 331.6502 393 337.8167 C393.7352 340.2674 396.377 340.3246 397 342.8167 C401.2313 359.742 404 381.8167 404 381.8167 "/>
<path id="1" d="M411 381.8167 C411 381.8167 405.2922 385.3847 400 385.8167 C382.245 387.2661 380.4022 386.6168 362 385.8167 C358.0838 385.6464 357.8954 383.8761 354 383.8167 C294.3364 382.9058 291.4794 386.128 231 383.8167 C214.1694 383.1735 213.8463 378.6384 197 377.8167 C153.2786 375.6839 124.8461 381.7179 108 377.8167 C105.9 377.3303 103.4313 366.7897 102 355.8167 C99.0228 332.9911 101.8848 331.8947 99 308.8167 C96.9373 292.315 93.1511 292.1881 92 275.8167 C88.73 229.3105 89.6257 227.9787 90 180.8167 C90.1223 165.4125 89.0453 155.2714 93 149.8167 C96.3199 145.2375 106.2482 142.7488 119 140.8167 C137.7111 137.9816 143.1242 139.095 159 139.8167 C160.6436 139.8914 163 142.8167 163 142.8167 "/>
<path id="2" d="M113 377.8167 C113 377.8167 116.4692 392.4275 118 406.8167 C118.933 415.587 118.9956 417.1834 118 424.8167 C117.7018 427.103 115.1489 427.5839 115 429.8167 C113.855 446.9917 113.6285 465.9961 115 469.8167 C115.138 470.2012 128.6333 469.6968 129 468.8167 C130.9008 464.2548 130.3829 451.2384 130 433.8167 C129.3863 405.8915 127 377.8167 127 377.8167 "/>
<path id="3" d="M407 382.8167 C407 382.8167 411.1085 385.6011 413 388.8167 C415.6504 393.3224 416.3789 394.3817 417 399.8167 C420.2234 428.0217 418.0574 430.6517 421 458.8167 C421.4117 462.7574 423.766 464.2424 424 466.8167 C424.0797 467.6936 422.7723 469.6384 422 469.8167 C418.8445 470.5448 413.802 470.2837 411 469.8167 C410.6604 469.7601 410.3071 468.8531 410 467.8167 C406.3792 455.5966 407.2741 454.2143 403 442.8167 C401.6269 439.155 399.2471 439.4748 398 435.8167 C392.2107 418.8347 391.6932 416.9131 388 398.8167 C386.8648 393.2544 388 386.8167 388 386.8167 "/>
<path id="4" d="M171 378.8167 C171 378.8167 172.7932 403.0201 172 426.8167 C171.3032 447.7193 167.474 466.5374 168 468.8167 C168 468.8167 180.8536 466.7081 181 465.8167 C182.8149 454.7621 177.9907 433.1053 179 401.8167 C179.4604 387.5458 184 372.8167 184 372.8167 "/>
<path id="5" d="M342 384.8167 C342 384.8167 340.7355 426.4118 342 461.8167 C342.1167 465.0846 343.737 468.1852 345 468.8167 C347.1373 469.8853 355.943 469.0848 356 468.8167 C357.1403 463.4571 356.5844 444.3945 355 421.8167 C354.6563 416.9191 352.7345 416.7135 352 411.8167 C351.2971 407.1307 351.8472 402.1222 352 401.8167 C352 401.8167 355.9957 403.8623 356 403.8167 C356.0612 403.1738 354 380.8167 354 380.8167 "/>
<path id="6" d="M183 256.8167 C183 256.8167 194.1555 255.7441 204 257.8167 C221.7836 261.5606 221.9753 265.5394 240 268.8167 C265.0966 273.3797 266.3799 273.8167 292 273.8167 C324.5178 273.8167 346.2618 265.8028 358 268.8167 C360.5687 269.4762 366 292.8167 366 292.8167 "/>
</g>
</g>
</svg>
