<?xml version="1.0" encoding="utf-8"?>
<!DOCTYPE svg PUBLIC "-//W3C//DTD SVG 1.1//EN" "http://www.w3.org/Graphics/SVG/1.1/DTD/svg11.dtd">
<svg viewBox="0 0 800 800" preserveAspectRatio="xMinYMin meet" xmlns="http://www.w3.org/2000/svg" version="1.1">
<g fill="none" stroke="black" stroke-linecap="round" stroke-linejoin="round" stroke-width="1.2097">
<g transform="translate(87.52,102.4) scale(2.48) translate(-17,-121.1333)">
<path id="0" d="M223 150.1333 C223 150.1333 213.4381 148.6457 206 150.1333 C199.787 151.3759 196.6801 152.0589 193 156.1333 C185.004 164.986 182.3869 168.6307 178 181.1333 C173.107 195.0783 173.5256 197.2602 173 213.1333 C171.0555 271.8578 173 332.1333 173 332.1333 "/>
<path id="1" d="M211 159.1333 L258 122.1333 "/>
<path id="2" d="M211 160.1333 C211 160.1333 210.352 162.8373 211 164.1333 C212.782 167.6973 216.8641 172.0557 217 172.1333 C217.0165 172.1428 216.9622 169.2749 218 168.1333 C225.4564 159.9312 226.7832 157.5831 237 150.1333 C250.1652 140.5337 254.5214 141.3836 266 133.1333 C268.0364 131.6697 269 127.1333 269 127.1333 "/>
<path id="3" d="M263 121.1333 L266 132.1333 "/>
<path id="4" d="M167 325.1333 C167 325.1333 139.463 323.1597 124 326.1333 C120.1583 326.8721 116.9671 331.1991 115 335.1333 C113.6886 337.7561 115 344.1333 115 344.1333 "/>
<path id="5" d="M177 325.1333 C177 325.1333 225.2135 323.849 228 324.1333 C228.076 324.1411 226.8165 329.1535 226 330.1333 C225.7337 330.4528 223.7597 329.5847 223 330.1333 C216.8242 334.5937 215.4409 339.2928 208 343.1333 C201.9853 346.2377 199.8383 346.0499 192 346.1333 C153.8747 346.5389 114 344.1333 114 344.1333 "/>
<path id="6" d="M162 326.1333 C162 326.1333 108.7914 314.4628 81 318.1333 C71.2989 319.4146 68.9556 331.3 56 340.1333 C48.0794 345.5337 45.8925 343.3451 37 348.1333 C26.6988 353.6801 17 361.1333 17 361.1333 "/>
</g>
</g>
</svg>
