<?xml version="1.0" encoding="utf-8"?>
<!DOCTYPE svg PUBLIC "-//W3C//DTD SVG 1.1//EN" "http://www.w3.org/Graphics/SVG/1.1/DTD/svg11.dtd">
<svg viewBox="0 0 800 800" preserveAspectRatio="xMinYMin meet" xmlns="http://www.w3.org/2000/svg" version="1.1">
<g fill="none" stroke="black" stroke-linecap="round" stroke-linejoin="round" stroke-width="2.2081">
<g transform="translate(87.52,219.305) scale(1.3586) translate(-76,-139)">
<path id="0" d="M150 380 C150 380 119.7689 376.388 99 380 C90.8199 381.4226 88.0436 385.5689 81 392 C77.7849 394.9355 77.7277 396.8536 76 401 C75.5324 402.1223 75.6882 403.5842 76 404 C76.3378 404.4504 77.5731 404.9912 79 405 C154.9445 405.4659 160.5691 406.3445 239 405 C246.3781 404.8735 251.6887 403.2327 254 402 C254.3713 401.802 254.8504 398.3606 254 397 C251.0662 392.3058 249.4012 389.8259 244 386 C238.4597 382.0756 236.7444 380.7007 230 380 C200.8483 376.9713 167 378 167 378 "/>
<path id="1" d="M151 380 C151 380 153.4846 370.9336 154 362 C154.9643 345.2861 150.3851 343.2629 154 328 C163.1855 289.2166 164.9001 285.2311 181 248 C188.039 231.7224 190.111 230.8705 202 217 C219.5736 196.4975 220.7994 195.804 241 178 C249.6608 170.3668 250.6498 170.4103 261 165 C272.2896 159.0986 272.7469 158.3892 285 155 C319.0711 145.5761 320.5936 145.2557 355 139 C363.4943 137.4556 364.9 137.5273 373 139 C380.2409 140.3165 381.0155 141.3784 388 145 C394.2275 148.2291 396.5317 148.8381 400 153 C402.4085 155.8902 403 163 403 163 "/>
<path id="2" d="M168 378 C168 378 165.3764 361.8156 167 347 C169.2594 326.383 169.4624 324.6127 176 305 C181.0848 289.7457 184.1788 290.1926 191 275 C195.1117 265.8422 195.4828 265.5094 198 256 C199.8746 248.9183 197.2198 246.3968 200 241 C204.4619 232.3386 206.4768 230.0191 215 223 C230.9369 209.8755 240.5582 206.8314 251 199 C251.4351 198.6737 250.5078 196.443 251 196 C260.4064 187.5342 265.8573 178.0227 281 172 C304.8845 162.5005 310.2937 164.8045 339 161 C351.07 159.4004 352.0623 159.6434 364 161 C373.3439 162.0618 375.2878 162.6067 383 166 C386.1431 167.3829 389 172 389 172 "/>
<path id="3" d="M388 172 C388 172 371.586 184.3257 357 198 C347.8303 206.5966 347.2033 206.9669 340 217 C333.5603 225.9696 333.069 226.8276 329 237 C325.3313 246.1718 325.5222 246.9972 324 257 C322.0714 269.6737 322 283 322 283 "/>
<path id="4" d="M408 162 C408 162 413.351 157.1184 419 155 C428.4842 151.4434 429.6771 150.6002 440 150 C471.5157 148.1677 473.7399 147.395 505 150 C520.2293 151.2691 536 158 536 158 "/>
<path id="5" d="M324 282 C324 282 327.8319 274.5717 333 270 C340.0428 263.7699 342.1336 265.1563 350 259 C364.9181 247.325 365.7175 244.1572 379 234 C380.5913 232.7831 382.171 234.1812 384 233 C404.2069 219.9497 405.1225 216.8905 427 203 C436.2905 197.1013 437.8107 198.956 447 193 C464.4212 181.7085 463.6549 177.8688 481 168 C491.2694 162.1571 493.176 162.0078 505 160 C518.6011 157.6904 534 159 534 159 "/>
<path id="6" d="M396 228 C396 228 402.5206 234.2975 409 238 C412.1655 239.8089 416.9478 239.9739 417 240 C417.0087 240.0043 414.9983 241 415 241 C415.0165 241 426.9259 242.096 434 240 C437.6932 238.9057 439.2868 236.6998 442 233 C444.1509 230.067 444.2731 228.8767 445 225 C445.6791 221.378 446.0672 219.6681 445 217 C443.746 213.865 440.8387 213.4148 439 210 C437.8249 207.8176 438 204 438 204 "/>
<path id="7" d="M330 283 C330 283 357.05 287.4752 379 283 C405.1078 277.6771 406.6328 273.5542 433 262 C450.8922 254.1596 451.3011 253.741 468 244 C474.912 239.968 475.8694 239.8465 481 234 C496.656 216.1594 497.3484 214.978 511 195 C517.5428 185.4251 517.9012 184.5398 522 174 C524.6214 167.2592 525 159 525 159 "/>
</g>
</g>
</svg>
