<?xml version="1.0" encoding="utf-8"?>
<!DOCTYPE svg PUBLIC "-//W3C//DTD SVG 1.1//EN" "http://www.w3.org/Graphics/SVG/1.1/DTD/svg11.dtd">
<svg viewBox="0 0 800 800" preserveAspectRatio="xMinYMin meet" xmlns="http://www.w3.org/2000/svg" version="1.1">
<g fill="none" stroke="black" stroke-linecap="round" stroke-linejoin="round" stroke-width="0.80165">
<g transform="translate(166.1078,87.52) scale(3.7423) translate(-199,-224.1333)">
<path id="0" d="M286 362.1333 C286 362.1333 276.2982 360.5186 268 361.1333 C263.7309 361.4496 259.9355 362.782 259 364.1333 C257.9865 365.5973 257.4642 371.8809 259 374.1333 C262.4136 379.1399 267.2908 384.4903 274 386.1333 C286.7162 389.2475 293.3322 388.5281 308 386.1333 C315.0346 384.9848 320.5884 380.8894 323 378.1333 C323.8134 377.2038 323.4303 371.5636 322 370.1333 C318.027 366.1604 313.5088 362.7816 306 361.1333 C295.557 358.841 281 361.1333 281 361.1333 "/>
<path id="1" d="M302 378.1333 C302 378.1333 304.0215 360.616 302 344.1333 C297.6245 308.456 296.298 306.9061 289 272.1333 C288.0391 267.5548 287.6778 266.9588 285 263.1333 C277.5339 252.4674 276.2347 248.7211 268 242.1333 C264.2481 239.1318 255 239.1333 255 239.1333 "/>
<path id="2" d="M257 239.1333 C257 239.1333 258.5717 247.7014 258 255.1333 C257.6327 259.9084 257.0911 260.5031 255 265.1333 C250.2179 275.7223 250.391 277.1279 244 286.1333 C240.0495 291.7 233 296.1333 233 296.1333 "/>
<path id="3" d="M256 236.1333 C256 236.1333 242.5911 233.9282 235 237.1333 C223.8023 241.8613 221.9079 245.4374 211 255.1333 C204.334 261.0586 198.9286 268.9049 199 269.1333 C199.0509 269.2963 208.4831 268.8783 216 271.1333 C222.4491 273.0681 224.9682 274.1016 229 278.1333 C232.2254 281.3588 232.9114 284.2348 234 289.1333 C234.6092 291.8747 233 296.1333 233 296.1333 "/>
<path id="4" d="M199 266.1333 C199 266.1333 198.9334 273.541 201 278.1333 C202.7862 282.1027 204.0871 282.9658 208 286.1333 C214.1804 291.1365 215.5167 292.9722 222 295.1333 C226.9578 296.7859 233.4572 295.4894 235 295.1333 C235.0822 295.1144 235 292.1333 235 292.1333 "/>
<path id="5" d="M257 236.1333 C257 236.1333 255.4198 226.2936 256 225.1333 C256.2486 224.6361 260.9963 223.5869 263 224.1333 C264.5163 224.5469 266.2966 226.3748 267 228.1333 C267.7537 230.0175 267.8743 232.3848 267 234.1333 C265.6886 236.7561 263.5714 238.5905 261 240.1333 C259.9286 240.7762 257 240.1333 257 240.1333 "/>
<path id="6" d="M303 378.1333 L304 378.1333 "/>
<path id="7" d="M303 378.1333 L293 378.1333 "/>
<path id="8" d="M258 373.1333 C258 373.1333 258.3403 378.984 260 383.1333 C261.0143 385.669 261.8533 386.9066 264 388.1333 C267.6674 390.229 269.1344 390.809 274 391.1333 C290.6955 392.2464 296.0687 393.4845 309 391.1333 C312.8626 390.431 314.9125 387.4083 318 383.1333 C320.7444 379.3334 322 373.1333 322 373.1333 "/>
<path id="9" d="M324 377.1333 C324 377.1333 320.0318 382.6135 316 385.1333 C313.1312 386.9263 308 387.1333 308 387.1333 "/>
</g>
</g>
</svg>
