<?xml version="1.0" encoding="utf-8"?>
<!DOCTYPE svg PUBLIC "-//W3C//DTD SVG 1.1//EN" "http://www.w3.org/Graphics/SVG/1.1/DTD/svg11.dtd">
<svg viewBox="0 0 800 800" preserveAspectRatio="xMinYMin meet" xmlns="http://www.w3.org/2000/svg" version="1.1">
<g fill="none" stroke="black" stroke-linecap="round" stroke-linejoin="round" stroke-width="1.0177">
<g transform="translate(177.4317,87.52) scale(2.9479) translate(-205,-115)">
<path id="0" d="M312 116 C312 116 311.4979 121.4464 313 124 C315.5001 128.2502 318.8302 128.0693 322 133 C327.3136 141.2655 325.6801 144.7201 331 152 C333.976 156.0724 336.7858 155.0199 341 159 C345.4256 163.1797 349 169 349 169 "/>
<path id="1" d="M311 115 L244 115 "/>
<path id="2" d="M245 117 C245 117 241.1513 129.2856 235 138 C229.9835 145.1067 225.8211 144.3041 221 151 C217.8918 155.3169 219.9379 158.1735 217 163 C213.5223 168.7133 207 174 207 174 "/>
<path id="3" d="M351 170 L354 172 "/>
<path id="4" d="M356 174 C356 174 346.2901 180.0968 337 183 C331.3301 184.7718 330.4759 184 324 184 C270.6981 184 266.5442 185.498 217 183 C211.3296 182.7141 207.5439 179.6959 205 178 C204.6682 177.7788 205 175 205 175 "/>
<path id="5" d="M206 175 C206 175 218.8166 168.6317 231 168 C283.8398 165.2602 287.6622 166.6884 341 168 C346.8544 168.144 353 171 353 171 "/>
<path id="6" d="M274 168 L274 218 "/>
<path id="7" d="M283 169 C283 169 283.8588 213.7429 283 220 C282.9838 220.1179 276 220 276 220 "/>
<path id="8" d="M278 219 C278 219 270.1091 217.4727 268 218 C267.351 218.1622 265.8771 220.4633 266 222 C266.6825 230.5316 269.7428 232.714 270 243 C270.7184 271.7374 272.0705 279.7685 268 302 C267.0391 307.248 261.4929 310.6303 257 314 C255.8768 314.8424 252 314 252 314 "/>
<path id="9" d="M284 219 C284 219 291.6098 218.5122 292 219 C292.6098 219.7622 292.8294 224.853 292 229 C291.5355 231.3223 289.2344 231.734 289 234 C287.9406 244.2412 289 258 289 258 "/>
<path id="10" d="M290 254 C290 254 287.5531 262.0722 287 270 C286.0787 283.2055 285.3925 285.1048 287 297 C287.6356 301.7033 289.3998 304.7713 292 307 C294.0528 308.7595 300.5515 308.0531 301 309 C302.2175 311.5703 301.7528 325.7054 301 326 C295.7501 328.0543 275.3729 327.7836 255 327 C252.2893 326.8957 249.6283 325.2567 249 324 C248.0575 322.115 248.1807 316.5021 249 315 C249.48 314.12 255 313 255 313 "/>
<path id="11" d="M260 312 C260 312 278.528 312.9817 289 312 C290.1849 311.8889 292 309 292 309 "/>
<path id="12" d="M267 228 C267 228 272.4403 232.2401 277 233 C282.8224 233.9704 291 232 291 232 "/>
</g>
</g>
</svg>
