<?xml version="1.0" encoding="utf-8"?>
<!DOCTYPE svg PUBLIC "-//W3C//DTD SVG 1.1//EN" "http://www.w3.org/Graphics/SVG/1.1/DTD/svg11.dtd">
<svg viewBox="0 0 800 800" preserveAspectRatio="xMinYMin meet" xmlns="http://www.w3.org/2000/svg" version="1.1">
<g fill="none" stroke="black" stroke-linecap="round" stroke-linejoin="round" stroke-width="2.8322">
<g transform="translate(87.52,224.6934) scale(1.0593) translate(-3,-117.4167)">
<path id="0" d="M95 366.4167 C95 366.4167 101.5507 368.2851 108 368.4167 C174.2794 369.7693 175.5441 367.1118 242 369.4167 C261.4226 370.0903 281 374.4167 281 374.4167 "/>
<path id="1" d="M97 367.4167 C97 367.4167 96.4647 362.7787 98 360.4167 C107.8841 345.2103 113.8158 344.848 123 327.4167 C137.4501 299.991 147 267.4167 147 267.4167 "/>
<path id="2" d="M147 267.4167 C147 267.4167 156.1436 273.5716 165 275.4167 C178.6974 278.2703 180.2408 275.5382 195 277.4167 C207.5063 279.0084 207.6248 281.7979 220 282.4167 C266.5848 284.7459 315 283.4167 315 283.4167 "/>
<path id="3" d="M315 283.4167 C315 283.4167 317.5503 301.3346 313 314.4167 C302.7447 343.9007 283 375.4167 283 375.4167 "/>
<path id="4" d="M279 318.4167 C279 318.4167 284.9268 318.2118 285 318.4167 C285.4659 319.7213 284 332.4167 284 332.4167 "/>
<path id="5" d="M279 316.4167 L278 335.4167 "/>
<path id="6" d="M278 335.4167 L284 336.4167 "/>
<path id="7" d="M284 336.4167 L286 332.4167 "/>
<path id="8" d="M184 318.4167 C184 318.4167 183.3884 310.9585 186 306.4167 C204.5291 274.1921 206.1694 270.4744 230 238.4167 C247.6845 214.6269 248.8866 213.9091 270 193.4167 C282.2079 181.5678 285.1763 183.5075 298 172.4167 C303.143 167.9687 301.7472 165.1374 307 161.4167 C324.2964 149.165 325.951 146.8818 346 138.4167 C369.5978 128.4531 372.0127 126.6478 397 123.4167 C427.6798 119.4495 431.952 121.1631 462 123.4167 C469.1422 123.9523 477 129.4167 477 129.4167 "/>
<path id="9" d="M484 117.4167 L475 137.4167 "/>
<path id="10" d="M477 134.4167 L472 140.4167 "/>
<path id="11" d="M485 118.4167 C485 118.4167 498.9858 132.1631 512 135.4167 C536.1544 141.4553 541.4034 135.8327 569 139.4167 C578.9694 140.7114 589 145.4167 589 145.4167 "/>
<path id="12" d="M472 143.4167 C472 143.4167 483.5572 145.1923 493 149.4167 C501.7398 153.3266 501.5763 158.1436 510 160.4167 C530.0883 165.8373 533.0974 164.7611 556 166.4167 C574.2496 167.7359 593 166.4167 593 166.4167 "/>
<path id="13" d="M593 166.4167 L593 143.4167 "/>
<path id="14" d="M127 314.4167 C127 314.4167 119.2937 303.5491 110 296.4167 C98.6862 287.734 96.9851 287.4098 84 281.4167 C78.3266 278.7982 77.411 278.9365 71 278.4167 C59.3817 277.4746 56.5251 276.4556 47 278.4167 C42.4592 279.3515 41.6257 281.6073 37 285.4167 C33.2546 288.5012 31.7572 289.4043 30 292.4167 C29.2073 293.7756 30.7447 295.4308 30 297.4167 C26.6675 306.3035 21.8096 307.4376 21 316.4167 C16.7836 363.1806 19 419.4167 19 419.4167 "/>
<path id="15" d="M16 419.4167 L22 419.4167 "/>
<path id="16" d="M22 419.4167 L21 431.4167 "/>
<path id="17" d="M19 419.4167 C19 419.4167 6.3555 419.0612 5 420.4167 C3.4637 421.9529 3 435.4167 3 435.4167 "/>
<path id="18" d="M3 435.4167 C3 435.4167 15.8816 436.4561 19 435.4167 C19.7796 435.1568 21 429.4167 21 429.4167 "/>
<path id="19" d="M8 435.4167 L7 446.4167 "/>
<path id="20" d="M15 435.4167 L15 443.4167 "/>
<path id="21" d="M15 443.4167 L15 448.4167 "/>
</g>
</g>
</svg>
