<?xml version="1.0" encoding="utf-8"?>
<!DOCTYPE svg PUBLIC "-//W3C//DTD SVG 1.1//EN" "http://www.w3.org/Graphics/SVG/1.1/DTD/svg11.dtd">
<svg viewBox="0 0 800 800" preserveAspectRatio="xMinYMin meet" xmlns="http://www.w3.org/2000/svg" version="1.1">
<g fill="none" stroke="black" stroke-linecap="round" stroke-linejoin="round" stroke-width="1.0993">
<g transform="translate(129.8208,87.52) scale(2.7291) translate(-293,-100)">
<path id="0" d="M335 307 C335 307 336.6611 299.5268 340 297 C352.1207 287.8276 355.9377 285.4813 372 279 C383.0527 274.5401 384.6249 274.9821 397 274 C415.5162 272.5305 416.8315 272.6024 435 274 C441.8408 274.5262 442.7818 274.9749 449 278 C460.6249 283.6554 461.7006 284.3585 472 292 C476.5278 295.3593 477.1549 296.3444 480 301 C482.2192 304.6314 481.8106 308.4708 483 310 C483.3265 310.4198 487 310 487 310 "/>
<path id="1" d="M336 308 C336 308 338.6773 312.9329 342 316 C344.6543 318.4502 345.4959 318.9988 349 320 C355.2705 321.7916 356.5737 320.2474 363 322 C367.0164 323.0954 366.945 324.8646 371 326 C378.9321 328.221 379.5861 328.6922 388 329 C419.9646 330.1694 422.1596 331.7112 453 329 C465.6698 327.8862 468.5061 326.5231 479 321 C485.3622 317.6515 489.8495 311.5885 491 309 C491.2802 308.3695 487 303 487 303 "/>
<path id="2" d="M408 295 C408 295 406.5069 272.41 408 253 C408.3664 248.2364 409.224 247.3183 412 243 C422.3312 226.9292 425.2097 226.8151 435 211 C437.5106 206.9444 437.6604 205.8679 438 201 C439.0978 185.2651 439.8422 183.3517 438 168 C437.0108 159.7566 436.5293 157.0971 432 151 C425.0643 141.6635 421.1181 136.3316 412 133 C400.896 128.9428 393.318 130.4145 380 132 C375.5242 132.5328 370 138 370 138 "/>
<path id="3" d="M294 172 C294 172 291.3803 159.8768 294 153 C298.0117 142.4694 306.3265 140.5614 310 130 C312.9578 121.4962 308.7684 109.1789 310 107 C310.3934 106.3039 321.7403 107.6783 323 107 C323.3653 106.8033 322.6037 100.2522 323 100 C323.9787 99.3772 332.8604 99.482 334 100 C334.2354 100.107 333.8252 104.9301 334 105 C334.8389 105.3355 343.9033 103.7487 344 104 C344.917 106.3841 343.5107 127.6975 344 131 C344.0107 131.0725 346.7494 130.3747 348 131 C350.6576 132.3288 352.9645 133.4112 354 136 C357.8342 145.5854 358.0199 148.5534 360 161 C361.4617 170.1878 361 180 361 180 "/>
<path id="4" d="M293 162 C293 162 292.8887 180.7402 293 181 C293.0142 181.0332 296.5264 176.1792 299 176 C323.4934 174.2251 347.2765 174.8674 362 176 C362.5573 176.0429 364 181 364 181 "/>
<path id="5" d="M293 180 C293 180 294.9095 187.7035 298 191 C300.8319 194.0207 303.14 195.19 308 196 C322.5053 198.4176 329.0095 200.8575 340 198 C347.6458 196.0121 353.2527 189.066 358 183 C359.3057 181.3316 358.48 175.64 358 175 C357.73 174.64 352 175 352 175 "/>
<path id="6" d="M317 177 C317 177 316.7146 182.8683 317 183 C318.3396 183.6183 328.3063 183.8468 330 183 C330.5863 182.7069 331 176 331 176 "/>
<path id="7" d="M358 148 C358 148 360.7199 142.3153 364 140 C367.893 137.252 374.9983 136.0034 375 136 C375.0008 135.9984 366 136 366 136 "/>
</g>
</g>
</svg>
