<?xml version="1.0" encoding="utf-8"?>
<!DOCTYPE svg PUBLIC "-//W3C//DTD SVG 1.1//EN" "http://www.w3.org/Graphics/SVG/1.1/DTD/svg11.dtd">
<svg viewBox="0 0 800 800" preserveAspectRatio="xMinYMin meet" xmlns="http://www.w3.org/2000/svg" version="1.1">
<g fill="none" stroke="black" stroke-linecap="round" stroke-linejoin="round" stroke-width="0.97446">
<g transform="translate(132.16,87.52) scale(3.0786) translate(-141,-181.1333)">
<path id="0" d="M207 258.1333 C207 258.1333 195.4352 253.9866 190 248.1333 C184.4444 242.1504 182.7082 238.6741 181 230.1333 C178.6707 218.4868 178.2044 212.4519 181 203.1333 C182.7188 197.4042 186.5361 194.1257 193 190.1333 C201.6944 184.7633 204.1725 184.2988 215 182.1333 C225.644 180.0045 226.5055 181.3502 238 181.1333 C252.9805 180.8507 254.0232 179.2149 268 181.1333 C278.2314 182.5376 278.5387 185.1444 289 188.1333 C292.3138 189.0801 295.8458 189.159 296 189.1333 C296.015 189.1308 295.0034 187.1282 295 187.1333 C294.9855 187.1551 293.3848 191.1267 294 192.1333 C296.8501 196.7971 301.5644 198.1631 306 205.1333 C311.5298 213.8231 313.4743 215.9794 315 225.1333 C316.5375 234.3582 315.6198 237.4402 313 247.1333 C311.0053 254.5136 309.8249 255.8609 305 262.1333 C300.3856 268.132 298.4641 271.4078 293 273.1333 C283.7073 276.0679 267 274.1333 267 274.1333 "/>
<path id="1" d="M206 259.1333 C206 259.1333 202.2407 272.6038 197 284.1333 C195.0675 288.3848 191.1747 292.0897 191 292.1333 C190.9891 292.1361 189.0284 286.0946 189 286.1333 C188.6824 286.5664 180.0235 305.7651 169 322.1333 C164.1522 329.3316 161.6554 328.2873 156 335.1333 C152.4369 339.4466 150 345.1333 150 345.1333 "/>
<path id="2" d="M267 273.1333 C267 273.1333 258.5581 284.0235 249 292.1333 C242.6591 297.5135 240.254 296.0164 234 301.1333 C229.9832 304.4198 229.9735 305.3758 227 310.1333 C220.0804 321.2046 217.7567 323.1156 214 333.1333 C212.8376 336.233 213.5707 338.3814 215 342.1333 C217.2346 347.9992 222.0485 354.0121 222 354.1333 C221.9873 354.165 211.1967 351.8293 211 352.1333 C210.2697 353.262 211.4645 370.7308 211 371.1333 C210.7236 371.3729 202.0206 368.4781 196 365.1333 C194.285 364.1806 193.0089 361.1053 193 361.1333 C192.9305 361.3534 191.3078 380.7911 190 384.1333 C189.873 384.4579 185.3727 385.1448 184 384.1333 C178.6659 380.2029 176.0682 372.1606 171 370.1333 C166.5858 368.3676 159.7076 373.0846 154 372.1333 C151.2604 371.6767 148.0414 368.8669 147 366.1333 C145.1519 361.282 147.5429 356.019 146 351.1333 C145.438 349.3537 141 347.6135 141 347.1333 C141 346.413 143.3665 342.6147 146 341.1333 C149.9896 338.8892 156.9804 338.1445 157 338.1333 C157.0053 338.1303 153 337.1333 153 337.1333 "/>
<path id="3" d="M230 251.1333 C230 251.1333 226.7225 246.9264 226 243.1333 C224.9281 237.5056 225.6995 230.2258 226 230.1333 C227.8379 229.5678 244.442 230.8145 252 235.1333 C256.6022 237.7631 258.6695 242.9087 261 250.1333 C263.1248 256.7201 262.8217 264.3871 262 266.1333 C261.723 266.722 255.3876 268.2703 253 267.1333 C248.1714 264.834 247.1538 260.6677 241 256.1333 C238.1808 254.0561 234 253.1333 234 253.1333 "/>
</g>
</g>
</svg>
