<?xml version="1.0" encoding="utf-8"?>
<!DOCTYPE svg PUBLIC "-//W3C//DTD SVG 1.1//EN" "http://www.w3.org/Graphics/SVG/1.1/DTD/svg11.dtd">
<svg viewBox="0 0 800 800" preserveAspectRatio="xMinYMin meet" xmlns="http://www.w3.org/2000/svg" version="1.1">
<g fill="none" stroke="black" stroke-linecap="round" stroke-linejoin="round" stroke-width="0.99366">
<g transform="translate(87.52,264.1391) scale(3.0191) translate(-162,-166.1333)">
<path id="0" d="M201 172.1333 C201 172.1333 196.1559 167.3207 192 166.1333 C187.3454 164.8034 185.2272 164.997 180 166.1333 C174.7349 167.2779 173.4306 168.2851 169 171.1333 C167.2634 172.2497 166.5188 173.1323 166 175.1333 C163.39 185.2006 162.8455 186.7194 162 198.1333 C160.8749 213.3216 160.6238 214.6836 162 229.1333 C162.5052 234.4382 163.1351 235.836 166 240.1333 C169.4938 245.374 170.6837 246.1461 176 250.1333 C180.1771 253.2662 181.2524 253.884 186 255.1333 C189.776 256.127 192.2631 256.5613 195 255.1333 C201.1612 251.9188 206.0003 248.9563 209 243.1333 C212.5202 236.3 212 222.1333 212 222.1333 "/>
<path id="1" d="M202 170.1333 C202 170.1333 206.2465 174.0418 208 178.1333 C210.3696 183.6625 211 191.1333 211 191.1333 "/>
<path id="2" d="M210 190.1333 L354 195.1333 "/>
<path id="3" d="M212 224.1333 C212 224.1333 229.8454 223.4564 240 224.1333 C240.7737 224.1849 241.1529 226.0306 242 226.1333 C253.8025 227.5639 257.5172 227.769 273 228.1333 C299.9291 228.767 327 228.1333 327 228.1333 "/>
<path id="4" d="M327 230.1333 C327 230.1333 325.0285 245.3577 326 248.1333 C326.2642 248.8882 333.9051 250.3041 334 250.1333 C334.8193 248.6585 334.8181 232.7598 336 230.1333 C336.1781 229.7375 342.9219 229.8991 343 230.1333 C343.591 231.9065 341.3366 246.4274 342 248.1333 C342.1172 248.4347 349.6793 248.6784 350 248.1333 C351.2385 246.0279 350.8357 233.3326 352 231.1333 C352.2389 230.682 358.9258 230.8896 359 231.1333 C359.8008 233.7646 357.7116 250.1069 359 254.1333 C359.2554 254.9316 366.9919 256.1803 367 256.1333 C367.7881 251.5625 371.8415 202.9093 369 196.1333 C368.34 194.5594 341 194.1333 341 194.1333 "/>
<path id="5" d="M182 188.1333 C182 188.1333 176.7461 189.0675 176 190.1333 C174.9531 191.6289 175.9901 195.6582 175 198.1333 C174.6228 199.0762 172.0743 199.4399 172 200.1333 C171.1679 207.8997 169.801 215.688 172 226.1333 C173.1574 231.6309 176.3431 235.6312 180 238.1333 C182.6358 239.9368 189.5723 240.2437 191 239.1333 C193.607 237.1056 196.6148 231.4054 198 224.1333 C200.3059 212.0273 200.6965 207.3125 199 197.1333 C198.3572 193.2766 194.7229 189.3435 192 188.1333 C189.3871 186.972 181 189.1333 181 189.1333 "/>
</g>
</g>
</svg>
