<?xml version="1.0" encoding="utf-8"?>
<!DOCTYPE svg PUBLIC "-//W3C//DTD SVG 1.1//EN" "http://www.w3.org/Graphics/SVG/1.1/DTD/svg11.dtd">
<svg viewBox="0 0 800 800" preserveAspectRatio="xMinYMin meet" xmlns="http://www.w3.org/2000/svg" version="1.1">
<g fill="none" stroke="black" stroke-linecap="round" stroke-linejoin="round" stroke-width="1.4209">
<g transform="translate(271.2076,87.52) scale(2.1114) translate(-296,-62.1333)">
<path id="0" d="M305 113.1333 C305 113.1333 298.9117 125.8132 297 138.1333 C294.5846 153.6994 292.9667 157.8334 296 171.1333 C298.5169 182.1692 302.4472 186.07 310 195.1333 C313.2117 198.9874 315.8154 199.7193 321 201.1333 C325.5132 202.3642 331.934 200.8395 332 201.1333 C333.309 206.9645 330.4627 227.4585 332 250.1333 C332.3222 254.8863 335.753 255.4395 336 260.1333 C337.1359 281.7152 333.5667 285.2749 335 307.1333 C335.4376 313.8061 339.1247 314.2766 340 321.1333 C341.9809 336.6506 338.2475 349.7054 341 354.1333 C342.4471 356.4612 352.0957 357.441 363 358.1333 C383.0897 359.4089 398.9501 358.7492 404 358.1333 C404.0751 358.1242 404.5845 353.6594 404 353.1333 C402.2336 351.5436 397.8253 351.8336 394 349.1333 C390.2273 346.4703 386.8604 341.552 387 341.1333 C387.2709 340.3206 394.0843 335.8683 399 334.1333 C400.5786 333.5762 403.8909 334.8787 404 335.1333 C404.1786 335.5501 402 339.1797 402 341.1333 C402 342.1101 403.9734 344.1466 404 344.1333 C404.5052 343.8807 409.3076 339.5568 410 337.1333 C410.5108 335.3456 409.2704 330.9802 408 330.1333 C405.1417 328.2278 395.0227 327.173 395 327.1333 C394.9975 327.129 401.8506 325.4618 404 323.1333 C406.0554 320.9067 407.1513 314.2312 407 314.1333 C405.8593 313.3952 394.6756 313.8019 387 312.1333 C385.6282 311.8351 385.1077 309.3549 384 309.1333 C381.9077 308.7149 376.9999 310.1333 377 310.1333 C377.0001 310.1334 382.4612 309.2688 387 310.1333 C392.3385 311.1502 392.8768 313.4014 398 314.1333 C402.3642 314.7568 407.3064 313.9657 408 313.1333 C408.8175 312.1523 408.9656 302.7541 408 302.1333 C403.562 299.2803 380.6357 297.6762 380 295.1333 C375.2321 276.0617 377.4747 204.2216 380 190.1333 C380.106 189.5422 391.766 191.3784 399 189.1333 C403.6763 187.6821 405.1327 185.5162 409 181.1333 C412.083 177.6393 412.7182 176.6909 414 172.1333 C416.9716 161.5675 417.1545 160.5472 418 149.1333 C419.1251 133.945 419.5726 133.0734 418 118.1333 C416.649 105.2986 415.9648 102.7061 412 92.1333 C410.8421 89.0457 409.0433 87.7564 406 86.1333 C402.67 84.3573 399.5439 86.1417 397 84.1333 C392.1273 80.2865 392.5463 75.0158 387 71.1333 C379.5662 65.9297 376.8766 66.0963 367 63.1333 C362.4585 61.7709 359.69 60.7042 357 62.1333 C348.0332 66.8969 336.2272 79.333 335 80.1333 C334.9652 80.156 334.0147 77.1273 334 77.1333 C332.7405 77.652 324.7768 81.5351 318 87.1333 C313.9679 90.4642 313.0226 91.6387 311 96.1333 C309.0191 100.5354 309 107.1333 309 107.1333 "/>
<path id="1" d="M341 95.1333 C341 95.1333 337.9106 97.0519 337 99.1333 C334.8917 103.9524 334.1089 105.3625 334 111.1333 C333.6301 130.7397 333.6464 140.3652 336 152.1333 C336.307 153.6683 339.5051 155.2897 343 156.1333 C352.9703 158.54 357.6617 160.4676 365 159.1333 C369.3221 158.3475 372.3276 155.1587 376 150.1333 C380.9241 143.3951 382.3759 141.0219 384 133.1333 C385.4627 126.0286 385.2916 123.0082 383 116.1333 C380.4439 108.4652 378.288 105.1695 373 100.1333 C369.8971 97.1781 367.4582 97.225 362 96.1333 C355.4317 94.8197 352.3407 93.8931 348 95.1333 C345.1514 95.9472 341 102.1333 341 102.1333 "/>
</g>
</g>
</svg>
