<?xml version="1.0" encoding="utf-8"?>
<!DOCTYPE svg PUBLIC "-//W3C//DTD SVG 1.1//EN" "http://www.w3.org/Graphics/SVG/1.1/DTD/svg11.dtd">
<svg viewBox="0 0 800 800" preserveAspectRatio="xMinYMin meet" xmlns="http://www.w3.org/2000/svg" version="1.1">
<g fill="none" stroke="black" stroke-linecap="round" stroke-linejoin="round" stroke-width="1.9777">
<g transform="translate(87.52,280.9239) scale(1.5169) translate(-132,-158.4167)">
<path id="0" d="M423 204.4167 C423 204.4167 424.7945 194.4996 429 187.4167 C433.6465 179.591 434.7927 176.7711 442 172.4167 C456.1968 163.8394 460.1835 162.8588 477 158.4167 C484.822 156.3505 486.6868 157.0311 495 158.4167 C503.775 159.8792 505.5421 160.5385 513 164.4167 C516.7572 166.3704 517.8133 167.4989 520 171.4167 C529.1197 187.7562 530.469 190.0006 537 207.4167 C538.9073 212.5028 536.5006 214.0616 538 219.4167 C539.7925 225.8183 544.8115 228.2913 544 232.4167 C540.4612 250.4056 537.2045 262.4894 526 280.4167 C520.3741 289.4181 515.129 289.8702 504 296.4167 C498.9148 299.408 497.9564 299.353 492 300.4167 C484.4206 301.7701 483.7185 302.0599 476 301.4167 C460.2802 300.1067 458.6638 299.5872 444 296.4167 C441.4961 295.8753 440.7069 295.3369 439 293.4167 C433.3189 287.0254 431.9057 286.228 428 278.4167 C423.3322 269.0812 421 257.4167 421 257.4167 "/>
<path id="1" d="M453 201.4167 C453 201.4167 445.2342 209.4907 443 216.4167 C441.0387 222.4968 442.1016 224.9298 443 232.4167 C443.5256 236.7965 443.8004 237.4573 446 241.4167 C453.5154 254.9444 454.984 261.5458 463 268.4167 C467.1079 271.9377 473.214 271.9033 481 271.4167 C487.2561 271.0257 488.8411 269.8147 495 266.4167 C502.743 262.1447 504.7614 261.5664 510 255.4167 C515.0265 249.516 516.8149 246.9714 518 239.4167 C520.4038 224.0925 520.8197 218.2333 518 204.4167 C516.7077 198.0844 513.3928 194.8716 508 190.4167 C503.7162 186.8779 501.1121 186.2898 495 185.4167 C488.3785 184.4707 486.1401 184.2496 480 186.4167 C470.8486 189.6466 469.3839 191.4781 461 197.4167 C458.1054 199.467 456 203.4167 456 203.4167 "/>
<path id="2" d="M420 200.4167 L416 214.4167 "/>
<path id="3" d="M411 211.4167 C411 211.4167 389.29 216.7461 368 217.4167 C326.6232 218.7199 325.654 214.7448 284 215.4167 C264.1251 215.7372 263.6557 216.3927 244 219.4167 C231.4546 221.3467 219 225.4167 219 225.4167 "/>
<path id="4" d="M417 254.4167 C417 254.4167 379.177 251.8783 342 253.4167 C307.1387 254.8592 306.4947 259.5471 272 260.4167 C247.964 261.0226 247.3294 257.4745 223 256.4167 C213.1263 255.9874 210.9636 255.824 203 257.4167 C200.7134 257.874 198 261.4167 198 261.4167 "/>
<path id="5" d="M238 217.4167 C238 217.4167 217.8195 221.8942 198 224.4167 C190.7296 225.342 189.9809 225.5426 183 224.4167 C175.1784 223.1551 174.8171 220.8126 167 219.4167 C161.4471 218.4251 155 219.4167 155 219.4167 "/>
<path id="6" d="M137 218.4167 C137 218.4167 131.6981 227.2283 132 233.4167 C132.5389 244.4637 139 259.4167 139 259.4167 C139 259.4167 135.7944 252.7722 135 246.4167 C133.8819 237.4719 135 227.4167 135 227.4167 "/>
<path id="7" d="M143 259.4167 C143 259.4167 147.7774 281.6644 151 303.4167 C151.7132 308.2307 151.4608 310.8824 151 313.4167 C150.9372 313.7623 148.9997 314.4167 149 314.4167 C149.0025 314.4162 166.994 312.0514 168 310.4167 C169.292 308.3172 163.6332 291.2554 165 288.4167 C165.8447 286.6623 180.3834 283.0698 181 283.4167 C181.3682 283.6238 180.1589 290.6875 181 297.4167 C182.1115 306.3088 184.9198 315.2162 185 315.4167 C185.009 315.4392 185.9815 312.7709 187 312.4167 C194.6094 309.7699 207.0426 308.2544 208 307.4167 C208.1085 307.3218 204.1993 302.974 203 298.4167 C199.4756 285.0238 198.2963 282.7523 198 269.4167 C197.838 262.1279 201.9977 253.4143 202 253.4167 C202.0047 253.4213 204 275.4167 204 275.4167 "/>
<path id="8" d="M141 258.4167 L185 253.4167 "/>
<path id="9" d="M374 256.4167 L424 254.4167 "/>
<path id="10" d="M413 249.4167 C413 249.4167 411.9598 253.6429 413 256.4167 C417.3835 268.1061 418.2634 269.9644 425 281.4167 C427.8801 286.3128 428.6552 287.0374 433 290.4167 C437.023 293.5457 443 295.4167 443 295.4167 "/>
<path id="11" d="M490 189.4167 C490 189.4167 503.8653 188.7104 511 191.4167 C514.7426 192.8363 516.1031 195.5885 519 200.4167 C523.2404 207.4839 524.6228 208.7439 526 216.4167 C527.8355 226.6432 526 239.4167 526 239.4167 "/>
<path id="12" d="M145 224.4167 C145 224.4167 160.0377 218.8646 175 217.4167 C221.0826 212.9571 269 212.4167 269 212.4167 "/>
</g>
</g>
</svg>
