<?xml version="1.0" encoding="utf-8"?>
<!DOCTYPE svg PUBLIC "-//W3C//DTD SVG 1.1//EN" "http://www.w3.org/Graphics/SVG/1.1/DTD/svg11.dtd">
<svg viewBox="0 0 800 800" preserveAspectRatio="xMinYMin meet" xmlns="http://www.w3.org/2000/svg" version="1.1">
<g fill="none" stroke="black" stroke-linecap="round" stroke-linejoin="round" stroke-width="0.83045">
<g transform="translate(266.338,87.52) scale(3.6125) translate(-210,-158)">
<path id="0" d="M223 183 C223 183 222.3011 174.8539 224 170 C225.158 166.6914 226.8412 164.5162 230 163 C237.222 159.5335 239.6604 159.4593 249 158 C255.1379 157.041 258.7815 156.3907 262 158 C264.9709 159.4855 267.5385 163.4066 269 168 C270.4344 172.508 268.2623 179.1148 269 180 C269.5123 180.6148 276.1011 178.8404 279 180 C281.1452 180.8581 283.2096 183.3128 284 186 C285.1638 189.9568 284.9507 195.7641 284 197 C283.1623 198.089 274 199 274 199 "/>
<path id="1" d="M221 183 C221 183 216.8114 182.1766 215 183 C212.8044 183.998 210.6002 185.8394 210 188 C208.7788 192.3964 208.7788 196.6036 210 201 C210.6002 203.1606 212.8483 205.4338 215 206 C219.7696 207.2552 229 206 229 206 "/>
<path id="2" d="M227 207 C227 207 225.1264 215.1279 227 219 C231.0998 227.4729 239.1687 228.7983 242 238 C247.6995 256.5233 247 284 247 284 "/>
<path id="3" d="M278 201 C278 201 277.2061 209.8015 274 216 C270.3016 223.1502 264.0079 223.861 263 230 C259.6204 250.5851 263 283 263 283 "/>
<path id="4" d="M247 286 C247 286 237.0803 288.8393 237 289 C236.9799 289.0402 242.8244 293.5902 243 294 C243.0166 294.0387 239.9918 295.9895 240 296 C240.3626 296.4662 250.0039 302.9941 250 303 C249.7482 303.3777 230.4386 310.3222 230 311 C229.9335 311.1028 236.8895 315.7791 239 320 C240.7978 323.5956 239.3011 330.7153 240 331 C243.3149 332.3505 265.3884 332.2703 266 331 C268.6384 325.5203 266 277 266 277 "/>
<path id="5" d="M249 189 C249 189 244.9043 193.6087 244 197 C243.3476 199.4466 243.9528 202.9528 245 204 C246.5708 205.5708 251.8009 207.3142 254 207 C255.4661 206.7906 258.155 204.1969 259 202 C259.9764 199.4613 260.1421 196.1415 259 194 C257.3915 190.9841 251.88 187.352 251 187 C250.9348 186.9739 249 190 249 190 "/>
</g>
</g>
</svg>
