<?xml version="1.0" encoding="utf-8"?>
<!DOCTYPE svg PUBLIC "-//W3C//DTD SVG 1.1//EN" "http://www.w3.org/Graphics/SVG/1.1/DTD/svg11.dtd">
<svg viewBox="0 0 800 800" preserveAspectRatio="xMinYMin meet" xmlns="http://www.w3.org/2000/svg" version="1.1">
<g fill="none" stroke="black" stroke-linecap="round" stroke-linejoin="round" stroke-width="0.94566">
<g transform="translate(87.52,138.2782) scale(3.1724) translate(-244,-95)">
<path id="0" d="M349 155 C349 155 346.8109 130.8634 347 125 C347.0069 124.7852 349.3443 124.8305 350 124 C355.3477 117.2263 355.6607 111.4001 362 106 C366.4667 102.195 373.9176 102.4384 377 101 C377.166 100.9225 376.8983 99.0339 377 99 C378.9321 98.356 387.0679 97.644 389 97 C389.1017 96.9661 388.987 95.0008 389 95 C390.8698 94.89 399.3424 93.8601 406 96 C411.2162 97.6766 412.0031 99.5583 417 104 C425.3384 111.4119 426.4239 111.5059 433 120 C437.9096 126.3416 439.1108 127.9153 441 135 C442.654 141.2025 442.0879 143.2009 441 150 C440.2283 154.8228 439.9395 156.2588 437 160 C429.8109 169.1497 428.6729 172.0778 419 178 C406.2185 185.8254 403.2124 185.6053 388 190 C381.6934 191.8219 377.3975 192.7617 374 191 C368.7637 188.2849 367.7632 182.425 361 176 C358.3196 173.4536 355.9892 174.4482 354 172 C350.535 167.7354 349.4864 165.6977 348 160 C346.7947 155.3797 348.9326 150.7321 348 149 C347.5108 148.0916 341 147 341 147 "/>
<path id="1" d="M399 119 C399 119 408.4407 114.9985 411 116 C414.7105 117.4519 418.3354 122.0802 422 128 C423.9947 131.2222 424.5233 136.5552 424 137 C421.3325 139.2673 406.7812 142.8267 402 145 C401.8305 145.0771 402.1154 146.9231 402 147 C401.7404 147.1731 399.6554 147.4682 399 147 C397.3458 145.8184 396.5386 144.6376 395 142 C393.1641 138.8528 392.5933 138.3618 392 135 C391.2121 130.5351 391.1706 129.147 392 125 C392.4645 122.6777 393.1771 121.2532 395 120 C399.8492 116.6662 405.0811 116.0208 408 114 C408.3534 113.7553 408 111 408 111 "/>
<path id="2" d="M348 149 C348 149 340.4128 150.7883 338 153 C336.5141 154.3621 337.5606 157.8542 336 160 C334.4562 162.1228 331.7347 162.0175 330 164 C329.0858 165.0449 329.7197 167.4602 329 168 C327.4706 169.1471 324.619 168.1813 322 170 C307.9599 179.7501 307.3895 184.1701 293 193 C287.1744 196.5748 283.1298 194.3001 278 197 C275.8534 198.1298 276.3351 201.2876 274 203 C269.9229 205.9899 267.4066 204.8894 263 208 C259.6817 210.3424 258.5713 214.5165 257 215 C255.8289 215.3603 250 212 250 212 "/>
<path id="3" d="M349 167 C349 167 346.4197 175.7856 342 179 C327.5145 189.5349 322.8001 190.5045 305 199 C302.1405 200.3648 299.8942 198.6886 298 200 C295.1586 201.9671 295.4763 205.2189 292 208 C286.2809 212.5753 278 216 278 216 "/>
<path id="4" d="M257 212 C257 212 247.0137 213.9863 245 216 C243.7414 217.2586 242.8876 223.2886 244 225 C246.6777 229.1196 253.5024 230.6591 258 236 C259.9112 238.2696 258.1911 240.8345 260 244 C263.7025 250.4794 264.9177 253.1278 270 257 C273.3923 259.5846 280.8831 260.1753 281 260 C281.4675 259.2987 281.3392 245.8262 280 242 C279.7008 241.1451 274.7643 240.8917 274 240 C273.465 239.3758 273.2343 236.4037 274 235 C275.42 232.3967 279.3118 228.9471 280 229 C280.9368 229.0721 284.9246 232.6274 287 236 C288.2142 237.9731 287.3411 241.6156 288 242 C289.6962 242.9894 298.5322 243.5103 299 243 C299.6695 242.2696 300.7276 234.8372 299 230 C296.5321 223.0897 291.7488 221.872 289 215 C287.5533 211.3832 289 205 289 205 "/>
<path id="5" d="M351 179 C351 179 353 176.3851 353 175 C353 173.2687 351 170 351 170 "/>
<path id="6" d="M354 177 C354 177 349.8596 179.0351 346 180 C344.2356 180.4411 342.4 180.2 342 180 C341.9 179.95 342 178 342 178 "/>
</g>
</g>
</svg>
