<?xml version="1.0" encoding="utf-8"?>
<!DOCTYPE svg PUBLIC "-//W3C//DTD SVG 1.1//EN" "http://www.w3.org/Graphics/SVG/1.1/DTD/svg11.dtd">
<svg viewBox="0 0 800 800" preserveAspectRatio="xMinYMin meet" xmlns="http://www.w3.org/2000/svg" version="1.1">
<g fill="none" stroke="black" stroke-linecap="round" stroke-linejoin="round" stroke-width="1.7809">
<g transform="translate(87.52,229.8626) scale(1.6845) translate(-118,-47)">
<path id="0" d="M226,199C226,199 227.62872155385006,187.31698796930107 227,176C225.64969487102905,151.69450767852288 221.32304557700814,150.69340480471533 222,127C222.77909140610993,99.73180078615219 224.81795829150855,97.30882713541817 230,71C230.98867901017272,65.98055271758468 231.89802190085103,65.20982742027358 235,61C238.54341344402783,56.19108175453364 239.27418478304693,54.925504658113795 244,52C248.6949275357965,49.09361628736407 250.05305616824467,48.99115730529255 256,48C264.5291694429123,46.57847175951462 266.7144198745954,44.938043360734554 274,47C290.25483531706345,51.600425089734934 292.09505872130506,54.36768955981535 309,63C315.2987361294694,66.21637589589926 315.7574571369575,66.4412670756152 321,71C326.92792117311916,76.15471406358189 329.6752502305265,76.88223744875397 332,83C337.8966458924099,98.51748919055237 338.4901865810703,102.12733226337896 340,121C343.4056764387658,163.57095548457272 342,208 342,208"/>
<path id="1" d="M227,200C227,200 203.660291159577,200.90346090362894 182,206C153.42159303280144,212.72433105110554 148.73275268106357,214.35856922331791 125,224C121.21752046676927,225.53663231037498 119.27027009791234,228.82432475521915 118,232C117.22372382905357,233.94069042736606 117.81490446108377,236.82732484532025 119,239C120.0565912033711,240.937083872847 121.34759023646251,241.89482926519273 124,243C132.55402148740842,246.5641756197535 134.55260303486224,249.13848191746126 143,249C161.82165030653846,248.6914483556305 164.05228003382123,244.39402513899185 185,242C198.7600510325233,240.42742273914018 199.4599953944587,242.9911771478737 213,241C232.87848116069546,238.07669394695654 232.9267158996302,234.3870932443683 253,232C324.6250072710088,223.48243156777192 325.7734495090976,223.20737187325645 398,219C428.19823202766895,217.2408796877086 429.76428357149933,221.99334430194324 459,220C472.1838795830128,219.10109911934003 479.2436539139667,216.82859611541886 486,213C487.8909041790836,211.92848763185262 489.5795637284929,205.60803677821798 489,203C488.4066371351144,200.32986710801495 485.72382268171264,196.86191134085632 482,195C473.8752959671724,190.9376479835862 471.1921535747366,189.84934613122806 461,189C442.5514119403024,187.46261766169186 438.9610665334852,185.40637781384777 422,190C394.4573874488073,197.45945756594801 391.12902940119073,209.4009222711734 365,215C348.17925025948545,218.6044463729674 343.76899769243334,214.74008064451442 324,211C307.4810511191382,207.8747934549721 306.7279566979165,201.91619165230583 291,201C258.32549961514075,199.09663104554218 221,205 221,205"/>
</g>
</g>
</svg>
