<?xml version="1.0" encoding="utf-8"?>
<!DOCTYPE svg PUBLIC "-//W3C//DTD SVG 1.1//EN" "http://www.w3.org/Graphics/SVG/1.1/DTD/svg11.dtd">
<svg viewBox="0 0 800 800" preserveAspectRatio="xMinYMin meet" xmlns="http://www.w3.org/2000/svg" version="1.1">
<g fill="none" stroke="black" stroke-linecap="round" stroke-linejoin="round" stroke-width="1.1137">
<g transform="translate(87.52,230.291) scale(2.6938) translate(-171,-121.1333)">
<path id="0" d="M253 205.1333 C253 205.1333 222.8045 206.6245 195 211.1333 C186.9976 212.431 185.6372 213.2616 179 217.1333 C174.6887 219.6483 171.1883 223.4388 171 225.1333 C170.8023 226.9126 173.2674 231.9749 177 235.1333 C184.7829 241.7189 187.8223 245.8222 197 247.1333 C224.0502 250.9976 229.5471 249.0205 261 247.1333 C278.8692 246.0612 279.0379 242.5703 297 241.1333 C328.5913 238.606 330.255 242.0614 361 239.1333 C370.853 238.195 371.233 235.0867 381 233.1333 C385.6071 232.2119 386.8245 234.2721 391 233.1333 C396.6939 231.5805 403.0413 227.2983 403 227.1333 C402.6906 225.8957 394.1497 216.3224 385 209.1333 C381.2588 206.1938 379.9056 205.7732 375 205.1333 C358.0939 202.9282 339 203.1333 339 203.1333 "/>
<path id="1" d="M255 221.1333 C255 221.1333 256.9597 219.8981 257 219.1333 C257.6883 206.0556 257.6883 196.2111 257 183.1333 C256.9597 182.3686 255 181.818 255 181.1333 C255 171.5475 252.5101 162.4586 257 153.1333 C262.822 141.0415 268.6616 138.7459 281 127.1333 C284.983 123.3846 286.331 122.534 291 121.1333 C294.9567 119.9463 296.8245 119.9946 301 121.1333 C306.6939 122.6862 308.0946 123.2791 313 127.1333 C321.3854 133.7218 324.1874 134.6188 329 143.1333 C335.8512 155.2547 336.4553 158.2892 339 173.1333 C342.2371 192.0162 341 213.1333 341 213.1333 "/>
<path id="2" d="M253 223.1333 C253 223.1333 257.5989 226.7932 261 227.1333 C265.7777 227.6111 267.1216 225.1333 273 225.1333 C299.4529 225.1333 303.1341 229.6455 327 227.1333 C337.2282 226.0567 349 217.1333 349 217.1333 "/>
</g>
</g>
</svg>
