<?xml version="1.0" encoding="utf-8"?>
<!DOCTYPE svg PUBLIC "-//W3C//DTD SVG 1.1//EN" "http://www.w3.org/Graphics/SVG/1.1/DTD/svg11.dtd">
<svg viewBox="0 0 800 800" preserveAspectRatio="xMinYMin meet" xmlns="http://www.w3.org/2000/svg" version="1.1">
<g fill="none" stroke="black" stroke-linecap="round" stroke-linejoin="round" stroke-width="1.2193">
<g transform="translate(87.52,211.7739) scale(2.4605) translate(-155,-90.9333)">
<path id="0" d="M228 178.9333 C228 178.9333 226.3223 170.0149 228 163.9333 C229.8127 157.3624 233.4937 157.0344 236 149.9333 C239.1898 140.8956 236.6171 138.5206 240 129.9333 C242.5942 123.3481 244.0944 123.007 249 116.9333 C254.4921 110.1336 254.4821 109.2442 261 103.9333 C267.4431 98.6834 268.441 97.5193 276 94.9333 C286.1887 91.4477 287.5955 92.275 299 90.9333 C304.345 90.3045 306.3806 89.4856 310 90.9333 C314.0142 92.539 315.2987 94.4917 319 98.9333 C325.0097 106.145 325.4404 106.574 330 114.9333 C337.2728 128.2668 337.4609 128.7778 343 142.9333 C346.3409 151.4713 346.4648 151.9782 348 160.9333 C349.3979 169.0879 349 177.9333 349 177.9333 "/>
<path id="1" d="M225 181.9333 C225 181.9333 235.1698 186.4114 245 186.9333 C290.1375 189.33 301.206 190.0977 338 187.9333 C341.726 187.7142 342.6223 183.2681 347 180.9333 C349.2461 179.7354 353 179.9333 353 179.9333 "/>
<path id="2" d="M231 166.9333 C231 166.9333 230.8884 168.8928 231 168.9333 C232.7993 169.5876 238.3198 169.5179 242 170.9333 C242.9862 171.3126 243.1751 173.7684 244 173.9333 C251.424 175.4181 255.524 175.6007 267 175.9333 C289.8944 176.5969 293.0443 177.4394 313 175.9333 C316.1677 175.6943 316.6394 172.4783 320 171.9333 C333.3237 169.7727 350 169.9333 350 169.9333 "/>
<path id="3" d="M238 154.9333 C238 154.9333 229.101 149.25 220 146.9333 C202.5 142.4788 197.9675 144.301 183 140.9333 C181.5657 140.6106 181.132 138.0748 180 137.9333 C175.6817 137.3936 170.6723 136.7911 167 138.9333 C161.9759 141.8641 158.9346 145.8197 156 151.9333 C153.9965 156.1072 155.1032 157.9472 155 163.9333 C154.6049 186.8471 152.8879 189.5159 155 209.9333 C155.5795 215.5351 157.2604 218.9129 161 221.9333 C167.4984 227.182 170.8083 228.0214 181 230.9333 C201.577 236.8125 202.453 236.6379 224 239.9333 C244.6901 243.0977 245.056 243.3673 266 243.9333 C318.723 245.3583 327.4945 248.8011 372 243.9333 C381.8799 242.8527 386.5686 238.1681 394 229.9333 C402.8984 220.073 405.3372 215.6311 409 202.9333 C411.9231 192.8001 410.3313 189.915 409 177.9333 C407.9054 168.0818 407.0729 167.4935 404 157.9333 C402.6794 153.8249 402.6439 151.9671 400 149.9333 C391.8679 143.6779 388.5878 141.0615 378 137.9333 C368.7592 135.2031 365.544 135.5699 356 136.9333 C349.9492 137.7977 343 142.9333 343 142.9333 "/>
</g>
</g>
</svg>
