<?xml version="1.0" encoding="utf-8"?>
<!DOCTYPE svg PUBLIC "-//W3C//DTD SVG 1.1//EN" "http://www.w3.org/Graphics/SVG/1.1/DTD/svg11.dtd">
<svg viewBox="0 0 800 800" preserveAspectRatio="xMinYMin meet" xmlns="http://www.w3.org/2000/svg" version="1.1">
<g fill="none" stroke="black" stroke-linecap="round" stroke-linejoin="round" stroke-width="1.0129">
<g transform="translate(87.52,108.2533) scale(2.9619) translate(-182,-135)">
<path id="0" d="M226 176 C226 176 248.0281 187.2037 269 190 C297.9805 193.8641 300.7315 191.1948 331 190 C337.8926 189.7279 339.6494 189.8664 345 187 C352.0035 183.2481 356.4983 180.1822 359 175 C361.2672 170.3036 361.5548 162.258 359 158 C354.4014 150.3356 348.4565 144.9082 338 140 C327.2246 134.9422 323.8912 136.1386 310 135 C293.8644 133.6774 293.1212 133.475 277 135 C256.6471 136.9253 254.2137 136.8452 236 142 C229.9554 143.7107 228.7427 145.9348 224 150 C222.6347 151.1703 222.1774 152.137 222 154 C221.2802 161.5578 220.6432 166.2513 222 171 C222.4561 172.5962 228 175 228 175 "/>
<path id="1" d="M222 170 L223 254 "/>
<path id="2" d="M362 167 L363 248 "/>
<path id="3" d="M222 229 C222 229 208.7853 227.4853 200 229 C196.8604 229.5413 195.2609 231.0325 193 234 C187.9988 240.564 187.5231 241.993 184 250 C182.2561 253.9634 182.1095 254.6183 182 259 C181.6251 273.9969 180.1437 277.4321 183 290 C184.3762 296.0553 186.6162 299.539 192 303 C211.1645 315.32 215.4031 316.8758 239 326 C251.8004 330.9495 253.1835 331.1792 267 332 C302.5688 334.113 307.9436 337.2456 340 332 C357.5412 329.1296 362.5202 324.2565 377 314 C383.5001 309.3957 384.2551 306.192 388 298 C391.7907 289.7078 391.9382 288.3439 393 279 C394.3566 267.0623 394.6242 265.6401 393 254 C391.7762 245.2293 391.0551 243.5695 387 236 C384.1669 230.7115 381.8964 227.4986 378 226 C372.8437 224.0168 361 226 361 226 "/>
</g>
</g>
</svg>
