<?xml version="1.0" encoding="utf-8"?>
<!DOCTYPE svg PUBLIC "-//W3C//DTD SVG 1.1//EN" "http://www.w3.org/Graphics/SVG/1.1/DTD/svg11.dtd">
<svg viewBox="0 0 800 800" preserveAspectRatio="xMinYMin meet" xmlns="http://www.w3.org/2000/svg" version="1.1">
<g fill="none" stroke="black" stroke-linecap="round" stroke-linejoin="round" stroke-width="2.357">
<g transform="translate(87.52,280.9903) scale(1.2728) translate(-88,-127)">
<path id="0" d="M216 219 C216 219 215.6736 211.7983 218 207 C222.9844 196.7196 224.5226 196.0558 232 186 C238.9402 176.6666 238.8554 176.1446 247 168 C257.6126 157.3874 257.9987 156.8581 270 148 C278.6188 141.6385 279.2705 141.3527 289 137 C297.8197 133.0543 298.5193 132.3544 308 131 C332.6225 127.4825 336.2271 124.805 359 127 C373.9181 128.4379 375.5998 132.0218 391 139 C407.3322 146.4005 407.7201 146.6623 423 156 C434.4549 163.0002 436.4626 162.8222 445 172 C455.2417 183.0098 457.9634 186.276 463 199 C466.1578 206.9777 464 220 464 220 "/>
<path id="1" d="M225 197 C225 197 185.8766 195.6952 149 198 C139.1521 198.6155 137.7848 199.0069 129 203 C116.8448 208.5251 115.993 209.7553 105 218 C98.451 222.9118 98.1073 223.691 93 230 C89.9312 233.7909 89.1147 234.7641 88 239 C86.9194 243.1062 86.633 245.5824 88 249 C89.8045 253.5112 91.3249 255.6435 96 259 C109.5277 268.7122 110.9266 270.8179 127 277 C161.5268 290.2795 163.2873 291.7778 200 299 C253.532 309.5309 255.1467 308.3775 310 313 C343.5911 315.8307 344.5635 315.7445 378 314 C401.308 312.7839 401.9853 311.964 425 307 C452.6288 301.0408 453.1319 300.956 480 292 C514.3314 280.5562 514.9422 280.1146 548 266 C558.9175 261.3386 559.3712 260.5338 569 254 C572.8822 251.3656 572.9378 250.6747 576 247 C577.7896 244.8525 578.5919 244.3127 579 242 C579.8857 236.9809 580.8404 233.9438 579 230 C575.2373 221.9371 572.7539 219.0035 565 212 C558.329 205.9746 556.8242 205.5951 548 202 C530.4601 194.8541 529.0569 192.6106 511 190 C489.5564 186.8997 486.8026 189.1614 465 190 C462.1197 190.1108 459 192 459 192 "/>
<path id="2" d="M220 208 C220 208 238.5884 221.7705 256 224 C314.8672 231.5379 320.0362 226.882 384 229 C395.4787 229.3801 396.2911 231.0925 407 229 C438.3454 222.875 470.8769 212.0369 471 212 C471.0066 211.998 467 211 467 211 "/>
<path id="3" d="M215 221 C215 221 214.8534 223.9569 215 224 C220.9903 225.7619 232.3987 226.573 249 231 C262.1453 234.5054 262.0556 237.8426 275 240 C299.7904 244.1317 301.0411 243.2739 327 244 C372.3306 245.268 373.4976 246.9023 418 244 C441.2718 242.4823 442.7645 240.8323 465 235 C472.1337 233.1289 474.6801 231.5099 479 228 C480.5085 226.7743 481.1706 224.2182 481 222 C480.789 219.2564 479.458 215.8972 478 215 C475.8821 213.6967 468 214 468 214 "/>
<path id="4" d="M217 224 C217 224 211.0287 212.3302 205 206 C202.8246 203.7158 200.8558 203.4131 197 203 C187.733 202.0071 183.3216 201.1269 177 203 C174.0382 203.8776 171.6779 206.9729 170 211 C167.3486 217.3634 166.8253 226.9418 167 227 C170.8176 228.2725 218 227 218 227 "/>
<path id="5" d="M220 228 C220 228 214.5387 227.0236 212 228 C209.8031 228.845 208.7458 230.2843 207 233 C204.5407 236.8255 203.7859 237.599 203 242 C201.4484 250.6888 201.1497 260.5404 202 261 C205.5349 262.9108 222.4193 262.7644 240 262 C243.7658 261.8363 245.067 261.1509 248 259 C251.6998 256.2868 254.1059 253.8611 255 251 C255.6473 248.9288 254.9396 245.667 253 243 C248.0391 236.1787 246.4478 234.3932 239 229 C232.8077 224.5159 231.1561 223.8553 224 222 C218.893 220.676 212 222 212 222 "/>
<path id="6" d="M210 224 C210 224 200.3299 222.3981 192 224 C175.3757 227.197 174.6458 231.0797 158 234 C147.2921 235.8786 145.9013 234.4193 135 234 C133.5599 233.9446 132.3874 233.5811 132 233 C131.2682 231.9023 131 227.9999 131 228 C131 228.0004 131.8247 250.9913 132 251 C138.4908 251.3205 212 232 212 232 "/>
<path id="7" d="M211 231 C211 231 199.5811 229.473 192 232 C183.8961 234.7013 182.2994 236.782 175 243 C169.4025 247.7683 166.4989 249.837 165 255 C163.1182 261.4817 164.5086 272.7572 166 274 C168.1115 275.7596 189 275 189 275 C189 275 185.5968 275.5988 184 275 C182.6826 274.506 181.8891 273.6301 181 272 C179.152 268.612 178.3724 267.7237 178 264 C177.4661 258.6612 177.004 255.8257 179 252 C181.6683 246.8858 184.1373 244.0942 190 241 C200.1943 235.6197 215 233 215 233 "/>
<path id="8" d="M212 227 C212 227 210.0054 221.5045 207 219 C202.1484 214.957 200.0999 214.0333 194 212 C190.8174 210.9391 186.4279 211.6944 186 212 C185.8625 212.0982 186.5149 216.7795 187 217 C188.4821 217.6737 192.288 216.2461 197 217 C204.3695 218.1791 209.1706 219.8683 212 221 C212.1364 221.0545 212 223 212 223 "/>
<path id="9" d="M214 231 C214 231 214.4078 249.0097 216 251 C216.8256 252.032 227.9546 251.8182 230 251 C230.4967 250.8013 231.669 245.7434 231 245 C226.9203 240.467 212 231 212 231 "/>
</g>
</g>
</svg>
