<?xml version="1.0" encoding="utf-8"?>
<!DOCTYPE svg PUBLIC "-//W3C//DTD SVG 1.1//EN" "http://www.w3.org/Graphics/SVG/1.1/DTD/svg11.dtd">
<svg viewBox="0 0 800 800" preserveAspectRatio="xMinYMin meet" xmlns="http://www.w3.org/2000/svg" version="1.1">
<g fill="none" stroke="black" stroke-linecap="round" stroke-linejoin="round" stroke-width="2.3714">
<g transform="translate(87.52,164.0586) scale(1.2651) translate(-112,-29)">
<path id="0" d="M211 135 L241 285 "/>
<path id="1" d="M212 133 C212 133 214.5697 119.0504 220 110 C223.8676 103.554 225.9915 102.6056 233 98 C242.8081 91.5547 243.7381 89.7975 255 87 C319.639 70.9432 323.5158 70.4911 390 59 C402.8367 56.7813 403.8911 60.4338 417 59 C435.3358 56.9945 436.5304 53.294 454 52 C461.8122 51.4213 468.1848 51.9123 471 55 C477.6598 62.3044 479.0644 70.2579 485 86 C490.4635 100.4902 493.2641 101.4451 494 116 C497.5763 186.7312 494.0904 261.3973 494 264 C493.9977 264.0673 489 260 489 260 "/>
<path id="2" d="M499 199 C499 199 517.7188 189.7056 536 186 C553.2528 182.5028 556.9655 182.9765 573 184 C577.4875 184.2864 578.7105 185.8803 583 189 C589.2913 193.5755 591.8277 194.1313 595 200 C600.5012 210.1772 600.3985 213.3175 603 226 C604.2235 231.9648 603.8052 232.7197 603 239 C601.35 251.8704 601.8587 252.743 598 265 C593.5531 279.1255 592.9514 280.0451 586 293 C582.2929 299.9087 581.6118 300.3882 576 306 C567.9483 314.0517 567.6635 314.9969 558 321 C535.3071 335.0971 534.3169 335.1702 510 347 C497.6248 353.0203 497.2546 353.112 484 357 C422.6256 375.0032 422.183 376.7233 360 391 C324.8406 399.0723 323.7899 399.6977 288 402 C239.2678 405.1348 237.5145 404.7332 189 402 C167.7072 400.8004 165.7272 400.1832 146 394 C133.8298 390.1855 130.0523 388.5786 122 381 C115.8039 375.1684 114.884 370.9405 112 362 C110.4429 357.1729 110.7326 355.2507 112 350 C113.9739 341.8223 114.5634 340.7159 119 333 C125.7948 321.183 125.7162 319.7812 135 310 C152.9825 291.0541 154.4096 290.4723 175 274 C183.8586 266.9131 184.6193 266.8555 195 262 C215.2449 252.5306 237 245 237 245 "/>
<path id="3" d="M237 245 C237 245 282.3418 239.1493 327 231 C350.6463 226.685 350.3908 224.6245 374 220 C398.7678 215.1486 399.1565 214.0921 424 212 C446.0619 210.1422 447.0468 210.4319 469 212 C481.3704 212.8836 494 217 494 217 "/>
<path id="4" d="M225 219 C225 219 216.3456 222.4257 212 227 C208.2203 230.9786 207.7955 233.1006 206 239 C204.532 243.8234 205 250 205 250 "/>
<path id="5" d="M493 181 C493 181 496.9256 180.8685 499 182 C501.4489 183.3358 501.6787 184.3885 504 187 C505.6386 188.8434 506.6285 189.5142 507 191 C507.2933 192.173 506 195 506 195 "/>
<path id="6" d="M506 180 C506 180 516.228 172.8333 521 164 C538.4792 131.6449 536.618 124.5652 553 93 C555.3694 88.4346 558.3349 86.4253 562 85 C564.6059 83.9866 570.9891 85.9918 571 86 C571.0039 86.0029 567.5143 86.4857 566 88 C561.0243 92.9757 558.6083 94.8348 556 101 C553.9681 105.8028 556.8046 109.263 555 114 C553.5615 117.7761 552.0403 119.0772 548 122 C529.4187 135.4418 524.677 134.4499 508 148 C502.9355 152.1149 502.0143 154.957 500 161 C498.5857 165.2429 499.714 171.846 500 172 C500.5237 172.282 508.476 171.016 513 168 C517.2353 165.1765 519.1117 163.0354 521 158 C524.4134 148.8975 524.1259 146.9891 525 136 C527.5944 103.3852 523.2089 100.6631 528 70 C530.2976 55.2956 533.4472 53.8764 540 40 C541.5361 36.747 542.2517 35.5911 545 34 C550.4795 30.8277 552.1981 30.1337 559 29 C566.3369 27.7772 567.4699 27.7183 575 29 C590.2304 31.5924 606.0189 36.9811 606 37 C605.9482 37.0518 572.9487 41.6988 555 49 C550.8626 50.683 549.8082 54.6555 547 61 C536.6261 84.4372 538.1494 86.4533 528 110 C525.9438 114.7704 525.4779 115.0106 522 119 C508.7023 134.2532 507.4519 137.0023 494 149 C491.1317 151.5582 485 152 485 152 "/>
</g>
</g>
</svg>
