<?xml version="1.0" encoding="utf-8"?>
<!DOCTYPE svg PUBLIC "-//W3C//DTD SVG 1.1//EN" "http://www.w3.org/Graphics/SVG/1.1/DTD/svg11.dtd">
<svg viewBox="0 0 800 800" preserveAspectRatio="xMinYMin meet" xmlns="http://www.w3.org/2000/svg" version="1.1">
<g fill="none" stroke="black" stroke-linecap="round" stroke-linejoin="round" stroke-width="1.9825">
<g transform="translate(87.52,132.9166) scale(1.5132) translate(-179,-100.9333)">
<path id="0" d="M452 137.9333 C452 137.9333 411.6571 117.6718 372 105.9333 C351.3984 99.8353 349.4308 102.0549 327 100.9333 C299.7361 99.5701 298.4601 98.8979 272 100.9333 C260.7128 101.8016 259.1643 102.471 249 106.9333 C239.7738 110.9839 239.0824 112.1616 231 118.9333 C220.9399 127.3621 219.8038 127.7884 212 137.9333 C205.3927 146.5228 204.8784 147.6555 201 157.9333 C195.1551 173.4224 195.7831 174.4252 192 190.9333 C190.3321 198.2114 190.3109 198.4706 190 205.9333 C189.3197 222.2606 189.1948 223.6347 190 238.9333 C190.1246 241.3001 190.5072 242.0014 192 243.9333 C198.5207 252.3719 198.8474 253.4418 207 260.9333 C217.0162 270.1374 217.5194 270.5188 229 277.9333 C241.1986 285.8116 241.6761 285.8115 255 291.9333 C278.4946 302.7281 280.0628 301.0287 303 311.9333 C309.8916 315.2097 309.6182 319.2788 316 320.9333 C333.6038 325.4973 336.646 324.9282 357 325.9333 C376.7143 326.9069 380.8058 329.8531 397 324.9333 C415.4779 319.3198 418.3262 315.1328 436 301.9333 C457.0429 286.2177 461.9325 285.0249 476 265.9333 C487.1273 250.832 487.9357 245.2387 492 225.9333 C495.3738 209.908 494.131 206.9811 492 189.9333 C490.2834 176.2004 488.6932 175.2909 484 161.9333 C482.3615 157.2699 482.0285 156.7694 479 152.9333 C474.8143 147.6314 474.2528 146.6103 469 142.9333 C465.045 140.1648 459 138.9333 459 138.9333 "/>
<path id="1" d="M191 169.9333 C191 169.9333 191.1427 186.6848 189 202.9333 C185.179 231.9092 181.8785 232.1485 179 260.9333 C176.9509 281.4242 177.5472 282.9574 179 302.9333 C179.4597 309.2547 180.076 310.2942 183 315.9333 C186.7214 323.1104 187.2701 324.0058 193 329.9333 C201.3205 338.5407 202.0334 339.3764 212 345.9333 C220.4121 351.4676 221.2472 351.778 231 354.9333 C254.6816 362.595 255.4249 362.9631 280 367.9333 C299.521 371.8814 300.4084 369.1566 320 372.9333 C341.5796 377.0933 341.7422 381.4077 363 383.9333 C390.8845 387.2463 393.3925 385.7453 421 384.9333 C425.8043 384.792 426.4723 384.1391 431 381.9333 C445.5353 374.852 447.519 375.517 460 365.9333 C474.4298 354.8533 475.4269 353.3997 487 338.9333 C498.8588 324.1098 500.1758 322.8438 508 305.9333 C515.0752 290.6419 515.7177 288.5943 518 271.9333 C520.5166 253.5624 520.8403 250.259 518 232.9333 C516.2784 222.4316 508 210.9333 508 210.9333 "/>
<path id="2" d="M335 223.9333 C335 223.9333 341.0049 209.5923 349 196.9333 C358.7914 181.4303 371 166.9333 371 166.9333 "/>
<path id="3" d="M334 226.9333 C334 226.9333 349.553 227.8414 364 225.9333 C375.4074 224.4267 375.5689 221.2587 387 219.9333 C409.3028 217.3475 410.2883 220.4569 433 217.9333 C477.4407 212.9955 478.4705 214.0249 522 204.9333 C556.7311 197.6794 575.8576 191.6393 591 184.9333 C592.1419 184.4276 592.8611 178.8541 592 173.9333 C589.5817 160.1144 588.5872 159.0476 584 144.9333 C582.1673 139.2943 582.0905 137.2298 579 133.9333 C576.1681 130.9126 573.5754 129.0997 569 128.9333 C499.3311 126.3999 490.5621 126.6713 414 127.9333 C400.6294 128.1537 400.3089 129.3983 387 131.9333 C379.4438 133.3726 377.994 133.079 372 135.9333 C368.8595 137.4288 366.2266 139.8184 366 141.9333 C365.2605 148.8354 369 163.9333 369 163.9333 "/>
<path id="4" d="M253 366.9333 C253 366.9333 249.2036 379.8833 243 390.9333 C233.4999 407.8554 232.7444 408.1786 221 423.9333 C212.4024 435.4667 202 445.9333 202 445.9333 "/>
<path id="5" d="M259 369.9333 C259 369.9333 273.2032 408.0142 289 442.9333 C291.6675 448.83 297 453.9333 297 453.9333 "/>
</g>
</g>
</svg>
