<?xml version="1.0" encoding="utf-8"?>
<!DOCTYPE svg PUBLIC "-//W3C//DTD SVG 1.1//EN" "http://www.w3.org/Graphics/SVG/1.1/DTD/svg11.dtd">
<svg viewBox="0 0 800 800" preserveAspectRatio="xMinYMin meet" xmlns="http://www.w3.org/2000/svg" version="1.1">
<g fill="none" stroke="black" stroke-linecap="round" stroke-linejoin="round" stroke-width="1.1857">
<g transform="translate(138.124,87.52) scale(2.5302) translate(-176,-137)">
<path id="0" d="M187 267 C187 267 196.9759 266.453 206 268 C213.9348 269.3602 214.2074 272.2916 222 273 C240.4698 274.6791 243.4774 276.9303 261 273 C293.9709 265.6047 298.2449 263.1681 329 249 C340.2162 243.833 340.6731 241.3269 350 232 C361.2905 220.7095 366.6471 218.4759 371 207 C375.4076 195.38 372.1173 177.8718 372 174 C371.9998 173.9929 370.1032 174.1892 370 174 C368.753 171.7138 368.5287 165.5287 366 163 C363.4713 160.4713 357.2862 160.247 355 159 C354.8108 158.8968 355.1269 157.0476 355 157 C352.0391 155.8897 346.8763 153.7501 339 153 C326.4986 151.8094 316.2309 152.7515 313 153 C312.9809 153.0015 313.0794 154.9811 313 155 C305.6809 156.7426 278.3191 161.2574 271 163 C270.9206 163.0189 271.1269 164.9524 271 165 C268.0391 166.1103 262.4046 166.1337 255 169 C247.364 171.9559 247.0624 172.4302 240 177 C221.7365 188.8175 220.6104 188.5236 204 202 C194.673 209.5672 192.9606 210.7882 187 220 C183.0464 226.1101 183.4071 232.7837 182 236 C181.9323 236.1547 180.0034 235.971 180 236 C179.7534 238.096 179.106 244.954 180 253 C180.5434 257.8907 180.6727 259.1917 183 263 C185.5349 267.148 187.5029 269.2515 191 271 C193.3314 272.1657 199 271 199 271 "/>
<path id="1" d="M373 175 C373 175 375.127 186.5557 376 189 C376.0414 189.1158 377.9855 188.9347 378 189 C378.602 191.7091 379.398 204.2909 380 207 C380.0145 207.0653 381.9987 206.9814 382 207 C382.3917 212.4843 384.9679 230.633 383 249 C382.3071 255.4668 380.386 257.1521 376 263 C370.4179 270.4428 369.5988 271.1109 362 277 C350.0208 286.2839 349.3489 287.0475 336 294 C325.9784 299.2196 324.5746 301.1866 314 302 C275.6582 304.9494 270.5323 304.9358 232 302 C220.9058 301.1547 213.9129 296.1361 209 294 C208.8387 293.9299 209.1038 292.0389 209 292 C207.8404 291.5651 203.8457 292.4977 201 291 C195.7478 288.2357 192.4068 286.4698 190 282 C186.9977 276.4243 187.8337 267.8345 187 265 C186.9726 264.9068 185 265 185 265 C185 264.5397 187 258 187 258 "/>
<path id="2" d="M309 260 C309 260 301.5877 251.2837 293 245 C281.5472 236.6199 278.8329 238.3568 268 230 C262.2958 225.5996 263.4297 222.8867 258 218 C253.9799 214.3819 252.0186 215.6359 248 212 C242.0713 206.6359 242.0731 203.7349 237 199 C235.9181 197.9903 234.1766 199.0589 233 198 C216.7919 183.4127 213.337 180.1748 197 163 C194.9111 160.804 195.8874 159.0971 194 157 C191.9608 154.7342 189.2327 154.6436 188 153 C187.4199 152.2265 187.4172 150.1657 188 149 C188.8743 147.2515 191.3619 146.7549 192 145 C192.819 142.7479 192.4325 138.2472 192 138 C190.4243 137.0996 179.7755 136.1122 178 137 C177.1451 137.4274 175.4082 143.9286 176 146 C176.4715 147.6501 178.9359 149.7744 182 151 C187.8218 153.3287 196 154 196 154 "/>
<path id="3" d="M328 300 C328 300 321.6748 316.9383 318 334 C314.7615 349.0361 317.0098 349.951 314 365 C312.0881 374.5595 308 384 308 384 "/>
</g>
</g>
</svg>
