<?xml version="1.0" encoding="utf-8"?>
<!DOCTYPE svg PUBLIC "-//W3C//DTD SVG 1.1//EN" "http://www.w3.org/Graphics/SVG/1.1/DTD/svg11.dtd">
<svg viewBox="0 0 800 800" preserveAspectRatio="xMinYMin meet" xmlns="http://www.w3.org/2000/svg" version="1.1">
<g fill="none" stroke="black" stroke-linecap="round" stroke-linejoin="round" stroke-width="1.4305">
<g transform="translate(152.5326,87.52) scale(2.0972) translate(-132.3611,-98.3056)">
<path id="0" d="M198.3611 201.3056 C198.3611 201.3056 195.813 232.3492 195.3611 263.3056 C194.8149 300.719 201.5322 322.7922 196.3611 338.3056 C194.8375 342.8764 180.815 343.4228 166.3611 350.3056 C149.5368 358.3171 133.3611 368.3056 133.3611 368.3056 "/>
<path id="1" d="M192.3611 341.3056 C192.3611 341.3056 213.0997 353.8436 234.3611 364.3056 C244.3051 369.1986 255.3611 372.3056 255.3611 372.3056 "/>
<path id="2" d="M195.3611 340.3056 C195.3611 340.3056 198.0393 343.9803 198.3611 347.3056 C199.4205 358.2524 200.7132 360.8283 198.3611 371.3056 C195.6691 383.2974 187.3611 396.3056 187.3611 396.3056 "/>
<path id="3" d="M198.3611 201.3056 C198.3611 201.3056 198.8468 198.8452 198.3611 198.3056 C195.9164 195.5892 194.0529 194.4794 189.3611 191.3056 C177.1243 183.0277 173.7735 184.1643 164.3611 175.3056 C158.7082 169.9851 160.7369 166.3497 155.3611 159.3056 C146.6015 147.8274 144.81 148.3978 135.3611 137.3056 C133.5323 135.1587 132.6346 134.5844 132.3611 132.3056 C131.3407 123.8023 132.3611 112.3056 132.3611 112.3056 "/>
<path id="4" d="M198.3611 198.3056 C198.3611 198.3056 200.1866 201.2183 202.3611 202.3056 C208.3411 205.2955 209.281 205.7322 216.3611 207.3056 C231.4064 210.649 232.7052 207.9571 247.3611 212.3056 C277.377 221.2114 278.8477 228.4865 307.3611 234.3056 C323.9819 237.6976 334.0446 234.2376 345.3611 232.3056 C346.4985 232.1114 348.3611 227.3056 348.3611 227.3056 "/>
<path id="5" d="M135.3611 113.3056 C135.3611 113.3056 135.8777 117.1188 137.3611 118.3056 C143.9872 123.6064 148.8324 123.3445 155.3611 129.3056 C158.6508 132.3092 157.2157 135.05 160.3611 139.3056 C165.3838 146.101 167.6831 148.2513 172.3611 152.3056 C172.9643 152.8283 174.661 151.761 175.3611 152.3056 C181.4032 157.005 182.5605 160.6051 190.3611 166.3056 C194.8917 169.6163 196.8306 167.9948 201.3611 171.3056 C209.1617 177.006 208.3356 179.573 216.3611 185.3056 C225.3039 191.6932 226.1325 192.4698 236.3611 196.3056 C249.3456 201.1747 250.8337 198.7401 264.3611 203.3056 C290.536 212.1396 290.818 216.9915 316.3611 223.3056 C333.1799 227.463 353.3611 225.3056 353.3611 225.3056 "/>
<path id="6" d="M220.3611 184.3056 C220.3611 184.3056 233.6189 185.3249 246.3611 184.3056 C258.2799 183.3521 258.6269 183.09 270.3611 180.3056 C287.9385 176.1346 288.7259 176.5437 305.3611 170.3056 C316.1471 166.2608 316.738 165.7826 326.3611 159.3056 C342.3366 148.5528 343.0434 147.7394 357.3611 135.3056 C361.4529 131.7521 363.0628 130.3859 364.3611 126.3056 C365.8644 121.581 365.4169 117.7927 364.3611 113.3056 C363.9598 111.6 361.3766 109.2548 360.3611 109.3056 C356.0184 109.5227 351.6804 111.0851 344.3611 114.3056 C339.68 116.3653 335.9011 120.1976 335.3611 120.3056 C335.3505 120.3077 335.1708 117.2772 334.3611 116.3056 C333.4676 115.2334 330.8444 115.1514 330.3611 114.3056 C329.7972 113.3188 329.5107 110.6662 330.3611 109.3056 C333.295 104.6114 336.4568 99.339 340.3611 98.3056 C347.4582 96.4269 358.0315 98.045 364.3611 100.3056 C366.1173 100.9328 367.8023 104.5336 368.3611 108.3056 C369.5967 116.646 370.4243 124.3253 368.3611 127.3056 C366.2478 130.3582 350.3611 134.3056 350.3611 134.3056 "/>
</g>
</g>
</svg>
