<?xml version="1.0" encoding="utf-8"?>
<!DOCTYPE svg PUBLIC "-//W3C//DTD SVG 1.1//EN" "http://www.w3.org/Graphics/SVG/1.1/DTD/svg11.dtd">
<svg viewBox="0 0 800 800" preserveAspectRatio="xMinYMin meet" xmlns="http://www.w3.org/2000/svg" version="1.1">
<g fill="none" stroke="black" stroke-linecap="round" stroke-linejoin="round" stroke-width="1.4945">
<g transform="translate(170.1566,87.52) scale(2.0074) translate(-136.5,-53.3333)">
<path id="0" d="M250.5 56.3333 C250.5 56.3333 244.8936 53.8092 239.5 53.3333 C228.4874 52.3616 226.2472 50.5081 216.5 53.3333 C194.5489 59.696 191.4818 61.9825 170.5 73.3333 C162.364 77.7348 160.4975 79.1147 155.5 86.3333 C148.1681 96.9239 147.8241 99.1334 143.5 112.3333 C138.5457 127.457 138.8519 128.5418 136.5 144.3333 C135.4323 151.5021 136.1899 151.8921 136.5 159.3333 C136.6869 163.8188 136.1595 164.3119 137.5 168.3333 C140.947 178.6742 140.6433 180.3392 146.5 189.3333 C153.9945 200.8427 159.0776 202.2068 165.5 211.3333 C166.4079 212.6235 165.697 216.1757 165.5 216.3333 C165.2931 216.4988 160.5 215.3333 160.5 215.3333 C160.5 215.3333 184.0108 222.9843 201.5 226.3333 C203.7789 226.7697 205.2818 224.1627 207.5 224.3333 C210.2436 224.5444 211.0746 226.9303 214.5 227.3333 C235.1619 229.7642 236.8562 229.9785 258.5 230.3333 C266.8369 230.47 269.2633 231.4517 275.5 228.3333 C287.4537 222.3565 289.898 219.9354 300.5 209.3333 C311.102 198.7313 311.682 196.9101 319.5 184.3333 C322.5767 179.3839 322.8063 178.2791 323.5 172.3333 C326.1903 149.2738 328.5062 146.1151 326.5 124.3333 C325.2842 111.1334 323.0743 108.7233 316.5 96.3333 C310.679 85.3631 309.4027 84.236 300.5 75.3333 C292.0785 66.9119 290.7946 65.3662 280.5 60.3333 C269.7953 55.0999 267.2261 54.7991 255.5 53.3333 C248.8156 52.4978 240.5 55.3333 240.5 55.3333 "/>
<path id="1" d="M261.5 68.3333 C261.5 68.3333 256.2653 64.7071 251.5 64.3333 C232.5565 62.8476 228.1701 61.1983 210.5 64.3333 C200.6083 66.0883 197.0852 68.2899 189.5 75.3333 C178.0787 85.9388 177.2499 89.0742 168.5 103.3333 C164.288 110.1974 163.5764 111.4396 162.5 119.3333 C159.2737 142.9932 156.1141 149.0182 159.5 169.3333 C161.5976 181.9191 166.3939 185.5836 175.5 197.3333 C180.825 204.2043 182.6118 204.8258 190.5 209.3333 C199.3678 214.4006 200.8072 216.0691 210.5 217.3333 C233.1299 220.2851 237.1629 220.8152 259.5 218.3333 C270.4655 217.1149 272.1725 214.9158 282.5 209.3333 C289.8925 205.3374 291.0723 204.469 296.5 198.3333 C301.8295 192.3087 303.4873 190.8089 305.5 183.3333 C309.9296 166.8805 309.3555 164.6459 310.5 146.3333 C311.3263 133.1127 312.8708 130.6355 309.5 119.3333 C305.2063 104.9369 302.7104 100.44 293.5 89.3333 C287.981 82.6781 283.4986 84.6352 275.5 78.3333 C267.456 71.9956 260.5 63.3333 260.5 63.3333 "/>
<path id="2" d="M197.5 156.3333 L198.5 157.3333 "/>
<path id="3" d="M196.5 179.3333 L196.5 183.3333 "/>
<path id="4" d="M224.5 159.3333 L224.5 157.3333 "/>
<path id="5" d="M228.5 184.3333 L227.5 182.3333 "/>
<path id="6" d="M242.5 114.3333 C242.5 114.3333 246.4199 121.5906 251.5 127.3333 C257.6521 134.2879 259.4451 133.4135 265.5 140.3333 C269.6065 145.0265 270.0625 145.7271 272.5 151.3333 C274.8092 156.6445 273.6619 157.8192 275.5 163.3333 C276.0184 164.8886 277.0578 166.1122 277.5 166.3333 C277.6895 166.4281 279.4936 165.3027 279.5 165.3333 C279.7807 166.6809 282.2386 177.9189 282.5 190.3333 C283.2297 224.9958 285.7396 254.1506 281.5 260.3333 C279.567 263.1523 247.7807 263.8283 234.5 260.3333 C230.5589 259.2962 228.2598 253.088 224.5 245.3333 C220.5392 237.1643 218.5 227.3333 218.5 227.3333 "/>
<path id="7" d="M243.5 118.3333 C243.5 118.3333 236.7892 117.7603 235.5 118.3333 C235.0524 118.5323 234.3881 122.1842 234.5 122.3333 C234.6033 122.471 237.2494 121.708 238.5 122.3333 C241.1576 123.6621 242.5763 124.5352 244.5 127.3333 C247.5437 131.7605 246.3058 133.6485 249.5 138.3333 C253.4499 144.1265 256.2959 143.4311 259.5 149.3333 C265.1336 159.711 266.964 161.5572 268.5 173.3333 C272.673 205.3261 274.8376 229.4134 271.5 241.3333 C270.8182 243.7684 249.0871 248.1349 247.5 248.3333 C247.4681 248.3373 248.1585 245.0358 247.5 244.3333 C243.2092 239.7565 232.5 232.3333 232.5 232.3333 "/>
<path id="8" d="M241.5 120.3333 C241.5 120.3333 236.3575 118.1476 234.5 118.3333 C233.5986 118.4235 231.8982 119.9396 231.5 121.3333 C230.3349 125.4112 230.2191 128.6818 230.5 132.3333 C230.5554 133.0534 231.9266 134.3333 232.5 134.3333 C234.7937 134.3333 239.8941 133.1123 240.5 132.3333 C240.9585 131.7439 240.1323 126.071 239.5 125.3333 C239.1551 124.931 234.7561 125.026 234.5 125.3333 C234.1311 125.776 234.4994 131.3316 234.5 131.3333 C234.5003 131.3341 235.5 128.3333 235.5 128.3333 "/>
<path id="9" d="M214.5 229.6667 C214.5 229.6667 218.2391 234.6224 218.5 238.6667 C219.1164 248.2206 216.5 249.7983 216.5 260.6667 C216.5 275.9812 216.2384 285.2588 218.5 291.6667 C218.9657 292.9863 224.5685 292.1913 228.5 294.6667 C237.0366 300.0416 236.8209 303.0873 245.5 308.6667 C250.0303 311.579 251.2012 311.2537 256.5 312.6667 C258.2565 313.1351 260.25 312.9167 260.5 312.6667 C260.75 312.4167 260.5 308.6667 260.5 308.6667 "/>
<path id="10" d="M213.5 228.6667 C213.5 228.6667 210.3202 235.31 209.5 241.6667 C208.4077 250.1321 208.7096 250.814 209.5 259.6667 C211.1883 278.5752 214.1827 284.0225 214.5 297.6667 C214.5408 299.4232 210.451 302.6471 210.5 302.6667 C211.1178 302.9138 223.1121 303.4625 234.5 305.6667 C238.012 306.3464 239.1095 306.7108 241.5 308.6667 C243.7526 310.5097 243.4879 313.5935 245.5 314.6667 C248.8722 316.4652 256.5 316.6667 256.5 316.6667 "/>
<path id="11" d="M262.5 313.6667 C262.5 313.6667 257.4033 320.6394 251.5 323.6667 C239.3744 329.8849 237.0403 330.3642 223.5 333.6667 C217.7172 335.0771 210.4979 333.6334 210.5 333.6667 C210.5818 334.9345 221.6877 364.2397 225.5 364.6667 C247.809 367.1653 281.3274 357.7273 335.5 347.6667 C350.6623 344.8508 361.7872 341.5839 365.5 338.6667 C366.3227 338.0203 365.5292 331.6415 363.5 325.6667 C356.7603 305.822 351.9771 288.9228 347.5 285.6667 C345.2975 284.0649 331.9933 288.0845 319.5 293.6667 C309.6838 298.0526 309.7467 302.8139 300.5 306.6667 C293.7464 309.4806 290.8797 306.6003 283.5 308.6667 C279.5496 309.7728 279.5544 312.4503 275.5 313.6667 C265.5987 316.6371 253.5 317.6667 253.5 317.6667 "/>
</g>
</g>
</svg>
