<?xml version="1.0" encoding="utf-8"?>
<!DOCTYPE svg PUBLIC "-//W3C//DTD SVG 1.1//EN" "http://www.w3.org/Graphics/SVG/1.1/DTD/svg11.dtd">
<svg viewBox="0 0 800 800" preserveAspectRatio="xMinYMin meet" xmlns="http://www.w3.org/2000/svg" version="1.1">
<g fill="none" stroke="black" stroke-linecap="round" stroke-linejoin="round" stroke-width="1.9249">
<g transform="translate(127.2618,87.52) scale(1.5585) translate(-12,-80.4167)">
<path id="0" d="M93 137.4167 C93 137.4167 97.8231 156.0806 103 170.4167 C103.5774 172.0156 104.9776 173.1245 106 173.4167 C106.9846 173.698 109.9474 172.3641 110 172.4167 C110.0526 172.4692 108.6332 174.8971 109 176.4167 C111.6281 187.3046 115.8522 191.6602 117 201.4167 C117.3774 204.6246 113.1968 207.8579 113 210.4167 C112.9203 211.4529 114.3187 213.4559 116 214.4167 C120.2259 216.8315 127 218.4167 127 218.4167 "/>
<path id="1" d="M27 165.4167 C27 165.4167 29.2925 161.5567 32 160.4167 C46.3396 154.379 49.5041 151.3537 65 149.4167 C78.8055 147.691 86.7148 155.1249 96 152.4167 C102.768 150.4427 103.9906 140.8642 113 135.4167 C123.3843 129.1378 125.9338 130.2409 139 126.4167 C146.2454 124.2961 146.7386 123.4167 154 123.4167 C179.657 123.4167 183.4948 129.8092 207 126.4167 C227.7716 123.4187 251 109.4167 251 109.4167 "/>
<path id="2" d="M17 154.4167 C17 154.4167 40.4361 137.6636 61 133.4167 C81.2448 129.2357 91.2859 139.2125 109 135.4167 C118.5486 133.3705 119.6006 125.8263 131 118.4167 C139.2262 113.0696 140.4649 111.0511 149 109.4167 C161.5494 107.0136 163.9258 107.9854 178 109.4167 C192.8557 110.9274 193.1523 113.5986 208 115.4167 C217.1788 116.5406 219.9866 118.0662 227 115.4167 C238.9679 110.8955 252.293 98.4983 253 98.4167 C253.0408 98.412 253 112.4167 253 112.4167 "/>
<path id="3" d="M20 154.4167 L31 164.4167 "/>
<path id="4" d="M16 268.4167 C16 268.4167 31.049 269.9342 37 269.4167 C37.6434 269.3607 38.3973 266.6176 39 266.4167 C39.7366 266.1711 41.6886 267.7081 43 267.4167 C44.9671 266.9795 46.5261 266.1011 48 264.4167 C49.349 262.8749 49.3263 259.7161 50 259.4167 C51.046 258.9518 57 260.4167 57 260.4167 "/>
<path id="5" d="M57 261.4167 C57 261.4167 58.3041 264.3645 59 264.4167 C83.4666 266.2517 99.8977 270.7662 137 267.4167 C169.1931 264.5103 172.0174 262.1414 203 251.4167 C222.4557 244.682 223.1303 242.5082 241 231.4167 C251.6094 224.8316 252.4295 224.4383 261 215.4167 C280.3816 195.0149 280.8313 193.8106 298 171.4167 C303.4329 164.3302 307 155.4167 307 155.4167 "/>
<path id="6" d="M13 271.4167 C13 271.4167 11.6881 273.5157 12 274.4167 C15.1096 283.3998 16.0765 286.5909 22 297.4167 C30.4044 312.7765 30.1993 315.2659 41 327.4167 C48.755 336.141 51.0358 336.8271 62 342.4167 C75.6283 349.3644 76.819 349.1749 92 353.4167 C110.4683 358.5769 111.2302 360.1959 130 361.4167 C171.418 364.1105 176.329 363.4308 215 361.4167 C220.123 361.1499 220.3773 357.9858 226 356.4167 C241.4019 352.1185 242.921 354.3516 258 349.4167 C269.697 345.5886 270.6457 345.2165 281 338.4167 C303.4983 323.6417 304.236 322.7767 325 305.4167 C334.2955 297.645 335.1862 297.1769 342 287.4167 C353.1698 271.4167 359.6704 268.6072 362 252.4167 C368.3963 207.9627 362.847 200.0852 362 148.4167 C361.8531 139.4577 361.9621 138.8257 360 130.4167 C358.601 124.4211 358.3599 123.2465 355 118.4167 C350.9511 112.5964 348.835 109.3161 344 107.4167 C338.6353 105.3091 333.7473 106.4528 327 107.4167 C325.2423 107.6678 323.9528 108.7017 323 110.4167 C319.6552 116.4373 320.8718 118.692 317 125.4167 C311.6533 134.7031 307.2313 135.2141 304 143.4167 C301.9037 148.7381 304 158.4167 304 158.4167 "/>
<path id="7" d="M123 215.4167 C123 215.4167 125.6199 221.6316 128 223.4167 C129.6769 224.6744 134.1607 223.3191 135 224.4167 C137.7201 227.9737 137.5917 237.5764 141 240.4167 C144.7609 243.5508 153.8305 241.597 159 244.4167 C161.1423 245.5852 161.2966 251.8672 163 252.4167 C170.1561 254.7251 190 254.4167 190 254.4167 "/>
<path id="8" d="M188 253.4167 C188 253.4167 186.8159 246.1004 188 240.4167 C189.0968 235.1519 189.8025 232.0581 193 229.4167 C198.5858 224.8023 202.3942 223.7115 211 221.4167 C216.1293 220.0489 217.8165 220.1208 223 221.4167 C230.6673 223.3335 233.9106 223.9634 239 228.4167 C243.6581 232.4925 245.2546 236.183 247 242.4167 C248.1522 246.5315 247.8969 249.9391 246 253.4167 C243.207 258.5372 239.7409 263.1447 235 264.4167 C224.8055 267.1518 215.59 267.1902 205 264.4167 C199.747 263.0409 193 253.4167 193 253.4167 "/>
<path id="9" d="M265 348.4167 C265 348.4167 275.7076 375.3319 282 402.4167 C287.0377 424.1005 286.277 425.0174 288 447.4167 C289.2507 463.676 288 480.4167 288 480.4167 "/>
<path id="10" d="M298 330.4167 C298 330.4167 309.8653 352.9272 312 374.4167 C317.0368 425.1209 313 481.4167 313 481.4167 "/>
<path id="11" d="M30 155.4167 C30 155.4167 27.1177 152.4169 27 150.4167 C26.7299 145.8252 30.1431 140.8172 29 138.4167 C27.4775 135.2194 17 129.4167 17 129.4167 "/>
<path id="12" d="M244 109.4167 L247 80.4167 "/>
<path id="13" d="M199 248.4167 L199 246.4167 "/>
<path id="14" d="M229 261.4167 L229 251.4167 "/>
<path id="15" d="M217 228.4167 L222 234.4167 "/>
<path id="16" d="M203 237.4167 L221 238.4167 "/>
<path id="17" d="M211 259.4167 L221 249.4167 "/>
<path id="18" d="M323 132.4167 C323 132.4167 325.4257 138.006 327 138.4167 C332.3748 139.8188 337.6595 139.6523 346 138.4167 C349.7719 137.8579 354 134.4167 354 134.4167 "/>
<path id="19" d="M317 173.4167 C317 173.4167 317.6267 183.929 319 185.4167 C320.0147 186.5159 326.1044 187.5749 329 186.4167 C333.1021 184.7758 333.6561 180.4703 339 177.4167 C346.7638 172.9802 357 170.4167 357 170.4167 "/>
<path id="20" d="M286 211.4167 C286 211.4167 290.324 220.095 294 222.4167 C296.8605 224.2233 300.7833 224.7537 305 223.4167 C318.5935 219.1065 335 209.4167 335 209.4167 "/>
<path id="21" d="M272 253.4167 C272 253.4167 273 251.4167 273 251.4167 C274.0473 251.9403 278.9699 257.807 284 259.4167 C289.1934 261.0786 291.9292 260.7657 298 259.4167 C304.2153 258.0355 304.6813 254.6121 311 253.4167 C321.813 251.371 335 252.4167 335 252.4167 "/>
<path id="22" d="M231 286.4167 C231 286.4167 234.7091 295.9226 237 296.4167 C249.6991 299.1557 282 297.4167 282 297.4167 "/>
<path id="23" d="M177 297.4167 C177 297.4167 183.9855 314.2247 190 318.4167 C194.656 321.6617 210 320.4167 210 320.4167 "/>
<path id="24" d="M130 297.4167 C130 297.4167 129.3636 307.3188 132 314.4167 C135.2817 323.2519 137.5271 327.6279 143 332.4167 C146.1968 335.2138 150.338 333.1519 156 335.4167 C159.5886 336.8521 163 340.4167 163 340.4167 "/>
<path id="25" d="M89 295.4167 C89 295.4167 85.3181 307.2028 87 312.4167 C88.8378 318.1138 99 326.4167 99 326.4167 "/>
<path id="26" d="M56 283.4167 C56 283.4167 53.4645 286.0944 53 288.4167 C52.1706 292.5636 51.8479 294.1373 53 298.4167 C55.0606 306.0702 60 314.4167 60 314.4167 "/>
</g>
</g>
</svg>
