<?xml version="1.0" encoding="utf-8"?>
<!DOCTYPE svg PUBLIC "-//W3C//DTD SVG 1.1//EN" "http://www.w3.org/Graphics/SVG/1.1/DTD/svg11.dtd">
<svg viewBox="0 0 800 800" preserveAspectRatio="xMinYMin meet" xmlns="http://www.w3.org/2000/svg" version="1.1">
<g fill="none" stroke="black" stroke-linecap="round" stroke-linejoin="round" stroke-width="2.7698">
<g transform="translate(87.52,168.754) scale(1.0831) translate(-64,-54.9833)">
<path id="0" d="M303 58.9833 C303 58.9833 311.5753 59.5156 315 60.9833 C315.9893 61.4073 315.678 63.9664 317 64.9833 C321.066 68.1111 324.6786 68.2155 328 70.9833 C328.8995 71.7329 327.9842 73.7331 329 74.9833 C333.5909 80.6337 337.3514 80.3115 341 86.9833 C353.6935 110.1943 356.6978 113.2904 364 138.9833 C369.5059 158.3558 367.2666 160.5327 368 181.9833 C369.2581 218.7814 369.5905 223.7763 368 255.9833 C367.8453 259.1159 365.0547 259.4675 364 262.9833 C362.2507 268.8144 364.2402 270.6884 362 275.9833 C359.2807 282.4108 358.0449 283.2177 353 288.9833 C347.804 294.9216 345.7882 293.9981 341 299.9833 C336.2583 305.9105 338.052 308.7735 333 313.9833 C323.1845 324.1055 321.0296 327.613 309 332.9833 C296.1569 338.7169 292.8642 337.519 277 338.9833 C260.9184 340.4678 259.7571 340.3244 244 338.9833 C237.1526 338.4006 236.45 337.7122 230 334.9833 C223.8503 332.3816 223.3397 331.9881 218 327.9833 C213.6663 324.7331 212.6262 324.4064 210 319.9833 C203.7113 309.3919 205.0886 307.0861 199 295.9833 C196.9138 292.1791 194.0332 292.3411 193 288.9833 C190.7091 281.5378 192.8291 279.1289 191 269.9833 C189.3972 261.9692 186.7084 261.776 186 253.9833 C184.3209 235.5135 184.8585 231.7256 186 214.9833 C186.1523 212.7491 188.3918 212.5029 189 209.9833 C191.6525 198.9944 188.8668 196.6497 193 185.9833 C203.7516 158.2372 207.4748 151.455 220 129.9833 C221.5129 127.3898 225.6679 128.3155 228 125.9833 C229.9435 124.0399 228.9448 121.2098 231 118.9833 C234.01 115.7225 237.734 115.2494 240 112.9833 C240.4532 112.5301 239.5158 110.629 240 109.9833 C241.5334 107.9388 243.9617 107.7011 246 104.9833 C247.9847 102.3371 247.0434 100.1356 249 97.9833 C251.0846 95.6903 253.816 96.4794 256 93.9833 C259.9097 89.5152 258.8454 86.138 263 81.9833 C267.1546 77.8287 270.3837 79.1137 275 74.9833 C279.031 71.3767 278.0812 68.9021 282 64.9833 C284.9967 61.9866 286.0367 61.1393 290 59.9833 C296.9488 57.9566 306 57.9833 306 57.9833 "/>
<path id="1" d="M280 64.9833 C280 64.9833 280.5888 63.0595 281 62.9833 C297.3479 59.9559 312.9916 55.3065 334 54.9833 C338.703 54.911 341.1471 57.7371 346 61.9833 C352.4928 67.6645 354.006 68.5945 358 75.9833 C363.3271 85.8384 363.2198 87.8625 366 98.9833 C367.0009 102.9868 364.8077 104.5767 366 107.9833 C367.7819 113.0744 370.9453 113.3795 373 118.9833 C376.0998 127.4373 374.1632 128.9571 377 137.9833 C379.5487 146.0929 382.3083 146.1592 384 153.9833 C386.0494 163.4617 383.5756 164.7748 385 174.9833 C386.5294 185.9443 389.3551 186.1484 390 196.9833 C391.7933 227.1105 391.0402 236.4462 390 258.9833 C389.9473 260.1242 387.311 260.5528 387 261.9833 C383.2089 279.4223 381.658 297.8538 380 304.9833 C379.9741 305.0948 377.2795 304.624 377 304.9833 C375.5494 306.8484 375.8495 310.6779 373 313.9833 C364.2777 324.1012 362.9489 324.7189 352 333.9833 C343.6273 341.0679 342.9881 342.4893 334 346.9833 C328.3137 349.8265 325.6978 347.5414 320 349.9833 C316.4322 351.5124 316.7348 354.1159 313 355.9833 C305.5304 359.7182 304.26 361.2225 296 361.9833 C268.192 364.5446 261.4839 363.3782 237 362.9833 C235.7413 362.963 234.2496 361.9192 234 360.9833 C231.3856 351.1793 229 332.9833 229 332.9833 "/>
<path id="2" d="M390 276.9833 C390 276.9833 392.0165 286.0208 391 293.9833 C389.1388 308.563 384.8875 309.5608 384 323.9833 C382.9846 340.4839 382.9304 343.7902 387 358.9833 C389.7523 369.2586 391.7034 372.6867 399 379.9833 C407.6233 388.6066 416.2533 390.2045 423 394.9833 C423.276 395.1789 423.066 396.9645 423 396.9833 C422.191 397.2145 416 396.9833 416 396.9833 "/>
<path id="3" d="M345 339.9833 C345 339.9833 350.9682 344.5935 354 349.9833 C359.4472 359.6672 360.01 360.8777 363 371.9833 C366.8375 386.237 367.0917 387.4513 368 401.9833 C368.5356 410.5528 366 419.9833 366 419.9833 "/>
<path id="4" d="M320 467.9833 C320 467.9833 322.9562 458.7119 328 453.9833 C337.3116 445.2537 342.5145 446.1138 352 437.9833 C354.7307 435.6428 353.3416 431.6504 356 429.9833 C377.5766 416.4522 387.3028 416.2954 411 400.9833 C416.9132 397.1625 415.272 393.4017 421 387.9833 C433.2822 376.365 436.3685 377.8986 448 365.9833 C456.098 357.6879 454.2144 355.153 462 345.9833 C476.484 328.9245 477.2726 325.822 493 312.9833 C499.4372 307.7285 503.5688 310.7123 511 305.9833 C518.9126 300.9481 522.653 291.4414 526 291.9833 C550.976 296.0271 571.2808 307.0736 616 322.9833 C623.1418 325.5242 624.3381 325.3031 630 328.9833 C633.3371 331.1524 636 335.9833 636 335.9833 "/>
<path id="5" d="M270 265.9833 C270 265.9833 266.4412 251.3543 261 241.9833 C258.7238 238.0633 256.0803 236.2816 252 234.9833 C247.2754 233.4801 242.7767 235.7387 239 234.9833 C238.2447 234.8323 237.1583 233.3553 237 231.9833 C235.8674 222.1676 234.4004 218.5809 236 208.9833 C236.9924 203.0286 239.837 197.8284 243 195.9833 C246.8137 193.7587 256.888 193.8941 260 194.9833 C261.0841 195.3628 262.68 199.1435 263 202.9833 C264.086 216.0156 260.9562 225.9523 263 230.9833 C263.6775 232.651 269.6612 234.3937 276 234.9833 C290.221 236.3062 306 234.9833 306 234.9833 "/>
<path id="6" d="M395 471.9833 C395 471.9833 397.4274 463.556 402 458.9833 C412.517 448.4663 417.0026 450.3355 428 438.9833 C447.196 419.1681 445.2191 415.536 464 394.9833 C471.2134 387.0894 473.5404 388.6689 481 380.9833 C489.6896 372.0304 488.3752 369.0332 497 360.9833 C502.3408 355.9986 504.8235 357.6157 511 352.9833 C516.4044 348.93 521 342.9833 521 342.9833 "/>
<path id="7" d="M547 364.9833 L614 402.9833 "/>
<path id="8" d="M533 337.9833 C533 337.9833 523.9473 347.9148 518 358.9833 C506.2765 380.8021 508.9595 384.0542 497 404.9833 C491.7272 414.2107 487.612 412.8 482 421.9833 C471.7053 438.8292 473.7354 441.0336 464 458.9833 C457.839 470.3426 450 480.9833 450 480.9833 "/>
<path id="9" d="M536 347.9833 C536 347.9833 543.9949 352.0427 552 353.9833 C560.019 355.9273 561.123 353.9506 569 355.9833 C575.9921 357.7878 575.8761 360.1311 583 361.9833 C600.3152 366.4853 601.4965 364.4566 619 368.9833 C630.1422 371.8649 641 376.9833 641 376.9833 "/>
<path id="10" d="M510 325.9833 C510 325.9833 501.3212 336.6111 491 343.9833 C470.4964 358.6287 468.1157 356.5205 447 370.9833 C431.8783 381.3406 433.312 384.2922 418 393.9833 C394.4157 408.9101 392.0103 406.8133 368 420.9833 C362.0601 424.4888 361.5776 425.1196 357 429.9833 C353.9946 433.1766 355.1712 435.663 352 437.9833 C336.7783 449.1212 332.4699 448.3796 316 459.9833 C311.4137 463.2146 307.9995 468.9829 308 468.9833 C308.0621 469.0377 324 466.9833 324 466.9833 "/>
<path id="11" d="M533 357.9833 C533 357.9833 517.8134 378.4633 501 393.9833 C492.9899 401.3773 489.902 399.478 481 405.9833 C477.5606 408.4968 478.4521 410.6819 475 412.9833 C464.4279 420.0314 462.1912 418.6019 451 425.9833 C439.0194 433.8854 436.5756 433.7743 428 443.9833 C416.9795 457.1029 411.1828 471.345 409 475.9833 C408.9686 476.05 412 477.9833 412 477.9833 "/>
<path id="12" d="M538 415.9833 C538 415.9833 527.616 428.2608 516 438.9833 C495.2689 458.1198 494.6824 458.7177 473 475.9833 C468.279 479.7427 462 481.9833 462 481.9833 "/>
<path id="13" d="M569 447.9833 L530 481.9833 "/>
<path id="14" d="M587 475.9833 L572 481.9833 "/>
<path id="15" d="M533 410.9833 C533 410.9833 500.1487 427.3597 469 444.9833 C462.6038 448.6022 461.1404 449.8429 457 453.9833 C456.0142 454.9691 456.753 457.4562 456 457.9833 C453.8005 459.523 447 460.9833 447 460.9833 "/>
<path id="16" d="M583 423.9833 C583 423.9833 574.3341 428.2768 569 432.9833 C566.9836 434.7625 567.9633 437.02 566 438.9833 C562.7278 442.2555 561.6971 442.4335 557 444.9833 C544.332 451.8603 542.4339 450.0675 531 457.9833 C517.3044 467.4649 505 480.9833 505 480.9833 "/>
<path id="17" d="M506 432.9833 C506 432.9833 472.1388 450.5729 439 468.9833 C431.7628 473.004 429.65 473.9533 425 477.9833 C424.0472 478.8091 423.9959 481.9863 424 481.9833 C424.0155 481.9723 432 472.9833 432 472.9833 "/>
<path id="18" d="M481 402.9833 C481 402.9833 473.6411 414.3495 464 420.9833 C420.9476 450.6066 372 477.9833 372 477.9833 "/>
<path id="19" d="M451 397.9833 C451 397.9833 440.2204 403.5424 429 406.9833 C403.0365 414.9455 400.3854 410.7158 376 420.9833 C335.5539 438.0133 334.8374 440.8993 296 462.9833 C284.3737 469.5944 274 478.9833 274 478.9833 "/>
<path id="20" d="M98 86.9833 C98 86.9833 114.9982 91.7582 117 94.9833 C119.0611 98.304 115.5663 113.7063 116 115.9833 C116.0198 116.0875 119.4525 115.2096 121 115.9833 C124.095 117.5308 124.3452 119.9275 128 121.9833 C131.7649 124.1011 136.3915 123.6987 137 124.9833 C138.3405 127.8133 135.0823 138.2759 137 140.9833 C139.4022 144.3746 148.3792 144.7677 154 148.9833 C156.0162 150.4955 157 155.9833 157 155.9833 "/>
<path id="21" d="M64 236.9833 C64 236.9833 73.2575 231.037 83 227.9833 C106.1101 220.7399 107.5121 220.8429 131 215.9833 C135.6527 215.0207 136.6663 215.1708 141 215.9833 C143.844 216.5166 145.4671 217.4505 147 218.9833 C147.8516 219.8349 147.6667 222.8584 148 222.9833 C148.8831 223.3145 155 221.9833 155 221.9833 "/>
<path id="22" d="M109 320.9833 C109 320.9833 112.9909 320.8483 114 319.9833 C115.083 319.0551 114.474 316.3013 116 314.9833 C123.751 308.2893 126.3078 305.0643 136 300.9833 C143.0525 298.0139 148.8765 298.2847 154 298.9833 C155.3531 299.1679 155.9993 303.0497 158 303.9833 C161.7698 305.7426 165.0699 306.7319 169 305.9833 C173.1239 305.1978 175.6034 303.0969 179 299.9833 C180.4427 298.6609 181 294.9833 181 294.9833 "/>
</g>
</g>
</svg>
