<?xml version="1.0" encoding="utf-8"?>
<!DOCTYPE svg PUBLIC "-//W3C//DTD SVG 1.1//EN" "http://www.w3.org/Graphics/SVG/1.1/DTD/svg11.dtd">
<svg viewBox="0 0 800 800" preserveAspectRatio="xMinYMin meet" xmlns="http://www.w3.org/2000/svg" version="1.1">
<g fill="none" stroke="black" stroke-linecap="round" stroke-linejoin="round" stroke-width="1.2673">
<g transform="translate(249.6782,87.52) scale(2.3673) translate(-179,-203.1333)">
<path id="0" d="M209 207.1333 C209 207.1333 205.3522 204.1333 203 204.1333 C197.9035 204.1333 195.1121 204.5773 190 207.1333 C185.4167 209.425 183.7599 211.1189 181 215.1333 C179.1763 217.786 179.2619 219.2046 179 223.1333 C178.2915 233.7601 177.6951 234.6941 179 245.1333 C180.1047 253.9711 180.1939 255.3097 184 263.1333 C188.7174 272.8301 190.1032 273.8571 197 282.1333 C199.5044 285.1387 200.6909 286.306 204 287.1333 C210.9191 288.8631 215.1887 290.3126 221 288.1333 C231.1369 284.332 233.9105 280.3544 244 272.1333 C246.4887 270.1055 247.5258 268.86 248 266.1333 C249.204 259.2104 248.9785 257.3526 248 249.1333 C246.5268 236.7584 246.8064 235.8062 243 224.1333 C239.5323 213.4991 237.2442 206.0084 233 203.1333 C229.3209 200.6411 221.9685 202.1686 212 203.1333 C207.1153 203.606 202 206.1333 202 206.1333 "/>
<path id="1" d="M209 290.1333 C209 290.1333 211.9628 292.0057 212 293.1333 C213.0557 325.1549 211.9986 381.0107 212 381.1333 C212 381.1361 212.7195 379.1435 213 379.1333 C227.1187 378.6199 240.55 377.7227 267 379.1333 C277.3906 379.6875 286.2975 380.1067 288 383.1333 C295.3685 396.2328 296.5714 413.133 303 443.1333 C305.5061 454.8284 306 467.1333 306 467.1333 "/>
<path id="2" d="M215 314.1333 C215 314.1333 213.6234 319.3272 215 322.1333 C224.9381 342.3918 241 367.1333 241 367.1333 "/>
<path id="3" d="M215 314.1333 L261 355.1333 "/>
</g>
</g>
</svg>
