<?xml version="1.0" encoding="utf-8"?>
<!DOCTYPE svg PUBLIC "-//W3C//DTD SVG 1.1//EN" "http://www.w3.org/Graphics/SVG/1.1/DTD/svg11.dtd">
<svg viewBox="0 0 800 800" preserveAspectRatio="xMinYMin meet" xmlns="http://www.w3.org/2000/svg" version="1.1">
<g fill="none" stroke="black" stroke-linecap="round" stroke-linejoin="round" stroke-width="1.0801">
<g transform="translate(87.52,205.568) scale(2.7776) translate(-160,-135.1333)">
<path id="0" d="M272 157.1333 C272 157.1333 266.0006 158.8002 264 158.1333 C262.5213 157.6404 260.8218 155.3933 260 153.1333 C259.2361 151.0325 259.0798 149.1052 260 147.1333 C261.8813 143.1019 263.355 140.5633 267 138.1333 C270.645 135.7033 275.4073 134.3555 278 135.1333 C281.0034 136.0344 285.4521 140.1776 287 144.1333 C288.7306 148.556 288.1912 153.8449 287 158.1333 C286.5415 159.784 284.3658 161.4762 282 162.1333 C276.8597 163.5612 271.9622 164.3806 269 163.1333 C266.6947 162.1627 263 154.1333 263 154.1333 "/>
<path id="1" d="M254 176.1333 C254 176.1333 265.1154 168.1077 274 166.1333 C280.2192 164.7513 286.7066 166.4866 290 168.1333 C291.0655 168.6661 292 175.1333 292 175.1333 "/>
<path id="2" d="M255 237.1333 C255 237.1333 264.5874 230.7691 273 229.1333 C280.6598 227.6439 290.5687 230.6878 291 230.1333 C291.5271 229.4556 287.7225 220.5256 287 211.1333 C285.7652 195.0803 285.8833 192.2776 287 178.1333 C287.1772 175.8887 290 173.1333 290 173.1333 "/>
<path id="3" d="M255 235.1333 C255 235.1333 250.4042 231.7205 250 229.1333 C248.4501 219.214 249.1477 215.9179 250 203.1333 C250.6294 193.6924 250.7087 192.9711 253 184.1333 C254.0469 180.0951 257 176.1333 257 176.1333 "/>
<path id="4" d="M297 172.1333 L290 183.1333 "/>
<path id="5" d="M297 175.1333 C297 175.1333 303.8233 178.0742 307 182.1333 C311.7697 188.228 313.6952 198.1072 315 198.1333 C321.5398 198.2641 335.898 189.1625 357 183.1333 C370.4167 179.3 385 178.1333 385 178.1333 "/>
<path id="6" d="M296 183.1333 C296 183.1333 301.924 187.7836 306 193.1333 C309.6023 197.8613 311.4323 203.6287 312 204.1333 C312.012 204.144 313.5051 201.6054 315 201.1333 C321.418 199.1066 324.2174 201.0108 331 198.1333 C339.508 194.5239 339.2496 191.6411 348 187.1333 C355.37 183.3367 364 181.1333 364 181.1333 "/>
<path id="7" d="M249 177.1333 C249 177.1333 248.896 184.9665 247 187.1333 C244.3376 190.1761 239.4457 189.2434 235 193.1333 C228.5248 198.7992 228.1267 205.2851 223 208.1333 C219.218 210.2345 215.2772 209.0244 208 208.1333 C191.1486 206.0699 174 202.1333 174 202.1333 "/>
<path id="8" d="M250 178.1333 C250 178.1333 238.4932 183.1844 230 190.1333 C222.8015 196.023 222.3073 203.9961 217 205.1333 C198.3428 209.1313 160 205.1333 160 205.1333 "/>
<path id="9" d="M248 243.1333 C248 243.1333 257.4077 243.5192 266 242.1333 C272.4557 241.0921 272.7458 238.5162 279 238.1333 C295.9703 237.0943 315 239.1333 315 239.1333 "/>
<path id="10" d="M248 245.1333 C248 245.1333 225.051 251.0869 225 251.1333 C224.985 251.147 231.0347 254.3601 237 255.1333 C257.199 257.7517 259.2639 255.7167 279 258.1333 C282.432 258.5536 282.5042 260.5164 286 261.1333 C298.7815 263.3889 300.5363 261.6406 313 264.1333 C316.9739 264.9281 317.2 267.2889 321 268.1333 C325.275 269.0833 331 268.1333 331 268.1333 "/>
<path id="11" d="M264 250.1333 C264 250.1333 286.3087 250.8764 305 256.1333 C316.5486 259.3814 328 268.1333 328 268.1333 "/>
<path id="12" d="M275 247.1333 C275 247.1333 308.9713 244.1296 309 244.1333 C309.0087 244.1345 298 250.1333 298 250.1333 "/>
<path id="13" d="M315 240.1333 L301 256.1333 "/>
<path id="14" d="M279 261.1333 C279 261.1333 277.3221 263.0524 276 263.1333 C256.4971 264.3274 230 264.1333 230 264.1333 "/>
<path id="15" d="M228 272.1333 C228 272.1333 256.6243 275.0085 276 271.1333 C283.7985 269.5736 293 259.1333 293 259.1333 "/>
<path id="16" d="M230 265.1333 C230 265.1333 212.2291 256.1028 212 256.1333 C211.9791 256.1361 213.1475 264.725 215 267.1333 C216.028 268.4697 222 269.1333 222 269.1333 "/>
<path id="17" d="M234 273.1333 C234 273.1333 235 275.1333 235 275.1333 C234.9786 275.1441 233.1318 274.9634 232 274.1333 C226.1387 269.835 220 264.1333 220 264.1333 "/>
<path id="18" d="M326 268.1333 C326 268.1333 327.3145 260.4385 330 257.1333 C332.3204 254.2775 338.9876 252.1147 339 252.1333 C339.2028 252.4375 339.2625 262.8209 338 269.1333 C337.7358 270.4545 336.2857 271.8119 335 272.1333 C331.9144 272.9047 327.7535 272.9304 326 272.1333 C325.1675 271.7549 324 267.1333 324 267.1333 "/>
<path id="19" d="M271 231.1333 L271 239.1333 "/>
</g>
</g>
</svg>
