<?xml version="1.0" encoding="utf-8"?>
<!DOCTYPE svg PUBLIC "-//W3C//DTD SVG 1.1//EN" "http://www.w3.org/Graphics/SVG/1.1/DTD/svg11.dtd">
<svg viewBox="0 0 800 800" preserveAspectRatio="xMinYMin meet" xmlns="http://www.w3.org/2000/svg" version="1.1">
<g fill="none" stroke="black" stroke-linecap="round" stroke-linejoin="round" stroke-width="1.7953">
<g transform="translate(125.1179,87.52) scale(1.671) translate(-152,-73)">
<path id="0" d="M152 126 C152 126 156.7023 140.0965 158 154 C160.1398 176.9259 156.7314 178.3138 159 201 C160.1367 212.3672 164.149 212.9373 165 224 C166.0463 237.6017 164.8846 240.1851 163 253 C162.65 255.3803 160.1031 257.9794 160 258 C159.9691 258.0062 158 254 158 254 "/>
<path id="1" d="M154 126 C154 126 184.1667 121.9 186 123 C186.6435 123.3861 184 144 184 144 "/>
<path id="2" d="M186 124 C186 124 237.4902 124.1583 242 128 C244.5642 130.1843 240 149.0907 240 170 C240 191.905 242 214 242 214 "/>
<path id="3" d="M167 255 C167 255 165.4272 286.083 167 314 C167.3259 319.7847 168.385 324.5219 171 326 C183.105 332.8419 191.8071 334.6436 213 340 C236.8624 346.0312 237.7076 347.2225 262 349 C298.1999 351.6488 299.4892 351.0779 336 349 C360.3726 347.6129 360.659 345.6741 385 342 C387.0185 341.6953 389.0029 341.0058 389 341 C388.9826 340.9652 383 338 383 338 "/>
<path id="4" d="M245 205 C245 205 250.13 218.6064 253 232 C254.5207 239.0966 252.9561 246.5739 254 247 C261.334 249.9935 278.1453 251.496 302 252 C348.5919 252.9843 378.0286 245.7714 396 250 C398.7127 250.6383 401.2776 262.8685 404 276 C409.6957 303.4731 416.014 325.2688 413 332 C411.3493 335.6865 374 343 374 343 "/>
<path id="5" d="M204 335 C204 335 202.6038 366.7248 204 398 C205.0909 422.4359 205.0566 443.947 209 447 C214.1641 450.998 262.6733 449.6237 266 446 C269.6856 441.9853 267.5904 415.1418 265 386 C263.6799 371.1489 259.1702 370.0428 258 356 C257.3208 347.8498 261 338 261 338 "/>
<path id="6" d="M360 351 C360 351 363.7263 353.3253 365 356 C368.1718 362.6608 368.8985 363.989 370 372 C374.279 403.1199 373.1976 427.0324 376 436 C376.1861 436.5956 383.4395 437.1481 390 436 C402.7578 433.7674 414.6604 431.7956 416 429 C418.7236 423.316 417.8145 406.6561 413 388 C406.3824 362.3569 392 336 392 336 "/>
<path id="7" d="M334 82 C334 82 320.0488 84.9756 310 90 C305.6934 92.1533 304.5349 93.852 302 98 C299.6727 101.8083 299.397 103.2362 299 108 C298.461 114.4679 298.3932 116.1083 300 122 C301.0542 125.8652 301.9307 126.9307 305 130 C311.3747 136.3747 312.4853 139.4504 320 142 C337.0911 147.7988 340.9042 147.6236 361 149 C376.4369 150.0573 378.25 150.0046 393 147 C403.8475 144.7903 405.9085 143.9871 415 138 C425.0443 131.3855 429.0303 127.5854 434 120 C435.7954 117.2596 435.4143 113.2429 434 109 C431.9857 102.957 430.9279 100.1812 426 96 C416.2306 87.7108 413.6704 85.3495 401 81 C382.1952 74.5446 379.8081 75.3781 359 73 C345.4235 71.4484 344.204 71.9294 331 73 C326.6412 73.3534 322 76 322 76 "/>
<path id="8" d="M339 146 C339 146 330.6494 158.474 322 164 C315.2642 168.3034 311.369 165.5904 303 169 C298.8449 170.6928 296.2307 172.2651 295 175 C293.1475 179.1166 292.9556 182.9426 294 189 C295.2111 196.0241 298.7145 196.6542 300 204 C302.0164 215.5222 299.1161 217.1584 301 229 C302.4942 238.392 303.2291 241.0383 307 248 C308.49 250.7508 310.5739 251.6296 314 253 C317.1977 254.2791 318.0475 254.0388 322 254 C368.509 253.544 371.549 250.4265 416 252 C425.0921 252.3218 427.8091 253.5927 435 258 C441.3316 261.8807 445.6416 265.1785 447 271 C451.0808 288.4891 445.532 295.5913 449 318 C451.8371 336.3318 460 355 460 355 "/>
<path id="9" d="M422 132 C422 132 427.712 138.9939 430 145 C431.1406 147.9941 430.9723 149.8887 430 153 C428.8378 156.7189 425.1189 158.0283 425 161 C424.7559 167.1028 428.068 169.6117 429 178 C430.0151 187.1363 427.6193 188.4394 429 197 C429.9307 202.77 431.0986 206.9448 434 209 C438.8447 212.4316 445.5316 210.2658 453 214 C457.6895 216.3447 461.0029 218.777 462 223 C467.8158 247.6316 464.5238 255.0755 470 286 C472.9409 302.6074 476.0821 302.5536 479 319 C481.4758 332.9545 483.0994 343.6776 481 348 C479.8593 350.3484 468.0867 353.2061 462 354 C460.8897 354.1448 458 351 458 351 "/>
<path id="10" d="M334 95 C334 95 330.8665 97.5738 330 100 C328.7388 103.5314 328.7215 108.6286 329 109 C329.1435 109.1913 335.7745 108.4887 336 108 C336.6151 106.6672 335 96 335 96 "/>
<path id="11" d="M403 93 C403 93 396.1653 95.0512 394 97 C393.0548 97.8507 392.8165 101.8623 393 102 C393.6507 102.488 401.8991 103.2017 402 103 C402.4034 102.1931 400 88 400 88 "/>
<path id="12" d="M371 110 C371 110 371.8653 115.1845 373 117 C373.3954 117.6327 375.9056 118.0629 376 118 C376.0809 117.9461 376 115 376 115 "/>
<path id="13" d="M356 137 C356 137 364.1707 139 372 139 C383.744 139 396.0004 136.9997 396 137 C395.9994 137.0005 380.2255 142.3521 365 145 C357.9493 146.2262 356.2025 146.654 350 145 C342.9153 143.1108 335 137 335 137 "/>
</g>
</g>
</svg>
