<?xml version="1.0" encoding="utf-8"?>
<!DOCTYPE svg PUBLIC "-//W3C//DTD SVG 1.1//EN" "http://www.w3.org/Graphics/SVG/1.1/DTD/svg11.dtd">
<svg viewBox="0 0 800 800" preserveAspectRatio="xMinYMin meet" xmlns="http://www.w3.org/2000/svg" version="1.1">
<g fill="none" stroke="black" stroke-linecap="round" stroke-linejoin="round" stroke-width="1.5265">
<g transform="translate(194.6279,87.52) scale(1.9653) translate(-214,-92.4167)">
<path id="0" d="M303 93.4167 C303 93.4167 294.3436 93.9344 288 96.4167 C283.9415 98.0048 282.5882 99.5409 280 102.4167 C279.0392 103.4842 279.1731 104.4258 279 106.4167 C278.1915 115.7146 276.8697 117.7873 278 125.4167 C278.5241 128.954 279.9647 130.3814 283 133.4167 C287.9031 138.3198 289.5566 140.9758 295 142.4167 C303.3266 144.6208 307.6125 144.1235 317 142.4167 C322.1593 141.4786 324.2353 139.9461 328 136.4167 C331.0429 133.564 331.8853 131.6526 333 127.4167 C334.0806 123.3105 334.4114 121.2274 333 117.4167 C330.0779 109.527 328.7738 106.9778 323 100.4167 C318.8465 95.6967 316.5412 94.1899 311 92.4167 C306.0525 90.8335 298 92.4167 298 92.4167 "/>
<path id="1" d="M287 138.4167 C287 138.4167 294.9341 148.8777 298 159.4167 C302.4917 174.857 302.9418 193.2059 303 193.4167 C303.0069 193.4415 306 188.4167 306 188.4167 "/>
<path id="2" d="M326 138.4167 C326 138.4167 327.2125 143.7223 326 146.4167 C323.5675 151.8223 317.3856 153.7893 317 158.4167 C315.9238 171.3309 322 194.4167 322 194.4167 "/>
<path id="3" d="M304 189.4167 L306 222.4167 "/>
<path id="4" d="M317 177.4167 C317 177.4167 326.6241 187.8225 331 198.4167 C335.422 209.1227 334.8865 210.983 336 223.4167 C337.8416 243.9814 337 265.4167 337 265.4167 "/>
<path id="5" d="M307 212.4167 C307 212.4167 304.8139 225.5725 305 238.4167 C305.3085 259.7042 304.142 262.448 308 281.4167 C309.5774 289.1722 312.0671 293.7992 317 297.4167 C323.0432 301.8484 329.0299 299.0598 338 303.4167 C345.2554 306.9407 347.0264 308.3127 352 314.4167 C356.9983 320.551 357.8751 322.6255 360 330.4167 C362.0186 337.8183 359.4154 339.3175 361 347.4167 C363.8167 361.813 366.5264 362.1934 369 376.4167 C370.3837 384.3727 369.006 393.3946 369 393.4167 C368.9982 393.4234 366 387.4167 366 387.4167 "/>
<path id="6" d="M337 255.4167 C337 255.4167 337.4496 259.1772 339 261.4167 C341.4871 265.0091 342.1055 265.9501 346 268.4167 C356.4233 275.0181 358.9112 273.4105 369 280.4167 C376.0926 285.3421 378.1977 286.5725 382 293.4167 C387.0558 302.5171 384.5658 305.4277 389 316.4167 C395.9465 333.6318 399.5449 333.3075 405 350.4167 C410.1498 366.5683 408.4045 368.1132 411 385.4167 C411.3615 387.8266 411.0007 390.417 411 390.4167 C410.9987 390.416 409 384.4167 409 384.4167 "/>
<path id="7" d="M375 324.4167 L388 393.4167 "/>
<path id="8" d="M383 355.4167 C383 355.4167 386.4924 366.9751 392 376.4167 C396.6159 384.3296 400.4674 384.3515 404 391.4167 C405.9345 395.2857 405.9892 399.7787 405 402.4167 C404.2901 404.3098 398 407.4167 398 407.4167 "/>
<path id="9" d="M386 393.4167 C386 393.4167 382.5026 389.9942 380 389.4167 C377.553 388.852 374.8877 389.0683 373 390.4167 C369.7141 392.7638 367.5208 396.1217 366 399.4167 C365.56 400.3699 366.1849 402.1941 367 403.4167 C367.6986 404.4646 368.7453 405.3702 370 405.4167 C379.7806 405.7789 391.2006 406.0963 394 404.4167 C395.0697 403.7749 396.2402 394.7574 395 390.4167 C394.1861 387.5681 391.0711 384.8498 388 383.4167 C385.6069 382.2999 382.7125 382.6769 380 383.4167 C378.7054 383.7697 377 386.4167 377 386.4167 "/>
<path id="10" d="M403 388.4167 C403 388.4167 397.5488 390.0839 397 391.4167 C395.5542 394.9278 395.3047 404.7677 396 405.4167 C396.922 406.2772 409.3664 406.1913 412 405.4167 C412.4067 405.2971 413 400.4167 413 400.4167 "/>
<path id="11" d="M410 386.4167 C410 386.4167 413.8507 385.59 416 386.4167 C419.1964 387.646 422.0099 389.2951 423 391.4167 C424.1977 393.9831 424.0792 400.5965 423 401.4167 C418.4787 404.8529 398 410.4167 398 410.4167 "/>
<path id="12" d="M301 174.4167 C301 174.4167 296.347 182.1992 296 189.4167 C293.9736 231.565 293.1069 242.2524 296 278.4167 C296.3784 283.1465 299.6882 286.5422 304 289.4167 C309.4366 293.0411 320 294.4167 320 294.4167 "/>
<path id="13" d="M302 143.4167 L300 183.4167 "/>
<path id="14" d="M238 114.4167 C238 114.4167 230.4183 115.5785 225 118.4167 C220.8124 120.6102 220.4 121.7075 217 125.4167 C215.1616 127.4222 214.2412 128.2461 214 130.4167 C213.4172 135.6622 212.9009 138.8687 215 143.4167 C217.8188 149.524 220.2133 151.2391 226 156.4167 C228.9607 159.0657 230.0848 159.7257 234 160.4167 C245.8515 162.5081 249.5089 163.5824 260 162.4167 C264.3412 161.9343 268.7786 159.0816 270 156.4167 C272.1302 151.7689 272.1022 145.8566 271 138.4167 C270.3986 134.3571 269.0854 133.0806 266 129.4167 C261.5009 124.074 260.8988 122.9559 255 119.4167 C246.7417 114.4617 236 111.4167 236 111.4167 "/>
<path id="15" d="M246 169.4167 C246 169.4167 243 160.4144 243 160.4167 C242.9997 160.4399 245 253.4167 245 253.4167 "/>
<path id="16" d="M254 162.4167 C254 162.4167 258.5677 181.0353 260 199.4167 C261.5291 219.0405 259.0718 219.6143 260 239.4167 C260.5602 251.3677 263.0499 263.3168 263 263.4167 C262.9889 263.4389 257.8978 256.0882 253 253.4167 C248.8513 251.1537 243.4166 250.3292 241 251.4167 C238.1806 252.6854 234.5473 257.3878 233 262.4167 C231.2758 268.0203 231.2415 271.3595 233 277.4167 C235.1821 284.9328 236.466 287.2678 242 293.4167 C248.9347 301.1219 250.6819 301.3017 260 307.4167 C266.3727 311.5988 267.159 313.0174 274 314.4167 C287.4805 317.1741 297.8062 318.3092 304 316.4167 C306.1017 315.7745 311.0835 305.8753 310 303.4167 C303.712 289.1477 293.7816 278.1819 278 257.4167 C276.0789 254.8889 274.9414 254.3971 272 253.4167 C268.2564 252.1688 263.9568 251.8078 263 252.4167 C262.1888 252.9329 261 260.4167 261 260.4167 "/>
<path id="17" d="M268 311.4167 C268 311.4167 266.3314 340.3706 267 356.4167 C267.0465 357.532 270 359.4167 270 359.4167 "/>
<path id="18" d="M276 314.4167 L276 355.4167 "/>
<path id="19" d="M276 356.4167 C276 356.4167 279.7634 360.3768 284 362.4167 C292.7037 366.6073 295.6221 364.5749 303 369.4167 C309.9381 373.9698 311.9954 377.5638 316 383.4167 C316.8746 384.6949 316.6443 387.3858 316 388.4167 C315.2107 389.6795 313.3659 391.0381 311 391.4167 C302.2961 392.8093 297.3075 394.3089 291 392.4167 C286.8377 391.168 284.6247 387.7329 281 382.4167 C277.679 377.5458 276 370.4167 276 370.4167 "/>
<path id="20" d="M273 358.4167 C273 358.4167 263.9724 359.0008 256 361.4167 C247.9332 363.8612 247.5583 364.4732 240 368.4167 C236.3045 370.3448 233.8673 371.3103 233 373.4167 C231.6796 376.6234 231.7108 383.9555 233 385.4167 C234.9591 387.637 240.8354 389.5738 248 390.4167 C256.6786 391.4377 259.2055 390.7722 267 389.4167 C268.8381 389.097 269.8623 388.2044 271 386.4167 C276.2034 378.2398 281 367.4167 281 367.4167 "/>
<path id="21" d="M255 390.4167 L256 396.4167 "/>
<path id="22" d="M261 388.4167 C261 388.4167 263.2048 396.2347 263 396.4167 C262.5593 396.8084 253.7321 395.484 252 396.4167 C251.0916 396.9058 249.7078 401.9556 250 403.4167 C250.1682 404.2579 252.1894 405.964 254 406.4167 C257.0494 407.179 259.2875 407.1564 262 406.4167 C263.2946 406.0636 264.5629 404.7281 265 403.4167 C265.6557 401.4496 265 397.4167 265 397.4167 "/>
<path id="23" d="M300 390.4167 L302 400.4167 "/>
<path id="24" d="M306 390.4167 C306 390.4167 309.2714 391.9596 310 393.4167 C311.0928 395.6023 311 400.4167 311 400.4167 "/>
<path id="25" d="M309 401.4167 C309 401.4167 300.5625 400.8542 300 401.4167 C299.4375 401.9792 299.5574 410.0948 300 410.4167 C300.6947 410.9219 309.9476 410.2777 311 409.4167 C311.5829 408.9398 311 401.4167 311 401.4167 "/>
</g>
</g>
</svg>
