<?xml version="1.0" encoding="utf-8"?>
<!DOCTYPE svg PUBLIC "-//W3C//DTD SVG 1.1//EN" "http://www.w3.org/Graphics/SVG/1.1/DTD/svg11.dtd">
<svg viewBox="0 0 800 800" preserveAspectRatio="xMinYMin meet" xmlns="http://www.w3.org/2000/svg" version="1.1">
<g fill="none" stroke="black" stroke-linecap="round" stroke-linejoin="round" stroke-width="1.3249">
<g transform="translate(87.52,206.3983) scale(2.2643) translate(-118,-32)">
<path id="0" d="M258 99 C258 99 259.8161 131.068 259 158 C258.9019 161.2385 257.9559 162.6095 256 165 C254.157 167.2526 252.7815 168.5514 250 169 C239.4682 170.6987 235.9732 171.6058 225 170 C217.4835 168.9 215.1896 167.4565 209 163 C204.0225 159.4162 202.4527 157.5186 200 152 C197.1658 145.623 197 136 197 136 "/>
<path id="1" d="M261 111 C261 111 261.5488 127.7194 258 136 C255.9556 140.7703 251.6089 143.9434 246 146 C239.4245 148.411 229.2214 148.1603 228 147 C226.4957 145.5709 226 127 226 127 "/>
<path id="2" d="M262 136 C262 136 260.6474 155.8253 263 167 C263.6387 170.0339 266.325 172.075 270 174 C275.5453 176.9047 277.1485 177.3771 284 178 C298.3101 179.3009 301.4595 178.76 314 178 C315.3047 177.9209 315.8555 177.2325 317 176 C322.0904 170.518 324.317 169.9851 327 164 C329.9861 157.3388 330 147 330 147 "/>
<path id="3" d="M262 147 C262 147 261.6073 149.6073 262 150 C263.1781 151.1781 265.3686 152.9226 268 153 C280.0765 153.3552 288.5693 153.3221 296 151 C297.6873 150.4727 299.1868 146.9034 300 143 C301.4922 135.8375 301 127 301 127 "/>
<path id="4" d="M197 138 C197 138 193.25 138.25 193 138 C192.75 137.75 193.2 134.4 193 134 C192.95 133.9 191.0096 134.0481 191 134 C190.7596 132.7981 189.9194 128.1062 191 124 C192.1147 119.7641 193.0901 118.439 196 115 C197.9964 112.6407 201.9811 110.9603 202 111 C202.4448 111.9341 205.3247 126.5451 206 136 C206.0763 137.0683 204.9214 138.665 204 139 C201.2088 140.015 195 140 195 140 "/>
<path id="5" d="M227 129 C227 129 224.2802 127.331 224 126 C222.7492 120.0589 221.72 113.8401 223 110 C223.6264 108.1208 227.7492 106.0002 231 105 C232.5992 104.508 235.9445 105.6949 236 106 C236.6049 109.327 236.6569 123.8243 235 127 C234.4042 128.142 224 129 224 129 "/>
<path id="6" d="M300 131 C300 131 296.41 128.05 296 126 C295.3072 122.5362 295.1844 118.5419 297 116 C300.5586 111.018 310.8539 104.9663 311 105 C311.0284 105.0066 311.4227 112.74 310 119 C309.1091 122.92 307.9546 124.8011 306 127 C305.2295 127.8669 302 128 302 128 "/>
<path id="7" d="M331 153 C331 153 331.0875 149.4954 330 148 C327.894 145.1042 324.1336 144.5911 323 142 C321.7491 139.1409 321.785 134.2781 323 132 C324.1259 129.8889 329.3827 127.2941 331 127 C331.4456 126.919 333.9565 128.9552 334 130 C334.2914 136.9933 332 151 332 151 "/>
<path id="8" d="M260 160 C260 160 261.5407 183.8251 258 189 C255.0361 193.3318 245.4747 196.331 234 198 C220.0111 200.0347 217.111 199.0159 203 197 C197.6922 196.2417 196.6263 195.3412 192 192 C179.2821 182.8149 176.6118 182.2595 167 171 C160.522 163.4115 159.1664 160.6503 157 151 C154.1539 138.3218 156 122 156 122 "/>
<path id="9" d="M262 170 C262 170 260.8433 178.9271 262 185 C262.5215 187.7376 263.5924 188.9134 266 191 C270.4662 194.8707 271.351 195.8816 277 198 C286.4842 201.5566 287.6454 202.0044 298 203 C312.9432 204.4368 316.125 205.6823 329 203 C336.9258 201.3488 338.6245 198.7365 346 193 C351.5234 188.7041 352.356 187.7263 356 182 C358.8427 177.5329 357.4285 175.5716 360 171 C361.5162 168.3045 364.5308 168.1897 365 166 C366.7941 157.6277 366.6677 153.6831 366 143 C365.7326 138.7209 363.9806 135.7651 363 134 C362.8979 133.8161 361 134 361 134 "/>
<path id="10" d="M156 127 C156 127 149.0866 126.3039 148 125 C146.5373 123.2448 145.1403 118.4388 146 115 C147.4479 109.2084 150.0533 105.2098 154 101 C155.5718 99.3234 159.8289 98.512 161 99 C162.5035 99.6265 165.3397 102.8308 166 106 C167.3958 112.6997 167.4605 120.9136 166 123 C164.9003 124.571 152 126 152 126 "/>
<path id="11" d="M362 137 C362 137 359.8946 114.6338 360 112 C360.0005 111.9873 362.2666 111.4866 363 112 C365.9093 114.0365 369.25 116.0001 370 119 C371.8 126.1998 370.6088 135.5353 370 140 C369.9591 140.2996 367 141 367 141 "/>
<path id="12" d="M262 117 C262 117 261.5069 81.2743 260 65 C259.9342 64.2897 257.4697 64.0333 257 63 C255.6164 59.9561 256.0198 54.6556 255 54 C253.4282 52.9896 245.5859 55.369 243 54 C240.8958 52.886 239.1763 49.2346 238 45 C236.981 41.3315 236.9483 37.709 238 36 C239.0427 34.3056 242.2317 32.5383 246 32 C254.7927 30.7439 259.6784 30.1269 266 32 C268.9618 32.8776 271.4403 36.435 273 40 C274.1279 42.5781 273.75 47.5 273 48 C269.4846 50.3436 252 54 252 54 "/>
<path id="13" d="M118 84 L133 96 "/>
<path id="14" d="M144 78 L148 87 "/>
<path id="15" d="M171 77 C171 77 171.7879 82.5351 171 87 C170.4067 90.3618 168 94 168 94 "/>
<path id="16" d="M331 85 L342 99 "/>
<path id="17" d="M361 83 C361 83 361.4575 93.3725 362 95 C362.044 95.132 365 95 365 95 "/>
<path id="18" d="M394 90 C394 90 393.6657 94.1261 392 96 C386.7651 101.8893 378 108 378 108 "/>
</g>
</g>
</svg>
