<?xml version="1.0" encoding="utf-8"?>
<!DOCTYPE svg PUBLIC "-//W3C//DTD SVG 1.1//EN" "http://www.w3.org/Graphics/SVG/1.1/DTD/svg11.dtd">
<svg viewBox="0 0 800 800" preserveAspectRatio="xMinYMin meet" xmlns="http://www.w3.org/2000/svg" version="1.1">
<g fill="none" stroke="black" stroke-linecap="round" stroke-linejoin="round" stroke-width="0.88806">
<g transform="translate(87.52,134.8143) scale(3.3782) translate(-189,-61.4167)">
<path id="0" d="M272 73.4167 L272 135.4167 "/>
<path id="1" d="M282 73.4167 L283 140.4167 "/>
<path id="2" d="M266 61.4167 C266 61.4167 265.132 65.2466 266 67.4167 C267.6493 71.5398 269.4674 74.8971 272 76.4167 C273.9994 77.6163 277.1178 77.1931 281 76.4167 C283.8469 75.8473 285.8231 75.182 287 73.4167 C289.4659 69.7179 291 61.4167 291 61.4167 "/>
<path id="3" d="M271 135.4167 C271 135.4167 270.1393 152.8532 265 164.4167 C261.3935 172.5314 258.037 176.0186 251 180.4167 C244.9893 184.1734 241.8941 183.4551 233 184.4167 C223.832 185.4078 222.5249 185.6345 214 184.4167 C209.7055 183.8032 207.5848 182.786 205 180.4167 C203.0784 178.6552 202 173.4167 202 173.4167 "/>
<path id="4" d="M202 187.4167 C202 187.4167 208.8871 193.2602 215 194.4167 C225.2419 196.3543 229.4756 197.4781 239 194.4167 C253.9952 189.5968 260.7267 184.2727 271 176.4167 C272.8223 175.0232 272.9998 168.4152 273 168.4167 C273.0008 168.422 271.7739 185.3323 274 197.4167 C274.7708 201.601 277.5814 204.4378 280 206.4167 C280.9049 207.1571 285 206.4167 285 206.4167 "/>
<path id="5" d="M280 169.4167 L282 186.4167 "/>
<path id="6" d="M285 139.4167 C285 139.4167 294.37 159.798 304 172.4167 C306.5609 175.7723 309.1946 176.6374 314 177.4167 C326.0735 179.3745 331.0893 180.952 341 178.4167 C348.0668 176.6089 357 166.4167 357 166.4167 "/>
<path id="7" d="M282 166.4167 C282 166.4167 293.4271 177.8116 305 185.4167 C309.7708 188.5518 311.0972 188.6968 317 189.4167 C330.7656 191.0954 333.8071 192.5372 346 190.4167 C353.8528 189.051 363 181.4167 363 181.4167 "/>
<path id="8" d="M292 152.4167 C292 152.4167 291.9412 154.402 292 154.4167 C292.9412 154.652 297.4298 155.6341 300 154.4167 C304.9037 152.0939 311 145.4167 311 145.4167 "/>
<path id="9" d="M301 160.4167 L317 147.4167 "/>
<path id="10" d="M269 151.4167 C269 151.4167 265.9167 155.1667 263 156.4167 C259.981 157.7105 257.0668 158.3209 255 157.4167 C251.8572 156.0417 247 149.4167 247 149.4167 "/>
<path id="11" d="M259 160.4167 C259 160.4167 253.1415 161.5588 251 160.4167 C247.9841 158.8082 244 152.4167 244 152.4167 "/>
<path id="12" d="M263 163.4167 C263 163.4167 258.3394 164.1185 256 163.4167 C254.6966 163.0257 253 160.4167 253 160.4167 "/>
<path id="13" d="M247 150.4167 L246 150.4167 "/>
<path id="14" d="M202 187.4167 C202 187.4167 197.3939 183.3067 195 179.4167 C193.9078 177.6418 193.8165 174.5543 194 174.4167 C194.6507 173.9286 203 173.4167 203 173.4167 "/>
<path id="15" d="M291 200.4167 C291 200.4167 285.63 201.3058 284 200.4167 C282.3065 199.4929 280.7381 197.1847 280 194.4167 C279.0599 190.8914 278.9081 189.0564 280 185.4167 C281.553 180.2402 285.9945 174.4139 286 174.4167 C286.1594 174.4964 290.4801 183.513 292 191.4167 C292.7374 195.2513 291 200.4167 291 200.4167 "/>
<path id="16" d="M368 166.4167 C368 166.4167 369.9055 173.1528 369 175.4167 C368.0734 177.7332 362 181.4167 362 181.4167 "/>
<path id="17" d="M366 167.4167 C366 167.4167 361.0399 168.4366 359 167.4167 C355.9401 165.8867 353.53 163.4766 352 160.4167 C350.98 158.3767 351.0345 155.9915 352 153.4167 C353.5518 149.2786 356.0912 148.9502 358 144.4167 C359.7955 140.1523 359.9707 134.4057 360 134.4167 C360.3354 134.5424 370.3507 143.3787 374 150.4167 C375.7259 153.7451 374.8138 160.3316 374 161.4167 C373.4266 162.1812 365 162.4167 365 162.4167 "/>
<path id="18" d="M323 144.4167 C323 144.4167 315.2665 145.5055 312 144.4167 C310.3172 143.8557 307.8671 140.4138 308 139.4167 C308.3215 137.0058 312.0908 134.326 314 129.4167 C315.2986 126.0774 314.9963 121.4163 315 121.4167 C315.1826 121.4349 321.4148 125.9513 324 130.4167 C326.0299 133.9228 326.2326 139.1371 326 140.4167 C325.9583 140.646 322 141.4167 322 141.4167 "/>
<path id="19" d="M249 145.4167 C249 145.4167 241.789 147.9745 239 147.4167 C237.2569 147.0681 235.0928 144.6023 234 142.4167 C233.2714 140.9596 233.36 138.6967 234 137.4167 C234.64 136.1367 237.6988 135.6214 238 134.4167 C238.9788 130.5014 237.7534 121.6941 238 121.4167 C238.059 121.3503 243.0571 122.9265 246 125.4167 C248.8236 127.8059 249.9976 129.209 251 132.4167 C252.0536 135.7882 251.9401 137.8914 251 141.4167 C250.2619 144.1847 247 147.4167 247 147.4167 "/>
<path id="20" d="M194 172.4167 C194 172.4167 198.7242 173.1726 202 172.4167 C204.3309 171.8788 206.2107 170.6795 207 169.4167 C207.6443 168.3858 207.8612 165.9825 207 164.4167 C203.3744 157.8247 199.3447 156.106 196 149.4167 C194.8579 147.1325 196 142.4167 196 142.4167 C196 142.4167 197.5033 150.6921 196 155.4167 C194.7017 159.497 190.8813 160.3852 189 164.4167 C188.0798 166.3886 188.1138 169.0874 189 170.4167 C190.6738 172.9274 197 176.4167 197 176.4167 "/>
<path id="21" d="M233 196.4167 C233 196.4167 232.1822 203.69 234 206.4167 C237.3516 211.444 240.9764 215.3514 247 217.4167 C255.0246 220.168 260.8553 219.9931 269 218.4167 C272.8675 217.6681 274.7037 215.0126 278 211.4167 C279.477 209.8054 280 206.4167 280 206.4167 "/>
<path id="22" d="M287 205.4167 C287 205.4167 290.3932 210.6346 293 211.4167 C297.6788 212.8203 301.552 212.7138 307 211.4167 C310.1873 210.6578 312.2515 209.2411 314 206.4167 C317.6932 200.4507 320 190.4167 320 190.4167 "/>
<path id="23" d="M313 156.4167 C313 156.4167 311.0245 157.1473 311 157.4167 C310.7947 159.6755 310.528 164.2624 312 167.4167 C313.0969 169.7673 315.0061 171.2524 318 172.4167 C322.8154 174.2893 330 174.4167 330 174.4167 "/>
<path id="24" d="M253 160.4167 C253 160.4167 250.3738 168.9711 246 175.4167 C241.3178 182.3168 238.8745 184.6891 234 188.4167 C232.8892 189.2661 229 188.4167 229 188.4167 "/>
</g>
</g>
</svg>
