<?xml version="1.0" encoding="utf-8"?>
<!DOCTYPE svg PUBLIC "-//W3C//DTD SVG 1.1//EN" "http://www.w3.org/Graphics/SVG/1.1/DTD/svg11.dtd">
<svg viewBox="0 0 800 800" preserveAspectRatio="xMinYMin meet" xmlns="http://www.w3.org/2000/svg" version="1.1">
<g fill="none" stroke="black" stroke-linecap="round" stroke-linejoin="round" stroke-width="1.1953">
<g transform="translate(157.7966,87.52) scale(2.5099) translate(-184,-93)">
<path id="0" d="M267 105 C267 105 267.4174 113.7718 270 117 C273.2999 121.1249 277.075 122.3667 283 125 C284.7894 125.7953 286.3991 125.8004 288 125 C292.0022 122.9989 295.1191 121.4198 297 118 C299.2193 113.9649 299 105 299 105 "/>
<path id="1" d="M299 105 C299 105 299.1636 98.3273 299 98 C298.9883 97.9766 296 99 296 99 "/>
<path id="2" d="M266 99 L299 99 "/>
<path id="3" d="M268 99 L269 106 "/>
<path id="4" d="M285 128 L287 171 "/>
<path id="5" d="M281 126 C281 126 282.0003 176.9869 282 177 C282 177.0015 280 171.0009 280 171 C280 170.9995 282 174 282 174 "/>
<path id="6" d="M286 171 L284 178 "/>
<path id="7" d="M282 177 C282 177 278.748 177.9528 278 179 C277.12 180.232 277.2063 181.5246 277 184 C276.7159 187.4087 276.181 188.7479 277 191 C277.6381 192.7549 279.2451 194.3619 281 195 C283.2521 195.819 285.8273 195.9053 288 195 C290.1986 194.0839 292.0839 192.1986 293 190 C293.9053 187.8273 293.9898 184.4297 293 183 C291.2706 180.5019 284 177 284 177 "/>
<path id="8" d="M282 197 L285 213 "/>
<path id="9" d="M289 196 C289 196 287 198.8499 287 201 C287 206.1604 289 213 289 213 "/>
<path id="10" d="M287 213 C287 213 283.28 212.36 282 213 C280.72 213.64 279.2697 215.382 279 217 C278.5306 219.8165 279.3075 224.5384 280 225 C281.2027 225.8018 286.7163 225.8567 291 225 C292.7913 224.6417 294.3485 223.4334 295 222 C296.1433 219.4848 296.4375 214.5625 296 214 C295.5625 213.4375 288 213 288 213 "/>
<path id="11" d="M284 227 C284 227 284.3545 236.8732 283 245 C282.5154 247.9077 282.0053 249.1284 280 251 C275.4609 255.2365 273.7899 256.7344 268 259 C263.6409 260.7057 260.7695 261.3821 257 260 C248.7048 256.9584 245.5691 255.1906 238 248 C226.6215 237.1904 217 222 217 222 "/>
<path id="12" d="M290 226 C290 226 292.8735 234.4362 297 238 C302.0015 242.3194 312 245 312 245 "/>
<path id="13" d="M303 243 C303 243 307.2977 250.237 311 252 C315.0611 253.9338 319.8132 254.5507 324 253 C329.9917 250.7809 332.5723 248.1357 338 242 C343.3295 235.9753 345.3422 234.1285 347 227 C349.7382 215.2258 348 199 348 199 "/>
<path id="14" d="M287 128 C287 128 285.5664 130.5717 286 132 C292.7408 154.2048 296.0445 158.1446 304 184 C305.8825 190.1182 304.0331 191.0993 306 197 C308.8304 205.4912 308.8815 206.6635 314 214 C323.3724 227.4338 324.9936 231.2513 336 240 C341.4106 244.3007 348.1344 245.3892 353 245 C355.509 244.7993 358.2129 241.9019 361 238 C365.1649 232.1691 366.4918 230.7867 368 224 C370.1545 214.3047 369 202 369 202 "/>
<path id="15" d="M281 125 C281 125 272.583 149.3058 267 174 C259.6459 206.5277 262.4524 209.0137 255 240 C253.4115 246.6049 251.9296 248.5464 248 253 C245.7338 255.5683 243.8881 256.2523 240 257 C231.934 258.5512 228.1745 259.9295 222 258 C215.9128 256.0977 213.7447 253.0183 208 247 C203.8308 242.6322 201 236 201 236 "/>
<path id="16" d="M201 236 L208 231 "/>
<path id="17" d="M206 232 L196 240 "/>
<path id="18" d="M196 240 C196 240 196.4764 242.7382 197 243 C198.5708 243.7854 203.5262 244.4738 204 244 C205.1055 242.8945 207 233 207 233 "/>
<path id="19" d="M215 226 L222 219 "/>
<path id="20" d="M222 219 C222 219 222.7222 225.1945 222 227 C221.675 227.8125 218.7883 229.1126 218 229 C217.2724 228.8961 215 226 215 226 "/>
<path id="21" d="M349 203 C349 203 349.075 201.025 349 201 C348.325 200.775 343 201 343 201 "/>
<path id="22" d="M343 202 L354 202 "/>
<path id="23" d="M354 203 C354 203 347.6012 207.0668 347 207 C346.7656 206.974 345 202 345 202 "/>
<path id="24" d="M367 204 C367 204 365.9849 202.0043 366 202 C366.2825 201.9193 374 202 374 202 "/>
<path id="25" d="M373 203 C373 203 364.0194 203.9677 364 204 C363.9988 204.002 367.231 207.077 370 208 C372.2656 208.7552 375.8854 208.1146 376 208 C376.0382 207.9618 374 204 374 204 "/>
<path id="26" d="M198 237 C198 237 194.5968 237.5988 193 237 C191.6826 236.506 190.6122 235.5743 190 234 C187.5674 227.7447 186 219 186 219 "/>
<path id="27" d="M184 220 C184 220 187.141 219.2564 189 220 C193.6103 221.8441 195.7405 222.5232 199 226 C202.1138 229.3214 204 236 204 236 "/>
<path id="28" d="M217 225 C217 225 211.5488 223.3328 211 222 C209.5542 218.4889 210 208 210 208 "/>
<path id="29" d="M210 208 C210 208 218.2669 213.4054 222 218 C223.2877 219.5849 223 224 223 224 "/>
<path id="30" d="M346 201 C346 201 343.2302 193.6172 344 191 C344.7409 188.4809 351 184 351 184 "/>
<path id="31" d="M353 184 C353 184 354.0195 196.1115 353 199 C352.7201 199.7929 347 201 347 201 "/>
<path id="32" d="M369 203 C369 203 367.0421 194.7961 368 193 C368.9916 191.1407 377 188 377 188 "/>
<path id="33" d="M377 188 C377 188 376.7106 196.7926 375 200 C374.1883 201.5219 369 203 369 203 "/>
<path id="34" d="M257 97 C257 97 262.2896 101.3271 267 102 C277.9909 103.5701 279.831 103.2589 292 102 C308.3652 100.3071 324.9993 96 325 96 C325.0003 96 316.2627 100.4507 308 102 C301.1619 103.2821 293 102 293 102 "/>
<path id="35" d="M247 100 L295 93 "/>
<path id="36" d="M276 126 L278 134 "/>
<path id="37" d="M285 244 C285 244 283.5192 258.1344 285 263 C285.4778 264.5699 288.7171 266.2275 292 267 C296.134 267.9727 299.1011 268.1596 302 267 C304.1452 266.1419 305.9625 263.6975 307 261 C307.9166 258.6168 308.016 256.667 307 254 C304.5257 247.5049 299 240 299 240 "/>
<path id="38" d="M285 265 C285 265 279.3279 273.4343 277 281 C275.7391 285.0981 277 291 277 291 "/>
<path id="39" d="M307 263 C307 263 312.6367 264.0525 314 266 C317.7792 271.3988 321 283 321 283 "/>
<path id="40" d="M278 290 C278 290 292.1638 285.8448 306 284 C314.1672 282.911 323 284 323 284 "/>
<path id="41" d="M288 289 C288 289 286.5793 297.3172 288 303 C289.167 307.668 291.2815 311.576 294 313 C297.7552 314.967 307.058 315.2265 309 314 C310.6503 312.9577 312.0579 307.3595 313 301 C313.9704 294.4499 313.8728 291.9459 313 287 C312.78 285.7531 310 284 310 284 "/>
<path id="42" d="M295 315 L293 333 "/>
<path id="43" d="M289 335 C289 335 289.4764 337.7382 290 338 C291.5708 338.7854 295.954 339.4649 297 339 C297.6737 338.7006 299 335.7313 299 334 C299 332.6149 297.8458 330.5639 297 330 C296.275 329.5167 293.0572 329.8665 293 330 C292.7808 330.5116 294 337 294 337 "/>
<path id="44" d="M303 318 C303 318 304.5643 325.433 307 330 C307.8847 331.6588 311 333 311 333 "/>
<path id="45" d="M311 338 C311 338 314.4791 338.676 316 338 C317.7575 337.2189 319.0137 335.7261 320 334 C320.4708 333.1762 320.2105 331.1203 320 331 C319.0705 330.4688 314.6309 329.3205 313 330 C311.142 330.7742 308.2718 334.3692 308 336 C307.7812 337.3126 311 342 311 342 "/>
<path id="46" d="M312 314 C312 314 317.3319 312.9328 320 314 C323.135 315.254 323.8067 316.8067 327 320 C329.2108 322.2108 331 324.4134 331 325 C331 325.3519 327.1682 327.1588 327 328 C326.7078 329.4611 328.086 334.086 329 335 C329.5078 335.5078 332.7393 335.7004 334 335 C335.7089 334.0506 337.8833 331.0502 338 330 C338.0786 329.2927 336.2751 326.7286 335 326 C334.0351 325.4486 331 326 331 326 "/>
</g>
</g>
</svg>
