<?xml version="1.0" encoding="utf-8"?>
<!DOCTYPE svg PUBLIC "-//W3C//DTD SVG 1.1//EN" "http://www.w3.org/Graphics/SVG/1.1/DTD/svg11.dtd">
<svg viewBox="0 0 800 800" preserveAspectRatio="xMinYMin meet" xmlns="http://www.w3.org/2000/svg" version="1.1">
<g fill="none" stroke="black" stroke-linecap="round" stroke-linejoin="round" stroke-width="1.1569">
<g transform="translate(87.52,122.5281) scale(2.5932) translate(-124,-90.9167)">
<path id="0" d="M227 94.9167 C227 94.9167 229.4851 138.6205 225 176.9167 C223.348 191.0218 214 205.9167 214 205.9167 "/>
<path id="1" d="M254 95.9167 C254 95.9167 254.0482 115.3867 253 126.9167 C252.9264 127.7258 251 128.2066 251 128.9167 C251 152.3504 250.5761 163.4065 253 194.9167 C253.451 200.779 255.5341 204.7178 257 206.9167 C257.2665 207.3165 261 206.9167 261 206.9167 "/>
<path id="2" d="M214 208.9167 C214 208.9167 211.3168 212.3901 209 212.9167 C202.2456 214.4518 198.8311 215.524 192 213.9167 C184.2101 212.0838 181.6293 210.6253 175 204.9167 C164.8365 196.1648 163.7956 194.3102 156 182.9167 C151.3695 176.1491 150.9844 173.2007 149 166.9167 C148.7075 165.9904 150 163.9167 150 163.9167 "/>
<path id="3" d="M213 206.9167 C213 206.9167 214.7942 215.3722 214 222.9167 C212.8745 233.6088 212.6394 235.2115 209 244.9167 C207.0755 250.0487 206.0139 251.815 202 254.9167 C196.4375 259.215 194.138 260.7811 187 261.9167 C174.1536 263.9604 171.7412 263.2254 158 261.9167 C151.6596 261.3128 148.7505 259.7919 145 257.9167 C144.3749 257.6041 144 254.9167 144 254.9167 "/>
<path id="4" d="M232 209.9167 C232 209.9167 236.0662 219.5784 237 228.9167 C238.4845 243.7621 236.1177 244.623 237 259.9167 C237.6026 270.3623 238.0283 271.0581 240 280.9167 C240.4016 282.9249 240.7841 283.4576 242 284.9167 C242.9656 286.0753 244.7123 286.9167 245 286.9167 C245.0959 286.9167 246 284.9167 246 284.9167 "/>
<path id="5" d="M259 209.9167 C259 209.9167 264.1419 212.6364 269 212.9167 C289.0569 214.0738 291.3864 214.0935 311 212.9167 C314.82 212.6875 315.5741 212.0804 319 209.9167 C333.979 200.4563 338.8103 199.3975 349 188.9167 C353.0341 184.7673 354 173.9167 354 173.9167 "/>
<path id="6" d="M268 228.9167 C268 228.9167 269.2368 237.785 273 242.9167 C279.0638 251.1854 281.0007 253.5599 290 258.9167 C300.2999 265.0476 302.6628 264.7533 315 267.9167 C321.4408 269.5682 329 268.9167 329 268.9167 "/>
<path id="7" d="M354 177.9167 C354 177.9167 347.7676 177.7618 345 175.9167 C341.9645 173.893 339.3336 168.6674 339 167.9167 C338.9965 167.9089 340.9842 167.1859 341 166.9167 C341.2259 163.0769 338.9553 155.0953 340 150.9167 C340.3648 149.4575 343.0261 147.7664 346 146.9167 C352.4831 145.0644 358.1324 144.0111 361 144.9167 C362.3025 145.328 364.6093 149.2704 365 152.9167 C365.922 161.5224 365.3674 164.7121 364 172.9167 C363.6949 174.7474 362.0562 176.5998 361 176.9167 C359.3151 177.4221 354 175.9167 354 175.9167 "/>
<path id="8" d="M328 270.9167 C328 270.9167 329.9413 264.4938 329 260.9167 C327.9772 257.0302 324.5272 256.2801 323 251.9167 C321.4384 247.4549 321.0518 242.497 322 240.9167 C322.9117 239.3971 327.6536 237.3513 332 236.9167 C336.0956 236.5071 340.0753 237.1202 342 238.9167 C344.6276 241.3691 346.1265 245.1515 347 250.9167 C348.4379 260.4067 348.3644 269.7726 347 271.9167 C346.3562 272.9284 337.9529 274.3035 333 272.9167 C328.2203 271.5784 322 264.9167 322 264.9167 "/>
<path id="9" d="M246 288.9167 C246 288.9167 248.1475 279.9729 251 276.9167 C252.9511 274.8262 259.4633 273.4432 260 273.9167 C262.0174 275.6968 265.1523 283.0573 268 291.9167 C269.4288 296.3618 269.718 301.1389 269 301.9167 C267.8135 303.202 259.5762 305.4813 256 304.9167 C254.0166 304.6035 251.3226 301.8926 250 298.9167 C248.033 294.4909 247.5222 291.6944 248 286.9167 C248.3401 283.5156 252 278.9167 252 278.9167 "/>
<path id="10" d="M150 260.9167 C150 260.9167 135.3594 258.6223 128 258.9167 C126.9525 258.9586 125 260.9196 125 261.9167 C125 271.5549 125.76 281.9567 128 290.9167 C128.32 292.1967 130.7137 293.6185 133 293.9167 C140.6333 294.9123 145.3327 295.3951 151 293.9167 C153.0671 293.3774 155.346 290.3691 156 287.9167 C156.7788 284.996 154.8715 279.0452 155 278.9167 C155.0643 278.8524 161.7783 282.0117 162 281.9167 C162.0998 281.8739 162.7537 277.8009 162 275.9167 C161.2966 274.1581 159.0767 274.07 158 271.9167 C155.4878 266.8923 155.1684 265.7588 154 259.9167 C153.2697 256.2654 154 251.9167 154 251.9167 "/>
<path id="11" d="M152 170.9167 C152 170.9167 150.3894 166.6424 148 164.9167 C142.5362 160.9706 140.5486 160.3293 134 157.9167 C132.025 157.1891 130.2607 157.2163 129 157.9167 C127.2911 158.8661 125.3611 160.6777 125 162.9167 C123.3264 173.2928 122.4968 186.6619 124 188.9167 C124.8109 190.133 137.3304 191.5965 143 189.9167 C146.2333 188.9586 149.7704 184.913 151 180.9167 C152.8238 174.9893 149.6345 171.2901 151 163.9167 C151.8776 159.1777 156 153.9167 156 153.9167 "/>
<path id="12" d="M227 95.9167 C227 95.9167 237.8365 100.3758 248 102.9167 C251.1272 103.6985 253.6059 103.8038 255 102.9167 C256.6838 101.8452 259.1728 96.1471 259 95.9167 C258.3627 95.0669 252.2908 92.0816 246 90.9167 C239.6757 89.7455 236.245 89.9179 232 90.9167 C230.805 91.1979 229.2505 93.2883 229 94.9167 C228.5033 98.1453 230 103.9167 230 103.9167 "/>
</g>
</g>
</svg>
