<?xml version="1.0" encoding="utf-8"?>
<!DOCTYPE svg PUBLIC "-//W3C//DTD SVG 1.1//EN" "http://www.w3.org/Graphics/SVG/1.1/DTD/svg11.dtd">
<svg viewBox="0 0 800 800" preserveAspectRatio="xMinYMin meet" xmlns="http://www.w3.org/2000/svg" version="1.1">
<g fill="none" stroke="black" stroke-linecap="round" stroke-linejoin="round" stroke-width="1.3873">
<g transform="translate(87.52,204.2945) scale(2.1625) translate(-252,-76.1333)">
<path id="0" d="M380 84.1333 C380 84.1333 370.8081 81.6838 362 81.1333 C355.2502 80.7115 354.8097 81.0857 348 82.1333 C342.0045 83.0557 341.2899 82.8662 336 85.1333 C331.3927 87.1079 330.01 87.8725 327 91.1333 C324.9448 93.3598 325.5361 96.3778 324 98.1333 C323.2818 98.9541 320.8945 98.2388 320 99.1333 C318.032 101.1013 318.4188 103.4947 316 106.1333 C313.4111 108.9575 311.15 108.5056 309 111.1333 C307.4695 113.0039 308.5616 115.4297 307 117.1333 C304.1592 120.2324 300.7336 119.6708 298 123.1333 C294.3003 127.8196 295.5525 130.8046 292 136.1333 C290.1193 138.9544 287.7241 138.4514 286 141.1333 C283.8727 144.4425 283.4035 145.8967 283 150.1333 C282.4827 155.5649 283.7086 162.1083 284 162.1333 C302.2054 163.6979 360.4329 163.0488 411 161.1333 C413.0505 161.0557 413.6141 157.6552 416 157.1333 C427.2314 154.6765 430.1362 156.9634 443 154.1333 C454.5151 151.6 458.2057 150.3303 466 146.1333 C467.7784 145.1757 467.4939 141.3047 469 140.1333 C470.3315 139.0977 472.6477 140.3095 475 139.1333 C479.8856 136.6905 481.3004 136.2224 485 132.1333 C490.1048 126.4912 491.8389 124.6166 494 118.1333 C495.6526 113.1755 495.2212 109.5297 494 105.1333 C493.3998 102.9727 491.7604 101.4717 489 100.1333 C476.6063 94.1243 474.494 92.4319 461 89.1333 C453.5251 87.3061 450.978 90.5289 444 89.1333 C440.3058 88.3945 439.8615 84.9524 436 84.1333 C425.1646 81.8349 416.9195 83.2717 411 82.1333 C410.6323 82.0626 410.7202 79.6735 410 79.1333 C407.9501 77.5959 406.3077 76.3814 403 76.1333 C387.8921 75.0002 382.4404 72.8988 370 76.1333 C362.3171 78.1309 353 89.1333 353 89.1333 "/>
<path id="1" d="M289 186.1333 C289 186.1333 289.2231 188.5784 290 189.1333 C294.4497 192.3117 298.5662 191.9212 303 196.1333 C307.1517 200.0775 306.4796 204.6129 310 208.1333 C311.6676 209.8009 313.4876 209.702 317 210.1333 C341.5359 213.1465 342.0631 213.7165 367 215.1333 C385.845 216.2041 387.4513 217.891 405 215.1333 C420.5761 212.6857 421.909 210.3906 437 204.1333 C441.7417 202.1672 442.2972 201.6183 446 198.1333 C450.4018 193.9905 449.428 191.2305 454 188.1333 C463.4236 181.7496 467.5985 183.2929 477 177.1333 C480.4987 174.8411 479.9189 171.5034 483 169.1333 C485.1646 167.4683 487.3724 168.8851 490 167.1333 C496.9369 162.5087 501.2218 160.2929 504 155.1333 C505.9907 151.4363 504 141.1333 504 141.1333 "/>
<path id="2" d="M290 187.1333 C290 187.1333 282.5512 192.9996 282 197.1333 C280.2701 210.1074 280.9411 223.1753 284 232.1333 C284.8656 234.6683 289.9946 236.5891 296 238.1333 C306.5412 240.8439 308.618 238.9086 319 241.1333 C321.4779 241.6643 322.4656 242.2921 324 244.1333 C326.8189 247.5161 327.4841 252.7002 329 253.1333 C332.0318 253.9996 340.1035 250.1333 345 250.1333 C345.9181 250.1333 346.5646 252.7869 348 253.1333 C358.3933 255.6421 361.085 256.5033 374 257.1333 C401.6097 258.4801 402.2591 258.3801 430 257.1333 C446.4364 256.3946 447.3513 256.2631 463 253.1333 C469.0187 251.9296 471.2306 251.777 475 248.1333 C484.2256 239.2152 485.8721 235.388 493 224.1333 C494.3356 222.0244 492.7804 220.4506 494 218.1333 C497.3147 211.8355 501.8369 211.2395 503 205.1333 C506.9974 184.1471 506 155.1333 506 155.1333 "/>
<path id="3" d="M319 174.1333 C319 174.1333 316.3406 173.7441 316 174.1333 C314.508 175.8385 313.492 180.4281 312 182.1333 C311.6594 182.5226 309.0763 181.9617 309 182.1333 C308.4597 183.3489 307.6059 190.6266 308 191.1333 C308.2983 191.5168 315.1233 190.8046 316 191.1333 C316.1233 191.1796 315.5521 193.6108 316 194.1333 C317.3649 195.7258 319.4164 197.9239 322 198.1333 C334.6309 199.1575 353 197.1333 353 197.1333 "/>
<path id="4" d="M358 172.1333 C358 172.1333 356.1636 182.706 358 189.1333 C359.4352 194.1564 363.2074 199.495 366 200.1333 C372.9891 201.7308 387.4111 199.2532 393 197.1333 C394 196.754 395 189.1333 395 189.1333 "/>
<path id="5" d="M393 175.1333 C393 175.1333 388.586 174.2344 386 172.1333 C381.3075 168.3207 377 162.1333 377 162.1333 "/>
<path id="6" d="M471 153.1333 C471 153.1333 470.904 159.8972 469 165.1333 C467.1776 170.145 465.2937 172.8396 463 175.1333 C462.4266 175.7068 459.4686 174.6126 459 175.1333 C457.1124 177.2307 456.8513 183.4619 454 185.1333 C446.6229 189.4578 441.5616 190.4817 430 192.1333 C421.7417 193.3131 415.8262 192.4725 412 191.1333 C411.1451 190.8341 410 185.1333 410 185.1333 "/>
<path id="7" d="M486 132.1333 C486 132.1333 489.3057 134.8769 490 137.1333 C490.8914 140.0305 489.0236 142.5947 490 145.1333 C490.845 147.3303 494.2721 147.8283 495 150.1333 C496.5839 155.1491 497.1449 162.5481 496 164.1333 C494.7833 165.818 482 168.1333 482 168.1333 "/>
<path id="8" d="M494 127.1333 C494 127.1333 493.0574 115.3487 495 108.1333 C495.8685 104.9073 497.8193 102.8827 501 101.1333 C506.2312 98.2561 511.8027 96.4067 515 97.1333 C517.4535 97.6909 519.6224 103.962 523 106.1333 C524.4701 107.0784 527.9857 105.4994 529 106.1333 C529.8664 106.6748 530.9981 111.1305 531 111.1333 C531.0006 111.1342 530.8644 109.2011 531 109.1333 C531.8813 108.6927 536.6297 107.726 537 108.1333 C538.3 109.5633 539.9827 114.284 541 120.1333 C541.8814 125.2014 541.6465 126.2849 541 131.1333 C540.7493 133.014 539.6269 135.0673 539 135.1333 C529.6784 136.1146 518.5945 132.9055 503 135.1333 C496.9355 135.9997 490 142.1333 490 142.1333 "/>
<path id="9" d="M292 169.1333 C292 169.1333 276.5179 167.1473 266 168.1333 C263.4118 168.376 262.7706 171.3417 260 172.1333 C256.8969 173.0199 252.1558 171.7994 252 172.1333 C251.3934 173.4333 252.4139 186.6728 253 187.1333 C253.4519 187.4884 265.5437 182.9812 266 183.1333 C266.0652 183.1551 264.7596 190.4922 265 191.1333 C265.0473 191.2595 268.0509 190.5402 269 191.1333 C270.6906 192.1899 270.8708 194.6429 273 196.1333 C275.1008 197.6039 278.0229 198.1333 279 198.1333 C279.1629 198.1333 279.6604 196.1899 280 196.1333 C282.802 195.6663 289.0052 197.6032 291 196.1333 C294.3215 193.6859 299 182.1333 299 182.1333 "/>
</g>
</g>
</svg>
