<?xml version="1.0" encoding="utf-8"?>
<!DOCTYPE svg PUBLIC "-//W3C//DTD SVG 1.1//EN" "http://www.w3.org/Graphics/SVG/1.1/DTD/svg11.dtd">
<svg viewBox="0 0 800 800" preserveAspectRatio="xMinYMin meet" xmlns="http://www.w3.org/2000/svg" version="1.1">
<g fill="none" stroke="black" stroke-linecap="round" stroke-linejoin="round" stroke-width="3.029">
<g transform="translate(87.52,245.9885) scale(0.99043) translate(-10,-50.1333)">
<path id="0" d="M35 186.1333 C35 186.1333 38 168.2124 38 152.1333 C38 146.4584 34.3169 144.9148 35 140.1333 C36.4252 130.1572 37.7504 127.08 43 117.1333 C46.6265 110.262 48.0036 109.9076 54 104.1333 C61.2712 97.1314 61.5799 96.812 70 91.1333 C82.8475 82.4687 83.5969 81.0557 97 75.1333 C103.8159 72.1216 106.5416 75.0285 113 72.1333 C119.5098 69.2152 120.3249 62.9326 126 62.1333 C148.8447 58.9158 157.3542 63.3631 184 62.1333 C187.2795 61.982 187.6724 59.4661 191 59.1333 C201.4841 58.0849 204.193 60.1841 214 59.1333 C216.269 58.8902 216.731 56.3764 219 56.1333 C228.807 55.0826 232.7986 57.1557 242 56.1333 C243.7336 55.9407 244.3207 53.2217 246 53.1333 C267.4057 52.0067 274.6602 54.3503 299 53.1333 C302.2836 52.9692 302.7841 50.1489 306 50.1333 C397.2289 49.6905 419.3822 45.9627 505 52.1333 C515.3222 52.8773 517.6858 60.9763 528 66.1333 C529.719 66.9928 531.7393 65.433 533 66.1333 C534.7089 67.0827 534.7287 69.6191 537 71.1333 C541.4393 74.0929 542.5551 74.5776 548 76.1333 C552.5062 77.4208 554.0177 75.4077 558 77.1333 C567.6185 81.3013 570.2088 82.0504 578 89.1333 C585.4016 95.8621 586.079 97.6307 591 107.1333 C600.2095 124.9173 600.7101 125.9777 607 145.1333 C611.5036 158.849 612.7667 166.4337 613 174.1333 C613.0308 175.1488 610.0832 178.0341 608 178.1333 C550.9517 180.8499 536.8641 178.6025 466 181.1333 C439.0007 182.0976 437.6903 184.3046 412 185.1333 C408.2337 185.2548 407.8792 183.1831 404 183.1333 C370.1717 182.6996 368.7719 182.4775 334 184.1333 C316.5313 184.9652 316.4875 187.2209 299 188.1333 C259.2138 190.2091 258.9918 189.3568 219 190.1333 C207.5079 190.3565 206.4841 191.1817 196 190.1333 C192.6724 189.8006 192.2306 187.1727 189 187.1333 C116.9254 186.2544 32 188.1333 32 188.1333 "/>
<path id="1" d="M39 189.1333 C39 189.1333 34.4137 192.8092 30 194.1333 C25.2501 195.5583 23.3342 193.7789 19 195.1333 C16.6054 195.8816 15.0566 197.1962 14 199.1333 C12.8149 201.306 13.9595 203.9745 13 206.1333 C12.5704 207.1 10.3594 207.2946 10 208.1333 C9.453 209.4096 9.2343 211.7296 10 213.1333 C11.42 215.7366 14.9449 216.4955 16 219.1333 C17.1305 221.9596 14.8635 226.9211 16 228.1333 C18.6597 230.9703 23.5488 233.161 31 235.1333 C39.6345 237.4189 40.5401 237.0019 50 237.1333 C112.1451 237.9965 114.0744 234.7284 175 237.1333 C188.2754 237.6574 188.5546 241.7543 202 243.1333 C226.9307 245.6903 238.255 245.4115 253 245.1333 C253.595 245.1221 254.3618 242.1579 255 242.1333 C277.9285 241.2515 296.056 243.3964 331 242.1333 C334.2684 242.0152 334.7074 239.327 338 239.1333 C358.1873 237.9458 361.8127 240.3208 382 239.1333 C385.2926 238.9397 385.7552 236.1874 389 236.1333 C468.6253 234.8062 480.7662 239.466 562 236.1333 C572.4844 235.7032 573.3209 230.0318 584 228.1333 C594.4866 226.269 598.2158 231.12 607 228.1333 C619.5194 223.8767 623.4387 220.0945 634 211.1333 C637.9093 207.8163 640 203.6376 640 200.1333 C640 195.9919 637.6981 191.0369 634 187.1333 C630.5623 183.5046 628.0245 183.1415 622 181.1333 C616.5493 179.3164 610 179.1333 610 179.1333 "/>
<path id="2" d="M26 236.1333 C26 236.1333 18.5418 238.0343 15 241.1333 C12.0341 243.7285 11.405 245.9184 10 250.1333 C9.2097 252.5042 9.9999 256.1335 10 256.1333 C10.0001 256.133 11.0256 245.8829 12 245.1333 C12.9529 244.4003 18.2757 244.6301 23 246.1333 C28.3884 247.8478 29.5787 251.2025 34 252.1333 C36.7325 252.7086 39.2753 251.4957 42 250.1333 C43.0596 249.6035 43.6298 247.1087 44 247.1333 C46.7282 247.3152 50.6439 250.0279 57 251.1333 C61.641 251.9405 63.1278 251.9631 67 251.1333 C68.7978 250.7481 70.3805 247.9397 71 248.1333 C73.9333 249.05 77.4588 254.5501 83 256.1333 C89.2062 257.9065 94.2965 256.9173 99 256.1333 C99.7349 256.0108 100.323 253.1914 101 253.1333 C110.8978 252.2849 119.2349 255.0592 134 253.1333 C140.1667 252.329 142.4942 248.1935 147 247.1333 C148.1035 246.8737 149.1678 249.0481 151 249.1333 C168.4579 249.9453 178.2794 249.9909 190 249.1333 C190.667 249.0845 191.8289 246.0858 192 246.1333 C194.6717 246.8755 200.2911 252.89 208 254.1333 C228.653 257.4645 239.722 253.8488 254 256.1333 C255.5289 256.378 256.5906 261.9608 258 262.1333 C271.3953 263.7736 281.7193 264.1284 303 262.1333 C312.2512 261.266 312.7204 257.3437 322 256.1333 C334.6652 254.4814 335.8683 257.0942 349 256.1333 C355.9158 255.6273 356.0768 253.8751 363 253.1333 C369.7678 252.4082 370.7785 252.0513 377 253.1333 C381.3087 253.8827 381.7654 256.8137 386 257.1333 C406.0306 258.6451 409.0231 259.2614 430 257.1333 C442.2572 255.8898 442.7824 252.6487 455 250.1333 C459.1586 249.2771 460.0734 249.2608 464 250.1333 C468.3144 251.0921 468.6966 253.7645 473 254.1333 C501.1758 256.5484 504.0925 256.1333 534 256.1333 C539.8834 256.1333 540.7639 256.0374 546 254.1333 C551.0117 252.3109 551.6527 248.5909 556 248.1333 C567.3634 246.9372 572.3298 251.0796 584 250.1333 C587.9429 249.8136 589.0404 245.3861 593 245.1333 C609.0916 244.1062 613.3208 247.5095 631 247.1333 C635.2216 247.0435 638.5745 245.7014 640 244.1333 C641.1358 242.884 641.5227 236.6124 641 236.1333 C639.7002 234.9418 631.1488 235.0226 628 233.1333 C626.8086 232.4185 627.1254 228.4463 626 227.1333 C625.3539 226.3796 622 226.1333 622 226.1333 "/>
<path id="3" d="M27 248.1333 C27 248.1333 24.1436 250.4822 24 252.1333 C23.3627 259.4624 25.6402 262.4907 25 271.1333 C24.7219 274.888 22.0788 275.4303 22 279.1333 C21.6194 297.023 21.5929 299.1775 24 318.1333 C25.5184 330.0909 26.2422 332.2263 30 342.1333 C30.9863 344.7336 32.2238 345.4928 35 347.1333 C42.5831 351.6143 49.6809 354.3603 52 355.1333 C52.0393 355.1464 52.8443 353.1214 53 353.1333 C55.2508 353.3065 59.309 355.9555 65 356.1333 C74.382 356.4265 75.5723 353.6371 85 354.1333 C93.6296 354.5875 94.0328 357.0658 103 358.1333 C114.7059 359.5269 117.2194 359.4956 127 359.1333 C128.2547 359.0869 128.7606 357.1234 130 357.1333 C232.1904 357.9541 259.4449 362.8537 376 361.1333 C387.9038 360.9576 388.8183 355.6321 401 353.1333 C407.4016 351.8202 408.6835 354.0357 415 353.1333 C418.3516 352.6545 418.7945 350.1678 422 350.1333 C461.192 349.7119 467.5109 352.5595 508 352.1333 C512.2531 352.0886 512.6736 349.3242 517 349.1333 C544.9512 347.9002 547.7843 350.3601 576 349.1333 C580.8447 348.9227 582.3956 347.9356 586 346.1333 C587.097 345.5848 587.2277 343.3116 588 343.1333 C591.1555 342.4051 594.037 344.1968 599 343.1333 C607.2502 341.3654 615.9932 337.136 616 337.1333 C616.0007 337.1331 613.9934 337.1432 614 337.1333 C614.0495 337.0591 618.2483 334.1988 620 331.1333 C621.6986 328.1608 621.7691 327.0583 622 323.1333 C622.7395 310.5621 620.4559 309.4863 622 297.1333 C623.3511 286.3245 626.2942 285.9369 628 275.1333 C629.1894 267.6005 629.5747 264.0825 628 259.1333 C627.1903 256.5884 622.2096 255.7254 621 253.1333 C619.8252 250.6158 621 244.1333 621 244.1333 "/>
<path id="4" d="M175 94.1333 L176 97.1333 "/>
<path id="5" d="M304 101.1333 L306 103.1333 "/>
<path id="6" d="M406 92.1333 C406 92.1333 410.1089 93.8857 411 95.1333 C411.5424 95.8927 411 99.1333 411 99.1333 "/>
<path id="7" d="M225 128.1333 L221 131.1333 "/>
<path id="8" d="M145 135.1333 L137 140.1333 "/>
<path id="9" d="M108 121.1333 L108 127.1333 "/>
<path id="10" d="M317 140.1333 L316 141.1333 "/>
<path id="11" d="M468 111.1333 C468 111.1333 470.3717 109.9239 471 110.1333 C471.9425 110.4475 474 113.1333 474 113.1333 "/>
<path id="12" d="M421 133.1333 L420 138.1333 "/>
<path id="13" d="M355 115.1333 L358 117.1333 "/>
<path id="14" d="M432 74.1333 L434 74.1333 "/>
<path id="15" d="M515 138.1333 L517 138.1333 "/>
<path id="16" d="M243 97.1333 L246 96.1333 "/>
<path id="17" d="M331 71.1333 L334 70.1333 "/>
<path id="18" d="M217 74.1333 L223 76.1333 "/>
<path id="19" d="M503 82.1333 L505 85.1333 "/>
</g>
</g>
</svg>
