<?xml version="1.0" encoding="utf-8"?>
<!DOCTYPE svg PUBLIC "-//W3C//DTD SVG 1.1//EN" "http://www.w3.org/Graphics/SVG/1.1/DTD/svg11.dtd">
<svg viewBox="0 0 800 800" preserveAspectRatio="xMinYMin meet" xmlns="http://www.w3.org/2000/svg" version="1.1">
<g fill="none" stroke="black" stroke-linecap="round" stroke-linejoin="round" stroke-width="1.6561">
<g transform="translate(87.52,257.799) scale(1.8115) translate(-86,-162.1333)">
<path id="0" d="M119 249.1333 C119 249.1333 120.3262 238.7776 124 230.1333 C128.539 219.4534 128.6803 217.917 136 209.1333 C147.8847 194.8716 149.2527 192.2236 164 182.1333 C175.8078 174.0543 178.3316 175.0228 193 170.1333 C205.0014 166.1329 205.5868 165.3016 218 164.1333 C247.2251 161.3827 249.2905 160.5021 278 162.1333 C291.6139 162.9068 293.1402 163.7751 306 169.1333 C334.146 180.8608 337.2979 180.9702 362 197.1333 C375.7462 206.1278 375.2642 209.2973 387 222.1333 C391.0217 226.5321 391.4667 226.8858 394 232.1333 C398.2374 240.9108 401 251.1333 401 251.1333 "/>
<path id="1" d="M120 250.1333 C120 250.1333 212.5492 249.1703 305 250.1333 C356.4882 250.6697 408 253.1333 408 253.1333 "/>
<path id="2" d="M131 251.1333 C131 251.1333 103.9385 248.6957 91 250.1333 C89.1619 250.3376 86.7447 253.4524 86 256.1333 C84.7906 260.4873 84.3774 266.1502 86 268.1333 C89.3435 272.2198 94.7611 273.9758 104 278.1333 C114.5118 282.8636 115.0384 284.0179 126 286.1333 C142.5649 289.3301 143.6009 289.2029 161 289.1333 C267.925 288.7056 273.3865 288.34 376 285.1333 C380.3377 284.9978 380.549 282.7473 385 282.1333 C394.5216 280.82 395.7054 283.0787 405 281.1333 C416.3482 278.7581 420.7423 277.3205 428 273.1333 C429.8498 272.0661 431.2903 266.4236 431 266.1333 C428.6778 263.8111 410 255.1333 410 255.1333 "/>
<path id="3" d="M126 287.1333 C126 287.1333 125.0156 292.1955 126 296.1333 C127.8048 303.3526 128.1442 305.4781 132 311.1333 C134.6532 315.0247 137.3001 318.013 141 318.1333 C236.0394 321.224 274.8523 320.4015 378 319.1333 C381.0681 319.0956 384.1447 317.2105 385 315.1333 C389.0865 305.2089 392 285.1333 392 285.1333 "/>
<path id="4" d="M137 253.1333 C137 253.1333 146.5124 264.0637 154 265.1333 C177.9489 268.5546 184.8042 263.3443 214 264.1333 C220.8549 264.3186 221.2328 266.9829 228 267.1333 C242.8922 267.4643 244.1747 264.5282 259 265.1333 C267.7092 265.4888 268.1059 268.1718 277 269.1333 C286.168 270.1245 287.4394 270.5141 296 269.1333 C301.77 268.2027 302.3659 264.5841 308 264.1333 C325.2296 262.755 328.4896 267.1427 346 265.1333 C357.0548 263.8647 363.644 260.4809 369 257.1333 C370.0282 256.4907 370 250.1333 370 250.1333 "/>
<path id="5" d="M262 173.1333 L268 179.1333 "/>
<path id="6" d="M237 171.1333 L238 174.1333 "/>
<path id="7" d="M251 187.1333 L253 190.1333 "/>
<path id="8" d="M212 185.1333 L212 189.1333 "/>
<path id="9" d="M231 193.1333 L233 195.1333 "/>
<path id="10" d="M230 170.1333 L230 172.1333 "/>
<path id="11" d="M296 177.1333 L297 177.1333 "/>
</g>
</g>
</svg>
