<?xml version="1.0" encoding="utf-8"?>
<!DOCTYPE svg PUBLIC "-//W3C//DTD SVG 1.1//EN" "http://www.w3.org/Graphics/SVG/1.1/DTD/svg11.dtd">
<svg viewBox="0 0 800 800" preserveAspectRatio="xMinYMin meet" xmlns="http://www.w3.org/2000/svg" version="1.1">
<g fill="none" stroke="black" stroke-linecap="round" stroke-linejoin="round" stroke-width="0.67204">
<g transform="translate(87.52,163.408) scale(4.464) translate(-235,-216)">
<path id="0" d="M235 243 C235 243 240.4708 234.7457 247 229 C252.3801 224.2655 253.4478 222.9809 260 221 C273.391 216.9516 275.1797 216.8718 290 216 C308.5613 214.9082 310.4506 214.8941 328 217 C333.8007 217.6961 335.0404 218.5433 340 222 C350.7443 229.4884 361 240 361 240 "/>
<path id="1" d="M240 248 C240 248 288.6392 251.5565 333 250 C343.125 249.6447 354 244 354 244 "/>
<path id="2" d="M240 257 L289 258 "/>
<path id="3" d="M309 259 C309 259 327.376 259.7685 344 258 C349.8839 257.3741 356 254 356 254 "/>
<path id="4" d="M240 265 L291 266 "/>
<path id="5" d="M311 267 C311 267 328.5268 270.2879 342 268 C352.3564 266.2414 364 258 364 258 "/>
<path id="6" d="M242 276 C242 276 245.857 273.1014 249 273 C259.6003 272.6581 263.8415 273.304 273 275 C274.3362 275.2474 275.1725 278.0613 276 278 C283.2603 277.4622 288.1473 274.743 300 273 C304.7918 272.2953 306.6322 272.0378 310 273 C311.732 273.4949 312.4658 276.8515 314 277 C323.4084 277.9105 327.5912 276.7888 341 276 C344.4979 275.7942 345.6884 276.3209 348 275 C351.3584 273.0809 351.9333 269.0734 355 268 C359.2188 266.5234 368 268 368 268 "/>
<path id="7" d="M246 289 C246 289 255.7566 293.6024 265 294 C300.577 295.5302 311.8715 295.0604 339 293 C340.9702 292.8504 341.8659 288.5081 344 288 C349.5157 286.6867 352.943 289.3069 360 288 C365.2601 287.0259 371 283 371 283 "/>
<path id="8" d="M368 267 L367 280 "/>
<path id="9" d="M243 279 L244 288 "/>
<path id="10" d="M243 257 L243 265 "/>
<path id="11" d="M360 250 L360 256 "/>
<path id="12" d="M240 303 C240 303 239.9075 304.9692 240 305 C241.2947 305.4316 244.5185 305.8981 249 306 C266.3841 306.3951 269.3563 306.7707 284 306 C285.2992 305.9316 285.7216 304.0312 287 304 C320.1248 303.1921 331.9719 305.2153 366 304 C368.1998 303.9214 371 301 371 301 "/>
<path id="13" d="M241 309 L241 321 "/>
<path id="14" d="M241 322 C241 322 303.0924 326.0969 353 322 C363.2057 321.1622 375 311 375 311 "/>
<path id="15" d="M375 301 L375 314 "/>
<path id="16" d="M353 244 L357 240 "/>
<path id="17" d="M360 238 L360 245 "/>
</g>
</g>
</svg>
