<?xml version="1.0" encoding="utf-8"?>
<!DOCTYPE svg PUBLIC "-//W3C//DTD SVG 1.1//EN" "http://www.w3.org/Graphics/SVG/1.1/DTD/svg11.dtd">
<svg viewBox="0 0 800 800" preserveAspectRatio="xMinYMin meet" xmlns="http://www.w3.org/2000/svg" version="1.1">
<g fill="none" stroke="black" stroke-linecap="round" stroke-linejoin="round" stroke-width="1.5169">
<g transform="translate(87.52,199.2613) scale(1.9777) translate(-113,-217.4167)">
<path id="0" d="M129 393.4167 C129 393.4167 133.1201 399.5084 135 405.4167 C136.3946 409.7996 134.597 412.6107 136 415.4167 C136.9353 417.2873 139.4463 419.3688 142 419.4167 C251.7257 421.4715 276.4912 420.887 403 420.4167 C406.8813 420.4022 408.3074 420.34 411 418.4167 C417.3644 413.8707 418.7904 412.1585 424 405.4167 C426.7333 401.8795 426.9853 400.7293 428 396.4167 C428.8166 392.9461 428.9869 391.3773 428 388.4167 C426.9309 385.2093 424.7382 381.5996 423 381.4167 C407.2766 379.7616 396.8158 380.8032 371 382.4167 C349.0271 383.79 348.9417 386.734 327 387.4167 C237.0268 390.2158 234.3805 387.1388 146 389.4167 C139.6163 389.5812 133.6351 391.8451 133 392.4167 C132.9029 392.5041 136 398.4167 136 398.4167 "/>
<path id="1" d="M142 386.4167 C142 386.4167 140.8199 382.5567 141 382.4167 C142.0519 381.5985 146.1242 379.812 151 379.4167 C163.8522 378.3746 168.2111 380.0918 178 379.4167 C178.7751 379.3632 179.2323 377.4605 180 377.4167 C191.982 376.732 197.1683 376.6251 213 377.4167 C216.4062 377.587 217.8902 377.9398 220 379.4167 C221.6325 380.5595 223 384.4167 223 384.4167 "/>
<path id="2" d="M223 382.4167 C223 382.4167 224.3465 378.4782 225 378.4167 C247.9272 376.2588 266.5558 375.2086 308 374.4167 C344.9067 373.7114 345.8014 374.1083 382 375.4167 C386.4357 375.577 388.7063 376.2698 391 377.4167 C391.5734 377.7034 392 380.4167 392 380.4167 "/>
<path id="3" d="M139 359.4167 C139 359.4167 132.4379 357.6977 131 358.4167 C129.5621 359.1356 127.724 362.5209 127 365.4167 C126.5702 367.1361 127.4623 370.2296 128 370.4167 C132.5235 371.9901 139.0472 373.039 150 373.4167 C196.5963 375.0234 197.0723 375.2857 244 374.4167 C331.9374 372.7882 396.5599 370.2812 420 368.4167 C420.0845 368.4099 421.2506 362.918 420 360.4167 C417.3424 355.1014 415.1972 351.8815 410 348.4167 C405.1878 345.2085 402.9898 345.3063 396 344.4167 C376.0641 341.8794 375.4201 341.4167 355 341.4167 C257.3818 341.4167 236.3709 341.3525 159 344.4167 C156.5548 344.5135 156.0281 348.3155 153 349.4167 C146.3804 351.8238 142.724 349.9635 137 352.4167 C134.4928 353.4912 133.218 355.7371 132 358.4167 C131.2639 360.0362 132 363.4167 132 363.4167 "/>
<path id="4" d="M132 325.4167 C132 325.4167 126.3286 326.5952 126 327.4167 C125.0292 329.8436 124.7896 338.4801 126 340.4167 C126.8612 341.7946 132.0963 343.4167 136 343.4167 C138.7326 343.4167 139.6596 340.8175 143 340.4167 C151.1694 339.4363 154.6528 341.5707 161 340.4167 C162.6669 340.1136 163.5599 336.5274 165 336.4167 C172.3031 335.8549 178.0592 338.7478 187 338.4167 C189.0842 338.3395 189.6873 335.8248 192 335.4167 C197.0191 334.5309 198.7622 334.5437 204 335.4167 C206.8371 335.8895 207.1531 337.8473 210 338.4167 C213.8822 339.1931 215.2888 339.2119 219 338.4167 C221.3268 337.9181 221.7313 335.5912 224 335.4167 C244.4184 333.846 249.7943 336.0171 271 334.4167 C273.8048 334.205 274.2175 331.6423 277 331.4167 C290.816 330.2965 293.8163 330.2969 308 331.4167 C311.3111 331.6781 311.9373 334.2708 315 334.4167 C320.9621 334.7006 324.573 332.1563 329 332.4167 C330.013 332.4763 330.7143 335.0953 332 335.4167 C335.0856 336.1881 337.4704 334.3021 341 335.4167 C345.6648 336.8898 347.5205 341.0853 351 341.4167 C354.4952 341.7495 356.6161 338.0732 362 337.4167 C376.117 335.6951 381.4364 335.7765 392 336.4167 C393.1226 336.4847 393.9746 339.3627 395 339.4167 C400.161 339.6883 404.8142 339.0445 411 337.4167 C412.4184 337.0434 413.6469 335.7113 414 334.4167 C414.7398 331.7042 414.9742 328.0868 414 326.4167 C413.0156 324.7291 409.98 322.6459 407 322.4167 C399.3146 321.8255 395.0779 325.2333 388 324.4167 C385.1427 324.087 383.0442 319.7312 381 319.4167 C379.5428 319.1925 376.1434 322.6246 375 322.4167 C373.7613 322.1915 371.7655 317.7477 370 317.4167 C366.8407 316.8243 362.3249 319.6542 359 319.4167 C358.0157 319.3464 357.3174 316.9107 356 316.4167 C354.4032 315.8179 352.5968 315.8179 351 316.4167 C349.6826 316.9107 349.3114 318.9795 348 319.4167 C346.0329 320.0724 344.3913 320.1525 342 319.4167 C338.7196 318.4073 337.4276 315.2025 335 315.4167 C324.9136 316.3066 315.7589 321.9317 308 322.4167 C306.6744 322.4995 304.705 317.5531 303 317.4167 C296.761 316.9176 288.0775 320.4167 283 320.4167 C282.4922 320.4167 281.6537 317.5038 281 317.4167 C277.4952 316.9494 272.5123 319.3666 268 318.4167 C265.5117 317.8928 263.9871 313.9135 262 313.4167 C260.4925 313.0398 258.6615 315.4167 256 315.4167 C250.677 315.4167 248.5914 312.9334 244 313.4167 C241.1098 313.7209 239.4528 317.0079 237 317.4167 C235.507 317.6655 234.1323 315.4167 232 315.4167 C227.309 315.4167 225.8889 317.7927 221 317.4167 C214.1001 316.8859 211.4319 312.9988 206 313.4167 C201.7626 313.7426 200.186 318.1202 195 319.4167 C189.6065 320.765 187.6164 320.7128 182 319.4167 C175.7854 317.9825 170.8024 313.657 169 313.4167 C168.8084 313.3911 168.3599 316.4752 167 317.4167 C157.3929 324.0677 143.789 331.1208 143 331.4167 C142.9494 331.4356 143.0944 326.4369 143 326.4167 C141.8044 326.1605 131.1939 327.7898 129 328.4167 C128.914 328.4413 129.0186 330.415 129 330.4167 C127.8813 330.5184 118 329.4167 118 329.4167 "/>
<path id="5" d="M229 312.4167 C229 312.4167 201.3429 311.7667 174 313.4167 C143.5276 315.2555 118.0987 321.5063 113 319.4167 C111.8934 318.9632 109.2555 300.4384 113 288.4167 C117.3385 274.4878 120.5078 269.5498 132 258.4167 C150.1724 240.8122 154.3589 240.756 177 226.4167 C183.5217 222.2862 184.4355 222.4797 192 220.4167 C200.5566 218.0831 201.1388 217.4848 210 217.4167 C265.058 216.9931 266.6304 217.6306 322 219.4167 C327.9609 219.609 328.7639 219.5126 334 221.4167 C339.0117 223.2391 338.8187 225.3441 344 227.4167 C353.3598 231.1606 355.8338 228.7503 364 233.4167 C375.2535 239.8472 374.8443 243.4997 386 251.4167 C389.7979 254.112 391.4628 252.6834 395 255.4167 C401.7419 260.6263 403.5339 261.1922 408 268.4167 C419.6727 287.2991 419.928 291.4087 429 310.4167 C429.3488 311.1474 429.0052 312.4166 429 312.4167 C417.0052 312.6666 380.9341 311.529 333 312.4167 C300.0176 313.0275 299.7936 315.4167 267 315.4167 C244.6407 315.4167 222 312.4167 222 312.4167 "/>
<path id="6" d="M183 238.4167 C183 238.4167 179.6735 239.301 178 240.4167 C177.3834 240.8277 177 242.4167 177 242.4167 C177.0214 242.4274 180 241.4167 180 241.4167 "/>
<path id="7" d="M209 229.4167 C209 229.4167 211.9296 235.9109 214 237.4167 C215.1483 238.2518 220 237.4167 220 237.4167 "/>
<path id="8" d="M162 265.4167 C162 265.4167 157.3867 265.8753 157 266.4167 C156.4925 267.1272 157 272.4167 157 272.4167 "/>
<path id="9" d="M189 261.4167 L193 269.4167 "/>
<path id="10" d="M256 236.4167 C256 236.4167 268.9496 235.5196 271 236.4167 C271.5553 236.6596 272 243.4167 272 243.4167 "/>
<path id="11" d="M252 246.4167 L255 254.4167 "/>
<path id="12" d="M297 233.4167 C297 233.4167 303.617 232.5366 305 233.4167 C306.2887 234.2367 308 240.4167 308 240.4167 "/>
<path id="13" d="M326 236.4167 C326 236.4167 330.5537 235.4525 332 236.4167 C335.7764 238.9343 341 246.4167 341 246.4167 "/>
<path id="14" d="M294 258.4167 L297 266.4167 "/>
<path id="15" d="M325 259.4167 C325 259.4167 326.2144 263.0775 328 264.4167 C331.1744 266.7974 337 268.4167 337 268.4167 "/>
<path id="16" d="M361 258.4167 L365 262.4167 "/>
<path id="17" d="M250 275.4167 L260 283.4167 "/>
<path id="18" d="M222 272.4167 L225 280.4167 "/>
</g>
</g>
</svg>
