<?xml version="1.0" encoding="utf-8"?>
<!DOCTYPE svg PUBLIC "-//W3C//DTD SVG 1.1//EN" "http://www.w3.org/Graphics/SVG/1.1/DTD/svg11.dtd">
<svg viewBox="0 0 800 800" preserveAspectRatio="xMinYMin meet" xmlns="http://www.w3.org/2000/svg" version="1.1">
<g fill="none" stroke="black" stroke-linecap="round" stroke-linejoin="round" stroke-width="1.1329">
<g transform="translate(87.52,157.6956) scale(2.6481) translate(-153,-135.4167)">
<path id="0" d="M171 198.4167 C171 198.4167 173.8866 199.0353 175 198.4167 C177.165 197.2139 178.7588 196.1472 180 193.4167 C185.5542 181.1973 182.7868 175.5152 190 165.4167 C197.9756 154.2509 202.2028 153.7552 215 144.4167 C220.1978 140.6237 220.9125 140.5239 227 138.4167 C233.5033 136.1655 234.0951 135.7933 241 135.4167 C260.988 134.3264 261.7751 134.422 282 135.4167 C291.9386 135.9055 292.682 135.6636 302 138.4167 C314.0252 141.9696 317.9735 141.4149 326 148.4167 C338.2746 159.1243 341.5293 165.0979 349 179.4167 C351.6967 184.5853 350.3371 187.6751 350 194.4167 C349.885 196.7165 349.2431 198.6854 348 199.4167 C343.4862 202.0718 340.4773 203.288 333 204.4167 C314.75 207.1714 313.9659 206.9687 295 207.4167 C250.6627 208.464 249.2088 209.3807 206 207.4167 C195.6943 206.9482 194.0425 206.0337 185 202.4167 C180.3608 200.561 176 195.4167 176 195.4167 "/>
<path id="1" d="M175 270.4167 C175 270.4167 180.9835 275.9321 184 281.4167 C185.9102 284.8897 184.4149 288.0391 186 290.4167 C187.0738 292.0273 190.4671 291.8838 192 293.4167 C192.8516 294.2683 192.1575 296.8982 193 297.4167 C200.8823 302.2673 205.4277 305.1367 218 309.4167 C228.0983 312.8544 229.1061 312.8787 240 313.4167 C268.9555 314.8466 270.2763 311.6652 299 313.4167 C310.3458 314.1085 310.6307 317.302 322 318.4167 C335.552 319.7453 339.3709 320.6544 350 318.4167 C354.4355 317.4829 355.7093 314.7073 360 310.4167 C362.3837 308.033 362.9244 307.509 364 304.4167 C366.6763 296.7223 367.068 295.805 368 287.4167 C369.0151 278.2803 369.0701 274.3021 368 268.4167 C367.7901 267.2621 366.0102 265.907 364 265.4167 C347.5558 261.4059 345.0772 259.2113 327 258.4167 C300.8985 257.2694 299.9568 261.062 273 261.4167 C224.1207 262.0598 192.0796 258.8795 175 260.4167 C174.4941 260.4622 173 270.4167 173 270.4167 "/>
<path id="2" d="M175 260.4167 C175 260.4167 162.9311 258.9371 156 256.4167 C154.4906 255.8678 153 253.7887 153 252.4167 C153 247.6145 153.8481 241.0297 156 238.4167 C157.5755 236.5036 161.6195 235.7754 167 235.4167 C183.3337 234.3278 184.1588 234.4543 201 235.4167 C218.9451 236.4421 219.0611 238.7584 237 239.4167 C273.2283 240.7462 273.5784 238.4323 310 239.4167 C347.4734 240.4295 359.1752 240.4746 385 243.4167 C386.564 243.5948 388.5056 246.192 389 248.4167 C390.0914 253.3278 389.6774 261.1425 389 261.4167 C383.3847 263.6895 347 265.4167 347 265.4167 "/>
<path id="3" d="M224 150.4167 C224 150.4167 222.9426 154.388 223 154.4167 C223.5164 154.6749 231.9669 154.4365 232 154.4167 C232.0081 154.4118 228 151.4167 228 151.4167 "/>
<path id="4" d="M283 154.4167 C283 154.4167 278.9861 158.4088 279 158.4167 C279.0889 158.4675 288.7856 158.8583 290 158.4167 C290.1606 158.3583 290.2 154.5167 290 154.4167 C289.2 154.0167 282 154.4167 282 154.4167 "/>
<path id="5" d="M254 156.4167 C254 156.4167 255.081 160.0338 256 160.4167 C258.6107 161.5045 265.1611 161.7522 266 161.4167 C266.1748 161.3468 266.6283 157.2544 266 156.4167 C265.0575 155.16 262.8469 154.1931 260 153.4167 C257.9123 152.8473 255.5078 152.9089 255 153.4167 C254.086 154.3307 253 160.4167 253 160.4167 "/>
<path id="6" d="M213 176.4167 C213 176.4167 217.9963 177.9631 220 177.4167 C221.5163 177.0031 224.0206 173.4456 224 173.4167 C223.8297 173.1782 215.5667 170.19 215 170.4167 C214.7239 170.5271 214 177.4167 214 177.4167 "/>
<path id="7" d="M260 175.4167 C260 175.4167 257.4789 175.0335 257 175.4167 C256.1699 176.0808 254.9918 179.412 255 179.4167 C255.2591 179.5648 263.8754 179.4997 264 179.4167 C264.0046 179.4136 261 175.4167 261 175.4167 "/>
<path id="8" d="M297 166.4167 C297 166.4167 297.3367 173.5323 298 174.4167 C298.2843 174.7957 301.9691 175.061 303 174.4167 C304.2628 173.6274 306.1358 169.7787 306 169.4167 C305.8161 168.9262 300 166.4167 300 166.4167 "/>
<path id="9" d="M327 176.4167 C327 176.4167 327.4695 181.0851 328 181.4167 C328.9002 181.9793 333.671 181.915 335 181.4167 C335.4034 181.2654 336.2094 179.045 336 178.4167 C335.6858 177.4742 334.1175 175.6198 333 175.4167 C330.5359 174.9686 325 176.4167 325 176.4167 "/>
<path id="10" d="M278 193.4167 C278 193.4167 278.6476 195.3462 279 195.4167 C281.2656 195.8698 287.9503 195.5161 288 195.4167 C288.0607 195.2952 284.9797 189.1764 283 187.4167 C282.3462 186.8355 279.3577 187.059 279 187.4167 C278.4635 187.9532 278 192.4167 278 192.4167 "/>
<path id="11" d="M237 191.4167 C237 191.4167 237.4587 196.03 238 196.4167 C238.7105 196.9242 243.7854 196.6742 244 196.4167 C244.2218 196.1505 243.1486 190.4464 243 190.4167 C242.4462 190.3059 234 194.4167 234 194.4167 "/>
<path id="12" d="M173 235.4167 C173 235.4167 167.2552 237.7997 162 239.4167 C161.1407 239.6811 160.0084 239.4504 160 239.4167 C159.9367 239.1635 159.9976 236.3633 161 235.4167 C167.1424 229.6156 178 222.4167 178 222.4167 "/>
<path id="13" d="M179 221.4167 C179 221.4167 180.5576 225.6299 182 226.4167 C184.1522 227.5906 187.8668 228.27 190 227.4167 C192.7508 226.3164 193.9401 221.4366 197 220.4167 C201.5899 218.8867 209.5216 219.7831 211 220.4167 C211.2716 220.5331 210.2463 224.5325 211 226.4167 C211.7034 228.1752 213.4072 230.249 215 230.4167 C227.2497 231.7061 248.1646 230.3384 249 230.4167 C249.0422 230.4206 247.9925 232.9204 247 233.4167 C245.1568 234.3383 240.9996 234.4169 241 234.4167 C241.0009 234.4161 247.097 230.3558 253 229.4167 C267.9095 227.0447 284.3428 227.2706 285 227.4167 C285.0671 227.4316 279.9792 235.4167 280 235.4167 C280.0791 235.4167 289.8577 229.3414 299 227.4167 C307.3979 225.6487 315.0458 226.5304 318 227.4167 C318.4354 227.5473 318.9273 233.4167 319 233.4167 C320.0176 233.4167 326.2716 228.8585 333 227.4167 C339.1625 226.0961 343.5504 226.5543 347 227.4167 C347.7392 227.6015 348.2273 231.1789 349 231.4167 C351.6308 232.2261 359.8255 231.5912 360 231.4167 C360.0476 231.3691 357.0094 227.6971 356 224.4167 C355.2642 222.0253 355.775 219.0917 356 218.4167 C356.025 218.3417 357.2233 218.0969 358 218.4167 C364.9446 221.2762 367.7269 221.1023 373 225.4167 C377.0705 228.7471 376.1184 232.5351 380 236.4167 C382.5877 239.0044 388.0015 240.4092 388 240.4167 C387.9983 240.4253 379 241.4167 379 241.4167 "/>
<path id="14" d="M188 206.4167 C188 206.4167 178.4679 210.2116 174 214.4167 C171.8149 216.4732 171 222.4167 171 222.4167 "/>
<path id="15" d="M241 210.4167 C241 210.4167 247.3124 213.3539 248 215.4167 C249.5002 219.9172 248 231.4167 248 231.4167 "/>
<path id="16" d="M250 215.4167 C250 215.4167 252.8073 216.0672 254 215.4167 C257.0629 213.746 257.865 210.6707 261 209.4167 C263.6681 208.3494 269 209.4167 269 209.4167 "/>
<path id="17" d="M319 210.4167 C319 210.4167 321.8208 210.9985 322 211.4167 C322.4705 212.5144 322.8895 215.8917 322 217.4167 C320.5051 219.9794 315 223.4167 315 223.4167 "/>
<path id="18" d="M347 203.4167 C347 203.4167 360.3033 202.219 362 203.4167 C363.1844 204.2527 364 215.4167 364 215.4167 "/>
<path id="19" d="M195 188.4167 C195 188.4167 195.4058 194.5848 196 195.4167 C196.2201 195.7248 199.5669 195.8498 200 195.4167 C200.8662 194.5504 202.2962 190.3052 202 189.4167 C201.7408 188.6392 197 186.4167 197 186.4167 "/>
<path id="20" d="M201 166.4167 C201 166.4167 198.1203 166.2062 198 166.4167 C197.4688 167.3462 196.7261 173.0332 197 173.4167 C197.1868 173.6782 202.73 173.7767 203 173.4167 C203.48 172.7767 203 165.4167 203 165.4167 "/>
<path id="21" d="M318 154.4167 C318 154.4167 311.7331 156.6836 311 157.4167 C310.8534 157.5633 311.5966 160.2654 312 160.4167 C313.329 160.915 317.9505 161.1163 319 160.4167 C319.8995 159.817 321.0214 154.4596 321 154.4167 C321 154.4167 317 156.4167 317 156.4167 "/>
<path id="22" d="M313 185.4167 C313 185.4167 308.0947 184.322 308 184.4167 C307.9053 184.5113 308.4587 189.03 309 189.4167 C309.7105 189.9242 314.7577 189.659 315 189.4167 C315.1616 189.2551 314 184.4167 314 184.4167 "/>
<path id="23" d="M266 141.4167 C266 141.4167 264.7916 147.238 265 147.4167 C265.4025 147.7617 272.939 147.5082 273 147.4167 C273.0381 147.3595 270.5924 142.7816 269 141.4167 C268.4775 140.9688 266 141.4167 266 141.4167 "/>
</g>
</g>
</svg>
