<?xml version="1.0" encoding="utf-8"?>
<!DOCTYPE svg PUBLIC "-//W3C//DTD SVG 1.1//EN" "http://www.w3.org/Graphics/SVG/1.1/DTD/svg11.dtd">
<svg viewBox="0 0 800 800" preserveAspectRatio="xMinYMin meet" xmlns="http://www.w3.org/2000/svg" version="1.1">
<g fill="none" stroke="black" stroke-linecap="round" stroke-linejoin="round" stroke-width="0.97926">
<g transform="translate(177.8941,87.52) scale(3.0635) translate(-218,-182)">
<path id="0" d="M221 257 C221 257 218.5161 248.43 218 240 C217.0389 224.3014 216.3799 222.9053 218 208 C218.7363 201.2258 219.5707 199.6338 223 194 C225.9131 189.2142 227.3254 188.2997 232 185 C235.0806 182.8255 236.2434 182.2683 240 182 C249.1139 181.349 256.2724 180.4705 260 183 C263.644 185.4727 265.582 191.9876 268 201 C270.8571 211.649 270.3129 212.5484 271 224 C271.8003 237.3388 273.9492 241.2449 271 251 C268.823 258.2008 264.1105 263.4519 258 267 C252.7472 270.05 247.5536 270.2249 240 269 C231.326 267.5934 221 261 221 261 "/>
<path id="1" d="M255 268 C255 268 254.5464 287.2782 257 302 C257.6313 305.7876 259.0307 306.8186 262 310 C265.61 313.8679 267.1393 316.645 271 317 C302.2631 319.8748 349 318 349 318 "/>
<path id="2" d="M349 318 C349 318 354.7102 315.9739 358 314 C358.6349 313.6191 359.0229 312.0458 359 312 C358.9847 311.9694 356.9943 312.0095 357 312 C357.0378 311.9369 361.7695 309.0363 362 307 C363.9926 289.3985 364.0998 278.7972 363 259 C362.8573 256.4307 359.923 255.769 359 253 C358.2448 250.7344 359 247 359 247 "/>
<path id="3" d="M268 268 C268 268 270.5801 273.1836 274 276 C278.3308 279.5666 279.7815 281.2924 285 282 C306.3232 284.8913 309.3913 283.5708 333 284 C336.4314 284.0624 337.2631 284.1404 340 283 C342.4601 281.9749 343.2624 281.3168 345 279 C348.8675 273.8433 347.9173 272.1033 352 267 C355.5259 262.5926 359.1723 262.4523 361 259 C362.2887 256.5659 362.0924 251.3904 361 250 C359.344 247.8924 355.1871 245.4893 350 245 C331.0091 243.2084 328.9313 244.6194 308 245 C301.5122 245.118 300.8942 244.4282 295 246 C286.6179 248.2352 284.2219 248.5202 278 253 C273.5058 256.2358 270 264 270 264 "/>
<path id="4" d="M262 313 C262 313 260.5085 337.6271 262 360 C262.421 366.3152 263.0278 367.7415 266 373 C268.9383 378.1986 270.6827 381.2992 275 383 C283.4021 386.3099 287.0506 385.4879 299 386 C321.7809 386.9763 323.8897 387.1949 345 386 C348.2904 385.8138 350.319 384.9611 352 383 C354.855 379.6692 356.401 377.316 357 372 C360.1255 344.2611 360 312 360 312 "/>
<path id="5" d="M254 214 C254 214 261.3835 214.6165 262 214 C262.7707 213.2293 263 205 263 205 "/>
</g>
</g>
</svg>
