<?xml version="1.0" encoding="utf-8"?>
<!DOCTYPE svg PUBLIC "-//W3C//DTD SVG 1.1//EN" "http://www.w3.org/Graphics/SVG/1.1/DTD/svg11.dtd">
<svg viewBox="0 0 800 800" preserveAspectRatio="xMinYMin meet" xmlns="http://www.w3.org/2000/svg" version="1.1">
<g fill="none" stroke="black" stroke-linecap="round" stroke-linejoin="round" stroke-width="1.4977">
<g transform="translate(251.7723,87.52) scale(2.0031) translate(-217,-69)">
<path id="0" d="M220 69 C220 69 336.9965 60.322 353 69 C359.107 72.3116 358.6511 107.4877 362 146 C364.6376 176.332 364.59 176.5222 365 207 C366.0882 287.8876 368.9394 335.9094 365 369 C364.7962 370.7119 355.0591 373.2153 345 375 C324.5199 378.6336 323.9555 378.9434 303 380 C264.7859 381.9268 238.7366 383.9876 226 381 C224.558 380.6617 223.0874 371.0278 222 361 C218.6187 329.8168 217.5457 329.4351 217 298 C215.0536 185.8862 217 73 217 73 "/>
<path id="1" d="M313 103 C313 103 309.7894 98.8947 306 97 C294.6317 91.3158 293.0649 89.567 281 87 C271.2156 84.9182 268.1377 85.4771 259 87 C255.3311 87.6115 253.4224 88.8855 251 92 C244.0685 100.9119 243.9183 102.8597 238 114 C235.5175 118.6729 234.2658 119.3047 234 124 C232.884 143.7167 232.6104 149.5898 235 167 C235.4888 170.5612 237.5313 171.8964 241 175 C246.55 179.9658 247.2303 180.192 254 184 C263.0185 189.0729 263.493 189.3939 273 193 C277.5633 194.7309 278.1061 194.8959 283 195 C301.0205 195.3834 304.8161 197.212 320 194 C326.9838 192.5227 329.6823 189.3177 335 184 C337.7652 181.2348 338.4653 179.3666 339 175 C341.2675 156.4817 342.7947 152.9465 341 135 C340.0621 125.6209 337.9813 123.8556 333 115 C329.4165 108.6294 328.1147 105.6349 323 103 C314.916 98.8355 300 98 300 98 "/>
<path id="2" d="M331 238 C331 238 329.5214 233.2248 327 231 C322.0301 226.6148 320.6954 226.1086 314 223 C307.0614 219.7785 306.2956 218.829 299 218 C285.41 216.4557 280.2238 214.3349 270 218 C259.1376 221.8941 253.6746 226.694 246 237 C238.4671 247.1157 237.6915 251.3184 235 265 C232.0379 280.0572 232.7377 282.5365 234 298 C234.6292 305.7078 235.6119 306.7398 239 314 C242.3634 321.2074 242.6647 323.4006 248 328 C255.466 334.4362 258.3004 336.6209 268 339 C282.3115 342.5104 287.9941 344.0966 301 341 C314.6153 337.7583 319.2343 333.2887 331 324 C335.9487 320.0931 338.0834 316.958 339 311 C341.512 294.6719 342.6851 289.4019 339 272 C334.2933 249.7739 321 226 321 226 "/>
<path id="3" d="M262 114 L262 138 "/>
<path id="4" d="M303 113 L303 139 "/>
<path id="5" d="M285 148 L285 171 "/>
<path id="6" d="M270 250 C270 250 264.2702 255.2074 262 260 C260.4403 263.2926 260.6059 268.4932 261 269 C261.2983 269.3835 267.2897 270.0995 269 269 C271.5196 267.3802 274.1318 263.0386 275 260 C275.3588 258.7441 273.8556 255.713 273 255 C272.445 254.5375 269 255 269 255 "/>
<path id="7" d="M308 250 C308 250 305.0521 249.8568 305 250 C304.4575 251.492 302.9961 259.8623 304 261 C305.9961 263.2623 318.876 267.3122 320 267 C320.3964 266.8899 322.8448 257.1968 322 256 C320.6007 254.0176 308 250 308 250 "/>
<path id="8" d="M293 291 C293 291 289.1625 287.8875 289 288 C287.5375 289.0125 282.9528 294.7506 280 300 C279.3078 301.2306 279.3792 303.0688 280 304 C281.3968 306.0953 283.3014 308.0362 286 309 C288.7729 309.9903 291.0393 309.9869 294 309 C297.2074 307.9309 300.1847 306.0964 301 304 C302.3725 300.4707 301.9418 292.0988 301 291 C300.1824 290.0461 289 290 289 290 "/>
</g>
</g>
</svg>
