<?xml version="1.0" encoding="utf-8"?>
<!DOCTYPE svg PUBLIC "-//W3C//DTD SVG 1.1//EN" "http://www.w3.org/Graphics/SVG/1.1/DTD/svg11.dtd">
<svg viewBox="0 0 800 800" preserveAspectRatio="xMinYMin meet" xmlns="http://www.w3.org/2000/svg" version="1.1">
<g fill="none" stroke="black" stroke-linecap="round" stroke-linejoin="round" stroke-width="0.61444">
<g transform="translate(104.6087,87.52) scale(4.8825) translate(-218,-118)">
<path id="0" d="M218 128 C218 128 223 232.9999 223 233 C223 233 224.8985 208.8107 224 185 C222.9099 156.1124 215.5315 132.9329 219 127 C221.0239 123.538 240.545 121.7554 262 120 C295.071 117.2942 316.9657 116.2808 329 118 C329.8504 118.1215 331.5992 124.0543 332 130 C334.536 167.618 332.4966 168.7344 335 207 C335.9813 222.0005 337.2476 222.1042 339 237 C339.2301 238.9554 339.4523 240.6042 339 241 C337.6268 242.2015 334.8928 243.6701 331 244 C306.8676 246.0451 305.0191 246.6415 280 246 C266.6909 245.6587 266.3484 242.7025 253 242 C238.309 241.2268 226.6272 244.2871 223 243 C222.3567 242.7717 222 231 222 231 "/>
<path id="1" d="M274 139 C274 139 267.4957 140.0087 267 141 C265.6933 143.6135 265.1903 153.8959 266 155 C266.5981 155.8156 273.2783 156.3148 278 156 C279.2398 155.9173 280.7518 154.8686 281 154 C282.0671 150.2652 283.0707 143.4002 282 142 C280.5033 140.0427 268.7473 136.9466 268 137 C267.9765 137.0017 268 143 268 143 "/>
<path id="2" d="M249 173 C249 173 245.1351 173.5947 245 174 C244.3631 175.9106 244.0577 183.8864 245 185 C245.9686 186.1448 252.6751 187.2375 256 187 C256.9843 186.9297 258.8127 185.1236 259 184 C259.4726 181.1642 259.2417 177.1287 258 175 C257.1578 173.5562 254.434 172.1623 252 172 C248.5191 171.7679 243 174 243 174 "/>
<path id="3" d="M302 171 C302 171 299.5364 181.2053 300 182 C300.2946 182.5051 308.2766 183.5918 309 183 C309.9002 182.2635 311.2433 176.4058 311 173 C310.896 171.5439 309.3892 169.5343 308 169 C304.8212 167.7774 300.3074 167.1759 298 168 C296.5301 168.525 294 174 294 174 "/>
<path id="4" d="M247 213 C247 213 244.0746 215.0296 244 216 C243.7725 218.9574 244.9173 225.2267 246 226 C247.421 227.015 254.931 226.4722 258 226 C258.3344 225.9485 258.9067 224.9327 259 224 C259.3553 220.4467 259.7153 216.7153 259 216 C257.927 214.927 249 214 249 214 "/>
<path id="5" d="M314 211 C314 211 306.9263 209.9549 304 211 C302.3069 211.6047 300.8218 213.74 300 216 C299.2361 218.1008 299.5791 221.7595 300 222 C301.8591 223.0623 313.4094 224.4543 314 224 C314.3901 223.6999 313 212 313 212 "/>
</g>
</g>
</svg>
