<?xml version="1.0" encoding="utf-8"?>
<!DOCTYPE svg PUBLIC "-//W3C//DTD SVG 1.1//EN" "http://www.w3.org/Graphics/SVG/1.1/DTD/svg11.dtd">
<svg viewBox="0 0 800 800" preserveAspectRatio="xMinYMin meet" xmlns="http://www.w3.org/2000/svg" version="1.1">
<g fill="none" stroke="black" stroke-linecap="round" stroke-linejoin="round" stroke-width="1.0945">
<g transform="translate(87.52,216.3495) scale(2.7411) translate(-133,-124)">
<path id="0" d="M140 124 C140 124 140.3788 153.5865 139 183 C137.3834 217.4883 134 252 134 252 "/>
<path id="1" d="M138 126 C138 126 143.0581 123.8029 147 124 C151.9384 124.2469 152.5287 126.509 158 127 C190.7035 129.9349 191.53 129.9026 225 131 C252.4217 131.8991 254.0256 132.8553 280 131 C287.2526 130.482 287.8808 126.3051 295 126 C320.6958 124.8988 343.6373 124.705 350 128 C351.7012 128.881 349.5674 141.6971 351 155 C353.0424 173.9654 355.2835 174.1184 357 193 C358.2469 206.7159 355.6448 208.1261 357 221 C357.5044 225.7914 360.3992 226.1939 361 231 C362.2587 241.07 361.6632 245.0412 361 253 C360.9347 253.7838 359 255 359 255 "/>
<path id="2" d="M133 254 L360 258 "/>
<path id="3" d="M162 160 C162 160 164.41 169.5602 165 179 C165.8917 193.2674 165 208 165 208 "/>
<path id="4" d="M162 162 C162 162 199.4713 160.2218 206 163 C207.629 163.6932 208.3843 172.5594 209 182 C209.866 195.2788 210.3619 207.3786 209 209 C208.2111 209.9392 198.4764 207.511 188 207 C178.0686 206.5155 176.328 206.2758 168 207 C166.6784 207.1149 165 209 165 209 "/>
<path id="5" d="M185 170 C185 170 180.5415 171.1336 180 172 C179.3661 173.0143 179.5518 177.6514 180 178 C180.939 178.7303 188.7876 179.2124 189 179 C189.1593 178.8407 187.9885 171.7908 187 171 C186.0586 170.2469 179 171 179 171 "/>
<path id="6" d="M173 188 L173 196 "/>
<path id="7" d="M173 188 C173 188 178.8015 187.6691 179 188 C179.5515 188.9191 179.6737 196.5179 179 198 C178.7795 198.4851 174 199 174 199 "/>
<path id="8" d="M197 189 C197 189 197 199 197 199 C197 199 195.5147 188.7627 196 188 C196.2384 187.6254 203.6923 187.5385 204 188 C204.6923 189.0385 204.6923 198.9615 204 200 C203.6923 200.4615 196 200 196 200 "/>
<path id="9" d="M233 165 L233 210 "/>
<path id="10" d="M235 164 C235 164 280.81 160.9402 284 164 C286.935 166.8152 286.8139 208.3034 284 211 C281.0612 213.8164 236 210 236 210 "/>
<path id="11" d="M253 170 C253 170 253 177 253 177 C253 177 251.6043 168.3957 252 168 C252.4946 167.5054 261 167.5 262 168 C262.25 168.125 262.2921 170.6632 262 173 C261.8174 174.4605 261.4583 175.8333 261 176 C258.7283 176.8261 251 177 251 177 "/>
<path id="12" d="M247 187 C247 187 246.5224 195.1403 247 196 C247.1474 196.2653 251.875 196.25 252 196 C252.5 195 252.6198 187.7045 252 186 C251.8479 185.5816 248 185 248 185 "/>
<path id="13" d="M271 189 C271 189 270.5224 197.1403 271 198 C271.1474 198.2653 275.8526 198.2653 276 198 C276.4776 197.1403 276.5192 189.7788 276 189 C275.7692 188.6538 270 189 270 189 "/>
<path id="14" d="M302 163 L302 211 "/>
<path id="15" d="M301 164 C301 164 313.8347 164.3897 314 165 C315.7185 171.3453 315.5095 206.5425 314 212 C313.8845 212.4175 301.0585 212.0195 301 212 C300.9865 211.9955 305 209 305 209 "/>
<path id="16" d="M327 165 C327 165 330.5696 169.696 331 174 C332.8819 192.8187 332 215 332 215 C332 215 329.4385 168.7997 331 163 C331.1219 162.5472 342.1334 162.5167 346 163 C346.3222 163.0403 346.9815 164.094 347 165 C347.4301 186.0757 348.4082 206.4845 347 212 C346.9082 212.3595 335 212 335 212 "/>
</g>
</g>
</svg>
