<?xml version="1.0" encoding="utf-8"?>
<!DOCTYPE svg PUBLIC "-//W3C//DTD SVG 1.1//EN" "http://www.w3.org/Graphics/SVG/1.1/DTD/svg11.dtd">
<svg viewBox="0 0 800 800" preserveAspectRatio="xMinYMin meet" xmlns="http://www.w3.org/2000/svg" version="1.1">
<g fill="none" stroke="black" stroke-linecap="round" stroke-linejoin="round" stroke-width="1.8769">
<g transform="translate(264.1391,87.52) scale(1.5984) translate(-184,-72)">
<path id="0" d="M184 76 C184 76 187.7114 88.5912 188 101 C192.1644 280.0703 193 463 193 463 "/>
<path id="1" d="M185 77 L333 74 "/>
<path id="2" d="M194 462 C194 462 205.5869 458.4795 217 458 C264.3125 456.0121 265.1777 456.6112 313 457 C326.4593 457.1094 326.8114 459 340 459 C346.8385 459 354 457 354 457 "/>
<path id="3" d="M340 75 C340 75 338.6739 216.268 341 357 C341.6688 397.4619 342.5763 400.7672 346 438 C346.2638 440.8685 348.7647 441.2936 349 444 C349.6357 451.3109 348 461 348 461 "/>
<path id="4" d="M338 74 C338 74 334.9028 74.3611 334 74 C333.5938 73.8375 332.9771 72.0458 333 72 C333.0153 71.9694 335 72 335 72 "/>
<path id="5" d="M215 254 L308 255 "/>
<path id="6" d="M223 150 L311 151 "/>
<path id="7" d="M311 151 C311 151 317.5318 154.9783 318 158 C321.742 182.1529 321.5236 206.5159 322 222 C322.007 222.2266 320.0404 222.6635 320 223 C319.2145 229.5461 321.4855 239.0464 319 247 C317.8946 250.5372 310 255 310 255 "/>
<path id="8" d="M224 151 C224 151 218.2699 156.5467 218 161 C215.6822 199.2439 217.1201 208.6446 218 250 C218.0499 252.3431 220 255 220 255 "/>
<path id="9" d="M239 198 L238 173 "/>
<path id="10" d="M247 173 C247 173 247.8235 197.7059 247 201 C246.9485 201.2059 240.2406 201.0802 240 201 C239.9885 200.9962 241 199 241 199 "/>
<path id="11" d="M238 173 C238 173 238.7254 168.0824 239 168 C239.9228 167.7232 248 170 248 170 "/>
<path id="12" d="M280 171 C280 171 279.3486 200.1834 281 205 C281.2294 205.6692 290.8397 206.5802 292 206 C292.4973 205.7514 292.8608 202.4791 293 199 C293.3558 190.1045 293.9136 189.5266 293 181 C292.4762 176.1108 291.1693 171.8769 290 171 C289.0813 170.311 281 172 281 172 "/>
<path id="13" d="M255 231 L267 231 "/>
<path id="14" d="M255 231 C255 231 254.2477 224.5046 255 223 C255.4232 222.1537 257.7899 221.2009 260 221 C262.5203 220.7709 265.4328 221.2707 266 222 C266.8787 223.1297 267 230 267 230 "/>
<path id="15" d="M222 298 L311 298 "/>
<path id="16" d="M225 399 L309 393 "/>
<path id="17" d="M222 299 C222 299 219.3673 306.6543 219 314 C218.3951 326.0974 220.9784 326.8682 220 339 C218.5283 357.2488 214 359.5518 214 376 C214 384.0018 216.4972 386.2938 220 394 C220.9832 396.1631 224 398 224 398 "/>
<path id="18" d="M310 299 C310 299 316.2985 305.8604 319 313 C322.8635 323.2106 323.1331 324.7309 324 336 C325.0722 349.9381 324.4023 350.9767 323 365 C322.4555 370.4455 322.33 371.1608 320 376 C316.1028 384.0941 310 392 310 392 "/>
<path id="19" d="M241 314 C241 314 238.5103 314.271 238 315 C236.0575 317.775 234.4615 319.7314 234 324 C232.6301 336.6713 233.5717 338.723 234 352 C234.0464 353.4378 234.6225 354.8868 235 355 C236.7881 355.5364 241.408 355.864 244 355 C245.248 354.584 246.9441 352.5656 247 351 C247.3258 341.8786 246.8149 338.2525 245 327 C244.4416 323.5377 242 320 242 320 "/>
<path id="20" d="M289 318 C289 318 285.6998 331.1917 286 342 C286.152 347.4732 288.5423 352.6638 290 354 C290.6884 354.631 296.5045 354.0469 298 353 C299.0658 352.2539 300.0893 349.6805 300 347 C299.6371 336.1125 299.7144 330.8718 297 323 C296.1961 320.6688 290 318 290 318 "/>
<path id="21" d="M262 383 C262 383 266 383 266 383 C266 382.9972 261.995 381.0008 262 381 C262.0217 380.9964 276.2466 381.6575 278 381 C278.2466 380.9075 278.8234 376.8114 278 375 C277.002 372.8044 275.165 371.2028 273 370 C271.8866 369.3814 270.2411 369.3317 269 370 C265.0382 372.1333 262.4447 374.2837 260 377 C259.5143 377.5397 260 380 260 380 "/>
</g>
</g>
</svg>
