<?xml version="1.0" encoding="utf-8"?>
<!DOCTYPE svg PUBLIC "-//W3C//DTD SVG 1.1//EN" "http://www.w3.org/Graphics/SVG/1.1/DTD/svg11.dtd">
<svg viewBox="0 0 800 800" preserveAspectRatio="xMinYMin meet" xmlns="http://www.w3.org/2000/svg" version="1.1">
<g fill="none" stroke="black" stroke-linecap="round" stroke-linejoin="round" stroke-width="1.6513">
<g transform="translate(87.52,338.2307) scale(1.8167) translate(-108,-206)">
<path id="0" d="M108 255 C108 255 111.4576 250.3392 112 246 C113.7771 231.7835 110.961 228.5936 113 215 C113.6382 210.7452 116.5662 206.0349 118 206 C207.005 203.8357 377.7283 200.4377 442 207 C444.4529 207.2504 448.5684 223.7896 451 240 C452.9113 252.7418 451 267 451 267 "/>
<path id="1" d="M117 223 C117 223 122.6577 220.1406 128 220 C177.6669 218.693 180.6699 221.2905 231 220 C237.8786 219.8236 238.1313 217.1184 245 217 C323.2108 215.6515 325.1792 215.8432 405 217 C428.4691 217.3401 452 220 452 220 "/>
<path id="2" d="M128 228 C128 228 129.8112 234.3354 129 239 C128.0356 244.5451 125.1843 245.6705 124 251 C123.4781 253.3486 125 257 125 257 "/>
<path id="3" d="M142 230 L144 250 "/>
<path id="4" d="M177 229 L178 257 "/>
<path id="5" d="M197 227 L201 254 "/>
<path id="6" d="M217 228 L220 256 "/>
<path id="7" d="M231 230 L233 262 "/>
<path id="8" d="M254 228 L262 260 "/>
<path id="9" d="M281 229 C281 229 284.3545 232.6436 285 236 C286.5945 244.2913 286 255 286 255 "/>
<path id="10" d="M316 224 L316 254 "/>
<path id="11" d="M345 229 L348 257 "/>
<path id="12" d="M371 233 L373 254 "/>
<path id="13" d="M398 230 C398 230 399.5814 249.0559 401 257 C401.0699 257.3915 403 258 403 258 "/>
<path id="14" d="M424 228 L420 274 "/>
</g>
</g>
</svg>
