<?xml version="1.0" encoding="utf-8"?>
<!DOCTYPE svg PUBLIC "-//W3C//DTD SVG 1.1//EN" "http://www.w3.org/Graphics/SVG/1.1/DTD/svg11.dtd">
<svg viewBox="0 0 800 800" preserveAspectRatio="xMinYMin meet" xmlns="http://www.w3.org/2000/svg" version="1.1">
<g fill="none" stroke="black" stroke-linecap="round" stroke-linejoin="round" stroke-width="2.837">
<g transform="translate(87.52,273.6333) scale(1.0575) translate(-32,-49.1333)">
<path id="0" d="M90 244.1333 C90 244.1333 99.7031 237.8641 110 234.1333 C133.7271 225.5365 134.856 224.4987 159 219.1333 C169.7136 216.7525 170.9414 220.1122 182 218.1333 C217.7169 211.7419 218.3436 211.0474 254 202.1333 C272.1801 197.5883 272.6898 198.0292 290 191.1333 C333.7825 173.6915 334.4631 173.733 377 153.1333 C413.6789 135.3706 412.4975 132.0699 449 114.1333 C470.1594 103.736 471.7884 106.3816 493 96.1333 C515.9754 85.0328 514.8995 81.6743 538 71.1333 C565.8638 58.4188 596 49.1333 596 49.1333 "/>
<path id="1" d="M593 51.1333 C593 51.1333 597.5008 49.6726 598 50.1333 C600.4488 52.3937 605.4818 57.3031 606 63.1333 C608.9104 95.8753 606 140.1333 606 140.1333 "/>
<path id="2" d="M274 223.1333 L290 272.1333 "/>
<path id="3" d="M99 263.1333 C99 263.1333 103.6457 260.4599 108 260.1333 C122.6325 259.0359 124.9088 263.0238 139 260.1333 C161.8559 255.4449 162.6078 249.9054 186 244.1333 C200.114 240.6507 201.6886 244.2903 216 241.1333 C234.9721 236.9483 235.001 233.6569 254 229.1333 C265.9574 226.2863 279 226.1333 279 226.1333 "/>
<path id="4" d="M103 237.1333 C103 237.1333 92.4443 237.3914 83 240.1333 C62.0239 246.2232 60.6193 246.8932 41 255.1333 C36.7268 256.9281 34.3851 258.3632 33 261.1333 C31.2687 264.596 30.8052 270.7437 32 273.1333 C33.1429 275.4191 37.332 277.9663 42 279.1333 C47.6828 280.554 50.8503 280.4208 56 279.1333 C58.6668 278.4666 59.0972 274.9074 62 274.1333 C71.8166 271.5156 74.5471 273.8138 86 271.1333 C97.5318 268.4344 97.6399 265.6894 109 263.1333 C116.8902 261.358 126 262.1333 126 262.1333 "/>
<path id="5" d="M280 244.1333 C280 244.1333 286.3718 252.8874 290 261.1333 C291.4309 264.3854 290.5651 267.9737 291 269.1333 C291.0389 269.2372 292.9784 269.0511 293 269.1333 C293.8135 272.2247 296 288.1333 296 288.1333 "/>
<path id="6" d="M288 223.1333 L304 272.1333 "/>
<path id="7" d="M301 218.1333 C301 218.1333 321.9929 277.1109 322 277.1333 C322.0007 277.1355 318 272.1333 318 272.1333 "/>
<path id="8" d="M322 210.1333 C322 210.1333 323.9472 209.9916 324 210.1333 C328.0618 221.036 333.1456 235.6064 341 261.1333 C343.0845 267.9079 344.002 275.1306 344 275.1333 C343.999 275.1346 338 265.1333 338 265.1333 "/>
<path id="9" d="M340 202.1333 C340 202.1333 355.7411 244.3048 366 277.1333 C366.5785 278.9846 365.506 281.5009 365 282.1333 C364.7906 282.395 362.1203 282.3438 362 282.1333 C361.4688 281.2038 362.2159 277.7678 361 275.1333 C359.6462 272.2001 356 269.1333 356 269.1333 "/>
<path id="10" d="M360 194.1333 C360 194.1333 361.5607 207.9254 366 220.1333 C373.3319 240.2962 375.5831 240.093 384 260.1333 C385.9927 264.878 385.7881 265.2856 387 270.1333 C387.2255 271.0352 387 272.1333 387 272.1333 C386.9786 272.1333 385 270.1333 385 270.1333 "/>
<path id="11" d="M303 253.1333 C303 253.1333 304.3084 267.8287 307 280.1333 C307.5462 282.6301 310 285.1333 310 285.1333 "/>
<path id="12" d="M287 221.1333 C287 221.1333 291.4647 222.0691 295 221.1333 C307.5424 217.8133 308.4983 217.4118 321 212.1333 C330.7422 208.02 330.2734 205.8913 340 202.1333 C351.786 197.5796 353.5533 200.0711 365 195.1333 C378.265 189.4112 377.5038 186.1316 391 180.1333 C426.4848 164.3623 429.02 166.5896 464 151.1333 C470.9202 148.0756 471.6023 146.8563 477 142.1333 C478.907 140.4647 478.0216 138.5881 480 137.1333 C509.0664 115.761 511.7975 110.0568 545 92.1333 C566.0601 80.7646 570.1565 85.0384 593 76.1333 C598.7823 73.8792 604 69.1333 604 69.1333 "/>
<path id="13" d="M382 191.1333 C382 191.1333 389.4062 209.9968 395 229.1333 C398.8479 242.2972 397.4509 243.5144 401 256.1333 C401.723 258.7039 403.9924 261.1333 404 261.1333 C404 261.1333 404 256.1333 404 256.1333 "/>
<path id="14" d="M401 180.1333 C401 180.1333 398.99 180.1075 399 180.1333 C399.2774 180.8467 404.5298 188.8795 408 198.1333 C414.8998 216.5328 413.3383 217.5507 420 236.1333 C422.7574 243.825 426.9999 251.1332 427 251.1333 C427.0001 251.1334 424 241.1333 424 241.1333 "/>
<path id="15" d="M421 169.1333 C421 169.1333 428.1237 176.2384 433 184.1333 C438.3434 192.7846 438.3523 193.4061 442 203.1333 C448.7656 221.1748 454 240.1333 454 240.1333 "/>
<path id="16" d="M451 157.1333 C451 157.1333 457.5722 165.3734 461 174.1333 C466.2664 187.5919 464.0105 189.1628 469 203.1333 C473.9 216.8532 481 230.1333 481 230.1333 "/>
<path id="17" d="M476 149.1333 C476 149.1333 481.4862 157.3489 485 166.1333 C494.3473 189.5016 502 214.1333 502 214.1333 "/>
<path id="18" d="M491 131.1333 C491 131.1333 492.975 131.0583 493 131.1333 C493.225 131.8083 492.0631 134.9472 493 137.1333 C495.9446 144.0041 499.0351 144.3061 502 152.1333 C511.1898 176.3945 511.7277 185.0133 518 203.1333 C518.1877 203.6757 519.9978 204.1421 520 204.1333 C520.0208 204.05 519 199.1333 519 199.1333 "/>
<path id="19" d="M506 121.1333 C506 121.1333 517.475 129.5349 522 139.1333 C532.6316 161.6853 539 191.1333 539 191.1333 "/>
<path id="20" d="M525 108.1333 C525 108.1333 531.8056 115.4668 535 123.1333 C538.8471 132.3665 537.0857 135.3903 540 144.1333 C540.5143 145.6762 542.3886 145.5174 543 147.1333 C548.6426 162.046 554 181.1333 554 181.1333 "/>
<path id="21" d="M545 96.1333 C545 96.1333 550.0385 105.5159 556 113.1333 C558.672 116.5476 561.5039 115.816 563 119.1333 C571.5311 138.0502 573.0574 149.7459 579 164.1333 C579.2578 164.7576 581.8466 165.2484 582 165.1333 C582.2728 164.9287 583 161.1333 583 161.1333 "/>
<path id="22" d="M567 85.1333 C567 85.1333 575.5389 92.1857 579 100.1333 C588.1605 121.1685 586.2929 124.012 594 147.1333 C594.6917 149.2083 596 151.1333 596 151.1333 C596.0028 151.1319 596 146.1333 596 146.1333 "/>
<path id="23" d="M589 74.1333 C589 74.1333 599.7226 99.5007 606 123.1333 C607.7595 129.7574 606 138.1333 606 138.1333 "/>
<path id="24" d="M603 69.1333 C603 69.1333 606.8004 71.4143 608 74.1333 C613.562 86.7405 614.5253 88.5398 618 103.1333 C621.8965 119.4985 623 137.1333 623 137.1333 "/>
<path id="25" d="M600 73.1333 C600 73.1333 598.6609 75.429 599 76.1333 C603.1393 84.7304 609.6248 88.3202 613 100.1333 C617.8389 117.0695 617 139.1333 617 139.1333 "/>
<path id="26" d="M412 172.1333 C412 172.1333 424.6281 204.2198 435 236.1333 C437.4633 243.7127 437.9998 252.1328 438 252.1333 C438.0001 252.1335 438 246.1333 438 246.1333 "/>
<path id="27" d="M441 166.1333 C441 166.1333 441.4414 175.1085 444 183.1333 C452.2728 209.0797 463 235.1333 463 235.1333 "/>
<path id="28" d="M464 152.1333 C464 152.1333 470.9331 157.7119 475 164.1333 C479.946 171.9429 481.8941 173.5624 483 182.1333 C485.5567 201.9481 483 226.1333 483 226.1333 "/>
<path id="29" d="M485 137.1333 C485 137.1333 484.1168 141.2197 485 143.1333 C486.438 146.2491 489.0927 146.3186 491 150.1333 C498.6294 165.3921 498.4519 166.5705 505 183.1333 C506.9008 187.9413 507.4128 188.24 508 193.1333 C508.8502 200.2183 507.3093 201.9168 508 208.1333 C508.1484 209.4687 509.9982 211.1351 510 211.1333 C510.0088 211.1245 510 206.1333 510 206.1333 "/>
<path id="30" d="M498 123.1333 C498 123.1333 507.9218 138.33 514 154.1333 C520.1285 170.0675 520.8686 181.5454 523 188.1333 C523.0374 188.2488 524.9586 188.0175 525 188.1333 C525.873 190.5777 528.0001 202.133 528 202.1333 C527.9999 202.1335 524 192.1333 524 192.1333 "/>
<path id="31" d="M517 112.1333 C517 112.1333 520.992 114.2468 523 117.1333 C528.4626 124.9859 529.1392 125.8324 533 135.1333 C539.9684 151.9209 541.083 153.1596 545 170.1333 C546.7631 177.7732 545 187.1333 545 187.1333 "/>
<path id="32" d="M535 101.1333 C535 101.1333 538.7085 102.3253 540 104.1333 C542.8637 108.1425 541.7333 110.3695 545 115.1333 C553.3833 127.359 558.7319 127.122 564 139.1333 C569.8055 152.3699 570 172.1333 570 172.1333 "/>
<path id="33" d="M554 87.1333 C554 87.1333 565.1252 95.6144 572 105.1333 C577.2731 112.4346 577.645 118.8944 580 123.1333 C580.1166 123.3432 581.9933 123.0893 582 123.1333 C582.7366 127.995 585 156.1333 585 156.1333 "/>
<path id="34" d="M581 83.1333 C581 83.1333 584.7445 84.2502 586 86.1333 C591.6165 94.5581 594.1014 96.626 597 107.1333 C601.6286 123.9119 602 144.1333 602 144.1333 "/>
<path id="35" d="M313 220.1333 C313 220.1333 320.7401 227.2553 324 235.1333 C332.0663 254.6269 337 278.1333 337 278.1333 "/>
<path id="36" d="M332 205.1333 L353 272.1333 "/>
<path id="37" d="M353 201.1333 L372 266.1333 "/>
<path id="38" d="M371 197.1333 L393 264.1333 "/>
<path id="39" d="M391 182.1333 L416 254.1333 "/>
<path id="40" d="M416 173.1333 C416 173.1333 422.5726 175.9149 426 180.1333 C434.6111 190.7316 438.0594 193.5579 442 205.1333 C444.8473 213.4974 440.7413 217.0634 442 227.1333 C442.6008 231.9395 446 237.1333 446 237.1333 "/>
<path id="41" d="M432 166.1333 C432 166.1333 438.6601 179.5349 443 193.1333 C446.0264 202.6162 447 213.1333 447 213.1333 "/>
<path id="42" d="M446 164.1333 C446 164.1333 452.0575 171.3655 455 178.1333 C456.5498 181.6979 454.7043 183.0304 456 187.1333 C460.5165 201.4356 464.0084 201.9232 467 216.1333 C469.695 228.9344 468.0001 244.1317 468 244.1333 C468 244.1338 466 236.1333 466 236.1333 "/>
<path id="43" d="M462 154.1333 C462 154.1333 464.9984 171.3296 471 185.1333 C474.4007 192.9549 478.4886 192.2744 482 200.1333 C488.4301 214.5245 492 232.1333 492 232.1333 "/>
</g>
</g>
</svg>
