<?xml version="1.0" encoding="utf-8"?>
<!DOCTYPE svg PUBLIC "-//W3C//DTD SVG 1.1//EN" "http://www.w3.org/Graphics/SVG/1.1/DTD/svg11.dtd">
<svg viewBox="0 0 800 800" preserveAspectRatio="xMinYMin meet" xmlns="http://www.w3.org/2000/svg" version="1.1">
<g fill="none" stroke="black" stroke-linecap="round" stroke-linejoin="round" stroke-width="1.5697">
<g transform="translate(87.52,284.3728) scale(1.9112) translate(-45,-196.1333)">
<path id="0" d="M45 265.1333 C45 265.1333 50.3398 266.643 52 269.1333 C57.8107 277.8493 56.378 281.8324 63 292.1333 C69.449 302.1651 72.989 302.2936 79 311.1333 C80.3438 313.1095 79.7657 317.0694 80 317.1333 C80.8161 317.3559 87.2662 315.9559 90 314.1333 C91.215 313.3233 90.7506 309.9365 92 309.1333 C95.4915 306.8888 101.6841 306.4843 104 305.1333 C104.2828 304.9684 103.7926 302.2148 104 302.1333 C109.4798 299.9805 117.948 296.3946 132 294.1333 C160.7714 289.5035 161.6907 292.0587 191 288.1333 C217.5657 284.5754 217.5012 282.0776 244 279.1333 C271.153 276.1163 271.6879 278.5611 299 276.1333 C316.5162 274.5763 316.8571 274.7048 334 271.1333 C352.5897 267.2605 368.5602 265.8203 371 261.1333 C376.2965 250.9586 372 198.1333 372 198.1333 "/>
<path id="1" d="M45 263.1333 C45 263.1333 53.2154 261.5385 58 263.1333 C63.03 264.81 65.7642 266.6391 69 271.1333 C73.4798 277.3552 72.9954 285.8116 76 288.1333 C78.2382 289.8628 83.5155 288.3472 91 288.1333 C100.9936 287.8478 103.6573 288.6631 111 287.1333 C112.7562 286.7675 112.8804 283.9812 115 283.1333 C123.8569 279.5906 125.751 277.8321 136 277.1333 C168.0743 274.9464 170.018 278.5831 203 277.1333 C214.901 276.6102 223.0123 274.1303 227 273.1333 C227.0798 273.1134 226.8636 271.1879 227 271.1333 C229.8294 270.0016 234.6599 267.585 242 267.1333 C266.0718 265.652 267.8386 269.4073 292 267.1333 C309.2768 265.5073 309.7725 262.0657 327 259.1333 C332.6854 258.1656 335.307 260.7161 339 259.1333 C342.9568 257.4376 344.3281 252.8873 348 250.1333 C348.6994 249.6088 350.9631 250.2624 351 250.1333 C351.9403 246.8424 351.4365 238.426 354 229.1333 C355.1015 225.1403 357.9458 224.9986 359 221.1333 C360.6068 215.2417 357.8234 211.6678 360 207.1333 C362.4471 202.0352 371 196.1333 371 196.1333 "/>
<path id="2" d="M74 255.1333 L79 284.1333 "/>
<path id="3" d="M83 254.1333 L93 292.1333 "/>
<path id="4" d="M98 248.1333 L110 296.1333 "/>
<path id="5" d="M120 249.1333 C120 249.1333 120.2144 258.705 123 266.1333 C125.8241 273.6642 132 281.1333 132 281.1333 "/>
<path id="6" d="M136 245.1333 C136 245.1333 138.9071 259.5508 144 272.1333 C147.14 279.8909 153 287.1333 153 287.1333 "/>
<path id="7" d="M165 265.1333 L169 270.1333 "/>
<path id="8" d="M146 240.1333 L162 276.1333 "/>
<path id="9" d="M171 239.1333 C171 239.1333 171.7567 251.2879 175 260.1333 C176.6698 264.6873 179.8667 265.1715 182 269.1333 C182.6683 270.3744 182 273.1333 182 273.1333 "/>
<path id="10" d="M189 234.1333 C189 234.1333 189.5265 240.4955 192 245.1333 C197.091 254.679 200.4811 255.0955 205 264.1333 C206.6835 267.5004 206 273.1333 206 273.1333 "/>
<path id="11" d="M209 234.1333 C209 234.1333 215.0188 243.1896 218 252.1333 C220.2241 258.8056 220 267.1333 220 267.1333 "/>
<path id="12" d="M222 229.1333 C222 229.1333 229.1142 236.3618 233 244.1333 C237.1701 252.4736 239 263.1333 239 263.1333 "/>
<path id="13" d="M239 226.1333 C239 226.1333 245.427 232.537 249 239.1333 C251.4494 243.6553 250.4616 247.496 252 250.1333 C252.4022 250.8228 254.8187 250.1338 256 251.1333 C260.2563 254.7348 265 261.1333 265 261.1333 "/>
<path id="14" d="M263 225.1333 L298 264.1333 "/>
<path id="15" d="M292 217.1333 C292 217.1333 294.3715 225.8302 298 231.1333 C299.9619 234.0007 302.7488 233.0991 305 236.1333 C313.3637 247.4061 321 262.1333 321 262.1333 "/>
<path id="16" d="M318 212.1333 C318 212.1333 328.3994 220.5058 336 230.1333 C342.9548 238.9428 348 250.1333 348 250.1333 "/>
</g>
</g>
</svg>
