<?xml version="1.0" encoding="utf-8"?>
<!DOCTYPE svg PUBLIC "-//W3C//DTD SVG 1.1//EN" "http://www.w3.org/Graphics/SVG/1.1/DTD/svg11.dtd">
<svg viewBox="0 0 800 800" preserveAspectRatio="xMinYMin meet" xmlns="http://www.w3.org/2000/svg" version="1.1">
<g fill="none" stroke="black" stroke-linecap="round" stroke-linejoin="round" stroke-width="1.7713">
<g transform="translate(87.52,309.3893) scale(1.6937) translate(-81,-142)">
<path id="0" d="M89 232 C89 232 81.2629 175.8205 81 154 C80.9835 152.6265 84.4449 150.5554 88 149 C91.8211 147.3283 92.5356 147.2551 97 147 C126.9352 145.2894 127.5328 145 158 145 C231.421 145 231.5319 147 305 147 C367.9726 147 395.6875 142.8598 431 145 C432.8532 145.1123 435.263 150.3681 437 155 C437.8508 157.2687 436.1753 158.4626 437 161 C442.2537 177.1654 446.5511 178.5513 450 195 C452.6295 207.5406 450.8376 214.6239 450 223 C449.9312 223.688 448.4284 224.7322 447 225 C441.4186 226.0465 437.05 226.2179 434 226 C433.7304 225.9807 433.319 224.0375 433 224 C428.8683 223.5139 424.1695 225.3876 417 224 C409.7583 222.5984 408.8769 218.809 402 218 C393.7838 217.0334 391.2846 220.3186 383 220 C379.8849 219.8802 378.8144 219.0103 376 217 C372.3061 214.3615 370.8841 213.7683 369 210 C364.6037 201.2073 363.2553 199.222 362 189 C359.9326 172.1657 362 153 362 153 "/>
<path id="1" d="M425 155 C425 155 421.6317 154.1453 420 155 C412.898 158.7201 411.0406 162.1277 404 166 C402.7228 166.7025 400.5734 165.4266 400 166 C397.7063 168.2937 394 172.7104 394 176 C394 181.2634 396.2343 185.6272 400 192 C401.9529 195.305 405.6109 195.4202 407 198 C407.9954 199.8485 406.0834 202.6168 407 205 C408.0375 207.6975 410.524 210.4633 412 211 C413.0837 211.3941 415.7933 210.5762 418 209 C422.0738 206.0901 425.3126 204.4372 426 201 C428.6638 187.6808 427.4047 180.9954 427 164 C426.9448 161.68 425 159 425 159 "/>
<path id="2" d="M93 151 C93 151 92.6018 162.8143 94 174 C95.0581 182.4648 94.9133 183.2833 98 191 C101.6509 200.1272 105.6459 200.8916 108 209 C109.4313 213.9301 107 222 107 222 "/>
<path id="3" d="M113 149 C113 149 116.6167 158.4707 118 168 C121.0561 189.0533 122 211 122 211 "/>
<path id="4" d="M132 158 C132 158 136.0588 163.5094 137 169 C141.7788 196.8762 144 228 144 228 C144 228 140 206 140 206 "/>
<path id="5" d="M156 142 C156 142 156.0561 159.9255 159 177 C163.4816 202.9931 171 229 171 229 "/>
<path id="6" d="M180 167 C180 167 183.078 193.9418 189 218 C190.7497 225.1082 193.4719 224.8755 196 232 C198.8249 239.961 200 249 200 249 "/>
<path id="7" d="M181 163 C181 163 177.4949 160.732 177 159 C176.0378 155.6322 177 149 177 149 "/>
<path id="8" d="M195 151 L215 211 "/>
<path id="9" d="M222 150 C222 150 225.3856 178.7472 232 203 C233.802 209.6072 240 216 240 216 "/>
<path id="10" d="M253 148 L262 193 "/>
<path id="11" d="M274 148 C274 148 275.2307 178.3292 278 208 C278.7009 215.5094 280.9996 222.9996 281 223 C281.0003 223.0003 281 211 281 211 "/>
<path id="12" d="M294 158 L304 223 "/>
<path id="13" d="M321 161 L325 232 "/>
<path id="14" d="M342 159 L348 224 "/>
</g>
</g>
</svg>
