<?xml version="1.0" encoding="utf-8"?>
<!DOCTYPE svg PUBLIC "-//W3C//DTD SVG 1.1//EN" "http://www.w3.org/Graphics/SVG/1.1/DTD/svg11.dtd">
<svg viewBox="0 0 800 800" preserveAspectRatio="xMinYMin meet" xmlns="http://www.w3.org/2000/svg" version="1.1">
<g fill="none" stroke="black" stroke-linecap="round" stroke-linejoin="round" stroke-width="0.85925">
<g transform="translate(87.52,309.2237) scale(3.4914) translate(-155,-162.4167)">
<path id="0" d="M160 212.4167 C160 212.4167 158.6266 188.6374 162 179.4167 C163.2757 175.9297 169.2722 171.7013 175 171.4167 C238.2736 168.2726 304.9533 166.4508 323 171.4167 C324.4976 171.8288 324.5593 200.3926 324 212.4167 C323.9708 213.0448 321 214.4167 321 214.4167 "/>
<path id="1" d="M318 173.4167 L318 204.4167 "/>
<path id="2" d="M318 204.4167 L318 212.4167 "/>
<path id="3" d="M312 171.4167 L312 210.4167 "/>
<path id="4" d="M307 170.4167 L307 210.4167 "/>
<path id="5" d="M300 168.4167 L301 209.4167 "/>
<path id="6" d="M295 169.4167 L295 207.4167 "/>
<path id="7" d="M290 168.4167 L290 206.4167 "/>
<path id="8" d="M283 170.4167 L284 209.4167 "/>
<path id="9" d="M277 168.4167 L277 203.4167 "/>
<path id="10" d="M271 168.4167 L270 206.4167 "/>
<path id="11" d="M267 168.4167 L268 208.4167 "/>
<path id="12" d="M259 172.4167 L262 207.4167 "/>
<path id="13" d="M248 169.4167 L248 204.4167 "/>
<path id="14" d="M239 171.4167 L238 207.4167 "/>
<path id="15" d="M227 169.4167 C227 169.4167 228.2992 181.9975 227 191.4167 C226.554 194.6499 223.7725 195.1338 223 198.4167 C222.0273 202.5507 223 208.4167 223 208.4167 "/>
<path id="16" d="M215 170.4167 L215 204.4167 "/>
<path id="17" d="M202 172.4167 L202 209.4167 "/>
<path id="18" d="M191 172.4167 L192 206.4167 "/>
<path id="19" d="M182 173.4167 L182 205.4167 "/>
<path id="20" d="M171 173.4167 L171 211.4167 "/>
<path id="21" d="M156 211.4167 C156 211.4167 153.8061 191.8636 155 181.4167 C155.2226 179.4691 158.5814 179.0962 160 176.4167 C162.6189 171.4699 162.9098 164.5143 164 164.4167 C191.9284 161.9156 259.9735 164.9362 294 164.4167 C294.2697 164.4126 294.734 162.4233 295 162.4167 C304.8748 162.1698 331.9472 160.8375 334 163.4167 C337.0753 167.2805 334 211.4167 334 211.4167 "/>
</g>
</g>
</svg>
