<?xml version="1.0" encoding="utf-8"?>
<!DOCTYPE svg PUBLIC "-//W3C//DTD SVG 1.1//EN" "http://www.w3.org/Graphics/SVG/1.1/DTD/svg11.dtd">
<svg viewBox="0 0 800 800" preserveAspectRatio="xMinYMin meet" xmlns="http://www.w3.org/2000/svg" version="1.1">
<g fill="none" stroke="black" stroke-linecap="round" stroke-linejoin="round" stroke-width="1.8385">
<g transform="translate(236.8251,87.52) scale(1.6317) translate(-196,-98.1333)">
<path id="0" d="M208 129.1333 C208 129.1333 203.4926 131.8099 201 135.1333 C197.9535 139.1953 196.7377 140.4121 196 145.1333 C194.4947 154.7675 193.821 158.1751 196 167.1333 C197.7025 174.1326 204.983 182.1518 205 182.1333 C205.0784 182.0484 204.7219 166.0537 208 154.1333 C209.6149 148.261 213.0904 145.3075 216 142.1333 C216.4139 141.6818 219 142.1333 219 142.1333 "/>
<path id="1" d="M207 131.1333 C207 131.1333 209.675 120.1654 214 112.1333 C216.0456 108.3344 217.1772 107.3633 221 105.1333 C228.2719 100.8914 229.961 98.9509 238 98.1333 C257.0167 96.1994 262.7119 96.4736 280 99.1333 C284.5429 99.8322 286.3425 102.0695 290 106.1333 C294.6175 111.2639 298 119.1333 298 119.1333 "/>
<path id="2" d="M216 144.1333 C216 144.1333 214.3849 151.7564 216 155.1333 C218.5343 160.4323 222.0867 165.407 227 167.1333 C235.5089 170.1229 240.6644 168.5071 253 168.1333 C256.3538 168.0317 256.8484 167.6507 260 166.1333 C270.0117 161.3129 271.2543 161.6926 280 155.1333 C290.6032 147.1809 291.8579 145.9039 300 136.1333 C303.4623 131.9786 305.1543 128.065 305 125.1333 C304.8805 122.8627 299 117.1333 299 117.1333 "/>
<path id="3" d="M225 167.1333 C225 167.1333 225.9788 171.2385 228 173.1333 C233.0237 177.843 241 182.1333 241 182.1333 "/>
<path id="4" d="M302 123.1333 C302 123.1333 311.186 133.9704 319 145.1333 C321.4894 148.6897 322.1556 149.3334 323 153.1333 C323.95 157.4083 323 163.1333 323 163.1333 "/>
<path id="5" d="M302 161.1333 C302 161.1333 307.4551 159.8673 311 161.1333 C319.8903 164.3084 320.9814 165.6058 330 171.1333 C336.2864 174.9863 337.5037 174.9176 342 180.1333 C349.2535 188.5474 350.5362 189.6302 355 200.1333 C367.0536 228.4948 371.3579 230.9545 376 260.1333 C381.2767 293.3011 376 332.1333 376 332.1333 "/>
<path id="6" d="M324 165.1333 L322 159.1333 "/>
<path id="7" d="M242 182.1333 C242 182.1333 236.602 192.8991 236 203.1333 C233.7163 241.9557 231.9592 247.093 236 284.1333 C237.512 297.9933 240.2633 300.2388 248 313.1333 C259.1563 331.7271 263.1697 331.3879 275 349.1333 C277.4099 352.7481 278 358.1333 278 358.1333 "/>
<path id="8" d="M253 231.1333 C253 231.1333 252.1519 266.2088 253 300.1333 C253.1358 305.5662 253.0333 306.2166 255 311.1333 C261.7334 327.9668 264.5396 329.3862 271 345.1333 C271.7963 347.0743 271 350.1333 271 350.1333 "/>
<path id="9" d="M310 200.1333 C310 200.1333 325.5939 218.0281 337 237.1333 C345.1083 250.7147 344.4512 251.874 350 267.1333 C358.3813 290.182 360.9972 291.1839 365 314.1333 C368.1463 332.1723 364.9999 353.1315 365 353.1333 C365 353.1336 364.8239 349.5446 366 348.1333 C370.9731 342.1656 377.7408 340.5207 380 335.1333 C382.1047 330.1143 379 317.1333 379 317.1333 "/>
<path id="10" d="M253 274.1333 C253 274.1333 251.53 294.8607 253 312.1333 C253.3613 316.3789 254.3054 317.3608 257 321.1333 C263.9152 330.8146 267.3672 330.5576 273 340.1333 C276.4403 345.9818 273.7373 349.0157 277 355.1333 C281.0753 362.7744 284.6108 362.048 289 370.1333 C303.1002 396.1074 300.997 398.5277 315 425.1333 C320.7836 436.1222 323.3201 435.2674 329 446.1333 C334.5568 456.7638 338 469.1333 338 469.1333 "/>
<path id="11" d="M367 313.1333 C367 313.1333 368.19 337.1105 367 358.1333 C366.784 361.9501 364.3986 362.2798 364 366.1333 C362.9926 375.8712 362.0776 377.5215 364 387.1333 C367.3138 403.7024 371.2148 404.6162 375 421.1333 C376.451 427.465 373.01 429.4477 375 435.1333 C382.5832 456.7995 395.9056 480.5806 396 481.1333 C396.0141 481.2157 388.3026 479.4816 382 476.1333 C372.7767 471.2335 371.3425 470.0073 364 464.1333 C362.6166 463.0266 362.0036 460.1209 362 460.1333 C361.9766 460.2129 359 481.1333 359 481.1333 "/>
<path id="12" d="M336 466.1333 C336 466.1333 335.3208 468.8598 336 470.1333 C338.5923 474.9939 344 481.1333 344 481.1333 "/>
<path id="13" d="M240 121.1333 C240 121.1333 236.9427 126.9614 237 127.1333 C237.0191 127.1906 241.4723 127.5731 242 127.1333 C242.5453 126.6789 243.0746 122.5062 243 122.1333 C242.9938 122.1023 241 122.1333 241 122.1333 "/>
<path id="14" d="M287 311.1333 C287 311.1333 282.9413 323.5454 284 326.1333 C284.9154 328.3711 296 333.1333 296 333.1333 "/>
<path id="15" d="M293 331.1333 L289 337.1333 "/>
<path id="16" d="M287 330.1333 L287 339.1333 "/>
<path id="17" d="M323 293.1333 C323 293.1333 318.6435 307.3856 320 312.1333 C320.9079 315.3109 331 321.1333 331 321.1333 "/>
<path id="18" d="M324 314.1333 L322 324.1333 "/>
<path id="19" d="M319 313.1333 C319 313.1333 319.2049 318.0007 318 321.1333 C317.0604 323.5762 314 326.1333 314 326.1333 "/>
<path id="20" d="M285 327.1333 L285 338.1333 "/>
</g>
</g>
</svg>
