<?xml version="1.0" encoding="utf-8"?>
<!DOCTYPE svg PUBLIC "-//W3C//DTD SVG 1.1//EN" "http://www.w3.org/Graphics/SVG/1.1/DTD/svg11.dtd">
<svg viewBox="0 0 800 800" preserveAspectRatio="xMinYMin meet" xmlns="http://www.w3.org/2000/svg" version="1.1">
<g fill="none" stroke="black" stroke-linecap="round" stroke-linejoin="round" stroke-width="2.4002">
<g transform="translate(87.52,218.7616) scale(1.2499) translate(-118,-138.1333)">
<path id="0" d="M183 180.1333 C183 180.1333 180.9785 176.4524 179 175.1333 C177.4711 174.1141 176.4661 174.2214 174 174.1333 C162.7366 173.7311 160.1706 172.0372 151 174.1333 C145.4863 175.3936 144.5013 177.7323 139 182.1333 C134.6946 185.5777 133.0187 185.7931 131 190.1333 C124.0106 205.1605 123.9934 207.8484 119 225.1333 C117.6644 229.7566 117.9858 235.1416 118 235.1333 C118.0475 235.1056 123.8672 223.8856 131 218.1333 C137.5298 212.8674 140.3725 212.1053 149 210.1333 C156.3967 208.4426 159.3003 208.7376 166 210.1333 C169.1692 210.7936 173 215.1333 173 215.1333 "/>
<path id="1" d="M141 216.1333 C141 216.1333 144.0136 224.4712 146 225.1333 C151.4627 226.9542 158.6495 227.0034 168 225.1333 C174.1203 223.9093 175.0135 221.8749 181 218.1333 C182.6797 217.0835 184 215.1655 184 215.1333 C184 215.1333 181 215.1333 181 215.1333 "/>
<path id="2" d="M180 173.1333 C180 173.1333 179.7021 158.7718 182 152.1333 C182.7863 149.8617 185.2915 148.7066 189 147.1333 C201.1235 141.99 202.3505 140.0629 215 138.1333 C230.2499 135.8071 236.5066 135.6705 248 138.1333 C251.8062 138.949 254.8121 142.3715 257 147.1333 C262.2761 158.6166 262.8031 161.4027 265 175.1333 C266.6507 185.4501 266.4128 186.9611 265 197.1333 C264.0563 203.9277 263.434 205.1811 260 211.1333 C256.3861 217.3974 250 223.1333 250 223.1333 "/>
<path id="3" d="M200 167.1333 C200 167.1333 194.846 169.4414 194 171.1333 C193.0332 173.067 193.231 178.4284 194 179.1333 C195.5468 180.5512 205.264 182.5296 206 182.1333 C206.4525 181.8897 207.6686 173.0248 207 172.1333 C206.3133 171.2178 197 170.1333 197 170.1333 "/>
<path id="4" d="M196 174.1333 L198 178.1333 "/>
<path id="5" d="M178 221.1333 C178 221.1333 178.4968 224.5145 180 226.1333 C184.2121 230.6694 186.1376 234.0914 191 235.1333 C202.659 237.6317 207.2259 236.2144 222 235.1333 C226.8705 234.777 227.854 234.4767 232 232.1333 C238.612 228.3961 238.4976 226.0348 245 222.1333 C247.8063 220.4496 252 220.1333 252 220.1333 "/>
<path id="6" d="M263 209.1333 C263 209.1333 268.687 205.6926 274 205.1333 C286.5603 203.8112 288.9952 202.4656 301 205.1333 C318.3897 208.9977 322.3008 209.0913 337 219.1333 C370.0909 241.74 370.3544 245.8348 402 274.1333 C422.2265 292.2205 420.2418 295.3852 441 312.1333 C463.536 330.3158 469.0331 332.0785 490 345.1333 C491.2059 345.8842 494 345.1333 494 345.1333 "/>
<path id="7" d="M200 237.1333 C200 237.1333 198 237.1333 198 237.1333 C198 238.7908 198.059 248.3104 200 254.1333 C200.6226 256.0011 203.3901 255.7463 205 258.1333 C217.0512 276.0023 215.7606 280.4265 229 297.1333 C235.4496 305.2721 246.8828 310.8013 247 311.1333 C247.0071 311.1535 234.9785 314.0967 235 314.1333 C235.143 314.3765 245.4862 323.9185 257 328.1333 C299.3978 343.6539 302.6918 348.5775 347 355.1333 C397.1067 362.5471 405.0617 355.3901 453 357.1333 C454.8406 357.2003 455.2075 359.096 457 359.1333 C476.505 359.5397 501 358.1333 501 358.1333 "/>
<path id="8" d="M204 261.1333 C204 261.1333 203.0439 266.0698 204 270.1333 C206.8558 282.2707 206.4618 283.8519 212 295.1333 C219.5293 310.4707 220.857 310.9331 231 325.1333 C235.6226 331.6049 236.4984 332.3194 242 337.1333 C243.7273 338.6447 246.9745 338.9297 247 339.1333 C247.0533 339.5601 242.8281 344.6606 243 345.1333 C243.2991 345.9559 250.7609 350.0437 251 350.1333 C251.0182 350.1401 250.9689 348.1395 251 348.1333 C251.3728 348.0588 253.7164 348.2362 256 349.1333 C267.4026 353.6129 267.2567 355.0683 279 359.1333 C306.0198 368.4864 307.1415 373.1491 334 376.1333 C380.2679 381.2742 384.1014 377.7709 432 376.1333 C441.3533 375.8136 442.22 372.1333 451 372.1333 C460.7042 372.1333 472 376.1333 472 376.1333 "/>
<path id="9" d="M499 346.1333 C499 346.1333 520.7337 352.5115 542 355.1333 C556.4637 356.9165 558.512 352.9312 572 355.1333 C581.1297 356.6239 588.2161 362.2981 591 363.1333 C591.052 363.1489 591.6476 361.2038 592 361.1333 C594.2656 360.6802 599.9279 360.8951 601 361.1333 C601.0529 361.1451 600.8626 363.0723 601 363.1333 C602.5286 363.8127 606.4511 365.1333 610 365.1333 C611.5773 365.1333 613.9882 363.1157 614 363.1333 C614.141 363.3449 614.8743 368.5105 614 371.1333 C613.4172 372.8819 612.2492 373.8481 610 375.1333 C598.9584 381.4428 597.3926 385.4692 586 387.1333 C557.1806 391.3429 529.3532 387.6193 521 388.1333 C520.9763 388.1348 521.0462 391.1276 521 391.1333 C518.0462 391.5026 508.2987 392.1605 497 391.1333 C492.6346 390.7365 489.7651 389.114 488 388.1333 C487.8161 388.0312 488.1017 386.1672 488 386.1333 C486.0679 385.4893 478.996 385.2856 476 384.1333 C475.4946 383.939 475.3402 381.2062 475 381.1333 C472.3084 380.5566 467.8534 382.0113 462 381.1333 C458.6456 380.6302 456.2529 377.9055 455 378.1333 C454.0471 378.3066 451 383.1333 451 383.1333 "/>
<path id="10" d="M182 180.1333 C182 180.1333 183.5622 201.9482 182 214.1333 C181.7408 216.155 177 219.1333 177 219.1333 "/>
<path id="11" d="M296 350.1333 C296 350.1333 303.4229 354.0412 309 359.1333 C314.5085 364.1628 319.132 370.5392 319 371.1333 C318.877 371.6869 311.7271 375.6384 305 377.1333 C299.2966 378.4008 296.8676 375.7426 292 377.1333 C288.3626 378.1726 284 383.1333 284 383.1333 "/>
<path id="12" d="M339 363.1333 C339 363.1333 336.247 371.8472 335 374.1333 C334.8968 374.3225 333.0345 374.0471 333 374.1333 C332.7845 374.6721 333.7004 377.8727 333 379.1333 C332.0506 380.8422 330.3946 382.385 328 383.1333 C323.6658 384.4878 318.5598 383.7079 317 384.1333 C316.9245 384.1539 317.1538 386.0693 317 386.1333 C311.9564 388.2348 304.6292 391.3141 293 394.1333 C288.9651 395.1115 286.592 394.9973 284 394.1333 C282.752 393.7173 282.1773 390.3812 281 390.1333 C276.0973 389.1012 268.3603 389.5403 265 390.1333 C264.6788 390.19 264.571 392.9137 264 393.1333 C256.6587 395.9569 238.9968 400.132 239 400.1333 C239.0059 400.1359 279.8864 400.074 280 400.1333 C280.0325 400.1503 271.1588 407.4062 262 412.1333 C256.2971 415.0768 253.4405 414.2302 249 416.1333 C248.4395 416.3735 248 418.1333 248 418.1333 C248.1528 418.2097 250.7312 418.681 253 418.1333 C264.657 415.3196 267.5725 415.1737 277 411.1333 C279.1449 410.2141 280.1782 408.3933 281 406.1333 C281.7639 404.0325 280.2081 401.7171 281 400.1333 C281.8579 398.4176 285.9939 396.1151 286 396.1333 C286.0322 396.2299 283.453 403.2982 284 409.1333 C284.8312 417.9998 288.9148 428.0978 289 428.1333 C289.0077 428.1365 294.3946 420.7843 296 414.1333 C297.5348 407.7747 297.1091 403.1259 296 399.1333 C295.6755 397.9651 291 396.1333 291 396.1333 "/>
<path id="13" d="M288 384.1333 L279 392.1333 "/>
<path id="14" d="M281 362.1333 C281 362.1333 275.4184 368.6091 271 369.1333 C251.0101 371.505 222.0681 369.1303 222 369.1333 C221.9946 369.1336 224.1634 371.0367 226 371.1333 C241.2105 371.9339 244.4301 372.2726 260 371.1333 C263.3061 370.8914 266.9803 368.1235 267 368.1333 C267.0018 368.1342 265.9173 371.8551 264 373.1333 C251.4868 381.4755 245.2222 382.4181 234 390.1333 C232.5362 391.1397 231.9802 395.1235 232 395.1333 C232.4742 395.3704 238.7068 396.4566 244 395.1333 C255.5789 392.2386 259.7146 391.276 268 386.1333 C270.9646 384.2932 273 377.431 273 377.1333 C273 377.1333 268.8662 377.5664 268 377.1333 C267.5669 376.9168 266.995 374.1349 267 374.1333 C267.9243 373.8489 274.9109 374.5831 281 373.1333 C284.4009 372.3236 288 369.1333 288 369.1333 "/>
<path id="15" d="M451 374.1333 C451 374.1333 454.4109 377.937 458 379.1333 C468.2152 382.5384 469.8375 380.8259 481 384.1333 C496.6208 388.7617 496.9397 392.864 512 395.1333 C531.3686 398.0519 533.5286 395.9361 554 395.1333 C558.425 394.9598 559.7877 395.0229 563 393.1333 C567.0107 390.7741 566.8538 386.7514 571 385.1333 C584.4661 379.8783 588.9919 382.5618 604 377.1333 C611.2149 374.5237 618 368.1333 618 368.1333 "/>
<path id="16" d="M494 353.1333 C494 353.1333 503.9928 354.0651 513 353.1333 C517.8877 352.6277 523 350.1333 523 350.1333 "/>
<path id="17" d="M494 362.1333 L521 353.1333 "/>
<path id="18" d="M507 373.1333 C507 373.1333 531.969 374.2425 556 373.1333 C563.9148 372.768 564.4637 372.5019 572 370.1333 C581.5698 367.1257 591 362.1333 591 362.1333 "/>
<path id="19" d="M474 362.1333 C474 362.1333 480.9207 362.242 487 364.1333 C502.947 369.0946 503.5517 372.3501 519 376.1333 C526.5166 377.9741 536 376.1333 536 376.1333 "/>
</g>
</g>
</svg>
