<?xml version="1.0" encoding="utf-8"?>
<!DOCTYPE svg PUBLIC "-//W3C//DTD SVG 1.1//EN" "http://www.w3.org/Graphics/SVG/1.1/DTD/svg11.dtd">
<svg viewBox="0 0 800 800" preserveAspectRatio="xMinYMin meet" xmlns="http://www.w3.org/2000/svg" version="1.1">
<g fill="none" stroke="black" stroke-linecap="round" stroke-linejoin="round" stroke-width="2.1553">
<g transform="translate(87.52,295.608) scale(1.3919) translate(0,-134)">
<path id="0" d="M397 186 C397 186 374.6135 189.1631 357 187 C349.0573 186.0246 346.7382 183.9241 340 179 C334.9747 175.3276 333.0779 173.1948 331 168 C328.9506 162.8764 329.6659 160.0136 330 154 C330.0985 152.2271 330.6122 151.3878 332 150 C338.4764 143.5236 339.6149 140.4754 347 137 C354.1383 133.6408 356.9565 134 366 134 C375.0435 134 376.0576 134.5612 385 137 C392.0555 138.9242 393.3064 139.5206 399 143 C401.2739 144.3896 402.4012 145.7546 403 148 C403.987 151.7012 404.187 154.0433 403 158 C401.5993 162.669 397.7008 163.5147 397 168 C395.6003 176.9578 398 190 398 190 "/>
<path id="1" d="M400 144 C400 144 402.4888 172.8078 401 197 C400.6539 202.6245 399.237 205.1156 396 209 C393.1301 212.4439 389.833 211.3687 386 215 C381.0222 219.7158 382.3212 222.8761 377 227 C363.7042 237.3042 360.2287 242.9869 346 246 C324.1479 250.6275 316.761 248.9845 292 245 C275.9568 242.4183 273.038 240.7206 259 232 C241.7774 221.3011 243.0433 211.731 226 204 C199.4259 191.9458 162 188 162 188 "/>
<path id="2" d="M360 181 L359 183 "/>
<path id="3" d="M356 185 C356 185 347.4667 186.1506 343 184 C336.4473 180.845 336.359 176.1124 329 172 C320.5016 167.2509 318.5902 165.7992 309 165 C284.8109 162.9842 281.816 167.4181 257 166 C248.2639 165.5008 247.7314 163.1828 239 161 C238.0928 160.7732 236.9984 160.987 237 161 C237.0542 161.434 237.8821 165.7268 240 169 C243.0202 173.6677 243.7167 175.3928 248 178 C253.734 181.4903 255.9899 181.8317 263 183 C266.9109 183.6518 272 182 272 182 C272 182 264 183 264 183 "/>
<path id="4" d="M255 183 C255 183 255.6364 187.9273 256 188 C261.3079 189.0616 285 189 285 189 "/>
<path id="5" d="M271 190 C271 190 269.8852 191.8393 270 192 C270.8293 193.161 273.4692 196.7188 276 197 C291.0563 198.6729 315 197 315 197 "/>
<path id="6" d="M239 162 C239 162 202.2534 162.3442 166 166 C83.5115 174.3182 42.9641 180.1857 1 186 C0.6459 186.0491 -0.054723 189.0009 0 189 C6.5835 188.8947 63.9143 188.3778 126 184 C140.949 182.9459 140.9725 179.789 156 178 C182.6534 174.827 185.9339 176.8553 210 174 C212.3662 173.7193 212.5774 171.4038 215 171 C228.8748 168.6875 230.8112 170.3826 246 168 C256.0313 166.4265 266 163 266 163 "/>
<path id="7" d="M34 191 C34 191 5.669 195.3326 0 197 C-0.18648 197.0548 -0.01208 201.0004 0 201 C7.2074 200.7911 34.607 196.1313 69 195 C110.2369 193.6435 113.7199 197.9531 152 196 C159.0636 195.6396 159.4078 191.5377 167 190 C197.914 183.7389 199.0865 183.9005 231 180 C243.7817 178.4378 257 179 257 179 "/>
<path id="8" d="M73 197 C73 197 67.7059 198.989 64 202 C60.17 205.1119 56.9694 209.9987 57 210 C57.1411 210.0059 72.6892 204.8479 88 203 C100.9814 201.4333 101.7397 204.2055 115 203 C139.8687 200.7392 141.5037 200.4562 165 196 C169.0095 195.2396 169.0499 192.5925 173 192 C206.6217 186.9568 245 184 245 184 "/>
<path id="9" d="M141 208 C141 208 131.6298 212.3483 124 218 C118.5584 222.0308 113.9924 227.9949 114 228 C114.0373 228.0248 124.2841 227.3279 133 224 C151.0417 217.1113 150.6469 212.9847 169 207 C195.6125 198.322 197.8826 201.4671 225 194 C231.6689 192.1636 235.0811 190.0208 238 188 C238.3534 187.7553 238 185 238 185 "/>
<path id="10" d="M370 152 C370 152 364.6681 150.9328 362 152 C358.865 153.254 356.0933 155.8134 355 158 C354.367 159.2659 355.6864 163.9216 356 164 C357.8189 164.4547 370.0356 162.9644 371 162 C371.5106 161.4894 370.2394 153.1247 369 151 C368.601 150.316 364 150 364 150 "/>
<path id="11" d="M361 158 L362 158 "/>
<path id="12" d="M344 144 C344 144 315.0001 144 315 144 C315 144 321.0891 143.7076 326 145 C329.9471 146.0387 333.1765 148.2941 334 149 C334.0515 149.0441 333 151 333 151 "/>
<path id="13" d="M329 158 C329 158 328.0114 151.7432 326 150 C322.6927 147.1336 314 145 314 145 "/>
<path id="14" d="M400 149 C400 149 401.8818 151.635 402 154 C402.8115 170.2301 402.9574 171.7667 402 189 C401.4757 198.4373 401.7009 201.2479 399 208 C397.8234 210.9415 394.0786 210.7089 392 214 C388.7771 219.1028 389.8668 225.0888 387 227 C381.686 230.5427 373.9367 228.6901 365 232 C362.4328 232.9508 360 237 360 237 "/>
<path id="15" d="M276 242 C276 242 268.2215 241.5848 268 242 C267.2215 243.4598 267.051 250.6731 268 257 C268.3448 259.2988 270.898 259.9609 271 262 C271.295 267.8995 269 277 269 277 "/>
<path id="16" d="M283 246 C283 246 285 252.4873 285 258 C285 261.6752 284.1645 264.2533 283 266 C282.5425 266.6862 279.4825 266.5175 279 267 C278.7105 267.2895 279 270 279 270 "/>
<path id="17" d="M308 250 C308 250 303.107 249.7646 303 250 C302.482 251.1396 301.7125 258.425 303 261 C304.0534 263.1068 311 266 311 266 "/>
<path id="18" d="M318 250 C318 250 321.6682 252.4516 322 254 C322.6685 257.1196 321 264 321 264 "/>
<path id="19" d="M204 281 C204 281 210.7858 277.0575 217 277 C313.7521 276.1041 320.8456 280.7096 420 279 C434.2179 278.7549 449 273 449 273 "/>
<path id="20" d="M231 271 C231 271 312.8786 269.7791 385 265 C390.7601 264.6183 391.0044 261.399 397 260 C405.409 258.0379 406.7105 259.727 415 258 C417.982 257.3788 420.91 255.09 421 255 C421.01 254.99 419 254 419 254 "/>
<path id="21" d="M322 265 C322 265 331.4344 264.3778 332 265 C332.6844 265.7528 333.1665 271.8008 332 276 C331.1104 279.2024 327 283 327 283 "/>
<path id="22" d="M322 270 C322 270 326.7889 269.7044 327 270 C327.4139 270.5794 327.5626 276.0998 327 277 C326.6684 277.5305 322 278 322 278 "/>
<path id="23" d="M316 269 L307 269 "/>
<path id="24" d="M313 265 C313 265 306.2785 263.9072 303 265 C300.8143 265.7286 298 270 298 270 "/>
<path id="25" d="M286 268 C286 268 291.5571 265.6065 293 266 C294.199 266.327 296.4012 268.7546 297 271 C297.987 274.7012 297.8995 278.0768 297 281 C296.6195 282.2368 293 284 293 284 "/>
<path id="26" d="M281 268 C281 268 287.5977 268.3677 288 269 C288.7376 270.1591 288.5515 278.0809 288 279 C287.8015 279.3309 282 279 282 279 "/>
<path id="27" d="M276 268 C276 268 273.26 264.8218 271 264 C268.8992 263.2361 265.2982 263.574 265 264 C264.2404 265.0852 264 274 264 274 "/>
<path id="28" d="M274 268 L265 266 "/>
</g>
</g>
</svg>
