<?xml version="1.0" encoding="utf-8"?>
<!DOCTYPE svg PUBLIC "-//W3C//DTD SVG 1.1//EN" "http://www.w3.org/Graphics/SVG/1.1/DTD/svg11.dtd">
<svg viewBox="0 0 800 800" preserveAspectRatio="xMinYMin meet" xmlns="http://www.w3.org/2000/svg" version="1.1">
<g fill="none" stroke="black" stroke-linecap="round" stroke-linejoin="round" stroke-width="1.1761">
<g transform="translate(87.52,204.8594) scale(2.5509) translate(-148,-75)">
<path id="0" d="M177 128 C177 128 167.3352 136.4915 160 146 C154.1736 153.5527 151.8878 154.8195 150 163 C146.5327 178.0248 147.3101 181.7877 148 198 C148.2405 203.6511 151.9811 210.0034 152 210 C152.0991 209.982 156.4924 202.896 159 196 C160.2676 192.5141 158.5422 191.252 160 188 C164.5518 177.8459 164.7823 174.8943 172 167 C179.2886 159.0281 192 153 192 153 "/>
<path id="1" d="M179 130 C179 130 177.3569 124.2873 178 120 C178.6921 115.3862 179.2054 113.3535 182 110 C185.5981 105.6823 187.7513 103.8895 193 102 C198.4302 100.0451 202.4876 99.438 207 101 C212.1098 102.7688 216.0575 105.8074 219 111 C222.9992 118.0574 224 131 224 131 "/>
<path id="2" d="M227 135 C227 135 226.8672 131.1328 228 130 C232.9087 125.0913 235.9739 120.6915 243 119 C258.7184 115.2159 267.5808 112.0087 282 117 C311.4175 127.183 315.0856 140.5545 347 155 C359.5263 160.6698 362.1275 158.1409 377 160 C381.8563 160.607 382.853 160.8294 387 160 C389.3223 159.5355 392 157 392 157 "/>
<path id="3" d="M189 155 C189 155 209.588 171.294 231 182 C245.2746 189.1373 246.9606 188.0658 263 192 C273.1191 194.482 273.5593 194.5254 284 195 C306.2285 196.0104 308.2786 197.878 329 195 C342.0724 193.1844 344.2539 191.7431 356 185 C370.0116 176.9563 383 164 383 164 "/>
<path id="4" d="M164 158 C164 158 158.9523 165.9958 157 174 C154.163 185.6315 154 199 154 199 "/>
<path id="5" d="M190 118 C190 118 188.1625 118.5938 188 119 C187.6389 119.9028 188 123 188 123 C188.0028 123 190 119 190 119 "/>
<path id="6" d="M247 130 C247 130 246.8945 117.9277 250 111 C252.2107 106.0684 254.9697 103.2717 260 101 C267.9031 97.4308 270.5876 97.5259 281 97 C319.331 95.0641 322.8895 98.4074 359 96 C364.7049 95.6197 365.687 94.2816 371 91 C382.2268 84.0658 392.9766 74.9547 393 75 C393.2207 75.4277 391.3883 99.1182 387 122 C384.4906 135.0846 384.9484 137.2047 379 148 C372.4528 159.882 368.4094 165.5453 360 171 C355.3765 173.999 342 172 342 172 "/>
<path id="7" d="M281 145 C281 145 281.5093 137.6152 284 135 C289.2673 129.4693 292.85 125.7218 301 124 C324.1313 119.1131 329.4723 123.9001 355 120 C363.9139 118.6382 364.8293 117.2367 373 113 C377.7709 110.5262 382 106 382 106 "/>
<path id="8" d="M381 110 C381 110 376.0569 122.9574 369 133 C363.6481 140.6161 361.0372 139.6918 355 147 C351.8992 150.7535 353.0645 152.3226 350 156 C345.9658 160.8411 345.1621 161.5586 340 165 C336.7737 167.1509 332 168 332 168 "/>
<path id="9" d="M309 148 L355 125 "/>
<path id="10" d="M267 115 L377 101 "/>
<path id="11" d="M241 185 C241 185 242.6998 200.6608 240 212 C238.3008 219.1365 230.9999 226.9994 231 227 C231.0001 227.0004 237.1833 219.4986 241 216 C241.3801 215.6516 242.9171 215.8343 243 216 C243.9529 217.9059 246.0064 225.9552 246 226 C245.9984 226.0114 242.0612 222.9847 242 223 C241.9812 223.0047 242 227 242 227 "/>
<path id="12" d="M296 198 C296 198 290.0006 222.9976 290 223 C289.9999 223.0003 290.18 220.135 290 220 C289.68 219.76 287.3242 219.4115 286 220 C283.7562 220.9972 280.9997 224.0001 281 224 C281.0008 223.9998 291.721 217.9147 293 218 C293.3822 218.0255 296.0205 224.8767 296 225 C295.9989 225.0063 292.3125 223.8125 292 224 C291.6875 224.1875 291 228 291 228 "/>
</g>
</g>
</svg>
