<?xml version="1.0" encoding="utf-8"?>
<!DOCTYPE svg PUBLIC "-//W3C//DTD SVG 1.1//EN" "http://www.w3.org/Graphics/SVG/1.1/DTD/svg11.dtd">
<svg viewBox="0 0 800 800" preserveAspectRatio="xMinYMin meet" xmlns="http://www.w3.org/2000/svg" version="1.1">
<g fill="none" stroke="black" stroke-linecap="round" stroke-linejoin="round" stroke-width="2.1025">
<g transform="translate(87.52,131.7523) scale(1.4268) translate(-185,-30)">
<path id="0" d="M213 70 C213 70 212.823 77.1828 215 80 C219.4482 85.7565 230 92 230 92 "/>
<path id="1" d="M213 72 C213 72 205.5616 73.2878 203 76 C199.073 80.158 197.0859 83.2434 196 90 C192.9616 108.9056 193.9895 131.9912 194 132 C194.004 132.0034 200.1845 114.2101 208 100 C210.4411 95.5616 212.0103 94.2165 216 92 C219.5622 90.021 226 90 226 90 "/>
<path id="2" d="M215 71 C215 71 207.9845 71.0078 204 73 C200.5136 74.7432 199.5766 76.2523 197 80 C194.4371 83.7279 193.9265 84.522 193 89 C191.0755 98.3017 189.5348 100.3917 191 109 C193.1392 121.5678 200.9914 136.0048 201 136 C201.0435 135.9755 202.1981 115.6863 207 100 C208.9995 93.4683 211.936 90.7931 216 87 C217.3333 85.7556 222 86 222 86 "/>
<path id="3" d="M224 87 C224 87 218.8789 86.6222 217 88 C213.2747 90.7319 211.836 92.6825 209 98 C204.1761 107.0448 203.6075 108.1496 201 118 C199.3183 124.353 200 132 200 132 "/>
<path id="4" d="M197 128 C197 128 195.3256 95.8714 196 78 C196.042 76.8864 197.7313 75.2719 199 75 C202.8311 74.179 210 75 210 75 "/>
<path id="5" d="M215 70 C215 70 213.6567 61.2087 214 54 C214.1096 51.6975 214.523 50.6113 216 49 C219.2963 45.4041 220.2784 44.0031 225 42 C235.6385 37.4867 237.2416 36.9597 249 35 C257.41 33.5983 258.4734 34.0864 267 35 C271.8892 35.5238 272.7616 35.8808 277 38 C280.1327 39.5664 281.0318 40.1055 283 43 C288.9567 51.7599 294 63 294 63 "/>
<path id="6" d="M214 60 C214 60 213.2036 56.0264 214 53 C215.515 47.2431 215.9091 45.7769 219 41 C220.8021 38.215 222.4115 36.317 225 36 C241.8812 33.9329 268 35 268 35 "/>
<path id="7" d="M234 36 C234 36 227.3273 36.1636 227 36 C226.9766 35.9883 227.4196 33.2679 228 33 C231.2578 31.4964 234.0923 30.5717 240 30 C249.1329 29.1162 249.7594 29.0759 259 30 C269.4078 31.0408 272.6947 30.0343 280 34 C286.981 37.7897 289.4285 41.3808 294 49 C297.3993 54.6656 298 64 298 64 "/>
<path id="8" d="M291 53 C291 53 289.5449 58.9257 291 63 C298.7328 84.6518 299.8316 87.3613 311 109 C315.4008 117.5266 315.9059 118.8363 323 125 C345.2252 144.3104 346.5727 146.4155 372 162 C391.9574 174.2319 393.9043 175.2206 416 182 C436.3378 188.24 438.5147 184.495 460 189 C469.1002 190.9081 469.1579 191.6316 478 195 C500.6035 203.6109 501.2018 203.1908 523 213 C530.8203 216.5191 532.0078 216.7894 538 222 C542.6111 226.0097 543.0968 227.1937 546 233 C551.3225 243.645 551.5611 244.6515 555 256 C556.3772 260.5447 556 261.0687 556 266 C556 273.397 557.5279 275.9441 555 281 C550.5965 289.807 547.5862 293.3764 539 300 C531.9502 305.4384 529.6659 305.041 520 308 C505.5149 312.4342 504.8776 313.4131 490 315 C468.174 317.3281 466.7028 317.6911 445 316 C429.2766 314.7748 427.2023 314.7697 413 309 C396.8106 302.4231 395.9381 300.5597 381 290 C367.3375 280.342 365.8376 280.2425 355 268 C339.6435 250.6528 339.9181 249.0363 327 229 C315.5566 211.2511 317.0944 209.2154 306 192 C303.1118 187.5182 299.4495 188.0768 298 184 C292.6741 169.021 294.8459 164.999 290 147 C287.9436 139.3619 287.7395 138.3284 284 132 C281.7545 128.1998 280.9192 127.3113 277 125 C262.407 116.3939 257.4564 118.3423 245 109 C237.9932 103.7449 233 92 233 92 "/>
<path id="9" d="M311 104 C311 104 296.369 116.1575 282 125 C277.9398 127.4986 271.9973 127.9982 272 128 C272.0055 128.0037 280.7913 129.3433 288 129 C290.3025 128.8904 291.159 128.5209 293 127 C301.8683 119.674 311 110 311 110 "/>
<path id="10" d="M241 69 C241 69 236.3273 68.6001 236 68 C235.074 66.3023 234.4704 58.4855 235 58 C235.9025 57.1727 246.5757 56.0208 248 57 C249.3014 57.8947 251.6321 67.5552 251 69 C250.5047 70.1322 241.5259 73.1912 241 73 C240.7594 72.9125 239.9256 65.1487 240 65 C240 65 243.4361 66.1542 244 67 C244.4833 67.725 244 71 244 71 "/>
<path id="11" d="M287 45 C287 45 292.3556 65.5606 302 82 C313.5846 101.7464 315.5428 105.1373 331 120 C339.1459 127.8326 342.1468 127.1709 354 132 C382.2872 143.5244 383.9907 141.2999 412 153 C422.9117 157.558 422.1309 160.0027 433 165 C465.3293 179.8641 470.0754 178.9394 499 193 C502.4163 194.6607 503.0725 196.3592 505 200 C507.1949 204.1459 508 210 508 210 "/>
<path id="12" d="M291 49 C291 49 317.2207 93.9529 338 109 C347.6886 116.0159 359.3979 107.893 378 112 C396.3407 116.0492 396.3842 120.3857 415 126 C427.4225 129.7465 428.4131 127.4544 441 131 C463.606 137.3679 466.9088 136.9568 486 146 C492.4794 149.0692 493.0744 151.4325 498 158 C507.734 170.9786 508.2381 171.6704 516 186 C521.0032 195.2367 518.9327 197.1322 524 206 C528.5076 213.8882 536 221 536 221 "/>
<path id="13" d="M330 104 C330 104 327.0936 118.6972 330 130 C335.436 151.1399 338.5758 152.2268 348 174 C353.0516 185.6709 352.208 186.7202 359 197 C370.26 214.0421 371.2038 215.5468 385 230 C391.269 236.5676 392.6181 236.4738 401 241 C417.2901 249.7966 417.9688 251.6619 435 257 C450.0896 261.7296 451.6762 261.0254 468 262 C484.6385 262.9933 486.8029 258.6818 502 261 C513.9096 262.8167 516.7869 263.8508 527 271 C554.8307 290.4815 553.4939 297.2883 582 317 C599.1211 328.8391 603.2606 327.7793 621 336 C621.7422 336.3439 622.95 336.1 623 336 C623.2 335.6 623.5605 333.5414 623 332 C621.8153 328.7421 619.8762 328.5046 619 325 C616.6179 315.4718 618.6993 313.8157 616 304 C613.378 294.4653 613.1257 293.5429 608 285 C598.4808 269.1347 598.0103 268.1939 586 254 C576.4104 242.6669 575.63 242.5666 564 233 C544.8475 217.2456 541.2092 219.7244 524 203 C506.8539 186.3369 509.2695 182.5026 493 164 C484.0164 153.7834 483.5909 153.6163 473 145 C454.304 129.7897 434 116 434 116 "/>
<path id="14" d="M364 173 C364 173 376.3294 183.4642 387 195 C394.6316 203.2503 393.0353 205.591 401 213 C413.8146 224.9206 414.8173 225.8904 430 235 C446.6218 244.9731 447.5541 245.6806 466 252 C500.7764 263.9141 503.0286 261.0206 538 272 C545.2364 274.2719 545.8138 274.6415 552 279 C567.3281 289.7994 581.9976 302.9985 582 303 C582.0008 303.0005 574 293 574 293 "/>
<path id="15" d="M401 187 C401 187 413.4977 195.2305 424 205 C434.6928 214.9468 433.2459 217.5902 444 227 C452.5964 234.5219 453.5827 234.8896 464 240 C479.5514 247.629 480.3279 248.6236 497 253 C519.4812 258.9013 522.8558 254.3381 544 261 C557.1193 265.1335 559.416 267.3157 570 276 C577.4457 282.1093 582.9906 292.9915 583 293 C583.0028 293.0025 582.8056 288.257 581 286 C575.9192 279.649 567 273 567 273 "/>
<path id="16" d="M412 198 C412 198 454.0084 221.2042 493 233 C509.3064 237.933 513.4075 231.1625 531 234 C542.7333 235.8925 544.4853 236.9338 555 243 C569.449 251.336 570.7853 252.7496 583 264 C588.9071 269.4407 593 278 593 278 "/>
<path id="17" d="M283 134 C283 134 287.8921 137.6489 291 142 C295.0791 147.7108 296.2337 148.3762 298 155 C303.8693 177.0099 300.5054 179.6924 307 202 C311.7219 218.2185 318.4447 218.6683 321 234 C324.8701 257.2208 322.4625 260.7713 321 286 C320.5153 294.3603 318.694 302.305 317 303 C311.6606 305.1905 298.398 301.2546 282 302 C277.7139 302.1948 275.5628 302.7789 273 305 C269.7597 307.8083 266.9992 314.9988 267 315 C267.0002 315.0003 271.2935 309.1405 275 308 C281.6829 305.9437 285.9927 305.5502 293 307 C297.9024 308.0143 303.9992 313.9996 304 314 C304.0003 314.0001 302.4184 311.3733 301 311 C294.8142 309.3722 288.0346 307.7586 285 309 C282.9012 309.8586 279.001 319.9976 279 320 C278.9998 320.0005 280.3442 318 281 318 C286.5744 318 293.0164 318.8925 298 320 C298.4127 320.0917 299 322 299 322 C298.4262 322.2869 291.0181 322.9819 290 324 C289.3521 324.6479 289.9832 330.9916 290 331 C290.0072 331.0036 292.2414 326.4397 294 326 C302.2068 323.9483 312.8411 326.3952 318 324 C319.8847 323.125 318.9 316.7739 322 313 C329.0758 304.386 333.2115 304.4966 341 296 C343.2064 293.593 343.6149 292.3377 344 289 C344.9961 280.3675 346.05 278.2 344 270 C341.0059 258.0236 333 245 333 245 "/>
<path id="18" d="M408 312 C408 312 411.6618 317.9779 413 324 C415.5177 335.3297 416.4698 347.3623 416 348 C415.8377 348.2203 407.3309 344.1901 399 343 C390.5348 341.7907 384.6602 341.2495 381 343 C378.9135 343.9979 377.1693 350.1997 376 354 C375.8422 354.5129 376.9338 356.0147 377 356 C378.0588 355.7647 381.4101 352.5983 385 352 C389.0732 351.3211 391.2052 352.0513 395 353 C395.9256 353.2314 397.0118 354.9929 397 355 C396.8882 355.0671 390.9455 355.1727 390 356 C389.2496 356.6566 388.9643 361.9905 389 362 C389.9215 362.2457 404.3393 359.6697 405 360 C405.1101 360.0551 403 368.9949 403 369 C403 369.0017 404.0138 366.3793 405 366 C408.6802 364.5845 411.688 365.54 416 364 C417.4987 363.4648 418.8591 362.2328 419 361 C420.3536 349.1563 421.8892 343.5738 420 329 C418.6344 318.4656 413.7426 310.0496 412 307 C411.9157 306.8524 408 308 408 308 "/>
<path id="19" d="M220 283 C220 283 290.1747 315.3397 361 346 C405.6222 365.317 406.8738 363.5208 451 383 C461.9129 387.8174 471.9991 394.9979 472 395 C472.0005 395.0013 454 390 454 390 "/>
<path id="20" d="M212 291 C212 291 289.1669 323.886 363 360 C380.293 368.4585 378.8164 372.591 396 381 C425.0786 395.23 457 406 457 406 "/>
<path id="21" d="M220 40 C220 40 213.4151 43.9542 209 49 C203.37 55.4343 202.7323 56.1622 199 64 C193.0014 76.5971 192.4523 77.4374 189 91 C185.6093 104.3206 185 119 185 119 "/>
<path id="22" d="M209 53 C209 53 198 72 198 72 C198 72 202.5378 62.1784 207 56 C207.9696 54.6575 211.0059 53.9773 211 54 C210.9462 54.2062 200.9988 78.9968 201 79 C201.0007 79.0018 214 62 214 62 "/>
<path id="23" d="M213 61 C213 61 211.1549 59.8741 211 60 C207.69 62.6894 203.0372 66.6918 197 74 C193.8992 77.7535 192.6929 78.7274 192 83 C190.0111 95.2647 190.6146 97.8961 191 111 C191.0835 113.8385 193 117 193 117 "/>
<path id="24" d="M214 98 C214 98 222.9564 104.8808 229 106 C233.1966 106.7771 241 103 241 103 C241 103 224.4533 106.9263 213 108 C211.4662 108.1438 209.8935 107.0722 209 106 C208.1903 105.0283 207.9757 102 208 102 C208.2668 102 213.9828 105.6284 219 106 C226.0405 106.5215 235 104 235 104 "/>
<path id="25" d="M213 50 C213 50 217.6281 43.149 223 40 C230.8242 35.4134 232.7848 34.5359 242 33 C252.5099 31.2483 256.8769 30.0989 265 33 C273.6024 36.0723 275.6893 39.6893 284 48 C294.2661 58.2661 292.6911 60.9624 303 71 C311.1265 78.9127 312.9886 79.5932 322 85 C324.1706 86.3024 328 86 328 86 "/>
<path id="26" d="M301 76 C301 76 310.4045 84.0092 319 88 C322.8159 89.7717 324.5788 87.5852 329 89 C336.3858 91.3634 336.4333 94.3858 344 96 C372.4074 102.0602 375.678 97.4137 404 105 C430.1503 112.0045 430.7379 114.6886 456 126 C463.8292 129.5056 464.2213 129.8575 471 135 C478.4105 140.6218 478.8028 140.9766 485 148 C493.584 157.7285 501 169 501 169 "/>
</g>
</g>
</svg>
