<?xml version="1.0" encoding="utf-8"?>
<!DOCTYPE svg PUBLIC "-//W3C//DTD SVG 1.1//EN" "http://www.w3.org/Graphics/SVG/1.1/DTD/svg11.dtd">
<svg viewBox="0 0 800 800" preserveAspectRatio="xMinYMin meet" xmlns="http://www.w3.org/2000/svg" version="1.1">
<g fill="none" stroke="black" stroke-linecap="round" stroke-linejoin="round" stroke-width="0.78245">
<g transform="translate(87.52,91.3541) scale(3.8341) translate(-202,-128)">
<path id="0" d="M264 162 C264 162 265 177.9999 265 178 C265 178 264.071 172.0947 264 172 C263.9947 171.993 262.3722 172.9766 262 174 C260.6726 177.6503 260 178.7705 260 183 C260 190.0491 262 191.0189 262 198 C262 201.7233 260.3019 205.4717 260 206 C259.9953 206.0083 257.9987 204.9966 258 205 C259.846 208.0924 256.5048 212.9514 257 214 C261.2615 223.0243 267.9617 228.8156 277 244 C280.2302 249.4267 281.9999 255.9998 282 256 C282 256.0001 281.0001 251.9996 281 252 C280.9998 252.0008 279.713 258.0199 281 260 C284.29 265.0615 286.9376 267.5214 294 272 C306.6371 280.0138 308.0496 279.7998 322 286 C325.6235 287.6104 329.7973 288.029 330 288 C330.015 287.9979 328.9901 285.0027 329 285 C329.6528 284.822 338.0955 284.1701 341 285 C341.7607 285.2173 342.3578 288.8624 343 289 C345.6491 289.5677 350.4608 288.9727 355 288 C355.9025 287.8066 357.0466 286.3731 357 286 C356.8301 284.6407 353.5885 280.9772 354 280 C355.5315 276.3626 363.7321 269.1131 365 267 C365.0517 266.9138 363 265.0214 363 265 C363 265 364.9953 265.0283 365 265 C365.0826 264.5046 365.1073 261.3992 364 259 C362.4049 255.544 359.8896 255.2024 359 252 C357.8335 247.8008 360.7127 245.1465 359 241 C352.3287 224.8484 347.6621 223.1486 340 206 C337.7283 200.9158 339.9545 199.4726 338 194 C332.6746 179.0888 330.1992 174.0735 325 164 C324.6391 163.3007 322.5751 163.8051 322 163 C316.772 155.6808 315.806 150.9833 310 143 C309.0078 141.6358 306 141 306 141 C306 141 310.0539 142.2431 311 143 C311.2294 143.1835 311.0225 145.0052 311 145 C310.3098 144.8407 303.9522 140.576 298 140 C290.1397 139.2393 283.5023 140.7097 280 142 C279.4688 142.1957 279.9653 145.713 279 147 C277.8669 148.5108 274.6308 148.7385 274 150 C273.1972 151.6056 274.5694 156.2407 274 157 C273.5526 157.5966 268.3439 157.4268 268 158 C267.3271 159.1215 268 167 268 167 "/>
<path id="1" d="M273 158 C273 158 266.7176 149.5458 265 148 C264.8889 147.9 263 148.875 263 149 C263 149.5 265.0458 152.9389 265 153 C264.9312 153.0917 260.1528 152.9236 260 153 C260 153 261.063 154.944 261 155 C259.7588 156.1033 253.8699 157.5561 251 161 C247.763 164.8844 247.0462 167.5076 246 173 C245.2884 176.7357 247.0965 181.1315 247 182 C246.9976 182.0217 245.0308 181.9075 245 182 C244.5684 183.2947 245.2252 188.5496 244 191 C243.2907 192.4187 239.0102 193.9898 239 194 C238.9975 194.0025 241 194 241 194 C241 193.9256 238.9452 191.0658 239 191 C239.3633 190.5641 243.589 190.0092 246 188 C248.7494 185.7089 248.8784 181.9901 251 181 C253.5665 179.8023 261 181 261 181 "/>
<path id="2" d="M272 152 C272 152 272.5828 149.1657 272 148 C271.1257 146.2515 268.2 144.6 268 144 C267.95 143.85 270.0582 142.2036 270 142 C269.7499 141.1246 265.9318 137.0796 266 137 C266.9861 135.8496 274.5128 130.4957 282 128 C286.3347 126.5551 293.0003 127.9996 293 128 C292.9996 128.0007 281.1881 130.406 280 131 C279.959 131.0205 281.0115 133.9981 281 134 C280.8464 134.0256 273.9986 131.9979 274 132 C274.0033 132.0049 284.6329 140 285 140 C285.0334 140 286.5937 134.375 286 132 C285.6169 130.4678 282 128 282 128 "/>
<path id="3" d="M272 148 C272 148 244.9139 146.1655 224 148 C219.8876 148.3607 217.9072 149.9111 215 153 C210.9883 157.2624 210.7593 162.453 208 165 C207.0841 165.8454 202 165 202 165 "/>
</g>
</g>
</svg>
