<?xml version="1.0" encoding="utf-8"?>
<!DOCTYPE svg PUBLIC "-//W3C//DTD SVG 1.1//EN" "http://www.w3.org/Graphics/SVG/1.1/DTD/svg11.dtd">
<svg viewBox="0 0 800 800" preserveAspectRatio="xMinYMin meet" xmlns="http://www.w3.org/2000/svg" version="1.1">
<g fill="none" stroke="black" stroke-linecap="round" stroke-linejoin="round" stroke-width="0.99846">
<g transform="translate(153.6215,87.52) scale(3.0046) translate(-205,-60.1333)">
<path id="0" d="M259 119.1333 C259 119.1333 258.0092 114.5443 256 112.1333 C253.7089 109.384 252.1453 107.695 249 107.1333 C240.6316 105.639 238.0486 106.4156 228 107.1333 C224.5821 107.3775 223.1546 107.3827 221 109.1333 C216.519 112.7742 215.2126 114.3106 212 120.1333 C207.601 128.1066 205.5223 129.6718 205 138.1333 C203.2182 166.9979 204.3189 173.9389 207 201.1333 C207.3603 204.7879 208.8649 205.9982 212 209.1333 C229.6049 226.7383 229.8281 230.1873 250 244.1333 C268.6544 257.0302 272.3194 258.9851 293 265.1333 C306.1439 269.041 324 266.1333 324 266.1333 "/>
<path id="1" d="M258 114.1333 C258 114.1333 260.8374 119.1567 264 121.1333 C267.6198 123.3957 273.7989 124.371 274 124.1333 C274.6204 123.4001 273.3118 114.886 275 108.1333 C275.961 104.2895 277.0034 102.0312 280 100.1333 C289.5157 94.1067 293.019 92.062 305 89.1333 C313.654 87.0179 319.5642 85.9624 325 89.1333 C337.0494 96.1622 340.8942 102.2762 353 117.1333 C362.3 128.5469 366.4278 131.0761 369 143.1333 C373.2851 163.2196 370.5186 168.974 369 192.1333 C368.62 197.929 367.9852 198.9369 365 204.1333 C354.9339 221.6559 352.6057 221.3431 342 239.1333 C337.2603 247.0838 338.7633 248.4591 334 256.1333 C330.0518 262.4944 324 268.1333 324 268.1333 "/>
<path id="2" d="M263 115.1333 C263 115.1333 256.2439 110.6244 255 111.1333 C251.2237 112.6782 245.5819 117.8333 241 124.1333 C238.9337 126.9745 238.979 133.0984 239 133.1333 C239.0027 133.1378 241.8402 129.4312 244 129.1333 C253.3368 127.8455 264.4375 126.72 268 129.1333 C271.1507 131.2677 274.998 150.1339 275 150.1333 C275.0166 150.1288 279 126.1333 279 126.1333 "/>
<path id="3" d="M276 107.1333 C276 107.1333 285.5422 106.2228 290 108.1333 C293.222 109.5142 297.0258 116.0646 297 116.1333 C296.982 116.1813 291.147 115.3039 287 116.1333 C284.6777 116.5978 281.9937 119.1208 282 119.1333 C282.1189 119.3711 289.1228 121.5735 291 124.1333 C292.8556 126.6637 293.0141 134.1192 293 134.1333 C293 134.1333 290.0866 130.0328 287 128.1333 C284.3788 126.5203 280 126.1333 280 126.1333 "/>
<path id="4" d="M260 113.1333 C260 113.1333 263.4066 109.3968 264 106.1333 C265.1518 99.7984 266.0351 96.5602 264 91.1333 C261.083 83.3548 255.5389 81.801 252 74.1333 C250.5869 71.0715 251.0575 68.432 252 65.1333 C252.6433 62.8819 254.2897 60.846 256 60.1333 C258.2492 59.1962 262.0663 59.1665 264 60.1333 C265.692 60.9793 267.4194 63.2301 268 66.1333 C270.5275 78.7707 268.6534 81.0538 271 95.1333 C272.0871 101.656 275 108.1333 275 108.1333 "/>
<path id="5" d="M235 158.1333 L236 159.1333 "/>
<path id="6" d="M236 200.1333 L238 197.1333 "/>
<path id="7" d="M257 176.1333 L259 177.1333 "/>
<path id="8" d="M263 205.1333 L263 205.1333 "/>
<path id="9" d="M277 222.1333 L277 223.1333 "/>
<path id="10" d="M292 178.1333 L292 180.1333 "/>
<path id="11" d="M308 200.1333 L309 200.1333 "/>
<path id="12" d="M309 228.1333 L310 229.1333 "/>
<path id="13" d="M290 204.1333 L290 205.1333 "/>
<path id="14" d="M295 147.1333 L295 148.1333 "/>
<path id="15" d="M322 105.1333 L322 104.1333 "/>
<path id="16" d="M317 132.1333 L318 133.1333 "/>
<path id="17" d="M341 124.1333 L343 125.1333 "/>
<path id="18" d="M338 154.1333 L341 154.1333 "/>
<path id="19" d="M321 158.1333 L321 157.1333 "/>
<path id="20" d="M312 175.1333 L312 174.1333 "/>
<path id="21" d="M334 189.1333 L334 190.1333 "/>
<path id="22" d="M221 118.1333 L222 119.1333 "/>
<path id="23" d="M214 155.1333 L215 155.1333 "/>
<path id="24" d="M211 194.1333 L212 194.1333 "/>
<path id="25" d="M241 227.1333 L241 228.1333 "/>
<path id="26" d="M257 243.1333 L258 243.1333 "/>
<path id="27" d="M367 167.1333 L368 168.1333 "/>
<path id="28" d="M363 197.1333 L363 198.1333 "/>
<path id="29" d="M361 140.1333 L362 141.1333 "/>
<path id="30" d="M346 171.1333 L349 175.1333 "/>
<path id="31" d="M342 217.1333 L344 217.1333 "/>
<path id="32" d="M297 253.1333 L294 254.1333 "/>
<path id="33" d="M326 251.1333 L329 252.1333 "/>
<path id="34" d="M321 267.1333 L322 268.1333 "/>
<path id="35" d="M258 115.1333 C258 115.1333 258.3528 109.0874 257 107.1333 C255.3598 104.7642 248.9997 102.1338 249 102.1333 C249.0084 102.1193 256.7335 101.0445 260 102.1333 C261.6828 102.6943 264 107.1333 264 107.1333 "/>
<path id="36" d="M274 99.1333 C274 99.1333 275.8556 92.9203 278 91.1333 C279.9433 89.5139 285.9915 89.1099 286 89.1333 C286.1081 89.4305 282 102.1333 282 102.1333 "/>
<path id="37" d="M259 127.1333 C259 127.1333 255.8052 129.2009 255 131.1333 C253.8041 134.0036 253.9993 139.1304 254 139.1333 C254.0003 139.1347 254.9615 135.5877 256 135.1333 C260.2407 133.278 270 132.1333 270 132.1333 "/>
</g>
</g>
</svg>
