<?xml version="1.0" encoding="utf-8"?>
<!DOCTYPE svg PUBLIC "-//W3C//DTD SVG 1.1//EN" "http://www.w3.org/Graphics/SVG/1.1/DTD/svg11.dtd">
<svg viewBox="0 0 800 800" preserveAspectRatio="xMinYMin meet" xmlns="http://www.w3.org/2000/svg" version="1.1">
<g fill="none" stroke="black" stroke-linecap="round" stroke-linejoin="round" stroke-width="2.6306">
<g transform="translate(87.52,131.4269) scale(1.1404) translate(-35,-10)">
<path id="0" d="M206 87 C206 87 200.2165 90.5774 197 95 C192.7784 100.8047 190 109 190 109 "/>
<path id="1" d="M198 110 C198 110 189.2902 120.0862 180 128 C176.3046 131.1479 175.653 130.9643 171 133 C159.7964 137.9016 158.7566 139.6096 148 142 C142.5022 143.2217 137.867 139.9881 135 141 C133.5332 141.5177 132.0094 144.7196 131 148 C130.2642 150.3913 130.2448 151.7344 131 154 C131.923 156.769 133.0873 158.8843 135 160 C137.189 161.2769 142.6781 160.3204 143 161 C144.2416 163.6211 141.8085 176.5096 144 179 C146.9576 182.3609 154.7673 184.5674 165 186 C178.5008 187.8901 179.7135 186.8747 194 186 C203.9432 185.3912 205.1958 186.0815 214 183 C223.9753 179.5087 225.5043 178.5538 234 172 C242.1549 165.7091 243.2883 164.282 249 156 C252.5661 150.8292 254 143 254 143 "/>
<path id="2" d="M193 103 L190 116 "/>
<path id="3" d="M145 181 C145 181 143.9985 191.9998 144 192 C144.059 192.0066 154 182 154 182 "/>
<path id="4" d="M176 187 C176 187 178.9835 200 179 200 C179.0329 200 185 187 185 187 "/>
<path id="5" d="M161 212 C161 212 180.4533 211.9496 198 210 C201.9284 209.5635 202.8108 209.2442 206 207 C215.5442 200.2837 216.5813 199.6738 225 191 C232.7213 183.0447 233.1833 182.3067 239 173 C242.8597 166.8245 245 159 245 159 "/>
<path id="6" d="M162 211 C162 211 153.9393 217.4143 152 220 C151.7356 220.3526 152.3236 222.6721 153 223 C163.5545 228.1173 169.7493 231.2796 185 236 C189.2335 237.3104 191.4511 237.6658 195 236 C212.6722 227.7049 216.4528 226.0949 234 213 C249.0431 201.7738 250.8287 199.5409 262 186 C265.8185 181.3715 265.4527 179.447 267 173 C268.3337 167.4428 268 161 268 161 "/>
<path id="7" d="M211 88 C211 88 213.1903 85.6026 213 85 C211.5115 80.2863 206.7374 76.6009 205 69 C203.1485 60.8997 204.0967 59.2593 205 50 C206.0645 39.0886 205.0946 36.0405 209 28 C212.1504 21.5138 216.9519 19.375 222 15 C222.4161 14.6394 223.9938 14.9689 224 15 C224.0746 15.3728 224.0287 18.1141 223 20 C221.3811 22.968 218.1878 23.5588 218 26 C216.6493 43.559 215.5191 58.3251 219 72 C219.9263 75.6391 227.5645 79.7327 232 81 C234.0347 81.5813 236.0719 78.5238 240 78 C250.3504 76.62 254.8609 78.4278 262 77 C263.222 76.7556 264.2732 75.0766 265 73 C267.5043 65.8449 268.383 64.8667 269 57 C270.3237 40.1224 271.2143 36.8675 269 22 C268.1748 16.4597 262.0995 10.3982 262 10 C261.9928 9.971 265.0428 9.2821 266 10 C272.521 14.8908 278.9287 17.8875 282 25 C286.2469 34.835 284.2389 39.5384 285 54 C285.7309 67.8873 285.2487 78.5178 285 82 C284.9987 82.0178 283 82 283 82 "/>
<path id="8" d="M279 80 C279 80 279.6668 77.0666 280 77 C282.9152 76.417 293.2412 76.1327 294 77 C294.9912 78.1327 295.4936 86.2789 294 93 C292.8487 98.1808 288 104 288 104 "/>
<path id="9" d="M296 86 C296 86 298.1975 82.1783 299 82 C300.1465 81.7452 302.9055 82.3464 305 84 C311.429 89.0755 313.0246 90.2686 318 97 C320.8513 100.8576 321.8152 102.3803 322 107 C322.7261 125.1516 323.1549 128.7014 320 147 C318.4846 155.7896 312 165 312 165 "/>
<path id="10" d="M315 165 C315 165 309.7387 178.3336 307 191 C305.9136 196.0246 307.349 200.7202 307 202 C306.974 202.0952 303.9994 201.9879 304 202 C304.0814 203.6277 308 222 308 222 "/>
<path id="11" d="M250 204 C250 204 238.591 215.8157 231 229 C220.0296 248.0539 214.8843 250.6111 212 270 C206.7448 305.3264 207.482 312.7534 213 350 C216.9804 376.8678 220.0379 380.7692 232 405 C238.2938 417.7491 241.5716 417.4739 252 429 C260.4937 438.3878 261.8032 440.2287 270 447 C271.4529 448.2002 275 448 275 448 "/>
<path id="12" d="M308 217 L308 226 "/>
<path id="13" d="M306 222 C306 222 306.2139 219.4965 307 219 C320.6495 210.3793 327.4476 208.3452 344 198 C345.8162 196.8649 345.8635 194.1457 347 194 C358.6888 192.5014 367.1708 191.9207 383 193 C386.6444 193.2485 387.0529 195.9613 391 197 C395.9109 198.2924 397.2368 196.3626 402 198 C412.2613 201.5273 413.2392 202.3324 423 208 C428.3326 211.0964 428.3926 211.6417 433 216 C446.7796 229.0348 448.2843 228.5277 460 243 C473.2915 259.4189 484 279 484 279 "/>
<path id="14" d="M479 290 C479 290 478.9589 284.3226 481 282 C491.1928 270.4012 498.5116 269.4536 508 257 C512.3328 251.3133 512.8117 247.7211 513 240 C513.2629 229.2213 512.5952 227.145 509 216 C502.8644 196.9796 499.8732 197.2893 493 178 C484.4528 154.0127 482.9514 153.1378 478 129 C475.2232 115.4633 476.1093 113.9538 477 100 C477.5619 91.1968 477.8313 90.0437 481 82 C484.002 74.3796 484.583 73.1909 490 67 C497.9627 57.8997 498.6344 55.4807 509 50 C539.8628 33.6817 545.3027 33.4219 577 21 C579.3963 20.0609 582.7692 20.6538 583 21 C583.5192 21.7788 583.9002 26.1743 583 30 C582.1057 33.8007 581.6145 35.5393 579 38 C574.3445 42.3816 572.5777 43.3202 566 46 C559.8419 48.5089 556.7853 45.8554 552 49 C541.7703 55.7224 540.5085 58.4049 531 69 C523.274 77.609 522.297 78.1627 517 88 C512.2557 96.8108 510.9758 98.4047 510 108 C508.1674 126.0206 509.1425 129.9113 511 147 C511.3531 150.2487 514.1648 150.4737 515 154 C518.3822 168.2802 516.3748 169.9813 520 185 C523.2836 198.6036 526.289 198.445 529 212 C533.1418 232.709 532.5121 233.5745 534 255 C534.9954 269.334 534 284 534 284 "/>
<path id="15" d="M266 236 C266 236 255.6559 252.0863 253 267 C249.6518 285.8016 249.4322 289.462 253 309 C259.5269 344.7428 262.0907 346.6443 274 382 C277.8231 393.3499 278.3076 394.2852 285 404 C293.3215 416.0796 305 427 305 427 "/>
<path id="16" d="M310 386 C310 386 308.2335 408.07 309 428 C309.1848 432.8044 309.5653 434.1741 312 438 C315.8844 444.104 323.0805 449.5439 323 450 C322.9402 450.3387 315.0966 451.8065 309 455 C305.2791 456.949 304.2887 457.7959 302 461 C299.8897 463.9544 299.391 465.2859 299 469 C298.4878 473.8659 299.9787 479.9976 300 480 C300.0662 480.0074 303.9332 473.7539 308 470 C309.6158 468.5085 310.6088 468.2277 313 468 C320.3712 467.298 328.8456 467.9485 329 468 C329.0257 468.0086 325.7357 470.0873 325 472 C323.7535 475.241 323.9986 480.9996 324 481 C324.0034 481.0009 326.0226 475.7789 329 473 C332.7257 469.5227 334.5146 469.2427 339 467 C339.6901 466.655 340.9942 466.9624 341 467 C341.2442 468.5874 340.9007 479.9752 341 480 C341.4203 480.1051 357 471 357 471 "/>
<path id="17" d="M346 410 C346 410 346.1734 414.6645 348 418 C357.1376 434.686 362.4541 436.4145 369 452 C371.4459 457.8236 370.4212 463.0257 369 468 C368.4036 470.0874 366.0516 471.5759 363 473 C359.3624 474.6975 354 475 354 475 "/>
<path id="18" d="M365 442 C365 442 373.289 447.9544 381 449 C400.6245 451.6609 403.7663 450.4129 424 450 C426.8439 449.942 430 448 430 448 "/>
<path id="19" d="M460 357 C460 357 451.0684 371.2247 445 386 C439.7729 398.7268 441.8782 401.1528 437 413 C435.475 416.7037 431.741 416.9126 431 420 C429.4197 426.5844 428.6944 433.224 431 438 C433.2747 442.7119 437.7744 445.6801 445 449 C454.7674 453.4877 468 455 468 455 "/>
<path id="20" d="M453 452 C453 452 442.2677 450.6405 434 451 C432.2175 451.0775 430.32 452.04 430 453 C427.76 459.72 427.0183 471.2663 426 475 C425.9759 475.0882 423.9954 475.004 424 475 C424.0373 474.9674 429.4115 469.606 434 468 C437.6855 466.7101 443.9264 467.8382 444 468 C444.1412 468.3107 439.2979 477.0639 439 479 C438.9611 479.2531 441.7369 481.1435 442 481 C443.7041 480.0705 446.0734 474.8698 450 473 C454.6391 470.7909 462.4316 470.621 463 471 C463.2761 471.1841 461.944 480.9868 462 481 C462.6861 481.1614 480 475 480 475 "/>
<path id="21" d="M472 414 C472 414 484.428 420.1683 494 428 C500.1906 433.065 500.7888 434.3823 505 441 C507.297 444.6096 507.0622 445.6238 508 450 C508.4862 452.2692 508.6834 454.3166 508 455 C505.6763 457.3237 501.3374 457.3855 497 461 C493.0692 464.2756 493.8631 467.1535 490 470 C485.5552 473.2751 479.34 474.7938 478 475 C477.9435 475.0087 477 472 477 472 "/>
<path id="22" d="M488 420 C488 420 490.9248 420.6912 492 420 C496.2432 417.2722 496.9963 414.0578 502 411 C504.9771 409.1807 506.7491 410.6254 510 409 C513.0703 407.4649 514.202 406.9301 516 404 C526.7459 386.4882 529.6747 384.7026 537 365 C543.5689 347.3319 542.941 345.3027 545 326 C546.8599 308.5637 546.7241 305.172 545 290 C544.5897 286.389 541.3232 285.7048 540 282 C539.1887 279.7284 540 276 540 276 "/>
<path id="23" d="M536 267 L544 288 "/>
<path id="24" d="M267 441 C267 441 272.5576 448.0395 277 449 C287.2257 451.211 291.3173 450.3008 304 449 C309.8295 448.4021 312.077 447.2417 316 445 C317.1769 444.3275 318 441 318 441 "/>
<path id="25" d="M284 453 C284 453 276.1682 451.6072 270 453 C261.8137 454.8485 259.9331 455.7799 253 460 C249.654 462.0367 248.949 463.2791 247 467 C243.8065 473.0966 241.9863 480.9634 242 481 C242.0034 481.009 245.8657 477.0671 250 475 C254.3222 472.8389 255.0057 472.908 260 472 C265.7692 470.9511 271.9772 470.9975 272 471 C272.0053 471.0006 269.1799 472.3705 269 473 C268.7032 474.0387 269.9871 478.002 270 478 C270.7282 477.888 276.3793 472.4572 282 471 C288.1029 469.4178 293.1334 471.4833 297 471 C297.3222 470.9597 298 469 298 469 "/>
<path id="26" d="M217 265 C217 265 221.4697 269.7349 226 272 C229.6242 273.8121 230.5552 273.6135 235 274 C241.783 274.5898 242.9205 275.1054 249 274 C252.7898 273.3109 257 270 257 270 "/>
<path id="27" d="M214 290 C214 290 217.8929 294.9464 222 297 C226.8214 299.4107 228.0991 299.0165 234 300 C236.8324 300.4721 238.3523 300.9415 240 300 C243.4522 298.0273 248 292 248 292 "/>
<path id="28" d="M208 305 C208 305 212.2921 311.606 217 316 C219.1503 318.007 220.1963 318.6996 223 319 C232.7573 320.0454 235.0926 320.2784 245 319 C249.2855 318.447 251.5727 316.9418 254 315 C254.8356 314.3315 255 311 255 311 "/>
<path id="29" d="M212 336 C212 336 220.6115 339.0131 229 340 C237.1626 340.9603 239.9475 341.6947 246 340 C249.546 339.0071 254 333 254 333 "/>
<path id="30" d="M213 356 C213 356 224.7788 360.6898 236 363 C241.0502 364.0398 243.6093 364.6953 247 363 C253.6273 359.6864 262 350 262 350 "/>
<path id="31" d="M223 380 C223 380 233.865 385.543 244 388 C249.3018 389.2853 250.7622 388.873 256 388 C258.8371 387.5271 259.8497 387.007 262 385 C266.7079 380.606 271 374 271 374 "/>
<path id="32" d="M233 411 C233 411 245.244 415.9929 257 418 C264.9322 419.3543 267.2018 419.6995 274 418 C279.0986 416.7253 280.6037 414.7683 285 411 C286.8841 409.385 288 406 288 406 "/>
<path id="33" d="M266 439 C266 439 273.6835 439.9024 280 439 C283.3516 438.5212 284.5826 438.1757 287 436 C293.6043 430.0561 300 421 300 421 "/>
<path id="34" d="M323 206 C323 206 323.2127 197.6455 326 193 C329.616 186.9734 335.1308 183.2544 338 181 C338.1626 180.8723 339.9597 181.6778 340 182 C340.4833 185.8666 340 197 340 197 "/>
<path id="35" d="M340 197 C340 197 360.2544 178.1553 361 178 C361.0025 177.9995 363.9309 191.9309 364 192 C364.0122 192.0122 365.5262 187.6641 368 185 C371.5458 181.1814 376.8321 177.8921 377 178 C377.5702 178.3666 380.4253 192.8627 382 194 C383.0304 194.7442 390.3246 193.0455 395 191 C396.5517 190.3211 396.2634 188.1164 398 187 C402.4306 184.1518 408.7409 181.7581 409 182 C409.8893 182.83 412.2702 200.6683 413 201 C413.8033 201.3651 430.4454 191.6471 431 192 C431.8421 192.5359 434.0935 213.9122 435 215 C435.1434 215.1721 440.5792 211.3552 446 210 C451.8633 208.5342 458.9981 208.9824 459 209 C459.1342 210.2527 448.9346 237.9427 449 238 C449.0548 238.048 474.2759 222.8886 475 223 C475.0893 223.0137 475.6791 232.8318 475 242 C474.7088 245.9318 474.5526 246.8947 473 250 C471.9649 252.0702 468.9993 254.0003 469 254 C469.0023 253.9991 476.1707 248.6723 483 246 C486.744 244.535 492.0095 244.9287 492 245 C491.8585 246.0613 478.9874 275.861 479 276 C479.0032 276.0356 493.531 267.0625 494 267 C494.027 266.9964 494.8501 271.1098 494 274 C492.607 278.7361 489 284 489 284 "/>
<path id="36" d="M328 241 C328 241 334.7029 233.4728 342 228 C346.2246 224.8315 352 223 352 223 "/>
<path id="37" d="M374 212 C374 212 382.1805 210.1561 386 212 C393.5621 215.6507 403 226 403 226 "/>
<path id="38" d="M374 249 C374 249 383.1355 251.6745 391 256 C402.7873 262.483 414 271 414 271 "/>
<path id="39" d="M436 237 L473 274 "/>
<path id="40" d="M201 109 C201 109 202.1592 100.9913 204 98 C204.7275 96.8178 207.8641 95.858 209 96 C209.8071 96.1009 211.5428 97.5368 212 99 C213.5822 104.063 214.4929 107.5639 214 112 C213.79 113.8902 211.3833 116.3852 210 117 C208.9872 117.4501 205.2071 116.5177 205 116 C204.006 113.515 204 102 204 102 "/>
<path id="41" d="M234 112 C234 112 234.3324 106.6676 236 105 C239.5204 101.4796 246.1825 98.5193 248 98 C248.1484 97.9576 249.8851 99.6784 250 101 C250.7242 109.328 251.7699 114.1733 250 121 C249.2199 124.0088 246.0412 126.3624 243 128 C241.3056 128.9124 238.7485 128.8743 237 128 C234.3772 126.6886 232.4109 124.9982 231 122 C229.0905 117.9424 228.2467 114.7665 229 111 C229.7249 107.3756 235 102 235 102 "/>
<path id="42" d="M176 154 C176 154 179.8171 145.6908 184 142 C186.6209 139.6874 191.6602 138.5215 193 139 C194.3278 139.4742 196.762 143.2861 198 147 C198.8965 149.6894 198.8255 151.3171 198 154 C197.1473 156.7713 195.8707 159.0647 194 160 C191.194 161.403 184 161 184 161 "/>
<path id="43" d="M185 150 C185 150 189.7433 149.3717 191 150 C191.8378 150.4189 193.0315 153.8742 193 154 C192.9933 154.027 190.1564 154.2347 190 154 C189.4785 153.2178 189 148 189 148 "/>
<path id="44" d="M138 152 C138 152 139.9942 144.0058 140 144 C140.0023 143.9977 141 149 141 149 "/>
<path id="45" d="M241 116 C241 116 241.8084 112.1916 242 112 C242.0383 111.9617 243.9542 113.0229 244 113 C244.0306 112.9847 244 111 244 111 C243.9786 111 242 113 242 113 "/>
<path id="46" d="M207 106 C207 106 208.9149 104.9433 209 105 C209.1914 105.1276 210 108 210 108 "/>
<path id="47" d="M140 213 C140 213 130.7579 217.9697 122 219 C106.5497 220.8177 104.105 220.8881 89 219 C81.7908 218.0989 79.9325 217.1528 74 213 C66.1208 207.4846 59.0888 198.0508 59 198 C58.9812 197.9892 58.6791 202.6884 60 205 C61.9191 208.3584 63.3154 209.5436 67 212 C70.1582 214.1055 74.7338 214.7782 75 215 C75.0084 215.007 73.7996 216.9112 73 217 C67.2427 217.6397 63.7757 218.1784 57 217 C53.741 216.4332 50.0003 212.9995 50 213 C49.9982 213.0027 52.2799 218.3377 55 220 C59.5281 222.7672 61.4864 223.0526 68 224 C88.4216 226.9704 91.0425 227.6209 110 228 C113.5771 228.0715 114.0631 225.5624 118 225 C127.4086 223.6559 130.5053 225.022 138 224 C138.8459 223.8846 140 222.6043 140 222 C140 218.9786 138 212 138 212 "/>
<path id="48" d="M47 193 C47 193 38.0523 173.0769 35 154 C32.3147 137.2168 32.8394 135.2851 35 118 C37.7158 96.2736 44.9968 74.0076 45 74 C45.0012 73.9972 45.9886 91.999 46 92 C46.0438 92.0036 57 75 57 75 C57 75 49.9594 83.4037 45 92 C42.7754 95.8559 42.1752 96.6773 42 101 C40.7512 131.803 40.2682 134.1352 42 166 C42.7266 179.3694 47 193 47 193 "/>
<path id="49" d="M125 202 C125 202 110.1942 196.1295 98 188 C88.3789 181.5859 87.8068 180.6145 80 172 C73.7258 165.0768 69.0003 156.0006 69 156 C68.9999 155.9998 71.2864 159.6432 74 161 C81.2362 164.6181 90.3992 167.3181 91 167 C91.3451 166.8173 90.1498 159.085 91 152 C91.5872 147.1066 93.9994 141.997 94 142 C94.0019 142.0104 90.405 163.7497 95 174 C100.2688 185.7536 109.0008 190.42 120 200 C121.5862 201.3815 126 201 126 201 "/>
</g>
</g>
</svg>
