<?xml version="1.0" encoding="utf-8"?>
<!DOCTYPE svg PUBLIC "-//W3C//DTD SVG 1.1//EN" "http://www.w3.org/Graphics/SVG/1.1/DTD/svg11.dtd">
<svg viewBox="0 0 800 800" preserveAspectRatio="xMinYMin meet" xmlns="http://www.w3.org/2000/svg" version="1.1">
<g fill="none" stroke="black" stroke-linecap="round" stroke-linejoin="round" stroke-width="2.8514">
<g transform="translate(87.52,187.9976) scale(1.0521) translate(-8,-47)">
<path id="0" d="M226 103 C226 103 221.3213 102.5143 219 104 C210.614 109.367 210.475 112.5293 201 119 C190.3059 126.3033 187.4379 124.2561 178 132 C169.1444 139.2662 167.7051 141.8085 162 151 C159.7832 154.5714 159.0137 158.2876 160 161 C161.6632 165.5739 169.0312 173.2363 170 173 C174.981 171.7851 185.5997 160.6252 201 151 C204.7425 148.6609 210 148 210 148 "/>
<path id="1" d="M177 170 C177 170 176.934 171.9811 177 172 C177.809 172.2311 182.5703 172.9898 184 172 C186.4981 170.2706 187.4804 164.6198 190 163 C191.7103 161.9005 195.9927 164.2678 198 163 C202.6618 160.0557 209 151 209 151 "/>
<path id="2" d="M187 195 C187 195 185.4342 191.3201 186 190 C187.4851 186.5348 189.0364 184.3378 193 181 C197.8651 176.9031 198.8246 176.5553 205 174 C212.9051 170.7289 222 169 222 169 "/>
<path id="3" d="M186 197 C186 197 194.1329 200.7854 201 201 C208.6758 201.2399 211.1642 201.3452 218 198 C232.7269 190.7932 237.0927 188.9073 248 178 C254.5444 171.4556 252.4588 167.0045 258 158 C260.0535 154.663 261.3674 152.5945 264 152 C273.0294 149.9611 277.0963 152.4004 289 151 C293.4325 150.4785 294.7969 147.8116 298 148 C300.9896 148.1759 303.2014 149.366 306 152 C310.8277 156.5437 313.9734 158.6386 315 164 C317.6184 177.6736 317.0956 182.834 315 199 C313.8081 208.1949 308 218 308 218 "/>
<path id="4" d="M225 104 C225 104 227.4763 101.5938 230 101 C243.3472 97.8595 244.6139 97.5985 259 96 C266.788 95.1347 267.1638 95.2537 275 96 C287.9203 97.2305 288.5964 96.9747 301 100 C308.57 101.8463 311.4277 101.5513 316 106 C327.2321 116.9285 333.4456 121.636 338 136 C344.5613 156.6933 338.6233 165.8636 342 188 C342.4982 191.2663 344.0493 192.5411 347 195 C352.3566 199.4638 354.5227 202.2598 360 203 C369.1778 204.2402 372.7966 202.9226 384 200 C395.0069 197.1286 395.5528 196.2236 406 191 C414.279 186.8605 413.9238 184.0559 422 181 C431.1906 177.5225 432.6044 177.6206 443 177 C465.5153 175.6558 466.613 174.9414 489 177 C509.3116 178.8677 510.5778 179.8696 530 185 C536.1199 186.6166 535.9083 189.154 542 191 C551.7922 193.9673 557.2535 190.5305 563 195 C574.4666 203.9184 576.3359 210.1759 587 226 C591.4573 232.614 591.9286 233.4049 594 241 C597.7196 254.6386 598.0517 255.5383 599 270 C602.0135 315.9557 605.9506 322.1767 602 363 C600.6171 377.2896 596.1559 380.3835 587 394 C577.3869 408.2965 576.2013 410.4837 563 421 C548.2254 432.7696 545.4829 434.8574 528 441 C510.8993 447.0083 508.325 446.3049 489 447 C439.7392 448.772 438.0856 449.636 389 446 C358.1898 443.7178 350.9265 442.76 327 435 C321.0825 433.0808 315 422 315 422 "/>
<path id="5" d="M311 215 C311 215 308.1703 215.6347 307 217 C302.9348 221.7427 302.0103 222.7644 299 229 C295.224 236.8216 294.1257 237.7451 293 246 C291.2943 258.5087 289.5214 262.9303 293 273 C297.4531 285.8905 300.8517 291.524 312 301 C327.7717 314.4059 333.6615 320.5953 353 324 C396.5078 331.6598 406.2434 329.1373 454 326 C471.3865 324.8578 473.2941 321.2162 490 315 C493.692 313.6262 493.3573 311.2462 497 310 C511.1085 305.1734 514.2193 307.8303 528 302 C538.7903 297.4349 549 288 549 288 "/>
<path id="6" d="M317 423 C317 423 314.2525 425.7279 314 428 C312.9586 437.3726 314.0002 449.9985 314 450 C313.9999 450.0006 312.1339 445.419 312 441 C311.1576 413.2002 311.7503 391.1162 312 384 C312.0003 383.9912 313.8884 383.7898 314 384 C318.2 391.9059 321.1288 402.7621 329 416 C330.7624 418.9641 336.003 420.985 336 421 C335.9987 421.0067 330.6228 421.8743 328 421 C326.2515 420.4172 323.9999 416.9998 324 417 C324.0002 417.0004 333 430 333 430 "/>
<path id="7" d="M330 431 L330 431 "/>
<path id="8" d="M336 432 C336 432 350.1027 436.9984 364 438 C404.6394 440.929 411.7134 438.3588 447 440 C448.3135 440.0611 448.7125 441.9532 450 442 C471.7878 442.7923 476.8575 443.479 502 442 C509.8499 441.5382 512.4066 441.5425 518 438 C525.0923 433.5082 525.15 428.8225 532 423 C533.9718 421.324 535.7239 422.6258 538 421 C545.4412 415.6849 546.3738 414.9273 553 408 C557.0452 403.7709 556.9561 403.2182 560 398 C567.3847 385.3406 568.1087 385.3537 574 372 C582.9824 351.6398 586.0413 350.4921 590 330 C594.0555 309.0069 592.7325 303.4039 591 284 C590.6024 279.5471 588.456 277.9876 585 274 C582.4838 271.0967 580.5646 269.2565 578 269 C573.6573 268.5657 568.59 269.0748 565 272 C558.1471 277.5838 551 291 551 291 "/>
<path id="9" d="M188 190 C188 190 188.2236 177.7764 190 176 C191.9985 174.0015 199.8756 175.9564 205 173 C210.4896 169.8329 211.5071 164.3697 216 161 C217.1232 160.1576 219.9535 160.2389 221 161 C223.4735 162.7989 227 169 227 169 "/>
<path id="10" d="M208 150 C208 150 215.6932 150.612 221 153 C224.5871 154.6142 226.963 156.7532 228 159 C228.7345 160.5915 227.9873 164.2229 227 166 C226.4483 166.9931 223 168 223 168 "/>
<path id="11" d="M235 119 C235 119 225.5444 119.9758 220 123 C216.3331 125.0001 215.3939 127.11 213 131 C211.9078 132.7748 211.9451 135.9817 212 136 C213.5926 136.5309 227.6193 138.8204 231 137 C233.7609 135.5134 238 122 238 122 "/>
<path id="12" d="M354 201 C354 201 353.6141 191.5923 355 183 C356.0412 176.5443 355.7018 175.1828 359 170 C368.8173 154.5728 378.9419 153.0342 383 139 C388.562 119.7648 380.4532 111.5131 383 87 C384.2651 74.823 385.1775 71.316 391 62 C395.9734 54.0426 400.6332 51.2501 408 47 C410.5845 45.509 413.3598 45.7487 417 47 C427.8322 50.7236 428.4802 55.6534 440 58 C479.8164 66.1108 524.8174 68.9319 525 69 C525.0449 69.0167 510.9768 73.6789 499 80 C493.6444 82.8266 493.4096 83.5904 489 88 C483.6105 93.3895 482.0703 93.8594 479 100 C475.7491 106.5018 477.4603 114.7447 475 116 C464.9688 121.118 451.832 119.6377 430 125 C423.8828 126.5025 420.606 126.634 418 130 C411.5645 138.3125 412.8196 143.9846 406 156 C402.652 161.8988 400.5934 161.1198 397 167 C389.8252 178.7405 388.8424 179.8941 384 192 C382.3324 196.1689 383 202 383 202 "/>
<path id="13" d="M353 236 C353 236 362.3712 229.9175 371 228 C378.8532 226.2548 382.2497 226.2499 389 228 C393.0557 229.0515 396.3893 231.4334 398 235 C401.8226 243.4642 401.5866 247.1278 403 259 C404.0344 267.6887 405.0906 269.5878 403 277 C400.2006 286.9251 392 298 392 298 "/>
<path id="14" d="M352 246 C352 246 356.0025 242.2067 359 242 C368.0068 241.3788 379.7916 242.0665 381 244 C384.0594 248.8951 386.795 270.82 384 282 C382.6494 287.4024 371.1967 295.9087 368 296 C364.3689 296.1037 349.0007 283.0004 349 283 C348.9998 282.9999 353.1748 285.6619 354 288 C355.5069 292.2696 355.6813 299.2619 355 300 C354.2004 300.8663 342.7996 300.1337 342 301 C341.3187 301.7381 342.0566 311.9709 343 313 C343.6695 313.7304 348.9246 314.1644 353 313 C358.1816 311.5195 362.9216 306.923 364 307 C364.357 307.0255 365.1421 312.1421 367 314 C368.8579 315.8579 373.3193 317.4821 374 317 C378.3515 313.9177 391 297 391 297 "/>
<path id="15" d="M473 277 C473 277 480.2945 289.8719 482 302 C484.5324 320.0082 483.162 322.796 482 341 C481.7559 344.8235 480.905 346.0064 479 349 C477.9339 350.6753 477.1099 351.2782 475 352 C459.2919 357.3738 451.0699 357.1011 441 362 C439.2143 362.8687 438.391 366.2859 438 370 C437.4878 374.8659 438.9869 381 439 381 C439.1312 381 444.3575 373.095 449 370 C451.3212 368.4525 456.996 368.9861 457 369 C457.0194 369.0678 452.5156 372.9583 451 377 C448.4678 383.7526 448 392.9995 448 393 C448 393.0002 448.7956 386.8894 451 385 C456.9422 379.9067 463.5853 376.648 469 375 C470.0516 374.6799 473.4116 376.627 474 378 C475.3077 381.0512 474.9991 389.0017 475 389 C475.002 388.9964 475.3871 376.9483 479 369 C481.9806 362.4426 484.3275 361.3388 490 356 C492.1541 353.9726 494.1775 354.8225 496 353 C497.8225 351.1775 498.7758 349.8255 499 347 C501.0548 321.11 503.0407 314.1487 501 290 C500.473 283.7638 493 276 493 276 "/>
<path id="16" d="M169 181 C169 181 166.389 185.416 164 186 C148.0793 189.8917 143.89 190.5267 124 192 C103.8368 193.4936 100.1661 191.2197 83 192 C81.7059 192.0588 80 194 80 194 "/>
<path id="17" d="M168 188 C168 188 168.9955 192.2081 168 194 C165.0872 199.243 163.655 201.2286 158 206 C148.2618 214.2166 144.8314 212.4073 136 221 C127.4491 229.3198 126.3542 230.9461 121 242 C111.3867 261.8468 111.4287 263.4637 105 285 C101.6099 296.3568 101 309 101 309 "/>
<path id="18" d="M164 196 C164 196 150.4688 196.3213 139 200 C124.9624 204.5026 123.7091 205.0829 111 213 C93.8987 223.6533 92.2286 231.3042 78 238 C72.4282 240.622 60 237 60 237 "/>
<path id="19" d="M113 233 C113 233 105.4644 236.564 103 241 C96.8995 251.9809 98.9524 255.6071 93 269 C87.0884 282.3011 84.2393 281.5743 79 295 C68.5052 321.893 70.3302 325.13 61 351 C60.0381 353.6671 58.1422 355.6573 57 356 C55.8786 356.3364 51 354 51 354 "/>
<path id="20" d="M86 260 C86 260 84.2914 263.7168 82 265 C73.2254 269.9138 71.2011 272.1784 61 274 C45.1263 276.8346 26 275 26 275 "/>
<path id="21" d="M86 198 C86 198 37.373 199.3509 10 199 C9.2703 198.9906 8 197 8 197 "/>
<path id="22" d="M177 185 C177 185 173.7575 200.3259 168 214 C161.9745 228.3106 159.3142 227.7244 153 242 C147.9795 253.3507 146.4701 254.2392 145 266 C142.17 288.6396 144 314 144 314 "/>
<path id="23" d="M250 100 C250 100 248.3377 85.0344 250 77 C250.5234 74.4704 253.3665 72.2154 256 71 C258.1021 70.0298 260.5024 70.1675 263 71 C265.2597 71.7532 268.0789 74.6055 268 75 C267.6687 76.6567 261.8268 80.9763 260 86 C258.5553 89.973 260 97 260 97 "/>
</g>
</g>
</svg>
