<?xml version="1.0" encoding="utf-8"?>
<!DOCTYPE svg PUBLIC "-//W3C//DTD SVG 1.1//EN" "http://www.w3.org/Graphics/SVG/1.1/DTD/svg11.dtd">
<svg viewBox="0 0 800 800" preserveAspectRatio="xMinYMin meet" xmlns="http://www.w3.org/2000/svg" version="1.1">
<g fill="none" stroke="black" stroke-linecap="round" stroke-linejoin="round" stroke-width="1.3873">
<g transform="translate(87.52,217.2695) scale(2.1625) translate(-175,-192.1333)">
<path id="0" d="M177 350.1333 C177 350.1333 221.1837 352.3721 260 351.1333 C265.206 350.9672 266.1868 349.9281 271 347.1333 C281.1625 341.2325 291 333.1333 291 333.1333 "/>
<path id="1" d="M175 340.1333 C175 340.1333 212.9379 345.5016 243 340.1333 C264.0309 336.3778 287 320.1333 287 320.1333 "/>
<path id="2" d="M175 340.1333 L176 352.1333 "/>
<path id="3" d="M293 335.1333 C293 335.1333 292.9964 326.1393 296 321.1333 C300.7525 313.2125 304.3832 307.2557 311 305.1333 C323.5948 301.0935 347.3661 302.0265 349 304.1333 C351.8695 307.8335 350.5233 332.4257 349 354.1333 C348.7782 357.2943 344.9524 361.0857 345 361.1333 C345.1745 361.3079 355.9217 361.4687 356 361.1333 C357.8509 353.201 353.3364 323.2215 359 301.1333 C361.0838 293.0064 368.2335 290.1601 376 283.1333 C377.1444 282.0979 379.6957 281.8725 380 282.1333 C380.8715 282.8803 382.8486 285.8538 383 289.1333 C384.2298 315.7792 385.118 323.8359 383 347.1333 C382.688 350.5659 376.98 355.1133 377 355.1333 C377.14 355.2733 388.9011 356.5326 391 355.1333 C392.7991 353.9339 394.6998 348.9124 395 343.1333 C396.5985 312.3628 396.1992 306.1155 395 278.1333 C394.9054 275.9255 391.8943 274.1906 392 273.1333 C392.1215 271.9186 393.8344 269.2798 396 268.1333 C400.9253 265.5258 403.5281 267.2113 409 264.1333 C418.6432 258.7091 420.4123 257.721 428 250.1333 C432.3687 245.7647 433.7331 243.7441 435 238.1333 C436.7725 230.2836 435 219.1333 435 219.1333 "/>
<path id="4" d="M286 321.1333 C286 321.1333 292.2408 316.7607 293 313.1333 C295.841 299.5595 292.6293 294.7284 295 278.1333 C295.9886 271.2131 298.3883 271.1845 300 264.1333 C302.3081 254.0355 299.5791 247.7442 303 243.1333 C306.6585 238.2023 313.6071 234.3375 323 233.1333 C348.5984 229.8515 352.3972 234.2477 381 233.1333 C390.4275 232.766 395.6807 231.6451 400 230.1333 C400.517 229.9524 399.9986 227.1347 401 226.1333 C406.0069 221.1264 410.2278 221.0986 415 215.1333 C419.0413 210.0816 417.3715 206.4365 421 201.1333 C422.9619 198.2659 425.5538 197.1118 428 196.1333 C428.7067 195.8507 430.9407 196.7923 431 197.1333 C431.8641 202.102 430.3011 217.5704 432 219.1333 C433.9932 220.9671 456 220.1333 456 220.1333 "/>
<path id="5" d="M437 194.1333 C437 194.1333 452.6627 192.7746 460 194.1333 C461.5714 194.4243 463.6188 196.9417 464 199.1333 C465.2046 206.0597 465.5213 215.1367 464 217.1333 C462.7162 218.8183 448 220.1333 448 220.1333 "/>
<path id="6" d="M429 198.1333 L442 192.1333 "/>
<path id="7" d="M442 213.1333 L445 213.1333 "/>
</g>
</g>
</svg>
