<?xml version="1.0" encoding="utf-8"?>
<!DOCTYPE svg PUBLIC "-//W3C//DTD SVG 1.1//EN" "http://www.w3.org/Graphics/SVG/1.1/DTD/svg11.dtd">
<svg viewBox="0 0 800 800" preserveAspectRatio="xMinYMin meet" xmlns="http://www.w3.org/2000/svg" version="1.1">
<g fill="none" stroke="black" stroke-linecap="round" stroke-linejoin="round" stroke-width="1.8913">
<g transform="translate(87.52,293.7251) scale(1.5862) translate(-48,-186.4167)">
<path id="0" d="M58 297.4167 C58 297.4167 50.0376 289.3446 48 282.4167 C45.8421 275.0799 46.8553 272.2877 48 263.4167 C48.754 257.5729 48.9968 255.8213 52 251.4167 C55.5686 246.1828 57.0763 244.4507 63 241.4167 C76.093 234.7105 78.4814 232.2524 93 230.4167 C119.3631 227.0834 122.9995 231.644 150 230.4167 C154.3278 230.22 154.5828 227.7491 159 227.4167 C199.3623 224.3787 203.4985 230.9083 243 223.4167 C287.5074 214.9756 287.8949 207.2024 333 194.4167 C350.9025 189.342 351.5575 189.8354 370 187.4167 C381.7368 185.8774 383.0997 184.9303 394 186.4167 C403.5715 187.7219 408.1595 187.9744 414 193.4167 C426.2616 204.8423 431.2874 210.8749 438 227.4167 C443.6205 241.2672 443.3775 248.642 442 262.4167 C441.367 268.7466 436.1143 277.0645 433 277.4167 C386.5756 282.6671 351.516 272.693 274 281.4167 C198.4099 289.9236 191.9045 307.672 122 312.4167 C91.1929 314.5077 53 296.4167 53 296.4167 "/>
<path id="1" d="M141 254.4167 C141 254.4167 147.6775 255.0748 153 257.4167 C159.6011 260.3212 161.9934 260.6816 166 265.4167 C171.4016 271.8004 175 283.4167 175 283.4167 "/>
<path id="2" d="M267 238.4167 C267 238.4167 276.5877 245.8176 281 253.4167 C284.4954 259.4365 285 269.4167 285 269.4167 "/>
<path id="3" d="M142 253.4167 C142 253.4167 161.9148 245.577 168 247.4167 C173.7224 249.1467 177.697 256.4845 185 266.4167 C189.8414 273.001 193 281.4167 193 281.4167 "/>
<path id="4" d="M175 285.4167 L194 280.4167 "/>
<path id="5" d="M267 236.4167 C267 236.4167 285.6142 230.1826 288 231.4167 C290.3769 232.6461 293.3773 241.4506 296 251.4167 C298.198 259.7692 298 269.4167 298 269.4167 "/>
<path id="6" d="M287 271.4167 L296 266.4167 "/>
<path id="7" d="M48 284.4167 C48 284.4167 48.858 290.3611 50 292.4167 C50.3342 293.0183 52.4116 292.6601 53 293.4167 C54.9615 295.9386 54.3385 298.7552 57 301.4167 C62.323 306.7397 63.8719 309.0406 71 311.4167 C88.5461 317.2654 91.1163 317.406 111 319.4167 C134.9239 321.8359 135.8348 320.8002 160 320.4167 C166.9222 320.3068 167.7343 320.5052 174 318.4167 C181.9745 315.7585 181.8934 313.1189 190 310.4167 C199.2647 307.3284 200.4371 309.2855 210 306.4167 C220.1042 303.3854 219.8591 301.0393 230 298.4167 C248.2933 293.6856 248.9622 294.3012 268 291.4167 C281.8685 289.3154 282.0808 288.7481 296 288.4167 C323.7558 287.7558 324.155 290.3006 352 289.4167 C386.905 288.3086 387.4306 287.4798 422 284.4167 C426.5037 284.0176 428.4641 284.3186 431 282.4167 C434.502 279.7902 438 272.4167 438 272.4167 "/>
</g>
</g>
</svg>
