<?xml version="1.0" encoding="utf-8"?>
<!DOCTYPE svg PUBLIC "-//W3C//DTD SVG 1.1//EN" "http://www.w3.org/Graphics/SVG/1.1/DTD/svg11.dtd">
<svg viewBox="0 0 800 800" preserveAspectRatio="xMinYMin meet" xmlns="http://www.w3.org/2000/svg" version="1.1">
<g fill="none" stroke="black" stroke-linecap="round" stroke-linejoin="round" stroke-width="0.89766">
<g transform="translate(87.52,262.9767) scale(3.342) translate(-202,-253)">
<path id="0" d="M202 255 C202 255 201.5966 267.0569 204 274 C205.1501 277.3224 207.1232 278.6463 211 281 C220.3288 286.6639 221.1554 287.6191 232 291 C305.0262 313.767 381 334 381 334 "/>
<path id="1" d="M203 253 C203 253 204.4317 258.9454 207 261 C212.5317 265.4254 215.0797 265.6056 223 269 C225.213 269.9484 227.6272 270.0746 228 270 C228.0311 269.9938 227.9741 267.9909 228 268 C228.7265 268.2564 236.3164 272.8987 245 276 C257.0258 280.2949 257.898 279.8624 270 283 C270.9026 283.234 272 283 272 283 C272 282.9256 269.9826 280.0521 270 280 C270.0074 279.9777 271.7473 279.568 273 280 C285.2969 284.2403 285.8723 286.1389 299 290 C311.007 293.5315 311.8038 291.646 324 295 C351.5946 302.5885 379 312 379 312 "/>
<path id="2" d="M374 310 C374 310 378.556 309.0224 381 310 C384.631 311.4524 388.168 313.504 389 316 C390.728 321.184 390.1603 331.9959 389 334 C388.525 334.8204 378 335 378 335 "/>
<path id="3" d="M220 273 C220 273 215.0169 271.9605 215 272 C214.8943 272.2467 217.1709 279.5441 217 280 C216.9558 280.1179 213.2763 280.547 212 280 C211.1613 279.6406 210 277 210 277 "/>
<path id="4" d="M224 277 L219 282 "/>
<path id="5" d="M225 278 L225 285 "/>
<path id="6" d="M232 280 L226 286 "/>
<path id="7" d="M238 282 C238 282 232.0204 283.1254 231 284 C230.5986 284.3441 230.709 286.2541 231 288 C231.1576 288.9457 231.98 290 232 290 C232.02 290 233 288 233 288 "/>
<path id="8" d="M237 283 C237 283 239.9418 282.8642 240 283 C240.3168 283.7392 240.689 289.1141 240 290 C239.2672 290.9421 233 292 233 292 "/>
<path id="9" d="M243 286 L243 292 "/>
<path id="10" d="M250 289 L244 292 "/>
<path id="11" d="M248 289 L251 296 "/>
<path id="12" d="M254 290 C254 290 254.2155 294.4612 254 295 C253.9655 295.0862 252 295 252 295 "/>
<path id="13" d="M262 290 C262 290 260.8746 295.9796 260 297 C259.6559 297.4014 256.4 296.8 256 297 C255.9 297.05 256 299 256 299 "/>
<path id="14" d="M259 290 C259 290 267.3354 287.9262 268 288 C268.0252 288.0028 268.3927 290.6073 268 291 C266.8219 292.1781 262.0045 293.9932 262 294 C261.9983 294.0026 265.3631 293.6178 266 294 C266.4459 294.2675 267.0959 296.9041 267 297 C266.7123 297.2877 262 298 262 298 "/>
<path id="15" d="M276 291 C276 291 273.0999 291.6335 273 292 C272.4503 294.0156 272.8247 301.474 273 302 C273 302 276 301 276 301 "/>
<path id="16" d="M276 291 C276 291 279.7268 291.522 280 292 C280.4988 292.8729 280.7537 296.1158 280 298 C279.2966 299.7586 276.2821 301.8871 276 302 C275.9899 302.004 275 300 275 300 "/>
<path id="17" d="M284 294 L280 303 "/>
<path id="18" d="M287 294 L288 305 "/>
<path id="19" d="M283 299 L287 299 "/>
<path id="20" d="M292 297 C292 297 291.8027 303.1939 291 305 C290.7782 305.4991 288.0351 306.0468 288 306 C287.8597 305.813 288 301 288 301 "/>
<path id="21" d="M290 297 C290 297 294.3997 294.8285 295 295 C295.426 295.1217 297.1937 298.0314 297 299 C296.6341 300.8295 293 304.8513 293 305 C293 305 296.0332 304.5166 297 305 C297.846 305.423 299 308 299 308 "/>
<path id="22" d="M305 300 L305 311 "/>
<path id="23" d="M303 298 C303 298 311.6464 298.3813 312 299 C312.7153 300.2519 311.3497 311.3589 311 312 C310.9812 312.0344 306 310 306 310 "/>
<path id="24" d="M322 296 L331 320 "/>
<path id="25" d="M375 310 C375 310 377.9614 310.7298 378 311 C378.3474 313.4316 376.4795 318.0143 377 324 C377.4136 328.7563 380 333.3652 380 334 C380 334 377 334 377 334 "/>
<path id="26" d="M370 308 L370 332 "/>
<path id="27" d="M364 308 L363 328 "/>
<path id="28" d="M359 304 L359 329 "/>
<path id="29" d="M351 304 L351 327 "/>
<path id="30" d="M334 299 L334 320 "/>
<path id="31" d="M340 303 L340 322 "/>
<path id="32" d="M346 305 L346 325 "/>
<path id="33" d="M346 306 L345 303 "/>
<path id="34" d="M355 325 L354 305 "/>
<path id="35" d="M254 262 L254 262 "/>
</g>
</g>
</svg>
