<?xml version="1.0" encoding="utf-8"?>
<!DOCTYPE svg PUBLIC "-//W3C//DTD SVG 1.1//EN" "http://www.w3.org/Graphics/SVG/1.1/DTD/svg11.dtd">
<svg viewBox="0 0 800 800" preserveAspectRatio="xMinYMin meet" xmlns="http://www.w3.org/2000/svg" version="1.1">
<g fill="none" stroke="black" stroke-linecap="round" stroke-linejoin="round" stroke-width="1.5745">
<g transform="translate(87.52,209.4634) scale(1.9054) translate(-167.5,-173.8333)">
<path id="0" d="M183.5 325.8333 C183.5 325.8333 230.5512 293.0955 279.5 264.8333 C314.1117 244.8492 316.2237 247.8763 351.5 228.8333 C372.5251 217.4835 371.4553 214.9468 392.5 203.8333 C415.6474 191.6094 418.1818 193.5798 440.5 181.8333 C445.4487 179.2288 449.5 173.8333 449.5 173.8333 "/>
<path id="1" d="M200.5 367.8333 C200.5 367.8333 206.0958 362.2726 212.5 358.8333 C232.5651 348.0576 234.7137 349.6598 254.5 338.8333 C260.4514 335.5769 259.9958 333.02 265.5 329.8333 C268.6095 328.0331 270.0932 329.5917 273.5 327.8333 C284.9005 321.9492 284.5824 319.8967 296.5 313.8333 C369.7477 276.567 371.1808 277.9346 444.5 240.8333 C453.8428 236.1056 454.371 236.0001 462.5 229.8333 C468.469 225.3051 473.5 218.8333 473.5 218.8333 "/>
<path id="2" d="M182.5 326.8333 C182.5 326.8333 171.012 334.4697 168.5 340.8333 C165.3617 348.7836 166.8308 355.4645 167.5 364.8333 C167.6179 366.4834 169.2233 368.2659 170.5 368.8333 C172.1033 369.5459 175.2433 368.205 176.5 368.8333 C177.3378 369.2522 177.7793 372.6732 178.5 372.8333 C182.4917 373.7204 188.3791 373.9992 194.5 372.8333 C196.7043 372.4135 199.5 368.8333 199.5 368.8333 "/>
<path id="3" d="M449.5 174.8333 C449.5 174.8333 461.1694 172.5374 470.5 173.8333 C477.5818 174.8169 479.0753 175.9785 485.5 179.8333 C490.8194 183.025 493.3485 184.9607 495.5 188.8333 C496.8303 191.2279 496.9279 195.0965 495.5 197.8333 C492.2854 203.9946 489.9287 205.6969 483.5 211.8333 C479.2718 215.8693 473.5 218.8333 473.5 218.8333 "/>
<path id="4" d="M171.5 368.8333 C171.5 368.8333 174.7406 368.2909 175.5 368.8333 C176.7476 369.7245 178.5 373.8333 178.5 373.8333 "/>
<path id="5" d="M177.5 372.8333 L172.5 372.8333 "/>
<path id="6" d="M172.5 371.8333 C172.5 371.8333 170.4951 369.8366 170.5 369.8333 C170.5371 369.8086 174.9612 369.6178 175.5 369.8333 C175.5862 369.8678 175.5 371.8333 175.5 371.8333 "/>
<path id="7" d="M219.5 353.8333 L238.5 368.8333 "/>
<path id="8" d="M236.5 343.8333 L255.5 357.8333 "/>
<path id="9" d="M255.5 358.8333 C255.5 358.8333 244.6656 358.534 242.5 359.8333 C241.4172 360.483 240.2762 367.535 240.5 367.8333 C240.7066 368.1087 245.5393 368.8202 248.5 367.8333 C251.7074 366.7642 254.0464 364.9099 255.5 362.8333 C256.2342 361.7846 256.2004 359.094 255.5 357.8333 C254.5506 356.1244 250.5 353.8333 250.5 353.8333 "/>
<path id="10" d="M465.5 226.8333 L478.5 240.8333 "/>
<path id="11" d="M477.5 216.8333 C477.5 216.8333 488.9004 228.0538 489.5 228.8333 C489.5152 228.8531 487.5 229.8333 487.5 229.8333 "/>
<path id="12" d="M488.5 230.8333 C488.5 230.8333 482.9607 230.0347 479.5 230.8333 C477.6957 231.2497 476.0076 232.5644 475.5 233.8333 C474.7276 235.7644 475.2823 240.6778 475.5 240.8333 C475.7426 241.0066 480.9205 240.4129 482.5 238.8333 C485.1325 236.2008 487.5 228.8333 487.5 228.8333 "/>
<path id="13" d="M200.5 313.8333 C200.5 313.8333 201.902 325.2122 206.5 331.8333 C212.9707 341.1511 225.5 349.8333 225.5 349.8333 "/>
<path id="14" d="M435.5 183.8333 L472.5 222.8333 "/>
</g>
</g>
</svg>
