<?xml version="1.0" encoding="utf-8"?>
<!DOCTYPE svg PUBLIC "-//W3C//DTD SVG 1.1//EN" "http://www.w3.org/Graphics/SVG/1.1/DTD/svg11.dtd">
<svg viewBox="0 0 800 800" preserveAspectRatio="xMinYMin meet" xmlns="http://www.w3.org/2000/svg" version="1.1">
<g fill="none" stroke="black" stroke-linecap="round" stroke-linejoin="round" stroke-width="1.8145">
<g transform="translate(87.52,104.88) scale(1.6533) translate(-60,0)">
<path id="0" d="M169 288 C169 288 187.7097 271.3732 207 257 C212.7512 252.7148 214.4017 254.3187 220 250 C231.3878 241.2152 230.2565 237.2596 242 230 C256.2351 221.2001 260.6347 224.5019 275 216 C283.6561 210.877 282.3982 207.4513 291 201 C308.0457 188.2157 308.4206 186.9439 327 177 C343.1632 168.3493 344.8757 168.3514 362 163 C367.7897 161.1907 369.1905 163.3832 375 162 C378.9288 161.0646 379.3573 158.2325 383 158 C400.1809 156.9033 422 159 422 159 "/>
<path id="1" d="M168 289 C168 289 163.8166 288.688 162 290 C156.415 294.0336 155.0014 295.7482 150 302 C147.4067 305.2417 146.5975 306.1163 146 310 C143.8288 324.1131 143.3297 328.5998 144 341 C144.1349 343.4952 145.5674 345.1756 148 347 C154.5108 351.8831 156.3721 354.377 164 356 C177.29 358.8277 181.9544 360.2167 195 357 C214.8037 352.1169 218.7407 349.6436 237 338 C251.4891 328.7606 249.5956 323.7495 264 313 C282.5058 299.1897 283.4375 298.9159 304 288 C323.5141 277.6406 327.201 280.617 345 270 C353.7879 264.7581 352.5616 260.6925 361 254 C366.4565 249.6724 368.4808 250.8959 374 247 C376.3163 245.365 375.6118 243.5284 378 242 C398.9896 228.5667 402.2156 228.8247 424 215 C427.3841 212.8524 428.0681 212.3118 430 209 C434.6093 201.0983 436.3955 199.6239 438 191 C440.0582 179.9371 439.7951 176.172 438 166 C437.2778 161.9073 434.5404 158.3449 432 157 C429.4041 155.6257 421 157 421 157 "/>
<path id="2" d="M202 263 C202 263 203.6242 249.6401 202 238 C200.7762 229.2293 197.6968 228.7669 196 220 C194.8488 214.0521 197.4874 212.652 196 207 C192.8386 194.9866 192.7603 190.941 186 182 C179.3815 173.2465 174.5108 168.5792 165 166 C150.737 162.1321 127 166 127 166 "/>
<path id="3" d="M203 258 C203 258 204.9063 259.6881 205 261 C205.7454 271.4355 203.42 275.2559 205 286 C205.6153 290.1839 207.328 291.7342 210 295 C211.0762 296.3154 212.126 296.7795 214 297 C219.7523 297.6767 221.7096 298.5871 227 297 C235.017 294.5949 238.0518 292.3829 244 288 C245.4308 286.9458 244.5416 284.6043 246 283 C248.8391 279.877 249.7694 279.4407 254 277 C262.5606 272.0612 272 268 272 268 "/>
<path id="4" d="M228 242 C228 242 269.8867 239.4324 276 242 C277.378 242.5788 279.0774 257.3977 278 263 C277.6684 264.7246 271 268 271 268 "/>
<path id="5" d="M236 243 C236 243 225.7793 224.1053 219 205 C215.0317 193.8167 217.834 192.3354 214 181 C206.5251 158.9003 205.5143 150.1143 196 137 C192.5343 132.223 186.1991 131.2383 177 130 C161.7775 127.9508 160.2658 129.0793 144 130 C134.0582 130.5627 124 133 124 133 "/>
<path id="6" d="M125 126 C125 126 145.1196 114.1845 164 112 C202.1142 107.5901 210.4708 109.0392 246 112 C252.3548 112.5296 255.3268 114.9019 260 120 C270.1877 131.1138 270.4576 133.661 279 148 C284.2928 156.8843 285.4803 157.3659 288 167 C293.6747 188.6976 291.1956 192.1807 296 213 C296.6952 216.0124 298.5789 218.8395 300 219 C317.6566 220.9935 341.5875 221.8236 358 220 C359.6696 219.8145 362.3157 215.7636 363 212 C364.9342 201.362 364.9526 193.6681 364 187 C363.8577 186.0036 361.1303 184.038 359 184 C337.5167 183.6164 316.0252 189.5365 308 186 C304.7432 184.5648 305.5207 171.1303 300 158 C287.2924 127.7766 285.892 125.7157 271 98 C268.8797 94.0539 267.8002 93.2455 264 91 C257.6716 87.2605 256.0684 85.3884 249 85 C213.9822 83.0759 210.7896 84.3426 173 86 C154.0289 86.8321 135 90 135 90 "/>
<path id="7" d="M136 85 C136 85 145.0244 75.4215 155 70 C166.9164 63.5237 168.5147 62.2925 182 60 C216.8596 54.0739 255 53 255 53 "/>
<path id="8" d="M127 166 C127 166 109.2727 165.3692 95 161 C86.4607 158.3859 83.3179 156.9088 78 151 C71.9044 144.2271 72.0534 141.1334 68 131 C65.1964 123.9911 65.7745 123.5418 64 116 C61.7802 106.5658 60.8171 106.3965 60 97 C58.8598 83.8872 58.0114 81.9317 60 70 C61.1907 62.8557 62.2815 60.3925 67 55 C74.9013 45.9699 76.9282 44.5527 88 38 C100.5122 30.5948 102.1479 30.0402 116 26 C125.0515 23.36 136 24 136 24 "/>
<path id="9" d="M92 36 C92 36 89.1735 37.8725 89 39 C88.5066 42.2071 90 49 90 49 "/>
<path id="10" d="M139 27 C139 27 133.7696 32.1146 131 38 C118.1892 65.223 116.7181 66.095 107 95 C97.4351 123.4493 95.4585 125.2677 92 154 C89.2267 177.0401 89.6197 180.8248 94 203 C97.083 218.6075 108 235 108 235 "/>
<path id="11" d="M97 34 C97 34 92.9393 63.2536 87 92 C80.4641 123.6336 76.7993 123.9645 72 155 C69.5019 171.1545 69.0974 173.594 72 189 C75.197 205.9689 76.9741 208.8743 85 224 C89.0032 231.5444 98 238 98 238 "/>
<path id="12" d="M113 234 C113 234 119.3663 225.2846 126 219 C128.1556 216.9578 131.9471 215.9339 132 216 C132.4288 216.536 134.6747 224.7272 134 229 C133.6389 231.2871 131.7333 233.2917 129 235 C124.783 237.6356 117.9991 238.9997 118 239 C118.0016 239.0005 133.6357 236.1725 136 237 C136.7038 237.2463 138.5435 243.1014 138 246 C137.4998 248.6676 135.6475 250.6173 133 253 C131.4068 254.4339 130.3912 254.7723 128 255 C120.6288 255.702 117.6867 255.8979 112 255 C110.7654 254.8051 108.9706 252.0069 109 252 C109.2596 251.9389 125.5481 250.0586 129 251 C129.684 251.1865 131.4432 255.9319 131 258 C130.4557 260.5402 128.8548 262.8589 126 265 C121.8919 268.0811 119.6053 269.6316 115 270 C109.4414 270.4447 105.5055 269.9459 101 267 C95.0289 263.0958 91.9324 259.5416 89 253 C86.6624 247.7853 87.6805 245.029 88 238 C88.1515 234.6671 88.2086 233.3885 90 231 C94.7945 224.6073 101.4518 218.7286 103 218 C103.1334 217.9372 106.4992 220.9966 107 223 C107.5635 225.2538 106 230 106 230 "/>
<path id="13" d="M143 23 C143 23 181.9657 25 182 25 C182.0035 25 178.2377 23.7727 178 23 C177.1905 20.3692 176.9711 16.373 178 12 C178.6493 9.2406 180.1081 7.0187 182 6 C184.4957 4.6562 187.2417 6.3265 191 5 C194.9238 3.6151 195.3008 0.77067 199 0 C205.5461 -1.3638 208.9088 -2.1866 215 0 C225.6693 3.83 228.7184 6.781 238 14 C240.5867 16.0119 242.1914 19.7561 242 21 C241.7925 22.3488 239.0291 25.9251 236 27 C226.0231 30.5402 223.3787 30.8948 211 32 C195.9198 33.3465 190.1949 33.9288 180 32 C177.5913 31.5443 174 25 174 25 "/>
<path id="14" d="M197 10 L199 10 "/>
<path id="15" d="M218 15 L219 16 "/>
<path id="16" d="M208 15 L209 15 "/>
<path id="17" d="M207 15 L198 21 "/>
<path id="18" d="M188 21 L206 29 "/>
<path id="19" d="M199 40 C199 40 207.4832 40.9195 213 40 C214.7732 39.7045 216.8538 37.3654 217 37 C217.0381 36.9047 215 35 215 35 "/>
<path id="20" d="M202 34 C202 34 210.7243 42.9367 214 51 C216.307 56.6789 215 66 215 66 "/>
<path id="21" d="M216 54 C216 54 223.4235 65.1773 228 77 C235.2253 95.6652 234.2519 96.4564 240 116 C241.7411 121.9199 242.4142 122.0248 243 128 C244.8676 147.05 245 167 245 167 "/>
<path id="22" d="M193 55 C193 55 190.2187 57.3594 190 59 C189.4598 63.0518 189.1972 65.2755 191 70 C202.9878 101.4163 209.9384 103.1383 219 135 C224.5705 154.5865 221.987 178.8959 222 179 C222.0011 179.0088 224 175 224 175 "/>
<path id="23" d="M230 164 C230 164 234.3711 166.6416 235 169 C237.562 178.6076 237.9999 194.0003 238 194 C238.0002 193.9995 237.4584 174.8015 239 159 C239.2764 156.1669 241.9048 153 242 153 C242.1269 153 245.3804 156.0793 246 159 C248.5001 170.7864 249 186 249 186 C249 186 249.9684 159.0184 250 159 C250.0013 158.9993 260.968 178.9767 261 179 C261.0109 179.008 262.2144 171.6149 261 167 C260.1584 163.802 258.3906 161.5937 256 160 C254.104 158.736 251.1312 158.3443 249 159 C246.5994 159.7387 244.6832 161.0867 243 164 C232.7503 181.7398 223.0422 203.9852 223 204 C222.9857 204.005 221.0453 181.8903 223 171 C223.4298 168.6053 230 165 230 165 "/>
<path id="24" d="M258 227 C258 227 251.2016 232.4641 247 239 C238.1246 252.8061 235.9709 254.3636 231 269 C227.6782 278.781 228.6769 281.3363 229 292 C229.1421 296.6909 229.9667 297.9334 232 302 C233.0609 304.1217 236 306 236 306 "/>
<path id="25" d="M352 177 C352 177 348.0876 178.544 346 181 C340.1846 187.8416 339.6183 188.687 335 197 C329.7783 206.3991 327.4764 207.5877 326 217 C323.8732 230.5582 327 248 327 248 "/>
</g>
</g>
</svg>
