<?xml version="1.0" encoding="utf-8"?>
<!DOCTYPE svg PUBLIC "-//W3C//DTD SVG 1.1//EN" "http://www.w3.org/Graphics/SVG/1.1/DTD/svg11.dtd">
<svg viewBox="0 0 800 800" preserveAspectRatio="xMinYMin meet" xmlns="http://www.w3.org/2000/svg" version="1.1">
<g fill="none" stroke="black" stroke-linecap="round" stroke-linejoin="round" stroke-width="0.85445">
<g transform="translate(87.52,115.6081) scale(3.511) translate(-180,-172)">
<path id="0" d="M180 275 C180 275 184.5826 274.1757 187 272 C193.6043 266.0561 192.5112 262.8387 200 257 C250.047 217.9803 252.8871 215.4368 305 180 C313.425 174.271 315.3938 174.5617 325 172 C329.3401 170.8426 330.6829 170.9721 335 172 C340.2628 173.253 341.9134 173.6241 346 177 C352.3648 182.2579 356.379 184.9582 358 191 C360.5164 200.3794 360.9072 208.0543 357 218 C351.6868 231.5246 348.7188 236.5363 336 247 C281.6822 291.6869 266.0355 299.7237 216 334 C214.0498 335.3359 209.778 334.9648 209 334 C202.7268 326.2212 199.051 318.8244 191 303 C184.6654 290.5493 180 277 180 277 "/>
<path id="1" d="M205 253 C205 253 205.4324 246.5044 205 246 C204.6824 245.6294 199.5192 246.3462 199 246 C198.7692 245.8462 198.3599 242.9145 199 242 C200.7443 239.5081 205.959 235.9765 206 236 C206.0657 236.0375 206.431 244.9224 206 246 C205.931 246.1724 202 246 202 246 "/>
<path id="2" d="M247 318 C247 318 252.0795 326.6026 252 327 C251.9762 327.1192 245.1186 328.0949 245 328 C244.9617 327.9694 245.7516 323.9079 247 323 C249.4767 321.1988 255.4612 320.0599 256 320 C256.0128 319.9986 256.1544 321.9228 256 322 C254.6105 322.6948 248 324 248 324 "/>
<path id="3" d="M243 315 L246 322 "/>
<path id="4" d="M279 189 L281 194 "/>
<path id="5" d="M281 191 C281 191 273.2116 191.141 273 191 C272.9824 190.9882 275 187 275 187 "/>
<path id="6" d="M277 185 C277 185 278.9976 183.9878 279 184 C279.0236 184.1182 278 190 278 190 "/>
<path id="7" d="M320 262 C320 262 319.75 265.75 320 266 C320.25 266.25 323.6 265.8 324 266 C324.1 266.05 324.1544 267.9228 324 268 C322.6105 268.6948 316.4559 270.1709 316 270 C315.8821 269.9558 315.7845 265.5388 316 265 C316.0345 264.9138 318 265 318 265 "/>
<path id="8" d="M229 235 C229 235 231.5829 242.5436 236 248 C248.0344 262.866 251.8251 261.8987 263 277 C269.4796 285.7562 273 298 273 298 "/>
<path id="9" d="M227 238 C227 238 227.4625 250.1735 231 256 C234.0984 261.1032 239.1764 260.4528 244 266 C248.3216 270.9698 246.7266 273.3022 251 279 C259.898 290.8639 271 302 271 302 "/>
<path id="10" d="M274 201 C274 201 273.8444 204.129 275 206 C283.5068 219.7728 286.4086 219.9651 295 235 C304.1682 251.0443 311 269 311 269 "/>
<path id="11" d="M270 207 C270 207 278.7891 217.576 284 229 C291.4299 245.2887 289.1141 249.5396 296 264 C297.8282 267.8392 304 271 304 271 "/>
</g>
</g>
</svg>
