<?xml version="1.0" encoding="utf-8"?>
<!DOCTYPE svg PUBLIC "-//W3C//DTD SVG 1.1//EN" "http://www.w3.org/Graphics/SVG/1.1/DTD/svg11.dtd">
<svg viewBox="0 0 800 800" preserveAspectRatio="xMinYMin meet" xmlns="http://www.w3.org/2000/svg" version="1.1">
<g fill="none" stroke="black" stroke-linecap="round" stroke-linejoin="round" stroke-width="2.8274">
<g transform="translate(87.52,309.8105) scale(1.0611) translate(-34,-138)">
<path id="0" d="M81 172 C81 172 94.0764 174.9163 107 175 C324.0531 176.4064 544 175 544 175 "/>
<path id="1" d="M84 306 C84 306 97.0342 307.944 110 308 C327.8528 308.941 547 308 547 308 "/>
<path id="2" d="M87 173 C87 173 77.4734 170.6607 71 172 C65.0778 173.2253 61.936 174.5017 58 179 C49.8335 188.3332 48.456 191.5724 43 204 C40.0087 210.8136 40 220 40 220 "/>
<path id="3" d="M40 220 C40 220 35.2771 230.2089 34 240 C32.4023 252.2491 32.9331 253.9087 34 266 C34.3391 269.8435 37 274 37 274 "/>
<path id="4" d="M37 274 C37 274 36.131 278.7414 37 282 C37.8762 285.2858 38.4612 286.3202 41 289 C46.9445 295.2748 55 301 55 301 "/>
<path id="5" d="M55 301 C55 301 57.9697 303.9305 61 305 C65.7859 306.6891 66.5577 306.7823 72 307 C91.1561 307.7662 111 307 111 307 "/>
<path id="6" d="M542 176 C542 176 568.4987 175.173 590 176 C591.8262 176.0702 594 178 594 178 "/>
<path id="7" d="M595 178 C595 178 600.4994 178.6661 602 180 C603.2537 181.1144 602.5233 184.3593 604 186 C605.9499 188.1666 609.2733 187.7552 611 190 C613.0806 192.7048 614 199 614 199 "/>
<path id="8" d="M614 199 C614 199 621.1178 203.4712 622 207 C624.4922 216.9688 623 235 623 235 "/>
<path id="9" d="M623 236 C623 236 621.5633 244.3407 618 250 C613.7287 256.7839 606 263 606 263 "/>
<path id="10" d="M606 263 C606 263 605.6536 266.9055 604 269 C598.9245 275.429 591 282 591 282 "/>
<path id="11" d="M591 282 C591 282 587.5891 290.0367 583 294 C577.9907 298.3263 569 301 569 301 "/>
<path id="12" d="M569 301 C569 301 562.8664 305.4791 557 307 C550.3963 308.7121 542 308 542 308 "/>
<path id="13" d="M210 152 C210 152 216.2298 157 221 157 C241.8156 157 269 152 269 152 "/>
<path id="14" d="M267 138 C267 138 268.2355 154.5836 268 160 C267.9883 160.2681 266 161 266 161 "/>
<path id="15" d="M266 161 C266 161 265.7129 163.5723 265 164 C260.5189 166.6886 257.0566 169.3943 251 170 C244.4871 170.6513 235 167 235 167 "/>
<path id="16" d="M210 150 C210 150 213.6293 161.8428 217 164 C221.0719 166.606 235 166 235 166 "/>
<path id="17" d="M211 155 C211 155 210.5847 147.8012 212 146 C213.8595 143.6334 217.074 142.4074 222 141 C226.8644 139.6102 233 140 233 140 "/>
<path id="18" d="M233 140 L251 140 "/>
<path id="19" d="M251 140 L266 139 "/>
<path id="20" d="M213 162 L220 197 "/>
<path id="21" d="M220 183 L248 188 "/>
<path id="22" d="M269 162 C269 162 269.9037 182.4951 268 185 C266.7437 186.6531 250 187 250 187 "/>
<path id="23" d="M266 168 C266 168 266 179 266 179 C266 179 266.0047 164.0058 266 164 C265.9979 163.9973 263.9295 171.3469 262 174 C261.4157 174.8034 257.9993 175.0022 258 175 C258.0018 174.9947 262.9669 171.1984 263 171 C263.0091 170.9453 259.5 169 259 169 C258.875 169 258.3604 170.9199 258 171 C256.0041 171.4435 250.0034 170.9949 250 171 C249.9994 171.001 256.0069 173.9983 256 174 C255.9764 174.0059 238.0001 174 238 174 C238 174 247.9996 174.9996 248 175 C248.0003 175.0003 240.0071 175.9859 240 176 C240 176 246.0027 179 246 179 C245.9882 179 221.0504 175.8687 220 176 C219.9488 176.0064 221.4278 181.8239 222 182 C223.5449 182.4754 232.9459 180.0649 233 180 C233.0048 179.9942 229.7488 177.0995 227 176 C225.5533 175.4213 223.1951 175.7561 223 176 C222.6951 176.3811 222.7243 180.5404 223 181 C223.0993 181.1654 225.957 181.0861 226 181 C226.1004 180.7992 224.9842 176.9947 225 177 C225.0833 177.0278 234.7507 183.9501 235 184 C235.0219 184.0044 234.9831 179.0034 235 179 C235.0711 178.9858 237.935 182.7522 240 183 C247.4911 183.8989 255.4741 182.8621 260 182 C260.3523 181.9329 261.1151 179.1534 261 179 C260.7954 178.7272 258.9706 178.2463 257 178 C255.0891 177.7611 252.9995 177.9997 253 178 C253.0011 178.0007 260.0039 179.9969 260 180 C259.9903 180.0078 248 182 248 182 C248 182 253.6998 181.8126 255 181 C255.5968 180.627 256.1011 177.0632 256 177 C255.351 176.5944 247.8685 175.9035 247 176 C246.9783 176.0024 246.9138 177.9655 247 178 C247.5388 178.2155 252 178 252 178 C252 178 246.0042 177.9958 246 178 C245.9986 178.0014 248.3398 180 250 180 C255.8107 180 262.3545 177.5612 264 178 C264.3177 178.0847 265.1776 183.9044 265 184 C263.8428 184.6231 251 185 251 185 "/>
<path id="24" d="M242 174 C242 174 237.4137 170.3241 233 169 C228.2501 167.575 222 168 222 168 "/>
<path id="25" d="M222 168 C222 168 218.6369 168.3822 218 168 C217.5541 167.7325 217 164.9998 217 165 C217 165.0006 217.8494 173.7364 218 174 C218.0045 174.0079 220.6994 172.9019 221 172 C222.0355 168.8934 221.9977 162.0015 222 162 C222.001 161.9993 224 170 224 170 "/>
<path id="26" d="M236 173 C236 173 225.0113 173.0068 225 173 C224.9957 172.9974 231.0006 170.001 231 170 C230.9966 169.9949 223.5 169.5 223 170 C222.5 170.5 223 178 223 178 "/>
<path id="27" d="M219 198 C219 198 218.6717 208.0265 220 215 C220.3532 216.8544 223 217.5514 223 219 C223 226.2432 220 239 220 239 "/>
<path id="28" d="M220 239 C220 239 217.2365 248.7766 217 258 C216.7527 267.6449 219 278 219 278 "/>
<path id="29" d="M220 280 C220 280 219.5245 289.2868 222 293 C225.5117 298.2676 236 304 236 304 "/>
<path id="30" d="M271 185 C271 185 275.5236 189.1848 278 194 C284.2218 206.098 289 220 289 220 "/>
<path id="31" d="M290 220 L285 269 "/>
<path id="32" d="M285 269 C285 269 285.9106 274.9917 285 280 C284.0292 285.3394 283.6297 286.2665 281 291 C278.9448 294.6993 278.1626 296.0234 275 298 C271.3802 300.2624 265 301 265 301 "/>
<path id="33" d="M265 301 C265 301 256.288 304.1983 248 306 C245.2506 306.5977 243.9671 306.6557 242 306 C240.6886 305.5629 239 303 239 303 "/>
<path id="34" d="M219 267 C219 267 222.6123 264.3986 226 264 C238.4939 262.5301 253 263 253 263 "/>
<path id="35" d="M253 264 L266 266 "/>
<path id="36" d="M266 266 L280 281 "/>
<path id="37" d="M280 281 L284 286 "/>
<path id="38" d="M286 268 L268 255 "/>
<path id="39" d="M268 255 C268 255 261.8501 251.936 256 251 C249.9833 250.0373 243 251 243 251 "/>
<path id="40" d="M243 251 C243 251 230.1637 250.0656 223 251 C221.7853 251.1584 220 254 220 254 "/>
<path id="41" d="M368 164 C368 164 367.2891 156.8436 368 154 C368.1955 153.218 371 152 371 152 "/>
<path id="42" d="M371 152 C371 152 372.1219 148.3136 373 148 C376.1648 146.8697 385 147 385 147 "/>
<path id="43" d="M385 147 C385 147 387.5673 144.1102 389 144 C391.9956 143.7696 398 146 398 146 "/>
<path id="44" d="M410 162 C410 162 409.4258 154.9605 408 153 C407.1321 151.8067 404.1008 152.4706 402 151 C399.8708 149.5096 398 146 398 146 "/>
<path id="45" d="M368 165 C368 165 366.2976 148.2559 368 144 C368.6485 142.3787 378 140 378 140 "/>
<path id="46" d="M378 140 L388 139 "/>
<path id="47" d="M388 139 L398 139 "/>
<path id="48" d="M398 139 C398 139 401.5135 139.2038 402 140 C405.0056 144.9182 405.5 153.675 409 157 C411.2527 159.1401 422 159 422 159 "/>
<path id="49" d="M410 159 L411 173 "/>
<path id="50" d="M371 161 L371 174 "/>
<path id="51" d="M373 179 C373 179 366.732 194.8221 364 210 C362.4087 218.8406 362.9102 219.8453 364 229 C365.3534 240.3688 369 252 369 252 "/>
<path id="52" d="M414 176 L426 211 "/>
<path id="53" d="M426 211 C426 211 431.6796 214.6292 432 217 C433.4519 227.7441 431 248 431 248 "/>
<path id="54" d="M431 248 C431 248 432.8767 264.2317 430 276 C428.0196 284.1017 425.5969 286.2248 420 293 C417.0233 296.6033 411 299 411 299 "/>
<path id="55" d="M369 248 L371 269 "/>
<path id="56" d="M371 269 L372 291 "/>
<path id="57" d="M372 291 C372 291 377.8976 298.8543 383 303 C384.4293 304.1613 388 304 388 304 "/>
<path id="58" d="M412 299 C412 299 407.7201 304.8096 404 306 C397.7079 308.0135 387 307 387 307 "/>
<path id="59" d="M372 275 L388 271 "/>
<path id="60" d="M388 271 L404 270 "/>
<path id="61" d="M404 270 C404 270 413.6043 268.9389 417 270 C418.1917 270.3724 420 275 420 275 "/>
<path id="62" d="M420 272 L427 280 "/>
<path id="63" d="M430 270 C430 270 427.9117 264.6592 426 264 C417.6904 261.1346 401 260 401 260 "/>
<path id="64" d="M403 260 C403 260 391.7296 258.5451 383 260 C378.2714 260.7881 373 265 373 265 "/>
<path id="65" d="M374 168 C374 168 386.7501 170.3214 398 170 C403.2088 169.8512 409 167 409 167 "/>
<path id="66" d="M371 186 C371 186 381.249 189.9105 391 192 C394.6648 192.7853 396.2271 192.9903 399 192 C401.6986 191.0362 402.0498 188.4751 405 187 C407.256 185.872 411 186 411 186 "/>
<path id="67" d="M411 185 C411 185 414.6 185.2 415 185 C415.1 184.95 415.2901 183.3867 415 183 C414.3836 182.1782 412.4117 182.0292 412 181 C410.1732 176.4331 409.1803 168.3005 409 168 C408.9854 167.9756 406.1749 169.776 406 171 C405.082 177.4258 406 188.9998 406 189 C406 189.0001 405.2487 185.4825 405 182 C404.7538 178.5527 404.9992 174.9992 405 175 C405.0014 175.0014 407.9979 185 408 185 C408.0007 185 409 175 409 175 C409 175 409.5872 184.1611 409 185 C408.7122 185.4111 402.8859 184.311 402 185 C401.0579 185.7328 400 192 400 192 C400 191.9999 403.1173 173.4694 403 173 C402.992 172.9679 398.349 174.1208 396 176 C394.2508 177.3994 393.0025 181.0025 393 181 C392.9898 180.9898 393.381 173.2667 393 173 C392.3673 172.5571 383 174 383 174 C383 174 400 173 400 173 C400 173 381 173 381 173 "/>
<path id="68" d="M381 173 C381 173 372.0658 170.9013 372 171 C371.852 171.222 374.9989 181.9993 375 182 C375.0006 182.0004 374.9994 172.9998 375 173 C375.0013 173.0004 376.1842 179.8873 378 183 C378.6696 184.148 381.9783 185.0304 382 185 C382.2459 184.6558 383 176 383 176 C383 176 383.0119 184.9985 383 185 C382.9261 185.0092 375.0606 176.9849 375 177 C374.9748 177.0063 375 187 375 187 C375.0026 187 377.4863 178.8922 379 177 C379.367 176.5413 382.8049 176.7561 383 177 C383.3049 177.3811 383 182 383 182 "/>
<path id="69" d="M382 181 C382 181 378.885 186.885 379 187 C379.5749 187.5749 390.9987 189.9995 391 190 C391.0005 190.0002 386 190 386 190 C386 190 393.5392 190.2173 395 189 C396.5598 187.7002 397.9999 180 398 180 C398.0002 180.0001 397.7596 188.9148 397 190 C396.7018 190.426 393.0571 190.5143 391 190 C390.1429 189.7857 388.9909 188.0136 389 188 C389.0499 187.9252 393.0016 187.0011 393 187 C392.9964 186.9976 385.9999 186 386 186 C386.0001 186 395 186 395 186 C395 186 388.0001 186.0001 388 186 C387.9999 185.9999 392.6657 185.7624 394 185 C394.5511 184.6851 395.125 182.125 395 182 C394.5 181.5 391.9211 180.5842 389 180 C387.1743 179.6349 385 180 385 180 C385 180 390.9958 179.9958 391 180 C391.0014 180.0014 387 182 387 182 C387 182 393.0044 178.0218 393 178 C392.9963 177.9813 386.0001 177 386 177 C386 177 389.9968 176.9741 390 177 C390.0494 177.3951 387 184.579 387 185 C387 185 389.4924 185.423 390 185 C391.2127 183.9895 391.7524 180.8911 393 180 C393.7594 179.4576 396.275 180.4833 397 180 C397.8458 179.4361 398.9986 175.9986 399 176 C399.0042 176.0042 399 182 399 182 "/>
<path id="70" d="M399 182 L405 178 "/>
</g>
</g>
</svg>
