<?xml version="1.0" encoding="utf-8"?>
<!DOCTYPE svg PUBLIC "-//W3C//DTD SVG 1.1//EN" "http://www.w3.org/Graphics/SVG/1.1/DTD/svg11.dtd">
<svg viewBox="0 0 800 800" preserveAspectRatio="xMinYMin meet" xmlns="http://www.w3.org/2000/svg" version="1.1">
<g fill="none" stroke="black" stroke-linecap="round" stroke-linejoin="round" stroke-width="1.2241">
<g transform="translate(87.52,283.5859) scale(2.4508) translate(-126,-142.4167)">
<path id="0" d="M154 189.4167 C154 189.4167 165.3569 196.1645 176 197.4167 C197.3407 199.9273 199.475 199.3337 222 197.4167 C245.8377 195.3879 247.935 195.8891 270 189.4167 C283.6329 185.4177 283.2613 181.3047 297 175.4167 C307.4081 170.956 311.7307 173.8686 319 168.4167 C328.4034 161.3641 328.1959 154.2208 337 145.4167 C339.3621 143.0546 341.2384 142.6518 345 142.4167 C355.9978 141.7293 359.0403 141.304 369 143.4167 C373.2257 144.313 377.1811 146.8112 378 149.4167 C380.7481 158.1606 380.7079 170.866 380 178.4167 C379.9148 179.3257 375.9929 179.9273 375 181.4167 C373.9548 182.9844 375.2772 185.957 374 187.4167 C370.0292 191.9548 365.9757 192.441 361 197.4167 C359.4857 198.931 360.423 201.2126 359 202.4167 C355.3283 205.5235 353.3183 207.4272 348 208.4167 C333.7907 211.0603 330.2795 207.0415 316 210.4167 C304.7427 213.0775 303.9163 218.1713 293 221.4167 C287.1825 223.1462 285.5043 220.3326 279 221.4167 C271.1793 222.7201 270.9518 224.8776 263 226.4167 C255.8796 227.7948 255.0341 225.834 248 227.4167 C235.6181 230.2026 235.2423 234.3138 223 235.4167 C181.9808 239.1121 166.1847 240.4254 137 237.4167 C132.8373 236.9875 127.1926 230.6208 126 225.4167 C123.0433 212.5146 125.2275 204.4809 126 189.4167 C126.0666 188.1184 127.0706 186.7071 128 186.4167 C132.627 184.9707 136.3806 183.2336 142 184.4167 C152.8032 186.691 154.5763 190.8468 166 194.4167 C169.3692 195.4695 174 194.4167 174 194.4167 "/>
<path id="1" d="M209 236.4167 C209 236.4167 230.1695 236.5425 250 232.4167 C303.8603 221.2108 311.9123 218.7578 358 205.4167 C361.0788 204.5254 362.4394 202.3148 364 199.4167 C365.2744 197.0498 363.6053 193.8935 365 192.4167 C369.5841 187.5629 381 181.4167 381 181.4167 "/>
<path id="2" d="M381 181.4167 C381 181.4167 372.437 193.7267 365 196.4167 C353.9884 200.3996 346.1798 195.8525 334 198.4167 C330.7969 199.091 330.2715 203.5988 327 204.4167 C317.1854 206.8703 313.8942 204.6145 302 206.4167 C298.0258 207.0188 297.8318 209.2176 294 209.4167 C261.5579 211.102 256.3711 213.4526 225 210.4167 C213.6324 209.3166 212.6872 202.6332 201 200.4167 C185.5701 197.4903 167 199.4167 167 199.4167 "/>
<path id="3" d="M167 199.4167 C167 199.4167 176.3826 205.918 185 207.4167 C197.443 209.5807 200.6528 205.792 213 207.4167 C217.6998 208.0351 219.9625 209.3792 223 212.4167 C226.0375 215.4542 226.8689 217.6659 228 222.4167 C229.1119 227.0866 228.8095 230.7859 228 233.4167 C227.7623 234.1893 224.0047 235.4378 224 235.4167 C223.9553 235.2155 224.198 226.6692 226 224.4167 C227.7162 222.2714 230.9959 221.489 236 220.4167 C244.4938 218.5966 246.2801 221.1186 254 218.4167 C264.8161 214.631 271.2082 211.6251 276 206.4167 C278.0689 204.1679 277.4442 193.7424 277 193.4167 C276.2435 192.8619 266.4286 193.7024 261 195.4167 C259.6085 195.8561 258.3347 197.6316 258 199.4167 C257.1197 204.1116 257.25 210.6667 258 211.4167 C258.75 212.1667 266.8214 210.2247 270 211.4167 C271.6555 212.0375 273.098 217.2964 274 217.4167 C275.9669 217.6789 280.6294 216.3304 285 213.4167 C291.7158 208.9395 295.9601 206.808 298 201.4167 C301.0599 193.3297 296.8424 184.7775 299 176.4167 C299.6669 173.8326 302.7612 171.3235 306 170.4167 C312.8209 168.5068 315.8437 168.2839 324 169.4167 C332.6002 170.6111 340.0918 173.747 342 175.4167 C342.4104 175.7757 341.9249 180.4727 340 183.4167 C334.2492 192.212 332.0753 195.9741 325 201.4167 C321.9246 203.7824 314.5011 203.876 314 203.4167 C313.2939 202.7694 312.9898 190.4136 313 190.4167 C313.033 190.4266 320.4943 205.3149 324 206.4167 C328.9054 207.9584 348 201.4167 348 201.4167 "/>
</g>
</g>
</svg>
