<?xml version="1.0" encoding="utf-8"?>
<!DOCTYPE svg PUBLIC "-//W3C//DTD SVG 1.1//EN" "http://www.w3.org/Graphics/SVG/1.1/DTD/svg11.dtd">
<svg viewBox="0 0 800 800" preserveAspectRatio="xMinYMin meet" xmlns="http://www.w3.org/2000/svg" version="1.1">
<g fill="none" stroke="black" stroke-linecap="round" stroke-linejoin="round" stroke-width="1.8913">
<g transform="translate(177.933,87.52) scale(1.5862) translate(-96,-87)">
<path id="0" d="M114 175 C114 175 121.4786 177.218 124 181 C136.1423 199.2135 137.6958 203.5516 148 226 C151.2809 233.1477 148.6344 235.1085 152 242 C158.6179 255.551 159.7089 256.199 169 269 C182.0661 287.0022 189.2838 293.1402 197 304 C197.3218 304.4529 195.7176 306.6307 196 307 C199.1211 311.0814 203.7766 313.4953 210 321 C220.5916 333.7723 228.4501 345.5891 230 348 C230.0111 348.0173 227.9769 348.9758 228 349 C229.0439 350.0961 240.6229 358.6182 250 369 C253.8616 373.2753 253.8685 377.3948 256 380 C256.3289 380.4019 258.4603 379.5143 259 380 C261.7163 382.4447 262.6374 384.4045 266 389 C277.6267 404.8898 278.5931 404.6013 289 421 C294.8842 430.2721 292.6617 432.4933 299 441 C310.9749 457.0715 314.614 456.5175 327 472 C329.8298 475.5372 330.9635 480.9635 331 481 C331.0084 481.0084 332.002 477.001 332 477 C331.997 476.9985 329.0114 480.0152 329 480 C328.7982 479.7309 326 469 326 469 "/>
<path id="1" d="M167 119 C167 119 187.3572 135.8192 199 156 C238.2803 224.0858 232.8543 230.2768 272 301 C307.6016 365.3202 312.5659 363.5342 349 427 C358.6724 443.8487 356.5364 445.6697 365 463 C366.8239 466.7347 369.424 469.808 370 470 C370.2095 470.0698 373.2565 467.9828 374 466 C375.7237 461.4035 376 454 376 454 "/>
<path id="2" d="M136 190 C136 190 123.3763 178.7849 115 166 C104.9866 150.7164 102.1809 148.5036 98 132 C93.4698 114.1178 95.366 105.265 96 91 C96.0647 89.5433 98.5683 87.1245 100 87 C106.1994 86.4609 118.9812 88.9965 119 89 C119.0027 89.0005 116.125 89.75 116 90 C115.875 90.25 117.2569 92.3149 117 93 C116.3638 94.6965 112.9639 97.8918 113 98 C113.0295 98.0885 117.1757 97.8391 119 99 C121.4241 100.5426 121.1134 102.992 124 105 C131.8525 110.4626 132.8646 111.2384 142 115 C149.2889 118.0013 151.5881 115.5193 158 119 C167.5775 124.1992 177 134 177 134 "/>
<path id="3" d="M325 471 C325 471 331.224 479.9145 336 481 C347.8746 483.6988 360.0855 482.6865 369 481 C370.4383 480.7279 373 474.4653 373 474 C373 473.9335 369.1646 473.3292 369 473 C368.7531 472.5062 370.0017 467.9994 370 468 C369.9962 468.0013 366.0073 474.0191 366 474 C365.9681 473.917 365 455 365 455 "/>
<path id="4" d="M193 215 C193 215 179.1886 209.6134 170 202 C163.128 196.3061 162.5189 194.2403 158 186 C154.4495 179.5255 154.5414 178.4502 153 171 C151.6343 164.399 151.4019 162.6817 152 157 C152.2288 154.8263 153.2144 153.3392 155 152 C158.1744 149.6192 163.6449 147.6161 164 148 C169.7397 154.2051 181.6696 170.9948 192 192 C195.2158 198.5388 191.5052 201.5156 194 209 C197.6245 219.8736 205.0059 231.0035 205 231 C204.9853 230.9913 167 193 167 193 "/>
<path id="5" d="M241 334 C241 334 259.3846 355.2418 276 377 C280.1333 382.4126 280.3982 382.8503 283 389 C285.7289 395.45 285.7176 401.8163 287 403 C287.5421 403.5004 294.1195 402.567 296 401 C297.7042 399.5799 299.0447 393.0894 299 393 C298.9931 392.9863 293.0102 395.0256 293 395 C292.4159 393.5397 293.4313 382.9955 291 373 C289.194 365.5754 288.4841 364.1923 284 358 C278.6068 350.5522 277.5186 349.8209 270 344 C262.5107 338.2018 261.1997 336.9096 253 334 C247.2718 331.9674 239 333 239 333 "/>
</g>
</g>
</svg>
