<?xml version="1.0" encoding="utf-8"?>
<!DOCTYPE svg PUBLIC "-//W3C//DTD SVG 1.1//EN" "http://www.w3.org/Graphics/SVG/1.1/DTD/svg11.dtd">
<svg viewBox="0 0 800 800" preserveAspectRatio="xMinYMin meet" xmlns="http://www.w3.org/2000/svg" version="1.1">
<g fill="none" stroke="black" stroke-linecap="round" stroke-linejoin="round" stroke-width="1.4929">
<g transform="translate(87.52,256.3195) scale(2.0095) translate(-131,-120.4167)">
<path id="0" d="M131 230.4167 C131 230.4167 132.6619 224.0348 136 221.4167 C155.4642 206.1506 157.77 201.6864 182 190.4167 C241.6703 162.663 244.6236 161.7096 308 141.4167 C344.7329 129.6549 347.2981 129.7789 385 125.4167 C405.9275 122.9953 429 127.4167 429 127.4167 "/>
<path id="1" d="M131 230.4167 C131 230.4167 132.7252 238.4128 136 244.4167 C138.3137 248.6585 139.2025 250.5722 143 252.4167 C154.2929 257.9018 157.1981 259.0774 171 261.4167 C185.5704 263.8862 187.4143 264.292 202 262.4167 C221.0336 259.9695 223.6894 259.1486 241 252.4167 C248.7808 249.3908 247.9687 245.345 256 241.4167 C292.8968 223.3693 294.086 221.151 333 207.4167 C360.9574 197.5494 364.6258 202.856 392 193.4167 C406.3748 188.4599 407.8456 186.7264 420 177.4167 C430.3621 169.4797 431.7566 167.294 439 157.4167 C441.6042 153.8655 441.1842 152.3116 442 147.4167 C442.6216 143.6872 443.3391 141.0601 442 139.4167 C435.8193 131.8313 420 120.4167 420 120.4167 "/>
<path id="2" d="M215 205.4167 C215 205.4167 218.1776 199.7295 222 196.4167 C224.9615 193.85 226.1993 193.3109 230 192.4167 C233.8257 191.5165 238.3029 191.6034 239 192.4167 C240.4974 194.1636 243.1269 202.8952 242 206.4167 C240.7452 210.3378 236.7018 214.3757 231 217.4167 C223.6755 221.3231 212 222.4167 212 222.4167 "/>
<path id="3" d="M217 201.4167 L210 204.4167 "/>
<path id="4" d="M220 200.4167 C220 200.4167 228.5942 201.4428 229 202.4167 C230.582 206.2134 230 224.4167 230 224.4167 "/>
<path id="5" d="M337 161.4167 C337 161.4167 342.8507 155.2146 347 154.4167 C352.7105 153.3185 361.499 154.8273 363 156.4167 C364.4864 157.9905 365.5943 170.4028 364 172.4167 C361.5015 175.5727 344 180.4167 344 180.4167 "/>
<path id="6" d="M344 158.4167 C344 158.4167 353.8294 158.1763 356 159.4167 C357.036 160.0086 357.6188 162.9855 358 166.4167 C358.5807 171.6426 358.242 176.0857 358 177.4167 C357.992 177.4607 356 177.4167 356 177.4167 "/>
<path id="7" d="M239 252.4167 C239 252.4167 237 253.8262 237 254.4167 C237 257.0739 237.9802 262.7611 239 263.4167 C240.5718 264.4271 250.1148 264.1544 251 263.4167 C251.6148 262.9044 252.2825 256.5313 251 253.4167 C249.7326 250.3386 244 246.4167 244 246.4167 "/>
<path id="8" d="M387 192.4167 C387 192.4167 385 190.4167 385 190.4167 C384.9786 190.4381 385.4833 193.6917 385 194.4167 C384.4361 195.2625 381.3671 195.5908 381 196.4167 C380.3199 197.947 380.3223 202.9383 381 203.4167 C383.8157 205.4042 397.0794 208.6874 398 208.4167 C398.1744 208.3654 399.4458 200.914 398 198.4167 C395.778 194.5787 387 189.4167 387 189.4167 "/>
</g>
</g>
</svg>
