<?xml version="1.0" encoding="utf-8"?>
<!DOCTYPE svg PUBLIC "-//W3C//DTD SVG 1.1//EN" "http://www.w3.org/Graphics/SVG/1.1/DTD/svg11.dtd">
<svg viewBox="0 0 800 800" preserveAspectRatio="xMinYMin meet" xmlns="http://www.w3.org/2000/svg" version="1.1">
<g fill="none" stroke="black" stroke-linecap="round" stroke-linejoin="round" stroke-width="1.8193">
<g transform="translate(87.52,166.6706) scale(1.649) translate(-90,-49)">
<path id="0" d="M133 111 C133 111 131.3386 129.1087 133 146 C134.2622 158.8326 134.5909 159.8224 139 172 C144.8581 188.1796 148.4125 188.2236 154 204 C156.502 211.0646 153.388 213.5704 156 220 C159.1801 227.8278 162.4593 227.8917 167 236 C169.1884 239.9078 167.6357 241.69 170 245 C174.3648 251.1108 176.794 250.5445 182 257 C189.0808 265.7802 187.7952 267.9306 195 276 C199.6407 281.1975 201.9267 279.9267 207 285 C213.0396 291.0396 212.0322 293.3163 218 299 C221.854 302.6705 222.7752 303.0909 228 305 C248.0338 312.3201 249.0274 313.2063 270 318 C283.3777 321.0578 284.043 320.47 298 321 C323.3186 321.9615 325.8356 324.0886 349 321 C360.5065 319.4658 361.9 316.8583 373 311 C379.3504 307.6484 379.9152 307.0848 385 302 C391.5376 295.4624 392.7564 294.7383 397 287 C400.6854 280.2796 398.7104 277.5793 402 271 C403.6004 267.7993 406.339 268.3221 408 265 C415.1056 250.7889 418.1443 248.7905 421 233 C426.2144 204.1672 425 171 425 171 "/>
<path id="1" d="M426 164 C426 164 428.4094 125.437 428 89 C427.9234 82.18 425 75 425 75 "/>
<path id="2" d="M122 111 L122 111 "/>
<path id="3" d="M124 110 C124 110 122.2774 140.3754 123 170 C123.2659 180.9029 123.4014 182.58 126 192 C126.9539 195.4578 129.7706 195.8036 131 199 C131.8266 201.1493 130.1759 202.5277 131 205 C133.8386 213.5157 134.0006 215.251 139 223 C143.4771 229.9396 147.6711 229.3422 151 236 C155.1173 244.2346 151.2296 250.2292 156 257 C164.0375 268.4081 170.338 267.7549 182 280 C189.8948 288.2895 187.7373 292.9046 196 299 C215.5181 313.3986 220.3983 317.5547 243 325 C258.725 330.18 262.7682 324.6366 281 327 C288.9334 328.0284 289.2947 331.5719 297 332 C323.4822 333.4712 353 331 353 331 "/>
<path id="4" d="M356 331 C356 331 360.1338 331.4331 361 331 C361.4331 330.7834 361.3341 328.4757 362 328 C363.5741 326.8757 365.099 326.2072 368 326 C378.3897 325.2579 380.9545 327.2922 390 326 C392.7019 325.614 394.1803 324.51 396 322 C407.4796 306.166 410.9019 302.8711 419 286 C421.4928 280.8067 420 272 420 272 "/>
<path id="5" d="M421 275 C421 275 420.2284 267.3149 422 262 C423.7716 256.6851 426.5109 256.657 429 251 C431.7861 244.668 432.1974 243.9559 433 237 C435.1218 218.6112 432.4489 217.1764 435 199 C436.3223 189.5786 439.8155 189.2784 441 180 C442.6779 166.8565 441 152 441 152 "/>
<path id="6" d="M441 152 C441 152 443.4942 143.4294 444 135 C444.9715 118.8084 444.3229 118.4683 444 102 C443.8237 93.0075 444.3426 92.7271 443 84 C441.39 73.5348 438 63 438 63 "/>
<path id="7" d="M133 117 C133 117 132.2512 107.7742 135 103 C140.2227 93.929 145.093 86.2154 152 84 C162.5749 80.6081 173.7063 82.1517 188 86 C195.523 88.0254 197.444 91.2179 204 98 C211.296 105.5476 209.9304 107.6679 217 116 C223.7523 123.9581 225.0274 125.1284 232 131 C233.2219 132.0289 235.2038 130.9935 236 132 C256.0305 157.3216 258.9533 166.9921 285 198 C300.4102 216.3455 301.7601 218.682 320 232 C331.2082 240.1837 333.986 241.1105 348 244 C380.4892 250.6988 414.4596 251.5829 417 252 C417.0545 252.0089 414.9738 254.9905 415 255 C415.3849 255.14 422.6851 254.2284 428 256 C433.3149 257.7716 434.2098 259.108 439 263 C441.8346 265.3031 443.1011 266.3033 444 269 C445.0552 272.1657 443.6625 276.9875 444 278 C444.0375 278.1125 447 278 447 278 "/>
<path id="8" d="M124 114 L125 114 "/>
<path id="9" d="M126 112 C126 112 133.2937 79.9347 139 77 C149.5868 71.5553 176.8594 72.9037 196 76 C200.358 76.705 203.1194 81.791 207 88 C209.9811 92.7698 207.9403 96.4572 211 100 C215.5445 105.2621 221.5647 107.6519 226 110 C226.3214 110.1702 227.9782 108.9689 228 109 C228.7896 110.1281 229.6972 115.3461 233 120 C240.2793 130.2572 241.2524 130.2805 250 140 C254.7083 145.2315 254.5698 146.2406 260 150 C266.9112 154.7847 271.8545 153.6472 276 158 C278.9987 161.1487 277.0391 165.2191 280 171 C287.2224 185.1009 297 199 297 199 "/>
<path id="10" d="M295 196 C295 196 296.3335 204.889 298 206 C300.8158 207.8772 310.0126 205.7239 313 208 C316.0132 210.2958 314.8136 217.9532 319 222 C327.2513 229.9763 331.6232 233.5655 343 237 C354.6853 240.5276 357.998 236.1507 372 238 C383.9162 239.5738 384.1939 243.0023 396 244 C418.6419 245.9134 443 244 443 244 "/>
<path id="11" d="M444 244 C444 244 450.4829 242.6156 453 244 C457.7685 246.6227 461.0685 249.3203 464 255 C467.9691 262.6901 468.3007 265.4426 469 275 C469.7161 284.7863 468.5298 286.821 467 296 C466.761 297.4342 465.9655 298.6552 465 299 C461.0031 300.4275 457.2254 301.2641 453 301 C451.51 300.9069 449.3364 299.3457 449 298 C446.8343 289.337 446 273 446 273 "/>
<path id="12" d="M426 80 C426 80 424.53 75.6788 422 73 C416.5358 67.2144 414.5801 63.1873 409 62 C396.7098 59.3851 391.261 61.2701 375 63 C368.5991 63.6809 366.524 63.984 362 67 C357.7647 69.8235 358.4566 73.0125 354 77 C349.4603 81.0618 346.8206 79.5917 343 84 C328.6113 100.6023 326.7191 107.7173 315 122 C314.177 123.003 312.2144 121.9678 311 123 C303.5887 129.2996 300.7803 130.3296 295 139 C287.6302 150.0548 289.8364 152.5543 283 165 C270.4499 187.8477 270.8911 189.1524 256 210 C246.4035 223.4351 243.7914 225.2877 233 235 C230.9129 236.8784 228.4329 235.5402 226 237 C224.3978 237.9613 224.4718 240.5625 223 241 C210.3239 244.7686 204.1295 242.6602 189 248 C180.3372 251.0575 180.1289 255.9517 172 259 C166.0837 261.2186 164.1438 258.5117 157 260 C140.6183 263.4129 137.0146 264.0756 124 269 C121.8937 269.797 120.4422 271.7891 120 274 C118.8564 279.7178 120 289 120 289 "/>
<path id="13" d="M438 68 C438 68 428.0083 55.3886 419 51 C412.0745 47.626 408.9722 49.3217 399 49 C378.1258 48.3266 375.8059 48.1824 357 49 C355.17 49.0796 354.1335 49.6237 353 51 C348.0254 57.0406 348.4116 61.2942 343 66 C338.926 69.5426 335.5199 67.9334 330 71 C327.2789 72.5117 326.5914 73.2512 325 76 C321.4777 82.0839 323.0806 84.7535 319 90 C313.6078 96.9329 310.1538 96.007 304 103 C299.7346 107.847 300.586 110.436 297 115 C295.9461 116.3413 293.5517 116.0069 293 117 C292.0127 118.7771 293.5337 121.7692 292 124 C284.1323 135.444 281.9277 137.0789 271 149 C265.567 154.9269 263.9223 156.3903 259 160 C258.2641 160.5397 256.5916 159.4707 256 160 C249.8455 165.5067 245.2535 170.1048 240 177 C239.2801 177.9449 240.6792 179.7265 240 181 C237.4077 185.8606 234.0024 186.994 232 192 C230.7309 195.1728 233.3248 197.6879 232 201 C229.056 208.3601 227.0965 211.9035 222 217 C219.6478 219.3522 215.9501 217.5416 213 220 C205.5178 226.2352 206.0036 230.1398 198 237 C192.8576 241.4078 190.9437 243.3142 185 244 C168.2617 245.9313 165.0021 242.6122 146 243 C141.1052 243.0999 139.8236 242.8758 136 245 C127.6646 249.6308 127.6433 253.2601 119 258 C113.1993 261.181 111.0153 259.1231 105 262 C100.3324 264.2323 99.6562 265.1 96 269 C92.5362 272.6947 91.1874 273.8441 90 278 C88.6701 282.6546 88.6701 285.3454 90 290 C91.1874 294.1559 93.5885 298.2765 96 299 C102.6525 300.9958 116.4637 300.4961 120 299 C120.9804 298.5852 122 288 122 288 "/>
<path id="14" d="M122 287 L122 284 "/>
<path id="15" d="M105 286 L104 286 "/>
<path id="16" d="M145 258 L142 258 "/>
<path id="17" d="M249 206 L247 206 "/>
<path id="18" d="M455 293 L454 292 "/>
<path id="19" d="M463 276 L462 276 "/>
<path id="20" d="M434 255 L442 254 "/>
<path id="21" d="M461 254 L460 254 "/>
<path id="22" d="M215 227 L216 227 "/>
<path id="23" d="M261 190 L258 190 "/>
<path id="24" d="M284 140 L284 143 "/>
<path id="25" d="M324 99 L326 95 "/>
<path id="26" d="M339 80 L354 74 "/>
<path id="27" d="M400 56 L401 56 "/>
<path id="28" d="M146 210 L147 210 "/>
<path id="29" d="M147 210 L148 212 "/>
<path id="30" d="M149 225 L150 225 "/>
<path id="31" d="M172 265 L174 265 "/>
<path id="32" d="M195 285 L196 286 "/>
<path id="33" d="M218 304 L219 307 "/>
<path id="34" d="M239 317 L245 317 "/>
<path id="35" d="M323 328 L329 324 "/>
<path id="36" d="M395 306 L394 308 "/>
<path id="37" d="M434 187 L433 187 "/>
<path id="38" d="M431 188 L430 183 "/>
<path id="39" d="M434 161 C434 161 431.043 161.0861 431 161 C430.8996 160.7992 432 157 432 157 "/>
<path id="40" d="M431 129 L434 126 "/>
<path id="41" d="M437 93 L438 95 "/>
<path id="42" d="M425 71 L425 69 "/>
<path id="43" d="M128 166 L130 165 "/>
<path id="44" d="M144 88 L148 84 "/>
<path id="45" d="M175 80 L193 80 "/>
<path id="46" d="M226 113 L228 113 "/>
<path id="47" d="M371 242 L378 244 "/>
<path id="48" d="M312 214 L310 214 "/>
<path id="49" d="M291 192 L290 191 "/>
<path id="50" d="M264 165 L265 165 "/>
</g>
</g>
</svg>
