<?xml version="1.0" encoding="utf-8"?>
<!DOCTYPE svg PUBLIC "-//W3C//DTD SVG 1.1//EN" "http://www.w3.org/Graphics/SVG/1.1/DTD/svg11.dtd">
<svg viewBox="0 0 800 800" preserveAspectRatio="xMinYMin meet" xmlns="http://www.w3.org/2000/svg" version="1.1">
<g fill="none" stroke="black" stroke-linecap="round" stroke-linejoin="round" stroke-width="0.87846">
<g transform="translate(87.52,148.9915) scale(3.4151) translate(-190,-156)">
<path id="0" d="M193 217 C193 217 189.3485 192.1275 193 177 C194.9516 168.9146 200.0048 165.6773 207 159 C209.4371 156.6737 211.1726 156.261 215 156 C231.7941 154.8549 236.5459 153.3452 251 156 C256.8832 157.0806 258.6375 159.8813 264 165 C269.0803 169.8493 269.1612 175.1574 273 177 C277.1612 178.9974 282.9088 179.1866 289 177 C299.6693 173.17 300.9141 166.225 312 163 C325.3417 159.1188 332.4167 159.1144 344 161 C348.5585 161.7421 350.6943 164.8663 355 170 C363.1693 179.7403 364.6856 181.0759 370 192 C372.9857 198.1373 372.3812 199.5739 373 207 C373.8522 217.2261 374.1139 217.9753 373 228 C372.1808 235.3727 371.9502 236.362 369 243 C366.2647 249.1544 362.9906 250.4501 361 255 C360.5425 256.0457 362.5 258.2692 362 259 C354.0872 270.5649 349.2353 279.951 335 293 C327.6172 299.7675 323.0327 302.7947 314 303 C285.5673 303.6462 278.7954 301.4267 247 295 C233.4586 292.2629 232.7393 290.3696 220 284 C212.1605 280.0802 211.197 279.6806 205 274 C199.8714 269.2988 199.1328 268.2657 196 262 C192.0128 254.0255 190.8824 252.648 190 244 C188.5351 229.6436 191 213 191 213 "/>
<path id="1" d="M224 248 C224 248 220.4774 233.8875 219 220 C218.0162 210.752 217.5511 208.5342 219 201 C219.6071 197.8429 221.6599 195.2481 224 194 C226.8224 192.4947 230.5464 191.9011 234 193 C239.1885 194.6509 239.7658 198.0907 246 201 C254.2419 204.8462 260.2627 205.339 264 207 C264.1607 207.0714 264.3376 208.6141 264 209 C261.9532 211.3393 259.2887 211.7959 257 215 C254.8897 217.9544 256.1681 219.6274 254 223 C247.5268 233.0694 247.0327 234.3247 239 243 C235.1461 247.1622 229 250 229 250 "/>
<path id="2" d="M251 270 C251 270 279.4245 227.9825 285 224 C285.5957 223.5745 293.8492 228.6628 300 235 C309.7394 245.0345 310.5057 246.7585 318 258 C319.7844 260.6765 320.2003 262.5968 320 265 C319.8461 266.8463 318.6906 269.2316 317 270 C305.9238 275.0346 300.3613 279.1238 287 280 C273.6601 280.8747 269.4746 277.743 256 274 C253.4792 273.2998 251 270 251 270 "/>
<path id="3" d="M308 210 C308 210 308.9813 213.9813 311 216 C315.7104 220.7104 316.6815 221.8408 323 225 C332.9564 229.9782 345 233 345 233 "/>
<path id="4" d="M311 210 C311 210 307.4949 207.732 307 206 C306.0378 202.6322 306.0128 199.9487 307 196 C307.691 193.2359 309.308 190.846 311 190 C312.9337 189.0332 315.6237 188.9389 319 190 C331.8542 194.0399 335.6457 194.6047 346 201 C350.0372 203.4936 350.7857 205.9071 353 211 C355.4283 216.5852 356.431 219.0433 356 224 C355.6469 228.0601 353.3629 230.751 351 234 C350.4487 234.7581 348 235 348 235 "/>
</g>
</g>
</svg>
