<?xml version="1.0" encoding="utf-8"?>
<!DOCTYPE svg PUBLIC "-//W3C//DTD SVG 1.1//EN" "http://www.w3.org/Graphics/SVG/1.1/DTD/svg11.dtd">
<svg viewBox="0 0 800 800" preserveAspectRatio="xMinYMin meet" xmlns="http://www.w3.org/2000/svg" version="1.1">
<g fill="none" stroke="black" stroke-linecap="round" stroke-linejoin="round" stroke-width="1.5745">
<g transform="translate(87.52,158.9712) scale(1.9054) translate(-88,-41.1333)">
<path id="0" d="M276 102.1333 C276 102.1333 281.0841 95.1782 282 89.1333 C283.307 80.5072 284.09 75.1507 281 69.1333 C277.0469 61.4352 272.5808 58.7662 263 52.1333 C254.0133 45.9118 251.974 43.3524 242 42.1333 C210.976 38.3415 205.533 39.9284 173 41.1333 C167.2692 41.3456 165.75 42.2834 161 45.1333 C156.7778 47.6666 156.824 50.675 153 53.1333 C151.0672 54.3758 148.9102 52.7689 147 54.1333 C136.8799 61.362 133.3429 62.4067 125 73.1333 C109.9827 92.4413 110.0035 94.8916 98 117.1333 C93.332 125.7829 92.2312 126.7759 91 136.1333 C87.4527 163.0932 86.1785 166.4177 88 193.1333 C89.0139 208.0038 90.63 210.0755 97 224.1333 C104.6383 240.9902 106.5555 241.2732 117 257.1333 C119.8525 261.4649 121.7185 263.6815 124 265.1333 C124.6347 265.5372 128 264.1333 128 264.1333 "/>
<path id="1" d="M259 100.1333 C259 100.1333 261.5848 82.9055 261 74.1333 C260.9035 72.6864 259.1631 71.1166 257 70.1333 C249.2938 66.6305 247.8523 65.3483 239 64.1333 C223.4163 61.9944 217.7534 58.8891 206 63.1333 C188.445 69.4726 183.6563 79.6747 167 90.1333 C165.8093 90.881 163.8885 89.4225 163 90.1333 C156.6029 95.251 152.9943 97.2996 147 106.1333 C134.7403 124.2003 130.3119 127.3002 125 146.1333 C120.6314 161.622 123.5511 165.5869 125 184.1333 C126.0063 197.0137 125.6716 198.5149 130 210.1333 C134.694 222.7329 138.3239 222.5199 144 235.1333 C147.0466 241.9035 148 250.1333 148 250.1333 "/>
<path id="2" d="M159 247.1333 C159 247.1333 138.9019 259.9265 125 273.1333 C120.8792 277.0481 120.3327 279.8026 119 285.1333 C118.2349 288.1936 119.403 292.9095 120 293.1333 C123.4888 294.4416 136.0636 297.2476 143 294.1333 C154.1735 289.1167 155.4791 280.5392 169 271.1333 C177.454 265.2523 189 262.1333 189 262.1333 "/>
<path id="3" d="M150 247.1333 L196 227.1333 "/>
<path id="4" d="M256 103.1333 L253 107.1333 "/>
<path id="5" d="M230 127.1333 L230 131.1333 "/>
<path id="6" d="M250 103.1333 C250 103.1333 250.3509 116.7709 253 129.1333 C254.7187 137.154 254.7716 138.69 259 145.1333 C264.481 153.4854 273.4207 160.6627 274 161.1333 C274.0297 161.1575 275 158.1333 275 158.1333 "/>
<path id="7" d="M240 86.1333 C240 86.1333 230.5629 100.6783 228 114.1333 C225.0382 129.6828 226.298 133.1347 228 149.1333 C228.6094 154.8617 229.3184 156.7154 233 161.1333 C245.5251 176.1634 247.2917 178.9816 263 191.1333 C272.3024 198.3296 274.2688 197.7629 286 202.1333 C299.4119 207.1299 303.4679 205.0177 314 210.1333 C317.7561 211.9577 317.1321 215.5233 321 219.1333 C324.1814 222.1026 327.3201 221.1095 329 224.1333 C339.8899 243.7351 338.528 252.7843 351 273.1333 C355.5522 280.5607 358.8541 281.5173 367 286.1333 C372.6708 289.3468 381 290.1333 381 290.1333 "/>
<path id="8" d="M258 149.1333 C258 149.1333 284.3385 162.8223 305 180.1333 C319.9987 192.6998 317.7384 197.8225 332 211.1333 C339.2073 217.8601 343.0921 215.3981 350 222.1333 C361.8559 233.6928 365.0429 236.2192 372 250.1333 C377.084 260.3014 373.2528 264.0271 377 276.1333 C379.5132 284.253 385 292.1333 385 292.1333 "/>
<path id="9" d="M181 266.1333 C181 266.1333 188.3241 267.7507 192 266.1333 C198.2958 263.3632 198.7406 259.6007 206 255.1333 C211.2698 251.8904 213.9627 253.8036 218 250.1333 C228.6699 240.4334 231.0067 237.9796 239 225.1333 C244.1142 216.9141 241.3931 213.8051 246 205.1333 C249.3626 198.8038 256 193.1333 256 193.1333 "/>
<path id="10" d="M185 238.1333 C185 238.1333 188.7493 230.0339 194 226.1333 C204.669 218.2078 207.6894 219.8275 220 212.1333 C227.3952 207.5113 227.771 207.0657 234 201.1333 C237.9628 197.3592 238.7677 196.801 241 192.1333 C243.8769 186.118 245 178.1333 245 178.1333 "/>
<path id="11" d="M278 157.1333 C278 157.1333 281.5646 153.7219 283 150.1333 C285.2648 144.4714 285.0263 143.6714 286 137.1333 C288.5052 120.3124 288.7217 120.0705 290 103.1333 C290.708 93.7517 291.6295 91.4662 290 84.1333 C289.1995 80.5312 284 76.1333 284 76.1333 "/>
<path id="12" d="M263 83.1333 L262 139.1333 "/>
<path id="13" d="M179 268.1333 C179 268.1333 243.5386 271.5543 305 271.1333 C314.7707 271.0664 316.3777 270.5822 325 267.1333 C332.5844 264.0996 340 257.1333 340 257.1333 "/>
<path id="14" d="M165 285.1333 C165 285.1333 168.9361 288.1174 173 289.1333 C186.2077 292.4353 187.1309 293.4665 201 294.1333 C238.3243 295.9278 239.4101 295.5653 277 294.1333 C291.4189 293.584 292.6905 294.0052 306 290.1333 C319.0127 286.3478 319.9846 284.9529 332 278.1333 C337.8988 274.7853 343 269.1333 343 269.1333 "/>
<path id="15" d="M357 229.1333 C357 229.1333 363.2534 216.73 366 205.1333 C367.4715 198.9204 364.6364 197.3672 366 191.1333 C367.9024 182.4366 371.1933 182.1671 373 173.1333 C377.0046 153.1101 376.7755 151.9493 378 131.1333 C378.751 118.3658 381.0721 111.3032 377 105.1333 C370.1083 94.6914 360.0427 86.5654 345 81.1333 C329.9367 75.6938 322.8394 78.4052 305 79.1333 C300.905 79.3005 296 83.1333 296 83.1333 "/>
<path id="16" d="M234 94.1333 L257 82.1333 "/>
<path id="17" d="M282 71.1333 C282 71.1333 296.0388 67.2073 310 66.1333 C341.0627 63.7439 345.5625 60.5545 373 64.1333 C386.4811 65.8917 390.9682 69.8595 402 78.1333 C408.4236 82.951 409.1139 86.0836 413 94.1333 C415.6347 99.591 415.6236 100.7349 416 107.1333 C417.0855 125.586 420.2327 128.9385 416 145.1333 C409.761 169.0042 403.0699 170.1451 393 195.1333 C389.8378 202.9803 392.4398 204.7624 389 212.1333 C382.4487 226.1719 372 240.1333 372 240.1333 "/>
<path id="18" d="M262 141.1333 L263 147.1333 "/>
<path id="19" d="M272 109.1333 L272 110.1333 "/>
<path id="20" d="M272 108.1333 L272 115.1333 "/>
<path id="21" d="M272 116.1333 L272 122.1333 "/>
<path id="22" d="M266 127.1333 L266 131.1333 "/>
<path id="23" d="M266 133.1333 L267 139.1333 "/>
<path id="24" d="M280 106.1333 L280 108.1333 "/>
<path id="25" d="M284 94.1333 L284 98.1333 "/>
<path id="26" d="M198 284.1333 L199 284.1333 "/>
<path id="27" d="M209 284.1333 L210 284.1333 "/>
<path id="28" d="M213 290.1333 L216 289.1333 "/>
<path id="29" d="M229 285.1333 L231 285.1333 "/>
<path id="30" d="M244 283.1333 L246 283.1333 "/>
<path id="31" d="M262 285.1333 L263 284.1333 "/>
<path id="32" d="M285 283.1333 L292 283.1333 "/>
<path id="33" d="M302 282.1333 L309 282.1333 "/>
<path id="34" d="M311 281.1333 L312 280.1333 "/>
<path id="35" d="M120 234.1333 L120 231.1333 "/>
<path id="36" d="M112 218.1333 L113 215.1333 "/>
<path id="37" d="M113 210.1333 L113 209.1333 "/>
<path id="38" d="M113 203.1333 L113 200.1333 "/>
<path id="39" d="M112 188.1333 L113 184.1333 "/>
<path id="40" d="M112 178.1333 L112 173.1333 "/>
<path id="41" d="M112 169.1333 L112 165.1333 "/>
<path id="42" d="M112 154.1333 L113 150.1333 "/>
<path id="43" d="M102 195.1333 L102 193.1333 "/>
<path id="44" d="M100 187.1333 L101 182.1333 "/>
<path id="45" d="M101 174.1333 L102 172.1333 "/>
<path id="46" d="M101 164.1333 L102 158.1333 "/>
<path id="47" d="M102 150.1333 L103 145.1333 "/>
<path id="48" d="M103 138.1333 L105 132.1333 "/>
<path id="49" d="M107 127.1333 L109 123.1333 "/>
<path id="50" d="M111 119.1333 L111 118.1333 "/>
<path id="51" d="M113 142.1333 L114 140.1333 "/>
<path id="52" d="M114 132.1333 L114 128.1333 "/>
<path id="53" d="M136 92.1333 L136 91.1333 "/>
<path id="54" d="M143 82.1333 L145 78.1333 "/>
<path id="55" d="M150 74.1333 L154 70.1333 "/>
<path id="56" d="M165 64.1333 L167 61.1333 "/>
<path id="57" d="M168 61.1333 L168 60.1333 "/>
<path id="58" d="M161 77.1333 L162 75.1333 "/>
<path id="59" d="M165 66.1333 L167 62.1333 "/>
<path id="60" d="M248 97.1333 L246 99.1333 "/>
<path id="61" d="M235 113.1333 L235 116.1333 "/>
<path id="62" d="M241 117.1333 L241 118.1333 "/>
<path id="63" d="M237 127.1333 L237 128.1333 "/>
<path id="64" d="M240 140.1333 L242 145.1333 "/>
<path id="65" d="M244 155.1333 L246 157.1333 "/>
<path id="66" d="M246 159.1333 L247 159.1333 "/>
<path id="67" d="M162 269.1333 L165 267.1333 "/>
<path id="68" d="M178 259.1333 L185 254.1333 "/>
<path id="69" d="M195 251.1333 L197 249.1333 "/>
<path id="70" d="M204 244.1333 L205 243.1333 "/>
<path id="71" d="M169 261.1333 L176 260.1333 "/>
<path id="72" d="M184 258.1333 L187 253.1333 "/>
<path id="73" d="M195 244.1333 L198 237.1333 "/>
<path id="74" d="M162 253.1333 L170 253.1333 "/>
<path id="75" d="M173 253.1333 L182 249.1333 "/>
<path id="76" d="M190 244.1333 L195 238.1333 "/>
<path id="77" d="M170 242.1333 L174 240.1333 "/>
<path id="78" d="M175 239.1333 L181 238.1333 "/>
<path id="79" d="M209 224.1333 L211 221.1333 "/>
<path id="80" d="M219 216.1333 L223 211.1333 "/>
<path id="81" d="M228 208.1333 L229 208.1333 "/>
<path id="82" d="M253 197.1333 C253 197.1333 253.6626 203.8329 253 209.1333 C252.7653 211.0106 252.1063 211.7504 251 213.1333 C250.4863 213.7754 249.0191 214.1524 249 214.1333 C248.9427 214.076 249 211.1333 249 211.1333 "/>
<path id="83" d="M255 192.1333 C255 192.1333 256.488 206.3821 253 214.1333 C249.1616 222.663 237.0464 232.1068 237 232.1333 C236.9864 232.1411 239 222.1333 239 222.1333 "/>
<path id="84" d="M249 205.1333 C249 205.1333 244.5978 214.2588 241 218.1333 C240.0062 219.2036 236 219.1333 236 219.1333 "/>
<path id="85" d="M240 210.1333 C240 210.1333 241 208.1333 241 208.1333 C240.9786 208.1226 238.7147 208.2995 238 209.1333 C233.8547 213.9695 233.065 218.0684 229 222.1333 C227.8914 223.242 224.0148 223.1383 224 223.1333 C223.9958 223.1319 226 221.1333 226 221.1333 "/>
<path id="86" d="M241 192.1333 L244 189.1333 "/>
<path id="87" d="M243 216.1333 C243 216.1333 239.9867 214.1599 240 214.1333 C240.2526 213.6281 244.455 211.5267 247 208.1333 C251.5244 202.1008 255 194.1333 255 194.1333 "/>
<path id="88" d="M301 197.1333 L303 200.1333 "/>
<path id="89" d="M318 213.1333 L323 211.1333 "/>
<path id="90" d="M325 216.1333 L326 216.1333 "/>
<path id="91" d="M333 226.1333 L337 232.1333 "/>
<path id="92" d="M342 240.1333 L343 240.1333 "/>
<path id="93" d="M340 224.1333 L341 224.1333 "/>
<path id="94" d="M342 230.1333 L345 234.1333 "/>
<path id="95" d="M347 241.1333 L350 241.1333 "/>
<path id="96" d="M369 225.1333 L373 217.1333 "/>
<path id="97" d="M373 215.1333 L377 208.1333 "/>
<path id="98" d="M380 201.1333 L383 195.1333 "/>
<path id="99" d="M383 188.1333 L384 184.1333 "/>
<path id="100" d="M410 172.1333 L410 162.1333 "/>
<path id="101" d="M412 151.1333 L412 145.1333 "/>
<path id="102" d="M412 135.1333 L412 131.1333 "/>
<path id="103" d="M392 157.1333 L393 145.1333 "/>
<path id="104" d="M394 133.1333 L395 127.1333 "/>
<path id="105" d="M398 120.1333 L399 119.1333 "/>
<path id="106" d="M383 100.1333 L383 99.1333 "/>
<path id="107" d="M380 93.1333 L379 89.1333 "/>
<path id="108" d="M362 81.1333 L358 81.1333 "/>
<path id="109" d="M323 69.1333 L324 69.1333 "/>
<path id="110" d="M333 68.1333 L334 68.1333 "/>
<path id="111" d="M340 69.1333 L342 69.1333 "/>
</g>
</g>
</svg>
