<?xml version="1.0" encoding="utf-8"?>
<!DOCTYPE svg PUBLIC "-//W3C//DTD SVG 1.1//EN" "http://www.w3.org/Graphics/SVG/1.1/DTD/svg11.dtd">
<svg viewBox="0 0 800 800" preserveAspectRatio="xMinYMin meet" xmlns="http://www.w3.org/2000/svg" version="1.1">
<g fill="none" stroke="black" stroke-linecap="round" stroke-linejoin="round" stroke-width="1.3825">
<g transform="translate(87.52,145.025) scale(2.17) translate(-102.8,-188.8)">
<path id="0" d="M246.8 232.8 C246.8 232.8 244.2373 221.2569 246.8 216.8 C252.7623 206.4307 258.7043 203.1031 269.8 192.8 C271.4801 191.2399 272.3911 190.9633 274.8 190.8 C300.193 189.0784 304.5697 186.3148 328.8 188.8 C340.072 189.9561 341.5409 192.9024 352.8 198.8 C362.152 203.6987 364.3925 203.9348 370.8 210.8 C376.8812 217.3156 376.6425 219.5611 380.8 228.8 C385.5303 239.3118 386.958 239.9325 388.8 250.8 C391.7447 268.1738 391.4556 270.099 390.8 287.8 C390.4955 296.0202 388.0396 301.7895 386.8 304.8 C386.7179 304.9994 383.8752 304.6195 383.8 304.8 C383.0278 306.6532 383.767 312.3742 381.8 316.8 C380.4774 319.7759 377.3423 319.5869 375.8 322.8 C371.9999 330.7169 373.8395 334.7981 369.8 341.8 C367.6073 345.6006 364.4117 344.7549 360.8 348.8 C352.3241 358.293 352.6868 361.9132 344.8 369.8 C342.4553 372.1447 339.848 370.5986 336.8 372.8 C331.6367 376.5291 332.2691 378.7423 326.8 382.8 C317.1784 389.9386 314.5762 389.2178 305.8 395.8 C303.8735 397.2449 304.7261 399.4758 302.8 400.8 C290.626 409.1696 288.4644 410.7866 273.8 417.8 C266.1415 421.4627 265.1445 422.0948 256.8 422.8 C230.8962 424.989 227.4713 426.9556 202.8 423.8 C187.4424 421.8356 184.94 419.1774 170.8 411.8 C163.3122 407.8933 161.7122 406.5754 156.8 399.8 C148.1787 387.9085 150.1525 385.1188 141.8 371.8 C131.7974 355.85 129.38 356.7666 119.8 340.8 C113.1677 329.7462 112.7789 328.9707 108.8 316.8 C104.4801 303.5861 104.1846 302.6459 102.8 288.8 C101.2508 273.3081 101.1305 272.1039 102.8 256.8 C104.0341 245.4872 103.3679 241.8705 108.8 233.8 C118.5476 219.3178 122.4563 216.1059 137.8 204.8 C149.2477 196.3649 152.6122 193.5983 165.8 191.8 C192.3166 188.1841 199.0179 188.3363 225.8 192.8 C240.1926 195.1988 243.3718 198.5145 255.8 206.8 C262.5407 211.2938 263.0731 213.3157 267.8 220.8 C274.7175 231.7526 277.2553 233.2509 279.8 244.8 C283.1638 260.0665 283.6534 266.0517 280.8 279.8 C279.1195 287.8969 275.8598 290.544 268.8 297.8 C258.7246 308.1553 257.0668 309.4983 244.8 316.8 C237.3059 321.2607 235.5734 321.2517 226.8 322.8 C219.4346 324.0998 218.6753 323.158 210.8 322.8 C207.8244 322.6647 206.2558 323.0617 204.8 321.8 C200.6871 318.2355 198.1253 315.2256 195.8 309.8 C194.4803 306.7206 194.4803 303.8794 195.8 300.8 C198.1253 295.3744 200.0145 292.6284 204.8 288.8 C208.4534 285.8772 210.8807 287.5141 215.8 284.8 C224.9707 279.7403 230.044 278.1375 233.8 272.8 C236.1912 269.402 236.7725 262.0081 234.8 257.8 C231.4743 250.7051 227.3887 247.5669 218.8 240.8 C211.7608 235.2539 209.6287 233.4481 201.8 231.8 C193.1862 229.9866 188.7988 230.2121 180.8 232.8 C174.7099 234.7703 171.6824 237.2537 167.8 242.8 C162.5963 250.2338 161.1231 253.5381 159.8 262.8 C158.4411 272.3122 158.902 275.2143 161.8 284.8 C164.9186 295.1155 168.7379 295.137 172.8 305.8 C176.4935 315.4955 174.3433 316.7441 177.8 326.8 C185.2317 348.4195 185.1543 350.5087 194.8 369.8 C197.7967 375.7934 199.3083 377.3677 204.8 380.8 C213.7902 386.4189 216.3433 386.4389 226.8 389.8 C229.3204 390.6101 230.9886 390.6234 232.8 389.8 C234.9956 388.802 235.6344 385.1697 237.8 384.8 C251.2445 382.5046 257.4946 385.8765 273.8 382.8 C282.0965 381.2346 284.0566 379.4911 290.8 374.8 C294.2562 372.3957 293.2728 369.9859 296.8 366.8 C308.285 356.4265 315.0042 356.8841 321.8 346.8 C327.3409 338.578 326.3469 333.6357 327.8 320.8 C329.2706 307.81 328.635 301.8713 327.8 293.8 C327.7286 293.1093 325.3743 292.9486 324.8 291.8 C321.6824 285.5648 322.7211 283.0231 318.8 275.8 C313.4943 266.0263 313.2953 264.2953 305.8 256.8 C297.8362 248.8362 294.9449 245.0461 285.8 242.8 C271.364 239.2543 265.8768 241.3466 248.8 242.8 C244.0275 243.2062 243.1653 244.1137 238.8 246.8 C230.6084 251.841 228.5648 252.7318 222.8 258.8 C220.5004 261.2206 219.9562 263.2082 219.8 266.8 C219.5136 273.3881 219.5443 275.0328 221.8 281.8 C226.2635 295.1904 226.9669 298.2398 233.8 308.8 C236.4477 312.8919 239.225 314.6562 243.8 315.8 C250.8086 317.5521 257.8654 314.4885 261.8 315.8 C262.9658 316.1886 264.5779 320.3573 264.8 322.8 C264.9166 324.0824 263.948 326.1303 262.8 326.8 C259.6873 328.6157 257.5638 329.403 252.8 329.8 C246.3321 330.339 242.4855 331.5474 238.8 328.8 C221.0995 315.6051 216.7575 308.9676 197.8 288.8 C194.0249 284.7839 193.0739 283.4711 191.8 278.8 C190.4862 273.9829 190.1621 271.5772 191.8 266.8 C195.5009 256.0057 196.1906 252.3849 203.8 243.8 C213.9647 232.3322 217.9755 229.2122 230.8 222.8 C237.6397 219.3801 249.8 220.8 249.8 220.8 "/>
<path id="1" d="M318.8 227.8 L326.8 232.8 "/>
<path id="2" d="M342.8 232.8 L351.8 242.8 "/>
<path id="3" d="M345.8 273.8 L344.8 279.8 "/>
<path id="4" d="M167.8 215.8 L166.8 219.8 "/>
<path id="5" d="M146.8 248.8 C146.8 248.8 143.9299 249.4102 143.8 249.8 C143.2803 251.3592 143.8 257.8 143.8 257.8 "/>
<path id="6" d="M129.8 329.8 L136.8 336.8 "/>
<path id="7" d="M162.8 362.8 L165.8 366.8 "/>
<path id="8" d="M222.8 406.8 L239.8 406.8 "/>
<path id="9" d="M263.8 398.8 L281.8 393.8 "/>
</g>
</g>
</svg>
