<?xml version="1.0" encoding="utf-8"?>
<!DOCTYPE svg PUBLIC "-//W3C//DTD SVG 1.1//EN" "http://www.w3.org/Graphics/SVG/1.1/DTD/svg11.dtd">
<svg viewBox="0 0 800 800" preserveAspectRatio="xMinYMin meet" xmlns="http://www.w3.org/2000/svg" version="1.1">
<g fill="none" stroke="black" stroke-linecap="round" stroke-linejoin="round" stroke-width="1.7761">
<g transform="translate(258.9617,87.52) scale(1.6891) translate(-237,-54)">
<path id="0" d="M290 246 C290 246 278.2007 241.8271 269 236 C264.0518 232.8662 263.1663 231.9757 260 227 C253.1982 216.3115 252.3662 215.2669 248 203 C242.0999 186.4234 241.1101 174.7139 239 168 C238.9649 167.8884 237 168 237 168 C237 163.9854 235.5157 148.7247 239 132 C242.7036 114.2228 244.2134 112.5466 252 96 C255.7302 88.0734 256.5685 86.7545 263 81 C274.5878 70.632 276.1655 68.7915 290 62 C302.1588 56.0311 304.2762 56.336 318 54 C326.8807 52.4884 328.7253 51.9313 337 54 C350.9363 57.4841 352.7477 58.7976 366 66 C374.9782 70.8794 377.1745 71.4426 383 79 C394.2512 93.5962 397.4457 97.3372 403 114 C406.7769 125.3307 405.4635 128.8288 404 142 C402.5948 154.6465 402.0076 155.9446 397 168 C388.805 187.7288 389.3826 191.6363 377 207 C364.5536 222.4427 360.5891 224.1115 343 235 C330.7301 242.5957 314 246 314 246 "/>
<path id="1" d="M314 246 C314 246 308.7804 262.9203 306 280 C301.8275 305.6308 304.0677 306.3419 300 332 C297.6101 347.0746 295.0149 346.9797 293 362 C289.5785 387.5055 291.857 388.6954 289 414 C288.4369 418.9878 286.478 423.8805 286 424 C285.0005 424.2499 273 418 273 418 "/>
<path id="2" d="M289 247 C289 247 283.4947 265.3615 280 284 C270.0296 337.1754 269.5055 338.0445 262 391 C260.6298 400.6677 259.9367 405.9356 262 411 C263.1845 413.9073 273 418 273 418 "/>
<path id="3" d="M333 76 C333 76 312.6235 76.4457 300 82 C291.4852 85.7465 290.0386 89.3972 283 98 C277.0739 105.2431 276.2802 106.2529 273 115 C267.6252 129.3327 267.4725 130.6158 265 146 C263.0732 157.9891 262.1219 159.7313 264 171 C266.3193 184.9157 268.0912 186.7921 274 200 C276.1415 204.7868 277.0412 206.7378 281 209 C292.1778 215.3873 295.8497 217.9594 309 220 C322.1427 222.0394 326.5326 221.9371 339 218 C352.0458 213.8803 356.1285 211.4014 366 202 C374.8476 193.5737 375.2863 190.4476 381 178 C388.9488 160.683 390.2254 158.6149 394 141 C395.7823 132.6827 394.6205 131.0285 393 122 C391.2192 112.0783 391.1131 108.9409 387 102 C384.743 98.1912 381.2052 98.9578 377 95 C373.0782 91.3089 373.9653 89.0212 370 86 C364.4677 81.7849 363.1405 81.3802 356 79 C345.6535 75.5512 340.5425 74.8178 334 74 C333.494 73.9367 332 76 332 76 "/>
<path id="4" d="M310 84 C310 84 304.9887 92.9607 303 102 C299.6537 117.2105 301.9017 118.3311 299 134 C296.9518 145.0604 296.7941 145.3766 293 156 C286.8711 173.1608 279 190 279 190 "/>
<path id="5" d="M344 74 C344 74 339.1476 98.4323 332 122 C320.7079 159.2333 318.0927 159.1563 307 196 C304.2919 204.9947 304 215 304 215 "/>
<path id="6" d="M330 76 C330 76 308.0883 147.1688 289 204 C288.4604 205.6065 286 207 286 207 "/>
<path id="7" d="M295 90 C295 90 285.5865 114.434 278 139 C275.1702 148.1631 277.1908 149.4093 274 158 C270.9872 166.1115 265 174 265 174 "/>
<path id="8" d="M359 82 C359 82 357.3384 93.8722 354 105 C349.9122 118.6259 347.5678 118.7019 344 132 C342.285 138.3923 344.9523 139.7092 343 146 C331.94 181.6378 317 219 317 219 "/>
<path id="9" d="M380 95 C380 95 373.3731 119.8695 371 126 C370.9201 126.2065 368.0834 125.7819 368 126 C362.4171 140.6014 355.8519 163.6146 345 194 C344.6135 195.0821 343.0147 196.011 343 196 C342.831 195.8733 341.0196 190.9687 341 191 C340.8064 191.3098 328 220 328 220 "/>
<path id="10" d="M394 107 C394 107 389.9229 125.7976 383 143 C373.6066 166.3412 371.0691 165.8784 361 189 C357.7069 196.5618 356 205 356 205 "/>
<path id="11" d="M396 137 C396 137 376.51 129.255 358 120 C343.6697 112.8348 344.3942 110.5006 330 104 C313.8922 96.7255 296 92 296 92 "/>
<path id="12" d="M395 121 C395 121 374.8542 115.1701 356 107 C330.1313 95.7902 305 82 305 82 "/>
<path id="13" d="M391 108 C391 108 370.3875 104.7334 352 98 C335.6826 92.0246 320 82 320 82 "/>
<path id="14" d="M375 95 C375 95 359.0443 91.6775 345 86 C336.2145 82.4484 328 76 328 76 "/>
<path id="15" d="M393 149 C393 149 388.7485 148.3114 387 147 C385.8343 146.1257 385.9555 143.2797 385 143 C372.5416 139.3536 364.1109 141.4926 346 135 C312.3655 122.9423 279 105 279 105 "/>
<path id="16" d="M387 163 C387 163 371.0241 152.2567 354 146 C313.4195 131.0858 270 120 270 120 "/>
<path id="17" d="M379 182 C379 182 349.1861 162.3763 319 150 C300.9635 142.605 297.8583 146.6931 279 141 C272.328 138.9858 266 134 266 134 "/>
<path id="18" d="M376 197 C376 197 359.511 193.7555 346 187 C330.5588 179.2794 329.1802 174.3224 316 167 C314.0764 165.9313 312.1701 167.868 310 167 C305.8768 165.3507 305.7059 162.7647 301 161 C286.6209 155.6078 284.5085 157.0976 270 152 C266.855 150.895 264 148 264 148 "/>
<path id="19" d="M360 205 C360 205 346.6473 197.0133 333 192 C322.7623 188.2392 321.4972 190.5555 311 187 C290.8774 180.1843 286.5689 178.6034 271 171 C269.2281 170.1346 268 166 268 166 "/>
<path id="20" d="M349 215 C349 215 313.0206 207.2691 281 198 C276.8515 196.7991 273 193 273 193 "/>
</g>
</g>
</svg>
