<?xml version="1.0" encoding="utf-8"?>
<!DOCTYPE svg PUBLIC "-//W3C//DTD SVG 1.1//EN" "http://www.w3.org/Graphics/SVG/1.1/DTD/svg11.dtd">
<svg viewBox="0 0 800 800" preserveAspectRatio="xMinYMin meet" xmlns="http://www.w3.org/2000/svg" version="1.1">
<g fill="none" stroke="black" stroke-linecap="round" stroke-linejoin="round" stroke-width="1.8385">
<g transform="translate(282.514,87.52) scale(1.6317) translate(-250.5,-75.1667)">
<path id="0" d="M290.5 88.1667 C290.5 88.1667 286.8519 87.3366 284.5 88.1667 C279.3581 89.9815 277.8156 90.3905 273.5 94.1667 C266.5618 100.2376 263.7547 101.3836 260.5 109.1667 C253.4635 125.993 252.8167 129.6031 250.5 149.1667 C248.4816 166.2114 249.3237 168.0674 251.5 185.1667 C252.6905 194.5209 252.5974 197.1842 257.5 204.1667 C267.4175 218.2916 271.1587 222.7994 284.5 232.1667 C291.2224 236.8866 294.5476 235.7102 304.5 237.1667 C314.6514 238.6522 316.7573 239.96 325.5 238.1667 C333.8438 236.4551 334.7069 232.1988 343.5 229.1667 C348.227 227.5367 350.0243 229.7942 354.5 228.1667 C359.8351 226.2266 360.9579 225.2762 365.5 221.1667 C370.9655 216.2217 372.7193 214.45 375.5 209.1667 C376.6275 207.0243 374.6233 205.0889 375.5 202.1667 C377.3536 195.9882 380.9075 195.2891 381.5 189.1667 C383.6377 167.0767 383.6863 163.9429 381.5 140.1667 C379.7717 121.371 378.9733 119.2707 373.5 102.1667 C371.5352 96.0268 370.2022 94.6644 365.5 90.1667 C359.5698 84.4943 358.0974 82.9462 350.5 80.1667 C339.1685 76.021 337.3503 77.0564 324.5 75.1667 C320.6548 74.6012 319.8715 74.0658 316.5 75.1667 C297.0192 81.5278 275.5 91.1667 275.5 91.1667 "/>
<path id="1" d="M263.5 218.1667 C263.5 218.1667 268.2336 222.3672 270.5 227.1667 C276.3425 239.539 276.3315 240.5032 280.5 254.1667 C285.2774 269.8261 285.6666 270.1109 288.5 286.1667 C291.6127 303.8054 292.5 322.1667 292.5 322.1667 "/>
<path id="2" d="M375.5 217.1667 C375.5 217.1667 369.4584 219.9754 365.5 224.1667 C353.0631 237.3352 350.8827 238.4671 341.5 253.1667 C336.8785 260.4071 337.314 262.0969 335.5 271.1667 C331.9099 289.1173 331.453 289.8215 330.5 308.1667 C329.4782 327.8355 331.5 348.1667 331.5 348.1667 "/>
<path id="3" d="M285.5 234.1667 C285.5 234.1667 289.0751 236.4593 290.5 239.1667 C293.6053 245.0668 294.0308 246.088 295.5 253.1667 C299.4319 272.1114 301.1116 290.57 301.5 292.1667 C301.5122 292.2168 304.4897 290.1219 304.5 290.1667 C304.7267 291.149 307.5 318.1667 307.5 318.1667 "/>
<path id="4" d="M345.5 233.1667 C345.5 233.1667 338.8355 238.1628 335.5 244.1667 C326.9709 259.519 325.98 260.9793 320.5 278.1667 C315.2391 294.6668 315.7041 295.8485 313.5 313.1667 C312.2718 322.8171 313.7475 330.6914 313.5 333.1667 C313.4975 333.1914 311.5 333.1667 311.5 333.1667 "/>
<path id="5" d="M295.5 320.1667 C295.5 320.1667 294.8747 322.916 295.5 324.1667 C296.8288 326.8243 299.6374 327.1956 300.5 330.1667 C303.5283 340.5975 303.6775 342.6927 304.5 355.1667 C306.6529 387.8192 304.5118 388.3612 306.5 421.1667 C307.4996 437.6596 306.9799 448.9569 310.5 454.1667 C312.2934 456.8208 321.3372 457.1832 331.5 458.1667 C336.2059 458.6221 341.491 457.3602 341.5 457.1667 C342.0206 445.9734 339.6202 414.3989 335.5 372.1667 C333.6424 353.1267 329.5 334.1667 329.5 334.1667 "/>
<path id="6" d="M306.5 365.1667 L339.5 364.1667 "/>
<path id="7" d="M307.5 313.1667 L312.5 330.1667 "/>
<path id="8" d="M277.5 102.1667 C277.5 102.1667 268.3113 116.0971 262.5 130.1667 C259.1602 138.2524 258.8065 139.4327 258.5 148.1667 C257.8423 166.9102 256.5027 170.1113 260.5 187.1667 C263.3406 199.2864 265.9005 204.3436 273.5 212.1667 C279.6396 218.4869 283.8053 218.6703 294.5 222.1667 C309.1692 226.9624 313.1538 230.0485 325.5 229.1667 C335.9379 228.4211 340.3991 224.3575 350.5 218.1667 C353.9696 216.0401 352.9908 213.0378 356.5 210.1667 C363.264 204.6325 366.7557 205.3063 372.5 200.1667 C374.6329 198.2583 374.9015 196.6082 375.5 193.1667 C376.787 185.7664 376.5 185.1381 376.5 177.1667 C376.5 154.7471 377.7889 153.7475 375.5 132.1667 C374.4021 121.8148 374.0981 119.6732 369.5 111.1667 C365.0301 102.8973 362.7012 102.7469 355.5 95.1667 C353.3495 92.9029 353.0892 92.2328 350.5 91.1667 C345.3446 89.0438 344.395 88.578 338.5 88.1667 C323.5322 87.1224 321.2051 85.3792 307.5 88.1667 C294.0421 90.9039 279.5 100.1667 279.5 100.1667 "/>
<path id="9" d="M308.5 87.1667 C308.5 87.1667 309.4331 94.376 308.5 101.1667 C300.5374 159.1166 298.4032 160.2096 290.5 218.1667 C289.5076 225.4444 290.5 233.1667 290.5 233.1667 "/>
<path id="10" d="M329.5 87.1667 C329.5 87.1667 321.1347 157.1429 310.5 223.1667 C309.4442 229.7213 305.5 236.1667 305.5 236.1667 "/>
<path id="11" d="M347.5 98.1667 C347.5 98.1667 348.2781 123.5339 345.5 148.1667 C340.8279 189.5925 332.5 231.1667 332.5 231.1667 "/>
<path id="12" d="M365.5 121.1667 C365.5 121.1667 367.8201 142.4462 365.5 162.1667 C362.9436 183.8959 359.5033 184.5487 355.5 206.1667 C354.6269 210.8814 355.9608 213.6324 355.5 216.1667 C355.4372 216.5123 353.5 217.1667 353.5 217.1667 "/>
<path id="13" d="M292.5 94.1667 C292.5 94.1667 287.4132 140.6876 280.5 182.1667 C279.8343 186.161 277.5954 186.1502 276.5 190.1667 C274.7474 196.593 274.5 204.1667 274.5 204.1667 "/>
<path id="14" d="M272.5 119.1667 C272.5 119.1667 274.4863 133.6057 273.5 147.1667 C272.5337 160.4539 268.5 174.1667 268.5 174.1667 "/>
<path id="15" d="M273.5 120.1667 C273.5 120.1667 288.5397 124.0181 301.5 122.1667 C331.9633 117.8148 364.5 107.1667 364.5 107.1667 "/>
<path id="16" d="M285.5 107.1667 C285.5 107.1667 296.1058 108.7864 305.5 107.1667 C324.1588 103.9496 343.5 97.1667 343.5 97.1667 "/>
<path id="17" d="M265.5 144.1667 C265.5 144.1667 279.3774 146.3149 292.5 145.1667 C318.6843 142.8755 319.6524 142.406 345.5 137.1667 C356.1089 135.0162 366.5 130.1667 366.5 130.1667 "/>
<path id="18" d="M264.5 169.1667 C264.5 169.1667 283.3077 174.281 300.5 173.1667 C335.477 170.8996 337.1926 168.9277 372.5 162.1667 C383.6204 160.0372 394.5 155.1667 394.5 155.1667 "/>
<path id="19" d="M270.5 193.1667 C270.5 193.1667 278.7266 195.9939 286.5 196.1667 C300.5093 196.478 301.8772 197.2139 315.5 194.1667 C338.7952 188.9559 339.7521 184.95 362.5 179.1667 C367.8721 177.8009 374.5 179.1667 374.5 179.1667 "/>
<path id="20" d="M285.5 216.1667 C285.5 216.1667 293.1676 218.1667 300.5 218.1667 C312.7207 218.1667 313.6141 218.7718 325.5 216.1667 C349.3614 210.9368 373.5 202.1667 373.5 202.1667 "/>
</g>
</g>
</svg>
