<?xml version="1.0" encoding="utf-8"?>
<!DOCTYPE svg PUBLIC "-//W3C//DTD SVG 1.1//EN" "http://www.w3.org/Graphics/SVG/1.1/DTD/svg11.dtd">
<svg viewBox="0 0 800 800" preserveAspectRatio="xMinYMin meet" xmlns="http://www.w3.org/2000/svg" version="1.1">
<g fill="none" stroke="black" stroke-linecap="round" stroke-linejoin="round" stroke-width="2.4962">
<g transform="translate(87.52,156.6262) scale(1.2018) translate(-41,-12)">
<path id="0" d="M258 218 C258 218 252.8477 228.0824 246 236 C237.2415 246.127 236.6811 246.5952 226 255 C206.4965 270.347 204.6291 268.5614 185 284 C160.3142 303.4158 162.0942 306.2232 137 325 C90.949 359.4578 71.9804 366.6409 42 391 C39.8315 392.7619 40.0081 398.0403 41 403 C42.1937 408.9684 44.2638 412.8077 47 416 C47.9264 417.0809 51.906 417.547 53 417 C54.3924 416.3038 54.6826 412.9311 57 411 C59.9181 408.5682 61.6316 409.6316 65 407 C92.8369 385.2524 93.6178 381.4345 121 361 C125.2394 357.8362 127.4771 359.7999 132 357 C137.2261 353.7648 136.5175 351.6079 142 348 C212.9995 301.2777 218.7871 280.5469 287 255 C330.8106 238.5922 346.0331 255.678 401 251 C414.307 249.8675 415.6243 248.6253 428 243 C447.7938 234.0028 447.2157 231.0543 467 221 C477.4771 215.6756 479.2062 217.9557 489 212 C515.3417 195.9814 519.0102 194.8975 541 176 C548.5108 169.5454 550.6124 166.4309 553 157 C559.7198 130.457 558.5623 126.8621 561 97 C562.5273 78.291 561 59 561 59 "/>
<path id="1" d="M256 219 C256 219 260.2618 212.0977 262 205 C266.0979 188.2671 264.17 187.2351 268 170 C272.1346 151.3945 271.7412 150.8824 278 133 C285.6188 111.2321 285.2306 110.0004 296 90 C305.7947 71.8099 307.4306 70.8966 320 55 C323.7042 50.3153 325.8203 51.4256 330 47 C333.9801 42.7858 332.9119 40.8935 337 37 C342.82 31.4571 343.8231 29.1617 351 27 C382.0151 17.6581 385.8983 16.2275 420 12 C445.0254 8.8977 446.9731 10.2375 472 12 C481.3139 12.6559 482.1314 13.3924 491 17 C511.1241 25.1861 512.3712 25.355 531 36 C539.5818 40.9039 540.6225 41.8572 547 49 C552.3842 55.0303 553.0194 56.3357 556 64 C559.6966 73.5056 559.4322 74.6526 561 85 C561.8647 90.7069 561 97 561 97 "/>
<path id="2" d="M148 317 C148 317 149.9498 325.5096 153 331 C154.2322 333.218 158 335 158 335 "/>
<path id="3" d="M138 330 L146 346 "/>
<path id="4" d="M124 339 L132 354 "/>
<path id="5" d="M114 351 L119 362 "/>
<path id="6" d="M90 363 L95 375 "/>
<path id="7" d="M71 375 L76 390 "/>
<path id="8" d="M54 388 L63 404 "/>
<path id="9" d="M380 28 C380 28 373.1249 29.13 368 32 C361.3059 35.7487 360.0768 36.1334 355 42 C338.3498 61.2403 337.8701 62.4535 323 84 C313.5485 97.695 313.0174 98.1555 306 113 C300.2676 125.1263 300.5259 125.8161 297 139 C289.088 168.5841 288.5812 169.2338 283 199 C281.2009 208.5953 281.0796 211.0233 282 219 C282.2991 221.5921 283.9907 224.3302 286 225 C301.8508 230.2836 308.3656 233.3069 330 235 C364.2621 237.6814 367.719 238.2746 401 234 C419.5615 231.616 422.9377 230.6658 439 221 C476.8912 198.1982 479.4966 194.2301 514 166 C521.7371 159.6696 523.1128 157.7462 527 149 C532.3093 137.054 533.117 134.5988 534 121 C535.5166 97.6444 536.9037 92.7046 532 72 C528.9482 59.1147 524.7167 57.4045 516 45 C512.1191 39.4771 511.304 37.5803 506 35 C494.9773 29.6376 492.524 29.352 479 27 C458.6622 23.463 457.7114 23 437 23 C409.3848 23 381 27 381 27 "/>
<path id="10" d="M297 155 C297 155 300.3086 155.7094 301 157 C312.3368 178.162 316.108 184.3335 327 211 C330.072 218.521 330 228 330 228 "/>
<path id="11" d="M335 80 C335 80 342.7503 84.3303 348 90 C354.6967 97.2324 355.1001 98.0751 360 107 C368.8875 123.1879 367.2481 124.4964 376 141 C384.6676 157.3447 386.0152 156.8273 395 173 C398.4485 179.2073 399.2432 179.3784 401 186 C405.5577 203.1791 408 222 408 222 "/>
<path id="12" d="M405 28 C405 28 425.1039 44.5953 442 63 C452.6429 74.5932 452.4491 75.6036 461 89 C467.2843 98.8455 467.9922 99.1402 472 110 C483.2561 140.5003 484.2782 153.6954 492 173 C492.4785 174.1963 497.6739 175.1863 498 175 C498.2973 174.8301 499 169 499 169 "/>
<path id="13" d="M485 36 C485 36 500.2975 43.7841 507 53 C513.961 62.5714 511.0456 67.2405 517 80 C521.3499 89.3211 528 98 528 98 "/>
<path id="14" d="M462 35 C462 35 468.5146 37.7185 473 42 C489.8463 58.0805 492.3711 58.2324 506 77 C522.0256 99.068 534 126 534 126 "/>
<path id="15" d="M443 30 C443 30 465.6985 52.4561 485 77 C505.9031 103.5805 524 133 524 133 "/>
<path id="16" d="M376 33 C376 33 381.1946 33.1946 383 35 C389.6198 41.6198 391.6532 43.8237 397 54 C437.4744 131.032 476 212 476 212 "/>
<path id="17" d="M355 44 C355 44 373.794 70.4998 389 98 C396.9765 112.4256 396.5559 113.231 402 129 C410.9779 155.0048 408.3111 157.4317 418 182 C421.7136 191.4166 425.3112 190.9349 430 200 C432.4312 204.7004 433 211 433 211 "/>
<path id="18" d="M326 90 C326 90 343.5212 107.3522 354 127 C374.6213 165.665 390 210 390 210 "/>
<path id="19" d="M314 103 C314 103 317.8404 103.5312 319 105 C323.8539 111.1483 325.0246 113.1318 329 122 C350.804 170.6397 371 221 371 221 "/>
<path id="20" d="M310 126 C310 126 325.2735 151.2031 338 177 C343.5844 188.3196 343.6557 188.9092 347 201 C350.0434 212.0031 348.0115 214.3703 351 224 C351.931 226.9999 356 230 356 230 "/>
<path id="21" d="M292 180 C292 180 299.6376 187.4386 304 195 C306.5332 199.3909 304.6493 201.142 307 206 C311.8718 216.0685 319 226 319 226 "/>
<path id="22" d="M398 30 C398 30 409.4472 40.2962 418 52 C428.0801 65.7938 428.1724 66.5684 436 82 C445.5265 100.7808 445.8696 101.1684 453 121 C461.7554 145.3511 459.7551 146.6581 468 171 C470.1004 177.2013 474 183 474 183 "/>
<path id="23" d="M430 28 C430 28 437.7336 36.0277 443 45 C450.9576 58.5574 448.9393 60.3416 457 74 C466.731 90.4886 468.8593 89.5453 479 106 C495.2722 132.4039 510 160 510 160 "/>
<path id="24" d="M367 33 C367 33 384.4019 58.0789 396 82 C399.3942 89.0005 396.3901 91.4314 399 99 C401.0859 105.0491 403.7754 104.7498 406 111 C413.9801 133.4202 411.3089 135.5053 420 158 C428.0806 178.9144 440 199 440 199 "/>
<path id="25" d="M534 72 C534 72 516.9754 83.9549 499 94 C449.1427 121.8614 445.0531 117.8377 398 148 C368.6863 166.7908 370.9456 171.7869 343 194 C332.0988 202.6651 331.7654 203.0044 320 210 C313.643 213.7799 311.6845 212.4098 306 216 C303.1914 217.7739 300.9938 221.9979 301 222 C301.0201 222.0067 312 218 312 218 "/>
<path id="26" d="M521 49 C521 49 501.1307 51.7782 484 59 C451.2014 72.8268 451.0458 74.8208 419 92 C402.6515 100.7642 401.9861 100.3184 387 111 C355.3405 133.5658 356.5638 136.4032 325 159 C312.9663 167.615 299.0219 173.9895 299 174 C298.9968 174.0015 302 170 302 170 "/>
<path id="27" d="M476 26 C476 26 468.3015 28.7422 462 33 C450.1699 40.9933 450.8501 44.1104 439 51 C430.4768 55.9553 428.2005 53.329 419 58 C396.2661 69.5418 396.7311 72.0932 374 84 C365.5982 88.401 364.024 86.4459 356 91 C346.16 96.5849 346.8265 99.1041 337 105 C329.7557 109.3466 321.0098 111.997 321 112 C320.9979 112.0007 324 109 324 109 "/>
<path id="28" d="M412 27 C412 27 402.2278 37.1467 391 44 C364.4083 60.2313 335 74 335 74 "/>
<path id="29" d="M531 96 C531 96 528.3736 95.2761 527 96 C495.9037 112.3886 491.6385 114.9317 457 135 C428.6824 151.4062 425.9123 149.4427 401 169 C373.8099 190.3455 350 219 350 219 "/>
<path id="30" d="M533 109 C533 109 527.0165 112.6818 524 116 C523.0246 117.073 524.0437 118.7294 523 120 C513.8928 131.0871 512.698 132.8869 501 144 C482.8916 161.203 482.9226 162.8086 463 177 C447.2794 188.1983 444.2919 185.326 428 196 C415.8284 203.9745 405 215 405 215 "/>
<path id="31" d="M524 56 C524 56 509.1724 69.4528 493 80 C475.0792 91.6875 473.3446 89.6695 455 101 C439.5347 110.5521 440.5208 112.8402 425 122 C410.4095 130.6108 409.7229 131.2349 394 137 C380.4022 141.9859 378.4636 138.9511 365 144 C351.2703 149.1486 351.6702 151.9597 338 158 C330.4991 161.3144 328.183 159.246 322 163 C315.7358 166.8033 310 175 310 175 "/>
</g>
</g>
</svg>
