<?xml version="1.0" encoding="utf-8"?>
<!DOCTYPE svg PUBLIC "-//W3C//DTD SVG 1.1//EN" "http://www.w3.org/Graphics/SVG/1.1/DTD/svg11.dtd">
<svg viewBox="0 0 800 800" preserveAspectRatio="xMinYMin meet" xmlns="http://www.w3.org/2000/svg" version="1.1">
<g fill="none" stroke="black" stroke-linecap="round" stroke-linejoin="round" stroke-width="1.8145">
<g transform="translate(118.1067,87.52) scale(1.6533) translate(-149,-65)">
<path id="0" d="M422 70 C422 70 411.8353 65.7932 402 65 C381.754 63.3673 377.5025 60.1589 360 65 C335.3334 71.8227 332.8184 76.8673 308 91 C297.3967 97.038 297.2547 97.9793 288 106 C282.522 110.7476 282.2826 111.0929 278 117 C267.9622 130.8452 266.8719 132.2242 259 146 C257.7021 148.2713 259.2381 149.5967 258 152 C251.303 165.0001 246.1421 165.4932 242 179 C235.49 200.2282 237.2882 203.1379 235 227 C233.8247 239.2568 233.7319 240.2703 235 252 C235.6306 257.8331 235.9709 259.1891 239 264 C243.8373 271.6828 252 279 252 279 "/>
<path id="1" d="M463 95 C463 95 472.685 106.2311 479 118 C483.2425 125.9065 484.2063 127.2692 485 136 C487.0543 158.5974 487.6444 161.3754 485 184 C483.3444 198.1648 482.098 199.8282 476 213 C470.0416 225.8702 469.1216 226.6892 460 238 C444.4971 257.2236 442.2775 261.0963 426 275 C421.6786 278.6912 417.1299 276.7556 412 279 C410.9211 279.472 411.0433 281.6629 410 282 C385.8198 289.8121 378.4163 293.8289 347 300 C323.4926 304.6175 298 304 298 304 "/>
<path id="2" d="M252 280 C252 280 251.4254 289.4402 251 291 C250.9794 291.0755 249.0677 290.8453 249 291 C247.5929 294.2163 247.8264 300.0647 244 307 C232.3943 328.0353 231.3725 328.772 217 349 C204.5067 366.5831 204.0136 366.5492 190 383 C181.1038 393.4434 181.0128 393.8454 171 403 C163.757 409.6222 161.1108 408.5983 155 415 C151.69 418.4676 151.2249 420.1005 150 425 C148.4485 431.206 147.9017 436.1759 149 439 C149.5738 440.4754 153.2281 442.4412 157 443 C165.3405 444.2356 171.1344 444.4808 176 443 C177.5699 442.5222 180 436 180 436 "/>
<path id="3" d="M312 306 C312 306 302.7625 305.0339 296 306 C293.7056 306.3278 293.1143 307.1446 291 309 C269.0878 328.2291 268.7346 328.7643 247 349 C239.7674 355.7338 238.4744 355.6096 233 363 C229.0814 368.2901 230.5525 370.6713 227 376 C225.1193 378.8211 222.7324 378.4014 221 381 C219.3959 383.4061 220.7726 385.2605 219 388 C210.4637 401.1925 207.5363 401.8075 199 415 C197.2274 417.7395 198.8266 419.7675 197 422 C191.0588 429.2614 181 437 181 437 "/>
<path id="4" d="M421 70 C421 70 435.9505 74.6426 449 81 C454.8276 83.8391 456.2654 84.9781 460 89 C461.611 90.7349 462 95 462 95 "/>
<path id="5" d="M410 79 C410 79 390.1139 76.3291 372 77 C364.2874 77.2857 358.9609 79.8897 356 81 C355.8731 81.0476 356.0776 82.9806 356 83 C352.7809 83.8048 344.878 82.8039 336 86 C321.0911 91.3672 318.947 92.0164 306 101 C295.6882 108.1552 295.2211 110.1347 287 120 C283.2238 124.5314 284.6366 126.1094 281 131 C270.3918 145.2662 267.5923 144.4662 258 159 C251.6466 168.6264 249.6559 170.3001 248 181 C243.6073 209.3833 242.9971 215.2935 245 243 C245.7019 252.7092 248.8684 254.0387 254 264 C257.2269 270.2641 258.3572 272.3572 262 276 C263.0928 277.0928 265.221 275.8398 267 277 C275.539 282.5689 276.557 286.6329 285 291 C288.8524 292.9926 294.4402 291.5746 296 292 C296.0755 292.0206 295.9834 293.9989 296 294 C302.111 294.3901 319.8212 295.6718 343 295 C353.8993 294.6841 354.5771 294.8426 365 292 C386.9671 286.009 387.3571 285.0702 409 277 C416.6852 274.1343 417.5436 274.2107 424 270 C428.3617 267.1554 428.5522 266.3713 432 262 C456.3006 231.1903 466.1603 229.0294 480 199 C488.8292 179.8424 485.3352 167.4445 485 147 C484.9413 143.4172 480.7492 142.6646 479 138 C475.074 127.5306 477.7016 124.6382 473 115 C468.4975 105.7698 466.6812 104.9372 459 97 C452.065 89.8338 450.5005 87.7502 443 84 C438.8331 81.9165 432.6905 83.4226 431 83 C430.931 82.9828 431.0248 81.0025 431 81 C428.5248 80.7525 411 81 411 81 "/>
<path id="6" d="M279 138 C279 138 327.6795 165.5157 377 188 C394.7491 196.0915 404.3419 195.6274 415 200 C415.6558 200.269 415.3754 203.5539 416 204 C417.0873 204.7766 419.7539 203.8021 422 205 C426.3777 207.3347 426.1727 209.6452 431 212 C445.9088 219.2726 463 225 463 225 "/>
<path id="7" d="M297 111 C297 111 308.5195 112.0841 318 116 C330.6526 121.2261 330.0313 124.6194 343 130 C376.4113 143.8621 378.0874 141.2907 412 155 C448.4118 169.7197 484 187 484 187 "/>
<path id="8" d="M347 85 C347 85 360.5591 89.1455 373 95 C385.7984 101.0228 385.9427 103.5194 398 109 C401.2502 110.4774 403.4949 108.7475 406 110 C407.9156 110.9578 407.6664 113.645 410 115 C421.6788 121.7812 424.4125 120.5619 437 128 C445.9581 133.2934 445.9398 136.0938 454 141 C456.1381 142.3015 458.1757 140.8391 460 142 C462.4241 143.5426 462.116 146.0773 465 148 C473.2248 153.4832 475.1943 154.4777 484 158 C486.2971 158.9189 490 158 490 158 "/>
<path id="9" d="M414 80 C414 80 431.1852 88.3164 445 97 C447.3672 98.4879 446.6269 100.3158 449 102 C461.2815 110.7159 476 119 476 119 "/>
<path id="10" d="M260 159 C260 159 260.2979 163.5279 262 165 C275.6105 176.7713 279.2738 179.4237 297 191 C303.1106 194.9906 305.0109 193.0073 311 197 C322.3127 204.5418 321.3013 207.2705 333 215 C376.8361 243.9631 423 271 423 271 "/>
<path id="11" d="M245 202 C245 202 256.6697 206.875 266 214 C283.6033 227.4425 282.1465 230.4954 300 244 C320.7645 259.7065 323.467 257.9951 344 273 C348.5912 276.3551 347.5774 278.7835 352 282 C357.8047 286.2216 366 289 366 289 "/>
<path id="12" d="M450 89 C450 89 442.8394 99.6055 434 106 C420.475 115.784 417.8642 113.6411 403 123 C377.5488 139.0248 377.196 139.3044 353 157 C343.9603 163.6112 344.2757 164.276 336 172 C321.7978 185.2554 320.172 184.4371 308 199 C292.6886 217.319 295.0393 220.2009 280 239 C269.3472 252.3161 256 264 256 264 "/>
<path id="13" d="M424 83 C424 83 413.4402 84.9078 405 89 C397.7389 92.5205 398.3012 95.2388 391 99 C382.3818 103.4397 380.5277 101.2104 372 106 C344.8172 121.2671 342.7307 121.3012 318 140 C302.7439 151.5351 302.6795 153.1673 290 168 C276.4817 183.8138 277.0629 184.7672 265 202 C259.6127 209.6962 259.1168 209.7663 255 218 C251.2752 225.4495 250.7109 227.1563 249 234 C248.6334 235.4665 250 238 250 238 "/>
<path id="14" d="M391 77 C391 77 384.262 76.9271 379 79 C368.5757 83.1065 367.9428 83.7647 358 90 C338.646 102.1373 339.0929 104.6177 320 116 C313.94 119.6127 312.4983 117.7509 306 121 C291.8219 128.0891 290.3183 127.5933 278 137 C263.6491 147.9589 251 163 251 163 "/>
<path id="15" d="M468 106 C468 106 466.003 110.228 463 113 C447.078 127.6973 446.4105 128.4198 429 142 C421.6816 147.7084 420.2686 146.303 413 152 C402.056 160.5778 403.2444 162.8694 392 171 C371.2042 186.0369 367.8585 184.5928 348 199 C343.8224 202.0308 344.738 204.5495 341 208 C338.8586 209.9767 337.1059 208.8941 335 211 C317.9188 228.0812 314.9145 229.0202 300 249 C289.1998 263.4681 282 282 282 282 "/>
<path id="16" d="M477 129 C477 129 463.5564 137.6601 452 148 C435.3171 162.9268 434.7999 163.9668 420 180 C417.4285 182.7858 417.968 185.032 416 187 C415.1055 187.8945 412.6758 187.3242 412 188 C411.3242 188.6758 411.6758 191.3242 411 192 C410.3242 192.6758 408.2015 191.9624 407 193 C398.7132 200.1568 397.0917 201.6137 389 211 C384.8876 215.7704 386.1675 217.2948 382 222 C371.0344 234.3805 370.4413 234.9037 358 246 C352.2385 251.1386 350.2619 249.6237 345 255 C327.9723 272.3979 312 293 312 293 "/>
<path id="17" d="M482 157 C482 157 479.5725 161.8301 476 165 C444.9619 192.5408 442.3587 191.4231 411 220 C380.531 247.7661 380.6305 248.563 352 278 C345.382 284.8044 340 293 340 293 "/>
<path id="18" d="M489 179 C489 179 484.2908 186.742 478 192 C451.5486 214.1087 448.9277 212.5603 422 235 C407.1922 247.3398 408.0491 249.9022 394 262 C390.8627 264.7015 388.9392 263.2785 386 266 C376.3454 274.9395 367 287 367 287 "/>
<path id="19" d="M474 117 C474 117 457.7563 133.0863 440 146 C425.2324 156.7401 422.9758 154.303 408 165 C374.3397 189.043 373.661 189.6794 342 216 C332.6639 223.7613 332.2241 224.2696 325 234 C308.0712 256.8021 293 282 293 282 "/>
<path id="20" d="M464 96 C464 96 429.4604 114.7155 398 137 C357.878 165.4198 357.2986 166.2271 320 198 C303.8114 211.7903 300.3622 212.5556 290 229 C279.1855 246.1622 274 271 274 271 "/>
<path id="21" d="M441 85 C441 85 432.2209 95.3392 422 101 C401.0616 112.5966 397.6902 109.3019 376 121 C353.8076 132.9689 352.6045 133.3164 333 149 C310.8175 166.746 311.0949 171.0428 291 189 C289.2457 190.5677 287.249 189.751 286 191 C284.751 192.249 285.5466 194.2517 284 196 C274.9576 206.2218 270.3782 207.6096 263 217 C261.4682 218.9496 263.3114 222.1058 262 224 C260.0329 226.8414 256.4531 226.5657 254 230 C249.8118 235.8634 247 245 247 245 "/>
<path id="22" d="M399 78 C399 78 375.7374 86.9782 354 98 C340.5522 104.8186 339.7148 105.2976 328 114 C322.92 117.7737 323.8411 119.9658 319 124 C315.3226 127.0645 312.9226 126.3431 310 129 C308.5877 130.2839 309.5577 132.6433 308 134 C296.1944 144.2823 292.5524 144.2957 279 156 C270.8634 163.027 269.7862 166.8567 264 172 C263.406 172.528 261.6801 171.4458 261 172 C251.4954 179.7445 237 194 237 194 "/>
<path id="23" d="M290 123 C290 123 293.4722 128.6407 298 132 C308.2994 139.6415 310.6675 138.729 321 146 C323.3647 147.6641 322.7121 149.5196 325 151 C330.3384 154.4543 331.5165 155.2711 338 157 C345.7861 159.0763 346.9356 156.9444 355 159 C371.9507 163.3208 371.9433 166.0023 389 170 C403.4264 173.3812 405.3819 169.6422 419 174 C441.3775 181.1608 445.2844 183.8936 464 194 C466.9449 195.5902 469 201 469 201 "/>
<path id="24" d="M275 149 C275 149 294.024 166.1184 314 180 C322.8919 186.1791 323.8325 185.878 334 190 C342.0426 193.2605 343.4014 191.4242 351 195 C359.7072 199.0975 359.1164 201.4382 368 206 C395.7956 220.2734 399.7071 219.5377 425 233 C427.9037 234.5455 427.2341 237.0244 430 239 C433.5318 241.5227 439 243 439 243 "/>
<path id="25" d="M254 180 C254 180 260.7018 182.332 266 186 C273.3166 191.0653 274.4119 192.0626 280 198 C281.5276 199.6231 280.577 201.7959 282 203 C285.6717 206.1068 288.3213 205.2893 293 209 C302.3472 216.4133 301.3292 218.7012 311 226 C327.4239 238.3954 329.6428 236.4595 346 249 C359.2495 259.1579 358.204 262.4851 371 272 C376.6109 276.1722 385 278 385 278 "/>
<path id="26" d="M322 97 C322 97 332.3906 98.9345 341 103 C349.7518 107.1328 349.1744 109.3866 358 114 C370.9078 120.7472 371.2672 120.8502 385 126 C403.0925 132.7847 404.0339 130.9419 422 138 C445.7959 147.3484 469 159 469 159 "/>
<path id="27" d="M383 76 C383 76 415.4848 96.2587 444 116 C446.3989 117.6608 445.6898 119.4599 448 121 C453.8805 124.9203 462 128 462 128 "/>
</g>
</g>
</svg>
