<?xml version="1.0" encoding="utf-8"?>
<!DOCTYPE svg PUBLIC "-//W3C//DTD SVG 1.1//EN" "http://www.w3.org/Graphics/SVG/1.1/DTD/svg11.dtd">
<svg viewBox="0 0 800 800" preserveAspectRatio="xMinYMin meet" xmlns="http://www.w3.org/2000/svg" version="1.1">
<g fill="none" stroke="black" stroke-linecap="round" stroke-linejoin="round" stroke-width="1.3393">
<g transform="translate(96.48,87.52) scale(2.24) translate(-171,-77.1333)">
<path id="0" d="M259 82.1333 C259 82.1333 244.5439 80.1684 232 81.1333 C226.2657 81.5744 224.992 82.0826 220 85.1333 C207.9039 92.5254 206.6689 93.3067 196 103.1333 C188.2024 110.3153 187.8797 111.3138 182 120.1333 C178.2042 125.827 177.6053 126.5663 176 133.1333 C172.3135 148.2143 172.1525 149.2291 171 165.1333 C169.6824 183.3167 169.6974 188.7822 171 202.1333 C171.1546 203.7175 173.9649 204.0632 175 206.1333 C176.5526 209.2386 175.1336 211.0227 177 214.1333 C182.031 222.5184 182.692 223.8253 190 231.1333 C200.2312 241.3645 201.7051 245.5388 213 250.1333 C226.98 255.8201 231.0853 253.8537 249 255.1333 C265.7533 256.33 266.3718 253.7924 283 255.1333 C296.891 256.2536 297.6173 256.5646 311 260.1333 C319.6075 262.4287 321.0407 262.278 328 267.1333 C341.3714 276.4622 343.2903 277.2527 354 290.1333 C379.4217 320.7081 384.2664 337.8455 402 356.1333 C404.4447 358.6544 411.0589 357.7665 418 356.1333 C426.6253 354.1038 429.3616 352.7514 436 348.1333 C438.9763 346.0629 439.8336 344.0212 441 340.1333 C442.5101 335.0996 443.4571 331.7761 442 328.1333 C439.8143 322.6692 436.944 320.2668 431 315.1333 C426.6727 311.3961 424.8979 312.7827 420 309.1333 C399.7876 294.0731 398.2954 294.398 380 277.1333 C363.3124 261.3859 361.0023 259.6502 349 242.1333 C344.0679 234.9351 343.8026 232.4207 343 223.1333 C340.447 193.5913 344.013 191.6645 342 161.1333 C341.0487 146.7056 340.7313 145.9103 337 132.1333 C334.3981 122.5263 333.7142 122.007 329 113.1333 C325.3947 106.3469 325.2822 105.2269 320 100.1333 C312.0285 92.4465 310.5703 89.2779 301 86.1333 C279.1192 78.9439 250 77.1333 250 77.1333 "/>
<path id="1" d="M222 101.1333 C222 101.1333 217.8155 102.0386 216 104.1333 C206.1846 115.4587 203.4814 117.2024 196 131.1333 C189.6896 142.8837 188.4683 145.1025 187 158.1333 C184.6998 178.5476 185.5473 182.161 188 202.1333 C188.7636 208.3513 190.3551 209.3015 194 215.1333 C197.6177 220.9216 198.1752 221.0546 203 226.1333 C207.5656 230.9393 207.7152 231.7703 213 235.1333 C218.1015 238.3798 219.1807 239.4867 225 240.1333 C248.7408 242.7712 254.6496 246.2578 276 242.1333 C293.156 238.8191 297.0881 233.6284 313 223.1333 C318.7551 219.3374 319.2377 217.4038 323 211.1333 C326.3442 205.5596 327.7061 204.2078 328 198.1333 C329.0855 175.6998 330.4415 171.0631 326 149.1333 C323.0481 134.5584 319.6396 133.3212 312 119.1333 C309.4013 114.3071 309.0404 113.332 305 110.1333 C297.8727 104.4909 296.5199 103.3909 288 100.1333 C280.5752 97.2944 279.4267 97.593 271 97.1333 C252.3435 96.1157 247.2595 94.9634 233 97.1333 C229.5983 97.651 225 104.1333 225 104.1333 "/>
<path id="2" d="M368 269.1333 C368 269.1333 368.9642 273.687 368 275.1333 C365.4824 278.9097 363.025 280.8819 358 284.1333 C355.3661 285.8376 351 286.1333 351 286.1333 "/>
<path id="3" d="M380 277.1333 C380 277.1333 376.391 285.7403 372 289.1333 C367.4588 292.6424 358 294.1333 358 294.1333 "/>
<path id="4" d="M389 286.1333 C389 286.1333 382.7945 293.6624 376 300.1333 C372.4615 303.5034 369.4601 305.5493 368 306.1333 C367.8315 306.2007 366 304.1333 366 304.1333 "/>
<path id="5" d="M398 292.1333 C398 292.1333 398.7737 295.5858 398 297.1333 C396.4525 300.2283 395.368 301.2246 392 304.1333 C384.6284 310.4997 383.7228 311.1135 376 316.1333 C374.4911 317.1141 372.2531 317.1966 372 317.1333 C371.9662 317.1249 372 315.1333 372 315.1333 "/>
<path id="6" d="M406 303.1333 C406 303.1333 402.3684 313.9714 397 319.1333 C391.3522 324.5639 380.6266 327.8753 380 328.1333 C379.9751 328.1436 380 326.1333 380 326.1333 "/>
<path id="7" d="M421 309.1333 C421 309.1333 421.2296 312.9474 420 315.1333 C417.2832 319.9632 416.6194 321.4378 412 325.1333 C402.4147 332.8016 390.0016 339.1325 390 339.1333 C389.9996 339.1336 395 334.1333 395 334.1333 "/>
<path id="8" d="M430 318.1333 C430 318.1333 429.019 325.1143 426 328.1333 C416.5117 337.6216 401 347.1333 401 347.1333 "/>
<path id="9" d="M201 129.1333 C201 129.1333 202.667 137.856 207 144.1333 C240.4341 192.5699 279 242.1333 279 242.1333 "/>
<path id="10" d="M209 121.1333 C209 121.1333 215.5739 141.5258 224 160.1333 C227.326 167.4782 227.5054 168.7872 233 174.1333 C245.0002 185.8092 249.5903 183.8109 261 196.1333 C273.4678 209.5985 271.4028 213.2744 283 228.1333 C286.9635 233.2116 293 237.1333 293 237.1333 "/>
<path id="11" d="M214 110.1333 C214 110.1333 224.2621 119.9951 230 131.1333 C240.6493 151.8054 236.2882 157.8017 248 176.1333 C257.305 190.6977 263.3481 189.1137 276 203.1333 C281.3548 209.067 279.8002 211.2244 285 217.1333 C290.3232 223.1824 297.2819 227.723 298 228.1333 C298.0266 228.1485 299 225.1333 299 225.1333 "/>
<path id="12" d="M227 103.1333 C227 103.1333 229.8342 112.6307 235 120.1333 C271.1077 172.5754 311 225.1333 311 225.1333 "/>
<path id="13" d="M320 219.1333 C320 219.1333 305.0776 201.9246 294 184.1333 C289.1615 176.3623 291.6122 174.2444 287 166.1333 C277.4506 149.3395 274.7121 149.3201 265 133.1333 C263.2762 130.2603 264.8319 128.6981 263 126.1333 C253.3435 112.6142 240 98.1333 240 98.1333 "/>
<path id="14" d="M326 209.1333 C326 209.1333 326.2159 204.7678 325 202.1333 C323.6462 199.2001 321.6298 199.393 320 196.1333 C313.4807 183.0947 315.7481 180.7081 308 168.1333 C285.8481 132.1819 259 97.1333 259 97.1333 "/>
<path id="15" d="M329 188.1333 C329 188.1333 321.9198 178.5 317 168.1333 C308.0788 149.3352 311.062 146.622 301 129.1333 C290.7807 111.3713 275 95.1333 275 95.1333 "/>
<path id="16" d="M265 243.1333 C265 243.1333 258.5056 225.1445 252 212.1333 C251.1326 210.3985 249.0828 210.9123 248 209.1333 C242.8023 200.5943 244.3644 197.7793 238 189.1333 C218.5416 162.6993 195 137.1333 195 137.1333 "/>
<path id="17" d="M259 243.1333 C259 243.1333 259.1339 239.7208 258 238.1333 C254.9384 233.8471 252.5145 233.8193 249 229.1333 C246.9359 226.3813 248.1458 224.9766 246 222.1333 C228.877 199.4453 227.7077 197.7511 209 176.1333 C205.9013 172.5526 203.9076 173.653 201 170.1333 C194.9843 162.8512 190 153.1333 190 153.1333 "/>
<path id="18" d="M247 240.1333 C247 240.1333 246.6357 236.47 245 234.1333 C236.7553 222.3551 233.4709 222.489 226 210.1333 C221.1092 202.0446 223.5818 199.5734 219 191.1333 C214.4757 182.799 213.8242 181.7507 207 175.1333 C197.9437 166.3515 186 159.1333 186 159.1333 "/>
<path id="19" d="M242 243.1333 C242 243.1333 228.8319 228.6074 218 213.1333 C211.5888 203.9745 213.4134 202.2363 207 193.1333 C198.1966 180.6382 187 169.1333 187 169.1333 "/>
<path id="20" d="M225 240.1333 C225 240.1333 212.6261 227.0706 205 213.1333 C198.7846 201.7742 201.0071 199.0734 196 187.1333 C194.8771 184.4555 192 182.1333 192 182.1333 "/>
<path id="21" d="M187 157.1333 C187 157.1333 213.3347 139.3925 238 120.1333 C249.6137 111.0651 260 100.1333 260 100.1333 "/>
<path id="22" d="M185 177.1333 C185 177.1333 198.0924 166.7689 212 159.1333 C223.1201 153.0282 225.4571 155.7423 236 149.1333 C257.9644 135.3646 258.3062 133.6884 279 117.1333 C285.5158 111.9207 291 105.1333 291 105.1333 "/>
<path id="23" d="M190 198.1333 C190 198.1333 206.6334 185.4246 224 175.1333 C233.237 169.6596 235.6233 171.7999 244 166.1333 C251.5362 161.0353 250.3126 156.9797 258 152.1333 C271.9617 143.3314 275.0827 145.8125 290 137.1333 C302.0471 130.1241 313 120.1333 313 120.1333 "/>
<path id="24" d="M194 213.1333 C194 213.1333 207.1075 209.0464 218 203.1333 C223.8798 199.9414 223.2835 197.6721 229 194.1333 C233.3038 191.4691 234.9627 192.8248 239 190.1333 C243.2498 187.3002 242.5002 184.8502 247 182.1333 C267.8645 169.5359 270.5935 171.3715 292 158.1333 C308.1772 148.129 323 135.1333 323 135.1333 "/>
<path id="25" d="M202 225.1333 C202 225.1333 228.1319 218.6108 249 207.1333 C266.3473 197.5923 264.8491 192.5672 282 181.1333 C295.857 171.8953 297.672 173.7967 312 165.1333 C318.8784 160.9743 325 155.1333 325 155.1333 "/>
<path id="26" d="M221 239.1333 C221 239.1333 231.6092 233.8411 241 227.1333 C259.4061 213.9861 258.628 211.3813 277 199.1333 C284.8417 193.9055 286.9188 196.1841 295 191.1333 C310.3718 181.5259 325 169.1333 325 169.1333 "/>
<path id="27" d="M238 241.1333 C238 241.1333 243.2948 241.8149 246 240.1333 C259.3903 231.8096 260.1897 228.5321 275 218.1333 C283.5714 212.1151 283.7319 211.7674 293 207.1333 C302.4653 202.4007 303.758 204.011 313 199.1333 C321.3199 194.7423 329 188.1333 329 188.1333 "/>
<path id="28" d="M265 243.1333 L330 198.1333 "/>
</g>
</g>
</svg>
