<?xml version="1.0" encoding="utf-8"?>
<!DOCTYPE svg PUBLIC "-//W3C//DTD SVG 1.1//EN" "http://www.w3.org/Graphics/SVG/1.1/DTD/svg11.dtd">
<svg viewBox="0 0 800 800" preserveAspectRatio="xMinYMin meet" xmlns="http://www.w3.org/2000/svg" version="1.1">
<g fill="none" stroke="black" stroke-linecap="round" stroke-linejoin="round" stroke-width="2.0641">
<g transform="translate(87.52,233.5862) scale(1.4534) translate(-81,-104.9333)">
<path id="0" d="M146 268.9333 C146 268.9333 151.282 268.0689 154 265.9333 C157.2241 263.4001 157.1488 260.0717 160 257.9333 C161.6038 256.7305 163.8048 258.262 166 256.9333 C181.0602 247.818 181.5882 244.8976 198 234.9333 C209.3202 228.0603 211.181 229.5644 222 222.9333 C225.8957 220.5456 225.0971 218.2987 229 215.9333 C240.7613 208.8053 245.3531 210.8921 255 202.9333 C263.0118 196.3236 261.4658 191.7778 269 182.9333 C272.4612 178.8702 275.4005 180.0021 278 175.9333 C285.7362 163.8245 283.4049 159.0676 292 146.9333 C299.3252 136.5919 301.145 135.17 312 127.9333 C328.5041 116.9306 331.293 113.0512 349 108.9333 C370.0475 104.0386 376.7161 109.5099 398 107.9333 C400.2649 107.7656 400.8194 105.0512 403 104.9333 C416.4949 104.2039 419.537 103.9054 435 105.9333 C449.398 107.8216 451.6191 107.7506 464 112.9333 C471.2139 115.9531 471.7435 117.9375 478 123.9333 C483.4811 129.186 483.9705 129.4862 488 135.9333 C498.7084 153.0668 498.5685 153.8905 508 171.9333 C509.9426 175.6496 511 176.3303 511 179.9333 C511 193.8949 512.8487 198.7145 508 210.9333 C501.865 226.3936 497.7609 228.1482 486 242.9333 C480.6919 249.6063 478.6782 253.8734 473 254.9333 C449.7605 259.2714 440.063 260.3525 411 256.9333 C383.2933 253.6737 381.9798 244.7596 354 240.9333 C325.6364 237.0546 321.558 236.3403 294 240.9333 C267.7434 245.3094 264.7149 248.5778 240 259.9333 C229.4048 264.8014 230.3767 270.6883 220 274.9333 C199.7879 283.2019 194.8618 278.77 174 286.9333 C162.1199 291.5821 160.9444 294.1988 151 301.9333 C148.5139 303.867 149.1492 306.6438 147 307.9333 C143.3802 310.1052 140.5972 308.5348 136 310.9333 C129.8916 314.1203 130.3735 316.4431 124 319.9333 C109.8188 327.6992 101.6554 332.7556 94 333.9333 C92.1503 334.2179 85.8436 329.5023 85 325.9333 C81.0062 309.0366 79.4496 286.8403 81 278.9333 C81.2263 277.7793 88.0254 275.8431 95 274.9333 C110.4946 272.9123 111.8205 275.7162 127 272.9333 C140.9054 270.384 155 263.9333 155 263.9333 "/>
<path id="1" d="M294 174.9333 C294 174.9333 299.8041 171.6619 303 167.9333 C305.0789 165.508 303.8369 163.2237 306 160.9333 C311.3284 155.2915 312.7481 154.5745 320 149.9333 C324.8943 146.801 326.2973 147.9763 331 144.9333 C334.2647 142.8209 333.6505 140.7439 337 138.9333 C350.976 131.3788 353.0401 127.2348 368 124.9333 C401.0783 119.8444 406.3269 121.7776 441 122.9333 C449.1612 123.2054 453.0304 124.0681 458 127.9333 C463.3397 132.0864 465.2742 136.2514 468 143.9333 C470.1411 149.9673 467.5132 152.986 469 158.9333 C469.585 161.2733 472.7003 162.7345 473 163.9333 C473.1249 164.4328 471 165.8599 471 166.9333 C471 170.1537 473.1841 173.9083 473 175.9333 C472.9526 176.4552 470.2155 177.0236 470 177.9333 C467.0253 190.493 469.243 198.7868 464 213.9333 C461.2249 221.9503 458.0975 223.8358 452 229.9333 C449.8223 232.111 448.2746 232.7969 445 232.9333 C415.1265 234.1781 411.4891 234.1602 380 232.9333 C374.13 232.7046 373.2601 232.399 368 229.9333 C357.9458 225.2204 357.2731 224.7661 348 217.9333 C319.5716 196.9861 292 173.9333 292 173.9333 "/>
<path id="2" d="M325 158.9333 C325 158.9333 378.271 159.5789 419 157.9333 C421.218 157.8437 421.7211 155.2068 424 154.9333 C432.5033 153.9129 444 154.9333 444 154.9333 "/>
<path id="3" d="M322 171.9333 C322 171.9333 364.5385 178.9905 407 182.9333 C434.2405 185.4628 462 184.9333 462 184.9333 "/>
<path id="4" d="M319 184.9333 C319 184.9333 333.6927 183.9633 348 184.9333 C362.9345 185.9458 363.0777 188.3702 378 188.9333 C415.6138 190.3527 454 188.9333 454 188.9333 "/>
<path id="5" d="M327 200.9333 L449 197.9333 "/>
<path id="6" d="M353 218.9333 C353 218.9333 389.1469 220.1352 424 218.9333 C431.905 218.6607 432.071 216.5135 440 215.9333 C452.2214 215.0391 465 215.9333 465 215.9333 "/>
<path id="7" d="M343 140.9333 C343 140.9333 344.4197 172.1365 344 201.9333 C343.931 206.8329 342 211.9333 342 211.9333 C342 211.9333 342.2698 205.0287 345 200.9333 C353.1907 188.6473 366 175.9333 366 175.9333 "/>
<path id="8" d="M376 130.9333 C376 130.9333 378.6111 131.242 379 131.9333 C381.6589 136.6602 383.8428 139.5561 385 146.9333 C387.6361 163.7386 388.2478 165.7144 387 182.9333 C385.834 199.0248 382.4264 199.6419 380 215.9333 C379.0021 222.6332 380.6816 224.1398 380 229.9333 C379.8425 231.2722 378.1616 232.9333 378 232.9333 C377.7577 232.9333 375 229.9333 375 229.9333 "/>
<path id="9" d="M402 134.9333 C402 134.9333 405.8691 136.237 407 137.9333 C408.9641 140.8795 409.3537 142.4092 410 146.9333 C414.7395 180.1101 413.2393 182.041 418 214.9333 C418.5806 218.9448 420.755 222.7291 421 222.9333 C421.0127 222.9439 424 219.9333 424 219.9333 "/>
<path id="10" d="M430 134.9333 C430 134.9333 432.4074 136.9014 433 138.9333 C435.5732 147.7557 434.761 151.8966 437 158.9333 C437.311 159.9107 439.7184 159.9635 440 160.9333 C443.0149 171.3179 444.8145 175.5376 446 189.9333 C448.2543 217.3065 447.0367 243.9169 447 245.9333 C446.9994 245.968 445.0566 245.273 445 244.9333 C444.533 242.1313 444.533 236.7353 445 233.9333 C445.0566 233.5937 447 232.9333 447 232.9333 "/>
</g>
</g>
</svg>
