<?xml version="1.0" encoding="utf-8"?>
<!DOCTYPE svg PUBLIC "-//W3C//DTD SVG 1.1//EN" "http://www.w3.org/Graphics/SVG/1.1/DTD/svg11.dtd">
<svg viewBox="0 0 800 800" preserveAspectRatio="xMinYMin meet" xmlns="http://www.w3.org/2000/svg" version="1.1">
<g fill="none" stroke="black" stroke-linecap="round" stroke-linejoin="round" stroke-width="1.5409">
<g transform="translate(151.7682,87.52) scale(1.9469) translate(-207,-78)">
<path id="0" d="M211,82C211,82 207.83542065114221,88.15205544200442 207,94C205.9367373530917,101.44283852835801 205.9361930495603,102.28739960931227 207,110C209.86585924148622,130.77747950077514 209.75017490329645,131.58401351281955 215,152C218.64287474284876,166.16673511107854 218.92314880704768,166.78945392836454 225,180C230.21565326315354,191.33837665902948 231.0279125110651,191.40242701681893 238,202C243.45276093019197,210.2881966138918 243.32355763291724,211.32355763291724 250,218C255.72266488607093,223.72266488607093 257.5517191408162,226.63594058748035 264,228C279.28965879140594,231.23435089818201 290.25117888931595,232.05469348877784 302,229C306.8688808206438,227.7340909866326 309.5736771056446,222.19277470332753 314,215C316.99334066236986,210.13582142364902 317.512330331639,208.8520360203317 318,203C319.90125269354246,180.18496767749067 319.41725024732005,177.11426310796318 319,155C318.95619118520073,152.6781328156405 318.54185906823374,151.8402834040209 317,150C303.99719660270915,134.48052497742708 300.2262943474398,132.67155321692775 288,118C286.94788564962687,116.73746277955222 288.05296807055936,115.1209014944664 287,114C274.81011810340186,101.02367411007296 272.3604202274483,98.16607448066995 257,85C251.95986211286853,80.67988181103017 250.4331136643237,78.93139091388407 245,78C235.6037709571544,76.38921787836932 232.4823582988448,77.01685113265098 222,79C215.15836754387752,80.29436289710425 208,85 208,85"/>
<path id="1" d="M310,223C310,223 322.41417709706695,240.8064344761114 337,256C358.09151580668526,277.97032896529714 361.03770338913165,276.3148655749638 382,298C389.494123193827,305.75254123499343 387.7849923134508,307.77824705486256 395,316C409.06450839105946,332.02699793399796 412.1101140997433,331.05724638652464 425,347C430.241324416893,353.4826907261571 428.0502533675099,356.2503455011499 433,363C438.49301150678775,370.4904702365288 441.016219255287,369.4648686918429 447,377C454.22397886159143,386.09686227015214 453.4282029854229,387.36136437862023 460,397C460.76584721114756,398.12324257634975 462,399.00611043260454 462,399C462,398.9725030532796 460,390 460,390"/>
<path id="2" d="M304,233C304,233 307.4953842069187,239.07307647631728 312,244C323.30019063225393,256.35958350402774 325.09819274498994,258.26624352231243 336,268C337.17417263674247,269.0483684256629 339.1954821989629,268.06139589879006 340,269C343.6073540111018,273.20857967961876 343.0542031249706,276.73165115486 348,282C365.2832225125405,300.41038919814093 369.6496459196109,300.1286827493422 386,318C389.59845435563585,321.933194295695 387.65935932887953,324.7314035869016 391,329C395.96713335939193,335.3468926258897 399.2802941157965,334.4823109218142 404,341C409.02371270444206,347.93750802042 406.5390412843626,351.4734883642383 412,358C425.7394146497647,374.4202760448407 429.8115327246039,373.99053449350145 445,390C447.58985205465444,392.7298440576087 447.3124776389781,396.0156119560706 449,397C450.6701252232794,397.97423971357966 455.00413408857656,397.4435257580941 457,397C457.36036467845144,396.91991896034414 457.9423967925068,395.921651319891 458,395C458.3910035902568,388.74394255589135 459.5448275862069,384.86206896551726 458,381C456.9848275862069,378.46206896551723 450,375 450,375"/>
<path id="3" d="M214,96C214,96 217.23170289890018,102.60365338205021 221,107C222.61498447189993,108.88414855054991 224.98488010389013,108.16311637846787 226,110C233.72232761150244,123.97373567795677 232.41925846863955,128.69593107821115 242,145C260.5764505522153,176.61255620289265 264.2448233325023,175.41233403368804 283,207C292.44886207787073,222.91387297325596 299,241 299,241"/>
<path id="4" d="M239,92C239,92 246.43735152273652,109.39778406341223 256,125C265.22163278119467,140.0458219061597 267.82715896461906,138.96673274757015 277,154C285.5890809857033,168.0765493932359 284.27955029397105,170.8752354997508 292,184C293.3803228262294,186.34654880459001 295.58146168817154,185.6357694802859 297,188C306.60553085438135,204.00921809063556 308.5667006971721,207.5684962779594 316,224C317.0001022019822,226.21075223596063 315.2642001887259,227.6086506133592 316,230C317.0093664077734,233.28044082526367 320,237 320,237"/>
<path id="5" d="M275,104C275,104 271.1395593596622,103.06593495109653 270,104C247.89628468274847,122.11779944037009 214.33045371244756,153.51403865816536 214,154C213.9438738926179,154.08253839320898 225.54820002537477,155.1613111082917 236,154C242.86229291263274,153.23752300970747 243.84544038249348,152.59139352316063 250,150C252.62291634705815,148.89561416965972 252.69594227020525,146.41891958723542 255,146C266.4105716142216,143.92535061559607 279.0616715280748,146.54085707866142 283,144C284.9648268698041,142.73236976141672 286.0345118653519,126 286,126C285.7008971669502,126 270.5567242206132,133.67276978418275 260,144C248.7644036834451,154.99134422271675 240,171 240,171"/>
<path id="6" d="M298,155C298,155 290.6188146924774,171.82513274671763 282,181C277.5696491684164,185.71617991749224 273.1578431867133,183.71628300054724 267,188C262.5803663780263,191.07452773702516 259,197 259,197"/>
<path id="7" d="M323,181C323,181 316.815898211538,180.2283329732145 313,182C304.40446136650143,185.99078579412435 303.1706730014169,187.3149039079316 295,194C286.9895362731207,200.55401577653762 287.5945382091891,202.78628691975436 280,209C277.3672267541478,211.1540872011518 273,212 273,212"/>
</g>
</g>
</svg>
