<?xml version="1.0" encoding="utf-8"?>
<!DOCTYPE svg PUBLIC "-//W3C//DTD SVG 1.1//EN" "http://www.w3.org/Graphics/SVG/1.1/DTD/svg11.dtd">
<svg viewBox="0 0 800 800" preserveAspectRatio="xMinYMin meet" xmlns="http://www.w3.org/2000/svg" version="1.1">
<g fill="none" stroke="black" stroke-linecap="round" stroke-linejoin="round" stroke-width="1.4977">
<g transform="translate(99.5385,87.52) scale(2.0031) translate(-141,-49.9833)">
<path id="0" d="M203 205.9833 C203 205.9833 194.0158 206.5673 189 204.9833 C186.695 204.2554 186.7394 201.49 184 199.9833 C177.5316 196.4257 173.8042 197.5233 169 193.9833 C166.5523 192.1798 167.6116 188.769 165 185.9833 C160.9298 181.6418 158.4952 182.4786 154 177.9833 C149.9779 173.9613 149.2208 173.1653 147 167.9833 C143.5589 159.9542 142.8827 158.8107 142 149.9833 C140.4731 134.7144 140.9104 133.2378 142 117.9833 C142.3478 113.1142 142.4232 111.893 145 107.9833 C156.0017 91.2911 156.9176 89.4464 171 73.9833 C181.9302 61.9815 184.3115 57.1782 196 51.9833 C206.0454 47.5187 211.6966 49.0763 225 49.9833 C232.0707 50.4654 235.2112 52.0568 240 54.9833 C241.7682 56.0639 240.9261 59.3631 243 60.9833 C254.8278 70.2238 260.1307 69.6758 272 79.9833 C277.5193 84.7764 276.0549 88.111 281 93.9833 C283.4967 96.9481 286.4824 96.4539 288 98.9833 C289.8476 102.0626 288.1833 105.5771 290 108.9833 C291.3461 111.5072 294.6032 111.8881 296 113.9833 C296.6208 114.9146 295.2925 116.7614 296 117.9833 C299.7793 124.5112 304.6465 125.9228 307 132.9833 C309.6897 141.0525 309.1605 144.9892 308 153.9833 C307.4081 158.5708 306.0456 160.4691 303 163.9833 C300.4643 166.9091 297.4734 165.928 295 168.9833 C289.9814 175.1828 286 184.9833 286 184.9833 "/>
<path id="1" d="M203 206.9833 C203 206.9833 211.319 218.6496 220 226.9833 C222.8393 229.7091 224.3183 230.7668 228 230.9833 C254.8236 232.5612 269.2615 223.6425 288 230.9833 C304.2046 237.3315 307.3954 253.2923 325 268.9833 C327.8999 271.568 330.6228 269.6726 334 271.9833 C339.1463 275.5045 340.0128 276.667 344 281.9833 C347.1328 286.1604 345.6807 287.9773 349 291.9833 C359.5346 304.6976 363.2056 303.9241 373 316.9833 C378.8653 324.8037 376.5892 328.6788 382 335.9833 C385.4042 340.579 391.0219 340.1794 393 343.9833 C395.6009 348.9851 395 360.9833 395 360.9833 "/>
<path id="2" d="M292 179.9833 C292 179.9833 287.9942 179.9459 288 179.9833 C288.2549 181.6403 291.8309 197.9231 296 205.9833 C296.9159 207.754 301.6599 207.8347 303 208.9833 C303.36 209.2919 302.5017 211.4398 303 211.9833 C306.1695 215.441 310.2896 216.1134 314 220.9833 C317.375 225.413 315.4501 228.788 319 232.9833 C325.2081 240.3201 329.9257 240.2696 336 246.9833 C337.8213 248.9964 336.5275 252.1427 338 253.9833 C339.3355 255.6528 342.2689 254.9468 344 256.9833 C349.6314 263.6085 349.4693 268.716 355 273.9833 C357.6152 276.474 361.1366 274.7107 365 276.9833 C368.6509 279.1309 369.7033 280.4106 372 283.9833 C373.6548 286.5575 372.3822 289.0419 374 290.9833 C376.1779 293.5968 379.453 293.2048 382 295.9833 C384.0135 298.1799 383.4639 301.2278 385 302.9833 C385.7182 303.8041 388.4729 303.2304 389 303.9833 C390.5397 306.1828 389.9295 309.36 392 312.9833 C393.5184 315.6405 394.3875 316.3209 397 317.9833 C399.3222 319.4611 401.1294 318.4528 403 319.9833 C405.6277 322.1333 405.5832 325.0499 408 326.9833 C409.3224 328.0412 411.3063 326.8051 413 327.9833 C421.4554 333.8653 421.8194 336.7537 431 342.9833 C435.1423 345.7942 440.8494 346.5315 441 346.9833 C441.1232 347.353 437.5682 354.2129 435 354.9833 C427.5707 357.2121 421.4679 353.8898 411 355.9833 C405.7228 357.0388 404.4052 360.5149 400 361.9833 C398.7575 362.3975 396.1092 361.3657 396 360.9833 C395.3373 358.6639 397.0914 352.8945 396 347.9833 C395.5056 345.7586 392 342.9833 392 342.9833 "/>
<path id="3" d="M378 331.9833 C378 331.9833 379.354 333.9833 380 333.9833 C384.8448 333.9833 390.9915 334.2739 395 331.9833 C397.9088 330.3212 401.0682 322.87 401 321.9833 C400.9747 321.6544 394 318.9833 394 318.9833 "/>
<path id="4" d="M218 52.9833 C218 52.9833 214.5117 57.3319 213 61.9833 C208.2195 76.6927 210.2551 78.3857 205 92.9833 C201.4945 102.7208 198.2917 102.3139 195 111.9833 C190.586 124.9493 193.0254 126.6685 189 139.9833 C186.689 147.6274 183.1821 147.6542 182 154.9833 C178.5198 176.5605 179 201.9833 179 201.9833 "/>
<path id="5" d="M229 230.9833 C229 230.9833 230.925 233.9623 232 233.9833 C248.8548 234.3138 270.2241 233.1804 280 231.9833 C280.3019 231.9464 279.985 229.066 281 227.9833 C286.1651 222.4739 289.5162 222.1123 295 215.9833 C297.1653 213.5633 296.4662 210.5171 298 208.9833 C298.9203 208.0631 302.5456 208.5286 303 207.9833 C303.4398 207.4556 303.2155 203.5221 303 202.9833 C302.9655 202.8971 301 202.9833 301 202.9833 "/>
<path id="6" d="M247 63.9833 C247 63.9833 243.2107 64.5133 242 65.9833 C237.5648 71.3689 238.3149 75.6685 233 80.9833 C227.6851 86.2982 222.8656 84.3805 218 89.9833 C208.1409 101.3363 209.6209 105.7991 200 118.9833 C196.6737 123.5416 193.3061 123.6523 191 126.9833 C190.1897 128.1537 191.4237 131.5596 191 131.9833 C190.4068 132.5765 185.7614 131.9681 185 132.9833 C182.3005 136.5827 183.1276 141.8902 179 147.9833 C173.3359 156.3446 169.7773 156.167 164 163.9833 C162.1917 166.4299 163.2892 169.823 162 170.9833 C160.4778 172.3533 154 172.9833 154 172.9833 "/>
<path id="7" d="M269 87.9833 C269 87.9833 264.0836 88.659 263 89.9833 C261.2036 92.179 262.3053 95.9688 260 98.9833 C256.8062 103.1598 253.1634 103.2448 250 106.9833 C248.8765 108.3111 250.0579 110.661 249 111.9833 C247.0666 114.4001 244.3312 113.9349 242 116.9833 C232.1985 129.8007 230.9113 135.6643 223 145.9833 C222.2615 146.9466 219.4558 146.1731 219 146.9833 C213.5484 156.6751 210.2832 162.4273 205 177.9833 C201.5485 188.146 201.3317 199.0356 201 199.9833 C200.9865 200.0218 198 197.9833 198 197.9833 "/>
<path id="8" d="M297 117.9833 C297 117.9833 288.733 119.4326 286 121.9833 C283.5267 124.2917 283.4137 129.9638 282 131.9833 C281.7681 132.3147 279.1564 131.7487 279 131.9833 C278.4785 132.7655 279.1045 136.6027 278 137.9833 C276.4407 139.9325 273.9599 139.5458 271 141.9833 C265.7568 146.3013 264.1146 147.9343 261 151.9833 C260.4719 152.6699 261.4171 154.6358 261 154.9833 C258.0247 157.4628 253.5396 157.9778 249 161.9833 C245.9883 164.6407 244.297 169.0923 244 169.9833 C243.9898 170.0141 246.0017 170.9825 246 170.9833 C245.9955 170.9856 242.367 170.5246 242 170.9833 C240.4863 172.8755 240.2314 177.6363 238 180.9833 C237.1779 182.2165 235.111 181.616 234 182.9833 C229.49 188.5341 228.5073 189.9688 225 196.9833 C223.2938 200.3958 224.3826 202.679 223 204.9833 C222.3388 206.0854 219.5843 205.9122 219 206.9833 C217.5901 209.5681 218.4226 213.7478 217 215.9833 C216.2824 217.111 212 217.9833 212 217.9833 "/>
<path id="9" d="M308 151.9833 C308 151.9833 298.8555 165.1569 289 172.9833 C283.54 177.3192 277.0923 176.9218 274 178.9833 C273.566 179.2727 274.6831 181.7879 274 182.9833 C271.5116 187.338 270.0409 189.5197 266 192.9833 C264.1189 194.5957 261.4864 193.6827 260 194.9833 C258.7773 196.0532 258.476 199.8048 258 199.9833 C257.3551 200.2252 253.7841 197.601 252 197.9833 C249.0952 198.6058 246.21 200.0934 244 202.9833 C240.8546 207.0966 241.2434 213.8617 239 214.9833 C234.6152 217.1757 218 215.9833 218 215.9833 "/>
<path id="10" d="M189 63.9833 C189 63.9833 184.9453 74.5206 181 79.9833 C179.9835 81.3908 176.7877 80.6944 176 81.9833 C172.9357 86.9976 174.0987 91.3799 170 97.9833 C165.7508 104.8292 162.8183 104.1811 158 110.9833 C154.7411 115.5841 156.0974 118.1712 153 121.9833 C150.6352 124.8939 146.2065 124.5703 145 126.9833 C142.8551 131.2732 143.2342 141.1636 143 141.9833 C142.9936 142.0059 141 140.9833 141 140.9833 "/>
<path id="11" d="M176 73.9833 C176 73.9833 194.5213 84.143 212 86.9833 C232.1788 90.2624 234.7162 85.159 256 86.9833 C268.8256 88.0827 282 92.9833 282 92.9833 "/>
<path id="12" d="M163 91.9833 C163 91.9833 167.3972 91.8177 169 92.9833 C171.4042 94.7319 171.6248 98.5217 174 99.9833 C176.1985 101.3363 178.8023 99.7043 182 100.9833 C185.4261 102.3538 185.2727 104.4438 189 105.9833 C207.4129 113.5887 209.2532 114.7342 228 119.9833 C232.8046 121.3286 234.417 119.124 239 119.9833 C241.3175 120.4179 241.7465 122.8356 244 122.9833 C268.3119 124.5776 276.2936 122.7779 300 123.9833 C301.3118 124.05 303.0074 125.9809 303 125.9833 C302.9714 125.9929 294 125.9833 294 125.9833 "/>
<path id="13" d="M146 121.9833 C146 121.9833 149.1065 122.9112 150 123.9833 C150.8097 124.955 150.5672 127.8808 151 127.9833 C159.486 129.9932 170.5181 128.925 188 132.9833 C197.5549 135.2014 197.6015 138.8948 207 140.9833 C218.9617 143.6415 221.7324 140.6635 233 142.9833 C236.8521 143.7764 237.1891 147.402 241 147.9833 C263.4454 151.4072 266.9112 149.4319 292 151.9833 C296.0036 152.3905 297.2372 152.4764 300 153.9833 C301.5748 154.8423 303 157.7496 303 157.9833 C303 158.0418 300 158.9833 300 158.9833 "/>
<path id="14" d="M145 157.9833 C145 157.9833 168.5605 158.2969 183 160.9833 C185.2208 161.3965 185.8344 165.6136 188 165.9833 C201.4445 168.2787 207.2919 164.8683 224 167.9833 C235.336 170.0968 235.7893 175.2039 247 176.9833 C265.4295 179.9087 286.1696 177.7635 287 177.9833 C287.0801 178.0045 281 185.9833 281 185.9833 "/>
<path id="15" d="M173 194.9833 C173 194.9833 178.1436 198.5418 183 198.9833 C214.5238 201.8491 218.9046 199.1193 250 201.9833 C254.3301 202.3822 254.6382 205.3602 259 205.9833 C270.9135 207.6853 272.511 205.5957 285 206.9833 C289.9425 207.5325 295 209.9833 295 209.9833 "/>
</g>
</g>
</svg>
