<?xml version="1.0" encoding="utf-8"?>
<!DOCTYPE svg PUBLIC "-//W3C//DTD SVG 1.1//EN" "http://www.w3.org/Graphics/SVG/1.1/DTD/svg11.dtd">
<svg viewBox="0 0 800 800" preserveAspectRatio="xMinYMin meet" xmlns="http://www.w3.org/2000/svg" version="1.1">
<g fill="none" stroke="black" stroke-linecap="round" stroke-linejoin="round" stroke-width="2.741">
<g transform="translate(87.52,167.4186) scale(1.0945) translate(-20,-43.4167)">
<path id="0" d="M238 240.4167 C238 240.4167 239.9239 213.0718 245 188.4167 C246.6566 180.3702 247.2844 179.285 252 172.4167 C269.6276 146.7417 269.578 144.0988 291 121.4167 C311.1077 100.1262 313.3445 100.6378 337 82.4167 C350.0238 72.3848 350.4825 71.4554 365 64.4167 C382.7037 55.8331 384.1569 55.706 403 50.4167 C411.7908 47.9491 412.5577 48.5265 422 48.4167 C455.25 48.03 457.7722 45.5534 489 49.4167 C503.5899 51.2216 506.6796 52.8004 519 60.4167 C532.13 68.5334 533.4611 71.0334 544 83.4167 C552.7512 93.6993 553.9361 95.0608 559 107.4167 C565.9033 124.2607 567.0705 126.1744 569 144.4167 C572.4022 176.5826 571.7125 178.8791 570 211.4167 C569.2757 225.1787 568.5567 226.5059 564 239.4167 C559.8794 251.0918 558.9236 251.7166 552 262.4167 C542.6406 276.8813 542.807 278.8458 531 290.4167 C518.9151 302.2599 516.824 302.5854 502 311.4167 C494.0827 316.1333 493.1775 316.147 484 318.4167 C447.2748 327.4992 446.0852 331.0065 409 334.4167 C360.9893 338.8314 358.5586 331.3039 310 334.4167 C281.7276 336.229 280.3477 337.6641 253 344.4167 C240.8278 347.4222 240.3293 348.4539 229 354.4167 C212.1487 363.2858 211.9188 363.6481 196 374.4167 C161.0532 398.0572 162.1939 401.0821 127 423.4167 C110.9007 433.6335 108.2815 430.5491 92 440.4167 C75.8492 450.205 76.3585 453.4336 61 463.4167 C57.34 465.7957 56.3744 465.948 52 466.4167 C43.0836 467.372 38.4882 468.5728 33 466.4167 C29.1521 464.905 26.0344 460.8417 24 455.4167 C20.8688 447.0668 18.4142 437.2711 21 434.4167 C40.3017 413.1096 62.2783 403.7354 101 370.4167 C148.0954 329.8927 145.6722 324.0716 193 286.4167 C212.3357 271.0328 217.5951 274.0677 238 261.4167 C240.941 259.5933 242.4155 258.1442 243 255.4167 C244.8361 246.8483 244 233.4167 244 233.4167 "/>
<path id="1" d="M20 436.4167 C20 436.4167 36.7608 448.8149 48 460.4167 C50.3976 462.8916 51 468.4167 51 468.4167 "/>
<path id="2" d="M30 419.4167 C30 419.4167 35.7745 420.5944 39 423.4167 C46.7089 430.162 47.6433 431.718 54 440.4167 C56.7106 444.1259 56.9402 444.9657 58 449.4167 C59.3031 454.8899 59 461.4167 59 461.4167 "/>
<path id="3" d="M51 417.4167 C51 417.4167 58.2639 417.9358 63 420.4167 C67.6032 422.8279 69.5147 424.0675 72 428.4167 C76.5383 436.3587 79 448.4167 79 448.4167 "/>
<path id="4" d="M64 402.4167 C64 402.4167 69.8253 403.0311 74 405.4167 C83.0622 410.5951 83.7236 411.5797 92 418.4167 C94.8673 420.7853 96.2096 421.7294 97 424.4167 C98.1638 428.3735 97 435.4167 97 435.4167 "/>
<path id="5" d="M81 388.4167 C81 388.4167 90.8055 392.0874 98 397.4167 C103.5169 401.5033 103.1549 402.8261 108 408.4167 C109.626 410.2928 110.7356 410.6541 111 412.4167 C111.9506 418.7541 111 428.4167 111 428.4167 "/>
<path id="6" d="M99 374.4167 C99 374.4167 126.6689 384.2654 141 394.4167 C145.0612 397.2934 145.2497 401.7072 147 408.4167 C148.012 412.2962 147 417.4167 147 417.4167 "/>
<path id="7" d="M245 255.4167 C245 255.4167 245.7026 258.2925 245 259.4167 C241.7944 264.5457 238.9327 264.9277 235 271.4167 C219.2823 297.351 204.7448 325.2261 205 325.4167 C207.7857 327.4971 314 330.4167 314 330.4167 "/>
<path id="8" d="M245 259.4167 C245 259.4167 245.514 269.6701 249 277.4167 C253.9825 288.4888 257.1923 288.5272 263 299.4167 C264.787 302.7673 264.1977 306.133 265 307.4167 C265.1626 307.6769 267.4956 306.9123 268 307.4167 C273.5485 312.9652 274.8274 318.73 283 325.4167 C289.973 331.1218 292.1894 331.1535 301 334.4167 C304.8699 335.85 310 335.4167 310 335.4167 "/>
<path id="9" d="M249 279.4167 C249 279.4167 231.2092 291.5164 217 305.4167 C208.9381 313.3033 203 324.4167 203 324.4167 "/>
<path id="10" d="M247 259.4167 C247 259.4167 266.9046 258.8766 285 260.4167 C289.3975 260.7909 289.6621 263.2414 294 263.4167 C336.8213 265.1468 339.8441 262.4096 384 264.4167 C393.8966 264.8665 394.0145 267.5642 404 268.4167 C434.5612 271.0256 435.0024 270.5496 466 271.4167 C506.4561 272.5483 547 272.4167 547 272.4167 "/>
<path id="11" d="M247 246.4167 C247 246.4167 316.8062 247.6235 386 246.4167 C402.4534 246.1297 402.5186 243.893 419 243.4167 C488.7666 241.4003 559 241.4167 559 241.4167 "/>
<path id="12" d="M235 233.4167 C235 233.4167 390.5281 234.2435 528 232.4167 C531.772 232.3665 532.0943 229.8506 536 229.4167 C549.1751 227.9528 564 228.4167 564 228.4167 "/>
<path id="13" d="M248 211.4167 C248 211.4167 361.8557 211.8043 465 210.4167 C467.8645 210.3781 468.1134 208.5108 471 208.4167 C511.9452 207.0815 514.2604 208.6615 557 207.4167 C565.4746 207.1698 569.0164 206.5241 574 205.4167 C574.4127 205.325 575 203.4167 575 203.4167 "/>
<path id="14" d="M243 188.4167 C243 188.4167 373.5961 191.3195 502 187.4167 C536.8353 186.3578 572 178.4167 572 178.4167 "/>
<path id="15" d="M263 167.4167 C263 167.4167 397.403 167.614 531 165.4167 C548.9683 165.1211 550.8334 165.5124 567 162.4167 C572.37 161.3884 578 156.4167 578 156.4167 "/>
<path id="16" d="M275 146.4167 C275 146.4167 421.729 148.1247 563 145.4167 C575.3093 145.1807 588 140.4167 588 140.4167 "/>
<path id="17" d="M296 126.4167 C296 126.4167 409.3294 127.7971 517 126.4167 C523.3523 126.3352 523.5514 123.8524 530 123.4167 C559.8604 121.3991 591 121.4167 591 121.4167 "/>
<path id="18" d="M307 108.4167 C307 108.4167 389.8363 108.236 472 105.4167 C491.4767 104.7484 491.5217 102.3715 511 101.4167 C542.3319 99.8808 574 100.4167 574 100.4167 "/>
<path id="19" d="M336 92.4167 C336 92.4167 427.0116 94.8326 516 92.4167 C536.3501 91.8642 557 86.4167 557 86.4167 "/>
<path id="20" d="M361 73.4167 C361 73.4167 444.9029 75.908 513 73.4167 C518.4744 73.2164 525 67.4167 525 67.4167 "/>
<path id="21" d="M394 60.4167 L527 59.4167 "/>
<path id="22" d="M254 284.4167 L515 288.4167 "/>
<path id="23" d="M282 297.4167 C282 297.4167 292.0907 300.2709 302 300.4167 C392.9653 301.7544 395.0347 299.0789 486 300.4167 C495.9093 300.5624 506 303.4167 506 303.4167 "/>
<path id="24" d="M286 312.4167 L483 314.4167 "/>
<path id="25" d="M308 322.4167 C308 322.4167 371.182 322.7854 426 325.4167 C429.3148 325.5758 433 328.4167 433 328.4167 "/>
<path id="26" d="M260 164.4167 C260 164.4167 261.6164 189.7085 260 214.4167 C258.1425 242.8103 255.5141 243.0437 253 271.4167 C252.0401 282.2497 253 293.4167 253 293.4167 "/>
<path id="27" d="M294 122.4167 C294 122.4167 296.3226 207.7064 295 284.4167 C294.9015 290.1322 291.7781 290.5031 291 296.4167 C289.3768 308.7532 290 322.4167 290 322.4167 "/>
<path id="28" d="M307 103.4167 C307 103.4167 310.642 119.927 312 136.4167 C314.1202 162.1615 313.4953 162.4263 314 188.4167 C314.4946 213.8882 314.9017 213.9879 314 239.4167 C312.4056 284.3794 309 329.4167 309 329.4167 "/>
<path id="29" d="M271 143.4167 C271 143.4167 275.3036 163.9885 276 184.4167 C278.2842 251.4187 277 319.4167 277 319.4167 "/>
<path id="30" d="M339 93.4167 C339 93.4167 342.2145 101.9185 343 110.4167 C347.6422 160.6366 347.6997 161.4825 350 212.4167 C351.1915 238.8007 350.6943 239.0345 350 265.4167 C349.698 276.8917 349.4252 277.0147 348 288.4167 C346.9349 296.9375 345.0047 305.4013 345 305.4167 C344.999 305.4198 344 301.4167 344 301.4167 "/>
<path id="31" d="M358 68.4167 C358 68.4167 359.8872 96.4365 360 124.4167 C360.3868 220.3328 359 316.4167 359 316.4167 "/>
<path id="32" d="M386 50.4167 L386 319.4167 "/>
<path id="33" d="M416 54.4167 L415 320.4167 "/>
<path id="34" d="M453 51.4167 C453 51.4167 455.4544 144.6054 453 235.4167 C452.491 254.2512 449.0269 254.4143 447 273.4167 C445.0479 291.7174 445 310.4167 445 310.4167 "/>
<path id="35" d="M472 43.4167 C472 43.4167 471.8615 187.5434 470 330.4167 C469.8701 340.3851 468.0009 350.4158 468 350.4167 C467.9995 350.4172 466 334.4167 466 334.4167 "/>
<path id="36" d="M486 48.4167 L488 319.4167 "/>
<path id="37" d="M511 75.4167 L513 280.4167 "/>
<path id="38" d="M538 86.4167 L538 247.4167 "/>
<path id="39" d="M555 108.4167 L555 268.4167 "/>
</g>
</g>
</svg>
