<?xml version="1.0" encoding="utf-8"?>
<!DOCTYPE svg PUBLIC "-//W3C//DTD SVG 1.1//EN" "http://www.w3.org/Graphics/SVG/1.1/DTD/svg11.dtd">
<svg viewBox="0 0 800 800" preserveAspectRatio="xMinYMin meet" xmlns="http://www.w3.org/2000/svg" version="1.1">
<g fill="none" stroke="black" stroke-linecap="round" stroke-linejoin="round" stroke-width="1.4785">
<g transform="translate(87.52,135.2036) scale(2.0291) translate(-86,-89)">
<path id="0" d="M249 193 C249 193 249.8408 175.1169 254 159 C257.6345 144.9162 258.3637 143.9961 265 131 C270.0612 121.0884 270.5522 120.105 278 112 C286.9764 102.2315 288.3697 100.1124 299 94 C306.4175 89.735 308.6711 89.8042 318 89 C336.7241 87.3859 339.2189 86.7774 357 89 C365.1496 90.0187 367.7956 91.1966 374 96 C381.5167 101.8194 383.6342 104.2684 388 113 C392.7296 122.4592 392.5553 124.6831 394 136 C395.4589 147.4283 396.127 149.1524 394 160 C391.4334 173.0897 390.1566 174.6869 384 187 C380.056 194.8881 378.9868 195.4145 373 202 C369.3644 205.9992 368.7852 206.4365 364 209 C355.2607 213.6818 354.6014 214.1196 345 217 C335.0396 219.9881 334.5315 219.2856 324 221 C313.0613 222.7807 312.8473 223.4576 302 224 C293.2095 224.4395 292.1205 225.1544 284 223 C268.8025 218.968 265.3886 217.6965 253 211 C249.588 209.1557 248.1041 206.7857 247 203 C245.155 196.6744 246 187 246 187 "/>
<path id="1" d="M246 187 C246 187 244.4919 201.6499 239 212 C232.4815 224.2848 230.1485 224.956 220 236 C213.4438 243.1347 212.8551 243.0152 205 249 C170.9813 274.919 171.2384 277.9348 136 300 C119.2357 310.4973 116.8482 309.2147 98 316 C92.5213 317.9723 85.9692 317.9479 86 318 C86.2104 318.3561 100.9444 327.6201 111 338 C115.0506 342.1813 116.4632 349.8993 117 350 C117.5409 350.1014 123.0909 346.0818 127 341 C137.6283 327.1832 135.3572 323.4744 147 311 C162.2154 294.6978 164.1199 294.3271 183 281 C206.1728 264.6427 207.0583 263.3206 232 251 C247.4114 243.3871 249.6962 246.6697 266 240 C282.323 233.3224 298 224 298 224 "/>
<path id="2" d="M244 207 C244 207 241.1241 208.7518 240 211 C230.3517 230.2967 221.0077 252.9776 221 253 C220.9985 253.0043 224.4609 247.1142 228 246 C247.2834 239.9293 275 236 275 236 "/>
<path id="3" d="M136 299 L148 305 "/>
<path id="4" d="M183 268 L191 277 "/>
<path id="5" d="M313 97 C313 97 331.2453 110.1205 347 125 C357.8748 135.2707 356.4367 137.191 367 148 C377.7947 159.0457 390 169 390 169 "/>
<path id="6" d="M292 100 C292 100 298.42 109.7094 306 118 C314.2339 127.0058 314.341 127.5304 324 135 C351.5092 156.2738 381 176 381 176 "/>
<path id="7" d="M279 111 C279 111 280.8728 115.9844 284 119 C294.1635 128.8006 294.9092 129.4728 307 138 C342.1605 162.7974 379 186 379 186 "/>
<path id="8" d="M273 125 C273 125 293.2501 142.4229 315 157 C339.9482 173.7206 342.1137 171.6567 367 188 C375.0952 193.3163 382 201 382 201 "/>
<path id="9" d="M259 127 C259 127 284.4289 151.9747 312 172 C331.1236 185.8898 334.3644 183.4332 354 196 C358.4913 198.8744 362 204 362 204 "/>
<path id="10" d="M258 141 C258 141 273.713 152.6931 290 162 C297.7734 166.4419 299.6574 164.2273 307 169 C328.7381 183.1298 350 201 350 201 "/>
<path id="11" d="M252 145 C252 145 263.6863 157.2458 277 166 C299.5576 180.8324 301.6456 178.7279 325 193 C337.4517 200.6094 349 210 349 210 "/>
<path id="12" d="M253 165 C253 165 254.6298 163.8149 255 164 C268.8222 170.9111 277.4869 175.2877 299 188 C321.3871 201.2287 343 216 343 216 "/>
<path id="13" d="M254 177 C254 177 265.437 179.7152 275 185 C302.7584 200.3402 330 219 330 219 "/>
<path id="14" d="M251 189 C251 189 259.3307 191.4329 267 195 C280.6775 201.3616 282.1557 201.7406 294 209 C296.3517 210.4414 295.7015 212.723 298 214 C307.684 219.38 321 224 321 224 "/>
<path id="15" d="M245 194 C245 194 254.5115 195.7877 262 200 C277.735 208.851 293 221 293 221 "/>
<path id="16" d="M307 101 C307 101 320.7987 115.0561 336 127 C362.5803 147.8845 391 167 391 167 "/>
<path id="17" d="M324 95 L387 144 "/>
<path id="18" d="M336 93 L390 136 "/>
<path id="19" d="M347 95 L384 125 "/>
<path id="20" d="M326 220 C326 220 331.4341 221.2967 335 220 C346.2381 215.9134 359 208 359 208 "/>
<path id="21" d="M321 93 C321 93 300.0896 105.2519 282 119 C275.806 123.7075 276.9393 126.0936 271 131 C265.9498 135.1719 259 138 259 138 "/>
<path id="22" d="M349 95 C349 95 344.6346 93.9098 342 95 C331.851 99.1996 329.8243 99.7682 320 107 C294.4523 125.8059 295.5052 129.3201 270 148 C260.7397 154.7822 249 159 249 159 "/>
<path id="23" d="M364 98 C364 98 354.5088 106.8734 344 114 C311.2442 136.2137 309.5123 134.5181 277 157 C262.8123 166.8107 263.7043 168.7218 250 179 C245.9832 182.0126 245.1464 182.2723 241 184 C239.8777 184.4676 238.0573 184.0573 238 184 C237.9809 183.9809 239 182 239 182 "/>
<path id="24" d="M382 106 C382 106 356.6675 125.7599 333 147 C317.8205 160.6226 319.8649 164.8568 304 176 C279.5542 193.1703 249 206 249 206 "/>
<path id="25" d="M388 124 C388 124 368.7656 137.2626 353 152 C346.5515 158.028 348.1445 160.4003 342 167 C334.9657 174.5554 334.5921 175.1696 326 181 C307.0348 193.8693 305.0911 192.3999 286 205 C280.5503 208.5968 281.025 210.7485 276 214 C273.3661 215.7043 269 216 269 216 "/>
<path id="26" d="M388 151 C388 151 365.4265 167.0578 345 185 C328.6762 199.3384 329.8501 201.6594 314 216 C309.3472 220.2097 307.9287 220.5357 303 223 C301.9803 223.5099 300.0067 223.027 300 223 C299.9685 222.8742 302 219 302 219 "/>
<path id="27" d="M391 167 C391 167 377.9081 183.7796 363 197 C352.0585 206.7029 339.2627 213.4172 338 214 C337.9497 214.0232 337 209 337 209 "/>
<path id="28" d="M378 103 C378 103 371.874 104.0945 368 107 C358.8366 113.8726 359.6162 116.455 350 124 C327.3923 141.7384 327.2395 142.4867 303 158 C277.5478 174.2894 273.5527 175.6038 250 188 C248.6304 188.7208 246 188 246 188 "/>
</g>
</g>
</svg>
