<?xml version="1.0" encoding="utf-8"?>
<!DOCTYPE svg PUBLIC "-//W3C//DTD SVG 1.1//EN" "http://www.w3.org/Graphics/SVG/1.1/DTD/svg11.dtd">
<svg viewBox="0 0 800 800" preserveAspectRatio="xMinYMin meet" xmlns="http://www.w3.org/2000/svg" version="1.1">
<g fill="none" stroke="black" stroke-linecap="round" stroke-linejoin="round" stroke-width="2.0497">
<g transform="translate(87.52,293.1567) scale(1.4636) translate(-45,-122)">
<path id="0" d="M55 222 C55 222 51.1318 202.2798 53 186 C54.3596 174.152 55.7051 171.1167 62 161 C68.5463 150.4792 71.0599 146.7652 81 141 C92.7656 134.1759 96.8293 133.5004 112 132 C140.543 129.1771 145.7204 129.48 172 132 C177.9879 132.5742 179.8301 134.6573 185 139 C191.5062 144.4652 190.2748 147.3957 197 153 C207.6088 161.8407 210.5177 163.0101 221 169 C222.2651 169.7229 224.0525 168.3051 225 169 C229.5166 172.3122 230.2545 177.5869 236 180 C251.8904 186.674 255.9418 189.0028 275 190 C339.1077 193.3545 343.8041 191.8992 408 189 C418.746 188.5147 419.1924 184.2969 430 183 C443.3192 181.4017 444.7385 181.7062 458 183 C464.342 183.6187 470.1077 185.1516 471 187 C473.2128 191.5837 473.0691 206.0128 472 212 C471.8246 212.9821 468.8569 214.6639 466 215 C453.3554 216.4876 451.9955 215.7256 438 216 C426.5117 216.2253 425.3682 217.296 415 216 C410.7175 215.4647 410.0722 212.0458 406 212 C369.9976 211.5955 365.8893 214.6932 326 215 C301.0841 215.1917 298.4943 209.8973 276 213 C258.3883 215.4292 255.5232 219.7459 239 227 C236.7957 227.9678 237.022 230.255 235 231 C229.0506 233.1919 225.1244 231.0436 220 234 C214.5104 237.1671 214.8631 242.6243 209 246 C200.4781 250.9065 197.376 248.6312 187 253 C178.7692 256.4656 179.1212 259.4621 171 262 C156.3764 266.5699 154.8453 265.9772 139 268 C131.7461 268.926 129.9272 268.9359 124 268 C122.2322 267.7209 121.894 265.3092 120 265 C100.6728 261.8445 90.1398 266.8019 75 260 C63.5662 254.8631 59.3927 247.1485 51 234 C45.9566 226.0987 45.9951 223.2828 45 213 C43.1094 193.4641 41.0838 189.1335 45 172 C48.1193 158.3529 51.371 153.546 61 143 C69.9954 133.1479 74.7215 130.2502 87 126 C97.1457 122.488 100.6199 126.4149 113 125 C117.4292 124.4938 117.6484 122.3108 122 122 C137.5846 120.8868 142.3011 118.763 155 122 C163.2019 124.0907 172.9773 134.9547 173 135 C173.0072 135.0144 166.7427 133.604 161 134 C152.7179 134.5712 150.7435 133.4773 144 137 C119.769 149.658 94 169 94 169 "/>
<path id="1" d="M200 164 C200 164 203.9187 170.9755 206 178 C207.7931 184.0516 207.7131 184.5442 208 191 C208.7015 206.7833 211.4402 210.6152 208 223 C205.1869 233.1272 199.5968 233.7855 193 245 C189.8023 250.4361 188 257 188 257 "/>
<path id="2" d="M95 162 C95 162 107.1933 154.8346 118 151 C121.2135 149.8597 126 151 126 151 "/>
<path id="3" d="M55 219 C55 219 54.3991 222.3323 55 223 C57.1183 225.3537 64 229 64 229 "/>
<path id="4" d="M58 223 C58 223 58.274 233.3867 61 238 C63.0981 241.5506 65.7044 242.9165 71 245 C94.9528 254.4241 97.1376 258.0865 122 262 C148.4021 266.1559 164.0546 265.6231 179 262 C182.3768 261.1814 188 246 188 246 "/>
<path id="5" d="M221 188 C221 188 259.9888 200.9931 260 201 C260.0043 201.0027 248.6898 198.5985 242 201 C232.3274 204.4722 221.146 215.1095 221 215 C220.7114 214.7836 222 186 222 186 "/>
<path id="6" d="M419 187 L421 211 "/>
<path id="7" d="M129 135 C129 135 125.3679 139.5862 121 142 C107.112 149.675 104.7887 147.9066 91 156 C82.4742 161.0043 82.8506 164.2896 75 169 C71.6354 171.0187 66 171 66 171 "/>
<path id="8" d="M110 139 L64 154 "/>
<path id="9" d="M174 143 C174 143 165.4471 142.7485 158 145 C123.351 155.4753 122.4641 156.2212 88 169 C78.2429 172.6178 69 178 69 178 "/>
<path id="10" d="M177 153 C177 153 166.7564 152.5482 158 155 C142.618 159.307 142.2124 162.6053 127 167 C120.6934 168.8219 119.4111 166.1941 113 168 C85.01 175.8845 56 187 56 187 "/>
<path id="11" d="M180 169 C180 169 162.5326 171.8692 146 177 C119.3103 185.283 119.1142 189.7682 93 196 C76.8972 199.8427 58 198 58 198 "/>
<path id="12" d="M189 186 C189 186 151.7679 199.5846 115 207 C93.5672 211.3226 70 210 70 210 "/>
<path id="13" d="M195 205 C195 205 187.1213 205.6262 180 208 C142.613 220.4623 142.4587 222.7766 105 235 C95.4777 238.1073 85 239 85 239 "/>
<path id="14" d="M187 229 C187 229 180.49 228.5027 175 230 C164.6301 232.8282 164.5916 235.1114 154 238 C142.9931 241.0019 131 242 131 242 "/>
<path id="15" d="M81 153 C81 153 82.0181 164.3095 81 175 C80.0568 184.9037 77.7332 185.1023 77 195 C75.7718 211.5805 77 229 77 229 "/>
<path id="16" d="M110 143 C110 143 110.6721 150.0157 109 156 C101.4413 183.052 97.1073 183.9993 91 211 C87.9784 224.3589 90 240 90 240 "/>
<path id="17" d="M128 143 L129 242 "/>
<path id="18" d="M158 139 L158 255 "/>
<path id="19" d="M179 154 L180 247 "/>
<path id="20" d="M171 137 C171 137 170.7518 144.6715 173 147 C181.3107 155.6075 199 166 199 166 "/>
</g>
</g>
</svg>
