<?xml version="1.0" encoding="utf-8"?>
<!DOCTYPE svg PUBLIC "-//W3C//DTD SVG 1.1//EN" "http://www.w3.org/Graphics/SVG/1.1/DTD/svg11.dtd">
<svg viewBox="0 0 800 800" preserveAspectRatio="xMinYMin meet" xmlns="http://www.w3.org/2000/svg" version="1.1">
<g fill="none" stroke="black" stroke-linecap="round" stroke-linejoin="round" stroke-width="1.0369">
<g transform="translate(165.64,87.52) scale(2.8933) translate(-300,-159)">
<path id="0" d="M380 271 C380 271 389.9412 265.9117 400 263 C408.5049 260.5381 410.3932 263.0427 418 260 C426.4785 256.6086 428.8507 255.7349 435 249 C448.4075 234.3156 448.3139 231.3128 460 214 C461.4305 211.8807 461.9144 211.3123 462 209 C462.3707 198.9915 464.4177 194.6492 461 187 C455.8329 175.4355 450.455 168.6185 441 162 C435.4278 158.0995 430.9382 159.4809 421 159 C400.2802 157.9974 397.9909 157.2084 379 159 C373.8129 159.4893 370.1143 161.0929 368 164 C364.6438 168.6148 365.9368 175.1264 363 181 C362.1717 182.6567 359.1001 182.2398 358 184 C355.1038 188.6339 353.6121 190.757 353 197 C351.2759 214.5856 351.7592 216.388 353 235 C353.7271 245.906 357 257 357 257 "/>
<path id="1" d="M357 257 C357 257 344.7085 276.6803 336 297 C329.9828 311.0402 333.2988 313.3527 327 327 C318.7577 344.8584 316.6112 346.0832 306 362 C304.4119 364.3821 302.1816 364.3458 301 366 C300.5318 366.6554 301.0002 369.0002 301 369 C300.9997 368.9997 299.8647 365.6764 300 365 C300.0498 364.7508 302 364 302 364 "/>
<path id="2" d="M301 367 C301 367 311.6234 367.197 313 368 C313.3829 368.2234 312.4925 373.2895 313 374 C313.3867 374.5413 318 375 318 375 "/>
<path id="3" d="M318 374 C318 374 320.578 359.1294 326 348 C329.3295 341.1658 332.6802 342.001 337 335 C346.8472 319.0407 345.1528 316.9593 355 301 C359.3198 293.999 362.8248 294.3503 366 288 C368.4028 283.1944 366.0693 277.7352 368 275 C369.4815 272.9012 378 271 378 271 "/>
<path id="4" d="M378 271 C378 271 366.8686 271.661 365 270 C362.5335 267.8075 361.5886 257.9786 360 255 C359.8561 254.7302 357 255 357 255 "/>
<path id="5" d="M393 165 C393 165 382.3124 164.7375 376 166 C374.6788 166.2642 373.6314 167.3764 373 169 C367.3509 183.5262 364.525 185.7981 362 202 C358.7883 222.6085 359.3319 228.6517 361 246 C361.3259 249.3891 363.6317 251.4242 367 254 C371.1204 257.1509 372.7379 257.9881 378 259 C384.5988 260.269 385.9175 260.1183 393 259 C404.3072 257.2147 408.0574 258.2349 416 253 C426.6548 245.9775 429.526 241.2111 437 230 C440.03 225.455 437.6131 222.7286 440 217 C442.3311 211.4054 445.2284 211.3149 447 206 C448.7716 200.6851 449.6922 196.775 448 193 C444.9968 186.3005 441.1682 182.514 434 177 C429.8919 173.8399 427.1221 175.6959 422 173 C418.3113 171.0586 418.2388 167.9069 415 167 C408.1791 165.0901 397 166 397 166 "/>
<path id="6" d="M384 166 C384 166 375.3116 179.426 370 193 C366.6367 201.5951 368.8104 203.0067 366 212 C363.9356 218.6062 360 225 360 225 "/>
<path id="7" d="M395 167 C395 167 384.7912 198.5711 373 229 C369.4075 238.2711 364 247 364 247 "/>
<path id="8" d="M406 167 C406 167 403.5617 182.5236 398 196 C390.8668 213.2843 388.0409 212.7269 380 230 C374.6514 241.4896 371 254 371 254 "/>
<path id="9" d="M420 175 C420 175 416.3598 178.8355 415 183 C408.705 202.2783 410.7536 204.3825 404 224 C400.465 234.2683 399.8258 234.7758 394 244 C388.0577 253.4087 380 262 380 262 "/>
<path id="10" d="M433 177 C433 177 424.9117 198.1765 415 218 C409.053 229.8941 406.3544 229.3988 401 241 C397.7566 248.0274 397 257 397 257 "/>
<path id="11" d="M443 187 C443 187 435.9377 211.4683 426 233 C421.3861 242.9968 413 252 413 252 "/>
<path id="12" d="M389 166 C389 166 402.3797 166.0576 409 169 C412.4136 170.5172 413.1985 175.7079 416 178 C416.7802 178.6383 419.7221 177.6295 420 178 C420.88 179.1734 420.1996 184.4451 422 186 C427.9616 191.1486 437.0369 193.2776 442 197 C442.5271 197.3953 441.7692 200.8462 442 201 C442.5192 201.3462 448 201 448 201 "/>
<path id="13" d="M385 167 C385 167 399.1862 182.4032 415 194 C428.4851 203.8891 445 211 445 211 "/>
<path id="14" d="M376 175 C376 175 386.5597 180.1156 393 187 C399.9763 194.4575 398.1055 199.9412 405 206 C412.1566 212.2891 417.4715 210.1183 426 216 C430.5541 219.1408 434 226 434 226 "/>
<path id="15" d="M369 187 C369 187 372.6998 187.5141 374 189 C378.4614 194.0988 377.8714 197.615 383 203 C386.9709 207.1694 389.6717 205.8995 394 210 C398.5221 214.2841 397.54 216.54 402 221 C405.5211 224.5211 407.6935 223.3786 411 227 C417.5018 234.121 423 244 423 244 "/>
<path id="16" d="M363 196 C363 196 380.7461 213.0324 390 224 C390.7289 224.8639 389.2834 227.1401 390 228 C396.5689 235.8827 403.2556 240.2439 410 248 C410.5411 248.6223 410 251 410 251 "/>
<path id="17" d="M362 216 C362 216 365.4894 225.3057 371 231 C379.4422 239.7236 382.9562 238.6519 392 247 C395.1313 249.8904 395.098 253.098 397 255 C397.4389 255.4389 400 255 400 255 "/>
<path id="18" d="M364 235 C364 235 366.9906 238.7196 368 242 C368.7358 244.3913 367.0707 246.9379 368 248 C371.4462 251.9385 382 258 382 258 "/>
<path id="19" d="M331 322 C331 322 335.6374 327.7583 339 330 C340.0088 330.6725 343 330 343 330 "/>
<path id="20" d="M332 328 C332 328 321.8557 338.7815 315 350 C311.3899 355.9075 310 364 310 364 "/>
<path id="21" d="M331 334 C331 334 328.8702 345.5573 325 353 C323.3133 356.2436 318 359 318 359 "/>
<path id="22" d="M338 329 L314 366 "/>
<path id="23" d="M314 362 L321 363 "/>
<path id="24" d="M314 352 L324 352 "/>
<path id="25" d="M323 340 L334 342 "/>
</g>
</g>
</svg>
