<?xml version="1.0" encoding="utf-8"?>
<!DOCTYPE svg PUBLIC "-//W3C//DTD SVG 1.1//EN" "http://www.w3.org/Graphics/SVG/1.1/DTD/svg11.dtd">
<svg viewBox="0 0 800 800" preserveAspectRatio="xMinYMin meet" xmlns="http://www.w3.org/2000/svg" version="1.1">
<g fill="none" stroke="black" stroke-linecap="round" stroke-linejoin="round" stroke-width="0.85445">
<g transform="translate(87.52,105.0751) scale(3.511) translate(-262,-128)">
<path id="0" d="M329 181 C329 181 325.1366 183.1093 323 186 C317.0824 194.0061 315.0575 195.6615 312 204 C310.3348 208.5414 310.9338 211.2023 312 216 C312.6121 218.7542 313.6522 220.5709 316 222 C323.3236 226.4578 325.9163 227.4047 335 230 C338.8407 231.0974 340.2673 231.0665 344 230 C349.688 228.3749 355.6282 225.8126 356 224 C357.414 217.1068 356.2823 202.7763 352 191 C350.0905 185.7488 345.3124 182.4348 340 180 C336.2593 178.2855 328 180 328 180 "/>
<path id="1" d="M327 133 C327 133 310.3698 131.8093 300 135 C294.3385 136.742 292.5208 139.3072 288 145 C279.6869 155.4683 279.5895 156.7624 273 169 C269.2549 175.9552 268.5978 176.4468 267 184 C263.2624 201.6688 260.9412 204.8526 262 221 C262.71 231.8275 265.0383 234.4014 271 245 C278.0002 257.4448 279.3357 258.0887 289 269 C294.4474 275.1503 295.0357 276.3596 302 280 C315.8443 287.2368 318.1607 290.1451 333 292 C358.9688 295.2461 361.9054 292.5186 390 291 C398.451 290.5432 399.4707 290.7966 407 288 C416.0257 284.6476 418.2275 284.1375 425 278 C432.8126 270.9198 437.1959 267.6599 439 259 C443.38 237.9758 440 232.1594 440 206 C440 202.545 440.3993 201.7986 439 199 C429.6713 180.3425 429.5336 177.1972 417 160 C408.9595 148.9677 406.8226 145.5062 396 140 C381.913 132.8329 377.8438 133.4443 360 131 C342.2022 128.5619 339.9954 129.5953 323 130 C320.68 130.0552 318 132 318 132 "/>
<path id="2" d="M340 128 C340 128 340.3474 132.9577 339 137 C334.5727 150.2818 331.5262 150.7768 328 164 C325.8482 172.0694 327 182 327 182 "/>
<path id="3" d="M378 132 C378 132 374.7847 146.8978 368 158 C359.1142 172.5404 345 186 345 186 "/>
<path id="4" d="M354 210 C354 210 375.171 211.1224 395 210 C400.8857 209.6668 401.0475 207.5669 407 207 C421.5814 205.6113 437 206 437 206 "/>
<path id="5" d="M316 196 C316 196 309.7159 187.2534 302 182 C287.1611 171.8969 269 164 269 164 "/>
<path id="6" d="M312 216 C312 216 292.9626 225.9782 277 237 C272.9614 239.7886 270 245 270 245 "/>
<path id="7" d="M329 229 L330 291 "/>
<path id="8" d="M348 228 C348 228 351.1584 236.6838 356 244 C373.3902 270.2786 393 296 393 296 "/>
<path id="9" d="M412 156 C412 156 400.0401 160.7639 392 168 C381.1406 177.7735 380.6447 183.6878 372 192 C370.603 193.3433 368.265 191.7543 366 193 C359.2569 196.7087 352 203 352 203 "/>
<path id="10" d="M357 223 C357 223 360.3938 222.7953 362 224 C372.6151 231.9613 373.0283 235.3205 385 244 C392.5103 249.4449 393.3024 249.6548 402 253 C412.3325 256.974 414.2093 255.0837 424 259 C428.1731 260.6692 432 265 432 265 "/>
</g>
</g>
</svg>
