<?xml version="1.0" encoding="utf-8"?>
<!DOCTYPE svg PUBLIC "-//W3C//DTD SVG 1.1//EN" "http://www.w3.org/Graphics/SVG/1.1/DTD/svg11.dtd">
<svg viewBox="0 0 800 800" preserveAspectRatio="xMinYMin meet" xmlns="http://www.w3.org/2000/svg" version="1.1">
<g fill="none" stroke="black" stroke-linecap="round" stroke-linejoin="round" stroke-width="0.72485">
<g transform="translate(108.214,87.52) scale(4.1388) translate(-201,-152)">
<path id="0" d="M216 272 C216 272 209.4315 264.4348 206 257 C203.9142 252.4808 204.1909 251.4395 204 246 C203.2069 223.3973 200.2097 219.7639 204 200 C206.446 187.2459 210.2335 184.8186 218 173 C220.9852 168.4573 222.1129 167.4436 227 165 C241.8494 157.5753 244.5056 154.749 260 152 C272.5711 149.7696 277.9848 149.8433 289 154 C300.3994 158.3017 303.1667 161.9208 313 172 C322.1674 181.3965 323.4311 183.1661 329 195 C334.7942 207.3127 335.3606 209.2698 337 223 C339.2082 241.4933 341.2825 247.1238 337 262 C333.4345 274.3853 328.368 277.4122 318 289 C312.2455 295.4315 310.4318 295.9745 303 300 C299.4245 301.9367 298.426 301.8193 294 302 C274.5059 302.7957 269.574 305.9553 254 302 C243.4629 299.3239 241.5311 294.8167 231 286 C220.368 277.0987 211 266 211 266 "/>
<path id="1" d="M266 223 C266 223 271.2218 225.3139 272 227 C273.0346 229.2417 272.5586 235.3716 272 236 C271.5586 236.4966 265.492 237.0329 264 236 C261.9054 234.5499 260.405 231.215 259 227 C258.2097 224.6291 258.2938 221.908 259 221 C259.9939 219.7221 265.4694 217.7106 266 218 C266.8813 218.4807 270 227 270 227 "/>
<path id="2" d="M214 244 C214 244 207.2255 236.0467 206 229 C203.6823 215.673 204.1115 211.8487 206 198 C206.8418 191.827 208.478 191.0377 212 185 C215.3441 179.2672 215.4471 178.3252 220 174 C224.8367 169.4052 225.8878 168.0374 232 166 C245.3358 161.5547 247.1443 161.5107 262 160 C276.0742 158.5687 277.8683 158.6177 291 160 C295.266 160.4491 296.1966 161.3977 300 164 C305.2361 167.5826 306.0365 167.9217 310 173 C321.5972 187.8589 325.9007 189.7519 332 205 C336.3054 215.7634 334 233 334 233 "/>
<path id="3" d="M205 232 C205 232 204.8133 240.6576 208 246 C220.4104 266.8058 223.1736 268.1758 239 289 C241.9294 292.8545 242.2146 293.4764 246 296 C250.6507 299.1004 251.6647 300.2818 257 301 C275.8626 303.5392 280.0749 303.3814 298 303 C300.6538 302.9435 301.4297 301.9277 304 300 C313.1128 293.1654 316.133 292.9791 322 285 C327.0175 278.1762 324.9994 273.6679 329 266 C330.1672 263.7629 334 262 334 262 "/>
<path id="4" d="M336 222 C336 222 339.0261 243.1453 335 255 C331.8876 264.1644 327.038 266.2737 318 275 C313.0905 279.7402 312.2433 280.3243 306 283 C295.479 287.509 294.3258 288.6061 283 290 C263.0065 292.4607 254.8213 293.4391 241 291 C237.4426 290.3722 232 281 232 281 "/>
<path id="5" d="M206 238 C206 238 240.4968 239.4518 263 238 C265.0758 237.8661 268 234 268 234 "/>
<path id="6" d="M258 226 C258 226 255.8959 224.7243 255 225 C251.1603 226.1814 249.7945 229.3785 245 230 C225.0715 232.5833 201 232 201 232 "/>
<path id="7" d="M263 222 L204 208 "/>
<path id="8" d="M208 195 C208 195 222.7136 199.6732 236 206 C243.3094 209.4807 242.8248 212.0455 250 215 C258.9393 218.6809 270 220 270 220 "/>
<path id="9" d="M268 217 C268 217 257.9409 197.4345 251 178 C248.217 170.2077 248 161 248 161 "/>
<path id="10" d="M263 222 C263 222 248.591 198.113 241 176 C237.9746 167.1868 240 155 240 155 "/>
<path id="11" d="M266 226 C266 226 265.2331 223.0217 266 221 C275.4087 196.1953 278.7329 192.8526 288 168 C288.9085 165.5636 288 162 288 162 "/>
<path id="12" d="M269 221 C269 221 272.8645 213.1137 278 207 C283.0212 201.0224 285.5571 202.109 290 196 C296.9202 186.4847 302 174 302 174 "/>
<path id="13" d="M268 229 C268 229 262.4212 247.684 254 264 C246.7625 278.0226 236 291 236 291 "/>
<path id="14" d="M264 234 C264 234 257.9618 249.1387 250 262 C245.347 269.5164 244.129 270.5162 238 276 C235.58 278.1653 231 279 231 279 "/>
<path id="15" d="M303 175 L304 169 "/>
<path id="16" d="M267 226 C267 226 285.3562 225.78 301 221 C320.0196 215.1885 339 204 339 204 "/>
<path id="17" d="M268 215 C268 215 284.4241 215.2425 298 211 C314.9427 205.7054 332 195 332 195 "/>
<path id="18" d="M270 233 C270 233 286.4503 237.11 302 243 C319.2416 249.5309 336 258 336 258 "/>
<path id="19" d="M271 223 C271 223 285.2408 224.1482 298 228 C311.1223 231.9614 310.8919 234.5313 324 239 C332.5318 241.9086 342 243 342 243 "/>
<path id="20" d="M269 234 C269 234 270.0854 243.5324 274 250 C280.768 261.1818 285.9156 260.8893 292 272 C296.3428 279.9303 297 292 297 292 "/>
<path id="21" d="M276 235 C276 235 290.8096 252.2685 303 270 C306.8975 275.6691 309 283 309 283 "/>
<path id="22" d="M269 237 L270 293 "/>
<path id="23" d="M268 235 C268 235 268.3336 248.4836 266 261 C262.9316 277.458 257 294 257 294 "/>
</g>
</g>
</svg>
