<?xml version="1.0" encoding="utf-8"?>
<!DOCTYPE svg PUBLIC "-//W3C//DTD SVG 1.1//EN" "http://www.w3.org/Graphics/SVG/1.1/DTD/svg11.dtd">
<svg viewBox="0 0 800 800" preserveAspectRatio="xMinYMin meet" xmlns="http://www.w3.org/2000/svg" version="1.1">
<g fill="none" stroke="black" stroke-linecap="round" stroke-linejoin="round" stroke-width="1.3201">
<g transform="translate(87.52,94.3377) scale(2.2726) translate(-159,-84)">
<path id="0" d="M296 87 C296 87 284.3964 85.2849 273 85 C264.6072 84.7902 263.9799 84.575 256 86 C250.5584 86.9717 249.9347 87.2457 245 90 C228.9037 98.984 228.1748 99.2512 213 110 C204.4813 116.0341 203.2963 116.2346 197 124 C188.9814 133.8896 188.6787 135.0747 183 147 C173.8849 166.1417 172.9866 166.7951 167 187 C161.1967 206.5861 160.6647 207.7863 159 228 C157.2451 249.3097 157.3218 251.9138 160 272 C161.0276 279.7068 162.6419 280.8091 167 288 C172.3563 296.8379 172.5594 298.1174 180 305 C191.7859 315.9019 192.7102 318.1657 207 325 C236.8879 339.2942 239.6926 339.9539 272 349 C288.2708 353.5558 289.5656 351.6052 307 353 C314.4042 353.5923 314.8884 354.1853 322 353 C341.2014 349.7998 345.3539 351.8231 361 344 C377.7252 335.6374 379.6911 331.8024 394 317 C407.8879 302.6333 407.0213 300.7702 419 284 C424.451 276.3686 425.0281 276.2086 429 268 C432.3202 261.1383 433.2074 260.2919 434 253 C435.5808 238.457 435.8914 236.5905 434 222 C432.5414 210.7477 431.5196 209.7968 427 199 C422.7114 188.7551 422.1028 188.5357 416 179 C406.1957 163.6808 406.8807 162.4082 395 149 C372.4112 123.507 370.5903 119.5375 346 100 C337.2886 93.0786 333.6036 93.6777 322 91 C315.3254 89.4597 313.1029 92.5822 307 91 C301.3793 89.5428 295 84 295 84 "/>
<path id="1" d="M306 131 C306 131 277.0514 128.6172 256 129 C253.8703 129.0387 252.7989 130.0469 251 132 C236.1854 148.0844 234.2899 148.7264 221 167 C210.6871 181.1803 205.8923 183.5385 203 198 C198.0681 222.6597 200.7782 230.3379 203 257 C203.5084 263.1007 205.4704 264.0268 209 270 C211.8023 274.7424 211.8958 275.8225 216 279 C226.4643 287.1014 227.8655 289.281 240 294 C253.1514 299.1144 255.149 298.7959 270 300 C291.4339 301.7379 293.7248 302.4954 314 300 C324.1305 298.7532 326.7176 297.7977 335 292 C349.9145 281.5598 350.9621 279.2508 364 265 C371.9907 256.266 372.5022 254.5294 378 245 C379.2878 242.7678 379 241.9437 379 239 C379 222.3192 381.699 220.0013 378 205 C373.3349 186.0803 372.0745 181.8207 361 166 C349.3815 149.4022 344.7441 147.8149 329 135 C325.0784 131.808 323.3279 131.6875 318 131 C308.7471 129.8061 298 131 298 131 "/>
<path id="2" d="M287 198 C287 198 283.7686 196.5284 282 197 C277.7653 198.1293 276.0892 199.0791 272 202 C269.7187 203.6295 269.0661 204.4108 268 207 C265.8772 212.1554 265 213.5976 265 219 C265 225.3028 266.5882 232.034 268 233 C269.7189 234.1761 280.9254 234.1389 284 232 C287.2108 229.7664 289.5251 224.1638 291 217 C292.7044 208.7213 291.6532 204.859 291 198 C290.9247 197.2092 289 196 289 196 "/>
<path id="3" d="M285 170 C285 170 282.3104 171.1722 282 172 C281.404 173.5893 281.625 177.625 282 178 C282.375 178.375 287.86 178.252 288 178 C288.3546 177.3617 287 169 287 169 "/>
<path id="4" d="M250 225 C250 225 247.9285 229.8212 248 230 C248.0273 230.0681 251.7222 230.3334 252 230 C252.5696 229.3165 253.0826 224.4954 253 224 C252.9953 223.9717 251 224 251 224 "/>
<path id="5" d="M315 218 C315 218 312.2166 218.5669 312 219 C311.5669 219.8662 311.453 222.7237 312 224 C312.3594 224.8387 313.6155 225.5385 315 226 C316.1328 226.3776 317.9967 226.0265 318 226 C318.0684 225.4527 316 218 316 218 "/>
<path id="6" d="M261 189 L261 191 "/>
<path id="7" d="M310 195 C310 195 312.9786 196.0107 313 196 C313 196 312 194 312 194 "/>
<path id="8" d="M283 243 C283 243 287.9852 244.0049 288 244 C288.0042 243.9986 286 242 286 242 "/>
</g>
</g>
</svg>
