<?xml version="1.0" encoding="utf-8"?>
<!DOCTYPE svg PUBLIC "-//W3C//DTD SVG 1.1//EN" "http://www.w3.org/Graphics/SVG/1.1/DTD/svg11.dtd">
<svg viewBox="0 0 800 800" preserveAspectRatio="xMinYMin meet" xmlns="http://www.w3.org/2000/svg" version="1.1">
<g fill="none" stroke="black" stroke-linecap="round" stroke-linejoin="round" stroke-width="1.1857">
<g transform="translate(95.1106,87.52) scale(2.5302) translate(-154,-123)">
<path id="0" d="M231 125 C231 125 229.7964 123.0838 229 123 C222.8752 122.3553 219.6032 121.8303 212 123 C207.6995 123.6616 206.9986 124.4295 203 127 C193.3244 133.22 191.3806 132.8813 184 141 C172.4142 153.7444 171.7547 155.7604 163 171 C158.7444 178.4078 159.0815 179.4426 157 188 C154.6625 197.6098 154.5736 198.0578 154 208 C153.0901 223.771 152.841 224.237 154 240 C155.3172 257.9145 154.7925 259.1698 159 276 C161.5132 286.0529 162.2289 287.183 168 296 C179.7408 313.9373 180.3439 315.4818 195 331 C205.0937 341.6875 206.3097 342.8361 219 350 C236.1877 359.7027 238.7212 361.938 257 366 C271.9554 369.3234 291 366 291 366 "/>
<path id="1" d="M230 126 C230 126 235.1639 123.1707 240 123 C275.8905 121.7333 278.827 121.3923 315 123 C322.3204 123.3253 323.6952 123.7521 330 127 C339.1268 131.7017 341.1469 132.2903 348 140 C363.9905 157.9894 364.6972 160.0481 378 181 C384.2804 190.8916 384.0346 191.8036 388 203 C392.4214 215.4841 394.0714 216.2644 395 229 C397.452 262.6281 396.5763 265.1105 395 299 C394.6355 306.8362 393.895 307.5558 391 315 C387.0607 325.1297 386.7157 325.6471 381 335 C375.8924 343.3579 375.4865 343.6675 369 351 C364.1914 356.4358 363.8723 357.3026 358 361 C351.0715 365.3624 349.7617 366.9416 342 368 C318.9853 371.1384 316.002 370 292 370 C288.1597 370 284 368 284 368 "/>
<path id="2" d="M219 158 C219 158 205.9259 169.0498 195 181 C190.3046 186.1356 189.3494 186.8555 187 193 C183.2695 202.7568 182.5749 204.2203 182 215 C180.6329 240.6325 178.4365 245.7529 183 268 C185.4082 279.74 189.9865 280.9798 198 293 C202.8844 300.3266 203.1154 301.1154 209 307 C212.06 310.06 214.1444 308.9659 217 312 C221.451 316.7292 220.2801 319.8465 225 324 C231.5611 329.7738 233.898 332.5767 242 334 C266.8488 338.3653 270.5562 336.4733 299 337 C324.4157 337.4707 331.349 340.0171 350 336 C356.118 334.6823 360.1237 328.9437 364 323 C365.8658 320.1391 363.68 317.5257 365 313 C367.0201 306.074 370.4553 305.6277 371 299 C373.2176 272.0193 373.5649 268.2142 371 240 C369.7077 225.7842 368.3938 224.6018 363 211 C357.1408 196.2246 355.2816 193.0958 348 182 C346.6995 180.0183 344.0831 181.0831 342 179 C332.0476 169.0476 332.699 163.846 322 156 C312.6166 149.1188 308.9096 147.8167 297 146 C281.8029 143.6818 277.8911 144.4653 263 147 C256.8155 148.0527 256.1346 152.3484 250 154 C244.6421 155.4425 243.1212 152.9798 237 154 C225.6994 155.8834 214 160 214 160 "/>
<path id="3" d="M275 232 C275 232 272.6222 231.4909 272 232 C268.8133 234.6073 265.4895 237.3825 264 241 C263.0806 243.2328 263.4178 246.3225 265 249 C268.8843 255.5734 276.9956 263.0041 277 263 C277.1197 262.8895 278.8346 239.7126 278 237 C277.91 236.7076 270.7864 235.809 269 237 C266.4858 238.6762 263.3239 243.4373 263 247 C262.6426 250.9313 264.2153 254.19 267 259 C269.15 262.7136 273.0068 265.8345 274 266 C274.5068 266.0845 278.5606 263.1093 279 261 C280.3819 254.3666 279.4975 243.4925 279 242 C278.9738 241.9214 273 243 273 243 "/>
<path id="4" d="M274 238 C274 238 270.3345 234.0036 269 230 C267.1132 224.3397 267.1842 223.4476 267 217 C266.1958 188.8534 267.8375 185.5431 267 160 C266.9403 158.1781 265 156 265 156 "/>
<path id="5" d="M280 250 C280 250 289.4529 240.8595 300 235 C315.7586 226.2452 318.4195 228.9031 334 220 C345.6069 213.3675 356 203 356 203 "/>
<path id="6" d="M279 264 C279 264 286.6991 277.7095 296 290 C314.5502 314.5127 335 338 335 338 "/>
<path id="7" d="M268 263 C268 263 264.5764 269.6415 260 274 C254.6569 279.0887 253.5298 279.4086 247 283 C244.0534 284.6206 242.9039 283.3247 240 285 C230.5624 290.4448 230.6613 292.7019 221 298 C215.7519 300.878 209 302 209 302 "/>
<path id="8" d="M264 248 C264 248 265.1026 242.9929 264 240 C262.1284 234.92 261.2536 233.4002 257 229 C247.3597 219.0272 244.5976 220.1792 235 210 C228.6315 203.2456 230.1927 201.1915 224 194 C214.9507 183.4912 204 174 204 174 "/>
</g>
</g>
</svg>
