<?xml version="1.0" encoding="utf-8"?>
<!DOCTYPE svg PUBLIC "-//W3C//DTD SVG 1.1//EN" "http://www.w3.org/Graphics/SVG/1.1/DTD/svg11.dtd">
<svg viewBox="0 0 800 800" preserveAspectRatio="xMinYMin meet" xmlns="http://www.w3.org/2000/svg" version="1.1">
<g fill="none" stroke="black" stroke-linecap="round" stroke-linejoin="round" stroke-width="1.5121">
<g transform="translate(149.024,87.52) scale(1.984) translate(-82,-61)">
<path id="0" d="M263 112 C263 112 259.7304 111.1803 258 112 C251.6793 114.994 249.0674 115.9326 244 121 C240.2546 124.7454 239.6322 126.8313 238 132 C236.9874 135.2067 236.9169 136.9054 238 140 C239.9564 145.5896 241.1004 147.2005 245 152 C246.9567 154.4082 247.8709 154.6825 251 156 C256.9796 158.5177 257.6414 159.123 264 160 C271.5073 161.0355 272.3252 160.8223 280 160 C285.9103 159.3668 287.7337 159.47 292 157 C295.6125 154.9086 296.3136 153.2534 299 149 C302.062 144.1518 302.7525 143.4056 304 138 C305.5633 131.2259 306.8265 126.5226 305 123 C302.5054 118.1891 297.6158 115.9668 290 111 C286.6781 108.8335 285.8625 108.4635 282 108 C274.1457 107.0575 272.6319 106.6842 265 108 C259.2258 108.9956 253 113 253 113 "/>
<path id="1" d="M257 128 C257 128 253.9751 132.8753 254 133 C254.0045 133.0227 257.9527 133.1261 258 133 C258.2404 132.3588 257 125 257 125 "/>
<path id="2" d="M277 123 C277 123 276.7243 127.5404 277 128 C277.0993 128.1654 279.9943 128.0285 280 128 C280.0437 127.7815 278 123 278 123 "/>
<path id="3" d="M265 134 C265 134 266.8773 140.5031 268 142 C268.2464 142.3286 270.7337 142.3195 271 142 C271.8165 141.0202 272.6584 136.427 273 136 C273.027 135.9663 275 137 275 137 "/>
<path id="4" d="M272 149 C272 149 290.8638 146.8983 293 147 C293.0146 147.0007 293.2998 149.8001 293 150 C291.3508 151.0994 288.3781 152.4948 284 153 C276.0366 153.9189 275.11 153.8689 267 153 C261.599 152.4213 255.9991 150.0007 256 150 C256.0015 149.9989 271 150 271 150 "/>
<path id="5" d="M251 118 C251 118 238.3916 112.9348 226 110 C219.9012 108.5556 215.1254 107.5509 213 109 C209.5649 111.3421 208.9628 118.052 204 125 C201.9453 127.8765 200.7485 129.3657 198 130 C190.2275 131.7937 186.3506 132.6237 178 131 C170.5981 129.5607 165.9907 126.5212 162 123 C160.758 121.9041 160.2714 118.1857 161 116 C162.0928 112.7215 163.4731 110.7921 167 108 C174.6377 101.9535 176.3322 100.7148 185 97 C188.9796 95.2945 191.4097 94.6865 195 96 C208.734 101.0246 210.4964 105.1496 226 112 C231.4267 114.3979 236.8085 115.556 238 115 C238.8618 114.5978 238.7399 106.7892 241 105 C246.8227 100.3904 251.9897 99.0031 262 96 C265.8014 94.8596 267.5933 97.2388 271 96 C277.022 93.8102 277.9963 92.336 284 88 C286.7532 86.0116 288.2714 85.1857 289 83 C290.0928 79.7215 288.2624 74.1591 289 73 C289.4023 72.3677 292.8713 71.6524 296 72 C301.1472 72.5719 304.5628 75.677 307 75 C309.2108 74.3859 313.5985 67.3012 314 67 C314.0154 66.9884 314.6839 68.9649 315 69 C319.3964 69.4885 331.9518 68.8876 332 69 C332.0614 69.1432 326.6385 79.241 321 83 C315.8237 86.4509 312.8816 85.9491 305 87 C298.3261 87.8899 296.9629 85.6239 291 87 C285.2992 88.3156 281.4896 90.7179 279 93 C278.348 93.5977 278.1938 97.1464 279 98 C283.6846 102.9602 292.471 107.2504 296 111 C296.3722 111.3955 295.6519 114.4567 295 115 C294.1224 115.7314 290 116 290 116 "/>
<path id="6" d="M249 109 C249 109 237.2624 95.1952 231 83 C228.9542 79.016 229.2718 74.5489 230 72 C230.301 70.9465 233.7518 68.7004 235 69 C241.4628 70.5511 245.4841 75.1452 255 78 C259.192 79.2576 261.0571 79.2546 265 78 C270.6097 76.2151 271.3831 72.3558 277 71 C283.9752 69.3163 287.077 72.204 294 71 C296.7267 70.5258 298.282 69.1475 300 67 C301.4838 65.1453 302 61 302 61 C302 61 300.2338 68.2736 297 73 C294.3842 76.823 293.3876 77.877 289 80 C263.9051 92.1427 260.2381 93.3254 235 103 C232.5894 103.9241 231.0529 103.8798 229 103 C225.3829 101.4498 224.6687 100.3137 221 97 C209.2794 86.4137 198.0327 75.0409 198 75 C197.9938 74.9923 203.7825 75.402 205 77 C209.293 82.6345 211.5327 86.9534 214 96 C215.61 101.9033 214.8728 105.0541 214 110 C213.78 111.2469 212.4632 112.5428 211 113 C205.937 114.5822 203.1638 115.6735 198 115 C193.6822 114.4368 188.0001 110 188 110 C188 110 191.9677 111.5613 194 114 C198.8548 119.8258 199.8161 124.2855 203 128 C203.377 128.4399 205.9856 128.0756 206 128 C206.5343 125.195 204.7743 110.8579 207 107 C208.3489 104.6619 214.75 102 221 102 C237.9642 102 240.9371 106.3184 259 107 C266.0413 107.2657 267.4319 103.7654 274 104 C279.7963 104.207 280.6414 107.123 287 108 C294.5073 109.0355 295.033 108.2747 303 108 C309.4903 107.7762 310.9169 108.9969 316 107 C323.1841 104.1777 324.3427 100.5038 331 97 C332.3142 96.3083 335 97 335 97 "/>
<path id="7" d="M261 159 C261 159 263.8255 161.8187 264 164 C264.6634 172.2923 264.9624 175.3094 263 184 C261.8013 189.3086 258.5505 189.487 257 195 C254.3305 204.4916 256.5007 206.3098 254 216 C252.7033 221.0246 252.3236 223.2495 249 226 C240.0911 233.3728 237.1325 234.0977 225 240 C219.1147 242.8631 217.6825 241.0009 212 244 C200.3738 250.1361 197.0218 250.1761 189 259 C179.0693 269.9238 178.2557 273.8423 172 288 C169.4499 293.7713 169.5495 295.6932 170 302 C170.4644 308.5018 171.7392 309.2177 174 316 C174.6881 318.0642 175.7268 320 176 320 C177.2295 320 185 316 185 316 "/>
<path id="8" d="M292 159 C292 159 296.8487 164.8192 298 170 C299.4936 176.7211 299.3638 179.4539 298 186 C297.2293 189.6992 296.072 190.8 293 194 C284.5423 202.8101 281.6836 202.0871 274 211 C270.0471 215.5854 270.0267 216.92 268 223 C265.6838 229.9485 265 230.7775 265 238 C265 256.7785 268.6832 260.2606 268 277 C267.8207 281.3935 266.1328 282.8229 263 287 C259.0128 292.3163 258.4579 293.4241 253 297 C244.7904 302.3787 243.7783 302.8529 234 306 C200.9025 316.6521 192.0121 316.8248 166 325 C164.9651 325.3252 164 328 164 328 "/>
<path id="9" d="M182 319 C182 319 158.6716 334.9749 135 346 C123.3737 351.415 121.9122 350.7544 109 353 C99.4293 354.6645 96.2975 355.1227 89 354 C86.5109 353.6171 84.4039 351.4067 83 349 C81.7475 346.8528 81.5415 342.5895 82 342 C82.6059 341.221 87.9489 339.1322 90 340 C96.7378 342.8506 99.7728 345.8275 108 353 C119.0248 362.6113 119.1859 368.3569 129 374 C134.9789 377.4379 139.9356 376 148 376 C149.6978 376 150.9366 375.3673 152 374 C156.9472 367.6393 157.7673 366.3026 162 358 C170.6581 341.0167 171.7503 331.6534 178 323 C179.1038 321.4717 188 322 188 322 "/>
</g>
</g>
</svg>
