<?xml version="1.0" encoding="utf-8"?>
<!DOCTYPE svg PUBLIC "-//W3C//DTD SVG 1.1//EN" "http://www.w3.org/Graphics/SVG/1.1/DTD/svg11.dtd">
<svg viewBox="0 0 800 800" preserveAspectRatio="xMinYMin meet" xmlns="http://www.w3.org/2000/svg" version="1.1">
<g fill="none" stroke="black" stroke-linecap="round" stroke-linejoin="round" stroke-width="2.1361">
<g transform="translate(87.52,165.4644) scale(1.4044) translate(-52,-15)">
<path id="0" d="M57 218 L57 218 "/>
<path id="1" d="M52 179 C52 179 50.5793 170.6828 52 165 C53.167 160.332 54.5515 159.4338 58 155 C61.344 150.7005 61.6768 149.6315 66 147 C72.2657 143.1861 73.9421 142.1028 81 141 C88.4592 139.8345 90.333 139.9555 98 142 C111.7356 145.6628 119.3023 146.4884 126 153 C131.4235 158.2729 133.8884 176.9882 134 177 C134.0921 177.0097 138.8688 164.878 145 155 C147.4129 151.1126 148.1911 150.3579 152 148 C157.9535 144.3145 159.2294 142.9293 166 142 C182.9622 139.6719 184.9574 140.3191 203 141 C210.8654 141.2968 211.5632 141.5211 219 144 C229.0615 147.3538 231.6107 148.6336 239 153 C240.2736 153.7526 241.0339 156.9798 241 157 C235.9747 159.9912 216.5993 166.1728 197 178 C189.2366 182.6848 187.8702 184.4025 183 192 C176.2057 202.5992 174.4463 204.7683 172 217 C168.3665 235.1677 169.2923 238.2461 170 257 C170.2331 263.1774 171.0119 264.3974 174 270 C178.6203 278.6631 179.3166 282.648 186 287 C197.0559 294.1992 201.6881 295.1564 217 298 C235.2445 301.3883 237.6888 301.4306 256 300 C268.043 299.0591 269.0655 297.3663 281 293 C289.1958 290.0016 289.5447 289.6812 297 285 C310.8054 276.3315 312.112 276.5371 324 266 C333.4167 257.6534 334.809 256.6935 341 246 C350.5976 229.4223 353.1211 227.1697 357 209 C362.0522 185.3344 357.0821 163.0692 360 157 C360.5775 155.7988 374.9699 154.1158 382 157 C389.5299 160.0892 396.4802 173 399 173 C401.668 173 408.4825 160.7394 417 157 C425.1273 153.4319 430.546 154.1137 440 155 C443.9241 155.3679 445.6173 157.1811 449 160 C450.8412 161.5344 451.2374 162.4263 452 165 C455.0407 175.2623 456.1874 176.2335 457 187 C458.1229 201.8788 459.6101 204.8336 456 218 C451.9151 232.8979 440 249 440 249 "/>
<path id="2" d="M439 251 L436 255 "/>
<path id="3" d="M434 258 C434 258 429.5069 268.1584 423 276 C410.4711 291.0989 409.6427 291.5775 395 305 C385.9461 313.2994 385.3654 313.4534 375 320 C366.6706 325.2606 366.1943 325.0875 357 329 C342.8142 335.0365 342.6515 335.4713 328 340 C315.4039 343.8933 315.0464 343.4475 302 346 C292.1161 347.9338 291.9339 348.5918 282 349 C255.8366 350.0752 253.8634 352.7179 229 349 C202.545 345.0441 201.248 341.878 175 333 C167.7688 330.5542 166.6147 330.4918 161 326 C152.5206 319.2165 151.7774 318.0366 145 309 C138.6315 300.5087 138.2407 299.7287 134 290 C129.9695 280.7536 129.0393 279.8736 128 270 C125.1684 243.0996 127.6724 241.5944 126 214 C125.6984 209.0235 125.9608 208.0998 124 204 C120.9033 197.525 120.1845 195.2244 115 191 C108.2964 185.5378 105.5943 183.3862 97 182 C77.4883 178.853 53 181 53 181 "/>
<path id="4" d="M360 194 C360 194 363.6823 201.4019 368 205 C371.3535 207.7946 373.1863 208.336 378 209 C386.6678 210.1956 391.1909 211.2034 397 209 C401.3331 207.3564 406.4346 198 407 198 C407.3392 198 409.447 205.9799 413 209 C417.421 212.7579 420.1155 213.3936 427 215 C434.257 216.6933 436.1839 217.278 443 216 C450.4627 214.6007 459 209 459 209 "/>
<path id="5" d="M349 236 C349 236 374.9502 243.2092 401 248 C418.1732 251.1583 436 252 436 252 "/>
<path id="6" d="M401 233 L402 233 "/>
<path id="7" d="M343 246 C343 246 333.3407 231.0788 330 217 C326.8516 203.7319 327.1829 201.1329 329 187 C331.5114 167.4667 332.2002 165.8884 339 147 C345.413 129.186 346.476 127.6465 356 112 C359.7164 105.8944 361.0325 104.6167 367 101 C376.2737 95.3796 378.3054 93.7249 389 92 C407.3147 89.046 409.885 89.9574 429 91 C436.2823 91.3972 436.8825 92.331 444 95 C452.6272 98.2352 455.0973 97.5514 461 103 C472.5819 113.691 474.5345 117.5963 483 131 C485.2759 134.6035 483.1648 136.5649 485 141 C488.9217 150.4775 493.313 150.8619 495 160 C498.7526 180.3265 499.0459 184.2619 497 206 C495.2162 224.9524 493.5121 226.7042 487 245 C483.3407 255.2809 482.0715 259.1533 476 265 C471.6303 269.2079 467.7295 270.0338 460 271 C445.2332 272.8458 428 271 428 271 "/>
<path id="8" d="M429 19 C429 19 409.567 20.7311 395 26 C388.374 28.3966 386.2052 30.6267 382 36 C378.4745 40.5048 378.165 42.7092 377 49 C375.8288 55.3243 375.474 57.3319 377 63 C378.5134 68.6214 379.854 69.9327 384 75 C388.4437 80.4311 389.2467 82.1233 395 85 C403.63 89.315 405.8174 90.0017 416 91 C430.104 92.3827 431.4832 91.742 446 90 C455.9285 88.8086 459.6035 88.9702 466 85 C470.7257 82.0668 472.083 78.5633 475 72 C477.6311 66.0801 477.8082 64.7139 478 58 C478.2852 48.0176 478.9971 45.2998 476 37 C473.3823 29.751 470.6934 24.9823 465 22 C454.5333 16.5174 448.0544 16.3074 434 15 C428.7954 14.5159 422 18 422 18 "/>
<path id="9" d="M415 41 L415 42 "/>
<path id="10" d="M449 42 L449 43 "/>
<path id="11" d="M433 46 L433 59 "/>
<path id="12" d="M418 68 C418 68 423.8966 73.3762 429 75 C433.2441 76.3504 434.8499 75.6059 440 75 C442.9193 74.6566 443.9135 74.5174 446 73 C448.6208 71.094 451 67 451 67 "/>
</g>
</g>
</svg>
