<?xml version="1.0" encoding="utf-8"?>
<!DOCTYPE svg PUBLIC "-//W3C//DTD SVG 1.1//EN" "http://www.w3.org/Graphics/SVG/1.1/DTD/svg11.dtd">
<svg viewBox="0 0 800 800" preserveAspectRatio="xMinYMin meet" xmlns="http://www.w3.org/2000/svg" version="1.1">
<g fill="none" stroke="black" stroke-linecap="round" stroke-linejoin="round" stroke-width="1.8865">
<g transform="translate(120.9148,87.52) scale(1.5902) translate(-174,-8.4167)">
<path id="0" d="M253 321.4167 C253 321.4167 244.7845 324.2545 237 324.4167 C221.5118 324.7393 217.5734 324.9958 205 322.4167 C201.8069 321.7617 198.4303 317.4924 198 316.4167 C197.8631 316.0744 201.1318 313.2732 201 312.4167 C200.6362 310.052 196.4473 307.2931 196 303.4167 C195.2168 296.629 195.3991 291.4184 198 286.4167 C199.9781 282.6127 203.234 280.9101 209 278.4167 C220.7475 273.3367 221.9931 272.4539 235 270.4167 C262.5778 266.0973 265.7718 270.7887 292 265.4167 C304.8636 262.782 306.3993 260.4381 318 253.4167 C324.507 249.4782 326.3366 248.6544 330 242.4167 C343.5357 219.3694 340.6441 213.0671 355 190.4167 C361.7026 179.8414 364.5875 179.6205 375 171.4167 C380.513 167.0731 382.6479 168.8768 388 164.4167 C402.8723 152.0231 407.5666 150.9295 417 136.4167 C424.7521 124.4904 424.5237 111.0202 427 104.4167 C427.052 104.2781 429 104.4167 429 104.4167 "/>
<path id="1" d="M254 321.4167 C254 321.4167 268.967 313.3645 269 313.4167 C269.8928 314.8264 268.5374 334.4028 273 351.4167 C275.9882 362.8092 281.4751 363.2997 285 374.4167 C287.4087 382.0134 286.8766 384.5275 286 392.4167 C285.5372 396.5818 282.3875 401.4542 282 401.4167 C278.5125 401.0792 267.1986 396.7819 255 389.4167 C241.4371 381.2277 242.61 377.7737 229 369.4167 C214.7039 360.6383 211.4224 362.9284 198 354.4167 C192.3757 350.85 192.0532 349.2431 188 343.4167 C184.3492 338.1686 184.1099 337.5705 182 331.4167 C178.2391 320.4473 177.7329 319.8969 176 308.4167 C173.8035 293.8648 172.7984 291.6344 174 278.4167 C174.5862 271.969 176.2482 270.3124 180 264.4167 C182.7565 260.0851 183.6768 259.0482 188 256.4167 C194.2657 252.6027 196.004 250.9076 203 250.4167 C221.9902 249.084 227.0768 254.9371 245 252.4167 C255.1162 250.9941 260.1139 248.3028 267 241.4167 C275.1381 233.2785 272.8741 227.2512 281 216.4167 C287.1803 208.1763 288.3369 207.1921 297 201.4167 C309.9946 192.7536 312.3018 194.7547 326 186.4167 C334.9499 180.9689 336.9402 180.4865 343 173.4167 C347.6155 168.0319 347.689 166.0608 350 158.4167 C354.0254 145.1018 353.3286 135.9503 356 130.4167 C356.4204 129.5459 360.8712 130.8072 364 129.4167 C368.8578 127.2576 369.4206 126.273 374 122.4167 C378.7766 118.3943 380.0695 118.0566 383 113.4167 C385.3738 109.6582 386 103.4167 386 103.4167 "/>
<path id="2" d="M419 111.4167 C419 111.4167 421.5738 108.2832 424 107.4167 C427.5314 106.1555 432.998 106.3915 433 106.4167 C433.5445 113.2225 426.2886 149.3236 430 182.4167 C431.6031 196.7109 436.6517 200.3933 445 213.4167 C447.962 218.0373 450.5599 219.1966 455 221.4167 C456.9029 222.3681 460.9908 221.4028 461 221.4167 C461.0008 221.4178 457 224.4167 457 224.4167 "/>
<path id="3" d="M417 112.4167 C417 112.4167 413.0398 116.1801 411 120.4167 C406.8093 129.1204 404.8929 130.3387 404 139.4167 C402.0997 158.7366 402.3024 161.6343 405 181.4167 C406.6063 193.1964 407.8128 194.754 413 205.4167 C416.3224 212.2461 419.0057 211.6028 423 218.4167 C427.2572 225.679 428.0781 226.3798 430 234.4167 C433.3662 248.4936 434 264.4167 434 264.4167 "/>
<path id="4" d="M437 201.4167 C437 201.4167 438.4338 209.8505 442 213.4167 C449.3421 220.7588 454.9499 220.7666 463 227.4167 C464.5154 228.6686 465.3041 232.0213 465 232.4167 C463.4861 234.3848 455.3407 236.5712 453 240.4167 C450.5196 244.4916 453.7808 251.9104 451 255.4167 C445.8604 261.8971 430 269.4167 430 269.4167 "/>
<path id="5" d="M459 238.4167 C459 238.4167 463.1282 242.2372 464 244.4167 C464.3923 245.3974 462.5597 247.1587 463 248.4167 C465.2678 254.8961 466.2228 257.2509 471 264.4167 C475.9265 271.8064 483 278.4167 483 278.4167 "/>
<path id="6" d="M451 260.4167 C451 260.4167 456.454 276.9684 464 287.4167 C467.8133 292.6967 472.5565 291.4794 477 296.4167 C480.3273 300.1137 482 307.4167 482 307.4167 "/>
<path id="7" d="M483 279.4167 C483 279.4167 488.7697 295.3828 495 304.4167 C496.7819 307.0005 502.9847 308.2946 503 308.4167 C503.0095 308.4929 499.2845 311.4782 496 312.4167 C493.1765 313.2234 490.5303 313.0968 489 312.4167 C488.1741 312.0496 487 308.4167 487 308.4167 "/>
<path id="8" d="M486 304.4167 L481 319.4167 "/>
<path id="9" d="M482 307.4167 C482 307.4167 482.0705 311.3109 482 311.4167 C481.9941 311.4255 480 310.5126 480 310.4167 C480 310.1289 482 307.4167 482 307.4167 "/>
<path id="10" d="M390 98.4167 C390 98.4167 386.618 111.7097 381 116.4167 C371.9266 124.0187 358.7214 122.3876 353 129.4167 C347.2935 136.4275 350.8843 145.6797 346 159.4167 C343.2639 167.112 342.712 169.4338 337 174.4167 C321.3057 188.1074 299 200.4167 299 200.4167 "/>
<path id="11" d="M396 100.4167 C396 100.4167 400.1748 97.7548 401 95.4167 C402.5069 91.147 403.5078 87.8241 402 83.4167 C398.0178 71.7764 391.2414 69.6877 388 57.4167 C385.0531 46.2605 386.163 41.4384 388 30.4167 C388.6804 26.3346 390.4607 24.9559 394 21.4167 C398.955 16.4617 399.8078 16.2499 406 12.4167 C410.0442 9.9131 411.3868 8.5973 415 8.4167 C419.2612 8.2036 422.6081 8.9174 426 11.4167 C430.1351 14.4636 431.0324 16.7287 434 22.4167 C436.755 27.6972 437.0808 28.4416 438 34.4167 C439.9898 47.3505 441.0599 48.963 440 61.4167 C439.1897 70.9372 438.1624 72.2594 434 81.4167 C428.4391 93.6507 423.4924 94.191 420 105.4167 C417.4135 113.7304 420 126.4167 420 126.4167 "/>
<path id="12" d="M437 24.4167 C437 24.4167 446.8559 51.4929 460 69.4167 C466.4587 78.224 479.429 82.8457 481 84.4167 C481 84.4167 478 87.4167 478 87.4167 "/>
<path id="13" d="M443 49.4167 C443 49.4167 448.8567 66.1301 456 80.4167 C457.9049 84.2264 458.5612 85.4258 462 87.4167 C475.9172 95.474 492.3769 101.4092 494 102.4167 C494.0447 102.4444 491 105.4167 491 105.4167 "/>
<path id="14" d="M433 76.4167 C433 76.4167 436.2962 86.5971 441 95.4167 C444.0864 101.2037 444.6046 104.219 449 106.4167 C463.3259 113.5796 487 118.4167 487 118.4167 "/>
<path id="15" d="M447 75.4167 C447 75.4167 447.8702 83.8398 451 87.4167 C456.4267 93.6186 459.1584 94.6374 468 99.4167 C477.157 104.3664 478.3832 104.9349 488 107.4167 C492.7944 108.6539 499 107.4167 499 107.4167 "/>
<path id="16" d="M406 20.4167 C406 20.4167 408.5492 17.1519 411 16.4167 C417.1665 14.5667 418.5336 14.991 426 14.4167 C431.4198 13.9998 432.1575 13.4482 437 14.4167 C441.3142 15.2795 442.7372 15.8064 446 18.4167 C449.3163 21.0697 448.7497 23.4372 452 26.4167 C454.133 28.3719 456.8785 27.454 458 29.4167 C471.4585 52.969 471.7526 61.7223 488 89.4167 C492.8603 97.7012 502 104.4167 502 104.4167 "/>
<path id="17" d="M414 10.4167 C414 10.4167 425.9329 9.2654 434 11.4167 C438.7235 12.6763 441.5817 14.1975 444 18.4167 C462.2742 50.2992 462.1889 56.2319 481 93.4167 C483.6165 98.5888 483.7095 99.852 487 103.4167 C488.8081 105.3755 493 106.4167 493 106.4167 "/>
<path id="18" d="M467 37.4167 C467 37.4167 467.3179 41.5701 469 44.4167 C473.4201 51.8969 475.0579 54.1451 480 59.4167 C480.9274 60.4059 482.9167 59.3971 484 60.4167 C489.9452 66.0121 490.0007 68.9773 497 75.4167 C502.0562 80.0684 504.4609 79.1802 509 83.4167 C511.0053 85.2883 511.5963 86.5904 512 89.4167 C512.9421 96.0112 513.2128 97.6248 512 104.4167 C510.8767 110.7072 510.5035 112.1614 507 117.4167 C502.138 124.7097 499.9437 127.5404 494 131.4167 C491.1391 133.2825 483.9966 132.4141 484 132.4167 C484.008 132.4227 501.9979 137.4165 502 137.4167 C502.0009 137.4167 495 133.4167 495 133.4167 "/>
<path id="19" d="M446 95.4167 C446 95.4167 445.6775 102.2606 448 106.4167 C454.229 117.5633 455.8605 119.0165 465 129.4167 C469.9494 135.0487 470.8689 135.6212 477 139.4167 C480.6594 141.682 481.7178 142.172 486 142.4167 C498.1128 143.1088 502.5134 143.2528 512 141.4167 C514.1614 140.9983 516.2315 138.1458 517 136.4167 C517.3783 135.5654 516 132.4167 516 132.4167 "/>
<path id="20" d="M487 103.4167 C487 103.4167 487.4857 106.9023 489 108.4167 C493.9757 113.3924 495.3295 114.9579 502 118.4167 C507.8962 121.4739 509.1489 121.1117 516 122.4167 C519.2488 123.0355 521.671 122.915 523 122.4167 C523.4034 122.2654 524 119.4167 524 119.4167 "/>
<path id="21" d="M482 81.4167 C482 81.4167 485.1663 89.5444 489 91.4167 C502.3466 97.9348 525 102.4167 525 102.4167 "/>
<path id="22" d="M401 35.4167 L410 31.4167 "/>
<path id="23" d="M402 38.4167 C402 38.4167 401.6805 35.6829 402 35.4167 C402.9798 34.6001 407.7449 33.2344 408 33.4167 C408.3348 33.6558 409 40.4167 409 40.4167 "/>
<path id="24" d="M404 41.4167 L406 39.4167 "/>
<path id="25" d="M409 37.4167 C409 37.4167 414.4532 36.162 417 36.4167 C417.7092 36.4876 419 38.4167 419 38.4167 "/>
<path id="26" d="M414 33.4167 L426 41.4167 "/>
<path id="27" d="M395 42.4167 C395 42.4167 390.7114 59.0781 392 64.4167 C392.5702 66.7788 402 71.4167 402 71.4167 "/>
<path id="28" d="M403 64.4167 L411 60.4167 "/>
<path id="29" d="M406 64.4167 C406 64.4167 399.902 67.5147 398 69.4167 C397.5611 69.8556 397.9813 72.4154 398 72.4167 C399.3934 72.5096 413 70.4167 413 70.4167 "/>
<path id="30" d="M394 40.4167 C394 40.4167 381.7396 66.2014 382 67.4167 C382.0518 67.6583 400 68.4167 400 68.4167 "/>
<path id="31" d="M233 338.4167 C233 338.4167 249.4997 341.7319 264 341.4167 C271.0718 341.2629 279 337.4167 279 337.4167 "/>
<path id="32" d="M236 349.4167 L279 347.4167 "/>
<path id="33" d="M254 364.4167 L294 362.4167 "/>
<path id="34" d="M278 377.4167 C278 377.4167 291.5722 376.0832 303 373.4167 C305.5118 372.8306 308 370.4167 308 370.4167 "/>
<path id="35" d="M255 270.4167 C255 270.4167 284.2996 271.8364 312 271.4167 C316.3896 271.3502 317.1808 271.2499 321 269.4167 C328.9758 265.5883 329.9631 265.2118 337 259.4167 C346.5305 251.568 346.846 250.8252 355 241.4167 C359.5947 236.1151 360.6827 235.7197 363 229.4167 C372.6547 203.1559 370.5031 199.9287 380 173.4167 C382.066 167.649 382.9694 167.1586 387 162.4167 C391.1614 157.5209 397 153.4167 397 153.4167 "/>
<path id="36" d="M368 177.4167 L354 195.4167 "/>
<path id="37" d="M306 264.4167 C306 264.4167 327.1474 244.5444 345 225.4167 C347.0836 223.1843 348 219.4167 348 219.4167 "/>
</g>
</g>
</svg>
