<?xml version="1.0" encoding="utf-8"?>
<!DOCTYPE svg PUBLIC "-//W3C//DTD SVG 1.1//EN" "http://www.w3.org/Graphics/SVG/1.1/DTD/svg11.dtd">
<svg viewBox="0 0 800 800" preserveAspectRatio="xMinYMin meet" xmlns="http://www.w3.org/2000/svg" version="1.1">
<g fill="none" stroke="black" stroke-linecap="round" stroke-linejoin="round" stroke-width="1.5073">
<g transform="translate(305.4599,87.52) scale(1.9903) translate(-172,-109.1333)">
<path id="0" d="M207 392.1333 C207 392.1333 208.8856 378.0936 209 364.1333 C209.3839 317.2981 207.168 316.3083 208 270.1333 C208.151 261.7544 212.1011 254.623 211 253.1333 C209.452 251.039 196.3925 251.6561 191 247.1333 C185.0168 242.1152 181.4562 236.7904 180 227.1333 C172.792 179.3329 172.9785 157.3363 172 121.1333 C171.9552 119.4752 174.8014 117.0494 177 116.1333 C179.1727 115.228 183.9919 116.0488 184 116.1333 C185.0159 126.8002 183.3739 158.6685 185 200.1333 C185.3506 209.0726 186.0476 209.3477 188 218.1333 C189.011 222.683 189.3186 225.9003 191 227.1333 C193.3586 228.863 202.4677 229.5769 203 229.1333 C203.5151 228.7041 203.9441 222.7982 203 217.1333 C201.033 205.3316 197.7857 204.9194 197 193.1333 C194.8746 161.253 193.8623 156.0695 197 127.1333 C197.8546 119.2522 202.1113 114.7997 206 110.1333 C206.9523 108.9905 211.1176 108.8812 212 109.1333 C212.2868 109.2153 212.9155 110.6687 213 112.1333 C214.3573 135.6593 215.2258 136.7472 215 161.1333 C214.7279 190.5211 211.6482 197.6188 212 220.1333 C212.0302 222.0667 214.3387 224.6447 216 225.1333 C219.9479 226.2945 226.9379 226.4676 229 225.1333 C230.7635 223.9922 233 219.2226 233 214.1333 C233 172.0309 228.6047 163.0565 229 123.1333 C229.0437 118.7225 231.6517 114.7478 234 113.1333 C236.3112 111.5444 243.591 111.194 245 112.1333 C246.5454 113.1636 248.7195 117.8741 249 123.1333 C250.6009 153.1503 250.3339 155.4521 249 187.1333 C248.3504 202.5623 243.8242 210.8823 245 218.1333 C245.2953 219.9542 249.975 222.2191 255 224.1333 C259.8107 225.966 265.2788 224.9313 266 226.1333 C267.5599 228.7331 268.7038 239.2113 267 244.1333 C265.8938 247.3289 261.7596 250.7334 257 252.1333 C247.526 254.9198 233.1024 253.3883 233 254.1333 C229.9515 276.3045 236.8743 349.5305 235 412.1333 C234.8907 415.7837 231.3289 419.6076 228 421.1333 C222.6389 423.5905 214.9627 424.3394 211 423.1333 C208.8873 422.4903 205.9264 418.3681 205 414.1333 C202.9143 404.5987 204 391.1333 204 391.1333 "/>
</g>
</g>
</svg>
