<?xml version="1.0" encoding="utf-8"?>
<!DOCTYPE svg PUBLIC "-//W3C//DTD SVG 1.1//EN" "http://www.w3.org/Graphics/SVG/1.1/DTD/svg11.dtd">
<svg viewBox="0 0 800 800" preserveAspectRatio="xMinYMin meet" xmlns="http://www.w3.org/2000/svg" version="1.1">
<g fill="none" stroke="black" stroke-linecap="round" stroke-linejoin="round" stroke-width="1.6081">
<g transform="translate(87.52,164.0076) scale(1.8656) translate(-159.5,-99.1667)">
<path id="0" d="M225.5 272.1667 C225.5 272.1667 201.1721 279.5174 180.5 290.1667 C169.3618 295.9045 164.1988 300.998 159.5 306.1667 C158.8183 306.9165 159.7496 311.5101 160.5 312.1667 C161.4455 312.994 165.2156 314.0805 167.5 313.1667 C177.2608 309.2623 178.595 305.0987 190.5 300.1667 C212.9918 290.8486 237.4999 284.1665 237.5 284.1667 C237.5007 284.1689 216.4366 300.0702 194.5 313.1667 C183.3824 319.804 175.8108 320.4049 170.5 324.1667 C169.79 324.6696 169.9766 329.7479 170.5 330.1667 C171.7649 331.1786 177.0638 333.2562 180.5 332.1667 C193.6183 328.0072 197.3912 325.9141 211.5 317.1667 C221.6247 310.8893 220.5882 307.9633 230.5 301.1667 C237.6055 296.2943 246.4482 293.1786 246.5 293.1667 C246.512 293.1639 245.4564 296.6382 243.5 298.1667 C230.8584 308.0429 227.7773 307.144 214.5 318.1667 C201.7116 328.7835 198.3187 331.5332 190.5 342.1667 C188.4846 344.9076 189.1645 351.3278 189.5 352.1667 C189.5699 352.3414 192.7949 353.0563 194.5 352.1667 C212.7521 342.6438 214.49 338.542 235.5 328.1667 C254.542 318.7632 259.0021 322.5731 275.5 312.1667 C288.9274 303.6971 292.5465 299.7383 300.5 287.1667 C305.9163 278.6054 306.5 263.1667 306.5 263.1667 "/>
<path id="1" d="M224.5 270.1667 C224.5 270.1667 229.656 271.4307 232.5 270.1667 C241.1506 266.3219 243.0468 262.577 251.5 258.1667 C252.8385 257.4683 254.3866 258.7853 255.5 258.1667 C257.665 256.9639 257.7681 254.7737 260.5 253.1667 C265.64 250.1432 267.5359 251.3934 272.5 248.1667 C276.7968 245.3737 280.5 240.1667 280.5 240.1667 "/>
<path id="2" d="M280.5 239.1667 C280.5 239.1667 308.5848 225.6767 333.5 209.1667 C349.4195 198.6176 350.012 197.3175 363.5 184.1667 C369.3665 178.4468 367.4728 174.8939 373.5 170.1667 C391.1366 156.334 395.7263 158.7927 414.5 144.1667 C438.0812 125.7953 437.041 122.6023 459.5 103.1667 C462.4194 100.6403 463.7727 99.1667 466.5 99.1667 C475.0716 99.1667 481.8898 99.8616 488.5 103.1667 C491.5297 104.6815 493.333 108.4986 494.5 113.1667 C495.9207 118.8495 495.7002 120.9256 494.5 127.1667 C493.3888 132.9448 492.8759 134.5249 489.5 139.1667 C485.6138 144.5101 484.4333 144.9126 478.5 149.1667 C458.2293 163.7004 457.8524 164.4241 436.5 177.1667 C427.2727 182.6733 425.7463 180.7395 416.5 186.1667 C403.1275 194.0158 402.535 194.7643 390.5 204.1667 C387.0547 206.8583 388.0153 208.706 384.5 211.1667 C354.3785 232.2517 351.6224 231.4992 320.5 253.1667 C312.4722 258.7556 305.5 266.1667 305.5 266.1667 "/>
<path id="3" d="M391.5 172.1667 C391.5 172.1667 408.1167 153.9582 425.5 141.1667 C433.1149 135.5632 436.6586 138.6215 444.5 133.1667 C458.4479 123.4638 460.1377 116.7416 471.5 109.1667 C473.8782 107.5812 477.0393 108.368 480.5 109.1667 C482.3043 109.583 483.1714 110.4585 484.5 112.1667 C486.3117 114.496 486.9987 115.326 487.5 118.1667 C488.3445 122.9523 488.7702 124.9327 487.5 129.1667 C486.2529 133.3237 485.1193 135.0195 481.5 138.1667 C474.546 144.2136 473.2168 144.8083 464.5 149.1667 C457.7203 152.5565 456.5454 150.8788 449.5 154.1667 C419.4214 168.2034 389.5 184.1667 389.5 184.1667 "/>
<path id="4" d="M392.5 171.1667 C392.5 171.1667 384.1544 183.5122 374.5 193.1667 C368.7073 198.9593 360.5 203.1667 360.5 203.1667 "/>
<path id="5" d="M397.5 181.1667 L361.5 204.1667 "/>
</g>
</g>
</svg>
