<?xml version="1.0" encoding="utf-8"?>
<!DOCTYPE svg PUBLIC "-//W3C//DTD SVG 1.1//EN" "http://www.w3.org/Graphics/SVG/1.1/DTD/svg11.dtd">
<svg viewBox="0 0 800 800" preserveAspectRatio="xMinYMin meet" xmlns="http://www.w3.org/2000/svg" version="1.1">
<g fill="none" stroke="black" stroke-linecap="round" stroke-linejoin="round" stroke-width="1.5841">
<g transform="translate(296.7869,87.52) scale(1.8938) translate(-190,-87)">
<path id="0" d="M199 101 C199 101 195.0246 120.9794 193 141 C190.5419 165.3084 187.4389 171.5033 190 190 C190.931 196.7239 195.3 200.5968 202 206 C209.0645 211.6972 219.1316 210.9962 221 215 C224.8624 223.2765 223 233.0582 223 251 C223 290.8706 223.2418 291.3956 221 331 C220.2661 343.9652 220.1359 344.4564 217 357 C212.7317 374.0732 209.7852 374.4829 206 391 C204.549 397.3317 204.4469 400.119 206 405 C207.1345 408.5657 209.2633 410.64 213 413 C217.5037 415.8444 219.2693 416.5224 225 417 C236.113 417.9261 238.3437 418.0721 249 416 C254.7992 414.8724 256.4687 413.323 261 410 C262.842 408.6492 263.4276 407.4327 264 405 C265.2274 399.7836 266.0289 398.3505 265 393 C261.33 373.916 258.0003 373.0015 254 353 C251.0993 338.4966 253.4534 337.37 251 323 C250.0606 317.4978 247.6405 317.3803 247 312 C245.2632 297.4106 247.438 296.2429 246 281 C244.9651 270.0303 242.7053 269.8142 242 259 C241.2417 247.3726 241.5885 246.2921 243 235 C243.49 231.08 244.6242 227.6517 246 227 C249.3382 225.4187 255.8931 228.4428 262 226 C271.0114 222.3955 276.7574 220.3385 281 213 C291.8621 194.2116 293.7576 186.7556 299 162 C302.2519 146.644 300.3213 144.6489 299 128 C297.8576 113.6052 297.4039 110.5732 294 99 C293.2772 96.5424 289.0149 93.9826 289 94 C288.4789 94.608 284.2218 103.3724 282 113 C276.8435 135.3448 279.0451 141.5105 274 159 C273.1625 161.9033 270.1025 164.1906 267 165 C261.2044 166.5119 251.7722 165.717 251 165 C250.5139 164.5487 252.8965 158.4175 253 152 C253.3891 127.8788 253.1233 127.339 252 103 C251.6314 95.0142 250.8697 89.3192 250 87 C249.9221 86.7923 246.3114 86.5718 246 87 C244.5111 89.0472 242.3968 92.6827 242 98 C240.0306 124.3898 243.3123 133.5197 241 154 C240.7248 156.4371 237.8816 158.5592 235 160 C232.2785 161.3608 227.9133 161.8676 227 161 C222.9841 157.1849 217.6273 150.9252 215 141 C209.3787 119.764 210.1776 98.0315 209 93 C208.9959 92.9827 204.7078 93.1911 204 94 C202.8478 95.3168 202 101 202 101 "/>
</g>
</g>
</svg>
