<?xml version="1.0" encoding="utf-8"?>
<!DOCTYPE svg PUBLIC "-//W3C//DTD SVG 1.1//EN" "http://www.w3.org/Graphics/SVG/1.1/DTD/svg11.dtd">
<svg viewBox="0 0 800 800" preserveAspectRatio="xMinYMin meet" xmlns="http://www.w3.org/2000/svg" version="1.1">
<g fill="none" stroke="black" stroke-linecap="round" stroke-linejoin="round" stroke-width="1.6081">
<g transform="translate(318.8485,87.52) scale(1.8656) translate(-187,-66.1333)">
<path id="0" d="M204 66.1333 C204 66.1333 197.5373 86.5643 193 107.1333 C190.0868 120.3399 189.9409 120.6466 189 134.1333 C186.9601 163.3719 185.5509 165.9623 187 193.1333 C187.4016 200.6627 188.6509 202.9722 193 209.1333 C199.5994 218.4825 203.7443 218.1501 211 227.1333 C213.3242 230.0109 213.8931 231.3372 214 235.1333 C215.7728 298.067 215.4566 303.8348 215 369.1333 C214.9693 373.5261 213 378.1333 213 378.1333 "/>
<path id="1" d="M204 70.1333 C204 70.1333 200.8658 95.7361 200 121.1333 C199.3741 139.4927 198.8028 140.5556 201 158.1333 C202.1689 167.4844 204.4138 172.4311 207 177.1333 C207.4349 177.9241 212 178.1333 212 178.1333 "/>
<path id="2" d="M223 128.1333 C223 128.1333 222.7667 160.0532 221 179.1333 C220.8869 180.3552 219.4461 181.6075 218 182.1333 C215.0436 183.2084 211.6623 183.7378 210 183.1333 C208.9512 182.7519 207 178.1333 207 178.1333 "/>
<path id="3" d="M224 131.1333 L226 69.1333 "/>
<path id="4" d="M241 176.1333 C241 176.1333 241.9349 155.0685 239 137.1333 C237.7205 129.3141 233.5613 128.9399 232 121.1333 C229.8285 110.2759 232.7512 108.6415 231 97.1333 C229.3386 86.2156 225 75.1333 225 75.1333 "/>
<path id="5" d="M242 174.1333 C242 174.1333 244.4863 182.2412 246 184.1333 C246.367 184.592 249.8462 184.3641 250 184.1333 C250.3462 183.6141 249.0876 179.8277 250 178.1333 C251.6376 175.0921 255.058 174.8555 257 171.1333 C260.3925 164.631 261.9281 162.6832 262 155.1333 C262.3986 113.2796 258 66.1333 258 66.1333 "/>
<path id="6" d="M257 67.1333 C257 67.1333 259.4924 66.7103 260 67.1333 C261.2127 68.1439 262.3624 69.5828 263 72.1333 C267.0753 88.4346 267.2805 89.5802 270 107.1333 C272.7598 124.9468 273.5189 125.3315 274 143.1333 C274.5056 161.8412 274.7997 162.9351 272 181.1333 C269.9368 194.5445 269.9004 197.8076 264 208.1333 C259.4879 216.0295 256.4389 216.6 248 223.1333 C241.2863 228.331 233 232.1333 233 232.1333 "/>
<path id="7" d="M231 232.1333 C231 232.1333 227.94 260.3956 229 288.1333 C230.9203 338.3803 237 351.3871 237 389.1333 C237 392.8706 232.9571 396.4953 229 399.1333 C225.9422 401.1718 222.4058 401.3766 219 401.1333 C217.5439 401.0293 216.0661 399.8086 215 398.1333 C213.095 395.1398 212.5276 394.0025 212 390.1333 C211.1216 383.6917 212.937 379.1318 212 376.1333 C211.7616 375.3703 207 374.1333 207 374.1333 "/>
<path id="8" d="M213 380.1333 L211 380.1333 "/>
</g>
</g>
</svg>
