<?xml version="1.0" encoding="utf-8"?>
<!DOCTYPE svg PUBLIC "-//W3C//DTD SVG 1.1//EN" "http://www.w3.org/Graphics/SVG/1.1/DTD/svg11.dtd">
<svg viewBox="0 0 800 800" preserveAspectRatio="xMinYMin meet" xmlns="http://www.w3.org/2000/svg" version="1.1">
<g fill="none" stroke="black" stroke-linecap="round" stroke-linejoin="round" stroke-width="1.8385">
<g transform="translate(87.52,196.0313) scale(1.6317) translate(-149,-79)">
<path id="0" d="M174 298 C174 298 191.3679 292.2385 207 284 C227.9735 272.9464 226.9518 270.1819 248 259 C274.6829 244.8247 276.6697 247.3029 303 233 C316.6284 225.5969 315.3358 222.4532 329 215 C369.7844 192.7539 413 173 413 173 "/>
<path id="1" d="M184 319 C184 319 201.896 314.3415 218 307 C235.406 299.0649 234.5817 296.2384 252 288 C271.2745 278.8837 272.3748 280.5166 292 272 C298.7048 269.0904 299.115 269.1849 305 265 C321.2946 253.4127 320.337 249.7415 337 240 C351.5128 231.5156 354.4215 234.6476 370 227 C381.4213 221.3932 380.6069 218.9075 392 213 C407.287 205.0734 424 199 424 199 "/>
<path id="2" d="M416 173 C416 173 414.4135 156.0076 419 145 C425.4551 129.5079 429.7458 128.7559 441 113 C444.7065 107.8109 444.473 107.1917 449 103 C457.6266 95.0124 458.3512 95.2366 468 88 C472.3061 84.7704 472.8768 83.6493 477 82 C479.1701 81.132 483 82 483 82 "/>
<path id="3" d="M428 199 C428 199 429.2217 197.0576 430 197 C439.0572 196.3291 443.3158 198.4605 455 197 C462.3026 196.0872 463.4936 195.3833 470 192 C475.2347 189.2779 475.8401 188.5216 480 184 C487.0041 176.3868 485.6614 173.8938 493 167 C501.3979 159.1111 502.6545 158.8359 513 153 C521.7195 148.0813 532 145 532 145 "/>
<path id="4" d="M484 79 C484 79 482.7987 87.3633 479 93 C468.1697 109.0707 465.0788 108.6581 453 125 C448.3038 131.3536 444.861 138.583 445 139 C445.0654 139.1963 454.3937 142.0112 458 140 C474.153 130.9916 479.3046 120.9712 497 110 C500.5698 107.7867 507.7857 108.759 508 109 C508.179 109.2014 507.6799 116.3201 505 119 C493.2499 130.7501 486.1488 131.9782 473 144 C470.7469 146.06 470.5301 147.6429 470 151 C469.1489 156.3903 469.3472 161.8808 470 163 C470.2222 163.3808 473.9736 163.7964 477 163 C482.7569 161.485 483.8544 161.4304 489 158 C507.1216 145.9189 509.6183 140.6583 525 131 C527.0333 129.7233 531.4956 130.5676 532 131 C532.3706 131.3176 533.0191 135.3865 532 137 C528.5048 142.5341 520 150 520 150 "/>
<path id="5" d="M173 299 C173 299 167.5819 292.8141 164 292 C159.7571 291.0357 152.2794 292.4647 151 294 C149.2387 296.1136 147.6525 304.4173 149 310 C150.3176 315.4586 153.0342 317.45 158 323 C161.1036 326.4687 162.3675 328.0093 166 329 C171.2775 330.4393 175.7515 330.487 180 329 C182.5643 328.1025 184.8235 325.1374 186 322 C187.1447 318.9474 186 313 186 313 "/>
</g>
</g>
</svg>
