<?xml version="1.0" encoding="utf-8"?>
<!DOCTYPE svg PUBLIC "-//W3C//DTD SVG 1.1//EN" "http://www.w3.org/Graphics/SVG/1.1/DTD/svg11.dtd">
<svg viewBox="0 0 800 800" preserveAspectRatio="xMinYMin meet" xmlns="http://www.w3.org/2000/svg" version="1.1">
<g fill="none" stroke="black" stroke-linecap="round" stroke-linejoin="round" stroke-width="1.5649">
<g transform="translate(87.52,185.2898) scale(1.9171) translate(-106,-109)">
<path id="0" d="M106 315 C106 315 111.0445 320.7475 116 323 C120.6912 325.1324 123.2035 322.9443 128 325 C132.4768 326.9186 137 332 137 332 "/>
<path id="1" d="M106 314 C106 314 110.8774 312.6021 114 310 C119.2808 305.5993 119.0522 302.5734 124 299 C126.6041 297.1193 128.6766 298.6617 132 297 C136.062 294.969 135.9925 292.2523 140 291 C150.247 287.7978 154.9827 290.713 164 287 C168.9636 284.9561 168.8132 280.0256 174 277 C179.3506 273.8788 182.2601 276.1668 188 273 C195.6573 268.7753 195.1852 265.6889 203 261 C209.5475 257.0715 211.3292 258.6386 218 255 C221.7502 252.9544 221.905 250.5475 225 249 C226.5475 248.2263 228.9541 249.6972 230 249 C231.6734 247.8844 231.5613 245.0323 234 243 C239.8258 238.1452 241.5452 236.4206 248 234 C251.715 232.6069 254.2138 235.4915 258 234 C268.6472 229.8056 269.92 225.7006 281 221 C285.0505 219.2816 287.4909 221.7545 291 220 C296.6814 217.1593 296.5316 213.8535 303 210 C319.47 200.1881 324.2221 200.1923 338 192 C339.3199 191.2152 338.6974 188.9304 340 188 C344.3674 184.8804 347.8512 185.319 352 182 C353.9262 180.459 353.2824 177.7176 355 176 C356.3359 174.6641 360 174 360 174 "/>
<path id="2" d="M138 333 C138 333 140.2547 329.4957 143 327 C145.5304 324.6996 146.231 323.923 149 323 C151.2656 322.2448 153.3056 323.9124 155 323 C158.0412 321.3624 158.1911 318.3579 162 316 C167.9535 312.3145 168.9219 311.8627 176 310 C187.3824 307.0046 196.0123 306.9969 200 306 C200.0798 305.9801 199.8767 304.0493 200 304 C201.665 303.334 206.2273 304.1127 210 302 C217.369 297.8733 218.4679 293.7326 225 290 C226.7931 288.9754 230.0819 290.9181 231 290 C235.8965 285.1035 236.8713 278.4139 244 271 C248.1954 266.6368 251.8635 268.3163 256 264 C262.1581 257.5741 260.4372 253.0003 267 247 C276.325 238.4743 280.8539 240.3013 291 232 C296.2637 227.6933 295.1029 223.9644 300 220 C304.1993 216.6005 306.0193 216.3083 312 215 C321.335 212.958 324.4104 214.8974 332 213 C333.8511 212.5372 334.1356 209.4864 336 209 C343.2166 207.1174 348.5298 209.4885 355 207 C358.298 205.7315 360.1104 202.9892 362 199 C363.9951 194.7882 364 188 364 188 "/>
<path id="3" d="M357 172 C357 172 355.9824 168.0117 356 168 C356.0281 167.9812 359.9978 169.9955 360 170 C360.0008 170.0017 357.6222 170.5091 357 170 C353.8133 167.3927 350.9181 165.4116 349 161 C346.7143 155.7429 345.6874 151.7581 347 147 C348.7333 140.7168 351.2344 138.2268 357 132 C363.1529 125.3549 365.4679 123.7326 372 120 C373.7931 118.9754 376.699 120.954 378 120 C381.7005 117.2863 383.1322 110.9339 387 109 C390.4677 107.2661 400.0162 108.9771 400 109 C399.9389 109.0866 385.1652 117.1902 375 126 C371.7253 128.8381 373.1535 131.6713 370 135 C364.8771 140.4075 357 145 357 145 C357 145 365.3644 141.3172 369 137 C371.8852 133.5738 371.5111 128.0472 373 126 C373.3114 125.5718 376.2195 126.6244 377 126 C379.4195 124.0644 380.4621 119.0152 383 118 C386.8621 116.4552 395.285 118.245 397 118 C397.035 117.995 397.0055 115.9945 397 116 C396.9556 116.0444 393.8786 123.1038 390 125 C374.9092 132.3777 352.0056 137.9944 352 138 C351.997 138.003 365.3303 138.1179 378 137 C381.9709 136.6496 383.2372 136.507 386 135 C387.5748 134.141 387.4518 131.6193 389 131 C395.26 128.496 406.0016 126.9947 406 127 C405.9965 127.0116 392.5453 134.4547 386 141 C384.0749 142.9251 385.3826 147.2717 384 149 C383.0206 150.2242 378.7643 150.1083 378 151 C377.465 151.6242 378.7705 154.3306 378 156 C376.3405 159.5956 372 164 372 164 C372 163.9999 376.5206 154.9753 379 152 C379.3476 151.5829 381.4637 152.4767 382 152 C384.3437 149.9167 384.7055 145.7004 388 144 C397.4744 139.11 403.943 140.205 413 136 C414.6785 135.2207 416 131 416 131 C416 131 413.8846 138.2593 410 142 C401.7018 149.9908 398.1071 148.7743 389 157 C383.2688 162.1766 379.0001 169.9994 379 170 C378.9999 170.0004 383.1885 164.5776 388 162 C396.2391 157.5862 398.7239 158.9581 407 155 C409.1898 153.9527 409.3519 151.2637 411 151 C418.4589 149.8066 432.0217 150.9765 432 151 C431.9243 151.082 387.3332 176.7751 387 177 C386.977 177.0156 390.8618 178.5174 392 178 C394.1853 177.0067 394.6566 173.7597 398 172 C412.3727 164.4354 422.356 160.6979 430 158 C430.2678 157.9055 432.01 159.9886 432 160 C431.4446 160.6348 427.4129 164.0694 423 166 C420.1767 167.2352 419.074 165.8177 416 167 C406.6499 170.5962 401.4984 173.1589 397 176 C396.6547 176.2181 397.3023 178.8372 397 179 C391.0262 182.2167 383.3425 186.0068 371 190 C367.6595 191.0807 363 190 363 190 "/>
</g>
</g>
</svg>
