<?xml version="1.0" encoding="utf-8"?>
<!DOCTYPE svg PUBLIC "-//W3C//DTD SVG 1.1//EN" "http://www.w3.org/Graphics/SVG/1.1/DTD/svg11.dtd">
<svg viewBox="0 0 800 800" preserveAspectRatio="xMinYMin meet" xmlns="http://www.w3.org/2000/svg" version="1.1">
<g fill="none" stroke="black" stroke-linecap="round" stroke-linejoin="round" stroke-width="1.0993">
<g transform="translate(87.52,125.7272) scale(2.7291) translate(-136,-67.1333)">
<path id="0" d="M143 153.1333 C143 153.1333 149.1851 163.3245 153 174.1333 C167.0245 213.8695 166.1354 219.4446 179 255.1333 C179.9683 257.8196 181.6846 259.6773 184 260.1333 C208.2087 264.9017 214.6355 265.7042 245 268.1333 C264.2118 269.6703 265.3107 270.3465 284 268.1333 C302.2417 265.9731 308.0393 263.6696 321 259.1333 C322.5333 258.5967 322.901 256.7613 324 254.1333 C334.2548 229.611 337.9181 228.4608 344 204.1333 C347.7873 188.984 342.4516 186.1882 345 170.1333 C347.2701 155.8316 353.9952 141.1381 354 141.1333 C354.0025 141.1308 356.2498 152.4556 354 161.1333 C349.7671 177.4602 345.5035 177.8367 340 195.1333 C331.6342 221.4258 326 249.1333 326 249.1333 "/>
<path id="1" d="M144 156.1333 C144 156.1333 157.4451 148.8986 171 145.1333 C183.678 141.6117 184.5495 141.6776 198 141.1333 C270.3593 138.2055 273.8497 137.6976 344 138.1333 C351.2201 138.1782 359 142.1333 359 142.1333 "/>
<path id="2" d="M144 150.1333 C144 150.1333 142.1365 141.2321 144 135.1333 C147.0265 125.2285 147.9628 122.61 155 114.1333 C168.8718 97.4242 170.5638 94.9381 188 82.1333 C200.9663 72.6112 204.233 70.5411 219 67.1333 C233.5692 63.7712 237.4955 63.9313 253 67.1333 C281.2381 72.9651 283.2279 75.3948 311 86.1333 C319.8683 89.5624 320.7073 90.1496 328 96.1333 C339.5882 105.6416 339.8227 106.6838 350 118.1333 C355.6057 124.4397 357.4477 125.7526 360 132.1333 C361.5597 136.0327 360.8502 142.4425 360 143.1333 C358.3233 144.4956 351.3284 143.3012 344 145.1333 C340.0027 146.1327 339.9724 148.4323 336 149.1333 C315.9771 152.6668 314.4076 153.5579 293 154.1333 C222.029 156.0412 219.3551 152.791 150 154.1333 C144.1518 154.2465 138 157.1333 138 157.1333 "/>
<path id="3" d="M147 157.1333 C147 157.1333 137.8033 154.7727 136 153.1333 C135.328 152.5224 135.1766 148.9447 136 147.1333 C136.998 144.9377 139.1179 142.8177 141 142.1333 C142.5559 141.5676 146.4856 142.5332 147 143.1333 C147.5025 143.7195 147 149.1333 147 149.1333 "/>
<path id="4" d="M356 150.1333 C356 150.1333 354.1061 134.9211 355 133.1333 C355.325 132.4832 364.7055 131.7733 365 132.1333 C365.4586 132.6938 365.4036 141.5016 364 144.1333 C363.2459 145.5472 357 147.1333 357 147.1333 "/>
<path id="5" d="M164 147.1333 L172 148.1333 "/>
<path id="6" d="M194 148.1333 L201 148.1333 "/>
<path id="7" d="M223 147.1333 L235 150.1333 "/>
<path id="8" d="M261 150.1333 L269 150.1333 "/>
<path id="9" d="M295 150.1333 L312 147.1333 "/>
<path id="10" d="M330 149.1333 L336 149.1333 "/>
</g>
</g>
</svg>
