<?xml version="1.0" encoding="utf-8"?>
<!DOCTYPE svg PUBLIC "-//W3C//DTD SVG 1.1//EN" "http://www.w3.org/Graphics/SVG/1.1/DTD/svg11.dtd">
<svg viewBox="0 0 800 800" preserveAspectRatio="xMinYMin meet" xmlns="http://www.w3.org/2000/svg" version="1.1">
<g fill="none" stroke="black" stroke-linecap="round" stroke-linejoin="round" stroke-width="1.4161">
<g transform="translate(87.52,87.52) scale(2.1185) translate(-134,-97.1333)">
<path id="0" d="M146 179.1333 C146 179.1333 157.422 164.8281 170 158.1333 C185.871 149.6859 188.9944 149.6452 208 146.1333 C233.9555 141.3372 246.3133 143.1298 262 141.1333 C262.3602 141.0875 262.7189 139.1419 263 139.1333 C288.7027 138.3465 315.1856 135.1457 360 138.1333 C370.9108 138.8607 373.1111 141.3014 383 147.1333 C391.4736 152.1306 391.9987 153.7987 399 161.1333 C402.0549 164.3337 403.1948 165.4293 404 169.1333 C405.3292 175.2477 405.2415 177.4291 404 184.1333 C402.9301 189.9106 402.605 191.9515 399 196.1333 C391.4318 204.9125 388.8166 207.6797 379 213.1333 C373.1101 216.4055 370.3585 213.6805 363 216.1333 C355.9301 218.49 355.6104 221.03 349 223.1333 C345.7411 224.1703 341 223.1333 341 223.1333 "/>
<path id="1" d="M155 174.1333 C155 174.1333 152.6866 173.6052 152 174.1333 C147.951 177.248 145.9032 178.7122 142 184.1333 C137.2889 190.6765 135.9537 192.0512 134 199.1333 C132.4104 204.8955 132.2344 209.6021 134 213.1333 C135.7025 216.5384 139.2791 218.6304 145 221.1333 C154.3211 225.2113 155.7544 226.4578 166 227.1333 C199.5206 229.3435 202.796 226.2595 236 227.1333 C238.871 227.2089 241.9092 229.2392 242 229.1333 C242.2599 228.8301 242.966 223.9975 242 220.1333 C240.6851 214.8738 238.0754 214.5106 237 209.1333 C235.2793 200.5298 234.4009 197.9002 236 190.1333 C237.4164 183.2538 239.3349 181.7194 244 175.1333 C247.4706 170.2336 248.6526 167.3013 253 166.1333 C276.0042 159.9531 289.9992 156.028 311 157.1333 C317.8209 157.4923 321.3306 163.0775 329 170.1333 C333.147 173.9486 333.9948 174.9197 336 180.1333 C341.0678 193.3095 341.5264 194.9101 344 209.1333 C345.3837 217.0894 344 226.1333 344 226.1333 "/>
<path id="2" d="M261 230.1333 C261 230.1333 253.4006 218.1762 251 207.1333 C248.8067 197.0441 249.0685 193.2387 251 184.1333 C251.9645 179.5866 254.0723 177.5989 258 174.1333 C261.5773 170.9769 263.367 169.4953 268 169.1333 C292.0778 167.2523 305.3572 167.1588 322 169.1333 C323.797 169.3465 325.8222 172.5095 327 176.1333 C331.8612 191.0909 330.1386 193.8012 335 209.1333 C336.3113 213.2689 339.5289 213.8359 340 217.1333 C340.6873 221.9444 338 230.1333 338 230.1333 "/>
<path id="3" d="M223 146.1333 C223 146.1333 217.3099 139.7474 216 134.1333 C214.2705 126.7211 213.297 120.4817 216 116.1333 C221.0002 108.0895 228.7973 99.5266 239 97.1333 C260.5524 92.0778 269.1315 96.2758 297 97.1333 C300.393 97.2377 301.467 97.4446 304 99.1333 C308.0528 101.8352 310.3343 102.9692 312 107.1333 C317.2349 120.2206 320 139.1333 320 139.1333 "/>
<path id="4" d="M230 143.1333 C230 143.1333 227.9078 133.3121 227 131.1333 C226.9429 130.9963 225.005 131.1683 225 131.1333 C224.755 129.4183 223.1128 119.3637 225 117.1333 C229.127 112.2559 236.403 108.4134 247 105.1333 C255.3697 102.5427 257.0879 103.9268 267 104.1333 C280.912 104.4232 285.5209 102.7306 295 106.1333 C300.0527 107.9471 302.6484 111.8026 306 118.1333 C310.8338 127.2638 313 140.1333 313 140.1333 "/>
<path id="5" d="M260 230.1333 C260 230.1333 290.6396 232.2934 318 230.1333 C326.7146 229.4453 336 224.1333 336 224.1333 "/>
<path id="6" d="M136 217.1333 C136 217.1333 140.8583 222.5648 143 228.1333 C145.5268 234.703 143.5247 236.1442 146 243.1333 C151.8496 259.6499 152.3706 260.8746 160 276.1333 C161.9073 279.948 164.2918 279.5272 166 283.1333 C168.3293 288.0508 166.6318 289.8049 169 295.1333 C172.3747 302.7263 174.9272 302.2707 178 310.1333 C191.569 344.8539 190.9751 349.9239 203 382.1333 C203.6091 383.7649 206 385.1333 206 385.1333 "/>
<path id="7" d="M407 173.1333 C407 173.1333 409.8958 176.8698 410 180.1333 C411.277 220.1465 407.0661 224.7542 410 267.1333 C411.4711 288.3829 413.5806 289.6171 419 310.1333 C420.352 315.2517 423.0996 315.2457 424 320.1333 C426.3388 332.8294 424.1822 334.6814 426 348.1333 C426.6048 352.6087 429.0331 357.1244 429 357.1333 C426.6513 357.7681 407.5675 354.6383 389 358.1333 C366.9049 362.2924 365.9248 370.1162 344 373.1333 C314.1857 377.2362 309.9298 369.9151 280 373.1333 C265.9352 374.6457 265.1005 381.2279 251 383.1333 C230.0941 385.9585 211.6139 382.8838 206 383.1333 C205.9889 383.1338 206.1 385.0833 206 385.1333 C205.6 385.3333 202 385.1333 202 385.1333 "/>
<path id="8" d="M226 151.1333 C226 151.1333 213.3345 149.2106 203 151.1333 C193.3447 152.9297 191.4182 153.5713 183 159.1333 C164.6356 171.2669 161.7603 173.733 147 188.1333 C143.3883 191.6569 143.253 193.8705 142 199.1333 C140.9721 203.4505 140.8023 206.5669 142 209.1333 C142.9901 211.2549 145.3325 212.5388 149 214.1333 C156.2654 217.2922 157.1211 218.4407 165 219.1333 C201.0711 222.3044 240 222.1333 240 222.1333 "/>
<path id="9" d="M259 223.1333 C259 223.1333 326.3815 223.3832 336 223.1333 C336.0065 223.1332 336 221.1333 336 221.1333 "/>
<path id="10" d="M226 149.1333 C226 149.1333 261.7268 149.7654 296 148.1333 C302.9199 147.8038 303.1069 145.4091 310 145.1333 C339.7791 143.9422 342.6685 144.2748 371 145.1333 C373.3504 145.2046 373.8573 145.7469 376 147.1333 C382.0676 151.0594 383.1219 151.0335 388 156.1333 C393.6134 162.0019 395.3425 163.183 398 170.1333 C401.153 178.3797 402.8176 184.0196 401 190.1333 C398.987 196.9042 394.7168 202.7238 387 207.1333 C370.5438 216.5369 345 222.1333 345 222.1333 "/>
<path id="11" d="M347 217.1333 C347 217.1333 357.6677 217.3327 363 214.1333 C369.8901 209.9993 369.4162 205.2493 377 199.1333 C384.2838 193.2593 390.6063 194.0542 394 189.1333 C397.2914 184.3609 397.5326 177.3231 397 170.1333 C396.7626 166.9284 392 162.1333 392 162.1333 "/>
<path id="12" d="M148 245.1333 C148 245.1333 175.4081 260.3053 201 262.1333 C275.0444 267.4222 288.463 263.4446 358 260.1333 C362.9955 259.8954 364.7223 258.0688 369 254.1333 C388.6275 236.076 408 214.1333 408 214.1333 "/>
<path id="13" d="M166 284.1333 C166 284.1333 170.0052 282.6605 173 283.1333 C178.5288 284.0063 179.2571 286.9792 185 287.1333 C249.9831 288.8778 256.9573 293.5101 322 287.1333 C354.7401 283.9235 358.2502 278.7583 389 267.1333 C396.9012 264.1463 397.4319 262.0759 404 256.1333 C407.4846 252.9806 410 248.1333 410 248.1333 "/>
<path id="14" d="M178 313.1333 C178 313.1333 182.5179 312.225 186 313.1333 C193.2101 315.0142 193.9586 318.8836 201 319.1333 C259.3042 321.2009 265.4761 321.2485 327 318.1333 C342.7918 317.3337 344.2042 315.8411 359 311.1333 C365.1502 309.1765 366.436 307.7194 371 304.1333 C372.3413 303.0795 371.799 300.7338 373 300.1333 C381.5573 295.8547 387.0692 297.1887 397 291.1333 C406.0109 285.6389 414 275.1333 414 275.1333 "/>
<path id="15" d="M192 343.1333 C192 343.1333 201.0908 345.9124 210 346.1333 C260.7705 347.3921 264.0853 352.0461 313 346.1333 C351.78 341.4456 355.4224 337.8072 392 324.1333 C406.5636 318.689 420 306.1333 420 306.1333 "/>
<path id="16" d="M202 369.1333 C202 369.1333 263.6022 372.6114 315 369.1333 C324.374 368.499 325.0245 362.7356 335 360.1333 C346.9551 357.0146 348.6501 359.8778 361 357.1333 C370.5197 355.0178 372.2847 352.2375 380 350.1333 C381.0063 349.8589 382.0581 351.4473 383 351.1333 C398.5417 345.9528 404.6148 344.0357 422 336.1333 C424.7595 334.879 427 331.1333 427 331.1333 "/>
<path id="17" d="M202 389.1333 C202 389.1333 252.8587 393.9987 298 392.1333 C309.9264 391.6405 310.6334 386.6629 323 384.1333 C331.9162 382.3096 333.3671 385.4665 342 383.1333 C368.9399 375.8523 370.6143 371.8461 397 364.1333 C401.3574 362.8596 402.7051 365.3413 407 364.1333 C417.536 361.1701 429 355.1333 429 355.1333 "/>
<path id="18" d="M157 217.1333 C157 217.1333 156.077 211.5174 157 207.1333 C157.9084 202.8185 158.1025 201.1308 161 198.1333 C171.1714 187.6112 173.8958 182.2622 186 177.1333 C198.7457 171.7326 203.9041 176.9771 220 173.1333 C236.5151 169.1894 236.9877 163.6287 253 161.1333 C273.2047 157.9846 281.0021 161.8289 297 161.1333 C297.7588 161.1003 298.2954 159.1333 299 159.1333 C316.9683 159.1333 326.1442 157.82 350 161.1333 C360.2867 162.562 362.4083 164.507 371 169.1333 C373.7943 170.6379 374.5773 171.9323 376 175.1333 C380.1719 184.5201 383 196.1333 383 196.1333 "/>
</g>
</g>
</svg>
