<?xml version="1.0" encoding="utf-8"?>
<!DOCTYPE svg PUBLIC "-//W3C//DTD SVG 1.1//EN" "http://www.w3.org/Graphics/SVG/1.1/DTD/svg11.dtd">
<svg viewBox="0 0 800 800" preserveAspectRatio="xMinYMin meet" xmlns="http://www.w3.org/2000/svg" version="1.1">
<g fill="none" stroke="black" stroke-linecap="round" stroke-linejoin="round" stroke-width="0.84965">
<g transform="translate(138.7173,87.52) scale(3.5308) translate(-228,-118.1333)">
<path id="0" d="M228 164.1333 C228 164.1333 227.0063 167.8676 228 170.1333 C238.2628 193.5326 242.0972 196.0972 253 221.1333 C255.0913 225.9357 252.9831 227.2255 255 232.1333 C267.5409 262.6494 271.2909 282.7845 283 294.1333 C288.0468 299.0249 312.1999 299.0334 320 295.1333 C326.0905 292.0881 329.1217 281.8494 335 268.1333 C339.3208 258.0514 337.0794 256.719 341 246.1333 C356.9582 203.0463 375 160.1333 375 160.1333 "/>
<path id="1" d="M231 163.1333 L373 163.1333 "/>
<path id="2" d="M229 164.1333 C229 164.1333 239.347 156.7863 248 148.1333 C259.6197 136.5136 258.8087 133.3072 270 123.1333 C273.8896 119.5973 275.8528 118.4765 281 118.1333 C310.0668 116.1955 316.314 117.2896 345 118.1333 C346.8192 118.1868 348.0013 118.7779 349 120.1333 C353.9194 126.8096 355.0924 128.4809 359 137.1333 C361.8706 143.4897 359.7299 145.9397 363 151.1333 C367.1939 157.7942 376 164.1333 376 164.1333 "/>
<path id="3" d="M234 176.1333 L358 178.1333 "/>
<path id="4" d="M245 191.1333 L357 191.1333 "/>
<path id="5" d="M255 203.1333 L344 205.1333 "/>
<path id="6" d="M266 223.1333 L343 221.1333 "/>
<path id="7" d="M273 233.1333 L336 233.1333 "/>
<path id="8" d="M278 253.1333 L344 253.1333 "/>
<path id="9" d="M279 241.1333 L320 241.1333 "/>
<path id="10" d="M284 279.1333 L332 279.1333 "/>
<path id="11" d="M291 269.1333 L317 269.1333 "/>
<path id="12" d="M290 265.1333 L331 265.1333 "/>
<path id="13" d="M280 259.1333 L328 259.1333 "/>
<path id="14" d="M301 288.1333 L318 288.1333 "/>
<path id="15" d="M296 285.1333 L316 285.1333 "/>
</g>
</g>
</svg>
