<?xml version="1.0" encoding="utf-8"?>
<!DOCTYPE svg PUBLIC "-//W3C//DTD SVG 1.1//EN" "http://www.w3.org/Graphics/SVG/1.1/DTD/svg11.dtd">
<svg viewBox="0 0 800 800" preserveAspectRatio="xMinYMin meet" xmlns="http://www.w3.org/2000/svg" version="1.1">
<g fill="none" stroke="black" stroke-linecap="round" stroke-linejoin="round" stroke-width="2.6546">
<g transform="translate(87.52,170.0192) scale(1.1301) translate(-31,-68)">
<path id="0" d="M187,232C187,232 185.6666758101379,209.9998559903284 187,189C187.62802571659802,179.10859496358103 188.58265984046153,178.8708056514487 191,169C194.567222784066,154.4338402983972 194.20906027001814,154.10665587161327 199,140C203.13827750620683,127.81507178727989 203.1959376044964,127.31792167123201 209,116C213.0107297363295,108.17907701415745 212.8975256177411,105.83112555262161 219,101C234.68045322222332,88.58630786573988 237.85225575012916,88.51248703914477 257,78C262.9549336299947,74.73062467372841 263.40953362941513,74.853568666727 270,73C279.2066384873246,70.41063292543995 279.57152858082486,69.69326995729229 289,69C312.9807996385576,67.2367059089296 314.279457156203,67.2348211985872 338,68C344.344229508947,68.20465256480474 345.04218927787133,68.56824052158013 351,71C368.98455345675563,78.34063406398188 370.1355503365014,78.28150358374655 387,88C399.07724281971496,94.9597670486493 400.25234337515564,95.50228328861318 410,105C418.9832584060458,113.75291844691644 420.70101696449694,114.78587311091215 426,126C441.3546137900629,158.49464778827263 441.1296326328354,160.6856570826853 453,196C461.0115518755433,219.8343668297413 460.367399772353,220.39443058448944 466,245C469.83340618182,261.7459322679506 472,279 472,279"/>
<path id="1" d="M208,250C208,250 208.16062413457811,243.15791050597764 210,237C219.5060771803227,205.17530683109356 217.30570583166016,201.7859652926327 231,173C240.68357843763067,152.64472287600083 243.72078171606284,150.47758834542242 259,134C267.779242971431,124.53218895237833 270.54690667056235,124.21739352169472 282,118C286.926172694447,115.32579196587161 288.1049520515951,115.41128241500499 294,115C308.96780745756916,113.9557343634254 311.7258307458618,111.90269384070109 325,115C338.81655466452235,118.22386275505522 342.1686411988956,119.94161591790445 354,129C372.40795596316593,143.09359128429892 373.6131882610613,145.7281610600103 389,164C396.8629748151638,173.337282593007 398.11013565635966,176.9236498648392 402,186C402.7860347637408,187.83408111539518 400.2594827014682,190.00060329396408 401,192C404.2982250730661,200.90520769727843 408.21715627057443,202.13957768003627 412,213C423.4204223360757,245.78766412615295 423.17276938428773,260.49804502157155 432,281C433.00658594221954,283.33787702709054 437.6763211354872,284.35470559218026 443,285C453.1978650544493,286.23610485508476 457.33775068234587,286.64191056806873 465,285C467.5374981506517,284.4562503962889 471,279 471,279"/>
<path id="2" d="M186,227C186,227 183.34805221624774,240.1662246475765 183,252C182.87595794403361,256.2174299028567 183.9503836911827,260.4751918455913 185,261C187.98736949432614,262.49368474716306 200.76178809488357,263.42431666689225 203,262C204.74603965372955,260.88888385671754 207,247 207,247"/>
<path id="3" d="M183,255C183,255 45.455100210468736,253.4838945433995 31,257C30.59519570484685,257.09846590963184 30.404828511694912,275.6827617056497 35,291C40.36538489117441,308.8846163039147 42.46982125955314,309.7126990289569 52,327C63.83260960314311,348.46380346616655 62.64178787160388,351.21680700922553 78,369C99.25022016637037,393.6055180873762 102.2494533408407,393.7128814284283 128,415C139.18249277064675,424.2441940237346 140.1556540385137,423.9225032457116 153,431C164.41805769539488,437.2915828117482 164.71664332876355,437.6842260344304 177,442C201.3641749686504,450.5603857997961 201.7851534235846,452.0880169006983 227,457C277.9432716229762,466.92401395252784 279.00986111203406,465.7611833334441 331,472C353.7813122764282,474.7337574731714 354.02544495230574,474.09310966916996 377,475C391.9449316715386,475.5899315133502 392.2609712536507,475.92118929664684 407,475C415.93553617747426,474.44152898890786 416.236305098273,474.19092372543173 425,472C444.0464302530866,467.23839243672836 445.06059579903217,468.17576168038715 463,461C481.87022234347085,453.45191106261165 483.810435294924,453.3069975717991 500,442C513.9965355738864,432.2246418214127 514.487942532295,430.23886608786074 526,417C534.0216436966748,407.7751097488239 535.3654192610925,407.0071292549053 540,396C550.783789625364,370.3884996397605 550.4847192850701,368.7287943619824 558,341C564.9006393703655,315.53902025416846 569,289 569,289"/>
<path id="4" d="M472,262C472,262 513.7233254937349,266.7887495800215 555,269C569.3305824319245,269.7677097731388 583.4248258740488,267.3673084614537 584,268C584.3360336291399,268.3696369920539 575,291 575,291"/>
<path id="5" d="M203,264C203,264 206.1529287072926,268.9659526028994 208,269C284.8916556240189,270.41735770735516 419.99999999672036,268.0000000000159 420,268C420.0000000000928,267.99999999999954 415.7485281374239,267.1257359312881 414,268C411.3772077938642,269.3113961030679 411.2814903064304,272.03110581614174 408,274C401.983934438211,277.6096393370734 401.10845925049733,278.04517370611324 394,280C381.56587399473704,283.41938465144733 380.98171105606593,283.95682679013754 368,285C325.55590717279483,288.4106860307576 323.53268772699334,288.12562762680016 282,289C277.6781221257433,289.09098690261595 273.00001357914965,287.00001357914965 273,287C272.99998888978666,286.99998888978666 279.0150395921233,286.5112796940925 281,288C284.68635504319957,290.76476628239964 284.95131694212705,294.95131694212705 289,299C290.4916200739532,300.4916200739532 291.4612112832568,300.5032804684633 294,301C313.95201293924395,304.90365470550426 314.9329696017355,306.56664068583825 335,308C348.95366657641796,308.9966904697441 360.1992856465955,308.0270476551491 364,306C365.0702676782314,305.4291905716099 365,292 365,292"/>
<path id="6" d="M46,286C46,286 96.27658043329829,285.19076725611853 146,288C184.4683046749387,290.1733505466067 184.48237493934394,292.8846038553881 223,296C252.38792662061607,298.3769646531381 252.51923025858724,298.32998250587695 282,299C318.43410250458555,299.8280477841951 318.80016419163053,300.3532648900325 355,299C371.9343490006122,298.36694022427616 372.1634741046242,295.11692031871786 389,295C443.4163388989932,294.6221087576459 444.0843122276284,297.6879790467479 499,298C531.9386354277914,298.1871513376579 565,296 565,296"/>
<path id="7" d="M60,326C60,326 117.95090550076999,335.677821391173 176,342C218.72163429677607,346.65285126004494 219.13401940277924,347.7755707822135 262,348C409.47441669438183,348.77211736489204 558,344 558,344"/>
<path id="8" d="M96,377C96,377 101.47667113230704,380.07944518871784 107,381C127.75193560290356,384.4586559338173 128.4710453238829,384.4891961630795 150,386C213.81143830347295,390.47799567041914 213.9889246941882,390.1550633197417 278,393C326.4572930657609,395.15365746958934 326.53975174895993,395.8157405009466 375,396C457.91842116670864,396.31527916793425 541,394 541,394"/>
<path id="9" d="M152,427C152,427 496.98801912096746,441.8952354476858 500,442C500.0268282727998,442.00093315731476 497.10394733192203,439.72763132345414 497,439C496.8873903904178,438.2117327329247 499.30956135950225,436.08346475825794 499,435C496.5751026838989,426.51285939364595 495.6692824415719,421.45864746519237 489,411C474.3600341060723,388.0418716663406 470.7905508470178,389.0784973917953 455,366C444.9802441425631,351.35574143913066 442.8427364688258,350.5806305835355 437,335C431.54419972116267,320.45119925643376 434.59884937377234,318.1948221819756 431,302C429.64897563961943,295.9203903782875 429.76750025188914,295.32211586901763 427,290C423.52490025188916,283.31711586901764 420.14813819697815,282.9670505471616 418,277C416.41270576577966,272.590849349388 417.6219435910961,270.6708461335579 418,265C418.09661441560877,263.5507837658685 418.8882067146022,262.02794832134947 419,262C419.15970469342545,261.9600738266436 422.0125650102004,263.9968587474499 422,264C421.92335343777773,264.0191616405556 411.9790256448961,265.78616194393095 407,265C405.44626150088345,264.75467286856053 403.74354630445884,262.98279014522364 403,261C401.2763244760271,256.4035319360724 401,254.32298537066282 401,249C401,246.3385073146686 403,243 403,243"/>
<path id="10" d="M369,272C369,272 376.83240105168283,311.64172535143245 388,350C399.74637131387624,390.3462319041836 400.5077273561219,390.9513764873284 415,430C418.2745366383843,438.82305705342435 418.6967849148559,439.2219512084554 424,447C433.47077114419636,460.8904643448213 445,474 445,474"/>
<path id="11" d="M306,280C306,280 312.23668117817033,336.71593854173505 320,393C322.2174255980743,409.0763355860391 321.81614499958715,409.4599671413238 326,425C332.22791230610653,448.13224570839565 341,471 341,471"/>
<path id="12" d="M245,283L252,460"/>
<path id="13" d="M193,278C193,278 187.90121256508118,309.52436975587835 186,341C183.41837464178607,383.7402420415417 184,427 184,427"/>
<path id="14" d="M124,265C124,265 119.83691987820181,274.4480166333506 118,284C114.92210753232596,300.0050408319049 114.60297467331465,300.5689401521757 114,317C112.61748071028548,354.6736506447209 114,393 114,393"/>
<path id="15" d="M495,272C495,272 496.52600903422455,283.91631453776415 500,295C506.9310974068083,317.11350125029315 506.5729707967848,318.0837789553662 516,339C522.2976495969774,352.9729100432936 524.9586970577742,352.1990462332374 532,366C537.3249087253164,376.4368211016202 541,388 541,388"/>
</g>
</g>
</svg>
