<?xml version="1.0" encoding="utf-8"?>
<!DOCTYPE svg PUBLIC "-//W3C//DTD SVG 1.1//EN" "http://www.w3.org/Graphics/SVG/1.1/DTD/svg11.dtd">
<svg viewBox="0 0 800 800" preserveAspectRatio="xMinYMin meet" xmlns="http://www.w3.org/2000/svg" version="1.1">
<g fill="none" stroke="black" stroke-linecap="round" stroke-linejoin="round" stroke-width="1.7761">
<g transform="translate(148.3269,87.52) scale(1.6891) translate(-177,-39.1333)">
<path id="0" d="M202 236.1333 C202 236.1333 205.6761 243.8742 211 248.1333 C224.453 258.8957 226.216 261.9837 242 268.1333 C262.302 276.0432 265.2765 276.3154 288 278.1333 C326.3581 281.202 328.3527 279.9914 367 278.1333 C379.3478 277.5397 380.3343 277.0913 392 273.1333 C407.6219 267.8331 408.3101 267.146 423 259.1333 C435.4432 252.3461 437.8265 250.1052 447 243.1333 C447.8321 242.5009 448 240.1333 448 240.1333 C447.9999 240.1336 443.0481 270.6941 435 300.1333 C424.1304 339.8933 420.7166 348.1316 410 379.1333 C409.6286 380.2076 407.2378 380.2159 407 381.1333 C404.7706 389.7324 403.1594 406.0437 403 406.1333 C402.9735 406.1482 391 390.1333 391 390.1333 "/>
<path id="1" d="M201 238.1333 C201 238.1333 215.709 260.9059 225 284.1333 C231.2163 299.674 227.9647 301.7688 233 318.1333 C235.8257 327.3168 238.7415 327.0991 241 336.1333 C244.5007 350.1363 241.9462 351.8821 245 366.1333 C246.2936 372.1703 249.3327 372.3948 250 378.1333 C251.6441 392.2728 249.2452 407.5658 250 409.1333 C250.055 409.2476 256.5273 406.0365 263 405.1333 C277.4554 403.1163 278.0224 403.3371 293 403.1333 C351.3597 402.3393 395.3793 403.3833 410 403.1333 C410.0043 403.1333 410 401.1333 410 401.1333 "/>
<path id="2" d="M200 235.1333 C200 235.1333 197 233.6245 197 233.1333 C197 228.9584 201.246 219.5944 200 216.1333 C199.0358 213.4549 192.6803 212.8136 188 208.1333 C182.3837 202.517 180.7588 200.4785 178 194.1333 C176.6468 191.0209 176.7922 188.4117 178 185.1333 C179.6881 180.5513 183.5385 179.7267 185 175.1333 C186.4344 170.6253 186.4408 167.4557 185 163.1333 C183.6392 159.0511 179.7252 158.4462 178 154.1333 C176.3333 149.9666 175.9972 146.944 177 143.1333 C177.8947 139.7336 179.5856 138.1209 183 135.1333 C187.0053 131.6287 189.4111 132.7222 193 129.1333 C197.0375 125.0959 198.8122 123.2239 200 118.1333 C201.7864 110.4773 200.2473 101.4823 200 99.1333 C199.9973 99.1073 198.0287 99.2266 198 99.1333 C197.3651 97.0698 194.754 87.6059 196 86.1333 C199.6701 81.7959 209.9624 80.8546 220 73.1333 C228.289 66.7572 227.9011 60.9504 235 56.1333 C238.8408 53.527 242.9188 56.3425 248 54.1333 C252.9378 51.9865 253.6453 48.6217 258 46.1333 C259.1954 45.4502 260.6762 45.4714 262 46.1333 C266.468 48.3673 267.418 51.4452 272 53.1333 C275.2783 54.3411 277.1894 54.2881 281 53.1333 C292.4446 49.6653 293.8876 45.9114 305 43.1333 C309.9272 41.9015 311.2504 44.6444 317 44.1333 C333.1439 42.6983 340.5821 37.2907 350 39.1333 C354.6291 40.039 358.6142 52.0056 363 53.1333 C368.4728 54.5406 377.3769 47.4607 385 48.1333 C389.4927 48.5297 391.6655 55.1998 397 56.1333 C408.0771 58.0718 417.247 53.1397 425 55.1333 C427.6748 55.8211 429.0985 64.0971 432 65.1333 C437.7638 67.1918 447.6635 64.2053 453 65.1333 C453.685 65.2525 454.8979 67.2947 455 69.1333 C455.7951 83.4446 453.1746 95.3252 455 101.1333 C455.3683 102.3053 465.4787 102.8537 466 104.1333 C467.6724 108.2384 463.7446 119.6131 466 128.1333 C467.1636 132.5292 472.555 133.7866 475 138.1333 C475.9739 139.8648 475.8475 141.6851 475 144.1333 C471.7351 153.5653 467.8725 154.7709 466 164.1333 C464.2993 172.6369 467.8258 174.7748 467 184.1333 C466.4048 190.8792 463.1888 195.1127 463 198.1333 C462.976 198.5175 465.5303 199.1001 466 200.1333 C467.3836 203.1773 468.5717 205.56 468 209.1333 C466.8829 216.1154 465.9161 217.9921 462 225.1333 C457.7302 232.9194 451 240.1333 451 240.1333 "/>
<path id="3" d="M215 238.1333 C215 238.1333 228.6311 229.4208 242 226.1333 C257.5055 222.3205 266.2033 224.5329 276 223.1333 C276.3659 223.0811 276.6208 221.1945 277 221.1333 C285.7392 219.7238 298.2608 219.5429 307 218.1333 C307.3792 218.0722 307.7244 216.1407 308 216.1333 C327.3597 215.6171 362.6403 215.6171 382 216.1333 C382.2756 216.1407 382.695 218.1068 383 218.1333 C388.7165 218.6304 394.7653 216.4276 405 218.1333 C417.7158 220.2526 419.9745 220.6206 431 226.1333 C438.3503 229.8085 437.59 233.5021 445 238.1333 C452.927 243.0877 463 246.1333 463 246.1333 "/>
<path id="4" d="M208 243.1333 L228 233.1333 "/>
<path id="5" d="M227 259.1333 C227 259.1333 237.3378 274.1737 245 289.1333 C247.4493 293.9152 245.4872 295.4666 248 300.1333 C255.5079 314.0765 258.7656 313.6646 266 328.1333 C273.4299 342.9931 271.2527 344.8632 278 360.1333 C280.5492 365.9025 282.7581 365.4425 285 371.1333 C288.9702 381.2115 291 393.1333 291 393.1333 "/>
<path id="6" d="M262 279.1333 C262 279.1333 268.9784 295.6504 276 308.1333 C276.9997 309.9106 278.9435 309.3725 280 311.1333 C284.265 318.2417 283.2766 320.1979 288 328.1333 C295.6226 340.9394 298.1549 340.1766 305 353.1333 C311.8109 366.0254 311.9747 367.3802 316 381.1333 C317.7139 386.9892 315.8834 392.3964 317 394.1333 C317.5028 394.9154 325 395.1333 325 395.1333 "/>
<path id="7" d="M296 283.1333 C296 283.1333 319.2661 320.9719 343 356.1333 C345.6573 360.07 347.9541 359.3143 350 363.1333 C354.8123 372.1162 355.0975 373.5787 358 384.1333 C360.4803 393.1525 359.1248 397.5076 361 403.1333 C361.3125 404.0709 365 405.1333 365 405.1333 "/>
<path id="8" d="M332 289.1333 C332 289.1333 347.8088 321.8896 367 351.1333 C378.8295 369.1592 385.2653 369.2333 395 385.1333 C398.0882 390.1774 395.7876 396.9002 397 400.1333 C397.1924 400.6465 401 401.1333 401 401.1333 "/>
<path id="9" d="M361 281.1333 C361 281.1333 366.8314 296.7776 376 306.1333 C389.4688 319.877 394.3673 318.1061 410 331.1333 C414.6566 335.0138 418 341.1333 418 341.1333 "/>
<path id="10" d="M397 280.1333 L440 309.1333 "/>
<path id="11" d="M432 270.1333 C432 270.1333 421.8495 276.7497 411 281.1333 C372.7446 296.5901 370.2734 298.7551 333 310.1333 C325.7043 312.3604 323.7578 308.5171 316 310.1333 C300.9028 313.2786 300.2724 317.4667 285 320.1333 C269.9941 322.7534 253 321.1333 253 321.1333 "/>
<path id="12" d="M430 300.1333 C430 300.1333 406.3513 311.1202 382 318.1333 C344.3705 328.9706 342.2739 325.5912 305 336.1333 C293.7266 339.3218 292.6491 340.3439 283 346.1333 C278.589 348.7799 279.3352 351.2432 275 354.1333 C269.4726 357.8183 268.5932 357.6609 262 360.1333 C256.7579 362.0991 256.3898 362.1227 251 363.1333 C248.6693 363.5703 246.8662 363.5664 246 363.1333 C245.5669 362.9168 245 360.1333 245 360.1333 "/>
<path id="13" d="M241 331.1333 L267 321.1333 "/>
<path id="14" d="M255 385.1333 C255 385.1333 271.09 375.8784 287 371.1333 C298.3885 367.7368 299.8631 370.7341 312 368.1333 C334.5158 363.3085 334.48 361.029 357 356.1333 C368.661 353.5983 370.5889 356.1079 381 353.1333 C386.4449 351.5777 386.3223 348.4827 392 346.1333 C400.1995 342.7404 403.1028 345.0418 410 341.1333 C416.2241 337.6064 422 329.1333 422 329.1333 "/>
<path id="15" d="M282 400.1333 C282 400.1333 281.3747 397.384 282 396.1333 C283.3288 393.4757 284.1494 391.8437 287 390.1333 C295.4193 385.0817 297.2129 382.7875 307 381.1333 C330.4238 377.1744 335.4348 380.551 358 378.1333 C360.3397 377.8826 360.5959 375.534 363 375.1333 C374.0735 373.2878 375.9354 375.1441 388 373.1333 C396.4928 371.7179 397.9758 371.9647 405 368.1333 C413.2219 363.6486 421 355.1333 421 355.1333 "/>
<path id="16" d="M235 301.1333 C235 301.1333 259.4433 301.7044 276 298.1333 C280.6615 297.1279 283.6368 293.4418 286 290.1333 C286.9364 288.8224 286 284.1333 286 284.1333 "/>
<path id="17" d="M237 253.1333 C237 253.1333 237.2462 250.6094 238 250.1333 C244.1675 246.2381 247.3949 242.3469 256 241.1333 C282.9203 237.3369 286.2808 241.3465 316 239.1333 C332.9832 237.8686 333.0994 234.97 350 234.1333 C383.0634 232.4965 386.3222 231.8609 417 234.1333 C423.6138 234.6232 426.0387 237.0325 431 240.1333 C432.2578 240.9194 433 244.1333 433 244.1333 "/>
<path id="18" d="M245 269.1333 C245 269.1333 250.8021 263.4575 257 261.1333 C269.654 256.3881 271.2542 254.8206 285 254.1333 C349.0261 250.932 417 253.1333 417 253.1333 "/>
</g>
</g>
</svg>
