<?xml version="1.0" encoding="utf-8"?>
<!DOCTYPE svg PUBLIC "-//W3C//DTD SVG 1.1//EN" "http://www.w3.org/Graphics/SVG/1.1/DTD/svg11.dtd">
<svg viewBox="0 0 800 800" preserveAspectRatio="xMinYMin meet" xmlns="http://www.w3.org/2000/svg" version="1.1">
<g fill="none" stroke="black" stroke-linecap="round" stroke-linejoin="round" stroke-width="1.6273">
<g transform="translate(213.8025,87.52) scale(1.8435) translate(-204,-141.4167)">
<path id="0" d="M209 237.4167 C209 237.4167 207.8781 248.0197 210 257.4167 C218.1323 293.431 223.3382 294.0545 230 330.4167 C235.1036 358.2739 229.5385 360.3356 234 388.4167 C237.8855 412.8724 241.7465 412.8081 247 437.4167 C251.1887 457.0373 248.6993 472.2797 253 477.4167 C255.6857 480.6246 268.1029 480.2837 283 480.4167 C323.6734 480.7798 343.2241 481.4202 365 478.4167 C366.6884 478.1838 369.6316 473.0836 370 468.4167 C372.3422 438.7489 366.8829 434.2703 371 402.4167 C376.1878 362.2794 382.5357 362.0493 389 321.4167 C396.4453 274.6175 399 226.4167 399 226.4167 "/>
<path id="1" d="M209 239.4167 C209 239.4167 212.7776 232.1219 217 230.4167 C234.7269 223.2577 239.3849 221.6189 261 218.4167 C278.4704 215.8285 279.9177 217.3735 298 218.4167 C305.4152 218.8445 305.7184 221.4167 313 221.4167 C345.039 221.4167 347.3673 218.4167 379 218.4167 C384.7514 218.4167 386.7337 218.9467 391 221.4167 C394.6125 223.5081 398 229.4167 398 229.4167 "/>
<path id="2" d="M209 240.4167 C209 240.4167 209.3598 244.6829 211 247.4167 C213.4404 251.484 214.0073 252.7964 218 255.4167 C228.9291 262.5889 230.4897 264.2466 243 268.4167 C254.6574 272.3025 256.0804 271.6888 269 272.4167 C291.1688 273.6656 292.1081 274.1917 314 272.4167 C328.3448 271.2536 330.467 271.3777 343 266.4167 C352.6453 262.5987 352.1275 258.4677 362 253.4167 C373.0092 247.784 374.6935 249.7873 386 244.4167 C394.2975 240.4754 402 234.4167 402 234.4167 "/>
<path id="3" d="M244 268.4167 C244 268.4167 255.2461 304.3505 264 340.4167 C267.6692 355.5338 267.9904 355.9367 269 371.4167 C272.4568 424.4202 273 478.4167 273 478.4167 "/>
<path id="4" d="M292 275.4167 C292 275.4167 296.4157 281.1582 297 286.4167 C299.1798 306.0347 296.5112 308.0776 298 329.4167 C299.4984 350.894 302.0603 350.9926 303 372.4167 C304.5436 407.6118 300.716 410.2985 303 443.4167 C303.528 451.0729 307.6709 451.6637 309 459.4167 C310.4829 468.0672 309 478.4167 309 478.4167 "/>
<path id="5" d="M352 262.4167 C352 262.4167 353.2124 279.5949 352 296.4167 C349.2338 334.7982 346.3269 335.0224 344 373.4167 C342.3483 400.6695 345.3858 401.3929 344 428.4167 C343.4153 439.8183 340.6538 440.0848 340 451.4167 C339.1855 465.5346 341 480.4167 341 480.4167 "/>
<path id="6" d="M210 238.4167 C210 238.4167 204.5358 229.4533 204 221.4167 C202.6801 201.6176 202.7687 198.6855 206 178.4167 C208.0464 165.58 209.5572 162.9822 215 152.4167 C216.9758 148.5813 218.7869 147.8558 223 145.4167 C227.6547 142.7219 228.7621 141.6162 234 141.4167 C278.1488 139.7348 283.4183 137.3943 328 141.4167 C347.0101 143.1319 351.8674 144.2518 367 153.4167 C383.6067 163.4743 385.2747 168.5798 399 184.4167 C403.6894 189.8275 404.9948 191.8113 406 198.4167 C408.1351 212.4472 407.2845 221.4254 406 230.4167 C405.8509 231.4603 401 233.4167 401 233.4167 "/>
<path id="7" d="M253 475.4167 C253 475.4167 263.0455 466.0956 272 464.4167 C291.2109 460.8146 294.5028 463.6813 317 463.4167 C336.9923 463.1815 341.3113 461.1754 357 463.4167 C360.9222 463.977 362.9835 467.0985 366 470.4167 C366.9754 471.4896 367 474.4167 367 474.4167 "/>
</g>
</g>
</svg>
