<?xml version="1.0" encoding="utf-8"?>
<!DOCTYPE svg PUBLIC "-//W3C//DTD SVG 1.1//EN" "http://www.w3.org/Graphics/SVG/1.1/DTD/svg11.dtd">
<svg viewBox="0 0 800 800" preserveAspectRatio="xMinYMin meet" xmlns="http://www.w3.org/2000/svg" version="1.1">
<g fill="none" stroke="black" stroke-linecap="round" stroke-linejoin="round" stroke-width="1.7233">
<g transform="translate(128.4296,87.52) scale(1.7408) translate(-20,-91.4167)">
<path id="0" d="M144 187.4167 C144 187.4167 140.0503 189.5221 138 192.4167 C132.0614 200.8005 129.0823 202.5196 127 211.4167 C124.2975 222.9635 125.428 226.526 127 239.4167 C127.7641 245.6823 129.0989 246.2921 132 252.4167 C133.4903 255.5628 133.7428 256.9119 136 258.4167 C139.856 260.9874 141.6763 261.7714 147 262.4167 C157.1979 263.6528 160.0394 264.4648 169 262.4167 C175.0397 261.0362 178.074 258.9626 182 254.4167 C185.9168 249.8815 187.1816 247.1002 188 240.4167 C189.944 224.5411 190.7844 218.5032 188 205.4167 C186.8761 200.1343 183.5494 198.5834 178 193.4167 C169.3596 185.3721 167.4424 182.6379 159 178.4167 C155.4956 176.6645 152.9274 177.5954 148 178.4167 C144.6404 178.9766 141.8972 179.9587 141 181.4167 C139.6967 183.5346 140 191.4167 140 191.4167 "/>
<path id="1" d="M289 171.4167 C289 171.4167 286.237 199.5263 287 222.4167 C287.1368 226.5214 288.5562 229.1474 291 231.4167 C293.7122 233.9351 296.1839 234.7287 301 235.4167 C309.2004 236.5882 312.4027 237.3016 319 235.4167 C323.5029 234.1301 326.3302 231.524 329 227.4167 C331.5685 223.4651 331.5342 221.317 332 215.4167 C332.9897 202.8801 334.1815 200.324 332 189.4167 C330.6911 182.8723 329.0262 180.4429 324 175.4167 C315.3183 166.735 311.453 163.468 302 159.4167 C297.8819 157.6518 293.1088 158.5677 289 160.4167 C285.7619 161.8738 284.1659 165.0132 282 168.4167 C281.4783 169.2365 281.85 171.3417 282 171.4167 C282.6 171.7167 288 171.4167 288 171.4167 "/>
<path id="2" d="M145 180.4167 C145 180.4167 141.0334 132.933 145 109.4167 C145.8023 104.6599 151.6653 102.1318 159 97.4167 C165.0318 93.5391 166.4182 91.7928 173 91.4167 C214.7591 89.0304 220.7163 89.0557 264 91.4167 C273.1929 91.9181 276.6665 92.7118 283 97.4167 C291.3315 103.6058 295.6984 107.6692 299 117.4167 C304.6751 134.1718 304 159.4167 304 159.4167 "/>
<path id="3" d="M154 199.4167 C154 199.4167 152.834 220.5375 154 238.4167 C154.2151 241.7154 155.737 244.7852 157 245.4167 C159.1373 246.4853 167.0842 246.3979 168 245.4167 C169.5879 243.7154 170.4569 237.8396 171 230.4167 C171.9279 217.7358 172.5499 214.336 171 204.4167 C170.5958 201.8295 168.151 199.3385 166 198.4167 C163.4431 197.3209 157 198.4167 157 198.4167 "/>
<path id="4" d="M302 182.4167 C302 182.4167 300.8551 211.6386 302 215.4167 C302.1051 215.7636 311.8586 215.8126 312 215.4167 C313.1086 212.3126 314.3825 195.9936 312 187.4167 C311.0829 184.1152 302 179.4167 302 179.4167 "/>
<path id="5" d="M144 177.4167 C144 177.4167 142.2908 192.0872 145 203.4167 C147.3119 213.0847 149.2958 214.8604 155 223.4167 C157.6382 227.374 159.6185 229.9433 163 230.4167 C178.8155 232.6308 188.3563 233.8018 205 230.4167 C212.7039 228.8498 215.9512 224.4655 222 218.4167 C224.2944 216.1223 224.9996 210.4148 225 210.4167 C225.0009 210.4211 223.0922 225.3907 224 228.4167 C224.2103 229.1176 230.8784 230.5924 231 230.4167 C231.7003 229.4051 233.9761 219.5164 233 215.4167 C232.4847 213.2526 227.1699 209.7676 226 209.4167 C225.7208 209.3329 223 212.4167 223 212.4167 "/>
<path id="6" d="M133 255.4167 C133 255.4167 129.0383 257.6989 127 260.4167 C125.0153 263.0629 125.0866 263.831 124 267.4167 C120.1367 280.1656 117.7878 280.6992 117 293.4167 C114.4071 335.2732 118.567 343.9831 117 380.4167 C116.8888 383.0014 115.268 385.1207 113 386.4167 C106.763 389.9807 102.6581 388.4218 96 392.4167 C91.669 395.0153 91.3311 399.1106 88 401.4167 C86.8296 402.2269 83 401.4167 83 401.4167 "/>
<path id="7" d="M82 400.4167 C82 400.4167 84.5003 417.6145 83 428.4167 C82.5243 431.8415 79.3437 434.3334 77 436.4167 C76.4637 436.8934 74 436.4167 74 436.4167 "/>
<path id="8" d="M82 401.4167 L49 401.4167 "/>
<path id="9" d="M75 435.4167 C75 435.4167 77.8487 436.0132 78 436.4167 C78.4984 437.7457 78.6801 441.8863 78 443.4167 C77.6329 444.2426 75.8841 445.1475 74 445.4167 C69.6037 446.0447 64.1009 445.4419 64 445.4167 C63.9849 445.4129 66 443.4167 66 443.4167 "/>
<path id="10" d="M72 435.4167 L63 443.4167 "/>
<path id="11" d="M64 443.4167 L57 450.4167 "/>
<path id="12" d="M49 401.4167 C49 401.4167 49.4175 409.4772 49 410.4167 C48.9175 410.6022 46.6463 410.9106 45 410.4167 C42.1602 409.5647 41.1196 409.3435 39 407.4167 C36.2402 404.9077 34 400.4167 34 400.4167 "/>
<path id="13" d="M34 400.4167 C34 400.4167 47.1565 399.1571 48 399.4167 C48.0332 399.4269 47 404.4167 47 404.4167 "/>
<path id="14" d="M34 399.4167 L20 399.4167 "/>
</g>
</g>
</svg>
