<?xml version="1.0" encoding="utf-8"?>
<!DOCTYPE svg PUBLIC "-//W3C//DTD SVG 1.1//EN" "http://www.w3.org/Graphics/SVG/1.1/DTD/svg11.dtd">
<svg viewBox="0 0 800 800" preserveAspectRatio="xMinYMin meet" xmlns="http://www.w3.org/2000/svg" version="1.1">
<g fill="none" stroke="black" stroke-linecap="round" stroke-linejoin="round" stroke-width="0.72485">
<g transform="translate(87.52,168.2268) scale(4.1388) translate(-175,-134.1333)">
<path id="0" d="M193 204.1333 C193 204.1333 191.1808 195.2332 192 188.1333 C192.5395 183.4574 193.1598 182.2645 196 178.1333 C203.6573 166.9954 204.3039 164.2571 214 156.1333 C221.0635 150.2153 223.7658 149.3319 233 147.1333 C243.1493 144.7168 245.7341 144.3217 256 146.1333 C269.388 148.4959 271.0958 150.1775 284 156.1333 C289.813 158.8162 291.2886 159.5972 295 164.1333 C299.3068 169.3972 300.6007 171.2923 302 178.1333 C304.7574 191.6139 304 208.1333 304 208.1333 "/>
<path id="1" d="M187 204.1333 C187 204.1333 183.6896 181.7451 188 168.1333 C191.5251 157.0016 196.6841 154.5241 206 144.1333 C208.8252 140.9822 209.8612 140.6662 214 139.1333 C222.76 135.8889 223.6687 134.9665 233 134.1333 C250.7544 132.5481 252.0354 133.0555 270 134.1333 C276.3993 134.5173 277.1641 134.7185 283 137.1333 C291.0827 140.4779 293.2817 140.6193 299 146.1333 C305.8024 152.6928 309.4093 155.9148 311 164.1333 C314.4439 181.927 311 208.1333 311 208.1333 "/>
<path id="2" d="M195 204.1333 L202 195.1333 "/>
<path id="3" d="M203 195.1333 C203 195.1333 205.4731 203.7028 206 212.1333 C206.9504 227.339 206 243.1333 206 243.1333 "/>
<path id="4" d="M207 244.1333 C207 244.1333 197.3945 246.6811 190 246.1333 C185.4821 245.7987 182.9547 244.6659 180 242.1333 C177.6111 240.0857 176 234.1333 176 234.1333 "/>
<path id="5" d="M177 238.1333 C177 238.1333 174.6657 212.4823 175 207.1333 C175.0135 206.9168 178.8479 206.5517 179 206.1333 C179.6198 204.4288 178.4128 196.9723 179 196.1333 C179.2878 195.7223 184.9505 195.4337 186 196.1333 C186.8995 196.733 188 202.1333 188 202.1333 "/>
<path id="6" d="M303 209.1333 L300 205.1333 "/>
<path id="7" d="M295 196.1333 L302 208.1333 "/>
<path id="8" d="M294 198.1333 L295 241.1333 "/>
<path id="9" d="M295 242.1333 C295 242.1333 296.399 246.0666 297 246.1333 C303.1194 246.8133 315.123 247.0304 322 245.1333 C323.6137 244.6882 325.6099 241.3516 326 238.1333 C327.3551 226.954 326 212.1333 326 212.1333 "/>
<path id="10" d="M313 197.1333 C313 197.1333 316.9 196.9333 317 197.1333 C317.4 197.9333 317 205.1333 317 205.1333 "/>
<path id="11" d="M320 206.1333 C320 206.1333 324.7889 205.8377 325 206.1333 C325.4139 206.7127 325 213.1333 325 213.1333 "/>
</g>
</g>
</svg>
