<?xml version="1.0" encoding="utf-8"?>
<!DOCTYPE svg PUBLIC "-//W3C//DTD SVG 1.1//EN" "http://www.w3.org/Graphics/SVG/1.1/DTD/svg11.dtd">
<svg viewBox="0 0 800 800" preserveAspectRatio="xMinYMin meet" xmlns="http://www.w3.org/2000/svg" version="1.1">
<g fill="none" stroke="black" stroke-linecap="round" stroke-linejoin="round" stroke-width="1.4929">
<g transform="translate(196.034,87.52) scale(2.0095) translate(-85,-92)">
<path id="0" d="M145 172 C145 172 136.2832 175.5973 131 180 C128.4862 182.0948 128.5229 183.383 127 187 C124.6002 192.6995 123.6671 193.1632 123 199 C121.7684 209.7767 120.9126 212.6065 123 222 C124.3412 228.0354 126.63 231.7225 131 235 C135.8624 238.6468 147 240 147 240 "/>
<path id="1" d="M147 174 L148 242 "/>
<path id="2" d="M230 171 C230 171 231.188 197.4481 230 222 C229.7404 227.3654 227 233 227 233 "/>
<path id="3" d="M230 171 C230 171 241.1427 171.944 247 175 C250.1221 176.6289 252.2546 179.2731 253 183 C255.625 196.1252 256.4841 201.3461 255 215 C254.3107 221.3413 252.0189 223.1262 248 229 C246.0525 231.8464 244.8097 233.1972 242 234 C236.2185 235.6519 227 235 227 235 "/>
<path id="4" d="M122 204 C122 204 118.0944 180.3792 122 162 C125.8695 143.7904 128.9218 141.5042 139 124 C147.4549 109.3151 149.9128 103.1731 160 96 C166.6188 91.2933 172.0813 93.0364 184 92 C194.7694 91.0635 197.1929 89.237 206 92 C219.6188 96.2726 222.2413 98.6967 235 108 C245.3077 115.516 249.8884 117.6256 254 127 C260.1119 140.9352 258.2572 146.1191 260 165 C261.2206 178.2226 261.0921 179.9869 260 192 C259.7463 194.7909 257 198 257 198 "/>
<path id="5" d="M122 170 L129 187 "/>
<path id="6" d="M251 179 L265 167 "/>
<path id="7" d="M124 229 C124 229 119.5962 228.7459 118 230 C114.27 232.9307 112.9065 234.6458 110 240 C103.7237 251.5616 105.3218 253.115 99 265 C92.9659 276.344 87.8114 279.3326 85 287 C84.2851 288.9498 86.6976 294.2557 88 295 C89.8922 296.0813 98.9696 294.886 99 295 C99.1361 295.5105 93.9251 302.8495 92 310 C90.7458 314.6584 91.047 319.6235 92 321 C92.7131 322.03 100.7714 322.2125 101 323 C102.4374 327.951 99.1081 343.9594 101 352 C101.449 353.9082 105.3008 356.2293 109 357 C115.5461 358.3638 117.4393 358.0081 125 357 C131.8677 356.0843 138.4683 352.6582 139 353 C139.3888 353.25 138.0989 360.894 139 366 C139.3139 367.779 140.3375 368.575 142 370 C143.4778 371.2667 144.2137 371.9338 146 372 C156.0683 372.3729 166.4677 369.5819 169 371 C170.1736 371.6572 168.8916 381.3146 171 386 C172.0807 388.4016 174.8959 390.5689 178 391 C189.6992 392.6249 196.5913 388.0952 207 391 C213.2268 392.7377 214.7267 400.7859 221 403 C227.8804 405.4284 233.4622 404.4496 241 403 C243.6237 402.4954 247 398 247 398 "/>
<path id="8" d="M245 396 L249 402 "/>
<path id="9" d="M246 397 C246 397 254.8291 393.6887 262 389 C267.3652 385.492 271.8411 380.0794 272 380 C272.0219 379.989 272.2308 383.8462 272 384 C271.4808 384.3462 267.7829 383.0491 266 384 C262.0577 386.1025 261.3425 389.2084 257 392 C255.2674 393.1138 253.0091 392.135 252 393 C250.917 393.9282 249.9898 398.0047 250 398 C250.0474 397.9781 257.2599 391.5867 265 387 C270.3821 383.8106 277 382 277 382 C277 382 264.2611 386.1346 255 392 C250.522 394.8361 246.9886 400.9734 247 401 C247.0056 401.013 253.5384 401.1539 258 399 C266.8718 394.7171 275.2613 387.6895 276 387 C276.0287 386.9732 273.6744 384.8444 273 385 C270.0369 385.6838 267.7431 388.6825 263 390 C259.6682 390.9255 257.8972 389.1086 255 390 C252.7435 390.6943 251.1816 392.3458 250 394 C249.5318 394.6554 249.85 396.925 250 397 C250.6 397.3 254.2083 398.0451 256 397 C263.8137 392.442 273.9999 383.0001 274 383 C274.0001 382.9999 259 392 259 392 "/>
<path id="10" d="M276 383 C276 383 276.2201 380.5849 277 380 C280.7193 377.2105 288 374 288 374 "/>
<path id="11" d="M245 202 C245 202 254 200 254 200 C254 200 243.6269 201.5124 243 202 C242.9057 202.0734 244.332 206.7945 245 207 C247.0186 207.6211 256 206 256 206 "/>
<path id="12" d="M124 203 C124 203 128.8424 202.803 129 203 C129.1655 203.2069 128.6497 207.5669 128 208 C126.7007 208.8662 120 209 120 209 "/>
</g>
</g>
</svg>
