<?xml version="1.0" encoding="utf-8"?>
<!DOCTYPE svg PUBLIC "-//W3C//DTD SVG 1.1//EN" "http://www.w3.org/Graphics/SVG/1.1/DTD/svg11.dtd">
<svg viewBox="0 0 800 800" preserveAspectRatio="xMinYMin meet" xmlns="http://www.w3.org/2000/svg" version="1.1">
<g fill="none" stroke="black" stroke-linecap="round" stroke-linejoin="round" stroke-width="1.4929">
<g transform="translate(109.6247,87.52) scale(2.0095) translate(-187.5,-169.6667)">
<path id="0" d="M204.5 242.6667 C204.5 242.6667 203.2576 232.612 204.5 223.6667 C205.657 215.336 205.9577 214.4598 209.5 206.6667 C215.7158 192.9919 215.9391 189.8845 224.5 179.6667 C229.564 173.6225 233.1116 171.1444 240.5 169.6667 C254.4559 166.8755 258.792 167.9956 274.5 169.6667 C280.7517 170.3317 282.6398 170.95 287.5 174.6667 C298.2061 182.8537 300.7703 184.4234 308.5 195.6667 C316.1888 206.8504 316.2169 209.4878 320.5 222.6667 C322.347 228.3498 321.5 235.6667 321.5 235.6667 "/>
<path id="1" d="M214.5 236.6667 C214.5 236.6667 214.5573 239.6094 214.5 239.6667 C214.4809 239.6858 212.5 238.9055 212.5 238.6667 C212.5 231.9785 211.0622 222.4534 214.5 210.6667 C217.3264 200.9761 219.7309 199.2016 226.5 190.6667 C230.5646 185.5417 232.1107 183.5688 237.5 181.6667 C246.6462 178.4386 250.467 178.3626 260.5 178.6667 C264.9326 178.801 265.6737 181.6506 270.5 182.6667 C274.5063 183.5101 276.5375 181.2447 279.5 182.6667 C286.6625 186.1047 289.2312 187.7912 295.5 194.6667 C303.9116 203.8923 305.7555 205.6794 310.5 216.6667 C314.4531 225.8212 314.5 238.6667 314.5 238.6667 "/>
<path id="2" d="M208.5 242.6667 L208.5 239.6667 "/>
<path id="3" d="M203.5 306.6667 C203.5 306.6667 199.2621 307.3526 198.5 306.6667 C196.5032 304.8696 194.1862 301.9797 193.5 297.6667 C191.026 282.1156 190.8101 278.8789 191.5 262.6667 C191.7405 257.0156 193.1002 256.3661 195.5 250.6667 C197.0229 247.0497 197.0076 246.337 199.5 243.6667 C203.5249 239.3543 205.2165 236.8661 209.5 235.6667 C214.6515 234.2243 219.094 234.4642 224.5 236.6667 C230.1399 238.9644 233.4271 241.3744 236.5 246.6667 C240.9341 254.3032 240.5251 257.2281 242.5 267.6667 C243.9444 275.3012 245.0278 277.1736 243.5 283.6667 C241.5504 291.9527 239.6978 295.4294 234.5 301.6667 C231.4085 305.3764 228.8005 306.5072 223.5 307.6667 C214.3654 309.6649 202.5 308.6667 202.5 308.6667 "/>
<path id="4" d="M317.5 293.6667 C317.5 293.6667 316.1728 298.4424 315.5 298.6667 C313.7261 299.258 306.68 299.004 305.5 297.6667 C303.0481 294.8879 301.5862 289.4874 300.5 281.6667 C299.1987 272.2974 298.5892 270.6473 300.5 261.6667 C303.2828 248.5874 305.7533 240.1728 310.5 234.6667 C312.4897 232.3587 319.6031 231.9296 325.5 232.6667 C329.348 233.1477 331.8061 234.7656 334.5 237.6667 C337.0642 240.4281 337.5428 242.1543 338.5 246.6667 C340.8944 257.9545 340.8781 258.8498 341.5 270.6667 C341.8591 277.489 342.1904 278.6296 340.5 284.6667 C338.999 290.0273 337.9319 291.9897 334.5 295.6667 C332.1294 298.2066 330.2792 299.062 326.5 299.6667 C319.064 300.8564 315.4274 301.4905 309.5 299.6667 C305.5037 298.437 300.5 291.6667 300.5 291.6667 "/>
<path id="5" d="M189.5 265.6667 C189.5 265.6667 187.6402 267.3344 187.5 268.6667 C186.8011 275.3059 186.3791 279.0624 187.5 284.6667 C187.8363 286.3479 191.4987 288.6673 191.5 288.6667 C191.5003 288.6665 189.5 283.6667 189.5 283.6667 "/>
<path id="6" d="M339.5 256.6667 C339.5 256.6667 342.9032 256.0679 344.5 256.6667 C345.8174 257.1607 347.2501 258.3545 347.5 259.6667 C348.773 266.3499 349.3305 271.5763 348.5 277.6667 C348.2887 279.2164 344.5 281.6667 344.5 281.6667 "/>
<path id="7" d="M339.5 296.6667 C339.5 296.6667 346.0449 296.5936 349.5 298.6667 C354.4359 301.6282 356.2605 303.9547 359.5 308.6667 C360.7838 310.534 359.4309 312.5284 360.5 314.6667 C361.4869 316.6404 363.9644 316.926 364.5 318.6667 C365.4215 321.6616 364.9531 325.4011 364.5 327.6667 C364.4295 328.0191 362.5024 328.6859 362.5 328.6667 C362.4715 328.4388 362.6346 320.2848 363.5 319.6667 C365.0976 318.5255 371.944 316.7864 376.5 318.6667 C398.6308 327.8 410.3816 335.5532 426.5 345.6667 C427.4962 346.2917 427.723 350.4436 427.5 350.6667 C427.0539 351.1127 422.5923 352.0851 420.5 351.6667 C419.3923 351.4451 417.9371 349.9781 417.5 348.6667 C416.8443 346.6996 416.7938 343.5747 417.5 342.6667 C418.4939 341.3888 421.1498 340.5804 424.5 339.6667 C426.2141 339.1992 427.2033 338.9802 428.5 339.6667 C434.2591 342.7156 437.1804 343.5243 441.5 348.6667 C446.4268 354.5319 446.7756 357.1746 449.5 364.6667 C450.3645 367.044 450.2303 369.3521 449.5 370.6667 C448.7967 371.9325 444.9316 372.3719 444.5 373.6667 C443.082 377.9208 442.5798 384.2956 443.5 388.6667 C443.8144 390.16 446.2435 391.9724 448.5 392.6667 C451.3972 393.5581 453.5071 391.564 456.5 392.6667 C461.58 394.5382 464.2512 395.9538 467.5 399.6667 C469.7717 402.2629 471.0618 405.5207 470.5 408.6667 C469.1442 416.2594 467.6455 420.561 462.5 427.6667 C458.4709 433.2307 453.7052 432.2934 449.5 437.6667 C445.9745 442.1714 445.7011 444.2609 444.5 450.6667 C442.8465 459.4853 442.8732 460.8912 443.5 469.6667 C443.8051 473.9385 446.5 478.6667 446.5 478.6667 "/>
<path id="8" d="M362.5 321.6667 C362.5 321.6667 361.5044 328.6672 361.5 328.6667 C361.3244 328.6472 354.5369 323.4317 353.5 320.6667 C352.8166 318.8443 354.4172 313.3163 355.5 312.6667 C357.6656 311.3673 362.6392 310.9634 368.5 311.6667 C374.1788 312.3481 380.5 315.6667 380.5 315.6667 "/>
<path id="9" d="M383.5 313.6667 C383.5 313.6667 395.9719 317.8798 404.5 323.6667 C408.5229 326.3965 407.5318 329.1161 411.5 332.6667 C416.5505 337.1855 419.9895 336.1811 423.5 340.6667 C427.4756 345.7466 429.7871 354.6905 429.5 355.6667 C429.3864 356.0528 421.746 358.0995 418.5 357.6667 C417.129 357.4839 414.9286 355.3809 414.5 353.6667 C413.4715 349.5525 413.6594 345.8699 414.5 341.6667 C414.7522 340.4057 416.0013 339.2019 417.5 338.6667 C421.812 337.1267 423.263 336.6667 428.5 336.6667 C435.6414 336.6667 441.1266 336.2019 443.5 338.6667 C448.6371 344.0014 452.5931 352.4637 454.5 363.6667 C456.0249 372.6255 450.3624 382.3802 451.5 385.6667 C451.9425 386.9451 458.6111 386.7778 463.5 389.6667 C468.7138 392.7476 471.3565 394.2147 473.5 398.6667 C476.517 404.9328 477.9056 410.1657 476.5 416.6667 C474.7682 424.6764 469.8923 426.2063 465.5 435.6667 C463.691 439.5629 464.9099 442.0819 463.5 444.6667 C462.9157 445.7378 460.611 445.2993 459.5 446.6667 C454.99 452.2174 451.4488 455.5434 450.5 460.6667 C449.7576 464.6757 453.5954 467.6357 454.5 473.6667 C454.9556 476.7043 453.5 480.6667 453.5 480.6667 "/>
<path id="10" d="M340.5 302.6667 C340.5 302.6667 353.6906 302.3665 358.5 304.6667 C360.8606 305.7956 362.2555 309.4355 363.5 313.6667 C364.4508 316.8995 363.5 321.6667 363.5 321.6667 "/>
<path id="11" d="M370.5 313.6667 C370.5 313.6667 379.1496 311.9857 385.5 313.6667 C394.5525 316.0629 404.5 322.6667 404.5 322.6667 "/>
<path id="12" d="M331.5 301.6667 C331.5 301.6667 335.5 298.6667 335.5 298.6667 C335.5 298.6667 330.4932 301.6654 330.5 301.6667 C330.524 301.671 340.089 300.3292 346.5 300.6667 C347.7484 300.7324 349.5 302.6667 349.5 302.6667 "/>
<path id="13" d="M333.5 298.6667 L346.5 298.6667 "/>
</g>
</g>
</svg>
