<?xml version="1.0" encoding="utf-8"?>
<!DOCTYPE svg PUBLIC "-//W3C//DTD SVG 1.1//EN" "http://www.w3.org/Graphics/SVG/1.1/DTD/svg11.dtd">
<svg viewBox="0 0 800 800" preserveAspectRatio="xMinYMin meet" xmlns="http://www.w3.org/2000/svg" version="1.1">
<g fill="none" stroke="black" stroke-linecap="round" stroke-linejoin="round" stroke-width="1.1089">
<g transform="translate(87.52,156.5091) scale(2.7055) translate(-149,-72)">
<path id="0" d="M222 176 C222 176 224.8575 179.7234 225 183 C226.2387 211.4903 226.5249 219.0775 225 245 C224.8466 247.607 222.1003 250.5599 221 251 C220.106 251.3576 216.2318 250.4558 215 249 C212.3489 245.8669 210.2953 243.0941 210 238 C208.4844 211.8562 208.6896 194.3247 211 180 C211.2166 178.6573 220 176 220 176 "/>
<path id="1" d="M314 184 C314 184 312.2107 243.1584 314 250 C314.0934 250.3572 330.8502 249.6292 331 249 C332.8259 241.3312 332.176 212.0554 329 187 C328.4956 183.0206 324.8653 180.149 322 178 C320.9581 177.2186 317.7783 177.444 317 178 C316.1327 178.6195 315 183 315 183 "/>
<path id="2" d="M328 181 C328 181 333.8187 180.6062 338 182 C341.9115 183.3038 346 187 346 187 "/>
<path id="3" d="M334 247 C334 247 341.3716 248.2213 343 247 C345.8949 244.8288 350 235 350 235 "/>
<path id="4" d="M211 179 C211 179 202.531 177.3127 200 179 C194.5545 182.6303 190.8051 187.9752 187 195 C185.6789 197.439 187 203 187 203 "/>
<path id="5" d="M218 252 C218 252 201.8311 254.484 195 252 C190.734 250.4487 185 240 185 240 "/>
<path id="6" d="M189 194 L189 247 "/>
<path id="7" d="M345 186 L345 243 "/>
<path id="8" d="M346 198 C346 198 352.9644 197.8272 353 198 C353.8394 202.0772 353.6359 229.002 353 232 C352.9909 232.0428 346 231 346 231 "/>
<path id="9" d="M190 206 C190 206 183.0382 205.8282 183 206 C182.3427 208.958 182.8977 229.6932 184 233 C184.1075 233.3226 190.0041 233.4435 192 233 C192.3604 232.9199 193 231 193 231 "/>
<path id="10" d="M183 228 C183 228 169.8683 230.5773 165 228 C158.0953 224.3446 151.7301 218.0198 149 210 C145.6233 200.0808 147.7792 195.2429 149 181 C150.7476 160.6108 148.6874 158.096 155 140 C162.8183 117.5875 167.9141 109.6813 179 95 C181.4265 91.7865 186.2778 93.7248 192 91 C196.1682 89.0151 195.9889 86.6889 200 85 C204.5125 83.1 206.3053 84.9206 211 83 C216.5073 80.747 216.3962 78.0547 222 76 C230.4539 72.9002 231.6347 72.4117 241 72 C276.164 70.4543 282.6335 66.8888 313 72 C326.4378 74.2618 331.2104 80.06 342 89 C345.9924 92.308 344.2692 95.7429 348 101 C354.9657 110.8154 355.5062 111.8208 364 120 C368.3936 124.2309 373.7841 123.9604 375 127 C377.4957 133.2393 374.3545 139.4687 376 150 C376.684 154.3774 379.6222 154.7503 380 159 C381.4536 175.3528 382.2258 183.0362 380 195 C379.4752 197.8209 374.7937 198.056 372 202 C366.8446 209.2782 367.6079 214.3921 363 219 C360.5188 221.4812 352 222 352 222 "/>
<path id="11" d="M181 219 C181 219 174.8624 220.2416 173 219 C168.8095 216.2063 164.2991 212.3263 163 207 C160.3908 196.3024 160.7394 190.4333 163 178 C164.2827 170.9454 169.5492 170.0728 171 163 C173.0924 152.7995 169.6405 150.556 171 139 C172.5695 125.6596 172.5016 121.2614 177 112 C179.0065 107.8691 182.2101 106.1962 188 104 C209.5804 95.8143 211.7264 93.9615 235 90 C257.311 86.2024 259.9017 90.5781 282 88 C288.355 87.2586 288.7183 83.9238 295 83 C304.6041 81.5876 310.8262 81.2091 316 83 C317.9994 83.6921 318.4176 89.971 321 92 C323.2615 93.7769 328.4737 92.779 330 94 C330.8351 94.6681 329.872 97.744 331 100 C332.4751 102.9502 333.2481 104.1654 336 106 C339.873 108.582 343.8004 107.8004 346 110 C347.5711 111.5711 346.1124 114.9798 348 118 C352.9231 125.877 357.8916 126.3327 361 134 C364.1873 141.8621 360.8226 146.6013 363 155 C363.7383 157.8478 367.6326 158.4284 368 161 C369.5868 172.1073 369.6109 176.7904 368 190 C367.2995 195.7438 366.0329 198.2672 363 202 C361.0174 204.4401 355 206 355 206 "/>
</g>
</g>
</svg>
