<?xml version="1.0" encoding="utf-8"?>
<!DOCTYPE svg PUBLIC "-//W3C//DTD SVG 1.1//EN" "http://www.w3.org/Graphics/SVG/1.1/DTD/svg11.dtd">
<svg viewBox="0 0 800 800" preserveAspectRatio="xMinYMin meet" xmlns="http://www.w3.org/2000/svg" version="1.1">
<g fill="none" stroke="black" stroke-linecap="round" stroke-linejoin="round" stroke-width="1.0129">
<g transform="translate(87.52,126.0246) scale(2.9619) translate(-105,-118)">
<path id="0" d="M184 248 C184 248 188.7658 244.0081 193 243 C197.986 241.8128 201.2593 241.2855 205 243 C210.3124 245.4348 213.0781 248.1171 217 254 C221.1283 260.1925 221.7431 262.2491 223 270 C224.5551 279.5899 225.1055 283.9818 223 291 C221.827 294.9101 218.4419 298.0963 214 300 C206.9916 303.0036 201.845 303.5265 195 303 C192.3069 302.7928 190.6492 300.9609 188 298 C182.6025 291.9675 180.371 290.4017 178 284 C176.259 279.2992 176.9798 277.1212 178 271 C179.8834 259.6994 180.6971 258.7344 184 248 C184.4806 246.438 185.2075 245.2161 186 245 C188.531 244.3097 195 245 195 245 "/>
<path id="1" d="M187 273 C187 273 186.2019 266.4586 187 263 C187.2947 261.723 188.6065 260.3318 190 260 C196.9317 258.3496 204.4052 256.652 208 258 C210.11 258.7912 212.9294 263.8254 214 269 C215.5743 276.6089 215.6387 283.9958 214 287 C213.04 288.76 204.2913 291.8592 202 291 C198.3176 289.6191 193.9498 284.0766 190 278 C188.5473 275.7651 189 271 189 271 "/>
<path id="2" d="M284 190 C284 190 282.3595 205.0785 285 213 C286.5089 217.5266 290.368 220.9619 295 223 C299.9665 225.1853 304.5189 224.8222 310 224 C312.0669 223.69 314.6578 221.6538 315 220 C316.7131 211.7199 318.4956 202.9027 316 195 C314.2706 189.5237 309.3222 186.1232 303 182 C299.6725 179.8299 295.5611 179.0243 293 180 C288.8943 181.5641 285.1674 185.9687 282 190 C281.3204 190.8649 282 194 282 194 "/>
<path id="3" d="M297 210 L291 203 "/>
<path id="4" d="M291 202 C291 202 289.5815 197.0923 290 195 C290.2215 193.8923 291.4614 192.6411 293 192 C296.56 190.5167 300.9112 189.7822 302 190 C302.2279 190.0456 303 194 303 194 "/>
<path id="5" d="M303 195 C303 195 303.999 203.2029 303 206 C302.5654 207.2169 298 209 298 209 "/>
<path id="6" d="M180 258 C180 258 170.4546 241.143 165 224 C160.2296 209.0074 160.3997 207.8638 159 192 C157.4509 174.4437 157.0788 172.6505 159 156 C159.8908 148.2796 161.413 147.4729 165 140 C167.2571 135.2978 167.5362 134.6947 171 131 C174.6562 127.1 175.3505 125.7778 180 124 C190.8684 119.8444 192.9475 118.9453 205 118 C217.2288 117.0409 221.1262 116.2185 231 120 C241.0073 123.8326 243.4723 126.8774 252 136 C264.1021 148.9464 262.3412 151.8204 274 166 C280.6267 174.0596 282.7863 173.4055 289 181 C291.1541 183.6328 292 188 292 188 "/>
<path id="7" d="M187 246 C187 246 177.4287 235.8995 173 226 C169.7384 218.7093 170.3825 216.925 170 208 C168.9028 182.3996 168.789 180.6233 170 156 C170.213 151.6684 170.8135 150.7767 173 147 C175.9796 141.8534 176.7065 139.4534 181 137 C188.3347 132.8087 191.2101 132.6317 201 131 C208.459 129.7568 209.8305 129.6124 217 131 C224.2417 132.4016 225.6979 132.7604 232 137 C252.1463 150.5529 252.6644 152.011 272 168 C278.4584 173.3406 279.4016 173.8688 284 180 C286.2444 182.9926 287 188 287 188 "/>
<path id="8" d="M192 302 C192 302 161.506 290.8863 133 278 C125.6261 274.6666 124.5508 273.51 119 269 C117.6327 267.889 117.8458 265.4833 117 265 C116.0132 264.4361 112.9132 265.761 112 265 C109.1995 262.6663 106.2867 259.289 105 255 C103.9685 251.5617 104.5841 246.9822 106 245 C107.3781 243.0707 110.6858 241.8628 115 241 C119.8425 240.0315 122.5194 239.6464 126 241 C129.0763 242.1964 133 248 133 248 "/>
<path id="9" d="M133 250 C133 250 134.0346 256.7583 133 259 C132.2218 260.6861 126.9734 262.9468 127 263 C127.5052 264.0104 133.5454 271.5997 141 275 C159.905 283.6233 184 289 184 289 "/>
<path id="10" d="M113 250 C113 250 113.7306 248.0245 114 248 C116.2588 247.7947 122.9091 248.0083 124 249 C124.9182 249.8347 125.4802 257.5198 125 258 C124.2797 258.7203 115.9131 259.8199 114 259 C112.9142 258.5346 110.8596 252.3744 111 252 C111.0777 251.7929 116.616 250.808 117 251 C117.1396 251.0698 116.9389 254.9694 117 255 C117.0917 255.0458 120.8472 253 121 253 C121 253 121.0338 254.9916 121 255 C120.7469 255.0633 117 254 117 254 "/>
</g>
</g>
</svg>
