<?xml version="1.0" encoding="utf-8"?>
<!DOCTYPE svg PUBLIC "-//W3C//DTD SVG 1.1//EN" "http://www.w3.org/Graphics/SVG/1.1/DTD/svg11.dtd">
<svg viewBox="0 0 800 800" preserveAspectRatio="xMinYMin meet" xmlns="http://www.w3.org/2000/svg" version="1.1">
<g fill="none" stroke="black" stroke-linecap="round" stroke-linejoin="round" stroke-width="1.3249">
<g transform="translate(87.52,190.5478) scale(2.2643) translate(-143,-109)">
<path id="0" d="M368 233 C368 233 370.3 207.9999 367 187 C365.1718 175.3659 360.8177 174.8001 357 163 C355.5529 158.5272 357.5661 157.2284 356 153 C352.9294 144.7094 352.3887 142.9283 347 136 C342.6591 130.4189 341.4611 129.6062 335 126 C320.736 118.0387 319.4311 116.9496 304 112 C294.0162 108.7976 292.3972 108.7582 282 109 C271.9997 109.2326 270.9854 109.9432 261 113 C246.9067 117.3143 245.5734 117.3989 233 124 C226.5783 127.3714 226.1893 128.5513 221 134 C216.4911 138.7343 215.5088 139.1901 213 145 C206.4479 160.1732 204.2961 161.7509 202 178 C198.0608 205.8775 200 237 200 237 "/>
<path id="1" d="M200 237 C200 237 195.345 236.739 194 238 C189.5166 242.2032 186.4252 245.0975 184 252 C180.6691 261.4802 180.7556 268.6459 181 275 C181.0337 275.8757 183.6976 278 185 278 C188.5816 278 192.6327 277.3769 196 275 C199.171 272.7617 200.5811 270.5406 202 266 C205.1641 255.875 205.2938 253.2397 206 243 C206.1779 240.4211 204.8165 237.9798 204 237 C203.7337 236.6805 201 237 201 237 "/>
<path id="2" d="M366 233 C366 233 361.3679 233.4366 360 235 C356.0377 239.5284 353.6958 242.4288 352 249 C350.2055 255.9538 350.8102 258.564 352 266 C352.6047 269.7792 354.7153 273.5182 356 274 C358.0646 274.7742 362.9489 273.8609 368 272 C371.5066 270.7081 374.3117 269.2178 375 267 C377.3627 259.3869 378.9796 252.0183 377 243 C375.3688 235.5688 366 226 366 226 "/>
<path id="3" d="M382 234 L407 227 "/>
<path id="4" d="M391 246 L412 243 "/>
<path id="5" d="M390 261 L419 269 "/>
<path id="6" d="M178 237 C178 237 170.7614 238.0475 165 237 C160.689 236.2162 156 233 156 233 "/>
<path id="7" d="M173 261 L144 266 "/>
<path id="8" d="M168 280 L143 294 "/>
</g>
</g>
</svg>
