<?xml version="1.0" encoding="utf-8"?>
<!DOCTYPE svg PUBLIC "-//W3C//DTD SVG 1.1//EN" "http://www.w3.org/Graphics/SVG/1.1/DTD/svg11.dtd">
<svg viewBox="0 0 800 800" preserveAspectRatio="xMinYMin meet" xmlns="http://www.w3.org/2000/svg" version="1.1">
<g fill="none" stroke="black" stroke-linecap="round" stroke-linejoin="round" stroke-width="1.2049">
<g transform="translate(117.3986,87.52) scale(2.4899) translate(-150,-130.1333)">
<path id="0" d="M323 130.1333 C323 130.1333 306.5376 144.7663 293 160.1333 C288.6417 165.0806 290.149 166.764 286 172.1333 C273.4012 188.4376 271.3343 187.8085 259 204.1333 C254.695 209.8311 256.5463 211.9099 252 217.1333 C233.947 237.8751 230.4511 236.57 212 258.1333 C189.2402 284.7321 191.4328 287.7206 169 314.1333 C160.9655 323.5933 150 331.1333 150 331.1333 "/>
<path id="1" d="M377 174.1333 C377 174.1333 365.5201 187.5763 353 199.1333 C346.3103 205.3084 344.2258 203.6559 338 210.1333 C295.689 254.1539 296.9305 257.1446 254 302.1333 C224.0351 333.5349 223.2807 336.9448 192 363.1333 C182.8127 370.8251 178.9951 367.9486 168 374.1333 C163.652 376.5791 160.1341 381.0663 160 381.1333 C159.9825 381.1421 160 378.1333 160 378.1333 "/>
<path id="2" d="M291 164.1333 L343 214.1333 "/>
<path id="3" d="M273 192.1333 C273 192.1333 287.9945 208.4628 303 219.1333 C308.6592 223.1577 314.2338 221.2041 318 224.1333 C319.9938 225.6841 321 233.1333 321 233.1333 "/>
<path id="4" d="M252 214.1333 L301 258.1333 "/>
<path id="5" d="M230 240.1333 C230 240.1333 243.4591 256.962 257 268.1333 C261.6285 271.9519 264.4801 270.0667 270 273.1333 C272.7211 274.645 275 278.1333 275 278.1333 "/>
<path id="6" d="M212 258.1333 C212 258.1333 238.5403 281.1178 251 296.1333 C252.5937 298.054 251 305.1333 251 305.1333 "/>
<path id="7" d="M197 279.1333 C197 279.1333 207.8465 293.4514 220 306.1333 C230.6666 317.2637 243 327.1333 243 327.1333 "/>
<path id="8" d="M179 305.1333 L215 343.1333 "/>
</g>
</g>
</svg>
