<?xml version="1.0" encoding="utf-8"?>
<!DOCTYPE svg PUBLIC "-//W3C//DTD SVG 1.1//EN" "http://www.w3.org/Graphics/SVG/1.1/DTD/svg11.dtd">
<svg viewBox="0 0 800 800" preserveAspectRatio="xMinYMin meet" xmlns="http://www.w3.org/2000/svg" version="1.1">
<g fill="none" stroke="black" stroke-linecap="round" stroke-linejoin="round" stroke-width="1.5745">
<g transform="translate(306.6371,87.52) scale(1.9054) translate(-310.5,-50.8333)">
<path id="0" d="M310.5 52.8333 C310.5 52.8333 314.0131 82.3759 314.5 111.8333 C316.0085 203.099 315.4228 204.4037 314.5 294.8333 C314.4343 301.2674 312.5 301.4389 312.5 307.8333 C312.5 342.757 314.5 378.8333 314.5 378.8333 "/>
<path id="1" d="M405.5 50.8333 C405.5 50.8333 407.9446 123.365 407.5 191.8333 C407.4589 198.1561 404.6825 198.4447 404.5 204.8333 C402.2395 283.9518 402.5 366.8333 402.5 366.8333 "/>
<path id="2" d="M312.5 346.8333 L401.5 344.8333 "/>
<path id="3" d="M314.5 295.8333 C314.5 295.8333 321.2622 296.7063 326.5 295.8333 C329.3371 295.3605 329.833 292.8744 332.5 292.8333 C358.5122 292.4332 364.3309 291.5731 391.5 294.8333 C399.2233 295.7601 407.5 301.8333 407.5 301.8333 "/>
<path id="4" d="M404.5 252.8333 L313.5 251.8333 "/>
<path id="5" d="M315.5 194.8333 C315.5 194.8333 338.109 195.9428 358.5 193.8333 C365.8408 193.074 366.2154 189.5618 373.5 188.8333 C389.949 187.1884 408.5 188.8333 408.5 188.8333 "/>
<path id="6" d="M408.5 143.8333 L316.5 143.8333 "/>
<path id="7" d="M314.5 88.8333 L406.5 89.8333 "/>
</g>
</g>
</svg>
