<?xml version="1.0" encoding="utf-8"?>
<!DOCTYPE svg PUBLIC "-//W3C//DTD SVG 1.1//EN" "http://www.w3.org/Graphics/SVG/1.1/DTD/svg11.dtd">
<svg viewBox="0 0 800 800" preserveAspectRatio="xMinYMin meet" xmlns="http://www.w3.org/2000/svg" version="1.1">
<g fill="none" stroke="black" stroke-linecap="round" stroke-linejoin="round" stroke-width="2.3377">
<g transform="translate(87.52,112.5441) scale(1.2833) translate(-135,-32)">
<path id="0" d="M622 32 L617 32 "/>
<path id="1" d="M135 108 C135 108 144.0595 116.1587 147 124 C150.6039 133.6104 145.5315 138.9234 150 148 C159.6952 167.6934 165.6444 168.1105 179 189 C184.9203 198.26 184.7599 198.726 189 209 C223.6318 292.9156 224.0567 293.8115 257 378 C259.7898 385.1295 257.797 386.2604 261 393 C281.2612 435.6329 305 479 305 479 "/>
<path id="2" d="M213 63 C213 63 222.5549 69.6145 228 78 C246.6477 106.7174 247.2607 108.3029 263 140 C283.1 180.4792 283.4138 181.3503 300 223 C305.6318 237.1422 302.6896 238.6618 308 253 C317.529 278.7282 316.769 280.3733 330 304 C344.2172 329.3879 346.3284 329.0504 364 353 C384.2722 380.4741 386.8513 379.1745 406 407 C418.505 425.1714 416.314 427.2315 428 446 C432.6234 453.4254 435.9452 453.3812 439 460 C440.9955 464.3236 438.6082 466.9897 440 472 C440.8061 474.9019 444 478 444 478 "/>
<path id="3" d="M147 117 C147 117 154.7956 117.4719 162 116 C200.7019 108.0932 240 98 240 98 "/>
<path id="4" d="M167 170 C167 170 201.8402 165.8481 232 156 C248.8537 150.4967 265 138 265 138 "/>
<path id="5" d="M196 217 C196 217 204.8992 216.9305 212 214 C235.2704 204.3963 235.2512 201.555 259 191 C271.0358 185.6508 284 182 284 182 "/>
<path id="6" d="M212 259 C212 259 224.9708 247.4083 238 242 C249.46 237.243 252.7215 240.778 265 237 C271.0896 235.1263 271.381 231.6389 277 230 C281.802 228.5994 283.7547 231.2105 289 230 C295.7248 228.4481 303 224 303 224 "/>
<path id="7" d="M225 299 C225 299 231.9755 295.0813 239 293 C245.0516 291.2069 246.1579 293.0972 252 291 C264.9072 286.3667 264.8176 282.821 278 279 C298.2662 273.1257 321 271 321 271 "/>
<path id="8" d="M243 342 C243 342 252.4951 334.7722 262 332 C275.0827 328.1842 276.7955 330.9593 291 328 C312.5647 323.5074 334 317 334 317 "/>
<path id="9" d="M264 395 C264 395 282.6923 382.8283 302 376 C322.524 368.7415 325.324 372.6799 346 366 C356.7488 362.5273 367 355 367 355 "/>
<path id="10" d="M289 440 C289 440 312.6965 422.812 336 413 C348.4187 407.7711 351.8753 412.5832 365 408 C382.0479 402.0468 399 391 399 391 "/>
<path id="11" d="M308 480 C308 480 316.1008 473.0603 325 468 C341.3115 458.7249 341.5832 457.4807 359 451 C383.8697 441.7462 386.839 444.1902 411 436 C414.6801 434.7525 418 431 418 431 "/>
<path id="12" d="M219 51 L222 51 "/>
</g>
</g>
</svg>
