<?xml version="1.0" encoding="utf-8"?>
<!DOCTYPE svg PUBLIC "-//W3C//DTD SVG 1.1//EN" "http://www.w3.org/Graphics/SVG/1.1/DTD/svg11.dtd">
<svg viewBox="0 0 800 800" preserveAspectRatio="xMinYMin meet" xmlns="http://www.w3.org/2000/svg" version="1.1">
<g fill="none" stroke="black" stroke-linecap="round" stroke-linejoin="round" stroke-width="1.4305">
<g transform="translate(153.5812,87.52) scale(2.0972) translate(-256,-64)">
<path id="0" d="M314 362 C314 362 319.4242 359.3683 322 356 C325.1509 351.8796 324.0404 349.4393 327 345 C328.5142 342.7287 330.3265 343.3816 332 341 C342.6372 325.8624 341.6962 323.0717 353 308 C357.6374 301.8167 361.0731 303.1259 365 297 C372.6329 285.0927 369.9604 280.411 378 269 C384.2055 260.1922 388.4314 261.9043 396 253 C413.4223 232.5031 415.2341 231.526 429 209 C436.4491 196.8106 432.6249 193.2918 440 181 C452.917 159.4716 457.3121 160.7396 471 139 C482.4794 120.7681 491 100 491 100 "/>
<path id="1" d="M256 304 C256 304 267.4961 297.0616 276 288 C297.3953 265.2018 295.7552 262.0763 317 239 C324.2617 231.1123 328.0806 233.2422 334 225 C365.7386 180.807 364.46 175.6618 396 129 C400.4449 122.424 400.842 121.8478 407 117 C423.7695 103.7985 429.3531 105.9093 443 92 C452.8862 81.9237 459 64 459 64 "/>
<path id="2" d="M285 279 C285 279 299.7485 284.552 308 293 C318.7617 304.0179 316.9361 309.5069 327 322 C330.4198 326.2453 336.9469 328.9764 337 329 C337.0094 329.0042 336 326 336 326 "/>
<path id="3" d="M326 231 C326 231 329.3014 230.2073 331 231 C335.5069 233.1032 336.6812 233.9429 341 238 C352.8669 249.1477 353.6247 252.3932 364 262 C365.1302 263.0464 366.8187 262.0005 368 263 C372.2563 266.6015 376.9984 272.9986 377 273 C377.0005 273.0004 375 269 375 269 "/>
<path id="4" d="M362 187 C362 187 367.3346 196.5347 374 204 C379.4371 210.0896 381.9787 208.82 387 215 C394.35 224.0461 393.0918 225.9831 400 236 C402.9572 240.288 406.5985 243.6988 407 244 C407.0154 244.0116 408 242 408 242 "/>
<path id="5" d="M389 140 C389 140 396.7436 146.199 404 150 C406.3391 151.2253 408.2459 149.5967 410 151 C425.1678 163.1342 444 182 444 182 "/>
<path id="6" d="M435 97 C435 97 441.3341 99.8007 446 104 C460.8607 117.3746 475 133 475 133 "/>
</g>
</g>
</svg>
