<?xml version="1.0" encoding="utf-8"?>
<!DOCTYPE svg PUBLIC "-//W3C//DTD SVG 1.1//EN" "http://www.w3.org/Graphics/SVG/1.1/DTD/svg11.dtd">
<svg viewBox="0 0 800 800" preserveAspectRatio="xMinYMin meet" xmlns="http://www.w3.org/2000/svg" version="1.1">
<g fill="none" stroke="black" stroke-linecap="round" stroke-linejoin="round" stroke-width="2.1121">
<g transform="translate(87.52,191.9167) scale(1.4204) translate(-63,-116)">
<path id="0" d="M251 120 C251 120 216.8301 173.1999 180 224 C159.0058 252.9575 158.4635 252.9267 135 280 C100.0764 320.2964 63 359 63 359 "/>
<path id="1" d="M408 116 C408 116 405.6691 115.4525 405 116 C397.4771 122.1551 394.1044 124.0537 386 134 C339.7315 190.784 342.4547 194.5063 295 251 C258.7712 294.1296 255.7167 291.9055 218 334 C199.7958 354.3172 183 376 183 376 "/>
<path id="2" d="M253 120 C253 120 260.8159 127.5896 267 136 C273.1357 144.3446 274.5209 144.586 278 154 C291.008 189.1982 288.8782 192.0675 301 228 C302.5844 232.6968 306 237 306 237 "/>
<path id="3" d="M300 221 C300 221 310.9697 250.7695 318 281 C325.8633 314.8121 321.8546 316.3673 330 350 C337.2047 379.7484 349 409 349 409 "/>
<path id="4" d="M406 119 C406 119 416.0459 155.4793 428 191 C433.4762 207.2721 436.8113 206.8166 441 223 C447.5533 248.3196 443.6205 250.2459 450 276 C456.9835 304.1926 458.6087 304.1616 468 332 C472.5954 345.622 471.5827 346.5543 478 359 C487.7507 377.9104 490.6558 377.7943 501 396 C502.681 398.9585 503.0481 402.9198 503 403 C502.9917 403.0138 498 401 498 401 "/>
<path id="5" d="M253 122 L407 122 "/>
<path id="6" d="M207 190 L345 192 "/>
<path id="7" d="M157 252 L303 252 "/>
<path id="8" d="M102 315 L239 316 "/>
<path id="9" d="M346 190 L431 190 "/>
<path id="10" d="M313 253 C313 253 391.3725 252.1793 448 253 C449.2705 253.0184 451 255 451 255 "/>
<path id="11" d="M327 328 L477 328 "/>
<path id="12" d="M202 198 L340 198 "/>
<path id="13" d="M156 259 L293 259 "/>
<path id="14" d="M100 322 L232 322 "/>
<path id="15" d="M340 198 L431 198 "/>
<path id="16" d="M314 260 L450 261 "/>
<path id="17" d="M327 336 C327 336 453.0035 335.75 471 336 C471.0035 336 471 338 471 338 "/>
<path id="18" d="M259 129 L398 129 "/>
</g>
</g>
</svg>
