<?xml version="1.0" encoding="utf-8"?>
<!DOCTYPE svg PUBLIC "-//W3C//DTD SVG 1.1//EN" "http://www.w3.org/Graphics/SVG/1.1/DTD/svg11.dtd">
<svg viewBox="0 0 800 800" preserveAspectRatio="xMinYMin meet" xmlns="http://www.w3.org/2000/svg" version="1.1">
<g fill="none" stroke="black" stroke-linecap="round" stroke-linejoin="round" stroke-width="2.765">
<g transform="translate(87.52,161.3) scale(1.085) translate(-65,-40)">
<path id="0" d="M195 197 C195 197 200.9547 206.849 204 217 C208.2661 231.2203 209.6306 232.2256 210 247 C212.5727 349.9066 210 457 210 457 "/>
<path id="1" d="M293 197 C293 197 298.881 202.1317 299 206 C302.2535 311.7388 301 457 301 457 "/>
<path id="2" d="M208 348 C208 348 208 350 208 350 C202.6139 350 180.1313 353.6938 161 348 C143.376 342.7548 138.1524 338.1041 124 325 C113.8038 315.559 113.381 311.6321 107 298 C102.9221 289.288 103.4214 287.9496 102 278 C100.4806 267.3643 99.4561 261.2108 101 256 C101.5454 254.1593 105.7658 252.0081 110 251 C114.986 249.8128 121.957 251.2259 122 251 C122.7763 246.9242 118.9745 229.9528 118 209 C116.9835 187.1463 116.3838 186.3339 118 165 C118.822 154.1494 118.8998 152.4064 123 143 C126.7698 134.3517 127.9951 131.8989 135 126 C145.2832 117.3405 148.93 115.5263 161 111 C166.3432 108.9963 169.9367 109.2473 175 111 C180.4667 112.8923 186.1537 120.5129 187 120 C197.8219 113.4413 215.0217 87.8095 241 71 C251.5732 64.1585 257.0389 65.7358 272 65 C286.2714 64.2981 287.7579 65.2135 302 68 C309.9966 69.5646 311.1552 69.9875 318 74 C324.8206 77.9983 326.9775 79.1897 331 85 C334.7131 90.3634 335.1925 92.6167 336 100 C338.5566 123.3743 335.6632 126.0218 338 149 C338.4942 153.86 339.1202 154.8723 342 159 C353.5138 175.5031 356.3836 175.0732 368 192 C373.5237 200.0489 373.8688 200.802 377 210 C381.6652 223.7041 382.1244 224.4368 384 239 C390.5414 289.7921 392.4879 298.9065 394 342 C394.1579 346.4988 391.7772 348.4134 388 353 C378.2574 364.8303 375.0943 373.6422 366 376 C346.9802 380.9311 307 374 307 374 "/>
<path id="3" d="M203 388 C203 388 190.0605 389.1486 178 388 C169.6151 387.2014 169.1424 386.7989 161 384 C137.4314 375.8983 135.79 376.3762 114 366 C105.4857 361.9456 103.2825 360.9915 98 354 C87.781 340.4749 87.3473 337.8988 80 321 C72.5823 303.9393 72.917 303.0291 68 285 C65.5187 275.902 65.5552 275.4386 65 266 C64.0735 250.2497 63.8945 249.1086 65 234 C65.3185 229.6471 65.6606 228.342 68 225 C71.9411 219.3698 73.2915 219.0369 79 214 C81.6272 211.6819 81.9943 210.8416 85 210 C93.3753 207.6549 103.8142 208.0366 104 207 C106.9878 190.3313 102.3396 154.226 104 104 C104.2923 95.1582 105.2272 94.5703 108 86 C110.6248 77.8869 110.9834 77.029 115 70 C116.5779 67.2386 117.2245 66.8041 120 65 C126.7959 60.5827 127.7384 58.4523 135 57 C150.4856 53.9029 158.1195 52.0299 170 55 C177.1455 56.7864 184.0483 70 187 70 C190.2989 70 195.9473 61.0316 206 55 C220.3611 46.3834 222.3132 42.2712 237 40 C266.0918 35.5013 272.7842 37.7338 303 40 C309.6154 40.4962 311.1896 41.8902 317 46 C330.7802 55.747 334.5681 57.5049 344 69 C348.1991 74.1176 348.023 77.1837 349 85 C350.4105 96.2837 347.7265 97.8571 349 109 C349.6079 114.3194 349.7784 115.9895 353 120 C372.5263 144.3082 383.9175 143.4599 398 170 C419.8279 211.1372 419.1 219.4002 431 267 C435.9183 286.6731 436.1667 290.2961 433 310 C427.6418 343.3399 420.4452 344.8199 413 379 C409.708 394.1132 412.6211 395.5994 411 411 C410.6874 413.9694 410.5305 415.1294 409 417 C406.85 419.6277 405.2077 420.9976 402 422 C398.6284 423.0536 396.8822 422.7764 393 422 C390.1531 421.4306 387 419 387 419 "/>
<path id="4" d="M209 336 C209 336 200.332 325.3596 195 314 C189.1728 301.5856 187.5354 300.136 186 287 C183.2633 263.5863 183.8528 258.8294 186 237 C186.4977 231.9399 188.4799 230.6032 192 226 C194.5637 222.6475 198.1338 222.8347 199 220 C202.3228 209.1254 199.3317 203.8267 203 190 C205.5259 180.4794 206.2957 178.8983 212 171 C218.5494 161.9316 220.1211 160.5875 229 154 C234.5324 149.8953 236.135 149.1208 243 148 C259.1899 145.3568 269.0587 144.2554 278 146 C280.0542 146.4008 283.2726 151.3934 284 156 C285.8604 167.7822 281.0316 174.4098 284 184 C285.9108 190.1733 289.8596 192.0496 297 198 C310.4607 209.2173 314.0532 207.6659 326 219 C332.1487 224.8334 335.2739 227.8119 336 235 C339.5428 270.0738 337.6559 278.672 336 318 C335.7572 323.7658 334.721 325.7949 332 330 C330.2226 332.7469 328.0061 334.4274 325 335 C319.7799 335.9943 314.3005 336.2003 311 334 C306.4993 330.9996 301 319 301 319 "/>
<path id="5" d="M306 389 C306 389 307.5598 392.8309 310 395 C315.9843 400.3194 316.7005 401.3503 324 405 C333.0283 409.5142 336.5063 406.6711 344 412 C356.834 421.1264 356.3738 425.5575 369 437 C371.815 439.5511 372.7171 440.2275 376 441 C380.134 441.9727 382.1484 442.4727 386 441 C397.1583 436.7336 410 428 410 428 "/>
<path id="6" d="M191 333 C191 333 181.5677 321.2975 174 309 C169.7601 302.1101 169.167 301.6568 167 294 C161.8618 275.8449 161.9363 274.9228 159 256 C157.4919 246.2808 157.6684 245.6165 158 236 C158.1506 231.6319 158.0732 230.328 160 227 C162.8851 222.0166 168.138 221.3102 169 217 C171.5569 204.2154 167.4459 198.7846 169 182 C169.8642 172.6663 170.0937 171.0424 174 163 C177.9792 154.8075 179.4871 154.105 186 147 C190.1409 142.4826 190.8534 141.9796 196 139 C199.7767 136.8135 200.6297 136.2401 205 136 C244.1547 133.8486 260.314 130.8436 287 134 C291.092 134.484 294.8241 140.2746 298 147 C302.5092 156.549 300.0227 159.1288 304 170 C307.3612 179.1874 307.168 180.5642 313 188 C326.3387 205.0069 331.9982 204.457 344 221 C348.8346 227.664 348.6145 230.225 350 239 C351.4625 248.2625 352.2574 250.0777 350 259 C342.2894 289.4754 337.3857 291.1255 329 322 C326.7698 330.211 328 340 328 340 "/>
<path id="7" d="M561 480 C561 480 555.8143 478.4946 554 476 C549.1015 469.2645 548.39 467.1269 545 458 C542.0638 450.0949 542.0822 449.3872 541 441 C540.135 434.2965 539.9193 429.1615 541 427 C541.4632 426.0737 547.1513 426.8487 549 425 C553.8065 420.1935 553.3491 415.7811 559 409 C562.7931 404.4483 564.164 402.6676 569 401 C576.4631 398.4265 582.3616 401.9164 588 399 C592.7068 396.5655 592.0861 390.2401 598 386 C616.6483 372.6295 641 361 641 361 "/>
<path id="8" d="M518 473 C518 473 509.3422 465.7985 506 458 C499.7185 443.3432 496.1415 436.0185 497 424 C497.5901 415.7389 502.7069 410.7517 510 402 C513.9982 397.2021 520.5469 397.6811 522 394 C525.5576 384.9873 521.8659 377.9609 525 364 C527.1248 354.5348 528.0922 353.0835 533 345 C535.9756 340.0991 537.134 338.6685 542 336 C551.2139 330.9472 560.0291 331.0684 564 328 C564.9799 327.2428 563.0912 322.9985 564 319 C565.4274 312.7195 565.707 311.8112 569 306 C573.9499 297.2648 574.3738 296.7686 581 289 C588.6638 280.0149 588.6127 278.4147 598 272 C617.4854 258.685 641 248 641 248 "/>
<path id="9" d="M479 479 C479 479 457.5933 462.2326 449 448 C444.9394 441.2747 445.763 435.4008 447 426 C447.9629 418.6819 449.2863 415.8922 454 410 C460.0231 402.4711 469.0993 402.0189 471 396 C475.2508 382.5392 469.6651 373.3467 472 353 C473.0121 344.1805 474.0999 343.2878 478 335 C481.8781 326.7591 484.8406 327.2495 488 319 C493.4273 304.8288 490.876 302.8025 496 288 C499.7117 277.2774 500.5898 277.184 506 267 C509.0264 261.3033 508.8015 260.1985 513 256 C519.0646 249.9354 520.2557 249.4253 528 245 C533.7692 241.7033 536.5832 243.1899 541 240 C543.8658 237.9303 542.8805 234.8596 546 232 C554.0518 224.6192 555.2153 224.4373 565 218 C574.1001 212.0131 574.1532 211.146 584 207 C602.1147 199.3728 608.7805 203.0449 622 194 C632.3709 186.9042 641 168 641 168 "/>
</g>
</g>
</svg>
