<?xml version="1.0" encoding="utf-8"?>
<!DOCTYPE svg PUBLIC "-//W3C//DTD SVG 1.1//EN" "http://www.w3.org/Graphics/SVG/1.1/DTD/svg11.dtd">
<svg viewBox="0 0 800 800" preserveAspectRatio="xMinYMin meet" xmlns="http://www.w3.org/2000/svg" version="1.1">
<g fill="none" stroke="black" stroke-linecap="round" stroke-linejoin="round" stroke-width="1.7857">
<g transform="translate(87.52,181.6) scale(1.68) translate(-106,-151.1333)">
<path id="0" d="M198 184.1333 C198 184.1333 184.9069 185.1454 176 190.1333 C161.8388 198.0636 155.8551 203.7171 148 212.1333 C146.6944 213.5322 149.0995 218.423 148 220.1333 C146.3802 222.653 142.6947 222.6695 139 226.1333 C135.1 229.7896 135.5518 232.3427 132 235.1333 C129.8365 236.8332 125.0728 236.9878 125 237.1333 C124.9735 237.1862 128.4816 239.7508 129 241.1333 C129.3417 242.0445 128.9995 243.9521 128 245.1333 C124.3985 249.3897 120.1122 249.6072 118 254.1333 C114.4659 261.7063 117.3539 266.1897 114 275.1333 C111.9131 280.6983 106.1169 285.8762 106 286.1333 C105.9891 286.1573 109 286.1333 109 286.1333 C109 288.4353 105.7963 304.8376 106 310.1333 C106.0184 310.6109 109.2866 312.3117 110 312.1333 C111.0191 311.8786 114.0012 308.1262 114 308.1333 C113.9941 308.1685 106.1949 325.9739 107 330.1333 C107.4491 332.4535 114.2344 334.0884 120 339.1333 C125.9383 344.3293 131 351.1333 131 351.1333 "/>
<path id="1" d="M134 347.1333 C134 347.1333 133.4812 372.7499 134 374.1333 C134.0072 374.1525 142.9436 371.0317 143 371.1333 C143.6083 372.2283 143.4192 391.4185 144 392.1333 C144.1265 392.289 151.2346 387.3239 156 387.1333 C161.0154 386.9327 169 391.1333 169 391.1333 "/>
<path id="2" d="M321 172.1333 C321 172.1333 321.7783 168.8053 323 168.1333 C329.3559 164.6376 332.5592 161.887 341 161.1333 C358.1405 159.6029 378.2691 162.9561 379 163.1333 C379.0673 163.1497 373.9291 169.1036 374 169.1333 C375.1115 169.5995 399.6536 171.9948 410 176.1333 C412.0266 176.944 411.8483 183.3126 414 185.1333 C415.9807 186.8093 421.2797 185.9292 423 187.1333 C423.7443 187.6544 423.1084 191.4965 424 192.1333 C427.2321 194.442 432.6564 194.0672 437 197.1333 C439.3496 198.7919 438.3852 202.0415 441 204.1333 C451.7862 212.7623 459.5047 215.656 467 221.1333 C467.2851 221.3417 467.066 223.1145 467 223.1333 C466.191 223.3645 461.0807 222.593 460 223.1333 C459.5368 223.3649 458.7063 225.518 459 227.1333 C460.4545 235.1328 463.606 241.1935 464 245.1333 C464.0362 245.4954 462.2256 247.0312 461 247.1333 C457.549 247.4209 452.83 245.5297 452 246.1333 C451.1426 246.7569 451.6997 252.6782 450 255.1333 C448.5521 257.2247 442.9482 258.9874 443 259.1333 C444.1405 262.3475 455.6745 272.9465 461 286.1333 C465.0733 296.2196 463.5215 310.1285 464 311.1333 C464.0121 311.1587 470.133 306.9757 471 307.1333 C471.7037 307.2613 474.1584 310.1277 475 313.1333 C477.3451 321.5087 479.9184 327.0634 478 332.1333 C475.3764 339.0672 461.432 349.9742 461 350.1333 C460.9625 350.1472 459.0026 339.1313 459 339.1333 C458.9943 339.1379 458.3845 347.2183 456 354.1333 C453.5591 361.2119 452.7821 363.1876 449 368.1333 C447.5171 370.0726 445.8469 370.5639 443 371.1333 C439.1178 371.9098 434 371.1333 434 371.1333 "/>
<path id="3" d="M176 390.1333 C176 390.1333 176.95 398.1353 177 398.1333 C178.7919 398.0617 192.0752 395.3121 201 389.1333 C209.1073 383.5206 215.6681 371.2071 216 371.1333 C216.0019 371.1329 218.2272 384.3605 219 385.1333 C219.2273 385.3606 226.6889 381.804 227 382.1333 C229.0144 384.2662 230.5425 394.8035 236 403.1333 C238.9526 407.64 241.6453 408.6449 246 411.1333 C247.1954 411.8164 248.4701 411.7218 250 411.1333 C254.1778 409.5265 255.2941 409.1444 259 406.1333 C262.83 403.0215 264.6193 398.5582 266 398.1333 C266.696 397.9192 269.231 401.2103 272 402.1333 C274.2656 402.8885 276.8303 403.0966 278 402.1333 C282.3922 398.5163 284.0241 391.8653 289 388.1333 C291.2565 386.4409 296.8303 388.3031 298 387.1333 C299.6376 385.4957 299.7495 377.8528 301 376.1333 C301.345 375.659 304.9691 376.7776 306 376.1333 C307.2628 375.3441 307.7873 372.1439 309 371.1333 C309.5076 370.7103 311.3544 370.6491 312 371.1333 C314.0446 372.6667 315.1864 376.309 317 377.1333 C318.3015 377.7249 321.3656 375.643 323 376.1333 C324.491 376.5806 326.4701 380.1863 327 380.1333 C327.9567 380.0377 332.497 375.0076 333 375.1333 C333.8472 375.3451 337.023 382.3425 339 383.1333 C340.7621 383.8382 343.9779 380.9505 348 381.1333 C353.9306 381.4029 356.0481 381.6574 361 384.1333 C364.5859 385.9263 364.9588 389.4958 368 391.1333 C369.6944 392.0457 373.7595 391.5542 374 391.1333 C375.0623 389.2743 375.8394 377.2583 376 377.1333 C376.0194 377.1183 380.7895 383.2831 383 384.1333 C384.193 384.5922 388.8252 382.7975 389 382.1333 C389.8174 379.0272 387.9807 365.135 388 365.1333 C389.47 365.0073 424 379.1333 424 379.1333 "/>
<path id="4" d="M240 178.1333 C240 178.1333 229.1884 170.8382 219 167.1333 C213.9614 165.3011 207.1163 165.9838 207 166.1333 C206.9147 166.243 212.122 175.6861 212 176.1333 C211.9551 176.2981 207.1977 175.8543 204 177.1333 C200.5739 178.5038 197.4048 181.0202 197 182.1333 C196.7367 182.8575 198.7711 187.08 200 188.1333 C200.6037 188.6508 204 188.1333 204 188.1333 "/>
<path id="5" d="M246 180.1333 C246 180.1333 266.4023 179.148 270 177.1333 C271.0031 176.5716 270.7949 166.3384 271 166.1333 C271.0342 166.0992 276.5102 170.3782 277 170.1333 C278.9591 169.1538 281.5011 162.6759 287 158.1333 C292.1867 153.8487 293.9974 153.605 300 151.1333 C301.5118 150.5108 303.9 150.9333 304 151.1333 C304.4 151.9333 303.8906 159.0708 304 159.1333 C304.1128 159.1978 310.9947 155.1157 311 155.1333 C311.0356 155.2521 306.8237 168.7808 307 169.1333 C307.0441 169.2215 312.2661 167.1333 317 167.1333 C324.1009 167.1333 332 169.1333 332 169.1333 "/>
<path id="6" d="M187 286.1333 C187 286.1333 174.1603 299.0447 168 310.1333 C165.7617 314.1623 166.9987 322.13 167 322.1333 C167.0007 322.135 168.8513 316.4734 170 315.1333 C170.3086 314.7733 172.6073 314.7406 173 315.1333 C174.1781 316.3114 175.1316 320.8439 176 321.1333 C177.4474 321.6158 181.9235 321.1331 185 319.1333 C190.4212 315.6095 191.5944 313.7977 196 308.1333 C198.1027 305.4299 199 301.1333 199 301.1333 "/>
<path id="7" d="M255 334.1333 C255 334.1333 253 334.1333 253 334.1333 C253 335.9138 253.5308 346.2567 255 352.1333 C255.2184 353.0069 257.9783 354.1551 258 354.1333 C258.1521 353.9812 258.9832 348.1375 259 348.1333 C259.0117 348.1304 260.9465 352.8323 262 353.1333 C264.5489 353.8616 271.743 353.1808 273 352.1333 C273.9029 351.3809 274 343.1333 274 343.1333 "/>
<path id="8" d="M335 380.1333 L327 397.1333 "/>
<path id="9" d="M322 379.1333 L316 395.1333 "/>
<path id="10" d="M306 380.1333 L309 396.1333 "/>
<path id="11" d="M313 394.1333 L318 381.1333 "/>
<path id="12" d="M220 384.1333 C220 384.1333 221.9959 383.1237 222 383.1333 C222.4821 384.2583 226 398.1333 226 398.1333 "/>
<path id="13" d="M229 389.1333 L234 403.1333 "/>
<path id="14" d="M293 390.1333 L293 401.1333 "/>
<path id="15" d="M313 392.1333 L314 394.1333 "/>
<path id="16" d="M332 390.1333 L331 402.1333 "/>
<path id="17" d="M420 379.1333 C420 379.1333 423.0131 377.1071 424 375.1333 C425.0691 372.9951 424.9617 369.1525 425 369.1333 C425.0096 369.1285 428 373.1333 428 373.1333 "/>
<path id="18" d="M364 323.1333 C364 323.1333 365.6923 319.1718 366 319.1333 C366.6923 319.0468 370.2881 320.1581 372 322.1333 C375.7716 326.4852 376.5084 332.3062 379 334.1333 C380.1459 334.9737 384.8478 334.3073 387 333.1333 C388.4424 332.3465 389.7389 328.1706 390 328.1333 C390.241 328.0989 393.9943 332.1541 394 332.1333 C394.0286 332.0284 395.1585 320.4431 393 317.1333 C390.6376 313.511 379 309.1333 379 309.1333 "/>
<path id="19" d="M343 319.1333 C343 319.1333 346.8644 318.8622 347 319.1333 C347.8813 320.8959 347.0041 328.0488 349 331.1333 C350.6249 333.6446 357.7218 336.2851 358 336.1333 C358.3549 335.9398 358.522 327.8782 360 325.1333 C360.5743 324.0668 365 323.1333 365 323.1333 "/>
<path id="20" d="M362 204.1333 C362 204.1333 359.9908 202.1328 360 202.1333 C360.0786 202.1382 370.8311 203.0851 378 205.1333 C379.4664 205.5523 379.9648 206.5805 381 208.1333 C381.7592 209.2721 382.0322 211.1312 382 211.1333 C381.3617 211.1759 366.0033 209.1324 366 209.1333 C365.9983 209.1338 373.3164 210.8885 375 213.1333 C377.2318 216.1091 378.1886 222.304 378 225.1333 C377.9478 225.9166 375.8106 227.6807 374 228.1333 C370.9506 228.8957 368.4313 229.349 366 228.1333 C361.5933 225.93 356 219.1333 356 219.1333 "/>
<path id="21" d="M393 258.1333 L395 259.1333 "/>
<path id="22" d="M278 280.1333 C278 280.1333 278.9974 293.1281 279 293.1333 C279.0012 293.1357 280.9599 286.1634 281 286.1333 C281.0055 286.1292 282.7023 290.0143 283 290.1333 C283.1819 290.2061 285.0797 288.1333 286 288.1333 C287.5338 288.1333 290.9266 290.2276 291 290.1333 C291.4876 289.5064 293.6356 281.5169 293 279.1333 C292.6599 277.8581 287 275.1333 287 275.1333 "/>
<path id="23" d="M168 247.1333 C168 247.1333 164.4858 246.6476 164 247.1333 C162.7856 248.3477 160.9677 254.0795 161 254.1333 C161.0099 254.1499 167 252.1333 167 252.1333 "/>
<path id="24" d="M431 293.1333 C431 293.1333 438.5598 298.2214 439 298.1333 C439.2138 298.0906 441 291.1333 441 291.1333 "/>
<path id="25" d="M190 252.1333 L190 252.1333 "/>
<path id="26" d="M304 345.1333 C304 345.1333 305.6522 330.6705 305 330.1333 C304.0132 329.3207 288.8328 332.098 287 331.1333 C286.2879 330.7585 285.3789 322.1519 286 320.1333 C286.2055 319.4653 290.7006 318.807 291 318.1333 C291.4649 317.0874 289.9779 311.1381 290 311.1333 C290.6254 310.9993 298.8094 312.1726 305 315.1333 C309.1536 317.1198 310.4916 318.7887 313 322.1333 C314.1095 323.6127 313.9987 327.1337 314 327.1333 C314.0235 327.1275 316.5271 323.9705 317 321.1333 C317.873 315.8955 318.418 312.9822 317 309.1333 C315.8681 306.061 310.0932 302.382 310 302.1333 C309.9952 302.1204 313.0845 300.7172 314 301.1333 C316.5116 302.275 319.6308 304.121 321 307.1333 C323.5893 312.8299 323.8342 322.9675 324 323.1333 C324.0087 323.1421 329.4112 316.2511 330 316.1333 C330.2387 316.0856 334.2407 320.5317 334 321.1333 C332.1879 325.6635 322.3917 339.22 320 341.1333 C319.7768 341.3119 315.7599 337.28 314 337.1333 C312.4022 337.0002 310.0971 338.2459 308 340.1333 C305.7342 342.1726 304 346.1333 304 346.1333 "/>
<path id="27" d="M224 304.1333 C224 304.1333 218.4787 314.6288 218 320.1333 C217.8073 322.3496 221.6892 327.1555 222 327.1333 C222.9388 327.0663 228.8503 319.527 232 319.1333 C235.8297 318.6546 240.9331 324.321 246 324.1333 C250.8495 323.9537 258.9283 318.0775 259 318.1333 C259.0526 318.1742 255 331.1333 255 331.1333 "/>
<path id="28" d="M219 314.1333 C219 314.1333 216.3357 313.7138 216 314.1333 C212.8951 318.0144 207.2851 327.4226 207 329.1333 C206.9654 329.3407 210.867 330.1781 213 332.1333 C216.2503 335.1128 215.7539 336.8872 219 340.1333 C220.8549 341.9882 223.1821 343.406 224 343.1333 C226.5901 342.27 232.4343 334.9291 234 335.1333 C236.5233 335.4625 243.142 344.9058 247 346.1333 C248.8068 346.7082 256 342.1333 256 342.1333 "/>
<path id="29" d="M229 324.1333 L233 336.1333 "/>
<path id="30" d="M239 326.1333 L247 343.1333 "/>
<path id="31" d="M309 335.1333 L313 321.1333 "/>
<path id="32" d="M321 319.1333 C321 319.1333 318.1141 337.7454 318 338.1333 C317.9919 338.1609 316 336.1333 316 336.1333 "/>
<path id="33" d="M295 318.1333 L298 329.1333 "/>
<path id="34" d="M301 318.1333 L302 320.1333 "/>
<path id="35" d="M219 217.1333 C219 217.1333 212.8126 221.4409 209 226.1333 C206.8989 228.7193 206.5058 230.0985 206 233.1333 C205.674 235.0891 206.9565 238.1333 207 238.1333 C207.3042 238.1333 211.3871 233.6559 214 233.1333 C216.4823 232.6369 219.0479 235.5023 222 235.1333 C225.2378 234.7286 230 231.1333 230 231.1333 "/>
<path id="36" d="M133 291.1333 C133 291.1333 130.0444 292.6008 130 293.1333 C129.8061 295.4605 131.8513 302.9846 132 303.1333 C132 303.1333 134.7361 299.675 136 299.1333 C136.5687 298.8896 139 300.1333 139 300.1333 "/>
<path id="37" d="M193 358.1333 C193 358.1333 191.0015 357.1288 191 357.1333 C190.9832 357.1836 191.7272 360.9287 192 361.1333 C192.1534 361.2484 195 360.1333 195 360.1333 "/>
<path id="38" d="M416 325.1333 C416 325.1333 423.2664 333.0111 424 333.1333 C424.2358 333.1726 426.7889 329.8583 428 327.1333 C428.4671 326.0823 428.3118 324.5491 428 324.1333 C427.6622 323.6829 425 323.1333 425 323.1333 "/>
<path id="39" d="M405 225.1333 C405 225.1333 417.6146 230.2297 418 230.1333 C418.0328 230.1251 418.1433 224.6485 417 222.1333 C416.3485 220.7 413 219.1333 413 219.1333 "/>
<path id="40" d="M316 248.1333 C316 248.1333 319.4197 260.6861 322 266.1333 C322.2997 266.7661 324.3149 267.3903 325 267.1333 C326.6965 266.4971 328.4858 265.4046 330 263.1333 C332.9596 258.694 333.8636 256.9629 335 252.1333 C335.538 249.8469 335.1657 247.7361 334 246.1333 C332.2515 243.7291 329.9287 241.9143 327 241.1333 C324.2822 240.4086 319 242.1333 319 242.1333 "/>
<path id="41" d="M234 261.1333 C234 261.1333 231.0683 262.485 231 263.1333 C230.5021 267.8636 231.982 280.0494 232 280.1333 C232.0027 280.1459 233.1842 277.4053 234 277.1333 C235.9035 276.4988 238.3613 277.853 241 277.1333 C242.8163 276.638 243.6714 275.8415 245 274.1333 C246.8117 271.804 247.6224 270.7765 248 268.1333 C248.4615 264.9028 247 260.1333 247 260.1333 "/>
<path id="42" d="M166 362.1333 C166 362.1333 162.0075 359.122 162 359.1333 C161.6001 359.7332 158.6185 367.9482 158 374.1333 C157.8072 376.0611 159.9567 379.1395 160 379.1333 C160.1974 379.1051 163.1129 373.8591 165 373.1333 C166.9665 372.377 170.3436 374.7464 173 374.1333 C175.0252 373.666 178 370.1333 178 370.1333 "/>
<path id="43" d="M362 353.1333 C362 353.1333 364.734 363.3566 367 367.1333 C367.4532 367.8887 370.7571 368.4005 371 368.1333 C372.6082 366.3643 375.9715 360.7618 377 356.1333 C377.4286 354.2048 375 350.1333 375 350.1333 "/>
<path id="44" d="M260 369.1333 C260 369.1333 257.1009 370.4775 257 371.1333 C256.5554 374.023 257.2785 380.8106 258 382.1333 C258.1704 382.4458 261.4032 381.5345 263 382.1333 C264.3174 382.6274 265.9392 385.1713 266 385.1333 C266.5401 384.7958 270.8027 377.1333 271 377.1333 C271.1973 377.1333 275.8811 385.1753 276 385.1333 C276.9255 384.8067 284.0718 377.0257 288 371.1333 C288.7142 370.062 288 367.1333 288 367.1333 "/>
<path id="45" d="M263 188.1333 C263 188.1333 253.9926 169.2369 254 169.1333 C254.0017 169.1092 261.6755 171.189 264 174.1333 C267.2353 178.2314 269 188.1333 269 188.1333 "/>
<path id="46" d="M158 199.1333 C158 199.1333 153.9018 195.1333 152 195.1333 C148.5134 195.1333 144.8912 196.323 141 199.1333 C137.2178 201.865 135.5592 203.8455 134 208.1333 C132.1952 213.0964 133 221.133 133 221.1333 C133 221.1334 133.522 217.4065 134 217.1333 C134.8729 216.6345 138.1571 218.0548 140 217.1333 C143.5323 215.3672 148 210.1333 148 210.1333 "/>
<path id="47" d="M159 197.1333 C159 197.1333 167.0879 190.7217 169 190.1333 C169.3268 190.0328 172 193.1333 172 193.1333 "/>
<path id="48" d="M411 184.1333 C411 184.1333 418.5746 175.9524 421 174.1333 C421.1732 174.0034 422.1615 174.4745 423 175.1333 C428.9767 179.8293 431.1742 180.2145 435 185.1333 C436.8909 187.5645 435.493 190.3706 437 193.1333 C437.859 194.7081 440.1631 194.8779 441 196.1333 C441.4431 196.7979 441 199.1333 441 199.1333 C440.2534 199.1333 430 196.1333 430 196.1333 "/>
<path id="49" d="M449 253.1333 C449 253.1333 458.705 259.3521 461 264.1333 C462.9171 268.1272 461.4802 274.5321 461 278.1333 C460.9566 278.4592 459 279.1333 459 279.1333 "/>
</g>
</g>
</svg>
