<?xml version="1.0" encoding="utf-8"?>
<!DOCTYPE svg PUBLIC "-//W3C//DTD SVG 1.1//EN" "http://www.w3.org/Graphics/SVG/1.1/DTD/svg11.dtd">
<svg viewBox="0 0 800 800" preserveAspectRatio="xMinYMin meet" xmlns="http://www.w3.org/2000/svg" version="1.1">
<g fill="none" stroke="black" stroke-linecap="round" stroke-linejoin="round" stroke-width="0.70084">
<g transform="translate(87.52,173.131) scale(4.2805) translate(-132,-245)">
<path id="0" d="M148 341 C148 341 146.072 327.0174 148 316 C149.2513 308.8497 151.0159 307.6402 155 301 C156.6601 298.2332 157.21 297.6096 160 296 C169.4723 290.5352 171.4252 287.7409 181 286 C190.4985 284.273 195.5622 285.4686 204 288 C207.2536 288.9761 208.7066 291.3305 211 295 C213.1926 298.5082 211.9295 300.3766 214 304 C215.5184 306.6571 218.635 306.8707 219 309 C220.8803 319.9687 220 339 220 339 "/>
<path id="1" d="M220 339 C220 339 207.6512 347.3113 196 350 C183.6058 352.8602 180.4921 352.6656 168 351 C159.9608 349.9281 151 344 151 344 "/>
<path id="2" d="M211 295 C211 295 217.4857 297.6444 219 300 C220.4396 302.2394 220 309 220 309 "/>
<path id="3" d="M198 294 L202 302 "/>
<path id="4" d="M199 303 L207 309 "/>
<path id="5" d="M197 324 L198 324 "/>
<path id="6" d="M205 321 L212 328 "/>
<path id="7" d="M191 300 L195 309 "/>
<path id="8" d="M172 314 C172 314 187.6575 325.1193 188 326 C188.047 326.1208 179 332 179 332 "/>
<path id="9" d="M184 305 L185 310 "/>
<path id="10" d="M166 312 C166 312 166.7303 316.6855 166 318 C165.2967 319.2659 161 321 161 321 "/>
<path id="11" d="M164 325 L170 329 "/>
<path id="12" d="M174 331 L176 333 "/>
<path id="13" d="M166 340 L163 341 "/>
<path id="14" d="M165 338 C165 338 170.4257 335.234 173 335 C173.877 334.9203 176 337 176 337 "/>
<path id="15" d="M184 341 L193 337 "/>
<path id="16" d="M170 311 L172 305 "/>
<path id="17" d="M176 296 L176 301 "/>
<path id="18" d="M203 328 L203 336 "/>
<path id="19" d="M202 340 L217 338 "/>
<path id="20" d="M178 329 L179 329 "/>
<path id="21" d="M170 325 L175 320 "/>
<path id="22" d="M156 316 L163 311 "/>
<path id="23" d="M189 313 L188 314 "/>
<path id="24" d="M189 325 L201 323 "/>
<path id="25" d="M205 321 L205 318 "/>
<path id="26" d="M189 320 L200 316 "/>
<path id="27" d="M209 316 L211 319 "/>
<path id="28" d="M189 293 L183 295 "/>
<path id="29" d="M196 346 L199 344 "/>
<path id="30" d="M157 333 L162 327 "/>
<path id="31" d="M223 310 C223 310 237.079 311.1484 241 314 C243.3867 315.7358 242.3811 321.0532 245 326 C246.4186 328.6795 249.6134 329.3248 250 331 C250.4736 333.0521 248 339 248 339 "/>
<path id="32" d="M248 339 C248 339 246.6862 341 246 341 C236.0497 341 217 339 217 339 "/>
<path id="33" d="M240 314 C240 314 244.0864 313.1168 246 314 C249.1157 315.438 252.5654 318.1528 253 320 C253.5851 322.4866 250 331 250 331 "/>
<path id="34" d="M230 319 L233 326 "/>
<path id="35" d="M236 326 L240 326 "/>
<path id="36" d="M239 325 L239 322 "/>
<path id="37" d="M240 325 L242 336 "/>
<path id="38" d="M214 330 L218 331 "/>
<path id="39" d="M222 327 L224 325 "/>
<path id="40" d="M226 328 L227 331 "/>
<path id="41" d="M230 335 L232 334 "/>
<path id="42" d="M243 312 C243 312 244.3896 308.9482 244 307 C243.1233 302.6166 242.9093 300.3687 240 297 C234.604 290.752 232.1602 287.5703 225 285 C215.8334 281.7094 209.038 282.4259 201 283 C199.556 283.1031 197 287 197 287 "/>
<path id="43" d="M214 289 L216 289 "/>
<path id="44" d="M224 297 L224 299 "/>
<path id="45" d="M224 299 L226 297 "/>
<path id="46" d="M233 298 L233 299 "/>
<path id="47" d="M233 299 L233 303 "/>
<path id="48" d="M234 310 L233 310 "/>
<path id="49" d="M214 285 C214 285 212.2461 276.4922 209 270 C207.1451 266.2902 206.3598 265.138 203 263 C196.4265 258.8169 194.6658 257.2776 187 256 C175.3896 254.0649 171.4864 253.6406 161 256 C154.5367 257.4542 151.9337 259.5559 147 265 C138.6753 274.1859 136.0687 277.4214 132 288 C129.7372 293.8833 129.9298 297.7895 132 304 C135.1053 313.3158 138.772 316.6808 144 324 C144.5751 324.8051 147 325 147 325 "/>
<path id="50" d="M197 272 L194 275 "/>
<path id="51" d="M184 267 L181 267 "/>
<path id="52" d="M178 262 L176 266 "/>
<path id="53" d="M183 273 L164 284 "/>
<path id="54" d="M162 268 L161 271 "/>
<path id="55" d="M173 273 L173 279 "/>
<path id="56" d="M186 281 L185 281 "/>
<path id="57" d="M153 283 L152 284 "/>
<path id="58" d="M149 289 L154 288 "/>
<path id="59" d="M157 276 L155 278 "/>
<path id="60" d="M145 291 L144 291 "/>
<path id="61" d="M146 301 L146 302 "/>
<path id="62" d="M147 302 L136 303 "/>
<path id="63" d="M138 302 L141 297 "/>
<path id="64" d="M145 282 L146 279 "/>
<path id="65" d="M150 293 L152 294 "/>
<path id="66" d="M153 297 L153 298 "/>
<path id="67" d="M144 308 L142 313 "/>
<path id="68" d="M200 257 C200 257 212.6307 246.3949 221 245 C228.3383 243.777 234.9021 247.0425 242 250 C243.5631 250.6513 244.4617 252.5775 245 255 C246.2561 260.6524 244.4254 263.0137 246 268 C246.8962 270.838 250.1011 271.3033 251 274 C252.0552 277.1657 252.2388 279.5933 251 283 C248.8102 289.022 247.3764 290.6858 243 296 C241.0023 298.4257 237 300 237 300 "/>
<path id="69" d="M229 250 L229 256 "/>
<path id="70" d="M221 258 L219 259 "/>
<path id="71" d="M224 268 L230 266 "/>
<path id="72" d="M218 297 C218 297 220.7265 297.6792 222 297 C226.8606 294.4077 233 289 233 289 "/>
<path id="73" d="M234 268 L235 272 "/>
<path id="74" d="M236 284 L236 282 "/>
<path id="75" d="M211 255 L212 278 "/>
<path id="76" d="M220 270 L220 271 "/>
<path id="77" d="M220 273 L221 277 "/>
<path id="78" d="M226 277 L228 277 "/>
<path id="79" d="M254 272 C254 272 273.4082 276.1122 276 280 C279.3541 285.0312 278.9307 295.5906 278 308 C277.5864 313.5141 276.5409 316.4591 273 320 C266.1265 326.8735 253 333 253 333 "/>
<path id="80" d="M267 290 L271 291 "/>
<path id="81" d="M253 295 L255 294 "/>
<path id="82" d="M258 291 L261 292 "/>
<path id="83" d="M255 281 L257 281 "/>
<path id="84" d="M266 281 L256 293 "/>
<path id="85" d="M251 305 L253 305 "/>
<path id="86" d="M260 308 L259 309 "/>
<path id="87" d="M261 304 L263 310 "/>
<path id="88" d="M263 301 L265 299 "/>
<path id="89" d="M264 307 L263 314 "/>
<path id="90" d="M257 316 L256 317 "/>
<path id="91" d="M256 317 L260 320 "/>
<path id="92" d="M272 311 L272 306 "/>
</g>
</g>
</svg>
