<?xml version="1.0" encoding="utf-8"?>
<!DOCTYPE svg PUBLIC "-//W3C//DTD SVG 1.1//EN" "http://www.w3.org/Graphics/SVG/1.1/DTD/svg11.dtd">
<svg viewBox="0 0 800 800" preserveAspectRatio="xMinYMin meet" xmlns="http://www.w3.org/2000/svg" version="1.1">
<g fill="none" stroke="black" stroke-linecap="round" stroke-linejoin="round" stroke-width="1.3249">
<g transform="translate(87.52,162.2435) scale(2.2643) translate(-136,-158)">
<path id="0" d="M168 200 C168 200 170.6845 198.9466 171 198 C172.4375 193.6875 170.7832 189.877 173 185 C175.014 180.5692 176.4936 179.3798 181 176 C189.8601 169.3549 190.8501 168.9212 201 164 C206.8731 161.1524 207.6772 160.2941 214 160 C269.6676 157.4108 273.5662 156.4324 330 158 C343.7096 158.3808 346.1039 158.6673 358 164 C373.104 170.7708 377.5722 172.3454 388 184 C400.4196 197.8807 401.1966 202.7921 409 221 C412.4412 229.0296 411.6824 230.5767 412 240 C413.1641 274.5338 418.9258 283.2861 412 310 C407.522 327.2722 398.2646 329.54 384 348 C381.4559 351.2924 381.3163 351.9814 378 354 C370.486 358.5737 369.2188 360.459 361 362 C347.1447 364.5979 344.8919 361.5471 330 363 C325.0711 363.4809 324.9035 365.6857 320 366 C287.2236 368.1011 285.0064 370.1822 252 368 C225.9027 366.2746 222.1963 366.7902 199 358 C177.8202 349.974 172.564 346.4718 157 332 C147.5675 323.2294 147.6425 318.7031 142 305 C137.498 294.0667 137.1075 292.8135 136 281 C134.1964 261.7618 134.1964 260.2382 136 241 C137.1075 229.1865 137.1829 227.291 142 217 C147.4785 205.296 149.2979 204.2561 158 194 C162.8017 188.3409 164.279 187.4962 170 184 C172.0883 182.7238 176 183 176 183 "/>
<path id="1" d="M148 221 L148 221 "/>
<path id="2" d="M152 219 L154 216 "/>
<path id="3" d="M144 225 L145 223 "/>
<path id="4" d="M142 231 L142 234 "/>
<path id="5" d="M142 241 L142 247 "/>
<path id="6" d="M142 249 L144 260 "/>
<path id="7" d="M152 246 L152 249 "/>
<path id="8" d="M145 243 L147 244 "/>
<path id="9" d="M152 264 L154 268 "/>
<path id="10" d="M150 278 L152 278 "/>
<path id="11" d="M152 289 L155 294 "/>
<path id="12" d="M160 286 L162 287 "/>
<path id="13" d="M159 296 L169 303 "/>
<path id="14" d="M164 308 L169 311 "/>
<path id="15" d="M166 317 L173 324 "/>
<path id="16" d="M179 328 L191 332 "/>
<path id="17" d="M183 337 L184 341 "/>
<path id="18" d="M193 342 L195 343 "/>
<path id="19" d="M193 336 L197 336 "/>
<path id="20" d="M198 350 L201 351 "/>
<path id="21" d="M206 347 L212 347 "/>
<path id="22" d="M208 341 L210 340 "/>
<path id="23" d="M221 350 L227 350 "/>
<path id="24" d="M223 348 L227 345 "/>
<path id="25" d="M220 341 L222 340 "/>
<path id="26" d="M212 331 L221 330 "/>
<path id="27" d="M193 320 L196 320 "/>
<path id="28" d="M186 320 L188 319 "/>
<path id="29" d="M241 356 L244 356 "/>
<path id="30" d="M238 349 L244 347 "/>
<path id="31" d="M253 354 L257 355 "/>
<path id="32" d="M221 356 L228 355 "/>
<path id="33" d="M233 333 L235 331 "/>
<path id="34" d="M226 315 L225 317 "/>
<path id="35" d="M220 317 L217 319 "/>
<path id="36" d="M207 316 L205 317 "/>
<path id="37" d="M202 308 L200 310 "/>
<path id="38" d="M209 326 L209 330 "/>
<path id="39" d="M194 304 L193 304 "/>
<path id="40" d="M188 298 L182 305 "/>
<path id="41" d="M250 336 L250 340 "/>
<path id="42" d="M259 341 L258 343 "/>
<path id="43" d="M256 330 L256 331 "/>
<path id="44" d="M246 330 L244 333 "/>
<path id="45" d="M261 344 L260 347 "/>
<path id="46" d="M262 350 L261 356 "/>
<path id="47" d="M267 356 L265 360 "/>
<path id="48" d="M271 341 L267 346 "/>
<path id="49" d="M268 331 L265 334 "/>
<path id="50" d="M263 329 L262 330 "/>
<path id="51" d="M262 325 L257 330 "/>
<path id="52" d="M250 321 L248 322 "/>
<path id="53" d="M248 319 L246 320 "/>
<path id="54" d="M244 319 L243 320 "/>
<path id="55" d="M236 316 L235 317 "/>
<path id="56" d="M235 310 L232 312 "/>
<path id="57" d="M232 306 L228 310 "/>
<path id="58" d="M225 306 L224 307 "/>
<path id="59" d="M221 298 L218 302 "/>
<path id="60" d="M215 296 L209 300 "/>
<path id="61" d="M209 294 L206 298 "/>
<path id="62" d="M206 293 L202 297 "/>
<path id="63" d="M202 288 L198 292 "/>
<path id="64" d="M197 286 L192 290 "/>
<path id="65" d="M192 284 L188 287 "/>
<path id="66" d="M189 283 L186 282 "/>
<path id="67" d="M186 276 L183 277 "/>
<path id="68" d="M184 271 L180 275 "/>
<path id="69" d="M181 270 L176 274 "/>
<path id="70" d="M175 267 L171 269 "/>
<path id="71" d="M175 259 L171 264 "/>
<path id="72" d="M173 257 L169 259 "/>
<path id="73" d="M171 254 L169 254 "/>
<path id="74" d="M170 250 L163 251 "/>
<path id="75" d="M167 243 L163 246 "/>
<path id="76" d="M166 238 L163 240 "/>
<path id="77" d="M168 234 L165 236 "/>
<path id="78" d="M167 229 L162 231 "/>
<path id="79" d="M164 226 L162 227 "/>
<path id="80" d="M163 223 L157 225 "/>
<path id="81" d="M158 216 L150 216 "/>
<path id="82" d="M151 210 L147 215 "/>
<path id="83" d="M149 216 L145 226 "/>
<path id="84" d="M148 226 L149 227 "/>
<path id="85" d="M151 226 L149 231 "/>
<path id="86" d="M152 229 L151 230 "/>
<path id="87" d="M156 227 L157 230 "/>
<path id="88" d="M160 231 L156 236 "/>
<path id="89" d="M154 236 C154 236 152.9532 238.8597 153 239 C153.0117 239.0351 155 239 155 239 "/>
<path id="90" d="M152 241 L149 248 "/>
<path id="91" d="M151 246 L148 251 "/>
<path id="92" d="M155 249 L153 253 "/>
<path id="93" d="M158 250 L156 256 "/>
<path id="94" d="M158 255 L155 259 "/>
<path id="95" d="M156 259 L156 267 "/>
<path id="96" d="M172 265 C172 265 169.6456 264.5158 169 265 C166.9554 266.5334 164 271 164 271 "/>
<path id="97" d="M169 267 L167 269 "/>
<path id="98" d="M173 268 C173 268 170.5687 266.7563 170 267 C168.7361 267.5417 166 271 166 271 "/>
<path id="99" d="M163 261 L163 263 "/>
<path id="100" d="M162 255 L159 267 "/>
<path id="101" d="M158 268 L166 281 "/>
<path id="102" d="M163 275 L163 286 "/>
<path id="103" d="M166 280 L169 289 "/>
<path id="104" d="M170 285 L170 286 "/>
<path id="105" d="M171 287 L172 290 "/>
</g>
</g>
</svg>
