<?xml version="1.0" encoding="utf-8"?>
<!DOCTYPE svg PUBLIC "-//W3C//DTD SVG 1.1//EN" "http://www.w3.org/Graphics/SVG/1.1/DTD/svg11.dtd">
<svg viewBox="0 0 800 800" preserveAspectRatio="xMinYMin meet" xmlns="http://www.w3.org/2000/svg" version="1.1">
<g fill="none" stroke="black" stroke-linecap="round" stroke-linejoin="round" stroke-width="0.93606">
<g transform="translate(100.3397,87.52) scale(3.2049) translate(-166,-159.4167)">
<path id="0" d="M242 350.4167 C242 350.4167 233.824 345.5349 230 341.4167 C228.8745 340.2046 228.75 336.7917 229 336.4167 C229.25 336.0417 232.4008 334.9246 234 335.4167 C237.2508 336.4169 240.2403 338.437 242 340.4167 C242.5812 341.0705 242.5828 343.251 242 344.4167 C241.1257 346.1652 238 348.4167 238 348.4167 "/>
<path id="1" d="M243 341.4167 C243 341.4167 233.0254 329.1998 232 326.4167 C231.864 326.0476 234.2425 323.1978 236 322.4167 C237.5209 321.7407 239.5429 321.6881 241 322.4167 C243.1857 323.5095 245.0839 325.2181 246 327.4167 C246.9053 329.5894 246.3055 334.1112 246 334.4167 C245.7818 334.6349 240 333.4167 240 333.4167 "/>
<path id="2" d="M242 329.4167 C242 329.4167 242.8077 321.3338 244 320.4167 C245.5726 319.207 254.8128 319.1593 255 319.4167 C255.2626 319.7777 253.8806 328.7838 252 331.4167 C251.0692 332.7198 245 333.4231 245 333.4167 C245 333.391 250.6909 325.4856 252 325.4167 C254.0519 325.3087 261.5854 329.5996 264 332.4167 C264.9778 333.5575 264.5626 338.5165 264 339.4167 C263.6684 339.9472 259 340.4167 259 340.4167 C259 340.4166 263.9957 338.4081 264 338.4167 C264.0601 338.5369 263.1402 345.7832 262 346.4167 C258.9725 348.0986 249.9997 349.369 246 348.4167 C244.2823 348.0077 242.0691 344.6241 241 341.4167 C240.0131 338.456 240.619 333.6833 241 333.4167 C241.6327 332.9738 247.0679 333.106 251 334.4167 C253.41 335.22 255.3811 337.4883 256 338.4167 C256.1125 338.5855 255.0036 340.4203 255 340.4167 C254.9819 340.3986 253.7545 337.1533 254 336.4167 C254.2009 335.814 255.6179 334.7622 257 334.4167 C258.9744 333.9231 260.2481 333.6867 262 334.4167 C265.1826 335.7427 267.9586 337.8545 269 339.4167 C269.3591 339.9553 268.281 343.3723 268 343.4167 C264.9271 343.9019 251.5038 342.9474 250 342.4167 C249.9373 342.3946 250.9991 337.4146 251 337.4167 C251.0025 337.4224 253.6273 348.4409 253 349.4167 C252.4689 350.2428 243.7059 352.0259 242 351.4167 C241.0878 351.0909 238.9414 344.4577 239 344.4167 C239.4006 344.1362 251.5614 344.2572 252 344.4167 C252.0184 344.4234 250 348.4167 250 348.4167 "/>
<path id="3" d="M275 342.4167 C275 342.4167 270.5344 325.1412 271 321.4167 C271.088 320.7127 277.0089 318.2184 278 318.4167 C278.6195 318.5406 280.8381 321.6353 281 323.4167 C281.1787 325.3823 279.0024 329.4179 279 329.4167 C278.9853 329.4093 276.8407 321.576 277 321.4167 C277.2124 321.2042 282.5784 321.4835 286 322.4167 C286.9393 322.6728 288 323.9836 288 324.4167 C288 325.2829 286.0045 328.4144 286 328.4167 C285.9983 328.4175 285.7172 325.5816 286 325.4167 C288.3159 324.0657 296.367 321.3 298 321.4167 C298.3286 321.4401 300 324.3676 300 326.4167 C300 329.6952 298.9798 333.7635 298 334.4167 C296.6639 335.3074 291.4586 335.2148 288 334.4167 C286.723 334.122 284.9915 331.424 285 331.4167 C285.2505 331.2019 292.8045 328.2478 295 328.4167 C295.7434 328.4739 297.859 331.2889 298 332.4167 C298.1208 333.3833 296.8896 336.1358 296 336.4167 C291.1935 337.9345 279 338.4167 279 338.4167 "/>
<path id="4" d="M275 339.4167 C275 339.4167 266.7966 330.0098 263 322.4167 C261.8445 320.1057 262.671 318.7065 263 315.4167 C263.1457 313.9598 263.3341 312.8923 264 312.4167 C265.5741 311.2923 268.5058 310.2507 270 310.4167 C270.862 310.5125 272.6469 312.1221 273 313.4167 C273.7398 316.1291 273.4 320.6167 273 321.4167 C272.9 321.6167 269.0094 321.4733 269 321.4167 C268.8349 320.4259 269.9571 310.9811 271 309.4167 C271.3129 308.9473 274.6087 308.6809 277 309.4167 C280.2804 310.426 283.8001 313.4452 284 313.4167 C284.0222 313.4135 283.803 308.5743 284 308.4167 C284.2069 308.2512 288.9093 309.1445 289 309.4167 C289.2495 310.1651 287 317.4167 287 317.4167 C287 317.4167 287.4764 314.6785 288 314.4167 C289.5708 313.6313 294.4438 312.9161 295 313.4167 C296.0941 314.4014 296.8775 318.5526 298 323.4167 C298.3149 324.7814 298.3118 326.0009 298 326.4167 C297.6622 326.8671 294.9977 327.4161 295 327.4167 C295.0093 327.419 305.0307 327.5355 306 328.4167 C306.6659 329.0221 306.577 334.2431 306 337.4167 C305.8485 338.2501 304.7092 339.3457 304 339.4167 C301.4532 339.6713 296 338.4167 296 338.4167 "/>
<path id="5" d="M279 345.4167 C279 345.4167 273.0165 341.7349 270 338.4167 C269.0246 337.3437 268.7391 334.721 269 334.4167 C269.747 333.5452 272.9966 331.5835 276 331.4167 C280.5634 331.1632 287 333.4167 287 333.4167 C287 333.4167 277 332.4167 277 332.4167 "/>
<path id="6" d="M254 313.4167 C254 313.4167 256.0136 315.4076 256 315.4167 C255.8096 315.5436 249.8923 318.0474 248 317.4167 C245.5916 316.6139 242.7837 313.7611 241 310.4167 C239.5819 307.7578 239.562 303.0737 240 302.4167 C240.3385 301.9089 245.8357 300.7816 247 301.4167 C248.4103 302.1859 251.0029 308.4051 251 308.4167 C250.9992 308.42 246.5174 306.6585 246 305.4167 C245.0839 303.218 245.4375 296.9792 246 296.4167 C246.5625 295.8542 254.2212 295.8974 255 296.4167 C255.3462 296.6474 255.2099 302.1543 255 302.4167 C254.923 302.5129 251.2316 301.8798 251 301.4167 C250.4596 300.3359 250.6221 294.5945 251 294.4167 C253.004 293.4736 261.2357 292.3344 268 293.4167 C271.5348 293.9822 274.2149 296.0365 276 298.4167 C277.2577 300.0936 277.3676 303.7624 277 305.4167 C276.8554 306.0676 274.9768 307.4167 274 307.4167 C272.0464 307.4167 268.0084 305.4167 268 305.4167 C267.9972 305.4167 270 306.8649 270 307.4167 C270 309.3479 268.0426 314.4209 268 314.4167 C267.7119 314.3879 260 306.4167 260 306.4167 "/>
<path id="7" d="M258 310.4167 C258 310.4167 252.7236 300.9695 253 300.4167 C253.3686 299.6795 261.0578 296.2196 265 296.4167 C267.7562 296.5545 271.098 299.5147 273 301.4167 C273.4389 301.8556 273.1895 304.3219 273 304.4167 C271.9261 304.9536 266.2865 305.9313 265 305.4167 C264.3229 305.1458 262.9996 300.4164 263 300.4167 C263.0007 300.4171 267.1257 304.5753 268 307.4167 C268.5828 309.3109 267.5966 312.9692 267 313.4167 C266.2407 313.9861 261.0807 313.957 260 313.4167 C259.5368 313.1851 259 309.4167 259 309.4167 "/>
<path id="8" d="M283 299.4167 C283 299.4167 281.813 293.3734 283 289.4167 C284.4007 284.7477 288.6253 279.4167 289 279.4167 C289.562 279.4167 296.0186 285.9492 298 289.4167 C298.4486 290.2018 297.6519 292.8734 297 293.4167 C296.1224 294.148 292 294.4167 292 294.4167 C292 294.4167 298.1642 292.944 301 293.4167 C302.1236 293.6039 303.9254 295.4463 304 296.4167 C304.2275 299.3741 302.75 305.9167 302 306.4167 C301.25 306.9167 292.5531 305.1081 292 304.4167 C291.646 303.9742 293.0178 297.2898 294 296.4167 C294.7546 295.7459 298.3613 295.697 301 296.4167 C302.8163 296.912 304.4111 297.9445 305 299.4167 C306.6386 303.5132 307 305.983 307 311.4167 C307 314.5863 305.8631 318.0391 305 318.4167 C302.6132 319.4609 296.8694 319.6926 291 318.4167 C286.7711 317.4973 282.0533 313.6831 282 313.4167 C281.9718 313.2756 289 308.4167 289 308.4167 "/>
<path id="9" d="M297 307.4167 C297 307.4167 290.3255 308.7112 289 308.4167 C288.716 308.3536 288 306.7978 288 305.4167 C288 299.892 287.7726 298.6331 289 293.4167 C289.5724 290.984 290.4892 289.5498 292 288.4167 C293.287 287.4514 295.9614 287.0272 297 287.4167 C298.0105 287.7956 299.6148 289.6189 300 291.4167 C300.8298 295.2889 300.8269 300.6534 300 301.4167 C298.6701 302.6443 291.5712 304.1024 287 303.4167 C284.2105 302.9982 281.0626 300.5419 280 298.4167 C278.8749 296.1664 279.5634 289.7077 280 289.4167 C280.8246 288.8669 286.7836 289.1893 292 290.4167 C294.4327 290.9891 294.9973 291.6644 297 293.4167 C298.7072 294.9105 299.8623 296.453 300 297.4167 C300.0844 298.0073 298.7191 300.3139 298 300.4167 C292.3742 301.2204 287.3405 301.6523 279 300.4167 C275.2281 299.8579 273.4461 298.6182 271 296.4167 C269.6293 295.1831 269 293.2746 269 291.4167 C269 289.5588 269.6886 287.5824 271 286.4167 C272.9671 284.6681 276.4426 282.8975 278 283.4167 C282.4992 284.9164 290.0864 289.1794 292 293.4167 C294.462 298.8681 292 314.4167 292 314.4167 "/>
<path id="10" d="M242 323.4167 C242 323.4167 228.9733 318.8194 224 315.4167 C223.0633 314.7758 223.1373 312.888 223 310.4167 C222.647 304.0619 221.7788 301.813 223 297.4167 C223.6002 295.2561 226.4292 293.2021 228 292.4167 C228.5236 292.1549 230.9108 293.06 231 293.4167 C231.5605 295.6587 231.7282 301.2612 231 304.4167 C230.8218 305.189 228.3528 306.549 228 306.4167 C226.9221 306.0125 223.5603 303.3777 223 301.4167 C222.2405 298.7584 223.6725 292.7987 224 292.4167 C224.0759 292.3281 228.4585 293.5503 229 294.4167 C229.6339 295.431 229.4705 299.319 229 300.4167 C228.8208 300.8349 226 301.4206 226 301.4167 C226 301.4009 227.741 297.8745 229 297.4167 C231.261 296.5945 233.7242 296.6607 237 297.4167 C239.3309 297.9546 239.8108 298.6653 242 300.4167 C244.6626 302.5467 246.6134 303.7415 247 305.4167 C247.4736 307.4688 245.9587 313.0058 245 313.4167 C241.5688 314.8872 226.0545 314.4494 226 314.4167 C225.9858 314.4081 230.9248 309.0015 235 307.4167 C238.1288 306.1999 240.3261 306.8044 244 307.4167 C245.3607 307.6435 246.6207 308.4305 247 309.4167 C248.4155 313.0969 249.4593 319.9156 249 320.4167 C248.3528 321.1228 240.8022 322.3771 236 321.4167 C232.9986 320.8164 230.7231 318.3859 229 316.4167 C228.5353 315.8856 229 313.4167 229 313.4167 "/>
<path id="11" d="M259 297.4167 C259 297.4167 240.2712 290.4721 237 285.4167 C234.2569 281.1774 236.2663 272.5881 237 263.4167 C237.1054 262.0993 238.1962 260.6578 239 260.4167 C241.2175 259.7514 244.8199 259.3266 247 260.4167 C249.5889 261.7111 252.36 264.8567 253 267.4167 C253.64 269.9767 251.8664 275.839 251 276.4167 C249.9891 277.0906 241.8427 276.4701 241 275.4167 C239.5392 273.5907 238.6122 262.5024 239 261.4167 C239.073 261.2124 244.859 260.618 246 261.4167 C247.2877 262.3181 248.8164 265.4789 249 268.4167 C249.2267 272.0442 247.9469 276.1992 247 277.4167 C246.6511 277.8652 243.4571 278.1452 242 277.4167 C239.8143 276.3238 237.4331 273.716 237 272.4167 C236.7834 271.767 238.21 268.6142 239 268.4167 C243.806 267.2152 250.3426 265.6986 257 267.4167 C262.7495 268.9004 267.1868 272.7378 270 276.4167 C271.1882 277.9705 270.7398 281.7042 270 284.4167 C269.6469 285.7113 268.2491 287.2555 267 287.4167 C256.6262 288.7552 242.1733 288.87 239 288.4167 C238.9186 288.405 238.4012 285.0135 239 283.4167 C239.494 282.0993 240.7531 280.6367 242 280.4167 C246.9459 279.5439 254.0313 279.3093 256 280.4167 C256.9931 280.9753 258.4375 288.7292 258 289.4167 C257.5625 290.1042 252.2501 292.1667 249 291.4167 C241.8263 289.7612 232 283.4167 232 283.4167 "/>
<path id="12" d="M319 324.4167 C319 324.4167 315.81 324.3167 315 323.4167 C312.6228 320.7754 310.8443 318.6384 310 314.4167 C308.6491 307.6619 308.293 303.3242 310 298.4167 C311.0437 295.4161 314.5965 293.5825 318 291.4167 C318.8198 290.895 320.469 290.952 321 291.4167 C322.9693 293.1398 325.5218 295.7071 326 298.4167 C326.5852 301.7329 325.2664 306.8689 324 308.4167 C323.2679 309.3115 317.1922 309.2629 317 309.4167 C316.9901 309.4246 318.9117 311.1805 319 312.4167 C319.307 316.7153 318.892 322.5247 318 323.4167 C317.2567 324.16 309.0776 323.8477 308 323.4167 C307.8276 323.3477 307.4826 320.0204 308 319.4167 C309.0534 318.1877 311.1738 317.3587 314 316.4167 C315.2112 316.0129 316.9538 316.2934 317 316.4167 C317.3288 317.2934 317.7523 322.9121 317 324.4167 C316.5768 325.263 314.4031 326.1163 312 326.4167 C306.965 327.046 302.331 326.6587 301 326.4167 C300.956 326.4087 301 324.4167 301 324.4167 "/>
<path id="13" d="M304 286.4167 C304 286.4167 298.1003 282.1674 297 279.4167 C296.1467 277.2834 296.9955 272.4212 298 271.4167 C299.2277 270.1889 305.7783 268.9076 307 269.4167 C307.8851 269.7855 309.3271 273.0523 310 276.4167 C310.7083 279.9581 310.7222 282.6111 310 284.4167 C309.675 285.2292 306.0917 286.4625 306 286.4167 C305.9389 286.3861 306.0004 282.4159 306 282.4167 C305.9987 282.4197 302.6605 294.5085 302 295.4167 C301.9623 295.4686 298 293.4167 298 293.4167 "/>
<path id="14" d="M302 282.4167 C302 282.4167 303.3768 275.4988 305 274.4167 C307.5971 272.6853 316.492 271.9086 317 272.4167 C317.8128 273.2295 318.9278 285.4451 318 287.4167 C317.6018 288.2628 311.025 289.6008 309 289.4167 C308.4781 289.3692 306.9698 286.4469 307 286.4167 C307.2719 286.1448 313.063 284.0419 314 284.4167 C314.8161 284.7431 316.569 287.8304 317 290.4167 C317.3868 292.7377 316.6824 295.9824 316 296.4167 C314.4935 297.3754 309.9892 298.3741 306 297.4167 C299.1825 295.7805 291 290.4167 291 290.4167 "/>
<path id="15" d="M279 277.4167 C279 277.4167 274.8706 276.9472 273 275.4167 C270.3723 273.2667 269.3261 271.5992 268 268.4167 C267.2701 266.6648 267.36 264.6967 268 263.4167 C268.64 262.1367 270.4556 260.7599 272 260.4167 C273.5811 260.0653 275.9166 260.4687 277 261.4167 C278.5214 262.7479 279.5526 264.5832 280 267.4167 C280.8984 273.1067 280.5445 279.0011 280 280.4167 C279.9195 280.6261 275.2251 280.8105 275 280.4167 C273.7621 278.2504 271.5498 268.9677 272 266.4167 C272.1356 265.648 275.1508 264.0272 278 263.4167 C281.4313 262.6814 284.7591 262.3412 286 263.4167 C288.8334 265.8723 293.1655 275.7962 293 276.4167 C292.9267 276.6916 285.1593 279.009 282 278.4167 C280.2345 278.0856 277.845 275.6136 277 273.4167 C276.0236 270.878 276.4803 266.9759 277 265.4167 C277.1299 265.0269 278.6432 264.4167 280 264.4167 C283.6181 264.4167 287.6235 264.6636 288 265.4167 C289.5061 268.4289 290.8613 282.6941 290 284.4167 C289.665 285.0866 282.3843 286.3397 278 285.4167 C275.0053 284.7862 271 280.4167 271 280.4167 "/>
<path id="16" d="M251 259.4167 C251 259.4167 247.1054 257.4696 246 255.4167 C244.3355 252.3255 243.8435 246.7297 244 246.4167 C244.0391 246.3384 249.5526 246.8201 250 247.4167 C250.5694 248.1759 250.5404 253.3359 250 254.4167 C249.7684 254.8798 246.15 255.5917 246 255.4167 C245.4 254.7167 243.7979 249.6399 244 247.4167 C244.0846 246.486 246.1222 244.4167 247 244.4167 C250.804 244.4167 258.6544 246.2953 260 247.4167 C260.4196 247.7663 259.4461 253.9706 259 254.4167 C258.777 254.6397 254.5954 254.2353 254 253.4167 C252.4356 251.2657 250.8311 245.6122 251 243.4167 C251.0572 242.6733 253.3504 240.5903 255 240.4167 C260.6931 239.8174 268.4278 240.1392 270 241.4167 C271.0689 242.2851 271.9142 249.3028 271 253.4167 C270.448 255.9005 268.4411 257.7079 266 259.4167 C264.4876 260.4753 262.3507 260.7544 261 260.4167 C259.9336 260.1501 258.5352 258.9154 258 257.4167 C256.46 253.1047 255.4832 247.7605 256 246.4167 C256.2371 245.8003 262.9029 244.271 263 244.4167 C263.5341 245.2178 264.5852 252.272 264 258.4167 C263.6934 261.6363 261 265.4167 261 265.4167 "/>
<path id="17" d="M285 262.4167 C285 262.4167 280.343 258.2538 279 254.4167 C277.3578 249.7247 277.0945 243.6514 278 242.4167 C278.9483 241.1235 289.4515 239.0967 290 239.4167 C290.3121 239.5988 291.1977 246.8502 290 249.4167 C289.0099 251.5383 285.7648 253.4951 283 254.4167 C281.5113 254.9129 279.54 254.3792 278 253.4167 C276.4942 252.4755 275.1102 250.8494 275 249.4167 C274.7696 246.4211 275.8219 242.3802 277 240.4167 C277.3927 239.7622 280.0972 238.9653 281 239.4167 C284.6111 241.2222 287.5905 243.2204 291 247.4167 C293.2069 250.1329 294.0827 254.6728 294 255.4167 C293.9844 255.5568 290.1154 256.5552 290 256.4167 C289.6124 255.9516 288.758 251.5942 289 249.4167 C289.078 248.7142 290.0866 247.6275 291 247.4167 C295.1673 246.455 301.3694 245.9007 302 246.4167 C302.5067 246.8313 303.0806 252.3105 302 256.4167 C300.8853 260.6526 299.9066 263.4349 297 265.4167 C291.4953 269.1699 287.6846 269.7461 280 271.4167 C277.5723 271.9444 274 270.4167 274 270.4167 "/>
<path id="18" d="M302 265.4167 C302 265.4167 298.915 259.2965 298 254.4167 C297.6253 252.418 298.329 249.7522 299 249.4167 C302.1633 247.835 313.5242 246.1239 314 246.4167 C314.1725 246.5228 313.2742 255.5054 312 257.4167 C311.4834 258.1915 307.8079 258.6427 306 258.4167 C305.3076 258.3301 304 256.9901 304 256.4167 C304 254.123 305.0178 249.2898 306 248.4167 C306.7546 247.7459 312.4398 247.7942 313 248.4167 C314.0493 249.5826 315.1939 256.0895 315 258.4167 C314.9556 258.9492 312.464 260.494 312 260.4167 C311.391 260.3152 309.5653 258.7356 309 257.4167 C308.4724 256.1857 308.7846 253.5397 309 253.4167 C309.6596 253.0397 315.5124 252.8207 316 253.4167 C317.0759 254.7316 318.5278 263.8449 318 264.4167 C317.1395 265.3489 310.3375 264.4667 304 266.4167 C297.9961 268.264 292 272.4167 292 272.4167 "/>
<path id="19" d="M230 284.4167 C230 284.4167 222.2384 285.5359 220 284.4167 C218.3212 283.5773 216.8762 280.7024 216 277.4167 C215.131 274.1581 215.2366 270.5072 216 269.4167 C216.6584 268.4761 222.0321 266.9767 223 267.4167 C224.1413 267.9354 226.0616 271.1321 227 274.4167 C227.8067 277.2402 227.5626 280.5165 227 281.4167 C226.6684 281.9472 222.8094 282.8663 222 282.4167 C220.6646 281.6748 219.0045 279.179 218 276.4167 C217.3263 274.5639 217.5602 271.9444 218 271.4167 C218.4544 270.8714 222.6797 270.2885 223 270.4167 C223.0836 270.4501 223.0861 273.3736 223 273.4167 C222.7992 273.5171 219.071 272.7244 219 272.4167 C218.5654 270.5335 218.7807 261.5547 220 260.4167 C221.5858 258.9366 228.9562 258.1365 234 258.4167 C235.5131 258.5007 237.0366 259.7651 238 261.4167 C239.9419 264.7457 240.5091 266.2444 241 270.4167 C241.4137 273.9329 240.0006 278.4167 240 278.4167 C239.9989 278.4167 238 270.4167 238 270.4167 "/>
<path id="20" d="M227 268.4167 C227 268.4167 223.7024 269.7679 223 269.4167 C221.6955 268.7644 219.3262 266.4827 219 264.4167 C218.1982 259.3385 218.9469 251.6452 220 250.4167 C220.6683 249.637 228.4726 249.2372 231 250.4167 C232.6696 251.1958 234.5912 254.9639 235 257.4167 C235.2488 258.9097 233.8583 261.9398 233 262.4167 C231.7425 263.1153 226.7876 263.2043 226 262.4167 C224.3122 260.7289 221.637 251.8356 222 251.4167 C222.9028 250.375 237.3133 246.6135 239 247.4167 C240.1919 247.9842 243.2261 259.6077 243 261.4167 C242.9539 261.7852 237 263.4167 237 263.4167 "/>
<path id="21" d="M229 287.4167 C229 287.4167 227.7893 292.1348 227 292.4167 C224.4981 293.3102 218.5883 293.6831 215 292.4167 C212.8716 291.6655 210.9638 289.1153 210 286.4167 C209.0097 283.6438 209.0629 280.6658 210 278.4167 C210.7126 276.7064 213.3035 275.0529 215 274.4167 C215.6851 274.1597 217.8487 275.0132 218 275.4167 C218.4984 276.7457 218.819 280.1645 218 282.4167 C217.3619 284.1716 215.7485 285.5424 214 286.4167 C212.8343 286.9995 210.32 286.6567 210 286.4167 C209.82 286.2817 209.8767 283.4629 210 283.4167 C210.8767 283.0879 214.8969 282.5301 218 283.4167 C220.7706 284.2083 224.002 287.4139 224 287.4167 C223.9244 287.5225 213 290.4167 213 290.4167 "/>
<path id="22" d="M228 314.4167 C228 314.4167 215.3733 315.3443 212 313.4167 C209.7026 312.1039 208.8475 307.5895 207 302.4167 C206.5665 301.2029 206.9716 299.4214 207 299.4167 C207.3222 299.363 211.72 300.1367 213 301.4167 C214.28 302.6967 215 304.9867 215 307.4167 C215 309.8467 213.4532 313.1577 213 313.4167 C212.678 313.6007 208.2459 312.0929 208 311.4167 C207.4438 309.8871 208.238 304.9567 209 302.4167 C209.1311 301.9797 210.9872 301.3975 211 301.4167 C211.3199 301.8965 212.9967 308.42 213 308.4167 C213.0086 308.408 214.7342 297.5939 215 297.4167 C215.1044 297.347 220.4181 300.3828 222 302.4167 C222.6058 303.1956 222.1169 306.2998 222 306.4167 C221.9416 306.4751 219.1313 305.8433 219 305.4167 C218.1598 302.686 217.563 294.0175 218 293.4167 C218.215 293.1211 223.3176 293.2836 227 294.4167 C228.9477 295.016 230.0322 296.2069 231 297.4167 C231.3122 297.8069 231.1 299.3667 231 299.4167 C230.6 299.6167 227 299.4167 227 299.4167 "/>
<path id="23" d="M237 334.4167 C237 334.4167 227.0946 331.1864 221 326.4167 C216.9409 323.24 215.8763 320.9735 214 316.4167 C212.9804 313.9406 213.5625 309.8542 214 309.4167 C214.4375 308.9792 218.6606 308.7149 221 309.4167 C222.3034 309.8077 223.291 310.857 224 312.4167 C225.4475 315.6011 226.0684 319.8694 226 320.4167 C225.9967 320.4432 223.1073 320.6313 223 320.4167 C222.2131 318.8429 220.6864 310.9394 221 310.4167 C221.1711 310.1316 225.7242 309.6607 229 310.4167 C231.3309 310.9546 232.2325 311.4809 234 313.4167 C242.0858 322.2725 243.8738 323.1135 250 333.4167 C254.2693 340.5968 256 350.4167 256 350.4167 "/>
<path id="24" d="M273 332.4167 C273 332.4167 276.3816 341.2852 281 346.4167 C284.2677 350.0475 290.9992 352.4182 291 352.4167 C291.0065 352.4037 284 340.4167 284 340.4167 "/>
<path id="25" d="M273 332.4167 L282 345.4167 "/>
<path id="26" d="M281 340.4167 C281 340.4167 288.9998 346.4164 289 346.4167 C289.0001 346.4168 285.8935 345.4888 285 344.4167 C284.1903 343.445 284 340.4167 284 340.4167 "/>
<path id="27" d="M284 339.4167 C284 339.4167 286 344.1697 286 344.4167 C286 344.4167 284 344.4167 284 344.4167 "/>
<path id="28" d="M267 339.4167 C267 339.4167 270.1461 340.1359 271 341.4167 C274.1105 346.0824 276.9993 354.4155 277 354.4167 C277.0002 354.4171 276 349.4167 276 349.4167 "/>
<path id="29" d="M269 340.4167 L270 344.4167 "/>
<path id="30" d="M214 277.4167 C214 277.4167 205.9463 261.8967 202 250.4167 C201.4096 248.6993 202.4587 245.8033 203 245.4167 C203.7105 244.9092 207.4162 244.6248 209 245.4167 C210.7158 246.2746 212.0604 247.9738 213 250.4167 C214.2049 253.5493 214.2751 255.3903 214 258.4167 C213.8893 259.6342 212.4422 261.1956 212 261.4167 C211.8105 261.5114 210.6045 261.1076 210 260.4167 C207.4995 257.5589 206.4364 256.5767 205 253.4167 C204.3804 252.0535 204.8831 249.5336 205 249.4167 C205.0584 249.3582 208 250.398 208 250.4167 C208 250.4539 205.5907 252.5011 205 252.4167 C204.0363 252.279 201.3169 250.4729 201 249.4167 C200.4945 247.7318 200.8498 243.4784 202 242.4167 C204.5613 240.0524 213.1689 237.1792 214 237.4167 C214.3594 237.5194 216.2567 245.9546 216 246.4167 C215.8735 246.6445 211.3394 247.1185 209 246.4167 C207.6966 246.0257 206.6613 244.9046 206 243.4167 C205.0165 241.2038 204.6099 237.9369 205 237.4167 C205.5388 236.6983 210.0574 234.8987 212 235.4167 C214.8838 236.1857 217.0772 237.9459 220 241.4167 C224.5291 246.795 227.9975 254.4134 228 254.4167 C228.0006 254.4175 227 250.4167 227 250.4167 "/>
<path id="31" d="M226 245.4167 C226 245.4167 214.0359 237.7138 210 232.4167 C208.7183 230.7344 209.1257 227.0395 210 224.4167 C210.5828 222.6681 212.9826 220.5092 214 220.4167 C215.5685 220.2741 220.2512 222.1331 221 223.4167 C221.9514 225.0476 221.4175 231.4772 221 232.4167 C220.9175 232.6022 217.7735 232.9968 217 232.4167 C215.3564 231.184 214.2111 229.1416 213 226.4167 C212.5329 225.3656 212.9214 223.4429 213 223.4167 C213.4451 223.2683 218.9223 224.2096 219 224.4167 C219.1404 224.791 217.1487 230.0766 216 231.4167 C215.6914 231.7767 213.6367 231.9119 213 231.4167 C210.571 229.5274 208.0509 227.1491 207 224.4167 C206.366 222.7682 207.0823 219.4654 208 218.4167 C208.9677 217.3107 211.0807 216.7601 214 216.4167 C219.1501 215.8108 221.0432 215.2529 225 216.4167 C227.6872 217.207 229.9398 218.8723 231 221.4167 C233.9213 228.4279 234.8515 237.4457 235 240.4167 C235.0066 240.5482 232.5687 241.6604 232 241.4167 C230.7361 240.875 228.7811 239.1742 228 237.4167 C227.324 235.8957 227.9913 232.4152 228 232.4167 C228.073 232.4288 232.4572 235.8453 234 238.4167 C234.6428 239.4881 234.3822 241.7797 234 242.4167 C233.7325 242.8625 231.6283 243.6261 231 243.4167 C230.0575 243.1025 228.6613 241.9046 228 240.4167 C227.0165 238.2038 226.998 234.4172 227 234.4167 C227.0153 234.4128 232 238.142 232 239.4167 C232 242.9857 227 253.4167 227 253.4167 "/>
<path id="32" d="M241 242.4167 C241 242.4167 233.0248 232.5035 231 225.4167 C229.9366 221.6948 231.685 215.9947 233 214.4167 C233.796 213.4615 240.517 212.9873 241 213.4167 C241.6114 213.9601 242.3141 221.71 242 222.4167 C241.9184 222.6002 238.2763 222.9636 237 222.4167 C236.1613 222.0572 235.2484 220.7827 235 219.4167 C234.4093 216.1677 234.6712 212.2934 235 211.4167 C235.0462 211.2934 237.7869 211.0852 238 211.4167 C239.9728 214.4855 242.9731 221.0522 244 225.4167 C244.1685 226.133 242.8278 228.1063 242 228.4167 C240.4107 229.0127 237.2567 229.045 236 228.4167 C235.1622 227.9978 234.2024 226.0356 234 224.4167 C233.8155 222.9406 234.5368 220.6483 235 220.4167 C236.0807 219.8763 239.8626 219.348 242 220.4167 C245.9695 222.4014 247.633 223.9975 251 228.4167 C255.1548 233.8698 256.4859 235.6126 258 241.4167 C258.9946 245.2293 257.4097 250.6793 257 251.4167 C256.9526 251.5021 253.2732 250.8947 253 250.4167 C252.5012 249.5438 253 244.4167 253 244.4167 "/>
<path id="33" d="M254 234.4167 C254 234.4167 250.7225 230.2097 250 226.4167 C248.9281 220.789 248.9389 216.8123 250 213.4167 C250.3724 212.2249 252.692 210.8013 255 210.4167 C260.4552 209.5075 263.2754 208.9134 268 210.4167 C272.0803 211.715 276.1008 216.1321 277 217.4167 C277.1082 217.5712 275.2743 220.4167 275 220.4167 C274.3141 220.4167 270.7033 218.6825 270 217.4167 C269.2697 216.1021 269.6538 211.9359 270 211.4167 C270.1538 211.1859 273.9416 211.2561 274 211.4167 C274.4416 212.6311 275.3192 219.2129 274 222.4167 C272.9347 225.0037 268.9172 227.9742 267 228.4167 C265.7863 228.6967 261.6283 226.6733 261 225.4167 C260.0575 223.5317 260.2183 217.1984 261 216.4167 C262.1292 215.2875 268.8407 213.8243 272 214.4167 C273.7655 214.7477 276.155 217.2197 277 219.4167 C277.9764 221.9553 277.9668 225.483 277 227.4167 C276.154 229.1086 273.2523 231.0949 271 231.4167 C268.356 231.7944 263.6609 230.6183 263 229.4167 C260.9708 225.7272 259.5979 212.3933 260 211.4167 C260.0748 211.2351 267.4477 210.8215 270 212.4167 C272.7925 214.162 274.8892 217.1323 276 221.4167 C277.9214 228.8278 277.3553 231.5994 277 239.4167 C276.919 241.1978 275.8378 242.9978 275 243.4167 C273.7433 244.045 269 243.4167 269 243.4167 "/>
<path id="34" d="M267 233.4167 C267 233.4167 259.6083 226.5819 257 220.4167 C254.9681 215.6139 255.6771 208.1917 256 207.4167 C256.0385 207.3243 261.5657 207.7342 262 208.4167 C262.9587 209.9232 263.5566 217.5419 263 218.4167 C262.6379 218.9857 255.6412 219.6571 255 219.4167 C254.8739 219.3694 255 215.4167 255 215.4167 C255.088 215.4167 259.4391 217.7339 260 219.4167 C261.0888 222.6832 261.3536 226.936 260 230.4167 C258.8036 233.493 253.0021 237.4142 253 237.4167 C252.9996 237.4172 254.9974 236.4101 255 236.4167 C255.079 236.6142 255 242.4167 255 242.4167 "/>
<path id="35" d="M286 245.4167 C286 245.4167 279.573 234.7789 277 226.4167 C276.209 223.846 277.0774 220.247 278 219.4167 C279.365 218.1882 286.8708 217.269 287 217.4167 C287.1814 217.624 285.002 227.4154 285 227.4167 C284.999 227.4173 283.6821 219.9253 284 219.4167 C284.1617 219.158 288.9857 218.7827 290 219.4167 C290.8664 219.9582 291.5979 222.0043 292 224.4167 C292.5277 227.5829 292.2311 230.6077 292 231.4167 C291.9811 231.4827 290.3902 231.7289 290 231.4167 C288.7902 230.4489 287.3715 228.9025 287 227.4167 C286.7067 226.2437 287.2462 224.0627 288 223.4167 C289.313 222.2913 291.57 221.4167 294 221.4167 C296.43 221.4167 299.6416 222.5803 300 223.4167 C300.9409 225.6121 300.8406 231.2135 300 235.4167 C299.7478 236.6776 298.277 238.122 297 238.4167 C293.5414 239.2148 288.4229 237.1611 287 238.4167 C284.1207 240.9573 280 253.4167 280 253.4167 "/>
<path id="36" d="M303 253.4167 C303 253.4167 298.2643 246.983 296 240.4167 C293.4977 233.1599 292.5289 224.8878 293 224.4167 C293.6161 223.8006 309.4219 224.674 311 225.4167 C311.196 225.5089 310.5942 231.5848 310 232.4167 C309.7799 232.7248 306.725 232.9 306 232.4167 C305.1542 231.8528 303.8874 229.2049 304 228.4167 C304.1039 227.689 305.9776 225.7088 307 225.4167 C307.9846 225.1354 310.8496 225.9655 311 226.4167 C311.9239 229.1883 312.9517 235.8962 312 240.4167 C311.5823 242.4008 309.1284 244.0864 307 245.4167 C306.2141 245.9078 304.6554 245.8849 304 245.4167 C302.3458 244.2351 300.5759 242.3365 300 240.4167 C299.5634 238.9614 300.1881 235.9386 301 235.4167 C303.9997 233.4883 311.0268 231.2418 314 231.4167 C315.0002 231.4755 317.4749 234.1849 318 236.4167 C319.0606 240.9244 319.233 245.5984 318 248.4167 C317.2743 250.0753 314.4769 251.6847 311 252.4167 C296.8825 255.3888 280 256.4167 280 256.4167 "/>
<path id="37" d="M207 286.4167 C207 286.4167 192.2253 280.5379 189 276.4167 C187.2593 274.1924 188.5462 264.3244 189 263.4167 C189.0698 263.277 194.306 263.4336 195 264.4167 C197.6823 268.2166 200.9997 280.4143 201 280.4167 C201.0001 280.4177 197.0691 276.6241 196 273.4167 C195.0131 270.456 195.2376 268.4661 196 265.4167 C196.4526 263.6061 197.72 262.0567 199 261.4167 C200.28 260.7767 202.3805 260.6805 204 261.4167 C206.6796 262.6347 209.3607 264.4988 210 266.4167 C210.8828 269.0651 209.0013 276.4127 209 276.4167 C208.9995 276.4181 207.9902 272.4181 208 272.4167 C208.1733 272.3919 216 275.4167 216 275.4167 "/>
<path id="38" d="M200 258.4167 C200 258.4167 197.0371 259.0767 196 258.4167 C193.0301 256.5267 191.6704 255.1998 189 251.4167 C185.9744 247.1304 185.5701 246.127 184 241.4167 C183.3271 239.3979 183.3557 237.4475 184 236.4167 C184.7893 235.1538 187.0182 233.5405 189 233.4167 C193.1546 233.157 195.8631 233.6068 200 235.4167 C202.5039 236.5121 203.997 237.8534 205 240.4167 C207.821 247.6258 209.0635 257.909 209 258.4167 C208.9955 258.4529 203.3286 257.2381 203 256.4167 C202.0292 253.9897 202.7558 245.0041 203 243.4167 C203.0058 243.3791 204.9322 243.2811 205 243.4167 C205.4406 244.298 206.2084 249.238 206 249.4167 C205.5975 249.7617 200.2269 250.6538 198 249.4167 C193.6699 247.0111 190.9536 243.5517 188 239.4167 C187.3108 238.4518 187.76 235.7367 188 235.4167 C188.135 235.2367 190.2852 234.8968 191 235.4167 C194.2923 237.8111 198.9485 243.3137 199 243.4167 C199.0086 243.4338 195.725 243.9 195 243.4167 C194.1542 242.8528 193.1701 241.1172 193 239.4167 C192.7611 237.0278 193.4068 234.0098 194 233.4167 C194.4237 232.993 197.1775 232.8092 199 233.4167 C200.8225 234.0242 202.2714 235.1416 203 236.4167 C203.5514 237.3816 203.4834 239.4498 203 240.4167 C202.577 241.2627 201.056 242.2407 200 242.4167 C199.1024 242.5663 197.0948 241.7009 197 241.4167 C196.7789 240.7534 198 236.4167 198 236.4167 "/>
<path id="39" d="M202 235.4167 C202 235.4167 193.6495 231.3859 192 228.4167 C190.5548 225.8153 190.7375 220.3023 192 217.4167 C192.9253 215.3017 195.5096 213.6383 199 212.4167 C204.4649 210.5039 209.5919 209.4802 212 210.4167 C213.6747 211.068 215.6029 214.9925 217 219.4167 C218.3623 223.7308 218.354 229.0184 218 229.4167 C217.728 229.7227 210.9506 229.7671 209 228.4167 C207.0804 227.0877 206.0387 224.3638 205 220.4167 C203.7076 215.5057 203.4598 213.4685 204 209.4167 C204.2187 207.7761 205.9604 205.7632 207 205.4167 C208.3595 204.9635 211.9351 205.2699 213 206.4167 C216.1599 209.8196 218.8327 215.6813 220 219.4167 C220.1825 220.0008 218.0078 222.4244 218 222.4167 C217.9302 222.3468 215.9875 215.4167 216 215.4167 C216.0625 215.4167 221.831 218.5256 226 222.4167 C228.9082 225.131 229.2637 225.944 231 229.4167 C232.0052 231.4272 232.1563 233.4788 232 234.4167 C231.9569 234.6754 230 235.4167 230 235.4167 "/>
<path id="40" d="M196 267.4167 C196 267.4167 190.2862 263.3459 187 258.4167 C181.7421 250.5298 180.6432 247.6854 178 240.4167 C177.5482 239.1742 178.1257 237.4366 179 236.4167 C180.3114 234.8867 183.9784 233.3889 184 233.4167 C184.3295 233.8403 186.1513 243.4496 186 245.4167 C185.9843 245.621 183.447 246.5955 183 246.4167 C182.4498 246.1966 181 244.5495 181 243.4167 C181 238.508 182.2967 231.6224 183 230.4167 C183.0952 230.2535 186.9166 230.4687 188 231.4167 C189.5214 232.7479 191 237.4167 191 237.4167 "/>
<path id="41" d="M193 273.4167 C193 273.4167 188.1664 275.0104 185 274.4167 C181.4536 273.7517 178.7202 272.7985 177 270.4167 C173.9017 266.1267 173.3595 263.2142 172 256.4167 C171.003 251.4318 171.0936 247.3805 172 245.4167 C172.393 244.5652 177.5158 243.0646 178 243.4167 C179.3072 244.3674 181.5233 248.6911 183 253.4167 C183.7663 255.8688 183.3689 258.974 183 259.4167 C182.7439 259.724 179.4037 260.1823 178 259.4167 C175.3967 257.9967 173.6231 256.46 172 253.4167 C170.224 250.0867 170 244.4167 170 244.4167 "/>
<path id="42" d="M178 243.4167 C178 243.4167 174.6043 244.0209 174 243.4167 C170.9786 240.3953 167.7732 236.9579 166 231.4167 C164.4168 226.4691 165.0612 219.6116 166 218.4167 C166.6964 217.5303 175.6821 216.5694 177 217.4167 C178.1998 218.188 179.4253 222.8188 180 227.4167 C180.3254 230.0203 179.0427 233.4096 179 233.4167 C178.9111 233.4315 174.998 230.6123 174 228.4167 C173.1766 226.6053 173.1105 223.9416 174 222.4167 C175.4949 219.8539 179.8303 216.9366 181 216.4167 C181.1345 216.3569 182.7928 217.4844 183 218.4167 C184.3937 224.6884 185.6622 232.0326 185 234.4167 C184.8309 235.0255 180.6885 236.6087 178 236.4167 C175.1714 236.2146 171.9859 234.8956 171 233.4167 C169.7569 231.552 169.2344 227.8618 170 224.4167 C170.8819 220.4483 172.4176 217.4457 175 215.4167 C177.2615 213.6398 181.3395 212.6185 184 213.4167 C188.2441 214.6899 193.8719 220.0378 195 221.4167 C195.0905 221.5273 192.9935 224.415 193 224.4167 C193.0287 224.4238 199 222.4167 199 222.4167 "/>
<path id="43" d="M205 220.4167 C205 220.4167 197.4183 219.2548 192 216.4167 C187.8124 214.2232 185.2685 212.7147 184 209.4167 C181.5115 202.9465 181.5444 192.1478 182 190.4167 C182.0454 190.244 187.4697 189.7365 189 190.4167 C189.8259 190.7837 190.7795 192.5426 191 194.4167 C191.6767 200.1689 192.0719 201.789 191 207.4167 C190.2775 211.2097 187.0067 215.4189 187 215.4167 C186.9734 215.4078 184.5629 208.9137 185 205.4167 C185.2914 203.0853 187.1506 200.2797 189 199.4167 C192.1186 197.9613 197.1462 197.2151 200 198.4167 C203.1804 199.7558 205.3362 202.8882 208 207.4167 C209.7835 210.4486 210 212.3217 210 215.4167 C210 216.9642 208.8378 218.9978 208 219.4167 C206.7433 220.045 203.5838 220.2086 202 219.4167 C200.2842 218.5588 198.2953 216.4839 198 214.4167 C197.1595 208.533 197.5664 200.9971 199 198.4167 C199.6061 197.3256 205.0044 196.1862 208 196.4167 C209.4327 196.5269 210.6825 197.6601 212 199.4167 C214.7996 203.1495 216.3592 205.8534 217 208.4167 C217.1563 209.0419 215.0189 211.4261 215 211.4167 C214.7349 211.2841 211.8527 208.188 211 205.4167 C210.1745 202.7338 210.0298 200.5188 211 198.4167 C212.2154 195.7832 214.5897 193.0862 217 192.4167 C220.6853 191.393 225.4184 191.3923 229 193.4167 C234.0688 196.2817 238.8194 203.5801 240 205.4167 C240.0442 205.4855 238.4331 207.4167 238 207.4167 C237.1338 207.4167 234 205.4167 234 205.4167 "/>
<path id="44" d="M233 201.4167 C233 201.4167 233 204.4167 233 204.4167 C232.8527 204.4167 229.3994 203.1659 228 201.4167 C226.1208 199.0677 225.3968 197.5909 225 194.4167 C224.5225 190.5969 225.4531 186.0417 226 185.4167 C226.2354 185.1477 231.6089 185.83 232 186.4167 C232.6258 187.3553 233.1764 191.9168 232 194.4167 C230.123 198.4054 225.8392 201.9453 224 203.4167 C223.8548 203.5328 222.0193 202.6863 222 202.4167 C221.7821 199.3666 221.1954 194.1537 223 189.4167 C224.4385 185.6405 229.1386 181.4167 230 181.4167 C231.1075 181.4167 236.6262 185.1778 239 189.4167 C242.6043 195.853 244.1777 205.4099 244 206.4167 C243.9844 206.5049 238.9929 207.5193 236 206.4167 C230.92 204.5451 226.2993 201.5822 225 199.4167 C224.3503 198.3339 226.0115 192.2074 227 191.4167 C227.9414 190.6636 232.3319 190.3494 235 191.4167 C238.135 192.6707 240.6807 194.6131 242 197.4167 C243.6283 200.8768 243.2102 205.8939 243 208.4167 C242.9775 208.6863 241.0024 209.4289 241 209.4167 C240.9764 209.2984 241.9945 203.4145 242 203.4167 C242.0284 203.428 244.836 207.6338 246 211.4167 C246.6305 213.4657 246.5988 214.8198 246 216.4167 C245.506 217.7341 243 219.4167 243 219.4167 "/>
<path id="45" d="M245 210.4167 C245 210.4167 242.0147 205.7293 241 201.4167 C240.1834 197.9461 240.0277 196.5279 241 193.4167 C242.1622 189.6977 243.2141 187.3832 246 185.4167 C249.8787 182.6787 254.7166 181.071 258 181.4167 C260.1641 181.6445 263.5897 184.596 265 187.4167 C266.5588 190.5342 266.6928 193.9529 266 197.4167 C265.59 199.4666 263.9785 201.0976 262 202.4167 C260.4711 203.4359 257.061 203.5463 257 203.4167 C256.1245 201.5562 253.57 188.2836 254 185.4167 C254.0711 184.9429 259.5016 183.0428 260 183.4167 C261.5784 184.6005 265.129 189.8437 266 194.4167 C266.69 198.0392 265.2498 202.6981 264 204.4167 C263.4148 205.2214 259.094 205.9637 258 205.4167 C256.6076 204.7205 254.7605 202.3064 254 199.4167 C252.5699 193.9822 252.0465 189.6587 253 186.4167 C253.4326 184.9457 258.375 182.2917 259 182.4167 C259.625 182.5417 262.2619 185.6487 263 188.4167 C263.9401 191.9419 264.144 194.1754 263 197.4167 C261.714 201.0604 257.7308 205.1244 257 205.4167 C256.8094 205.4929 253 201.4167 253 201.4167 "/>
<path id="46" d="M274 207.4167 C274 207.4167 269.4116 191.5161 270 186.4167 C270.1664 184.9747 273.8174 182.7427 277 181.4167 C278.7519 180.6867 281.474 180.8322 282 181.4167 C283.5898 183.1831 285.6764 186.8869 286 191.4167 C286.5617 199.2808 285.2903 205.9144 284 209.4167 C283.8043 209.9479 280.269 210.8397 279 210.4167 C277.5497 209.9333 275.1933 207.963 275 206.4167 C274.1463 199.5871 275.9217 186.6672 276 186.4167 C276.0106 186.3828 279.3747 188.5407 280 190.4167 C281.3288 194.4031 281.9154 199.128 281 201.4167 C280.4127 202.8848 277.2858 204.5405 274 205.4167 C270.7414 206.2856 268.7125 206.1564 266 205.4167 C264.7054 205.0636 263.419 203.883 263 202.4167 C260.9517 195.2478 259.3471 186.5931 260 184.4167 C260.1795 183.8185 266.2117 181.62 269 182.4167 C273.7259 183.7669 277.6166 186.773 281 190.4167 C282.2246 191.7354 282 193.6085 282 196.4167 C282 198.7568 282.0875 199.9213 281 201.4167 C278.894 204.3125 277.5235 205.7585 274 207.4167 C270.0756 209.2635 264.3723 209.4994 264 209.4167 C263.9957 209.4157 265 205.4167 265 205.4167 "/>
<path id="47" d="M287 220.4167 C287 220.4167 281.3978 215.0096 280 210.4167 C278.5019 205.4945 278.7422 202.4479 280 197.4167 C280.7982 194.2238 282.3525 192.7994 285 190.4167 C286.5932 188.9828 287.4912 188.9956 290 188.4167 C293.7809 187.5442 296.927 186.8802 298 187.4167 C298.7153 187.7743 299.7354 190.5064 300 193.4167 C300.6848 200.9492 301.4795 203.9918 300 209.4167 C299.2939 212.0058 296.0643 214.3845 294 215.4167 C293.1972 215.8181 290.0475 214.7014 290 214.4167 C289.5207 211.5411 289.7375 203.7291 291 197.4167 C291.2642 196.0955 294 194.4167 294 194.4167 C294.6348 195.0515 299.0553 201.3047 301 207.4167 C302.1494 211.0291 302.1328 213.0183 301 216.4167 C299.6155 220.5702 296.0125 224.6292 295 225.4167 C294.8875 225.5042 292.423 224.2627 292 223.4167 C291.5166 222.4498 292 219.4167 292 219.4167 "/>
<path id="48" d="M241 189.4167 C241 189.4167 237.3033 183.9657 237 179.4167 C236.4132 170.614 237.8783 161.3542 239 159.4167 C239.2232 159.0311 246.3226 158.9629 248 160.4167 C250.7881 162.8331 252.6129 167.1458 254 172.4167 C254.6882 175.0317 253.8192 178.5975 253 179.4167 C252.1808 180.2359 246.1594 180.6758 246 180.4167 C245.2955 179.2719 244.8373 166.9047 245 166.4167 C245.004 166.4048 249.6592 167.5987 250 168.4167 C250.8346 170.4198 250.8346 176.4135 250 178.4167 C249.6592 179.2346 246.7313 180.4167 245 180.4167 C243.6149 180.4167 241.0926 178.9262 241 178.4167 C240.7067 176.8033 241.6505 170.5586 243 169.4167 C244.7814 167.9094 249.935 167.4167 254 167.4167 C255.1086 167.4167 256.5638 168.3573 257 169.4167 C259.2446 174.8678 261.4363 181.6537 261 184.4167 C260.845 185.3984 257.4157 187.8353 254 188.4167 C235.909 191.496 214 192.4167 214 192.4167 "/>
<path id="49" d="M218 194.4167 C218 194.4167 211.9712 190.4689 211 187.4167 C209.4212 182.4549 210.0641 178.3439 211 172.4167 C211.2791 170.6489 212.3247 169.4828 214 168.4167 C216.9936 166.5117 218.4665 165.9603 222 165.4167 C224.0237 165.1053 226.342 165.5394 227 166.4167 C228.9392 169.0023 230.0292 172.0773 231 177.4167 C231.9106 182.425 231.6984 186.7405 231 188.4167 C230.8042 188.8865 227.2762 189.9484 226 189.4167 C223.3548 188.3145 219.7457 185.7779 219 183.4167 C217.8481 179.7688 218.7571 173.08 220 170.4167 C220.443 169.4674 224.8786 168.0802 226 168.4167 C227.1422 168.7593 229.4626 171.4461 230 173.4167 C230.5053 175.2696 229.5696 178.7332 229 179.4167 C228.7222 179.7501 225.2201 179.7248 225 179.4167 C224.4058 178.5848 223.9935 172.4494 224 172.4167 C224.0015 172.409 226 174.4167 226 174.4167 "/>
<path id="50" d="M195 206.4167 L194 198.4167 "/>
<path id="51" d="M196 197.4167 C196 197.4167 191.9746 184.2365 193 181.4167 C193.6878 179.5254 198.9079 177.4535 204 175.4167 C205.52 174.8087 207.0351 174.8653 208 175.4167 C209.2751 176.1453 210.7356 177.6541 211 179.4167 C211.9506 185.7541 212.146 192.8382 211 195.4167 C210.6021 196.312 205.644 197.7944 203 197.4167 C200.7477 197.0949 197.3401 194.6919 197 193.4167 C196.3644 191.0331 197.126 186.1646 199 182.4167 C200.2493 179.918 204.7206 177.277 205 177.4167 C206.1176 177.9755 211.2196 184.3299 213 189.4167 C213.9203 192.046 212.4014 197.1156 212 197.4167 C211.6846 197.6532 205 195.4167 205 195.4167 "/>
<path id="52" d="M316 275.4167 C316 275.4167 317.8349 264.2086 321 255.4167 C321.935 252.8194 323.6167 251.0315 325 250.4167 C326.0128 249.9665 329.6133 250.8753 330 251.4167 C330.5075 252.1272 330.8266 255.2674 330 257.4167 C328.7706 260.613 326.3016 263.7659 325 264.4167 C324.3875 264.7229 320.3784 263.2491 320 262.4167 C319.203 260.6632 319.172 254.7178 320 253.4167 C320.5938 252.4835 325.3122 250.9947 327 251.4167 C328.6229 251.8224 331.2714 254.231 332 256.4167 C333.0928 259.6952 332.609 261.8491 332 266.4167 C331.6793 268.8223 331.4339 269.8235 330 271.4167 C327.6173 274.0641 323.0173 276.4362 323 276.4167 C322.7887 276.1789 320.438 266.929 322 262.4167 C323.7688 257.3069 330.6857 250.9095 332 250.4167 C332.3399 250.2892 337.5365 254.2151 338 256.4167 C338.8027 260.2296 337.7107 265.5066 336 269.4167 C335.3604 270.8786 333.3223 271.9522 331 272.4167 C326.853 273.2461 322.4821 273.0904 321 272.4167 C320.5149 272.1962 319.6507 269.1632 320 267.4167 C320.4075 265.379 323 262.4167 323 262.4167 "/>
<path id="53" d="M321 249.4167 C321 249.4167 321.855 234.2258 323 229.4167 C323.0959 229.014 325.9963 228.3848 326 228.4167 C326.1035 229.2963 325.5614 245.2939 325 246.4167 C324.9545 246.5077 318.3491 245.2646 318 244.4167 C316.9273 241.8116 316.8077 230.768 318 229.4167 C319.211 228.0442 331.0729 226.4024 333 227.4167 C334.4253 228.1668 337.3546 238.9654 337 239.4167 C336.4481 240.119 325.2922 241.4167 322 241.4167 C321.7805 241.4167 320.9052 239.6062 321 239.4167 C321.2211 238.9745 324 237.4167 324 237.4167 "/>
<path id="54" d="M320 230.4167 C320 230.4167 331.9275 214.4831 332 214.4167 C332.0125 214.4053 332.676 217.8957 332 219.4167 C331.2189 221.1742 330.203 221.8431 328 223.4167 C323.4104 226.6949 321.1976 228.5031 318 229.4167 C317.0641 229.6841 314.1073 227.8993 314 227.4167 C313.7566 226.3215 314.7924 221.127 316 220.4167 C319.3094 218.47 326.0005 217.1667 331 217.4167 C332.7507 217.5042 335.0422 219.501 336 221.4167 C337.2525 223.9217 337.5985 228.6852 337 229.4167 C336.0682 230.5556 329.6445 232.6056 327 232.4167 C325.8418 232.3339 323.648 230.3607 323 228.4167 C321.218 223.0707 320.2994 219.0874 321 214.4167 C321.3452 212.1154 325.619 208.3108 326 208.4167 C327.8353 208.9265 335.5781 214.9419 339 219.4167 C339.9804 220.6988 339.7919 223.8329 339 225.4167 C338.1421 227.1324 336.2556 228.5144 334 229.4167 C332.2912 230.1002 329 229.4167 329 229.4167 "/>
<path id="55" d="M339 215.4167 C339 215.4167 345.653 219.386 347 222.4167 C348.4037 225.5749 348.3727 229.4947 347 233.4167 C345.5711 237.4991 341.4753 241.8898 340 242.4167 C339.1953 242.7041 333.8201 239.7834 333 238.4167 C332.46 237.5166 333.2938 232.911 334 232.4167 C335.3173 231.4946 341.0284 230.4309 343 231.4167 C345.6675 232.7504 348.2272 236.3646 350 240.4167 C351.0288 242.7681 350.9998 245.792 350 247.4167 C348.4398 249.952 345.5186 251.4974 342 253.4167 C341.0636 253.9274 339.4789 253.7998 339 253.4167 C338.1699 252.7526 337 249.4167 337 249.4167 "/>
<path id="56" d="M339 220.4167 C339 220.4167 335.4172 213.768 336 210.4167 C336.8743 205.3897 340.9127 199.504 343 197.4167 C343.4175 196.9992 346.768 197.5367 348 198.4167 C349.0472 199.1647 349.7308 200.5325 350 202.4167 C350.628 206.813 351.1131 208.632 350 212.4167 C349.0571 215.6225 346.2153 219.0116 345 219.4167 C344.0057 219.7481 338.9939 217.6946 338 216.4167 C337.2938 215.5087 337.3443 212.3838 338 210.4167 C338.4371 209.1053 340.0043 207.4831 341 207.4167 C344.6924 207.1705 352.3091 208.5876 353 209.4167 C353.4798 209.9924 352.089 218.579 351 219.4167 C349.7641 220.3674 342.2527 220.2831 340 219.4167 C339.1966 219.1077 338 214.4167 338 214.4167 "/>
<path id="57" d="M330 212.4167 C330 212.4167 325.5334 209.4612 324 207.4167 C323.5158 206.771 323.4691 205.2793 324 204.4167 C326.6406 200.1256 328.999 196.1047 332 194.4167 C333.6382 193.4952 338.1427 194.2348 340 195.4167 C341.4663 196.3497 342.3895 198.5675 343 201.4167 C343.7353 204.848 343.573 208.1274 343 209.4167 C342.801 209.8643 339.5387 210.7758 339 210.4167 C337.4379 209.3752 335.3704 206.8428 334 203.4167 C332.7209 200.219 332.4744 196.0737 333 195.4167 C333.6716 194.5772 339.5804 192.8982 342 193.4167 C343.7139 193.7839 345.9747 196.0244 347 198.4167 C348.3534 201.5745 348.5009 206.7012 348 207.4167 C347.6017 207.9856 340 208.4167 340 208.4167 "/>
<path id="58" d="M326 199.4167 C326 199.4167 331.9614 187.0102 333 186.4167 C333.2982 186.2463 339.453 189.7756 340 191.4167 C340.6962 193.5053 338.0001 201.417 338 201.4167 C337.9998 201.4161 337.7002 186.9306 338 186.4167 C338.0216 186.3796 343.9017 188.1615 345 189.4167 C345.6018 190.1045 345.7814 193.3748 345 194.4167 C342.851 197.282 340.6971 198.8332 336 201.4167 C331.1749 204.0705 325 205.4167 325 205.4167 "/>
<path id="59" d="M311 224.4167 C311 224.4167 304.8059 222.2225 302 219.4167 C299.9958 217.4125 299.5599 215.7763 299 212.4167 C298.1788 207.4893 297.7375 204.3023 299 201.4167 C299.9253 199.3017 302.7926 197.4858 306 196.4167 C308.9607 195.4298 313.374 195.6769 314 196.4167 C315.4369 198.1148 317.1177 207.7682 317 209.4167 C316.9882 209.5824 313.0397 210.4862 313 210.4167 C312.7528 209.9842 312.9743 202.4253 313 202.4167 C313.0386 202.4038 317.4572 205.8453 319 208.4167 C319.6428 209.4881 319.3081 212.1966 319 212.4167 C318.1681 213.0109 313.3731 214.156 312 213.4167 C309.8096 212.2373 307.1994 208.535 306 205.4167 C305.463 204.0204 306.8228 200.456 307 200.4167 C307.6154 200.2799 312.3541 201.4924 315 203.4167 C316.7245 204.6709 317.4621 206.0858 318 208.4167 C318.756 211.6925 319.0672 213.7486 318 216.4167 C316.746 219.5517 314.2468 222.3797 312 223.4167 C310.4085 224.1512 305 222.4167 305 222.4167 "/>
<path id="60" d="M320 202.4167 C320 202.4167 315.3114 199.0395 314 196.4167 C313.1257 194.6681 313.2361 192.5175 314 190.4167 C314.8218 188.1567 316.6167 186.0315 318 185.4167 C319.0128 184.9665 321.6731 185.331 323 186.4167 C325.8612 188.7576 327.5476 190.7856 329 194.4167 C329.9776 196.8606 329.689 200.5308 329 201.4167 C328.2672 202.3588 322.0486 203.5069 322 203.4167 C321.5883 202.6521 320.5657 191.4446 322 188.4167 C322.7901 186.7487 326.9453 185.1322 331 184.4167 C334.2683 183.8399 338.621 184.7534 339 185.4167 C339.8844 186.9644 339.8578 193.8419 339 198.4167 C338.7649 199.6703 337.3174 200.9227 336 201.4167 C334.4032 202.0155 332.7722 202.1762 331 201.4167 C326.8985 199.6589 322 195.4167 322 195.4167 "/>
<path id="61" d="M303 195.4167 C303 195.4167 299.4803 191.9782 299 189.4167 C298.3018 185.693 298.8455 180.956 300 179.4167 C300.8591 178.2711 305.4145 177.2012 308 177.4167 C309.4028 177.5336 311.6498 179.191 312 180.4167 C312.9298 183.671 312.467 188.6147 312 191.4167 C311.9434 191.7563 310.1788 192.524 310 192.4167 C309.3102 192.0028 307.4953 190.2329 307 188.4167 C306.2803 185.7779 306.1521 182.453 307 181.4167 C308.3765 179.7343 314.437 176.8696 316 177.4167 C319.054 178.4856 324.207 183.2961 327 188.4167 C328.8969 191.8943 328.307 195.1181 328 199.4167 C327.9117 200.6529 326.7411 202.2859 326 202.4167 C321.6048 203.1923 318.0795 203.3932 311 202.4167 C304.1321 201.4694 303.3073 201.159 297 198.4167 C292.3479 196.394 290.8382 195.2549 288 192.4167 C287.0539 191.4706 287 188.4167 287 188.4167 "/>
<path id="62" d="M285 187.4167 C285 187.4167 284.127 180.6545 285 175.4167 C285.4729 172.5795 286.0704 171.7322 288 169.4167 C290.6863 166.1931 293.4377 163.657 295 163.4167 C296.0618 163.2533 300.137 165.5673 301 167.4167 C302.4553 170.5352 302.84 176.7367 302 178.4167 C301.44 179.5367 295.1629 181.533 294 181.4167 C293.6375 181.3804 292.3445 179.3116 292 177.4167 C291.4473 174.3769 291.4472 170.9694 292 170.4167 C292.7107 169.706 297.9994 168.7498 300 169.4167 C301.4787 169.9096 303.7553 172.5817 304 174.4167 C304.4304 177.6444 303.1456 183.7534 302 184.4167 C299.4147 185.9134 290.7203 186.2339 285 185.4167 C283.4487 185.1951 281 181.4167 281 181.4167 "/>
<path id="63" d="M278 184.4167 C278 184.4167 272.932 163.5754 273 163.4167 C273.0082 163.3974 282.2483 167.9643 284 170.4167 C284.7411 171.4542 283.0162 177.4215 283 177.4167 C282.8229 177.3635 276.3193 171.7977 274 167.4167 C272.9004 165.3396 273.576 160.7465 274 160.4167 C274.701 159.8715 280.4825 159.2418 283 160.4167 C285.5921 161.6263 287.3293 164.3537 289 167.4167 C289.6505 168.6093 289.4789 171.0786 289 171.4167 C285.159 174.128 272 179.4167 272 179.4167 "/>
<path id="64" d="M273 179.4167 C273 179.4167 259.3633 178.0526 258 176.4167 C256.6807 174.8335 257.2815 162.9564 258 161.4167 C258.1565 161.0814 262.5024 160.5842 265 161.4167 C267.2597 162.1699 267.8208 163.2375 270 165.4167 C271.6949 167.1116 272.5047 167.6004 273 169.4167 C273.7197 172.0554 273.4984 175.0877 273 176.4167 C272.8487 176.8201 270.8976 177.5663 270 177.4167 C268.944 177.2407 267.1636 176.1801 267 175.4167 C266.2572 171.9502 266.6906 163.9323 267 163.4167 C267.0413 163.3479 270.7933 163.8405 273 165.4167 C277.0738 168.3266 278.8623 169.6163 281 173.4167 C282.4643 176.0199 282.7859 179.9572 282 181.4167 C281.0197 183.2372 277.3344 185.464 274 186.4167 C271.9791 186.9941 268 185.4167 268 185.4167 "/>
</g>
</g>
</svg>
