<?xml version="1.0" encoding="utf-8"?>
<!DOCTYPE svg PUBLIC "-//W3C//DTD SVG 1.1//EN" "http://www.w3.org/Graphics/SVG/1.1/DTD/svg11.dtd">
<svg viewBox="0 0 800 800" preserveAspectRatio="xMinYMin meet" xmlns="http://www.w3.org/2000/svg" version="1.1">
<g fill="none" stroke="black" stroke-linecap="round" stroke-linejoin="round" stroke-width="1.1569">
<g transform="translate(87.52,158.8329) scale(2.5932) translate(-204,-122.4167)">
<path id="0" d="M204 303.4167 C204 303.4167 210.2292 299.0035 216 298.4167 C237.7303 296.2068 239.6885 296.6482 263 297.4167 C284.9043 298.1388 285.0455 300.5113 307 301.4167 C333.3465 302.5031 333.83 299.8144 360 301.4167 C382.4012 302.7882 382.5332 305.4751 405 307.4167 C422.8114 308.9559 441 308.4167 441 308.4167 "/>
<path id="1" d="M326 301.4167 C326 301.4167 325.0989 293.5227 326 288.4167 C326.3139 286.6377 328.6113 286.3603 329 284.4167 C332.1267 268.7834 332.4841 266.4387 334 248.4167 C336.9691 213.1171 338 177.4167 338 177.4167 "/>
<path id="2" d="M325 297.4167 C325 297.4167 326.1027 293.1045 325 290.4167 C318.925 275.6089 316.1262 274.6643 309 258.4167 C303.7131 246.3625 306.121 244.511 300 233.4167 C290.667 216.5006 289.1395 216.0246 277 200.4167 C271.911 193.8736 265.0022 188.418 265 188.4167 C264.9991 188.4161 269 195.4167 269 195.4167 "/>
<path id="3" d="M327 289.4167 C327 289.4167 319.6263 257.9863 314 226.4167 C310.65 207.6194 309 188.4167 309 188.4167 "/>
<path id="4" d="M326 295.4167 C326 295.4167 325.0872 289.9808 326 285.4167 C327.4605 278.114 327.5676 277.2814 331 270.4167 C339.8261 252.7645 342.7613 252.9239 351 235.4167 C354.3173 228.3674 352.1845 226.8394 355 219.4167 C357.5162 212.783 357.5383 210.7131 362 206.4167 C369.4333 199.2586 382 193.4167 382 193.4167 "/>
<path id="5" d="M324 293.4167 C324 293.4167 328.4589 279.0999 336 268.4167 C345.6748 254.7106 346.9641 253.0385 360 242.4167 C372.8863 231.9167 376.8567 234.3543 390 224.4167 C396.2776 219.6702 395.5671 214.5212 401 211.4167 C406.5171 208.264 418 208.4167 418 208.4167 "/>
<path id="6" d="M326 292.4167 C326 292.4167 324.2001 286.986 321 283.4167 C311.7844 273.1377 310.9735 272.7203 300 263.4167 C288.1152 253.3404 288.0307 252.8094 275 244.4167 C258.8198 233.9955 257.665 233.1936 241 225.4167 C236.3608 223.2517 230 223.4167 230 223.4167 "/>
<path id="7" d="M255 231.4167 C255 231.4167 250.4797 225.306 248 219.4167 C246.7689 216.4927 247.0942 212.4402 247 212.4167 C246.803 212.3674 240.5287 217.648 240 217.4167 C238.4346 216.7318 231.1062 205.4485 231 205.4167 C230.9857 205.4124 230.4378 214.289 230 214.4167 C227.2926 215.2063 207.0324 212.4102 207 212.4167 C206.99 212.4187 213.2403 215.437 215 217.4167 C215.5812 218.0705 215.3577 221.059 215 221.4167 C214.4635 221.9532 211.3224 221.3588 210 222.4167 C207.5832 224.3501 204.9984 229.4155 205 229.4167 C205.3029 229.637 219.3134 229.3625 221 230.4167 C221.5707 230.7733 220.9224 239.3955 221 239.4167 C221.2959 239.4974 227.0736 234.5363 232 233.4167 C236.2925 232.4411 238.2276 233.091 243 234.4167 C246.4324 235.3701 249.9374 238.4792 250 238.4167 C250.2711 238.1455 251 226.4167 251 226.4167 "/>
<path id="8" d="M284 208.4167 C284 208.4167 262.7908 210.0679 261 209.4167 C260.8202 209.3513 262.9071 201.5331 262 200.4167 C259.9643 197.9112 253.8805 197.337 248 193.4167 C245.6898 191.8765 243.9694 188.4626 244 188.4167 C244.0831 188.292 252 187.4549 252 187.4167 C252 186.9583 244.0047 175.4586 244 175.4167 C243.9986 175.4044 250.8546 178.562 251 178.4167 C251.5088 177.9079 252.9111 166.4433 253 166.4167 C253.0841 166.3914 260.4427 175.3738 261 175.4167 C261.2811 175.4383 265.9911 167.4048 266 167.4167 C266.035 167.4634 265.6969 182.3617 267 183.4167 C268.9436 184.9901 285.8647 183.1022 287 184.4167 C288.251 185.8652 286 205.4167 286 205.4167 "/>
<path id="9" d="M310 207.4167 C310 207.4167 295.4813 193.0584 295 192.4167 C294.9771 192.3861 297.7325 191.8625 298 191.4167 C298.3822 190.7797 298.4912 189.1358 298 187.4167 C296.6317 182.6276 295.4675 182.1861 294 177.4167 C293.608 176.1427 293.973 174.4234 294 174.4167 C294.1258 174.3852 297.991 176.4571 298 176.4167 C298.1618 175.6887 297.9205 157.1722 298 156.4167 C298.0031 156.3868 299.9955 157.4346 300 157.4167 C300.0809 157.0931 299.3877 152.0906 300 148.4167 C300.2268 147.056 301.5578 145.6378 302 145.4167 C302.1895 145.3219 303.5537 145.7472 304 146.4167 C306.8694 150.7207 308.2415 151.9213 310 157.4167 C311.9926 163.6437 310.3986 168.5697 312 171.4167 C312.6287 172.5343 318.736 172.6245 319 173.4167 C320.1578 176.8899 320.6295 185.0838 319 192.4167 C318.1995 196.0188 315.3437 198.3334 313 200.4167 C312.4637 200.8934 310 200.4167 310 200.4167 "/>
<path id="10" d="M337 182.4167 C337 182.4167 322.0035 143.5149 322 143.4167 C321.999 143.3881 335.9996 154.4172 336 154.4167 C336.0356 154.3721 330.2012 134.8251 330 133.4167 C329.9961 133.3891 332.5803 132.997 333 133.4167 C334.5389 134.9556 336.9983 140.418 337 140.4167 C337.0104 140.4089 336.0273 134.5507 337 130.4167 C337.7725 127.1338 339.3288 123.9515 341 123.4167 C346.71 121.5895 361.8075 122.3204 362 122.4167 C362.0282 122.4308 357.3939 126.5266 355 130.4167 C353.9078 132.1915 353.775 135.2417 354 135.4167 C354.9 136.1167 362.0772 136.1931 364 137.4167 C364.7133 137.8706 365.5764 141.408 365 142.4167 C363.1593 145.6379 358.0045 147.2072 356 151.4167 C354.1176 155.3697 356.7819 159.6548 355 163.4167 C353.4587 166.6706 349.0914 166.8042 347 170.4167 C344.53 174.683 345.5036 179.1589 344 182.4167 C343.7321 182.9971 341 183.4167 341 183.4167 "/>
<path id="11" d="M339 183.4167 C339 183.4167 344.4649 169.8327 347 160.4167 C347.2752 159.3944 346 157.4167 346 157.4167 "/>
<path id="12" d="M367 202.4167 C367 202.4167 370.9664 198.1376 372 194.4167 C373.1009 190.4536 371.9888 184.4353 372 184.4167 C372.0036 184.4107 373.7524 188.5255 375 189.4167 C375.7594 189.9591 378.5142 189.9024 379 189.4167 C380.2144 188.2023 381.2707 182.6411 382 182.4167 C383.2844 182.0215 389.0353 186.0096 392 185.4167 C395.5955 184.6976 397.4156 179.6509 402 178.4167 C408.1718 176.755 416.1779 177.8473 418 178.4167 C418.1779 178.4723 418.7657 182.0129 418 183.4167 C416.58 186.02 414.7194 188.6235 412 189.4167 C405.5817 191.2887 398.7567 187.8684 394 190.4167 C389.5091 192.8225 386.1018 203.616 384 204.4167 C382.8055 204.8717 373 198.4167 373 198.4167 "/>
<path id="13" d="M385 228.4167 C385 228.4167 384.9768 204.6719 385 204.4167 C385.0018 204.3973 386.4738 206.4693 387 206.4167 C392.3788 205.8788 396.2736 202.7399 405 202.4167 C422.2746 201.7769 440.6207 204.1236 441 204.4167 C441.0243 204.4355 430.5522 217.9366 427 219.4167 C425.6113 219.9953 419.1656 214.4167 417 214.4167 C415.9172 214.4167 414.5934 217.9039 412 219.4167 C409.3247 220.9773 406.9414 219.7988 405 221.4167 C402.3866 223.5945 402.1068 228.3633 400 229.4167 C397.425 230.7042 389 229.4167 389 229.4167 "/>
<path id="14" d="M343 275.4167 C343 275.4167 358.7194 269.8927 373 269.4167 C387.123 268.9459 392.5475 275.7833 403 273.4167 C412.5645 271.2511 414.5228 263.8304 426 257.4167 C430.555 254.8713 431.8177 254.9622 437 254.4167 C440.6156 254.0361 445 255.4167 445 255.4167 "/>
<path id="15" d="M351 276.4167 C351 276.4167 343.0726 278.1195 338 281.4167 C334.1917 283.8921 334.7869 286.3872 331 289.4167 C327.8349 291.9488 323 293.4167 323 293.4167 "/>
<path id="16" d="M332 284.4167 C332 284.4167 332.3702 279.663 334 278.4167 C345.6995 269.47 349.9886 266.5927 366 258.4167 C372.4643 255.1158 373.6326 255.1354 381 254.4167 C393.4463 253.2024 397.3586 257.0681 407 254.4167 C413.3133 252.6805 413.8044 246.9054 421 243.4167 C428.9738 239.5506 440 238.4167 440 238.4167 "/>
<path id="17" d="M328 293.4167 C328 293.4167 330.0243 290.9655 332 290.4167 C337.9498 288.764 339.1529 288.3145 346 288.4167 C371.9987 288.8047 376.6266 291.7896 399 291.4167 C401.9859 291.3669 402.9122 287.9313 406 287.4167 C410.3632 286.6895 411.8374 287.2434 417 288.4167 C422.4761 289.6612 427.9966 292.4133 428 292.4167 C428.0016 292.4183 421 292.4167 421 292.4167 "/>
<path id="18" d="M321 283.4167 C321 283.4167 317.7894 279.3114 314 277.4167 C302.6317 271.7325 301.0234 270.4996 289 267.4167 C282.8932 265.8508 281.7719 266.4932 275 267.4167 C249.2536 270.9275 223 276.4167 223 276.4167 "/>
<path id="19" d="M323 290.4167 C323 290.4167 310.2626 285.4604 298 283.4167 C290.0332 282.0889 286.2999 281.8036 281 283.4167 C278.4652 284.1881 277.0661 290.1805 275 290.4167 C266.293 291.4118 246 287.4167 246 287.4167 "/>
<path id="20" d="M321 282.4167 C321 282.4167 310.4578 265.3119 299 250.4167 C295.9194 246.4118 295.0288 245.5496 291 243.4167 C287.5381 241.5839 282 241.4167 282 241.4167 "/>
<path id="21" d="M300 267.4167 C300 267.4167 294.9208 261.7797 291 261.4167 C272.5738 259.7105 246 262.4167 246 262.4167 "/>
<path id="22" d="M326 275.4167 C326 275.4167 324.3925 270.4542 325 267.4167 C325.6075 264.3792 328.7233 263.5984 329 260.4167 C330.4685 243.529 327.8221 233.7845 329 221.4167 C329.1021 220.3445 333 218.4167 333 218.4167 "/>
<path id="23" d="M340 271.4167 C340 271.4167 345.7521 264.2118 352 261.4167 C363.0486 256.4739 365.0712 256.9394 378 254.4167 C385.1788 253.0159 393 253.4167 393 253.4167 "/>
<path id="24" d="M332 291.4167 C332 291.4167 341.2336 286.5601 350 285.4167 C363.0684 283.7121 365.5298 287.7071 378 285.4167 C388.0889 283.5636 388.9897 279.4198 399 276.4167 C402.8014 275.2763 408 276.4167 408 276.4167 "/>
<path id="25" d="M327 296.4167 C327 296.4167 328.2701 294.4297 329 294.4167 C348.355 294.071 356.8835 293.5242 383 295.4167 C390.3848 295.9518 390.6266 298.3243 398 299.4167 C403.6746 300.2573 410 299.4167 410 299.4167 C410 299.4167 395 299.4167 395 299.4167 "/>
<path id="26" d="M326 295.4167 C326 295.4167 314.6627 292.5178 305 293.4167 C294.5276 294.3908 283 299.4167 283 299.4167 "/>
<path id="27" d="M320 286.4167 C320 286.4167 310.7554 277.5188 303 274.4167 C298.3752 272.5668 295.638 273.0558 290 274.4167 C282.3282 276.2685 281.6549 280.2518 274 281.4167 C260.5429 283.4645 254.8858 282.097 244 281.4167 C243.2289 281.3685 242 279.4167 242 279.4167 "/>
<path id="28" d="M296 260.4167 C296 260.4167 285.219 255.5206 275 253.4167 C269.0802 252.1979 262 253.4167 262 253.4167 "/>
<path id="29" d="M300 247.4167 L287 231.4167 "/>
<path id="30" d="M315 264.4167 L316 267.4167 "/>
<path id="31" d="M316 269.4167 L308 237.4167 "/>
<path id="32" d="M325 255.4167 L325 236.4167 "/>
</g>
</g>
</svg>
