<?xml version="1.0" encoding="utf-8"?>
<!DOCTYPE svg PUBLIC "-//W3C//DTD SVG 1.1//EN" "http://www.w3.org/Graphics/SVG/1.1/DTD/svg11.dtd">
<svg viewBox="0 0 800 800" preserveAspectRatio="xMinYMin meet" xmlns="http://www.w3.org/2000/svg" version="1.1">
<g fill="none" stroke="black" stroke-linecap="round" stroke-linejoin="round" stroke-width="1.6561">
<g transform="translate(87.52,204.3603) scale(1.8115) translate(-63.3611,-258.25)">
<path id="0" d="M159.3611 365.0278 C159.3611 365.0278 161.3608 346.0282 161.3611 346.0278 C161.3613 346.0275 161.7088 358.2013 162.3611 360.0278 C162.426 360.2095 166.3611 360.0278 166.3611 360.0278 "/>
<path id="1" d="M198.3611 369.0278 C198.3611 369.0278 195.7887 352.89 198.3611 340.0278 C200.8626 327.5204 209.3611 314.0278 209.3611 314.0278 "/>
<path id="2" d="M204.3611 332.0278 C204.3611 332.0278 205.7863 328.8868 207.3611 328.0278 C210.1239 326.5208 215.3611 326.0278 215.3611 326.0278 C215.3611 326.0278 207.3611 328.0278 207.3611 328.0278 "/>
<path id="3" d="M200.3611 332.0278 L199.3611 312.0278 "/>
<path id="4" d="M215.3611 374.0278 C215.3611 374.0278 217.2905 373.4042 217.3611 373.0278 C218.1407 368.8698 216.0922 363.5109 218.3611 358.0278 C221.0919 351.4284 229.3611 344.0278 229.3611 344.0278 C229.3611 344.0278 223.2792 348.6162 221.3611 353.0278 C219.0754 358.2848 219.3611 367.0278 219.3611 367.0278 "/>
<path id="5" d="M181.3611 364.0278 C181.3611 364.0278 181.5192 344.0031 180.3611 335.0278 C180.2662 334.2923 177.6023 333.8316 177.3611 333.0278 C176.6959 330.8103 177.3611 325.0278 177.3611 325.0278 C177.3611 325.0278 179.3611 354.0278 179.3611 354.0278 "/>
<path id="6" d="M164.3611 322.0278 C164.3611 322.0278 166.0922 305.562 171.3611 296.0278 C174.8428 289.7276 185.3611 284.0278 185.3611 284.0278 C185.3611 284.0278 170.3611 299.0278 170.3611 299.0278 "/>
<path id="7" d="M183.3611 311.0278 C183.3611 311.0278 183.7664 303.6184 186.3611 299.0278 C189.5159 293.4462 196.3609 288.028 196.3611 288.0278 C196.3612 288.0277 192.4665 289.9749 191.3611 292.0278 C189.6966 295.119 189.3611 301.0278 189.3611 301.0278 "/>
<path id="8" d="M250.3611 340.0278 C250.3611 340.0278 249.2019 328.2654 251.3611 322.0278 C252.6285 318.3663 259.3611 314.0278 259.3611 314.0278 "/>
<path id="9" d="M235.3611 317.0278 C235.3611 317.0278 236.5663 306.8596 239.3611 300.0278 C240.4177 297.445 244.3611 295.0278 244.3611 295.0278 C244.3611 295.0278 237.6485 299.0768 235.3611 303.0278 C233.2559 306.664 233.3611 314.0278 233.3611 314.0278 "/>
<path id="10" d="M257.3611 376.0278 C257.3611 376.0278 256.7311 364.9615 259.3611 358.0278 C261.382 352.7 268.3605 347.0297 268.3611 347.0278 C268.3614 347.0268 263.7503 349.2042 261.3611 352.0278 C258.8709 354.9707 257.3611 360.0278 257.3611 360.0278 "/>
<path id="11" d="M237.3611 367.0278 C237.3611 367.0278 237.3611 370.0278 237.3611 370.0278 C237.3682 370.0278 238.7572 368.613 239.3611 367.0278 C242.6175 358.4797 245.1218 350.1045 245.3611 349.0278 C245.3666 349.003 243.395 348.9261 243.3611 349.0278 C242.7171 350.9598 241.3611 361.0278 241.3611 361.0278 "/>
<path id="12" d="M143.3611 375.0278 C143.3611 375.0278 139.8413 371.2692 139.3611 368.0278 C138.0962 359.4894 137.7164 356.5257 139.3611 348.0278 C140.3612 342.8605 145.2174 337.423 145.3611 337.0278 C145.369 337.006 143.3611 337.0278 143.3611 337.0278 "/>
<path id="13" d="M125.3611 367.0278 C125.3611 367.0278 124.1024 355.0978 125.3611 345.0278 C125.9619 340.2217 129.3611 335.0278 129.3611 335.0278 "/>
<path id="14" d="M152.3611 345.0278 C152.3611 345.0278 152.6374 337.6243 154.3611 333.0278 C155.1047 331.045 158.3611 329.0278 158.3611 329.0278 "/>
<path id="15" d="M152.3611 329.0278 C152.3611 329.0278 148.6773 313.9539 149.3611 308.0278 C149.5496 306.3945 155.3611 303.0278 155.3611 303.0278 "/>
<path id="16" d="M138.3611 327.0278 C138.3611 327.0278 138.4033 316.1643 140.3611 307.0278 C141.21 303.0665 144.3611 299.0278 144.3611 299.0278 "/>
<path id="17" d="M221.3611 315.0278 L221.3611 290.0278 "/>
<path id="18" d="M206.3611 301.0278 C206.3611 301.0278 205.9857 296.0908 207.3611 294.0278 C209.8727 290.2605 216.3611 286.0278 216.3611 286.0278 "/>
<path id="19" d="M291.3611 353.0278 C291.3611 353.0278 292.8644 344.8263 291.3611 339.0278 C289.7703 332.8918 284.3611 326.0278 284.3611 326.0278 "/>
<path id="20" d="M277.3611 333.0278 L273.3611 318.0278 "/>
<path id="21" d="M232.3611 382.0278 L230.3611 361.0278 "/>
<path id="22" d="M207.3611 372.0278 C207.3611 372.0278 207.4011 363.0856 209.3611 355.0278 C211.7937 345.0271 216.3611 335.0278 216.3611 335.0278 "/>
<path id="23" d="M193.3611 381.0278 C193.3611 381.0278 191.362 381.0424 191.3611 381.0278 C191.112 376.7924 191.3611 347.0278 191.3611 347.0278 "/>
<path id="24" d="M173.3611 394.0278 C173.3611 394.0278 174.2053 385.1886 173.3611 377.0278 C172.7498 371.1183 170.3611 365.0278 170.3611 365.0278 "/>
<path id="25" d="M287.3611 377.0278 C287.3611 377.0278 283.2226 371.5506 282.3611 367.0278 C281.5109 362.564 283.3611 356.0278 283.3611 356.0278 "/>
<path id="26" d="M302.3611 367.0278 C302.3611 367.0278 301.0781 361.1222 301.3611 356.0278 C301.545 352.7177 301.8005 351.7031 303.3611 349.0278 C304.8739 346.4344 308.3611 344.0278 308.3611 344.0278 "/>
<path id="27" d="M305.3611 349.0278 C305.3611 349.0278 306.2806 340.5445 305.3611 335.0278 C305.0656 333.2545 302.3611 331.0278 302.3611 331.0278 "/>
<path id="28" d="M307.3611 350.0278 C307.3611 350.0278 308.686 347.084 309.3611 347.0278 C319.5629 346.1776 343.3611 347.0278 343.3611 347.0278 "/>
<path id="29" d="M327.3611 338.0278 L328.3611 338.0278 "/>
<path id="30" d="M315.3611 340.0278 C315.3611 340.0278 315.9159 331.6956 318.3611 328.0278 C320.457 324.884 327.3611 322.0278 327.3611 322.0278 "/>
<path id="31" d="M304.3611 320.0278 C304.3611 320.0278 296.8959 303.8416 289.3611 296.0278 C286.3108 292.8645 277.3611 292.0278 277.3611 292.0278 "/>
<path id="32" d="M295.3611 304.0278 L300.3611 286.0278 "/>
<path id="33" d="M291.3611 299.0278 L255.3611 307.0278 "/>
<path id="34" d="M249.3611 299.0278 C249.3611 299.0278 255.6492 287.498 261.3611 283.0278 C264.288 280.7372 272.3611 281.0278 272.3611 281.0278 "/>
<path id="35" d="M238.3611 289.0278 C238.3611 289.0278 236.9725 285.6184 237.3611 283.0278 C238.3309 276.5623 238.4416 273.8937 241.3611 269.0278 C243.2837 265.8234 249.3611 263.0278 249.3611 263.0278 "/>
<path id="36" d="M239.3611 337.0278 L239.3611 337.0278 "/>
<path id="37" d="M238.3611 331.0278 C238.3611 331.0278 234.6811 330.7878 234.3611 331.0278 C234.1811 331.1628 234.3611 334.0278 234.3611 334.0278 "/>
<path id="38" d="M223.3611 324.0278 L223.3611 323.0278 "/>
<path id="39" d="M234.3611 326.0278 L253.3611 322.0278 "/>
<path id="40" d="M279.3611 346.0278 L276.3611 356.0278 "/>
<path id="41" d="M263.3611 376.0278 L268.3611 360.0278 "/>
<path id="42" d="M242.3611 385.0278 L243.3611 377.0278 "/>
<path id="43" d="M211.3611 393.0278 L209.3611 385.0278 "/>
<path id="44" d="M189.3611 397.0278 L182.3611 388.0278 "/>
<path id="45" d="M157.3611 389.0278 L157.3611 385.0278 "/>
<path id="46" d="M150.3611 383.0278 L153.3611 373.0278 "/>
<path id="47" d="M152.3611 369.0278 L151.3611 356.0278 "/>
<path id="48" d="M133.3611 378.0278 L132.3611 369.0278 "/>
<path id="49" d="M118.3611 362.0278 L118.3611 348.0278 "/>
<path id="50" d="M124.3611 331.0278 L131.3611 317.0278 "/>
<path id="51" d="M157.3611 296.0278 L168.3611 287.0278 "/>
<path id="52" d="M159.3611 319.0278 L159.3611 309.0278 "/>
<path id="53" d="M174.3611 318.0278 L177.3611 306.0278 "/>
<path id="54" d="M186.3611 333.0278 L188.3611 316.0278 "/>
<path id="55" d="M229.3611 397.0278 L221.3611 380.0278 "/>
<path id="56" d="M255.3611 399.0278 L255.3611 383.0278 "/>
<path id="57" d="M272.3611 397.0278 L273.3611 381.0278 "/>
<path id="58" d="M318.3611 392.25 L320.3611 372.25 "/>
<path id="59" d="M320.3611 382.25 C320.3611 382.25 316.8868 373.8285 314.3611 372.25 C312.2994 370.9614 304.3611 372.25 304.3611 372.25 "/>
<path id="60" d="M315.3611 369.25 C315.3611 369.25 312.6176 365.9443 310.3611 365.25 C307.4639 364.3586 304.291 364.1472 302.3611 365.25 C299.811 366.7072 296.3354 373.205 296.3611 373.25 C296.3877 373.2965 306.3611 372.25 306.3611 372.25 "/>
<path id="61" d="M324.3611 387.25 C324.3611 387.25 322.4015 381.4091 323.3611 379.25 C325.1392 375.2494 332.3611 369.25 332.3611 369.25 "/>
<path id="62" d="M327.3611 376.25 C327.3611 376.25 326.2017 365.9001 327.3611 363.25 C327.9018 362.0141 334.3596 360.2459 334.3611 360.25 C334.4 360.3538 330.3611 371.25 330.3611 371.25 "/>
<path id="63" d="M339.3611 405.25 L355.3611 431.25 "/>
<path id="64" d="M280.3611 415.25 C280.3611 415.25 280.1943 406.0214 282.3611 399.25 C283.7831 394.8063 288.3611 390.25 288.3611 390.25 "/>
<path id="65" d="M298.3611 405.25 L298.3611 406.25 "/>
<path id="66" d="M298.3611 406.25 L297.3611 394.25 "/>
<path id="67" d="M243.3611 418.25 L242.3611 397.25 "/>
<path id="68" d="M218.3611 414.25 L215.3611 401.25 "/>
<path id="69" d="M207.3611 412.25 C207.3611 412.25 205.3797 412.3243 205.3611 412.25 C204.748 409.7974 203.3611 396.25 203.3611 396.25 "/>
<path id="70" d="M175.3611 410.25 L173.3611 400.25 "/>
<path id="71" d="M118.3611 409.25 L117.3611 380.25 "/>
<path id="72" d="M128.3611 405.25 C128.3611 405.25 129.7121 400.2107 132.3611 397.25 C137.5387 391.4633 145.3611 386.25 145.3611 386.25 "/>
<path id="73" d="M145.3611 410.25 L144.3611 399.25 "/>
<path id="74" d="M174.3611 424.25 C174.3611 424.25 175.7918 415.2575 174.3611 410.25 C173.4706 407.1331 168.3611 403.25 168.3611 403.25 "/>
<path id="75" d="M209.3611 440.25 L200.3611 426.25 "/>
<path id="76" d="M161.3611 434.25 C161.3611 434.25 162.0553 431.407 161.3611 430.25 C158.515 425.5065 152.3611 419.25 152.3611 419.25 "/>
<path id="77" d="M137.3611 426.25 L130.3611 413.25 "/>
<path id="78" d="M114.3611 417.25 C114.3611 417.25 113.4789 412.0149 111.3611 408.25 C109.3053 404.5952 105.3611 401.25 105.3611 401.25 "/>
<path id="79" d="M96.3611 381.25 L98.3611 372.25 "/>
<path id="80" d="M105.3611 385.25 L106.3611 371.25 "/>
<path id="81" d="M102.3611 351.25 L102.3611 328.25 "/>
<path id="82" d="M121.3611 315.25 L122.3611 312.25 "/>
<path id="83" d="M126.3611 296.25 L134.3611 282.25 "/>
<path id="84" d="M168.3611 281.25 C168.3611 281.25 167.9569 276.8245 169.3611 274.25 C173.2694 267.0849 180.3611 259.25 180.3611 259.25 "/>
<path id="85" d="M202.3611 270.25 L209.3611 259.25 "/>
<path id="86" d="M252.3611 265.25 L247.3611 258.25 "/>
<path id="87" d="M311.3611 278.25 L308.3611 267.25 "/>
<path id="88" d="M348.3611 294.25 L341.3611 278.25 "/>
<path id="89" d="M319.3611 310.25 L319.3611 296.25 "/>
<path id="90" d="M345.3611 317.25 L345.3611 311.25 "/>
<path id="91" d="M367.3611 336.25 L367.3611 322.25 "/>
<path id="92" d="M348.3611 380.25 C348.3611 380.25 348.5335 375.7173 350.3611 373.25 C357.544 363.5531 368.3611 353.25 368.3611 353.25 "/>
<path id="93" d="M316.3611 437.25 L322.3611 403.25 "/>
<path id="94" d="M291.3611 446.25 C291.3611 446.25 291.1371 440.58 289.3611 437.25 C287.738 434.2067 283.3611 431.25 283.3611 431.25 "/>
<path id="95" d="M261.3611 452.25 C261.3611 452.25 259.6028 444.173 257.3611 440.25 C256.6886 439.0731 253.3611 438.25 253.3611 438.25 "/>
<path id="96" d="M234.3611 435.25 L233.3611 425.25 "/>
<path id="97" d="M78.3611 441.25 L75.3611 440.25 "/>
<path id="98" d="M74.3611 434.25 L74.3611 412.25 "/>
<path id="99" d="M70.3611 397.25 L70.3611 385.25 "/>
<path id="100" d="M65.3611 383.25 L63.3611 378.25 "/>
<path id="101" d="M73.3611 353.25 L82.3611 344.25 "/>
<path id="102" d="M70.3611 332.25 L89.3611 317.25 "/>
<path id="103" d="M89.3611 365.25 L91.3611 351.25 "/>
<path id="104" d="M76.3611 378.25 L79.3611 366.25 "/>
<path id="105" d="M89.3611 391.25 L89.3611 388.25 "/>
<path id="106" d="M98.3611 429.25 L95.3611 410.25 "/>
<path id="107" d="M128.3611 453.25 L127.3611 448.25 "/>
<path id="108" d="M150.3611 449.25 L153.3611 442.25 "/>
<path id="109" d="M195.3611 467.25 L199.3611 448.25 "/>
<path id="110" d="M216.3611 472.25 L216.3611 456.25 "/>
<path id="111" d="M324.3611 474.25 L324.3611 453.25 "/>
<path id="112" d="M260.3611 467.25 L255.3611 451.25 "/>
<path id="113" d="M284.3611 469.25 C284.3611 469.25 285.5255 463.3254 284.3611 459.25 C282.8807 454.0684 278.3611 448.25 278.3611 448.25 "/>
<path id="114" d="M244.3611 462.25 C244.3611 462.25 241.9008 462.7357 241.3611 462.25 C238.6448 459.8053 234.3611 453.25 234.3611 453.25 "/>
<path id="115" d="M162.3611 465.25 C162.3611 465.25 161.0854 463.1459 161.3611 462.25 C162.5425 458.4103 166.3611 452.25 166.3611 452.25 "/>
<path id="116" d="M144.3611 469.25 L146.3611 448.25 "/>
<path id="117" d="M96.3611 459.25 L109.3611 426.25 "/>
<path id="118" d="M127.3611 467.25 L123.3611 455.25 "/>
<path id="119" d="M398.3611 459.25 L395.3611 450.25 "/>
<path id="120" d="M394.3611 428.25 L386.3611 399.25 "/>
<path id="121" d="M357.3611 452.25 L357.3611 438.25 "/>
<path id="122" d="M336.3611 460.25 L335.3611 443.25 "/>
<path id="123" d="M367.3611 407.25 C367.3611 407.25 366.3505 396.3455 367.3611 387.25 C367.7317 383.915 370.3611 380.25 370.3611 380.25 "/>
<path id="124" d="M339.3611 426.25 L336.3611 419.25 "/>
<path id="125" d="M261.3611 421.25 C261.3611 421.25 263.2698 421.4326 263.3611 421.25 C265.0954 417.7815 269.3611 405.25 269.3611 405.25 "/>
<path id="126" d="M389.3611 376.25 L389.3611 353.25 "/>
<path id="127" d="M408.3611 356.25 L400.3611 333.25 "/>
<path id="128" d="M391.3611 321.25 L386.3611 303.25 "/>
<path id="129" d="M374.3611 351.25 C374.3611 351.25 376.9852 349.691 377.3611 348.25 C379.4265 340.3327 380.3611 328.25 380.3611 328.25 "/>
<path id="130" d="M362.3611 343.25 C362.3611 343.25 358.3813 341.9843 357.3611 340.25 C354.4522 335.3048 352.3611 326.25 352.3611 326.25 "/>
<path id="131" d="M370.3611 306.25 L365.3611 295.25 "/>
<path id="132" d="M334.3611 304.25 L330.3611 291.25 "/>
<path id="133" d="M286.3611 282.25 L284.3611 262.25 "/>
<path id="134" d="M261.3611 271.25 L261.3611 266.25 "/>
<path id="135" d="M219.3611 275.25 L220.3611 271.25 "/>
<path id="136" d="M148.3611 287.25 L153.3611 272.25 "/>
<path id="137" d="M107.3611 312.25 L107.3611 299.25 "/>
<path id="138" d="M392.3611 418.0278 L389.3611 401.0278 "/>
<path id="139" d="M391.3611 367.0278 L395.3611 353.0278 "/>
<path id="140" d="M407.3611 346.0278 L407.3611 337.0278 "/>
<path id="141" d="M407.3611 337.0278 L407.3611 336.0278 "/>
<path id="142" d="M393.3611 409.0278 L393.3611 390.0278 "/>
<path id="143" d="M368.3611 393.0278 L363.3611 387.0278 "/>
<path id="144" d="M363.3611 387.0278 L361.3611 380.0278 "/>
<path id="145" d="M357.3611 363.0278 L357.3611 351.0278 "/>
<path id="146" d="M352.3611 332.0278 L346.3611 326.0278 "/>
<path id="147" d="M348.3611 316.0278 L348.3611 303.0278 "/>
<path id="148" d="M332.3611 300.0278 L333.3611 291.0278 "/>
<path id="149" d="M345.3611 283.0278 L345.3611 271.0278 "/>
<path id="150" d="M291.3611 439.0278 L291.3611 420.0278 "/>
<path id="151" d="M318.3611 426.0278 L312.3611 409.0278 "/>
<path id="152" d="M239.3611 460.0278 L239.3611 439.0278 "/>
<path id="153" d="M204.3611 433.0278 C204.3611 433.0278 204.1048 428.0062 205.3611 424.0278 C206.9227 419.0829 210.3611 414.0278 210.3611 414.0278 "/>
<path id="154" d="M197.3611 458.0278 L193.3611 443.0278 "/>
</g>
</g>
</svg>
