<?xml version="1.0" encoding="utf-8"?>
<!DOCTYPE svg PUBLIC "-//W3C//DTD SVG 1.1//EN" "http://www.w3.org/Graphics/SVG/1.1/DTD/svg11.dtd">
<svg viewBox="0 0 800 800" preserveAspectRatio="xMinYMin meet" xmlns="http://www.w3.org/2000/svg" version="1.1">
<g fill="none" stroke="black" stroke-linecap="round" stroke-linejoin="round" stroke-width="2.2753">
<g transform="translate(87.52,291.8846) scale(1.3185) translate(-6,-317)">
<path id="0" d="M6 333 C6 333 7.9828 333.069 8 333 C8.4226 331.3095 7.6375 325.36 9 321 C9.581 319.1409 11.2515 317.5828 13 317 C15.6228 316.1257 20.7785 316.5848 21 317 C21.7785 318.4598 21 332 21 332 C21 332 20.4172 329.1657 21 328 C21.8743 326.2515 23.2769 324.4595 25 324 C28.741 323.0024 35.2472 323.3156 36 324 C36.6222 324.5656 35.375 333.375 36 334 C36.625 334.625 45.2378 333.3902 46 334 C46.4878 334.3902 45.6712 341.1233 46 342 C46.0462 342.1233 48.9901 341.9454 49 342 C49.1969 343.0827 47.5114 352.6161 48 353 C48.9589 353.7534 61.8943 352.4471 63 353 C63.1843 353.0921 62.438 358.9779 62 360 C61.9495 360.1179 60.0006 360.0118 60 360 C59.8884 357.8799 59.7417 343.7962 61 341 C61.2976 340.3387 67.8291 339.3613 69 340 C70.0709 340.5841 71.9974 347.0071 72 347 C72.008 346.978 72.0468 331.1448 73 329 C73.1608 328.6382 79.834 328.6958 80 329 C80.4544 329.8331 79.1571 339.4765 79 340 C78.9944 340.0185 77 339.1994 77 339 C77 337.0057 77.2378 333.0278 79 329 C80.3267 325.9676 81.9047 324.3968 84 323 C84.9312 322.3792 87.9253 322.8058 88 323 C88.6499 324.6896 89 336 89 336 C89 336 89 334 89 334 C89.1528 334 92.7623 335.2273 93 336 C93.8095 338.6308 93.242 345.669 93 347 C92.992 347.044 91 347 91 347 C91 347 100.4279 345.1428 107 346 C110.115 346.4063 112.9285 348.3162 114 350 C114.8871 351.3941 114.6986 355.7425 114 357 C113.5232 357.8583 109.3583 358.1043 109 359 C107.7998 362.0005 109.6989 367.1461 108 372 C106.842 375.3086 105.0838 376.865 102 379 C99.616 380.6504 95.3412 381.1462 95 381 C94.881 380.949 94.3557 377.0309 95 376 C95.7893 374.7372 97.5871 373.508 100 373 C106.0886 371.7182 112.6329 371.6094 114 372 C114.1424 372.0407 113.9782 376.9987 114 377 C115.2413 377.073 128.2418 372.5863 131 373 C131.6812 373.1022 133.5212 376.6484 134 380 C134.9024 386.3165 134.3585 392.3268 134 394 C133.9835 394.0768 131.026 394.0952 131 394 C130.651 392.7202 129.854 385.8651 131 383 C131.6668 381.333 137.0284 379.0682 137 379 C136.7616 378.4279 128.4545 374.6817 126 371 C124.2925 368.4388 124.3315 364.1196 125 361 C125.3318 359.4516 127.0471 357.8877 129 357 C131.5021 355.8627 135.1445 355.5247 136 356 C136.708 356.3933 137.9891 362.0027 138 362 C138.1747 361.9563 141.4892 355.6738 144 354 C145.3292 353.1138 149.9982 354.0006 150 354 C150.0008 353.9997 147.4594 353.6891 147 353 C145.4687 350.703 144.6841 348.8768 144 345 C143.2781 340.9093 143.0785 338.9949 144 336 C144.5356 334.2593 146.0873 332.7357 148 332 C151.241 330.7535 156.4441 330.4441 157 331 C157.9729 331.9729 158.9999 343.0002 159 343 C159.0001 342.9997 157.5205 332.4249 159 327 C159.7061 324.4108 163.0225 321.6085 165 321 C166.6091 320.5049 171.5435 322.03 172 323 C173.334 325.8346 172.9968 337.9904 173 338 C173.0011 338.0033 173.6886 333.7485 175 332 C175.8743 330.8343 178.8548 329.873 179 330 C179.7661 330.6703 182.0916 334.6852 183 339 C183.923 343.384 183.6737 347.5179 183 349 C182.7795 349.4851 178.063 349.6852 178 350 C177.4082 352.9588 177.7726 367.0565 179 369 C179.4344 369.6878 186.6895 370.6552 190 369 C195.7181 366.1409 196.4155 361.2942 203 357 C206.7802 354.5346 208.105 354.8158 213 354 C216.7295 353.3784 220.5 353.5 221 354 C221.5 354.5 221.4435 360.0041 221 362 C220.9199 362.3604 218.9996 363.0005 219 363 C219.0017 362.9978 221.9346 358.7517 225 357 C227.9725 355.3014 232.6824 354.6824 233 355 C233.741 355.741 235.0473 366.7635 235 367 C234.9951 367.0245 231.9628 366.2378 231 365 C229.2419 362.7396 228.4364 361.346 228 358 C227.0553 350.757 225.7016 345.8306 228 342 C231.5625 336.0626 243.9377 328.0764 246 328 C246.9487 327.9649 254.0912 340.8565 255 341 C255.6925 341.1093 264.9671 330.9495 265 331 C265.3432 331.5263 270.4081 356.4497 270 364 C269.9454 365.01 262.9987 368.0001 263 368 C263.0035 367.9997 279.7381 362.7164 283 363 C283.6016 363.0523 285.1605 366.6419 286 370 C286.5416 372.1665 286.4398 374.4723 286 375 C285.5456 375.5453 281.1578 375.5582 281 376 C280.2636 378.0619 281.9708 386.5731 281 389 C280.6714 389.8214 275 391 275 391 C275.0001 391 283.3321 390.2226 290 388 C293.0561 386.9813 296 384 296 384 "/>
<path id="1" d="M284 358 C284 358 282 356.1574 282 355 C282 348.8271 281.9455 343.1091 284 339 C284.9668 337.0663 288.208 336.0834 292 335 C294.4885 334.289 296.1158 334.2463 298 335 C299.7586 335.7034 301.9912 339.0199 302 339 C302.0517 338.8836 301.5432 327.4845 302 326 C302.0432 325.8595 305.8835 325.7475 306 326 C306.8789 327.9043 308 339 308 339 C308 339 306.4131 327.162 307 321 C307.1077 319.8692 308.6826 318.494 310 318 C311.5968 317.4012 314.802 317.6287 315 318 C316.2327 320.3113 317.7015 332.5895 318 333 C318.0063 333.0087 320.7403 329.7532 323 329 C325.4976 328.1675 329.7528 328.5675 330 329 C330.9004 330.5757 329.7324 340.1027 331 343 C331.4061 343.9281 336.6974 344.1931 337 345 C337.9968 347.658 337.583 356.0848 337 359 C336.9334 359.3332 334.013 359.7913 334 360 C333.8366 362.6143 336 373.5879 336 375 C336 375 334 375 334 375 "/>
<path id="2" d="M336 375 C336 375 338.3387 370.4886 340 370 C343.9479 368.8389 349.6043 368.9389 353 370 C354.1917 370.3724 355.9987 375.0019 356 375 C356.0031 374.9954 355 367 355 367 "/>
<path id="3" d="M360 360 L374 360 "/>
<path id="4" d="M30 365 C30 365 31 380.2288 31 395 C31 398.4466 31.2747 399.4507 30 402 C28.3005 405.3991 24 409 24 409 "/>
<path id="5" d="M32 379 C32 379 31.3495 376.1927 32 375 C33.6707 371.9371 34.6296 370.2469 38 368 C44.2141 363.8573 53 361 53 361 "/>
<path id="6" d="M30 393 C30 393 22.5129 385.4141 18 378 C16.135 374.9361 17.3516 371.3516 16 370 C14.6484 368.6484 8 368 8 368 "/>
<path id="7" d="M66 388 C66 388 68.6018 389.6063 69 391 C70.1651 395.0779 69.9156 396.5162 70 402 C70.4136 428.8829 72.1032 430.4116 70 456 C69.2408 465.237 64 475 64 475 "/>
<path id="8" d="M70 426 C70 426 78.9388 416.8134 85 407 C89.0114 400.5054 91 392 91 392 "/>
<path id="9" d="M72 407 C72 407 63.6712 407.8949 63 407 C60.5638 403.7518 59.5357 392.9166 57 387 C56.7432 386.4009 54 386 54 386 "/>
<path id="10" d="M358 372 C358 372 359.9736 363.9123 361 363 C361.4769 362.5761 366.8189 363.5171 367 364 C367.8358 366.2288 368.3209 373.4521 367 379 C366.3668 381.6595 362.7037 382.326 362 385 C360.7496 389.7517 363.0558 393.5128 362 398 C361.5987 399.7055 357.9901 401.9934 358 402 C358.0742 402.0495 367.6524 401.3995 368 402 C369.1757 404.0307 369 421 369 421 C369 421 368.3191 409.0677 371 402 C372.82 397.2018 376.2782 394.6584 380 392 C381.1528 391.1766 384.8534 391.7068 385 392 C385.7331 393.4662 384.7188 400.1565 386 404 C386.4501 405.3504 389.5499 405.6496 390 407 C391.2812 410.8435 391.4568 415.8026 391 419 C390.9064 419.6549 387.9999 421 388 421 C388.0003 420.9999 392.5573 418.2221 395 418 C396.2824 417.8834 398.8378 419.351 399 420 C399.5273 422.1091 399.1221 427.7559 398 430 C397.5191 430.9618 393 431.8307 393 432 C393 432.6771 396.762 436.2861 398 440 C398.8965 442.6894 398.8028 445.3944 398 447 C397.3692 448.2615 395.3268 449.5014 393 450 C389.2888 450.7952 384 450 384 450 C384 450 386.6073 449.6073 387 450 C388.1781 451.1781 389.7833 453.2907 390 456 C390.6572 464.2148 390.6748 472.9312 389 475 C387.7359 476.5616 373 477 373 477 "/>
<path id="11" d="M186 480 C186 480 182.4005 479.0558 182 478 C178.6235 469.0984 175.0483 451.4027 175 451 C174.9957 450.9641 178.4483 452.0069 179 453 C179.9873 454.7771 179.0405 457.8412 180 460 C180.4296 460.9666 182.6694 461.0082 183 462 C185.2406 468.7219 186.9993 481.0023 187 481 C187.0016 480.995 186.5291 458.8846 189 443 C189.5016 439.7752 193.9959 435.9737 194 436 C194.0258 436.1651 195.1415 458.2577 194 475 C193.8477 477.2343 191 480.0001 191 480 C191.0002 479.9994 196.5091 462.9819 204 448 C207.6968 440.6064 210.5143 438.0667 214 434 C214.2647 433.6911 215.95 433.9 216 434 C216.2 434.4 216.4325 436.1834 216 438 C214.0331 446.2611 213.7803 446.6591 211 455 C209.8084 458.5747 209.9566 459.8477 208 462 C205.9154 464.2931 201.9844 464.3125 201 466 C200.0258 467.6701 201.8914 471.1028 201 474 C200.3057 476.2565 197 479 197 479 C197 479 200.8406 471.9815 206 467 C214.8842 458.4221 216.5892 457.3993 226 451 C227.731 449.8229 230.6272 449.9254 231 450 C231.0311 450.0062 231.3625 451.3476 231 452 C227.0936 459.0316 226.7334 461.2241 221 468 C216.2762 473.5826 209 478 209 478 "/>
<path id="12" d="M181 469 C181 469 162.3692 463.4784 161 464 C160.5496 464.1716 159.0578 474.8463 160 477 C160.4875 478.1143 168 480 168 480 "/>
<path id="13" d="M224 470 C224 470 265.9941 470.9977 266 471 C266.003 471.0012 253.8152 475.2277 242 477 C234.4079 478.1388 226 477 226 477 "/>
<path id="14" d="M292 478 C292 478 294.0187 477.0749 294 477 C293.0635 473.254 286.0002 454.0001 286 454 C285.9998 454 287.7349 469.9596 290 476 C290.3735 476.996 294.9932 478.0199 295 478 C295.8772 475.4481 300.9994 444.0004 301 444 C301.0004 443.9997 300.9987 473.9997 301 474 C301.0002 474 308.9966 446.003 309 446 C309.0019 445.9983 310.1394 457.0303 309 467 C308.2156 473.8635 304.9985 481.0009 305 481 C305.0026 480.9985 310.3447 470.4226 316 463 C317.4598 461.084 320.9957 459.9807 321 460 C321.0257 460.1158 320.5826 468.7718 318 472 C314.7001 476.1249 305 480 305 480 "/>
<path id="15" d="M38 479 C38 479 32.4789 461.6213 29 445 C28.1275 440.8312 29 436 29 436 C29 436 27.7139 441.0848 29 444 C34.2438 455.886 39.2126 463.0849 44 470 C44.2733 470.3947 46.9803 470.0885 47 470 C47.5373 467.5819 46.7263 456.2455 48 452 C48.2436 451.188 52.9896 449.9498 53 450 C53.3358 451.6232 53.9278 480.7523 54 481 C54.0121 481.0416 58.2667 477.7332 60 474 C64.2952 464.7488 66.9953 453.0027 67 453 C67.0024 452.9986 66.9353 469.8447 67 470 C67.0111 470.0266 71.9935 464.9948 72 465 C72.0471 465.0377 71.9797 473.9986 72 474 C72.424 474.0303 85.6864 465.888 86 466 C86.1307 466.0467 86.7553 475.2233 86 479 C85.8489 479.7553 84.3136 480.9027 83 481 C72.9857 481.7418 59 481 59 481 C59 481 100 478 100 478 "/>
<path id="16" d="M117 468 L117 470 "/>
<path id="17" d="M116 474 C116 474 115.4486 477.0351 116 478 C116.7286 479.2751 119.9938 481.0108 120 481 C120.0862 480.8492 120.6215 475.8479 120 471 C118.1577 456.6304 116.2211 456.45 115 442 C113.2534 421.3315 114 400 114 400 C114 400 113.9951 462.9805 114 463 C114.0019 463.0077 119.6495 449.6254 123 436 C127.0687 419.4538 128.9997 401.9993 129 402 C129.0005 402.0011 131.25 426.8215 129 449 C127.9128 459.7165 122.0009 470.9985 122 471 C121.9996 471.0007 121.5529 464.636 123 459 C130.8656 428.3656 140.9899 397.0053 141 397 C141.0053 396.9972 142.7478 423.5757 142 449 C141.7685 456.8704 139 465 139 465 C139 465 140.3252 451.4944 144 439 C150.2086 417.8906 158.9992 397.0013 159 397 C159.0005 396.9993 158.0667 409.9689 155 422 C151.6652 435.0828 150.8214 435.1428 146 448 C141.8351 459.1064 142.2309 459.8651 137 470 C134.5239 474.7975 132.992 477.6536 130 479 C126.48 480.584 117.848 480.1306 117 479 C114.5866 475.7821 112.0024 455.0051 112 455 C111.9991 454.9979 111.0004 466.0017 111 466 C110.9976 465.9908 101.0008 412.0003 101 412 C100.9995 411.9999 101.0082 462.9859 101 463 C100.9959 463.0071 90 431 90 431 C90 431 102.9999 478.9998 103 479 C103 479.0001 103.06 471.9224 101 466 C95.304 449.624 92.9783 449.5281 87 433 C84.6308 426.4497 83.9999 418.9998 84 419 C84.0003 419.0007 98.0212 459.5316 106 479 C106.2577 479.6289 108.9966 480.0138 109 480 C109.1788 479.2849 110.2484 472.9922 109 467 C105.4389 449.9068 99 432 99 432 C99 432.0001 116 477 116 477 "/>
<path id="18" d="M413 477 C413 477 410.3108 472.3516 410 468 C408.8868 452.4154 409.1516 444.8978 410 435 C410.058 434.323 412.9948 432.9523 413 433 C413.1494 434.3748 415 480.9999 415 481 C415 481 414.4173 466.978 416 454 C416.8454 447.0675 419.9982 439.9982 420 440 C420.0037 440.0037 422.0994 450.2049 421 459 C419.7332 469.1347 415.0001 480.0002 415 480 C414.9999 479.9997 415.0358 463.1756 419 451 C421.2574 444.0665 423.7983 442.8953 429 437 C430.6892 435.0856 433.9926 433.9678 434 434 C434.0625 434.2707 434.6349 443.7168 432 450 C428.931 457.3184 425.532 457.1949 421 465 C416.7483 472.3224 413.9986 481.0008 414 481 C414.0025 480.9985 421.7232 468.5579 431 459 C437.6334 452.1656 446.9294 447.0303 447 447 C447.0153 446.9935 446.5762 450.7933 445 453 C442.0901 457.0738 441.3266 457.5387 437 461 C429.0077 467.3938 419.9744 472.9976 420 473 C420.0954 473.0089 479.9999 465 480 465 C480 465 461.9502 463.8583 446 467 C430.1552 470.1209 430.0365 473.5978 414 478 C404.9222 480.4919 395.0048 481.0011 395 481 C394.9977 480.9995 400.2639 477.393 405 476 C407.8902 475.1499 412.0002 476.0122 412 476 C411.9105 471.4355 404.0167 425.0411 404 425 C403.9948 424.9871 400.3349 434.6554 399 444 C397.9166 451.584 398.03 456.508 399 460 C399.2055 460.7396 403.0753 460.655 404 462 C407.0823 466.4834 409.9932 475.9898 410 476 C410.0019 476.0028 410.2719 473.4469 410 471 C408.7856 460.0704 409.3695 459.6626 407 449 C404.4331 437.4488 404.0759 436.3749 400 426 C398.9598 423.3523 396.0036 420.9674 396 421 C395.9531 421.4298 394 481 394 481 "/>
<path id="19" d="M441 479 C441 479 467.0004 475.0001 467 475 C466.9992 474.9999 416 475 416 475 C416 475 451.9711 473.8129 453 474 C453.0762 474.0139 449 481 449 481 "/>
<path id="20" d="M316 423 C316 423 387.8305 423.9737 388 424 C388.03 424.0047 380.9589 430.3247 374 432 C355.9959 436.3343 334.0011 436.9997 334 437 C333.9995 437.0002 352.3194 437.4693 354 438 C354.0479 438.0151 353.9618 442.2443 353 443 C349.5432 445.716 339.9898 448.9964 340 449 C340.0282 449.01 368.3237 448.6408 370 449 C370.0399 449.0086 369.5261 453.5913 368 455 C364.652 458.0905 356.9874 460.9942 357 461 C357.0369 461.017 381.0059 460.9925 381 461 C380.9871 461.0164 346 474.991 346 475 C346 475 381.0001 474.9999 381 475 C380.9998 475.0001 335.0004 479.9998 335 480 C334.9997 480.0002 372 481 372 481 "/>
<path id="21" d="M287 430 C287 430 316.0042 429.9941 316 430 C315.9914 430.012 276.9995 443.9964 277 444 C277.0004 444.0025 317.6881 443.896 318 444 C318.0583 444.0194 306.9996 453.9995 307 454 C307.0757 454.0841 323.6152 453.1941 327 454 C327.3707 454.0883 328.2211 458.3367 328 459 C327.9052 459.2843 324.9973 459.9989 325 460 C325.0087 460.0035 332.1156 460.3367 333 461 C333.379 461.2843 333.676 464.4791 333 466 C332.2189 467.7575 329 470 329 470 "/>
<path id="22" d="M321 472 C321 472 321.3428 478.425 322 479 C322.6457 479.5649 328.1625 479.7538 329 479 C330.3281 477.8047 331.7421 474.3841 332 470 C334.6186 425.4844 335 377.0001 335 377 C335 377 337 426 337 426 C337 426 338.1257 415.68 336 407 C332.3887 392.254 325 377 325 377 "/>
<path id="23" d="M339 420 C339 420 338.3586 437.3127 340 454 C341.3234 467.4542 344.9998 481.0013 345 481 C345.0005 480.9972 343.1433 449.7814 346 423 C346.8725 414.8205 349.3026 414.2165 353 406 C353.7156 404.4097 354.9143 403.0286 355 403 C355.0095 402.9968 356.166 404.6017 356 405 C354.6897 408.1447 350.8419 410.3697 350 415 C348.2542 424.6021 349.6313 435.1731 350 438 C350.0063 438.0481 352.5092 438.4908 353 438 C357.0896 433.9104 358.7188 427.6738 364 424 C367.4101 421.6278 376 422 376 422 "/>
<path id="24" d="M271 476 C271 476 271.0331 464.6174 269 454 C266.6074 441.5054 264.8236 436.3413 262 429 C261.7804 428.429 259.0021 427.9665 259 428 C258.9566 428.6949 258.4678 437.5983 261 445 C264.5458 455.3646 268.6088 455.8263 272 466 C274.1081 472.3242 272.999 481.0004 273 481 C273.0023 480.9991 276.1819 472.3857 277 464 C278.1291 452.427 274.9626 450.8661 277 440 C279.1806 428.3699 281.3457 424.9761 286 416 C286.908 414.2488 290.6168 413 291 413 C291.0766 413 292.3309 415.1241 292 416 C285.8423 432.2997 279.8216 437.9479 274 458 C271.5346 466.492 274 478 274 478 C274 478 274 399 274 399 "/>
<path id="25" d="M317 363 C317 363 319.5326 375.4907 318 386 C316.2453 398.0325 310 411 310 411 "/>
<path id="26" d="M304 356 C304 356 307.5842 360.258 308 364 C309.3786 376.4078 306.145 379.9427 308 392 C308.7899 397.1343 314 403 314 403 "/>
<path id="27" d="M244 369 C244 369 246.2445 388.2766 243 404 C240.1914 417.6108 231 432 231 432 "/>
<path id="28" d="M241 407 C241 407 242.0338 403.1169 241 401 C232.8576 384.3274 220 364 220 364 "/>
<path id="29" d="M245 393 C245 393 250.0119 389.3942 253 385 C258.1402 377.4409 262 368 262 368 "/>
<path id="30" d="M249 347 C249 347 249.9647 362.9964 249 372 C248.8718 373.1962 246 375 246 375 "/>
<path id="31" d="M175 388 C175 388 177.7474 388.3842 178 389 C182.9076 400.9624 185.9393 408.1068 191 427 C193.2613 435.4422 192.398 442.2909 193 445 C193.0145 445.0653 195 445 195 445 "/>
<path id="32" d="M176 388 C176 388 176.1808 366.1377 175 350 C174.9024 348.6664 173 347 173 347 "/>
<path id="33" d="M173 375 C173 375 173.2358 372.131 173 372 C171.5697 371.2054 167.5995 371.8855 164 370 C158.0122 366.8635 152 361 152 361 "/>
<path id="34" d="M158 476 C158 476 160.4282 461.8864 166 450 C175.0482 430.6971 188 412 188 412 "/>
<path id="35" d="M168 443 C168 443 173.2158 436.7131 174 431 C176.3932 413.5636 175 392 175 392 "/>
</g>
</g>
</svg>
