<?xml version="1.0" encoding="utf-8"?>
<!DOCTYPE svg PUBLIC "-//W3C//DTD SVG 1.1//EN" "http://www.w3.org/Graphics/SVG/1.1/DTD/svg11.dtd">
<svg viewBox="0 0 800 800" preserveAspectRatio="xMinYMin meet" xmlns="http://www.w3.org/2000/svg" version="1.1">
<g fill="none" stroke="black" stroke-linecap="round" stroke-linejoin="round" stroke-width="2.3762">
<g transform="translate(87.52,264.9076) scale(1.2625) translate(-94,-67.1333)">
<path id="0" d="M146 206.1333 C146 206.1333 125.1168 207.1117 114 213.1333 C105.8339 217.5567 101.8805 222.8201 98 232.1333 C93.3635 243.2608 93.4326 250.6368 94 261.1333 C94.1641 264.1689 96.6471 266.7118 100 269.1333 C104.4441 272.343 106.1416 273.5101 112 274.1333 C150.5818 278.2378 155.9116 279.1333 194 279.1333 C200.9674 279.1333 201.5498 275.6747 209 274.1333 C215.601 272.7676 220.2284 274.0572 223 273.1333 C223.4512 272.9829 223.7425 269.1514 224 269.1333 C243.9612 267.736 280.7553 268.2042 323 266.1333 C324.32 266.0686 324.6646 264.2817 326 264.1333 C332.2165 263.4426 334.3181 263.0197 341 264.1333 C345.3061 264.851 345.6853 267.7694 350 268.1333 C384.3116 271.0271 400.7457 269.2975 424 271.1333 C424.7007 271.1886 425.3416 274.0922 426 274.1333 C439.8442 274.9986 472 274.1333 472 274.1333 "/>
<path id="1" d="M148 206.1333 C148 206.1333 182.3145 206.6614 206 205.1333 C207.7106 205.023 208.2322 202.4125 210 202.1333 C215.9272 201.1975 223.2909 203.4627 225 202.1333 C226.5825 200.9025 227.7637 194.9863 228 188.1333 C228.7367 166.7701 224.5432 149.9068 227 144.1333 C227.673 142.5518 237.6103 141.4916 248 141.1333 C266.199 140.5058 269.0958 139.7646 285 142.1333 C289.6638 142.8279 291.2326 144.6014 295 148.1333 C298.4811 151.3968 300.5176 153.1132 301 157.1333 C303.0349 174.0907 299.028 194.5478 301 198.1333 C301.5339 199.104 313.1868 198.9733 323 197.1333 C327.8375 196.2263 328.4511 192.3333 333 192.1333 C369.0338 190.5494 373.7321 191.6419 414 193.1333 C427.4717 193.6323 428.8106 192.8828 441 196.1333 C449.9447 198.5186 451.0987 199.6463 459 205.1333 C468.4851 211.7202 469.061 212.6063 477 221.1333 C482.1812 226.6984 484.0078 228.1566 486 234.1333 C487.7432 239.3629 485.5198 244.5321 486 248.1333 C486.0434 248.4592 488 248.8994 488 249.1333 C488 254.5141 488.0457 262.2456 486 272.1333 C485.4035 275.0166 484.2526 276.2903 482 278.1333 C479.6095 280.0892 478.3624 280.3574 475 281.1333 C472.3773 281.7386 469.1146 281.2479 469 281.1333 C468.9618 281.0951 470.1699 277.7974 471 277.1333 C471.4789 276.7502 474 277.1333 474 277.1333 C474 277.1012 471 274.1333 471 274.1333 "/>
<path id="2" d="M489 245.1333 C489 245.1333 492.1837 243.1333 495 243.1333 C523.6327 243.1333 556 245.1333 556 245.1333 "/>
<path id="3" d="M557 245.1333 C557 245.1333 553.3538 242.0666 552 239.1333 C550.7841 236.4988 550.2386 233.9099 551 232.1333 C552.1586 229.4299 554.9876 226.8905 558 225.1333 C559.359 224.3406 562.7031 224.688 563 225.1333 C564.247 227.0038 566 232.0347 566 237.1333 C566 240.9573 563.9806 244.3682 563 246.1333 C562.8979 246.3172 561 246.1333 561 246.1333 "/>
<path id="4" d="M558 246.1333 C558 246.1333 554.218 249.4538 553 252.1333 C552.2639 253.7528 552.7079 254.7965 553 257.1333 C553.1826 258.5939 553.4489 259.8184 554 260.1333 C555.3343 260.8958 558.7341 261.7663 560 261.1333 C562.1866 260.0401 566 255.5463 566 254.1333 C566 252.3167 560 245.1333 560 245.1333 "/>
<path id="5" d="M564 246.1333 C564 246.1333 562.7419 243.9936 563 243.1333 C563.7838 240.5208 564.6925 238.4409 567 236.1333 C568.888 234.2454 570.1531 233.9098 573 233.1333 C575.0877 232.5639 576.7632 232.283 578 233.1333 C582.5916 236.2901 587.1787 240.6931 589 244.1333 C589.5349 245.1438 587.7044 249.9643 587 250.1333 C582.2905 251.2636 564 250.1333 564 250.1333 "/>
<path id="6" d="M253 140.1333 C253 140.1333 250.1027 138.3447 250 137.1333 C248.228 116.2238 250.3203 108.2037 248 81.1333 C247.4075 74.2212 245.6755 68.0046 244 67.1333 C240.9579 65.5514 230.628 66.373 223 68.1333 C220.789 68.6436 218 73.1333 218 73.1333 "/>
</g>
</g>
</svg>
