<?xml version="1.0" encoding="utf-8"?>
<!DOCTYPE svg PUBLIC "-//W3C//DTD SVG 1.1//EN" "http://www.w3.org/Graphics/SVG/1.1/DTD/svg11.dtd">
<svg viewBox="0 0 800 800" preserveAspectRatio="xMinYMin meet" xmlns="http://www.w3.org/2000/svg" version="1.1">
<g fill="none" stroke="black" stroke-linecap="round" stroke-linejoin="round" stroke-width="2.2657">
<g transform="translate(87.52,206.0241) scale(1.3241) translate(-77,-12.1333)">
<path id="0" d="M95 239.1333 C95 239.1333 90.1801 240.6347 87 243.1333 C83.7179 245.7121 83.3156 246.4283 81 250.1333 C78.5228 254.0968 77.8215 254.8205 77 259.1333 C75.9902 264.435 76.2303 265.4887 77 271.1333 C77.6677 276.0296 77.3872 277.6892 80 281.1333 C87.1117 290.5079 90.4538 296.9083 99 300.1333 C110.2265 304.3698 116.22 299.7113 133 301.1333 C145.4744 302.1905 145.6131 304.8074 158 305.1333 C220.6616 306.7823 223.7138 310.0232 285 305.1333 C315.0142 302.7386 316.2649 299.1158 346 290.1333 C363.8004 284.7561 364.1736 284.2349 381 276.1333 C404.3957 264.8687 404.5678 264.2188 427 251.1333 C434.3437 246.8495 434.6689 246.761 441 241.1333 C461.4072 222.9936 463.0773 223.0112 481 203.1333 C489.8384 193.3308 496 180.1333 496 180.1333 "/>
<path id="1" d="M79 256.1333 C79 256.1333 79.5762 246.8997 83 241.1333 C88.1049 232.5357 89.3913 230.1594 98 224.1333 C127.5383 203.4565 129.3634 198.6965 163 185.1333 C219.4666 162.3646 223.2916 165.9396 284 149.1333 C311.6266 141.4853 311.8646 141.6718 340 136.1333 C375.2478 129.1948 375.761 127.8104 411 124.1333 C432.4598 121.8941 433.4808 123.0391 455 124.1333 C462.4107 124.5101 463.6455 124.3797 470 127.1333 C477.537 130.3994 477.5485 133.5566 485 137.1333 C489.1247 139.1132 491.2332 137.3755 495 139.1333 C497.5265 140.3124 500 144.1333 500 144.1333 "/>
<path id="2" d="M499 147.1333 C499 147.1333 499.7519 162.8556 499 174.1333 C498.9127 175.4421 497 177.1333 497 177.1333 "/>
<path id="3" d="M486 136.1333 C486 136.1333 494.0485 130.1494 502 127.1333 C507.6352 124.9958 514.9293 124.9262 515 125.1333 C516.2568 128.8139 517.6608 151.1933 516 168.1333 C515.6675 171.5244 513.4687 173.0297 510 176.1333 C504.45 181.0991 497 185.1333 497 185.1333 "/>
<path id="4" d="M498 127.1333 C498 127.1333 502.8905 119.1026 505 111.1333 C507.1895 102.8621 507 93.1333 507 93.1333 "/>
<path id="5" d="M515 93.1333 C515 93.1333 512.508 95.7205 512 98.1333 C510.7182 104.2219 512.8212 106.0627 511 112.1333 C508.6566 119.9446 503 128.1333 503 128.1333 "/>
<path id="6" d="M512 173.1333 C512 173.1333 526.5834 182.7688 535 190.1333 C536 191.0083 536 194.1333 536 194.1333 "/>
<path id="7" d="M518 160.1333 C518 160.1333 523.4073 161.3519 527 164.1333 C538.1324 172.752 544.4179 177.7183 549 184.1333 C549.8431 185.3137 547 192.1333 547 192.1333 "/>
<path id="8" d="M514 98.1333 C514 98.1333 515.2526 85.8912 515 85.1333 C514.9867 85.0934 510 86.1333 510 86.1333 "/>
<path id="9" d="M225 248.1333 C225 248.1333 223.4602 256.8151 224 261.1333 C224.1415 262.2653 225.7531 263.9133 227 264.1333 C231.9459 265.0061 237.5504 264.9957 241 264.1333 C241.7392 263.9485 242.7653 262.0106 243 260.1333 C243.6626 254.8329 244.0606 252.641 243 248.1333 C242.4749 245.9016 240.9785 244.4524 239 243.1333 C237.4711 242.1141 235.6913 241.6501 234 242.1333 C230.2586 243.2023 225 247.1333 225 247.1333 "/>
<path id="10" d="M305 228.1333 C305 228.1333 305.3527 236.8421 306 237.1333 C308.4354 238.2292 317.8599 238.5613 325 237.1333 C327.6306 236.6072 330.4639 234.0631 331 232.1333 C332.023 228.4506 331.0171 220.0778 330 219.1333 C328.9884 218.194 322.8534 218.2553 317 219.1333 C313.6456 219.6365 310 222.1333 310 222.1333 "/>
<path id="11" d="M394 198.1333 C394 198.1333 396.9604 204.5126 399 205.1333 C404.1488 206.7004 410.2578 206.538 417 205.1333 C419.6376 204.5838 422.3607 202.0512 423 200.1333 C423.8828 197.4849 423.1481 191.5111 422 190.1333 C420.9932 188.9252 415.6272 187.4035 413 188.1333 C409.595 189.0792 404 195.1333 404 195.1333 "/>
<path id="12" d="M251 105.1333 L251 157.1333 "/>
<path id="13" d="M316 95.1333 L321 139.1333 "/>
<path id="14" d="M250 102.1333 C250 102.1333 275.9218 106.7349 295 104.1333 C304.5973 102.8246 316 93.1333 316 93.1333 "/>
<path id="15" d="M286 123.1333 L339 123.1333 "/>
<path id="16" d="M300 113.1333 C300 113.1333 351.5992 113.0588 352 113.1333 C352.0579 113.1441 343 121.1333 343 121.1333 "/>
<path id="17" d="M246 124.1333 L216 127.1333 "/>
<path id="18" d="M250 113.1333 C250 113.1333 232.7918 109.8273 223 110.1333 C221.1349 110.1916 219.5142 111.862 218 114.1333 C215.0404 118.5727 213 125.1333 213 125.1333 "/>
<path id="19" d="M248 98.1333 C248 98.1333 275.0458 89.2511 301 84.1333 C309.3783 82.4813 317.2 83.2333 319 84.1333 C319.45 84.3583 319 93.1333 319 93.1333 "/>
<path id="20" d="M282 97.1333 C282 97.1333 283.0974 88.3639 282 80.1333 C278.1698 51.4071 272 22.1333 272 22.1333 "/>
<path id="21" d="M277 19.1333 C277 19.1333 274.8899 28.9185 276 37.1333 C277.231 46.2429 280.6034 46.6672 282 56.1333 C284.981 76.3376 285 98.1333 285 98.1333 "/>
<path id="22" d="M269 24.1333 C269 24.1333 260.4135 27.3814 260 27.1333 C259.6324 26.9128 258.2315 20.1315 259 18.1333 C259.5627 16.6704 261.9986 15.0811 265 14.1333 C270.6331 12.3545 277.0424 11.765 278 12.1333 C278.2108 12.2144 278 19.1333 278 19.1333 "/>
<path id="23" d="M84 239.1333 L116 240.1333 "/>
<path id="24" d="M99 239.1333 C99 239.1333 111.1713 239.1645 122 241.1333 C126.972 242.0373 127.3105 244.6644 132 245.1333 C140.9733 246.0307 152 244.1333 152 244.1333 "/>
<path id="25" d="M190 235.1333 L191 235.1333 "/>
<path id="26" d="M155 243.1333 C155 243.1333 167.4241 242.8291 179 240.1333 C203.4937 234.4293 203.4945 232.0008 228 226.1333 C238.6342 223.5871 239.4886 225.9122 250 223.1333 C282.4141 214.5641 282.5481 212.019 315 203.1333 C324.1271 200.6342 324.7896 202.4895 334 200.1333 C367.4824 191.5681 369.0602 193.2655 401 181.1333 C432.5862 169.1355 433.2289 167.4036 463 151.1333 C475.6424 144.2241 487 134.1333 487 134.1333 "/>
<path id="27" d="M536 197.1333 L547 198.1333 "/>
<path id="28" d="M510 84.1333 C510 84.1333 507.3531 85.8387 507 87.1333 C506.2602 89.8458 507 95.1333 507 95.1333 "/>
<path id="29" d="M549 191.1333 C549 191.1333 545.9988 200.1345 544 202.1333 C543.2504 202.8829 538 202.1333 538 202.1333 "/>
</g>
</g>
</svg>
