<?xml version="1.0" encoding="utf-8"?>
<!DOCTYPE svg PUBLIC "-//W3C//DTD SVG 1.1//EN" "http://www.w3.org/Graphics/SVG/1.1/DTD/svg11.dtd">
<svg viewBox="0 0 800 800" preserveAspectRatio="xMinYMin meet" xmlns="http://www.w3.org/2000/svg" version="1.1">
<g fill="none" stroke="black" stroke-linecap="round" stroke-linejoin="round" stroke-width="1.5457">
<g transform="translate(87.52,258.3165) scale(1.9409) translate(-32,-147)">
<path id="0" d="M116 186 C116 186 127.4052 177.1741 139 173 C151.0639 168.657 152.6887 168.3598 166 168 C225.3439 166.3961 234.2171 163.2937 287 169 C299.4742 170.3486 301.3266 175.7623 314 184 C320.9488 188.5167 321.4882 191.4335 327 195 C328.0959 195.7091 330.4785 194.382 331 195 C338.9427 204.4136 348.5753 212.3769 354 227 C358.0151 237.8233 355.3941 243.408 354 257 C353.5627 261.2635 352.5629 262.2721 350 266 C347.4234 269.7477 346.8619 270.4254 343 273 C335.3866 278.0756 334.017 279.5949 326 282 C320.7096 283.5871 317.6609 280.3221 313 282 C307.5359 283.9671 306.936 288.2794 301 291 C296.2451 293.1793 294.9407 292.8416 289 293 C257.9492 293.828 253.3969 294.5655 226 293 C222.8565 292.8204 222.566 289.9725 219 289 C206.9399 285.7109 204.3902 288.8815 193 284 C160.7952 270.1979 128 250 128 250 "/>
<path id="1" d="M120 183 C120 183 113.4504 182.7748 111 184 C109.5813 184.7093 109.9539 187.3156 108 189 C96.4424 198.9634 94.0699 203.7194 82 209 C74.2066 212.4096 60 210 60 210 "/>
<path id="2" d="M133 253 C133 253 130.935 248.673 129 248 C122.2423 245.6495 119.1952 247.3645 110 245 C84.4874 238.4396 65.0324 237.1925 59 230 C54.005 224.0444 60.5693 187.8303 58 183 C57.3099 181.7027 42.6912 182.3314 34 183 C33.22 183.06 32.0182 184.2541 32 185 C31.2896 214.1248 30.6233 242.146 32 265 C32.0568 265.9431 34.5775 267.4617 37 268 C42.6524 269.2561 45.5171 270.2226 50 269 C53.8425 267.9521 58.4044 264.7795 59 262 C61.3348 251.1043 59 227 59 227 "/>
<path id="3" d="M32 219 C32 219 44.6338 219.6089 53 218 C55.2776 217.562 56.9434 215.6906 58 214 C58.5932 213.0509 58 210 58 210 "/>
<path id="4" d="M58 232 L32 231 "/>
<path id="5" d="M196 169 C196 169 195.8283 148.8928 197 147 C197.333 146.462 208.4321 147.1008 209 148 C210.1916 149.8867 209 166 209 166 "/>
<path id="6" d="M328 197 C328 197 326.1275 210.8366 327 212 C327.6582 212.8776 336.95 213.2179 340 213 C340.2696 212.9807 341 211 341 211 "/>
</g>
</g>
</svg>
