<?xml version="1.0" encoding="utf-8"?>
<!DOCTYPE svg PUBLIC "-//W3C//DTD SVG 1.1//EN" "http://www.w3.org/Graphics/SVG/1.1/DTD/svg11.dtd">
<svg viewBox="0 0 800 800" preserveAspectRatio="xMinYMin meet" xmlns="http://www.w3.org/2000/svg" version="1.1">
<g fill="none" stroke="black" stroke-linecap="round" stroke-linejoin="round" stroke-width="1.9537">
<g transform="translate(87.52,264.1057) scale(1.5355) translate(-56,-233.7333)">
<path id="0" d="M75 366.7333 C75 366.7333 73.617 349.1376 74 344.7333 C74.022 344.4799 76.445 344.5103 77 343.7333 C80.1784 339.2836 80.5086 334.0065 84 330.7333 C85.9788 328.8782 89.9088 330.3978 93 328.7333 C95.0529 327.6279 94.8732 324.5067 97 323.7333 C117.637 316.229 122.805 314.9352 148 308.7333 C154.5628 307.1179 160.0505 308.1511 162 307.7333 C162.0588 307.7207 161.7908 305.8529 162 305.7333 C165.191 303.9099 169.0659 300.6511 176 299.7333 C233.9268 292.0666 237.1613 291.6796 298 287.7333 C329.2176 285.7084 330.9454 284.6975 361 287.7333 C378.656 289.5168 379.7809 291.447 397 297.7333 C410.7863 302.7664 411.0936 303.5298 424 310.7333 C432.3414 315.389 432.3492 315.8677 440 321.7333 C447.2646 327.3029 448.7605 327.127 454 333.7333 C459.4741 340.6355 463 350.7333 463 350.7333 "/>
<path id="1" d="M75 370.7333 C75 370.7333 88.2612 375.534 92 377.7333 C92.3124 377.9171 91.8668 380.6976 92 380.7333 C99.1427 382.6497 115.3294 383.8457 133 388.7333 C136.0191 389.5684 135.9676 392.4067 139 393.7333 C143.0278 395.4955 143.9872 395.2218 149 395.7333 C168.3095 397.7037 172.9936 396.9033 188 398.7333 C188.8554 398.8377 189.2596 400.7211 190 400.7333 C233.3371 401.4497 250.6791 402.039 309 400.7333 C316.3843 400.568 316.5546 398.1915 324 397.7333 C348.5465 396.2228 349.7962 399.6671 374 396.7333 C398.3063 393.7871 399.6193 393.1602 423 385.7333 C441.298 379.921 450.5222 374.4432 459 369.7333 C459.4197 369.5002 458.6178 366.3703 459 365.7333 C459.2675 365.2875 461.9271 365.0735 462 364.7333 C462.5768 362.0417 462 351.7333 462 351.7333 "/>
<path id="2" d="M436 360.7333 C436 360.7333 436.2811 365.0144 437 365.7333 C437.7189 366.4523 441.5062 366.9803 442 366.7333 C442.3292 366.5687 443.271 364.2238 443 362.7333 C442.4645 359.7878 440.008 355.7317 440 355.7333 C439.982 355.7369 437.9316 363.1861 438 363.7333 C438.0033 363.7598 440.9538 363.8566 441 363.7333 C441.3288 362.8566 441.6074 356.8266 441 355.7333 C440.7132 355.2171 436.1096 354.5689 436 354.7333 C435.4988 355.4851 434.6645 363.8945 435 364.7333 C435.0699 364.9081 439.8526 364.9987 440 364.7333 C440.4776 363.8737 440.2582 356.2497 440 355.7333 C439.9713 355.676 436.1753 356.2368 436 356.7333 C434.786 360.1729 433.9998 372.733 434 372.7333 C434.0001 372.7335 436.5139 366.0494 438 359.7333 C438.4264 357.9211 438.3822 356.3703 438 355.7333 C437.7325 355.2875 435.0048 354.7119 435 354.7333 C434.7258 355.9672 433.7453 372.8674 434 373.7333 C434.0032 373.7442 439.0323 372.8393 440 371.7333 C440.9177 370.6846 441 365.7333 441 365.7333 "/>
<path id="3" d="M349 285.7333 C349 285.7333 341.1882 284.7249 337 281.7333 C332.2479 278.339 331.9994 276.4467 328 270.7333 C325.1103 266.6052 324.5882 266.271 323 261.7333 C321.2715 256.7947 322.4517 253.8787 321 250.7333 C320.5317 249.7187 317.9628 249.9712 317 248.7333 C315.2419 246.4729 315.8884 242.9351 314 241.7333 C308.0584 237.9523 304.3366 236.3932 295 234.7333 C282.927 232.587 275.7332 231.555 269 233.7333 C265.8841 234.7414 263.0089 240.2087 261 245.7333 C259.6525 249.4389 261.8645 251.1945 261 255.7333 C259.9831 261.0719 259.7673 263.373 257 266.7333 C254.244 270.0799 251.7214 272.0694 247 272.7333 C223.3043 276.0655 206.8838 272.8608 193 275.7333 C191.51 276.0416 190.0098 280.2902 189 284.7333 C187.652 290.6643 188.9162 295.168 188 297.7333 C187.8334 298.1998 184 298.7333 184 298.7333 "/>
<path id="4" d="M273 235.7333 C273 235.7333 309.9968 239.7337 310 239.7333 C310.0014 239.7332 301.1091 234.8003 293 233.7333 C283.4874 232.4817 272 234.7333 272 234.7333 C272 234.7333 297.6154 234.8646 305 235.7333 C305.3017 235.7688 305.271 238.223 306 238.7333 C308.775 240.6758 313.327 240.6041 315 242.7333 C316.7485 244.9588 315.8782 249.6485 317 252.7333 C317.1806 253.2301 318.9941 253.7422 319 253.7333 C319.0705 253.6276 319.6683 250.9744 319 249.7333 C316.8667 245.7715 315.8766 243.7485 312 240.7333 C307.8772 237.5267 301.0004 235.7308 301 235.7333 C300.9987 235.7409 307.6764 241.0357 311 246.7333 C314.0275 251.9233 312.3385 254.4104 315 259.7333 C316.3307 262.3948 318.3595 261.9571 320 264.7333 C324.4809 272.3165 325.4297 277.7611 328 281.7333 C328.225 282.081 331.0137 281.7692 331 281.7333 C330.6991 280.9434 320.0041 260.7395 320 260.7333 C319.999 260.7319 319.9681 264.0799 321 266.7333 C323.315 272.6863 327 278.7342 327 278.7333 C327 278.7316 321 254.7333 321 254.7333 C321 254.7333 328 277.7333 328 277.7333 C328 277.7333 324.2687 264.9294 319 253.7333 C316.5193 248.4619 312 243.7333 312 243.7333 C312 243.7333 317.9099 250.4142 322 257.7333 C327.2263 267.0856 331 277.7332 331 277.7333 C331 277.7334 325.3747 270.3263 322 262.7333 C319.6318 257.4049 320.0421 252.8176 319 250.7333 C318.8842 250.5018 315.9871 250.6932 316 250.7333 C316.4261 252.0591 321.518 268.0381 328 278.7333 C329.8098 281.7196 335.9918 283.7129 336 283.7333 C336.0024 283.7393 331.0547 284.6474 330 283.7333 C326.4376 280.6459 324.2868 277.5124 321 270.7333 C316.5717 261.5999 314 250.7333 314 250.7333 "/>
<path id="5" d="M73 355.7333 C73 355.7333 71 359.9143 71 363.7333 C71 379.9641 73.5373 394.0794 73 397.7333 C72.9836 397.8449 66.6596 398.1103 66 397.7333 C65.7846 397.6103 65.8244 395.7083 66 393.7333 C67.815 373.3145 67.7855 373.1064 70 352.7333 C70.273 350.2214 70.1754 349.6575 71 347.7333 C71.434 346.7206 72.8831 345.7333 73 345.7333 C73.0584 345.7333 74 347.7333 74 347.7333 "/>
<path id="6" d="M66 394.7333 C66 394.7333 57.1778 394.44 56 393.7333 C55.6667 393.5333 55.8832 388.7546 56 388.7333 C60.2619 387.9584 85.1913 387.2717 89 387.7333 C89.0702 387.7418 89.1692 392.6836 89 392.7333 C87.0442 393.3086 72 392.7333 72 392.7333 "/>
<path id="7" d="M72 395.7333 C72 395.7333 71.0689 408.7291 70 410.7333 C69.7871 411.1325 64.0206 410.8294 64 410.7333 C63.7863 409.7359 67 396.7333 67 396.7333 "/>
<path id="8" d="M124 347.7333 C124 347.7333 116.7203 348.5292 115 349.7333 C114.2557 350.2544 113.8537 354.6546 114 354.7333 C115.3034 355.4352 124.46 356.9546 128 356.7333 C128.5581 356.6985 129.1613 354.0928 130 353.7333 C131.2763 353.1864 134.813 353.8736 135 353.7333 C135.0468 353.6983 134.4583 350.9 134 350.7333 C131.7283 349.9073 124 349.7333 124 349.7333 "/>
<path id="9" d="M181 347.7333 C181 347.7333 170.4269 346.7626 168 347.7333 C167.1786 348.0619 165.9893 353.7301 166 353.7333 C167.1796 354.0872 185.2725 353.9813 188 353.7333 C188.0225 353.7313 188.1233 351.7827 188 351.7333 C186.335 351.0673 178 349.7333 178 349.7333 "/>
<path id="10" d="M242 349.7333 C242 349.7333 224.0913 351.1445 221 351.7333 C220.9449 351.7438 220.8767 353.684 221 353.7333 C222.665 354.3994 226.0483 355.2121 231 355.7333 C235.3647 356.1928 239.0606 356.1509 240 355.7333 C240.1856 355.6509 240 351.7333 240 351.7333 "/>
<path id="11" d="M297 344.7333 C297 344.7333 288.5667 343.8778 283 345.7333 C278.2101 347.33 272.9828 352.728 273 352.7333 C273.056 352.7508 297.1794 351.0974 299 350.7333 C299.0276 350.7278 298.6659 348.209 298 347.7333 C296.4259 346.609 292 345.7333 292 345.7333 "/>
<path id="12" d="M350 348.7333 C350 348.7333 337.4601 346.8907 331 347.7333 C329.452 347.9353 328.1209 350.0521 327 351.7333 C326.6637 352.2377 327 353.7333 327 353.7333 C329.2746 353.7333 349 351.7333 349 351.7333 "/>
<path id="13" d="M393 344.7333 C393 344.7333 384.7401 344.4578 379 345.7333 C377.1165 346.1519 375.1901 348.068 375 348.7333 C374.8427 349.284 376.2572 352.5848 377 352.7333 C383.1545 353.9642 390.4052 354.4187 400 353.7333 C402.182 353.5775 405.0138 350.77 405 350.7333 C404.9022 350.4724 397 345.7333 397 345.7333 "/>
</g>
</g>
</svg>
