<?xml version="1.0" encoding="utf-8"?>
<!DOCTYPE svg PUBLIC "-//W3C//DTD SVG 1.1//EN" "http://www.w3.org/Graphics/SVG/1.1/DTD/svg11.dtd">
<svg viewBox="0 0 800 800" preserveAspectRatio="xMinYMin meet" xmlns="http://www.w3.org/2000/svg" version="1.1">
<g fill="none" stroke="black" stroke-linecap="round" stroke-linejoin="round" stroke-width="2.8754">
<g transform="translate(87.52,276.886) scale(1.0433) translate(-34,-100.1333)">
<path id="0" d="M233 200.1333 C233 200.1333 233.2957 194.349 235 192.1333 C236.993 189.5425 239.4751 187.2999 243 187.1333 C293.9496 184.7263 329.9802 190.1673 362 186.1333 C364.6583 185.7984 366.6644 172.3745 370 171.1333 C378.6873 167.9009 401.1558 169.1448 405 170.1333 C405.2845 170.2065 404.8249 180.109 405 180.1333 C414.9515 181.519 454.2377 176.173 484 181.1333 C491.3309 182.3552 494.4655 188.6186 501 196.1333 C503.3276 198.8101 503.0747 204.0296 504 204.1333 C528.7995 206.9146 569.3839 203.0964 608 208.1333 C612.5941 208.7326 614.8532 213.0859 619 219.1333 C626.3608 229.8678 628.8988 231.6146 632 243.1333 C635.1879 254.9743 634.7756 258.4503 633 271.1333 C631.5265 281.6585 629.9556 283.5319 625 293.1333 C622.51 297.9577 621.3448 298.754 617 302.1333 C612.977 305.2623 607 307.1333 607 307.1333 "/>
<path id="1" d="M609 309.1333 C609 309.1333 550.5765 308.9964 493 314.1333 C416.5114 320.9576 416.3149 328.936 340 333.1333 C217.5528 339.8679 201.5781 342.9431 93 336.1333 C74.8237 334.9934 72.0817 326.0951 53 315.1333 C49.1712 312.9338 48.6219 312.5043 46 309.1333 C42.0036 303.9951 41.5553 303.3087 39 297.1333 C35.7289 289.2283 35.096 288.463 34 280.1333 C32.6966 270.2272 31.1805 266.3582 34 259.1333 C37.5235 250.1043 40.9353 247.0157 50 239.1333 C62.8653 227.9461 64.5039 226.3199 80 219.1333 C97.5832 210.9788 100.0138 208.6624 119 207.1333 C171.2558 202.9248 175.067 207.6023 229 207.1333 C231.4558 207.112 233.1224 206.8647 234 206.1333 C234.6519 205.59 235 202.1333 235 202.1333 "/>
<path id="2" d="M386 169.1333 L386 104.1333 "/>
<path id="3" d="M386 104.1333 C386 104.1333 382.2501 100.6533 379 100.1333 C371.3428 98.9082 369.959 99.8347 361 100.1333 C355.0108 100.333 351.3578 100.2265 349 101.1333 C348.5167 101.3192 348.164 103.1658 348 105.1333 C347.6788 108.988 347.5875 112.9477 348 113.1333 C350.3434 114.1879 360.8349 112.2043 368 114.1333 C370.692 114.8581 373.6798 117.6635 374 120.1333 C376.2735 137.6718 375 168.1333 375 168.1333 "/>
<path id="4" d="M436 222.1333 C436 222.1333 436.0587 219.1923 437 218.1333 C439.1607 215.7026 440.4449 214.6887 444 213.1333 C447.8211 211.4616 450.175 210.7298 453 211.1333 C454.8061 211.3913 457.2589 213.2805 458 215.1333 C459.4081 218.6536 459.9746 222.8198 459 226.1333 C458.2932 228.5365 455.6228 230.8219 453 232.1333 C451.2515 233.0076 448.7829 233.0842 447 232.1333 C443.0577 230.0308 440.9145 227.9221 438 224.1333 C436.8733 222.6686 437 219.1333 437 219.1333 "/>
<path id="5" d="M304 216.1333 C304 216.1333 308.2565 212.4991 311 212.1333 C313.8163 211.7578 318.4498 213.0941 319 214.1333 C320.3702 216.7215 320.3011 224.0138 320 229.1333 C319.9573 229.8589 318.7964 231.0495 318 231.1333 C311.8752 231.7781 302.4979 232.1025 301 231.1333 C300.3729 230.7275 299.7375 223.0189 301 220.1333 C301.9253 218.0183 308 215.1333 308 215.1333 "/>
</g>
</g>
</svg>
