<?xml version="1.0" encoding="utf-8"?>
<!DOCTYPE svg PUBLIC "-//W3C//DTD SVG 1.1//EN" "http://www.w3.org/Graphics/SVG/1.1/DTD/svg11.dtd">
<svg viewBox="0 0 800 800" preserveAspectRatio="xMinYMin meet" xmlns="http://www.w3.org/2000/svg" version="1.1">
<g fill="none" stroke="black" stroke-linecap="round" stroke-linejoin="round" stroke-width="1.5553">
<g transform="translate(87.52,228.3289) scale(1.9289) translate(-57,-64)">
<path id="0" d="M70,163C70,163 94.36611343280322,169.6833244102065 114,170C121.9684146579848,170.12852281706426 123.37424946225074,165.07821881721867 132,164C142.06337562737414,162.74207804657823 145.90887841897674,166.15587451157475 154,165C156.4855079366542,164.64492743762082 157.37628206865543,160.50456114064318 160,160C167.53775317292363,158.55043208213007 170.63307607052897,158.50980755667507 180,160C191.76187607052896,161.87120755667507 192.11752208035725,165.09880353285715 204,167C216.3744276424305,168.97990842278887 217.77246583391047,166.347630518096 230,168C235.39933514883168,168.72963988497725 240.99552307175045,172.0134307847486 241,172C241.40740047070778,170.77779858787662 236.91821084703497,153.23051127366958 239,141C240.2019768044878,133.93838627363422 244.51998476133863,128.31131561118448 249,125C251.82008927373903,122.9155861889755 255.80649445529468,123.55760674680677 262,124C269.28848995039914,124.5206064250285 271.54252942678994,127.47456265854001 277,127C280.12315425133556,126.72842136944908 281.3057837037919,122.7388432592416 285,122C291.9779641150597,120.60440717698806 301.4834945332212,121.08851976450799 302,122C303.6084945332212,124.83851976450799 303.11255277231396,138.27851580812768 302,152C301.73138365497283,155.3129349220016 299.12910313591015,155.90152473815692 299,159C298.6934744258508,166.35661377958067 300.15797470749856,175.59582785959932 301,176C302.7072560064497,176.81948288309587 312.6320796942047,172.38633174460918 324,171C332.6668648612365,169.94306526082482 334.35899001429396,169.58499815079517 342,171C346.2135610620766,171.78028908556973 346.7654158816899,174.82372663380275 351,176C354.6684632468783,177.0190175685773 356.17434006246657,175.09984472058036 360,176C363.80065562421623,176.8942719115803 365.5520292854989,177.30723221404884 368,180C374.2778603807366,186.90564641881028 376.4012540469875,189.41837503512403 380,198C382.0967483423714,202.99993835488573 381.5372550380404,205.09019458155544 381,211C380.6140844092949,215.24507149775596 380.3212378447244,217.6787621552756 378,220C373.3575243105512,224.64247568944884 369.9640920055635,226.49292687799715 363,229C359.18196710221303,230.37449184320332 356.6278667451306,227.52198021494678 353,229C345.20680476971944,232.1750054641884 343.845340716397,238.20210941915903 336,240C323.5412305378882,242.8551346684006 313.0843259668168,239.49472962707395 305,240C304.70661720281714,240.01833642482393 304.284512811493,241.98735498615588 304,242C292.5033598621185,242.51096178390585 281.837067931476,242.90987783047817 260,242C246.04164691880086,241.41840195495004 245.89844503271124,239.10943657506073 232,239C182.9083021898812,238.61345119834553 182.01299798385264,242.69010337875355 133,241C95.70638738279876,239.71401335802756 70.95039950150271,236.23759987537568 58,233C57.369298725576165,232.84232468139405 56.36018954482468,226.9052134896775 57,222C57.73706164436197,216.34919405989154 57.90986637278472,213.94850407921953 61,210C65.48424563719459,204.2701305746958 70.48913979088938,204.57223908184252 75,199C77.5103081334283,195.89903112929446 75.76947327109482,192.04162735759797 78,189C79.98675331591008,186.2907909328499 85.8098896854017,184.88718146812542 86,184C86.22449196723842,182.95237081955403 83.58238255858798,177.029014867462 81,175C78.73850521496437,173.22311124032916 73.10948547134376,174.22043401847813 72,173C70.92023288949581,171.81225617844538 71,164 71,164"/>
<path id="1" d="M127,192C127,192 118,191.5 117,192C116.75,192.125 116.46234138661023,196.52208123254243 117,197C118.41135386014812,198.2545367645761 123.64376941012509,200 126,200C126.78541019662496,200 128.9098571134583,197.90142886541724 129,197C129.1857489783284,195.14251021671595 127,190 127,190"/>
<path id="2" d="M170,197C170,197 158.83043810376142,194.65398412343273 158,195C157.78309452513693,195.09037728119293 157.6957548917973,201.83404812279852 158,202C158.83305208198362,202.45439204471833 167.76875761436597,201.78351788176712 169,201C169.40400140778615,200.74290819504517 169,195 169,195"/>
<path id="3" d="M209,200C209,200 207.81576878629818,197.27192292876606 207,197C205.09653949863758,196.36551316621254 200.47621557068726,196.46425748297685 200,197C199.24315739658633,197.85144792884037 198.28958468684144,204.78214517744243 199,206C199.64711097832267,207.10933310569598 205.9803216892658,209.2780940847457 207,209C207.6582733398411,208.82047090731606 209.14805865014455,205.8398044995182 210,203C210.4938790433945,201.35373652201844 210.38215930853684,199.63693218089475 210,199C209.7324884840242,198.5541474733737 207,198 207,198"/>
<path id="4" d="M352,180C352,180 350.6026658377758,185.3128900631509 348,189C344.9959279882388,193.2557686833283 344.0730627480081,195.18974988977416 340,197C332.6763198665623,200.25496894819452 322.32269657021936,201.34807804479456 321,201C320.8254505992379,200.95406594716786 320.58247422680415,192.93943298969071 321,192C321.0824742268041,191.81443298969071 323.8045908299546,192.68309095431167 325,192C329.3547048337369,189.51159723786463 329.7227469698674,186.9552616968743 335,184C341.6913235934555,180.25285878766493 350,178 350,178"/>
<path id="5" d="M251,140C251,140 253.6683844811332,132.40607992135892 254,125C255.1393969109783,99.5534689881514 255.20542082738945,79.2681883024251 254,73C253.95542082738945,72.7681883024251 245.4821399902165,73.67369999555295 244,73C243.51493600320188,72.77951636509176 242.7852463723407,69.93278264893371 243,68C243.1854690420694,66.33077862137543 244.2875058693747,64.14999876434217 245,64C249.2617704479995,63.10278516884221 261.9371916192513,63.65455390588201 262,64C263.5535837708729,72.54471073980079 259,141 259,141"/>
<path id="6" d="M338,194C338,194 327.4625,197.1125 326,197C325.8375,196.9875 324.858513054732,193.08706888939568 325,193C326.5935898045974,192.01932935101698 333.2869907728466,191.9807004663409 339,189C343.6784913400743,186.559047996483 347.9999308021914,181 348,181C348.0000538205178,181 344.91925970842874,186.38716019438084 341,189C333.902962149602,193.73135856693202 324.73738616816047,196.82649737219754 324,197C323.9632455492506,197.0086481060587 323.4211370891134,193.53433499466453 324,193C327.195805653853,190.05002555028955 332.34864052546464,188.6546395871349 337,185C337.8096810937154,184.36382199779504 338.00139320225003,182 338,182C337.9958203932499,182 335.0386038969321,184.98713203435597 335,185C334.99356601717795,185.00214466094067 334.87666432683295,183.04933426926684 335,183C336.6650315877553,182.33398736489786 344.41839365863336,180.70919682931668 345,181C345.2261802438648,181.1130901219324 345.8254950096473,185.31714121864638 345,188C344.1472908691556,190.77130467524438 343.34013464178497,191.65986535821503 341,194C338.191838429858,196.80816157014195 337.6026260184629,197.4831048343314 334,199C328.7522441811986,201.20958139739008 322.06403602480475,202.0457400177177 322,202C321.9953597083475,201.9966855059625 324.71474989177034,195.14262505411483 327,194C330.42787516234455,192.28606241882772 334.93912547502094,194.94649020191503 340,193C346.22429395600875,190.6060407861505 352.94970095904085,184.10059808191835 353,184C353.0097352982502,183.98052940349967 347.23278538177925,182.08061778397325 345,183C341.38254151324145,184.48954172984176 336,191 336,191"/>
<path id="7" d="M206,206C206,206 204.05,206.1 204,206C203.8,205.6 204.24,202.32 204,202C203.865,201.82 201.0539474386115,202.08092115791726 201,202C200.93706132161992,201.90559198242988 201.7186614199065,199.0562677160187 202,199C203.54736219051418,198.69052756189717 210.06097877510777,199.26965015841716 211,200C211.4481692209713,200.34857606075545 211.63394799568235,204.98568320690825 211,206C210.45850275368798,206.8663955940992 206.07409056533274,208.07409056533274 206,208C205.82712201422365,207.82712201422365 205.7688679245283,201.80896226415095 206,201C206.0188679245283,200.93396226415095 207.95,200.9 208,201C208.2,201.4 208.43311388300842,204.56688611699158 208,205C207.13377223398316,205.86622776601683 202,207 202,207"/>
<path id="8" d="M164,200C164,200 160.02725170219134,200.06812925547837 160,200C159.92846428174772,199.82116070436928 161.32288372193633,195.27084651122547 162,195C163.28652092832098,194.4853916286716 169.11558214080588,195.3366866056044 170,196C170.3790362253689,196.2842771690267 170.59881100596706,199.40317065075447 170,201C169.50598092007715,202.31738421312755 168.31738421312755,203.50598092007715 167,204C165.40317065075447,204.59881100596706 162.21114864864864,204.2956081081081 162,204C161.58614864864864,203.4206081081081 161.69452478956785,197.30547521043215 162,197C162.2181965788801,196.7818034211199 167.48558404349626,197.39984805074565 168,198C168.50245279472458,198.58619492717867 168.34615384615384,203.48076923076923 168,204C167.84615384615384,204.23076923076923 164.27783299213888,204.33339959056664 164,204C163.4304423661153,203.31653083933835 162.80798701058552,198.38402597882896 163,198C163.06982290524164,197.86035418951673 166.9144696556814,197.85744942613562 167,198C167.15680563125082,198.26134271875136 166.5453054271009,202.54557881074922 166,203C165.47228507054748,203.43976244121043 161.3448701297727,203.4023484847348 161,203C160.36773809541674,202.2623611113195 159.62500688625042,196.59998898199933 160,196C160.27940663377421,195.55294938596128 164.7984327528641,194.82834753612343 166,195C166.26375866400545,195.03767980914364 166.88267206828078,196.0613765462462 167,197C167.33127886603074,199.65023092824603 167.5075096280996,202.28948652066057 167,203C166.6133259976384,203.54134360330624 162.1376505005208,204.1835340006944 162,204C161.51196640724441,203.34928854299255 160.7875695999049,195.2124304000951 161,195C161.15932280007132,194.84067719992868 168.12690088332604,196.0177634937418 169,197C169.6707956628105,197.7546451206618 169.43235294117647,203.49558823529412 169,204C168.68235294117647,204.37058823529412 163.36456823710952,204.52659856471376 163,204C161.6767523245654,202.08864224659447 159.70190145363816,191.7750562205408 160,191C160.07742819386021,190.79868669596342 165.75084440445624,190.06285183519012 168,191C169.71029540077805,191.71262308365752 171.1781895844243,193.74002135716685 172,196C172.76393644264783,198.1008252172815 172.57896054230667,201.42103945769332 172,202C171.03506576282223,202.96493423717777 166.58548521083281,204.21545710090274 164,204C162.59723674731413,203.88310306227618 160.64,202.28 160,201C159.36,199.72 159.7043918918919,196.21114864864864 160,196C160.5793918918919,195.58614864864864 166.93529040265213,195.97411616106083 167,196C167.01109307383106,196.0044372295324 165.00329947837025,198.0049492175554 165,198C164.975253912223,197.9628808683345 165.07639320225002,193.15278640450003 165,193C165,193 163,194 163,194"/>
<path id="9" d="M126,196C126,196 120.32605962349237,193.8136802151472 120,194C119.70271034328635,194.16987980383635 118.91537158397351,199.94358105598235 119,200C119.1598536747167,200.1065691164778 125.08598590092677,198.91401409907323 126,198C126.50778561059624,197.49221438940376 126.25,193.125 126,193C125,192.5 116.60423667997565,192.5971755466829 116,193C115.81872899600731,193.12084733599514 116.39984805074564,198.48558404349626 117,199C117.58619492717866,199.50245279472458 122.625,199.375 123,199C123.375,198.625 123.62832815729997,194.25665631459995 123,193C122.58111456180002,192.16222912360004 119,191.04 119,191C119,190.96 123,189.00014176402567 123,189C123,188.99992911798716 119.1875,189.6875 119,190C118.8125,190.3125 120,194 120,194"/>
</g>
</g>
</svg>
