<?xml version="1.0" encoding="utf-8"?>
<!DOCTYPE svg PUBLIC "-//W3C//DTD SVG 1.1//EN" "http://www.w3.org/Graphics/SVG/1.1/DTD/svg11.dtd">
<svg viewBox="0 0 800 800" preserveAspectRatio="xMinYMin meet" xmlns="http://www.w3.org/2000/svg" version="1.1">
<g fill="none" stroke="black" stroke-linecap="round" stroke-linejoin="round" stroke-width="2.3089">
<g transform="translate(87.52,276.5672) scale(1.2993) translate(-140,-152.5833)">
<path id="0" d="M140 207.5833 C140 207.5833 149.6041 220.8482 155 234.5833 C160.2084 247.8412 159.6764 249.3096 162 263.5833 C163.0793 270.2136 162 277.5833 162 277.5833 "/>
<path id="1" d="M141 209.5833 C141 209.5833 157.0607 203.5985 161 204.5833 C163.311 205.1611 164.4218 211.5232 169 216.5833 C173.5102 221.5683 174.809 224.258 180 225.5833 C194.3522 229.2477 198.2949 228.2614 216 228.5833 C225.3124 228.7526 225.9762 228.8046 235 226.5833 C257.8906 220.9487 258.1173 218.1306 281 212.5833 C290.49 210.2827 291.058 210.7177 301 210.5833 C327.8004 210.2212 328.886 209.0356 355 211.5833 C368.8458 212.9341 369.103 216.6665 383 218.5833 C397.4595 220.5777 398.3596 218.2214 413 219.5833 C419.4603 220.1843 419.835 222.6861 426 222.5833 C448.4068 222.2099 449.5807 219.1996 473 218.5833 C506.2973 217.7071 509.8956 214.1591 540 219.5833 C561.2511 223.4124 565.5415 228.2891 584 238.5833 C588.5903 241.1433 588.9441 243.2865 592 248.5833 C596.1897 255.8456 597.5847 256.7993 599 264.5833 C601.3091 277.2837 601.0038 279.8684 600 292.5833 C599.6291 297.281 598.7997 298.6638 596 302.5833 C591.8938 308.332 591.0023 310.6368 585 313.5833 C566.0217 322.8999 563.1774 324.1477 541 329.5833 C513.1376 336.4123 511.8179 336.9418 483 338.5833 C433.7494 341.3887 432.7985 337.2465 383 338.5833 C358.5453 339.2398 358.457 341.8308 334 342.5833 C293.6723 343.8242 293.2442 343.9248 253 342.5833 C233.5569 341.9352 231.8207 342.4715 214 338.5833 C206.0688 336.8529 204.378 335.139 198 330.5833 C195.0628 328.4853 195.9525 326.2078 193 323.5833 C187.475 318.6722 184.9181 315.403 180 314.5833 C174.4601 313.66 168.8332 315.6668 163 318.5833 C160.3904 319.8881 159.641 325.0363 158 325.5833 C155.9114 326.2795 148.8763 324.3623 148 323.5833 C147.6776 323.2967 147.7927 319.998 149 317.5833 C153.365 308.8534 155.3201 308.5832 160 299.5833 C161.5863 296.5328 162 295.7317 162 292.5833 C162 287.6359 160 281.5833 160 281.5833 "/>
<path id="2" d="M387 296.5833 C387 296.5833 385.0764 302.2012 384 307.5833 C383.6288 309.4392 383.6178 310.9464 384 311.5833 C384.2675 312.0292 385.5273 312.4655 387 312.5833 C397.5576 313.4279 404.7548 316.1304 409 313.5833 C414.1974 310.4649 422.0382 291.7457 422 291.5833 C421.998 291.5748 413.2067 295.7827 405 296.5833 C393.783 297.6777 381 295.5833 381 295.5833 "/>
<path id="3" d="M326 209.5833 C326 209.5833 333.1491 207.7546 337 204.5833 C340.4163 201.7699 340.5917 196.1707 343 195.5833 C353.3572 193.0572 360.952 193.2719 378 194.5833 C399.2537 196.2182 399.6688 199.0525 421 201.5833 C428.7868 202.5072 433.1694 199.285 437 201.5833 C442.9374 205.1458 451 219.5833 451 219.5833 "/>
<path id="4" d="M163 247.5833 C163 247.5833 231.1565 242.4385 299 241.5833 C349.8355 240.9425 350.0395 243.9802 401 244.5833 C434.4565 244.9793 435.1279 242.8007 468 243.5833 C476.3787 243.7828 476.598 246.3801 485 246.5833 C537.6582 247.8573 592 246.5833 592 246.5833 "/>
<path id="5" d="M594 253.5833 C594 253.5833 605.1088 255.4955 613 258.5833 C615.0956 259.4033 616.1672 260.5013 617 262.5833 C619.6175 269.127 620.1171 270.9313 621 278.5833 C621.5302 283.1781 621.5107 284.6987 620 288.5833 C618.4974 292.4472 617.3035 293.0257 614 296.5833 C610.9573 299.86 610.3839 301.0042 607 302.5833 C604.0765 303.9476 599 303.5833 599 303.5833 "/>
<path id="6" d="M161 260.5833 C161 260.5833 152.5748 259.7256 148 260.5833 C146.7463 260.8184 145.1448 262.3767 145 263.5833 C144.052 271.4837 143.3113 277.4215 145 285.5833 C145.6326 288.6408 148.3621 291.8017 151 292.5833 C157.9578 294.6449 172 293.5833 172 293.5833 "/>
<path id="7" d="M381 194.5833 C381 194.5833 385.0993 181.9922 386 170.5833 C386.5111 164.1097 383.0494 158.2943 384 156.5833 C384.7867 155.1673 390.1828 153.0892 396 152.5833 C412.0177 151.1905 416.9164 150.9479 430 152.5833 C432.5494 152.902 435.4633 156.1073 436 157.5833 C436.3941 158.667 435.2982 162.7178 434 163.5833 C430.6102 165.8432 427.3514 166.8575 421 167.5833 C410.6167 168.77 402.8703 165.5765 399 167.5833 C396.8433 168.7016 395.1337 174.7814 394 181.5833 C392.7772 188.9202 394 197.5833 394 197.5833 "/>
<path id="8" d="M424 153.5833 C424 153.5833 419.1333 158.6215 417 162.5833 C416.3317 163.8244 416.4486 165.6184 417 166.5833 C417.7286 167.8584 421 169.5833 421 169.5833 "/>
<path id="9" d="M482 285.5833 C482 285.5833 478.1428 286.9508 477 288.5833 C475.5232 290.6931 474.8543 295.4862 475 295.5833 C475.8011 296.1174 488.1307 296.9177 489 296.5833 C489.0835 296.5512 488.9831 293.041 488 290.5833 C487.2013 288.5865 485.6898 286.9972 485 286.5833 C484.8212 286.476 483 287.5833 483 287.5833 "/>
<path id="10" d="M498 286.5833 C498 286.5833 493.2227 290.4699 493 291.5833 C492.8367 292.3998 494.8083 296.2109 496 296.5833 C499.3957 297.6445 508.1062 297.1047 509 296.5833 C509.212 296.4597 508.9706 290.6753 508 289.5833 C506.9883 288.4452 501 287.5833 501 287.5833 "/>
</g>
</g>
</svg>
