<?xml version="1.0" encoding="utf-8"?>
<!DOCTYPE svg PUBLIC "-//W3C//DTD SVG 1.1//EN" "http://www.w3.org/Graphics/SVG/1.1/DTD/svg11.dtd">
<svg viewBox="0 0 800 800" preserveAspectRatio="xMinYMin meet" xmlns="http://www.w3.org/2000/svg" version="1.1">
<g fill="none" stroke="black" stroke-linecap="round" stroke-linejoin="round" stroke-width="1.8529">
<g transform="translate(87.52,263.9983) scale(1.6191) translate(-57,-110.4167)">
<path id="0" d="M132 214.4167 C132 214.4167 275.3514 209.1936 405 213.4167 C421.3188 213.9482 427.1122 219.4634 439 224.4167 C440.1297 224.8874 440.9033 226.5801 441 228.4167 C441.8006 243.6272 443.6273 252.3851 441 262.4167 C440.1592 265.6271 434.6143 270.2738 430 270.4167 C301.9776 274.3802 118 272.4167 118 272.4167 "/>
<path id="1" d="M94 214.4167 L143 213.4167 "/>
<path id="2" d="M57 197.4167 C57 197.4167 72.9171 195.1501 84 196.4167 C87.5333 196.8205 90.9466 199.3099 92 201.4167 C93.2875 203.9917 92 212.4167 92 212.4167 "/>
<path id="3" d="M57 199.4167 C57 199.4167 56.9183 207.5343 59 210.4167 C61.4999 213.8781 68.8624 214.521 70 217.4167 C72.1101 222.7879 72.3517 231.5753 70 238.4167 C68.3447 243.2321 60.3062 244.6669 59 249.4167 C56.2991 259.238 57.7979 275.2476 59 278.4167 C59.1729 278.8726 68.9934 279.3458 70 278.4167 C71.1966 277.3121 70.1225 269.4207 72 266.4167 C73.2753 264.3762 76.2 263.2611 80 262.4167 C84.275 261.4667 88.8532 262.0726 90 262.4167 C90.1032 262.4476 89.8007 265.3411 90 265.4167 C95.6101 267.5446 119 273.4167 119 273.4167 "/>
<path id="4" d="M296 194.4167 C296 194.4167 299.2395 197.5269 300 200.4167 C301.4301 205.8511 301 213.4167 301 213.4167 "/>
<path id="5" d="M298 196.4167 C298 196.4167 308.4594 195.3263 318 196.4167 C325.3735 197.2594 325.635 199.7316 333 200.4167 C346.4152 201.6646 357.8277 199.397 361 200.4167 C361.3277 200.522 361 209.4167 361 209.4167 "/>
<path id="6" d="M304 122.4167 C304 122.4167 312.3772 120.7699 316 122.4167 C320.3913 124.4127 325.4816 128.3733 326 132.4167 C329.1244 156.7869 326 200.4167 326 200.4167 "/>
<path id="7" d="M303 120.4167 C303 120.4167 306.9646 114.302 310 113.4167 C315.7072 111.7521 325.7338 112.3739 327 113.4167 C327.8588 114.1239 326.755 125.7017 327 127.4167 C327.005 127.4517 329 127.4133 329 127.4167 C329.1215 136.1651 328 199.4167 328 199.4167 "/>
<path id="8" d="M329 200.4167 C329 200.4167 330.9984 200.4365 331 200.4167 C331.2484 197.3115 329.9637 185.4345 331 175.4167 C331.1787 173.6895 333.8756 173.1165 334 171.4167 C335.0906 156.5115 335.6077 152.1018 334 134.4167 C333.1981 125.5959 332.3616 123.751 329 116.4167 C327.5504 113.254 323 110.4167 323 110.4167 "/>
<path id="9" d="M397 237.4167 C397 237.4167 397.0407 250.9903 398 251.4167 C402.7668 253.5353 433 253.4167 433 253.4167 "/>
<path id="10" d="M401 237.4167 C401 237.4167 438.9492 236.3299 443 237.4167 C443.1882 237.4672 443.4081 244.8964 442 248.4167 C441.2589 250.2695 439.2565 251.7224 437 252.4167 C434.1028 253.3081 429 252.4167 429 252.4167 "/>
<path id="11" d="M136 233.4167 C136 233.4167 136.3006 250.2392 137 250.4167 C145.688 252.6211 203 250.4167 203 250.4167 "/>
<path id="12" d="M137 234.4167 C137 234.4167 141.9937 233.5732 146 234.4167 C150.8263 235.4327 151.251 238.1103 156 238.4167 C180.0734 239.9698 201.6503 237.4398 208 238.4167 C208.1503 238.4398 208.8166 242.9461 208 246.4167 C206.9853 250.7293 204 255.4167 204 255.4167 "/>
</g>
</g>
</svg>
