<?xml version="1.0" encoding="utf-8"?>
<!DOCTYPE svg PUBLIC "-//W3C//DTD SVG 1.1//EN" "http://www.w3.org/Graphics/SVG/1.1/DTD/svg11.dtd">
<svg viewBox="0 0 800 800" preserveAspectRatio="xMinYMin meet" xmlns="http://www.w3.org/2000/svg" version="1.1">
<g fill="none" stroke="black" stroke-linecap="round" stroke-linejoin="round" stroke-width="2.0017">
<g transform="translate(87.52,147.4682) scale(1.4987) translate(-34,-70.4167)">
<path id="0" d="M202 139.4167 C202 139.4167 226.773 127.0386 252 116.4167 C264.5913 111.1151 264.9874 110.0192 278 107.4167 C296.6296 103.6908 297.5509 104.3654 317 103.4167 C338.3372 102.3758 338.5701 103.034 360 103.4167 C366.4877 103.5325 367.2638 102.6784 373 104.4167 C382.8 107.3864 384.7233 107.412 393 113.4167 C409.009 125.0311 410.0837 127.1243 424 141.4167 C427.7891 145.3081 427.6009 146.2012 430 151.4167 C438.991 170.9623 440.7389 171.4407 447 191.4167 C450.9026 203.8679 450.4103 205.001 451 218.4167 C452.3888 250.0111 454.0531 251.3772 451 282.4167 C448.1769 311.1186 445.737 311.8834 439 340.4167 C437.3188 347.537 437.4431 348.1863 434 354.4167 C427.2543 366.6232 427.1017 370.763 418 378.4167 C408.2066 386.6521 404.2844 386.2223 390 391.4167 C371.6683 398.0827 371.0984 397.9881 352 402.4167 C336.8537 405.9289 336.3662 406.9242 321 407.4167 C259.3582 409.3924 246.5976 408.5934 196 407.4167 C194.3526 407.3784 194.0477 405.0234 192 404.4167 C181.7457 401.3784 180.5578 401.2512 169 399.4167 C149.1844 396.2713 148.022 398.9219 129 394.4167 C110.9504 390.1418 110.2281 388.9728 93 381.4167 C82.15 376.6579 80.5889 376.3432 72 369.4167 C66.265 364.7917 64.462 363.2117 62 356.4167 C52.9013 331.3042 52.4672 328.5939 47 300.4167 C39.5631 262.0879 40.9224 261.4175 36 222.4167 C34.4342 210.011 34.189 209.8891 34 197.4167 C33.1922 144.0992 33.1013 141.1905 34 90.4167 C34.0507 87.5527 34.4694 86.7976 36 84.4167 C38.6261 80.3317 39.1401 78.99 43 76.4167 C48.6334 72.6611 50.2731 71.678 57 70.4167 C65.0056 68.9156 71.6858 67.86 75 70.4167 C81.965 75.7897 85.758 83.7978 92 97.4167 C96.1788 106.534 93.5842 108.3491 97 118.4167 C102.9823 136.0489 104.4548 142.1113 111 153.4167 C112.1588 155.4182 114.9245 155.3978 119 156.4167 C134.7197 160.3466 135.1984 161.2045 151 163.4167 C159.6243 164.6241 160.936 164.6113 169 163.4167 C173.2975 162.78 174.3494 162.0532 178 159.4167 C182.7595 155.9793 182.0601 153.3498 187 150.4167 C196.966 144.4994 200.6012 145.304 210 140.4167 C211.1865 139.7997 212 137.4167 212 137.4167 "/>
<path id="1" d="M263 111.4167 C263 111.4167 256.4832 128.1017 255 144.4167 C252.0936 176.387 249.5604 182.8909 254 210.4167 C255.9947 222.7837 261.1961 224.7978 270 237.4167 C275.9443 245.9369 276.3592 246.4308 284 253.4167 C293.509 262.1107 294.0995 263.0359 305 269.4167 C313.8605 274.6033 314.8556 274.4579 325 277.4167 C338.5132 281.358 339.0829 281.9626 353 283.4167 C372.0109 285.4029 373.3695 285.4517 392 284.4167 C399.2821 284.0121 401.8137 284.0611 407 280.4167 C417.9078 272.7517 421.5196 269.6372 429 258.4167 C433.8962 251.0723 431.1218 247.9359 435 238.4167 C442.0012 221.2318 451 204.4167 451 204.4167 "/>
<path id="2" d="M149 226.4167 L151 251.4167 "/>
<path id="3" d="M182 309.4167 C182 309.4167 190.1285 319.1657 199 323.4167 C212.2137 329.7483 214.519 330.0208 230 332.4167 C255.6253 336.3825 256.5614 334.6242 283 336.4167 C285.9778 336.6186 287.0329 337.0724 289 336.4167 C290.3114 335.9795 292 333.4167 292 333.4167 "/>
<path id="4" d="M233 260.4167 C233 260.4167 258.1423 266.6689 282 275.4167 C302.8372 283.057 306.059 284.2096 323 293.4167 C325.9371 295.0129 326.5427 296.8775 328 300.4167 C329.7412 304.6453 330 310.4167 330 310.4167 "/>
</g>
</g>
</svg>
