<?xml version="1.0" encoding="utf-8"?>
<!DOCTYPE svg PUBLIC "-//W3C//DTD SVG 1.1//EN" "http://www.w3.org/Graphics/SVG/1.1/DTD/svg11.dtd">
<svg viewBox="0 0 800 800" preserveAspectRatio="xMinYMin meet" xmlns="http://www.w3.org/2000/svg" version="1.1">
<g fill="none" stroke="black" stroke-linecap="round" stroke-linejoin="round" stroke-width="2.9762">
<g transform="translate(87.52,225.616) scale(1.008) translate(-85,-8)">
<path id="0" d="M705 8 L705 8 "/>
<path id="1" d="M141 203 C141 203 145.4395 196.2638 151 193 C167.1101 183.5441 168.6257 182.0596 187 176 C214.6531 166.8804 216.2653 166.685 245 162 C261.2844 159.3449 263.2751 163.2464 279 161 C286.3032 159.9567 286.3775 157.0789 294 155 C308.0371 151.1717 308.6451 149.8374 323 149 C367.536 146.4021 370.0579 145.5194 414 148 C430.1632 148.9124 430.735 154.3735 447 156 C469.617 158.2617 475.1448 151.2265 494 156 C508.8689 159.7643 511.1167 165.2702 526 176 C532.0696 180.3758 532.8045 180.8681 537 187 C551.7559 208.5663 552.6482 210.2887 565 233 C567.5482 237.6854 567.6775 238.6246 568 244 C569.1251 262.7514 570.5111 266.3637 568 283 C567.0208 289.4871 565.163 292.0828 560 297 C545.7786 310.5442 540.5758 313.9769 526 323 C523.6723 324.441 521.1474 321.7519 518 323 C494.7405 332.2236 492.891 335.7275 468 346 C462.0429 348.4585 461.3839 348.7376 455 349 C425.8126 350.1995 424.269 347.2578 395 349 C383.1472 349.7055 381.135 353.7019 371 354 C366.8522 354.122 366.0238 350.9043 361 350 C341.8328 346.5499 338.3479 348.691 321 345 C317.5933 344.2752 317.7085 341.5733 314 340 C301.8765 334.8567 299.0639 336.8231 288 331 C281.5966 327.6298 281.7801 322.5911 276 320 C269.8903 317.2612 265.4693 319.8484 259 318 C257.1065 317.459 257.2033 315.0015 255 314 C242.1246 308.1475 239.9509 309.4037 226 303 C209.6914 295.5141 209.5701 294.9961 194 286 C187.2243 282.0851 186.3018 282.3018 181 277 C170.3964 266.3964 171.7863 263.5024 161 253 C153.375 245.5757 151.1363 247.1791 143 240 C134.4415 232.4484 134.3304 229.5973 127 223 C125.8524 221.9672 123 222 123 222 "/>
<path id="2" d="M146 198 C146 198 139.7806 203.8323 134 206 C129.231 207.7884 126.9168 205.7708 122 207 C120.0935 207.4766 118.324 208.7851 118 210 C117.044 213.5851 117.28 221.04 118 222 C118.405 222.54 123.2888 221.2048 127 222 C129.3268 222.4986 132 225 132 225 "/>
<path id="3" d="M133 207 C133 207 136.8033 138.476 133 130 C132.1749 128.1611 110.2204 127.5097 98 129 C95.6414 129.2876 93.2118 131.9153 92 135 C88.525 143.8453 87.4505 146.189 87 157 C85.0122 204.7063 87.8974 207.8843 87 255 C86.9355 258.3837 85.1547 258.5967 85 262 C84.1928 279.7583 83.3983 288.0553 85 299 C85.2112 300.4429 88.3258 302.6944 91 303 C103.0101 304.3726 115.5488 304.9474 120 303 C121.4006 302.3872 122.7002 295.8962 123 289 C124.1671 262.1578 119.9172 254.3462 123 234 C123.7015 229.3703 133 223 133 223 "/>
<path id="4" d="M98 303 C98 303 108.6561 271.651 111 241 C115.0185 188.4505 111 133 111 133 "/>
<path id="5" d="M162 212 C162 212 167.7655 207.3553 174 205 C189.6573 199.085 190.4027 198.7721 207 195 C223.0626 191.3494 223.5502 191.1345 240 190 C266.6735 188.1605 268.5535 190.9574 294 189 C299.321 188.5907 299.4983 185.7974 305 185 C332.97 180.9464 334.0856 179.9857 363 179 C421.6191 177.0016 422.9618 178.1002 481 179 C486.4256 179.0841 487.0043 179.1682 492 181 C501.4947 184.4814 502.7435 184.4957 511 190 C518.4859 194.9906 518.7263 196.0292 525 203 C532.0334 210.8149 533.3117 211.9629 538 220 C539.4462 222.4792 538.9245 223.526 539 227 C539.4195 246.2954 543.1536 250.7703 539 266 C535.6016 278.4607 530.9842 281.019 521 293 C514.0666 301.3201 512.5977 302.8951 504 308 C498.2336 311.4238 496.3601 311.3736 489 312 C473.6469 313.3066 472.7029 310.8784 457 312 C445.0826 312.8512 444.8287 315.8412 433 316 C371.5427 316.8249 346.3778 315.5109 308 314 C307.3501 313.9744 307.1547 311.5132 306 311 C288.4864 303.2162 283.4127 303.7204 263 294 C252.5368 289.0175 253.1482 286.2279 243 281 C237.2751 278.0508 235.2527 280.1835 230 277 C219.8867 270.8707 220.4783 267.736 210 261 C199.9418 254.534 197.5311 256.7777 188 250 C175.8766 241.3789 175.0484 239.7662 165 229 C161.7662 225.5352 161.3203 224.225 160 220 C159.125 217.2 160 213 160 213 "/>
<path id="6" d="M329 142 C329 142 326.2564 81.735 328 55 C328.1094 53.322 331.9573 50.2817 335 50 C354.1623 48.2257 359.035 48.003 382 50 C404.3276 51.9415 410.5456 52.2105 427 58 C431.429 59.5584 435.2949 64.3285 436 69 C438.3878 84.819 437.5176 91.174 435 111 C433.6919 121.3015 432.3683 122.1713 428 132 C424.5577 139.7452 419 147 419 147 "/>
<path id="7" d="M352 141 C352 141 350.3239 101.4601 352 79 C352.1453 77.0535 354.4066 75.5128 357 74 C359.6753 72.4394 360.5604 72.2293 364 72 C382.3554 70.7763 390.2311 68.303 402 71 C405.9727 71.9104 410.6024 77.5368 412 83 C415.0005 94.7293 416.903 103.1396 413 114 C407.6979 128.7538 389 147 389 147 "/>
<path id="8" d="M328 140 L328 151 "/>
<path id="9" d="M350 136 L350 151 "/>
<path id="10" d="M462 231 C462 231 477.3554 230.5124 490 232 C492.8569 232.3361 493.8804 233.0731 496 235 C498.7598 237.5089 500.1584 238.802 501 242 C502.2144 246.6149 502.0606 249.4923 501 254 C500.4749 256.2317 499.1584 257.1114 497 259 C495.5181 260.2967 494.8446 260.881 493 261 C480.9378 261.7782 472.9595 263.7065 466 261 C462.2768 259.5521 458.8329 253.1861 457 247 C455.6029 242.2848 456.7007 236.1656 458 234 C458.6497 232.9172 466 232 466 232 "/>
<path id="11" d="M376 237 C376 237 404.137 235.3813 420 237 C421.9866 237.2027 424.2171 239.8077 425 242 C426.0384 244.9076 426.0958 248.4431 425 251 C424.0781 253.151 421.607 255.6524 419 256 C403.697 258.0404 392.7494 258.9401 380 257 C377.3031 256.5896 374.471 252.5725 373 249 C371.7834 246.0455 371.9654 242.2417 373 240 C373.7782 238.3139 379 236 379 236 "/>
<path id="12" d="M308 236 C308 236 311.4691 235.1812 314 236 C327.3122 240.3069 336.093 243.4136 342 247 C342.6205 247.3767 343.0112 251.2533 342 253 C338.7356 258.6384 337.1231 260.7214 331 266 C323.1844 272.7375 322.2237 272.6443 313 278 C306.9104 281.5359 306.1785 282.1464 300 284 C297.0777 284.8767 293.5916 284.7395 293 284 C290.9929 281.4911 289.1078 276.3118 288 269 C286.7345 260.6477 285.8895 257.3314 288 251 C289.7978 245.6066 293.0589 243.0691 298 239 C300.1489 237.2303 301.5715 237.3429 305 237 C311.1904 236.381 314.6646 236.5235 318 237 C318.3299 237.0471 319 239 319 239 "/>
<path id="13" d="M227 231 C227 231 252.561 234.2089 270 238 C271.4305 238.311 272.7649 239.7463 273 241 C273.8578 245.5748 273.9011 248.894 273 254 C272.6861 255.779 271.3441 257.6334 270 258 C263.5783 259.7514 257.3946 261.827 251 260 C244.2584 258.0738 239.6975 254.4057 235 248 C230.5664 241.9542 229 230 229 230 "/>
</g>
</g>
</svg>
