<?xml version="1.0" encoding="utf-8"?>
<!DOCTYPE svg PUBLIC "-//W3C//DTD SVG 1.1//EN" "http://www.w3.org/Graphics/SVG/1.1/DTD/svg11.dtd">
<svg viewBox="0 0 800 800" preserveAspectRatio="xMinYMin meet" xmlns="http://www.w3.org/2000/svg" version="1.1">
<g fill="none" stroke="black" stroke-linecap="round" stroke-linejoin="round" stroke-width="3.0722">
<g transform="translate(87.52,251.0837) scale(0.9765) translate(-1,-38.0833)">
<path id="0" d="M351 186.0833 C351 186.0833 343.9956 189.034 337 190.0833 C324.3983 191.9736 324.0071 191.5601 311 192.0833 C237.0875 195.0568 234.2132 190.6438 163 197.0833 C143.2913 198.8655 141.1354 200.9096 123 209.0833 C107.019 216.286 104.1708 217.3551 92 229.0833 C78.4911 242.101 72.934 249.255 68 262.0833 C65.9599 267.3876 68.4521 272.944 72 281.0833 C76.3899 291.1543 77.6746 292.4014 85 301.0833 C90.6326 307.759 91.6256 308.7048 99 313.0833 C106.7344 317.6757 108.5351 319.901 117 320.0833 C260.1737 323.1671 270.5035 320.4085 424 320.0833 C506.4992 319.9085 510.6815 322.8128 589 319.0833 C600.5693 318.5324 603.0679 316.5721 613 311.0833 C620.4031 306.9922 621.0963 304.9192 627 298.0833 C630.1337 294.4549 630.2476 293.6835 632 289.0833 C634.1121 283.5391 634.6623 282.9936 635 277.0833 C636.611 248.8915 636.6817 239.874 636 219.0833 C635.9636 217.9721 634.3872 216.3208 633 216.0833 C589.2774 208.5993 578.7992 206.1402 525 200.0833 C503.8762 197.7052 501.7385 200.9813 482 199.0833 C477.7018 198.67 476.3585 197.8821 473 195.0833 C465.2845 188.6537 464.4908 187.4286 458 179.0833 C454.3245 174.3577 453.714 173.7667 452 168.0833 C444.5173 143.2722 447.2769 140.583 439 116.0833 C435.1759 104.764 431.9167 98.0895 427 94.0833 C424.5356 92.0753 417.9435 92.3852 412 94.0833 C405.9433 95.8138 403.2753 97.1746 399 102.0833 C391.2131 111.0239 389.4556 113.3367 385 125.0833 C379.014 140.8647 382.0201 143.5887 377 160.0833 C375.28 165.7348 374.2723 165.7974 371 171.0833 C367.8125 176.2324 367.9782 178.2654 364 181.0833 C357.7972 185.4769 347 188.0833 347 188.0833 "/>
<path id="1" d="M523 250.0833 C523 250.0833 486.7778 248.6986 451 249.0833 C440.5526 249.1957 437.5995 248.4628 430 251.0833 C426.2304 252.3832 424.2417 255.7208 422 259.0833 C421.3275 260.0921 421.8595 263.0401 422 263.0833 C423.4845 263.5401 429.0507 262.0918 435 263.0833 C440.3391 263.9732 440.7626 266.8857 446 267.0833 C490.6197 268.7671 529.2551 268.3196 541 267.0833 C541.1301 267.0696 542.2142 260.5235 541 257.0833 C539.8929 253.9467 537.6679 250.9371 535 250.0833 C528.7447 248.0816 516 249.0833 516 249.0833 "/>
<path id="2" d="M592 320.0833 L603 331.0833 "/>
<path id="3" d="M613 318.0833 L586 341.0833 "/>
<path id="4" d="M605 339.0833 C605 339.0833 610.3436 337.4703 613 338.0833 C615.0252 338.5507 616.7853 341.9619 618 342.0833 C619.0573 342.1891 620.6691 339.6212 623 339.0833 C626.2758 338.3274 631 339.0833 631 339.0833 "/>
<path id="5" d="M160 207.0833 C160 207.0833 146.195 213.673 134 222.0833 C117.4777 233.478 102 247.0833 102 247.0833 "/>
<path id="6" d="M230 211.0833 C230 211.0833 207.4405 233.4869 183 253.0833 C152.1949 277.7829 119 300.0833 119 300.0833 "/>
<path id="7" d="M308 201.0833 C308 201.0833 296.7753 217.2212 283 229.0833 C261.6046 247.5072 258.4575 245.0197 236 263.0833 C212.6888 281.8336 191 303.0833 191 303.0833 "/>
<path id="8" d="M394 198.0833 L292 302.0833 "/>
<path id="9" d="M395 197.0833 L443 152.0833 "/>
<path id="10" d="M392 156.0833 C392 156.0833 391.9976 153.03 393 152.0833 C399.1424 146.2822 402.1954 146.1326 410 139.0833 C417.4805 132.3268 417.5434 129.8225 424 124.0833 C425.1548 123.0568 428 123.0833 428 123.0833 "/>
<path id="11" d="M463 191.0833 C463 191.0833 449.8375 211.3277 434 228.0833 C415.8518 247.2836 413.0479 245.3037 394 264.0833 C377.7205 280.1336 378.8665 282.5946 363 298.0833 C358.592 302.3864 352 305.0833 352 305.0833 "/>
<path id="12" d="M512 211.0833 C512 211.0833 507.2007 220.8157 501 229.0833 C493.9134 238.5321 485 247.0833 485 247.0833 "/>
<path id="13" d="M455 280.0833 L428 315.0833 "/>
<path id="14" d="M562 211.0833 C562 211.0833 560.8368 217.3553 558 222.0833 C552.1993 231.7511 544 241.0833 544 241.0833 "/>
<path id="15" d="M517 287.0833 L491 324.0833 "/>
<path id="16" d="M615 227.0833 C615 227.0833 609.3258 245.2642 601 261.0833 C594.6762 273.0986 593.8379 273.5735 585 284.0833 C575.6277 295.2288 564 305.0833 564 305.0833 "/>
<path id="17" d="M95 248.0833 C95 248.0833 94.4388 250.3351 95 251.0833 C102.6228 261.2471 104.9053 264.2235 116 276.0833 C133.7964 295.1071 153 313.0833 153 313.0833 "/>
<path id="18" d="M131 217.0833 C131 217.0833 154.9019 240.2 175 265.0833 C185.9096 278.5905 183.7532 280.994 194 295.0833 C199.4848 302.6249 207 309.0833 207 309.0833 "/>
<path id="19" d="M196 209.0833 C196 209.0833 202.5495 220.2949 211 229.0833 C227.1172 245.8453 229.1786 244.4696 246 261.0833 C269.5904 284.3825 292 309.0833 292 309.0833 "/>
<path id="20" d="M265 211.0833 C265 211.0833 292.3568 241.2105 322 268.0833 C345.53 289.4143 372 308.0833 372 308.0833 "/>
<path id="21" d="M345 208.0833 C345 208.0833 344.6513 211.9723 346 214.0833 C354.9499 228.0919 355.5097 231.0577 368 244.0833 C389.7626 266.7786 393.3345 265.2273 416 287.0833 C420.7141 291.629 419.3788 293.6546 424 298.0833 C430.854 304.6517 440 310.0833 440 310.0833 "/>
<path id="22" d="M387 174.0833 C387 174.0833 393.7342 185.5651 402 195.0833 C409.927 204.2114 410.2321 205.083 420 212.0833 C439.6221 226.1458 462 238.0833 462 238.0833 "/>
<path id="23" d="M477 276.0833 C477 276.0833 483.4302 284.1502 491 290.0833 C501.5355 298.3409 502.6468 298.8574 514 305.0833 C517.3074 306.8971 522 307.0833 522 307.0833 "/>
<path id="24" d="M414 127.0833 L441 158.0833 "/>
<path id="25" d="M510 215.0833 C510 215.0833 545.387 237.3638 574 263.0833 C588.3575 275.989 586.0297 279.8896 599 295.0833 C603.2641 300.0784 609 304.0833 609 304.0833 "/>
<path id="26" d="M577 211.0833 C577 211.0833 588.5805 226.2445 602 237.0833 C613.6467 246.4903 629 253.0833 629 253.0833 "/>
<path id="27" d="M1 45.0833 C1 45.0833 29.4851 38.3315 52 41.0833 C70.2011 43.3079 72.2009 51.3836 91 56.0833 C100.2346 58.392 101.7633 57.3155 112 56.0833 C155.172 50.8867 155.787 47.7647 199 43.0833 C215.13 41.3359 216.5636 40.5801 232 43.0833 C252.0888 46.341 252.9161 52.6971 273 55.0833 C301.4033 58.458 303.0717 55.4824 333 55.0833 C340.4887 54.9835 340.8515 55.5455 348 54.0833 C362.4038 51.1371 362.4003 48.6224 377 46.0833 C407.9329 40.7037 408.9294 40.802 440 38.0833 C448.2493 37.3615 449.4276 36.9198 457 39.0833 C472.6455 43.5535 473.3084 46.8528 489 52.0833 C493.4628 53.5709 494.0146 52.9409 499 53.0833 C511.4279 53.4384 512.1476 54.9458 524 53.0833 C546.1538 49.602 546.4393 46.5361 569 42.0833 C584.2041 39.0825 584.6819 38.9844 600 38.0833 C609.7793 37.5081 610.6266 37.2544 620 39.0833 C630.381 41.1089 641 46.0833 641 46.0833 "/>
<path id="28" d="M598 330.0833 C598 330.0833 593.0428 329.642 590 331.0833 C584.6892 333.5989 580.3219 337.3208 579 339.0833 C578.7966 339.3545 580.1741 342.7163 581 343.0833 C582.5303 343.7635 588 343.0833 588 343.0833 "/>
<path id="29" d="M604 331.0833 C604 331.0833 609.8422 331.4367 613 330.0833 C615.3923 329.0581 616.6642 327.5322 618 325.0833 C619.1315 323.009 619.3871 320.1157 619 319.0833 C618.7591 318.441 615 317.0833 615 317.0833 "/>
<path id="30" d="M626 324.0833 L639 325.0833 "/>
</g>
</g>
</svg>
