<?xml version="1.0" encoding="utf-8"?>
<!DOCTYPE svg PUBLIC "-//W3C//DTD SVG 1.1//EN" "http://www.w3.org/Graphics/SVG/1.1/DTD/svg11.dtd">
<svg viewBox="0 0 800 800" preserveAspectRatio="xMinYMin meet" xmlns="http://www.w3.org/2000/svg" version="1.1">
<g fill="none" stroke="black" stroke-linecap="round" stroke-linejoin="round" stroke-width="2.4578">
<g transform="translate(87.52,327.9831) scale(1.2206) translate(-45,-176.1333)">
<path id="0" d="M83 201.1333 C83 201.1333 86.7217 194.9808 91 193.1333 C106.2203 186.5609 109.2765 184.1544 127 182.1333 C164.2165 177.8893 166.9577 179.036 205 180.1333 C217.7605 180.5014 218.0159 183.8161 231 185.1333 C252.1622 187.2802 252.9345 184.6711 274 187.1333 C290.965 189.1163 291.1988 193.0833 308 194.1333 C346.0543 196.5117 347.6462 196.6902 386 194.1333 C414.3228 192.2451 415.677 191.3588 443 185.1333 C454.1283 182.5978 454.4602 177.3653 465 176.1333 C490.1471 173.1941 493.9503 174.9123 520 176.1333 C524.3293 176.3363 526.0411 176.689 529 179.1333 C536.0163 184.9294 536.6157 186.806 543 195.1333 C547.9912 201.6436 549.0455 201.9581 552 209.1333 C555.6809 218.0726 556.3734 219.526 557 229.1333 C557.7974 241.3609 557.9866 245.3591 555 255.1333 C553.5691 259.8164 551.0023 261.2854 546 265.1333 C538.6002 270.8255 537.1508 273.6889 529 275.1333 C501.7721 279.9585 496.5411 280.5958 467 279.1333 C448.1452 278.1999 447.2443 271.9007 428 270.1333 C399.4911 267.5152 398.0794 272.227 369 270.1333 C336.1512 267.7682 336.007 264.2769 303 261.1333 C273.2373 258.2988 272.3528 260.5794 243 258.1333 C237.032 257.636 236.8744 255.3887 231 255.1333 C203.3968 253.9332 199.9944 250.3277 174 255.1333 C143.8706 260.7035 141.7706 270.6881 112 277.1333 C96.4895 280.4913 91.8237 279.0981 77 276.1333 C69.9251 274.7183 68.0247 272.4629 62 267.1333 C55.8643 261.7056 55.0024 260.4319 51 253.1333 C46.946 245.7408 45.8777 244.0328 45 236.1333 C44.0671 227.737 45.0445 225.6071 47 217.1333 C47.7961 213.6835 48.4612 212.8132 51 210.1333 C56.9445 203.8586 57.9117 200.7109 65 198.1333 C81.9487 191.9702 106 190.1333 106 190.1333 "/>
<path id="1" d="M158 262.1333 C158 262.1333 146.2993 267.6141 143 271.1333 C141.9986 272.2015 141.9313 275.9959 143 278.1333 C144.9847 282.1028 146.964 284.1736 151 287.1333 C153.3405 288.8497 154.7978 289.1333 158 289.1333 C164.4043 289.1333 166.9958 289.408 172 287.1333 C175.9058 285.358 177.4801 283.1651 180 279.1333 C181.793 276.2646 182.7567 272.8359 182 271.1333 C180.463 267.6751 176.6643 263.4655 172 261.1333 C168.1131 259.1899 160 260.1333 160 260.1333 "/>
<path id="2" d="M433 271.1333 C433 271.1333 421.9633 271.271 416 274.1333 C412.0159 276.0457 410.372 279.2789 408 283.1333 C407.3185 284.2407 407.3617 286.3532 408 287.1333 C410.2921 289.9348 412.9325 292.9944 417 294.1333 C422.938 295.796 427.5751 295.6129 433 294.1333 C435.5892 293.4272 437.8345 290.9639 439 288.1333 C440.5702 284.3199 440.307 281.4319 440 277.1333 C439.9117 275.8971 439.0333 274.603 438 274.1333 C434.9561 272.7497 429 272.1333 429 272.1333 "/>
</g>
</g>
</svg>
