<?xml version="1.0" encoding="utf-8"?>
<!DOCTYPE svg PUBLIC "-//W3C//DTD SVG 1.1//EN" "http://www.w3.org/Graphics/SVG/1.1/DTD/svg11.dtd">
<svg viewBox="0 0 800 800" preserveAspectRatio="xMinYMin meet" xmlns="http://www.w3.org/2000/svg" version="1.1">
<g fill="none" stroke="black" stroke-linecap="round" stroke-linejoin="round" stroke-width="1.1377">
<g transform="translate(87.52,341.9868) scale(2.637) translate(-187,-234)">
<path id="0" d="M413 241 C413 241 313.5612 243.965 228 241 C220.0254 240.7237 219.1919 235.6866 211 234 C203.4483 232.4452 201.8381 233.2874 194 234 C191.6108 234.2172 189.6395 234.9036 189 236 C187.5475 238.4901 187 242.3572 187 246 C187 247.0928 187.8821 248.4739 189 249 C194.6859 251.6757 196.6259 253.3493 204 254 C245.7166 257.6809 247.524 256.7839 291 258 C318.9486 258.7818 319.8706 259.7616 347 258 C357.3308 257.3292 357.6053 253.8784 368 253 C392.3021 250.9463 395.4444 253.6111 418 252 C420.7993 251.8 423.1542 250.2687 424 249 C424.725 247.9125 424.7062 243.908 424 243 C423.0061 241.7221 420.0349 240.5058 417 240 C415.0442 239.674 412 241 412 241 "/>
<path id="1" d="M231 257 C231 257 222.7557 262.0739 221 265 C220.1974 266.3377 220.7423 270.3231 222 272 C223.7851 274.3801 226.0637 275.5239 230 277 C233.3384 278.2519 236.1595 278.9203 238 278 C241.0675 276.4662 242.3205 273.4972 246 269 C246.6671 268.1847 247.0512 267.0402 247 267 C245.0225 265.4462 232 258 232 258 "/>
<path id="2" d="M369 256 C369 256 361.6604 261.7433 359 266 C358.0177 267.5717 358.2463 270.1158 359 272 C359.7034 273.7586 362.8871 275.7179 363 276 C363.004 276.0101 360.9983 277 361 277 C361.0152 277 372.3168 277.273 379 276 C380.3122 275.7501 381.5662 274.4097 382 273 C383.1397 269.296 384.1423 265.713 383 263 C381.4748 259.3777 377.6719 256.7539 374 254 C373.3006 253.4754 371 254 371 254 "/>
<path id="3" d="M369 265 C369 265 369.875 267 370 267 C370.5 267 373.2146 265.7854 374 265 C374.2618 264.7382 374.1 263.05 374 263 C373.6 262.8 370 263 370 263 "/>
<path id="4" d="M232 268 C232 268 233.9786 270 234 270 C234 270 234 268 234 268 "/>
<path id="5" d="M247 259 C247 259 251.9513 259.0823 253 260 C254.1059 260.9677 255.4871 264.4411 255 266 C253.8954 269.5346 251.2546 273.4428 248 276 C246.2945 277.3401 241 277 241 277 "/>
<path id="6" d="M385 255 C385 255 388.8496 255.5488 389 256 C389.9239 258.7716 391.1076 265.5696 390 270 C389.3959 272.4166 386.6033 274.58 384 276 C382.5963 276.7657 379 276 379 276 "/>
</g>
</g>
</svg>
