<?xml version="1.0" encoding="utf-8"?>
<!DOCTYPE svg PUBLIC "-//W3C//DTD SVG 1.1//EN" "http://www.w3.org/Graphics/SVG/1.1/DTD/svg11.dtd">
<svg viewBox="0 0 800 800" preserveAspectRatio="xMinYMin meet" xmlns="http://www.w3.org/2000/svg" version="1.1">
<g fill="none" stroke="black" stroke-linecap="round" stroke-linejoin="round" stroke-width="1.2289">
<g transform="translate(87.52,212.0237) scale(2.4413) translate(-149,-165.1333)">
<path id="0" d="M149 199.1333 C149 199.1333 155.562 215.2742 160 219.1333 C161.8758 220.7644 166.6834 218.0257 172 219.1333 C177.7781 220.3371 179.2103 221.1397 184 224.1333 C186.2563 225.5435 185.6081 227.5694 188 229.1333 C210.0333 243.5397 211.5937 244.607 236 258.1333 C252.921 267.5112 253.3597 267.9465 271 275.1333 C279.8513 278.7394 281.3651 276.4046 290 280.1333 C302.6694 285.6042 302.474 288.3781 315 294.1333 C320.3314 296.5829 321.0923 296.5616 327 297.1333 C336.1329 298.0172 337.4413 298.7525 346 297.1333 C354.7048 295.4865 364 290.1333 364 290.1333 "/>
<path id="1" d="M149 198.1333 C149 198.1333 163.3643 193.2259 177 187.1333 C186.7221 182.7894 187.3907 182.6433 196 177.1333 C199.3353 174.9988 198.7542 172.8268 202 171.1333 C209.1563 167.3996 215.747 164.1574 219 165.1333 C222.7452 166.2569 224.7481 175.057 232 180.1333 C243.1402 187.9315 246.6937 185.6295 259 193.1333 C266.511 197.7132 265.575 200.0419 273 205.1333 C282.7632 211.8281 283.278 212.0545 294 217.1333 C301.9728 220.9099 302.9771 219.3084 311 223.1333 C345.6142 239.6355 347.7693 246.1325 380 258.1333 C389.8226 261.7907 405.027 258.0757 405 258.1333 C404.8829 258.3831 365 290.1333 365 290.1333 "/>
<path id="2" d="M309 292.1333 C309 292.1333 304.1788 297.3612 303 301.1333 C302.2751 303.453 302.7648 305.31 304 308.1333 C305.9306 312.5462 306.963 314.9062 310 317.1333 C312.5228 318.9834 316.9286 319.7252 319 319.1333 C320.6501 318.6619 323.4172 315.6104 324 313.1333 C324.8743 309.4177 324.3491 306.7202 323 302.1333 C322.1428 299.2188 319 296.1333 319 296.1333 "/>
<path id="3" d="M314 306.1333 L312 304.1333 "/>
<path id="4" d="M312 306.1333 C312 306.1333 310.9532 308.9931 311 309.1333 C311.0117 309.1684 312.7382 309.3951 313 309.1333 C313.7854 308.3479 315 305.1333 315 305.1333 "/>
<path id="5" d="M172 220.1333 C172 220.1333 164.9572 221.8172 164 223.1333 C163.1316 224.3273 162.9466 228.1487 164 231.1333 C165.4639 235.2811 166.963 237.9062 170 240.1333 C172.5228 241.9834 175.7397 242.5409 179 242.1333 C181.7945 241.784 184.5521 240.2247 186 238.1333 C187.6997 235.6782 188.4825 230.5807 188 229.1333 C187.7105 228.2649 182 226.1333 182 226.1333 "/>
<path id="6" d="M174 230.1333 C174 230.1333 176.8466 229.0182 177 229.1333 C177.2728 229.3379 178.2478 232.7617 178 233.1333 C177.6035 233.728 173.3647 235.2549 173 235.1333 C172.8036 235.0679 172 231.1333 172 231.1333 "/>
<path id="7" d="M231 205.1333 C231 205.1333 223.7604 214.8067 217 219.1333 C213.3842 221.4474 207.0139 221.7851 206 221.1333 C204.9488 220.4576 204.8123 214.06 203 210.1333 C202.5047 209.0602 200.423 208.9793 200 208.1333 C199.5166 207.1665 199.4068 205.0824 200 204.1333 C201.0566 202.4428 202.2967 201.5815 205 200.1333 C215.9348 194.2754 228 189.1333 228 189.1333 C228 189.1333 217.9029 191.819 211 196.1333 C207.1247 198.5554 205.6018 200.3291 204 204.1333 C202.3289 208.1022 201.9581 212.1813 203 215.1333 C203.8289 217.4819 210 221.1333 210 221.1333 "/>
<path id="8" d="M236 205.1333 L217 214.1333 "/>
<path id="9" d="M352 267.1333 C352 267.1333 343.6764 268.7951 337 272.1333 C331.2773 274.9947 328.5748 279.2751 326 280.1333 C325.4348 280.3217 322.5889 278.6055 322 277.1333 C320.3614 273.0368 318.731 267.1162 320 265.1333 C322.9027 260.5979 337.997 252.1379 338 252.1333 C338.0015 252.1312 331.1332 253.3334 326 256.1333 C320.801 258.9692 318.0018 260.7303 316 264.1333 C314.7022 266.3395 314.6648 270.9484 316 273.1333 C318.3325 276.9502 322.1223 279.6945 327 282.1333 C329.2028 283.2348 331.5975 283.3346 334 282.1333 C347.9001 275.1833 365 263.1337 365 263.1333 C365 263.1331 334 276.1333 334 276.1333 "/>
<path id="10" d="M333 282.1333 C333 282.1333 335.3385 278.4641 338 277.1333 C343.323 274.4718 351 273.1333 351 273.1333 "/>
<path id="11" d="M337 277.1333 L326 280.1333 "/>
<path id="12" d="M316 271.1333 C316 271.1333 315.0538 265.0795 316 264.1333 C319.1088 261.0246 331 256.1333 331 256.1333 "/>
<path id="13" d="M322 263.1333 L319 273.1333 "/>
</g>
</g>
</svg>
