<?xml version="1.0" encoding="utf-8"?>
<!DOCTYPE svg PUBLIC "-//W3C//DTD SVG 1.1//EN" "http://www.w3.org/Graphics/SVG/1.1/DTD/svg11.dtd">
<svg viewBox="0 0 800 800" preserveAspectRatio="xMinYMin meet" xmlns="http://www.w3.org/2000/svg" version="1.1">
<g fill="none" stroke="black" stroke-linecap="round" stroke-linejoin="round" stroke-width="1.8289">
<g transform="translate(87.52,315.5238) scale(1.6403) translate(-24,-201.4167)">
<path id="0" d="M50 213.4167 C50 213.4167 58.3884 207.7078 66 207.4167 C144.3402 204.4201 149.6622 208.4248 233 206.4167 C273.9746 205.4293 274.0791 202.5007 315 201.4167 C349.3647 200.5063 352.2339 199.7376 384 202.4167 C390.6701 202.9792 392.3155 204.8265 398 208.4167 C400.8086 210.1905 402.6253 211.7939 403 214.4167 C405.0169 228.5348 407.5056 235.7369 404 250.4167 C400.5632 264.8085 395.716 269.7953 387 281.4167 C384.5097 284.7371 382.0226 284.8881 377 286.4167 C371.0677 288.2222 370.4244 288.3956 364 288.4167 C219.7724 288.8895 217.2244 289.617 72 287.4167 C53.0718 287.1299 47.6972 287.2876 34 283.4167 C30.3094 282.3737 28.8428 278.9652 26 274.4167 C24.3248 271.7363 24 270.711 24 267.4167 C24 253.7688 22.3781 250.8669 26 238.4167 C29.682 225.7598 33.6491 218.7676 40 212.4167 C42.5404 209.8763 54 210.4167 54 210.4167 "/>
<path id="1" d="M75 287.4167 C75 287.4167 74.5546 291.7486 75 292.4167 C75.3266 292.9066 77.0449 293.3493 79 293.4167 C91.1152 293.8344 100.953 293.9042 104 293.4167 C104.078 293.4042 104 289.4167 104 289.4167 "/>
<path id="2" d="M298 289.4167 C298 289.4167 297.9385 293.409 298 293.4167 C301.9385 293.909 326.0348 293.7884 330 293.4167 C330.0348 293.4134 330 290.4167 330 290.4167 "/>
<path id="3" d="M25 264.4167 C25 264.4167 28.7405 270.5023 33 273.4167 C37.1328 276.2444 38.5119 276.5436 44 277.4167 C59.7891 279.9286 60.5559 280.2733 77 280.4167 C231.8503 281.7671 302.4666 285.2129 388 280.4167 C391.0279 280.2469 394.5677 271.1534 398 262.4167 C399.6267 258.276 397.6425 256.877 399 252.4167 C400.9532 245.9991 405 239.4167 405 239.4167 "/>
<path id="4" d="M81 291.4167 C81 291.4167 82.0892 298.9881 83 299.4167 C85.37 300.5319 94.279 300.2922 98 299.4167 C98.7296 299.245 100 295.4167 100 295.4167 "/>
<path id="5" d="M306 292.4167 C306 292.4167 305.4827 304.0934 306 304.4167 C307.0173 305.0525 315.2246 304.1105 322 302.4167 C323.9505 301.9291 325.2714 300.6917 326 299.4167 C326.5514 298.4517 326 295.4167 326 295.4167 "/>
</g>
</g>
</svg>
