<?xml version="1.0" encoding="utf-8"?>
<!DOCTYPE svg PUBLIC "-//W3C//DTD SVG 1.1//EN" "http://www.w3.org/Graphics/SVG/1.1/DTD/svg11.dtd">
<svg viewBox="0 0 800 800" preserveAspectRatio="xMinYMin meet" xmlns="http://www.w3.org/2000/svg" version="1.1">
<g fill="none" stroke="black" stroke-linecap="round" stroke-linejoin="round" stroke-width="2.2657">
<g transform="translate(87.52,270.9034) scale(1.3241) translate(-76,-188)">
<path id="0" d="M149 188 C149 188 143.1539 187.0089 138 188 C117.8891 191.8675 111.4552 189.943 97 198 C86.6407 203.7741 81.5525 210.9439 77 222 C73.1287 231.4017 75.2844 236.8345 76 249 C76.1906 252.2406 76.945 253.3846 79 256 C81.9177 259.7135 82.7155 260.7784 87 263 C95.3369 267.3229 96.7207 268.7418 106 270 C124.669 272.5314 126.536 272.4598 146 271 C165.7565 269.5183 165.9755 266.4722 186 264 C206.2726 261.4972 206.5282 261.6081 227 261 C256.8937 260.1121 257.13 260.2802 287 261 C298.4742 261.2765 298.9135 260.7062 310 263 C341.8717 269.5941 342.3357 273.7739 374 279 C392.6092 282.0714 393.7326 278.5179 413 280 C425.9713 280.9978 426.1308 283.6323 439 284 C477.9175 285.1119 479.7812 285.3399 518 283 C527.3327 282.4286 532.3316 282.046 537 278 C542.8422 272.9368 544.8025 266.883 548 257 C549.6925 251.7685 548.6424 250.1031 548 244 C547.6931 241.0844 547.6978 239.6978 546 238 C537.9356 229.9356 534.8487 223.8547 525 221 C506.4367 215.6193 500.9755 218.5801 477 218 C439.0962 217.083 438.1771 221.4383 401 218 C352.8265 213.5446 352.4204 207.4117 304 202 C268.0552 197.9826 267.2003 201.3609 231 199 C221.5064 198.3809 221.4351 196.4797 212 196 C192.2949 194.998 186.3273 197.8688 172 196 C169.5706 195.6831 168.5375 190.5437 166 190 C158.3378 188.3581 153.1714 190.7337 144 190 C142.6826 189.8946 141 188 141 188 "/>
<path id="1" d="M77 259 C77 259 79.6777 267.477 84 273 C87.9075 277.9929 89.1796 279.3137 95 282 C107.3499 287.6999 109.4113 289.9365 123 291 C164.186 294.2233 167.5748 292.9284 210 291 C221.3267 290.4852 221.5872 286.9645 233 286 C256.4296 284.02 257.7518 283.1507 281 285 C300.7144 286.5682 300.9644 290.3286 321 293 C345.6543 296.2872 346.3993 294.0626 371 297 C379.5179 298.0171 379.6435 300.671 388 301 C441.5947 303.11 446.8495 303.6634 498 302 C504.1225 301.8009 507.0021 299.2845 511 297 C511.6843 296.609 511.4196 294.2679 512 294 C515.2578 292.4964 520.3109 293.683 524 291 C529.0607 287.3195 534 278 534 278 "/>
<path id="2" d="M169 328 C169 328 168.2639 324.6195 169 323 C170.218 320.3204 171.1574 318.5589 174 317 C184.9834 310.9768 188.2056 308.5274 200 306 C206.4765 304.6122 211.8448 305.2299 216 308 C221.194 311.4626 222.2646 315.8822 227 324 C229.0596 327.5308 229.8117 328.2347 230 332 C230.738 346.761 232.5165 353.4504 229 364 C227.0786 369.7642 222.3254 372.6506 215 377 C207.7274 381.3181 205.3445 382.0183 197 383 C189.9675 383.8274 185.652 383.7568 181 381 C175.7765 377.9046 173.9651 374.0806 170 367 C167.5061 362.5465 167.3215 361.3053 167 356 C166.3691 345.5907 166.3762 342.7686 168 334 C168.4202 331.731 170.0215 330.319 172 329 C173.5289 327.9807 177 328 177 328 "/>
<path id="3" d="M256 326 C256 326 255.3572 323.0714 256 322 C257.5428 319.4286 258.8289 317.3298 262 316 C272.4022 311.6378 275.6062 310.6277 287 309 C291.257 308.3919 293.6725 308.8299 297 311 C303.3222 315.1232 303.9983 317.2922 310 324 C312.334 326.6086 313.4995 327.1971 314 330 C315.6533 339.2586 317.031 344.3274 315 352 C313.6314 357.1704 310.5626 359.3274 305 364 C298.7504 369.2497 297.0043 371.1989 290 373 C281.9093 375.0805 279.0955 374.0106 270 373 C266.665 372.6294 265.421 372.0485 263 370 C259.759 367.2576 257.8673 365.7172 257 362 C254.9485 353.2079 255.3835 350.4798 256 340 C256.3421 334.1841 257.1194 330.6329 259 328 C259.9308 326.6969 266 326 266 326 "/>
<path id="4" d="M352 331 C352 331 353.2755 327.2542 355 326 C357.6459 324.0757 358.9585 323.866 363 323 C372.6529 320.9315 373.8404 320.3392 383 320 C386.1544 319.8832 387.5299 320.2036 390 322 C397.3571 327.3506 398.8186 329.0914 405 336 C406.5305 337.7106 406.9144 338.6877 407 341 C407.3707 351.0085 409.1464 358.6434 406 363 C401.5612 369.1461 392.2872 373.3317 381 377 C375.3946 378.8217 371.3893 377.6168 366 376 C363.7104 375.3131 362.607 373.7319 361 371 C357.9765 365.86 357.1037 364.8866 356 359 C354.2777 349.8146 352.799 345.0526 355 339 C356.987 333.5358 362.8298 330.2008 368 326 C368.6583 325.4652 371 326 371 326 "/>
<path id="5" d="M444 325 C444 325 430.1325 327.1941 428 330 C425.2312 333.6432 424.2889 343.8368 425 350 C425.2421 352.0986 429.4572 353.4286 431 356 C431.6428 357.0714 430.4095 359.4095 431 360 C433.6572 362.6572 436.9703 366.1617 442 367 C454.8155 369.1359 464.2879 370.366 473 367 C478.4993 364.8753 482.6088 357.9937 486 350 C488.4738 344.1688 488.7897 339.5479 487 334 C484.8826 327.4361 480.6343 320.8293 476 319 C468.6052 316.081 456.0328 318.4977 449 319 C448.7023 319.0213 448 321 448 321 "/>
<path id="6" d="M449 336 C449 336 456.908 336.0744 461 338 C463.4738 339.1641 464.782 341.3204 466 344 C466.7361 345.6195 466.1085 348.9783 466 349 C463.8519 349.4296 454.1165 350.2828 446 348 C440.2972 346.3961 435.5631 342.1884 434 340 C433.5688 339.3963 436 334 436 334 "/>
<path id="7" d="M389 350 C389 350 392.8225 349.7161 393 350 C393.6122 350.9795 394.7594 356.9031 394 358 C392.761 359.7897 388.2077 362.3688 384 363 C380.2033 363.5695 377.624 362.9186 374 361 C370.4916 359.1426 368.89 356.9699 367 354 C366.34 352.9629 366.8824 350.0294 367 350 C368.8824 349.5294 377.3133 349.1021 383 350 C384.2346 350.1949 386 353 386 353 "/>
<path id="8" d="M290 337 C290 337 289.927 334.0209 290 334 C290.572 333.8366 296.3713 334.2141 297 335 C297.9335 336.1669 298.265 341.0845 298 344 C297.9351 344.714 296.807 345.8991 296 346 C290.9786 346.6277 288.2215 347.082 282 346 C277.6913 345.2507 275.8566 344.3805 273 342 C271.147 340.4559 270 336 270 336 "/>
<path id="9" d="M204 340 C204 340 208.9077 338.5815 211 339 C212.1077 339.2215 212.8454 340.3836 214 342 C215.2187 343.7062 216 344.4911 216 346 C216 348.6405 214.9084 352.5108 214 353 C212.2679 353.9326 207.234 354.2702 203 353 C198.843 351.7529 197.01 350.2608 194 347 C191.9448 344.7735 191 340 191 340 "/>
<path id="10" d="M203 341 C203 341 238.5318 340.9225 272 344 C280.9182 344.8201 281.0553 347.5877 290 349 C299.5961 350.5152 300.2233 348.5516 310 350 C340.3904 354.5023 340.7672 357.3852 371 361 C386.0399 362.7983 387.165 362.8544 402 361 C418.2706 358.9662 420.0401 358.3191 435 353 C441.1954 350.7972 447 345 447 345 "/>
<path id="11" d="M436 308 C436 308 441.1573 309.4082 442 311 C444.1269 315.0174 445 325 445 325 "/>
<path id="12" d="M223 292 L212 305 "/>
<path id="13" d="M241 295 C241 295 231.6744 306.0698 226 316 C224.5471 318.5425 225 323 225 323 "/>
<path id="14" d="M276 294 C276 294 280.2331 293.2331 281 294 C285.1411 298.1411 288.4233 302.8467 292 310 C292.9981 311.9963 291.9999 315.9999 292 316 C292.0001 316.0001 293 311 293 311 "/>
<path id="15" d="M295 294 L291 316 "/>
<path id="16" d="M369 302 L380 325 "/>
<path id="17" d="M383 309 C383 309 380.1141 327.612 380 328 C379.9919 328.0275 378 326 378 326 "/>
<path id="18" d="M230 263 C230 263 228.9291 248.8857 231 236 C233.3092 221.6318 233.7585 218.408 239 207 C240.9466 202.7633 243.2422 201.1146 248 199 C259.5788 193.8539 262.3787 193.5243 275 191 C278.4422 190.3116 280.5882 190.5529 283 192 C286.3092 193.9855 287.9808 196.5386 290 200 C290.6684 201.1459 290.088 203.984 290 204 C287.338 204.484 277.1467 201.9674 268 204 C261.4402 205.4577 260.0471 207.5442 254 212 C251.1364 214.11 250.0101 214.9696 249 218 C246.0574 226.8277 247.4859 230.477 245 239 C244.5654 240.4899 242.1584 240.7853 242 242 C241.0656 249.1637 242.2475 259.5248 242 262 C241.9975 262.0248 240 262 240 262 "/>
<path id="19" d="M338 277 C338 277 333.6833 270.1501 333 264 C331.8461 253.6153 330.8672 248.2445 334 241 C336.7389 234.6663 341.0389 232.0041 349 227 C357.3721 221.7376 359.8984 221.2754 369 219 C372.2062 218.1984 373.9102 218.6482 377 220 C380.8909 221.7023 385.0098 225.9859 385 226 C384.2768 227.0331 371.8741 232.3499 363 240 C358.7067 243.7011 358.9612 245.3738 356 251 C354.0683 254.6702 353.581 255.1269 353 259 C352.175 264.5003 351.9338 266.2023 353 271 C353.6121 273.7542 357 277 357 277 "/>
</g>
</g>
</svg>
