<?xml version="1.0" encoding="utf-8"?>
<!DOCTYPE svg PUBLIC "-//W3C//DTD SVG 1.1//EN" "http://www.w3.org/Graphics/SVG/1.1/DTD/svg11.dtd">
<svg viewBox="0 0 800 800" preserveAspectRatio="xMinYMin meet" xmlns="http://www.w3.org/2000/svg" version="1.1">
<g fill="none" stroke="black" stroke-linecap="round" stroke-linejoin="round" stroke-width="0.87846">
<g transform="translate(292.4249,87.52) scale(3.4151) translate(-264.3611,-101.3056)">
<path id="0" d="M269.3611 166.8056 L327.3611 166.8056 "/>
<path id="1" d="M268.3611 168.3056 L269.3611 280.3056 "/>
<path id="2" d="M327.3611 166.3056 L327.3611 279.3056 "/>
<path id="3" d="M270.3611 282.3056 L325.3611 282.3056 "/>
<path id="4" d="M315.3611 158.8056 L316.3611 167.8056 "/>
<path id="5" d="M320.3611 158.8056 L320.3611 165.8056 "/>
<path id="6" d="M314.3611 158.3056 C314.3611 158.3056 307.2379 156.7668 306.3611 155.3056 C304.9448 152.9451 304.8347 147.2539 305.3611 143.3056 C305.5119 142.1743 306.9139 140.7312 308.3611 140.3056 C313.7989 138.7062 316.2636 138.3056 322.3611 138.3056 C324.5388 138.3056 327.1402 139.5546 327.3611 140.3056 C328.3157 143.5511 328.4626 150.0733 327.3611 155.3056 C327.0055 156.9946 323.3611 159.3056 323.3611 159.3056 "/>
<path id="7" d="M273.3611 167.3056 C273.3611 167.3056 272.1332 154.4083 272.3611 150.3056 C272.3761 150.0365 273.4461 149.3453 274.3611 149.3056 C283.7641 148.8967 293.7002 148.0401 295.3611 149.3056 C296.3252 150.0401 295.3611 165.3056 295.3611 165.3056 "/>
<path id="8" d="M277.3611 156.3056 C277.3611 156.3056 276.3611 162.3056 276.3611 162.3056 C276.3611 162.3056 276.3611 156.3056 276.3611 156.3056 "/>
<path id="9" d="M282.3611 155.3056 C282.3611 155.3056 283.3611 162.3055 283.3611 162.3056 C283.3611 162.3056 283.3611 156.3056 283.3611 156.3056 "/>
<path id="10" d="M289.3611 155.3056 C289.3611 155.3056 289.3612 163.3054 289.3611 163.3056 C289.3611 163.3057 288.3611 157.3056 288.3611 157.3056 "/>
<path id="11" d="M275.3611 148.3056 C275.3611 148.3056 267.456 136.5904 264.3611 127.3056 C263.2737 124.0433 265.3611 118.3056 265.3611 118.3056 "/>
<path id="12" d="M265.3611 118.3056 C265.3611 118.3056 266.1858 111.6562 266.3611 111.3056 C266.3611 111.3056 268.2983 111.96 268.3611 112.3056 C268.8219 114.8398 268.3611 122.3056 268.3611 122.3056 "/>
<path id="13" d="M268.3611 122.3056 L270.3611 111.3056 "/>
<path id="14" d="M274.3611 105.3056 L269.3611 114.3056 "/>
<path id="15" d="M275.3611 105.3056 L275.3611 120.3056 "/>
<path id="16" d="M275.3611 121.3056 L275.3611 110.3056 "/>
<path id="17" d="M276.3611 101.3056 L277.3611 122.3056 "/>
<path id="18" d="M277.3611 105.3056 C277.3611 105.3056 279.3332 105.9987 279.3611 106.3056 C279.8568 111.7584 279.3611 127.3056 279.3611 127.3056 "/>
<path id="19" d="M280.3611 111.3056 C280.3611 111.3056 283.1863 113.0816 283.3611 114.3056 C284.2791 120.7314 283.3611 132.3056 283.3611 132.3056 "/>
<path id="20" d="M284.3611 120.3056 C284.3611 120.3056 286.3583 119.2746 286.3611 119.3056 C286.4403 120.1769 287.099 132.7126 286.3611 142.3056 C286.2599 143.621 284.3611 145.3056 284.3611 145.3056 "/>
<path id="21" d="M284.3611 145.3056 L284.3611 148.3056 "/>
<path id="22" d="M280.3611 170.3056 L282.3611 284.3056 "/>
<path id="23" d="M288.3611 168.3056 C288.3611 168.3056 288.0236 226.4797 289.3611 277.3056 C289.4231 279.661 291.3611 282.3056 291.3611 282.3056 "/>
</g>
</g>
</svg>
