<?xml version="1.0" encoding="utf-8"?>
<!DOCTYPE svg PUBLIC "-//W3C//DTD SVG 1.1//EN" "http://www.w3.org/Graphics/SVG/1.1/DTD/svg11.dtd">
<svg viewBox="0 0 800 800" preserveAspectRatio="xMinYMin meet" xmlns="http://www.w3.org/2000/svg" version="1.1">
<g fill="none" stroke="black" stroke-linecap="round" stroke-linejoin="round" stroke-width="1.6033">
<g transform="translate(333.5746,87.52) scale(1.8711) translate(-242,-12.6333)">
<path id="0" d="M243 142.6333 C243 142.6333 235.9141 324.1579 243 346.6333 C243.6661 348.7462 280.8785 347.1699 307 345.6333 C308.7031 345.5332 310.9751 343.6249 311 342.6333 C312.2551 292.7449 312.9825 263.9506 311 186.6333 C310.5027 167.2405 308.0603 155.8743 306 147.6333 C305.8848 147.1727 301.8776 147.3647 301 146.6333 C300.3481 146.09 300.1534 142.6333 300 142.6333 C295.5521 142.6333 285.4323 145.638 271 146.6333 C256.7037 147.6193 242 146.6333 242 146.6333 "/>
<path id="1" d="M243 143.6333 C243 143.6333 242.1555 121.9228 243 112.6333 C243.0619 111.9523 244.6912 110.7206 246 110.6333 C257.2778 109.8815 261.1677 108.813 273 110.6333 C278.6633 111.5046 282.6243 113.4658 285 116.6333 C287.5736 120.0649 285.0858 126.9906 288 130.6333 C292.3713 136.0975 299.8387 135.4398 305 141.6333 C310.2638 147.9499 313 160.6333 313 160.6333 "/>
<path id="2" d="M311 152.6333 L311 175.6333 "/>
<path id="3" d="M251 100.6333 C251 100.6333 243.4291 88.2253 242 76.6333 C239.2111 54.0123 240.1939 50.7511 242 27.6333 C242.5673 20.3722 246.9639 12.6053 247 12.6333 C247.1925 12.7831 257.4876 27.6359 260 41.6333 C263.9433 63.6032 261.8821 75.343 261 90.6333 C260.9418 91.6427 258.032 91.9134 257 93.6333 C254.1335 98.4109 252 105.6333 252 105.6333 "/>
</g>
</g>
</svg>
