<?xml version="1.0" encoding="utf-8"?>
<!DOCTYPE svg PUBLIC "-//W3C//DTD SVG 1.1//EN" "http://www.w3.org/Graphics/SVG/1.1/DTD/svg11.dtd">
<svg viewBox="0 0 800 800" preserveAspectRatio="xMinYMin meet" xmlns="http://www.w3.org/2000/svg" version="1.1">
<g fill="none" stroke="black" stroke-linecap="round" stroke-linejoin="round" stroke-width="1.0609">
<g transform="translate(219.0161,87.52) scale(2.8279) translate(-214,-91)">
<path id="0" d="M257 174 C257 174 328.9871 165.1322 336 170 C340.5753 173.1758 340.5714 201.5709 342 233 C343.5579 267.274 342.0764 300.2932 342 302 C341.9979 302.0462 339 300 339 300 "/>
<path id="1" d="M252 175 C252 175 254.7244 179.1416 255 183 C256.6129 205.5803 253.6376 207.6716 256 231 C257.5573 246.3784 261.6776 246.6975 263 262 C265.0921 286.209 261.3661 310.7137 263 312 C264.5262 313.2015 286.9575 303.1035 310 299 C322.1485 296.8366 336 299 336 299 "/>
<path id="2" d="M214 136 C214 136 218.871 136.742 221 139 C233.5332 152.2928 234.8285 157.6506 247 171 C248.4331 172.5718 252 173 252 173 "/>
<path id="3" d="M217 132 C217 132 224.5032 129.6914 231 126 C246.2242 117.3499 247.2898 117.1023 261 107 C265.5591 103.6406 265.2327 100.5115 269 98 C271.0631 96.6246 273.3003 98.2598 276 97 C279.9049 95.1777 283.2762 90.8886 284 91 C284.6373 91.098 288.5097 97.3655 289 99 C289.0723 99.2409 287 100.4764 287 101 C287 102.5708 287.3162 104.8952 289 107 C296.4 116.25 306.759 125.0763 307 126 C307.0088 126.0339 300.2805 127.245 295 130 C289.3121 132.9676 289.2366 133.7155 284 138 C272.7942 147.1684 271.8296 146.8725 262 157 C255.7454 163.4441 252.1684 170.8316 251 172 C251 172 249 170 249 170 "/>
<path id="4" d="M296 146 C296 146 297.9996 145.9904 298 146 C298.1144 148.7459 297 170 297 170 "/>
<path id="5" d="M295 147 C295 147 333.8207 144.7646 338 147 C339.1957 147.6396 338 170 338 170 "/>
</g>
</g>
</svg>
