<?xml version="1.0" encoding="utf-8"?>
<!DOCTYPE svg PUBLIC "-//W3C//DTD SVG 1.1//EN" "http://www.w3.org/Graphics/SVG/1.1/DTD/svg11.dtd">
<svg viewBox="0 0 800 800" preserveAspectRatio="xMinYMin meet" xmlns="http://www.w3.org/2000/svg" version="1.1">
<g fill="none" stroke="black" stroke-linecap="round" stroke-linejoin="round" stroke-width="1.8001">
<g transform="translate(260.8422,87.52) scale(1.6666) translate(-174,-22.4167)">
<path id="0" d="M198 78.4167 C198 78.4167 204.0866 80.3297 210 80.4167 C237.5212 80.8214 266 79.4167 266 79.4167 "/>
<path id="1" d="M249 80.4167 C249 80.4167 251.6475 75.9803 255 73.4167 C259.6032 69.8966 261.1274 67.9164 266 67.4167 C277.6599 66.2208 284.3576 67.0791 294 69.4167 C296.1849 69.9464 298.049 72.5637 299 75.4167 C300.5299 80.0062 300.549 82.2011 300 87.4167 C299.6623 90.6245 298.9327 92.8705 297 94.4167 C293.4042 97.2933 285 99.4167 285 99.4167 "/>
<path id="2" d="M260 80.4167 C260 80.4167 263.3367 80.4954 264 81.4167 C269.8264 89.5088 278 105.4167 278 105.4167 "/>
<path id="3" d="M293 98.4167 L278 97.4167 "/>
<path id="4" d="M278 107.4167 C278 107.4167 277.2581 111.6748 278 112.4167 C281.4125 115.8292 285.3677 119.7161 292 121.4167 C302.2717 124.0504 308.6899 119.8985 317 122.4167 C320.5231 123.4843 324.5068 127.5699 325 131.4167 C328.4068 157.9897 324.979 166.4647 327 200.4167 C327.4438 207.8725 329.8021 208.0275 330 215.4167 C331.2731 262.9453 328.9261 264.0909 330 312.4167 C330.4214 331.3816 330.6155 332.5332 333 350.4167 C333.4595 353.863 335.4028 353.9084 336 357.4167 C339.248 376.4987 341.9157 396.5565 341 397.4167 C340.1695 398.1968 322.0485 391.2842 303 388.4167 C276.0147 384.3544 275.3386 384.1177 248 383.4167 C217.2791 382.629 193.2432 385.6503 186 385.4167 C185.9849 385.4162 185.3317 382.6577 186 381.4167 C188.1333 377.4548 192.4739 376.325 193 372.4167 C195.2754 355.5134 195.7022 350.0693 193 329.4167 C188.863 297.798 180.9113 297.0166 179 265.4167 C173.575 175.7238 177.5412 168.596 178 81.4167 C178.015 78.5688 179.3631 75.5551 180 75.4167 C184.0057 74.5459 193.2065 75.1178 201 76.4167 C202.2887 76.6315 204 79.4167 204 79.4167 "/>
<path id="5" d="M174 124.4167 C174 124.4167 192.0334 126.8777 210 127.4167 C241.8609 128.3725 242.8316 125.8963 274 127.4167 C282.8611 127.8489 283.3645 131.2597 292 131.4167 C309.6533 131.7376 329 128.4167 329 128.4167 "/>
<path id="6" d="M286 114.4167 C286 114.4167 286.0757 111.341 287 110.4167 C289.4033 108.0134 291.3191 105.8866 295 105.4167 C311.6728 103.2882 328.3171 103.4222 334 104.4167 C334.3513 104.4781 335.8722 109.8 335 112.4167 C333.5969 116.626 329.5307 117.8246 328 122.4167 C326.6348 126.5123 328.8664 131.1639 328 133.4167 C327.691 134.2201 323 135.4167 323 135.4167 "/>
<path id="7" d="M288 114.4167 L286 118.4167 "/>
<path id="8" d="M243 113.4167 C243 113.4167 242 121.4166 242 121.4167 C242 121.4167 241.5861 114.9961 242 114.4167 C242.2111 114.1211 244.6037 114.1504 247 114.4167 C248.9703 114.6356 250.6833 114.8466 251 115.4167 C251.841 116.9304 252.2461 123.2253 252 123.4167 C251.5654 123.7547 242 122.4167 242 122.4167 "/>
<path id="9" d="M180 84.4167 L189 85.4167 "/>
<path id="10" d="M178 103.4167 L191 102.4167 "/>
<path id="11" d="M276 97.4167 L271 97.4167 "/>
<path id="12" d="M263 78.4167 C263 78.4167 263.4017 74.7158 264 74.4167 C266.3931 73.2201 269.544 72.9127 275 72.4167 C280.3673 71.9287 282.17 71.14 286 72.4167 C289.1337 73.4612 292.2144 76.06 293 78.4167 C294.0998 81.716 293.4063 88.6588 292 90.4167 C290.7036 92.0372 286.0262 93.1882 281 93.4167 C276.0764 93.6405 270 91.4167 270 91.4167 "/>
<path id="13" d="M286 101.4167 L283 101.4167 "/>
<path id="14" d="M204 75.4167 C204 75.4167 201.7591 65.3383 204 61.4167 C209.1907 52.3329 217.1948 51.0329 224 40.4167 C228.2668 33.7604 227.6467 25.8965 229 22.4167 C229.0528 22.281 230.9973 22.3906 231 22.4167 C231.2473 24.7656 229.1787 37.7741 231 41.4167 C232.0544 43.5255 242.2348 44.285 243 46.4167 C245.8543 54.3679 245 80.4167 245 80.4167 "/>
</g>
</g>
</svg>
