<?xml version="1.0" encoding="utf-8"?>
<!DOCTYPE svg PUBLIC "-//W3C//DTD SVG 1.1//EN" "http://www.w3.org/Graphics/SVG/1.1/DTD/svg11.dtd">
<svg viewBox="0 0 800 800" preserveAspectRatio="xMinYMin meet" xmlns="http://www.w3.org/2000/svg" version="1.1">
<g fill="none" stroke="black" stroke-linecap="round" stroke-linejoin="round" stroke-width="0.90246">
<g transform="translate(267.0298,87.52) scale(3.3243) translate(-191,-77.4167)">
<path id="0" d="M197 142.4167 C197 142.4167 195.053 145.552 195 148.4167 C194.1037 196.8165 196.6896 201.4183 195 250.4167 C194.7658 257.2082 191 264.4167 191 264.4167 "/>
<path id="1" d="M192 263.4167 C192 263.4167 264.3958 266.8906 267 262.4167 C274.8579 248.9171 270.2507 163.2598 270 129.4167 C269.9962 128.9001 267.8408 127.525 266 127.4167 C252.5882 126.6277 236 127.4167 236 127.4167 "/>
<path id="2" d="M196 131.4167 L196 149.4167 "/>
<path id="3" d="M196 131.4167 C196 131.4167 236.2468 131.8319 238 131.4167 C238.078 131.3982 234.1968 124.9754 234 122.4167 C233.9203 121.3805 235.9112 118.5376 237 118.4167 C247.4312 117.2576 265.2467 117.1584 270 118.4167 C270.4872 118.5456 271 127.4167 271 127.4167 "/>
<path id="4" d="M198 129.4167 C198 129.4167 208.1474 130.8361 212 129.4167 C214.0856 128.6483 217 122.4167 217 122.4167 "/>
<path id="5" d="M233 130.4167 C233 130.4167 224.1941 130.5981 222 129.4167 C221.0054 128.8811 220 123.4167 220 123.4167 "/>
<path id="6" d="M221 119.4167 C221 119.4167 217.7705 119.2835 217 118.4167 C215.0454 116.2178 213.6047 114.1959 213 110.4167 C211.8102 102.9807 213 93.4167 213 93.4167 "/>
<path id="7" d="M212 95.4167 L218 85.4167 "/>
<path id="8" d="M222 118.4167 C222 118.4167 226.4643 115.5595 227 113.4167 C228.2857 108.2739 227.8087 105.6949 227 98.4167 C225.8439 88.0114 223.0144 77.4372 223 77.4167 C222.9946 77.409 220 88.4167 220 88.4167 "/>
<path id="9" d="M232 132.4167 C232 132.4167 233.7033 189.9317 235 247.4167 C235.2028 256.409 235.247 263.1941 235 265.4167 C234.997 265.4441 233 265.4167 233 265.4167 "/>
</g>
</g>
</svg>
