<?xml version="1.0" encoding="utf-8"?>
<!DOCTYPE svg PUBLIC "-//W3C//DTD SVG 1.1//EN" "http://www.w3.org/Graphics/SVG/1.1/DTD/svg11.dtd">
<svg viewBox="0 0 800 800" preserveAspectRatio="xMinYMin meet" xmlns="http://www.w3.org/2000/svg" version="1.1">
<g fill="none" stroke="black" stroke-linecap="round" stroke-linejoin="round" stroke-width="1.1425">
<g transform="translate(304.1553,87.52) scale(2.6259) translate(-198,-77)">
<path id="0" d="M200 110 C200 110 199.1031 124.6497 200 139 C201.0902 156.4431 203.529 156.572 204 174 C205.5161 230.0942 203.1251 231.0082 204 287 C204.1164 294.448 203.9902 295.2169 206 302 C207.7759 307.9936 209.9178 313.5595 212 314 C223.1663 316.3621 258 313 258 313 "/>
<path id="1" d="M200 112 C200 112 232.3733 111.0946 256 113 C258.6637 113.2148 260.4728 114.794 262 117 C264.0748 119.9969 264.5801 121.5909 265 126 C266.4966 141.7146 264.4751 142.7346 266 159 C267.45 174.4667 269.9595 174.6007 271 190 C272.4277 211.1301 272.4459 211.8906 271 233 C269.9798 247.8956 267.196 248.0503 266 263 C264.2265 285.1689 266.8963 288.279 265 308 C264.6895 311.2294 262.6875 314.0156 261 315 C259.3299 315.9742 253 315 253 315 "/>
<path id="2" d="M201 114 C201 114 198 119.224 198 123 C198 127.6151 199.8726 133.682 201 134 C207.6505 135.8758 219.5746 132.6849 237 134 C245.3748 134.6321 245.6387 136.5459 254 138 C256.835 138.493 257.8992 138.7639 260 138 C262.26 137.1782 265 134 265 134 "/>
<path id="3" d="M202 120 C202 120 209.1742 123.58 216 124 C240.4358 125.5037 267 124 267 124 "/>
<path id="4" d="M237 112 C237 112 237.0794 118.3053 239 123 C241.253 128.5073 242.1291 130.3711 246 134 C248.8507 136.6726 255 138 255 138 "/>
<path id="5" d="M248 120 C248 120 242.9521 117.3123 242 115 C240.4181 111.1583 240.4827 108.4316 241 103 C241.4035 98.7634 241.9522 97.3277 244 94 C245.3362 91.8287 248.1963 91.9519 249 90 C250.8338 85.5466 251 77 251 77 C251 77 248.0195 86.1367 249 93 C250.2479 101.7351 254.06 103.2701 256 112 C256.734 115.3032 256.1433 117.4848 255 120 C254.3485 121.4334 251 123 251 123 "/>
<path id="6" d="M257 129 C257 129 255.0377 129.7362 255 130 C254.8283 131.2016 255.7325 135.8217 256 136 C256.1962 136.1308 260.6035 134.5947 261 134 C261.2478 133.6283 260 130 260 130 "/>
</g>
</g>
</svg>
