<?xml version="1.0" encoding="utf-8"?>
<!DOCTYPE svg PUBLIC "-//W3C//DTD SVG 1.1//EN" "http://www.w3.org/Graphics/SVG/1.1/DTD/svg11.dtd">
<svg viewBox="0 0 800 800" preserveAspectRatio="xMinYMin meet" xmlns="http://www.w3.org/2000/svg" version="1.1">
<g fill="none" stroke="black" stroke-linecap="round" stroke-linejoin="round" stroke-width="2.3906">
<g transform="translate(87.52,221.7986) scale(1.2549) translate(-88,-104.1333)">
<path id="0" d="M88 198.1333 C88 198.1333 97.0035 195.2731 103 190.1333 C116.9917 178.1404 115.4353 172.7045 130 162.1333 C144.5696 151.5586 147.221 152.7529 165 145.1333 C182.0583 137.8226 182.1988 137.144 200 132.1333 C249.2866 118.2601 250.1417 118.1257 300 107.1333 C313.071 104.2515 313.5531 104.4781 327 104.1333 C371.6958 102.9873 372.2846 102.9965 417 104.1333 C430.9493 104.488 431.5263 104.4386 445 107.1333 C456.0239 109.3381 458.1151 108.7654 467 114.1333 C480.3097 122.1746 480.8131 124.5267 493 136.1333 C501.6025 144.3262 500.2129 146.1888 509 154.1333 C536.3347 178.8469 566 202.1333 566 202.1333 "/>
<path id="1" d="M98 196.1333 C98 196.1333 92.1 204.8333 92 206.1333 C91.975 206.4583 97 209.1333 97 209.1333 "/>
<path id="2" d="M571 201.1333 C571 201.1333 570.2711 207.8435 568 212.1333 C566.3445 215.2605 562 218.1333 562 218.1333 "/>
<path id="3" d="M100 205.1333 C100 205.1333 103.0009 216.2964 108 226.1333 C118.3088 246.4184 118.0587 247.3593 131 266.1333 C153.2632 298.4307 179 329.1333 179 329.1333 "/>
<path id="4" d="M103 214.1333 C103 214.1333 110.7081 215.468 117 214.1333 C126.2064 212.1805 127.4283 211.7328 136 207.1333 C147.3186 201.0599 146.5919 198.6203 158 192.1333 C171.8114 184.2798 172.3454 181.698 187 178.1333 C225.5126 168.7654 228.5423 172.8571 269 165.1333 C283.1404 162.4338 282.9268 160.149 297 157.1333 C310.6673 154.2046 311.0883 153.6172 325 153.1333 C368.0119 151.6373 374.4177 146.7239 412 153.1333 C431.764 156.5039 432.5065 165.6762 454 175.1333 C482.1478 187.5184 482.7808 188.5067 512 197.1333 C534.4969 203.7753 535.7242 203.3025 559 206.1333 C572.0669 207.7225 586 206.1333 586 206.1333 "/>
<path id="5" d="M567 211.1333 C567 211.1333 569.3426 217.6091 568 221.1333 C562.6297 235.2302 561.2712 238.7818 551 253.1333 C525.4007 288.9022 525.6935 298.1503 495 323.1333 C467.4277 345.5759 422 358.1333 422 358.1333 "/>
<path id="6" d="M498 190.1333 C498 190.1333 494.439 188.7168 494 189.1333 C483.7774 198.8317 475.0438 208.2099 459 227.1333 C456.2994 230.3186 457.648 231.8742 455 235.1333 C445.1434 247.2645 442.525 246.3612 433 259.1333 C420.882 275.3824 423.422 279.4528 411 294.1333 C402.7484 303.8853 395.8547 302.3202 389 311.1333 C384.2441 317.248 385.0652 320.6925 383 330.1333 C381.656 336.2771 382 343.1333 382 343.1333 "/>
<path id="7" d="M357 155.1333 C357 155.1333 356.7035 189.4318 353 223.1333 C346.736 280.136 346.0097 280.6181 337 337.1333 C335.0708 349.2347 331 361.1333 331 361.1333 "/>
<path id="8" d="M228 182.1333 C228 182.1333 246.7605 215.5333 259 250.1333 C272.3961 288.0032 268.1818 290.6289 280 329.1333 C283.4674 340.4303 286.1141 340.0734 290 351.1333 C292.4452 358.0926 290.6386 359.6396 293 366.1333 C294.2941 369.6921 298 373.1333 298 373.1333 "/>
<path id="9" d="M169 200.1333 C169 200.1333 175.9282 206.0229 180 213.1333 C208.7079 263.265 207.1679 265.7531 236 317.1333 C246.0799 335.0962 246.2988 335.4174 258 352.1333 C263.5952 360.1265 271 367.1333 271 367.1333 "/>
<path id="10" d="M166 321.1333 C166 321.1333 175.0952 325.3074 182 331.1333 C190.5736 338.3673 189.0909 341.2802 198 348.1333 C220.7912 365.665 222.2696 365.6769 247 381.1333 C253.8819 385.4345 262 388.1333 262 388.1333 "/>
</g>
</g>
</svg>
