<?xml version="1.0" encoding="utf-8"?>
<!DOCTYPE svg PUBLIC "-//W3C//DTD SVG 1.1//EN" "http://www.w3.org/Graphics/SVG/1.1/DTD/svg11.dtd">
<svg viewBox="0 0 800 800" preserveAspectRatio="xMinYMin meet" xmlns="http://www.w3.org/2000/svg" version="1.1">
<g fill="none" stroke="black" stroke-linecap="round" stroke-linejoin="round" stroke-width="1.8049">
<g transform="translate(109.1277,87.52) scale(1.6621) translate(-124,-29.1333)">
<path id="0" d="M125 170.1333 C125 170.1333 121.1128 155.998 124 146.1333 C131.9547 118.9547 135.7129 115.5128 149 88.1333 C151.6301 82.7137 152.508 82.5006 157 78.1333 C170.2578 65.2438 170.6261 64.7025 185 53.1333 C190.8064 48.4599 191.2466 47.3236 198 45.1333 C226.6641 35.8369 229.0657 34.5148 259 29.1333 C272.1216 26.7744 283.5397 28.7626 287 29.1333 C287.0397 29.1376 286.9762 32.1318 287 32.1333 C292.8512 32.5068 312.8249 30.0158 334 32.1333 C340.1273 32.7461 341.149 34.4277 347 38.1333 C355.7882 43.6992 355.6023 47.401 364 51.1333 C371.4965 54.4651 374.1496 51.6442 383 54.1333 C389.5507 55.9757 390.7815 56.0252 396 60.1333 C413.1965 73.671 415.754 75.1914 430 91.1333 C435.3725 97.1454 433.1609 99.8747 438 107.1333 C447.9051 121.9909 450.2294 121.3089 460 136.1333 C464.4055 142.8175 464.5574 143.5611 467 151.1333 C469.4016 158.5782 470 167.1333 470 167.1333 "/>
<path id="1" d="M127 172.1333 C127 172.1333 125.8856 167.0278 127 165.1333 C129.5284 160.8351 131.5292 158.9063 137 155.1333 C145.3849 149.3506 146.3739 148.8768 156 145.1333 C163.8037 142.0986 164.7121 141.7253 173 141.1333 C184.9523 140.2796 188.8897 138.4542 198 142.1333 C210.5792 147.2134 225 162.1333 225 162.1333 "/>
<path id="2" d="M226 162.1333 C226 162.1333 225.0285 158.3193 226 156.1333 C230.264 146.5394 231.334 144.8293 238 135.1333 C242.0736 129.208 242.6098 127.7987 248 124.1333 C253.8836 120.1325 255.7668 119.2754 263 118.1333 C273.4321 116.4862 275.8965 115.6946 286 118.1333 C302.8594 122.2028 306.2161 124.0694 321 132.1333 C326.012 134.8672 326.9191 136.9195 330 142.1333 C332.8889 147.0223 334 154.1333 334 154.1333 "/>
<path id="3" d="M335 154.1333 C335 154.1333 337.9883 146.3957 342 142.1333 C344.9072 139.0445 346.3626 138.6791 351 137.1333 C362.3038 133.3654 363.2033 133.1556 375 131.1333 C380.1846 130.2445 381.9629 129.5185 386 131.1333 C394.7348 134.6272 396.8202 136.4683 405 143.1333 C409.5899 146.8733 413 153.1333 413 153.1333 "/>
<path id="4" d="M415 153.1333 C415 153.1333 423.8769 145.0872 432 142.1333 C438.3297 139.8316 444.2279 138.7982 448 141.1333 C458.4753 147.6181 474 168.1333 474 168.1333 "/>
<path id="5" d="M128 174.1333 C128 174.1333 133.3941 176.463 137 180.1333 C160.6091 204.164 158.9383 207.7151 184 231.1333 C219.444 264.2531 222.8187 261.5376 259 294.1333 C278.0394 311.2859 295 331.1333 295 331.1333 "/>
<path id="6" d="M227 162.1333 L230 173.1333 "/>
<path id="7" d="M231 179.1333 C231 179.1333 237.5965 215.5341 250 247.1333 C257.8946 267.2459 262.9357 266.7789 273 286.1333 C275.4805 290.9036 273.7218 292.1214 276 297.1333 C283.5045 313.6432 293 330.1333 293 330.1333 "/>
<path id="8" d="M335 156.1333 C335 156.1333 334.0088 167.5023 331 178.1333 C319.117 220.1198 314.8309 220.0008 305 262.1333 C297.5668 293.99 296 328.1333 296 328.1333 "/>
<path id="9" d="M414 154.1333 C414 154.1333 414.1498 157.2337 413 159.1333 C403.4996 174.8296 402.322 175.868 391 192.1333 C366.8374 226.8458 366.8815 227.0215 342 261.1333 C335.9466 269.4323 336.009 270.1244 329 277.1333 C324.4079 281.7254 319.9999 282.5334 318 285.1333 C317.486 285.8015 319.6832 288.7359 319 290.1333 C311.2391 306.008 296 330.1333 296 330.1333 "/>
<path id="10" d="M474 169.1333 C474 169.1333 464.2808 178.1273 456 188.1333 C440.4071 206.9748 442.1607 209.7529 426 227.1333 C416.485 237.3665 413.3282 235.2746 403 245.1333 C391.7138 255.9065 393.6878 259.3615 382 269.1333 C364.1906 284.0231 361.1729 281.6998 342 296.1333 C316.8563 315.0617 293 336.1333 293 336.1333 "/>
<path id="11" d="M299 329.1333 C299 329.1333 295.0551 331.8116 295 333.1333 C294.7373 339.4379 298 353.1333 298 353.1333 "/>
<path id="12" d="M315 356.1333 C315 356.1333 296.6899 354.7491 280 357.1333 C266.1596 359.1105 254.0279 362.1759 252 365.1333 C250.1915 367.7707 253.4372 378.9533 256 392.1333 C256.8842 396.6804 258.0746 400.9922 259 401.1333 C270.8514 402.9412 288.1546 399.5993 315 401.1333 C321.8209 401.5231 328.4388 405.5449 329 405.1333 C329.6085 404.6871 328.386 397.2102 330 390.1333 C334.7416 369.3431 342.2727 350.3699 342 348.1333 C341.9928 348.0741 331.6027 346.7324 325 349.1333 C317.3948 351.8988 309 360.1333 309 360.1333 "/>
</g>
</g>
</svg>
