<?xml version="1.0" encoding="utf-8"?>
<!DOCTYPE svg PUBLIC "-//W3C//DTD SVG 1.1//EN" "http://www.w3.org/Graphics/SVG/1.1/DTD/svg11.dtd">
<svg viewBox="0 0 800 800" preserveAspectRatio="xMinYMin meet" xmlns="http://www.w3.org/2000/svg" version="1.1">
<g fill="none" stroke="black" stroke-linecap="round" stroke-linejoin="round" stroke-width="1.5697">
<g transform="translate(112.3655,87.52) scale(1.9112) translate(-171.8,-0.6)">
<path id="0" d="M249.8 234.6 C249.8 234.6 251.4948 224.7112 248.8 217.6 C234.6488 180.2566 229.4405 179.0141 213.8 139.6 C204.6167 116.4581 204.163 115.5924 198.8 91.6 C194.8426 73.8956 195.8396 55.5626 194.8 54.6 C194.477 54.3009 172.1524 66.7057 171.8 66.6 C171.7564 66.5869 172.4681 57.0532 174.8 48.6 C176.3333 43.0419 176.6422 42.5426 179.8 37.6 C187.92 24.8905 187.7883 22.0983 197.8 12.6 C205.5719 5.2267 209.3929 1.1534 218.8 0.6 C290.7172 -3.6304 308.033 -5.3127 384.8 1.6 C406.3482 3.5404 409.752 8.5591 429.8 19.6 C442.5833 26.6401 443.3708 28.6742 453.8 39.6 C463.8093 50.086 467.8697 52.4296 471.8 63.6 C475.7327 74.7772 473.1855 79.337 472.8 93.6 C472.7093 96.9567 472.3493 97.5014 470.8 100.6 C466.5394 109.1212 465.1237 112.4116 460.8 117.6 C459.9182 118.6582 457.0026 119.2013 455.8 118.6 C451.6578 116.5289 450.7243 113.1934 444.8 109.6 C420.6897 94.9757 420.3632 93.8703 394.8 81.6 C370.7841 70.0724 369.9442 70.202 344.8 61.6 C332.3909 57.3548 331.823 57.4904 318.8 55.6 C301.1415 53.0367 300.7094 52.7468 282.8 52.6 C240.0538 52.2496 196.8 54.6 196.8 54.6 "/>
<path id="1" d="M238.8 49.6 C238.8 49.6 235.6767 64.6646 238.8 76.6 C248.9018 115.2032 256.7877 117.9812 266.8 156.6 C270.0128 168.9921 268.9966 171.6402 266.8 184.6 C264.2351 199.7328 259.2572 201.1637 256.8 215.6 C255.6233 222.5129 258.8 231.6 258.8 231.6 "/>
<path id="2" d="M352.8 65.6 C352.8 65.6 340.2717 101.4907 329.8 137.6 C325.8413 151.2506 328.6053 152.557 323.8 165.6 C311.4435 199.1391 294.8 232.6 294.8 232.6 "/>
<path id="3" d="M431.8 94.6 C431.8 94.6 421.3662 103.9614 412.8 114.6 C390.5652 142.2142 390.1195 142.9868 369.8 171.6 C366.0254 176.9152 367.4616 178.1755 363.8 183.6 C354.1784 197.8542 351.7579 197.3337 342.8 211.6 C338.7181 218.1008 340.4548 220.2041 336.8 226.6 C334.9301 229.8723 332.9346 229.2647 330.8 232.6 C325.29 241.2093 320.8 251.6 320.8 251.6 "/>
<path id="4" d="M249.8 234.6 C249.8 234.6 266.3734 232.9991 278.8 235.6 C285.4684 236.9957 285.5661 240.5541 292.8 243.6 C304.1989 248.3995 306.4047 247.1449 316.8 251.6 C318.9657 252.5282 320.7067 254.0602 320.8 255.6 C322.1638 278.1025 322.7222 289.9199 320.8 317.6 C320.4792 322.2196 317.441 327.3721 315.8 327.6 C298.5911 329.9901 260.9952 329.1907 248.8 327.6 C248.2223 327.5246 246.9051 323.0142 246.8 318.6 C245.9288 282.0084 246.8 243.6 246.8 243.6 "/>
<path id="5" d="M246.8 234.6 C246.8 234.6 250.0164 230.3262 252.8 229.6 C259.3779 227.884 263.4685 226.4895 269.8 228.6 C282.463 232.821 284.008 239.6557 297.8 244.6 C308.4602 248.4216 318.184 245.3775 322.8 247.6 C323.9896 248.1727 324.7999 257.6 324.8 257.6 C324.8 257.6 324.8 247.6 324.8 247.6 C324.8 247.6 326.1743 308.2866 324.8 323.6 C324.7525 324.1296 317.8 325.6 317.8 325.6 "/>
<path id="6" d="M177.8 69.6 C177.8 69.6 184.1417 71.3595 186.8 70.6 C188.761 70.0397 191.8 65.6 191.8 65.6 "/>
<path id="7" d="M204.8 66.6 C204.8 66.6 211.7949 59.755 216.8 58.6 C221.6939 57.4706 230.8 60.6 230.8 60.6 "/>
<path id="8" d="M260.8 60.6 C260.8 60.6 275.999 58.818 285.8 60.6 C289.364 61.248 290.156 65.4493 293.8 66.6 C297.851 67.8793 299.8726 65.7788 304.8 66.6 C308.1596 67.1599 308.6615 69.4954 311.8 69.6 C321.9376 69.9379 332.4015 67.6 334.8 67.6 C334.8 67.6 334.8 69.6 334.8 69.6 "/>
<path id="9" d="M352.8 72.6 C352.8 72.6 368.7231 87.5615 384.8 95.6 C395.5179 100.959 398.4246 97.8186 410.8 101.6 C415.9256 103.1661 415.7754 105.3033 420.8 106.6 C430.4902 109.1007 434.441 106.0256 441.8 109.6 C448.616 112.9106 455.8 123.6 455.8 123.6 "/>
</g>
</g>
</svg>
