<?xml version="1.0" encoding="utf-8"?>
<!DOCTYPE svg PUBLIC "-//W3C//DTD SVG 1.1//EN" "http://www.w3.org/Graphics/SVG/1.1/DTD/svg11.dtd">
<svg viewBox="0 0 800 800" preserveAspectRatio="xMinYMin meet" xmlns="http://www.w3.org/2000/svg" version="1.1">
<g fill="none" stroke="black" stroke-linecap="round" stroke-linejoin="round" stroke-width="1.1377">
<g transform="translate(127.0744,87.52) scale(2.637) translate(-130,-107)">
<path id="0" d="M133 178 C133 178 135.6586 176.3654 136 175 C137.2061 170.1755 135.4655 167.6266 137 162 C138.1982 157.6066 138.9741 156.9985 142 153 C152.7474 138.7981 152.8888 137.784 165 125 C170.4283 119.2702 171.2122 118.2053 178 115 C188.0753 110.2422 189.7468 108.9378 201 108 C235.8729 105.0939 240.3773 103.7037 274 107 C287.8723 108.36 291.7997 110.457 303 118 C313.7106 125.2132 313.8912 128.6139 323 140 C327.6503 145.8129 328.3962 146.3046 331 153 C335.0942 163.5279 335.2933 165.0769 337 176 C337.6306 180.0356 336.0406 185.0023 336 185 C333.1074 184.8393 312.0883 174 301 174 C296.2479 174 288.2376 185.0861 286 185 C284.2406 184.9323 280.6607 176.4835 275 173 C269.6235 169.6914 266.6788 169 260 169 C251.9855 169 246.6351 169.9771 242 173 C239.2619 174.7857 237.1469 184.0353 237 184 C235.5012 183.6403 225.9675 170.5453 217 167 C209.2812 163.9484 200.3833 164.163 194 167 C188.4185 169.4807 182.8125 182.8125 181 183 C179.1875 183.1875 171.9721 172.2017 165 170 C157.4804 167.6254 153.4744 169.6485 143 171 C138.5568 171.5733 136.7048 171.9194 134 174 C131.7552 175.7267 130 181 130 181 "/>
<path id="1" d="M133 181 C133 181 137.8332 190.871 144 199 C148.5282 204.969 151.2129 203.975 155 210 C161.5353 220.3971 159.7113 223.4086 166 234 C168.6262 238.423 171.7583 238.6374 174 242 C174.6725 243.0088 173.3287 244.6574 174 246 C176.6851 251.3703 178.2959 253.6224 182 258 C182.6983 258.8253 184.8141 258.4592 185 259 C188.0888 267.9857 187.9048 275.3514 193 290 C195.682 297.7108 198.7919 299.0067 201 305 C201.4468 306.2127 199.5839 308.0845 200 309 C201.1417 311.5116 203.6697 315.7218 206 316 C226.8355 318.4878 258.5615 314.0532 267 317 C268.2838 317.4483 270.2397 337.0702 269 338 C265.1681 340.8739 249.8728 342.0476 231 344 C221.2266 345.011 212.3635 345.5414 211 344 C208.7917 341.5036 209.422 325.6786 208 318 C207.9266 317.6038 206 317.02 206 317 C206 316.98 208 316 208 316 "/>
<path id="2" d="M263 317 C263 317 283.6413 300.5321 296 283 C303.3487 272.5751 299.9067 268.7959 306 256 C314.7334 237.6599 320.468 237.558 326 220 C330.9623 204.2501 329 183 329 183 "/>
<path id="3" d="M243 319 C243 319 253.6494 294.257 261 270 C263.3766 262.1573 260.829 260.8946 263 253 C266.1514 241.5405 266.779 240.7683 272 230 C274.5556 224.7291 277.8034 224.7865 279 220 C281.6988 209.2049 278.7673 206.1201 281 194 C282.094 188.0609 286 182 286 182 "/>
<path id="4" d="M224 313 C224 313 227.9575 294.467 229 276 C231.4359 232.8503 228.84 230.0406 231 189 C231.2023 185.1563 234 181 234 181 "/>
<path id="5" d="M216 318 C216 318 212.2907 314.6138 211 311 C207.6527 301.6275 207.5816 300.544 206 290 C203.1204 270.8026 205.6977 269.4883 202 251 C199.9003 240.5016 195.9217 240.3772 194 230 C191.1475 214.5967 194.8151 212.0137 192 197 C190.6241 189.6618 185 182 185 182 "/>
</g>
</g>
</svg>
