<?xml version="1.0" encoding="utf-8"?>
<!DOCTYPE svg PUBLIC "-//W3C//DTD SVG 1.1//EN" "http://www.w3.org/Graphics/SVG/1.1/DTD/svg11.dtd">
<svg viewBox="0 0 800 800" preserveAspectRatio="xMinYMin meet" xmlns="http://www.w3.org/2000/svg" version="1.1">
<g fill="none" stroke="black" stroke-linecap="round" stroke-linejoin="round" stroke-width="1.5217">
<g transform="translate(87.52,350.7129) scale(1.9715) translate(-167,-250.1333)">
<path id="0" d="M183 283.1333 C183 283.1333 187.7427 278.6342 192 278.1333 C218.3532 275.033 228.716 277.2898 251 275.1333 C252.2367 275.0137 252.7531 272.3534 254 272.1333 C258.9459 271.2605 261.8577 273.0547 268 272.1333 C270.8298 271.7089 271.2464 269.2413 274 269.1333 C317.2273 267.4381 329.987 267.7292 370 268.1333 C371.259 268.146 371.6953 270.0543 373 270.1333 C385.5405 270.8934 390.4595 270.8934 403 270.1333 C404.3047 270.0543 404.6803 268.211 406 268.1333 C426.3439 266.9366 454 267.1333 454 267.1333 "/>
<path id="1" d="M190 299.1333 C190 299.1333 322.0203 300.5463 417 300.1333 C418.2589 300.1279 418.7098 298.1849 420 298.1333 C439.6874 297.3458 467 298.1333 467 298.1333 "/>
<path id="2" d="M467 298.1333 C467 298.1333 468.8273 300.2073 469 300.1333 C471.331 299.1343 478.7688 295.4801 481 292.1333 C482.3945 290.0416 480.1706 286.2803 481 282.1333 C481.4645 279.811 483.7128 279.287 484 277.1333 C484.5247 273.1982 484.5053 269.9558 483 267.1333 C481.7519 264.7932 479.0105 262.5486 476 262.1333 C467.441 260.9528 454 263.1333 454 263.1333 "/>
<path id="3" d="M480 264.1333 C480 264.1333 481.4331 258.4327 481 257.1333 C480.7834 256.4837 478.8699 255.2638 477 255.1333 C459.3517 253.9021 457.0021 253.7455 438 254.1333 C433.1052 254.2332 432.8192 255.8924 428 256.1333 C423.2524 256.3707 421.1801 256.4962 418 255.1333 C416.1268 254.3305 415.5943 250.4655 414 250.1333 C407.6754 248.8157 394.728 249.9716 394 250.1333 C393.9596 250.1423 394.7622 253.1706 396 254.1333 C398.2604 255.8914 399.7589 256.9533 403 257.1333 C416.0899 257.8606 427.2113 255.4948 432 256.1333 C432.2765 256.1702 432.2811 260.4144 433 261.1333 C433.7189 261.8523 437.2811 261.4144 438 262.1333 C438.7189 262.8523 439 267.1333 439 267.1333 "/>
<path id="4" d="M185 283.1333 C185 283.1333 182.0206 282.099 182 282.1333 C181.8453 282.3912 182.3269 287.9808 182 288.1333 C180.1942 288.9761 167 289.1333 167 289.1333 C167 289.1333 181.6565 286.7135 183 287.1333 C183.1911 287.1931 182.1612 293.2946 183 294.1333 C185.037 296.1703 195 299.1333 195 299.1333 "/>
<path id="5" d="M189 283.1333 C189 283.1333 191.9108 283.7766 192 284.1333 C192.5605 286.3753 192 295.1333 192 295.1333 "/>
<path id="6" d="M360 274.1333 C360 274.1333 361.9389 273.9959 362 274.1333 C362.6794 275.662 364 278.9348 364 283.1333 C364 289.1979 362 296.1333 362 296.1333 "/>
</g>
</g>
</svg>
