<?xml version="1.0" encoding="utf-8"?>
<!DOCTYPE svg PUBLIC "-//W3C//DTD SVG 1.1//EN" "http://www.w3.org/Graphics/SVG/1.1/DTD/svg11.dtd">
<svg viewBox="0 0 800 800" preserveAspectRatio="xMinYMin meet" xmlns="http://www.w3.org/2000/svg" version="1.1">
<g fill="none" stroke="black" stroke-linecap="round" stroke-linejoin="round" stroke-width="1.2673">
<g transform="translate(359.7564,87.52) scale(2.3673) translate(-271,-47)">
<path id="0" d="M272 83 C272 83 271.1056 172.4502 272 261 C272.1006 270.9595 274 280.9999 274 281 C274 281 273.945 278.0083 274 278 C276.445 277.6333 293.9692 278.2786 294 278 C296.7748 252.9011 296.7341 103.348 296 79 C295.9991 78.9705 290.6681 77.9328 288 79 C284.865 80.254 284.1366 83.8929 281 85 C277.5598 86.2142 270.9993 85.0003 271 85 C271.0016 84.9993 293 80 293 80 "/>
<path id="1" d="M274 283 C274 283 279.3737 285.7473 281 289 C285.3654 297.7308 287.9981 311 288 311 C288 311 286.9988 299.3459 288 289 C288.4228 284.6311 291 280 291 280 "/>
<path id="2" d="M284 281 L287 300 "/>
<path id="3" d="M274 84 C274 84 272.521 60.9726 274 54 C274.2211 52.9576 277.6356 51.6729 281 51 C284.5415 50.2917 286.0393 50.0131 289 51 C292.2074 52.0691 295.465 53.927 296 56 C298.0638 63.9974 297 82 297 82 "/>
<path id="4" d="M273 53 C273 53 276.5083 57.5847 279 58 C285.5028 59.0838 297 57 297 57 "/>
<path id="5" d="M297 55 C297 55 303.9915 52.9161 304 53 C304.4688 57.621 304 124 304 124 "/>
<path id="6" d="M296 55 C296 55 296.0823 50.0487 297 49 C297.9677 47.8941 300.7583 47.2802 303 47 C303.6725 46.9159 304.9372 47.6544 305 48 C305.4608 50.5343 305 58 305 58 "/>
</g>
</g>
</svg>
