<?xml version="1.0" encoding="utf-8"?>
<!DOCTYPE svg PUBLIC "-//W3C//DTD SVG 1.1//EN" "http://www.w3.org/Graphics/SVG/1.1/DTD/svg11.dtd">
<svg viewBox="0 0 800 800" preserveAspectRatio="xMinYMin meet" xmlns="http://www.w3.org/2000/svg" version="1.1">
<g fill="none" stroke="black" stroke-linecap="round" stroke-linejoin="round" stroke-width="1.0849">
<g transform="translate(337.7805,87.52) scale(2.7653) translate(-254,-108.1333)">
<path id="0" d="M261 108.1333 C261 108.1333 276.1907 107.6797 290 109.1333 C294.42 109.5986 298.9833 111.7985 299 112.1333 C299.0805 113.7442 291.5387 121.1609 291 129.1333 C286.9728 188.7365 289 260.1333 289 260.1333 "/>
<path id="1" d="M260 109.1333 C260 109.1333 261.088 145.637 259 181.1333 C258.1222 196.0563 255.2844 196.2349 254 211.1333 C252.8183 224.8416 253.1862 225.2985 254 239.1333 C254.6736 250.5848 255.5666 255.2531 257 262.1333 C257.086 262.5459 259.0075 262.9234 259 263.1333 C258.7811 269.2616 256.5148 276.7485 256 290.1333 C255.5261 302.4549 257 315.1333 257 315.1333 "/>
<path id="2" d="M290 258.1333 C290 258.1333 287.3488 264.738 287 271.1333 C285.887 291.5383 290.3649 299.1561 287 313.1333 C285.7879 318.1683 278.6446 319.0373 274 325.1333 C271.607 328.2741 272.1894 332.6041 271 334.1333 C270.6735 334.5531 267.1018 334.3573 267 334.1333 C266.3585 332.7221 266.4254 324.6931 266 323.1333 C265.9794 323.0579 264.0735 323.2926 264 323.1333 C262.8175 320.5713 261.3242 312.5925 260 310.1333 C259.8588 309.8712 257 310.1333 257 310.1333 "/>
<path id="3" d="M268 331.1333 C268 331.1333 268.5496 328.4712 269 328.1333 C269.4158 327.8215 271.8125 327.9458 272 328.1333 C272.1875 328.3208 272.2617 330.924 272 331.1333 C271.3675 331.6393 267.2879 332.3732 267 332.1333 C266.5855 331.7879 265.9154 326.1898 266 326.1333 C266.1599 326.0268 273 328.1276 273 328.1333 C273 328.139 266.7146 330.312 266 330.1333 C265.7801 330.0784 264.7173 327.5469 265 326.1333 C265.491 323.6782 266.7433 321.0758 268 320.1333 C268.8378 319.505 272.6875 319.8208 273 320.1333 C273.3125 320.4458 273.547 323.8571 273 325.1333 C272.6406 325.972 270.5365 327.1333 270 327.1333 C269.6423 327.1333 268 325.1333 268 325.1333 "/>
<path id="4" d="M266 326.1333 C266 326.1333 269.9448 327.2161 270 327.1333 C270.2317 326.7858 269.9741 320.198 270 320.1333 C270.0044 320.1222 272 322.1333 272 322.1333 "/>
</g>
</g>
</svg>
