<?xml version="1.0" encoding="utf-8"?>
<!DOCTYPE svg PUBLIC "-//W3C//DTD SVG 1.1//EN" "http://www.w3.org/Graphics/SVG/1.1/DTD/svg11.dtd">
<svg viewBox="0 0 800 800" preserveAspectRatio="xMinYMin meet" xmlns="http://www.w3.org/2000/svg" version="1.1">
<g fill="none" stroke="black" stroke-linecap="round" stroke-linejoin="round" stroke-width="2.0113">
<g transform="translate(87.52,336.6091) scale(1.4916) translate(-101,-232.1333)">
<path id="0" d="M112 232.1333 C112 232.1333 131.9619 230.6689 151 232.1333 C163.8798 233.1241 164.0329 236.239 177 237.1333 C235.7425 241.1845 296 242.1333 296 242.1333 "/>
<path id="1" d="M113 233.1333 C113 233.1333 103.8612 250.2552 101 265.1333 C99.3641 273.6399 101.182 283.124 103 285.1333 C104.3655 286.6426 116.5649 287.1638 120 286.1333 C121.049 285.8186 122.6681 282.5185 123 279.1333 C125.0109 258.6223 125 235.1333 125 235.1333 "/>
<path id="2" d="M116 288.1333 C116 288.1333 116.7139 286.147 117 286.1333 C127.7097 285.6233 137.7417 284.7828 158 286.1333 C182.4087 287.7606 182.5908 290.7385 207 292.1333 C234.7023 293.7163 235.2747 291.0805 263 292.1333 C274.4436 292.5679 275.2213 295.3962 286 295.1333 C294.5083 294.9258 295.1064 292.1796 304 291.1333 C311.704 290.227 320 291.1333 320 291.1333 "/>
<path id="3" d="M284 241.1333 L322 243.1333 "/>
<path id="4" d="M323 236.1333 L321 300.1333 "/>
<path id="5" d="M322 293.1333 C322 293.1333 323.0822 298.8647 324 299.1333 C333.9589 302.0481 343.7138 304.6975 363 305.1333 C430.9848 306.6697 501 303.1333 501 303.1333 "/>
<path id="6" d="M323 238.1333 C323 238.1333 326.7515 232.216 329 232.1333 C375.9767 230.4062 394.2502 231.5444 459 233.1333 C475.4701 233.5375 480.4153 232.3616 492 236.1333 C496.6307 237.641 500.0048 241.7178 502 247.1333 C505.8688 257.6343 505.0409 260.7059 506 274.1333 C507.0194 288.4044 507.1172 299.8936 506 303.1333 C505.8672 303.5186 496 303.1333 496 303.1333 "/>
<path id="7" d="M494 235.1333 C494 235.1333 509.9646 234.3397 513 236.1333 C514.5635 237.0572 515.3431 242.1278 516 248.1333 C518.7939 273.6778 521.4228 294.3327 520 300.1333 C519.8558 300.7211 503 301.1333 503 301.1333 "/>
<path id="8" d="M488 300.1333 C488 300.1333 486.9798 306.6745 485 308.1333 C480.4547 311.4825 476.9116 312.9849 469 314.1333 C447.2243 317.2943 445.907 316.9288 423 317.1333 C390.1614 317.4265 381.4215 317.8468 357 315.1333 C354.5415 314.8602 352.8994 312.2199 351 309.1333 C349.387 306.5122 349 302.1333 349 302.1333 "/>
</g>
</g>
</svg>
