<?xml version="1.0" encoding="utf-8"?>
<!DOCTYPE svg PUBLIC "-//W3C//DTD SVG 1.1//EN" "http://www.w3.org/Graphics/SVG/1.1/DTD/svg11.dtd">
<svg viewBox="0 0 800 800" preserveAspectRatio="xMinYMin meet" xmlns="http://www.w3.org/2000/svg" version="1.1">
<g fill="none" stroke="black" stroke-linecap="round" stroke-linejoin="round" stroke-width="2.7266">
<g transform="translate(87.52,365.3411) scale(1.1003) translate(0,-315)">
<path id="0" d="M483 315 L482 354 "/>
<path id="1" d="M484 324 C484 324 503.1998 322.4303 522 323 C535.9088 323.4215 537.8408 322.7378 550 326 C556.3936 327.7154 563 334 563 334 "/>
<path id="2" d="M484 350 C484 350 486.2421 352 488 352 C509.0945 352 514.0885 354.1604 536 350 C551.1581 347.1219 567 337 567 337 "/>
<path id="3" d="M568 336 L520 338 "/>
<path id="4" d="M520 336 C520 336 520.1716 333.0763 520 333 C518.7844 332.4597 513.2726 331.5868 511 332 C510.344 332.1193 509.1021 333.7744 509 335 C508.7124 338.451 509.2278 343.3682 510 344 C510.9233 344.7554 518.6639 344.8907 520 344 C520.9798 343.3468 522 336 522 336 "/>
<path id="5" d="M483 350 L483 360 "/>
<path id="6" d="M482 316 L403 319 "/>
<path id="7" d="M405 359 L486 359 "/>
<path id="8" d="M404 319 C404 319 401.4144 324.6126 401 330 C399.9668 343.4316 399.9461 346.7588 401 358 C401.1611 359.7188 404 362 404 362 "/>
<path id="9" d="M484 319 L433 320 "/>
<path id="10" d="M486 324 L440 322 "/>
<path id="11" d="M483 328 L444 328 "/>
<path id="12" d="M484 333 L449 332 "/>
<path id="13" d="M485 338 L427 336 "/>
<path id="14" d="M486 341 L419 341 "/>
<path id="15" d="M484 345 L426 345 "/>
<path id="16" d="M484 349 L422 351 "/>
<path id="17" d="M484 356 L439 356 "/>
<path id="18" d="M408 319 C408 319 352.8333 317.297 298 318 C275.0479 318.2943 274.9707 320.5898 252 321 C191.1486 322.0866 190.0065 320.0976 130 321 C124.5748 321.0816 119.2153 322.1976 119 323 C117.3043 329.3202 117.7044 361.6524 119 362 C139.4729 367.4927 201.0198 365.493 283 367 C336.9567 367.9919 337.3563 368.1921 391 367 C404.444 366.7012 418 364 418 364 "/>
<path id="19" d="M156 320 C156 320 152.6138 326.1687 152 332 C150.7151 344.2062 150.9331 345.9087 152 358 C152.3391 361.8435 155 366 155 366 "/>
<path id="20" d="M157 320 C157 320 153.7736 317.1981 151 317 C134.9321 315.8523 132.827 315.8499 115 317 C86.5822 318.8334 86.4203 321.2948 58 323 C36.6947 324.2783 35.6853 321.8508 15 323 C9.6282 323.2984 8.4425 323.9268 4 326 C1.8982 326.9809 0 330 0 330 "/>
<path id="21" d="M0 331 L0 332 "/>
<path id="22" d="M2 328 L0 338 "/>
<path id="23" d="M3 341 C3 341 -0.30858 357.6752 1 364 C1.4435 366.1437 4.8321 368.2366 9 370 C16.9556 373.3658 18.2217 374.7024 27 375 C132.3725 378.5719 208.9246 378.4942 245 378 C245.1791 377.9975 246.3364 373.3456 246 372 C245.8391 371.3565 244.2919 370.0404 243 370 C203.7545 368.7736 150 369 150 369 "/>
<path id="24" d="M3 346 C3 346 2.1874 340.3337 3 336 C3.5332 333.156 4.0486 332.3061 6 330 C9.1468 326.2811 10.1419 325.0577 14 323 C16.4771 321.6789 21 322 21 322 "/>
<path id="25" d="M4 325 C4 325 2 343 2 343 C2 343 1.6229 332.358 4 328 C5.8399 324.6268 9.5178 321.4363 14 321 C57.3846 316.7767 65.7106 317.738 117 317 C134.9021 316.7424 153 319 153 319 "/>
<path id="26" d="M43 322 L80 317 "/>
</g>
</g>
</svg>
