<?xml version="1.0" encoding="utf-8"?>
<!DOCTYPE svg PUBLIC "-//W3C//DTD SVG 1.1//EN" "http://www.w3.org/Graphics/SVG/1.1/DTD/svg11.dtd">
<svg viewBox="0 0 800 800" preserveAspectRatio="xMinYMin meet" xmlns="http://www.w3.org/2000/svg" version="1.1">
<g fill="none" stroke="black" stroke-linecap="round" stroke-linejoin="round" stroke-width="1.5073">
<g transform="translate(87.52,361.1888) scale(1.9903) translate(-112,-103.4167)">
<path id="0" d="M112 112.4167 L114 124.4167 "/>
<path id="1" d="M115 125.4167 L129 125.4167 "/>
<path id="2" d="M127 125.4167 C127 125.4167 178.0296 127.528 211 126.4167 C213.0163 126.3487 213.7823 122.8836 216 122.4167 C221.3146 121.2978 230.0005 122.4164 230 122.4167 C229.9993 122.4172 209.9987 126.4164 210 126.4167 C210.0032 126.4173 244.2909 127.6658 256 127.4167 C256.2655 127.411 256.71 125.4328 257 125.4167 C266.1349 124.9092 282.8651 125.9242 292 125.4167 C292.29 125.4006 292.7695 123.4118 293 123.4167 C304.0889 123.6526 339 126.4167 339 126.4167 "/>
<path id="3" d="M114 109.4167 C114 109.4167 121.0614 111.3509 128 111.4167 C225.5038 112.3409 228.8649 113.2052 325 111.4167 C333.8202 111.2526 343 107.4167 343 107.4167 "/>
<path id="4" d="M342 107.4167 C342 107.4167 341.9759 103.4179 342 103.4167 C349.228 103.0553 402 104.4167 402 104.4167 "/>
<path id="5" d="M342 125.4167 C342 125.4167 342.7265 131.3879 343 131.4167 C352.3868 132.4048 375.6025 132.9262 399 131.4167 C401.6147 131.248 402.2287 128.2694 405 127.4167 C407.6829 126.5912 412 127.4167 412 127.4167 "/>
<path id="6" d="M404 105.4167 C404 105.4167 413.591 104.4126 418 106.4167 C421.6881 108.0931 424.2215 111.4149 426 115.4167 C427.2749 118.2852 427.1144 122.8565 426 124.4167 C424.4964 126.5217 421.0694 127.8568 416 129.4167 C408.5648 131.7044 400 132.4167 400 132.4167 "/>
<path id="7" d="M344 103.4167 C344 103.4167 346.4871 111.328 346 117.4167 C345.6016 122.3967 342 128.4167 342 128.4167 "/>
<path id="8" d="M407 127.4167 L416 127.4167 "/>
<path id="9" d="M413 125.4167 C413 125.4167 417.5655 128.9683 418 130.4167 C418.2941 131.3971 416.8585 135.1137 416 135.4167 C412.4989 136.6523 408.0384 135.0631 401 136.4167 C395.5475 137.4652 395.3959 139.828 390 140.4167 C369.1371 142.6926 353.2371 142.8991 346 142.4167 C345.78 142.402 345 137.4167 345 137.4167 "/>
<path id="10" d="M417 127.4167 C417 127.4167 414.7388 132.0473 412 133.4167 C403.6125 137.6104 391 140.4167 391 140.4167 "/>
<path id="11" d="M348 136.4167 C348 136.4167 354.5881 138.8823 361 139.4167 C372.1301 140.3442 381.1466 139.6648 384 139.4167 C384.0216 139.4148 383.9407 137.4282 384 137.4167 C388.8709 136.4739 415 133.4167 415 133.4167 "/>
<path id="12" d="M113 110.4167 L114 106.4167 "/>
<path id="13" d="M152 117.4167 L155 123.4167 "/>
<path id="14" d="M159 115.4167 L164 123.4167 "/>
<path id="15" d="M156 118.4167 L159 118.4167 "/>
<path id="16" d="M168 116.4167 L174 126.4167 "/>
<path id="17" d="M172 123.4167 L184 119.4167 "/>
<path id="18" d="M172 119.4167 L175 119.4167 "/>
<path id="19" d="M169 114.4167 L181 114.4167 "/>
<path id="20" d="M187 113.4167 C187 113.4167 189.776 114.0703 191 115.4167 C194.1389 118.8695 196.9969 124.4094 197 124.4167 C197.0009 124.4187 194 122.4167 194 122.4167 "/>
<path id="21" d="M188 112.4167 C188 112.4167 194.2088 112.4017 197 113.4167 C197.9214 113.7517 199 115.6977 199 116.4167 C199 117.1356 197 119.4167 197 119.4167 C197.526 119.7673 202.6593 120.7734 208 122.4167 C209.0337 122.7347 210 123.3967 210 123.4167 C210 123.4367 208 124.4167 208 124.4167 "/>
<path id="22" d="M210 114.4167 C210 114.4167 212.9586 121.9836 216 124.4167 C218.3028 126.2589 224.8866 126.5625 225 126.4167 C225.2142 126.1412 224.7592 119.1864 223 115.4167 C222.0663 113.416 220.2597 112.1699 218 111.4167 C215.5024 110.5842 211 111.4167 211 111.4167 "/>
</g>
</g>
</svg>
