<?xml version="1.0" encoding="utf-8"?>
<!DOCTYPE svg PUBLIC "-//W3C//DTD SVG 1.1//EN" "http://www.w3.org/Graphics/SVG/1.1/DTD/svg11.dtd">
<svg viewBox="0 0 800 800" preserveAspectRatio="xMinYMin meet" xmlns="http://www.w3.org/2000/svg" version="1.1">
<g fill="none" stroke="black" stroke-linecap="round" stroke-linejoin="round" stroke-width="1.1617">
<g transform="translate(87.52,241.1775) scale(2.5825) translate(-162,-134)">
<path id="0" d="M162 246 C162 246 165.4041 251.7037 169 255 C170.6113 256.477 172.7856 257 174 257 C174.4858 257 175.9402 255.7175 176 255 C176.2736 251.7163 175.9459 245.7432 175 245 C173.5277 243.8432 162 244 162 244 "/>
<path id="1" d="M166 244 C166 244 169.266 243.5028 171 242 C176.0303 237.6404 175.649 235.077 181 231 C185.3113 227.7152 192 226 192 226 "/>
<path id="2" d="M179 257 C179 257 182.4659 257.8993 184 257 C194.421 250.8911 208 240 208 240 "/>
<path id="3" d="M193 226 C193 226 197.7442 224.7122 198 225 C198.9408 226.0584 198.7274 231.1366 201 235 C203.1476 238.6509 208 242 208 242 "/>
<path id="4" d="M200 223 C200 223 229.1631 208.0536 259 195 C285.0418 183.6067 312 174 312 174 "/>
<path id="5" d="M206 242 C206 242 211.3469 243.3741 215 242 C261.8493 224.3778 275.5673 219.9723 315 201 C318.5608 199.2868 319.5269 195.6648 321 191 C322.1146 187.4704 322.144 185.2412 321 182 C319.714 178.3562 315 174 315 174 "/>
<path id="6" d="M313 174 C313 174 309.4369 182.2458 310 186 C310.4339 188.8929 316 194 316 194 "/>
<path id="7" d="M313 171 C313 171 388.9231 145.7041 400 144 C400.243 143.9626 403.0954 150.9691 404 157 C404.4556 160.0376 404.2393 162.8434 403 164 C399.6222 167.1526 396.2186 168.7375 389 171 C363.419 179.0179 361.3479 176.7992 336 185 C328.2505 187.5072 321 193 321 193 "/>
<path id="8" d="M397 146 C397 146 393.6959 136.5439 392 134 C391.7788 133.6682 390.2535 133.5627 389 134 C370.1006 140.5928 354.5675 145.6302 349 149 C348.6776 149.1951 350.1977 155.7163 351 157 C351.1626 157.2602 354 157 354 157 "/>
</g>
</g>
</svg>
