<?xml version="1.0" encoding="utf-8"?>
<!DOCTYPE svg PUBLIC "-//W3C//DTD SVG 1.1//EN" "http://www.w3.org/Graphics/SVG/1.1/DTD/svg11.dtd">
<svg viewBox="0 0 800 800" preserveAspectRatio="xMinYMin meet" xmlns="http://www.w3.org/2000/svg" version="1.1">
<g fill="none" stroke="black" stroke-linecap="round" stroke-linejoin="round" stroke-width="1.0705">
<g transform="translate(87.52,189.8117) scale(2.8025) translate(-170,-110.1333)">
<path id="0" d="M171 138.1333 C171 138.1333 177.1126 127.9545 184 123.1333 C190.2133 118.784 192.3883 119.3321 201 117.1333 C215.6527 113.3922 216.0518 113.0019 231 111.1333 C243.6999 109.5458 244.0185 110.1333 257 110.1333 C290.4523 110.1333 292.4235 109.1092 324 111.1333 C329.3 111.4731 330.5325 112.1178 335 115.1333 C349.5193 124.9339 364 138.1333 364 138.1333 "/>
<path id="1" d="M173 141.1333 C173 141.1333 192.9884 141.7349 211 145.1333 C218.4975 146.548 218.8958 150.7458 226 151.1333 C270.0324 153.5351 275.1945 154.7582 321 151.1333 C342.6349 149.4212 365 140.1333 365 140.1333 "/>
<path id="2" d="M365 141.1333 C365 141.1333 366.7295 149.3158 365 155.1333 C361.7546 166.0496 360.5448 167.6149 354 178.1333 C346.8558 189.6151 346.0253 189.8632 337 200.1333 C331.7359 206.1235 331.4821 206.5238 325 211.1333 C309.3253 222.2798 308.8711 223.0952 292 232.1333 C281.3926 237.8159 279.9659 239.5943 269 241.1333 C253.6969 243.2811 235 240.1333 235 240.1333 "/>
<path id="3" d="M170 140.1333 C170 140.1333 169.9645 147.0267 171 150.1333 C171.3006 151.0353 173.8264 151.3001 174 152.1333 C175.4824 159.2488 172.7501 165.6835 176 174.1333 C179.1402 182.2977 183.7725 182.3291 189 191.1333 C192.9256 197.7448 190.5651 200.558 195 206.1333 C206.6787 220.8151 209.1281 224.5514 224 235.1333 C232.597 241.2504 247 243.1333 247 243.1333 "/>
<path id="4" d="M367 154.1333 C367 154.1333 372.2626 151.9135 376 152.1333 C379.4403 152.3357 383.8036 154.2169 384 155.1333 C385.0235 159.9096 386.3533 172.2975 382 180.1333 C374.5717 193.5043 367.8238 200.9328 354 209.1333 C343.4313 215.4029 323 215.1333 323 215.1333 "/>
<path id="5" d="M369 146.1333 C369 146.1333 373.2537 143.4455 377 143.1333 C384.2278 142.531 392.6784 143.2971 393 144.1333 C394.6912 148.5304 395.6488 165.7137 392 182.1333 C389.3376 194.1139 387.04 199.2848 379 207.1333 C369.4093 216.4956 363.8889 218.7609 350 223.1333 C339.6703 226.3853 329.2978 222.1379 325 224.1333 C323.5533 224.805 323.4474 234.6859 322 236.1333 C321.1316 237.0018 313.6281 236.9185 313 236.1333 C311.4821 234.2359 310 221.1333 310 221.1333 "/>
<path id="6" d="M213 230.1333 C213 230.1333 201.1858 233.157 200 235.1333 C198.666 237.3567 199.8109 249.6295 201 250.1333 C211.0609 254.3964 231.728 258.4904 259 260.1333 C270.4942 260.8258 272.3017 258.7328 284 255.1333 C291.1207 252.9424 292.917 252.0868 298 248.1333 C300.4689 246.2131 300.9906 244.4138 302 241.1333 C302.7358 238.742 302.7887 236.2601 302 235.1333 C300.8301 233.462 295 231.1333 295 231.1333 "/>
</g>
</g>
</svg>
