<?xml version="1.0" encoding="utf-8"?>
<!DOCTYPE svg PUBLIC "-//W3C//DTD SVG 1.1//EN" "http://www.w3.org/Graphics/SVG/1.1/DTD/svg11.dtd">
<svg viewBox="0 0 800 800" preserveAspectRatio="xMinYMin meet" xmlns="http://www.w3.org/2000/svg" version="1.1">
<g fill="none" stroke="black" stroke-linecap="round" stroke-linejoin="round" stroke-width="0.99846">
<g transform="translate(87.52,192.6815) scale(3.0046) translate(-180,-139.1333)">
<path id="0" d="M245 154.1333 C245 154.1333 247.4299 149.1804 250 148.1333 C258.2984 144.7525 261.0873 144.1254 272 143.1333 C293.4278 141.1853 316 142.1333 316 142.1333 "/>
<path id="1" d="M268 142.1333 C268 142.1333 279.0632 139.4979 290 139.1333 C323.6515 138.0116 326.4324 136.0452 358 139.1333 C369.5502 140.2632 372.7048 143.0049 382 148.1333 C384.8439 149.7024 385.6296 151.7072 387 155.1333 C388.2791 158.331 388.6187 162.2826 388 163.1333 C387.188 164.2499 383.3339 165.9698 379 166.1333 C332.8529 167.8747 330.2243 167.542 282 167.1333 C271.5504 167.0448 271.0769 166.9655 261 165.1333 C254.9967 164.0418 252.5843 163.8743 249 161.1333 C246.1717 158.9705 244 152.1333 244 152.1333 "/>
<path id="2" d="M244 152.1333 C244 152.1333 244.604 185.9951 249 217.1333 C250.4042 227.0797 251.269 228.3809 256 237.1333 C260.7794 245.9753 261.9507 246.3288 269 254.1333 C275.7566 261.6138 276.1058 262.2127 284 268.1333 C289.6498 272.3707 290.47 272.5781 297 275.1333 C301.4736 276.8839 302.0666 276.9472 307 277.1333 C328.0545 277.9278 334.8632 282.3807 350 277.1333 C364.4374 272.1284 370.4005 263.6994 382 251.1333 C385.4863 247.3565 385.7466 244.3845 386 238.1333 C387.1737 209.1814 384.2661 207.2233 385 177.1333 C385.2536 166.7342 388 156.1333 388 156.1333 "/>
<path id="3" d="M247 172.1333 C247 172.1333 229.3337 171.0444 213 172.1333 C207.6195 172.492 205.9256 172.7343 202 175.1333 C198.3633 177.3558 195.8808 179.6101 195 183.1333 C193.1932 190.3604 193.0211 195.4652 195 203.1333 C196.2927 208.1424 198.2221 210.7205 203 214.1333 C217.3337 224.3717 220.7756 227.4406 237 233.1333 C246.3161 236.4021 257.3793 234.2473 260 234.1333 C260.0099 234.1329 260 232.1333 260 232.1333 "/>
<path id="4" d="M244 168.1333 C244 168.1333 242.2974 166.1982 241 166.1333 C225.5153 165.3591 221.6711 164.3363 204 166.1333 C193.2014 167.2315 186.9754 169.0237 182 172.1333 C180.5267 173.0541 180 176.8344 180 181.1333 C180 192.5971 179.3914 194.6991 182 205.1333 C183.464 210.9893 184.7891 212.0071 189 217.1333 C195.9136 225.5499 196.5111 227.627 205 233.1333 C213.428 238.6001 215.8333 239.3652 226 241.1333 C237.3512 243.1075 243.9155 244.0054 251 241.1333 C256.1238 239.0561 263 226.1333 263 226.1333 "/>
</g>
</g>
</svg>
