<?xml version="1.0" encoding="utf-8"?>
<!DOCTYPE svg PUBLIC "-//W3C//DTD SVG 1.1//EN" "http://www.w3.org/Graphics/SVG/1.1/DTD/svg11.dtd">
<svg viewBox="0 0 800 800" preserveAspectRatio="xMinYMin meet" xmlns="http://www.w3.org/2000/svg" version="1.1">
<g fill="none" stroke="black" stroke-linecap="round" stroke-linejoin="round" stroke-width="1.0753">
<g transform="translate(87.52,260.5) scale(2.79) translate(-223,-219.4167)">
<path id="0" d="M225 226.4167 C225 226.4167 249.5454 230.488 274 231.4167 C328.2079 233.4752 329.8974 234.3547 383 232.4167 C396.7523 231.9148 411 226.4167 411 226.4167 "/>
<path id="1" d="M226 225.4167 C226 225.4167 235.6848 220.9027 245 220.4167 C291.4542 217.993 293.0015 219.7645 341 219.4167 C361.9978 219.2645 362.3453 218.0211 383 219.4167 C398.9031 220.4912 415 224.4167 415 224.4167 "/>
<path id="2" d="M223 227.4167 C223 227.4167 223.6016 237.8229 226 247.4167 C228.514 257.4728 227.9562 259.4306 233 267.4167 C238.9352 276.814 240.9215 277.9888 250 285.4167 C256.6853 290.8865 257.791 291.0887 266 294.4167 C275.7898 298.3855 276.6432 299.2839 287 300.4167 C307.6164 302.6716 310.1139 304.3544 330 301.4167 C351.8425 298.1899 352.9418 294.7694 375 287.4167 C378.1089 286.3804 378.8532 286.4101 381 284.4167 C385.2238 280.4946 384.5606 277.9682 389 274.4167 C393.6614 270.6876 396.0308 271.7295 401 268.4167 C402.7599 267.2434 403.6299 266.3289 404 264.4167 C406.2284 252.9032 404.3594 250.3264 407 237.4167 C408.743 228.8952 413 220.4167 413 220.4167 "/>
<path id="3" d="M270 298.4167 C270 298.4167 266.5961 304.6706 265 310.4167 C264.2847 312.9917 264.404 314.8274 265 316.4167 C265.3104 317.2444 266.7043 318.3715 268 318.4167 C303.047 319.6392 312.7199 321.3697 351 319.4167 C358.0636 319.0563 360.8281 316.9553 366 313.4167 C368.3794 311.7887 369.2275 309.6996 370 306.4167 C370.9727 302.2826 371.1127 299.9772 370 296.4167 C369.1585 293.724 365 290.4167 365 290.4167 "/>
<path id="4" d="M412 229.4167 C412 229.4167 416.1908 221.695 418 221.4167 C422.8502 220.6705 433.6761 221.8382 438 225.4167 C442.7397 229.3392 445.1665 235.8417 447 245.4167 C449.2789 257.3174 448.5982 261.5492 447 272.4167 C446.5421 275.5301 444.2912 278.5918 442 279.4167 C435.687 281.6894 430.0233 283.0213 422 281.4167 C412.9942 279.6155 410.5957 276.9179 402 271.4167 C399.1217 269.5746 397 265.4167 397 265.4167 "/>
<path id="5" d="M406 233.4167 C406 233.4167 411.2326 231.4167 416 231.4167 C424.5813 231.4167 433.0485 231.9366 434 233.4167 C435.8229 236.2523 434.7487 248.56 434 259.4167 C433.9096 260.727 433.1462 261.729 432 262.4167 C429.0441 264.1902 427.8602 264.9713 424 265.4167 C415.6748 266.3773 406 265.4167 406 265.4167 "/>
</g>
</g>
</svg>
