<?xml version="1.0" encoding="utf-8"?>
<!DOCTYPE svg PUBLIC "-//W3C//DTD SVG 1.1//EN" "http://www.w3.org/Graphics/SVG/1.1/DTD/svg11.dtd">
<svg viewBox="0 0 800 800" preserveAspectRatio="xMinYMin meet" xmlns="http://www.w3.org/2000/svg" version="1.1">
<g fill="none" stroke="black" stroke-linecap="round" stroke-linejoin="round" stroke-width="1.2529">
<g transform="translate(87.52,121.0428) scale(2.3945) translate(-218,-132)">
<path id="0" d="M218 155 C218 155 227.2348 147.1634 237 144 C261.1874 136.1646 263.4368 134.5333 289 132 C317.3083 129.1947 319.4335 129.9193 348 133 C369.3029 135.2974 371.1006 136.4812 391 143 C398.7181 145.5283 406 152 406 152 "/>
<path id="1" d="M220 155 L220 352 "/>
<path id="2" d="M407 153 L407 346 "/>
<path id="3" d="M221 353 C221 353 226.5749 359.9656 232 362 C240.3499 365.1312 242.5769 364.7631 253 365 C307.9152 366.2481 310.2509 367.3888 364 365 C375.7506 364.4778 376.8054 363.1654 388 359 C397.6961 355.3922 407 349 407 349 "/>
<path id="4" d="M233 161 C233 161 244.3836 154.4166 256 151 C269.1968 147.1186 270.1216 146.7976 284 146 C312.9468 144.3364 315.5562 142.8455 343 146 C356.5588 147.5585 357.2137 152.7734 371 156 C379.7397 158.0455 390 157 390 157 "/>
<path id="5" d="M236 162 C236 162 239.442 161.1889 242 162 C258.6792 167.2885 260.0711 172.7992 277 175 C306.9913 178.8989 310.1404 176.4818 342 175 C352.3843 174.517 353.5449 174.5457 363 171 C376.5523 165.9179 390 157 390 157 "/>
<path id="6" d="M409 215 C409 215 407.0492 202.1925 410 195 C413.6366 186.1359 416.9422 183.4823 425 176 C429.8135 171.5303 431.8833 170.1893 438 169 C447.7961 167.0952 451.4071 168.2621 461 169 C462.3154 169.1012 463.001 169.7512 464 171 C468.5865 176.7331 469.3838 177.2498 473 184 C476.6959 190.899 478.4504 191.8546 479 199 C481.2396 228.115 482.7963 233.8444 479 262 C477.3358 274.3429 474.2633 277.3845 467 288 C462.4186 294.696 460.1195 295.1458 453 300 C449.7758 302.1983 448.8365 302.6971 445 303 C431.0269 304.1031 425.5507 304.9961 415 303 C412.0724 302.4461 408 296 408 296 "/>
<path id="7" d="M409 237 C409 237 410.9783 219.4959 416 206 C418.2937 199.8358 419.9552 198.3569 425 194 C429.9619 189.7147 432.0529 188.0813 438 187 C446.2578 185.4986 453.4407 185.7204 458 188 C460.6688 189.3344 462.6824 194.1648 464 200 C465.8969 208.4005 464.7936 209.5068 465 219 C465.2929 232.475 468.1814 235.2628 465 246 C461.26 258.6224 458.0387 261.9203 449 273 C443.7561 279.428 441.0234 281.893 434 284 C424.29 286.913 409 285 409 285 "/>
<path id="8" d="M238 337 C238 337 238.8687 186.1908 239 185 C239.0125 184.8868 246.6196 194.974 253 201 C254.0837 202.0235 256.9946 201.7875 257 202 C257.7665 232.0864 257 358 257 358 C257 358 257.5571 355.7428 257 355 C250.5934 346.4578 239 334 239 334 "/>
<path id="9" d="M246 175 C246 175 268.233 187.5278 290 195 C300.2831 198.53 301.5487 197.3393 313 198 C327.3308 198.8268 327.9755 199.4763 342 198 C355.8464 196.5425 356.7129 195.8463 370 192 C375.1149 190.5194 375.9211 189.9912 380 187 C382.8055 184.9427 385 181 385 181 "/>
</g>
</g>
</svg>
