<?xml version="1.0" encoding="utf-8"?>
<!DOCTYPE svg PUBLIC "-//W3C//DTD SVG 1.1//EN" "http://www.w3.org/Graphics/SVG/1.1/DTD/svg11.dtd">
<svg viewBox="0 0 800 800" preserveAspectRatio="xMinYMin meet" xmlns="http://www.w3.org/2000/svg" version="1.1">
<g fill="none" stroke="black" stroke-linecap="round" stroke-linejoin="round" stroke-width="1.2673">
<g transform="translate(189.3127,87.52) scale(2.3673) translate(-193,-138)">
<path id="0" d="M200 182 C200 182 200.5194 185.8559 202 187 C209.3915 192.7116 211.6458 194.0014 222 199 C240.3551 207.8611 240.9437 208.4289 260 215 C269.3621 218.2283 270.1086 218.372 280 219 C300.9999 220.3333 302.1604 220.3893 323 219 C331.3682 218.4421 332.2447 218.1391 340 215 C352.6049 209.898 354.9864 209.1064 365 202 C368.6241 199.428 370.5243 196.8058 371 193 C372.11 184.1198 372.6948 178.3133 369 170 C364.36 159.56 360.3738 158.0949 351 148 C347.7486 144.4984 347.1148 143.6459 343 142 C335.6409 139.0563 334.3796 138.6983 326 138 C311.0134 136.7511 310.0099 136.3087 295 138 C275.1959 140.2314 274.2464 140.7806 255 146 C245.3381 148.6202 245.3843 152.0033 236 154 C223.1147 156.7416 221.3028 153.9534 208 156 C202.5415 156.8398 201.2259 157.5852 197 160 C195.3187 160.9607 194.1736 162.3504 194 164 C193.4007 169.6931 193.1323 175.8871 195 179 C196.3888 181.3147 206 184 206 184 "/>
<path id="1" d="M193 176 C193 176 200.2928 344.575 217 387 C220.0767 394.8128 250.0496 396.2258 282 402 C290.4936 403.535 292.4481 403.9874 300 402 C309.4951 399.5013 313.7036 398.0865 320 392 C326.0205 386.1802 325.4403 382.6558 330 373 C333.9029 364.7349 334.5383 364.6809 337 356 C343.9246 331.5816 344.2877 331.1325 349 306 C354.7439 275.366 351.4614 271.244 358 244 C359.545 237.5627 364.2807 237.4275 367 231 C369.2402 225.7051 368.3651 220.0635 369 218 C369.0287 217.9067 370.9985 218.0191 371 218 C371.2485 214.7691 371 192 371 192 "/>
<path id="2" d="M222 198 C222 198 235.6513 194.3789 239 193 C239.1447 192.9404 238.9616 191.0055 239 191 C241.8422 190.594 250.3368 188.3895 260 190 C281.8003 193.6334 284.6814 195.498 305 202 C307.6126 202.836 307.5492 205.2648 310 206 C316.1665 207.8499 319.1314 205.6525 325 208 C329.9029 209.9612 335 216 335 216 "/>
</g>
</g>
</svg>
