<?xml version="1.0" encoding="utf-8"?>
<!DOCTYPE svg PUBLIC "-//W3C//DTD SVG 1.1//EN" "http://www.w3.org/Graphics/SVG/1.1/DTD/svg11.dtd">
<svg viewBox="0 0 800 800" preserveAspectRatio="xMinYMin meet" xmlns="http://www.w3.org/2000/svg" version="1.1">
<g fill="none" stroke="black" stroke-linecap="round" stroke-linejoin="round" stroke-width="1.0273">
<g transform="translate(87.52,167.8303) scale(2.9204) translate(-166,-120)">
<path id="0" d="M166,211C166,211 219.35613471108837,154.3980516701246 226,150C226.1146619097146,149.92409704568186 232.4096375002476,156.70942426509913 237,164C240.6804145351997,169.84536426178778 238.78075818567532,172.42915470114826 243,177C255.2200447568408,190.23838181991084 260.9239032911715,189.6183793226495 273,203C277.85041751999824,208.37478698161965 280,218 280,218"/>
<path id="1" d="M227,149C227,149 235.687540247193,148.437486584269 240,147C240.94663750671373,146.68445416442876 240.85142016540965,144.57428991729517 242,144C248.2351476734904,140.88242616325482 249.91048845980163,140.128818826368 258,138C268.60840136109846,135.2083154312899 269.83044648955024,137.3898511701499 280,134C293.0751402277211,129.64161992409296 293.32580608417384,126.33590844488789 306,122C311.1959763518553,120.22242914278634 318,121 318,121"/>
<path id="2" d="M318,120C318,120 321.1746289084441,127.17462890844413 326,132C339.993576165512,145.99357616551202 342.5736223428315,144.91710752514504 357,159C363.204120901962,165.05640373762964 364.68506241567416,166.3701248313484 368,173C369.78496639156003,176.5699327831201 369,183 369,183"/>
<path id="3" d="M166,215L167,265"/>
<path id="4" d="M279,215L280,263"/>
<path id="5" d="M281,216C281,216 290.35472011999144,206.8179232858367 300,203C312.53303839455816,198.0390056354874 317.0211477094748,200.36905220671022 329,197C330.5004061422959,196.57801077247927 330.6966246682047,194.39101259953858 332,194C334.33939162117104,193.29818251364867 337.0689655172414,194.77241379310345 339,194C340.2689655172414,193.49241379310345 340.5255836192151,190.4914721269283 342,190C349.59891519327584,187.46702826890805 353.3119909869022,188.7680025751708 363,186C366.5626871854618,184.98208937558235 370,182 370,182"/>
<path id="6" d="M269,196C269,196 272.74622184122313,190.83947163622784 277,189C289.68835298831243,183.5131446537027 292.8291583472467,185.59760770242016 306,180C311.77791682557955,177.5443853491287 311.73115941579283,173.46356682894643 317,172C327.1834733980474,169.17125738943127 331.3360174614139,173.04685215388173 342,170C350.2809696808015,167.63400866262813 359,160 359,160"/>
<path id="7" d="M253,179C253,179 273.8594742917392,174.558552378442 292,167C302.8911868362096,162.46200548491268 302.3831468938217,157.80604167957338 313,154C327.12978244278144,148.93460629409722 345,148 345,148"/>
<path id="8" d="M243,167C243,167 249.01493424740366,159.68296050978458 255,157C261.6612028878269,154.01394353304312 264.1148311765003,156.336346318074 272,154C277.0608744001758,152.50048165920717 277.2507601646144,150.03244344247514 282,149C287.5687165128639,147.78940945372523 291.3495310601945,150.82523446990274 295,149C299.77369015205334,146.61315492397333 300.71548645110925,139.84550729555656 306,137C310.8654772322387,134.3801276441792 314.6503433984163,137.1165522005279 321,135C325.45826952877155,133.51391015707617 330,129 330,129"/>
<path id="9" d="M248,142C248,142 250.5021949061604,147.5021949061604 254,151C257.96417910635153,154.96417910635154 260.74100382287775,153.97418119296668 264,158C268.2459477007933,163.24499421862703 268.89668219966756,165.38957262752658 271,172C272.0369297839174,175.25892217802612 270.11340158615536,176.89690555154368 271,180C271.79160572664705,182.77062004326458 273.9631505459079,182.88945163772374 275,186C278.67610260996286,197.02830782988863 281,210 281,210"/>
<path id="10" d="M272,137C272,137 278.92491978588697,149.2566067082474 283,160C283.8998273569234,162.37227212279816 281.9655842158339,164.16987976647542 283,166C287.1976292690797,173.42657486067944 291.340149855346,174.1240949625638 296,183C301.31995483461025,193.1332473040195 304,206 304,206"/>
<path id="11" d="M293,130C293,130 306.4700480939408,147.51382815265387 316,163C317.3369916214047,165.17261138478264 315.78876164607504,166.7121053314751 317,169C319.82622282582485,174.33842089322476 322.383002691758,174.50430565269178 325,180C326.93539993857126,184.06433987099965 325.2378484077309,185.97222493195633 327,190C328.3266773482026,193.03240536732025 332,196 332,196"/>
<path id="12" d="M316,123C316,123 316.7262114166816,136.07148568185903 320,145C321.47413491606806,149.02036795291292 324.3084251732247,148.6934802771595 327,153C331.5675209181642,160.30803346906268 332.3892109280841,161.16763278425222 335,169C336.58512193652035,173.75536580956114 334.4700378797541,176.50294372515228 336,180C337.0199747468306,182.3313708498985 340.46658322700545,182.95544430267392 342,185C342.4842368756825,185.64564916757666 342,188 342,188"/>
<path id="13" d="M200,214L203,272"/>
<path id="14" d="M202,214L248,215"/>
<path id="15" d="M249,217L250,269"/>
<path id="16" d="M201,215C201,215 212.21014662724195,223.60471260950084 218,232C220.8358465499223,236.11197749738736 220.46311752195834,238.09429274154183 221,244C221.91866557353794,254.1053213089173 223.79375193384948,259.85361485869833 221,265C217.76532939359743,270.95860374863633 202,279 202,279"/>
<path id="17" d="M249,214C249,214 237.3594719414253,220.1965324736306 236,225C232.05788084851483,238.92882100191431 231.98174755846134,252.00726757714128 234,267C234.54223095549173,271.02800138365285 238.4948713722826,273.62115352921193 243,277C245.32082383852108,278.7406178788908 249.7886856185363,279.2113143814637 250,279C250.46489163922013,278.5351083607799 251,269 251,269"/>
<path id="18" d="M370,184C370,184 376.2759599783057,194.6557598698341 378,205C381.0363689934318,223.21821396059067 380,244 380,244"/>
<path id="19" d="M285,265C285,265 289.80356556403336,260.6768442638656 294,260C303.41436935963565,258.481553329091 306.83397321423854,261.7186300223303 316,260C320.6350930905271,259.1309200455262 320.96387155813227,255.61875557060034 326,254C334.0065395288376,251.42646943715934 336.831091290972,253.04825963115087 344,251C345.466367690483,250.58103780271915 345.71887978403015,248.17793336332914 347,248C359.47790259131596,246.26695797342833 380,246 380,246"/>
<path id="20" d="M168,263C168,263 167.4696018651363,275.8029949784792 168,276C171.8446018651363,277.4279949784792 203,276 203,276"/>
<path id="21" d="M206,278C206,278 283.9999989474878,276.0000000296482 284,276C284.00000009438804,275.9999999973412 277.0729652292517,276.20430264190463 277,276C276.6122419245483,274.91427738873523 278.99992424049173,261.99992424049173 279,262C279.00010101267764,262.00010101267764 279,278 279,278"/>
</g>
</g>
</svg>
