<?xml version="1.0" encoding="utf-8"?>
<!DOCTYPE svg PUBLIC "-//W3C//DTD SVG 1.1//EN" "http://www.w3.org/Graphics/SVG/1.1/DTD/svg11.dtd">
<svg viewBox="0 0 800 800" preserveAspectRatio="xMinYMin meet" xmlns="http://www.w3.org/2000/svg" version="1.1">
<g fill="none" stroke="black" stroke-linecap="round" stroke-linejoin="round" stroke-width="1.1041">
<g transform="translate(98.3889,87.52) scale(2.7172) translate(-154,-136.1333)">
<path id="0" d="M227 158.1333 C227 158.1333 209.542 172.6379 195 189.1333 C176.37 210.2658 176.0176 215.3126 160 234.1333 C158.6603 235.7075 155 236.1333 155 236.1333 "/>
<path id="1" d="M228 160.1333 C228 160.1333 241.5565 176.2463 250 193.1333 C256.4286 205.9905 255.4574 207.6409 259 222.1333 C260.8722 229.7924 259.3722 231.9475 261 238.1333 C261.3733 239.5517 264 241.1333 264 241.1333 "/>
<path id="2" d="M228 160.1333 C228 160.1333 230.3948 157.0017 233 156.1333 C246.849 151.517 248.3894 151.4547 264 148.1333 C295.2922 141.4754 327 136.1333 327 136.1333 "/>
<path id="3" d="M329 136.1333 C329 136.1333 328.2381 138.9986 329 140.1333 C347.5824 167.8093 376 206.1333 376 206.1333 "/>
<path id="4" d="M154 236.1333 C154 236.1333 186.0301 234.3059 216 236.1333 C225.8151 236.7318 226.074 239.9656 236 241.1333 C251.0024 242.8983 267 242.1333 267 242.1333 "/>
<path id="5" d="M267 242.1333 C267 242.1333 273.6371 242.8604 279 241.1333 C301.9785 233.7335 302.4577 229.9018 326 223.1333 C341.5388 218.6659 345.2904 222.8897 359 218.1333 C366.9583 215.3723 375 206.1333 375 206.1333 "/>
<path id="6" d="M161 238.1333 L161 363.1333 "/>
<path id="7" d="M260 243.1333 L260 365.1333 "/>
<path id="8" d="M375 209.1333 L374 327.1333 "/>
<path id="9" d="M262 365.1333 C262 365.1333 279.5063 353.4601 298 347.1333 C335.3684 334.3494 376 326.1333 376 326.1333 "/>
<path id="10" d="M161 365.1333 L261 366.1333 "/>
<path id="11" d="M185 298.1333 C185 298.1333 186.9562 301.2875 187 304.1333 C187.4282 331.9673 186 363.1333 186 363.1333 "/>
<path id="12" d="M186 299.1333 L233 299.1333 "/>
<path id="13" d="M234 300.1333 L234 365.1333 "/>
<path id="14" d="M188 301.1333 C188 301.1333 193.4766 307.2345 199 311.1333 C201.2669 312.7335 204.9183 312.5342 205 313.1333 C206.2176 322.0627 208.1249 344.717 205 355.1333 C204.07 358.2334 191.3815 362.7016 190 363.1333 C189.9951 363.1349 189 360.1333 189 360.1333 "/>
<path id="15" d="M235 301.1333 C235 301.1333 233.2011 304.0328 231 305.1333 C223.1129 309.0769 213.8984 309.491 213 312.1333 C210.0789 320.7249 210.235 344.8291 214 355.1333 C215.3524 358.8346 232 364.1333 232 364.1333 "/>
</g>
</g>
</svg>
