<?xml version="1.0" encoding="utf-8"?>
<!DOCTYPE svg PUBLIC "-//W3C//DTD SVG 1.1//EN" "http://www.w3.org/Graphics/SVG/1.1/DTD/svg11.dtd">
<svg viewBox="0 0 800 800" preserveAspectRatio="xMinYMin meet" xmlns="http://www.w3.org/2000/svg" version="1.1">
<g fill="none" stroke="black" stroke-linecap="round" stroke-linejoin="round" stroke-width="1.0609">
<g transform="translate(87.52,127.1102) scale(2.8279) translate(-151.5,-206.8333)">
<path id="0" d="M152.5 309.8333 C152.5 309.8333 199.8206 266.7977 216.5 256.8333 C218.0375 255.9148 223.7797 259.6531 229.5 263.8333 C236.374 268.8567 236.5598 269.4362 242.5 275.8333 C249.4273 283.2935 248.5252 284.8585 255.5 291.8333 C259.5887 295.922 262.8695 296.2028 265.5 298.8333 C265.9642 299.2975 264.963 301.0816 265.5 301.8333 C268.7473 306.3795 273.5579 310.028 275.5 312.8333 C275.6417 313.038 274.4433 314.7483 274.5 314.8333 C274.6276 315.0247 277.5 315.8333 277.5 315.8333 "/>
<path id="1" d="M218.5 255.8333 C218.5 255.8333 285.692 251.2001 327.5 250.8333 C329.4036 250.8166 330.9441 252.5859 332.5 254.8333 C334.9542 258.3783 333.7338 260.9134 336.5 263.8333 C341.5315 269.1444 344.4154 268.3019 350.5 273.8333 C355.0036 277.9275 358.5 283.8333 358.5 283.8333 "/>
<path id="2" d="M275.5 317.8333 C275.5 317.8333 285.1576 306.5209 294.5 303.8333 C317.2252 297.296 322.1423 301.5272 348.5 296.8333 C358.0745 295.1283 367.5 290.8333 367.5 290.8333 "/>
<path id="3" d="M359.5 283.8333 L370.5 289.8333 "/>
<path id="4" d="M160.5 314.8333 C160.5 314.8333 166.2651 308.4323 171.5 304.8333 C173.1657 303.6882 175.1723 304.9568 176.5 303.8333 C180.2386 300.6699 181.4125 296.6402 184.5 293.8333 C185.042 293.3406 187.0509 294.3123 187.5 293.8333 C191.8509 289.1923 193.3378 282.5735 199.5 277.8333 C203.8291 274.5032 207.9431 276.9452 213.5 273.8333 C219.1801 270.6525 224.5 263.8333 224.5 263.8333 "/>
<path id="5" d="M160.5 314.8333 L155.5 313.8333 "/>
<path id="6" d="M154.5 313.8333 L151.5 308.8333 "/>
<path id="7" d="M160.5 316.8333 L160.5 378.8333 "/>
<path id="8" d="M276.5 315.8333 C276.5 315.8333 275.055 321.7157 275.5 326.8333 C276 332.583 278.4149 333.0459 278.5 338.8333 C278.8955 365.7284 276.5 394.8333 276.5 394.8333 "/>
<path id="9" d="M370.5 292.8333 C370.5 292.8333 372.5 297.4981 372.5 301.8333 C372.5 319.6562 370.5 338.8333 370.5 338.8333 "/>
<path id="10" d="M276.5 394.8333 C276.5 394.8333 284.9262 389.4071 289.5 384.8333 C290.4943 383.839 289.7091 381.3276 290.5 380.8333 C294.7367 378.1854 299.582 378.7787 305.5 374.8333 C310.3798 371.5802 309.5605 368.4842 314.5 364.8333 C320.278 360.5627 322.3658 361.9228 328.5 357.8333 C332.3339 355.2774 331.955 352.2776 335.5 350.8333 C343.2829 347.6625 346.0678 349.5283 355.5 346.8333 C359.5788 345.668 360.3498 345.3929 363.5 342.8333 C367.7878 339.3495 371.5 333.8333 371.5 333.8333 "/>
<path id="11" d="M160.5 379.8333 C160.5 379.8333 169.1756 383.3981 177.5 384.8333 C183.0924 385.7975 184.0696 383.7098 189.5 384.8333 C197.7548 386.5412 198.0823 389.6678 206.5 390.8333 C229.3563 393.9981 231.2581 390.8018 254.5 393.8333 C264.962 395.1979 269.6115 399.3623 275.5 399.8333 C276.5088 399.914 279.5 395.8333 279.5 395.8333 "/>
<path id="12" d="M194.5 385.8333 C194.5 385.8333 193.5947 381.0061 194.5 378.8333 C195.4161 376.6347 199.2478 375.8509 199.5 373.8333 C201.0692 361.2798 197.5475 343.6496 199.5 338.8333 C199.9508 337.7213 207.3991 336.8333 214.5 336.8333 C219.2339 336.8333 224.3734 338.1621 224.5 338.8333 C226.1617 347.6405 224.5 389.8333 224.5 389.8333 "/>
<path id="13" d="M210.5 287.8333 C210.5 287.8333 214.0715 293.9059 214.5 298.8333 C214.9465 303.9684 212.1942 310.6666 212.5 310.8333 C214.1144 311.7139 235.7235 311.7325 236.5 310.8333 C237.1624 310.0663 234.0672 291.0056 231.5 288.8333 C229.2171 286.9016 210.5 288.8333 210.5 288.8333 "/>
<path id="14" d="M288.5 328.8333 C288.5 328.8333 288.7257 350.6069 289.5 353.8333 C289.5368 353.9867 293.6338 354.2664 294.5 353.8333 C294.9331 353.6168 294.771 351.3436 295.5 350.8333 C298.275 348.8909 303.6597 348.514 304.5 346.8333 C305.8841 344.0652 305.5017 333.9066 304.5 332.8333 C303.4935 331.7549 290.5 331.8333 290.5 331.8333 "/>
<path id="15" d="M323.5 328.8333 C323.5 328.8333 324.9942 325.7745 326.5 324.8333 C328.04 323.8708 331.4716 323.7695 331.5 323.8333 C331.7218 324.3323 331.6481 332.4556 330.5 333.8333 C329.4932 335.0415 322.182 336.1743 321.5 335.8333 C321.1164 335.6415 320.5 328.8333 320.5 328.8333 "/>
<path id="16" d="M350.5 318.8333 C350.5 318.8333 354.6906 317.3837 355.5 317.8333 C356.8354 318.5752 359.617 323.5701 359.5 323.8333 C359.3184 324.242 351.8566 327.0314 351.5 326.8333 C351.1935 326.663 350.5 318.8333 350.5 318.8333 "/>
<path id="17" d="M279.5 258.8333 C279.5 258.8333 276.768 234.2252 278.5 231.8333 C279.682 230.2011 298.4239 228.6223 300.5 229.8333 C301.6294 230.4922 300.7988 238.6881 302.5 245.8333 C303.09 248.3114 304.7997 248.4989 305.5 250.8333 C306.0935 252.8117 305.7465 255.7512 305.5 255.8333 C301.3098 257.2301 278.5 259.8333 278.5 259.8333 "/>
<path id="18" d="M212.5 337.8333 L209.5 388.8333 "/>
<path id="19" d="M278.5 230.8333 C278.5 230.8333 275.9594 230.5224 275.5 229.8333 C273.9687 227.5364 273.0276 225.7025 272.5 221.8333 C271.6216 215.3917 271.5412 208.6323 272.5 207.8333 C274.0478 206.5435 284.4282 205.2592 290.5 206.8333 C294.2901 207.816 297.1417 210.6609 299.5 214.8333 C302.6105 220.3365 303.5 229.8333 303.5 229.8333 "/>
</g>
</g>
</svg>
