<?xml version="1.0" encoding="utf-8"?>
<!DOCTYPE svg PUBLIC "-//W3C//DTD SVG 1.1//EN" "http://www.w3.org/Graphics/SVG/1.1/DTD/svg11.dtd">
<svg viewBox="0 0 800 800" preserveAspectRatio="xMinYMin meet" xmlns="http://www.w3.org/2000/svg" version="1.1">
<g fill="none" stroke="black" stroke-linecap="round" stroke-linejoin="round" stroke-width="1.6417">
<g transform="translate(129.5495,87.52) scale(1.8274) translate(-148,-46)">
<path id="0" d="M286,46C286,46 262.1064697246532,74.66890637569398 237,102C222.69390754725066,117.57372089792964 207,132 207,132"/>
<path id="1" d="M287,47C287,47 312.5208706423203,65.5644278566548 335,86C344.99072415896876,95.08247650815342 343.50362897665957,97.20686738218018 353,107C359.3159473157599,113.5133206693774 359.5977359390707,113.91094345811109 367,119C375.2755648771064,124.68945085301062 377.5646464924723,123.50430392921866 385,129C387.97923411089294,131.2020426037035 390,136 390,136"/>
<path id="2" d="M224,124L223,208"/>
<path id="3" d="M366,119C366,119 358.9750153198328,181.26701954653967 365,203C366.8019378259393,209.49984715785254 381.2686628473369,210.09784888126202 394,220C407.40140752911907,230.4233169670926 410.61368453870295,235.2718740648954 419,245C419.7206019211189,245.83589822849788 418.6178406914632,248.36306781910525 419,249C419.2675115159758,249.4458525266263 421.44504345672,249.22306083940796 422,250C425.17838747514923,254.4497424652089 424.62187580884943,258.22386451874484 429,263C434.5806990762735,269.0880353559347 444,274 444,274"/>
<path id="4" d="M226,212C226,212 216.6777214119955,215.9921966503561 211,220C209.6735807527532,220.93629593923305 210.32159759492987,223.19903176064855 209,224C196.84311253430948,231.36781058526697 191.51581463302202,230.4160587147662 178,240C165.13415154941612,249.1230561740504 162.44201600123296,252.86958079852047 154,263C152.46211336411648,264.84546396306024 154.215930838193,267.36548318391516 153,270C151.64618009768202,272.9332764550223 148,276 148,276"/>
<path id="5" d="M169,261L171,386"/>
<path id="6" d="M419,255L417,384"/>
<path id="7" d="M416,385L192,386"/>
<path id="8" d="M252,380L251,312"/>
<path id="9" d="M250,310L346,310"/>
<path id="10" d="M347,310L348,388"/>
<path id="11" d="M298,315L298,384"/>
<path id="12" d="M301,319C301,319 309.19276849732205,338.3734899958801 320,355C328.27027022955707,367.723492660857 332.5326929266464,367.9768324155256 340,379C341.5268205184349,381.25387790816574 341,386 341,386"/>
<path id="13" d="M343,316L302,381"/>
<path id="14" d="M257,318C257,318 259.57637028708046,325.43813185855174 264,330C274.65238574417554,340.9852727986811 278.39176035677576,339.78557523430583 289,351C295.04900831956246,357.39466593782316 295.29408364364746,359.2512658003538 299,367C300.3335096512398,369.7882474525924 300,374 300,374"/>
<path id="15" d="M299,316C299,316 296.54226553317613,321.9854323957337 293,326C289.539479056051,329.92192373647555 287.7582242743047,328.98258784470874 284,333C273.5901905038087,344.1277273924804 273.3290405773427,348.0164794440403 264,357C262.06847183922713,358.85999008074424 259.3839509296212,357.3495724333391 257,359C253.91617356810462,361.13495676054293 252.03316772760374,362.64220488528786 251,366C248.7090628648787,373.4455456891443 249,385 249,385"/>
<path id="16" d="M262,142L264,221"/>
<path id="17" d="M261,147C261,147 326.8627981584875,143.44907797433626 331,148C335.864558002116,153.35101380232757 331,224 331,224"/>
<path id="18" d="M331,224C331,224 267.00595894677843,223.00032503346065 267,223C266.9991728853322,222.99995488465447 272.60091231865345,222.69954384067327 276,221C278.54931576100995,219.72534211949502 279.183691793656,216.2724462309516 281,216C285.64343141447943,215.3034852878281 288.6414263071053,218 296,218C311.69829054484205,218 328,216 328,216"/>
</g>
</g>
</svg>
