<?xml version="1.0" encoding="utf-8"?>
<!DOCTYPE svg PUBLIC "-//W3C//DTD SVG 1.1//EN" "http://www.w3.org/Graphics/SVG/1.1/DTD/svg11.dtd">
<svg viewBox="0 0 800 800" preserveAspectRatio="xMinYMin meet" xmlns="http://www.w3.org/2000/svg" version="1.1">
<g fill="none" stroke="black" stroke-linecap="round" stroke-linejoin="round" stroke-width="2.0449">
<g transform="translate(93.3882,87.52) scale(1.467) translate(-142,0)">
<path id="0" d="M246 262 C246 262 315.1015 263.3239 376 262 C379.7782 261.9179 384 259 384 259 "/>
<path id="1" d="M247 260 C247 260 247.5241 256.4759 249 255 C252.5843 251.4157 254.6862 252.0907 259 248 C283.2466 225.0075 283.9971 224.6698 307 200 C318.3037 187.8771 328 174 328 174 "/>
<path id="2" d="M385 256 C385 256 378.2021 251.0292 374 245 C367.1647 235.1928 367.0926 234.14 362 223 C359.2526 216.99 361.0739 215.4246 358 210 C353.0938 201.342 350.5039 201.5998 345 193 C342.8437 189.6307 343.9259 188.6111 342 185 C340.0607 181.3638 339.8242 180.5889 337 178 C334.3613 175.5812 330 174 330 174 "/>
<path id="3" d="M330 174 C330 174 390.238 148.5961 451 127 C472.7381 119.2738 474.1651 121.9144 496 115 C503.7034 112.5606 511 108 511 108 "/>
<path id="4" d="M389 259 C389 259 418.6798 244.8393 449 233 C470.9807 224.4171 472.1871 226.3616 494 218 C501.7652 215.0233 501.4264 212.039 509 210 C526.049 205.4099 546 204 546 204 "/>
<path id="5" d="M514 112 C514 112 523.9529 134.4671 531 156 C532.6106 160.9211 530.5198 162.8061 532 167 C533.0124 169.8684 536.3169 170.1158 537 173 C540.1327 186.2271 541 205 541 205 "/>
<path id="6" d="M544 208 C544 208 542.54 235.7202 544 262 C544.4927 270.8681 547.566 271.1034 548 280 C550.5067 331.3881 548.939 356.8827 550 385 C550.0109 385.2878 551.967 385.6866 552 386 C552.4906 390.6608 550.5954 397.2578 552 404 C552.5495 406.6376 555.3972 407.4355 557 410 C557.3513 410.5621 557.0163 411.9987 557 412 C555.631 412.1053 544 411 544 411 "/>
<path id="7" d="M247 262 C247 262 244.1825 318.1355 248 367 C248.8611 378.0227 255.2483 379.0521 257 390 C258.9237 402.023 254.2439 415.7228 256 417 C260.583 420.3331 278.5855 421.3739 301 422 C367.5389 423.8586 374.8993 422.871 435 422 C436.8071 421.9738 437.1508 420.0804 439 420 C478.8564 418.2671 483.8264 420.4209 527 418 C536.4196 417.4718 536.7355 416.5267 546 414 C553.0846 412.0678 557.0534 410.4733 560 409 C560.1786 408.9107 560 407 560 407 "/>
<path id="8" d="M328 213 C328 213 310.7984 216.3415 308 219 C306.6552 220.2775 307.4448 231.7954 308 232 C312.448 233.6387 342.0048 234.3668 346 233 C346.5081 232.8262 347.1503 222.2593 346 219 C345.5795 217.8086 342.8126 216.3375 340 216 C331.5975 214.9917 321 216 321 216 "/>
<path id="9" d="M319 221 L320 228 "/>
<path id="10" d="M331 222 L334 230 "/>
<path id="11" d="M386 264 C386 264 390.7118 271.557 392 279 C395.0136 296.4117 393.602 307.1461 395 316 C395.055 316.3482 397.9813 316.7384 398 317 C398.631 325.8338 398.8158 339.6434 398 358 C397.9186 359.8307 396.064 360.1763 396 362 C395.1668 385.7469 395.1513 389.5381 396 415 C396.1132 418.3949 398 422 398 422 "/>
<path id="12" d="M302 416 C302 416 303.6909 349.0769 307 314 C307.1444 312.4693 309.7957 310.4199 312 310 C318.1209 308.8341 326.0308 309.7538 328 310 C328.0308 310.0038 327.8161 311.8979 328 312 C329.7651 312.9806 332.4782 314.1304 337 315 C345.2083 316.5785 353.4822 315.7817 354 317 C356.1328 322.0184 354.6973 336.1723 354 355 C353.705 362.9642 353.7012 363.8548 352 371 C351.41 373.4781 349.1258 373.7775 349 376 C347.8319 396.6356 349 424 349 424 "/>
<path id="13" d="M246 262 C246 262 250.3017 239.4444 251 217 C253.7844 127.5007 253 37 253 37 "/>
<path id="14" d="M238 259 C238 259 222.2198 263.8001 208 271 C183.0979 283.6087 183.6587 286.297 159 299 C151.1889 303.0239 142 305 142 305 "/>
<path id="15" d="M144 309 C144 309 145.5101 319.2753 147 323 C147.2156 323.5391 149.6067 323.3257 150 324 C151.907 327.2691 153.6706 329.7292 154 335 C155.552 359.8315 151.3319 363.6539 154 388 C155.051 397.5899 159.9679 398.3473 162 408 C163.6869 416.0127 161.4213 425.8397 162 426 C169.5463 428.0897 196.8551 428.8042 227 426 C237.0842 425.0619 238.1503 420.0279 248 418 C253.5644 416.8544 261 419 261 419 "/>
<path id="16" d="M164 294 C164 294 172.1725 282.5508 173 272 C177.7829 211.0185 172.9547 202.3404 176 141 C176.2368 136.23 179.1208 135.9234 180 131 C181.4917 122.6467 178.9455 121.3389 181 113 C187.1864 87.8905 191.3327 86.7944 197 62 C198.9701 53.3809 197 43 197 43 "/>
<path id="17" d="M182 37 C182 37 201.4324 28.0522 220 25 C236.2578 22.3275 239.5505 23.0277 255 25 C260.6351 25.7194 264.3734 28.8112 267 31 C267.515 31.4292 267.5514 34.0351 267 35 C266.2714 36.2751 265.0609 37.2726 263 38 C257.2727 40.0214 255.2864 39.0176 250 41 C248.4562 41.5789 248.1678 43.9313 247 44 C223.0827 45.4069 189.7993 45.7199 182 45 C181.9224 44.9928 182 38 182 38 "/>
<path id="18" d="M173 46 L214 0 "/>
<path id="19" d="M272 29 C272 29 265.8087 23.0639 259 20 C246.6007 14.4203 245.0353 16.2696 232 11 C221.7709 6.8648 212 1 212 1 "/>
<path id="20" d="M219 26 C219 26 219.9399 19.9346 219 15 C218.0804 10.1722 215 5 215 5 "/>
<path id="21" d="M211 70 C211 70 228.9247 67.151 230 68 C230.8284 68.654 231.0111 76.911 230 85 C229.0781 92.3753 228.1275 97.9976 226 100 C224.3629 101.5408 213.205 101.4415 213 101 C211.8197 98.4577 213 72 213 72 "/>
<path id="22" d="M207 148 C207 148 222.9325 146.1208 224 147 C224.8152 147.6714 223.2244 157.6048 224 162 C224.1308 162.7411 226.8598 163.2521 227 164 C227.7662 168.0863 227.9302 172.1089 227 178 C226.6363 180.3033 225.3517 182.4593 224 183 C220.6477 184.3409 212.633 184.5802 212 184 C211.3718 183.4241 212.5694 174.4673 212 172 C211.9197 171.652 209.0317 171.2852 209 171 C208.382 165.4382 209 145 209 145 "/>
<path id="23" d="M242 268 C242 268 210.1149 277.396 182 291 C164.7485 299.3475 158.6831 305.9578 149 313 C148.7126 313.209 148.8946 314.9676 149 315 C153.7705 316.4678 175 321 175 321 "/>
</g>
</g>
</svg>
