<?xml version="1.0" encoding="utf-8"?>
<!DOCTYPE svg PUBLIC "-//W3C//DTD SVG 1.1//EN" "http://www.w3.org/Graphics/SVG/1.1/DTD/svg11.dtd">
<svg viewBox="0 0 800 800" preserveAspectRatio="xMinYMin meet" xmlns="http://www.w3.org/2000/svg" version="1.1">
<g fill="none" stroke="black" stroke-linecap="round" stroke-linejoin="round" stroke-width="2.1217">
<g transform="translate(87.52,190.7374) scale(1.4139) translate(-158,-92)">
<path id="0" d="M158 335 C158 335 161.8223 311.9654 163 289 C164.809 253.7244 159.939 220.4506 164 218 C174.5957 211.6061 221.5924 219.6274 279 219 C312.965 218.6288 343.6244 213.2884 347 216 C348.7895 217.4374 341.5832 242.0747 340 268 C337.6125 307.0955 339 347 339 347 "/>
<path id="1" d="M164 335 C164 335 220.7578 346.061 277 353 C297.0734 355.4766 297.9599 354.9394 318 354 C329.3466 353.4681 341 350 341 350 "/>
<path id="2" d="M210 340 C210 340 212.6577 290.7453 215 289 C216.9781 287.5261 238.2642 297.3869 261 302 C271.8463 304.2007 282.7531 301.8778 284 303 C284.6417 303.5775 281.5269 311.5695 281 320 C280.0496 335.2056 281 351 281 351 "/>
<path id="3" d="M249 304 L249 345 "/>
<path id="4" d="M167 213 C167 213 180.9124 198.0566 196 185 C206.6889 175.75 209.0087 177.6408 219 168 C236.9185 150.7102 250.3829 131.3998 253 130 C253.0471 129.9748 256.5655 138.6339 262 145 C273.5469 158.5263 274.1543 159.2406 288 171 C310.3386 189.9725 312.5251 188.5385 335 207 C340.0527 211.1504 344 217 344 217 "/>
<path id="5" d="M255 134 C255 134 281.8415 124.8465 309 121 C397.4347 108.4749 488 101 488 101 "/>
<path id="6" d="M345 216 C345 216 384.1949 216.3288 422 212 C448.9707 208.9118 449.3571 202.8002 476 201 C521.7159 197.9111 570 202 570 202 "/>
<path id="7" d="M490 92 C490 92 490.4036 95.4275 492 97 C520.8345 125.4041 526.8321 127.0382 557 158 C563.7254 164.9024 563.7956 166.1708 568 175 C573.5368 186.6273 577 200 577 200 "/>
<path id="8" d="M577 200 C577 200 572.086 228.5839 571 257 C569.1024 306.6531 571 357 571 357 "/>
<path id="9" d="M347 348 C347 348 381.7248 345.0371 415 348 C453.735 351.449 453.9594 355.3755 493 361 C512.833 363.8573 513.0559 363.6479 533 365 C542.4097 365.6379 542.9928 365.9318 552 365 C556.8877 364.4944 562 362 562 362 "/>
<path id="10" d="M389 245 L392 291 "/>
<path id="11" d="M388 250 C388 250 398.679 249.0947 409 250 C426.9087 251.5709 443.2237 253.6525 445 255 C445.2632 255.1997 439.5374 264.0567 438 272 C436.8436 277.9749 439.6362 285.6183 439 286 C436.7132 287.3721 425.7078 287.5648 413 287 C403.6324 286.5837 394 284 394 284 "/>
<path id="12" d="M486 250 L484 291 "/>
<path id="13" d="M482 256 C482 256 516.1205 254.1623 520 256 C520.8705 256.4123 518.8928 265.327 520 274 C521.8309 288.3422 526.3593 302.3642 526 303 C525.9335 303.1177 516.54 298.9514 507 297 C494.9196 294.529 482 294 482 294 "/>
<path id="14" d="M337 346 C337 346 364.4209 334.576 389 320 C406.8006 309.4439 406.826 308.3198 423 295 C440.6381 280.4745 440.8478 280.1522 457 264 C468.6793 252.3207 467.0122 249.8351 479 239 C492.4094 226.88 494.9031 228.7474 509 217 C518.6248 208.9793 517.3497 206.1758 527 199 C535.9722 192.3284 548 188 548 188 "/>
<path id="15" d="M348 232 C348 232 359.3426 241.9799 372 249 C418.261 274.6574 423.1038 272.295 467 298 C476.003 303.2721 474.2944 307.4708 483 314 C495.6697 323.5023 497.7373 321.6381 511 331 C531.5182 345.4835 530.0879 348.6069 551 362 C573.9377 376.6904 600 388 600 388 "/>
<path id="16" d="M172 332 C172 332 184.5418 329.2291 195 324 C205.8456 318.5772 205.1068 316.0518 216 310 C231.8561 301.1911 233.7185 303.5509 249 294 C285.1158 271.4276 285.9321 270.2503 320 245 C327.7383 239.2646 326.5044 236.3195 334 231 C341.1017 225.9601 351 223 351 223 "/>
<path id="17" d="M170 223 C170 223 175.823 231.4754 183 238 C197.4766 251.1605 199.3177 249.7618 214 263 C229.6444 277.1056 228.0789 279.5666 244 293 C259.6153 306.1754 260.4968 305.8893 278 317 C317.8536 342.2984 359 366 359 366 "/>
</g>
</g>
</svg>
