<?xml version="1.0" encoding="utf-8"?>
<!DOCTYPE svg PUBLIC "-//W3C//DTD SVG 1.1//EN" "http://www.w3.org/Graphics/SVG/1.1/DTD/svg11.dtd">
<svg viewBox="0 0 800 800" preserveAspectRatio="xMinYMin meet" xmlns="http://www.w3.org/2000/svg" version="1.1">
<g fill="none" stroke="black" stroke-linecap="round" stroke-linejoin="round" stroke-width="1.7041">
<g transform="translate(186.9855,87.52) scale(1.7605) translate(-137,-34.7)">
<path id="0" d="M139 221.4167 L274 220.4167 "/>
<path id="1" d="M139 222.4167 L138 354.4167 "/>
<path id="2" d="M139 355.4167 L137 382.4167 "/>
<path id="3" d="M137 386.4167 L280 383.4167 "/>
<path id="4" d="M265 220.4167 L307 220.4167 "/>
<path id="5" d="M276 384.4167 L304 381.4167 "/>
<path id="6" d="M308 220.4167 L306 316.4167 "/>
<path id="7" d="M307 315.4167 L306 382.4167 "/>
<path id="8" d="M140 223.7 C140 223.7 174.9475 175.9929 212 132.7 C221.6344 121.443 226.8736 118.2143 235 112.7 C235.9602 112.0484 240 113.7 240 113.7 "/>
<path id="9" d="M236 109.7 C236 109.7 244.1106 130.1094 255 147.7 C263.1801 160.914 266.5043 159.5317 275 172.7 C286.1854 190.0373 284.0972 192.3236 295 209.7 C299.7374 217.2502 307 223.7 307 223.7 "/>
<path id="10" d="M238 113.7 C238 113.7 238.7947 109.2991 241 106.7 C251.9074 93.8449 252.7083 92.6625 266 80.7 C292.4735 56.8738 321 34.7 321 34.7 "/>
<path id="11" d="M309 224.7 L367 153.7 "/>
<path id="12" d="M320 35.7 C320 35.7 319.2058 42.2611 321 45.7 C324.1955 51.8248 327.4717 51.7997 332 58.7 C337.7251 67.424 337.9303 67.891 342 77.7 C357.3006 114.5783 371 152.7 371 152.7 "/>
<path id="13" d="M370 155.7 C370 155.7 370.1257 166.7036 372 176.7 C373.0303 182.1951 375.8098 182.4505 376 187.7 C378.168 247.537 377 314.7 377 314.7 "/>
<path id="14" d="M306 379.7 C306 379.7 312.3002 377.5119 316 373.7 C327.8546 361.4861 326.4211 358.2789 339 345.7 C357.4984 327.2017 379 310.7 379 310.7 "/>
<path id="15" d="M191 287.7 L190 385.7 "/>
<path id="16" d="M191 288.7 C191 288.7 208.089 290.3918 224 289.7 C230.3392 289.4244 237 286.7 237 286.7 "/>
<path id="17" d="M235 287.7 C235 287.7 233.1784 330.0285 234 370.7 C234.159 378.5719 237 386.7 237 386.7 "/>
<path id="18" d="M213 290.7 L210 389.7 "/>
</g>
</g>
</svg>
