<?xml version="1.0" encoding="utf-8"?>
<!DOCTYPE svg PUBLIC "-//W3C//DTD SVG 1.1//EN" "http://www.w3.org/Graphics/SVG/1.1/DTD/svg11.dtd">
<svg viewBox="0 0 800 800" preserveAspectRatio="xMinYMin meet" xmlns="http://www.w3.org/2000/svg" version="1.1">
<g fill="none" stroke="black" stroke-linecap="round" stroke-linejoin="round" stroke-width="1.1761">
<g transform="translate(87.52,109.2023) scale(2.5509) translate(-175,-135)">
<path id="0" d="M196 358 C196 358 205.5874 360.7893 215 361 C271.7701 362.271 330 361 330 361 "/>
<path id="1" d="M332 363 L332 238 "/>
<path id="2" d="M195 357 C195 357 196.962 354.3389 197 352 C197.8917 297.1589 197 234 197 234 "/>
<path id="3" d="M198 281 L175 279 "/>
<path id="4" d="M335 286 L358 285 "/>
<path id="5" d="M177 280 C177 280 179.6786 278.2857 180 277 C180.7714 273.9144 180 268 180 268 "/>
<path id="6" d="M180 268 C180 268 175.5075 234.1043 179 205 C181.1417 187.1523 184.4039 185.2639 192 168 C195.0157 161.1462 196.0901 161.001 201 155 C204.9455 150.1777 205.1118 148.4441 210 146 C223.2162 139.3919 225.9373 137.3337 241 135 C259.4229 132.1457 261.9465 133.1259 281 135 C291.2842 136.0116 293.5282 136.0077 302 141 C319.5787 151.3589 320.7691 154.0878 337 168 C341.1076 171.5208 342.0256 172.2198 344 177 C350.9665 193.8662 353.1174 195.8172 356 214 C359.3462 235.1069 355.4547 236.7477 357 259 C357.9353 272.468 361 286 361 286 "/>
<path id="7" d="M180 232 L362 233 "/>
<path id="8" d="M215 284 L215 346 "/>
<path id="9" d="M217 285 C217 285 219.6965 283 222 283 C262.5419 283 310 285 310 285 "/>
<path id="10" d="M314 287 C314 287 312.0038 286.9692 312 287 C311.7538 288.9692 311.2692 295.2049 312 303 C312.7436 310.9321 314.39 311.0699 315 319 C315.8644 330.2374 315 342 315 342 "/>
<path id="11" d="M219 349 C219 349 222.2961 346.0552 225 346 C266.0318 345.1626 317 347 317 347 "/>
<path id="12" d="M232 297 L305 338 "/>
<path id="13" d="M299 296 C299 296 296.7939 295.433 296 296 C282.8068 305.4237 280.5295 309.6903 264 321 C252.3602 328.964 239 335 239 335 "/>
<path id="14" d="M232 178 C232 178 231.058 190.3817 232 202 C232.5198 208.411 235 215 235 215 "/>
<path id="15" d="M236 177 L294 181 "/>
<path id="16" d="M294 181 L295 212 "/>
<path id="17" d="M241 221 L296 216 "/>
<path id="18" d="M248 191 C248 191 258.8192 198.2481 270 203 C278.3031 206.5288 288 208 288 208 "/>
<path id="19" d="M284 193 C284 193 275.4451 192.46 271 195 C263.7712 199.1308 256 209 256 209 "/>
<path id="20" d="M381 353 L379 206 "/>
<path id="21" d="M381 353 L417 354 "/>
<path id="22" d="M417 354 L419 206 "/>
<path id="23" d="M380 207 C380 207 380.5908 200.0976 383 197 C386.234 192.842 388.994 191.0024 394 189 C397.1728 187.7309 399.1358 188.034 403 189 C408.2596 190.3149 410.3994 190.823 414 194 C417.4631 197.0557 420 204 420 204 "/>
<path id="24" d="M348 244 L351 276 "/>
<path id="25" d="M188 242 L187 271 "/>
<path id="26" d="M386 216 L386 342 "/>
<path id="27" d="M412 231 L412 346 "/>
<path id="28" d="M197 213 C197 213 196.6649 208.0052 198 204 C200.9562 195.1313 201.4717 194.6628 206 186 C212.9084 172.7839 213.1122 171.1146 221 160 C223.1455 156.9767 228 155 228 155 "/>
<path id="29" d="M324 172 C324 172 330.2607 180.7617 334 190 C338.551 201.2436 341 214 341 214 "/>
<path id="30" d="M229 271 L293 273 "/>
<path id="31" d="M216 247 L332 249 "/>
</g>
</g>
</svg>
