<?xml version="1.0" encoding="utf-8"?>
<!DOCTYPE svg PUBLIC "-//W3C//DTD SVG 1.1//EN" "http://www.w3.org/Graphics/SVG/1.1/DTD/svg11.dtd">
<svg viewBox="0 0 800 800" preserveAspectRatio="xMinYMin meet" xmlns="http://www.w3.org/2000/svg" version="1.1">
<g fill="none" stroke="black" stroke-linecap="round" stroke-linejoin="round" stroke-width="2.0641">
<g transform="translate(89.7001,87.52) scale(1.4534) translate(-188,-46)">
<path id="0" d="M265 112 C265 112 286.9058 124.6007 301 140 C311.9783 151.9948 311.8341 155.0501 319 171 C327.0374 188.8897 326.5591 189.8274 332 209 C336.9947 226.6002 337.5896 227.2234 340 245 C341.4949 256.0251 339.9151 268.037 340 268 C340.4781 267.7916 357.4115 243.9755 379 228 C430.4663 189.9149 490 157 490 157 "/>
<path id="1" d="M261 113 C261 113 262.3634 107.6506 265 104 C268.4374 99.2405 269.0067 98.5952 274 95 C293.4958 80.963 294.1842 80.1425 315 68 C323.6809 62.9362 324.2991 63.1385 334 60 C358.0541 52.2178 359.1167 51.3074 383 46 C389.4164 44.5741 390.561 44.6585 397 46 C413.5957 49.4574 418.4545 48.8312 431 56 C438.9876 60.5643 440.2159 64.2778 446 74 C463.1946 102.9016 462.4841 104.2915 478 135 C486.4617 151.747 490.9562 161.1731 494 169 C494.0925 169.2378 492 171 492 171 "/>
<path id="2" d="M257 105 C257 105 248.8112 105.7926 244 109 C236.8344 113.777 235.8856 115.3646 230 123 C217.7193 138.9317 212.0595 139.9574 207 157 C194.7994 198.0967 197.6405 204.3717 192 251 C190.2339 265.5995 191.2932 280.8596 192 281 C209.2941 284.4351 338 280 338 280 "/>
<path id="3" d="M232 166 C232 166 230.6015 188.6726 232 210 C232.5487 218.3673 233.2212 223.9287 236 227 C238.3681 229.6174 243.73 230.4548 251 231 C262.8434 231.8883 264.7098 231.4568 276 230 C278.8697 229.6297 281.3717 228.2567 282 227 C282.9425 225.115 282.749 222.2444 282 218 C279.8313 205.7106 277.6089 205.4686 276 193 C273.6743 174.9759 277.2835 158.8731 274 156 C269.1882 151.7896 228 151 228 151 "/>
<path id="4" d="M188 284 C188 284 185.8234 327.0223 188 369 C189.2897 393.872 193.1859 394.1204 195 419 C196.6521 441.6579 193.0754 464.2763 195 465 C208.9514 470.2457 293.2522 466.4246 320 466 C320.2242 465.9964 321 463 321 463 "/>
<path id="5" d="M333 269 L333 449 "/>
<path id="6" d="M338 441 C338 441 341.6367 427.9666 348 417 C364.7545 388.1253 364.5739 386.5539 385 360 C409.0848 328.6898 409.7541 327.4613 438 300 C463.0534 275.6425 493 255 493 255 "/>
<path id="7" d="M495 159 C495 159 492.2977 160.6108 492 162 C489.9045 171.779 489.319 174.5589 489 187 C487.8297 232.6429 489 279 489 279 "/>
<path id="8" d="M227 359 C227 359 229.4494 380.5279 230 402 C230.9458 438.8861 230 476 230 476 "/>
<path id="9" d="M223 350 C223 350 268.0906 346.667 275 351 C278.8831 353.4352 280.9611 369.1896 282 387 C284.397 428.0916 282 471 282 471 "/>
<path id="10" d="M277 355 C277 355 272.3877 358.1043 270 362 C263.369 372.819 263.14 373.7618 258 386 C252.729 398.55 252.2348 398.8586 249 412 C244.3312 430.9669 246.4161 431.9768 242 451 C240.0006 459.6127 236 468 236 468 "/>
<path id="11" d="M244 359 C244 359 243.1555 372.851 247 384 C257.5303 414.5379 262.2285 414.84 274 446 C278.9963 459.2255 281 474 281 474 "/>
<path id="12" d="M361 280 C361 280 362.8448 295.9957 363 296 C365.1322 296.0592 380.8611 288.8626 397 281 C399.7149 279.6774 401.9575 278.1469 402 277 C402.2319 270.7377 399.6635 256.6141 398 254 C397.6507 253.4511 392.1957 253.3759 388 255 C377.7975 258.9494 377.5511 261.7795 367 266 C360.6859 268.5256 353 269 353 269 "/>
<path id="13" d="M436 220 C436 220 440.5572 225.1144 443 230 C444.1762 232.3523 443.4785 235.2178 444 236 C444.1564 236.2347 446.0685 236.552 447 236 C457.3963 229.8392 466.5377 226.6935 471 220 C473.789 215.8166 471.9356 202.079 471 200 C470.8106 199.579 465.5268 198.7069 462 200 C452.1904 203.5969 450.7151 207.042 441 211 C438.7124 211.932 435 211 435 211 "/>
<path id="14" d="M308 94 C308 94 309.1172 105.6017 314 114 C333.0379 146.7452 340.1114 149.7882 358 180 C360.0584 183.4763 359 190 359 190 "/>
<path id="15" d="M342 84 L388 171 "/>
<path id="16" d="M376 69 C376 69 385.3032 77.4706 393 87 C406.1453 103.2751 406.6625 103.4154 418 121 C431.0013 141.1653 442 163 442 163 "/>
<path id="17" d="M426 66 C426 66 444.9757 103.898 462 142 C465.8234 150.5571 468 160 468 160 "/>
<path id="18" d="M269 168 L243 224 "/>
<path id="19" d="M234 168 L279 228 "/>
<path id="20" d="M336 454 C336 454 344.111 451.1517 352 451 C420.7808 449.6773 427.351 453.1266 492 451 C497.6173 450.8152 498.1794 446.7761 504 446 C519.2255 443.9699 537 445 537 445 "/>
<path id="21" d="M353 394 C353 394 488.144 384.0432 518 393 C523.7102 394.713 533 448 533 448 "/>
<path id="22" d="M395 397 C395 397 387.6603 400.1178 383 405 C367.5166 421.2207 353 441 353 441 "/>
<path id="23" d="M473 396 C473 396 469.8673 403.0239 465 407 C435.9458 430.7344 402 454 402 454 "/>
<path id="24" d="M500 403 L467 453 "/>
<path id="25" d="M572 280 C572 280 570.4218 290.9062 566 300 C544.4186 344.3843 519 389 519 389 "/>
<path id="26" d="M577 272 C577 272 590.4762 296.7117 602 322 C608.3844 336.0102 607.4304 336.6118 613 351 C613.3998 352.0327 613.98 353 614 353 C614.02 353 615 351 615 351 "/>
<path id="27" d="M607 339 C607 339 568.5984 394.2295 529 448 C521.2633 458.5057 512 468 512 468 "/>
<path id="28" d="M543 353 C543 353 550.7807 374.7502 556 396 C557.6096 402.5533 557 410 557 410 "/>
<path id="29" d="M564 328 C564 328 577.4797 340.0833 589 353 C593.6608 358.2257 597 365 597 365 "/>
<path id="30" d="M500 253 L583 258 "/>
</g>
</g>
</svg>
