<?xml version="1.0" encoding="utf-8"?>
<!DOCTYPE svg PUBLIC "-//W3C//DTD SVG 1.1//EN" "http://www.w3.org/Graphics/SVG/1.1/DTD/svg11.dtd">
<svg viewBox="0 0 800 800" preserveAspectRatio="xMinYMin meet" xmlns="http://www.w3.org/2000/svg" version="1.1">
<g fill="none" stroke="black" stroke-linecap="round" stroke-linejoin="round" stroke-width="2.3666">
<g transform="translate(87.52,205.4131) scale(1.2677) translate(-45,-50.4167)">
<path id="0" d="M45 265.4167 C45 265.4167 43.8365 287.025 45 306.4167 C45.2605 310.7585 47.6557 311.0272 48 315.4167 C49.5686 335.4161 49 357.4167 49 357.4167 "/>
<path id="1" d="M47 265.4167 C47 265.4167 58.5925 268.7356 70 269.4167 C91.5989 270.7062 92.016 269.8653 114 269.4167 C214.4781 267.3661 300.2524 262.6016 315 264.4167 C315.1789 264.4387 310.8309 279.0745 309 293.4167 C307.8928 302.0896 307.854 303.1084 309 311.4167 C309.7354 316.7486 311.9353 316.9159 313 322.4167 C314.8435 331.9412 315.1847 342.3811 315 342.4167 C303.9152 344.5523 259.0517 340.4884 204 343.4167 C165.592 345.4597 165.2396 350.7117 127 352.4167 C87.5206 354.1769 47 350.4167 47 350.4167 "/>
<path id="2" d="M312 264.4167 C312 264.4167 306.8363 242.17 312 227.4167 C325.6349 188.4599 330.1971 182.3134 354 144.4167 C366.9167 123.8519 369.7222 121.0389 388 106.4167 C402.3043 94.9732 424 88.4167 424 88.4167 "/>
<path id="3" d="M46 265.4167 C46 265.4167 44.0541 252.4774 45 240.4167 C46.0018 227.6443 45.7302 226.5618 50 214.4167 C67.8531 163.6346 68.2849 161.8372 90 112.4167 C96.8843 96.7489 97.7057 92.9561 108 82.4167 C115.8843 74.3447 120.6749 76.5353 132 69.4167 C137.8637 65.7309 143 60.4167 143 60.4167 "/>
<path id="4" d="M138 59.4167 C138 59.4167 210.0168 61.9551 282 63.4167 C308.4789 63.9543 308.6757 64.3798 335 63.4167 C349.4584 62.8877 349.9543 60.4167 364 60.4167 C373.6867 60.4167 374.027 62.8122 384 63.4167 C406.7611 64.7961 407.6476 62.415 430 64.4167 C440.4017 65.3482 450.5089 69.1097 451 69.4167 C451.0382 69.4405 448.8087 72.7995 446 74.4167 C433.1446 81.8183 418 88.4167 418 88.4167 "/>
<path id="5" d="M451 71.4167 C451 71.4167 474.7986 90.7035 492 112.4167 C504.1364 127.7364 504.87 130.3174 512 148.4167 C517.2589 161.7661 513.936 163.8233 518 178.4167 C524.8594 203.0481 527.793 203.3191 534 227.4167 C536.0165 235.2453 535 244.4167 535 244.4167 "/>
<path id="6" d="M426 88.4167 C426 88.4167 435.9838 88.495 444 86.4167 C448.457 85.2611 452.627 81.1115 453 81.4167 C455.4176 83.3947 458.192 94.5539 466 104.4167 C476.5051 117.6863 480.4949 116.147 491 129.4167 C498.808 139.2794 499.8236 140.683 504 152.4167 C509.8726 168.9158 506.7022 171.1291 512 188.4167 C516.0467 201.6216 518.7602 201.2262 523 214.4167 C527.6294 228.8193 529.329 242.2546 530 244.4167 C530.0079 244.4422 532 243.4167 532 243.4167 "/>
<path id="7" d="M535 244.4167 L532 244.4167 "/>
<path id="8" d="M525 230.4167 C525 230.4167 528.2283 235.5938 529 240.4167 C530.0879 247.2158 527.9678 248.4495 529 255.4167 C529.8665 261.2656 532.4487 261.5104 533 267.4167 C535.8192 297.6229 536 330.4167 536 330.4167 "/>
<path id="9" d="M315 345.4167 C315 345.4167 410.707 345.6002 504 341.4167 C520.8996 340.6588 533.7628 337.8563 538 335.4167 C538.7336 334.9943 537 322.4167 537 322.4167 "/>
<path id="10" d="M139 59.4167 C139 59.4167 142.3359 58.2468 143 57.4167 C143.3831 56.9378 142.9839 54.4157 143 54.4167 C146.1193 54.6002 160.0911 58.3187 177 59.4167 C198.1825 60.7922 199.199 60.5513 220 59.4167 C225.8841 59.0957 226.2498 56.4167 232 56.4167 C263.1471 56.4167 264.8309 59.0382 297 59.4167 C306.8812 59.5329 307.0554 57.531 317 57.4167 C350.2705 57.0343 351.3374 56.2147 384 58.4167 C394.8784 59.15 394.964 61.9118 406 63.4167 C427.674 66.3722 447.7929 67.1087 450 67.4167 C450.0357 67.4217 449 69.4167 449 69.4167 "/>
<path id="11" d="M47 271.4167 C47 271.4167 68.4496 270.7322 89 272.4167 C98.4386 273.1903 98.6676 276.2319 108 276.4167 C197.5127 278.1892 201.6291 278.5859 291 276.4167 C302.2917 276.1426 314 271.4167 314 271.4167 "/>
<path id="12" d="M342 235.4167 C342 235.4167 341.1747 247.8565 343 259.4167 C345.5888 275.8124 348.1334 275.8312 351 292.4167 C355.0884 316.0711 357 340.4167 357 340.4167 "/>
<path id="13" d="M344 235.4167 C344 235.4167 359.6111 238.4167 375 238.4167 C438.5413 238.4167 488.4633 232.3503 503 235.4167 C503.7222 235.569 500.5224 251.5832 503 265.4167 C506.2333 283.4691 511.6658 284.2069 515 302.4167 C517.9077 318.297 516 336.4167 516 336.4167 "/>
<path id="14" d="M505 238.4167 C505 238.4167 501.3519 237.5866 499 238.4167 C493.8581 240.2315 492.7806 240.7834 488 244.4167 C480.6632 249.9926 481.5922 251.9458 474 257.4167 C448.0271 276.1325 445.8231 274.1055 420 293.4167 C388.6021 316.8968 359 343.4167 359 343.4167 "/>
<path id="15" d="M346 238.4167 C346 238.4167 357.0987 246.8252 369 253.4167 C389.3872 264.708 389.8856 265.2671 411 274.4167 C419.3328 278.0276 421.0105 275.5956 429 279.4167 C443.1562 286.187 442.6822 288.8367 457 296.4167 C467.9489 302.2132 468.8083 300.9807 480 306.4167 C486.187 309.4218 487.159 309.1342 492 313.4167 C499.4918 320.044 498.4441 322.9402 506 329.4167 C511.6864 334.2907 520 337.4167 520 337.4167 "/>
<path id="16" d="M394 144.4167 C394 144.4167 393.0219 164.1815 394 183.4167 C394.5054 193.3561 395.5484 202.9477 397 203.4167 C406.562 206.5059 452.047 207.1758 459 204.4167 C460.2774 203.9098 462.086 190.2375 460 178.4167 C456.4219 158.1408 452.9565 140.3877 447 136.4167 C439.736 131.574 418.5003 135.2439 397 136.4167 C394.7796 136.5378 392.4152 138.3786 392 139.4167 C391.4519 140.787 393 146.4167 393 146.4167 "/>
<path id="17" d="M402 143.4167 C402 143.4167 434.8316 141.3102 445 145.4167 C448.8701 146.9796 451.7856 155.0055 454 164.4167 C457.4295 178.9922 458.2549 195.6772 457 196.4167 C452.2843 199.1956 405.0362 200.7078 398 197.4167 C395.9525 196.459 394.6673 180.7266 395 167.4167 C395.1123 162.9244 397.9229 162.3714 399 157.4167 C400.3098 151.3918 400 144.4167 400 144.4167 C400 144.4167 399 195.4167 399 195.4167 "/>
<path id="18" d="M410 180.4167 C410 180.4167 402.9943 203.41 403 203.4167 C403.0016 203.4186 415.8132 187.5101 416 187.4167 C416.0311 187.4011 416.4597 195.2011 417 196.4167 C417.0763 196.5883 419.5142 196.9025 420 196.4167 C423.7248 192.6919 426.0664 186.8258 430 183.4167 C430.9248 182.6152 433.5059 182.5762 435 183.4167 C439.7998 186.1165 445.5898 191.9609 446 192.4167 C446.0174 192.436 444.139 193.5325 444 193.4167 C441.7168 191.514 434 182.6414 434 182.4167 C434 182.3962 440.5362 180.7239 444 181.4167 C446.05 181.8267 449 185.4167 449 185.4167 C449.0429 185.3631 448.4599 176.57 448 176.4167 C445.7769 175.6757 428 178.4167 428 178.4167 "/>
<path id="19" d="M409 183.4167 C409 183.4167 411.1058 179.2909 413 178.4167 C415.8414 177.1053 422 177.4167 422 177.4167 "/>
<path id="20" d="M451 181.4167 C451 181.4167 460.5299 190.1299 462 192.4167 C462.1395 192.6336 460.5824 195.3951 460 195.4167 C453.1239 195.6713 446.7701 195.5848 435 193.4167 C428.5411 192.2269 422 188.4167 422 188.4167 "/>
<path id="21" d="M46 280.4167 C46 280.4167 53.1009 277.7401 60 277.4167 C84.3945 276.2732 110 277.4167 110 277.4167 "/>
<path id="22" d="M107 270.4167 C107 270.4167 161.1285 272.9922 204 273.4167 C205.7586 273.4341 206.2063 271.4434 208 271.4167 C236.0346 270.9982 239.8746 273.6254 271 272.4167 C290.8703 271.645 311 267.4167 311 267.4167 "/>
<path id="23" d="M143 53.4167 C143 53.4167 144.1613 50.7761 145 50.4167 C146.2763 49.8697 147.7406 49.8787 150 50.4167 C157.7681 52.2662 158.3634 55.094 166 55.4167 C191.869 56.5097 193.5266 53.6172 221 53.4167 C261.9459 53.1178 264.7329 53.0971 303 54.4167 C305.3645 54.4982 305.6972 56.4167 308 56.4167 C347.1469 56.4167 351.0504 52.9291 393 54.4167 C420.7831 55.4019 431.8861 55.6243 449 61.4167 C453.1274 62.8136 458 76.4167 458 76.4167 "/>
</g>
</g>
</svg>
