<?xml version="1.0" encoding="utf-8"?>
<!DOCTYPE svg PUBLIC "-//W3C//DTD SVG 1.1//EN" "http://www.w3.org/Graphics/SVG/1.1/DTD/svg11.dtd">
<svg viewBox="0 0 800 800" preserveAspectRatio="xMinYMin meet" xmlns="http://www.w3.org/2000/svg" version="1.1">
<g fill="none" stroke="black" stroke-linecap="round" stroke-linejoin="round" stroke-width="1.1569">
<g transform="translate(87.52,104.1164) scale(2.5932) translate(-92,-148.9333)">
<path id="0" d="M194 204.1333 C194 204.1333 176.2909 206.1931 173 207.1333 C172.8709 207.1702 173.5028 209.5886 173 210.1333 C169.4675 213.9602 165.5033 214.5579 161 220.1333 C155.6788 226.7215 155.7279 227.9319 152 236.1333 C148.3396 244.1863 148.0815 244.576 146 253.1333 C143.6625 262.7431 143.5325 263.1927 143 273.1333 C142.0491 290.8838 141.9476 291.5938 143 309.1333 C143.4145 316.042 143.9378 316.4313 146 323.1333 C147.8708 329.2135 147.4151 330.8016 151 335.1333 C158.2694 343.9172 159.8494 346.1624 170 352.1333 C183.8772 360.2964 186.0305 360.4016 202 365.1333 C212.1954 368.1542 213.2516 367.4616 224 368.1333 C228.8141 368.4342 229.7093 368.5636 234 367.1333 C239.398 365.334 245 361.1333 245 361.1333 "/>
<path id="1" d="M246 367.1333 C246 367.1333 257.5356 372.5278 269 375.1333 C278.9106 377.3857 281.3837 378.8566 290 377.1333 C300.9586 374.9416 306.7236 371.1708 314 366.1333 C315.5757 365.0425 315.1903 360.2669 316 359.1333 C316.2059 358.8451 318.8822 359.3911 319 359.1333 C322.5174 351.439 327.1896 341.3132 332 324.1333 C333.9022 317.3397 332.8029 316.6247 333 309.1333 C333.3018 297.6667 335.0882 296.7352 333 286.1333 C328.8634 265.1321 328.9101 262.4809 320 243.1333 C312.1549 226.0983 310.9306 219.6057 298 210.1333 C273.9233 192.4957 265.0408 191.2941 234 180.1333 C223.3251 176.2952 220.7399 177.1941 209 178.1333 C196.9577 179.0967 192.4494 178.8279 184 184.1333 C174.8402 189.8848 166 205.1333 166 205.1333 "/>
<path id="2" d="M191 210.1333 C191 210.1333 180.4 200.3833 173 191.1333 C171.3162 189.0285 172.5393 186.401 171 185.1333 C166.2127 181.1908 162.6323 181.7471 156 177.1333 C151.6252 174.09 148 169.1333 148 169.1333 "/>
<path id="3" d="M196 205.1333 C196 205.1333 193.7589 196.8993 190 190.1333 C186.5145 183.8595 186.1475 182.6632 181 178.1333 C174.4735 172.39 173.0689 171.7504 165 168.1333 C159.349 165.6001 156.5669 166.9601 152 165.1333 C150.9708 164.7217 150 162.1333 150 162.1333 "/>
<path id="4" d="M148 174.9333 C148 174.9333 141.4137 177.3674 135 177.9333 C124.8462 178.8293 122.62 180.246 114 177.9333 C104.5791 175.4058 94 166.9333 94 166.9333 "/>
<path id="5" d="M151 159.9333 C151 159.9333 149.2011 157.0339 147 155.9333 C139.1129 151.9898 137.7044 150.6259 129 148.9333 C120.9075 147.3598 119.5239 147.8679 111 148.9333 C104.1336 149.7916 101.8529 150.1238 97 152.9333 C94.3074 154.4922 91.9703 159.9158 92 159.9333 C93.05 160.5538 105.5602 164.1241 119 165.9333 C131.1479 167.5686 144 166.9333 144 166.9333 "/>
<path id="6" d="M119 168.9333 L106 170.9333 "/>
<path id="7" d="M119 165.9333 L116 149.9333 "/>
<path id="8" d="M133 174.9333 L122 178.9333 "/>
<path id="9" d="M138 165.9333 L133 148.9333 "/>
</g>
</g>
</svg>
