<?xml version="1.0" encoding="utf-8"?>
<!DOCTYPE svg PUBLIC "-//W3C//DTD SVG 1.1//EN" "http://www.w3.org/Graphics/SVG/1.1/DTD/svg11.dtd">
<svg viewBox="0 0 800 800" preserveAspectRatio="xMinYMin meet" xmlns="http://www.w3.org/2000/svg" version="1.1">
<g fill="none" stroke="black" stroke-linecap="round" stroke-linejoin="round" stroke-width="1.4737">
<g transform="translate(179.1265,87.52) scale(2.0357) translate(-136,-24)">
<path id="0" d="M136 179 C136 179 134.6689 163.9934 138 154 C140.7255 145.8236 142.9829 142.3852 150 137 C162.1251 127.6947 167.2467 124.1927 181 121 C190.6287 118.7648 194.3841 121.7518 206 124 C208.9882 124.5784 209.3887 125.0918 212 127 C222.1018 134.3821 224.0418 134.4523 232 143 C236.4864 147.8187 238.9323 156.0181 239 156 C239.2402 155.936 242.2414 146.5578 247 139 C250.383 133.6269 251.491 130.8788 256 129 C265.9598 124.8501 269.612 125.1954 283 124 C297.1458 122.737 300.5418 120.8546 312 124 C322.2109 126.803 325.7434 129.9936 334 138 C340.6039 144.4037 342.4292 146.9347 345 156 C351.2407 178.0065 350.8365 180.6605 353 205 C354.7844 225.0744 357.1983 228.3672 353 246 C348.1093 266.5409 343.9704 269.2533 333 289 C329.6436 295.0416 328.5168 295.373 323 300 C313.3642 308.0816 312.996 308.8023 302 315 C285.9405 324.0517 284.2087 326.7485 268 331 C256.5426 334.0052 254.258 331.8839 241 331 C232.0631 330.4042 230.3606 331.3457 223 328 C210.1793 322.1724 208.7023 320.419 197 311 C188.7789 304.383 188.3934 303.5245 182 295 C175.196 285.928 177.0041 283.6384 170 275 C162.5566 265.8198 159.0141 266.9781 152 258 C147.378 252.0839 147.2546 250.6657 145 243 C139.931 225.7654 138.9494 224.7883 137 207 C135.0441 189.1523 137 170 137 170 "/>
<path id="1" d="M238 154 C238 154 234.3039 145.8265 234 138 C232.3632 95.8527 227.9793 85.3181 234 51 C236.1113 38.9655 246.7818 31.7956 254 24 C254.7342 23.2071 258.1338 23.5669 259 24 C259.4331 24.2166 260 27 260 27 "/>
</g>
</g>
</svg>
