<?xml version="1.0" encoding="utf-8"?>
<!DOCTYPE svg PUBLIC "-//W3C//DTD SVG 1.1//EN" "http://www.w3.org/Graphics/SVG/1.1/DTD/svg11.dtd">
<svg viewBox="0 0 800 800" preserveAspectRatio="xMinYMin meet" xmlns="http://www.w3.org/2000/svg" version="1.1">
<g fill="none" stroke="black" stroke-linecap="round" stroke-linejoin="round" stroke-width="1.1665">
<g transform="translate(137.6711,87.52) scale(2.5719) translate(-224,-75.1333)">
<path id="0" d="M265 315.1333 C265 315.1333 266.1445 313.3239 266 313.1333 C260.8246 306.3112 251.584 300.44 243 286.1333 C232.9853 269.4422 230.8131 266.7973 227 248.1333 C221.8616 222.9822 222.4575 219.0475 224 193.1333 C224.8294 179.1999 227.2304 177.7083 232 164.1333 C233.4629 159.9697 233.94 159.1933 237 156.1333 C242.8846 150.2487 244.6149 146.6357 251 145.1333 C265.3325 141.761 271.479 142.263 288 144.1333 C295.5211 144.9848 296.6196 146.8605 304 151.1333 C315.2933 157.6716 322.2776 166.3242 326 166.1333 C329.1335 165.9726 333.9197 156.448 343 149.1333 C351.4804 142.3019 353.5586 138.3392 362 137.1333 C382.6669 134.1809 391.7296 135.9951 413 139.1333 C417.5749 139.8083 420.638 142.3541 423 146.1333 C426.5876 151.8734 427.6476 154.8877 428 163.1333 C430.0471 211.0348 428.8852 216.6624 428 263.1333 C427.9554 265.4746 427.3808 265.9327 426 268.1333 C411.69 290.9399 408.2427 304.5881 396 314.1333 C390.6095 318.3361 370.6078 314.3821 367 314.1333 C366.9828 314.1321 367 312.1333 367 312.1333 "/>
<path id="1" d="M263 310.1333 C263 310.1333 270.7218 315.7132 278 317.1333 C289.6494 319.4064 292.5266 319.3737 304 318.1333 C309.1139 317.5805 310.529 316.4866 315 313.1333 C323.7905 306.5405 324.7304 301.6069 332 297.1333 C334.4371 295.6336 336.8775 296.3481 341 297.1333 C346.8456 298.2468 347.8751 298.2634 353 301.1333 C359.6941 304.882 359.8054 308.0361 366 311.1333 C369.2694 312.768 375 312.1333 375 312.1333 "/>
<path id="2" d="M323 164.1333 C323 164.1333 324.9205 159.588 324 157.1333 C317.3134 139.3024 313.8407 136.7616 305 116.1333 C301.916 108.9374 301.5204 108.4311 300 101.1333 C299.147 97.039 298.8962 93.2371 300 92.1333 C302.8208 89.3125 308.0051 87.4544 316 85.1333 C322.9079 83.1278 325.3607 85.483 331 83.1333 C335.3927 81.303 339.9877 75.0388 340 75.1333 C340.1391 76.1995 339.4834 131.9877 340 152.1333 C340.0071 152.4084 342 153.1333 342 153.1333 "/>
<path id="3" d="M339 128.1333 C339 128.1333 340.0144 111.4165 345 100.1333 C348.3742 92.497 351.0007 91.5727 358 85.1333 C363.0562 80.4816 364.2085 78.6986 370 77.1333 C380.4446 74.3105 393.9423 74.1216 395 75.1333 C395.9601 76.0517 395.7665 88.8974 393 99.1333 C391.2908 105.4575 389.9374 107.1959 385 112.1333 C374.8901 122.2432 372.1239 125.9594 361 131.1333 C354.406 134.2003 342 132.1333 342 132.1333 "/>
<path id="4" d="M347 128.1333 C347 128.1333 352.0244 114.7248 359 105.1333 C363.1174 99.4719 366.1337 100.324 371 95.1333 C373.0181 92.9807 372.2219 90.5882 374 89.1333 C376.3504 87.2103 379.7793 87.9099 382 86.1333 C383.2812 85.1084 384 81.1333 384 81.1333 "/>
<path id="5" d="M364 120.1333 C364 120.1333 363.6666 116.4112 364 116.1333 C364.6835 115.5638 368.4322 116.1785 370 115.1333 C371.4894 114.1404 373 110.1333 373 110.1333 "/>
<path id="6" d="M374 105.1333 C374 105.1333 381.8908 98.0347 383 96.1333 C383.1427 95.8887 381 93.1333 381 93.1333 "/>
<path id="7" d="M350 110.1333 C350 110.1333 350.9522 104.4611 353 101.1333 C354.3362 98.962 358 97.1333 358 97.1333 "/>
<path id="8" d="M361 96.1333 L365 87.1333 "/>
</g>
</g>
</svg>
