<?xml version="1.0" encoding="utf-8"?>
<!DOCTYPE svg PUBLIC "-//W3C//DTD SVG 1.1//EN" "http://www.w3.org/Graphics/SVG/1.1/DTD/svg11.dtd">
<svg viewBox="0 0 800 800" preserveAspectRatio="xMinYMin meet" xmlns="http://www.w3.org/2000/svg" version="1.1">
<g fill="none" stroke="black" stroke-linecap="round" stroke-linejoin="round" stroke-width="1.0273">
<g transform="translate(122.5645,87.52) scale(2.9204) translate(-188,-130.1333)">
<path id="0" d="M233 139.1333 L228 152.1333 "/>
<path id="1" d="M236 141.1333 C236 141.1333 246.7595 140.2607 251 143.1333 C258.4857 148.2043 263.8965 153.5986 267 162.1333 C270.1263 170.7306 267 187.1333 267 187.1333 "/>
<path id="2" d="M229 152.1333 C229 152.1333 236.741 152.4076 241 155.1333 C247.5231 159.3081 251.8508 162.1155 254 168.1333 C257.6198 178.2687 256 197.1333 256 197.1333 "/>
<path id="3" d="M267 185.1333 L267 197.1333 "/>
<path id="4" d="M246 192.1333 C246 192.1333 251.6295 196.0939 257 197.1333 C266.0619 198.8872 277 198.1333 277 198.1333 "/>
<path id="5" d="M248 193.1333 C248 193.1333 245.3268 190.6319 243 190.1333 C239.2888 189.3381 237.8858 189.0872 234 190.1333 C225.8465 192.3285 224.3787 192.7608 217 197.1333 C211.6501 200.3036 211.1035 201.1377 207 206.1333 C199.9252 214.7461 197.2314 215.6093 194 225.1333 C188.6119 241.014 189.7784 243.7566 188 262.1333 C186.817 274.3582 186.3758 275.4932 188 287.1333 C189.2238 295.904 189.6746 297.5124 194 305.1333 C199.5597 314.929 200.4309 316.8682 209 324.1333 C222.2099 335.3331 225.8821 341.2797 240 344.1333 C265.2999 349.2471 280.1375 347.9916 303 343.1333 C310.3782 341.5655 314.0913 334.3551 320 327.1333 C321.347 325.487 319.7162 323.0007 321 321.1333 C324.2395 316.4214 327.3938 316.6285 331 311.1333 C337.3619 301.439 340.3677 299.6072 342 289.1333 C345.7965 264.7728 347.1667 256.3558 343 234.1333 C340.8715 222.7814 335.4579 221.1695 327 209.1333 C322.5598 202.8146 322.3347 200.912 317 197.1333 C311.9417 193.5504 309.8019 193.267 303 192.1333 C295.6631 190.9105 293.3472 190.61 287 192.1333 C282.8584 193.1273 278 198.1333 278 198.1333 "/>
<path id="6" d="M269 199.1333 C269 199.1333 276.1053 200.1435 280 198.1333 C289.3823 193.2909 289.8381 187.6738 300 183.1333 C311.2955 178.0864 314.3176 181.4453 327 177.1333 C338.6779 173.1628 339.9681 172.899 350 166.1333 C360.5994 158.9849 362.5598 157.6994 370 148.1333 C375.3708 141.2281 378.1434 130.2768 378 130.1333 C377.7131 129.8464 365.0298 129.43 355 133.1333 C334.3004 140.7763 332.9233 142.3366 313 154.1333 C295.3546 164.5813 293.556 165.1595 279 178.1333 C271.8648 184.493 267 195.1333 267 195.1333 "/>
</g>
</g>
</svg>
