<?xml version="1.0" encoding="utf-8"?>
<!DOCTYPE svg PUBLIC "-//W3C//DTD SVG 1.1//EN" "http://www.w3.org/Graphics/SVG/1.1/DTD/svg11.dtd">
<svg viewBox="0 0 800 800" preserveAspectRatio="xMinYMin meet" xmlns="http://www.w3.org/2000/svg" version="1.1">
<g fill="none" stroke="black" stroke-linecap="round" stroke-linejoin="round" stroke-width="1.4977">
<g transform="translate(87.52,87.52) scale(2.0031) translate(-172,-39.4167)">
<path id="0" d="M282 174.4167 C282 174.4167 274.4762 167.2752 267 164.4167 C258.9981 161.3571 257.4291 161.8042 248 161.4167 C221.3744 160.3225 215.48 157.9923 194 161.4167 C187.3358 162.4791 183.1017 166.4506 179 172.4167 C174.0323 179.6424 172.5958 183.2882 172 193.4167 C169.2731 239.774 170.325 246.6115 172 291.4167 C172.1564 295.5998 175.0357 295.9811 176 300.4167 C177.389 306.8062 175.0864 308.6759 177 314.4167 C179.0916 320.6914 180.2826 321.8789 185 327.4167 C191.3751 334.9005 192.1521 337.7946 200 341.4167 C215.2176 348.4402 218.8294 349.5239 237 351.4167 C265.1813 354.3522 266.8099 352.4978 296 351.4167 C306.9394 351.0115 307.3378 350.6118 318 348.4167 C324.0451 347.1721 328.9929 344.966 330 344.4167 C330.0065 344.4132 329 342.4167 329 342.4167 "/>
<path id="1" d="M280 176.4167 C280 176.4167 279.7115 171.2085 281 168.4167 C282.1128 166.0056 283.3107 165.6314 286 163.4167 C291.7255 158.7015 292.0122 157.5532 298 154.4167 C301.5995 152.5312 302.5888 152.5049 307 152.4167 C351.4052 151.5286 360.8362 146.2739 398 152.4167 C411.6019 154.6649 415.7744 161.3554 428 172.4167 C435.1901 178.922 435.7063 181.2925 440 190.4167 C443.247 197.3165 443.7382 198.6944 444 206.4167 C444.6965 226.9634 446.2877 229.8839 442 249.4167 C437.8038 268.5326 435.6609 270.4367 426 288.4167 C418.1356 303.0533 416.6904 303.7218 406 316.4167 C401.2069 322.1085 400.1406 323.3464 394 326.4167 C387.4982 329.6676 384.9484 327.5215 378 330.4167 C373.8703 332.1374 373.6 335.9201 370 336.4167 C349.4968 339.2447 320 338.4167 320 338.4167 "/>
<path id="2" d="M286 170.4167 C286 170.4167 280.0529 88.9747 285 76.4167 C286.097 73.6319 305.0193 72.6121 325 71.4167 C363.2367 69.129 402 69.4167 402 69.4167 "/>
<path id="3" d="M334 69.4167 C334 69.4167 335.7245 64.7601 337 64.4167 C343.9082 62.5568 348.563 62.4167 360 62.4167 C415.1962 62.4167 471 64.4167 471 64.4167 "/>
<path id="4" d="M336 77.4167 C336 77.4167 358.3236 91.9706 379 95.4167 C408.2166 100.2861 414.7345 98.7805 444 95.4167 C454.4228 94.2187 454.8807 89.4082 466 85.4167 C474.0108 82.541 479.9074 83.4784 483 81.4167 C483.9959 80.7527 484.5488 75.4291 484 73.4167 C483.7094 72.3513 480 70.4167 480 70.4167 "/>
<path id="5" d="M284 83.4167 C284 83.4167 282.7947 77.0369 284 72.4167 C285.4864 66.719 288.9664 66.1014 290 60.4167 C291.6581 51.2974 290 39.4167 290 39.4167 "/>
</g>
</g>
</svg>
