<?xml version="1.0" encoding="utf-8"?>
<!DOCTYPE svg PUBLIC "-//W3C//DTD SVG 1.1//EN" "http://www.w3.org/Graphics/SVG/1.1/DTD/svg11.dtd">
<svg viewBox="0 0 800 800" preserveAspectRatio="xMinYMin meet" xmlns="http://www.w3.org/2000/svg" version="1.1">
<g fill="none" stroke="black" stroke-linecap="round" stroke-linejoin="round" stroke-width="0.36482">
<g transform="translate(128.6358,87.52) scale(8.2232) translate(-263,-110)">
<path id="0" d="M280 141 C280 141 268.5069 143.3183 265 146 C263.4877 147.1565 262.0637 152.0104 263 154 C267.5722 163.7159 271.5624 168.3845 281 180 C283.9039 183.574 285.6999 185.6615 289 186 C300.7958 187.2098 314.9612 187.6531 320 184 C324.4371 180.7831 325.5499 170.0337 329 157 C329.8219 153.8949 330.0288 152.3515 329 150 C327.2272 145.9479 325.8224 144.3128 322 141 C319.0385 138.4333 317.7792 137.6047 314 137 C306.564 135.8102 304.8908 135.6849 297 137 C287.7167 138.5472 278 143 278 143 "/>
<path id="1" d="M288 139 C288 139 285.51 127.2015 287 120 C287.9076 115.6131 294 110 294 110 "/>
</g>
</g>
</svg>
