<?xml version="1.0" encoding="utf-8"?>
<!DOCTYPE svg PUBLIC "-//W3C//DTD SVG 1.1//EN" "http://www.w3.org/Graphics/SVG/1.1/DTD/svg11.dtd">
<svg viewBox="0 0 800 800" preserveAspectRatio="xMinYMin meet" xmlns="http://www.w3.org/2000/svg" version="1.1">
<g fill="none" stroke="black" stroke-linecap="round" stroke-linejoin="round" stroke-width="0.82565">
<g transform="translate(87.52,96.6037) scale(3.6335) translate(-163,-64.4167)">
<path id="0" d="M213 82.4167 C213 82.4167 194.3663 89.1913 181 97.4167 C176.9352 99.9181 175.8579 101.6688 174 106.4167 C167.4631 123.122 165.9312 125.2968 163 143.4167 C160.6568 157.9016 159.6063 161.6902 163 174.4167 C166.6419 188.0737 169.4285 191.6363 179 203.4167 C187.5887 213.9874 190.5145 217.3792 202 222.4167 C215.4276 228.306 219.0427 226.4708 236 228.4167 C249.2549 229.9377 263 229.4167 263 229.4167 "/>
<path id="1" d="M215 81.4167 C215 81.4167 239.3575 77.9958 252 80.4167 C256.0924 81.2003 262 90.4167 262 90.4167 "/>
<path id="2" d="M262 90.4167 L262 64.4167 "/>
<path id="3" d="M262 64.4167 L271 64.4167 "/>
<path id="4" d="M271 64.4167 L271 91.4167 "/>
<path id="5" d="M271 91.4167 C271 91.4167 276.1888 88.0582 281 87.4167 C290.1352 86.1987 293.4307 85.1904 301 87.4167 C307.4116 89.3024 309.0811 91.7092 315 97.4167 C322.6087 104.7537 323.45 105.6535 329 114.4167 C332.4687 119.8936 333.2251 121.0882 334 127.4167 C336.0564 144.2105 336.8442 149.585 335 163.4167 C334.4892 167.2474 328 172.4167 328 172.4167 "/>
<path id="6" d="M266 231.4167 C266 231.4167 279.9496 228.9668 291 224.4167 C295.7092 222.4776 296.2707 221.4328 300 217.4167 C308.9329 207.7966 309.8339 207.4915 317 196.4167 C326.0366 182.451 333 166.4167 333 166.4167 "/>
<path id="7" d="M269 92.4167 L262 88.4167 "/>
</g>
</g>
</svg>
