<?xml version="1.0" encoding="utf-8"?>
<!DOCTYPE svg PUBLIC "-//W3C//DTD SVG 1.1//EN" "http://www.w3.org/Graphics/SVG/1.1/DTD/svg11.dtd">
<svg viewBox="0 0 800 800" preserveAspectRatio="xMinYMin meet" xmlns="http://www.w3.org/2000/svg" version="1.1">
<g fill="none" stroke="black" stroke-linecap="round" stroke-linejoin="round" stroke-width="1.8577">
<g transform="translate(327.3302,87.52) scale(1.6149) translate(-233,-65.4667)">
<path id="0" d="M265 235.4667 C265 235.4667 268.7117 255.0556 269 274.4667 C270.2029 355.4643 270.0705 408.9974 268 437.4667 C267.9644 437.9555 257.8982 438.3235 257 439.4667 C255.9873 440.7556 256.5465 451.3229 257 451.4667 C261.9245 453.0281 282.1201 453.5023 298 452.4667 C300.0409 452.3336 302.2874 450.177 303 448.4667 C303.9371 446.2175 303.7411 441.0225 303 440.4667 C300.6533 438.7066 290.1068 438.477 287 436.4667 C286.0758 435.8687 286.0501 432.9427 286 429.4667 C284.5631 329.8448 282.2708 322.2764 284 228.4667 C284.1386 220.9462 285.7759 217.8976 290 212.4667 C294.6328 206.5102 299.1463 207.7539 305 201.4667 C311.8401 194.1199 312.4948 192.7273 317 183.4667 C321.1425 174.9515 321.7896 173.7463 323 164.4667 C324.652 151.8015 324.8093 150.3325 323 137.4667 C320.4358 119.2327 319.3615 118.3384 314 100.4667 C312.0013 93.8042 312.0864 92.3389 308 87.4667 C300.1196 78.0708 298.1786 77.4641 288 69.4667 C284.6781 66.8566 283.6409 65.9036 280 65.4667 C272.7525 64.597 268.4531 63.5406 263 66.4667 C252.0331 72.3513 248.8775 76.6014 239 87.4667 C234.9735 91.8958 234.2667 93.7667 233 99.4667 C231.575 105.8791 232.1708 107.1695 233 114.4667 C234.6346 128.8508 236.4135 128.9619 238 143.4667 C239.891 160.7558 236.8752 163.4677 240 178.4667 C241.294 184.678 243.5097 186.9764 248 191.4667 C251.2073 194.674 254.2133 193.4373 258 196.4667 C260.8671 198.7603 261.4393 199.825 263 203.4667 C265.6825 209.7258 266.3051 210.7497 267 217.4667 C267.7181 224.4085 266 232.4667 266 232.4667 "/>
<path id="1" d="M279 167.4667 L278 190.4667 "/>
<path id="2" d="M278 179.4667 C278 179.4667 273.7893 181.2038 273 182.4667 C272.3557 183.4975 272.5189 185.7827 273 187.4667 C273.2474 188.3327 274.8077 189.5051 275 189.4667 C275.4327 189.3801 277.5629 187.7781 278 186.4667 C278.6557 184.4996 278.225 181.1417 278 180.4667 C277.975 180.3917 276.1 180.2917 276 180.4667 C275.2875 181.7135 274 187.0064 274 187.4667 C274 187.4667 275.975 187.5417 276 187.4667 C276.225 186.7917 276.225 182.1417 276 181.4667 C275.975 181.3917 274.2166 181.2501 274 181.4667 C273.5669 181.8998 272.9656 184.446 273 184.4667 C273.2578 184.6214 279 184.4667 279 184.4667 "/>
<path id="3" d="M292 170.4667 C292 170.4667 285.5044 170.0343 285 170.4667 C284.6294 170.7843 284.5012 175.5938 285 176.4667 C285.2732 176.9447 288.6734 176.9768 289 177.4667 C289.4454 178.1347 289.3074 182.2105 289 182.4667 C288.5574 182.8355 282.999 182.4676 283 182.4667 C283.002 182.4647 292 179.4667 292 179.4667 "/>
<path id="4" d="M299 173.4667 C299 173.4667 292.9295 173.9355 292 174.4667 C291.7895 174.5869 291.7895 177.3464 292 177.4667 C292.9295 177.9978 299 178.4667 299 178.4667 "/>
<path id="5" d="M298 167.4667 L297 181.4667 "/>
<path id="6" d="M278 147.4667 L277 155.4667 "/>
<path id="7" d="M246 127.4667 C246 127.4667 312.3169 128.2599 316 127.4667 C316.1044 127.4442 314.4431 119.6971 311 113.4667 C304.2543 101.2601 303.3945 101.0092 295 89.4667 C291.5094 84.6671 291.2405 83.223 287 80.4667 C282.5298 77.5611 280.6312 77.2346 275 76.4667 C270.5726 75.8629 267.2252 75.6285 265 77.4667 C259.2718 82.1987 257.3815 86.3854 252 95.4667 C249.7435 99.2745 249.5929 100.0196 249 104.4667 C247.6669 114.4646 248.0023 125.4551 248 125.4667 C247.9994 125.4697 245.7892 120.3097 246 119.4667 C246.115 119.0068 250 117.4667 250 117.4667 "/>
<path id="8" d="M260 122.4667 C260 122.4667 260.9986 124.4667 261 124.4667 C261 124.4667 261 122.4667 261 122.4667 "/>
<path id="9" d="M266 121.4667 L269 123.4667 "/>
<path id="10" d="M278 123.4667 L279 120.4667 "/>
<path id="11" d="M289 121.4667 L290 121.4667 "/>
<path id="12" d="M271 93.4667 C271 93.4667 272.0005 125.4521 272 125.4667 C271.9999 125.4689 270 120.4667 270 120.4667 "/>
<path id="13" d="M272 93.4667 C272 93.4667 271.4848 104.0722 273 113.4667 C273.8752 118.8929 276.7062 122.7038 277 124.4667 C277.0168 124.5674 275 125.4667 275 125.4667 "/>
<path id="14" d="M250 136.4667 C250 136.4667 244.5144 136.8665 244 137.4667 C243.4975 138.0529 243.396 142.7764 244 143.4667 C244.8178 144.4013 251 145.4667 251 145.4667 "/>
<path id="15" d="M257 135.4667 L257 141.4667 "/>
<path id="16" d="M270 139.4667 L269 143.4667 "/>
<path id="17" d="M266 137.4667 L272 133.4667 "/>
<path id="18" d="M277 134.4667 L283 139.4667 "/>
<path id="19" d="M286 134.4667 C286 134.4667 286.6345 139.5632 286 141.4667 C285.7281 142.2824 283 143.4667 283 143.4667 "/>
<path id="20" d="M270 136.4667 L270 137.4667 "/>
<path id="21" d="M273 181.4667 C273 181.4667 270.8267 188.2241 271 188.4667 C271.1555 188.6844 278 188.4667 278 188.4667 "/>
<path id="22" d="M262 231.4667 L282 232.4667 "/>
<path id="23" d="M268 242.4667 C268 242.4667 285.648 243.5107 286 243.4667 C286.032 243.4627 284 240.4667 284 240.4667 "/>
<path id="24" d="M265 232.4667 C265 232.4667 264.5291 242.2526 265 242.4667 C267.2791 243.5026 284.7209 243.5026 287 242.4667 C287.4709 242.2526 286.9888 232.4853 287 232.4667 C287.0036 232.4607 290 237.4667 290 237.4667 "/>
<path id="25" d="M257 449.4667 C257 449.4667 312.4501 450.4768 313 450.4667 C313.0193 450.4663 311 448.4667 311 448.4667 "/>
</g>
</g>
</svg>
