<?xml version="1.0" encoding="utf-8"?>
<!DOCTYPE svg PUBLIC "-//W3C//DTD SVG 1.1//EN" "http://www.w3.org/Graphics/SVG/1.1/DTD/svg11.dtd">
<svg viewBox="0 0 800 800" preserveAspectRatio="xMinYMin meet" xmlns="http://www.w3.org/2000/svg" version="1.1">
<g fill="none" stroke="black" stroke-linecap="round" stroke-linejoin="round" stroke-width="0.88806">
<g transform="translate(119.6125,87.52) scale(3.3782) translate(-225,-140)">
<path id="0" d="M257 201 C257 201 249.9307 196.73 247 193 C245.7459 191.4038 246 189.9374 246 187 C246 174.7607 244.5086 171.9656 247 162 C248.2827 156.8692 250.3315 154.6681 255 151 C263.0346 144.6871 265.6609 141.5107 275 140 C295.5825 136.6705 306.9069 135.2667 323 140 C331.6777 142.5523 335.7265 150.1966 343 160 C345.7612 163.7217 345.4777 165.6025 346 171 C346.9253 180.5612 347.8257 183.4362 346 191 C345.0242 195.0427 342.738 196.5495 339 200 C336.8586 201.9767 335.9529 202.4727 333 203 C322.8989 204.8038 311 205 311 205 "/>
<path id="1" d="M257 201 C257 201 258.2117 202.9283 259 203 C266.2258 203.6569 279 203 279 203 "/>
<path id="2" d="M280 204 C280 204 278.5275 223.348 280 242 C281.4909 260.8845 284.2544 261.0475 286 280 C287.7248 298.7261 287 318 287 318 "/>
<path id="3" d="M313 206 C313 206 313.1124 224.2027 315 242 C316.5914 257.0048 318.8353 257.0525 320 272 C321.8043 295.1558 321 319 321 319 "/>
<path id="4" d="M267 177 L279 185 "/>
<path id="5" d="M268 177 C268 177 266.8662 175.2141 267 175 C267.949 173.4817 269.6955 171.3603 273 169 C279.8843 164.0826 281.3515 160.9696 288 160 C301.3309 158.0559 307.4639 159.3588 321 162 C324.7177 162.7254 327.6358 165.4422 329 168 C330.1958 170.2422 329 177 329 177 "/>
<path id="6" d="M334 169 C334 169 326 178 326 178 C326 178 332.346 171.3081 333 170 C333.0569 169.8863 331 168 331 168 "/>
<path id="7" d="M279 184 L322 182 "/>
<path id="8" d="M330 176 L325 181 "/>
<path id="9" d="M320 197 L316 197 "/>
<path id="10" d="M273 170 L280 175 "/>
<path id="11" d="M288 161 L289 169 "/>
<path id="12" d="M302 161 L302 166 "/>
<path id="13" d="M321 165 L315 170 "/>
<path id="14" d="M225 325 C225 325 239.1007 321.3349 253 321 C321.2686 319.355 391 321 391 321 "/>
<path id="15" d="M285 178 L286 181 "/>
<path id="16" d="M286 177 C286 177 289.9842 180 290 180 C290.004 180 289 177 289 177 "/>
<path id="17" d="M302 175 C302 175 307.9901 178.9803 308 179 C308.0028 179.0056 304 179 304 179 "/>
<path id="18" d="M301 176 C301 176 301.0007 181.0003 301 181 C300.9987 180.9993 299 176.9536 299 175 C299 174.0232 300.9348 171.9739 301 172 C301.88 172.352 308.9202 178.6009 309 179 C309.0167 179.0835 303 182 303 182 "/>
</g>
</g>
</svg>
