<?xml version="1.0" encoding="utf-8"?>
<!DOCTYPE svg PUBLIC "-//W3C//DTD SVG 1.1//EN" "http://www.w3.org/Graphics/SVG/1.1/DTD/svg11.dtd">
<svg viewBox="0 0 800 800" preserveAspectRatio="xMinYMin meet" xmlns="http://www.w3.org/2000/svg" version="1.1">
<g fill="none" stroke="black" stroke-linecap="round" stroke-linejoin="round" stroke-width="1.6427">
<g transform="translate(296.814,87.52) scale(1.8263) translate(-180,-69.7333)">
<path id="0" d="M202 116.7333 C202 116.7333 195.645 115.5183 192 116.7333 C188.355 117.9483 185.4041 119.6912 184 122.7333 C180.8353 129.5903 180.3071 134.1336 180 142.7333 C179.8797 146.1031 180.732 147.6298 183 150.7333 C189.6071 159.7746 192.0444 159.3583 199 168.7333 C203.2365 174.4434 202.324 178.6377 206 181.7333 C208.9753 184.2389 212.1117 184.38 218 184.7333 C236.3708 185.8356 241.1404 187.8174 256 184.7333 C262.7584 183.3307 264.6967 180.0366 271 173.7333 C281.1822 163.5511 283.0915 162.0382 290 150.7333 C292.9608 145.8884 292.7736 143.8474 293 137.7333 C293.2405 131.2393 293.3577 128.6631 291 123.7333 C288.9027 119.3481 286.7533 117.9856 282 114.7333 C278.0059 112.0005 276.7873 111.0753 272 110.7333 C244.041 108.7363 239.8119 107.621 212 109.7333 C202.935 110.4218 193 116.7333 193 116.7333 "/>
<path id="1" d="M182 120.7333 C182 120.7333 178.1311 96.1184 182 85.7333 C184.5511 78.8856 193.0031 75.0646 201 69.7333 C202.3478 68.8348 204.3398 68.9032 206 69.7333 C211.8107 72.6387 214.0105 73.5269 219 78.7333 C224.7161 84.698 225.6146 86.1813 229 93.7333 C231.6664 99.6814 231.9922 107.7412 232 107.7333 C232.0207 107.7127 233.8413 95.2686 238 84.7333 C241.0414 77.0286 243.4607 71.1097 247 69.7333 C253.3496 67.2641 263.1513 68.5636 274 70.7333 C277.6694 71.4672 280.5272 73.665 282 76.7333 C285.1312 83.2566 284.9259 86.3351 286 95.7333 C286.8832 103.4617 286 111.7333 286 111.7333 "/>
<path id="2" d="M242 131.7333 C242 131.7333 226.6031 128.9187 219 129.7333 C217.1528 129.9312 213.8163 134.1363 214 134.7333 C215.3268 139.0455 226.2429 155.0653 227 155.7333 C227.0311 155.7608 229.0175 151.4681 231 149.7333 C232.0449 148.8191 233.0419 148.8185 235 148.7333 C244.2011 148.3333 247.141 148.0801 254 148.7333 C254.7908 148.8086 255.9878 150.7618 256 150.7333 C256.189 150.2924 258.4325 142.5709 260 134.7333 C260.3732 132.8673 260.3737 130.9633 260 130.7333 C257.6524 129.2887 253.091 127.1025 247 126.7333 C237.8565 126.1792 227 128.7333 227 128.7333 "/>
<path id="3" d="M236 148.7333 L250 134.7333 "/>
<path id="4" d="M198 99.9333 L215 97.9333 "/>
<path id="5" d="M248 93.9333 L274 93.9333 "/>
<path id="6" d="M223 186.9333 L221 377.9333 "/>
<path id="7" d="M253 182.9333 C253 182.9333 252.2831 291.1142 247 391.9333 C246.4873 401.718 241 411.9333 241 411.9333 "/>
<path id="8" d="M221 372.9333 C221 372.9333 220.7452 403.4238 223 407.9333 C223.5637 409.0607 239 408.9333 239 408.9333 "/>
<path id="9" d="M224 162.9333 C224 162.9333 226.9958 160.9333 229 160.9333 C231.8059 160.9333 235.7432 162.2056 236 162.9333 C236.8415 165.3176 235.7897 176.705 235 177.9333 C234.7909 178.2587 227.9795 177.5455 227 176.9333 C226.7161 176.7559 227 172.9333 227 172.9333 C227.3056 172.9333 233.8731 177.1211 235 176.9333 C235.7683 176.8053 239 170.9333 239 170.9333 "/>
<path id="10" d="M248 160.9333 C248 160.9333 241.3794 160.4997 241 160.9333 C240.5044 161.4997 240.9085 168.8723 241 168.9333 C241.0572 168.9715 245.7262 164.9333 247 164.9333 C248.0615 164.9333 251.8267 167.9804 252 168.9333 C252.2278 170.1862 250.2144 174.719 249 175.9333 C248.5142 176.4191 245 175.9333 245 175.9333 "/>
<path id="11" d="M266 160.9333 C266 160.9333 261.8114 160.11 260 160.9333 C257.8044 161.9314 255.6844 164.0513 255 165.9333 C254.4342 167.4892 255.3998 171.4189 256 171.9333 C256.5862 172.4358 260.3967 172.6459 262 171.9333 C263.2767 171.3659 265 167.9333 265 167.9333 "/>
<path id="12" d="M264 155.9333 C264 155.9333 261.5839 159.9917 261 163.9333 C259.6759 172.8711 260 182.9333 260 182.9333 "/>
</g>
</g>
</svg>
