<?xml version="1.0" encoding="utf-8"?>
<!DOCTYPE svg PUBLIC "-//W3C//DTD SVG 1.1//EN" "http://www.w3.org/Graphics/SVG/1.1/DTD/svg11.dtd">
<svg viewBox="0 0 800 800" preserveAspectRatio="xMinYMin meet" xmlns="http://www.w3.org/2000/svg" version="1.1">
<g fill="none" stroke="black" stroke-linecap="round" stroke-linejoin="round" stroke-width="1.5937">
<g transform="translate(264.4665,87.52) scale(1.8824) translate(-197,-130)">
<path id="0" d="M198 202 C198 202 197.0674 185.3062 201 174 C204.0495 165.2326 206.3762 162.7574 214 156 C227.0634 144.4211 229.6765 141.0365 245 135 C259.4249 129.3175 262.7514 131.3018 280 130 C288.7393 129.3404 289.5254 129.3051 298 131 C308.896 133.1792 309.8057 133.725 320 138 C324.7081 139.9744 327.2123 140.5949 329 144 C335.7173 156.7949 337.4011 161.505 341 178 C343.0639 187.4596 341.8531 198.723 341 199 C331.2035 202.1807 302.474 201.9313 264 203 C230.5709 203.9286 197 203 197 203 "/>
<path id="1" d="M208 203 C208 203 205.5221 216.3803 208 227 C212.0542 244.3751 218.0788 245.045 222 263 C227.2298 286.9471 222.3564 290.1189 227 314 C229.0326 324.4536 230.2577 326.2617 236 335 C240.9499 342.5324 243.9176 345.7249 250 349 C253.3888 350.8247 256.5696 350.1235 262 349 C270.2548 347.2921 270.7391 344.5989 279 343 C285.3681 341.7675 286.2708 343.8411 293 343 C301.8921 341.8885 303.2397 342.2543 311 339 C317.6153 336.2258 318.4229 335.0921 324 330 C329.5085 324.9705 332.7597 323.4123 334 318 C337.1442 304.2799 333.347 299.5214 335 282 C335.7958 273.5644 338.5223 273.3595 339 265 C340.4695 239.2837 340.2145 237.0988 339 212 C338.7904 207.6692 336 203 336 203 "/>
<path id="2" d="M249 335 C249 335 249.562 321.496 248 309 C247.1331 302.0644 244.5828 301.8474 244 295 C242.659 279.2429 243.3153 273.982 244 262 C244.0439 261.2323 245.251 260.0217 246 260 C270.3861 259.2932 286.5205 258.5289 313 260 C315.0639 260.1147 317.8875 262.5601 318 264 C319.5373 283.6772 319.2142 304.8771 318 324 C317.9342 325.0371 315.7215 326.8334 314 327 C303.1665 328.0484 299.7205 325.5209 287 327 C279.188 327.9084 278.9866 330.6364 271 332 C258.9913 334.0503 246 334 246 334 "/>
<path id="3" d="M209 187 C209 187 219.6446 183.0152 230 182 C244.4559 180.5828 245.8436 180.911 260 182 C264.3558 182.3351 264.7562 184.9394 269 185 C297.6135 185.4088 323.3616 184.7702 330 183 C330.2949 182.9214 330.9373 174.5966 329 169 C327.0056 163.2383 325.5127 161.7781 321 157 C317.654 153.4571 316.0575 151.5938 312 151 C298.8559 149.0765 295.7942 149.981 280 151 C265.0656 151.9635 263.3522 150.7001 250 155 C235.5629 159.6492 233.4361 161.1565 221 170 C212.1937 176.2623 205 187 205 187 "/>
<path id="4" d="M275 347 C275 347 276.2087 404.8742 273 451 C272.6482 456.057 266.9346 461.9446 267 462 C267.3759 462.3181 281.1999 462.9143 286 462 C286.6978 461.8671 287.9696 459.809 288 458 C288.8668 406.4248 288 343 288 343 "/>
</g>
</g>
</svg>
