<?xml version="1.0" encoding="utf-8"?>
<!DOCTYPE svg PUBLIC "-//W3C//DTD SVG 1.1//EN" "http://www.w3.org/Graphics/SVG/1.1/DTD/svg11.dtd">
<svg viewBox="0 0 800 800" preserveAspectRatio="xMinYMin meet" xmlns="http://www.w3.org/2000/svg" version="1.1">
<g fill="none" stroke="black" stroke-linecap="round" stroke-linejoin="round" stroke-width="1.7185">
<g transform="translate(338.0277,87.52) scale(1.7457) translate(-272,-45.6667)">
<path id="0" d="M328 402.6667 C328 402.6667 330 398.0505 330 393.6667 C330 294.3001 328 189.6667 328 189.6667 "/>
<path id="1" d="M302 403.6667 C302 403.6667 302.862 323.4028 302 243.6667 C301.8652 231.1971 301.8063 229.143 300 218.6667 C299.6781 216.7995 297.209 216.4435 297 214.6667 C295.5537 202.3729 296 184.6667 296 184.6667 "/>
<path id="2" d="M331 179.6667 C331 179.6667 302.9451 183.3317 300 182.6667 C299.7807 182.6171 301.5466 175.8887 300 172.6667 C296.7893 165.9778 291.4927 165.1178 288 157.6667 C284.883 151.0171 287.965 147.9803 285 140.6667 C280.9528 130.6837 277.8444 130.3555 273 120.6667 C271.7889 118.2445 272 117.6093 272 114.6667 C272 98.9728 271.4813 97.4738 273 82.6667 C273.3457 79.296 273.9211 78.092 276 75.6667 C279.1959 71.9381 282.7079 71.4681 285 68.6667 C285.6383 67.8865 284.3317 65.9077 285 64.6667 C287.1333 60.7048 288.2241 59.733 292 55.6667 C294.5753 52.8933 294.9178 51.9645 298 50.6667 C303.4239 48.3829 308.6877 48.556 311 47.6667 C311.1257 47.6183 310.9752 45.6691 311 45.6667 C313.4752 45.4191 323.0246 44.6697 331 45.6667 C332.7446 45.8847 334.1034 46.9483 335 48.6667 C339.2605 56.8327 341.5986 59.032 343 68.6667 C345.3176 84.6003 344.113 86.9711 343 103.6667 C342.6756 108.5322 342.2982 109.4534 340 113.6667 C336.6605 119.7891 331.7059 120.4119 331 125.6667 C328.0609 147.5469 331.3739 173.8121 331 180.6667 C330.9989 180.6871 328 180.6667 328 180.6667 "/>
<path id="3" d="M336 99.6667 C336 99.6667 290.9011 105.3528 286 104.6667 C285.833 104.6433 284.8765 98.097 286 92.6667 C287.7079 84.4119 287.7516 81.9274 292 75.6667 C295.9964 69.7773 299.2234 67.4294 305 64.6667 C308.1634 63.1538 310.9823 63.381 315 64.6667 C322.055 66.9243 325.4773 68.144 330 72.6667 C333.3428 76.0095 333.7442 78.8899 335 84.6667 C336.0556 89.5223 335 95.6667 335 95.6667 "/>
<path id="4" d="M312 119.6667 L312 130.6667 "/>
</g>
</g>
</svg>
