<?xml version="1.0" encoding="utf-8"?>
<!DOCTYPE svg PUBLIC "-//W3C//DTD SVG 1.1//EN" "http://www.w3.org/Graphics/SVG/1.1/DTD/svg11.dtd">
<svg viewBox="0 0 800 800" preserveAspectRatio="xMinYMin meet" xmlns="http://www.w3.org/2000/svg" version="1.1">
<g fill="none" stroke="black" stroke-linecap="round" stroke-linejoin="round" stroke-width="1.2673">
<g transform="translate(192.8636,87.52) scale(2.3673) translate(-220,-63)">
<path id="0" d="M267 204 L267 325 "/>
<path id="1" d="M267 325 L345 326 "/>
<path id="2" d="M348 327 L351 201 "/>
<path id="3" d="M268 209 L269 159 "/>
<path id="4" d="M269 159 C269 159 273.0962 157.1001 277 157 C310.9405 156.1297 332.8937 153.9907 347 157 C348.6954 157.3617 351.1871 165.196 352 173 C353.5746 188.1159 352 205 352 205 "/>
<path id="5" d="M269 209 C269 209 253.5088 214.0146 246 212 C238.6397 210.0253 233.3294 205.4612 228 198 C222.8407 190.7769 222.3081 187.3015 221 177 C218.4824 157.174 216.9878 153.8265 220 135 C222.5256 119.2153 224.6376 116.1115 233 102 C239.6275 90.8161 241.7068 89.2847 252 81 C261.0765 73.6946 262.7839 73.5884 274 69 C284.193 64.8301 285.1912 64.5441 296 63 C305.4577 61.6489 308.2122 60.2186 316 63 C332.7994 68.9998 335.4473 71.689 352 83 C364.7811 91.7338 366.0413 92.5475 376 104 C385.2555 114.6438 386.2591 116.6117 392 129 C395.08 135.6462 394.6347 137.0852 395 145 C396.1091 169.031 396.535 172.126 395 194 C394.7406 197.6966 393.4716 198.4471 391 202 C385.6482 209.6932 384.1367 214.2482 379 217 C374.898 219.1975 365.8652 219.1489 363 217 C358.0307 213.273 351 196 351 196 "/>
<path id="6" d="M270 162 C270 162 234.3103 163.7241 230 162 C229.3103 161.7241 228.6457 153.4489 230 146 C232.4932 132.2872 231.8995 129.2625 238 118 C243.6131 107.6373 246.4499 106.9532 256 98 C262.0744 92.3053 262.8209 91.1672 270 88 C278.6585 84.1801 280.1472 84.173 290 83 C300.5249 81.747 301.2946 81.9076 312 83 C325.3867 84.366 326.9039 83.8763 339 88 C347.6004 90.932 348.0664 92.5075 356 98 C360.8214 101.3379 361.73 101.4843 365 106 C371.6875 115.2352 371.6517 116.3034 377 127 C380.5655 134.1311 381.5517 134.7586 383 142 C384.341 148.705 384.4434 151.9482 383 157 C382.2577 159.598 379.5073 162.5299 377 163 C367.8505 164.7155 351 163 351 163 "/>
<path id="7" d="M303 153 L304 93 "/>
<path id="8" d="M299 92 C299 92 299.7335 93.9667 300 94 C301.4659 94.1832 306.8896 93.2761 307 93 C307.2267 92.4333 304 84 304 84 "/>
<path id="9" d="M303 94 L303 85 "/>
<path id="10" d="M236 142 L241 142 "/>
<path id="11" d="M241 124 L243 125 "/>
<path id="12" d="M252 108 L255 108 "/>
<path id="13" d="M260 99 C260 99 261.9617 97.9617 262 98 C262.1916 98.1916 263 102 263 102 "/>
<path id="14" d="M273 91 L274 94 "/>
<path id="15" d="M285 89 L285 92 "/>
<path id="16" d="M323 87 L317 94 "/>
<path id="17" d="M330 92 L328 95 "/>
<path id="18" d="M345 96 L343 100 "/>
<path id="19" d="M356 102 L352 106 "/>
<path id="20" d="M363 109 L356 116 "/>
<path id="21" d="M373 129 L365 132 "/>
<path id="22" d="M380 144 L370 144 "/>
<path id="23" d="M368 116 L357 117 "/>
<path id="24" d="M293 168 C293 168 289.9323 218.6407 293 223 C294.4357 225.0402 331 222 331 222 "/>
<path id="25" d="M294 169 C294 169 321.6775 167.53 326 170 C327.839 171.0508 328.4658 179.5623 329 189 C329.9475 205.739 329 223 329 223 "/>
<path id="26" d="M271 247 C271 247 339.9793 243.2587 347 248 C350.2452 250.1915 348 299 348 299 "/>
<path id="27" d="M272 247 C272 247 271.446 278.8488 274 286 C274.4915 287.3762 280.5501 288.5582 287 289 C316.3723 291.0118 339.7322 292.9063 347 291 C347.6991 290.8166 348 273 348 273 "/>
<path id="28" d="M307 263 C307 263 305.5285 269.2927 306 270 C306.4963 270.7445 309.5684 271.4281 313 272 C315.3397 272.39 317.893 272.2354 318 272 C318.518 270.8604 318.6369 262.9106 318 261 C317.8649 260.5947 315.4136 259.7173 314 260 C311.5448 260.491 308 263 308 263 "/>
<path id="29" d="M314 179 C314 179 314.348 206.8273 315 211 C315.0127 211.0811 318.9996 211.0135 319 211 C319.1009 207.9726 316 181 316 181 "/>
</g>
</g>
</svg>
