<?xml version="1.0" encoding="utf-8"?>
<!DOCTYPE svg PUBLIC "-//W3C//DTD SVG 1.1//EN" "http://www.w3.org/Graphics/SVG/1.1/DTD/svg11.dtd">
<svg viewBox="0 0 800 800" preserveAspectRatio="xMinYMin meet" xmlns="http://www.w3.org/2000/svg" version="1.1">
<g fill="none" stroke="black" stroke-linecap="round" stroke-linejoin="round" stroke-width="1.9393">
<g transform="translate(285.5271,87.52) scale(1.5469) translate(-201,-76.4167)">
<path id="0" d="M237 157.4167 C237 157.4167 232.9488 191.9874 231 226.4167 C229.9601 244.7883 231 263.4167 231 263.4167 "/>
<path id="1" d="M234 159.4167 C234 159.4167 315.9843 155.5377 322 161.4167 C327.4898 166.7817 323.2074 203.9642 322 245.4167 C321.7257 254.8359 319 264.4167 319 264.4167 "/>
<path id="2" d="M317 263.4167 C317 263.4167 304.8624 258.4812 293 257.4167 C266.8519 255.07 264.8175 255.9934 239 256.4167 C235.6366 256.4718 234.4251 256.8734 232 258.4167 C229.8947 259.7564 229.1632 260.7324 228 263.4167 C223.0075 274.9378 221.3745 276.2801 219 288.4167 C217.1366 297.9406 216.2658 304.9898 219 309.4167 C222.3814 314.8913 230.2047 320.8021 240 322.4167 C269.7674 327.3234 277.4618 325.2201 310 324.4167 C315.1627 324.2892 320.7696 321.7151 321 320.4167 C323.245 307.763 321 262.4167 321 262.4167 "/>
<path id="3" d="M232 183.4167 C232 183.4167 223.0382 183.8706 220 181.4167 C213.4516 176.1276 211.8007 172.0845 206 162.4167 C203.1632 157.6886 202.5967 156.7869 202 151.4167 C200.2215 135.4103 199.7423 133.4522 201 117.4167 C201.6448 109.195 201.9759 106.357 206 100.4167 C210.9028 93.1793 213.6684 92.3678 222 86.4167 C227.2187 82.689 227.9249 82.1524 234 80.4167 C244.6947 77.3611 245.701 76.6923 257 76.4167 C285.8381 75.7133 287.0424 76.7133 316 78.4167 C320.4661 78.6794 321.5296 78.4551 325 80.4167 C331.926 84.3314 333.8776 85.2271 339 91.4167 C344.9592 98.6174 347.84 101.0649 349 109.4167 C352.2306 132.6771 353.9029 149.321 349 163.4167 C346.8802 169.5112 325 178.4167 325 178.4167 "/>
<path id="4" d="M254 324.4167 C254 324.4167 250.4747 328.0411 250 331.4167 C246.378 357.1732 245.9545 359.974 245 388.4167 C243.464 434.1893 245 480.4167 245 480.4167 "/>
<path id="5" d="M282 328.4167 L284 480.4167 "/>
<path id="6" d="M261 155.4167 C261 155.4167 263.873 149.0469 266 148.4167 C272.704 146.4303 285.7098 145.6354 288 147.4167 C290.3862 149.2726 293 169.4167 293 169.4167 "/>
<path id="7" d="M271 147.4167 C271 147.4167 270.4116 144.5107 269 143.4167 C252.6904 130.7767 247.8471 129.5656 231 116.4167 C229.0315 114.8803 228 111.4167 228 111.4167 "/>
<path id="8" d="M285 144.4167 C285 144.4167 303.7824 129.9883 318 114.4167 C323.7261 108.1452 327 98.4167 327 98.4167 "/>
<path id="9" d="M232 176.4167 C232 176.4167 227.8391 172.5965 226 168.4167 C222.6813 160.8741 221.7714 159.7736 221 151.4167 C218.8754 128.4001 217.4816 119.3662 220 103.4167 C220.5569 99.8899 224.9182 96.6947 230 94.4167 C237.529 91.0416 239.7231 90.6275 249 90.4167 C282.5071 89.6551 304.4053 88.7424 318 92.4167 C319.9285 92.9379 319.7433 102.6006 323 110.4167 C324.3108 113.5625 326.8399 113.5164 328 116.4167 C329.3631 119.8245 327.4967 122.0342 329 125.4167 C330.9278 129.7542 333.8185 130.0538 336 134.4167 C337.3089 137.0344 336.8608 137.9375 337 141.4167 C337.3558 150.3122 339.4078 153.9131 337 159.4167 C334.3079 165.57 323 173.4167 323 173.4167 "/>
<path id="10" d="M266 163.4167 C266 163.4167 268.1984 196.6876 266 199.4167 C264.5734 201.1876 244.5587 199.9206 237 199.4167 C236.7046 199.397 236.0351 198.3298 236 197.4167 C235.5865 186.666 235.2582 183.4309 236 173.4167 C236.0973 172.1031 236.8311 171.1959 238 170.4167 C240.63 168.6633 241.6596 167.8175 245 167.4167 C253.1694 166.4363 263 167.4167 263 167.4167 "/>
<path id="11" d="M271 277.4167 C271 277.4167 258.8509 277.5658 258 278.4167 C257.3922 279.0244 257.8892 286.5285 259 289.4167 C259.3453 290.3143 261.1194 291.1659 263 291.4167 C267.8485 292.0631 273.5262 291.9852 274 291.4167 C274.5772 290.724 274.5338 282.4842 273 279.4167 C272.0797 277.5762 266 275.4167 266 275.4167 "/>
<path id="12" d="M246 156.4167 C246 156.4167 247.112 152.3047 249 150.4167 C251.3075 148.1091 253.8231 148.7915 256 146.4167 C258.4381 143.7569 257.5875 140.6436 260 138.4167 C262.6896 135.934 264.7524 134.786 269 134.4167 C285.8127 132.9547 290.5153 133.6424 306 134.4167 C307.2974 134.4815 308.9226 135.7203 309 136.4167 C309.829 143.878 309 161.4167 309 161.4167 "/>
</g>
</g>
</svg>
