<?xml version="1.0" encoding="utf-8"?>
<!DOCTYPE svg PUBLIC "-//W3C//DTD SVG 1.1//EN" "http://www.w3.org/Graphics/SVG/1.1/DTD/svg11.dtd">
<svg viewBox="0 0 800 800" preserveAspectRatio="xMinYMin meet" xmlns="http://www.w3.org/2000/svg" version="1.1">
<g fill="none" stroke="black" stroke-linecap="round" stroke-linejoin="round" stroke-width="1.7761">
<g transform="translate(87.52,222.6465) scale(1.6891) translate(-171,-118)">
<path id="0" d="M173 175 C173 175 184.4911 176.1361 195 175 C202.3717 174.2031 210 171 210 171 "/>
<path id="1" d="M210 171 C210 171 220.4774 154.1897 230 148 C235.9805 144.1126 241.2839 145.3486 250 145 C252.1314 144.9147 253.9524 145.6381 255 147 C257.6603 150.4584 256.6184 153.6522 260 158 C266.4605 166.3063 268.7132 169.045 276 174 C278.6241 175.7844 281.5381 173.4264 285 175 C291.258 177.8445 292.6056 183.675 298 184 C325.788 185.674 345.6512 182.1728 368 180 C368.7276 179.9293 369.2467 177.0991 370 177 C381.4067 175.4991 406 175 406 175 "/>
<path id="2" d="M175 175 C175 175 175.2538 182.6715 174 188 C173.5542 189.8946 170.9622 191.9986 171 192 C171.4092 192.0146 202 189 202 189 "/>
<path id="3" d="M173 201 C173 201 176.3282 206.868 178 207 C188.0067 207.79 211 204 211 204 "/>
<path id="4" d="M177 203 C177 203 178.2651 200.1225 179 200 C183.7035 199.2161 187.9533 200.9609 195 200 C197.8227 199.6151 201 197 201 197 "/>
<path id="5" d="M236 161 C236 161 231.3099 163.7604 231 165 C230.5573 166.7708 232.3416 172.6708 233 173 C233.9877 173.4938 241.7351 172.012 243 171 C243.5234 170.5813 243.7663 165.9578 243 165 C241.6718 163.3398 235 161 235 161 "/>
<path id="6" d="M235 167 L234 165 "/>
<path id="7" d="M244 145 C244 145 246.1941 138.8059 249 136 C251.0042 133.9958 253.2728 135.1343 256 133 C264.0928 126.6665 272 118 272 118 "/>
<path id="8" d="M273 120 L269 164 "/>
<path id="9" d="M212 206 C212 206 219.4642 207.2281 224 210 C227.2274 211.9723 227.3396 216.4028 230 217 C245.4244 220.4626 273 221 273 221 "/>
<path id="10" d="M270 222 C270 222 277.4597 237.4644 286 245 C291.6889 250.0196 295.0516 250.5871 304 252 C331.5353 256.3477 333.2502 256.4912 362 257 C389.1949 257.4813 417 254 417 254 "/>
<path id="11" d="M309 239 C309 239 312 241.9022 312 244 C312 270.4317 308.1017 302.0187 309 307 C309.0075 307.0418 322.4415 306.1568 323 305 C324.7215 301.434 321.7969 291.2341 323 278 C324.7621 258.6167 329 239 329 239 "/>
<path id="12" d="M308 308 C308 308 297.1409 318.9717 296 321 C295.9242 321.1348 297.7895 323.8487 299 324 C306.5321 324.9415 317.5902 325.9464 320 324 C322.5201 321.9645 322.3533 310.6094 325 303 C325.3542 301.9815 328 301 328 301 "/>
<path id="13" d="M391 228 C391 228 401.9588 236.8654 412 241 C417.1102 243.1042 422.0418 241.1548 425 242 C425.4135 242.1181 426 245 426 245 "/>
<path id="14" d="M426 253 L422 317 "/>
<path id="15" d="M421 313 C421 313 415.6794 313.2137 413 315 C409.4593 317.3604 408.3939 319.11 406 323 C404.9078 324.7748 404.9681 327.9964 405 328 C407.6714 328.3053 438.02 328.49 441 327 C441.4899 326.7551 438.8344 318.7826 439 311 C439.3223 295.8498 441.3815 295.463 442 280 C442.8745 258.1372 439.4271 255.6184 442 236 C443.0554 227.9524 450 219 450 219 "/>
<path id="16" d="M398 173 C398 173 422.3701 169.6041 438 174 C449.1677 177.1409 456.4301 182.9546 462 191 C465.9894 196.7625 465 202.3813 465 213 C465 224.1014 465.4201 226.4726 462 236 C459.1663 243.8939 454.8321 249.6674 451 252 C449.0076 253.2128 439 250 439 250 "/>
<path id="17" d="M463 186 C463 186 470.104 181.5076 477 179 C480.4859 177.7324 481.0158 178.2097 485 178 C490.4425 177.7136 491.4868 176.7691 496 178 C501.1846 179.414 501.8254 182.9294 507 184 C514.6089 185.5743 518.5079 183.3508 525 184 C525.7935 184.0793 526.4443 184.8887 527 186 C529.6857 191.3714 531.548 192.3051 532 198 C533.8594 221.4286 533.344 230.5196 532 249 C531.8869 250.5549 529.0191 252.7452 528 253 C527.2866 253.1783 524 251 524 251 "/>
<path id="18" d="M467 197 C467 197 475.2794 187.4496 480 187 C489.6185 186.084 496.065 189.4723 509 193 C511.0343 193.5548 511.8529 194.2793 513 196 C515.3617 199.5426 516.8481 200.8998 517 205 C517.7458 225.136 514.3581 234.2729 515 250 C515.0595 251.4577 517.3576 253.7473 519 254 C526.8288 255.2044 541 254 541 254 "/>
<path id="19" d="M341 260 C341 260 339.8878 309.5401 341 315 C341.0251 315.1232 351.9172 314.4307 352 314 C353.351 306.9751 350.8799 269.1228 351 263 C351.0001 262.9953 353 263 353 263 "/>
<path id="20" d="M406 260 C406 260 404.4288 278.7056 404 295 C403.9636 296.3823 404.652 297.9197 405 298 C407.4673 298.5694 411.3292 298.3781 417 298 C418.4492 297.9034 419.9947 297.2157 420 297 C420.1959 288.9697 418 257 418 257 "/>
</g>
</g>
</svg>
