<?xml version="1.0" encoding="utf-8"?>
<!DOCTYPE svg PUBLIC "-//W3C//DTD SVG 1.1//EN" "http://www.w3.org/Graphics/SVG/1.1/DTD/svg11.dtd">
<svg viewBox="0 0 800 800" preserveAspectRatio="xMinYMin meet" xmlns="http://www.w3.org/2000/svg" version="1.1">
<g fill="none" stroke="black" stroke-linecap="round" stroke-linejoin="round" stroke-width="2.0449">
<g transform="translate(87.52,204.8834) scale(1.467) translate(-158.8,-50.8)">
<path id="0" d="M198.8 172.8 C198.8 172.8 190.8181 176.7308 182.8 178.8 C175.7105 180.6295 174.1497 178.6834 167.8 180.8 C163.3417 182.2861 160.6491 184.3346 158.8 186.8 C157.9298 187.9602 158.2857 190.7429 158.8 192.8 C159.0143 193.6571 160.0301 194.7533 160.8 194.8 C172.0513 195.4819 177.0993 196.1364 191.8 194.8 C198.1372 194.2239 204.8 190.8 204.8 190.8 "/>
<path id="1" d="M167.8 195.8 C167.8 195.8 166.6695 201.9737 167.8 204.8 C168.8551 207.4379 171.2286 209.2572 173.8 210.8 C174.8714 211.4428 176.4105 211.4947 177.8 210.8 C188.5684 205.4158 190.2926 201.7317 201.8 196.8 C206.1838 194.9212 212.8 195.8 212.8 195.8 "/>
<path id="2" d="M197.8 172.8 C197.8 172.8 196.6185 163.298 197.8 156.8 C198.2967 154.0679 199.4886 153.1114 201.8 150.8 C204.1114 148.4886 206.0653 148.7825 207.8 146.8 C208.7142 145.7551 208.0462 143.4461 208.8 142.8 C210.113 141.6746 213.2911 142.3088 214.8 140.8 C217.4405 138.1595 217.1166 133.6941 219.8 131.8 C223.1368 129.4446 231.8 128.8 231.8 128.8 "/>
<path id="3" d="M222.8 128.8 C222.8 128.8 208.8295 112.8589 208.8 112.8 C208.793 112.7859 213.0936 113.0907 215.8 114.8 C221.799 118.5888 222.0936 121.4963 227.8 124.8 C230.2311 126.2075 233.8705 125.2688 234.8 125.8 C235.0105 125.9203 234.8 128.8 234.8 128.8 C234.8 128.8 234.1495 125.9926 234.8 124.8 C236.4707 121.737 237.9042 119.906 240.8 117.8 C242.2954 116.7124 244.4035 117.987 245.8 116.8 C252.6275 110.9966 260.7884 100.7987 260.8 100.8 C260.8036 100.8004 256.3493 109.5373 254.8 117.8 C253.5179 124.6381 256.1014 128.6789 254.8 132.8 C254.2886 134.4195 248.8 136.8 248.8 136.8 "/>
<path id="4" d="M172.8 214.8 C172.8 214.8 178.7739 211.8043 184.8 210.8 C202.2441 207.8926 210.1691 208.5239 220.8 206.8 C221.1842 206.7377 221.5084 204.8171 221.8 204.8 C230.4097 204.2935 254.8 204.8 254.8 204.8 "/>
<path id="5" d="M256.8 136.8 C256.8 136.8 289.6873 138.1207 297.8 136.8 C298.4212 136.6989 298.6513 130.9487 299.8 129.8 C300.6935 128.9065 302.8334 128.8486 305.8 128.8 C332.9198 128.3554 336.4105 132.2395 360.8 128.8 C371.6871 127.2646 372.9667 118.8569 383.8 117.8 C428.8453 113.4053 434.562 116.8 483.8 116.8 C486.7543 116.8 488.2322 116.7548 489.8 117.8 C491.2894 118.7929 491.7564 122.6509 492.8 122.8 C501.7913 124.0845 511.6956 125.6829 524.8 122.8 C533.1622 120.9603 537.4432 117.8264 542.8 111.8 C547.0325 107.0384 547.608 103.548 548.8 95.8 C550.42 85.2698 550.1146 82.6594 548.8 72.8 C548.3694 69.5707 547.3996 68.0746 544.8 65.8 C536.5198 58.5549 524.9668 51.9787 524.8 51.8 C524.7765 51.7748 528.8046 50.1349 530.8 50.8 C535.8472 52.4824 536.579 55.2079 542.8 57.8 C554.1993 62.5497 558.6634 59.7944 566.8 65.8 C576.3165 72.8241 580.8936 78.3828 584.8 88.8 C588.0827 97.5539 585.7984 101.8198 584.8 113.8 C584.3507 119.1911 584.2312 120.0996 581.8 124.8 C577.1112 133.865 576.4308 135.5926 569.8 142.8 C565.8909 147.049 558.8 149.8 558.8 149.8 "/>
<path id="6" d="M255.8 201.8 C255.8 201.8 268.3813 204.5588 279.8 208.8 C285.4787 210.9092 286.0194 211.1667 290.8 214.8 C298.1368 220.3759 303.7275 222.4373 304.8 227.8 C308.6693 247.1465 304.0452 256.4942 304.8 284.8 C305.0391 293.7652 306.7975 302.7943 306.8 302.8 C306.8011 302.8024 308.8 293.8 308.8 293.8 "/>
<path id="7" d="M317.8 219.8 L317.8 298.8 "/>
<path id="8" d="M324.8 215.8 C324.8 215.8 329.8246 220.5931 332.8 225.8 C335.5128 230.5474 335.7831 231.4615 336.8 236.8 C337.6645 241.3388 335.9874 242.4663 336.8 246.8 C337.3332 249.644 339.6272 250.035 339.8 252.8 C340.973 271.5682 339.8 294.8 339.8 294.8 "/>
<path id="9" d="M350.8 209.8 L350.8 305.8 "/>
<path id="10" d="M314.8 300.8 C314.8 300.8 294.8 303.7999 294.8 303.8 C294.8001 303.8003 313.656 303.4728 315.8 304.8 C316.5367 305.256 315.8 316.8 315.8 316.8 C315.8 316.8 316.015 305.8992 315.8 305.8 C315.3472 305.591 303.4442 310.8495 302.8 310.8 C302.7764 310.7982 302.4294 305.1176 302.8 304.8 C303.3044 304.3676 308.7505 304.1003 309.8 304.8 C310.6995 305.3997 311.7987 310.7987 311.8 310.8 C311.8007 310.8006 311.8 306.8 311.8 306.8 "/>
<path id="11" d="M336.8 296.8 C336.8 296.8 336.0048 302.0888 336.8 305.8 C337.2986 308.1268 338.9095 310.6092 339.8 310.8 C342.1121 311.2954 347.6546 310.2517 350.8 308.8 C351.8146 308.3317 352.8458 304.8917 352.8 304.8 C352.7694 304.7389 348.8 304.8 348.8 304.8 C348.8 304.8 351.6436 305.0346 351.8 304.8 C352.3215 304.0178 352.8 298.8 352.8 298.8 "/>
<path id="12" d="M350.8 209.8 C350.8 209.8 361.2853 202.4796 370.8 201.8 C413.3517 198.7606 419.8149 204.188 462.8 201.8 C470.4314 201.376 473.2552 198.8805 478.8 195.8 C480.0109 195.1272 480.8 191.7955 480.8 191.8 C480.7988 191.9399 477.7471 315.159 477.8 315.8 C477.806 315.8725 485.4163 307.0102 489.8 300.8 C490.1735 300.2708 489.9 298.85 489.8 298.8 C489.4 298.6 486.1577 299.1577 485.8 298.8 C485.2635 298.2635 485.3413 294.1867 484.8 293.8 C484.0895 293.2925 478.8 293.8 478.8 293.8 C478.8 293.7664 484.2863 290.9283 484.8 288.8 C486.7313 280.799 483.2267 274.8358 485.8 264.8 C487.6361 257.6391 493.9562 256.6438 494.8 249.8 C497.8378 225.16 493.926 209.2802 494.8 191.8 C494.8324 191.152 497.7882 189.7849 497.8 189.8 C498.2977 190.4399 501.6513 195.5965 501.8 200.8 C503.057 244.7956 498.6798 283.7281 500.8 294.8 C500.8822 295.2294 515.996 295.8869 519.8 294.8 C520.5436 294.5875 521.8573 288.8313 521.8 288.8 C521.2145 288.4806 510.2845 289.2567 508.8 288.8 C508.6595 288.7567 508.8 284.8 508.8 284.8 C508.2042 284.8 498.7655 288.2207 497.8 288.8 C497.7856 288.8086 498.7937 290.8036 498.8 290.8 C499.2154 290.5626 502.573 288.1742 504.8 284.8 C518.6226 263.8567 526.3815 259.2721 531.8 240.8 C534.8822 230.2926 527.7572 225.1153 526.8 209.8 C525.7931 193.6898 524.8853 190.4991 527.8 176.8 C529.1967 170.2357 531.5007 167.5105 536.8 162.8 C543.4448 156.8935 548.8578 157.8933 554.8 152.8 C557.0044 150.9105 555.8365 146.6124 557.8 144.8 C560.3889 142.4103 565.1469 142.7295 567.8 140.8 C568.6034 140.2157 568.8 136.8 568.8 136.8 "/>
<path id="13" d="M224.8 165.8 C224.8 165.8 224.2802 163.5148 224.8 162.8 C227.1944 159.5077 229.2849 156.3622 232.8 154.8 C235.8419 153.448 242.7992 154.7962 242.8 154.8 C242.8012 154.8061 236.7226 157.1431 233.8 159.8 C232.3877 161.0839 232.6228 163.9772 231.8 164.8 C231.4474 165.1526 228.9203 164.5895 228.8 164.8 C228.2688 165.7295 227.8024 171.7964 227.8 171.8 C227.7989 171.8016 226.7284 167.8358 226.8 167.8 C227.6236 167.3882 237.7729 166.8116 237.8 166.8 C237.8074 166.7968 234.2282 165.742 233.8 164.8 C232.7397 162.4673 232.8 155.8 232.8 155.8 "/>
<path id="14" d="M252.8 126.8 C252.8 126.8 247.1303 130.8 246.8 130.8 C246.7449 130.8 245.8 126.8 245.8 126.8 "/>
<path id="15" d="M231.8 128.8 C231.8 128.8 232.7878 124.0925 231.8 120.8 C230.0961 115.1204 229.5797 112.7786 225.8 108.8 C221.4544 104.2257 218.8061 103.088 212.8 100.8 C209.8059 99.6594 204.8089 100.7955 204.8 100.8 C204.7967 100.8017 207.6549 101.4466 208.8 102.8 C212.399 107.0534 213.0904 108.1345 215.8 113.8 C218.4275 119.2937 219.8 125.8 219.8 125.8 "/>
<path id="16" d="M167.8 202.8 C167.8 202.8 172.0811 202.5189 172.8 201.8 C173.5189 201.0811 173.7871 196.789 173.8 196.8 C173.8604 196.8518 179.6344 207.7264 179.8 207.8 C179.8017 207.8007 182.7991 200.7994 182.8 200.8 C182.8034 200.8023 183.2175 208.8606 182.8 209.8 C182.7175 209.9856 178.9951 210.0439 178.8 209.8 C178.4951 209.4189 178.1028 205.8458 178.8 204.8 C179.9156 203.1266 182.1223 201.115 184.8 200.8 C196.3871 199.4368 212.8 200.8 212.8 200.8 "/>
<path id="17" d="M178.8 206.8 C178.8 206.8 174.6779 207.2351 172.8 208.8 C169.6973 211.3855 167.6371 213.093 166.8 216.8 C164.7218 226.0035 165.4132 238.0982 165.8 239.8 C165.8062 239.8272 169.7256 239.9315 171.8 238.8 C174.2489 237.4642 176.4229 235.9368 176.8 233.8 C178.6703 223.2014 177.8 204.8 177.8 204.8 C177.7999 204.8 172.8 233.8 172.8 233.8 "/>
</g>
</g>
</svg>
