<?xml version="1.0" encoding="utf-8"?>
<!DOCTYPE svg PUBLIC "-//W3C//DTD SVG 1.1//EN" "http://www.w3.org/Graphics/SVG/1.1/DTD/svg11.dtd">
<svg viewBox="0 0 800 800" preserveAspectRatio="xMinYMin meet" xmlns="http://www.w3.org/2000/svg" version="1.1">
<g fill="none" stroke="black" stroke-linecap="round" stroke-linejoin="round" stroke-width="0.93126">
<g transform="translate(87.52,92.3522) scale(3.2214) translate(-188,-154)">
<path id="0" d="M223 167 C223 167 220.4671 172.5329 217 176 C213.5329 179.4671 210.8382 179.1618 208 182 C207.0539 182.9461 207.787 185.3879 207 186 C205.022 187.5385 201.7003 186.726 199 189 C193.3698 193.7412 189.5432 196.6846 188 202 C186.34 207.7178 189.0933 219.2533 190 220 C190.6309 220.5195 205 216 205 216 "/>
<path id="1" d="M193 220 C193 220 193.2744 229.1239 195 232 C195.9413 233.5688 198.6429 234.4699 202 235 C207.3903 235.8511 209.7719 236.7496 214 235 C221.7394 231.7975 223.3039 226.4205 231 223 C234.446 221.4684 241 223 241 223 "/>
<path id="2" d="M223 169 C223 169 228.8063 163.7905 232 159 C233.1311 157.3034 232.6367 154.0826 233 154 C236.5711 153.1884 247.2953 152.4528 254 154 C256.0384 154.4704 259 160 259 160 "/>
<path id="3" d="M250 187 C250 187 251.1081 205.7459 254 215 C254.5809 216.8587 259.337 219.2983 260 219 C263.1333 217.59 272.08 211.12 274 206 C275.92 200.88 273.8826 194.2166 272 187 C271.5136 185.1356 268 183 268 183 "/>
<path id="4" d="M243 225 C243 225 245 228.2041 245 231 C245 248.7071 244.8855 250.5223 243 269 C242.442 274.4683 242.3114 275.3772 240 280 C237.6886 284.6228 233.2766 285.5881 233 289 C232.1998 298.8695 235.8857 303.0711 237 317 C237.8656 327.8205 236.389 334.3154 237 339 C237.0386 339.2963 239.701 340.1994 240 340 C240.8117 339.4589 242.1434 337.5699 243 335 C244.9988 329.0035 245.8174 328.2072 246 322 C246.2921 312.0684 242.1681 308.7347 244 301 C245.7497 293.6123 250.8322 288.1678 255 284 C255.8931 283.1069 259.4107 284.596 261 284 C261.8278 283.6896 262.218 281.1955 263 281 C265.8436 280.2891 269.5414 280.2019 273 281 C274.277 281.2947 275.8251 282.776 276 284 C276.918 290.4258 277.9874 294.4481 276 302 C273.5013 311.4951 267.029 313.974 266 322 C265.1124 328.9236 269.3737 337.5668 271 341 C271.1442 341.3044 274.9431 341.1706 275 341 C275.654 339.0379 273.9464 332.1607 276 326 C278.4107 318.7679 281.4892 318.7237 285 311 C288.8117 302.6143 291 293 291 293 "/>
<path id="5" d="M290 294 C290 294 294.0359 280.9002 296 280 C298.6298 278.7947 305.0353 282.4483 314 283 C337.2004 284.4277 360.9927 283.9997 361 284 C361.0006 284 357.7604 284.0495 357 285 C351.8222 291.4723 348.9749 295.3878 345 304 C343.8661 306.4568 345.9117 308.4472 345 311 C343.8557 314.204 340.5413 314.8604 340 318 C338.4853 326.7853 340.948 332.0997 340 340 C339.8552 341.2066 337 343 337 343 "/>
<path id="6" d="M313 341 C313 341 318.0531 337.4089 319 334 C322.2899 322.1562 319.6381 318.7278 323 305 C325.4625 294.9448 331 285 331 285 "/>
<path id="7" d="M313 341 C313 341 325.0035 341.3482 326 340 C328.3442 336.8285 326.6934 328.3089 330 318 C334.9948 302.428 343 287 343 287 "/>
<path id="8" d="M262 159 L272 165 "/>
<path id="9" d="M273 165 C273 165 273.4417 171.7362 276 176 C280.2371 183.0619 282.7048 188.6384 288 190 C308.0365 195.1523 346 194 346 194 "/>
<path id="10" d="M233 179 C233 179 234.7255 185.3137 236 186 C237.8828 187.0138 243.4657 186.4608 246 186 C246.3456 185.9372 247.0288 184.0192 247 184 C245.1538 182.7692 231 176 231 176 "/>
<path id="11" d="M348 194 C348 194 355.64 193.6375 360 195 C361.8591 195.581 363.4349 197.0626 364 199 C366.2831 206.8277 364.8426 210.3705 367 219 C367.4939 220.9754 369.8334 221.2785 370 223 C371.0484 233.8335 372.0439 238.9046 370 250 C369.0697 255.0503 364.1878 255.9094 363 261 C361.2136 268.656 364.2458 271.9021 363 280 C362.5007 283.2457 359 287 359 287 "/>
<path id="12" d="M365 193 C365 193 369.2937 188.6071 371 184 C373.9622 176.0021 374.8868 166.1698 375 166 C375.0183 165.9726 378.2268 169.0178 379 172 C381.3927 181.229 382.5082 186.3929 382 193 C381.8682 194.7129 379.7274 196.5714 377 198 C370.1474 201.5894 361 204 361 204 "/>
<path id="13" d="M367 187 C367 187 361.7683 188.4162 359 191 C355.1463 194.5968 352 201 352 201 "/>
<path id="14" d="M340 338 C340 338 344.9317 344.4485 347 345 C348.6795 345.4479 354.6988 342.9538 355 342 C355.8377 339.3474 351.8764 333.0227 353 326 C355.5511 310.0556 360.1652 307.2368 363 292 C363.682 288.3341 361 283 361 283 "/>
</g>
</g>
</svg>
