<?xml version="1.0" encoding="utf-8"?>
<!DOCTYPE svg PUBLIC "-//W3C//DTD SVG 1.1//EN" "http://www.w3.org/Graphics/SVG/1.1/DTD/svg11.dtd">
<svg viewBox="0 0 800 800" preserveAspectRatio="xMinYMin meet" xmlns="http://www.w3.org/2000/svg" version="1.1">
<g fill="none" stroke="black" stroke-linecap="round" stroke-linejoin="round" stroke-width="1.9873">
<g transform="translate(87.52,247.5339) scale(1.5096) translate(-63,-140)">
<path id="0" d="M379 141 C379 141 367.6767 138.1818 360 140 C351.2574 142.0706 348.7828 144.4872 341 150 C338.0286 152.1047 337.2723 153.3171 336 157 C328.2975 179.2968 331.7868 183.1504 322 205 C311.0016 229.5545 308.7027 231.8355 293 253 C286.9885 261.1024 284.6023 263.3394 276 267 C263.8021 272.1906 260.4439 268.9557 246 273 C235.8601 275.8392 235.6168 278.5182 226 281 C221.2056 282.2373 218.6194 279.5522 215 281 C210.9858 282.6057 209.9017 288.3497 206 289 C188.9457 291.8424 174.2359 290.5632 161 290 C160.3736 289.9733 159 287 159 287 "/>
<path id="1" d="M382 141 L382 142 "/>
<path id="2" d="M382 142 C382 142 377.4573 145.3325 377 148 C375.0547 159.3478 377.7505 167.3725 376 177 C375.7055 178.6196 371.9897 178.8407 371 181 C367.4214 188.8078 368.9474 193.6692 365 201 C363.2485 204.2528 359.5882 204.1243 357 207 C356.0392 208.0675 356.3278 209.033 356 211 C355.8426 211.9441 355.9649 212.9883 356 213 C356.1403 213.0468 358.9962 211.9578 359 212 C359.1792 213.9708 362.3641 234.2258 359 246 C357.1201 252.5797 352.879 255.9626 345 261 C324.1773 274.3129 320.5122 280.4626 298 285 C262.2134 292.2128 242.3651 287.9197 216 287 C214.6567 286.9531 212 282 212 282 "/>
<path id="3" d="M382 143 C382 143 387.6532 144.8451 389 147 C391.2313 150.5701 391.6319 153.1098 392 159 C393.0874 176.3986 395.2886 187.2111 392 195 C390.445 198.6829 381.0389 201.3204 373 204 C371.2948 204.5684 369.5124 204.0587 368 203 C365.5589 201.2913 363 197 363 197 "/>
<path id="4" d="M382 165 L385 163 "/>
<path id="5" d="M359 245 C359 245 362.8866 249.5421 366 250 C376.8675 251.5982 381.1048 248.3925 393 250 C397.7033 250.6356 398.2367 254.3649 403 255 C418.6893 257.0919 433.853 253.5342 438 256 C439.6878 257.0035 440.5011 275.5682 440 277 C439.9469 277.1516 433.1287 277.2417 431 276 C429.5562 275.1578 428 272.2844 428 270 C428 265.8119 431 259 431 259 C431 259 426 279 426 279 "/>
<path id="6" d="M343 270 C343 270 342.925 268.025 343 268 C343.675 267.775 346.6012 267.4669 349 268 C350.3771 268.306 350.6611 269.9131 352 270 C383.7394 272.061 426 273 426 273 "/>
<path id="7" d="M362 207 C362 207 372.696 213.3274 374 218 C376.9081 228.4207 374 250 374 250 "/>
<path id="8" d="M389 190 L394 190 "/>
<path id="9" d="M366 270 C366 270 367.0041 277.9714 366 285 C365.0915 291.3592 365.2875 293.0687 362 298 C355.2851 308.0724 353.5562 311.7016 344 318 C334.214 324.4499 329.6535 321.3226 318 327 C311.1456 330.3393 311.6941 333.2513 305 337 C299.8751 339.87 298.781 340.7631 293 341 C240.7025 343.1433 232.3171 345.3882 183 342 C173.2708 341.3316 172.6608 335.9978 162 332 C153.0083 328.6281 152.3423 328.0155 143 327 C130.0933 325.5971 116 327 116 327 "/>
<path id="10" d="M168 287 C168 287 157.4011 288.8441 149 287 C138.3989 284.6729 138.179 281.5857 127 278 C111.9223 273.1638 96 270 96 270 "/>
<path id="11" d="M142 326 C142 326 126.1166 329.3312 119 326 C108.3876 321.0325 107.6399 313.3425 95 304 C85.3085 296.8367 83.1596 298.6672 73 292 C67.5908 288.4502 64.1007 286.6691 63 283 C61.1012 276.6708 63.2287 264.6995 64 262 C64.0518 261.8188 67.72 261.36 69 262 C70.28 262.64 70.2883 265.1441 72 266 C81.4146 270.7073 83.9301 272.1535 95 275 C100.2476 276.3494 107 275 107 275 "/>
<path id="12" d="M377 243 C377 243 388.7144 232.2321 400 228 C410.2999 224.1375 425 225 425 225 "/>
<path id="13" d="M376 224 C376 224 381.3073 215.5633 385 215 C402.7997 212.2848 435 215 435 215 "/>
<path id="14" d="M421 225 C421 225 430.3683 225.4036 433 224 C434.4138 223.2459 436 217 436 217 "/>
<path id="15" d="M436 217 L448 215 "/>
<path id="16" d="M441 219 C441 219 438.9709 222.9976 439 223 C439.2404 223.02 452.618 220.3056 453 220 C453 220 449.8218 217.26 449 215 C448.2361 212.8992 448.9959 208.9967 449 209 C449.011 209.0088 451.9802 217.1638 454 219 C454.86 219.7819 460 219 460 219 C460 218.9993 454 217 454 217 "/>
<path id="17" d="M431 260 C431 260 434.0687 253.3976 436 253 C444.6951 251.2098 465 253 465 253 "/>
<path id="18" d="M431 274 C431 274 435.1445 268.3655 440 266 C453.3116 259.5149 470 255 470 255 "/>
<path id="19" d="M464 255 C464 255 476 250 476 250 C476 250 472.3136 251.1219 472 252 C470.8697 255.1648 471.0007 263.9998 471 264 C470.9998 264.0001 469.4546 258.4557 469 253 C468.4707 246.6485 468.9998 239.9994 469 240 C469.0005 240.0018 477 280 477 280 "/>
<path id="20" d="M320 239 C320 239 325.1898 237.5949 326 238 C326.6629 238.3314 328 243 328 243 "/>
<path id="21" d="M332 218 L339 217 "/>
<path id="22" d="M333 196 L349 192 "/>
<path id="23" d="M349 176 C349 176 351.6691 173.5379 354 173 C357.2758 172.244 362 173 362 173 "/>
<path id="24" d="M298 259 C298 259 304.2608 258.6832 305 259 C305.1358 259.0582 305 262 305 262 "/>
<path id="25" d="M83 279 C83 279 129.519 294.0294 175 299 C218.9426 303.8025 223.7145 299.8809 266 299 C268.3427 298.9512 271 297 271 297 "/>
<path id="26" d="M354 286 C354 286 354.4857 290.6787 353 293 C347.633 301.386 346.2386 303.7601 338 311 C330.6039 317.4996 329.0818 317.6157 320 322 C315.1501 324.3413 314.3169 324.9163 309 325 C253.1783 325.8791 248.4949 330.561 193 324 C150.1217 318.9306 146.1456 312.4702 106 301 C103.9161 300.4046 102 298 102 298 "/>
<path id="27" d="M339 288 C339 288 329.7905 297.0838 320 301 C303.9792 307.4083 301.7192 308.356 284 310 C254.6565 312.7226 252.1026 312.616 223 310 C209.2983 308.7684 208.991 304.9148 195 302 C185.3714 299.994 175 300 175 300 "/>
<path id="28" d="M333 276 C333 276 333.1311 279.3034 332 281 C328.8063 285.7905 327.8998 287.2669 323 291 C318.1143 294.7225 317.1188 294.8901 311 297 C303.0065 299.7564 302.2362 300.9366 294 301 C239.3637 301.4203 181 298 181 298 "/>
</g>
</g>
</svg>
