<?xml version="1.0" encoding="utf-8"?>
<!DOCTYPE svg PUBLIC "-//W3C//DTD SVG 1.1//EN" "http://www.w3.org/Graphics/SVG/1.1/DTD/svg11.dtd">
<svg viewBox="0 0 800 800" preserveAspectRatio="xMinYMin meet" xmlns="http://www.w3.org/2000/svg" version="1.1">
<g fill="none" stroke="black" stroke-linecap="round" stroke-linejoin="round" stroke-width="1.3489">
<g transform="translate(87.52,125.329) scale(2.2241) translate(-137,-101)">
<path id="0" d="M263 104 C263 104 260.0491 102 258 102 C254.7214 102 252.135 102.0785 250 104 C244.2486 109.1763 240.9999 112.7503 238 120 C236.1399 124.4953 236.5107 131.6825 238 133 C242.5128 136.9921 251.439 140.1452 264 143 C271.997 144.8175 274.9914 144.7521 282 143 C286.575 141.8562 290.4359 138.9719 292 136 C293.5306 133.0919 292.8803 128.6949 292 124 C291.6653 122.2149 290.7913 121.1024 289 120 C279.0341 113.8671 270.2203 111.453 266 108 C265.4973 107.5887 267 102 267 102 "/>
<path id="1" d="M253 140 C253 140 239.8065 142.5023 228 147 C219.2823 150.321 216.6401 150.3599 211 156 C203.6245 163.3755 199.7923 167.441 198 177 C194.7261 194.461 195.2845 199.8582 199 220 C204.4479 249.5334 216.4534 279.4534 217 280 C217.0701 280.0701 233 254 233 254 "/>
<path id="2" d="M283 139 C283 139 289.4038 138.4013 294 140 C299.8465 142.0336 300.531 143.1396 306 147 C308.7535 148.9436 309.3904 149.21 311 152 C316.4648 161.4723 317.6814 162.3806 321 173 C324.929 185.5727 324.6613 186.6128 326 200 C327.1197 211.1966 327.5642 212.3115 326 223 C324.7161 231.773 324.8371 234.6426 320 241 C309.2679 255.105 305.5755 258.8864 291 269 C283.7276 274.0462 280.7899 273.3683 271 275 C263.541 276.2432 262.0187 276.6043 255 275 C245.8632 272.9116 245.2858 271.2858 236 267 C232.3801 265.3293 230.857 265.4284 229 263 C225.5079 258.4334 223 250 223 250 "/>
<path id="3" d="M195 171 C195 171 199.1685 162.3149 200 154 C201.568 138.3205 202.4629 132.4934 200 121 C199.1844 117.1938 195.8716 115.543 191 112 C185.3307 107.8768 184.6385 107.608 178 105 C171.0153 102.256 170.3571 102.3377 163 101 C159.7254 100.4046 158.4976 100.1675 156 101 C153.7403 101.7532 152.2714 102.6955 151 105 C145.1553 115.5935 145.3262 119.728 140 130 C139.3832 131.1895 137.3594 131.1613 137 132 C136.453 133.2763 136.1485 135.2971 137 137 C141.2573 145.5146 144.4626 146.6011 149 156 C151.0068 160.157 150.6735 161.4283 151 166 C151.1265 167.7707 150.8034 169.4157 150 170 C147.3469 171.9295 143.1357 171.5879 140 174 C138.1739 175.4047 136.4991 178.6642 137 180 C141.1872 191.1658 148.547 206.1642 155 214 C156.0885 215.3217 162.1946 215.6185 165 214 C171.9163 210.0098 172.2886 204.466 181 199 C196.655 189.1772 216 182 216 182 "/>
<path id="4" d="M317 158 C317 158 329.2405 137.8622 343 125 C350.1034 118.3599 353.1102 118.1231 363 115 C370.9568 112.4873 374.8802 111.6886 381 113 C385.0799 113.8743 386.4971 119.7135 391 121 C397.5973 122.8849 402.8287 119.4572 409 121 C411.5714 121.6428 413.1 123.8334 415 127 C417.1375 130.5625 417.5339 131.8048 418 136 C418.4439 139.9955 418.2612 141.4686 417 145 C416.1335 147.4262 415.3563 148.3309 413 150 C404.0955 156.3074 397.7618 156.7847 393 162 C391.1254 164.0531 391.1685 168.4267 392 173 C392.9154 178.0345 395.6173 178.7456 397 184 C397.8982 187.4131 398.1264 190.464 397 192 C394.8786 194.8928 391.5548 196.9427 386 199 C379.0073 201.5899 375.8523 202.9754 370 202 C364.2107 201.0351 362.4692 196.5877 356 194 C353.7433 193.0973 352.4843 194.8518 350 194 C336.2888 189.299 321 182 321 182 "/>
<path id="5" d="M223 279 C223 279 219.1637 299.8993 221 318 C222.4631 332.4224 229.9948 348.0017 230 348 C230.1433 347.9522 239.7894 328.5629 245 310 C247.3801 301.521 246.433 300.3092 246 291 C245.4485 279.1436 243 267 243 267 "/>
<path id="6" d="M286 269 C286 269 286.3031 290.8435 290 310 C291.5356 317.9571 295.5573 319.6523 297 326 C297.4548 328.0011 294.9996 331.9998 295 332 C295.0006 332.0003 297.5008 329.6985 299 327 C304.8353 316.4965 306.6433 315.8449 310 305 C312.7244 296.1981 313.4531 293.3034 312 285 C310.4045 275.8831 306.5524 275.1497 303 265 C299.6624 255.4641 298 245 298 245 "/>
<path id="7" d="M255 120 C255 120 256.1772 124.1772 257 125 C257.3526 125.3526 259.9831 125.0677 260 125 C260.1749 124.3004 259 117 259 117 "/>
<path id="8" d="M275 121 C275 121 275.1727 127.0545 276 128 C276.6566 128.7504 281.9277 129.0723 282 129 C282.0434 128.9566 280 124 280 124 "/>
<path id="9" d="M271 132 C271 132 275.7815 134.0437 276 134 C276.0285 133.9943 276 131 276 131 "/>
</g>
</g>
</svg>
