<?xml version="1.0" encoding="utf-8"?>
<!DOCTYPE svg PUBLIC "-//W3C//DTD SVG 1.1//EN" "http://www.w3.org/Graphics/SVG/1.1/DTD/svg11.dtd">
<svg viewBox="0 0 800 800" preserveAspectRatio="xMinYMin meet" xmlns="http://www.w3.org/2000/svg" version="1.1">
<g fill="none" stroke="black" stroke-linecap="round" stroke-linejoin="round" stroke-width="1.8097">
<g transform="translate(196.9294,87.52) scale(1.6577) translate(-175,-61.1333)">
<path id="0" d="M288 83.1333 C288 83.1333 288.0066 81.1335 288 81.1333 C283.753 81.0154 261.8734 77.8742 252 82.1333 C245.4797 84.946 241.5445 92.975 237 103.1333 C234.0653 109.6933 233.397 114.2556 235 120.1333 C236.851 126.9203 239.4982 130.3539 246 136.1333 C256.1107 145.1207 259.5918 147.2001 271 152.1333 C275.2889 153.988 279.1805 153.9772 283 152.1333 C290.5621 148.4827 292.5306 145.6028 300 138.1333 C304.0961 134.0372 306.1679 132.6505 307 128.1333 C309.0638 116.9299 310.4098 109.5605 307 100.1333 C303.9374 91.6661 290 81.1333 290 81.1333 "/>
<path id="1" d="M257 111.1333 C257 111.1333 253.125 109.5083 253 109.1333 C252.875 108.7583 255 105.1334 255 105.1333 C255 105.1333 254 108.1333 254 108.1333 "/>
<path id="2" d="M284 105.1333 C284 105.1333 283.8125 107.9458 284 108.1333 C284.1875 108.3208 286.9007 108.2988 287 108.1333 C287.2757 107.6738 287.109 103.1987 287 103.1333 C286.862 103.0505 282.0172 105.1075 282 105.1333 C281.9968 105.1382 284.9056 106.1963 285 106.1333 C285.0809 106.0794 285 103.1333 285 103.1333 "/>
<path id="3" d="M255 106.1333 C255 106.1333 259.5456 106.588 260 107.1333 C260.4398 107.661 260.2757 111.6738 260 112.1333 C259.9007 112.2988 257.1564 112.368 257 112.1333 C256.4785 111.3511 256 106.1333 256 106.1333 "/>
<path id="4" d="M275 122.1333 L274 122.1333 "/>
<path id="5" d="M262 131.1333 C262 131.1333 263.2951 134.9924 264 135.1333 C268.5312 136.0396 274.3667 136.129 282 135.1333 C284.2863 134.8351 286.0071 133.6227 287 132.1333 C288.0452 130.5656 288 126.1333 288 126.1333 "/>
<path id="6" d="M261 147.1333 C261 147.1333 255.0898 148.434 253 151.1333 C244.9251 161.5634 242.916 164.3294 237 178.1333 C231.3336 191.3548 231.0347 192.8904 229 207.1333 C227.1774 219.8912 226.8187 221.6999 229 234.1333 C231.5654 248.7561 235.5367 249.5876 239 264.1333 C240.2834 269.5238 239 276.1333 239 276.1333 "/>
<path id="7" d="M300 141.1333 C300 141.1333 313.1204 155.8236 322 171.1333 C326.9963 179.7477 328.3521 181.5079 329 191.1333 C331.6584 230.6295 329 275.1333 329 275.1333 "/>
<path id="8" d="M239 276.1333 L328 278.1333 "/>
<path id="9" d="M309 154.1333 C309 154.1333 317.1686 146.3941 326 143.1333 C348.1397 134.9587 374 130.1333 374 130.1333 "/>
<path id="10" d="M324 169.1333 L380 140.1333 "/>
<path id="11" d="M380 132.1333 C380 132.1333 376.7012 130.1368 376 128.1333 C373.7859 121.8075 372.1157 114.0985 373 112.1333 C373.5674 110.8724 384.4329 107.828 385 108.1333 C385.3988 108.348 386.5111 115.5554 386 119.1333 C385.8386 120.2632 382.9856 122.1321 383 122.1333 C383.0779 122.1398 392.3212 119.3926 398 120.1333 C401.3335 120.5681 404.5961 122.7935 406 125.1333 C407.5185 127.6642 407.8579 133.1315 407 135.1333 C406.3726 136.5973 399.9899 139.1293 400 139.1333 C400.0318 139.1461 410.9436 138.2249 417 139.1333 C418.2291 139.3177 419.7649 140.8797 420 142.1333 C420.8578 146.7081 420.9092 149.6782 420 155.1333 C419.6153 157.4413 418.4549 159.5791 417 160.1333 C411.3216 162.2965 402.0704 164.9756 399 163.1333 C393.0487 159.5626 382 139.1333 382 139.1333 "/>
<path id="12" d="M368 104.1333 C368 104.1333 380.8398 121.2336 389 139.1333 C395.876 154.2162 395.1834 156.1037 399 172.1333 C399.9708 176.2109 399 181.1333 399 181.1333 C399 181.1333 401.2297 156.673 397 142.1333 C394.855 134.76 388.951 134.6347 383 126.1333 C375.2038 114.9959 369.0884 102.2158 369 102.1333 C368.9798 102.1144 366.9303 108.0684 368 112.1333 C371.3942 125.0313 371.6949 128.9322 379 140.1333 C385.3118 149.8115 393.1658 149.3057 398 158.1333 C402.4574 166.2728 402 182.1333 402 182.1333 C402 182.1333 401.8776 169.7117 400 158.1333 C398.9465 151.6366 399.1475 150.6939 396 145.1333 C384.7173 125.2006 370 105.1333 370 105.1333 "/>
<path id="13" d="M368 101.1333 L343 101.1333 "/>
<path id="14" d="M369 100.1333 C369 100.1333 359.9092 91.6688 354 83.1333 C351.6098 79.6808 351 74.1333 351 74.1333 "/>
<path id="15" d="M366 102.1333 L370 79.1333 "/>
<path id="16" d="M370 97.1333 L395 89.1333 "/>
<path id="17" d="M241 175.1333 C241 175.1333 241.6865 172.4301 241 171.1333 C237.9511 165.3743 237.1294 163.7087 232 158.1333 C226.0029 151.6147 224.2684 152.6339 218 146.1333 C210.9853 138.8588 205 130.1333 205 130.1333 "/>
<path id="18" d="M231 182.1333 C231 182.1333 229.2924 169.9066 224 162.1333 C214.5927 148.3164 209.3969 147.5296 199 135.1333 C197.9512 133.8829 198 131.1333 198 131.1333 "/>
<path id="19" d="M197 131.1333 C197 131.1333 193.5578 137.7692 191 139.1333 C188.7578 140.3292 183.6 140.3066 182 139.1333 C179.4993 137.2995 177.7993 133.5314 176 128.1333 C174.5698 123.8426 174.3069 120.3858 175 118.1333 C175.3245 117.0786 179.356 116.5287 180 115.1333 C181.2694 112.3829 179.6893 109.0655 181 105.1333 C181.8033 102.7233 183.3094 101.1899 185 100.1333 C185.9491 99.5402 187.8343 99.5505 189 100.1333 C190.7485 101.0076 191.9528 104.1333 193 104.1333 C196.1416 104.1333 204.3608 99.7072 205 100.1333 C205.8446 100.6964 205.212 109.553 208 114.1333 C210.7651 118.6759 216.9465 119.8477 219 123.1333 C219.8247 124.4528 218.8948 129.4012 218 130.1333 C216.4522 131.3997 208 132.1333 208 132.1333 "/>
<path id="20" d="M249 154.1333 C249 154.1333 245.9937 150.9393 243 150.1333 C234.1978 147.7635 224.5943 149.0465 223 147.1333 C221.2976 145.0904 221.7918 136.317 223 126.1333 C225.2341 107.3031 225.4383 106.38 230 88.1333 C231.7788 81.0183 232.0325 79.6437 236 74.1333 C240.2534 68.2259 242.0335 67.2157 248 63.1333 C250.5571 61.3838 251.6454 61.232 255 61.1333 C267.8175 60.7563 268.7459 60.871 282 62.1333 C289.4773 62.8455 290.7459 62.3089 297 65.1333 C305.018 68.7544 306.7652 70.1954 313 76.1333 C316.1959 79.177 317.6036 80.9711 318 85.1333 C320.2629 108.8934 321.0361 132.5459 319 139.1333 C318.7511 139.9386 305.3656 140.3631 301 140.1333 C300.7311 140.1192 300 138.1333 300 138.1333 "/>
<path id="21" d="M269 70.1333 L269 79.1333 "/>
<path id="22" d="M229 190.1333 C229 190.1333 222.3816 187.3323 218 183.1333 C210.9895 176.4149 210.8496 171.111 205 167.1333 C201.8939 165.0212 196.2516 164.9354 193 166.1333 C190.2192 167.1578 187.1902 170.5627 186 174.1333 C184.5026 178.6254 185.0292 184.7064 186 187.1333 C186.3286 187.9548 192.0073 189.104 192 189.1333 C191.7582 190.1006 184.9428 196.4453 182 203.1333 C180.1704 207.2916 180.3703 213.6217 181 214.1333 C182.4775 215.3338 194.9531 216.3026 198 216.1333 C198.2105 216.1216 199.0012 213.1321 199 213.1333 C198.9935 213.1398 192.6136 219.018 189 225.1333 C186.6246 229.1533 187.0447 230.2578 186 235.1333 C185.6073 236.9657 185.9116 239.1144 186 239.1333 C187.4212 239.4379 196.3461 239.7573 200 238.1333 C201.7988 237.3338 204 231.1333 204 231.1333 C204 231.1333 199.7578 236.0319 198 240.1333 C197.2405 241.9056 197.9374 245.1258 198 245.1333 C200.5839 245.4434 214.3945 245.4281 223 243.1333 C225.2244 242.5402 226.7022 240.2156 228 237.1333 C230.2838 231.7094 231 224.1333 231 224.1333 "/>
<path id="23" d="M328 178.1333 C328 178.1333 334.255 171.5346 340 170.1333 C352.1429 167.1716 357.2738 167.1826 369 168.1333 C372.4178 168.4105 375.2149 170.7532 377 173.1333 C378.2577 174.8102 378.7345 178.5419 378 180.1333 C376.963 182.3801 374.1157 184.6953 371 186.1333 C369.0864 187.0165 365.0432 186.1909 365 186.1333 C364.9832 186.1109 366.9346 182.4239 368 182.1333 C370.0124 181.5845 372.7278 182.0426 376 183.1333 C377.9633 183.7878 379.1101 184.4525 380 186.1333 C382.8946 191.6009 385.3749 197.7592 385 200.1333 C384.8223 201.2589 380.7189 203.9712 377 205.1333 C373.8887 206.1056 370.6142 206.0138 369 205.1333 C367.7343 204.443 365.9295 199.2391 366 199.1333 C366.0823 199.0099 370.7121 198.1528 373 199.1333 C376.1283 200.474 378.8343 202.3648 380 205.1333 C381.7485 209.2861 382.2778 215.7055 381 218.1333 C379.7923 220.428 375.1816 222.6529 370 224.1333 C365.9246 225.2977 361.1591 224.871 360 224.1333 C359.3677 223.731 358.6688 218.0165 359 217.1333 C359.125 216.8001 362.8846 215.9948 363 216.1333 C363.3876 216.5984 363.826 219.6524 364 223.1333 C364.3209 229.5521 364.9788 232.218 364 236.1333 C363.6988 237.338 361.7913 238.7751 360 239.1333 C355.7163 239.9901 353.8425 240.1018 349 239.1333 C344.6858 238.2705 343.9943 237.6752 340 235.1333 C333.3009 230.8702 331.2424 229.6788 327 225.1333 C325.8627 223.9148 326 220.1333 326 220.1333 "/>
<path id="24" d="M240 276.1333 C240 276.1333 226.6811 293.1193 224 308.1333 C220.0141 330.4544 223.8932 358.8536 225 360.1333 C225.2473 360.4192 241.9899 347.1882 256 345.1333 C274.3201 342.4464 278.0451 348.1122 300 349.1333 C320.8687 350.104 330.0563 351.1663 342 349.1333 C343.8091 348.8254 346.2906 344.8225 347 341.1333 C348.425 333.7234 348.425 330.5433 347 323.1333 C346.2906 319.4442 343.573 319.1782 342 315.1333 C340.2952 310.7495 340.3191 310.0794 340 305.1333 C339.3384 294.8789 342.0585 289.8971 340 284.1333 C338.9638 281.2318 330 277.1333 330 277.1333 "/>
<path id="25" d="M249 350.1333 C249 350.1333 247.5387 407.5574 249 414.1333 C249.0482 414.3502 256.9114 414.4151 263 413.1333 C265.4129 412.6254 267.9282 411.0951 268 410.1333 C269.3618 391.8854 268 346.1333 268 346.1333 "/>
<path id="26" d="M294 353.1333 C294 353.1333 291.8016 401.1976 294 407.1333 C294.3016 407.9476 309.0976 408.4122 314 407.1333 C315.119 406.8414 316.8376 403.8946 317 401.1333 C318.1834 381.0156 317 356.1333 317 356.1333 "/>
<path id="27" d="M251 415.1333 C251 415.1333 247.3149 420.8738 246 426.1333 C245.034 429.9975 245.0839 432.9346 246 435.1333 C246.5174 436.3752 248.7137 437.8351 251 438.1333 C258.6333 439.129 265.7068 439.5447 269 438.1333 C270.2545 437.5957 271.5965 433.37 272 429.1333 C272.5173 423.7018 271 417.1333 271 417.1333 "/>
<path id="28" d="M296 408.1333 C296 408.1333 294.3667 423.3768 296 427.1333 C296.7176 428.7838 301.1738 430.294 306 431.1333 C311.866 432.1535 314.6036 432.3545 319 431.1333 C321.1606 430.5332 322.9781 428.6152 324 426.1333 C325.8565 421.6247 326.4097 417.2064 326 414.1333 C325.8766 413.2079 322 411.1333 322 411.1333 "/>
<path id="29" d="M320 412.1333 C320 412.1333 320.1356 410.2011 320 410.1333 C319.1187 409.6927 314 409.1333 314 409.1333 "/>
<path id="30" d="M258 148.1333 C258 148.1333 257.1819 163.5886 258 170.1333 C258.0883 170.8399 259.6806 172.0234 261 172.1333 C269.7498 172.8625 274.1946 174.1476 282 172.1333 C286.4842 170.9761 287.8203 168.5589 292 164.1333 C295.9801 159.9191 297.33 158.9345 299 154.1333 C300.7926 148.9796 300 141.1333 300 141.1333 "/>
<path id="31" d="M277 177.1333 C277 177.1333 275.7071 187.5475 276 188.1333 C276.0558 188.2449 281.2309 187.9985 282 187.1333 C283.1874 185.7976 284.6042 180.825 284 179.1333 C283.2951 177.1597 279.6047 173.7462 277 173.1333 C274.0493 172.439 268.1659 174.084 267 175.1333 C266.3775 175.6936 266.0546 180.7153 267 182.1333 C268.3955 184.2266 271.2952 185.8102 275 187.1333 C277.2716 187.9446 279.4107 187.7293 281 187.1333 C281.8278 186.8229 282.694 185.5104 283 184.1333 C283.5331 181.7345 283.6237 178.9649 283 178.1333 C282.3243 177.2325 277 176.1333 277 176.1333 "/>
<path id="32" d="M232 183.1333 L232 186.1333 "/>
<path id="33" d="M202 197.1333 L229 198.1333 "/>
<path id="34" d="M215 209.1333 L224 209.1333 "/>
<path id="35" d="M214 218.1333 L228 219.1333 "/>
<path id="36" d="M335 195.1333 L352 190.1333 "/>
<path id="37" d="M331 207.1333 L346 204.1333 "/>
<path id="38" d="M336 210.1333 L358 221.1333 "/>
</g>
</g>
</svg>
