<?xml version="1.0" encoding="utf-8"?>
<!DOCTYPE svg PUBLIC "-//W3C//DTD SVG 1.1//EN" "http://www.w3.org/Graphics/SVG/1.1/DTD/svg11.dtd">
<svg viewBox="0 0 800 800" preserveAspectRatio="xMinYMin meet" xmlns="http://www.w3.org/2000/svg" version="1.1">
<g fill="none" stroke="black" stroke-linecap="round" stroke-linejoin="round" stroke-width="0.77765">
<g transform="translate(162.7467,87.52) scale(3.8578) translate(-205,-99.1333)">
<path id="0" d="M226 170.1333 C226 170.1333 224.7839 162.3763 226 159.1333 C226.8015 156.9959 229.3073 154.9748 232 154.1333 C235.5605 153.0207 241.6591 153.5084 242 154.1333 C243.443 156.7789 244 176.1333 244 176.1333 "/>
<path id="1" d="M245 177.1333 C245 177.1333 247.5332 183.6156 249 184.1333 C251.867 185.1452 257.9876 185.1396 262 183.1333 C266.1611 181.0528 267.3048 178.5529 271 173.1333 C282.0647 156.9051 283.2671 156.5992 292 139.1333 C299.4573 124.2187 296.9271 119.434 304 107.1333 C306.6046 102.6036 310.3536 100.7596 315 99.1333 C317.9124 98.114 323.6609 99.4551 324 100.1333 C325.0481 102.2295 325.2027 109.9168 324 117.1333 C323.4576 120.3878 320.6075 121.0958 320 124.1333 C319.3925 127.1708 321.4694 129.3168 321 132.1333 C320.7303 133.7513 318.3347 134.3483 318 136.1333 C317.1197 140.8283 318.8857 143.1142 318 148.1333 C317.5919 150.4461 315.205 150.8779 315 153.1333 C313.9112 165.1103 316.3786 168.7255 315 181.1333 C314.5842 184.8754 313.6021 186.0108 311 189.1333 C306.5993 194.4141 304.2624 193.6869 300 199.1333 C295.7675 204.5416 294.4313 205.9991 293 212.1333 C291.3372 219.2597 291.9078 221.2146 293 229.1333 C293.8064 234.98 294.3041 236.0112 297 241.1333 C298.9414 244.822 299.9877 246.7641 303 248.1333 C308.6965 250.7227 319 251.1333 319 251.1333 "/>
<path id="2" d="M226 172.1333 C226 172.1333 227.7448 178.035 229 179.1333 C229.6878 179.7351 233.8988 178.873 234 179.1333 C234.9777 181.6474 233.7339 189.7685 236 197.1333 C237.1986 201.0288 240.714 201.4896 242 205.1333 C243.144 208.3746 242.6886 213.1496 242 214.1333 C241.5486 214.7782 236.7093 213.6571 235 215.1333 C228.3605 220.8675 228.1083 225.3046 220 233.1333 C214.0763 238.8527 206 243.1333 206 243.1333 "/>
<path id="3" d="M239 203.1333 C239 203.1333 239.1799 210.7797 237 214.1333 C234.1378 218.5367 231.5932 220.2151 226 223.1333 C221.166 225.6554 217.9343 223.5105 214 226.1333 C209.41 229.1933 207.6999 232.3336 205 237.1333 C204.1596 238.6274 205 242.1333 205 242.1333 "/>
<path id="4" d="M242 205.1333 C242 205.1333 242.9963 217.9127 245 229.1333 C245.3558 231.1259 245.8215 232.3833 247 233.1333 C249.8285 234.9333 253.7734 234.078 256 236.1333 C258.3285 238.2827 257.5536 243.2306 260 245.1333 C263.9785 248.2277 267.019 248.8126 274 250.1333 C284.9197 252.1992 286.9006 249.356 297 252.1333 C305.3518 254.4301 305.9764 258.8039 314 261.1333 C319.7274 262.7961 326.3821 261.5956 328 261.1333 C328.1321 261.0956 328.4827 257.4873 328 257.1333 C324.6866 254.7035 313 250.1333 313 250.1333 "/>
<path id="5" d="M268 191.1333 C268 191.1333 274.2897 192.2328 276 191.1333 C278.5196 189.5136 280.2957 186.8452 282 182.1333 C288.4049 164.4258 285.8662 159.3315 293 144.1333 C295.749 138.2768 302.0965 138.7696 305 133.1333 C309.153 125.0716 309.9996 111.1318 310 111.1333 C310.0008 111.1363 311.0256 131.9635 310 152.1333 C309.5459 161.0634 309.7044 162.2907 307 170.1333 C305.0942 175.6601 304.1207 176.4508 300 181.1333 C293.4684 188.5556 291.7906 192.919 285 195.1333 C274.1274 198.6787 254 196.1333 254 196.1333 "/>
<path id="6" d="M235 166.1333 L232 167.1333 "/>
<path id="7" d="M225 170.1333 C225 170.1333 224.9786 174.1119 225 174.1333 C225 174.1333 227 172.1333 227 172.1333 "/>
</g>
</g>
</svg>
