<?xml version="1.0" encoding="utf-8"?>
<!DOCTYPE svg PUBLIC "-//W3C//DTD SVG 1.1//EN" "http://www.w3.org/Graphics/SVG/1.1/DTD/svg11.dtd">
<svg viewBox="0 0 800 800" preserveAspectRatio="xMinYMin meet" xmlns="http://www.w3.org/2000/svg" version="1.1">
<g fill="none" stroke="black" stroke-linecap="round" stroke-linejoin="round" stroke-width="2.4578">
<g transform="translate(87.52,157.7059) scale(1.2206) translate(-38,-0.41667)">
<path id="0" d="M263 151.4167 C263 151.4167 258.365 168.3093 252 184.4167 C233.9317 230.1406 234.1076 230.733 214 275.4167 C207.2665 290.3801 204.5931 289.4852 198 304.4167 C187.772 327.5801 190.1186 329.2418 180 352.4167 C174.8055 364.3138 167 375.4167 167 375.4167 "/>
<path id="1" d="M346 154.4167 C346 154.4167 352.332 184.8634 364 212.4167 C393.4312 281.9168 429 350.4167 429 350.4167 "/>
<path id="2" d="M167 376.4167 C167 376.4167 173.2498 381.8005 180 385.4167 C186.899 389.1126 187.6208 390.4583 195 391.4167 C224.2372 395.2137 226.0698 394.6743 257 395.4167 C288.3686 396.1695 288.7925 396.5147 320 394.4167 C347.9433 392.5381 348.99 393.1461 376 387.4167 C397.5995 382.835 398.6855 381.8004 419 373.4167 C429.3919 369.1279 439 361.4167 439 361.4167 "/>
<path id="3" d="M276 139.4167 C276 139.4167 257.6207 131.414 243 122.4167 C239.5324 120.2828 238.503 119.0239 237 115.4167 C234.0467 108.3288 233 105.8718 233 98.4167 C233 92.2772 234.1633 90.6057 237 84.4167 C239.3664 79.2537 239.8447 78.2524 244 74.4167 C252.1728 66.8725 253.1891 66.4764 263 60.4167 C269.8572 56.1813 270.3378 56.2396 278 53.4167 C289.1492 49.3091 289.5492 48.3611 301 46.4167 C315.3626 43.9777 316.3073 44.8138 331 44.4167 C334.4089 44.3245 336.8176 43.9917 338 45.4167 C350.6 60.6013 360.7017 72.82 370 91.4167 C371.9496 95.316 370.0249 99.117 368 105.4167 C365.7529 112.4078 365.3059 113.2387 361 119.4167 C354.1231 129.2836 352.9969 130.7675 345 138.4167 C342.6905 140.6258 338 141.4167 338 141.4167 "/>
<path id="4" d="M264 61.4167 C264 61.4167 259.425 55.1166 258 49.4167 C256.7333 44.3501 256.676 42.5237 258 37.4167 C259.8553 30.2605 260.2592 26.1488 265 22.4167 C279.4477 11.0429 286.19 6.0854 305 0.41667 C318.3117 -3.5951 322.8921 -0.71642 338 0.41667 C341.3077 0.66475 342.9749 1.2724 345 3.4167 C350.1506 8.8703 351.3498 10.8355 355 18.4167 C357.4767 23.5605 357.6 24.617 358 30.4167 C358.5548 38.4609 358.8647 40.2244 357 47.4167 C355.7516 52.2321 351 57.4167 351 57.4167 "/>
<path id="5" d="M268 135.4167 C268 135.4167 253.0124 134.0871 241 130.4167 C236.4383 129.0228 235.6573 128.074 232 124.4167 C203.9605 96.3772 204.4246 93.4352 176 65.4167 C170.0597 59.5612 169.3806 59.1928 162 55.4167 C148.433 48.4754 147.6055 48.4968 133 43.4167 C124.9029 40.6003 124.3613 40.8708 116 39.4167 C113.165 38.9236 111.9136 38.5335 110 39.4167 C106.8843 40.8547 105.2412 41.953 103 45.4167 C94.9744 57.8199 94.5257 59.1789 88 73.4167 C83.6574 82.8915 84.4023 83.3843 81 93.4167 C64.9036 140.8803 63.7611 140.7007 49 188.4167 C42.3296 209.979 40.2644 211.0308 38 232.4167 C35.955 251.7302 37.831 253.1723 40 273.4167 C42.3025 294.9066 41.9964 295.7769 47 316.4167 C49.819 328.0449 50.4966 329.6328 56 339.4167 C58.7578 344.3195 61.4566 343.6078 65 348.4167 C68.102 352.6265 69.9776 358.4707 70 358.4167 C70.1984 357.9386 77.5516 326.4614 87 295.4167 C91.4832 280.6863 97.9942 266.404 98 266.4167 C98.0135 266.446 95.4762 295.5752 99 321.4167 C101.2049 337.5863 109.9654 354.4624 110 354.4167 C110.1163 354.263 117.6654 319.0882 127 284.4167 C131.6264 267.2329 137.9979 250.4157 138 250.4167 C138.0089 250.4208 137.8222 270.8168 140 290.4167 C141.2754 301.895 144.9975 313.4197 145 313.4167 C145.0046 313.4109 145.2007 296.4492 148 280.4167 C150.6217 265.4013 155.9878 250.4197 156 250.4167 C156.0022 250.4161 156.9046 264.4723 160 277.4167 C162.289 286.989 166.9854 296.4429 167 296.4167 C167.0486 296.3292 174.9449 250.4847 175 250.4167 C175.0186 250.3937 183.5299 274.4338 184 275.4167 C184.0167 275.4517 185.8811 274.2789 186 273.4167 C187.4253 263.0831 186.0853 259.5003 188 246.4167 C189.0232 239.4247 191.999 232.4164 192 232.4167 C192.0629 232.4338 198.9264 249.4167 199 249.4167 C199.0736 249.4167 201.7757 239.9601 206 232.4167 C208.407 228.1185 212.6622 224.4167 213 224.4167 C213.193 224.4167 215.0385 229.8948 217 232.4167 C217.5884 233.1732 219.9854 233.4503 220 233.4167 C222.6135 227.4056 237 186.4167 237 186.4167 "/>
<path id="6" d="M353 134.4167 C353 134.4167 370.0044 126.6768 385 116.4167 C436.0776 81.4689 443.9006 68.6763 486 43.4167 C491.3497 40.2069 496.5995 42.5198 505 44.4167 C510.8352 45.7343 511.8813 46.7604 517 50.4167 C521.8493 53.8805 523.669 54.6175 526 59.4167 C531.2099 70.1429 533.619 73.0329 534 85.4167 C535.5081 134.4293 528.9797 138.4027 530 189.4167 C530.453 212.0667 531.7655 213.1699 537 235.4167 C541.6206 255.0542 550 274.4167 550 274.4167 "/>
<path id="7" d="M380 213.4167 C380 213.4167 380.9326 203.6749 384 195.4167 C387.2023 186.7951 392.9763 178.393 393 178.4167 C393.1124 178.5291 398.9811 210.4167 399 210.4167 C399.041 210.4167 411.8959 178.4605 412 178.4167 C412.0161 178.4099 417.8118 202.1815 418 202.4167 C418.0274 202.451 422.368 197.9048 424 193.4167 C426.0036 187.9069 425.9984 180.4127 426 180.4167 C426.0046 180.4281 431.9773 213.3713 432 213.4167 C432.0069 213.4305 435.9717 200.3834 436 200.4167 C436.1298 200.5693 448.6359 233.195 449 233.4167 C449.0172 233.4272 458.9961 214.4145 459 214.4167 C459.1689 214.5105 466.9563 243.3831 467 243.4167 C467.0138 243.4273 471.9805 224.4075 472 224.4167 C472.122 224.4741 483.2036 250.1424 484 251.4167 C484.026 251.4582 486.5559 249.8969 487 248.4167 C489.0381 241.6229 489.9824 231.4096 490 231.4167 C490.0982 231.4559 501.951 254.3903 502 254.4167 C502.0153 254.4249 502.995 238.4112 503 238.4167 C503.0116 238.4295 509.9005 261.5176 512 265.4167 C512.1116 265.6239 516.1681 263.7856 517 264.4167 C525.1293 270.5837 541 287.4167 541 287.4167 "/>
<path id="8" d="M254 64.4167 C254 64.4167 252.1095 69.035 252 73.4167 C251.6251 88.4136 252.9853 104.4125 253 104.4167 C253.0079 104.4189 265.9761 77.4424 266 77.4167 C266.0079 77.4081 265.9893 90.4209 266 90.4167 C266.0345 90.4029 275.9228 73.4798 276 73.4167 C276.0179 73.402 276.9741 81.4275 277 81.4167 C277.182 81.3408 287.6038 68.4695 288 68.4167 C288.0788 68.4062 291.9136 79.408 292 79.4167 C292.0847 79.4251 297.8602 69.4477 298 69.4167 C298.0208 69.4121 300.9554 77.4248 301 77.4167 C301.2831 77.3652 308.3522 67.5662 309 67.4167 C309.2127 67.3676 313.4238 74.3687 314 74.4167 C314.6707 74.4726 320.3229 68.4167 321 68.4167 C321.3869 68.4167 324.7642 74.456 325 74.4167 C325.7336 74.2944 332.5725 66.4555 333 66.4167 C333.1158 66.4061 335.3044 72.9819 336 73.4167 C336.3537 73.6377 340.678 71.2327 341 71.4167 C341.4532 71.6757 342.5468 77.1577 343 77.4167 C343.322 77.6007 347.8038 75.2859 348 75.4167 C348.2675 75.595 347.9548 79.8489 349 81.4167 C349.9929 82.906 352.4294 82.6497 354 84.4167 C355.8285 86.4737 357 90.4167 357 90.4167 "/>
<path id="9" d="M271 136.4167 C271 136.4167 266.0509 150.1481 259 162.4167 C241.2447 193.3109 231.8804 203.4693 221 223.4167 C220.4796 224.3708 221.429 227.0471 223 228.4167 C238.3866 241.8306 260 257.4167 260 257.4167 "/>
<path id="10" d="M253 252.4167 L297 207.4167 "/>
<path id="11" d="M316 201.4167 C316 201.4167 329.3683 220.7226 344 238.4167 C350.6656 246.4774 359 253.4167 359 253.4167 "/>
<path id="12" d="M344 135.4167 C344 135.4167 347.7336 145.9143 353 155.4167 C370.5994 187.1721 372.8227 186.9249 390 218.4167 C393.4542 224.7494 395 232.4167 395 232.4167 "/>
<path id="13" d="M353 236.4167 C353 236.4167 364.6523 244.0071 371 244.4167 C375.3239 244.6956 378.9177 242.4099 384 238.4167 C391.9104 232.2014 399 222.4167 399 222.4167 "/>
<path id="14" d="M275 195.4167 C275 195.4167 282.3574 203.6655 288 205.4167 C293.4976 207.1228 304 204.4167 304 204.4167 "/>
<path id="15" d="M319 198.4167 C319 198.4167 326.7291 198.0669 333 196.4167 C335.4993 195.759 336.6886 194.9466 338 193.4167 C338.8743 192.3967 339 189.4167 339 189.4167 "/>
<path id="16" d="M282 193.4167 C282 193.4167 286.0151 189.5849 288 185.4167 C290.7248 179.6945 290.6542 178.9777 292 172.4167 C294.6118 159.6842 295.0203 159.1528 296 146.4167 C296.4813 140.1603 294.421 138.917 295 133.4167 C295.2836 130.7226 298 127.4167 298 127.4167 "/>
<path id="17" d="M300 125.4167 C300 125.4167 304.0137 141.9586 306 158.4167 C307.4796 170.6761 307 183.4167 307 183.4167 "/>
<path id="18" d="M315 127.4167 C315 127.4167 311.9987 125.3968 312 125.4167 C312.0104 125.5727 315.3098 133.9957 316 142.4167 C317.756 163.8396 317 186.4167 317 186.4167 "/>
<path id="19" d="M316 130.4167 L339 181.4167 "/>
<path id="20" d="M318 179.4167 C318 179.4167 320.7917 183.175 322 183.4167 C323.4097 183.6986 328 181.4167 328 181.4167 "/>
<path id="21" d="M321 188.4167 L325 201.4167 "/>
<path id="22" d="M340 178.4167 L342 187.4167 "/>
<path id="23" d="M346 186.4167 L374 213.4167 "/>
<path id="24" d="M314 195.4167 C314 195.4167 321.813 209.0477 332 219.4167 C349.1884 236.9121 370 252.4167 370 252.4167 "/>
<path id="25" d="M268 243.4167 C268 243.4167 305.9999 205.4167 306 205.4167 C306 205.4166 296.0838 218.594 285 230.4167 C273.7147 242.4543 261.3023 253.1648 261 253.4167 C260.9825 253.4313 260.4461 251.0497 261 250.4167 C273.4866 236.1463 296 213.4167 296 213.4167 "/>
<path id="26" d="M234 225.4167 C234 225.4167 232.4353 229.9697 233 232.4167 C233.5775 234.9192 234.5924 236.3301 237 238.4167 C241.4662 242.2874 242.3609 243.1193 248 245.4167 C255.177 248.3406 264 249.4167 264 249.4167 C264 249.4167 232 239.4167 232 239.4167 "/>
<path id="27" d="M285 199.4167 C285 199.4167 292.0013 218.4169 292 218.4167 C291.9977 218.4163 278 198.4167 278 198.4167 C278 198.4167 295 218.4167 295 218.4167 C295 218.4167 278 200.4167 278 200.4167 C278 200.4167 292.9997 216.4168 293 216.4167 C293.0002 216.4166 282 199.4167 282 199.4167 "/>
<path id="28" d="M334 202.4167 C334 202.4167 342.0024 191.4158 342 191.4167 C341.9948 191.4187 321.4473 207.1824 321 207.4167 C320.9601 207.4376 321.0764 202.5695 321 202.4167 C321 202.4167 319 203.4167 319 203.4167 C319 203.4167 338.0003 194.4133 338 194.4167 C337.9994 194.4232 318 213.4167 318 213.4167 C318 213.4167 332.9999 200.4167 333 200.4167 C333.0001 200.4166 323 211.4167 323 211.4167 "/>
<path id="29" d="M255 78.4167 C255 78.4167 250.8231 90.8926 250 102.4167 C249.3965 110.8654 249.9161 112.0809 252 120.4167 C253.746 127.4007 254.1224 128.3849 258 134.4167 C262.7152 141.7514 270 148.4167 270 148.4167 "/>
<path id="30" d="M258 95.4167 C258 95.4167 269.9722 82.4306 270 82.4167 C270.009 82.4122 267.993 90.4209 268 90.4167 C268.0209 90.4041 279.9984 76.4179 280 76.4167 C280.0007 76.4161 275.9896 84.4199 276 84.4167 C276.0334 84.4064 288.1368 75.2322 293 72.4167 C293.2886 72.2496 295 73.4167 295 73.4167 "/>
<path id="31" d="M241 226.4167 C241 226.4167 237.7081 234.9749 233 242.4167 C222.3704 259.2183 219.7351 258.2643 210 275.4167 C199.0537 294.703 201.2749 296.4224 191 316.4167 C182.8532 332.2699 180.1336 331.4851 173 347.4167 C165.4439 364.2919 161 383.4167 161 383.4167 "/>
<path id="32" d="M176 366.4167 C176 366.4167 179.781 375.4817 184 378.4167 C188.5893 381.6092 191.422 381.0322 199 382.4167 C243.1944 390.4907 244.5734 392.4645 288 397.4167 C299.8593 398.769 313 395.4167 313 395.4167 "/>
</g>
</g>
</svg>
