<?xml version="1.0" encoding="utf-8"?>
<!DOCTYPE svg PUBLIC "-//W3C//DTD SVG 1.1//EN" "http://www.w3.org/Graphics/SVG/1.1/DTD/svg11.dtd">
<svg viewBox="0 0 800 800" preserveAspectRatio="xMinYMin meet" xmlns="http://www.w3.org/2000/svg" version="1.1">
<g fill="none" stroke="black" stroke-linecap="round" stroke-linejoin="round" stroke-width="1.9969">
<g transform="translate(87.52,92.0269) scale(1.5023) translate(-56,-30.4167)">
<path id="0" d="M261 155.4167 C261 155.4167 252.0557 149.999 246 143.4167 C241.2211 138.2222 240.7047 136.9079 238 130.4167 C236.0405 125.7138 236.3635 124.8697 236 119.4167 C235.3796 110.1106 234.434 108.7688 236 100.4167 C237.1642 94.2075 238.1707 92.147 242 87.4167 C245.625 82.9387 247.6892 81.9323 253 79.4167 C256.0428 77.9753 257.0162 78.6064 261 78.4167 C267.4353 78.1102 267.882 77.5103 274 78.4167 C280.8675 79.4341 281.416 79.9085 288 82.4167 C291.6151 83.7939 292.7564 83.9861 295 86.4167 C297.92 89.58 298.266 90.7926 300 95.4167 C302.631 102.4326 303.3456 103.0541 304 110.4167 C305.2786 124.8008 306.9462 129.614 304 140.4167 C302.3037 146.6364 292 154.4167 292 154.4167 "/>
<path id="1" d="M294 155.4167 C294 155.4167 299.2888 156.2119 303 155.4167 C305.3268 154.9181 306.4689 154.3653 308 152.4167 C316.4763 141.6287 319.6728 140.5398 325 127.4167 C339.3183 92.1448 336.1872 88.6151 349 51.4167 C351.4953 44.1722 351.9105 43.5509 356 37.4167 C358.5559 33.5828 359.9646 31.302 363 30.4167 C368.7072 28.7521 373.41 28.7082 380 30.4167 C384.58 31.6041 386.6363 33.5725 390 37.4167 C392.6696 40.4676 393.1511 42.0025 394 46.4167 C395.4939 54.1849 395 63.4167 395 63.4167 "/>
<path id="2" d="M263 156.4167 C263 156.4167 247.0881 159.4173 242 156.4167 C234.3524 151.9065 229.8345 145.0856 224 133.4167 C218.8949 123.2064 219.6696 120.9385 218 108.4167 C214.7299 83.8908 217.4615 82.6469 214 58.4167 C212.5724 48.4234 211.689 46.8009 208 38.4167 C206.8268 35.7503 205.5934 34.9295 203 33.4167 C200.3247 31.8561 199.2573 31.4167 196 31.4167 C186.6934 31.4167 181.0873 30.2986 176 33.4167 C170.8663 36.5631 168.5214 41.7167 165 50.4167 C160.4976 61.5402 159 75.4167 159 75.4167 "/>
<path id="3" d="M235 225.4167 C235 225.4167 235.8976 236.8071 234 247.4167 C225.037 297.5282 228.7959 301.5555 213 348.4167 C199.825 387.5026 174 425.4167 174 425.4167 "/>
<path id="4" d="M321 219.4167 C321 219.4167 315.2281 245.0723 313 270.4167 C311.2763 290.0243 311.3469 290.8151 313 310.4167 C314.8015 331.7777 315.4113 332.4396 320 353.4167 C322.3217 364.0303 322.1493 364.843 327 374.4167 C340.7748 401.6037 358 428.4167 358 428.4167 "/>
<path id="5" d="M178 423.4167 C178 423.4167 166.9981 429.7513 157 436.4167 C155.3149 437.54 153.9844 439.3543 154 439.4167 C154.0139 439.4721 156.2535 440.6406 158 440.4167 C174.1352 438.3481 175.7245 435.6869 193 434.4167 C209.0497 433.2365 210.204 436.3838 226 435.4167 C233.7903 434.9397 234.2052 431.7606 242 431.4167 C267.0356 430.3122 268.2797 432.7949 294 432.4167 C301.9307 432.3 303.3179 429.6742 310 430.4167 C314.8939 430.9604 315.8033 434.8864 321 435.4167 C338.1565 437.1673 341.9915 436.2266 359 435.4167 C360.833 435.3294 362.8927 433.8993 363 433.4167 C363.2434 432.3215 361 426.4167 361 426.4167 "/>
<path id="6" d="M294 48.4167 C294 48.4167 276.5538 46.1724 261 47.4167 C252.779 48.0744 249.3586 49.4694 244 52.4167 C242.2907 53.3568 240.9733 58.401 241 58.4167 C242.1272 59.0797 251.0965 61.4954 261 62.4167 C272.181 63.4568 273.3546 63.8552 284 62.4167 C290.7925 61.4988 297.2414 58.4787 298 57.4167 C298.3107 56.9818 294 48.4167 294 48.4167 "/>
<path id="7" d="M165 52.4167 C165 52.4167 165.5677 59.8608 164 66.4167 C160.2136 82.2509 161.1383 83.9778 154 98.4167 C139.7386 127.2636 135.1358 126.3558 120 155.4167 C110.4103 173.8289 109.6274 174.515 104 194.4167 C89.381 246.1181 92.8228 248.0356 79 300.4167 C73.9139 319.6905 73.2697 319.9119 66 338.4167 C62.3681 347.6614 59.9287 347.6305 57 356.4167 C55.28 361.5768 55.4736 364.4683 56 368.4167 C56.1508 369.5479 57.6063 371.0185 59 371.4167 C63.0779 372.5818 64.759 372.6662 70 372.4167 C74.8308 372.1866 75.5264 372.1672 80 370.4167 C86.53 367.8615 87.8022 367.5749 93 363.4167 C96.9682 360.2421 97.4365 359.2018 100 354.4167 C104.6818 345.6774 107.9909 335.4291 108 335.4167 C108.0029 335.4127 107.52 342.7767 108 343.4167 C108.27 343.7767 112.056 344.3887 114 343.4167 C119.346 340.7437 121.6352 339.575 126 334.4167 C131.8022 327.5596 131.8381 326.1785 136 317.4167 C141.2191 306.4291 144.9261 294.5644 145 294.4167 C145.0067 294.4032 145.4764 297.1549 146 297.4167 C147.5708 298.2021 150.385 299.1048 153 298.4167 C158.2709 297.0296 161.918 296.2691 165 292.4167 C171.638 284.1191 172.4988 280.5138 177 268.4167 C180.2399 259.7095 180.9947 249.4315 181 249.4167 C181.0012 249.4133 181.9065 254.405 182 254.4167 C182.374 254.4634 187.0861 252.9286 189 250.4167 C193.8921 243.9958 195.8709 241.7394 198 233.4167 C200.9243 221.9854 200.2805 220.0388 200 207.4167 C199.794 198.1446 197.0001 188.417 197 188.4167 C196.9999 188.4165 195.4455 194.9489 197 198.4167 C200.8595 207.0264 202.7789 210.4535 210 217.4167 C215.2367 222.4664 217.4097 222.4347 225 225.4167 C230.9318 227.747 238 228.4167 238 228.4167 "/>
<path id="8" d="M382 32.4167 C382 32.4167 403.5244 61.7574 419 92.4167 C429.4401 113.0999 428.5617 114.8824 435 137.4167 C438.3954 149.3007 435.7841 150.5427 439 162.4167 C442.1362 173.9967 445.3412 173.7014 448 185.4167 C461.0824 243.0609 461.4391 244.8563 471 303.4167 C473.2901 317.4433 473.1275 318.605 472 332.4167 C471.2043 342.1638 470.5791 344.0654 467 352.4167 C465.222 356.5654 462.7897 359.4403 460 360.4167 C456.399 361.677 450.7771 361.3052 447 359.4167 C443.7825 357.8079 441.8425 355.138 440 350.4167 C434.4228 336.1251 431.1306 318.6577 431 318.4167 C430.9793 318.3785 428.9615 323.8948 427 326.4167 C426.4116 327.1732 424.3215 327.6845 424 327.4167 C419.7964 323.9137 412.2518 319.5461 409 311.4167 C401.9643 293.8275 400.6446 268.5124 400 267.4167 C399.9538 267.3382 391.166 276.6044 389 277.4167 C388.486 277.6094 384.9354 275.5992 384 273.4167 C378.627 260.8796 376.7015 257.545 374 242.4167 C371.94 230.8809 374.0631 217.669 374 217.4167 C373.9905 217.3788 369.8393 222.3327 369 222.4167 C368.298 222.4869 365.2902 220.6993 364 218.4167 C359.5543 210.5512 358.9222 208.9802 356 199.4167 C353.5585 191.4265 353.0308 182.3996 353 182.4167 C352.8568 182.4962 346.1605 197.8559 338 209.4167 C335.101 213.5235 333.5479 214.009 329 216.4167 C325.7575 218.1333 321 218.4167 321 218.4167 "/>
</g>
</g>
</svg>
