<?xml version="1.0" encoding="utf-8"?>
<!DOCTYPE svg PUBLIC "-//W3C//DTD SVG 1.1//EN" "http://www.w3.org/Graphics/SVG/1.1/DTD/svg11.dtd">
<svg viewBox="0 0 800 800" preserveAspectRatio="xMinYMin meet" xmlns="http://www.w3.org/2000/svg" version="1.1">
<g fill="none" stroke="black" stroke-linecap="round" stroke-linejoin="round" stroke-width="1.1185">
<g transform="translate(174.6925,87.52) scale(2.6822) translate(-189,-121)">
<path id="0" d="M200 131 C200 131 195.2007 137.3979 193 144 C189.9382 153.1855 189.7198 154.103 189 164 C187.7584 181.0715 186.56 182.6517 189 199 C191.3349 214.6442 193.7826 215.7825 199 231 C199.5428 232.5831 200.4917 233.9492 201 234 C202.7239 234.1724 206.2132 233.8578 209 232 C213.9764 228.6824 213.6153 225.2693 219 222 C226.4548 217.4739 232.5715 218.03 237 215 C237.9921 214.3212 238 209 238 209 "/>
<path id="1" d="M202 134 C202 134 208.5586 141.5351 216 146 C225.2667 151.56 237 155 237 155 "/>
<path id="2" d="M274 143 C274 143 263.4377 141.1911 260 142 C258.9569 142.2454 257.1817 144.8192 257 147 C256.3452 154.8578 255.9186 161.8372 258 166 C259.1207 168.2415 264.0463 170.5356 269 171 C277.9896 171.8428 284.1037 170.5382 290 169 C290.8338 168.7825 291.9015 166.7729 292 165 C292.3341 158.9864 292.6705 155.5343 291 151 C290.1617 148.7246 287.853 146.951 285 146 C280.4104 144.4701 273 145 273 145 "/>
<path id="3" d="M270 173 C270 173 271.6023 180.5411 271 181 C267.679 183.5303 256.9975 184.1444 249 189 C245.5862 191.0727 244.8117 193.6002 243 198 C241.6714 201.2265 242 206 242 206 "/>
<path id="4" d="M285 173 C285 173 283.6616 181.5041 285 183 C288.2403 186.6215 299.103 187.4476 302 192 C305.8804 198.0977 305.0068 204.0811 306 216 C306.9796 227.7556 307.8091 232.2468 306 240 C305.4246 242.466 302.1157 244.562 299 246 C297.0864 246.8832 293.8394 246.8394 293 246 C289.9222 242.9222 287.6862 238.9841 285 232 C282.9914 226.7777 283 220 283 220 "/>
<path id="5" d="M246 208 L248 226 "/>
<path id="6" d="M243 205 C243 205 243.1049 250.3507 244 257 C244.0139 257.103 247.9471 257.8798 250 257 C253.6171 255.4498 255.6265 254.3907 258 251 C261.724 245.68 260.1573 241.7469 264 237 C267.2411 232.9963 272.1931 232.5517 275 230 C275.4409 229.5992 275.3118 227.4158 275 227 C274.6622 226.5496 272 226 272 226 "/>
<path id="7" d="M252 215 C252 215 250.4505 237.2527 251 240 C251.0266 240.1329 255.0329 240.6557 257 240 C258.3114 239.5629 259.0361 238.6869 260 237 C264.7321 228.7188 269 219 269 219 "/>
<path id="8" d="M276 229 C276 229 276.0978 206.1713 275 203 C274.8846 202.6667 267.0864 202.7552 267 203 C266.5014 204.4126 269 220 269 220 "/>
<path id="9" d="M269 218 L275 224 "/>
<path id="10" d="M278 208 C278 208 278.2234 203.0873 279 202 C279.4461 201.3754 282.9988 200.9955 283 201 C283.2857 202.0713 284.5119 210.4483 283 217 C281.9242 221.6618 277 227 277 227 "/>
<path id="11" d="M285 217 C285 217 287.6406 218.1613 288 219 C288.547 220.2763 287.2364 222.0909 288 224 C290.7796 230.9491 293.9157 236.5684 296 239 C296.2316 239.2702 299.9283 238.3404 300 238 C300.7003 234.6737 300 220 300 220 "/>
<path id="12" d="M252 260 C252 260 254.9946 273.3638 252 281 C246.6036 294.7609 240.9375 295.6786 232 311 C227.138 319.3348 226.747 320.1485 224 329 C222.4831 333.8877 224.7491 335.6273 223 340 C220.2996 346.7509 213.8162 353.9827 214 354 C217.0071 354.2827 297.5766 353.6107 340 351 C341.4483 350.9109 343.4749 348.2317 344 346 C345.0606 341.4923 344.9818 339.4 344 334 C343.1223 329.1727 342.4782 328.6811 340 324 C333.5758 311.8654 333.985 311.1096 326 300 C311.2313 279.4523 305.1003 279.029 294 260 C289.8847 252.9452 291 240 291 240 "/>
<path id="13" d="M276 121 C276 121 262.9852 120.6211 262 121 C261.935 121.025 262.0232 125.0232 263 126 C264.9536 127.9536 267.1262 129.3082 271 130 C279.9701 131.6018 290.5983 131.0446 291 131 C291.0337 130.9963 290.0994 128.513 289 128 C284.1929 125.7567 276 124 276 124 "/>
<path id="14" d="M239 153 C239 153 245.2922 152.8989 246 154 C250.3849 160.821 251.9812 171.9034 257 181 C257.7222 182.309 262 183 262 183 "/>
<path id="15" d="M295 182 C295 182 298.7593 179.0131 300 176 C301.8203 171.5794 299.8647 167.3725 302 165 C305.9035 160.6627 311.8005 161.0186 318 156 C321.0554 153.5266 319.8568 150.2701 323 148 C335.8319 138.7325 353.0585 129.9696 354 130 C354.019 130.0006 353.0682 139.9928 354 149 C354.5056 153.8877 356.8037 154.1583 357 159 C358.2411 189.6144 358.1413 197.1304 357 223 C356.9263 224.6704 355.4571 226.2714 354 227 C351.8143 228.0928 348.6309 228.6795 347 228 C345.142 227.2258 344.389 222.7103 342 222 C330.2071 218.494 315.2608 218.1508 310 217 C309.9305 216.9848 310 215 310 215 "/>
</g>
</g>
</svg>
