<?xml version="1.0" encoding="utf-8"?>
<!DOCTYPE svg PUBLIC "-//W3C//DTD SVG 1.1//EN" "http://www.w3.org/Graphics/SVG/1.1/DTD/svg11.dtd">
<svg viewBox="0 0 800 800" preserveAspectRatio="xMinYMin meet" xmlns="http://www.w3.org/2000/svg" version="1.1">
<g fill="none" stroke="black" stroke-linecap="round" stroke-linejoin="round" stroke-width="2.1313">
<g transform="translate(87.52,98.0768) scale(1.4076) translate(-88,-18)">
<path id="0" d="M235 184 C235 184 235.6545 179.6545 235 179 C233.0365 177.0365 229.7356 174.8456 225 174 C217.1746 172.6026 214.2051 171.4505 207 174 C184.9289 181.8098 179.3014 184.3542 160 197 C153.5233 201.2434 153.1395 204.0972 149 212 C142.4679 224.4704 144.5817 226.2754 138 239 C129.7798 254.8924 126.9495 254.4466 119 270 C115.8671 276.1297 118.0873 277.8254 115 284 C107.957 298.0859 106.7535 301.3013 98 312 C95.2467 315.3651 87.9872 316.9983 88 317 C88.0657 317.0086 117.6455 321.2561 136 317 C145.4488 314.809 150.1459 309.3772 157 301 C161.5256 295.4688 160.5932 285.1003 163 284 C167.9884 281.7196 183.3703 287.5889 192 285 C196.4802 283.6559 197.6341 274.7695 203 272 C209.529 268.6302 214.6039 271.6987 223 269 C226.9763 267.7219 227.4641 266.3751 231 263 C238.2942 256.0374 239.2652 255.9789 245 248 C250.3701 240.5285 250.6754 239.3115 254 231 C255.3557 227.6108 254.8407 226.9826 255 223 C255.3368 214.579 257.4667 212.0941 255 206 C250.3741 194.5714 238 181 238 181 "/>
<path id="1" d="M349 211 C349 211 347.0156 210.2893 347 210 C346.492 200.6025 344.7679 189.306 347 174 C347.8073 168.464 349.7151 166.6744 354 162 C359.9911 155.4643 362.2978 151.6085 369 150 C382.1196 146.8513 390.8858 146.1562 404 150 C414.4849 153.0732 419.244 156.8004 427 167 C453.3155 201.6067 451.2796 207.081 477 246 C489.2085 264.4733 489.5628 265.4914 503 282 C506.3675 286.1372 507.6748 287.1788 512 289 C515.7727 290.5885 520.0615 289.1189 522 290 C522.5226 290.2375 522.5674 293.827 523 294 C524.4973 294.5989 530.9875 293.6625 532 294 C532.1125 294.0375 532.0691 296.9893 532 297 C523.2503 298.3577 493.0321 304.3791 474 303 C470.0997 302.7174 466.206 293.0687 463 292 C461.1056 291.3685 457.8247 295.1959 453 296 C446.6676 297.0554 443.7668 297.658 439 296 C434.9882 294.6046 433.3637 292.2046 430 288 C427.9198 285.3998 428.0817 281.5408 427 281 C425.5855 280.2927 420.8121 283.0713 418 282 C412.9662 280.0824 410.0665 278.2714 406 273 C397.6315 262.152 397.0759 250.4522 391 247 C385.1978 243.7033 368.5938 250.6028 362 248 C358.4696 246.6064 355.2047 239.7164 353 232 C350.7105 223.9868 353.835 217.6894 352 213 C351.3253 211.2757 344 209 344 209 "/>
<path id="2" d="M263 113 C263 113 262.2614 105.0454 264 103 C267.7816 98.5511 272.4022 94.9899 280 93 C290.7166 90.1933 293.6644 91.6262 306 92 C309.3538 92.1016 310.2042 92.4024 313 94 C316.5806 96.046 316.4375 98.1 320 100 C323.1666 101.6889 326.0988 100.2256 328 102 C331.5069 105.2731 333.6475 108.2519 335 114 C337.2036 123.3654 337.1624 129.9557 336 136 C335.7253 137.4285 332.9874 139.1038 330 140 C323.9421 141.8174 322.9537 141.786 316 142 C290.7795 142.776 285.8167 143.7945 265 142 C261.9669 141.7385 260.6437 139.8641 258 137 C255.0901 133.8476 254.1061 132.9504 253 129 C250.9337 121.6203 249.3442 115.4389 251 112 C252.7782 108.3069 266 102 266 102 "/>
<path id="3" d="M272 113 L272 116 "/>
<path id="4" d="M318 111 L316 115 "/>
<path id="5" d="M284 125 C284 125 294.2869 127.2854 299 126 C301.8511 125.2224 306 119 306 119 "/>
<path id="6" d="M223 122 C223 122 219.7483 104.2357 224 94 C231.1522 76.7817 236.1923 72.4515 250 57 C255.5699 50.767 258.7044 48.0573 266 47 C288.1596 43.7885 293.0198 46.5521 319 47 C321.4594 47.0424 322.2582 46.8181 324 48 C334.8013 55.3295 338.8208 56.2872 347 66 C353.0365 73.1684 353.1348 75.8128 356 86 C361.9171 107.0386 359.9613 109.4254 365 130 C365.6254 132.5536 366.4749 134.3222 368 135 C372.77 137.12 383 138 383 138 "/>
<path id="7" d="M224 119 C224 119 224.8171 127.7317 223 135 C220.54 144.8401 219.4197 146.1605 215 155 C213.8951 157.2099 210.9936 159.0011 211 159 C211.03 158.9947 221.8201 156.0103 232 152 C238.1547 149.5754 241.3734 148.1888 244 146 C244.515 145.5708 243.6263 142.23 244 142 C246.3476 140.5553 257 138 257 138 "/>
<path id="8" d="M350 130 C350 130 353.6556 135.2163 357 137 C359.6589 138.4181 365 138 365 138 "/>
<path id="9" d="M340 125 C340 125 339.52 127.52 340 128 C343.36 131.36 346.5566 135.5591 352 137 C360.3266 139.2041 374 137 374 137 "/>
<path id="10" d="M268 141 C268 141 270.1175 166.8249 268 188 C267.3873 194.1273 265.8476 196.0207 262 201 C258.1821 205.9408 251 210 251 210 "/>
<path id="11" d="M324 142 C324 142 322.5395 163.6487 324 183 C324.4382 188.8063 325.4881 189.6623 328 195 C329.2453 197.6463 329.9361 199.2172 332 200 C341.5468 203.6212 357 206 357 206 "/>
<path id="12" d="M240 259 C240 259 225.2154 305.0116 207 348 C200.5964 363.1124 199.3319 363.2613 190 377 C181.5062 389.5048 181.8678 391.7623 171 401 C153.3605 415.9936 151.0179 415.9075 130 428 C114.8948 436.6907 97.9651 442.9984 98 443 C98.4036 443.0183 414.7514 442.75 460 443 C460.0014 443 460 445 460 445 "/>
<path id="13" d="M364 253 C364 253 370.5238 261.218 374 270 C379.7327 284.4825 377.0395 286.9929 383 301 C386.5391 309.317 389.74 308.7305 394 317 C397.9502 324.6681 395.5693 326.6363 400 334 C430.1202 384.0589 439.662 390.9508 465 435 C467.1971 438.8196 465.3344 446.9213 465 447 C458.9594 448.4213 414 447 414 447 "/>
<path id="14" d="M240 66 C240 66 239.4354 25.8187 240 25 C240.0247 24.9642 259.2596 37.0353 260 37 C260.0617 36.9971 259.63 27.6533 261 24 C261.4993 22.6684 263.6711 21.7763 266 21 C267.5526 20.4825 269.5293 20.6234 270 21 C270.4942 21.3954 270.1005 24.2504 271 25 C274.3214 27.7678 280.34 31.1953 282 31 C283.1193 30.8683 284.6995 25.4754 288 23 C291.5756 20.3183 297.7613 18.8329 298 19 C298.2553 19.1787 297.5584 28.7856 298 30 C298.0584 30.1606 301.0509 30.5932 302 30 C303.6906 28.9434 303.7285 26.298 306 25 C312.9566 21.0248 315.0175 20.9409 323 18 C323.8154 17.6996 324.992 17.956 325 18 C325.242 19.331 324.4648 28.744 325 29 C327.3398 30.119 347.1987 27.7109 348 29 C350.0737 32.3359 348 66 348 66 "/>
</g>
</g>
</svg>
