<?xml version="1.0" encoding="utf-8"?>
<!DOCTYPE svg PUBLIC "-//W3C//DTD SVG 1.1//EN" "http://www.w3.org/Graphics/SVG/1.1/DTD/svg11.dtd">
<svg viewBox="0 0 800 800" preserveAspectRatio="xMinYMin meet" xmlns="http://www.w3.org/2000/svg" version="1.1">
<g fill="none" stroke="black" stroke-linecap="round" stroke-linejoin="round" stroke-width="1.5025">
<g transform="translate(87.52,100.4984) scale(1.9967) translate(-143,-113)">
<path id="0" d="M298 161 C298 161 321.289 155.7539 343 148 C355.8079 143.4257 356.1591 142.7662 368 136 C376.8674 130.9329 376.2198 128.7892 385 124 C392.1869 120.0799 392.9262 120.6913 401 118 C407.8777 115.7074 408.2428 114.5335 415 114 C426.2909 113.1086 436.9104 113.7281 439 115 C439.587 115.3573 440.11 126.1181 438 128 C428.9804 136.0445 417.7003 137.2952 402 148 C397.3129 151.1957 398.6713 154.8098 394 158 C379.7325 167.7437 376.0904 165.9397 361 176 C352.84 181.44 353.9218 184.6336 346 190 C339.2889 194.5462 336.8308 192.7308 330 197 C325.6417 199.7239 324.8332 200.7502 322 205 C319.3085 209.0373 318 215 318 215 "/>
<path id="1" d="M257 168 C257 168 252.8302 161.8981 248 159 C241.4255 155.0553 238.8178 157.2205 232 153 C218.7267 144.7832 219.4453 142.1327 206 133 C193.1379 124.2635 192.5162 122.7516 179 117 C170.3237 113.308 168.899 114.1999 159 113 C152.7179 112.2385 150.5748 112.1422 146 113 C144.7463 113.2351 143.22 114.7531 143 116 C142.1272 120.9459 141.1541 126.7341 143 130 C145.1555 133.8136 149.525 135.9033 156 139 C160.0998 140.9608 161.6162 139.2952 166 141 C170.0448 142.573 172.0574 143.1608 174 146 C177.2312 150.7225 175.7278 154.5464 179 160 C180.9633 163.2722 185.2689 164.099 186 166 C186.5241 167.3626 183.8883 172.6092 184 173 C184.0199 173.0695 187.3222 172.3839 188 173 C190.7264 175.4786 191.4385 179.7125 195 183 C196.7217 184.5892 198.7901 183.3426 201 185 C209.8395 191.6296 209.5028 194.583 219 201 C227.2678 206.5863 229.1132 206.6675 238 210 C239.9859 210.7447 241.641 209.2073 243 210 C246.0124 211.7572 250 217 250 217 "/>
<path id="2" d="M259 160 C259 160 254.7557 145.3508 255 139 C255.0608 137.4182 257.785 134.443 260 134 C271.2229 131.7554 279.642 130.1874 290 132 C294.0436 132.7076 296.3764 136.4705 300 141 C301.62 143.025 301.6931 144.0844 302 147 C302.6424 153.1031 303.0558 155.5128 302 160 C301.5987 161.7055 298 164 298 164 "/>
<path id="3" d="M258 159 C258 159 256.8831 168.6067 258 171 C258.5833 172.2498 265 174 265 174 "/>
<path id="4" d="M321 218 C321 218 322.9736 233.9682 327 249 C330.3847 261.6362 334.8112 261.8747 336 274 C339.541 310.1186 337 351 337 351 "/>
<path id="5" d="M247 213 C247 213 250.8156 224.6298 252 236 C253.2589 248.0852 254.2207 249.4209 252 261 C247.4979 284.4755 242.2304 285.2038 238 309 C234.451 328.9629 236 351 236 351 "/>
<path id="6" d="M343 340 C343 340 358.4482 342.8315 373 342 C392.6436 340.8775 393.1227 337.9877 413 336 C422.7918 335.0208 424.2073 334.7439 433 336 C436.7683 336.5383 439.0174 337.5599 441 340 C444.0329 343.7328 446 352 446 352 "/>
<path id="7" d="M237 352 C237 352 236.6293 364.1097 239 373 C240.167 377.3763 241.5563 377.9823 245 382 C253.3832 391.7804 253.6204 393.6722 263 401 C268.3368 405.1694 269.8783 405.0577 277 407 C291.409 410.9297 292.2289 412.4362 307 413 C356.3341 414.883 358.1151 413.9796 408 412 C420.4213 411.5071 425.8782 412.8489 433 408 C443.5488 400.8178 448.9308 392.93 455 380 C458.3998 372.757 457.3529 367.9291 456 359 C455.1623 353.4713 450 347 450 347 "/>
<path id="8" d="M256 141 C256 141 258.2353 134.3698 261 132 C263.5162 129.8432 265.6274 129.4523 270 129 C279.3929 128.0283 284.5245 127.8097 290 129 C291.1189 129.2432 293 134 293 134 "/>
</g>
</g>
</svg>
