<?xml version="1.0" encoding="utf-8"?>
<!DOCTYPE svg PUBLIC "-//W3C//DTD SVG 1.1//EN" "http://www.w3.org/Graphics/SVG/1.1/DTD/svg11.dtd">
<svg viewBox="0 0 800 800" preserveAspectRatio="xMinYMin meet" xmlns="http://www.w3.org/2000/svg" version="1.1">
<g fill="none" stroke="black" stroke-linecap="round" stroke-linejoin="round" stroke-width="1.8625">
<g transform="translate(87.52,266.3101) scale(1.6107) translate(-158,-171)">
<path id="0" d="M158,172C158,172 156.88658641004596,205.33986802801456 158,238C158.37286319429418,248.93732036596276 158.13852578474572,249.54939851820174 161,260C169.46052991761152,290.8993266556247 172.69319366987025,291.5417101228576 181,322C182.8807863388973,328.89621657595677 181.26148974234175,336.1272151500403 182,337C182.30114010506452,337.3558928514399 187.08028752743485,335.09026995362506 192,335C240.52707247847397,334.10959500039496 241.72800416700912,337.04353899768165 291,335C349.9140137300208,332.5565616425337 350.0541967262692,328.3116001283816 409,326C477.2525213850405,323.32343053392 539.278084449018,331.04407532735354 546,325C549.7685327890941,321.61148732409185 535.4471737958534,271.8749339505591 528,219C525.5105217105997,201.32470414525818 529.3894455762303,189.77889115246052 526,183C524.5800971234711,180.1601942469422 516.5786504308953,178.82450484398006 507,177C485.5329536442347,172.91103878937804 484.84472614812637,171.74810705986735 463,171C412.6122655458386,169.2743926556794 411.5084000907185,169.80398260475135 361,172C343.0734992434731,172.77941307637073 342.90311143145425,176.4547275706156 325,177C245.25548947767146,179.42876681793893 164,178 164,178"/>
<path id="1" d="M161,223L448,223"/>
<path id="2" d="M159,241L452,243"/>
<path id="3" d="M164,263L452,264"/>
<path id="4" d="M457,284C457,284 396.89747863932223,280.5854845768905 337,281C252.61251286238883,281.5839964507793 168,286 168,286"/>
<path id="5" d="M179,311L456,309"/>
<path id="6" d="M451,227C451,227 453.2216577790408,263.5439844703367 455,300C455.21866320544285,304.4825957115781 455.02549313948344,308.91077401180786 455,309C454.9959534699233,309.0141628552686 453,307 453,307"/>
<path id="7" d="M419,223L420,310"/>
<path id="8" d="M385,224L386,311"/>
<path id="9" d="M361,226C361,226 361.97063720764606,247.13130003560906 361,268C359.9788423618341,289.9548892205663 357,312 357,312"/>
<path id="10" d="M330,225L330,311"/>
<path id="11" d="M297,227L298,310"/>
<path id="12" d="M267,226L266,311"/>
<path id="13" d="M242,225L243,313"/>
<path id="14" d="M203,228L203,313"/>
<path id="15" d="M473,228L515,225"/>
<path id="16" d="M479,231C479,231 478.69912622219533,285.2677913331114 480,296C480.03692568657334,296.30463691422994 483.65022588801935,297.1970455359989 487,297C500.11521728589036,296.22851663024175 507.9083812313663,298.43026819536993 514,294C521.9513653085903,288.2171888664797 525.7030322134899,278.3982126364667 531,265C533.0760251350775,259.7488775995098 532.191238838435,255.28845981836574 531,251C530.5414675899675,249.34928332388301 527.4571461638728,249.33143386219652 526,247C520.6315667646791,238.4105068234865 516,227 516,227"/>
<path id="17" d="M483,264L528,264"/>
<path id="18" d="M482,247L518,243"/>
<path id="19" d="M483,283L522,281"/>
<path id="20" d="M493,231L492,294"/>
<path id="21" d="M515,239C515,239 516.9899947745653,239.71985368782805 517,240C517.5136015723152,254.38084402482744 517,295 517,295"/>
<path id="22" d="M190,199L202,199"/>
<path id="23" d="M240,200L255,200"/>
<path id="24" d="M300,201L318,201"/>
<path id="25" d="M360,202L378,201"/>
<path id="26" d="M423,201L431,201"/>
<path id="27" d="M463,200L477,201"/>
</g>
</g>
</svg>
