<?xml version="1.0" encoding="utf-8"?>
<!DOCTYPE svg PUBLIC "-//W3C//DTD SVG 1.1//EN" "http://www.w3.org/Graphics/SVG/1.1/DTD/svg11.dtd">
<svg viewBox="0 0 800 800" preserveAspectRatio="xMinYMin meet" xmlns="http://www.w3.org/2000/svg" version="1.1">
<g fill="none" stroke="black" stroke-linecap="round" stroke-linejoin="round" stroke-width="2.7986">
<g transform="translate(87.52,288.5149) scale(1.072) translate(-56,-84)">
<path id="0" d="M61 125 C61 125 171.0772 126.9315 281 126 C347.9725 125.4324 415 122 415 122 "/>
<path id="1" d="M60 125 C60 125 61.3724 168.7703 60 212 C59.3828 231.4419 57.0957 231.5513 56 251 C55.1061 266.8663 56 283 56 283 "/>
<path id="2" d="M59 285 L452 286 "/>
<path id="3" d="M66 160 C66 160 127.0377 164.7343 188 166 C271.3633 167.7307 271.7767 167.7859 355 166 C387.9441 165.293 421 161 421 161 "/>
<path id="4" d="M67 194 C67 194 72.5772 195.9339 78 196 C153.2598 196.9178 154.6611 194.612 231 196 C264.4657 196.6085 264.7423 197.108 298 200 C310.5173 201.0885 310.6689 203.8088 323 204 C374.1551 204.7931 427 202 427 202 "/>
<path id="5" d="M62 226 C62 226 152.5301 224.7096 242 226 C255.9391 226.201 256.0451 228.7031 270 229 C349.5715 230.693 410.2646 230.4934 430 230 C430.0154 229.9996 430 225 430 225 "/>
<path id="6" d="M58 251 C58 251 79.0191 252.8904 100 253 C270.3024 253.8893 441 253 441 253 "/>
<path id="7" d="M412 123 L427 123 "/>
<path id="8" d="M430 122 C430 122 434.1362 130.3977 436 139 C440.534 159.926 441.7512 160.614 443 182 C445.706 228.3394 442.2677 231.8267 444 276 C444.1495 279.8131 447 284 447 284 "/>
<path id="9" d="M423 203 L443 201 "/>
<path id="10" d="M413 159 C413 159 413 162 413 162 C415.794 162 441 159 441 159 "/>
<path id="11" d="M427 231 L441 230 "/>
<path id="12" d="M370 127 L369 167 "/>
<path id="13" d="M336 129 L336 165 "/>
<path id="14" d="M300 130 L300 167 "/>
<path id="15" d="M273 132 L271 163 "/>
<path id="16" d="M248 131 L246 168 "/>
<path id="17" d="M219 131 L219 160 "/>
<path id="18" d="M220 162 L219 167 "/>
<path id="19" d="M185 128 C185 128 188.492 139.1426 190 150 C190.9303 156.6978 190 164 190 164 "/>
<path id="20" d="M162 128 L162 166 "/>
<path id="21" d="M135 130 L135 163 "/>
<path id="22" d="M114 130 C114 130 114.0784 162.1896 114 163 C113.9959 163.042 111 161 111 161 "/>
<path id="23" d="M93 130 L90 159 "/>
<path id="24" d="M75 131 L75 161 "/>
<path id="25" d="M85 161 L85 200 "/>
<path id="26" d="M105 162 L105 200 "/>
<path id="27" d="M129 164 L128 196 "/>
<path id="28" d="M150 164 C150 164 151.9211 167.1603 152 170 C152.3904 184.055 151 200 151 200 "/>
<path id="29" d="M181 166 L181 195 "/>
<path id="30" d="M209 167 L211 196 "/>
<path id="31" d="M235 165 L238 199 "/>
<path id="32" d="M262 169 C262 169 264.4777 174.6025 265 180 C265.9253 189.5612 265 200 265 200 "/>
<path id="33" d="M289 168 C289 168 291.4188 177.7009 292 187 C292.3919 193.2701 291 200 291 200 "/>
<path id="34" d="M321 169 L320 203 "/>
<path id="35" d="M354 168 L354 210 "/>
<path id="36" d="M399 164 L399 206 "/>
<path id="37" d="M97 196 L96 227 "/>
<path id="38" d="M119 197 L119 228 "/>
<path id="39" d="M145 194 C145 194 145.0015 222.9597 145 223 C144.9999 223.0027 144.02 221 144 221 C143.98 221 143 223 143 223 "/>
<path id="40" d="M168 196 C168 196 171.2526 202.6472 172 209 C173.1651 218.9037 172 230 172 230 "/>
<path id="41" d="M200 196 L200 223 "/>
<path id="42" d="M228 196 C228 196 230.5238 204.6664 231 213 C231.4976 221.708 230 231 230 231 "/>
<path id="43" d="M251 198 L253 229 "/>
<path id="44" d="M280 200 L284 233 "/>
<path id="45" d="M310 203 L309 233 "/>
<path id="46" d="M335 208 L336 231 "/>
<path id="47" d="M368 206 L366 230 "/>
<path id="48" d="M107 225 L109 257 "/>
<path id="49" d="M136 226 L137 251 "/>
<path id="50" d="M155 223 C155 223 158.2004 229.0826 159 235 C160.6027 246.8603 160 260 160 260 "/>
<path id="51" d="M191 229 C191 229 187.0058 226.9476 187 227 C186.8919 227.9728 188 256 188 256 "/>
<path id="52" d="M214 227 L214 253 "/>
<path id="53" d="M241 226 L240 258 "/>
<path id="54" d="M270 227 L269 254 "/>
<path id="55" d="M297 232 L297 255 "/>
<path id="56" d="M324 229 L324 256 "/>
<path id="57" d="M355 231 L355 252 "/>
<path id="58" d="M88 256 L87 292 "/>
<path id="59" d="M119 255 L117 288 "/>
<path id="60" d="M147 254 L146 286 "/>
<path id="61" d="M407 256 C407 256 408.881 258.1554 409 260 C409.7782 272.0622 409 287 409 287 "/>
<path id="62" d="M366 254 L364 288 "/>
<path id="63" d="M328 253 L328 287 "/>
<path id="64" d="M300 255 L300 287 "/>
<path id="65" d="M57 87 L57 119 "/>
<path id="66" d="M56 89 L98 89 "/>
<path id="67" d="M59 118 L96 118 "/>
<path id="68" d="M99 86 L99 121 "/>
<path id="69" d="M114 85 L219 86 "/>
<path id="70" d="M220 87 L219 116 "/>
<path id="71" d="M115 88 L117 123 "/>
<path id="72" d="M116 116 L222 116 "/>
<path id="73" d="M233 86 L326 86 "/>
<path id="74" d="M346 86 L426 85 "/>
<path id="75" d="M427 84 L427 116 "/>
<path id="76" d="M349 87 C349 87 347.0025 86.9745 347 87 C346.6029 91.1034 344.8906 117.5754 346 118 C354.3733 121.2046 428 118 428 118 "/>
<path id="77" d="M329 85 C329 85 330.3342 106.3028 330 118 C329.9791 118.7298 328 120 328 120 "/>
<path id="78" d="M234 87 L232 118 "/>
<path id="79" d="M235 120 L335 117 "/>
<path id="80" d="M140 88 L138 115 "/>
<path id="81" d="M164 87 L164 115 "/>
<path id="82" d="M189 88 L188 114 "/>
<path id="83" d="M252 90 L250 118 "/>
<path id="84" d="M276 88 L276 116 "/>
<path id="85" d="M300 88 L298 118 "/>
<path id="86" d="M363 88 L359 124 "/>
<path id="87" d="M384 89 L381 116 "/>
<path id="88" d="M401 90 L401 119 "/>
<path id="89" d="M517 120 C517 120 518.2323 118.0439 519 118 C530.982 117.3153 536.4154 119.1132 552 118 C556.3516 117.6892 556.7157 115.0985 561 115 C597.8372 114.1532 639 116 639 116 "/>
<path id="90" d="M521 122 L521 271 "/>
<path id="91" d="M525 271 C525 271 536.491 273.0926 537 273 C537.0119 272.9978 535.9905 269.0027 536 269 C536.9946 268.7158 547.1334 269.4833 551 269 C551.3222 268.9597 551.7259 267.0065 552 267 C573.7174 266.4829 635 267 635 267 "/>
<path id="92" d="M636 264 C636 264 632.0665 262.0717 632 261 C629.0856 214.0465 627 119 627 119 "/>
<path id="93" d="M602 118 C602 118 600.0887 170.7764 602 222 C602.5548 236.8679 606.0741 237.4935 607 252 C607.5153 260.0728 605 269 605 269 "/>
<path id="94" d="M568 118 C568 118 565.2009 148.0699 565 178 C564.7022 222.3747 567 267 567 267 "/>
<path id="95" d="M542 119 L542 232 "/>
<path id="96" d="M522 143 L629 143 "/>
<path id="97" d="M522 173 C522 173 540.6356 173.9418 559 173 C579.4515 171.9512 600 169 600 169 "/>
<path id="98" d="M525 200 L599 200 "/>
<path id="99" d="M524 230 L602 229 "/>
<path id="100" d="M597 201 L627 198 "/>
<path id="101" d="M438 122 L508 121 "/>
<path id="102" d="M441 126 C441 126 447.4864 143.656 450 161 C452.3641 177.3124 451 195 451 195 "/>
<path id="103" d="M452 197 C452 197 507.1329 197.2497 515 197 C515.0079 196.9997 515 195 515 195 "/>
<path id="104" d="M511 121 C511 121 513.7205 128.1064 514 135 C515.1874 164.2896 514 195 514 195 "/>
<path id="105" d="M456 288 C456 288 510.4398 285.2286 513 285 C513.0367 284.9967 512 283 512 283 "/>
<path id="106" d="M449 253 L451 289 "/>
<path id="107" d="M450 254 L479 253 "/>
<path id="108" d="M474 233 L473 252 "/>
<path id="109" d="M474 231 L496 231 "/>
<path id="110" d="M497 233 L497 251 "/>
<path id="111" d="M482 252 C482 252 508.9218 251.5262 513 251 C513.0507 250.9935 513 248 513 248 "/>
<path id="112" d="M516 251 C516 251 517.329 264.7005 516 275 C515.5838 278.2255 512 282 512 282 "/>
<path id="113" d="M476 248 L477 286 "/>
<path id="114" d="M497 250 L497 288 "/>
<path id="115" d="M450 159 L528 158 "/>
<path id="116" d="M466 124 C466 124 468.7955 131.6366 469 139 C469.7726 166.8129 468 196 468 196 "/>
<path id="117" d="M490 120 L490 193 "/>
<path id="118" d="M441 84 C441 84 439.6863 113.4398 441 114 C447.9382 116.9589 509 113 509 113 "/>
<path id="119" d="M443 85 L513 84 "/>
<path id="120" d="M508 87 L509 112 "/>
<path id="121" d="M458 89 L458 113 "/>
<path id="122" d="M473 88 L473 117 "/>
<path id="123" d="M490 85 L490 112 "/>
</g>
</g>
</svg>
