<?xml version="1.0" encoding="utf-8"?>
<!DOCTYPE svg PUBLIC "-//W3C//DTD SVG 1.1//EN" "http://www.w3.org/Graphics/SVG/1.1/DTD/svg11.dtd">
<svg viewBox="0 0 800 800" preserveAspectRatio="xMinYMin meet" xmlns="http://www.w3.org/2000/svg" version="1.1">
<g fill="none" stroke="black" stroke-linecap="round" stroke-linejoin="round" stroke-width="2.645">
<g transform="translate(87.52,294.5167) scale(1.1342) translate(-39,-132.4167)">
<path id="0" d="M49 136.4167 C49 136.4167 58.0413 134.5034 67 134.4167 C263.3927 132.5146 264.5874 132.4167 462 132.4167 C502.4821 132.4167 503.2561 132.032 543 134.4167 C552.4264 134.9823 558.9429 134.7652 562 138.4167 C570.1748 148.181 572.8411 157.7081 579 177.4167 C585.046 196.7639 583.948 197.8853 587 218.4167 C589.4195 234.6931 589.5027 235.0069 590 251.4167 C590.4954 267.7663 593.136 276.1447 589 284.4167 C585.7282 290.9602 577.5276 296.405 566 299.4167 C526.7492 309.6714 521.6482 311.8377 478 313.4167 C330.544 318.751 327.5947 311.2631 179 313.4167 C156.1033 313.7485 155.932 317.0352 133 318.4167 C114.6747 319.5206 114.0823 319.4599 96 318.4167 C88.5848 317.9889 88.3187 317.3683 81 315.4167 C73.4343 313.3991 72.884 313.7603 66 310.4167 C55.7982 305.4615 50.1833 304.769 46 298.4167 C40.4142 289.9345 40.8536 283.7155 39 269.4167 C37.4506 257.4641 37.5967 256.579 39 244.4167 C42.0334 218.1274 45.3063 217.815 48 191.4167 C50.2533 169.3348 49.7309 164.3227 49 146.4167 C48.933 144.7748 46 142.4167 46 142.4167 "/>
<path id="1" d="M543 191.4167 C543 191.4167 542.7939 199.5921 544 204.4167 C544.3414 205.7821 546.0043 207.3503 547 207.4167 C550.6924 207.6628 557.9807 206.7496 559 205.4167 C560.4378 203.5365 560.8227 191.1094 560 190.4167 C558.5259 189.1753 540 189.4167 540 189.4167 "/>
<path id="2" d="M546 216.4167 C546 216.4167 549.6809 228.8299 552 230.4167 C553.8333 231.6711 564.2973 230.2951 565 229.4167 C565.8137 228.3995 565.1925 216.4104 564 215.4167 C562.321 214.0175 547 214.4167 547 214.4167 "/>
<path id="3" d="M552 242.4167 C552 242.4167 554.3351 251.6599 556 252.4167 C559.507 254.0108 572.7373 253.308 574 252.4167 C574.524 252.0468 573.7903 240.7814 573 240.4167 C569.9781 239.022 548 240.4167 548 240.4167 "/>
<path id="4" d="M512 190.4167 C512 190.4167 515.0675 198.6572 518 200.4167 C521.7145 202.6454 531.233 202.9646 532 202.4167 C532.523 202.0431 532.7931 190.9895 532 190.4167 C530.2866 189.1792 514 189.4167 514 189.4167 "/>
<path id="5" d="M518 213.4167 C518 213.4167 524.0708 227.83 527 229.4167 C529.2176 230.6179 539.3054 228.1008 542 226.4167 C542.8583 225.8803 543.2501 219.5363 543 219.4167 C540.2398 218.0966 519 215.4167 519 215.4167 "/>
<path id="6" d="M527 245.4167 C527 245.4167 528.9389 245.2793 529 245.4167 C529.6794 246.9453 531 254.4167 531 254.4167 C531 254.4167 528.4391 245.1459 529 244.4167 C529.8108 243.3626 539.8473 240.628 541 241.4167 C543.0798 242.8397 548.2505 257.1328 548 257.4167 C547.4796 258.0065 526 258.4167 526 258.4167 "/>
<path id="7" d="M494 194.4167 L493 207.4167 "/>
<path id="8" d="M493 198.4167 C493 198.4167 495.056 195.0647 497 194.4167 C502.346 192.6347 509.5518 191.6926 511 192.4167 C511.7798 192.8066 512.1784 197.4868 513 202.4167 C513.159 203.3708 513.0248 204.4142 513 204.4167 C510.5248 204.6642 493 204.4167 493 204.4167 "/>
<path id="9" d="M490 219.4167 C490 219.4167 493.4924 221.1477 494 222.4167 C494.7724 224.3477 494 229.4167 494 229.4167 "/>
<path id="10" d="M493 219.4167 C493 219.4167 510.3467 214.5323 513 215.4167 C514.1371 215.7957 517.2462 227.2033 517 227.4167 C516.2358 228.079 498 228.4167 498 228.4167 "/>
<path id="11" d="M502 242.4167 L503 256.4167 "/>
<path id="12" d="M504 246.4167 C504 246.4167 518.4245 241.9089 519 242.4167 C519.9415 243.2474 521.4979 260.9774 521 261.4167 C520.4783 261.877 502 257.4167 502 257.4167 "/>
<path id="13" d="M495 167.4167 L494 180.4167 "/>
<path id="14" d="M495 165.4167 C495 165.4167 507.7087 164.2868 509 165.4167 C510.3144 166.5667 511.3756 179.1516 511 179.4167 C510.162 180.0082 492 177.4167 492 177.4167 "/>
<path id="15" d="M518 169.4167 L519 177.4167 "/>
<path id="16" d="M522 167.4167 C522 167.4167 533.167 165.6432 534 166.4167 C535.1286 167.4646 536.388 180.1063 536 180.4167 C535.3505 180.9363 519 178.4167 519 178.4167 "/>
<path id="17" d="M546 168.4167 L546 181.4167 "/>
<path id="18" d="M546 169.4167 C546 169.4167 566.124 166.6492 568 167.4167 C568.3986 167.5797 568.4934 178.2079 568 178.4167 C565.2434 179.5829 542 178.4167 542 178.4167 "/>
<path id="19" d="M442 232.4167 L446 243.4167 "/>
<path id="20" d="M445 234.4167 C445 234.4167 460.2072 232.7664 463 234.4167 C464.8125 235.4877 467.1995 247.267 467 247.4167 C466.3321 247.9176 447 246.4167 447 246.4167 "/>
<path id="21" d="M448 254.4167 L450 263.4167 "/>
<path id="22" d="M449 255.4167 C449 255.4167 458.0541 254.5439 463 255.4167 C464.2469 255.6367 465.5066 256.9363 466 258.4167 C467.5626 263.1044 468.3337 270.2164 468 270.4167 C466.5881 271.2638 446 270.4167 446 270.4167 "/>
<path id="23" d="M472 258.4167 C472 258.4167 474.9359 258.2499 475 258.4167 C475.7654 260.4067 477 271.4167 477 271.4167 "/>
<path id="24" d="M476 259.4167 C476 259.4167 479.4507 257.4167 482 257.4167 C485.3991 257.4167 489.4978 258.4751 490 259.4167 C491.0417 261.3699 490.6691 271.9706 490 272.4167 C488.6618 273.3088 472 271.4167 472 271.4167 "/>
<path id="25" d="M452 267.4167 L452 273.4167 "/>
<path id="26" d="M439 258.4167 C439 258.4167 439.928 272.3459 439 273.4167 C438.303 274.2209 429.4927 274.6494 426 273.4167 C424.3564 272.8366 422.691 270.1808 422 267.4167 C421.0128 263.468 421.5972 257.6852 422 257.4167 C422.6445 256.987 434 259.4167 434 259.4167 "/>
<path id="27" d="M414 200.4167 C414 200.4167 411.9067 210.1368 413 213.4167 C413.633 215.3155 416.7976 217.5271 420 218.4167 C424.1992 219.5831 430.0875 219.3291 431 218.4167 C432.2443 217.1724 433.2537 209.4765 433 205.4167 C432.9372 204.4116 431.2405 202.6234 430 202.4167 C424.6835 201.5306 415 202.4167 415 202.4167 "/>
<path id="28" d="M447 206.4167 C447 206.4167 445.196 214.4017 446 217.4167 C446.3995 218.9148 448.7753 220.9223 451 221.4167 C455.9112 222.508 462.9884 222.356 464 221.4167 C465.0171 220.4722 465.7894 209.0181 465 208.4167 C462.8471 206.7763 443 205.4167 443 205.4167 "/>
<path id="29" d="M412 188.4167 C412 188.4167 415.482 195.5011 418 196.4167 C422.522 198.0611 432.1227 197.6682 434 196.4167 C435.1733 195.6345 436.8214 185.4141 436 184.4167 C434.5579 182.6655 427.7807 181.185 420 179.4167 C417.2757 178.7975 414.2423 179.1743 414 179.4167 C413.8384 179.5782 415 184.4167 415 184.4167 "/>
<path id="30" d="M449 183.4167 C449 183.4167 448.5094 196.7559 449 201.4167 C449.033 201.7301 450.0826 202.3708 451 202.4167 C459.0548 202.8194 466.7212 203.9359 469 202.4167 C470.5614 201.3757 471.3407 195.0094 472 188.4167 C472.272 185.6966 471.2862 182.4664 471 182.4167 C467.9674 181.8893 449 184.4167 449 184.4167 "/>
<path id="31" d="M417 179.4167 L417 186.4167 "/>
<path id="32" d="M450 164.4167 C450 164.4167 448.735 170.5012 449 173.4167 C449.0649 174.1307 450.116 175.2509 451 175.4167 C456.2809 176.4068 460.9677 177.3127 465 176.4167 C466.4959 176.0843 468.2468 173.6764 469 171.4167 C469.8325 168.9191 469.5766 164.769 469 164.4167 C466.2445 162.7327 451 160.4167 451 160.4167 "/>
<path id="33" d="M361 192.4167 C361 192.4167 394.8071 190.9802 397 193.4167 C399.5605 196.2617 399.52 230.2254 397 232.4167 C393.5173 235.4451 373.0186 234.1893 351 233.4167 C345.6802 233.23 340.9203 231.839 340 230.4167 C338.7265 228.4486 339.2541 217.1626 340 216.4167 C340.6394 215.7773 348.6287 218.5095 353 217.4167 C355.9142 216.6881 357.7113 214.6208 360 211.4167 C362.1103 208.4622 362.6276 207.1403 363 203.4167 C363.5339 198.0779 362 191.4167 362 191.4167 "/>
<path id="34" d="M175 275.4167 L182 289.4167 "/>
<path id="35" d="M178 274.4167 C178 274.4167 182.101 276.3402 186 276.4167 C231.5896 277.3106 266.0036 273.7924 280 276.4167 C280.8003 276.5667 282.1113 294.397 282 294.4167 C272.8305 296.0404 228.0965 295.4967 184 293.4167 C180.3172 293.243 176 289.4167 176 289.4167 "/>
<path id="36" d="M63 151.4167 C63 151.4167 62.1433 158.133 63 162.4167 C63.3583 164.208 66 166.4167 66 166.4167 "/>
<path id="37" d="M65 154.4167 C65 154.4167 72.1407 151.4167 78 151.4167 C83.8593 151.4167 88.8561 152.7322 91 154.4167 C92.0171 155.2158 92.1162 162.344 92 162.4167 C91.793 162.5461 87.1181 159.5814 83 159.4167 C75.8115 159.1291 67 161.4167 67 161.4167 "/>
<path id="38" d="M62 180.4167 L64 187.4167 "/>
<path id="39" d="M62 179.4167 C62 179.4167 84.6851 178.0662 88 179.4167 C88.6989 179.7014 89.3937 190.1542 89 190.4167 C88.0469 191.0521 79.5626 190.7292 73 189.4167 C71.1365 189.044 69 186.4167 69 186.4167 "/>
<path id="40" d="M111 181.4167 L112 192.4167 "/>
<path id="41" d="M112 182.4167 C112 182.4167 131.1383 181.6281 134 183.4167 C135.3597 184.2665 136.118 197.265 136 197.4167 C135.981 197.4411 131.3647 193.4642 127 192.4167 C120.0508 190.7489 111 191.4167 111 191.4167 "/>
<path id="42" d="M149 182.4167 L150 196.4167 "/>
<path id="43" d="M147 183.4167 C147 183.4167 163.7538 181.8642 167 183.4167 C168.3408 184.0579 170.2299 194.2634 170 194.4167 C168.8503 195.1832 149 195.4167 149 195.4167 "/>
<path id="44" d="M178 183.4167 L183 193.4167 "/>
<path id="45" d="M177 184.4167 C177 184.4167 182.984 186.7511 188 186.4167 C196.8933 185.8238 205.6773 182.0686 207 182.4167 C207.1745 182.4626 207.7986 187.956 207 191.4167 C206.5836 193.221 205.1904 195.2114 204 195.4167 C195.5556 196.8726 178 196.4167 178 196.4167 "/>
<path id="46" d="M224 180.4167 L223 190.4167 "/>
<path id="47" d="M223 181.4167 C223 181.4167 236.1857 180.7874 239 182.4167 C240.492 183.2805 242.177 192.3021 242 192.4167 C240.9469 193.0981 222 193.4167 222 193.4167 "/>
<path id="48" d="M258 181.4167 L258 194.4167 "/>
<path id="49" d="M259 184.4167 C259 184.4167 271.8219 183.0856 274 184.4167 C275.4117 185.2794 275.7638 190.06 277 195.4167 C277.2114 196.333 277.0274 197.4136 277 197.4167 C274.7774 197.6636 259 197.4167 259 197.4167 "/>
<path id="50" d="M295 183.4167 L294 195.4167 "/>
<path id="51" d="M290 187.4167 C290 187.4167 309.2538 185.4188 311 186.4167 C311.635 186.7795 311.6471 199.0284 311 199.4167 C309.3906 200.3823 291 198.4167 291 198.4167 "/>
<path id="52" d="M324 183.4167 L323 195.4167 "/>
<path id="53" d="M323 183.4167 C323 183.4167 339.6069 182.8744 343 184.4167 C344.0104 184.8759 344.6728 189.4905 345 193.4167 C345.1041 194.6659 344.2509 196.3966 344 196.4167 C339.1592 196.8039 320 195.4167 320 195.4167 "/>
<path id="54" d="M360 182.4167 L357 191.4167 "/>
<path id="55" d="M357 178.4167 C357 178.4167 373.38 174.3915 376 175.4167 C377.278 175.9168 380.1615 187.3167 380 187.4167 C378.7933 188.1637 355 188.4167 355 188.4167 "/>
<path id="56" d="M65 201.4167 L70 214.4167 "/>
<path id="57" d="M69 205.4167 C69 205.4167 111.6978 202.7781 118 204.4167 C118.6 204.5727 119.0922 218.3999 119 218.4167 C117.0583 218.7697 101.8999 213.0391 85 210.4167 C73.4164 208.6192 61 209.4167 61 209.4167 "/>
<path id="58" d="M67 225.4167 C67 225.4167 71.5476 229.7856 73 233.4167 C73.9776 235.8606 73 240.4167 73 240.4167 "/>
<path id="59" d="M73 225.4167 C73 225.4167 88.4291 224.0938 90 225.4167 C91.4298 226.6207 92.6316 240.9114 92 241.4167 C90.7133 242.446 70 241.4167 70 241.4167 "/>
<path id="60" d="M70 253.4167 C70 253.4167 71.9814 253.3424 72 253.4167 C72.6131 255.8693 74 269.4167 74 269.4167 "/>
<path id="61" d="M73 254.4167 C73 254.4167 89.875 253.2917 91 254.4167 C92.125 255.5417 91.6831 271.9385 91 272.4167 C90.0675 273.0694 71 268.4167 71 268.4167 "/>
<path id="62" d="M70 278.4167 L70 291.4167 "/>
<path id="63" d="M69 277.4167 C69 277.4167 114.9928 275.2614 121 276.4167 C121.2453 276.4638 121.3187 287.3417 121 287.4167 C114.6913 288.9011 70 288.4167 70 288.4167 "/>
<path id="64" d="M137 276.4167 L140 288.4167 "/>
<path id="65" d="M138 277.4167 C138 277.4167 146.9035 276.3845 150 277.4167 C151.2042 277.8181 152.2952 279.9497 153 282.4167 C154.1174 286.3277 154.306 291.1447 154 291.4167 C153.6017 291.7707 144 290.4167 144 290.4167 "/>
<path id="66" d="M297 274.4167 L300 291.4167 "/>
<path id="67" d="M304 276.4167 C304 276.4167 323.5237 275.8017 326 277.4167 C327.1074 278.1389 327.5036 291.1736 327 291.4167 C324.3767 292.6831 297 291.4167 297 291.4167 "/>
<path id="68" d="M334 277.4167 C334 277.4167 336.7279 278.5323 337 279.4167 C338.0527 282.8378 338 290.4167 338 290.4167 "/>
<path id="69" d="M338 279.4167 C338 279.4167 364.149 276.7046 369 278.4167 C370.2011 278.8406 372.1471 291.3569 372 291.4167 C369.7437 292.3333 337 291.4167 337 291.4167 "/>
<path id="70" d="M372 244.4167 C372 244.4167 370 250.236 370 255.4167 C370 261.0683 370.9674 266.7856 372 267.4167 C373.7025 268.4571 387.1977 267.5699 388 266.4167 C389.455 264.3251 389.0146 253.2096 388 244.4167 C387.7996 242.6796 385.943 240.5214 385 240.4167 C380.9544 239.9672 370 242.4167 370 242.4167 "/>
<path id="71" d="M341 240.4167 C341 240.4167 343.0337 248.4503 346 251.4167 C348.5956 254.0122 351.2582 253.8361 356 255.4167 C356.8368 255.6956 357.995 255.4517 358 255.4167 C358.245 253.7017 359.2186 242.4612 358 241.4167 C355.5193 239.2904 337 237.4167 337 237.4167 "/>
<path id="72" d="M297 214.4167 C297 214.4167 301.6593 228.7123 305 231.4167 C306.9957 233.0322 317.1788 232.4021 318 231.4167 C319.4908 229.6277 320.776 214.1151 320 213.4167 C318.7977 212.3346 298 213.4167 298 213.4167 "/>
<path id="73" d="M267 206.4167 C267 206.4167 265.1257 216.7134 266 223.4167 C266.338 226.0081 268.2829 228.8703 270 229.4167 C275.3229 231.1103 286.9947 231.3661 288 230.4167 C289.002 229.4703 289.1628 217.3006 288 212.4167 C287.7293 211.2797 285.3953 209.8729 283 209.4167 C276.0392 208.0908 267 208.4167 267 208.4167 "/>
<path id="74" d="M232 212.4167 C232 212.4167 230.7029 221.6637 231 226.4167 C231.0453 227.1413 232.1436 228.2882 233 228.4167 C239.7583 229.4304 250.1598 230.2568 251 229.4167 C251.8402 228.5765 251.0137 218.1749 250 211.4167 C249.8715 210.5603 248.7275 209.453 248 209.4167 C241.7819 209.1058 230 210.4167 230 210.4167 "/>
<path id="75" d="M196 210.4167 C196 210.4167 194.2677 217.2669 195 221.4167 C195.4537 223.9877 197.1572 226.7466 199 227.4167 C204.5825 229.4467 216.5566 229.6701 217 229.4167 C217.0451 229.3909 213.9196 224.2445 213 219.4167 C212.0601 214.482 213.5208 208.706 213 208.4167 C211.5135 207.5908 195 209.4167 195 209.4167 "/>
<path id="76" d="M168 205.4167 C168 205.4167 166.7815 220.2623 168 221.4167 C169.6797 223.008 185.9247 224.2656 187 223.4167 C187.8284 222.7626 188.0542 207.6115 187 206.4167 C186.1792 205.4865 172 206.4167 172 206.4167 "/>
<path id="77" d="M136 208.4167 C136 208.4167 135.4637 223.8803 137 225.4167 C138.707 227.1237 153.6547 228.0893 155 227.4167 C155.4352 227.1991 155.821 220.2478 155 216.4167 C154.7281 215.1479 153.4323 213.8145 152 213.4167 C146.1879 211.8022 137 211.4167 137 211.4167 "/>
<path id="78" d="M126 230.4167 C126 230.4167 125.7343 249.002 127 250.4167 C127.8066 251.3182 141.8008 250.6159 143 249.4167 C144.0581 248.3586 143.9302 235.2374 143 234.4167 C141.8052 233.3624 130.3964 234.9052 126 234.4167 C125.6839 234.3816 125 232.4167 125 232.4167 "/>
<path id="79" d="M100 229.4167 C100 229.4167 100.1662 237.9633 102 242.4167 C102.8037 244.3686 104.7403 245.6634 107 246.4167 C109.4976 247.2492 113.8594 246.738 114 246.4167 C114.7344 244.738 115.3984 232.4605 114 230.4167 C112.9604 228.8973 101 227.4167 101 227.4167 "/>
<path id="80" d="M110 254.4167 C110 254.4167 111.4642 264.4952 113 265.4167 C115.8157 267.1061 128.629 267.4068 130 266.4167 C130.9358 265.7408 131.5283 252.7289 131 252.4167 C129.3721 251.4547 108 253.4167 108 253.4167 "/>
<path id="81" d="M157 248.4167 C157 248.4167 155.6586 251.0512 156 252.4167 C156.8193 255.6937 158.3115 259.8088 160 260.4167 C165.2423 262.3039 178.631 262.8973 181 261.4167 C182.5115 260.472 184.5214 245.8801 184 245.4167 C183.0243 244.5494 173.1933 246.2904 163 245.4167 C156.0796 244.8235 149 242.4167 149 242.4167 "/>
<path id="82" d="M194 236.4167 C194 236.4167 195.9855 251.6142 198 253.4167 C199.573 254.8241 206.2202 254.3412 213 253.4167 C216.3488 252.96 220 250.7052 220 250.4167 C220 249.2626 215.9116 239.7107 213 238.4167 C208.2786 236.3183 193 238.4167 193 238.4167 "/>
<path id="83" d="M242 238.4167 C242 238.4167 246.6317 251.6122 250 253.4167 C254.2009 255.6672 268.5484 254.4099 270 253.4167 C270.573 253.0246 269.9281 240.8386 269 240.4167 C264.5791 238.4072 237 238.4167 237 238.4167 "/>
<path id="84" d="M223 256.4167 C223 256.4167 223.6377 261.692 225 264.4167 C225.5298 265.4763 226.676 266.2963 228 266.4167 C235.9061 267.1354 244.8315 267.6094 247 266.4167 C247.8046 265.9741 248.3863 255.619 248 255.4167 C246.2151 254.4817 226 255.4167 226 255.4167 "/>
<path id="85" d="M308 242.4167 C308 242.4167 308.8436 255.6255 310 256.4167 C311.6295 257.5316 325.5438 256.2358 327 255.4167 C327.2902 255.2534 326.9658 248.0267 326 247.4167 C322.7246 245.348 308 243.4167 308 243.4167 "/>
<path id="86" d="M281 256.4167 C281 256.4167 280.3655 261.5132 281 263.4167 C281.2719 264.2324 282.6646 265.2683 284 265.4167 C290.2165 266.1074 296.6255 266.7358 299 265.4167 C300.3543 264.6643 302.1349 255.4871 302 255.4167 C300.3544 254.5581 276 253.4167 276 253.4167 "/>
<path id="87" d="M122 150.4167 C122 150.4167 125.146 161.8311 128 163.4167 C132.7727 166.0682 147.6055 166.3463 149 165.4167 C149.7563 164.9124 149.9756 150.1972 149 149.4167 C147.4756 148.1972 129 149.4167 129 149.4167 "/>
<path id="88" d="M168 151.4167 C168 151.4167 167.1035 155.7273 168 158.4167 C169.238 162.1306 170.981 165.7437 173 166.4167 C178.0037 168.0846 190.9943 167.3041 192 166.4167 C192.5947 165.8919 191.4564 152.4298 190 151.4167 C187.4589 149.649 169 150.4167 169 150.4167 "/>
<path id="89" d="M215 146.4167 C215 146.4167 218.664 160.4151 222 162.4167 C226.8633 165.3347 242.6368 165.6455 245 164.4167 C246.0546 163.8683 247.4011 149.6108 247 149.4167 C244.4827 148.1986 214 149.4167 214 149.4167 "/>
<path id="90" d="M268 152.4167 C268 152.4167 269.0008 160.7523 271 166.4167 C271.5388 167.9434 272.9525 169.3748 274 169.4167 C281.3594 169.711 293.5736 169.3156 296 167.4167 C297.3922 166.3271 297.8392 152.0369 297 151.4167 C295.0824 149.9993 273 150.4167 273 150.4167 "/>
<path id="91" d="M318 149.4167 C318 149.4167 317.1706 155.2697 318 159.4167 C318.4645 161.739 319.9883 164.248 321 164.4167 C326.4986 165.3331 333.1661 165.0526 342 163.4167 C344.8108 162.8962 347.0763 161.1102 348 159.4167 C348.8891 157.7867 348.3509 152.5412 348 152.4167 C343.4206 150.7917 317 148.4167 317 148.4167 "/>
<path id="92" d="M375 145.4167 C375 145.4167 379.0315 158.2963 382 160.4167 C384.3461 162.0924 389.8577 161.338 396 160.4167 C398.8298 159.9922 401.6474 158.4746 402 157.4167 C402.8228 154.9482 401.9767 145.9426 401 145.4167 C397.5865 143.5786 376 143.4167 376 143.4167 "/>
</g>
</g>
</svg>
