<?xml version="1.0" encoding="utf-8"?>
<!DOCTYPE svg PUBLIC "-//W3C//DTD SVG 1.1//EN" "http://www.w3.org/Graphics/SVG/1.1/DTD/svg11.dtd">
<svg viewBox="0 0 800 800" preserveAspectRatio="xMinYMin meet" xmlns="http://www.w3.org/2000/svg" version="1.1">
<g fill="none" stroke="black" stroke-linecap="round" stroke-linejoin="round" stroke-width="2.2849">
<g transform="translate(87.52,303.4988) scale(1.3129) translate(-80,-145)">
<path id="0" d="M89 145 C89 145 105.5889 148.7003 122 149 C214.2947 150.6857 308 149 308 149 "/>
<path id="1" d="M307 149 C307 149 319.6427 145.1591 332 145 C434.5949 143.679 540 146 540 146 "/>
<path id="2" d="M542 150 C542 150 543.7271 167.5743 546 185 C546.7205 190.5242 547.7363 195.3408 548 196 C548.0045 196.0112 550 195 550 195 C550 195 547.0014 196.0014 547 196 C547 196 548.9988 193.9875 549 194 C549.0082 194.0825 548 206 548 206 "/>
<path id="3" d="M551 180 L553 253 "/>
<path id="4" d="M88 150 L87 217 "/>
<path id="5" d="M96 219 L97 264 "/>
<path id="6" d="M100 271 C100 271 131.6824 278.0257 163 279 C243.1987 281.4951 325 278 325 278 "/>
<path id="7" d="M327 277 C327 277 357.9469 275.6022 388 277 C400.4085 277.5771 400.5816 280.2238 413 281 C432.1809 282.1988 433.0939 283.0257 452 281 C474.2822 278.6126 474.6307 274.4053 497 272 C520.4106 269.4827 521.7876 272.5737 545 271 C550.4102 270.6332 555.6656 269.0404 556 268 C557.2463 264.1227 554 243 554 243 "/>
<path id="8" d="M90 221 L327 224 "/>
<path id="9" d="M327 224 C327 224 334.6188 226.8543 342 227 C409.1501 228.3253 411.0564 228.9085 479 227 C499.4031 226.4269 499.5756 223.3437 520 222 C537.2967 220.8621 555 222 555 222 "/>
<path id="10" d="M84 153 C84 153 80.0762 155.9614 80 158 C78.4905 198.3801 78.9393 222.8741 80 260 C80.0321 261.1231 82.7501 261.6878 83 263 C84.273 269.6832 84 281 84 281 "/>
<path id="11" d="M85 276 C85 276 85.3957 278.6979 86 279 C89.0214 280.5107 91.534 281.5031 97 282 C123.801 284.4365 125.0817 282.1665 152 285 C162.4753 286.1027 162.6439 288.9644 173 290 C186.9687 291.3969 187.945 291.1962 202 290 C210.8888 289.2435 211.4022 286 220 286 C242.9275 286 268 290 268 290 "/>
<path id="12" d="M266 290 C266 290 323.6242 288.62 381 289 C398.9688 289.119 399.1723 291 417 291 C428.8851 291 441 289 441 289 "/>
<path id="13" d="M556 271 L543 284 "/>
<path id="14" d="M437 292 C437 292 460.0015 293.9339 482 292 C504.8311 289.9929 505.1795 286.4671 528 284 C541.6344 282.526 556 284 556 284 "/>
<path id="15" d="M90 205 L91 205 "/>
<path id="16" d="M88 205 L114 207 "/>
<path id="17" d="M519 208 L550 208 "/>
<path id="18" d="M154 164 C154 164 153.0669 185.8009 154 190 C154.0837 190.3768 160 191 160 191 "/>
<path id="19" d="M186 181 L234 180 "/>
<path id="20" d="M482 161 C482 161 475.9635 159.6073 474 160 C473.3455 160.1309 472.3958 161.6147 472 163 C471.5567 164.5515 471.5375 166.445 472 167 C472.713 167.8556 474.5936 168.3984 477 169 C478.3126 169.3281 479.6474 169.3526 480 169 C480.8228 168.1772 482 164 482 164 "/>
<path id="21" d="M113 226 C113 226 111.0002 225.9938 111 226 C110.8817 230.4971 112 264 112 264 "/>
<path id="22" d="M125 223 L126 272 "/>
<path id="23" d="M142 226 C142 226 140.8803 237.8034 142 249 C143.3387 262.3872 147 276 147 276 "/>
<path id="24" d="M156 225 L157 276 "/>
<path id="25" d="M172 225 L172 275 "/>
<path id="26" d="M185 226 L185 278 "/>
<path id="27" d="M202 225 L203 273 "/>
<path id="28" d="M215 224 L214 270 "/>
<path id="29" d="M227 226 L226 277 "/>
<path id="30" d="M242 226 L242 279 "/>
<path id="31" d="M254 225 L257 280 "/>
<path id="32" d="M266 225 L268 279 "/>
<path id="33" d="M283 228 C283 228 280.5265 240.6283 280 253 C279.54 263.8108 281 275 281 275 "/>
<path id="34" d="M296 226 L295 277 "/>
<path id="35" d="M307 228 L308 275 "/>
<path id="36" d="M319 224 L320 277 "/>
<path id="37" d="M331 227 L332 276 "/>
<path id="38" d="M344 229 L345 275 "/>
<path id="39" d="M352 232 L357 271 "/>
<path id="40" d="M367 228 L366 276 "/>
<path id="41" d="M379 230 L377 274 "/>
<path id="42" d="M391 231 C391 231 390.1842 253.6434 391 272 C391.0814 273.8307 393 276 393 276 "/>
<path id="43" d="M404 231 L406 277 "/>
<path id="44" d="M413 231 L415 278 "/>
<path id="45" d="M422 228 C422 228 420.9476 246.4605 422 264 C422.4145 270.9086 425 278 425 278 "/>
<path id="46" d="M433 233 L433 283 "/>
<path id="47" d="M447 230 L447 281 "/>
<path id="48" d="M458 229 L461 279 "/>
<path id="49" d="M470 229 L474 273 "/>
<path id="50" d="M487 231 C487 231 485.8598 244.8872 487 258 C487.8171 267.3965 491 277 491 277 "/>
<path id="51" d="M498 227 L506 270 "/>
<path id="52" d="M509 231 L516 273 "/>
<path id="53" d="M525 226 C525 226 524.4771 238.817 526 251 C527.432 262.4556 531 274 531 274 "/>
<path id="54" d="M537 221 L545 275 "/>
<path id="55" d="M141 246 C141 246 139 246 139 246 C139 244.2195 141 228 141 228 "/>
<path id="56" d="M140 243 C140 243 138.6626 233.411 139 227 C139.0657 225.7516 141 224 141 224 "/>
<path id="57" d="M158 245 C158 245 155.4789 245.3831 155 245 C154.1699 244.3359 153.0985 242.7729 153 241 C152.6659 234.9864 154 227 154 227 "/>
<path id="58" d="M183 227 C183 227 184 250 184 250 C184 250 185 227 185 227 "/>
<path id="59" d="M203 228 C203 228 202 249 202 249 C202 249 205 221 205 221 "/>
<path id="60" d="M239 229 C239 229 237.6195 245.8141 238 250 C238.0232 250.2548 240.9944 251.0316 241 251 C241.357 249.0007 243 222 243 222 "/>
<path id="61" d="M254 228 C254 228 249.3036 230.4213 249 232 C247.6538 239.0001 248.2453 244.1887 249 254 C249.1425 255.8525 250.1699 257.3359 251 258 C251.4789 258.3831 253.9779 258.0937 254 258 C254.5384 255.7118 255 241 255 241 "/>
<path id="62" d="M253 249 C253 249 251.0035 250.0282 251 250 C250.9201 249.3606 251 233 251 233 "/>
<path id="63" d="M185 245 C185 245 182.1332 241.5315 182 239 C181.721 233.6989 184 226 184 226 "/>
<path id="64" d="M282 226 C282 226 281.9998 250.9988 282 251 C282.0001 251.0005 283.78 245.8401 284 241 C284.2606 235.266 283.5425 230.6275 283 229 C282.956 228.868 280.026 228.9048 280 229 C279.651 230.2798 280 240 280 240 "/>
<path id="65" d="M331 245 C331 245 330 227 330 227 C330 227.0001 329 248 329 248 "/>
<path id="66" d="M359 249 C359 249 357 231.9999 357 232 C356.9999 232.0001 357 252 357 252 C357 252 357.0365 231.2191 357 231 C356.9957 230.9739 354 234 354 234 "/>
<path id="67" d="M407 247 C407 247 402.198 247.3713 402 247 C400.7673 244.6887 399 232 399 232 "/>
<path id="68" d="M404 236 C404 236 400.0139 235.0555 400 235 C399.9844 234.9376 402.9876 231.9777 403 232 C403.122 232.2196 405 244 405 244 "/>
</g>
</g>
</svg>
