<?xml version="1.0" encoding="utf-8"?>
<!DOCTYPE svg PUBLIC "-//W3C//DTD SVG 1.1//EN" "http://www.w3.org/Graphics/SVG/1.1/DTD/svg11.dtd">
<svg viewBox="0 0 800 800" preserveAspectRatio="xMinYMin meet" xmlns="http://www.w3.org/2000/svg" version="1.1">
<g fill="none" stroke="black" stroke-linecap="round" stroke-linejoin="round" stroke-width="2.7698">
<g transform="translate(87.52,287.3556) scale(1.0831) translate(-56,-119.1333)">
<path id="0" d="M56 128.1333 C56 128.1333 74.621 132.3967 89 141.1333 C112.6491 155.5024 113.8216 157.9273 135 176.1333 C141.4116 181.6451 142.2003 182.7066 146 190.1333 C152.7035 203.2357 157 219.1333 157 219.1333 "/>
<path id="1" d="M158 213.1333 C158 213.1333 162.2657 222.7184 164 232.1333 C165.6549 241.117 163.4484 242.4445 165 251.1333 C165.7859 255.5344 169.412 259.7476 169 260.1333 C161.2011 267.4345 118 295.1333 118 295.1333 "/>
<path id="2" d="M118 297.1333 C118 297.1333 139.5833 299.4508 157 296.1333 C168.597 293.9244 169.6351 291.384 181 285.1333 C189.3393 280.5467 190.4714 279.5739 197 274.1333 C198.3836 272.9804 199 270.1333 199 270.1333 "/>
<path id="3" d="M60 124.1333 L67 124.1333 "/>
<path id="4" d="M57 125.1333 C57 125.1333 79.6599 119.6248 98 123.1333 C133.4866 129.9221 136.0463 133.8872 172 147.1333 C182.8729 151.1391 183.6881 151.4001 193 158.1333 C215.5228 174.419 237 194.1333 237 194.1333 "/>
<path id="5" d="M238 196.1333 C238 196.1333 260.1547 197.7368 281 196.1333 C291.8515 195.2986 303 191.1333 303 191.1333 "/>
<path id="6" d="M301 192.1333 C301 192.1333 296.1651 190.6654 293 188.1333 C289.2131 185.1038 286 180.1333 286 180.1333 "/>
<path id="7" d="M286 180.1333 C286 180.1333 292.2656 175.3731 294 171.1333 C295.895 166.501 294.6395 158.2735 295 158.1333 C295.8732 157.7938 304.5865 159.9514 312 164.1333 C323.2835 170.4984 334 180.1333 334 180.1333 "/>
<path id="8" d="M334 180.1333 C334 180.1333 338.8042 183.9404 343 184.1333 C378.6357 185.7718 421 184.1333 421 184.1333 "/>
<path id="9" d="M420 185.1333 C420 185.1333 422.2777 185.675 423 185.1333 C428.2968 181.1607 429.1151 177.2212 436 173.1333 C443.9219 168.4297 455 166.1333 455 166.1333 "/>
<path id="10" d="M455 166.1333 C455 166.1333 452.1074 167.5996 451 167.1333 C445.1861 164.6854 435.9903 158.142 436 158.1333 C436.0351 158.1018 458.2335 159.1293 461 158.1333 C461.3585 158.0043 462.0384 152.041 461 149.1333 C460.2171 146.9411 456 144.1333 456 144.1333 "/>
<path id="11" d="M456 144.1333 C456 144.1333 453.2634 136.8027 449 132.1333 C443.4869 126.0951 434.9807 121.1962 435 121.1333 C435.0218 121.0626 446.4535 117.2629 453 119.1333 C463.5174 122.1383 471.071 125.5368 477 133.1333 C483.0218 140.8488 482.7499 146.9137 485 160.1333 C486.5867 169.4555 485 180.1333 485 180.1333 "/>
<path id="12" d="M487 181.1333 C487 181.1333 500.2057 191.9738 512 194.1333 C531.8148 197.7614 536.5148 191.8546 558 194.1333 C567.6881 195.1609 578 201.1333 578 201.1333 "/>
<path id="13" d="M579 205.1333 L581 205.1333 "/>
<path id="14" d="M578 201.1333 C578 201.1333 589.9376 202.7425 600 207.1333 C616.6989 214.4201 633 225.1333 633 225.1333 "/>
<path id="15" d="M633 225.1333 C633 225.1333 630.6228 232.0281 627 235.1333 C621.5658 239.7912 619.6015 240.9615 612 243.1333 C596.2943 247.6207 578 249.1333 578 249.1333 "/>
<path id="16" d="M578 249.1333 C578 249.1333 573.7243 253.0665 569 255.1333 C558.2306 259.8449 557.3988 261.0978 546 263.1333 C530.435 265.9128 528.2849 261.6687 513 265.1333 C492.2566 269.8352 471 280.1333 471 280.1333 "/>
<path id="17" d="M471 280.1333 L456 280.1333 "/>
<path id="18" d="M505 234.1333 C505 234.1333 506.3536 241.6527 505 245.1333 C503.8036 248.2097 498 252.1333 498 252.1333 "/>
<path id="19" d="M492 240.1333 C492 240.1333 494.6223 246.7995 494 249.1333 C493.4414 251.2282 488 255.1333 488 255.1333 "/>
<path id="20" d="M474 241.1333 C474 241.1333 473.53 246.7291 472 249.1333 C470.98 250.7361 467 252.1333 467 252.1333 "/>
<path id="21" d="M594 250.1333 L566 242.1333 "/>
<path id="22" d="M576 218.1333 L593 219.1333 "/>
<path id="23" d="M198 273.1333 C198 273.1333 204.4934 268.4757 211 266.1333 C216.3328 264.2135 217.058 264.3031 223 264.1333 C251.5834 263.3167 281 264.1333 281 264.1333 "/>
<path id="24" d="M283 260.1333 L292 260.1333 "/>
<path id="25" d="M278 264.1333 C278 264.1333 280.9924 261.7348 284 261.1333 C297.5797 258.4174 313 257.1333 313 257.1333 "/>
<path id="26" d="M300 259.1333 C300 259.1333 300.1968 264.4877 299 266.1333 C297.592 268.0693 292 270.1333 292 270.1333 "/>
<path id="27" d="M292 270.1333 C292 270.1333 291.8073 272.0296 292 272.1333 C294.8084 273.6455 298.7104 275.8754 305 277.1333 C310.3911 278.2116 317 277.1333 317 277.1333 "/>
<path id="28" d="M317 277.1333 C317 277.1333 320.4222 273.3718 324 272.1333 C332.3534 269.2418 343 268.1333 343 268.1333 "/>
<path id="29" d="M343 268.1333 L365 273.1333 "/>
<path id="30" d="M365 273.1333 C365 273.1333 358.3795 279.5851 353 282.1333 C350.6845 283.2301 346 282.1333 346 282.1333 C346 282.1333 353.9205 283.2387 360 282.1333 C363.7898 281.4443 365.0361 280.7485 368 278.1333 C372.8087 273.8903 375.2524 267.9489 377 267.1333 C377.5111 266.8948 379.9843 270.1281 383 271.1333 C388.209 272.8697 395 273.0204 395 273.1333 C395 274.3751 389.9325 285.0931 383 295.1333 C375.735 305.6551 375.1151 306.6063 366 315.1333 C360.2773 320.4868 352.0178 324.0933 352 324.1333 C351.9948 324.145 357.5386 325.1032 362 324.1333 C368.2848 322.7671 370.3577 322.8152 375 319.1333 C383.2844 312.5629 383.878 310.6293 391 301.1333 C400.1992 288.8677 405.233 277.0805 408 275.1333 C408.3978 274.8534 413.2548 280.7776 418 282.1333 C425.2307 284.1993 435.6921 282.7135 436 283.1333 C436.1922 283.3955 433.5609 291.3651 429 297.1333 C417.2447 312.0003 402.1656 325.5812 402 326.1333 C401.9804 326.1988 413.6763 329.3466 420 327.1333 C429.7632 323.7162 432.3377 320.0063 442 312.1333 C445.0221 309.6709 445.0607 308.7695 447 305.1333 C448.9259 301.5223 449.5365 300.9958 450 297.1333 C450.9425 289.279 450 280.1333 450 280.1333 "/>
</g>
</g>
</svg>
