<?xml version="1.0" encoding="utf-8"?>
<!DOCTYPE svg PUBLIC "-//W3C//DTD SVG 1.1//EN" "http://www.w3.org/Graphics/SVG/1.1/DTD/svg11.dtd">
<svg viewBox="0 0 800 800" preserveAspectRatio="xMinYMin meet" xmlns="http://www.w3.org/2000/svg" version="1.1">
<g fill="none" stroke="black" stroke-linecap="round" stroke-linejoin="round" stroke-width="2.1457">
<g transform="translate(87.52,145.542) scale(1.3981) translate(-133,-22.1333)">
<path id="0" d="M268 217.1333 C268 217.1333 265.5252 224.1045 262 228.1333 C259.3968 231.1084 258.1681 231.0182 254 233.1333 C224.8411 247.9304 223.9557 246.9316 195 262.1333 C184.1453 267.8321 183.5305 267.6996 174 275.1333 C158.9178 286.8975 157.5578 287.3504 145 301.1333 C137.8294 309.0034 132.9387 319.5201 133 320.1333 C133.0083 320.216 141.24 322.241 147 321.1333 C152.4872 320.0781 159 315.0913 159 315.1333 C159 315.3293 147.0003 343.1328 147 343.1333 C147 343.1334 146.9628 340.2177 148 339.1333 C156.1796 330.5819 168.3679 320.5069 169 320.1333 C169.0499 320.1038 169.9971 326.1338 170 326.1333 C171.8613 325.8355 191.1596 315.7546 194 316.1333 C194.9858 316.2648 199.6414 329.8106 200 330.1333 C200.0096 330.142 201.6579 326.8899 204 325.1333 C211.1019 319.8069 212.8283 318.7192 220 315.1333 C221.366 314.4503 223.7275 314.744 224 315.1333 C225.1776 316.8156 226.9658 325.1454 227 325.1333 C230.4417 323.9144 270.5767 298.671 272 298.1333 C272.0974 298.0965 273.3769 304.0027 272 308.1333 C266.9515 323.2789 261.668 335.3489 258 340.1333 C257.5794 340.6819 252.7348 340.0007 249 338.1333 C241.5304 334.3985 240.872 330.8821 234 328.1333 C230.3832 326.6866 225.56 326.8486 224 328.1333 C221.1094 330.5139 221.267 337.4172 217 342.1333 C213.2526 346.2751 211.1501 346.8969 205 349.1333 C195.352 352.6417 193.9074 353.2841 184 354.1333 C177.6064 354.6814 171.4482 351.4092 170 352.1333 C169.2202 352.5232 169.0689 361.7122 168 362.1333 C162.2082 364.415 137.8752 364.5245 137 365.1333 C136.9724 365.1525 143.4409 377.9916 145 378.1333 C149.0907 378.5052 165.4009 368.2817 170 368.1333 C171.037 368.0999 172.4399 374.4632 176 377.1333 C182.9109 382.3165 185.5141 384.8813 194 386.1333 C212.8791 388.9188 219.0657 391.3506 237 386.1333 C268.8267 376.8747 270.0136 367.2264 304 354.1333 C330.0394 344.1018 334.4442 349.5766 359 339.1333 C375.5453 332.0968 376.098 329.2161 391 317.1333 C412.7712 299.481 416.2107 299.3374 433 279.1333 C443.8534 266.0725 443.1795 262.0478 450 246.1333 C451.5963 242.4087 451 237.1333 451 237.1333 "/>
<path id="1" d="M269 217.1333 C269 217.1333 284.6466 201.2136 302 192.1333 C325.8998 179.6276 328.1577 179.5895 355 172.1333 C390.3737 162.3073 391.6639 161.885 428 157.1333 C455.7564 153.5036 458.7985 157.8305 485 155.1333 C490.274 154.5904 491.0093 153.231 496 150.1333 C505.2249 144.4075 506.224 144.438 514 137.1333 C522.2128 129.4183 523.7957 128.9446 529 119.1333 C553.3406 73.2453 574.7511 22.4554 575 22.1333 C575.051 22.0674 578.7558 37.8917 580 53.1333 C580.7098 61.8287 580.6449 62.6737 579 71.1333 C577.2672 80.045 573.4026 80.6777 573 89.1333 C572.0123 109.8761 578.6559 115.0112 576 134.1333 C574.284 146.4883 567.4597 148.4404 563 161.1333 C561.5873 165.1542 562.0286 166.5537 563 171.1333 C565.3786 182.3465 568.1805 182.7616 570 194.1333 C572.0488 206.9383 569.528 207.8853 571 221.1333 C572.4961 234.5985 576.7294 246.343 576 248.1333 C575.8095 248.6008 566.7555 249.8222 560 248.1333 C552.4001 246.2333 551.8324 242.7441 544 240.1333 C539.2446 238.5482 537.9113 238.4057 533 239.1333 C525.4236 240.2558 524.0745 240.5961 517 244.1333 C508.7783 248.2442 508.8145 252.0549 501 255.1333 C494.1638 257.8264 492.0135 257.3918 484 257.1333 C477.3298 256.9182 474.9144 256.8139 470 254.1333 C465.9427 251.9203 466.2046 248.497 462 245.1333 C459.3998 243.0531 455 242.1333 455 242.1333 "/>
<path id="2" d="M354 173.1333 C354 173.1333 345.9432 163.565 337 160.1333 C305.8147 148.1669 302.36 148.116 268 140.1333 C253.6782 136.8061 245.5581 136.6753 238 137.1333 C237.1628 137.1841 234.7585 141.61 235 142.1333 C235.8119 143.8925 240.723 145.8481 244 150.1333 C246.6553 153.6056 245.0631 156.483 248 159.1333 C263.0863 172.7478 270.2272 173.0476 285 187.1333 C289.2663 191.2012 291 200.1333 291 200.1333 "/>
<path id="3" d="M280 236.1333 C280 236.1333 273.4201 237.4292 272 239.1333 C270.433 241.0138 269.9668 248.1186 270 248.1333 C270.1455 248.198 276.0252 245.8121 281 243.1333 C282.1179 242.5314 283 241.491 283 241.1333 C283 240.5968 281 238.1333 281 238.1333 "/>
<path id="4" d="M338 272.1333 C338 272.1333 347.7734 280.7292 356 284.1333 C359.9404 285.7638 366.1799 285.2889 367 284.1333 C371.0767 278.3889 376.0893 254.5169 378 253.1333 C378.6146 252.6883 392.983 262.8819 396 263.1333 C396.8544 263.2045 400.0476 259.2551 402 255.1333 C404.2367 250.4113 403.7465 244.9168 405 244.1333 C406.5708 243.1516 412.4996 245.7123 418 245.1333 C420.6941 244.8497 422.8753 244.0453 424 242.1333 C430.7582 230.6444 438 211.1333 438 211.1333 "/>
<path id="5" d="M135 320.1333 C135 320.1333 141.7591 315.7334 148 315.1333 C166.055 313.3973 167.6496 314.2669 187 315.1333 C200.9592 315.7584 202.7022 320.2536 215 318.1333 C242.7896 313.342 274 300.1333 274 300.1333 "/>
<path id="6" d="M165 374.1333 C165 374.1333 177.8205 376.1168 189 374.1333 C207.61 370.8316 208.5999 369.3894 227 363.1333 C233.1892 361.029 234.0707 360.9672 239 357.1333 C246.8868 350.9991 248.7534 350.4007 254 342.1333 C264.3615 325.8062 272 305.1333 272 305.1333 "/>
<path id="7" d="M550 155.1333 L565 148.1333 "/>
<path id="8" d="M546 187.1333 L574 183.1333 "/>
</g>
</g>
</svg>
