<?xml version="1.0" encoding="utf-8"?>
<!DOCTYPE svg PUBLIC "-//W3C//DTD SVG 1.1//EN" "http://www.w3.org/Graphics/SVG/1.1/DTD/svg11.dtd">
<svg viewBox="0 0 800 800" preserveAspectRatio="xMinYMin meet" xmlns="http://www.w3.org/2000/svg" version="1.1">
<g fill="none" stroke="black" stroke-linecap="round" stroke-linejoin="round" stroke-width="1.7377">
<g transform="translate(87.52,182.4725) scale(1.7264) translate(-63,-45.1333)">
<path id="0" d="M295 140.1333 C295 140.1333 298.9614 147.5746 304 152.1333 C308.652 156.3422 310.0256 157.0653 316 159.1333 C322.0859 161.24 323.7295 159.3418 330 161.1333 C333.5041 162.1345 333.8136 164.8437 337 165.1333 C353.0105 166.5888 357.9409 167.1407 374 165.1333 C379.0998 164.4959 385 159.1333 385 159.1333 "/>
<path id="1" d="M290 215.1333 C290 215.1333 295.3875 216.2828 299 215.1333 C305.112 213.1886 305.4552 210.2446 312 208.1333 C320.136 205.5088 321.1576 205.2453 330 205.1333 C359.8903 204.755 369.5602 201.3102 391 207.1333 C399.8598 209.5397 403.1161 216.4519 411 227.1333 C417.8309 236.3881 421.9948 249.1558 422 249.1333 C422.0174 249.0584 419.8592 215.6944 421 184.1333 C421.3186 175.3182 424.4782 175.0045 425 166.1333 C426.4308 141.8093 426.0717 140.7817 425 116.1333 C424.59 106.7026 422.0945 97.2383 422 97.1333 C421.9843 97.1159 417.6981 101.4164 416 106.1333 C409.1041 125.2885 412.1912 134.1238 404 147.1333 C399.4702 154.3278 382 160.1333 382 160.1333 "/>
<path id="2" d="M292 217.1333 C292 217.1333 282.406 225.6921 273 229.1333 C263.7117 232.5315 261.9032 231.8737 251 232.1333 C220.3839 232.8623 217.5645 234.5339 189 231.1333 C178.3909 229.8703 167 222.1333 167 222.1333 "/>
<path id="3" d="M304 151.1333 C304 151.1333 289.8393 133.7747 274 124.1333 C257.5823 114.1399 254.2857 113.266 235 109.1333 C214.148 104.665 212.4743 107.0205 190 106.1333 C174.5584 105.5238 174.2056 105.183 159 106.1333 C150.5695 106.6602 142 109.1333 142 109.1333 "/>
<path id="4" d="M174 226.1333 C174 226.1333 168.2857 222.5323 163 222.1333 C143.3572 220.6509 136.0642 224.0164 121 222.1333 C118.579 221.8307 115 216.1333 115 216.1333 "/>
<path id="5" d="M144 107.1333 L142 107.1333 "/>
<path id="6" d="M146 108.1333 C146 108.1333 129.8536 109.8894 115 114.1333 C102.3517 117.7471 101.5717 117.9932 90 124.1333 C77.5945 130.7159 75.2044 132.2926 66 140.1333 C63.8076 142.0009 63.1593 144.1063 63 147.1333 C62.7353 152.1635 63.7017 158.2451 65 159.1333 C67.2485 160.6718 74.3254 158.7986 82 160.1333 C84.9144 160.6402 85.2874 163.0042 88 163.1333 C103.8759 163.8893 106.8996 163.9146 124 162.1333 C129.881 161.5207 136 158.1333 136 158.1333 "/>
<path id="7" d="M75 159.1333 C75 159.1333 77.7898 172.389 82 181.1333 C83.3092 183.8524 86.1193 183.3122 88 186.1333 C91.5525 191.462 90.6784 195.0452 94 199.1333 C95.6143 201.1202 98.917 200.2586 101 202.1333 C102.8039 203.7568 101.9378 205.9774 104 208.1333 C112.1779 216.683 114.7098 220.5871 123 225.1333 C126.5125 227.0595 133.65 225.5833 135 225.1333 C135.15 225.0833 134.6178 221.7703 135 221.1333 C135.2675 220.6875 138 220.1333 138 220.1333 "/>
<path id="8" d="M158 223.1333 C158 223.1333 156.6809 237.24 158 247.1333 C158.3591 249.8265 161.2084 250.3627 162 253.1333 C162.8866 256.2364 160.8426 258.2399 162 261.1333 C164.199 266.6309 165.2986 268.4319 170 273.1333 C176.1118 279.2451 177.0948 280.1807 185 284.1333 C198.3038 290.7852 199.474 290.0296 214 295.1333 C217.8465 296.4848 219.2022 297.1333 222 297.1333 C223.0492 297.1333 224.7281 295.9491 225 295.1333 C225.6345 293.2299 226.2747 289.9745 225 288.1333 C215.7692 274.8 206.8245 271.4292 198 256.1333 C193.9694 249.1469 195 236.1333 195 236.1333 "/>
<path id="9" d="M173 107.1333 C173 107.1333 174.1324 96.3235 178 88.1333 C182.104 79.4426 183.3646 78.7896 190 71.1333 C196.0865 64.1104 196.4332 63.1779 204 58.1333 C215.2389 50.6407 217.7025 50.5729 229 45.1333 C229.7228 44.7853 230.9655 45.0471 231 45.1333 C231.2155 45.6721 231.5979 47.8913 231 50.1333 C223.9131 76.709 215 105.1333 215 105.1333 "/>
<path id="10" d="M126 130.1333 C126 130.1333 128.4735 126.3124 131 125.1333 C134.7668 123.3755 141 123.1333 141 123.1333 "/>
<path id="11" d="M136 133.1333 L136 130.1333 "/>
<path id="12" d="M331 205.1333 C331 205.1333 333.6364 211.01 337 214.1333 C339.7445 216.6818 341.8774 215.5312 345 218.1333 C350.2808 222.534 354.9995 229.1338 355 229.1333 C355.0841 229.0577 355 209.1333 355 209.1333 "/>
<path id="13" d="M373 159.1333 C373 159.1333 373.8275 150.2518 377 144.1333 C380.1932 137.9751 385.2595 132.7135 387 132.1333 C387.7459 131.8847 393.8356 135.4164 395 138.1333 C396.9054 142.5793 396 153.1333 396 153.1333 "/>
<path id="14" d="M374 156.1333 L373 163.1333 "/>
</g>
</g>
</svg>
