<?xml version="1.0" encoding="utf-8"?>
<!DOCTYPE svg PUBLIC "-//W3C//DTD SVG 1.1//EN" "http://www.w3.org/Graphics/SVG/1.1/DTD/svg11.dtd">
<svg viewBox="0 0 800 800" preserveAspectRatio="xMinYMin meet" xmlns="http://www.w3.org/2000/svg" version="1.1">
<g fill="none" stroke="black" stroke-linecap="round" stroke-linejoin="round" stroke-width="1.8481">
<g transform="translate(87.52,212.512) scale(1.6233) translate(-112,-80)">
<path id="0" d="M147 189 C147 189 130.6536 172.3501 120 155 C114.1208 145.4252 114.0813 143.1868 112 132 C110.3002 122.8636 110.0148 120.6024 112 112 C114.0921 102.9344 115.4619 99.4611 121 93 C125.5312 87.7137 128.3422 87.8289 136 84 C141.1052 81.4474 141.8696 80.228 147 80 C162.5646 79.3082 165.1401 78.9921 181 82 C192.8592 84.2492 194.1896 85.3245 205 91 C213.3924 95.406 215.5273 95.9431 221 103 C233.1214 118.6302 235.2446 120.7665 243 140 C259.618 181.2127 256.3309 184.2872 271 227 C273.1348 233.216 273.4985 233.3727 277 239 C287.3906 255.6992 286.8821 257.7615 299 272 C305.869 280.071 307.6019 281.9943 317 286 C335.8669 294.0416 338.8942 295.4673 360 298 C387.0709 301.2485 391.0031 302.9518 417 298 C450.5549 291.6086 486 274 486 274 "/>
<path id="1" d="M147 189 C147 189 156.7025 206.817 168 223 C175.0046 233.0336 175.5597 233.0321 184 242 C191.4491 249.9146 191.3758 250.5684 200 257 C220.5012 272.289 220.7068 275.1912 243 286 C268.478 298.3529 271.1792 296.6538 299 305 C305.5832 306.975 306.05 306.8284 313 307 C346.1439 307.8184 351.9742 308.5357 380 307 C382.6015 306.8575 386 303 386 303 "/>
<path id="2" d="M142 181 C142 181 136.8258 177.6151 136 175 C134.6402 170.6938 134.3887 167.192 136 162 C138.3293 154.4943 139.8633 151.6504 145 146 C148.3987 142.2614 150.8184 141.4805 156 140 C160.0754 138.8356 161.5503 138.9731 166 140 C173.7357 141.7852 174.952 141.9725 182 146 C191.7947 151.597 193.2386 152.9442 201 160 C203.0682 161.8802 204 166 204 166 "/>
<path id="3" d="M135 175 C135 175 129.79 167.1602 128 160 C126.6107 154.4428 126.7912 152.8426 128 147 C129.6032 139.2512 130.6466 136.3095 134 131 C135.1505 129.1784 137.2113 128.2461 140 128 C152.464 126.9002 154.9881 126.451 168 128 C174.7825 128.8074 175.7957 129.763 182 133 C186.7263 135.4659 188.3084 135.9625 191 140 C197.2805 149.4207 202 163 202 163 "/>
<path id="4" d="M143 130 L145 131 "/>
<path id="5" d="M171 95 L174 95 "/>
<path id="6" d="M134 137 L136 138 "/>
<path id="7" d="M128 152 L130 152 "/>
<path id="8" d="M129 145 L131 145 "/>
<path id="9" d="M137 133 L138 134 "/>
<path id="10" d="M149 132 L150 136 "/>
<path id="11" d="M156 129 L158 135 "/>
<path id="12" d="M162 131 L165 133 "/>
<path id="13" d="M169 131 L170 136 "/>
<path id="14" d="M177 135 L179 138 "/>
<path id="15" d="M182 136 L184 142 "/>
<path id="16" d="M188 143 L189 146 "/>
<path id="17" d="M129 165 L131 168 "/>
<path id="18" d="M132 160 L134 162 "/>
<path id="19" d="M136 151 L137 154 "/>
<path id="20" d="M138 145 L139 146 "/>
<path id="21" d="M142 142 L142 143 "/>
<path id="22" d="M253 168 C253 168 264.4737 162.2369 266 163 C268.8345 164.4173 272.7142 171.7856 277 180 C278.2292 182.3559 278.2875 185.7125 278 186 C277.4824 186.5176 270.346 186.2452 270 187 C268.1929 190.9427 267 210 267 210 "/>
<path id="23" d="M304 273 C304 273 308.1098 273.8501 311 273 C315.7361 271.607 320.9224 267.9083 321 268 C321.4225 268.4993 322 286 322 286 "/>
<path id="24" d="M390 299 C390 299 395.7191 286.2598 397 274 C399.0907 253.989 396.7089 234.9838 397 232 C397.0042 231.9567 399.9551 232.0858 401 233 C402.9825 234.7347 403.6283 235.845 405 239 C408.4756 246.9939 409.8743 247.7451 411 256 C412.7057 268.5087 411 283 411 283 C411 283 410.1675 278.9981 411 277 C412.1216 274.3082 413.2232 272.4398 416 271 C424.9518 266.3583 427.3548 264.2711 438 263 C458.8682 260.5083 483 263 483 263 "/>
<path id="25" d="M200 258 C200 258 200.5485 271.4427 203 283 C203.8462 286.989 204.39 287.6781 207 291 C214.9974 301.1786 224.9666 310.9881 225 311 C225.0124 311.0044 221.7369 303.3685 221 296 C219.8038 284.0381 221 271 221 271 "/>
<path id="26" d="M482 264 C482 264 496.8626 264.8454 497 265 C497.017 265.0192 493.833 270.2317 490 273 C485.617 276.1655 479 278 479 278 "/>
</g>
</g>
</svg>
