<?xml version="1.0" encoding="utf-8"?>
<!DOCTYPE svg PUBLIC "-//W3C//DTD SVG 1.1//EN" "http://www.w3.org/Graphics/SVG/1.1/DTD/svg11.dtd">
<svg viewBox="0 0 800 800" preserveAspectRatio="xMinYMin meet" xmlns="http://www.w3.org/2000/svg" version="1.1">
<g fill="none" stroke="black" stroke-linecap="round" stroke-linejoin="round" stroke-width="2.7122">
<g transform="translate(87.52,277.2202) scale(1.1061) translate(-46,-85)">
<path id="0" d="M47 184 C47 184 65.3296 173.7669 84 169 C111.1153 162.0769 112.7335 165.4075 141 160 C170.1162 154.4299 170.3204 149.2944 199 147 C255.8734 142.4501 257.631 144.9191 316 146 C365.4431 146.9156 369.2241 142.523 415 151 C445.981 156.7372 447.197 162.4602 478 176 C492.4019 182.3305 492.4444 184.8032 506 191 C508.9 192.3257 513 192 513 192 "/>
<path id="1" d="M270 241 C270 241 352.8731 244.7679 432 241 C455.6776 239.8725 457.8744 238.5551 480 231 C497.2765 225.1007 514 213 514 213 "/>
<path id="2" d="M244 211 C244 211 250.0781 224.7139 259 234 C273.4678 249.0583 275.2072 249.9637 293 262 C308.5193 272.4983 310.1994 273.5852 327 280 C336.1028 283.4756 347.9997 282.9999 348 283 C348.0001 283 343.8262 282.0579 341 283 C334.4055 285.1982 333.5611 289.3825 327 290 C295.1791 292.9949 287.652 295.0341 256 291 C241.3584 289.1339 238.4799 285.6475 225 277 C213.2568 269.4666 203 257 203 257 "/>
<path id="3" d="M203 257 C203 257 195.0894 251.1788 192 245 C188.0279 237.0558 186.2254 225.6945 187 225 C189.359 222.8851 221 219 221 219 "/>
<path id="4" d="M189 236 C189 236 159.8652 237.8152 133 236 C124.2027 235.4056 123.3383 234.2757 115 231 C109.8389 228.9724 105 225 105 225 "/>
<path id="5" d="M105 225 L147 201 "/>
<path id="6" d="M48 185 C48 185 74.9767 189.0217 101 195 C111.6395 197.4442 111.5284 199.8581 122 202 C132.9278 204.2352 145 204 145 204 "/>
<path id="7" d="M46 186 C46 186 47.8339 195.1676 49 197 C49.2299 197.3613 52.4482 197.5518 53 197 C54.9312 195.0688 58 188 58 188 "/>
<path id="8" d="M58 189 C58 189 59.9972 199.9993 60 200 C60.0003 200.0001 62 190 62 190 "/>
<path id="9" d="M64 190 C64 190 69.6329 199.8999 70 200 C70.13 200.0355 75 193 75 193 "/>
<path id="10" d="M75 193 C75 193 80.7053 201.0246 81 201 C81.373 200.9689 87 192 87 192 "/>
<path id="11" d="M87 192 C87 192 90.8775 200.9694 91 201 C91.0441 201.011 95 194 95 194 "/>
<path id="12" d="M95 194 C95 194 102.04 204.5569 103 205 C103.1976 205.0912 108 200 108 200 "/>
<path id="13" d="M108 200 C108 200 112.4629 206.8926 113 207 C113.3357 207.0671 118 202 118 202 "/>
<path id="14" d="M118 202 C118 202 120.6033 207.83 121 208 C121.1933 208.0828 125 205 125 205 "/>
<path id="15" d="M105 225 C105 225 104.4406 216.5035 105 216 C105.6906 215.3785 114.375 216.625 115 216 C115.625 215.375 114.4231 206.3846 115 206 C116.2981 205.1346 130 206 130 206 "/>
<path id="16" d="M227 146 C227 146 229.4528 133.629 235 125 C242.0477 114.0369 243.6185 112.0745 254 104 C264.8386 95.57 266.9296 94.5152 280 90 C293.0241 85.5007 294.6851 87.3089 309 85 C309.9605 84.8451 311 85 311 85 C311 86.29 309 92.1194 309 99 C309 121.6077 311 145 311 145 "/>
<path id="17" d="M207 160 C207 160 214.2172 173.9208 217 187 C218.9108 195.9806 217 207 217 207 "/>
<path id="18" d="M217 160 C217 160 229.5969 170.3133 234 180 C238.0277 188.861 237 204 237 204 "/>
<path id="19" d="M231 162 C231 162 234.6839 161.8225 236 163 C242.3218 168.6564 246.8843 171.4055 250 179 C253.4133 187.3199 252 202 252 202 "/>
<path id="20" d="M247 160 C247 160 251.1635 161.5985 253 164 C256.9245 169.132 258.5233 170.7239 260 177 C262.141 186.0991 261 198 261 198 "/>
<path id="21" d="M409 150 C409 150 413.7661 140.7326 420 134 C425.7048 127.8388 426.8468 128.2023 434 123 C437.7835 120.2483 438.7266 118.491 442 118 C446.377 117.3435 448.5883 117.9473 454 120 C476.7289 128.6213 495.2979 136.4448 500 140 C500.2552 140.1929 498.1004 146.3493 495 151 C492.4764 154.7854 490.3087 154.1522 488 158 C483.3002 165.8329 480 176 480 176 "/>
<path id="22" d="M354 245 C354 245 358.8336 243.7965 361 245 C369.7686 249.8715 372.2135 251.746 381 260 C388.2245 266.7866 389.0769 268.123 394 276 C395.8876 279.0202 395.8091 283.9881 396 284 C397.0355 284.0647 402.9297 279.0467 410 277 C421.0988 273.7872 432.9683 274.089 434 273 C434.3595 272.6206 431.9257 264.4658 428 258 C423.8563 251.175 417 245 417 245 "/>
<path id="23" d="M440 241 C440 241 453.3412 242.5608 460 247 C465.364 250.576 466.7353 254.7972 470 261 C470.8474 262.61 469.9628 266.0124 470 266 C470.409 265.8637 477.2223 259.5735 485 256 C495.0091 251.4012 506.9339 249.4624 507 249 C507.12 248.1598 489 228 489 228 "/>
<path id="24" d="M514 191 C514 191 511.6626 179.5703 514 171 C518.5685 154.2489 520.1164 151.9905 529 136 C534.6035 125.9137 535.7615 125.2385 544 117 C551.2693 109.7307 552.076 109.4415 561 104 C572.2118 97.1635 572.8748 96.9744 585 92 C591.9763 89.1379 600 88 600 88 "/>
<path id="25" d="M515 215 C515 215 519.6716 229.0795 526 242 C531.5428 253.3166 531.7951 253.7469 539 264 C544.585 271.9479 544.6831 272.9556 552 279 C566.9847 291.3786 568.523 292.3287 585 302 C590.4384 305.1921 591.6405 305.0216 598 306 C604.072 306.9342 611 306 611 306 "/>
<path id="26" d="M611 307 C611 307 606.0806 304.0048 603 300 C591.5422 285.1048 590.0128 284.6391 581 268 C570.9012 249.356 570.168 248.1131 564 228 C558.9743 211.6118 559.2262 210.3715 558 193 C556.2692 168.4803 557.1573 167.0178 558 143 C558.1192 139.6038 558.1343 138.5482 560 136 C577.0941 112.6519 599 87 599 87 "/>
<path id="27" d="M119 165 C119 165 116.2522 166.739 116 168 C115.1594 172.2032 114.9715 175.8858 116 180 C116.4286 181.7142 118.2625 183.6659 120 184 C128.0851 185.5548 133.9089 186.1559 142 185 C144.4855 184.6449 147.3342 182.1083 148 180 C149.3519 175.7191 149.1189 171.3146 148 166 C147.5331 163.7823 144 161 144 161 "/>
<path id="28" d="M127 166 C127 166 124.3572 173.5896 125 176 C125.4481 177.6805 128.7804 180.5838 131 181 C134.0795 181.5774 139.927 180.073 141 179 C141.7153 178.2847 142.0236 173.2178 141 171 C140.0059 168.8462 137.6796 167.218 135 166 C133.3805 165.2639 130.2504 165.6066 130 166 C129.0343 167.5175 127.6796 176.2952 128 177 C128.101 177.2222 134.4956 177.4324 135 177 C135.3706 176.6824 135.375 171.375 135 171 C134.625 170.625 129.1079 170.8382 129 171 C128.8741 171.1888 130.4503 176.7801 131 177 C131.8994 177.3598 137.9343 175.9325 139 175 C139.4782 174.5816 139.676 171.5209 139 170 C138.2189 168.2425 135.0042 165.9929 135 166 C134.9778 166.0371 136 175 136 175 "/>
</g>
</g>
</svg>
