<?xml version="1.0" encoding="utf-8"?>
<!DOCTYPE svg PUBLIC "-//W3C//DTD SVG 1.1//EN" "http://www.w3.org/Graphics/SVG/1.1/DTD/svg11.dtd">
<svg viewBox="0 0 800 800" preserveAspectRatio="xMinYMin meet" xmlns="http://www.w3.org/2000/svg" version="1.1">
<g fill="none" stroke="black" stroke-linecap="round" stroke-linejoin="round" stroke-width="2.6738">
<g transform="translate(87.52,235.6254) scale(1.122) translate(-1,-75)">
<path id="0" d="M131 278 C131 278 144.7966 280.9915 155 285 C157.1251 285.8349 156.8019 287.9794 159 289 C169.5751 293.9099 170.8057 294.3869 183 298 C211.0977 306.3253 211.4474 306.5417 240 313 C253.1928 315.9841 253.5877 316.4635 267 317 C303.0493 318.442 303.6535 318.0004 340 317 C357.9654 316.5055 358.6915 317.2144 376 314 C392.9771 310.8471 394.0667 310.7482 410 304 C435.8414 293.0554 460.9579 278.0363 461 278 C461.0131 277.9887 439.052 279.0331 439 279 C438.9856 278.9908 445.147 271.4952 450 271 C485.8149 267.3454 493.9359 271.0313 537 269 C546.4646 268.5536 546.9934 267.7155 556 266 C557.008 265.808 558 265 558 265 C557.5961 264.1922 555.1476 259.2795 551 256 C534.6144 243.044 533.2803 241.6358 515 231 C506.6555 226.145 504.1093 228.2168 496 224 C492.7333 222.3013 493.3711 219.9384 490 218 C474.3842 209.0209 473.3375 208.3625 456 201 C437.0952 192.9719 436.6136 193.5379 417 187 C405.1719 183.0573 404.9891 181.6165 393 180 C361.4342 175.7439 360.4499 175.9716 328 175 C277.1957 173.4789 274.351 170.635 226 175 C205.5344 176.8476 204.021 180.1793 184 188 C172.6505 192.4334 172.9245 195.2205 162 200 C157.6402 201.9074 156.2108 199.9376 152 202 C132.9105 211.35 132.9933 215.9128 113 224 C89.7659 233.3981 88.018 232.8239 63 238 C45.109 241.7016 26 242 26 242 "/>
<path id="1" d="M459 279 L459 274 "/>
<path id="2" d="M452 274 L450 277 "/>
<path id="3" d="M495 233 C495 233 494.8642 235.9418 495 236 C495.7392 236.3168 501.4206 236.4139 502 236 C502.2956 235.7889 502.3125 231.3125 502 231 C501.6875 230.6875 498.5968 230.4012 497 231 C495.6826 231.494 494 234 494 234 "/>
<path id="4" d="M428 260 C428 260 425.4371 264.6293 425 269 C424.0131 278.8694 423.7405 280.5534 425 290 C425.5718 294.2884 429 299 429 299 "/>
<path id="5" d="M419 259 C419 259 417.1086 271.7091 418 283 C418.5335 289.7572 422 297 422 297 "/>
<path id="6" d="M414 259 C414 259 410.3721 262.3025 410 265 C408.6939 274.4695 408.5614 277.3546 410 288 C410.9179 294.7925 415 302 415 302 "/>
<path id="7" d="M251 174 C251 174 256.0298 167.2644 262 163 C269.4175 157.7018 271.1728 159.2748 279 154 C293.8723 143.9773 294.1331 143.4994 308 132 C314.4431 126.657 315.6299 125.9308 320 120 C321.7767 117.5887 320.2214 115.7103 322 113 C330.0171 100.7835 332.5923 100.7796 341 88 C344.7997 82.2245 346.9953 74.9866 347 75 C347.0144 75.0411 345.5262 92.2577 348 108 C350.8777 126.3129 351.0451 128.3083 358 145 C362.9416 156.8599 365.066 157.1809 373 168 C375.8313 171.8609 376.9876 173.2428 380 175 C381.359 175.7927 383.1406 174.2849 385 175 C388.6902 176.4193 393 180 393 180 "/>
<path id="8" d="M403 257 C403 257 399.8899 262.6609 399 268 C398.0085 273.9493 398.7193 274.5444 399 281 C399.2168 285.9874 399.9426 290.8471 400 291 C400.0069 291.0184 401.9884 288.971 402 289 C402.1799 289.4496 405.8494 304.7197 406 306 C406.002 306.0172 404 306 404 306 C404 306 406 306 406 306 "/>
<path id="9" d="M389 313 C389 313 386.073 313.0246 385 314 C381.6818 317.0165 381.8154 319.9 378 323 C374.7344 325.6533 372.4723 324.3447 369 327 C364.7147 330.277 365.4196 332.9255 361 336 C354.8422 340.2837 345.9977 342.9981 346 343 C346.0048 343.004 356.9301 343.0597 367 341 C378.4916 338.6494 378.91 338.1191 390 334 C396.1639 331.7106 396.8724 331.7471 402 328 C409.3543 322.6257 410.9503 321.9733 416 315 C420.5981 308.6502 423 299 423 299 "/>
<path id="10" d="M231 314 C231 314 233.2967 325.1098 233 326 C232.9476 326.1571 227.0015 325.9954 227 326 C226.999 326.003 230.0409 328.8694 232 329 C235.7173 329.2478 237.8414 328.8714 242 327 C247.017 324.7423 252 320 252 320 "/>
<path id="11" d="M141 280 C141 280 139.8087 294.8907 140 295 C140.2779 295.1588 155 288 155 288 "/>
<path id="12" d="M130 279 C130 279 127.846 276.3356 126 276 C118.6159 274.6574 116.425 273.997 108 275 C96.3553 276.3863 95.0926 277.1869 84 281 C79.8635 282.4219 78.4136 282.8055 76 286 C62.9656 303.2515 61.7691 305.8786 50 326 C46.6052 331.804 47.8962 334.3661 45 339 C43.8999 340.7602 41.4758 340.0546 40 342 C31.5496 353.1392 23 368 23 368 "/>
<path id="13" d="M22 243 C22 243 1.6407 230.1831 1 230 C0.94815 229.9852 0.025623 234.1987 1 237 C3.6145 244.5166 3.9482 247.9482 9 253 C15.3147 259.3147 19.6411 257.6079 28 264 C36.0719 270.1726 35.087 272.5524 43 279 C48.1462 283.1932 55 285.5137 55 286 C55 286.8337 47.5492 291.5012 43 298 C37.5811 305.7413 37.2728 306.7952 34 316 C29.4476 328.8037 29.1454 329.5911 27 343 C25.233 354.0437 26 366 26 366 "/>
<path id="14" d="M27 244 L23 244 "/>
</g>
</g>
</svg>
