<?xml version="1.0" encoding="utf-8"?>
<!DOCTYPE svg PUBLIC "-//W3C//DTD SVG 1.1//EN" "http://www.w3.org/Graphics/SVG/1.1/DTD/svg11.dtd">
<svg viewBox="0 0 800 800" preserveAspectRatio="xMinYMin meet" xmlns="http://www.w3.org/2000/svg" version="1.1">
<g fill="none" stroke="black" stroke-linecap="round" stroke-linejoin="round" stroke-width="2.2705">
<g transform="translate(87.52,177.3663) scale(1.3213) translate(-12,-8.1333)">
<path id="0" d="M108 185.1333 C108 185.1333 149.6685 183.6941 187 184.1333 C189.8468 184.1668 190.1246 186.0755 193 186.1333 C284.897 187.9805 289.9722 188.5564 386 188.1333 C402.9242 188.0588 403.3277 187.4675 420 185.1333 C428.0213 184.0103 428.0271 183.2315 436 181.1333 C456.5229 175.7326 459.7776 176.5917 477 170.1333 C480.6735 168.7558 483.9959 163.0604 484 163.1333 C484.0926 164.8004 485.7854 253.2646 485 314.1333 C484.979 315.7615 483.0712 317.9191 482 318.1333 C478.6735 318.7986 470 317.1333 470 317.1333 "/>
<path id="1" d="M110 186.1333 C110 186.1333 103.8556 187.1889 99 186.1333 C93.2232 184.8775 92.7785 182.289 87 181.1333 C81.2215 179.9776 80.056 182.2489 74 181.1333 C61.7532 178.8773 57.4068 180.3706 49 174.1333 C30.6416 160.5126 12.1059 135.0732 12 135.1333 C11.7573 135.2711 9.5077 167.3622 12 195.1333 C12.7738 203.7554 17.0371 204.4406 19 213.1333 C20.3032 218.9046 18.147 220.1625 19 226.1333 C19.553 230.0046 21.7329 230.3045 22 234.1333 C23.1389 250.4574 20.4459 252.3487 22 269.1333 C22.8642 278.467 25.7966 278.7065 27 288.1333 C28.7236 301.6352 25.8474 305.3701 28 316.1333 C28.6259 319.2631 30.8304 321.7466 34 323.1333 C44.1646 327.5803 47.2689 329.2422 60 330.1333 C95.5645 332.6228 97.5318 328.197 134 330.1333 C153.3767 331.1622 153.5274 334.7955 173 336.1333 C218.5568 339.2632 219.3284 336.133 265 339.1333 C287.4869 340.6106 287.6224 344.3832 310 345.1333 C376.339 347.357 382.6898 349.0384 444 345.1333 C454.8148 344.4445 456.5659 340.3504 467 335.1333 C468.6769 334.2949 469.506 333.4507 470 332.1333 C470.5988 330.5365 469.3557 328.1642 470 327.1333 C470.7893 325.8705 474.3058 325.621 475 324.1333 C476.6835 320.5258 477 312.1333 477 312.1333 "/>
<path id="2" d="M336 185.1333 L336 54.1333 "/>
<path id="3" d="M336 59.1333 C336 59.1333 337.0161 42.7139 336 27.1333 C335.5492 20.2216 335.3813 18.1606 333 13.1333 C331.789 10.5768 329.6448 8.7083 327 8.1333 C320.6558 6.7542 310.0132 7.9693 310 8.1333 C308.323 28.9758 313 182.1333 313 182.1333 "/>
<path id="4" d="M20 212.1333 C20 212.1333 21.6609 214.0276 23 214.1333 C37.8748 215.3077 42.3316 211.6024 58 215.1333 C75.5165 219.0807 75.8327 223.667 94 230.1333 C105.0464 234.0651 105.6966 235.5925 117 236.1333 C207.3757 240.4575 210.3009 236.2562 303 240.1333 C341.4867 241.743 341.5925 244.6668 380 247.1333 C395.8689 248.1524 396.661 249.1516 412 247.1333 C433.7219 244.2752 434.143 240.5196 456 237.1333 C469.0304 235.1145 483 236.1333 483 236.1333 "/>
<path id="5" d="M332 213.1333 C332 213.1333 328.915 219.2535 328 224.1333 C327.6253 226.132 328.5974 229.0424 329 229.1333 C334.7582 230.4336 356.62 232.482 359 231.1333 C359.8877 230.6303 360.4489 219.6676 359 212.1333 C358.3929 208.9763 355.5907 205.3606 354 205.1333 C348.0161 204.2785 331 208.1333 331 208.1333 "/>
<path id="6" d="M279 203.1333 C279 203.1333 273.471 207.5609 272 211.1333 C270.7834 214.0879 271.3152 219.7287 272 220.1333 C275.1371 221.9871 292.9267 224.7466 294 224.1333 C294.4433 223.88 294.5121 214.4842 293 208.1333 C292.4457 205.8053 290.4787 203.6262 289 203.1333 C286.9994 202.4665 281 204.1333 281 204.1333 "/>
<path id="7" d="M224 201.1333 C224 201.1333 223.6331 218.1714 225 219.1333 C227.6709 221.0129 249.3058 221.5669 251 220.1333 C252.3108 219.0242 252.6391 198.5968 251 197.1333 C248.6226 195.0107 223 195.1333 223 195.1333 "/>
<path id="8" d="M190 200.1333 C190 200.1333 188.4513 211.6919 190 215.1333 C190.9344 217.2097 194.775 218.813 199 220.1333 C201.8 221.0083 205.5729 220.7028 206 220.1333 C207.0982 218.669 209.014 212.0204 208 208.1333 C206.8439 203.7015 202.7735 198.4471 200 197.1333 C197.8895 196.1336 189 199.1333 189 199.1333 "/>
<path id="9" d="M308 26.1333 C308 26.1333 290.6245 28.3258 275 33.1333 C265.3244 36.1104 264.7214 36.8477 256 42.1333 C248.6295 46.6003 246.8781 46.6293 242 53.1333 C224.1894 76.8808 223.9111 79.4822 208 106.1333 C204.1834 112.5261 203.9548 113.0249 202 120.1333 C198.5806 132.5675 198.1947 133.1905 197 146.1333 C195.235 165.2541 196 185.1333 196 185.1333 "/>
</g>
</g>
</svg>
