<?xml version="1.0" encoding="utf-8"?>
<!DOCTYPE svg PUBLIC "-//W3C//DTD SVG 1.1//EN" "http://www.w3.org/Graphics/SVG/1.1/DTD/svg11.dtd">
<svg viewBox="0 0 800 800" preserveAspectRatio="xMinYMin meet" xmlns="http://www.w3.org/2000/svg" version="1.1">
<g fill="none" stroke="black" stroke-linecap="round" stroke-linejoin="round" stroke-width="1.6273">
<g transform="translate(126.2343,87.52) scale(1.8435) translate(-83,0)">
<path id="0" d="M161,253C161,253 192.66689798058425,267.6990377733664 223,272C256.75865362594567,276.78667476785796 261.69162511857627,276.9831426987957 295,272C321.75889346882536,267.99670097710486 323.1131856915472,263.39623486593507 350,253C360.2924289161956,249.02026081907104 362.43353046483514,248.35958258740842 370,243C372.50275530778526,241.22721499031874 372.3534612807753,237.2806412260636 374,236C374.8716969690013,235.32201346855456 379,236 379,236"/>
<path id="1" d="M161,254C161,254 161.66348762486578,273.00694142224193 167,288C171.480467707078,300.58798070083816 175.4701078020872,300.2370288858977 182,313C186.31298217769614,321.42991971095153 184.4478871650665,324.77079296272256 189,331C192.3023647188536,335.519025404747 201,339 201,339"/>
<path id="2" d="M380,236C380,236 382.4207031423324,269.0026561182737 379,295C377.9480614724737,302.9947328092002 375.748164045796,305.7129455749107 370,312C361.10759673096566,321.72606607550625 358.856893341527,322.9423253919482 347,330C338.8525725838236,334.84965917629546 337.1388635263903,336.44425829907084 328,337C267.2543714819761,340.69399092339335 199,339 199,339"/>
<path id="3" d="M167,283C167,283 207.4501916960951,287.11217536317673 212,286C212.35174220823362,285.9140185713207 212,272 212,272"/>
<path id="4" d="M171,271C171,271 170.8665491117411,267.05719323782523 171,267C171.5115617383258,266.7807592550032 177.55393155808406,267.55393155808406 178,268C178.22303422095797,268.22303422095797 177.03216991411008,272.9785533905933 177,273C177,273 175,270 175,270"/>
<path id="5" d="M194,275C194,275 194.3480508712035,271.5432909406638 195,271C195.87762382722607,270.26864681064495 199.87419717115247,269.849036605383 200,270C200.2780904637682,270.33370855652185 200.37692307692308,276.3403846153846 200,277C199.87692307692308,277.2153846153846 196.35767345218448,277.3576734521845 196,277C195.46348982172327,276.4634898217233 195,272 195,272"/>
<path id="6" d="M211,287C211,287 286.8273260357284,292.73178872904134 352,290C364.2223003285882,289.48768801017894 371.5358630666821,284.6172406666556 378,280C379.78321018850147,278.72627843678464 380,270 380,270"/>
<path id="7" d="M184,313C184,313 203.10882935602757,317.48942782043315 222,318C294.8200404908335,319.96810920245497 350.63859537572256,318.4996300578035 369,318C369.01359537572256,317.9996300578035 369,314 369,314"/>
<path id="8" d="M182,178C182,178 186.0895343670157,178.27441813794965 188,180C199.86541258832827,190.7171468539739 201.89986423052886,192.54528997639863 213,206C217.90429591101565,211.9446011042614 217.8733866802666,212.76970669811652 221,220C225.73831956659288,230.95736399774603 227.20974403277137,231.81090020482102 229,243C230.99081182517187,255.44257390732423 229.77820495278078,257.9378232318977 229,270C228.88099135728083,271.84463396214704 227,274 227,274"/>
<path id="9" d="M183,178C183,178 186.33728068173394,178.91332469594894 188,178C217.07182762951356,162.03096792181648 253.97447994820402,139.0158977371844 254,139C254.00158921164962,138.99900999930026 249,139.9999528612304 249,140C249,140 253.96011050765892,139.84044203063567 254,140C254.77385615141696,143.09542460566786 253.0269401125684,152.44350637361495 255,164C259.9157263996656,192.79211176946987 263.25860167706463,193.2129387536066 268,222C270.14160577614586,235.00260649802863 270.7443609237082,236.78947353404243 269,249C267.4968804806344,259.52183663555916 266.37014975590915,262.0497504068181 261,271C256.83212257750335,277.94646237082776 248,284 248,284"/>
<path id="10" d="M272,157C272,157 278.37638218489303,161.47047773111626 282,166C283.61997031734193,168.02496289667744 283.5524436455057,168.9789946071637 284,172C287.47514345842603,195.45721834437575 289.03993506070696,196.2383927524977 290,220C291.01333487415746,245.08003813539764 290.33287128454793,248.44891091603662 288,271C287.6622442247961,274.2649724936378 286.4995748878278,275.6670634380274 284,278C279.83931521836263,281.88330579619486 273.3151156468313,284.85676561507665 273,285C272.9798002790493,285.0091816913412 273,283 273,283"/>
<path id="11" d="M276,156C276,156 279.8841049303371,157.05794753483144 282,156C311.62253097528014,141.18873451235993 347.9979677440113,120.00112903110482 348,120C348.0000840209194,119.99995332171143 345,120.99967082451263 345,121C345,121 347.9233798910638,120.79567970950343 348,121C351.03075097569905,129.08200260186413 356.6695291498297,141.27336496437616 360,161C362.9455524020974,178.4467334585771 365.20667541100533,182.57552349298044 361,198C353.0239768197275,227.2454183276658 333,260 333,260"/>
<path id="12" d="M231,272C231,272 235.4241025147244,266.3906267998294 239,265C242.33503392409122,263.7030423628534 244.66628904815116,264.18742919652834 249,265C251.8439978121508,265.5332495897783 254.05750776405003,266.7433436854001 255,268C255.62832815729996,268.8377708764 255,273 255,273"/>
<path id="13" d="M291,272C291,272 292.7094766987064,265.113154126617 296,261C299.9047543175351,256.1190571030811 302.05093218641514,253.53591759731944 307,252C313.4585334967283,249.9956275354981 317.10505700787337,250.4719465176529 325,252C331.21125443287383,253.2021782773304 338,258 338,258"/>
<path id="14" d="M132,103C132,103 139.6418377760414,104.109926261837 146,107C155.64686682255788,111.38493946479903 156.613229108615,111.45831870471969 165,118C181.0680556164171,130.53308338080535 187.61963655719535,133.30247963211417 196,146C200.03281212311606,152.11032139866072 198,157.9029379367265 198,168C198,170.7537441990746 197.29073332590784,173.03195000556911 196,174C193.5674641165583,175.82440191258126 186,177 186,177"/>
<path id="15" d="M136,99C136,99 148.27494767072312,100.66715182787604 158,99C164.20129960217525,97.93692006819853 165.46422917324662,96.90760293653179 171,93C181.8259272482242,85.35816900125351 182.00620830509072,84.19428835931653 192,75C194.2882483646491,72.89481150452283 195.30570002423727,72.25647492122887 196,70C196.8914468824608,67.10279763200243 196,62 196,62"/>
<path id="16" d="M195,62C195,62 201.7018050922503,64.33201891001944 207,68C214.31655487260673,73.06530721949696 215.0972006320356,73.33554910068534 221,80C230.20670814769156,90.39467048932918 235.19203426477003,92.39212944468673 238,103C242.62188156846946,120.46044148088462 239,148 239,148"/>
<path id="17" d="M238,65C238,65 243.49956181064888,64.96839397115222 246,67C257.3006816869375,76.1818038706367 259.30039962576074,78.26238050685801 270,91C279.96303368180974,102.86075438310685 283.3591826990656,104.78732289227798 288,117C291.4452839767594,126.06653678094588 289.3590385494627,129.5107664171941 289,141C288.87922823238415,144.86469656370787 288.69859936938934,146.0274511035686 287,149C285.2483194003172,152.06544104944487 281,155 281,155"/>
<path id="18" d="M240,67C240,67 241.47041054339405,64.50986315220199 243,64C250.3930157069288,61.53566143102374 253.28971550766016,63.42679310770659 261,60C270.0964030527605,55.957154198773125 272.44347791874133,54.25849835029235 279,48C281.8027108279454,45.32468511877936 282.1157884582911,43.42105770854459 283,39C284.46165581384536,31.69172093077322 284,23 284,23"/>
<path id="19" d="M286,25C286,25 291.1158514494501,28.231702898900177 293,32C297.3963466179498,40.79269323589959 295.4008234480902,43.18842335592578 300,53C310.1868505094424,74.73194775347713 316.8403010382263,75.46767012742104 323,96C327.60434411371056,111.34781371236863 324,133 324,133"/>
<path id="20" d="M118,49C118,49 125.24927302754446,64.56782311011918 135,77C144.68134324162688,89.34371263307426 158,100 158,100"/>
<path id="21" d="M120,50C120,50 122.76076929136026,50.05146848005796 124,49C137.26751377437424,37.74271558537943 151.32969424557217,22.417576438606957 153,22C153.11680459821173,21.970798850447067 155.55363441365876,32.77465592219548 160,40C162.69848394205536,44.38503640583998 169,48 169,48"/>
<path id="22" d="M171,49C171,49 161.99691988702045,50.50179673257141 156,54C151.23035674102095,56.78229190107111 150.33723710975727,58.09229836800401 147,63C142.26783309304258,69.95906898081972 139,79 139,79"/>
<path id="23" d="M159,38C159,38 148.59723256852004,37.49552573749852 146,40C139.19624482648456,46.56076391731847 137.4066164514394,55.745998459031995 131,65C130.44290291726614,65.80469578617112 128,66 128,66"/>
<path id="24" d="M128,66L129,66"/>
<path id="25" d="M206,23C206,23 213.50762115766122,29.587574910141015 218,37C223.03632784746526,45.309940948317696 221.2213334611769,48.9725492076131 226,56C228.36978062399902,59.4849715058809 230.62464417144048,60.38802680000439 235,62C239.04669060200103,63.49088601126354 245,63 245,63"/>
<path id="26" d="M206,21C206,21 214.08538948274844,20.79301052203546 220,18C230.97666456354796,12.816575067213468 234.39376608852027,9.952704800288486 242,4C242.95328789128044,3.253948606824002 243,0 243,0"/>
<path id="27" d="M245,2C245,2 252.1910863402953,4.045125322380278 253,6C255.94948235354596,13.127915687736063 257.4543740111662,29.4421462474302 257,31C256.9578989115528,31.144346588961888 249.96669524247943,29.118512168337904 246,30C243.01475512679383,30.66338774960137 242.55509283358577,33.44464688530623 239,35C235.17887981152006,36.671740082459976 232.1074193665433,35.41943547509253 230,37C228.344170497716,38.24187212671301 228.14866239176834,42.65989387627026 227,44C226.69140413355478,44.36002851085277 224,44 224,44"/>
<path id="28" d="M224,44L224,45"/>
<path id="29" d="M254,13C254,13 238.75812903235348,13.627092979065388 232,18C225.84049311969647,21.985563275490523 220,35 220,35"/>
<path id="30" d="M132,162C132,162 128.6584380978172,172.68446980086387 128,183C127.19656051928011,195.5872185312782 126.35303765051455,197.44961883860893 129,209C131.45143613939638,219.69717588100238 132.63277913237795,222.0387261863097 139,231C145.14269861279632,239.64527952912076 147.0936349947688,240.17178682932274 156,247C161.58930195658587,251.28513150004917 169,254 169,254"/>
<path id="31" d="M135,161C135,161 142.3326218418657,164.24599127649253 146,169C154.7521312370034,180.3453553072266 152.96483212148385,183.4739718047844 162,196C174.7053445369521,213.61422765350178 175.17525501814074,216.38543828196597 190,230C197.78528992155532,237.14975605040794 200.67503167712255,237.8041764714903 211,241C220.14641096309535,243.83103196476762 232,243 232,243"/>
<path id="32" d="M169,255C169,255 169.75209165141476,252.01219221386484 170,252C182.96206508317152,251.36252138935222 213.41022375717972,253.81450677655846 230,252C231.31767754011983,251.85587901904938 234,245 234,245"/>
<path id="33" d="M138,130C138,130 137.82928709696875,147.16679516261988 140,162C140.64432792363388,166.40290747816493 144,171 144,171"/>
<path id="34" d="M148,131C148,131 146.31423159721703,144.11650451410125 146,157C145.8193462540344,164.40680358458974 146.22038566348465,167.84205687191806 147,172C147.07058236791497,172.3764392955465 149,173 149,173"/>
<path id="35" d="M140,130C140,130 134.90798399165615,130.70620977128811 134,130C132.72209660433577,129.00607513670562 130.85463055269423,123.14536944730577 131,123C131.50879306557022,122.4912069344298 137.45151303880885,121.34678043507445 143,121C144.80182823997444,120.8873857350016 146.8269773091957,121.56744327298928 147,122C147.59892469893793,123.49731174734481 147,131 147,131"/>
<path id="36" d="M163,255C163,255 97.35090752795422,169.30232033177594 97,169C96.93275492683065,168.94206578311562 94.68974956636913,185.97968162771858 98,199C101.56245999047894,213.01234262921716 104.08641427940326,214.81069046567208 112,228C115.59708441845306,233.9951406974218 116.64827700122146,234.71862160097717 122,239C125.98532563738828,242.18826050991063 128.220539769749,240.71351284326 132,244C138.860292963395,249.96547214208263 138.30940162282042,253.9151452333435 145,259C149.12404096691725,262.1342711348571 154.56225817347558,262.8258755838197 157,263C157.3543229399018,263.0253087814216 158.15401755495003,260.42299122252495 159,260C159.9668370800571,259.51658145997146 162.96949355150124,260.04575967274814 163,260C163.0190665303117,259.9714002045324 161,257 161,257"/>
<path id="37" d="M98,174C98,174 87.55627061712444,175.14126511922458 86,174C84.56477265309634,172.947499945604 82.39537794208625,163.87945026605635 83,163C83.9893815493134,161.56089956463506 96.3197338739234,157.61735030408192 97,158C97.60045836826873,158.33775783215117 99,172 99,172"/>
<path id="38" d="M200,174C200,174 197.96958898214913,164.09123305355263 200,158C202.6226142313907,150.13215730582786 206.1015673943252,143.84425119039182 211,141C215.83029366680142,138.19531335476046 223.7285145937583,138.18212864843957 231,140C236.24651478678197,141.3116286966955 243,149 243,149"/>
<path id="39" d="M291,154C291,154 291.3855698001583,146.88026970637117 294,142C298.3093495157496,133.95588090393411 301.10220946915353,129.73164992826398 306,126C307.8222094691535,124.61164992826398 312.52442621911103,124.7622131095555 315,126C318.02570128775323,127.5128506438766 319.19065983537325,131.7525278682986 322,134C322.6289567532746,134.50316540261971 325,134 325,134"/>
<path id="40" d="M325,134L325,134"/>
<path id="41" d="M212,143L216,158"/>
<path id="42" d="M219,141C219,141 223.42083466497553,144.61607428209044 225,148C226.36431290849052,150.9235276610511 226,156 226,156"/>
<path id="43" d="M298,136C298,136 302.99235574098236,145.00655222201513 303,145C303.0418422598861,144.9641352058119 304.9539469322019,130.01381592033942 305,130C305.0311743843556,129.99064768469333 313,142 313,142"/>
</g>
</g>
</svg>
