<?xml version="1.0" encoding="utf-8"?>
<!DOCTYPE svg PUBLIC "-//W3C//DTD SVG 1.1//EN" "http://www.w3.org/Graphics/SVG/1.1/DTD/svg11.dtd">
<svg viewBox="0 0 800 800" preserveAspectRatio="xMinYMin meet" xmlns="http://www.w3.org/2000/svg" version="1.1">
<g fill="none" stroke="black" stroke-linecap="round" stroke-linejoin="round" stroke-width="3.0626">
<g transform="translate(87.52,226.6177) scale(0.97956) translate(0,-2.1333)">
<path id="0" d="M7 247.1333 C7 247.1333 6.2335 252.7475 8 256.1333 C17.0908 273.5573 21.1936 275.0895 31 293.1333 C32.9983 296.8103 31.1011 298.4939 33 302.1333 C36.6333 309.0972 39.2786 308.9563 43 316.1333 C45.924 321.7724 47 329.1333 47 329.1333 "/>
<path id="1" d="M47 329.1333 C47 329.1333 65.6577 327.4543 82 330.1333 C94.7691 332.2266 94.8855 335.6691 108 339.1333 C121.0883 342.5906 121.6227 343.2867 135 344.1333 C160.4651 345.745 161.4234 342.7872 187 344.1333 C198.9081 344.7601 199.1369 347.9633 211 348.1333 C336.7453 349.9361 466 348.1333 466 348.1333 "/>
<path id="2" d="M466 348.1333 C466 348.1333 470.8144 340.6678 477 335.1333 C498.8654 315.5696 501.1308 316.7402 523 297.1333 C529.7058 291.1212 528.3854 289.3069 535 283.1333 C550.6041 268.5695 568 255.1333 568 255.1333 "/>
<path id="3" d="M6 247.1333 L568 250.1333 "/>
<path id="4" d="M567 256.1333 C567 256.1333 578.6738 257.492 589 256.1333 C596.8188 255.1045 605 251.1333 605 251.1333 "/>
<path id="5" d="M562 250.1333 L611 251.1333 "/>
<path id="6" d="M54 84.1333 L56 251.1333 "/>
<path id="7" d="M95 83.1333 L95 248.1333 "/>
<path id="8" d="M55 84.1333 L96 84.1333 "/>
<path id="9" d="M58 81.1333 C58 81.1333 53.7037 77.8073 53 75.1333 C51.7496 70.3817 51.5548 64.4982 53 62.1333 C54.3032 60.0009 58.7532 58.5908 64 57.1333 C66.9646 56.3098 70.9985 57.1391 71 57.1333 C71.0021 57.125 66.2327 54.777 65 53.1333 C64.4199 52.3599 64.7161 49.3108 65 49.1333 C65.9795 48.5211 72.9533 48.1614 73 48.1333 C73.0098 48.1275 70.1782 46.9056 70 46.1333 C69.2718 42.9779 68.7568 36.3111 70 35.1333 C73.0577 32.2365 83.821 31.586 89 28.1333 C90.4589 27.1608 89.6494 22.0619 91 21.1333 C94.3208 18.8503 98.1489 18.4383 105 17.1333 C108.2488 16.5145 111.2608 16.8165 112 17.1333 C112.1358 17.1915 112.18 19.9983 112 20.1333 C111.68 20.3733 108.0043 20.1462 108 20.1333 C107.9936 20.114 109.8678 17.2665 111 17.1333 C115.6877 16.5818 118.5902 16.6542 125 18.1333 C130.9247 19.5006 133.2478 20.8243 137 23.1333 C137.7083 23.5692 137.6335 26.0334 138 26.1333 C140.0156 26.6831 145.1851 24.8087 148 26.1333 C151.0302 27.5593 152.9808 30.6719 155 34.1333 C155.6684 35.2792 155.3822 37.4964 155 38.1333 C154.7325 38.5792 152 39.1333 152 39.1333 "/>
<path id="10" d="M94 83.1333 C94 83.1333 103.2267 82.216 104 81.1333 C105.015 79.7123 103.2524 69.8234 104 69.1333 C104.8774 68.3234 116.1609 69.413 117 69.1333 C117.0215 69.1262 115.9172 65.1885 116 65.1333 C116.3476 64.9016 122.4398 65.7558 123 65.1333 C124.0493 63.9674 124.1163 56.6061 125 55.1333 C125.1894 54.8177 128.8462 55.3641 129 55.1333 C129.3462 54.6141 128.8952 49.1648 129 49.1333 C129.53 48.9743 138.3782 52.416 139 52.1333 C139.3338 51.9816 139.431 44.5316 140 44.1333 C140.7155 43.6325 148.0549 45.6059 149 45.1333 C149.4448 44.911 150 39.1333 150 39.1333 "/>
<path id="11" d="M17 267.1333 C17 267.1333 55.2811 267.7759 93 270.1333 C102.9944 270.758 103.0916 272.9957 113 273.1333 C209.9001 274.4792 221.1069 271.4099 309 273.1333 C312.6226 273.2044 313.3625 277.0287 317 277.1333 C375.7189 278.8231 385.8467 278.4652 448 277.1333 C452.3006 277.0412 452.6351 274.3583 457 274.1333 C499.0068 271.968 545 272.1333 545 272.1333 "/>
<path id="12" d="M33 297.1333 C33 297.1333 92.2994 295.2483 150 298.1333 C171.3697 299.2018 171.6872 304.6205 193 305.1333 C356.4425 309.0664 524 307.1333 524 307.1333 "/>
<path id="13" d="M0 335.1333 C0 335.1333 4.0354 336.0598 7 335.1333 C18.9115 331.411 22.177 325.7882 32 325.1333 C39.4757 324.635 42.1186 330.053 52 332.1333 C60.3798 333.8975 70 333.1333 70 333.1333 "/>
<path id="14" d="M68 335.1333 C68 335.1333 84.179 332.0051 98 333.1333 C107.0281 333.8703 107.7106 338.3205 117 339.1333 C146.0635 341.6764 148.8867 337.3606 178 340.1333 C189.2777 341.2074 189.8907 346.6001 201 347.1333 C249.535 349.463 257.464 345.7037 303 346.1333 C304.7943 346.1503 305.165 348.0787 307 348.1333 C381.1712 350.3408 390.5556 352.3522 471 351.1333 C487.7267 350.8799 488.2907 345.9484 505 345.1333 C528.3407 343.9948 536.1452 347.4638 553 347.1333 C554.075 347.1123 554.7531 344.3534 556 344.1333 C560.9459 343.2605 563.2965 343.2684 570 344.1333 C578.3872 345.2155 578.7735 347.3372 587 348.1333 C593.5782 348.7699 594.5627 346.1236 601 347.1333 C618.8623 349.9353 638 356.1333 638 356.1333 "/>
<path id="15" d="M55 118.1333 C55 118.1333 59.6773 120.1333 64 120.1333 C78.8892 120.1333 95 118.1333 95 118.1333 "/>
<path id="16" d="M56 152.1333 L94 152.1333 "/>
<path id="17" d="M122 85.1333 C122 85.1333 121.2716 131.9229 123 175.1333 C123.1943 179.9899 125.7251 180.2537 126 185.1333 C127.6506 214.4317 127 246.1333 127 246.1333 "/>
<path id="18" d="M155 85.1333 L156 246.1333 "/>
<path id="19" d="M126 181.1333 C126 181.1333 125.9323 185.124 126 185.1333 C129.5573 185.624 151.3922 185.3821 155 185.1333 C155.0172 185.1321 155 183.1333 155 183.1333 "/>
<path id="20" d="M124 146.1333 L157 147.1333 "/>
<path id="21" d="M125 87.1333 L154 88.1333 "/>
<path id="22" d="M120 85.1333 C120 85.1333 118.5963 81.6904 119 79.1333 C119.9421 73.1669 120.1619 71.5516 123 66.1333 C125.1935 61.9457 130 58.1333 130 58.1333 "/>
<path id="23" d="M155 85.1333 C155 85.1333 160.8591 84.5794 161 84.1333 C161.876 81.3594 161 66.1333 161 66.1333 "/>
<path id="24" d="M160 66.1333 C160 66.1333 160.6133 60.2471 161 60.1333 C163.1965 59.4873 170.3353 62.3235 177 61.1333 C182.5063 60.1501 186.3196 58.3499 189 55.1333 C191.4291 52.2184 191.2529 43.3824 192 43.1333 C193.7433 42.5522 208.9661 48.4205 210 48.1333 C210.1729 48.0853 210 38.1333 210 38.1333 "/>
<path id="25" d="M150 36.1333 L214 37.1333 "/>
<path id="26" d="M153 32.1333 C153 32.1333 154.6026 28.1664 155 28.1333 C156.6606 27.9949 163.9028 31.5553 165 31.1333 C165.7537 30.8434 167.1896 23.2525 168 23.1333 C173.9294 22.2614 184.0116 23.5821 199 26.1333 C207.0154 27.4977 212.3369 29.136 215 31.1333 C215.7079 31.6643 215.819 35.8812 215 38.1333 C214.3619 39.8882 211 42.1333 211 42.1333 "/>
<path id="27" d="M157 175.1333 L325 175.1333 "/>
<path id="28" d="M325 175.1333 L324 248.1333 "/>
<path id="29" d="M182 176.1333 C182 176.1333 179.2105 172.4308 179 169.1333 C177.8293 150.7925 179 129.1333 179 129.1333 "/>
<path id="30" d="M179 129.1333 C179 129.1333 178.8315 115.1497 179 115.1333 C196.8315 113.3997 307.5874 108.8184 323 115.1333 C325.5874 116.1934 323 174.1333 323 174.1333 "/>
<path id="31" d="M173 91.1333 L179 113.1333 "/>
<path id="32" d="M174 91.1333 C174 91.1333 181.1734 92.4079 187 91.1333 C196.2021 89.1204 196.9542 84.5148 206 84.1333 C274.9155 81.2273 353 84.1333 353 84.1333 "/>
<path id="33" d="M354 84.1333 C354 84.1333 353.3565 88.9125 352 90.1333 C350.0386 91.8986 345.9595 91.0338 344 93.1333 C340.705 96.6637 341.6377 102.1283 338 105.1333 C332.7919 109.4357 321 112.1333 321 112.1333 "/>
<path id="34" d="M329 86.1333 C329 86.1333 321.5803 93.5852 314 98.1333 C309.9708 100.5508 307.5892 98.8109 304 101.1333 C300.3401 103.5015 297.4015 108.8322 297 109.1333 C296.9846 109.1449 296 107.1333 296 107.1333 "/>
<path id="35" d="M187 93.1333 C187 93.1333 186.7329 98.0372 187 98.1333 C190.9233 99.5457 200.7668 98.7937 212 102.1333 C218.0397 103.9289 224 109.1333 224 109.1333 "/>
<path id="36" d="M226 49.1333 L227 111.1333 "/>
<path id="37" d="M301 44.1333 L303 109.1333 "/>
<path id="38" d="M226 49.1333 C226 49.1333 237.1021 50.5473 247 49.1333 C257.3019 47.6616 257.6191 44.4545 268 43.1333 C284.2782 41.0616 302 42.1333 302 42.1333 "/>
<path id="39" d="M265 24.1333 C265 24.1333 257.9724 43.6371 258 44.1333 C258.0022 44.1727 266 42.1333 266 42.1333 "/>
<path id="40" d="M279 25.1333 L279 43.1333 "/>
<path id="41" d="M265 22.1333 L278 23.1333 "/>
<path id="42" d="M271 9.1333 L268 23.1333 "/>
<path id="43" d="M273 10.1333 L275 20.1333 "/>
<path id="44" d="M273 2.1333 L273 8.1333 "/>
<path id="45" d="M269 24.1333 L265 37.1333 "/>
<path id="46" d="M272 26.1333 L273 38.1333 "/>
<path id="47" d="M178 98.1333 L340 99.1333 "/>
<path id="48" d="M229 84.1333 C229 84.1333 230.801 108.8894 231 110.1333 C231.0051 110.1655 233 109.1333 233 109.1333 "/>
<path id="49" d="M243 87.1333 C243 87.1333 242.9803 111.0702 243 111.1333 C243.0053 111.1503 248 103.1333 248 103.1333 "/>
<path id="50" d="M259 86.1333 L259 105.1333 "/>
<path id="51" d="M280 87.1333 L280 111.1333 "/>
<path id="52" d="M296 88.1333 L301 114.1333 "/>
<path id="53" d="M310 87.1333 L312 110.1333 "/>
<path id="54" d="M330 88.1333 L336 121.1333 "/>
<path id="55" d="M213 87.1333 L212 110.1333 "/>
<path id="56" d="M202 86.1333 C202 86.1333 202.0015 116.1143 202 116.1333 C201.9998 116.1364 200 111.1333 200 111.1333 "/>
<path id="57" d="M193 91.1333 L193 115.1333 "/>
<path id="58" d="M185 97.1333 L185 110.1333 "/>
<path id="59" d="M186 125.1333 C186 125.1333 248.5123 122.0948 306 124.1333 C316.1653 124.4938 327 130.1333 327 130.1333 "/>
<path id="60" d="M316 126.1333 L316 170.1333 "/>
<path id="61" d="M186 125.1333 L186 166.1333 "/>
<path id="62" d="M186 166.1333 L314 168.1333 "/>
<path id="63" d="M245 124.1333 L245 166.1333 "/>
<path id="64" d="M326 196.1333 C326 196.1333 325.664 199.9373 326 200.1333 C327.9799 201.2883 335.9157 202.0912 338 203.1333 C338.2316 203.2491 337.7895 206.0131 338 206.1333 C338.9295 206.6645 342.8816 205.8297 345 207.1333 C347.8674 208.8979 347.6817 211.791 351 214.1333 C355.4066 217.2439 359.4312 216.7786 362 219.1333 C363.0715 220.1155 361.872 222.8773 363 225.1333 C364.4751 228.0835 365.6686 230.1134 368 231.1333 C371.4971 232.6633 375.4888 230.8793 379 232.1333 C380.3692 232.6223 380.5185 235.3103 382 236.1333 C383.8597 237.1665 386.5499 235.8904 388 237.1333 C391.6858 240.2926 396 248.1333 396 248.1333 "/>
<path id="65" d="M325 162.1333 C325 162.1333 329.9601 161.1134 332 162.1333 C335.0599 163.6633 337.47 166.0734 339 169.1333 C340.02 171.1733 337.8487 174.3105 339 176.1333 C342.2201 181.2318 345.9562 184.7708 351 188.1333 C352.5131 189.1421 356.4 187.8333 357 188.1333 C357.15 188.2083 356.7563 191.0115 357 191.1333 C359.5999 192.4333 365.1852 192.0183 371 195.1333 C378.1656 198.972 380.2323 200.7697 385 206.1333 C386.785 208.1415 385.4148 211.8279 387 213.1333 C391.2392 216.6244 397.4436 216.0326 402 220.1333 C405.1873 223.0019 404.1685 229.0097 407 231.1333 C410.8466 234.0183 419.166 232.7994 422 235.1333 C423.5856 236.4391 424 245.1333 424 245.1333 "/>
<path id="66" d="M334 163.1333 L334 203.1333 "/>
<path id="67" d="M348 187.1333 L348 212.1333 "/>
<path id="68" d="M366 194.1333 L366 227.1333 "/>
<path id="69" d="M381 203.1333 C381 203.1333 380.7509 232.0234 381 236.1333 C381.0009 236.1484 383 236.1333 383 236.1333 "/>
<path id="70" d="M395 217.1333 L395 249.1333 "/>
<path id="71" d="M411 235.1333 L411 247.1333 "/>
<path id="72" d="M531 226.1333 L532 251.1333 "/>
<path id="73" d="M530 228.1333 L607 228.1333 "/>
<path id="74" d="M608 227.1333 L608 246.1333 "/>
<path id="75" d="M608 246.1333 L608 248.1333 "/>
<path id="76" d="M608 226.1333 C608 226.1333 605.2866 219.2503 604 219.1333 C583.7417 217.2917 531 219.1333 531 219.1333 "/>
<path id="77" d="M531 219.1333 L531 226.1333 "/>
<path id="78" d="M538 219.1333 L538 250.1333 "/>
<path id="79" d="M555 230.1333 L555 249.1333 "/>
<path id="80" d="M566 229.1333 L566 250.1333 "/>
<path id="81" d="M577 230.1333 L579 250.1333 "/>
<path id="82" d="M588 231.1333 L589 250.1333 "/>
<path id="83" d="M601 227.1333 L601 250.1333 "/>
<path id="84" d="M547 231.1333 L547 243.1333 "/>
<path id="85" d="M551 221.1333 L551 229.1333 "/>
<path id="86" d="M563 222.1333 L562 228.1333 "/>
<path id="87" d="M573 217.1333 L573 228.1333 "/>
<path id="88" d="M585 220.1333 L584 229.1333 "/>
<path id="89" d="M597 220.1333 L597 227.1333 "/>
<path id="90" d="M534 218.1333 C534 218.1333 528.2575 217.4347 527 218.1333 C526.1417 218.6102 525.1699 220.7547 525 223.1333 C524.2401 233.7712 525 246.1333 525 246.1333 "/>
<path id="91" d="M335 286.1333 C335 286.1333 326.7775 287.0967 326 288.1333 C325.1114 289.3181 325.656 296.9865 326 298.1333 C326.031 298.2365 328.8436 297.8987 329 298.1333 C329.5215 298.9155 329.6784 304.0415 330 304.1333 C331.4725 304.554 341.8359 303.3869 343 302.1333 C343.9927 301.0643 344.0833 292.8416 343 290.1333 C342.5125 288.9146 337 287.1333 337 287.1333 "/>
<path id="92" d="M360 290.1333 C360 290.1333 355.9161 292.9347 355 295.1333 C354.0947 297.3061 354.6347 301.9367 355 302.1333 C356.2597 302.8117 367.053 302.9346 368 302.1333 C368.678 301.5596 368.9326 292.8654 368 291.1333 C367.5108 290.2249 361 289.1333 361 289.1333 "/>
<path id="93" d="M380 289.1333 C380 289.1333 394.6764 289.6039 396 290.1333 C396.0807 290.1656 396.0973 293.4874 395 295.1333 C392.7409 298.522 388 302.1333 388 302.1333 "/>
<path id="94" d="M416 284.1333 L416 303.1333 "/>
<path id="95" d="M416 284.1333 C416 284.1333 423.7433 284.6672 425 286.1333 C426.885 288.3325 426.3401 296.1716 428 298.1333 C428.887 299.1816 436 299.1333 436 299.1333 "/>
<path id="96" d="M436 282.1333 L436 300.1333 "/>
<path id="97" d="M462 285.1333 C462 285.1333 447.1707 281.5621 445 282.1333 C444.4503 282.278 442.8209 290.0031 443 290.1333 C443.6098 290.5768 455.1226 289.3234 456 290.1333 C456.7476 290.8234 456.5817 301.4223 456 302.1333 C455.6915 302.5104 450.3301 302.2434 447 301.1333 C445.5728 300.6576 444 298.1333 444 298.1333 "/>
<path id="98" d="M471 283.1333 L474 317.1333 "/>
</g>
</g>
</svg>
