<?xml version="1.0" encoding="utf-8"?>
<!DOCTYPE svg PUBLIC "-//W3C//DTD SVG 1.1//EN" "http://www.w3.org/Graphics/SVG/1.1/DTD/svg11.dtd">
<svg viewBox="0 0 800 800" preserveAspectRatio="xMinYMin meet" xmlns="http://www.w3.org/2000/svg" version="1.1">
<g fill="none" stroke="black" stroke-linecap="round" stroke-linejoin="round" stroke-width="3.0002">
<g transform="translate(87.52,197.013) scale(0.99994) translate(-11,-52.1333)">
<path id="0" d="M461 239.1333 C461 239.1333 440.9499 242.025 421 243.1333 C405.1283 244.0151 404.3664 242.0613 389 243.1333 C383.6173 243.5089 383.4088 245.7727 378 246.1333 C354.3041 247.7131 351.0596 245.1983 329 247.1333 C325.2472 247.4625 324.6356 251.033 321 251.1333 C259.5876 252.8275 252.045 253.2487 184 251.1333 C156.0934 250.2658 130.3915 245.1333 128 245.1333 C127.9146 245.1333 128.72 250.4933 130 251.1333 C138.96 255.6133 146.5964 254.4315 160 261.1333 C172.4462 267.3564 171.7299 270.7067 184 278.1333 C190.3093 281.9521 191.109 282.47 198 284.1333 C204.7987 285.7744 206.0048 283.4152 213 285.1333 C233.736 290.2264 233.9207 293.3305 255 298.1333 C272.8806 302.2074 273.5836 302.4833 292 303.1333 C357.9026 305.4593 358.788 304.9169 425 304.1333 C442.9413 303.921 443.3711 303.8044 461 301.1333 C476.0205 298.8575 486.5904 297.2201 491 294.1333 C492.2382 293.2666 492.254 286.1526 491 280.1333 C490.011 275.386 486.6467 274.9372 486 270.1333 C483.4389 251.1081 484.0018 228.1571 484 228.1333 C483.9999 228.1317 483.6304 230.7895 483 231.1333 C480.2174 232.6511 477.8892 233.6095 473 234.1333 C464.4734 235.0469 462.8882 232.9198 455 234.1333 C451.2244 234.7142 447 238.1333 447 238.1333 "/>
<path id="1" d="M176 246.1333 C176 246.1333 187.465 247.488 195 245.1333 C201.1694 243.2054 203.3969 237.3887 208 236.1333 C210.4369 235.4687 213.9832 239.7135 217 239.1333 C223.6398 237.8564 228.3098 234.6107 234 231.1333 C234.7366 230.6832 234.7187 228.1896 235 228.1333 C236.5474 227.8239 241.2088 228.1183 244 229.1333 C244.9214 229.4684 245.5568 232.1535 246 232.1333 C250.7996 231.9152 259.5921 226.9683 266 228.1333 C270.9269 229.0291 272.6883 235.6901 279 238.1333 C286.0238 240.8522 288.207 240.1333 297 240.1333 C306.2815 240.1333 309.7392 237.8487 316 238.1333 C317.0385 238.1805 317.7463 240.8983 319 241.1333 C323.5748 241.9911 328.2233 241.8887 332 241.1333 C332.7553 240.9823 333.3599 238.1826 334 238.1333 C340.8646 237.6053 349.6954 240.0231 358 239.1333 C359.5393 238.9684 359.9587 235.9272 362 235.1333 C367.5727 232.9662 370.3357 234.1325 376 232.1333 C377.5267 231.5945 377.6917 229.3444 379 229.1333 C389.6362 227.4178 395.8661 226.4784 407 227.1333 C409.4899 227.2798 410.4088 230.8557 413 231.1333 C421.8246 232.0788 427.7668 228.4456 435 230.1333 C438.2787 230.8984 440.6056 234.8411 443 238.1333 C443.5198 238.8481 442.577 240.6257 443 241.1333 C444.0105 242.346 447.8527 244.1333 448 244.1333 C448 244.1333 448 241.1333 448 241.1333 "/>
<path id="2" d="M247 227.1333 C247 227.1333 247.5972 215.2885 249 214.1333 C250.747 212.6947 258.233 215.0557 264 213.1333 C268.2626 211.7125 269.6375 206.439 273 206.1333 C281.2477 205.3835 288.3852 210.8935 297 210.1333 C300.8681 209.792 302.4066 204.5949 307 203.1333 C311.508 201.699 313.9867 202.0779 319 203.1333 C322.2762 203.8231 323.2575 207.1333 326 207.1333 C335.0111 207.1333 341.8391 202.0483 349 203.1333 C352.6338 203.6839 354.5476 210.3119 359 212.1333 C362.9051 213.7309 369.4282 211.1229 371 212.1333 C372.0198 212.7889 370.9505 218.1274 373 221.1333 C377.3238 227.4749 386 234.1333 386 234.1333 "/>
<path id="3" d="M365 211.1333 C365 211.1333 369.6524 204.1699 372 198.1333 C372.7466 196.2136 371.453 194.4096 372 193.1333 C372.3594 192.2946 374.6138 192.2106 375 191.1333 C382.1246 171.2593 381.4768 163.7651 391 140.1333 C394.3872 131.7281 399.9985 131.639 402 124.1333 C405.0939 112.5313 401.5281 104.5534 403 95.1333 C403.183 93.9621 406.6134 93.5347 407 92.1333 C409.5535 82.8769 407.9207 77.4239 411 66.1333 C411.9506 62.6476 414.8557 62.3374 416 59.1333 C416.9117 56.5805 416 52.1332 416 52.1333 C416.0001 52.1337 416.3387 67.4596 420 80.1333 C422.4613 88.6533 425.7868 88.6623 429 97.1333 C431.0082 102.4277 429.2084 103.7586 431 109.1333 C432.5087 113.6594 434.7555 113.9022 436 118.1333 C436.9508 121.3661 434.9328 123.4652 436 126.1333 C437.254 129.2683 440.7326 129.5424 442 133.1333 C446.0475 144.6012 443.4048 147.8795 448 160.1333 C452.0061 170.8162 457.2198 171.0818 460 181.1333 C463.004 191.994 459.0595 196.4605 461 207.1333 C461.5862 210.3574 464.9023 210.5964 466 214.1333 C468.9832 223.7458 470 236.1333 470 236.1333 "/>
<path id="4" d="M272 218.1333 C272 218.1333 272.1894 226.433 273 234.1333 C273.1563 235.618 273.5541 236.8658 274 237.1333 C274.6369 237.5155 278 237.1333 278 237.1333 "/>
<path id="5" d="M295 209.1333 C295 209.1333 294.5153 214.6071 296 218.1333 C298.0405 222.9794 301.25 223.3209 303 228.1333 C304.7246 232.876 303.988 240.1293 304 240.1333 C304.004 240.1347 309 230.1333 309 230.1333 "/>
<path id="6" d="M312 209.1333 C312 209.1333 313.9811 209.0673 314 209.1333 C314.2311 209.9423 313.0345 213.5586 314 216.1333 C315.5518 220.2714 318.7943 220.8273 320 225.1333 C321.8379 231.6972 320.9997 241.132 321 241.1333 C321.0001 241.1338 321.2228 236.0401 322 235.1333 C322.5991 234.4344 325.6755 235.2812 327 234.1333 C331.6057 230.1418 334.7882 227.7633 337 222.1333 C339.2762 216.3393 337.9933 206.1256 338 206.1333 C338.0174 206.1536 348.9333 236.0799 349 236.1333 C349.0198 236.1492 353 218.1333 353 218.1333 "/>
<path id="7" d="M353 215.1333 L358 231.1333 "/>
<path id="8" d="M220 239.1333 C220 239.1333 221.3416 246.8041 222 247.1333 C222.9877 247.6272 232 245.1333 232 245.1333 "/>
<path id="9" d="M253 237.1333 C253 237.1333 252.9397 243.8006 254 246.1333 C254.4282 247.0754 258 248.1333 258 248.1333 "/>
<path id="10" d="M283 243.1333 L283 250.1333 "/>
<path id="11" d="M65 282.1333 C65 282.1333 63.7032 290.828 65 293.1333 C66.1863 295.2422 69.8161 297.5181 74 298.1333 C84.7441 299.7133 87.2703 299.4014 99 298.1333 C104.8331 297.5027 105.5739 296.7036 111 294.1333 C114.6585 292.4004 115.4111 291.9575 118 289.1333 C120.4188 286.4947 119.4786 284.3581 122 282.1333 C126.9699 277.7481 131.1307 273.7734 135 274.1333 C144.8237 275.0472 150.7747 281.3916 165 286.1333 C167.5103 286.9701 168.6087 286.8691 171 286.1333 C174.2804 285.124 175.3348 282.2736 178 282.1333 C182.3772 281.903 190 285.1333 190 285.1333 "/>
<path id="12" d="M491 277.1333 C491 277.1333 500.0402 272.2564 503 273.1333 C508.0782 274.638 514.3339 285.0286 518 285.1333 C522.7038 285.2677 530.8856 278.8762 538 274.1333 C538.7808 273.6128 538.5733 271.2646 539 271.1333 C541.7307 270.2931 548.7889 269.7932 551 270.1333 C551.2728 270.1753 551.2917 272.6974 552 273.1333 C555.7522 275.4424 562.0996 278.846 564 278.1333 C567.2377 276.9192 570.5503 268.6748 576 264.1333 C577.5735 262.8221 579.0205 263.4042 582 263.1333 C584.4459 262.911 585.2106 262.338 587 263.1333 C592.925 265.7667 594.1713 268.219 600 271.1333 C601.0286 271.6476 602.7906 271.395 603 271.1333 C603.506 270.5009 603.1469 266.8158 604 266.1333 C605.945 264.5773 610.6664 262.4231 613 263.1333 C617.918 264.6301 626.6584 273.0113 627 273.1333 C627.0347 273.1457 626.324 269.6543 627 268.1333 C627.7811 266.3758 630.1527 264.2275 631 264.1333 C631.8896 264.0345 635.7505 266.6344 636 267.1333 C636.0907 267.3148 634 270.1333 634 270.1333 "/>
<path id="13" d="M11 303.1333 C11 303.1333 12.4786 298.4645 14 297.1333 C15.0834 296.1853 17.713 297.0986 19 296.1333 C20.5108 295.0002 20.7581 291.6508 22 291.1333 C24.1987 290.2172 28.8151 289.7981 31 291.1333 C34.8169 293.4659 38.5463 302.1333 40 302.1333 C42.9075 302.1333 53.1583 293.2083 58 291.1333 C58.4568 290.9376 60.383 291.9468 61 293.1333 C65.8874 302.5321 67.6811 305.1809 71 316.1333 C72.275 320.3409 71 326.1333 71 326.1333 "/>
<path id="14" d="M17 359.1333 C17 359.1333 16.9577 353.1367 17 353.1333 C19.1733 352.9595 29.4992 356.0139 42 357.1333 C62.793 358.9954 64.0907 359.1333 84 359.1333 C87.3182 359.1333 88.8396 358.7536 91 357.1333 C93.6052 355.1795 93.5692 352.294 96 350.1333 C97.059 349.192 99.6852 348.8 100 349.1333 C103.5446 352.8864 106.3846 360.0479 113 368.1333 C114.5828 370.0679 115.6644 370.4964 118 371.1333 C120.4086 371.7902 121.8299 372.0014 124 371.1333 C128.1232 369.4841 133 365.1333 133 365.1333 "/>
<path id="15" d="M237 398.1333 C237 398.1333 243.0306 396.2997 245 394.1333 C246.5406 392.4387 246.9865 387.1367 247 387.1333 C247.0018 387.1329 248.0285 392.6476 249 393.1333 C251.4288 394.3477 256.4066 395.1773 261 394.1333 C265.4338 393.1256 265.7822 390.0117 271 388.1333 C290.0174 381.2871 291.6514 381.1808 311 376.1333 C313.6916 375.4312 315.1571 375.2119 317 376.1333 C320.5323 377.8995 320.6325 380.5129 325 383.1333 C340.1071 392.1976 343.3706 394.5418 357 400.1333 C359.3044 401.0787 362.3231 400.391 364 399.1333 C366.3801 397.3482 369 391.1333 369 391.1333 "/>
<path id="16" d="M488 380.1333 C488 380.1333 499.9363 381.9216 507 379.1333 C515.9327 375.6073 523.6918 364.5429 526 365.1333 C530.5503 366.2974 540.7707 381.8928 550 390.1333 C550.797 390.8449 552.699 390.8511 554 390.1333 C565.0022 384.0632 566.6996 379.1058 579 374.1333 C588.0735 370.4653 593.2025 370.8445 601 371.1333 C602.8339 371.2013 604.8237 372.8543 606 375.1333 C611.8411 386.4504 617 402.1333 617 402.1333 "/>
<path id="17" d="M382 449.1333 C382 449.1333 389.0711 454.5526 391 454.1333 C394.9425 453.2763 397.8148 448.0023 405 444.1333 C410.2463 441.3084 413.2604 439.0863 417 440.1333 C431.7932 444.2754 437.1925 451.5918 455 458.1333 C459.3908 459.7463 461.8741 459.7305 466 458.1333 C475.2439 454.555 479.7221 451.2154 486 446.1333 C487.0664 445.27 486.5651 441.2576 487 441.1333 C490.6328 440.0954 507 440.1333 507 440.1333 "/>
<path id="18" d="M82 437.1333 C82 437.1333 84.7683 433.6584 87 433.1333 C91.5077 432.0727 93.252 432.249 99 433.1333 C118.7495 436.1717 123.3465 440.175 139 441.1333 C142.3611 441.3391 143.4232 437.5064 148 436.1333 C157.6766 433.2304 159.9922 435.2395 169 432.1333 C173.0528 430.7358 173.355 427.3483 177 426.1333 C180.645 424.9183 183.7215 425.0405 187 426.1333 C189.1857 426.8619 189.351 430.0898 192 431.1333 C203.8399 435.7975 206.1088 436.3551 220 439.1333 C228.0719 440.7477 232.2698 440.6312 237 440.1333 C237.6484 440.0651 239 437.1333 239 437.1333 "/>
<path id="19" d="M476 250.1333 C476 250.1333 469.1849 248.7981 467 250.1333 C463.1831 252.4659 458 261.1333 458 261.1333 "/>
<path id="20" d="M484 262.1333 C484 262.1333 476.9572 270.7391 471 272.1333 C457.7057 275.2448 437 273.1333 437 273.1333 "/>
<path id="21" d="M484 281.1333 C484 281.1333 466.2497 285.4527 452 284.1333 C441.7848 283.1875 430 276.1333 430 276.1333 "/>
</g>
</g>
</svg>
