<?xml version="1.0" encoding="utf-8"?>
<!DOCTYPE svg PUBLIC "-//W3C//DTD SVG 1.1//EN" "http://www.w3.org/Graphics/SVG/1.1/DTD/svg11.dtd">
<svg viewBox="0 0 800 800" preserveAspectRatio="xMinYMin meet" xmlns="http://www.w3.org/2000/svg" version="1.1">
<g fill="none" stroke="black" stroke-linecap="round" stroke-linejoin="round" stroke-width="1.9873">
<g transform="translate(87.52,228.6643) scale(1.5096) translate(-76,-168)">
<path id="0" d="M152 395 C152 395 241.9731 396.0009 329 393 C341.8634 392.5564 342.1164 389.1503 355 388 C369.6148 386.6951 370.399 387.0045 385 388 C391.9134 388.4714 392.2586 390.8271 399 391 C410.9478 391.3064 424 389 424 389 "/>
<path id="1" d="M490 275 L424 391 "/>
<path id="2" d="M77 283 C77 283 86.0927 288.0927 91 293 C92.6358 294.6358 91.3811 296.6728 93 299 C98.8567 307.419 101.2561 307.233 107 316 C110.3525 321.117 108.5478 323.1669 112 328 C117.9226 336.2916 120.3459 335.5545 127 344 C133.1394 351.7923 134.5069 352.8494 138 361 C139.8385 365.2898 137.7076 367.0891 139 372 C140.0387 375.9471 140.4239 376.6662 143 380 C148.5851 387.2278 155.8667 393.8975 156 394 C156.0173 394.0133 156 390 156 390 "/>
<path id="3" d="M76 282 C76 282 136.0177 282.3657 196 282 C217.9966 281.8659 218.3994 282.4644 240 281 C247.4522 280.4948 247.6519 278.0296 255 278 C369.0445 277.5401 488 280 488 280 "/>
<path id="4" d="M188 209 L189 282 "/>
<path id="5" d="M203 211 L203 280 "/>
<path id="6" d="M202 211 L191 212 "/>
<path id="7" d="M176 180 C176 180 176.9515 184.579 179 187 C181.7424 190.241 185.9398 190.7281 187 193 C187.9295 194.9918 185.8005 200.0053 186 202 C186.0269 202.2689 188 203 188 203 "/>
<path id="8" d="M196 184 L197 200 "/>
<path id="9" d="M212 180 C212 180 208.6959 182.5642 208 185 C206.1226 191.5709 206 201 206 201 "/>
<path id="10" d="M196 174 L196 175 "/>
<path id="11" d="M175 174 C175 174 174.5602 169.5277 175 169 C175.4544 168.4547 180 168 180 168 "/>
<path id="12" d="M215 173 L216 175 "/>
<path id="13" d="M164 308 C164 308 166.604 305.3506 169 305 C185.0519 302.6509 202.9833 300.2634 205 302 C206.7669 303.5215 207.2128 334.0638 205 336 C201.9597 338.6602 168.2103 339.167 165 337 C163.4571 335.9585 165 309 165 309 "/>
<path id="14" d="M243 306 C243 306 245.7687 303.1455 248 303 C265.6078 301.8517 285.8898 300.4967 289 303 C291.0148 304.6217 289.7979 321.2391 289 336 C288.9007 337.8376 287.6067 339.9494 287 340 C275.0401 340.9967 244.5659 342.7907 241 340 C238.8159 338.2907 241 304 241 304 "/>
<path id="15" d="M321 307 C321 307 328.2056 302.9437 335 302 C345.1723 300.5872 356.0789 300.7021 357 302 C358.8289 304.5771 358.958 331.5082 357 333 C353.4551 335.7009 318.6418 336.1677 315 334 C313.6388 333.1897 313.2845 317.1495 315 308 C315.4701 305.4927 318.3772 302.8743 321 302 C324.9342 300.6886 333 302 333 302 "/>
<path id="16" d="M385 306 C385 306 388.3025 302.0375 391 301 C393.3832 300.0834 395.0483 300.0918 398 301 C407.0496 303.7845 414.8792 305.2634 417 309 C420.4024 314.9948 420.4572 333.761 419 338 C418.6156 339.1182 412.4128 340.4503 406 341 C395.3581 341.9122 384.9211 342.2979 384 341 C382.1711 338.4229 382.8935 323.2776 384 310 C384.1874 307.7514 387 305 387 305 "/>
</g>
</g>
</svg>
