<?xml version="1.0" encoding="utf-8"?>
<!DOCTYPE svg PUBLIC "-//W3C//DTD SVG 1.1//EN" "http://www.w3.org/Graphics/SVG/1.1/DTD/svg11.dtd">
<svg viewBox="0 0 800 800" preserveAspectRatio="xMinYMin meet" xmlns="http://www.w3.org/2000/svg" version="1.1">
<g fill="none" stroke="black" stroke-linecap="round" stroke-linejoin="round" stroke-width="2.4194">
<g transform="translate(87.52,191.06) scale(1.24) translate(-4,-13)">
<path id="0" d="M47,178L45,281"/>
<path id="1" d="M46,279C46,279 59.60856106488697,283.4213575768778 73,284C139.4681899877554,286.87208228342154 142.18712628501083,290.36811108727806 208,286C252.95701586679098,283.0161272654785 253.5433395468733,275.9399481607827 299,269C318.64931901162805,266.0001039676904 339,266 339,266"/>
<path id="2" d="M466,125C466,125 465.57768386418615,128.21874402430595 464,130C407.3698032378405,193.93731892501881 342,265 342,265"/>
<path id="3" d="M466,124C466,124 410.87254955149455,121.08618229754098 357,125C294.68658042317815,129.52704330258962 292.6528262214671,128.75279470528068 232,141C190.25797547535805,149.42867802901424 190.54447321734563,156.99293710823062 149,167C123.08268982131575,173.2428557364714 121.31127226817928,169.15318668744067 95,174C83.91695575566936,176.04161341342933 83.54028275968018,176.7336950734628 73,181C62.79320653185333,185.1313211656784 62.14909568490662,185.6630275171378 53,191C50.75699589660354,192.3084190603146 49.703430859883156,193.2414228502921 49,195C48.24632407869661,196.88418980325846 49.47045128671604,199.9022803309959 49,201C48.82078046220341,201.41817892152537 46,202 46,202"/>
<path id="4" d="M46,211L46,268"/>
<path id="5" d="M47,184L49,162"/>
<path id="6" d="M49,162C49,162 57.33978356562016,163.77043728002502 64,162C94.895535645389,153.78726267654215 96.89713068684587,147.948513357194 128,141C141.58372176910248,137.96533875371114 143.3419471902946,142.42508846761024 158,141C178.85379457602994,138.97254774955263 179.24979746837607,137.22780928269705 200,134C201.4447020844607,133.77526856463945 202.85884475167904,133.73785453883252 203,134C204.3241706628204,136.459174088095 207,147 207,147"/>
<path id="7" d="M54,163C54,163 55.998893805309734,163.016592920354 56,163C56.248893805309734,159.266592920354 53.64774356641979,138.48859834502048 56,133C56.896097688982934,130.90910539237313 63.45932114038388,129.54680591992127 71,128C82.58248272837035,125.62410610700095 83.40461240308826,127.6183133283349 95,125C114.02249860669835,120.70459708881004 114.14965772020311,116.51337897063958 133,114C165.19205412985585,109.70772611601921 197.59218327055095,110.25274653223995 200,111C200.09048163075175,111.02808050609536 191,132 191,132"/>
<path id="8" d="M64,129C64,129 57.1194131781572,106.34022511726815 58,100C58.26660764724432,98.08042493984091 63.801056307290374,93.95490802519155 69,93C85.23590389085397,90.0178952037207 88.2622108531645,93.08197657187061 107,91C123.99473899364149,89.11169566737317 124.13099428701738,86.2651754284737 141,85C163.52465204055733,83.3106510969582 182.5611090842758,82.58755928493251 187,85C188.3111090842758,85.71255928493251 187,110 187,110"/>
<path id="9" d="M187,110L187,110"/>
<path id="10" d="M119,91C119,91 109.63545366245398,53.96487385108677 112,44C112.88571044120415,40.267363140639645 122.48421558002792,36.38157684165503 133,32C139.57236526248255,29.261514473965604 146.66696868602685,27.956758102107962 148,29C150.57444535550832,31.014783321702154 152.80089839304517,40.00280747826619 156,50C156.5431411896358,51.69731621761185 156.23440743200538,53.910701930664615 156,54C152.53516514567045,55.31993708736364 144.32435030715837,54.56471304473112 135,58C126.41810381565985,61.16175122580953 122.4151512340283,64.62370787986072 118,68C117.5890432025606,68.31426108039483 118,71 118,71"/>
<path id="11" d="M118,71L118,71"/>
<path id="12" d="M13,287C13,287 6.577563791363559,287.90904617186885 6,289C4.3744854119355505,292.07041644412174 4.377092285642468,297.2123388584356 4,304C3.926522459047607,305.3225957371431 4.44125272693543,306.7605368829723 5,307C8.492170456653553,308.49664448142294 18,310 18,310"/>
<path id="13" d="M93,321C93,321 87.27344177528353,318.07990063295886 82,318C55.75576576031732,317.60236008727753 53.232498490747105,317.37675015092526 27,320C19.63399046002572,320.7366009539974 13.53483586891206,322.7489073922623 12,325C10.286481746348918,327.5131601053549 12,342 12,342"/>
<path id="14" d="M95,322C95,322 108.61231269079017,318.1541109749319 122,317C137.12951714768025,315.6957312803724 138.29792250022942,316.5675859558891 153,317C154.4367305336588,317.0422567804017 155.54060419587205,317.31090629380804 156,318C157.53131934709316,320.29697902063975 159,326 159,326"/>
<path id="15" d="M148,350C148,350 177.33034069462093,323.04449315573725 204,314C227.46685218328997,306.0416762161017 263,311 263,311"/>
<path id="16" d="M263,317L349,298"/>
<path id="17" d="M175,310L237,307"/>
<path id="18" d="M157,51L166,80"/>
<path id="19" d="M166,80L166,81"/>
<path id="20" d="M122,38C122,38 106.63743553985848,39.9619919591709 102,38C99.52967376049845,36.9548619755955 96,27 96,27"/>
<path id="21" d="M95,27C95,27 63.00209703766275,27.00059915361793 63,27C62.99889531051694,26.99968437443341 72.04403591508288,23.75684203534511 81,23C106.96679294974046,20.80562313100785 134.00062056465646,21.000517137213727 134,21C133.9991336272653,20.999278022721096 101.14672362668331,14.819625865661319 69,13C48.918722946375695,11.863323940360889 29.463642386859252,14.643978878872074 28,15C27.918951398773266,15.019714524622719 29.692469306823927,19.692469306823927 32,22C33.887979658053155,23.88797965805315 38,25 38,25"/>
<path id="22" d="M40,25L47,26"/>
<path id="23" d="M48,26L20,50"/>
<path id="24" d="M36,44C36,44 53.722887404159906,38.26585083224133 71,36C83.46089157662682,34.36578471126206 84.74856907558572,34.94987734933592 97,36C101.36204793352772,36.37388982287381 106,39 106,39"/>
<path id="25" d="M82,104C82,104 81.05816002758578,115.90118669885008 82,117C82.81764129473322,117.95391484385541 89.981004907409,118.28707107804222 94,118C94.7219751663337,117.94843034526188 95.92833901076132,116.78827088162551 96,116C96.6568924013546,108.7741835850995 96.9490280939594,97.50262781543571 96,96C95.6878197059344,95.50571453439615 84.70379250685897,96.0616099908547 84,97C82.94431123971154,98.40758501371795 84,112 84,112"/>
<path id="26" d="M128,99C128,99 127.40878378378379,108.57770270270271 128,109C129.15878378378377,109.82770270270271 141.06027397260274,109.87260273972602 142,109C142.81027397260274,108.24760273972603 142.93240082171258,96.93240082171259 142,96C140.92415289802395,94.92415289802393 128,95 128,95"/>
<path id="27" d="M91,134C91,134 90.53846153846153,141.69230769230768 91,142C92.03846153846153,142.69230769230768 102.30990415335463,142.7476038338658 103,142C103.80990415335463,141.1226038338658 103.78531598513011,130.02091078066914 103,129C102.53531598513011,128.39591078066914 93.625,128.375 93,129C92.375,129.625 93,139 93,139"/>
<path id="28" d="M123,125C123,125 122.39591078066914,134.5353159851301 123,135C124.02091078066914,135.7853159851301 135.1875,135.8125 136,135C136.8125,134.1875 136.68315454351352,122.68315454351354 136,122C135.42194615548854,121.42194615548854 124,123 124,123"/>
<path id="29" d="M161,120C161,120 158.51143473074214,132.294294611072 159,133C159.3203176268644,133.46268101658194 169.47515772870662,133.6679810725552 170,133C170.85015772870662,131.9179810725552 170.55429864253392,120.55203619909503 170,119C169.92929864253395,118.80203619909503 165,119 165,119"/>
<path id="30" d="M12,291C12,291 20.405328901162182,296.97475437364323 28,299C33.86353283366155,300.5636087556431 38.30561319549381,300.0865843542665 42,299C43.1797201560608,298.6530234835115 45,294 45,294"/>
<path id="31" d="M47,294C47,294 84.94142651062016,295.4105540199747 95,295C95.23541342209186,294.9903912888942 96,292 96,292"/>
<path id="32" d="M103,295L104,295"/>
<path id="33" d="M129,297C129,297 135.58053260478468,309.0619481575267 142,314C145.76835991636534,316.8987383972041 148.6157443862709,315.8029520724258 155,317C156.41218557354375,317.2647847950395 157.32432432026147,317.5469755502645 158,317C165.15358219659663,311.2090048884694 168.7232702129189,301.99753366704186 176,300C186.32968302820078,297.16440073735663 194.51949164427805,304.71802641508566 209,303C221.05957186011318,301.56920333863064 222.55447044226975,296.6604498699207 235,293C238.44022768262462,291.9881683286398 239.70869531181543,291.9467824997809 243,293C251.0472399626113,295.57511678803564 260,301 260,301"/>
<path id="34" d="M260,301C260,301 292.29621612857255,285.4526038554003 299,283C299.1327126823129,282.95144657964164 301,286 301,286"/>
<path id="35" d="M314,296L299,283"/>
<path id="36" d="M299,283C299,283 327.6515842559764,285.44396498753815 338,284C339.3252908253866,283.8150756987833 341.46737924901566,276.974637107096 342,277C344.52476070271797,277.1202267001294 355.1916391436935,285 359,285C360.79216981473246,285 364.05709772734985,281.30116486002714 367,277C370.1498250886958,272.39640948575225 369.8769559356845,267.55689898049803 372,266C373.6247786206496,264.8084956781903 377.3296730163056,265.166013038626 382,266C390.8235820513369,267.57563965202445 396.5201329496047,269.64671836929073 400,271C400.13570512174243,271.0527742140109 399.93693240842446,272.98686091842177 400,273C403.7272946621136,273.77651972127364 424,276 424,276"/>
<path id="37" d="M424,276C424,276 443.12322595197935,257.60527973290595 455,253C459.8940081199921,251.10232338204386 473,257 473,257"/>
<path id="38" d="M475,257C475,257 492.13476319686805,249.51347631968682 497,250C499.0557338604783,250.20557338604783 501.91246430603564,257.1931493691233 505,260C505.54196105266396,260.4926918660581 508,260 508,260"/>
<path id="39" d="M396,144C396,144 383.4790775818491,150.5741532605786 374,159C366.1901939419986,165.9420498293346 365.2381283975628,166.990419156192 360,176C353.25003435910736,187.60994090233538 352.7011416948271,188.78163680418893 349,202C342.40718226299714,225.54577763215315 339,251 339,251"/>
<path id="40" d="M73,203L87,193"/>
<path id="41" d="M104,193L121,189"/>
<path id="42" d="M162,183L190,178"/>
<path id="43" d="M226,170L265,162"/>
</g>
</g>
</svg>
