<?xml version="1.0" encoding="utf-8"?>
<!DOCTYPE svg PUBLIC "-//W3C//DTD SVG 1.1//EN" "http://www.w3.org/Graphics/SVG/1.1/DTD/svg11.dtd">
<svg viewBox="0 0 800 800" preserveAspectRatio="xMinYMin meet" xmlns="http://www.w3.org/2000/svg" version="1.1">
<g fill="none" stroke="black" stroke-linecap="round" stroke-linejoin="round" stroke-width="2.4194">
<g transform="translate(87.52,183) scale(1.24) translate(-54,-3.1333)">
<path id="0" d="M95 226.1333 C95 226.1333 93.4919 232.2299 95 236.1333 C101.1182 251.9686 104.8382 252.7403 112 270.1333 C122.2033 294.9128 120.2057 298.0188 130 321.1333 C131.832 325.4569 133.1327 326.9234 137 329.1333 C145.5463 334.0169 147.3879 333.6844 158 337.1333 C167.2744 340.1475 167.4825 340.9701 177 342.1333 C211.8131 346.3883 212.5351 346.69 248 348.1333 C298.2974 350.1803 298.9943 347.1951 349 349.1333 C362.9344 349.6734 363.1523 352.9355 377 353.1333 C432.2638 353.9228 459.4417 358.6948 489 351.1333 C495.5495 349.4579 500.4173 335.5522 506 320.1333 C510.2745 308.3277 505.8312 305.2771 510 293.1333 C516.8353 273.2217 522.7119 272.8552 529 253.1333 C533.0899 240.306 529.46 237.1961 532 224.1333 C532.6678 220.699 535.0102 220.6683 536 217.1333 C538.2965 208.9314 536.1973 207.3546 539 199.1333 C543.4334 186.1287 547.4914 186.2443 551 173.1333 C556.63 152.0951 558.0175 128.3377 558 128.1333 C557.9964 128.0912 551.8 132.8133 548 138.1333 C544.77 142.6554 546.5044 144.9507 543 149.1333 C531.9756 162.2915 530.7326 163.6895 517 175.1333 C507.3007 183.2161 506.3539 182.9242 495 189.1333 C474.5235 200.3314 474.2156 202.4427 453 210.1333 C435.5101 216.4734 433.6339 217.7784 415 218.1333 C279.7298 220.7099 275.7489 218.0011 138 216.1333 C129.0362 216.0118 128.4322 216.42 120 214.1333 C99.6287 208.6089 99.3991 207.333 79 200.1333 C73.9329 198.3449 73.1126 198.9299 69 196.1333 C61.2921 190.892 54.1432 183.1845 54 183.1333 C53.9719 183.1233 53.3838 189.455 55 191.1333 C62.7671 199.1991 73.2471 200.6792 80 210.1333 C84.8684 216.9491 80.6752 224.0031 85 233.1333 C88.607 240.7481 91.5971 242.0861 98 248.1333 C99.6236 249.6668 101.9006 248.7896 103 250.1333 C105.2152 252.8408 107 259.1333 107 259.1333 "/>
<path id="1" d="M153 218.1333 C153 218.1333 151.3897 175.3234 153 133.1333 C153.8751 110.2063 153.5928 109.1695 158 87.1333 C160.9069 72.5988 165.9363 72.4072 168 58.1333 C171.6799 32.681 167.8539 12.0025 170 4.1333 C170.1788 3.4776 179.4952 2.666 183 3.1333 C183.6537 3.2205 184.9398 4.8385 185 6.1333 C185.7789 22.8791 185.7079 26.3128 185 46.1333 C184.7156 54.097 184.8884 54.5795 183 62.1333 C180.9971 70.1449 178.59 70.0608 177 78.1333 C172.2453 102.2725 173.1289 103.1018 170 128.1333 C167.6322 147.0761 167.0786 147.1497 166 166.1333 C164.5876 190.9915 165 216.1333 165 216.1333 "/>
<path id="2" d="M214 219.1333 C214 219.1333 212.7928 85.6111 216 51.1333 C216.1011 50.0464 229.4407 46.6051 230 47.1333 C231.3041 48.365 233.4995 57.7474 234 68.1333 C235.4643 98.5177 234.6379 99.197 234 130.1333 C233.6395 147.618 233.8506 148.1075 232 165.1333 C231.4048 170.6089 229.2826 170.7641 229 176.1333 C227.835 198.2687 229 222.1333 229 222.1333 "/>
<path id="3" d="M262 217.1333 C262 217.1333 260.3678 192.9835 262 170.1333 C262.8111 158.7777 264.6128 149.3216 267 147.1333 C268.655 145.6162 279.8023 145.4218 286 148.1333 C291.9586 150.7402 293.5675 157.4163 299 161.1333 C300.4887 162.1519 302.737 162.0134 305 161.1333 C310.5528 158.9739 311.4554 154.9771 317 154.1333 C331.429 151.9376 335.0275 155.7632 351 154.1333 C358.2864 153.3898 365.315 151.0415 366 149.1333 C368.2191 142.9517 364.2927 128.5714 365 115.1333 C365.0866 113.4874 366.7249 111.8619 368 111.1333 C368.9649 110.5819 370.545 110.5271 372 111.1333 C375.6677 112.6615 376.3098 114.714 380 116.1333 C381.8594 116.8485 384.3166 115.4499 385 116.1333 C387.3237 118.457 389.2808 121.9758 391 127.1333 C391.9257 129.9104 390.1287 131.1461 391 134.1333 C393.3701 142.2593 394.4324 144.355 398 151.1333 C398.6173 152.3062 400.71 153.2895 401 153.1333 C403.2385 151.928 407.5156 149.2148 411 144.1333 C418.8227 132.7253 420.1734 124.4079 425 118.1333 C425.6058 117.3457 428.5738 119.0156 431 118.1333 C443.6823 113.5216 457.0965 105.5404 458 106.1333 C459.2593 106.9598 462.0118 122.7296 463 139.1333 C464.4837 163.7626 463.7947 164.498 463 189.1333 C462.8082 195.0776 463.1383 196.8568 461 201.1333 C459.0262 205.0809 453 209.1333 453 209.1333 "/>
<path id="4" d="M229 271.1333 C229 271.1333 226.2911 266.2119 223 264.1333 C217.8972 260.9105 213.5762 258.8082 210 259.1333 C207.2531 259.3831 202.2741 262.8902 201 266.1333 C198.3655 272.8394 197.9277 285.6589 199 287.1333 C199.773 288.1963 210.5817 286.2613 217 288.1333 C219.7194 288.9265 222.2069 291.414 223 294.1333 C224.872 300.5516 224.6291 305.2128 224 312.1333 C223.8499 313.7844 222.4571 315.4048 221 316.1333 C218.8143 317.2262 217.4172 317.1333 214 317.1333 C207.6539 317.1333 206.8095 317.5166 201 316.1333 C197.0712 315.1979 193 312.1333 193 312.1333 "/>
<path id="5" d="M238 273.1333 L237 321.1333 "/>
<path id="6" d="M258 276.1333 L258 319.1333 "/>
<path id="7" d="M237 305.1333 L261 301.1333 "/>
<path id="8" d="M286 279.1333 L285 320.1333 "/>
<path id="9" d="M309 278.1333 L310 326.1333 "/>
<path id="10" d="M307 280.1333 C307 280.1333 311.2266 275.1899 315 274.1333 C321.736 272.2472 330.9165 272.0499 332 273.1333 C333.4898 274.6231 334 286.4647 334 293.1333 C334 293.8002 332.7296 295.1098 332 295.1333 C321.7626 295.4636 303 294.1333 303 294.1333 "/>
</g>
</g>
</svg>
