<?xml version="1.0" encoding="utf-8"?>
<!DOCTYPE svg PUBLIC "-//W3C//DTD SVG 1.1//EN" "http://www.w3.org/Graphics/SVG/1.1/DTD/svg11.dtd">
<svg viewBox="0 0 800 800" preserveAspectRatio="xMinYMin meet" xmlns="http://www.w3.org/2000/svg" version="1.1">
<g fill="none" stroke="black" stroke-linecap="round" stroke-linejoin="round" stroke-width="2.9138">
<g transform="translate(87.52,171.9462) scale(1.0296) translate(-12,-0.13333)">
<path id="0" d="M158 172.1333 C158 172.1333 162.4937 175.7304 165 180.1333 C180.4915 207.3481 181.4168 208.1385 195 237.1333 C207.2932 263.3746 209.5801 289.7734 217 291.1333 C284.3547 303.4781 506 294.1333 506 294.1333 "/>
<path id="1" d="M511 291.1333 C511 291.1333 517.6413 286.6624 519 282.1333 C525.4361 260.6798 522.325 255.6082 529 231.1333 C532.6029 217.9227 533.048 216.9833 540 205.1333 C554.6437 180.1725 573 156.1333 573 156.1333 "/>
<path id="2" d="M574 154.1333 C574 154.1333 558.4137 156.5578 546 153.1333 C517.3123 145.2195 516.1359 138.1922 487 130.1333 C471.0283 125.7156 468.9754 129.8615 452 127.1333 C441.4918 125.4445 441.3347 121.9601 431 121.1333 C392.9136 118.0864 391.2253 121.5849 352 119.1333 C327.5229 117.6035 326.404 118.7254 303 113.1333 C270.972 105.4806 270.7076 99.0514 239 92.1333 C217.4301 87.4272 215.9737 89.6676 193 89.1333 C151.6103 88.1708 110.6819 88.5385 110 89.1333 C109.9981 89.135 135.6966 111.7543 146 130.1333 C150.3046 137.8117 143.5078 146.5969 147 155.1333 C150.5672 163.8531 157.7841 164.9731 164 174.1333 C166.1083 177.2403 164.3003 180.6782 166 183.1333 C167.4479 185.2247 173 187.1333 173 187.1333 "/>
<path id="3" d="M507 136.1333 C507 136.1333 510.9817 134.6907 511 134.1333 C512.0289 102.7507 516.7032 16.7948 511 14.1333 C485.0777 2.0363 309.9724 10.9975 256 15.1333 C254.4224 15.2542 251.3044 24.6465 250 34.1333 C245.9411 63.6526 245 95.1333 245 95.1333 "/>
<path id="4" d="M115 90.1333 C115 90.1333 113.8672 84.5317 115 81.1333 C116.3845 76.9798 117.5674 75.3371 121 72.1333 C124.2578 69.0927 125.4328 68.4593 130 67.1333 C140.1211 64.1949 141.0903 63.9567 152 63.1333 C167.1646 61.9888 170.5212 60.1384 183 63.1333 C191.8076 65.2472 192.2192 70.2429 202 75.1333 C210.8028 79.5347 214.5931 78.3474 221 82.1333 C222.8126 83.2044 224 88.1333 224 88.1333 "/>
<path id="5" d="M203 76.1333 L211 91.1333 "/>
<path id="6" d="M181 65.1333 L189 88.1333 "/>
<path id="7" d="M159 64.1333 L163 95.1333 "/>
<path id="8" d="M134 69.1333 L134 90.1333 "/>
<path id="9" d="M449 1.1333 C449 1.1333 445.9625 22.0464 447 23.1333 C448.1337 24.321 469.3877 23.6015 470 23.1333 C470.1049 23.0531 465.6906 16.3324 464 10.1333 C462.9604 6.3215 464.4963 1.4311 464 1.1333 C462.6213 0.30613 449 1.1333 449 1.1333 "/>
<path id="10" d="M429 4.1333 C429 4.1333 430.053 21.4043 429 22.1333 C426.803 23.6543 405.0418 23.704 403 22.1333 C401.7918 21.204 402.191 8.0657 403 2.1333 C403.0974 1.4187 404.6897 0.2237 406 0.13333 C416.8567 -0.61541 432 0.13333 432 0.13333 "/>
<path id="11" d="M206 265.1333 C206 265.1333 250.5365 259.0835 295 257.1333 C364.214 254.0976 365.3661 254.3114 434 255.1333 C447.8516 255.2992 449.3134 255.127 462 259.1333 C476.4892 263.7089 477.1853 269.7987 491 273.1333 C503.373 276.1199 507.484 274.7802 520 273.1333 C524.1682 272.5849 529 268.1333 529 268.1333 "/>
<path id="12" d="M202 250.1333 L521 250.1333 "/>
<path id="13" d="M467 186.1333 C467 186.1333 452.2108 184.7766 440 186.1333 C435.7287 186.6079 431.8585 188.2017 431 190.1333 C428.3887 196.0087 427.185 204.1684 428 213.1333 C428.3782 217.2931 431.8909 222.4584 434 223.1333 C438.209 224.4802 444.0251 223.2702 453 221.1333 C464.4764 218.4008 473.1814 216.6873 476 213.1333 C478.2556 210.2893 478.0404 196.7243 476 192.1333 C474.8988 189.6556 464 186.1333 464 186.1333 "/>
<path id="14" d="M346 170.1333 C346 170.1333 342.8962 173.1459 342 176.1333 C340.1826 182.1912 339.7982 183.4745 340 190.1333 C340.2764 199.253 340.164 203.6795 343 209.1333 C344.5449 212.1043 348.8403 214.7552 353 215.1333 C361.965 215.9483 367.0322 215.216 376 212.1333 C380.3848 210.6261 384.7343 205.6391 385 204.1333 C385.2201 202.8862 382.5164 198.4428 379 195.1333 C374.7261 191.1108 373.6909 190.3752 368 188.1333 C357.9219 184.1632 356.0407 186.02 346 182.1333 C341.3259 180.324 337 176.1333 337 176.1333 "/>
<path id="15" d="M104 316.1333 C104 316.1333 151.5877 309.3085 189 317.1333 C221.7032 323.9732 226.0783 338.2792 257 348.1333 C265.879 350.9629 270.5122 349.5489 280 346.1333 C293.1037 341.416 293.3765 337.1197 307 330.1333 C312.4375 327.3449 313.0249 327.0526 319 326.1333 C331.9338 324.1435 332.5756 324.3966 346 324.1333 C357.9058 323.8999 358.3665 323.6791 370 325.1333 C377.9566 326.1279 378.1454 326.7165 386 329.1333 C430.042 342.6847 431.7244 347.3774 474 357.1333 C486.8755 360.1046 489.9069 359.2683 503 356.1333 C523.5227 351.2194 524.6654 344.0066 545 340.1333 C563.9589 336.5221 587 340.1333 587 340.1333 "/>
<path id="16" d="M12 293.1333 C12 293.1333 55.3719 286.4505 86 288.1333 C93.2907 288.5339 94.4059 294.8815 103 298.1333 C111.8958 301.4993 114.1412 302.9104 123 302.1333 C140.0373 300.6388 141.9934 298.7128 160 293.1333 C177.2099 287.8007 177.7502 285.0461 194 280.1333 C197.8557 278.9677 203 280.1333 203 280.1333 "/>
<path id="17" d="M340 318.1333 C340 318.1333 379.3656 315.8588 415 318.1333 C424.2093 318.7212 424.608 322.6391 434 324.1333 C445.8416 326.0172 447.4445 326.9755 459 325.1333 C480.3581 321.7284 481.4344 317.1147 503 313.1333 C512.7993 311.3242 513.8947 312.2147 524 313.1333 C529.9057 313.6702 531.1809 314.025 536 316.1333 C538.0815 317.044 540 320.1333 540 320.1333 "/>
<path id="18" d="M536 286.1333 C536 286.1333 541.3425 281.972 547 280.1333 C560.6632 275.6928 568.0012 271.1336 576 273.1333 C584.219 275.1881 587.6467 285.2204 599 293.1333 C602.7161 295.7234 604.8464 293.8489 609 296.1333 C614.134 298.957 619 304.1333 619 304.1333 "/>
<path id="19" d="M34 390.1333 C34 390.1333 69.4616 381.034 105 374.1333 C120.7183 371.0812 123.889 367.2653 137 370.1333 C166.2628 376.5346 201 395.1333 201 395.1333 "/>
<path id="20" d="M248 403.1333 C248 403.1333 291.2285 401.009 333 397.1333 C338.9947 396.5771 345 394.1333 345 394.1333 "/>
<path id="21" d="M405 383.1333 L481 399.1333 "/>
<path id="22" d="M526 406.1333 C526 406.1333 533.1068 413.4601 541 419.1333 C548.8426 424.7702 558 429.1333 558 429.1333 "/>
<path id="23" d="M598 403.1333 L584 398.1333 "/>
<path id="24" d="M451 443.1333 C451 443.1333 440.3953 444.8813 431 443.1333 C398.5972 437.1049 394.328 430.0339 365 427.1333 C354.4515 426.0901 340 434.1333 340 434.1333 "/>
<path id="25" d="M180 437.1333 C180 437.1333 155.0279 439.1734 131 437.1333 C102.6745 434.7283 74 428.1333 74 428.1333 "/>
</g>
</g>
</svg>
