<?xml version="1.0" encoding="utf-8"?>
<!DOCTYPE svg PUBLIC "-//W3C//DTD SVG 1.1//EN" "http://www.w3.org/Graphics/SVG/1.1/DTD/svg11.dtd">
<svg viewBox="0 0 800 800" preserveAspectRatio="xMinYMin meet" xmlns="http://www.w3.org/2000/svg" version="1.1">
<g fill="none" stroke="black" stroke-linecap="round" stroke-linejoin="round" stroke-width="2.0977">
<g transform="translate(87.52,91.8103) scale(1.4301) translate(-77,-9.4167)">
<path id="0" d="M77 254.4167 C77 254.4167 82.8941 276.9733 93 295.4167 C102.1685 312.1492 108.2679 311.458 117 327.4167 C121.5924 335.8097 122 348.4167 122 348.4167 "/>
<path id="1" d="M78 253.4167 C78 253.4167 86.7818 252.2679 95 253.4167 C132.6185 258.6752 133.43 265.3146 171 266.4167 C318.0414 270.7299 320.7986 266.5916 470 264.4167 C491.9757 264.0963 514 261.4167 514 261.4167 "/>
<path id="2" d="M511 263.4167 C511 263.4167 504.6602 270.4863 501 278.4167 C487.0052 308.7387 475 341.4167 475 341.4167 "/>
<path id="3" d="M126 349.4167 L125 349.4167 "/>
<path id="4" d="M123 351.4167 C123 351.4167 136.79 349.5779 150 350.4167 C167.8106 351.5475 168.1155 354.9171 186 355.4167 C256.7666 357.3934 257.5421 355.8297 329 355.4167 C343.9941 355.33 344.2192 355.9382 359 354.4167 C377.9616 352.4647 378.1157 349.9478 397 348.4167 C414.6643 346.9844 415.9011 349.8125 433 348.4167 C439.3297 347.9 439.6688 344.9443 446 344.4167 C462.6193 343.0317 481 344.4167 481 344.4167 "/>
<path id="5" d="M148 183.4167 C148 183.4167 146.0739 189.5017 146 195.4167 C145.582 228.8591 147 263.4167 147 263.4167 "/>
<path id="6" d="M154 182.4167 C154 182.4167 173.7133 176.6696 193 176.4167 C324.2676 174.6951 459 178.4167 459 178.4167 "/>
<path id="7" d="M459 179.4167 C459 179.4167 461.9725 185.4231 463 191.4167 C464.8906 202.4454 464.5635 202.9226 465 214.4167 C466.06 242.329 466 270.4167 466 270.4167 "/>
<path id="8" d="M123 148.4167 L122 180.4167 "/>
<path id="9" d="M126 145.4167 C126 145.4167 172.7057 140.8464 219 134.4167 C244.5891 130.8626 244.6952 127.8921 270 125.4167 C289.9979 123.4604 290.6648 126.3138 311 125.4167 C324.4571 124.823 324.5433 122.9934 338 122.4167 C359.3295 121.5025 359.9393 120.5853 381 122.4167 C405.3402 124.5332 405.6609 128.2289 430 130.4167 C449.5813 132.1768 470 130.4167 470 130.4167 "/>
<path id="10" d="M477 131.4167 L477 179.4167 "/>
<path id="11" d="M474 179.4167 L463 179.4167 "/>
<path id="12" d="M129 185.4167 L156 186.4167 "/>
<path id="13" d="M216 61.4167 L216 129.4167 "/>
<path id="14" d="M217 58.4167 L271 57.4167 "/>
<path id="15" d="M271 57.4167 L275 122.4167 "/>
<path id="16" d="M339 53.4167 L341 119.4167 "/>
<path id="17" d="M341 52.4167 C341 52.4167 346.6038 49.9226 352 49.4167 C362.045 48.475 373 49.4167 373 49.4167 "/>
<path id="18" d="M376 49.4167 L379 122.4167 "/>
<path id="19" d="M214 57.4167 C214 57.4167 211.02 57.2909 210 56.4167 C208.47 55.1053 207.5379 53.7475 207 51.4167 C206.244 48.1408 206.2602 46.1291 207 43.4167 C207.3531 42.1221 208.3767 41.1381 210 40.4167 C216.4516 37.5493 220.6051 38.3466 225 35.4167 C226.8379 34.1914 225.9472 30.2129 228 28.4167 C232.3025 24.652 234.8797 22.6407 241 21.4167 C250.3505 19.5466 253.8533 23.4493 263 21.4167 C269.5598 19.9589 270.9934 14.1867 277 13.4167 C286.8402 12.1551 289.8638 16.6189 302 16.4167 C319.0571 16.1324 333.3943 11.4151 337 12.4167 C337.5202 12.5612 339.6252 23.1662 338 26.4167 C336.0136 30.3894 329.3161 31.2913 325 36.4167 C322.6251 39.2369 324.3018 42.971 322 45.4167 C318.0606 49.6023 314.8596 52.3912 309 53.4167 C298.0844 55.3269 294.9477 52.0467 282 52.4167 C278.1321 52.5272 274 54.4167 274 54.4167 "/>
<path id="20" d="M343 49.4167 C343 49.4167 343.6508 43.9405 346 40.4167 C351.0544 32.835 353.3933 28.3167 359 25.4167 C363.3214 23.1814 369.1684 27.5373 375 25.4167 C382.7865 22.5852 383.9942 15.0381 392 13.4167 C417.8792 8.1753 424.4342 9.8162 454 9.4167 C459.6981 9.3397 464.8884 10.9345 466 12.4167 C467.2042 14.0223 467.9451 23.35 466 25.4167 C458.3517 33.543 449.9489 37.0807 434 46.4167 C430.127 48.6838 429.3476 49.1268 425 49.4167 C407.9875 50.5508 405.0679 48.269 389 49.4167 C386.2264 49.6148 383 52.4167 383 52.4167 "/>
<path id="21" d="M165 286.4167 C165 286.4167 156.4326 285.9149 153 287.4167 C151.1716 288.2166 149.8527 290.6454 149 293.4167 C148.1745 296.0995 148.3655 298.5132 149 300.4167 C149.2719 301.2324 150.7551 302.3434 152 302.4167 C157.5669 302.7441 164.6886 302.447 166 301.4167 C166.6969 300.8691 166.987 295.1178 166 291.4167 C165.4012 289.1713 162 286.4167 162 286.4167 "/>
<path id="22" d="M261 292.4167 C261 292.4167 255.1643 290.7816 254 291.4167 C252.5897 292.1859 250.8213 295.1317 250 298.4167 C249.0761 302.1123 248.981 303.7482 250 307.4167 C251.1763 311.6513 252.514 314.8974 255 316.4167 C258.3673 318.4745 267.5487 318.9027 268 318.4167 C268.717 317.6445 268.9447 309.6597 268 302.4167 C267.5636 299.0707 266.7581 297.6771 265 295.4167 C264.0372 294.1788 261 293.4167 261 293.4167 "/>
<path id="23" d="M347 294.4167 C347 294.4167 341.4611 292.1245 340 292.4167 C339.1588 292.5849 337.2955 294.6434 337 296.4167 C336.0805 301.9334 336.1272 305.4708 337 310.4167 C337.22 311.6635 338.7463 313.1816 340 313.4167 C344.5748 314.2744 352.1395 314.3387 353 313.4167 C354.13 312.2059 355.242 302.7636 354 298.4167 C353.3247 296.0533 347 292.4167 347 292.4167 "/>
<path id="24" d="M440 291.4167 C440 291.4167 429.8621 289.8718 426 291.4167 C423.4621 292.4318 421.4524 295.7856 420 299.4167 C419.0224 301.8606 419.1745 303.7338 420 306.4167 C420.8527 309.188 421.6778 310.3056 424 312.4167 C426.6125 314.7916 427.9242 315.8739 431 316.4167 C434.9211 317.1086 437.8199 316.7796 441 315.4167 C442.8732 314.6139 444.4749 312.6484 445 310.4167 C446.0606 305.909 446.0285 302.5309 445 298.4167 C444.5714 296.7024 441 294.4167 441 294.4167 "/>
<path id="25" d="M80 251.4167 L80 219.4167 "/>
<path id="26" d="M83 220.4167 C83 220.4167 86.1957 227.8845 91 233.4167 C102.2501 246.3713 116 258.4167 116 258.4167 "/>
<path id="27" d="M123 351.4167 C123 351.4167 119.7446 352.1401 119 353.4167 C114.2171 361.6159 110.4801 365.0559 109 375.4167 C106.4188 393.4848 110 416.4167 110 416.4167 "/>
<path id="28" d="M110 407.4167 C110 407.4167 103.0868 401.197 98 399.4167 C95.3707 398.4964 92.1985 399.0637 90 400.4167 C87.6248 401.8783 85.8896 404.2142 85 407.4167 C83.8335 411.6159 84.975 418.3043 85 418.4167 C85.0035 418.4326 87 416.4167 87 416.4167 "/>
<path id="29" d="M109 407.4167 C109 407.4167 108.8922 403.2629 110 401.4167 C111.1749 399.4585 112.6202 398.1166 115 397.4167 C119.737 396.0234 124.0868 395.1057 127 396.4167 C130.1528 397.8354 132.78 401.9766 135 406.4167 C135.9514 408.3196 135 412.4167 135 412.4167 "/>
<path id="30" d="M111 417.4167 C111 417.4167 106.3394 416.7149 104 417.4167 C102.6966 417.8077 101.2981 419.0751 101 420.4167 C99.7624 425.9861 99.1778 429.9356 100 435.4167 C100.31 437.4836 103.8651 440.3627 104 440.4167 C104.0045 440.4185 105 437.4167 105 437.4167 "/>
<path id="31" d="M109 420.4167 C109 420.4167 109.4764 417.6785 110 417.4167 C111.5708 416.6313 115.4475 415.6404 117 416.4167 C119.6273 417.7303 122.2138 420.4473 124 424.4167 C126.0666 429.009 126.5207 433.8131 126 436.4167 C125.8204 437.3145 121 439.4167 121 439.4167 "/>
<path id="32" d="M82 419.4167 L89 420.4167 "/>
<path id="33" d="M137 413.4167 C137 413.4167 126.0002 413.4167 126 413.4167 C125.9999 413.4166 132 412.4167 132 412.4167 "/>
<path id="34" d="M204 223.4167 L203 262.4167 "/>
<path id="35" d="M206 223.4167 L231 218.4167 "/>
<path id="36" d="M231 218.4167 L231 265.4167 "/>
<path id="37" d="M126 120.4167 L126 141.4167 "/>
<path id="38" d="M142 119.4167 C142 119.4167 152.9952 115.4175 164 113.4167 C174.6582 111.4788 186 111.4167 186 111.4167 "/>
<path id="39" d="M125 118.4167 C125 118.4167 127.4643 115.431 130 114.4167 C134.1493 112.7569 135.0435 112.6527 140 112.4167 C166.0449 111.1764 187.6772 109.1068 193 111.4167 C194.0546 111.8743 193 135.4167 193 135.4167 "/>
</g>
</g>
</svg>
