<?xml version="1.0" encoding="utf-8"?>
<!DOCTYPE svg PUBLIC "-//W3C//DTD SVG 1.1//EN" "http://www.w3.org/Graphics/SVG/1.1/DTD/svg11.dtd">
<svg viewBox="0 0 800 800" preserveAspectRatio="xMinYMin meet" xmlns="http://www.w3.org/2000/svg" version="1.1">
<g fill="none" stroke="black" stroke-linecap="round" stroke-linejoin="round" stroke-width="2.741">
<g transform="translate(87.52,222.6909) scale(1.0945) translate(-25,-60)">
<path id="0" d="M94 235 C94 235 110.8833 267.0012 123 300 C134.1495 330.3645 132.3488 352.0196 141 363 C144.3389 367.2378 158.053 365.8381 175 366 C314.446 367.3323 317.4385 368.6454 455 366 C470.778 365.6966 471.1359 361.4422 487 360 C503.5731 358.4934 505.7895 360.8006 521 360 C522.8366 359.9033 524.3198 359.3013 525 358 C552.2648 305.8413 562.3898 287.0433 590 228 C591.5492 224.687 590 219 590 219 "/>
<path id="1" d="M90 234 L580 234 "/>
<path id="2" d="M281 66 C281 66 273.3493 108.7135 271 151 C268.8872 189.0304 272 228 272 228 "/>
<path id="3" d="M280 60 C280 60 290.118 63.4867 300 64 C327.874 65.448 356.3047 61.914 357 64 C363.014 82.0421 355 229 355 229 "/>
<path id="4" d="M363 100 C363 100 393.7788 99.101 394 100 C397.6538 114.851 394 226 394 226 "/>
<path id="5" d="M396 125 C396 125 440.979 122.8027 442 125 C446.729 135.1777 442 224 442 224 "/>
<path id="6" d="M444 159 C444 159 452.8735 157.6902 453 157 C455.0234 145.9631 451.8832 108.5062 455 99 C455.473 97.5573 472.9944 95.9599 473 96 C474.5767 107.2118 473 227 473 227 "/>
<path id="7" d="M472 157 C472 157 485.2623 156.0164 489 157 C489.729 157.1918 490.8688 159.6059 491 162 C492.7487 193.9131 493 230 493 230 "/>
<path id="8" d="M296 97 C296 97 295.2159 109.4004 296 110 C297.3409 111.0254 311.6591 111.0254 313 110 C313.7841 109.4004 313.8773 97.6823 313 97 C311.3708 95.7328 295 96 295 96 "/>
<path id="9" d="M324 96 C324 96 324.0832 108.4818 325 109 C327.4161 110.3656 346.542 109.458 347 109 C347.1665 108.8335 342.4122 95.5679 340 94 C338.3151 92.9048 327 96 327 96 "/>
<path id="10" d="M370 141 C370 141 367.8734 148.9325 368 149 C368.9492 149.5063 383.7609 149.7744 385 149 C385.3827 148.7608 384.8021 139.5347 384 139 C382.5354 138.0236 370 139 370 139 "/>
<path id="11" d="M409 134 C409 134 408.7828 141.9503 409 142 C413.1578 142.9503 441.7977 142.4672 444 142 C444.0324 141.9931 442.582 135.0873 442 135 C434.7778 133.9167 404 136 404 136 "/>
<path id="12" d="M457 108 C457 108 455.5439 117.5439 456 118 C456.5575 118.5575 466.0213 118.6228 467 118 C467.3963 117.7478 467.516 111.4128 467 111 C466.0049 110.2039 457 110 457 110 "/>
<path id="13" d="M481 162 C481 162 480.4548 170.299 481 171 C481.3298 171.424 487.9209 171.1385 488 171 C488.1045 170.817 486.458 164.8972 485 164 C482.8821 162.6967 475 163 475 163 "/>
<path id="14" d="M291 143 C291 143 289.924 149.9795 290 150 C292.3198 150.6246 314.615 150.8256 317 150 C317.1869 149.9353 316.5549 141.185 316 141 C312.3933 139.7978 290 141 290 141 "/>
<path id="15" d="M331 141 C331 141 331.3203 150.7045 332 151 C334.796 152.2156 351.6442 151.9637 354 151 C354.3942 150.8387 354.3725 142.1656 354 142 C352.3652 141.2734 336 143 336 143 "/>
<path id="16" d="M124 129 L124 224 "/>
<path id="17" d="M128 138 C128 138 122.0031 141.551 116 143 C108.0533 144.9182 107.4636 144.7547 99 145 C73.1995 145.7478 47.0016 144.9992 47 145 C46.9989 145.0005 65.5008 149.515 84 152 C98.7586 153.9825 99.0185 153.3342 114 154 C121.4686 154.3319 123.6104 154.6341 129 154 C129.8031 153.9055 131 152 131 152 "/>
<path id="18" d="M125 163 L125 234 "/>
<path id="19" d="M26 383 C26 383 24.1752 376.283 25 375 C26.3933 372.8326 29.9756 370.3159 35 369 C49.4633 365.212 51.4227 365.4836 67 364 C71.7509 363.5475 74.637 363.2589 77 365 C81.0888 368.0128 83.2003 377.6734 86 378 C99.3905 379.5622 117.6256 371.0918 137 372 C142.1271 372.2403 144.2442 379.561 150 381 C157.0769 382.7692 160.1821 382.047 169 380 C187.2416 375.7653 187.9944 371.8583 206 368 C214.6453 366.1474 217.1503 366.2275 225 368 C230.6108 369.2669 231.381 373.3611 237 375 C241.802 376.4006 243.252 375.8843 249 375 C268.7495 371.9616 269.0209 369.6999 289 367 C305.6668 364.7477 306.5262 364.6705 323 365 C330.7906 365.1558 331.8193 365.2256 339 368 C352.981 373.4017 353.1506 376.4602 367 382 C372.276 384.1104 373.5102 384.6417 379 384 C409.9269 380.3852 411.8847 377.9756 444 373 C446.8888 372.5524 447.9344 372.0121 450 373 C457.6635 376.6652 460.8049 383.6128 467 384 C477.6827 384.6677 482.5826 379.0835 498 376 C504.7156 374.6569 505.0096 375.3177 512 375 C515.9816 374.819 517.0393 374.0131 520 375 C523.2074 376.0691 524.4882 380 527 380 C536.6884 380 540.6157 376.4548 554 375 C563.2328 373.9964 564.3344 373.3494 573 375 C584.185 377.1305 596 383 596 383 "/>
<path id="20" d="M167 262 C167 262 162.5078 261.4922 162 262 C161.086 262.914 159.6747 268.6747 160 269 C161.1059 270.1059 170.7859 273.3907 173 273 C173.9428 272.8336 177.188 266.3447 177 266 C176.631 265.3235 167 262 167 262 "/>
<path id="21" d="M247 261 C247 261 244.6554 260.5318 244 261 C242.3458 262.1816 240.5597 263.7613 240 266 C238.9739 270.1043 239.2203 276.3317 240 277 C241.2286 278.0531 248.7166 278.587 254 278 C255.6484 277.8168 257.4924 276.269 258 275 C258.7724 273.069 258.3808 268.2222 258 268 C256.8808 267.3472 246 268 246 268 "/>
<path id="22" d="M336 261 C336 261 332.75 261.8215 332 263 C330.2 265.8285 328.8432 270.1182 329 272 C329.0597 272.7169 331.2374 274.7356 333 275 C339.3374 275.9506 344.565 276.3305 349 275 C350.6077 274.5177 353.1658 269.2261 353 269 C351.9185 267.5253 338 260 338 260 "/>
<path id="23" d="M399 262 C399 262 397.8247 269.8831 398 270 C398.3507 270.2338 405.5099 269.4525 408 268 C409.0964 267.3605 410.1784 263.2039 410 263 C409.4031 262.3179 401 260 401 260 "/>
<path id="24" d="M482 261 C482 261 475.8469 261.7296 475 263 C473.0945 265.8583 471.2587 273.1832 472 276 C472.4921 277.8698 476.3562 280.714 480 282 C483.2412 283.144 486.4131 282.995 489 282 C490.7025 281.3452 492.4749 279.2317 493 277 C494.0606 272.4923 493.6282 265.5759 493 265 C492.367 264.4198 481 266 481 266 "/>
</g>
</g>
</svg>
