<?xml version="1.0" encoding="utf-8"?>
<!DOCTYPE svg PUBLIC "-//W3C//DTD SVG 1.1//EN" "http://www.w3.org/Graphics/SVG/1.1/DTD/svg11.dtd">
<svg viewBox="0 0 800 800" preserveAspectRatio="xMinYMin meet" xmlns="http://www.w3.org/2000/svg" version="1.1">
<g fill="none" stroke="black" stroke-linecap="round" stroke-linejoin="round" stroke-width="1.7713">
<g transform="translate(87.52,156.96) scale(1.6937) translate(-118,-43)">
<path id="0" d="M118 183 C118 183 130.51 195.5653 142 203 C145.5129 205.273 148.5715 203.4176 152 205 C153.5211 205.702 153.4241 208.2646 155 209 C159.339 211.0249 161.6775 209.6581 167 212 C173.6011 214.9045 173.957 217.9857 180 220 C184.2429 221.4143 186.406 218.5434 191 220 C205.2507 224.5185 206.4266 230.8608 221 233 C257.2827 238.3259 261.1547 233.4939 300 236 C306.9621 236.4492 307.146 238.8858 314 239 C365.7017 239.8617 375.2972 239.2304 420 238 C421.2881 237.9645 421.6499 236.1008 423 236 C450.5341 233.9452 487 233 487 233 "/>
<path id="1" d="M120 184 C120 184 124.0039 186.6732 126 190 C131.0734 198.4556 129.5083 200.5336 135 209 C141.1312 218.4522 145.9118 217.757 150 227 C156.2297 241.0846 152.191 245.5095 158 261 C162.2193 272.2516 165.634 271.7314 171 283 C175.4415 292.3271 176.5519 293.2768 178 303 C179.8581 315.476 177.7396 329.9794 178 330 C214.8683 332.9203 481 327 481 327 "/>
<path id="2" d="M486 232 C486 232 487.3848 307.0082 486 326 C485.963 326.5072 479 328 479 328 "/>
<path id="3" d="M119 180 C119 180 238.9728 179.8108 354 185 C369.3137 185.6908 369.5902 190.0116 385 192 C400.0358 193.9401 401.4539 190.1246 416 193 C443.1187 198.3607 447.7026 199.6811 471 209 C476.3121 211.1248 477.2709 213.8367 481 219 C483.2014 222.048 483.4564 223.4665 484 227 C484.3113 229.0237 483 232 483 232 "/>
<path id="4" d="M259 202 L264 44 "/>
<path id="5" d="M264 44 C264 44 260.5875 43.8661 259 45 C254.7138 48.0616 253.3758 49.0038 250 54 C241.3124 66.8577 243.2295 69.7845 234 82 C226.9551 91.3242 223.8913 90.1223 216 99 C212.3333 103.125 213.2786 105.7214 210 109 C207.9509 111.0491 203.0214 111.9464 203 112 C203 112 205.6304 113.9183 208 114 C259.9226 115.7904 317.3572 116.1626 319 116 C319.1306 115.9871 313.0341 110.3697 309 104 C303.785 95.7658 305.8787 93.4122 300 86 C283.7833 65.5528 263 46 263 46 "/>
<path id="6" d="M221 256 C221 256 336.7804 256.8863 452 256 C466.4725 255.8887 481 254 481 254 "/>
<path id="7" d="M221 257 C221 257 213.3008 248.9734 205 246 C181.8312 237.7007 154 233 154 233 "/>
<path id="8" d="M266 43 L303 43 "/>
<path id="9" d="M301 43 L300 60 "/>
<path id="10" d="M266 68 C266 68 277.002 68.3331 287 67 C291.447 66.4071 296 64 296 64 "/>
<path id="11" d="M267 48 L301 49 "/>
<path id="12" d="M267 58 L303 58 "/>
<path id="13" d="M300 59 C300 59 298.8673 63.3805 298 64 C297.2217 64.556 293 64 293 64 "/>
<path id="14" d="M290 53 C290 53 283.3412 50.8538 283 51 C282.881 51.051 282.8597 55.813 283 56 C283.0351 56.0468 285.6622 55.4504 286 55 C286.3118 54.5842 286.3831 52.4789 286 52 C285.3359 51.1699 282 50 282 50 "/>
</g>
</g>
</svg>
