<?xml version="1.0" encoding="utf-8"?>
<!DOCTYPE svg PUBLIC "-//W3C//DTD SVG 1.1//EN" "http://www.w3.org/Graphics/SVG/1.1/DTD/svg11.dtd">
<svg viewBox="0 0 800 800" preserveAspectRatio="xMinYMin meet" xmlns="http://www.w3.org/2000/svg" version="1.1">
<g fill="none" stroke="black" stroke-linecap="round" stroke-linejoin="round" stroke-width="1.5601">
<g transform="translate(94.2503,87.52) scale(1.923) translate(-141,-25)">
<path id="0" d="M141 242 C141 242 142.9669 258.0201 147 273 C149.8631 283.6343 150.2142 284.1468 155 294 C158.5331 301.2739 158.922 301.8529 164 308 C168.0892 312.9501 168.5234 313.6664 174 317 C190.8296 327.2441 191.7175 328.4057 210 336 C223.4635 341.5926 224.7656 342.4401 239 344 C259.9632 346.2973 261.1376 342.8594 283 344 C318.4335 345.8487 318.5795 347.7391 354 350 C365.4127 350.7285 365.9897 351.2803 377 350 C386.8525 348.8544 387.9294 348.5733 397 345 C403.6685 342.373 404.3147 341.6701 410 337 C417.9366 330.4807 418.368 330.0388 425 322 C434.6543 310.2978 436.8662 309.9249 443 297 C450.0854 282.0701 449.6357 279.8214 453 263 C454.9812 253.0941 454 242 454 242 "/>
<path id="1" d="M143 240 C143 240 166.1341 239.1205 189 240 C204.964 240.614 205.066 242.8806 221 243 C337.9297 243.8759 456 242 456 242 "/>
<path id="2" d="M307 243 C307 243 306.4788 82.8066 307 26 C307.0024 25.7334 309 25 309 25 "/>
<path id="3" d="M309 25 C309 25 338.1123 58.27 365 93 C385.9992 120.124 383.5813 122.5743 405 149 C421.7117 169.6183 423.4816 170.2867 442 188 C445.435 191.2856 451 193 451 193 "/>
<path id="4" d="M310 203 C310 203 329.531 200.5358 349 200 C383.8706 199.0403 384.6273 198.5055 419 200 C429.8883 200.4734 430.089 202.9089 441 204 C449.7677 204.8768 458.2089 204.5274 459 204 C459.1612 203.8926 458.1258 197.3069 456 194 C454.5998 191.8218 450 190 450 190 "/>
</g>
</g>
</svg>
