<?xml version="1.0" encoding="utf-8"?>
<!DOCTYPE svg PUBLIC "-//W3C//DTD SVG 1.1//EN" "http://www.w3.org/Graphics/SVG/1.1/DTD/svg11.dtd">
<svg viewBox="0 0 800 800" preserveAspectRatio="xMinYMin meet" xmlns="http://www.w3.org/2000/svg" version="1.1">
<g fill="none" stroke="black" stroke-linecap="round" stroke-linejoin="round" stroke-width="0.96966">
<g transform="translate(87.52,271.6048) scale(3.0939) translate(-179,-148)">
<path id="0" d="M179 222 C179 222 186.1363 224.1605 192 223 C231.8292 215.1171 233.6351 210.7983 275 203 C293.8615 199.4441 295.1196 202.5416 314 200 C320.487 199.1268 327 196 327 196 "/>
<path id="1" d="M327 196 C327 196 322.9186 192.4448 322 189 C319.3764 179.1616 318.814 168.1385 319 166 C319.0036 165.9591 322.7637 166.7418 324 166 C326.1264 164.7241 326.8478 161.0761 329 160 C330.8831 159.0584 333.6606 160.7018 336 160 C337.3034 159.609 337.8725 157.1735 339 157 C342.2071 156.5066 346.3934 158.9775 349 158 C351.3358 157.1241 353.6936 151.1633 355 151 C356.7814 150.7773 362.9103 156.1306 365 156 C366.3752 155.9141 368.8147 150.9933 371 150 C372.1382 149.4826 374.6493 151.3377 376 151 C377.0664 150.7334 378.9956 147.9655 379 148 C379.0714 148.5568 382.7318 184.5571 381 190 C380.7031 190.9331 371.4031 189.1889 365 192 C352.8507 197.3339 352.5471 202.9329 340 208 C328.4269 212.6738 326.3879 211.7127 313 213 C300.8207 214.1711 300.0018 211.3074 288 213 C261.8114 216.6933 261.2119 220.6859 235 224 C218.6148 226.0717 216.7936 221.9527 201 224 C191.2881 225.2589 182.528 231.0728 181 231 C180.8927 230.9949 179.5306 225.8165 180 223 C180.2697 221.382 183 219 183 219 "/>
</g>
</g>
</svg>
