<?xml version="1.0" encoding="utf-8"?>
<!DOCTYPE svg PUBLIC "-//W3C//DTD SVG 1.1//EN" "http://www.w3.org/Graphics/SVG/1.1/DTD/svg11.dtd">
<svg viewBox="0 0 800 800" preserveAspectRatio="xMinYMin meet" xmlns="http://www.w3.org/2000/svg" version="1.1">
<g fill="none" stroke="black" stroke-linecap="round" stroke-linejoin="round" stroke-width="2.5682">
<g transform="translate(87.52,354.4422) scale(1.1681) translate(-89,-145.1333)">
<path id="0" d="M110 187.1333 C110 187.1333 248.9222 183.6568 355 186.1333 C360.2669 186.2563 361.6339 192.8279 367 193.1333 C415.0416 195.8674 478 193.1333 478 193.1333 "/>
<path id="1" d="M114 215.1333 C114 215.1333 259.2982 212.6136 352 214.1333 C354.3691 214.1722 354.8882 217.8603 358 219.1333 C364.8214 221.9239 366.1844 222.891 374 223.1333 C428.773 224.8317 431.8602 226.0546 487 223.1333 C505.7494 222.14 506.0251 217.0963 525 215.1333 C563.3206 211.1691 564.6455 214.3295 603 211.1333 C611.9766 210.3853 621 207.1333 621 207.1333 "/>
<path id="2" d="M476 194.1333 C476 194.1333 480.2791 190.1669 484 189.1333 C487.9631 188.0325 491.1564 189.8442 494 189.1333 C494.782 188.9378 495.9184 187.4393 496 186.1333 C496.7575 174.0137 495.4961 164.692 496 157.1333 C496.0197 156.8379 497.0645 156.2373 498 156.1333 C501.102 155.7887 504.9518 155.9338 505 156.1333 C505.8268 159.5588 503.4185 182.4354 505 185.1333 C505.5435 186.0604 521.5944 185.9685 522 185.1333 C523.7194 181.5935 521.1436 153.3687 522 150.1333 C522.0338 150.0055 530.8821 150.6619 531 151.1333 C532.2693 156.2106 529.2879 183.6768 531 186.1333 C531.6863 187.1181 553.3638 185.3351 554 184.1333 C555.3173 181.6451 548.1836 155.1267 549 152.1333 C549.1284 151.6626 562.5844 150.4243 563 151.1333 C564.8316 154.2578 563.6432 178.0592 566 181.1333 C567.1188 182.5927 585.3284 182.2415 586 181.1333 C587.8284 178.1165 584.599 156.5393 586 148.1333 C586.1698 147.1144 591.9854 145.0644 592 145.1333 C592.3067 146.5794 590.8491 177.6137 593 181.1333 C593.754 182.3671 612.6498 182.281 614 181.1333 C614.8648 180.3983 614.8537 171.7799 613 164.1333 C611.0974 156.2852 606 148.1333 606 148.1333 "/>
<path id="3" d="M609 146.1333 L622 148.1333 "/>
<path id="4" d="M616 150.1333 L617 178.1333 "/>
<path id="5" d="M621 150.1333 L621 178.1333 "/>
<path id="6" d="M624 178.1333 L624 203.1333 "/>
<path id="7" d="M516 156.1333 L516 184.1333 "/>
<path id="8" d="M514 155.1333 L514 186.1333 "/>
<path id="9" d="M512 155.1333 L512 186.1333 "/>
<path id="10" d="M540 154.1333 L539 187.1333 "/>
<path id="11" d="M543 159.1333 L544 187.1333 "/>
<path id="12" d="M539 151.1333 L546 176.1333 "/>
<path id="13" d="M545 155.1333 L545 163.1333 "/>
<path id="14" d="M565 150.1333 L574 180.1333 "/>
<path id="15" d="M571 151.1333 L576 181.1333 "/>
<path id="16" d="M576 152.1333 L579 178.1333 "/>
<path id="17" d="M572 154.1333 L573 169.1333 "/>
<path id="18" d="M603 149.1333 L603 174.1333 "/>
<path id="19" d="M594 150.1333 C594 150.1333 599.9892 187.0928 600 187.1333 C600.0018 187.1401 602 180.1333 602 180.1333 "/>
<path id="20" d="M603 157.1333 L605 167.1333 "/>
<path id="21" d="M111 188.1333 C111 188.1333 99.8431 188.267 93 190.1333 C91.1215 190.6456 89.3771 192.4362 89 194.1333 C87.92 198.9932 87.3495 204.2823 89 208.1333 C90.2799 211.1199 93.9708 214.2235 98 215.1333 C106.3777 217.0251 120 215.1333 120 215.1333 "/>
<path id="22" d="M99 199.1333 C99 199.1333 121.9018 198.9417 125 200.1333 C125.4065 200.2897 125.4531 206.8677 125 209.1333 C124.9295 209.4858 123.8789 210.1333 123 210.1333 C112.4527 210.1333 103.6075 211.0105 99 209.1333 C97.6646 208.5893 95.6999 199.6049 96 199.1333 C96.2731 198.7041 106 198.1333 106 198.1333 "/>
</g>
</g>
</svg>
