<?xml version="1.0" encoding="utf-8"?>
<!DOCTYPE svg PUBLIC "-//W3C//DTD SVG 1.1//EN" "http://www.w3.org/Graphics/SVG/1.1/DTD/svg11.dtd">
<svg viewBox="0 0 800 800" preserveAspectRatio="xMinYMin meet" xmlns="http://www.w3.org/2000/svg" version="1.1">
<g fill="none" stroke="black" stroke-linecap="round" stroke-linejoin="round" stroke-width="1.4305">
<g transform="translate(87.52,260.5374) scale(2.0972) translate(-147.5,-160.6667)">
<path id="0" d="M168.5 256.6667 C168.5 256.6667 186.7749 251.6837 204.5 248.6667 C209.7186 247.7784 210.2151 249.5198 215.5 248.6667 C320.147 231.773 326.9869 227.9231 427.5 212.6667 C432.9061 211.8461 437.8351 213.6955 439.5 214.6667 C439.8688 214.8818 438.7849 217.8073 439.5 219.6667 C440.9193 223.3568 443.1151 223.7429 444.5 227.6667 C445.8265 231.425 446.0015 234.8279 445.5 236.6667 C445.3224 237.3179 443.4286 238.4037 441.5 238.6667 C433.3136 239.783 432.2562 238.2544 423.5 239.6667 C401.5863 243.2011 400.5321 242.1324 379.5 248.6667 C349.7714 257.9027 350.0943 263.047 320.5 271.6667 C299.7617 277.707 298.416 277.0281 276.5 278.6667 C245.4523 280.988 244.5006 277.8431 213.5 279.6667 C202.5688 280.3097 200.7777 280.0587 191.5 283.6667 C184.4542 286.4067 177.9417 293.7495 177.5 293.6667 C177.3383 293.6364 177.5771 286.6147 175.5 280.6667 C166.8596 255.9236 162.4708 255.8114 155.5 230.6667 C148.8212 206.5753 147.5 179.6667 147.5 179.6667 "/>
<path id="1" d="M189.5 290.6667 C189.5 290.6667 190.0031 279.54 187.5 269.6667 C181.2086 244.8508 177.9172 244.6939 171.5 219.6667 C168.0572 206.2398 167.5 191.6667 167.5 191.6667 "/>
<path id="2" d="M198.5 283.6667 C198.5 283.6667 200.3583 267.6878 198.5 252.6667 C194.4547 219.9669 186.5 186.6667 186.5 186.6667 "/>
<path id="3" d="M215.5 278.6667 L204.5 181.6667 "/>
<path id="4" d="M234.5 279.6667 C234.5 279.6667 235.0185 268.9389 233.5 258.6667 C226.5806 211.8587 217.5 164.6667 217.5 164.6667 "/>
<path id="5" d="M244.5 279.6667 C244.5 279.6667 245.8172 268.845 244.5 258.6667 C240.3964 226.957 233.5 194.6667 233.5 194.6667 "/>
<path id="6" d="M223.5 277.6667 C223.5 277.6667 227.6696 269.4723 228.5 261.6667 C230.0571 247.0298 230.2455 245.7414 228.5 230.6667 C224.8247 198.9253 217.5 166.6667 217.5 166.6667 "/>
<path id="7" d="M223.5 275.6667 C223.5 275.6667 223.0484 238.9573 224.5 202.6667 C225.039 189.1918 227.5 175.6667 227.5 175.6667 "/>
<path id="8" d="M194.5 281.6667 C194.5 281.6667 198.5563 274.461 199.5 267.6667 C200.9128 257.4944 200.7279 256.2268 199.5 245.6667 C198.2954 235.3075 195.9767 235.1878 194.5 224.6667 C192.0218 207.0095 191.5 188.6667 191.5 188.6667 "/>
<path id="9" d="M206.5 281.6667 C206.5 281.6667 209.7573 266.9881 208.5 254.6667 C207.4342 244.2221 202.2115 243.1972 201.5 232.6667 C199.8579 208.3635 203.5 180.6667 203.5 180.6667 "/>
<path id="10" d="M186.5 287.6667 C186.5 287.6667 186.5218 280.5635 184.5 274.6667 C180.7435 263.7101 176.829 263.7293 174.5 252.6667 C167.2436 218.1985 164.5 179.6667 164.5 179.6667 "/>
<path id="11" d="M199.5 278.6667 C199.5 278.6667 191.6644 260.9816 189.5 243.6667 C185.843 214.4104 187.5 182.6667 187.5 182.6667 "/>
<path id="12" d="M250.5 280.6667 C250.5 280.6667 254.358 258.936 252.5 238.6667 C248.9813 200.2809 239.5 160.6667 239.5 160.6667 "/>
</g>
</g>
</svg>
