<?xml version="1.0" encoding="utf-8"?>
<!DOCTYPE svg PUBLIC "-//W3C//DTD SVG 1.1//EN" "http://www.w3.org/Graphics/SVG/1.1/DTD/svg11.dtd">
<svg viewBox="0 0 800 800" preserveAspectRatio="xMinYMin meet" xmlns="http://www.w3.org/2000/svg" version="1.1">
<g fill="none" stroke="black" stroke-linecap="round" stroke-linejoin="round" stroke-width="1.1425">
<g transform="translate(335.6659,87.52) scale(2.6259) translate(-162,-106)">
<path id="0" d="M162 113 C162 113 161.7387 306.1253 165 342 C165.0517 342.569 182.1968 344.3012 183 344 C183.0466 343.9825 181.0327 339.8893 181 336 C180.0623 224.4159 182.5818 125.9487 181 106 C180.9892 105.8636 163 109 163 109 "/>
<path id="1" d="M183 112 C183 112 198.3978 110.9964 199 112 C200.9571 115.2618 200.2319 127.0214 201 142 C201.2297 146.4783 201.3725 150.8344 201 151 C199.3652 151.7266 183 150 183 150 "/>
<path id="2" d="M199 120 L188 120 "/>
<path id="3" d="M198 130 L188 129 "/>
<path id="4" d="M199 139 L191 139 "/>
<path id="5" d="M201 113 C201 113 200.5521 110.5225 201 110 C202.3649 108.4076 206.9846 105.9707 207 106 C207.4595 106.8731 210.0285 117.5844 211 129 C211.999 140.7382 211.7418 142.9857 211 153 C210.9027 154.3136 209.846 155.577 209 156 C208.0332 156.4834 205.1951 156.2439 205 156 C204.6951 155.6189 205 151 205 151 "/>
</g>
</g>
</svg>
