<?xml version="1.0" encoding="utf-8"?>
<!DOCTYPE svg PUBLIC "-//W3C//DTD SVG 1.1//EN" "http://www.w3.org/Graphics/SVG/1.1/DTD/svg11.dtd">
<svg viewBox="0 0 800 800" preserveAspectRatio="xMinYMin meet" xmlns="http://www.w3.org/2000/svg" version="1.1">
<g fill="none" stroke="black" stroke-linecap="round" stroke-linejoin="round" stroke-width="0.91206">
<g transform="translate(335.8594,87.52) scale(3.2893) translate(-218,-182.6)">
<path id="0" d="M222 230.6 C222 230.6 219.7615 244.6397 219 258.6 C218.27 271.9835 218.1161 272.342 219 285.6 C219.5958 294.5369 222.1338 294.9022 222 303.6 C221.6492 326.3993 219.3795 327.1485 218 350.6 C217.3867 361.0261 217.5043 366.1472 218 371.6 C218.0279 371.9069 219.0718 372.5227 220 372.6 C224.4551 372.9713 227.4475 373.6939 230 372.6 C231.6774 371.8811 234 368.831 234 366.6 C234 358.048 230.8152 355.0131 230 343.6 C228.8447 327.4256 228.6802 326.4376 230 310.6 C230.6132 303.2411 233.5148 302.9749 234 295.6 C235.9412 266.0941 235 234.6 235 234.6 "/>
<path id="1" d="M224 226.6 C224 226.6 221.6872 209.0409 223 194.6 C223.5124 188.9635 226.1404 183.2393 228 182.6 C233.4324 180.7326 253.3176 181.6172 255 183.6 C257.3114 186.3241 256.7295 202.1051 256 215.6 C255.8821 217.7806 253.5724 218.1673 253 220.6 C251.7726 225.8165 253.1059 231.2931 252 232.6 C251.1855 233.5626 242.0974 233.8677 242 233.6 C240.7176 230.0733 239.3338 215.5898 240 199.6 C240.2783 192.9212 244 185.6 244 185.6 "/>
<path id="2" d="M236 234.6 L238 233.6 "/>
<path id="3" d="M245 196.6 L246 195.6 "/>
<path id="4" d="M249 205.6 L253 205.6 "/>
<path id="5" d="M245 215.6 L254 216.6 "/>
<path id="6" d="M245 226.6 L252 227.6 "/>
<path id="7" d="M248 194.6 L252 194.6 "/>
<path id="8" d="M243 205.6 L257 204.6 "/>
</g>
</g>
</svg>
