<?xml version="1.0" encoding="utf-8"?>
<!DOCTYPE svg PUBLIC "-//W3C//DTD SVG 1.1//EN" "http://www.w3.org/Graphics/SVG/1.1/DTD/svg11.dtd">
<svg viewBox="0 0 800 800" preserveAspectRatio="xMinYMin meet" xmlns="http://www.w3.org/2000/svg" version="1.1">
<g fill="none" stroke="black" stroke-linecap="round" stroke-linejoin="round" stroke-width="1.4977">
<g transform="translate(87.52,312.8662) scale(2.0031) translate(-164,-233)">
<path id="0" d="M472 319 C472 319 454.5928 321.3199 438 320 C411.2736 317.874 411.0158 314.8302 384 312 C358.7202 309.3516 358.1732 308.3654 333 309 C299.3111 309.8493 297.8337 315.8074 265 315 C238.7624 314.3548 237.5694 311.6265 211 306 C195.3614 302.6883 194.7637 299.7467 180 297 C174.6619 296.0069 168.504 298.7245 168 298 C166.1629 295.3592 163.4915 274.2437 164 274 C167.4932 272.3262 192.9676 276.1516 216 275 C219.6355 274.8182 219.9352 272.0839 224 271 C234.3412 268.2423 235.2091 267.2732 246 267 C273.8055 266.2961 274.9564 266.6349 303 269 C315.9609 270.0931 316.5659 270.5806 329 274 C336.1085 275.9548 336.3081 279.1271 343 280 C357.486 281.8895 359.3552 278.4179 375 280 C403.3123 282.863 405.2346 281.5799 432 289 C454.1642 295.1445 470.5466 304.8838 476 308 C476.0852 308.0487 475.0774 312.561 474 313 C466.6754 315.9841 449 319 449 319 "/>
<path id="1" d="M182 283 L180 251 "/>
<path id="2" d="M189 280 L185 248 "/>
<path id="3" d="M199 282 L199 241 "/>
<path id="4" d="M195 283 L194 245 "/>
<path id="5" d="M178 279 L173 240 "/>
<path id="6" d="M207 275 L207 243 "/>
<path id="7" d="M216 281 C216 281 213.6215 270.9435 213 261 C212.138 247.2083 213 233 213 233 "/>
<path id="8" d="M219 279 L220 245 "/>
</g>
</g>
</svg>
