<?xml version="1.0" encoding="utf-8"?>
<!DOCTYPE svg PUBLIC "-//W3C//DTD SVG 1.1//EN" "http://www.w3.org/Graphics/SVG/1.1/DTD/svg11.dtd">
<svg viewBox="0 0 800 800" preserveAspectRatio="xMinYMin meet" xmlns="http://www.w3.org/2000/svg" version="1.1">
<g fill="none" stroke="black" stroke-linecap="round" stroke-linejoin="round" stroke-width="1.5841">
<g transform="translate(87.52,264.592) scale(1.8938) translate(-145,-186)">
<path id="0" d="M145 308 C145 308 178.8219 297.606 213 289 C248.2322 280.1286 248.891 282.1896 284 273 C323.2333 262.7309 362 250 362 250 "/>
<path id="1" d="M145 310 C145 310 144.6148 327.7467 146 329 C147.523 330.3779 157.3292 331.4456 166 329 C193.8353 321.149 194.8289 317.176 224 307 C237.6765 302.2291 238.1012 301.9091 252 299 C259.1237 297.509 260.966 300.1411 267 298 C274.6819 295.2742 274.7032 290.9923 283 288 C303.8738 280.4718 306.72 283.2136 328 276 C335.2477 273.5432 334.6941 270.6407 342 268 C375.2831 255.97 411 246 411 246 "/>
<path id="2" d="M362 250 C362 250 370.6165 251.4446 378 250 C392.6567 247.1324 408 241 408 241 "/>
<path id="3" d="M409 239 C409 239 409.8878 228.1182 412 227 C424.6334 220.3118 436.7807 218.005 460 212 C464.4756 210.8425 470 212 470 212 "/>
<path id="4" d="M412 247 C412 247 417.2715 241.9095 423 240 C447.3461 231.8846 465.2507 230.1247 475 226 C475.5697 225.759 476.0236 220.2178 475 218 C474.0059 215.8462 469 213 469 213 "/>
<path id="5" d="M413 226 C413 226 394.853 205.5669 395 205 C395.1123 204.5668 409.529 202.3657 420 199 C421.5415 198.5045 421.5918 196.325 423 196 C432.0357 193.9148 437.9955 195.155 446 193 C447.3707 192.631 447.7953 189.3012 449 189 C452.9153 188.0212 456.31 189.8984 462 189 C464.8335 188.5526 467.987 185.9546 468 186 C468.2422 186.8475 468 210 468 210 "/>
<path id="6" d="M461 192 L461 207 "/>
<path id="7" d="M452 199 L453 212 "/>
<path id="8" d="M437 194 C437 194 440.4111 195.5278 441 197 C442.6386 201.0965 443 209 443 209 "/>
<path id="9" d="M429 196 C429 196 432.6733 198.9676 434 202 C435.7622 206.0278 436 212 436 212 "/>
<path id="10" d="M420 203 C420 203 423.0616 206.7155 424 210 C424.8067 212.8235 424 217 424 217 "/>
<path id="11" d="M410 207 C410 207 412.9749 209.5399 414 212 C415.1404 214.7369 415 219 415 219 "/>
</g>
</g>
</svg>
