<?xml version="1.0" encoding="utf-8"?>
<!DOCTYPE svg PUBLIC "-//W3C//DTD SVG 1.1//EN" "http://www.w3.org/Graphics/SVG/1.1/DTD/svg11.dtd">
<svg viewBox="0 0 800 800" preserveAspectRatio="xMinYMin meet" xmlns="http://www.w3.org/2000/svg" version="1.1">
<g fill="none" stroke="black" stroke-linecap="round" stroke-linejoin="round" stroke-width="2.2705">
<g transform="translate(87.52,243.4297) scale(1.3213) translate(-39,-99)">
<path id="0" d="M260 213 C260 213 262.3417 213.5348 263 213 C268.1702 208.7992 268.6742 204.0195 276 200 C322.1705 174.6675 327.9655 177.8245 376 151 C404.1585 135.2751 402.6053 131.3019 430 114 C440.2497 107.5265 441.1112 105.5926 452 103 C470.5551 98.5821 477.2164 97.3089 493 99 C499.2523 99.6699 502.9639 103.6989 508 109 C510.8659 112.0167 511.1607 114.1738 512 119 C513.0202 124.866 513.9541 127.9521 512 132 C508.579 139.0864 505.7743 141.3634 498 148 C485.8517 158.3705 485.2131 159.2474 471 167 C436.3491 185.9005 433.354 182.2204 399 202 C351.4511 229.3766 352.6456 233.1645 306 262 C298.1312 266.8644 297.0574 268.8886 289 270 C270.752 272.517 268.1175 268.4525 248 270 C229.6187 271.4139 227.5084 269.9647 211 276 C183.101 286.1996 183.4064 291.4075 155 304 C135.2148 312.7708 134.6995 312.241 114 319 C85.7902 328.2114 84.5691 328.7896 57 336 C53.4106 336.9388 51.462 337.0551 49 336 C46.3621 334.8695 44.0705 332.9974 43 330 C39.92 321.376 37.7105 313.895 39 308 C39.7573 304.538 44.1012 301.5393 50 298 C58.2583 293.045 59.3337 293.0207 69 290 C83.0217 285.6182 84.8385 288.1034 98 283 C108.2311 279.0329 107.667 275.7359 118 271 C131.2032 264.9485 131.9086 264.9456 146 261 C156.5777 258.0383 158.0901 260.3033 168 257 C175.0785 254.6405 175.0102 250.6872 182 249 C201.9407 244.1867 204.3618 246.9342 226 243 C237.0808 240.9853 238.8867 241.2718 248 237 C253.2223 234.552 255.0174 232.8468 258 228 C262.0727 221.3818 264 211 264 211 "/>
<path id="1" d="M42 306 C42 306 37.8818 271.9122 41 258 C41.8575 254.1743 47.6283 252.078 55 248 C70.7955 239.2621 71.1876 238.8224 88 232 C105.3985 224.9398 118.585 220.6942 124 220 C124.3033 219.9611 126.3892 223.4877 127 227 C130.2377 245.617 132 266 132 266 "/>
<path id="2" d="M102 230 C102 230 103.1254 235.9796 104 237 C104.3441 237.4014 107.9905 236.93 108 237 C108.6498 241.8083 109.0042 273.9598 109 274 C108.9991 274.0083 105 266 105 266 "/>
<path id="3" d="M83 237 L83 291 "/>
<path id="4" d="M58 247 L60 290 "/>
</g>
</g>
</svg>
