<?xml version="1.0" encoding="utf-8"?>
<!DOCTYPE svg PUBLIC "-//W3C//DTD SVG 1.1//EN" "http://www.w3.org/Graphics/SVG/1.1/DTD/svg11.dtd">
<svg viewBox="0 0 800 800" preserveAspectRatio="xMinYMin meet" xmlns="http://www.w3.org/2000/svg" version="1.1">
<g fill="none" stroke="black" stroke-linecap="round" stroke-linejoin="round" stroke-width="1.7089">
<g transform="translate(87.52,353.4791) scale(1.7555) translate(-115,-231)">
<path id="0" d="M115 263 C115 263 128.4621 258.641 142 257 C177.5092 252.6959 178.0978 251.9809 214 251 C269.21 249.4915 270.9181 249.8874 325 252 C333.356 252.3264 333.6185 255.2712 342 256 C356.0112 257.2184 371 256 371 256 "/>
<path id="1" d="M130 272 C130 272 140.7852 273.6572 149 273 C151.7093 272.7833 152.1913 270.2203 155 270 C175.3055 268.4074 177.876 270.8184 200 269 C213.9426 267.854 214.1319 264.6542 228 264 C266.3098 262.1929 267.4441 262.309 306 264 C323.9034 264.7852 324.0857 267.6631 342 269 C357.268 270.1394 373 269 373 269 "/>
<path id="2" d="M119 265 C119 265 124.5503 269.4966 130 271 C137.9889 273.2038 148 273 148 273 "/>
<path id="3" d="M120 266 C120 266 126.1114 275.9217 132 278 C146.9136 283.2636 151.6254 283.0149 171 284 C209.9413 285.9801 211.3804 286.1259 250 284 C264.8271 283.1838 265.1433 278.8189 280 278 C327.54 275.3797 331.7554 278.3307 377 277 C379.3589 276.9306 382 275 382 275 "/>
<path id="4" d="M377 270 L382 269 "/>
<path id="5" d="M374 255 C374 255 372.8808 262.7616 374 265 C374.8394 266.6788 381 269 381 269 "/>
<path id="6" d="M375 255 C375 255 375.4895 239.0869 376 239 C388.7511 236.8296 458.045 236.2907 469 239 C469.67 239.1657 470.8486 256.2487 469 262 C468.3656 263.9737 464.4437 266.1853 460 267 C436.654 271.2801 434.2579 271.2934 409 273 C397.7322 273.7613 386 272 386 272 "/>
<path id="7" d="M377 261 C377 261 378.8399 263.9389 380 264 C406.8378 265.4125 417.0906 265.4225 453 265 C458.9154 264.9304 460.1846 264.8727 465 263 C467.9939 261.8357 471 258 471 258 "/>
<path id="8" d="M381 240 L380 263 "/>
<path id="9" d="M386 242 L386 265 "/>
<path id="10" d="M392 239 L391 266 "/>
<path id="11" d="M398 242 L399 265 "/>
<path id="12" d="M405 241 C405 241 404.9997 267.997 405 268 C405.0001 268.0009 407 260 407 260 "/>
<path id="13" d="M411 238 C411 238 410.9995 264.9951 411 265 C411.0001 265.0012 413 258 413 258 "/>
<path id="14" d="M417 241 L417 255 "/>
<path id="15" d="M421 240 C421 240 420.8206 269.2062 421 271 C421.0041 271.0405 423.7509 270.5481 424 270 C425.1499 267.4703 426 260 426 260 "/>
<path id="16" d="M429 241 L429 262 "/>
<path id="17" d="M435 242 L436 262 "/>
<path id="18" d="M438 239 L440 257 "/>
<path id="19" d="M446 239 L446 255 "/>
<path id="20" d="M451 240 L451 265 "/>
<path id="21" d="M461 238 L462 256 "/>
<path id="22" d="M463 240 C463 240 467.0557 264.6077 467 266 C466.9983 266.0431 462 265 462 265 "/>
<path id="23" d="M377 239 L395 232 "/>
<path id="24" d="M395 232 C395 232 428.9081 233.4278 458 233 C460.323 232.9658 462.7582 230.7823 463 231 C464.1261 232.0135 468 242 468 242 "/>
</g>
</g>
</svg>
