<?xml version="1.0" encoding="utf-8"?>
<!DOCTYPE svg PUBLIC "-//W3C//DTD SVG 1.1//EN" "http://www.w3.org/Graphics/SVG/1.1/DTD/svg11.dtd">
<svg viewBox="0 0 800 800" preserveAspectRatio="xMinYMin meet" xmlns="http://www.w3.org/2000/svg" version="1.1">
<g fill="none" stroke="black" stroke-linecap="round" stroke-linejoin="round" stroke-width="2.0401">
<g transform="translate(87.52,347.0622) scale(1.4705) translate(-97,-166)">
<path id="0" d="M119 211 C119 211 195.4915 215.3075 271 214 C310.3182 213.3192 320.9149 205.4529 350 207 C355.7847 207.3077 358.0267 216.6756 365 219 C373.9307 221.9769 378.3487 221.9725 389 220 C403.3287 217.3465 405.2207 215.3597 419 209 C423.8046 206.7825 424.9835 205.3182 428 202 C428.9754 200.927 428.2797 198.4583 429 198 C431.4193 196.4604 434.0122 195.5631 439 195 C464.3046 192.143 491 191 491 191 "/>
<path id="1" d="M126 210 C126 210 112.6455 207.9376 106 210 C102.0815 211.2161 98.8407 215.7788 97 219 C96.4236 220.0087 97.3434 223.6465 98 224 C100.3254 225.2522 104.9077 224.0601 110 226 C114.5033 227.7155 115.0828 231.8123 119 232 C185.6808 235.1943 198.4774 235.6707 277 234 C315.3517 233.184 323.1057 227 354 227 C358.4135 227 359.3836 231.4471 365 234 C369.8963 236.2256 370.5736 236.557 376 237 C394.3768 238.5001 397.4131 241.0804 414 238 C429.177 235.1814 434.606 231.9758 446 224 C450.852 220.6036 450.9253 210.7439 454 210 C468.646 206.4566 481.5594 210.5553 508 209 C514.9338 208.5921 520.6962 207.5832 522 206 C523.2563 204.4744 523.2874 197.1497 522 192 C521.3333 189.3332 519.0671 186.5392 517 186 C511.3327 184.5216 507.6896 185.1591 499 186 C492.584 186.6209 486 189 486 189 "/>
<path id="2" d="M435 196 L432 181 "/>
<path id="3" d="M444 194 L440 178 "/>
<path id="4" d="M451 193 L450 177 "/>
<path id="5" d="M460 193 L460 178 "/>
<path id="6" d="M471 191 L468 177 "/>
<path id="7" d="M483 191 L478 176 "/>
<path id="8" d="M494 187 L493 173 "/>
<path id="9" d="M505 189 L505 166 "/>
<path id="10" d="M514 185 L514 166 "/>
<path id="11" d="M502 186 L500 173 "/>
<path id="12" d="M491 190 C491 190 489.2446 180.4511 487 175 C486.5638 173.9406 484 173 484 173 "/>
</g>
</g>
</svg>
