<?xml version="1.0" encoding="utf-8"?>
<!DOCTYPE svg PUBLIC "-//W3C//DTD SVG 1.1//EN" "http://www.w3.org/Graphics/SVG/1.1/DTD/svg11.dtd">
<svg viewBox="0 0 800 800" preserveAspectRatio="xMinYMin meet" xmlns="http://www.w3.org/2000/svg" version="1.1">
<g fill="none" stroke="black" stroke-linecap="round" stroke-linejoin="round" stroke-width="1.0369">
<g transform="translate(87.52,129.4733) scale(2.8933) translate(-173,-244)">
<path id="0" d="M333 258 C333 258 340.1681 254 346 254 C356.7666 254 366.7704 255.9815 370 258 C370.8379 258.5237 371.0289 264.627 370 269 C369.3507 271.7594 368.5 272.9838 366 275 C354.029 284.654 353.2021 287.0722 339 294 C313.4515 306.4627 311.4637 305.4474 284 315 C277.3689 317.3065 270 318 270 318 "/>
<path id="1" d="M331 259 C331 259 330.8501 252.5228 329 250 C326.7729 246.963 324.138 245.5518 320 244 C317.4252 243.0345 314.9035 243.3655 313 244 C312.1842 244.2719 311.0732 245.7551 311 247 C310.6725 252.5669 312.5644 260.6138 312 261 C310.7292 261.8695 297.6041 257.5982 292 260 C285.7414 262.6823 284.0706 272.2568 277 276 C270.9572 279.1991 266.9604 276.0399 258 278 C251.503 279.4212 250.5199 279.9334 245 283 C242.2789 284.5117 242.5672 287.0492 240 288 C231.0633 291.3099 227.0291 289.8745 218 293 C215.9513 293.7092 215.2575 294.8443 214 297 C212.0642 300.3186 211.581 301.1269 211 305 C210.175 310.5003 209.6322 311.8707 211 317 C213.2949 325.6058 213.889 328.495 219 335 C223.4195 340.6249 225.8599 341.6679 233 345 C239.8341 348.1893 241.6984 346.2619 249 349 C253.1202 350.5451 253.1521 351.336 257 354 C259.6083 355.8058 261.5071 356.5213 262 358 C262.6669 360.0006 261.5068 365.8029 261 366 C258.9522 366.7964 251.749 367.123 244 365 C216.5436 357.4777 188 346 188 346 "/>
<path id="2" d="M248 351 C248 351 265.8818 353.0074 282 352 C288.7678 351.577 290.3801 350.81 296 348 C299.1612 346.4194 302 342 302 342 "/>
<path id="3" d="M364 279 C364 279 365.1012 287.498 363 291 C359.4313 296.9479 354.725 297.5594 349 304 C347.475 305.7156 348.2484 308.0921 347 309 C344.5233 310.8012 338 312 338 312 "/>
<path id="4" d="M331 300 C331 300 329.8229 311.1596 326 320 C322.247 328.6787 318.6652 329.3365 315 337 C314.0121 339.0656 313.9582 341.1397 315 343 C319.6601 351.3217 321.1418 353.5805 329 362 C341.7757 375.6883 357 388 357 388 "/>
<path id="5" d="M338 313 C338 313 338.8593 319.417 338 324 C337.5655 326.3175 336.4894 328.0071 335 329 C333.4322 330.0452 331.1383 328.9309 329 330 C327.0262 330.9869 325.7034 332.2414 325 334 C324.2463 335.8842 323.9566 338.3603 325 340 C329.3318 346.807 331.4926 348.7429 339 356 C346.2781 363.0355 348.0712 362.0712 355 369 C358.5839 372.5839 359.0912 373.4665 361 378 C362.7955 382.2644 363 388 363 388 "/>
<path id="6" d="M366 387 L387 386 "/>
<path id="7" d="M356 390 C356 390 352 410 352 410 C352 410 352.0587 407.059 353 406 C355.1607 403.5692 357.3324 401.5002 360 401 C362.8986 400.4565 368.4118 403.3529 369 403 C369.4374 402.7376 369.3215 395.4175 370 395 C371.3746 394.1541 379.0919 396.5306 382 395 C384.9719 393.4359 389 385 389 385 "/>
<path id="8" d="M297 349 C297 349 301.4518 345.0214 306 343 C309.8551 341.2866 315 341 315 341 "/>
<path id="9" d="M228 350 C228 350 221.1039 350.2071 216 348 C203.68 342.6724 202.6158 338.3952 191 334 C186.3993 332.2592 181.6291 332.5394 179 334 C176.4683 335.4065 173.4799 340.0009 173 344 C172.3446 349.4615 172.5646 354.003 176 359 C186.797 374.7047 190.6238 376.9988 206 392 C210.4078 396.3003 217 399 217 399 "/>
<path id="10" d="M192 347 C192 347 191.7921 350.2855 193 352 C205.7338 370.0738 207.1695 373.4488 223 391 C229.3341 398.0226 230.92 398.3384 239 403 C243.1349 405.3855 249 406 249 406 "/>
<path id="11" d="M214 399 C214 399 220.1759 406.4692 223 414 C225.7856 421.4284 225.9147 430.9612 226 431 C226.0202 431.0092 231.8251 419.6343 234 419 C236.7501 418.1979 249.5904 424.0878 250 424 C250.0078 423.9983 247.5486 416.5416 248 416 C248.9977 414.8027 259.2882 412.8699 260 412 C260.2341 411.7138 257 405 257 405 "/>
<path id="12" d="M338 268 C338 268 329.9868 272.6035 329 275 C328.1542 277.0541 329.7579 284.0241 331 285 C332.6111 286.2659 339.8524 287.349 343 286 C346.6139 284.4512 349.2722 280.2432 352 276 C352.6912 274.9248 352.6186 273.1134 352 272 C350.7972 269.835 349.1779 267.6806 347 267 C343.3495 265.8592 336 267 336 267 "/>
<path id="13" d="M347 269 C347 269 345.2145 276.4368 343 278 C339.7663 280.2826 330 281 330 281 "/>
<path id="14" d="M227 349 C227 349 215.4845 343.2073 208 336 C203.1276 331.308 201.8114 329.2394 200 323 C197.8377 315.5521 198.6523 313.3444 199 305 C199.1178 302.1734 199.575 301.375 201 299 C202.2667 296.8889 202.9523 295.9451 205 295 C208.4758 293.3958 214 293 214 293 "/>
</g>
</g>
</svg>
