<?xml version="1.0" encoding="utf-8"?>
<!DOCTYPE svg PUBLIC "-//W3C//DTD SVG 1.1//EN" "http://www.w3.org/Graphics/SVG/1.1/DTD/svg11.dtd">
<svg viewBox="0 0 800 800" preserveAspectRatio="xMinYMin meet" xmlns="http://www.w3.org/2000/svg" version="1.1">
<g fill="none" stroke="black" stroke-linecap="round" stroke-linejoin="round" stroke-width="2.0209">
<g transform="translate(87.52,134.2807) scale(1.4845) translate(-42,-96)">
<path id="0" d="M99 198 C99 198 122.8761 185.0063 147 176 C159.5483 171.3153 160.6661 171.7779 174 170 C182.6335 168.8489 183.5744 171.5447 192 170 C212.6036 166.2227 213.2095 162.1985 234 159 C251.2034 156.3533 252.535 159.6793 270 158 C277.9276 157.2377 278.9924 157.2035 286 154 C295.6242 149.6004 295.2165 145.5873 305 142 C323.6751 135.1525 327.3457 137.389 346 132 C348.0685 131.4024 349.2714 130.6191 350 129 C352.9219 122.5069 351.38 118.9814 355 112 C357.7098 106.7739 359.2099 106.5083 364 102 C367.5505 98.6584 368.3675 96.9907 372 96 C377.2775 94.5607 379.5795 94.9727 386 96 C391.3382 96.8541 395.3204 97.6485 397 100 C399.8129 103.9381 398.087 109.4261 401 117 C402.7768 121.6198 403.4607 122.4607 407 126 C411.955 130.955 412.6863 131.9334 419 135 C429.3685 140.0361 431.256 138.0211 442 143 C451.2918 147.306 456.8978 149.1018 460 154 C462.719 158.2932 462.7692 165.9231 461 173 C459.561 178.7558 457.2064 181.0105 452 186 C446.0354 191.7161 444.2126 192.6942 437 196 C433.5165 197.5966 431.5262 195.5153 428 197 C423.1539 199.0405 422.8012 202.33 418 204 C412.8463 205.7926 405 205 405 205 "/>
<path id="1" d="M361 147 C361 147 362.2353 139.6154 365 136 C367.5334 132.6871 369.9018 130.7451 374 130 C383.747 128.2278 389.3088 129.3314 398 130 C398.78 130.06 399.9162 131.2036 400 132 C400.6447 138.1248 401.1861 142.4762 400 149 C399.6004 151.1978 397.6662 153.6848 396 154 C384.7553 156.1274 370.7147 157.251 363 156 C361.7493 155.7972 359 148 359 148 "/>
<path id="2" d="M374 146 C374 146 382.7817 140.9272 383 141 C383.0794 141.0265 383.2338 148.7662 383 149 C382.8831 149.1169 377.8662 147.8662 377 147 C376.5669 146.5669 377 143 377 143 C377 143 376.9983 146.0008 377 146 C377.0045 145.9978 378.9678 142.0107 379 142 C379 142 379.9988 145.0006 380 145 C380.0073 144.9963 380.9999 141 381 141 C381 141 381.4834 144.0332 381 145 C380.577 145.846 378 147 378 147 "/>
<path id="3" d="M375 262 C375 262 382.5111 261.8666 385 264 C390.251 268.5009 396 280 396 280 "/>
<path id="4" d="M361 287 C361 287 368.6697 292.3611 376 295 C380.2473 296.529 386 296 386 296 "/>
<path id="5" d="M399 281 C399 281 446.6692 283.9256 447 284 C447.0452 284.0102 443.1771 287.9114 439 290 C433.6837 292.6582 432.9379 293.0722 427 294 C417.5199 295.4813 406.9893 294.9905 407 295 C407.0286 295.0254 426.5252 301.7523 445 310 C454.2854 314.1452 463.0206 319.9897 463 320 C462.9398 320.0301 442.7341 321.1566 425 320 C421.1752 319.7506 416.9897 316.969 417 317 C417.059 317.177 432.9957 343.9899 433 344 C433.0011 344.0027 429.6887 339.9414 426 338 C420.8779 335.3041 418.958 336.8332 414 334 C409.2899 331.3085 405.0197 325.9606 405 326 C404.8536 326.2929 405.0628 351.7362 405 352 C404.9908 352.0387 400 347 400 347 "/>
<path id="6" d="M384 295 C384 295 384.1544 303.3101 386 311 C390.0764 327.985 396 345 396 345 "/>
<path id="7" d="M343 249 C343 249 343.5862 268.2262 346 287 C348.0607 303.0279 350.78 303.1399 352 319 C353.7288 341.4748 352 365 352 365 "/>
<path id="8" d="M291 272 C291 272 302.7234 295.6488 312 320 C322.6413 347.9334 331 377 331 377 "/>
<path id="9" d="M355 366 C355 366 353.7173 368.623 354 369 C356.8589 372.8119 361.5393 375.2545 367 382 C369.6087 385.2226 368.4542 388.2375 371 390 C378.7196 395.3444 393 400 393 400 "/>
<path id="10" d="M332 379 C332 379 337.4934 386.6112 344 390 C359.8879 398.275 380 404 380 404 "/>
<path id="11" d="M389 396 C389 396 405.2497 395.0735 421 396 C430.4386 396.5552 439.9295 398.8791 440 399 C440.01 399.0172 434.2349 404.7671 428 408 C421.4188 411.4125 420.4552 411.4024 413 413 C406.8701 414.3135 399.9822 413.9848 400 414 C400.0711 414.0609 434.0013 430.9955 434 431 C433.9986 431.0049 398.0512 426.6521 396 428 C395.1981 428.527 399.0099 453.9934 399 454 C398.9991 454.0006 387.4677 434.2079 387 434 C386.9851 433.9934 384.5627 440.793 381 446 C378.392 449.8117 374.0136 453.0233 374 453 C373.9113 452.848 374 434 374 434 "/>
<path id="12" d="M377 397 C377 397 378.1058 409.3894 377 421 C376.1531 429.8923 373 439 373 439 "/>
<path id="13" d="M116 262 C116 262 114.3321 282.9175 118 299 C120.2042 308.6645 125.245 308.778 129 319 C133.9312 332.424 134.4275 333.8473 136 348 C137.3143 359.8291 136.8137 365.4861 135 373 C134.6085 374.6218 131.6777 376.685 129 377 C117.4129 378.3632 114.3327 378.0526 101 377 C96.1255 376.6152 94.4253 376.5318 91 374 C84.4541 369.1617 82.9711 367.6224 78 360 C68.4712 345.3892 68.1368 343.4631 61 328 C59.6636 325.1044 60 321 60 321 "/>
<path id="14" d="M125 380 C125 380 133.1488 393.1488 143 403 C150.4485 410.4485 160.988 415.9736 161 416 C161.0045 416.0099 153.996 415.9446 148 414 C136.0318 410.1184 124.146 403.8625 124 404 C123.8251 404.1646 131.0099 429.9872 131 430 C130.997 430.0038 117.4295 412.9795 117 413 C116.7442 413.0122 114.1337 423.6866 110 431 C108.4202 433.795 104.0146 436.0415 104 436 C103.8883 435.6834 104.0239 414.0239 104 414 C103.9935 413.9935 96.516 427.531 96 428 C95.9842 428.0144 93.0953 425.6834 93 424 C91.8803 404.2184 93 375 93 375 "/>
<path id="15" d="M62 322 L61 322 "/>
<path id="16" d="M61 322 C61 322 54.093 315.8935 50 309 C45.0229 300.6175 42.8715 299.042 42 290 C39.1788 260.7305 39.4829 255.8451 42 226 C42.7705 216.8644 44.5031 213.4955 49 207 C51.7562 203.0189 54.8966 201.6238 60 200 C64.2441 198.6496 67.3743 198.145 71 200 C85.2576 207.2946 90.098 209.6246 103 222 C112.9567 231.5503 115.1603 235.6124 120 247 C122.2528 252.3007 120 262 120 262 "/>
<path id="17" d="M92 207 L92 205 "/>
<path id="18" d="M93 203 L102 197 "/>
<path id="19" d="M226 260 C226 260 234.724 261.5229 242 260 C255.1349 257.2508 255.3179 254.5263 269 251 C303.59 242.085 306.4788 245.8404 339 235 C355.4045 229.5318 356.218 227.0517 371 217 C380.6497 210.4382 379.5517 208.2511 389 201 C400.8721 191.8888 401.1985 190.4007 414 184 C424.1265 178.9367 427.4349 182.0343 437 177 C444.8294 172.8792 446.954 170.8121 452 164 C455.7051 158.9982 457 150 457 150 "/>
<path id="20" d="M101 198 C101 198 98.6003 184.9578 100 176 C100.7008 171.5147 103.5408 166.9459 106 166 C110.9953 164.0787 118.0773 163.7066 126 166 C134.3919 168.4292 144 177 144 177 "/>
<path id="21" d="M129 319 C129 319 137.1755 318.7939 142 320 C143.3654 320.3414 143.7463 322.7649 145 323 C149.5748 323.8578 152.4313 321.7894 158 323 C162.7492 324.0324 162.8886 326.606 168 328 C184.152 332.4051 185.1854 333.7478 202 335 C231.2248 337.1763 233.3046 336.2298 262 335 C266.8441 334.7924 269.5807 333.5396 272 332 C272.7203 331.5417 272.0539 328.9461 273 328 C275.8382 325.1618 277.6709 323.0186 282 322 C292.5905 319.5081 307 320 307 320 "/>
<path id="22" d="M450 190 C450 190 449.0349 197.8271 446 202 C442.1879 207.2416 440.3272 207.7818 434 212 C427.1078 216.5948 425.0425 215.1195 419 220 C412.9467 224.8892 414.35 228.4472 408 233 C389.2742 246.426 381.5487 246.1694 366 258 C363.042 260.2506 362.6415 263.1888 362 268 C360.782 277.1352 363.1423 278.5758 362 288 C361.2298 294.3542 360.7564 295.4873 358 301 C356.1624 304.6752 354.429 306.1108 352 308 C351.3633 308.4952 349 308 349 308 "/>
</g>
</g>
</svg>
