<?xml version="1.0" encoding="utf-8"?>
<!DOCTYPE svg PUBLIC "-//W3C//DTD SVG 1.1//EN" "http://www.w3.org/Graphics/SVG/1.1/DTD/svg11.dtd">
<svg viewBox="0 0 800 800" preserveAspectRatio="xMinYMin meet" xmlns="http://www.w3.org/2000/svg" version="1.1">
<g fill="none" stroke="black" stroke-linecap="round" stroke-linejoin="round" stroke-width="1.0513">
<g transform="translate(87.52,161.7162) scale(2.8537) translate(-88,-102)">
<path id="0" d="M215 128 C215 128 219.0965 116.0488 224 109 C225.7217 106.525 227.9404 105.5737 231 105 C234.4791 104.3477 238.0564 104.3633 240 106 C244.4691 109.7635 249.8456 121.0103 250 121 C250.1041 120.9931 252.0522 108.5005 255 105 C256.7886 102.876 262.9222 102 266 102 C266.8394 102 268.6469 103.7054 269 105 C269.7398 107.7125 268.1199 111.617 269 113 C269.8201 114.2887 276 116 276 116 "/>
<path id="1" d="M267 104 C267 104 273.8757 111.1786 279 119 C283.1659 125.3586 281.6158 126.9295 286 133 C294.2188 144.3799 298.0865 144.4652 305 155 C307.269 158.4575 307.3731 162.5749 307 165 C306.8608 165.9046 304.8106 167.5474 303 168 C299.9506 168.7624 298.4659 169.0144 295 168 C279.1816 163.3702 262 156 262 156 "/>
<path id="2" d="M214 130 C214 130 195.4586 135.1413 178 142 C167.7393 146.031 168.2238 148.5278 158 152 C142.3923 157.3007 141.0188 155.0287 125 160 C112.3126 163.9375 112.0744 164.4803 100 170 C94.7969 172.3785 93.095 172.905 90 176 C88.4525 177.5475 88 179.3385 88 182 C88 187.323 87.3328 190.5585 90 194 C99.9355 206.82 105.1246 214.7211 119 222 C129.8296 227.6811 135.695 222.3988 151 226 C169.038 230.2442 172.1071 234.4541 187 238 C189.1171 238.5041 192.2357 236.8917 193 236 C193.535 235.3758 193.8647 232.415 193 231 C189.5891 225.4186 187.9293 223.6469 182 218 C177.7734 213.9747 174.7886 214.7845 172 211 C169.0991 207.063 167.9469 199 168 199 C168.3581 199 181.7644 206.0839 195 211 C198.5223 212.3083 199.5378 212.2663 203 212 C205.2521 211.8268 207.8733 210.169 208 210 C208.011 209.9853 206 208 206 208 "/>
<path id="3" d="M144 193 C144 193 150.439 183.7754 158 179 C168.0349 172.6622 170.2448 172.0788 182 169 C190.0646 166.8878 192.5935 166.723 200 168 C204.9998 168.862 207.2546 170.2546 211 174 C216.0674 179.0674 218.1652 180.9846 220 188 C225.9566 210.7751 222.4796 214.5034 228 239 C230.2794 249.1149 233.037 249.1234 236 259 C237.3624 263.5415 237.0134 268.9973 237 269 C236.8738 269.0252 230.389 265.6917 226 261 C216.4402 250.7809 215.5502 249.906 208 238 C202.938 230.0177 202.5403 228.5736 200 220 C198.8776 216.212 200 211 200 211 "/>
<path id="4" d="M262 118 C262 118 257.9827 125.9712 258 126 C258.0037 126.0062 264.0141 124.4789 265 123 C266.2431 121.1353 266.9865 115.7537 266 114 C264.524 111.3759 257.1692 107.1799 256 107 C255.7645 106.9638 253.3784 109.9186 253 112 C252.6029 114.1838 254 118 254 118 "/>
<path id="5" d="M237 119 C237 119 236.482 128.8604 237 130 C237.107 130.2354 241.7849 130.3688 242 130 C242.9712 128.3351 244.642 122.7082 244 118 C243.4152 113.7115 240.7897 109.239 239 108 C237.9031 107.2406 233.9564 107.9249 231 109 C229.5539 109.5258 228 111.2504 228 112 C228 113.9988 231 120 231 120 "/>
<path id="6" d="M274 159 C274 159 272.7135 164.4385 270 168 C265.2379 174.2503 264.2959 176.4586 258 180 C250.1512 184.415 247.8233 185.045 238 186 C213.1368 188.4173 186 187 186 187 "/>
</g>
</g>
</svg>
