<?xml version="1.0" encoding="utf-8"?>
<!DOCTYPE svg PUBLIC "-//W3C//DTD SVG 1.1//EN" "http://www.w3.org/Graphics/SVG/1.1/DTD/svg11.dtd">
<svg viewBox="0 0 800 800" preserveAspectRatio="xMinYMin meet" xmlns="http://www.w3.org/2000/svg" version="1.1">
<g fill="none" stroke="black" stroke-linecap="round" stroke-linejoin="round" stroke-width="1.7665">
<g transform="translate(87.52,145.2609) scale(1.6983) translate(-83,-143)">
<path id="0" d="M229 174 C229 174 225.8777 168.8273 225 164 C224.0182 158.6 223.5592 156.3224 225 152 C226.3608 147.9177 229.4818 143.8394 232 143 C235.3576 141.8808 241.3357 142.6679 246 145 C249.8869 146.9435 251.7084 149.4167 254 154 C256.5561 159.1121 256.9797 167.0109 257 167 C257.1056 166.9431 261.8439 154.906 267 147 C268.2172 145.1337 269.7056 144.3278 272 144 C278.7625 143.0339 281.6528 142.4767 288 144 C292.1416 144.994 296.0688 147.5167 297 150 C298.788 154.768 297 168 297 168 "/>
<path id="1" d="M230 173 C230 173 209.933 170.6295 200 175 C190.736 179.0762 184.7589 185.9353 180 195 C176.7975 201.1001 177.535 206.4542 179 215 C180.1969 221.982 181.338 224.8001 186 230 C192.8003 237.585 195.064 238.9263 205 244 C217.5797 250.4237 219.6488 252.8132 233 254 C261.5716 256.5397 265.8366 255.6873 295 252 C307.2448 250.4518 308.6209 248.6896 320 243 C328.8719 238.5641 331.1277 237.6063 337 231 C341.5967 225.8287 342.3282 223.1646 344 216 C345.5076 209.5389 344.2869 208.4582 344 201 C343.7889 195.5115 344.8791 194.0713 343 190 C339.7085 182.8683 338.1937 179.9549 332 175 C324.9446 169.3557 322.0656 168.0921 313 166 C304.3976 164.0148 293 166 293 166 "/>
<path id="2" d="M224 249 C224 249 218.9337 258.802 216 269 C208.5361 294.9459 211.093 297.0174 203 322 C199.9955 331.2747 193 340 193 340 "/>
<path id="3" d="M315 251 C315 251 314.6882 258.1045 317 263 C322.5512 274.7554 325.4768 274.6285 332 287 C339.8464 301.881 341.7231 302.7635 346 318 C349.2523 329.5862 348 344 348 344 "/>
<path id="4" d="M246 297 L216 368 "/>
<path id="5" d="M294 294 C294 294 294.0859 301.6713 297 307 C310.6346 331.9318 315.0061 332.7333 329 358 C332.3019 363.9617 333 372 333 372 "/>
<path id="6" d="M192 339 C192 339 177.6259 337.3984 168 340 C161.8793 341.6542 154.9953 348.9894 155 349 C155.0111 349.0249 164.5619 350.4876 172 349 C178.213 347.7574 185.0058 342.965 185 343 C184.9765 343.1408 175.3756 357.8976 168 373 C165.1205 378.8961 163.9218 385.9431 164 386 C164.1629 386.1185 172.4188 384.4125 179 381 C185.2349 377.7671 191 372 191 372 C191.24 372.32 190.8363 396.4271 191 397 C191.015 397.0524 195.1001 395.4586 197 393 C202.8296 385.4559 207.8444 375.1077 208 375 C208.0281 374.9806 208.3283 380.1789 210 384 C211.5554 387.5551 212.2336 389.3402 215 391 C220.4125 394.2475 229.4707 396.1512 230 396 C230.0613 395.9825 230.4724 390.8913 229 387 C223.8319 373.3414 216 359 216 359 "/>
<path id="7" d="M334 367 C334 367 324.367 379.3708 317 392 C314.1868 396.8226 312.9961 402.9994 313 403 C313.0155 403.0022 319.5555 398.5027 324 393 C329.6664 385.9844 333.8664 377.0668 334 377 C334.0223 376.9889 334.0827 383.1653 336 387 C338.0045 391.009 342.9841 395.0438 343 395 C343.0887 394.756 342.6447 365.8132 344 365 C346.5251 363.4849 382.8166 370.9946 383 371 C383.0241 371.0007 380.6569 367.2077 378 366 C370.9591 362.7996 360.9949 361.1018 361 361 C361.0195 360.6098 379 346 379 346 "/>
<path id="8" d="M380 345 C380 345 376.7727 343 374 343 C361.523 343 347 345 347 345 "/>
<path id="9" d="M218 357 C218 357 235.5112 346.9986 252 345 C282.2295 341.3358 289.0078 342.4553 317 345 C322.4418 345.4947 329 352 329 352 "/>
<path id="10" d="M207 312 C207 312 173.7232 296.5516 142 291 C116.5938 286.5539 110.0479 290.2052 87 291 C85.7139 291.0443 84.3772 292.0571 84 293 C83.0099 295.4752 82.4416 297.6498 83 301 C83.7603 305.562 84.1462 306.8145 87 311 C98.5985 328.0111 98.9338 329.2649 113 345 C128.1124 361.9054 128.8673 362.8326 146 377 C154.0953 383.6942 155.3098 384.3393 165 388 C176.8291 392.4688 190.0742 392.9713 191 394 C191.2141 394.2379 187.6777 401.6517 183 408 C173.8921 420.3607 163.0337 431.753 163 432 C162.9946 432.0399 179.9102 429.9775 180 430 C180.0204 430.0051 174.9998 435.0012 175 435 C175.0004 434.9976 180.9998 423.9999 181 424 C181.0007 424.0004 177.9936 436.9994 178 437 C178.0441 437.0044 190.9443 424.9722 191 425 C191.0636 425.0318 189.8343 442.6134 190 443 C190.0094 443.022 194.3613 441.4188 197 439 C199.8242 436.4111 201.5275 435.1184 202 432 C203.5835 421.5486 200.1317 418.144 202 406 C203.9568 393.2811 210 380 210 380 "/>
<path id="11" d="M348 318 C348 318 352.1414 313.1832 357 310 C366.282 303.9187 366.6565 303.3227 377 299 C399.752 289.4917 400.4947 288.6704 424 282 C436.7609 278.3787 448.8393 277.3598 451 278 C451.2976 278.0882 452.6177 284.9158 451 290 C442.8195 315.7101 442.3923 318.6252 430 344 C421.8506 360.6869 420.993 362.9864 409 376 C398.9669 386.8869 395.125 389.2262 383 395 C377.2999 397.7143 367.0136 395.9322 367 396 C366.9632 396.1841 373.0371 403.8108 380 410 C386.2636 415.5676 389.1647 415.487 394 420 C394.9809 420.9155 395.049 424.0085 395 424 C394.0844 423.8421 366.9214 415.064 365 415 C364.9831 414.9994 365.0113 422.9944 365 423 C364.9972 423.0014 361.0083 416.9979 361 417 C360.9942 417.0015 361.0175 423.9825 361 424 C360.9975 424.0025 358.2796 421.8173 358 420 C356.6117 410.976 359.2036 407.3654 357 398 C355.6475 392.2519 354.0969 390.8651 350 386 C346.6622 382.0364 341 379 341 379 "/>
<path id="12" d="M414 309 L369 354 "/>
<path id="13" d="M128 326 L182 348 "/>
<path id="14" d="M240 157 C240 157 237.4659 163.2642 238 165 C238.4952 166.6093 241.5687 169.3053 244 170 C246.5248 170.7214 251.9838 169.0566 252 169 C252.0211 168.9262 249.2647 165.1125 246 163 C241.2973 159.9571 235.0033 158.0081 235 158 C234.9988 157.9969 244 158 244 158 "/>
<path id="15" d="M276 153 C276 153 270.8244 156.1864 270 158 C269.4084 159.3015 270.4133 163.6089 271 164 C271.9386 164.6258 276.1595 165.0652 279 164 C282.6395 162.6352 285.7133 160.0219 287 158 C287.5062 157.2045 286.1896 153.0345 286 153 C285.0608 152.8292 276 156 276 156 "/>
<path id="16" d="M205 212 C205 212 215.4231 217.2995 226 220 C238.4032 223.1668 239.082 223.311 252 224 C276.1472 225.2879 278.0985 225.2053 301 224 C304.8128 223.7993 305.7758 223.1983 309 221 C316.1195 216.1458 323 209 323 209 "/>
<path id="17" d="M246 161 C246 161 242.5746 161.6003 241 163 C238.8316 164.9274 237.5096 166.4519 237 169 C236.3405 172.2976 236.9397 175.6673 238 178 C238.4282 178.942 241.2061 180.2835 242 180 C245.0201 178.9214 249.9037 176.2397 252 173 C253.6569 170.4394 253.6588 164.3176 253 163 C252.6186 162.2372 247.4429 160.6065 246 161 C244.801 161.327 242.9972 163.7562 242 166 C241.4115 167.3242 241.9773 169.9955 242 170 C242.1247 170.0249 246.9898 167.0102 247 167 C247.0025 166.9975 245.0345 166.9138 245 167 C244.7845 167.5388 244.9997 171.9997 245 172 C245.0002 172.0002 246.0089 167.997 246 168 C245.9655 168.0115 238.9996 174 239 174 C239.0007 174 250 168 250 168 "/>
<path id="18" d="M284 158 C284 158 277.7025 158.4235 275 160 C273.4272 160.9175 272.8685 162.6841 272 165 C271.5746 166.1343 271.8346 167.9007 272 168 C272.4596 168.2757 275.9535 168.7611 277 168 C279.4735 166.2011 283.0005 160.0015 283 160 C282.9998 159.9993 276.0525 164.895 276 165 C275.9938 165.0124 279.3227 166.3763 280 166 C281.6386 165.0897 285 160 285 160 C285 160 281.2028 162.835 280 165 C279.3814 166.1134 279.8574 168.9145 280 169 C280.2613 169.1568 284.4937 168.675 285 168 C285.826 166.8986 286.1832 162.4659 286 161 C285.9667 160.7335 284.2943 159.8528 284 160 C282.3321 160.834 279.5334 162.9554 278 165 C277.5158 165.6456 278 168 278 168 C278.2292 168 284 165 284 165 "/>
<path id="19" d="M259 197 C259 197 255.0105 198.7873 254 200 C253.577 200.5076 254 203 254 203 "/>
<path id="20" d="M277 202 L279 210 "/>
</g>
</g>
</svg>
