<?xml version="1.0" encoding="utf-8"?>
<!DOCTYPE svg PUBLIC "-//W3C//DTD SVG 1.1//EN" "http://www.w3.org/Graphics/SVG/1.1/DTD/svg11.dtd">
<svg viewBox="0 0 800 800" preserveAspectRatio="xMinYMin meet" xmlns="http://www.w3.org/2000/svg" version="1.1">
<g fill="none" stroke="black" stroke-linecap="round" stroke-linejoin="round" stroke-width="1.6369">
<g transform="translate(87.52,152.5818) scale(1.8327) translate(-165,-159)">
<path id="0" d="M225 181 C225 181 228.7891 180.4958 230 179 C235.7493 171.8979 236.8453 165.426 242 160 C243.2971 158.6346 248.3755 158.3755 249 159 C251.2898 161.2898 251.4569 168.6308 256 174 C261.1444 180.0798 263.0684 181.1151 271 185 C286.7045 192.692 287.853 193.0637 305 198 C320.3229 202.4111 321.7419 199.6036 337 204 C350.6479 207.9325 352.9047 207.2205 364 215 C394.3835 236.3034 393.9017 241.8162 424 265 C429.9247 269.5636 430.8476 269.3991 438 272 C446.9995 275.2725 449.0146 273.2735 457 277 C462.6896 279.6552 468 286 468 286 "/>
<path id="1" d="M354 286 C354 286 349.5615 287.6056 348 290 C343.0923 297.5252 344.4044 300.5073 339 309 C334.2711 316.4311 331.6311 315.8989 327 323 C324.6752 326.5647 324.4862 327.6238 324 332 C323.0622 340.4399 322.585 342.359 324 350 C324.7803 354.2136 325.8425 355.5101 329 359 C334.7591 365.3654 335.6319 366.7578 343 371 C351.1156 375.6726 352.8072 376.83 362 378 C378.6378 380.1175 382.012 380.8831 398 378 C409.9838 375.839 411.0839 373.2418 423 367 C431.8172 362.3815 432.4289 362.2732 440 356 C449.5426 348.0933 458 338 458 338 "/>
<path id="2" d="M378 344 C378 344 415.1396 311.5818 449 296 C464.9468 288.6616 476.5869 289.7243 491 292 C496.9413 292.9381 503.1927 299.3855 506 305 C508.328 309.656 507.0922 314.0812 506 322 C505.1936 327.8467 504.7885 328.5302 502 334 C492.026 353.5645 493.1565 357.6906 480 373 C467.8765 387.1073 463.9949 386.7713 447 398 C436.3851 405.0134 435.7487 405.0005 424 410 C412.5447 414.8746 400 418 400 418 "/>
<path id="3" d="M374 384 C374 384 369.704 394.584 364 399 C356.6189 404.7144 342.9918 407.9944 343 408 C343.0188 408.013 376.9537 407.9929 377 408 C377.0101 408.0015 372.3406 409.4017 369 412 C359.3121 419.535 349.9929 428.9967 350 429 C350.0171 429.0079 381.372 418.0433 382 418 C382.0694 417.9952 378.8337 426.6258 379 427 C379.0675 427.1518 382.8294 427.7317 386 427 C395.233 424.8693 396.2124 424.808 405 421 C410.7092 418.526 416 414 416 414 "/>
<path id="4" d="M394 239 C394 239 405.0444 239.192 415 242 C443.4179 250.0153 444.3632 251.1934 472 261 C474.6294 261.933 476.2107 262.7372 477 264 C477.6443 265.0309 477.7529 268.1843 477 269 C474.1273 272.1121 465 277 465 277 "/>
<path id="5" d="M325 336 C325 336 309.5167 334.5607 295 331 C283.3954 328.1536 282.6758 327.8803 272 323 C265.7296 320.1335 260 315 260 315 "/>
<path id="6" d="M255 292 C255 292 255.0165 301.8757 257 311 C259.9332 324.4925 263.8212 327.6853 265 338 C265.3185 340.7872 263.6466 342.9123 261 346 C255.2105 352.7544 253.0087 351.9898 247 359 C241.3347 365.6096 237 374 237 374 "/>
<path id="7" d="M226 182 C226 182 222.2883 184.8206 219 185 C196.9668 186.2018 187.0805 182.9155 171 185 C168.686 185.3 166.438 188.8843 165 192 C164.1168 193.9136 164.055 196.5299 165 198 C167.1713 201.3776 170.4283 201.663 174 206 C177.04 209.6914 176.0101 211.7801 179 215 C181.7238 217.9333 184.2211 217.0226 187 220 C190.4773 223.7257 191.2327 224.8244 193 230 C197.9477 244.4896 194.677 248.8405 201 261 C206.1001 270.8079 213.9659 271.8895 219 280 C220.6684 282.6881 220.2899 286.3145 219 290 C217.394 294.5885 213.5292 295.2214 212 300 C210.086 305.9811 209.4563 309.597 211 315 C212.6336 320.7177 218.5916 322.0532 220 328 C222.327 337.8251 222.1294 342.3532 220 353 C218.5861 360.0695 212 368 212 368 "/>
<path id="8" d="M213 366 C213 366 209.1536 371.0135 205 373 C198.8094 375.9607 196.7751 374.0359 190 377 C181.3542 380.7825 173 386.9284 173 387 C173 387.0215 183.0303 387.116 190 390 C196.0079 392.486 195.7577 395.5043 202 399 C207.788 402.2413 208.7255 402.5061 215 404 C218.5373 404.8422 219.456 404.7876 223 404 C227.8238 402.928 230.5019 402.4981 233 400 C235.4981 397.5019 236.1208 394.9234 237 390 C238.4917 381.6467 238 372 238 372 "/>
<path id="9" d="M239 381 C239 381 251.1115 379.9805 254 381 C254.7929 381.2799 256.248 386.7727 256 387 C254.6835 388.2068 247.8259 388.7958 242 392 C238.7653 393.7791 236 398 236 398 "/>
<path id="10" d="M201 375 C201 375 194.0137 375.1212 189 373 C182.0499 370.0596 175.1168 364.0195 175 364 C174.9761 363.996 175.2402 368.5634 177 371 C180.948 376.4664 188 382 188 382 "/>
<path id="11" d="M218 222 C218 222 215.3782 235.5128 217 242 C217.8212 245.2846 221.718 249.2078 225 250 C231.8602 251.6559 241.5035 250.9784 246 249 C247.7617 248.2249 248.866 243.8195 250 239 C250.7255 235.9166 251.0288 234.3515 250 232 C248.2272 227.9479 246.5666 224.6107 243 223 C234.5358 219.1774 219 218 219 218 "/>
<path id="12" d="M188 198 C188 198 189.908 200.7573 191 201 C192.7208 201.3824 196.9197 200.1605 197 200 C197.0702 199.8595 194.7775 195.2592 194 195 C193.1114 194.7038 188 197 188 197 "/>
<path id="13" d="M266 216 C266 216 282.3723 219.0379 296 225 C305.3361 229.0846 304.7105 231.8392 314 237 C322.4526 241.6959 323.7224 240.0625 332 245 C351.8141 256.8189 351.1097 261.4527 371 271 C386.7639 278.5667 407 281 407 281 "/>
<path id="14" d="M286 268 C286 268 287.1797 275.7525 289 280 C289.4502 281.0505 290.6179 281.6545 292 282 C293.9744 282.4936 296.9195 282.2094 297 282 C297.5445 280.5844 298.0914 273.9112 297 269 C296.5056 266.7753 295.1934 265.4623 293 264 C290.009 262.006 285 261 285 261 "/>
<path id="15" d="M310 259 C310 259 314.2921 265.606 319 270 C321.1503 272.007 324.9946 273.0181 325 273 C325.0549 272.817 324.1181 262.8241 322 260 C320.6458 258.1944 313 257 313 257 "/>
<path id="16" d="M324 215 C324 215 325.7287 218.4858 328 220 C332.4393 222.9596 333.8644 223.0248 339 225 C339.7948 225.3057 341 225 341 225 C341 224.753 340.4339 221.5932 339 220 C336.6173 217.3525 335.204 216.1443 332 215 C329.4472 214.0883 325 215 325 215 "/>
<path id="17" d="M368 232 C368 232 368.3132 237.1835 370 239 C373.2784 242.5305 381 246 381 246 C381 246 367 235 367 235 "/>
<path id="18" d="M375 299 C375 299 374.204 311.7617 375 313 C375.329 313.5117 382.8785 313.6729 384 313 C384.5732 312.6561 385.5059 309.0235 385 307 C384.3841 304.5366 381 301 381 301 "/>
<path id="19" d="M458 313 C458 313 457.982 316.982 459 318 C461.3754 320.3754 463.8536 321.2723 468 323 C469.1223 323.4676 470.8125 323.1875 471 323 C471.1875 322.8125 471.4757 320.9514 471 320 C469.89 317.78 468.9076 315.7028 467 315 C461.8616 313.1069 452 313 452 313 "/>
</g>
</g>
</svg>
