<?xml version="1.0" encoding="utf-8"?>
<!DOCTYPE svg PUBLIC "-//W3C//DTD SVG 1.1//EN" "http://www.w3.org/Graphics/SVG/1.1/DTD/svg11.dtd">
<svg viewBox="0 0 800 800" preserveAspectRatio="xMinYMin meet" xmlns="http://www.w3.org/2000/svg" version="1.1">
<g fill="none" stroke="black" stroke-linecap="round" stroke-linejoin="round" stroke-width="1.1809">
<g transform="translate(154.8429,87.52) scale(2.5405) translate(-245.5,-70.8333)">
<path id="0" d="M432.5 96.8333 C432.5 96.8333 426.6242 88.2305 419.5 82.8333 C410.9491 76.3554 408.9385 73.4064 399.5 71.8333 C376.9486 68.0748 372.418 70.0423 347.5 70.8333 C342.18 71.0022 341.0385 71.2399 336.5 73.8333 C321.1507 82.6043 319.9452 83.5284 305.5 94.8333 C297.3572 101.206 296.2113 101.9464 290.5 109.8333 C286.4488 115.4278 288.1096 117.8173 284.5 123.8333 C282.5311 127.1148 280.2783 126.5732 278.5 129.8333 C274.804 136.6093 274.1032 138.0845 272.5 145.8333 C271.2912 151.676 271.7447 155.0566 272.5 158.8333 C272.6511 159.5887 275.1896 160.0056 275.5 160.8333 C276.096 162.4227 276.4805 164.6109 275.5 166.8333 C269.843 179.6558 268.3155 184.5169 260.5 194.8333 C258.0031 198.1292 252.8245 196.889 250.5 199.8333 C247.2647 203.9314 247.4737 207.1226 245.5 213.8333 C245.1173 215.1347 245.1882 216.4176 245.5 216.8333 C245.8378 217.2838 246.9916 217.6071 248.5 217.8333 C256.7841 219.076 264.9048 218.3702 265.5 219.8333 C269.4955 229.6556 267.5332 248.895 272.5 276.8333 C275.4505 293.4301 275.8342 304.1675 281.5 309.8333 C286.6262 314.9596 297.1881 315.0762 312.5 316.8333 C326.9437 318.4908 327.7207 317.8526 342.5 316.8333 C356.4299 315.8727 356.9084 315.6781 370.5 312.8333 C378.063 311.2504 379.006 311.3123 385.5 307.8333 C392.2433 304.2209 396.4084 302.3152 398.5 297.8333 C401.1643 292.124 397.9526 287.5049 399.5 277.8333 C401.8887 262.9039 401.5162 262.0974 406.5 247.8333 C415.8218 221.1538 421.447 219.6868 428.5 194.8333 C430.9663 186.1426 425.9797 183.5633 427.5 173.8333 C430.7617 152.9584 436.5724 148.5034 438.5 130.8333 C438.9996 126.2541 434.7217 124.7384 433.5 118.8333 C431.8872 111.038 432.5 101.8333 432.5 101.8333 "/>
</g>
</g>
</svg>
