<?xml version="1.0" encoding="utf-8"?>
<!DOCTYPE svg PUBLIC "-//W3C//DTD SVG 1.1//EN" "http://www.w3.org/Graphics/SVG/1.1/DTD/svg11.dtd">
<svg viewBox="0 0 800 800" preserveAspectRatio="xMinYMin meet" xmlns="http://www.w3.org/2000/svg" version="1.1">
<g fill="none" stroke="black" stroke-linecap="round" stroke-linejoin="round" stroke-width="1.2961">
<g transform="translate(219.456,87.52) scale(2.3147) translate(-352,-137.1333)">
<path id="0" d="M359 156.1333 C359 156.1333 355.5874 164.7624 355 173.1333 C353.6402 192.5098 352.1496 200.4359 355 213.1333 C355.8173 216.7741 363.7367 217.6067 366 222.1333 C369.5901 229.3135 368.9326 232.7259 370 243.1333 C370.8974 251.883 372.4516 254.4324 370 261.1333 C366.12 271.7386 361.4993 272.5791 355 284.1333 C352.7905 288.0613 352 292.0083 352 293.1333 C352 293.2583 354.7834 293.7002 355 294.1333 C355.4331 294.9996 354.9131 299.117 355 299.1333 C356.4478 299.4048 370.441 296.6542 371 297.1333 C371.3913 297.4687 368.3367 305.164 369 311.1333 C369.6526 317.0064 372.5061 317.8588 374 324.1333 C374.8422 327.6706 374.9764 329.5947 374 332.1333 C373.155 334.3303 369.9161 334.9347 369 337.1333 C368.0947 339.3061 367.8654 342.2767 369 344.1333 C371.8725 348.8337 378.0295 350.2966 380 355.1333 C382.0365 360.1321 378.1396 368.0769 380 371.1333 C381.8048 374.0984 387.363 376.8777 394 378.1333 C403.9614 380.0179 406.7913 377.0773 417 378.1333 C419.8009 378.4231 421.2881 379.1581 423 381.1333 C426.7716 385.4852 427.8446 387.1461 430 393.1333 C432.0366 398.7907 432 406.1333 432 406.1333 "/>
<path id="1" d="M361 159.1333 C361 159.1333 380.1357 144.2374 398 139.1333 C414.9681 134.2853 419.4443 135.6369 438 137.1333 C448.5099 137.9809 449.9434 139.473 460 144.1333 C469.7845 148.6676 471.2687 148.9819 479 156.1333 C490.3337 166.617 491.8465 168.2002 500 181.1333 C505.5531 189.9417 506.9903 192.0367 508 202.1333 C510.7326 229.4591 513.7394 234.5885 508 261.1333 C498.6692 304.2885 485.4564 306.9887 476 350.1333 C470.3861 375.7468 476 407.1333 476 407.1333 "/>
</g>
</g>
</svg>
