<?xml version="1.0" encoding="utf-8"?>
<!DOCTYPE svg PUBLIC "-//W3C//DTD SVG 1.1//EN" "http://www.w3.org/Graphics/SVG/1.1/DTD/svg11.dtd">
<svg viewBox="0 0 800 800" preserveAspectRatio="xMinYMin meet" xmlns="http://www.w3.org/2000/svg" version="1.1">
<g fill="none" stroke="black" stroke-linecap="round" stroke-linejoin="round" stroke-width="2.2705">
<g transform="translate(127.1581,87.52) scale(1.3213) translate(-187,-7)">
<path id="0" d="M206 162 C206 162 201.2843 161.621 201 162 C200.3367 162.8844 200 166.1397 200 170 C200 173.3778 199.7648 174.1767 201 177 C202.9306 181.4129 206.2993 181.9126 207 186 C208.8166 196.5969 209.3682 200.6325 207 212 C204.8064 222.5295 200.6949 223.6542 197 234 C196.133 236.4275 197.9353 237.7553 197 240 C193.5447 248.2927 188.7216 250.0377 187 258 C185.4146 265.3326 186.4247 274.0888 189 277 C192.1714 280.5851 199.8016 281.6971 210 284 C214.5164 285.0198 216.1034 285.4744 220 284 C232.5851 279.2381 246.4311 269.7593 247 270 C247.2585 270.1094 243.5499 292.5499 246 295 C251.3087 300.3087 265.7808 302.9232 285 308 C291.4605 309.7066 299 309 299 309 "/>
<path id="1" d="M245 298 C245 298 242.1561 308.8964 243 310 C244.3275 311.736 250.7243 314.3386 258 315 C276.8312 316.7119 293.1486 315.849 298 315 C298.1486 314.974 298 308 298 308 "/>
<path id="2" d="M244 311 C244 311 244.3906 322.8216 245 323 C250.4022 324.5811 267.6187 324.7736 285 323 C289.1325 322.5783 290.7342 320.672 294 318 C295.3154 316.9238 296 314 296 314 "/>
<path id="3" d="M246 323 C246 323 262.7428 330.6337 266 337 C270.0356 344.8877 268.9508 354.2738 268 366 C267.7229 369.4178 266.1653 371.5582 263 374 C250.347 383.7609 245.653 383.2391 233 393 C229.8347 395.4418 228.8429 397.2914 228 401 C226.7084 406.6829 226.2327 413.3505 228 415 C233.8249 420.4366 242.9694 423.0577 258 429 C264.0004 431.3723 264.6392 431.8753 271 432 C339.1926 433.3371 344.5586 431.0898 411 432 C413.8605 432.0392 416.9123 433.4517 417 434 C417.6722 438.2014 418.3259 448.3527 415 457 C412.0616 464.6398 408.237 467.654 402 473 C399.732 474.944 393.9992 475 394 475 C394.0178 475.0001 550.074 478.1571 569 474 C569.6618 473.8546 567 437 567 437 "/>
<path id="4" d="M207 160 C207 160 202.7303 109.7794 206 68 C206.846 57.1906 209.4376 53.3124 216 45 C222.5401 36.7159 225.4993 35.2504 236 30 C251.2738 22.3631 252.8089 23.0692 270 18 C291.6357 11.6202 292.4316 8.1298 314 7 C394.3199 2.7928 400.7325 2.3825 480 7 C499.4344 8.1321 501.5144 11.0776 520 19 C535.4436 25.6187 536.9691 26.7416 550 37 C559.428 44.422 559.4284 45.9788 567 56 C576.236 68.2241 578.0402 68.455 584 82 C593.9758 104.6722 598.0395 107.2293 600 131 C605.6493 199.4972 608.2916 208.1866 600 276 C595.0008 316.8862 582.5233 319.4102 572 360 C569.2325 370.6746 573.8248 372.6862 572 384 C568.9881 402.6739 565.1866 403.1699 562 422 C559.8188 434.8891 561 449 561 449 "/>
<path id="5" d="M350 434 C350 434 363.0982 444.5536 367 454 C370.8735 463.378 369 480 369 480 "/>
<path id="6" d="M371 475 C371 475 389.8845 473.5604 405 475 C408.726 475.3549 409.0966 478.1868 413 479 C420.1625 480.4922 429 480 429 480 "/>
<path id="7" d="M225 166 L326 168 "/>
<path id="8" d="M227 170 C227 170 243.8687 178.2076 260 180 C286.9556 182.9951 291.4873 181.2149 317 180 C319.7495 179.8691 321.4671 178.5329 323 177 C323.8516 176.1484 324 173 324 173 "/>
<path id="9" d="M248 179 C248 179 245.7623 192.2462 246 197 C246.0285 197.571 249 199 249 199 "/>
<path id="10" d="M251 182 L251 199 "/>
<path id="11" d="M243 206 C243 206 260.2415 207.446 274 205 C280.7273 203.804 288 198 288 198 "/>
<path id="12" d="M430 173 C430 173 431.1726 164.3928 434 161 C436.7966 157.6441 439.4318 157.4748 445 155 C448.2142 153.5715 448.7566 153 452 153 C460.3403 153 463.4856 151.6735 470 155 C483.7793 162.0363 486.3843 165.4072 499 177 C503.8773 181.4818 504.1864 182.7698 507 189 C510.9124 197.6631 511.6073 198.7154 513 208 C514.4697 217.7978 514.0241 219.4415 513 229 C512.643 232.3325 511.6844 232.6311 510 236 C508.7119 238.5762 508.9497 239.5052 507 241 C495.3589 249.9249 489.0385 248.5555 480 259 C469.1672 271.5179 468.8476 285.7244 462 293 C460.2288 294.8819 453.8694 294.276 448 293 C443.7711 292.0807 440.3625 290.3162 439 288 C437.3339 285.1676 438 276 438 276 "/>
<path id="13" d="M433 173 C433 173 440.7321 167.6351 447 166 C450.4611 165.0971 451.869 165.7607 456 167 C466.3941 170.1182 467.548 170.1216 477 175 C482.3145 177.743 483.1327 178.6171 487 183 C490.083 186.4941 490.4913 187.4739 492 192 C493.7916 197.3748 493.8769 198.0929 494 204 C494.3677 221.6497 496.4857 226.5933 493 240 C491.3542 246.3299 487.4819 250.1773 481 254 C470.6618 260.0969 454 263 454 263 "/>
<path id="14" d="M441 206 L442 236 "/>
<path id="15" d="M453 207 L460 229 "/>
<path id="16" d="M202 62 C202 62 221.4085 48.3301 241 38 C248.0684 34.273 249.3051 33.1924 257 33 C344.8049 30.8049 351.4141 30.4404 441 33 C453.7423 33.3641 454.1581 38.1519 467 39 C505.9527 41.5723 547 40 547 40 "/>
<path id="17" d="M275 25 L501 24 "/>
<path id="18" d="M204 80 C204 80 254.7204 54.0056 303 49 C397.4676 39.2057 414.2769 44.2257 503 49 C513.4896 49.5645 515.4821 53.8802 526 61 C547.5142 75.5635 550.0916 75.3589 568 93 C582.2475 107.0348 593 127 593 127 "/>
<path id="19" d="M475 75 C475 75 491.3879 80.8443 503 90 C515.9746 100.2299 516.3001 102.2429 527 116 C540.5213 133.3846 542.9168 133.7775 552 153 C563.631 177.6145 566.0845 180.6792 570 207 C574.6286 238.1144 566.6086 243.8165 570 274 C571.1705 284.4172 575.91 285.7751 580 296 C580.4719 297.1798 580.0076 299.0019 580 299 C579.9495 298.9874 576 295 576 295 "/>
<path id="20" d="M538 97 C538 97 555.7609 120.5902 570 145 C576.372 155.9234 575.9313 156.794 580 169 C585.8549 186.5647 587.4747 187.323 590 205 C592.294 221.0578 588.32 225.224 590 239 C590.376 242.0833 595 246 595 246 "/>
<path id="21" d="M394 57 C394 57 439.3137 54.6527 480 57 C488.6795 57.5007 490.4624 58.3471 498 63 C529.3125 82.3287 534.6523 92.2863 561 107 C565.0442 109.2584 575 106 575 106 "/>
<path id="22" d="M424 90 C424 90 430.732 85.7835 437 85 C449.4211 83.4474 451.6489 82.3632 464 85 C494.2173 91.4509 495.7515 97.8202 526 104 C540.2331 106.9078 542.4096 106.0125 557 104 C570.2271 102.1756 573.8029 101.2442 584 96 C588.3073 93.7848 592 86 592 86 "/>
<path id="23" d="M363 112 C363 112 372.1129 115.2745 381 116 C396.0329 117.2272 397.8299 117.8483 412 116 C419.2142 115.059 427 110 427 110 "/>
<path id="24" d="M373 150 L402 148 "/>
<path id="25" d="M381 167 L400 167 "/>
<path id="26" d="M375 188 L400 187 "/>
<path id="27" d="M389 166 L402 162 "/>
<path id="28" d="M372 138 L417 137 "/>
<path id="29" d="M348 122 C348 122 378.739 122.032 408 120 C413.9401 119.5875 420 117 420 117 "/>
<path id="30" d="M301 100 C301 100 346.1343 116.5278 387 130 C389.1309 130.7025 390.7877 130.7714 392 130 C394.5348 128.387 398 123 398 123 "/>
<path id="31" d="M240 83 C240 83 298.9928 79.0657 353 83 C371.5447 84.3509 375.5344 86.5646 391 94 C398.4064 97.5608 397.6261 102.1009 405 108 C409.6233 111.6987 410.814 112.7035 416 114 C421.3935 115.3484 423.1466 114.878 429 114 C432.3544 113.4968 433.9501 112.5374 436 111 C436.7202 110.4598 437 108 437 108 "/>
<path id="32" d="M192 88 C192 88 199.6716 81.9009 208 79 C243.1086 66.7712 245.0408 66.617 281 57 C287.048 55.3825 287.512 56.1224 294 56 C313.934 55.6239 315.8332 51.9947 334 56 C376.3165 65.3296 421 84 421 84 "/>
<path id="33" d="M204 70 C204 70 213.1018 62.5425 223 59 C259.3493 45.9908 262.2655 42.0742 299 36 C322.3238 32.1433 325.7633 34.6253 350 38 C363.8265 39.9252 364.6703 41.4258 378 47 C391.7875 52.7657 405 61 405 61 "/>
<path id="34" d="M204 69 C204 69 205.375 54.0662 210 44 C212.8417 37.8152 215.156 34.2958 221 32 C251.216 20.1294 258.2137 16.8257 294 11 C320.2244 6.7309 322.425 9.8821 350 11 C358.9233 11.3618 359.4927 11.4318 368 14 C385.5155 19.2877 387.3809 18.3684 403 27 C424.1146 38.6686 444 56 444 56 "/>
<path id="35" d="M296 74 C296 74 342.324 68.0193 383 73 C412.1813 76.5732 413.7117 86.5443 443 92 C462.3599 95.6062 467.6194 94.0448 485 92 C489.0165 91.5275 494 86 494 86 "/>
<path id="36" d="M248 73 C248 73 280.456 68.8791 308 75 C353.6198 85.1377 355.9186 96.47 401 107 C420.7421 111.6113 426.1887 109.3514 445 107 C450.5044 106.3119 457 100 457 100 "/>
<path id="37" d="M389 46 C389 46 397.4902 45.9228 405 48 C420.4442 52.2718 422.253 51.3812 436 59 C462.4582 73.6636 461.7798 77.5635 488 94 C494.8753 98.3099 495.6823 99.7086 503 101 C519.3854 103.8915 523.7821 104.2951 539 103 C543.8889 102.5839 547.5189 100.19 550 97 C552.4432 93.8587 553 85 553 85 "/>
<path id="38" d="M419 12 C419 12 425.2216 10.5665 430 12 C467.8359 23.3508 472.102 24.403 509 39 C515.4021 41.5327 517.1151 42.6907 521 48 C530.8694 61.4882 539 80 539 80 "/>
<path id="39" d="M390 26 C390 26 393.8727 25.1958 397 26 C410.5432 29.4825 412.1344 29.0437 425 35 C438.3619 41.1861 440.0495 42.3723 451 51 C455.2203 54.3251 458 61 458 61 "/>
<path id="40" d="M213 45 C213 45 217.2332 35.7697 223 29 C228.1918 22.9053 229.07 21.465 236 18 C249.6727 11.1636 252.0625 8.1821 267 7 C317.6188 2.9942 323.7241 3.9157 375 7 C387.0979 7.7277 388.2849 9.9065 400 15 C410.785 19.6891 410.2702 22.1716 421 27 C429.8196 30.9688 440 33 440 33 "/>
<path id="41" d="M440 15 C440 15 480.9129 12.0761 516 15 C525.5412 15.7951 526.843 18.0503 536 23 C544.8416 27.7792 546.2754 28.581 553 35 C556.2119 38.0659 556.2585 39.3056 558 44 C567.5741 69.8085 576 97 576 97 "/>
<path id="42" d="M247 85 C247 85 283.2682 81.6033 316 85 C334.0934 86.8776 334.9185 94.2553 353 96 C389.5796 99.5296 394.5166 97.9935 430 96 C435.6593 95.6821 438.6678 93.3069 442 91 C442.8123 90.4376 443 87 443 87 "/>
<path id="43" d="M353 70 C353 70 392.8238 86.2366 430 96 C439.7566 98.5623 452 96 452 96 "/>
<path id="44" d="M580 195 C580 195 591.5444 219.5558 598 243 C600.5936 252.4187 599 264 599 264 "/>
<path id="45" d="M547 213 C547 213 554.3761 215.094 556 218 C561.6004 228.0218 564.2162 232.9083 566 247 C568.9468 270.28 564.4645 273.5832 566 297 C566.3459 302.2745 570 308 570 308 "/>
</g>
</g>
</svg>
