<?xml version="1.0" encoding="utf-8"?>
<!DOCTYPE svg PUBLIC "-//W3C//DTD SVG 1.1//EN" "http://www.w3.org/Graphics/SVG/1.1/DTD/svg11.dtd">
<svg viewBox="0 0 800 800" preserveAspectRatio="xMinYMin meet" xmlns="http://www.w3.org/2000/svg" version="1.1">
<g fill="none" stroke="black" stroke-linecap="round" stroke-linejoin="round" stroke-width="0.60964">
<g transform="translate(87.52,114.5852) scale(4.9209) translate(-189,-127.1333)">
<path id="0" d="M211 203.1333 C211 203.1333 209.8035 194.8618 207 188.1333 C205.0656 183.4907 202.3083 183.549 201 179.1333 C198.743 171.5159 199.286 169.9989 199 161.1333 C198.7947 154.7691 198.0031 153.2164 200 148.1333 C202.8223 140.9492 204.9785 135.5857 210 133.1333 C220.4137 128.0476 226.6423 129.0208 243 127.1333 C252.2246 126.069 252.8587 125.9664 262 127.1333 C275.8399 128.9001 280.3819 128.4542 290 133.1333 C294.6157 135.3788 295.6963 139.1265 299 145.1333 C300.7737 148.3582 300.8088 149.2139 301 153.1333 C301.7792 169.1064 304.3247 171.7957 301 186.1333 C296.9993 203.3863 294.3311 205.5782 285 222.1333 C279.3094 232.2295 276.9865 236.6874 270 241.1333 C265.0297 244.2962 259.8207 243.4462 252 243.1333 C248.8927 243.009 247.2603 242.3937 245 240.1333 C231.438 226.5714 229.5764 223.9552 217 208.1333 C214.8247 205.3967 214 201.1333 214 201.1333 "/>
<path id="1" d="M262 160.1333 C262 160.1333 268.6375 157.1333 274 157.1333 C279.8093 157.1333 287 160.1333 287 160.1333 "/>
<path id="2" d="M240 164.1333 C240 164.1333 229.8837 162.2928 224 163.1333 C221.9328 163.4287 219 167.1333 219 167.1333 "/>
<path id="3" d="M269 169.1333 C269 169.1333 271.6777 166.5978 274 166.1333 C278.147 165.3039 282.6938 165.4209 284 166.1333 C284.5581 166.4377 285.1116 172.0775 285 172.1333 C284.4141 172.4263 274 171.1333 274 171.1333 "/>
<path id="4" d="M271 170.1333 L274 172.1333 "/>
<path id="5" d="M225 173.1333 C225 173.1333 227.0471 170.021 229 169.1333 C231.5021 167.996 234.5341 167.9501 236 168.1333 C236.2665 168.1666 237 169.3032 237 170.1333 C237 173.0387 236.6323 176.731 236 177.1333 C234.8409 177.871 228.0156 177.6831 226 177.1333 C225.6335 177.0334 225 174.1333 225 174.1333 "/>
<path id="6" d="M250 165.1333 C250 165.1333 251.8338 171.9222 251 177.1333 C250.0282 183.2071 245.7707 189.8021 246 190.1333 C246.233 190.4699 256.7407 191.2837 260 190.1333 C261.1914 189.7128 263 184.1333 263 184.1333 "/>
<path id="7" d="M244 210.1333 C244 210.1333 254.2181 212.795 262 213.1333 C264.1088 213.225 265.6641 212.4692 267 211.1333 C268.7176 209.4158 270 205.1333 270 205.1333 "/>
<path id="8" d="M244 211.1333 C244 211.1333 248.9901 217.445 253 219.1333 C256.242 220.4984 258.4324 219.7423 263 219.1333 C265.4056 218.8126 267.1129 218.4148 268 217.1333 C270.2366 213.9027 272 206.1333 272 206.1333 "/>
<path id="9" d="M304 170.1333 C304 170.1333 305.1338 164.9996 306 164.1333 C306.4331 163.7002 308.7494 163.508 310 164.1333 C312.6576 165.4621 315.5296 167.0949 316 169.1333 C317.5472 175.8381 317.9035 184.4229 316 190.1333 C315.1842 192.5806 311.1536 194.7488 307 196.1333 C303.6016 197.2661 298 196.1333 298 196.1333 "/>
<path id="10" d="M203 181.1333 C203 181.1333 198.3991 179.1333 195 179.1333 C192.4507 179.1333 189.6757 180.2325 189 181.1333 C188.3763 181.9649 188.216 184.6507 189 187.1333 C190.9462 193.2964 191.5496 194.1735 195 200.1333 C196.863 203.3513 197.856 204.9639 200 206.1333 C201.555 206.9815 204.5037 207.0541 206 206.1333 C208.9735 204.3035 213 198.1333 213 198.1333 "/>
<path id="11" d="M235 174.1333 L232 173.1333 "/>
<path id="12" d="M280 169.1333 L281 168.1333 "/>
</g>
</g>
</svg>
