<?xml version="1.0" encoding="utf-8"?>
<!DOCTYPE svg PUBLIC "-//W3C//DTD SVG 1.1//EN" "http://www.w3.org/Graphics/SVG/1.1/DTD/svg11.dtd">
<svg viewBox="0 0 800 800" preserveAspectRatio="xMinYMin meet" xmlns="http://www.w3.org/2000/svg" version="1.1">
<g fill="none" stroke="black" stroke-linecap="round" stroke-linejoin="round" stroke-width="0.73925">
<g transform="translate(87.52,103.7527) scale(4.0582) translate(-269,-168)">
<path id="0" d="M378 211 C378 211 375.7874 199.071 371 190 C366.8642 182.1637 365.5357 180.9911 359 175 C354.3256 170.7151 352.4331 168.9314 347 168 C337.6038 166.3892 333.1441 165.8275 324 169 C311.6426 173.2873 309.2888 175.9139 298 185 C289.6715 191.7034 288.6802 193.0063 283 202 C277.2746 211.0652 277.4484 212.3894 274 223 C271.0741 232.0029 270.9652 232.5407 270 242 C268.5029 256.6714 267.2367 258.1455 269 272 C270.5358 284.0668 272.0421 286.0927 277 297 C278.9359 301.259 280.072 302.5268 284 305 C292.3757 310.2736 294.425 312.1665 304 314 C315.9007 316.2789 318.6065 315.886 331 314 C340.2103 312.5984 342.8625 311.8351 350 307 C356.4586 302.6248 356.4273 300.2445 362 293 C366.3548 287.3388 367.2647 287.1544 370 281 C372.9502 274.362 371.1655 272.9918 374 266 C378.5122 254.8699 385 244 385 244 "/>
<path id="1" d="M384 219 C384 219 383.8656 209.8696 386 204 C387.2461 200.5733 390.1528 197.2217 392 197 C397.0016 196.3998 403.9087 197.4543 411 201 C416.5717 203.7859 420.293 207.0211 422 212 C424.8131 220.205 424.2179 225.6477 423 236 C422.46 240.5897 421.0875 242.2 418 246 C415.2556 249.3777 413.7857 250.8959 410 252 C403.6744 253.845 399.8203 254.6056 394 253 C388.2691 251.4191 381 244 381 244 "/>
<path id="2" d="M307 213 C307 213 302.1043 210.171 298 210 C291.2906 209.7204 283 212 283 212 "/>
<path id="3" d="M320 215 C320 215 328.3207 209.581 336 208 C343.9253 206.3683 354 208 354 208 "/>
<path id="4" d="M276 226 C276 226 280.0884 222.8503 284 222 C290.7111 220.5411 293.1011 219.9741 299 221 C302.5289 221.6137 305.2403 224.0203 307 226 C307.5812 226.6538 307.5424 229.2406 307 230 C306.1089 231.2476 304.348 232.6646 302 233 C291.9903 234.43 287.314 235.3857 279 234 C276.0871 233.5145 273.8892 230.429 272 228 C271.5048 227.3633 272 225 272 225 "/>
<path id="5" d="M330 222 C330 222 332.5642 218.6959 335 218 C341.5709 216.1226 348.8107 215.0782 351 216 C352.0414 216.4385 354.4381 223.8094 354 226 C353.711 227.4448 350.6995 230.4775 348 231 C338.2393 232.8892 328.0095 233.5547 323 232 C321.5587 231.5527 318.7384 222.3924 319 222 C319.3567 221.465 331 220 331 220 "/>
<path id="6" d="M340 222 C340 222 333.9056 221.6226 329 222 C328.0738 222.0712 327.0498 222.7508 327 223 C326.8647 223.6764 327.3654 226.6827 328 227 C331.0675 228.5337 339.4402 230.5849 341 230 C341.8374 229.686 344.4353 221.9432 344 221 C343.5339 219.9901 335 217 335 217 "/>
<path id="7" d="M292 222 C292 222 285.8178 223.0653 285 224 C284.396 224.6902 284.6371 229.8046 285 230 C286.5209 230.8189 296.8289 231.4504 298 231 C298.2142 230.9176 298.9364 226.3109 298 225 C295.6368 221.6915 288 217 288 217 "/>
<path id="8" d="M314 238 C314 238 295.4179 245.1979 291 250 C289.268 251.8826 290.1016 257.31 291 263 C291.4474 265.8335 293.2672 268.843 294 269 C295.7709 269.3795 302.9565 266.9289 305 266 C305.1503 265.9317 305 264 305 264 "/>
<path id="9" d="M296 282 C296 282 301.6025 284.4777 307 285 C316.5612 285.9253 320.451 287.504 327 285 C333.2119 282.6249 335.6894 278.0187 341 272 C342.0227 270.841 342.0007 267.9993 342 268 C341.9981 268.0019 338.3232 272.2952 337 276 C336.1887 278.2716 337.9124 280.3056 337 282 C335.3624 285.0412 333.2369 287.823 330 289 C324.7902 290.8945 320.6988 291.1873 315 290 C311.051 289.1773 306 284 306 284 "/>
</g>
</g>
</svg>
