<?xml version="1.0" encoding="utf-8"?>
<!DOCTYPE svg PUBLIC "-//W3C//DTD SVG 1.1//EN" "http://www.w3.org/Graphics/SVG/1.1/DTD/svg11.dtd">
<svg viewBox="0 0 800 800" preserveAspectRatio="xMinYMin meet" xmlns="http://www.w3.org/2000/svg" version="1.1">
<g fill="none" stroke="black" stroke-linecap="round" stroke-linejoin="round" stroke-width="0.76805">
<g transform="translate(122.674,87.52) scale(3.906) translate(-288,-134)">
<path id="0" d="M415,172C415,172 411.19988568835634,159.67983996369892 405,151C399.5554303345906,143.37760246842686 397.61077973036435,142.88105706437244 390,137C387.2531516818227,134.8774353904994 386.22722162088945,134.28062796703386 383,134C375.92716698655363,133.38497104230902 373.91472105872696,132.96625851213912 367,135C358.2380249400247,137.57705148822805 356.88683831497906,138.74210779001396 349,144C344.0707260531381,147.28618263124127 344.6859681575826,149.48552388181307 340,153C337.24792346300705,155.0640574027447 335.42460425480664,153.86064330458237 333,156C327.82553970010775,160.5657002646108 326.40291998651025,162.04489002360705 323,168C321.0515538786917,171.40978071228952 321.10146187569694,172.58640840718283 321,177C320.1251330514873,215.05671226030145 319.5132331411819,224.1495876795242 321,255C321.0989799994054,257.0538349876622 325.005059433627,259.99586046339607 325,260C321.9390426556607,262.5044196453685 288,282 288,282"/>
<path id="1" d="M416,171C416,171 414.5360540911573,183.04516781986982 416,193C416.84744462370173,198.7626234411716 417.75357574877176,199.89847617664137 421,205C424.3630622482783,210.28481210443738 426.94573014725864,210.9276401963449 430,215C430.3646889376408,215.48625191685434 430.11158744263065,216.9594227481343 430,217C428.2006524875807,217.6543081863343 419.1924729991875,218.24935530316875 419,219C417.53290527746975,224.72166941786787 421.1838562583316,249.40422941786656 420,256C419.889528733554,256.6154827701991 415.28918514151365,256.1852771633028 412,258C401.62162415575426,263.7260004657908 400.9402774195618,268.5324613652691 391,272C382.4172447437566,274.9939843917128 378.1096812093604,270.9429752107896 369,273C364.75586695471014,273.95835262312994 363.5755491583504,275.4244508416496 360,279C353.5640115149693,285.4359884850307 348,294 348,294"/>
<path id="2" d="M388,177C388,177 396.4116805878913,178.2664656748619 400,177C402.1283659258096,176.24881202618485 405,171 405,171"/>
<path id="3" d="M394,186C394,186 397.23133909391765,182.2721016778588 399,182C401.4228231590169,181.62725797553585 405.93430271858596,183.06751487876272 407,184C407.4781974980704,184.4184228108116 407.2932468778579,188.85337656107106 407,189C405.5337656107105,189.73311719464476 395,190 395,190"/>
<path id="4" d="M401,187L402,187"/>
<path id="5" d="M402,239C402,239 414.32682926829267,239.35853658536584 416,239C416.07682926829267,238.98353658536584 416,236 416,236"/>
<path id="6" d="M364,197C364,197 364.4926918660581,194.54196105266396 364,194C361.1931493691233,190.91246430603564 358.3547048337369,188.48840276213536 354,186C352.8045908299546,185.31690904568833 350.9490818867588,185.40682382077577 350,186C348.3094478892109,187.05659506924317 346.2775462771302,188.84901635224082 346,191C344.6917994189067,201.13855450347307 344.9498773493359,204.74856907558572 346,217C346.3738898228738,221.36204793352772 347.7006583509747,224.70065835097475 349,226C349.6496708245126,226.64967082451264 354.8749405074337,226.31264873141578 355,226C356.0838489355747,223.29037766106325 354.87103160290263,211.67724905892635 357,206C357.67973087377203,204.18738433660786 364,202 364,202"/>
</g>
</g>
</svg>
