<?xml version="1.0" encoding="utf-8"?>
<!DOCTYPE svg PUBLIC "-//W3C//DTD SVG 1.1//EN" "http://www.w3.org/Graphics/SVG/1.1/DTD/svg11.dtd">
<svg viewBox="0 0 800 800" preserveAspectRatio="xMinYMin meet" xmlns="http://www.w3.org/2000/svg" version="1.1">
<g fill="none" stroke="black" stroke-linecap="round" stroke-linejoin="round" stroke-width="1.4737">
<g transform="translate(164.8766,87.52) scale(2.0357) translate(-100,-27.1333)">
<path id="0" d="M115 157.1333 C115 157.1333 116.2281 150.0732 119 144.1333 C123.0398 135.4766 123.0607 134.6356 129 127.1333 C141.6731 111.1252 142.6042 109.8094 157 96.1333 C161.6733 91.6937 162.7723 91.2463 169 89.1333 C189.8262 82.0673 191.3834 79.7803 213 77.1333 C238.6721 73.9898 245.3321 72.8568 267 77.1333 C277.0156 79.1101 278.5906 84.2366 289 92.1333 C292.839 95.0457 293.5214 95.32 296 99.1333 C299.6268 104.713 299.6469 105.5019 302 112.1333 C305.0756 120.8009 305.478 121.3056 307 130.1333 C307.8876 135.2815 305.9641 136.1263 307 141.1333 C308.8121 149.8917 312.3759 150.3956 313 159.1333 C315.7118 197.0986 317.4674 201.3075 314 239.1333 C312.2166 258.5886 309.7626 261.1242 302 279.1333 C297.9439 288.5435 296.8159 291.0673 289 297.1333 C265.7038 315.214 261.5121 316.0418 235 331.1333 C230.4071 333.7478 229.4021 333.5331 224 334.1333 C216.3736 334.9807 214.2004 336.2545 208 334.1333 C197.7509 330.6271 196.1646 328.4613 186 321.1333 C174.9915 313.1969 172.3715 313.4256 165 303.1333 C147.3928 278.5498 146.8096 275.6531 133 247.1333 C124.1576 228.8718 122.4504 227.3265 119 208.1333 C114.8146 184.8522 117 158.1333 117 158.1333 "/>
<path id="1" d="M196 180.1333 C196 180.1333 196.6428 177.2047 196 176.1333 C194.4572 173.562 193.1271 171.7889 190 170.1333 C185.7102 167.8623 184.3999 167.6919 179 167.1333 C170.4063 166.2443 164.6602 165.3828 161 167.1333 C158.9135 168.1312 156 178.1333 156 178.1333 "/>
<path id="2" d="M197 180.1333 C197 180.1333 190.109 186.008 184 187.1333 C173.3121 189.1021 167.0107 188.5145 159 187.1333 C157.4421 186.8647 155 182.1333 155 182.1333 "/>
<path id="3" d="M181 175.1333 C181 175.1333 178.1875 174.9458 178 175.1333 C177.8125 175.3208 178 178.1333 178 178.1333 C178.0071 178.1333 180 175.2077 180 175.1333 C180 175.1333 178.05 175.0333 178 175.1333 C177.8 175.5333 177.8 178.7333 178 179.1333 C178.05 179.2333 180 179.1333 180 179.1333 "/>
<path id="4" d="M229 177.1333 C229 177.1333 231.7874 173.7396 235 172.1333 C242.181 168.5428 243.4828 167.4294 251 166.1333 C256.6607 165.1573 260.2526 165.5903 264 167.1333 C265.808 167.8778 268 173.1333 268 173.1333 "/>
<path id="5" d="M229 178.1333 C229 178.1333 235.5566 185.6924 241 187.1333 C249.3266 189.3374 254.4657 188.3977 263 187.1333 C265.1695 186.8119 266.681 185.1119 268 183.1333 C269.0193 181.6045 269 178.1333 269 178.1333 "/>
<path id="6" d="M249 177.1333 L251 177.1333 "/>
<path id="7" d="M250 179.1333 C250 179.1333 251.8105 178.0386 252 178.1333 C252.4422 178.3544 253.9982 181.1351 254 181.1333 C254.0088 181.1245 254 176.1333 254 176.1333 "/>
<path id="8" d="M132 138.1333 C132 138.1333 124 86.1335 124 86.1333 C124 86.1333 126.1179 98.4577 130 109.1333 C131.878 114.2977 135.998 119.1345 136 119.1333 C136.1952 119.0195 140.7608 110.3945 142 102.1333 C143.5922 91.5184 142 79.1333 142 79.1333 C142 79.1333 144 121.1333 144 121.1333 C144 121.1333 144 73.1333 144 73.1333 "/>
<path id="9" d="M150 97.1333 L153 106.1333 "/>
<path id="10" d="M149 116.1333 C149 116.1333 151.9113 104.109 153 92.1333 C154.3893 76.851 154 61.1333 154 61.1333 C154 61.1333 154.6118 108.1454 155 115.1333 C155.0008 115.1477 156.9967 115.1628 157 115.1333 C157.4 111.5334 157.7753 89.2567 158 88.1333 C158.0099 88.0838 161.6658 89.1783 162 90.1333 C163.8728 95.4841 164.9643 108.062 165 108.1333 C165.0082 108.1498 167.6112 105.0494 168 102.1333 C170.3936 84.1816 171 63.1334 171 63.1333 C171 63.1333 170.9985 86.1337 171 86.1333 C171.0038 86.1324 178.998 61.1277 179 61.1333 C179.0042 61.1454 178.9925 108.9644 179 109.1333 C179.0005 109.1436 180.7241 107.6046 181 106.1333 C183.4317 93.164 183.9872 91.5656 185 77.1333 C185.9685 63.3323 185 49.1333 185 49.1333 C185 49.1333 184.1963 69.2454 185 88.1333 C185.1666 92.049 186.0675 95.0676 187 96.1333 C187.4184 96.6115 191.5221 96.671 192 96.1333 C193.2545 94.722 194.5138 91.5096 195 87.1333 C195.9378 78.6935 195 69.1333 195 69.1333 C195 69.1333 197.7751 129.3449 198 132.1333 C198.003 132.1703 199.9922 131.4097 200 131.1333 C200.5158 112.8216 200 61.1333 200 61.1333 "/>
<path id="11" d="M200 50.1333 L199 90.1333 "/>
<path id="12" d="M206 113.1333 C206 113.1333 209.2019 104.0721 210 95.1333 C211.656 76.5862 211 57.1333 211 57.1333 C211 57.1333 211.8949 66.8263 211 76.1333 C209.423 92.5337 206 109.1336 206 109.1333 C206 109.1329 208 39.1333 208 39.1333 C208 39.1333 207.8435 111.2772 208 114.1333 C208.0037 114.2011 211.1019 113.4396 212 112.1333 C215.5569 106.9596 216.2286 105.3389 219 98.1333 C226.1392 79.5715 231.9975 60.1329 232 60.1333 C232.0022 60.1337 233.2283 80.4813 232 100.1333 C231.2554 112.0474 228 124.1337 228 124.1333 C227.9999 124.1325 229 65.1333 229 65.1333 "/>
<path id="13" d="M231 60.1333 C231 60.1333 230.9999 108.1311 231 108.1333 C231 108.1338 233 98.1333 233 98.1333 "/>
<path id="14" d="M238 121.1333 C238 121.1333 239.0238 75.183 239 75.1333 C238.991 75.1145 227 98.1333 227 98.1333 C227 98.1333 237.1517 82.78 242 67.1333 C247.7352 48.6244 249 27.1333 249 27.1333 C249 27.1334 241.9996 98.1316 242 98.1333 C242.0003 98.1344 254.9971 51.1297 255 51.1333 C255.005 51.1395 254.1464 83.4027 255 114.1333 C255.1227 118.5505 256.2054 121.7031 257 123.1333 C257.131 123.3691 259.9279 123.3226 260 123.1333 C261.4448 119.3407 264.123 112.4816 265 102.1333 C266.5555 83.7783 265 64.1333 265 64.1333 C265 64.1333 265.9985 106.1306 266 106.1333 C266.0009 106.135 267.7216 89.9686 272 77.1333 C273.7022 72.0268 278.9884 67.1001 279 67.1333 C279.051 67.2799 281.1338 84.0339 280 100.1333 C278.6771 118.9183 274 138.1334 274 138.1333 C274 138.1333 287.9971 78.1372 288 78.1333 C288.0017 78.1311 287.9959 119.1352 288 119.1333 C288.008 119.1296 302.954 71.2597 303 71.1333 C303.0031 71.1247 303.9524 73.1819 304 75.1333 C304.4376 93.0744 304.9297 93.8499 304 112.1333 C303.4434 123.08 301.0001 134.1333 301 134.1333 C300.9999 134.1334 300.1008 123.4742 301 113.1333 C303.0777 89.2401 306.9999 65.1337 307 65.1333 C307.0001 65.1331 309.1669 80.9498 307 95.1333 C303.8449 115.7848 295.9877 137.1333 296 137.1333 C296.0392 137.1333 330.711 95.3398 331 95.1333 C331.054 95.0948 332.6195 104.2849 331 112.1333 C326.3622 134.6088 318.006 158.1316 318 158.1333 C317.9975 158.134 318.4908 136.6316 317 116.1333 C316.5316 109.6933 314.0691 103.0833 314 103.1333 C313.4543 103.5285 301.1977 120.5297 288 137.1333 C285.8334 139.8591 284.2827 141.4004 283 142.1333 C282.7668 142.2666 280.9813 141.1982 281 141.1333 C284.1254 130.2765 301.998 76.1743 302 76.1333 C302.0007 76.1185 293.1375 88.3623 283 99.1333 C269.2889 113.7014 254.0227 127.1608 254 127.1333 C253.6391 126.6978 254.0936 64.1621 254 64.1333 C253.8874 64.0987 215.1431 115.1333 215 115.1333 C214.989 115.1333 218.0152 64.136 218 64.1333 C217.9369 64.1224 186.1138 110.1106 186 110.1333 C185.9724 110.1389 188.0229 70.1162 188 70.1333 C187.9413 70.1773 154.0719 134.034 154 134.1333 C153.9862 134.1524 155.9106 124.4284 154 117.1333 C150.8665 105.1691 143.6388 92.7012 143 92.1333 C142.9808 92.1162 138.3981 96.3372 136 101.1333 C130.7243 111.6848 130.1463 112.8066 127 124.1333 C125.3617 130.0312 125.8947 135.7643 126 137.1333 C126.0013 137.1496 127.9891 137.188 128 137.1333 C128.4156 135.0553 129.0101 122.1377 129 122.1333 C128.9947 122.131 123.0573 128.1486 121 134.1333 C118.0667 142.6667 117.2293 153.3627 118 154.1333 C119.0427 155.176 129.8699 155.0608 141 154.1333 C147.4119 153.599 148.4211 153.7485 154 151.1333 C163.5362 146.6632 173.0645 139.1536 173 139.1333 C172.6842 139.0339 100.0771 134.1608 100 134.1333 C99.9752 134.1245 127.9994 123.122 128 123.1333 C128.0018 123.1663 100.8671 151.7567 101 152.1333 C101.1281 152.4963 139.6211 157.2378 140 157.1333 C140.0646 157.1155 130.267 144.1949 130 144.1333 C129.9858 144.13 127 154.1334 127 154.1333 C127 154.1332 130.3859 140.0147 132 126.1333 C132.8471 118.8482 132.949 117.4603 132 111.1333 C131.6552 108.8346 129.0186 106.0933 129 106.1333 C128.806 106.5512 122.0395 122.8304 119 139.1333 C116.717 151.3784 117.641 163.6972 118 165.1333 C118.0035 165.1473 123.9112 164.5851 125 163.1333 C127.6658 159.579 129.0411 156.0054 130 149.1333 C131.9011 135.5088 131.6392 134.1967 131 120.1333 C130.6658 112.7815 129.5271 108.6238 128 105.1333 C127.7426 104.5449 124.0018 104.1266 124 104.1333 C123.3455 106.5644 118.7997 126.3444 121 131.1333 C122.6479 134.72 139.9318 141.6476 141 141.1333 C142.2714 140.5212 145.8841 129.6746 148 118.1333 C151.2879 100.1995 152 81.1333 152 81.1333 C152.0001 81.1334 151.9221 119.173 152 120.1333 C152.0035 120.1766 154.1819 119.3605 155 118.1333 C158.6134 112.7133 159.6756 111.8619 162 105.1333 C168.9568 84.9952 173.9945 63.1296 174 63.1333 C174.0131 63.1424 177.9729 116.1371 178 116.1333 C178.4317 116.0729 222.3256 57.5823 224 56.1333 C224.1194 56.03 226.3107 64.2819 230 71.1333 C233.0977 76.8863 238 82.1333 238 82.1333 "/>
<path id="15" d="M217 242.1333 C217 242.1333 210.3567 244.9189 208 244.1333 C204.7007 243.0336 201.9597 240.1693 199 236.1333 C197.2836 233.7928 197.2055 232.4219 197 229.1333 C196.7422 225.0083 196.3985 222.4022 198 220.1333 C200.6013 216.4482 205.9625 216.3858 209 212.1333 C212.0375 207.8808 213 199.1333 213 199.1333 "/>
<path id="16" d="M251 266.1333 C251 266.1333 242.2794 279.751 235 282.1333 C221.4073 286.5818 212.5332 285.1667 196 284.1333 C192.0395 283.8858 189.3599 282.1225 187 279.1333 C183.3473 274.5066 181 265.1333 181 265.1333 "/>
</g>
</g>
</svg>
