<?xml version="1.0" encoding="utf-8"?>
<!DOCTYPE svg PUBLIC "-//W3C//DTD SVG 1.1//EN" "http://www.w3.org/Graphics/SVG/1.1/DTD/svg11.dtd">
<svg viewBox="0 0 800 800" preserveAspectRatio="xMinYMin meet" xmlns="http://www.w3.org/2000/svg" version="1.1">
<g fill="none" stroke="black" stroke-linecap="round" stroke-linejoin="round" stroke-width="0.71045">
<g transform="translate(165.64,87.52) scale(4.2227) translate(-201,-77)">
<path id="0" d="M228 205 C228 205 219.5645 189.0751 214 173 C210.7705 163.6704 210.3887 162.7183 210 153 C209.4231 138.5768 208.7193 136.375 212 123 C214.765 111.7273 216.1939 109.9822 223 100 C230.5769 88.8872 233.2039 83.7049 242 79 C249.294 75.0986 256.1024 76.1002 266 77 C269.9288 77.3572 271.2383 78.8653 275 82 C285.7612 90.9677 289.0861 91.895 296 102 C300.3093 108.2982 300.2776 111.187 301 120 C302.6873 140.5845 305.3013 144.0352 301 163 C295.0993 189.0169 290.6723 192.0454 279 217 C276.9531 221.3761 274.9618 224.1224 272 225 C265.6784 226.8731 259.4679 227.422 252 225 C244.1991 222.47 242.2517 219.7516 235 213 C228.3164 206.7773 223 198 223 198 "/>
<path id="1" d="M303 143 C303 143 301.3702 133.8029 303 130 C304.4865 126.5314 311.9888 121.9384 312 122 C312.0712 122.3917 310.2555 157.2805 309 163 C308.9603 163.1808 303 163 303 163 "/>
<path id="2" d="M209 130 C209 130 208.4331 127.2166 208 127 C207.1338 126.5669 204.2763 126.453 203 127 C202.1613 127.3594 201.0569 128.7483 201 130 C200.6511 137.6756 199.9017 141.1314 202 149 C203.4013 154.2548 209 160 209 160 "/>
</g>
</g>
</svg>
