<?xml version="1.0" encoding="utf-8"?>
<!DOCTYPE svg PUBLIC "-//W3C//DTD SVG 1.1//EN" "http://www.w3.org/Graphics/SVG/1.1/DTD/svg11.dtd">
<svg viewBox="0 0 800 800" preserveAspectRatio="xMinYMin meet" xmlns="http://www.w3.org/2000/svg" version="1.1">
<g fill="none" stroke="black" stroke-linecap="round" stroke-linejoin="round" stroke-width="1.6033">
<g transform="translate(87.52,107.1669) scale(1.8711) translate(-201,-80)">
<path id="0" d="M222 171 C222 171 223.3985 181.0051 221 189 C213.3983 214.3391 208.123 216.0694 201 241 C198.7785 248.7754 199.5954 252.2578 201 259 C201.5495 261.6376 203.4685 263.8608 206 265 C211.3754 267.4189 220.2249 266.6884 221 268 C222.1641 269.97 218.4139 279.6738 219 287 C219.1966 289.4576 222.4514 290.2568 223 293 C224.1296 298.6478 221.6159 304.2319 223 307 C223.8403 308.6806 230.8146 309.1033 232 311 C233.5549 313.4878 231.4637 321.8182 233 323 C237.6783 326.5987 245.9754 329.2091 258 331 C268.0319 332.4941 276.9371 327.6796 280 330 C284.4262 333.3532 291 356 291 356 "/>
<path id="1" d="M223 172 C223 172 220.5145 157.2979 223 146 C225.5257 134.5196 227.6009 133.1985 234 122 C239.3729 112.5975 239.7764 111.2236 247 104 C252.3594 98.6406 253.7474 98.6263 261 95 C269.4287 90.7857 269.8526 90.4072 279 88 C297.95 83.0132 298.7997 81.6593 318 80 C338.2752 78.2478 354.5157 80.6083 360 81 C360.0186 81.0013 359.965 82.995 360 83 C361.715 83.245 367.6601 81.6083 374 83 C387.1216 85.8804 388.7469 86.1398 401 92 C410.8705 96.7207 414.2348 97.4877 420 105 C428.5166 116.0974 430.7521 120.2891 434 135 C438.6781 156.1888 434.2955 159.5912 437 182 C437.6557 187.4329 440.3921 187.6806 441 193 C442.2735 204.1429 443.2822 206.1159 441 217 C437.1274 235.4694 436.9335 238.1966 428 255 C416.7778 276.1084 410.0277 275.5199 399 296 C393.6959 305.8505 394.2896 308.1787 393 320 C391.3785 334.8638 393 351 393 351 "/>
<path id="2" d="M221 286 C221 286 226.1251 284.2813 229 285 C232.4314 285.8578 233.2791 288.9664 237 290 C240.9631 291.1009 246.1611 289.4128 247 290 C247.4111 290.2878 247.9117 294.4472 247 297 C245.8557 300.204 244.1032 302.6616 242 304 C240.6653 304.8494 238.2656 303.2448 236 304 C233.231 304.923 230 308 230 308 "/>
<path id="3" d="M226 294 C226 294 234.0243 294.1324 239 292 C242.9498 290.3072 247 285 247 285 "/>
<path id="4" d="M236 185 C236 185 235.6455 178.2011 237 176 C238.1703 174.0982 240.6514 172.6201 244 172 C252.732 170.383 257.8999 169.78 264 171 C265.9101 171.382 267.6222 173.8999 269 177 C271.2343 182.0271 272.6335 188.2307 272 189 C270.7369 190.5338 263.1232 192.9169 255 194 C249.0838 194.7888 245.4279 194.7139 242 193 C239.7147 191.8574 238.1622 188.7189 237 185 C236.0277 181.8887 235.91 179.1801 237 177 C238.2944 174.4111 240.8843 172.438 244 171 C245.9136 170.1168 249.8749 170.6874 250 171 C251.0838 173.7096 252 182.4854 252 191 C252 192.7029 250.6258 194.7318 250 195 C249.2298 195.3301 245.2205 194.4851 245 194 C244.3263 192.5179 244.1654 186.0031 245 184 C245.3408 183.1821 249.9259 181.9259 250 182 C250.1729 182.1729 250.6345 187.0965 250 189 C249.7281 189.8158 247.0064 191.015 247 191 C246.9192 190.8115 247.9425 185.2987 247 182 C246.3567 179.7485 243.0041 176.985 243 177 C242.9835 177.0604 244.029 192.884 244 193 C243.9945 193.0221 240.6381 190.7549 240 189 C239.181 186.7479 239.9942 182.0015 240 182 C240.0083 181.9979 244 188 244 188 "/>
<path id="5" d="M253 100 C253 100 263.4772 100.0269 272 103 C283.9834 107.1802 285.0369 108.2286 296 115 C301.4302 118.354 302.9607 118.8984 306 124 C315.9003 140.6184 317.023 143.6396 324 162 C325.9263 167.0692 324.9681 174.0094 325 174 C325.2651 173.922 333.0221 163.3824 341 157 C344.0726 154.5419 345.7481 154.3697 350 154 C356.3878 153.4445 360.8887 153.1987 364 155 C366.3026 156.3331 367.5194 160.0647 369 165 C370.3261 169.4203 370 170.0415 370 175 C370 191.8589 371.5191 193.8853 369 209 C367.8818 215.7095 366.0189 217.1262 362 223 C360.0525 225.8464 358.0636 227.9236 356 228 C349.043 228.2577 335.8163 223.2208 335 224 C333.8187 225.1276 331.1164 241.4307 334 249 C336.7497 256.2179 341.9837 259.3704 351 266 C357.9937 271.1424 362.4046 268.5518 368 274 C379.1137 284.8212 379.0738 292.7536 389 303 C391.5523 305.6346 399 306 399 306 "/>
<path id="6" d="M437 148 C437 148 441.9379 147.0707 443 148 C446.9385 151.4462 450.4742 155.3411 453 162 C455.1832 167.7556 453.8471 169.5095 454 177 C454.346 193.9553 455.8522 204.7699 454 211 C453.6584 212.1489 445.5415 214.3389 443 214 C441.8811 213.8508 439 209 439 209 "/>
<path id="7" d="M447 146 C447 146 448.4468 141.4114 451 139 C456.6411 133.6723 459.2049 130.0141 465 129 C474.3733 127.3597 480.7499 127.7452 491 132 C504.125 137.4481 507.8871 140.3815 518 151 C526.002 159.4021 526.4262 162.431 531 174 C534.5078 182.8727 534.3056 184.1043 535 194 C536.2669 212.0536 536.2657 212.7734 535 231 C533.7908 248.4125 533.5078 249.1624 530 266 C528.6334 272.5598 528.5734 273.4518 525 279 C510.1835 302.0046 507.549 301.6765 492 325 C486.7408 332.8888 484.6129 333.789 483 342 C479.6146 359.2346 480.2895 362.8821 481 381 C481.2219 386.659 485.0022 393.0024 485 393 C484.9914 392.9907 469.3752 374.8504 458 356 C452.4872 346.8645 451.0512 345.2254 450 335 C445.8424 294.5582 445.8816 290.3823 447 249 C447.3275 236.8808 451.1474 236.4387 453 224 C454.5847 213.3602 454 202 454 202 "/>
<path id="8" d="M341 184 C341 184 339.7032 181.4823 340 181 C341.934 177.8572 345.4123 172.6145 349 171 C351.8037 169.7383 359.6598 171.2578 360 172 C361.2951 174.8256 362.452 185.6377 360 195 C357.6673 203.9068 349 214 349 214 "/>
</g>
</g>
</svg>
