<?xml version="1.0" encoding="utf-8"?>
<!DOCTYPE svg PUBLIC "-//W3C//DTD SVG 1.1//EN" "http://www.w3.org/Graphics/SVG/1.1/DTD/svg11.dtd">
<svg viewBox="0 0 800 800" preserveAspectRatio="xMinYMin meet" xmlns="http://www.w3.org/2000/svg" version="1.1">
<g fill="none" stroke="black" stroke-linecap="round" stroke-linejoin="round" stroke-width="1.8721">
<g transform="translate(170.0468,87.52) scale(1.6025) translate(-113,-47)">
<path id="0" d="M176 69 C176 69 171.8418 72.2081 170 76 C163.8058 88.7527 161.0648 90.4851 159 104 C155.9391 124.0353 161.0588 127.7548 159 148 C158.2696 155.1825 156.8718 156.2754 153 163 C147.6533 172.2864 146.2817 174.0203 140 181 C138.6252 182.5275 136.734 181.4972 135 183 C129.9697 187.3596 130.4078 189.8213 125 194 C120.137 197.7578 115.2283 197.5861 113 200 C112.0866 200.9895 112.0584 205.1169 113 207 C114.0761 209.1522 116.393 211.6524 119 212 C134.303 214.0404 158 213 158 213 "/>
<path id="1" d="M161 212 C161 212 165.8232 214.6448 166 216 C166.712 221.4589 163.2343 228.8747 164 235 C164.2297 236.8376 166.8386 239.5817 169 240 C178.4866 241.8361 192.6751 240.349 195 241 C195.0602 241.0168 195.0332 245.1403 194 247 C193.177 248.4815 191.9754 249.5061 190 250 C181.3705 252.1574 170 253 170 253 "/>
<path id="2" d="M172 253 C172 253 172.7126 257.3967 172 259 C171.4326 260.2767 168.0403 261.0336 168 262 C167.4288 275.708 164.6776 291.9584 170 307 C173.1942 316.027 180.1536 318.7057 191 327 C196.2562 331.0194 197.4194 330.8848 204 333 C211.0372 335.262 211.577 335.4569 219 336 C231.6809 336.9279 237.1205 338.149 245 336 C247.8653 335.2186 248.0781 330.4605 252 327 C256.0146 323.4577 262 321 262 321 "/>
<path id="3" d="M176 67 C176 67 184.1739 58.6943 193 53 C199.0591 49.0909 200.394 47.4609 207 47 C239.9875 44.6985 243.7376 45.7841 279 47 C286.397 47.2551 287.4539 47.5452 294 50 C298.5671 51.7126 298.3892 54.415 303 56 C313.3026 59.5415 315.1446 57.472 326 61 C334.6402 63.8081 336.0715 63.7211 343 69 C355.9856 78.8938 356.6844 80.3045 368 93 C376.8654 102.9465 378.7915 103.4437 384 115 C394.0227 137.2379 397.3494 140.1442 400 164 C404.9591 208.6317 402.7353 214.8443 400 259 C399.4692 267.5679 397.4866 269.0239 393 277 C388.8713 284.3398 385.4628 283.5417 382 291 C373.1262 310.1129 372.0434 312.233 367 333 C363.8524 345.9607 367.7607 347.9496 365 361 C362.484 372.8937 357.4291 373.4081 356 385 C353.2111 407.6211 354.9736 416.2097 356 434 C356.0665 435.152 359 437 359 437 "/>
<path id="4" d="M212 338 C212 338 217.7539 344.5078 221 351 C222.8549 354.7098 222.8448 355.5777 223 360 C223.8212 383.4031 226.4512 386.7178 223 408 C220.9907 420.3907 211 434 211 434 "/>
<path id="5" d="M181 152 C181 152 192.3777 149.7159 198 152 C204.7075 154.7249 212.9086 163.9944 213 165 C213.0498 165.5474 205.9737 172.3199 200 174 C192.6921 176.0553 181 174 181 174 "/>
<path id="6" d="M275 176 C275 176 280.5614 168.9974 285 167 C288.1591 165.5784 292.7476 165.4642 295 167 C300.0066 170.4136 305.2445 175.2704 307 182 C310.0017 193.5065 309.3388 200.429 307 213 C305.9824 218.4697 301.0089 219.4754 299 225 C297.6525 228.7055 300.352 231.9581 299 235 C297.4377 238.5151 294.4522 241.0273 291 243 C289.3523 243.9415 286.3292 243.8862 285 243 C282.4892 241.3262 280.4524 238.631 279 235 C278.0224 232.556 279 228 279 228 "/>
</g>
</g>
</svg>
