<?xml version="1.0" encoding="utf-8"?>
<!DOCTYPE svg PUBLIC "-//W3C//DTD SVG 1.1//EN" "http://www.w3.org/Graphics/SVG/1.1/DTD/svg11.dtd">
<svg viewBox="0 0 800 800" preserveAspectRatio="xMinYMin meet" xmlns="http://www.w3.org/2000/svg" version="1.1">
<g fill="none" stroke="black" stroke-linecap="round" stroke-linejoin="round" stroke-width="1.6465">
<g transform="translate(87.52,113.9396) scale(1.822) translate(-146,-87)">
<path id="0" d="M366 108 C366 108 360.327 100.7089 354 97 C346.9634 92.8751 345.5478 92.7444 337 91 C321.6083 87.8588 320.8748 87.6804 305 87 C286.2702 86.1973 284.83 84.9501 267 88 C248.2911 91.2002 244.8186 91.6885 229 100 C217.9379 105.8123 217.6117 109.0568 208 119 C203.4183 123.7397 202.7482 124.1451 200 130 C191.6109 147.8724 189.2156 148.938 185 168 C178.0855 199.2657 179.055 201.1196 177 234 C175.084 264.6554 173.7121 266.7074 177 296 C178.9746 313.592 181.0357 315.1695 188 332 C192.7021 343.3634 193.5794 344.1943 201 354 C207.1418 362.116 207.8227 362.9644 216 369 C228.1726 377.9846 229.1662 378.0831 243 385 C254.8576 390.9288 255.3438 391.1793 268 395 C281.4658 399.0652 282.1537 399.5165 296 401 C309.5356 402.4502 310.3768 402.5326 324 401 C349.7929 398.0983 350.9972 397.6825 376 392 C383.1076 390.3846 384 390.0435 390 386 C406.2433 375.0534 409.3054 374.5409 422 361 C430.1216 352.3369 430.7185 349.8565 435 338 C443.3011 315.0123 441.9751 313.5013 448 289 C449.4419 283.1363 449.9279 282.9152 450 277 C450.4199 242.5708 453.1429 239.5059 449 207 C447.0192 191.4582 444.6342 189.5297 437 175 C429.6292 160.9718 428.6781 159.9856 418 148 C404.6966 133.0676 403.713 132.7329 388 120 C375.0584 109.5128 360 101 360 101 "/>
<path id="1" d="M447 195 C447 195 448.1429 191.4592 450 190 C454.2121 186.6905 455.815 185.2444 461 184 C466.8353 182.5995 470.119 182.4469 475 184 C478.5657 185.1345 480.8774 187.2097 483 191 C486.9493 198.0523 487.7762 200.2293 489 209 C490.6242 220.6401 491.474 222.5919 489 234 C482.8739 262.248 477.0684 278.2294 471 292 C470.5835 292.9452 466.1664 293.5937 463 293 C459.4536 292.3351 457.9429 291.4902 455 289 C452.1764 286.6108 451.0691 285.2074 450 282 C449.0131 279.0393 450 274 450 274 "/>
<path id="2" d="M180 205 C180 205 178.0074 206.0127 178 206 C177.2929 204.7877 175.6594 196.9891 173 193 C172.1316 191.6974 170.3912 191.2277 168 191 C160.6288 190.298 157.4249 189.5205 152 191 C149.4108 191.7061 146.1964 194.683 146 197 C144.4036 215.8376 145.2197 224.0078 147 250 C147.6801 259.9299 148.2609 260.7556 151 270 C152.0583 273.5717 153.3304 276.2208 155 277 C157.5274 278.1795 161.0726 277.8212 166 277 C169.3596 276.4401 170.8034 276.0135 173 274 C175.7785 271.453 178 266 178 266 "/>
<path id="3" d="M311 198 C311 198 307.3787 191.0344 307 191 C306.4728 190.9521 300.1174 196.9832 300 197 C299.9893 197.0015 300.4454 192.668 300 192 C299.6734 191.5101 296.9717 191.8097 296 191 C294.9278 190.1065 294.0764 187 294 187 C293.8854 187 291.3161 191.0527 291 191 C289.6451 190.7742 284.0507 185.293 282 185 C281.0787 184.8684 277.5625 189.0625 277 189 C276.4375 188.9375 273.0312 184.0156 273 184 C272.9928 183.9964 273.0276 186.9961 273 187 C272.5673 187.0618 267.4248 184.8417 266 185 C265.5095 185.0545 264.223 188 264 188 C263.5539 188 260.0612 184.9847 260 185 C259.9812 185.0047 260.0259 188.9968 260 189 C259.6049 189.0494 252.3591 185.9102 252 186 C251.9381 186.0155 252.5988 189.4032 252 191 C251.506 192.3174 250.3034 193.609 249 194 C246.6606 194.7018 243.329 193.5016 242 194 C241.5966 194.1513 241.4504 196.6622 241 197 C240.5842 197.3118 238.2094 196.7383 238 197 C237.494 197.6325 237 202 237 202 "/>
<path id="4" d="M332 200 C332 200 331.9901 193.0197 332 193 C332.0028 192.9944 333.8386 196.0403 334 196 C335.4847 195.6288 339.113 191.7104 344 190 C348.1802 188.5369 350.1249 188.7019 354 189 C355.2316 189.0947 356.2811 191 357 191 C357.7189 191 359.1932 188.8759 360 189 C363.181 189.4894 367.5112 192.8086 370 193 C370.6686 193.0514 372.421 190 373 190 C373.9649 190 376.6886 191.47 378 193 C378.8743 194.02 378.7721 196.9544 379 197 C380.0888 197.2178 386.6752 194.8675 388 195 C388.1957 195.0196 388.5669 197.7834 389 198 C389.8662 198.4331 392.9512 197.2658 394 198 C396.0766 199.4536 399 205 399 205 "/>
<path id="5" d="M230 215 C230 215 234.7613 210.5914 239 210 C253.9219 207.9179 256.3627 208.3601 273 209 C281.8745 209.3413 283.4127 209.0111 291 212 C298.4914 214.9512 306.0436 221.9909 306 222 C305.7871 222.0444 266.9554 224.3618 243 222 C239.6956 221.6742 235 215 235 215 "/>
<path id="6" d="M262 215 C262 215 265.9485 218.9743 266 219 C266.0086 219.0043 266.0338 217.0084 266 217 C265.7469 216.9367 262.2732 217.522 262 218 C261.5012 218.8729 261.625 223.625 262 224 C262.375 224.375 267.4 224.3 268 224 C268.15 223.925 268.3118 221.4158 268 221 C267.6622 220.5496 265 220 265 220 "/>
<path id="7" d="M267 210 C267 210 257.0353 210.7059 256 212 C254.6772 213.6535 254.6526 222.5684 255 225 C255.0386 225.2702 257.8597 226.0468 258 226 C258.0351 225.9883 258 224 258 224 "/>
<path id="8" d="M269 212 L273 223 "/>
<path id="9" d="M328 220 C328 220 332.3479 216.0226 337 214 C343.3073 211.2577 344.1471 210.6375 351 210 C364.8278 208.7137 367.7034 207.2947 380 210 C389.9306 212.1847 397.4292 218.3219 401 221 C401.2442 221.1831 400.5619 224.786 400 225 C395.2083 226.8254 389.9009 228.1918 380 229 C365.8743 230.1531 364.8499 230.5981 351 229 C339.685 227.6944 328 223 328 223 "/>
<path id="10" d="M367 220 C367 220 370 220 370 220 C370 220 366.0028 219.9944 366 220 C365.9993 220.0014 368.9479 222.0174 369 222 C369.0223 221.9926 369.0809 219.0539 369 219 C368.9056 218.9371 366.125 219.75 366 220 C365.875 220.25 366.995 223 367 223 C367.005 223 368.0629 220.0944 368 220 C367.9461 219.9191 365 220 365 220 "/>
<path id="11" d="M370 212 C370 212 364.3043 212.6174 362 214 C360.8979 214.6612 360.1104 216.2342 360 218 C359.6806 223.1103 359.5837 227.6395 361 230 C361.8767 231.4612 366.0337 233 369 233 C371.5956 233 374.8605 231.7093 376 230 C378.0809 226.8787 379.6935 220.4967 379 218 C378.4893 216.1616 374.6395 213.3648 371 212 C368.1595 210.9348 363 212 363 212 "/>
<path id="12" d="M309 200 C309 200 312.903 207.1987 314 214 C315.2595 221.8089 316.7382 225.118 314 231 C305.3717 249.5349 297.1073 254.0315 287 272 C285.7408 274.2386 286.1051 276.0597 287 279 C289.3178 286.6157 290.0573 290.8498 294 295 C296.6807 297.8218 300.1521 298.1646 306 299 C313.4428 300.0633 320.1176 299.4706 322 299 C322.1176 298.9706 322 295 322 295 "/>
<path id="13" d="M317 267 C317 267 323.0649 265.4753 327 266 C329.1537 266.2872 330.1451 267.1451 332 269 C335.2461 272.2461 336.4498 273.3829 338 277 C338.8798 279.0529 338 283 338 283 "/>
<path id="14" d="M303 309 C303 309 303.3107 315.0679 302 319 C301.1967 321.41 298 324 298 324 "/>
<path id="15" d="M315 313 L317 322 "/>
<path id="16" d="M246 332 C246 332 248.9635 328.1198 251 328 C268.8705 326.9488 278.6881 329.7325 297 329 C298.6415 328.9343 300.0983 325.918 301 326 C302.7814 326.1619 304.7278 329.3456 308 330 C313.4536 331.0907 319.4126 330.2442 321 330 C321.0376 329.9942 320.9887 327.9977 321 328 C321.1587 328.0317 323.7395 330.7812 326 331 C337.1094 332.0751 348.9143 330.2879 352 331 C352.1643 331.0379 352.7919 335.4162 352 337 C351.1421 338.7158 349.5845 340.1054 347 341 C337.7985 344.1851 336.3591 344.8228 326 346 C314.9533 347.2553 314.2704 347.1112 303 346 C279.141 343.6477 278.6374 343.0754 255 339 C249.9479 338.1289 245.7652 336.4251 245 336 C244.9927 335.996 245.7484 334 246 334 C261.848 334 279.1693 333.5813 309 336 C314.3483 336.4336 314.6701 339.2893 320 340 C328.7805 341.1707 330.6479 341.566 339 340 C345.2091 338.8358 352 334 352 334 "/>
<path id="17" d="M242 142 C242 142 244.6604 159.2142 242 173 C239.5865 185.5063 238.3468 188.5046 231 199 C222.1054 211.7066 219.8177 213.8797 207 223 C195.3764 231.2706 179 236 179 236 "/>
<path id="18" d="M244 140 C244 140 268.7433 154.8477 294 166 C306.543 171.5385 307.561 171.6829 321 174 C335.8433 176.5592 337.0524 173.8201 352 176 C360.469 177.2351 360.4335 179.4136 369 181 C387.1242 184.3563 387.5963 184.2638 406 186 C413.8582 186.7413 414.8321 187.28 422 186 C427.7759 184.9686 434 181 434 181 "/>
<path id="19" d="M261 119 C261 119 265.0577 124.6463 270 128 C278.4357 133.7242 279.2398 134.2911 289 138 C303.7345 143.5991 304.8981 141.6562 320 147 C337.2088 153.0893 336.8194 154.8849 354 161 C366.116 165.3125 366.4688 166.0965 379 168 C405.3284 171.9992 433 173 433 173 "/>
<path id="20" d="M285 102 C285 102 305.3694 118.9206 327 131 C342.9152 139.8877 344.2894 139.2701 362 145 C377.9448 150.1586 378.4766 149.4844 395 153 C401.8687 154.4614 402.0356 154.4428 409 155 C414.4102 155.4328 419.9937 155.0021 420 155 C420.0025 154.9992 415 153 415 153 "/>
<path id="21" d="M255 96 C255 96 287.363 101.3833 318 110 C334.7774 114.7186 334.4263 118.9628 351 123 C372.2915 128.1864 373.6351 126.6038 396 129 C401.39 129.5775 406.596 129.0808 407 129 C407.022 128.9956 406 127 406 127 "/>
<path id="22" d="M318 97 C318 97 322.1712 99.7329 326 100 C342.324 101.1389 361 100 361 100 "/>
<path id="23" d="M229 113 C229 113 233.8475 138.8814 229 151 C224.2291 162.9273 216.837 166.0257 203 178 C191.3461 188.0851 188.034 188.9067 177 196 C176.4126 196.3776 174.995 196.0149 175 196 C175.0545 195.8364 179 190 179 190 "/>
<path id="24" d="M213 129 C213 129 214.3484 136.6065 213 142 C211.7035 147.186 210.5987 148.0926 207 153 C199.8181 162.7935 198.0939 165.2439 191 172 C189.7615 173.1795 186 173 186 173 "/>
<path id="25" d="M246 140 C246 140 247.9454 128.2681 246 120 C244.4551 113.4342 238 106 238 106 "/>
<path id="26" d="M174 213 C174 213 172.7854 209.2618 172 209 C169.6438 208.2146 163.9736 207.8722 162 209 C160.3083 209.9667 158.2425 213.4839 158 217 C157.3887 225.8636 157.2678 229.0581 160 238 C162.2441 245.3443 169 253 169 253 "/>
<path id="27" d="M459 207 C459 207 462.1523 202.2459 465 201 C468.4461 199.4923 474.8231 199.6314 475 200 C476.2552 202.615 477.6062 213.8755 477 226 C476.6676 232.6474 474.0174 233.1325 473 240 C472.0936 246.118 474.0202 247.134 473 253 C472.1607 257.8262 471.4996 259.1117 469 263 C467.5655 265.2314 464.5803 267.1451 464 267 C462.7307 266.6827 457 260 457 260 "/>
</g>
</g>
</svg>
