<?xml version="1.0" encoding="utf-8"?>
<!DOCTYPE svg PUBLIC "-//W3C//DTD SVG 1.1//EN" "http://www.w3.org/Graphics/SVG/1.1/DTD/svg11.dtd">
<svg viewBox="0 0 800 800" preserveAspectRatio="xMinYMin meet" xmlns="http://www.w3.org/2000/svg" version="1.1">
<g fill="none" stroke="black" stroke-linecap="round" stroke-linejoin="round" stroke-width="0.69124">
<g transform="translate(107.05,87.52) scale(4.34) translate(-190.5,-182.6667)">
<path id="0" d="M224.5 320.6667 C224.5 320.6667 228.0634 296.2938 224.5 287.6667 C222.2488 282.2165 214.0754 281.8128 205.5 274.6667 C199.4637 269.6364 198.7496 268.8994 194.5 262.6667 C191.7264 258.5987 190.6596 257.2949 190.5 252.6667 C189.7455 230.7849 190.5131 225.7275 192.5 204.6667 C192.7178 202.3577 193.5597 201.3539 195.5 199.6667 C204.2255 192.0793 206.4114 186.3645 215.5 184.6667 C243.9484 179.3521 256.1065 179.3986 286.5 182.6667 C296.5003 183.742 299.8383 187.5335 308.5 194.6667 C315.3398 200.2995 318.5641 203.4069 320.5 210.6667 C323.4241 221.6319 322.0443 226.0767 320.5 239.6667 C319.671 246.9622 314.9731 252.5591 315.5 254.6667 C315.7874 255.8162 323.2651 257.8787 325.5 259.6667 C325.8831 259.9732 325.7588 261.3726 325.5 262.6667 C325.3102 263.6156 324.8344 264.6152 324.5 264.6667 C321.431 265.1388 312.9232 264.051 312.5 264.6667 C311.7144 265.8093 313.9908 279.0961 313.5 280.6667 C313.4413 280.8544 307.9426 280.2978 307.5 280.6667 C307.1926 280.9228 307.6881 285.6165 307.5 285.6667 C303.1547 286.8254 279.2969 286.211 277.5 288.6667 C274.7634 292.4066 277.5 326.6667 277.5 326.6667 "/>
<path id="1" d="M295.5 232.6667 C295.5 232.6667 295.077 230.1743 295.5 229.6667 C296.5105 228.454 300.5 226.6667 300.5 226.6667 "/>
<path id="2" d="M300.5 235.6667 C300.5 235.6667 302.4786 233.6667 302.5 233.6667 C302.5 233.6667 302.5 235.6667 302.5 235.6667 "/>
</g>
</g>
</svg>
