<?xml version="1.0" encoding="utf-8"?>
<!DOCTYPE svg PUBLIC "-//W3C//DTD SVG 1.1//EN" "http://www.w3.org/Graphics/SVG/1.1/DTD/svg11.dtd">
<svg viewBox="0 0 800 800" preserveAspectRatio="xMinYMin meet" xmlns="http://www.w3.org/2000/svg" version="1.1">
<g fill="none" stroke="black" stroke-linecap="round" stroke-linejoin="round" stroke-width="2.4674">
<g transform="translate(87.52,218.8346) scale(1.2159) translate(-116,-6.1333)">
<path id="0" d="M121 133.1333 C121 133.1333 131.1084 123.8185 139 114.1333 C141.6392 110.8943 140.3143 108.4687 143 106.1333 C150.2151 99.8593 153.5152 94.8271 162 94.1333 C221.4845 89.2698 233.22 91.1569 302 93.1333 C318.7919 93.6159 323.6045 92.7356 336 99.1333 C349.8399 106.2765 356.1175 113.7173 364 125.1333 C366.9021 129.3364 363.0957 133.8334 365 141.1333 C368.8494 155.8893 374.5357 157.9542 376 171.1333 C377.0996 181.0294 375.4279 184.8016 371 195.1333 C365.6043 207.7234 364.1638 209.1368 355 220.1333 C344.7206 232.4686 343.5519 236.0206 331 243.1333 C316.6856 251.2448 312.6149 251.3653 295 254.1333 C279.1259 256.6278 277.4386 255.7502 261 254.1333 C247.6605 252.8213 247.3191 249.0519 234 248.1333 C204.8488 246.1229 203.4781 249.9757 174 248.1333 C156.1289 247.0164 150.4807 248.2602 138 242.1333 C128.6075 237.5224 125.2662 231.3871 119 221.1333 C115.7655 215.8405 115.6264 213.1078 116 206.1333 C117.0404 186.7123 121.7311 184.7617 122 165.1333 C122.209 149.877 117.3185 145.2355 117 133.1333 C116.9416 130.9131 118.6407 129.1297 121 127.1333 C124.439 124.2234 130 122.1333 130 122.1333 "/>
<path id="1" d="M372 155.1333 C372 155.1333 395.1098 159.6302 418 160.1333 C485.5032 161.6169 488.7344 160.9214 554 159.1333 C558.8374 159.0008 559.1093 156.6767 564 156.1333 C572.046 155.2393 574.2283 157.696 581 156.1333 C585.1366 155.1787 585.4908 151.5827 590 150.1333 C598.2375 147.4856 604.4313 149.4177 609 147.1333 C610.56 146.3533 612 142.4574 612 139.1333 C612 134.1472 609 127.1333 609 127.1333 C609 127.1333 609.2866 132.2782 611 136.1333 C613.0214 140.6815 615.9173 140.9831 617 145.1333 C618.4346 150.6328 617.6336 157.6549 617 159.1333 C616.8836 159.4049 611.675 158.9083 611 159.1333 C610.925 159.1583 610.6602 160.3919 611 161.1333 C615.5948 171.1584 617.2656 171.9204 622 183.1333 C626.687 194.2341 629.9983 206.1268 630 206.1333 C630.0003 206.1346 627 202.1333 627 202.1333 "/>
<path id="2" d="M614 168.1333 C614 168.1333 589.1267 173.9546 565 174.1333 C522.7118 174.4466 521.9227 170.241 479 169.1333 C444.6265 168.2463 443.3618 168.4652 410 170.1333 C404.6128 170.4027 404.3975 172.611 399 173.1333 C389.4388 174.0586 379 173.1333 379 173.1333 "/>
<path id="3" d="M611 127.1333 C611 127.1333 610.98 123.4447 612 122.1333 C613.53 120.1662 615.851 118.8497 618 118.1333 C618.7814 117.8729 620.4598 118.4131 621 119.1333 C622.5374 121.1832 624.004 126.1273 624 126.1333 C623.9995 126.1341 619.035 123.3237 619 122.1333 C618.7477 113.5559 623 92.1333 623 92.1333 "/>
<path id="4" d="M628 204.1333 C628 204.1333 628.5605 212.8913 628 215.1333 C627.9108 215.49 625.391 215.449 625 216.1333 C622.7155 220.1312 621.9453 222.649 620 229.1333 C619.0206 232.3979 618.5815 234.041 619 236.1333 C619.2215 237.241 622 239.1333 622 239.1333 "/>
<path id="5" d="M236 92.1333 C236 92.1333 234.0017 92.152 234 92.1333 C233.8983 91.0147 235.6597 85.9714 235 81.1333 C234.2989 75.9916 232.247 72.4195 231 70.1333 C230.8968 69.9441 229.025 70.2083 229 70.1333 C228.775 69.4583 229.5558 64.5502 229 64.1333 C227.24 62.8133 222.3284 63.5015 217 61.1333 C209.407 57.7587 209.6819 55.2965 202 52.1333 C193.3518 48.5723 191.775 50.5301 183 47.1333 C176.8345 44.7467 177.1908 42.5721 171 40.1333 C161.1989 36.2723 159.9605 37.7855 150 34.1333 C145.3489 32.4279 141.2791 29.6358 141 29.1333 C140.9504 29.044 145 25.1333 145 25.1333 "/>
<path id="6" d="M229 64.1333 C229 64.1333 243.5231 61.008 257 56.1333 C266.7086 52.6217 267.4727 52.1076 276 47.1333 C278.7838 45.5094 278.4379 42.915 281 42.1333 C303.7598 35.1897 309.2833 36.6505 335 29.1333 C340.6745 27.4746 342.2807 25.9228 346 23.1333 C346.7799 22.5484 347.0468 20.2736 347 20.1333 C346.9883 20.0983 345 20.1333 345 20.1333 "/>
<path id="7" d="M228 66.1333 C228 66.1333 227.2814 51.5075 229 39.1333 C229.6051 34.7764 232.4813 34.4129 233 30.1333 C234.3126 19.3044 233 6.1333 233 6.1333 "/>
<path id="8" d="M179 134.1333 C179 134.1333 220.3929 132.6981 260 133.1333 C264.9012 133.1872 265.7714 133.3921 270 135.1333 C273.5392 136.5906 274.3111 137.1614 277 140.1333 C283.372 147.1761 283.9182 148.1477 289 156.1333 C290.5636 158.5905 291 159.4417 291 162.1333 C291 168.4138 291.3038 170.1819 289 176.1333 C285.7455 184.5408 284.6921 185.7335 279 193.1333 C275.152 198.1357 273.3718 201.0699 269 202.1333 C259.3161 204.4889 254.7226 204.2247 242 202.1333 C219.395 198.4174 215.4695 198.298 196 190.1333 C187.6559 186.6342 186.9671 183.6578 180 176.1333 C174.8418 170.5625 173.3021 169.349 171 163.1333 C168.9746 157.6646 169.4288 155.417 170 149.1333 C170.3398 145.396 170.857 144.2504 173 141.1333 C175.8751 136.9514 178.7583 136.4959 181 133.1333 C181.6725 132.1246 181 129.1333 181 129.1333 "/>
<path id="9" d="M185 246.1333 C185 246.1333 184.7845 250.5945 185 251.1333 C185.0345 251.2195 187.0013 251.1208 187 251.1333 C186.9353 251.7807 184.397 256.3695 184 261.1333 C183.461 267.6013 185.1627 274.6453 185 275.1333 C184.996 275.1452 181.1677 272.7441 180 273.1333 C176.6766 274.2411 171.4129 277.1662 170 280.1333 C168.3182 283.6651 169.6104 287.5109 170 294.1333 C170.0851 295.5803 170.787 297.1241 171 297.1333 C175.1298 297.3129 188.7352 296.4313 193 295.1333 C193.4757 294.9886 194.6048 291.5696 194 290.1333 C191.6505 284.5533 184.975 276.4837 185 276.1333 C185.0013 276.1146 195 276.1333 195 276.1333 "/>
<path id="10" d="M291 257.1333 C291 257.1333 293.1349 276.5869 292 280.1333 C291.7558 280.8964 286.6376 280.4358 283 282.1333 C279.9484 283.5574 277.892 284.8397 277 287.1333 C275.3715 291.3209 275.2524 295.8971 276 300.1333 C276.2743 301.6879 278.2593 303.5977 280 304.1333 C282.9949 305.0549 285.3315 305.1523 289 304.1333 C293.2346 302.9571 294.6173 301.9523 298 299.1333 C299.8412 297.599 300.7128 296.287 301 294.1333 C301.5247 290.1982 301.8581 287.4513 300 284.1333 C296.0798 277.1329 287 269.1333 287 269.1333 "/>
<path id="11" d="M217 144.1333 C217 144.1333 215.0135 141.1198 215 141.1333 C214.8244 141.309 213.2152 147.4259 211 150.1333 C209.9006 151.477 206.2586 151.3575 206 152.1333 C205.0832 154.8839 205.2047 164.4872 206 165.1333 C207.2047 166.1122 215.985 166.9155 222 165.1333 C227.0264 163.644 231.6863 159.9068 233 157.1333 C233.9997 155.0229 232.682 148.4881 231 146.1333 C229.8207 144.4823 225.9936 145.0383 223 143.1333 C221.3247 142.0672 220.7471 139.3201 220 139.1333 C219.1595 138.9232 215 141.1333 215 141.1333 "/>
<path id="12" d="M247 160.1333 C247 160.1333 243.3345 164.1297 242 168.1333 C240.1132 173.7937 239.7559 181.0215 240 181.1333 C241.5466 181.8422 257.9049 181.292 266 179.1333 C267.7085 178.6777 270.2871 173.6596 270 173.1333 C268.141 169.7252 254.0113 157.1478 254 157.1333 C253.9976 157.1303 259.0023 159.1324 259 159.1333 C258.9945 159.1355 249 159.1333 249 159.1333 "/>
<path id="13" d="M254 178.1333 L243 194.1333 "/>
<path id="14" d="M217 166.1333 L207 179.1333 "/>
</g>
</g>
</svg>
