<?xml version="1.0" encoding="utf-8"?>
<!DOCTYPE svg PUBLIC "-//W3C//DTD SVG 1.1//EN" "http://www.w3.org/Graphics/SVG/1.1/DTD/svg11.dtd">
<svg viewBox="0 0 800 800" preserveAspectRatio="xMinYMin meet" xmlns="http://www.w3.org/2000/svg" version="1.1">
<g fill="none" stroke="black" stroke-linecap="round" stroke-linejoin="round" stroke-width="1.7185">
<g transform="translate(87.52,212.3374) scale(1.7457) translate(-106.5,-148.8333)">
<path id="0" d="M320.5 149.8333 C320.5 149.8333 373.5655 147.7839 423.5 150.8333 C437.2735 151.6745 439.3892 152.8118 451.5 157.8333 C458.2197 160.6196 464.0963 167.1773 464.5 167.8333 C464.5017 167.8361 461.6223 170.8333 459.5 170.8333 C414.0828 170.8333 403.9887 172.06 352.5 167.8333 C339.2221 166.7434 334.4343 164.0027 325.5 159.8333 C323.8139 159.0465 323.5287 154.0905 322.5 153.8333 C318.6711 152.8761 310.7908 153.7195 305.5 154.8333 C304.691 155.0037 303.4624 157.8277 303.5 157.8333 C304.0333 157.9133 325.5 157.8333 325.5 157.8333 "/>
<path id="1" d="M314.5 156.8333 C314.5 156.8333 280.8474 151.8998 247.5 148.8333 C237.6537 147.9279 228.2104 148.3894 227.5 148.8333 C227.4201 148.8833 230.0602 158.5101 231.5 158.8333 C241.9271 161.1741 254.2057 160.4359 276.5 159.8333 C290.9162 159.4437 305.5 156.8333 305.5 156.8333 "/>
<path id="2" d="M302.5 159.8333 L302.5 173.8333 "/>
<path id="3" d="M322.5 159.8333 C322.5 159.8333 323.2986 165.3726 322.5 168.8333 C322.0836 170.6376 320.7879 172.4944 319.5 172.8333 C314.3318 174.1934 308.9859 174.1381 303.5 173.8333 C302.7736 173.793 301.5 171.8333 301.5 171.8333 "/>
<path id="4" d="M301.5 169.8333 C301.5 169.8333 272.259 172.771 244.5 178.8333 C229.3489 182.1422 228.4098 182.9217 214.5 188.8333 C209.2305 191.0729 208.8637 191.8333 204.5 195.8333 C197.1238 202.5949 195.3387 202.8389 190.5 210.8333 C184.636 220.5217 183.8247 222.4034 181.5 233.8333 C178.0724 250.6857 178.8881 252.7574 178.5 269.8333 C178.4144 273.5993 178.8659 274.7985 180.5 277.8333 C181.8849 280.4052 183.5444 282.6756 185.5 282.8333 C206.1296 284.497 214.2441 284.4284 242.5 282.8333 C275.9089 280.9474 276.4745 276.319 309.5 275.8333 C343.4229 275.3345 352.3652 281.5035 378.5 280.8333 C381.9833 280.744 383.4707 277.7326 387.5 273.8333 C398.805 262.893 398.7666 262.4254 409.5 250.8333 C411.1774 249.0218 412.1285 248.3192 412.5 246.8333 C412.7933 245.6603 412.547 244.0112 411.5 242.8333 C402.1961 232.3665 400.1151 229.9497 388.5 219.8333 C385.4003 217.1336 383.7628 218.4092 380.5 215.8333 C374.744 211.2891 375.4146 209.0919 369.5 204.8333 C363.5479 200.5478 361.6273 202.0753 355.5 197.8333 C349.1226 193.4182 349.6479 191.8963 343.5 186.8333 C341.319 185.0373 340.8873 184.2674 338.5 183.8333 C331.1032 182.4885 323.5179 184.1786 321.5 182.8333 C320.5482 182.1988 320.5 171.8333 320.5 171.8333 "/>
<path id="5" d="M411.5 251.8333 C411.5 251.8333 414.3499 254.1823 414.5 255.8333 C415.1291 262.7538 416.1428 266.0936 413.5 273.8333 C402.9498 304.7305 398.2442 318.3551 386.5 337.8333 C384.68 340.8519 379.3616 341.3759 372.5 341.8333 C343.1296 343.7914 341.2992 345.6643 311.5 342.8333 C242.5613 336.2842 241.4971 333.6819 172.5 322.8333 C162.4104 321.2469 161.7216 321.6391 152.5 317.8333 C130.9055 308.9213 122.0637 306.1196 109.5 296.8333 C106.7931 294.8326 105.2273 287.0151 106.5 283.8333 C108.9807 277.6315 113.0489 271.9552 121.5 266.8333 C143.1895 253.6882 147.863 253.3703 172.5 243.8333 C177.1833 242.0205 183.5 242.8333 183.5 242.8333 "/>
<path id="6" d="M334.5 346.8333 C334.5 346.8333 351.4559 345.8711 366.5 347.8333 C373.3604 348.7282 373.6275 350.0843 380.5 352.8333 C386.0839 355.0669 387.0728 354.7897 391.5 357.8333 C394.2981 359.7571 396.5415 363.8187 396.5 363.8333 C396.1834 363.9451 385.0279 365.4435 374.5 363.8333 C343.4003 359.0769 342.9068 354.5283 311.5 350.8333 C275.7988 346.6332 274.8279 350.4282 238.5 347.8333 C211.9895 345.9397 211.1011 345.8335 185.5 341.8333 C179.9823 340.9712 175.8822 339.5924 174.5 337.8333 C173.4068 336.442 173.4061 330.3859 174.5 327.8333 C175.2189 326.156 180.5 323.8333 180.5 323.8333 "/>
</g>
</g>
</svg>
