<?xml version="1.0" encoding="utf-8"?>
<!DOCTYPE svg PUBLIC "-//W3C//DTD SVG 1.1//EN" "http://www.w3.org/Graphics/SVG/1.1/DTD/svg11.dtd">
<svg viewBox="0 0 800 800" preserveAspectRatio="xMinYMin meet" xmlns="http://www.w3.org/2000/svg" version="1.1">
<g fill="none" stroke="black" stroke-linecap="round" stroke-linejoin="round" stroke-width="2.7074">
<g transform="translate(87.52,216.0579) scale(1.1081) translate(0,-11)">
<path id="0" d="M201 155 C201 155 191.323 154.3175 185 157 C176.7096 160.5171 173.6003 161.9996 168 169 C159.2495 179.9381 155.7336 183.6735 153 197 C148.5838 218.529 151.5933 222.5999 152 247 C152.0816 251.8979 152.2495 252.5264 154 257 C156.5552 263.53 156.5966 265.0222 161 270 C167.2301 277.0427 169.3261 280.442 177 283 C189.4543 287.1514 199.7317 284.5957 209 286 C209.3721 286.0564 209.6755 287.972 210 288 C225.8492 289.3663 238.5656 290.4197 267 291 C287.4207 291.4167 289.8811 293.5689 308 290 C320.0349 287.6295 322.8689 284.2883 333 278 C335.4117 276.5031 334.6778 274.1111 337 272 C339.6125 269.625 342.7194 269.6465 344 268 C344.678 267.1283 343.453 264.2763 344 263 C344.3594 262.1613 346.8933 261.7771 347 261 C349.1913 245.035 351 234.7839 351 212 C351 205.9553 348.1825 201.562 347 199 C346.9265 198.8407 345.0118 199.0529 345 199 C344.7618 197.9279 345.8141 194.0703 345 190 C343.9327 184.6633 343.9346 183.2185 341 179 C336.6675 172.7721 335.608 171.1905 329 167 C316.236 158.9057 313.6736 154.7246 300 153 C263.5558 148.4034 258.2184 151.4381 218 153 C207.624 153.403 207.0162 156.4276 197 157 C190.4484 157.3744 183 155 183 155 "/>
<path id="1" d="M240 151 C240 151 240.9622 144.3678 240 141 C239.5051 139.268 236.0339 138.3897 236 137 C235.6946 124.4766 236.7651 107.2635 239 100 C239.2811 99.0865 247.9811 97.9375 248 98 C249.2121 102.0091 250.3068 120.5657 252 143 C252.299 146.9617 252.5589 147.367 252 151 C251.6292 153.4104 250.169 155.8733 250 156 C249.9853 156.011 248 154 248 154 "/>
<path id="2" d="M239 102 C239 102 216.5016 106.1044 195 112 C185.8369 114.5124 185.6431 118.1103 177 119 C153.9156 121.3763 150.4615 115.3409 127 119 C98.0713 123.5118 96.9333 132.127 68 136 C35.8915 140.298 8.3201 137.2235 0 136 C-0.17993 135.9735 -1.3851 128.7701 0 126 C1.7313 122.5374 4.2236 121.4117 9 118 C14.5183 114.0583 14.8499 113.2364 21 111 C30.648 107.4916 31.7157 106.2683 42 106 C143.7342 103.3461 251 105 251 105 "/>
<path id="3" d="M251 105 C251 105 262.9654 103.4721 274 105 C294.748 107.8728 295.2764 112.781 316 114 C370.0877 117.1816 373.6777 116.7445 427 114 C439.1826 113.373 440.8554 111.8927 452 107 C460.2689 103.3698 462.4704 100.879 468 96 C468.9743 95.1403 469.0652 92.0015 469 92 C456.2405 91.7117 379.8747 91.5489 291 92 C281.5108 92.0482 280.6395 90.8881 272 93 C259.2302 96.1215 259.0455 99.1456 246 103 C237.4907 105.5141 228.2072 106.0444 228 106 C227.9676 105.9931 231.0655 103.0838 232 100 C235.734 87.6777 232.6201 83.5446 238 73 C243.6721 61.8828 246.8115 60.9204 257 51 C265.4705 42.7524 265.9766 42.4667 276 36 C296.6669 22.6665 300.0172 21.3168 319 11 C320.0064 10.453 321.5842 10.6882 322 11 C322.4504 11.3378 323.0735 12.6774 323 14 C322.6229 20.7877 323.86 24.1832 321 29 C316.2131 37.0621 311.7679 39.6444 304 46 C302.5378 47.1963 300.6962 45.8394 299 47 C292.3721 51.5349 291.3867 52.6133 285 59 C280.5785 63.4215 281.3829 65.1327 277 69 C273.5059 72.083 271.3619 70.7674 268 74 C259.1784 82.4823 259.8216 85.5177 251 94 C247.6381 97.2326 244.9153 96.0847 242 99 C239.5012 101.4988 238 107 238 107 "/>
<path id="4" d="M329 169 C329 169 341.3503 174.6821 354 178 C371.4927 182.5883 372.1993 184.2844 390 185 C469.9921 188.2158 532.4762 184.489 553 186 C553.1019 186.0075 554.6607 194.4536 553 197 C549.7114 202.0425 545.8264 206.2049 538 209 C507.3901 219.9321 502.4485 215.9404 469 227 C441.0614 236.2378 441.4609 241.162 414 250 C399.2099 254.76 397.2973 250.9992 382 255 C365.4027 259.3408 364.2635 259.8554 349 267 C341.6163 270.4562 341.9453 273.5273 335 277 C330.979 279.0105 325 279 325 279 "/>
<path id="5" d="M177 315 C177 315 208.8853 318.71 233 315 C243.2686 313.4202 244.1625 306.9928 255 303 C261.8652 300.4707 264.8142 302.6278 271 301 C272.4184 300.6267 274 298 274 298 "/>
<path id="6" d="M360 314 C360 314 356.5968 314.5988 355 314 C353.6826 313.506 352 311 352 311 "/>
<path id="7" d="M353 309 C353 309 360.0021 309.9925 360 310 C359.9816 310.0643 355.4802 314.8539 351 316 C335.9967 319.8381 333.4795 316.9915 317 321 C278.4634 330.3738 240 343 240 343 "/>
<path id="8" d="M206 318 C206 318 209.1567 317.189 211 318 C220.1573 322.0292 220.7658 325.3991 231 329 C246.784 334.5536 265 337 265 337 "/>
<path id="9" d="M266 301 C266 301 278.0884 305.6758 290 308 C298.0747 309.5756 300.6876 307.7375 307 309 C308.3212 309.2642 308.4975 311.5427 310 312 C318.1471 314.4796 321.1776 313.4268 330 316 C332.0319 316.5926 332.1365 318.6273 334 319 C340.5626 320.3125 350 320 350 320 "/>
<path id="10" d="M218 287 C218 287 223.3717 288.7433 224 290 C224.9425 291.885 225.2691 295.8272 224 299 C221.9976 304.006 219.18 307.3092 216 310 C215.0813 310.7773 211 310 211 310 "/>
<path id="11" d="M323 287 C323 287 325.1802 296.0989 324 302 C323.1069 306.4657 321.2928 308.1085 318 312 C316.4208 313.8663 313 315 313 315 "/>
<path id="12" d="M284 289 C284 289 279.5825 292.6505 277 297 C270.3877 308.1366 268.6719 309.6784 265 321 C263.2886 326.2768 265.1487 333.7769 265 334 C265 334 259 330 259 330 "/>
<path id="13" d="M265 288 C265 288 265.1664 291.385 264 293 C259.5835 299.1152 252 306 252 306 "/>
<path id="14" d="M185 172 C185 172 183.8729 184.8176 183 187 C182.9116 187.221 179.196 186.664 179 187 C177.8451 188.9799 176.9078 196.8212 176 199 C175.9429 199.137 174.0038 198.9692 174 199 C173.7538 200.9692 173.298 207.6288 174 215 C174.2277 217.3912 174.751 218.751 176 220 C177.249 221.249 178.6541 221.9421 181 222 C216.3092 222.8718 230.8995 225.0706 257 222 C260.4949 221.5888 265.0808 213.5757 266 212 C266.0502 211.9139 263.9151 210.4244 264 210 C265.5705 202.1477 269.122 195.6706 272 182 C272.9695 177.3946 272.8298 175.8722 272 172 C271.6148 170.2022 269.9626 168.0664 269 168 C261.4004 167.4759 255.9104 170 243 170 C218.6688 170 212.4791 166.992 194 168 C191.6291 168.1293 189.291 170.418 188 173 C185.66 177.6799 185 186 185 186 "/>
<path id="15" d="M551 188 C551 188 545.3793 184.3448 542 180 C538.871 175.977 537.8456 174.7356 537 170 C535.6026 162.1746 536.6351 154.1892 537 152 C537.0101 151.9392 539.4553 151.4972 540 152 C543.8269 155.5325 548.7082 158.4352 550 164 C554.0318 181.3676 550.3559 186.8474 553 208 C553.7448 213.9585 555.4408 217.9211 557 220 C557.3898 220.5197 561.0132 220.5639 562 220 C562.8458 219.5167 563.8034 217.8682 564 216 C564.7006 209.3446 565.8506 206.9219 564 201 C561.5171 193.0547 554 184 554 184 "/>
</g>
</g>
</svg>
