<?xml version="1.0" encoding="utf-8"?>
<!DOCTYPE svg PUBLIC "-//W3C//DTD SVG 1.1//EN" "http://www.w3.org/Graphics/SVG/1.1/DTD/svg11.dtd">
<svg viewBox="0 0 800 800" preserveAspectRatio="xMinYMin meet" xmlns="http://www.w3.org/2000/svg" version="1.1">
<g fill="none" stroke="black" stroke-linecap="round" stroke-linejoin="round" stroke-width="2.7506">
<g transform="translate(87.52,239.1246) scale(1.0907) translate(-40,-88)">
<path id="0" d="M194 190 C194 190 187.4605 193.3611 183 198 C175.4458 205.8564 173.8341 206.5253 169 216 C161.9608 229.7968 162.2021 232.1015 158 247 C157.0142 250.495 157.1109 251.4437 158 255 C160.4172 264.6687 160.3457 265.8853 165 275 C172.0445 288.7954 172.1401 290.6972 182 302 C191.6492 313.0613 193.4316 314.916 206 322 C219.2551 329.4711 221.6208 330.167 237 333 C258.2123 336.9075 260.1468 336 282 336 C290.2556 336 291.6928 335.8786 299 333 C307.0135 329.8432 308.2633 328.8674 315 323 C323.1262 315.9223 324.4059 314.8998 330 306 C334.7414 298.4568 335.1735 296.9296 337 288 C339.4823 275.8641 340.5421 273.6756 339 262 C337.311 249.2116 336.7958 245.2908 330 235 C321.0946 221.5147 317.7587 220.6005 304 209 C292.7071 199.4785 292.0043 199.0532 279 192 C262.9878 183.3154 261.804 181.3836 245 177 C229.1403 172.8627 225.9687 173.0961 210 174 C201.5918 174.4759 199.8901 176.055 192 180 C186.74 182.63 186.0648 183.5073 182 188 C176.9587 193.5719 175.4264 195.0689 173 201 C171.6909 204.1999 173 210 173 210 "/>
<path id="1" d="M291 198 C291 198 344.9425 200.9653 397 198 C422.7894 196.531 424.2673 195.1832 449 189 C459.1438 186.464 469 180 469 180 "/>
<path id="2" d="M317 316 C317 316 323.6779 314.7675 329 312 C335.6829 308.5249 336.0327 308.0414 342 303 C364.8207 283.7205 363.947 282.0438 387 263 C398.2375 253.7168 398.2884 252.2875 411 246 C443.6901 229.8307 447.5524 228.7623 480 217 C484.4889 215.3728 491.0331 217.0947 491 217 C490.5803 215.8008 476.7844 197.1773 466 177 C461.7141 168.9812 461.4811 167.8865 460 159 C458.1162 147.697 456.8684 144.0002 459 135 C460.4683 128.8006 463.2719 126.2875 469 121 C475.3048 115.1802 476.8329 115.0836 485 111 C490.4448 108.2776 490.9318 108.387 497 107 C508.237 104.4316 508.7616 103.4162 520 103 C535.0145 102.4439 537.8508 101.0553 551 105 C565.0646 109.2194 566.2921 112.3072 580 121 C586.4226 125.0729 587.0734 125.4308 592 131 C598.1491 137.9511 599.3802 138.6745 603 147 C608.9068 160.5855 609.5708 162.1819 612 177 C614.4052 191.6715 615.158 193.7569 613 208 C610.4349 224.9294 609.4915 229.1269 602 243 C597.6742 251.0108 594.3343 251.2091 586 258 C581.0672 262.0193 580.749 262.7271 575 265 C559.9866 270.9355 558.6247 272.0519 543 275 C533.3172 276.8269 531.9037 276.1651 522 275 C515.6472 274.2526 514.5127 273.7564 509 271 C505.3248 269.1624 503.9529 268.305 502 265 C498.2343 258.6272 496.8935 256.8181 496 249 C493.0961 223.5911 494 195 494 195 "/>
<path id="3" d="M546 157 C546 157 541 182.6224 541 185 C541 185 544.4032 185.5988 546 185 C547.3174 184.506 548.0251 183.684 549 182 C553.2464 174.6653 554.1442 173.9963 557 166 C558.9255 160.6086 559.2362 154.9447 559 154 C558.9743 153.8973 555.4575 153.1255 554 154 C547.5288 157.8827 539 166 539 166 "/>
<path id="4" d="M240 173 C240 173 248.1793 177.1567 253 183 C263.816 196.1104 266.1811 197.9985 273 213 C277.7573 223.4662 276.491 225.6266 278 238 C278.9427 245.7304 279.546 246.8498 278 254 C275.8038 264.1577 274.917 265.4552 270 275 C266.7437 281.321 265.955 282.045 261 287 C257.4607 290.5393 256.6696 291.3138 252 293 C239.6524 297.4589 237.8463 299.0985 225 300 C211.0798 300.9769 208.0227 300.7208 195 297 C185.655 294.33 183.9923 292.0741 176 286 C172.4713 283.3182 170 278 170 278 "/>
<path id="5" d="M48 162 C48 162 48.2085 159.5397 49 159 C56.5846 153.8287 59.049 151.6151 70 147 C128.3364 122.4154 129.4162 118.2147 189 100 C223.6993 89.3924 226.237 90.9608 263 88 C299.7795 85.0379 301.0591 86.2575 338 88 C353.3851 88.7257 361.1314 90.3771 369 93 C369.9635 93.3212 371.5193 97.5287 371 99 C369.6441 102.8418 367.7794 105.9753 363 110 C349.7984 121.1171 348.9293 123.5885 333 131 C278.7677 156.2331 276.1912 155.9296 219 177 C200.7944 183.7073 199.3805 180.6068 181 187 C142.2544 200.4767 140.9693 206.825 104 217 C90.1241 220.8191 86.9136 218.1185 72 217 C68.1667 216.7125 67.2263 216.1509 64 214 C58.8379 210.5586 58.1344 209.9957 54 205 C46.4409 195.8661 43.1971 192.7263 40 185 C38.987 182.552 40.102 178.7607 42 176 C44.4125 172.4909 46.1821 171.2885 51 169 C65.3461 162.1856 82 157 82 157 "/>
<path id="6" d="M182 160 C182 160 181.3151 156.8561 182 156 C185.5272 151.591 187.6693 148.3516 194 145 C203.1305 140.1662 205.2686 140.0867 216 138 C222.4312 136.7495 225.0541 137.1272 230 138 C231.2469 138.22 232.6469 139.7054 233 141 C233.7398 143.7125 234.2945 147.3248 233 149 C228.609 154.6825 224.6101 158.9102 216 163 C206.7618 167.3881 199.7659 168.2333 193 168 C191.1603 167.9366 187 162 187 162 "/>
<path id="7" d="M200 178 C200 178 210.6289 189.947 211 190 C211.0459 190.0066 213.6318 180.4909 214 180 C214.0075 179.99 217 182 217 182 "/>
<path id="8" d="M181 371 C181 371 193.6626 371.9347 206 371 C226.4203 369.453 226.7572 369.6049 247 366 C299.5464 356.6424 301.3896 358.5623 352 345 C376.4112 338.4584 396.5421 328.5488 400 325 C400.4794 324.508 393.1432 307.2223 390 306 C385.6518 304.309 376.3234 307.0444 364 311 C336.4378 319.8471 336.818 325.4248 309 332 C255.9957 344.5283 253.7355 343.0668 199 350 C179.4386 352.4778 164.1193 350.1041 159 351 C158.8662 351.0234 158.2847 354.425 159 357 C160.5961 362.746 160.8611 363.7686 164 369 C166.5529 373.2549 169.2339 373.4677 171 377 C171.9215 378.8429 170.8642 382.9745 171 383 C174.8642 383.7245 203 383 203 383 "/>
<path id="9" d="M179 303 C179 303 145.5189 314.6074 133 321 C132.0782 321.4707 131.4331 324.8743 132 327 C133.0217 330.8312 135.3923 335.2497 137 336 C138.5844 336.7394 142.4024 335.7734 147 334 C176.726 322.5343 207 309 207 309 "/>
</g>
</g>
</svg>
