<?xml version="1.0" encoding="utf-8"?>
<!DOCTYPE svg PUBLIC "-//W3C//DTD SVG 1.1//EN" "http://www.w3.org/Graphics/SVG/1.1/DTD/svg11.dtd">
<svg viewBox="0 0 800 800" preserveAspectRatio="xMinYMin meet" xmlns="http://www.w3.org/2000/svg" version="1.1">
<g fill="none" stroke="black" stroke-linecap="round" stroke-linejoin="round" stroke-width="2.8562">
<g transform="translate(87.52,162.6202) scale(1.0504) translate(-7,-18)">
<path id="0" d="M302 44 C302 44 304.2037 49.9324 303 54 C290.9834 94.6078 289.0413 99.2232 273 142 C269.8685 150.3506 264 158 264 158 "/>
<path id="1" d="M303 50 C303 50 301.5522 63.74 304 75 C306.2284 85.2505 309.38 85.2739 313 96 C322.8003 125.0379 331 155 331 155 "/>
<path id="2" d="M248 175 C248 175 335.451 176.8363 350 175 C350.3767 174.9525 350.7296 168.4904 351 162 C351.2281 156.5257 351.668 151.5248 351 151 C349.918 150.1498 337.9397 150.1274 337 151 C336.1897 151.7524 337.8779 163.4274 337 164 C334.4832 165.6414 315.6759 167.1871 314 166 C312.8773 165.2048 314.1145 149.1175 313 147 C312.7296 146.4863 304.405 146.46 304 147 C303.28 147.96 305.2079 157.6195 304 159 C302.3643 160.8694 293.8625 163 290 163 C288.8964 163 286.3771 160.6971 286 159 C284.92 154.1401 286.8277 146.1588 286 145 C285.5777 144.4088 276.4647 144.3959 276 145 C275.2147 146.0209 276.7953 157.3538 276 158 C274.7953 158.9788 264.9027 159.0321 260 158 C258.8227 157.7521 257.3852 155.7978 257 154 C256.1702 150.1278 257.2832 144.2203 257 144 C256.7572 143.8112 248.3397 145.8675 248 147 C246.3907 152.3643 248 174 248 174 "/>
<path id="3" d="M331 154 C331 154 333.8208 154.5818 334 155 C334.4705 156.0977 334 161 334 161 "/>
<path id="4" d="M248 177 C248 177 250.5066 178.5197 251 180 C252.5626 184.6877 253 192 253 192 "/>
<path id="5" d="M352 176 L343 191 "/>
<path id="6" d="M343 193 L345 227 "/>
<path id="7" d="M253 193 L253 227 "/>
<path id="8" d="M346 227 C346 227 381.5457 228.559 386 227 C386.5457 226.809 387.2552 217.7696 386 213 C385.4338 210.8483 381.4203 210.1016 381 208 C379.5989 200.9947 379.7663 189.4514 381 188 C381.8913 186.9514 396.9982 186.9392 398 188 C399.1232 189.1892 396.92 205.19 398 206 C399.92 207.44 420.2811 207.2705 422 206 C422.8283 205.3878 419.8811 190.4173 421 189 C422.0099 187.7207 436.2789 186.324 437 187 C437.8136 187.7627 435.9394 202.8732 437 204 C437.9394 204.9982 451.8673 204.9912 453 204 C453.8673 203.2412 452.1519 190.6596 453 190 C454.4019 188.9096 469.8108 188.8768 471 190 C472.0608 191.0018 472.7823 202.9008 471 207 C469.9151 209.4952 462.139 210.4942 461 213 C459.2719 216.8019 459.9592 228.2307 461 229 C463.0893 230.5443 483.6386 228.9487 484 230 C486.5424 237.396 483 293 483 293 "/>
<path id="9" d="M423 130 C423 130 413.2521 154.4959 402 177 C399.0647 182.8706 394 188 394 188 "/>
<path id="10" d="M425 131 C425 131 429.3997 152.7069 437 172 C442.0719 184.8748 451 197 451 197 "/>
<path id="11" d="M299 19 L300 60 "/>
<path id="12" d="M302 18 C302 18 354.5083 17.8059 355 18 C355.0842 18.0332 339.879 32.6024 340 33 C340.1704 33.56 362.0105 40.9978 362 41 C361.9664 41.007 297 42 297 42 "/>
<path id="13" d="M487 294 C487 294 521.5303 297.4527 526 296 C526.6847 295.7775 525.8752 281.888 527 281 C528.5766 279.7553 543.4234 279.7553 545 281 C546.1248 281.888 544.8625 294.8625 546 296 C546.9953 296.9953 559.2928 296.8588 560 296 C561.0428 294.7338 558.8496 280.7256 560 279 C560.6091 278.0864 571.6604 277.4907 572 278 C572.9217 279.3825 570.8658 295.4607 572 297 C572.6158 297.8357 585.2412 297.8673 586 297 C586.9912 295.8673 584.7453 282.4116 586 281 C587.2722 279.5688 601.6132 278.4585 602 279 C602.9142 280.2799 603.9145 293.7048 601 302 C598.7264 308.471 595.4263 310.1579 589 316 C584.9836 319.6513 583.9093 320.0908 579 322 C575.6608 323.2986 571.842 321.7838 571 323 C566.889 328.9381 565.5565 335.4697 561 348 C559.6114 351.8188 559.068 352.1231 559 356 C558.5854 379.6341 560 405 560 405 "/>
<path id="14" d="M253 227 C253 227 213.3197 229.258 209 227 C207.8197 226.383 206.8163 211.7642 209 204 C210.0948 200.1073 216.3042 198.9568 218 195 C219.5827 191.307 218.72 183.96 218 183 C217.595 182.46 212.9266 183.8726 209 183 C204.6856 182.0412 200.0907 178.8846 200 179 C199.4222 179.7354 199.2505 194.7491 198 197 C197.7092 197.5235 190.1813 197.3853 190 197 C189.1813 195.2603 191.0254 181.3409 190 180 C189.4004 179.2159 178.2374 178.84 177 180 C175.376 181.5225 175.2327 192.6887 174 195 C173.802 195.3713 169.0498 195.1692 169 195 C168.4248 193.0442 170.0428 179.2662 169 178 C168.2928 177.1412 155.7072 177.1412 155 178 C153.9572 179.2662 155.3426 194.1435 155 195 C154.9919 195.0202 149.3026 193.8069 149 193 C148.0032 190.342 149.8277 180.1588 149 179 C148.5777 178.4088 139.746 178.0209 139 179 C136.4962 182.2863 131.9971 196.2391 133 200 C133.6583 202.4685 145.2229 205.4458 147 209 C148.8326 212.6653 146 226 146 226 "/>
<path id="15" d="M151 181 C151 181 154.8537 178.9332 157 176 C169.2421 159.2692 169.4085 158.1601 181 140 C184.3496 134.7523 185.1442 134.5675 187 129 C189.4268 121.7195 190 113 190 113 "/>
<path id="16" d="M206 187 C206 187 197.1862 170.1762 194 154 C191.009 138.8148 193 121 193 121 "/>
<path id="17" d="M143 225 C143 225 131.0279 223.5657 128 225 C126.332 225.7901 124.2723 229.7789 124 234 C122.441 258.1646 127.4602 277.7203 124 287 C123.0727 289.4869 112.7797 290.9788 102 293 C97.3385 293.874 93.1622 293.9834 92 293 C90.5696 291.7896 90.4357 283.128 89 282 C87.6436 280.9343 78.6278 281.3151 78 282 C77.2528 282.8151 78.5852 293.7191 78 294 C75.4602 295.2191 60.2434 295.4986 53 294 C51.4814 293.6858 49.7381 290.768 49 288 C48.0599 284.4747 49.5514 279.4511 49 279 C48.1764 278.3261 38.6465 278.1226 38 279 C36.3081 281.2962 35.5707 297.7147 35 298 C34.4293 298.2853 22.1119 293.3283 18 289 C15.8909 286.7799 17.1292 279.1292 16 278 C15.2183 277.2183 7.1291 277.6415 7 278 C6.0041 280.7665 4.1813 295.5506 7 303 C8.9502 308.1542 20.412 310.3802 21 315 C25.181 347.8505 19.3107 366.5437 21 413 C21.2094 418.7575 22.5063 423.8244 25 425 C44.599 434.2395 59.2008 444.7924 91 446 C322.838 454.804 546.8986 447.7531 578 446 C578.4137 445.9767 575.1529 431.7595 570 419 C564.8439 406.2324 557 394 557 394 "/>
<path id="18" d="M121 291 C121 291 112.5929 302.1188 112 312 C108.4494 371.1772 112 441 112 441 "/>
<path id="19" d="M209 225 C209 225 209.1541 439.4849 209 448 C208.9987 448.0736 205 446 205 446 "/>
<path id="20" d="M387 224 L388 448 "/>
<path id="21" d="M503 297 L504 450 "/>
<path id="22" d="M267 196 C267 196 270.1556 200.2 271 204 C271.95 208.275 270.2468 213.5104 271 214 C273.5435 215.6533 290.6918 217.1233 291 217 C291.023 216.9908 287.1147 212.2359 286 208 C284.9194 203.8938 286.5769 198.3846 286 198 C284.7019 197.1346 271 198 271 198 "/>
<path id="23" d="M304 199 C304 199 302.8686 217.1732 304 218 C306.1186 219.5482 327.5616 219.4068 330 218 C330.8116 217.5318 330.957 203.6657 330 203 C327.8268 201.4882 307 202 307 202 "/>
<path id="24" d="M211 261 C211 261 210.6752 249.1181 211 249 C212.5293 248.4439 230.3701 250.8483 233 253 C234.192 253.9752 232.125 266.125 233 267 C233.875 267.875 246.2541 267.7459 247 267 C247.6394 266.3606 245.4571 254.3361 246 254 C247.6948 252.9508 266.2014 252.6919 268 254 C268.9514 254.6919 267.0146 269.1702 268 270 C269.3896 271.1702 285.7484 271.1858 287 270 C288.1234 268.9358 285.8882 252.9529 287 252 C288.5132 250.7029 306.7615 250.8234 308 252 C309.0056 252.9553 306.0062 269.7412 307 271 C307.6893 271.8731 322.1172 271.9931 323 271 C324.1172 269.7431 321.9615 254.5577 323 253 C323.4615 252.3077 334.3559 252.1258 335 253 C336.4915 255.0241 335.0987 269.3381 337 272 C338.0504 273.4705 345.0913 274 350 274 C351.1328 274 352.8914 272.7239 353 272 C353.7978 266.6812 351.6336 257.5869 353 254 C353.4591 252.7949 359.9803 250.7219 361 251 C361.6583 251.1795 363.648 254.1841 364 257 C364.9938 264.9507 362.92 274.19 364 275 C365.92 276.44 388 275 388 275 "/>
<path id="25" d="M113 335 C113 335 111.9375 319.0625 113 318 C114.0625 316.9375 129.5152 317.4033 130 318 C130.4475 318.5508 125.5616 333.5324 126 334 C126.6374 334.6799 144.4929 334.5796 145 334 C145.3546 333.5947 141.4041 325.0206 140 318 C139.6861 316.4307 140.6067 314.121 141 314 C143.1156 313.3491 152.4468 313.1702 153 314 C154.5444 316.3165 153.4556 332.6835 155 335 C155.5532 335.8298 165.7497 335.8656 167 335 C167.7534 334.4784 168.7116 329.7357 168 326 C166.9538 320.5076 162.8333 314.4 163 314 C163.07 313.8319 172.786 313.5291 173 314 C174.036 316.2791 171.9 333.8 173 336 C173.275 336.55 178.8051 336.3711 184 336 C185.4505 335.8964 186.8701 335.3898 187 335 C187.5197 333.4408 187.9349 330.4281 187 327 C185.1726 320.2996 181.0753 314.1297 181 313 C180.9965 312.9477 185.3503 311.5669 186 312 C187.2993 312.8662 189.4576 315.7455 190 319 C191.2027 326.2165 188.9375 334.9375 190 336 C191.0625 337.0625 207 336 207 336 "/>
<path id="26" d="M391 336 C391 336 389.7163 316.5858 391 315 C391.8413 313.9608 406.7411 313.811 408 315 C409.2631 316.1929 407.8312 330.3442 409 332 C409.5126 332.7261 416.0856 332.6022 420 332 C420.8212 331.8737 422 330.6558 422 330 C422 324.4256 419.1641 314.0031 420 313 C420.8268 312.0078 435.9165 310.9165 437 312 C438.4898 313.4898 437.5299 330.4482 439 332 C439.9506 333.0034 454.317 332.1099 455 331 C456.5743 328.4418 453.848 308.6181 455 306 C455.223 305.4931 465.7912 305.5066 466 306 C467.1662 308.7566 464.9111 329.1688 466 332 C466.1611 332.4188 475.81 332.4222 476 332 C476.8254 330.1657 473.7736 315.5259 475 312 C475.3826 310.9001 483.0568 308.5647 484 309 C485.0099 309.4661 487.1158 313.5789 488 318 C489.4617 325.3083 487.6834 332.8809 489 334 C490.79 335.5215 508 335 508 335 "/>
<path id="27" d="M152 358 C152 358 138.0299 358.3577 133 362 C127.8751 365.7111 124.0266 371.1979 123 379 C119.6931 404.1325 122.1437 410.599 123 438 C123.0735 440.3511 124.9742 442.9828 125 443 C125.0048 443.0032 126 440 126 440 "/>
<path id="28" d="M148 360 C148 360 152.3106 359.1035 155 360 C158.7139 361.238 159.9162 361.9162 163 365 C170.3538 372.3538 172.2765 373.7339 177 382 C179.2943 386.015 178.9168 387.5935 179 393 C179.4071 419.4593 178 447 178 447 "/>
<path id="29" d="M122 284 L204 284 "/>
<path id="30" d="M137 242 C137 242 137.3975 250.8444 137 258 C136.9489 258.9193 136.0034 260.0051 136 260 C135.9855 259.9782 135 255 135 255 "/>
<path id="31" d="M135 245 C135 245 154.3391 243.7346 156 245 C156.9641 245.7346 156.7221 260.5956 156 261 C154.0756 262.0777 131 259 131 259 "/>
<path id="32" d="M171 246 C171 246 169.0001 259.0001 169 259 C168.9999 258.9999 168.2049 244.5566 169 244 C170.4615 242.977 187.4826 243.5585 189 245 C190.2385 246.1766 189.7726 262.3561 189 263 C188.2016 263.6653 171 260 171 260 "/>
<path id="33" d="M32 335 C32 335 33 347 33 347 C33 347 32.0483 328.7704 33 328 C34.1992 327.0292 53.3466 329.3031 54 330 C54.2523 330.2691 49.9111 337.3113 48 344 C47.1487 346.9795 48.4375 350.5625 48 351 C47.5625 351.4375 43.5528 351.9117 41 351 C37.796 349.8557 34 346 34 346 "/>
<path id="34" d="M60 333 C60 333 60 352 60 352 C60 352 59.2119 332.6305 60 332 C60.8275 331.338 78.6732 334.4391 80 336 C80.8498 336.9997 78.582 350.0529 77 352 C76.3029 352.858 67 352 67 352 "/>
<path id="35" d="M88 338 C88 338 87.0003 352.0002 87 352 C86.9996 351.9997 84.2556 337.2655 85 336 C85.4047 335.312 96.5178 334.4374 97 335 C97.779 335.9088 97.3606 348.1971 97 350 C96.9856 350.0721 94.1875 349.8125 94 350 C93.8125 350.1875 94 353 94 353 "/>
<path id="36" d="M23 370 L110 371 "/>
<path id="37" d="M505 370 L556 370 "/>
<path id="38" d="M527 314 C527 314 534.9915 318.9972 535 319 C535.0027 319.0009 533 316.5365 533 316 C533 315.6423 535.0191 314.0019 535 314 C534.7664 313.9766 514.0706 313.0984 513 314 C512.4903 314.4292 514.4779 328.8584 516 330 C517.649 331.2367 531.667 330.2546 533 329 C534.0489 328.0128 533 314 533 314 "/>
<path id="39" d="M554 316 C554 316 552.5341 328.6954 553 330 C553.0732 330.2049 557.0329 330.6557 559 330 C560.3114 329.5629 561.7478 328.261 562 327 C562.8406 322.7968 562.6923 316.0385 562 315 C561.6923 314.5385 554 315 554 315 "/>
<path id="40" d="M397 223 C397 223 397.0239 239.8209 397 240 C396.9976 240.0183 395.2108 238.9134 395 238 C394.0383 233.8327 393.5692 227.2632 394 227 C395.4303 226.1259 411.6104 225.8298 413 227 C413.9854 227.8298 414.1122 241.9496 413 243 C411.6057 244.3169 395 244 395 244 "/>
<path id="41" d="M428 229 C428 229 428.0041 238.9959 428 239 C427.9984 239.0016 424.8882 232.0915 425 232 C425.6412 231.4754 438.171 229.4671 439 230 C439.4611 230.2964 439.6849 240.3722 439 241 C438.1849 241.7472 427 241 427 241 "/>
<path id="42" d="M391 290 L482 290 "/>
<path id="43" d="M293 306 C293 306 284.3269 305.051 278 306 C275.7012 306.3448 273.9054 307.1892 273 309 C261.9704 331.0593 254.0586 337.3449 249 364 C242.0026 400.8709 247 446 247 446 "/>
<path id="44" d="M293 306 C293 306 298.0792 306.0951 301 308 C308.3704 312.8068 309.7238 313.9393 316 321 C321.2434 326.8988 322.1161 327.6205 325 335 C338.6268 369.8685 342.2924 372.5451 350 408 C354.1272 426.9853 350 450 350 450 "/>
<path id="45" d="M286 307 C286 307 288.9213 310.7458 289 314 C290.3024 367.8341 286.8984 375.9387 289 431 C289.2549 437.6783 292.5845 438.2058 294 445 C294.941 449.5169 294 455 294 455 "/>
<path id="46" d="M252 425 L300 424 "/>
<path id="47" d="M246 398 L286 398 "/>
<path id="48" d="M251 370 L286 370 "/>
<path id="49" d="M262 338 L286 338 "/>
<path id="50" d="M249 371 C249 371 244.6039 367.569 241 367 C236.4731 366.2852 231.2312 367.2165 230 368 C229.596 368.2571 229.7534 373.9075 230 374 C231.7534 374.6575 244.0679 373.6377 246 374 C246.0679 374.0127 246 377 246 377 "/>
<path id="51" d="M247 427 C247 427 237.6173 426.6571 237 427 C236.8903 427.061 237.4641 431.7703 238 432 C240.2899 432.9814 251 433 251 433 "/>
<path id="52" d="M288 335 C288 335 288.7336 336.9926 289 337 C297.8264 337.2452 324 336 324 336 "/>
<path id="53" d="M294 369 L335 369 "/>
<path id="54" d="M304 395 L338 395 "/>
<path id="55" d="M295 422 L332 422 "/>
<path id="56" d="M340 367 C340 367 350.7142 367.1428 352 368 C352.4737 368.3158 352.3081 374.8732 352 375 C350.1831 375.7482 335 375 335 375 "/>
<path id="57" d="M354 413 C354 413 360.0041 413.4435 362 413 C362.3604 412.9199 363 410.9999 363 411 C362.9999 411.0003 362.0134 417.4595 361 418 C358.608 419.2757 348 419 348 419 "/>
<path id="58" d="M407 448 C407 448 408.9876 446.7299 409 446 C409.3466 425.5514 405.3271 413.7242 408 389 C408.8444 381.1893 412.1281 377.6838 417 372 C419.3092 369.3059 421.9695 368.278 426 368 C434.6304 367.4048 437.2598 367.3107 446 370 C455.3598 372.88 460.8382 374.1735 465 380 C472.0372 389.8521 473.2267 396.2847 476 412 C478.9559 428.7503 477 448 477 448 "/>
<path id="59" d="M127 438 L123 447 "/>
<path id="60" d="M149 362 C149 362 147.1051 366.5858 147 371 C146.1288 407.5916 147 446 147 446 "/>
<path id="61" d="M435 371 C435 371 438.7443 376.2433 439 381 C441.0793 419.6747 440 464 440 464 "/>
<path id="62" d="M221 282 C221 282 219.7634 305.3207 221 308 C221.2634 308.5707 232.4858 308.808 233 308 C234.567 305.5375 236.0981 290.7585 235 286 C234.7019 284.7084 230.8007 282.8943 227 282 C223.1743 281.0998 218 282 218 282 "/>
<path id="63" d="M266 280 C266 280 263.2103 281.1587 263 282 C261.9101 286.3595 261.2998 295.1831 262 296 C262.5937 296.6926 273.8051 296.9388 275 296 C275.8863 295.3036 276.8912 285.8912 276 285 C274.0393 283.0393 259 280 259 280 "/>
<path id="64" d="M321 283 C321 283 320.0586 299.1632 321 300 C322.0659 300.9475 331.6159 300.3426 339 299 C340.846 298.6644 342.6988 297.2047 343 296 C343.9788 292.0847 344.1174 284.0517 343 283 C341.1896 281.2961 326 280 326 280 "/>
<path id="65" d="M359 287 C359 287 358.2518 302.1831 359 304 C359.1268 304.3081 365.8033 304.3653 366 304 C366.6783 302.7403 367.2751 292.4452 366 291 C364.3094 289.084 351 287 351 287 "/>
<path id="66" d="M190 94 L190 124 "/>
<path id="67" d="M187 94 C187 94 205.8889 93.9573 206 94 C206.0238 94.0092 199.995 98.9933 200 99 C200.121 99.1614 212 101.9908 212 102 C212 102.0122 205.8493 104.9827 200 106 C194.9319 106.8814 189 106 189 106 "/>
<path id="68" d="M421 107 C421 107 422.9721 107.6931 423 108 C423.4957 113.4528 423 129 423 129 "/>
<path id="69" d="M423 110 C423 110 435.99 109.9874 436 110 C436.0021 110.0027 426.996 114.996 427 115 C427.0139 115.0139 441.0009 114.9989 441 115 C440.9984 115.002 423 120 423 120 "/>
<path id="70" d="M20 423 C20 423 18.9372 443.8358 20 450 C20.1127 450.6534 23.5227 450.7337 25 452 C26.1944 453.0238 26.2146 455.7382 27 456 C29.3562 456.7854 32.6202 454.8406 37 456 C48.555 459.0587 48.8745 461.3882 61 465 C72.1295 468.3152 72.7374 469.886 84 470 C314.1321 472.3293 320.3884 470.9498 555 470 C566.4607 469.9536 567.5497 470.4751 578 468 C585.416 466.2436 591.3301 463.7433 593 461 C594.5933 458.3824 592.9021 445.842 592 445 C591.313 444.3588 578 447 578 447 "/>
</g>
</g>
</svg>
