<?xml version="1.0" encoding="utf-8"?>
<!DOCTYPE svg PUBLIC "-//W3C//DTD SVG 1.1//EN" "http://www.w3.org/Graphics/SVG/1.1/DTD/svg11.dtd">
<svg viewBox="0 0 800 800" preserveAspectRatio="xMinYMin meet" xmlns="http://www.w3.org/2000/svg" version="1.1">
<g fill="none" stroke="black" stroke-linecap="round" stroke-linejoin="round" stroke-width="1.1185">
<g transform="translate(87.52,161.2814) scale(2.6822) translate(-92,-242.1333)">
<path id="0" d="M92 418.1333 L146 417.1333 "/>
<path id="1" d="M93 419.1333 L96 332.1333 "/>
<path id="2" d="M96 337.1333 L98 280.1333 "/>
<path id="3" d="M98 280.1333 L144 281.1333 "/>
<path id="4" d="M147 417.1333 L146 287.1333 "/>
<path id="5" d="M146 329.1333 L269 327.1333 "/>
<path id="6" d="M269 282.1333 C269 282.1333 267.9286 318.24 269 354.1333 C269.9244 385.101 273 416.1333 273 416.1333 "/>
<path id="7" d="M273 416.1333 L325 413.1333 "/>
<path id="8" d="M325 413.1333 C325 413.1333 326.6527 384.5676 325 357.1333 C324.1943 343.7585 320.8576 343.5112 320 330.1333 C318.3992 305.1605 323.0637 282.0792 320 279.1333 C316.8113 276.0673 268 280.1333 268 280.1333 "/>
<path id="9" d="M147 415.1333 C147 415.1333 207.0189 416.4483 264 415.1333 C270.365 414.9864 277 412.1333 277 412.1333 "/>
<path id="10" d="M185 358.1333 L183 414.1333 "/>
<path id="11" d="M238 366.1333 L235 420.1333 "/>
<path id="12" d="M238 370.1333 C238 370.1333 237.5947 359.2944 237 359.1333 C229.8953 357.2091 190 357.1333 190 357.1333 "/>
<path id="13" d="M99 280.1333 C99 280.1333 101.4134 269.8926 106 263.1333 C110.0368 257.1843 113.3846 257.9026 118 252.1333 C120.7334 248.7166 120.0582 245.5606 122 243.1333 C122.6685 242.2977 125.7823 241.8761 126 242.1333 C127.8186 244.2826 130.6743 248.9773 133 256.1333 C136.9941 268.4228 135.4141 271.3758 139 282.1333 C139.683 284.1824 143 286.1333 143 286.1333 "/>
<path id="14" d="M269 283.1333 C269 283.1333 268.322 280.4893 269 279.1333 C272.1357 272.8619 272.8951 271.3984 278 265.1333 C283.6455 258.2048 285.9829 258.2256 291 252.1333 C292.0209 250.8937 291.8282 248.2021 292 248.1333 C292.2114 248.0488 295.1277 248.8249 296 250.1333 C299.9877 256.1149 299.1681 259.1271 304 266.1333 C308.7777 273.0609 316 279.1333 316 279.1333 "/>
<path id="15" d="M163 329.1333 C163 329.1333 162.0103 305.8975 163 283.1333 C163.4977 271.6867 166 260.1333 166 260.1333 "/>
<path id="16" d="M249 328.1333 C249 328.1333 250.8388 266.5144 246 262.1333 C240.4558 257.1136 175 261.1333 175 261.1333 "/>
<path id="17" d="M174 262.1333 L169 262.1333 "/>
<path id="18" d="M179 262.1333 L179 243.1333 "/>
<path id="19" d="M179 243.1333 C179 243.1333 226.0938 240.9987 233 243.1333 C233.7999 243.3806 234 260.1333 234 260.1333 "/>
<path id="20" d="M178 277.1333 C178 277.1333 177.6538 282.9026 178 283.1333 C178.7788 283.6526 185.5027 283.7323 187 283.1333 C187.4326 282.9603 188.0828 279.1885 188 279.1333 C187.6524 278.9016 181 279.1333 181 279.1333 "/>
<path id="21" d="M225 279.1333 C225 279.1333 225.4837 283.8465 226 284.1333 C227.0933 284.7407 233.2 284.5333 234 284.1333 C234.2 284.0333 234.2 280.2333 234 280.1333 C233.2 279.7333 226 280.1333 226 280.1333 "/>
<path id="22" d="M201 260.1333 C201 260.1333 200.4955 250.5117 201 250.1333 C201.7567 249.5658 211.5738 250.0362 213 251.1333 C213.885 251.8141 214 260.1333 214 260.1333 "/>
<path id="23" d="M110 298.1333 C110 298.1333 132.2335 297.1374 135 298.1333 C135.3585 298.2624 135.3185 307.0345 135 307.1333 C131.6935 308.1595 109.4762 307.8525 106 307.1333 C105.8512 307.1025 105.5012 302.0062 106 301.1333 C106.2732 300.6553 110 300.1333 110 300.1333 "/>
<path id="24" d="M280 299.1333 C280 299.1333 279.8064 306.0882 280 306.1333 C283.5564 306.9632 307.3879 306.7638 310 306.1333 C310.06 306.1188 309.3536 299.2041 309 299.1333 C304.7564 298.2846 280 300.1333 280 300.1333 "/>
</g>
</g>
</svg>
