<?xml version="1.0" encoding="utf-8"?>
<!DOCTYPE svg PUBLIC "-//W3C//DTD SVG 1.1//EN" "http://www.w3.org/Graphics/SVG/1.1/DTD/svg11.dtd">
<svg viewBox="0 0 800 800" preserveAspectRatio="xMinYMin meet" xmlns="http://www.w3.org/2000/svg" version="1.1">
<g fill="none" stroke="black" stroke-linecap="round" stroke-linejoin="round" stroke-width="3.053">
<g transform="translate(87.52,182.3449) scale(0.98264) translate(0,-38.1333)">
<path id="0" d="M146 478.1333 C146 478.1333 144.9736 465.8181 147 457.1333 C147.9925 452.8796 149.4838 451.8449 153 448.1333 C158.1168 442.7323 163.3004 442.7788 165 438.1333 C168.7909 427.7716 163.883 420.6278 168 407.1333 C172.2022 393.3594 176.558 393.3058 183 379.1333 C186.3808 371.6955 187.4492 370.9367 188 363.1333 C190.3266 330.1738 184.2479 323.9133 189 294.1333 C190.8713 282.4064 198.4926 280.7238 203 269.1333 C204.6286 264.9455 201.7947 262.7536 203 258.1333 C204.4864 252.4356 207.3065 252.2562 209 246.1333 C213.5794 229.5769 210.7176 215.7943 216 211.1333 C223.3658 204.6341 238.9055 207.3579 260 201.1333 C268.6985 198.5666 268.3515 196.092 277 193.1333 C286.9515 189.7289 288.1667 191.7967 298 188.1333 C313.1463 182.4906 313.9076 179.1921 328 174.1333 C331.6211 172.8334 336.2767 173.1436 337 174.1333 C340.6629 179.1458 345.5087 187.6067 347 200.1333 C350.181 226.8539 344.6818 230.3151 347 258.1333 C348.0625 270.8834 349.6531 271.7137 354 284.1333 C356.5134 291.3145 358.8967 291.5229 361 298.1333 C362.0369 301.3923 360.0122 302.8408 361 306.1333 C362.7039 311.8129 366.8371 312.7173 367 318.1333 C368.6173 371.9096 367.0467 378.9611 365 439.1333 C364.5587 452.1064 362.3014 452.4734 362 465.1333 C361.8156 472.8796 364 481.1333 364 481.1333 "/>
<path id="1" d="M216 208.1333 C216 208.1333 214.6746 146.0074 216 88.1333 C216.1223 82.7951 216.5314 81.7414 219 77.1333 C223.5875 68.5699 228.2542 68.1595 231 60.1333 C233.7766 52.0171 231.8185 39.2997 232 39.1333 C232.0164 39.1183 241.3841 44.3933 243 49.1333 C247.156 61.3242 246.5769 66.2105 247 83.1333 C248.5633 145.6635 247 209.1333 247 209.1333 "/>
<path id="2" d="M248 95.1333 C248 95.1333 247.2943 85.5246 249 78.1333 C250.0051 73.7777 252.4056 73.7173 254 69.1333 C256.2335 62.712 256.127 57.5777 257 55.1333 C257.0414 55.0175 258.9836 55.2029 259 55.1333 C259.6073 52.5523 260.9572 38.1158 261 38.1333 C261.2647 38.2416 279.3601 52.6538 281 64.1333 C288.2904 115.1661 283 192.1333 283 192.1333 "/>
<path id="3" d="M265 101.1333 C265 101.1333 263.9988 116.715 265 118.1333 C265.4988 118.84 276.46 118.8533 277 118.1333 C277.96 116.8533 277.8989 103.5715 277 102.1333 C276.6489 101.5715 267 102.1333 267 102.1333 "/>
<path id="4" d="M249 154.1333 C249 154.1333 262.9065 152.8194 263 153.1333 C264.416 157.887 263 201.1333 263 201.1333 "/>
<path id="5" d="M233 106.1333 C233 106.1333 230.3014 126.6663 231 128.1333 C231.1565 128.4619 242.6436 127.8106 243 127.1333 C243.8257 125.5645 242.3753 111.1963 241 109.1333 C240.5257 108.422 231 109.1333 231 109.1333 "/>
<path id="6" d="M228 165.1333 L226 203.1333 "/>
<path id="7" d="M227 168.1333 C227 168.1333 237.9114 167.8055 238 168.1333 C239.0948 172.1839 237 205.1333 237 205.1333 "/>
<path id="8" d="M304 116.1333 C304 116.1333 295.6049 121.9031 291 128.1333 C288.0258 132.1573 287 139.1333 287 139.1333 "/>
<path id="9" d="M301 117.1333 C301 117.1333 309.8011 124.2748 312 127.1333 C312.2657 127.4787 310.7283 129.6443 311 130.1333 C312.0373 132.0005 317 136.1333 317 136.1333 "/>
<path id="10" d="M310 134.1333 C310 134.1333 313.7883 148.8962 315 163.1333 C315.7377 171.8012 314 181.1333 314 181.1333 "/>
<path id="11" d="M290 144.1333 C290 144.1333 291.323 163.2954 293 166.1333 C293.4168 166.8387 302.7052 166.664 303 166.1333 C303.9552 164.414 304.0385 149.691 303 148.1333 C302.5385 147.441 291 148.1333 291 148.1333 "/>
<path id="12" d="M239 217.1333 C239 217.1333 225.8894 233.1016 216 250.1333 C208.2027 263.562 203 279.1333 203 279.1333 "/>
<path id="13" d="M294 197.1333 C294 197.1333 288.4664 222.2472 278 242.1333 C269.4516 258.3753 261.4222 258.8827 254 273.1333 C251.0105 278.8732 254.6128 282.338 253 290.1333 C251.7783 296.0384 248.4251 296.5009 248 302.1333 C246.5945 320.7563 246.1347 323.554 249 343.1333 C251.9672 363.409 257.0765 364.6433 260 384.1333 C261.2818 392.6788 258 393.7237 258 403.1333 C258 432.848 260 463.1333 260 463.1333 "/>
<path id="14" d="M335 219.1333 C335 219.1333 331.2504 226.902 327 232.1333 C325.4606 234.028 323.1309 233.437 322 235.1333 C320.0359 238.0795 321.3661 241.1363 319 244.1333 C314.947 249.2671 310.6692 248.6295 307 254.1333 C301.836 261.8794 299.7258 264.6077 299 274.1333 C296.0067 313.4199 296.0495 317.8267 299 359.1333 C300.4455 379.3701 305.341 381.5204 308 400.1333 C308.4851 403.5289 306.0539 404.2546 306 408.1333 C305.5706 439.0493 307 472.1333 307 472.1333 "/>
<path id="15" d="M342 300.1333 C342 300.1333 337.8378 309.7083 337 319.1333 C333.9294 353.6773 334.4148 355.2895 334 390.1333 C333.9242 396.4983 333.7896 397.5222 336 403.1333 C339.901 413.036 342.931 412.9609 347 423.1333 C350.6687 432.3052 350.5083 433.2881 352 443.1333 C352.9342 449.2992 353.8601 451.638 352 456.1333 C349.0001 463.383 340 472.1333 340 472.1333 "/>
<path id="16" d="M217 304.1333 C217 304.1333 213.4624 308.472 212 313.1333 C205.711 333.1796 204.2403 334.3412 201 355.1333 C198.3941 371.8548 197.9207 373.4988 200 390.1333 C203.2494 416.1285 207.7924 417.5055 212 443.1333 C213.059 449.5838 212.6198 451.4642 211 457.1333 C210.0443 460.4781 206 464.1333 206 464.1333 "/>
<path id="17" d="M370 369.1333 C370 369.1333 369.2024 366.0186 370 364.1333 C374.0924 354.4604 374.6724 352.9308 381 343.1333 C389.9871 329.2178 394.702 330.4582 401 316.1333 C419.0582 275.0597 431.9486 227.1862 432 227.1333 C432.0212 227.1115 432.2189 254.2058 436 280.1333 C439.1372 301.6455 439.9915 302.1035 446 323.1333 C449.9121 336.8257 449.6007 337.7919 456 350.1333 C463.224 364.0654 466.1244 363.6323 474 377.1333 C476.2577 381.0036 474.7344 383.1126 477 386.1333 C479.769 389.8254 483.5425 389.1741 486 393.1333 C491.3862 401.8111 495 415.1333 495 415.1333 "/>
<path id="18" d="M467 370.1333 C467 370.1333 466.0037 365.2016 467 361.1333 C471.7533 341.7239 474.3353 341.3471 479 321.1333 C489.2691 276.6341 487.3018 274.3344 497 231.1333 C497.9176 227.0457 500.9587 223.0616 501 223.1333 C501.612 224.1953 517.2675 257.0895 531 290.1333 C532.8717 294.6371 530.9632 296.2294 533 300.1333 C536.36 306.5733 539.2534 306.3425 543 313.1333 C546.9071 320.215 545.4382 324.0451 549 329.1333 C550.6927 331.5515 554.8635 330.6682 557 333.1333 C559.9963 336.5906 558.6487 340.0373 562 344.1333 C566.8049 350.006 571.5698 349.4163 575 355.1333 C579.0141 361.8235 576.1761 365.8107 580 374.1333 C584.2218 383.322 592 392.1333 592 392.1333 "/>
<path id="19" d="M577 366.1333 C577 366.1333 584.1543 354.9315 589 343.1333 C595.5095 327.2842 594.6771 319.2582 600 310.1333 C601.1929 308.0884 605.8719 306.9538 610 307.1333 C615.5102 307.3729 616.8621 310.3327 623 311.1333 C627.4801 311.7177 629.7929 309.6399 633 310.1333 C634.1275 310.3068 636 313.1333 636 313.1333 "/>
<path id="20" d="M173 400.1333 C173 400.1333 170.7459 400.7016 170 400.1333 C154.241 388.1265 150.6829 382.517 131 368.1333 C125.515 364.1251 123.5355 366.0665 118 362.1333 C105.1991 353.038 103.7519 352.7285 93 341.1333 C78.8589 325.8831 80.4161 321.6086 67 307.1333 C62.8152 302.6182 58.9029 304.5745 55 300.1333 C45.8933 289.7705 46.263 284.1178 38 274.1333 C36.1867 271.9422 34.3404 271.5342 31 271.1333 C22.8306 270.153 21.1969 269.8113 13 271.1333 C6.7128 272.1474 0 276.1333 0 276.1333 "/>
</g>
</g>
</svg>
