<?xml version="1.0" encoding="utf-8"?>
<!DOCTYPE svg PUBLIC "-//W3C//DTD SVG 1.1//EN" "http://www.w3.org/Graphics/SVG/1.1/DTD/svg11.dtd">
<svg viewBox="0 0 800 800" preserveAspectRatio="xMinYMin meet" xmlns="http://www.w3.org/2000/svg" version="1.1">
<g fill="none" stroke="black" stroke-linecap="round" stroke-linejoin="round" stroke-width="1.4614">
<g transform="translate(120.8207,87.52) scale(2.0528) translate(-245.3611,-21.3056)">
<path id="0" d="M261.3611 84.3056 C261.3611 84.3056 261.4221 91.3975 259.3611 97.3056 C254.165 112.2011 245.9856 126.9421 246.3611 127.3056 C247.3917 128.3029 290.1696 127.7523 290.3611 127.3056 C290.6744 126.5745 264.3611 85.3056 264.3611 85.3056 "/>
<path id="1" d="M282.3611 110.3056 L282.3611 68.3056 "/>
<path id="2" d="M298.3611 70.3056 C298.3611 70.3056 298.6105 104.4433 298.3611 109.3056 C298.3605 109.3183 296.3642 109.2781 296.3611 109.3056 C296.1142 111.5281 296.3849 127.1155 296.3611 127.3056 C296.3588 127.324 294.3611 125.3056 294.3611 125.3056 "/>
<path id="3" d="M282.3611 67.3056 L301.3611 68.3056 "/>
<path id="4" d="M280.3611 67.3056 C280.3611 67.3056 279.9979 57.3404 282.3611 49.3056 C284.6944 41.3724 290.3474 33.304 290.3611 33.3056 C290.3675 33.3063 289.5792 42.5098 291.3611 50.3056 C293.3883 59.1744 298.3611 68.3056 298.3611 68.3056 "/>
<path id="5" d="M298.3611 127.3056 L291.3611 126.3056 "/>
<path id="6" d="M295.3611 125.3056 L295.3611 125.3056 "/>
<path id="7" d="M298.3611 126.3056 C298.3611 126.3056 298.569 113.0324 301.3611 101.3056 C303.388 92.7928 303.3855 90.7258 308.3611 84.3056 C317.5913 72.3956 321.8878 73.3657 332.3611 61.3056 C337.8115 55.0293 336.2145 53.1677 341.3611 46.3056 C349.5247 35.4208 357.3937 25.4742 359.3611 25.3056 C360.897 25.1739 367.2317 35.3466 376.3611 43.3056 C386.3998 52.0573 391.0374 50.5643 398.3611 59.3056 C404.4317 66.5511 404.2092 69.5889 407.3611 80.3056 C414.057 103.0717 418.3611 127.3056 418.3611 127.3056 "/>
<path id="8" d="M432.3611 48.3056 C432.3611 48.3056 429.4222 50.1454 429.3611 51.3056 C427.9486 78.1433 429.9847 92.6461 428.3611 124.3056 C428.2466 126.5392 425.4527 129.3186 425.3611 129.3056 C425.1665 129.2778 421.3611 123.3056 421.3611 123.3056 "/>
<path id="9" d="M433.3611 48.3056 C433.3611 48.3056 446.343 47.1938 446.3611 47.3056 C447.5852 54.854 445.3611 122.3056 445.3611 122.3056 "/>
<path id="10" d="M432.3611 50.3056 C432.3611 50.3056 433.7313 36.2004 436.3611 25.3056 C436.8396 23.3234 439.3388 21.2733 439.3611 21.3056 C439.6065 21.66 443.6532 30.0508 445.3611 38.3056 C446.4846 43.7359 445.6044 48.8461 445.3611 50.3056 C445.3544 50.3461 443.3611 50.3056 443.3611 50.3056 "/>
<path id="11" d="M295.3611 127.3056 L486.3611 125.3056 "/>
<path id="12" d="M448.3611 122.3056 C448.3611 122.3056 491.1733 53.3096 491.3611 53.3056 C491.3719 53.3053 495.6833 97.783 495.3611 121.3056 C495.3371 123.0603 492.4482 125.9191 490.3611 126.3056 C482.6127 127.7404 468.3611 126.3056 468.3611 126.3056 "/>
<path id="13" d="M488.3611 29.3056 L493.3611 57.3056 "/>
<path id="14" d="M491.3611 30.3056 C491.3611 30.3056 501.6138 31.2695 508.3611 30.3056 C510.1188 30.0545 512.2896 27.2579 512.3611 27.3056 C512.5995 27.4645 513.6029 30.8937 514.3611 34.3056 C514.5648 35.2222 514.4038 36.2988 514.3611 36.3056 C511.7726 36.7143 501.2698 36.1801 495.3611 37.3056 C494.5694 37.4564 493.3611 40.3056 493.3611 40.3056 "/>
<path id="15" d="M514.3611 38.3056 C514.3611 38.3056 514.4332 41.2924 514.3611 41.3056 C511.4278 41.8389 492.3611 42.3056 492.3611 42.3056 "/>
<path id="16" d="M517.3611 41.3056 C517.3611 41.3056 516.078 48.1263 515.3611 48.3056 C510.3908 49.5481 489.3611 48.3056 489.3611 48.3056 "/>
<path id="17" d="M245.3611 129.75 C245.3611 129.75 249.8763 141.9205 250.3611 153.75 C252.324 201.645 250.3611 251.75 250.3611 251.75 "/>
<path id="18" d="M295.3611 127.75 C295.3611 127.75 294.4568 139.4462 295.3611 150.75 C296.4353 164.177 299.3611 177.75 299.3611 177.75 "/>
<path id="19" d="M298.3611 141.75 C298.3611 141.75 305.7767 129.8669 306.3611 129.75 C306.6533 129.6916 311.54 134.4248 313.3611 138.75 C314.9496 142.5227 314.3301 148.7411 314.3611 148.75 C314.391 148.7585 316.9448 143.4071 320.3611 140.75 C325.0197 137.1266 329.8378 134.6172 332.3611 134.75 C333.9524 134.8338 337.4769 141.5616 339.3611 141.75 C342.4199 142.0559 349.5528 138.2622 352.3611 136.75 C352.5538 136.6462 352.349 134.7451 352.3611 134.75 C352.4613 134.7901 355.2972 138.5119 357.3611 138.75 C365.2534 139.6606 370.4688 136.8394 378.3611 137.75 C380.425 137.9881 381.6461 141.75 383.3611 141.75 C390.9073 141.75 394.722 140.5871 405.3611 137.75 C416.9535 134.6587 424.8085 129.4962 428.3611 129.75 C429.2662 129.8147 433.5784 139.5442 433.3611 139.75 C431.8276 141.2028 421.3365 145.0283 409.3611 147.75 C399.8735 149.9063 399.3294 149.5155 389.3611 149.75 C357.0401 150.5105 356.6885 150.7498 324.3611 149.75 C308.4 149.2564 292.3611 146.75 292.3611 146.75 "/>
<path id="20" d="M430.3611 139.75 C430.3611 139.75 433.0521 146.4151 433.3611 152.75 C434.0181 166.2189 431.3427 168.5289 432.3611 180.75 C432.6651 184.3981 435.3144 184.6796 436.3611 188.75 C439.6402 201.5022 440.4924 202.3715 441.3611 215.75 C442.9508 240.2306 441.3611 265.75 441.3611 265.75 "/>
<path id="21" d="M300.3611 178.75 C300.3611 178.75 303.8969 205.8092 305.3611 232.75 C306.3863 251.6134 307.0273 256.088 305.3611 270.75 C305.0731 273.2843 300.3611 276.75 300.3611 276.75 "/>
<path id="22" d="M493.3611 123.75 C493.3611 123.75 489.4376 126.1975 489.3611 127.75 C486.8421 178.8501 487.2732 247.7684 486.3611 265.75 C486.3598 265.7764 482.3611 265.75 482.3611 265.75 "/>
<path id="23" d="M297.3611 276.75 C297.3611 276.75 306.2143 277.094 307.3611 276.75 C307.4643 276.719 306.9415 274.0857 307.3611 273.75 C311.2422 270.6451 318.9159 269.9816 322.3611 264.75 C329.6432 253.692 328.9174 244.318 334.3611 232.75 C334.9225 231.5571 336.5027 230.9116 338.3611 230.75 C346.8207 230.0144 348.9763 229.073 357.3611 230.75 C365.0398 232.2857 370.1352 233.3004 373.3611 237.75 C380.7192 247.8991 380.706 266.7794 386.3611 270.75 C391.6769 274.4824 416.1258 270.9991 420.3611 270.75 C420.3758 270.7491 420.1861 268.85 420.3611 268.75 C421.6079 268.0375 423.8221 267.4195 427.3611 266.75 C442.204 263.9419 443.3296 261.1887 457.3611 261.75 C478.7004 262.6036 502.3611 269.75 502.3611 269.75 "/>
<path id="24" d="M248.3611 247.75 C248.3611 247.75 251.947 271.9797 255.3611 273.75 C263.3684 277.9019 279.7141 273.273 302.3611 275.75 C310.7769 276.6705 311.0327 279.4067 319.3611 280.75 C325.9092 281.8061 333.3611 280.75 333.3611 280.75 "/>
<path id="25" d="M267.3611 159.75 L269.3611 185.75 "/>
<path id="26" d="M272.3611 159.75 C272.3611 159.75 278.5121 170.5124 282.3611 179.75 C282.9982 181.279 282.645 183.5725 282.3611 183.75 C281.3816 184.3622 275.1048 184.843 274.3611 184.75 C274.3375 184.747 274.3611 182.75 274.3611 182.75 "/>
<path id="27" d="M272.3611 157.75 L270.3611 161.75 "/>
<path id="28" d="M471.3611 173.75 L471.3611 173.75 "/>
<path id="29" d="M472.3611 173.75 L463.3611 197.75 "/>
<path id="30" d="M470.3611 173.75 C470.3611 173.75 475.8733 193.4205 475.3611 196.75 C475.2601 197.4067 466.3611 199.75 466.3611 199.75 "/>
<path id="31" d="M332.3611 246.75 C332.3611 246.75 330.4777 246.5402 330.3611 246.75 C328.0062 250.9889 327.559 257.7442 322.3611 264.75 C317.1212 271.8125 313.2415 270.6445 307.3611 277.75 C301.9355 284.3059 301.4767 285.9609 298.3611 293.75 C296.8669 297.4856 298.8063 299.4468 297.3611 302.75 C295.8872 306.1188 291.3611 309.75 291.3611 309.75 "/>
<path id="32" d="M436.3611 252.75 C436.3611 252.75 445.6957 265.4485 451.3611 278.75 C456.8549 291.6484 454.2829 293.4902 459.3611 306.75 C463.0933 316.4951 469.3611 325.75 469.3611 325.75 "/>
<path id="33" d="M293.3611 316.75 C293.3611 316.75 315.3748 317.249 336.3611 315.75 C342.7997 315.2901 342.9953 312.9016 349.3611 312.75 C404.3923 311.4397 409.4338 311.4378 462.3611 312.75 C466.143 312.8438 470.3218 315.7185 470.3611 315.75 C470.3694 315.7567 467.3611 316.75 467.3611 316.75 "/>
<path id="34" d="M264.3611 321.75 C264.3611 321.75 269.346 316.8732 273.3611 316.75 C340.9125 314.6779 350.6063 315.5569 427.3611 316.75 C446.8223 317.0525 466.3611 319.75 466.3611 319.75 "/>
</g>
</g>
</svg>
