<?xml version="1.0" encoding="utf-8"?>
<!DOCTYPE svg PUBLIC "-//W3C//DTD SVG 1.1//EN" "http://www.w3.org/Graphics/SVG/1.1/DTD/svg11.dtd">
<svg viewBox="0 0 800 800" preserveAspectRatio="xMinYMin meet" xmlns="http://www.w3.org/2000/svg" version="1.1">
<g fill="none" stroke="black" stroke-linecap="round" stroke-linejoin="round" stroke-width="2.3714">
<g transform="translate(87.52,202.0117) scale(1.2651) translate(-17,0)">
<path id="0" d="M195 177 C195 177 211.5642 180.2775 228 181 C256.7341 182.263 257.9312 183.2327 286 181 C300.7878 179.8237 301.216 175.1249 316 174 C346.0206 171.7158 376.5817 171.0033 378 174 C384.3317 187.3783 385.8041 299.2886 378 305 C363.4291 315.6636 215.3392 316.0713 199 305 C190.9653 299.5558 195 181 195 181 "/>
<path id="1" d="M375 307 C375 307 443.5628 310.5353 447 306 C452.8145 298.3281 449.3485 258.299 447 212 C445.8918 190.1533 441.4852 189.9062 440 168 C437.5266 131.5175 439 94 439 94 "/>
<path id="2" d="M492 93 C492 93 493.9216 95.6472 494 98 C494.8513 123.5399 491.3312 126.1211 494 153 C498.2405 195.7081 503.2277 196.0494 508 239 C511.6701 272.0306 514.4309 300.8917 511 306 C509.2979 308.5342 486.2781 304.5675 463 306 C454.6363 306.5147 453.5274 310.2034 446 310 C437.0273 309.7575 430.6509 307.2147 426 305 C425.2974 304.6654 425 300 425 300 "/>
<path id="3" d="M440 95 C440 95 440.1606 91.6962 439 90 C434.4651 83.3721 429.8554 82.853 427 76 C423.5059 67.6141 423.2313 61.4308 424 54 C424.2701 51.3892 426.7278 48.9633 430 47 C435.4536 43.7278 437.6924 45.1538 444 42 C448.2051 39.8975 448.4237 36.6922 452 36 C460.9787 34.2622 465.0378 33.8652 475 36 C484.065 37.9425 490.1132 40.2683 494 45 C497.5201 49.2853 497.2004 54.6042 498 64 C499.1577 77.6028 499.0674 85.5954 498 92 C497.892 92.6481 493 94 493 94 "/>
<path id="4" d="M201 306 C201 306 137.7044 306.8907 77 304 C65.6325 303.4587 54 299 54 299 "/>
<path id="5" d="M125 70 C125 70 117.9242 90.2462 117 110 C114.0015 174.0939 115.3249 176.5086 117 241 C117.2954 252.3741 120.2518 252.5893 121 264 C122.2223 282.6399 121 302 121 302 "/>
<path id="6" d="M46 60 C46 60 45.5277 177.3463 46 294 C46.0262 300.4828 46.5616 306.7937 47 307 C47.8406 307.3956 58.2828 304.2199 63 302 C63.6199 301.7083 64 299 64 299 "/>
<path id="7" d="M47 62 C47 62 36.1803 64.7669 33 63 C27.8221 60.1234 25.4008 55.1012 20 47 C17.8105 43.7157 17.3986 42.8536 17 39 C15.9926 29.2621 16.2708 26.7498 17 18 C17.11 16.6806 17.8023 15.616 19 15 C32.7641 7.9213 36.2795 2.3118 52 0 C82.8106 -4.531 86.9885 -0.83979 121 0 C126.9394 0.14665 127.8341 -0.1751 133 2 C145.83 7.4021 151.3503 8.3503 159 16 C163.9723 20.9723 164.2084 25.7858 166 35 C167.4959 42.6931 168.431 46.986 166 52 C162.6026 59.0071 157.2744 64.9084 150 68 C142.2071 71.312 126 69 126 69 "/>
<path id="8" d="M224 184 C224 184 219.7794 204.366 216 208 C213.694 210.2173 198 209 198 209 "/>
<path id="9" d="M220 207 C220 207 219.1769 237.9699 216 243 C214.7935 244.9103 196 245 196 245 "/>
<path id="10" d="M218 212 C218 212 249.2111 207.9608 255 204 C256.8149 202.7583 256 186 256 186 "/>
<path id="11" d="M250 206 C250 206 282.9812 206.3052 313 205 C315.8984 204.874 316.1799 203 319 203 C351.4317 203 388 205 388 205 "/>
<path id="12" d="M293 180 L293 206 "/>
<path id="13" d="M318 178 C318 178 317.7517 199.0207 318 202 C318.0017 202.0207 320 202 320 202 "/>
<path id="14" d="M346 178 L347 202 "/>
<path id="15" d="M217 241 C217 241 233.2282 234.0175 249 233 C308.7231 229.1469 372 231 372 231 "/>
<path id="16" d="M255 205 C255 205 253.8912 235.9115 254 237 C254.0055 237.0546 258 235 258 235 "/>
<path id="17" d="M290 206 L289 229 "/>
<path id="18" d="M316 199 L317 230 "/>
<path id="19" d="M347 202 L346 236 "/>
<path id="20" d="M195 280 C195 280 204.6566 272.3058 213 272 C291.8872 269.1088 386 273 386 273 "/>
<path id="21" d="M356 232 L383 232 "/>
<path id="22" d="M347 235 C347 235 348.8959 239.0954 349 243 C349.8662 275.4841 349 310 349 310 "/>
<path id="23" d="M316 230 L316 307 "/>
<path id="24" d="M289 231 L289 302 "/>
<path id="25" d="M252 234 C252 234 251.9999 312.9912 252 313 C252 313.0004 252.1903 309.9717 253 309 C253.8935 307.9278 257 307 257 307 "/>
<path id="26" d="M290 300 L289 312 "/>
<path id="27" d="M215 242 L215 309 "/>
</g>
</g>
</svg>
