<?xml version="1.0" encoding="utf-8"?>
<!DOCTYPE svg PUBLIC "-//W3C//DTD SVG 1.1//EN" "http://www.w3.org/Graphics/SVG/1.1/DTD/svg11.dtd">
<svg viewBox="0 0 800 800" preserveAspectRatio="xMinYMin meet" xmlns="http://www.w3.org/2000/svg" version="1.1">
<g fill="none" stroke="black" stroke-linecap="round" stroke-linejoin="round" stroke-width="1.5121">
<g transform="translate(87.52,237.312) scale(1.984) translate(-114,-141.4167)">
<path id="0" d="M149 168.4167 C149 168.4167 191.9193 165.4985 193 167.4167 C196.1684 173.0406 189.8045 203.4823 189 239.4167 C188.3083 270.3106 194.0662 297.79 190 301.4167 C184.1162 306.6644 122.2195 308.6464 115 305.4167 C113.225 304.6226 112.677 285.2771 114 267.4167 C114.5711 259.7074 118.3123 259.2766 119 251.4167 C121.6851 220.73 117.9683 215.8389 121 187.4167 C121.5496 182.2645 125.5195 181.5983 127 176.4167 C128.1644 172.3412 127.95 170.6916 127 166.4167 C126.1556 162.6167 122.9937 158.4167 123 158.4167 C123.0173 158.4167 128.4959 164.3289 134 166.4167 C141.5055 169.2636 152 169.4167 152 169.4167 "/>
<path id="1" d="M146 198.4167 C146 198.4167 145.3491 208.3011 146 210.4167 C146.121 210.8099 148.1326 211.4167 150 211.4167 C153.7348 211.4167 157.1265 211.2902 158 210.4167 C158.8735 209.5432 159 206.1515 159 202.4167 C159 200.5493 158.4326 198.5897 158 198.4167 C156.5027 197.8177 149 198.4167 149 198.4167 "/>
<path id="2" d="M143 268.4167 C143 268.4167 143.274 282.8359 144 283.4167 C144.6478 283.9349 156.1505 281.8698 158 280.4167 C158.7107 279.8583 158.9869 275.3773 158 272.4167 C156.9309 269.2093 154.3547 265.8037 153 265.4167 C151.4241 264.9664 144 268.4167 144 268.4167 "/>
<path id="3" d="M125 160.4167 C125 160.4167 124.8343 154.4603 125 154.4167 C126.9662 153.8992 135.4211 154.044 144 155.4167 C146.9014 155.8809 147.2155 158.1846 150 158.4167 C163.3654 159.5305 165.9335 159.9796 180 158.4167 C187.2937 157.6063 194.7464 153.2021 195 153.4167 C195.2717 153.6466 193 169.4167 193 169.4167 "/>
<path id="4" d="M199 177.4167 C199 177.4167 232.3544 174.8402 236 176.4167 C236.7329 176.7336 236 193.4167 236 193.4167 "/>
<path id="5" d="M237 193.4167 C237 193.4167 237.3745 263.4307 237 273.4167 C236.9995 273.4307 234.0039 273.3891 234 273.4167 C233.9382 273.8493 236.0301 280.4099 236 280.4167 C232.9952 281.0928 194 282.4167 194 282.4167 "/>
<path id="6" d="M238 179.4167 C238 179.4167 245.6036 171.8157 251 170.4167 C255.7447 169.1866 259.2379 170.5971 265 172.4167 C267.4665 173.1956 269.2589 174.5639 270 176.4167 C271.4081 179.937 271 181.9456 271 187.4167 C271 228.6983 269.5637 232.0236 270 270.4167 C270.0264 272.7403 272.0483 275.4063 272 275.4167 C270.4283 275.7535 242 276.4167 242 276.4167 "/>
<path id="7" d="M275 179.4167 C275 179.4167 282.8063 179.5414 288 177.4167 C292.4591 175.5925 296.8842 170.3226 297 170.4167 C297.8125 171.0769 302.9513 180.6287 304 190.4167 C307.2454 220.7072 305.2198 222.4269 306 254.4167 C306.2193 263.4069 307.4964 269.798 306 272.4167 C305.1805 273.8507 299.9077 274.845 294 275.4167 C284.8671 276.3005 275 275.4167 275 275.4167 "/>
<path id="8" d="M305 181.4167 C305 181.4167 311.7729 173.7585 319 168.4167 C322.6602 165.7113 323.8524 164.9577 328 164.4167 C334.0414 163.6287 336.2808 163.676 342 165.4167 C346.3285 166.734 350.812 169.4297 351 171.4167 C352.8603 191.083 348.6753 205.6441 349 239.4167 C349.1721 257.3157 353.8276 273.0016 352 275.4167 C350.6747 277.168 335.5713 277.4102 321 276.4167 C314.7475 275.9904 308 272.4167 308 272.4167 "/>
<path id="9" d="M327 162.4167 L327 167.4167 "/>
<path id="10" d="M327 167.4167 C327 167.4167 332.998 152.4157 333 152.4167 C333.0153 152.4243 335 171.4167 335 171.4167 "/>
<path id="11" d="M353 171.4167 L353 152.4167 "/>
<path id="12" d="M353 152.4167 C353 152.4167 376.8726 155.6264 399 156.4167 C403.7612 156.5867 405.2332 156.1745 409 154.4167 C411.5265 153.2376 414 149.4167 414 149.4167 "/>
<path id="13" d="M351 152.4167 C351 152.4167 350.8093 143.448 351 143.4167 C359.6915 141.9897 412.9179 136.6733 418 141.4167 C423.8676 146.8931 423.9194 177.5267 426 213.4167 C427.895 246.1053 424.8149 247.0228 426 279.4167 C426.2893 287.3236 429 295.4167 429 295.4167 "/>
<path id="14" d="M353 277.4167 C353 277.4167 358.9509 282.3308 365 284.4167 C372.5686 287.0265 373.682 287.2803 382 287.4167 C403.4507 287.7683 409.4367 286.857 426 285.4167 C426.8151 285.3458 428 283.4167 428 283.4167 "/>
<path id="15" d="M381 180.4167 C381 180.4167 382.5717 195.7843 384 197.4167 C384.6277 198.1341 394.5962 197.0449 395 196.4167 C395.5861 195.505 394.6017 185.6008 393 183.4167 C392.0478 182.1183 384 181.4167 384 181.4167 "/>
<path id="16" d="M379 236.4167 C379 236.4167 380.6804 252.6308 382 255.4167 C382.1837 255.8044 386.1158 256.1703 388 255.4167 C389.7586 254.7132 391.9332 252.6853 392 251.4167 C392.2354 246.9447 390.6841 239.1112 389 236.4167 C388.4636 235.5584 383.6661 234.8108 382 235.4167 C380.5393 235.9478 378 240.4167 378 240.4167 "/>
<path id="17" d="M213 177.4167 C213 177.4167 212.6169 174.8956 213 174.4167 C213.6641 173.5866 216.621 172.2272 217 172.4167 C217.8844 172.8589 221 178.4167 221 178.4167 "/>
<path id="18" d="M251 174.4167 C251 174.4167 251.8479 168.5688 252 168.4167 C252.0217 168.3949 255 170.4167 255 170.4167 "/>
</g>
</g>
</svg>
