<?xml version="1.0" encoding="utf-8"?>
<!DOCTYPE svg PUBLIC "-//W3C//DTD SVG 1.1//EN" "http://www.w3.org/Graphics/SVG/1.1/DTD/svg11.dtd">
<svg viewBox="0 0 800 800" preserveAspectRatio="xMinYMin meet" xmlns="http://www.w3.org/2000/svg" version="1.1">
<g fill="none" stroke="black" stroke-linecap="round" stroke-linejoin="round" stroke-width="2.453">
<g transform="translate(87.52,213.5516) scale(1.223) translate(-128,-13.9167)">
<path id="0" d="M141 110.8167 C141 110.8167 140.1424 135.9111 138 160.8167 C136.1486 182.3386 134.0808 197.1777 133 203.8167 C132.992 203.866 131.0003 203.8076 131 203.8167 C130.7503 210.6826 131.0769 257.4578 131 258.8167 C130.9974 258.8619 128.0069 256.7845 128 256.8167 C127.9187 257.1958 127.6377 270.8846 128 272.8167 C128.0127 272.8846 130.9984 272.7923 131 272.8167 C131.3734 278.5423 128.2691 316.498 131 318.8167 C134.6465 321.9127 159.0707 319.4514 184 317.8167 C187.8507 317.5642 188.2368 314.9157 192 314.8167 C223.6624 313.9834 256.5967 317.6625 260 315.8167 C260.4489 315.5732 251 298.1362 251 282.8167 C251 247.5354 253.2851 242.6295 260 206.8167 C261.8746 196.819 263.6111 196.0856 269 186.8167 C275.8988 174.9507 276.0756 174.1501 285 163.8167 C294.6956 152.5902 306.1733 142.4364 307 142.8167 C310.2318 144.3033 323.9467 164.4193 335 186.8167 C342.2522 201.5118 343.1229 203.605 345 219.8167 C348.4136 249.2974 346.9684 251.1516 346 281.8167 C345.4823 298.2092 340.9293 314.1822 342 314.8167 C345.9515 317.1583 371.635 316.2567 400 313.8167 C417.3855 312.3211 430.6679 312.1627 435 306.8167 C442.4392 297.6364 443.038 281.1122 447 255.8167 C449.4093 240.4341 446.1167 233.5021 448 223.8167 C448.3022 222.2623 452.157 222.0693 454 219.8167 C455.9559 217.4261 456.729 216.1767 457 212.8167 C459.064 187.2233 460.8266 184.4323 459 157.8167 C457.4147 134.7159 453.3204 134.3364 450 110.8167 C447.3569 92.0949 447 72.8167 447 72.8167 "/>
<path id="1" d="M141 114.8167 L141 53.8167 "/>
<path id="2" d="M142 60.9167 C142 60.9167 139.2434 50.8069 140 41.9167 C141.1456 28.4558 143.8439 14.4506 146 13.9167 C162.4219 9.8503 214.5783 13.5538 245 15.9167 C246.3702 16.0231 248.2855 18.9565 249 21.9167 C251.4336 31.9988 249.595 34.266 252 44.9167 C252.9043 48.9216 255.6906 49.2041 256 52.9167 C257.485 70.7372 254.515 75.0962 256 92.9167 C256.3094 96.6293 259.4191 97.1411 260 100.9167 C261.2136 108.8049 259.6253 118.8524 260 118.9167 C272.7503 121.1024 313.3588 118.0263 365 118.9167 C370.427 119.0102 374.2011 121.3318 376 120.9167 C376.5384 120.7924 378.0274 118.1938 378 115.9167 C377.5697 80.2052 375.4095 76.4141 375 37.9167 C374.9161 30.0335 375.9434 22.239 377 21.9167 C385.8459 19.2179 406.1972 21.9314 434 19.9167 C439.9441 19.4859 445.9875 16.8758 446 16.9167 C446.7256 19.2914 443.9258 37.655 445 55.9167 C445.3375 61.6545 448.064 62.0666 449 67.9167 C449.9627 73.9334 449 80.9167 449 80.9167 "/>
<path id="3" d="M430 311.9167 C430 311.9167 442.1114 308.3002 454 307.9167 C503.2707 306.3273 504.8856 309.1869 554 307.9167 C561.8964 307.7125 562.0892 305.2418 570 304.9167 C597.9667 303.7674 599.6128 305.7725 627 304.9167 C630.3934 304.8106 632.7532 303.6291 634 302.9167 C634.175 302.8167 634 300.9167 634 300.9167 "/>
<path id="4" d="M447 20.9167 C447 20.9167 475.9127 18.9254 504 19.9167 C517.8754 20.4064 518.0939 23.5046 532 23.9167 C584.9172 25.4846 639 23.9167 639 23.9167 "/>
<path id="5" d="M506 90.9167 C506 90.9167 504.8799 104.8764 506 107.9167 C506.3017 108.7356 509.6899 109.7328 513 109.9167 C518.0944 110.1997 523.3572 109.7932 524 108.9167 C524.9925 107.5633 525.0807 97.0781 524 94.9167 C523.5368 93.9903 519.4478 93.2301 516 92.9167 C514.7741 92.8052 512.9986 93.9112 513 93.9167 C513.0218 94.004 517.0056 96.9125 517 96.9167 C516.9744 96.9359 509 96.9167 509 96.9167 "/>
<path id="6" d="M565 127.9167 C565 127.9167 565.6886 140.6927 567 141.9167 C568.1315 142.9727 579.6259 142.4948 580 141.9167 C580.6984 140.8373 578.9466 125.8001 578 124.9167 C577.4596 124.4123 565 127.9167 565 127.9167 "/>
<path id="7" d="M490 170.9167 C490 170.9167 488.4892 189.0701 490 190.9167 C491.2636 192.461 507.4867 193.5262 508 192.9167 C508.7535 192.0219 507.5668 173.4088 506 171.9167 C504.7147 170.6926 487 172.9167 487 172.9167 "/>
<path id="8" d="M586 182.9167 C586 182.9167 586.8328 191.3439 589 196.9167 C589.7938 198.958 591.2425 200.1355 593 200.9167 C594.5209 201.5926 597.9638 201.0523 598 200.9167 C598.3995 199.4184 598.1398 186.9853 597 185.9167 C595.8649 184.8525 582 185.9167 582 185.9167 "/>
<path id="9" d="M604 74.9167 C604 74.9167 603.2515 89.7939 604 90.9167 C604.2651 91.3143 613.418 90.7315 614 89.9167 C614.9291 88.6159 615.073 78.5262 614 76.9167 C613.2847 75.8437 604 74.9167 604 74.9167 "/>
<path id="10" d="M187 172.9167 C187 172.9167 187.8549 186.0081 189 187.9167 C189.2969 188.4115 195.026 188.6959 196 187.9167 C197.3079 186.8703 198.4564 183.4502 199 179.9167 C199.3113 177.8929 198.3673 175.0391 198 174.9167 C196.5307 174.4269 187 175.9167 187 175.9167 "/>
<path id="11" d="M394 181.9167 C394 181.9167 393.5122 189.5264 394 189.9167 C394.7622 190.5264 403.5464 190.4207 404 189.9167 C404.4586 189.4071 403.9487 183.7115 403 179.9167 C402.7686 178.9911 401.5734 177.9167 401 177.9167 C398.7063 177.9167 393 179.9167 393 179.9167 "/>
</g>
</g>
</svg>
