<?xml version="1.0" encoding="utf-8"?>
<!DOCTYPE svg PUBLIC "-//W3C//DTD SVG 1.1//EN" "http://www.w3.org/Graphics/SVG/1.1/DTD/svg11.dtd">
<svg viewBox="0 0 800 800" preserveAspectRatio="xMinYMin meet" xmlns="http://www.w3.org/2000/svg" version="1.1">
<g fill="none" stroke="black" stroke-linecap="round" stroke-linejoin="round" stroke-width="3.0722">
<g transform="translate(87.52,220.8123) scale(0.9765) translate(0,-23)">
<path id="0" d="M200 148 C200 148 197.0701 154.6587 197 161 C196.0969 242.7349 198 329 198 329 "/>
<path id="1" d="M199 155 C199 155 225.6207 160.6996 252 162 C296.0108 164.1695 297.5964 163.9377 341 162 C352.3255 161.4944 352.701 157.3192 364 157 C439.1926 154.8759 518 157 518 157 "/>
<path id="2" d="M200 332 C200 332 208.8145 330.1292 217 331 C254.8762 335.0294 255.7371 340.5876 294 342 C403.2434 346.0325 425.5564 344.3435 515 342 C518.3014 341.9135 519.0951 337.8223 523 336 C525.6997 334.7402 529.9557 335.3163 530 335 C531.0957 327.1735 531.8481 310.0256 530 286 C528.3956 265.1426 524.1488 264.8422 523 244 C520.6962 202.2033 523.4633 200.2353 523 159 C522.9781 157.0541 522.4942 155.3954 522 155 C521.5293 154.6234 518 155 518 155 "/>
<path id="3" d="M217 156 C217 156 208.8379 90.917 217 60 C220.2063 47.8548 234.9375 45.6662 250 31 C253.1458 27.9369 254.7252 22.9283 255 23 C257.0423 23.5328 263.9384 31.2945 273 37 C276.6797 39.3169 279.2952 37.9194 282 40 C284.2448 41.7267 284.032 45.032 286 47 C286.8945 47.8945 289.9948 47.7908 290 48 C290.5663 70.839 289 168 289 168 "/>
<path id="4" d="M220 56 L292 57 "/>
<path id="5" d="M348 86 L349 162 "/>
<path id="6" d="M348 89 C348 89 353.2405 78.5707 360 71 C365.0865 65.3031 367.8771 66.4075 373 61 C376.1535 57.6713 376.7573 52.5736 378 52 C378.8981 51.5855 382.6826 52.7884 386 55 C398.4957 63.3305 400.7108 64.4204 411 74 C413.7593 76.569 413.0385 79.4781 415 82 C415.5884 82.7566 418.0012 83 418 83 C417.9733 83.0008 350 84 350 84 "/>
<path id="7" d="M413 81 C413 81 409.5542 91.6094 409 102 C407.5893 128.45 409 156 409 156 "/>
<path id="8" d="M288 220 C288 220 286.9247 227.3001 288 234 C293.3063 267.0621 296.133 267.5802 301 301 C303.5638 318.6047 303 337 303 337 "/>
<path id="9" d="M285 223 C285 223 359.643 218.0572 367 221 C368.051 221.4204 364.1389 238.4242 365 255 C366.1003 276.1802 369.1901 276.5397 371 298 C372.6676 317.7725 372 338 372 338 "/>
<path id="10" d="M200 334 C200 334 178.406 334.2668 159 339 C138.4729 344.0066 138.2703 348.8568 118 354 C106.008 357.0428 103.5916 352.5907 92 356 C71.3813 362.0643 71.0575 367.1785 50 374 C36.5197 378.3669 34.2178 374.7703 21 379 C10.4085 382.3893 0 390 0 390 "/>
<path id="11" d="M535 336 C535 336 576.1394 349.224 610 365 C617.1121 368.3136 616.0722 371.9196 623 377 C630.7329 382.6708 640 387 640 387 "/>
<path id="12" d="M522 154 C522 154 519.7934 124.7088 522 115 C522.4115 113.1895 527.7572 113.2142 532 110 C543.7398 101.1062 550.3792 90.2949 555 90 C559.3616 89.7216 567.3081 102.3232 579 107 C589.3253 111.1301 601.2503 108.702 605 110 C605.288 110.0997 605.7919 114.4162 605 116 C604.1421 117.7158 602.0609 119.8901 600 120 C572.3281 121.4758 530 120 530 120 "/>
<path id="13" d="M608 118 C608 118 601.2582 138.7122 600 159 C597.3319 202.0239 598.4486 203.2493 600 247 C600.9375 273.438 603.8603 273.5589 605 300 C606.3493 331.3028 605 363 605 363 "/>
</g>
</g>
</svg>
