<?xml version="1.0" encoding="utf-8"?>
<!DOCTYPE svg PUBLIC "-//W3C//DTD SVG 1.1//EN" "http://www.w3.org/Graphics/SVG/1.1/DTD/svg11.dtd">
<svg viewBox="0 0 800 800" preserveAspectRatio="xMinYMin meet" xmlns="http://www.w3.org/2000/svg" version="1.1">
<g fill="none" stroke="black" stroke-linecap="round" stroke-linejoin="round" stroke-width="1.5841">
<g transform="translate(196.4145,87.52) scale(1.8938) translate(-134,-72)">
<path id="0" d="M267 184 C267 184 263.5006 183.2044 261 184 C253.4035 186.4171 250.9106 186.4028 245 191 C238.9669 195.6924 235.138 198.7409 234 205 C230.2885 225.4131 231.843 233.0876 233 257 C233.227 261.6919 237 267 237 267 "/>
<path id="1" d="M310 181 C310 181 316.5191 183 318 183 C318.1851 183 318.8944 180.9814 319 181 C321.7542 181.486 329.2588 182.7193 335 186 C337.7401 187.5658 339.7114 189.9217 340 193 C342.2061 216.5318 344.0938 228.0339 341 250 C340.1539 256.0071 330 264 330 264 "/>
<path id="2" d="M238 270 C238 270 233.9927 273.9909 234 274 C234.0673 274.0841 240.7557 273.6728 242 275 C245.1565 278.3669 247.5045 282.7094 249 290 C251.2024 300.7369 250.6981 303.5286 250 314 C249.8192 316.7127 248.9866 318.0134 247 320 C243.2475 323.7525 237 327 237 327 "/>
<path id="3" d="M331 266 C331 266 334.0051 265.9937 334 266 C333.9776 266.028 327.4135 269.1392 327 271 C325.6263 277.1817 325.8756 283.1746 328 293 C329.5791 300.3033 331.0307 302.9722 335 308 C336.9948 310.5268 343 312 343 312 "/>
<path id="4" d="M343 312 C343 312 340 314 340 314 C340.0214 314.0322 344.5311 314.2185 345 315 C346.9225 318.2041 348.3312 322.1443 349 329 C350.2549 341.8631 351.1781 344.2928 349 356 C347.5892 363.5829 346.3035 367.3432 341 372 C328.8382 382.6786 324.8983 383.6894 308 392 C295.0143 398.3864 293.2257 400.1106 280 402 C267.5448 403.7793 263.9738 403.0631 252 400 C244.7337 398.1412 242.9922 396.2106 237 391 C232.3889 386.9903 229.67 384.8572 229 380 C226.3984 361.1386 227.4746 353.9736 229 333 C229.2691 329.3002 231.8699 325.6164 233 325 C233.7984 324.5645 240 327 240 327 "/>
<path id="5" d="M320 181 L294 182 "/>
<path id="6" d="M251 78 C251 78 256.3819 78.8257 257 80 C259.2894 84.3498 260.5123 88.6122 261 97 C262.9543 130.6134 258.9023 132.1838 262 166 C264.8249 196.8384 269.3646 197.2643 273 228 C274.7803 243.052 271.1863 257.3512 273 259 C275.0652 260.8775 304.0787 259.9833 306 258 C307.6937 256.2517 306.4819 241.5811 304 227 C302.6521 219.0809 299.192 218.748 298 211 C296.38 200.4698 299.1905 199.2248 298 188 C295.7358 166.6522 295.6836 166.076 291 145 C286.7486 125.8687 282.8075 125.6315 280 107 C277.5222 90.5567 281.6989 73.549 280 72 C278.3841 70.5266 246 76 246 76 "/>
<path id="7" d="M256 85 L237 87 "/>
<path id="8" d="M281 82 L290 78 "/>
<path id="9" d="M263 94 L245 96 "/>
<path id="10" d="M280 90 L292 88 "/>
<path id="11" d="M262 76 C262 76 264.4901 77.4704 265 79 C267.4643 86.393 268.284 88.0506 269 97 C271.2338 124.923 268.0981 125.9481 271 154 C274.0454 183.4384 278.6973 183.5587 281 213 C285.6342 272.2513 285 333 285 333 "/>
<path id="12" d="M273 76 C273 76 276.7188 80.25 277 84 C279.4448 116.5975 276.2987 120.5448 279 156 C280.2526 172.4406 282.9688 172.4967 285 189 C286.9413 204.7733 285.092 206.8805 287 221 C287.3196 223.3651 289.5659 223.6127 290 226 C291.3449 233.3968 289.1028 235.2216 291 243 C293.882 254.8161 298.8314 255.4435 300 267 C303.0494 297.1553 300 332 300 332 "/>
<path id="13" d="M269 271 C269 271 265.2263 272.1854 265 273 C263.816 277.2623 262.9518 282.4485 264 289 C264.6485 293.0533 267.9525 293.6353 269 298 C270.6678 304.9492 270.9782 306.9082 270 314 C269.1558 320.1206 267.8963 323.1383 265 327 C263.5735 328.9021 258 330 258 330 "/>
<path id="14" d="M322 263 C322 263 314.6137 266.0055 314 268 C312.2728 273.6134 312.5736 279.0149 314 289 C315.9698 302.7889 318.1787 303.2965 321 317 C321.575 319.7927 321.8895 321.4751 321 323 C319.5051 325.5627 314 329 314 329 "/>
<path id="15" d="M145 99 C145 99 147.3389 211.4769 146 311 C145.9302 316.1895 144.5715 317.4284 142 322 C140.4838 324.6955 137.6869 324.7104 137 327 C135.3832 332.3893 136 342 136 342 "/>
<path id="16" d="M145 101 C145 101 151.0041 100.5565 153 101 C153.3604 101.0801 154 102.1996 154 103 C154 105.0011 153.5453 107.5456 153 108 C152.4723 108.4398 148 108 148 108 "/>
<path id="17" d="M152 109 C152 109 154.5167 138.5214 155 168 C156.0148 229.9034 155 292 155 292 "/>
<path id="18" d="M151 294 C151 294 156.712 292.296 159 293 C160.9448 293.5984 163.6587 295.855 164 298 C166.3152 312.5526 166.7458 326.5588 166 337 C165.9356 337.9021 163.3916 339.6263 161 340 C149.0555 341.8663 134 342 134 342 "/>
</g>
</g>
</svg>
