<?xml version="1.0" encoding="utf-8"?>
<!DOCTYPE svg PUBLIC "-//W3C//DTD SVG 1.1//EN" "http://www.w3.org/Graphics/SVG/1.1/DTD/svg11.dtd">
<svg viewBox="0 0 800 800" preserveAspectRatio="xMinYMin meet" xmlns="http://www.w3.org/2000/svg" version="1.1">
<g fill="none" stroke="black" stroke-linecap="round" stroke-linejoin="round" stroke-width="2.0305">
<g transform="translate(190.9413,87.52) scale(1.4774) translate(-199,-37.1333)">
<path id="0" d="M261 228.1333 C261 228.1333 267.3491 222.9837 274 220.1333 C280.7665 217.2334 281.7407 216.7383 289 216.1333 C298.9026 215.3081 301.9769 214.1981 310 217.1333 C319.4335 220.5846 322.5559 223.4234 330 231.1333 C335.0783 236.393 337.0517 239.0738 338 246.1333 C341.0756 269.0293 342.2704 274.4228 339 298.1333 C336.6798 314.9545 329.4994 316.1747 326 333.1333 C323.3998 345.7344 323.0693 348.8612 326 361.1333 C330.4819 379.9013 337.1656 381.3999 342 400.1333 C344.5781 410.1235 344.2674 413.0333 342 423.1333 C339.1935 435.6352 337.3071 438.1789 331 449.1333 C328.7361 453.0654 327.0391 454.6013 323 456.1333 C314.4643 459.371 312.3995 459.4514 302 460.1333 C282.4358 461.4162 281.4289 461.2331 262 460.1333 C255.6031 459.7712 255.4816 458.7046 249 457.1333 C238.9843 454.7053 238.4167 455.5338 229 452.1333 C220.8428 449.1877 218.9183 449.2353 213 444.1333 C205.8517 437.971 202.3493 435.0203 200 427.1333 C196.5898 415.6848 198.2811 411.1513 199 397.1333 C199.2197 392.8487 199.7662 392.0648 202 388.1333 C211.9122 370.6878 214.4596 371.0577 224 353.1333 C230.7106 340.5256 231.438 339.7134 235 326.1333 C239.2087 310.0875 238.6789 309.0429 240 292.1333 C241.1524 277.3826 238.3516 276.4192 240 262.1333 C241.2468 251.3273 241.4175 249.2984 246 240.1333 C250.1243 231.8848 252.2233 229.0406 259 224.1333 C264.408 220.2172 275 219.1333 275 219.1333 "/>
<path id="1" d="M282 381.1333 C282 381.1333 278.3571 378.6634 275 378.1333 C269.6097 377.2822 266.8489 376.7153 263 378.1333 C259.9276 379.2653 258.421 381.3918 256 385.1333 C253.3567 389.2184 252.8777 390.306 252 395.1333 C251.0182 400.5334 250.7856 402.5185 252 407.1333 C252.8416 410.3313 254.0589 411.5382 257 414.1333 C262.0154 418.5586 263.6623 421.0344 269 422.1333 C277.5243 423.8883 281.9948 422.9965 291 421.1333 C294.2581 420.4592 295.7089 418.8827 298 416.1333 C300.0092 413.7223 300.8802 412.2485 301 409.1333 C301.3186 400.8488 301.4034 397.0764 299 390.1333 C297.8499 386.811 295.5178 384.6628 292 383.1333 C285.939 380.4981 276 380.1333 276 380.1333 "/>
<path id="2" d="M285 408.1333 C285 408.1333 283.5896 399.9305 284 392.1333 C284.5702 381.2997 285.5623 376.7466 287 370.1333 C287.0911 369.7144 288.925 369.5417 289 369.1333 C291.7037 354.4133 292.9948 345.1746 296 321.1333 C298.9898 297.215 297.6898 295.4773 301 273.1333 C301.4377 270.179 303.4931 270.0477 304 267.1333 C305.3347 259.4588 303.5801 258.369 305 250.1333 C308.5185 229.7261 310.7247 229.7679 314 209.1333 C325.6824 135.5343 335 61.1333 335 61.1333 "/>
<path id="3" d="M263 349.1333 C263 349.1333 265.6057 315.105 272 283.1333 C274.9237 268.515 278.0186 268.8338 282 254.1333 C290.9568 221.0621 291.9963 220.8312 298 187.1333 C307.4263 134.2242 304.1289 132.0928 313 80.1333 C314.3785 72.0595 315.7318 66.9559 319 64.1333 C322.0658 61.4856 335 61.1333 335 61.1333 "/>
<path id="4" d="M311 79.1333 C311 79.1333 305.141 79.9321 304 79.1333 C302.7123 78.2319 301.5268 75.5574 301 72.1333 C299.6477 63.3436 299.6405 61.4011 300 53.1333 C300.0775 51.3508 300.7073 50.8138 302 49.1333 C305.5369 44.5354 305.8485 42.901 310 40.1333 C313.5584 37.7611 315.1054 37.7452 320 37.1333 C326.6047 36.3077 328.1647 35.7329 334 37.1333 C339.185 38.3777 341.3401 39.4734 345 43.1333 C349.0905 47.2238 350.4262 49.5125 352 55.1333 C353.4656 60.3677 352.9092 62.6782 352 68.1333 C351.6153 70.4413 350.6879 70.8125 349 73.1333 C346.7353 76.2473 346.3698 77.9485 344 79.1333 C341.1859 80.5404 335 80.1333 335 80.1333 "/>
<path id="5" d="M353 54.1333 L361 54.1333 "/>
<path id="6" d="M354 72.1333 L362 72.1333 "/>
<path id="7" d="M300 73.1333 L293 73.1333 "/>
<path id="8" d="M299 58.1333 L294 57.1333 "/>
<path id="9" d="M286 54.1333 C286 54.1333 284.0345 54.0471 284 54.1333 C283.7845 54.6721 283.7044 58.9222 284 59.1333 C284.5794 59.5472 290.4956 59.5657 291 59.1333 C291.3706 58.8157 291.5075 53.8438 291 53.1333 C290.6133 52.592 286.1744 51.9299 286 52.1333 C285.5299 52.6818 285 60.1333 285 60.1333 "/>
<path id="10" d="M291 71.1333 C291 71.1333 288.0117 70.11 288 70.1333 C287.8364 70.4606 287.5861 76.5539 288 77.1333 C288.2111 77.4289 292.7439 77.4407 293 77.1333 C293.3689 76.6907 293 71.1333 293 71.1333 "/>
<path id="11" d="M361 52.1333 C361 52.1333 360.6926 56.8772 361 57.1333 C361.4426 57.5022 366.73 57.4933 367 57.1333 C367.48 56.4933 367.078 49.2309 367 49.1333 C366.998 49.1309 363 52.1333 363 52.1333 "/>
<path id="12" d="M366 69.1333 C366 69.1333 361.5365 69.5968 361 70.1333 C360.6423 70.491 360.7846 74.0103 361 74.1333 C361.6596 74.5103 367.2407 74.7028 368 74.1333 C368.5966 73.6859 369.0826 68.6287 369 68.1333 C368.9953 68.105 367 68.1333 367 68.1333 "/>
<path id="13" d="M380 104.1333 C380 104.1333 385.1832 118.0494 388 132.1333 C391.6161 150.214 389.4917 151.2409 393 169.1333 C394.3838 176.1905 396.679 176.0563 398 183.1333 C403.5448 212.8378 399.4236 214.719 407 244.1333 C433.1087 345.4964 436.4078 345.7435 466 447.1333 C466.8847 450.1645 466.72 451.8533 468 453.1333 C469.28 454.4133 474 455.1333 474 455.1333 "/>
<path id="14" d="M381 106.1333 C381 106.1333 379.6683 97.1236 380 95.1333 C380.0459 94.8578 381.98 93.9876 383 94.1333 C384.53 94.3519 386.3304 94.9854 387 96.1333 C388.8158 99.2461 388.8654 101.0712 390 106.1333 C395.3413 129.9639 394.2259 130.652 400 154.1333 C401.6283 160.7551 403.8849 160.5822 405 167.1333 C411.6717 206.3293 408.5259 208.2714 416 248.1333 C421.9388 279.8069 423.6302 279.7467 432 311.1333 C437.6241 332.2237 436.4307 332.9485 444 353.1333 C454.2552 380.4805 458.0858 380.1257 468 407.1333 C472.2358 418.6723 469.5914 420.0723 473 432.1333 C476.0018 442.755 477.5196 442.6921 481 453.1333 C481.9314 455.9275 482.1159 459.0837 482 459.1333 C480.894 459.6073 467 459.1333 467 459.1333 "/>
<path id="15" d="M382 96.1333 C382 96.1333 370.3658 102.3116 368 106.1333 C366.6843 108.2587 368.6012 116.9186 369 117.1333 C369.5671 117.4387 381 113.1333 381 113.1333 "/>
<path id="16" d="M478 459.1333 C478 459.1333 459.9506 461.2879 457 460.1333 C456.1534 459.8021 454.4263 450.7511 455 450.1333 C456.2631 448.7731 470 446.1333 470 446.1333 "/>
<path id="17" d="M372 115.1333 C372 115.1333 376.7 172.5431 387 227.1333 C391.4697 250.8226 395.8206 250.9607 402 274.1333 C403.6074 280.1612 401.1232 281.5029 403 287.1333 C407.2228 299.8018 410.9837 299.7457 415 313.1333 C436.1263 383.5543 454 457.1333 454 457.1333 "/>
</g>
</g>
</svg>
