<?xml version="1.0" encoding="utf-8"?>
<!DOCTYPE svg PUBLIC "-//W3C//DTD SVG 1.1//EN" "http://www.w3.org/Graphics/SVG/1.1/DTD/svg11.dtd">
<svg viewBox="0 0 800 800" preserveAspectRatio="xMinYMin meet" xmlns="http://www.w3.org/2000/svg" version="1.1">
<g fill="none" stroke="black" stroke-linecap="round" stroke-linejoin="round" stroke-width="2.0833">
<g transform="translate(293.44,87.52) scale(1.44) translate(-208,-4)">
<path id="0" d="M266 87 C266 87 265.147 97.1901 266 107 C267.1238 119.9234 269.8438 120.1377 270 133 C271.3253 242.12 269 354 269 354 "/>
<path id="1" d="M286 94 C286 94 288.2611 109.6231 287 124 C285.8395 137.2301 282.2703 137.6616 281 151 C279.3413 168.416 279.9476 169.4605 281 187 C281.4145 193.9086 283.9596 194.1654 284 201 C284.4471 276.5675 282 356 282 356 "/>
<path id="2" d="M213 221 C213 221 211.9309 206.2532 215 195 C217.3964 186.2132 219.2677 185.2245 225 177 C230.5236 169.0749 231.0485 168.6619 238 162 C242.7402 157.4573 243.2085 156.9892 249 154 C258.2368 149.2326 269 146 269 146 "/>
<path id="3" d="M283 146 C283 146 294.9268 143.3165 301 146 C312.2676 150.9787 317.6263 154.7123 326 165 C332.8395 173.4028 332.5722 176.8883 336 189 C339.8859 202.73 341 218 341 218 "/>
<path id="4" d="M214 221 C214 221 218.2096 224.3128 219 227 C220.1638 230.9568 220.146 235.1349 219 238 C218.3332 239.667 212.9979 241.9917 213 242 C213.0015 242.0058 217.3171 242.8255 220 242 C222.7713 241.1473 224.0726 240.1684 226 238 C227.3997 236.4254 228 233 228 233 "/>
<path id="5" d="M340 213 C340 213 342.337 217.9779 342 220 C341.7135 221.7188 338.6433 222.7485 338 225 C337.0575 228.2987 336.8695 231.1737 338 234 C339.0551 236.6379 344.0017 239.9987 344 240 C343.9911 240.0066 338.0666 239.0333 334 237 C331.8783 235.9391 330.7034 234.7586 330 233 C329.2463 231.1158 330 227 330 227 "/>
<path id="6" d="M229 233 C229 233 227.9776 237.1687 229 240 C233.9213 253.6283 238.3456 254.9046 242 269 C244.8516 279.9989 244.2237 282.9863 243 294 C242.4318 299.1135 241.0974 301.1878 238 305 C235.6352 307.9105 233.7164 309.0709 230 310 C225.1787 311.2053 219.6632 311.2474 218 310 C216.1982 308.6487 214 298 214 298 "/>
<path id="7" d="M330 229 C330 229 322.8812 265.5344 321 293 C320.746 296.7091 322.5173 299.3104 325 302 C327.2269 304.4125 329.2017 305.2004 333 306 C337.7252 306.9948 340.3495 307.1408 344 306 C346.1779 305.3194 347.785 303.43 349 301 C350.215 298.57 350 294 350 294 "/>
<path id="8" d="M214 302 C214 302 216.4991 316.0074 215 328 C213.6747 338.6022 209.4747 339.2561 208 350 C206.1375 363.5698 205.732 365.6189 208 379 C210.4787 393.6245 211.8194 395.663 218 409 C220.7073 414.842 222.015 415.4898 227 420 C232.0601 424.5782 232.7494 424.8747 239 428 C247.3993 432.1996 248.039 433.2767 257 435 C273.0158 438.08 275.2325 438.86 291 438 C300.9383 437.4579 312 432 312 432 "/>
<path id="9" d="M349 297 C349 297 345.0294 318.1093 347 335 C348.2027 345.3089 354.4522 346.5526 356 357 C358.1128 371.2616 357.9511 374.4903 355 389 C352.3207 402.1733 349.8496 403.9108 344 416 C342.9258 418.22 342.1747 418.2913 340 420 C335.2808 423.7079 335.27 424.5909 330 427 C318.3763 432.3137 305 436 305 436 "/>
<path id="10" d="M267 96 C267 96 272.087 73.8627 274 52 C275.5437 34.3579 273.1856 32.6959 274 16 C274.1153 13.6359 276 11 276 11 "/>
<path id="11" d="M275 17 C275 17 269.2042 15.5616 269 15 C268.596 13.889 269.6164 9.0439 271 6 C271.4697 4.9667 272.8578 4 274 4 C279.3303 4 286.036 4.5597 288 6 C288.9651 6.7077 289.4967 11.7714 289 15 C288.7495 16.6284 287.5475 18.2263 286 19 C282.905 20.5475 278.3248 21.1325 277 21 C276.8043 20.9804 276 18 276 18 "/>
<path id="12" d="M281 12 C281 12 279.9881 56.3949 282 91 C282.1841 94.1658 286 98 286 98 "/>
<path id="13" d="M253 354 C253 354 255.3035 356.8816 257 357 C272.7185 358.0966 296 357 296 357 "/>
<path id="14" d="M256 357 C256 357 257.4377 373.2763 262 388 C268.2421 408.1449 269.3728 408.7849 278 428 C280.1381 432.7622 284 437 284 437 "/>
<path id="15" d="M298 356 C298 356 300.5383 383.0011 297 406 C294.9052 419.6159 291.8096 420.7209 286 434 C285.0594 436.15 283.0049 438.0049 283 438 C282.9557 437.9557 282 430 282 430 "/>
<path id="16" d="M272 362 C272 362 270.8706 379.777 272 397 C272.8474 409.9233 273.5811 411.3087 276 423 C276.3078 424.4877 277.9975 426.0074 278 426 C278.0095 425.9714 278 417 278 417 "/>
<path id="17" d="M278 358 C278 358 279.9998 433.9968 280 434 C280 434.0005 282 422 282 422 "/>
<path id="18" d="M287 358 C287 358 289.741 388.4728 289 417 C288.7724 425.7612 285 435 285 435 "/>
<path id="19" d="M264 99 C264 99 266.4767 119.5563 265 139 C263.5378 158.2526 259.1276 158.6703 258 178 C255.6824 217.7303 259.5325 219.1557 258 259 C257.5619 270.3895 254 282 254 282 "/>
<path id="20" d="M251 281 C251 281 264.5421 283.141 278 284 C287.8986 284.6318 289.672 284.7242 298 284 C299.3216 283.8851 301 282 301 282 "/>
<path id="21" d="M289 115 C289 115 293.8554 132.7924 294 150 C294.3465 191.2322 288.467 193.2223 290 234 C290.902 257.9942 299 283 299 283 "/>
</g>
</g>
</svg>
