<?xml version="1.0" encoding="utf-8"?>
<!DOCTYPE svg PUBLIC "-//W3C//DTD SVG 1.1//EN" "http://www.w3.org/Graphics/SVG/1.1/DTD/svg11.dtd">
<svg viewBox="0 0 800 800" preserveAspectRatio="xMinYMin meet" xmlns="http://www.w3.org/2000/svg" version="1.1">
<g fill="none" stroke="black" stroke-linecap="round" stroke-linejoin="round" stroke-width="1.9729">
<g transform="translate(87.52,177.2345) scale(1.5206) translate(-172,-29)">
<path id="0" d="M242 187 C242 187 231.7407 185.3623 225 188 C211.1815 193.4073 207.917 195.5275 196 205 C190.0774 209.7077 189.8629 211.6253 186 219 C179.1156 232.143 177.7214 233.1776 174 247 C171.076 257.8605 169.6443 261.7585 172 271 C175.0911 283.1266 178.7623 285.3266 187 298 C191.5167 304.9488 192.0496 305.3201 198 311 C202.7372 315.5219 203.577 317.2455 209 319 C218.5665 322.0951 220.5515 321.4548 232 322 C251.7875 322.9423 255.8291 325.6515 272 322 C282.172 319.7031 285.9855 316.0145 294 308 C300.6788 301.3212 301.501 298.5639 305 289 C308.5657 279.2537 308.0009 277.9903 309 267 C310.9739 245.2874 308.239 235.2989 311 223 C311.4361 221.0575 315.7654 219.1763 320 218 C323.6685 216.981 325.4125 216.8042 329 218 C336.0422 220.3474 336.9654 224.8515 344 226 C358.6678 228.3948 363.5803 228.5955 378 226 C385.4728 224.6549 387.404 222.2768 394 217 C399.0607 212.9514 398.7848 211.6203 403 206 C404.7217 203.7044 405.8979 203.2114 406 201 C407.1918 175.1779 406 141 406 141 "/>
<path id="1" d="M228 187 C228 187 230.3107 184.1056 232 184 C249.7507 182.8906 267.8377 188.4391 276 184 C281.5392 180.9875 281.1693 163.0331 289 153 C293.7254 146.9456 299.275 148.8167 308 143 C318.4247 136.0502 317.7186 132.7998 328 127 C335.929 122.5272 337.7553 121.8157 347 121 C370.1954 118.9533 376.9599 126.376 396 121 C412.6218 116.3068 413.225 107.0702 432 97 C467.6397 77.8842 470.7754 79.8297 506 62 C509.8548 60.0488 513 56 513 56 "/>
<path id="2" d="M404 143 C404 143 425.8357 126.9448 449 114 C476.4944 98.6355 478.4347 100.9001 506 86 C514.975 81.1487 515.3664 77.6641 523 74 C525.6832 72.7121 529.0663 73.0332 531 74 C532.692 74.846 533.308 79.154 535 80 C536.9337 80.9668 539.9279 81.2288 543 80 C555.5187 74.9925 560.2973 72.7919 570 66 C572.0829 64.542 573.3214 61.3571 573 59 C572.2286 53.343 571.018 50.3442 567 44 C562.0345 36.1597 557.4315 29.1942 554 29 C544.2572 28.4485 532.5574 34.6736 514 41 C511.886 41.7207 510.1234 43.0746 510 44 C509.5903 47.0731 512 56 512 56 "/>
<path id="3" d="M547 75 C547 75 549.9005 76.224 551 78 C555.7324 85.6447 559.1661 95.3329 560 96 C560.0428 96.0342 566.0225 90.0123 566 90 C565.8595 89.9234 550.2391 89.2256 549 90 C548.6173 90.2392 549.8659 99.969 550 100 C550.4212 100.0972 562 93 562 93 "/>
<path id="4" d="M569 66 C569 66 572.3808 81.4164 575 86 C575.4951 86.8664 579.6544 87.3364 581 87 C581.6435 86.8391 583.0096 84.0038 583 84 C582.921 83.9684 576 85 576 85 "/>
<path id="5" d="M241 225 C241 225 237.7182 225.1792 237 226 C235.4639 227.7555 234.2692 229.77 234 233 C233.372 240.5366 233.1895 242.4993 235 250 C236.4122 255.8506 238.4625 260.55 241 262 C243.9604 263.6917 249.5297 263.2941 256 262 C260.7449 261.051 261.977 260.129 266 257 C270.3448 253.6207 270.9445 252.8015 274 248 C277.6469 242.2692 278.5089 241.2129 280 235 C281.2391 229.8369 281.5827 226.693 280 223 C278.3042 219.0432 274.9574 215.6189 271 214 C266.9433 212.3404 262.549 212.2504 258 214 C252.1051 216.2673 245 224 245 224 "/>
<path id="6" d="M264 239 C264 239 299.6071 212.3674 337 191 C361.84 176.8057 365.7026 180.0832 390 167 C396.606 163.4429 398.3082 160.3071 402 156 C402.5203 155.393 402 153 402 153 "/>
<path id="7" d="M275 215 C275 215 291.9748 202.9199 310 193 C366.256 162.0403 424 133 424 133 "/>
<path id="8" d="M253 214 C253 214 276.6719 196.599 302 183 C350.7347 156.8337 356.0782 159.732 402 134 C410.9949 128.9598 409.0051 123.0402 418 118 C463.9218 92.268 474.9062 90.9694 518 69 C519.217 68.3796 520 66 520 66 "/>
<path id="9" d="M267 212 C267 212 295.4126 190.9765 326 175 C406.7529 132.821 412.2441 136.8391 491 95 C505.6837 87.1993 518 73 518 73 "/>
<path id="10" d="M257 216 C257 216 257.1532 211.1107 259 209 C266.0972 200.8889 267.4765 197.578 278 192 C355.5449 150.897 360.957 153.422 442 112 C473.2042 96.0512 476.6546 94.3015 503 77 C506.7362 74.5464 509 68 509 68 "/>
<path id="11" d="M191 64 C191 64 196.6293 65.7315 200 69 C212.214 80.8439 213.7486 81.6086 224 96 C239.3309 117.5222 238.9423 118.7079 252 142 C257.3007 151.4553 257.5447 151.7358 261 162 C274.4155 201.852 271.676 203.6923 286 243 C292.9242 262.0014 296.4431 261.4512 304 280 C307.1755 287.7945 308 297 308 297 "/>
<path id="12" d="M189 62 C189 62 207.0229 56.6359 212 59 C218.3324 62.0079 221.8058 69.4892 229 81 C236.525 93.04 238.6586 94.3028 242 107 C245.5805 120.6058 241.9405 122.8111 244 138 C245.8977 151.9952 246.4041 152.1782 250 166 C262.379 213.5817 261.1357 217.1894 276 261 C279.0168 269.8917 283.3442 269.1541 288 278 C293.0341 287.5648 292.29 295.7352 296 299 C298.5051 301.2045 313 300 313 300 "/>
</g>
</g>
</svg>
