<?xml version="1.0" encoding="utf-8"?>
<!DOCTYPE svg PUBLIC "-//W3C//DTD SVG 1.1//EN" "http://www.w3.org/Graphics/SVG/1.1/DTD/svg11.dtd">
<svg viewBox="0 0 800 800" preserveAspectRatio="xMinYMin meet" xmlns="http://www.w3.org/2000/svg" version="1.1">
<g fill="none" stroke="black" stroke-linecap="round" stroke-linejoin="round" stroke-width="2.6498">
<g transform="translate(87.52,231.8722) scale(1.1322) translate(0,-50)">
<path id="0" d="M178 197 C178 197 178.3171 192.3658 180 189 C182.5244 183.9513 183.0358 182.9642 187 179 C190.4978 175.5022 191.3189 175.0597 196 173 C203.3193 169.7795 204.2531 168.421 212 168 C248.1831 166.0335 253.9968 162.9294 288 168 C306.1358 170.7045 309.3915 174.8018 326 185 C336.3044 191.3272 335.4692 195.302 345 203 C347.6778 205.1629 348.442 205.1412 352 206 C362.5787 208.5535 363.1534 209.668 374 210 C411.2477 211.1402 413.9475 207.4325 450 209 C457.6975 209.3347 458.6238 210.5578 466 214 C480.6719 220.8469 484.5047 220.8166 495 230 C501.7426 235.8998 501.5065 239.196 506 249 C512.3625 262.8819 513.8982 263.7835 517 278 C519.5899 289.8704 519.4728 292.8067 518 304 C517.2718 309.534 515.6126 310.8391 512 316 C508.9672 320.3326 508.3748 320.9567 504 324 C497.3677 328.6138 496.7623 328.974 489 332 C467.6445 340.325 466.4096 344.0805 445 347 C414.3122 351.1847 411.5111 348.1611 379 347 C370.0806 346.6814 369.5471 346.2792 361 344 C354.9383 342.3835 353.5336 342.649 349 339 C334.4194 327.2644 333.4156 325.4748 320 311 C314.7828 305.3709 314.3837 298.7124 311 298 C297.2225 295.0995 285.3315 302.0884 263 299 C240.6337 295.9068 237.9577 293.3108 217 285 C210.6706 282.4901 210.2506 281.0562 205 276 C197.03 268.3252 194.6264 268.0986 190 259 C180.6771 240.665 184.4056 231.7802 175 217 C170.3055 209.6229 165.4659 208.2136 155 204 C128.3531 193.272 126.689 191.8549 98 186 C54.2862 177.0788 8 174 8 174 "/>
<path id="1" d="M7 173 C7 173 4.5933 169.3618 4 166 C3.2121 161.5351 3.1929 160.641 4 156 C5.1054 149.6439 5.2717 147.9109 8 143 C9.4936 140.3115 11.7187 138.1086 14 138 C27.1134 137.3756 34.1034 135.9487 50 141 C84.7803 152.0517 85.0321 158.5464 121 172 C150.0602 182.8699 181 190 181 190 "/>
<path id="2" d="M415 250 C415 250 391.9227 246 374 246 C370.0657 246 367.7652 247.2348 365 250 C359.6823 255.3177 358.0892 258.2038 355 265 C353.8936 267.434 354.2276 270.069 355 272 C355.5076 273.269 357.0341 274.5995 359 275 C381.0119 279.4839 384.3937 281.3411 409 283 C427.9224 284.2757 430.987 284.0023 448 281 C453.7219 279.9903 458.0587 276.2943 460 274 C460.5833 273.3107 460.1609 269.8243 459 268 C457.4574 265.5759 456.219 264.5451 453 263 C444.4314 258.8871 443.5492 258.3873 434 256 C423.9906 253.4977 423.4443 253.5595 413 253 C395.725 252.0746 395.105 254.2218 378 253 C367.5974 252.257 357 249 357 249 "/>
<path id="3" d="M7 150 C7 150 97.6866 188.3674 190 210 C310.6771 238.2793 315.7246 226.9211 438 251 C476.9303 258.6663 477.555 261.261 515 274 C525.3306 277.5145 535 284 535 284 "/>
<path id="4" d="M15 142 C15 142 29.3723 145.1718 42 151 C61.3313 159.9221 60.5743 162.9347 80 172 C97.6918 180.2562 98.5882 181.2576 117 186 C130.4997 189.4772 132.2336 186.5291 146 189 C150.9951 189.8966 150.9297 191.8978 156 193 C173.4014 196.7829 174.0006 197.347 192 199 C222.6673 201.8164 223.4144 198.3414 254 202 C327.3908 210.7788 328.7372 211.0815 401 224 C417.1767 226.8919 416.8337 230.5708 433 234 C465.8495 240.9681 467.4537 237.6937 500 245 C515.6804 248.5201 515.4092 251.5026 531 256 C541.1073 258.9156 552 260 552 260 "/>
<path id="5" d="M169 211 C169 211 196.758 220.563 225 226 C289.7654 238.4682 291.1418 235.0321 356 247 C374.6797 250.4469 374.6896 251.4818 393 257 C411.1287 262.4634 411.8415 261.5398 429 269 C457.3803 281.3393 456.6768 284.1258 485 297 C500.4354 304.0161 517 309 517 309 "/>
<path id="6" d="M176 218 C176 218 189.1717 220.3062 201 225 C220.2226 232.628 219.4471 236.5604 239 243 C301.8433 263.6969 305.1159 258.8144 368 280 C397.6759 289.9978 396.9842 295.7967 426 306 C441.1727 311.3355 442.5055 310.1149 459 312 C477.2293 314.0833 478.8267 310.9871 496 314 C505.8409 315.7265 516 322 516 322 "/>
<path id="7" d="M67 141 C67 141 73.3612 123.0469 84 111 C105.7533 86.3675 109.0497 85.7525 135 64 C142.2865 57.8922 145.3237 58.9194 152 54 C153.3554 53.0013 153.1542 50.5639 154 50 C154.725 49.5167 156.7033 49.3135 158 50 C163.7591 53.0489 171.0057 58.9917 171 59 C167.0446 64.8069 142.1465 92.8237 111 119 C96.9061 130.8449 90.4411 127.0791 77 138 C68.7756 144.6823 63 158 63 158 "/>
<path id="8" d="M80 120 C80 120 75.8092 133.1049 70 145 C65.4566 154.3031 65.2401 154.8399 59 163 C52.5098 171.4872 49.7939 170.5726 44 179 C39.4172 185.6659 41.2517 187.6776 37 195 C32.468 202.8051 32.11 203.1917 26 210 C14.8129 222.4656 2 234 2 234 "/>
<path id="9" d="M79 130 C79 130 73.6724 131.8341 70 135 C59.7249 143.8578 60.887 147.5404 50 155 C35.2547 165.1032 30.7226 162.1849 16 172 C8.2057 177.1962 8.332 179.4808 2 187 C0.65648 188.5954 0.066159 189.2137 0 191 C-0.3729 201.0683 -2.326 206.4242 1 214 C4.6132 222.2301 11.4776 226.1299 18 232 C18.5894 232.5304 21 232 21 232 "/>
</g>
</g>
</svg>
