<?xml version="1.0" encoding="utf-8"?>
<!DOCTYPE svg PUBLIC "-//W3C//DTD SVG 1.1//EN" "http://www.w3.org/Graphics/SVG/1.1/DTD/svg11.dtd">
<svg viewBox="0 0 800 800" preserveAspectRatio="xMinYMin meet" xmlns="http://www.w3.org/2000/svg" version="1.1">
<g fill="none" stroke="black" stroke-linecap="round" stroke-linejoin="round" stroke-width="2.1217">
<g transform="translate(87.52,176.598) scale(1.4139) translate(-134,-72)">
<path id="0" d="M151 286 C151 286 145.9407 262.7902 143 240 C141.9996 232.247 141.8627 231.5059 143 224 C144.2622 215.6696 144.8439 214.8901 148 207 C149.6611 202.8473 150.0317 201.9683 153 199 C156.425 195.575 157.4261 194.4375 162 193 C173.5849 189.359 178.7251 188 188 188 C190.4971 188 192.3246 189.9793 195 193 C207.2443 206.8242 206.9208 210.9208 219 223 C222.579 226.579 224.7349 226.8554 230 228 C235.2272 229.1364 237.3524 229.6026 242 228 C249.9196 225.2691 252.3178 224.2464 259 218 C274.1784 203.8115 272.7231 198.7181 288 185 C295.7847 178.0097 298.3421 177.2193 308 174 C314.6653 171.7782 317.8813 171.3313 324 173 C331.6749 175.0931 334.3477 177.0358 341 183 C347.7495 189.0513 346.2595 192.2595 353 199 C360.2219 206.2219 361.4393 206.927 370 212 C374.0814 214.4186 375.1079 214.4355 380 215 C387.5654 215.8729 388.6346 216.2998 396 215 C404.7734 213.4517 407.0428 213.9694 414 209 C463.1463 173.8955 464.0041 168.5389 515 130 C529.3163 119.1808 530.0791 118.5795 545 110 C549.2156 107.576 555 107 555 107 "/>
<path id="1" d="M152 286 C152 286 151.2387 291.5403 149 295 C146.304 299.1666 145.0528 300.2981 141 303 C138.467 304.6887 134 305 134 305 "/>
<path id="2" d="M137 305 C137 305 144.894 304.0989 150 305 C151.779 305.3139 152.7675 306.1781 154 308 C163.4723 322.0025 162.3766 326.3109 173 339 C178.9411 346.0963 181.1644 346.7926 190 351 C201.2066 356.3365 202.8007 356.7304 215 359 C223.29 360.5423 226.6686 361.1105 233 359 C238.3934 357.2022 243.0353 354.0522 245 349 C251.363 332.6379 247.3482 324.3218 254 305 C256.9844 296.3311 259.6496 295.7616 266 288 C268.3464 285.1321 268.8298 284.5851 272 283 C277.2216 280.3892 278.1503 279.9 284 279 C290.4917 278.0013 293.7191 277.6481 298 279 C300.1083 279.6658 300.1273 282.8454 303 285 C309.5771 289.9328 311.9731 288.5381 318 294 C327.1421 302.285 325.7046 305.4384 335 314 C344.1366 322.4153 345.8956 325.0052 356 329 C364.5512 332.3807 370.5688 332.7485 378 331 C382.9542 329.8343 385.544 326.2915 390 321 C392.7413 317.7447 392.3332 316.5838 394 312 C396.3046 305.6624 397.3607 305.3929 398 299 C399.77 281.3002 395.9775 277.4147 399 262 C400.281 255.4668 402.4222 253.3712 408 248 C428.2437 228.506 433.2264 230.3639 453 210 C465.6738 196.9479 463.0456 193.5445 475 179 C492.8365 157.2989 493.2707 156.377 513 137 C520.6597 129.4771 522.0029 127.7305 531 124 C540.4849 120.0672 554 120 554 120 "/>
<path id="3" d="M539 114 L523 77 "/>
<path id="4" d="M516 128 L506 104 "/>
<path id="5" d="M503 105 L509 102 "/>
<path id="6" d="M520 81 L533 72 "/>
<path id="7" d="M519 132 C519 132 522.4196 139.6113 527 145 C530.389 148.9871 536 152 536 152 "/>
<path id="8" d="M546 122 C546 122 549.5218 128.962 554 134 C557.0722 137.4563 562 140 562 140 "/>
<path id="9" d="M533 156 L545 146 "/>
<path id="10" d="M558 144 L571 138 "/>
<path id="11" d="M154 283 C154 283 159.3917 275.4438 166 272 C193.0369 257.9104 195.0821 257.5258 225 246 C255.8169 234.1279 256.7368 234.2186 288 225 C295.0439 222.9229 303 223 303 223 "/>
<path id="12" d="M319 229 C319 229 323.5046 240.0825 326 251 C327.3988 257.1196 327 264 327 264 "/>
<path id="13" d="M325 240 C325 240 344.7176 239.4554 363 235 C403.486 225.1337 444 211 444 211 "/>
<path id="14" d="M327 250 C327 250 340.7549 249.6867 353 246 C386.4103 235.941 420 222 420 222 "/>
<path id="15" d="M313 240 L315 248 "/>
<path id="16" d="M265 388 C265 388 341.1878 356.1975 414 319 C478.7238 285.9346 479.0409 284.4814 541 247 C559.4285 235.8519 576 221 576 221 "/>
</g>
</g>
</svg>
