<?xml version="1.0" encoding="utf-8"?>
<!DOCTYPE svg PUBLIC "-//W3C//DTD SVG 1.1//EN" "http://www.w3.org/Graphics/SVG/1.1/DTD/svg11.dtd">
<svg viewBox="0 0 800 800" preserveAspectRatio="xMinYMin meet" xmlns="http://www.w3.org/2000/svg" version="1.1">
<g fill="none" stroke="black" stroke-linecap="round" stroke-linejoin="round" stroke-width="1.2433">
<g transform="translate(87.52,169.5611) scale(2.413) translate(-107,-163)">
<path id="0" d="M163 178 C163 178 167.8453 170.2956 173 166 C175.7062 163.7448 177.1398 163.4454 181 163 C189.3252 162.0394 192.2497 161.2499 199 163 C203.0557 164.0515 204.9 166.1846 208 170 C210.6533 173.2656 211.2823 174.6939 212 179 C213.1137 185.6819 213.1969 187.0181 212 194 C210.3221 203.7879 207.8916 204.227 206 214 C205.0167 219.0802 205.1433 220.7163 206 225 C206.3583 226.7913 208.8477 229.0689 209 229 C215.3212 226.1404 228.1209 216.2407 248 206 C260.7709 199.421 261.3655 199.2775 275 195 C286.4484 191.4083 287.13 190.9729 299 190 C316.9923 188.5252 335.84 189.77 336 190 C336.0522 190.075 314.9368 212.8881 315 213 C315.1092 213.1932 332.5501 211.7098 349 213 C357.3767 213.657 365.9945 216.9058 366 217 C366.0134 217.2272 356.7347 222.704 350 230 C339.217 241.6816 340.9131 244.3074 330 256 C320.3411 266.3489 319.8372 268.3312 308 275 C285.9825 287.4042 282.3408 291.1373 259 296 C238.5381 300.2629 234.2523 297.3964 212 295 C203.1921 294.0515 200.3199 293.2885 194 289 C188.6107 285.343 184 276 184 276 "/>
<path id="1" d="M166 176 C166 176 157.8366 184.4068 151 187 C146.0078 188.8936 143.2215 185.918 137 187 C132.6913 187.7493 132.4211 190.1158 128 191 C120.6917 192.4617 118.5626 190.6875 112 192 C110.1365 192.3727 108.7286 193.5429 108 195 C106.9072 197.1857 106.758 199.8224 107 202 C107.078 202.7024 108.2418 203.9677 109 204 C125.3628 204.6963 147.2688 201.9949 154 204 C154.923 204.2749 153.6679 213.3357 156 218 C157.9435 221.8869 160.2899 223.3085 165 226 C169.958 228.8332 174.9211 228.4408 177 230 C177.5197 230.3898 177.7595 233.2278 177 235 C175.2422 239.1015 171.6188 240.0399 171 244 C169.5776 253.1033 169.588 258.1561 172 267 C173.2625 271.6292 176.27 274.0693 180 277 C181.5962 278.2541 186 278 186 278 "/>
<path id="2" d="M174 183 C174 183 174.5058 186.6046 175 187 C175.4707 187.3766 177.6886 187.4371 179 187 C179.8743 186.7086 181.0114 185.0143 181 185 C180.7776 184.722 175 182 175 182 "/>
<path id="3" d="M176 183 C176 183 182.9198 180.9519 183 181 C183.0138 181.0083 181 186 181 186 "/>
<path id="4" d="M343 236 C343 236 345.7718 248.826 343 256 C338.7636 266.9647 335.1883 269.2275 326 280 C321.1707 285.6619 320.3807 286.8875 314 290 C301.1925 296.2475 298.9782 298.3871 285 300 C262.3389 302.6147 236 299 236 299 "/>
<path id="5" d="M177 274 C177 274 180.242 283.6338 184 286 C189.9765 289.763 194.1508 289.593 204 291 C211.1322 292.0189 219 291 219 291 "/>
<path id="6" d="M234 300 C234 300 234.5795 312.757 234 313 C230.7045 314.382 216.952 310.7677 203 313 C193.8727 314.4604 188.3774 318.6961 184 321 C183.8015 321.1045 184 323 184 323 C186.2746 323 204.6653 320.1738 206 321 C206.5326 321.3297 204.9656 335.9785 205 336 C205.0113 336.0071 210.2782 328.6584 214 326 C215.1528 325.1766 218.8135 325.6537 219 326 C219.9749 327.8105 219.8344 337.4847 221 339 C221.4934 339.6414 226.0393 339.9869 229 339 C232.2074 337.9309 233.2352 334.9216 236 334 C237.4887 333.5038 241.0072 335.0407 241 335 C240.9259 334.5799 233.6372 322.3098 233 317 C232.7849 315.2077 237.0571 313.2058 238 310 C239.1131 306.2154 238 300 238 300 "/>
<path id="7" d="M238 316 C238 316 239.9153 314.9153 240 315 C241.61 316.61 246.0889 320.9834 248 326 C249.3604 329.5711 248.4946 335.5054 248 336 C247.6043 336.3957 239 335 239 335 "/>
<path id="8" d="M272 302 L269 318 "/>
<path id="9" d="M266 304 C266 304 267.1987 317.5444 266 319 C264.9188 320.3129 252.0276 320.9877 252 321 C251.9924 321.0034 256.1772 322.1772 257 323 C257.3526 323.3526 257.5198 325.2852 257 326 C254.6056 329.2923 252.0328 329.6674 249 334 C245.3874 339.1609 242.8226 345.6705 243 346 C243.1619 346.3006 252.2166 345.3185 256 347 C258.2825 348.0145 260.9984 354.0011 261 354 C261.2929 353.7869 264.3411 343.7269 267 339 C267.3889 338.3087 269.6289 337.7403 270 338 C272.0327 339.4229 275.2828 345.0634 277 346 C277.4396 346.2398 280.8001 344.7496 281 344 C281.8473 340.8225 280.909 331.0682 281 331 C281.0257 330.9808 286.4187 336.592 289 338 C289.5361 338.2924 291.9001 337.3665 292 337 C292.5497 334.9844 293.2083 328.8125 292 327 C290.5903 324.8854 286.023 325.129 282 322 C277.6552 318.6207 277.3311 315.3061 274 313 C272.8296 312.1897 269 313 269 313 "/>
</g>
</g>
</svg>
