<?xml version="1.0" encoding="utf-8"?>
<!DOCTYPE svg PUBLIC "-//W3C//DTD SVG 1.1//EN" "http://www.w3.org/Graphics/SVG/1.1/DTD/svg11.dtd">
<svg viewBox="0 0 800 800" preserveAspectRatio="xMinYMin meet" xmlns="http://www.w3.org/2000/svg" version="1.1">
<g fill="none" stroke="black" stroke-linecap="round" stroke-linejoin="round" stroke-width="1.5409">
<g transform="translate(87.52,211.1492) scale(1.9469) translate(-93,-95.1333)">
<path id="0" d="M115 111.1333 C115 111.1333 128.3733 100.8009 139 95.1333 C140.9598 94.0881 143.1626 94.1228 145 95.1333 C151.1399 98.5103 154.9127 100.6035 159 106.1333 C161.7221 109.8161 159.8917 113.3143 162 118.1333 C162.9106 120.2148 165.8894 120.5622 166 122.1333 C167.7332 146.7442 164.4062 160.9716 167 189.1333 C167.3693 193.143 169.4343 194.5676 173 198.1333 C178.9428 204.0761 180.6571 206.953 187 209.1333 C193.4209 211.3405 198.786 211.3383 205 209.1333 C210.8354 207.0627 212.2542 204.1185 218 198.1333 C224.0101 191.8728 223.0572 190.0761 229 184.1333 C232.5657 180.5676 235.4286 180.9618 238 178.1333 C239.0714 176.9548 238.076 173.8441 239 173.1333 C242.0214 170.8092 245.2193 168.6658 251 168.1333 C280.7762 165.3908 284.4084 165.7254 315 166.1333 C320.2793 166.2037 321.2326 166.7496 326 169.1333 C334.5813 173.424 336.7641 173.6824 343 180.1333 C349.9557 187.3289 348.434 191.672 355 199.1333 C358.2874 202.869 361.2326 201.6014 365 205.1333 C368.4811 208.3968 367.4769 211.0017 371 214.1333 C375.5856 218.2094 377.5663 220.2522 383 221.1333 C393.2749 222.7995 399.6392 222.291 408 220.1333 C410.584 219.4665 413.9919 213.1057 414 213.1333 C414.0368 213.2586 414.4406 226.6887 413 237.1333 C412.6769 239.4759 411.9564 240.6049 410 242.1333 C397.3584 252.0096 389.4608 255.4231 381 262.1333 C380.5513 262.4892 381.5097 264.5872 381 265.1333 C376.7408 269.6968 374.2655 273.3968 367 277.1333 C358.3246 281.595 352.1488 280.6179 346 283.1333 C345.4161 283.3722 345.2558 286.1211 345 286.1333 C317.2381 287.4659 278.9115 292.7081 221 289.1333 C202.8511 288.013 198.3136 285.0663 183 276.1333 C171.2978 269.3071 171.0055 265.6548 161 254.1333 C154.7802 246.9711 153.3688 246.3681 150 238.1333 C144.9282 225.7356 144.2693 223.9144 143 210.1333 C140.873 187.0405 143 162.1333 143 162.1333 "/>
<path id="1" d="M115 110.1333 C115 110.1333 118.3916 105.0325 122 103.1333 C126.586 100.7196 128.1007 100.5871 134 100.1333 C147.0229 99.1316 157.6975 99.6441 161 100.1333 C161.0725 100.1441 160.4172 102.9676 161 104.1333 C161.8743 105.8819 165 108.1333 165 108.1333 "/>
<path id="2" d="M137 95.1333 C137 95.1333 131.1207 99.2131 126 101.1333 C124.0677 101.858 121.1137 100.8336 121 101.1333 C119.1251 106.0763 115.0004 130.1318 115 130.1333 C114.9999 130.1337 115 122.1333 115 122.1333 C115 122.1333 114.5941 131.6086 115 140.1333 C115.0687 141.5767 115.2419 142.582 116 143.1333 C119.249 145.4962 120.8904 146.4301 126 148.1333 C134.0294 150.8098 137.5356 149.0448 143 152.1333 C146.1454 153.9112 148.4413 157.3623 149 161.1333 C150.0002 167.8845 147.3518 170.1631 147 179.1333 C146.3579 195.5074 146.7509 208.0234 147 212.1333 C147.0009 212.1484 149 212.1333 149 212.1333 "/>
<path id="3" d="M117 122.1333 C117 122.1333 106.7072 120.9758 102 123.1333 C97.8637 125.0291 95.445 128.7866 93 133.1333 C92.0261 134.8648 92.6538 138.9026 93 139.1333 C93.7788 139.6526 98.0015 140.0421 102 139.1333 C108.2805 137.7059 115 134.1333 115 134.1333 "/>
</g>
</g>
</svg>
