<?xml version="1.0" encoding="utf-8"?>
<!DOCTYPE svg PUBLIC "-//W3C//DTD SVG 1.1//EN" "http://www.w3.org/Graphics/SVG/1.1/DTD/svg11.dtd">
<svg viewBox="0 0 800 800" preserveAspectRatio="xMinYMin meet" xmlns="http://www.w3.org/2000/svg" version="1.1">
<g fill="none" stroke="black" stroke-linecap="round" stroke-linejoin="round" stroke-width="1.9441">
<g transform="translate(87.52,205.568) scale(1.5431) translate(-5,-104)">
<path id="0" d="M122 181 C122 181 125.3122 184.7526 129 186 C157.4667 195.6284 159.4399 196.6783 190 204 C206.9372 208.0579 216.2537 211.6912 225 209 C231.1324 207.1131 237.4642 199.0155 242 188 C253.5682 159.9059 249.6159 153.9986 260 124 C262.5306 116.6893 264.0519 113.6653 269 110 C274.7334 105.7531 278.2336 105.1434 287 104 C300.0684 102.2954 301.2269 103.1209 315 104 C324.4402 104.6026 327.5406 103.6661 334 107 C339.8814 110.0356 341.6297 113.0995 346 120 C350.5471 127.1797 353 137 353 137 "/>
<path id="1" d="M313 131 C313 131 315.9072 134.0335 319 135 C330.8914 138.7161 332.1648 139.4598 345 141 C356.5286 142.3834 357.1717 141.9388 369 141 C388.4165 139.459 388.6435 138.3606 408 136 C408.9774 135.8808 409.95 135.9 410 136 C410.2 136.4 410.5383 138.385 410 140 C408.7439 143.7683 408.4318 145.0819 406 148 C404.0689 150.3174 403.0748 151.0956 400 152 C387.2471 155.7508 385.9243 156.4529 372 158 C354.9454 159.895 354.2146 159.7945 337 159 C322.1342 158.3139 307 155 307 155 "/>
<path id="2" d="M289 124 C289 124 286.1099 124.7252 286 125 C285.8201 125.4497 286.0539 128.2209 287 129 C292.3394 133.3972 294.9482 134.1689 303 139 C304.9032 140.1419 306.9494 141.0591 307 141 C307.3797 140.557 309.7134 133.3376 309 132 C307.9809 130.0892 303.9093 127.9092 299 126 C295.6608 124.7014 291 125 291 125 "/>
<path id="3" d="M353 165 C353 165 346.4938 187.65 337 195 C322.4939 206.2305 310.6032 202.8484 291 213 C285.438 215.8803 281.532 219.5073 281 224 C278.1669 247.9236 282.4017 256.8652 282 289 C281.9071 296.4295 282.5932 297.7459 280 304 C274.7217 316.7299 273.9525 322.4518 265 330 C252.7955 340.29 247.1928 341.2428 229 347 C208.9818 353.3349 207.4251 352.2054 186 355 C173.2887 356.658 172.8277 356.4751 160 356 C146.111 355.4856 145.2361 356.2637 132 353 C109.5718 347.4698 106.861 348.3718 87 338 C63.8017 325.8854 60.5021 323.2686 42 306 C32.7572 297.3734 31.2657 294.4094 27 282 C15.5607 248.7221 15.7622 245.9626 9 210 C4.8959 188.1737 4.1122 165.5025 5 165 C7.0058 163.8647 33.5958 174.9379 62 180 C83.1983 183.7779 84.2534 180.5497 106 183 C119.5191 184.5233 133 188 133 188 "/>
<path id="4" d="M201 245 C201 245 192.3777 248.3298 184 249 C168.0379 250.277 167.2683 250.328 151 249 C118.6345 246.3579 103.1184 242.2775 86 241 C85.5365 240.9654 83.8482 243.7875 84 244 C88.954 250.9356 96.3495 262.1486 111 276 C123.0033 287.3486 124.9575 290.7575 139 296 C158.7915 303.3888 162.9912 302.1835 186 304 C199.9324 305.0999 202.8854 303.8356 215 302 C216.8416 301.721 219 299 219 299 "/>
</g>
</g>
</svg>
