<?xml version="1.0" encoding="utf-8"?>
<!DOCTYPE svg PUBLIC "-//W3C//DTD SVG 1.1//EN" "http://www.w3.org/Graphics/SVG/1.1/DTD/svg11.dtd">
<svg viewBox="0 0 800 800" preserveAspectRatio="xMinYMin meet" xmlns="http://www.w3.org/2000/svg" version="1.1">
<g fill="none" stroke="black" stroke-linecap="round" stroke-linejoin="round" stroke-width="1.5649">
<g transform="translate(87.52,151.7413) scale(1.9171) translate(-169,-160)">
<path id="0" d="M215 203 C215 203 200.0359 207.4595 186 213 C181.3251 214.8454 180.4941 214.917 177 218 C172.6171 221.8673 168.891 227.6183 169 228 C169.105 228.3675 175.1687 231.3862 181 232 C193.2062 233.2849 194.4367 233.4657 207 232 C223.8236 230.0373 241 225 241 225 "/>
<path id="1" d="M216 199 C216 199 218.8496 187.4982 224 179 C228.202 172.0667 229.6297 170.1736 236 166 C242.4988 161.7422 244.9294 161.2228 253 160 C260.142 158.9179 262.0508 159.3322 269 161 C273.3647 162.0475 275.6271 162.9292 278 166 C282.6014 171.9547 283.871 174.484 286 183 C289.5857 197.3427 289.8274 208.4753 290 214 C290.005 214.1609 287 215 287 215 "/>
<path id="2" d="M242 227 C242 227 239.515 269.2954 246 289 C248.4828 296.5438 256.7005 298.7809 268 306 C274.1321 309.9177 275.2003 311.1226 282 312 C304.2104 314.8659 306.6878 315.1512 330 314 C346.2044 313.1998 346.4604 309.7564 363 308 C402.6497 303.7894 415.7196 311.3461 443 302 C455.8398 297.6012 458.3817 287.0884 471 271 C478.0076 262.0653 477.9617 261.3057 483 251 C488.8218 239.0918 489.9667 238.3859 493 226 C495.7063 214.9494 495.1492 202.048 495 202 C494.3426 201.7887 480.289 210.6296 465 217 C450.5897 223.0043 449.6236 224.7843 435 227 C418.2953 229.531 416.4349 229.004 399 227 C373.7439 224.097 373.4702 220.0101 348 217 C319.0287 213.5761 289 214 289 214 "/>
<path id="3" d="M242 181 C242 181 240.0043 179.9849 240 180 C239.9193 180.2825 239.6712 187.1233 240 188 C240.0462 188.1233 242.8797 188.2105 243 188 C243.5312 187.0705 244.0001 181.0001 244 181 C243.9999 180.9999 242 187 242 187 "/>
<path id="4" d="M216 213 L215 213 "/>
<path id="5" d="M225 222 L226 220 "/>
<path id="6" d="M227 187 C227 187 228.0022 184.0011 228 184 C227.9911 183.9956 225.0049 185.9901 225 186 C224.9986 186.0028 226.9655 186.0862 227 186 C227.2155 185.4612 227 180.9999 227 181 C227 181.0001 226 188 226 188 "/>
<path id="7" d="M299 311 C299 311 297.1193 318.0794 297 325 C296.6261 346.6886 298 369 298 369 "/>
<path id="8" d="M310 318 L313 368 "/>
<path id="9" d="M363 309 C363 309 361.0853 309.5949 361 310 C359.8945 315.2513 359.1717 319.0722 359 328 C358.6766 344.8182 360 362 360 362 "/>
<path id="10" d="M374 309 L371 365 "/>
<path id="11" d="M297 374 C297 374 267.0646 405.7658 267 406 C266.9854 406.0527 280.5508 403.338 289 403 C290.1154 402.9554 291.5883 403.9708 292 405 C293.8268 409.5669 294.7744 417.8246 295 418 C295.0229 418.0178 297.7721 414.0174 301 412 C305.1383 409.4135 309.7461 407.4837 311 408 C312.7308 408.7127 316.3121 418.0355 318 419 C318.6715 419.3837 321.909 416.4755 325 416 C327.4218 415.6274 330.8792 417.1813 331 417 C331.4028 416.3958 332.1127 410.5605 331 407 C330.1585 404.3073 327.5431 404.2576 326 401 C318.9639 386.146 313 369 313 369 "/>
<path id="12" d="M360 364 C360 364 353.9975 369.6719 351 376 C345.4221 387.7756 342.0077 401.8379 342 402 C341.9984 402.033 346.4823 397.67 350 397 C355.0332 396.0413 361.0356 396.5267 363 398 C364.6072 399.2054 365.9474 409 366 409 C366.1403 409 370.6682 400.2906 374 398 C375.7127 396.8225 379.4219 396.8721 382 398 C385.565 399.5597 389.945 405.0079 390 405 C390.0011 404.9998 390.5267 400.2062 389 397 C381.2462 380.7171 370 363 370 363 "/>
<path id="13" d="M318 226 C318 226 298.5054 280.8129 299 284 C299.039 284.2515 323.9516 285.9307 327 284 C328.5278 283.0324 326.6113 273.6863 329 265 C331.8683 254.5697 338 244 338 244 "/>
<path id="14" d="M330 238 C330 238 323.527 247.8143 319 258 C315.6856 265.4574 314.486 271.2458 314 274 C313.9814 274.1056 316 275 316 275 "/>
<path id="15" d="M359 240 C359 240 350.1361 271.9746 344 286 C343.4601 287.2341 340.3115 288.2568 338 288 C333.0215 287.4468 326 284 326 284 "/>
</g>
</g>
</svg>
