<?xml version="1.0" encoding="utf-8"?>
<!DOCTYPE svg PUBLIC "-//W3C//DTD SVG 1.1//EN" "http://www.w3.org/Graphics/SVG/1.1/DTD/svg11.dtd">
<svg viewBox="0 0 800 800" preserveAspectRatio="xMinYMin meet" xmlns="http://www.w3.org/2000/svg" version="1.1">
<g fill="none" stroke="black" stroke-linecap="round" stroke-linejoin="round" stroke-width="1.4065">
<g transform="translate(87.52,173.9053) scale(2.133) translate(-149,-139)">
<path id="0" d="M191 160 C191 160 191.4993 149.2832 194 147 C198.5919 142.8074 204.3743 141.4064 214 139 C219.2504 137.6874 221.1729 137.4429 226 139 C234.9405 141.884 242.7798 144.7933 245 149 C247.8823 154.4611 248.5479 165.708 245 175 C239.9486 188.2297 233.3625 189.1491 224 204 C219.1139 211.7503 217.9668 212.887 216 221 C214.3385 227.8539 214.5205 231.5751 216 237 C216.7061 239.5892 219.7651 242.5937 222 243 C226.9283 243.8961 231.3368 243.9289 238 241 C274.201 225.0875 275.3065 221.0615 313 203 C323.0426 198.1879 323.4048 197.5988 334 195 C349.3313 191.2395 350.0956 191.1694 366 190 C383.6892 188.6993 384.2157 188.83 402 190 C421.9228 191.3107 441.9233 194.9847 442 195 C442.0086 195.0017 438.5534 195.4466 437 197 C428.7892 205.2108 426.466 206.2849 420 217 C409.5586 234.3028 412.2707 237.6682 402 255 C396.8725 263.6527 396.0179 266.2452 388 271 C356.3371 289.7768 351.9433 289.5084 316 306 C309.9446 308.7783 309.3268 309.5038 303 310 C284.942 311.4163 283.1986 312.3551 265 310 C241.8095 306.9989 240.2267 305.9459 218 299 C209.269 296.2716 207.6561 295.6161 201 290 C192.83 283.1066 191.7928 281.011 186 272 C183.5003 268.1115 183.5872 266.8934 183 262 C182.1498 254.915 181.1121 253.007 183 247 C185.9523 237.6062 190.3174 237.1813 194 227 C198.4799 214.6144 197.5865 213.2742 200 200 C200.5155 197.1647 200.7998 195.333 200 194 C198.987 192.3116 195.5914 192.3148 194 190 C190.9763 185.6019 190.1557 183.7785 189 178 C187.8443 172.2215 187.9525 170.7614 189 165 C189.7838 160.689 193.0053 155.9976 193 156 C192.986 156.0064 184.6518 167.3393 178 170 C171.5419 172.5832 165.0938 171.9569 158 170 C154.025 168.9035 149.0007 161.9991 149 162 C148.9841 162.0191 150.0314 170.8049 153 176 C155.1093 179.6913 157.3198 181.9485 161 183 C168.4656 185.133 172.3335 184.6667 181 184 C183.7104 183.7915 184.943 182.8285 187 181 C188.7669 179.4294 190 176 190 176 "/>
<path id="1" d="M210 162 C210 162 208 165.57 208 168 C208 170.43 209.3094 173.5683 210 174 C210.6456 174.4035 214.7981 174.0817 216 173 C217.9509 171.2442 218.7439 168.7683 220 165 C220.5383 163.385 220.4625 161.555 220 161 C219.287 160.1444 216.2324 158.7535 215 159 C213.4461 159.3108 210 163 210 163 "/>
<path id="2" d="M221 243 C221 243 242.5523 251.4946 263 256 C270.748 257.7072 271.9578 257.0377 280 256 C286.8672 255.1139 287.3471 254.6612 294 252 C309.6087 245.7565 310.4641 246.2058 325 238 C341.0124 228.9607 341.308 228.019 356 217 C360.9497 213.2877 362.2278 212.8514 365 208 C369.5084 200.1103 372 189 372 189 "/>
<path id="3" d="M337 298 C337 298 330.9387 313.0875 324 323 C321.8431 326.0813 316 327.9686 316 328 C316 328.0063 320.7595 327.6356 324 329 C329.367 331.2598 335 336 335 336 "/>
<path id="4" d="M292 312 C292 312 288.0192 318.4148 283 322 C274.8715 327.8061 263.9264 331.9312 264 332 C264.5169 332.4835 313.9741 350.9883 314 351 C314.0035 351.0016 306 351 306 351 "/>
</g>
</g>
</svg>
