<?xml version="1.0" encoding="utf-8"?>
<!DOCTYPE svg PUBLIC "-//W3C//DTD SVG 1.1//EN" "http://www.w3.org/Graphics/SVG/1.1/DTD/svg11.dtd">
<svg viewBox="0 0 800 800" preserveAspectRatio="xMinYMin meet" xmlns="http://www.w3.org/2000/svg" version="1.1">
<g fill="none" stroke="black" stroke-linecap="round" stroke-linejoin="round" stroke-width="1.2721">
<g transform="translate(160.6285,87.52) scale(2.3583) translate(-170,-82)">
<path id="0" d="M278 83 C278 83 273.4815 81.3207 270 82 C254.4965 85.0251 252.4068 84.8862 237 91 C221.6868 97.0767 220.8169 97.989 207 107 C198.4127 112.6004 196.6438 113.1715 191 121 C182.2002 133.2062 181.2149 135.3486 176 150 C171.1197 163.7113 171.2731 165.1468 170 180 C168.3311 199.4705 167.4798 201.0982 170 220 C172.2892 237.1692 174.1747 238.2523 180 255 C181.9813 260.6961 184.0804 260.4812 186 266 C187.8622 271.3538 188 272.1593 188 278 C188 292.6018 186 308 186 308 "/>
<path id="1" d="M249 85 C249 85 269.4851 81.2207 285 85 C305.0953 89.895 308.8691 93.1215 327 104 C334.2659 108.3596 335.0494 110.3974 340 118 C348.543 131.1197 348.6257 132.4808 355 147 C357.3854 152.4335 357.4592 153.0516 358 159 C359.414 174.5539 359 191 359 191 "/>
<path id="2" d="M267 230 C267 230 270.9695 227.3444 273 224 C279.0389 214.0536 277.613 210.7095 284 202 C287.413 197.3459 290.134 194.5762 295 194 C321.5219 190.8592 330.738 195.0042 360 193 C363.7209 192.7451 368 189 368 189 "/>
<path id="3" d="M271 233 C271 233 268.0876 234.8318 268 236 C266.9948 249.4028 264.3011 269.3011 268 273 C274.498 279.498 293.5414 281.7856 319 287 C334.4141 290.1571 351 290 351 290 "/>
<path id="4" d="M355 191 C355 191 359.878 205.1621 361 219 C362.8118 241.3454 364.6606 245.5704 361 265 C358.9748 275.7493 348 288 348 288 "/>
<path id="5" d="M361 190 C361 190 365.5637 195.3154 368 201 C371.3312 208.7729 372.3813 209.709 373 218 C374.7807 241.8616 375.1505 245.7778 373 268 C372.4589 273.5914 370.6345 275.0675 367 280 C364.146 283.8733 362.818 285.3031 359 287 C355.4111 288.5951 349 288 349 288 "/>
<path id="6" d="M267 234 C267 234 310.3398 234.8771 352 234 C356.9218 233.8964 362 232 362 232 "/>
<path id="7" d="M270 243 C270 243 314.1074 243.8665 357 243 C362.9361 242.8801 369 241 369 241 "/>
<path id="8" d="M322 195 L324 234 "/>
<path id="9" d="M321 247 C321 247 322.278 254.6102 321 261 C318.9553 271.2237 314 282 314 282 "/>
<path id="10" d="M329 195 C329 195 333.6709 206.3674 335 217 C336.0443 225.3542 334 235 334 235 "/>
<path id="11" d="M331 245 C331 245 333.0215 261.0047 331 274 C329.8088 281.6578 324 290 324 290 "/>
<path id="12" d="M300 198 C300 198 295.5767 209.9633 294 221 C293.2164 226.4853 295 233 295 233 "/>
<path id="13" d="M295 199 C295 199 292.0165 208.106 291 217 C290.0638 225.1918 291 234 291 234 "/>
<path id="14" d="M292 246 L301 281 "/>
<path id="15" d="M300 248 L303 282 "/>
<path id="16" d="M186 307 C186 307 219.896 314.8929 250 327 C264.5569 332.8544 265.5806 337.4022 278 344 C279.3415 344.7127 281.0855 344.6401 282 344 C284.4919 342.2557 286.9491 339.7324 288 337 C288.634 335.3515 288.2907 332.7209 287 331 C283.5104 326.3472 281.9254 325.014 276 321 C266.8484 314.8005 266.3366 313.7452 256 310 C232.6973 301.557 231.2227 301.5899 207 296 C199.4728 294.2629 191 295 191 295 "/>
<path id="17" d="M266 270 C266 270 264.9167 275.6669 266 280 C267.6791 286.7163 267.9302 288.2345 272 294 C279.2993 304.3407 286.3571 305.0952 290 314 C293.1951 321.8102 290 338 290 338 "/>
<path id="18" d="M265 212 C265 212 261.1894 211.6844 261 212 C260.1163 213.4728 258.6181 221.1598 259 222 C259.1757 222.3865 265.6451 223.3943 266 223 C266.8571 222.0477 268.2652 212.4419 268 212 C267.8972 211.8286 260 213 260 213 "/>
<path id="19" d="M264 206 C264 206 258.2492 205.0629 256 206 C254.2897 206.7126 252.6604 208.5785 252 211 C250.0977 217.9753 248.8276 224.7759 250 228 C250.6222 229.7111 255.849 232.3446 260 233 C263.3411 233.5275 269 231 269 231 "/>
<path id="20" d="M259 212 C259 212 267.0076 210.0649 270 211 C271.9249 211.6015 273.6712 214.3424 275 217 C275.6253 218.2506 275 221 275 221 "/>
<path id="21" d="M190 310 C190 310 225.4781 327.1649 261 343 C266.7123 345.5464 267.1699 345.7044 273 347 C275.714 347.6031 276.8992 347.7639 279 347 C281.26 346.1782 284 343 284 343 "/>
</g>
</g>
</svg>
