<?xml version="1.0" encoding="utf-8"?>
<!DOCTYPE svg PUBLIC "-//W3C//DTD SVG 1.1//EN" "http://www.w3.org/Graphics/SVG/1.1/DTD/svg11.dtd">
<svg viewBox="0 0 800 800" preserveAspectRatio="xMinYMin meet" xmlns="http://www.w3.org/2000/svg" version="1.1">
<g fill="none" stroke="black" stroke-linecap="round" stroke-linejoin="round" stroke-width="0.50931">
<g transform="translate(108.4305,87.52) scale(5.8903) translate(-241,-50.6333)">
<path id="0" d="M305 50.6333 C305 50.6333 286.7966 49.3452 272 52.6333 C261.726 54.9164 256.5179 56.5814 251 62.6333 C244.7304 69.5097 243.3585 75.0766 241 86.6333 C238.7357 97.7282 239.4275 108.0953 241 111.6333 C241.4613 112.6712 247.3194 113.9038 253 113.6333 C267.4059 112.9473 276.1007 107.8643 283 109.6333 C285.9978 110.402 288.4317 122.0338 292 123.6333 C296.5671 125.6806 304.2068 124.7832 312 122.6333 C316.2014 121.4743 318.2093 119.1851 321 115.6333 C322.6999 113.4698 321.8824 109.262 323 108.6333 C325.847 107.0319 335.0935 108.4276 337 106.6333 C338.9418 104.8058 339.479 99.4061 340 92.6333 C340.4365 86.9588 340.3509 86.2299 339 80.6333 C336.9642 72.1991 336.683 70.3854 333 63.6333 C331.4971 60.878 330.2312 60.3958 327 58.6333 C319.6624 54.631 318.1068 52.8586 311 51.6333 C305.7731 50.7322 298 53.6333 298 53.6333 "/>
<path id="1" d="M304 106.6333 C304 106.6333 302.0122 100.6272 302 100.6333 C301.8659 100.7004 295.9804 110.6162 296 110.6333 C296.0811 110.7043 309.8542 107.6996 310 107.6333 C310.0198 107.6243 307 105.6333 307 105.6333 "/>
<path id="2" d="M295 126.7333 L292 151.7333 "/>
<path id="3" d="M307 124.7333 C307 124.7333 306.2744 139.6032 304 151.7333 C303.541 154.1814 302.0179 156.2809 301 156.7333 C299.9171 157.2146 295 155.7333 295 155.7333 "/>
</g>
</g>
</svg>
