<?xml version="1.0" encoding="utf-8"?>
<!DOCTYPE svg PUBLIC "-//W3C//DTD SVG 1.1//EN" "http://www.w3.org/Graphics/SVG/1.1/DTD/svg11.dtd">
<svg viewBox="0 0 800 800" preserveAspectRatio="xMinYMin meet" xmlns="http://www.w3.org/2000/svg" version="1.1">
<g fill="none" stroke="black" stroke-linecap="round" stroke-linejoin="round" stroke-width="0.75845">
<g transform="translate(87.52,182.4506) scale(3.9554) translate(-145,-226)">
<path id="0" d="M147 292 C147 292 145.4571 271.1942 150 259 C153.1905 250.436 157.1767 246.8822 166 241 C179.0249 232.3167 182.5386 229.7285 198 227 C221.8518 222.7909 233.4758 224.2179 251 226 C253.2235 226.2261 255.3293 229.9371 257 233 C257.6505 234.1927 256.6234 236.5293 257 237 C257.3954 237.4942 260.659 237.3749 261 238 C262.1886 240.1791 262.841 243.0701 263 248 C263.8216 273.471 263 300 263 300 "/>
<path id="1" d="M263 299 C263 299 258.9266 294.3089 255 293 C248.4556 290.8185 246.9696 291.2174 239 291 C192.3242 289.727 145 290 145 290 "/>
<path id="2" d="M263 295 C263 295 283.1086 293.9993 290 296 C291.5966 296.4635 292.3056 302.9573 294 304 C295.709 305.0517 303.001 304.014 303 304 C302.9771 303.6791 298.2103 293.9078 293 290 C288.6792 286.7594 285.2628 288.9227 279 286 C270.8425 282.1932 263 276 263 276 "/>
<path id="3" d="M182 294 C182 294 181.8038 321.2308 184 323 C186.9443 325.3718 205.6026 325.5358 218 323 C222.3175 322.1169 226.8374 317.8364 228 314 C230.3193 306.3465 228 290 228 290 "/>
<path id="4" d="M200 320 C200 320 199.0663 334.6419 200 336 C200.4413 336.6419 206.7163 336.8567 211 336 C212.7913 335.6417 214.7521 334.1773 215 333 C216.0321 328.0973 215.9337 318.3581 215 317 C214.5587 316.3581 206.6308 316.1905 204 317 C203.2273 317.2377 202 321 202 321 "/>
</g>
</g>
</svg>
