<?xml version="1.0" encoding="utf-8"?>
<!DOCTYPE svg PUBLIC "-//W3C//DTD SVG 1.1//EN" "http://www.w3.org/Graphics/SVG/1.1/DTD/svg11.dtd">
<svg viewBox="0 0 800 800" preserveAspectRatio="xMinYMin meet" xmlns="http://www.w3.org/2000/svg" version="1.1">
<g fill="none" stroke="black" stroke-linecap="round" stroke-linejoin="round" stroke-width="1.0657">
<g transform="translate(98.7805,87.52) scale(2.8151) translate(-213,-87)">
<path id="0" d="M229 290 C229 290 227.7598 249.8027 231 212 C232.144 198.653 233.8403 197.4792 238 185 C239.0399 181.8802 239.5571 181.3367 242 179 C250.6046 170.7696 250.7275 168.0785 261 163 C293.0055 147.177 296.1414 148.4071 331 135 C334.7846 133.5444 335.7214 133 339 133 C341.0491 133 344 135 344 135 "/>
<path id="1" d="M340 131 C340 131 360.519 132.5353 375 139 C385.7333 143.7917 386.9258 146.9258 396 156 C400.7759 160.7759 401.2373 162.1676 404 168 C405.3077 170.7607 405 175 405 175 "/>
<path id="2" d="M231 291 C231 291 259.0454 280.4156 285 273 C288.9496 271.8715 290.3099 274.23 294 273 C305.3436 269.2188 305.7274 266.6022 318 262 C353.5087 248.6843 354.7581 250.5828 390 237 C402.3574 232.2373 410.7657 230.4734 414 225 C418.099 218.0632 418.2818 205.6768 416 193 C414.5591 184.9949 408.747 183.1752 405 175 C404.0243 172.8712 405 169 405 169 "/>
<path id="3" d="M234 195 C234 195 232.3917 159.9595 234 129 C234.2731 123.7426 235.2809 122.8107 238 118 C241.5036 111.8013 241.9232 110.6153 247 106 C252.1695 101.3004 253.3046 101.1086 260 98 C266.9386 94.7785 267.4603 95.3561 275 93 C283.4501 90.3593 283.5505 89.4911 292 88 C300.116 86.5678 300.5075 87.2123 309 87 C320.473 86.7132 321.0781 85.6681 332 87 C340.8371 88.0777 342.3073 88.0598 350 92 C361.6714 97.978 363.254 99.6463 373 108 C376.1475 110.6979 376.8939 112.0496 378 116 C380.0663 123.3797 377.5504 125.6512 380 133 C382.6345 140.9034 389 149 389 149 "/>
<path id="4" d="M232 203 C232 203 259.0437 206.1964 282 203 C296.0179 201.0481 298.3536 199.26 311 192 C324.0642 184.5002 335.6445 171.9289 336 172 C336.0846 172.0169 339.3817 187.4991 336 197 C330.3899 212.7618 326.9099 215.9141 315 231 C305.1226 243.5114 303.7872 244.1637 291 254 C278.4015 263.6911 277.2812 264.2794 263 271 C252.5691 275.9087 251.5319 275.6936 240 278 C226.9557 280.6089 213 281 213 281 "/>
<path id="5" d="M232 288 L232 277 "/>
<path id="6" d="M230 289 C230 289 232.8067 305.5906 234 309 C234.0586 309.1673 235.6123 309.3142 237 309 C261.3856 303.4787 262.7076 304.7621 287 297 C346.7538 277.9071 347.1337 276.3216 406 255 C410.1443 253.4989 410.7774 253.6087 414 251 C420.7455 245.5393 425.4791 243.2539 427 238 C429.2156 230.346 428.2227 219.8482 425 213 C423.0635 208.8849 417.2714 207.1357 411 204 C409.644 203.322 407 204 407 204 "/>
</g>
</g>
</svg>
