<?xml version="1.0" encoding="utf-8"?>
<!DOCTYPE svg PUBLIC "-//W3C//DTD SVG 1.1//EN" "http://www.w3.org/Graphics/SVG/1.1/DTD/svg11.dtd">
<svg viewBox="0 0 800 800" preserveAspectRatio="xMinYMin meet" xmlns="http://www.w3.org/2000/svg" version="1.1">
<g fill="none" stroke="black" stroke-linecap="round" stroke-linejoin="round" stroke-width="1.3441">
<g transform="translate(87.52,94.216) scale(2.232) translate(-205,-88)">
<path id="0" d="M405 126 C405 126 401.6957 119.3853 397 116 C381.52 104.84 379.7275 103.006 362 95 C349.9803 89.5717 348.2814 89.4086 335 88 C316.3291 86.0198 314.2465 85.549 296 88 C282.3343 89.8357 281.1258 91.6151 268 97 C262.2548 99.357 262.3443 100.3001 257 104 C249.3726 109.2805 248.8404 108.9196 242 115 C231.0491 124.7341 226.9094 124.8566 221 136 C211.36 154.1783 210.9584 158.7339 207 181 C203.2194 202.2658 204.355 204.0704 205 226 C205.3318 237.2805 205.0725 238.9008 209 249 C215.0156 264.4686 215.8368 266.5228 226 280 C238.03 295.9528 239.84 295.9425 255 310 C267.1329 321.2505 267.8727 322.8736 281 331 C287.4274 334.9789 297 336 297 336 "/>
<path id="1" d="M397 135 C397 135 407.4314 132.1129 416 128 C419.219 126.4549 420.0005 123.8887 422 123 C422.6215 122.7238 424.5041 123.2251 425 124 C430.4892 132.5768 432.9093 136.1216 438 148 C440.0412 152.7628 440.7128 158.2872 440 159 C438.02 160.98 428.9169 161.1999 421 165 C417.7869 166.5423 415.0643 171 415 171 C415 171 415.8385 167.5154 415 165 C409.7829 149.3488 402 132 402 132 "/>
<path id="2" d="M412 153 C412 153 399.8633 151.0304 391 153 C383.9187 154.5736 383.761 158.3322 376 161 C352.4711 169.0881 347.6967 166.7927 327 175 C322.2314 176.891 321.5434 179.1911 318 184 C314.898 188.2098 314.4759 188.9164 313 194 C310.1439 203.8377 309.599 204.5775 309 215 C307.1362 247.43 307.1845 251.6416 308 281 C308.0752 283.7072 310.9485 286.9614 311 287 C311.0086 287.0064 312 284 312 284 "/>
<path id="3" d="M307 257 C307 257 305.2837 249.3901 303 248 C297.6889 244.7671 289.1507 242.4277 284 243 C281.5177 243.2758 277.8554 247.5211 276 251 C274.9412 252.9852 275.0345 255.4252 276 258 C277.5518 262.138 278.6161 263.0955 282 267 C284.8756 270.3179 285.7612 272.0931 289 273 C295.8209 274.9099 305.5703 275.0535 307 274 C307.9982 273.2645 309.1859 264.4551 308 259 C307.2536 255.5665 302 251 302 251 "/>
<path id="4" d="M310 259 C310 259 318.438 271.2428 328 282 C334.2384 289.0182 335.1958 292.0576 342 295 C350.4256 298.6435 353.5484 297.3129 365 298 C378.3388 298.8003 379.2182 299.2782 392 298 C398.3436 297.3656 398.6233 296.2774 405 294 C412.5763 291.2942 413.1714 291.902 420 288 C440.6975 276.1729 455.8831 261.6645 461 262 C463.8605 262.1876 474.8217 278.4077 481 292 C483.2127 296.8679 482.945 300.9755 481 306 C477.9929 313.7683 475.8614 316.9962 469 323 C461.4365 329.6181 459.2186 330.533 449 334 C432.3303 339.6558 430.8982 339.5218 413 342 C398.9456 343.946 397.2705 343.3903 384 343 C381.6827 342.9318 380.4626 342.5396 379 341 C372.2179 333.8609 371.1692 332.3772 365 323 C358.8248 313.6137 358.5681 313.3429 354 303 C332.2145 253.6743 312 203 312 203 "/>
<path id="5" d="M310 286 C310 286 301.9417 297.7667 302 298 C302.016 298.0642 309.4697 296.487 313 298 C317.4473 299.906 317.7422 304.0557 323 307 C329.2226 310.4847 330.4099 310.3302 338 312 C355.1226 315.767 355.6249 316.5521 373 318 C391.1092 319.5091 392.0077 319.4748 410 318 C421.87 317.0271 422.71 316.4497 434 313 C440.118 311.1306 440.7431 310.6993 446 307 C453.8253 301.4933 454.8677 301.1135 461 294 C466.8224 287.246 471 278 471 278 "/>
<path id="6" d="M300 337 C300 337 304.9793 337.6081 306 339 C308.6581 342.6247 307.6397 346.9596 311 352 C313.8802 356.3203 315.9288 359.1149 320 360 C334.1917 363.0851 340.2482 362.7128 357 362 C361.6152 361.8036 363.127 360.582 367 358 C369.7519 356.1654 371.2617 354.8478 372 352 C374.1774 343.6013 374 331 374 331 "/>
<path id="7" d="M368 297 C368 297 356.6422 288.2094 351 281 C349.5016 279.0853 351.2744 276.3668 350 274 C348.4394 271.1018 345.7517 271.0654 344 268 C342.3014 265.0275 343.7418 263.3252 342 260 C338.5898 253.4896 335.9211 253.7549 333 247 C328.3263 236.1921 327.471 234.1797 326 223 C325.1892 216.8376 325.3543 213.7953 328 209 C331.9806 201.7852 334.3701 200.3582 342 194 C351.9332 185.7223 352.6796 183.3284 364 179 C384.492 171.1648 390.3142 174.8005 410 168 C414.6501 166.3936 419 160 419 160 "/>
<path id="8" d="M408 167 C408 167 406.4071 177.6197 408 187 C410.75 203.1942 410.8851 204.373 417 220 C428.6475 249.7658 429.7241 250.4481 444 279 C447.4459 285.8918 447.9922 286.4358 453 292 C456.5837 295.9819 457.4795 297.4461 462 299 C471.6603 302.3207 485 303 485 303 "/>
<path id="9" d="M248 135 L249 151 "/>
<path id="10" d="M274 134 C274 134 263.1393 133.1237 262 134 C261.1748 134.6348 260.6173 143.7608 261 144 C262.2391 144.7744 276.4213 143.0713 278 144 C278.5463 144.3213 278.7629 153.5947 278 154 C272.8707 156.725 246 161 246 161 "/>
<path id="11" d="M282 133 L285 149 "/>
</g>
</g>
</svg>
