<?xml version="1.0" encoding="utf-8"?>
<!DOCTYPE svg PUBLIC "-//W3C//DTD SVG 1.1//EN" "http://www.w3.org/Graphics/SVG/1.1/DTD/svg11.dtd">
<svg viewBox="0 0 800 800" preserveAspectRatio="xMinYMin meet" xmlns="http://www.w3.org/2000/svg" version="1.1">
<g fill="none" stroke="black" stroke-linecap="round" stroke-linejoin="round" stroke-width="2.2177">
<g transform="translate(87.52,203.8545) scale(1.3527) translate(-97,-168.1333)">
<path id="0" d="M187 186.1333 C187 186.1333 182.7328 196.8516 177 206.1333 C172.4459 213.5066 169.5135 213.1063 166 220.1333 C163.2072 225.7189 165.1845 227.8918 163 234.1333 C161.9259 237.2022 159.3111 237.5412 159 240.1333 C158.0937 247.6858 160 259.1333 160 259.1333 "/>
<path id="1" d="M165 227.1333 C165 227.1333 168.3211 228.5817 169 230.1333 C171.0455 234.8087 171.4387 236.6787 172 243.1333 C173.4004 259.2382 173.1795 275.7579 173 276.1333 C172.9765 276.1825 165.5657 271.3078 161 266.1333 C158.8606 263.7087 158 259.1333 158 259.1333 "/>
<path id="2" d="M179 247.1333 L180 244.1333 "/>
<path id="3" d="M190 186.1333 C190 186.1333 193.1126 181.5462 197 179.1333 C206.878 173.0021 219 168.1333 219 168.1333 C219 168.1333 212.2226 170.1699 210 173.1333 C206.3114 178.0514 204.8618 180.8692 204 188.1333 C201.58 208.5307 203 232.1333 203 232.1333 C203 232.1333 203.0576 230.1444 203 230.1333 C199.0198 229.3679 187.2749 226.2771 177 227.1333 C172.8102 227.4825 167 233.1333 167 233.1333 "/>
<path id="4" d="M175 275.1333 C175 275.1333 175.6911 277.1039 176 277.1333 C181.189 277.6275 193.1896 279.0444 196 277.1333 C198.327 275.551 199.8255 268.5505 201 260.1333 C202.7347 247.7012 202.0014 234.1306 202 234.1333 C201.9963 234.1409 193.1209 265.8778 183 297.1333 C176.1422 318.3119 175.2792 320.2931 168 339.1333 C167.5777 340.2263 166.0043 341.1419 166 341.1333 C165.9743 341.0819 166 335.1333 166 335.1333 "/>
<path id="5" d="M211 239.1333 C211 239.1333 201.1379 266.5129 194 294.1333 C189.7276 310.6658 192.459 312.0808 188 328.1333 C185.1871 338.2599 181.3371 338.2005 179 348.1333 C175.6497 362.3721 179.0473 364.4511 176 379.1333 C173.72 390.1188 168 401.1333 168 401.1333 "/>
<path id="6" d="M169 336.1333 C169 336.1333 158.5644 355.4401 152 375.1333 C146.8073 390.7116 143.9993 406.4822 145 408.1333 C145.5694 409.0729 169.3999 410.2134 172 408.1333 C174.1379 406.423 175 384.1333 175 384.1333 "/>
<path id="7" d="M170 330.1333 C170 330.1333 165.2141 327.2313 161 327.1333 C145.2243 326.7665 139.488 324.7394 127 329.1333 C117.6507 332.4229 112.9423 339.5968 107 346.1333 C106.1555 347.0623 106.6926 350.8772 107 351.1333 C107.4426 351.5022 110.3293 351.8403 113 351.1333 C126.5236 347.5536 127.5094 344.1697 141 342.1333 C152.4185 340.4098 166 343.1333 166 343.1333 "/>
<path id="8" d="M190 332.1333 C190 332.1333 208.3627 342.6799 219 355.1333 C226.8492 364.3227 226.1902 367.9239 231 380.1333 C232.3581 383.5808 232.0151 388.1473 232 388.1333 C231.8951 388.0362 218.1005 367.9222 204 355.1333 C199.0244 350.6205 196.4919 350.9496 189 349.1333 C180.5836 347.093 171 347.1333 171 347.1333 "/>
<path id="9" d="M227 238.1333 C227 238.1333 222.8756 235.9084 219 235.1333 C215.8455 234.5024 214.6387 234.4137 212 235.1333 C210.1837 235.6287 209.1964 236.3387 208 238.1333 C202.7921 245.9452 200.6406 247.6834 198 256.1333 C196.25 261.7333 197.1216 263.6917 198 270.1333 C198.5276 274.0025 198.852 274.8288 201 278.1333 C204.9937 284.2775 205.4506 284.9666 211 290.1333 C219.6404 298.1779 220.2421 300.0104 230 305.1333 C238.7685 309.7368 240.5856 309.4765 251 311.1333 C261.9858 312.8811 274 312.1333 274 312.1333 "/>
<path id="10" d="M218 233.1333 C218 233.1333 215.9787 235.1284 216 235.1333 C216.2108 235.182 224.596 234.0564 231 236.1333 C241.6846 239.5986 242.8984 240.7534 253 247.1333 C261.4486 252.4693 260.5799 254.4547 269 260.1333 C281.8475 268.7979 284.6174 266.9189 296 276.1333 C304.425 282.9536 309.8276 290.03 311 294.1333 C311.4209 295.6063 307.5915 302.1994 304 304.1333 C297.8654 307.4366 293.4635 304.7925 285 308.1333 C275.4001 311.9228 266 319.1333 266 319.1333 "/>
<path id="11" d="M306 303.1333 C306 303.1333 312.2132 304.7547 315 303.1333 C335.0086 291.492 340.0837 276.9748 361 271.1333 C385.6413 264.2515 398.8814 275.1465 426 272.1333 C433.1511 271.3388 435.8655 267.2992 442 262.1333 C444.0228 260.4299 443.068 258.0653 445 256.1333 C447.7907 253.3427 449.2391 253.7659 453 251.1333 C454.1119 250.355 455.0043 249.1419 455 249.1333 C454.9936 249.1205 451.9999 249.1334 452 249.1333 C452.0002 249.1332 455.768 249.0133 457 248.1333 C458.0472 247.3853 458.9984 244.1236 459 244.1333 C459.0151 244.2268 459.6652 262.4008 462 279.1333 C462.5549 283.1105 464.5869 283.2776 465 287.1333 C465.9929 296.4004 465.4186 307.058 465 307.1333 C453.4135 309.2189 406.7087 301.6284 365 305.1333 C356.6407 305.8358 354.8237 314.7803 346 317.1333 C335.6659 319.8891 331.3976 319.2538 320 317.1333 C311.8953 315.6255 303 309.1333 303 309.1333 "/>
<path id="12" d="M462 269.1333 C462 269.1333 462.3757 239.794 466 226.1333 C466.6899 223.5328 473.9302 220.2225 475 220.1333 C475.2909 220.1091 478.0909 223.1641 478 225.1333 C476.8731 249.5489 470.3019 282.9683 472 285.1333 C472.8316 286.1936 495.232 279.0194 518 276.1333 C530.0745 274.6028 531.5289 274.4546 543 276.1333 C550.7444 277.2667 557.9664 280.7552 559 282.1333 C559.4019 282.6693 557.6265 290.1634 555 292.1333 C549.0617 296.587 544.9441 297.7079 535 300.1333 C525.2658 302.5075 524.3921 302.1333 514 302.1333 C493.7107 302.1333 487.3009 299.8083 473 300.1333 C471.9286 300.1577 470 303.1333 470 303.1333 "/>
<path id="13" d="M491 289.1333 C491 289.1333 499.1176 286.0888 507 285.1333 C515.1287 284.148 522.8525 284.8465 524 285.1333 C524 285.1333 523.8208 288.4152 523 289.1333 C521.2445 290.6694 519.1571 292.0431 516 292.1333 C503.5499 292.489 488 290.1333 488 290.1333 "/>
<path id="14" d="M233 306.1333 C233 306.1333 239.8568 319.4725 241 331.1333 C242.1397 342.7587 237.4083 351.4135 238 357.1333 C238.0834 357.9395 241.4137 359.7023 244 360.1333 C246.321 360.5202 249.9999 359.1333 250 359.1333 C250.0001 359.1333 246.9934 360.1224 247 360.1333 C247.0625 360.2374 251.987 362.4449 253 364.1333 C253.7998 365.4663 253.7496 369.3838 253 370.1333 C251.0012 372.1322 247.5201 373.5877 242 375.1333 C235.5183 376.9482 231.7651 375.3615 228 377.1333 C226.5325 377.8239 224.9831 383.1232 225 383.1333 C225.3651 383.3524 237.8651 383.1579 238 383.1333 C238.017 383.1302 235.9805 381.1337 236 381.1333 C236.6141 381.1231 296.7191 382.4234 298 382.1333 C298.1256 382.1049 292.6053 375.9198 289 369.1333 C284.2858 360.2596 285.3545 354.1395 281 350.1333 C277.4658 346.8819 269.106 349.2413 264 346.1333 C260.8244 344.2004 259.4047 339.7855 258 336.1333 C257.7015 335.3572 258.3957 333.4355 259 333.1333 C262.0214 331.6226 264.6089 330.5826 270 330.1333 C281.9802 329.135 282.6403 329.5153 295 330.1333 C302.4653 330.5066 309.6984 331.6642 310 332.1333 C310.2109 332.4614 304.9601 338.3725 304 344.1333 C301.772 357.5015 305.7861 366.2035 303 374.1333 C301.9704 377.0637 290.9913 381.0288 291 381.1333 C291.0088 381.2393 297.7249 385.2853 304 386.1333 C315.0124 387.6215 327.9161 386.1413 328 386.1333 C328.0098 386.1324 325 384.1333 325 384.1333 "/>
<path id="15" d="M310 371.1333 L499 371.1333 "/>
<path id="16" d="M502 374.1333 C502 374.1333 500.0317 375.4048 500 376.1333 C499.6819 383.4486 501.4337 394.8563 501 397.1333 C500.9802 397.2375 497.7088 396.4498 496 397.1333 C493.7444 398.0356 493.26 400.3115 491 401.1333 C488.8992 401.8973 486.9981 401.9659 485 401.1333 C482.3082 400.0117 482.1171 397.6002 479 396.1333 C474.3682 393.9537 473.3339 393.2366 468 393.1333 C398.5407 391.789 379.3902 397.3402 324 393.1333 C318.2643 392.6977 315.8116 387.2868 310 381.1333 C307.9647 378.9783 307 375.1333 307 375.1333 "/>
<path id="17" d="M367 311.1333 C367 311.1333 363.256 311.0053 361 312.1333 C358.0498 313.6084 357.0982 314.2483 355 317.1333 C349.5609 324.6121 348.7243 325.4434 345 334.1333 C341.4757 342.3567 341.5756 343.3097 340 352.1333 C339.166 356.8037 340.7109 359.2897 340 362.1333 C339.8045 362.9153 338.1422 364.1333 337 364.1333 C331.6697 364.1333 324.073 363.564 323 362.1333 C321.3905 359.9873 320.1032 351.3755 322 344.1333 C324.9024 333.0513 327.3054 331.1794 334 320.1333 C336.9645 315.2418 342 311.1333 342 311.1333 "/>
<path id="18" d="M450 307.1333 C450 307.1333 461.8349 315.5662 472 325.1333 C478.572 331.3187 478.3721 332.0046 484 339.1333 C485.7666 341.371 486.8533 343.1066 487 344.1333 C487.0463 344.4575 484.9324 345.6263 485 346.1333 C486.1232 354.5574 490.9996 374.1316 491 374.1333 C491.0001 374.1336 490.3028 370.1792 491 369.1333 C492.1156 367.46 494.9608 367.3992 497 365.1333 C498.8874 363.0362 499.5963 361.9596 500 359.1333 C500.9421 352.5388 502.1184 349.9589 500 344.1333 C495.0828 330.611 493.164 328.0202 484 315.1333 C477.7864 306.3955 475.8173 305.5293 468 299.1333 C465.948 297.4544 462 297.1333 462 297.1333 "/>
<path id="19" d="M335 345.1333 C335 345.1333 339.6596 345.5821 342 344.1333 C348.5822 340.0586 348.7694 336.0985 356 332.1333 C362.9359 328.3298 364.5655 328.4651 373 327.1333 C383.0316 325.5494 394 326.1333 394 326.1333 "/>
<path id="20" d="M396 307.1333 C396 307.1333 397.9965 306.1269 398 306.1333 C398.5493 307.1405 401.2423 312.2234 402 318.1333 C403.6427 330.9462 401.5979 332.1637 403 345.1333 C403.534 350.0729 404.8706 354.7267 406 355.1333 C409.7032 356.4665 426.7339 355.6872 428 354.1333 C429.7393 351.9987 429.8265 340.1358 428 328.1333 C426.5202 318.4089 420.6562 308.6359 421 308.1333 C421.2867 307.7143 441 309.1333 441 309.1333 "/>
<path id="21" d="M430 330.1333 L471 330.1333 "/>
<path id="22" d="M389 327.1333 L404 328.1333 "/>
<path id="23" d="M473 329.1333 C473 329.1333 478.2229 329.146 480 330.1333 C480.9931 330.6851 482 334.1333 482 334.1333 "/>
<path id="24" d="M119 350.1333 C119 350.1333 109.7122 354.565 106 360.1333 C100.2328 368.7841 99.2235 372.016 97 383.1333 C95.0276 392.9955 95.9546 395.376 97 405.1333 C97.3004 407.937 99.4688 408.2119 100 411.1333 C101.3132 418.3557 98.5144 421.6294 101 427.1333 C104.1533 434.1157 106.7111 437.522 114 442.1333 C128.9482 451.5903 132.7494 454.0744 150 458.1333 C163.8821 461.3997 168.5224 460.9844 182 458.1333 C191.4036 456.1441 192.8484 453.3328 202 447.1333 C207.9254 443.1193 209.8991 442.6304 213 437.1333 C219.7366 425.1911 221.2899 422.1766 224 408.1333 C226.4382 395.4991 225.5752 390.8448 224 380.1333 C223.6211 377.5567 219 374.1333 219 374.1333 "/>
<path id="25" d="M140 364.1333 C140 364.1333 130.9003 363.6474 128 366.1333 C120.6285 372.4518 114.6275 378.5617 112 388.1333 C109.1675 398.4517 111.1858 408.9252 114 417.1333 C114.8938 419.7404 124.0001 423.1329 124 423.1333 C124 423.1334 112.9989 420.1325 113 420.1333 C113.0041 420.1363 130.5275 435.3154 146 439.1333 C164.0637 443.5906 169.8127 440.3208 190 439.1333 C193.2926 438.9397 195.4422 438.2363 197 436.1333 C203.4002 427.4931 207.0563 423.4553 210 412.1333 C212.7954 401.382 213.504 394.8932 210 386.1333 C205.6874 375.3519 198.1117 368.4134 190 362.1333 C187.6872 360.3428 179 362.1333 179 362.1333 "/>
<path id="26" d="M141 365.1333 C141 365.1333 142.2608 361.3181 143 361.1333 C146.4496 360.2709 157 361.1333 157 361.1333 "/>
<path id="27" d="M120 380.1333 L142 399.1333 "/>
<path id="28" d="M122 424.1333 C122 424.1333 122.4679 420.9073 124 419.1333 C131.2153 410.7788 134.3489 407.7868 141 402.1333 C141.6344 401.5941 143.907 401.9207 144 402.1333 C145.2579 405.0085 145.1278 410.8222 148 418.1333 C150.411 424.2705 152.9664 424.2868 155 430.1333 C156.5987 434.7296 156 441.1333 156 441.1333 "/>
<path id="29" d="M161 409.1333 C161 409.1333 165.9269 410.7147 168 413.1333 C170.9615 416.5885 169.6645 419.7979 173 423.1333 C179.8933 430.0267 182.4236 431.1304 191 436.1333 C193.207 437.4207 197 437.1333 197 437.1333 "/>
<path id="30" d="M174 400.1333 L218 400.1333 "/>
<path id="31" d="M184 392.1333 L203 374.1333 "/>
<path id="32" d="M140 366.1333 L159 388.1333 "/>
<path id="33" d="M365 339.1333 C365 339.1333 353.4421 342.9608 352 346.1333 C348.994 352.7466 350 372.1333 350 372.1333 "/>
<path id="34" d="M367 396.1333 C367 396.1333 365.9731 401.6836 367 406.1333 C368.7852 413.869 368.7069 416.4743 373 422.1333 C378.2511 429.0552 380.602 429.9463 389 435.1333 C397.0177 440.0854 398.5316 441.971 407 443.1333 C421.5718 445.1334 424.2018 444.0291 440 442.1333 C448.3952 441.1259 450.2721 441.0909 457 437.1333 C465.7125 432.0083 467.7194 430.0524 474 422.1333 C478.1364 416.9179 478.3209 414.8496 480 408.1333 C481.0833 403.8003 480 398.1333 480 398.1333 "/>
<path id="35" d="M389 396.1333 C389 396.1333 389.6172 402.0485 392 406.1333 C396.1404 413.2311 398.2127 418.4236 403 420.1333 C412.3823 423.4841 421.3325 423.5085 434 421.1333 C441.7598 419.6784 446.2352 416.8511 451 411.1333 C456.2577 404.8241 459 391.1333 459 391.1333 "/>
<path id="36" d="M388 373.1333 C388 373.1333 389.3508 363.5 389 356.1333 C388.9153 354.3537 386.7338 352.9985 387 352.1333 C387.853 349.361 389.7278 346.4055 393 343.1333 C394.9633 341.17 396.2247 340.3364 399 340.1333 C414.6176 338.9906 434 340.1333 434 340.1333 C434 340.1333 429 340.1333 429 340.1333 C429 340.1333 432.015 339.4514 433 340.1333 C436.7506 342.7299 439.4148 344.668 442 349.1333 C444.0299 352.6395 442.154 355.4413 444 359.1333 C445.5104 362.1541 448.58 362.53 450 365.1333 C450.7657 366.5371 450 370.1333 450 370.1333 "/>
<path id="37" d="M482 374.1333 C482 374.1333 483.1146 365.2848 481 359.1333 C478.1834 350.9397 476.7039 349.2632 471 342.1333 C467.3495 337.5702 466.1877 336.84 461 334.1333 C455.4781 331.2523 448 330.1333 448 330.1333 "/>
<path id="38" d="M433 354.1333 C433 354.1333 428.1987 362.8949 423 369.1333 C421.4033 371.0494 418 372.1333 418 372.1333 "/>
<path id="39" d="M390 352.1333 C390 352.1333 401.2263 358.7856 408 364.1333 C408.8305 364.789 408.3109 366.6739 409 367.1333 C411.297 368.6647 417 370.1333 417 370.1333 "/>
<path id="40" d="M413 397.1333 L396 415.1333 "/>
<path id="41" d="M417 394.1333 C417 394.1333 415.8257 403.1479 417 411.1333 C418.2251 419.4641 422 428.1333 422 428.1333 "/>
<path id="42" d="M420 398.1333 L462 413.1333 "/>
</g>
</g>
</svg>
