<?xml version="1.0" encoding="utf-8"?>
<!DOCTYPE svg PUBLIC "-//W3C//DTD SVG 1.1//EN" "http://www.w3.org/Graphics/SVG/1.1/DTD/svg11.dtd">
<svg viewBox="0 0 800 800" preserveAspectRatio="xMinYMin meet" xmlns="http://www.w3.org/2000/svg" version="1.1">
<g fill="none" stroke="black" stroke-linecap="round" stroke-linejoin="round" stroke-width="1.8241">
<g transform="translate(87.52,264.3179) scale(1.6446) translate(-132,-146)">
<path id="0" d="M234 232 C234 232 235.09 226.1801 234 224 C232.7056 221.4111 230.8082 220.1421 227 218 C215.3459 211.4446 213.9165 208.6981 202 206 C189.9619 203.2744 187.0119 204.451 174 206 C167.2175 206.8074 164.9125 207.1621 160 211 C150.7751 218.207 149.2123 220.4391 142 231 C135.7845 240.1012 133.7703 242.165 132 252 C129.7623 264.4318 131.0034 268.0223 133 281 C133.7375 285.7939 134.7947 286.9044 138 291 C143.3388 297.8218 144.1022 299.8195 151 304 C159.0091 308.854 161.2768 309.5519 171 311 C183.476 312.8581 186.1754 313.4132 198 311 C208.5286 308.8513 210.3037 307.124 220 301 C228.5068 295.6273 230.3245 294.5674 236 287 C241.239 280.0147 242.7503 277.592 244 269 C246.4129 252.4111 246.3227 245.0653 244 232 C243.4085 228.6729 240.2968 226.4062 236 224 C228.9902 220.0745 219 218 219 218 "/>
<path id="1" d="M185 260 C185 260 198.6149 244.9391 210 229 C215.859 220.7974 217.19 219.4299 220 211 C221.5806 206.2582 221.5116 202.1912 220 199 C218.5812 196.0048 211 192 211 192 "/>
<path id="2" d="M145 207 C145 207 153.849 200.2895 163 196 C169.2736 193.0593 170.1457 192.6528 177 192 C190.3455 190.729 191.6808 190.4017 205 192 C215.8076 193.2969 216.2213 194.6549 227 198 C230.5825 199.1118 231.3593 198.7994 234 201 C248.3154 212.9295 251.1065 214.1242 263 228 C267.8164 233.6191 267.7393 235.8948 270 243 C270.9186 245.8871 270 250 270 250 "/>
<path id="3" d="M172 167 C172 167 173.7808 164.1663 175 164 C181.7949 163.0734 185.7225 162.5729 194 164 C198.7321 164.8159 200.2427 166.0478 204 169 C206.3507 170.847 207.1473 172.2287 208 175 C208.8255 177.6829 208.6949 181.3683 208 182 C206.5011 183.3626 202.3987 184.4601 197 185 C187.9226 185.9077 179.7788 186.0298 178 185 C177.4038 184.6548 179.1638 177.9568 178 174 C177.2096 171.3128 175.1452 168.8581 173 168 C170.1011 166.8404 165.8436 167.2891 163 168 C162.218 168.1955 161.2086 169.6443 161 171 C160.3695 175.0985 159.785 178.7219 161 181 C162.1259 183.1111 165.1186 185.1235 169 186 C178.9711 188.2515 192 188 192 188 "/>
<path id="4" d="M208 185 C208 185 211.2848 173.3734 216 163 C218.6084 157.2615 219.2317 156.3963 223 152 C224.615 150.1159 225.4114 150.1947 228 149 C231.8049 147.2439 232.1853 146.2081 236 146 C257.9622 144.8021 275.5052 144.907 283 146 C283.3223 146.047 283.562 151.9779 284 153 C284.0505 153.1179 285.9655 152.9138 286 153 C286.2155 153.5388 286.547 156.7237 286 158 C285.6406 158.8387 284.2569 159.9641 283 160 C269.8555 160.3756 263.442 157.4447 251 159 C247.5845 159.4269 245.8629 161.4555 243 165 C235.993 173.6753 234.3363 175.9937 230 185 C228.844 187.4008 229.9508 192.0211 230 192 C230.4566 191.8043 241.1833 180.6357 251 176 C256.319 173.4883 261.8421 175.7796 266 175 C266.3764 174.9294 266.7328 173.0092 267 173 C273.9909 172.7589 281.4765 172.4275 295 174 C302.4385 174.8649 304.073 174.8085 310 178 C315.6612 181.0483 317.905 183.3575 321 188 C322.5475 190.3212 321.5651 194.8404 322 196 C322.0389 196.1038 323.9983 195.9814 324 196 C324.1017 197.1187 323.3829 206.9453 323 207 C310.6195 208.7686 250.6172 207.6162 240 208 C239.9908 208.0003 240 210 240 210 "/>
<path id="5" d="M275 214 C275 214 268.0886 214.6381 265 217 C261.3203 219.8139 258.6395 223.1628 258 227 C257.2268 231.639 258.0134 236.5202 261 241 C265.2932 247.4398 269.054 251.2988 276 254 C283.4078 256.8808 297 255 297 255 "/>
<path id="6" d="M277 217 C277 217 278.7372 213.3007 280 213 C285.8272 211.6126 291.0242 210.7082 298 212 C301.9592 212.7332 304.8579 217.8661 307 218 C308.5281 218.0955 310.4262 214.3614 314 213 C320.0774 210.6848 325.4403 208.9528 328 210 C330.5871 211.0583 334.3578 216.4575 336 222 C337.7142 227.7854 337.7261 231.6058 336 237 C334.5546 241.5167 332.4058 243.9351 328 247 C322.3519 250.9291 320.3166 251.8866 313 253 C298.6766 255.1796 291.6065 251.8652 282 254 C279.983 254.4482 277.6305 258.0053 277 261 C276.077 265.3843 276.3665 271.8521 278 273 C285.9382 278.5782 296.1939 282.088 314 287 C324.0737 289.7789 325.642 289.3046 336 289 C341.7066 288.8322 343.1809 288.1083 348 286 C350.0815 285.0894 351.1985 284.0037 352 282 C353.6888 277.778 352.8035 273.3931 354 271 C354.2991 270.4017 358 270 358 270 "/>
<path id="7" d="M457 201 C457 201 447.4989 196.7082 439 196 C430.7703 195.3142 427.087 194.6666 421 198 C409.6836 204.1971 407.3075 208.0275 397 219 C392.603 223.6807 392.4381 224.9048 390 231 C387.6608 236.8481 387.3614 237.6752 387 244 C386.3979 254.5367 385.364 257.3731 388 266 C390.0156 272.5964 392.4101 275.1088 398 280 C403.0561 284.424 404.8555 284.9162 412 287 C428.052 291.6818 429.3775 292.1182 446 294 C455.0234 295.0215 459.8329 296.0723 465 293 C473.0392 288.2199 477.1663 282.2784 483 272 C486.3083 266.1711 485.2564 263.9321 486 256 C486.7308 248.2049 487.3289 247.3088 486 240 C484.4975 231.7361 484.3391 229.9031 480 223 C474.1389 213.6756 472.1172 211.3778 464 205 C459.9222 201.796 452 201 452 201 "/>
<path id="8" d="M359 270 C359 270 363.1056 268.0552 367 268 C431.5163 267.0849 451.672 270.4164 500 268 C502.6708 267.8665 505.2163 264.3444 507 261 C508.4181 258.3411 506.8125 256.325 508 253 C509.0555 250.0445 511.2619 249.768 512 247 C512.9401 243.4747 512.2256 238.0472 512 238 C506.8506 236.9222 484.633 237.3052 469 238 C468.2406 238.0338 467.8634 239.8921 467 240 C449.1571 242.2304 443.9532 243.2937 421 244 C379.1973 245.2862 374.6635 243.144 337 244 C335.1861 244.0412 333 246 333 246 "/>
<path id="9" d="M323 188 C323 188 331.1249 190.7884 339 192 C343.7396 192.7292 346.1564 192.7109 349 192 C349.782 191.8045 351 189 351 189 "/>
<path id="10" d="M323 184 C323 184 324.231 180.0109 326 179 C332.6446 175.2031 334.9306 174.217 344 172 C356.873 168.8533 357.8609 170.8563 371 168 C380.5725 165.919 380.6426 163.213 390 162 C406.6208 159.8454 410.6808 159.9523 425 161 C427.5799 161.1888 429.606 162.7695 431 165 C433.6082 169.1731 434.127 171.4712 435 177 C435.4729 179.9948 435.3037 181.8816 434 184 C432.2355 186.8674 430.4454 188.6875 427 190 C421.5228 192.0866 418.0834 189.8214 413 192 C409.5784 193.4664 408.2591 195.6113 406 199 C404.9027 200.6459 405.3073 203.9534 405 204 C399.4057 204.8476 381.347 204.5059 373 204 C372.7075 203.9823 372.3862 202.0702 372 202 C365.9488 200.8998 359.9419 202.7322 351 200 C343.6557 197.7559 342.9769 193.4151 336 191 C331.7635 189.5335 325.7109 190.6446 325 191 C324.9031 191.0485 324.8181 194.5964 326 196 C331.3879 202.3982 334.7858 202.3358 341 210 C349.352 220.3008 348.1387 222.5182 356 233 C358.1805 235.9074 362 238 362 238 "/>
<path id="11" d="M353 199 C353 199 357.0735 198.1893 358 199 C362.3082 202.7697 364.5379 209.5295 369 213 C370.427 214.1099 374.1515 213.9954 376 213 C378.5798 211.6109 382 206 382 206 "/>
<path id="12" d="M441 184 C441 184 452.4101 182.4449 462 184 C469.7509 185.2569 470.2715 188.1452 478 190 C481.9883 190.9572 483.4704 191.1146 487 190 C491.6648 188.5269 495.8349 183.7258 497 184 C498.2689 184.2986 501.9607 189.0151 504 194 C506.0321 198.9673 506.2641 201.7746 506 206 C505.9069 207.49 504.2257 209.6498 503 210 C499.7457 210.9298 496.9274 210.8212 492 210 C488.6404 209.4401 486.1404 208.8057 485 207 C482.0559 202.3386 480 191 480 191 "/>
<path id="13" d="M492 206 C492 206 496.4347 210.8694 499 216 C501.1852 220.3705 501.4566 221.1093 502 226 C502.894 234.046 502 243 502 243 "/>
<path id="14" d="M186 258 C186 258 179.1183 261.6463 177 264 C176.3991 264.6677 176.4576 267.2406 177 268 C177.8911 269.2476 179.5673 270.4276 182 271 C187.2164 272.2274 190.1357 272.7246 194 272 C195.5539 271.7086 197.1257 269.7485 198 268 C198.5828 266.8343 198.5547 264.6339 198 264 C196.596 262.3955 191 260 191 260 "/>
<path id="15" d="M148 210 C148 210 150.5112 210.2669 151 211 C153.3352 214.5027 156 222 156 222 "/>
<path id="16" d="M279 219 C279 219 281.0385 224.4781 283 227 C283.5884 227.7566 285.6472 227.3385 286 228 C288.2615 232.2403 290.7645 241.9869 291 242 C291.5004 242.0278 299.2861 235.8089 304 229 C307.5272 223.9052 309 216 309 216 "/>
</g>
</g>
</svg>
