<?xml version="1.0" encoding="utf-8"?>
<!DOCTYPE svg PUBLIC "-//W3C//DTD SVG 1.1//EN" "http://www.w3.org/Graphics/SVG/1.1/DTD/svg11.dtd">
<svg viewBox="0 0 800 800" preserveAspectRatio="xMinYMin meet" xmlns="http://www.w3.org/2000/svg" version="1.1">
<g fill="none" stroke="black" stroke-linecap="round" stroke-linejoin="round" stroke-width="1.5697">
<g transform="translate(87.52,217.4811) scale(1.9112) translate(-101,-177.1333)">
<path id="0" d="M161 271.1333 C161 271.1333 158.2988 268.4781 156 268.1333 C149.6731 267.1843 147.3299 266.348 141 268.1333 C129.5629 271.3592 125.8453 272.1502 117 279.1333 C109.1517 285.3293 106.5261 289.2006 103 298.1333 C100.2117 305.1971 100.8245 308.3168 102 317.1333 C103.6781 329.7194 104.0924 331.4095 109 343.1333 C112.665 351.8885 114.1801 353.3434 120 360.1333 C122.2021 362.7025 123.8247 363.8741 127 364.1333 C145.2029 365.6193 150.731 366.4585 169 364.1333 C175.0422 363.3643 177.5464 361.063 182 357.1333 C184.5683 354.8672 184.6252 353.2576 186 349.1333 C190.0261 337.0552 191.5444 336.402 193 324.1333 C194.916 307.9844 196.8148 300.1722 193 290.1333 C190.3947 283.2773 183.1134 278.9581 174 274.1333 C168.6725 271.3129 159 272.1333 159 272.1333 "/>
<path id="1" d="M370 274.1333 C370 274.1333 350.6723 280.2166 337 289.1333 C329.7192 293.8817 325.883 297.4703 324 304.1333 C320.8741 315.1944 321.0051 322.6545 324 335.1333 C326.1138 343.941 329.1387 346.2165 336 354.1333 C341.3988 360.3627 343.861 364.1254 350 365.1333 C370.5851 368.513 382.6234 368.7292 403 365.1333 C409.5811 363.972 413.6884 359.4981 418 353.1333 C422.4873 346.5092 422.4528 343.4167 424 334.1333 C425.3151 326.2425 425.1457 324.8665 424 317.1333 C423.2861 312.3148 422.7013 311.5635 420 307.1333 C410.4872 291.5323 408.9535 287.803 399 276.1333 C397.0009 273.7896 394.8261 273.3884 391 273.1333 C373.7359 271.9824 354 273.1333 354 273.1333 "/>
<path id="2" d="M141 320.1333 C141 320.1333 148.6908 303.4216 159 289.1333 C176.8446 264.4013 198 241.1333 198 241.1333 "/>
<path id="3" d="M154 296.1333 C154 296.1333 145.5966 295.196 140 297.1333 C134.2383 299.1278 131.94 300.9306 128 305.1333 C125.7869 307.4939 124.7762 309.8881 125 313.1333 C125.613 322.0218 126.1678 325.9215 130 334.1333 C132.1679 338.7789 135.0658 341.1662 139 343.1333 C141.6228 344.4447 144.5115 344.3892 148 343.1333 C155.4577 340.4486 162.4083 337.9721 164 334.1333 C167.3001 326.1742 166.3236 315.3697 165 302.1333 C164.6473 298.6064 160 294.1333 160 294.1333 "/>
<path id="4" d="M142 319.1333 C142 319.1333 149.6325 318.683 152 316.1333 C159.6807 307.8618 158.4558 301.5147 168 291.1333 C185.9525 271.606 209 254.1333 209 254.1333 "/>
<path id="5" d="M196 240.1333 C196 240.1333 196.8733 221.4257 196 219.1333 C195.8733 218.8007 190.44 217.8552 188 219.1333 C182.2775 222.1308 177.5031 224.9602 175 230.1333 C171.9645 236.4067 171.6819 245.2374 173 250.1333 C173.5705 252.2523 178.8095 254.804 182 256.1333 C182.7167 256.432 185 255.1333 185 255.1333 "/>
<path id="6" d="M197 226.1333 C197 226.1333 195.5278 222.8416 196 222.1333 C199.8248 216.3961 205.0993 210.1489 211 205.1333 C212.0018 204.2818 214.4791 204.4574 216 205.1333 C217.7575 205.9145 219.5714 207.4191 220 209.1333 C221.0285 213.2475 221.2665 217.545 220 221.1333 C219.2488 223.2617 216.9225 225.2034 214 226.1333 C207.595 228.1713 203.161 228.405 198 228.1333 C196.9746 228.0794 195.0129 225.1719 195 225.1333 C194.9979 225.1269 197 225.1333 197 225.1333 "/>
<path id="7" d="M197 225.1333 C197 225.1333 200.6569 227.7154 204 228.1333 C211.7062 229.0966 214.4416 230.5425 221 228.1333 C235.8962 222.6613 238.3094 216.4293 253 210.1333 C256.6991 208.548 258.6663 209.3208 263 210.1333 C265.844 210.6666 269 213.1333 269 213.1333 "/>
<path id="8" d="M194 235.1333 C194 235.1333 207.2278 237.6397 216 235.1333 C225.3418 232.4642 225.7047 227.9218 236 223.1333 C246.7539 218.1315 249.508 217.0972 259 215.1333 C261.1506 214.6884 262.8992 215.6628 265 217.1333 C267.1292 218.6238 268.9067 222.1147 269 222.1333 C269.0037 222.1341 270 218.1333 270 218.1333 "/>
<path id="9" d="M246 218.1333 C246 218.1333 244.7844 212.5646 246 210.1333 C248.2033 205.7267 251.1004 202.0831 255 200.1333 C258.064 198.6013 261.6084 198.9776 266 200.1333 C269.7192 201.1121 274 205.1333 274 205.1333 "/>
<path id="10" d="M229 222.1333 C229 222.1333 233.2214 211.9154 235 202.1333 C236.0963 196.1039 233.9093 194.587 235 189.1333 C235.6544 185.8611 236.7081 183.5809 239 182.1333 C243.942 179.0121 246.7063 177.9437 254 177.1333 C268.0665 175.5704 277.0274 175.6543 284 177.1333 C285.0424 177.3544 287.3314 183.139 287 184.1333 C286.5949 185.3486 283.2058 188.1904 280 189.1333 C276.2154 190.2465 273.7012 190.1203 270 189.1333 C267.7546 188.5346 266.4904 187.2625 265 185.1333 C263.5294 183.0325 263 179.1333 263 179.1333 "/>
<path id="11" d="M215 236.1333 C215 236.1333 205.29 238.035 201 241.1333 C198.6182 242.8535 197.1239 245.7874 197 249.1333 C196.7127 256.8899 197.4878 259.9687 200 268.1333 C201.0767 271.6325 203.0523 274.7792 205 275.1333 C217.1659 277.3453 225.2643 274.6039 244 276.1333 C248.9114 276.5343 249.8763 276.716 254 279.1333 C263.5413 284.7265 272.345 292.5554 273 293.1333 C273.0234 293.1539 271.0526 294.1859 271 294.1333 C270.6321 293.7655 269 289.1333 269 289.1333 "/>
<path id="12" d="M221 234.1333 C221 234.1333 221.6866 232.1663 222 232.1333 C226.6608 231.6427 231.3532 231.2686 240 232.1333 C245.9087 232.7242 247.414 232.7196 252 235.1333 C255.6084 237.0325 257.4125 238.4698 259 242.1333 C263.0506 251.4809 260.3407 255.1491 265 265.1333 C270.2372 276.3559 274.6316 277.4702 280 287.1333 C280.8849 288.7262 280.5988 290.5365 280 292.1333 C279.506 293.4507 278.1236 294.9461 277 295.1333 C274.1642 295.606 268 294.1333 268 294.1333 "/>
<path id="13" d="M261 249.1333 C261 249.1333 266.8378 248.5725 271 250.1333 C277.82 252.6908 278.4309 256.2565 285 258.1333 C290.6471 259.7468 294.8473 259.8322 299 258.1333 C302.4651 256.7158 302.8094 252.2763 307 249.1333 C309.9121 246.9493 311.7268 248.2513 315 246.1333 C319.6677 243.1131 319.9491 238.9773 324 238.1333 C338.9692 235.0147 348.563 241.2418 363 236.1333 C375.1548 231.8324 381.1696 219.9326 389 215.1333 C389.7603 214.6673 393.4585 216.2669 394 217.1333 C394.6339 218.1476 394.8508 220.8647 394 223.1333 C392.263 227.7652 391.6184 228.7913 388 233.1333 C374.4513 249.3918 372.1588 257.9172 359 265.1333 C349.3612 270.4191 341.0172 264.9357 326 267.1333 C322.1274 267.7 320.9417 268.4179 318 271.1333 C308.8264 279.6013 307.6703 286.4847 300 291.1333 C296.1803 293.4483 290.9425 292.7332 285 291.1333 C279.8955 289.759 274 284.1333 274 284.1333 "/>
<path id="14" d="M348 268.1333 L350 268.1333 "/>
<path id="15" d="M333 262.1333 C333 262.1333 334.3452 272.8327 337 280.1333 C337.7443 282.1802 341 284.1333 341 284.1333 "/>
<path id="16" d="M346 268.1333 C346 268.1333 348.1375 278.5313 347 282.1333 C346.4006 284.0313 341.5937 284.7427 340 287.1333 C338.736 289.0293 338.6379 293.4092 339 294.1333 C339.195 294.5232 342.6037 295.6704 344 295.1333 C347.1183 293.934 351.6541 289.1718 352 289.1333 C352.0177 289.1314 353.3113 292.1096 353 294.1333 C352.4564 297.6669 349.8101 301.8892 350 302.1333 C350.2942 302.5115 359.6257 302.5719 360 303.1333 C360.4719 303.8412 357.8901 313.9574 358 314.1333 C358.0155 314.1581 364.9945 311.126 365 311.1333 C365.0098 311.1464 360.9081 317.9864 361 318.1333 C361.1352 318.3497 368.8745 318.5081 370 319.1333 C370.2617 319.2787 369.9319 323.1061 370 323.1333 C370.1788 323.2049 374.5232 321.9916 375 321.1333 C375.6986 319.8758 375.2311 314.9423 375 314.1333 C374.9811 314.0673 373.0345 314.0471 373 314.1333 C372.7845 314.6721 373.062 319.0714 373 319.1333 C372.9876 319.1457 370 317.1333 370 317.1333 C369.9786 317.1655 370.6543 321.8568 371 322.1333 C371.2213 322.3103 374.9165 321.4883 375 321.1333 C375.6884 318.2075 375.6372 306.3281 375 305.1333 C374.8699 304.8894 369.4452 304.7361 367 306.1333 C364.1473 307.7635 363.4048 309.5261 361 313.1333 C359.6154 315.2102 359 315.9355 359 318.1333 C359 325.1664 359.2857 328.7047 361 334.1333 C361.4394 335.5249 363.1957 336.717 365 337.1333 C368.4607 337.932 371.6054 338.4636 374 337.1333 C377.8727 334.9818 381.905 331.5132 383 327.1333 C385.324 317.8373 384.2426 306.1037 383 301.1333 C382.8208 300.4165 377.6957 298.5681 376 299.1333 C373.2333 300.0556 368 306.1333 368 306.1333 "/>
<path id="17" d="M229 277.1333 C229 277.1333 230.6884 283.1428 230 288.1333 C228.8156 296.7202 224.5666 304.957 225 306.1333 C225.1454 306.528 231.011 306.9462 237 307.1333 C246.9558 307.4444 254.6799 309.2934 257 307.1333 C260.9601 303.4463 266 280.1333 266 280.1333 "/>
<path id="18" d="M208 281.1333 C208 281.1333 203.4816 294.87 205 301.1333 C206.2343 306.2248 210.9547 312.1418 216 314.1333 C224.6914 317.5642 239.1245 317.2024 243 316.1333 C243.6973 315.941 245 306.1333 245 306.1333 "/>
<path id="19" d="M282 293.1333 C282 293.1333 281.1241 321.0726 283 324.1333 C283.6547 325.2015 292.3104 324.9743 301 324.1333 C307.416 323.5124 307.7367 322.8035 314 321.1333 C315.0288 320.859 316.0158 320.2121 316 320.1333 C315.7425 318.846 312.6051 315.4903 312 311.1333 C310.2814 298.7592 311 284.1333 311 284.1333 "/>
<path id="20" d="M314 275.1333 C314 275.1333 314.7459 289.9576 316 291.1333 C316.9636 292.0367 330 290.1333 330 290.1333 "/>
<path id="21" d="M262 321.1333 C262 321.1333 256.8642 322.0994 253 321.1333 C247.7404 319.8184 247.0124 316.4533 242 316.1333 C226.1148 315.1194 218.4625 315.4628 206 318.1333 C203.4342 318.6831 201.1765 321.996 200 325.1333 C198.8553 328.1859 198.7922 330.855 200 334.1333 C201.6881 338.7153 203.018 340.3856 207 344.1333 C210.7965 347.7065 212.4939 349.7357 217 350.1333 C241.8213 352.3234 250.0037 352.9107 275 350.1333 C281.4167 349.4204 286.276 345.7653 289 342.1333 C290.8773 339.6302 291.4399 331.8351 290 330.1333 C285.6802 325.0282 277.2988 318.3803 267 316.1333 C254.5235 313.4112 235 318.1333 235 318.1333 "/>
<path id="22" d="M262 317.1333 C262 317.1333 281.4916 321.2873 296 318.1333 C312.525 314.5409 313.9752 305.7386 331 302.1333 C353.3624 297.3978 375.6772 297.5743 381 300.1333 C382.6261 300.9151 385.6117 317.6911 383 327.1333 C380.6152 335.7552 373.862 345.937 368 347.1333 C342.502 352.337 285 347.1333 285 347.1333 "/>
<path id="23" d="M371 257.1333 C371 257.1333 378.9292 255.7843 385 257.1333 C391.2153 258.5145 398 263.1333 398 263.1333 "/>
<path id="24" d="M386 243.1333 C386 243.1333 390.5064 245.4449 392 248.1333 C394.7283 253.0442 393.2447 255.1988 396 261.1333 C399.5568 268.7941 399.9269 269.2155 405 276.1333 C410.762 283.9907 411.2489 284.3823 418 291.1333 C420.4111 293.5444 421.6899 294.4403 424 295.1333 C425.1872 295.4895 428 294.1333 428 294.1333 "/>
<path id="25" d="M393 230.1333 C393 230.1333 396.5198 233.8919 397 237.1333 C398.265 245.6718 397.4942 251.9443 397 257.1333 C396.9706 257.4422 395 258.1333 395 258.1333 "/>
<path id="26" d="M393 217.1333 C393 217.1333 405.7055 198.4699 406 198.1333 C406.0206 198.1098 407.341 200.427 407 201.1333 C402.4971 210.4607 392 227.1333 392 227.1333 "/>
<path id="27" d="M141 293.1333 C141 293.1333 125 279.1333 125 279.1333 C125 279.1333 143.2857 296.1333 145 296.1333 C145.8572 296.1333 151.8619 286.9785 155 279.1333 C156.1954 276.1447 155 271.1333 155 271.1333 "/>
<path id="28" d="M167 306.1333 C167 306.1333 175.7452 310.4254 184 312.1333 C189.4304 313.2569 195.9457 312.1644 196 312.1333 C196.0123 312.1263 191 308.1333 191 308.1333 "/>
<path id="29" d="M169 301.1333 L195 287.1333 "/>
<path id="30" d="M153 336.1333 L154 368.1333 "/>
<path id="31" d="M155 343.1333 C155 343.1333 162.8234 343.0035 169 345.1333 C176.467 347.7082 183.906 353.1255 184 353.1333 C184.0215 353.1351 181 346.1333 181 346.1333 "/>
<path id="32" d="M170 324.1333 L183 324.1333 "/>
<path id="33" d="M186 325.1333 L190 325.1333 "/>
<path id="34" d="M127 322.1333 C127 322.1333 124.8116 326.4719 122 328.1333 C115.0458 332.2426 105 335.1334 105 335.1333 C105 335.1332 113.7312 328.4373 121 325.1333 C123.1227 324.1684 126.8902 324.8511 127 325.1333 C127.865 327.3576 128.7494 334.6403 128 343.1333 C127.3158 350.8872 123.999 359.124 124 359.1333 C124.0004 359.1372 126.1295 353.96 129 352.1333 C135.5138 347.9882 145.4203 344.7672 146 345.1333 C146.6452 345.5408 148 364.1333 148 364.1333 "/>
<path id="35" d="M127 315.1333 L101 303.1333 "/>
<path id="36" d="M126 303.1333 L116 285.1333 "/>
<path id="37" d="M357 332.1333 L340 340.1333 "/>
<path id="38" d="M372 338.1333 L367 362.1333 "/>
<path id="39" d="M383 331.1333 C383 331.1333 383.2934 345.9536 386 358.1333 C386.9892 362.5846 390.9989 367.1342 391 367.1333 C391.005 367.1296 390 355.1333 390 355.1333 "/>
<path id="40" d="M385 325.1333 C385 325.1333 395.2268 334.3901 406 342.1333 C410.966 345.7026 416.997 348.1348 417 348.1333 C417.0011 348.1328 410 340.1333 410 340.1333 "/>
<path id="41" d="M385 313.1333 C385 313.1333 391.3187 318.1307 397 319.1333 C406.5713 320.8224 419 319.1333 419 319.1333 "/>
<path id="42" d="M380 310.1333 C380 310.1333 393.4319 303.5966 405 296.1333 C408.3553 293.9686 411 290.1333 411 290.1333 "/>
<path id="43" d="M369 296.1333 C369 296.1333 367.9525 288.8947 369 283.1333 C369.7838 278.8224 373 274.1333 373 274.1333 "/>
<path id="44" d="M377 303.1333 L399 279.1333 "/>
<path id="45" d="M341 339.1333 L331 344.1333 "/>
<path id="46" d="M362 316.1333 L326 304.1333 "/>
<path id="47" d="M202 243.1333 C202 243.1333 212.8169 250.5393 223 254.1333 C228.4647 256.062 230.4021 253.5006 236 255.1333 C241.3698 256.6995 242.4134 257.3562 247 261.1333 C258.8303 270.8759 258.7922 273.5266 270 283.1333 C271.7978 284.6743 275 285.1333 275 285.1333 "/>
<path id="48" d="M238 239.1333 C238 239.1333 236.0038 238.1066 236 238.1333 C235.9198 238.6948 235.7158 252.1387 236 253.1333 C236.0027 253.1428 239.7009 252.7316 240 252.1333 C241.1965 249.7403 242.2375 244.4582 242 241.1333 C241.9297 240.149 239 238.1333 239 238.1333 "/>
</g>
</g>
</svg>
