<?xml version="1.0" encoding="utf-8"?>
<!DOCTYPE svg PUBLIC "-//W3C//DTD SVG 1.1//EN" "http://www.w3.org/Graphics/SVG/1.1/DTD/svg11.dtd">
<svg viewBox="0 0 800 800" preserveAspectRatio="xMinYMin meet" xmlns="http://www.w3.org/2000/svg" version="1.1">
<g fill="none" stroke="black" stroke-linecap="round" stroke-linejoin="round" stroke-width="2.5874">
<g transform="translate(87.52,204.6275) scale(1.1595) translate(-87,-127)">
<path id="0" d="M416 250 C416 250 421.9834 243.9111 427 242 C430.5711 240.6396 432.1938 241.2668 437 242 C461.2104 245.6931 462.9675 243.4701 486 251 C539.535 268.5018 571.2937 276.2722 593 293 C598.3526 297.125 596.6688 315.2531 595 335 C593.8161 349.009 592.0005 350.2488 587 364 C584.1935 371.7179 583.3518 375.7765 579 379 C573.8302 382.8295 569.5763 382.459 560 384 C526.419 389.4038 525.8093 389.5422 492 393 C482.1889 394.0034 480.7296 394.4549 472 393 C467.2714 392.2119 464.8378 391.4054 462 388 C451.8548 375.8257 449.8204 372.3008 442 357 C439.0531 351.2344 439.7692 349.923 439 343 C438.3023 336.721 439.9739 336.168 439 330 C437.0562 317.689 434.608 317.3281 433 305 C431.6903 294.9588 431.7843 293.7254 433 284 C433.6657 278.6742 434.2358 277.6779 437 273 C440.3754 267.2878 440.8663 265.6898 446 262 C455.6031 255.0978 469 250 469 250 "/>
<path id="1" d="M117 336 C117 336 129.5742 318.5399 142 312 C153.609 305.89 160.54 310.1415 174 306 C177.5179 304.9176 177.3248 301.8376 181 300 C186.5127 297.2436 187.6936 296.371 194 296 C220.2067 294.4584 222.5236 292.8587 249 296 C280.1271 299.693 287.7483 300.946 312 310 C318.1233 312.286 322.2189 317.7662 324 324 C326.8614 334.0149 322.2954 338.9316 324 352 C325.1434 360.7664 328.4051 361.2281 330 370 C331.2531 376.8922 331.2268 377.9899 330 385 C327.8552 397.256 327.2514 400.189 323 410 C321.8474 412.6598 318.8021 412.215 317 415 C313.9091 419.7769 315.2464 421.8985 312 427 C308.6369 432.2848 307.8958 432.8386 303 437 C298.2581 441.0306 297.5123 442.3612 292 444 C280.5427 447.4062 278.8692 447.6252 266 448 C228.0717 449.1047 225.5376 449.6922 189 447 C180.2573 446.3558 180.0123 442.6898 171 441 C156.5981 438.2996 146.9039 440.9519 141 438 C138.9383 436.9692 137.5053 430.8721 137 424 C135.0885 398.0034 136.2903 396.9976 136 370 C135.7904 350.5056 134.3005 349.3548 136 331 C136.6738 323.7226 141 316 141 316 "/>
<path id="2" d="M241 355 C241 355 242.9324 353.9263 243 354 C244.7238 355.8805 249.9324 361.027 252 367 C253.6679 371.8183 253.2806 376.8899 252 380 C251.322 381.6465 246.5437 384.325 245 384 C241.5695 383.2778 234.7261 379.6988 233 376 C230.0893 369.7629 231.708 364.9734 231 354 C230.7121 349.537 230.9788 344.9967 231 345 C231.2249 345.0346 244 356 244 356 "/>
<path id="3" d="M486 313 C486 313 491.8221 308.1096 497 307 C504.1648 305.4647 507.9475 305.3053 514 307 C517.546 307.9929 521.0029 311.0087 522 314 C523.7535 319.2606 523.5976 326.6065 522 331 C521.2567 333.044 517.7041 335.1948 514 336 C507.8856 337.3292 501.934 338.0312 499 336 C494.4109 332.8229 488 318 488 318 "/>
<path id="4" d="M352 158 C352 158 359.4433 168.5842 368 176 C373.6683 180.9126 377.2288 179.4799 382 184 C385.2002 187.0318 383.5191 191.2927 387 194 C411.0633 212.7159 415.7077 214.4996 445 233 C453.3959 238.3027 455.7613 236.4503 463 242 C469.6088 247.0668 470.9371 248.9577 475 256 C477.6662 260.6215 474.9589 264.3186 478 268 C491.2148 283.9969 494.6009 286.7146 513 302 C526.561 313.2661 528.1766 315.5316 543 322 C553.2372 326.4672 568 326 568 326 "/>
<path id="5" d="M346 172 C346 172 352.4784 179.7865 360 186 C375.2478 198.596 375.6227 199.5185 392 210 C399.995 215.1168 402.025 213.4924 410 218 C412.7712 219.5664 413.9781 220.5182 415 223 C416.8565 227.5086 414.9334 230.4076 417 235 C418.7862 238.9694 420.0885 239.628 424 243 C434.3175 251.8944 434.6659 252.3418 446 260 C452.9066 264.6666 454.3677 263.3862 461 268 C465.3748 271.0433 466.3461 271.7129 469 276 C472.2979 281.3274 470.8483 286.5756 474 289 C479.5438 293.2644 488.6662 291.9464 495 296 C497.4261 297.5527 496.6192 301.8256 499 305 C500.3392 306.7856 504 308 504 308 "/>
<path id="6" d="M319 179 C319 179 345.3661 183.4084 358 190 C361.8921 192.0306 360.7376 198.2889 365 203 C369.1574 207.5951 371.8363 206.336 377 211 C386.9548 219.9914 387.7842 220.7303 396 231 C399.2676 235.0845 397.8574 236.6277 401 241 C409.0767 252.2372 409.5074 255.1347 419 263 C424.9741 267.9499 429.7695 265.447 436 270 C441.0061 273.6583 439.9449 277.1856 445 282 C449.8548 286.6236 451.9846 285.5747 457 290 C459.9411 292.5951 458.9797 294.9569 462 297 C474.3548 305.3577 490.9461 312.9655 491 313 C491.0055 313.0035 487.1058 312.9295 487 313 C486.9912 313.0059 488 315 488 315 "/>
<path id="7" d="M271 154 C271 154 301.4652 165.8362 332 170 C398.9349 179.1275 415.971 175.6971 469 181 C470.2672 181.1267 470.5336 183.581 472 184 C479.1689 186.0483 481.3844 184.5876 490 187 C506.0422 191.4918 505.9803 194.4662 522 198 C539.1625 201.7858 540.0902 200.209 558 202 C559.9681 202.1968 561.9808 202.1 562 202 C562.6547 198.5954 564.1095 176.5548 563 176 C558.0996 173.5498 536.2736 177.5804 510 176 C470.1032 173.6002 469.9607 170.9004 430 168 C408.144 166.4137 404.2369 170.5876 386 167 C378.0924 165.4444 377.7529 159.394 369 156 C354.5518 150.3976 350.1786 153.0687 337 148 C333.3585 146.5994 333.5727 143.2967 330 141 C327.4259 139.3452 326.5118 139.3933 323 139 C264.9839 132.5022 214.6654 127.0826 205 127 C204.9105 126.9992 204.2652 134.3376 206 138 C207.7826 141.7632 209.9926 144.3971 214 146 C222.4441 149.3776 226.3472 147.4012 236 150 C238.011 150.5414 238.2757 152.8276 240 153 C250.4257 154.0426 266 153 266 153 "/>
<path id="8" d="M309 166 C309 166 308.0755 174.2202 309 181 C309.4567 184.3488 311.4845 188.012 312 188 C319.3022 187.8302 332.8541 185.0574 352 180 C358.6307 178.2485 360.7684 176.7203 365 174 C365.7351 173.5274 366 171 366 171 "/>
<path id="9" d="M205 357 C205 357 205.0758 350.9737 207 348 C209.5839 344.0068 212.9661 344.3341 216 340 C219.2885 335.3022 217.2805 331.8228 221 328 C233.1659 315.4962 236.2879 311.9783 252 303 C262.0617 297.2505 267.2191 300.5848 277 296 C280.7178 294.2573 283.4355 289.6935 284 288 C284.1639 287.5083 280.8285 284.4458 281 284 C281.7275 282.1085 284.9184 277.3324 289 275 C293.5696 272.3888 296.3249 274.6396 302 272 C316.9441 265.0493 316.924 261.0304 332 255 C343.0612 250.5755 348.692 252.9672 357 250 C358.4844 249.4699 358.5311 245.4896 360 245 C370.0722 241.6426 377.9169 243.0277 390 239 C393.0208 237.9931 392.8947 234.5526 396 233 C400.6579 230.6711 408 230 408 230 "/>
<path id="10" d="M207 357 C207 357 209.1583 368.6221 214 376 C218.5532 382.9381 222.2568 387.9471 228 389 C243.9968 391.9327 259.7092 390.2356 274 387 C276.85 386.3547 277.1463 380.5968 281 377 C283.7683 374.4162 287.2652 375.4937 289 373 C293.4552 366.5957 293.0718 360.8744 297 354 C297.7142 352.7501 300.2139 353.2578 301 352 C304.1008 347.0387 303.3432 344.1884 307 338 C309.5294 333.7194 312.3031 333.818 314 330 C315.5951 326.4111 313.2296 323.6884 315 320 C318.4259 312.8626 319.7042 311.2958 326 305 C335.6859 295.3141 336.7746 292.5027 348 287 C359.811 281.2103 364.1172 284.5264 377 280 C381.1393 278.5456 380.8135 275.6492 385 274 C396.213 269.5828 403.0888 272.4935 410 267 C417.4794 261.0549 418.7511 254.81 424 243 C426.2385 237.9634 426 231 426 231 "/>
<path id="11" d="M430 217 C430 217 448.9785 209.836 468 205 C478.0841 202.4363 478.5527 202.7836 489 202 C498.3522 201.2986 499.4751 200.7822 508 202 C512.2945 202.6135 515.8954 204.1221 517 206 C518.615 208.7455 516.652 213.069 518 219 C519.0098 223.4431 522.0165 228 522 228 C521.9382 228 514.1853 220.9959 507 219 C498.2636 216.5732 495.9175 217.0324 486 218 C476.2793 218.9484 474.09 219.5773 466 223 C462.8766 224.3215 462.9319 227.1342 460 229 C458.3169 230.0711 455 230 455 230 "/>
<path id="12" d="M364 199 C364 199 352.7724 199.4953 347 203 C341.3868 206.408 340.6585 209.1232 336 216 C330.3569 224.3303 331.683 226.5223 326 234 C322.9276 238.0426 318.6109 240.463 317 241 C316.7157 241.0948 315.0657 238 314 238 C278.1207 238 263.0867 241.6505 213 241 C186.6745 240.6581 174.5877 241.1763 160 236 C155.9965 234.5794 153.8537 227.2757 151 219 C149.2476 213.9182 151.2292 211.9168 150 207 C149.5234 205.0935 148.1375 203.1312 147 203 C130.8225 201.1334 114.0166 199.033 98 201 C95.0088 201.3673 92.5423 205.3777 90 210 C87.6 214.3636 87.2531 215.6843 87 221 C86.2969 235.7659 87.7732 251.3699 88 252 C88.0226 252.0627 92.1227 247.5965 96 246 C99.4852 244.5649 100.5228 245.0466 105 245 C148.2297 244.5497 192 245 192 245 "/>
<path id="13" d="M115 247 C115 247 122.2567 255.5039 130 260 C136.4915 263.7693 141.4358 261.0653 146 265 C152.796 270.8586 152.5716 282.4745 159 285 C182.4572 294.2153 195.3173 290.1684 230 298 C241.1675 300.5217 242.2403 304.1701 252 306 C255.9973 306.7495 262 304 262 304 "/>
<path id="14" d="M239 304 C239 304 200.5307 300.0683 187 303 C184.1171 303.6246 183.7261 311.5276 179 317 C175.0444 321.5801 168.6059 321.9155 168 325 C165.1377 339.5715 162.8848 354.8642 168 373 C171.8583 386.6794 178.8989 389.5201 190 403 C192.0628 405.5048 192.9695 406.0777 196 407 C203.5215 409.2891 204.5671 409.6693 213 410 C254.8941 411.6429 256.2839 411.4345 298 411 C303.4094 410.9437 308.6444 409.9374 309 409 C310.5554 404.8995 307.9178 393.5432 309 382 C309.2117 379.7421 311.8545 379.182 312 377 C312.6975 366.5377 311 352 311 352 "/>
<path id="15" d="M138 418 C138 418 156.1841 411.3631 174 407 C180.0984 405.5065 182.2664 407.3922 187 406 C188.8432 405.4579 191 402 191 402 "/>
<path id="16" d="M163 388 C163 388 165.0114 386.0143 165 386 C164.7776 385.722 161.7787 383.2137 159 383 C144.2831 381.8679 126 383 126 383 "/>
<path id="17" d="M142 357 L166 358 "/>
<path id="18" d="M150 322 C150 322 154.6781 326.1356 159 327 C168.1625 328.8325 180 328 180 328 "/>
<path id="19" d="M204 417 C204 417 190.0679 420.1728 178 425 C173.2886 426.8846 169 431 169 431 "/>
<path id="20" d="M232 417 C232 417 228.0434 427.8358 223 434 C220.4406 437.1281 214 439 214 439 "/>
<path id="21" d="M274 422 C274 422 275.4687 427.703 277 430 C277.4594 430.6891 279.809 430.5226 280 431 C280.8159 433.0398 281 440 281 440 "/>
<path id="22" d="M308 411 L313 416 "/>
<path id="23" d="M316 388 L322 388 "/>
<path id="24" d="M492 339 C492 339 485.5823 344.9747 483 351 C480.1851 357.5681 480 367 480 367 "/>
<path id="25" d="M493 327 L446 334 "/>
<path id="26" d="M533 283 C533 283 531.1032 282.8108 531 283 C529.753 285.2862 527.9392 288.5213 527 294 C525.0435 305.4129 525 318 525 318 "/>
<path id="27" d="M526 326 C526 326 537.8083 329.9597 547 336 C554.5153 340.9386 554.0659 343.7995 561 349 C563.1897 350.6423 565.3593 349.5233 567 351 C569.1666 352.9499 571 358 571 358 "/>
<path id="28" d="M520 335 C520 335 519.7764 341.5527 522 346 C528.115 358.23 538 371 538 371 "/>
<path id="29" d="M454 299 C454 299 456.2476 302.6682 459 304 C470.4405 309.5357 474.6034 309.173 485 314 C486.1511 314.5345 487 317 487 317 "/>
<path id="30" d="M315 250 L323 252 "/>
<path id="31" d="M322 247 L319 255 "/>
<path id="32" d="M334 245 L338 250 "/>
<path id="33" d="M336 242 C336 242 340.8904 243.1644 341 243 C341.5012 242.2483 341.9291 233.0129 342 233 C342.2151 232.9609 352 241 352 241 "/>
<path id="34" d="M356 232 C356 232 358.9973 234.0043 359 234 C359.2424 233.6122 361.1721 224.1059 361 224 C360.4295 223.6489 348.9197 224.7226 346 226 C345.4138 226.2565 344.9601 230.9867 345 231 C345.7578 231.2526 358 230 358 230 "/>
<path id="35" d="M367 216 C367 216 370.6058 229.8768 371 230 C371.4324 230.1351 383 221 383 221 "/>
<path id="36" d="M177 252 C177 252 178.615 259.0517 182 262 C192.0754 270.7754 195.6092 272.0302 208 279 C210.2865 280.2862 211.0244 279.8647 214 280 C221.8753 280.358 223.8791 281.1659 230 280 C232.2043 279.5801 232.5571 276.9396 235 276 C238.1326 274.7951 241.8404 275.4349 243 275 C243.1038 274.9611 242.925 273.025 243 273 C243.675 272.775 247.6855 273.7303 249 273 C250.2659 272.2967 250.5337 268.8798 252 268 C253.8573 266.8856 256.327 267.891 259 267 C259.972 266.676 261 265.0214 261 265 C261 265 259 265 259 265 C259 265 326 265 326 265 "/>
<path id="37" d="M253 305 C253 305 271.3181 301.7622 280 298 C281.6188 297.2985 281.1739 293.4047 283 292 C286.1357 289.5879 288.839 290.7046 293 288 C298.2342 284.5977 297.625 281.3168 303 279 C324.2595 269.8364 327.1136 269.9348 351 263 C357.6156 261.0793 358.9259 263.1693 365 261 C371.9587 258.5147 371.7805 255.1757 379 253 C406.8113 244.6185 438 239 438 239 "/>
<path id="38" d="M352 254 C352 254 330.8248 254.8537 321 260 C315.423 262.9213 315.2257 272.0807 310 276 C306.7056 278.4708 297.0034 278.0057 297 278 C296.9994 277.999 301.9513 273.5244 307 271 C310.3658 269.3171 312.2132 270.8578 315 269 C319.9764 265.6824 320.4405 260.1855 325 259 C339.7568 255.1632 348.4451 259.9854 365 256 C371.6701 254.3942 371.8148 249.8689 379 246 C384.2463 243.1751 391 242 391 242 "/>
<path id="39" d="M260 134 C260 134 261.1009 140.0369 260 144 C258.9664 147.7209 255 152 255 152 "/>
<path id="40" d="M525 180 C525 180 523.9464 185.6284 525 189 C526.0024 192.2077 530 196 530 196 "/>
<path id="41" d="M367 160 C367 160 366.9882 158.0006 367 158 C369.1201 157.8884 381.5079 157.7166 386 159 C386.7986 159.2282 388 164 388 164 "/>
<path id="42" d="M393 176 C393 176 396.7901 177.8454 397 179 C398.0701 184.8854 397.6532 191.141 397 198 C396.9247 198.7908 395 200 395 200 "/>
<path id="43" d="M173 464 C173 464 176.1219 462.0636 179 462 C262.3508 460.158 268.3242 463.3764 354 460 C367.8177 459.4555 368.2092 454.5868 382 454 C437.1529 451.6531 449.2651 455.1727 495 454 C496.6501 453.9577 497.1023 451.345 499 451 C511.3348 448.7573 521.6114 450.0609 528 448 C528.9078 447.7072 528.8757 441.4715 530 441 C537.1791 437.9894 547.2829 439.6868 559 435 C564.5973 432.7611 564.05 428.2882 570 425 C581.9096 418.4184 597 414 597 414 "/>
<path id="44" d="M322 433 C322 433 328.6032 430.2132 335 430 C401.9304 427.769 403.6368 429.6674 472 428 C485.4926 427.6709 489.7776 428.0825 499 426 C500.7231 425.6109 501.2986 421.3125 503 421 C518.8208 418.0941 532.8745 423.0502 548 417 C557.3479 413.2608 560.9853 403.7684 568 395 C568.5538 394.3078 567.6687 392.2319 568 392 C570.0196 390.5863 573.9437 390.9374 578 388 C601.7524 370.8 626 350 626 350 "/>
<path id="45" d="M133 318 C133 318 129.4904 319.8708 128 322 C126.5294 324.1008 126.0335 325.1532 126 328 C125.5608 365.3315 121.1832 373.6299 127 407 C129.4346 420.9667 136.5936 427.753 145 437 C147.5219 439.7741 151.2113 439.5712 157 440 C164.0692 440.5236 172 439 172 439 "/>
<path id="46" d="M338 186 C338 186 354.8871 188.9563 367 188 C370.9455 187.6885 371.7641 184.1147 376 183 C380.1062 181.9194 384.2675 183.8662 386 183 C386.8662 182.5669 386.6994 178.4864 388 177 C389.0699 175.7773 393 175 393 175 "/>
</g>
</g>
</svg>
