<?xml version="1.0" encoding="utf-8"?>
<!DOCTYPE svg PUBLIC "-//W3C//DTD SVG 1.1//EN" "http://www.w3.org/Graphics/SVG/1.1/DTD/svg11.dtd">
<svg viewBox="0 0 800 800" preserveAspectRatio="xMinYMin meet" xmlns="http://www.w3.org/2000/svg" version="1.1">
<g fill="none" stroke="black" stroke-linecap="round" stroke-linejoin="round" stroke-width="1.1857">
<g transform="translate(87.52,165.9563) scale(2.5302) translate(-139,-130.8167)">
<path id="0" d="M145 197.8167 C145 197.8167 147.7157 201.4999 148 204.8167 C149.0969 217.6136 146.914 219.7844 148 232.8167 C148.32 236.6565 151 240.8167 151 240.8167 "/>
<path id="1" d="M146 200.8167 C146 200.8167 150.6073 198.8478 155 198.8167 C219.3221 198.3605 271.3765 195.5557 287 199.8167 C288.1275 200.1242 287.9792 225.7594 287 234.8167 C286.932 235.4461 284.9827 236.5297 283 236.8167 C249.1182 241.7206 246.8468 242.8568 211 245.8167 C192.7669 247.3222 192.3367 246.6898 174 245.8167 C161.044 245.1997 148.9325 243.0498 148 242.8167 C147.9564 242.8058 150 239.8167 150 239.8167 "/>
<path id="2" d="M289 200.8167 C289 200.8167 305.9525 194.0836 322 192.8167 C342.4423 191.2028 345.9124 191.749 365 194.8167 C371.2235 195.8169 373.7185 197.7731 378 201.8167 C381.1535 204.795 381.659 206.8997 383 211.8167 C384.4483 217.127 385.4009 220.081 384 223.8167 C382.102 228.8779 379.4759 231.9633 374 235.8167 C367.4905 240.3974 365.2402 241.6801 357 242.8167 C338.1314 245.4192 336.2026 244.184 316 243.8167 C309.0806 243.6909 308.5711 243.6294 302 241.8167 C294.479 239.7419 287 235.8167 287 235.8167 "/>
<path id="3" d="M352 191.8167 C352 191.8167 361.3565 184.8279 362 183.8167 C362.0489 183.7399 358.9024 181.2395 359 180.8167 C359.4814 178.7307 364.4517 173.3752 365 170.8167 C365.1631 170.0556 362 166.8967 362 166.8167 C362 166.8167 364.8842 167.0482 365 166.8167 C366.0421 164.7324 365.8917 159.6357 368 154.8167 C368.9106 152.7352 370.0262 151.8036 372 150.8167 C374.1383 149.7475 377.9266 150.0368 378 149.8167 C378.1712 149.3031 377.1791 145.0016 375 141.8167 C371.1323 136.1639 365 130.8167 365 130.8167 "/>
<path id="4" d="M362 239.8167 C362 239.8167 369.6932 244.748 374 250.8167 C379.9797 259.2426 381.0388 260.9461 384 270.8167 C386.6522 279.6573 386.8004 282.0123 386 290.8167 C385.4566 296.7939 383.6668 299.3721 381 303.8167 C380.2666 305.0389 377 305.8167 377 305.8167 "/>
<path id="5" d="M154 243.8167 C154 243.8167 149.0275 243.7036 148 244.8167 C145.244 247.8023 143.2733 250.8747 142 256.8167 C139.0633 270.5215 139 273.3255 139 286.8167 C139 290.4143 139.6772 292.4939 142 294.8167 C148.9684 301.7851 151.3568 303.3924 161 308.8167 C166.4719 311.8946 167.7534 312.3235 174 312.8167 C185.6907 313.7396 189.0255 313.4791 199 311.8167 C201.2459 311.4423 203.2065 309.8445 204 307.8167 C206.7396 300.8154 207.2066 298.0731 208 288.8167 C208.6528 281.201 209.5386 278.4017 207 272.8167 C203.3954 264.8866 200.7377 260.9165 193 255.8167 C181.362 248.1462 173.5675 247.4493 163 243.8167 C162.4871 243.6404 160.9963 244.8105 161 244.8167 C161.1303 245.0338 166 248.8167 166 248.8167 "/>
<path id="6" d="M276 242.8167 C276 242.8167 267.6464 238.6707 264 239.8167 C254.9641 242.6565 249.234 245.8321 241 253.8167 C234.8193 259.81 233.9018 263.1113 231 271.8167 C228.9143 278.0736 228.1589 282.2138 230 286.8167 C232.5473 293.185 235.8416 296.2242 243 301.8167 C250.7647 307.8828 252.4198 308.5454 262 311.8167 C271.9868 315.2268 273.2159 315.0079 284 315.8167 C292.6684 316.4668 297.3522 316.9469 302 314.8167 C304.6649 313.5953 307.5947 309.1736 308 304.8167 C309.2596 291.2755 308.8882 287.1241 306 271.8167 C304.1388 261.9521 303.1504 260.3148 298 251.8167 C293.798 244.8834 286 238.8167 286 238.8167 "/>
<path id="7" d="M148 241.8167 C148 241.8167 145.3018 243.0323 145 242.8167 C143.9058 242.0351 141 237.147 141 236.8167 C141 236.7616 144.9823 236.0377 145 235.8167 C145.3194 231.8245 142.1212 222.3622 143 211.8167 C143.4578 206.3227 146.0204 201.9762 148 199.8167 C148.6565 199.1004 154 199.8167 154 199.8167 "/>
<path id="8" d="M348 214.8167 C348 214.8167 344.555 214.3542 344 214.8167 C343.1444 215.5296 341.9368 219.764 342 219.8167 C342.2332 220.011 348.7108 220.3897 350 219.8167 C350.4476 219.6177 351.1119 215.9658 351 215.8167 C350.8967 215.679 347 215.8167 347 215.8167 "/>
<path id="9" d="M212 202.8167 C212 202.8167 214.4129 209.3583 215 215.8167 C216.3753 230.9452 216 246.8167 216 246.8167 "/>
<path id="10" d="M276 277.8167 C276 277.8167 275.75 281.5667 276 281.8167 C276.25 282.0667 279.0509 282.4098 280 281.8167 C281.6906 280.7601 284.013 276.8297 284 276.8167 C283.857 276.6736 274 275.8167 274 275.8167 "/>
<path id="11" d="M177 278.8167 C177 278.8167 174.3378 279.3662 174 279.8167 C173.6882 280.2325 173.5569 282.1521 174 282.8167 C174.8369 284.0721 176.1837 285.3213 178 285.8167 C180.6387 286.5363 184.1141 286.5057 185 285.8167 C185.9421 285.0839 187.1583 280.2414 187 278.8167 C186.9455 278.3262 184 276.8167 184 276.8167 "/>
</g>
</g>
</svg>
