<?xml version="1.0" encoding="utf-8"?>
<!DOCTYPE svg PUBLIC "-//W3C//DTD SVG 1.1//EN" "http://www.w3.org/Graphics/SVG/1.1/DTD/svg11.dtd">
<svg viewBox="0 0 800 800" preserveAspectRatio="xMinYMin meet" xmlns="http://www.w3.org/2000/svg" version="1.1">
<g fill="none" stroke="black" stroke-linecap="round" stroke-linejoin="round" stroke-width="2.549">
<g transform="translate(87.52,244.0542) scale(1.1769) translate(-26,-70.1333)">
<path id="0" d="M152 119.1333 C152 119.1333 141.0986 130.0978 135 141.1333 C131.4625 147.5345 131.9147 149.5106 131 157.1333 C130.5071 161.2407 131.7761 166.1223 132 166.1333 C163.3428 167.6773 236.4247 165.3009 334 167.1333 C339.3402 167.2336 344.346 168.7164 345 170.1333 C346.8997 174.2493 347.094 182.4665 346 193.1333 C345.211 200.8259 345.0605 202.6843 341 209.1333 C329.0698 228.0813 323.0382 228.3034 312 247.1333 C307.3979 254.9841 308.0478 257.4411 307 267.1333 C306.1383 275.1039 306.5739 281.1227 308 284.1333 C308.4725 285.1308 312.102 286.0618 316 286.1333 C364.987 287.0322 368.441 287.0326 417 286.1333 C420.3833 286.0707 423.5108 285.0418 424 284.1333 C424.9326 282.4013 424 273.1333 424 273.1333 "/>
<path id="1" d="M152 121.1333 C152 121.1333 155.5744 115.3131 160 111.1333 C164.2142 107.1533 164.9221 106.2491 170 104.1333 C175.9952 101.6353 184 101.1333 184 101.1333 "/>
<path id="2" d="M123 89.1333 C123 89.1333 109.1267 105.1563 99 122.1333 C92.5868 132.8848 93.5107 134.1048 89 146.1333 C87.5777 149.9261 87.1287 150.2714 87 154.1333 C86.6494 164.6499 85.8003 167.8843 88 176.1333 C88.9747 179.7886 95 184.1333 95 184.1333 "/>
<path id="3" d="M92 185.1333 C92 185.1333 96.2054 188.0301 100 188.1333 C165.2782 189.9096 202.3616 187.3272 239 189.1333 C239.8684 189.1761 241.855 192.3785 242 195.1333 C243.2008 217.9491 244.1594 223.46 242 246.1333 C241.4677 251.7223 239.9819 253.4649 236 258.1333 C226.3188 269.4836 213 280.1333 213 280.1333 "/>
<path id="4" d="M113 192.1333 C113 192.1333 122.0685 195.8574 131 197.1333 C142.5224 198.7794 145.3313 195.4063 155 198.1333 C162.0958 200.1347 164.6104 202.4988 170 208.1333 C174.3598 212.6913 176.1975 214.9807 177 221.1333 C180.2452 246.0132 175.7797 256.5231 179 277.1333 C179.529 280.5188 183.5359 284.1436 187 285.1333 C193.7357 287.0578 197.9045 286.1439 207 285.1333 C210.335 284.7628 214 282.1333 214 282.1333 "/>
<path id="5" d="M242 193.1333 C242 193.1333 257.3088 192.4648 266 193.1333 C266.78 193.1933 267.9726 194.3793 268 195.1333 C268.7011 214.4145 268.8487 222.6714 268 248.1333 C267.8868 251.5283 267.881 252.8493 266 255.1333 C255.4689 267.921 251.6167 275.628 240 282.1333 C233.0616 286.0188 216 283.1333 216 283.1333 "/>
<path id="6" d="M130 199.1333 C130 199.1333 118.8063 215.4123 106 229.1333 C98.2283 237.4602 88 244.1333 88 244.1333 "/>
<path id="7" d="M140 199.1333 C140 199.1333 140.2646 206.2805 138 211.1333 C133.8676 219.9884 132.9194 221.2788 126 229.1333 C114.8539 241.7856 101 253.1333 101 253.1333 "/>
<path id="8" d="M106 229.1333 C106 229.1333 103.1438 222.2292 100 220.1333 C96.3322 217.6881 93.9036 217.6394 88 217.1333 C76.9222 216.1838 74.6027 215.2128 65 217.1333 C59.4054 218.2523 56.5263 219.8405 53 224.1333 C46.7169 231.7823 44.2766 235.199 42 245.1333 C39.3866 256.5371 39.8697 260.1505 42 272.1333 C43.5324 280.7531 44.7947 282.7591 50 290.1333 C56.0081 298.6449 57.6123 299.7702 66 306.1333 C71.232 310.1025 72.9483 311.54 79 312.1333 C95.8802 313.7883 102.9515 314.2871 117 311.1333 C121.8678 310.0405 126.9508 305.3301 128 301.1333 C130.7978 289.942 129.3533 283.3728 128 267.1333 C127.4295 260.2873 126.8729 259.358 124 253.1333 C121.155 246.9691 116 241.1333 116 241.1333 "/>
<path id="9" d="M112 219.1333 C112 219.1333 109.3035 215.2806 106 213.1333 C99.8101 209.1099 98.356 206.7111 92 206.1333 C74.2743 204.5219 68.387 205.3514 51 208.1333 C46.8089 208.8039 45.2536 210.473 42 214.1333 C34.0209 223.1098 29.7447 225.3554 27 235.1333 C23.0501 249.2048 25.1589 253.4702 26 271.1333 C26.6361 284.4918 26.0812 286.377 30 298.1333 C32.9967 307.1235 34.8162 308.4772 41 316.1333 C44.6979 320.7117 45.801 321.2975 51 324.1333 C56.1332 326.9333 57.2056 327.7595 63 328.1333 C86.6352 329.6582 113 328.1333 113 328.1333 "/>
<path id="10" d="M124 234.1333 C124 234.1333 134.2757 246.7267 136 258.1333 C140.1514 285.5965 140.2328 298.3853 137 320.1333 C136.2796 324.98 130.0277 330.3493 125 332.1333 C119.2341 334.1793 106 331.1333 106 331.1333 "/>
<path id="11" d="M90 244.1333 C90 244.1333 85.6477 243.1918 84 244.1333 C80.5478 246.106 77.4069 248.6162 76 252.1333 C74.4926 255.9017 75.1143 259.1142 76 264.1333 C76.4081 266.4461 77.8723 268.877 79 269.1333 C84.18 270.3106 92.1146 270.2034 98 269.1333 C99.1546 268.9234 100.7813 266.7739 101 265.1333 C101.5402 261.0816 101.3491 258.7202 100 254.1333 C99.1428 251.2188 98.0959 249.5306 96 248.1333 C93.5548 246.5032 88 246.1333 88 246.1333 "/>
<path id="12" d="M57 224.1333 L70 253.1333 "/>
<path id="13" d="M69 219.1333 L76 249.1333 "/>
<path id="14" d="M70 255.1333 L76 254.1333 "/>
<path id="15" d="M76 264.1333 C76 264.1333 68.9547 274.5634 64 285.1333 C61.6913 290.0585 61 296.1265 61 296.1333 C61 296.1358 64 292.1333 64 292.1333 "/>
<path id="16" d="M80 271.1333 C80 271.1333 81.278 278.7435 80 285.1333 C77.9553 295.357 73 306.1333 73 306.1333 "/>
<path id="17" d="M100 270.1333 L127 288.1333 "/>
<path id="18" d="M103 264.1333 L127 269.1333 "/>
<path id="19" d="M187 166.1333 C187 166.1333 185.1667 156.8998 187 152.1333 C189.075 146.7383 192.9781 140.8595 197 140.1333 C217.5547 136.4221 259 139.1333 259 139.1333 "/>
<path id="20" d="M200 168.1333 C200 168.1333 200.247 162.2012 202 159.1333 C203.4568 156.584 204.8566 155.5479 208 154.1333 C214.0202 151.4243 215.154 150.7038 222 150.1333 C238.2394 148.78 256 150.1333 256 150.1333 "/>
<path id="21" d="M256 153.1333 L274 161.1333 "/>
<path id="22" d="M260 139.1333 L281 155.1333 "/>
<path id="23" d="M282 154.1333 C282 154.1333 313.8856 152.7915 332 154.1333 C333.5565 154.2486 335.5865 156.617 336 158.1333 C336.5465 160.137 335 165.1333 335 165.1333 "/>
<path id="24" d="M278 166.1333 L319 166.1333 "/>
<path id="25" d="M286 161.1333 L302 161.1333 "/>
<path id="26" d="M284 157.1333 C284 157.1333 276.0004 165.133 276 165.1333 C275.9999 165.1334 277.3036 162.2107 278 162.1333 C285.4613 161.3043 303 162.1333 303 162.1333 C303 162.1333 284 162.1334 284 162.1333 C284 162.1333 302 160.1337 302 160.1333 C302 160.1328 283.9996 157.1334 284 157.1333 C284.0012 157.1332 338 157.1333 338 157.1333 C338 157.1333 304 158.1333 304 158.1333 C304 158.1333 324 159.1333 324 159.1333 C324 159.1334 305.9996 160.1331 306 160.1333 C306.0006 160.1337 331 163.1331 331 163.1333 C331 163.1334 307 164.1333 307 164.1333 C307 164.1333 340 165.1333 340 165.1333 C340 165.1333 320.0223 165.1445 320 165.1333 C319.9916 165.1292 326.751 162.4962 330 160.1333 C330.7581 159.582 330.9952 157.1301 331 157.1333 C331.0258 157.1506 332.961 162.1333 333 162.1333 C333.0585 162.1333 335.9999 157.1333 336 157.1333 C336 157.1333 334.691 162.0077 334 162.1333 C326.5929 163.4801 303 163.1333 303 163.1333 C303 163.1333 312.9863 163.135 313 163.1333 C313.0026 163.133 310.9969 162.1379 311 162.1333 C311.0431 162.0687 312.9805 160.5723 315 160.1333 C323.949 158.1879 333.9997 157.1335 334 157.1333 C334.0002 157.1333 323.0223 157.1445 323 157.1333 C322.9929 157.1298 327.9926 154.1445 328 154.1333 C328.0023 154.1298 325 154.1333 325 154.1333 "/>
<path id="27" d="M345 169.1333 C345 169.1333 354.106 170.5148 362 169.1333 C373.2489 167.1648 375.0731 167.3036 385 162.1333 C397.8063 155.4634 398.3333 153.8953 410 144.1333 C422.5938 133.5956 424.8933 132.7522 434 121.1333 C437.9029 116.1538 439 107.1333 439 107.1333 "/>
<path id="28" d="M440 107.1333 C440 107.1333 447.7528 105.3463 453 106.1333 C456.1034 106.5988 457.781 107.4849 460 110.1333 C471.9459 124.3913 471.415 129.5548 484 143.1333 C488.7784 148.289 490.7956 148.0769 498 151.1333 C506.9239 154.9192 507.7158 155.7747 517 157.1333 C527.2753 158.637 539 157.1333 539 157.1333 "/>
<path id="29" d="M344 209.1333 C344 209.1333 358.9673 210.47 372 209.1333 C377.3109 208.5886 378.2057 207.8993 383 205.1333 C390.6903 200.6966 391.7599 200.3734 398 194.1333 C405.2001 186.9332 403.7901 183.1804 411 177.1333 C417.7577 171.4656 419.7919 170.991 429 168.1333 C447.9507 162.2521 449.2455 161.0247 469 159.1333 C495.1062 156.6338 523 159.1333 523 159.1333 "/>
<path id="30" d="M324 286.1333 C324 286.1333 354.5245 282.3605 385 281.1333 C428.84 279.368 473 280.1333 473 280.1333 "/>
<path id="31" d="M310 259.1333 C310 259.1333 337.5094 261.505 365 262.1333 C424.9162 263.5028 464.4336 261.9435 485 263.1333 C485.2308 263.1467 486.5658 267.5775 486 269.1333 C485.3156 271.0154 483.4202 273.2863 481 274.1333 C475.3709 276.1035 466 276.1333 466 276.1333 "/>
<path id="32" d="M352 275.1333 L479 278.1333 "/>
<path id="33" d="M370 264.1333 C370 264.1333 384.5244 266.6069 399 267.1333 C439.2984 268.5987 480 268.1333 480 268.1333 "/>
<path id="34" d="M442 260.1333 C442 260.1333 440.5554 257.0227 441 255.1333 C442.2294 249.9084 442.5042 247.6779 446 243.1333 C451.634 235.8091 453.0782 234.4997 461 229.1333 C467.7111 224.5871 469.4812 222.9389 477 222.1333 C494.9072 220.2147 502.1795 219.9367 517 223.1333 C521.8487 224.1791 524.1376 227.6447 528 233.1333 C532.9267 240.1345 534.5492 241.8637 536 250.1333 C539.181 268.265 541.7156 276.8008 538 290.1333 C535.5229 299.0217 528.9741 303.1541 519 311.1333 C512.9821 315.9476 510.6777 316.6404 503 318.1333 C494.1553 319.8531 492.1201 319.6533 483 318.1333 C475.2479 316.8413 473.2342 316.4193 467 312.1333 C458.6362 306.3832 456.5906 304.3862 451 296.1333 C447.1699 290.4793 446 281.1333 446 281.1333 "/>
<path id="35" d="M433 260.1333 C433 260.1333 431.7775 247.7192 435 243.1333 C441.4545 233.948 446.5458 232.0292 459 223.1333 C467.1789 217.2913 477 213.1333 477 213.1333 "/>
<path id="36" d="M441 282.1333 C441 282.1333 443.532 295.6944 449 306.1333 C453.9138 315.5143 455.4593 316.5926 463 324.1333 C467.2417 328.375 468.3511 328.7434 474 331.1333 C480.7538 333.9907 481.6338 334.4318 489 335.1333 C501.9307 336.3648 504.1462 337.2886 516 335.1333 C524.1021 333.6602 525.4769 332.0771 533 327.1333 C542.416 320.9457 545.6385 319.9522 551 312.1333 C555.7284 305.2377 555.6646 301.926 557 292.1333 C558.5395 280.844 559.9432 277.6987 557 268.1333 C552.9625 255.0116 549.7585 252.9342 541 240.1333 C537.2125 234.5978 536.4819 234.2447 531 230.1333 C518.8616 221.0295 517.0337 216.8528 505 213.1333 C493.8343 209.6821 476 213.1333 476 213.1333 "/>
<path id="37" d="M487 265.1333 C487 265.1333 486.8922 260.9796 488 259.1333 C489.1749 257.1752 490.7444 256.0356 493 255.1333 C494.7088 254.4498 496.4032 254.5345 498 255.1333 C499.3174 255.6274 500.7358 256.8121 501 258.1333 C502.2625 264.4457 502.5794 269.3394 502 275.1333 C501.8869 276.2647 500.277 277.8386 499 278.1333 C495.5414 278.9315 491.4973 279.5791 489 278.1333 C485.1621 275.9114 480 267.1333 480 267.1333 "/>
<path id="38" d="M475 225.1333 C475 225.1333 486.7034 237.4748 492 247.1333 C493.5219 249.9085 492 256.1333 492 256.1333 "/>
<path id="39" d="M467 231.1333 L493 252.1333 "/>
<path id="40" d="M505 267.1333 C505 267.1333 509.4359 263.5939 514 262.1333 C521.3026 259.7965 530 259.1333 530 259.1333 "/>
<path id="41" d="M500 272.1333 L538 271.1333 "/>
<path id="42" d="M527 259.1333 L544 259.1333 "/>
<path id="43" d="M491 281.1333 L474 310.1333 "/>
<path id="44" d="M492 281.1333 L495 317.1333 "/>
<path id="45" d="M332 227.1333 L357 262.1333 "/>
<path id="46" d="M338 219.1333 C338 219.1333 351.1053 234.108 361 249.1333 C363.9882 253.671 365 260.1333 365 260.1333 "/>
<path id="47" d="M336 236.1333 C336 236.1333 330.7643 237.2416 330 238.1333 C329.465 238.7575 329.9131 243.117 330 243.1333 C331.4478 243.4048 339.9767 243.5426 346 241.1333 C350.374 239.3837 352.5485 236.4021 355 233.1333 C355.6648 232.2469 355.1724 229.2023 355 229.1333 C353.9224 228.7023 345 229.1333 345 229.1333 "/>
<path id="48" d="M346 249.1333 C346 249.1333 345.4088 258.711 346 259.1333 C347.1588 259.961 354.7225 260.5726 360 259.1333 C363.6325 258.1426 366.5428 255.6835 368 253.1333 C369.1028 251.2035 368.8222 247.3944 368 245.1333 C367.5422 243.8744 365.58 242.4493 364 242.1333 C362.0078 241.7349 358 243.1333 358 243.1333 "/>
<path id="49" d="M133 158.1333 L157 140.1333 "/>
<path id="50" d="M142 161.1333 C142 161.1333 151.1359 157.7542 156 153.1333 C159.7044 149.6142 162 142.1333 162 142.1333 "/>
<path id="51" d="M164 142.1333 C164 142.1333 173.2639 146.1173 182 148.1333 C185.6054 148.9653 190 148.1333 190 148.1333 "/>
<path id="52" d="M159 140.1333 C159 140.1333 162.9669 133.4345 165 133.1333 C170.9387 132.2535 176.2559 133.7813 186 136.1333 C190.0214 137.104 194 140.1333 194 140.1333 "/>
<path id="53" d="M121 89.1333 C121 89.1333 131.3119 81.4624 142 78.1333 C160.593 72.3421 179.5741 68.8316 182 70.1333 C183.1616 70.7566 183 100.1333 183 100.1333 "/>
<path id="54" d="M96 151.1333 C96 151.1333 99.1925 137.0891 105 127.1333 C108.7724 120.6663 110.5687 119.659 117 115.1333 C123.2682 110.7224 132 108.1333 132 108.1333 "/>
<path id="55" d="M99 153.1333 C99 153.1333 117.7661 155.6226 120 154.1333 C121.5747 153.0835 119.5717 143.1736 123 137.1333 C128.5387 127.3746 140.3239 120.0309 141 117.1333 C141.2077 116.2433 130 107.1333 130 107.1333 "/>
<path id="56" d="M335 154.1333 C335 154.1333 342.2339 157.6823 349 158.1333 C363.6705 159.1114 379.7245 157.0909 380 157.1333 C380.0378 157.1391 377.5934 160.6205 375 162.1333 C372.3247 163.6939 371.4602 163.8188 368 164.1333 C355.4292 165.2761 342 165.1333 342 165.1333 C342 165.1333 359.9999 165.1335 360 165.1333 C360 165.1333 345.8345 162.967 343 162.1333 C342.9068 162.1059 342.971 160.1367 343 160.1333 C345.096 159.8867 360.0001 160.1334 360 160.1333 C359.9998 160.1333 336.0018 157.1338 336 157.1333 C335.9993 157.1331 346 156.1333 346 156.1333 C346 156.1333 334.0159 156.1206 334 156.1333 C333.995 156.1374 337.5194 159.4509 341 160.1333 C361.1997 164.094 384.9996 166.1332 385 166.1333 C385.0002 166.1334 373.2762 166.7966 362 166.1333 C356.5493 165.8127 351.0001 164.1335 351 164.1333 C350.9999 164.1332 361 164.1333 361 164.1333 C361 164.1333 341 164.1333 341 164.1333 C341 164.1333 363.1473 165.3615 366 165.1333 C366.0275 165.1311 365.5233 162.6696 366 162.1333 C368.0833 159.7896 370.5712 156.9126 374 156.1333 C379.0434 154.9871 387.9786 157.1155 388 157.1333 C388.0067 157.1389 379.9999 161.1333 380 161.1333 C380.0002 161.1334 390.0014 158.1334 390 158.1333 C389.9909 158.1332 326 160.1333 326 160.1333 C326 160.1333 351.9987 161.133 352 161.1333 C352.0006 161.1335 339.9997 163.1329 340 163.1333 C340.0005 163.134 353.9504 164.1113 354 164.1333 C354.0126 164.1389 348.9887 167.1316 349 167.1333 C349.0621 167.1426 367.7162 169.6088 374 167.1333 C377.298 165.8341 378.3662 157.1259 382 154.1333 C383.9083 152.5618 391 153.1333 391 153.1333 "/>
<path id="57" d="M393 154.1333 C393 154.1333 392.5391 156.9177 392 157.1333 C388.2753 158.6232 378 160.1333 378 160.1333 "/>
<path id="58" d="M373 160.1333 C373 160.1333 376.9957 160.1205 377 160.1333 C377.0064 160.1526 375.5386 162.4922 374 163.1333 C370.44 164.6167 364.9994 165.1333 365 165.1333 C365.0018 165.1335 391 165.1333 391 165.1333 C391 165.1333 378.0883 165.4765 366 164.1333 C360.5442 163.5271 354.996 161.1353 355 161.1333 C355.0092 161.1288 366.0704 159.5305 376 159.1333 C377.8653 159.0587 380.0013 160.132 380 160.1333 C379.997 160.1363 376.9728 161.0308 374 161.1333 C362.6694 161.524 351 161.1333 351 161.1333 C351 161.1333 371.9963 162.1333 372 162.1333 C372.0005 162.1333 368.9913 161.1367 369 161.1333 C369.0773 161.1033 380.7074 156.9919 390 155.1333 C391.5906 154.8152 394.005 156.1267 394 156.1333 C393.9794 156.1608 387 159.1333 387 159.1333 "/>
<path id="59" d="M187 284.1333 C187 284.1333 201.7151 292.5752 217 298.1333 C234.2648 304.4114 235.437 306.5527 253 308.1333 C283.4187 310.871 286.8194 309.4549 317 307.1333 C323.7752 306.6122 325.1596 305.7129 331 302.1333 C339.7551 296.7673 339.6627 293.4692 348 288.1333 C350.9804 286.2259 356 286.1333 356 286.1333 "/>
<path id="60" d="M208 283.1333 C208 283.1333 226.0348 293.4368 243 295.1333 C282.8354 299.1169 286.0103 295.9903 328 295.1333 C334.4421 295.0019 336.2042 295.1526 341 293.1333 C343.9541 291.8895 347 287.1333 347 287.1333 "/>
<path id="61" d="M281 204.1333 L323 188.1333 "/>
<path id="62" d="M290 220.1333 L326 204.1333 "/>
<path id="63" d="M292 244.1333 L332 225.1333 "/>
<path id="64" d="M281 274.1333 L306 262.1333 "/>
<path id="65" d="M166 140.1333 C166 140.1333 177.8683 139.6473 182 140.1333 C182.319 140.1709 183.0258 142.1294 183 142.1333 C182.4776 142.2137 169 142.1333 169 142.1333 C169 142.1333 184.9312 143.0989 185 143.1333 C185.0167 143.1417 178.9998 147.1341 179 147.1333 C179.0003 147.132 186.0376 139.1533 186 139.1333 C185.6661 138.9566 162.0002 138.1334 162 138.1333 C161.9999 138.1333 174 137.1333 174 137.1333 C174 137.1333 166.0102 137.1435 166 137.1333 C165.9975 137.1308 171 134.1409 171 134.1333 C171 134.1333 166 134.1333 166 134.1333 C166 134.1333 186 134.1333 186 134.1333 C186 134.1333 168 135.1333 168 135.1333 C168.0001 135.1334 189.5031 136.0026 190 136.1333 C190.0435 136.1448 187.0021 140.1271 187 140.1333 C186.9993 140.1354 189 139.1163 189 139.1333 C189 139.2869 187 148.1333 187 148.1333 "/>
<path id="66" d="M157 144.1333 C157 144.1333 153.0487 151.0846 149 155.1333 C147.5084 156.625 143.9988 157.1407 144 157.1333 C144.0039 157.1101 150.0003 149.1333 150 149.1333 C149.9995 149.1333 145.7219 154.3002 141 157.1333 C136.415 159.8844 129.9999 161.1334 130 161.1333 C130.0001 161.1332 144.9965 153.1299 145 153.1333 C145.0015 153.1348 135.0013 166.1299 135 166.1333 C134.9994 166.1349 141.9979 161.1339 142 161.1333 C142.001 161.1331 138.9998 165.1335 139 165.1333 C139.0009 165.1326 159.1893 146.6861 160 146.1333 C160.0412 146.1052 161.4236 149.0319 161 150.1333 C159.675 153.5783 157.1504 156.7142 155 159.1333 C154.7333 159.4334 153.001 159.1478 153 159.1333 C152.892 157.5139 154.0023 144.133 154 144.1333 C153.9924 144.1344 150.1673 155.966 146 160.1333 C143.5691 162.5643 135 163.1333 135 163.1333 C135 163.1333 145.4745 162.1473 151 159.1333 C154.1496 157.4154 155.714 154.7771 157 151.1333 C158.144 147.8921 156.9192 142.3218 157 142.1333 C157.0064 142.1184 159.8045 143.3513 160 144.1333 C160.7109 146.977 161.28 151.5733 160 154.1333 C158.72 156.6933 156.0752 158.4662 152 160.1333 C146.0644 162.5615 138 163.1333 138 163.1333 "/>
</g>
</g>
</svg>
