<?xml version="1.0" encoding="utf-8"?>
<!DOCTYPE svg PUBLIC "-//W3C//DTD SVG 1.1//EN" "http://www.w3.org/Graphics/SVG/1.1/DTD/svg11.dtd">
<svg viewBox="0 0 800 800" preserveAspectRatio="xMinYMin meet" xmlns="http://www.w3.org/2000/svg" version="1.1">
<g fill="none" stroke="black" stroke-linecap="round" stroke-linejoin="round" stroke-width="2.2849">
<g transform="translate(87.52,224.0659) scale(1.3129) translate(-132,-33)">
<path id="0" d="M174 210 C174 210 156.1326 220.1855 145 231 C140.8019 235.0781 139.8226 237.8302 139 244 C137.0924 258.3069 134.9835 267.0938 139 276 C142.6867 284.1749 150.1951 287.2336 162 295 C168.3006 299.1451 169.7959 300.1355 177 301 C193.0398 302.9248 196.9714 303.7831 212 301 C220.9536 299.3419 225.2654 296.9394 231 291 C236.602 285.1979 238.8458 280.7389 240 272 C241.9287 257.3971 242.598 250.6992 238 238 C233.9111 226.7069 228.9085 224.6163 219 214 C215.5811 210.3369 214.6745 209.9777 210 208 C202.256 204.7237 201.3058 204.6612 193 203 C189.3085 202.2617 188.5852 202.1852 185 203 C178.2167 204.5417 171 208 171 208 "/>
<path id="1" d="M132 229 C132 229 141.2753 216.1602 152 206 C159.7801 198.6294 161.0318 198.6051 170 193 C172.4888 191.4445 173.1192 191.113 176 191 C197.3274 190.1636 200.8823 189.8166 221 191 C223.7613 191.1624 225.4671 192.4671 227 194 C227.8516 194.8516 227.1397 197.4494 228 198 C235.6557 202.8996 246.8392 204.8392 252 210 C254.007 212.007 252.1548 220.0418 253 223 C253.1181 223.4135 255.9645 223.6983 256 224 C256.8688 231.3846 257 257 257 257 "/>
<path id="2" d="M207 187 C207 187 217.9106 175.8501 220 166 C223.9763 147.2547 221 121 221 121 "/>
<path id="3" d="M235 191 L237 119 "/>
<path id="4" d="M214 73 C214 73 215.1969 82.9173 215 84 C214.9901 84.0546 212.0113 83.9358 212 84 C211.6363 86.0608 211.0638 92.8082 212 101 C213.0165 109.894 213.9008 117.9504 216 119 C221.9747 121.9874 246.4517 122.1681 252 121 C252.6402 120.8652 251.7927 114.5057 254 111 C259.1842 102.7663 269 94 269 94 "/>
<path id="5" d="M214 117 C214 117 212.1155 120.6507 212 124 C211.6411 134.4073 211.6931 140.7724 213 146 C213.1909 146.7636 216.8641 148.142 218 148 C218.8071 147.8991 221 145 221 145 "/>
<path id="6" d="M214 126 C214 126 215.1037 136.7562 215 138 C214.9986 138.0174 213 138 213 138 "/>
<path id="7" d="M238 157 L244 156 "/>
<path id="8" d="M237 147 C237 147 242.2445 145.5361 244 144 C244.8208 143.2818 244.1055 140.8945 245 140 C246.968 138.032 249.2208 138.5376 252 136 C260.2243 128.4909 259.4022 125.2095 268 119 C276.0572 113.1809 278.5863 111.2764 288 110 C305.241 107.6622 310.5386 108.3662 327 111 C332.0948 111.8152 333.4662 113.8289 338 118 C345.4662 124.8689 345.0098 128.4661 352 134 C355.2439 136.5681 362 137 362 137 "/>
<path id="9" d="M250 178 C250 178 259.732 188.128 268 190 C281.9682 193.1626 288.0376 193.325 303 190 C316.2999 187.0445 317.5498 183.4723 331 176 C335.2606 173.633 335.8733 173.3673 339 170 C341.9438 166.8298 344 162 344 162 "/>
<path id="10" d="M362 137 C362 137 364.4756 141.7822 366 142 C376.024 143.432 382.7247 143.3927 397 142 C401.7847 141.5332 402.8242 140.8517 407 138 C422.5431 127.3852 422.2482 124.5012 438 114 C444.0326 109.9783 445.3803 108.4137 452 108 C497.1576 105.1776 526.7121 108.3973 550 107 C550.5462 106.9672 550.523 103.6113 552 102 C555.2963 98.4041 558.3823 98.9266 561 95 C565.3629 88.4556 566.461 86.3787 568 78 C570.7241 63.1689 566.3529 57.7228 570 46 C571.8707 39.9869 576.9385 36.29 582 33 C583.9801 31.713 587.5071 31.6994 590 33 C596.6251 36.4566 600.0787 39.2102 605 45 C606.9288 47.2691 606.9118 49.0911 607 53 C608.3702 113.7455 609.295 118.8607 608 178 C607.8747 183.7198 606.939 184.761 604 190 C595.8172 204.5868 585 219 585 219 "/>
<path id="11" d="M257 228 C257 228 260.1627 227.8772 262 229 C268.2579 232.8243 269.3558 238.2764 275 239 C300.6875 242.2933 340 239 340 239 "/>
<path id="12" d="M332 240 C332 240 369.0862 246.6764 395 241 C414.5061 236.7272 437 217 437 217 "/>
<path id="13" d="M439 217 L467 206 "/>
<path id="14" d="M467 207 C467 207 479.0567 197.9734 490 196 C506.6448 192.9985 516.583 195.1437 528 196 C528.6685 196.0501 528.8794 198.4397 530 199 C534.4825 201.2412 539.03 200.03 542 203 C546.8262 207.8262 548.0367 215.802 551 220 C551.2687 220.3807 553.3544 219.5158 554 220 C556.0446 221.5334 557.2324 225.8036 559 226 C568.6003 227.0667 579.2821 226.6071 590 224 C592.622 223.3622 594.6593 220.1283 596 217 C596.9805 214.7121 596 210 596 210 "/>
<path id="15" d="M482 216 C482 216 474.0105 215.1237 467 216 C462.6184 216.5477 460.5471 216.5686 458 219 C451.5199 225.1855 446.8492 228.9867 445 237 C442.0263 249.8859 443.339 255.6256 446 271 C447.5094 279.7211 449.0185 281.9211 454 289 C457.5292 294.0152 460.2734 297.3455 465 298 C485.8422 300.8858 498.2209 301.6138 519 298 C525.575 296.8565 528.6727 292.6591 534 286 C539.5936 279.0079 539.4633 277.0024 543 268 C544.7713 263.4913 545 262.8382 545 258 C545 241.5501 545.965 236.4529 543 224 C542.1482 220.4224 539.3879 219.2065 535 216 C526.7483 209.9699 525.3143 206.5243 517 205 C499.5544 201.8016 489.8383 200.8647 475 205 C466.6136 207.3372 456 222 456 222 "/>
<path id="16" d="M187 252 C187 252 190.9786 257.0086 191 257 C191.0407 256.9837 192 250 192 250 C192 250 191 255 191 255 "/>
<path id="17" d="M495 247 C495 247 491.5674 248.7233 491 250 C490.2874 251.6033 490.6294 255.6824 491 256 C491.5044 256.4324 497.7268 256.3187 498 256 C498.2797 255.6737 497 249 497 249 "/>
<path id="18" d="M176 207 C176 207 174.8817 214.9175 176 222 C177.7853 233.3072 180.0074 233.7086 182 245 C182.911 250.1626 182 256 182 256 "/>
<path id="19" d="M193 254 L194 201 "/>
<path id="20" d="M191 255 C191 255 191.914 251.1533 194 249 C206.4428 236.1558 222 223 222 223 "/>
<path id="21" d="M194 255 L242 258 "/>
<path id="22" d="M191 257 C191 257 202.3533 265.4916 214 272 C218.9119 274.7449 220.8085 273.2878 225 276 C228.248 278.1016 231 283 231 283 "/>
<path id="23" d="M189 259 C189 259 190.9363 258.8486 191 259 C192.6292 262.8694 195.6738 268.7164 197 278 C198.5361 288.7529 197.2903 299.4032 197 301 C196.9966 301.0189 193 300 193 300 "/>
<path id="24" d="M191 254 C191 254 193.4013 264.1973 191 269 C184.9967 281.0067 170 296 170 296 "/>
<path id="25" d="M185 256 C185 256 164.3563 280.8969 156 289 C155.5849 289.4025 152 288 152 288 "/>
<path id="26" d="M183 254 C183 254 170.8375 255.5939 160 259 C153.8755 260.9248 153.688 263.3749 148 265 C144.2673 266.0665 139 265 139 265 "/>
<path id="27" d="M180 253 L146 232 "/>
<path id="28" d="M492 247 C492 247 484.3586 244.1659 478 240 C470.1786 234.8757 470.7383 232.2436 463 228 C456.2796 224.3146 447 223 447 223 "/>
<path id="29" d="M497 249 L480 206 "/>
<path id="30" d="M495 256 C495 256 498.3923 239.399 500 223 C500.8641 214.186 500 205 500 205 "/>
<path id="31" d="M498 248 C498 248 507.7652 243.2348 514 237 C519.3111 231.6889 517.9968 229.1804 523 223 C526.1676 219.0871 531 216 531 216 "/>
<path id="32" d="M502 254 L545 253 "/>
<path id="33" d="M499 258 C499 258 514.2272 269.4932 528 278 C529.871 279.1556 533 279 533 279 "/>
<path id="34" d="M496 253 C496 253 500.704 266.0847 503 279 C504.6162 288.0912 504.2314 293.3716 504 298 C503.9866 298.2687 502 299 502 299 "/>
<path id="35" d="M493 255 C493 255 494.2249 263.802 492 270 C487.8473 281.5683 483.9151 283.0354 479 294 C478.1761 295.838 479.4331 298.1338 479 299 C478.7834 299.4331 476 300 476 300 "/>
<path id="36" d="M490 255 C490 255 460.4845 285.0138 456 289 C455.9845 289.0138 454 287 454 287 "/>
<path id="37" d="M489 250 L446 250 "/>
<path id="38" d="M488 252 C488 252 473.8457 256.2194 461 262 C454.2305 265.0463 448 270 448 270 "/>
<path id="39" d="M236 190 C236 190 237.9661 189.8983 238 190 C238.644 191.9321 240 202 240 202 "/>
</g>
</g>
</svg>
