<?xml version="1.0" encoding="utf-8"?>
<!DOCTYPE svg PUBLIC "-//W3C//DTD SVG 1.1//EN" "http://www.w3.org/Graphics/SVG/1.1/DTD/svg11.dtd">
<svg viewBox="0 0 800 800" preserveAspectRatio="xMinYMin meet" xmlns="http://www.w3.org/2000/svg" version="1.1">
<g fill="none" stroke="black" stroke-linecap="round" stroke-linejoin="round" stroke-width="1.5985">
<g transform="translate(87.52,206.6941) scale(1.8768) translate(-163,-150)">
<path id="0" d="M184 284 C184 284 181.9407 302.5231 183 317 C183.2668 320.646 184.3913 321.7774 187 325 C192.4607 331.7455 193.1759 334.3113 200 338 C209.4671 343.1174 212.3784 343.6054 224 345 C236.1082 346.453 245.462 347.1514 250 344 C254.5333 340.8519 256.4655 332.1498 260 320 C264.3011 305.215 267.7338 296.6288 266 289 C265.0267 284.7176 258.0392 280.764 250 276 C245.6664 273.4319 244.3862 273.404 239 273 C225.0847 271.9564 222.1813 270.4082 210 273 C201.5455 274.7988 198.9315 277.6439 192 283 C189.465 284.9589 188 290 188 290 "/>
<path id="1" d="M402 282 C402 282 393.8856 280.7375 391 282 C388.885 282.9253 387.4158 285.382 386 289 C383.2235 296.0956 382.8267 297.0635 382 305 C380.3833 320.5205 377.3821 331.935 381 337 C385.9394 343.9152 399.3079 347.6575 417 354 C424.4464 356.6695 427.6794 357.4872 434 356 C441.4003 354.2588 443.8727 351.6424 451 346 C455.0404 342.8014 455.4365 341.7852 458 337 C462.6818 328.2607 464.0753 327.1423 466 318 C467.768 309.6021 468.6229 304.2459 466 299 C462.7558 292.5117 457.611 287.9311 449 284 C437.5396 278.7681 434.3401 279.8704 420 278 C411.8146 276.9323 410.4987 277.0219 403 278 C400.1808 278.3677 397 281 397 281 "/>
<path id="2" d="M410 312 C410 312 413.7676 319.2987 417 321 C420.4498 322.8157 426.4228 322.9665 429 322 C430.4688 321.4492 432.2293 318.3913 433 315 C434.4839 308.4708 434.3403 306.4648 434 300 C433.9065 298.2244 432.7296 296.1717 432 296 C428.279 295.1245 423.5945 295.0579 417 296 C414.1738 296.4037 413.5401 297.1526 411 299 C408.3188 300.95 406.845 301.8031 406 304 C405.0236 306.5387 405.0629 309.7508 406 312 C406.7126 313.7103 411 316 411 316 "/>
<path id="3" d="M231 290 C231 290 226.6906 296.801 225 303 C223.9604 306.8118 223.6468 308.8875 225 312 C227.7588 318.3452 230.1193 321.4064 235 326 C236.8705 327.7605 241.9104 328.128 242 328 C242.3707 327.4704 243.6397 320.4273 242 316 C239.4442 309.0994 237.1065 305.8377 232 301 C229.5023 298.6337 223 298 223 298 "/>
<path id="4" d="M233 224 C233 224 208.3661 222.1816 188 224 C182.8196 224.4625 181.2308 225.6154 177 229 C169.6667 234.8667 163.0241 243.9553 163 244 C162.9938 244.0114 168.3405 241.2256 170 242 C178.3337 245.8891 182.1734 253.9099 193 258 C201.3416 261.1513 206.9972 261.8158 215 259 C229.4311 253.9224 247 239 247 239 "/>
<path id="5" d="M199 265 C199 265 194.2776 263.79 192 265 C180.927 270.8825 172.81 274.2534 167 282 C163.6684 286.4421 165 300.9998 165 301 C165 301 164.9726 297.9163 166 297 C179.9156 284.5888 183.9799 277.6825 202 268 C214.1438 261.475 217.8773 262.7791 233 261 C242.4482 259.8884 243.4507 260.5531 253 262 C259.4476 262.9769 261.4706 262.6785 266 266 C274.5849 272.2956 278.7054 276.1687 283 284 C285.0434 287.7261 281.9442 292.5128 283 297 C283.4013 298.7055 286.9978 301.0281 287 301 C287.0175 300.773 289.8085 276.5628 285 271 C274.186 258.4897 257.915 253.1497 236 242 C233.2501 240.6009 228 242 228 242 "/>
<path id="6" d="M369 300 C369 300 367.5994 292.802 369 288 C370.6389 282.381 371.6326 280.8812 376 276 C387.9945 262.5944 389.2216 261.0227 403 250 C408.1309 245.8953 409.711 245.0482 416 244 C429.1021 241.8163 432.4941 240.9157 445 243 C453.8915 244.4819 455.6271 246.4978 464 252 C472.4689 257.5653 475.073 258.2122 480 266 C489.087 280.3634 489.8572 283.9645 495 301 C497.3812 308.8876 496.0827 319.026 496 319 C495.4396 318.8239 478.5778 302.1822 460 290 C449.1223 282.8671 447.5334 283.1778 435 279 C427.1302 276.3767 426.4316 276.5499 418 276 C403.7803 275.0726 395.0114 272.9172 389 276 C384.8011 278.1533 379 296 379 296 "/>
<path id="7" d="M324 219 C324 219 298.3606 216.7179 274 218 C261.1908 218.6742 255.0081 220.9235 248 223 C247.5183 223.1427 246.6941 225.553 247 226 C250.3783 230.9376 253.1397 235.403 261 242 C280.4921 258.3594 281.9966 258.5859 303 273 C306.8987 275.6756 307.8304 276.7594 312 277 C331.3973 278.1191 337.6483 280.7539 355 276 C369.1164 272.1325 371.3717 267.3044 385 257 C391.1661 252.3378 391.5001 251.3945 396 245 C400.7025 238.3175 399.1618 235.8059 404 230 C408.2427 224.9087 413.0966 224.6293 416 221 C416.9366 219.8293 415.1199 217.263 416 215 C418.1594 209.4472 421.0181 209.111 423 203 C426.6974 191.5997 423.2321 187.3191 428 178 C432.6191 168.9718 437.3059 164.4299 445 160 C449.6607 157.3165 458.2515 157.2029 461 159 C464.8989 161.5493 467.5447 168.7073 471 177 C471.9353 179.2447 471.8266 180.8507 471 183 C469.7706 186.1964 467.8921 189.4594 466 190 C461.7525 191.2136 455.111 191.1296 450 189 C446.3419 187.4758 444.1441 184.2882 442 180 C440.4332 176.8663 441 171 441 171 "/>
<path id="8" d="M320 215 C320 215 327.9073 215.8168 332 219 C339.6437 224.9451 339.1158 228.4443 347 236 C350.7164 239.5616 351.8089 241.3294 356 242 C373.387 244.7819 396.6574 244.0185 397 244 C397.0317 243.9983 393.1914 241.6585 393 240 C390.9313 222.071 396.4354 212.3238 391 192 C386.1154 173.7358 380.5664 171.0688 370 154 C368.53 151.6253 365 150 365 150 "/>
<path id="9" d="M359 150 C359 150 355.5598 167.6891 356 170 C356.0529 170.2775 361.1994 171.9003 363 171 C368.1247 168.4377 372.5781 164.4748 376 160 C376.9804 158.7179 376.596 155.5893 376 154 C375.6896 153.1722 374.2398 152.0827 373 152 C368.2783 151.6852 361 153 361 153 "/>
<path id="10" d="M320 225 C320 225 260 224 260 224 C260 224 267.4441 223.4323 274 225 C289.8342 228.7864 290.5138 231.0292 306 235 C309.1363 235.8042 310.0128 235.8713 313 235 C321.1259 232.6299 327.4426 230.0779 330 228 C330.4368 227.6451 330.1078 223.8463 329 222 C327.8251 220.0419 326.1695 218.3214 324 218 C315.4657 216.7357 312.8066 217.0521 302 218 C284.5923 219.527 267 222.9925 267 223 C267 223.018 284.7866 231.2704 302 235 C313.5443 237.5013 324.2097 236.4465 327 236 C327.0899 235.9856 327.6206 231.5251 327 231 C324.3483 228.7563 320.2091 226.1642 314 225 C305.6479 223.434 294.9998 225 295 225 C295.0004 225.0001 340.9999 231 341 231 C341 231 321 230 321 230 C321 230 335 232 335 232 "/>
</g>
</g>
</svg>
