<?xml version="1.0" encoding="utf-8"?>
<!DOCTYPE svg PUBLIC "-//W3C//DTD SVG 1.1//EN" "http://www.w3.org/Graphics/SVG/1.1/DTD/svg11.dtd">
<svg viewBox="0 0 800 800" preserveAspectRatio="xMinYMin meet" xmlns="http://www.w3.org/2000/svg" version="1.1">
<g fill="none" stroke="black" stroke-linecap="round" stroke-linejoin="round" stroke-width="2.2177">
<g transform="translate(87.52,246.4655) scale(1.3527) translate(-83,-139.4167)">
<path id="0" d="M191 249.4167 C191 249.4167 207.1718 233.2532 224 219.4167 C229.1814 215.1564 230.336 213.4236 236 212.4167 C250.1884 209.8943 255.5247 210.3801 269 211.4167 C271.5817 211.6153 271.9311 214.3426 275 215.4167 C281.2415 217.6012 283.9605 216.1769 289 218.4167 C291.045 219.3256 290.6308 221.8619 293 223.4167 C305.5274 231.6378 306.8039 234.064 321 239.4167 C335.8663 245.022 337.6777 244.6589 354 246.4167 C369.4742 248.0831 371.3262 248.8623 386 246.4167 C399.6039 244.1494 400.0602 239.9758 414 236.4167 C422.9017 234.1439 424.5343 237.2386 433 234.4167 C456.1012 226.7163 457.4685 225.5143 480 214.4167 C490.4642 209.2626 491.5674 208.0161 500 201.4167 C501.932 199.9047 501.6483 196.9574 503 196.4167 C506.3523 195.0757 509.8897 195.0973 515 195.4167 C516.7658 195.527 518.7623 196.644 519 197.4167 C519.8095 200.0474 520.8962 205.8883 519 208.4167 C510.1221 220.2538 504.4202 224.1481 489 237.4167 C483.4205 242.2176 482.8082 242.4989 476 245.4167 C455.3387 254.2715 451.8508 252.5457 433 261.4167 C428.611 263.4821 429.3511 266.3088 425 269.4167 C419.2892 273.4958 418.6956 273.6268 412 276.4167 C400.9225 281.0323 400.1949 283.2846 389 284.4167 C357.9196 287.5596 355.8394 286.0422 323 285.4167 C303.5608 285.0464 300.9573 286.185 284 282.4167 C276.7326 280.8017 276.2694 276.3244 269 273.4167 C264.9354 271.7908 263.4212 273.8314 259 272.4167 C251.6142 270.0532 251.5209 267.4493 244 265.4167 C233.8438 262.6718 231.5119 265.1782 222 262.4167 C217.5325 261.1197 217.4157 257.725 213 256.4167 C205.3826 254.1597 203.5951 256.0696 195 254.4167 C190.9902 253.6455 188.978 252.9552 187 251.4167 C186.213 250.8046 186 247.4167 186 247.4167 "/>
<path id="1" d="M253 159.4167 C253 159.4167 250.454 166.8423 246 171.4167 C232.9308 184.8391 230.2058 183.8565 216 197.4167 C208.4141 204.6577 208.2767 204.9481 202 213.4167 C176.9381 247.2304 178.8032 249.4278 153 282.4167 C139.6652 299.465 123 314.4167 123 314.4167 "/>
<path id="2" d="M190 284.4167 C190 284.4167 189.202 279.3646 187 277.4167 C178.0998 269.5434 174.8718 264.0649 164 261.4167 C141.4739 255.9296 109 258.4167 109 258.4167 "/>
<path id="3" d="M166 293.4167 C166 293.4167 155.6711 280.049 147 277.4167 C133.4416 273.3007 127.8066 276.021 110 276.4167 C106.1262 276.5028 104.4408 276.5501 102 278.4167 C97.5402 281.8271 96.0163 283.5428 93 289.4167 C86.9883 301.1238 85.5161 303.1155 83 315.4167 C81.4035 323.222 81.3318 326.4793 84 333.4167 C87.8293 343.3728 90.3174 347.8638 98 354.4167 C104.4577 359.9247 108.2541 360.8504 118 362.4167 C134.5567 365.0776 141.0709 366.2611 154 363.4167 C160.0129 362.0938 163.3 357.9071 168 351.4167 C172.6853 344.9465 173.9226 342.5743 175 334.4167 C177.1639 318.0327 177.4474 310.3816 175 298.4167 C174.331 295.146 166 290.4167 166 290.4167 "/>
<path id="4" d="M308 296.4167 C308 296.4167 306.0702 293.4518 304 292.4167 C300.8947 290.864 299.9157 290.5833 296 290.4167 C277.1121 289.6129 264.6457 288.5963 257 290.4167 C255.9451 290.6678 253.5938 300.1431 254 300.4167 C261.341 305.3606 279.9912 312.5098 306 323.4167 C310.7499 325.4086 311.1153 325.944 316 326.4167 C325.9685 327.3814 334.031 327.8366 337 326.4167 C338.0266 325.9257 340.1954 316.9924 339 315.4167 C334.4357 309.4001 327.0172 305.3029 315 297.4167 C311.6549 295.2215 307 294.4167 307 294.4167 "/>
<path id="5" d="M531 297.4167 C531 297.4167 528.3626 291.3381 525 289.4167 C516.5481 284.587 513.6774 283.1599 503 281.4167 C490.6303 279.3971 487.7693 279.4073 476 281.4167 C469.3764 282.5475 467.9148 284.0943 462 288.4167 C455.5734 293.113 454.6954 293.8839 450 300.4167 C443.6469 309.2557 441.9523 311.0229 439 320.4167 C437.1121 326.4237 437.9021 328.3899 439 335.4167 C440.3015 343.7463 440.1239 348.2424 444 352.4167 C449.4624 358.2992 454.4489 359.1962 465 363.4167 C471.3141 365.9423 472.0898 365.9848 479 366.4167 C495.56 367.4517 498.0288 368.959 513 366.4167 C522.0392 364.8817 523.5444 362.49 532 357.4167 C535.3268 355.4206 536.0509 354.7151 538 351.4167 C542.1117 344.4585 543.4643 343.0954 545 335.4167 C546.677 327.0319 546.7533 324.4316 545 316.4167 C543.6591 310.2869 542.2325 308.8249 538 303.4167 C533.7376 297.9702 527 293.4167 527 293.4167 "/>
<path id="6" d="M246 139.4167 C246 139.4167 253.5399 147.4406 255 154.4167 C257.4215 165.9858 253.4248 171.7052 255 182.4167 C255.3789 184.9933 260 188.4167 260 188.4167 "/>
<path id="7" d="M494 246.4167 C494 246.4167 468.7744 256.3729 450 267.4167 C445.9041 269.826 444.0273 273.3349 443 276.4167 C442.5166 277.8669 444.1083 281.8816 445 282.4167 C446.2739 283.181 450.1971 283.7906 453 282.4167 C472.3591 272.9269 476.4441 269.8992 496 257.4167 C498.3854 255.8941 499.2468 254.6764 500 252.4167 C500.8325 249.9191 500.3808 245.6388 500 245.4167 C498.8808 244.7638 488 245.4167 488 245.4167 "/>
<path id="8" d="M496 313.4167 C496 313.4167 453.7139 303.1844 412 299.4167 C377.2647 296.2793 376.1117 300.8211 341 299.4167 C326.5795 298.8399 326.3741 295.9916 312 295.4167 C289.3445 294.5105 284.3742 294.6153 266 296.4167 C263.8507 296.6274 261.3995 298.9186 261 300.4167 C260.196 303.4316 260.34 307.6817 262 311.4167 C263.4666 314.7165 265.2585 315.9957 269 318.4167 C273.0851 321.06 273.9704 321.3498 279 322.4167 C289.9583 324.7411 290.5504 324.8345 302 325.4167 C319.8031 326.3219 320.3545 323.8125 338 325.4167 C363.8444 327.7662 364.0568 331.6871 390 333.4167 C445.903 337.1435 487.576 337.7697 503 336.4167 C503.2928 336.391 505.4599 326.6284 504 323.4167 C502.3709 319.8326 493 314.4167 493 314.4167 "/>
<path id="9" d="M499 320.4167 C499 320.4167 493.8886 318.1205 493 318.4167 C492.2225 318.6758 489.9585 323.4045 490 323.4167 C490.5424 323.5762 509.9348 323.4353 510 323.4167 C510.0158 323.4121 504 319.4167 504 319.4167 "/>
<path id="10" d="M124 314.4167 C124 314.4167 121.8163 311.912 120 311.4167 C117.3613 310.697 114.9035 310.7822 113 311.4167 C112.1842 311.6886 111.1609 313.2905 111 314.4167 C110.8111 315.7386 111.2283 317.9022 112 318.4167 C114.8763 320.3342 117.9319 321.6164 123 322.4167 C126.417 322.9562 130.1156 322.08 131 321.4167 C131.379 321.1324 131.547 317.6929 131 316.4167 C130.6406 315.578 128 314.4167 128 314.4167 "/>
</g>
</g>
</svg>
