<?xml version="1.0" encoding="utf-8"?>
<!DOCTYPE svg PUBLIC "-//W3C//DTD SVG 1.1//EN" "http://www.w3.org/Graphics/SVG/1.1/DTD/svg11.dtd">
<svg viewBox="0 0 800 800" preserveAspectRatio="xMinYMin meet" xmlns="http://www.w3.org/2000/svg" version="1.1">
<g fill="none" stroke="black" stroke-linecap="round" stroke-linejoin="round" stroke-width="0.99846">
<g transform="translate(87.52,246.7646) scale(3.0046) translate(-186,-84)">
<path id="0" d="M238,145C238,145 236.04135723930537,127.64147361387701 239,115C240.8926152494521,106.91337120688656 243.12381578597964,105.10038925860792 249,98C254.48336971676662,91.37426159224034 256.45485056367545,88.0362687135232 263,86C274.6713629672805,82.36890929906829 280.62527131637927,82.16425292577754 294,84C303.24367017508694,85.26873904363938 305.37047173753524,87.41618759487573 314,93C321.489408355351,97.84608775934475 323.344853824856,98.77649731443166 328,106C336.807668091216,119.66707117602485 338.44071414735674,122.80238049118912 343,138C345.2484149410296,145.49471647009852 345.384660622771,149.18668393494008 343,156C339.4362571804145,166.1821223416729 336.05395516462033,168.71848004655217 329,178C327.53042600737075,179.93364999030163 326.59693730958793,179.77791185431158 324,181C318.1866724445922,183.73568355548602 317.749172803264,185.2629265636841 312,186C299.72032664941787,187.57431709622847 296.2826350281315,189.05969763474752 285,186C269.8148339608827,181.88198887074785 266.8014323394318,179.30096527222577 253,170C245.22266846319621,164.75875483389308 244.35061483381875,162.35709539650077 239,155C237.20358418936772,152.52992826038061 237,148 237,148"/>
<path id="1" d="M240,135C240,135 228.75508572221486,134.27851428431504 219,136C212.60499935988136,137.12852952472681 211.49174923645552,137.50525048589196 206,141C195.7569620982965,147.5182968465386 190.4670729189272,150.29939062160923 186,157C183.8679879250575,160.19801811241376 184.22182033843,167.74000395378835 186,171C187.84745938864415,174.38700887918094 191.8281506163542,176.03751229585 198,179C203.81338338409063,181.7904240243635 204.64449653317845,182.2055620666473 211,183C219.9447826570081,184.118097832126 220.88003623407906,184.1895604912071 230,183C243.3355991909004,181.2605740185782 243.83611999061534,180.8479033873586 257,177C276.136576771267,171.40623140532193 275.94066927441963,169.06263472398228 295,164C307.44280468025073,160.6948800068084 308.32624986664524,162.84512758095718 321,160C332.5775380580873,157.40096084410283 332.8456028696904,157.15047335081286 344,153C354.1716754939426,149.21519051388182 355.21967058996637,149.7263017891524 364,144C377.4730096661525,135.21325456555272 381.6787622821652,133.26285985199624 390,123C393.8052159634543,118.3069003117397 394.5691609702477,111.36356743856576 394,107C393.7090244477947,104.76918743309278 390.585852618186,101.79292630909297 387,100C382.04810828917175,97.52405414458587 380.41527106406766,97.60143166225634 374,97C364.822388689522,96.13959893964268 363.3988530220182,95.09116976772313 355,97C342.94423011193555,99.73994770183283 330,107 330,107"/>
<path id="2" d="M334,113C334,113 344.20642412605747,108.46903638109137 354,107C363.37184294157174,105.59422355876424 365.671951310318,106.27582185307112 374,107C375.3216251181452,107.11492392331698 376.80449985513553,108.21799942054204 377,109C377.710909617689,111.84363847075619 378.60788531444785,116.93271888142421 377,119C371.64038228517387,125.89093706191927 366.4047477844198,132.92104402297784 356,136C323.8027914503295,145.5277453871474 313.5785343619118,138.03141351728666 279,148C261.9101275698714,152.92681006994698 261.4367837822398,161.54269208554865 245,168C236.05233101273976,171.5151556735665 231.7450747445571,171.28604040361134 223,170C217.75058521431057,169.2280272373986 215.867477055615,167.13735549727278 211,163C206.52571746976892,159.1968598493036 204.0375756216472,156.97737321631428 203,153C201.92883380067357,148.89386290258204 204.0446203828248,140.36982436793878 205,140C208.88725559832287,138.4952558974234 234,141 234,141"/>
<path id="3" d="M262,131C262,131 261.87671232876715,128.04623287671234 262,128C262.8767123287671,127.67123287671232 269.0586007442168,127.24688059537345 270,128C270.98846921857233,128.79077537485787 272.2494613397672,135.25161598069837 272,136C271.9092867855392,136.27213964338242 267.3728245777991,137.07456491555982 267,137C266.96893128518343,136.99378625703667 267,135 267,135"/>
<path id="4" d="M295,123C295,123 293.03767980914364,123.73624133599456 293,124C292.82834753612343,125.2015672471359 293.67587622396183,129.85594498842747 294,130C294.6286036868619,130.27937941638305 300.93430271858596,128.93248512123728 302,128C302.4781974980704,127.58157718918841 302.3048780487805,123.3810975609756 302,123C301.8048780487805,122.7560975609756 298,123 298,123"/>
<path id="5" d="M320,122C320,122 318.6195518895185,130.42932783427776 319,131C319.21305094186965,131.31957641280445 323.3612692307692,131.71965384615385 326,131C327.81626923076925,130.50465384615384 329.2713846153846,129.2750769230769 330,128C330.5513846153846,127.03507692307693 330.2439024390244,124.1951219512195 330,124C329.6189024390244,123.6951219512195 325,124 325,124"/>
<path id="6" d="M318,170C318,170 316.05,169.9 316,170C315.8,170.4 315.9388854382,173.9694427191 316,174C316.0916718427,174.04583592135 319.43611575626926,172.8458263655961 320,172C320.4833293517692,171.27500597234618 320.292117445358,168.15933678837706 320,168C318.381182490308,167.11700863107708 309,166 309,166"/>
<path id="7" d="M292,172C292,172 294.3094478892109,175.94340493075683 296,177C296.9490818867588,177.59317617922423 299.56688611699155,177.43311388300842 300,177C300.86622776601683,176.13377223398316 302.2418363566616,171.64489695109768 302,171C301.8215017367497,170.52400463133267 297,169 297,169"/>
</g>
</g>
</svg>
