<?xml version="1.0" encoding="utf-8"?>
<!DOCTYPE svg PUBLIC "-//W3C//DTD SVG 1.1//EN" "http://www.w3.org/Graphics/SVG/1.1/DTD/svg11.dtd">
<svg viewBox="0 0 800 800" preserveAspectRatio="xMinYMin meet" xmlns="http://www.w3.org/2000/svg" version="1.1">
<g fill="none" stroke="black" stroke-linecap="round" stroke-linejoin="round" stroke-width="0.84965">
<g transform="translate(87.52,188.1492) scale(3.5308) translate(-188,-127)">
<path id="0" d="M283 130 C283 130 267.074 128.4965 254 131 C245.2522 132.6751 244.2317 134.2203 236 139 C229.1637 142.9695 227.7717 143.3608 223 149 C217.6341 155.3416 215.3512 157.433 214 165 C210.9165 182.2675 211.6262 186.4531 213 205 C213.4945 211.6755 214.2165 213.6401 218 219 C225.2115 229.2162 227.0376 231.3147 237 239 C243.1924 243.777 245.289 244.9544 253 246 C272.6245 248.6609 276.9178 249.4231 296 247 C305.4104 245.805 306.7101 243.2256 316 238 C322.3245 234.4424 322.3533 233.7997 328 229 C332.253 225.3849 333.8623 224.8003 336 221 C337.4643 218.3968 336.925 216.9771 337 213 C337.4211 190.6814 340.4649 186.7682 337 168 C335.2895 158.7346 331.5565 157.1791 325 148 C321.8529 143.594 321.4297 142.9532 317 140 C307.0331 133.3554 305.5555 130.7444 295 128 C283.1251 124.9125 267 127 267 127 "/>
<path id="1" d="M211 188 C211 188 196.9277 201.6506 190 214 C187.0437 219.2698 186.7139 224.2231 188 229 C189.1937 233.4339 193.2095 239.1355 197 240 C212.9594 243.6399 224.396 246.5584 245 242 C275.7489 235.1972 279.2276 230.666 310 215 C333.3546 203.1104 335.0084 201.2663 355 186 C360.9331 181.4693 363.7051 178.8268 365 173 C367.722 160.7509 365.6833 152.6167 365 141 C364.9548 140.2313 364.1157 139.5579 363 139 C356.6777 135.8388 355.5787 133.731 349 133 C335.1448 131.4605 330.7018 132.5484 318 134 C316.2271 134.2026 314 137 314 137 "/>
<path id="2" d="M212 191 C212 191 206.4794 199.0963 205 206 C203.8537 211.3496 204.3005 213.9014 206 219 C207.2747 222.824 209.6489 226.5851 212 227 C226.3304 229.5289 236.5385 230.4072 257 228 C267.9682 226.7096 269.1686 224.5045 280 219 C299.3188 209.1822 300.2395 209.1363 318 197 C329.7157 188.9943 330.0605 187.9395 340 178 C344.1213 173.8787 345.9511 172.3703 347 168 C348.3255 162.4772 348.0244 158.3984 346 153 C344.42 148.7866 342.2112 147.6096 338 144 C335.703 142.0311 334.8227 141.3849 332 141 C324.9533 140.0391 316 141 316 141 "/>
<path id="3" d="M280 158 C280 158 276.3638 160.9387 276 163 C275.2462 167.2714 275.6375 170.64 277 175 C277.581 176.8591 279.629 178.8172 281 179 C284.246 179.4328 287.688 178.54 292 177 C293.4987 176.4648 294.7053 175.277 295 174 C295.7981 170.5414 296.215 167.645 295 164 C293.785 160.355 291.8512 158.1384 289 156 C287.3962 154.7972 283 155 283 155 "/>
<path id="4" d="M254 188 C254 188 251.3104 189.1722 251 190 C250.404 191.5893 250.2463 194.1158 251 196 C251.7034 197.7586 254.4718 200.088 255 200 C256.4261 199.7623 262.4244 195.3815 263 194 C263.293 193.2969 261.2289 189.0534 260 188 C259.3963 187.4826 256 188 256 188 "/>
<path id="5" d="M295 195 C295 195 290.3314 196.3371 290 197 C289.5949 197.8102 289.9548 201.4322 291 203 C291.9929 204.4894 295.0351 206 296 206 C296.579 206 298.7334 204.0664 299 203 C299.3377 201.6493 298 198 298 198 "/>
<path id="6" d="M237 159 C237 159 233.3167 159.4299 233 160 C232.159 161.5137 231.2786 165.4752 232 168 C232.6947 170.4313 234.8478 172.9239 237 174 C238.8831 174.9416 242.0858 174.8701 244 174 C245.7153 173.2203 247.0978 171.2556 248 169 C248.6835 167.2912 248.7737 165.5475 248 164 C246.4525 160.905 242 157 242 157 "/>
</g>
</g>
</svg>
