<?xml version="1.0" encoding="utf-8"?>
<!DOCTYPE svg PUBLIC "-//W3C//DTD SVG 1.1//EN" "http://www.w3.org/Graphics/SVG/1.1/DTD/svg11.dtd">
<svg viewBox="0 0 800 800" preserveAspectRatio="xMinYMin meet" xmlns="http://www.w3.org/2000/svg" version="1.1">
<g fill="none" stroke="black" stroke-linecap="round" stroke-linejoin="round" stroke-width="2.6834">
<g transform="translate(87.52,249.0705) scale(1.118) translate(-50,-117)">
<path id="0" d="M156 200 C156 200 160.8593 178.28 168 159 C170.5083 152.2277 171.3468 151.5839 176 146 C180.9687 140.0376 181.4984 138.2508 188 135 C205.6471 126.1764 208.0022 126.3151 228 120 C236.0226 117.4665 236.5744 117.4435 245 117 C264.6424 115.9662 265.8253 114.6616 285 117 C305.718 119.5266 308.2687 118.7647 327 127 C364.1528 143.3344 364.8271 147.0807 401 168 C405.8305 170.7935 406.5313 170.9836 410 175 C415.55 181.4263 416.3254 182.2185 420 190 C424.5285 199.5899 426.0359 210.0962 427 211 C427.1219 211.1143 431.3047 206.8497 436 205 C447.0558 200.6447 447.8876 200.3071 460 198 C489.5069 192.3796 490.2257 192.5729 520 189 C527.312 188.1226 528.3082 187.3998 535 189 C550.0031 192.5877 551.9822 193.1402 566 200 C574.4271 204.1239 576.0733 205.0275 582 212 C592.0244 223.7934 593.0653 225.617 600 240 C606.1143 252.6814 606.8412 254.3276 609 268 C611.1279 281.4768 611.7773 286.1433 609 297 C607.3898 303.2946 604.0738 304.9262 598 311 C591.9262 317.0738 591.5142 318.4639 584 322 C558.9679 333.7798 557.2705 333.5602 530 343 C505.4343 351.5035 505.1964 351.8198 480 358 C452.4478 364.7581 452.1245 364.5431 424 369 C360.7538 379.0226 360.1867 382.7561 297 387 C227.5094 391.6673 223.6234 393.2326 156 387 C118.6664 383.5591 116.2166 378.2674 80 367 C72.7371 364.7404 72.0326 363.5244 66 359 C62.6067 356.455 62.2461 355.7903 60 352 C54.4832 342.6904 51.8602 341.487 50 332 C47.3741 318.6081 48.0149 315.6402 50 301 C51.8625 287.2643 52.582 285.8999 58 273 C62.7442 261.7043 63.9732 261.5403 71 251 C76.8812 242.1783 76.8153 241.4324 84 234 C90.9174 226.8441 91.7255 224.3388 100 221 C117.5398 213.9225 121.147 217.2395 141 211 C155.7388 206.3678 170 199 170 199 "/>
<path id="1" d="M163 202 C163 202 165.6686 200.0179 168 200 C287.0017 199.0881 424 200 424 200 "/>
<path id="2" d="M242 130 L253 219 "/>
<path id="3" d="M346 140 C346 140 344.0194 141.253 344 142 C343.2908 169.3023 344 217 344 217 "/>
<path id="4" d="M106 319 C106 319 113.0333 308.2947 120 303 C123.5366 300.3122 125.599 300.5787 131 300 C139.11 299.1311 140.8352 298.4647 148 300 C153.1779 301.1096 157.3205 303.0009 159 306 C161.8562 311.1004 162.6952 319.2065 162 325 C161.7494 327.0886 158.6151 330.1742 156 331 C151.6938 332.3598 147.3636 333.1333 143 331 C128.6485 323.9837 111 309 111 309 "/>
<path id="5" d="M273 308 C273 308 277.0483 300.8434 280 300 C286.6755 298.0927 294.5996 297.4786 301 300 C306.2182 302.0557 312.174 309.4208 313 313 C313.6084 315.6364 311.013 321.2574 307 326 C301.1086 332.9626 297.2217 336.4652 291 339 C288.0244 340.2123 284.3263 339.2329 280 337 C270.2106 331.9474 260 323 260 323 "/>
<path id="6" d="M412 290 C412 290 416.1934 285.4009 419 285 C423.9895 284.2872 431.6148 285.13 433 287 C436.2971 291.4511 437.1054 299.6854 439 312 C440.0232 318.6506 439.6277 320.9786 439 326 C438.8991 326.807 437.8113 327.8918 437 328 C432.3471 328.6204 429.5443 329.5401 424 328 C413.0061 324.9461 410.2085 323.7156 401 318 C397.5427 315.8541 395.9907 313.6325 395 310 C393.5607 304.7225 395 296 395 296 "/>
<path id="7" d="M510 277 C510 277 517.1007 275.4403 521 277 C527.3807 279.5523 530.5023 281.4314 535 287 C539.5707 292.659 539.7742 295.3688 542 303 C542.9869 306.3838 542.9668 309.0663 542 311 C541.154 312.692 538.8897 314.2395 536 315 C530.5656 316.4301 527.1722 317.6949 523 316 C514.8213 312.6774 513.1037 309.283 504 302 C500.7444 299.3955 499.7002 298.9146 498 296 C496.8218 293.9802 497 290 497 290 "/>
</g>
</g>
</svg>
