<?xml version="1.0" encoding="utf-8"?>
<!DOCTYPE svg PUBLIC "-//W3C//DTD SVG 1.1//EN" "http://www.w3.org/Graphics/SVG/1.1/DTD/svg11.dtd">
<svg viewBox="0 0 800 800" preserveAspectRatio="xMinYMin meet" xmlns="http://www.w3.org/2000/svg" version="1.1">
<g fill="none" stroke="black" stroke-linecap="round" stroke-linejoin="round" stroke-width="2.0833">
<g transform="translate(87.52,232.24) scale(1.44) translate(-78,-100.4167)">
<path id="0" d="M177 211.4167 C177 211.4167 174.7108 193.2968 177 178.4167 C178.4034 169.2944 180.216 168.3322 185 159.4167 C191.0613 148.1205 191.1225 147.3271 199 137.4167 C206.2556 128.2887 206.8069 125.6942 216 120.4167 C231.4725 111.5343 234.3718 111.5203 253 106.4167 C270.1722 101.712 271.128 102.2342 289 100.4167 C300.2279 99.2748 301.2921 98.5381 312 100.4167 C328.6458 103.337 330.0779 104.3188 346 110.4167 C352.7611 113.006 353.3535 113.7112 359 118.4167 C367.9483 125.8736 369.0265 126.187 376 135.4167 C385.5438 148.0481 393 163.4167 393 163.4167 "/>
<path id="1" d="M176 212.4167 C176 212.4167 201.693 219.3078 227 221.4167 C254.8744 223.7395 256.0333 222.566 284 221.4167 C291.9108 221.0916 292.1913 220.4246 300 218.4167 C309.5646 215.9572 310.8791 217.1182 319 212.4167 C356.7136 190.5825 395 163.4167 395 163.4167 "/>
<path id="2" d="M179 213.4167 C179 213.4167 164.7425 217.1902 152 223.4167 C121.1792 238.4768 118.8182 239.3284 91 256.4167 C85.8168 259.6006 84.8066 261.2353 82 266.4167 C78.9497 272.0479 78.8861 273.5495 78 280.4167 C76.9623 288.4589 76.4525 291.2267 78 297.4167 C78.7737 300.5117 80.7144 301.2954 84 304.4167 C90.5971 310.6839 90.6239 311.7451 98 316.4167 C104.9777 320.8359 105.8601 321.3817 114 323.4167 C137.044 329.1777 138.1872 330.9284 162 332.4167 C216.9503 335.8511 218.8507 333.8614 274 333.4167 C279.9172 333.369 280.1991 332.9922 286 331.4167 C320.4228 322.0673 321.3843 323.2668 355 311.4167 C390.4601 298.9164 391.3473 298.8188 425 282.4167 C450.253 270.1085 451.3906 269.4813 474 253.4167 C488.5401 243.0855 490.389 241.6087 501 228.4167 C507.5967 220.2154 508.9722 217.5556 511 207.4167 C514.0152 192.3405 513.3366 188.7874 512 173.4167 C511.5099 167.7807 510.1978 166.7463 507 161.4167 C502.9495 154.6658 502.5474 152.0061 497 148.4167 C488.0143 142.6024 484.6053 140.9756 473 139.4167 C453.2043 136.7576 450.1147 137.9267 430 139.4167 C424.7158 139.8081 423.4465 140.4523 419 143.4167 C409.3478 149.8515 409.9118 152.62 400 159.4167 C392.8945 164.289 384 167.4167 384 167.4167 "/>
<path id="3" d="M101 250.4167 C101 250.4167 98.9972 257.606 100 261.4167 C100.8947 264.8164 102.5035 267.3377 106 269.4167 C118.7823 277.0169 121.2861 277.7272 137 283.4167 C149.8671 288.0754 150.4565 288.1931 164 290.4167 C183.5612 293.6282 184.0589 293.855 204 294.4167 C254.707 295.845 256.5944 296.4415 306 294.4167 C315.7866 294.0156 316.8543 292.5825 326 289.4167 C329.1079 288.3408 328.9116 286.4094 332 285.4167 C342.0069 282.2002 343.951 284.5331 354 280.4167 C384.4541 267.9415 386.7828 267.3341 415 251.4167 C424.2873 246.1777 424.3566 244.5097 432 236.4167 C441.1201 226.7601 442.7553 226.5815 449 215.4167 C458.61 198.2352 459.5735 196.2666 465 177.4167 C468.6762 164.6467 469.4398 158.2956 468 149.4167 C467.4526 146.0413 459 140.4167 459 140.4167 "/>
<path id="4" d="M102 289.4167 C102 289.4167 102.0665 297.2498 103 298.4167 C103.6287 299.2025 107.8224 299.6586 110 299.4167 C110.7024 299.3386 111.922 298.1191 112 297.4167 C112.242 295.2391 111.6323 290.819 111 290.4167 C109.8409 289.679 101 290.4167 101 290.4167 "/>
<path id="5" d="M176 303.4167 C176 303.4167 172.6943 306.1602 172 308.4167 C171.1086 311.3139 171.5034 315.9753 172 316.4167 C172.6284 316.9753 178.0051 317.3382 181 316.4167 C182.7407 315.8811 184.4172 314.1652 185 312.4167 C185.8743 309.7939 185.7364 305.2349 185 304.4167 C184.0703 303.3837 176 302.4167 176 302.4167 "/>
<path id="6" d="M294 304.4167 C294 304.4167 292.4945 309.7318 293 311.4167 C293.3169 312.4729 295.4556 314.0735 297 314.4167 C298.5811 314.768 301.7496 313.9174 302 313.4167 C302.6438 312.129 302.5625 304.9792 302 304.4167 C301.4375 303.8542 293 304.4167 293 304.4167 "/>
<path id="7" d="M394 276.4167 C394 276.4167 396.8699 283.8003 398 284.4167 C398.7984 284.8522 404.7064 283.0039 405 282.4167 C405.3737 281.6693 403.9868 275.1344 403 274.4167 C401.864 273.5905 394 274.4167 394 274.4167 "/>
<path id="8" d="M472 212.4167 C472 212.4167 473.3894 217.3429 475 218.4167 C477.3776 220.0017 483.6445 220.6932 484 220.4167 C484.3343 220.1567 484.7817 212.1984 484 211.4167 C482.8708 210.2875 473 209.4167 473 209.4167 "/>
<path id="9" d="M483 150.4167 C483 150.4167 483.4547 154.144 484 154.4167 C485.7267 155.28 492.6014 155.6658 493 155.4167 C493.1309 155.3349 492.5966 149.8641 492 149.4167 C491.2407 148.8472 485 149.4167 485 149.4167 "/>
<path id="10" d="M182 172.4167 C182 172.4167 195.8034 177.9536 209 178.4167 C251.1592 179.8959 254.0571 179.5236 296 176.4167 C306.3208 175.6522 307.0858 174.3823 317 170.4167 C329.2021 165.5358 329.3882 164.7844 341 158.4167 C344.6991 156.3881 345.3976 156.4354 348 153.4167 C357.3198 142.6057 366 129.4167 366 129.4167 "/>
<path id="11" d="M216 193.4167 C216 193.4167 214.735 199.5012 215 202.4167 C215.0649 203.1307 216.1665 204.2651 217 204.4167 C220.1736 204.9937 225.32 205.0967 226 204.4167 C226.8311 203.5855 227.6237 195.0403 227 194.4167 C225.9606 193.3773 214 192.4167 214 192.4167 "/>
<path id="12" d="M292 192.4167 C292 192.4167 290.5499 196.4039 291 197.4167 C291.6148 198.8 293.7546 200.8179 296 201.4167 C299.7012 202.4037 305.375 202.0417 306 201.4167 C306.625 200.7917 306.7521 192.244 306 191.4167 C305.241 190.5818 299.8751 190.1186 296 190.4167 C294.7684 190.5114 293 192.4167 293 192.4167 "/>
<path id="13" d="M365 158.4167 C365 158.4167 364.6443 163.1795 365 163.4167 C366.0315 164.1043 373.4932 164.8108 374 164.4167 C374.3835 164.1184 374.6165 157.0332 374 156.4167 C373.2293 155.646 366.9947 155.2172 365 155.4167 C364.7311 155.4436 364 157.4167 364 157.4167 "/>
<path id="14" d="M215 219.4167 C215 219.4167 201.2672 245.7174 189 272.4167 C184.3392 282.5608 181.0057 293.396 181 293.4167 C180.9991 293.4201 184 290.4167 184 290.4167 "/>
<path id="15" d="M291 221.4167 L290 291.4167 "/>
<path id="16" d="M343 198.4167 L417 245.4167 "/>
<path id="17" d="M384 174.4167 C384 174.4167 397.0111 175.7642 408 178.4167 C410.5196 179.0248 410.5864 181.0656 413 181.4167 C435.5211 184.6925 463 186.4167 463 186.4167 "/>
</g>
</g>
</svg>
