<?xml version="1.0" encoding="utf-8"?>
<!DOCTYPE svg PUBLIC "-//W3C//DTD SVG 1.1//EN" "http://www.w3.org/Graphics/SVG/1.1/DTD/svg11.dtd">
<svg viewBox="0 0 800 800" preserveAspectRatio="xMinYMin meet" xmlns="http://www.w3.org/2000/svg" version="1.1">
<g fill="none" stroke="black" stroke-linecap="round" stroke-linejoin="round" stroke-width="1.3153">
<g transform="translate(87.52,182.1764) scale(2.2809) translate(-176,-232)">
<path id="0" d="M214 257 C214 257 202.298 270.2266 197 282 C194.493 287.5712 197.4589 290.2889 196 297 C195.1497 300.9116 194.2862 303.0656 192 305 C189.5506 307.0726 183.8654 306.6538 183 308 C181.9164 309.6855 183.3505 318.5493 183 319 C182.8902 319.1411 175.9951 316.944 176 317 C176.0481 317.5531 181.3661 334.1266 185 342 C185.2972 342.644 187.6561 342.3696 188 343 C189.5178 345.7826 188.7274 349.1366 191 353 C193.1476 356.6509 195.7843 356.1594 198 360 C202.7402 368.2164 201.1706 374.3495 206 379 C210.7274 383.5523 215.8545 383.5378 225 386 C228.0653 386.8253 229.154 384.9784 232 386 C247.0534 391.4038 247.8361 395.2191 264 400 C282.3686 405.433 283.571 404.9548 303 407 C321.1423 408.9097 321.9572 409.2358 340 408 C357.7884 406.7816 359.4422 407.2893 376 402 C394.0923 396.2205 395.5809 395.1412 412 385 C428.7514 374.6535 434.462 371.9226 444 360 C448.3732 354.5335 447.3513 349.8928 448 340 C449.3126 319.9822 451.5309 315.0246 448 299 C446.2032 290.8453 442.074 289.2058 435 281 C429.8302 275.0031 429.5217 273.913 423 270 C410.4475 262.4685 409.3634 261.9329 395 257 C360.3965 245.116 359.4703 244.7798 324 236 C309.5741 232.4292 308.793 232.4288 294 232 C274.8716 231.4456 273.4005 232.3272 255 234 C252.5665 234.2212 250.1738 235.7103 250 236 C249.9374 236.1043 252.0209 238.9886 252 239 C250.3369 239.9072 237.9948 241.8668 228 248 C217.4897 254.4495 208 266 208 266 "/>
<path id="1" d="M181 332 C181 332 183.1369 351.4929 188 369 C190.4003 377.6412 194.9985 381.994 196 386 C196.1186 386.4744 192.9052 388.7157 193 389 C193.537 390.6109 197.0135 396.7201 200 398 C203.8511 399.6505 207.7439 397.609 214 398 C214.9217 398.0576 216 398.9041 216 399 C216 399.2877 213.9904 401.9962 214 402 C214.079 402.0316 219.08 400.36 221 401 C222.92 401.64 223.2405 404.7457 226 406 C243.3852 413.9023 245.7196 415.6268 265 421 C275.072 423.807 276.0234 422.4067 287 423 C294.4475 423.4026 295.0724 424.1546 302 423 C309.3125 421.7813 309.731 418.616 317 418 C337.7366 416.2427 339.2281 418.9749 361 418 C372.4473 417.4874 373.8062 418.5151 384 415 C401.3309 409.0238 402.1101 407.1487 419 398 C425.8292 394.3009 428.1177 394.3851 432 389 C441.9268 375.2306 442.539 370.3365 450 355 C450.5235 353.9239 450.3314 352.2131 450 352 C446.9312 350.0272 436 346 436 346 "/>
</g>
</g>
</svg>
