<?xml version="1.0" encoding="utf-8"?>
<!DOCTYPE svg PUBLIC "-//W3C//DTD SVG 1.1//EN" "http://www.w3.org/Graphics/SVG/1.1/DTD/svg11.dtd">
<svg viewBox="0 0 800 800" preserveAspectRatio="xMinYMin meet" xmlns="http://www.w3.org/2000/svg" version="1.1">
<g fill="none" stroke="black" stroke-linecap="round" stroke-linejoin="round" stroke-width="1.2769">
<g transform="translate(87.52,210.8674) scale(2.3495) translate(-167,-165.6)">
<path id="0" d="M167 225.6 C167 225.6 178.2391 230.3661 189 230.6 C267.8396 232.3139 270.1155 228.8936 351 229.6 C384.4671 229.8923 418 232.6 418 232.6 "/>
<path id="1" d="M171 225.6 C171 225.6 175.6502 258.703 178 291.6 C179.1307 307.4301 177.1524 318.0057 178 323.6 C178.0466 323.9073 180.5517 324.6 183 324.6 C253.5098 324.6 255.3122 326.4675 327 323.6 C379.9347 321.4826 418.4148 319.1407 433 314.6 C434.0016 314.2882 434.454 302.2321 433 290.6 C429.5316 262.8526 423 234.6 423 234.6 "/>
<path id="2" d="M301 326.6 L299 231.6 "/>
<path id="3" d="M308 226.6 C308 226.6 308.0042 247.9611 311 267.6 C312.3668 276.5604 315.3269 276.5652 317 285.6 C320.2165 302.9692 321 321.6 321 321.6 "/>
<path id="4" d="M303 225.6 C303 225.6 293.3188 215.8794 283 210.6 C273.0887 205.5291 271.5932 205.9186 260 203.6 C239.4744 199.4949 238.8879 199.4706 218 197.6 C205.7238 196.5006 204.4721 196.2889 193 197.6 C188.2014 198.1484 185.0162 199.4158 183 201.6 C181.3472 203.3905 180.5906 207.5296 181 210.6 C181.3063 212.8969 182.7812 215.56 185 216.6 C195.4934 221.5188 199.3712 224.2371 213 225.6 C242.2383 228.5238 244.3508 226.7078 275 225.6 C285.4348 225.2228 293.1834 225.7687 296 222.6 C301.5611 216.3438 300.0915 203.4171 307 189.6 C309.9608 183.6784 312.1448 183.4794 318 178.6 C323.952 173.64 324.3236 172.9382 331 169.6 C336.7227 166.7387 337.8884 166.4334 344 165.6 C347.9992 165.0547 350.5043 165.2562 353 166.6 C354.8919 167.6187 356.2619 169.832 357 172.6 C357.9401 176.1253 358.019 177.9315 357 181.6 C355.8237 185.8346 355.223 188.3439 352 190.6 C338.2239 200.2433 333.6557 199.1902 317 209.6 C305.985 216.4844 306.8483 219.5144 296 225.6 C287.3408 230.4576 277.8257 229.3833 276 232.6 C272.959 237.958 276.5008 248.718 275 262.6 C274.6349 265.9771 274.0239 266.9689 272 269.6 C269.5244 272.8182 265 275.6 265 275.6 "/>
<path id="5" d="M300 219.6 C300 219.6 311.5573 220.2103 321 223.6 C330.0866 226.8619 334.8695 228.85 339 233.6 C341.3733 236.3293 339.0873 241.1351 341 246.6 C342.2216 250.0904 343.1235 250.7236 346 253.6 C349.8353 257.4353 352.8011 259.6838 355 260.6 C355.3998 260.7666 358 258.6 358 258.6 "/>
</g>
</g>
</svg>
