<?xml version="1.0" encoding="utf-8"?>
<!DOCTYPE svg PUBLIC "-//W3C//DTD SVG 1.1//EN" "http://www.w3.org/Graphics/SVG/1.1/DTD/svg11.dtd">
<svg viewBox="0 0 800 800" preserveAspectRatio="xMinYMin meet" xmlns="http://www.w3.org/2000/svg" version="1.1">
<g fill="none" stroke="black" stroke-linecap="round" stroke-linejoin="round" stroke-width="0.91206">
<g transform="translate(87.52,107.2556) scale(3.2893) translate(-189,-193.1333)">
<path id="0" d="M292 207.1333 C292 207.1333 284.2179 205.4229 283 206.1333 C281.8907 206.7804 279.8992 214.0703 280 214.1333 C281.0207 214.7713 297.3888 216.7269 299 216.1333 C299.2925 216.0256 299.6729 208.2549 299 207.1333 C298.6561 206.5601 293 206.1333 293 206.1333 "/>
<path id="1" d="M281 209.1333 C281 209.1333 276.9678 209.3889 274 208.1333 C264.7122 204.2039 263.9847 200.4977 255 198.1333 C247.1083 196.0566 241.5245 196.221 236 198.1333 C233.0588 199.1514 230.0936 203.0715 229 207.1333 C227.292 213.4773 227.4874 218.3352 229 224.1333 C229.6731 226.7136 232.2356 229.2119 235 230.1333 C240.2984 231.8995 244.7808 233.0905 250 231.1333 C261.0628 226.9848 263.1477 220.2997 275 215.1333 C280.3511 212.8008 289 214.1333 289 214.1333 "/>
<path id="2" d="M299 211.1333 C299 211.1333 299.969 206.9387 302 205.1333 C307.8222 199.958 309.7535 197.3073 317 195.1333 C327.3061 192.0415 336.7908 191.453 342 193.1333 C344.1113 193.8144 346.9664 199.4486 348 205.1333 C349.6581 214.2526 349.5472 219.4286 348 226.1333 C347.5296 228.1718 344.6521 230.5306 342 231.1333 C336.0539 232.4847 331.8721 233.3552 326 231.1333 C316.3487 227.4815 314.445 221.693 305 217.1333 C302.278 215.8193 297 217.1333 297 217.1333 "/>
<path id="3" d="M237 198.1333 C237 198.1333 233.4473 200.6423 233 202.1333 C232.5097 203.7677 233.661 208.0627 234 208.1333 C237.4336 208.8487 246.3869 205.749 257 207.1333 C268.0973 208.5808 269.0631 212.2584 280 214.1333 C285.3458 215.0498 292 213.1333 292 213.1333 "/>
<path id="4" d="M300 212.1333 C300 212.1333 314.0826 203.5168 326 201.1333 C333.8604 199.5612 342.9385 203.8549 345 203.1333 C345.4675 202.9697 346 194.1333 346 194.1333 "/>
<path id="5" d="M280 215.1333 C280 215.1333 273.9557 222.5263 270 230.1333 C267.7363 234.4867 267 240.1333 267 240.1333 "/>
<path id="6" d="M289 217.1333 C289 217.1333 284.3852 222.7906 283 228.1333 C281.2062 235.0521 282 244.1333 282 244.1333 "/>
<path id="7" d="M268 240.1333 C268 240.1333 277.8143 230.059 278 230.1333 C278.3529 230.2745 283 246.1333 283 246.1333 "/>
<path id="8" d="M288 215.1333 C288 215.1333 286.9496 219.6387 288 222.1333 C290.306 227.6102 295.2773 228.9538 296 234.1333 C297.6928 246.2647 293.8909 261.7518 294 265.1333 C294.0003 265.1439 296.1762 265.6041 297 265.1333 C298.7261 264.147 300.1985 263.137 301 261.1333 C302.6888 256.9113 301.88 253.4933 303 250.1333 C303.16 249.6533 304.9957 249.1098 305 249.1333 C305.0807 249.577 304.9803 261.0807 305 261.1333 C305.0047 261.1459 307.7489 258.891 308 257.1333 C308.9639 250.386 309.9209 247.2405 308 240.1333 C305.4348 230.642 301.3493 229.5114 298 220.1333 C296.8633 216.9505 298 212.1333 298 212.1333 "/>
<path id="9" d="M252 246.1333 L282 244.1333 "/>
<path id="10" d="M284 244.1333 L296 243.1333 "/>
<path id="11" d="M310 243.1333 C310 243.1333 332.7686 243.0949 355 241.1333 C366.492 240.1193 378 237.1333 378 237.1333 "/>
<path id="12" d="M256 247.1333 C256 247.1333 239.2019 248.5278 225 248.1333 C222.6818 248.0689 222.004 247.5648 220 246.1333 C215.413 242.8569 214.5967 242.6582 211 238.1333 C199.4917 223.6551 189 207.1333 189 207.1333 "/>
<path id="13" d="M190 206.1333 L226 206.1333 "/>
<path id="14" d="M379 239.1333 C379 239.1333 369.2656 232.3434 363 224.1333 C355.4195 214.2002 350 201.1333 350 201.1333 "/>
<path id="15" d="M223 249.1333 C223 249.1333 224.9417 252.7511 225 256.1333 C225.9036 308.541 225 365.1333 225 365.1333 "/>
<path id="16" d="M190 208.1333 L190 282.1333 "/>
<path id="17" d="M377 239.1333 C377 239.1333 377.7391 257.032 376 274.1333 C374.7857 286.0737 371.5685 286.3368 371 298.1333 C369.6174 326.8215 372 357.1333 372 357.1333 "/>
<path id="18" d="M226 367.1333 C226 367.1333 226.7466 369.1333 227 369.1333 C246.5129 369.1333 266.3637 369.7945 304 367.1333 C314.906 366.3622 315.0013 363.4085 326 362.1333 C349.0635 359.4593 373 359.1333 373 359.1333 "/>
<path id="19" d="M225 369.1333 C225 369.1333 222.2569 369.5088 222 369.1333 C218.7657 364.4063 216.1737 359.9155 212 350.1333 C200.2705 322.6424 190 294.1333 190 294.1333 "/>
<path id="20" d="M190 271.1333 L190 297.1333 "/>
<path id="21" d="M272 205.1333 L286 206.1333 "/>
<path id="22" d="M291 206.1333 L297 204.1333 "/>
<path id="23" d="M304 219.1333 C304 219.1333 304.507 225.9692 307 231.1333 C311.1359 239.7005 318 248.1333 318 248.1333 "/>
<path id="24" d="M316 243.1333 C316 243.1333 316.9359 267.4182 315 291.1333 C312.9638 316.0765 310.1763 316.2613 308 341.1333 C306.71 355.8759 308 371.1333 308 371.1333 "/>
<path id="25" d="M292 248.1333 C292 248.1333 292.4971 293.845 291 339.1333 C290.505 354.1075 288 369.1333 288 369.1333 "/>
<path id="26" d="M273 232.1333 L254 233.1333 "/>
<path id="27" d="M237 234.1333 L207 239.1333 "/>
<path id="28" d="M209 238.1333 C209 238.1333 207.7151 285.0191 209 329.1333 C209.1707 334.9929 212 341.1333 212 341.1333 "/>
<path id="29" d="M200 228.1333 C200 228.1333 198.1567 270.4989 199 310.1333 C199.1241 315.9659 200.9579 320.0491 202 322.1333 C202.1158 322.3649 205 322.1333 205 322.1333 "/>
<path id="30" d="M204 228.1333 L235 227.1333 "/>
<path id="31" d="M237 235.1333 L246 232.1333 "/>
<path id="32" d="M212 339.1333 L215 343.1333 "/>
<path id="33" d="M211 336.1333 L219 359.1333 "/>
<path id="34" d="M308 229.1333 L319 229.1333 "/>
<path id="35" d="M353 225.1333 L361 225.1333 "/>
<path id="36" d="M355 224.1333 L347 224.1333 "/>
<path id="37" d="M351 215.1333 L359 216.1333 "/>
<path id="38" d="M274 205.1333 L304 208.1333 "/>
<path id="39" d="M271 204.1333 L308 204.1333 "/>
</g>
</g>
</svg>
