<?xml version="1.0" encoding="utf-8"?>
<!DOCTYPE svg PUBLIC "-//W3C//DTD SVG 1.1//EN" "http://www.w3.org/Graphics/SVG/1.1/DTD/svg11.dtd">
<svg viewBox="0 0 800 800" preserveAspectRatio="xMinYMin meet" xmlns="http://www.w3.org/2000/svg" version="1.1">
<g fill="none" stroke="black" stroke-linecap="round" stroke-linejoin="round" stroke-width="1.0129">
<g transform="translate(124.5437,87.52) scale(2.9619) translate(-204.8,-155.8)">
<path id="0" d="M206.8 308.8 C206.8 308.8 204.8 308.8 204.8 308.8 C204.8 315.5589 206.8 366.8 206.8 366.8 "/>
<path id="1" d="M204.8 309.8 L389.8 309.8 "/>
<path id="2" d="M389.8 309.8 L389.8 358.8 "/>
<path id="3" d="M389.8 358.8 L207.8 359.8 "/>
<path id="4" d="M206.8 306.8 C206.8 306.8 213.9998 286.3004 222.8 269.8 C225.1708 265.3548 228.2651 265.948 230.8 261.8 C233.1273 257.9917 231.3326 255.9452 233.8 251.8 C243.2408 235.9394 246.1018 235.9636 255.8 219.8 C259.233 214.0784 259.2527 213.247 260.8 206.8 C262.1337 201.2428 261.8 194.8 261.8 194.8 "/>
<path id="5" d="M389.8 311.8 C389.8 311.8 392.4692 287.8315 390.8 266.8 C390.1135 258.1496 385.2394 257.3692 384.8 248.8 C383.3623 220.764 386.8 188.8 386.8 188.8 "/>
<path id="6" d="M386.8 188.8 L368.8 188.8 "/>
<path id="7" d="M261.8 194.8 L298.8 194.8 "/>
<path id="8" d="M243.8 242.8 L286.8 242.8 "/>
<path id="9" d="M232.8 258.8 L292.8 258.8 "/>
<path id="10" d="M383.8 240.8 L335.8 240.8 "/>
<path id="11" d="M382.8 252.8 L338.8 252.8 "/>
<path id="12" d="M287.8 360.8 C287.8 360.8 295.0165 351.5555 296.8 342.8 C300.074 326.7278 298.8 306.8 298.8 306.8 "/>
<path id="13" d="M317.8 311.8 L315.8 358.8 "/>
<path id="14" d="M298.8 308.8 C298.8 308.8 297.494 301.1436 298.8 294.8 C300.8002 285.0846 304.5164 284.0416 305.8 274.8 C306.7622 267.8718 303.8 258.8 303.8 258.8 "/>
<path id="15" d="M317.8 315.8 C317.8 315.8 324.3578 306.8759 324.8 299.8 C325.6542 286.1324 320.8 267.8 320.8 267.8 "/>
<path id="16" d="M310.8 239.8 C310.8 239.8 307.3968 239.2012 305.8 239.8 C304.4826 240.294 303.0351 241.5463 302.8 242.8 C301.9422 247.3748 301.7086 250.8888 302.8 255.8 C303.2944 258.0247 305.1279 260.2775 306.8 260.8 C310.4072 261.9272 318.26 261.52 318.8 260.8 C319.76 259.52 319.9209 250.4042 318.8 244.8 C318.4637 243.1187 314.8 240.8 314.8 240.8 "/>
<path id="17" d="M323.8 270.8 L316.8 258.8 "/>
<path id="18" d="M314.8 240.8 C314.8 240.8 315.2359 236.0512 316.8 234.8 C322.7802 230.0158 334.5383 224.6072 334.8 224.8 C335.2598 225.1388 333.78 240.143 335.8 248.8 C336.4168 251.4435 340.6695 252.1621 341.8 254.8 C342.8551 257.262 342.1327 262.6733 341.8 262.8 C339.5077 263.6733 329.5498 263.5291 320.8 262.8 C319.4806 262.69 317.8 260.8 317.8 260.8 "/>
<path id="19" d="M317.8 242.8 C317.8 242.8 326.7075 240.2117 327.8 240.8 C328.7606 241.3173 330.3774 245.5739 330.8 249.8 C331.2953 254.7531 330.693 260.0444 329.8 260.8 C328.7604 261.6796 320.869 261.2721 317.8 260.8 C317.4656 260.7485 316.8 258.8 316.8 258.8 "/>
<path id="20" d="M305.8 240.8 C305.8 240.8 298.2388 234.3195 291.8 231.8 C288.4927 230.5058 286.9974 231.2403 282.8 231.8 C279.8774 232.1897 277.28 232.92 276.8 233.8 C275.9807 235.3021 275.805 240.2131 276.8 242.8 C277.4548 244.5025 279.5485 246.1567 281.8 246.8 C285.0987 247.7425 290.5895 246.3368 290.8 246.8 C291.9556 249.3422 290.8654 267.2423 291.8 268.8 C291.9902 269.117 299.4278 268.5985 302.8 266.8 C304.8121 265.7268 306.8 260.8 306.8 260.8 "/>
<path id="21" d="M306.8 250.8 C306.8 250.8 302.5369 250.9404 299.8 249.8 C297.3399 248.7749 294.8027 245.7917 294.8 245.8 C294.7894 245.8318 296.2035 254.0438 297.8 255.8 C298.7237 256.8161 304.8 256.8 304.8 256.8 "/>
<path id="22" d="M306.8 240.8 C306.8 240.8 301.0884 231.0031 299.8 221.8 C297.8009 207.5208 303.1593 203.1173 299.8 190.8 C296.756 179.6385 284.8 166.8 284.8 166.8 C284.8 166.8 286.5743 170.4498 287.8 170.8 C291.0543 171.7298 297.7403 171.378 298.8 170.8 C299.1153 170.628 297.9675 166.7981 298.8 164.8 C299.9216 162.1081 303.7689 158.7793 303.8 158.8 C304.3075 159.1383 310.2651 166.3049 310.8 172.8 C313.4054 204.4365 310.8 243.7999 310.8 243.8 C310.8 243.8 308.7286 227.5052 312.8 215.8 C319.7028 195.9543 322.4852 192.6241 334.8 174.8 C340.2901 166.8538 345.1436 167.1218 350.8 160.8 C351.9775 159.4839 351.7999 155.7993 351.8 155.8 C351.8004 155.8022 351.5565 168.9913 352.8 170.8 C353.4242 171.7079 362.8382 171.7212 362.8 171.8 C362.3572 172.7132 348.4087 187.4112 336.8 203.8 C331.8111 210.8431 333.7141 213.0139 328.8 219.8 C323.746 226.7794 319.8325 227.5267 315.8 232.8 C315.0969 233.7194 315.8 236.8 315.8 236.8 "/>
<path id="23" d="M369.8 188.8 L345.8 189.8 "/>
</g>
</g>
</svg>
