<?xml version="1.0" encoding="utf-8"?>
<!DOCTYPE svg PUBLIC "-//W3C//DTD SVG 1.1//EN" "http://www.w3.org/Graphics/SVG/1.1/DTD/svg11.dtd">
<svg viewBox="0 0 800 800" preserveAspectRatio="xMinYMin meet" xmlns="http://www.w3.org/2000/svg" version="1.1">
<g fill="none" stroke="black" stroke-linecap="round" stroke-linejoin="round" stroke-width="1.0129">
<g transform="translate(87.52,112.6961) scale(2.9619) translate(-199,-65.6667)">
<path id="0" d="M200 141.6667 C200 141.6667 198.8848 167.7937 200 193.6667 C201.3772 225.6176 200.1668 254.713 205 257.6667 C216.4195 264.6453 258.0894 261.529 308 259.6667 C323.1592 259.101 323.5928 254.1263 339 252.6667 C370.2344 249.7076 372.3721 252.4168 403 250.6667 C405.9208 250.4998 407.687 249.7921 409 248.6667 C409.7538 248.0206 410.1476 246.4868 410 244.6667 C408.7451 229.1893 408.8916 227.5704 406 211.6667 C404.9946 206.1368 402.708 206.0944 402 200.6667 C399.8334 184.0557 402.1666 182.2776 400 165.6667 C399.292 160.2389 396.3842 159.9494 396 154.6667 C394.5028 134.0802 396 110.6667 396 110.6667 "/>
<path id="1" d="M200 147.6667 C200 147.6667 198.6894 130.7374 199 130.6667 C207.6723 128.6907 239.6278 133.0073 279 129.6667 C321.331 126.075 321.6464 121.5671 364 116.6667 C381.6828 114.6207 400 115.6667 400 115.6667 "/>
<path id="2" d="M202 159.6667 C202 159.6667 272.8552 162.6786 341 159.6667 C361.7639 158.7489 362.2269 154.5822 383 151.6667 C390.2258 150.6525 398 151.6667 398 151.6667 "/>
<path id="3" d="M219 161.6667 C219 161.6667 217.4986 183.7455 220 204.6667 C222.9119 229.0211 230 253.6667 230 253.6667 "/>
<path id="4" d="M374 156.6667 C374 156.6667 374.6852 195.9714 379 231.6667 C379.9545 239.5632 385 247.6667 385 247.6667 "/>
<path id="5" d="M263 130.6667 C263 130.6667 254.3623 120.8674 253 113.6667 C251.5987 106.2599 253.0451 101.9943 256 93.6667 C257.9413 88.1957 259.4414 87.2253 264 82.6667 C269.5183 77.1483 271.3365 74.3109 277 72.6667 C283.3068 70.8357 288.019 71.5982 295 73.6667 C299.2253 74.9186 302.0831 77.408 304 80.6667 C305.6509 83.4732 305.4549 90.0981 305 90.6667 C304.644 91.1117 299.0526 91.8114 296 90.6667 C292.8626 89.4902 289.5894 86.7886 289 84.6667 C288.1509 81.6099 288.8326 75.8344 291 72.6667 C293.3551 69.2245 297.5621 66.3007 302 65.6667 C308.1285 64.7912 314.0419 65.6155 319 68.6667 C323.4724 71.4189 326.6527 75.5425 328 81.6667 C331.3674 96.9729 330.9108 105.915 330 118.6667 C329.8676 120.5201 325 123.6667 325 123.6667 "/>
</g>
</g>
</svg>
