<?xml version="1.0" encoding="utf-8"?>
<!DOCTYPE svg PUBLIC "-//W3C//DTD SVG 1.1//EN" "http://www.w3.org/Graphics/SVG/1.1/DTD/svg11.dtd">
<svg viewBox="0 0 800 800" preserveAspectRatio="xMinYMin meet" xmlns="http://www.w3.org/2000/svg" version="1.1">
<g fill="none" stroke="black" stroke-linecap="round" stroke-linejoin="round" stroke-width="0.95526">
<g transform="translate(87.52,95.3713) scale(3.1405) translate(-238,-155)">
<path id="0" d="M239 215 C239 215 241.3094 256.1554 241 297 C240.8112 321.9212 238 347 238 347 "/>
<path id="1" d="M240 215 L394 221 "/>
<path id="2" d="M240 348 C240 348 251.1845 343.4828 262 343 C305.8006 341.0446 307.251 341.8813 352 343 C366.9536 343.3738 382 346 382 346 "/>
<path id="3" d="M395 223 C395 223 394.6662 339.8216 394 349 C393.9925 349.1033 386 347 386 347 "/>
<path id="4" d="M242 217 L297 191 "/>
<path id="5" d="M395 222 L430 204 "/>
<path id="6" d="M392 349 C392 349 400.3634 337.5029 410 329 C416.7106 323.0789 426 319 426 319 "/>
<path id="7" d="M430 206 C430 206 428.9716 222.134 430 238 C432.4569 275.9067 437.5155 300.4263 437 314 C436.977 314.6057 427 317 427 317 "/>
<path id="8" d="M295 194 C295 194 315.7366 191.8253 336 193 C384.2664 195.7981 433 202 433 202 "/>
<path id="9" d="M331 204 C331 204 324.5248 203.5452 320 201 C309.5015 195.0946 306.5248 193.8143 299 186 C295.4077 182.2695 295.0462 179.4924 294 174 C293.2884 170.2643 294.0862 165.5913 295 165 C297.316 163.5014 304.0755 162.4673 311 163 C315.5043 163.3465 317.4334 164.3845 321 167 C323.7944 169.0492 324.678 170.3391 326 174 C330.7876 187.2578 333.9976 203.0007 334 203 C334.0784 202.9765 338.7272 183.8679 346 168 C349.1575 161.1108 352.6763 156.9242 356 155 C357.4872 154.139 364.3718 155.796 365 157 C367.117 161.0575 370.3906 173.7925 368 178 C363.1794 186.4843 340.0004 200.9998 340 201 C339.9998 201.0001 345.0031 194.1698 351 189 C359.2058 181.926 360.4791 180.2604 369 176 C372.6518 174.1741 375.7163 174.7264 379 175 C379.7175 175.0598 380.8638 176.1376 381 177 C382.0089 183.3895 382.8194 193.5803 382 194 C377.3168 196.3987 359.4708 195.1605 340 198 C337.0565 198.4293 334.0212 201.0362 334 201 C332.4208 198.3061 326.0139 183.3998 323 169 C322.0703 164.558 323.9241 159.315 325 158 C325.4876 157.404 330.069 157.2276 332 158 C333.269 158.5076 334.2376 159.9034 335 162 C337.9679 170.1618 338.7374 171.1615 340 180 C341.147 188.0289 340.0006 197.001 340 197 C339.9989 196.9983 337.3863 178.5541 334 171 C333.2755 169.3839 330.1885 168.3751 327 168 C322.7147 167.4958 318.1182 167.7958 317 169 C315.2838 170.8482 314.2696 176.0694 314 182 C313.8172 186.0221 313.9736 187.9604 316 191 C319.922 196.883 327.9746 203.0085 328 203 C328.0063 202.9979 327.9099 193.4041 325 188 C322.0362 182.4958 318.1481 178.6232 314 177 C310.9597 175.8103 305.6076 177.3165 302 179 C300.5123 179.6942 299.3517 181.8898 299 184 C298.563 186.6217 298.6985 189.7751 300 191 C304.1971 194.9502 307.8499 196.4683 316 200 C322.4436 202.7922 329.4661 204.5606 330 204 C331.757 202.1552 331.6864 183.9298 336 179 C339.7432 174.722 356.6657 171.4441 358 172 C358.6351 172.2646 361.4147 186.878 360 189 C358.2843 191.5735 350.1707 191.7633 342 196 C337.2291 198.4738 332.9967 202.9934 333 203 C333.0066 203.0132 339.8674 203.6424 345 202 C351.3491 199.9683 352.8067 199.2491 358 195 C362.9916 190.9159 365.4912 187.4487 367 184 C367.4167 183.0476 366.3141 179.7207 365 179 C355.1394 173.5926 349.6353 171.9583 336 167 C334.3652 166.4055 332.7802 166.3617 332 167 C329.1985 169.2921 326.4056 171.5276 325 176 C321.5792 186.8843 321.4394 201.5606 321 202 C320.9707 202.0293 314.6089 194.0566 309 192 C302.4245 189.589 297.9205 190.3709 291 191 C289.3489 191.1501 287.0547 193.2349 287 194 C286.8206 196.5116 288.4831 204.2696 290 205 C294.5643 207.1976 302.9955 208.3514 314 207 C329.7996 205.0597 332.8541 203.7257 347 198 C351.7245 196.0877 351.8269 191.391 356 190 C362.5577 187.8141 368.0784 187.7663 374 189 C376.413 189.5027 378.5592 192.1184 380 195 C381.3608 197.7215 381.0516 202.9901 381 203 C376.3281 203.8946 333 204 333 204 "/>
<path id="10" d="M324 206 L317 217 "/>
<path id="11" d="M343 203 L334 217 "/>
<path id="12" d="M317 218 L314 317 "/>
<path id="13" d="M333 219 C333 219 334.4862 242.4097 333 265 C332.0201 279.8944 328.5822 280.2498 328 295 C327.1146 317.4305 330 341 330 341 "/>
<path id="14" d="M316 340 L314 316 "/>
<path id="15" d="M356 201 L414 206 "/>
<path id="16" d="M346 205 C346 205 358.0131 210.0973 370 212 C388.8441 214.9911 409 215 409 215 "/>
<path id="17" d="M406 216 C406 216 409.4157 226.0672 410 236 C412.3711 276.3087 412 318 412 318 "/>
<path id="18" d="M418 211 C418 211 421.7714 230.5174 423 250 C425.254 285.7419 425 322 425 322 "/>
<path id="19" d="M271 203 L321 204 "/>
</g>
</g>
</svg>
