<?xml version="1.0" encoding="utf-8"?>
<!DOCTYPE svg PUBLIC "-//W3C//DTD SVG 1.1//EN" "http://www.w3.org/Graphics/SVG/1.1/DTD/svg11.dtd">
<svg viewBox="0 0 800 800" preserveAspectRatio="xMinYMin meet" xmlns="http://www.w3.org/2000/svg" version="1.1">
<g fill="none" stroke="black" stroke-linecap="round" stroke-linejoin="round" stroke-width="1.1569">
<g transform="translate(121.2315,87.52) scale(2.5932) translate(-190,-115)">
<path id="0" d="M196 178 C196 178 191.9212 200.0748 191 222 C189.4372 259.1949 186.666 294.7681 191 297 C210.3752 306.9777 344.9228 316.1249 358 308 C364.0478 304.2425 356.354 246.2844 360 192 C360.5799 183.3665 367.2541 174.0274 367 174 C358.2607 173.058 193 174 193 174 "/>
<path id="1" d="M231 198 C231 198 232.4393 261.0521 232 323 C231.9437 330.9368 229.9998 338.9986 230 339 C230.0001 339.0007 233 331 233 331 "/>
<path id="2" d="M230 201 C230 201 230.7347 203.9842 231 204 C253.5578 205.3401 281.1347 207 331 207 C365.4071 207 398.4666 201.0443 400 204 C406.3586 216.2564 400.0218 338.542 400 340 C399.9997 340.0211 398 338 398 338 "/>
<path id="3" d="M233 340 C233 340 403.1037 339.0335 405 339 C405.0217 338.9996 403 337 403 337 "/>
<path id="4" d="M195 175 C195 175 203.3624 186.8641 212 192 C219.32 196.3524 232 197 232 197 "/>
<path id="5" d="M365 175 C365 175 369.4713 176.4713 372 179 C376.8276 183.8276 375.8025 186.3593 381 191 C389.0694 198.2048 400 204 400 204 "/>
<path id="6" d="M190 296 C190 296 189.8206 299.2309 191 301 C198.8396 312.7594 200.4688 316.1284 210 326 C212.7904 328.89 215.2382 327.3668 219 330 C224.7383 334.0168 227.1947 338.0579 230 340 C230.2047 340.1417 232 339 232 339 "/>
<path id="7" d="M356 309 C356 309 377.8336 319.2065 392 330 C395.9178 332.985 398 341 398 341 "/>
<path id="8" d="M286 185 C286 185 286.988 193.7351 288 195 C288.4187 195.5234 293.5114 195.4886 294 195 C294.6514 194.3486 295.375 188.5 295 188 C294.625 187.5 288.7241 186.6379 288 187 C287.6101 187.195 287 192 287 192 "/>
<path id="9" d="M285 187 C285 187 284.1882 175.7559 286 171 C286.848 168.7741 289.8174 167.3261 293 166 C294.7519 165.2701 297.7889 165.7044 298 166 C298.4139 166.5794 298.7018 170.6606 298 173 C297.609 174.3034 294.997 176 295 176 C295.008 176 300.253 172.8283 303 173 C305.9008 173.1813 310.1083 175.5987 311 177 C311.6242 177.9809 310.8299 183.5118 310 184 C307.1192 185.6946 294 187 294 187 "/>
<path id="10" d="M285 183 C285 183 268.5882 178.6303 266 179 C265.5787 179.0602 263.7887 185.7887 264 186 C264.4649 186.4649 273.9358 186.9572 274 187 C274.012 187.008 270.4111 189.0408 270 190 C269.6886 190.7267 270.5524 193.801 271 194 C272.2892 194.573 277.2873 195.1775 279 194 C282.3318 191.7094 286.6903 183.7433 287 183 C287.0054 182.987 284 182 284 182 "/>
<path id="11" d="M286 192 C286 192 283.3254 201.7276 284 206 C284.2854 207.8076 286.835 209.7972 289 211 C290.1134 211.6186 292.7221 211.3705 293 211 C293.88 209.8266 294.375 203.375 295 203 C295.625 202.625 300.4145 205.2155 303 205 C304.4028 204.8831 306.7526 203.072 307 202 C307.6161 199.3304 307.1481 193.3777 306 192 C304.9932 190.7918 297 190 297 190 "/>
<path id="12" d="M304 188 C304 188 338.5159 188.8662 371 188 C374.9046 187.8959 378.9993 186.0005 379 186 C379.0004 185.9997 374 186 374 186 "/>
<path id="13" d="M307 193 L384 193 "/>
<path id="14" d="M261 188 L221 188 "/>
<path id="15" d="M265 191 L222 193 "/>
<path id="16" d="M227 187 L213 187 "/>
<path id="17" d="M217 197 C217 197 218.5843 232.7305 217 266 C216.6512 273.3243 213.7086 273.5595 213 281 C210.7798 304.3119 211 329 211 329 "/>
<path id="18" d="M215 188 C215 188 211.3222 193.247 211 198 C209.4627 220.6748 212.4903 223.5282 211 247 C210.5665 253.8279 207.3167 254.192 207 261 C205.3929 295.5534 207 333 207 333 "/>
<path id="19" d="M304 208 C304 208 308.0388 242.7964 307 275 C306.5933 287.6082 302.1663 288.171 301 301 C299.2426 320.3313 301 341 301 341 "/>
<path id="20" d="M314 209 C314 209 316 257.589 316 306 C316 330.9541 314 356 314 356 "/>
<path id="21" d="M282 181 L282 171 "/>
<path id="22" d="M277 178 L277 171 "/>
<path id="23" d="M311 186 C311 186 309.8886 180.2605 311 176 C312.6188 169.7946 313.3902 167.6411 317 163 C319.293 160.0519 321.8298 160.9438 325 158 C328.3673 154.8733 327.5646 151.978 331 150 C341.797 143.7835 346.0839 145.1386 358 139 C361.3162 137.2917 364 133 364 133 C364 133 358.6915 137.2899 356 142 C353.1668 146.958 355.032 149.1152 352 154 C346.6219 162.6648 345.7457 163.6846 338 171 C328.1926 180.2626 316 188 316 188 "/>
<path id="24" d="M280 194 C280 194 272.5692 189.4193 266 189 C250.9191 188.0374 242.0303 185.8621 233 191 C221.7213 197.4172 218.931 206.1003 208 222 C202.896 229.424 199.9963 238.9983 200 239 C200.5198 239.2382 219.1188 237.793 232 233 C237.5393 230.9389 237.1001 227.0035 243 223 C250.6651 217.7987 253.0979 219.4741 260 214 C266.6063 208.7605 267.574 207.0816 272 200 C274.4446 196.0887 275 190 275 190 "/>
<path id="25" d="M272 186 C272 186 263.2568 187.4886 256 186 C244.8241 183.7075 241.7547 183.4073 233 178 C227.0376 174.3173 225.0709 171.7882 222 165 C216.4277 152.6823 213.9895 136.0084 214 136 C214.0008 135.9993 222.2633 147.7896 232 157 C240.2911 164.843 244.2541 163.1298 251 171 C257.7777 178.9073 261.3013 191.2547 262 192 C262.0279 192.0298 266 187 266 187 "/>
<path id="26" d="M308 173 C308 173 305.674 159.7346 306 148 C306.1448 142.7861 306.4872 141.6069 309 137 C315.0019 125.9965 324.0002 114.9915 324 115 C323.9994 115.0226 308 174 308 174 "/>
<path id="27" d="M302 340 L316 340 "/>
</g>
</g>
</svg>
