<?xml version="1.0" encoding="utf-8"?>
<!DOCTYPE svg PUBLIC "-//W3C//DTD SVG 1.1//EN" "http://www.w3.org/Graphics/SVG/1.1/DTD/svg11.dtd">
<svg viewBox="0 0 800 800" preserveAspectRatio="xMinYMin meet" xmlns="http://www.w3.org/2000/svg" version="1.1">
<g fill="none" stroke="black" stroke-linecap="round" stroke-linejoin="round" stroke-width="2.1745">
<g transform="translate(87.52,224.1007) scale(1.3796) translate(-28,-99)">
<path id="0" d="M181 253 C181 253 188.2809 211.7653 194 209 C207.0152 202.7069 272 209 272 209 "/>
<path id="1" d="M272 209 C272 209 277.7624 202.7129 280 196 C286.332 177.0041 283.8179 174.5765 290 155 C292.5937 146.7867 298 139 298 139 "/>
<path id="2" d="M271 210 C271 210 272.4102 220.9748 271 230 C270.0988 235.7677 267.1112 236.2219 266 242 C264.7998 248.2411 266.9024 249.6835 266 256 C265.5212 259.3516 263.3115 259.677 263 263 C261.9304 274.4095 263 288 263 288 "/>
<path id="3" d="M248 225 C248 225 222.8203 243.5401 199 256 C192.5827 259.3567 189.898 256.0956 183 259 C172.0221 263.6223 172.427 267.3326 161 272 C137.7629 281.4912 112 288 112 288 "/>
<path id="4" d="M253 244 C253 244 245.7518 242.7489 242 245 C208.3635 265.1819 205.5005 275.8068 168 295 C145.1522 306.6938 115 310 115 310 "/>
<path id="5" d="M180 251 L179 261 "/>
<path id="6" d="M184 290 C184 290 244.0527 287.4156 252 288 C252.0603 288.0044 252.081 294.9924 252 295 C242.706 295.8674 177 295 177 295 "/>
<path id="7" d="M250 295 C250 295 258.6854 296.1189 264 295 C266.2177 294.5331 268.0616 293.218 269 291 C277.4689 270.9826 276.3934 264.43 286 243 C288.424 237.5927 290.0044 237.1035 295 233 C303.6128 225.9252 304.4902 224.7549 314 220 C319.4075 217.2962 320.615 217.2698 327 217 C355.2117 215.808 357.5242 215.7697 385 217 C389.3271 217.1938 394 220 394 220 "/>
<path id="8" d="M180 295 C180 295 172.4416 294.1216 166 295 C162.1308 295.5276 161.0806 295.8255 158 298 C153.3254 301.2997 152.113 302.472 149 307 C147.2834 309.4969 147.2068 310.5876 147 314 C146.2449 326.4589 144.5576 331.2073 147 340 C148.2003 344.3212 151.7933 346.8307 157 350 C161.9957 353.0408 163.7848 353.357 170 354 C177.3656 354.762 180.3244 355.1829 186 353 C190.6631 351.2065 191.5686 348.748 196 344 C198.3527 341.4793 199.5829 340.7113 200 338 C201.2611 329.803 202.9794 324.1008 200 318 C195.0458 307.8557 189.0953 302.4993 179 295 C174.6983 291.8045 165 292 165 292 "/>
<path id="9" d="M173 317 C173 317 168.7904 320.9716 167 325 C165.1723 329.1123 164.8081 334.8294 165 335 C165.2569 335.2284 174.3797 334.6203 176 333 C177.8696 331.1304 179.3875 324.2938 179 321 C178.8141 319.4197 176.1606 316.6002 174 316 C169.6036 314.7788 161 316 161 316 "/>
<path id="10" d="M199 321 C199 321 239.7667 322.3667 263 321 C264.5375 320.9096 267 317 267 317 "/>
<path id="11" d="M268 317 C268 317 274.8311 313.8195 277 311 C278.3039 309.3049 276.7648 306.8233 278 304 C279.9306 299.5871 282.3611 299.5526 284 295 C286.5084 288.0323 283.7181 283.8448 287 279 C291.9493 271.6939 297.1413 272.1297 305 264 C311.2174 257.5682 310.1816 252.0357 316 249 C328.2683 242.5991 333.7714 242.1241 351 240 C369.1305 237.7647 376.637 241.4718 389 240 C390.495 239.822 392.4012 237.2454 393 235 C393.987 231.2988 393 225 393 225 "/>
<path id="12" d="M393 220 L393 228 "/>
<path id="13" d="M340 242 C340 242 327.6147 241.6406 320 245 C313.11 248.0397 312.239 250.5114 306 257 C299.9777 263.2632 299.933 263.7304 295 271 C290.5349 277.5802 288.3089 278.4556 287 285 C284.8185 295.9073 286.2317 298.7066 287 311 C287.181 313.896 287.4086 315.1193 289 317 C292.0237 320.5734 295.2093 320.4482 298 324 C299.6999 326.1635 298.3187 329.5709 300 331 C305.6043 335.7636 308.9623 337.5444 318 341 C325.1011 343.7151 326.0705 343.4053 334 344 C345.7294 344.8797 346.6514 345.384 358 344 C366.3269 342.9845 368.7947 343.1368 375 339 C384.6639 332.5574 387.4557 330.0502 394 320 C400.229 310.4341 401.1306 307.45 403 296 C404.823 284.8344 404.8487 281.4452 402 271 C399.5202 261.9074 396.9394 261.0655 391 252 C387.5457 246.7277 387.0668 245.7539 383 242 C381.3842 240.5085 378 240 378 240 "/>
<path id="14" d="M339 278 C339 278 331.8949 285.8415 330 292 C328.6788 296.294 329.3713 300.539 331 304 C332.0833 306.3019 334.8186 308.277 338 309 C343.8651 310.333 346.6881 310.315 353 309 C357.2255 308.1197 361.0656 306.0764 362 304 C363.5487 300.5585 363.333 294.8651 362 289 C361.277 285.8186 359.8124 284.2098 357 282 C353.7475 279.4445 352.3126 279.0147 348 278 C344.5295 277.1834 342.6228 277.1257 340 278 C338.2515 278.5828 336 282 336 282 "/>
<path id="15" d="M344 290 C344 290 345.5162 298.5162 346 299 C346.1319 299.1319 350.3805 297.8673 351 297 C351.556 296.2217 351.3049 292.3811 351 292 C350.8049 291.7561 347 292 347 292 "/>
<path id="16" d="M332 244 L333 254 "/>
<path id="17" d="M347 241 L348 250 "/>
<path id="18" d="M375 243 L373 247 "/>
<path id="19" d="M388 249 L388 256 "/>
<path id="20" d="M397 263 L395 276 "/>
<path id="21" d="M324 333 C324 333 323.2433 339.9189 324 342 C324.2905 342.7988 328 344 328 344 "/>
<path id="22" d="M351 336 L352 342 "/>
<path id="23" d="M379 329 L391 339 "/>
<path id="24" d="M290 303 L295 303 "/>
<path id="25" d="M294 282 L302 282 "/>
<path id="26" d="M185 341 L185 346 "/>
<path id="27" d="M162 344 L161 348 "/>
<path id="28" d="M149 329 L143 334 "/>
<path id="29" d="M145 315 L152 315 "/>
<path id="30" d="M159 305 L165 313 "/>
<path id="31" d="M183 300 L183 307 "/>
<path id="32" d="M280 229 C280 229 287.6481 232.2284 292 236 C293.9752 237.7119 295 242 295 242 "/>
<path id="33" d="M278 228 C278 228 277.1433 221.9363 279 218 C288.6316 197.581 294.6275 196.3644 303 175 C308.2658 161.5632 308 144 308 144 "/>
<path id="34" d="M375 145 L375 220 "/>
<path id="35" d="M381 147 L381 219 "/>
<path id="36" d="M298 139 C298 139 323.5938 143.0945 349 145 C363.3203 146.074 378 145 378 145 "/>
<path id="37" d="M294 139 C294 139 292.033 138.3134 292 138 C291.5094 133.3392 291.6027 120.0742 292 120 C302.7291 117.9957 383 121 383 121 "/>
<path id="38" d="M109 280 C109 280 110.1496 296.512 107 311 C102.9095 329.8164 94 349 94 349 "/>
<path id="39" d="M106 312 L116 311 "/>
<path id="40" d="M108 277 C108 277 87.5333 253.9619 87 254 C86.7579 254.0173 81.9434 266.6107 80 279 C78.0522 291.4172 82.2313 298.3579 79 305 C76.6491 309.8325 69.5509 309.7076 62 316 C51.9482 324.3765 52.9929 326.4767 43 335 C36.3214 340.6965 28 345 28 345 "/>
<path id="41" d="M32 346 L88 348 "/>
<path id="42" d="M89 351 C89 351 86.9914 349.0043 87 349 C87.0515 348.9743 93 349 93 349 "/>
<path id="43" d="M89 256 C89 256 99.2367 248.5951 107 240 C112.7836 233.5967 111.5433 230.7439 117 225 C120.0179 221.8233 125.9813 219.9699 126 220 C127.2612 222.032 131.7043 236.9725 135 254 C137.6353 267.6159 138 282 138 282 "/>
<path id="44" d="M97 262 C97 262 103.6451 249.2259 111 238 C112.8349 235.1994 113.4281 234.3849 116 233 C119.0348 231.3659 123.9921 230.9515 124 231 C124.5817 234.5627 124 282 124 282 "/>
<path id="45" d="M96 348 C96 348 106.8212 341.2043 114 333 C120.0115 326.1297 118.2961 323.1299 124 316 C127.6505 311.4369 130.2228 312.3168 134 308 C136.5933 305.0362 138 300 138 300 "/>
<path id="46" d="M392 221 C392 221 391.001 208.7382 392 197 C392.9715 185.5844 392.5505 184.5785 396 174 C399.7735 162.428 403.3895 162.5537 407 151 C410.5849 139.5283 411 126 411 126 "/>
<path id="47" d="M400 259 C400 259 398.6966 247.9062 400 238 C401.096 229.6704 403.9499 229.4012 405 221 C406.8545 206.1639 403.8609 204.9735 406 190 C408.767 170.6307 409.2548 168.5946 415 151 C416.683 145.8458 420.0156 145.5358 422 141 C422.9115 138.9166 422 135 422 135 "/>
<path id="48" d="M401 109 C401 109 421.8194 132.3564 435 155 C439.7902 163.2294 435.6766 166.9059 440 176 C449.5079 195.9994 464 216 464 216 "/>
<path id="49" d="M401 108 C401 108 414.6514 98.8979 417 99 C418.1187 99.0486 421.3838 104.0947 424 109 C425.0541 110.9764 423.8772 112.1627 425 114 C428.8243 120.2579 432.5454 120.3582 435 127 C440.2319 141.157 436.5127 146.4262 442 160 C444.887 167.1416 448.8479 166.5809 454 174 C461.1579 184.3073 462.3285 184.8404 467 196 C470.9312 205.3911 472 217 472 217 "/>
<path id="50" d="M412 220 C412 220 423.0972 222 434 222 C457.2923 222 481 220 481 220 "/>
<path id="51" d="M411 221 C411 221 413.5171 239.809 419 254 C421.1994 259.6925 424.4305 259.3484 428 265 C430.1169 268.3518 428.8644 270.282 431 273 C433.5333 276.2241 435.3675 278.0093 439 279 C444.2775 280.4393 446.563 279.6776 453 279 C455.3957 278.7478 456.4502 278.5498 458 277 C465.7492 269.2508 471.3121 266.8103 474 258 C478.5707 243.0181 476 218 476 218 "/>
<path id="52" d="M466 215 L469 223 "/>
<path id="53" d="M383 121 L383 147 "/>
</g>
</g>
</svg>
