<?xml version="1.0" encoding="utf-8"?>
<!DOCTYPE svg PUBLIC "-//W3C//DTD SVG 1.1//EN" "http://www.w3.org/Graphics/SVG/1.1/DTD/svg11.dtd">
<svg viewBox="0 0 800 800" preserveAspectRatio="xMinYMin meet" xmlns="http://www.w3.org/2000/svg" version="1.1">
<g fill="none" stroke="black" stroke-linecap="round" stroke-linejoin="round" stroke-width="3.0098">
<g transform="translate(87.52,222.5791) scale(0.99675) translate(0,-93)">
<path id="0" d="M278 292 C278 292 294.4275 268.2876 308 244 C313.1282 234.8232 309.9867 229.0362 316 224 C343.0569 201.3399 353.1375 196.326 388 177 C395.8992 172.6211 398.1079 173.6382 408 173 C428.5088 171.6769 429.8738 170.9582 450 173 C463.2786 174.3471 463.7185 178.0219 477 180 C486.4724 181.4108 487.5743 178.7263 497 180 C505.3302 181.1257 511.3602 181.6211 514 185 C518.8012 191.1455 519.0919 198.4289 522 212 C525.0238 226.1112 527.9127 236.5769 526 241 C524.8323 243.7003 506.4943 249.4298 506 249 C504.9637 248.0989 505.3831 224.4555 503 221 C501.9916 219.5378 487.0487 220.839 486 220 C485.5994 219.6795 489.0315 210.7192 488 209 C486.1685 205.9475 481.1531 203.2066 474 200 C467.3392 197.0141 463.7613 196 459 196 C457.4129 196 454.8968 197.8802 454 200 C450.4014 208.5057 449.1602 211.3264 448 222 C446.7764 233.2575 450.6289 237.0411 449 246 C448.2975 249.8639 445.8154 251.9 442 255 C438.7344 257.6533 437.3144 258.0412 433 259 C429.0734 259.8726 427.8822 259.7764 424 259 C421.1531 258.4306 420.2885 257.9834 418 256 C413.2989 251.9257 411.1445 251.1469 409 246 C404.555 235.3319 405.9476 224.4213 403 220 C402.1157 218.6736 395.3669 217.5444 391 219 C381.6424 222.1192 379.6571 224.1327 370 231 C357.5017 239.8877 356.326 240.3611 346 251 C340.5774 256.5869 340.2058 257.6725 337 265 C329.9853 281.0336 332.722 283.8319 325 299 C319.3888 310.022 318.032 311.6454 309 320 C299.1075 329.1506 294.013 333.6395 285 336 C279.6638 337.3976 275.1618 333.9679 267 331 C264.9034 330.2376 263.181 328.5431 263 328 C262.9025 327.7076 265 325 265 325 "/>
<path id="1" d="M508 247 C508 247 516.587 261.3482 520 275 C522.6698 285.6793 522.2672 287.8483 521 299 C519.9028 308.6556 518.7139 309.884 515 319 C513.5046 322.6705 512.9672 323.3295 510 326 C503.4617 331.8845 494.9666 336.6824 495 337 C495.0347 337.33 505.3614 339.8136 512 345 C520.0752 351.3087 524.0951 360.838 527 362 C527.9594 362.3838 532.7734 359.0253 537 355 C542.9293 349.3531 544.4361 348.6525 548 342 C551.2337 335.9637 551.2631 334.3685 552 327 C553.1962 315.0381 554.5119 313.22 552 302 C547.4425 281.6432 545.7207 279.5343 537 260 C533.6934 252.5932 530.8509 253.1093 527 246 C524.6944 241.7435 523.8984 236.0625 524 236 C524.4758 235.7072 533.7762 235.2542 540 238 C548.7502 241.8604 549.8761 243.8046 558 251 C567.0676 259.0313 567.6951 259.3168 575 269 C588.8905 287.413 591.8288 290.7158 601 308 C602.7371 311.2738 602.5466 314.778 601 318 C597.7893 324.6889 595.9525 327.299 589 333 C572.0279 346.9171 570.2137 347.1762 551 359 C544.7049 362.8739 539.5521 364.5215 537 365 C536.7574 365.0455 535 362 535 362 "/>
<path id="2" d="M540 236 C540 236 543.5074 232.9525 547 232 C553.7105 230.1699 554.5332 230.5531 562 230 C567.915 229.5618 569.1829 228.6862 574 230 C578.6711 231.2739 580.1332 232.3013 584 236 C590.9539 242.6516 591.3237 243.5906 597 252 C604.6639 263.3539 605.191 263.6074 611 276 C620.0284 295.2605 621.6183 296.8277 627 316 C629.0563 323.3257 628.3158 325.3681 627 333 C626.0044 338.7742 624.9116 339.5003 622 345 C620.5851 347.6726 620.3163 348.365 618 350 C612.4808 353.8959 611.7263 354.424 605 357 C588.6087 363.2775 587.5639 364.6259 571 368 C561.859 369.8621 558.6681 369.9789 551 368 C545.991 366.7073 540 360 540 360 "/>
<path id="3" d="M284 292 C284 292 252.381 294.7995 251 293 C248.5021 289.7451 253.7718 269.511 251 249 C249.025 234.3853 247.825 232.1625 241 219 C234.5342 206.5303 233.0696 205.4981 223 195 C210.1117 181.5633 207.6858 182.984 194 170 C188.4485 164.7332 188.4402 164.3188 184 158 C175.5421 145.9638 174.4602 145.9203 168 133 C161.2462 119.4924 163.4004 117.4746 157 104 C154.2322 98.1731 151.8956 93.3462 149 93 C122.8892 89.8781 74.2175 88.8792 65 93 C63.0261 93.8824 65.7272 129.3252 64 131 C62.8052 132.1586 32.0204 124.9966 32 125 C31.9918 125.0014 46.0335 133.9906 46 134 C45.8656 134.0378 4.6796 131.7619 0 134 C-1.0704 134.5119 -1.722 147.1032 0 156 C0.79534 160.1092 2.4607 161.4607 6 165 C10.955 169.955 15.0644 168.8628 18 174 C27.0976 189.9208 27.8936 193.8222 34 214 C39.1908 231.1523 38.7199 232.0127 41 250 C43.1791 267.1906 41.205 284.3112 43 285 C52.6822 288.7153 126.9991 282.9999 127 283 C127.0004 283 108.2217 285.1127 90 289 C70.8961 293.0755 63.184 292.7867 52 299 C48.0628 301.1873 49.5431 308.6308 45 314 C39.8556 320.0798 33.6971 323.1514 30 325 C29.6393 325.1803 27.0363 323.6526 27 323 C26.1298 307.3372 29.1908 296.0378 27 271 C25.7945 257.2232 24.5933 256.1675 20 243 C17.3156 235.3047 12.0234 227.9766 12 228 C11.883 228.117 7.5945 242.6499 6 257 C4.6564 269.0928 3.728 271.3973 6 282 C7.7202 290.0278 9.6995 291.2386 15 299 C23.4674 311.3987 25.7996 310.8777 34 323 C36.8273 327.1794 38.1565 329.2445 38 333 C37.7739 338.4264 34.3426 340.9585 33 347 C32.6644 348.5104 33.3782 350.7409 34 351 C39.9456 353.4773 45.4889 354.9071 57 357 C67.208 358.856 67.838 359.2479 78 359 C87.7361 358.7625 96.3676 356.5155 98 356 C98.0041 355.9987 96.677 353.5814 97 353 C99.7897 347.9786 104.1361 345.9033 108 338 C114.708 324.279 114.0887 315.8581 119 308 C120.0156 306.3751 124.3725 305.7733 128 306 C130.9378 306.1836 132.3355 306.8684 135 309 C141.633 314.3064 142.9086 314.8403 148 322 C158.4167 336.6485 167 354 167 354 "/>
<path id="4" d="M191 339 C191 339 185.6179 340.3342 182 343 C176.7405 346.8754 176.3445 347.6211 172 353 C166.0193 360.4046 165.3819 360.6345 161 369 C154.6045 381.2095 153.6879 382.5951 150 395 C148.614 399.6619 149.1186 400.9319 150 406 C151.0173 411.8493 151.3428 412.4812 154 418 C157.689 425.6617 157.5093 427.5093 163 433 C170.7785 440.7785 173.4652 444.0662 183 447 C195.7935 450.9365 199.5925 449.5926 215 449 C224.7272 448.6259 225.6089 448.1863 235 445 C253.0678 438.8699 258.5893 438.4618 271 430 C275.8935 426.6635 276.7424 422.055 279 415 C280.2857 410.9823 280.5095 408.7156 279 405 C274.882 394.8634 273.3951 393.1682 266 383 C253.625 365.9844 253.3999 363.7871 239 350 C231.2615 342.5908 228.5664 341.0332 219 338 C210.4334 335.2838 207.5126 335.7483 198 337 C189.8909 338.067 186.5047 339.2468 181 343 C178.0934 344.9817 176 352 176 352 "/>
<path id="5" d="M213 398 C213 398 208.8564 405.9895 209 408 C209.0644 408.9017 211.6601 411.415 214 412 C219.9474 413.4868 222.3911 413.6008 229 413 C232.2238 412.7069 235.2512 411.2836 236 410 C236.9514 408.3691 237.207 402.3679 236 401 C233.1521 397.7724 227.7723 394.7558 221 393 C216.3431 391.7927 211.8795 392.2403 209 394 C206.2346 395.6899 203 404 203 404 "/>
<path id="6" d="M204 355 C204 355 221.0217 386.2618 224 391 C224.0158 391.0251 226 390 226 390 "/>
<path id="7" d="M222 365 L239 403 "/>
<path id="8" d="M174 400 C174 400 174.2712 406.1382 176 408 C178.8438 411.0626 182.3359 413.576 187 414 C195.7774 414.7979 209 411 209 411 "/>
<path id="9" d="M184 371 L217 398 "/>
<path id="10" d="M216 427 L216 437 "/>
<path id="11" d="M239 415 L249 436 "/>
<path id="12" d="M252 397 L276 409 "/>
<path id="13" d="M26 356 C26 356 35.8776 358.3555 42 363 C49.0041 368.3134 50.5039 370.2567 55 378 C58.7693 384.4915 58.6041 386.1829 60 394 C60.9916 399.5529 61.4477 401.1141 60 406 C57.9044 413.0725 56.7469 417.325 52 421 C44.7469 426.6153 39.7669 428.5222 29 430 C16.6825 431.6906 1.5163 429.4724 1 428 C-2.2612 418.6997 -2.3078 372.0449 2 353 C2.7485 349.6907 11.8721 345.4224 20 344 C28.9895 342.4268 42 346 42 346 "/>
<path id="14" d="M26 395 C26 395 28.5641 401.6367 29 402 C29.0658 402.0548 31.9417 400.4664 32 400 C32.1411 398.8709 31.2236 394.7866 30 394 C27.0902 392.1294 18 391 18 391 "/>
<path id="15" d="M22 359 L15 383 "/>
<path id="16" d="M51 379 C51 379 52.0536 384.6284 51 388 C49.9976 391.2077 46 395 46 395 "/>
<path id="17" d="M36 406 C36 406 38.721 413.1401 39 419 C39.1678 422.5244 37 427 37 427 "/>
<path id="18" d="M26 405 L19 412 "/>
</g>
</g>
</svg>
