<?xml version="1.0" encoding="utf-8"?>
<!DOCTYPE svg PUBLIC "-//W3C//DTD SVG 1.1//EN" "http://www.w3.org/Graphics/SVG/1.1/DTD/svg11.dtd">
<svg viewBox="0 0 800 800" preserveAspectRatio="xMinYMin meet" xmlns="http://www.w3.org/2000/svg" version="1.1">
<g fill="none" stroke="black" stroke-linecap="round" stroke-linejoin="round" stroke-width="2.3089">
<g transform="translate(87.52,141.4407) scale(1.2993) translate(-159,-82.1333)">
<path id="0" d="M307 268.1333 C307 268.1333 302.3905 266.1927 298 266.1333 C266.3924 265.7062 264.8608 264.4783 233 267.1333 C211.6235 268.9147 200.5384 272.2592 190 275.1333 C189.5123 275.2663 189.9709 278.2318 189 279.1333 C184.6016 283.2176 179.2485 283.0487 176 288.1333 C169.7323 297.9436 170.1971 301.4927 166 315.1333 C162.2537 327.3087 161.5807 327.7139 160 340.1333 C158.1516 354.6563 158.3281 355.6874 159 370.1333 C159.2947 376.4702 159.5719 377.3943 162 383.1333 C164.788 389.7232 165.2194 391.3528 170 396.1333 C175.6911 401.8245 177.2009 402.6237 185 406.1333 C196.4387 411.2808 197.4914 411.9259 210 414.1333 C230.6991 417.7861 231.5469 417.2665 253 418.1333 C280.8343 419.258 281.4709 419.2647 309 418.1333 C317.4176 417.7874 318.8374 417.7119 326 415.1333 C330.025 413.6843 331.2978 412.6303 334 409.1333 C339.0919 402.5438 340.3744 401.319 343 393.1333 C348.5004 375.9852 349.8678 374.2486 351 356.1333 C352.7776 327.6923 352.7517 324.0775 349 297.1333 C347.6549 287.473 345.1318 286.4348 340 277.1333 C337.3561 272.3413 336.724 270.0596 333 268.1333 C324.979 263.9846 311 262.1333 311 262.1333 "/>
<path id="1" d="M274 361.1333 L536 360.1333 "/>
<path id="2" d="M554 217.1333 C554 217.1333 542 216.9795 534 219.1333 C531.1386 219.9037 530.6123 221.3344 528 224.1333 C516.7784 236.1565 517.6451 237.7947 506 249.1333 C499.0433 255.9069 495.7423 254.115 490 261.1333 C478.9316 274.6614 477.9895 276.6549 470 293.1333 C462.3705 308.8693 461.6816 310.014 458 327.1333 C451.8889 355.5499 451.3409 356.8241 450 386.1333 C447.8778 432.5189 445.263 475.865 451 480.1333 C460.9685 487.5499 545.7261 481.6491 575 479.1333 C576.1464 479.0348 576.302 472.2168 579 469.1333 C581.9478 465.7644 584.9947 466.638 589 463.1333 C592.4144 460.1458 592.9741 459.354 595 455.1333 C598.7018 447.4213 598.8654 446.7902 601 438.1333 C616.7552 374.2371 620.9412 373.6129 631 309.1333 C640.2103 250.0927 645.4697 197.8044 640 188.1333 C637.8711 184.3691 588.5229 180.0768 562 187.1333 C548.6994 190.672 531 217.1333 531 217.1333 "/>
<path id="3" d="M324 309.1333 C324 309.1333 552.4229 305.6245 562 305.1333 C562.1443 305.1259 558.6918 301.0071 558 297.1333 C556.3982 288.1632 555.6793 286.3783 557 277.1333 C559.0048 263.0997 562.7716 262.6923 565 248.1333 C570.1663 214.3803 568.2649 213.5788 572 179.1333 C572.7612 172.1134 572.2474 171.5596 574 165.1333 C575.0954 161.1169 577.33 161.0418 578 157.1333 C580.1093 144.8294 580.4389 136.4968 580 130.1333 C579.9628 129.5942 577.8614 128.2473 576 128.1333 C555.6536 126.8876 553.4953 127.5924 531 127.1333 C529.0013 127.0925 527.3958 126.681 527 127.1333 C525.7985 128.5065 524.9747 131.0516 524 135.1333 C517.0549 164.2157 519.1142 165.5714 511 194.1333 C506.8054 208.8984 503.9813 208.4661 499 223.1333 C495.0786 234.6797 497.5188 236.2883 493 247.1333 C487.9128 259.3425 486.2079 261.5228 479 271.1333 C477.0674 273.7101 475.2635 274.54 472 275.1333 C465.665 276.2851 464.0009 276.4062 457 275.1333 C442.786 272.549 442.0527 267.8602 428 267.1333 C386.4844 264.986 373.4843 262.8169 341 269.1333 C331.8206 270.9182 320.3633 287.1645 320 288.1333 C319.9932 288.1514 329.5476 290.5057 332 293.1333 C333.7964 295.0581 334 303.1333 334 303.1333 "/>
<path id="4" d="M374 265.1333 C374 265.1333 379.9113 228.5696 382 192.1333 C384.3901 150.44 383.4423 148.3854 383 108.1333 C382.963 104.768 382.5762 104.1107 381 101.1333 C378.3192 96.0697 376.9619 92.8756 374 91.1333 C371.7008 89.7809 368.1062 90.0527 364 91.1333 C359.7641 92.248 359.4702 95.0815 355 96.1333 C343.7083 98.7902 341.8092 96.387 330 99.1333 C320.9801 101.231 321.1513 103.5433 312 106.1333 C294.9332 110.9636 277.001 114.1333 277 114.1333 C276.9995 114.1333 287.5392 111.046 296 106.1333 C302.3715 102.4337 301.7149 98.4902 308 96.1333 C330.8459 87.5661 335.1052 82.484 360 82.1333 C470.5824 80.5758 562.5149 83.6182 592 92.1333 C594.0663 92.7301 594.1562 125.4149 592 149.1333 C591.6389 153.1053 586 158.1333 586 158.1333 "/>
<path id="5" d="M385 205.1333 C385 205.1333 385.2939 200.1524 384 197.1333 C382.75 194.2166 381.7746 193.7758 379 191.1333 C371.4037 183.8988 371.3796 182.9991 363 177.1333 C356.8614 172.8363 355.5909 171.0561 349 170.1333 C333.1606 167.9158 330.4493 168.4975 313 170.1333 C299.1557 171.4312 298.5091 172.4822 285 176.1333 C280.4025 177.3759 279.844 177.5124 276 180.1333 C269.2804 184.7149 268.805 185.1281 263 191.1333 C254.51 199.9161 253.6179 200.2065 247 210.1333 C242.018 217.6064 241.9587 218.4848 239 227.1333 C235.5955 237.0849 235.6526 237.5979 234 248.1333 C231.6884 262.8696 231.5343 263.1735 231 278.1333 C230.0417 304.9653 229.1841 306.3472 231 332.1333 C231.5835 340.4193 234.0011 348.4398 236 349.1333 C244.0703 351.9332 279.9146 349.1455 280 349.1333 C280.0161 349.131 274.2843 347.2124 271 344.1333 C267.0708 340.4497 265.7779 338.7051 264 334.1333 C262.882 331.2585 264.3288 327.01 264 326.1333 C263.9538 326.01 261.0001 326.1381 261 326.1333 C260.8817 317.3812 260.9032 288.198 263 252.1333 C263.3444 246.2093 263.7585 245.6353 266 240.1333 C269.0955 232.5354 268.7504 229.8708 274 225.1333 C286.8833 213.5069 292.5175 206.9551 307 203.1333 C321.2596 199.3704 326.5313 205.1599 346 206.1333 C356.443 206.6555 356.8067 207.007 367 206.1333 C373.9204 205.5402 381 203.1333 381 203.1333 "/>
</g>
</g>
</svg>
