<?xml version="1.0" encoding="utf-8"?>
<!DOCTYPE svg PUBLIC "-//W3C//DTD SVG 1.1//EN" "http://www.w3.org/Graphics/SVG/1.1/DTD/svg11.dtd">
<svg viewBox="0 0 800 800" preserveAspectRatio="xMinYMin meet" xmlns="http://www.w3.org/2000/svg" version="1.1">
<g fill="none" stroke="black" stroke-linecap="round" stroke-linejoin="round" stroke-width="2.4386">
<g transform="translate(87.52,221.6157) scale(1.2302) translate(-131,-129.75)">
<path id="0" d="M135 344.75 C135 344.75 136.2223 364.1101 135 382.75 C134.2518 394.1607 130.5018 405.4817 131 405.75 C133.4911 407.0914 152.5906 403.75 174 403.75 C195.9073 403.75 213.3366 406.9159 218 405.75 C218.3484 405.6629 218.5768 395.4416 218 392.75 C217.9271 392.4098 214.9936 391.7586 215 391.75 C215.0386 391.6985 220.6073 389.9281 221 388.75 C222.1781 385.2157 219.5192 379.6731 221 373.75 C222.0365 369.6038 225.2422 368.8515 227 364.75 C227.7595 362.9778 226.2692 360.4039 227 359.75 C231.8579 355.4035 237.2553 349.4157 246 347.75 C264.0762 344.3069 284.5113 347.5005 290 347.75 C290.0113 347.7505 289.925 349.725 290 349.75 C290.675 349.975 295.6701 349.1782 296 349.75 C298.9724 354.9022 303.0437 363.2783 305 375.75 C306.773 387.053 304.8662 395.1198 304 400.75 C303.9497 401.0771 300.9992 401.75 301 401.75 C301.0144 401.75 330.2973 402.0351 356 400.75 C358.3812 400.6309 359.5227 400.0163 361 398.75 C362.1944 397.7262 362.1741 395.1171 363 394.75 C364.5303 394.0699 370 394.75 370 394.75 "/>
<path id="1" d="M136 344.75 C136 344.75 134.0568 320.6158 137 317.75 C142.0406 312.842 158.4134 313.5496 174 307.75 C177.1511 306.5775 177.1352 303.0869 180 301.75 C183.0818 300.3118 185.9871 302.2565 189 300.75 C192.3301 299.085 192.3049 295.7823 196 293.75 C201.1765 290.9029 205.0708 292.6452 209 289.75 C212.2938 287.323 211.2625 282.7142 215 279.75 C223.9366 272.6624 230.3565 272.1641 238 266.75 C238.9097 266.1056 238.3455 263.1427 239 262.75 C240.9635 261.5719 244.8637 262.7954 248 260.75 C254.8417 256.288 256.6894 253.7687 262 247.75 C263.0227 246.591 262.5175 244.2325 263 243.75 C263.2895 243.4605 265.9706 243.8676 266 243.75 C267.3032 238.5372 270.0062 227.651 271 211.75 C272.4763 188.1291 271.6983 181.2073 271 163.75 C270.9697 162.9935 268.9802 161.7503 269 161.75 C269.7212 161.7397 315.1031 163.4406 341 162.75 C342.1082 162.7204 342.663 159.9792 344 159.75 C356.3698 157.6295 375.7537 156.011 376 156.75 C379.3951 166.9353 375.4331 212.1238 378 261.75 C378.2737 267.0415 380.9514 267.2975 382 272.75 C383.3535 279.7884 382.9266 280.2624 383 287.75 C383.4255 331.1495 383.7946 331.443 383 374.75 C382.7987 385.7195 382.6935 394.5584 381 396.75 C380.1663 397.8289 366 396.75 366 396.75 "/>
<path id="2" d="M281 387.75 C281 387.75 278.0045 388.7725 278 388.75 C277.8202 387.8509 279.6626 378.688 278 372.75 C276.8611 368.6825 274.9086 366.5418 271 363.75 C265.6777 359.9483 263.4551 359.041 257 357.75 C252.4135 356.8327 248.1941 357.5686 246 358.75 C245.0054 359.2856 245.3006 363.2636 244 364.75 C242.9301 365.9727 240.4759 365.2741 239 366.75 C235.4157 370.3343 232.7885 372.2442 232 376.75 C229.8926 388.7922 229.7969 396.2855 232 406.75 C232.7112 410.128 236.0103 412.5335 240 414.75 C243.5622 416.729 248.4262 415.9631 250 416.75 C250.2146 416.8573 249.9178 419.731 250 419.75 C251.5428 420.106 259.1009 421.1865 263 419.75 C265.5731 418.802 266.9978 416.1823 269 412.75 C270.0646 410.9249 268.9027 409.3959 270 407.75 C272.2591 404.3613 275.6926 404.0184 277 400.75 C278.7876 396.281 278.1053 389.119 278 387.75 C277.9987 387.7337 276 387.75 276 387.75 "/>
<path id="3" d="M291 183.75 C291 183.75 292.8485 205.5369 292 226.75 C291.3648 242.6302 286.9619 258.119 288 258.75 C291.6544 260.9713 326.1211 258.9345 343 257.75 C343.6775 257.7025 344.2 254.91 345 254.75 C350.6 253.63 355.6637 255.5107 363 253.75 C366.2981 252.9585 369.633 250.799 370 248.75 C373.6909 228.1424 373.7456 216.4366 375 186.75 C375.1798 182.4956 374.5851 180.1276 373 177.75 C371.9262 176.1394 369.6718 174.7847 367 174.75 C335.5996 174.3422 307.5989 175.139 296 176.75 C295.6565 176.7977 295.537 183.6761 295 184.75 C294.9052 184.9395 292 184.75 292 184.75 "/>
<path id="4" d="M380 232.75 C380 232.75 386.7999 224.0649 395 218.75 C412.9205 207.1349 419.576 203.8401 434 197.75 C435.5536 197.0941 438.1824 200.2283 440 199.75 C444.9285 198.453 446.5051 194.9982 453 192.75 C458.7661 190.7541 460.7812 193.2221 466 190.75 C478.1904 184.9756 478.4604 179.2725 491 174.75 C506.5526 169.1409 510.3681 173.1625 527 168.75 C533.5733 167.0061 533.9634 164.0976 540 161.75 C541.9198 161.0034 545 161.75 545 161.75 "/>
<path id="5" d="M381 279.75 C381 279.75 383.6115 273.7042 386 271.75 C387.4105 270.5959 390.3972 271.9157 392 270.75 C394.4042 269.0015 394.5105 264.8816 397 263.75 C402.5876 261.2102 411.2344 261.7261 414 260.75 C414.1622 260.6928 413.85 257.825 414 257.75 C414.6 257.45 418.1886 258.5734 420 257.75 C422.1956 256.752 422.6788 253.5237 425 252.75 C429.6425 251.2025 433.8912 253.599 438 251.75 C441.2381 250.2928 441.2312 245.7793 445 243.75 C452.4093 239.7604 456.7863 240.8416 464 237.75 C465.0988 237.2791 465.0227 235.061 466 234.75 C473.0368 232.511 477.9446 233.4351 486 230.75 C488.0138 230.0787 487.8998 227.6343 490 226.75 C496.1644 224.1545 498.2716 225.5535 505 222.75 C509.6426 220.8156 509.5269 218.3059 514 216.75 C519.929 214.6877 523.1872 217.5883 528 214.75 C539.8533 207.7596 541.5023 199.0198 553 193.75 C560.7897 190.1797 568.5749 190.725 576 192.75 C580.1581 193.884 581.865 199.7964 586 202.75 C586.9648 203.4392 588.8343 202.1672 590 202.75 C591.7485 203.6243 592.2515 206.1672 594 206.75 C596.6228 207.6243 598.5295 205.9334 602 206.75 C606.3126 207.7647 606.7085 210.1581 611 210.75 C619.9857 211.9894 631 210.75 631 210.75 "/>
<path id="6" d="M543 165.75 C543 165.75 591.8207 167.3013 600 165.75 C600.4429 165.666 600.1046 156.8989 601 154.75 C601.2091 154.2481 604.3315 154.5856 605 153.75 C606.9418 151.3227 609 144.75 609 144.75 "/>
<path id="7" d="M616 130.75 C616 130.75 610.5033 135.6697 609 139.75 C607.7017 143.2739 608.9672 149.7238 609 149.75 C609.0008 149.7507 611.5589 145.4587 614 143.75 C615.5124 142.6913 618.7435 143.3057 619 142.75 C619.9663 140.6563 620 130.75 620 130.75 "/>
<path id="8" d="M620 129.75 C620 129.75 632.2259 154.1805 639 173.75 C640.0251 176.7115 639.0273 179.6955 638 181.75 C637.5166 182.7168 634.5517 182.7569 634 183.75 C633.0127 185.5271 634.288 188.013 633 190.75 C630.708 195.6206 628.234 196.282 626 200.75 C625.3381 202.0738 625.5167 204.025 626 204.75 C626.5639 205.5958 629.7563 205.9215 630 206.75 C631.1733 210.7392 631.8227 221.0572 631 221.75 C629.5259 222.9913 619.7039 221.3574 611 222.75 C608.6341 223.1286 606.0017 225.7528 606 225.75 C605.6798 225.2011 604 210.75 604 210.75 "/>
<path id="9" d="M607 228.75 C607 228.75 590.8629 243.386 578 258.75 C573.5305 264.0886 573.4133 268.6127 571 271.75 C570.6971 272.1438 568 271.75 568 271.75 C568 271.75 595.784 272.2571 615 270.75 C616.7287 270.6144 618.6127 269.0668 619 267.75 C620.3256 263.2431 618.7364 260.068 620 253.75 C620.5873 250.8134 623.1029 250.0138 623 247.75 C622.716 241.5026 619.1794 239.2861 619 231.75 C618.7109 219.6097 622 205.75 622 205.75 "/>
</g>
</g>
</svg>
