<?xml version="1.0" encoding="utf-8"?>
<!DOCTYPE svg PUBLIC "-//W3C//DTD SVG 1.1//EN" "http://www.w3.org/Graphics/SVG/1.1/DTD/svg11.dtd">
<svg viewBox="0 0 800 800" preserveAspectRatio="xMinYMin meet" xmlns="http://www.w3.org/2000/svg" version="1.1">
<g fill="none" stroke="black" stroke-linecap="round" stroke-linejoin="round" stroke-width="2.1361">
<g transform="translate(87.52,152.1226) scale(1.4044) translate(-98,-101.4167)">
<path id="0" d="M465 240.4167 C465 240.4167 436.951 251.0254 410 263.4167 C393.6357 270.9405 394.2982 273.1106 378 280.4167 C365.6452 285.955 365.1616 285.6816 352 289.4167 C328.3055 296.1408 327.9213 296.9514 304 301.4167 C290.9665 303.8496 277 303.4167 277 303.4167 "/>
<path id="1" d="M279 300.4167 C279 300.4167 276.1446 309.5947 276 318.4167 C275.6557 339.418 275.8682 340.4539 278 361.4167 C278.8096 369.3774 279.1847 369.8505 282 377.4167 C287.0654 391.0298 286.1525 393.265 294 404.4167 C304.0287 418.668 306.3841 421.9112 320 431.4167 C330.3165 438.6187 333.4469 437.4124 347 441.4167 C355.0928 443.8077 364 444.4167 364 444.4167 "/>
<path id="2" d="M468 236.4167 C468 236.4167 464.4739 255.3046 468 270.4167 C474.316 297.485 476 301.303 489 326.4167 C496.9523 341.7791 499.6731 342.4734 512 355.4167 C519.0687 362.8388 520.2005 363.0235 529 368.4167 C535.2301 372.2351 542.9788 374.2896 543 374.4167 C543.0102 374.4777 536.9865 378.9605 531 380.4167 C519.5558 383.2004 517.5207 380.5365 506 383.4167 C498.506 385.2902 498.3602 386.6644 491 390.4167 C472.8908 399.6488 471.986 398.9162 455 409.4167 C444.9416 415.6346 445.9323 417.9607 436 424.4167 C426.275 430.7379 425.8241 431.1526 415 435.4167 C393.2482 443.9855 382.0122 447.4136 370 450.4167 C369.4456 450.5553 367 447.4167 367 447.4167 "/>
<path id="3" d="M297 410.4167 C297 410.4167 297.9229 419.0333 297 426.4167 C296.5169 430.2814 296.1832 431.8976 294 434.4167 C290.7733 438.1398 288.575 440.2729 284 441.4167 C276.9914 443.1688 273.8872 443.5356 266 441.4167 C242.4103 435.0791 240.493 433.715 217 423.4167 C204.5549 417.9613 203.1884 417.6171 193 409.4167 C183.6712 401.9081 185.4892 398.367 176 390.4167 C149.1842 367.9494 146.2824 369.4833 119 347.4167 C112.845 342.4383 111.9349 341.8367 108 335.4167 C102.9815 327.2286 100 316.4167 100 316.4167 "/>
<path id="4" d="M118 304.4167 C118 304.4167 120.7598 317.789 127 327.4167 C137.3562 343.3948 139.3394 344.0897 153 358.4167 C159.4402 365.1711 160.1135 366.0353 168 370.4167 C177.2616 375.562 180.4083 373.7904 189 378.4167 C191.7943 379.9213 191.1358 382.4118 194 384.4167 C200.4132 388.9059 202.5336 387.6267 209 392.4167 C215.455 397.1981 214.6254 400.1669 221 404.4167 C227.0559 408.4539 228.5017 409.0863 236 410.4167 C258.3518 414.3823 273.1057 416.1927 283 415.4167 C283.999 415.3383 286.1372 410.7309 287 406.4167 C287.9685 401.5742 287.7282 398.5721 287 395.4167 C286.8218 394.6444 284 393.4167 284 393.4167 "/>
<path id="5" d="M98 320.4167 C98 320.4167 96.9275 315.247 98 311.4167 C100.1402 303.7731 100.4166 300.8334 105 295.4167 C109.7442 289.8099 120 285.4167 120 285.4167 "/>
<path id="6" d="M277 305.4167 C277 305.4167 275.6152 310.4528 273 313.4167 C268.757 318.2254 267.7608 318.3361 262 322.4167 C243.8611 335.265 241.7217 334.5837 225 347.4167 C221.3871 350.1893 220.5502 351.7996 219 355.4167 C218.1202 357.4696 218.0045 359.6248 219 361.4167 C221.9128 366.6596 223.357 368.3163 229 373.4167 C248.9326 391.4326 251.9543 398.8938 271 408.4167 C280.7629 413.2981 301 409.4167 301 409.4167 "/>
<path id="7" d="M122 286.4167 C122 286.4167 134.9601 283.601 144 286.4167 C162.4571 292.1656 164.1407 295.0304 183 305.4167 C198.4278 313.9132 197.5507 316.4345 213 324.4167 C227.046 331.6738 243 336.4167 243 336.4167 "/>
<path id="8" d="M117 306.4167 C117 306.4167 118.325 304.4167 119 304.4167 C126.7627 304.4167 132.5487 302.8317 142 306.4167 C158.941 312.8426 159.0711 319.1543 177 326.4167 C197.3247 334.6495 201.0081 331.1469 221 338.4167 C226.7496 340.5074 232 346.4167 232 346.4167 "/>
<path id="9" d="M164 330.4167 C164 330.4167 149.2038 329.9351 148 330.4167 C147.8947 330.4588 148.3411 336.0323 149 336.4167 C150.6962 337.4061 156.5079 338.1151 160 337.4167 C161.552 337.1063 163.1257 335.1652 164 333.4167 C164.5828 332.251 164 329.4167 164 329.4167 "/>
<path id="10" d="M158 333.4167 C158 333.4167 164.6064 339.3217 172 343.4167 C196.7483 357.1234 208.5164 362.9795 223 369.4167 C223.4888 369.6339 225.9492 367.925 226 367.4167 C226.1724 365.6928 225.807 360.7268 224 359.4167 C211.6694 350.477 204.7178 346.2978 186 338.4167 C177.903 335.0074 167 335.4167 167 335.4167 "/>
<path id="11" d="M294 322.4167 C294 322.4167 293.0155 337.3054 294 351.4167 C294.4824 358.3308 294.3617 359.1349 297 365.4167 C304.5312 383.3481 304.6928 385.0465 315 401.4167 C321.1133 411.1261 322.4382 413.0565 331 419.4167 C338.2709 424.8179 350 427.4167 350 427.4167 "/>
<path id="12" d="M296 324.4167 C296 324.4167 339.6363 323.9325 372 319.4167 C376.6318 318.7704 376.7069 314.669 382 312.4167 C399.3456 305.0355 401.4501 307.1505 419 299.4167 C430.389 294.3978 431.8781 293.9288 441 286.4167 C447.7922 280.8231 453 271.4167 453 271.4167 "/>
<path id="13" d="M451 276.4167 C451 276.4167 450.4593 289.0811 453 300.4167 C456.7896 317.3241 456.0492 321.7889 464 334.4167 C470.6988 345.056 475.1846 346.114 487 354.4167 C492.8086 358.4984 501 360.4167 501 360.4167 "/>
<path id="14" d="M350 426.4167 C350 426.4167 357.1846 431.7128 364 433.4167 C371.8973 435.391 373.9429 435.9369 382 434.4167 C398.7713 431.2523 400.0877 429.9797 417 423.4167 C433.2888 417.0956 433.9232 417.123 449 408.4167 C469.0275 396.8515 468.536 393.8661 488 382.4167 C493.1454 379.39 495.5954 381.4198 500 378.4167 C505.2339 374.8481 506.5815 371.8607 510 367.4167 C510.3658 366.9412 510.1038 365.4556 510 365.4167 C508.8404 364.9818 502 364.4167 502 364.4167 "/>
<path id="15" d="M378 447.4167 C378 447.4167 391.1771 446.3189 394 447.4167 C394.8331 447.7407 395.9779 454.4321 396 454.4167 C396.1357 454.3217 400.4498 442.253 404 440.4167 C409.012 437.8242 418.1882 440.8358 425 439.4167 C426.2312 439.1602 426.3191 436.3065 428 435.4167 C433.4676 432.5221 435.7982 433.8177 442 430.4167 C450.7351 425.6265 451.07 424.8782 459 418.4167 C464.3744 414.0375 465.8854 412.4657 469 408.4167 C469.5281 407.7301 468.5142 405.9025 469 405.4167 C472.7248 401.6919 475.2781 398.7776 482 395.4167 C489.2821 391.7756 490.8 391.2577 499 390.4167 C509.253 389.3651 514.3135 393.3579 521 391.4167 C524.6662 390.3523 526.1503 383.6812 530 381.4167 C532.0694 380.1994 538 381.4167 538 381.4167 "/>
<path id="16" d="M415 262.4167 C415 262.4167 414.4909 253.0401 416 244.4167 C417.9139 233.4802 420.2003 233.2151 422 222.4167 C423.0955 215.8437 422 208.4167 422 208.4167 "/>
<path id="17" d="M422 208.4167 C422 208.4167 385.6088 210.2174 350 207.4167 C297.128 203.2582 296.5455 202.4491 244 194.4167 C218.3657 190.4981 193 183.4167 193 183.4167 "/>
<path id="18" d="M394 272.4167 C394 272.4167 398.0156 226.5765 395 224.4167 C387.9004 219.3319 323.6065 215.8102 320 219.4167 C316.0844 223.3322 322 297.4167 322 297.4167 "/>
<path id="19" d="M193 183.4167 L193 294.4167 "/>
<path id="20" d="M193 243.4167 C193 243.4167 167.7602 242.833 144 240.4167 C139.034 239.9117 134.0122 237.3449 134 237.4167 C133.5327 240.162 136 287.4167 136 287.4167 "/>
<path id="21" d="M160 130.4167 C160 130.4167 153.8468 135.1465 151 139.4167 C149.7348 141.3145 150.0742 142.4469 150 145.4167 C149.581 162.1757 148.5876 165.2932 150 179.4167 C150.2659 182.0752 152.5371 184.854 154 185.4167 C155.9982 186.1852 159.1401 185.7676 163 184.4167 C168.408 182.5239 170.0453 182.183 174 178.4167 C179.5208 173.1588 181.9844 171.0131 184 164.4167 C186.636 155.7897 186.6877 149.6498 185 142.4167 C184.235 139.1379 180.2923 136.8111 177 134.4167 C176.2852 133.8968 174 134.4167 174 134.4167 "/>
<path id="22" d="M143 127.4167 C143 127.4167 142.2749 124.5561 143 123.4167 C147.878 115.7512 149.9604 110.4125 157 105.4167 C162.2161 101.7149 172.1999 100.1952 174 101.4167 C177.3527 103.6917 181.9157 113.4814 185 124.4167 C186.8906 131.1197 185.1089 140.2171 185 140.4167 C184.9882 140.4382 181.8614 136.1871 179 135.4167 C171 133.2628 165.3631 131.7746 159 133.4167 C154.5648 134.5612 148.0082 143.4248 148 143.4167 C147.812 143.2287 147 121.4167 147 121.4167 "/>
<path id="23" d="M154 147.4167 L157 148.4167 "/>
<path id="24" d="M176 149.4167 C176 149.4167 174.9166 154.3055 175 154.4167 C175.0393 154.469 178.9861 153.4721 179 153.4167 C179.0156 153.3543 176 150.4167 176 150.4167 "/>
<path id="25" d="M165 159.4167 C165 159.4167 166.4626 164.3668 168 166.4167 C168.5402 167.1369 170.8597 167.4634 171 167.4167 C171.0351 167.405 171 165.4167 171 165.4167 "/>
<path id="26" d="M161 173.4167 L168 177.4167 "/>
<path id="27" d="M152 183.4167 C152 183.4167 149.772 218.0014 152 237.4167 C152.322 240.2223 155.6396 243.1565 159 244.4167 C165.197 246.7406 173.3663 246.7093 176 246.4167 C176.2267 246.3915 176.8773 244.3801 177 242.4167 C177.3625 236.6171 178.248 235.8247 177 230.4167 C173.976 217.3126 171.3392 216.7735 168 203.4167 C166.4874 197.3662 167 190.4167 167 190.4167 "/>
<path id="28" d="M167 188.4167 L166 187.4167 "/>
<path id="29" d="M166 187.4167 L166 182.4167 "/>
<path id="30" d="M166 182.4167 L192 182.4167 "/>
<path id="31" d="M172 193.4167 L192 190.4167 "/>
<path id="32" d="M153 196.4167 C153 196.4167 153.8331 199.8749 155 200.4167 C164.1297 204.6554 180.3977 209.3665 181 209.4167 C181.0582 209.4215 180.7964 204.8867 179 202.4167 C173.6494 195.0596 165 187.4167 165 187.4167 "/>
<path id="33" d="M159 240.4167 C159 240.4167 164.4349 239.1826 168 240.4167 C175.9681 243.1749 180.1738 244.5905 185 249.4167 C187.97 252.3866 189 261.4167 189 261.4167 "/>
<path id="34" d="M156 238.4167 C156 238.4167 155.1165 254.2357 157 256.4167 C158.9516 258.6764 169.7428 256.8493 175 260.4167 C180.1212 263.8918 181.4293 267.7651 185 275.4167 C188.0624 281.9789 188.5179 289.2917 189 290.4167 C189.0041 290.4263 191 289.4167 191 289.4167 "/>
<path id="35" d="M186 257.4167 L189 262.4167 "/>
<path id="36" d="M148 186.4167 C148 186.4167 141.2674 190.7552 140 194.4167 C137.8408 200.6543 137.7235 207.5236 139 212.4167 C139.4912 214.2995 143.784 214.5189 146 217.4167 C149.5506 222.0598 152 229.4167 152 229.4167 "/>
<path id="37" d="M146 196.4167 C146 196.4167 137.7224 177.0385 133 171.4167 C132.1165 170.3649 126.7855 170.0969 125 171.4167 C118.8477 175.964 115.3989 180.1596 110 188.4167 C107.9241 191.5916 108.1064 193.0022 108 197.4167 C107.13 233.5199 106.7329 236.7814 108 271.4167 C108.1389 275.2124 109.4615 277.4386 111 279.4167 C111.6121 280.2036 115 280.4167 115 280.4167 "/>
<path id="38" d="M231 251.4167 C231 251.4167 225.7073 273.1237 226 285.4167 C226.0703 288.3711 229.0614 292.4741 232 293.4167 C249.1135 298.9059 255.8349 298.483 279 302.4167 C281.8641 302.903 284.325 302.6417 285 302.4167 C285.075 302.3917 285 300.4167 285 300.4167 "/>
<path id="39" d="M228 254.4167 C228 254.4167 252.6725 254.7812 276 258.4167 C290.5111 260.6781 291.5048 261.7897 305 266.4167 C308.1339 267.4912 308.2294 269.6251 311 270.4167 C314.1031 271.3033 319 270.4167 319 270.4167 "/>
</g>
</g>
</svg>
