<?xml version="1.0" encoding="utf-8"?>
<!DOCTYPE svg PUBLIC "-//W3C//DTD SVG 1.1//EN" "http://www.w3.org/Graphics/SVG/1.1/DTD/svg11.dtd">
<svg viewBox="0 0 800 800" preserveAspectRatio="xMinYMin meet" xmlns="http://www.w3.org/2000/svg" version="1.1">
<g fill="none" stroke="black" stroke-linecap="round" stroke-linejoin="round" stroke-width="2.1553">
<g transform="translate(87.52,205.8309) scale(1.3919) translate(-74,-45)">
<path id="0" d="M193 114 L195 198 "/>
<path id="1" d="M196 114 L296 116 "/>
<path id="2" d="M197 198 L308 197 "/>
<path id="3" d="M294 113 C294 113 294.595 125.3493 297 136 C297.9043 140.0049 300.7539 140.3079 301 144 C302.5483 167.2243 301 196 301 196 "/>
<path id="4" d="M211 125 L211 125 "/>
<path id="5" d="M212 131 L213 172 "/>
<path id="6" d="M211 131 L258 131 "/>
<path id="7" d="M213 173 C213 173 224.4399 174.2279 235 173 C245.3592 171.7954 256 168 256 168 "/>
<path id="8" d="M259 131 C259 131 259.9596 165.3218 259 170 C258.9596 170.1968 251 170 251 170 "/>
<path id="9" d="M310 90 C310 90 309.1125 96.7874 310 103 C311.5507 113.8549 314.306 114.1276 315 125 C317.2407 160.1047 316 197 316 197 "/>
<path id="10" d="M309 90 C309 90 343.6456 96.9792 378 99 C419.5043 101.4414 462 99 462 99 "/>
<path id="11" d="M317 196 L478 196 "/>
<path id="12" d="M462 96 C462 96 459.1776 106.1029 461 114 C467.6032 142.614 472.8976 144.5249 480 174 C482.5561 184.6077 481 197 481 197 "/>
<path id="13" d="M325 113 L327 159 "/>
<path id="14" d="M324 114 L424 116 "/>
<path id="15" d="M329 158 C329 158 406.5761 160.992 424 158 C425.269 157.7821 427.1614 149.3864 428 141 C429.1085 129.9145 428.7601 128.2617 428 118 C427.8629 116.1493 426.8458 114.4833 426 114 C425.0132 113.4361 421 114 421 114 "/>
<path id="16" d="M233 46 L238 115 "/>
<path id="17" d="M234 45 C234 45 254.731 45.0904 255 46 C257.6116 54.8297 255 116 255 116 "/>
<path id="18" d="M156 219 C156 219 167.0368 220.8975 178 221 C273.5978 221.8934 275.0425 223.7581 370 221 C394.3345 220.2932 394.6299 216.1594 419 214 C433.7339 212.6945 434.2629 215.2454 449 214 C469.3898 212.2769 469.6207 210.0045 490 208 C499.8001 207.0361 510 208 510 208 "/>
<path id="19" d="M156 242 C156 242 338.1679 245.2593 504 243 C513.0934 242.8761 519.6696 239.2787 523 237 C523.6904 236.5277 523.8039 233.1152 523 230 C520.0066 218.4004 517.3224 209.5611 515 206 C514.7166 205.5655 508 207 508 207 "/>
<path id="20" d="M155 219 C155 219 156.3609 202.9956 153 190 C149.3152 175.7519 147.7224 174.3145 140 161 C133.6006 149.9666 133.1308 147.3823 124 140 C111.6116 129.9838 93 123 93 123 "/>
<path id="21" d="M155 243 C155 243 156.4654 258.6393 155 273 C154.047 282.3393 153.4508 283.373 150 292 C147.7323 297.6692 147.199 298.6184 143 303 C136.2816 310.0105 135.2583 311.045 127 316 C121.1012 319.5393 120.0101 319.6958 113 321 C99.1217 323.582 85.836 325.2662 84 324 C82.9186 323.2542 82.821 303.2598 84 301 C84.321 300.3848 90.4471 301.9916 96 301 C103.8171 299.6041 105.5085 299.7693 112 296 C119.7433 291.5039 121.6866 290.0041 127 283 C131.6445 276.8776 133.3851 274.5548 134 267 C136.5978 235.0844 139.8269 225.0247 134 197 C131.056 182.841 125.0108 177.3178 113 166 C101.5274 155.1893 90.4869 157.5749 82 148 C75.8247 141.0329 73.6854 122.7235 74 122 C74.0674 121.845 92 125 92 125 "/>
<path id="22" d="M206 259 C206 259 213.5731 261 221 261 C355.6744 261 493 259 493 259 "/>
<path id="23" d="M208 260 C208 260 195.4513 258.9398 191 262 C184.0355 266.7881 180.0563 272.6198 176 282 C173.3303 288.1737 173.9382 292.8949 175 299 C175.4335 301.4925 177.1694 302.8771 180 305 C184.6183 308.4637 186.0666 310.8318 191 311 C263.6495 313.4767 274.0655 312.6387 356 311 C373.4198 310.6516 373.5396 307.7098 391 307 C434.7177 305.2229 436.1976 308.9019 479 306 C493.8111 304.9959 496.7951 304.2307 509 299 C515.1817 296.3507 517.7002 293.0767 521 288 C522.6938 285.3942 523.1647 281.3293 522 279 C519.3967 273.7933 516.4454 271.3711 510 266 C504.966 261.805 503.5528 261.1594 498 259 C495.737 258.1199 492 259 492 259 "/>
<path id="24" d="M222 274 C222 274 217.9403 273.1051 215 274 C207.3843 276.3178 203.4762 277.5185 199 281 C197.4461 282.2086 196.4341 286.8682 197 288 C198.0847 290.1694 202.3096 294.3849 206 295 C213.5017 296.2503 217.6707 294.7941 227 293 C229.433 292.5321 231.169 291.5433 232 290 C233.6171 286.9968 234.3731 282.4251 234 280 C233.8608 279.0954 231.7626 277.2644 230 277 C223.6626 276.0494 214 277 214 277 "/>
<path id="25" d="M280 276 C280 276 272.0986 275.3005 267 277 C263.176 278.2747 260.6738 280.4892 259 283 C258.1138 284.3292 258.0357 287.3929 259 289 C261.3142 292.857 264.0899 296.827 268 298 C275.0182 300.1055 281.3812 299.839 289 298 C292.5154 297.1514 296.3668 293.1529 297 291 C297.6173 288.9013 296.1315 283.7128 294 281 C292.2258 278.742 289.6341 277.474 286 277 C279.6589 276.1729 271 278 271 278 "/>
<path id="26" d="M343 280 C343 280 335.8527 277.8992 332 279 C327.685 280.2329 324.3337 283.1995 322 286 C321.239 286.9132 321.324 289.4791 322 291 C322.7811 292.7575 323.8185 293.7534 326 295 C330.2639 297.4365 331.1863 298.336 336 299 C344.6678 300.1956 347.5724 300.7929 355 299 C359.5698 297.897 362.0117 295.26 365 292 C366.0937 290.8069 366.537 288.3963 366 287 C364.8006 283.8817 362.8757 281.5882 360 279 C358.9325 278.0392 357.9182 278 356 278 C344.9701 278 333 279 333 279 "/>
<path id="27" d="M413 276 C413 276 407.4614 275.0301 403 276 C396.7152 277.3663 393.5565 278.1103 390 281 C388.0198 282.6089 386.6344 288.1227 387 289 C387.3971 289.9532 391.258 292.5842 395 293 C407.4078 294.3786 412.4768 294.804 423 293 C426.0174 292.4827 428.5051 289.5627 430 287 C430.8895 285.4751 430.7303 282.3145 430 281 C429.2967 279.7341 427.4781 278.59 425 278 C417.8548 276.2988 409 276 409 276 "/>
<path id="28" d="M487 272 C487 272 475.715 270.6621 468 273 C461.3144 275.0259 457.2663 278.5004 454 282 C453.1119 282.9515 453.3717 286.7433 454 288 C454.4189 288.8378 456.1525 289.8726 458 290 C469.1621 290.7698 471.1776 291.2445 483 290 C489.3467 289.3319 494.3225 287.8066 496 286 C497.0438 284.8759 496.7981 279.4586 496 276 C495.7053 274.723 494.1274 273.0867 493 273 C485.0012 272.3847 470 274 470 274 "/>
</g>
</g>
</svg>
