<?xml version="1.0" encoding="utf-8"?>
<!DOCTYPE svg PUBLIC "-//W3C//DTD SVG 1.1//EN" "http://www.w3.org/Graphics/SVG/1.1/DTD/svg11.dtd">
<svg viewBox="0 0 800 800" preserveAspectRatio="xMinYMin meet" xmlns="http://www.w3.org/2000/svg" version="1.1">
<g fill="none" stroke="black" stroke-linecap="round" stroke-linejoin="round" stroke-width="2.549">
<g transform="translate(87.52,210.5112) scale(1.1769) translate(0,-158)">
<path id="0" d="M257 278 C257 278 255.8301 281.3359 255 282 C254.5211 282.3831 252.075 281.85 252 282 C251.7 282.6 252.6237 287.1684 252 288 C251.3243 288.9009 246.2552 289.6172 246 290 C245.8866 290.1701 247.9862 294.0161 248 294 C248.0869 293.8986 252 283 252 283 "/>
<path id="1" d="M250 282 C250 282 255.1243 290.8481 255 291 C254.6594 291.4163 241.6668 292.3938 241 293 C240.8199 293.1637 243.759 298.1079 244 301 C244.112 302.3438 241.9067 303.5067 242 305 C242.2935 309.6967 244.6253 311.1924 245 317 C245.5819 326.0187 245.1255 330.0913 244 336 C243.8492 336.7917 241.1799 337.3705 241 338 C240.7032 339.0387 242.2035 342.8256 242 343 C241.4515 343.4701 234.0388 343.7206 234 344 C233.3643 348.577 233.3358 364.0377 237 379 C238.6616 385.7847 243.006 386.6793 246 393 C246.8197 394.7304 246.4331 397.1338 246 398 C245.7834 398.4331 243.063 398.6536 243 399 C242.1368 403.7475 242.126 419.4016 242 420 C241.9919 420.0386 239 418 239 418 "/>
<path id="2" d="M251 281 C251 281 297.106 285.4803 343 287 C372.3521 287.9719 373.2053 287.5997 402 286 C408.4199 285.6433 408.6069 283.3307 415 283 C436.869 281.8688 441.1529 283.7853 460 283 C461.2914 282.9462 461.7419 281.0268 463 281 C481.1858 280.6131 497.6438 278.8189 507 282 C509.414 282.8207 509.4095 290.819 513 298 C514.6063 301.2126 516.6261 300.84 518 304 C521.2228 311.4124 522.1216 312.5925 523 321 C525.517 345.091 522.6527 348.3098 525 371 C525.3934 374.8025 528.2632 375.0705 529 379 C531.0525 389.9466 531 392.6858 531 403 C531 404.719 529.5269 406.6839 529 407 C528.7126 407.1724 526.8331 405.6826 526 406 C519.1833 408.5968 517.1274 412.6529 508 415 C483.596 421.2753 481.7819 422.6509 456 424 C397.0372 427.0853 393.8741 425.3254 336 424 C330.6617 423.8777 330.424 421.3355 325 421 C283.2079 418.4149 239 418 239 418 "/>
<path id="3" d="M236 344 C236 344 178.8436 348.3224 175 345 C172.2549 342.6271 174.9485 317.2078 177 293 C177.2853 289.6339 178.7123 286.9014 180 286 C181.141 285.2013 186.8851 286.2956 187 286 C187.7601 284.0456 187.889 276.5937 187 268 C186.4414 262.6001 185.8123 260.9267 184 257 C183.5047 255.9269 181.2161 255.7925 181 255 C180.3097 252.469 180.8449 246.0218 181 246 C188.8449 244.8968 228.4733 244.0557 245 246 C246.276 246.1501 247.3324 253.565 249 254 C260.7925 257.0763 284.8608 256.6845 291 258 C291.1535 258.0329 291.547 261.7237 291 263 C290.6406 263.8387 288.1308 264.2589 288 265 C287.2244 269.3952 286.667 274.1349 288 280 C288.723 283.1814 292.9262 286.3354 293 287 C293.0152 287.1368 290.1018 289.1224 289 289 C287.4445 288.8272 284 286 284 286 "/>
<path id="4" d="M187 241 C187 241 176.35 238.7968 168 234 C153.6769 225.7718 151.7905 224.4034 140 214 C136.1711 210.6216 137.5731 207.7965 134 204 C130.2522 200.018 126.6305 199.6305 124 197 C123.5358 196.5358 124.3195 194.2663 124 194 C123.0202 193.1835 120.0693 193.6998 118 192 C107.3732 183.2709 107.7091 178.5765 96 171 C83.9038 163.1731 81.2252 163.7417 67 159 C62.5456 157.5152 59.1726 156.532 57 158 C46.6157 165.0164 40.5994 175.1102 30 184 C29.1313 184.7286 27.296 183.352 26 184 C22.436 185.782 20.9794 186.7497 18 190 C16.0448 192.133 16.4422 195.359 15 196 C10.9561 197.7973 1.7157 196.7418 0 198 C-0.68767 198.5043 -0.92152 204.0051 0 207 C0.53559 208.7407 3.2966 209.2414 4 211 C4.7537 212.8842 3.1492 214.7313 4 217 C5.737 221.6319 10 226.7054 10 227 C10 227 3.9964 226.9978 4 227 C4.0159 227.0095 16.2308 230.8034 25 236 C28.3794 238.0026 28.1187 241.0791 31 243 C32.8008 244.2006 34.6307 242.768 37 244 C46.172 248.7694 46.4282 253.3344 56 256 C82.8987 263.4908 89.1217 259.2804 116 266 C122.0207 267.5052 121.8197 271.4083 128 274 C136.4914 277.5609 138.1025 275.6634 147 279 C153.6598 281.4974 155.0231 281.6203 160 286 C166.5459 291.7604 171.6427 300.2854 172 301 C172.017 301.034 167.9876 301.9802 168 302 C168.1041 302.1666 177 309 177 309 "/>
<path id="5" d="M304 418 C304 418 299.5051 418.3945 298 420 C293.571 424.7243 292.6046 426.7908 289 434 C285.7851 440.4298 285.9728 440.9543 284 448 C282.5191 453.2888 281.2717 454.8125 282 459 C282.8917 464.1275 284.6399 469.0049 288 471 C295.7203 475.5839 301.0284 475.8774 314 478 C328.0142 480.2932 332.3879 480.9096 343 480 C345.3664 479.7972 346.7711 477.7242 349 475 C350.9017 472.6757 352 471.4536 352 469 C352 461.6391 352.0657 456.9124 349 451 C346.6949 446.5545 338 442.1392 338 442 C338 441.9691 349.0041 440.0082 349 440 C348.9842 439.9684 340.7819 437.6735 334 434 C329.2465 431.4252 325 427 325 427 "/>
<path id="6" d="M412 425 C412 425 406.2586 440.4144 405 453 C404.4869 458.1307 406.4973 464.4136 408 465 C415.7377 468.0196 427.2418 467.9178 446 469 C452.8409 469.3947 453.794 469.5515 460 468 C464.8995 466.7751 467.0565 465.9435 470 463 C472.551 460.449 473.7542 458.0551 474 454 C474.635 443.5233 474.4306 437.0486 472 430 C471.2362 427.785 464 425 464 425 "/>
</g>
</g>
</svg>
