<?xml version="1.0" encoding="utf-8"?>
<!DOCTYPE svg PUBLIC "-//W3C//DTD SVG 1.1//EN" "http://www.w3.org/Graphics/SVG/1.1/DTD/svg11.dtd">
<svg viewBox="0 0 800 800" preserveAspectRatio="xMinYMin meet" xmlns="http://www.w3.org/2000/svg" version="1.1">
<g fill="none" stroke="black" stroke-linecap="round" stroke-linejoin="round" stroke-width="1.7329">
<g transform="translate(87.52,316.0372) scale(1.7312) translate(-124.5,-125.6667)">
<path id="0" d="M330.5 149.8333 C330.5 149.8333 237.234 147.2926 155.5 151.8333 C144.5313 152.4427 142.4335 155.5355 132.5 160.8333 C128.6648 162.8788 127.2837 164.4889 125.5 167.8333 C124.0819 170.4923 124.4226 175.8315 124.5 175.8333 C156.5169 176.6025 301.6996 172.724 458.5 175.8333 C467.4849 176.0115 469.3907 178.6165 477.5 182.8333 C480.7667 184.532 481.9896 185.8126 483.5 188.8333 C485.346 192.5254 486.3819 196.5656 485.5 198.8333 C484.4003 201.6611 481.214 205.0874 476.5 206.8333 C457.0166 214.0494 453.4737 217.7828 431.5 218.8333 C332.1755 223.5819 225.5 218.8333 225.5 218.8333 "/>
<path id="1" d="M331.5 150.6667 C331.5 150.6667 340.535 142.3729 347.5 133.6667 C350.1177 130.3945 351.5 125.6667 351.5 125.6667 "/>
<path id="2" d="M332.5 154.6667 L356.5 160.6667 "/>
<path id="3" d="M354.5 127.6667 L355.5 161.6667 "/>
<path id="4" d="M354.5 128.6667 C354.5 128.6667 351.857 132.3342 351.5 135.6667 C350.4759 145.2251 351.5 156.6667 351.5 156.6667 "/>
<path id="5" d="M333.5 155.6667 C333.5 155.6667 291.5215 154.9602 267.5 155.6667 C266.7507 155.6887 266.2762 157.6301 265.5 157.6667 C234.6992 159.1161 218.6991 157.6099 182.5 159.6667 C180.2481 159.7946 179.7952 162.4427 177.5 162.6667 C161.8459 164.1939 159.314 162.8184 141.5 163.6667 C138.5114 163.809 135.7712 164.1243 135.5 164.6667 C134.7543 166.1581 134.6433 171.383 135.5 175.6667 C135.8583 177.458 137.5219 179.6527 138.5 179.6667 C227.1219 180.9327 282.8934 175.7792 415.5 179.6667 C429.988 180.0914 430.8951 185.3806 445.5 188.6667 C450.0605 189.6928 455.5 188.6667 455.5 188.6667 "/>
<path id="6" d="M228.5 216.6667 C228.5 216.6667 329.8787 217.7502 423.5 212.6667 C436.1773 211.9783 436.8055 207.1436 449.5 204.6667 C456.409 203.3186 457.9685 205.8026 464.5 204.6667 C468.2864 204.0082 470.5464 202.6203 472.5 200.6667 C473.4768 199.6899 473.6678 195.7506 473.5 195.6667 C470.591 194.2122 450.5 189.6667 450.5 189.6667 "/>
<path id="7" d="M229.5 216.6667 C229.5 216.6667 224.5599 215.5768 224.5 215.6667 C224.3374 215.9106 225.5 222.6667 225.5 222.6667 "/>
<path id="8" d="M252.5 178.6667 C252.5 178.6667 253.4585 209.4507 253.5 209.6667 C253.5056 209.696 257.2126 206.822 257.5 204.6667 C258.7984 194.9289 257.5 179.6667 257.5 179.6667 "/>
<path id="9" d="M294.5 175.6667 C294.5 175.6667 292.1868 196.0167 292.5 206.6667 C292.5313 207.7296 295.4756 209.7118 295.5 209.6667 C296.0758 208.6037 301.7983 195.6227 305.5 182.6667 C306.4919 179.1952 305.5 174.6667 305.5 174.6667 "/>
<path id="10" d="M340.5 178.6667 C340.5 178.6667 341.4201 205.4822 342.5 209.6667 C342.5531 209.8722 347.2433 210.295 348.5 209.6667 C349.3378 209.2478 350.1695 207.6498 350.5 205.6667 C352.5212 193.5393 353.5 179.6667 353.5 179.6667 "/>
<path id="11" d="M203.5 158.6667 L203.5 168.6667 "/>
<path id="12" d="M229.5 159.6667 L229.5 166.6667 "/>
<path id="13" d="M252.5 158.6667 L253.5 159.6667 "/>
</g>
</g>
</svg>
