<?xml version="1.0" encoding="utf-8"?>
<!DOCTYPE svg PUBLIC "-//W3C//DTD SVG 1.1//EN" "http://www.w3.org/Graphics/SVG/1.1/DTD/svg11.dtd">
<svg viewBox="0 0 800 800" preserveAspectRatio="xMinYMin meet" xmlns="http://www.w3.org/2000/svg" version="1.1">
<g fill="none" stroke="black" stroke-linecap="round" stroke-linejoin="round" stroke-width="1.0561">
<g transform="translate(87.52,269.3265) scale(2.8407) translate(-228,-174)">
<path id="0" d="M308 201 C308 201 282.7213 199.8041 260 201 C255.665 201.2282 254.8079 201.7435 251 204 C241.9187 209.3815 239.178 210.822 233 217 C231.2064 218.7936 230.8022 221.8242 231 224 C231.124 225.3635 232.9919 227.9695 234 228 C297.0009 229.9091 333.0156 227.7255 429 230 C436.9087 230.1874 442.6585 230.7817 445 233 C447.1387 235.0262 449.0887 244.8701 448 248 C447.0775 250.6521 442.6835 253.7266 437 256 C426.4336 260.2266 424.7366 261.5626 413 262 C346.6222 264.4737 276 262 276 262 "/>
<path id="1" d="M307 198 C307 198 260.9041 193.2141 242 198 C236.4558 199.4036 231.9688 208.9284 228 218 C226.177 222.1668 227.1594 225.7968 228 230 C228.2522 231.261 229.882 232.9784 231 233 C305.593 234.4414 373.1666 231.0556 435 234 C436.9481 234.0928 439.4482 238.862 441 243 C441.9655 245.5748 441.8388 249.1612 441 250 C438.963 252.037 434.7104 254.6959 429 255 C355.8119 258.8976 272 259 272 259 "/>
<path id="2" d="M273 259 C273 259 268.9919 261.9951 269 262 C269.0331 262.0199 277.9669 262.0199 278 262 C278.0081 261.9951 274.7286 260.2751 274 259 C273.4486 258.0351 274.25 255.25 274 255 C273.75 254.75 270.1018 254.776 270 255 C269.3585 256.4112 268.6468 265.0287 269 266 C269.0604 266.166 273.5404 266.2757 274 266 C274.1654 265.9007 274 263 274 263 "/>
<path id="3" d="M298 194 L299 196 "/>
<path id="4" d="M292 196 C292 196 305.7984 198.2382 315 196 C321.4768 194.4246 322.2085 190.234 329 187 C331.7767 185.6777 334.1123 187.3483 336 186 C339.2859 183.6529 343 177 343 177 "/>
<path id="5" d="M310 201 C310 201 334.0855 199.3135 343 201 C344.4383 201.2721 347 208 347 208 "/>
<path id="6" d="M346 174 L346 204 "/>
<path id="7" d="M260 205 L260 224 "/>
<path id="8" d="M265 208 L266 226 "/>
<path id="9" d="M298 233 C298 233 298.247 248.7774 298 251 C297.997 251.0274 296 251 296 251 "/>
<path id="10" d="M305 238 L303 254 "/>
<path id="11" d="M412 237 C412 237 411.813 244.5486 413 249 C413.3677 250.379 416 252 416 252 "/>
<path id="12" d="M420 236 L420 256 "/>
<path id="13" d="M314 199 C314 199 319.0148 197.9412 321 199 C324.4789 200.8554 325.5889 206.1974 329 207 C337.9743 209.1116 355 207 355 207 "/>
</g>
</g>
</svg>
