<?xml version="1.0" encoding="utf-8"?>
<!DOCTYPE svg PUBLIC "-//W3C//DTD SVG 1.1//EN" "http://www.w3.org/Graphics/SVG/1.1/DTD/svg11.dtd">
<svg viewBox="0 0 800 800" preserveAspectRatio="xMinYMin meet" xmlns="http://www.w3.org/2000/svg" version="1.1">
<g fill="none" stroke="black" stroke-linecap="round" stroke-linejoin="round" stroke-width="2.429">
<g transform="translate(87.52,215.3527) scale(1.2351) translate(-55,-91.1333)">
<path id="0" d="M452 91.1333 C452 91.1333 362.4375 89.8391 274 91.1333 C260.5635 91.33 259.411 90.9646 247 94.1333 C237.0332 96.678 235.8461 97.5463 227 103.1333 C217.5376 109.1096 214.9119 110.2508 209 118.1333 C204.5402 124.0798 204.0035 127.3562 203 135.1333 C202.2242 141.1461 202.9522 147.7112 205 149.1333 C212.2741 154.1848 221.9346 156.0046 239 160.1333 C252.4841 163.3956 252.9791 163.1616 267 164.1333 C353.6192 170.1366 356.828 164.5348 441 174.1333 C467.8291 177.1928 476.1152 177.1732 495 190.1333 C519.7201 207.0981 536.1936 233.6746 543 244.1333 C543.3549 244.6787 539.9372 249.4149 536 253.1333 C531.2866 257.5848 530.7301 257.6953 525 261.1333 C518.3996 265.0936 517.9499 266.1787 511 268.1333 C502.9212 270.4055 501.971 269.9325 493 270.1333 C435.3191 271.4247 433.935 275.9085 377 271.1333 C280.6 263.0482 279.2203 259.0347 183 244.1333 C166.862 241.6341 158.1277 242.8576 151 236.1333 C140.0738 225.8256 141.4078 214.1835 130 194.1333 C125.1729 185.6494 124.7665 184.4332 118 178.1333 C111.1467 171.7527 109.0506 169.38 101 167.1333 C90.4587 164.1916 87.1792 166.1333 75 166.1333 C73.5947 166.1333 72.6127 166.3368 72 167.1333 C68.7795 171.32 67.0052 172.9744 65 179.1333 C60.3266 193.4873 58.8565 194.8026 58 210.1333 C53.9574 282.4953 53.3491 288.7969 55 358.1333 C55.2251 367.5858 57.7648 369.0113 62 378.1333 C63.9647 382.3651 64.7497 383.1539 68 386.1333 C70.133 388.0886 71.1506 388.8167 74 389.1333 C87.547 390.6386 89.9087 391.1164 104 390.1333 C110.2519 389.6972 111.9487 389.1182 117 386.1333 C121.7075 383.3516 122.4563 382.1464 126 377.1333 C142.5215 353.7615 144.9719 352.429 158 328.1333 C162.4664 319.8042 161.8544 317.9859 163 308.1333 C164.2803 297.123 163 285.1333 163 285.1333 "/>
<path id="1" d="M101 230.1333 C101 230.1333 100.853 211.4747 99 198.1333 C98.7465 196.3078 97.269 194.6409 96 194.1333 C94.069 193.3609 90.8944 193.019 89 194.1333 C84.7017 196.6617 81.2854 198.7464 79 204.1333 C68.7888 228.2027 65.1361 232.7892 61 260.1333 C56.5626 289.4692 57.5242 294.0632 61 323.1333 C62.6725 337.1217 65.2372 339.5299 72 352.1333 C75.4688 358.598 78.915 361.637 83 364.1333 C84.4236 365.0033 88.2945 364.4734 90 363.1333 C93.2546 360.5761 95.1967 358.2658 97 353.1333 C101.2129 341.1428 101.6199 339.474 103 326.1333 C104.5489 311.1605 101.9369 310.016 103 295.1333 C103.3846 289.7495 105.4105 289.5864 106 284.1333 C107.3591 271.5613 106.797 271.1284 107 258.1333 C107.2966 239.152 108.3183 238.5894 107 220.1333 C106.3656 211.2522 103 202.1333 103 202.1333 "/>
<path id="2" d="M164 287.1333 C164 287.1333 176.38 280.0537 188 279.1333 C224.3218 276.2564 226.7681 277.6041 265 279.1333 C288.9322 280.0906 289.0271 283.1101 313 284.1333 C370.7205 286.597 372.3092 283.936 429 286.1333 C435.4058 286.3816 435.6844 289.0743 442 289.1333 C487.5592 289.5591 500.1968 293.6149 536 287.1333 C545.6524 285.3859 552.1856 277.2039 558 268.1333 C561.8508 262.1261 560.4151 258.0759 561 248.1333 C561.8986 232.8572 564.6551 227.0832 561 217.1333 C558.0981 209.2337 552.6872 206.8831 543 199.1333 C530.622 189.2309 530.017 188.779 516 181.1333 C497.4145 170.9958 496.7987 170.8923 477 163.1333 C460.1003 156.5105 458.8898 152.9613 442 152.1333 C361.7069 148.1974 356.6722 154.7502 273 153.1333 C254.1361 152.7688 248.9449 152.3774 235 148.1333 C231.2108 146.9801 228.4599 143.1479 227 139.1333 C225.4064 134.751 225.9093 131.587 227 126.1333 C227.6544 122.8611 228.7784 122.3071 231 119.1333 C232.1561 117.4817 232.4311 116.7038 234 116.1333 C241.9837 113.2302 243.6711 111.5469 253 111.1333 C342.3868 107.1704 347.3343 110.72 437 107.1333 C444.8681 106.8186 453 103.1333 453 103.1333 "/>
<path id="3" d="M453 91.1333 L463 94.1333 "/>
<path id="4" d="M450 105.1333 C450 105.1333 453.3073 100.9748 456 100.1333 C459.5605 99.0207 466 100.1333 466 100.1333 "/>
<path id="5" d="M316 95.1333 C316 95.1333 322.9261 95.5964 324 96.1333 C324.1895 96.2281 324.1233 99.0871 324 99.1333 C323.1233 99.4621 316 99.1333 316 99.1333 "/>
<path id="6" d="M284 97.1333 C284 97.1333 283.7044 101.9222 284 102.1333 C284.5794 102.5472 290.9982 102.1424 291 102.1333 C291.0049 102.1088 285 97.1333 285 97.1333 "/>
<path id="7" d="M359 95.1333 C359 95.1333 352.9295 95.6022 352 96.1333 C351.7895 96.2536 351.8642 99.0751 352 99.1333 C352.7392 99.4501 359 99.1333 359 99.1333 "/>
<path id="8" d="M393 96.1333 C393 96.1333 392.4596 102.0526 393 103.1333 C393.2316 103.5965 397 104.1333 397 104.1333 "/>
</g>
</g>
</svg>
