<?xml version="1.0" encoding="utf-8"?>
<!DOCTYPE svg PUBLIC "-//W3C//DTD SVG 1.1//EN" "http://www.w3.org/Graphics/SVG/1.1/DTD/svg11.dtd">
<svg viewBox="0 0 800 800" preserveAspectRatio="xMinYMin meet" xmlns="http://www.w3.org/2000/svg" version="1.1">
<g fill="none" stroke="black" stroke-linecap="round" stroke-linejoin="round" stroke-width="1.1425">
<g transform="translate(87.52,201.7459) scale(2.6259) translate(-172,-111.9167)">
<path id="0" d="M346 165.9167 C346 165.9167 280.8503 161.6858 223 162.9167 C214.4696 163.0982 212.1077 165.2083 205 168.9167 C202.2652 170.3435 202.8727 172.7621 200 174.9167 C193.4229 179.8495 190.6488 178.4696 185 183.9167 C177.7579 190.9001 174.9348 194.0904 172 201.9167 C170.2519 206.5782 171.7244 210.1766 173 215.9167 C173.4185 217.8001 174.3247 218.8506 176 219.9167 C178.9936 221.8217 180.2046 222.8236 184 222.9167 C276.1629 225.1756 380 224.9167 380 224.9167 "/>
<path id="1" d="M381 226.9167 C381 226.9167 387.0649 225.392 391 225.9167 C393.1537 226.2038 395.2107 227.6538 396 228.9167 C396.6443 229.9475 395.453 232.6404 396 233.9167 C396.3594 234.7554 398.8691 235.2622 399 235.9167 C399.3927 237.8802 399.3528 241.9626 398 243.9167 C396.3598 246.2858 393.9696 247.8923 390 248.9167 C379.8417 251.5382 378.4495 251.6319 367 251.9167 C278.6527 254.1144 189 253.9167 189 253.9167 "/>
<path id="2" d="M354 200.9167 C354 200.9167 348.5606 195.5034 346 189.9167 C343.4903 184.441 343.5831 183.3312 343 176.9167 C342.1213 167.251 342.1373 166.7511 343 156.9167 C344.6149 138.5073 344.1333 135.7351 348 119.9167 C348.9577 115.9988 351.44 113.1967 354 111.9167 C356.56 110.6367 360.1849 110.7119 364 111.9167 C368.1564 113.2292 372.4599 115.5403 373 117.9167 C375.5662 129.2079 374 136.9374 374 155.9167 C374 180.39 374.7438 191.963 373 204.9167 C372.8649 205.9205 369.844 207.3834 367 207.9167 C362.6663 208.7292 358.3361 208.8074 357 207.9167 C356.0202 207.2635 355 199.9167 355 199.9167 "/>
<path id="3" d="M292 164.9167 C292 164.9167 299.8866 165.4003 305 162.9167 C315.7183 157.7107 317.5261 156.4188 327 147.9167 C336.3368 139.5374 337.3645 137.8699 344 127.9167 C346.5413 124.1048 347 117.9167 347 117.9167 "/>
<path id="4" d="M275 170.9167 C275 170.9167 297.7695 170.33 318 171.9167 C321.8675 172.22 322.8829 172.7737 326 174.9167 C330.1819 177.7917 329.8724 180.527 334 182.9167 C338.162 185.3262 342.0087 184.0758 345 185.9167 C346.1822 186.6442 345.7337 189.4393 347 190.9167 C348.0238 192.1111 351 192.9167 351 192.9167 "/>
<path id="5" d="M346 133.9167 C346 133.9167 354.1435 135.7508 356 137.9167 C357.7299 139.9349 357.753 142.9766 358 147.9167 C358.7337 162.5901 359.8916 165.6212 358 177.9167 C357.3743 181.9836 354.4186 184.9378 352 186.9167 C351.0951 187.6571 347 186.9167 347 186.9167 "/>
<path id="6" d="M274 172.9167 C274 172.9167 245.9433 172.0661 220 172.9167 C216.6055 173.028 214.4307 173.4859 213 174.9167 C211.2513 176.6653 211.4172 182.3005 210 182.9167 C205.4345 184.9017 197.6756 183.2481 190 184.9167 C188.6282 185.2149 187.8287 186.2593 187 187.9167 C183.6852 194.5463 183.0525 195.733 181 202.9167 C180.2632 205.4954 180.404 207.3274 181 208.9167 C181.3104 209.7444 182.7265 210.8991 184 210.9167 C274.4455 212.1613 317.5213 207.9509 399 211.9167 C403.3521 212.1285 408.895 217.8281 410 221.9167 C412.2768 230.3408 409 248.9167 409 248.9167 "/>
<path id="7" d="M192 262.9167 C192 262.9167 326.6651 264.1771 390 262.9167 C390.9851 262.8971 391.3484 259.8801 393 258.9167 C396.329 256.9748 400.259 257.4836 402 255.9167 C402.9524 255.0596 401.9644 251.2481 403 249.9167 C404.1714 248.4106 409 246.9167 409 246.9167 "/>
<path id="8" d="M190 254.9167 C190 254.9167 189.3456 252.9795 189 252.9167 C186.4657 252.4559 179.625 252.2917 179 252.9167 C178.375 253.5417 178.3852 262.4044 179 262.9167 C179.8852 263.6544 191 262.9167 191 262.9167 "/>
<path id="9" d="M221 226.9167 C221 226.9167 221.1901 234.6605 219 239.9167 C216.7308 245.3628 215.0487 246.868 211 250.9167 C209.5084 252.4083 206 252.9167 206 252.9167 "/>
<path id="10" d="M228 226.9167 C228 226.9167 228.0876 235.393 226 241.9167 C224.409 246.8887 220 251.9167 220 251.9167 "/>
<path id="11" d="M249 225.9167 C249 225.9167 248.9799 232.1318 247 236.9167 C243.2941 245.8725 237 254.9167 237 254.9167 "/>
<path id="12" d="M257 223.9167 C257 223.9167 256.7036 233.0801 255 240.9167 C254.35 243.9067 253.8039 245.2932 252 246.9167 C249.917 248.7914 246.2144 248.7023 245 249.9167 C244.5142 250.4024 245 253.9167 245 253.9167 "/>
</g>
</g>
</svg>
