<?xml version="1.0" encoding="utf-8"?>
<!DOCTYPE svg PUBLIC "-//W3C//DTD SVG 1.1//EN" "http://www.w3.org/Graphics/SVG/1.1/DTD/svg11.dtd">
<svg viewBox="0 0 800 800" preserveAspectRatio="xMinYMin meet" xmlns="http://www.w3.org/2000/svg" version="1.1">
<g fill="none" stroke="black" stroke-linecap="round" stroke-linejoin="round" stroke-width="1.1569">
<g transform="translate(87.52,301.4586) scale(2.5932) translate(-32,-174)">
<path id="0" d="M101 179 C101 179 118.9649 185.9902 137 191 C145.6355 193.3987 146.7981 191.7035 155 194 C158.535 194.9898 158.618 197.2648 162 198 C168.9695 199.5151 170.8682 196.873 178 199 C198.0289 204.9735 219 215 219 215 "/>
<path id="1" d="M107 174 C107 174 116.2743 179.2412 125 180 C149.0265 182.0893 150.8407 178.7098 176 180 C189.4208 180.6882 191.7469 179.908 203 184 C211.4488 187.0723 211.7227 192.5917 220 196 C226.7239 198.7687 237 198 237 198 "/>
<path id="2" d="M240 196 C240 196 238.9131 194.0869 239 194 C240.8241 192.1759 245.5418 186.5846 251 185 C258.0968 182.9396 270 185 270 185 "/>
<path id="3" d="M221 216 C221 216 221.0354 228.3296 224 235 C225.7496 238.9366 228.5803 239.6852 233 243 C234.1049 243.8287 235.8466 244.1151 236 244 C236.2728 243.7954 237 240 237 240 "/>
<path id="4" d="M272 186 C272 186 267.9395 192.3491 263 196 C257.222 200.2707 254.7261 198.6482 249 203 C243.0368 207.532 242.3305 209.004 238 215 C236.3836 217.2381 236.2234 218.0961 236 221 C235.274 230.4376 235.2575 232.0897 236 241 C236.1547 242.8563 237.9986 245.0014 238 245 C238.0042 244.9958 238 239 238 239 "/>
<path id="5" d="M272 188 C272 188 274.5436 195.3125 273 199 C267.1716 212.9235 264.3098 216.5662 254 231 C249.9601 236.6559 248.2727 237.1334 243 241 C241.6387 241.9983 239.5183 242.2592 239 242 C238.4076 241.7038 237 238 237 238 "/>
<path id="6" d="M104 180 C104 180 96.6958 185.0432 95 189 C93.4173 192.693 93.4025 197.0949 95 201 C96.8214 205.4524 99.3038 206.6392 104 211 C105.9996 212.8567 106.6673 213.699 109 214 C120.3141 215.4599 123.2582 213.5323 135 215 C137.8652 215.3582 138.1935 217.6882 141 218 C150.3059 219.034 152.8798 216.08 162 218 C170.1144 219.7083 171.3428 221.6244 179 226 C181.2312 227.275 182.1257 228.2515 183 230 C183.5828 231.1657 183.1517 233.9554 183 234 C180.7698 234.6559 173.9111 233.2895 166 235 C156.1142 237.1375 155.7263 241.0625 146 242 C116.3166 244.8611 110.3382 241.3919 83 243 C80.7558 243.132 80.025 246 78 246 C66.255 246 61.6096 241.9035 49 243 C41.274 243.6718 32.2608 249.9826 32 250 C31.9642 250.0024 34 244 34 244 "/>
<path id="7" d="M106 174 C106 174 96.5293 172.6275 93 174 C90.9036 174.8153 88.7824 177.647 88 181 C85.7519 190.6348 85.1137 194.546 86 204 C86.3679 207.9241 88.3245 211.419 91 213 C96.0211 215.967 101.1682 214.2052 108 217 C110.5828 218.0566 110.9262 221.6425 113 222 C121.4903 223.4638 126.7588 220.9406 137 222 C139.266 222.2344 139.7175 224.7147 142 225 C150.0683 226.0085 152.6595 223.7644 161 225 C164.7719 225.5588 169.0067 228.9944 169 229 C168.9786 229.0178 159.8388 228.1566 155 230 C151.7474 231.2391 150.6889 236.8079 148 237 C120.42 238.97 109.3252 235.3392 71 236 C51.5584 236.3352 32 239 32 239 "/>
<path id="8" d="M33 240 L34 250 "/>
<path id="9" d="M157 181 L149 196 "/>
<path id="10" d="M121 177 L120 179 "/>
<path id="11" d="M131 217 C131 217 124.4448 237.3126 124 238 C123.9754 238.038 120 234 120 234 "/>
<path id="12" d="M108 213 C108 213 105.3347 215.2149 105 217 C104.1197 221.6949 106.0352 223.8238 105 229 C104.2408 232.7959 101 237 101 237 "/>
</g>
</g>
</svg>
