<?xml version="1.0" encoding="utf-8"?>
<!DOCTYPE svg PUBLIC "-//W3C//DTD SVG 1.1//EN" "http://www.w3.org/Graphics/SVG/1.1/DTD/svg11.dtd">
<svg viewBox="0 0 800 800" preserveAspectRatio="xMinYMin meet" xmlns="http://www.w3.org/2000/svg" version="1.1">
<g fill="none" stroke="black" stroke-linecap="round" stroke-linejoin="round" stroke-width="2.7506">
<g transform="translate(87.52,187.8626) scale(1.0907) translate(-11,-91.1333)">
<path id="0" d="M69 205.1333 C69 205.1333 71.251 199.2156 75 195.1333 C93.0842 175.4417 98.4519 173.2362 114 156.1333 C115.234 154.776 113.833 152.6595 115 151.1333 C119.2871 145.5271 120.2665 142.8133 127 139.1333 C160.7897 120.6668 164.3157 119.5171 201 104.1333 C209.5539 100.5462 213.2781 102.374 220 100.1333 C220.9918 99.8027 221.2589 97.2641 222 97.1333 C226.3952 96.3577 230.8971 95.5511 237 97.1333 C242.6207 98.5906 245.4525 103.2986 249 104.1333 C250.1162 104.396 251.6691 101.6712 254 101.1333 C257.2758 100.3774 259.0868 99.9008 262 101.1333 C270.2494 104.6235 274.4254 105.6296 280 112.1333 C287.232 120.5706 284.8961 125.1546 292 136.1333 C301.0772 150.1618 301.9093 150.2319 313 163.1333 C326.3105 178.617 326.515 180.6235 341 193.1333 C347.1555 198.4495 349.414 196.7082 357 201.1333 C361.2212 203.5957 361.9329 203.8106 365 207.1333 C367.4502 209.7877 366.7841 212.5506 369 214.1333 C371.9897 216.2688 374.0575 216.5842 379 217.1333 C391.489 218.521 395.0188 219.6012 405 218.1333 C408.4293 217.629 411.6358 214.6911 413 212.1333 C414.1958 209.8911 411.9616 206.041 413 203.1333 C413.7829 200.9411 416.9434 200.7161 418 198.1333 C420.7948 191.3015 418.675 188.0208 422 181.1333 C424.9555 175.0112 429.4029 174.7998 432 169.1333 C433.9511 164.8764 431.187 162.4147 433 157.1333 C442.1878 130.3688 455 102.1333 455 102.1333 "/>
<path id="1" d="M456 102.1333 C456 102.1333 474.5141 93.2401 492 91.1333 C513.9618 88.4873 521.7659 90.1448 539 92.1333 C541.04 92.3687 541.2606 95.6267 544 97.1333 C550.4684 100.691 551.7683 101.4645 559 103.1333 C563.8551 104.2537 566.4368 101.8757 570 103.1333 C572.6295 104.0614 573.3665 107.9179 576 109.1333 C578.1021 110.1036 582.0998 108.5707 583 109.1333 C583.5305 109.4649 584 114.1333 584 114.1333 "/>
<path id="2" d="M584 116.1333 C584 116.1333 580.9325 124.3738 578 126.1333 C574.2855 128.3621 564 128.1333 564 128.1333 "/>
<path id="3" d="M581 125.1333 C581 125.1333 582.1988 130.662 581 132.1333 C574.5048 140.1047 570.4686 145.4815 559 152.1333 C547.6611 158.7099 544.6712 158.8548 531 161.1333 C518.9508 163.1415 516.6122 160.3592 505 161.1333 C503.154 161.2564 501.8935 162.0612 501 163.1333 C500.1903 164.105 500 167.1333 500 167.1333 "/>
<path id="4" d="M510 167.1333 C510 167.1333 511.4181 172.7484 510 175.1333 C502.5408 187.6784 499.456 190.8296 488 204.1333 C484.4756 208.2262 481.8909 207.1182 479 211.1333 C473.7501 218.4248 475.1577 221.8519 470 229.1333 C467.5314 232.6185 464.6571 231.717 462 235.1333 C458.3766 239.7919 459.7692 242.4773 456 247.1333 C451.9966 252.0787 449.6052 251.0517 445 256.1333 C435.4558 266.6649 436.3318 271.4013 427 279.1333 C421.4671 283.7177 417.9656 281.3848 410 285.1333 C401.278 289.2378 400.8451 291.9953 393 295.1333 C390.0114 296.3288 388.513 294.1965 385 295.1333 C374.4025 297.9593 373.6349 300.5552 363 303.1333 C358.1133 304.318 356.234 301.8631 352 303.1333 C347.843 304.3804 346.5211 305.6122 343 309.1333 C338.54 313.5934 339.4236 315.9699 335 320.1333 C331.6965 323.2425 326 325.1333 326 325.1333 "/>
<path id="5" d="M320 302.1333 C320 302.1333 320.0598 313.4725 323 323.1333 C326.8036 335.631 331.6444 336.1414 334 348.1333 C336.6885 361.8204 335.19 363.8337 334 379.1333 C331.7143 408.5208 327 438.1333 327 438.1333 "/>
<path id="6" d="M290 307.1333 C290 307.1333 291.1546 315.2057 290 322.1333 C288.7813 329.4458 286.0151 329.8246 285 337.1333 C283.6417 346.9128 283.6904 348.0304 285 358.1333 C287.1146 374.4459 286.4335 376.9387 292 391.1333 C295.597 400.3057 303.152 400.7019 305 409.1333 C309.9332 431.6413 308 464.1333 308 464.1333 "/>
<path id="7" d="M327 436.1333 C327 436.1333 324.2117 438.8755 324 441.1333 C322.9178 452.6766 324 468.1333 324 468.1333 "/>
<path id="8" d="M311 465.1333 C311 465.1333 310.9482 473.1074 311 473.1333 C311.0453 473.156 314.6447 468.9184 317 468.1333 C318.7409 467.553 323 469.1333 323 469.1333 "/>
<path id="9" d="M298 299.1333 C298 299.1333 286.8456 319.1216 274 336.1333 C268.916 342.8662 267.4661 343.3688 261 348.1333 C258.7875 349.7636 255 350.1333 255 350.1333 "/>
<path id="10" d="M258 350.1333 C258 350.1333 244.3376 361.1737 231 365.1333 C214.8067 369.9407 212.4699 368.3088 194 369.1333 C156.7187 370.7977 155.0498 371.9726 119 370.1333 C107.79 369.5614 96 364.1333 96 364.1333 "/>
<path id="11" d="M72 207.1333 C72 207.1333 57.8019 205.1278 49 208.1333 C40.5384 211.0227 36.0986 215.015 31 221.1333 C28.6935 223.9012 30.6891 227.3475 29 232.1333 C27.9305 235.1636 25.3256 235.3475 25 238.1333 C21.396 268.9678 24.3183 276.157 20 309.1333 C19.1692 315.4777 15.4587 315.65 14 322.1333 C11.1867 334.6369 11 349.1333 11 349.1333 "/>
<path id="12" d="M20 359.1333 C20 359.1333 18.4378 348.3893 21 340.1333 C26.8748 321.2035 30.1053 317.3175 38 301.1333 C38.5782 299.9481 40.5303 300.1666 41 299.1333 C42.3836 296.0894 42.975 290.1167 43 290.1333 C43.1332 290.2221 50.9062 299.177 53 307.1333 C55.2397 315.6443 54.3583 318.3539 53 328.1333 C51.9849 335.442 48.9932 335.684 48 343.1333 C45.1217 364.7204 45.2285 365.7425 45 388.1333 C44.7312 414.4767 44.2578 415.2348 47 441.1333 C48.6873 457.0687 54 473.1333 54 473.1333 "/>
<path id="13" d="M74 342.1333 C74 342.1333 77.3938 358.7524 76 372.1333 C75.1237 380.5455 71.5177 381.0697 69 390.1333 C66.6226 398.692 68.31 400.5432 66 408.1333 C65.2406 410.6285 62 413.1333 62 413.1333 "/>
<path id="14" d="M63 418.1333 C63 418.1333 61.7342 429.8255 64 438.1333 C65.6968 444.3549 70.6834 444.9891 72 451.1333 C74.6141 463.3324 73 480.1333 73 480.1333 "/>
<path id="15" d="M53 474.1333 C53 474.1333 59.6402 473.7934 65 475.1333 C68.9378 476.1178 73 479.1333 73 479.1333 "/>
<path id="16" d="M81 337.1333 C81 337.1333 76.5315 345.0487 71 351.1333 C66.9058 355.6369 61 359.1333 61 359.1333 "/>
<path id="17" d="M83 356.1333 C83 356.1333 85.3176 375.1997 83 391.1333 C81.5986 400.768 75 404.3726 75 411.1333 C75 416.2039 81.5788 418.7902 83 426.1333 C87.1031 447.3325 87.305 457.2751 87 473.1333 C86.9669 474.8556 84.165 476.9305 82 478.1333 C80.8866 478.7519 78.32 478.3733 78 478.1333 C77.82 477.9983 78 475.1333 78 475.1333 "/>
<path id="18" d="M79 468.1333 C79 468.1333 79.7369 428.6601 79 423.1333 C78.9869 423.0351 74.5893 423.7293 73 423.1333 C72.1722 422.8229 71 421.3284 71 420.1333 C71 410.1745 70.7611 406.6479 73 395.1333 C74.0558 389.7036 78 384.1333 78 384.1333 "/>
<path id="19" d="M12 341.1333 C12 341.1333 12 395.1334 12 395.1333 C12 395.1333 13.7675 362.2634 16 334.1333 C16.0757 333.1794 16.9954 332.1303 17 332.1333 C17.0646 332.1764 18.7959 334.2289 19 336.1333 C20.1672 347.0276 20 360.1333 20 360.1333 "/>
<path id="20" d="M272 344.1333 C272 344.1333 274.2578 369.7135 282 387.1333 C286.5691 397.4139 300 407.1333 300 407.1333 "/>
<path id="21" d="M272 340.1333 L272 348.1333 "/>
<path id="22" d="M88 365.1333 L102 368.1333 "/>
<path id="23" d="M503 116.1333 C503 116.1333 522 116.1333 522 116.1333 C522 116.1334 501 118.1333 501 118.1333 "/>
</g>
</g>
</svg>
