<?xml version="1.0" encoding="utf-8"?>
<!DOCTYPE svg PUBLIC "-//W3C//DTD SVG 1.1//EN" "http://www.w3.org/Graphics/SVG/1.1/DTD/svg11.dtd">
<svg viewBox="0 0 800 800" preserveAspectRatio="xMinYMin meet" xmlns="http://www.w3.org/2000/svg" version="1.1">
<g fill="none" stroke="black" stroke-linecap="round" stroke-linejoin="round" stroke-width="3.029">
<g transform="translate(87.52,204.3905) scale(0.99043) translate(-9,-86.1333)">
<path id="0" d="M61 181.1333 C61 181.1333 64.0999 165.3835 69 153.1333 C70.4763 149.4426 71.5334 148.6545 75 146.1333 C87.3035 137.1853 88.4002 136.2732 102 129.1333 C107.7163 126.1323 108.7943 125.264 115 125.1333 C153.8715 124.315 184.1873 129.5451 197 127.1333 C198.0028 126.9446 200 109.1333 200 109.1333 "/>
<path id="1" d="M197 115.1333 C197 115.1333 201.7858 105.0423 208 97.1333 C212.3483 91.5992 213.8661 89.3054 219 87.1333 C224.1987 84.9339 229.0793 84.2881 234 86.1333 C241.36 88.8933 247.9401 92.8678 251 99.1333 C255.5899 108.5317 252.7804 118.9865 255 129.1333 C255.191 130.0063 256.4345 130.6708 258 131.1333 C277.2918 136.8332 278.4802 138.8502 299 142.1333 C327.697 146.7249 329.5918 142.1201 358 147.1333 C379.4875 150.9253 382.4914 150.3238 401 160.1333 C430.0112 175.5093 432.8582 177.9027 458 200.1333 C478.9329 218.6424 476.878 225.379 496 244.1333 C500.9164 248.9552 502.9488 248.9298 510 251.1333 C518.2491 253.7112 519.073 253.0621 528 254.1333 C531.4035 254.5418 532.7609 255.3547 535 254.1333 C546.4574 247.8838 551.4867 246.5115 561 236.1333 C571.5745 224.5975 568.8755 218.9379 579 206.1333 C584.8714 198.7078 594.3609 194.8108 595 193.1333 C595.1657 192.6983 589.5199 189.1651 587 185.1333 C585.207 182.2646 585 180.5324 585 177.1333 C585 174.584 585.601 172.2991 587 171.1333 C589.6647 168.9127 592.5465 167.2606 597 167.1333 C607.9702 166.8199 611.7329 167.1136 622 170.1333 C626.3869 171.4236 628.4273 173.3732 631 177.1333 C633.8814 181.3447 634.6544 183.3446 635 189.1333 C636.5531 215.1475 633.7342 216.9179 635 244.1333 C635.7178 259.565 639 275.1333 639 275.1333 "/>
<path id="2" d="M60 175.1333 C60 175.1333 53.1406 196.291 50 217.1333 C47.7513 232.0563 51.0562 233.2258 49 248.1333 C47.1533 261.5221 43.0793 261.8739 42 275.1333 C39.6904 303.5088 43.5367 305.7041 42 334.1333 C41.6037 341.4653 38 349.1333 38 349.1333 "/>
<path id="3" d="M70 249.1333 C70 249.1333 73.0618 276.6385 70 301.1333 C67.7993 318.739 65.9643 320.3028 59 337.1333 C54.2979 348.4968 46 359.1333 46 359.1333 "/>
<path id="4" d="M74 241.1333 C74 241.1333 77.6269 244.4717 79 248.1333 C83.2741 259.5309 81.2707 261.3101 86 273.1333 C95.0843 295.8442 99.8011 295.706 107 318.1333 C112.2321 334.4334 108.1239 338.2764 112 354.1333 C113.0899 358.5922 114.4617 359.4182 118 363.1333 C124.0917 369.5297 125.4808 372.4849 132 375.1333 C138.3573 377.716 150 376.1333 150 376.1333 "/>
<path id="5" d="M152 378.1333 C152 378.1333 169.5301 382.1628 187 383.1333 C241.0604 386.1367 242.3594 383.2226 296 386.1333 C305.9343 386.6724 306.0997 389.3413 316 390.1333 C330.6166 391.3027 331.622 391.7309 346 390.1333 C357.8219 388.8198 358.6806 388.3257 370 384.1333 C385.1885 378.508 386.1475 378.0491 400 370.1333 C406.4576 366.4433 407.3031 365.9261 412 360.1333 C436.501 329.9155 434.1946 324.771 460 296.1333 C473.8678 280.7435 476.8837 281.0403 494 269.1333 C499.0193 265.6417 506 264.1333 506 264.1333 "/>
<path id="6" d="M489 275.1333 C489 275.1333 494.1685 269.3976 498 269.1333 C517.8871 267.7618 526.6688 274.4303 547 271.1333 C558.3904 269.2862 560.4771 260.0141 572 257.1333 C582.8154 254.4295 588.8627 255.2741 599 258.1333 C604.5069 259.6866 606.544 262.8418 611 268.1333 C613.7413 271.3886 614.316 272.7559 615 277.1333 C616.6455 287.6647 614.3344 289.8068 616 300.1333 C616.6217 303.9878 617.7873 305.3675 620 308.1333 C621.0273 309.4175 621.9918 309.5856 624 310.1333 C627.2132 311.0096 629.9528 311.9187 631 311.1333 C634.1416 308.7771 638.5522 304.0854 640 298.1333 C642.2876 288.7286 640 274.1334 640 274.1333 C640 274.1333 640.5109 281.6582 639 288.1333 C637.153 296.049 633 304.1333 633 304.1333 "/>
<path id="7" d="M613 207.1333 C613 207.1333 616.0604 209.6904 617 212.1333 C618.2049 215.266 618.5985 219.4018 618 220.1333 C617.0682 221.2723 608.3863 223.5196 608 223.1333 C606.8411 221.9744 604 206.134 604 206.1333 C604 206.133 605.5407 211.3078 608 215.1333 C609.7458 217.849 612.2457 219.8101 613 220.1333 C613.1207 220.1851 614.7857 218.9905 615 218.1333 C615.5143 216.0762 615.6283 213.39 615 212.1333 C614.5811 211.2956 611.866 209.8971 611 210.1333 C608.9033 210.7052 605.4536 213.0567 604 215.1333 C603.2658 216.1821 604 220.1333 604 220.1333 "/>
<path id="8" d="M163 383.1333 C163 383.1333 165.7478 390.7367 166 398.1333 C167.2189 433.8864 165.1192 449.1126 166 471.1333 C166.0256 471.7728 168.0537 473.2385 169 473.1333 C174.2615 472.5487 184 469.1333 184 469.1333 "/>
<path id="9" d="M198 391.1333 C198 391.1333 201.647 398.8083 202 406.1333 C203.58 438.9189 203.5778 444.5497 202 474.1333 C201.8326 477.2715 199.4688 480.5825 198 481.1333 C195.4228 482.0998 186 480.1333 186 480.1333 "/>
<path id="10" d="M238 393.1333 C238 393.1333 237.2857 423.9621 239 454.1333 C239.7645 467.5877 243 481.1333 243 481.1333 "/>
<path id="11" d="M277 386.1333 C277 386.1333 277.5815 394.658 280 402.1333 C282.934 411.2022 287.2523 411.6946 288 420.1333 C290.4344 447.6077 287 481.1333 287 481.1333 "/>
<path id="12" d="M261 390.1333 C261 390.1333 265.413 403.2108 267 416.1333 C268.8473 431.1757 265.9263 432.1565 268 447.1333 C270.3381 464.0193 276 481.1333 276 481.1333 "/>
<path id="13" d="M221 391.1333 C221 391.1333 218.9642 417.0615 222 440.1333 C223.7415 453.3684 225.4789 454.5574 231 467.1333 C234.2022 474.4272 240 481.1333 240 481.1333 "/>
<path id="14" d="M55 347.1333 C55 347.1333 47.1214 393.2234 35 434.1333 C31.7969 444.9437 29.8536 445.6438 23 455.1333 C17.1989 463.1657 9.1051 470.1483 9 470.1333 C8.9785 470.1303 9 453.1333 9 453.1333 "/>
<path id="15" d="M38 341.1333 C38 341.1333 41.8636 365.8384 39 388.1333 C35.0945 418.5406 32.6847 423.3241 24 450.1333 C22.4943 454.7813 19.2687 456.6818 16 459.1333 C15.1136 459.7982 12 459.1333 12 459.1333 "/>
</g>
</g>
</svg>
