<?xml version="1.0" encoding="utf-8"?>
<!DOCTYPE svg PUBLIC "-//W3C//DTD SVG 1.1//EN" "http://www.w3.org/Graphics/SVG/1.1/DTD/svg11.dtd">
<svg viewBox="0 0 800 800" preserveAspectRatio="xMinYMin meet" xmlns="http://www.w3.org/2000/svg" version="1.1">
<g fill="none" stroke="black" stroke-linecap="round" stroke-linejoin="round" stroke-width="2.1649">
<g transform="translate(87.52,163.7346) scale(1.3857) translate(-182,-139)">
<path id="0" d="M235 179 C235 179 228.4626 177.8189 223 179 C210.8323 181.6309 209.4387 181.8526 198 187 C190.2009 190.5096 186.5849 192.5189 183 197 C181.2401 199.1998 180.9461 204.4406 182 207 C183.1315 209.7478 185.7166 211.9274 190 214 C200.1078 218.8909 201.6479 219.5674 213 222 C221.8257 223.8912 224.6917 224.1244 232 223 C235.0128 222.5365 239 218 239 218 "/>
<path id="1" d="M238 177 C238 177 236.8428 172.1243 238 169 C241.284 160.1332 242.4112 158.5476 248 150 C250.5335 146.1252 251.3899 144.6546 255 143 C261.6603 139.9474 267.187 138.5815 272 139 C273.885 139.1639 275.8875 141.7353 278 145 C281.0429 149.7027 281.7525 150.5944 283 156 C284.5633 162.7741 284.393 163.631 284 171 C282.4153 200.7127 280.5075 201.2262 279 231 C278.5259 240.3637 277.3239 241.9718 280 250 C285.629 266.8869 287.2047 272.1261 297 285 C302.0465 291.6325 305.7586 291.636 315 296 C323.3006 299.9197 324.0927 300.3148 333 302 C341.9325 303.6899 345.1392 304.7705 352 303 C357.243 301.647 360.4497 298.9309 364 294 C368.0897 288.3199 368.7566 285.9578 370 278 C373.5696 255.1543 370.3471 252.2824 374 230 C375.0498 223.5961 376.0598 220.9402 380 217 C385.5992 211.4008 389.4765 209.4183 397 207 C400.9744 205.7225 405.154 206.1026 408 208 C412.5537 211.0358 414.7187 214.4374 418 221 C420.6433 226.2866 420.6082 227.5999 421 234 C422.07 251.4765 419.5557 253.39 421 270 C421.4152 274.7744 422.6512 275.3024 425 280 C426.5659 283.1317 426.6407 284.0036 429 286 C432.439 288.9099 433.9656 290.2665 438 291 C443.2188 291.9489 445.6851 291.7716 451 290 C456.3149 288.2284 458.3905 287.0342 462 283 C465.7223 278.8398 466.6693 276.9882 468 271 C471.3822 255.7799 468.1647 253.3411 472 238 C474.8765 226.4942 476.3814 225.1837 482 215 C483.8344 211.6752 485.2356 209.9215 488 209 C493.2984 207.2339 496.8825 207.3883 503 208 C505.176 208.2176 506.5575 209.1136 508 211 C512.253 216.5616 514.7337 218.1814 516 225 C520.6552 250.0664 517.088 254.7895 521 281 C521.8098 286.4255 523.4537 290.161 526 292 C528.8413 294.0521 532.7863 294.1726 539 294 C550.0806 293.6922 556.9551 288.898 562 291 C566.755 292.9812 570.3518 299.9942 575 309 C577.7367 314.3024 577.3366 315.5314 578 322 C579.3013 334.688 580.0362 335.5662 579 348 C578.1038 358.7546 577.1904 359.7197 574 370 C572.8836 373.5973 572.5963 374.6295 570 377 C562.059 384.2505 560.7189 385.724 551 391 C544.1623 394.7119 542.9911 394.6016 535 396 C523.4691 398.0179 520.0783 396.0546 511 398 C509.195 398.3868 507.5989 399.9857 507 402 C502.9515 415.6176 502.0851 418.5802 500 435 C498.1464 449.5971 501.4332 453.1384 499 465 C498.1593 469.0982 494.9423 473.2257 492 474 C482.1812 476.5839 466.777 477.0861 461 475 C459.104 474.3153 455.8061 461.168 456 461 C456.52 460.5493 475.8381 462.5198 476 462 C477.9098 455.8686 478.2129 407.2289 475 400 C474.3311 398.495 460.5439 398.0351 448 399 C442.2657 399.4411 441.8868 402.3601 436 403 C419.8524 404.7552 418.3686 405.3201 402 404 C388.2544 402.8915 377.9065 397.4959 374 398 C373.3844 398.0794 371.1814 403.1615 371 408 C369.744 441.4924 373.9948 468.625 371 478 C370.6001 479.2519 358.7649 480.3166 348 480 C342.7969 479.847 342.2956 478.7652 337 477 C334.9406 476.3135 333.211 475.8018 333 475 C331.8067 470.4655 331.267 461.4816 332 458 C332.1333 457.367 335.6374 455.6856 337 456 C339.7482 456.6342 344.9772 461.0471 345 461 C345.7946 459.3578 350.4589 442.7225 352 425 C353.3855 409.0666 352.6059 408.0586 351 392 C350.1558 383.5583 349.8685 382.745 347 375 C345.103 369.8781 344.8462 368.6631 341 365 C325.0017 349.7635 320.8483 351.3435 305 335 C289.5809 319.099 288.9704 317.4409 277 299 C271.0691 289.8632 273.3942 287.8584 268 278 C259.0646 261.6699 254.7446 262.0832 248 246 C242.5699 233.0513 242 216 242 216 "/>
<path id="2" d="M253 174 L254 179 "/>
<path id="3" d="M571 298 C571 298 592.4889 291.728 606 282 C614.5388 275.8521 620.9999 262 621 262 C621.0001 262 609.8282 280.2785 610 281 C610.0609 281.2559 626 283 626 283 "/>
<path id="4" d="M610 277 L633 272 "/>
</g>
</g>
</svg>
