<?xml version="1.0" encoding="utf-8"?>
<!DOCTYPE svg PUBLIC "-//W3C//DTD SVG 1.1//EN" "http://www.w3.org/Graphics/SVG/1.1/DTD/svg11.dtd">
<svg viewBox="0 0 800 800" preserveAspectRatio="xMinYMin meet" xmlns="http://www.w3.org/2000/svg" version="1.1">
<g fill="none" stroke="black" stroke-linecap="round" stroke-linejoin="round" stroke-width="1.3489">
<g transform="translate(118.6568,87.52) scale(2.2241) translate(-198,-111)">
<path id="0" d="M268 111 C268 111 232.3479 132.39 205 153 C201.089 155.9474 201.0266 158.0782 199 163 C197.7955 165.9252 197.758 167.8224 198 170 C198.078 170.7024 198.9812 171.7251 200 172 C226.0939 179.0412 231.0057 181.8873 261 187 C273.7421 189.1719 274.5444 187.5887 288 187 C354.4339 184.0935 357.4023 186.6738 421 180 C435.29 178.5004 443.0425 173.9426 450 170 C450.9968 169.4352 451.9138 164.4762 451 163 C447.7538 157.7562 444.6336 153.5801 437 149 C423.7776 141.0665 421.7181 141.1575 406 136 C390.1217 130.7899 389.5968 130.7097 373 128 C340.922 122.7628 340.3543 122.8759 308 120 C295.6907 118.9058 295.3155 119.0877 283 120 C268.5681 121.069 267.7323 121.109 254 124 C249.471 124.9535 245 128 245 128 "/>
<path id="1" d="M199 175 C199 175 217.9675 194.3907 239 208 C259.3066 221.1395 263.0704 218.8945 284 230 C286.261 231.1997 287.1123 232.0471 288 234 C289.1373 236.5021 288.9395 237.5231 289 241 C289.9308 294.5192 294.3238 318.7333 290 349 C289.4559 352.8084 281.3645 355.548 272 360 C251.2157 369.8811 249.7637 368.4168 229 378 C224.2371 380.1983 222.266 381.734 220 384 C219.5468 384.4532 219.6232 386.0579 220 387 C220.3517 387.8793 221.1833 388.9183 222 389 C232.4313 390.0431 235.9991 389.7653 250 390 C325.4765 391.265 325.9767 391.534 401 392 C405.9649 392.0308 407.9227 392.6291 411 391 C414.2835 389.2617 417.0575 385.6391 418 383 C418.4745 381.6715 417.6584 378.9901 416 377 C411.0607 371.0729 409.9364 369.6242 403 365 C395.6232 360.0821 394.7138 359.5629 386 357 C361.4479 349.7788 340.8242 347.3772 335 345 C334.8682 344.9462 337.4117 340.4584 337 337 C335.1524 321.4798 334.3596 319.669 330 303 C325.91 287.3616 322.544 287.2639 320 272 C317.2613 255.5679 317.0355 249.0679 319 237 C319.5246 233.7776 322.5948 232.1 327 229 C335.6428 222.918 336.1348 221.8283 346 218 C368.8184 209.1451 370.8536 211.8322 394 203 C408.3652 197.5186 408.7991 196.9205 422 189 C433.4601 182.1239 444 173 444 173 "/>
</g>
</g>
</svg>
