<?xml version="1.0" encoding="utf-8"?>
<!DOCTYPE svg PUBLIC "-//W3C//DTD SVG 1.1//EN" "http://www.w3.org/Graphics/SVG/1.1/DTD/svg11.dtd">
<svg viewBox="0 0 800 800" preserveAspectRatio="xMinYMin meet" xmlns="http://www.w3.org/2000/svg" version="1.1">
<g fill="none" stroke="black" stroke-linecap="round" stroke-linejoin="round" stroke-width="1.8337">
<g transform="translate(247.8501,87.52) scale(1.636) translate(-217,-48)">
<path id="0" d="M217 71 C217 71 218.7596 68.1202 221 67 C236.4962 59.2519 238.0785 56.593 255 52 C271.4834 47.5259 273.1314 48.2836 291 48 C335.5772 47.2924 343.4804 46.6232 381 50 C385.4226 50.398 388.4428 53.7454 391 57 C392.3401 58.7055 392.1832 62.5341 392 64 C391.9667 64.2665 390.9793 64.887 390 65 C342.1925 70.5162 338.7327 72.7057 288 76 C262.3482 77.6657 260.8921 76.9148 236 75 C229.6391 74.5107 225.4592 72.3242 223 71 C222.7379 70.8588 223 68 223 68 "/>
<path id="1" d="M219 71 C219 71 220.3173 98.0108 225 124 C230.2405 153.0847 230.9724 154.7062 239 182 C240.5204 187.1693 241.303 187.9949 245 192 C252.76 200.4067 253.976 203.6931 263 208 C272.992 212.7689 289 213 289 213 "/>
<path id="2" d="M393 67 C393 67 390.4802 73.0453 390 79 C388.0323 103.3995 390.0068 104.1653 388 129 C386.0202 153.4997 387.8511 157.0593 382 178 C379.3869 187.3522 375.9819 188.6882 369 197 C366.0317 200.5336 365.2126 200.5928 361 203 C354.9444 206.4604 354.6232 206.9762 348 209 C337.0481 212.3464 325 214 325 214 "/>
<path id="3" d="M291 214 C291 214 294.3946 276.2258 294 337 C293.9004 352.3323 293.4012 353.2615 290 368 C287.5659 378.5478 287.4914 381.5317 282 389 C276.791 396.0843 273.7475 396.9208 265 402 C258.9767 405.4974 251 407 251 407 "/>
<path id="4" d="M324 214 C324 214 322.3084 290.121 329 347 C330.0784 356.1668 334.8527 358.299 342 367 C345.7775 371.5987 346.6372 372.1012 352 375 C364.5368 381.7767 365.4078 382.3729 379 387 C388.3406 390.1798 399 391 399 391 "/>
<path id="5" d="M249 407 C249 407 248.352 409.704 249 411 C250.782 414.564 251.6327 415.8733 255 419 C258.1702 421.9438 258.8789 422.5789 263 424 C272.6304 427.3208 273.6087 428.1459 284 429 C309.2769 431.0776 310.5951 431.639 336 430 C356.2766 428.6918 364.0791 430.5211 377 423 C389.7925 415.5536 403 391 403 391 "/>
</g>
</g>
</svg>
