<?xml version="1.0" encoding="utf-8"?>
<!DOCTYPE svg PUBLIC "-//W3C//DTD SVG 1.1//EN" "http://www.w3.org/Graphics/SVG/1.1/DTD/svg11.dtd">
<svg viewBox="0 0 800 800" preserveAspectRatio="xMinYMin meet" xmlns="http://www.w3.org/2000/svg" version="1.1">
<g fill="none" stroke="black" stroke-linecap="round" stroke-linejoin="round" stroke-width="1.5169">
<g transform="translate(221.0162,87.52) scale(1.9777) translate(-179,-85.1333)">
<path id="0" d="M179 103.1333 C179 103.1333 176.5182 136.0612 179 165.1333 C179.8245 174.7917 181.5585 175.8063 186 185.1333 C191.366 196.4019 191.4112 198.5327 199 207.1333 C205.1217 214.0712 207.1008 214.073 216 219.1333 C232.3115 228.4085 233.4836 231.8345 250 236.1333 C266.9875 240.5547 272.7881 240.4087 289 238.1333 C297.1243 236.9931 299.1848 234.054 307 228.1333 C315.056 222.0303 315.3386 221.1662 322 213.1333 C332.1372 200.9091 335.2902 200.6738 341 187.1333 C351.7017 161.7551 352.3881 158.0929 357 130.1333 C360.0932 111.3809 357.3601 92.4142 357 90.1333 C356.9905 90.0733 353.2125 90.5031 351 92.1333 C344.5339 96.8978 344.7949 101.2918 338 104.1333 C320.4266 111.4822 316.7238 112.9519 296 115.1333 C261.3762 118.7779 259.7186 117.0987 224 116.1333 C204.5915 115.6088 203.1135 114.951 185 112.1333 C182.0437 111.6735 178.9839 109.1554 179 109.1333 C179.2144 108.8386 185.7128 103.7832 193 101.1333 C217.9176 92.0724 219.6369 87.5633 245 85.1333 C299.4853 79.9132 360 85.1333 360 85.1333 "/>
<path id="1" d="M266 240.1333 C266 240.1333 270.7479 291.4192 264 333.1333 C260.6569 353.7998 256.109 357.6946 244 376.1333 C235.4229 389.1939 220 400.1333 220 400.1333 C220 400.1333 221.2313 398.1786 222 398.1333 C233.6167 397.45 238.1387 397.3268 254 398.1333 C267.4586 398.8177 267.5435 400.5647 281 401.1333 C302.8267 402.0556 306.5731 401.9175 325 401.1333 C326.292 401.0784 328.0289 399.1533 328 399.1333 C327.6272 398.8752 317.9122 396.6811 312 392.1333 C306.4706 387.88 306.64 385.8534 302 379.1333 C292.1815 364.9135 291.3599 364.924 283 350.1333 C278.5914 342.3334 278.6454 341.6575 276 333.1333 C274.2586 327.5221 274.1211 327.0696 274 321.1333 C273.1347 278.7341 274 235.1333 274 235.1333 "/>
</g>
</g>
</svg>
