<?xml version="1.0" encoding="utf-8"?>
<!DOCTYPE svg PUBLIC "-//W3C//DTD SVG 1.1//EN" "http://www.w3.org/Graphics/SVG/1.1/DTD/svg11.dtd">
<svg viewBox="0 0 800 800" preserveAspectRatio="xMinYMin meet" xmlns="http://www.w3.org/2000/svg" version="1.1">
<g fill="none" stroke="black" stroke-linecap="round" stroke-linejoin="round" stroke-width="1.9777">
<g transform="translate(263.4796,87.52) scale(1.5169) translate(-213,-63)">
<path id="0" d="M213 107 C213 107 207.5408 155.3592 213 196 C215.9086 217.6528 220.2214 221.3449 231 241 C236.063 250.2325 238.1462 251.9794 247 258 C261.6364 267.9528 263.9313 268.8441 281 275 C293.2507 279.4183 294.6147 278.576 308 280 C317.7235 281.0344 319.4561 282.0839 328 280 C338.0131 277.5578 339.5426 275.7965 349 270 C354.4091 266.6848 356.1913 264.6514 359 261 C359.6731 260.125 358.2681 258.0978 359 257 C364.6111 248.5833 368.3767 247.367 375 237 C379.4866 229.9775 379.2762 229.1715 382 221 C387.2 205.3999 389.8648 204.6401 391 189 C394.1983 144.9342 391 97 391 97 "/>
<path id="1" d="M213 108 C213 108 212.2727 97.7728 215 93 C218.5479 86.7911 221.5573 85.2099 229 80 C235.9594 75.1284 236.8447 75.3131 245 72 C252.639 68.8967 253.2025 67.7498 261 67 C278.0325 65.3623 280.0297 68.4142 297 67 C302.8139 66.5155 303.2068 63.3678 309 63 C333.111 61.4691 335.7374 60.9496 360 63 C369.756 63.8244 370.703 65.4242 380 69 C383.1417 70.2084 383.8889 70.6778 386 73 C388.375 75.6125 388.9659 76.4546 390 80 C392.2633 87.76 393 97 393 97 "/>
<path id="2" d="M214 99 C214 99 215.7573 105.0168 219 108 C227.0285 115.3862 229.2722 119.0816 239 122 C255.5614 126.9684 259.0513 125.194 279 126 C308.3059 127.1841 309.0532 127.6636 338 126 C351.8784 125.2024 353.6346 125.5181 366 121 C378.0704 116.5897 384.0575 113.3996 390 107 C392.5969 104.2033 392 93 392 93 "/>
<path id="3" d="M336 428 C336 428 315.274 422.8455 295 420 C287.2991 418.9192 284.8316 417.8794 279 420 C271.2135 422.8315 269.0561 425.5854 262 432 C258.8972 434.8208 257.961 436.1562 257 440 C255.3118 446.7527 254.0048 453.5614 256 456 C261.2448 462.4104 270.6266 469.5193 284 473 C302.7747 477.8866 306.85 475 329 475 C336.3833 475 337.3084 474.9517 344 473 C348.4909 471.6902 350.0928 471.0889 353 468 C357.0117 463.7376 358.8413 461.4071 360 456 C361.3548 449.6774 361.5796 444.5523 359 440 C355.4082 433.6616 350.1187 429.2149 343 426 C338.2165 423.8397 328 426 328 426 "/>
<path id="4" d="M276 271 C276 271 291.4144 301.6578 299 332 C304.9378 355.751 302.9825 357.5627 304 383 C305.4706 419.7648 304 457 304 457 "/>
<path id="5" d="M335 284 C335 284 335.9552 299.847 334 315 C330.0166 345.8713 325.5065 346.2378 323 377 C320.0908 412.7039 322.1304 416.0862 323 450 C323.0602 452.3467 325 455 325 455 "/>
<path id="6" d="M334 278 L336 291 "/>
</g>
</g>
</svg>
