<?xml version="1.0" encoding="utf-8"?>
<!DOCTYPE svg PUBLIC "-//W3C//DTD SVG 1.1//EN" "http://www.w3.org/Graphics/SVG/1.1/DTD/svg11.dtd">
<svg viewBox="0 0 800 800" preserveAspectRatio="xMinYMin meet" xmlns="http://www.w3.org/2000/svg" version="1.1">
<g fill="none" stroke="black" stroke-linecap="round" stroke-linejoin="round" stroke-width="0.84485">
<g transform="translate(289.9218,87.52) scale(3.5509) translate(-175,-138)">
<path id="0" d="M228 139 C228 139 219.8653 137.8163 213 139 C206.1978 140.1728 202.2872 141.3291 199 144 C197.4531 145.2569 196.4817 150.9634 197 152 C197.5924 153.1847 201.2136 155.3415 205 156 C211.5316 157.1359 213.2009 157.0879 220 156 C224.8228 155.2283 228.1354 154.2949 230 152 C232.2203 149.2674 233.485 140.7544 233 140 C232.5322 139.2724 221 138 221 138 "/>
<path id="1" d="M200 148 C200 148 197.0946 155.1895 197 162 C196.6095 190.1176 195.2345 193.9835 199 220 C200.247 228.6154 203.9495 234.7934 208 238 C210.7511 240.178 221.8796 240.0582 223 239 C224.5943 237.4943 225.704 229.8798 226 221 C226.6863 200.4114 222.1727 198.0199 225 179 C227.2823 163.6465 232.4079 162.3071 237 147 C238.0319 143.5602 237.2353 139.9412 237 139 C236.9853 138.9412 235 139 235 139 "/>
<path id="2" d="M212 235 C212 235 210.6418 260.7141 208 286 C207.1618 294.0225 207.0007 294.3308 205 302 C204.0722 305.5564 202.0025 309 202 309 C202 309 202 302 202 302 "/>
<path id="3" d="M218 240 C218 240 218.1594 251.8706 216 263 C211.7404 284.9534 204.7334 305.1785 205 307 C205.0032 307.022 221.0933 303.7733 222 304 C222.0418 304.0105 221.9837 310.1803 221 311 C219.0566 312.6195 215.3898 313.563 210 314 C197.536 315.0106 196.9101 314.3689 184 314 C179.5169 313.8719 176.2947 313.4316 175 313 C174.9075 312.9692 174.6999 311.2667 175 311 C177.4192 308.8496 179.4856 306.3278 184 305 C194.9776 301.7713 197.124 303.1993 209 301 C210.0082 300.8133 211 300.0584 211 300 C211 299.8831 209 298 209 298 "/>
</g>
</g>
</svg>
