<?xml version="1.0" encoding="utf-8"?>
<!DOCTYPE svg PUBLIC "-//W3C//DTD SVG 1.1//EN" "http://www.w3.org/Graphics/SVG/1.1/DTD/svg11.dtd">
<svg viewBox="0 0 800 800" preserveAspectRatio="xMinYMin meet" xmlns="http://www.w3.org/2000/svg" version="1.1">
<g fill="none" stroke="black" stroke-linecap="round" stroke-linejoin="round" stroke-width="2.0017">
<g transform="translate(87.52,218.6567) scale(1.4987) translate(-70,-31)">
<path id="0" d="M85 141 C85 141 84.0943 158.8872 83 166 C82.9435 166.3675 81.0193 166.7304 81 167 C80.7821 170.05 81.0179 175.0897 82 180 C82.1786 180.8928 83.2377 181.9628 84 182 C98.1731 182.6914 123 182 123 182 "/>
<path id="1" d="M88 139 C88 139 132.7457 134.9409 136 138 C139.2585 141.063 138.6747 180.6022 138 186 C137.9859 186.113 133.1113 186.9723 130 186 C126.2811 184.8378 122 181 122 181 "/>
<path id="2" d="M162 141 C162 141 159.4612 179.7853 162 182 C165.3362 184.9103 205.7325 182.5809 209 182 C209.0402 181.9929 207 174 207 174 "/>
<path id="3" d="M163 141 C163 141 213.3033 137.5613 218 141 C220.6488 142.9393 220.6563 177.031 219 182 C218.7556 182.7331 209.1195 183.3011 204 183 C203.2744 182.9573 202 181 202 181 "/>
<path id="4" d="M70 136 C70 136 75.108 146.1878 76 156 C78.4787 183.2658 75.6003 192.0047 77 213 C77.0785 214.1773 79.6919 214.5914 80 216 C82.5177 227.5096 80.3496 238.2757 84 245 C85.6562 248.0509 91.9947 250.7684 99 251 C147.8274 252.6141 153.8384 251.5581 205 249 C211.8473 248.6576 216.4001 246.2999 219 245 C219.2437 244.8781 219.4532 242.4532 219 242 C216.734 239.734 210 236 210 236 "/>
<path id="5" d="M116 114 C116 114 118.2347 130.2855 120 131 C126.165 133.4954 139.1931 130.2903 158 131 C165.4611 131.2816 170.6764 132.3804 173 133 C173.0798 133.0213 172.9764 134.9978 173 135 C175.6014 135.2478 183.6803 135.6254 194 135 C199.9565 134.639 206.0035 133.003 206 133 C205.9924 132.9935 187 129 187 129 "/>
<path id="6" d="M118 116 C118 116 196.7783 113.0921 206 115 C206.3079 115.0637 205.4087 133.6497 205 134 C204.8345 134.1419 192 127 192 127 "/>
<path id="7" d="M73 116 C73 116 74.1116 132.8799 74 135 C73.9994 135.0118 72.0345 134.9138 72 135 C71.7845 135.5388 72 140 72 140 C72 140 72 136 72 136 "/>
<path id="8" d="M74 121 C74 121 73.244 116.2758 74 113 C74.5379 110.6691 75.1186 109.7367 77 108 C81.0668 104.246 82.6985 101.2341 87 101 C143.7911 97.9093 157.1682 101.7822 224 100 C230.3795 99.8299 236.9925 96.9955 237 97 C237.003 97.0018 229 103 229 103 "/>
<path id="9" d="M129 202 C129 202 187.9951 200.9999 188 201 C188.0007 201 180 203 180 203 "/>
<path id="10" d="M130 210 C130 210 152.65 211.4028 174 211 C178.3872 210.9172 183 209 183 209 "/>
<path id="11" d="M134 216 C134 216 185.9996 216 186 216 C186.0001 216 181.1326 215.7951 178 217 C175.5571 217.9396 173 221 173 221 "/>
<path id="12" d="M141 221 L173 221 "/>
<path id="13" d="M135 222 L151 222 "/>
<path id="14" d="M105 205 C105 205 102.4296 206.0334 102 207 C101.0405 209.1588 100.3443 211.8688 101 214 C101.7387 216.4006 103.6877 219.0479 106 220 C109.8417 221.5819 115.2135 221.2143 118 221 C118.2697 220.9793 118.934 219.9245 119 219 C119.3826 213.644 119.956 210.5851 119 207 C118.676 205.7851 116.8163 204.4953 115 204 C112.3613 203.2803 108.6457 203.4351 108 204 C107.3428 204.575 106.5815 208.9077 107 211 C107.2215 212.1077 108.6063 213.6018 110 214 C114.0779 215.1651 120.6584 215.3036 121 215 C121.2027 214.8198 119.6875 206.4375 119 206 C118.3125 205.5625 111.2277 206.7723 110 208 C108.9955 209.0045 108.4854 214.7135 109 216 C109.2708 216.6771 113.7324 218.1338 114 218 C114.2341 217.8829 115.1655 213.2069 115 213 C114.8424 212.803 110.4596 213.2757 110 213 C109.8346 212.9007 110 210 110 210 "/>
<path id="15" d="M205 206 C205 206 203.7773 217.7137 204 218 C204.0639 218.0822 211.3115 216.291 212 215 C213.137 212.8681 212.8695 203.8695 212 203 C210.9856 201.9856 203.3861 201.7076 199 202 C198.2765 202.0482 197 203.4095 197 204 C197 206.6572 197.5046 211.6196 199 213 C200.9976 214.844 209.5608 216.2795 210 216 C210.3074 215.8044 210.7512 207.033 210 206 C209.4878 205.2957 202.3871 204.6613 202 205 C201.6197 205.3327 201.5044 212.4336 202 213 C202.3794 213.4336 208.5625 213.4375 209 213 C209.4375 212.5625 209.3963 206.2522 209 206 C208.0213 205.3772 198 206 198 206 "/>
<path id="16" d="M234 117 C234 117 233 145.1645 233 173 C233 178.4677 233.5746 182.4402 234 184 C234.0206 184.0755 235.999 183.9839 236 184 C236.249 187.8589 237.4052 200.9477 236 215 C235.5739 219.261 232.7838 219.689 232 224 C230.9525 229.7614 233.3842 232.3859 232 237 C231.063 240.1234 228.587 242.9347 226 244 C222.7962 245.3192 219.583 244.8593 215 244 C212.6825 243.5655 210 241 210 241 "/>
<path id="17" d="M237 102 C237 102 249.6529 101.3558 260 98 C267.0669 95.708 266.8176 93.1124 274 90 C281.4702 86.7629 281.8888 86.5957 290 85 C342.4098 74.6899 358.2128 73.6974 396 66 C396.898 65.8171 396.8605 63.5108 398 63 C408.7253 58.1921 425 53 425 53 "/>
<path id="18" d="M96 91 C96 91 105.6174 86.1446 115 84 C122.3915 82.3105 123.4026 84.554 131 83 C144.8949 80.1579 145.0223 77.7407 159 75 C170.058 72.8318 178.6551 73.5817 182 73 C182.0498 72.9913 181.9002 71.0312 182 71 C184.7053 70.1546 189.9805 69.0024 198 68 C209.8762 66.5155 215.1522 67.0957 222 66 C222.3717 65.9405 222.6236 64.0706 223 64 C227.1579 63.2204 230.7333 64.3457 238 63 C270.8241 56.9215 270.9296 55.0417 304 49 C322.7708 45.5707 323.2533 47.4293 342 44 C364.0777 39.9614 369.8653 38.5598 386 34 C386.9813 33.7227 388.0191 31.0286 388 31 C387.9695 30.9542 385.5914 30.4316 384 31 C379.3109 32.6747 374 36 374 36 "/>
<path id="19" d="M83 105 L102 91 "/>
<path id="20" d="M234 240 C234 240 245.4718 239.3821 255 237 C258.5046 236.1238 262 233 262 233 "/>
<path id="21" d="M245 237 C245 237 249.3354 232.7492 254 231 C264.4694 227.074 277 225 277 225 "/>
<path id="22" d="M280 225 C280 225 278.916 210.5622 280 199 C280.2619 196.2067 281.068 194.932 283 193 C285.7907 190.2093 287.3211 188.657 291 188 C299.2739 186.5225 305.1701 185.7887 311 188 C314.8397 189.4564 316.9397 193.3894 320 199 C322.4308 203.4564 321.6374 208.5011 323 210 C323.6317 210.6949 329.191 210.2311 330 210 C330.066 209.9811 329.8289 208.0805 330 208 C333.6038 206.3041 340.2709 205.8034 347 202 C350.2856 200.1429 349.6402 197.138 353 195 C359.5735 190.8169 360.9964 190.4011 369 188 C375.4559 186.0632 380.8061 186.6268 383 186 C383.086 185.9754 382.863 184.0571 383 184 C385.1788 183.0922 389.6716 183.3682 395 181 C402.593 177.6253 402.443 175.0228 410 172 C416.5819 169.3672 423.2898 170.817 425 169 C426.4927 167.414 424.3425 161.1565 426 155 C427.5816 149.1256 428.5745 147.9825 432 143 C433.58 140.7019 434.7891 139.4422 437 139 C442.7178 137.8564 446.0728 138.0641 452 139 C453.7678 139.2791 454.1427 140.3749 456 142 C458.1026 143.8398 459.5226 144.1857 460 146 C461.4423 151.4806 460.7827 160.9547 461 161 C462.102 161.2296 484 151 484 151 "/>
<path id="23" d="M423 55 C423 55 443.8987 46.9426 463 41 C465.1532 40.3301 466.72 40.36 468 41 C469.28 41.64 470.3655 42.9152 471 45 C476.8565 64.2428 479.4171 66.3372 482 87 C484.7392 108.9133 480.3595 110.689 482 133 C482.7977 143.8488 487.0117 154.998 487 155 C486.7527 155.043 459 137 459 137 "/>
<path id="24" d="M389 33 C389 33 426.3213 33.4536 459 36 C462.3658 36.2623 465.1028 37.542 466 39 C467.3033 41.1179 467 49 467 49 "/>
<path id="25" d="M308 200 C308 200 308.1032 197.031 308 197 C306.8532 196.656 300.5213 195.5993 298 197 C294.5822 198.8988 291.1572 202.5158 290 207 C287.9857 214.8054 288.5813 220.623 290 228 C290.4027 230.0942 292.4255 231.8558 295 233 C300.1094 235.2709 304.5112 236.6978 308 236 C310.3634 235.5273 312.5436 232.6846 315 229 C317.1055 225.8418 317.7219 224.7547 318 221 C318.6402 212.3574 318.5154 208.9709 317 202 C316.616 200.2336 314.2939 198.0616 313 198 C307.795 197.7521 296 201 296 201 "/>
<path id="26" d="M452 155 C452 155 442.9162 152.829 441 154 C438.3563 155.6156 435.1587 160.5929 434 166 C432.6452 172.3226 433.5405 179.6117 435 182 C435.7127 183.1662 443.0052 184.9449 445 184 C448.1314 182.5167 452.4641 177.9491 454 173 C456.0044 166.5415 454.247 157.2226 454 155 C453.997 154.9726 452.1 155.175 452 155 C451.2875 153.7532 450.9084 148.4892 450 148 C448.2679 147.0674 442.8311 147.179 439 148 C437.7313 148.2719 436.2802 149.669 436 151 C434.7492 156.9411 435 167 435 167 "/>
<path id="27" d="M423 172 C423 172 426.4652 177.387 429 179 C430.2123 179.7714 434.0031 178.9983 434 179 C433.9838 179.0091 413 188 413 188 "/>
<path id="28" d="M262 234 C262 234 263.6784 235.8851 265 236 C273.328 236.7242 279.0676 236.809 285 236 C285.7146 235.9026 286.694 234.3771 287 233 C287.5331 230.6012 287.0138 226.9908 287 227 C286.9412 227.0392 282.1182 235.176 278 239 C276.7879 240.1255 274.2564 240.5863 273 240 C269.1938 238.2238 263 232 263 232 "/>
<path id="29" d="M232 241 L232 235 "/>
<path id="30" d="M237 227 C237 227 248.543 218.471 260 214 C267.8238 210.9468 271.8539 212.8438 278 211 C278.9431 210.7171 280 208 280 208 "/>
<path id="31" d="M280 132 C280 132 278.06 133.22 278 134 C277.3314 142.6912 277.0004 146.205 278 158 C279.4754 175.4093 283 193 283 193 "/>
<path id="32" d="M279 126 L279 140 "/>
<path id="33" d="M279 119 C279 119 286.457 111.7798 294 110 C327.8446 102.0142 334.6335 105.2361 368 98 C372.487 97.0269 372.2441 94.1618 377 92 C393.7747 84.3751 394.4346 83.547 412 78 C422.3657 74.7266 423.601 77.1997 434 74 C449.082 69.3594 451.8529 67.6939 464 62 C465.1614 61.4556 464.9521 59.6986 466 59 C467.2226 58.1849 469.7469 57.9367 470 58 C470.0338 58.0084 470 60 470 60 "/>
<path id="34" d="M290 165 C290 165 294.8712 165.3906 298 164 C302.8578 161.841 302.8279 159.4736 308 157 C313.7786 154.2363 314.5178 154.2964 321 153 C326.7307 151.8539 327.8398 153.5705 333 152 C338.379 150.3629 338.5498 147.2908 344 146 C356.159 143.1202 359.1529 147.0071 371 143 C391.1992 136.1679 391.0758 131.4152 412 123 C436.6759 113.076 438.7583 115.9016 463 106 C473.4179 101.7448 483 94 483 94 "/>
<path id="35" d="M283 168 L296 164 "/>
<path id="36" d="M315 109 L316 153 "/>
<path id="37" d="M353 104 L353 142 "/>
<path id="38" d="M383 93 C383 93 383.2383 103.5439 385 112 C385.5104 114.4497 387.7018 114.7137 388 117 C388.9956 124.6333 387.9982 134.9947 388 135 C388.0008 135.0024 391 126 391 126 "/>
<path id="39" d="M418 80 C418 80 420.479 86.0953 421 92 C421.9345 102.5916 421 114 421 114 "/>
<path id="40" d="M454 70 C454 70 456.9421 85.6501 458 89 C458.033 89.1044 459.9517 88.8743 460 89 C460.8893 91.3123 462.1107 99.6877 463 102 C463.0483 102.1257 464.9322 101.8644 465 102 C465.4406 102.8813 466.0826 107.5046 466 108 C465.9953 108.0283 464 108 464 108 "/>
<path id="41" d="M125 255 C125 255 126.9017 264.71 130 269 C131.7202 271.3818 134.2 272.05 138 273 C141.3777 273.8444 143.8496 274.3824 146 273 C154.4864 267.5445 166 255 166 255 "/>
<path id="42" d="M402 181 C402 181 404.8374 180.7398 405 181 C405.8023 182.2837 405.837 188.0485 407 189 C408.3362 190.0933 413.3417 190.7595 416 190 C417.961 189.4397 419.4816 187.6571 421 185 C423.0705 181.3766 424 176 424 176 "/>
<path id="43" d="M265 238 L289 228 "/>
<path id="44" d="M276 98 L277 127 "/>
<path id="45" d="M241 212 L276 201 "/>
<path id="46" d="M102 180 C102 180 103.6543 174.5803 106 172 C107.7043 170.1253 109.156 169.5332 112 169 C116.3337 168.1874 119.9083 167.6055 122 169 C125.3467 171.2312 130 181 130 181 "/>
<path id="47" d="M117 179 L107 179 "/>
<path id="48" d="M119 179 L124 173 "/>
</g>
</g>
</svg>
