<?xml version="1.0" encoding="utf-8"?>
<!DOCTYPE svg PUBLIC "-//W3C//DTD SVG 1.1//EN" "http://www.w3.org/Graphics/SVG/1.1/DTD/svg11.dtd">
<svg viewBox="0 0 800 800" preserveAspectRatio="xMinYMin meet" xmlns="http://www.w3.org/2000/svg" version="1.1">
<g fill="none" stroke="black" stroke-linecap="round" stroke-linejoin="round" stroke-width="2.6834">
<g transform="translate(87.52,233.4185) scale(1.118) translate(-55,-132.1333)">
<path id="0" d="M117 267.1333 C117 267.1333 86.0559 266.0813 74 268.1333 C72.5502 268.3801 70.9534 271.701 70 275.1333 C68.6743 279.9057 69.1097 280.6481 69 286.1333 C68.6118 305.5456 69 325.1333 69 325.1333 C69 325.1333 69.0862 323.1678 69 323.1333 C68.4612 322.9178 64.9868 322.5694 64 323.1333 C63.1542 323.6167 62 325.4551 62 327.1333 C62 333.8461 62.5429 340.6563 64 343.1333 C64.484 343.9562 70.0335 344.8897 72 344.1333 C73.8871 343.4075 75.8784 340.8252 77 338.1333 C77.8325 336.1353 77.7552 334.3989 77 332.1333 C76.077 329.3643 73 326.1333 73 326.1333 "/>
<path id="1" d="M68 349.1333 C68 349.1333 66.6145 364.8704 67 379.1333 C67.0907 382.4901 67.6636 385.1053 69 386.1333 C71.4083 387.9859 74.5678 388.661 80 389.1333 C96.9257 390.6051 111.4104 391.4666 115 390.1333 C115.539 389.9331 113.4555 381.6493 115 376.1333 C116.4297 371.0271 119.4471 370.7497 122 365.1333 C124.2256 360.237 122.756 356.5269 125 354.1333 C127.64 351.3173 131.2278 350.0954 137 349.1333 C145.0961 347.784 146.6748 348.1727 155 349.1333 C158.8602 349.5787 159.8418 350.0279 163 352.1333 C166.6846 354.5897 167.8589 355.3453 170 359.1333 C173.7894 365.8376 175.0577 367.8306 176 375.1333 C176.8281 381.5513 173.8366 387.519 174 390.1333 C174.013 390.342 175.5466 391.0774 177 391.1333 C225.3679 392.9936 227.5118 393.5703 278 394.1333 C361.9525 395.0696 363.2951 392.7922 446 394.1333 C454.3929 394.2694 454.5673 396.5584 463 397.1333 C476.2338 398.0356 488.5733 398.9536 490 397.1333 C492.6002 393.8159 489.6977 373.9474 492 360.1333 C492.3597 357.9749 494.447 356.0109 497 355.1333 C508.0433 351.3372 513.6847 349.7401 524 349.1333 C526.5511 348.9833 528.8655 350.6704 531 353.1333 C534.435 357.0968 536.3625 359.0335 537 364.1333 C539.0074 380.1924 534.5162 399.0275 537 401.1333 C540.7765 404.3352 560.7574 403.504 583 403.1333 C589.7986 403.02 596.9522 400.8539 597 400.1333 C599.7151 359.2252 601.2858 275.7067 598 177.1333 C597.7451 169.485 594.4818 166.3003 589 160.1333 C583.8837 154.3775 581.8266 154.233 574 150.1333 C561.1275 143.3906 560.5402 141.73 547 138.1333 C529.8084 133.5668 528.3955 133.5875 510 133.1333 C407.9102 130.6126 406.8871 130.9193 304 132.1333 C237.5396 132.9175 236.7205 133.6047 171 137.1333 C163.0303 137.5612 161.8955 137.294 155 140.1333 C145.9864 143.8448 142.139 144.8523 137 151.1333 C131.1346 158.3022 128.7838 162.683 128 173.1333 C124.6126 218.299 129.6121 260.7081 128 271.1333 C127.9783 271.2737 115.9956 269.4285 113 270.1333 C112.3555 270.285 111 275.1333 111 275.1333 "/>
<path id="2" d="M110 390.1333 C110 390.1333 109.787 400.5578 112 409.1333 C113.5363 415.0866 114.343 418.4852 118 421.1333 C125.3483 426.4545 130.0077 426.8356 141 430.1333 C143.994 431.0315 145.1293 431.1201 148 430.1333 C159.8031 426.076 168.3367 423.976 173 419.1333 C175.2553 416.7912 174.4916 407.5577 174 403.1333 C173.9278 402.4836 171.2482 402.0019 171 401.1333 C169.9329 397.3985 170 389.1333 170 389.1333 "/>
<path id="3" d="M149 378.1333 C149 378.1333 139.5347 378.3313 139 379.1333 C138.0236 380.598 138.9981 393.1248 139 393.1333 C139.0006 393.1361 139.7337 389.6107 141 388.1333 C142.0238 386.9389 144.3388 387.2354 145 386.1333 C146.3826 383.829 147.0001 378.1332 147 378.1333 C146.9998 378.1336 141.1713 390.8484 141 392.1333 C140.9946 392.1738 144.9642 393.205 145 393.1333 C145.4118 392.3097 146.1017 383.252 146 382.1333 C145.9983 382.1147 144 382.1333 144 382.1333 "/>
<path id="4" d="M510 390.1333 C510 390.1333 510.9719 394.124 511 394.1333 C511.0121 394.1373 512.2075 391.3495 513 391.1333 C515.531 390.4431 519.1737 390.0028 522 391.1333 C524.6379 392.1885 526.3187 394.6114 528 397.1333 C528.5044 397.8899 528.2895 399.8439 528 400.1333 C527.5175 400.6158 525.9625 401.0179 524 401.1333 C517.7144 401.5031 512.0985 401.8938 511 401.1333 C510.4735 400.7688 510.623 392.6361 511 392.1333 C511.1466 391.9378 515.0672 391.8908 517 393.1333 C520.824 395.5916 524.9546 400.9291 525 401.1333 C525.0015 401.1403 519 402.1333 519 402.1333 "/>
<path id="5" d="M490 398.1333 C490 398.1333 493.1865 411.8369 497 422.1333 C497.5895 423.7251 498.4704 424.6235 500 425.1333 C507.393 427.5977 510.8456 429.9068 518 429.1333 C526.0899 428.2587 533.9678 425.0318 537 421.1333 C539.7363 417.6152 539 402.1333 539 402.1333 "/>
<path id="6" d="M134 169.1333 C134 169.1333 155.0737 167.7259 173 168.1333 C175.3205 168.1861 176.5241 168.6574 178 170.1333 C181.5843 173.7176 182.8623 174.8355 185 180.1333 C193.9106 202.2162 195.2293 204.4111 201 227.1333 C202.8082 234.253 201.5608 235.2819 201 243.1333 C200.5744 249.092 200.8169 249.6826 199 255.1333 C196.9918 261.1578 196.6947 262.0531 193 267.1333 C189.1 272.4958 187.1742 276.3603 183 277.1333 C167.5033 280.0031 154.4117 280.2157 139 277.1333 C134.3765 276.2086 128 266.1333 128 266.1333 "/>
<path id="7" d="M255 165.1333 C255 165.1333 241.3537 165.4565 236 168.1333 C233.519 169.3738 231.655 172.9411 231 177.1333 C229.4597 186.991 231.954 191.865 231 200.1333 C230.8612 201.3362 228.4572 201.6702 228 203.1333 C226.4178 208.1964 226.3891 209.6483 226 216.1333 C224.9009 234.4516 222.7499 251.4666 225 253.1333 C229.8758 256.745 278.9602 257.6151 280 256.1333 C281.4452 254.0739 270.2626 225.6041 265 196.1333 C262.9849 184.8488 266.912 179.3035 265 172.1333 C264.352 169.7035 257 166.1333 257 166.1333 "/>
<path id="8" d="M310 170.1333 C310 170.1333 301.4376 170.1611 297 172.1333 C294.5505 173.222 292.5421 175.3142 292 178.1333 C288.3427 197.1511 288.5286 201.204 287 224.1333 C286.0432 238.4848 285.6066 249.3331 287 253.1333 C287.2418 253.7929 293.8502 254.8656 298 254.1333 C300.5711 253.6796 301.1723 250.6989 304 250.1333 C311.9842 248.5365 322.789 249.9071 323 249.1333 C325.2095 241.032 323.2994 215.7527 322 184.1333 C321.8385 180.2042 321.6301 178.5785 320 176.1333 C318.6027 174.0374 314 172.1333 314 172.1333 "/>
<path id="9" d="M334 249.1333 C334 249.1333 332.5242 208.8967 336 182.1333 C336.5705 177.7408 340.6451 173.2156 344 172.1333 C350.8737 169.916 358.4442 170.4222 367 172.1333 C370.0503 172.7434 373.7872 175.8841 374 178.1333 C376.1717 201.0914 373.1285 213.4522 374 246.1333 C374.0904 249.5232 375.3156 249.7112 376 253.1333 C376.2775 254.5207 376.039 256.1294 376 256.1333 C370.786 256.6547 344.2105 258.1108 336 257.1333 C335.4412 257.0668 334 251.1333 334 251.1333 "/>
<path id="10" d="M393 254.1333 C393 254.1333 388.6034 239.705 390 228.1333 C391.8089 213.1454 396.6829 211.7235 400 196.1333 C401.4579 189.281 401.3883 185.761 400 181.1333 C399.3706 179.0355 393.9738 176.136 394 176.1333 C394.1662 176.1161 418.9558 175.8154 429 178.1333 C430.5905 178.5004 432.8808 182.0933 433 185.1333 C433.7316 203.7897 433.3059 209.149 431 229.1333 C430.5589 232.9564 427.7592 233.3374 427 237.1333 C425.9648 242.3096 427.8803 244.4384 427 249.1333 C426.6653 250.9184 425.2149 252.8093 424 253.1333 C420.4149 254.0893 417.3166 252.0257 412 253.1333 C406.2219 254.3371 403.6982 257.9279 400 258.1333 C398.2597 258.23 394 254.1333 394 254.1333 "/>
<path id="11" d="M454 253.1333 C454 253.1333 456 251.7068 456 251.1333 C456 248.8396 454 246.9815 454 243.1333 C454 213.7911 453.1078 189.1902 456 182.1333 C456.441 181.0573 471.6052 180.5487 479 182.1333 C481.0209 182.5664 483.766 185.5988 484 188.1333 C486.1396 211.312 488.12 227.2786 485 247.1333 C484.3168 251.4812 478.0849 256.4384 473 258.1333 C467.266 260.0447 455 257.1333 455 257.1333 "/>
<path id="12" d="M506 261.1333 C506 261.1333 503.5643 256.9849 504 255.1333 C504.9779 250.9772 509.5186 249.1883 510 244.1333 C512.1634 221.4172 507.702 211.8301 510 192.1333 C510.3896 188.7937 513.9743 185.6462 517 184.1333 C519.4756 182.8955 521.9498 183.2528 526 184.1333 C532.7895 185.6093 536.8314 185.9648 540 189.1333 C543.1686 192.3019 544.1065 196.3427 545 203.1333 C546.463 214.2519 546.6302 215.7218 545 227.1333 C542.7488 242.8921 541.5361 254.9554 537 259.1333 C533.0341 262.7861 507 262.1333 507 262.1333 "/>
<path id="13" d="M598 180.1333 C598 180.1333 570.7323 182.6044 565 185.1333 C564.1188 185.5221 564 190.1686 564 195.1333 C564 220.9501 563.2926 228.0104 565 247.1333 C565.1428 248.7329 568.1257 249.3848 569 251.1333 C569.5828 252.299 568.8867 255.1099 569 255.1333 C573.0277 255.9666 598 257.1333 598 257.1333 "/>
<path id="14" d="M600 368.1333 C600 368.1333 606.6591 366.5481 609 367.1333 C610.0701 367.4009 611.6025 369.2252 612 371.1333 C613.7548 379.5565 615.379 387.6858 614 391.1333 C613.2961 392.893 605.7767 395.378 602 396.1333 C601.2447 396.2844 599 394.1333 599 394.1333 "/>
<path id="15" d="M66 359.1333 C66 359.1333 57.1619 359.8658 56 361.1333 C54.8641 362.3725 54.3569 366.846 55 371.1333 C55.6921 375.7471 57.1793 380.223 59 381.1333 C62.7425 383.0046 77 382.1333 77 382.1333 "/>
</g>
</g>
</svg>
