<?xml version="1.0" encoding="utf-8"?>
<!DOCTYPE svg PUBLIC "-//W3C//DTD SVG 1.1//EN" "http://www.w3.org/Graphics/SVG/1.1/DTD/svg11.dtd">
<svg viewBox="0 0 800 800" preserveAspectRatio="xMinYMin meet" xmlns="http://www.w3.org/2000/svg" version="1.1">
<g fill="none" stroke="black" stroke-linecap="round" stroke-linejoin="round" stroke-width="1.6849">
<g transform="translate(87.52,201.4728) scale(1.7805) translate(-121,-152)">
<path id="0" d="M163 247 L424 247 "/>
<path id="1" d="M179 320 C179 320 175.6857 318.6643 173 319 C164.5429 320.0571 160.4642 319.7215 155 323 C151.3572 325.1857 150.391 328.6203 148 334 C146.7386 336.8381 146.8543 337.6496 147 341 C147.3369 348.7479 146.2118 351.2378 149 357 C152.4985 364.2302 155.4756 366.894 162 372 C165.2564 374.5485 167.1032 374.2655 172 375 C176.6859 375.7029 179.0858 376.4571 182 375 C186.3713 372.8143 190.1693 369.7293 192 365 C194.8738 357.5761 194.5776 353.5302 194 344 C193.6613 338.4119 192.7022 337.4044 190 332 C186.9118 325.8235 185.3839 321.9337 182 320 C179.0391 318.308 169 320 169 320 "/>
<path id="2" d="M171 343 C171 343 170.5536 350.7253 171 351 C172.1786 351.7253 180.0847 351.9788 184 351 C185.2047 350.6988 186.8898 348.4327 187 347 C187.2304 344.0044 186.3245 339.0407 185 338 C183.0185 336.4431 173.875 335.375 173 336 C172.125 336.625 171 348 171 348 "/>
<path id="3" d="M373 322 C373 322 365.0535 330.3833 363 337 C361.4472 342.0035 361.882 346.9404 364 351 C366.1498 355.1204 369.8502 358.2242 375 360 C381.6985 362.3098 388.1981 362.0914 393 361 C394.4492 360.6706 396.4514 357.7432 397 355 C398.1296 349.3522 398.6628 346.7274 397 341 C394.6706 332.9764 393.0756 331.6134 388 324 C385.4254 320.1381 384.0766 318.346 381 317 C378.2482 315.7961 374.2503 315.8749 372 317 C369.8747 318.0626 367 324 367 324 "/>
<path id="4" d="M376 340 C376 340 375.1989 348.1188 376 349 C376.9872 350.086 385.2624 351.4023 386 351 C386.4441 350.7578 387.7168 344.2288 387 343 C386.1624 341.5641 379 339 379 339 "/>
<path id="5" d="M147 334 C147 334 138.6411 329.3277 133 324 C130.4468 321.5886 130.1039 320.6127 129 317 C124.8194 303.3181 123.6967 302.3005 122 288 C120.2937 273.6183 120.3257 272.2314 122 258 C123.2114 247.7031 125.8973 247.5136 128 237 C129.8375 227.8125 127.3567 225.9298 130 218 C132.2848 211.1455 136.006 210.3207 139 204 C139.8197 202.2696 138.2073 200.6986 139 199 C141.1032 194.4931 141.8827 192.1671 146 189 C153.48 183.2461 156.1492 184.7801 165 179 C180.3811 168.9552 181.0632 161.7139 195 157 C209.2707 152.1731 215.3042 157.8433 233 156 C237.8376 155.4961 238.3524 152.0489 243 152 C326.2964 151.1232 337.3099 151.3222 423 154 C428.7702 154.1803 429.7259 155.1232 435 158 C445.6496 163.8089 449.6024 164.1578 456 172 C462.6085 180.1007 464.3051 184.4748 466 196 C468.9279 215.9097 464.0408 219.1017 466 240 C466.9156 249.7664 471.1258 250.2381 472 260 C474.0006 282.3402 475.312 288.0314 472 307 C470.7372 314.2325 466.8158 316.538 461 323 C458.6871 325.5698 457.2802 326.6623 454 327 C426.867 329.7931 393 330 393 330 "/>
<path id="6" d="M201 340 C201 340 269.3322 342.4901 332 340 C341.6817 339.6153 341.9893 336.0535 352 334 C361.1523 332.1226 371 332 371 332 "/>
<path id="7" d="M167 248 C167 248 147.61 246.5557 131 248 C126.2256 248.4152 121 252 121 252 "/>
<path id="8" d="M422 247 C422 247 442.0357 245.8533 460 247 C464.3452 247.2774 469 250 469 250 "/>
<path id="9" d="M168 179 C168 179 170.1634 180.9033 172 181 C187.2105 181.8006 205.3425 179.5755 206 181 C208.646 186.733 202 246 202 246 "/>
<path id="10" d="M217 183 C217 183 264.7401 180.3204 270 183 C271.3651 183.6954 271.4536 197.2082 270 210 C269.0542 218.3233 266.3015 218.6703 265 227 C263.9021 234.0268 265 242 265 242 "/>
<path id="11" d="M215 185 L215 249 "/>
<path id="12" d="M285 183 C285 183 334.0269 180.2459 336 183 C339.5021 187.8884 333 250 333 250 "/>
<path id="13" d="M284 183 L284 241 "/>
<path id="14" d="M356 187 C356 187 381.0459 188.4072 401 188 C402.7926 187.9634 404.9898 185.9332 405 186 C405.453 188.9694 410 247 410 247 "/>
<path id="15" d="M354 190 L357 245 "/>
<path id="16" d="M463 185 C463 185 456.9003 187.5342 451 188 C438.4634 188.9897 425.5138 186.8143 425 188 C422.2638 194.3143 425 248 425 248 "/>
<path id="17" d="M235 279 C235 279 234.3604 277.0801 234 277 C232.0041 276.5565 228.6228 276.1257 226 277 C224.2515 277.5828 222.7034 279.2414 222 281 C221.2463 282.8842 221.4525 286.635 222 287 C224.4182 288.6121 234.9976 288.8725 237 291 C238.5408 292.6371 238.6859 302.6283 238 304 C237.7257 304.5487 232.8719 305.6154 230 305 C227.4706 304.458 224 301 224 301 "/>
<path id="18" d="M258 290 C258 290 249.7971 289.001 247 290 C245.7831 290.4346 244.4986 292.6732 244 295 C243.2048 298.7112 243.005 301.4131 244 304 C244.6548 305.7025 246.7435 307.3057 249 308 C251.8972 308.8914 255.1945 308.7222 257 308 C257.8125 307.675 259 304 259 304 "/>
<path id="19" d="M270 276 L269 291 "/>
<path id="20" d="M276 288 C276 288 277.9625 288.681 278 289 C278.4861 293.1317 278 305 278 305 "/>
<path id="21" d="M278 292 C278 292 275.5089 290 274 290 C271.3595 290 268.8406 290.5275 267 292 C265.3306 293.3355 264.5013 295.1593 264 298 C263.1555 302.7856 264 309 264 309 "/>
<path id="22" d="M297 283 C297 283 294.5397 282.5143 294 283 C291.2837 285.4447 288.9278 287.6625 287 292 C285.4967 295.3825 285.735 298.0845 286 301 C286.0649 301.714 287.1594 302.8319 288 303 C290.8021 303.5604 294.3299 303.9742 296 303 C297.6875 302.0156 299.3103 299.2762 300 296 C301.0554 290.9867 300.8763 285.1393 300 284 C299.3652 283.1748 290 283 290 283 "/>
<path id="23" d="M314 285 C314 285 309.2455 289.0363 309 291 C308.6434 293.8529 310.4159 299.0638 312 301 C312.7516 301.9186 316.3656 302.4903 318 302 C319.491 301.5527 321.5714 299.7142 322 298 C323.0285 293.8858 322.8803 290.6949 322 286 C321.6653 284.2149 320.248 282.416 319 282 C316.408 281.136 310 282 310 282 "/>
<path id="24" d="M329 269 C329 269 330.9322 268.8644 331 269 C331.4406 269.8813 331.8938 272.0269 332 275 C332.387 285.837 332 297 332 297 "/>
<path id="25" d="M360 270 L361 303 "/>
<path id="26" d="M365 269 C365 269 369.2515 269.6886 371 271 C372.1657 271.8743 372.6848 273.1086 373 275 C373.582 278.4919 374.0449 281.3021 373 283 C371.704 285.1061 364.9915 287.994 365 288 C365.0287 288.0205 377.5561 287.2363 380 288 C380.4175 288.1305 381.5232 292.407 381 293 C377.6812 296.7613 371.9088 300.8547 365 305 C363.8088 305.7147 361 305 361 305 "/>
<path id="27" d="M384 283 C384 283 392.9981 300.3317 395 302 C395.2736 302.228 401.2208 299.6696 402 298 C403.1795 295.4726 402.821 290.8311 402 287 C401.7281 285.7313 399.0032 283.9823 399 284 C398.9819 284.0998 399.0017 296.6024 400 298 C400.4362 298.6106 406.3159 299.2631 409 298 C412.5086 296.3489 415.3127 293.7495 417 290 C418.8109 285.9757 418.8385 281.3541 418 278 C417.6253 276.5013 415.4601 275.0251 413 274 C410.2631 272.8596 406.9338 272.4397 406 273 C404.9494 273.6303 402.7722 278.7471 403 280 C403.1733 280.9529 405.4747 283.1582 408 284 C414.7784 286.2595 420.4657 285.0365 424 287 C425.1781 287.6545 425.4718 290.5666 426 294 C426.4337 296.819 426.5865 299.5202 426 300 C424.3927 301.3151 415 303 415 303 "/>
<path id="28" d="M133 246 L145 234 "/>
<path id="29" d="M141 246 L146 237 "/>
<path id="30" d="M146 235 C146 235 145.1933 230.8235 146 228 C146.9384 224.7155 147.5678 223.4322 150 221 C152.8744 218.1256 154.2808 216.9787 158 216 C162.3916 214.8443 167.3145 214.9164 169 216 C170.3462 216.8654 171.5774 220.774 172 225 C172.4953 229.9531 172.6711 232.0312 171 236 C169.3982 239.8042 166.2575 243.4059 164 244 C161.2205 244.7314 156.5906 243.5947 152 241 C146.4184 237.8452 143.8674 235.1708 141 231 C140.0204 229.5751 140.3312 227.2294 141 225 C141.5462 223.1794 142.752 221.416 144 221 C146.592 220.136 153 221 153 221 "/>
<path id="31" d="M157 228 C157 228 160.75 228.25 161 228 C161.25 227.75 161.0227 224.0045 161 224 C160.8753 223.9751 156.1587 226.9683 156 227 C155.9887 227.0023 155.6426 225.5956 156 225 C158.0726 221.5456 162 217 162 217 "/>
<path id="32" d="M162 226 L168 246 "/>
<path id="33" d="M161 230 L156 237 "/>
<path id="34" d="M157 225 L146 228 "/>
</g>
</g>
</svg>
