<?xml version="1.0" encoding="utf-8"?>
<!DOCTYPE svg PUBLIC "-//W3C//DTD SVG 1.1//EN" "http://www.w3.org/Graphics/SVG/1.1/DTD/svg11.dtd">
<svg viewBox="0 0 800 800" preserveAspectRatio="xMinYMin meet" xmlns="http://www.w3.org/2000/svg" version="1.1">
<g fill="none" stroke="black" stroke-linecap="round" stroke-linejoin="round" stroke-width="2.3425">
<g transform="translate(87.52,257.2069) scale(1.2807) translate(-84,-161)">
<path id="0" d="M99 352 L190 352 "/>
<path id="1" d="M198 338 C198 338 190.0948 343.1073 189 347 C186.8163 354.7642 187.2622 361.0213 189 370 C189.6922 373.5763 191.675 375.15 195 378 C197.9555 380.5333 199.1119 381.2523 203 382 C211.066 383.5512 213.9927 384.4498 221 383 C225.9024 381.9857 227.8015 380.1985 232 376 C238.0646 369.9354 240.4908 367.8434 243 361 C244.9775 355.6068 244.4731 351.4013 243 346 C242.1519 342.8901 240.2041 341.2887 237 339 C234.0456 336.8897 232.8993 336.4105 229 336 C214.8836 334.5141 199 335 199 335 "/>
<path id="2" d="M248 353 C248 353 254.1698 350.081 260 350 C323.9039 349.1124 327.4041 353.307 392 351 C409.7442 350.3663 411.9705 348.0074 428 344 C430.017 343.4958 432 341 432 341 "/>
<path id="3" d="M433 334 C433 334 428.2217 339.113 427 344 C424.6096 353.5614 424.1409 356.5496 425 366 C425.451 370.9614 427.0101 372.9229 430 377 C431.7124 379.3351 432.8829 379.5453 436 381 C440.1209 382.9231 440.6729 383.8062 445 384 C472.4758 385.2303 476.0642 384.8551 503 384 C505.3515 383.9253 507.8494 382.693 508 382 C509.0248 377.2859 510.3127 369.62 508 361 C505.4724 351.5791 503.234 350.2155 497 341 C491.9754 333.5723 490.9374 332.5881 485 327 C483.3769 325.4724 482.2665 325 480 325 C465.0411 325 461.8363 324.159 447 327 C440.1823 328.3055 433 334 433 334 "/>
<path id="4" d="M504 348 C504 348 554.641 349.6402 563 346 C564.9389 345.1557 565.7856 333.4331 566 321 C567.275 247.0517 574.8173 178.3163 566 172 C548.8173 159.6913 461.445 175.284 358 172 C304.6276 170.3056 304.3839 164.3621 251 162 C191.8736 159.3838 132 162 132 162 "/>
<path id="5" d="M132 161 C132 161 127.1578 165.6455 124 171 C115.88 184.7687 117.4456 187.3315 109 200 C105.2464 205.6304 102.7239 204.5203 98 210 C90.4668 218.7385 87.1074 221.7495 84 229 C82.9879 231.3616 85.9271 233.5916 86 238 C86.9035 292.6595 86.866 299.771 86 350 C85.9688 351.8094 83.9569 353.9955 84 354 C84.5678 354.0598 105 352 105 352 "/>
<path id="6" d="M87 234 C87 234 184.3878 234.1813 281 238 C310.4761 239.1651 310.6168 243.2617 340 244 C409.5327 245.7471 411.275 244.3745 480 243 C484.9279 242.9014 485.9357 242.9354 490 241 C495.4957 238.383 498.9769 233.9337 501 233 C501.1483 232.9316 503.0106 234.9876 503 235 C502.56 235.5134 494.9829 239.9995 495 240 C495.1674 240.0049 572 237 572 237 "/>
<path id="7" d="M134 165 L134 234 "/>
<path id="8" d="M185 190 C185 190 186.3251 206.2231 186 215 C185.973 215.7292 183.9796 216.9991 184 217 C184.4923 217.0224 226.5796 219.3321 230 217 C231.3722 216.0644 228.6662 188.2811 228 187 C227.9845 186.9703 222.1141 191.4755 217 192 C204.6076 193.271 189 191 189 191 "/>
<path id="9" d="M300 204 C300 204 300.8598 225.9454 303 228 C304.8081 229.7358 323.9027 229.3467 325 228 C326.6527 225.9717 326.4291 202.4291 325 201 C323.7826 199.7826 300 203 300 203 "/>
<path id="10" d="M374 201 C374 201 372.6522 222.0626 374 224 C374.6522 224.9376 384.3957 225.1209 390 224 C391.6813 223.6637 393.6229 221.6971 394 220 C395.08 215.1401 394.8481 206.6596 394 206 C392.5981 204.9096 384.4399 206.9378 376 206 C371.6238 205.5138 367 203 367 203 "/>
<path id="11" d="M451 211 C451 211 448.6237 231.8354 449 232 C450.6197 232.7086 478.7232 228.5221 483 225 C484.86 223.4682 483.9924 205.1785 483 204 C482.4578 203.3561 473.5444 203.8185 467 206 C463.0734 207.3089 462.6395 210.6352 459 212 C456.1595 213.0652 451 212 451 212 "/>
</g>
</g>
</svg>
