<?xml version="1.0" encoding="utf-8"?>
<!DOCTYPE svg PUBLIC "-//W3C//DTD SVG 1.1//EN" "http://www.w3.org/Graphics/SVG/1.1/DTD/svg11.dtd">
<svg viewBox="0 0 800 800" preserveAspectRatio="xMinYMin meet" xmlns="http://www.w3.org/2000/svg" version="1.1">
<g fill="none" stroke="black" stroke-linecap="round" stroke-linejoin="round" stroke-width="1.6513">
<g transform="translate(87.52,223.7758) scale(1.8167) translate(-104,-140)">
<path id="0" d="M133 140 L442 140 "/>
<path id="1" d="M132 142 C132 142 125.5029 168.4912 117 194 C111.58 210.26 104 226 104 226 "/>
<path id="2" d="M104 230 L108 321 "/>
<path id="3" d="M110 319 L151 320 "/>
<path id="4" d="M153 319 C153 319 152.1323 307.1129 154 304 C155.3888 301.6853 159.7352 300.0968 165 299 C170.6837 297.8159 176.8604 297.8604 178 299 C179.6655 300.6655 181 315 181 315 "/>
<path id="5" d="M446 142 L446 293 "/>
<path id="6" d="M185 317 C185 317 274.6156 318.7765 359 317 C366.8003 316.8358 375 313 375 313 "/>
<path id="7" d="M376 315 C376 315 373.5504 300.3487 375 296 C375.6212 294.1363 379.7641 292.1147 384 291 C388.1062 289.9194 390.0369 289.8991 394 291 C397.7209 292.0336 400.4756 293.3322 402 296 C404.9124 301.0966 406 312 406 312 "/>
<path id="8" d="M408 312 L448 313 "/>
<path id="9" d="M447 294 L448 310 "/>
<path id="10" d="M393 142 L395 289 "/>
<path id="11" d="M327 143 L328 317 "/>
<path id="12" d="M136 141 L136 320 "/>
<path id="13" d="M190 144 L190 320 "/>
<path id="14" d="M105 229 L135 230 "/>
<path id="15" d="M193 227 L326 227 "/>
<path id="16" d="M396 226 L446 226 "/>
<path id="17" d="M331 300 C331 300 360.6679 299.0792 372 298 C372.3275 297.9688 373 296 373 296 "/>
<path id="18" d="M144 304 L152 303 "/>
<path id="19" d="M139 291 C139 291 144.1409 288.2858 149 288 C168.5768 286.8484 190 288 190 288 "/>
<path id="20" d="M333 286 C333 286 344.0934 282.7394 355 282 C373.1195 280.7716 392 282 392 282 "/>
<path id="21" d="M233 145 L233 222 "/>
<path id="22" d="M286 145 L285 222 "/>
<path id="23" d="M175 317 C175 317 164.7455 316.385 162 318 C160.1221 319.1046 158.7532 322.9827 158 327 C157.4737 329.8069 158.3677 333.5977 159 334 C160.1591 334.7376 165.3145 335.2899 169 334 C173.5885 332.394 176.7677 330.247 179 327 C180.5586 324.733 180.0965 318.8685 180 318 C179.9976 317.9783 178 318 178 318 "/>
<path id="24" d="M400 314 C400 314 388.797 313.1417 388 314 C386.9322 315.1499 386.2998 327.1831 387 328 C387.5937 328.6926 398.7683 329.0674 400 328 C401.2569 326.9107 402 315 402 315 "/>
<path id="25" d="M128 170 C128 170 239.14 170.3642 336 169 C338.3413 168.967 338.6276 167.0871 341 167 C389.6662 165.2141 445 165 445 165 "/>
<path id="26" d="M228 302 L230 314 "/>
<path id="27" d="M226 301 L299 299 "/>
<path id="28" d="M299 299 L299 312 "/>
<path id="29" d="M177 221 C177 221 174.0892 221.6433 174 222 C173.4395 224.242 173.758 231.669 174 233 C174.008 233.044 176 233 176 233 "/>
<path id="30" d="M383 218 C383 218 378.6308 219.7385 378 221 C377.1972 222.6056 377.6832 227.2608 378 228 C378.0582 228.1358 381 228 381 228 "/>
</g>
</g>
</svg>
