<?xml version="1.0" encoding="utf-8"?>
<!DOCTYPE svg PUBLIC "-//W3C//DTD SVG 1.1//EN" "http://www.w3.org/Graphics/SVG/1.1/DTD/svg11.dtd">
<svg viewBox="0 0 800 800" preserveAspectRatio="xMinYMin meet" xmlns="http://www.w3.org/2000/svg" version="1.1">
<g fill="none" stroke="black" stroke-linecap="round" stroke-linejoin="round" stroke-width="2.3618">
<g transform="translate(87.52,251.3815) scale(1.2702) translate(-10,-104.4167)">
<path id="0" d="M22 153.4167 C22 153.4167 14.1127 307.658 21 327.4167 C21.8968 329.9895 77.2726 331.0457 83 328.4167 C84.1458 327.8907 80.7148 312.2685 82 299.4167 C82.5114 294.3026 83.6241 292.5033 87 288.4167 C92.2579 282.0519 94.3679 278.7974 101 276.4167 C110.3166 273.0723 113.6164 274.7263 126 274.4167 C133.403 274.2316 135.5194 273.9744 141 275.4167 C142.8143 275.8941 143.4264 277.2137 145 279.4167 C148.2783 284.0062 149.574 284.361 151 289.4167 C154.7087 302.5659 154.4926 318.2139 156 318.4167 C192.9399 323.3862 343.382 325.623 374 319.4167 C375.8731 319.037 373.9008 293.5712 378 273.4167 C379.2808 267.1193 381.454 264.3427 386 260.4167 C390.5352 256.4999 393.5214 255.6626 400 254.4167 C405.048 253.4459 407.1208 253.7903 412 255.4167 C416.3517 256.8672 419.1102 258.1771 421 261.4167 C424.5135 267.4399 424.5691 270.4224 426 279.4167 C428.0036 292.0109 426.4675 304.842 428 305.4167 C437.1787 308.8587 480.0042 306.6701 498 306.4167 C498.2644 306.4129 498.7863 305.4316 499 304.4167 C500.7043 296.3214 501.7575 295.8234 502 287.4167 C503.2348 244.6117 506.9452 232.8693 502 200.4167 C500.8383 192.7929 493.1076 191.9512 486 182.4167 C472.7867 164.6915 474.359 163.0391 461 145.4167 C451.0491 132.29 448.3333 132.9807 439 120.4167 C436.0717 116.4747 436.3479 110.6304 435 110.4167 C416.0622 107.4143 395.9804 107.7142 357 107.4167 C199.6255 106.2153 198.7567 108.7758 42 107.4167 C26.5602 107.2828 12.4664 102.9045 11 104.4167 C8.9967 106.4826 8.3073 123.4897 10 140.4167 C11.1646 152.0628 17 164.4167 17 164.4167 "/>
<path id="1" d="M445 185.4167 C445 185.4167 446.1407 210.9517 444 235.4167 C442.6954 250.3264 439.078 250.8636 438 265.4167 C437.1554 276.8184 437.2136 283.844 440 289.4167 C441.3932 292.203 446.6423 294.311 453 295.4167 C468.0971 298.0422 478.4409 299.0081 486 297.4167 C487.6486 297.0696 490.4128 292.198 491 287.4167 C493.6137 266.1337 493.2538 263.7636 493 240.4167 C492.7567 218.0367 493.4195 198.6224 490 195.4167 C486.5947 192.2242 458.541 196.281 445 195.4167 C444.3406 195.3746 443 192.4167 443 192.4167 "/>
<path id="2" d="M467 198.4167 C467 198.4167 468.2327 232.9562 467 265.4167 C466.7771 271.2857 464.6113 271.5071 464 277.4167 C463.1558 285.5774 464 294.4167 464 294.4167 "/>
<path id="3" d="M50 125.4167 C50 125.4167 46.2397 184.8564 50 187.4167 C58.4949 193.2004 135.6117 193.2461 144 189.4167 C145.6299 188.6726 144.0309 167.1761 142 145.4167 C140.5538 129.9212 139.3676 115.2829 137 114.4167 C125.8968 110.3545 75.3471 113.1146 60 115.4167 C59.075 115.5554 58.6322 124.6361 57 126.4167 C56.0108 127.4958 49.5581 127.018 49 127.4167 C48.8811 127.5016 50 131.4167 50 131.4167 "/>
<path id="4" d="M162 125.4167 C162 125.4167 157.6289 194.8403 162 198.4167 C168.3803 203.6369 215.0946 200.6223 250 197.4167 C254.2535 197.026 258.6904 192.8217 260 189.4167 C261.9899 184.2429 261.501 179.4222 260 171.4167 C258.7387 164.6898 255.8148 164.5362 254 157.4167 C249.4676 139.6357 250.6405 138.164 247 120.4167 C246.7911 119.3985 246.3222 118.4569 246 118.4167 C242.1334 117.9333 238.0105 117.5404 231 118.4167 C226.6184 118.9644 226.2857 121.2959 222 121.4167 C192.7645 122.2402 160 120.4167 160 120.4167 "/>
<path id="5" d="M292 120.4167 C292 120.4167 291.4831 180.2232 292 201.4167 C292.0067 201.6911 293.0984 202.4077 294 202.4167 C337.9591 202.8563 385.4693 207.8358 392 202.4167 C396.0466 199.0589 393.48 128.8121 388 124.4167 C380.4918 118.3945 296 125.4167 296 125.4167 "/>
<path id="6" d="M412 124.4167 C412 124.4167 407.2486 181.6899 411 186.4167 C413.5421 189.6198 442.1402 188.4806 462 187.4167 C464.0326 187.3078 467.0738 183.5959 467 183.4167 C466.318 181.7604 461.0737 174.8339 455 170.4167 C451.5514 167.9086 448.4884 170.0007 445 167.4167 C436.5538 161.1602 436.5118 157.2261 428 150.4167 C425.1071 148.1024 422.9121 149.6007 420 147.4167 C415.8094 144.2737 414.7916 142.7591 412 138.4167 C410.8862 136.6841 411 133.4167 411 133.4167 "/>
<path id="7" d="M122 284.4167 C122 284.4167 117.6751 282.6101 116 283.4167 C107.5795 287.471 103.4638 289.8933 95 297.4167 C91.2321 300.7659 90.1578 302.6202 89 307.4167 C87.0541 315.4781 86.6206 320.6693 88 326.4167 C88.5647 328.7695 91.439 331.2297 95 332.4167 C107.2655 336.5052 114.5234 339.9961 124 338.4167 C131.2202 337.2133 139.1082 330.903 143 324.4167 C146.4015 318.7475 146.8096 310.0519 145 303.4167 C143.673 298.5509 139.7045 295.2197 134 291.4167 C129.2963 288.2809 121 287.4167 121 287.4167 "/>
<path id="8" d="M409 273.4167 C409 273.4167 400.0834 273.2381 395 275.4167 C391.5784 276.8831 390.841 278.7234 388 282.4167 C386.0943 284.8941 385.5332 285.5727 385 288.4167 C384.1874 292.7504 384.24 293.8566 385 298.4167 C385.646 302.2927 385.8897 303.4622 388 306.4167 C390.2887 309.6208 391.3663 310.9363 395 312.4167 C403.4787 315.8709 412.374 318.257 415 317.4167 C416.3073 316.9983 419.5585 310.45 420 304.4167 C420.92 291.8435 420.506 284.6866 418 276.4167 C417.3496 274.2704 413.8237 272.2991 410 271.4167 C402.3847 269.6593 395.6887 269.3628 392 270.4167 C390.9588 270.7141 389 277.4167 389 277.4167 "/>
</g>
</g>
</svg>
