<?xml version="1.0" encoding="utf-8"?>
<!DOCTYPE svg PUBLIC "-//W3C//DTD SVG 1.1//EN" "http://www.w3.org/Graphics/SVG/1.1/DTD/svg11.dtd">
<svg viewBox="0 0 800 800" preserveAspectRatio="xMinYMin meet" xmlns="http://www.w3.org/2000/svg" version="1.1">
<g fill="none" stroke="black" stroke-linecap="round" stroke-linejoin="round" stroke-width="1.1953">
<g transform="translate(92.5398,87.52) scale(2.5099) translate(-225,-128)">
<path id="0" d="M281,130C281,130 273.05049622407216,127.9747518879639 271,129C268.73366206813074,130.13316896593463 267.14686314985846,133.43791580655076 265,138C263.3765014986145,141.4499343154442 263.12077176761585,142.13530343629213 263,146C262.6409614505373,157.4892335828059 261.8967286515603,160.3850452642755 264,170C264.8087417572065,173.69710517580114 266.89734574020673,175.4144547835056 270,178C271.87792231513805,179.56493526261502 273.08435071628133,179.69308954908226 276,180C282.1030963820213,180.64243119810752 283.36204394597706,181.3608859440745 289,180C296.6718075748376,178.14818437848748 303.55907903112483,176.0513620517356 305,173C307.91758997705443,166.82157416623764 308.84135822331376,153.61690475583123 306,144C304.1057611844575,137.5887301627792 298.37244847257744,134.09795877806195 292,129C290.333359630249,127.66668770419919 287.3455869420678,127.66360326448304 286,128C285.35645841901106,128.16088539524725 284.007051775908,131 284,131C284,131 284,128 284,128"/>
<path id="1" d="M284,128L284,128"/>
<path id="2" d="M283,183C283,183 284.2590705615756,199.51223011118517 287,214C287.5668475349252,216.99619411317616 289.8264297212698,217.19394716052835 290,220C292.5587151922811,261.3658956085446 292.9999998869622,310.9999966465458 293,311C293.0000000024816,311.00000007362047 292.8289010712404,309.0805171429457 293,309C296.6037711869993,307.30410767670616 309.9981680052696,302.9948896989099 310,303C311.15965266434705,306.2348205900208 312,362 312,362"/>
<path id="3" d="M292,303C292,303 291.3572654135517,328.4740661651033 290,352C289.9155030537374,353.46461373521873 289.1159183177492,355 289,355C288.0726534580061,355 281,352 281,352"/>
<path id="4" d="M313,363L321,364"/>
<path id="5" d="M292,236C292,236 291.9,237.95 292,238C292.4,238.2 294.24461355463256,238.5015389843907 296,238C307.53539664098616,234.70417238828966 320,230 320,230"/>
<path id="6" d="M293,224C293,224 304.468857255733,224.152193522899 314,222C318.94472819063475,220.88344847308247 324,217 324,217"/>
<path id="7" d="M317,221C317,221 316.5985883494711,209.7633879612694 319,204C320.3914721713345,200.66046678879718 324.63771772573693,197.62994193980347 327,197C328.48440710477336,196.60415810539376 333.95636073067845,199.17630879155607 334,200C335.91669843802,236.17768301762743 335,348 335,348"/>
<path id="8" d="M291,148C291,148 291.1,146.05 291,146C290.6,145.8 287.32,145.76 287,146C286.82,146.135 287,149 287,149C287.08,149 291,146 291,146"/>
<path id="9" d="M295,161C295,161 304.78558394160586,161.44160583941607 306,161C306.16058394160586,160.94160583941607 306,157 306,157"/>
<path id="10" d="M306,157L306,157"/>
<path id="11" d="M320,216C320,216 321.7384664337356,211.6307667831322 323,211C324.6055881752456,210.1972059123772 329.4206081081081,210.58614864864864 330,211C330.2956081081081,211.21114864864864 330,216 330,216"/>
<path id="12" d="M331,215L333,353"/>
<path id="13" d="M335,354L335,348"/>
<path id="14" d="M335,348L335,348"/>
<path id="15" d="M225,372C225,372 249.21864241897896,371.98320763138696 271,374C274.90387603797774,374.36147000351644 279,377 279,377"/>
<path id="16" d="M317,377C317,377 334.77127418836346,370.18392299020746 352,368C369.1615834663067,365.8245880113132 388,368 388,368"/>
<path id="17" d="M410,370C410,370 421.95463258995323,371.4727156546729 433,370C451.2808834525701,367.56254887299064 470,362 470,362"/>
<path id="18" d="M470,362L470,362"/>
</g>
</g>
</svg>
