<?xml version="1.0" encoding="utf-8"?>
<!DOCTYPE svg PUBLIC "-//W3C//DTD SVG 1.1//EN" "http://www.w3.org/Graphics/SVG/1.1/DTD/svg11.dtd">
<svg viewBox="0 0 800 800" preserveAspectRatio="xMinYMin meet" xmlns="http://www.w3.org/2000/svg" version="1.1">
<g fill="none" stroke="black" stroke-linecap="round" stroke-linejoin="round" stroke-width="1.6129">
<g transform="translate(205.63,87.52) scale(1.86) translate(-175,-112.1333)">
<path id="0" d="M242 186.1333 C242 186.1333 239.9147 161.6388 242 141.1333 C242.677 134.4758 243.8307 131.803 248 127.1333 C254.6694 119.6636 258.072 116.5672 267 113.1333 C274.4635 110.2628 279.7171 109.7057 287 112.1333 C298.2329 115.8776 309.6621 121.5873 312 128.1333 C317.0643 142.3133 314.183 157.7567 312 182.1333 C311.4527 188.2443 306 195.1333 306 195.1333 "/>
<path id="1" d="M241 191.1333 C241 191.1333 233.6048 194.3888 232 198.1333 C225.0319 214.3923 222.778 219.53 220 240.1333 C217.0066 262.3342 218.8103 266.1162 220 287.1333 C220.1562 289.8923 223 293.1333 223 293.1333 "/>
<path id="2" d="M302 203.1333 C302 203.1333 301.4863 218.9705 305 231.1333 C307.4209 239.5134 308.9374 241.1234 315 248.1333 C324.2249 258.7996 325.3466 259.7733 337 268.1333 C347.6846 275.7984 361 281.1333 361 281.1333 "/>
<path id="3" d="M282 236.1333 C282 236.1333 282.9862 250.4199 288 258.1333 C294.001 267.3657 297.561 268.3786 308 276.1333 C314.5512 280.9999 315.3102 281.5118 323 284.1333 C336.6149 288.7748 352 291.1333 352 291.1333 "/>
<path id="4" d="M352 293.1333 C352 293.1333 352.4981 296.9242 353 297.1333 C355.1489 298.0287 359.9221 296.9682 364 298.1333 C365.3937 298.5315 365.7143 300.8119 367 301.1333 C370.0856 301.9047 373.469 301.8236 376 301.1333 C376.7925 300.9172 378.0625 298.4458 378 298.1333 C377.9375 297.8208 374.998 296.134 375 296.1333 C375.0049 296.1317 379.6405 297.5865 381 297.1333 C382.0396 296.7868 384 294.4627 384 293.1333 C384 289.1451 382.245 281.6811 381 281.1333 C377.7582 279.707 359 282.1333 359 282.1333 "/>
<path id="5" d="M216 231.1333 C216 231.1333 204.5663 237.816 198 246.1333 C190.7001 255.3799 186 269.1333 186 269.1333 "/>
<path id="6" d="M185 274.1333 C185 274.1333 179.0238 279.9668 179 280.1333 C178.999 280.1403 182.46 280.1708 184 281.1333 C185.5058 282.0745 186.1975 284.955 187 285.1333 C188.1465 285.3881 190.4123 283.1333 193 283.1333 C196.8816 283.1333 199.975 285.3174 202 285.1333 C202.5219 285.0859 203.1842 282.4053 204 282.1333 C205.9035 281.4988 210.3683 282.8282 211 282.1333 C212.3626 280.6344 214.1794 273.6449 214 271.1333 C213.9453 270.3682 210.416 269.3813 210 268.1333 C209.136 265.5413 208.8276 262.6504 210 259.1333 C211.8671 253.532 217 247.1333 217 247.1333 "/>
<path id="7" d="M220 291.1333 C220 291.1333 222.0919 295.16 225 297.1333 C235.2012 304.0556 236.971 306.7767 248 310.1333 C257.5348 313.0352 261.8967 312.5557 271 311.1333 C274.9601 310.5146 276.4607 308.6726 280 305.1333 C284.955 300.1784 285.1487 299.3917 289 293.1333 C293.0202 286.6005 294.2111 285.7777 296 279.1333 C297.3514 274.1139 296 267.1333 296 267.1333 "/>
<path id="8" d="M287 299.1333 C287 299.1333 289.1249 306.278 293 309.1333 C314.6182 325.0625 327.2378 324.9299 344 341.1333 C350.9831 347.8837 350.185 354.0635 353 367.1333 C357.0381 385.8817 358 406.1333 358 406.1333 "/>
<path id="9" d="M345 411.1333 C345 411.1333 331.1983 406.8642 331 407.1333 C330.2778 408.1135 330.334 421.8082 331 430.1333 C331.0625 430.9152 332.2369 432.0952 333 432.1333 C346.808 432.8237 358.3422 434.8265 371 432.1333 C374.7066 431.3447 378.6513 425.7941 380 422.1333 C380.8369 419.8616 379.4128 413.9484 378 413.1333 C372.6059 410.0213 363.0927 410.501 354 407.1333 C352.446 406.5578 352.2098 404.1011 351 403.1333 C350.6098 402.8211 349.0308 403.0409 349 403.1333 C348.5684 404.428 347.4985 410.2945 348 412.1333 C348.1776 412.7846 350.1318 413.9367 352 414.1333 C358.6554 414.8339 365.1578 414.379 367 414.1333 C367.0328 414.129 367 412.1333 367 412.1333 "/>
<path id="10" d="M331 409.1333 C331 409.1333 332.4539 402.288 331 397.1333 C327.3529 384.2026 327.5556 376.5741 320 370.1333 C304.1606 356.6309 270 345.1333 270 345.1333 "/>
<path id="11" d="M229 302.1333 C229 302.1333 224.4965 307.4169 224 312.1333 C221.7783 333.2394 228.4791 341.3262 223 359.1333 C218.59 373.4659 212.3191 375.919 200 390.1333 C193.26 397.9103 184 404.1333 184 404.1333 "/>
<path id="12" d="M189 415.1333 C189 415.1333 185.3258 404.6529 183 402.1333 C182.3052 401.3806 177.8316 401.5096 177 402.1333 C176.0991 402.809 175.0618 405.2901 175 408.1333 C174.5911 426.9416 174.1271 444.2889 176 448.1333 C176.3594 448.8711 192.2004 448.333 194 447.1333 C194.707 446.662 195.1408 439.7839 194 436.1333 C193.3194 433.9554 189.4831 433.2589 189 431.1333 C187.6617 425.2448 189 414.1333 189 414.1333 "/>
<path id="13" d="M195 447.1333 C195 447.1333 200.9522 447.3165 201 447.1333 C201.7022 444.4415 202.3588 431.4707 201 424.1333 C200.709 422.5619 196.2228 421.4701 196 420.1333 C195.37 416.3535 198.7959 409.9138 198 406.1333 C197.6329 404.3896 192 401.1333 192 401.1333 "/>
<path id="14" d="M205 427.1333 C205 427.1333 209.7639 421.7159 215 418.1333 C218.8034 415.531 220.8053 417.0086 224 414.1333 C234.5729 404.6177 235.6961 403.1383 245 391.1333 C250.863 383.5681 252.2691 382.0529 255 374.1333 C256.6026 369.4858 253.1927 366.0261 255 362.1333 C258.3188 354.985 268 346.1333 268 346.1333 "/>
<path id="15" d="M287 274.1333 L284 283.1333 "/>
<path id="16" d="M240 319.1333 C240 319.1333 234.7062 322.0148 234 324.1333 C232.6885 328.0678 232.944 336.0019 234 337.1333 C235.2239 338.4447 246.9409 339.7688 248 339.1333 C248.6288 338.756 248.6772 333.6211 249 328.1333 C249.1751 325.1559 249.4482 322.4819 249 322.1333 C248.061 321.403 240 321.1333 240 321.1333 "/>
<path id="17" d="M269 324.1333 C269 324.1333 271.6651 332.6225 274 334.1333 C276.5744 335.7991 282.1357 335.8579 286 335.1333 C287.5539 334.842 289.0137 332.8594 290 331.1333 C290.4708 330.3095 290.537 328.8851 290 328.1333 C286.7527 323.5871 284.699 321.161 280 317.1333 C278.8253 316.1264 277.3114 315.8419 276 316.1333 C274.0329 316.5705 271 319.1333 271 319.1333 "/>
<path id="18" d="M189 270.1333 L209 270.1333 "/>
<path id="19" d="M212 257.1333 L192 259.1333 "/>
<path id="20" d="M196 259.1333 L193 265.1333 "/>
<path id="21" d="M203 262.1333 L202 266.1333 "/>
<path id="22" d="M348 277.1333 L339 287.1333 "/>
<path id="23" d="M361 285.1333 L349 291.1333 "/>
<path id="24" d="M346 284.1333 C346 284.1333 346.9404 286.6035 348 287.1333 C350.7247 288.4957 356 289.1333 356 289.1333 "/>
<path id="25" d="M352 283.1333 L362 283.1333 "/>
<path id="26" d="M313 141.1333 C313 141.1333 314.8003 151.482 313 159.1333 C311.2115 166.7346 306.4808 167.5443 305 175.1333 C302.8919 185.9372 305 200.1333 305 200.1333 "/>
</g>
</g>
</svg>
