<?xml version="1.0" encoding="utf-8"?>
<!DOCTYPE svg PUBLIC "-//W3C//DTD SVG 1.1//EN" "http://www.w3.org/Graphics/SVG/1.1/DTD/svg11.dtd">
<svg viewBox="0 0 800 800" preserveAspectRatio="xMinYMin meet" xmlns="http://www.w3.org/2000/svg" version="1.1">
<g fill="none" stroke="black" stroke-linecap="round" stroke-linejoin="round" stroke-width="2.0353">
<g transform="translate(217.2287,87.52) scale(1.474) translate(-198,-47)">
<path id="0" d="M293 49 C293 49 275.8332 48.8293 261 51 C256.5971 51.6443 255.2553 52.2587 252 55 C246.7085 59.456 244.7137 61.3259 242 67 C240.144 70.8807 240.1469 73.2229 241 78 C242.4246 85.9777 242.9053 87.7741 247 95 C250.8605 101.8127 252.1279 102.7151 258 108 C261.4922 111.143 267 113 267 113 "/>
<path id="1" d="M287 47 C287 47 297.2475 55.0792 302 63 C305.0036 68.006 304.5589 70.089 305 77 C306.0258 93.0703 306.1901 103.0576 305 110 C304.8908 110.6371 301.43 112 299 112 C296.57 112 293 110 293 110 "/>
<path id="2" d="M267 113 L265 143 "/>
<path id="3" d="M293 110 C293 110 292.7155 127.3638 291 138 C290.789 139.3083 288 141 288 141 "/>
<path id="4" d="M264 141 C264 141 260 135.9999 260 136 C260 136.0001 263.9317 142.7611 264 143 C264.0048 143.0168 262.3895 143.3245 262 143 C260.4097 141.6748 260.2474 139.5559 258 138 C254.4551 135.5458 249 134 249 134 "/>
<path id="5" d="M252 134 C252 134 252.8592 139.3602 252 144 C250.4598 152.3172 250.3198 152.9219 247 161 C235.4536 189.0963 222 217 222 217 "/>
<path id="6" d="M223 215 C223 215 219.8959 222.4808 216 228 C214.365 230.3163 212.0566 230.0629 211 232 C209.8149 234.1727 210.8126 237.6998 210 239 C209.627 239.5968 206.0475 239.7153 206 240 C205.5207 242.8756 205.6212 255.8182 207 257 C208.8468 258.5829 224.7547 258.1123 227 258 C227.0113 257.9994 227 256 227 256 "/>
<path id="7" d="M216 244 C216 244 214.9325 250.9343 214 252 C213.5816 252.4782 209 252 209 252 "/>
<path id="8" d="M227 247 C227 247 222.2298 249.0675 221 251 C219.7988 252.8875 220 258 220 258 "/>
<path id="9" d="M213 241 L210 246 "/>
<path id="10" d="M208 246 L205 247 "/>
<path id="11" d="M229 258 C229 258 229.573 251.2892 229 250 C228.801 249.5524 225 249 225 249 "/>
<path id="12" d="M226 253 C226 253 225.9694 251.0153 226 251 C226.0458 250.9771 227.2271 251.3237 228 252 C231.0245 254.6464 231.4286 256.4572 234 258 C235.0714 258.6428 237.5293 258.3766 238 258 C238.4942 257.6046 239.3332 254.3665 239 254 C237.1676 251.9844 232.5031 250.9402 228 247 C225.0746 244.4403 223 240 223 240 "/>
<path id="13" d="M267 179 C267 179 267.9685 185.1575 267 190 C266.1372 194.3142 265.6757 195.1977 263 199 C256.5331 208.1898 254.0058 207.8333 248 217 C245.0604 221.4868 247.0333 223.905 244 228 C237.9495 236.1682 235.8862 237.2404 228 244 C226.218 245.5274 223 246 223 246 "/>
<path id="14" d="M272 180 C272 180 271.5512 217.7086 269 253 C268.644 257.9246 266.4306 258.1198 266 263 C264.9932 274.4104 266 287 266 287 C266 287 266 285 266 285 C266.0744 285 269.004 286.9879 269 287 C268.9906 287.0281 265 288 265 288 "/>
<path id="15" d="M266 178 C266 178 270.9926 180.9889 271 181 C271.0023 181.0035 268 181 268 181 "/>
<path id="16" d="M288 143 L317 143 "/>
<path id="17" d="M316 142 C316 142 333.0183 152.4082 344 164 C349.336 169.6325 347.2472 172.625 352 180 C361.5555 194.8274 364.3764 202.5876 373 209 C376.6468 211.7118 390.8144 209.0371 391 209 C391.0247 208.9951 387.9733 206.004 388 206 C388.2412 205.9638 411 206 411 206 "/>
<path id="18" d="M413 207 C413 207 418.9854 206.9902 419 207 C419.0041 207.0027 415.985 208.9251 416 209 C416.0407 209.2033 419.511 210.6308 420 212 C421.254 215.5112 421.7272 218.6368 421 223 C420.4854 226.0878 418.8405 229.0797 417 230 C413.9325 231.5338 405 231 405 231 "/>
<path id="19" d="M410 217 C410 217 417.4419 216.3987 418 216 C418.1189 215.915 417 212 417 212 "/>
<path id="20" d="M412 212 C412 212 418.5539 211.4461 419 211 C419.223 210.777 418 206 418 206 "/>
<path id="21" d="M408 224 L417 226 "/>
<path id="22" d="M408 231 L367 230 "/>
<path id="23" d="M370 234 L315 179 "/>
<path id="24" d="M317 182 C317 182 321.8148 222.0734 323 260 C323.2714 268.6858 320 278 320 278 "/>
<path id="25" d="M270 287 C270 287 269.6552 308.7242 269 312 C268.9792 312.104 265.2201 311.6919 265 312 C264.4058 312.8319 264.1663 315.5067 264 319 C263.1728 336.3722 263 354 263 354 "/>
<path id="26" d="M265 355 C265 355 248.1071 377.3977 234 401 C222.2927 420.5873 223.9131 423.0031 213 442 C211.0572 445.382 209.6228 446.6886 207 448 C205.2515 448.8743 201 448 201 448 "/>
<path id="27" d="M198 448 C198 448 204.7862 454.5029 212 457 C229.3294 462.9986 231.6693 463.1246 250 466 C255.9734 466.937 262.9583 464.9844 263 465 C263.0115 465.0043 258 468.9938 258 469 C258 469.0016 262.7496 468.5007 263 468 C263.6438 466.7124 264.2039 461.7518 263 459 C261.654 455.9234 259.6747 455.0622 256 452 C253.8525 450.2104 253.3175 449.4345 251 449 C246.417 448.1407 242.2527 449.8664 240 449 C239.1966 448.691 237.6809 444.4786 238 444 C239.1894 442.216 244.3933 441.031 248 437 C252.1304 432.3837 250.7812 430.2416 255 425 C266.9446 410.1597 269.7498 410.7659 281 396 C285.0501 390.6843 287.0365 383.2007 287 383 C286.9983 382.9908 279 385 279 385 "/>
<path id="28" d="M292 305 C292 305 298.5118 311.5605 299 317 C301.5513 345.4288 300.7827 357.3293 299 383 C298.8286 385.4688 296.4067 387.5961 294 389 C291.8528 390.2525 288.1036 390.2759 287 390 C286.7139 389.9285 286 387 286 387 "/>
<path id="29" d="M293 301 C293 301 303.1367 301.7914 308 306 C326.0209 321.595 326.4198 327.4198 345 346 C348.1369 349.1369 351.1567 348.3189 353 351 C355.2931 354.3355 356 362 356 362 "/>
<path id="30" d="M357 362 C357 362 356.9885 358.9885 357 359 C357.1722 359.1722 370.5011 372.0925 378 383 C379.6949 385.4653 377.5064 387.8884 379 391 C382.9241 399.1752 386.388 399.2887 390 408 C394.4374 418.7019 395.6818 431.3636 396 432 C396.0236 432.0471 400 428 400 428 "/>
<path id="31" d="M374 347 C374 347 384.4963 355.9089 392 366 C398.5293 374.7808 399.4372 376.1338 403 386 C405.4853 392.8824 403.0835 394.6078 405 402 C406.4266 407.5027 408.8176 408.2706 410 413 C410.4585 414.8339 408.9612 417.9966 409 418 C411.4184 418.2134 435.5316 415.5422 444 416 C444.5379 416.0291 445.9153 418.2204 446 420 C446.3508 427.3666 446.3449 429.6032 445 437 C444.5659 439.3873 443.2419 441.4826 442 442 C439.8013 442.9161 437.0063 441.1566 433 442 C428.1737 443.0161 425.9552 445.7889 423 446 C421.9123 446.0777 420.7188 443.1611 419 443 C407.7588 441.9461 395.5067 444.5022 391 443 C390.1416 442.7139 388.9871 433.1029 389 433 C389.0021 432.9828 391.9714 435.0191 392 435 C392.0458 434.9695 392.0705 431.1058 392 431 C391.9941 430.9912 389.999 432 390 432 C390.0043 432 399 431 399 431 "/>
<path id="32" d="M321 275 C321 275 347.5883 303.2973 370 332 C375.2339 338.7031 376.5115 343.2863 378 348 C378.1903 348.6026 376.5502 350.7799 376 351 C375.553 351.1788 373 350 373 350 "/>
<path id="33" d="M297 68 C297 68 296.2784 65.0506 296 65 C294.231 64.6784 286.91 65.181 286 66 C285.3989 66.541 286 74 286 74 "/>
<path id="34" d="M293 76 C293 76 292.8105 73.0948 293 73 C294.0739 72.463 300.9146 71.8975 301 72 C301.0678 72.0814 298.0536 78.9786 298 79 C298 79 296 74 296 74 "/>
<path id="35" d="M306 93 L302 94 "/>
<path id="36" d="M299 93 L307 95 "/>
<path id="37" d="M415 221 L424 223 "/>
<path id="38" d="M255 452 C255 452 252.1969 456.155 250 457 C247.4613 457.9764 242.7191 456.5506 242 457 C241.7191 457.1756 241.9993 461.9987 242 462 C242.0003 462.0007 242.962 458.9946 243 459 C243.4371 459.0624 249 463 249 463 "/>
<path id="39" d="M257 459 C257 459 251 460 251 460 C251 460 257.9305 457.9305 258 458 C258.0695 458.0695 255.8213 464.2854 256 465 C256.055 465.2199 258.9306 466.1782 260 466 C260.6509 465.8915 262.0396 464.0791 262 464 C261.7428 463.4856 258.5539 460.3108 257 460 C255.7676 459.7535 252.3679 461.6321 252 462 C251.9474 462.0526 252.98 464 253 464 C253.02 464 253.7508 462.0498 254 462 C254.6764 461.8647 257.9914 463.0172 258 463 C258.0344 462.9313 256.4375 458.1875 256 458 C255.5625 457.8125 250.9999 460 251 460 C251.0002 460 259.9893 458.0142 260 458 C260.003 457.9959 254.0013 456.0013 254 456 C253.9993 455.9993 256.2541 455.709 258 456 C258.9457 456.1576 259.8913 456.6196 260 457 C260.4149 458.4523 260.225 462.325 260 463 C259.975 463.075 258 463 258 463 "/>
<path id="40" d="M247 462 C247 462 244.9997 462.0003 245 462 C245.0007 461.9993 247.9788 461.1909 248 461 C248.1237 459.8867 246.0005 453.0007 246 453 C245.9997 452.9996 246.0007 457.9987 246 458 C245.9997 458.0007 244.9947 454.9979 245 455 C245.0193 455.0077 248.6969 457.1654 251 460 C254.892 464.7902 258 471 258 471 "/>
<path id="41" d="M438 420 C438 420 427.3312 423.7006 426 426 C424.7229 428.2059 427.1053 437.631 427 439 C426.9987 439.0163 425 439 425 439 C425 439 429.7479 439.819 432 439 C433.7549 438.3619 435.1123 436.9529 436 435 C437.1373 432.4979 437.0069 427.9988 437 428 C436.9734 428.0044 431.8862 432.497 430 436 C429.1987 437.4882 429.9893 441.0015 430 441 C430.1174 440.9832 436.7624 435.7919 437 435 C437.0821 434.7263 434.7485 431.8743 433 431 C431.8343 430.4172 429.9028 431.3611 429 431 C428.5938 430.8375 427.9771 429.0458 428 429 C428.0153 428.9694 430.0075 429.0131 430 429 C429.9315 428.8802 424 422 424 422 "/>
<path id="42" d="M437 422 C437 422 440.2643 424.0873 441 426 C442.2465 429.241 442.7833 431.867 442 435 C441.2615 437.954 437.7279 441.7816 437 442 C436.6104 442.1169 432.4929 439.4787 432 438 C431.3331 435.9994 431.6273 431.6015 433 430 C435.3911 427.2104 438.9963 426.3094 444 424 C444.7268 423.6646 445.9904 423.9519 446 424 C446.2404 425.2019 446.987 430.2988 446 434 C445.4012 436.2454 443.4312 438.4275 442 439 C440.6642 439.5343 436.5144 438.6002 436 438 C435.4975 437.4138 435.1298 433.1602 436 432 C437.8491 429.5346 444.8438 425.9479 445 426 C445.0669 426.0223 445.7714 431.9144 445 435 C444.6786 436.2857 442.579 438 442 438 C441.0351 438 437 435.4004 437 435 C437 433.7988 441.6695 427.1018 442 426 C442.0126 425.958 440.0318 424.9575 440 425 C438.8377 426.5498 433 438 433 438 C433 438 434.0441 433.3905 436 431 C437.843 428.7474 441.7017 427.4474 442 427 C442.0249 426.9627 440.0575 424.9641 440 425 C439.205 425.4969 434.0551 431.9725 434 432 C433.9884 432.0058 434 428 434 428 "/>
<path id="43" d="M434 428 C434 428 439.995 421.0012 440 421 C440.0022 420.9994 437.9987 427.0007 438 427 C438.0026 426.9987 444 420.3028 444 419 C444 418.0229 440.6033 414.42 438 413 C436.5963 412.2343 434.5209 412.324 433 413 C431.2425 413.7811 429.7034 415.2414 429 417 C428.2463 418.8842 428.2463 421.1158 429 423 C429.7034 424.7586 431.2425 426.2189 433 427 C434.5209 427.676 436.9691 427.6443 438 427 C439.2628 426.2107 441.0661 422.1982 441 422 C440.956 421.8679 436.2181 420.7508 436 421 C435.3054 421.7938 433.922 429.9063 434 430 C434.0302 430.0362 439.7856 428.2144 441 427 C441.4858 426.5142 441.3705 423.2779 441 423 C439.8266 422.12 435.2232 420.7979 433 421 C432.0694 421.0846 430.4371 422.6886 430 424 C429.3443 425.9671 429.7 429.4 430 430 C430.075 430.15 432.3544 430.4842 433 430 C435.0446 428.4666 436.782 426.6796 438 424 C438.7361 422.3805 438.5639 419.9868 438 419 C437.5167 418.1542 434.8529 416.8105 434 417 C432.5874 417.3139 429.4273 419.5046 429 421 C428.2354 423.6759 429.3125 430.4375 430 431 C430.6875 431.5625 439.9959 429.998 440 430 C440.0019 430.001 435.613 431.0937 434 433 C431.158 436.3587 428.9953 442.9884 429 443 C429.0013 443.0032 434.4181 440.0339 436 438 C436.6058 437.2211 435.9389 434.0306 436 434 C436.0917 433.9542 439.9569 435.9354 440 436 C440.0031 436.0046 438 437 438 437 "/>
<path id="44" d="M261 141 L300 145 "/>
<path id="45" d="M299 177 C299 177 302.6512 179.5433 306 180 C312.7798 180.9245 321 180 321 180 "/>
<path id="46" d="M302 178 C302 178 297.0625 177.8125 297 178 C296.4375 179.6875 295.8482 186.665 297 193 C297.5934 196.2635 299.3148 199.0926 301 200 C302.9522 201.0512 306.4704 201.1146 310 200 C314.6648 198.5269 319.4616 195.4359 320 194 C320.4694 192.7482 316 184 316 184 "/>
<path id="47" d="M290 162 C290 162 295 163 295 163 C295 163 290 163 290 163 "/>
<path id="48" d="M292 192 L294 191 "/>
<path id="49" d="M291 213 L295 217 "/>
<path id="50" d="M293 234 C293 234 292.9978 237.9955 293 238 C293.0008 238.0017 294 236 294 236 "/>
<path id="51" d="M290 261 L295 264 "/>
<path id="52" d="M267 269 L323 269 "/>
<path id="53" d="M262 282 L322 281 "/>
<path id="54" d="M291 272 C291 272 289.6883 281.5325 290 282 C290.1224 282.1837 297 281 297 281 "/>
<path id="55" d="M300 273 L301 280 "/>
<path id="56" d="M296 302 L296 307 "/>
</g>
</g>
</svg>
