<?xml version="1.0" encoding="utf-8"?>
<!DOCTYPE svg PUBLIC "-//W3C//DTD SVG 1.1//EN" "http://www.w3.org/Graphics/SVG/1.1/DTD/svg11.dtd">
<svg viewBox="0 0 800 800" preserveAspectRatio="xMinYMin meet" xmlns="http://www.w3.org/2000/svg" version="1.1">
<g fill="none" stroke="black" stroke-linecap="round" stroke-linejoin="round" stroke-width="0.99366">
<g transform="translate(202.247,87.52) scale(3.0191) translate(-220,-163.1333)">
<path id="0" d="M302 191.1333 C302 191.1333 297.8243 191.2943 296 190.1333 C293.5759 188.5907 291.3304 186.4461 291 184.1333 C290.2759 179.0649 290.7285 173.4698 293 169.1333 C294.5166 166.2381 298.2692 163.7551 302 163.1333 C307.4718 162.2214 315.9488 163.5875 317 165.1333 C319.0989 168.22 319 180.3706 319 188.1333 C319 188.8084 317.7996 190.0445 317 190.1333 C311.2427 190.773 301 190.1333 301 190.1333 "/>
<path id="1" d="M301 200.1333 C301 200.1333 304.4647 193.6935 307 192.1333 C308.6247 191.1335 310.8338 191.6056 314 192.1333 C316.4123 192.5354 317.7264 192.6638 319 194.1333 C323.0085 198.7585 325.0049 200.7489 327 207.1333 C329.5261 215.2169 329 216.8064 329 226.1333 C329 237.4238 327.718 245.8305 327 249.1333 C326.98 249.2252 324 249.1333 324 249.1333 "/>
<path id="2" d="M303 196.1333 C303 196.1333 298.4178 202.0572 297 208.1333 C291.7239 230.7452 287.4326 253.124 289 256.1333 C289.6146 257.3133 311.3068 257.5784 322 256.1333 C323.5151 255.9286 325.3874 252.9711 326 251.1333 C326.3547 250.0693 325 247.1333 325 247.1333 "/>
<path id="3" d="M290 255.1333 C290 255.1333 286.9866 254.4208 286 255.1333 C280.2309 259.2999 278.9341 262.9328 272 268.1333 C269.8103 269.7756 267.8807 268.5419 266 270.1333 C262.4266 273.157 262.9372 275.4149 259 279.1333 C254.2866 283.5848 248.7983 283.8737 248 287.1333 C244.9211 299.7053 247.7579 307.671 247 328.1333 C246.7592 334.634 246.7838 334.8633 246 341.1333 C245.8134 342.6262 245.0214 344.1226 245 344.1333 C245 344.1333 244 342.1333 244 342.1333 "/>
<path id="4" d="M326 255.1333 C326 255.1333 322.4886 262.1172 318 266.1333 C313.8822 269.8177 312.1816 270.6529 307 272.1333 C302.9246 273.2977 300.5789 270.5427 297 272.1333 C285.15 277.4 276.3664 280.8503 271 288.1333 C267.417 292.9959 271.0707 299.55 269 310.1333 C266.6539 322.1244 264.1089 322.3837 262 334.1333 C260.7475 341.1115 262.2456 347.2911 262 349.1333 C261.9956 349.1661 260 349.1333 260 349.1333 "/>
<path id="5" d="M246 341.1333 C246 341.1333 247.448 346.6692 247 349.1333 C246.7968 350.2508 245.2696 351.9452 244 352.1333 C235.0992 353.452 222.1376 352.4828 220 353.1333 C219.9273 353.1554 219.8297 357.8566 221 359.1333 C223.5662 361.9328 226.3745 364.3171 231 365.1333 C241.0382 366.9048 244.7005 366.4623 255 365.1333 C258.2255 364.7171 261.4684 362.7282 262 361.1333 C263.427 356.8523 262 344.1333 262 344.1333 "/>
<path id="6" d="M327 257.1333 C327 257.1333 308.6529 295.2075 307 304.1333 C306.8322 305.0396 313.2277 306.9038 317 311.1333 C328.9702 324.5544 328.6847 326.0463 340 341.1333 C342.1553 344.007 342.7889 344.4084 344 347.1333 C344.4671 348.1844 344.0861 350.0903 344 350.1333 C343.7992 350.2337 340 349.1333 340 349.1333 "/>
<path id="7" d="M296 275.1333 C296 275.1333 297.3146 277.218 297 278.1333 C293.0763 289.5478 284.8366 300.2719 285 307.1333 C285.0757 310.3137 291.2545 314.6727 298 320.1333 C301.2226 322.7421 303.0501 321.4399 306 324.1333 C313.7271 331.1885 314.7285 332.3533 321 341.1333 C324.2974 345.7496 322.8491 348.0129 326 352.1333 C328.5758 355.5016 334 358.1333 334 358.1333 "/>
<path id="8" d="M330 356.1333 C330 356.1333 324.7443 359.6414 323 362.1333 C322.3599 363.0478 322.4068 365.1842 323 366.1333 C324.0566 367.8239 327.361 370.3657 328 370.1333 C331.8504 368.7332 337.9848 364.0408 345 358.1333 C346.3894 356.9633 346.4523 356.1416 347 354.1333 C347.8763 350.9202 348.0079 347.1348 348 347.1333 C347.6795 347.0751 336 352.1333 336 352.1333 "/>
<path id="9" d="M307 212.1333 C307 212.1333 311.975 217.8819 317 221.1333 C319.6339 222.8376 321.1055 221.4307 324 223.1333 C337.3063 230.9606 347.6848 235.8592 351 241.1333 C352.3136 243.2232 346.9095 249.948 346 258.1333 C345.0214 266.9403 347.0091 276.9778 347 277.1333 C346.9991 277.1488 345 275.1333 345 275.1333 "/>
<path id="10" d="M303 221.1333 C303 221.1333 327.3207 235.4549 342 249.1333 C345.8595 252.7296 346.5962 256.4798 347 262.1333 C347.447 268.3915 344.1342 276.7845 344 277.1333 C343.9898 277.1599 342 275.1333 342 275.1333 "/>
<path id="11" d="M304 214.1333 C304 214.1333 302 215.6476 302 216.1333 C302 217.3477 304 221.1333 304 221.1333 "/>
<path id="12" d="M296 219.1333 C296 219.1333 284.0581 227.3376 279 226.1333 C262.0979 222.109 233 204.1333 233 204.1333 "/>
<path id="13" d="M236 204.1333 C236 204.1333 247.6789 206.0553 257 210.1333 C262.7209 212.6362 262.994 216.1309 268 218.1333 C271.1728 219.4025 273.3663 219.3446 277 218.1333 C285.4787 215.3071 295 209.1333 295 209.1333 "/>
<path id="14" d="M249 349.1333 L261 349.1333 "/>
<path id="15" d="M340 348.1333 C340 348.1333 335.4614 353.1142 332 355.1333 C330.8541 355.8017 328 355.1333 328 355.1333 "/>
</g>
</g>
</svg>
