<?xml version="1.0" encoding="utf-8"?>
<!DOCTYPE svg PUBLIC "-//W3C//DTD SVG 1.1//EN" "http://www.w3.org/Graphics/SVG/1.1/DTD/svg11.dtd">
<svg viewBox="0 0 800 800" preserveAspectRatio="xMinYMin meet" xmlns="http://www.w3.org/2000/svg" version="1.1">
<g fill="none" stroke="black" stroke-linecap="round" stroke-linejoin="round" stroke-width="1.7329">
<g transform="translate(219.0905,87.52) scale(1.7312) translate(-220,-51)">
<path id="0" d="M282 52 C282 52 274.7158 56.0222 270 61 C266.3687 64.833 266.0152 65.962 264 71 C262.2448 75.3879 262.3807 76.0505 262 81 C261.4001 88.7993 259.7423 91.6783 262 97 C265.2369 104.6297 268.4985 108.3739 276 114 C282.52 118.89 285.5685 119.3681 294 121 C299.5788 122.0798 301.069 121.348 307 120 C311.4431 118.9902 312.2382 118.6332 316 116 C321.7383 111.9832 323.5998 111.2136 327 106 C330.0903 101.2616 330.8102 98.8837 331 93 C331.2588 84.9768 331.1238 82.1401 328 75 C324.9571 68.0448 323.104 65.9736 317 61 C310.8657 56.0017 308.9232 55.2638 301 53 C292.5197 50.5771 282 51 282 51 "/>
<path id="1" d="M293 122 C293 122 295.3918 154.4718 293 186 C289.9417 226.3139 293.7607 232.7406 282 267 C272.9807 293.2736 260.9807 292.4895 247 320 C230.6622 352.1486 231.5583 356.4656 220 389 C218.9705 391.8978 219.0834 393.6168 220 396 C221.0375 398.6975 222.4141 401.0806 225 402 C240.7891 407.6139 246.2504 408.4096 265 412 C268.0456 412.5832 270.2229 411.9873 272 411 C272.9931 410.4483 274 408.6009 274 407 C274 402.9978 273.7614 399.74 272 397 C270.6734 394.9364 265 393 265 393 "/>
<path id="2" d="M294 219 C294 219 304.3014 251.2205 318 281 C327.0249 300.6193 331.5186 299.5426 340 319 C348.061 337.4929 344.5465 339.9521 352 359 C357.8149 373.8603 358.2296 375.1184 367 388 C373.6147 397.7154 377.241 402.0378 384 406 C386.8 407.6414 390.7074 406.6539 396 405 C405.8061 401.9356 407.5755 401.6163 416 396 C423.0204 391.3197 425.8248 388.6176 429 383 C430.5604 380.2392 429.8294 377.147 429 373 C428.5355 370.6777 427.4187 368.7093 426 368 C423.5496 366.7748 419.9124 365.9806 417 367 C412.3536 368.6263 406 375 406 375 "/>
<path id="3" d="M294 128 C294 128 287.2216 154.4092 278 179 C273.9352 189.8394 273.4364 190.4646 267 200 C260.2522 209.9967 257.5536 209.1696 251 219 C247.0237 224.9645 245 233 245 233 "/>
<path id="4" d="M294 133 C294 133 298.4471 138.3836 301 144 C303.2256 148.8963 301.4007 150.5103 304 155 C311.755 168.395 312.5086 169.5102 323 182 C343.7484 206.7005 367 230 367 230 "/>
<path id="5" d="M310 80 C310 80 311.9929 83 312 83 C312 83 312.0573 80.0573 312 80 C311.9809 79.9809 310.1309 80.6073 310 81 C309.6073 82.1781 309.9236 85.8472 310 86 C310 86 312 85.0959 312 85 C312 84.7123 310.0014 81.9993 310 82 C309.9944 82.0028 310 86 310 86 "/>
<path id="6" d="M302 100 C302 100 303.6079 108.6079 306 111 C308.0732 113.0732 316 114 316 114 "/>
<path id="7" d="M272 395 C272 395 266.3886 392.4254 261 392 C248.0522 390.9778 234.009 392.063 234 392 C233.9423 391.5961 247.5013 378.8003 257 364 C268.5145 346.0588 269.6203 344.6791 277 325 C282.6538 309.9232 279.6123 308.0882 284 292 C287.0394 280.8556 290.1814 280.9114 292 270 C295.4683 249.1903 295 226 295 226 "/>
<path id="8" d="M295 224 C295 224 299.5376 225.9779 302 229 C309.873 238.6623 310.9678 239.484 317 251 C327.1883 270.4504 324.6598 272.4197 335 292 C347.9626 316.5462 351.3047 315.5384 364 340 C371.4958 354.4432 368.5086 358.6104 376 371 C380.0076 377.6279 383.8388 379.7854 390 383 C392.7369 384.4279 395.6284 384.0536 399 383 C402.2077 381.9976 404.2769 379.9693 406 378 C406.4647 377.469 406 375 406 375 "/>
<path id="9" d="M245 233 C245 233 260.8139 238.2426 262 237 C268.9713 229.6967 275.8144 212.614 287 189 C288.8593 185.0747 289 180 289 180 "/>
<path id="10" d="M294 178 C294 178 304.3196 195.1004 317 209 C329.7959 223.0263 332.4631 225.9754 346 235 C350.1877 237.7918 353.8362 237.6735 359 237 C363.3178 236.4368 364.9108 234.9209 369 232 C371.2813 230.3705 373 227 373 227 "/>
</g>
</g>
</svg>
