<?xml version="1.0" encoding="utf-8"?>
<!DOCTYPE svg PUBLIC "-//W3C//DTD SVG 1.1//EN" "http://www.w3.org/Graphics/SVG/1.1/DTD/svg11.dtd">
<svg viewBox="0 0 800 800" preserveAspectRatio="xMinYMin meet" xmlns="http://www.w3.org/2000/svg" version="1.1">
<g fill="none" stroke="black" stroke-linecap="round" stroke-linejoin="round" stroke-width="1.7809">
<g transform="translate(221.44,87.52) scale(1.6845) translate(-202,-80.1333)">
<path id="0" d="M270 97.1333 C270 97.1333 265.2328 102.5514 263 108.1333 C260.5407 114.2815 260.4824 115.2192 260 122.1333 C259.0155 136.2446 258.3891 137.9237 260 151.1333 C260.7005 156.8771 261.4591 159.5924 265 163.1333 C271.8735 170.0068 275.9798 174.5415 285 176.1333 C304.3494 179.5479 323.2874 177.7482 333 175.1333 C334.5091 174.727 336.5831 168.3863 337 162.1333 C338.0034 147.0821 339.0576 142.9199 336 130.1333 C334.4454 123.6323 331.8609 121.6495 326 116.1333 C315.6467 106.3891 314.6078 105.574 302 98.1333 C284.6583 87.8989 266.2046 80.0664 265 80.1333 C264.9963 80.1335 266.352 92.0365 266 100.1333 C265.9455 101.3858 264 103.1333 264 103.1333 "/>
<path id="1" d="M303 182.1333 C303 182.1333 306.5988 212.8227 305 242.1333 C303.6536 266.8169 299.4207 267.1192 297 292.1333 C293.4535 328.7805 293 366.1333 293 366.1333 "/>
<path id="2" d="M292 368.1333 C292 368.1333 256.3974 339.8521 227 326.1333 C218.3128 322.0793 202 326.1333 202 326.1333 "/>
<path id="3" d="M297 369.1333 C297 369.1333 311.1886 372.4379 319 379.1333 C329.8045 388.3943 331.3648 391.587 339 405.1333 C346.2106 417.9263 347.3867 420.7766 350 434.1333 C351.3933 441.2544 348 451.1333 348 451.1333 "/>
<path id="4" d="M301 247.1333 C301 247.1333 281.6563 237.8007 264 227.1333 C258.0871 223.5609 257.4826 223.2751 253 218.1333 C240.9311 204.2896 240.2733 203.5432 230 188.1333 C224.5612 179.9751 221 170.1333 221 170.1333 "/>
<path id="5" d="M313 250.1333 C313 250.1333 324.9081 247.9728 336 244.1333 C350.6645 239.0572 351.7921 239.7533 365 232.1333 C390.0158 217.7011 414 199.1333 414 199.1333 "/>
</g>
</g>
</svg>
