<?xml version="1.0" encoding="utf-8"?>
<!DOCTYPE svg PUBLIC "-//W3C//DTD SVG 1.1//EN" "http://www.w3.org/Graphics/SVG/1.1/DTD/svg11.dtd">
<svg viewBox="0 0 800 800" preserveAspectRatio="xMinYMin meet" xmlns="http://www.w3.org/2000/svg" version="1.1">
<g fill="none" stroke="black" stroke-linecap="round" stroke-linejoin="round" stroke-width="1.7809">
<g transform="translate(222.2823,87.52) scale(1.6845) translate(-187,-107)">
<path id="0" d="M323 110 C323 110 320.1808 107.1817 318 107 C310.1422 106.3452 303.0013 105.7593 299 108 C296.2834 109.5213 294.6376 114.4496 293 121 C289.8377 133.6491 289.6677 134.6459 289 148 C288.1911 164.1771 286.803 169.0114 290 181 C291.4351 186.3817 295.0368 188.468 301 193 C306.7261 197.3518 307.948 197.1151 315 200 C318.6876 201.5086 319.0703 201.729 323 202 C333.1406 202.6994 335.2502 202.7292 344 202 C345.3194 201.89 345.6913 201.1633 347 200 C350.1043 197.2406 352.0019 196.9944 353 194 C356.5767 183.27 357.3711 180.206 358 167 C358.8289 149.5921 358.8915 147.3854 356 131 C354.7086 123.6823 353.1901 120.1901 349 116 C345.1909 112.1909 342.0483 111.8657 335 110 C325.5978 107.5112 315 107 315 107 "/>
<path id="1" d="M327 171 C327 171 325.8842 172.8456 326 173 C327.0421 174.3895 329.748 178.0515 333 179 C339.4266 180.8744 347.7826 181.2196 350 180 C351.294 179.2883 353 168 353 168 "/>
<path id="2" d="M349 145 L351 144 "/>
<path id="3" d="M315 198 C315 198 314.4833 256.3304 315 277 C315.0069 277.2747 317 278 317 278 "/>
<path id="4" d="M323 259 C323 259 325.1134 255.008 328 253 C335.8525 247.5374 339.0338 249.0374 346 243 C352.7573 237.1437 351.4177 233.0557 358 227 C362.7889 222.5942 364.6135 222.4329 371 220 C374.4165 218.6985 376.2915 220.5047 379 219 C383.7487 216.3618 385.5972 214.8915 389 210 C392.8757 204.4288 393.4243 203.0033 395 196 C397.7383 183.8298 398 170 398 170 "/>
<path id="5" d="M318 263 L324 254 "/>
<path id="6" d="M313 267 C313 267 303.2479 272.1593 294 273 C271.7619 275.0216 247 273 247 273 "/>
<path id="7" d="M317 277 C317 277 318.5284 295.2705 317 313 C313.5669 352.8235 313.5299 382.0723 307 393 C305.0781 396.2163 285.8462 392.2544 268 395 C261.6787 395.9725 261.5168 399.3708 255 401 C244.3259 403.6685 243.4817 403.3246 232 404 C209.6777 405.3131 187 405 187 405 "/>
<path id="8" d="M314 334 C314 334 337.715 392.4784 341 418 C341.5707 422.4341 332.0238 425.8658 327 435 C316.1286 454.7662 308 478 308 478 "/>
</g>
</g>
</svg>
