<?xml version="1.0" encoding="utf-8"?>
<!DOCTYPE svg PUBLIC "-//W3C//DTD SVG 1.1//EN" "http://www.w3.org/Graphics/SVG/1.1/DTD/svg11.dtd">
<svg viewBox="0 0 800 800" preserveAspectRatio="xMinYMin meet" xmlns="http://www.w3.org/2000/svg" version="1.1">
<g fill="none" stroke="black" stroke-linecap="round" stroke-linejoin="round" stroke-width="1.0561">
<g transform="translate(229.5564,87.52) scale(2.8407) translate(-241,-70)">
<path id="0" d="M285 70 C285 70 277.7935 77.0218 276 83 C274.058 89.4732 275.0219 92.5013 276 100 C276.3677 102.8192 277.112 104.112 279 106 C281.3075 108.3075 282.7238 109.3103 286 110 C291.0133 111.0554 294.5029 111.7485 298 110 C303.2456 107.3772 308.0856 103.2647 310 98 C312.4569 91.2436 312.1101 82.3712 310 77 C308.8624 74.1043 304.106 71.554 299 70 C294.3336 68.5798 287 70 287 70 "/>
<path id="1" d="M289 118 L306 118 "/>
<path id="2" d="M307 119 C307 119 309.2236 118.4454 310 119 C317.431 124.3078 320.704 125.488 328 134 C343.9963 152.6624 358 175 358 175 "/>
<path id="3" d="M358 175 C358 175 350.3605 180.3079 350 180 C342.3355 173.4533 310 134 310 134 "/>
<path id="4" d="M290 119 C290 119 282.5225 124.373 277 131 C262.851 147.9787 250 167 250 167 "/>
<path id="5" d="M251 167 L253 202 "/>
<path id="6" d="M253 202 L261 200 "/>
<path id="7" d="M261 200 C261 200 262.4288 193.217 262 187 C261.4626 179.208 259 171 259 171 "/>
<path id="8" d="M260 172 C260 172 260.9819 168.1526 263 166 C267.8663 160.8093 275 156 275 156 "/>
<path id="9" d="M277 158 L281 216 "/>
<path id="10" d="M282 215 L241 272 "/>
<path id="11" d="M241 272 L249 290 "/>
<path id="12" d="M249 290 C249 290 251.867 288.7995 253 287 C259.6079 276.5051 258.5231 274.1085 266 263 C275.7731 248.48 288 235 288 235 "/>
<path id="13" d="M288 238 C288 238 286.8667 236.1999 287 236 C288.1661 234.2509 290.2323 232.0827 294 229 C301.1048 223.187 309 218 309 218 "/>
<path id="14" d="M311 133 C311 133 313.5093 204.2315 313 219 C312.9931 219.2015 308 220 308 220 "/>
<path id="15" d="M312 218 C312 218 315.1063 228.3846 321 235 C338.3471 254.4712 361 273 361 273 "/>
<path id="16" d="M302 226 C302 226 310.7518 241.2458 321 255 C329.586 266.5233 330.0173 267.0173 340 277 C344.6261 281.6261 351 285 351 285 "/>
<path id="17" d="M351 285 L359 274 "/>
<path id="18" d="M296 130 L313 137 "/>
</g>
</g>
</svg>
