<?xml version="1.0" encoding="utf-8"?>
<!DOCTYPE svg PUBLIC "-//W3C//DTD SVG 1.1//EN" "http://www.w3.org/Graphics/SVG/1.1/DTD/svg11.dtd">
<svg viewBox="0 0 800 800" preserveAspectRatio="xMinYMin meet" xmlns="http://www.w3.org/2000/svg" version="1.1">
<g fill="none" stroke="black" stroke-linecap="round" stroke-linejoin="round" stroke-width="0.90246">
<g transform="translate(283.6511,87.52) scale(3.3243) translate(-241,-113)">
<path id="0" d="M263 117 C263 117 256.2654 116.0509 255 117 C253.2996 118.2753 251.278 121.9695 251 126 C250.4048 134.6304 250.1092 139.3288 253 146 C255.0458 150.721 259.1378 153.6847 264 156 C267.0847 157.4689 271.9189 157.3466 274 156 C276.9381 154.0989 279.7725 150.2168 281 145 C283.2552 135.4156 283.8303 129.0923 282 122 C281.1692 118.7808 277.2525 115.8225 273 114 C268.7475 112.1775 261 113 261 113 "/>
<path id="1" d="M263 158 C263 158 256.5379 165.8788 254 174 C249.4301 188.6236 247.8316 200.1046 248 206 C248.0169 206.5927 251.5759 208.4732 255 209 C263.7897 210.3523 272.4519 210.8962 274 210 C274.5838 209.662 274 198 274 198 "/>
<path id="2" d="M275 153 C275 153 278.5405 155.6104 279 158 C282.8357 177.9454 286.1699 196.3094 285 205 C284.829 206.2699 277.2803 209.1663 272 210 C269.8234 210.3437 266 208 266 208 "/>
<path id="3" d="M271 175 L298 206 "/>
<path id="4" d="M262 183 C262 183 267.2383 184.8653 271 188 C281.7612 196.9677 292 208 292 208 "/>
<path id="5" d="M279 121 L261 129 "/>
<path id="6" d="M267 119 L258 126 "/>
<path id="7" d="M259 123 C259 123 261.9271 123.6598 262 124 C262.5768 126.6916 262.0197 136.9654 262 137 C261.9944 137.0099 259.9825 132.7347 258 131 C256.9551 130.0858 254 130 254 130 "/>
<path id="8" d="M256 128 L257 138 "/>
<path id="9" d="M275 135 L277 134 "/>
<path id="10" d="M251 211 C251 211 246.3881 275.4623 244 296 C243.9625 296.3228 241 297 241 297 C240.8247 296.474 241 287 241 287 "/>
<path id="11" d="M263 218 C263 218 263.7151 229.3663 262 240 C258.792 259.8898 258.5841 260.8046 253 280 C250.7678 287.6733 248.1437 291.4272 246 295 C245.866 295.2233 244.0058 295.0376 244 295 C243.7558 293.4126 244 282 244 282 "/>
<path id="12" d="M282 209 C282 209 283.9877 208.937 284 209 C285.6551 217.441 286.8084 235.0153 292 260 C294.727 273.1239 297.5542 276.2166 300 286 C300.1529 286.6115 299.0191 288.0208 299 288 C298.5916 287.5544 289 274 289 274 "/>
<path id="13" d="M261 215 C261 215 268.3965 225.1051 273 236 C283.1719 260.0736 282.5196 273.9489 291 286 C293.4459 289.4757 310.8482 289.9292 311 290 C311.025 290.0117 308.3175 292.5655 306 293 C301.417 293.8593 296.6762 293.6984 295 293 C294.5302 292.8042 294.4851 288.2205 294 288 C292.5179 287.3263 284 288 284 288 "/>
<path id="14" d="M245 293 C245 293 255.5195 291.4306 257 292 C257.4216 292.1622 258.3824 296.2792 258 298 C257.7573 299.092 256.261 300.7478 255 301 C250.7968 301.8406 244.6766 301.7738 243 301 C242.4734 300.7569 242 295 242 295 "/>
<path id="15" d="M295 205 C295 205 306.9953 206.9858 307 207 C307.0005 207.0016 297 211 297 211 "/>
</g>
</g>
</svg>
