<?xml version="1.0" encoding="utf-8"?>
<!DOCTYPE svg PUBLIC "-//W3C//DTD SVG 1.1//EN" "http://www.w3.org/Graphics/SVG/1.1/DTD/svg11.dtd">
<svg viewBox="0 0 800 800" preserveAspectRatio="xMinYMin meet" xmlns="http://www.w3.org/2000/svg" version="1.1">
<g fill="none" stroke="black" stroke-linecap="round" stroke-linejoin="round" stroke-width="1.8865">
<g transform="translate(309.3569,87.52) scale(1.5902) translate(-212,-86)">
<path id="0" d="M235 97 C235 97 228.7054 103.4574 227 109 C225.349 114.3657 225.2717 117.6231 227 123 C229.0854 129.4879 230.7432 131.5147 236 137 C241.4407 142.6773 242.8148 143.1311 250 147 C255.2463 149.8249 256.3337 150.2917 262 151 C267.383 151.6729 269.308 151.6422 274 150 C277.8372 148.657 279.5469 147.4343 282 144 C286.1882 138.1366 287.6818 136.1557 289 129 C290.8612 118.8964 290.3061 115.4695 289 106 C288.6279 103.3025 287.4435 101.5765 285 100 C273.814 92.7832 270.7234 90.0483 258 86 C251.1235 83.812 246.6175 84.2024 241 86 C237.5106 87.1166 235.7929 89.7032 233 94 C229.7733 98.9641 228 106 228 106 "/>
<path id="1" d="M260 153 L258 197 "/>
<path id="2" d="M261 199 C261 199 265.6927 201.7318 267 205 C279.2325 235.5812 291 274 291 274 "/>
<path id="3" d="M259 206 C259 206 263.5137 206.9194 264 208 C266.2655 213.0343 267.5466 217.1128 268 226 C269.9939 265.0806 267.7788 272.2126 269 306 C269.0469 307.297 271 309 271 309 "/>
<path id="4" d="M270 315 C270 315 271.9706 315.6911 272 316 C272.4942 321.189 274.3586 327.5766 272 336 C267.9999 350.2862 263.053 350.8411 258 366 C253.3357 379.9928 250.6368 383.7314 252 396 C253.6007 410.4063 260.2235 412.2822 265 429 C271.0589 450.2063 274.3853 469.609 274 473 C273.9857 473.1255 266.2411 471.7087 260 473 C252.7597 474.498 252.1126 476.6291 245 479 C243.7448 479.4184 242.1875 479.1875 242 479 C241.8125 478.8125 242 476 242 476 "/>
<path id="5" d="M278 327 C278 327 276.0351 327.6839 276 328 C275.5115 332.3964 274.0778 337.4179 276 345 C282.6219 371.1195 283.5027 372.7568 294 399 C308.3737 434.9343 325.5938 466.7955 326 470 C326.0158 470.1245 303 470 303 470 "/>
<path id="6" d="M262 212 C262 212 264.3341 224.5651 262 235 C256.2354 260.7709 248.9988 276.8454 245 288 C244.9515 288.1353 243 288 243 288 "/>
<path id="7" d="M238 120 C238 120 223.8465 118.2011 218 120 C215.5265 120.7611 212.769 125.1162 212 128 C211.482 129.9426 213.2434 134.7793 214 135 C218.1182 136.2011 233.4645 136.3229 236 135 C236.8368 134.5634 237 123 237 123 "/>
<path id="8" d="M245 108 C245 108 245.9986 106 246 106 C246 106 246 108 246 108 C245.9786 108 244 106 244 106 "/>
<path id="9" d="M246 142 C246 142 249.0997 138.1601 252 137 C255.4079 135.6369 258.0876 134.9806 261 136 C265.6464 137.6263 272 144 272 144 "/>
</g>
</g>
</svg>
