<?xml version="1.0" encoding="utf-8"?>
<!DOCTYPE svg PUBLIC "-//W3C//DTD SVG 1.1//EN" "http://www.w3.org/Graphics/SVG/1.1/DTD/svg11.dtd">
<svg viewBox="0 0 800 800" preserveAspectRatio="xMinYMin meet" xmlns="http://www.w3.org/2000/svg" version="1.1">
<g fill="none" stroke="black" stroke-linecap="round" stroke-linejoin="round" stroke-width="1.4497">
<g transform="translate(202.3719,87.52) scale(2.0694) translate(-248,-121)">
<path id="0" d="M274 123 C274 123 268.0326 125.0962 266 128 C262.3183 133.2596 261.3165 135.7591 260 143 C258.5273 151.1 258.4095 153.5777 260 161 C260.9972 165.6537 262.6103 167.0453 266 171 C268.0466 173.3877 269.2887 174.5829 272 175 C280.197 176.2611 284.4362 176.8257 292 175 C296.0427 174.0242 300.3332 170.8153 301 168 C303.2636 158.4425 301.7921 150.8615 301 137 C300.8949 135.1603 300.3848 134.3848 299 133 C292.9994 126.9994 290.8631 123.4805 285 121 C281.442 119.4947 273 122 273 122 "/>
<path id="1" d="M267 198 C267 198 267.9938 208.0493 267 216 C266.648 218.8159 264.5312 219.0786 264 222 C262.6868 229.2223 264.5758 230.3635 263 238 C258.1893 261.3135 254.5857 261.5735 251 285 C247.2218 309.6844 248.6824 310.5222 248 336 C247.185 366.4256 246.7634 368.9708 248 397 C248.1446 400.2773 250.4401 400.6404 251 404 C251.8212 408.9274 251 415 251 415 "/>
<path id="2" d="M264 195 C264 195 274.6154 192.3919 285 192 C300.7207 191.4068 308.4079 188.883 317 193 C324.0214 196.3644 330.231 204.9622 333 215 C336.774 228.6808 333 251 333 251 "/>
<path id="3" d="M332 245 C332 245 361.4587 266.9002 383 281 C384.1556 281.7564 387.0174 280.9594 387 281 C386.7302 281.6295 374.1783 301.7835 374 302 C373.9821 302.0217 374.0519 299.1646 373 298 C361.9759 285.7948 359.702 283.1796 346 271 C342.3879 267.7893 337 266 337 266 "/>
<path id="4" d="M335 266 C335 266 331.9512 323.5366 334 336 C334.1507 336.9168 341.015 336.606 347 339 C363.0162 345.4065 363.7889 345.4921 379 354 C392.96 361.8081 393.6638 361.9254 406 372 C423.252 386.0891 439.05 402.9088 439 403 C438.8938 403.1937 403.15 407.5715 389 403 C382.835 401.0082 382.5038 390.74 374 382 C365.296 373.0542 362.2864 374.7236 353 366 C346.2754 359.6829 341 351 341 351 "/>
<path id="5" d="M288 327 C288 327 280.0378 343.7274 275 361 C266.1518 391.3366 261.0892 420.5039 260 423 C259.9512 423.1119 251 416 251 416 "/>
<path id="6" d="M287 320 C287 320 322.6219 338.7479 350 357 C353.7476 359.4984 356 366 356 366 "/>
<path id="7" d="M292 138 C292 138 292.7125 146.6938 292 148 C291.6956 148.5581 286 149 286 149 "/>
<path id="8" d="M330 206 C330 206 342.1964 206.3237 352 210 C365.0367 214.8888 366.027 216.5169 378 224 C381.3593 226.0996 383.5146 227.8159 384 230 C384.7648 233.4416 383.2522 239.6746 382 242 C381.6465 242.6566 378.2365 243.6183 377 243 C372.0539 240.527 370.4223 236.2112 364 233 C359.7184 230.8592 357.1369 232.8099 353 231 C350.4961 229.9045 350.7319 227.607 348 226 C342.86 222.9765 336 221 336 221 "/>
</g>
</g>
</svg>
