<?xml version="1.0" encoding="utf-8"?>
<!DOCTYPE svg PUBLIC "-//W3C//DTD SVG 1.1//EN" "http://www.w3.org/Graphics/SVG/1.1/DTD/svg11.dtd">
<svg viewBox="0 0 800 800" preserveAspectRatio="xMinYMin meet" xmlns="http://www.w3.org/2000/svg" version="1.1">
<g fill="none" stroke="black" stroke-linecap="round" stroke-linejoin="round" stroke-width="2.2465">
<g transform="translate(87.52,195.6861) scale(1.3354) translate(-0.36111,-13.0556)">
<path id="0" d="M145.3611 58.0556 C145.3611 58.0556 134.8005 62.6925 130.3611 69.0556 C121.5786 81.6438 119.1114 85.5854 115.3611 101.0556 C111.7575 115.9205 112.9439 118.8989 114.3611 135.0556 C115.3443 146.2641 115.7555 148.8444 120.3611 158.0556 C123.7267 164.7868 125.8617 165.519 132.3611 171.0556 C138.9858 176.6988 139.5674 177.6339 147.3611 181.0556 C159.2232 186.2633 161.4527 188.1216 173.3611 189.0556 C184.4014 189.9215 187.3122 188.7385 198.3611 185.0556 C206.8925 182.2117 206.5899 178.7272 215.3611 175.0556 C227.5118 169.9692 228.2695 169.8921 241.3611 167.0556 C257.9224 163.4673 258.8166 165.7839 275.3611 162.0556 C293.9554 157.8653 294.646 157.8885 312.3611 151.0556 C329.1865 144.5658 328.5582 142.0168 345.3611 135.0556 C363.3331 127.61 364.0928 128.7391 382.3611 122.0556 C384.4312 121.2982 386.318 120.1202 386.3611 120.0556 C386.3642 120.0509 384.3525 119.0575 384.3611 119.0556 C384.5522 119.0131 405.9757 118.0635 422.3611 112.0556 C433.4687 107.9828 444.3611 97.0556 444.3611 97.0556 "/>
<path id="1" d="M147.3611 59.0556 C147.3611 59.0556 158.56 56.9166 168.3611 53.0556 C174.552 50.6167 174.988 46.377 180.3611 46.0556 C225.7904 43.3376 235.3867 48.4737 285.3611 46.0556 C294.5423 45.6113 300.4917 41.6848 304.3611 40.0556 C304.5125 39.9918 304.3556 38.0557 304.3611 38.0556 C315.7306 37.8057 352.3741 41.046 395.3611 38.0556 C406.9612 37.2486 407.5195 32.2759 419.3611 30.0556 C430.5932 27.9495 443.3611 29.0556 443.3611 29.0556 "/>
<path id="2" d="M445.3611 28.0556 L453.3611 13.0556 "/>
<path id="3" d="M455.3611 14.0556 C455.3611 14.0556 453.7875 24.6142 455.3611 34.0556 C458.6394 53.7251 462.3363 54.1421 465.3611 74.0556 C468.2246 92.9066 467.3611 113.0556 467.3611 113.0556 "/>
<path id="4" d="M444.3611 99.0556 C444.3611 99.0556 449.0385 104.7289 454.3611 108.0556 C460.4076 111.8346 468.3611 114.0556 468.3611 114.0556 "/>
<path id="5" d="M116.3611 117.0556 C116.3611 117.0556 99.7729 116.2666 86.3611 117.0556 C84.5203 117.1638 83.6377 117.6513 82.3611 119.0556 C74.5369 127.6622 69.5556 130.3241 66.3611 139.0556 C63.8116 146.0243 65.9562 150.5725 67.3611 160.0556 C67.7892 162.9453 68.6227 165.0491 70.3611 166.0556 C75.4352 168.9932 78.5441 169.6597 86.3611 171.0556 C91.914 172.0471 93.1623 172.4606 98.3611 171.0556 C110.3628 167.8119 123.3611 161.0556 123.3611 161.0556 "/>
<path id="6" d="M153.3611 186.0556 C153.3611 186.0556 147.9675 188.9838 144.3611 193.0556 C132.9224 205.9702 134.0981 207.8814 122.3611 221.0556 C109.7723 235.1858 109.1504 234.9557 95.3611 248.0556 C89.2194 253.8901 88.5489 254.9304 82.3611 259.0556 C80.6367 260.2052 77.3611 260.0556 77.3611 260.0556 "/>
<path id="7" d="M80.3611 261.0556 C80.3611 261.0556 37.8113 262.2129 32.3611 260.0556 C31.5587 259.7379 33.5823 242.9279 32.3611 242.0556 C29.5658 240.0589 5.0337 238.9025 4.3611 240.0556 C2.0147 244.078 4.6107 283.8155 4.3611 290.0556 C4.3607 290.0655 2.3727 289.9974 2.3611 290.0556 C1.7683 293.0197 -0.31491 309.1864 0.36111 310.0556 C0.74392 310.5477 8.7127 307.6998 16.3611 308.0556 C29.4327 308.6635 30.5706 308.8579 43.3611 312.0556 C51.9262 314.1968 52.183 317.7834 60.3611 319.0556 C73.0201 321.0247 74.588 319.9347 88.3611 319.0556 C97.8013 318.453 98.9571 319.2269 107.3611 316.0556 C124.2322 309.6891 141.3611 299.0556 141.3611 299.0556 "/>
<path id="8" d="M194.3611 191.0556 C194.3611 191.0556 191.7059 192.09 191.3611 193.0556 C189.9337 197.0524 191.2732 199.5014 189.3611 205.0556 C180.9914 229.3676 181.579 231.0294 170.3611 254.0556 C162.9945 269.1766 161.8537 269.8018 151.3611 283.0556 C143.251 293.3 132.3611 302.0556 132.3611 302.0556 "/>
<path id="9" d="M207.3611 182.0556 C207.3611 182.0556 203.3662 204.6657 201.3611 227.0556 C200.3924 237.8725 200.3244 239.0342 201.3611 249.0556 C201.7056 252.3855 202.2113 254.535 204.3611 256.0556 C218.8427 266.2987 223.1054 268.4277 242.3611 278.0556 C251.596 282.673 252.671 284.012 262.3611 285.0556 C283.372 287.3183 288.5354 287.4088 307.3611 285.0556 C312.329 284.4346 313.6807 282.2433 318.3611 278.0556 C332.231 265.6457 341.4269 262.8581 345.3611 251.0556 C351.2624 233.3517 345.6108 203.7963 345.3611 197.0556 C345.3608 197.0463 343.4002 197.1729 343.3611 197.0556 C341.6397 191.8914 341.7083 181.7221 336.3611 170.0556 C331.427 159.2902 321.3611 149.0556 321.3611 149.0556 "/>
<path id="10" d="M227.3611 185.0556 C227.3611 185.0556 224.1692 193.1765 223.3611 201.0556 C222.2285 212.0986 221.37 213.6574 223.3611 224.0556 C225.588 235.685 227.0924 236.8595 232.3611 248.0556 C234.8418 253.327 235.6846 255.8177 239.3611 258.0556 C244.54 261.2079 247.4838 261.287 255.3611 262.0556 C267.3763 263.2278 270.0985 264.3646 280.3611 262.0556 C287.3499 260.4831 288.0997 255.8484 295.3611 253.0556 C299.839 251.3333 302.2872 253.6398 306.3611 252.0556 C309.6997 250.7572 311.7699 249.2379 313.3611 246.0556 C316.7947 239.1884 317.5737 236.875 318.3611 228.0556 C319.9833 209.8872 319.0964 208.8064 318.3611 190.0556 C318.108 183.6021 318.693 182.4967 316.3611 177.0556 C311.7213 166.2294 303.3611 155.0556 303.3611 155.0556 "/>
<path id="11" d="M275.3611 196.0556 C275.3611 196.0556 272.9791 193.3252 271.3611 193.0556 C268.5446 192.5861 266.6333 192.9648 263.3611 194.0556 C261.3978 194.71 260.1616 195.4547 259.3611 197.0556 C257.36 201.0578 256.0242 203.5076 256.3611 208.0556 C256.8728 214.9634 258.4101 220.3176 261.3611 224.0556 C262.9729 226.0971 266.6254 226.6045 271.3611 227.0556 C276.3818 227.5337 281.9424 226.9252 282.3611 226.0556 C284.1542 222.3316 285.9887 207.9608 284.3611 200.0556 C283.7344 197.0116 275.3611 192.0556 275.3611 192.0556 "/>
<path id="12" d="M273.3611 194.0556 L273.3611 163.0556 "/>
<path id="13" d="M262.3611 216.0556 C262.3611 216.0556 250.8727 213.5666 240.3611 214.0556 C230.1954 214.5284 219.3611 218.0556 219.3611 218.0556 "/>
<path id="14" d="M286.3611 216.0556 C286.3611 216.0556 296.2769 209.417 306.3611 206.0556 C316.4453 202.6942 328.3611 202.0556 328.3611 202.0556 "/>
<path id="15" d="M270.3611 229.0556 C270.3611 229.0556 270.0323 236.0691 271.3611 240.0556 C271.9864 241.9315 274.7801 242.1965 275.3611 244.0556 C276.7236 248.4155 275.9385 254.3651 276.3611 256.0556 C276.3784 256.1246 278.3527 256.0218 278.3611 256.0556 C278.4244 256.3087 277.3611 260.0556 277.3611 260.0556 "/>
</g>
</g>
</svg>
