<?xml version="1.0" encoding="utf-8"?>
<!DOCTYPE svg PUBLIC "-//W3C//DTD SVG 1.1//EN" "http://www.w3.org/Graphics/SVG/1.1/DTD/svg11.dtd">
<svg viewBox="0 0 800 800" preserveAspectRatio="xMinYMin meet" xmlns="http://www.w3.org/2000/svg" version="1.1">
<g fill="none" stroke="black" stroke-linecap="round" stroke-linejoin="round" stroke-width="1.5985">
<g transform="translate(87.52,109.1027) scale(1.8768) translate(-37,-59)">
<path id="0" d="M198 186 C198 186 186.7263 183.9133 178 186 C165.5081 188.9872 162.7369 189.6432 152 197 C137.3324 207.0501 133.2104 209.4268 124 223 C116.4709 234.0956 117.8849 238.1668 114 253 C112.5396 258.576 113.1497 259.012 113 265 C112.6514 278.943 110.9391 279.9474 113 293 C115.2391 307.1812 115.9678 309.3611 122 322 C125.7552 329.868 127.3822 330.8913 134 337 C139.7118 342.2724 140.6733 342.4058 148 346 C166.8347 355.2397 167.6858 358.998 187 363 C220.2678 369.8933 230.6907 372.608 259 369 C271.8845 367.3579 275.2226 360.4096 289 350 C297.1795 343.8199 298.217 342.807 304 335 C307.478 330.3047 308.4851 328.7492 309 323 C311.2786 297.5559 310.6207 295.3121 310 268 C309.6266 251.5721 308.8242 251.4178 307 235 C306.3311 228.9801 307.1559 228.1742 305 223 C300.0582 211.1396 300.2273 207.4062 292 199 C279.6113 186.342 275.7377 186.3275 259 176 C252.7215 172.126 251.6259 170.5372 245 170 C217.557 167.7749 205.9893 163.0036 185 170 C167.5089 175.8304 146 203 146 203 "/>
<path id="1" d="M210 207 C210 207 208.4291 203.5044 207 203 C202.2364 201.3187 199.2185 200.2893 193 201 C183.2078 202.1191 179.5814 202.0721 172 207 C162.2569 213.333 160.6797 216.4073 153 227 C146.8039 235.5463 144.8213 237.6912 143 247 C140.8595 257.9401 141.5064 261.2799 144 273 C146.1799 283.2456 147.0731 286.8031 153 294 C158.976 301.2565 163.3682 299.768 172 307 C181.5527 315.0036 180.9215 318.5572 190 325 C194.6725 328.316 196.6732 328.5038 203 329 C221.058 330.4163 222.2876 329.7485 241 329 C246.9486 328.7621 247.7691 328.9616 253 327 C259.0002 324.7499 260.6696 324.4616 265 320 C276.0036 308.6629 280.7148 306.1074 286 293 C291.4559 279.4694 290.8628 273.5305 290 258 C289.519 249.3416 287.1907 247.7037 283 239 C280.9602 234.7634 280.5219 234.2703 277 231 C260.0088 215.2224 258.8971 214.4881 241 200 C238.531 198.0012 237.667 197.041 235 197 C208.9878 196.5998 176 199 176 199 "/>
<path id="2" d="M218 260 C218 260 213.4948 257.6185 213 257 C212.9152 256.894 214 255 214 255 "/>
<path id="3" d="M217 259 L213 206 "/>
<path id="4" d="M221 259 C221 259 237.6726 252.592 254 249 C261.9874 247.2428 271 248 271 248 "/>
<path id="5" d="M218 257 C218 257 222.6013 262.298 228 266 C239.7799 274.0776 242.2957 272.2872 253 281 C262.8613 289.0266 262.3728 293.0917 271 301 C272.86 302.705 275.687 301.8746 277 303 C277.7538 303.6461 278 307.0001 278 307 C278 306.9997 277 294 277 294 "/>
<path id="6" d="M272 246 L282 247 "/>
<path id="7" d="M218 263 C218 263 216.1968 268.651 213 272 C206.4376 278.8749 203.5624 278.1251 197 285 C193.8032 288.349 195.0544 290.5093 192 294 C188.603 297.8822 183 301 183 301 "/>
<path id="8" d="M223 260 L224 327 "/>
<path id="9" d="M178 306 C178 306 195.9339 295.8729 206 284 C213.3343 275.3493 217 260 217 260 "/>
<path id="10" d="M222 258 C222 258 217.2589 259.0369 214 258 C207.3896 255.8967 207.0728 252.7072 200 251 C179.4033 246.0284 156 244 156 244 "/>
<path id="11" d="M111 282 C111 282 88.644 285.911 77 283 C71.0486 281.5122 68.9608 276.9975 63 270 C57.8186 263.9175 56.4416 262.8808 54 256 C51.4851 248.9127 50.7827 245.8983 52 239 C53.3464 231.3704 55.2053 229.333 60 222 C63.2103 217.0902 69 213 69 213 "/>
<path id="12" d="M54 261 C54 261 44.5898 261.0196 42 263 C39.4327 264.9632 37.0444 273.512 37 274 C36.9986 274.0155 39.8866 273.3814 41 274 C43.165 275.2028 43.6788 278.2263 46 279 C50.6425 280.5475 52.9994 280 59 280 C60.3848 280 61.6658 279.6016 62 279 C63.142 276.9444 64 271 64 271 "/>
<path id="13" d="M73 215 C73 215 76.6737 214.8631 78 216 C82.1731 219.577 83.6394 221.239 87 227 C90.2917 232.6428 88.9334 234.4801 92 240 C93.5117 242.7211 95.9873 242.4682 97 245 C99.3437 250.8592 97.1439 253.8799 100 260 C103.5062 267.5133 110.9347 274.9466 111 275 C111.0138 275.0113 111 269 111 269 "/>
<path id="14" d="M77 209 C77 209 82.3077 207.1093 84 208 C88.6503 210.4475 90.004 214.6695 96 219 C98.2381 220.6164 101.1489 219.6525 102 221 C105.0561 225.8389 108 238 108 238 "/>
<path id="15" d="M87 204 C87 204 99.0613 199.3246 109 193 C114.9508 189.2131 114.5464 186.2722 120 183 C123.2722 181.0367 124.9891 182.7381 129 181 C139.4745 176.4611 140.4387 176.5419 150 170 C168.4875 157.3506 167.8999 153.1891 186 142 C193.7104 137.2336 196.5365 140.3181 205 136 C220.2281 128.2306 220.7998 127.143 235 117 C241.4716 112.3774 240.6506 110.1515 247 106 C252.9295 102.123 254.728 103.584 261 100 C264.7529 97.8555 264.2318 95.8841 268 94 C277.4206 89.2897 279.1832 90.9976 289 86 C306.2986 77.1934 323 66 323 66 "/>
<path id="16" d="M268 178 C268 178 273.6325 168.3062 280 163 C284.2017 159.4986 287.1871 161.5464 292 158 C305.179 148.2892 306.2589 143.2878 318 135 C320.4202 133.2916 322.9495 135.5253 326 134 C334.6133 129.6934 336.1853 128.5644 344 122 C348.0521 118.5963 351 113 351 113 "/>
<path id="17" d="M326 65 C326 65 355.3052 96.7486 362 107 C362.4484 107.6866 358.7659 113.2341 358 114 C357.9304 114.0696 356.2282 112.8548 356 113 C353.6422 114.5004 347 121 347 121 "/>
<path id="18" d="M320 69 C320 69 318.9466 59.0267 319 59 C319.08 58.96 328 65 328 65 "/>
<path id="19" d="M358 115 C358 115 369.9314 118.0686 370 118 C370.0381 117.9619 365 108 365 108 "/>
<path id="20" d="M93 200 C93 200 89.4849 194.6871 89 190 C88.1202 181.4949 87.9017 178.8686 90 171 C91.4013 165.7452 94.6771 164.9777 97 160 C97.6513 158.6044 97.5828 157.1657 97 156 C96.1257 154.2515 95.2011 153.1585 93 152 C86.4537 148.5546 84.8937 147.4362 78 146 C74.2703 145.223 70.4885 145.5115 69 147 C65.4276 150.5724 63.7535 155.0147 61 163 C58.9905 168.8275 59 176 59 176 "/>
<path id="21" d="M56 172 L46 171 "/>
<path id="22" d="M54 174 C54 174 54.4722 182.931 54 186 C53.9485 186.3344 52.1788 187.1073 52 187 C51.3102 186.5861 49 183 49 183 "/>
<path id="23" d="M58 174 L63 178 "/>
<path id="24" d="M63 178 L70 189 "/>
<path id="25" d="M60 178 L60 188 "/>
<path id="26" d="M60 174 L69 173 "/>
<path id="27" d="M56 172 L47 176 "/>
</g>
</g>
</svg>
