<?xml version="1.0" encoding="utf-8"?>
<!DOCTYPE svg PUBLIC "-//W3C//DTD SVG 1.1//EN" "http://www.w3.org/Graphics/SVG/1.1/DTD/svg11.dtd">
<svg viewBox="0 0 800 800" preserveAspectRatio="xMinYMin meet" xmlns="http://www.w3.org/2000/svg" version="1.1">
<g fill="none" stroke="black" stroke-linecap="round" stroke-linejoin="round" stroke-width="1.9009">
<g transform="translate(87.52,180.0015) scale(1.5782) translate(-83,-190.1333)">
<path id="0" d="M171 344.1333 C171 344.1333 169.1262 338.6273 166 335.1333 C161.1886 329.7559 160.0261 327.6147 154 325.1333 C145.1587 321.4928 139.4999 319.1834 132 321.1333 C120.3995 324.1495 111.9762 328.1206 104 338.1333 C92.4054 352.6883 92.2179 359.5107 85 380.1333 C82.2256 388.0602 82.6983 389.9875 83 398.1333 C83.1533 402.2736 83.9497 403.0328 86 407.1333 C89.8077 414.7487 89.5671 415.951 95 422.1333 C103.4369 431.7339 105.1648 433.8745 115 440.1333 C119.6618 443.0999 121.7835 443.1333 128 443.1333 C148.084 443.1333 149.9118 443.7389 170 440.1333 C187.9329 436.9146 190.5414 436.0404 206 429.1333 C211.8442 426.5221 217.3623 420.5446 217 419.1333 C213.3793 405.0316 203.3546 383.4812 187 355.1333 C182.4433 347.2351 172 341.1333 172 341.1333 "/>
<path id="1" d="M158 370.1333 C158 370.1333 147.8935 366.1923 143 367.1333 C138.746 367.9514 134.4569 371.0969 132 375.1333 C129.1869 379.7549 130.836 384.9315 129 390.1333 C128.6503 391.1242 126.0743 391.4399 126 392.1333 C125.1679 399.8997 124.2986 416.9118 126 418.1333 C129.6857 420.7795 147.165 421.8593 165 420.1333 C175.9263 419.0759 182.0081 416.8413 188 412.1333 C191.2736 409.5612 191.8249 404.5962 193 398.1333 C193.6162 394.7443 193.4209 392.9751 192 390.1333 C190.0777 386.2886 187.1715 386.2592 185 382.1333 C182.6622 377.6915 184.6454 375.0237 182 371.1333 C177.2285 364.1164 168 357.1333 168 357.1333 "/>
<path id="2" d="M157 321.1333 C157 321.1333 165.2244 315.1499 174 312.1333 C196.478 304.4065 198.1078 306.9264 221 299.1333 C244.8015 291.0307 245.5871 291.3398 268 280.1333 C304.0987 262.084 302.626 257.3372 339 240.1333 C375.8878 222.6864 378.4548 226.2241 416 210.1333 C426.9233 205.4519 437 198.1333 437 198.1333 "/>
<path id="3" d="M215 381.1333 C215 381.1333 285.0138 358.6127 352 333.1333 C365.5153 327.9925 366.6096 326.2032 378 319.1333 C379.8003 318.0159 379.4202 315.7796 381 315.1333 C388.171 312.1998 390.9253 313.4669 400 310.1333 C415.1452 304.5698 418.7795 303.0942 430 297.1333 C431.2541 296.4671 430.6467 294.2785 432 293.1333 C436.2534 289.5343 439.4511 289.6822 443 286.1333 C444.5773 284.556 443.4695 282.0039 445 280.1333 C447.15 277.5056 450.0461 277.7385 452 275.1333 C453.6203 272.9729 452.7296 268.9802 454 268.1333 C456.8583 266.2278 466.4093 266.4964 467 265.1333 C468.8473 260.8704 468.0381 251.3689 467 238.1333 C466.0652 226.2146 466.3305 224.7305 463 214.1333 C461.2594 208.595 459.8077 208.2102 456 203.1333 C453.9497 200.3996 453.165 199.3361 451 198.1333 C449.8866 197.5147 447.2 197.7833 447 198.1333 C445.5751 200.6269 443.3832 205.3641 443 212.1333 C441.9511 230.6634 440.2135 235.7168 444 251.1333 C446.0448 259.4584 449.9152 263.0257 457 269.1333 C462.4743 273.8525 473 276.1333 473 276.1333 "/>
<path id="4" d="M169 364.1333 C169 364.1333 167.8387 361.4928 167 361.1333 C165.7237 360.5864 162 361.1333 162 361.1333 "/>
<path id="5" d="M393 316.1333 C393 316.1333 395.763 317.8296 396 319.1333 C397.2825 326.187 396.7936 328.6401 397 338.1333 C397.2929 351.6083 398.0772 351.9381 397 365.1333 C396.1093 376.0445 392.6845 385.3979 393 387.1333 C393.0216 387.252 398.2624 388.2606 401 387.1333 C405.0662 385.459 410 381.8585 410 380.1333 C410 371.2608 403.6152 361.8583 401 344.1333 C399.2485 332.2622 401 319.1333 401 319.1333 "/>
<path id="6" d="M434 206.1333 C434 206.1333 431.5563 190.9368 431 190.1333 C430.9645 190.082 425.5747 191.8882 425 193.1333 C424.0039 195.2916 425 203.1333 425 203.1333 "/>
<path id="7" d="M398 423.9333 C398 423.9333 375.2157 422.6917 366 424.9333 C364.0147 425.4162 361.7094 429.2442 361 432.9333 C359.575 440.3433 359.1199 443.8828 361 450.9333 C362.4763 456.4693 365.0181 459.2169 369 462.9333 C370.8389 464.6496 372.5756 464.6356 376 464.9333 C383.6374 465.5975 384.5572 465.9966 392 464.9333 C397.8479 464.0979 402.8761 463.1151 404 460.9333 C407.4856 454.1672 409.7157 440.7608 409 431.9333 C408.7835 429.2634 401 423.9333 401 423.9333 "/>
<path id="8" d="M479 435.9333 C479 435.9333 470.3703 431.961 465 427.9333 C463.6574 426.9264 464.134 424.6893 463 423.9333 C460.975 422.5833 459.5278 422.7634 456 421.9333 C451.0556 420.7699 450.8109 419.9333 446 419.9333 C433.9727 419.9333 426.3336 419.2665 421 421.9333 C418.6409 423.1129 416.8971 428.6538 416 434.9333 C414.5609 445.0068 414.7413 446.8634 416 456.9333 C416.6008 461.7395 418.3321 466.3924 420 466.9333 C427.7485 469.4464 438.8932 470.4341 453 468.9333 C459.3439 468.2584 462.2977 465.4601 467 461.9333 C468.4046 460.8799 467.5661 458.5265 469 456.9333 C471.3827 454.2859 475.2754 454.107 476 451.9333 C477.9102 446.2027 477 432.9333 477 432.9333 "/>
<path id="9" d="M434 417.9333 C434 417.9333 439.6469 417.9147 443 415.9333 C449.4217 412.1387 453.7965 409.6793 456 404.9333 C458.1989 400.1973 456.9189 395.8967 456 387.9333 C455.4948 383.5553 455.2068 381.2978 453 378.9333 C449.9578 375.6738 447.1551 373.8431 442 372.9333 C432.1675 371.1982 427.9787 371.1955 419 372.9333 C415.4237 373.6255 412.6289 375.8112 411 378.9333 C407.944 384.7907 408.0911 392.842 407 395.9333 C406.9582 396.0519 405.0044 395.9006 405 395.9333 C404.7544 397.7756 404.051 404.6064 405 410.9333 C405.3448 413.2321 406.7725 415.6469 408 415.9333 C416.0918 417.8214 435 417.9333 435 417.9333 "/>
</g>
</g>
</svg>
