<?xml version="1.0" encoding="utf-8"?>
<!DOCTYPE svg PUBLIC "-//W3C//DTD SVG 1.1//EN" "http://www.w3.org/Graphics/SVG/1.1/DTD/svg11.dtd">
<svg viewBox="0 0 800 800" preserveAspectRatio="xMinYMin meet" xmlns="http://www.w3.org/2000/svg" version="1.1">
<g fill="none" stroke="black" stroke-linecap="round" stroke-linejoin="round" stroke-width="1.4641">
<g transform="translate(87.52,213.5365) scale(2.049) translate(-177,-114.1333)">
<path id="0" d="M399 123.1333 C399 123.1333 390.2811 128.6246 381 132.1333 C349.64 143.989 347.5039 144.4074 317 154.1333 C314.8523 154.8181 313.8495 154.926 312 154.1333 C304.6547 150.9853 304.0929 147.405 296 145.1333 C277.2315 139.865 275.2071 139.9429 255 138.1333 C242.4222 137.007 241.4867 137.4306 229 139.1333 C220.0747 140.3504 219.113 140.5541 211 144.1333 C202.8043 147.7491 202.0156 148.4669 195 154.1333 C189.4973 158.5778 188.3178 159.2784 185 165.1333 C180.4281 173.2014 180.2088 174.7458 178 184.1333 C176.3701 191.0603 175.9959 192.8578 177 199.1333 C177.7307 203.7004 178.9085 205.0906 182 209.1333 C184.9336 212.9696 190 216.1333 190 216.1333 "/>
<path id="1" d="M255 179.1333 C255 179.1333 250.664 176.5869 248 177.1333 C234.2342 179.9571 230.5308 180.8156 216 187.1333 C208.6651 190.3224 206.9075 191.7093 202 197.1333 C198.639 200.8481 197.2122 207.8908 197 208.1333 C196.9827 208.1531 195.0007 205.1233 195 205.1333 C194.9923 205.2456 192.4681 222.7014 195 237.1333 C197.1169 249.1995 198.757 251.35 205 262.1333 C209.0446 269.1195 214.9914 271.7188 217 275.1333 C217.2827 275.614 214.9878 279.1267 215 279.1333 C217.2583 280.3566 228.0643 285.7814 241 288.1333 C259.978 291.5839 262.5971 291.8025 281 291.1333 C288.0038 290.8786 290.7022 289.9697 296 286.1333 C303.2796 280.8619 305.8929 278.3476 310 270.1333 C314.8214 260.4905 314.3116 257.9524 316 246.1333 C317.2227 237.5747 317.4146 236.3851 316 228.1333 C314.5832 219.8685 314.3819 218.0714 310 211.1333 C303.1775 200.331 300.7871 195.3638 292 190.1333 C284.3996 185.6093 279.1464 189.2296 268 186.1333 C261.9336 184.4482 256 180.1333 256 180.1333 "/>
<path id="2" d="M401 122.1333 C401 122.1333 434.6672 163.3582 435 165.1333 C435.0021 165.1446 421.8525 166.55 410 170.1333 C400.8715 172.8931 396.2389 175.7784 392 178.1333 C391.7902 178.2499 392.0925 180.1025 392 180.1333 C390.7053 180.5649 386.8227 179.6998 383 181.1333 C375.6604 183.8857 375.7686 186.2514 368 189.1333 C345.2731 197.5643 344.1726 197.954 321 204.1333 C314.9721 205.7408 308 205.1333 308 205.1333 "/>
<path id="3" d="M403 121.1333 C403 121.1333 400.8289 115.3329 401 115.1333 C401.3136 114.7675 408.1653 113.3508 409 114.1333 C411.7182 116.6816 411.7846 123.614 417 130.1333 C428.9676 145.0928 438.2283 148.9758 445 159.1333 C446.2312 160.9801 444.2664 167.5856 443 169.1333 C442.2679 170.0281 438.1776 170.3753 436 170.1333 C435.2976 170.0553 434 168.1333 434 168.1333 "/>
<path id="4" d="M247 193.1333 C247 193.1333 237.146 193.619 231 196.1333 C227.9837 197.3673 227.8477 200.8875 225 202.1333 C221.5539 203.641 217.5606 201.4765 215 203.1333 C211.7603 205.2296 210.8558 207.993 208 213.1333 C206.0124 216.711 205.5276 217.2642 205 221.1333 C204.1216 227.5749 203.4364 229.2698 205 235.1333 C207.0252 242.728 208.3263 244.1228 213 251.1333 C215.9211 255.5149 216.6369 256.6401 221 259.1333 C229.5278 264.0064 232.7762 262.6788 241 267.1333 C243.2672 268.3614 243.3771 271.8691 245 272.1333 C258.2575 274.2915 269.7375 276.7745 284 274.1333 C290.3586 272.9558 292.8324 268.5946 299 262.1333 C302.6856 258.2722 303.0908 257.0427 305 252.1333 C306.2986 248.7941 306.3848 247.8528 306 244.1333 C304.9566 234.0469 305.4672 231.9348 302 223.1333 C299.6125 217.0727 298.236 215.224 293 211.1333 C283.552 203.7521 280.1094 201.8095 270 198.1333 C266.4866 196.8557 264.6629 199.5388 260 199.1333 C253.7623 198.5909 247 196.1333 247 196.1333 "/>
<path id="5" d="M257 224.1333 C257 224.1333 250.7488 225.8497 250 227.1333 C249.0486 228.7643 249.0831 235.033 250 236.1333 C251.1547 237.5189 255.7787 238.4839 260 239.1333 C261.1484 239.31 262.4598 238.8536 263 238.1333 C264.5374 236.0835 265.0863 234.4836 266 231.1333 C266.4675 229.4193 266.1116 227.1668 266 227.1333 C265.098 226.8627 256 228.1333 256 228.1333 "/>
<path id="6" d="M267 198.1333 C267 198.1333 265.7518 206.2537 263 213.1333 C260.9444 218.2723 259.3118 218.1796 257 223.1333 C256.0127 225.249 255.9254 227.7605 256 228.1333 C256.0062 228.1644 258 228.1333 258 228.1333 "/>
<path id="7" d="M281 198.1333 C281 198.1333 277.8422 207.978 273 216.1333 C268.63 223.4933 262 230.1333 262 230.1333 "/>
<path id="8" d="M267 235.1333 C267 235.1333 281.8107 235.4955 295 238.1333 C300.9951 239.3324 307 243.1333 307 243.1333 "/>
<path id="9" d="M261 240.1333 C261 240.1333 270.9871 239.7358 276 242.1333 C279.8655 243.9821 279.5339 247.7837 284 251.1333 C290.8884 256.2997 300 260.1333 300 260.1333 "/>
<path id="10" d="M259 239.1333 C259 239.1333 258.8731 244.7627 257 249.1333 C253.1552 258.1046 247 267.1333 247 267.1333 "/>
<path id="11" d="M255 234.1333 L231 262.1333 "/>
<path id="12" d="M250 231.1333 C250 231.1333 245.2068 223.0061 240 220.1333 C232.9496 216.2434 229.775 218.5301 221 215.1333 C214.8345 212.7467 209 208.1333 209 208.1333 "/>
<path id="13" d="M255 228.1333 C255 228.1333 256.0396 220.0794 254 217.1333 C249.3305 210.3885 245.2866 207.7682 237 202.1333 C234.1484 200.1943 229 200.1333 229 200.1333 "/>
<path id="14" d="M249 232.1333 L203 232.1333 "/>
<path id="15" d="M250 238.1333 C250 238.1333 237.5779 237.32 227 239.1333 C221.1306 240.1395 220.7705 242.7594 215 244.1333 C211.0627 245.0708 206 244.1333 206 244.1333 "/>
<path id="16" d="M292 211.1333 L262 225.1333 "/>
<path id="17" d="M303 223.1333 C303 223.1333 290.8691 221.362 281 223.1333 C272.8102 224.6033 264 230.1333 264 230.1333 "/>
<path id="18" d="M260 243.1333 L262 268.1333 "/>
<path id="19" d="M263 242.1333 C263 242.1333 266.7458 257.574 272 269.1333 C273.4749 272.378 278 275.1333 278 275.1333 "/>
<path id="20" d="M259 199.1333 C259 199.1333 256.553 203.2621 256 207.1333 C255.147 213.1042 256 220.1333 256 220.1333 "/>
<path id="21" d="M246 244.1333 L220 255.1333 "/>
<path id="22" d="M203 148.1333 C203 148.1333 199.803 140.4289 200 140.1333 C200.2299 139.7886 207.7049 138.5446 209 139.1333 C209.7164 139.459 211 145.1333 211 145.1333 "/>
<path id="23" d="M205 142.1333 C205 142.1333 204.1075 130.1169 203 125.1333 C202.9083 124.7207 201 124.1333 201 124.1333 "/>
<path id="24" d="M323 205.1333 C323 205.1333 325.5274 205.3982 326 206.1333 C328.7203 210.3649 330.6951 212.7954 332 219.1333 C333.9438 228.5748 334.336 231.0483 333 240.1333 C332.1106 246.1815 330.9135 247.984 327 253.1333 C322.1238 259.5494 314.9306 264.4686 314 265.1333 C313.9815 265.1465 313 263.1333 313 263.1333 "/>
<path id="25" d="M317 207.1333 C317 207.1333 319.354 211.2573 320 215.1333 C320.76 219.6934 320.7981 221.6747 320 225.1333 C319.7053 226.4103 317 228.1333 317 228.1333 "/>
<path id="26" d="M285 292.1333 L335 294.1333 "/>
<path id="27" d="M244 289.1333 C244 289.1333 237.3551 288.6339 232 290.1333 C225.5984 291.9258 222.9091 295.7218 219 296.1333 C217.4001 296.3017 213 292.1333 213 292.1333 "/>
<path id="28" d="M409 252.1333 C409 252.1333 404.0187 254.2414 403 256.1333 C401.6562 258.629 401.0142 263.1617 402 265.1333 C403.3338 267.8008 406.9325 270.9944 411 272.1333 C416.938 273.796 420.7938 273.9065 427 272.1333 C432.5412 270.5501 436.5346 267.4206 439 264.1333 C440.1602 262.5864 440.0534 259.118 439 256.1333 C437.5361 251.9856 435.7127 248.4251 433 247.1333 C428.9184 245.1897 424.2607 244.8812 418 246.1333 C411.0624 247.5208 403 253.1333 403 253.1333 "/>
<path id="29" d="M406 273.1333 C406 273.1333 401.0283 271.4089 399 272.1333 C396.2084 273.1303 393.4827 275.168 392 278.1333 C389.9711 282.1912 389.0323 288.3915 390 290.1333 C391.1257 292.1595 396.3061 294.5805 402 296.1333 C406.1755 297.2721 408.355 297.3483 412 296.1333 C415.645 294.9183 418.1642 293.4115 420 290.1333 C423.9168 283.1391 426.4439 272.1197 426 271.1333 C425.789 270.6644 411 270.1333 411 270.1333 "/>
<path id="30" d="M441 267.1333 C441 267.1333 433.3673 267.7564 430 270.1333 C426.829 272.3717 425.6493 275.0102 424 279.1333 C423.132 281.3034 423.154 284.1181 424 285.1333 C426.0211 287.5586 429.5837 290.0818 434 291.1333 C438.1587 292.1235 441.5029 291.6633 445 290.1333 C447.3314 289.1134 448.9876 287.0017 450 284.1333 C451.4802 279.9394 451.9351 276.1257 451 273.1333 C450.3985 271.2084 445 268.1333 445 268.1333 "/>
<path id="31" d="M405 296.1333 C405 296.1333 392.5477 289.558 384 288.1333 C380.7468 287.5911 375 291.1333 375 291.1333 "/>
<path id="32" d="M456 291.1333 C456 291.1333 467.4712 286.9658 477 285.1333 C479.0679 284.7357 482 286.1333 482 286.1333 "/>
</g>
</g>
</svg>
