<?xml version="1.0" encoding="utf-8"?>
<!DOCTYPE svg PUBLIC "-//W3C//DTD SVG 1.1//EN" "http://www.w3.org/Graphics/SVG/1.1/DTD/svg11.dtd">
<svg viewBox="0 0 800 800" preserveAspectRatio="xMinYMin meet" xmlns="http://www.w3.org/2000/svg" version="1.1">
<g fill="none" stroke="black" stroke-linecap="round" stroke-linejoin="round" stroke-width="1.7041">
<g transform="translate(87.52,201.0691) scale(1.7605) translate(-5,-100.1333)">
<path id="0" d="M123 185.1333 C123 185.1333 129.9755 186.3798 136 185.1333 C158.0046 180.5807 158.7021 177.8087 181 173.1333 C189.076 171.44 189.943 173.8504 198 172.1333 C219.7923 167.4891 219.9912 163.4624 242 160.1333 C278.4647 154.6177 279.9217 158.2531 317 154.1333 C329.0328 152.7964 341 149.1333 341 149.1333 "/>
<path id="1" d="M151 246.1333 C151 246.1333 163.8678 240.5892 177 237.1333 C192.0814 233.1645 193.4159 235.7632 208 231.1333 C224.1529 226.0054 224.0693 220.8702 240 217.1333 C262.6531 211.8196 266.455 217.4878 289 212.1333 C304.4193 208.4712 304.2836 203.0728 320 198.1333 C338.4309 192.3408 349.257 193.0562 359 190.1333 C359.5177 189.978 360 186.1333 360 186.1333 "/>
<path id="2" d="M344 147.1333 C344 147.1333 342.3984 156.3124 343 164.1333 C343.3281 168.3993 344.0581 169.8043 346 173.1333 C346.9634 174.7849 349.9869 176.1137 350 176.1333 C350.0031 176.1379 348.0345 176.0471 348 176.1333 C347.7845 176.6721 347.1497 179.8965 348 181.1333 C351.1567 185.725 359 192.1333 359 192.1333 "/>
<path id="3" d="M344 151.1333 C344 151.1333 347.3169 151.0622 349 152.1333 C351.9319 153.9991 353.5592 155.2517 355 158.1333 C356.3608 160.8548 354.7951 163.0007 356 166.1333 C356.9396 168.5762 359.6654 168.9587 360 171.1333 C361.2512 179.266 360 192.1333 360 192.1333 "/>
<path id="4" d="M159 301.1333 C159 301.1333 162.5635 301.34 164 300.1333 C173.0522 292.5295 177.6707 291.0514 184 280.1333 C196.1389 259.1937 195.6005 255.632 204 231.1333 C207.3641 221.3214 207.1018 220.6123 208 210.1333 C210.0693 185.991 210.7056 184.7702 210 161.1333 C209.7388 152.3821 209.2106 151.2668 206 143.1333 C202.0084 133.0212 201.4166 130.8867 195 123.1333 C190.6437 117.8695 188.8635 117.4221 182 114.1333 C165.4648 106.2102 163.891 103.0528 147 100.1333 C126.2359 96.5445 123.7453 99.1299 101 100.1333 C90.0564 100.6161 88.7774 99.95 79 103.1333 C68.5397 106.539 67.0382 107.8066 58 114.1333 C52.9613 117.6604 52.4621 118.7478 49 124.1333 C43.7833 132.2482 43.3755 132.9713 40 142.1333 C36.5412 151.5216 35.8849 152.3995 35 162.1333 C33.9657 173.5111 33.6808 174.8685 36 186.1333 C40.4722 207.8555 40.7768 209.1184 49 230.1333 C58.5488 254.5359 59.6802 254.6956 72 278.1333 C80.0906 293.5251 80.4111 294.9929 90 308.1333 C93.0161 312.2665 94.2148 312.5699 99 315.1333 C107.7393 319.8151 109.0159 322.119 118 323.1333 C137.3587 325.319 145.2364 324.1038 161 322.1333 C163.0561 321.8763 163.3084 318.4792 166 317.1333 C172.2805 313.9931 181 312.1333 181 312.1333 "/>
<path id="5" d="M128 223.1333 C128 223.1333 135.1204 215.3244 143 209.1333 C148.8447 204.541 150.4311 205.9067 156 201.1333 C167.4584 191.3118 168.2029 190.8421 178 179.1333 C188.4008 166.7031 188.6495 165.9437 197 152.1333 C201.3897 144.8735 204 136.1333 204 136.1333 "/>
<path id="6" d="M137 184.1333 C137 184.1333 131.3542 186.935 126 187.1333 C92.2687 188.3826 90.4418 185.202 56 187.1333 C37.6295 188.1635 22.1245 189.6617 19 193.1333 C16.3684 196.0573 20.7073 213.6952 20 227.1333 C19.9134 228.7792 17.141 230.0056 17 231.1333 C16.8792 232.1 19 233.6762 19 235.1333 C19 237.319 16.9225 238.4224 17 241.1333 C17.3791 254.4013 18.0429 269.2635 20 270.1333 C27.3359 273.3937 54.537 272.0024 80 269.1333 C84.9936 268.5707 85.4485 263.9294 91 262.1333 C101.1675 258.8438 104.2099 262.0038 114 258.1333 C124.0124 254.1749 123.9876 249.0917 134 245.1333 C143.7901 241.2628 157 241.1333 157 241.1333 "/>
<path id="7" d="M17 223.1333 C17 223.1333 12.4295 222.9421 11 224.1333 C8.176 226.4867 5.5488 230.3891 5 233.1333 C4.7094 234.5862 7.1839 238.8069 8 239.1333 C8.937 239.5081 15 237.1333 15 237.1333 "/>
<path id="8" d="M125 217.1333 C125 217.1333 127.4105 215.7251 128 214.1333 C131.8135 203.8369 132.7852 202.038 135 190.1333 C136.6794 181.1063 134.885 180.0537 136 171.1333 C136.3061 168.6846 136.5416 167.7376 138 166.1333 C140.8391 163.0103 145.7077 160.8641 146 160.1333 C146.0763 159.9427 142.2757 157.7873 142 156.1333 C140.8186 149.0447 141.1291 145.9307 142 136.1333 C143.1041 123.7124 146 111.1333 146 111.1333 "/>
<path id="9" d="M127 218.1333 C127 218.1333 122.6796 205.604 116 195.1333 C104.5208 177.1389 101.6748 177.9889 90 160.1333 C85.0089 152.4998 86.6979 150.9631 82 143.1333 C77.9055 136.3092 75.4179 136.3477 72 130.1333 C70.6051 127.5972 71 123.1333 71 123.1333 "/>
<path id="10" d="M129 223.1333 C129 223.1333 109.536 229.5676 91 237.1333 C85.2973 239.461 84.6032 239.6133 80 243.1333 C76.6475 245.697 77.1626 248.1567 74 250.1333 C70.3802 252.3957 64 253.1333 64 253.1333 "/>
<path id="11" d="M118 221.1333 C118 221.1333 109.0178 212.2312 99 206.1333 C86.5667 198.5652 85.6951 198.5543 72 193.1333 C62.0415 189.1914 51 187.1333 51 187.1333 "/>
<path id="12" d="M132 225.1333 C132 225.1333 127.4191 229.2951 125 234.1333 C116.7751 250.5832 116.3852 251.3322 110 269.1333 C99.9659 297.1072 92.0031 326.1221 92 326.1333 C91.9996 326.1346 96 320.1333 96 320.1333 "/>
<path id="13" d="M134 222.1333 C134 222.1333 145.0955 229.857 156 235.1333 C159.8421 236.9924 162.136 235.0876 165 237.1333 C170.8457 241.3088 170.5292 245.1558 177 250.1333 C182.7015 254.5191 191 257.1333 191 257.1333 "/>
<path id="14" d="M133 219.1333 C133 219.1333 142.3891 220.3075 151 219.1333 C163.8293 217.3839 163.9888 215.2576 177 213.1333 C188.2495 211.2967 200 211.1333 200 211.1333 "/>
<path id="15" d="M133 231.1333 C133 231.1333 135 231.9113 135 232.1333 C135 235.6862 132.1891 240.8354 133 248.1333 C134.5304 261.9069 135.484 263.2842 140 277.1333 C142.8308 285.8143 145.3186 285.7911 148 294.1333 C149.5511 298.959 147.5453 300.5267 149 305.1333 C150.2314 309.0329 154 313.1333 154 313.1333 "/>
</g>
</g>
</svg>
