<?xml version="1.0" encoding="utf-8"?>
<!DOCTYPE svg PUBLIC "-//W3C//DTD SVG 1.1//EN" "http://www.w3.org/Graphics/SVG/1.1/DTD/svg11.dtd">
<svg viewBox="0 0 800 800" preserveAspectRatio="xMinYMin meet" xmlns="http://www.w3.org/2000/svg" version="1.1">
<g fill="none" stroke="black" stroke-linecap="round" stroke-linejoin="round" stroke-width="1.6801">
<g transform="translate(87.52,182.1568) scale(1.7856) translate(-36,-209)">
<path id="0" d="M147 378 C147 378 142.815 369.3134 142 361 C140.4156 344.8391 139.8791 342.4525 142 327 C143.1204 318.8371 144.3772 316.9342 149 310 C153.6228 303.0658 155.0766 302.3257 162 297 C167.5341 292.743 168.3062 292.282 175 290 C189.673 284.9978 190.9725 283.2351 206 282 C225.859 280.3678 230.1589 279.5397 248 284 C260.4888 287.1222 264.5892 290.0373 274 299 C283.2995 307.8567 285.6311 311.4891 290 324 C295.7269 340.3998 295.6898 344.6285 296 362 C296.1458 370.1648 294.9769 372.6742 291 380 C286.2771 388.7001 284.9393 391.3763 277 397 C262.9633 406.9427 259.5859 408.9172 243 414 C230.8966 417.7091 228.199 417.1378 215 416 C200.4843 414.7486 199.0349 413.7778 185 409 C176.3043 406.0398 174.8582 405.5723 168 400 C159.8724 393.3963 158.125 391.7125 153 383 C149.0424 376.2721 149.5402 374.3172 148 366 C147.1408 361.3602 148 356 148 356 "/>
<path id="1" d="M170 338 C170 338 168.002 326.6973 170 324 C173.9695 318.6412 179.929 315.3899 190 311 C198.1393 307.4521 199.6085 307.7088 209 307 C225.5431 305.7515 232.3903 302.9964 243 307 C251.284 310.126 255.916 316.7789 262 327 C266.969 335.3479 266.2942 338.1964 268 349 C269.1894 356.5328 269.0081 357.4393 268 365 C267.0843 371.8677 267.1517 374.1673 264 379 C260.9308 383.7061 258.7555 384.7769 253 388 C246.9718 391.3758 245.7925 392.0821 239 393 C228.3546 394.4386 226.6479 394.694 216 393 C205.7624 391.3713 202.7543 391.0957 195 386 C187.5746 381.1204 188.251 376.9057 181 370 C178.3193 367.4469 175.9139 368.512 174 366 C169.1079 359.5791 166.7163 356.3554 165 349 C163.8738 344.1734 164.8715 340.0442 167 336 C168.5466 333.0615 175 330 175 330 "/>
<path id="2" d="M218 346 C218 346 222.655 345.5257 223 346 C224.2505 347.7194 226.3071 356.7165 226 357 C225.2734 357.6707 215.4859 358.3048 210 358 C209.2736 357.9596 208.2914 356.8743 208 356 C207.5629 354.6886 207.3839 352.6778 208 352 C210.4786 349.2736 218 345 218 345 "/>
<path id="3" d="M216 311 L215 346 "/>
<path id="4" d="M229 310 L226 351 "/>
<path id="5" d="M226 349 C226 349 235.8284 340.5772 246 336 C254.755 332.0602 266 331 266 331 "/>
<path id="6" d="M232 352 C232 352 228.9951 354 229 354 C229.0311 354 238.7143 353.6667 248 352 C258.0237 350.2009 268 347 268 347 "/>
<path id="7" d="M227 355 L254 383 "/>
<path id="8" d="M218 364 C218 364 222.6528 365.0452 223 366 C224.9179 371.2741 223.5364 376.7616 226 386 C227.3423 391.0337 231 396 231 396 "/>
<path id="9" d="M215 359 C215 359 216.0447 363.5865 215 365 C209.852 371.9649 198 382 198 382 "/>
<path id="10" d="M207 352 L181 365 "/>
<path id="11" d="M174 324 C174 324 178.4942 322.9012 180 324 C192.7244 333.2854 211 351 211 351 "/>
<path id="12" d="M199 321 C199 321 191.0051 314.0061 191 314 C190.9987 313.9984 193.5342 314.2476 194 315 C198.2698 321.8974 198.4029 325.7812 204 335 C206.6299 339.3316 211 343 211 343 "/>
<path id="13" d="M284 303 C284 303 289.8417 296.9651 296 294 C302.3818 290.9273 304.3373 293.2437 311 290 C341.2975 275.2499 341.8085 272.0958 372 257 C376.8696 254.5652 381.1654 255.9657 383 254 C385.0467 251.8072 386.5558 247.0021 386 242 C384.8196 231.3765 383.3553 229.0558 379 218 C377.1503 213.3047 375.1183 209.5931 373 209 C368.4154 207.7163 362.7576 208.4052 354 211 C323.3734 220.0746 323.2816 223.8313 292 233 C265.714 240.7045 264.1671 238.1563 238 245 C232.3636 246.4741 232.4808 249.1281 227 250 C190.5567 255.7978 187.3504 251.9585 150 259 C127.3898 263.2626 126.6381 264.8037 105 273 C94.1744 277.1006 92.3556 277.1836 84 284 C74.7127 291.5765 73.8661 293.8643 67 304 C64.0132 308.4091 63.5908 309.6828 63 315 C61.7094 326.6153 62.3835 334.6572 63 340 C63.0332 340.2877 65.6046 340.3673 66 341 C67.1347 342.8155 66.387 345.3788 68 348 C69.8994 351.0866 70.7004 351.5612 74 354 C81.9465 359.8735 82.5362 361.7085 91 365 C99.0219 368.1196 100.627 367.6095 110 368 C124.1922 368.5913 139 367 139 367 "/>
<path id="14" d="M117 370 C117 370 118.595 387.0501 117 403 C115.666 416.3399 112.451 425.1027 111 430 C110.9701 430.1008 109.0678 429.8644 109 430 C108.5594 430.8813 108.6589 435.6156 108 436 C106.3038 436.9894 101.5869 435.6509 97 437 C94.0854 437.8572 93.7594 440.3507 91 441 C86.627 442.0289 80.1041 440.7917 80 441 C79.8201 441.3598 83.3454 452.6061 85 453 C92.6913 454.8313 104.3321 453.9007 122 451 C136.8987 448.5539 139.1036 446.931 152 442 C154.1324 441.1847 154.3029 438.3771 156 438 C160.8599 436.92 168.5216 438.6336 170 438 C170.2716 437.8836 170.9186 432.976 170 432 C166.0105 427.7612 158.5023 426.9349 154 421 C149.6117 415.2155 151.6641 410.9945 148 403 C146.5358 399.8054 143.281 399.3421 143 397 C142.2011 390.3428 145 378 145 378 "/>
<path id="15" d="M65 324 C65 324 65.0405 325.9932 65 326 C63.5405 326.2432 58.6746 325.1593 53 326 C45.6266 327.0924 42.2682 327.7403 38 330 C36.8413 330.6134 36 332.8022 36 335 C36 342.0331 35.3464 345.4887 38 351 C40.5493 356.2947 43.8794 359.207 49 362 C52.4776 363.8969 55.6931 364.1166 60 363 C67.2474 361.121 71.4558 358.475 76 355 C76.991 354.2422 77 350 77 350 "/>
<path id="16" d="M107 274 C107 274 108.1281 278.6797 108 279 C107.9666 279.0836 104.9993 278.9995 105 279 C105.0017 279.0011 111 281 111 281 "/>
</g>
</g>
</svg>
