<?xml version="1.0" encoding="utf-8"?>
<!DOCTYPE svg PUBLIC "-//W3C//DTD SVG 1.1//EN" "http://www.w3.org/Graphics/SVG/1.1/DTD/svg11.dtd">
<svg viewBox="0 0 800 800" preserveAspectRatio="xMinYMin meet" xmlns="http://www.w3.org/2000/svg" version="1.1">
<g fill="none" stroke="black" stroke-linecap="round" stroke-linejoin="round" stroke-width="2.7506">
<g transform="translate(87.52,220.583) scale(1.0907) translate(-21,-93.4167)">
<path id="0" d="M216 273.4167 C216 273.4167 204.3368 271.2588 197 273.4167 C190.0721 275.4543 187.9139 277.5027 182 283.4167 C173.2474 292.1693 172.0856 293.5684 166 304.4167 C161.1424 313.0759 160.5128 314.6912 159 324.4167 C157.2066 335.9458 157.1501 338.0533 159 349.4167 C160.4162 358.1163 161.152 359.7984 166 367.4167 C174.4988 380.7719 175.4036 382.5604 187 393.4167 C197.9597 403.6769 200.5599 406.7223 213 411.4167 C223.529 415.3899 227.5561 414.2849 240 413.4167 C247.5741 412.8882 248.6218 411.7895 256 408.4167 C265.6954 403.9845 267.9527 404.2962 275 397.4167 C287.3906 385.3211 288.9009 382.1153 298 367.4167 C300.8502 362.8125 300.479 361.3213 301 355.4167 C301.9345 344.8251 303.1111 343.1278 301 333.4167 C298.4883 321.8631 297.0976 320.2261 291 309.4167 C286.5217 301.4779 285.6212 301.0378 279 294.4167 C270.417 285.8337 269.9269 285.0346 260 278.4167 C252.527 273.4347 251.0706 271.6123 243 270.4167 C226.5794 267.984 206 270.4167 206 270.4167 "/>
<path id="1" d="M227 288.4167 C227 288.4167 226.3604 286.4968 226 286.4167 C224.0041 285.9731 220.6681 285.3494 218 286.4167 C214.865 287.6707 212.3132 289.4984 211 292.4167 C208.8615 297.1689 208.4784 300.9395 209 306.4167 C209.2788 309.3441 210.6252 311.2398 213 313.4167 C215.6598 315.8548 217.2027 316.404 221 317.4167 C223.9318 318.1985 225.8979 318.3869 228 317.4167 C230.6335 316.2012 233.3269 313.9969 234 311.4167 C235.5126 305.6185 235.9832 299.573 234 294.4167 C232.5014 290.5203 224 285.4167 224 285.4167 "/>
<path id="2" d="M191 334.4167 C191 334.4167 185.4809 332.1846 182 332.4167 C179.566 332.5789 178.3243 333.515 176 335.4167 C173.2758 337.6456 172.0816 338.5325 171 341.4167 C169.5751 345.2165 168.9145 349.3663 170 351.4167 C171.4091 354.0783 175.42 357.2293 180 358.4167 C186.59 360.1252 190.2527 359.3806 197 358.4167 C198.7577 358.1656 200.6384 356.7185 201 355.4167 C202.3438 350.5788 203.5342 345.2111 202 340.4167 C200.6539 336.2101 196.7218 333.0751 193 330.4167 C191.8472 329.5933 188 330.4167 188 330.4167 "/>
<path id="3" d="M227 370.4167 C227 370.4167 219.6949 369.5364 215 370.4167 C213.2149 370.7514 212.425 371.7542 211 373.4167 C209.7333 374.8944 209.1041 375.6469 209 377.4167 C208.6728 382.9788 208.5167 386.2139 210 390.4167 C210.6404 392.2311 212.8083 394.0355 215 394.4167 C221.9264 395.6213 226.5742 395.3346 233 394.4167 C234.224 394.2418 235.7358 392.7379 236 391.4167 C237.2625 385.1043 238.0249 380.0538 237 374.4167 C236.6399 372.436 234.1956 370.4147 232 369.4167 C230.1886 368.5933 226 369.4167 226 369.4167 "/>
<path id="4" d="M272 330.4167 C272 330.4167 264.8157 328.1623 261 328.4167 C259.5252 328.515 258.2609 329.6829 257 331.4167 C254.6721 334.6175 254.0126 335.6193 253 339.4167 C252.2182 342.3484 251.9712 344.0652 253 346.4167 C254.7728 350.4688 257.0135 354.1367 260 355.4167 C263.8511 357.0671 268.4832 356.3361 274 355.4167 C275.7732 355.1211 277.7521 353.594 278 352.4167 C279.0321 347.514 279.5575 340.5051 278 336.4167 C277.2166 334.3603 270 331.4167 270 331.4167 "/>
<path id="5" d="M226 332.4167 C226 332.4167 220.8165 330.9473 218 331.4167 C216.382 331.6863 215.4938 332.7095 214 334.4167 C212.2477 336.4193 211.4081 337.1039 211 339.4167 C210.1143 344.4358 209.8831 349.0234 211 351.4167 C211.5833 352.6665 214.6569 353.9988 218 354.4167 C225.7062 355.3799 233.6602 355.6076 235 354.4167 C236.1997 353.3503 237.3854 341.3261 236 338.4167 C235.0863 336.4979 225 333.4167 225 333.4167 "/>
<path id="6" d="M220 340.4167 C220 340.4167 217.4371 342.1053 217 343.4167 C216.3443 345.3838 216.7858 349.3343 217 349.4167 C218.1711 349.8671 229.0022 349.1651 230 348.4167 C230.3629 348.1445 230.1739 342.5689 229 340.4167 C228.2132 338.9742 226.0814 337.7951 224 337.4167 C221.8162 337.0196 218 338.4167 218 338.4167 "/>
<path id="7" d="M221 324.4167 C221 324.4167 221.5669 327.2001 222 327.4167 C222.8662 327.8498 226.7439 327.724 227 327.4167 C227.3689 326.974 227.5025 322.0029 227 321.4167 C226.4856 320.8165 221 320.4167 221 320.4167 "/>
<path id="8" d="M224 358.4167 C224 358.4167 220.5639 359.5708 220 360.4167 C219.5167 361.1417 219.8739 364.3694 220 364.4167 C220.6412 364.6571 227.8237 363.6987 228 363.4167 C228.1506 363.1758 225 356.4167 225 356.4167 "/>
<path id="9" d="M222 322.4167 L220 356.4167 "/>
<path id="10" d="M229 323.4167 L229 364.4167 "/>
<path id="11" d="M227 129.4167 L227 272.4167 "/>
<path id="12" d="M226 130.4167 C226 130.4167 230.2948 123.5936 233 123.4167 C269.2724 121.0437 333 123.4167 333 123.4167 "/>
<path id="13" d="M335 124.4167 L387 259.4167 "/>
<path id="14" d="M387 261.4167 L449 261.4167 "/>
<path id="15" d="M451 262.4167 L475 296.4167 "/>
<path id="16" d="M477 298.4167 C477 298.4167 489.8703 299.3695 501 303.4167 C522.0837 311.0835 522.1006 314.4893 543 322.4167 C550.2789 325.1776 551.6611 322.8381 559 325.4167 C569.5489 329.123 570.0686 332.213 580 335.4167 C584.0995 336.7391 590 335.4167 590 335.4167 "/>
<path id="17" d="M593 339.4167 L593 421.4167 "/>
<path id="18" d="M591 335.4167 L593 338.4167 "/>
<path id="19" d="M594 422.4167 L509 422.4167 "/>
<path id="20" d="M274 396.4167 L369 397.4167 "/>
<path id="21" d="M369 398.4167 C369 398.4167 395.4456 396.8388 419 400.4167 C433.2903 402.5874 433.4197 406.6366 448 410.4167 C460.0163 413.532 461.0627 411.4324 473 414.4167 C480.5756 416.3106 480.5153 418.6556 488 420.4167 C496.8797 422.506 507 422.4167 507 422.4167 "/>
<path id="22" d="M285 143.4167 C285 143.4167 278.267 142.8581 276 144.4167 C272.753 146.649 270.7779 149.8449 269 154.4167 C267.882 157.2915 268.2376 159.3673 269 162.4167 C269.4526 164.2273 270.6085 165.9772 272 166.4167 C277.4286 168.131 282.6867 169.3407 288 168.4167 C290.7305 167.9418 294.291 164.7799 295 162.4167 C296.1991 158.4195 296.0008 151.6488 294 148.4167 C292.0252 145.2267 282 141.4167 282 141.4167 "/>
<path id="23" d="M275 100.4167 C275 100.4167 267.1229 105.0092 262 110.4167 C258.8465 113.7454 257.2421 115.3489 257 119.4167 C255.0468 152.2298 253.5871 183.7685 257 194.4167 C257.5011 195.9802 269.6421 196.855 282 197.4167 C291.3187 197.8402 301 196.4167 301 196.4167 "/>
<path id="24" d="M274 99.4167 C274 99.4167 299.1165 99.46 302 101.4167 C303.133 102.1855 300.8806 110.5806 302 118.4167 C302.762 123.7504 305.7339 124.161 306 129.4167 C307.6153 161.3187 306 197.4167 306 197.4167 "/>
<path id="25" d="M24 113.4167 L21 155.4167 "/>
<path id="26" d="M27 113.4167 L263 113.4167 "/>
<path id="27" d="M21 159.4167 L234 160.4167 "/>
<path id="28" d="M302 107.4167 C302 107.4167 345.6147 111.3479 386 108.4167 C405.597 106.9943 406.3221 101.5905 426 98.4167 C436.4034 96.7387 448 98.4167 448 98.4167 "/>
<path id="29" d="M351 160.4167 C351 160.4167 369.3938 159.5172 386 162.4167 C399.8919 164.8422 400.014 168.9924 414 171.4167 C436.5656 175.328 438.3051 172.3394 461 175.4167 C466.9873 176.2285 473 179.4167 473 179.4167 "/>
<path id="30" d="M441 97.4167 L472 94.4167 "/>
<path id="31" d="M476 93.4167 L476 178.4167 "/>
<path id="32" d="M478 109.4167 L495 109.4167 "/>
<path id="33" d="M495 109.4167 L495 160.4167 "/>
<path id="34" d="M476 162.4167 L495 162.4167 "/>
<path id="35" d="M499 123.4167 L512 123.4167 "/>
<path id="36" d="M512 125.4167 L512 143.4167 "/>
<path id="37" d="M494 146.4167 L512 146.4167 "/>
<path id="38" d="M473 181.4167 C473 181.4167 454.9399 178.6864 437 178.4167 C388.7298 177.6908 373.964 174.7852 340 179.4167 C334.787 180.1275 332.4728 186.1196 327 193.4167 C323.8315 197.6413 322.6544 198.8356 322 203.4167 C320.9093 211.0518 320.2787 215.2483 323 221.4167 C326.2726 228.8345 329.8318 231.9026 337 237.4167 C341.1081 240.5768 343.1547 240.6373 349 241.4167 C357.3948 242.536 358.5601 242.3544 367 241.4167 C371.3762 240.9304 372.152 240.7091 376 238.4167 C394.8679 227.1762 394.5681 223.2734 414 213.4167 C427.8307 206.4011 431.8664 210.4699 445 203.4167 C456.9901 196.9776 463.6341 189.6141 468 184.4167 C468.4922 183.8307 466 178.4167 466 178.4167 "/>
<path id="39" d="M342 187.4167 C342 187.4167 334.1009 188.9802 331 191.4167 C329.1363 192.881 328.3019 195.0958 328 198.4167 C326.9207 210.2887 327.2513 213.56 328 224.4167 C328.0904 225.727 328.7678 226.4925 330 227.4167 C334.2041 230.5697 335.4195 232.7921 340 233.4167 C354.396 235.3798 361.4697 237.5934 374 233.4167 C387.2674 228.9942 388.5828 220.2521 403 212.4167 C409.8402 208.6992 412.7778 211.4722 420 208.4167 C424.6216 206.4614 424.2287 203.9858 429 201.4167 C436.7605 197.2379 438.5032 198.8114 446 194.4167 C452.3454 190.697 455.5549 187.7509 458 184.4167 C458.5549 183.66 457.1669 179.4167 457 179.4167 C436.8067 179.4167 336 184.4167 336 184.4167 "/>
<path id="40" d="M342 243.4167 C342 243.4167 339.3193 250.9938 339 258.4167 C337.3531 296.7073 335.3089 324.3067 338 336.4167 C338.2499 337.5412 356.9855 339.4886 357 339.4167 C358.6774 331.1179 357 242.4167 357 242.4167 "/>
<path id="41" d="M335 294.4167 L360 294.4167 "/>
<path id="42" d="M337 299.4167 L364 299.4167 "/>
<path id="43" d="M356 284.4167 C356 284.4167 345.371 282.4965 341 283.4167 C339.5067 283.7311 337.4669 286.1989 337 288.4167 C335.8811 293.7312 336.1272 297.4708 337 302.4167 C337.22 303.6635 338.776 305.2418 340 305.4167 C346.4258 306.3346 356.7536 306.663 358 305.4167 C359.3849 304.0318 359.8862 293.5064 359 286.4167 C358.7418 284.3508 355 281.4167 355 281.4167 "/>
<path id="44" d="M323 272.4167 L322 338.4167 "/>
<path id="45" d="M321 273.4167 L372 272.4167 "/>
<path id="46" d="M372 272.4167 L373 325.4167 "/>
<path id="47" d="M324 336.4167 C324 336.4167 371.4451 336.692 376 335.4167 C376.1429 335.3767 374 322.4167 374 322.4167 "/>
<path id="48" d="M532 377.4167 L530 395.4167 "/>
<path id="49" d="M532 378.4167 C532 378.4167 531.4583 376.139 532 375.4167 C535.9726 370.1199 544 362.4167 544 362.4167 "/>
<path id="50" d="M545 363.4167 L561 372.4167 "/>
<path id="51" d="M562 373.4167 L562 396.4167 "/>
<path id="52" d="M534 397.4167 L533 397.4167 "/>
<path id="53" d="M531 399.4167 L547 409.4167 "/>
<path id="54" d="M549 410.4167 L562 392.4167 "/>
<path id="55" d="M547 379.4167 C547 379.4167 541.4858 380.4452 541 381.4167 C539.7856 383.8454 539.3347 390.0902 540 393.4167 C540.2142 394.4879 542.3645 396.183 544 396.4167 C547.6404 396.9367 553.3064 396.249 554 395.4167 C554.8175 394.4357 555.4736 387.5276 554 384.4167 C552.3572 380.9486 545 376.4167 545 376.4167 "/>
<path id="56" d="M547 383.4167 C547 383.4167 544.7116 389.5514 545 390.4167 C545.167 390.9176 549.9633 392.4681 550 392.4167 C550.2103 392.1223 550.4531 385.6823 550 383.4167 C549.9295 383.0642 548 382.4167 548 382.4167 "/>
<path id="57" d="M228 255.4167 C228 255.4167 204.033 253.5243 187 256.4167 C181.4733 257.3552 180.038 259.9385 175 264.4167 C171.5437 267.4889 171.8612 270.0757 169 272.4167 C167.6731 273.5023 165.4647 272.2899 164 273.4167 C160.2112 276.3311 158.2714 277.6065 156 282.4167 C150.4448 294.1806 148.6204 296.2736 147 309.4167 C144.3483 330.9246 146.1845 332.9908 147 355.4167 C147.1608 359.8398 147.0633 360.8412 149 364.4167 C153.0255 371.8484 155.5799 371.9364 160 379.4167 C161.6821 382.2633 160.3452 383.8426 162 386.4167 C164.2967 389.9894 165.1594 391.201 169 393.4167 C177.2164 398.1569 179.4923 396.6901 188 401.4167 C192.3144 403.8135 192.2244 407.3205 196 408.4167 C204.8744 410.9931 219 410.4167 219 410.4167 "/>
<path id="58" d="M191 276.4167 C191 276.4167 190.9856 264.431 192 263.4167 C192.8695 262.5472 202.0501 262.4417 204 263.4167 C204.8937 263.8635 206 270.4167 206 270.4167 "/>
<path id="59" d="M159 352.4167 C159 352.4167 153.9281 349.0462 153 346.4167 C151.7424 342.8535 152.1186 340.4848 153 335.4167 C154.0173 329.5673 157 323.4167 157 323.4167 "/>
</g>
</g>
</svg>
