<?xml version="1.0" encoding="utf-8"?>
<!DOCTYPE svg PUBLIC "-//W3C//DTD SVG 1.1//EN" "http://www.w3.org/Graphics/SVG/1.1/DTD/svg11.dtd">
<svg viewBox="0 0 800 800" preserveAspectRatio="xMinYMin meet" xmlns="http://www.w3.org/2000/svg" version="1.1">
<g fill="none" stroke="black" stroke-linecap="round" stroke-linejoin="round" stroke-width="2.5586">
<g transform="translate(87.52,280.4017) scale(1.1725) translate(-92,-101)">
<path id="0" d="M275 180 C275 180 262.6307 178.0365 257 181 C247.8821 185.7989 244.1452 190.4731 237 200 C233.6376 204.4832 233.5389 206.6674 233 213 C231.6264 229.1397 231.8676 231.1461 233 247 C233.2736 250.8303 233.8209 251.6673 236 255 C241.9399 264.0846 242.5228 265.8219 250 273 C254.0063 276.8461 255.3719 276.9155 261 279 C268.441 281.7559 269.1365 282.4175 277 283 C295.3363 284.3582 296.5978 283.8001 315 283 C318.9162 282.8297 319.6342 282.6829 323 281 C328.0487 278.4756 328.4581 277.893 333 274 C338.799 269.0294 342.6031 267.8891 344 263 C347.0901 252.1848 346.0703 246.9845 345 232 C344.1225 219.7148 343.5995 218.6983 340 207 C337.809 199.8793 337.2446 198.9924 333 193 C329.1752 187.6003 328.2355 185.6177 323 183 C314.2742 178.6371 311.702 177.9069 301 177 C283.4481 175.5126 264 178 264 178 "/>
<path id="1" d="M285 217 C285 217 278.531 216.3097 276 217 C275.2075 217.2161 274.1204 218.676 274 220 C273.2813 227.9061 272.7785 231.6713 274 239 C274.3643 241.1858 276.1843 243.4704 278 244 C284.8471 245.9971 293.4254 247.5249 298 246 C300.5239 245.1587 303.2181 240.0911 305 235 C306.1923 231.5933 306.2168 229.1288 305 226 C303.4152 221.9248 301.3513 218.6028 298 217 C292.973 214.5958 282 215 282 215 "/>
<path id="2" d="M286 215 L286 176 "/>
<path id="3" d="M286 246 L286 285 "/>
<path id="4" d="M232 229 L274 228 "/>
<path id="5" d="M306 229 L345 229 "/>
<path id="6" d="M249 190 C249 190 263.4038 198.0435 273 207 C276.9155 210.6545 279 218 279 218 "/>
<path id="7" d="M301 219 L328 192 "/>
<path id="8" d="M303 241 C303 241 305.4769 240.4769 306 241 C316.2876 251.2876 334 272 334 272 "/>
<path id="9" d="M243 264 L276 244 "/>
<path id="10" d="M270 208 C270 208 260.5884 248.5539 262 250 C263.9749 252.0231 306.7462 253.4358 311 250 C314.2054 247.411 316.1077 210.2131 314 208 C311.7948 205.6846 271 208 271 208 "/>
<path id="11" d="M262 178 C262 178 219.2666 161.5378 176 150 C144.8925 141.7047 112 138 112 138 "/>
<path id="12" d="M337 194 C337 194 357.3155 204.692 378 214 C387.1632 218.1235 387.5961 218.5732 397 221 C402.5403 222.4297 409 222 409 222 "/>
<path id="13" d="M410 222 L410 153 "/>
<path id="14" d="M112 138 L117 106 "/>
<path id="15" d="M121 105 C121 105 125.4795 104.0873 129 105 C138.1599 107.3748 138.7948 111.2973 148 112 C200.8861 116.0371 208.6769 106.5434 260 115 C291.1531 120.1332 292.5667 133.0733 324 141 C347.0578 146.8146 352.2546 141.2549 375 144 C378.3137 144.3999 378.741 147.4332 382 148 C388.7757 149.1784 390.636 146.909 398 148 C403.3355 148.7904 409 152 409 152 "/>
<path id="16" d="M411 152 C411 152 409.9449 146.462 411 144 C412.1305 141.3621 414.3849 138.8258 417 138 C421.3062 136.6402 429.8502 137.5184 430 138 C431.6788 143.3961 431.7835 161.8451 431 183 C430.8412 187.2867 428.3185 187.6471 428 192 C426.8945 207.1086 429.0721 208.6336 428 224 C427.6245 229.3827 426.0917 234.4541 425 235 C423.2019 235.8991 412.6038 234.8805 410 233 C408.2671 231.7484 407 222 407 222 "/>
<path id="17" d="M432 136 C432 136 432.7773 132.0699 434 131 C435.4864 129.6994 437.076 129.4177 440 129 C443.7214 128.4684 445.4219 127.8721 448 129 C451.565 130.5597 453.27 132.0756 456 136 C460.6854 142.7353 462.3833 144.2755 464 152 C466.4889 163.8916 465.8175 165.9204 465 179 C464.3551 189.318 464.5903 190.6254 461 200 C456.0028 213.0483 454.8136 214.2796 447 226 C443.3143 231.5285 441.9359 233.0385 437 236 C433.5449 238.0731 427 238 427 238 "/>
<path id="18" d="M461 140 C461 140 467.6217 138.5312 471 140 C476.8606 142.5481 478.2409 144.4395 484 150 C492.4853 158.1927 492.5483 158.7741 500 168 C502.901 171.5917 504.4836 172.2995 505 176 C507.0861 190.9506 508.179 199.0153 506 211 C505.3343 214.6611 501.7595 216.5626 497 220 C493.3494 222.6366 492.3102 223.551 488 224 C470.1013 225.8644 449 225 449 225 "/>
<path id="19" d="M517 181 C517 181 513.0616 183.7061 513 185 C512.7521 190.205 514.2654 200.3618 516 202 C517.3654 203.2896 525.9482 203.4434 531 202 C533.598 201.2577 535.9449 198.6379 537 196 C538.1305 193.1737 537.9425 190.2987 537 187 C536.3567 184.7485 534.8677 182.6226 533 182 C527.1771 180.059 516 180 516 180 "/>
<path id="20" d="M112 105 L105 137 "/>
<path id="21" d="M105 139 C105 139 94.8174 129.2355 92 121 C89.4898 113.6624 90.8 102.6 92 101 C92.675 100.1 101.6835 100.1139 107 101 C108.2405 101.2068 110 104 110 104 "/>
<path id="22" d="M314 208 C314 208 320.6124 207.9009 326 210 C358.0024 222.4685 359.4155 225.4527 391 238 C394.4841 239.3841 396.2726 237.4415 399 239 C405.1367 242.5067 405.4753 246.6168 412 250 C417.4265 252.8137 419.9509 250.4075 426 253 C433.0667 256.0286 432.8951 258.5896 440 262 C444.8245 264.3158 445.6692 264.9102 451 265 C531.5608 266.3578 618 265 618 265 "/>
<path id="23" d="M310 253 C310 253 321.6459 260.9151 334 267 C354.9363 277.3119 355.2368 277.2947 377 286 C402.6342 296.2537 404.0638 302.4616 429 305 C482.0756 310.4029 487.2008 307.0571 544 303 C584.3796 300.1157 613.2425 296.3707 625 291 C626.5526 290.2908 625.6709 275.0572 625 266 C624.9424 265.2217 623 264 623 264 "/>
</g>
</g>
</svg>
