<?xml version="1.0" encoding="utf-8"?>
<!DOCTYPE svg PUBLIC "-//W3C//DTD SVG 1.1//EN" "http://www.w3.org/Graphics/SVG/1.1/DTD/svg11.dtd">
<svg viewBox="0 0 800 800" preserveAspectRatio="xMinYMin meet" xmlns="http://www.w3.org/2000/svg" version="1.1">
<g fill="none" stroke="black" stroke-linecap="round" stroke-linejoin="round" stroke-width="1.2433">
<g transform="translate(87.52,197.3103) scale(2.413) translate(-104,-179.1333)">
<path id="0" d="M104 182.1333 C104 182.1333 261.6723 183.2129 352 182.1333 C353.1057 182.1201 354.9978 179.1037 355 179.1333 C355.0344 179.5919 353.7554 200.9757 355 222.1333 C355.7304 234.55 359 247.1333 359 247.1333 "/>
<path id="1" d="M106 183.1333 C106 183.1333 104.0769 247.6449 106 248.1333 C135.3274 255.5816 358 247.1333 358 247.1333 "/>
<path id="2" d="M115 251.1333 C115 251.1333 112.973 346.7505 113 347.1333 C113.0029 347.175 116.3302 340.2643 121 336.1333 C128.5366 329.4664 138.1272 328.6427 139 324.1333 C143.5657 300.5439 139 243.1333 139 243.1333 "/>
<path id="3" d="M311 252.1333 C311 252.1333 309.1453 282.9419 311 311.1333 C311.5447 319.4135 315.354 327.3698 316 328.1333 C316.0328 328.1721 320.2287 326.436 322 324.1333 C324.4829 320.9055 323.6487 317.4846 326 315.1333 C327.9895 313.1438 331.7793 313.9099 334 312.1333 C335.2812 311.1084 335.9668 309.4564 336 307.1333 C336.4289 277.1112 335 242.1333 335 242.1333 "/>
<path id="4" d="M109 199.1333 L363 199.1333 "/>
<path id="5" d="M104 213.1333 C104 213.1333 111.2386 209.2378 118 209.1333 C235.8039 207.314 363 209.1333 363 209.1333 "/>
<path id="6" d="M108 231.1333 C108 231.1333 108.734 229.1355 109 229.1333 C173.6612 228.6119 356 229.1333 356 229.1333 "/>
<path id="7" d="M168 181.1333 C168 181.1333 166.8468 204.3585 168 227.1333 C168.8323 243.572 172 260.1333 172 260.1333 "/>
<path id="8" d="M274 190.1333 L276 254.1333 "/>
<path id="9" d="M334 311.1333 L311 322.1333 "/>
<path id="10" d="M328 314.1333 L323 317.1333 "/>
</g>
</g>
</svg>
