<?xml version="1.0" encoding="utf-8"?>
<!DOCTYPE svg PUBLIC "-//W3C//DTD SVG 1.1//EN" "http://www.w3.org/Graphics/SVG/1.1/DTD/svg11.dtd">
<svg viewBox="0 0 800 800" preserveAspectRatio="xMinYMin meet" xmlns="http://www.w3.org/2000/svg" version="1.1">
<g fill="none" stroke="black" stroke-linecap="round" stroke-linejoin="round" stroke-width="1.7761">
<g transform="translate(87.52,242.9155) scale(1.6891) translate(-122,-256.1333)">
<path id="0" d="M146 335.1333 L479 334.1333 "/>
<path id="1" d="M147 324.1333 C147 324.1333 146.5392 331.5991 147 334.1333 C147.0628 334.4789 149 335.1333 149 335.1333 "/>
<path id="2" d="M148 327.1333 C148 327.1333 278.9379 327.6913 409 324.1333 C442.957 323.2044 477 318.1333 477 318.1333 "/>
<path id="3" d="M479 318.1333 L476 334.1333 "/>
<path id="4" d="M152 306.1333 C152 306.1333 240.9263 308.7722 329 306.1333 C373.9025 304.7879 374.0955 300.6993 419 298.1333 C443.8209 296.715 469 298.1333 469 298.1333 "/>
<path id="5" d="M152 296.1333 L152 302.1333 "/>
<path id="6" d="M155 291.1333 C155 291.1333 483.7446 289.9338 492 290.1333 C492.1417 290.1368 489.0991 296.2925 486 299.1333 C484.2964 300.695 482.8266 301.0156 480 301.1333 C471.6556 301.481 462 300.1333 462 300.1333 "/>
<path id="7" d="M159 257.1333 L160 266.1333 "/>
<path id="8" d="M162 269.1333 L471 270.1333 "/>
<path id="9" d="M161 257.1333 C161 257.1333 319.5986 255.6584 473 256.1333 C478.4115 256.1501 483.0314 256.9886 484 258.1333 C484.9423 259.2469 484.6755 268.7675 484 269.1333 C481.1565 270.6736 460 271.1333 460 271.1333 "/>
<path id="10" d="M203 272.1333 C203 272.1333 201.0287 272.0401 201 272.1333 C200.3651 274.1968 199 285.1333 199 285.1333 "/>
<path id="11" d="M202 283.1333 L201 286.1333 "/>
<path id="12" d="M196 308.1333 C196 308.1333 191.6995 311.7342 190 315.1333 C188.7253 317.6826 189 322.1333 189 322.1333 "/>
<path id="13" d="M214 274.1333 C214 274.1333 214.7818 278.2016 214 281.1333 C212.9874 284.9307 210 289.1333 210 289.1333 "/>
<path id="14" d="M208 308.1333 C208 308.1333 208.1696 314.0398 207 318.1333 C206.4477 320.0664 204 322.1333 204 322.1333 "/>
<path id="15" d="M428 272.1333 L420 285.1333 "/>
<path id="16" d="M441 274.1333 C441 274.1333 439.0186 274.059 439 274.1333 C438.3869 276.5859 437 290.1333 437 290.1333 "/>
<path id="17" d="M421 299.1333 C421 299.1333 421.2962 303.2816 420 306.1333 C416.6804 313.4365 411 321.1333 411 321.1333 "/>
<path id="18" d="M436 299.1333 C436 299.1333 438.0232 305.5521 437 309.1333 C435.6307 313.9258 430 320.1333 430 320.1333 "/>
<path id="19" d="M145 338.1333 C145 338.1333 142.4013 337.6623 142 338.1333 C135.0851 346.2508 122 365.1333 122 365.1333 "/>
<path id="20" d="M123 369.1333 C123 369.1333 209.134 364.7991 292 367.1333 C313.6923 367.7444 314.2596 374.2275 336 375.1333 C396.7873 377.6661 460 374.1333 460 374.1333 "/>
<path id="21" d="M477 335.1333 C477 335.1333 466.2533 340.6293 460 348.1333 C449.8719 360.2871 442 377.1333 442 377.1333 "/>
<path id="22" d="M124 369.1333 C124 369.1333 125.5035 379.0939 126 379.1333 C148.0369 380.8823 188.5932 380.3951 250 379.1333 C260.9253 378.9088 261.0521 376.7305 272 376.1333 C288.3005 375.2442 289.1212 374.0784 305 376.1333 C330.7061 379.46 331.5364 385.6572 357 387.1333 C398.5186 389.5402 431.6523 385.7167 443 384.1333 C443.1649 384.1103 443 375.1333 443 375.1333 "/>
<path id="23" d="M474 340.1333 C474 340.1333 476.3852 348.6488 477 357.1333 C478.8621 382.8299 479 409.1333 479 409.1333 "/>
<path id="24" d="M466 344.1333 C466 344.1333 463.3137 390.7038 465 402.1333 C465.1305 403.0175 475 405.1333 475 405.1333 "/>
<path id="25" d="M431 388.1333 C431 388.1333 431.1174 399.454 429 409.1333 C427.8055 414.5938 424.9741 414.7757 424 420.1333 C422.1856 430.1125 423 442.1333 423 442.1333 "/>
<path id="26" d="M417 388.1333 C417 388.1333 414.0961 397.6337 413 407.1333 C411.1284 423.3541 410.091 436.8004 411 440.1333 C411.084 440.4414 422 440.1333 422 440.1333 "/>
<path id="27" d="M190 380.1333 C190 380.1333 189.4611 397.9789 191 400.1333 C191.8172 401.2774 204.3989 401.8203 205 401.1333 C205.9084 400.0952 205 384.1333 205 384.1333 "/>
<path id="28" d="M137 383.1333 C137 383.1333 137.3516 397.3472 136 411.1333 C134.8748 422.6106 131.5879 428.5702 132 434.1333 C132.0807 435.2224 135.0261 437.2837 138 438.1333 C144.4831 439.9856 152.6321 440.7176 153 440.1333 C154.4952 437.7586 152.0452 424.2957 155 411.1333 C157.2094 401.2912 160.7351 400.5653 164 391.1333 C164.8475 388.6851 164.9215 386.9762 164 385.1333 C162.2339 381.6011 157 377.1333 157 377.1333 "/>
</g>
</g>
</svg>
