<?xml version="1.0" encoding="utf-8"?>
<!DOCTYPE svg PUBLIC "-//W3C//DTD SVG 1.1//EN" "http://www.w3.org/Graphics/SVG/1.1/DTD/svg11.dtd">
<svg viewBox="0 0 800 800" preserveAspectRatio="xMinYMin meet" xmlns="http://www.w3.org/2000/svg" version="1.1">
<g fill="none" stroke="black" stroke-linecap="round" stroke-linejoin="round" stroke-width="1.3297">
<g transform="translate(87.52,108.9536) scale(2.2562) translate(-132,-183)">
<path id="0" d="M136 203 L136 262 "/>
<path id="1" d="M137 206 L137 295 "/>
<path id="2" d="M137 295 L402 294 "/>
<path id="3" d="M397 188 C397 188 394.4567 191.6512 394 195 C393.0755 201.7798 393.6266 202.5316 394 210 C396.1223 252.4454 399 295 399 295 "/>
<path id="4" d="M135 190 L137 213 "/>
<path id="5" d="M134 192 C134 192 136.5962 189.4808 139 189 C145.5247 187.6951 146.5119 188.0841 154 188 C190.9134 187.5852 191.7534 189.8123 228 188 C240.8578 187.3571 241.1232 183.9198 254 183 C275.4962 181.4646 276.0598 182.3072 298 183 C323.4779 183.8046 337.0877 184.6255 349 186 C349.3123 186.036 349.7216 188.9763 350 189 C360.22 189.8698 394.9673 190.1229 396 190 C396.074 189.9912 391.9653 184.1041 392 184 C392.0149 183.9554 398 184 398 184 "/>
<path id="6" d="M152 297 C152 297 152.6158 365.8832 153 376 C153.0004 376.0097 154.9811 375.934 155 376 C155.2311 376.809 155 383 155 383 "/>
<path id="7" d="M152 343 C152 343 261.7873 342.8752 371 345 C389.9759 345.3692 406.4229 345.016 409 348 C411.95 351.4157 410.3498 388.6157 409 389 C392.3498 393.7407 335.4755 392.6141 265 389 C239.7889 387.7071 239.263 381.2966 214 379 C185.286 376.3896 155 379 155 379 "/>
<path id="8" d="M400 294 C400 294 396.7615 304.101 396 314 C394.8001 329.5985 396 346 396 346 "/>
<path id="9" d="M192 383 C192 383 192.0094 407.4949 190 430 C189.6053 434.421 186.8112 438.7572 187 439 C187.2203 439.2832 194.0737 440.0451 197 439 C198.6931 438.3953 200.6876 436.2391 201 434 C203.1518 418.579 200.0623 413.3 203 396 C204.2404 388.6952 210 381 210 381 "/>
<path id="10" d="M372 395 C372 395 368.5955 402.1512 368 409 C366.6718 424.2748 366.6052 437.5666 368 441 C368.2302 441.5666 379.3968 442.4345 381 441 C383.6158 438.6596 385.9904 432.2454 387 424 C388.8218 409.1222 387 392 387 392 "/>
<path id="11" d="M141 243 C141 243 151.2715 238.1491 161 238 C277.7738 236.2104 402 239 402 239 "/>
<path id="12" d="M132 265 C132 265 145.044 262.617 158 262 C176.3367 261.1268 176.8736 260.974 195 262 C202.9216 262.4484 203.1033 264.8474 211 265 C304.9358 266.8152 402 266 402 266 "/>
</g>
</g>
</svg>
