<?xml version="1.0" encoding="utf-8"?>
<!DOCTYPE svg PUBLIC "-//W3C//DTD SVG 1.1//EN" "http://www.w3.org/Graphics/SVG/1.1/DTD/svg11.dtd">
<svg viewBox="0 0 800 800" preserveAspectRatio="xMinYMin meet" xmlns="http://www.w3.org/2000/svg" version="1.1">
<g fill="none" stroke="black" stroke-linecap="round" stroke-linejoin="round" stroke-width="2.0881">
<g transform="translate(87.52,183.9219) scale(1.4367) translate(-127,-155.1333)">
<path id="0" d="M138 191.1333 C138 191.1333 186.5204 193.2298 226 190.1333 C232.5213 189.6219 232.9715 184.8202 240 183.1333 C256.6749 179.1314 259.5561 182.3249 276 178.1333 C283.517 176.2172 283.6917 171.247 291 170.1333 C332.1035 163.8699 336.8294 167.7962 381 162.1333 C394.5374 160.3978 397.7076 153.9122 408 155.1333 C421.2388 156.704 425.3377 160.6839 440 169.1333 C454.0979 177.2575 452.8316 181.1904 467 189.1333 C484.9942 199.221 487.4768 196.2855 506 206.1333 C526.5488 217.058 526.1308 220.8439 546 231.1333 C552.7817 234.6453 561.9983 235.1326 562 235.1333 C562.0007 235.1336 556.6787 233.9848 555 235.1333 C549.9892 238.5618 549.4154 243.0544 543 248.1333 C538.1794 251.9496 537.0818 252.9245 531 254.1333 C459.9282 268.2594 452.6993 263.6112 382 280.1333 C364.2323 284.2856 364.7912 289.6982 347 297.1333 C331.5359 303.5959 330.5522 306.6522 315 308.1333 C270.7187 312.3506 245.0963 316.6115 221 309.1333 C212.3885 306.4608 211.9792 288.5838 199 272.1333 C169.7512 235.0622 161.6803 232.8773 135 200.1333 C132.7156 197.3298 132.5906 194.2037 133 191.1333 C133.3063 188.8364 137 185.1333 137 185.1333 "/>
<path id="1" d="M222 310.1333 C222 310.1333 220.5786 330.6619 220 334.1333 C219.9921 334.1809 218.0147 334.0745 218 334.1333 C217.7647 335.0745 218.573 340.8441 218 342.1333 C217.801 342.581 214.1492 343.2452 214 343.1333 C213.8623 343.0301 214.6725 340.1421 214 339.1333 C211.7583 335.7708 208.8446 335.495 206 331.1333 C201.7893 324.6769 203.6495 322.2257 199 316.1333 C189.9056 304.2165 185.3573 300.8221 177 293.1333 C176.4191 292.5989 174.6922 293.6871 174 293.1333 C165.2316 286.1186 160.9948 284.1026 152 273.1333 C141.2223 259.9898 139.5755 256.6303 133 243.1333 C131.4925 240.039 134.0665 237.8661 133 234.1333 C131.3749 228.4453 128.3327 227.4641 127 222.1333 C126.2349 219.0731 126.7115 216.9251 128 214.1333 C129.1128 211.7222 131.6911 211.7511 133 209.1333 C135.1815 204.7704 136 198.1333 136 198.1333 "/>
<path id="2" d="M240 335.1333 C240 335.1333 235.9358 341.1761 233 343.1333 C231.8098 343.9268 228.9868 343.6972 228 343.1333 C227.1542 342.65 227.0722 340.0268 226 339.1333 C225.0283 338.3236 222 338.1333 222 338.1333 "/>
<path id="3" d="M217 348.1333 C217 348.1333 222.0522 341.7614 226 341.1333 C239.662 338.9598 244.0913 343.1463 261 341.1333 C285.2473 338.2467 285.8292 337.0286 310 331.1333 C326.6525 327.0717 326.4137 323.7721 343 321.1333 C391.3094 313.4477 393.7226 317.3151 442 310.1333 C453.0534 308.489 453.65 307.7145 464 303.1333 C483.7332 294.399 483.1564 290.9663 503 283.1333 C520.327 276.2937 521.518 277.1658 540 273.1333 C548.6964 271.2359 554.959 273.1607 558 271.1333 C559.7302 269.9798 561.2702 264.5372 561 259.1333 C560.3559 246.2508 556 231.1333 556 231.1333 "/>
<path id="4" d="M254 345.9333 C254 345.9333 251.1376 372.147 250 397.9333 C249.6521 405.819 249.4655 406.5165 251 413.9333 C252.3288 420.356 255.5145 422.5643 256 426.9333 C256.1671 428.4374 253.3784 429.8519 253 431.9333 C252.6029 434.1171 254.3971 435.7495 254 437.9333 C253.6216 440.0148 251.5383 440.5109 251 442.9333 C249.7439 448.5858 249.5558 455.6076 250 455.9333 C250.7565 456.4881 265.4793 455.0788 266 453.9333 C267.7151 450.1601 263.6354 437.9437 265 422.9333 C267.0629 400.2412 272.1852 398.9327 273 376.9333 C273.6127 360.3898 268 341.9333 268 341.9333 "/>
<path id="5" d="M495 294.9333 C495 294.9333 498.8332 310.5319 500 325.9333 C501.3014 343.1122 501.1835 343.7728 500 360.9333 C499.213 372.3455 497.7645 377.8838 496 383.9333 C495.8631 384.4027 493.0366 384.6401 493 384.9333 C492.387 389.8375 493.666 399.6083 493 407.9333 C492.9375 408.7152 490.9884 409.9333 491 409.9333 C491.0983 409.9333 501.3434 410.1522 508 407.9333 C511.3911 406.803 511.905 403.4808 515 401.9333 C516.5475 401.1596 518.4032 402.5321 520 401.9333 C521.3174 401.4393 522.9664 400.0434 523 398.9333 C523.6853 376.3187 524.0811 367.1501 522 335.9333 C520.1037 307.4885 515 278.9333 515 278.9333 "/>
<path id="6" d="M382 316.9333 C382 316.9333 386.8133 330.4275 387 342.9333 C387.2931 362.569 383.1574 383.461 383 383.9333 C382.9789 383.9966 375.9396 375.9519 376 375.9333 C376.4394 375.7981 408.2156 376.0956 409 375.9333 C409.0656 375.9198 405.3813 372.7458 405 369.9333 C401.8791 346.9165 401 316.9333 401 316.9333 "/>
<path id="7" d="M149 273.9333 C149 273.9333 150.9617 272.895 151 272.9333 C151.1916 273.125 151.9217 274.9763 152 276.9333 C152.4069 287.1059 153.034 288.6275 152 297.9333 C151.6882 300.7399 149.0985 301.2232 149 303.9333 C148.2101 325.6546 147.913 349.0932 150 352.9333 C150.4231 353.7118 172.4558 350.4949 174 349.9333 C174.0112 349.9293 172.0784 347.2861 172 344.9333 C171.1487 319.3934 172 289.9333 172 289.9333 "/>
</g>
</g>
</svg>
