<?xml version="1.0" encoding="utf-8"?>
<!DOCTYPE svg PUBLIC "-//W3C//DTD SVG 1.1//EN" "http://www.w3.org/Graphics/SVG/1.1/DTD/svg11.dtd">
<svg viewBox="0 0 800 800" preserveAspectRatio="xMinYMin meet" xmlns="http://www.w3.org/2000/svg" version="1.1">
<g fill="none" stroke="black" stroke-linecap="round" stroke-linejoin="round" stroke-width="2.0065">
<g transform="translate(87.52,307.3026) scale(1.4951) translate(-103,-250.1333)">
<path id="0" d="M103 316.1333 C103 316.1333 145.9812 310.9087 189 308.1333 C238.8518 304.9171 239.0488 304.4342 289 304.1333 C404.8529 303.4354 521 306.1333 521 306.1333 "/>
<path id="1" d="M106 318.1333 L112 332.1333 "/>
<path id="2" d="M112 334.1333 C112 334.1333 291.0663 337.1333 469 337.1333 C489.9334 337.1333 504.1092 336.7957 511 334.1333 C512.1829 333.6763 513 320.1333 513 320.1333 "/>
<path id="3" d="M117 336.1333 C117 336.1333 119.925 337.4208 120 338.1333 C121.1694 349.2425 118.6986 370.9467 121 374.1333 C122.1316 375.7001 144.8656 374.9977 146 374.1333 C146.3717 373.8502 142.6298 365.9013 142 358.1333 C141.1929 348.179 143 337.1333 143 337.1333 "/>
<path id="4" d="M149 335.1333 C149 335.1333 150.9625 335.8143 151 336.1333 C151.4861 340.265 149.7703 351.1598 151 352.1333 C153.5606 354.1605 163.0743 353.8083 175 355.1333 C176.4703 355.2967 177.9899 355.1941 178 355.1333 C178.3649 352.9441 178 337.1333 178 337.1333 "/>
<path id="5" d="M445 344.1333 C445 344.1333 444.5929 353.9825 445 354.1333 C447.9679 355.2325 469.6983 355.2842 472 354.1333 C472.4689 353.8989 471 341.1333 471 341.1333 "/>
<path id="6" d="M487 342.1333 C487 342.1333 487.9567 362.8955 490 365.1333 C491.3047 366.5622 499.9452 365.5361 508 365.1333 C508.9174 365.0875 509.9787 364.431 510 364.1333 C510.5023 357.1005 510 337.1333 510 337.1333 "/>
<path id="7" d="M511 324.1333 L511 305.1333 "/>
<path id="8" d="M108 315.1333 C108 315.1333 106.0272 259.7063 111 254.1333 C115.145 249.4881 138.5649 250.3361 166 250.1333 C340.9878 248.8403 472.7038 243.457 517 251.1333 C518.4377 251.3825 518 311.1333 518 311.1333 "/>
</g>
</g>
</svg>
