<?xml version="1.0" encoding="utf-8"?>
<!DOCTYPE svg PUBLIC "-//W3C//DTD SVG 1.1//EN" "http://www.w3.org/Graphics/SVG/1.1/DTD/svg11.dtd">
<svg viewBox="0 0 800 800" preserveAspectRatio="xMinYMin meet" xmlns="http://www.w3.org/2000/svg" version="1.1">
<g fill="none" stroke="black" stroke-linecap="round" stroke-linejoin="round" stroke-width="1.9921">
<g transform="translate(87.52,256.1839) scale(1.5059) translate(-135,-154)">
<path id="0" d="M142,230C142,230 229.5257118339145,234.55014991989913 317,236C410.41943746434526,237.54838846625986 504,236 504,236"/>
<path id="1" d="M182,294C182,294 292.78275135306376,292.7274794093415 403,295C437.9585937216832,295.7207957468388 438.04442723841123,298.73349374052213 473,300C506.8691889307949,301.22714452647807 541,300 541,300"/>
<path id="2" d="M144,231L186,293"/>
<path id="3" d="M505,237C505,237 510.4032188820076,240.50402360250945 514,245C522.045431448141,255.0567893101762 520.9122396599517,257.618198005544 529,267C532.6167378420946,271.1954158968298 536.011698475886,270.7400347009665 539,274C540.0936567433613,275.1930800836669 538.9077937047599,277.2251647702349 540,279C542.393876811485,282.89004981866315 545.15115453807,282.932539983754 547,287C549.540283602164,292.5886239247608 550.2039765672802,297.5323983562375 550,301C549.9522608034025,301.81156634215716 547.3104462645966,303.86895537354036 546,304C544.2324213175208,304.17675786824793 540,302 540,302"/>
<path id="4" d="M144,230C144,230 143.93225335217448,219.66126676087242 142,210C139.49943683836244,197.49718419181215 136.5618483303171,197.2716654524916 135,185C133.1902740554612,170.78072472148094 135,155 135,155"/>
<path id="5" d="M135,155C135,155 237.58918789279113,157.3391086493616 340,157C388.4643271031999,156.83952209568477 388.6604158136064,154.35807099397328 437,154C455.9254380598432,153.85981156992707 475,156 475,156"/>
<path id="6" d="M477,156C477,156 489.93426784749795,179.26677481368904 497,202C500.9150446528227,214.59623062212518 497.2930644314704,217.14205604948435 500,230C501.04495674520444,234.9635445397211 505,240 505,240"/>
<path id="7" d="M143,231L141,329"/>
<path id="8" d="M141,329L156,331"/>
<path id="9" d="M154,244L153,331"/>
<path id="10" d="M186,294L184,336"/>
<path id="11" d="M186,334L185,339"/>
<path id="12" d="M198,296C198,296 199.23531316343002,340.8528772370564 198,345C197.9452879102606,345.183676301268 185.47527777736096,344.2645238091665 184,343C183.19530303053037,342.3102597404546 184,333 184,333"/>
<path id="13" d="M474,304L475,337"/>
<path id="14" d="M475,338L484,338"/>
<path id="15" d="M484,338C484,338 481.4658154466514,331.90032899091795 481,326C480.0102673950718,313.4633870042432 481,300 481,300"/>
<path id="16" d="M536,302L536,338"/>
<path id="17" d="M536,338L548,337"/>
<path id="18" d="M548,338L549,304"/>
<path id="19" d="M158,158C158,158 155.2020168060177,171.76260503761065 157,183C158.91379531597792,194.9612207248621 163.62545062171407,195.8634142887607 166,208C167.86337506045834,217.523916975676 166,229 166,229"/>
<path id="20" d="M184,157C184,157 185.9738286955168,157.6859443462016 186,158C186.7870085133876,167.44410216065128 184.93807821950665,181.2175898257522 187,193C187.35464468434924,195.0265410534243 191.12908432772798,195.29756625116266 193,198C195.05957943754313,200.9749480764512 195.7573744967489,202.23930469960794 196,206C196.67916036539972,216.52698566369582 195,229 195,229"/>
<path id="21" d="M218,156C218,156 214.7430835418647,169.44190175166364 216,180C216.99621334507515,188.36819209863134 221.90757940112206,189.44270530878944 223,198C224.66938598274478,211.07685686483415 222,227 222,227"/>
<path id="22" d="M223,232L223,226"/>
<path id="23" d="M301,187L299,187"/>
<path id="24" d="M253,157C253,157 251.40812866680414,169.86663766948476 252,182C252.38300960173575,189.8516968355827 252.71225199087283,190.56481897033666 255,198C256.55982818804125,203.0694416111341 259.28520909694236,203.28238003981957 260,208C261.5282430856922,218.08640436556885 260,231 260,231"/>
<path id="25" d="M288,160C288,160 285.8793476516394,176.21575973565638 288,190C289.6421461774484,200.6739501534148 293.73206947276793,201.1643319254468 296,212C298.03178059021183,221.7073961532343 297,233 297,233"/>
<path id="26" d="M330,159C330,159 327.34958271745426,163.15459010800296 327,167C325.94356871098983,178.62074417911197 325.9807693599934,180.10897586658987 327,192C327.418175771157,196.87871733016485 327.77228123227053,197.76733434131398 330,202C332.4403646501037,206.63669283519695 336.0244070346046,206.85372989706963 337,211C339.31231702847856,220.8273473710339 338,236 338,236"/>
<path id="27" d="M367,158C367,158 364.3444798269133,161.67002833983793 364,165C362.96331070957217,175.02132980746887 362.0864568254753,177.00705231081537 364,187C366.3243812642196,199.13843549092445 370.3818034656314,199.69447628846757 373,212C375.1607882860718,222.15570494453746 374,234 374,234"/>
<path id="28" d="M399,156C399,156 394.76264992612147,159.20361693755453 394,162C392.3146378175834,168.17966133552764 392.5189253088458,170.3028049415327 393,178C393.4886209608194,185.81793537310992 393.288693875928,186.99579251281403 396,194C398.92026016746854,201.54400543262702 403.094135575048,201.72306310472877 405,209C408.02219379320234,220.5392853922271 407,236 407,236"/>
<path id="29" d="M431,157C431,157 424.7220045960711,161.00883810199122 424,164C422.17206772899464,171.57286226559367 423.29154740852323,175.37321112784815 424,186C424.2619127762429,189.92869164364401 424.1851429031327,190.75918375559416 426,194C430.7202204317644,202.42896505672218 434.85029511548094,202.53516812285508 438,211C442.033533232396,221.84012056206424 442,237 442,237"/>
<path id="30" d="M462,155C462,155 457.73769945292537,160.27872350127762 457,165C455.49466546417545,174.63414102927695 456.2268989294071,176.17658501169947 457,187C457.7103493603175,196.94489104444497 457.4621274657304,197.69446737434478 460,207C461.7842684629581,213.54231769751306 464.6188239333396,213.78470770002826 466,220C467.34905569301713,226.07075061857705 466,234 466,234"/>
</g>
</g>
</svg>
