<?xml version="1.0" encoding="utf-8"?>
<!DOCTYPE svg PUBLIC "-//W3C//DTD SVG 1.1//EN" "http://www.w3.org/Graphics/SVG/1.1/DTD/svg11.dtd">
<svg viewBox="0 0 800 800" preserveAspectRatio="xMinYMin meet" xmlns="http://www.w3.org/2000/svg" version="1.1">
<g fill="none" stroke="black" stroke-linecap="round" stroke-linejoin="round" stroke-width="1.9537">
<g transform="translate(87.52,175.8129) scale(1.5355) translate(-119,-110.4167)">
<path id="0" d="M162 161.4167 C162 161.4167 150.4999 183.3168 142 205.4167 C138.2307 215.2169 140.5561 216.4597 137 226.4167 C130.7016 244.0521 127.3092 244.0143 122 261.4167 C118.6576 272.3723 118.4195 284.8652 119 285.4167 C119.5351 285.925 130.9875 283.9631 142 280.4167 C160.1266 274.5793 159.8459 269.9163 178 266.4167 C240.6125 254.3468 245.9266 263.0222 308 248.4167 C353.7798 237.645 353.494 224.5053 399 214.4167 C456.2104 201.7332 520 201.4167 520 201.4167 "/>
<path id="1" d="M162 159.4167 C162 159.4167 201.225 155.6265 236 149.4167 C240.9983 148.5241 241.0854 145.0818 246 144.4167 C303.4282 136.6444 307.8588 139.3916 369 131.4167 C399.6132 127.4236 399.4689 124.4695 430 120.4167 C455.6777 117.0081 456.2239 119.3794 482 116.4167 C499.5361 114.401 514.1511 109.9283 517 110.4167 C517.1725 110.4462 515.9446 117.4034 517 122.4167 C517.6897 125.6929 519.9659 125.8713 521 129.4167 C523.2633 137.1767 523.6392 137.9977 524 146.4167 C525.1164 172.4671 524 199.4167 524 199.4167 "/>
<path id="2" d="M120 284.4167 C120 284.4167 119.4871 389.0528 122 402.4167 C122.0586 402.7283 141.9122 401.8993 142 401.4167 C143.2028 394.8013 136.1232 368.7948 134 336.4167 C132.1531 308.2508 134 279.4167 134 279.4167 "/>
<path id="3" d="M171 271.4167 C171 271.4167 169.1583 292.3881 171 312.4167 C173.0994 335.2472 176.5976 335.5936 179 358.4167 C180.5386 373.0337 177.9715 385.7051 179 388.4167 C179.1088 388.7034 189.9405 387.8061 190 387.4167 C191.5758 377.1027 191.9357 351.5364 190 316.4167 C188.4627 288.5258 183 260.4167 183 260.4167 "/>
<path id="4" d="M524 204.4167 C524 204.4167 528.3992 277.6278 526 312.4167 C525.8067 315.2194 520.5129 319.0281 516 320.4167 C510.2056 322.1996 504.1317 320.9028 500 320.4167 C499.681 320.3791 499.0158 319.3252 499 318.4167 C498.1149 267.5215 498 205.4167 498 205.4167 "/>
<path id="5" d="M468 205.4167 C468 205.4167 469.7302 320.2266 468 336.4167 C467.9802 336.6016 456.2533 337.1678 454 336.4167 C453.5708 336.2736 453 331.4167 453 331.4167 "/>
<path id="6" d="M442 207.4167 C442 207.4167 440.2456 318.0649 443 338.4167 C443.0903 339.0841 460 340.4167 460 340.4167 "/>
<path id="7" d="M468 273.4167 C468 273.4167 476.4333 274.2722 482 272.4167 C486.7899 270.82 486.983 267.6743 492 265.4167 C496.1586 263.5453 502 263.4167 502 263.4167 "/>
<path id="8" d="M136 366.4167 C136 366.4167 155.4107 351.9323 172 337.4167 C174.5002 335.229 176 331.4167 176 331.4167 "/>
</g>
</g>
</svg>
