<?xml version="1.0" encoding="utf-8"?>
<!DOCTYPE svg PUBLIC "-//W3C//DTD SVG 1.1//EN" "http://www.w3.org/Graphics/SVG/1.1/DTD/svg11.dtd">
<svg viewBox="0 0 800 800" preserveAspectRatio="xMinYMin meet" xmlns="http://www.w3.org/2000/svg" version="1.1">
<g fill="none" stroke="black" stroke-linecap="round" stroke-linejoin="round" stroke-width="1.8337">
<g transform="translate(87.52,233.1259) scale(1.636) translate(-139,-123)">
<path id="0" d="M139 213 C139 213 197.8038 214.9454 255 213 C270.369 212.4772 270.5854 208.5929 286 208 C373.527 204.6336 377.6571 200.9882 463 205 C490.8228 206.3079 509.4838 213.3793 520 219 C521.6449 219.8792 522.5876 231.7664 521 236 C519.9734 238.7375 516.1306 240.4347 511 243 C506.6295 245.1852 505.9143 245.649 501 246 C472.0643 248.0668 470.2251 245.2494 441 248 C428.5868 249.1683 427.7395 253.8166 416 254 C397.7914 254.2845 396.457 250.1334 377 249 C345.2785 247.1521 343.6629 251.1941 313 248 C297.245 246.3589 296.65 240.2142 281 239 C240.796 235.8807 238.7736 240.5026 197 239 C169.5588 238.0129 150.1597 237.8651 142 234 C140.2333 233.1632 140 212 140 212 "/>
<path id="1" d="M163 241 L163 327 "/>
<path id="2" d="M496 249 L493 323 "/>
<path id="3" d="M168 212 C168 212 168.9146 198.1433 168 197 C167.4146 196.2683 159.8489 198.418 156 197 C152.9276 195.8681 149.5563 192.9898 149 190 C146.5756 176.9686 147.12 171.5991 148 154 C148.5923 142.153 148.4906 133.7515 152 130 C155.8441 125.8908 165.0046 123.0892 177 123 C293.8145 122.1315 299.6905 124.3788 421 128 C432.9693 128.3573 434.7294 127.6621 445 131 C452.9163 133.5728 453.3452 139.4204 461 141 C481.1797 145.1641 505.7993 140.8991 508 144 C511.4426 148.8509 507.9009 195.8686 505 203 C504.5885 204.0116 493.3516 204.4612 484 203 C478.7536 202.1803 478.5342 199.0887 473 198 C449.2734 193.3325 447.9443 192.5272 423 191 C374.9587 188.0587 372.3093 190.7984 326 189 C323.1007 188.8874 322.8787 187.1047 320 187 C296.7718 186.1553 294.9032 184.7235 271 187 C243.2175 189.646 242.6907 192.9278 215 197 C209.2181 197.8503 208.3903 197.8511 203 197 C199.6429 196.4699 199.3252 194.3218 196 194 C185.0532 192.9406 183.4104 192.9932 172 194 C167.1198 194.4306 162 197 162 197 "/>
<path id="4" d="M486 204 L486 209 "/>
</g>
</g>
</svg>
