<?xml version="1.0" encoding="utf-8"?>
<!DOCTYPE svg PUBLIC "-//W3C//DTD SVG 1.1//EN" "http://www.w3.org/Graphics/SVG/1.1/DTD/svg11.dtd">
<svg viewBox="0 0 800 800" preserveAspectRatio="xMinYMin meet" xmlns="http://www.w3.org/2000/svg" version="1.1">
<g fill="none" stroke="black" stroke-linecap="round" stroke-linejoin="round" stroke-width="0.98406">
<g transform="translate(87.52,278.0566) scale(3.0486) translate(-148,-239.9167)">
<path id="0" d="M160 243.9167 L164 278.9167 "/>
<path id="1" d="M164 243.9167 C164 243.9167 213.6369 245.1507 263 243.9167 C293.4655 243.155 308.887 238.3377 324 239.9167 C325.7835 240.103 328.2788 245.3707 330 250.9167 C332.5333 259.0795 333.3532 268.794 333 268.9167 C321.7912 272.8103 283.7097 279.5152 235 283.9167 C201.6625 286.9291 191.7267 284.9615 167 283.9167 C165.863 283.8686 164 280.9167 164 280.9167 C163.2534 281.6633 158.1145 289.7815 156 294.9167 C155.6835 295.6852 157.2383 297.6188 157 297.9167 C155.4619 299.8393 148.8992 303.6321 148 304.9167 C147.8918 305.0712 150 306.8675 150 307.9167 C150 310.7145 147.5585 315.2228 148 315.9167 C148.5728 316.8168 152.7195 318.858 157 318.9167 C221.8556 319.8051 225.6154 319.3794 294 317.9167 C318.986 317.3822 323.2697 318.1334 344 314.9167 C347.6687 314.3474 351.946 309.7799 352 308.9167 C352.0794 307.6467 347.0221 304.1164 345 298.9167 C340.4348 287.1776 338 272.9167 338 272.9167 "/>
<path id="2" d="M149 319.9167 C149 319.9167 147.5531 311.1845 148 302.9167 C148.5317 293.0797 148.7014 292.6415 151 282.9167 C155.1472 265.371 161 247.9167 161 247.9167 "/>
<path id="3" d="M353 307.9167 C353 307.9167 347.3981 287.1109 341 267.9167 C340.1275 265.2993 339.5108 264.0498 338 262.9167 C336.713 261.9514 333.2131 262.4648 333 261.9167 C331.7131 258.6074 331 244.9167 331 244.9167 "/>
</g>
</g>
</svg>
