<?xml version="1.0" encoding="utf-8"?>
<!DOCTYPE svg PUBLIC "-//W3C//DTD SVG 1.1//EN" "http://www.w3.org/Graphics/SVG/1.1/DTD/svg11.dtd">
<svg viewBox="0 0 800 800" preserveAspectRatio="xMinYMin meet" xmlns="http://www.w3.org/2000/svg" version="1.1">
<g fill="none" stroke="black" stroke-linecap="round" stroke-linejoin="round" stroke-width="1.3009">
<g transform="translate(235.112,87.52) scale(2.3061) translate(-176,-165.1333)">
<path id="0" d="M180 360.1333 C180 360.1333 178.7964 348.7247 180 338.1333 C181.2347 327.2684 183.7923 327.1371 185 316.1333 C188.2372 286.6392 185.537 285.816 189 256.1333 C192.5031 226.107 192.7612 217.0335 199 196.1333 C199.989 192.82 203.8294 191.2729 209 189.1333 C217.4472 185.638 218.6561 185.1951 228 184.1333 C239.9377 182.7768 240.7752 182.9503 253 184.1333 C271.3767 185.9117 286.5756 191.5887 290 190.1333 C291.2699 189.5936 290.6011 169.3546 293 167.1333 C295.5525 164.7699 313.4767 164.1847 317 165.1333 C317.6642 165.3122 318.9086 169.7476 319 174.1333 C319.3939 193.0403 321.7928 194.7311 318 213.1333 C295.37 322.9306 283.8511 398.2613 265 436.1333 C262.8177 440.5176 234.4413 437.7014 207 436.1333 C201.2143 435.8027 199.8889 435.0222 195 432.1333 C189.7862 429.0524 189.2073 428.0418 185 423.1333 C180.4849 417.8657 179.6189 416.9531 177 411.1333 C175.5814 407.981 176.166 407.1163 176 403.1333 C175.6698 395.2087 174.5064 393.8544 176 387.1333 C177.1513 381.9525 180.0693 381.711 182 376.1333 C184.368 369.2925 184.7822 368.3212 185 361.1333 C185.2589 352.5888 183 343.1333 183 343.1333 "/>
<path id="1" d="M218 219.1333 C218 219.1333 217.2344 239.8338 219 250.1333 C219.2751 251.7382 221.5475 253.5202 224 254.1333 C235.4452 256.9946 237.5231 257.0637 251 258.1333 C268.7996 259.546 279.913 262.3687 287 259.1333 C290.9965 257.3089 294.3702 247.6525 297 237.1333 C298.9321 229.405 298.567 224.2821 297 219.1333 C296.3792 217.0937 292.9979 214.3255 290 214.1333 C260.924 212.2695 230.0764 212.9026 219 214.1333 C218.7053 214.1661 218 222.1333 218 222.1333 "/>
<path id="2" d="M211 293.1333 C211 293.1333 210.3183 313.6108 212 316.1333 C212.7816 317.3058 224.8383 318.0234 227 317.1333 C227.7845 316.8103 229.7002 310.7339 229 309.1333 C227.8268 306.4517 224.5485 303.9761 220 301.1333 C217.3196 299.4581 213 299.1333 213 299.1333 "/>
<path id="3" d="M246 304.1333 C246 304.1333 242.8762 307.8476 242 311.1333 C241.131 314.3919 241.3347 316.9158 242 319.1333 C242.2412 319.9372 243.649 320.9403 245 321.1333 C249.5228 321.7794 253.198 321.6003 256 321.1333 C256.3396 321.0767 256.9424 320.055 257 319.1333 C257.391 312.8773 257.8737 307.0056 257 305.1333 C256.7337 304.5627 250 304.1333 250 304.1333 "/>
<path id="4" d="M275 307.1333 C275 307.1333 269.2799 308.3404 269 309.1333 C267.9805 312.0219 267.9337 322.9147 269 324.1333 C269.9419 325.2098 278.3123 325.6848 283 325.1333 C284.1322 325.0001 285.7053 323.4103 286 322.1333 C286.7981 318.6747 286.8294 316.2803 286 312.1333 C285.5355 309.811 284.3954 307.7774 283 307.1333 C280.2496 305.8639 273 306.1333 273 306.1333 "/>
<path id="5" d="M219 347.1333 C219 347.1333 211.9593 342.6677 210 342.1333 C209.725 342.0583 208.1009 343.3263 208 344.1333 C207.3723 349.1547 207.389 357.5224 208 358.1333 C208.4364 358.5697 215.8887 357.932 220 356.1333 C221.9758 355.2689 223.0028 353.3771 224 351.1333 C224.5885 349.8092 224.4834 348.1002 224 347.1333 C223.577 346.2873 221 345.1333 221 345.1333 "/>
<path id="6" d="M252 342.1333 C252 342.1333 245.8751 340.8353 242 341.1333 C240.7684 341.2281 239.335 342.212 239 343.1333 C237.985 345.9246 237.4148 349.7924 238 352.1333 C238.2675 353.2035 240.3645 354.8997 242 355.1333 C245.6404 355.6534 251.1048 355.1099 252 354.1333 C253.0493 352.9887 253.6211 345.1519 253 343.1333 C252.7945 342.4653 248 341.1333 248 341.1333 "/>
<path id="7" d="M273 345.1333 C273 345.1333 267.5562 344.5153 267 345.1333 C265.6918 346.5869 264.2622 351.7241 264 355.1333 C263.927 356.0818 265.2521 357.9931 266 358.1333 C270.0863 358.8995 276.1931 359.4023 280 358.1333 C281.6315 357.5895 283.077 354.9024 284 352.1333 C284.7552 349.8678 284.2354 346.2164 284 346.1333 C282.1104 345.4664 267 346.1333 267 346.1333 "/>
<path id="8" d="M221 374.1333 C221 374.1333 212.1619 374.8658 211 376.1333 C209.8641 377.3725 209.3763 385.5097 210 386.1333 C211.0394 387.1728 220.3003 389.0332 223 388.1333 C224.6782 387.5739 228.0831 381.1309 228 380.1333 C227.9507 379.5414 222 376.1333 222 376.1333 "/>
<path id="9" d="M247 374.1333 L242 373.1333 "/>
<path id="10" d="M245 373.1333 C245 373.1333 237.8491 376.6679 236 379.1333 C235.1298 380.2935 235.2874 383.53 236 385.1333 C236.5674 386.41 238.1957 387.717 240 388.1333 C243.4607 388.932 246.4431 389.2291 249 388.1333 C251.151 387.2115 252.9625 384.8308 254 382.1333 C254.9166 379.7501 254.516 375.5461 254 375.1333 C253.0049 374.3372 244 374.1333 244 374.1333 "/>
<path id="11" d="M268 375.1333 C268 375.1333 260.7294 378.6353 259 381.1333 C258.0102 382.563 258.1299 386.2191 259 388.1333 C259.7797 389.8486 261.9432 391.7477 264 392.1333 C267.8676 392.8585 273.8553 392.1826 275 391.1333 C275.9766 390.2381 276.7579 382.1186 276 381.1333 C275.059 379.91 265 378.1333 265 378.1333 "/>
<path id="12" d="M210 411.1333 L216 411.1333 "/>
<path id="13" d="M233 410.1333 L235 410.1333 "/>
<path id="14" d="M249 410.1333 L250 412.1333 "/>
</g>
</g>
</svg>
