<?xml version="1.0" encoding="utf-8"?>
<!DOCTYPE svg PUBLIC "-//W3C//DTD SVG 1.1//EN" "http://www.w3.org/Graphics/SVG/1.1/DTD/svg11.dtd">
<svg viewBox="0 0 800 800" preserveAspectRatio="xMinYMin meet" xmlns="http://www.w3.org/2000/svg" version="1.1">
<g fill="none" stroke="black" stroke-linecap="round" stroke-linejoin="round" stroke-width="1.9201">
<g transform="translate(87.52,210.1684) scale(1.5624) translate(-61,-137.1333)">
<path id="0" d="M388 156.1333 C388 156.1333 376.4093 158.94 365 159.1333 C317.987 159.9302 284.7756 159.6725 270 158.1333 C269.699 158.102 270.64 151.5933 269 149.1333 C266.229 144.9768 263.0547 141.2681 258 140.1333 C243.0735 136.7825 232.8152 134.0558 220 138.1333 C207.8864 141.9877 203.8692 149.635 192 161.1333 C189.2263 163.8203 188.5015 165.3721 188 169.1333 C186.7071 178.8303 186.9546 181.376 188 191.1333 C188.3004 193.937 188.9121 195.2061 191 197.1333 C200.687 206.0752 203.053 210.3738 214 215.1333 C222.4766 218.8188 237 217.1333 237 217.1333 "/>
<path id="1" d="M388 156.1333 C388 156.1333 386.5972 148.4289 388 146.1333 C390.0653 142.7537 393.9264 139.2205 399 138.1333 C411.4559 135.4642 417.545 134.447 430 137.1333 C439.139 139.1045 443.3473 142.2512 450 149.1333 C455.669 154.9978 456.4256 158.2398 459 167.1333 C461.5711 176.0155 463.0669 180.416 461 187.1333 C458.5148 195.2101 454.6361 198.2035 447 206.1333 C442.4027 210.9075 441.2103 211.0282 435 214.1333 C428.5956 217.3355 427.9025 217.9829 421 219.1333 C410.685 220.8525 399 220.1333 399 220.1333 "/>
<path id="2" d="M240 218.1333 C240 218.1333 252.109 207.3431 263 205.1333 C282.6273 201.151 286.0374 203.9283 309 204.1333 C341.9616 204.4276 342.7945 204.3925 375 206.1333 C378.95 206.3468 379.5116 206.465 383 208.1333 C390.5187 211.7292 392.6147 213.0944 398 217.1333 C398.8047 217.7369 398.5541 219.8658 399 220.1333 C399.6369 220.5155 403 220.1333 403 220.1333 "/>
<path id="3" d="M234 223.1333 C234 223.1333 233.3319 272.7591 235 321.1333 C235.308 330.0663 235.4403 330.756 238 339.1333 C240.7665 348.1872 240.8021 350.1275 246 357.1333 C251.2399 364.1958 253.3507 365.6492 261 370.1333 C266.5271 373.3734 268.0367 373.4826 275 374.1333 C320.3247 378.3693 324.3232 378.8612 368 380.1333 C372.6467 380.2687 373.8464 379.4178 378 377.1333 C383.134 374.3096 385.0071 373.6939 388 369.1333 C394.4161 359.3565 395.7511 357.3792 399 345.1333 C408.4117 309.6585 408.6812 308.0692 414 271.1333 C417.5918 246.19 417 220.1333 417 220.1333 "/>
<path id="4" d="M185 172.1333 L186 179.1333 "/>
<path id="5" d="M185 176.1333 C185 176.1333 183.8444 168.637 181 164.1333 C178.64 160.3966 176.5743 158.3843 173 157.1333 C168.8955 155.6968 164.5883 155.8669 161 157.1333 C158.8716 157.8845 157.1216 160.4415 156 163.1333 C155.1675 165.1314 155.5042 168.7727 156 169.1333 C157.4151 170.1625 165.1992 171.8537 167 171.1333 C168.2712 170.6249 170.2579 166.5964 171 163.1333 C171.4847 160.8712 171.1434 158.2768 170 157.1333 C167.2231 154.3564 164.185 152.3777 159 151.1333 C153.1647 149.7329 148.8069 149.8644 145 151.1333 C143.3685 151.6772 141.5096 154.5852 141 157.1333 C140.3405 160.4309 141.115 165.4526 142 166.1333 C143.4262 167.2304 152.6124 167.9262 154 167.1333 C154.8672 166.6378 156.6758 160.1608 156 158.1333 C155.3242 156.1059 152.0798 152.844 149 152.1333 C142.0211 150.5228 138.4025 151.125 130 152.1333 C127.1874 152.4708 124.9726 153.5528 124 155.1333 C122.3678 157.7856 121.4779 162.6969 122 165.1333 C122.2766 166.4243 124.7403 168.3801 127 169.1333 C129.4976 169.9658 133.8323 169.3345 134 169.1333 C134.1246 168.9839 133.2569 164.0035 132 163.1333 C129.3291 161.2843 125.5974 159.8049 121 160.1333 C113.6016 160.6618 107.5232 162.7846 104 165.1333 C103.0181 165.7879 102.758 169.9558 103 172.1333 C103.078 172.8358 104.0975 173.9399 105 174.1333 C109.5392 175.106 115.2581 175.8798 117 175.1333 C117.7527 174.8108 119.4685 169.5388 119 168.1333 C118.4822 166.5799 116.1171 164.6002 113 163.1333 C108.3682 160.9537 106.8193 160.1333 102 160.1333 C96.7426 160.1333 94.8191 161.025 90 163.1333 C87.9185 164.044 86.5828 165.3848 86 167.1333 C85.1257 169.7561 85.1556 171.7556 86 175.1333 C86.95 178.9333 87.5974 179.9299 90 183.1333 C91.6927 185.3903 93.1425 186.9011 95 187.1333 C98.6306 187.5872 104.4825 186.099 106 185.1333 C106.3934 184.883 106.1779 180.1889 106 180.1333 C104.1779 179.5639 94.522 178.489 90 180.1333 C87.482 181.049 85.5026 184.2695 84 188.1333 C82.4893 192.0179 82.192 195.1034 83 198.1333 C83.5257 200.1049 86.08 202.4933 88 203.1333 C89.92 203.7733 93.6998 202.9459 95 202.1333 C95.5968 201.7603 96.2478 198.505 96 198.1333 C95.6035 197.5386 93.1323 196.1333 91 196.1333 C86.309 196.1333 84.7859 196.4442 80 198.1333 C76.9697 199.2028 75.843 199.8807 74 202.1333 C72.0441 204.5238 71 207.4877 71 209.1333 C71 209.8386 72.7054 211.7803 74 212.1333 C76.7125 212.8731 79.739 212.9555 82 212.1333 C83.259 211.6755 84.6568 209.6777 85 208.1333 C85.3514 206.5522 84.5177 203.3404 84 203.1333 C81.515 202.1393 74.0323 201.2373 70 202.1333 C68.5041 202.4657 67.5019 204.4633 66 207.1333 C63.1386 212.2202 62.0968 212.8686 61 218.1333 C59.8159 223.8171 59.7496 226.3817 61 231.1333 C61.7037 233.8073 63.5589 235.4246 66 237.1333 C67.5124 238.192 68.5242 237.9083 71 238.1333 C73.9179 238.3986 75.2515 239.0076 77 238.1333 C79.6228 236.8219 82.0568 234.3969 83 232.1333 C83.6195 230.6465 82.5867 226.5244 82 226.1333 C81.0614 225.5076 76.6484 224.9563 74 226.1333 C69.5125 228.1278 66.1704 230.1264 64 234.1333 C61.1488 239.3971 60.6044 249.3917 61 250.1333 C61.1337 250.384 68.4044 250.9311 72 249.1333 C76.2209 247.0229 78.6858 243.9904 81 240.1333 C81.9643 238.5262 81.252 234.2733 81 234.1333 C80.3617 233.7787 74.7788 233.6513 72 235.1333 C69.1629 236.6465 67.2023 238.6601 66 242.1333 C63.3459 249.8009 61.5403 257.0461 63 261.1333 C64.1108 264.2435 70.0689 267.707 76 270.1333 C79.1999 271.4424 84.5438 270.7969 85 270.1333 C86.281 268.27 87.1859 255.6207 87 254.1333 C86.9941 254.0861 83.8995 253.4791 83 254.1333 C80.1174 256.2298 77.5305 258.2219 76 262.1333 C73.7507 267.8817 73.7078 270.706 74 277.1333 C74.1398 280.2098 75.299 283.1485 77 284.1333 C81.4176 286.6909 88.6364 288.7025 93 288.1333 C95.2308 287.8424 98.6172 284.4175 100 281.1333 C101.7267 277.0324 101.0915 269.202 101 269.1333 C100.9485 269.0947 93.53 272.0734 92 275.1333 C88.7944 281.5446 87.2191 292.0099 88 295.1333 C88.2671 296.2019 93.1724 298.1678 98 299.1333 C102.47 300.0273 103.853 299.9627 108 299.1333 C110.3223 298.6689 111.6006 297.8826 113 296.1333 C114.8792 293.7844 116 292.0196 116 289.1333 C116 283.3608 113.873 277.5777 113 275.1333 C112.9586 275.0175 111.0893 274.9548 111 275.1333 C109.5267 278.0799 107.3595 282.3358 106 289.1333 C105.003 294.1182 105.1555 295.3477 106 300.1333 C106.5013 302.974 107.1715 304.0763 109 306.1333 C110.5706 307.9003 112.1537 308.9795 114 309.1333 C116.4032 309.3336 119.726 308.5347 121 307.1333 C122.7863 305.1684 123.5965 302.37 124 298.1333 C124.5173 292.7018 123.0005 286.1332 123 286.1333 C122.9983 286.1337 120 293.4589 120 299.1333 C120 303.4983 120.6985 306.3007 123 309.1333 C125.6138 312.3503 128.5662 314.1256 133 315.1333 C137.5934 316.1773 142.0437 315.5129 145 314.1333 C146.3754 313.4915 147.7743 310.8413 148 308.1333 C148.6469 300.3704 147 290.1333 147 290.1333 C147 290.1333 146.1143 297.1142 147 302.1333 C147.4081 304.4461 148.9569 306.8879 150 307.1333 C153.4377 307.9422 160.8912 308.3716 164 306.1333 C168.9081 302.5995 174.8305 289.1817 175 289.1333 C175.0076 289.1312 175.9748 300.3331 178 302.1333 C180.4581 304.3183 189.9292 305.901 193 305.1333 C194.5085 304.7562 196.5939 301.1508 198 297.1333 C199.8316 291.9003 199.9966 285.135 200 285.1333 C200.0013 285.1327 200.2515 292.0734 202 295.1333 C203.1657 297.1733 206.927 299.1333 208 299.1333 C208.7153 299.1333 211.0549 297.1811 212 295.1333 C213.6042 291.6576 213.9997 286.1339 214 286.1333 C214.0001 286.133 213.3557 290.1025 214 291.1333 C214.7893 292.3962 218.8114 294.2512 219 294.1333 C219.4828 293.8316 221.0463 286.9679 222 286.1333 C222.3934 285.7891 225.2534 287.4826 227 287.1333 C229.0377 286.7258 231.4742 285.0534 232 284.1333 C232.3078 283.5947 231 280.1333 231 280.1333 "/>
<path id="6" d="M273 246.1333 C273 246.1333 270.9757 258.8895 272 260.1333 C273.1935 261.5826 286.4733 263.6249 287 263.1333 C287.685 262.494 288.1245 247.9734 287 246.1333 C286.4892 245.2975 276 245.1333 276 245.1333 "/>
<path id="7" d="M306 247.1333 C306 247.1333 304.8198 264.8143 306 266.1333 C306.9448 267.1893 315.3948 266.5336 323 266.1333 C323.9183 266.085 324.9597 265.4556 325 265.1333 C325.4833 261.2667 326.4074 251.7063 325 250.1333 C323.1975 248.1188 308 246.1333 308 246.1333 "/>
<path id="8" d="M339 251.1333 C339 251.1333 335.3878 267.6325 336 268.1333 C337.4488 269.3187 359.234 270.2371 361 269.1333 C361.6521 268.7258 361.2508 259.0745 360 253.1333 C359.7198 251.8024 358.3122 250.3833 357 250.1333 C350.3168 248.8603 339 249.1333 339 249.1333 "/>
<path id="9" d="M271 278.1333 C271 278.1333 265.39 294.1167 266 295.1333 C266.5751 296.0919 274.5963 296.8728 283 298.1333 C284.4448 298.35 285.9899 298.1941 286 298.1333 C286.3649 295.9441 286.9509 282.7144 286 280.1333 C285.8109 279.6201 279 279.1333 279 279.1333 "/>
<path id="10" d="M306 283.1333 C306 283.1333 304.3078 296.2524 305 297.1333 C305.4939 297.7619 311.4997 296.3083 317 297.1333 C320.8731 297.7143 324.9512 300.2147 325 300.1333 C325.5046 299.2924 327.3028 284.0876 326 282.1333 C325.0229 280.6676 311 279.1333 311 279.1333 "/>
<path id="11" d="M340 285.1333 C340 285.1333 338.0694 300.4051 339 301.1333 C341.0648 302.7493 361.5855 304.1173 363 303.1333 C363.7208 302.6319 363.4596 286.52 362 285.1333 C360.3912 283.605 343 284.1333 343 284.1333 "/>
<path id="12" d="M271 316.1333 C271 316.1333 270.2679 329.6324 271 330.1333 C272.3998 331.0911 288.6827 330.52 290 329.1333 C291.3139 327.7503 290.946 310.9798 290 310.1333 C289.0423 309.2764 271 312.1333 271 312.1333 "/>
<path id="13" d="M306 313.1333 C306 313.1333 303.2087 330.342 304 331.1333 C304.9892 332.1225 322.9792 332.2616 324 331.1333 C325.1336 329.8804 324.201 311.8491 323 310.1333 C322.5517 309.4929 310 311.1333 310 311.1333 "/>
<path id="14" d="M344 318.1333 C344 318.1333 342.2586 331.548 343 332.1333 C344.5333 333.3438 361.4516 334.3131 363 333.1333 C364.123 332.2777 365.1543 317.2326 364 316.1333 C362.1112 314.3345 342 313.1333 342 313.1333 "/>
<path id="15" d="M275 218.1333 C275 218.1333 274.929 231.2514 276 232.1333 C277.3676 233.2596 289.9762 233.3701 292 232.1333 C293.1032 231.4591 294.6914 221.9976 294 221.1333 C292.882 219.7359 280 217.1333 280 217.1333 "/>
<path id="16" d="M308 219.1333 C308 219.1333 306.7076 227.7472 307 232.1333 C307.0482 232.8568 308.1311 233.9885 309 234.1333 C315.0204 235.1367 323.6291 236.2877 325 235.1333 C326.566 233.8146 328.8385 219.9967 328 218.1333 C327.5499 217.1332 316 215.1333 316 215.1333 "/>
<path id="17" d="M341 220.1333 C341 220.1333 337.0756 232.0791 338 234.1333 C338.8331 235.9846 344.3061 238.5805 350 240.1333 C354.1755 241.2721 359.1632 241.0897 360 240.1333 C361.865 238.0019 364.9647 225.8401 364 224.1333 C362.8338 222.0701 347 217.1333 347 217.1333 "/>
<path id="18" d="M285 223.1333 L284 229.1333 "/>
<path id="19" d="M316 225.1333 C316 225.1333 315.9 223.1833 316 223.1333 C316.4 222.9333 319.9856 223.0684 320 223.1333 C320.1389 223.7583 317.8084 231.5585 318 232.1333 C318.0383 232.2483 322.4612 232.3488 323 232.1333 C323.0862 232.0988 323 230.1333 323 230.1333 "/>
<path id="20" d="M348 227.1333 C348 227.1333 353.9979 227.1249 354 227.1333 C354.0039 227.1489 349.0074 231.1037 349 231.1333 C348.9986 231.139 352.5293 230.7568 353 231.1333 C353.4942 231.5287 354.2478 234.7617 354 235.1333 C353.6035 235.728 349 237.1333 349 237.1333 "/>
<path id="21" d="M284 259.1333 C284 259.1333 285.0148 249.1422 285 249.1333 C284.9947 249.1301 278.9765 256.0923 279 256.1333 C279.0375 256.199 289 256.1333 289 256.1333 "/>
<path id="22" d="M318 256.1333 C318 256.1333 312.8729 255.6345 312 256.1333 C311.522 256.4065 310.8924 260.0258 311 260.1333 C311.1793 260.3126 315.5404 259.8576 316 260.1333 C316.1654 260.2326 316.2347 262.9769 316 263.1333 C315.2178 263.6548 310 264.1333 310 264.1333 "/>
<path id="23" d="M349 255.1333 C349 255.1333 346.4371 256.8219 346 258.1333 C345.3443 260.1004 345.5114 263.6448 346 264.1333 C346.6514 264.7848 352.4884 265.3526 353 265.1333 C353.1335 265.0761 353.1396 261.2032 353 261.1333 C352.616 260.9413 347 262.1333 347 262.1333 "/>
<path id="24" d="M275 285.1333 C275 285.1333 274.7044 280.3445 275 280.1333 C275.5794 279.7195 281.8529 279.839 282 280.1333 C282.4835 281.1003 281 292.1333 281 292.1333 "/>
<path id="25" d="M313 285.1333 C313 285.1333 317.0071 286.644 318 288.1333 C319.0452 289.7011 319.2148 293.8111 319 294.1333 C318.8657 294.3347 314.3125 294.4458 314 294.1333 C313.6875 293.8208 313.322 290.005 314 289.1333 C315.2806 287.4868 320.9483 285.3142 321 285.1333 C321.0135 285.086 316 282.1333 316 282.1333 "/>
<path id="26" d="M354 290.1333 C354 290.1333 350.6369 289.7512 350 290.1333 C349.5541 290.4008 348.9963 293.1324 349 293.1333 C349.0664 293.1499 353.8955 291.0288 354 291.1333 C354.3136 291.4469 355 299.1333 355 299.1333 "/>
<path id="27" d="M316 318.1333 C316 318.1333 312.0941 321.2861 312 322.1333 C311.9012 323.023 314.4323 327.0072 315 327.1333 C315.7365 327.297 320.1542 325.4021 321 324.1333 C321.725 323.0458 321.225 318.8083 321 318.1333 C320.975 318.0583 319 318.1333 319 318.1333 "/>
<path id="28" d="M353 320.1333 L358 328.1333 "/>
<path id="29" d="M358 320.1333 L350 328.1333 "/>
<path id="30" d="M350 323.1333 L361 322.1333 "/>
<path id="31" d="M279 316.1333 L281 326.1333 "/>
<path id="32" d="M282 315.1333 L283 325.1333 "/>
<path id="33" d="M289 317.1333 L278 321.1333 "/>
<path id="34" d="M290 319.1333 L277 327.1333 "/>
</g>
</g>
</svg>
