<?xml version="1.0" encoding="utf-8"?>
<!DOCTYPE svg PUBLIC "-//W3C//DTD SVG 1.1//EN" "http://www.w3.org/Graphics/SVG/1.1/DTD/svg11.dtd">
<svg viewBox="0 0 800 800" preserveAspectRatio="xMinYMin meet" xmlns="http://www.w3.org/2000/svg" version="1.1">
<g fill="none" stroke="black" stroke-linecap="round" stroke-linejoin="round" stroke-width="0.99846">
<g transform="translate(87.52,210.7092) scale(3.0046) translate(-160,-201.1333)">
<path id="0" d="M250 239.1333 L250 274.1333 "/>
<path id="1" d="M318 233.1333 L318 273.1333 "/>
<path id="2" d="M319 274.1333 C319 274.1333 324.9 277.318 328 281.1333 C330.6533 284.3989 331.3949 285.7764 332 290.1333 C333.7186 302.5075 334.6754 309.2352 333 317.1333 C332.5186 319.4027 329.1148 321.4874 325 323.1333 C317.6409 326.077 316.3367 326.8217 308 327.1333 C264.2494 328.7689 262.0452 330.0058 218 327.1333 C194.222 325.5826 192.4775 323.6541 170 318.1333 C165.4213 317.0087 162.6851 315.4924 161 313.1333 C159.5677 311.1281 158.8283 306.1163 160 304.1333 C162.9642 299.117 166.5978 296.4206 174 291.1333 C180.0398 286.8192 180.9984 286.0257 188 284.1333 C198.4905 281.2981 199.5527 281.6459 211 281.1333 C232.7719 280.1585 255 281.1333 255 281.1333 "/>
<path id="3" d="M268 276.1333 C268 276.1333 264.3915 294.4686 266 299.1333 C266.7309 301.253 272.5902 303.9038 278 305.1333 C281.9562 306.0325 283.5797 305.4594 288 304.1333 C292.9353 302.6527 294.1956 302.3037 298 299.1333 C302.3863 295.4781 304.7535 293.4072 306 289.1333 C307.3855 284.383 307.1735 278.0313 305 275.1333 C301.6477 270.6635 295.8695 268.1601 288 265.1333 C284.6024 263.8266 280.5037 264.0923 279 265.1333 C277.2907 266.3167 275 274.1333 275 274.1333 "/>
<path id="4" d="M250 240.1333 L324 240.1333 "/>
<path id="5" d="M335 241.1333 C335 241.1333 335.9818 246.4424 338 249.1333 C339.6736 251.3649 341.2568 252.5847 344 253.1333 C349.6478 254.2629 353.0049 254.7984 358 253.1333 C362.5194 251.6269 367.1455 248.1241 368 245.1333 C369.5291 239.7814 369.3441 231.4695 366 225.1333 C362.0339 217.6185 357.8807 213.9773 349 209.1333 C338.1738 203.2281 335.0923 201.9516 322 201.1333 C281.5626 198.606 279.4348 201.0545 237 202.1333 C220.5049 202.5527 207.9953 201.5079 204 204.1333 C202.1604 205.3422 200.5798 216.8491 202 225.1333 C203.0568 231.2978 205.4756 233.1008 210 239.1333 C212.545 242.5267 213.5546 243.8208 217 245.1333 C222.4772 247.2199 227.1205 248.5702 231 247.1333 C236.104 245.243 238.2636 236.465 244 235.1333 C259.7103 231.4863 266.7695 235.72 287 234.1333 C290.8675 233.83 291.1863 231.3376 295 231.1333 C317.4318 229.9316 338.2486 229.8191 343 231.1333 C343.2569 231.2044 342 244.1333 342 244.1333 "/>
</g>
</g>
</svg>
