<?xml version="1.0" encoding="utf-8"?>
<!DOCTYPE svg PUBLIC "-//W3C//DTD SVG 1.1//EN" "http://www.w3.org/Graphics/SVG/1.1/DTD/svg11.dtd">
<svg viewBox="0 0 800 800" preserveAspectRatio="xMinYMin meet" xmlns="http://www.w3.org/2000/svg" version="1.1">
<g fill="none" stroke="black" stroke-linecap="round" stroke-linejoin="round" stroke-width="0.91206">
<g transform="translate(87.52,169.7516) scale(3.2893) translate(-105,-145)">
<path id="0" d="M148 168 C148 168 161.2038 165.7732 166 168 C170.2728 169.9838 171.9194 174.2961 176 181 C178.6585 185.3675 178.1593 190.0358 180 191 C183.4917 192.829 195.7956 192.8502 197 192 C197.6783 191.5212 195.1882 183.4471 197 179 C199.5757 172.6777 203.2837 166.5052 208 165 C219.0739 161.4658 243.0443 163.6045 244 164 C244.0435 164.018 238.3847 170.8677 237 177 C235.2906 184.5704 234.6443 189.2012 237 195 C239.5234 201.2115 243.3557 203.0551 250 209 C252.2604 211.0225 254.2689 209.9634 256 212 C261.6314 218.6251 267 229 267 229 "/>
<path id="1" d="M156 170 C156 170 158.6449 173.6262 159 177 C160.51 191.3446 162.8474 196.6104 160 208 C158.1249 215.5005 151.6148 216.2831 147 225 C143.2036 232.1711 143.2131 233.5084 142 242 C139.2999 260.9008 138.7265 269.5129 139 281 C139.0217 281.9133 141.2271 283.7974 143 284 C155.7018 285.4516 159.0821 286.105 174 285 C185.2733 284.1649 185.5404 280.9858 197 280 C231.3629 277.0441 241.1836 281.4621 267 277 C271.7231 276.1837 276.7238 270.5942 278 266 C280.2446 257.9194 279.6451 250.7867 277 241 C275.4893 235.4106 268 229 268 229 "/>
<path id="2" d="M195 216 C195 216 186.5843 217.259 183 220 C180.1717 222.1628 178.9193 224.7711 178 229 C176.724 234.8694 176.0448 238.1121 178 243 C180.9048 250.2621 183.7947 253.8289 190 259 C193.7558 262.1299 196.1563 262.246 202 263 C210.871 264.1447 213.9032 265.0604 221 263 C226.4582 261.4154 228.8263 258.9102 233 254 C236.315 250.0999 236.8035 248.2645 238 243 C239.0845 238.2284 239.0289 236.373 238 232 C237.3507 229.2406 236.4315 227.5197 234 226 C222.4701 218.7938 219.1243 216.7113 206 212 C201.6286 210.4308 195 212 195 212 "/>
<path id="3" d="M124 209 C124 209 139.2295 210.2022 145 209 C146.1106 208.7686 146.1588 205.5344 148 204 C151.3827 201.1811 156.6383 199.7957 157 199 C157.1664 198.634 154.9507 194.3655 153 193 C151.4061 191.8843 147.1137 192.3867 147 192 C146.354 189.8035 146.6741 182.9608 148 176 C148.4563 173.6047 149.3037 172.1309 151 171 C153.9462 169.0359 155.6898 168.1268 160 168 C204.1062 166.7028 211.3449 166.3503 253 168 C256.6542 168.1447 259.9573 170.3056 261 172 C262.0517 173.709 262.2166 178.0455 261 181 C259.529 184.5725 255.5597 185.435 254 189 C252.8721 191.5781 253.0097 194.2271 254 197 C254.9638 199.6986 256.8496 202.5221 259 203 C269.6765 205.3725 277.1609 205.3566 290 205 C292.1091 204.9414 294.9638 202 295 202 C295.0072 202 294 205.0004 294 205 C294 204.9975 296.6076 195.145 295 188 C292.5802 177.2453 290.9907 173.8434 285 165 C281.8911 160.4106 279.4114 158.5461 274 157 C260.9079 153.2594 257.9395 155.9879 243 153 C235.9531 151.5906 235.8642 148.9152 229 148 C214.4291 146.0572 206.3917 147.7867 198 147 C197.6795 146.97 197.2663 145.0072 197 145 C187.9115 144.7544 178.1154 143.6793 161 146 C149.6566 147.5381 148.8206 148.6133 138 153 C130.7787 155.9275 130.4004 156.6207 124 161 C121.2322 162.8937 119.8599 163.5279 119 166 C116.5702 172.9856 115.0061 176.6453 116 184 C117.1343 192.394 119.3575 196.81 124 203 C126.3212 206.095 130.751 205.6371 134 208 C134.7581 208.5513 135 211 135 211 "/>
<path id="4" d="M201 237 C201 237 206.9144 236.2286 210 237 C211.2857 237.3214 212.7968 238.8825 213 240 C213.448 242.4641 212.7156 247.3639 212 248 C211.2942 248.6274 204.1183 248.1892 204 248 C203.8551 247.7682 207 240 207 240 "/>
<path id="5" d="M211 224 C211 224 213.0017 224.9992 213 225 C212.9955 225.0022 209 225 209 225 "/>
<path id="6" d="M224 232 C224 232 229.596 234.3955 231 236 C231.5547 236.6339 231.2439 239.8049 231 240 C230.6189 240.3049 226 240 226 240 "/>
<path id="7" d="M225 251 C225 251 228 251 228 251 C228 251.0071 225 253 225 253 "/>
<path id="8" d="M214 257 L215 257 "/>
<path id="9" d="M200 254 C200 254 200 252 200 252 C200.0744 252 203 254 203 254 "/>
<path id="10" d="M183 240 C183 240 187.8472 239.9236 188 240 C188 240 187 242 187 242 "/>
<path id="11" d="M191 229 L193 229 "/>
<path id="12" d="M197 223 C197 223 201.4612 222.7845 202 223 C202.0862 223.0345 202 225 202 225 "/>
<path id="13" d="M121 201 C121 201 122.9517 200.8743 123 201 C123.8893 203.3123 126.4384 213.1231 126 214 C125.7713 214.4575 116.9935 215.0994 116 215 C115.9799 214.998 116 213 116 213 C116.247 213 120.5232 214.1417 121 215 C121.6986 216.2575 121.5694 221.2407 121 222 C120.5526 222.5966 115.0734 222.7799 115 223 C114.8288 223.5136 118.1981 230.6434 118 231 C117.8297 231.3065 110.0001 232 110 232 C110 232 113.0351 231.4486 114 232 C115.2751 232.7286 116.1009 233.9021 117 236 C118.9197 240.4793 120.1998 245.8335 120 246 C119.438 246.4683 106.8422 246.2456 105 246 C104.9672 245.9956 105 244 105 244 C106.0473 244 115.6262 244.6262 117 246 C118.1776 247.1776 116.4253 254.9004 118 257 C119.7757 259.3676 126.3683 259.3683 129 262 C130.6448 263.6448 129.5944 269.0078 131 270 C134.2762 272.3126 146 274 146 274 "/>
</g>
</g>
</svg>
