<?xml version="1.0" encoding="utf-8"?>
<!DOCTYPE svg PUBLIC "-//W3C//DTD SVG 1.1//EN" "http://www.w3.org/Graphics/SVG/1.1/DTD/svg11.dtd">
<svg viewBox="0 0 800 800" preserveAspectRatio="xMinYMin meet" xmlns="http://www.w3.org/2000/svg" version="1.1">
<g fill="none" stroke="black" stroke-linecap="round" stroke-linejoin="round" stroke-width="1.8721">
<g transform="translate(87.52,155.6246) scale(1.6025) translate(-55,-78.4167)">
<path id="0" d="M203 181.4167 L203 340.4167 "/>
<path id="1" d="M201 184.4167 C201 184.4167 205.7849 172.7618 212 165.4167 C215.5804 161.1852 217.4353 160.2716 223 158.4167 C232.7383 155.1706 234.1022 155.0057 245 154.4167 C270.5078 153.0379 294.8671 150.84 297 154.4167 C305.0305 167.8832 305.8963 209.1219 310 263.4167 C312.3507 294.5177 310.8603 295.8744 310 326.4167 C309.89 330.3224 309.1938 333.914 308 334.4167 C299.2453 338.1029 289.7882 340.4936 272 342.4167 C253.6641 344.3989 251.9533 344.6263 234 342.4167 C220.7785 340.7894 212.259 336.754 207 334.4167 C206.694 334.2807 207 330.4167 207 330.4167 "/>
<path id="2" d="M234 195.4167 C234 195.4167 232.198 180.0921 233 179.4167 C234.2859 178.3338 244.06 181.2047 253 179.4167 C262.6552 177.4856 272.5226 171.0825 273 171.4167 C273.5105 171.774 274.8421 189.7324 273 193.4167 C272.1208 195.1751 266.248 196.9361 260 197.4167 C247.8291 198.3529 234 196.4167 234 196.4167 "/>
<path id="3" d="M205 185.4167 C205 185.4167 203.6909 199.7371 206 210.4167 C207.2375 216.1399 210.1423 221.6776 213 222.4167 C227.6443 226.204 243.4175 225.7778 264 225.4167 C266.4523 225.3736 266.9843 222.4219 270 221.4167 C275.209 219.6803 277.908 221.3423 282 219.4167 C284.4738 218.2525 285.485 216.6891 287 213.4167 C297.4331 190.8812 307 165.4167 307 165.4167 "/>
<path id="4" d="M205 336.4167 C205 336.4167 200.712 309.5775 205 291.4167 C207.9553 278.9003 214.363 273.2756 222 264.4167 C223.6311 262.5246 226.1564 262.4167 230 262.4167 C255.9441 262.4167 262.916 259.1457 284 264.4167 C294.1551 266.9555 297.1935 272.6102 306 281.4167 C309.3871 284.8038 309.659 286.4997 311 291.4167 C312.4483 296.727 312 303.4167 312 303.4167 "/>
<path id="5" d="M300 150.4167 C300 150.4167 345.5322 150.0346 391 150.4167 C404.9943 150.5343 405.4605 150.028 419 151.4167 C424.4479 151.9754 428.4448 152.3125 430 154.4167 C433.4142 159.036 433.8916 164.4016 436 174.4167 C437.8266 183.0931 437.6092 183.4276 438 192.4167 C439.103 217.7848 437.3123 218.1015 439 243.4167 C440.7978 270.3843 442.9565 270.5103 445 297.4167 C445.9382 309.7691 445.7624 310.5991 445 322.4167 C444.8131 325.3139 444.2953 327.6251 443 328.4167 C438.6442 331.0785 434.8762 332.6614 427 333.4167 C399.6657 336.0378 396.9276 337.3174 370 335.4167 C356.4721 334.4618 355.736 329.3445 342 327.4167 C328.322 325.4969 325.005 324.9611 313 327.4167 C306.0285 328.8427 298 336.4167 298 336.4167 "/>
<path id="6" d="M332 241.4167 L333 323.4167 "/>
<path id="7" d="M358 238.4167 L362 322.4167 "/>
<path id="8" d="M380 238.4167 C380 238.4167 378.9564 269.1534 380 299.4167 C380.4466 312.3671 383 325.4167 383 325.4167 "/>
<path id="9" d="M409 234.4167 L409 324.4167 "/>
<path id="10" d="M322 261.4167 C322 261.4167 350.2496 254.8426 378 251.4167 C390.1214 249.9202 391.5279 252.7278 403 251.4167 C407.7986 250.8683 408.1727 248.2944 413 247.4167 C418.4 246.4348 425 247.4167 425 247.4167 "/>
<path id="11" d="M320 278.4167 C320 278.4167 351.5048 279.1612 382 276.4167 C400.9455 274.7116 404.5062 273.4746 420 269.4167 C421.9634 268.9025 424 265.4167 424 265.4167 "/>
<path id="12" d="M322 303.4167 L438 303.4167 "/>
<path id="13" d="M364 171.4167 C364 171.4167 367.4789 173.6121 368 173.4167 C368.9419 173.0635 370.3458 169.5983 372 168.4167 C372.6554 167.9485 374.5358 167.9525 375 168.4167 C377.6305 171.0472 381.271 178.3738 382 178.4167 C382.9099 178.4702 387.9994 171.1947 392 169.4167 C394.1591 168.4571 396.9965 171.1234 400 170.4167 C403.9364 169.4905 409 165.4167 409 165.4167 "/>
<path id="14" d="M214 335.4167 C214 335.4167 217.0554 357.2031 215 370.4167 C214.3367 374.6808 211.1963 377.0072 207 380.4167 C204.2838 382.6236 202.8692 382.8891 199 383.4167 C192.5584 384.2951 186.1939 384.5359 185 383.4167 C183.6303 382.1325 183.7761 368.6538 183 368.4167 C179.136 367.236 160.1871 371.7952 149 372.4167 C148.3825 372.451 147.0945 371.2198 147 370.4167 C146.3659 365.0271 147.928 356.4874 147 355.4167 C146.303 354.6124 138.8372 357.1442 134 355.4167 C127.0897 352.9487 122.6275 349.286 119 345.4167 C118.0955 344.4518 119.0576 339.4599 119 339.4167 C118.9776 339.3999 116.7732 342.1211 115 342.4167 C109.4832 343.3361 105.9951 344.0817 101 342.4167 C96.4806 340.9102 93.6381 338.3738 91 334.4167 C88.9615 331.3589 88.7567 327.8224 89 324.4167 C89.104 322.9606 92 320.4967 92 320.4167 C92 320.4167 89.5894 320.9471 89 320.4167 C82.4776 314.5465 78.6505 311.3948 72 302.4167 C69.5604 299.1232 69.2382 297.2281 69 293.4167 C68.8217 290.5646 71 286.4167 71 286.4167 "/>
<path id="15" d="M71 286.4167 C71 286.4167 65.6747 277.1554 60 270.4167 C58.3803 268.4933 55.3724 268.6084 55 267.4167 C53.9389 264.021 54.3634 260.783 55 254.4167 C56.3418 240.9984 58.3435 240.8742 59 227.4167 C61.3197 179.8627 58.8882 178.7205 61 131.4167 C61.3546 123.4741 61.3758 122.7269 64 115.4167 C68.1412 103.8805 68.1663 100.1322 75 92.4167 C81.2017 85.4148 85.8389 84.3429 95 80.4167 C97.9149 79.1674 101.0041 80.8602 103 80.4167 C103.3604 80.3366 103.7326 78.4262 104 78.4167 C110.7286 78.1764 129.8792 77.6154 131 79.4167 C133.8097 83.9322 134.9353 110.2078 132 123.4167 C131.1358 127.3056 125.7014 129.5075 119 133.4167 C114.2556 136.1842 111.856 134.846 108 137.4167 C105.7428 138.9215 106.2658 141.3774 104 143.4167 C101.9029 145.3041 100.133 144.4614 98 146.4167 C94.7497 149.3961 93.782 150.8527 92 154.4167 C91.352 155.7127 92.6208 157.4854 92 158.4167 C90.6032 160.5119 87.0355 160.8279 86 163.4167 C82.1658 173.0021 81.4796 176.0869 80 188.4167 C78.5618 200.4013 78.271 206.0066 80 213.4167 C80.4588 215.3828 83.3072 216.9165 87 218.4167 C98.5511 223.1093 102.7099 221.9318 112 226.4167 C114.2199 227.4883 115.7057 229.7087 116 232.4167 C117.8347 249.2957 117.1187 267.6694 117 272.4167 C116.9999 272.4226 115.1 272.2417 115 272.4167 C114.2875 273.6635 114.4555 277.7995 113 279.4167 C111.4618 281.1258 109.5843 281.2966 106 282.4167 C93.723 286.2532 93.2468 287.1607 81 289.4167 C74.944 290.5322 68 289.4167 68 289.4167 "/>
<path id="16" d="M70 298.4167 C70 298.4167 72.7753 294.9111 75 294.4167 C79.9112 293.3253 86.9884 293.4773 88 294.4167 C89.0171 295.3612 89.9818 305.8458 89 307.4167 C88.2166 308.6702 78.4898 310.6838 78 310.4167 C77.7432 310.2766 77.034 305.2808 78 301.4167 C79.3149 296.1571 83 290.4167 83 290.4167 "/>
<path id="17" d="M84 288.4167 L85 287.4167 "/>
</g>
</g>
</svg>
