<?xml version="1.0" encoding="utf-8"?>
<!DOCTYPE svg PUBLIC "-//W3C//DTD SVG 1.1//EN" "http://www.w3.org/Graphics/SVG/1.1/DTD/svg11.dtd">
<svg viewBox="0 0 800 800" preserveAspectRatio="xMinYMin meet" xmlns="http://www.w3.org/2000/svg" version="1.1">
<g fill="none" stroke="black" stroke-linecap="round" stroke-linejoin="round" stroke-width="0.56164">
<g transform="translate(87.52,164.9723) scale(5.3415) translate(-116.5,-129.6667)">
<path id="0" d="M127.5 215.6667 L218.5 215.6667 "/>
<path id="1" d="M126.5 216.6667 C126.5 216.6667 125.2555 203.489 126.5 191.6667 C127.1681 185.3199 128.2691 184.9875 130.5 178.6667 C131.2284 176.6027 131.134 175.6912 132.5 174.6667 C139.6717 169.2879 150.5 163.6667 150.5 163.6667 "/>
<path id="2" d="M221.5 217.6667 C221.5 217.6667 224.0379 199.202 221.5 185.6667 C220.0972 178.1852 217.5919 176.2562 212.5 169.6667 C209.7978 166.1697 204.5 163.6667 204.5 163.6667 "/>
<path id="3" d="M150.5 164.6667 C150.5 164.6667 120.3473 165.9114 116.5 164.6667 C116.0973 164.5364 115.0551 158.0014 116.5 153.6667 C118.9957 146.1794 120.217 142.5433 125.5 137.6667 C130.9198 132.6638 134.5166 130.427 142.5 129.6667 C172.6142 126.7987 177.8149 127.7347 209.5 129.6667 C216.7379 130.108 219.4789 132.0084 224.5 134.6667 C225.6716 135.2869 225.4278 137.7732 226.5 138.6667 C227.4717 139.4764 230.3443 139.1773 230.5 139.6667 C232.0041 144.3939 234.3128 159.9246 233.5 160.6667 C232.1934 161.8596 216.9231 159.9936 207.5 160.6667 C206.7234 160.7221 205.5 162.6667 205.5 162.6667 "/>
<path id="4" d="M168.5 170.6667 C168.5 170.6667 164.1944 169.7543 162.5 170.6667 C159.4588 172.3042 156.4264 174.6226 155.5 177.6667 C153.8765 183.001 154.1339 191.0711 155.5 193.6667 C156.2055 195.0071 160.6138 196.178 165.5 196.6667 C174.9878 197.6155 177.172 197.3908 185.5 196.6667 C186.8216 196.5517 188.4117 195.3732 188.5 194.6667 C189.3181 188.1219 190.5966 179.6555 188.5 172.6667 C187.4803 169.2676 183.2618 165.8636 179.5 164.6667 C175.3679 163.3519 171.6403 164.2388 166.5 165.6667 C164.1342 166.3238 161.5 169.6667 161.5 169.6667 "/>
<path id="5" d="M158.5 151.6667 C158.5 151.6667 182.2838 152.3814 185.5 151.6667 C185.6588 151.6314 185.6442 145.6955 185.5 145.6667 C181.8942 144.9455 159.1486 145.0586 155.5 145.6667 C155.3986 145.6836 155.2845 150.1279 155.5 150.6667 C155.5345 150.7529 157.5 150.6667 157.5 150.6667 "/>
<path id="6" d="M165.5 178.6667 C165.5 178.6667 168.5285 174.1924 170.5 173.6667 C173.53 172.8587 179.8758 173.7587 180.5 174.6667 C181.7435 176.4754 182.5175 185.8001 181.5 189.6667 C181.1148 191.1305 178.2706 192.8751 175.5 193.6667 C172.3969 194.5533 170.4607 194.6536 167.5 193.6667 C164.2926 192.5975 161.5626 190.7919 160.5 188.6667 C159.3749 186.4164 159.7433 181.7477 160.5 179.6667 C160.7905 178.8679 164.5 177.6667 164.5 177.6667 "/>
</g>
</g>
</svg>
