<?xml version="1.0" encoding="utf-8"?>
<!DOCTYPE svg PUBLIC "-//W3C//DTD SVG 1.1//EN" "http://www.w3.org/Graphics/SVG/1.1/DTD/svg11.dtd">
<svg viewBox="0 0 800 800" preserveAspectRatio="xMinYMin meet" xmlns="http://www.w3.org/2000/svg" version="1.1">
<g fill="none" stroke="black" stroke-linecap="round" stroke-linejoin="round" stroke-width="1.4881">
<g transform="translate(87.52,154.048) scale(2.016) translate(-147,-127)">
<path id="0" d="M199 231 C199 231 207.5005 229.5654 213 231 C217.1502 232.0827 218.8815 233.3039 222 237 C231.4488 248.1986 235.8012 250.6137 240 263 C244.4049 275.9945 242.686 280.9077 242 296 C241.7669 301.128 240.7449 302.0881 238 307 C231.4916 318.6467 230.527 320.2149 223 330 C221.508 331.9396 220.0948 332.9302 218 333 C207.7587 333.3414 201.7462 334.6265 193 331 C185.4761 327.8803 183.0772 323.8135 177 316 C173.4816 311.4764 173.5627 310.0556 172 304 C169.6749 294.9901 169.1896 294.2919 169 285 C168.702 270.3957 167.1183 267.33 171 255 C174.6399 243.4379 179.5375 236.5711 186 231 C188.6911 228.68 200 230 200 230 "/>
<path id="1" d="M189 230 L253 200 "/>
<path id="2" d="M229 333 C229 333 260.9119 318.3996 290 303 C293.8502 300.9616 297 297 297 297 "/>
<path id="3" d="M179 154 C179 154 190.9926 153.2897 201 156 C213.8653 159.4843 213.7097 162.7371 227 167 C266.3274 179.6144 268.059 181.0436 307 190 C316.1314 192.1002 317.3712 188.7964 327 190 C340.8414 191.7302 355 196 355 196 "/>
<path id="4" d="M253 204 C253 204 259.4868 202.7691 264 204 C269.1846 205.414 270.9937 206.1539 275 210 C282.4772 217.1781 284.9579 218.6223 289 228 C296.5246 245.4571 295.7071 248.4868 300 268 C301.012 272.6 301.1318 273.6143 300 278 C297.3896 288.1155 292 299 292 299 "/>
<path id="5" d="M359 194 C359 194 398.3678 198.5957 400 202 C403.6662 209.6467 394.2102 234.8401 394 267 C393.7157 310.4971 399.7461 317.3218 399 355 C398.8885 360.6318 395.7497 364.0003 392 368 C389.9874 370.1468 387.8558 370.5869 384 371 C374.733 371.9929 373.7509 371.9287 364 371 C353.0883 369.9608 352.9049 367.7035 342 367 C322.4029 365.7357 320.3953 369.2201 302 367 C293.3336 365.9541 292.0433 364.4948 284 360 C275.6652 355.3423 276.4318 352.9491 268 348 C253.8012 339.6659 238 333 238 333 "/>
<path id="6" d="M181 155 C181 155 176.2719 153.9309 174 155 C169.5325 157.1023 165.8826 158.7213 164 163 C156.8217 179.3143 156.7179 183.908 152 205 C148.2921 221.5767 148.2254 222.09 147 239 C145.7519 256.2238 143.8374 260.0318 147 274 C148.872 282.268 152.15 285.15 159 292 C164.9367 297.9367 175 302 175 302 "/>
<path id="7" d="M334 197 C334 197 332.8489 218.2154 334 228 C334.1289 229.0954 335.8959 230.2986 338 231 C354.1311 236.377 355.9068 237.4389 373 241 C378.9922 242.2484 382.0521 242.1611 386 241 C387.6613 240.5114 389.7941 238.0591 390 236 C390.9495 226.5053 390.0368 220.3314 389 211 C388.9082 210.1742 388.0154 209.2792 387 209 C370.8837 204.568 367.9042 203.5668 349 200 C341.7672 198.6353 334 199 334 199 "/>
<path id="8" d="M168 155 C168 155 173.3193 156.3384 177 155 C208.974 143.3731 218.1949 128.6753 245 127 C267.5778 125.5889 275.5852 141.0605 305 147 C325.3033 151.0997 327.1983 146.5269 349 148 C363.9757 149.0119 364.8488 148.0962 379 152 C407.4436 159.8465 430.4761 168.9775 436 172 C436.0752 172.0411 434.8056 178.61 432 181 C423.601 188.1547 418.5111 187.4567 409 195 C405.3359 197.906 403 204 403 204 "/>
<path id="9" d="M441 175 C441 175 439.6104 197.3226 441 219 C442.0839 235.9087 442.4696 236.7599 446 253 C447.3168 259.0573 449.4386 258.8963 451 265 C454.8256 279.9545 455.2283 280.6457 457 296 C458.1739 306.1741 457.9328 306.7395 457 317 C455.9622 328.4154 455.5772 328.955 453 340 C452.1709 343.5535 452.1324 344.7254 450 347 C445.5994 351.694 444.0783 353.7606 438 356 C426.9504 360.0709 424.5241 357.4932 412 361 C399.8781 364.3941 388 370 388 370 "/>
<path id="10" d="M205 247 C205 247 201.2067 247.4238 199 249 C194.9262 251.9099 193.6766 252.7621 191 257 C188.2263 261.3917 187.7354 262.6681 187 268 C185.854 276.3082 185.1746 278.4702 187 286 C188.7178 293.0861 190.1618 295.1941 195 301 C199.2427 306.0913 201.5484 307.8668 207 310 C210.8634 311.5118 213.949 311.2793 218 310 C221.644 308.8493 223.1609 307.123 226 304 C227.4584 302.3957 227.9174 301.3132 228 299 C228.3741 288.5253 228.7493 286.7874 227 276 C225.8814 269.1021 224.9496 268.7037 222 262 C219.5165 256.3557 219.2381 253.8333 216 251 C213.3836 248.7107 206 248 206 248 "/>
<path id="11" d="M261 181 C261 181 259 175.8816 259 172 C259 169.4123 259.4474 168.0702 261 166 C263.3289 162.8947 264.2209 161.7006 268 160 C282.9604 153.2678 285.2268 154.9766 301 148 C310.8266 143.6536 310.3534 140.6749 320 137 C330.3597 133.0534 334.4481 130.8338 343 132 C351.6216 133.1757 355.7074 136.8573 364 143 C367.6036 145.6694 369.006 147.8584 370 152 C371.5233 158.3472 371.1659 161.8791 370 168 C369.5801 170.2043 368.3658 171.4945 366 173 C353.093 181.2136 351.565 182.6674 337 189 C329.4093 192.3003 320 193 320 193 "/>
</g>
</g>
</svg>
