<?xml version="1.0" encoding="utf-8"?>
<!DOCTYPE svg PUBLIC "-//W3C//DTD SVG 1.1//EN" "http://www.w3.org/Graphics/SVG/1.1/DTD/svg11.dtd">
<svg viewBox="0 0 800 800" preserveAspectRatio="xMinYMin meet" xmlns="http://www.w3.org/2000/svg" version="1.1">
<g fill="none" stroke="black" stroke-linecap="round" stroke-linejoin="round" stroke-width="0.96006">
<g transform="translate(87.52,132.8296) scale(3.1248) translate(-173,-114.1333)">
<path id="0" d="M246 179.1333 C246 179.1333 240.3904 180.1346 239 182.1333 C234.3602 188.8031 232.6263 193.2697 230 202.1333 C229.2233 204.7548 229.8019 206.3377 231 209.1333 C232.4746 212.5741 232.9868 214.0241 236 216.1333 C246.5918 223.5476 250.6782 226.5944 261 230.1333 C264.2262 231.2395 267.376 230.0519 271 228.1333 C274.5084 226.276 277.1004 224.2821 278 221.1333 C280.1277 213.6862 280.3744 208.6546 279 200.1333 C278.2766 195.6485 276.2754 194.3914 273 190.1333 C271.6381 188.3629 270.9757 187.6821 269 187.1333 C263.0502 185.4806 260.4738 187.4141 255 185.1333 C250.0797 183.0832 245 177.1333 245 177.1333 "/>
<path id="1" d="M182 155.1333 C182 155.1333 184.2375 188.7995 190 220.1333 C192.0348 231.1974 192.9777 232.3841 198 242.1333 C201.0064 247.9693 202.0196 250.8506 207 253.1333 C232.9219 265.0142 238.3909 265.7179 270 275.1333 C284.9005 279.5718 285.4603 279.1411 301 281.1333 C324.2406 284.1129 327.25 286.637 348 285.1333 C358.0628 284.4041 365.74 280.7341 370 276.1333 C373.0137 272.8785 372.5128 267.0654 373 258.1333 C373.9925 239.9383 374.6559 239.0721 373 221.1333 C371.7221 207.2895 368.8224 207.1658 367 193.1333 C363.8643 168.9882 366.5173 167.6994 363 144.1333 C361.66 135.1551 358.7266 126.3543 357 126.1333 C332.3105 122.9731 292.0406 123.8257 238 128.1333 C229.0579 128.8461 228.746 133.9846 219 137.1333 C196.8113 144.302 175.1628 147.6135 173 149.1333 C172.9667 149.1567 182 163.1333 182 163.1333 "/>
<path id="2" d="M324 123.1333 C324 123.1333 341.5872 113.9403 344 114.1333 C344.7358 114.1922 349.1051 124.7481 349 125.1333 C348.9762 125.2206 341 125.1333 341 125.1333 "/>
<path id="3" d="M307 148.1333 C307 148.1333 309.0317 166.0765 313 172.1333 C314.9204 175.0645 319.7095 176.01 326 177.1333 C332.7918 178.3462 335.0728 178.0692 341 177.1333 C342.7678 176.8542 344.8572 175.2401 345 174.1333 C346.1372 165.3201 346.5668 147.2465 345 146.1333 C342.0634 144.0468 307 147.1333 307 147.1333 "/>
<path id="4" d="M208 151.1333 C208 151.1333 202.5997 152.2338 202 153.1333 C201.3004 154.1828 201.6231 159.4737 202 160.1333 C202.1231 160.3487 206 160.1333 206 160.1333 "/>
</g>
</g>
</svg>
