<?xml version="1.0" encoding="utf-8"?>
<!DOCTYPE svg PUBLIC "-//W3C//DTD SVG 1.1//EN" "http://www.w3.org/Graphics/SVG/1.1/DTD/svg11.dtd">
<svg viewBox="0 0 800 800" preserveAspectRatio="xMinYMin meet" xmlns="http://www.w3.org/2000/svg" version="1.1">
<g fill="none" stroke="black" stroke-linecap="round" stroke-linejoin="round" stroke-width="1.1857">
<g transform="translate(87.52,188.7281) scale(2.5302) translate(-144,-71)">
<path id="0" d="M152,145C152,145 147.63543509660684,194.08348077285467 151,221C151.59863757753948,225.78910062031582 156.91018858481456,230.12425572060687 163,233C172.0868412468726,237.29100836657872 175.18170474971197,237.60073326857136 187,238C247.63442953125127,240.04846045713685 250.52053939375435,241.75861054615086 311,238C337.1835171624087,236.37277576956782 338.3022934745271,233.2171870626144 364,227C368.6019074566045,225.88663529275698 369.75046378115354,225.76210578601947 373,223C378.7784091633519,218.08835221115086 381.5822452858086,216.58166561085431 384,210C389.4725226464931,195.10257724010225 389.58099013602105,191.73762329973664 391,174C392.5106089689841,155.1173878876983 392.1640544047221,153.93547604131845 390,135C388.24061902669416,119.60541648357383 387.7084996378062,118.71406136814435 383,104C379.9006626932852,94.31457091651629 379.14343016057785,93.03660962590287 374,85C371.82297463316416,81.59839786431898 370.6407917691315,80.92747799542256 367,79C362.85412729179825,76.80512621330494 362.00176787991756,76.66690238398901 357,76C339.9747516395113,73.72996688526817 339.4160717802039,73.1184766787769 322,73C266.3078139771336,72.62114159168118 265.46175300612725,72.34087485587061 210,75C193.0591895834272,75.81223063641103 192.51521989409554,76.36105324367386 176,80C163.4082413265201,82.77445530093624 160.47444470712676,83.10996402212811 151,88C147.70545333550632,89.70041118167415 146.9599894440533,92.08002111189343 145,96C143.84182441942306,98.31635116115387 144.07424487490425,99.03020500383017 144,102C143.58102477232458,118.75900910701648 143.29998319461546,119.19959667077111 144,136C144.28995794144603,142.9589905947051 144.0500009371373,143.66250304569627 146,150C147.84736753323833,156.0039444830246 152,162 152,162"/>
<path id="1" d="M256,123C256,123 253.76777027027026,120.27912162162162 252,120C246.07277027027027,119.06412162162162 243.41243834430853,118.57501370126478 237,120C231.3000548050591,121.26665448776465 228.645,122.355 225,126C221.355,129.645 219.89077181763204,132.47721473068134 219,138C217.70594342911167,146.0231507395077 217.3439980396639,150.25784117760833 220,157C222.56470189294956,163.51039711287194 225.4397160625371,166.68895626966722 232,171C240.94744925163405,176.87975236535954 243.88578782394046,177.67376954454568 255,180C263.9329181975806,181.86968055298197 268.4262992917593,182.7938228010023 275,180C283.94845008909266,176.19690871213564 290.562520903592,170.6071070224138 295,163C298.0314174059764,157.80328444689755 297.53609139207816,152.11934021527028 296,144C294.40652588350514,135.5773510985271 292.8805618618717,131.81019269270442 288,126C284.46198751760755,121.78808037810424 281.2683279743262,120.43276067984598 275,119C265.4564399921217,116.8186148553421 253,118 253,118"/>
<path id="2" d="M250,136C250,136 244.5467764853005,134.74532235146995 242,135C241.29077110535937,135.07092288946407 240.19339767166198,136.0974775322441 240,137C239.0273234748765,141.5391571172429 237.77527236387226,144.45101163723984 239,149C240.6865101874546,155.2641806962599 242.4906334994847,158.4906334994847 247,163C250.27953927310204,166.27953927310204 252.74228387990468,167.06112212141156 258,168C265.51553415364975,169.3420596702946 268.0770230112652,169.20399599804082 275,168C277.72669681909246,167.52579185754914 280.5534607354318,165.65857441125314 281,164C282.77086461770523,157.42250284852346 283.3895456606287,150.3372739637723 282,142C281.42721018569506,138.5632611141702 279.2565308374551,136.1710205583034 276,134C271.7856659750581,131.19044398337206 269.8452913760944,130.77937218347924 264,130C255.60516664071554,128.88068888542872 254.008734471307,129.27193322988117 246,130C244.13938492080746,130.16914682538115 242.66408667031703,131.1698916621037 242,132C241.61687307481708,132.47890865647864 242,135 242,135"/>
<path id="3" d="M313,76C313,76 314.6880974188506,103.93579087534394 317,105C324.86216092784286,108.6190899509118 347.3997064315672,105.85374010652037 376,105C379.906946250178,104.88337473880065 384,103 384,103"/>
<path id="4" d="M185,78C185,78 182.09926470588235,78.1654411764706 182,78C181.72426470588235,77.5404411764706 181.5218025019296,73.41842281081159 182,73C183.06569728141403,72.06751487876272 186.13530343629213,71.12077176761586 190,71C201.4892335828059,70.64096145053732 214,72 214,72"/>
<path id="5" d="M191,75C191,75 184.99999578849247,79 185,79C185.00000491342547,79 191.99349004890104,75.01301990219792 192,75C192.00216998369964,74.9956600326007 187,75 187,75C187,75 189.865,74.82 190,75C190.24,75.32 190,79 190,79C189.95710678118655,79 185.97518014752467,75.14891911485193 186,75C186.021096874604,74.87341875237585 190.998848993657,73.00230201268603 191,73C191.00051155837468,72.99897688325065 186.99934164902527,73.00065835097474 187,73C187.0013167019495,72.99868329805051 192.99980992143781,70.99961984287562 193,71C193.00028511784328,71.00057023568658 187.9905881405236,74.9979084756719 188,75C188.03103369881407,75.00689637751424 202,73 202,73"/>
</g>
</g>
</svg>
