<?xml version="1.0" encoding="utf-8"?>
<!DOCTYPE svg PUBLIC "-//W3C//DTD SVG 1.1//EN" "http://www.w3.org/Graphics/SVG/1.1/DTD/svg11.dtd">
<svg viewBox="0 0 800 800" preserveAspectRatio="xMinYMin meet" xmlns="http://www.w3.org/2000/svg" version="1.1">
<g fill="none" stroke="black" stroke-linecap="round" stroke-linejoin="round" stroke-width="1.6369">
<g transform="translate(137.92,87.52) scale(1.8327) translate(-142,-75)">
<path id="0" d="M274 143 C274 143 262.7932 162.6656 254 183 C246.9166 199.3805 242.7994 210.9244 242 217 C241.9308 217.5258 245.7412 220.6741 249 221 C272.4281 223.3428 302 223 302 223 "/>
<path id="1" d="M271 142 C271 142 290.9991 145.9999 311 148 C330.8038 149.9804 350.3859 149.2579 351 150 C351.2407 150.2908 340.7744 163.0618 335 177 C326.6917 197.0546 328.58 212.9609 322 220 C318.2963 223.9621 292 223 292 223 "/>
<path id="2" d="M244 216 C244 216 240.7526 275.4023 244 287 C244.4519 288.6139 254.605 290.3885 265 291 C288.0072 292.3534 312 291 312 291 "/>
<path id="3" d="M321 225 L321 287 "/>
<path id="4" d="M352 152 L355 182 "/>
<path id="5" d="M348 249 C348 249 341.7483 263.5354 334 276 C330.6156 281.4444 325 286 325 286 "/>
<path id="6" d="M348 198 L420 195 "/>
<path id="7" d="M352 240 C352 240 351.9281 245.993 352 246 C359.6781 246.743 414 246 414 246 "/>
<path id="8" d="M419 196 C419 196 416.02 196.1257 415 197 C413.47 198.3114 412.9069 199.4089 412 202 C409.5417 209.0238 408.9078 209.556 408 217 C406.4689 229.5552 406.2907 231.2968 407 243 C407.1964 246.2403 408.9172 249.5669 410 250 C412.1656 250.8662 419.1205 250.7597 422 249 C424.7654 247.3101 427.4036 243.5726 428 239 C429.9913 223.7335 429.13 218.4436 428 203 C427.8362 200.7609 425 198 425 198 "/>
<path id="9" d="M357 172 L360 193 "/>
<path id="10" d="M285 202 C285 202 286.0991 207.3243 287 208 C287.8316 208.6237 291.0329 208.6557 293 208 C294.3114 207.5629 295.7573 206.092 296 205 C296.3824 203.2792 295.8351 199.6681 295 199 C293.4737 197.779 288.825 196.5964 286 197 C284.1939 197.258 281.8579 199.2842 281 201 C280.2081 202.5838 281 207 281 207 "/>
<path id="11" d="M411 197 C411 197 405.1755 197.3684 403 199 C400.8817 200.5887 400.0822 202.4443 399 206 C396.7727 213.3183 396.61 214.0699 396 222 C395.1356 233.2374 394.9493 235.193 396 245 C396.2431 247.269 399 250 399 250 "/>
<path id="12" d="M308 147 C308 147 310.0379 103.0391 308 89 C307.8135 87.7156 303.4932 85.9985 299 85 C290.6193 83.1376 290.0051 83.4841 281 83 C243.6212 80.9904 224.4689 81.9188 206 80 C205.3821 79.9358 204.4375 75.1875 204 75 C203.5625 74.8125 200.7414 75.5074 199 77 C194.4427 80.9063 194.2971 81.8434 190 87 C179.3185 99.8178 178.7044 99.5851 169 113 C161.837 122.9018 160.403 123.5428 156 134 C152.9625 141.214 152.7658 143.2702 153 151 C153.2233 158.3696 155.983 159.1179 157 167 C157.9237 174.1586 157.7693 174.6915 157 182 C155.7988 193.4115 155.8977 193.8921 153 205 C149.9765 216.59 147.2146 216.5243 145 228 C141.8799 244.1677 142 245.6253 142 262 C142 269.7057 142.0548 270.9572 145 278 C153.0845 297.3324 160.2904 298.1614 165 317 C170.2983 338.1934 164.9039 341.8953 167 366 C167.8673 375.9744 167.9629 376.509 171 386 C175.8297 401.0928 181.8537 415.0033 183 416 C183.0694 416.0603 190.2119 411.141 194 406 C196.3455 402.8168 196.8558 401.3272 197 397 C198.7599 344.2023 195.8632 337.7096 198 286 C198.1956 281.2662 199.139 279.3659 202 276 C206.4944 270.7125 208.1954 268.9384 215 266 C228.7075 260.0808 232.6473 262.6749 246 257 C250.7544 254.9794 250.1085 251.9645 255 249 C266.046 242.3054 268.5807 243.4672 279 237 C281.8904 235.2059 283.3333 233.6668 284 231 C285.2874 225.8503 284 217 284 217 "/>
</g>
</g>
</svg>
