<?xml version="1.0" encoding="utf-8"?>
<!DOCTYPE svg PUBLIC "-//W3C//DTD SVG 1.1//EN" "http://www.w3.org/Graphics/SVG/1.1/DTD/svg11.dtd">
<svg viewBox="0 0 800 800" preserveAspectRatio="xMinYMin meet" xmlns="http://www.w3.org/2000/svg" version="1.1">
<g fill="none" stroke="black" stroke-linecap="round" stroke-linejoin="round" stroke-width="1.0705">
<g transform="translate(87.52,195.4167) scale(2.8025) translate(-111,-144)">
<path id="0" d="M157 160 C157 160 151.3879 160.2448 147 162 C141.962 164.0152 140.1052 164.1702 137 168 C126.6076 180.8173 124.8504 183.2992 117 199 C112.4047 208.1907 112.3735 209.6985 111 220 C109.4879 231.3411 109.1236 232.9762 111 244 C112.9047 255.19 113.9045 257.4084 119 267 C121.577 271.8508 123.0923 272.6628 128 276 C134.9591 280.7322 135.8197 280.9862 144 284 C154.4526 287.8509 155.278 289.5304 166 290 C221.3855 292.4256 239.1204 290.7159 281 290 C281.7408 289.9873 282.2059 288.0581 283 288 C297.456 286.9422 306.706 289.8091 322 287 C326.4767 286.1778 331.3017 282.3171 332 279 C335.4153 262.7774 337.3289 251.51 334 230 C331.4484 213.5125 327.5946 211.1975 319 195 C315.0314 187.5207 314.2343 186.631 308 181 C299.3927 173.2257 298.2521 170.6615 288 167 C265.8847 159.1017 262.7061 159.0536 238 156 C219.2394 153.6813 217.204 154.838 199 156 C195.1765 156.2441 194.8828 158.647 191 159 C174.0608 160.5399 155 160 155 160 "/>
<path id="1" d="M215 200 C215 200 196.7228 200.9427 186 205 C182.0411 206.498 179.7954 209.3832 178 214 C173.6514 225.1821 172.6068 230.6847 172 241 C171.8499 243.5511 173.5262 245.3359 176 248 C179.5458 251.8186 180.2533 252.6266 185 255 C192.5947 258.7974 193.7391 259.4011 202 261 C208.3681 262.2325 210.6623 262.5568 216 261 C220.5911 259.6609 221.1422 256.159 226 254 C229.1288 252.6094 230.5141 254.2676 234 253 C240.896 250.4924 241.8101 250.0234 248 246 C251.3035 243.8527 253.218 242.6068 254 240 C255.4036 235.3212 255.8333 230.7665 254 226 C251.925 220.605 249.5826 218.7238 244 214 C237.2241 208.2666 236.0135 207.1568 228 204 C220.6928 201.1214 211 201 211 201 "/>
<path id="2" d="M208 205 C208 205 205.1912 204.2853 204 205 C197.0912 209.1453 193.6782 210.7539 188 217 C185.0831 220.2086 184.294 222.4431 184 227 C183.4018 236.2715 184.2298 240.9191 186 248 C186.3293 249.3174 188.2513 250.7719 190 251 C197.5663 251.9869 200.129 252.1447 209 251 C214.8437 250.246 215.8009 249.8162 221 247 C227.193 243.6454 230.9973 241.8386 233 238 C234.8373 234.4786 235.0594 226.7147 233 224 C228.3384 217.8551 220.588 214.5315 211 209 C209.7489 208.2782 207 209 207 209 "/>
<path id="3" d="M279 180 C279 180 276.6367 179.5048 276 180 C273.571 181.8892 270.4749 184.2695 270 187 C269.0759 192.3133 270.7654 201.7654 272 203 C272.823 203.823 282.608 203.2757 285 202 C286.0134 201.4595 286.5422 198.4338 287 195 C287.504 191.2196 288.1602 188.5469 287 187 C284.5346 183.7128 275 179 275 179 "/>
<path id="4" d="M145 161 C145 161 143.1118 152.775 144 149 C144.4663 147.0181 146.8827 144.4603 149 144 C155.2611 142.6389 165.3707 142.6151 167 144 C168.489 145.2657 169 161 169 161 "/>
</g>
</g>
</svg>
