<?xml version="1.0" encoding="utf-8"?>
<!DOCTYPE svg PUBLIC "-//W3C//DTD SVG 1.1//EN" "http://www.w3.org/Graphics/SVG/1.1/DTD/svg11.dtd">
<svg viewBox="0 0 800 800" preserveAspectRatio="xMinYMin meet" xmlns="http://www.w3.org/2000/svg" version="1.1">
<g fill="none" stroke="black" stroke-linecap="round" stroke-linejoin="round" stroke-width="0.86406">
<g transform="translate(235.08,87.52) scale(3.472) translate(-126,-217.1333)">
<path id="0" d="M141 359.1333 C141 359.1333 138.7502 339.8676 134 322.1333 C131.4165 312.4883 128.4286 312.2405 126 303.1333 C124.7359 298.393 124.63 295.8519 126 292.1333 C127.3176 288.5571 129.5947 285.7549 133 284.1333 C137.7104 281.8903 143.9652 281.0711 147 282.1333 C149.0879 282.8641 152.0416 286.8892 153 291.1333 C155.057 300.243 154 313.1333 154 313.1333 C154 313.1333 150.9234 260.32 153 228.1333 C153.2066 224.9306 157.2798 221.3234 160 220.1333 C162.2182 219.1629 167.4466 219.8189 169 221.1333 C170.966 222.7969 172.5858 226.3014 173 231.1333 C175.4095 259.2442 175 291.1333 175 291.1333 C175 291.1333 169.8464 261.9001 172 239.1333 C172.9555 229.032 178.6486 222.0487 182 217.1333 C182.3965 216.5519 186.3821 216.5154 187 217.1333 C188.6065 218.7398 190.6256 221.8277 191 226.1333 C193.4101 253.8497 193 286.1333 193 286.1333 C193 286.1333 189.8349 256.5964 189 231.1333 C188.9101 228.3924 189.5233 226.7741 191 225.1333 C192.9499 222.9667 196.6796 221.0233 198 221.1333 C199.0728 221.2227 201.4983 223.3803 203 226.1333 C207.0457 233.5504 209.1885 235.0185 210 243.1333 C212.4299 267.4319 210 296.1333 210 296.1333 C210 296.1333 208.6485 252.1386 210 241.1333 C210.0703 240.5611 216.4494 238.7329 217 239.1333 C218.1193 239.9474 220.5332 244.3487 221 249.1333 C222.3927 263.4087 223.5735 266.0963 221 280.1333 C218.4252 294.1779 214.2607 294.434 210 309.1333 C204.36 328.5913 203.2553 329.287 201 349.1333 C198.3549 372.4101 200 397.1333 200 397.1333 "/>
</g>
</g>
</svg>
