<?xml version="1.0" encoding="utf-8"?>
<!DOCTYPE svg PUBLIC "-//W3C//DTD SVG 1.1//EN" "http://www.w3.org/Graphics/SVG/1.1/DTD/svg11.dtd">
<svg viewBox="0 0 800 800" preserveAspectRatio="xMinYMin meet" xmlns="http://www.w3.org/2000/svg" version="1.1">
<g fill="none" stroke="black" stroke-linecap="round" stroke-linejoin="round" stroke-width="1.8433">
<g transform="translate(139.6,87.52) scale(1.6275) translate(-173,-37.1333)">
<path id="0" d="M238 399.1333 C238 399.1333 238.6916 393.9848 237 391.1333 C222.9903 367.517 217.6258 366.4056 203 340.1333 C191.0501 318.6678 190.1645 317.356 183 294.1333 C176.0269 271.531 175.9078 269.9811 174 246.1333 C170.9816 208.4038 172.2522 207.2727 173 169.1333 C173.2434 156.7181 173.5412 156.1198 176 144.1333 C177.4423 137.1022 177.8989 136.3355 181 130.1333 C182.5975 126.9383 185.2118 124.199 186 124.1333 C186.9434 124.0547 191.3018 126.2364 193 129.1333 C198.5707 138.6363 201.5814 141.6431 203 153.1333 C206.2042 179.0876 201.552 182.2593 203 210.1333 C203.5133 220.0153 204.0554 222.7718 207 230.1333 C208.0088 232.6554 210.3082 234.0117 213 235.1333 C214.9981 235.9659 216.181 235.567 219 235.1333 C222.4334 234.6051 223.5749 234.6766 226 233.1333 C228.1053 231.7936 228.6556 230.8222 230 228.1333 C233.9373 220.2588 236.5504 219.1615 237 211.1333 C239.7918 161.2805 234.5783 156.4104 237 103.1333 C238.0386 80.2843 239.3351 79.3815 244 57.1333 C245.696 49.0445 247.2448 44.4789 250 41.1333 C250.9984 39.921 254.7695 39.6718 258 40.1333 C260.6432 40.5109 262.8986 41.2544 264 43.1333 C269.4838 52.488 274.2675 56.8809 275 69.1333 C279.3414 141.7536 271.5063 160.3649 275 227.1333 C275.32 233.2485 280.6919 237.5708 284 241.1333 C284.5496 241.7252 287.0675 241.8327 288 241.1333 C292.8959 237.4614 295.6367 235.5634 300 229.1333 C304.4948 222.5095 306.627 220.6392 307 213.1333 C310.3092 146.5354 305.5357 139.5977 308 68.1333 C308.4957 53.7589 310.4041 47.1806 313 39.1333 C313.3064 38.1836 317.5177 36.8264 318 37.1333 C319.5176 38.0991 321.9331 41.409 324 46.1333 C328.7116 56.9027 329.6548 57.6027 332 69.1333 C335.5057 86.3698 335.4913 87.2013 336 105.1333 C337.4791 157.2708 331.9616 162.0397 336 210.1333 C337.0355 222.4653 345.4472 235.2706 347 236.1333 C347.6035 236.4686 357.6042 231.043 363 225.1333 C366.4903 221.3106 366.6478 219.1214 368 213.1333 C370.0033 204.2615 369.8867 203.5918 370 194.1333 C370.8812 120.5499 368.0389 106.9282 370 46.1333 C370.0949 43.1916 372.5958 40.8819 375 39.1333 C376.6028 37.9676 379.3187 37.3768 381 38.1333 C386.6043 40.6552 389.7421 42.6125 395 48.1333 C398.7664 52.088 399.6117 53.5802 401 59.1333 C405.2759 76.237 405.8394 77.7574 407 96.1333 C408.8009 124.6469 410.9452 126.517 407 154.1333 C401.228 194.5376 395.1942 195.9819 387 236.1333 C385.4769 243.5963 386.1021 246.4467 387 252.1333 C387.1949 253.3679 388.7143 254.8119 390 255.1333 C393.0856 255.9047 395.1743 256.0335 399 255.1333 C402.8007 254.2391 404.4758 253.9604 407 251.1333 C427.2743 228.4262 427.8461 222.682 449 199.1333 C452.9798 194.7029 454.6168 193.6962 460 192.1333 C468.5012 189.6653 472.6068 188.9011 480 190.1333 C484.1978 190.833 486.9917 193.4308 490 197.1333 C492.2749 199.9332 492.5138 201.7571 493 206.1333 C493.9378 214.5732 494.1193 215.7385 493 224.1333 C492.2206 229.9786 491.9933 231.2692 489 236.1333 C484.5737 243.3261 483.8149 246.1114 477 250.1333 C456.1528 262.4366 428 272.1333 428 272.1333 "/>
<path id="1" d="M435 272.1333 C435 272.1333 417.9546 281.0266 404 292.1333 C394.1486 299.9742 393.9203 301.053 386 311.1333 C377.6871 321.7133 377.4287 322.1944 371 334.1333 C360.084 354.4059 358.0801 354.8931 351 376.1333 C344.0169 397.0826 342 421.1333 342 421.1333 "/>
</g>
</g>
</svg>
