<?xml version="1.0" encoding="utf-8"?>
<!DOCTYPE svg PUBLIC "-//W3C//DTD SVG 1.1//EN" "http://www.w3.org/Graphics/SVG/1.1/DTD/svg11.dtd">
<svg viewBox="0 0 800 800" preserveAspectRatio="xMinYMin meet" xmlns="http://www.w3.org/2000/svg" version="1.1">
<g fill="none" stroke="black" stroke-linecap="round" stroke-linejoin="round" stroke-width="1.2001">
<g transform="translate(240.0102,87.52) scale(2.4998) translate(-212,-191)">
<path id="0" d="M225 432 C225 432 223.0896 419.4575 223 407 C222.5916 350.2299 223.2086 349.9788 224 293 C224.2083 278.0005 223.9534 274.1639 225 263 C225.0761 262.1885 227 261.6902 227 261 C227 249.9561 225 229 225 229 "/>
<path id="1" d="M224 230 C224 230 215.0659 231.4329 215 232 C213.1793 247.6579 215.223 280.5331 214 316 C213.9553 317.2953 212.0212 317.7277 212 319 C211.1821 368.0738 211.5298 378.6344 212 436 C212.0201 438.4555 212.8009 440.9734 213 441 C214.6249 441.2166 226.2619 439.0066 227 438 C227.5453 437.2565 224 426 224 426 "/>
<path id="2" d="M224 227 C224 227 318.5479 221.2809 329 227 C332.2587 228.783 330.4165 256.6749 330 285 C329.928 289.8992 328.5443 294.944 328 295 C309.109 296.9421 223 296 223 296 "/>
<path id="3" d="M332 229 C332 229 335.592 230.6012 336 232 C338.1419 239.3438 338.3239 242.5198 339 253 C340.3101 273.3064 341.6766 287.9923 340 294 C339.7683 294.8303 327 296 327 296 "/>
<path id="4" d="M233 226 C233 226 234.9791 224.7298 235 224 C235.3342 212.3028 233.3878 193.7986 234 191 C234.014 190.936 241.2893 191.2893 242 192 C242.5528 192.5528 242.6996 197.9505 242 199 C241.4003 199.8995 236.0011 201.0028 236 201 C235.9849 200.9622 240 194 240 194 "/>
<path id="5" d="M236 192 L239 198 "/>
<path id="6" d="M237 193 L238 194 "/>
</g>
</g>
</svg>
