<?xml version="1.0" encoding="utf-8"?>
<!DOCTYPE svg PUBLIC "-//W3C//DTD SVG 1.1//EN" "http://www.w3.org/Graphics/SVG/1.1/DTD/svg11.dtd">
<svg viewBox="0 0 800 800" preserveAspectRatio="xMinYMin meet" xmlns="http://www.w3.org/2000/svg" version="1.1">
<g fill="none" stroke="black" stroke-linecap="round" stroke-linejoin="round" stroke-width="1.5985">
<g transform="translate(241.4141,87.52) scale(1.8768) translate(-158,-135.4167)">
<path id="0" d="M165 286.4167 C165 286.4167 158.6763 278.4696 158 271.4167 C155.497 245.3136 155.8099 238.238 158 213.4167 C158.3976 208.9106 160.3692 206.6844 164 203.4167 C169.1315 198.7983 171.2688 197.1475 178 195.4167 C186.911 193.1253 192.2303 192.6114 199 194.4167 C202.7222 195.4093 205.2972 198.4114 208 203.4167 C217.8909 221.7332 220.2777 224.5393 226 244.4167 C229.1334 255.3009 228.6662 259.1418 227 269.4167 C226.1189 274.8504 224.0891 277.087 220 281.4167 C216.6066 285.0096 214.5986 286.889 210 287.4167 C188.0084 289.9403 159 288.4167 159 288.4167 "/>
<path id="1" d="M167 202.4167 C167 202.4167 171.4925 195.6532 177 191.4167 C183.8385 186.1563 185.2836 184.6214 193 182.4167 C201.0132 180.1272 202.8575 183.1176 212 181.4167 C245.2566 175.2294 245.6272 172.1474 279 166.4167 C294.5139 163.7527 300.2217 163.0348 311 164.4167 C313.6815 164.7605 316.5678 167.7467 318 171.4167 C323.5206 185.5632 329.0754 195.3589 327 205.4167 C324.8344 215.9116 316.6888 220.6239 305 234.4167 C291.8184 249.971 291.3759 251.7522 277 264.4167 C271.6735 269.1091 270.1916 268.908 263 271.4167 C249.095 276.2673 247.0547 274.477 234 279.4167 C229.8137 281.0007 226 285.4167 226 285.4167 "/>
<path id="2" d="M259 231.4167 C259 231.4167 254.5798 216.4252 253 201.4167 C249.6259 169.3624 245.7393 141.5407 249 136.4167 C250.5805 133.933 289.5283 135.0598 295 135.4167 C295.0311 135.4187 295.6208 138.4854 295 139.4167 C293.6032 141.5119 292.2148 142.9756 289 144.4167 C278.6294 149.0656 268.1554 148.6231 266 152.4167 C262.2007 159.1035 263.5557 170.6439 264 188.4167 C264.545 210.2186 268.4999 224.7518 268 232.4167 C267.9719 232.8472 261 234.4167 261 234.4167 "/>
<path id="3" d="M258 276.4167 C258 276.4167 256 332.4178 256 382.4167 C256 385.2468 257.8955 385.5262 258 388.4167 C259.3254 425.0868 259 465.4167 259 465.4167 "/>
<path id="4" d="M270 268.4167 C270 268.4167 271.971 270.1396 272 271.4167 C272.8101 307.0601 270.8402 314.2762 272 356.4167 C272.3286 368.3561 274.6453 368.4755 275 380.4167 C276.1338 418.5863 276.2652 420.3044 275 457.4167 C274.8176 462.7677 273.3626 466.9178 272 468.4167 C271.3683 469.1115 266.9142 469.2868 265 468.4167 C263.2847 467.637 261 463.4167 261 463.4167 "/>
<path id="5" d="M170 231.4167 C170 231.4167 172.8447 227.704 175 227.4167 C184.7378 226.1183 200 227.4167 200 227.4167 "/>
</g>
</g>
</svg>
