<?xml version="1.0" encoding="utf-8"?>
<!DOCTYPE svg PUBLIC "-//W3C//DTD SVG 1.1//EN" "http://www.w3.org/Graphics/SVG/1.1/DTD/svg11.dtd">
<svg viewBox="0 0 800 800" preserveAspectRatio="xMinYMin meet" xmlns="http://www.w3.org/2000/svg" version="1.1">
<g fill="none" stroke="black" stroke-linecap="round" stroke-linejoin="round" stroke-width="1.3633">
<g transform="translate(87.52,263.5651) scale(2.2006) translate(-104,-156.1333)">
<path id="0" d="M104 227.1333 C104 227.1333 120.9796 216.3863 134 203.1333 C148.255 188.6238 147.0437 184.6601 160 170.1333 C162.3619 167.4851 163.9524 166.2217 167 166.1333 C193.5288 165.3644 200.5958 171.1232 229 168.1333 C244.7505 166.4754 246.0755 160.1992 262 156.1333 C268.1819 154.555 269.5636 154.846 276 156.1333 C288.6889 158.6711 291.7054 157.4321 302 164.1333 C341.4886 189.8382 382 225.1333 382 225.1333 "/>
<path id="1" d="M104 228.1333 C104 228.1333 113.9 229.6061 122 228.1333 C129.2409 226.8168 130.9789 226.4528 137 222.1333 C152.7105 210.8628 152.7513 206.8631 168 195.1333 C171.0361 192.7978 172.5153 192.0365 176 192.1333 C188.3738 192.477 190.1949 196.0202 204 196.1333 C250.2794 196.5127 256.179 185.9706 298 193.1333 C339.5244 200.2452 385 227.1333 385 227.1333 "/>
<path id="2" d="M105 229.1333 C105 229.1333 112.0148 235.2283 119 237.1333 C132.4211 240.7936 134.0859 240.6947 149 241.1333 C201.4907 242.6772 202.8991 238.9004 255 241.1333 C271.838 241.855 272.1306 245.8521 289 247.1333 C311.0318 248.8066 312.1841 248.9513 334 247.1333 C347.3319 246.0223 348.5549 245.6806 361 241.1333 C373.6828 236.4992 386 228.1333 386 228.1333 "/>
<path id="3" d="M106 229.1333 C106 229.1333 122.829 239.1597 136 251.1333 C143.9984 258.4046 142.4458 261.277 150 269.1333 C154.4605 273.7722 155.5211 274.6429 161 277.1333 C165.458 279.1597 166.5636 279.0231 172 279.1333 C239.4688 280.5009 244.6056 284.2516 309 280.1333 C325.8197 279.0577 328.9513 276.6477 344 268.1333 C365.0805 256.2062 364.8578 252.6977 385 237.1333 C386.6491 235.859 387.5629 235.4447 388 234.1333 C388.6557 232.1662 388 228.1333 388 228.1333 "/>
<path id="4" d="M140 222.1333 C140 222.1333 148.0492 224.0206 156 224.1333 C218.0058 225.0128 220.1624 228.3854 281 224.1333 C311.131 222.0274 342 211.1333 342 211.1333 "/>
<path id="5" d="M183 200.1333 C183 200.1333 182.2758 211.8053 183 220.1333 C183.1149 221.455 185 223.1333 185 223.1333 "/>
<path id="6" d="M213 197.1333 L225 225.1333 "/>
<path id="7" d="M256 195.1333 C256 195.1333 256.7685 213.7651 259 222.1333 C259.3478 223.4377 264 225.1333 264 225.1333 "/>
<path id="8" d="M297 196.1333 C297 196.1333 299.6856 205.8602 304 211.1333 C307.3304 215.2038 315 218.1333 315 218.1333 "/>
<path id="9" d="M183 201.1333 L185 193.1333 "/>
</g>
</g>
</svg>
