<?xml version="1.0" encoding="utf-8"?>
<!DOCTYPE svg PUBLIC "-//W3C//DTD SVG 1.1//EN" "http://www.w3.org/Graphics/SVG/1.1/DTD/svg11.dtd">
<svg viewBox="0 0 800 800" preserveAspectRatio="xMinYMin meet" xmlns="http://www.w3.org/2000/svg" version="1.1">
<g fill="none" stroke="black" stroke-linecap="round" stroke-linejoin="round" stroke-width="1.4257">
<g transform="translate(87.52,283.2145) scale(2.1042) translate(-148,-169)">
<path id="0" d="M148 223 C148 223 159.1205 217.2799 170 216 C200.199 212.4472 201.6306 215.4507 233 213 C265.5166 210.4596 267.0452 210.2993 298 206 C301.48 205.5167 301.6437 203.2622 305 203 C331.5169 200.9284 333.9964 200.6363 362 201 C371.8495 201.1279 372.7887 201.1343 382 204 C394.5066 207.8909 394.2901 210.3782 407 215 C421.5825 220.3027 437 224 437 224 "/>
<path id="1" d="M151 225 C151 225 150.6846 228.8498 151 229 C154.95 230.881 161.7156 234.2942 172 235 C210.9383 237.6722 212.6037 236.5897 253 236 C280.9552 235.5919 281.2124 235.3721 309 233 C322.0113 231.8893 322.0945 229.487 335 229 C374.48 227.5102 378.1481 231.6594 415 229 C423.0637 228.4181 432 222 432 222 "/>
<path id="2" d="M169 217 C169 217 170.316 223.8135 171 224 C174.4519 224.9414 188.1929 224.3367 191 223 C191.7246 222.6549 192 214 192 214 "/>
<path id="3" d="M212 215 C212 215 213.0343 224.4825 214 226 C214.2504 226.3934 216.5531 226.2719 219 226 C229.9296 224.7856 240.9998 223 241 223 C241 223 239.0118 223.0529 239 223 C238.7618 221.9279 239 214 239 214 "/>
<path id="4" d="M258 209 C258 209 257.5912 215.0277 259 217 C261.0093 219.813 265.0532 222.8719 268 223 C272.3857 223.1907 277.9019 221.2353 282 218 C284.9444 215.6755 287 208 287 208 "/>
<path id="5" d="M314 200 C314 200 312 204.7214 312 208 C312 210.0491 312.7337 211.5227 314 213 C315.0238 214.1944 316.158 214.8884 318 215 C330.962 215.7856 343.8147 216.6988 347 215 C348.0471 214.4415 348.109 200.7446 348 199 C347.9991 198.9863 346 199 346 199 "/>
<path id="6" d="M371 201 C371 201 372.7862 216.2486 374 217 C375.5183 217.9399 389.7538 215.6222 392 214 C392.8044 213.419 392 204 392 204 "/>
<path id="7" d="M195 234 C195 234 197.9945 223.414 199 223 C200.3384 222.4489 209.7685 225.4551 212 227 C212.4898 227.3391 212 232 212 232 "/>
<path id="8" d="M244 234 C244 234 243.2276 228.931 244 227 C244.5076 225.731 246.3594 224.2187 248 224 C252.0518 223.4598 255.4888 223.746 259 225 C260.3692 225.489 262 229 262 229 "/>
<path id="9" d="M295 231 C295 231 293.7898 222.5228 294 220 C294.0225 219.7304 295.2238 218.9261 296 219 C303.8591 219.7485 306.7839 219.8567 315 222 C316.9863 222.5182 319 225 319 225 "/>
<path id="10" d="M345 226 C345 226 352.0325 218.6104 356 218 C360.6662 217.2821 371 222 371 222 "/>
<path id="11" d="M151 217 C151 217 158.3085 213.7158 164 209 C175.4244 199.5341 174.3412 197.0091 186 188 C195.7734 180.4478 197.4795 178.3474 208 175 C216.9836 172.1416 220.0208 175.8144 230 174 C235.3577 173.0259 236.8715 169 241 169 C246.6298 169 248.7793 173.639 256 174 C296.2464 176.0123 302.9738 176.0014 341 174 C345.5914 173.7583 349.7069 169.1078 351 169 C351.2069 168.9828 351.6058 171.8149 353 173 C360.5004 179.3753 361.6 181.5878 371 186 C384.9209 192.5343 387.0979 189.946 402 196 C418.7882 202.8202 420.2265 203.0672 435 212 C440.5552 215.3589 442.8574 218.6671 445 222 C445.4378 222.6811 444.4899 225.6734 444 226 C443.332 226.4454 439 226 439 226 "/>
<path id="12" d="M154 225 C154 225 153.0181 236.5663 156 240 C164.894 250.2416 170.8279 254.8061 187 263 C206.5643 272.9126 209.2897 273.8531 231 278 C252.0233 282.0157 254.0313 281.6552 276 280 C325.9529 276.2364 332.693 276.5998 377 267 C386.3109 264.9826 388.0671 261.5154 396 254 C406.3328 244.211 404.8969 239.6999 415 231 C421.2195 225.6443 432 223 432 223 "/>
</g>
</g>
</svg>
