<?xml version="1.0" encoding="utf-8"?>
<!DOCTYPE svg PUBLIC "-//W3C//DTD SVG 1.1//EN" "http://www.w3.org/Graphics/SVG/1.1/DTD/svg11.dtd">
<svg viewBox="0 0 800 800" preserveAspectRatio="xMinYMin meet" xmlns="http://www.w3.org/2000/svg" version="1.1">
<g fill="none" stroke="black" stroke-linecap="round" stroke-linejoin="round" stroke-width="1.1521">
<g transform="translate(87.52,195.586) scale(2.604) translate(-174,-155.7667)">
<path id="0" d="M289 162.7667 C289 162.7667 294.4302 156.8697 299 155.7667 C306.4276 153.9738 309.5975 154.7584 318 155.7667 C320.8126 156.1042 321.3728 156.8642 324 158.7667 C335.5841 167.1551 339.1954 167.8058 347 176.7667 C350.3827 180.6505 347.8495 184.4606 351 189.7667 C356.7182 199.3973 357.7121 200.73 366 208.7667 C373.5891 216.1258 374.5443 216.6448 384 221.7667 C397.9869 229.3429 414 234.7667 414 234.7667 "/>
<path id="1" d="M414 234.7667 C414 234.7667 390.9407 240.5611 376 251.7667 C357.8209 265.401 357.3326 269.6861 342 288.7667 C335.3638 297.025 336.0655 305.7061 331 307.7667 C317.4676 313.2714 306.7859 311.9825 283 312.7667 C261.7972 313.4657 253.3358 313.9672 240 310.7667 C237.1169 310.0747 237.147 304.5819 233 300.7667 C225.3306 293.7108 220.394 295.3475 215 287.7667 C204.023 272.3396 206.6158 262.8254 196 248.7667 C191.3053 242.5494 178 238.7667 178 238.7667 "/>
<path id="2" d="M286 163.7667 C286 163.7667 279.1573 159.2907 273 158.7667 C257.4458 157.4429 251.4935 155.6779 239 159.7667 C229.3321 162.9307 228.6659 169.3005 218 176.7667 C214.1745 179.4445 210.1418 178.5592 209 180.7667 C205.2926 187.9344 207.4314 197.1645 203 205.7667 C200.844 209.9518 195.2344 209.7859 192 213.7667 C190.162 216.0288 191.7505 218.8491 190 221.7667 C187.8689 225.3184 186.7706 225.9387 183 228.7667 C179.0755 231.7101 174 233.7667 174 233.7667 "/>
<path id="3" d="M178 235.7667 C178 235.7667 187.198 230.5687 193 224.7667 C195.6778 222.0888 194.4667 219.7222 197 216.7667 C199.85 213.4417 200.9123 213.628 205 210.7667 C210.897 206.6388 210.955 205.1415 217 202.7667 C223.8577 200.0726 227.6243 202.9179 233 199.7667 C239.4195 196.0035 239.7238 188.7304 246 185.7667 C253.8141 182.0767 257.5501 183.3589 269 182.7667 C286.307 181.8715 286.693 181.8715 304 182.7667 C315.4499 183.3589 316.3493 183.3617 327 185.7667 C331.0049 186.671 332.1915 187.1142 335 189.7667 C340.3124 194.7839 340.0287 199.7074 345 202.7667 C349.9288 205.7998 356.571 202.6031 361 205.7667 C366.8937 209.9764 366.6126 218.6235 373 222.7667 C381.1942 228.0818 386.5928 225.0868 398 229.7667 C405.241 232.7373 412 238.7667 412 238.7667 "/>
<path id="4" d="M406 235.7667 C406 235.7667 392.1905 239.0739 381 243.7667 C377.8045 245.1067 377.6576 247.4379 375 248.7667 C373.7494 249.392 371.32 248.5267 371 248.7667 C370.82 248.9017 371.1439 251.7212 371 251.7667 C367.9703 252.7234 357.3537 252.0898 352 254.7667 C349.519 256.0072 350.04 260.0752 347 263.7667 C343.4283 268.1037 342.8115 269.189 338 271.7667 C329.7609 276.1805 328.065 278.0782 319 278.7667 C291.1881 280.879 273.3136 279.1518 259 277.7667 C258.4084 277.7094 258.0575 273.2199 257 272.7667 C251.7126 270.5006 247.3985 269.6618 238 268.7667 C226.8465 267.7044 223.1971 271.9812 215 268.7667 C202.2257 263.7571 200.044 259.2743 187 248.7667 C182.4905 245.134 179 239.7667 179 239.7667 "/>
<path id="5" d="M229 199.7667 L345 198.7667 "/>
<path id="6" d="M324 187.7667 L325 198.7667 "/>
<path id="7" d="M286 184.7667 L287 196.7667 "/>
<path id="8" d="M311 185.7667 L310 196.7667 "/>
<path id="9" d="M266 185.7667 L266 199.7667 "/>
<path id="10" d="M250 190.7667 L248 198.7667 "/>
<path id="11" d="M195 248.7667 C195 248.7667 196.9474 253.9818 199 254.7667 C209.6563 258.8411 214.3088 261.2123 229 261.7667 C291.6024 264.129 358 260.7667 358 260.7667 "/>
<path id="12" d="M336 260.7667 L335 270.7667 "/>
<path id="13" d="M310 264.7667 L312 277.7667 "/>
<path id="14" d="M293 266.7667 L290 281.7667 "/>
<path id="15" d="M266 264.7667 L264 275.7667 "/>
<path id="16" d="M241 263.7667 L239 269.7667 "/>
<path id="17" d="M223 260.7667 L222 269.7667 "/>
<path id="18" d="M286 244.7667 C286 244.7667 287.704 241.992 289 241.7667 C296.4238 240.4756 300.7867 239.124 309 240.7667 C315.8859 242.1438 317.1303 244.113 324 248.7667 C332.3457 254.4202 340 261.7667 340 261.7667 "/>
<path id="19" d="M235 257.7667 C235 257.7667 240.981 255.3391 245 251.7667 C249.4267 247.8318 249.6345 242.8885 253 241.7667 C259.5331 239.589 264.4712 240.8095 275 241.7667 C280.3949 242.2571 286 244.7667 286 244.7667 "/>
<path id="20" d="M235 254.7667 L229 261.7667 "/>
</g>
</g>
</svg>
