<?xml version="1.0" encoding="utf-8"?>
<!DOCTYPE svg PUBLIC "-//W3C//DTD SVG 1.1//EN" "http://www.w3.org/Graphics/SVG/1.1/DTD/svg11.dtd">
<svg viewBox="0 0 800 800" preserveAspectRatio="xMinYMin meet" xmlns="http://www.w3.org/2000/svg" version="1.1">
<g fill="none" stroke="black" stroke-linecap="round" stroke-linejoin="round" stroke-width="0.93126">
<g transform="translate(87.52,259.8672) scale(3.2214) translate(-141.5,-185.8333)">
<path id="0" d="M141.5 215.8333 C141.5 215.8333 150.2418 219.2804 156.5 218.8333 C162.1535 218.4295 165.661 217.3233 169.5 213.8333 C174.4529 209.3307 173.1123 204.4366 178.5 198.8333 C184.5097 192.5832 187.4774 190.1742 194.5 187.8333 C199.3801 186.2066 205.3154 187.9841 208.5 188.8333 C208.9018 188.9405 208.6949 191.2583 209.5 191.8333 C216.8192 197.0614 222.1085 198.1218 229.5 203.8333 C230.9806 204.9774 230.6444 208.1204 231.5 208.8333 C232.055 209.2958 234.8401 209.4933 235.5 208.8333 C241.4392 202.8942 243.5803 196.423 251.5 188.8333 C253.9491 186.4863 255.6526 186.194 259.5 185.8333 C270.6501 184.788 272.5532 184.774 283.5 185.8333 C286.8252 186.1551 287.8672 186.6793 290.5 188.8333 C298.0945 195.0471 297.6827 199.8378 305.5 203.8333 C317.2566 209.8423 335.5 211.8333 335.5 211.8333 "/>
<path id="1" d="M161.5 220.8333 C161.5 220.8333 168.2988 217.9394 173.5 218.8333 C197.7001 222.9927 199.7415 227.3813 225.5 231.8333 C239.3524 234.2276 241.3519 235.0584 254.5 232.8333 C271.8437 229.8983 273.9342 228.3897 290.5 220.8333 C301.4388 215.8437 302.7898 209.9075 311.5 206.8333 C315.628 205.3764 324.5 208.8333 324.5 208.8333 "/>
<path id="2" d="M160.5 218.8333 C160.5 218.8333 170.1854 223.0759 175.5 228.8333 C180.9174 234.7022 179.2255 237.66 184.5 244.8333 C191.4413 254.2735 191.9547 257.7425 200.5 262.8333 C212.3178 269.8738 216.3716 270.1318 231.5 272.8333 C243.0358 274.8933 246.5037 275.8511 256.5 272.8333 C269.6272 268.8704 275.8098 266.7876 284.5 256.8333 C299.6636 239.4642 300.7921 221.5147 311.5 209.8333 C313.9749 207.1335 328.5 208.8333 328.5 208.8333 "/>
<path id="3" d="M150.5 216.8333 C150.5 216.8333 170.5 215.8333 170.5 215.8333 C170.5 215.8333 155.5 216.8333 155.5 216.8333 C155.5 216.8333 162.5312 217.5044 166.5 215.8333 C170.3042 214.2316 174.5012 208.834 174.5 208.8333 C174.4974 208.8321 168.2781 212.6296 162.5 213.8333 C157.1834 214.941 150.5015 213.8303 150.5 213.8333 C150.4997 213.8339 157.6986 215.2187 160.5 217.8333 C163.4238 220.5622 162.3862 224.512 165.5 227.8333 C168.7595 231.3102 171.7035 230.2602 175.5 233.8333 C179.482 237.5811 182.5 243.8334 182.5 243.8333 C182.5 243.8333 177.1242 228.6296 170.5 222.8333 C164.8026 217.8481 150.5 215.8333 150.5 215.8333 C150.5 215.8333 156.0474 216.4431 159.5 218.8333 C168.0355 224.7425 176.4946 233.8309 176.5 233.8333 C176.5024 233.8344 174.1349 226.711 170.5 223.8333 C163.9376 218.6381 161.3387 218.3688 152.5 214.8333 C149.4719 213.6221 145.499 213.832 145.5 213.8333 C145.502 213.836 155.5 218.8333 155.5 218.8333 "/>
<path id="4" d="M305.5 201.8333 C305.5 201.8333 309.8574 205.8989 314.5 207.8333 C321.2284 210.6369 329.4999 211.833 329.5 211.8333 C329.5001 211.8335 321.1817 210.2353 315.5 210.8333 C313.3263 211.0622 311.7195 212.0718 310.5 213.8333 C308.09 217.3144 309.2046 219.6724 306.5 223.8333 C303.0977 229.0676 297.5 233.8333 297.5 233.8333 "/>
</g>
</g>
</svg>
