<?xml version="1.0" encoding="utf-8"?>
<!DOCTYPE svg PUBLIC "-//W3C//DTD SVG 1.1//EN" "http://www.w3.org/Graphics/SVG/1.1/DTD/svg11.dtd">
<svg viewBox="0 0 800 800" preserveAspectRatio="xMinYMin meet" xmlns="http://www.w3.org/2000/svg" version="1.1">
<g fill="none" stroke="black" stroke-linecap="round" stroke-linejoin="round" stroke-width="1.5409">
<g transform="translate(87.52,309.4684) scale(1.9469) translate(-135,-180.1333)">
<path id="0" d="M135 193.1333 C135 193.1333 182.2643 198.2437 224 194.1333 C244.8341 192.0815 246.8254 184.9902 267 180.1333 C271.6811 179.0064 273.9727 179.2875 278 181.1333 C284.18 183.9658 285.0997 188.948 291 191.1333 C295.9453 192.9649 298.7871 192.6048 305 191.1333 C316.5966 188.3868 318.7208 183.4182 329 182.1333 C335.3414 181.3407 345 186.1333 345 186.1333 "/>
<path id="1" d="M345 185.1333 C345 185.1333 385.2452 202.2069 425 214.1333 C438.9837 218.3284 455 218.1333 455 218.1333 "/>
<path id="2" d="M139 192.1333 C139 192.1333 168.4184 198.5032 198 203.1333 C225.8151 207.487 226.0426 207.8276 254 210.1333 C274.3007 211.8076 274.6801 209.5077 295 211.1333 C324.4609 213.4902 324.5025 216.113 354 218.1333 C397.2476 221.0955 441 221.1333 441 221.1333 "/>
<path id="3" d="M141 203.1333 L335 225.1333 "/>
<path id="4" d="M335 226.1333 L435 232.1333 "/>
<path id="5" d="M140 206.1333 C140 206.1333 154.0514 208.9623 165 215.1333 C180.4366 223.834 179.6325 228.5958 195 237.1333 C205.3528 242.8849 207.5177 240.3268 219 245.1333 C228.7346 249.2083 228.4093 250.9774 238 255.1333 C243.0557 257.3241 243.745 258.0282 249 258.1333 C267.5112 258.5036 271.7204 253.3353 288 256.1333 C299.4694 258.1046 313 269.1333 313 269.1333 "/>
<path id="6" d="M304 262.1333 C304 262.1333 309.3686 262.9141 313 265.1333 C317.6556 267.9784 318.0564 272.1773 322 273.1333 C330.6519 275.2308 334.9158 274.9807 346 273.1333 C357.7 271.1833 359.6954 269.7526 370 265.1333 C372.705 263.9208 372.835 261.3361 375 260.1333 C376.1134 259.5147 377.5797 260.8172 379 260.1333 C389.3889 255.1313 390.1749 251.1262 402 247.1333 C427.2088 238.6213 455.9977 234.1343 456 234.1333 C456.001 234.1329 431 235.1333 431 235.1333 "/>
</g>
</g>
</svg>
