<?xml version="1.0" encoding="utf-8"?>
<!DOCTYPE svg PUBLIC "-//W3C//DTD SVG 1.1//EN" "http://www.w3.org/Graphics/SVG/1.1/DTD/svg11.dtd">
<svg viewBox="0 0 800 800" preserveAspectRatio="xMinYMin meet" xmlns="http://www.w3.org/2000/svg" version="1.1">
<g fill="none" stroke="black" stroke-linecap="round" stroke-linejoin="round" stroke-width="1.4881">
<g transform="translate(87.52,342.544) scale(2.016) translate(-53,-197)">
<path id="0" d="M53 236 C53 236 57.9297 236.8141 62 236 C67.3367 234.9327 68.1357 234.8105 73 232 C90.0695 222.1376 89.6519 218.0267 107 210 C121.5935 203.2478 123.9145 202.8383 140 201 C157.4361 199.0073 161.9023 198.1616 177 202 C187.3582 204.6334 197.0416 215.6987 199 216 C199.1996 216.0307 200.292 208.1438 203 206 C209.164 201.1201 213.4312 198.7224 223 197 C236.2777 194.61 238.8641 194.7383 253 197 C275.1086 200.5374 275.8733 206.1139 298 209 C320.3333 211.913 325.1008 210.809 345 209 C348.5796 208.6746 353 204 353 204 "/>
<path id="1" d="M53 237 C53 237 72.3143 233.944 87 236 C94.4253 237.0395 95.4473 241.5831 103 244 C106.6624 245.172 107.9485 243.0547 112 244 C122.1887 246.3774 122.8088 250.036 133 251 C157.9344 253.3587 165.7652 254.1131 186 251 C191.1688 250.2048 196.3458 241.5169 198 241 C198.2666 240.9167 199.9999 245.3658 202 246 C216.1579 250.4891 222.9011 255.1103 239 254 C261.511 252.4475 266.6715 249.8352 289 240 C306.5438 232.2724 305.8305 228.0648 323 217 C328.2282 213.6307 328.3505 213.0715 334 211 C342.9165 207.7306 344.5528 209.4954 353 206 C358.1706 203.8604 363 199 363 199 "/>
<path id="2" d="M60 234 C60 234 78.9948 233.4713 97 231 C104.002 230.0389 104.3143 227 111 227 C189.7957 227 198.7417 237.2199 276 231 C310.1782 228.2484 313.1038 219.8857 347 208 C350.1736 206.8872 353 204 353 204 "/>
</g>
</g>
</svg>
