<?xml version="1.0" encoding="utf-8"?>
<!DOCTYPE svg PUBLIC "-//W3C//DTD SVG 1.1//EN" "http://www.w3.org/Graphics/SVG/1.1/DTD/svg11.dtd">
<svg viewBox="0 0 800 800" preserveAspectRatio="xMinYMin meet" xmlns="http://www.w3.org/2000/svg" version="1.1">
<g fill="none" stroke="black" stroke-linecap="round" stroke-linejoin="round" stroke-width="0.97926">
<g transform="translate(87.52,184.0212) scale(3.0635) translate(-207,-141)">
<path id="0" d="M207 167 C207 167 216.8691 199.0808 228 230 C230.2338 236.2049 230.1966 237.3514 234 242 C238.4578 247.4484 241.1926 246.3914 246 252 C252.7033 259.8205 251.1032 264.2855 258 270 C266.2293 276.8186 269.889 278.6191 281 281 C295.5539 284.1187 300.5755 285.1324 314 282 C326.4959 279.0843 330.7497 276.1599 341 267 C352.1949 256.996 352.8276 254.0463 361 240 C368.3994 227.2823 368.5641 226.2935 373 212 C381.9008 183.3197 388.108 153.2592 388 153 C387.9785 152.9484 373.1605 167.3793 358 176 C349.4088 180.8852 347.5055 179.999 337 182 C326.856 183.9322 326.4717 183.7244 316 184 C288.6427 184.7199 286.8254 187.6893 261 184 C236.5162 180.5023 218.555 172.2378 211 169 C210.7896 168.9098 210.8021 165.2461 212 163 C214.3347 158.6223 215.2242 156.2983 219 154 C224.7624 150.4925 227.0805 149.9558 235 149 C255.1482 146.5683 256.6365 149.5063 277 147 C288.4424 145.5917 288.6884 142.6967 300 141 C308.0459 139.7931 309.2743 139.4549 317 141 C328.1796 143.2359 328.4682 146.3011 340 149 C351.4529 151.6805 352.7361 149.2527 364 152 C372.5201 154.0781 381 159 381 159 "/>
<path id="1" d="M381 188 C381 188 391.8431 187.0241 399 188 C400.7531 188.2391 401.7385 189.2129 403 191 C407.2558 197.0291 409.3042 198.4288 411 205 C412.7945 211.9538 411.9781 214.5013 411 222 C410.6323 224.8192 409.9934 225.8532 408 228 C404.0779 232.2238 403.2987 233.1614 398 236 C389.9327 240.3218 388.9768 240.8165 380 243 C371.1218 245.1596 361 245 361 245 "/>
<path id="2" d="M381 201 C381 201 388.6738 198.6383 390 199 C390.5276 199.1439 390.651 202.4583 392 204 C393.4739 205.6845 396.7198 205.9492 397 207 C397.7588 209.8453 397.9272 216.7685 396 219 C392.1729 223.4314 384.9515 227.2621 378 229 C374.8633 229.7842 368 226 368 226 "/>
</g>
</g>
</svg>
