<?xml version="1.0" encoding="utf-8"?>
<!DOCTYPE svg PUBLIC "-//W3C//DTD SVG 1.1//EN" "http://www.w3.org/Graphics/SVG/1.1/DTD/svg11.dtd">
<svg viewBox="0 0 800 800" preserveAspectRatio="xMinYMin meet" xmlns="http://www.w3.org/2000/svg" version="1.1">
<g fill="none" stroke="black" stroke-linecap="round" stroke-linejoin="round" stroke-width="1.4353">
<g transform="translate(87.52,142.9094) scale(2.0902) translate(-129,-123.1333)">
<path id="0" d="M177 153.1333 C177 153.1333 185.087 144.7358 194 139.1333 C201.9555 134.1327 203.2132 133.1104 212 131.1333 C221.863 128.9142 224.4564 132.3147 234 130.1333 C240.2683 128.7006 240.9114 124.1245 247 123.1333 C259.9183 121.0304 262.4172 121.9429 277 123.1333 C286.3945 123.9002 286.6008 126.1693 296 127.1333 C305.6848 128.1266 307.8592 124.4197 316 127.1333 C337.7087 134.3696 345.2302 139.2083 362 149.1333 C364.0295 150.3345 365 156.1333 365 156.1333 "/>
<path id="1" d="M177 156.1333 C177 156.1333 183.4588 162.5501 189 164.1333 C195.2062 165.9065 197.2315 163.2935 205 164.1333 C215.4062 165.2583 216.0951 165.2201 226 168.1333 C232.5945 170.0729 232.673 173.1409 239 174.1333 C256.388 176.8609 258.7816 174.1952 277 176.1333 C281.443 176.606 281.7959 179.0255 286 179.1333 C299.8711 179.489 302.9269 180.9547 316 177.1333 C333.0845 172.1394 333.5411 167.2594 351 160.1333 C357.3379 157.5464 365 157.1333 365 157.1333 "/>
<path id="2" d="M365 157.1333 C365 157.1333 365.2451 189.7646 361 220.1333 C358.9123 235.0685 358.0096 236.4752 352 250.1333 C347.4486 260.4775 345.9854 260.8194 339 270.1333 C335.7127 274.5164 335.3942 275.1453 331 278.1333 C323.4409 283.2735 321.9996 286.1972 314 287.1333 C279.7766 291.1382 274.4029 290.5448 237 289.1333 C222.7893 288.5971 219.0049 287.2209 208 283.1333 C204.9694 282.0077 205.4103 278.7686 202 276.1333 C194.9076 270.6528 191.5578 272.0881 186 266.1333 C179.0453 258.6819 176.4029 255.745 174 246.1333 C170.1867 230.88 174.6892 226.605 172 210.1333 C170.9651 203.7945 167.5381 203.5056 166 197.1333 C164.271 189.9702 165 189.049 165 181.1333 C165 175.1966 164.538 174.5636 166 169.1333 C167.8607 162.2221 169.7027 157.8135 172 155.1333 C172.6172 154.4133 178 155.1333 178 155.1333 "/>
<path id="3" d="M365 193.1333 C365 193.1333 365.5821 178.1492 369 175.1333 C375.9775 168.9768 386.0673 166.4494 399 163.1333 C402.3184 162.2825 405.2787 162.975 408 165.1333 C417.4227 172.6065 425.3537 177.3122 428 186.1333 C431.7637 198.6789 429.4624 210.9952 426 225.1333 C424.9085 229.5903 419.7332 229.7668 416 235.1333 C412.2189 240.5687 413.176 245.7135 410 248.1333 C406.5482 250.7633 402.4243 250.5622 395 251.1333 C383.3011 252.0332 381.7295 249.6005 371 251.1333 C365.763 251.8815 364.3647 253.4473 360 256.1333 C358.8075 256.8672 358 258.0247 358 259.1333 C358 263.1983 360.3204 269.4285 360 270.1333 C359.899 270.3556 353.3794 270.567 353 270.1333 C352.5044 269.567 353.9723 265.2446 353 262.1333 C351.8378 258.4144 348 254.1333 348 254.1333 "/>
<path id="4" d="M367 196.1333 C367 196.1333 372.0811 189.231 378 185.1333 C384.3102 180.7647 391.236 177.2781 393 178.1333 C397.4308 180.2816 405.6276 190.9854 411 201.1333 C412.8167 204.5649 412.5465 207.9156 411 212.1333 C407.7617 220.9649 406.5062 223.9043 400 231.1333 C394.2818 237.4869 391.9344 239.4885 384 242.1333 C371.7621 246.2126 355 246.1333 355 246.1333 "/>
<path id="5" d="M170 232.1333 C170 232.1333 157.5175 229.5847 149 231.1333 C143.5696 232.1207 139.6796 234.1139 137 238.1333 C131.9385 245.7256 131.2925 249.9574 129 261.1333 C127.5114 268.3901 127.6124 269.9639 129 277.1333 C130.4016 284.3751 130.4082 286.8036 135 292.1333 C156.1901 316.7289 158.5305 326.5749 185 342.1333 C217.2979 361.1176 226.6877 360.0613 266 369.1333 C282.2241 372.8774 286.2936 372.6236 302 369.1333 C319.2577 365.2983 321.2285 362.6867 338 353.1333 C360.1267 340.5295 364.5926 336.8946 381 324.1333 C382.6685 322.8356 383.266 320.3941 383 318.1333 C382.4708 313.6348 379.4606 312.4307 379 307.1333 C377.5792 290.7946 380.8807 288.4329 379 272.1333 C378.0493 263.894 376.3587 260.3006 373 255.1333 C371.7867 253.2667 366 252.1333 366 252.1333 "/>
</g>
</g>
</svg>
