<?xml version="1.0" encoding="utf-8"?>
<!DOCTYPE svg PUBLIC "-//W3C//DTD SVG 1.1//EN" "http://www.w3.org/Graphics/SVG/1.1/DTD/svg11.dtd">
<svg viewBox="0 0 800 800" preserveAspectRatio="xMinYMin meet" xmlns="http://www.w3.org/2000/svg" version="1.1">
<g fill="none" stroke="black" stroke-linecap="round" stroke-linejoin="round" stroke-width="1.8433">
<g transform="translate(87.52,131.4625) scale(1.6275) translate(-126,-76.1333)">
<path id="0" d="M290 258.1333 C290 258.1333 273.4064 254.5005 257 253.1333 C243.744 252.0287 243.1303 251.6744 230 253.1333 C207.6839 255.6129 206.0122 255.0048 185 261.1333 C171.331 265.1201 170.3063 266.6295 158 274.1333 C150.489 278.7132 149.6614 279.5284 144 286.1333 C138.2038 292.8955 137.7294 293.8457 134 302.1333 C128.9789 313.2913 128.5227 314.4656 126 326.1333 C124.7254 332.0285 124.8736 333.276 126 339.1333 C127.2097 345.4239 127.3407 347.4761 131 352.1333 C137.1297 359.9348 139.0746 360.4393 148 367.1333 C156.8464 373.7681 157.1761 374.0078 167 379.1333 C179.9351 385.8821 180.3199 386.2085 194 391.1333 C204.9895 395.0895 205.4044 395.0377 217 397.1333 C246.6705 402.4955 247.195 404.856 277 406.1333 C351.0365 409.3063 353.7328 409.2511 427 406.1333 C445.7273 405.3364 446.4611 403.1359 465 398.1333 C477.6621 394.7166 480.2056 395.3444 490 389.1333 C498.5419 383.7165 499.8133 380.7947 506 372.1333 C509.0156 367.9114 509.7442 366.2496 510 361.1333 C510.6601 347.9316 510.6289 345.5702 508 332.1333 C506.3569 323.7353 505.2243 322.6768 501 315.1333 C498.593 310.8352 497.9401 310.4167 494 307.1333 C483.2849 298.2041 483.0985 297.1278 471 290.1333 C451.6286 278.9343 450.8402 279.0285 430 270.1333 C410.0577 261.6214 409.7059 260.0274 389 255.1333 C355.7185 247.2668 354.2585 247.8279 320 244.1333 C303.8925 242.3962 302.6945 242.1404 287 244.1333 C272.2491 246.0065 257 252.1333 257 252.1333 "/>
<path id="1" d="M290 301.1333 C290 301.1333 268.8638 299.6957 250 294.1333 C230.843 288.4845 229.4664 287.6066 212 278.1333 C200.8948 272.1102 199.8567 270.9901 191 262.1333 C183.5795 254.7128 183.3646 253.3723 178 244.1333 C174.6607 238.3823 173.5886 237.3722 173 231.1333 C171.2524 212.6091 170.9434 210.4143 173 191.1333 C174.8434 173.8512 175.5687 172.8995 181 156.1333 C186.9034 137.9098 196 120.1333 196 120.1333 "/>
<path id="2" d="M294 305.1333 C294 305.1333 309.3532 308.8318 321 307.1333 C330.7299 305.7144 333.0566 303.8472 342 298.1333 C350.0054 293.0188 350.5592 291.7927 357 284.1333 C368.7376 270.1751 370.8158 270.0203 379 254.1333 C395.6204 221.8701 397.2552 219.0465 408 185.1333 C412.5281 170.8414 410.47 169.0322 411 153.1333 C411.4617 139.2816 410 125.1333 410 125.1333 "/>
<path id="3" d="M191 110.1333 C191 110.1333 195.7187 119.1452 202 124.1333 C211.4638 131.6487 213.2105 133.7177 225 137.1333 C264.2955 148.518 267.5443 148.8627 309 155.1333 C325.7309 157.6641 327.0725 157.1248 344 155.1333 C368.7512 152.2214 369.8656 151.4293 394 145.1333 C403.6737 142.6098 404.1454 141.5606 413 137.1333 C415.6949 135.7859 416.364 135.4705 418 133.1333 C422.8643 126.1843 423.9839 125.0848 427 117.1333 C429.1375 111.4981 430.3704 106.9883 429 104.1333 C426.8693 99.6943 422.2709 96.5478 415 92.1333 C409.1809 88.6003 408.0914 88.5003 401 87.1333 C367.296 80.6362 366.2847 79.0797 332 76.1333 C303.0803 73.648 301.8764 73.5922 273 76.1333 C240.2239 79.0176 239.0541 80.8069 207 87.1333 C201.9268 88.1346 200.1703 88.2968 197 91.1333 C192.1831 95.4432 190.6482 98.2485 188 104.1333 C186.9128 106.5494 187.0743 108.3562 188 111.1333 C189.7192 116.2908 194 122.1333 194 122.1333 "/>
<path id="4" d="M290 302.1333 L295 305.1333 "/>
<path id="5" d="M181 155.1333 C181 155.1333 170.0214 145.6408 160 142.1333 C152.4104 139.477 149.2677 140.7739 141 141.1333 C139.2175 141.2108 137.8723 141.8249 137 143.1333 C133.0123 149.1149 130.4808 151.5443 129 159.1333 C126.8919 169.9372 127.0498 173.2682 129 184.1333 C130.1901 190.7639 131.7665 191.783 136 198.1333 C144.5427 210.9473 144.6067 213.287 155 223.1333 C162.1638 229.9201 174 234.1333 174 234.1333 "/>
</g>
</g>
</svg>
