<?xml version="1.0" encoding="utf-8"?>
<!DOCTYPE svg PUBLIC "-//W3C//DTD SVG 1.1//EN" "http://www.w3.org/Graphics/SVG/1.1/DTD/svg11.dtd">
<svg viewBox="0 0 800 800" preserveAspectRatio="xMinYMin meet" xmlns="http://www.w3.org/2000/svg" version="1.1">
<g fill="none" stroke="black" stroke-linecap="round" stroke-linejoin="round" stroke-width="0.93606">
<g transform="translate(87.52,169.2455) scale(3.2049) translate(-154,-184.1333)">
<path id="0" d="M177 225.1333 C177 225.1333 185.8062 230.6302 194 231.1333 C239.7903 233.945 243.1489 232.5683 291 232.1333 C297.4226 232.0749 297.8409 231.8656 304 230.1333 C313.5225 227.4551 317.6177 227.9774 323 223.1333 C329.1694 217.5809 330.6852 212.4751 334 203.1333 C335.5254 198.8344 334.799 192.5578 334 192.1333 C329.1889 189.5774 318.0035 188.1655 302 186.1333 C286.7331 184.1947 286.3751 183.9524 271 184.1333 C244.1798 184.4489 243.1804 183.7049 217 187.1333 C202.0561 189.0903 201.4285 190.2215 187 195.1333 C178.3035 198.0938 173.4118 199.5319 170 203.1333 C168.309 204.9183 168.0649 211.141 169 214.1333 C169.6015 216.0582 173.094 216.5125 175 219.1333 C176.5174 221.2198 177 225.1333 177 225.1333 "/>
<path id="1" d="M169 219.1333 C169 219.1333 174.8596 220.3277 176 222.1333 C178.9441 226.7948 177.5486 231.2304 181 238.1333 C183.6119 243.3571 187.7512 243.3652 189 248.1333 C192.385 261.058 187.6313 267.2699 192 280.1333 C195.4525 290.2991 199.076 294.2318 207 301.1333 C212.0523 305.5337 215.2971 306.363 223 307.1333 C243.4174 309.1751 245.212 306.1721 267 307.1333 C278.9499 307.6605 281.5885 311.1791 291 310.1333 C296.0813 309.5687 298.0097 307.3843 303 303.1333 C310.9535 296.3581 312.4628 295.2935 318 287.1333 C321.1123 282.5467 321.7644 280.7866 322 275.1333 C322.6954 258.4446 318.2109 254.0422 320 239.1333 C320.7484 232.8963 325.728 231.6652 328 225.1333 C329.2184 221.6305 328 216.1333 328 216.1333 "/>
<path id="2" d="M326 231.1333 C326 231.1333 325.3599 228.0478 326 227.1333 C327.7443 224.6414 329.4765 222.7915 333 221.1333 C336.9244 219.2865 342.9796 219.062 343 219.1333 C344.0598 222.8427 345 245.1942 345 263.1333 C345 264.3565 343.8188 265.9514 343 266.1333 C338.019 267.2402 330.1811 268.1379 327 267.1333 C325.9432 266.7996 325.2877 261.0347 324 260.1333 C322.859 259.3346 317 260.1333 317 260.1333 "/>
<path id="3" d="M191 282.1333 C191 282.1333 173.3364 283.9032 163 287.1333 C161.0551 287.7411 160.698 289.4921 159 292.1333 C156.2608 296.3943 155.0081 296.8992 154 301.1333 C152.8128 306.1194 152.4173 309.4403 154 313.1333 C155.6958 317.0901 158.4464 320.0921 163 322.1333 C170.6134 325.5462 173.0961 325.7089 183 326.1333 C241.9606 328.6602 243.1833 327.6935 303 328.1333 C310.9709 328.1919 311.5132 328.6307 319 327.1333 C325.9322 325.7469 326.576 325.1924 333 322.1333 C336.6789 320.3815 338.0422 320.07 340 317.1333 C345.0632 309.5385 347.0415 306.9467 349 298.1333 C350.5648 291.092 349.7298 288.0524 348 281.1333 C347.1727 277.8242 344.9757 274.6102 343 274.1333 C335.912 272.4224 319 274.1333 319 274.1333 "/>
<path id="4" d="M323 235.1333 C323 235.1333 327.862 230.6851 332 229.1333 C334.5748 228.1678 337.7391 228.1634 339 229.1333 C341.4664 231.0305 343.6655 234.4624 345 239.1333 C346.2532 243.5194 346.1638 246.1765 345 250.1333 C344.2096 252.8206 342.3698 254.9485 340 256.1333 C337.1859 257.5404 333.676 258.2037 331 257.1333 C326.457 255.3161 320 248.1333 320 248.1333 "/>
</g>
</g>
</svg>
