<?xml version="1.0" encoding="utf-8"?>
<!DOCTYPE svg PUBLIC "-//W3C//DTD SVG 1.1//EN" "http://www.w3.org/Graphics/SVG/1.1/DTD/svg11.dtd">
<svg viewBox="0 0 800 800" preserveAspectRatio="xMinYMin meet" xmlns="http://www.w3.org/2000/svg" version="1.1">
<g fill="none" stroke="black" stroke-linecap="round" stroke-linejoin="round" stroke-width="0.56644">
<g transform="translate(90.1681,87.52) scale(5.2963) translate(-283,-182.1333)">
<path id="0" d="M325 183.1333 C325 183.1333 312.114 179.9564 304 182.1333 C294.9124 184.5715 286.8509 189.8569 284 194.1333 C282.462 196.4403 283.863 207.562 286 209.1333 C292.4545 213.8793 302.3562 216.6502 318 219.1333 C332.4387 221.4252 336.5366 220.2016 349 219.1333 C350.7116 218.9866 351.0435 216.5613 353 216.1333 C365.1332 213.4792 372.5751 215.6024 381 212.1333 C383.8752 210.9494 385.799 206.457 387 202.1333 C387.795 199.2715 387.453 195.7939 386 194.1333 C382.828 190.5082 379.0457 187.105 373 186.1333 C354.7343 183.1978 350.6569 186.6923 330 185.1333 C325.0959 184.7632 320 182.1333 320 182.1333 "/>
<path id="1" d="M285 211.1333 C285 211.1333 287.8416 212.9186 288 214.1333 C288.9344 221.297 286.5451 225.4037 288 234.1333 C288.7881 238.8619 289.8668 240.3287 293 244.1333 C296.1985 248.0172 298.4897 247.1842 302 251.1333 C306.0304 255.6675 305.382 259.6007 309 262.1333 C312.7165 264.7349 322 265.1333 322 265.1333 "/>
<path id="2" d="M320 269.1333 C320 269.1333 347.2833 271.7056 358 268.1333 C362.1935 266.7355 364.3748 260.9561 368 253.1333 C373.5707 241.1125 371.9137 238.3959 377 227.1333 C378.2279 224.4144 380.9747 224.5256 382 222.1333 C383.3534 218.9755 383 213.1333 383 213.1333 "/>
<path id="3" d="M386 218.1333 C386 218.1333 385.8595 214.1766 386 214.1333 C387.4845 213.6766 398.3665 213.2736 399 214.1333 C400.3053 215.9048 401.735 228.6222 400 233.1333 C398.9532 235.8549 393.3963 236.365 389 240.1333 C387.1159 241.7483 387.3517 244.5926 386 245.1333 C382.6477 246.4743 374 246.1333 374 246.1333 "/>
<path id="4" d="M300 251.1333 C300 251.1333 296.0088 250.188 294 251.1333 C289.0568 253.4595 284.3221 255.768 283 259.1333 C280.854 264.596 282.2758 270.8053 283 279.1333 C283.1149 280.455 283.8538 281.4456 285 282.1333 C287.9559 283.9069 289.7377 282.9585 293 285.1333 C299.6333 289.5555 299.4561 292.6097 306 296.1333 C311.0542 298.8548 312.5585 298.6562 319 299.1333 C339.0101 300.6156 341.377 301.5388 360 300.1333 C365.6324 299.7082 366.7686 298.2722 372 295.1333 C376.2549 292.5804 377.2868 291.8331 380 288.1333 C382.1509 285.2003 382.5365 283.9958 383 280.1333 C383.9425 272.279 384.1697 270.7366 383 263.1333 C382.3384 258.8329 381.4542 257.6782 379 254.1333 C377.4441 251.8859 376.2556 251.0356 374 250.1333 C372.2912 249.4498 369 250.1333 369 250.1333 "/>
</g>
</g>
</svg>
