<?xml version="1.0" encoding="utf-8"?>
<!DOCTYPE svg PUBLIC "-//W3C//DTD SVG 1.1//EN" "http://www.w3.org/Graphics/SVG/1.1/DTD/svg11.dtd">
<svg viewBox="0 0 800 800" preserveAspectRatio="xMinYMin meet" xmlns="http://www.w3.org/2000/svg" version="1.1">
<g fill="none" stroke="black" stroke-linecap="round" stroke-linejoin="round" stroke-width="0.96006">
<g transform="translate(87.52,175.0144) scale(3.1248) translate(-241,-82)">
<path id="0" d="M244 85 C244 85 248.0937 87.6315 252 88 C273.311 90.0105 275.0318 88.073 297 90 C302.9634 90.5231 303.1159 92.6791 309 93 C329.801 94.1346 331.3612 91.1237 352 93 C363.3012 94.0274 364.1772 98.6268 375 99 C391.2583 99.5606 406.6859 94.5266 410 95 C410.1238 95.0177 410.5989 102.5027 410 104 C409.827 104.4326 406.2732 104.522 406 105 C405.5012 105.8729 406.225 110.325 406 111 C405.975 111.075 404.1 110.825 404 111 C403.2875 112.2468 402.2719 117.7281 402 118 C401.9698 118.0302 400.1422 116 399 116 C393.6697 116 389.4796 115.4156 385 118 C379.2357 121.3256 379.0732 128.2526 373 131 C361.8886 136.0266 348.2761 135.5931 343 137 C342.911 137.0237 343.0588 138.9874 343 139 C341.0505 139.4177 334.0158 138.4161 329 140 C326.695 140.7279 326.1897 144.5308 324 145 C315.6277 146.7941 308.6061 147.7175 301 146 C297.7249 145.2605 296.3626 140.2417 293 138 C291.9912 137.3275 289.32 138.24 289 138 C288.82 137.865 289.3593 135.2795 289 135 C287.1349 133.5494 282.4242 133.2039 280 131 C278.5699 129.6999 279.6968 127.02 278 125 C270.2761 115.8048 267.5689 115.8872 259 106 C254.8766 101.2423 252.9547 99.5824 252 95 C251.0358 90.3716 254 82 254 82 "/>
<path id="1" d="M248 92 C248 92 248.8028 97.3944 248 99 C247.3692 100.2615 243.4514 100.6458 243 102 C241.1944 107.4167 241.5788 111.0282 241 120 C240.5849 126.4335 240.1088 126.7614 241 133 C243.0469 147.3282 243.5441 147.7924 247 162 C247.9905 166.0719 247.8897 167.0456 250 170 C252.2887 173.2041 255.7732 172.9887 257 176 C260.1364 183.6984 257.9405 187.5154 261 197 C262.6383 202.0786 263.6571 202.32 267 207 C271.0783 212.7096 271.0709 213.5897 276 218 C280.0204 221.5972 281.3764 223.4863 286 224 C312.971 226.9968 318.2814 227.3823 348 226 C359.6552 225.4579 361.1899 223.8358 372 220 C375.63 218.7119 375.6887 215.6817 379 215 C390.3044 212.6726 395.8087 214.9725 406 213 C407.7766 212.6561 409.4166 210.9689 410 209 C412.721 199.8165 410.3615 195.8758 414 186 C416.7778 178.4604 424 171 424 171 "/>
<path id="2" d="M405 98 C405 98 417.3712 106.7535 420 111 C420.7976 112.2885 419.3876 117.0177 418 119 C417.1881 120.1599 413.0902 120.4587 413 121 C412.5011 123.9932 415.4198 135.6565 415 137 C414.9403 137.1911 408.5794 136.5861 408 137 C407.7044 137.2111 408.7705 140.3306 408 142 C406.3405 145.5956 402.2747 147.5278 402 150 C401.6971 152.7258 403.418 156.127 406 160 C407.8346 162.7519 410.3628 162.1622 412 165 C417.0679 173.7843 421 186 421 186 "/>
<path id="3" d="M416 133 C416 133 428.3744 142.1941 435 152 C439.5896 158.7925 438.8221 161.2884 441 170 C441.6701 172.6805 441.3153 175.828 441 176 C439.9403 176.578 434.3916 174.8443 430 176 C426.2808 176.9787 422 181 422 181 "/>
</g>
</g>
</svg>
