<?xml version="1.0" encoding="utf-8"?>
<!DOCTYPE svg PUBLIC "-//W3C//DTD SVG 1.1//EN" "http://www.w3.org/Graphics/SVG/1.1/DTD/svg11.dtd">
<svg viewBox="0 0 800 800" preserveAspectRatio="xMinYMin meet" xmlns="http://www.w3.org/2000/svg" version="1.1">
<g fill="none" stroke="black" stroke-linecap="round" stroke-linejoin="round" stroke-width="0.73925">
<g transform="translate(87.52,191.0036) scale(4.0582) translate(-243,-142.4167)">
<path id="0" d="M358 150.4167 C358 150.4167 355.3977 147.8034 353 147.4167 C341.4909 145.5604 339.6388 144.9486 327 145.4167 C313.2779 145.9249 310.7008 145.9381 299 149.4167 C294.558 150.7373 293.3128 152.5942 290 156.4167 C287.4333 159.3782 286.1858 161.6296 286 164.4167 C285.8472 166.7092 286.9908 169.0057 289 171.4167 C291.2911 174.166 292.9542 176.1824 296 176.4167 C325.3154 178.6717 332.6339 179.1881 367 177.4167 C379.7437 176.7598 382.2424 175.0025 393 171.4167 C395.0491 170.7337 396.2189 169.1742 397 167.4167 C397.676 165.8957 397.7714 163.6289 397 162.4167 C395.387 159.8819 393.729 158.4676 390 156.4167 C384.2979 153.2805 383.5898 153.0239 377 151.4167 C363.4588 148.1139 349 146.4167 349 146.4167 "/>
<path id="1" d="M287 164.4167 C287 164.4167 286.3614 180.6816 290 193.4167 C292.8204 203.2879 294.5504 206.4894 301 213.4167 C306.0964 218.8906 308.8641 219.5691 317 222.4167 C327.9399 226.2457 329.1473 225.6736 341 227.4167 C345.7918 228.1214 346.808 228.6743 351 227.4167 C360.5159 224.5619 362.3705 224.0005 371 218.4167 C378.4894 213.5706 380.3107 212.5444 385 205.4167 C391.8061 195.0713 392.5481 192.3414 396 180.4167 C397.5922 174.9164 396 167.4167 396 167.4167 "/>
<path id="2" d="M290 171.4167 C290 171.4167 286.3721 169.7035 285 167.4167 C281.0405 160.8176 282.2692 158.2475 278 151.4167 C275.2761 147.0584 273.7632 145.1993 270 143.4167 C266.3376 141.6818 263.7506 141.8888 259 142.4167 C255.8006 142.7722 253.763 143.3231 252 145.4167 C247.3265 150.9665 245.3293 153.911 243 161.4167 C241.3887 166.6087 241.6155 169.3401 243 174.4167 C244.1328 178.5702 245.4769 180.285 249 183.4167 C253.5856 187.4928 254.889 188.4347 261 190.4167 C272.4003 194.1141 275.8389 192.2632 286 195.4167 C288.0058 196.0392 289.7452 198.3976 290 199.4167 C290.1783 200.13 288 203.4167 288 203.4167 "/>
<path id="3" d="M313 220.4167 C313 220.4167 306.1592 235.7559 306 239.4167 C305.9692 240.1257 309.0261 242.567 312 243.4167 C318.4831 245.269 319.5367 245.0922 327 245.4167 C342.3353 246.0834 343.2993 246.7531 358 245.4167 C364.3372 244.8406 367.0185 243.9051 371 241.4167 C372.7339 240.333 374.2809 237.1957 374 235.4167 C373.291 230.9266 368 222.4167 368 222.4167 "/>
</g>
</g>
</svg>
