<?xml version="1.0" encoding="utf-8"?>
<!DOCTYPE svg PUBLIC "-//W3C//DTD SVG 1.1//EN" "http://www.w3.org/Graphics/SVG/1.1/DTD/svg11.dtd">
<svg viewBox="0 0 800 800" preserveAspectRatio="xMinYMin meet" xmlns="http://www.w3.org/2000/svg" version="1.1">
<g fill="none" stroke="black" stroke-linecap="round" stroke-linejoin="round" stroke-width="0.77285">
<g transform="translate(87.52,108.8696) scale(3.8817) translate(-238.3611,-227.0278)">
<path id="0" d="M245.3611 249.0278 C245.3611 249.0278 243.7556 269.8071 248.3611 287.0278 C254.6932 310.7043 257.0154 314.3992 268.3611 335.0278 C272.0437 341.7233 274.4335 342.2501 281.3611 347.0278 C288.3673 351.8597 289.7883 353.7108 297.3611 355.0278 C310.4242 357.2996 314.959 357.9459 327.3611 355.0278 C337.2099 352.7104 339.8674 350.4136 348.3611 343.0278 C361.6949 331.4332 364.2471 329.5031 373.3611 315.0278 C379.9594 304.5482 380.4795 301.8852 382.3611 289.0278 C386.2486 262.4634 385.3611 233.0278 385.3611 233.0278 "/>
<path id="1" d="M245.3611 249.0278 C245.3611 249.0278 244.3072 232.0602 244.3611 232.0278 C244.3869 232.0123 249.3407 239.3486 255.3611 243.0278 C266.1375 249.6134 268.447 252.5039 280.3611 254.0278 C307.8826 257.548 311.686 255.2308 341.3611 254.0278 C347.7445 253.769 348.7625 253.6716 354.3611 251.0278 C365.8604 245.5976 366.3662 241.8785 377.3611 237.0278 C381.6726 235.1256 388.1892 236.1751 388.3611 236.0278 C388.3653 236.0242 386.5267 232.1743 384.3611 231.0278 C379.4358 228.4203 377.6032 227.1865 371.3611 227.0278 C321.3474 225.7563 318.2578 226.3537 266.3611 228.0278 C256.9254 228.3322 247.3611 231.0278 247.3611 231.0278 "/>
<path id="2" d="M386.3611 236.0278 C386.3611 236.0278 391.7697 234.2933 393.3611 235.0278 C395.6079 236.0648 398.9921 239.0756 399.3611 242.0278 C401.3133 257.6456 401.6142 266.9341 399.3611 283.0278 C398.8127 286.9452 395.6198 290.1109 392.3611 292.0278 C389.5546 293.6787 382.3611 293.0278 382.3611 293.0278 "/>
<path id="3" d="M272.3611 340.0278 C272.3611 340.0278 255.2932 339.3987 245.3611 342.0278 C242.1671 342.8733 239.7071 345.9511 238.3611 349.0278 C237.1572 351.7796 237.5847 354.1456 238.3611 358.0278 C238.9305 360.8747 239.5326 361.9708 241.3611 364.0278 C242.9317 365.7947 243.7656 366.2491 246.3611 367.0278 C262.9463 372.0033 264.111 374.5659 281.3611 376.0278 C321.437 379.424 330.5813 378.5291 364.3611 377.0278 C367.302 376.8971 370.0497 374.5049 371.3611 372.0278 C373.3282 368.3122 374.5916 362.3863 373.3611 360.0278 C371.3054 356.0876 365.9675 351.8591 359.3611 349.0278 C354.2676 346.8449 345.3611 348.0278 345.3611 348.0278 "/>
<path id="4" d="M276.3611 343.0278 C276.3611 343.0278 264.4352 341.9317 257.3611 344.0278 C253.6679 345.1221 250.0241 349.039 249.3611 351.0278 C248.8811 352.468 250.4524 357.8348 252.3611 359.0278 C258.4153 362.8116 263.1436 365.1763 273.3611 366.0278 C308.9054 368.9898 339.2829 367.633 348.3611 367.0278 C348.4096 367.0246 349.3407 362.4527 348.3611 361.0278 C345.4937 356.857 337.3611 351.0278 337.3611 351.0278 "/>
</g>
</g>
</svg>
