<?xml version="1.0" encoding="utf-8"?>
<!DOCTYPE svg PUBLIC "-//W3C//DTD SVG 1.1//EN" "http://www.w3.org/Graphics/SVG/1.1/DTD/svg11.dtd">
<svg viewBox="0 0 800 800" preserveAspectRatio="xMinYMin meet" xmlns="http://www.w3.org/2000/svg" version="1.1">
<g fill="none" stroke="black" stroke-linecap="round" stroke-linejoin="round" stroke-width="0.70565">
<g transform="translate(91.7714,87.52) scale(4.2514) translate(-198,-156.4167)">
<path id="0" d="M241 284.4167 C241 284.4167 245.9057 283.5637 250 284.4167 C257.2978 285.937 257.6957 288.4802 265 289.4167 C276.2079 290.8536 280.1673 291.9735 289 289.4167 C295.3243 287.586 303 278.4167 303 278.4167 "/>
<path id="1" d="M241 282.4167 C241 282.4167 226.4965 269.9573 224 259.4167 C219.0824 238.6536 223 206.4167 223 206.4167 "/>
<path id="2" d="M304 278.4167 C304 278.4167 308.5965 275.6942 311 272.4167 C313.5762 268.9036 314.6435 267.6949 315 263.4167 C316.9513 240.0009 316 212.4167 316 212.4167 "/>
<path id="3" d="M224 207.4167 C224 207.4167 229.1401 207.0657 233 208.4167 C238.408 210.3095 238.5503 212.9133 244 214.4167 C251.9889 216.6205 252.9958 215.9021 262 216.4167 C287.9047 217.8969 294.0022 219.1183 314 218.4167 C315.9795 218.3472 319 214.4167 319 214.4167 "/>
<path id="4" d="M223 206.4167 C223 206.4167 235.2051 195.8787 246 193.4167 C260.1355 190.1928 264.3237 191.9916 280 193.4167 C284.7783 193.8511 285.0584 196.4283 290 197.4167 C296.9549 198.8077 298.743 196.331 305 198.4167 C313.7053 201.3184 318.4227 204.0803 323 208.4167 C324.4293 209.7708 324.4874 215.9293 324 216.4167 C323.0949 217.3218 313 218.4167 313 218.4167 "/>
<path id="5" d="M321 218.4167 C321 218.4167 330.5 220.1666 331 221.4167 C332.5715 225.3455 329.5121 235.0842 331 243.4167 C331.4662 246.0273 334.9625 246.7192 336 249.4167 C336.9166 251.7999 337.0504 253.9221 336 256.4167 C333.694 261.8935 331.3839 266.483 328 268.4167 C325.0391 270.1086 315 268.4167 315 268.4167 "/>
<path id="6" d="M317 215.4167 C317 215.4167 318.4445 221.1642 321 224.4167 C323.2098 227.2291 327.4352 227.3995 328 229.4167 C329.623 235.213 326.9796 240.9134 328 249.4167 C328.2735 251.6955 329.7873 253.4061 331 254.4167 C331.5076 254.8397 334.0092 254.3959 334 254.4167 C333.9163 254.6051 329.9835 261.7384 327 263.4167 C324.7739 264.6688 318 263.4167 318 263.4167 "/>
<path id="7" d="M224 255.4167 C224 255.4167 216.3863 257.1849 211 260.4167 C207.2296 262.6789 206.608 263.605 204 267.4167 C200.4373 272.6237 198.8917 274.2891 198 279.4167 C197.2717 283.6041 197.7961 286.8565 200 290.4167 C203.0271 295.3067 206.2855 299.7782 211 300.4167 C243.5922 304.8302 253.517 302.2685 296 303.4167 C308.9824 303.7675 312.1556 306.4128 322 303.4167 C331.1859 300.621 338.2752 295.6247 342 289.4167 C345.0945 284.2592 344.6894 275.6571 343 268.4167 C342.116 264.628 338.9722 261.8441 335 259.4167 C331.698 257.3988 325 257.4167 325 257.4167 "/>
<path id="8" d="M255 189.4167 C255 189.4167 247.3965 182.1773 246 176.4167 C244.1826 168.9198 247 156.4167 247 156.4167 "/>
<path id="9" d="M272 178.4167 L270 162.4167 "/>
<path id="10" d="M296 186.4167 L297 173.4167 "/>
</g>
</g>
</svg>
