<?xml version="1.0" encoding="utf-8"?>
<!DOCTYPE svg PUBLIC "-//W3C//DTD SVG 1.1//EN" "http://www.w3.org/Graphics/SVG/1.1/DTD/svg11.dtd">
<svg viewBox="0 0 800 800" preserveAspectRatio="xMinYMin meet" xmlns="http://www.w3.org/2000/svg" version="1.1">
<g fill="none" stroke="black" stroke-linecap="round" stroke-linejoin="round" stroke-width="0.38402">
<g transform="translate(87.52,189.076) scale(7.812) translate(-190,-157.4167)">
<path id="0" d="M190 168.4167 C190 168.4167 192.818 163.9385 196 162.4167 C202.9567 159.0896 204.8859 157.9035 213 157.4167 C228.4215 156.4914 230.8008 156.4938 246 159.4167 C255.3506 161.2149 265 167.4167 265 167.4167 "/>
<path id="1" d="M191 167.4167 C191 167.4167 197.7697 172.609 204 173.4167 C222.5987 175.8276 229.4075 175.7437 245 174.4167 C247.4487 174.2083 247.9484 170.8408 251 169.4167 C254.6376 167.7191 259.9478 167.439 260 167.4167 C260.0083 167.4131 258 166.4167 258 166.4167 "/>
<path id="2" d="M190 168.4167 C190 168.4167 195.4399 172.1015 197 175.4167 C198.5868 178.7887 196.2196 181.4999 198 185.4167 C203.0005 196.4177 204.9665 198.7918 212 208.4167 C213.4083 210.3439 214.7175 211.1314 217 211.4167 C225.0683 212.4252 229.8269 213.8485 236 211.4167 C242.2125 208.9693 246.4971 203.9212 250 198.4167 C251.439 196.1555 248.7033 192.9826 250 189.4167 C254.0866 178.1786 262 165.4167 262 165.4167 "/>
<path id="3" d="M255 180.4167 C255 180.4167 257.9234 174.8703 260 173.4167 C261.0488 172.6825 263.9512 172.6825 265 173.4167 C267.0766 174.8703 268.9309 177.2093 270 180.4167 C270.9869 183.3773 271.2506 185.9154 270 188.4167 C267.3424 193.7319 264.5857 197.7069 260 200.4167 C256.6217 202.413 248 201.4167 248 201.4167 "/>
</g>
</g>
</svg>
