<?xml version="1.0" encoding="utf-8"?>
<!DOCTYPE svg PUBLIC "-//W3C//DTD SVG 1.1//EN" "http://www.w3.org/Graphics/SVG/1.1/DTD/svg11.dtd">
<svg viewBox="0 0 800 800" preserveAspectRatio="xMinYMin meet" xmlns="http://www.w3.org/2000/svg" version="1.1">
<g fill="none" stroke="black" stroke-linecap="round" stroke-linejoin="round" stroke-width="1.8433">
<g transform="translate(87.52,187.6112) scale(1.6275) translate(-99,-41.1333)">
<path id="0" d="M155 70.1333 C155 70.1333 152.0672 69.4057 151 70.1333 C143.469 75.2681 141.5095 77.1788 133 85.1333 C118.6038 98.5906 105 113.1333 105 113.1333 "/>
<path id="1" d="M153 72.1333 L168 65.1333 "/>
<path id="2" d="M154 67.1333 C154 67.1333 169.2468 64.417 184 64.1333 C194.7794 63.926 200.1859 61.9804 206 66.1333 C221.1733 76.9714 240 104.1333 240 104.1333 "/>
<path id="3" d="M107 115.1333 C107 115.1333 100.5927 117.4292 100 119.1333 C98.2178 124.2572 97.1329 131.9097 99 138.1333 C100.3978 142.7927 103.859 145.3452 109 149.1333 C112.1832 151.4789 118 152.1333 118 152.1333 "/>
<path id="4" d="M104 118.1333 C104 118.1333 118.7378 116.0678 127 118.1333 C130.9515 119.1212 135.1557 123.1181 136 126.1333 C137.3194 130.8453 136.3239 136.9363 134 143.1333 C132.7399 146.4937 130.2999 148.6667 127 150.1333 C123.265 151.7933 116 151.1333 116 151.1333 "/>
<path id="5" d="M176 131.1333 C176 131.1333 167.7029 130.7676 161 133.1333 C143.2259 139.4065 125 149.1333 125 149.1333 "/>
<path id="6" d="M166 89.1333 C166 89.1333 164.0096 89.1844 164 89.1333 C163.5863 86.9271 162.7314 80.924 163 73.1333 C163.2199 66.7561 163.3716 65.67 165 60.1333 C165.5851 58.144 167.9842 56.1189 168 56.1333 C168.516 56.6024 174.1873 63.5624 176 70.1333 C177.6777 76.2149 177.3014 81.0122 176 85.1333 C175.4886 86.7528 170 89.1333 170 89.1333 "/>
<path id="7" d="M145 88.1333 C145 88.1333 144.6294 93.8157 145 94.1333 C145.5044 94.5657 151.8271 94.3062 152 94.1333 C152.0741 94.0592 150.8556 89.8463 150 89.1333 C149.445 88.6709 146 89.1333 146 89.1333 "/>
<path id="8" d="M147 84.1333 C147 84.1333 152.5526 84.5368 153 85.1333 C153.5694 85.8926 153 92.1333 153 92.1333 "/>
<path id="9" d="M108 136.1333 C108 136.1333 107.8 140.0333 108 140.1333 C108.8 140.5333 113.7825 140.7986 116 140.1333 C116.8038 139.8922 118.0844 137.724 118 137.1333 C117.8623 136.1696 116.2751 133.8619 115 133.1333 C114.0351 132.5819 111 133.1333 111 133.1333 "/>
<path id="10" d="M128 123.1333 C128 123.1333 124.9979 129.1271 125 129.1333 C125.0007 129.1354 128.5889 127.0925 129 126.1333 C129.3114 125.4067 128.8792 123.3643 128 122.1333 C126.9076 120.604 125.7978 119.5186 124 119.1333 C120.1278 118.3036 114 119.1333 114 119.1333 "/>
<path id="11" d="M122 122.1333 C122 122.1333 121.5669 126.2671 122 127.1333 C122.2166 127.5664 123.6542 128.1333 125 128.1333 C128.1402 128.1333 128.7331 127.8593 132 127.1333 C133.0052 126.91 134 126.1533 134 126.1333 C134 126.1133 132 125.1333 132 125.1333 "/>
<path id="12" d="M131 147.1333 C131 147.1333 152.0318 148.2903 169 147.1333 C171.7705 146.9444 175 144.1333 175 144.1333 "/>
<path id="13" d="M137 146.1333 C137 146.1333 148.5862 139.1436 160 135.1333 C166.2466 132.9386 167.0431 133.8656 174 133.1333 C176.4478 132.8757 179 133.1333 179 133.1333 C179 133.6058 174 144.1333 174 144.1333 "/>
<path id="14" d="M156 147.1333 L185 139.1333 "/>
<path id="15" d="M165 141.1333 C165 141.1333 174.2318 155.7998 178 169.1333 C180.1414 176.7107 178 187.1333 178 187.1333 "/>
<path id="16" d="M240 108.1333 C240 108.1333 276.8258 106.2348 304 109.1333 C308.9793 109.6645 309.2953 113.7411 315 116.1333 C324.2173 119.9986 335 122.1333 335 122.1333 "/>
<path id="17" d="M295 109.1333 C295 109.1333 368.7781 104.9722 415 112.1333 C424.5708 113.6161 427.759 121.2323 437 131.1333 C440.8803 135.2908 441.7301 136.7361 443 142.1333 C445.4014 152.3394 445 165.1333 445 165.1333 "/>
<path id="18" d="M174 183.1333 L174 188.1333 "/>
<path id="19" d="M165 146.1333 C165 146.1333 172.2085 164.7326 182 181.1333 C191.9177 197.7455 195.2245 198.0627 205 213.1333 C206.1769 214.9477 206.1281 217.813 206 218.1333 C205.9666 218.2169 203 218.1333 203 218.1333 "/>
<path id="20" d="M182 191.1333 C182 191.1333 174.007 219.8115 165 242.1333 C163.6891 245.3821 159.9281 245.5038 159 248.1333 C157.7424 251.6965 157.4674 257.4548 159 259.1333 C163.3433 263.8903 170.154 268.8612 180 271.1333 C192.8412 274.0967 211 271.1333 211 271.1333 "/>
<path id="21" d="M213 198.1333 C213 198.1333 213.8892 214.9765 211 229.1333 C209.194 237.9825 205.2105 238.1072 203 247.1333 C199.4582 261.5955 202.1565 263.2976 199 278.1333 C197.2878 286.1805 192.806 293.9922 193 294.1333 C193.9638 294.8343 207.7604 292.2751 221 294.1333 C235.2434 296.1324 236.5703 300.168 250 302.1333 C255.2112 302.8959 258.0031 301.5608 262 300.1333 C262.9655 299.7885 264 297.1333 264 297.1333 "/>
<path id="22" d="M265 207.1333 C265 207.1333 266.9335 221.5654 265 234.1333 C263.1216 246.3432 259.3028 246.6984 257 259.1333 C254.446 272.9248 256.8847 274.5635 255 288.1333 C254.5226 291.5708 253.5374 293.0835 252 295.1333 C251.4598 295.8536 249 296.1333 249 296.1333 "/>
<path id="23" d="M257 218.1333 C257 218.1333 312.8199 223.6169 358 219.1333 C372.0551 217.7385 388 205.1333 388 205.1333 "/>
<path id="24" d="M379 211.1333 C379 211.1333 376.7769 245.2205 371 270.1333 C369.8746 274.9866 363 280.1333 363 280.1333 "/>
<path id="25" d="M408 201.1333 L412 257.1333 "/>
<path id="26" d="M445 162.1333 C445 162.1333 452.8607 186.3869 455 210.1333 C457.7561 240.7264 455.8246 269.3908 455 273.1333 C454.9851 273.2008 442 269.1333 442 269.1333 "/>
<path id="27" d="M426 271.1333 C426 271.1333 435.3236 274.1333 441 274.1333 C442.8921 274.1333 446 271.1333 446 271.1333 "/>
<path id="28" d="M444 140.1333 L462 162.1333 "/>
<path id="29" d="M437 129.1333 C437 129.1333 453.9022 145.4725 462 157.1333 C463.4281 159.1899 461.2376 162.0839 462 165.1333 C462.4526 166.9439 463.3357 167.3178 465 169.1333 C468.7806 173.2576 470.9148 176.3886 473 177.1333 C473.9466 177.4714 479 174.1333 479 174.1333 "/>
<path id="30" d="M467 157.1333 C467 157.1333 472.6148 159.6695 473 161.1333 C474.0175 164.9999 472.1568 175.9094 472 176.1333 C471.992 176.1447 466.1586 172.4024 466 171.1333 C465.7103 168.816 468.6307 160.8583 470 160.1333 C471.6645 159.2521 481.2876 161.0795 483 162.1333 C483.4443 162.4068 483.0257 168.0819 483 168.1333 C482.9957 168.1419 481 166.1333 481 166.1333 "/>
<path id="31" d="M149 71.1333 C149 71.1333 149.9467 41.2399 150 41.1333 C150.014 41.1054 156.5723 47.601 158 53.1333 C159.9287 60.6071 158 72.1333 158 72.1333 "/>
<path id="32" d="M242 101.1333 C242 101.1333 236.9705 101.0744 237 101.1333 C237.7661 102.6655 267 151.1333 267 151.1333 "/>
</g>
</g>
</svg>
