<?xml version="1.0" encoding="utf-8"?>
<!DOCTYPE svg PUBLIC "-//W3C//DTD SVG 1.1//EN" "http://www.w3.org/Graphics/SVG/1.1/DTD/svg11.dtd">
<svg viewBox="0 0 800 800" preserveAspectRatio="xMinYMin meet" xmlns="http://www.w3.org/2000/svg" version="1.1">
<g fill="none" stroke="black" stroke-linecap="round" stroke-linejoin="round" stroke-width="2.429">
<g transform="translate(87.52,222.7633) scale(1.2351) translate(-87.3611,-112.75)">
<path id="0" d="M87.3611 230.75 C87.3611 230.75 85.5813 209.6058 88.3611 199.75 C89.3227 196.3409 94.0705 192.9052 98.3611 191.75 C103.9145 190.2549 107.4423 190.9562 114.3611 192.75 C119.7039 194.1352 121.0226 195.0965 125.3611 198.75 C129.7992 202.4873 129.6527 206.4837 133.3611 208.75 C136.1498 210.4542 140.1824 208.5274 143.3611 209.75 C144.7503 210.2843 146.0656 211.9768 146.3611 213.75 C147.2806 219.2668 148.3163 224.4913 146.3611 227.75 C143.568 232.4052 138.151 237.194 131.3611 238.75 C118.5725 241.6807 110.5156 241.0651 98.3611 238.75 C94.485 238.0117 89.3611 230.75 89.3611 230.75 "/>
<path id="1" d="M101.3611 203.75 C101.3611 203.75 102.004 206.6786 101.3611 207.75 C99.8183 210.3214 96.7811 211.1467 95.3611 213.75 C94.5954 215.1537 95.0958 218.6026 95.3611 218.75 C96.2208 219.2276 103.8203 219.399 104.3611 218.75 C105.2865 217.6395 105.5755 209.5365 105.3611 206.75 C105.3404 206.4803 103.3611 205.75 103.3611 205.75 "/>
<path id="2" d="M127.3611 214.75 C127.3611 214.75 120.0413 215.3345 116.3611 216.75 C115.3749 217.1293 114.2464 219.3485 114.3611 219.75 C114.6041 220.6003 116.6025 223.0466 118.3611 223.75 C120.2453 224.5037 123.8725 224.2386 124.3611 223.75 C125.0125 223.0986 125.3611 216.75 125.3611 216.75 "/>
<path id="3" d="M97.3611 192.75 C97.3611 192.75 104.4976 189.5344 111.3611 188.75 C121.3308 187.6106 132.3611 188.75 132.3611 188.75 "/>
<path id="4" d="M111.3611 186.75 C111.3611 186.75 112.2595 172.0869 115.3611 158.75 C117.1189 151.1917 117.6216 150.0784 121.3611 143.75 C123.6067 139.9498 124.4756 139.2478 128.3611 136.75 C137.8456 130.6528 139.4241 128.179 149.3611 125.75 C159.4286 123.2891 161.4452 125.2084 173.3611 125.75 C183.3362 126.2034 185.4187 124.4142 193.3611 127.75 C207.8358 133.8294 210.912 135.857 223.3611 146.75 C233.5407 155.6572 234.024 157.7933 241.3611 169.75 C247.077 179.0648 248.0909 180.6603 250.3611 190.75 C252.2344 199.0759 252.6213 202.5584 250.3611 209.75 C248.0465 217.1146 245.5959 219.5152 239.3611 225.75 C234.05 231.0611 232.0136 233.6279 225.3611 234.75 C195.4198 239.8003 188.1389 236.0357 156.3611 239.75 C152.4942 240.202 151.1598 241.116 148.3611 243.75 C143.5334 248.2937 143.8176 251.8506 139.3611 255.75 C137.3614 257.4997 135.779 257.5059 132.3611 257.75 C122.3125 258.4678 117.5998 258.5637 111.3611 257.75 C110.6507 257.6573 109.7569 256.1353 109.3611 254.75 C108.9178 253.1985 108.728 251.3831 109.3611 250.75 C113.4763 246.6348 124.3611 239.75 124.3611 239.75 "/>
<path id="5" d="M113.3611 258.75 C113.3611 258.75 155.6134 259.8697 161.3611 259.75 C161.3661 259.7499 161.2868 257.7686 161.3611 257.75 C163.8137 257.1369 171.0998 258.6719 177.3611 255.75 C191.3628 249.2159 206.3611 236.75 206.3611 236.75 "/>
<path id="6" d="M145.3611 228.75 C145.3611 228.75 146.894 239.1514 145.3611 243.75 C144.5095 246.3048 138.3611 249.75 138.3611 249.75 "/>
<path id="7" d="M145.3611 171.75 C145.3611 171.75 146.7158 174.686 146.3611 175.75 C145.7485 177.5878 142.3611 180.7501 142.3611 180.75 C142.3611 180.7499 146.3611 173.75 146.3611 173.75 "/>
<path id="8" d="M182.3611 191.75 C182.3611 191.75 176.7575 191.122 172.3611 191.75 C170.477 192.0192 169.0252 192.9199 168.3611 193.75 C167.978 194.2289 168.2378 196.7038 168.3611 196.75 C169.2378 197.0788 175.642 197.1994 176.3611 196.75 C176.642 196.5744 176.3611 191.75 176.3611 191.75 "/>
<path id="9" d="M159.3611 170.75 C159.3611 170.75 156.9034 167.1059 155.3611 166.75 C152.614 166.116 146.3611 167.75 146.3611 167.75 "/>
<path id="10" d="M176.3611 178.75 L190.3611 191.75 "/>
<path id="11" d="M183.3611 130.75 C183.3611 130.75 184.2806 122.2668 183.3611 116.75 C183.0656 114.9768 180.3611 112.75 180.3611 112.75 "/>
<path id="12" d="M191.3611 137.75 C191.3611 137.75 191.6199 131.9786 193.3611 127.75 C194.8184 124.2108 196.3918 122.4731 198.3611 120.75 C198.8922 120.2853 201.3611 120.75 201.3611 120.75 "/>
<path id="13" d="M201.3611 139.75 C201.3611 139.75 201.2516 136.2293 202.3611 134.75 C204.8696 131.4054 210.3611 127.75 210.3611 127.75 "/>
<path id="14" d="M157.3611 123.75 C157.3611 123.75 151.2806 116.0522 146.3611 114.75 C137.9061 112.5119 129.0741 111.5452 123.3611 114.75 C115.6853 119.056 114.5623 127.3987 105.3611 137.75 C103.1591 140.2272 102.1324 140.8973 99.3611 141.75 C96.6783 142.5755 92.5166 141.5323 92.3611 141.75 C92.1878 141.9926 93.714 148.6062 94.3611 148.75 C98.8706 149.7521 119.3611 147.75 119.3611 147.75 "/>
<path id="15" d="M243.3611 173.75 C243.3611 173.75 246.4039 166.2675 250.3611 162.75 C254.0038 159.512 259.9558 157.0231 261.3611 157.75 C266.0955 160.1988 270.9432 171.9627 279.3611 177.75 C283.4375 180.5525 293.0438 178.8511 293.3611 179.75 C294.7915 183.8027 291.7787 211.3324 291.3611 211.75 C291.312 211.7991 280.7909 205.7389 274.3611 198.75 C270.4278 194.4747 270.0555 187.3661 268.3611 186.75 C265.983 185.8852 252.3611 190.75 252.3611 190.75 "/>
<path id="16" d="M201.3611 240.75 C201.3611 240.75 210.1885 247.6781 216.3611 255.75 C222.7532 264.1089 221.2022 266.7434 227.3611 274.75 C230.4837 278.8094 231.5412 279.0864 236.3611 281.75 C250.121 289.3542 250.6481 290.6004 265.3611 295.75 C279.8789 300.8312 296.3611 302.75 296.3611 302.75 "/>
<path id="17" d="M230.3611 151.75 C230.3611 151.75 253.8706 144.9995 276.3611 143.75 C297.5872 142.5708 302.0117 141.6973 320.3611 146.75 C332.3983 150.0646 332.4576 156.7591 345.3611 162.75 C359.5436 169.3347 361.2432 170.8836 376.3611 172.75 C399.811 175.645 402.4073 174.2471 426.3611 172.75 C433.1879 172.3233 434.3762 171.7424 440.3611 168.75 C446.533 165.664 446.1865 162.4514 452.3611 159.75 C460.9572 155.9892 462.969 154.75 472.3611 154.75 C493.9629 154.75 498.4172 154.5339 518.3611 159.75 C527.6942 162.191 529.9313 164.8155 537.3611 171.75 C543.7413 177.7048 544.1711 179.6692 548.3611 187.75 C550.785 192.4247 550.9571 193.3638 551.3611 198.75 C552.4048 212.6653 553.6613 214.7154 551.3611 227.75 C549.4901 238.3522 548.1708 240.3093 542.3611 249.75 C536.8273 258.7424 530.6078 259.1744 527.3611 266.75 C524.8667 272.5703 527.3611 284.75 527.3611 284.75 "/>
<path id="18" d="M300.3611 302.75 C300.3611 302.75 300.527 289.3877 302.3611 278.75 C302.7768 276.3392 303.5755 275.0892 305.3611 273.75 C308.5355 271.3692 310.0871 270.2385 314.3611 269.75 C326.1113 268.4071 328.0677 268.9817 340.3611 269.75 C343.2572 269.931 344.2746 270.2326 346.3611 271.75 C348.9819 273.656 349.5586 274.5956 351.3611 277.75 C353.3381 281.2097 353.948 281.8942 354.3611 285.75 C355.354 295.017 356.6381 297.1299 354.3611 305.75 C350.183 321.5671 348.3616 323.4157 340.3611 338.75 C336.7449 345.681 336.0098 346.1014 330.3611 351.75 C317.8359 364.2753 317.0663 365.0081 303.3611 375.75 C299.197 379.0138 293.3611 380.75 293.3611 380.75 "/>
<path id="19" d="M297.3611 302.75 C297.3611 302.75 286.434 325.5637 277.3611 348.75 C273.0225 359.8375 272.8885 360.5571 270.3611 371.75 C269.5385 375.3928 270.3611 379.75 270.3611 379.75 "/>
<path id="20" d="M461.3611 293.75 C461.3611 293.75 460.2704 286.2036 461.3611 280.75 C462.0155 277.4778 463.09 275.6426 465.3611 273.75 C467.7862 271.7291 469.8976 270.75 473.3611 270.75 C480.7212 270.75 486.3089 270.0036 490.3611 273.75 C506.4541 288.6284 518.0543 298.6461 526.3611 319.75 C533.0421 336.7234 529.7825 350.1948 527.3611 367.75 C526.7924 371.8732 518.3611 377.75 518.3611 377.75 "/>
<path id="21" d="M462.3611 292.75 C462.3611 292.75 460.8805 295.53 461.3611 296.75 C465.9612 308.4272 470.8271 311.1935 475.3611 325.75 C479.9218 340.3923 479.0785 341.8455 480.3611 357.75 C481.5486 372.475 481.8419 383.9245 480.3611 387.75 C480.0825 388.4698 471.11 387.5719 468.3611 388.75 C467.4448 389.1427 466.0929 393.3669 466.3611 393.75 C467.2028 394.9525 471.0618 397.9683 475.3611 398.75 C485.8531 400.6576 489.0628 401.5083 499.3611 399.75 C507.2983 398.3949 510.1431 396.1915 516.3611 391.75 C518.8249 389.9902 518.1752 386.9359 520.3611 384.75 C521.7521 383.359 524.6481 383.6056 525.3611 382.75 C525.8236 382.195 525.3611 378.75 525.3611 378.75 "/>
<path id="22" d="M273.3611 380.75 C273.3611 380.75 264.9683 379.6228 261.3611 380.75 C259.689 381.2725 257.2442 385.3604 257.3611 385.75 C257.5795 386.4779 260.7726 389.3146 264.3611 390.75 C270.0231 393.0148 270.9492 393.2157 277.3611 393.75 C288.4912 394.6775 296.4705 395.396 300.3611 393.75 C301.6558 393.2022 303.3611 382.75 303.3611 382.75 "/>
<path id="23" d="M357.3611 307.75 C357.3611 307.75 363.4248 309.6289 369.3611 309.75 C411.7604 310.6153 419.9596 312.9683 455.3611 309.75 C461.0493 309.2329 468.3611 300.75 468.3611 300.75 "/>
<path id="24" d="M539.3611 174.75 C539.3611 174.75 552.1614 175.9366 560.3611 173.75 C564.551 172.6327 565.8153 170.5686 569.3611 166.75 C571.8349 164.0859 572.4077 163.1824 573.3611 159.75 C574.6868 154.9776 574.8497 149.1339 574.3611 148.75 C573.4022 147.9966 564.7507 148.1159 559.3611 148.75 C558.558 148.8445 557.3611 150.0942 557.3611 150.75 C557.3611 156.3244 557.7538 166.4921 559.3611 167.75 C561.6488 169.5404 573.9401 171.0162 580.3611 168.75 C585.8309 166.8195 593.3611 155.75 593.3611 155.75 "/>
<path id="25" d="M242.3611 289.75 C242.3611 289.75 244.1878 295.0297 243.3611 298.75 C241.5193 307.0382 240.4222 308.1202 236.3611 316.75 C232.502 324.9507 232.4035 325.8167 227.3611 332.75 C224.8806 336.1607 220.3611 338.75 220.3611 338.75 "/>
<path id="26" d="M281.3611 301.75 C281.3611 301.75 272.0169 321.8636 261.3611 339.75 C258.4224 344.6829 257.6361 345.6625 253.3611 348.75 C249.5611 351.4944 243.3611 352.75 243.3611 352.75 "/>
<path id="27" d="M229.3611 344.75 C229.3611 344.75 211.5542 347.9298 210.3611 348.75 C210.2617 348.8184 211.4177 353.8065 213.3611 355.75 C215.6933 358.0821 217.6275 359.3671 221.3611 359.75 C235.1232 361.1615 251.7604 360.0003 252.3611 359.75 C252.416 359.7271 249.0585 351.6583 245.3611 349.75 C237.1229 345.498 221.3611 343.75 221.3611 343.75 "/>
<path id="28" d="M450.3611 313.75 C450.3611 313.75 450.2748 324.1817 448.3611 333.75 C446.8602 341.2546 446.5215 341.8546 443.3611 348.75 C441.2136 353.4355 440.8249 354.0553 437.3611 357.75 C433.7049 361.65 432.3229 362.6167 428.3611 364.75 C427.1201 365.4183 424.3826 364.7286 424.3611 364.75 C424.3611 364.75 426.3681 366.7447 426.3611 366.75 C426.2664 366.821 420.419 367.6728 420.3611 367.75 C420.3532 367.7605 422.1473 370.6316 423.3611 370.75 C437.4056 372.1202 454.5672 372.9389 461.3611 371.75 C461.9718 371.6431 464.0855 365.5093 463.3611 363.75 C462.0785 360.6352 456.8111 358.5611 454.3611 354.75 C453.5326 353.4612 453.5607 351.3509 454.3611 349.75 C456.3622 345.7478 459.6868 344.8162 461.3611 340.75 C462.4884 338.0124 460.0411 334.8242 461.3611 332.75 C465.141 326.8101 475.3611 318.75 475.3611 318.75 "/>
</g>
</g>
</svg>
