<?xml version="1.0" encoding="utf-8"?>
<!DOCTYPE svg PUBLIC "-//W3C//DTD SVG 1.1//EN" "http://www.w3.org/Graphics/SVG/1.1/DTD/svg11.dtd">
<svg viewBox="0 0 800 800" preserveAspectRatio="xMinYMin meet" xmlns="http://www.w3.org/2000/svg" version="1.1">
<g fill="none" stroke="black" stroke-linecap="round" stroke-linejoin="round" stroke-width="1.6705">
<g transform="translate(87.52,246.4538) scale(1.7959) translate(-185,-129)">
<path id="0" d="M192 230 C192 230 197.3601 232.8061 198 235 C199.8288 241.2701 198.5913 251.4115 199 254 C199.0067 254.0427 201.0041 253.9813 201 254 C200.9077 254.4154 198.6522 261.513 197 263 C196.1807 263.7374 192.1483 263.8351 191 263 C188.9296 261.4942 186.8154 258.805 186 255 C184.1831 246.5212 184.2255 240.9379 185 235 C185.1373 233.9476 187.1957 232.4164 189 232 C192.4607 231.2014 196.9279 232.2382 198 232 C198.0529 231.9882 198 230 198 230 "/>
<path id="1" d="M204 243 L238 232 "/>
<path id="2" d="M212 245 L223 241 "/>
<path id="3" d="M195 230 C195 230 201.8474 220.4916 210 213 C220.0162 203.7959 232 196 232 196 "/>
<path id="4" d="M198 267 L260 250 "/>
<path id="5" d="M250 202 C250 202 249.4899 205.6734 249 206 C248.332 206.4454 244 206 244 206 "/>
<path id="6" d="M253 190 C253 190 252.899 183.9219 255 180 C259.7375 171.1568 263.3885 167.1879 268 162 C268.4161 161.5319 270.9286 161.8097 271 162 C272.6655 166.4413 277 186 277 186 "/>
<path id="7" d="M235 191 L257 182 "/>
<path id="8" d="M280 179 C280 179 275.9885 179.0125 276 179 C276.0867 178.9061 283.6349 171.8733 292 166 C306.9948 155.4717 307.0364 153.9818 323 146 C337.2115 138.8942 338.3669 139.0267 354 135 C370.8863 130.6505 371.6385 130.9655 389 129 C397.7588 128.0084 398.3409 127.8343 407 129 C423.8095 131.2628 425.0928 131.4046 441 136 C446.623 137.6244 448.4639 137.9987 452 142 C465.6892 157.4904 469.8903 162.8049 479 179 C480.9201 182.4136 479.9298 186.7457 479 190 C478.6498 191.2257 475 193 475 193 "/>
<path id="9" d="M269 250 C269 250 273.7629 248.8575 277 250 C289.2342 254.318 290.423 259.3629 303 262 C318.9702 265.3486 326.2083 263.3366 339 263 C339.7299 262.9808 341 261 341 261 "/>
<path id="10" d="M337 235 C337 235 340.7945 234.6263 341 235 C343.228 239.0509 347.2587 245.512 348 255 C349.5817 275.2459 344.4909 293.7762 346 299 C346.1854 299.6416 355.3619 301.0251 361 300 C364.0093 299.4529 367.66 296.8943 368 295 C369.8478 284.7053 370.3867 276.6459 368 261 C366.1487 248.8639 363.6935 246.109 359 236 C358.2187 234.3172 355 233 355 233 "/>
<path id="11" d="M316 263 C316 263 318.4744 267.6202 319 272 C319.8984 279.4869 318.1395 287.078 319 288 C319.649 288.6953 327.8028 288.2229 333 287 C334.353 286.6816 335.7478 285.261 336 284 C336.8406 279.7968 336 272 336 272 "/>
<path id="12" d="M364 252 C364 252 376.1187 259.4706 386 260 C400.8613 260.7961 405.3404 260.2018 420 255 C433.9458 250.0515 442.3439 242.6087 448 238 C448.4154 237.6615 447 233 447 233 "/>
<path id="13" d="M444 223 C444 223 446.9926 226.9702 448 231 C450.3227 240.2909 451 241.3818 451 251 C451 262.0609 447.7666 273.8314 448 274 C448.2363 274.1706 467.8145 267.2603 469 264 C471.1633 258.0509 467.1991 245.9957 464 230 C463.3967 226.9837 462.8285 226.057 461 224 C459.4294 222.2331 456 221 456 221 "/>
<path id="14" d="M421 253 C421 253 425.7629 252.6443 426 253 C426.6877 254.0315 425.7748 259.5496 427 262 C427.7093 263.4187 430.9895 263.7873 432 265 C432.423 265.5076 431.7383 267.7906 432 268 C432.6325 268.506 435.8618 269.5174 437 269 C439.1853 268.0067 442.6772 265.2598 443 263 C444.0223 255.8441 441 241 441 241 "/>
<path id="15" d="M482 187 L483 193 "/>
<path id="16" d="M455 224 C455 224 461.542 224.0264 466 222 C471.4789 219.5096 472.6748 218.5529 477 214 C481.5948 209.1633 482.2033 208.1018 485 202 C487.3876 196.7907 488 190 488 190 "/>
<path id="17" d="M486 196 C486 196 487.7704 191.4729 489 191 C491.4976 190.0394 496.0768 190.1005 499 191 C500.2368 191.3805 501.6417 193.2087 502 195 C502.8567 199.2837 503.3561 203.1182 502 206 C500.7961 208.5582 496.3562 211.2146 494 212 C493.2146 212.2618 490.6641 210.8301 490 210 C489.6169 209.5211 489.4719 207.6866 490 207 C493.1146 202.951 495.4193 198.7375 500 197 C506.4359 194.5588 514.0882 195.1069 519 196 C520.0203 196.1855 521.5655 198.6825 522 201 C522.8593 205.583 522.7629 211.3897 522 212 C520.6302 213.0958 507.0019 213.0103 507 213 C506.9896 212.9427 513.6885 204.3985 520 201 C524.5652 198.5418 533 199 533 199 "/>
<path id="18" d="M245 204 L249 212 "/>
<path id="19" d="M334 267 L329 275 "/>
</g>
</g>
</svg>
