<?xml version="1.0" encoding="utf-8"?>
<!DOCTYPE svg PUBLIC "-//W3C//DTD SVG 1.1//EN" "http://www.w3.org/Graphics/SVG/1.1/DTD/svg11.dtd">
<svg viewBox="0 0 800 800" preserveAspectRatio="xMinYMin meet" xmlns="http://www.w3.org/2000/svg" version="1.1">
<g fill="none" stroke="black" stroke-linecap="round" stroke-linejoin="round" stroke-width="2.6498">
<g transform="translate(87.52,211.493) scale(1.1322) translate(-52,-24.4167)">
<path id="0" d="M140 151.4167 C140 151.4167 140.9303 155.5095 140 158.4167 C137.2676 166.9554 136.5566 167.873 132 176.4167 C128.6712 182.6581 128.2451 183.5185 124 188.4167 C122.3558 190.3139 120.0105 190.204 119 191.4167 C118.577 191.9243 119.4389 193.9778 119 194.4167 C117.098 196.3187 111 199.4167 111 199.4167 "/>
<path id="1" d="M111 199.4167 C111 199.4167 105.5219 197.3782 103 195.4167 C102.2434 194.8282 102.5255 192.6356 102 192.4167 C99.2362 191.2651 95.4588 189.9708 91 190.4167 C87.1192 190.8047 84.7074 192.2015 82 194.4167 C80.6563 195.5161 81.3997 197.842 80 199.4167 C78.0726 201.585 75.4002 201.2385 74 203.4167 C71.8742 206.7235 71.9529 211.5108 71 213.4167 C70.9171 213.5824 69.0044 213.3839 69 213.4167 C68.7544 215.2589 68.0984 221.5042 69 228.4167 C69.5044 232.2836 69.857 233.2996 72 236.4167 C74.8751 240.5986 75.6273 241.8254 80 244.4167 C88.148 249.2451 89.8622 250.7922 99 252.4167 C110.6335 254.4849 117.7203 254.4641 125 252.4167 C127.3887 251.7449 129.6557 247.8978 131 243.4167 C133.726 234.3299 136.3721 228.1597 134 222.4167 C129.9082 212.5102 122.9734 207.3613 112 197.4167 C108.6519 194.3825 102 193.4167 102 193.4167 "/>
<path id="2" d="M79 221.4167 C79 221.4167 79.5058 217.8121 80 217.4167 C80.4707 217.0401 83.8462 217.1859 84 217.4167 C84.3462 217.9359 84.5515 222.9264 84 223.4167 C82.8855 224.4074 76.3248 225.5491 75 225.4167 C74.8043 225.3971 73.8496 222.6046 74 222.4167 C74.4101 221.9041 79 220.4167 79 220.4167 "/>
<path id="3" d="M116 242.4167 C116 242.4167 114.0189 242.4827 114 242.4167 C113.7689 241.6077 113.3014 236.6742 114 235.4167 C114.4768 234.5584 118.9837 233.3873 119 233.4167 C119.2307 233.8319 119.4416 243.2023 119 244.4167 C118.9416 244.5773 115.725 244.9 115 244.4167 C114.1542 243.8528 113 240.4167 113 240.4167 "/>
<path id="4" d="M121 253.4167 C121 253.4167 140.0025 255.3729 155 253.4167 C160.6384 252.6812 160.8932 249.3866 167 247.4167 C175.8916 244.5484 177.6541 246.755 186 243.4167 C194.1028 240.1756 194.747 238.9959 202 233.4167 C207.4162 229.2504 208.1662 228.8648 212 223.4167 C217.2507 215.9552 221 206.4167 221 206.4167 "/>
<path id="5" d="M138 150.4167 C138 150.4167 121.5664 155.5897 114 152.4167 C97.7502 145.6022 93.2085 139.1156 76 124.4167 C70.1345 119.4066 69.7762 118.3397 66 111.4167 C58.0942 96.9227 51.9039 80.5181 52 80.4167 C52.0992 80.3119 68.0859 87.7751 84 92.4167 C91.434 94.5849 95.2382 96.5811 100 94.4167 C116.1786 87.0628 121.3757 75.482 139 67.4167 C145.8636 64.2757 150.4616 66.1517 159 67.4167 C162.2414 67.8969 164.0257 68.9159 166 71.4167 C170.4176 77.0123 171.8923 78.9438 174 86.4167 C177.0348 97.1763 176.6234 110.2455 177 110.4167 C177.3421 110.5722 187.3639 98.6557 196 96.4167 C209.3569 92.9538 213.8136 95.6694 231 96.4167 C236.4441 96.6534 237.2141 96.7275 242 98.4167 C245.0303 99.4862 247.985 102.4367 248 102.4167 C248.7364 101.4348 252.3073 92.3311 254 82.4167 C255.7045 72.4332 257.3101 68.5394 255 61.4167 C252.7413 54.4522 245.4308 52.5421 242 45.4167 C240.3046 41.8954 240.4484 36.4532 242 34.4167 C245.1302 30.3083 250.558 26.6055 258 24.4167 C265.0722 22.3366 267.9857 22.8138 276 24.4167 C284.1924 26.0552 293 31.4167 293 31.4167 "/>
<path id="6" d="M299 29.4167 C299 29.4167 305.569 38.2593 310 47.4167 C312.8376 53.281 312.2376 53.8708 314 60.4167 C315.7287 66.8374 316.4657 67.0048 317 73.4167 C317.9275 84.5468 318.6472 85.9846 317 96.4167 C315.8579 103.6499 315.1846 105.5202 311 111.4167 C305.056 119.7923 295 127.4167 295 127.4167 "/>
<path id="7" d="M301 145.4167 C301 145.4167 308.6208 176.1746 305 197.4167 C302.2315 213.6587 296.824 217.1807 286 233.4167 C279.4759 243.2028 278.0938 244.1951 269 251.4167 C261.9831 256.989 260.1428 258.7549 252 260.4167 C238.0787 263.2577 235.4858 261.7944 220 261.4167 C215.6177 261.3098 212.5286 260.0961 211 259.4167 C210.8626 259.3556 211.1269 257.4643 211 257.4167 C208.0391 256.3063 197.779 254.8062 195 253.4167 C194.6912 253.2623 194.3135 250.7134 195 249.4167 C198.0489 243.6576 204 236.4167 204 236.4167 "/>
<path id="8" d="M214 256.4167 C214 256.4167 213.4494 272.488 209 286.4167 C202.276 307.4658 190.4185 325.6836 191 328.4167 C191.1669 329.2013 205.1187 331.8026 219 333.4167 C226.2852 334.2638 229.7408 335.7829 234 333.4167 C243.1178 328.3512 250.377 323.8793 255 313.4167 C266.6072 287.1478 272 247.4167 272 247.4167 "/>
<path id="9" d="M272 256.4167 C272 256.4167 275.8582 263.0311 281 267.4167 C292.2872 277.044 294.2992 280.9704 306 285.4167 C315.3269 288.9609 331 286.4167 331 286.4167 "/>
<path id="10" d="M343 232.4167 C343 232.4167 338.6986 260.571 331 285.4167 C328.1362 294.659 325.0901 294.1601 321 303.4167 C315.7134 315.3811 317.906 317.6786 312 328.4167 C307.6321 336.3582 298.9916 343.4088 299 343.4167 C299.2297 343.632 314.8686 345.5606 328 343.4167 C337.6476 341.8416 342.1741 340.66 348 335.4167 C353.8045 330.1927 354.1684 326.1872 358 316.4167 C364.0047 301.1048 368 284.4167 368 284.4167 "/>
<path id="11" d="M364 306.4167 C364 306.4167 378.6064 310.3425 393 311.4167 C411.621 312.8063 416.5556 313.3426 431 311.4167 C433.9649 311.0214 434.9371 307.0874 438 305.4167 C439.1927 304.7661 441.1915 306.1241 442 305.4167 C449.7563 298.6299 462 284.4167 462 284.4167 "/>
<path id="12" d="M448 239.4167 C448 239.4167 449.2412 265.5653 454 290.4167 C458.1336 312.0032 461.5019 312.4257 466 333.4167 C467.2831 339.4047 467.6812 341.9334 466 346.4167 C464.1409 351.3742 457.0771 357.2047 457 357.4167 C456.9902 357.4437 459.7945 358.0251 462 357.4167 C473.5599 354.2277 475.0489 353.9482 486 349.4167 C488.6686 348.3124 488.4473 346.2676 491 345.4167 C499.1955 342.6848 505.5328 344.6331 510 341.4167 C513.283 339.0529 514.6006 334.4137 516 327.4167 C519.388 310.4765 519.2601 309.3582 520 291.4167 C521.2479 261.1544 520 230.4167 520 230.4167 "/>
<path id="13" d="M425 307.4167 C425 307.4167 425.9583 313.3059 425 318.4167 C423.0726 328.6962 418.4802 338.6889 419 339.4167 C419.4665 340.0698 430.1274 340.9963 440 339.4167 C454.2353 337.139 469 331.4167 469 331.4167 "/>
<path id="14" d="M517 264.4167 C517 264.4167 527.8038 265.9079 537 264.4167 C545.2642 263.0765 546.7599 262.5852 554 258.4167 C562.3127 253.6306 566.538 252.6484 570 245.4167 C585.8999 212.2035 586.3934 204.6002 599 164.4167 C602.07 154.631 602 143.4167 602 143.4167 "/>
<path id="15" d="M308 35.4167 C308 35.4167 301.7453 28.8609 297 27.4167 C292.869 26.1594 285 28.4167 285 28.4167 "/>
<path id="16" d="M317 71.4167 C317 71.4167 330.8071 62.995 345 58.4167 C360.9848 53.2603 362.1798 52.7858 379 51.4167 C404.301 49.3573 405.3272 49.7213 431 51.4167 C457.8884 53.1923 459.9239 51.125 485 58.4167 C528.3571 71.0241 530.0108 74.6031 572 92.4167 C578.373 95.1204 578.4674 96.0488 584 100.4167 C587.7838 103.4039 588.7545 103.6165 591 107.4167 C594.7395 113.7451 594.9332 114.7854 597 122.4167 C601.3382 138.4347 604 155.4167 604 155.4167 "/>
<path id="17" d="M592 107.4167 C592 107.4167 579.8684 96.6809 573 85.4167 C568.3662 77.8172 567.7017 75.0709 567 66.4167 C566.3606 58.5306 567.0347 55.3356 570 48.4167 C572.1306 43.4453 577.1216 38.5732 579 38.4167 C581.738 38.1885 588.4043 41.999 594 46.4167 C596.5008 48.391 597.0996 49.9952 598 53.4167 C599.3712 58.6272 600.1592 63.8116 599 65.4167 C597.344 67.7096 591.6542 69.3153 585 71.4167 C582.9068 72.0777 581.28 72.0567 580 71.4167 C578.72 70.7767 577.1832 69.0651 577 67.4167 C576.413 62.1333 577.6864 53.6989 578 53.4167 C578.1038 53.3233 587 58.4167 587 58.4167 "/>
<path id="18" d="M164 163.4167 L162 160.4167 "/>
<path id="19" d="M218 182.4167 C218 182.4167 213.0049 180.4315 213 180.4167 C212.9996 180.4153 217 179.4167 217 179.4167 "/>
<path id="20" d="M200 242.4167 L212 223.4167 "/>
<path id="21" d="M206 255.4167 L204 255.4167 "/>
<path id="22" d="M123 102.4167 L158 116.4167 "/>
<path id="23" d="M288 57.4167 C288 57.4167 290.0718 76.6962 289 92.4167 C288.7155 96.5897 287.6696 98.3657 285 101.4167 C281.6363 105.2608 275 108.4167 275 108.4167 "/>
</g>
</g>
</svg>
