<?xml version="1.0" encoding="utf-8"?>
<!DOCTYPE svg PUBLIC "-//W3C//DTD SVG 1.1//EN" "http://www.w3.org/Graphics/SVG/1.1/DTD/svg11.dtd">
<svg viewBox="0 0 800 800" preserveAspectRatio="xMinYMin meet" xmlns="http://www.w3.org/2000/svg" version="1.1">
<g fill="none" stroke="black" stroke-linecap="round" stroke-linejoin="round" stroke-width="2.3954">
<g transform="translate(87.52,215.2673) scale(1.2524) translate(-19,-136)">
<path id="0" d="M72 251 C72 251 80.1381 231.6783 91 217 C97.6265 208.0452 99.2128 207.045 109 201 C132.1878 186.6782 133.7007 186.4997 159 175 C171.724 169.2163 172.6851 167.8777 186 166 C210.154 162.5937 213.9084 159.4072 237 164 C299.7727 176.4852 303.8453 181.6548 367 202 C376.8663 205.1784 385.6101 211.7477 386 212 C386.0207 212.0134 384 213 384 213 "/>
<path id="1" d="M382 215 C382 215 383.3979 210.1226 386 207 C390.4007 201.7192 391.2648 200.8235 397 197 C401.1121 194.2586 402.0025 194.034 407 193 C415.9604 191.1461 424.8776 191.4622 426 191 C426.0033 190.9986 424 188.2554 424 186 C424 173.3696 423.5335 170.9492 426 158 C427.316 151.0909 428.18 149.6026 432 144 C434.9849 139.6221 440.9605 135.9303 441 136 C441.579 137.0217 446.4535 155.2199 449 174 C450.3682 184.0905 449.9187 184.8947 449 195 C448.4631 200.9057 445.9726 207.0131 446 207 C446.116 206.9445 458.2036 192.8858 472 184 C486.4209 174.712 504.812 168.951 505 169 C505.0292 169.0076 501.042 180.6853 495 190 C489.4868 198.4996 485.7438 197.6983 481 206 C476.5668 213.7582 475 225 475 225 "/>
<path id="2" d="M475 225 C475 225 478.7327 240.7444 485 251 C488.383 256.5359 490.6312 256.8204 497 261 C506.3388 267.1286 512.9247 267.1485 517 272 C519.1754 274.5898 519.201 280.1951 518 286 C516.5678 292.9223 515.1882 295.1366 511 301 C508.5469 304.4343 506.7499 306.0278 503 307 C495.4421 308.9595 492.3947 309.2345 484 308 C476.928 306.96 469 302 469 302 "/>
<path id="3" d="M493 293 C493 293 498.9993 288.9993 499 289 C499.0007 289.0007 495 295 495 295 "/>
<path id="4" d="M503 293 C503 293 507.9851 288.0037 508 288 C508.0048 287.9988 507 292 507 292 "/>
<path id="5" d="M497 313 C497 313 470.5823 320 451 320 C444.1888 320 441.9582 317.1117 435 313 C431.7015 311.0509 429 307 429 307 "/>
<path id="6" d="M427 293 C427 293 430.4161 304.9597 428 311 C423.2501 322.8747 417.5941 324.2494 409 338 C405.2971 343.9247 403.0783 345.2825 403 351 C402.6412 377.1925 403.7905 383.0639 408 411 C408.9634 417.3935 412.1464 417.8215 414 424 C414.8767 426.9223 414.0962 430.9738 414 431 C413.5005 431.1362 407.0239 429.9742 403 427 C396.7698 422.3951 391.4952 414.2476 391 414 C390.9732 413.9866 390.4069 418.4173 389 420 C387.4926 421.6958 383.0044 423.0083 383 423 C382.5763 422.2056 383.6223 412.1516 381 405 C378.8583 399.1591 377.0801 398.2495 372 393 C362.3541 383.0326 360.0875 384.0276 351 374 C346.1613 368.6608 345.1367 367.41 343 361 C340.5906 353.7717 341 344 341 344 "/>
<path id="7" d="M349 361 L352 370 "/>
<path id="8" d="M354 376 C354 376 328.8432 381.8857 304 384 C282.4317 385.8356 281.5548 385.4969 260 384 C246.1132 383.0356 245.7226 382.3326 232 379 C210.9028 373.8764 207.7137 374.0855 190 367 C185.7608 365.3043 184.8766 363.3994 182 359 C176.8072 351.058 173 341 173 341 "/>
<path id="9" d="M181 306 C181 306 182.7022 319.2194 181 330 C179.9399 336.7142 178.4587 337.3296 175 344 C171.5338 350.6848 171.8903 352.1097 167 357 C158.8495 365.1505 151.9836 366.0197 147 372 C145.5836 373.6997 145.7436 377.3354 147 381 C151.204 393.2618 154.4371 394.8324 159 407 C159.8976 409.3936 159.36 412.73 159 413 C158.36 413.48 152.4265 414.1887 151 413 C146.988 409.6567 141.1874 398.1093 141 398 C140.9734 397.9845 140.37 404.4778 139 406 C137.8397 407.2892 132.1105 408.1935 132 408 C130.0576 404.6008 128.7958 391.91 123 378 C119.1218 368.6923 113.1001 366.9674 112 360 C110.9292 353.2184 118.6687 345.5196 117 340 C114.4329 331.5088 107.0228 328.8856 99 317 C93.7332 309.1974 93.0255 308.7207 90 300 C84.7713 284.9289 84.2512 283.7587 82 268 C80.3698 256.5885 80.7738 255.3426 82 244 C82.6863 237.6517 86.0057 230.9965 86 231 C85.9859 231.0087 78.0301 244.0987 69 252 C63.6075 256.7185 61.1431 256.9999 54 259 C49.7883 260.1793 45.8125 260.2083 44 259 C41.8854 257.5903 39.6781 253.5775 39 249 C37.936 241.8181 39.7222 233.1114 40 232 C40.004 231.9839 42.5243 232.3341 43 233 C44.1243 234.5741 44.5185 235.9906 45 239 C46.4719 248.1995 48.6094 250.959 47 258 C45.4129 264.9434 42.8016 268.82 37 274 C30.7803 279.5533 19 283 19 283 "/>
<path id="10" d="M182 360 C182 360 185.0447 369.1829 190 375 C195.6284 381.6072 197.1609 382.0353 205 387 C211.7407 391.2691 216.4272 391.8563 220 394 C220.2233 394.134 220.0481 395.9904 220 396 C218.7981 396.2404 211.2019 396.2404 210 396 C209.9519 395.9904 210.1985 394.1045 210 394 C205.6226 391.6961 191.8673 385.9544 191 386 C190.9779 386.0012 191.7952 391.2888 191 395 C190.5014 397.3268 189.2476 399.1089 188 400 C187.2406 400.5424 185.1638 400.7205 184 400 C176.7121 395.4884 173.9526 394.2101 167 387 C161.171 380.9551 160.9803 379.6763 157 372 C154.2248 366.6478 153 360 153 360 "/>
<path id="11" d="M363 384 C363 384 363.2492 410.6262 363 411 C362.9908 411.0138 352.5531 402 351 402 C350.094 402 347.5959 407.7037 344 411 C342.3887 412.477 339.0382 413.0676 339 413 C337.635 410.585 331 388 331 388 "/>
<path id="12" d="M452 248 C452 248 454.7906 247.7383 455 248 C455.506 248.6325 456.3493 252.6507 456 253 C454.7773 254.2227 446.2448 257.0816 446 257 C445.9623 256.9874 446.6124 250.4651 447 250 C447.1154 249.8615 451.0028 250.9931 451 251 C450.9704 251.0739 445.1952 255.0558 445 255 C444.8909 254.9688 443.731 249.2354 444 249 C444.625 248.4531 452.9629 247.9778 453 248 C453.0071 248.0042 449 252 449 252 "/>
</g>
</g>
</svg>
