<?xml version="1.0" encoding="utf-8"?>
<!DOCTYPE svg PUBLIC "-//W3C//DTD SVG 1.1//EN" "http://www.w3.org/Graphics/SVG/1.1/DTD/svg11.dtd">
<svg viewBox="0 0 800 800" preserveAspectRatio="xMinYMin meet" xmlns="http://www.w3.org/2000/svg" version="1.1">
<g fill="none" stroke="black" stroke-linecap="round" stroke-linejoin="round" stroke-width="1.9921">
<g transform="translate(87.52,192.182) scale(1.5059) translate(-148,-109)">
<path id="0" d="M200 159 C200 159 190.9298 158.6423 186 161 C181.6148 163.0973 180.5145 165.314 177 170 C174.9359 172.7521 174.5984 173.5094 174 177 C171.7293 190.2458 173.7001 195.0995 171 205 C170.3782 207.2799 167.7964 209.2374 165 210 C158.8203 211.6854 153.4248 210.2192 149 211 C148.6299 211.0653 148.0252 212.091 148 213 C147.5766 228.2409 146.6319 233.6615 148 247 C148.2177 249.1225 151.1436 251.9341 152 252 C153.6978 252.1306 160.8165 249.0643 161 248 C161.8035 243.3397 160.2287 233.9776 157 223 C155.6722 218.4856 151 214 151 214 "/>
<path id="1" d="M156 251 C156 251 162.627 252.0289 167 251 C169.7594 250.3507 170.4696 249.3004 173 247 C175.7453 244.5043 176.75 243.9167 178 241 C179.2939 237.981 179 233 179 233 "/>
<path id="2" d="M157 251 C157 251 161.7461 250.4732 164 252 C175.0232 259.4673 175.9768 264.2012 188 272 C193.0712 275.2894 194.6439 274.8946 201 276 C205.641 276.8071 206.9246 277.1644 211 276 C216.1816 274.5195 217.0713 273.3885 222 270 C224.7495 268.1097 225.821 267.5265 227 265 C228.7578 261.2332 229 255 229 255 "/>
<path id="3" d="M222 268 C222 268 231.2183 269.2832 237 273 C243.7793 277.3581 245.3322 279.1211 250 286 C254.0796 292.012 256 301 256 301 "/>
<path id="4" d="M265 275 C265 275 263.3325 294.2027 258 311 C253.6574 324.6792 253.0905 326.0401 245 338 C230.687 359.1584 212.1468 377.6787 212 379 C211.9971 379.0263 229.3496 383.8193 240 383 C244.4377 382.6586 250.2616 378.3076 251 376 C252.1961 372.2622 245.6543 362.7647 248 358 C257.1185 339.4781 269.0792 335.2931 283 311 C293.6225 292.4627 299 269 299 269 "/>
<path id="5" d="M280 317 C280 317 282.3153 315.6577 283 316 C292.5858 320.7929 296.1735 326.3334 310 332 C325.5286 338.3642 327.4092 339.1039 344 341 C360.9967 342.9425 366.0893 344.0773 380 340 C390.2298 337.0016 402 324 402 324 "/>
<path id="6" d="M400 284 C400 284 396.4533 308.5394 400 326 C402.0808 336.2438 408.5036 337.9696 413 348 C414.1311 350.5231 414.1982 352.7634 413 355 C408.0301 364.2771 405.6074 368.6852 398 376 C394.7908 379.0858 387.0776 379.8253 387 380 C386.9835 380.0371 390.8247 384.3097 394 385 C400.2824 386.3657 402.436 386.1637 410 385 C421.3096 383.2601 431.5075 381.7902 433 379 C436.0172 373.3592 430.3579 359.3937 433 342 C436.1293 321.3989 441.7067 320.3585 445 300 C446.9365 288.0288 445.8834 286.3765 444 274 C442.4939 264.1029 438 254 438 254 "/>
<path id="7" d="M212 174 C212 174 207.0456 170.7989 205 167 C200.675 158.9679 199.4538 157.3689 198 148 C195.1548 129.6644 195.697 109.1948 196 109 C196.2167 108.8607 214.6224 120.0015 226 130 C228.3552 132.0697 228.4162 134.0303 229 138 C230.8185 150.3655 231 164 231 164 "/>
<path id="8" d="M183 168 C183 168 176.6758 159.6007 174 151 C170.0059 138.1617 168.7078 123.207 169 123 C169.4178 122.704 188.9472 128.6249 198 134 C199.9746 135.1724 201 142 201 142 "/>
<path id="9" d="M201 182 C201 182 199.8387 179.3594 199 179 C197.7237 178.453 195.5968 178.4012 194 179 C192.6826 179.494 191.3184 180.647 191 182 C189.7771 187.1972 189.1982 190.9219 190 196 C190.3262 198.066 192.3387 200.5114 194 201 C197.9479 202.1611 203.1009 202.4365 207 201 C209.5731 200.052 212.0119 197.1291 213 194 C214.3331 189.7785 214.418 185.8489 213 182 C211.8681 178.9276 209.0599 176.53 206 175 C203.9601 173.98 201.0399 173.98 199 175 C195.9401 176.53 192 182 192 182 "/>
<path id="10" d="M202 188 C202 188 198.9978 187.0022 199 187 C199.0065 186.9935 203.7931 185.8345 204 186 C204.197 186.1576 204 191 204 191 "/>
<path id="11" d="M231 151 C231 151 240.0445 150.8598 247 153 C251.959 154.5259 253.0453 155.6103 257 159 C259.3877 161.0466 260.3174 162.133 261 165 C262.4962 171.2839 261.9712 179.9904 262 180 C262.0192 180.0064 265.4411 172.8122 270 168 C273.8358 163.9511 274.7579 162.771 280 161 C309.7112 150.9624 312.6667 148.9368 344 143 C358.4092 140.2698 359.7906 141.8939 375 143 C386.9177 143.8667 388.5436 142.8175 399 147 C419.3409 155.1363 422.5457 156.8149 440 169 C446.9595 173.8585 446.9524 176.0993 452 184 C458.2415 193.7693 459.5273 194.2512 463 205 C469.6799 225.676 470.1942 227.4887 473 249 C474.5402 260.8085 474.823 263.4138 472 274 C469.4377 283.6086 467.1933 285.0197 461 294 C457.5859 298.9504 456.686 299.4855 452 303 C449.2479 305.0641 445 306 445 306 "/>
<path id="12" d="M464 206 C464 206 464.6448 215.2764 468 221 C472.1824 228.1346 474.1641 229.0963 481 235 C484.6285 238.1337 485.6934 239.1925 490 240 C500.0488 241.8841 503.8399 242.6165 513 241 C517.9106 240.1334 522.626 237.0915 524 234 C526.3627 228.6838 525.6448 221.7374 525 214 C524.8624 212.3489 523.2368 210.3805 522 210 C519.0768 209.1005 515.335 208.703 512 210 C508.4241 211.3906 505.8161 213.5494 504 217 C501.8855 221.0176 500.9374 225.8121 502 229 C503.1251 232.3754 506.4491 234.6627 511 238 C513.1782 239.5974 514.104 239.819 517 240 C529.2934 240.7683 533.3586 242.6514 543 240 C549.3133 238.2639 551.7989 234.9813 557 229 C560.8643 224.5561 562.8396 217.4813 563 217 C563.0076 216.9771 561 217 561 217 "/>
<path id="13" d="M156 229 L156 241 "/>
<path id="14" d="M154 230 L151 242 "/>
</g>
</g>
</svg>
