<?xml version="1.0" encoding="utf-8"?>
<!DOCTYPE svg PUBLIC "-//W3C//DTD SVG 1.1//EN" "http://www.w3.org/Graphics/SVG/1.1/DTD/svg11.dtd">
<svg viewBox="0 0 800 800" preserveAspectRatio="xMinYMin meet" xmlns="http://www.w3.org/2000/svg" version="1.1">
<g fill="none" stroke="black" stroke-linecap="round" stroke-linejoin="round" stroke-width="2.5538">
<g transform="translate(87.52,249.0463) scale(1.1747) translate(-35,-98)">
<path id="0" d="M387 103 C387 103 395.2913 98.5055 403 98 C424.2145 96.6089 426.9888 96.1776 448 99 C458.7418 100.4429 460.5882 101.5882 470 107 C479.4207 112.4169 481.6868 113.7275 488 122 C494.8971 131.0376 496.7267 133.8085 499 145 C502.7301 163.3638 499.0174 166.5708 501 186 C501.3997 189.9166 501.8996 190.4993 504 194 C510.6442 205.0737 510.5862 206.076 519 216 C529.7478 228.6769 530.2322 229.6261 543 240 C553.6215 248.63 566.3336 253.5561 567 255 C567.1396 255.3024 555.4352 265.1296 555 266 C554.9872 266.0256 558.8691 267.3037 560 269 C561.9641 271.9462 563.5753 276.044 563 278 C562.2663 280.4946 558.5176 284.5189 555 286 C551.5964 287.4331 546.2105 287.6339 544 286 C539.0635 282.3513 538.4146 276.0561 532 269 C529.1792 265.8972 528.1211 265.4211 524 264 C514.3696 260.6792 513.1847 259.4774 503 259 C482.4207 258.0353 478.4664 257.7024 460 261 C453.8547 262.0974 453.6419 266.2516 447 269 C439.8105 271.975 437.1623 269.3658 431 273 C419.5189 279.7709 418.2438 287.1342 408 292 C402.5622 294.5829 396.367 294.4535 391 292 C383.0082 288.3466 381.0101 284.5625 373 276 C366.8311 269.4057 366.1269 268.7378 362 261 C358.506 254.4488 357.1028 253.0944 357 246 C356.1612 188.1261 356.6227 179.5703 360 123 C360.3098 117.8111 361.5597 115.0717 365 112 C373.2401 104.6428 388 98 388 98 "/>
<path id="1" d="M360 118 C360 118 352.0825 119.1183 345 118 C333.6928 116.2147 333.2218 112.4106 322 112 C253.8557 109.5069 251.0721 110.1462 181 112 C157.0799 112.6328 155.0533 112.5204 133 117 C125.0701 118.6108 123.6276 119.8636 117 125 C104.5136 134.6769 101.6019 135.5272 93 148 C82.9882 162.5172 81.5291 166.299 77 183 C74.2369 193.189 76.1079 195.1796 77 207 C78.0892 221.4317 78.1631 221.8154 81 236 C83.1134 246.5671 83.4914 246.7665 87 257 C89.4434 264.1267 89.0326 264.8569 93 271 C104.1301 288.2337 117.5758 304.2408 118 305 C118.0297 305.0531 112 305 112 305 C112 305 117.9989 306.0005 118 306 C118.0006 305.9997 113.9986 304.0014 114 304 C114.0042 303.9958 117.474 303.158 120 304 C139.9274 310.6425 140.8966 314.2682 162 320 C180.5006 325.0249 181.6154 324.2896 201 326 C215.2212 327.2548 215.6869 327.0372 230 326 C249.921 324.5564 250.3215 324.3353 270 321 C279.5616 319.3794 280.0005 319.2725 289 316 C296.1524 313.3991 296.0984 310.6788 303 309 C313.3226 306.4891 314.9393 309.118 326 307 C337.9867 304.7047 339.8114 305.3066 350 300 C362.3 293.5938 371.1231 283.6598 374 282 C374.0225 281.987 376 285 376 285 "/>
<path id="2" d="M73 187 C73 187 63.2005 197.5176 57 209 C50.1317 221.7191 50.0127 222.7731 46 237 C39.1489 261.2901 38.6192 262.3234 35 287 C33.2469 298.9526 35 312 35 312 "/>
<path id="3" d="M192 327 C192 327 187.0345 335.6782 181 342 C177.0846 346.1019 171.0004 348.9995 171 349 C170.9998 349.0003 178 346 178 346 "/>
<path id="4" d="M193 330 C193 330 197.8201 342.0578 204 348 C208.7441 352.5616 218.3505 354.7835 219 355 C219.025 355.0083 219 353 219 353 "/>
<path id="5" d="M270 323 C270 323 270.171 330.2007 268 334 C265.1904 338.9167 258 344 258 344 "/>
<path id="6" d="M271 323 C271 323 279.2273 336.1348 288 344 C292.0359 347.6184 294.254 347.4039 300 349 C302.575 349.7153 305.9048 349.0714 306 349 C306.004 348.997 304 346 304 346 "/>
<path id="7" d="M429 182 C429 182 443.1758 178.0231 457 176 C463.2232 175.0893 470 176 470 176 "/>
</g>
</g>
</svg>
