<?xml version="1.0" encoding="utf-8"?>
<!DOCTYPE svg PUBLIC "-//W3C//DTD SVG 1.1//EN" "http://www.w3.org/Graphics/SVG/1.1/DTD/svg11.dtd">
<svg viewBox="0 0 800 800" preserveAspectRatio="xMinYMin meet" xmlns="http://www.w3.org/2000/svg" version="1.1">
<g fill="none" stroke="black" stroke-linecap="round" stroke-linejoin="round" stroke-width="1.1185">
<g transform="translate(87.52,210.9027) scale(2.6822) translate(-201,-197.9167)">
<path id="0" d="M244 218.9167 C244 218.9167 241.7143 203.1666 243 200.9167 C243.7693 199.5704 254.241 197.367 256 197.9167 C256.802 198.1673 258.8374 202.3399 259 205.9167 C259.2779 212.0312 257 219.9167 257 219.9167 "/>
<path id="1" d="M265 223.9167 C265 223.9167 263.9338 216.7144 265 211.9167 C265.6121 209.1624 268.3889 206.1458 269 205.9167 C269.2811 205.8113 271.0935 208.44 273 208.9167 C277.9168 210.1459 284.6554 209.1412 285 209.9167 C286.4148 213.1001 286.1536 230.5334 285 235.9167 C284.8542 236.597 279 237.9167 279 237.9167 "/>
<path id="2" d="M245 222.9167 C245 222.9167 240.1684 221.943 239 222.9167 C234.2292 226.8924 232.4398 232.4769 227 237.9167 C225.9926 238.924 223.4473 238.144 223 238.9167 C220.0249 244.0555 220.7678 250.6318 216 256.9167 C211.4226 262.9505 204.806 263.6032 201 267.9167 C200.0577 268.9846 200.2097 271.5458 201 273.9167 C202.405 278.1316 202.9456 279.4259 206 282.9167 C209.397 286.7989 211.5348 288.4316 215 289.9167 C216.3201 290.4824 219.9117 289.2874 220 288.9167 C220.8059 285.5318 221.8679 274.3128 220 268.9167 C219.1487 266.4573 211 262.9167 211 262.9167 "/>
<path id="3" d="M206 272.9167 L206 274.9167 "/>
<path id="4" d="M212 273.9167 C212 273.9167 214.6653 276.1316 215 277.9167 C215.8803 282.6116 215 289.9165 215 289.9167 C215 289.9168 214 282.9167 214 282.9167 "/>
<path id="5" d="M220 290.9167 C220 290.9167 223.5142 291.4024 224 290.9167 C225.2144 289.7023 224.945 286.5321 227 283.9167 C229.9177 280.2032 234.962 276.8929 235 276.9167 C235.0786 276.9658 236.0322 285.8202 235 288.9167 C234.5986 290.1209 229.9886 291.915 230 291.9167 C230.0647 291.9259 248.2336 292.7488 256 291.9167 C256.6934 291.8424 257.0571 289.2938 258 288.9167 C260.4752 287.9266 266 287.9167 266 287.9167 "/>
<path id="6" d="M260 242.9167 C260 242.9167 251.0214 242.289 246 242.9167 C245.193 243.0175 243.9847 244.8708 244 244.9167 C244.0229 244.9854 246.8901 245.6418 247 245.9167 C247.1799 246.3664 246 249.9167 246 249.9167 "/>
<path id="7" d="M287 219.9167 C287 219.9167 294.1707 214.589 301 211.9167 C304.744 210.4516 306.048 212.2847 310 210.9167 C318.3594 208.023 318.9497 203.7495 327 202.9167 C358.6563 199.6419 374.7335 197.4634 397 201.9167 C402.9335 203.1034 407.2291 210.8772 412 219.9167 C415.7021 226.9313 415.372 229.1241 416 237.9167 C416.8218 249.4226 417.786 251.3696 415 261.9167 C411.2759 276.015 402 290.9167 402 290.9167 "/>
<path id="8" d="M416 227.9167 C416 227.9167 423.7335 226.8278 427 227.9167 C428.6828 228.4776 430.8171 230.9963 431 232.9167 C431.5374 238.5589 428.7285 247.4689 429 248.9167 C429.0163 249.0035 433.8244 248.6358 434 248.9167 C434.4494 249.6358 434.8866 253.8136 434 256.9167 C433.2084 259.6873 430 262.9167 430 262.9167 "/>
<path id="9" d="M269 290.9167 C269 290.9167 271.8364 292.1532 272 292.9167 C272.7428 296.3831 272.3405 298.9587 272 304.9167 C271.3442 316.3929 272.2197 318.7209 270 327.9167 C269.3188 330.7389 266.218 331.2371 265 333.9167 C264.2639 335.5362 265 338.9167 265 338.9167 "/>
<path id="10" d="M297 291.9167 C297 291.9167 295.0306 306.1607 291 317.9167 C289.4116 322.5496 288.2608 323.9067 285 326.9167 C282.7735 328.9719 279.7555 328.3806 278 329.9167 C277.1792 330.6348 277.6862 333.4592 277 333.9167 C275.2533 335.0812 269 335.9167 269 335.9167 "/>
<path id="11" d="M298 300.9167 C298 300.9167 315.739 301.6466 332 299.9167 C338.4009 299.2357 338.7241 298.3305 345 295.9167 C351.608 293.3751 352.6922 293.5483 358 289.9167 C361.348 287.6259 360.7959 285.2053 364 282.9167 C366.9544 280.8064 370.4526 281.4641 372 279.9167 C372.9847 278.9319 372.4785 274.6989 373 273.9167 C373.1564 273.682 376 273.9167 376 273.9167 "/>
<path id="12" d="M375 276.9167 C375 276.9167 374.0272 311.107 375 317.9167 C375.0441 318.2251 379.1568 317.9951 381 318.9167 C381.9925 319.4129 382.5336 321.8584 383 321.9167 C384.1291 322.0578 387.8808 321.0359 389 319.9167 C389.8394 319.0773 388.9807 316.4456 390 314.9167 C391.319 312.9381 394.2799 312.946 395 310.9167 C398.6326 300.6793 401 283.9167 401 283.9167 "/>
<path id="13" d="M255 291.9167 C255 291.9167 254.94 302.1568 253 309.9167 C252.266 312.8529 250.0555 312.9611 249 315.9167 C247.8125 319.2416 247.781 323.7889 248 323.9167 C248.7416 324.3492 259.3104 323.5665 261 322.9167 C261.1942 322.842 260.282 320.1317 261 318.9167 C265.6097 311.1157 269.3903 308.7177 274 300.9167 C274.718 299.7016 274 296.9167 274 296.9167 "/>
<path id="14" d="M360 288.9167 C360 288.9167 355.7469 303.9042 356 304.9167 C356.0338 305.0517 362.7108 305.4897 364 304.9167 C364.4476 304.7177 364.2803 301.4565 365 300.9167 C366.5294 299.7696 369.8396 300.537 372 298.9167 C374.6052 296.9628 377 291.9167 377 291.9167 "/>
</g>
</g>
</svg>
