<?xml version="1.0" encoding="utf-8"?>
<!DOCTYPE svg PUBLIC "-//W3C//DTD SVG 1.1//EN" "http://www.w3.org/Graphics/SVG/1.1/DTD/svg11.dtd">
<svg viewBox="0 0 800 800" preserveAspectRatio="xMinYMin meet" xmlns="http://www.w3.org/2000/svg" version="1.1">
<g fill="none" stroke="black" stroke-linecap="round" stroke-linejoin="round" stroke-width="1.4017">
<g transform="translate(87.52,178.4816) scale(2.1403) translate(-134,-86)">
<path id="0" d="M226 99 C226 99 226.6019 105.2039 229 110 C234.2757 120.5514 234.5449 123.5449 242 131 C248.1395 137.1395 251.7264 139.6936 260 141 C276.4138 143.5916 281.9482 143.045 299 140 C307.0984 138.5539 310.7766 136.5836 316 131 C322.969 123.5504 324.9427 119.5828 328 109 C330.7958 99.3222 327.7606 86.7746 329 86 C331.3478 84.5326 346.0394 84.6823 360 89 C392.5102 99.0547 419.104 106.726 426 116 C430.0837 121.4919 419.4325 164.4333 418 167 C417.976 167.043 410.2607 161.9739 402 159 C373.1924 148.6293 346.5812 140.1214 343 140 C342.9654 139.9988 341.7608 148.8767 343 157 C346.1615 177.7255 348.5997 177.9184 352 199 C356.0667 224.2134 356.3779 224.5877 358 250 C359.3574 271.2663 358.0776 291.9399 358 293 C357.9968 293.0439 356.292 291.055 355 291 C336.5731 290.2159 332.8132 292.2707 311 291 C281.5772 289.286 281.4231 286.6975 252 285 C229.6896 283.7129 207.6166 286.812 207 285 C201.1467 267.7985 203.4877 148.6941 203 141 C202.9943 140.9102 199.7414 141.5074 198 143 C193.4427 146.9063 193.0906 147.7407 189 153 C182.6636 161.1467 178.0429 169.635 177 170 C176.7386 170.0915 173.6847 163.7042 169 160 C153.1034 147.4306 144.1248 144.0999 134 136 C133.4022 135.5218 133.5973 132.2237 134 132 C139.9995 128.6669 148.2677 127.6693 161 121 C189.8698 105.8777 192.4932 100.9496 218 88 C220.7667 86.5954 225.3835 87.3835 226 88 C226.7707 88.7707 227 97 227 97 "/>
</g>
</g>
</svg>
