<?xml version="1.0" encoding="utf-8"?>
<!DOCTYPE svg PUBLIC "-//W3C//DTD SVG 1.1//EN" "http://www.w3.org/Graphics/SVG/1.1/DTD/svg11.dtd">
<svg viewBox="0 0 800 800" preserveAspectRatio="xMinYMin meet" xmlns="http://www.w3.org/2000/svg" version="1.1">
<g fill="none" stroke="black" stroke-linecap="round" stroke-linejoin="round" stroke-width="2.1169">
<g transform="translate(87.52,148.4571) scale(1.4171) translate(-105,-94)">
<path id="0" d="M256 99 C256 99 258.3032 112.5399 262 124 C263.0006 127.1018 263.5918 128.0433 266 130 C270.7995 133.8996 272.4472 134.8406 278 137 C280.263 137.8801 281.5474 136.1825 284 137 C291.0854 139.3618 291.8377 142.5675 299 144 C307.7345 145.7469 311.9522 146.5966 319 144 C327.1606 140.9934 328.8931 137.4583 337 130 C341.0114 126.3095 342.9382 125.2472 344 121 C346.7162 110.1351 346 94 346 94 "/>
<path id="1" d="M257 100 C257 100 253.853 99.2198 252 100 C245.5634 102.7101 245.1824 104.8876 238 108 C230.5298 111.2371 229.2659 109.4383 222 113 C204.3564 121.6488 205.0286 124.8442 187 133 C163.6116 143.5805 161.7911 140.8452 138 151 C121.1036 158.2119 105 168 105 168 "/>
<path id="2" d="M347 96 C347 96 351.5531 94.2532 355 95 C379.3717 100.2805 382.0678 101.2342 407 109 C411.6703 110.4547 411.3645 112.3445 416 114 C424.9334 117.1905 425.6664 117.4444 435 119 C440.1766 119.8628 441.1537 117.7077 446 119 C462.3893 123.3705 462.7711 126.3686 480 131 C508.9238 138.7752 516.5179 137.8356 539 144 C540.4721 144.4037 542 148 542 148 "/>
<path id="3" d="M130 235 C130 235 148.8279 230.8688 166 224 C183.3421 217.0632 200 207 200 207 "/>
<path id="4" d="M439 192 C439 192 463.9555 198.2299 489 202 C510.2015 205.1916 532 206 532 206 "/>
<path id="5" d="M205 209 L205 421 "/>
<path id="6" d="M441 194 L444 413 "/>
<path id="7" d="M206 424 C206 424 210.5299 423.055 212 424 C215.3776 426.1713 215.5808 429.633 220 433 C225.4531 437.1548 226.4934 437.6576 233 440 C238.3328 441.9198 239.0316 441.7287 245 442 C271.6784 443.2127 272.7386 440.7021 299 443 C311.8788 444.1269 312.1901 448.1166 325 449 C354.5832 451.0402 358.7609 452.7571 386 449 C398.3492 447.2967 400.6101 444.2228 412 437 C420.0919 431.8685 419.085 429.0045 427 423 C433.1999 418.2966 441 415 441 415 "/>
<path id="8" d="M105 169 C105 169 107.5427 172.0277 108 175 C112.2515 202.635 110.5713 207.8305 115 234 C115.4913 236.9033 118.077 237.231 119 240 C119.7552 242.2656 119 246 119 246 C119.16 246 127 240 127 240 "/>
<path id="9" d="M546 148 L531 206 "/>
<path id="10" d="M250 106 C250 106 253.9354 108.895 255 112 C259.3333 124.6387 257.0753 136.9136 262 141 C269.6569 147.3536 282.3406 147.6104 302 151 C310.4812 152.4623 313.2923 153.4959 320 151 C331.5348 146.708 340.3402 142.489 345 135 C349.5581 127.6745 345.5291 119.7664 348 106 C348.8966 101.0049 352 96 352 96 "/>
<path id="11" d="M115 167 C115 167 124.5284 183.2621 128 199 C131.6283 215.4481 130 235 130 235 "/>
<path id="12" d="M537 145 C537 145 537.8914 151.9564 536 157 C530.9182 170.5515 527.1634 170.944 522 185 C518.4994 194.5293 518 206 518 206 "/>
</g>
</g>
</svg>
