<?xml version="1.0" encoding="utf-8"?>
<!DOCTYPE svg PUBLIC "-//W3C//DTD SVG 1.1//EN" "http://www.w3.org/Graphics/SVG/1.1/DTD/svg11.dtd">
<svg viewBox="0 0 800 800" preserveAspectRatio="xMinYMin meet" xmlns="http://www.w3.org/2000/svg" version="1.1">
<g fill="none" stroke="black" stroke-linecap="round" stroke-linejoin="round" stroke-width="1.2577">
<g transform="translate(130.4562,87.52) scale(2.3853) translate(-192,-111.1333)">
<path id="0" d="M249 145.1333 C249 145.1333 241.7614 144.0858 236 145.1333 C231.689 145.9171 229.6453 146.2764 227 149.1333 C218.8893 157.8929 219.7709 161.5567 211 172.1333 C203.0372 181.7355 193 190.1333 193 190.1333 "/>
<path id="1" d="M353 148.1333 C353 148.1333 361.7368 146.4252 368 148.1333 C376.5408 150.4626 378.3796 151.5912 386 157.1333 C394.0437 162.9833 397.3916 165.6382 401 172.1333 C402.8557 175.4737 401 184.1333 401 184.1333 "/>
<path id="2" d="M192 192.1333 C192 192.1333 191.559 196.4788 193 199.1333 C200.216 212.4259 201.8801 213.6706 211 227.1333 C212.1418 228.8189 212.9776 229.8412 214 230.1333 C214.9846 230.4146 217.7625 229.6559 218 229.1333 C218.8811 227.1948 220.4573 221.3509 219 219.1333 C212.6405 209.4559 204.8537 205.5636 195 194.1333 C193.9514 192.917 194 190.1333 194 190.1333 "/>
<path id="3" d="M218 229.1333 L247 209.1333 "/>
<path id="4" d="M247 210.1333 C247 210.1333 248.0077 215.9939 247 221.1333 C243.1559 240.7382 238.6535 241.4573 237 261.1333 C233.8016 299.194 240.1042 302.5379 237 340.1333 C235.792 354.7637 232.7235 357.1437 228 370.1333 C227.4192 371.7304 225.8071 373.0324 225 373.1333 C223.8641 373.2753 220.6195 372.0006 220 371.1333 C219.444 370.355 219.9797 366.134 220 366.1333 C239.2297 365.509 297.5404 364.2025 374 366.1333 C395.9083 366.6866 418 371.1333 418 371.1333 "/>
<path id="5" d="M399 171.1333 C399 171.1333 404.4957 174.3769 407 178.1333 C409.775 182.2959 410.0714 183.7938 411 189.1333 C411.9528 194.6118 412.418 197.2844 411 201.1333 C409.8681 204.2057 407.3301 206.4683 404 208.1333 C400.9871 209.6398 397.8358 209.606 395 209.1333 C393.8764 208.9461 392.1949 207.3679 392 206.1333 C391.1021 200.4467 390.6362 196.6794 392 190.1333 C392.7707 186.4341 395.5239 186.0697 397 182.1333 C398.2519 178.7949 398 174.1333 398 174.1333 "/>
<path id="6" d="M344 181.1333 C344 181.1333 348.2025 185.6572 353 188.1333 C363.1349 193.3643 365.2246 191.7726 375 197.1333 C379.8584 199.7976 379.7118 202.9892 384 205.1333 C387.1337 206.7002 393 206.1333 393 206.1333 "/>
<path id="7" d="M356 190.1333 C356 190.1333 354.7382 192.6097 355 193.1333 C355.7854 194.7042 358.8558 195.5588 360 198.1333 C362.2709 203.2428 361.9804 204.6082 363 211.1333 C364.4619 220.4896 364.7744 220.6583 365 230.1333 C366.2676 283.3713 361.5551 288.2393 366 337.1333 C367.0792 349.004 370.495 352.8001 377 362.1333 C380.2585 366.8086 383.6297 367.4482 389 370.1333 C390.3426 370.8046 392.9302 370.273 393 370.1333 C393.192 369.7493 392 364.1333 392 364.1333 "/>
<path id="8" d="M249 146.1333 C249 146.1333 257.4055 147.0754 264 146.1333 C266.8262 145.7296 269.0575 144.39 270 143.1333 C270.6283 142.2956 270.1131 138.1571 270 138.1333 C267.9812 137.7083 253.9799 140.1266 251 139.1333 C250.255 138.885 249.2643 131.2655 249 131.1333 C248.8238 131.0452 242.986 135.1311 243 135.1333 C243.065 135.1436 264.6522 134.5351 268 134.1333 C268.032 134.1295 267.8644 132.2011 268 132.1333 C268.8813 131.6927 273.2178 131.6548 274 131.1333 C274.2347 130.9769 273.82 128.2683 274 128.1333 C274.32 127.8933 278 128.1333 278 128.1333 C278 128.1333 270.1215 128.8063 269 128.1333 C268.4268 127.7894 267.8612 122.2325 268 122.1333 C268.3079 121.9134 275.125 121.9302 276 123.1333 C279.4418 127.8658 283.9999 144.1332 284 144.1333 C284 144.1334 283.37 137.6556 282 136.1333 C280.8397 134.8441 275.3776 134.9964 275 134.1333 C273.9558 131.7466 273.4552 123.9954 275 120.1333 C276.0152 117.5954 278.8783 116.0857 283 114.1333 C287.722 111.8966 288.597 111.7568 294 111.1333 C301.143 110.3091 302.4496 109.6542 309 111.1333 C316.6773 112.8669 317.0555 116.2009 325 118.1333 C334.6426 120.4788 343.6531 118.0925 346 120.1333 C347.8219 121.7176 348 138.1332 348 138.1333 C348 138.1333 347.8642 135.1915 348 135.1333 C348.7392 134.8165 353.9318 134.1319 355 135.1333 C358.5192 138.4326 360.4751 143.4752 364 150.1333 C364.3567 150.8071 364.0862 152.0988 364 152.1333 C363.4612 152.3488 361.049 152.7638 359 152.1333 C355.2172 150.9694 352.9536 150.0869 351 148.1333 C350.0232 147.1565 350.88 144.3653 350 143.1333 C349.252 142.0861 346 141.1333 346 141.1333 "/>
<path id="9" d="M278 126.1333 C278 126.1333 287.6759 129.7394 297 130.1333 C322.2732 131.2012 349 129.1333 349 129.1333 "/>
</g>
</g>
</svg>
