<?xml version="1.0" encoding="utf-8"?>
<!DOCTYPE svg PUBLIC "-//W3C//DTD SVG 1.1//EN" "http://www.w3.org/Graphics/SVG/1.1/DTD/svg11.dtd">
<svg viewBox="0 0 800 800" preserveAspectRatio="xMinYMin meet" xmlns="http://www.w3.org/2000/svg" version="1.1">
<g fill="none" stroke="black" stroke-linecap="round" stroke-linejoin="round" stroke-width="0.95526">
<g transform="translate(100.082,87.52) scale(3.1405) translate(-197,-148.1333)">
<path id="0" d="M254 154.1333 C254 154.1333 255.9125 160.3334 259 164.1333 C261.7444 167.5111 262.8725 168.5677 267 170.1333 C276.1969 173.6218 277.9027 174.4602 288 175.1333 C299.2964 175.8864 302.5569 176.5058 312 173.1333 C320.6516 170.0435 322.2655 166.7629 330 160.1333 C331.9336 158.4759 332.1615 155.1827 333 155.1333 C340.8463 154.6718 364 158.1333 364 158.1333 "/>
<path id="1" d="M254 155.1333 C254 155.1333 242.9733 157.0307 234 156.1333 C229.3105 155.6644 224 152.1333 224 152.1333 "/>
<path id="2" d="M225 153.1333 C225 153.1333 217.3656 154.0673 212 157.1333 C204.3277 161.5175 197.1178 168.9419 197 169.1333 C196.9817 169.1631 201.453 168.7849 204 170.1333 C208.8154 172.6827 209.9063 173.7667 214 178.1333 C216.9893 181.3219 217.6768 182.4285 219 186.1333 C219.8113 188.4049 219.3706 191.8157 219 192.1333 C218.4956 192.5657 214.6387 192.853 212 192.1333 C210.1837 191.638 209.3057 190.9138 208 189.1333 C204.2297 183.992 203.2346 182.9992 201 177.1333 C199.5707 173.3814 200 168.1333 200 168.1333 "/>
<path id="3" d="M365 160.1333 C365 160.1333 371.874 165.7258 377 172.1333 C381.6039 177.8882 385.0434 185.0961 385 185.1333 C384.708 185.3836 371.0911 182.9775 363 184.1333 C360.5145 184.4884 358.0969 186.7827 357 189.1333 C355.528 192.2876 355.2354 196.4574 356 199.1333 C356.4273 200.6287 358.7435 202.439 361 203.1333 C363.8972 204.0248 365.5193 204.0035 369 203.1333 C374.7649 201.6921 375.6031 201.1316 381 198.1333 C384.2057 196.3524 385.4574 195.5574 387 193.1333 C388.1609 191.309 388.5212 187.8779 388 187.1333 C387.0559 185.7846 380 183.1333 380 183.1333 "/>
<path id="4" d="M221 191.1333 L228 187.1333 "/>
<path id="5" d="M229 187.1333 C229 187.1333 234.3548 201.5845 237 216.1333 C240.2769 234.1566 240.0029 234.6868 241 253.1333 C241.9913 271.4727 243.4327 273.7127 241 290.1333 C239.8044 298.2039 233 307.1333 233 307.1333 "/>
<path id="6" d="M357 198.1333 C357 198.1333 352.6345 198.3493 350 197.1333 C347.0667 195.7795 344.1671 192.0498 344 192.1333 C343.5704 192.3481 340.2238 197.3886 340 202.1333 C337.8902 246.861 336.0049 254.7041 339 298.1333 C339.6438 307.4686 348 318.1333 348 318.1333 "/>
<path id="7" d="M235 306.1333 C235 306.1333 235.6819 309.1483 235 310.1333 C232.4034 313.8839 226 319.1333 226 319.1333 "/>
<path id="8" d="M228 328.1333 C228 328.1333 232.0771 319.353 237 315.1333 C240.9802 311.7217 243.3795 310.45 249 310.1333 C275.9746 308.6136 279.201 308.4885 308 311.1333 C327.3651 312.9118 333.7918 314.3303 347 319.1333 C349.4927 320.0398 350.8378 323.4144 352 327.1333 C352.9723 330.2446 352.7398 332.4209 352 335.1333 C351.6469 336.4279 350.6456 337.3853 349 338.1333 C340.6348 341.9357 339.5028 342.6898 330 345.1333 C322.4552 347.0734 321.9188 346.9612 314 347.1333 C299.2032 347.455 298.7278 347.5772 284 346.1333 C273.5322 345.1071 272.9263 345.2215 263 342.1333 C250.9021 338.3695 249.0658 337.6869 239 332.1333 C236.1661 330.5698 234 327.4246 234 326.1333 C234 324.4116 239 318.1333 239 318.1333 "/>
<path id="9" d="M259 160.1333 C259 160.1333 256.2666 158.1997 256 157.1333 C255.6623 155.7826 256.4832 152.2937 257 152.1333 C262.9226 150.2953 271.0706 149.032 285 148.1333 C301.7598 147.0521 302.4382 147.363 319 148.1333 C323.4293 148.3393 324.9625 148.3108 328 150.1333 C331.0375 151.9558 332.9491 154.4009 334 157.1333 C334.634 158.7818 334.0356 161.8019 333 163.1333 C331.8286 164.6394 327 166.1333 327 166.1333 "/>
</g>
</g>
</svg>
