<?xml version="1.0" encoding="utf-8"?>
<!DOCTYPE svg PUBLIC "-//W3C//DTD SVG 1.1//EN" "http://www.w3.org/Graphics/SVG/1.1/DTD/svg11.dtd">
<svg viewBox="0 0 800 800" preserveAspectRatio="xMinYMin meet" xmlns="http://www.w3.org/2000/svg" version="1.1">
<g fill="none" stroke="black" stroke-linecap="round" stroke-linejoin="round" stroke-width="1.5985">
<g transform="translate(87.52,161.6519) scale(1.8768) translate(-124.3611,-213.3056)">
<path id="0" d="M312.3611 358.3056 L312.3611 358.3056 "/>
<path id="1" d="M124.3611 267.3056 C124.3611 267.3056 143.3671 267.7575 160.3611 264.3056 C174.3016 261.4739 174.383 258.2993 188.3611 254.3056 C194.9619 252.4196 196.0614 254.3305 202.3611 252.3056 C209.3522 250.0584 216.3611 245.3056 216.3611 245.3056 "/>
<path id="2" d="M125.3611 268.3056 C125.3611 268.3056 129.319 272.593 131.3611 277.3056 C135.592 287.0691 136.8588 287.9771 138.3611 298.3056 C140.6909 314.3227 137.1391 329.3999 139.3611 332.3056 C140.583 333.9034 152.3219 330.7768 164.3611 332.3056 C183.1499 334.6914 200.1689 336.2023 202.3611 340.3056 C207.4373 349.8071 200.4452 373.8782 203.3611 405.3056 C204.8279 421.1138 209.4656 431.2399 211.3611 437.3056 C211.3955 437.4154 213.3128 437.1799 213.3611 437.3056 C214.2505 439.6178 215.4718 447.9933 216.3611 450.3056 C216.4094 450.4312 218.3631 450.2883 218.3611 450.3056 C218.2105 451.5859 214.2155 467.2293 214.3611 467.3056 C215.0099 467.6454 227.3617 465.3669 239.3611 461.3056 C259.5217 454.482 261.2125 449.1109 279.3611 445.3056 C288.3072 443.4298 290.427 447.9775 301.3611 448.3056 C339.9696 449.4638 340.5916 449.1049 379.3611 448.3056 C388.8255 448.1104 390.3495 448.0472 398.3611 446.3056 C400.2789 445.8886 401.8535 444.5745 402.3611 443.3056 C403.1335 441.3745 402.3611 436.3056 402.3611 436.3056 "/>
<path id="3" d="M217.3611 246.3056 C217.3611 246.3056 225.0785 234.3569 226.3611 234.3056 C228.4663 234.2213 234.0231 240.9171 242.3611 245.3056 C252.5923 250.6904 253.7749 252.6907 264.3611 254.3056 C281.1194 256.8619 283.1899 255.0627 301.3611 254.3056 C306.8043 254.0788 307.6551 254.2966 312.3611 252.3056 C319.8326 249.1445 323.2143 247.9132 327.3611 243.3056 C329.8861 240.5 329.8212 237.7042 330.3611 232.3056 C331.2689 223.2281 331.0052 213.5296 330.3611 213.3056 C325.9793 211.7814 306.4491 212.3087 284.3611 216.3056 C254.9872 221.6208 225.3611 232.3056 225.3611 232.3056 "/>
<path id="4" d="M331.3611 214.3056 C331.3611 214.3056 337.0789 214.4703 341.3611 216.3056 C346.8828 218.672 346.7501 221.7024 352.3611 223.3056 C372.8938 229.172 375.2788 230.712 397.3611 232.3056 C422.4456 234.1158 446.2393 227.551 449.3611 230.3056 C451.8761 232.5247 445.9155 255.9062 448.3611 277.3056 C449.6145 288.2726 457.5673 300.1612 457.3611 300.3056 C456.2691 301.07 433.5769 297.9517 418.3611 298.3056 C416.7714 298.3425 416.1774 300.8102 414.3611 301.3056 C411.7224 302.0252 407.7844 300.6177 407.3611 301.3056 C404.262 306.3417 399.9398 314.6763 398.3611 327.3056 C395.6839 348.723 399.3347 350.4264 398.3611 373.3056 C397.3416 397.2642 391.904 401.3758 394.3611 421.3056 C395.737 432.4658 407.3611 446.3056 407.3611 446.3056 "/>
<path id="5" d="M195.3611 252.3056 C195.3611 252.3056 203.3857 261.4534 207.3611 271.3056 C214.4373 288.8423 215.6283 290.6731 218.3611 309.3056 C220.9136 326.7088 221.1046 333.411 218.3611 346.3056 C217.4619 350.5321 208.3611 356.3056 208.3611 356.3056 "/>
<path id="6" d="M366.3611 227.3056 C366.3611 227.3056 362.955 237.9118 362.3611 248.3056 C360.9902 272.2964 359.847 273.8408 362.3611 297.3056 C364.2064 314.5279 366.2093 316.0577 371.3611 332.3056 C372.3503 335.4253 373.241 337.113 375.3611 338.3056 C379.2958 340.5188 381.4502 340.6488 387.3611 341.3056 C394.5501 342.1043 395.457 341.996 402.3611 341.3056 C404.7545 341.0662 405.8838 340.5718 407.3611 339.3056 C408.5555 338.2818 409.3611 335.3056 409.3611 335.3056 "/>
<path id="7" d="M220.3611 245.3056 C220.3611 245.3056 249.9339 264.8002 276.3611 273.3056 C288.9627 277.3612 293.9081 275.7765 307.3611 273.3056 C315.8899 271.739 317.5688 269.806 325.3611 264.3056 C333.8687 258.3002 335.5114 257.1051 341.3611 249.3056 C344.9901 244.4669 345.313 242.5942 346.3611 236.3056 C347.6491 228.5774 346.3611 219.3056 346.3611 219.3056 "/>
<path id="8" d="M238.3611 238.3056 C238.3611 238.3056 263.398 239.9313 286.3611 236.3056 C309.6745 232.6245 333.3611 223.3056 333.3611 223.3056 "/>
</g>
</g>
</svg>
