<?xml version="1.0" encoding="utf-8"?>
<!DOCTYPE svg PUBLIC "-//W3C//DTD SVG 1.1//EN" "http://www.w3.org/Graphics/SVG/1.1/DTD/svg11.dtd">
<svg viewBox="0 0 800 800" preserveAspectRatio="xMinYMin meet" xmlns="http://www.w3.org/2000/svg" version="1.1">
<g fill="none" stroke="black" stroke-linecap="round" stroke-linejoin="round" stroke-width="1.7185">
<g transform="translate(87.52,137.2724) scale(1.7457) translate(-133,-82)">
<path id="0" d="M238 84 C238 84 246.434 96.5598 256 104 C262.9053 109.3708 265.6986 110.9402 274 112 C286.545 113.6015 291.1399 113.5328 303 110 C311.6456 107.4247 313.1853 104.5644 321 98 C325.0521 94.5963 324.208 91.0224 328 89 C336.5909 84.4182 340.0274 82.4988 351 82 C381.5223 80.6126 385.9257 80.8036 416 85 C426.2315 86.4276 426.2889 90.6638 437 94 C456.401 100.0429 457.8359 97.9669 477 104 C484.1968 106.2657 488.6195 108.1094 491 111 C492.2847 112.56 491.834 116.3297 491 121 C489.4244 129.8236 488.9742 130.1835 486 139 C475.0077 171.5844 470.3246 190.7751 463 204 C462.3216 205.2249 455.0734 205.8561 450 204 C436.931 199.2187 422.0225 188.9545 422 189 C420.2121 192.6241 415.5731 234.1139 413 279 C411.0954 312.2248 414.9015 313.0403 413 346 C411.9401 364.3719 410.2185 381.4926 407 383 C396.929 387.7168 370.3074 384.5128 334 383 C298.5629 381.5235 298.4332 378.8649 263 377 C241.6355 375.8756 220.1885 377.9624 220 377 C215.6801 354.9458 225.2132 184.8019 225 183 C224.9757 182.7947 207.3533 202.5443 200 208 C199.2374 208.5658 194.9537 207.5189 194 206 C185.0394 191.7294 184.9123 181.4939 173 165 C167.4857 157.3648 161.8761 159.3504 155 152 C148.4807 145.0311 150.0747 141.2896 144 134 C140.9813 130.3775 136.8137 130.9679 135 128 C132.9147 124.5877 131.9399 117.1565 133 116 C136.5452 112.1325 144.8339 107.7894 157 104 C174.185 98.6473 177.1434 102.7053 194 97 C208.1624 92.2066 209.5367 85.4473 222 82 C229.1514 80.022 241 84 241 84 "/>
</g>
</g>
</svg>
