<?xml version="1.0" encoding="utf-8"?>
<!DOCTYPE svg PUBLIC "-//W3C//DTD SVG 1.1//EN" "http://www.w3.org/Graphics/SVG/1.1/DTD/svg11.dtd">
<svg viewBox="0 0 800 800" preserveAspectRatio="xMinYMin meet" xmlns="http://www.w3.org/2000/svg" version="1.1">
<g fill="none" stroke="black" stroke-linecap="round" stroke-linejoin="round" stroke-width="1.4353">
<g transform="translate(87.52,178.4423) scale(2.0902) translate(-155.5,-128.6667)">
<path id="0" d="M218.5 337.6667 L388.5 336.6667 "/>
<path id="1" d="M387.5 203.6667 C387.5 203.6667 387.4132 323.9574 386.5 334.6667 C386.492 334.7604 376.5 332.6667 376.5 332.6667 "/>
<path id="2" d="M214.5 194.6667 L215.5 340.6667 "/>
<path id="3" d="M387.5 185.6667 L387.5 209.6667 "/>
<path id="4" d="M212.5 193.6667 C212.5 193.6667 202.9661 202.0311 192.5 207.6667 C177.4732 215.758 161.2746 222.2134 160.5 221.6667 C159.4906 220.9541 159.0509 188.9003 158.5 183.6667 C158.497 183.6378 156.5308 183.7592 156.5 183.6667 C156.0684 182.372 154.6395 176.0053 155.5 174.6667 C156.6768 172.8361 160.7745 171.1434 165.5 169.6667 C167.9522 168.9004 169.6832 170.777 171.5 169.6667 C192.1413 157.0526 219.5 136.6667 219.5 136.6667 "/>
<path id="5" d="M387.5 189.6667 C387.5 189.6667 390.0191 189.1566 390.5 189.6667 C401.2602 201.079 405.8843 209.2389 420.5 224.6667 C422.5013 226.7792 426.0667 227.986 426.5 227.6667 C429.419 225.5158 434.7295 219.6775 439.5 210.6667 C447.7719 195.0419 447.2102 193.4395 453.5 176.6667 C454.5216 173.9424 455.2524 171.4693 454.5 170.6667 C441.8482 157.1714 408.5 128.6667 408.5 128.6667 "/>
<path id="6" d="M215.5 139.6667 C215.5 139.6667 225.9472 132.2019 235.5 130.6667 C251.5353 128.0896 271.5 130.6667 271.5 130.6667 "/>
<path id="7" d="M406.5 130.6667 L347.5 130.6667 "/>
<path id="8" d="M272.5 133.6667 C272.5 133.6667 306.7483 136.0737 338.5 135.6667 C344.2938 135.5924 350.5 132.6667 350.5 132.6667 "/>
<path id="9" d="M268.5 132.6667 C268.5 132.6667 268.7521 147.1708 272.5 154.6667 C274.9986 159.6639 278.2359 161.0528 284.5 164.6667 C290.4523 168.1007 291.7258 168.9303 298.5 169.6667 C313.4053 171.2868 316.0967 171.3415 330.5 169.6667 C335.7128 169.0605 336.8592 167.895 341.5 164.6667 C347.7992 160.2846 349.37 159.4972 353.5 153.6667 C357.0034 148.7207 358.5 140.6667 358.5 140.6667 "/>
</g>
</g>
</svg>
