<?xml version="1.0" encoding="utf-8"?>
<!DOCTYPE svg PUBLIC "-//W3C//DTD SVG 1.1//EN" "http://www.w3.org/Graphics/SVG/1.1/DTD/svg11.dtd">
<svg viewBox="0 0 800 800" preserveAspectRatio="xMinYMin meet" xmlns="http://www.w3.org/2000/svg" version="1.1">
<g fill="none" stroke="black" stroke-linecap="round" stroke-linejoin="round" stroke-width="0.77765">
<g transform="translate(110.6667,87.52) scale(3.8578) translate(-148,-151)">
<path id="0" d="M148 198 L188 187 "/>
<path id="1" d="M149 199 C149 199 154.6359 207.8153 156 216 C157.8772 227.2633 155.8468 240.98 156 241 C158.0446 241.2667 202 222 202 222 "/>
<path id="2" d="M253 162 C253 162 261.5944 161.4685 269 159 C277.5672 156.1443 286 151 286 151 "/>
<path id="3" d="M286 151 C286 151 291.6845 156.1764 293 161 C295.601 170.5368 297.1112 181.6969 295 184 C290.5033 188.9055 260 197 260 197 "/>
<path id="4" d="M189 187 C189 187 196.231 186.2116 201 188 C206.7806 190.1677 207.2774 194.2832 213 196 C220.2724 198.1817 226.8999 197.9762 231 197 C232.0223 196.7566 231.993 193.1503 234 191 C238.394 186.2921 242.6068 186.6368 245 182 C249.008 174.2346 250 160 250 160 "/>
<path id="5" d="M201 222 C201 222 207.4554 229.8198 212 238 C214.7176 242.8917 215.0363 243.493 216 249 C218.432 262.8969 215.5294 264.5516 219 278 C223.2376 294.4208 232 311 232 311 "/>
<path id="6" d="M263 198 C263 198 267.1485 214.0524 274 228 C280.8413 241.9269 285.2938 241.3547 291 255 C296.104 267.2051 297 283 297 283 "/>
<path id="7" d="M231 313 C231 313 237.2986 306.2737 244 304 C263.3663 297.4293 267.7433 300.0413 287 294 C291.1247 292.706 292.2576 291.241 295 288 C297.0485 285.579 298 281 298 281 "/>
<path id="8" d="M202 190 C202 190 205.9559 200.936 212 206 C222.2178 214.5609 235.2944 220.0437 239 221 C239.2633 221.0679 242.6803 217.1966 243 214 C244.4255 199.7449 241.0526 195.2812 243 181 C243.6974 175.8855 249 170 249 170 "/>
<path id="9" d="M238 218 C238 218 237.0915 221.554 238 224 C249.1531 254.0276 253.3892 257.8001 264 288 C265.4508 292.1293 264 298 264 298 "/>
<path id="10" d="M240 244 L239 247 "/>
<path id="11" d="M256 250 L256 249 "/>
<path id="12" d="M250 276 L251 274 "/>
<path id="13" d="M152 196 C152 196 158.7979 202.39 160 208 C162.6485 220.3595 161 238 161 238 "/>
<path id="14" d="M283 154 C283 154 287.0179 159.0893 288 164 C290.2678 175.3392 290 189 290 189 "/>
</g>
</g>
</svg>
