<?xml version="1.0" encoding="utf-8"?>
<!DOCTYPE svg PUBLIC "-//W3C//DTD SVG 1.1//EN" "http://www.w3.org/Graphics/SVG/1.1/DTD/svg11.dtd">
<svg viewBox="0 0 800 800" preserveAspectRatio="xMinYMin meet" xmlns="http://www.w3.org/2000/svg" version="1.1">
<g fill="none" stroke="black" stroke-linecap="round" stroke-linejoin="round" stroke-width="1.2913">
<g transform="translate(87.52,124.6923) scale(2.3233) translate(-114,-75)">
<path id="0" d="M177 143 C177 143 178.7035 198.8964 177 250 C176.7909 256.2725 173.414 256.686 173 263 C171.5015 285.8522 173 311 173 311 "/>
<path id="1" d="M175 312 L322 312 "/>
<path id="2" d="M322 311 C322 311 324.905 255.1853 321 203 C319.5638 183.807 314.2482 183.1643 311 164 C309.4036 154.5815 311 144 311 144 "/>
<path id="3" d="M175 141 C175 141 170.3517 140.4783 168 142 C155.5178 150.0767 153.9604 154.9435 141 163 C137.362 165.2615 131 165 131 165 "/>
<path id="4" d="M314 142 C314 142 317.4877 141.1961 320 142 C329.0274 144.8888 329.892 145.3632 339 150 C357.2303 159.2809 375 170 375 170 "/>
<path id="5" d="M132 165 C132 165 114.3636 165.8282 114 165 C112.1136 160.7032 111.3483 133.5869 114 124 C114.6206 121.7563 120.7739 118.7924 127 118 C146.0566 115.5746 169 117 169 117 "/>
<path id="6" d="M377 169 C377 169 376.9472 153.6062 379 143 C379.4492 140.6791 383.1236 138.7417 383 138 C382.7718 136.6306 380.1588 132.1315 377 131 C352.0894 122.0768 316 114 316 114 "/>
<path id="7" d="M171 115 C171 115 178.0814 107.8751 186 104 C200.7131 96.8 202.7831 98.6806 218 92 C222.7503 89.9145 227 86 227 86 "/>
<path id="8" d="M317 110 C317 110 313.4964 110.1813 312 109 C305.5249 103.8881 305.5988 100.8891 298 95 C286.0208 85.7161 272 78 272 78 "/>
<path id="9" d="M228 85 C228 85 232.1308 76.0828 233 76 C235.2756 75.7833 241.3207 81.419 249 83 C256.9253 84.6317 260.0736 84.2046 267 83 C269.1917 82.6188 270.9434 80.6906 272 79 C272.5932 78.0509 272 75 272 75 "/>
<path id="10" d="M317 114 L317 116 "/>
<path id="11" d="M316 123 L316 124 "/>
<path id="12" d="M313 130 L313 131 "/>
<path id="13" d="M312 139 L312 140 "/>
<path id="14" d="M171 119 L171 120 "/>
<path id="15" d="M171 133 L171 135 "/>
<path id="16" d="M237 90 L238 90 "/>
<path id="17" d="M244 90 L248 91 "/>
<path id="18" d="M256 91 L258 91 "/>
<path id="19" d="M263 91 L265 90 "/>
<path id="20" d="M265 89 L268 88 "/>
<path id="21" d="M272 87 L274 86 "/>
<path id="22" d="M275 84 L276 83 "/>
<path id="23" d="M238 89 L237 89 "/>
<path id="24" d="M234 89 L233 87 "/>
</g>
</g>
</svg>
