<?xml version="1.0" encoding="utf-8"?>
<!DOCTYPE svg PUBLIC "-//W3C//DTD SVG 1.1//EN" "http://www.w3.org/Graphics/SVG/1.1/DTD/svg11.dtd">
<svg viewBox="0 0 800 800" preserveAspectRatio="xMinYMin meet" xmlns="http://www.w3.org/2000/svg" version="1.1">
<g fill="none" stroke="black" stroke-linecap="round" stroke-linejoin="round" stroke-width="2.1649">
<g transform="translate(87.52,262.1208) scale(1.3857) translate(-19,-114.3333)">
<path id="0" d="M200 200.5667 C200 200.5667 197.5477 195.9482 197 191.5667 C196.1237 184.5561 195.5209 183.117 197 176.5667 C198.7336 168.8894 200.248 164.7601 204 160.5667 C206.0135 158.3163 211.3678 156.7244 214 157.5667 C219.3925 159.2923 227.0245 163.7514 229 168.5667 C232.2718 176.5417 231.9315 185.8054 230 196.5667 C229.1366 201.377 225.804 205.5886 222 207.5667 C216.9983 210.1676 210.2116 210.6524 205 209.5667 C202.3418 209.0129 199.6376 205.6079 198 202.5667 C197.0876 200.8723 198 196.5667 198 196.5667 "/>
<path id="1" d="M191 179.5667 C191 179.5667 188.4886 171.3846 188 163.5667 C187.5189 155.8695 187.3146 153.7463 189 147.5667 C189.7626 144.7703 191.1214 143.7599 194 141.5667 C201.1033 136.1546 202.0242 135.395 210 131.5667 C213.8192 129.7335 215.5194 128.8706 219 129.5667 C228.1466 131.396 231.2003 132.1514 240 137.5667 C249.4525 143.3836 255.7086 146.4634 258 153.5667 C262.9014 168.7609 264.0213 181.5889 260 199.5667 C256.9764 213.0837 249.2833 224.431 241 229.5667 C234.0341 233.8855 223.6727 232.1204 210 230.5667 C203.9434 229.8784 202.7707 228.2599 197 224.5667 C190.6947 220.5313 188.3169 219.8347 185 214.5667 C181.1932 208.5206 181.096 205.8963 180 197.5667 C178.6966 187.6605 178.8092 186.3904 180 176.5667 C180.7079 170.7263 184 164.5667 184 164.5667 "/>
<path id="2" d="M244 137.5667 C244 137.5667 249.1108 140.0428 254 140.5667 C262.5266 141.4802 264.1766 138.9071 272 140.5667 C279.1649 142.0865 279.3412 144.9465 287 147.5667 C298.0306 151.3403 310 153.5667 310 153.5667 "/>
<path id="3" d="M241 237.5667 C241 237.5667 260.142 222.3518 280 212.5667 C293.3247 206.0009 310 203.5667 310 203.5667 "/>
<path id="4" d="M310 155.5667 C310 155.5667 308.6305 172.5017 310 187.5667 C310.5291 193.3872 313.127 194.0379 314 199.5667 C314.4729 202.5614 313 206.5667 313 206.5667 "/>
<path id="5" d="M247 236.3333 L230 233.3333 "/>
<path id="6" d="M182 161.3333 C182 161.3333 176.0285 158.2608 170 157.3333 C144.232 153.369 140.9458 157.9566 117 151.3333 C96.6148 145.6949 96.6571 139.471 76 131.3333 C64.4356 126.7777 62.6128 129.625 51 125.3333 C40.3054 121.381 30 114.3333 30 114.3333 "/>
<path id="7" d="M219 241.3333 C219 241.3333 207.8764 240.2125 200 243.3333 C183.4739 249.8814 183.4194 254.237 166 262.3333 C148.3057 270.5574 147.5467 270.0275 129 276.3333 C122.7734 278.4504 122.4477 278.8175 116 279.3333 C97.9425 280.7779 94.4796 277.9777 79 280.3333 C74.8697 280.9619 73.6947 282.8695 70 286.3333 C66.1 289.9896 67.0732 292.0144 63 295.3333 C54.3063 302.4171 53.1191 304.1937 43 308.3333 C32.5902 312.5919 19 313.3333 19 313.3333 "/>
<path id="8" d="M310 154.3333 C310 154.3333 315.636 150.3391 321 149.3333 C330.5204 147.5482 332.154 150.2088 342 148.3333 C352.377 146.3568 352.5981 143.6449 363 141.3333 C370.02 139.7733 371.3206 142.155 378 140.3333 C386.8263 137.9261 387.1683 133.8279 396 132.3333 C417.6791 128.6646 443 129.3333 443 129.3333 "/>
<path id="9" d="M319 208.3333 C319 208.3333 337.7538 200.3681 357 194.3333 C396.5966 181.9174 402.1928 182.5213 437 171.3333 C439.1052 170.6567 439.124 167.9586 441 167.3333 C444.9864 166.0045 450.1038 167.2814 452 166.3333 C452.5771 166.0448 453.6069 162.6988 453 161.3333 C450.7352 156.2376 446.327 154.2801 444 148.3333 C442.5916 144.734 444.7879 142.7982 444 138.3333 C443.4067 134.9716 440.7259 132.3383 441 131.3333 C441.2499 130.417 444.1723 127.8989 447 127.3333 C454.9842 125.7365 463.6146 125.4984 466 126.3333 C466.486 126.5034 465.9249 131.3769 467 134.3333 C467.5258 135.7794 469.8416 136.1186 470 137.3333 C470.9344 144.497 472.1488 153.4656 470 157.3333 C468.3526 160.2986 455 164.3333 455 164.3333 "/>
</g>
</g>
</svg>
