<?xml version="1.0" encoding="utf-8"?>
<!DOCTYPE svg PUBLIC "-//W3C//DTD SVG 1.1//EN" "http://www.w3.org/Graphics/SVG/1.1/DTD/svg11.dtd">
<svg viewBox="0 0 800 800" preserveAspectRatio="xMinYMin meet" xmlns="http://www.w3.org/2000/svg" version="1.1">
<g fill="none" stroke="black" stroke-linecap="round" stroke-linejoin="round" stroke-width="2.3425">
<g transform="translate(87.52,342.3705) scale(1.2807) translate(-74,-171.1333)">
<path id="0" d="M78 177.1333 C78 177.1333 78.8325 181.6358 78 184.1333 C77.2468 186.393 74.3092 186.9688 74 189.1333 C72.7235 198.069 71.6449 201.872 74 212.1333 C78.22 230.5204 84.265 241.7846 88 250.1333 C88.1132 250.3865 90.3544 249.6491 91 250.1333 C93.0446 251.6667 93.8478 255.0572 96 256.1333 C97.8831 257.0749 100.5701 256.6733 103 256.1333 C103.8486 255.9448 104.9697 254.8898 105 254.1333 C105.6983 236.676 105.2496 212.1229 105 206.1333 C104.9996 206.1229 103.0913 206.3159 103 206.1333 C101.2657 202.6648 101.0987 196.7368 97 190.1333 C92.7508 183.2874 90.9716 182.4024 85 177.1333 C83.2788 175.6147 80 175.1333 80 175.1333 "/>
<path id="1" d="M81 172.1333 C81 172.1333 94.0022 170.446 105 171.1333 C108.7616 171.3684 109.1506 173.7608 113 174.1333 C123.6794 175.1668 132.8319 172.6127 136 174.1333 C137.0689 174.6464 138 186.1333 138 186.1333 "/>
<path id="2" d="M106 255.1333 C106 255.1333 109.5293 254.7568 110 255.1333 C110.4942 255.5287 110.5101 258.8067 111 259.1333 C111.668 259.5787 113.9789 259.8744 116 259.1333 C127.7356 254.8303 139.269 252.5647 141 248.1333 C145.418 236.8233 142.2145 220.2321 141 195.1333 C140.7904 190.8025 138 186.1333 138 186.1333 "/>
<path id="3" d="M139 186.1333 C139 186.1333 156.2394 187.1461 171 185.1333 C176.8249 184.339 177.4205 180.2137 183 180.1333 C337.831 177.9023 367.722 181.0199 518 180.1333 C519.7997 180.1227 522 178.1333 522 178.1333 "/>
<path id="4" d="M145 236.1333 C145 236.1333 152.852 231.256 160 231.1333 C263.2846 229.3602 272.9494 233.0508 378 232.1333 C383.3136 232.0869 383.5442 229.7395 389 229.1333 C401.0883 227.7902 401.5074 228.2104 414 228.1333 C482.4427 227.7108 501.1044 228.8513 551 228.1333 C551.7389 228.1227 553 226.1333 553 226.1333 "/>
<path id="5" d="M513 185.1333 C513 185.1333 514.5539 182.6592 516 182.1333 C518.9564 181.0583 522.8404 181.5682 524 181.1333 C524.1038 181.0944 523.9118 179.1574 524 179.1333 C527.7337 178.1151 535.4842 175.7175 546 175.1333 C552.5724 174.7682 559.6491 176.104 560 177.1333 C562.1937 183.5681 562.913 202.873 561 219.1333 C560.5513 222.9472 556.9955 226.6356 554 228.1333 C551.1347 229.566 543 228.1333 543 228.1333 "/>
<path id="6" d="M524 178.1333 C524 178.1333 522.4897 190.8631 524 201.1333 C524.7706 206.3735 527.8035 206.8688 529 212.1333 C530.0845 216.9049 529 223.1333 529 223.1333 "/>
<path id="7" d="M526 188.1333 C526 188.1333 527.8006 185.2666 529 185.1333 C537.636 184.1738 553 185.1333 553 185.1333 "/>
<path id="8" d="M527 198.1333 L556 197.1333 "/>
<path id="9" d="M532 207.1333 L558 207.1333 "/>
<path id="10" d="M533 217.1333 L562 217.1333 "/>
<path id="11" d="M210 172.1333 L209 181.1333 "/>
<path id="12" d="M209 172.1333 C209 172.1333 235.6535 170.3704 242 172.1333 C243.1112 172.442 245 182.1333 245 182.1333 "/>
<path id="13" d="M90 171.1333 C90 171.1333 96.1731 179.6008 100 183.1333 C100.5447 183.6361 102.9007 182.9679 103 183.1333 C103.2757 183.5929 102.2374 186.1389 103 188.1333 C108.1812 201.684 111.6184 202.8202 116 217.1333 C118.7385 226.0791 118.7414 227.9899 118 237.1333 C117.3495 245.1556 113 254.1333 113 254.1333 "/>
<path id="14" d="M82 173.1333 C82 173.1333 77.2382 177.1554 77 180.1333 C75.6182 197.4054 76.1423 202.699 78 223.1333 C78.533 228.9964 78.8877 230.5467 82 235.1333 C87.5372 243.2935 90.5777 247.3275 97 251.1333 C100.148 252.9988 108.9004 251.5068 109 251.1333 C110.4004 245.8818 111.1937 227.4432 109 206.1333 C107.8437 194.9004 106.6562 192.1548 102 183.1333 C99.7876 178.8468 97.311 177.5583 93 175.1333 C90.585 173.7749 86.0001 174.1334 86 174.1333 C85.9999 174.1333 91 174.1333 91 174.1333 "/>
<path id="15" d="M91 174.1333 C91 174.1333 99.9588 188.525 102 202.1333 C105.5903 226.0683 103.8036 230.4286 103 254.1333 C102.8902 257.3728 100.0917 261.1425 100 261.1333 C99.6889 261.1022 92.9999 253.1334 93 253.1333 C93.0002 253.1332 97.9273 258.9455 102 260.1333 C107.5327 261.747 117 260.1333 117 260.1333 C117 260.1333 105 261.1333 105 261.1333 C105 261.1333 118.5279 262.4444 130 261.1333 C134.7986 260.5849 136.1747 259.8336 140 257.1333 C143.7727 254.4703 146.564 252.4967 147 249.1333 C149.2516 231.7639 149.414 224.8593 147 203.1333 C145.5889 190.4336 143.1847 184.2719 139 177.1333 C137.8715 175.2083 134.3558 174.4684 130 174.1333 C115.8436 173.0444 100 174.1333 100 174.1333 "/>
<path id="16" d="M212 177.1333 C212 177.1333 240.9994 175.1326 241 175.1333 C241.0003 175.1338 216.0037 182.1312 216 182.1333 C215.9983 182.1343 229 182.1333 229 182.1333 "/>
<path id="17" d="M103 184.1333 C103 184.1333 109.5927 181.6022 116 181.1333 C129.5711 180.1403 144 181.1333 144 181.1333 "/>
<path id="18" d="M113 195.1333 L140 198.1333 "/>
<path id="19" d="M113 209.1333 L140 210.1333 "/>
<path id="20" d="M116 223.1333 L143 224.1333 "/>
<path id="21" d="M126 232.1333 C126 232.1333 125.9548 234.1258 126 234.1333 C128.4614 234.5436 144 235.1333 144 235.1333 "/>
<path id="22" d="M120 246.1333 L140 246.1333 "/>
<path id="23" d="M112 255.1333 L141 256.1333 "/>
</g>
</g>
</svg>
