<?xml version="1.0" encoding="utf-8"?>
<!DOCTYPE svg PUBLIC "-//W3C//DTD SVG 1.1//EN" "http://www.w3.org/Graphics/SVG/1.1/DTD/svg11.dtd">
<svg viewBox="0 0 800 800" preserveAspectRatio="xMinYMin meet" xmlns="http://www.w3.org/2000/svg" version="1.1">
<g fill="none" stroke="black" stroke-linecap="round" stroke-linejoin="round" stroke-width="1.0321">
<g transform="translate(254.6605,87.52) scale(2.9068) translate(-273.3611,-191.25)">
<path id="0" d="M273.3611 206.25 C273.3611 206.25 283.249 199.2416 293.3611 195.25 C301.4946 192.0394 302.4783 191.908 311.3611 191.25 C328.8391 189.9553 331.2847 188.5252 347.3611 191.25 C358.389 193.1191 362.7178 197.1099 370.3611 201.25 C371.0672 201.6324 371.3611 204.25 371.3611 204.25 "/>
<path id="1" d="M275.3611 208.25 C275.3611 208.25 279.8083 207.3383 282.3611 208.25 C285.5652 209.3943 286.3442 213.0214 289.3611 213.25 C313.4837 215.0775 320.442 215.6628 348.3611 213.25 C359.0579 212.3256 370.3611 206.25 370.3611 206.25 "/>
<path id="2" d="M273.3611 208.25 C273.3611 208.25 274.1239 216.423 277.3611 222.25 C283.5251 233.3453 284.6019 235.4907 293.3611 244.25 C298.8933 249.7822 300.9306 250.4315 308.3611 253.25 C314.3166 255.509 322.3611 255.25 322.3611 255.25 "/>
<path id="3" d="M372.3611 205.25 C372.3611 205.25 373.4782 215.7951 370.3611 221.25 C363.3477 233.5234 359.621 235.6148 348.3611 247.25 C345.3272 250.385 344.264 251.3079 340.3611 252.25 C331.2544 254.4482 319.3611 254.25 319.3611 254.25 C319.3611 254.25 338.3611 254.25 338.3611 254.25 "/>
<path id="4" d="M313.3611 256.25 L314.3611 398.25 "/>
<path id="5" d="M339.3611 253.25 L338.3611 399.25 "/>
<path id="6" d="M314.3611 398.25 C314.3611 398.25 316.7361 405.6 318.3611 406.25 C321.9722 407.6944 328.5655 407.7619 334.3611 406.25 C337.4636 405.4406 341.3611 400.25 341.3611 400.25 "/>
<path id="7" d="M341.3611 282.25 C341.3611 282.25 345.3016 282.9524 345.3611 283.25 C345.8174 285.5314 344.9024 295.3554 344.3611 297.25 C344.3286 297.3637 341.3832 297.3382 341.3611 297.25 C341.0082 295.8382 340.889 288.319 341.3611 285.25 C341.4126 284.9156 343.3568 284.2265 343.3611 284.25 C343.4418 284.6937 343.3611 296.25 343.3611 296.25 "/>
<path id="8" d="M276.3611 210.25 L289.3611 213.25 "/>
<path id="9" d="M277.3611 218.3056 C277.3611 218.3056 282.422 224.0173 286.3611 224.3056 C316.8252 226.5346 326.8235 226.9235 359.3611 224.3056 C365.8522 223.7833 373.3611 217.3056 373.3611 217.3056 "/>
</g>
</g>
</svg>
