<?xml version="1.0" encoding="utf-8"?>
<!DOCTYPE svg PUBLIC "-//W3C//DTD SVG 1.1//EN" "http://www.w3.org/Graphics/SVG/1.1/DTD/svg11.dtd">
<svg viewBox="0 0 800 800" preserveAspectRatio="xMinYMin meet" xmlns="http://www.w3.org/2000/svg" version="1.1">
<g fill="none" stroke="black" stroke-linecap="round" stroke-linejoin="round" stroke-width="1.5217">
<g transform="translate(87.52,240.3099) scale(1.9715) translate(-104.5,-167.8333)">
<path id="0" d="M107.5 193.8333 C107.5 193.8333 141.4876 198.7076 175.5 200.8333 C229.2986 204.1958 229.5544 203.9086 283.5 204.8333 C316.9364 205.4065 350.5 203.8333 350.5 203.8333 "/>
<path id="1" d="M104.5 252.8333 C104.5 252.8333 154.5896 253.3378 204.5 255.8333 C254.5101 258.3338 254.5682 260.4876 304.5 262.8333 C328.8864 263.979 353.5 262.8333 353.5 262.8333 "/>
<path id="2" d="M109.5 190.8333 C109.5 190.8333 106.5124 192.2395 106.5 192.8333 C106.2243 206.0661 108.7757 225.6006 108.5 238.8333 C108.4876 239.4272 105.6225 240.0984 105.5 240.8333 C104.7161 245.5369 105.476 256.6652 105.5 256.8333 C105.5026 256.8514 107.5 254.8333 107.5 254.8333 "/>
<path id="3" d="M107.5 198.8333 C107.5 198.8333 109.9856 212.9443 110.5 226.8333 C110.9751 239.661 109.5 252.8333 109.5 252.8333 "/>
<path id="4" d="M111.5 197.8333 C111.5 197.8333 114.4047 200.15 114.5 201.8333 C115.6197 221.615 115.3283 228.8829 114.5 250.8333 C114.4311 252.659 112.5045 254.8311 112.5 254.8333 C112.4983 254.8342 112.5 251.8333 112.5 251.8333 "/>
<path id="5" d="M338.5 207.8333 C338.5 207.8333 336.5 237.4944 336.5 260.8333 C336.5 262.5948 338.5 264.8333 338.5 264.8333 "/>
<path id="6" d="M340.5 266.8333 C340.5 266.8333 343.1267 265.2517 343.5 263.8333 C345.1278 257.6475 345.2472 255.7952 345.5 247.8333 C346.2395 224.5379 345.6784 203.5685 345.5 200.8333 C345.4969 200.7865 342.5 201.8333 342.5 201.8333 "/>
<path id="7" d="M305.5 201.8333 C305.5 201.8333 301.213 202.9778 300.5 203.8333 C300.0375 204.3883 300.2383 207.6879 300.5 207.8333 C301.6255 208.4586 306.4401 209.489 309.5 208.8333 C311.5399 208.3962 314.4375 205.3958 314.5 204.8333 C314.5625 204.2708 312.7314 201.2678 310.5 199.8333 C306.6117 197.3337 301.3538 195.6199 300.5 195.8333 C300.1443 195.9223 298.5 202.8333 298.5 202.8333 "/>
<path id="8" d="M290.5 193.8333 C290.5 193.8333 288.1132 204.3606 288.5 204.8333 C288.8717 205.2877 298.7941 205.2569 299.5 204.8333 C299.6669 204.7332 299.6078 200.6796 298.5 198.8333 C297.3251 196.8752 295.9429 195.7729 293.5 194.8333 C290.3674 193.6285 285.5 193.8333 285.5 193.8333 "/>
<path id="9" d="M343.5 205.8333 C343.5 205.8333 358.3166 204.5061 369.5 198.8333 C391.1483 187.8523 393.5595 181.232 412.5 170.8333 C415.0958 169.4082 420.5 170.8333 420.5 170.8333 C420.5 170.8333 414.5 170.8333 414.5 170.8333 "/>
<path id="10" d="M345.5 260.8333 C345.5 260.8333 349.3962 258.7201 349.5 258.8333 C350.7712 260.2201 352.166 266.6935 356.5 272.8333 C363.8221 283.2063 366.1762 282.2331 373.5 292.8333 C384.9219 309.3651 385.2294 315.1292 394.5 327.8333 C395.675 329.4435 400.2195 329.9269 400.5 329.8333 C400.5701 329.81 400.5 325.8333 400.5 325.8333 "/>
<path id="11" d="M402.5 329.8333 C402.5 329.8333 399.7522 328.0943 399.5 326.8333 C398.6594 322.6302 398.7558 320.638 399.5 314.8333 C401.2142 301.4627 403.4109 301.3108 404.5 287.8333 C407.3711 252.3041 405.0986 251.4543 407.5 215.8333 C408.0721 207.3466 407.8767 206.7032 410.5 198.8333 C414.6778 186.2999 417.9828 184.7365 421.5 173.8333 C422.1995 171.665 420.5 167.8333 420.5 167.8333 "/>
<path id="12" d="M419.5 177.8333 C419.5 177.8333 422.6983 226.7015 419.5 271.8333 C418.3555 287.9837 416.2797 289.228 410.5 304.8333 C406.5113 315.6028 399.5235 325.8035 399.5 325.8333 C399.4945 325.8404 399.5 318.8333 399.5 318.8333 "/>
<path id="13" d="M368.5 240.8333 C368.5 240.8333 379.148 234.8013 379.5 234.8333 C379.5214 234.8353 379.5 241.8333 379.5 241.8333 C379.5 241.8333 379.5129 239.8269 379.5 239.8333 C379.39 239.8884 376.1986 243.8695 373.5 244.8333 C370.7271 245.8237 367.6043 246.017 365.5 244.8333 C362.0641 242.9006 357.5 235.8333 357.5 235.8333 "/>
<path id="14" d="M362.5 208.8333 C362.5 208.8333 361.0332 259.9682 360.5 267.8333 C360.4988 267.8514 358.5 267.8333 358.5 267.8333 "/>
<path id="15" d="M130.5 198.8333 C130.5 198.8333 143.5268 207.4809 144.5 212.8333 C146.8688 225.8616 140.5 253.8333 140.5 253.8333 "/>
<path id="16" d="M126.5 196.8333 C126.5 196.8333 124.3981 204.985 125.5 209.8333 C126.3941 213.7673 131.241 215.1209 131.5 218.8333 C132.4292 232.1525 128.5 252.8333 128.5 252.8333 "/>
<path id="17" d="M366.5 209.8333 C366.5 209.8333 368.5939 206.3968 368.5 205.8333 C368.436 205.4492 365.8125 203.7708 365.5 203.8333 C365.1875 203.8958 363.7086 205.4777 363.5 206.8333 C362.8695 210.9318 362.6646 212.2385 363.5 216.8333 C364.5633 222.6813 367.2252 223.1998 367.5 228.8333 C368.1513 242.1848 367.8365 244.4818 365.5 257.8333 C364.5546 263.2354 363.3637 264.8242 360.5 268.8333 C359.2085 270.6414 355.5 271.8333 355.5 271.8333 "/>
</g>
</g>
</svg>
