<?xml version="1.0" encoding="utf-8"?>
<!DOCTYPE svg PUBLIC "-//W3C//DTD SVG 1.1//EN" "http://www.w3.org/Graphics/SVG/1.1/DTD/svg11.dtd">
<svg viewBox="0 0 800 800" preserveAspectRatio="xMinYMin meet" xmlns="http://www.w3.org/2000/svg" version="1.1">
<g fill="none" stroke="black" stroke-linecap="round" stroke-linejoin="round" stroke-width="1.5649">
<g transform="translate(87.52,215.0042) scale(1.9171) translate(-182,-78.6333)">
<path id="0" d="M208 207.6333 C208 207.6333 211.115 207.6746 212 208.6333 C215.6561 212.5941 217.0907 214.3991 220 220.6333 C223.8462 228.8752 224.6145 229.8583 226 238.6333 C227.4625 247.8958 227.2561 249.8406 226 258.6333 C225.4617 262.4016 224.4988 264.1345 222 266.6333 C219.0847 269.5486 217.1999 270.1334 213 271.6333 C211.053 272.3287 209.7519 272.3633 208 271.6333 C204.8174 270.3073 203.9296 269.5629 201 266.6333 C191.723 257.3563 186.1405 255.7243 183 246.6333 C178.7662 234.3775 179.9819 224.3185 182 211.6333 C182.595 207.8931 186.5314 204.1199 190 202.6333 C193.8029 201.0035 197.894 201.7323 203 202.6333 C204.779 202.9473 205.2087 205.2751 207 205.6333 C211.2837 206.4901 216.669 205.3913 218 205.6333 C218.044 205.6413 218 207.6333 218 207.6333 "/>
<path id="1" d="M183 202.6333 C183 202.6333 194.7933 201.9573 202 197.6333 C212.6135 191.2653 213.4541 182.0426 223 178.6333 C235.1471 174.2951 258 177.6333 258 177.6333 "/>
<path id="2" d="M223 261.6333 C223 261.6333 228.8862 256.5573 235 253.6333 C239.8037 251.3359 242.9786 252.144 246 250.6333 C246.6043 250.3312 246.2871 248.0611 247 247.6333 C251.4811 244.9447 254.9839 245.243 261 241.6333 C264.2815 239.6644 264.7909 238.8243 267 235.6333 C268.9748 232.7808 269.6294 231.9683 270 228.6333 C271.0106 219.5378 270 208.6333 270 208.6333 "/>
<path id="3" d="M261 175.6333 C261 175.6333 263.6879 170.4881 267 168.6333 C274.6525 164.3479 277.4224 166.3858 286 161.6333 C313.6835 146.2952 312.5394 141.6513 341 127.6333 C378.5903 109.1187 382.1541 113.2947 420 95.6333 C433.6718 89.2532 434.476 84.7555 446 78.6333 C447.9738 77.5848 450.2171 77.6824 452 78.6333 C455.9423 80.7359 457.0771 82.2746 461 86.6333 C465.8975 92.075 466.5043 92.3911 470 98.6333 C473.2413 104.4214 475 111.6333 475 111.6333 "/>
<path id="4" d="M268 215.6333 C268 215.6333 290.2724 210.0854 311 201.6333 C341.3911 189.2408 340.5442 185.9225 371 173.6333 C397.1692 163.0738 400.4832 166.7773 425 155.6333 C437.115 150.1265 436.5289 145.5855 448 138.6333 C452.0707 136.1662 454.3346 137.607 458 135.6333 C459.6264 134.7576 459.2313 132.665 461 131.6333 C469.8985 126.4425 480.99 123.0762 482 121.6333 C482.2085 121.3354 475 111.6333 475 111.6333 "/>
<path id="5" d="M470 102.6333 C470 102.6333 478.7792 108.6011 485 115.6333 C489.7544 121.0079 490.1967 121.9484 493 128.6333 C496.4447 136.8477 494.7568 138.5254 498 146.6333 C499.4594 150.2819 500.9661 152.0514 503 153.6333 C503.7789 154.2392 507 153.6333 507 153.6333 "/>
<path id="6" d="M466 103.6333 C466 103.6333 475.2335 101.8001 480 103.6333 C485.395 105.7083 487.8958 108.0927 492 113.6333 C496.9813 120.3581 497.9847 122.3481 500 130.6333 C502.1533 139.4858 499.5704 146.7019 501 150.6333 C501.3191 151.5109 508 152.6333 508 152.6333 "/>
<path id="7" d="M275 181.6333 C275 181.6333 283.8837 202.148 285 202.6333 C285.4795 202.8418 291.5517 194.5454 298 191.6333 C304.9461 188.4964 310.4357 191.5268 316 188.6333 C319.4706 186.8286 323.3146 179.7346 323 178.6333 C322.4213 176.6078 313.3459 167.4846 310 167.6333 C301.2876 168.0205 278 180.6333 278 180.6333 "/>
<path id="8" d="M287 175.6333 L298 187.6333 "/>
<path id="9" d="M301 177.6333 C301 177.6333 304.3614 172.5436 306 171.6333 C306.6773 171.2571 309.3879 171.8464 310 172.6333 C311.5385 174.6114 313.1511 180.4974 313 180.6333 C312.5 181.0834 302.2001 182.3667 300 181.6333 C299.3052 181.4017 298 175.6333 298 175.6333 "/>
<path id="10" d="M200 213.6333 C200 213.6333 197.357 217.3009 197 220.6333 C195.9759 230.1918 195.3057 233.1616 197 241.6333 C197.823 245.7482 199.7508 246.7343 203 250.6333 C204.4699 252.3972 205.9528 253.6333 207 253.6333 C208.5708 253.6333 212.8246 251.6154 213 250.6333 C214.0691 244.6461 213.6624 235.6079 212 225.6333 C211.6257 223.3874 209.7089 221.5827 208 220.6333 C206.7393 219.933 203.5388 220.8488 203 220.6333 C202.9138 220.5988 203 218.6333 203 218.6333 C202.9786 218.6333 201 220.6333 201 220.6333 "/>
</g>
</g>
</svg>
