<?xml version="1.0" encoding="utf-8"?>
<!DOCTYPE svg PUBLIC "-//W3C//DTD SVG 1.1//EN" "http://www.w3.org/Graphics/SVG/1.1/DTD/svg11.dtd">
<svg viewBox="0 0 800 800" preserveAspectRatio="xMinYMin meet" xmlns="http://www.w3.org/2000/svg" version="1.1">
<g fill="none" stroke="black" stroke-linecap="round" stroke-linejoin="round" stroke-width="1.2385">
<g transform="translate(87.52,244.9712) scale(2.4223) translate(-125,-157)">
<path id="0" d="M211 212 C211 212 203.377 206.7502 197 206 C188.4294 204.9917 186.5557 205.9523 177 208 C166.0076 210.3555 164.4351 209.8199 155 215 C140.203 223.1238 126 236 126 236 "/>
<path id="1" d="M139 284 C139 284 161.6566 287.0245 177 283 C187.8009 280.167 188.2127 274.483 200 268 C207.8645 263.6745 210.0971 265.3143 217 261 C220.8753 258.5779 224 253 224 253 "/>
<path id="2" d="M211 213 C211 213 224.3962 208.6959 228 207 C228.1711 206.9195 227.7898 205.1113 228 205 C236.4297 200.5372 244.6355 194.7246 262 189 C289.242 180.0191 291.6634 183.798 319 175 C334.3363 170.0642 349 161 349 161 "/>
<path id="3" d="M225 250 C225 250 225 252 225 252 C226.5346 252 233.378 251.9712 241 250 C261.9327 244.5864 263.2564 245.4615 283 237 C307.9611 226.3024 307.1592 221.279 332 211 C349.5162 203.7519 363.9915 205.1111 370 201 C371.4669 199.9964 371.7727 190.5396 370 185 C368.7192 180.9976 364.6843 180.7934 362 176 C358.1448 169.1157 359.3513 166.3675 356 160 C355.1069 158.3032 352.5813 156.9273 352 157 C351.2784 157.0902 348 161 348 161 "/>
<path id="4" d="M363 173 C363 173 368.3772 172.1257 371 173 C372.7485 173.5828 374.5497 175.1989 375 177 C376.4634 182.8537 374.3932 185.7693 376 193 C377.1996 198.3983 380.2519 198.763 381 204 C382.5328 214.7295 381.9854 216.5036 381 228 C380.5378 233.3924 380.2974 234.1963 378 239 C375.076 245.1138 370.0005 250.9994 370 251 C369.9998 251.0002 370.7773 247.0699 372 246 C373.4864 244.6994 376.3593 245.4767 378 244 C380.1666 242.0501 381.7179 240.2159 382 237 C383.9222 215.0871 384.7616 208.1397 383 187 C382.6294 182.5532 380.2056 179.0399 377 177 C372.1915 173.9401 361 173 361 173 "/>
<path id="5" d="M126 236 C126 236 124.6075 252.2638 125 266 C125.0662 268.3177 125.747 268.7447 127 271 C128.1618 273.0913 128.2187 273.8125 130 275 C136.3916 279.2611 138.0509 280.2204 145 283 C146.9091 283.7636 150 283 150 283 C150 282.9987 145 281 145 281 "/>
<path id="6" d="M126 240 C126 240 133.6464 239.8201 137 242 C141.4033 244.8622 144.8387 248.0065 146 253 C148.8589 265.2932 147.2333 281.2679 147 285 C146.9986 285.0219 144.4158 285.3118 144 285 C143.5496 284.6622 143 282 143 282 "/>
<path id="7" d="M211 212 C211 212 216.3987 214.1961 217 216 C219.0711 222.2133 216.325 227.4886 219 236 C221.3119 243.3561 227.8409 250.5227 228 251 C228.0118 251.0354 224 251 224 251 "/>
<path id="8" d="M229 224 C229 224 248.9195 213.7876 252 214 C252.9427 214.065 258.2316 225.6842 258 226 C257.5286 226.6428 248.5636 226.5796 241 229 C236.9571 230.2937 233.496 234.1353 233 234 C232.6127 233.8944 231.1227 227.4969 230 226 C229.7536 225.6714 227 226 227 226 "/>
<path id="9" d="M332 172 C332 172 335.9528 174.9894 337 178 C339.4414 185.0192 337.825 186.8436 340 195 C341.7514 201.5679 344.9123 207.8392 345 208 C345.0081 208.0149 346 206 346 206 "/>
<path id="10" d="M324 173 C324 173 324.8604 186.0115 328 197 C329.5876 202.5567 333.0992 204.8472 334 208 C334.1721 208.6022 332 211 332 211 "/>
<path id="11" d="M241 220 L243 232 "/>
</g>
</g>
</svg>
