<?xml version="1.0" encoding="utf-8"?>
<!DOCTYPE svg PUBLIC "-//W3C//DTD SVG 1.1//EN" "http://www.w3.org/Graphics/SVG/1.1/DTD/svg11.dtd">
<svg viewBox="0 0 800 800" preserveAspectRatio="xMinYMin meet" xmlns="http://www.w3.org/2000/svg" version="1.1">
<g fill="none" stroke="black" stroke-linecap="round" stroke-linejoin="round" stroke-width="0.99846">
<g transform="translate(87.52,212.2115) scale(3.0046) translate(-136,-172)">
<path id="0" d="M138 273 C138 273 136 273 136 273 C136 272.9786 136.8814 271.535 138 271 C147.5736 266.4213 149.2327 267.3022 159 262 C166.3308 258.0204 165.6515 256.1753 173 252 C187.3831 243.8278 187.6662 242.6954 203 237 C222.0041 229.9413 243 226 243 226 "/>
<path id="1" d="M246 224 C246 224 251.75 222.5 252 222 C252.25 221.5 249.4456 216.924 250 216 C252.5872 211.6879 262.6854 204.0317 264 202 C264.0604 201.9067 260.9736 199.0176 261 199 C261.4848 198.6768 268.6927 194.9875 276 194 C286.2555 192.6141 290.8829 191.1906 298 194 C305.0916 196.7993 308.1503 201.2004 314 209 C317.629 213.8386 317.7421 215.7104 319 222 C320.0782 227.3911 320.8624 231.2063 319 234 C314.8095 240.2858 308.2018 246.784 301 249 C294.6065 250.9672 290.3068 246.1945 280 246 C264.3551 245.7048 260.9016 244.3138 248 248 C239.9082 250.3119 239.4796 256.1457 231 260 C224.4429 262.9805 222.1033 260.1587 215 263 C200.5456 268.7818 200.5192 271.6257 186 278 C180.5665 280.3854 178.9262 278.3258 174 281 C162.5469 287.2174 152.8982 296.5782 151 297 C150.8729 297.0282 149.7002 290.8253 147 287 C144.3369 283.2273 140.9572 282.9358 139 280 C138.2065 278.8098 139 275 139 275 "/>
<path id="2" d="M255 222 L254 222 "/>
<path id="3" d="M254 222 C254 222 248.6255 229.1261 249 230 C250.2149 232.8349 263 243 263 243 "/>
<path id="4" d="M308 198 C308 198 309.7743 194.3502 311 194 C314.2543 193.0702 322 194 322 194 "/>
<path id="5" d="M323 213 L327 214 "/>
<path id="6" d="M332 224 C332 224 337.4305 226.7279 341 230 C342.8668 231.7112 344.0072 234.9892 344 235 C343.9968 235.0048 339 233 339 233 "/>
<path id="7" d="M331 247 L334 257 "/>
<path id="8" d="M324 264 C324 264 326 263.0014 326 263 C326 263 324 263 324 263 "/>
<path id="9" d="M291 182 L293 175 "/>
<path id="10" d="M281 180 L281 172 "/>
<path id="11" d="M269 182 L262 177 "/>
<path id="12" d="M250 191 L242 188 "/>
<path id="13" d="M295 197 C295 197 292.3004 200.1963 292 203 C290.9546 212.7573 289.4751 219.2288 292 225 C293.8506 229.23 299.6799 232.1272 306 235 C308.7263 236.2392 313.9369 235.0378 314 235 C314.0095 234.9943 311 232 311 232 "/>
<path id="14" d="M306 211 C306 211 304.9371 213.9056 305 214 C305.0539 214.0809 307.9933 214.027 308 214 C308.0315 213.8742 306 210 306 210 "/>
</g>
</g>
</svg>
