<?xml version="1.0" encoding="utf-8"?>
<!DOCTYPE svg PUBLIC "-//W3C//DTD SVG 1.1//EN" "http://www.w3.org/Graphics/SVG/1.1/DTD/svg11.dtd">
<svg viewBox="0 0 800 800" preserveAspectRatio="xMinYMin meet" xmlns="http://www.w3.org/2000/svg" version="1.1">
<g fill="none" stroke="black" stroke-linecap="round" stroke-linejoin="round" stroke-width="3.029">
<g transform="translate(87.52,220.2373) scale(0.99043) translate(-10,-76.7333)">
<path id="0" d="M175 370.7333 C175 370.7333 167.5046 369.0604 161 369.7333 C153.7852 370.4797 152.7284 370.9298 146 373.7333 C141.3574 375.6678 139.8093 376.2217 137 379.7333 C132.8286 384.9476 131.4545 387.0841 130 393.7333 C128.3143 401.4395 127.7204 405.8443 130 411.7333 C132.2347 417.5063 135.6052 420.8577 142 424.7333 C150.1202 429.6547 153.455 427.6951 163 431.7333 C165.6658 432.8612 165.5006 435.0192 168 435.7333 C177.8231 438.5399 184.4854 441.7498 191 439.7333 C198.263 437.4853 206.5101 430.5441 210 422.7333 C214.2298 413.2666 214.518 403.9497 212 392.7333 C210.1324 384.414 206.4205 380.4793 199 373.7333 C191.6463 367.0482 188.3725 365.8575 179 362.7333 C173.8517 361.0172 169.7001 360.9637 166 362.7333 C161.6564 364.8107 156 373.7333 156 373.7333 "/>
<path id="1" d="M422 367.7333 C422 367.7333 403.7259 370.4423 390 376.7333 C381.6568 380.5573 379.8483 383.0078 374 389.7333 C371.0711 393.1015 370.8777 394.906 370 399.7333 C369.0182 405.1334 368.6669 407.5118 370 411.7333 C370.9881 414.8624 372.6243 416.892 376 418.7333 C387.3461 424.9221 389.756 425.7601 403 429.7333 C408.8134 431.4774 409.5099 430.5305 416 430.7333 C425.4628 431.029 429.0138 432.0347 435 430.7333 C436.6027 430.3849 437.5224 428.4198 439 425.7333 C442.8683 418.7 444.6148 418.0054 446 410.7333 C448.3059 398.6273 449.3563 392.923 447 383.7333 C445.6942 378.6407 441.9206 375.4831 436 371.7333 C428.5409 367.0092 426.0496 366.0577 417 364.7333 C407.1237 363.288 395 365.7333 395 365.7333 "/>
<path id="2" d="M10 364.7333 C10 364.7333 22.593 361.7623 35 361.7333 C234.9427 361.2662 237.249 365.0285 438 363.7333 C468.9018 363.534 469.0073 360.0562 500 358.7333 C550.8556 356.5627 551.522 358.8192 602 356.7333 C611.4565 356.3426 621 353.7333 621 353.7333 "/>
<path id="3" d="M623 353.7333 C623 353.7333 619.0014 329.1678 618 304.7333 C616.5143 268.4825 616.4498 267.3872 618 231.7333 C618.4072 222.3686 622 212.7333 622 212.7333 "/>
<path id="4" d="M622 212.7333 C622 212.7333 613.6478 211.6038 608 212.7333 C605.2568 213.282 605.0474 215.9352 602 216.7333 C585.6408 221.0179 583.7541 223.3081 566 223.7333 C419.7051 227.2374 268 224.7333 268 224.7333 "/>
<path id="5" d="M268 224.7333 C268 224.7333 269.1105 204.7279 267 185.7333 C265.1773 169.329 261.4625 169.1455 260 152.7333 C257.0346 119.4547 258 84.7333 258 84.7333 "/>
<path id="6" d="M11 370.7333 C11 370.7333 10.6183 295.5819 12 223.7333 C12.0849 219.3162 11.9666 217.275 14 214.7333 C18.2586 209.4101 20.8498 207.4317 28 203.7333 C34.1985 200.5272 35.7723 199.9261 43 199.7333 C71.6813 198.9685 98.0429 206.4867 103 201.7333 C110.0018 195.0192 106.2705 162.4893 116 129.7333 C120.367 115.0312 123.5275 112.6503 133 100.7333 C137.7077 94.8108 139.6891 93.6301 147 90.7333 C164.6476 83.7409 166.497 83.7487 186 79.7333 C199.9982 76.8514 200.542 77.2497 215 76.7333 C242.3194 75.7576 242.9481 74.9881 270 76.7333 C288.8808 77.9515 292.5861 79.6506 308 82.7333 C308.9437 82.9221 309.9484 83.9597 310 84.7333 C310.677 94.888 310.4605 98.7644 310 112.7333 C308.9622 144.2129 306.0691 145.0121 307 175.7333 C307.5354 193.4025 308.4428 195.1322 313 211.7333 C315.0816 219.3163 317.4837 222.045 321 226.7333 C321.6698 227.6264 325 227.7333 325 227.7333 "/>
<path id="7" d="M124 194.7333 C124 194.7333 127.6305 189.8735 132 187.7333 C150.8589 178.4963 163.015 177.9318 173 170.7333 C175.2673 169.0987 175.5625 159.9208 175 156.7333 C174.84 155.8266 172.1665 153.9882 170 153.7333 C165.1909 153.1676 161.0675 153.1996 158 154.7333 C156.1595 155.6536 154.5934 158.4699 154 161.7333 C152.8482 168.0683 152.6385 173.0379 154 176.7333 C154.5971 178.3542 157.4244 179.201 161 180.7333 C164.2239 182.115 166.1048 183.1707 168 182.7333 C170.0736 182.2548 173.0927 180.115 174 177.7333 C176.0874 172.2539 176 161.7333 176 161.7333 "/>
<path id="8" d="M267 223.7333 C267 223.7333 264.0861 238.7994 263 253.7333 C262.1036 266.0587 264.4136 266.7177 263 278.7333 C261.4899 291.5689 258.2028 291.846 257 304.7333 C254.7767 328.5543 256 353.7333 256 353.7333 "/>
<path id="9" d="M110 208.7333 C110 208.7333 104.0761 239.2286 101 269.7333 C98.103 298.4617 99.0866 298.7566 98 327.7333 C97.5886 338.7032 96.3439 339.5602 98 349.7333 C99.6666 359.971 105 370.7333 105 370.7333 "/>
<path id="10" d="M107 212.7333 C107 212.7333 150.9768 209.2677 191 202.7333 C198.0012 201.5903 198.2905 198.4836 205 196.7333 C208.8795 195.7213 210.3315 197.7524 214 196.7333 C218.2346 195.5571 218.8036 192.4102 223 191.7333 C232.4144 190.2149 244.9219 192.1715 245 191.7333 C246.9974 180.5259 245.956 101.7467 241 90.7333 C240.1587 88.8639 218.7881 87.9757 200 91.7333 C178.4757 96.0382 175.5306 98.1335 156 107.7333 C147.9452 111.6925 144.4304 113.8725 141 120.7333 C133.9718 134.7897 137.6106 140.3806 131 157.7333 C125.9244 171.0567 122.7705 170.4361 117 183.7333 C111.4399 196.5456 108 210.7333 108 210.7333 "/>
<path id="11" d="M218 241.7333 C218 241.7333 231.1375 241.7078 239 242.7333 C239.8413 242.8431 241.0188 244.7312 241 244.7333 C240.7881 244.7569 221 244.7333 221 244.7333 "/>
<path id="12" d="M611 357.7333 L641 353.7333 "/>
<path id="13" d="M615 361.7333 C615 361.7333 615.7312 370.5029 616 370.7333 C616.1058 370.824 619.1665 368.1807 622 367.7333 C627.69 366.8349 629.2477 368.4101 635 367.7333 C636.874 367.5129 638.9138 366.2508 639 365.7333 C639.3126 363.8576 637 355.7333 637 355.7333 "/>
</g>
</g>
</svg>
