<?xml version="1.0" encoding="utf-8"?>
<!DOCTYPE svg PUBLIC "-//W3C//DTD SVG 1.1//EN" "http://www.w3.org/Graphics/SVG/1.1/DTD/svg11.dtd">
<svg viewBox="0 0 800 800" preserveAspectRatio="xMinYMin meet" xmlns="http://www.w3.org/2000/svg" version="1.1">
<g fill="none" stroke="black" stroke-linecap="round" stroke-linejoin="round" stroke-width="1.3825">
<g transform="translate(87.52,146.11) scale(2.17) translate(-162,-145.1333)">
<path id="0" d="M228 207.1333 C228 207.1333 203.4319 209.8134 187 216.1333 C181.3711 218.2983 180.5916 223.9766 176 227.1333 C174.7632 227.9836 171.0028 227.0914 171 227.1333 C170.2362 238.7178 171.3398 274.8133 170 318.1333 C169.9108 321.0181 167.9134 324.1269 168 324.1333 C171.8468 324.4204 204.9311 325.8057 237 323.1333 C244.1952 322.5337 244.6332 318.2453 252 317.1333 C269.7399 314.4556 290 315.1333 290 315.1333 "/>
<path id="1" d="M227 209.1333 C227 209.1333 278.1084 204.7093 286 209.1333 C289.7107 211.2136 291.0841 227.7952 293 246.1333 C294.5233 260.7139 292.3196 265.2476 293 276.1333 C293.0482 276.9044 294.9561 277.3657 295 278.1333 C295.6847 290.1153 295.4255 294.9634 295 311.1333 C294.9352 313.5962 294.5365 315.5968 294 316.1333 C293.6423 316.491 290 316.1333 290 316.1333 "/>
<path id="2" d="M247 207.1333 C247 207.1333 242.687 151.6954 246 149.1333 C251.7416 144.6932 320.4779 145.6984 322 149.1333 C329.5077 166.0764 320 316.1333 320 316.1333 "/>
<path id="3" d="M286 338.1333 C286 338.1333 284.8873 324.093 287 314.1333 C287.8964 309.9076 289.6871 307.6667 293 305.1333 C296.6154 302.3686 298.6931 301.6511 304 301.1333 C317.9775 299.7697 324.7425 298.6971 334 301.1333 C337.2807 301.9967 341.1409 306.8377 342 311.1333 C343.8367 320.3171 342.8927 324.7772 341 336.1333 C340.1101 341.473 339.2233 344.3496 336 347.1333 C330.6851 351.7235 324.1663 355.65 319 355.1333 C311.2824 354.3616 296 343.1333 296 343.1333 "/>
<path id="4" d="M282 343.1333 C282 343.1333 280.6253 346.1347 281 348.1333 C281.915 353.0132 282.3924 354.1354 285 359.1333 C288.2227 365.3102 288.5947 368.542 293 371.1333 C301.9828 376.4173 307.8945 378.6608 319 379.1333 C327.7463 379.5055 333.2879 378.0791 340 373.1333 C348.7688 366.6721 353.4654 361.3443 357 351.1333 C360.8466 340.021 360.8584 330.808 358 321.1333 C356.2548 315.2264 351.1145 312.8927 344 307.1333 C341.3521 304.9898 337 304.1333 337 304.1333 "/>
<path id="5" d="M190 328.1333 C190 328.1333 192.8701 328.7435 193 329.1333 C193.5197 330.6925 194.2764 334.5806 193 337.1333 C189.8888 343.3557 186.5672 347.9363 182 351.1333 C180.0238 352.5167 174.7864 352.3243 173 351.1333 C170.4858 349.4572 167 341.1333 167 341.1333 "/>
<path id="6" d="M162 335.1333 C162 335.1333 161.586 362.4607 164 365.1333 C165.8582 367.1906 179.8588 367.8235 190 366.1333 C194.3836 365.4027 195.7948 363.0911 200 359.1333 C203.9218 355.4422 205.1851 354.6705 207 350.1333 C209.6454 343.5198 210 334.1333 210 334.1333 "/>
<path id="7" d="M196 226.1333 C196 226.1333 194.1086 224.1333 193 224.1333 C188.935 224.1333 185.3959 224.2231 182 226.1333 C179.4968 227.5414 178.128 229.7493 177 233.1333 C175.5249 237.5586 176 238.7159 176 244.1333 C176 250.0433 175.7708 251.2165 177 256.1333 C177.4766 258.0398 178.2552 258.5472 180 260.1333 C183.5374 263.3492 184.9113 265.447 188 266.1333 C191.1623 266.8361 196.3212 265.8122 198 264.1333 C200.2384 261.8949 201.3185 257.8121 202 252.1333 C202.7033 246.2725 202.731 242.2492 201 239.1333 C199.723 236.8348 194.6413 236.5105 192 234.1333 C191.1 233.3233 191 230.1333 191 230.1333 "/>
<path id="8" d="M269 235.1333 C269 235.1333 264.1857 235.0405 262 236.1333 C260.5429 236.8619 259.3347 238.3483 259 240.1333 C258.1197 244.8283 258.1344 250.883 259 252.1333 C259.5216 252.8867 264.0045 253.5773 268 253.1333 C272.1952 252.6672 274.5233 251.9345 277 250.1333 C278.2484 249.2254 277.6003 246.708 279 245.1333 C280.9274 242.965 284.2811 242.8107 285 241.1333 C286.0939 238.5808 286.6071 233.8118 285 231.1333 C281.143 224.7049 276.8688 220.3603 270 216.1333 C266.7073 214.1071 263.6546 214.4351 259 215.1333 C254.8816 215.7511 251.802 216.7768 250 219.1333 C247.3408 222.6108 246.9784 225.7739 246 232.1333 C245.0658 238.2054 244.9093 239.6797 246 245.1333 C246.6544 248.4055 248.5897 251.3641 250 252.1333 C251.1643 252.7684 257 251.1333 257 251.1333 "/>
<path id="9" d="M200 286.1333 C200 286.1333 204.8534 281.113 210 278.1333 C213.7767 275.9468 214.5482 275.6392 219 275.1333 C235.7889 273.2255 254 273.1333 254 273.1333 "/>
<path id="10" d="M206 302.1333 C206 302.1333 207.7018 298.3873 209 298.1333 C224.093 295.1803 252 293.1333 252 293.1333 "/>
<path id="11" d="M216 307.1333 L245 307.1333 "/>
<path id="12" d="M328 196.1333 C328 196.1333 330.1738 191.8829 333 190.1333 C339.5945 186.051 342.1078 187.3286 349 183.1333 C352.8307 180.8016 352.6274 178.2088 356 176.1333 C357.9731 174.9191 359.624 176.3214 362 175.1333 C367.8487 172.209 368.1909 169.6229 374 167.1333 C377.55 165.6119 379.7196 167.8343 383 166.1333 C391.5264 161.7122 391.7027 157.2009 401 153.1333 C414.1487 147.3808 427.6511 143.8114 431 145.1333 C433.1308 145.9744 437.1499 156.5973 439 168.1333 C445.4337 208.2496 444.686 215.9224 448 251.1333 C448.0753 251.9337 447.3171 253.1054 447 253.1333 C438.082 253.9202 430.0066 252.5 414 254.1333 C406.0658 254.9429 404.5586 254.5689 398 258.1333 C383.0548 266.2557 382.7976 272.2826 368 279.1333 C358.3695 283.5919 355.6404 280.4727 344 283.1333 C338.4334 284.4057 336.893 284.3853 333 287.1333 C329.7199 289.4487 328.0926 294.4049 327 295.1333 C326.8393 295.2404 324.9754 293.0637 324 293.1333 C320.1717 293.4068 313 296.1333 313 296.1333 "/>
<path id="13" d="M450 256.1333 C450 256.1333 442.8537 268.7672 440 281.1333 C437.1302 293.5691 440.4372 306.1023 438 308.1333 C434.3691 311.1591 412.2586 308.308 404 311.1333 C402.2502 311.7319 400.1097 316.635 400 321.1333 C399.664 334.9108 401.3565 346.2897 403 352.1333 C403.1387 352.6265 407.498 352.1946 409 353.1333 C410.0203 353.771 410.2504 356.9334 411 357.1333 C414.1775 357.9807 417.553 357.4264 424 357.1333 C428.4858 356.9294 430.1586 357.4447 433 356.1333 C434.8942 355.2591 435.0215 352.4524 437 351.1333 C438.5289 350.1141 441.3176 350.9864 442 350.1333 C443.556 348.1884 444.5629 345.5041 445 341.1333 C445.9869 331.2639 447.4976 327.626 445 320.1333 C442.7403 313.3543 438.7565 309.5815 433 305.1333 C430.1828 302.9564 423 303.1333 423 303.1333 "/>
<path id="14" d="M403 305.1333 C403 305.1333 389.3294 312.8446 386 319.1333 C383.0283 324.7466 385 339.1333 385 339.1333 "/>
<path id="15" d="M391 310.1333 C391 310.1333 387.8108 313.6128 385 314.1333 C376.1661 315.7692 364 315.1333 364 315.1333 "/>
<path id="16" d="M376 336.1333 C376 336.1333 374.6669 343.9118 376 348.1333 C376.9881 351.2624 379.6557 354.6124 382 355.1333 C388.4469 356.566 393.8607 355.5394 403 354.1333 C405.3596 353.7703 408 351.1333 408 351.1333 "/>
<path id="17" d="M360 337.1333 C360 337.1333 359.7244 345.3933 361 351.1333 C361.4185 353.0168 362.5418 354.6667 364 355.1333 C371.9317 357.6715 375.0897 358.0143 386 359.1333 C394.2764 359.9822 396.4762 360.3195 403 359.1333 C405.1978 358.7337 408 355.1333 408 355.1333 "/>
<path id="18" d="M344 220.1333 C344 220.1333 348.9388 215.8853 354 214.1333 C361.1405 211.6616 362.8637 213.682 370 211.1333 C376.0614 208.9686 375.9154 206.4736 382 204.1333 C388.2758 201.7196 390.6494 203.9997 396 201.1333 C403.0035 197.3814 403.0347 192.616 410 189.1333 C416.0946 186.086 425.9738 186.035 426 186.1333 C427.3045 191.0254 426 249.1333 426 249.1333 "/>
</g>
</g>
</svg>
