<?xml version="1.0" encoding="utf-8"?>
<!DOCTYPE svg PUBLIC "-//W3C//DTD SVG 1.1//EN" "http://www.w3.org/Graphics/SVG/1.1/DTD/svg11.dtd">
<svg viewBox="0 0 800 800" preserveAspectRatio="xMinYMin meet" xmlns="http://www.w3.org/2000/svg" version="1.1">
<g fill="none" stroke="black" stroke-linecap="round" stroke-linejoin="round" stroke-width="1.5169">
<g transform="translate(87.52,291.2253) scale(1.9777) translate(-89,-182.1333)">
<path id="0" d="M94 225.1333 L90 250.1333 "/>
<path id="1" d="M94 227.1333 C94 227.1333 107.9997 229.7218 112 227.1333 C118.7194 222.7855 121.4165 215.5895 128 205.1333 C129.1555 203.2981 127.9143 201.4602 129 200.1333 C131.3409 197.2722 133.5515 194.4782 137 194.1333 C157.8515 192.0482 186.8513 191.0756 189 194.1333 C193.3513 200.3256 192.948 265.2658 189 268.1333 C182.2885 273.008 133.6969 266.3412 94 263.1333 C92.2348 262.9907 90.324 261.3483 90 260.1333 C89.044 256.5483 90 248.1333 90 248.1333 "/>
<path id="2" d="M202 189.1333 L202 268.1333 "/>
<path id="3" d="M203 183.1333 L203 196.1333 "/>
<path id="4" d="M204 182.1333 C204 182.1333 379.0666 173.9886 399 183.1333 C403.0152 184.9753 398 271.1333 398 271.1333 "/>
<path id="5" d="M201 269.1333 L405 271.1333 "/>
<path id="6" d="M193 247.1333 C193 247.1333 201.0002 247.1331 201 247.1333 C200.9997 247.1336 193.1954 247.6697 191 249.1333 C189.8377 249.9082 188.9072 255.0743 189 255.1333 C189.6961 255.5763 202 256.1333 202 256.1333 "/>
<path id="7" d="M193 262.1333 C193 262.1333 191.982 260.1378 192 260.1333 C192.3235 260.0524 201 260.1333 201 260.1333 "/>
<path id="8" d="M190 263.1333 L206 263.1333 "/>
<path id="9" d="M194 252.1333 L200 252.1333 "/>
<path id="10" d="M261 263.1333 C261 263.1333 254.2726 253.4767 249 251.1333 C244.4372 249.1054 237.3009 249.2676 234 251.1333 C230.6226 253.0423 227.304 258.1024 226 264.1333 C223.8753 273.9599 224.8613 283.1988 226 288.1333 C226.1606 288.8292 229.0566 289.8658 232 290.1333 C244.899 291.306 256.7059 292.8737 259 291.1333 C260.7002 289.8435 261.6221 277.1538 261 268.1333 C260.8292 265.6571 257 262.1333 257 262.1333 "/>
<path id="11" d="M341 258.1333 C341 258.1333 333.7579 255.1939 330 256.1333 C324.6316 257.4754 318.6841 260.7652 317 264.1333 C314.9094 268.3145 315.575 274.7234 317 282.1333 C317.7094 285.8225 319.8841 289.5288 322 290.1333 C330.8783 292.67 350.2417 293.6572 352 292.1333 C353.5094 290.8251 354.4671 272.2075 352 264.1333 C350.999 260.8572 341 256.1333 341 256.1333 "/>
<path id="12" d="M335 257.1333 L335 291.1333 "/>
<path id="13" d="M322 287.1333 C322 287.1333 325.6342 286.8192 326 286.1333 C327.8834 282.602 327.0282 274.8575 330 272.1333 C334.8255 267.71 350 264.1333 350 264.1333 "/>
<path id="14" d="M323 264.1333 C323 264.1333 323.8449 269.3926 326 271.1333 C334.5439 278.0342 349 285.1333 349 285.1333 "/>
<path id="15" d="M243 247.1333 L242 291.1333 "/>
<path id="16" d="M227 287.1333 C227 287.1333 226.3669 283.7664 227 283.1333 C231.1152 279.0181 235.3965 278.2086 242 272.1333 C247.531 267.0448 252 260.1333 252 260.1333 "/>
<path id="17" d="M232 258.1333 C232 258.1333 236.2188 259.0938 239 261.1333 C243.192 264.2074 244.0901 265.0595 247 269.1333 C248.5762 271.34 247.6149 273.7483 249 275.1333 C250.7313 276.8646 253.7396 276.3753 256 278.1333 C257.2378 279.0961 258 282.1333 258 282.1333 "/>
<path id="18" d="M144 260.1333 C144 260.1333 138.1846 255.5473 133 254.1333 C128.4868 252.9025 125.064 252.6013 122 254.1333 C118.1004 256.0831 114.127 259.907 113 264.1333 C111.2065 270.8591 112.8352 283.5352 114 284.1333 C117.6677 286.0167 139.0804 285.0443 150 283.1333 C151.5244 282.8666 153.3507 279.8927 154 277.1333 C155.0289 272.7604 155.5844 268.1837 154 266.1333 C150.5235 261.6343 137 255.1333 137 255.1333 "/>
<path id="19" d="M134 255.1333 L124 282.1333 "/>
<path id="20" d="M115 276.1333 C115 276.1333 117.896 272.2348 121 271.1333 C131.8319 267.2898 135.529 268.499 146 265.1333 C147.5415 264.6379 149 262.1333 149 262.1333 "/>
<path id="21" d="M120 256.1333 C120 256.1333 126.3691 256.0817 127 257.1333 C131.3196 264.3326 138 286.1333 138 286.1333 "/>
<path id="22" d="M163 194.1333 L162 231.1333 "/>
<path id="23" d="M115 225.1333 L164 226.1333 "/>
<path id="24" d="M93 235.1333 C93 235.1333 90.0039 235.1057 90 235.1333 C89.9382 235.566 92 242.1333 92 242.1333 "/>
<path id="25" d="M91 245.1333 C91 245.1333 91.0306 243.1486 91 243.1333 C90.9542 243.1104 89.0705 243.7809 89 244.1333 C88.5469 246.3989 88.4548 252.4324 89 253.1333 C89.3298 253.5574 96 253.1333 96 253.1333 "/>
<path id="26" d="M203 196.1333 C203 196.1333 263.5401 196.0697 323 195.1333 C326.4758 195.0786 329.9952 194.162 330 194.1333 C330.0088 194.0803 323.9749 189.1423 324 189.1333 C324.1191 189.0908 344 189.1333 344 189.1333 "/>
</g>
</g>
</svg>
