<?xml version="1.0" encoding="utf-8"?>
<!DOCTYPE svg PUBLIC "-//W3C//DTD SVG 1.1//EN" "http://www.w3.org/Graphics/SVG/1.1/DTD/svg11.dtd">
<svg viewBox="0 0 800 800" preserveAspectRatio="xMinYMin meet" xmlns="http://www.w3.org/2000/svg" version="1.1">
<g fill="none" stroke="black" stroke-linecap="round" stroke-linejoin="round" stroke-width="2.9234">
<g transform="translate(87.52,317.9034) scale(1.0262) translate(-4,-167.1333)">
<path id="0" d="M136 239.1333 L136 289.1333 "/>
<path id="1" d="M136 240.1333 C136 240.1333 331.7993 244.0603 362 241.1333 C362.4317 241.0915 363 218.1333 363 218.1333 "/>
<path id="2" d="M363 218.1333 L364 180.1333 "/>
<path id="3" d="M364 180.1333 L372 178.1333 "/>
<path id="4" d="M379 178.1333 L397 174.1333 "/>
<path id="5" d="M398 174.1333 L403 174.1333 "/>
<path id="6" d="M458 174.1333 L455 174.1333 "/>
<path id="7" d="M409 173.1333 L399 173.1333 "/>
<path id="8" d="M368 181.1333 C368 181.1333 409.9238 182.7615 449 181.1333 C456.3167 180.8285 462.9971 176.5204 464 177.1333 C464.9718 177.7272 466.5722 184.7181 467 192.1333 C468.0432 210.2156 466.3106 215.6904 467 229.1333 C467.0392 229.8972 468.2512 231.1119 469 231.1333 C493.7506 231.8405 529.8081 228.0662 537 231.1333 C538.3081 231.6912 538.059 248.4846 537 260.1333 C536.844 261.8496 535.7366 263.0169 534 264.1333 C529.5694 266.9816 523 269.1333 523 269.1333 "/>
<path id="9" d="M531 269.1333 C531 269.1333 523.9694 272.6741 518 273.1333 C512.2376 273.5766 505 271.1333 505 271.1333 "/>
<path id="10" d="M485 268.1333 C485 268.1333 479.0862 267.1111 478 268.1333 C474.1117 271.7929 471.7546 283.4437 468 284.1333 C442.3571 288.8433 380 286.1333 380 286.1333 "/>
<path id="11" d="M521 274.1333 C521 274.1333 499.1129 272.3164 487 274.1333 C484.5418 274.5021 481.9215 277.369 481 280.1333 C479.2339 285.4317 479.164 289.0026 480 295.1333 C480.4244 298.2455 481.5814 300.0603 484 302.1333 C487.4551 305.0949 489.0647 305.6527 494 307.1333 C498.4203 308.4594 501.0572 309.0529 504 308.1333 C506.3922 307.3858 509.0785 304.8977 510 302.1333 C511.7661 296.835 512.5129 291.6719 511 287.1333 C509.7622 283.42 502 278.1333 502 278.1333 "/>
<path id="12" d="M236 284.1333 L234 283.1333 "/>
<path id="13" d="M229 281.1333 L222 280.1333 "/>
<path id="14" d="M210 280.1333 L208 280.1333 "/>
<path id="15" d="M206 283.1333 L203 286.1333 "/>
<path id="16" d="M201 287.1333 L201 289.1333 "/>
<path id="17" d="M200 290.1333 L200 291.1333 "/>
<path id="18" d="M200 291.1333 C200 291.1333 199.2621 304.5404 200 314.1333 C200.1012 315.4487 200.8577 316.5183 202 317.1333 C206.1559 319.3711 207.663 320.3123 213 321.1333 C219.8921 322.1937 221.2202 322.0578 228 321.1333 C231.3488 320.6767 232.589 320.1425 235 318.1333 C237.7494 315.8422 239.4165 314.2844 240 311.1333 C241.4725 303.1819 241.4011 298.1387 240 291.1333 C239.5797 289.0317 235 286.1333 235 286.1333 "/>
<path id="19" d="M233 284.1333 C233 284.1333 227.2621 280.1453 222 279.1333 C215.4012 277.8643 213.5316 277.9974 207 279.1333 C203.2136 279.7918 200.9694 280.9669 199 283.1333 C197.4594 284.828 197 290.1333 197 290.1333 "/>
<path id="20" d="M225 300.1333 C225 300.1333 216.5027 299.7563 216 300.1333 C215.8045 300.28 216.4133 305.7422 217 306.1333 C217.9386 306.7591 224.2809 306.5828 225 306.1333 C225.2809 305.9578 225 301.1333 225 301.1333 "/>
<path id="21" d="M497 292.1333 C497 292.1333 496.76 295.8133 497 296.1333 C497.135 296.3133 499.865 296.3133 500 296.1333 C500.24 295.8133 500.2 292.5333 500 292.1333 C499.95 292.0333 498 292.1333 498 292.1333 "/>
<path id="22" d="M498 292.1333 L488 283.1333 "/>
<path id="23" d="M500 297.1333 L500 301.1333 "/>
<path id="24" d="M498 297.1333 L493 295.1333 "/>
<path id="25" d="M499 293.1333 L499 290.1333 "/>
<path id="26" d="M501 295.1333 L504 296.1333 "/>
<path id="27" d="M218 303.1333 L220 312.1333 "/>
<path id="28" d="M222 307.1333 L231 305.1333 "/>
<path id="29" d="M224 304.1333 L208 304.1333 "/>
<path id="30" d="M206 304.1333 L207 303.1333 "/>
<path id="31" d="M220 303.1333 L221 298.1333 "/>
<path id="32" d="M220 294.1333 L220 300.1333 "/>
<path id="33" d="M506 278.1333 C506 278.1333 504.9668 274.6167 504 274.1333 C501.9455 273.1061 496 273.1333 496 273.1333 "/>
<path id="34" d="M486 273.1333 L475 277.1333 "/>
<path id="35" d="M404 205.1333 C404 205.1333 402.4958 228.9938 404 230.1333 C406.6208 232.1188 420.6101 230.5236 437 230.1333 C441.4818 230.0266 445.815 229.6882 446 229.1333 C447.2022 225.5266 446 203.1333 446 203.1333 "/>
<path id="36" d="M410 205.1333 L446 205.1333 "/>
<path id="37" d="M415 173.1333 C415 173.1333 452.6274 170.9123 461 172.1333 C461.5782 172.2177 463 180.1333 463 180.1333 "/>
<path id="38" d="M367 183.1333 C367 183.1333 364.9579 168.1402 365 168.1333 C374.3959 166.5993 446.0242 166.5697 465 167.1333 C465.2124 167.1396 466 171.1333 466 171.1333 "/>
<path id="39" d="M466 171.1333 L466 174.1333 "/>
<path id="40" d="M244 303.1333 C244 303.1333 315.4435 305.9841 375 305.1333 C379.1185 305.0745 382.6219 303.0627 384 301.1333 C385.4159 299.1511 385 291.1333 385 291.1333 "/>
<path id="41" d="M385 291.1333 L385 290.1333 "/>
<path id="42" d="M138 289.1333 C138 289.1333 144.149 306.0502 148 307.1333 C161.8061 311.0163 202 307.1333 202 307.1333 "/>
<path id="43" d="M385 302.1333 C385 302.1333 461.5119 303.7855 472 301.1333 C472.6383 300.9719 472 280.1333 472 280.1333 "/>
<path id="44" d="M520 276.1333 C520 276.1333 519.2683 287.548 520 288.1333 C521.1433 289.048 534.5318 288.9449 535 288.1333 C536.4068 285.6949 535 262.1333 535 262.1333 "/>
<path id="45" d="M535 262.1333 L523 271.1333 "/>
<path id="46" d="M4 326.1333 C4 326.1333 127.241 328.051 247 327.1333 C255.8826 327.0653 265 324.1333 265 324.1333 "/>
<path id="47" d="M451 317.1333 C451 317.1333 464.1832 319.6104 476 318.1333 C495.0612 315.7507 495.6825 310.6844 515 309.1333 C562.7364 305.3005 613 307.1333 613 307.1333 "/>
<path id="48" d="M286 326.1333 C286 326.1333 342.6615 329.8503 397 327.1333 C421.2185 325.9224 446 318.1333 446 318.1333 "/>
</g>
</g>
</svg>
