<?xml version="1.0" encoding="utf-8"?>
<!DOCTYPE svg PUBLIC "-//W3C//DTD SVG 1.1//EN" "http://www.w3.org/Graphics/SVG/1.1/DTD/svg11.dtd">
<svg viewBox="0 0 800 800" preserveAspectRatio="xMinYMin meet" xmlns="http://www.w3.org/2000/svg" version="1.1">
<g fill="none" stroke="black" stroke-linecap="round" stroke-linejoin="round" stroke-width="2.4338">
<g transform="translate(87.52,240.3702) scale(1.2327) translate(-60,-107.1333)">
<path id="0" d="M78 355.1333 C78 355.1333 81.4766 326.0772 83 297.1333 C83.9674 278.7525 84.7488 277.9131 83 260.1333 C81.8377 248.3169 81.2788 247.2078 77 236.1333 C73.0575 225.9292 69.5259 226.2963 66 216.1333 C61.3985 202.8701 60.9639 201.3986 60 187.1333 C58.5272 165.3355 57.6051 160.3426 61 142.1333 C62.1919 135.7403 65.4803 133.1512 71 128.1333 C75.2391 124.2796 76.9458 123.3885 83 122.1333 C116.0418 115.2832 118.232 112.9899 153 111.1333 C219.9871 107.5563 225.824 112.8642 289 111.1333 C293.6962 111.0047 294.1762 108.2053 299 107.1333 C302.544 106.3458 303.3085 106.395 307 107.1333 C315.3058 108.7945 317.0186 108.5134 324 112.1333 C329.2261 114.8432 330.1871 116.199 334 121.1333 C338.1963 126.5638 338.5897 127.4585 341 134.1333 C344.9066 144.9515 345.0438 145.5593 347 157.1333 C350.9927 180.7566 351.9239 181.1898 353 205.1333 C355.9002 269.6627 355 335.1333 355 335.1333 "/>
<path id="1" d="M355 335.1333 C355 335.1333 330.9994 345.0575 308 349.1333 C293.126 351.7692 290.8857 351.2599 276 349.1333 C264.3041 347.4625 263.2604 342.1041 252 341.1333 C236.6114 339.8067 218 344.1333 218 344.1333 "/>
<path id="2" d="M218 344.1333 C218 344.1333 213.7062 339.2521 212 334.1333 C208.4927 323.6115 210.4051 321.3485 207 311.1333 C205.8036 307.5442 204.9204 307.0537 202 304.1333 C194.6991 296.8324 193.13 293.2527 186 290.1333 C180.8439 287.8775 174.6343 287.9817 170 290.1333 C164.7761 292.5587 163.5799 298.2509 158 303.1333 C156.8363 304.1516 154.6121 303.3464 154 304.1333 C152.4615 306.1114 152.905 309.1398 151 312.1333 C149.9339 313.8086 147.2238 313.9027 147 315.1333 C145.1772 325.1587 145 345.1333 145 345.1333 "/>
<path id="3" d="M145 345.1333 C145 345.1333 117.4069 344.5868 94 348.1333 C86.694 349.2403 79 355.1333 79 355.1333 "/>
<path id="4" d="M159 351.1333 C159 351.1333 158.2862 336.1579 160 323.1333 C160.6413 318.2598 161.3357 317.4371 164 313.1333 C167.5388 307.4168 169.1831 304.4659 173 302.1333 C175.1849 300.7981 178.1178 301.3569 182 302.1333 C184.8469 302.7027 186.0857 303.0994 188 305.1333 C193.183 310.6403 194.3662 311.8657 198 319.1333 C202.0163 327.166 202.3032 328.3664 204 337.1333 C205.1512 343.0812 205.9478 346.2378 204 350.1333 C200.7038 356.7257 196.379 361.841 190 365.1333 C184.8609 367.7858 178.7739 367.9959 173 366.1333 C166.9246 364.1735 162.5586 360.1154 159 355.1333 C157.1844 352.5915 158 345.1333 158 345.1333 "/>
<path id="5" d="M349 146.1333 C349 146.1333 349.3341 143.609 350 143.1333 C351.5741 142.009 353.0961 141.3567 356 141.1333 C365.4376 140.4074 366.3834 139.9885 376 141.1333 C386.8645 142.4267 390.6149 142.0835 398 146.1333 C402.6506 148.6836 404.549 152.0059 407 158.1333 C410.9278 167.9529 410.9456 169.7106 412 181.1333 C413.8917 201.6268 413 223.1333 413 223.1333 "/>
<path id="6" d="M410 162.1333 C410 162.1333 416.949 160.8541 421 162.1333 C424.644 163.2841 426.3526 164.6586 429 168.1333 C433.6174 174.1936 434.4684 175.5384 437 183.1333 C440.2004 192.7344 439.875 193.7272 441 204.1333 C441.8398 211.9019 441.6397 214.376 441 220.1333 C440.9112 220.933 439.9757 221.8978 439 222.1333 C427.9149 224.8091 412 227.1333 412 227.1333 "/>
<path id="7" d="M443 220.1333 C443 220.1333 446.521 232.022 449 233.1333 C453.8207 235.2943 461.137 234.3403 472 233.1333 C478.3499 232.4278 478.6975 229.4835 485 229.1333 C513.1231 227.5709 522.2661 225.7661 544 229.1333 C549.0482 229.9155 551.7742 234.7002 556 240.1333 C557.7781 242.4194 557.3613 243.5917 558 247.1333 C562.8262 273.8969 563.407 274.3858 567 301.1333 C567.846 307.4315 568.0907 308.6797 567 314.1333 C566.3456 317.4055 565.1867 319.8673 563 321.1333 C558.2979 323.8556 555.3601 324.5069 548 325.1333 C532.6469 326.44 521.1378 328.4362 516 325.1333 C511.6077 322.3097 511.7355 310.9539 506 298.1333 C503.4248 292.377 502.9529 292.0745 499 287.1333 C495.1423 282.3112 494.8528 281.4421 490 278.1333 C484.5206 274.3974 483.199 273.824 477 272.1333 C473.1882 271.0937 471.776 271.1397 468 272.1333 C463.2524 273.3827 462.2098 274.0314 458 277.1333 C453.1911 280.6767 452.628 281.296 449 286.1333 C445.4296 290.8938 444.7585 291.6379 443 297.1333 C441.0074 303.3603 443.5197 305.734 441 311.1333 C437.3554 318.9431 434.9869 324.4333 429 327.1333 C415.8654 333.0568 409.3311 331.8398 390 334.1333 C380.2933 335.285 379.5406 335.2237 370 334.1333 C362.6265 333.2906 355 330.1333 355 330.1333 "/>
<path id="8" d="M417 229.1333 L353 234.1333 "/>
<path id="9" d="M451 331.1333 C451 331.1333 448.1863 319.8123 449 311.1333 C449.5121 305.6713 450.8596 304.5767 454 299.1333 C458.171 291.9036 459.2048 288.4691 464 285.1333 C467.4961 282.7013 471.6989 282.8543 477 283.1333 C479.5315 283.2666 481.2966 284.1105 483 286.1333 C488.1659 292.2678 490.2258 293.9738 493 302.1333 C498.2024 317.4346 500.2581 324.7778 500 336.1333 C499.9224 339.5499 496.2107 343.4538 492 346.1333 C487.1497 349.2199 484.8635 349.3489 478 350.1333 C468.0303 351.2727 463.9288 352.3684 457 350.1333 C452.6362 348.7257 449.1857 344.5047 447 340.1333 C445.5429 337.2191 445.9721 334.4505 447 330.1333 C448.253 324.8705 452 319.1333 452 319.1333 "/>
<path id="10" d="M532 248.1333 C532 248.1333 530.4051 260.9691 532 272.1333 C533.2531 280.9052 538 290.1333 538 290.1333 "/>
<path id="11" d="M543 253.1333 C543 253.1333 539.1753 253.6368 539 254.1333 C537.786 257.5729 537 264.9237 537 270.1333 C537 270.7845 538.5142 272.1333 539 272.1333 C540.2144 272.1333 543.7616 270.8963 544 270.1333 C544.937 267.1349 544.245 257.8483 544 256.1333 C543.995 256.0983 542 256.1333 542 256.1333 "/>
</g>
</g>
</svg>
