<?xml version="1.0" encoding="utf-8"?>
<!DOCTYPE svg PUBLIC "-//W3C//DTD SVG 1.1//EN" "http://www.w3.org/Graphics/SVG/1.1/DTD/svg11.dtd">
<svg viewBox="0 0 800 800" preserveAspectRatio="xMinYMin meet" xmlns="http://www.w3.org/2000/svg" version="1.1">
<g fill="none" stroke="black" stroke-linecap="round" stroke-linejoin="round" stroke-width="1.6753">
<g transform="translate(194.0676,87.52) scale(1.7907) translate(-164.8,-69.8)">
<path id="0" d="M164.8 69.8 C164.8 69.8 189.825 72.3071 214.8 72.8 C265.6887 73.8044 266.1925 71.3115 316.8 72.8 C333.7275 73.2979 350.8 76.8 350.8 76.8 "/>
<path id="1" d="M164.8 70.8 C164.8 70.8 171.4487 113.4029 172.8 155.8 C175.4311 238.3514 171.0504 240.4416 172.8 321.8 C173.0117 331.6444 177.0812 332.3797 176.8 341.8 C176.1327 364.1555 170.8 388.8 170.8 388.8 "/>
<path id="2" d="M350.8 77.8 C350.8 77.8 347.9993 83.9218 347.8 89.8 C346.0541 141.3039 349.5834 144.5051 346.8 195.8 C346.1878 207.0818 341.4969 207.5329 340.8 218.8 C338.5933 254.475 341.2592 256.5208 340.8 292.8 C340.7689 295.2575 340.306 297.1675 339.8 297.8 C339.5906 298.0617 336.8023 297.7706 336.8 297.8 C336.4273 302.5206 335.8899 316.9905 336.8 335.8 C337.3783 347.7516 339.4393 347.8971 339.8 359.8 C340.4284 380.5365 338.8 401.8 338.8 401.8 "/>
<path id="3" d="M351.8 76.8 C351.8 76.8 364.1015 92.7387 377.8 105.8 C385.0619 112.7242 394.8 117.8 394.8 117.8 "/>
<path id="4" d="M394.8 117.8 C394.8 117.8 395.8414 123.7232 394.8 128.8 C391.9938 142.4801 387.0795 143.289 386.8 156.8 C384.2001 282.4616 388.8 418.8 388.8 418.8 "/>
<path id="5" d="M171.8 390.8 C171.8 390.8 178.6788 389.7798 184.8 390.8 C196.1006 392.6834 198.0877 393.4381 207.8 396.8 C209.3641 397.3414 209.5152 399.6443 210.8 399.8 C235.0947 402.7448 242.8932 400.7687 273.8 404.8 C288.3245 406.6945 288.5004 410.2112 302.8 411.8 C319.1271 413.6141 332.7228 412.6394 336.8 411.8 C336.9728 411.7644 336.4231 405.4596 336.8 404.8 C336.9231 404.5846 340.1631 405.1822 340.8 404.8 C341.2459 404.5325 341.8 401.8 341.8 401.8 "/>
<path id="6" d="M336.8 412.8 C336.8 412.8 348.4078 411.1899 357.8 412.8 C364.5215 413.9523 365.0808 417.6801 371.8 418.8 C381.6548 420.4425 393.8 418.8 393.8 418.8 "/>
<path id="7" d="M179.8 86.8 C179.8 86.8 188.1956 97.1365 188.8 105.8 C190.8568 135.2804 185.8 172.8 185.8 172.8 "/>
<path id="8" d="M185.8 172.8 C185.8 172.8 201.8409 172.0551 215.8 173.8 C220.6654 174.4082 221.047 177.4778 225.8 177.8 C248.4748 179.3373 250.6459 176.7344 274.8 177.8 C284.2311 178.2161 284.6319 178.4592 293.8 180.8 C307.8532 184.388 309.7829 188.3694 321.8 189.8 C327.3902 190.4655 335.8 185.8 335.8 185.8 "/>
<path id="9" d="M335.8 185.8 L334.8 96.8 "/>
<path id="10" d="M334.8 96.8 L334.8 92.8 "/>
<path id="11" d="M334.8 92.8 C334.8 92.8 316.5186 94.0656 298.8 92.8 C281.89 91.5921 281.7249 88.606 264.8 87.8 C219.2981 85.6332 172.8 86.8 172.8 86.8 "/>
<path id="12" d="M191.8 192.8 C191.8 192.8 185.9601 250.5383 189.8 258.8 C191.055 261.5003 207.3881 262.4606 224.8 263.8 C239.5623 264.9356 240.2132 262.3652 254.8 263.8 C270.16 265.3108 270.8855 265.6571 285.8 269.8 C297.4424 273.034 297.7301 275.9535 308.8 278.8 C314.0476 280.1494 320.7595 279.0432 320.8 278.8 C322.2595 270.0432 324.8508 218.9523 320.8 206.8 C319.9748 204.3245 307.6273 201.9318 294.8 200.8 C274.4924 199.0082 273.4876 202.161 252.8 200.8 C235.8909 199.6876 235.284 199.0968 218.8 195.8 C213.2425 194.6885 213.137 192.6211 207.8 191.8 C200.9079 190.7397 192.8 191.8 192.8 191.8 "/>
<path id="13" d="M191.8 276.8 C191.8 276.8 189.2565 291.3442 188.8 305.8 C187.7645 338.5924 186.4163 364.3084 188.8 371.8 C189.0413 372.5584 200.6181 370.3191 209.8 371.8 C214.5249 372.5621 214.8919 375.5196 219.8 376.8 C225.5576 378.302 226.5821 376.4372 232.8 377.8 C262.5687 384.3247 263.3166 387.6576 292.8 392.8 C305.0423 394.9353 317.5523 394.564 318.8 392.8 C321.7257 388.6637 321.1796 372.2719 321.8 351.8 C322.6756 322.9038 325.6372 298.5965 321.8 293.8 C319.1272 290.459 297.5675 294.1586 273.8 291.8 C232.333 287.685 190.8 280.8 190.8 280.8 "/>
<path id="14" d="M200.8 161.8 C200.8 161.8 198.8121 161.0836 198.8 160.8 C198.2885 148.7788 198.8 114.8 198.8 114.8 "/>
<path id="15" d="M198.8 114.8 C198.8 114.8 217.1466 114.8385 234.8 116.8 C243.7892 117.7988 243.9376 120.3569 252.8 120.8 C282.9907 122.3095 287.0769 119.2158 314.8 120.8 C318.4794 121.0103 320.8306 122.6336 322.8 124.8 C324.3406 126.4947 324.8 128.4923 324.8 131.8 C324.8 148.3386 324.6051 165.4224 322.8 166.8 C320.8245 168.3076 304.6583 161.6783 286.8 160.8 C244.4854 158.719 200.8 160.8 200.8 160.8 "/>
<path id="16" d="M188.8 174.8 L196.8 156.8 "/>
<path id="17" d="M184.8 86.8 L214.8 107.8 "/>
<path id="18" d="M214.8 107.8 C214.8 107.8 227.3348 106.3668 238.8 107.8 C250.6235 109.2779 251.0159 113.0315 262.8 113.8 C295.6527 115.9426 330.8 113.8 330.8 113.8 "/>
<path id="19" d="M212.8 108.8 L212.8 114.8 "/>
<path id="20" d="M209.8 112.8 C209.8 112.8 208.7002 128.3361 209.8 140.8 C210.0461 143.5887 212.3755 143.9702 212.8 146.8 C213.7213 152.9423 212.8 160.8 212.8 160.8 "/>
<path id="21" d="M226.8 118.8 L226.8 159.8 "/>
<path id="22" d="M240.8 119.8 L240.8 158.8 "/>
<path id="23" d="M260.8 124.8 C260.8 124.8 263.2503 131.3872 263.8 137.8 C264.7122 148.4419 263.8 159.8 263.8 159.8 "/>
<path id="24" d="M278.8 120.8 L278.8 161.8 "/>
<path id="25" d="M298.8 120.8 L298.8 160.8 "/>
<path id="26" d="M311.8 119.8 L309.8 165.8 "/>
<path id="27" d="M206.8 141.8 L206.8 140.8 "/>
<path id="28" d="M216.8 136.8 L216.8 135.8 "/>
<path id="29" d="M216.8 135.8 L216.8 131.8 "/>
<path id="30" d="M216.8 126.8 L216.8 124.8 "/>
<path id="31" d="M216.8 124.8 L216.8 125.8 "/>
<path id="32" d="M230.8 140.8 L230.8 136.8 "/>
<path id="33" d="M231.8 132.8 L231.8 129.8 "/>
<path id="34" d="M246.8 136.8 L246.8 142.8 "/>
<path id="35" d="M248.8 146.8 L249.8 144.8 "/>
<path id="36" d="M269.8 131.8 L270.8 131.8 "/>
<path id="37" d="M270.8 131.8 L270.8 135.8 "/>
<path id="38" d="M270.8 138.8 L270.8 140.8 "/>
<path id="39" d="M285.8 142.8 L286.8 148.8 "/>
<path id="40" d="M288.8 132.8 L288.8 126.8 "/>
<path id="41" d="M308.8 146.8 L308.8 147.8 "/>
<path id="42" d="M300.8 149.8 L300.8 146.8 "/>
<path id="43" d="M203.8 215.8 C203.8 215.8 246.3208 214.3951 284.8 216.8 C292.0686 217.2543 292.4957 220.8636 299.8 221.8 C311.0079 223.2369 323.8 221.8 323.8 221.8 "/>
<path id="44" d="M207.8 215.8 C207.8 215.8 202.3315 247.4131 203.8 248.8 C206.0132 250.8903 224.5156 247.1401 243.8 249.8 C267.1103 253.0152 267.4762 257.1651 290.8 260.8 C305.2382 263.0501 320.8 261.8 320.8 261.8 "/>
<path id="45" d="M186.8 254.8 C186.8 254.8 192.5026 256.0562 195.8 254.8 C201.3131 252.6998 207.8 246.8 207.8 246.8 "/>
<path id="46" d="M212.8 216.8 L197.8 195.8 "/>
<path id="47" d="M215.8 219.8 L216.8 243.8 "/>
<path id="48" d="M226.8 214.8 C226.8 214.8 230.1585 219.9888 230.8 224.8 C232.018 233.9352 230.8 244.8 230.8 244.8 "/>
<path id="49" d="M245.8 219.8 L245.8 246.8 "/>
<path id="50" d="M258.8 214.8 L260.8 251.8 "/>
<path id="51" d="M282.8 219.8 L282.8 257.8 "/>
<path id="52" d="M296.8 222.8 L297.8 261.8 "/>
<path id="53" d="M212.8 231.8 L212.8 227.8 "/>
<path id="54" d="M212.8 227.8 L212.8 224.8 "/>
<path id="55" d="M213.8 222.8 L214.8 222.8 "/>
<path id="56" d="M220.8 227.8 L220.8 226.8 "/>
<path id="57" d="M225.8 225.8 L233.8 232.8 "/>
<path id="58" d="M237.8 240.8 L238.8 240.8 "/>
<path id="59" d="M238.8 224.8 L238.8 221.8 "/>
<path id="60" d="M252.8 228.8 L252.8 227.8 "/>
<path id="61" d="M266.8 227.8 L266.8 226.8 "/>
<path id="62" d="M294.8 252.8 L293.8 249.8 "/>
<path id="63" d="M293.8 244.8 L293.8 237.8 "/>
<path id="64" d="M294.8 231.8 L296.8 231.8 "/>
<path id="65" d="M309.8 244.8 L309.8 242.8 "/>
<path id="66" d="M190.8 366.8 C190.8 366.8 198.0497 362.3003 203.8 356.8 C209.2733 351.5647 213.8 344.8 213.8 344.8 "/>
<path id="67" d="M218.8 322.8 C218.8 322.8 216.9992 353.6701 218.8 354.8 C223.3742 357.6701 246.2856 352.6623 269.8 354.8 C276.9675 355.4516 281.4689 359.0234 284.8 360.8 C284.9952 360.9041 284.7693 362.7965 284.8 362.8 C288.2739 363.2008 297.8061 363.4178 310.8 363.8 C314.7936 363.9175 318.2336 364.2956 318.8 363.8 C319.2336 363.4206 318.8 356.8 318.8 356.8 "/>
<path id="68" d="M219.8 320.8 C219.8 320.8 235.696 321.346 249.8 324.8 C259.3421 327.1368 259.1873 329.6824 268.8 332.8 C277.3901 335.586 280.394 334.5579 286.8 336.8 C287.8071 337.1525 288.2468 339.8 288.8 339.8 C299.31 339.8 326.8 336.8 326.8 336.8 "/>
<path id="69" d="M238.8 321.8 L238.8 345.8 "/>
<path id="70" d="M220.8 320.8 C220.8 320.8 233.1268 321.1585 234.8 320.8 C234.8768 320.7835 234.377 318.3076 234.8 317.8 C235.8105 316.5874 237.4732 315.2986 239.8 314.8 C243.5112 314.0048 244.7105 313.8652 248.8 314.8 C261.4451 317.6903 262.025 321.326 274.8 322.8 C299.5287 325.6533 326.8 323.8 326.8 323.8 "/>
<path id="71" d="M314.8 324.8 L303.8 336.8 "/>
<path id="72" d="M296.8 323.8 C296.8 323.8 288.0778 322.3513 281.8 323.8 C276.6168 324.9961 270.8 329.8 270.8 329.8 "/>
<path id="73" d="M261.8 318.8 C261.8 318.8 254.3343 318.3392 251.8 318.8 C251.4544 318.8628 250.8 320.8 250.8 320.8 "/>
<path id="74" d="M254.8 320.8 L254.8 348.8 "/>
<path id="75" d="M270.8 338.8 L270.8 356.8 "/>
<path id="76" d="M288.8 342.8 L290.8 359.8 "/>
<path id="77" d="M306.8 338.8 L306.8 368.8 "/>
<path id="78" d="M238.8 340.8 L238.8 357.8 "/>
<path id="79" d="M242.8 315.8 C242.8 315.8 239.4488 315.9777 237.8 314.8 C230.2979 309.4413 230.2954 306.8945 221.8 300.8 C207.5677 290.5899 191.8 281.8 191.8 281.8 "/>
<path id="80" d="M230.8 341.8 C230.8 341.8 230.8 345.8 230.8 345.8 C230.8 345.8 230.8 341.8 230.8 341.8 "/>
<path id="81" d="M249.8 347.8 L248.8 339.8 "/>
<path id="82" d="M255.8 351.8 L255.8 354.8 "/>
<path id="83" d="M269.8 345.8 L269.8 335.8 "/>
<path id="84" d="M264.8 342.8 L263.8 342.8 "/>
<path id="85" d="M262.8 336.8 L262.8 335.8 "/>
<path id="86" d="M279.8 348.8 L279.8 344.8 "/>
<path id="87" d="M280.8 334.8 L284.8 332.8 "/>
<path id="88" d="M287.8 339.8 L297.8 329.8 "/>
</g>
</g>
</svg>
