<?xml version="1.0" encoding="utf-8"?>
<!DOCTYPE svg PUBLIC "-//W3C//DTD SVG 1.1//EN" "http://www.w3.org/Graphics/SVG/1.1/DTD/svg11.dtd">
<svg viewBox="0 0 800 800" preserveAspectRatio="xMinYMin meet" xmlns="http://www.w3.org/2000/svg" version="1.1">
<g fill="none" stroke="black" stroke-linecap="round" stroke-linejoin="round" stroke-width="2.2945">
<g transform="translate(87.52,142.4328) scale(1.3074) translate(-163,-87)">
<path id="0" d="M176 164 L637 164 "/>
<path id="1" d="M280 94 C280 94 250.8108 115.2666 220 132 C193.4152 146.4383 164 157 164 157 "/>
<path id="2" d="M269 87 C269 87 282.3919 92.8148 296 95 C350.0039 103.6722 351.0618 103.6073 406 109 C432.2405 111.5758 432.5215 110.8763 459 111 C539.4183 111.3758 620 110 620 110 "/>
<path id="3" d="M163 161 C163 161 168.4658 346.5996 182 353 C229.7034 375.5592 377.3895 355.6736 569 353 C590.3315 352.7024 612 347 612 347 "/>
<path id="4" d="M179 199 C179 199 181.1179 204.9245 183 206 C185.487 207.4212 192.2251 207.5635 193 207 C193.6305 206.5414 194.4476 198.373 194 198 C193.0475 197.2062 181 197 181 197 "/>
<path id="5" d="M186 281 C186 281 187.2206 290.2854 188 292 C188.0892 292.1963 190.5803 292.4197 191 292 C192.5389 290.4611 193.9093 288.2722 195 285 C195.6544 283.0367 195.2653 280.1474 195 280 C194.1403 279.5224 186 280 186 280 "/>
<path id="6" d="M176 184 L215 188 "/>
<path id="7" d="M174 188 C174 188 299.0591 255.9949 425 322 C464.9759 342.9512 466.2919 340.9374 506 362 C523.5351 371.3012 523.7717 371.9353 540 383 C545.4196 386.6952 550 392 550 392 "/>
<path id="8" d="M187 358 C187 358 270.7065 400.7036 355 441 C372.9283 449.5706 373.1394 450.1622 392 456 C435.6738 469.5181 481 480 481 480 "/>
<path id="9" d="M547 398 C547 398 543.3471 413.0381 538 427 C534.4656 436.2286 534.1878 436.5109 529 445 C517.815 463.3028 505 481 505 481 "/>
<path id="10" d="M224 192 C224 192 242.8344 190.6179 245 193 C249.3311 197.7643 250.7615 209.1313 254 225 C255.6466 233.0683 255 242 255 242 "/>
<path id="11" d="M244 199 C244 199 283.5428 194.012 288 198 C294.1551 203.5072 301 250 301 250 "/>
<path id="12" d="M296 205 C296 205 329.5019 203.0146 333 205 C334.1269 205.6396 331.5595 215.9168 333 226 C336.4591 250.2135 343 275 343 275 "/>
<path id="13" d="M337 218 C337 218 385.6371 214.8798 391 218 C392.9483 219.1336 390.0439 234.3512 392 250 C395.486 277.8877 402 306 402 306 "/>
<path id="14" d="M394 197 C394 197 392.6989 206.5431 394 215 C395.5846 225.3001 400 236 400 236 "/>
<path id="15" d="M396 205 C396 205 419.4586 206.9291 441 205 C451.7886 204.0339 462.9384 198.842 463 199 C464.5632 203.0099 461.6284 231.9838 464 264 C465.586 285.4109 468.8946 285.6454 471 307 C472.3493 320.6857 469.8423 321.3972 471 335 C471.7996 344.3958 473.1719 347.9064 475 354 C475.1448 354.4827 476.9955 355.018 477 355 C477.0809 354.6765 477 346 477 346 "/>
<path id="16" d="M469 204 C469 204 517.6664 201.4394 519 204 C523.9164 213.4394 517.6353 252.2359 519 300 C519.6271 321.9487 520.1444 323.1948 523 344 C523.4751 347.4614 526 351 526 351 "/>
<path id="17" d="M527 209 C527 209 566.9977 207.3315 569 209 C569.9058 209.7548 564.4713 224.0768 563 239 C561.0234 259.0488 559.9863 260.3107 562 280 C564.3645 303.1195 566.1853 304.1287 572 327 C573.5576 333.1267 576.0885 333.0755 577 339 C579.8881 357.7729 579.9999 378.9992 580 379 C580 379.0002 581 367 581 367 "/>
<path id="18" d="M572 223 C572 223 605.7562 215.455 606 216 C608.4649 221.5099 604.8362 257.8808 606 299 C606.3237 310.4365 606.5787 310.8618 609 322 C611.5104 333.5477 616 345 616 345 "/>
<path id="19" d="M604 222 C604 222 638.6977 220.0015 639 221 C642.4462 232.3829 636.1649 277.553 637 331 C637.1372 339.7787 641 349 641 349 "/>
<path id="20" d="M403 183 C403 183 403.8982 187.5869 403 191 C401.6173 196.2544 398 202 398 202 "/>
<path id="21" d="M404 182 C404 182 436.0301 186.4166 468 189 C485.3704 190.4037 503 190 503 190 "/>
<path id="22" d="M472 186 L460 201 "/>
<path id="23" d="M475 191 C475 191 492.1486 187.0634 509 185 C516.2772 184.1089 523.7303 184.5954 524 185 C524.3147 185.472 519 200 519 200 "/>
<path id="24" d="M528 192 C528 192 558.5915 190.3317 563 193 C565.0201 194.2227 566 215 566 215 "/>
<path id="25" d="M566 200 C566 200 600.9248 195.5737 605 197 C605.7463 197.2612 606 214 606 214 "/>
<path id="26" d="M610 201 C610 201 632.1785 201.5046 640 201 C640.2944 200.981 641 199 641 199 "/>
<path id="27" d="M344 178 C344 178 346.1094 184.8691 345 190 C342.4632 201.7329 336 215 336 215 "/>
<path id="28" d="M344 180 C344 180 396.4843 178.9684 397 179 C397.0366 179.0022 394.1084 180.7831 393 183 C388.1043 192.7913 384 205 384 205 "/>
<path id="29" d="M311 179 C311 179 305.8446 182.6383 303 187 C298.7893 193.4564 300.0697 195.4259 296 202 C293.9551 205.3032 290 208 290 208 "/>
<path id="30" d="M315 170 C315 170 318.9743 169.1216 322 170 C333.5031 173.3396 342.2374 176.2189 346 179 C346.6031 179.4458 346.3761 183.6223 345 187 C341.2233 196.2702 335 206 335 206 "/>
<path id="31" d="M273 170 L254 195 "/>
<path id="32" d="M270 162 C270 162 279.0563 168.0188 288 171 C294.6723 173.2241 302.9953 172.873 303 173 C303.0451 174.2168 289 198 289 198 "/>
<path id="33" d="M441 236 C441 236 434.3298 235.576 434 236 C433.4548 236.701 434 245 434 245 "/>
<path id="34" d="M432 266 C432 266 428.7259 278.8303 429 279 C430.3031 279.8067 453 279 453 279 "/>
<path id="35" d="M482 231 C482 231 480.6512 260.1635 481 264 C481.0039 264.0424 485 264 485 264 "/>
<path id="36" d="M480 286 C480 286 484.7414 285.131 488 286 C491.2858 286.8762 495 290 495 290 "/>
<path id="37" d="M494 250 C494 250 500.2147 250.7149 501 252 C503.3073 255.7756 505 268 505 268 "/>
<path id="38" d="M536 234 L537 258 "/>
<path id="39" d="M522 280 C522 280 525.7221 279.6295 526 280 C526.88 281.1734 528 288 528 288 "/>
<path id="40" d="M542 304 L544 307 "/>
<path id="41" d="M609 252 L603 252 "/>
<path id="42" d="M585 246 C585 246 586.2496 263.1451 584 276 C583.1762 280.7074 578.1099 282.154 578 286 C577.7315 295.3989 583 311 583 311 "/>
<path id="43" d="M362 235 C362 235 366.6727 235.3999 367 236 C367.926 237.6977 369.248 243.2545 368 246 C365.7774 250.8896 356.9832 257.9874 357 258 C357.2271 258.1704 382.9944 257.8391 384 258 C384.0507 258.0081 383.3413 260.9461 382 262 C377.436 265.586 373.2731 265.4931 370 269 C368.2256 270.9012 368 277 368 277 "/>
<path id="44" d="M314 224 C314 224 321.6994 227.7977 322 229 C322.4294 230.7176 318 240 318 240 "/>
</g>
</g>
</svg>
