<?xml version="1.0" encoding="utf-8"?>
<!DOCTYPE svg PUBLIC "-//W3C//DTD SVG 1.1//EN" "http://www.w3.org/Graphics/SVG/1.1/DTD/svg11.dtd">
<svg viewBox="0 0 800 800" preserveAspectRatio="xMinYMin meet" xmlns="http://www.w3.org/2000/svg" version="1.1">
<g fill="none" stroke="black" stroke-linecap="round" stroke-linejoin="round" stroke-width="1.2961">
<g transform="translate(87.52,136.128) scale(2.3147) translate(-122,-93.1333)">
<path id="0" d="M122 123.1333 C122 123.1333 125.8343 122.8184 128 124.1333 C138.3953 130.4448 138.5792 133.3847 150 140.1333 C160.1335 146.1213 172 150.1333 172 150.1333 "/>
<path id="1" d="M122 124.1333 C122 124.1333 145.849 117.1845 170 113.1333 C223.0628 104.2325 223.5842 103.8445 277 98.1333 C302.6809 95.3876 303.3035 97.9954 329 96.1333 C337.4846 95.5185 337.5706 94.106 346 93.1333 C350.3736 92.6287 352.4131 92.1384 355 93.1333 C356.7025 93.7881 356.684 96.8099 359 98.1333 C369.2292 103.9786 383 109.1333 383 109.1333 "/>
<path id="2" d="M173 150.1333 C173 150.1333 263.6481 140.6315 352 127.1333 C370.6506 124.2839 376.3447 121.1297 389 117.1333 C389.5142 116.971 390.0906 115.2421 390 115.1333 C389.301 114.2945 384 111.1333 384 111.1333 "/>
<path id="3" d="M129 126.1333 C129 126.1333 132.4466 137.6973 133 149.1333 C135.412 198.9809 135 250.1333 135 250.1333 "/>
<path id="4" d="M174 148.1333 C174 148.1333 173.0917 205.1008 170 244.1333 C169.8293 246.288 166.5251 246.9016 166 249.1333 C164.9394 253.641 166 261.1333 166 261.1333 "/>
<path id="5" d="M181 157.1333 L180 218.1333 "/>
<path id="6" d="M183 158.1333 C183 158.1333 193.6333 160.3042 203 159.1333 C216.6082 157.4323 217.0169 154.3806 231 152.1333 C244.5973 149.9481 245.219 152.0019 259 150.1333 C274.5077 148.0306 274.6402 145.6693 290 144.1333 C304.0961 142.7237 305.5123 146.4159 319 144.1333 C336.6092 141.1533 337.2211 136.7494 355 133.1333 C365.7887 130.939 377.7578 131.4397 378 132.1333 C380.1926 138.4122 377 196.1333 377 196.1333 "/>
<path id="7" d="M180 217.1333 C180 217.1333 180.7626 231.1162 181 231.1333 C190.6063 231.8278 222.1107 225.8822 263 223.1333 C281.3298 221.9011 282.2143 225.1374 300 223.1333 C316.7769 221.243 317.7397 220.2346 334 215.1333 C342.6891 212.4073 342.3779 209.74 351 207.1333 C363.2155 203.4403 372.4953 203.3461 377 202.1333 C377.0887 202.1095 377 200.1333 377 200.1333 "/>
<path id="8" d="M184 241.1333 L184 261.1333 "/>
<path id="9" d="M185 239.1333 C185 239.1333 217.6537 239.3711 250 237.1333 C296.9875 233.8826 344 228.1333 344 228.1333 "/>
<path id="10" d="M356 225.1333 C356 225.1333 374.9132 217.9839 375 218.1333 C375.8055 219.5205 374 256.1333 374 256.1333 "/>
<path id="11" d="M356 225.1333 L337 228.1333 "/>
<path id="12" d="M184 254.1333 C184 254.1333 184.3536 294.1867 185 300.1333 C185.0061 300.1894 187.1173 300.5099 189 300.1333 C233.6199 291.2093 234.3346 289.0751 280 281.1333 C326.1286 273.111 351.463 274.3502 373 268.1333 C374.8542 267.5981 377 253.1333 377 253.1333 "/>
<path id="13" d="M391 119.1333 C391 119.1333 387.3856 129.237 387 139.1333 C384.4352 204.964 385 273.1333 385 273.1333 "/>
<path id="14" d="M167 253.1333 L166 308.1333 "/>
<path id="15" d="M136 244.1333 C136 244.1333 135.8852 258.3983 134 272.1333 C132.4207 283.6395 129 295.1333 129 295.1333 "/>
<path id="16" d="M194 160.1333 L193 229.1333 "/>
<path id="17" d="M204 160.1333 C204 160.1333 206.1108 179.1638 207 198.1333 C207.6062 211.0646 207.4108 211.3978 207 224.1333 C206.9205 226.5983 206.0322 229.1119 206 229.1333 C206 229.1333 204 226.1333 204 226.1333 "/>
<path id="18" d="M215 157.1333 C215 157.1333 217.7925 160.8139 218 164.1333 C219.6471 190.487 219.6809 200.7075 219 221.1333 C218.9629 222.2449 217.277 223.8386 216 224.1333 C212.5414 224.9315 207.7045 224.7531 206 224.1333 C205.5816 223.9812 205 220.1333 205 220.1333 "/>
<path id="19" d="M210 166.1333 L213 166.1333 "/>
<path id="20" d="M198 193.1333 L201 194.1333 "/>
<path id="21" d="M187 171.1333 L191 171.1333 "/>
<path id="22" d="M228 153.1333 C228 153.1333 230.5852 156.1839 231 159.1333 C234.8005 186.1593 236.2655 193.2606 237 217.1333 C237.0868 219.9549 234.6338 223.498 233 224.1333 C229.5973 225.4566 219 224.1333 219 224.1333 "/>
<path id="23" d="M227 196.1333 L231 196.1333 "/>
<path id="24" d="M249 153.1333 C249 153.1333 254.6871 196.9151 255 219.1333 C255.0233 220.7907 251.961 223.573 250 224.1333 C247.3417 224.8928 242.7267 223.9967 241 223.1333 C240.4547 222.8607 240 219.1333 240 219.1333 "/>
<path id="25" d="M243 203.1333 C243 203.1333 248.8132 202.8718 249 203.1333 C249.2739 203.5169 248.5942 209.3014 248 210.1333 C247.7799 210.4414 245.1657 210.7162 244 210.1333 C242.2515 209.2591 240.2429 206.9836 240 206.1333 C239.8853 205.7318 242 203.1333 242 203.1333 "/>
<path id="26" d="M264 151.1333 C264 151.1333 268.7298 178.0255 271 204.1333 C271.6739 211.8831 271.184 215.871 270 220.1333 C269.7737 220.948 266 222.1333 266 222.1333 "/>
<path id="27" d="M271 149.1333 C271 149.1333 276.8831 178.6916 280 207.1333 C280.7868 214.3131 279 222.1333 279 222.1333 "/>
<path id="28" d="M290 144.1333 C290 144.1333 293.5968 208.6456 293 220.1333 C292.9893 220.3399 286.7241 221.4954 286 221.1333 C285.6101 220.9384 285 216.1333 285 216.1333 "/>
<path id="29" d="M299 146.1333 C299 146.1333 300.9998 146.1259 301 146.1333 C301.2498 154.5009 301 213.1333 301 213.1333 "/>
<path id="30" d="M306 147.1333 L314 224.1333 "/>
<path id="31" d="M304 210.1333 L304 222.1333 "/>
<path id="32" d="M326 146.1333 C326 146.1333 329.2403 213.9281 329 218.1333 C328.9946 218.227 322 216.1333 322 216.1333 "/>
<path id="33" d="M313 158.1333 L317 163.1333 "/>
<path id="34" d="M317 163.1333 L320 162.1333 "/>
<path id="35" d="M323 155.1333 C323 155.1333 316.1734 156.2533 315 157.1333 C314.6295 157.4112 314.6423 160.7757 315 161.1333 C315.5365 161.6698 320 162.1333 320 162.1333 "/>
<path id="36" d="M329 158.1333 C329 158.1333 334.7606 158.1383 339 160.1333 C350.8521 165.7108 351.0121 168.7703 363 174.1333 C369.0773 176.8521 377.0058 177.1314 377 177.1333 C376.9809 177.1397 354.7749 179.46 336 183.1333 C333.5128 183.62 331 186.1333 331 186.1333 "/>
<path id="37" d="M333 194.1333 L374 187.1333 "/>
<path id="38" d="M330 205.1333 C330 205.1333 341.5817 200.6022 353 198.1333 C359.6219 196.7016 367 197.1333 367 197.1333 "/>
<path id="39" d="M196 239.1333 C196 239.1333 201.3033 253.8329 203 268.1333 C204.7063 282.515 203.2489 294.3999 203 298.1333 C202.9989 298.1499 201 298.1333 201 298.1333 "/>
<path id="40" d="M194 279.1333 C194 279.1333 194.4785 284.3511 195 285.1333 C195.1564 285.368 198 285.1333 198 285.1333 C198 284.9042 195 279.1333 195 279.1333 "/>
<path id="41" d="M206 243.1333 C206 243.1333 211.6969 259.6699 214 275.1333 C215.0305 282.0522 213 290.1333 213 290.1333 "/>
<path id="42" d="M220 240.1333 C220 240.1333 225.3911 264.0886 230 287.1333 C230.2822 288.5442 230.0223 290.1259 230 290.1333 C229.9479 290.1507 227 288.1333 227 288.1333 "/>
<path id="43" d="M244 240.1333 L249 286.1333 "/>
<path id="44" d="M229 246.1333 C229 246.1333 228.555 254.7773 229 255.1333 C229.5686 255.5882 238.0049 254.9294 239 254.1333 C239.516 253.7205 239 247.1333 239 247.1333 "/>
<path id="45" d="M239 246.1333 L226 247.1333 "/>
<path id="46" d="M255 238.1333 C255 238.1333 259.5813 250.5 261 262.1333 C261.9682 270.0724 260 279.1333 260 279.1333 "/>
<path id="47" d="M267 240.1333 C267 240.1333 272.1038 267.9888 273 281.1333 C273.0605 282.0207 270 284.1333 270 284.1333 "/>
<path id="48" d="M263 279.1333 L261 281.1333 "/>
<path id="49" d="M276 238.1333 C276 238.1333 277.9986 238.1149 278 238.1333 C278.2486 241.4899 276.7218 252.3515 278 265.1333 C278.6344 271.4769 282 278.1333 282 278.1333 "/>
<path id="50" d="M292 237.1333 L294 275.1333 "/>
<path id="51" d="M315 234.1333 C315 234.1333 316.1187 269.3861 316 274.1333 C315.9999 274.1393 314 274.1333 314 274.1333 "/>
<path id="52" d="M299 247.1333 C299 247.1333 300.9605 252.6136 302 253.1333 C303.1261 253.6964 308.1681 252.7275 309 252.1333 C309.3081 251.9133 309 248.1333 309 248.1333 "/>
<path id="53" d="M305 245.1333 L299 245.1333 "/>
<path id="54" d="M337 231.1333 C337 231.1333 334.1907 243.6126 335 254.1333 C335.5804 261.6785 339.2687 265.7453 340 270.1333 C340.0724 270.5678 338 272.1333 338 272.1333 "/>
<path id="55" d="M320 235.1333 C320 235.1333 329.9978 237.5509 331 237.1333 C331.3861 236.9725 332 230.1333 332 230.1333 "/>
<path id="56" d="M322 243.1333 C322 243.1333 322.4635 247.5968 323 248.1333 C323.3577 248.491 326.8049 248.3772 327 248.1333 C327.3049 247.7522 327.547 244.4096 327 243.1333 C326.6406 242.2946 324 241.1333 324 241.1333 "/>
<path id="57" d="M347 230.1333 C347 230.1333 346.3086 254.9603 347 269.1333 C347.0372 269.8956 349 271.1333 349 271.1333 "/>
<path id="58" d="M360 226.1333 C360 226.1333 360.2909 269.7878 360 273.1333 C359.996 273.1798 356 272.1333 356 272.1333 "/>
<path id="59" d="M356 254.1333 C356 254.1333 352.1916 253.325 352 253.1333 C351.9617 253.095 353 251.1333 353 251.1333 "/>
<path id="60" d="M132 291.1333 C132 291.1333 134.4702 292.0737 135 293.1333 C136.3623 295.858 135.1786 299.3119 137 301.1333 C141.3713 305.5047 145.7568 305.0793 152 310.1333 C155.4951 312.9627 154.9189 315.7633 158 318.1333 C160.1646 319.7984 164.9593 320.2079 165 320.1333 C165.2785 319.6227 164 307.1333 164 307.1333 "/>
<path id="61" d="M166 321.1333 C166 321.1333 176.5184 320.6772 186 318.1333 C196.5487 315.3032 196.4847 311.7636 207 310.1333 C258.9426 302.0802 262.2284 307.0885 315 298.1333 C343.6384 293.2735 343.7652 290.6424 372 282.1333 C380.1332 279.6822 384.6414 278.0225 388 276.1333 C388.2925 275.9688 387.6169 273.6122 388 273.1333 C388.6641 272.3032 392 271.1333 392 271.1333 "/>
</g>
</g>
</svg>
