<?xml version="1.0" encoding="utf-8"?>
<!DOCTYPE svg PUBLIC "-//W3C//DTD SVG 1.1//EN" "http://www.w3.org/Graphics/SVG/1.1/DTD/svg11.dtd">
<svg viewBox="0 0 800 800" preserveAspectRatio="xMinYMin meet" xmlns="http://www.w3.org/2000/svg" version="1.1">
<g fill="none" stroke="black" stroke-linecap="round" stroke-linejoin="round" stroke-width="1.9009">
<g transform="translate(87.52,236.6582) scale(1.5782) translate(-83,-99.1333)">
<path id="0" d="M91 117.1333 C91 117.1333 88.3427 123.222 88 129.1333 C86.3939 156.8392 88.6595 157.9214 87 186.1333 C86.1788 200.0939 83.5404 200.2178 83 214.1333 C81.5605 251.2015 80.7189 288.5747 83 289.1333 C125.8726 299.6327 377.6949 307.8767 426 298.1333 C429.5588 297.4155 432.5201 258.0591 435 218.1333 C437.4953 177.9582 434.0648 176.9984 436 137.1333 C436.5299 126.2167 440 115.1333 440 115.1333 "/>
<path id="1" d="M89 119.1333 C89 119.1333 202.5293 116.8837 315 118.1333 C336.9202 118.3769 337.0494 121.4474 359 122.1333 C400.7869 123.4392 443 122.1333 443 122.1333 "/>
<path id="2" d="M91 116.1333 C91 116.1333 94.37 112.4214 98 111.1333 C108.8101 107.2975 122 105.1333 122 105.1333 "/>
<path id="3" d="M441 119.1333 C441 119.1333 453.9817 117.9768 465 115.1333 C468.5355 114.2209 472 111.1333 472 111.1333 "/>
<path id="4" d="M119 103.1333 C119 103.1333 232.6906 98.8132 346 99.1333 C409.4036 99.3124 452.6057 101.7434 473 104.1333 C473.3472 104.174 474 114.1333 474 114.1333 "/>
<path id="5" d="M431 300.1333 C431 300.1333 430.5134 296.5076 431 296.1333 C433.7857 293.9905 438.5867 294.1221 444 290.1333 C456.8056 280.6976 469 268.1333 469 268.1333 "/>
<path id="6" d="M428 296.1333 L430 296.1333 "/>
<path id="7" d="M478 115.1333 C478 115.1333 475.2148 131.6973 475 148.1333 C474.2197 207.8232 476 268.1333 476 268.1333 "/>
<path id="8" d="M479 116.1333 L477 107.1333 "/>
<path id="9" d="M470 270.1333 C470 270.1333 471.1542 266.6167 472 266.1333 C472.9868 265.5694 477 266.1333 477 266.1333 "/>
<path id="10" d="M165 151.1333 C165 151.1333 158.082 162.9078 154 174.1333 C152.4332 178.4421 154.3996 179.5614 153 184.1333 C147.1218 203.3354 143.6617 203.4107 139 223.1333 C130.8645 257.5526 127 294.1333 127 294.1333 "/>
<path id="11" d="M164 152.1333 C164 152.1333 193.0526 151.296 197 152.1333 C197.1776 152.171 197.9017 156.2778 197 159.1333 C195.2101 164.8014 193.1066 164.9539 191 171.1333 C185.7403 186.5619 185.5908 187.1379 182 203.1333 C180.1583 211.3373 181.9622 212.2847 180 220.1333 C178.6265 225.6274 176.0667 225.6667 175 231.1333 C172.2758 245.095 174.8282 246.9925 172 261.1333 C170.5027 268.6197 167.7091 268.6558 166 276.1333 C163.8643 285.477 164 296.1333 164 296.1333 "/>
<path id="12" d="M200 152.1333 C200 152.1333 231.531 151.7609 236 152.1333 C236.031 152.1359 236.4899 153.9786 236 155.1333 C230.1312 168.9669 225.7898 170.4478 222 185.1333 C218.3339 199.3397 222.9924 201.8386 220 217.1333 C214.1677 246.9426 211.0985 247.0492 204 277.1333 C200.6408 291.3698 199 306.1333 199 306.1333 "/>
<path id="13" d="M238 152.1333 C238 152.1333 237.0052 145.8586 238 141.1333 C238.7996 137.335 240.6585 133.3871 242 133.1333 C249.9833 131.623 274.9729 133.8517 275 134.1333 C275.5167 139.4945 259.1117 174.891 250 216.1333 C240.3315 259.8961 237 306.1333 237 306.1333 "/>
<path id="14" d="M263 184.1333 C263 184.1333 280.9938 184.9565 281 185.1333 C281.4294 197.4792 267 299.1333 267 299.1333 "/>
<path id="15" d="M266 187.1333 L259 186.1333 "/>
<path id="16" d="M285 168.1333 L280 191.1333 "/>
<path id="17" d="M287 169.1333 C287 169.1333 314.7548 169.0172 315 169.1333 C315.0415 169.153 309.5145 173.4474 306 178.1333 C303.9359 180.8854 303.3818 181.6974 303 185.1333 C299.1128 220.1177 301.5119 222.6914 297 259.1333 C295.0764 274.6704 292.4863 274.8605 290 290.1333 C289.0717 295.8358 290 302.1333 290 302.1333 "/>
<path id="18" d="M307 168.1333 C307 168.1333 306.3551 141.23 308 140.1333 C311.0668 138.0888 343.5308 139.6641 346 142.1333 C347.9754 144.1087 347.2765 160.1876 344 176.1333 C340.0322 195.4434 333.313 196.0124 331 215.1333 C326.1404 255.3059 329 300.1333 329 300.1333 "/>
<path id="19" d="M348 156.1333 C348 156.1333 368.943 157.5676 369 158.1333 C371.0265 178.2636 363 305.1333 363 305.1333 "/>
<path id="20" d="M373 167.1333 C373 167.1333 402.9201 164.7338 403 165.1333 C405.7251 178.7588 400 302.1333 400 302.1333 "/>
<path id="21" d="M407 174.1333 L443 176.1333 "/>
<path id="22" d="M164 150.1333 L209 136.1333 "/>
<path id="23" d="M200 154.1333 C200 154.1333 206.681 148.7184 213 146.1333 C216.6537 144.6386 217.9836 146.4113 222 145.1333 C228.4263 143.0886 235 139.1333 235 139.1333 "/>
<path id="24" d="M209 135.1333 L233 136.1333 "/>
<path id="25" d="M244 133.1333 L281 117.1333 "/>
<path id="26" d="M276 137.1333 C276 137.1333 277.9576 131.3239 281 129.1333 C288.6909 123.5959 301 119.1333 301 119.1333 "/>
<path id="27" d="M265 185.1333 C265 185.1333 267.4802 179.6102 271 177.1333 C279.6986 171.0121 292 166.1333 292 166.1333 "/>
<path id="28" d="M288 166.1333 L307 159.1333 "/>
<path id="29" d="M308 141.1333 C308 141.1333 322.0521 131.8393 336 126.1333 C343.039 123.2538 352 123.1333 352 123.1333 "/>
<path id="30" d="M345 142.1333 C345 142.1333 353.2224 135.0833 362 131.1333 C372.4572 126.4276 385 124.1333 385 124.1333 "/>
<path id="31" d="M352 155.1333 C352 155.1333 362.3987 144.4146 373 140.1333 C386.0953 134.8448 404 134.1333 404 134.1333 "/>
<path id="32" d="M366 160.1333 C366 160.1333 380.5613 151.1427 395 146.1333 C403.9731 143.0202 415 143.1333 415 143.1333 "/>
<path id="33" d="M400 166.1333 C400 166.1333 414.4029 154.4904 429 145.1333 C433.3192 142.3646 439 141.1333 439 141.1333 "/>
<path id="34" d="M410 144.1333 L438 141.1333 "/>
<path id="35" d="M403 136.1333 C403 136.1333 405.5474 138.3227 406 140.1333 C406.7624 143.1827 406 148.1333 406 148.1333 "/>
<path id="36" d="M404 126.1333 L404 138.1333 "/>
</g>
</g>
</svg>
