<?xml version="1.0" encoding="utf-8"?>
<!DOCTYPE svg PUBLIC "-//W3C//DTD SVG 1.1//EN" "http://www.w3.org/Graphics/SVG/1.1/DTD/svg11.dtd">
<svg viewBox="0 0 800 800" preserveAspectRatio="xMinYMin meet" xmlns="http://www.w3.org/2000/svg" version="1.1">
<g fill="none" stroke="black" stroke-linecap="round" stroke-linejoin="round" stroke-width="1.6465">
<g transform="translate(195.9314,87.52) scale(1.822) translate(-93,-61)">
<path id="0" d="M93 67 C93 67 174.1931 67.0101 255 65 C274.4847 64.5153 290.1016 59.1799 294 62 C297.6799 64.6621 300.5668 80.5737 302 99 C307.4651 169.2658 303.8013 170.6229 308 242 C311.2959 298.0297 314.4748 299.7091 317 354 C317.3787 362.1425 314.4075 362.6453 314 371 C313.4307 382.6704 316.6005 391.9134 315 395 C314.2654 396.4167 307.3875 397.8138 300 398 C249.0373 399.2848 246.219 395.9586 196 398 C186.7272 398.3769 186.3705 402.2191 177 403 C151.382 405.1348 124.0277 404.0006 124 404 C123.9974 403.9999 128.7791 402.7509 129 402 C129.9546 398.7544 130.1437 394.0526 129 387 C127.2484 376.1987 123.6405 375.824 123 365 C118.7816 293.7098 122.8185 290.128 119 218 C118.3965 206.6012 114.7648 206.2805 114 195 C112.8226 177.6327 115 176.5485 115 159 C115 156.5627 114.88 155.232 114 154 C113.252 152.9528 110.0615 152.6535 110 152 C107.8421 129.0728 106 69 106 69 "/>
<path id="1" d="M115 77 C115 77 113 79.2722 113 81 C113 92.6629 112.2088 95.5665 115 108 C117.4425 118.8804 121.6154 119.4018 124 130 C125.7866 137.9404 122.8928 139.327 124 148 C125.8309 162.3422 128.8552 162.6084 130 177 C132.2944 205.8441 128.8181 235.2949 131 236 C148.5125 241.6595 276.2135 231.7567 294 230 C294.0013 229.9999 293 220 293 220 "/>
<path id="2" d="M114 82 C114 82 123.0012 79.5999 132 79 C182.5975 75.6268 183.9932 76.8306 234 74 C235.9833 73.8877 237.9501 73.0748 238 73 C238.0091 72.9864 235.9845 70.9996 236 71 C236.3344 71.008 276.4619 70.8733 280 74 C282.27 76.006 278.1673 91.6799 279 109 C280.6507 143.3352 283.0554 143.7752 285 178 C285.5312 187.3499 283.5941 187.665 284 197 C284.5809 210.3602 284.7444 211.2185 287 224 C287.6169 227.4958 290 231 290 231 "/>
<path id="3" d="M132 258 C132 258 131.0925 280.0172 133 301 C134.0383 312.421 134.2707 313.3092 138 324 C141.5401 334.1482 143.9466 333.8666 148 344 C150.8036 351.0089 151.5354 351.7211 152 359 C152.9726 374.2379 150.3903 390.8765 151 391 C168.0996 394.4646 233.2479 391.3538 305 390 C307.3469 389.9557 309.9988 388.0023 310 388 C310.0005 387.999 306.0037 388.0451 306 388 C304.4815 369.5019 308.0989 265.9817 299 254 C294.4032 247.9468 251.9467 254.1617 205 255 C196.003 255.1607 195.7408 254.6015 187 256 C171.0586 258.5506 170.4223 261.5451 155 263 C145.1729 263.9271 134 261 134 261 "/>
<path id="4" d="M126 128 L283 123 "/>
<path id="5" d="M135 179 L288 179 "/>
<path id="6" d="M169 312 L171 312 "/>
<path id="7" d="M143 329 L312 326 "/>
<path id="8" d="M123 85 C123 85 126.3659 89.331 128 94 C133.1912 108.8321 133.3386 109.9475 137 125 C137.6619 127.7212 137.0042 130.9958 137 131 C136.9986 131.0014 135 127 135 127 "/>
<path id="9" d="M139 76 C139 76 142.8363 82.5997 144 89 C145.6885 98.2867 143.6538 99.3075 145 109 C146.1067 116.9679 149 125 149 125 "/>
<path id="10" d="M154 81 C154 81 157.2098 90.1097 158 99 C159.1624 112.0771 158 126 158 126 "/>
<path id="11" d="M168 80 L169 127 "/>
<path id="12" d="M176 75 C176 75 174.023 92.7175 175 109 C175.4675 116.791 179 125 179 125 "/>
<path id="13" d="M188 78 L188 123 "/>
<path id="14" d="M197 78 L197 126 "/>
<path id="15" d="M206 80 L206 125 "/>
<path id="16" d="M217 78 L219 127 "/>
<path id="17" d="M227 75 L229 124 "/>
<path id="18" d="M236 73 C236 73 235.041 79.8621 236 86 C237.4593 95.3396 239.8018 95.6538 241 105 C242.2201 114.517 241 125 241 125 "/>
<path id="19" d="M257 73 L258 121 "/>
<path id="20" d="M268 76 L267 122 "/>
<path id="21" d="M126 137 L160 181 "/>
<path id="22" d="M136 133 C136 133 142.8424 137.5709 148 143 C152.0128 147.224 152.5572 148.1144 155 153 C156.1762 155.3523 154.638 157.2079 156 159 C162.5842 167.6634 174 178 174 178 "/>
<path id="23" d="M158 128 C158 128 171.6928 150.3787 186 170 C188.5453 173.4907 191.387 173.4652 193 176 C193.7714 177.2123 193 181 193 181 "/>
<path id="24" d="M174 129 C174 129 178.6374 128.7131 180 130 C185.3198 135.0242 185.8701 139.5296 192 146 C193.9451 148.0531 196.1051 146.9788 198 149 C202.7097 154.0237 203.3838 155.2498 207 162 C210.6959 168.899 213 177 213 177 "/>
<path id="25" d="M247 126 C247 126 249.9793 127.3779 250 128 C250.5724 145.1713 249 186 249 186 "/>
<path id="26" d="M260 125 C260 125 258.6551 158.374 259 177 C259.0135 177.7299 261 179 261 179 "/>
<path id="27" d="M274 123 L276 189 "/>
<path id="28" d="M277 179 C277 179 277.0845 228.0072 277 229 C276.9955 229.0528 273 226 273 226 "/>
<path id="29" d="M264 179 C264 179 262.2196 203.1501 263 225 C263.1716 229.8046 265.0233 230.1165 266 235 C266.4607 237.3035 266 240 266 240 C265.9987 240 264 235 264 235 "/>
<path id="30" d="M249 180 C249 180 247.4051 192.8357 249 204 C250.2531 212.7719 253.1245 213.2475 255 222 C255.9725 226.5383 255 232 255 232 "/>
<path id="31" d="M160 174 C160 174 161.3398 189.8385 159 203 C157.6171 210.7786 154.5229 210.9266 152 219 C149.6505 226.5185 149 235 149 235 "/>
<path id="32" d="M178 175 C178 175 178.4396 192.4212 174 205 C170.3336 215.3881 164.9915 216.017 160 226 C158.3065 229.3871 159 235 159 235 "/>
<path id="33" d="M191 183 C191 183 192.9998 179.9913 193 180 C193.0032 180.1155 193.4182 199.8544 192 219 C191.4475 226.4586 191.0138 227.9585 189 234 C188.4965 235.5104 186.0193 237.0064 186 237 C185.9871 236.9957 186 233 186 233 "/>
<path id="34" d="M213 181 C213 181 214.7507 195.7449 213 209 C211.3791 221.2726 206 234 206 234 "/>
<path id="35" d="M146 270 C146 270 143.6022 301.3352 144 326 C144.043 328.6655 147 332 147 332 "/>
<path id="36" d="M156 266 C156 266 154.5749 295.22 155 322 C155.0534 325.3636 157 329 157 329 "/>
<path id="37" d="M167 265 L168 348 "/>
<path id="38" d="M177 264 C177 264 178 327.0454 178 389 C178 392.9651 177.0019 396.9961 177 397 C176.9992 397.0016 176 393 176 393 "/>
<path id="39" d="M167 335 L166 393 "/>
<path id="40" d="M195 251 C195 251 197.0423 257.1135 197 263 C196.5512 325.3844 194 390 194 390 "/>
<path id="41" d="M215 254 L214 384 "/>
<path id="42" d="M228 256 L233 386 "/>
<path id="43" d="M246 254 C246 254 243.8534 266.1241 244 278 C244.3488 306.2525 246.753 306.597 247 335 C247.2511 363.8794 245 393 245 393 "/>
<path id="44" d="M260 255 L259 388 "/>
<path id="45" d="M275 248 C275 248 277.7818 279.5733 278 311 C278.2805 351.3855 276 392 276 392 "/>
<path id="46" d="M287 261 C287 261 289.7094 266.2056 290 271 C290.6546 281.8016 287.984 282.8242 289 294 C291.9189 326.1081 295.3982 326.8022 298 359 C299.3427 375.616 297 393 297 393 "/>
<path id="47" d="M126 239 L141 238 "/>
<path id="48" d="M122 263 L163 260 "/>
<path id="49" d="M289 228 L299 228 "/>
<path id="50" d="M303 251 L299 250 "/>
<path id="51" d="M96 68 C96 68 96.9507 76.8341 98 78 C98.5602 78.6225 105 78 105 78 "/>
<path id="52" d="M295 64 C295 64 309.0979 60.579 310 61 C310.3096 61.1445 310.6041 70.5353 310 71 C308.9791 71.7853 297 71 297 71 "/>
</g>
</g>
</svg>
