<?xml version="1.0" encoding="utf-8"?>
<!DOCTYPE svg PUBLIC "-//W3C//DTD SVG 1.1//EN" "http://www.w3.org/Graphics/SVG/1.1/DTD/svg11.dtd">
<svg viewBox="0 0 800 800" preserveAspectRatio="xMinYMin meet" xmlns="http://www.w3.org/2000/svg" version="1.1">
<g fill="none" stroke="black" stroke-linecap="round" stroke-linejoin="round" stroke-width="1.9105">
<g transform="translate(87.52,108.7184) scale(1.5703) translate(-102,-81.4167)">
<path id="0" d="M138 86.4167 C138 86.4167 303.4551 89.6421 449 87.4167 C456.5311 87.3015 465 81.4167 465 81.4167 "/>
<path id="1" d="M102 86.4167 L144 86.4167 "/>
<path id="2" d="M103 87.4167 C103 87.4167 103.9502 138.5862 107 189.4167 C108.4408 213.4299 110.8032 213.4812 112 237.4167 C113.2898 263.2124 110.5148 263.6734 112 289.4167 C113.4951 315.3313 113.686 315.7863 118 341.4167 C122.1384 366.0035 126.1463 366.0505 129 390.4167 C132.5316 420.571 131 452.4167 131 452.4167 "/>
<path id="3" d="M133 451.4167 C133 451.4167 144.6227 447.7394 156 447.4167 C214.084 445.7689 215.055 448.3098 274 447.4167 C313.9854 446.8108 314.3384 446.8204 354 444.4167 C363.4882 443.8416 363.5871 441.6306 373 441.4167 C428.7819 440.1489 486 441.4167 486 441.4167 "/>
<path id="4" d="M469 81.4167 C469 81.4167 469.4233 91.5155 472 100.4167 C474.7644 109.9663 479.5688 110.4391 480 119.4167 C484.675 216.7424 475.5371 228.2939 483 329.4167 C485.2101 359.363 495.5343 360.4705 500 390.4167 C503.7252 415.3973 502.5562 437.9974 500 443.4167 C499.4312 444.6224 482.84 442.2967 475 443.4167 C473.88 443.5767 472 447.4167 472 447.4167 "/>
<path id="5" d="M118 128.4167 C118 128.4167 220.5832 129.6534 319 127.4167 C328.3465 127.2043 328.5024 124.4919 338 123.4167 C354.7106 121.5249 355.0171 121.712 372 121.4167 C412.4179 120.7138 453 121.4167 453 121.4167 "/>
<path id="6" d="M118 129.4167 C118 129.4167 116.0285 145.1795 118 158.4167 C119.2946 167.1087 123.3965 167.712 125 176.4167 C126.6626 185.442 125 196.4167 125 196.4167 "/>
<path id="7" d="M125 196.4167 C125 196.4167 246.9091 197.1684 360 190.4167 C376.1436 189.4529 376.8469 182.8641 393 180.4167 C408.444 178.0767 411.0008 182.6807 426 180.4167 C435.6393 178.9617 446 172.4167 446 172.4167 "/>
<path id="8" d="M448 122.4167 C448 122.4167 450.1894 165.9856 448 175.4167 C447.7514 176.4875 435 178.4167 435 178.4167 "/>
<path id="9" d="M131 243.4167 C131 243.4167 146.5244 240.8395 162 240.4167 C237.7073 238.3482 238.4608 241.1283 314 238.4167 C335.4487 237.6467 335.5719 234.7233 357 233.4167 C376.298 232.24 377.5916 235.321 396 233.4167 C405.2612 232.4586 405.6011 228.6102 415 227.4167 C436.0476 224.744 459 225.4167 459 225.4167 "/>
<path id="10" d="M144 310.4167 C144 310.4167 151.0053 306.6331 158 305.4167 C173.2984 302.7561 174.0288 302.8483 190 302.4167 C247.7628 300.8555 249.4061 303.1715 306 301.4167 C312.3861 301.2187 312.6023 298.7858 319 298.4167 C337.9408 297.3239 338.9357 299.4758 358 298.4167 C365.4139 298.0048 365.5939 295.7483 373 295.4167 C398.4465 294.2773 399.3147 296.8597 425 295.4167 C443.4148 294.3821 462 290.4167 462 290.4167 "/>
<path id="11" d="M153 375.4167 C153 375.4167 216.752 378.3653 279 375.4167 C310.8286 373.909 311.1596 369.0218 343 366.4167 C365.625 364.5655 366.3639 367.9959 389 366.4167 C408.8895 365.029 409.1137 362.1713 429 360.4167 C442.7386 359.2044 457 360.4167 457 360.4167 "/>
<path id="12" d="M156 436.4167 C156 436.4167 229.0986 438.0381 301 435.4167 C324.4086 434.5632 324.5993 430.5582 348 429.4167 C385.6052 427.5823 386.0177 429.7558 424 429.4167 C441.9961 429.256 455.2685 428.811 460 428.4167 C460.0219 428.4149 460 426.4167 460 426.4167 "/>
<path id="13" d="M134 246.4167 C134 246.4167 131.2265 271.0773 134 291.4167 C135.37 301.4631 143 312.4167 143 312.4167 "/>
<path id="14" d="M154 375.4167 C154 375.4167 154.3715 410.9542 156 437.4167 C156.0819 438.747 158 440.4167 158 440.4167 "/>
<path id="15" d="M458 221.4167 C458 221.4167 457.5961 252.7722 460 280.4167 C460.4204 285.2509 464 290.4167 464 290.4167 "/>
<path id="16" d="M459 359.4167 L458 432.4167 "/>
<path id="17" d="M125 144.4167 L144 144.4167 "/>
<path id="18" d="M126 144.4167 C126 144.4167 124.9451 150.0211 126 154.4167 C127.7343 161.643 130.6449 162.0604 132 169.4167 C133.9507 180.0063 133 192.4167 133 192.4167 "/>
<path id="19" d="M138 144.4167 C138 144.4167 140.7573 146.0514 141 147.4167 C143.9461 163.9887 145.7365 177.5595 146 189.4167 C146.0182 190.2364 143.8106 191.964 142 192.4167 C138.9506 193.179 134 192.4167 134 192.4167 "/>
<path id="20" d="M149 146.4167 C149 146.4167 155.3506 163.3595 159 179.4167 C160.1381 184.4242 159 190.4167 159 190.4167 "/>
<path id="21" d="M151 152.4167 C151 152.4167 162.5729 150.6582 165 151.4167 C165.6871 151.6314 166.5475 154.3999 167 157.4167 C169.4852 173.9848 171.4685 182.5159 171 191.4167 C170.9402 192.5535 165 195.4167 165 195.4167 "/>
<path id="22" d="M170 164.4167 C170 164.4167 188.2134 163.2989 189 164.4167 C190.5884 166.6739 190.4802 188.9188 189 191.4167 C188.4802 192.2938 173 191.4167 173 191.4167 "/>
<path id="23" d="M194 154.4167 L204 193.4167 "/>
<path id="24" d="M193 153.4167 C193 153.4167 210.5397 151.6173 214 153.4167 C215.773 154.3386 217.0516 159.9362 218 166.4167 C219.975 179.9128 221.5345 190.7574 220 194.4167 C219.4751 195.6683 205 197.4167 205 197.4167 "/>
<path id="25" d="M320 260.4167 L349 258.4167 "/>
<path id="26" d="M328 258.4167 C328 258.4167 325.3997 294.9493 327 298.4167 C327.3145 299.098 345.3897 298.6372 346 297.4167 C348.2957 292.8253 347 258.4167 347 258.4167 "/>
<path id="27" d="M364 256.4167 C364 256.4167 380.8804 257.1741 393 256.4167 C394.306 256.335 396 254.4167 396 254.4167 "/>
<path id="28" d="M404 256.4167 L405 256.4167 "/>
<path id="29" d="M407 254.4167 C407 254.4167 414.2105 250.8927 421 249.4167 C425.0502 248.5362 430 249.4167 430 249.4167 "/>
<path id="30" d="M433 246.4167 L433 297.4167 "/>
<path id="31" d="M417 255.4167 C417 255.4167 421.6348 258.7994 422 261.4167 C424.0251 275.9299 423 298.4167 423 298.4167 "/>
<path id="32" d="M398 252.4167 L398 294.4167 "/>
<path id="33" d="M382 258.4167 C382 258.4167 386.9026 272.6339 389 286.4167 C390.2989 294.9523 389.18 303.3965 389 304.4167 C388.9953 304.4433 386 303.4167 386 303.4167 "/>
<path id="34" d="M374 254.4167 C374 254.4167 374.0486 291.2942 376 296.4167 C376.2434 297.0555 383.4957 297.5007 390 296.4167 C397.8207 295.1132 406 291.4167 406 291.4167 "/>
<path id="35" d="M313 263.4167 L313 299.4167 "/>
<path id="36" d="M296 267.4167 C296 267.4167 298.1047 277.9714 299 288.4167 C299.5897 295.296 299.0804 301.8943 299 302.4167 C298.996 302.4425 297 301.4167 297 301.4167 "/>
<path id="37" d="M274 272.4167 L279 300.4167 "/>
<path id="38" d="M262 264.4167 L262 305.4167 "/>
<path id="39" d="M268 262.4167 C268 262.4167 273.561 264.5067 277 267.4167 C279.3593 269.413 281 273.4167 281 273.4167 "/>
<path id="40" d="M245 267.4167 L245 301.4167 "/>
<path id="41" d="M233 265.4167 L236 300.4167 "/>
<path id="42" d="M215 269.4167 C215 269.4167 219.7673 280.2101 222 290.4167 C223.09 295.3996 222 301.4167 222 301.4167 "/>
<path id="43" d="M206 269.4167 L207 302.4167 "/>
<path id="44" d="M179 275.4167 L178 309.4167 "/>
<path id="45" d="M169 263.4167 L168 308.4167 "/>
<path id="46" d="M179 265.4167 L181 286.4167 "/>
<path id="47" d="M176 266.4167 C176 266.4167 179.6404 268.8567 183 269.4167 C187.9274 270.2379 194 269.4167 194 269.4167 "/>
<path id="48" d="M207 271.4167 L231 271.4167 "/>
<path id="49" d="M232 268.4167 L266 268.4167 "/>
<path id="50" d="M263 267.4167 L291 265.4167 "/>
<path id="51" d="M294 268.4167 L324 268.4167 "/>
<path id="52" d="M361 379.4167 L361 423.4167 "/>
<path id="53" d="M360 384.4167 C360 384.4167 369.9753 383.3031 370 383.4167 C370.9889 387.9657 371.2279 420.3889 370 430.4167 C369.9286 431.0001 364 432.4167 364 432.4167 "/>
<path id="54" d="M398 379.4167 L398 430.4167 "/>
<path id="55" d="M408 384.4167 L411 426.4167 "/>
<path id="56" d="M163 392.4167 C163 392.4167 165.7144 395.5609 166 398.4167 C168.0036 418.4526 168 442.4167 168 442.4167 "/>
<path id="57" d="M174 396.4167 C174 396.4167 176.6047 396.7578 177 397.4167 C178.5247 399.9578 179.5696 402.005 180 406.4167 C181.4867 421.655 181 438.4167 181 438.4167 "/>
<path id="58" d="M209 390.4167 C209 390.4167 208.4428 414.7298 210 433.4167 C210.1898 435.6938 213 438.4167 213 438.4167 "/>
<path id="59" d="M221 392.4167 L223 443.4167 "/>
<path id="60" d="M252 392.4167 L255 438.4167 "/>
<path id="61" d="M269 391.4167 L269 440.4167 "/>
<path id="62" d="M291 391.4167 L299 433.4167 "/>
<path id="63" d="M303 388.4167 L308 436.4167 "/>
<path id="64" d="M160 401.4167 L183 400.4167 "/>
<path id="65" d="M204 392.4167 L225 391.4167 "/>
<path id="66" d="M257 393.4167 L271 391.4167 "/>
<path id="67" d="M291 391.4167 L304 387.4167 "/>
<path id="68" d="M402 382.4167 L414 387.4167 "/>
<path id="69" d="M316 134.4167 C316 134.4167 318.7924 137.6138 319 140.4167 C320.6041 162.0724 318.0706 166.8075 320 188.4167 C320.3353 192.172 324 196.4167 324 196.4167 "/>
<path id="70" d="M331 133.4167 C331 133.4167 337.3626 152.5685 341 171.4167 C342.7484 180.4764 342 190.4167 342 190.4167 "/>
<path id="71" d="M372 136.4167 L377 184.4167 "/>
<path id="72" d="M388 137.4167 C388 137.4167 387.8327 156.7172 390 174.4167 C390.7268 180.352 392.4558 180.6261 394 186.4167 C394.3545 187.7461 394.0045 189.4182 394 189.4167 C393.9805 189.4102 391 185.4167 391 185.4167 "/>
<path id="73" d="M321 136.4167 L345 137.4167 "/>
<path id="74" d="M374 137.4167 L402 137.4167 "/>
<path id="75" d="M258 142.4167 C258 142.4167 260.5483 148.9795 261 155.4167 C262.507 176.8911 262 199.4167 262 199.4167 "/>
<path id="76" d="M272 147.4167 C272 147.4167 276.0956 156.0961 277 164.4167 C278.495 178.171 277 193.4167 277 193.4167 "/>
<path id="77" d="M261 145.4167 L288 144.4167 "/>
<path id="78" d="M426 378.4167 L426 419.4167 "/>
<path id="79" d="M440 370.4167 C440 370.4167 446.0663 382.5997 448 394.4167 C450.381 408.9672 449.1168 421.7951 449 425.4167 C448.9998 425.4242 447 425.4167 447 425.4167 "/>
<path id="80" d="M428 376.4167 L456 369.4167 "/>
<path id="81" d="M330 390.4167 C330 390.4167 335.2094 402.1614 337 413.4167 C338.5594 423.2186 336.7522 431.8153 337 434.4167 C337.0022 434.4403 339 434.4167 339 434.4167 "/>
<path id="82" d="M344 380.4167 L356 429.4167 "/>
<path id="83" d="M330 391.4167 L353 386.4167 "/>
</g>
</g>
</svg>
