<?xml version="1.0" encoding="utf-8"?>
<!DOCTYPE svg PUBLIC "-//W3C//DTD SVG 1.1//EN" "http://www.w3.org/Graphics/SVG/1.1/DTD/svg11.dtd">
<svg viewBox="0 0 800 800" preserveAspectRatio="xMinYMin meet" xmlns="http://www.w3.org/2000/svg" version="1.1">
<g fill="none" stroke="black" stroke-linecap="round" stroke-linejoin="round" stroke-width="0.62404">
<g transform="translate(87.52,152.4197) scale(4.8074) translate(-183,-142)">
<path id="0" d="M183,164C183,164 189.88658207731854,165.00189385223265 193,168C201.58271090450424,176.26483272285594 203.53666328107002,178.50962361079115 210,190C216.4761354055021,201.51312960978154 216.70283839282507,203.08611703856482 220,216C222.48392726144104,225.72871510731073 221.9602861379427,237.03235944315782 222,237C222.15778473136007,236.87143466333626 233.64998979365754,214.82601592189422 247,194C258.5406256779416,175.99662394241116 258.1999666119581,172.26926287311724 272,159C281.7459907927352,149.6288550069854 285.7461829906786,149.49548510142594 299,144C304.9165350526192,141.54680253915788 313,142 313,142"/>
<path id="1" d="M213,245C213,245 218.51592589013828,241.96777778409324 224,241C234.94059005836735,239.0693076367587 236.5750228958221,241.6668546080455 247,239C256.8887765013913,236.4703129880162 257.5001080522831,232.9482423286018 267,230C270.7510919793557,228.83586800640685 276,230 276,230"/>
</g>
</g>
</svg>
