<?xml version="1.0" encoding="utf-8"?>
<!DOCTYPE svg PUBLIC "-//W3C//DTD SVG 1.1//EN" "http://www.w3.org/Graphics/SVG/1.1/DTD/svg11.dtd">
<svg viewBox="0 0 800 800" preserveAspectRatio="xMinYMin meet" xmlns="http://www.w3.org/2000/svg" version="1.1">
<g fill="none" stroke="black" stroke-linecap="round" stroke-linejoin="round" stroke-width="1.7761">
<g transform="translate(87.52,219.2683) scale(1.6891) translate(-84,-108)">
<path id="0" d="M290 196 C290 196 289.1715 188.5623 288 188 C283.0011 185.6005 272.0173 183.516 265 184 C263.0194 184.1366 259.9281 187.3705 259 190 C257.7424 193.5632 258.0024 197.259 259 201 C259.4595 202.7231 262.2565 203.0172 263 205 C264.7237 209.5965 265.8491 213.9432 265 217 C264.4106 219.1219 261.3086 221.842 258 223 C253.1461 224.6989 248.6224 223.2238 245 224 C244.6084 224.0839 244.2695 225.982 244 226 C240.6866 226.2209 233.7153 226.161 230 225 C229.1563 224.7364 229.3251 221.9717 228 221 C223.1293 217.4282 221.7524 216.5678 215 214 C186.7151 203.2438 185.3934 199.4703 157 194 C133.5003 189.4725 112.1228 192.8799 106 193 C105.9953 193.0001 106.1488 194.9391 106 195 C101.4784 196.8498 83.9974 201.9952 84 202 C84.01 202.0184 98.4806 202.7811 112 206 C129.5664 210.1825 147.0001 216.9996 147 217 C146.9988 217.0033 124.8877 215.5315 108 217 C104.8183 217.2767 100.9691 220.9903 101 221 C101.2198 221.0687 139.9995 226.9997 140 227 C140.0004 227.0002 123.9147 225.893 111 227 C108.2135 227.2388 106.1781 228.8219 105 230 C104.6073 230.3927 104.8863 232.9675 105 233 C106.8946 233.5413 112.3484 232.5997 119 234 C130.9235 236.5102 142.9811 240.9293 143 241 C143.0038 241.0141 122.9788 248.9802 123 249 C123.072 249.0675 142.0326 250.5537 159 256 C181.6688 263.2764 181.2457 266.6472 204 275 C220.4921 281.0541 221.3431 282.3134 238 285 C251.0962 287.1123 258.7042 285.5032 266 285 C266.2965 284.9796 267 283 267 283 "/>
<path id="1" d="M293 194 C293 194 291.8973 211.0978 293 212 C294.6473 213.3478 309.301 215.2927 315 212 C324.8494 206.3092 327.8061 196.1939 338 186 C339.0402 184.9598 340.921 185.996 342 185 C346.198 181.125 345.8682 178.574 351 174 C368.3948 158.4959 370.9143 159.0021 388 144 C390.5 141.8049 389.5154 139.6564 392 138 C407.0111 127.9926 410.2904 126.1605 427 118 C430.1683 116.4527 431.5019 118.2956 435 117 C444.3334 113.5432 454 108 454 108 C454 108 430.5277 118.9553 419 126 C418.1368 126.5275 418.9625 129.0375 418 130 C414.7273 133.2727 411.0954 132.828 408 137 C400.7774 146.7348 395 160.9465 395 161 C395 161.0178 401.2017 155.6708 408 153 C428.4251 144.9759 451 139 451 139 C451 139 445.8846 139.7802 442 142 C432.4181 147.4754 430.9329 147.4846 423 155 C412.6672 164.789 404.0051 177.9917 404 178 C403.9986 178.0024 407.9341 174.2618 412 173 C421.4675 170.0618 432.4482 168.971 433 169 C433.0461 169.0024 432.5458 172.4542 431 174 C423.7126 181.2874 412.9968 188.9947 413 189 C413.0071 189.0119 437.001 183.9934 437 184 C436.9974 184.0168 420.4767 191.5151 411 202 C398.9016 215.3854 402.3929 221.8678 390 236 C375.2064 252.8699 372.5406 254.1158 354 267 C344.3501 273.7058 342.5697 273.6255 331 277 C319.3187 280.4071 306 281 306 281 "/>
<path id="2" d="M279 281 C279 281 281.5159 299.7661 279 308 C277.8482 311.7697 271.1695 313.5424 268 317 C267.5017 317.5436 267.9737 320.0132 268 320 C268.3332 319.8334 275.7111 312.9947 282 310 C284.3464 308.8827 286.4472 309.0883 289 310 C292.204 311.1443 296 315 296 315 "/>
<path id="3" d="M297 278 C297 278 303.5674 284.6993 308 292 C311.7818 298.2289 311.9979 299.3265 314 306 C314.7603 308.5343 314.9514 310.0971 314 312 C311.78 316.4401 306 322 306 322 C306 322 316.5821 303.4811 320 302 C321.9553 301.1527 336 309 336 309 "/>
<path id="4" d="M317 308 L328 319 "/>
<path id="5" d="M286 313 L286 317 "/>
<path id="6" d="M263 188 C263 188 256.0103 187.6082 251 189 C248.0981 189.8061 244.9846 192.9914 245 193 C245.0635 193.0353 260 194 260 194 "/>
<path id="7" d="M272 195 C272 195 276.1964 196.4018 277 196 C277.9822 195.5089 280.0374 191.0467 280 191 C279.9195 190.8994 273.7392 190.6832 273 191 C272.8642 191.0582 273 194 273 194 "/>
</g>
</g>
</svg>
