<?xml version="1.0" encoding="utf-8"?>
<!DOCTYPE svg PUBLIC "-//W3C//DTD SVG 1.1//EN" "http://www.w3.org/Graphics/SVG/1.1/DTD/svg11.dtd">
<svg viewBox="0 0 800 800" preserveAspectRatio="xMinYMin meet" xmlns="http://www.w3.org/2000/svg" version="1.1">
<g fill="none" stroke="black" stroke-linecap="round" stroke-linejoin="round" stroke-width="2.2849">
<g transform="translate(87.52,206.9976) scale(1.3129) translate(-166,-10.1333)">
<path id="0" d="M210 161.1333 C210 161.1333 206.3294 160.2731 205 161.1333 C199.9168 164.4224 199.299 167.934 193 172.1333 C188.0042 175.4639 186.2314 173.9945 181 177.1333 C176.7451 179.6863 175.7132 180.4335 173 184.1333 C170.8491 187.0663 171.5385 190.1553 170 192.1333 C169.3879 192.9203 165.9996 193.1333 166 193.1333 C166.0076 193.1334 234 193.1333 234 193.1333 "/>
<path id="1" d="M220 147.1333 L217 141.1333 "/>
<path id="2" d="M206 164.1333 C206 164.1333 202.1214 147.2304 204 140.1333 C205.0335 136.229 210.6404 135.1636 215 130.1333 C216.5028 128.3993 216.1772 125.9561 217 125.1333 C217.3526 124.7807 219.7906 125.395 220 125.1333 C220.506 124.5009 220.1125 120.9223 221 120.1333 C222.7389 118.5877 225.1546 117.4829 229 117.1333 C240.6207 116.0769 254 117.1333 254 117.1333 "/>
<path id="3" d="M191 194.1333 C191 194.1333 194.7509 189.2579 199 187.1333 C206.7591 183.2538 217 181.1333 217 181.1333 "/>
<path id="4" d="M211 163.1333 C211 163.1333 214.406 162.9378 216 164.1333 C224.8019 170.7348 229.9249 173.5206 235 181.1333 C237.338 184.6403 236.2057 192.7961 236 194.1333 C235.9926 194.1814 233 194.1333 233 194.1333 "/>
<path id="5" d="M239 203.1333 L286 204.1333 "/>
<path id="6" d="M334 131.1333 C334 131.1333 339.6517 125.6602 346 122.1333 C357.2444 115.8864 357.9088 115.1637 370 111.1333 C379.7604 107.8799 383.5091 111.3355 391 107.1333 C400.8804 101.5906 401.4144 95.3225 411 88.1333 C413.6588 86.1392 415.9055 87.874 419 86.1333 C423.0483 83.8562 423.0108 81.0229 427 79.1333 C431.2118 77.1383 432.9168 78.9193 438 77.1333 C450.9721 72.5756 451.5951 69.8213 464 66.1333 C468.6619 64.7474 470.1444 65.0778 475 66.1333 C480.7768 67.3892 480.9444 69.5706 487 71.1333 C496.0099 73.4585 498.5871 71.2211 506 74.1333 C510.4609 75.8858 510.2168 79.5578 515 82.1333 C522.2715 86.0488 523.6317 87.0535 532 88.1333 C553.3081 90.8828 556.3086 86.5348 577 90.1333 C588.7443 92.1758 589.2608 97.3261 601 100.1333 C610.8923 102.4989 622.3009 100.9126 623 101.1333 C623.0445 101.1474 621.8947 104.5939 620 106.1333 C614.7687 110.3838 613.6773 111.4207 607 114.1333 C598.358 117.6441 587.9962 119.1226 588 119.1333 C588.0464 119.2648 612.882 130.6614 613 131.1333 C613.0469 131.3208 603.646 138.4565 594 143.1333 C587.8049 146.137 580.3468 146.8559 580 147.1333 C579.9839 147.1462 584 150.6333 584 151.1333 C584 151.6333 581.8591 154.5524 580 155.1333 C575.64 156.4958 569.05 154.9334 568 156.1333 C566.4707 157.8811 565.5027 166.4089 566 171.1333 C566.1487 172.5456 570.0314 175.1296 570 175.1333 C569.7426 175.1642 542.3897 173.7057 541 174.1333 C540.9888 174.1368 544.1283 183.0193 544 183.1333 C543.715 183.3867 537.4448 183.7094 532 182.1333 C519.1984 178.4276 519.1651 175.0297 506 172.1333 C470.2208 164.2619 468.7573 163.5526 432 160.1333 C405.0863 157.6297 377 160.1333 377 160.1333 "/>
<path id="7" d="M255 118.1333 C255 118.1333 272.9553 121.3213 289 119.1333 C315.4254 115.5299 316.4071 110.2985 343 106.1333 C356.7624 103.9778 358.3198 105.0533 372 106.1333 C376.3573 106.4773 381 109.1333 381 109.1333 "/>
<path id="8" d="M247 116.1333 C247 116.1333 250.75 116.3833 251 116.1333 C251.25 115.8833 250.4576 112.8927 251 112.1333 C251.8911 110.8857 255.3761 110.6584 256 109.1333 C258.5517 102.8957 259.2263 99.572 260 90.1333 C261.6845 69.5829 257.3176 67.2821 261 48.1333 C264.377 30.5731 274.7769 12.4151 275 12.1333 C275.0381 12.0852 278.4069 23.6708 280 24.1333 C284.7188 25.5033 298.8557 23.7529 306 21.1333 C307.8278 20.4631 309.9944 13.1266 310 13.1333 C310.0178 13.1547 309.1023 24.4223 311 27.1333 C312.9494 29.9182 322.2604 33.5682 324 33.1333 C325.4749 32.7646 326.8496 26.4913 331 22.1333 C336.2579 16.6125 337.5206 15.8359 344 12.1333 C347.1655 10.3245 351.8697 9.9542 352 10.1333 C352.4435 10.7431 353.759 18.1762 352 23.1333 C349.0363 31.4855 347.7073 33.8021 341 41.1333 C327.0717 56.3573 319.3044 59.1849 309 70.1333 C308.1285 71.0593 308.4295 74.5629 309 75.1333 C310.2551 76.3884 315.1111 76.2445 317 78.1333 C318.8889 80.0222 320.6732 84.9312 320 86.1333 C317.1752 91.1776 311.9483 95.6764 303 103.1333 C297.3535 107.8388 294.2667 107.1511 290 111.1333 C288.4156 112.6121 288.8662 116.2671 288 117.1333 C287.5669 117.5664 284 117.1333 284 117.1333 "/>
<path id="9" d="M289 207.1333 C289 207.1333 303.5542 225.0877 320 236.1333 C335.2301 246.3625 339.2367 249.7646 356 252.1333 C380.3496 255.574 412 249.1333 412 249.1333 "/>
<path id="10" d="M416 252.1333 C416 252.1333 420.8577 246.5067 426 244.1333 C432.7024 241.0399 434.1072 240.5976 442 240.1333 C483.8663 237.6706 490.5453 235.9083 528 238.1333 C534.7491 238.5343 535.3141 243.3017 543 246.1333 C553.7964 250.1109 559.3403 246.9007 566 252.1333 C575.6635 259.7261 579.2556 266.4956 585 279.1333 C587.8136 285.3232 584.6124 294.3493 586 296.1333 C586.8672 297.2484 598.6577 297.4414 599 297.1333 C599.1697 296.9806 596.124 291.8469 596 287.1333 C595.6561 274.0633 595.9904 260.7292 598 259.1333 C600.5877 257.0784 629.9999 260.1333 630 260.1333 C630 260.1333 625.737 260.4213 623 259.1333 C618.1294 256.8413 615.9548 256.1311 613 252.1333 C608.6525 246.2515 605.6638 236.5592 606 236.1333 C606.6538 235.3052 617.5096 235.4281 628 233.1333 C633.0354 232.0318 634.1117 231.633 638 229.1333 C640.2314 227.6989 642.0896 224.2827 642 224.1333 C641.621 223.5016 636.8445 220.071 632 219.1333 C622.6387 217.3215 611.0082 218.1797 611 218.1333 C610.9777 218.007 623.1085 209.2652 629 202.1333 C630.4936 200.3253 630.0175 195.1363 630 195.1333 C626.2395 194.4913 607.1115 196.6323 588 195.1333 C583.7619 194.8009 582.2374 193.9293 579 191.1333 C572.2534 185.3067 566 176.1333 566 176.1333 "/>
<path id="11" d="M487 240.1333 C487 240.1333 511.966 259.7862 531 271.1333 C533.4371 272.5862 535.5193 270.2632 539 271.1333 C544.7649 272.5746 545.2219 274.9296 551 276.1333 C556.3166 277.241 561.65 275.6833 563 276.1333 C563.15 276.1833 563.6253 278.8827 563 280.1333 C561.6712 282.7909 558.6928 283.362 558 286.1333 C556.256 293.1095 557 304.1333 557 304.1333 "/>
<path id="12" d="M562 277.1333 C562 277.1333 568.2749 276.4083 569 277.1333 C570.3465 278.4799 570.4035 285.3772 572 287.1333 C572.9237 288.1494 579 288.1333 579 288.1333 "/>
<path id="13" d="M565 279.1333 C565 279.1333 567.6363 281.83 568 284.1333 C568.9302 290.0245 568 298.1333 568 298.1333 "/>
</g>
</g>
</svg>
