<?xml version="1.0" encoding="utf-8"?>
<!DOCTYPE svg PUBLIC "-//W3C//DTD SVG 1.1//EN" "http://www.w3.org/Graphics/SVG/1.1/DTD/svg11.dtd">
<svg viewBox="0 0 800 800" preserveAspectRatio="xMinYMin meet" xmlns="http://www.w3.org/2000/svg" version="1.1">
<g fill="none" stroke="black" stroke-linecap="round" stroke-linejoin="round" stroke-width="1.7377">
<g transform="translate(87.52,168.6612) scale(1.7264) translate(-136,-32.1333)">
<path id="0" d="M305 152.1333 C305 152.1333 261.9584 151.5039 220 153.1333 C211.0613 153.4805 210.4833 153.7474 202 156.1333 C194.9376 158.1196 193.9295 158.2564 188 162.1333 C181.6506 166.2848 181.0438 167.2489 176 173.1333 C172.4118 177.3196 171.2558 178.8636 170 183.1333 C169.2842 185.5671 170.7628 190.1102 171 190.1333 C176.5974 190.6794 191.1717 189.4938 211 187.1333 C233.0276 184.511 255 180.1333 255 180.1333 C255 180.1333 204.4516 188.7443 155 199.1333 C145.3654 201.1574 138.4008 203.7995 136 205.1333 C135.8686 205.2063 136.1005 208.3837 137 209.1333 C140.3214 211.9011 142.4223 213.2026 148 215.1333 C154.8408 217.5013 155.6022 217.8722 163 218.1333 C197.2809 219.3432 199.0478 219.9988 233 218.1333 C243.3189 217.5664 243.4552 214.3181 254 213.1333 C331.6051 204.4137 337.1099 207.2609 411 198.1333 C417.3917 197.3438 419.3137 195.833 424 192.1333 C427.4626 189.3997 429.0736 187.3681 430 183.1333 C432.0857 173.5987 432.922 166.7536 431 160.1333 C430.0772 156.9549 426.1466 155.113 421 152.1333 C417.2233 149.9468 416.3754 149.3877 412 149.1333 C375.2224 146.9951 373.1233 145.7037 335 147.1333 C293.7173 148.6814 252.1461 155.1224 252 155.1333 C251.9945 155.1337 254.5064 154.2765 255 153.1333 C262.3264 136.1669 262.3184 131.5162 271 111.1333 C273.6644 104.8777 275.3954 105.3844 278 99.1333 C285.2318 81.7771 282.8093 79.7629 291 63.1333 C298.8908 47.1125 305.7245 33.9558 311 32.1333 C316.3005 30.3022 331.7972 35.3046 346 44.1333 C366.1153 56.6375 374.2762 64.3849 385 78.1333 C387.6635 81.548 386.4766 86.7504 385 94.1333 C381.6777 110.7449 381.1167 112.0367 375 128.1333 C371.8575 136.4031 366 144.1333 366 144.1333 "/>
<path id="1" d="M240 219.1333 C240 219.1333 245.2783 220.6584 247 223.1333 C251.9035 230.1822 250.2363 234.0282 256 242.1333 C265.6111 255.649 266.4036 258.1029 279 268.1333 C291.8366 278.3551 295.2428 275.9979 310 285.1333 C315.8893 288.7791 315.2835 290.5945 321 294.1333 C325.3038 296.7976 326.0091 297.1352 331 298.1333 C340.4272 300.0188 344.3926 301.5004 351 300.1333 C354.5945 299.3896 357.9165 296.3003 360 292.1333 C363.7502 284.6328 364.1006 282.0266 365 272.1333 C367.0266 249.8404 368.9542 245.6311 366 226.1333 C364.6039 216.9193 355 206.1333 355 206.1333 "/>
<path id="2" d="M431 158.1333 C431 158.1333 430.144 116.8808 431 111.1333 C431.019 111.0058 435.5787 109.9617 438 111.1333 C448.8122 116.365 451.5263 117.9508 462 126.1333 C466.6366 129.7557 467.031 131.0861 470 136.1333 C471.6507 138.9396 470.2733 141.1409 472 143.1333 C475.4667 147.1333 478.974 146.4364 483 151.1333 C490.1939 159.5263 491.9299 161.3652 496 171.1333 C498.6956 177.6027 497.7346 179.1708 498 187.1333 C498.7269 208.9395 499.1575 212.2277 498 231.1333 C497.8636 233.3606 496.8376 234.2958 495 236.1333 C492.2436 238.8897 491.5522 240.0569 488 241.1333 C476.5218 244.6116 474.8202 243.9966 462 246.1333 C460.0889 246.4518 459.1927 246.7839 458 246.1333 C454.9371 244.4626 453.804 243.5469 451 240.1333 C442.6136 229.9238 438.5542 228.5985 435 218.1333 C430.8958 206.0487 433 187.1333 433 187.1333 "/>
<path id="3" d="M205 173.1333 C205 173.1333 216.334 174.4966 217 174.1333 C217.1638 174.044 216.2043 167.1844 216 167.1333 C215.2572 166.9476 205 171.1333 205 171.1333 "/>
</g>
</g>
</svg>
