<?xml version="1.0" encoding="utf-8"?>
<!DOCTYPE svg PUBLIC "-//W3C//DTD SVG 1.1//EN" "http://www.w3.org/Graphics/SVG/1.1/DTD/svg11.dtd">
<svg viewBox="0 0 800 800" preserveAspectRatio="xMinYMin meet" xmlns="http://www.w3.org/2000/svg" version="1.1">
<g fill="none" stroke="black" stroke-linecap="round" stroke-linejoin="round" stroke-width="0.78245">
<g transform="translate(87.52,139.2805) scale(3.8341) translate(-151,-165.1333)">
<path id="0" d="M159 212.1333 C159 212.1333 158.4808 203.9122 159 203.1333 C159.2308 202.7872 164.7266 202.689 165 203.1333 C166.0538 204.8458 165.2241 213.2918 167 216.1333 C167.997 217.7286 171.142 218.7047 175 219.1333 C183.7962 220.1107 186.1706 217.2353 194 219.1333 C200.5682 220.7256 200.8219 224.2172 208 227.1333 C216.3354 230.5196 217.2159 231.6285 226 232.1333 C259.1434 234.0381 295 232.1333 295 232.1333 C295 232.1333 291.3958 231.681 291 232.1333 C289.7985 233.5065 290.1169 236.7816 288 240.1333 C284.4305 245.785 284.0501 246.925 279 251.1333 C272.7453 256.3455 270.9286 258.9568 264 260.1333 C248.0705 262.8383 242.3094 261.2712 226 260.1333 C223.7642 259.9773 223.3175 257.5679 221 257.1333 C216.417 256.274 214.7716 258.2178 210 257.1333 C204.7355 255.9368 204.5428 253.5637 199 252.1333 C189.6311 249.7155 185.0342 252.9444 179 249.1333 C170.3838 243.6915 166.9019 238.1665 161 228.1333 C158.3513 223.6305 160.1656 216.6487 159 215.1333 C158.5066 214.4919 151.0035 215.1357 151 215.1333 C150.9984 215.1322 156 213.1333 156 213.1333 "/>
<path id="1" d="M163 209.1333 L162 209.1333 "/>
<path id="2" d="M183 251.1333 C183 251.1333 182.6667 255.4667 184 257.1333 C189.098 263.5058 191.0064 265.562 199 271.1333 C206.8371 276.5955 207.7808 276.4064 217 280.1333 C231.0781 285.8245 231.3168 286.7072 246 290.1333 C275.7882 297.0839 277.8928 296.8529 307 301.1333 C310.1855 301.6018 314.0023 300.1346 314 300.1333 C313.9944 300.1301 307.0392 298.1213 300 297.1333 C278.6684 294.1394 272.7072 299.7336 257 292.1333 C233.0154 280.5279 207 252.1333 207 252.1333 "/>
<path id="3" d="M188 221.1333 C188 221.1333 189.8237 218.0566 192 217.1333 C204.6991 211.7458 208.3009 212.5208 221 207.1333 C223.1763 206.21 222.9012 203.8488 225 203.1333 C242.1195 197.2971 248.3549 200.6808 265 192.1333 C282.4532 183.1709 298.9578 165.1512 299 165.1333 C299.0137 165.1275 296.0013 174.3315 291 181.1333 C284.0291 190.6138 283.1312 191.8284 274 199.1333 C266.4391 205.182 264.4053 203.4597 256 209.1333 C244.6316 216.807 243.8941 221.707 234 226.1333 C228.6528 228.5255 218 226.1333 218 226.1333 "/>
</g>
</g>
</svg>
