<?xml version="1.0" encoding="utf-8"?>
<!DOCTYPE svg PUBLIC "-//W3C//DTD SVG 1.1//EN" "http://www.w3.org/Graphics/SVG/1.1/DTD/svg11.dtd">
<svg viewBox="0 0 800 800" preserveAspectRatio="xMinYMin meet" xmlns="http://www.w3.org/2000/svg" version="1.1">
<g fill="none" stroke="black" stroke-linecap="round" stroke-linejoin="round" stroke-width="1.8193">
<g transform="translate(87.52,261.4864) scale(1.649) translate(-103,-176)">
<path id="0" d="M103 245 C103 245 110.1208 234.9957 119 228 C142.4337 209.5371 143.8438 207.0483 169 193 C180.3825 186.6435 182.8903 186.2746 196 185 C217.1918 182.9397 220.7223 181.5642 241 186 C265.8322 191.432 268.0793 194.7645 292 206 C299.9876 209.7517 307 217 307 217 "/>
<path id="1" d="M307 219 C307 219 306.1863 200.5977 308 185 C308.5032 180.6726 312 176 312 176 "/>
<path id="2" d="M312 176 C312 176 316.9937 183.2911 318 190 C319.756 201.7067 318 216 318 216 "/>
<path id="3" d="M319 216 C319 216 322.8453 207.9105 328 204 C335.8549 198.0411 337.9109 197.0267 348 194 C361.8176 189.8547 363.1014 190.2212 378 189 C393.1878 187.7551 395.6588 185.5348 409 189 C431.0322 194.7227 432.4157 198.4607 455 209 C462.2379 212.3777 463.8529 212.7612 469 217 C470.9853 218.635 472 223 472 223 "/>
<path id="4" d="M103 246 C103 246 133.373 229.6954 162 222 C176.9884 217.9709 179.3627 220.3601 196 221 C204.8745 221.3413 205.1578 222.0105 214 224 C225.0558 226.4875 225.4578 226.1665 236 230 C247.1764 234.0641 249.5018 233.2723 258 240 C271.6823 250.8318 272.976 254.0362 284 268 C286.9892 271.7863 288 278 288 278 "/>
<path id="5" d="M332 281 C332 281 334.9436 273.8667 336 267 C336.8674 261.3621 334.7041 260.1835 336 255 C337.9168 247.3327 338.7308 245.8308 343 239 C345.7239 234.6417 346.5984 234.0473 351 231 C359.103 225.3902 360.2002 223.0799 369 221 C385.2953 217.1484 388.4094 217.4037 406 218 C416.5689 218.3583 416.9593 221.5473 428 223 C454.6337 226.5044 481.8593 228.0259 482 228 C482.0366 227.9933 466 216 466 216 "/>
<path id="6" d="M289 277 L288 279 "/>
<path id="7" d="M332 282 C332 282 327.5553 287.8246 325 294 C321.7289 301.9051 320.8315 302.6851 320 311 C318.432 326.6795 321.9038 341.1442 320 344 C319.1538 345.2692 298 344 298 344 "/>
<path id="8" d="M287 275 C287 275 291.3861 281.8712 294 289 C296.7559 296.5161 297.4064 297.1354 298 305 C299.3472 322.8501 298 342 298 342 "/>
</g>
</g>
</svg>
