<?xml version="1.0" encoding="utf-8"?>
<!DOCTYPE svg PUBLIC "-//W3C//DTD SVG 1.1//EN" "http://www.w3.org/Graphics/SVG/1.1/DTD/svg11.dtd">
<svg viewBox="0 0 800 800" preserveAspectRatio="xMinYMin meet" xmlns="http://www.w3.org/2000/svg" version="1.1">
<g fill="none" stroke="black" stroke-linecap="round" stroke-linejoin="round" stroke-width="0.75845">
<g transform="translate(87.52,99.3863) scale(3.9554) translate(-167,-132.8167)">
<path id="0" d="M173 222.8167 C173 222.8167 182.062 219.1574 191 217.8167 C201.5588 216.2329 202.8432 215.312 213 216.8167 C228.4934 219.112 229.5072 224.6117 245 225.8167 C272.406 227.9482 274.8828 223.0863 303 223.8167 C312.2695 224.0574 322 227.8167 322 227.8167 "/>
<path id="1" d="M176 222.8167 C176 222.8167 172.7594 222.2742 172 222.8167 C170.7524 223.7078 168.8186 227.4538 169 227.8167 C169.4665 228.7497 173.367 232.3386 177 232.8167 C189.5887 234.4731 194.1632 230.3586 207 232.8167 C215.0116 234.3508 215.5023 239.1332 224 241.8167 C233.3993 244.7849 234.8358 245.0914 245 244.8167 C270.8176 244.1189 273.9191 243.9556 298 239.8167 C303.3793 238.8921 303.6394 235.3176 309 233.8167 C315.0371 232.1263 318.6405 233.9065 323 232.8167 C323.8413 232.6063 325 229.8167 325 229.8167 "/>
<path id="2" d="M200 216.8167 C200 216.8167 210.5643 212.5409 219 206.8167 C223.9423 203.463 223.0347 201.4815 228 197.8167 C243.6289 186.281 246.5897 188.4744 261 175.8167 C282.6936 156.7614 301.6758 132.7692 302 132.8167 C302.067 132.8265 302.8238 157.925 302 181.8167 C301.8475 186.2386 301.3836 187.7727 300 190.8167 C299.5303 191.8499 297.6164 191.9949 297 192.8167 C296.7099 193.2034 296.9694 194.8014 297 194.8167 C297.0458 194.8396 298.9955 193.7964 299 193.8167 C299.0809 194.1807 300.6684 201.1286 299 203.8167 C293.9659 211.9272 281 222.8167 281 222.8167 "/>
<path id="3" d="M196 235.8167 C196 235.8167 194.0767 268.3563 194 268.8167 C193.9942 268.8512 191.2063 265.8682 191 265.8167 C190.9725 265.8098 190.2137 266.8017 190 267.8167 C188.2957 275.9119 186.7595 283.4537 187 284.8167 C187.0155 284.9043 190.6402 285.7016 193 284.8167 C201.4068 281.6641 202.1903 277.5786 211 275.8167 C229.9541 272.0258 235.0005 277.8165 253 272.8167 C267.591 268.7636 270.3942 265.1902 283 255.8167 C288.2985 251.8767 292 243.8167 292 243.8167 "/>
<path id="4" d="M171 229.8167 C171 229.8167 166.9982 233.8154 167 233.8167 C167.0078 233.8218 174 231.8167 174 231.8167 "/>
<path id="5" d="M319 229.8167 L325 235.8167 "/>
<path id="6" d="M247 180.8167 L247 181.8167 "/>
<path id="7" d="M241 196.8167 C241 196.8167 247.0738 196.1349 252 193.8167 C263.5568 188.3782 275 180.8167 275 180.8167 "/>
<path id="8" d="M256 212.8167 L284 193.8167 "/>
<path id="9" d="M231 258.8167 L223 262.8167 "/>
<path id="10" d="M254 263.8167 L248 274.8167 "/>
</g>
</g>
</svg>
