<?xml version="1.0" encoding="utf-8"?>
<!DOCTYPE svg PUBLIC "-//W3C//DTD SVG 1.1//EN" "http://www.w3.org/Graphics/SVG/1.1/DTD/svg11.dtd">
<svg viewBox="0 0 800 800" preserveAspectRatio="xMinYMin meet" xmlns="http://www.w3.org/2000/svg" version="1.1">
<g fill="none" stroke="black" stroke-linecap="round" stroke-linejoin="round" stroke-width="1.2961">
<g transform="translate(87.52,125.712) scale(2.3147) translate(-145.5,-12.6667)">
<path id="0" d="M246.5 25.6667 C246.5 25.6667 243.4986 33.678 242.5 41.6667 C240.5482 57.2809 242.9253 59.8079 240.5 73.6667 C239.8346 77.4687 236.2707 77.9675 235.5 81.6667 C234.1362 88.2127 235.5085 97.6116 235.5 97.6667 C235.4986 97.6759 233.5 94.6667 233.5 94.6667 "/>
<path id="1" d="M248.5 24.6667 C248.5 24.6667 253.7413 47.5956 260.5 68.6667 C261.9978 73.3362 264.2714 73.0875 265.5 77.6667 C269.4928 92.549 271.5 109.6667 271.5 109.6667 "/>
<path id="2" d="M271.5 111.6667 C271.5 111.6667 409.0279 111.5018 410.5 111.6667 C410.6317 111.6814 396.4762 125.6049 396.5 125.6667 C396.5174 125.7119 415.4756 124.6484 415.5 124.6667 C415.5077 124.6724 404.7006 131.2253 404.5 131.6667 C404.4787 131.7135 410.502 135.6639 410.5 135.6667 C410.4244 135.7725 399.5125 138.6583 399.5 138.6667 C399.4958 138.6695 403.0046 138.5791 404.5 139.6667 C407.3958 141.7727 410.5846 146.6615 410.5 146.6667 C408.6777 146.7786 340.7954 148.2634 290.5 146.6667 C287.932 146.5851 287.3781 143.3862 284.5 142.6667 C278.641 141.2019 270.5 141.6667 270.5 141.6667 "/>
<path id="3" d="M267.5 142.6667 C267.5 142.6667 260.5861 156.479 255.5 170.6667 C251.1685 182.7494 249.7473 183.3492 248.5 195.6667 C245.8751 221.5872 247.5235 249.618 247.5 249.6667 C247.4909 249.6856 237.0247 235.4998 235.5 222.6667 C231.5307 189.2585 236.3506 181.8418 235.5 148.6667 C235.4534 146.8504 233.5 144.6667 233.5 144.6667 "/>
<path id="4" d="M233.5 144.6667 C233.5 144.6667 221.9576 140.7653 210.5 139.6667 C186.0072 137.318 160.5 137.6667 160.5 137.6667 "/>
<path id="5" d="M235.5 90.6667 C235.5 90.6667 232.7454 94.0679 230.5 94.6667 C226.7988 95.6537 224.9649 93.8788 220.5 94.6667 C217.1382 95.2599 216.9331 97.2027 213.5 97.6667 C199.4669 99.563 183.5 99.6667 183.5 99.6667 "/>
<path id="6" d="M185.5 98.6667 C185.5 98.6667 179.7605 97.5552 175.5 98.6667 C169.2946 100.2855 166.0523 100.6068 162.5 104.6667 C154.5008 113.8086 148.0586 127.8738 147.5 130.6667 C147.4576 130.8785 152.0644 133.7024 156.5 134.6667 C162.8895 136.0557 170.5 135.6667 170.5 135.6667 "/>
<path id="7" d="M170.5 119.6667 C170.5 119.6667 169.4994 123.667 169.5 123.6667 C169.501 123.6662 172.5 118.6667 172.5 118.6667 "/>
<path id="8" d="M253.5 42.6667 C253.5 42.6667 258.5171 38.9158 260.5 34.6667 C264.9469 25.1376 267.5 12.6667 267.5 12.6667 C267.5 12.6667 253.5004 53.665 253.5 53.6667 C253.4999 53.6673 256.5997 44.9753 261.5 39.6667 C267.6342 33.0213 277.4989 27.6396 277.5 27.6667 C277.5035 27.7513 262.5002 63.6646 262.5 63.6667 C262.4999 63.6678 270.7995 52.9829 275.5 44.6667 C276.2136 43.4041 275.5 40.6667 275.5 40.6667 C275.5 40.6667 276.4679 45.1471 275.5 48.6667 C271.2625 64.0756 264.4746 80.6051 264.5 80.6667 C264.507 80.6837 281.5082 66.2931 282.5 65.6667 C282.5323 65.6463 283.7461 67.6209 283.5 68.6667 C282.1493 74.4072 281.6935 76.57 278.5 82.6667 C276.551 86.3875 272.5 89.6667 272.5 89.6667 C272.5 89.6667 275.4961 86.6615 275.5 86.6667 C275.536 86.7147 276.2964 90.6403 275.5 93.6667 C273.985 99.4236 271.1369 104.8705 270.5 105.6667 C270.4841 105.6866 267.5 103.6667 267.5 103.6667 "/>
<path id="9" d="M263.5 13.6667 L250.5 33.6667 "/>
<path id="10" d="M264.5 145.6667 C264.5 145.6667 269.9281 154.0397 269.5 155.6667 C268.9265 157.8458 262.3087 161.0153 259.5 164.6667 C258.8269 165.5417 258.8108 167.7018 259.5 168.6667 C262.4536 172.8017 269.5 177.9495 269.5 178.6667 C269.5 179.097 263.3915 181.3739 259.5 184.6667 C257.6337 186.2459 256.3955 189.5506 256.5 189.6667 C257.2177 190.4641 265.4072 192.0157 268.5 194.6667 C270.0193 195.9689 270.9672 201.1995 270.5 201.6667 C267.6036 204.563 255.1774 208.6909 250.5 212.6667 C249.6872 213.3575 249.6675 216.6686 250.5 218.6667 C251.6216 221.3585 254.6585 221.974 255.5 224.6667 C256.6127 228.2272 256.3294 230.5197 255.5 234.6667 C255.0355 236.989 252.7872 237.513 252.5 239.6667 C251.9753 243.6018 253.949 249.2585 253.5 249.6667 C252.834 250.2721 241.5 249.6667 241.5 249.6667 "/>
<path id="11" d="M150.5 127.6667 C150.5 127.6667 145.4205 149.6137 145.5 149.6667 C145.5987 149.7325 165.5 137.6667 165.5 137.6667 "/>
</g>
</g>
</svg>
