<?xml version="1.0" encoding="utf-8"?>
<!DOCTYPE svg PUBLIC "-//W3C//DTD SVG 1.1//EN" "http://www.w3.org/Graphics/SVG/1.1/DTD/svg11.dtd">
<svg viewBox="0 0 800 800" preserveAspectRatio="xMinYMin meet" xmlns="http://www.w3.org/2000/svg" version="1.1">
<g fill="none" stroke="black" stroke-linecap="round" stroke-linejoin="round" stroke-width="1.6753">
<g transform="translate(87.52,265.6963) scale(1.7907) translate(-86,-31.4167)">
<path id="0" d="M164 116.4167 C164 116.4167 126.1913 115.393 103 121.4167 C95.5935 123.3404 93.1681 129.5229 87 136.4167 C85.9701 137.5677 86.3278 138.4497 86 140.4167 C85.8426 141.3608 85.9138 142.3822 86 142.4167 C86.5388 142.6322 90.2878 143.1708 91 142.4167 C95.4241 137.7323 98.1915 126.9712 103 124.4167 C107.3416 122.1102 114.7077 126.0801 123 125.4167 C125.1813 125.2422 125.6873 122.8248 128 122.4167 C133.0191 121.5309 134.0193 122.2031 140 122.4167 C147.9921 122.7021 148.7777 122.1035 156 123.4167 C158.9214 123.9478 162 126.4167 162 126.4167 "/>
<path id="1" d="M112 129.4167 C112 129.4167 116.6124 132.0792 121 132.4167 C141.4754 133.9917 146.4362 135.8818 164 133.4167 C170.2548 132.5388 174.4345 128.4575 178 124.4167 C179.4832 122.7358 179.6669 118.4173 179 116.4167 C178.5071 114.9379 176.26 113.2385 174 112.4167 C171.8992 111.6527 170.2716 111.6054 168 112.4167 C164.2952 113.7398 160 117.4167 160 117.4167 "/>
<path id="2" d="M147 114.4167 C147 114.4167 147.1393 106.7962 149 100.4167 C150.462 95.4041 150.7097 93.8714 154 90.4167 C159.6359 84.499 162.3955 80.6397 169 79.4167 C184.0469 76.6302 191.1746 77.3575 208 80.4167 C215.5734 81.7936 222.7765 85.8226 224 89.4167 C227.2182 98.8703 226.0129 118.9625 224 127.4167 C223.662 128.8363 216.6449 128.5314 214 131.4167 C207.7728 138.21 207.058 148.3512 202 151.4167 C197.5965 154.0855 189.4706 153.8369 181 151.4167 C171.1464 148.6014 160 139.4167 160 139.4167 "/>
<path id="3" d="M178 93.4167 C178 93.4167 174.3252 95.8264 173 97.4167 C172.6755 97.8061 172.9 99.3667 173 99.4167 C173.4 99.6167 176.9957 99.4295 177 99.4167 C177.0064 99.3974 174 96.4167 174 96.4167 "/>
<path id="4" d="M224 114.4167 C224 114.4167 224.2821 110.7945 225 110.4167 C229.8918 107.8421 234.3733 104.8236 243 104.4167 C284.4999 102.4591 289.2081 101.3394 331 105.4167 C348.1125 107.0862 349.3386 110.1224 366 116.4167 C371.2197 118.3886 372.2326 118.8848 376 122.4167 C379.4811 125.6802 382 131.4167 382 131.4167 "/>
<path id="5" d="M206 150.4167 C206 150.4167 224.0394 153.0575 242 153.4167 C298.7806 154.5523 304.6841 157.2179 356 153.4167 C365.7864 152.6918 368.0746 149.1545 377 143.4167 C380.9514 140.8765 381.6061 139.3067 384 135.4167 C385.0922 133.6418 385 130.4167 385 130.4167 "/>
<path id="6" d="M276 128.4167 C276 128.4167 276.6544 126.4795 277 126.4167 C279.5343 125.9559 287 126.4166 287 126.4167 C287 126.4167 278.7155 127.9175 278 127.4167 C277.431 127.0184 275.9572 120.6084 277 119.4167 C284.2264 111.1579 293.6819 108.521 306 95.4167 C316.314 84.4444 314.1192 80.4952 324 69.4167 C329.7278 62.9946 331.2886 63.5576 339 58.4167 C352.236 49.5927 352.9391 46.5866 366 41.4167 C374.4384 38.0765 378.4611 38.3493 387 39.4167 C391.8353 40.0211 396.2691 42.899 398 45.4167 C399.2762 47.273 398.95 51.1417 398 55.4167 C397.1556 59.2166 396.807 61.1904 394 63.4167 C371.1698 81.5234 367.6281 84.3901 340 101.4167 C325.2814 110.4875 323.0647 111.1615 308 116.4167 C303.5493 117.9692 301.9257 115.3905 297 116.4167 C290.7122 117.7266 289.5199 118.35 284 121.4167 C281.2789 122.9284 279 126.4167 279 126.4167 "/>
<path id="7" d="M371 118.4167 C371 118.4167 373.281 114.6162 376 113.4167 C388.6072 107.8547 391.598 109.4795 405 103.4167 C411.8248 100.3293 411.7931 96.6334 418 94.4167 C423.8788 92.3171 432.1765 92.4963 433 93.4167 C434.4445 95.0311 435.8246 112.8277 435 113.4167 C432.9865 114.8549 417.6493 110.4268 405 113.4167 C393.1634 116.2144 380 126.4167 380 126.4167 "/>
<path id="8" d="M375 119.4167 C375 119.4167 380.6763 104.068 388 92.4167 C390.8438 87.8924 393.2132 85.2717 397 84.4167 C404.63 82.6938 418.9555 85.3811 419 85.4167 C419.0125 85.4267 411.5381 88.0406 407 92.4167 C398.4597 100.652 399.621 105.317 391 112.4167 C384.4718 117.7929 373 120.4167 373 120.4167 "/>
<path id="9" d="M402 86.4167 L386 107.4167 "/>
<path id="10" d="M418 90.4167 C418 90.4167 403.5667 106.3035 392 115.4167 C390.0288 116.9698 385 116.4167 385 116.4167 "/>
<path id="11" d="M430 99.4167 C430 99.4167 410.1526 112.3404 394 120.4167 C391.9158 121.4588 388 120.4167 388 120.4167 "/>
<path id="12" d="M319 103.4167 L341 103.4167 "/>
<path id="13" d="M330 90.4167 L355 85.4167 "/>
<path id="14" d="M343 73.4167 L396 74.4167 "/>
<path id="15" d="M374 58.4167 L405 54.4167 "/>
<path id="16" d="M381 50.4167 C381 50.4167 383.2137 48.4828 385 48.4167 C395.0683 48.0438 408 49.4167 408 49.4167 "/>
<path id="17" d="M251 99.4167 C251 99.4167 252.1015 83.5341 257 71.4167 C260.9051 61.7566 262.9751 59.4416 270 52.4167 C273.9515 48.4651 276.1348 47.5611 282 46.4167 C295.0882 43.8629 297.5716 44.4167 311 44.4167 C313.7783 44.4167 317 46.3952 317 46.4167 C317 46.4488 313.199 47.3304 311 49.4167 C294.7784 64.8064 287.1661 68.9731 278 83.4167 C274.997 88.1486 278 101.4167 278 101.4167 "/>
<path id="18" d="M368 39.4167 C368 39.4167 370.4332 36.3095 373 35.4167 C380.7878 32.7079 382.4289 31.603 391 31.4167 C404.2378 31.1289 414.9821 33.1252 419 34.4167 C419.2675 34.5027 420.0362 38.6631 419 40.4167 C414.91 47.3382 412.7255 50.5684 406 56.4167 C402.6318 59.3455 401.0354 59.3152 396 60.4167 C385.5096 62.7115 374 63.4167 374 63.4167 "/>
<path id="19" d="M376 46.4167 L409 42.4167 "/>
<path id="20" d="M379 43.4167 C379 43.4167 375.9668 42.9333 375 43.4167 C374.154 43.8397 372.9954 46.4135 373 46.4167 C373.6742 46.8886 379.1632 49.7496 385 50.4167 C395.7767 51.6483 408 50.4167 408 50.4167 "/>
<path id="21" d="M375 61.4167 L420 61.4167 "/>
<path id="22" d="M356 64.4167 C356 64.4167 383.9875 65.5996 397 64.4167 C398.0675 64.3196 400 60.4167 400 60.4167 "/>
<path id="23" d="M360 64.4167 L379 66.4167 "/>
<path id="24" d="M358 71.4167 L373 71.4167 "/>
<path id="25" d="M325 87.4167 C325 87.4167 339.8486 87.3788 340 87.4167 C340.0227 87.4223 337 90.4167 337 90.4167 "/>
<path id="26" d="M306 105.4167 L311 106.4167 "/>
<path id="27" d="M306 110.4167 L318 110.4167 "/>
<path id="28" d="M272 152.4167 C272 152.4167 275.2968 150.8294 277 151.4167 C287.1687 154.9231 289.0359 158.9271 301 162.4167 C311.9381 165.607 325 165.4167 325 165.4167 "/>
<path id="29" d="M314 164.4167 C314 164.4167 318.1985 171.1246 321 173.4167 C321.7802 174.055 325 173.4167 325 173.4167 "/>
<path id="30" d="M322 164.4167 L330 161.4167 "/>
<path id="31" d="M326 164.4167 C326 164.4167 331.9762 165.4048 332 165.4167 C332.0055 165.4194 330 166.4167 330 166.4167 "/>
<path id="32" d="M265 156.4167 L295 169.4167 "/>
<path id="33" d="M295 167.4167 C295 167.4167 299.9507 165.466 300 165.4167 C300.007 165.4096 298 164.4167 298 164.4167 "/>
<path id="34" d="M297 168.4167 C297 168.4167 299.7382 168.8931 300 169.4167 C300.7854 170.9875 301 176.4167 301 176.4167 "/>
<path id="35" d="M297 167.4167 L298 181.4167 "/>
</g>
</g>
</svg>
