<?xml version="1.0" encoding="utf-8"?>
<!DOCTYPE svg PUBLIC "-//W3C//DTD SVG 1.1//EN" "http://www.w3.org/Graphics/SVG/1.1/DTD/svg11.dtd">
<svg viewBox="0 0 800 800" preserveAspectRatio="xMinYMin meet" xmlns="http://www.w3.org/2000/svg" version="1.1">
<g fill="none" stroke="black" stroke-linecap="round" stroke-linejoin="round" stroke-width="1.6321">
<g transform="translate(87.52,267.6555) scale(1.8381) translate(-96,-164.1333)">
<path id="0" d="M268 197.1333 C268 197.1333 281.2404 201.758 294 202.1333 C331.0589 203.2233 336.145 197.9491 370 200.1333 C377.816 200.6376 379.2635 203.8782 387 208.1333 C388.6811 209.0579 389.6786 209.8476 390 211.1333 C390.7714 214.219 391.2341 216.5683 390 220.1333 C387.2418 228.1014 383.1906 229.1011 381 237.1333 C379.1984 243.7393 379.4235 245.8813 381 253.1333 C384.1702 267.7162 387.7611 268.5581 391 283.1333 C392.5078 289.9183 392.1567 292.0604 391 298.1333 C390.4785 300.871 389.2818 302.5035 387 304.1333 C383.4593 306.6624 381.1641 307.9441 377 308.1333 C372.1481 308.3539 369.2475 306.9537 365 305.1333 C363.9495 304.6831 363.0793 303.4542 363 302.1333 C361.8046 282.2099 363.8408 270.7802 362 255.1333 C361.8207 253.6097 359.2597 251.8866 357 251.1333 C354.5024 250.3008 350.0297 250.9683 350 251.1333 C348.813 257.7279 350.7999 287.1341 348 301.1333 C347.6222 303.0221 342.3697 305.0101 339 306.1333 C338.1576 306.4141 336.3494 305.7821 336 305.1333 C334.1094 301.6221 332.2098 298.797 332 293.1333 C331.2761 273.5869 336.3456 255.9311 334 251.1333 C333.1576 249.4102 320.8951 248.9404 310 248.1333 C308.6839 248.0358 307.3342 248.5317 307 249.1333 C305.858 251.1889 305.2368 253.1858 305 257.1333 C303.7732 277.5806 305.2542 279.4845 304 299.1333 C303.8471 301.5286 302.8583 303.6565 302 304.1333 C300.7425 304.8319 296.63 305.0224 295 304.1333 C293.3065 303.2096 291.2347 300.8085 291 298.1333 C289.1123 276.6136 291.8811 256.1968 290 247.1333 C289.8503 246.412 283.9368 244.8873 280 245.1333 C277.5333 245.2875 275.3615 246.2768 274 248.1333 C271.1176 252.0638 269.6673 254.3948 269 260.1333 C267.3559 274.2728 270.3489 278.9937 269 291.1333 C268.7631 293.2654 266.7103 295.4207 265 296.1333 C262.7508 297.0705 259.3931 297.2501 257 296.1333 C253.9289 294.7002 250.8125 292.151 250 289.1333 C248.2625 282.6799 247.7398 277.3249 250 270.1333 C252.3146 262.7687 257.7278 261.7684 261 254.1333 C262.9633 249.5523 262.9943 243.4591 262 242.1333 C260.7847 240.513 255.1585 238.9031 249 238.1333 C244.039 237.5132 240.9982 239.7758 238 239.1333 C236.9278 238.9036 235 235.1333 235 235.1333 "/>
<path id="1" d="M393 212.1333 C393 212.1333 406.7343 210.7114 414 213.1333 C418.087 214.4957 419.6913 217.2805 423 222.1333 C426.736 227.6128 426.2797 230.9017 429 235.1333 C429.4726 235.8685 432 236.1333 432 236.1333 "/>
<path id="2" d="M432 237.1333 L432 243.1333 "/>
<path id="3" d="M432 233.1333 L436 235.1333 "/>
<path id="4" d="M433 239.1333 L436 242.1333 "/>
<path id="5" d="M271 197.1333 C271 197.1333 258.942 194.6716 251 190.1333 C246.6508 187.6481 243 181.1333 243 181.1333 "/>
<path id="6" d="M237 236.1333 C237 236.1333 223.8295 234.2796 217 235.1333 C215.4537 235.3266 214.7586 238.4299 213 239.1333 C211.1158 239.887 208.8435 240.1093 207 239.1333 C202.1563 236.569 198.7137 233.8339 196 230.1333 C195.046 228.8324 195.0798 226.1052 196 224.1333 C197.8813 220.1019 202.3849 218.8237 203 215.1333 C204.2503 207.6316 199.1639 201.2739 201 194.1333 C202.5083 188.2675 206.8624 182.2636 212 180.1333 C221.5519 176.1728 242 177.1333 242 177.1333 "/>
<path id="7" d="M200 235.1333 C200 235.1333 196.3906 243.7162 192 250.1333 C190.4085 252.4593 189.2962 253.7281 187 254.1333 C175.1876 256.2179 169.8912 258.2738 158 256.1333 C148.4588 254.4159 146.9788 251.2315 137 245.1333 C129.181 240.355 128.4392 240.3713 122 234.1333 C112.8706 225.2893 111.7858 224.4595 105 214.1333 C100.8763 207.8581 100.1421 206.3666 99 199.1333 C97.3528 188.7012 99.9495 187.2111 99 176.1333 C98.494 170.2298 95.7263 164.7903 96 164.1333 C96.0849 163.9296 101.0393 163.1464 104 164.1333 C107.2074 165.2025 109.2226 166.3864 111 169.1333 C113.721 173.3384 113.8961 175.172 115 181.1333 C116.3158 188.2384 114.3342 189.2621 116 196.1333 C118.1526 205.0126 118.9555 205.505 123 214.1333 C126.3734 221.33 126.3676 221.9569 131 228.1333 C135.0533 233.5377 135.8234 234.1748 141 238.1333 C143.7263 240.2182 144.616 240.7466 148 241.1333 C160.9567 242.6141 162.8687 243.0942 176 242.1333 C182.2502 241.676 183.8726 241.2098 189 238.1333 C195.1928 234.4176 201 227.1333 201 227.1333 "/>
<path id="8" d="M248 189.1333 C248 189.1333 249.1375 207.966 248 223.1333 C247.7917 225.9103 246.4208 228.3683 245 229.1333 C242.5969 230.4273 238.5495 230.9685 235 230.1333 C232.0278 229.434 230.3827 227.7808 228 225.1333 C226.5661 223.5402 225.9494 222.3615 226 220.1333 C226.3993 202.5637 229 181.1333 229 181.1333 "/>
</g>
</g>
</svg>
