<?xml version="1.0" encoding="utf-8"?>
<!DOCTYPE svg PUBLIC "-//W3C//DTD SVG 1.1//EN" "http://www.w3.org/Graphics/SVG/1.1/DTD/svg11.dtd">
<svg viewBox="0 0 800 800" preserveAspectRatio="xMinYMin meet" xmlns="http://www.w3.org/2000/svg" version="1.1">
<g fill="none" stroke="black" stroke-linecap="round" stroke-linejoin="round" stroke-width="2.0593">
<g transform="translate(87.52,214.2601) scale(1.4568) translate(-64,-176)">
<path id="0" d="M114 201 C114 201 115.8465 195.3287 119 192 C124.1229 186.5925 125.3614 184.5907 132 182 C143.9169 177.3495 146.4314 177.0051 160 176 C172.3319 175.0865 175.6599 174.3379 186 178 C196.574 181.745 208 193 208 193 "/>
<path id="1" d="M205 193 C205 193 215.0352 208.0352 221 214 C221.8061 214.8061 224.739 214.8406 226 214 C230.2032 211.1979 231.2267 205.432 236 204 C251.2378 199.4286 259.5871 202.8413 276 199 C279.3504 198.2159 279.706 194.098 283 193 C288.246 191.2513 290.5104 193.352 297 192 C301.9481 190.9691 302.216 188.3322 307 188 C335.8913 185.9937 340.9383 183.4177 369 187 C384.266 188.9489 385.584 192.8059 401 200 C407.7766 203.1624 407.2667 205.1945 414 208 C424.6839 212.4516 427.9392 210.4696 437 215 C440.7611 216.8805 444 223 444 223 "/>
<path id="2" d="M113 202 L110 215 "/>
<path id="3" d="M110 214 C110 214 108.0415 219.0979 108 224 C107.5521 276.8492 108.1166 278.1102 109 332 C109.1146 338.9928 108.5968 339.4519 110 346 C111.4878 352.943 114.335 353.1596 115 360 C117.6716 387.4795 113.0215 396.8834 117 418 C117.8909 422.7287 122.6343 425.9672 128 429 C132.092 431.3129 135.8076 431.7986 140 431 C143.6598 430.3029 146 428.4286 149 425 C152.1081 421.4479 152.3253 419.6891 154 415 C154.5684 413.4086 154.6009 411.6677 154 411 C151.8817 408.6463 148.7081 408.5021 145 405 C140.098 400.3703 136.2165 398.4027 136 394 C133.9024 351.3484 139 283 139 283 "/>
<path id="4" d="M138 283 C138 283 138.1259 291.5065 135 296 C123.9828 311.8372 120.9884 314.3685 106 329 C100.9048 333.9739 99.0309 335.696 93 337 C83.1735 339.1247 69 337 69 337 "/>
<path id="5" d="M132 278 C132 278 117.139 291.7281 106 306 C101.9213 311.2258 103.8546 313.5224 100 319 C94.8191 326.3624 93.5429 329.3196 87 333 C80.3396 336.7465 68 337 68 337 "/>
<path id="6" d="M107 273 C107 273 108.1395 280.7907 106 284 C99.398 293.9029 95.4904 296.2867 85 306 C82.7742 308.0609 81.8407 308.4987 79 309 C74.2144 309.8445 71.741 308.0024 68 309 C66.2769 309.4595 63.9615 312.992 64 313 C64.343 313.0715 80.7723 315.5173 92 314 C95.9531 313.4658 97.8207 311.5534 101 308 C105.5606 302.9028 109 295 109 295 "/>
<path id="7" d="M141 294 C141 294 144.7107 294.434 145 294 C147.0616 290.9077 147.4557 281.6582 151 279 C156.4449 274.9163 173 273 173 273 "/>
<path id="8" d="M176 220 C176 220 185.9237 209.1381 197 202 C207.5629 195.1928 209.3441 193.7426 221 191 C232.9396 188.1907 238.2757 188.333 248 190 C251.3346 190.5717 255.4816 194.26 256 197 C257.8152 206.5944 252.7969 217.4532 255 227 C255.8368 230.6263 260.0166 233.1149 265 236 C268.328 237.9268 272.131 236.2645 274 238 C276.619 240.432 278.3027 244.3515 279 249 C279.5163 252.4418 279.022 255.1114 277 258 C273.2282 263.3883 270.2996 267.3807 265 269 C256.7199 271.53 251.8297 271.5093 241 269 C212.8417 262.4755 183 250 183 250 "/>
<path id="9" d="M173 273 C173 273 177.8143 272.9072 180 274 C181.4571 274.7286 183 278 183 278 "/>
<path id="10" d="M182 275 C182 275 187.633 278.5808 191 283 C195.1548 288.4531 193.9769 290.8274 198 296 C200.2781 298.929 205 301 205 301 "/>
<path id="11" d="M207 300 C207 300 208.9304 304.1025 209 308 C209.9008 358.4429 204.6691 395.1402 209 412 C209.5077 413.9766 237 417 237 417 "/>
<path id="12" d="M248 305 C248 305 248.9064 313.296 248 321 C246.9537 329.8936 244.6124 330.1206 244 339 C242.6597 358.4341 245.2659 359.2517 244 379 C242.7872 397.9191 239 417 239 417 "/>
<path id="13" d="M199 299 C199 299 200.8084 331.8959 199 363 C198.3702 373.8333 195.3971 374.5215 194 385 C193.5151 388.6367 194.3367 392.621 195 393 C196.5477 393.8844 208 393 208 393 "/>
<path id="14" d="M250 320 C250 320 254.2847 325.6424 259 328 C266.0729 331.5364 267.7433 332.5913 276 333 C316.2121 334.9907 325.4408 335.5736 360 333 C364.3287 332.6777 369.9843 325.8701 370 326 C370.2431 328.0175 369.5612 375.6302 370 416 C370.0098 416.902 370.6982 417.9759 371 418 C377.2433 418.4995 386.3088 418.6686 395 418 C395.78 417.94 397 416 397 416 "/>
<path id="15" d="M403 317 C403 317 402.127 323.7622 403 329 C403.4729 331.8371 405.9046 332.2647 406 335 C407.2504 370.8449 406.9901 405.099 406 415 C405.9901 415.099 398 415 398 415 "/>
<path id="16" d="M351 332 C351 332 350.5709 366.446 353 396 C353.3532 400.2968 355.086 403.724 357 405 C359.233 406.4887 368 406 368 406 "/>
<path id="17" d="M405 328 C405 328 411.8459 325.8079 416 322 C422.9655 315.615 425.1166 314.4141 429 306 C436.2509 290.2898 435.9874 287.5094 440 270 C441.25 264.5455 440 258 440 258 "/>
<path id="18" d="M447 224 C447 224 445.8862 240.6346 447 254 C447.232 256.7845 449.4229 256.9864 450 260 C453.6997 279.3205 451.5134 281.259 456 301 C458.8643 313.6029 459.3102 314.3928 465 326 C471.5471 339.356 480.8666 351.7221 481 352 C481.0116 352.0241 477 351 477 351 "/>
<path id="19" d="M442 262 C442 262 443.7795 270.6807 447 278 C449.0597 282.6811 451.6722 282.4856 453 287 C456.2287 297.9776 453.7696 301.3398 457 312 C458.21 315.9929 461.2683 315.8151 463 320 C466.8792 329.3747 465.0331 331.5404 469 341 C471.1821 346.2034 476 351 476 351 "/>
<path id="20" d="M470 341 L483 340 "/>
<path id="21" d="M480 344 C480 344 481.3334 347.9744 483 349 C486.2487 350.9992 493 352 493 352 "/>
<path id="22" d="M473 331 L492 337 "/>
<path id="23" d="M481 342 L490 345 "/>
<path id="24" d="M467 331 L466 349 "/>
<path id="25" d="M473 346 C473 346 475.5713 350.142 476 354 C476.9774 362.7962 476 373 476 373 "/>
<path id="26" d="M478 355 C478 355 482.068 356.068 484 358 C486.7907 360.7907 489 366 489 366 "/>
<path id="27" d="M471 348 L470 368 "/>
<path id="28" d="M142 225 L154 208 "/>
<path id="29" d="M150 210 L165 208 "/>
<path id="30" d="M149 226 C149 226 152.8036 222.2294 156 221 C158.1493 220.1734 161.9241 220.8293 162 221 C162.2307 221.5192 161.2204 228.8905 160 230 C158.8123 231.0798 153.2726 231.4132 151 231 C150.344 230.8807 149 228 149 228 "/>
<path id="31" d="M156 226 C156 226 157.9542 224.9771 158 225 C158.0306 225.0153 158 227 158 227 "/>
<path id="32" d="M135 397 L133 401 "/>
<path id="33" d="M138 400 L136 409 "/>
<path id="34" d="M142 406 L143 411 "/>
<path id="35" d="M210 412 C210 412 211.0332 408.4834 212 408 C214.0545 406.9727 218.5339 406.1622 220 407 C222.1991 408.2567 225.9099 415.9485 226 416 C226.015 416.0086 226.12 412.232 227 411 C227.748 409.9528 229.1 409.475 231 409 C232.6889 408.5778 234.2211 408.3942 235 409 C237.0339 410.5819 240 416 240 416 "/>
<path id="36" d="M197 390 C197 390 204.7866 386.6838 207 387 C208.0902 387.1557 211 392 211 392 "/>
<path id="37" d="M356 404 C356 404 359.5495 399.0563 360 399 C360.3409 398.9574 362.6982 402.783 364 403 C366.1387 403.3565 372 401 372 401 "/>
<path id="38" d="M373 419 C373 419 372.4486 415.9649 373 415 C373.7286 413.7249 376.4348 411.8116 377 412 C379.5748 412.8583 386.322 419.7903 388 420 C388.5943 420.0743 391.3907 414.4952 393 414 C394.7358 413.4659 399.5541 416.3943 401 416 C401.8464 415.7692 404 411 404 411 "/>
<path id="39" d="M383 417 C383 417 387.3829 412.5502 391 411 C393.0529 410.1202 395.0019 410.1675 397 411 C399.6918 412.1216 403 416 403 416 "/>
<path id="40" d="M445 219 L446 225 "/>
</g>
</g>
</svg>
