<?xml version="1.0" encoding="utf-8"?>
<!DOCTYPE svg PUBLIC "-//W3C//DTD SVG 1.1//EN" "http://www.w3.org/Graphics/SVG/1.1/DTD/svg11.dtd">
<svg viewBox="0 0 800 800" preserveAspectRatio="xMinYMin meet" xmlns="http://www.w3.org/2000/svg" version="1.1">
<g fill="none" stroke="black" stroke-linecap="round" stroke-linejoin="round" stroke-width="2.2465">
<g transform="translate(87.52,215.0492) scale(1.3354) translate(-150,-142)">
<path id="0" d="M175 340 C175 340 174.5304 330.2641 175 330 C176.2887 329.2751 189.8693 329.7986 191 331 C192.1266 332.197 192.2606 343.5784 191 347 C190.5605 348.1931 187.3596 349.4401 184 350 C179.0726 350.8212 176.1701 351.7964 173 350 C164.7481 345.3239 161.3601 341.6402 154 333 C151.0264 329.5092 150.7717 327.8228 150 323 C148.9121 316.2009 147.2762 312.6305 150 308 C172.207 270.2481 181.9343 264.9949 210 221 C218.4977 207.6792 219.243 206.271 224 192 C226.7788 183.6635 223.9107 181.8797 226 173 C227.7611 165.5153 228.0082 163.6355 232 158 C235.482 153.0842 237.1898 151.9988 243 149 C251.7692 144.474 253.4141 142.7374 263 142 C290.0344 139.9204 294.9872 140.3987 321 143 C326.6413 143.5641 330.7424 145.5008 333 149 C337.955 156.6802 337.3923 170.8899 341 174 C343.5637 176.2101 351.9671 175.4333 362 174 C379.2675 171.5332 379.7384 167.3407 397 166 C429.9518 163.4406 434.3695 160.764 465 166 C488.612 170.0362 491.9284 174.7833 514 186 C520.5622 189.3349 521.1693 191.0958 526 197 C529.6916 201.512 528.3399 203.0864 532 208 C564.3929 251.4864 567.9194 250.7559 599 295 C609.8136 310.3935 610.5495 312.7039 617 329 C619.258 334.7045 618.0965 342.8897 618 343 C617.9926 343.0084 610.8277 338.3796 610 337 C609.7854 336.6423 612 333 612 333 "/>
<path id="1" d="M176 333 C176 333 174.5877 312.7377 180 306 C192.566 290.3566 205.8119 290.2444 225 272 C234.6327 262.841 235.8948 259.6285 241 248 C243.9419 241.299 240.9708 237.3776 243 231 C243.7583 228.6166 245.3429 227.5184 248 226 C251.6234 223.9295 252.8427 223.1434 257 223 C266.1019 222.6861 268.0984 222.8513 277 225 C281.4358 226.0707 282.7422 226.9594 286 230 C289.4326 233.2038 288.912 237.3943 292 239 C298.0949 242.1694 308.7201 240.9601 311 243 C312.1745 244.0508 311.0005 255.9988 311 256 C310.9997 256.0007 310.883 250.7521 309 248 C305.2763 242.5577 298.0241 236.9341 298 237 C297.8579 237.3876 296.8484 258.4232 298 278 C298.2858 282.8591 298.9247 286.2706 301 288 C304.5096 290.9247 308.7008 292.1311 316 293 C328.637 294.5044 330.5303 290.9217 343 293 C356.1625 295.1937 356.5924 299.4126 370 302 C384.177 304.7359 400 303.9999 400 304 C400 304 384.762 306.7516 372 305 C360.9623 303.485 356.6036 298.0488 349 297 C347.2813 296.7629 343.121 299.6013 343 301 C340.3147 332.0299 340.8586 351.2022 340 401 C339.8628 408.955 339.816 412.7377 341 417 C341.2263 417.8146 343.2071 418.9655 345 419 C366.3011 419.4096 371.4429 420.23 393 418 C397.7132 417.5124 402.0817 415.1706 403 413 C405.1313 407.9625 405.0204 402.0001 404 392 C402.6029 378.3085 399.953 377.9498 398 364 C396.5007 353.2909 395.9892 352.3602 397 342 C397.8993 332.7819 398.5688 331.9211 402 323 C405.9106 312.8325 408.151 312.2376 412 303 C412.6371 301.471 412.2 299.4 412 299 C411.95 298.9 410 299 410 299 C410 311.7548 413.0986 385.2248 412 405 C411.9746 405.4565 403.9991 406.9999 404 407 C404.0027 407.0003 421.2509 410.2438 429 407 C436.9148 403.6868 444.5553 396.9774 447 389 C451.606 373.97 448.3215 366.865 448 345 C447.8243 333.055 448.1375 332.4892 446 321 C444.2357 311.517 439.4705 302.6541 440 302 C440.772 301.0464 451.6586 300 463 300 C475.3276 300 480.756 298.6884 488 302 C492.5844 304.0957 496.0525 308.9518 498 316 C505.5562 343.3464 504.7175 347.0345 509 378 C511.176 393.7343 509.3694 395.3242 511 410 C511.2137 411.923 511.9278 413.1065 513 414 C513.9717 414.8097 515.0486 414.9524 517 415 C534.9411 415.4376 541.7767 418.0558 554 415 C558.625 413.8437 562.6089 408.5791 565 403 C567.3502 397.5163 566.8572 393.5721 566 387 C565.5937 383.885 563.0822 383.5557 562 380 C559.7727 372.6817 559.3343 371.9117 559 364 C557.8599 337.0172 557.0456 316.2965 559 309 C559.1783 308.3343 569.6964 306.6307 574 308 C576.798 308.8903 578.4212 311.7801 581 316 C583.6138 320.2772 584.5553 321.2196 585 326 C586.4148 341.2094 581.992 344.9629 585 359 C587.3308 369.8773 594.1201 370.9236 597 382 C600.0055 393.5598 599.6431 407.6386 598 409 C595.1049 411.3988 569.8825 414.0188 562 411 C557.8255 409.4013 552.2336 400.3943 551 391 C546.4404 356.2769 547.2433 342.9175 549 312 C549.2093 308.3168 553.0588 304.0181 556 303 C561.5245 301.0877 569.5273 301.4038 575 303 C577.0283 303.5916 580 310 580 310 "/>
<path id="2" d="M572 301 C572 301 568.6397 299.9291 567 298 C560.8483 290.7627 560.1273 289.8873 555 281 C545.273 264.1398 543.7268 263.8608 537 246 C529.5706 226.2737 528.9432 218.7162 526 204 C525.8269 203.1343 528 201 528 201 "/>
<path id="3" d="M265 169 C265 169 266.723 166.2947 268 166 C271.4586 165.2019 273.5449 165.6287 278 166 C278.9282 166.0773 279.8375 166.5938 280 167 C280.3611 167.9028 280.2 170.6 280 171 C279.95 171.1 278 171 278 171 "/>
<path id="4" d="M269 172 L272 172 "/>
</g>
</g>
</svg>
