<?xml version="1.0" encoding="utf-8"?>
<!DOCTYPE svg PUBLIC "-//W3C//DTD SVG 1.1//EN" "http://www.w3.org/Graphics/SVG/1.1/DTD/svg11.dtd">
<svg viewBox="0 0 800 800" preserveAspectRatio="xMinYMin meet" xmlns="http://www.w3.org/2000/svg" version="1.1">
<g fill="none" stroke="black" stroke-linecap="round" stroke-linejoin="round" stroke-width="2.8178">
<g transform="translate(87.52,238.7028) scale(1.0647) translate(-19,-125.1333)">
<path id="0" d="M117 130.1333 C117 130.1333 103.274 129.9313 98 133.1333 C93.5673 135.8246 91.5508 140.0696 89 147.1333 C85.5332 156.7336 86.0183 165.3997 85 169.1333 C84.9759 169.2215 82.9999 169.1287 83 169.1333 C83.2303 180.534 89.1853 223.3347 87 268.1333 C86.4584 279.2362 80.8157 279.9709 77 292.1333 C72.939 305.0779 76.2119 307.6671 71 319.1333 C64.5767 333.2645 62.3818 334.3785 52 347.1333 C45.3065 355.3567 36 362.1333 36 362.1333 "/>
<path id="1" d="M113 127.1333 C113 127.1333 141.9823 124.6123 166 129.1333 C181.5848 132.0669 188.4037 136.553 198 143.1333 C200.2738 144.6925 200.4355 148.2413 201 153.1333 C201.8729 160.6988 202.4166 162.0504 201 169.1333 C199.6542 175.8621 195 183.1333 195 183.1333 "/>
<path id="2" d="M200 143.1333 C200 143.1333 208.894 143.2388 216 141.1333 C221.4722 139.5119 221.8581 136.9481 227 135.1333 C229.3519 134.3032 232.325 135.3583 233 135.1333 C233.075 135.1083 232.9034 133.1609 233 133.1333 C238.0238 131.698 247.1106 128.083 261 127.1333 C304.5776 124.1537 306.0059 124.4062 350 125.1333 C365.8567 125.3954 367.3015 125.037 382 129.1333 C396.4802 133.1688 400.104 133.7344 411 142.1333 C421.4713 150.2049 422.895 153.5812 430 166.1333 C437.2014 178.8559 441 195.1333 441 195.1333 "/>
<path id="3" d="M441 195.1333 C441 195.1333 445.7528 222.4493 454 248.1333 C463.0968 276.4633 462.9052 278.2482 476 304.1333 C483.7293 319.4122 484.8324 321.3289 497 333.1333 C517.0404 352.5755 521.6106 355.5867 543 369.1333 C547.7463 372.1393 550.9568 368.6928 557 371.1333 C575.6397 378.6609 595 390.1333 595 390.1333 "/>
<path id="4" d="M425 200.1333 C425 200.1333 428.4473 221.254 434 240.1333 C435.662 245.7841 437.8774 245.4115 440 251.1333 C449.1972 275.9258 445.8942 278.7146 457 302.1333 C468.2357 325.8259 471.4362 325.1843 486 348.1333 C487.9308 351.1758 487.5273 352.0907 490 354.1333 C498.2103 360.9157 499.4725 362.2159 509 367.1333 C514.0207 369.7247 515.9562 367.4854 521 370.1333 C534.9145 377.4384 536.4229 378.1288 549 388.1333 C557.7742 395.1128 558.7087 396.2683 565 405.1333 C569.0511 410.8417 571 419.1333 571 419.1333 "/>
<path id="5" d="M568 394.1333 C568 394.1333 572.7893 395.4762 576 398.1333 C586.6599 406.9553 586.9995 408.1328 597 418.1333 C598.2196 419.3529 599 421.059 599 421.1333 C599 421.1333 597 421.1333 597 421.1333 "/>
<path id="6" d="M585 394.1333 L606 396.1333 "/>
<path id="7" d="M576 407.1333 L579 428.1333 "/>
<path id="8" d="M192 184.1333 C192 184.1333 197.0858 172.8401 204 164.1333 C210.0672 156.4932 211.8541 153.4961 219 150.1333 C225.6007 147.0271 228.8327 147.8983 238 148.1333 C247.7132 148.3824 256.659 149.5688 258 151.1333 C259.0842 152.3983 257.1055 163.8821 256 169.1333 C255.9147 169.5384 254.0241 169.8316 254 170.1333 C253.5005 176.3767 251.8753 184.3068 254 194.1333 C255.304 200.1643 259.1007 200.4426 262 207.1333 C265.3747 214.9212 266.2965 215.8315 267 224.1333 C268.6959 244.145 267.3731 260.91 267 266.1333 C266.9981 266.16 264.8571 266.6949 264 266.1333 C253.0154 258.9366 248.8417 256.4797 238 247.1333 C235.9093 245.331 236.8497 242.3665 235 241.1333 C229.9794 237.7863 225.142 239.3888 220 235.1333 C212.5579 228.9744 210.878 224.7988 206 217.1333 C205.2749 215.9939 206.6383 213.9135 206 213.1333 C203.7079 210.3319 199.5727 209.8935 197 206.1333 C194.1186 201.922 193 194.1333 193 194.1333 "/>
<path id="9" d="M139 175.1333 C139 175.1333 149.0532 173.5126 152 175.1333 C154.9581 176.7603 159 186.1333 159 186.1333 "/>
<path id="10" d="M139 191.1333 C139 191.1333 143.4612 191.3488 144 191.1333 C144.0862 191.0988 143.9965 189.1298 144 189.1333 C144.0176 189.151 148 195.1333 148 195.1333 "/>
<path id="11" d="M441 245.1333 C441 245.1333 449.5676 262.4782 455 280.1333 C459.4012 294.4371 459.9763 295.546 461 310.1333 C461.9038 323.0129 461.737 327.8274 459 337.1333 C458.0721 340.2882 454.2053 340.2157 451 344.1333 C445.5144 350.838 441 359.1333 441 359.1333 "/>
<path id="12" d="M361 277.1333 C361 277.1333 358.5323 292.5707 361 305.1333 C363.6581 318.6654 365.7139 320.9103 372 333.1333 C373.9798 336.9829 376.4441 336.2995 379 340.1333 C383.0895 346.2675 384.6103 347.1849 386 354.1333 C390.2413 375.3396 389.6194 377.3538 391 400.1333 C391.5945 409.9428 388.7574 417.8552 390 420.1333 C390.5807 421.1979 396.5434 421.833 403 422.1333 C417.7941 422.8214 422.1142 422.8137 433 422.1333 C433.7711 422.0851 434.4076 421.259 435 420.1333 C439.1164 412.3122 440.5987 411.6469 443 403.1333 C445.8489 393.0326 445.1578 392.0822 446 381.1333 C446.6441 372.7606 447.2027 371.3498 446 364.1333 C445.4576 360.8788 442 357.1333 442 357.1333 "/>
<path id="13" d="M364 321.1333 C364 321.1333 366.128 342.7046 364 363.1333 C361.2112 389.9055 352.81 414.6542 354 417.1333 C354.298 417.7541 388 413.1333 388 413.1333 "/>
<path id="14" d="M361 305.1333 C361 305.1333 356.8797 311.3681 352 314.1333 C343.1634 319.1407 341.4068 320.0095 331 322.1333 C317.9375 324.7991 314.3781 325.7588 303 324.1333 C296.7831 323.2452 294.2249 320.8833 289 316.1333 C284.3556 311.9111 281 304.1333 281 304.1333 "/>
<path id="15" d="M275 274.1333 C275 274.1333 278.955 303.9427 278 321.1333 C277.8505 323.8251 273.438 325.0176 272 328.1333 C271.1168 330.0469 272.7537 332.2491 272 334.1333 C271.2966 335.8919 268.9343 335.9845 268 338.1333 C264.4823 346.2241 264.0542 347.8896 262 357.1333 C261.1918 360.7702 262.2353 364.1922 262 365.1333 C261.9853 365.1922 260.0016 365.1127 260 365.1333 C259.4624 372.1219 261.5993 411.2436 258 417.1333 C256.5836 419.4511 241.3054 419.7987 227 419.1333 C221.3596 418.871 215.0753 415.924 215 415.1333 C214.4548 409.4087 220.093 396.1607 223 377.1333 C225.5539 360.417 228.5234 356.4384 226 343.1333 C223.9881 332.525 215.8915 330.8079 212 319.1333 C208.6515 309.0877 210 295.1333 210 295.1333 "/>
<path id="16" d="M286 310.1333 C286 310.1333 281.1672 318.0124 279 325.1333 C277.9879 328.4588 279.8822 329.6045 279 333.1333 C277.0702 340.8526 274.7852 341.3976 273 349.1333 C271.9731 353.5831 273.987 355.4322 273 359.1333 C272.4012 361.3787 269.0369 362.2138 269 364.1333 C268.6587 381.8817 272.9397 406.2259 272 411.1333 C271.9535 411.3762 260 411.1333 260 411.1333 "/>
<path id="17" d="M216 331.1333 C216 331.1333 212.6512 331.7845 212 331.1333 C206.7904 325.9237 205.077 320.5642 198 313.1333 C196.0318 311.0667 192.8071 311.7475 192 310.1333 C189.4443 305.0219 191.5976 300.3286 188 293.1333 C179.2899 275.7132 174.648 273.464 166 258.1333 C165.2704 256.8399 166 254.1333 166 254.1333 "/>
<path id="18" d="M164 254.1333 C164 254.1333 163.9009 264.3646 161 271.1333 C158.643 276.6329 157.0607 278.0848 152 282.1333 C145.404 287.4101 136.0008 291.1347 136 291.1333 C135.9816 291.1027 142.5541 281.782 146 272.1333 C149.784 261.5382 151.0001 249.1335 151 249.1333 C150.9999 249.1332 148.1557 260.4613 144 268.1333 C142.4957 270.9104 139.7496 270.3071 138 273.1333 C133.9177 279.7279 135.2404 282.0661 131 289.1333 C128.1031 293.9615 126.1875 293.2382 123 298.1333 C112.4514 314.333 114.7714 318.1548 103 332.1333 C92.2156 344.9398 89.4813 344.4629 75 355.1333 C61.1461 365.3415 60.8404 366.8481 46 374.1333 C34.4121 379.8219 22.034 382.284 20 382.1333 C19.8606 382.123 18.5066 375.3405 19 372.1333 C19.1735 371.0058 20.4975 369.5906 22 369.1333 C30.1471 366.6538 34.128 368.161 42 365.1333 C45.0363 363.9655 48 359.1333 48 359.1333 "/>
<path id="19" d="M179 277.1333 L149 280.1333 "/>
</g>
</g>
</svg>
