<?xml version="1.0" encoding="utf-8"?>
<!DOCTYPE svg PUBLIC "-//W3C//DTD SVG 1.1//EN" "http://www.w3.org/Graphics/SVG/1.1/DTD/svg11.dtd">
<svg viewBox="0 0 800 800" preserveAspectRatio="xMinYMin meet" xmlns="http://www.w3.org/2000/svg" version="1.1">
<g fill="none" stroke="black" stroke-linecap="round" stroke-linejoin="round" stroke-width="1.9825">
<g transform="translate(87.52,186.6359) scale(1.5132) translate(-67,-148)">
<path id="0" d="M125 386 C125 386 123.1132 382.3949 123 379 C122.1513 353.5381 121.0291 351.6217 123 326 C123.9468 313.6912 127.3644 313.4714 129 301 C131.3 283.4624 128.1213 281.9846 131 265 C132.9295 253.6162 133.8687 252.6902 139 242 C145.6302 228.1871 148.2489 228.5021 155 215 C157.4111 210.1778 155.3356 207.5525 158 204 C162.8763 197.4982 167.1734 197.7466 173 191 C175.7959 187.7626 174.2641 183.824 177 182 C192.0476 171.9683 198.2492 165.5886 218 161 C243.169 155.1527 248.1604 158.2476 276 159 C283.739 159.2092 284.4901 162.4993 292 163 C298.4019 163.4268 299.2273 160.8461 306 161 C320.5932 161.3317 321.4445 161.2863 336 164 C350.5232 166.7077 353.3522 165.3196 365 172 C384.6901 183.2929 386.8215 186.4577 404 203 C412.7879 211.4625 411.4984 215.4267 419 224 C420.8136 226.0727 424.0521 225.2622 425 227 C428.3657 233.1704 429.218 236.581 431 246 C432.6097 254.5087 432.1815 255.0472 432 264 C430.687 328.7723 428 394 428 394 "/>
<path id="1" d="M124 379 C124 379 121.031 379.7367 121 380 C120.6363 383.0913 122.8192 388.9001 122 396 C121.4605 400.6759 118.664 401.1863 118 406 C116.8044 414.6678 116.4967 418.9866 118 425 C118.5143 427.0572 121.3082 428.8784 124 430 C125.9981 430.8325 127.0089 430.1196 130 430 C139.4917 429.6203 141.7846 430.9426 149 429 C152.226 428.1315 154.9347 425.587 156 423 C157.3192 419.7962 156.1296 412.0648 156 412 C155.835 411.9175 150.6579 416.4474 146 418 C142.8947 419.0351 139.9337 418.9668 138 418 C136.308 417.154 134.2484 414.683 134 412 C132.1245 391.7451 135.2282 385.9107 133 364 C132.4669 358.7578 128.3801 357.5613 128 353 C127.5755 347.906 130.8211 342.5051 131 340 C131.0116 339.8375 129 339 129 339 "/>
<path id="2" d="M159 277 C159 277 153.1377 286.5943 151 296 C148.3863 307.5004 152.7936 311.8154 149 321 C144.8839 330.9654 135.355 332.3078 132 342 C128.0882 353.3006 131 373 131 373 "/>
<path id="3" d="M161 279 C161 279 172.8703 264.374 182 261 C190.132 257.9947 197.851 259.386 207 262 C211.5487 263.2996 217 271 217 271 C217 271 215.15 268.95 215 269 C214.4 269.2 212.7187 272.7356 211 273 C197.8521 275.0227 176.2789 274.9442 176 275 C175.9669 275.0066 178.6601 278.415 181 279 C186.9474 280.4868 191.8421 279.2204 196 280 C196.3764 280.0706 196.7023 281.9787 197 282 C204.0328 282.5023 212.4568 283.0822 224 282 C226.2579 281.7883 229 279 229 279 "/>
<path id="4" d="M229 247 C229 247 230.0836 256.7895 229 266 C227.1348 281.8546 224.2522 282.1389 223 298 C221.3034 319.4909 224.6569 320.4609 223 342 C221.7023 358.8698 218.5004 359.0668 217 376 C215.0409 398.11 214.7998 419.017 216 421 C216.2035 421.3362 235.4944 416.2528 240 414 C240.4096 413.7952 239.2418 410.9714 240 409 C243.7679 399.2036 248.1596 398.3523 250 388 C255.6613 356.1553 254.6331 353.1717 256 319 C256.6104 303.7402 253.1641 302.767 254 288 C254.603 277.3465 259 266 259 266 "/>
<path id="5" d="M258 258 C258 258 259.3542 304.5997 259 351 C258.8552 369.9684 259.1684 370.4138 257 389 C255.7192 399.9784 251.5586 410.1974 252 411 C252.1559 411.2835 261.8142 410.6278 268 409 C269.4184 408.6267 270.2275 407.6638 271 406 C276.2126 394.7729 279.9789 392.9753 281 381 C285.1112 332.7864 282 277 282 277 "/>
<path id="6" d="M279 295 C279 295 281.9395 300.7703 286 305 C293.6062 312.9231 294.0685 313.4327 303 320 C310.76 325.7059 311.7383 326.2134 320 330 C322.8549 331.3085 323.5492 331 327 331 C345.7328 331 349.7103 333.2344 365 330 C371.4483 328.6359 376.429 324.2238 379 320 C380.8045 317.0354 379 307 379 307 "/>
<path id="7" d="M379 303 C379 303 374.4183 328.535 373 353 C372.468 362.1761 375.2145 362.7745 375 372 C374.7275 383.7158 374.0906 386.5924 372 396 C371.6892 397.3984 369.2351 397.7463 369 399 C368.1422 403.5748 369 412 369 412 C369 412 368.8644 410.0678 369 410 C369.8813 409.5594 372.0004 409.2222 375 409 C385.4073 408.2291 395.7235 408.0437 396 408 C396.022 407.9965 394 406 394 406 "/>
<path id="8" d="M400 302 L395 407 "/>
<path id="9" d="M398 303 C398 303 399.0075 305.5038 400 306 C401.8432 306.9216 404.498 306.0612 406 307 C407.0203 307.6377 407.6301 308.9918 408 311 C410.9572 327.0533 411.6608 328.0364 413 345 C414.6384 365.7535 414 366.2867 414 387 C414 390.4522 414.1981 391.2044 413 394 C411.5254 397.4407 407.9661 400.991 408 401 C408.2077 401.0554 425.8639 399.2367 428 398 C428.3569 397.7934 427 390 427 390 "/>
<path id="10" d="M414 220 C414 220 421.1391 219.1342 424 221 C429.9437 224.8763 431.576 227.4898 437 235 C444.2793 245.079 444.6304 245.6413 450 257 C457.4681 272.798 456.2077 275.2168 463 290 C464.0174 292.2144 466.0322 291.8225 467 294 C471.4481 304.0083 472.3325 305.5296 475 317 C477.1959 326.4424 476.5012 327.0248 477 337 C477.4963 346.9256 477.4942 351.811 477 357 C476.9706 357.3089 475 358 475 358 "/>
<path id="11" d="M206 267 C206 267 171.7419 268.0769 138 267 C125.0512 266.5867 124.129 267.0917 112 264 C99.5155 260.8177 98.1212 260.2387 87 254 C78.5373 249.2526 77.7776 245.4055 71 241 C69.8912 240.2793 66.996 240.996 67 241 C67.0139 241.0139 74.7728 244.7728 76 246 C76.1753 246.1753 74.8534 248.8534 75 249 C75.7331 249.7331 80.7856 250.7856 82 252 C82.4858 252.4858 81.4615 255.6101 82 256 C89.6801 261.5614 96.129 267.2168 111 273 C130.7429 280.6778 132.8533 280.6288 154 284 C166.2854 285.9585 167.536 285.0106 180 284 C185.3898 283.563 191 281 191 281 "/>
<path id="12" d="M127 281 C127 281 116.3795 281.0749 109 283 C106.5921 283.6281 106.1849 286.7335 104 287 C89.6184 288.7539 68.0054 287.998 68 288 C67.9973 288.001 79.6776 292.0013 88 293 C89.9231 293.2308 90.9509 291 93 291 C96.2786 291 99.6105 292.3052 101 293 C101.1544 293.0772 101 295 101 295 C104.2677 295 126.8037 293.6994 131 293 C131.0692 292.9885 131 290 131 290 "/>
<path id="13" d="M197 208 C197 208 194.2482 209.1314 194 210 C192.9329 213.7348 192.5944 221.3626 193 222 C193.146 222.2295 200.2893 221.7107 201 221 C201.5528 220.4472 202.1346 215.8566 201 214 C198.1275 209.2996 190 203 190 203 "/>
<path id="14" d="M224 189 C224 189 248.1522 171.3487 273 157 C283.0148 151.2168 284.5433 151.3611 295 148 C297.5204 147.1899 299.0281 147.0798 301 148 C305.0314 149.8813 308.7035 151.5736 310 155 C313.9736 165.5016 313.9798 170.1044 315 185 C316.4459 206.1094 315.9811 206.742 315 228 C314.4949 238.9446 315.3934 241.7588 312 250 C309.5859 255.8627 305.6158 260.8696 301 262 C288.4164 265.0817 276.2667 264.7639 263 262 C258.7814 261.1211 257.7293 253.8307 253 252 C245.5761 249.1262 239.2185 252.2211 232 250 C229.7137 249.2965 227 244 227 244 "/>
<path id="15" d="M227 207 C227 207 227.2995 204.3852 228 204 C234.1851 200.5982 239.2466 201.4626 247 196 C259.9677 186.8637 259.1172 182.202 272 173 C278.8412 168.1134 281.6159 168.0138 289 166 C290.846 165.4965 293.5669 166.3503 294 167 C294.8662 168.2993 294.7344 171.0155 295 175 C295.2305 178.4577 295.8325 179.5024 295 182 C294.2468 184.2597 291 187 291 187 "/>
<path id="16" d="M234 212 C234 212 242.0215 209.2791 249 209 C253.5785 208.8169 255.9968 209.3829 259 211 C260.5433 211.831 261.8381 214.2186 262 216 C262.1787 217.9657 260.702 221.7493 260 222 C258.027 222.7046 252.8091 220.4342 248 221 C245.8335 221.2549 244.1001 222.2398 243 224 C240.1038 228.6339 238.004 236.9936 238 237 C237.9988 237.002 238 232 238 232 "/>
<path id="17" d="M151 416 C151 416 149.0007 407 149 407 C148.9996 407 148 415.9999 148 416 C148 416 148.8036 412.0655 149 412 C149.3647 411.8784 154 414 154 414 "/>
<path id="18" d="M474 326 L467 340 "/>
<path id="19" d="M474 335 C474 335 475.1484 340.5549 475 341 C474.9738 341.0786 472.2663 340.6805 472 341 C471.1835 341.9798 470 347 470 347 "/>
<path id="20" d="M480 341 L476 355 "/>
<path id="21" d="M478 331 L480 336 "/>
</g>
</g>
</svg>
