<?xml version="1.0" encoding="utf-8"?>
<!DOCTYPE svg PUBLIC "-//W3C//DTD SVG 1.1//EN" "http://www.w3.org/Graphics/SVG/1.1/DTD/svg11.dtd">
<svg viewBox="0 0 800 800" preserveAspectRatio="xMinYMin meet" xmlns="http://www.w3.org/2000/svg" version="1.1">
<g fill="none" stroke="black" stroke-linecap="round" stroke-linejoin="round" stroke-width="2.2657">
<g transform="translate(87.52,245.0841) scale(1.3241) translate(-10,-70)">
<path id="0" d="M101 132 C101 132 95.9168 123.6673 94 116 C92.7041 110.8165 92.9446 109.0133 94 104 C94.6897 100.7238 95.4804 99.6771 98 97 C102.9842 91.7043 103.6303 91.0341 110 87 C118.2342 81.785 118.83 81.0567 128 78 C140.6633 73.7789 141.5275 73.633 155 72 C174.0676 69.6888 174.5264 70.0649 194 70 C324.2991 69.5657 383.3766 63.7339 455 71 C459.8661 71.4937 464.4693 84.3049 470 98 C474.588 109.3608 475.0117 110.5635 476 123 C480.9065 184.7396 479.5942 186.0487 482 249 C482.5908 264.4599 483.7843 268.9968 482 280 C481.5986 282.475 479.3118 284.0681 476 286 C468.0983 290.6093 467.0455 291.9899 458 294 C436.8092 298.7091 435.4951 298.5487 413 300 C358.353 303.5256 357.9816 302.8948 303 304 C258.5473 304.8935 258.033 305.4926 214 304 C199.5851 303.5114 199.4313 301.1101 185 300 C173.6746 299.1288 170.2683 300.954 162 300 C160.7971 299.8612 159.4327 297.0865 159 297 C158.8077 296.9615 157.0422 299.0253 157 299 C156.6836 298.8102 154.023 296.1423 154 294 C153.5973 256.5456 159.1214 225.769 156 206 C155.6553 203.8166 147.1757 200.2441 139 199 C125.8755 197.0028 124.0304 197.4411 110 199 C93.1742 200.8695 93.0488 203.4995 76 206 C55.7582 208.9688 55.4411 208.5399 35 210 C27.5733 210.5305 25.8651 211.333 20 210 C16.8186 209.277 14.6591 207.6546 13 205 C10.7215 201.3543 10.5586 199.3999 10 194 C9.111 185.4063 8.585 183.641 10 176 C10.7803 171.7864 13.0032 168.7971 15 167 C15.7621 166.3141 18.0677 167.7246 20 167 C25.1207 165.0798 25.3521 162.4596 31 161 C68.0781 151.418 73.4568 153.1994 109 144 C112.5777 143.074 115.0921 140.0592 116 139 C116.0943 138.89 115.5253 137.1827 115 137 C107.538 134.4045 93 131 93 131 "/>
</g>
</g>
</svg>
