<?xml version="1.0" encoding="utf-8"?>
<!DOCTYPE svg PUBLIC "-//W3C//DTD SVG 1.1//EN" "http://www.w3.org/Graphics/SVG/1.1/DTD/svg11.dtd">
<svg viewBox="0 0 800 800" preserveAspectRatio="xMinYMin meet" xmlns="http://www.w3.org/2000/svg" version="1.1">
<g fill="none" stroke="black" stroke-linecap="round" stroke-linejoin="round" stroke-width="1.8721">
<g transform="translate(87.52,139.6) scale(1.6025) translate(-100.5,-109.6667)">
<path id="0" d="M128.5 198.6667 C128.5 198.6667 133.7144 180.845 142.5 167.6667 C150.7047 155.3596 152.5501 154.1364 164.5 144.6667 C178.1818 133.8245 179.4491 132.6889 195.5 125.6667 C218.3642 115.6636 220.5918 113.6933 244.5 109.6667 C265.7745 106.0836 268.0558 108.0861 290.5 109.6667 C302.8697 110.5378 303.8457 110.5719 315.5 114.6667 C340.0563 123.2946 340.8455 124.4211 364.5 135.6667 C370.8377 138.6797 371.3013 139.0456 376.5 143.6667 C384.4492 150.7326 385.7138 154.5234 391.5 159.6667 C392.094 160.1947 394.5 159.6667 394.5 159.6667 "/>
<path id="1" d="M125.5 202.6667 C125.5 202.6667 124.5834 207.2834 125.5 209.6667 C126.5375 212.3642 128.9649 212.5964 130.5 215.6667 C132.1254 218.9176 130.5531 220.6578 132.5 223.6667 C140.6573 236.2734 145.477 241.7276 152.5 249.6667 C152.9266 250.1489 155.2906 249.405 155.5 249.6667 C156.006 250.2991 155.4912 253.9941 156.5 254.6667 C167.5971 262.0647 174.1157 265.8615 191.5 273.6667 C197.6289 276.4184 198.6204 276.484 205.5 276.6667 C253.8732 277.9509 258.6519 282.042 304.5 276.6667 C326.7262 274.0608 329.5998 269.3961 350.5 259.6667 C356.9565 256.661 362.5 249.6667 362.5 249.6667 "/>
<path id="2" d="M393.5 159.6667 C393.5 159.6667 394.4125 154.5125 395.5 153.6667 C396.7687 152.6799 399.023 152.7753 402.5 152.6667 C414.8626 152.2803 415.7703 151.3986 427.5 152.6667 C433.3331 153.2973 434.9134 153.5543 439.5 156.6667 C447.6601 162.2039 448.9941 163.5993 455.5 171.6667 C460.9229 178.391 461.1188 179.6746 464.5 187.6667 C466.3515 192.0429 465.0989 194.3041 466.5 197.6667 C466.9203 198.6754 469.3649 198.8896 469.5 199.6667 C470.6347 206.1913 470.5 210.2974 470.5 220.6667 C470.5 225.1106 470.6861 226.8201 469.5 229.6667 C468.9122 231.0773 466.1606 231.0977 465.5 232.6667 C463.006 238.5899 462.3081 240.7876 461.5 248.6667 C460.3674 259.7097 458.8687 261.5003 461.5 271.6667 C469.2445 301.5887 477.4395 303.3643 483.5 333.6667 C488.3557 357.9451 485.6418 361.547 484.5 386.6667 C484.2158 392.9196 482.6428 393.2383 480.5 399.6667 C479.6529 402.2081 480.0482 402.8604 478.5 404.6667 C466.0484 419.1936 462.5751 427.9583 450.5 434.6667 C443.4712 438.5715 433.8709 435.6361 424.5 434.6667 C423.3069 434.5432 422.5954 433.3098 421.5 431.6667 C419.7474 429.0377 418.6709 428.0586 418.5 425.6667 C418.284 422.6424 418.6344 419.3084 420.5 417.6667 C427.7892 411.2521 434.969 411.3446 443.5 403.6667 C447.9812 399.6336 449.9338 396.6521 450.5 390.6667 C453.028 363.9425 453.4019 358.9755 450.5 329.6667 C448.55 309.9721 447.2998 308.5551 440.5 289.6667 C434.087 271.8527 432.9296 270.3827 423.5 254.6667 C420.1621 249.1035 417.8034 245.7991 413.5 244.6667 C403.9609 242.1564 398.3151 242.4905 385.5 244.6667 C373.3585 246.7284 360.5 253.6667 360.5 253.6667 "/>
<path id="3" d="M420.5 184.6667 C420.5 184.6667 425.5 189.1721 425.5 189.6667 C425.5 190.0623 420.588 193.6667 420.5 193.6667 C420.5 193.6667 420.0166 190.6335 420.5 189.6667 C420.923 188.8207 423.5 187.6667 423.5 187.6667 "/>
<path id="4" d="M383.5 177.6667 C383.5 177.6667 371.7541 170.7533 359.5 165.6667 C345.4827 159.8482 344.5486 159.0116 330.5 155.6667 C324.6801 154.281 322.3183 153.9988 317.5 155.6667 C311.527 157.7342 306.2479 161.6475 304.5 164.6667 C303.5648 166.282 304.4556 172.8582 306.5 174.6667 C313.1913 180.5859 319.9279 180.6186 330.5 187.6667 C333.9521 189.9681 335.9847 191.9614 336.5 194.6667 C337.3618 199.1913 336.5463 202.3232 334.5 208.6667 C331.7641 217.1479 328.355 217.5511 326.5 225.6667 C324.7266 233.4251 325.2165 238.0192 326.5 243.6667 C326.8663 245.2782 329.3253 247.3321 331.5 247.6667 C339.6327 248.9179 342.9415 248.6908 352.5 247.6667 C355.8325 247.3096 356.7273 246.7995 359.5 244.6667 C369.0556 237.3162 370.3697 236.8461 378.5 227.6667 C385.3806 219.8983 383.7967 217.4872 390.5 209.6667 C395.3074 204.058 402.5 199.6667 402.5 199.6667 "/>
<path id="5" d="M458.5 171.6667 C458.5 171.6667 458.2558 160.2541 458.5 158.6667 C458.5058 158.6291 460.4611 158.7705 460.5 158.6667 C460.9349 157.5071 460.1392 153.3882 461.5 150.6667 C462.9408 147.7851 464.4346 146.4184 467.5 144.6667 C470.4725 142.9681 474.0267 142.1756 475.5 142.6667 C476.7054 143.0685 478.8549 145.7636 479.5 148.6667 C481.5082 157.7036 478.8335 161.4006 481.5 169.6667 C483.0498 174.4711 488.729 175.2123 489.5 179.6667 C492.3559 196.1675 491.7645 206.8088 490.5 221.6667 C490.3363 223.5899 487.6857 225.9381 485.5 226.6667 C482.2215 227.7595 475.5 226.6667 475.5 226.6667 "/>
<path id="6" d="M400.5 215.6667 C400.5 215.6667 400.4119 233.226 403.5 248.6667 C405.1911 257.1223 406.294 257.7804 410.5 265.6667 C414.111 272.4372 414.4587 273.0947 419.5 278.6667 C423.5648 283.1594 429.4991 286.6774 429.5 286.6667 C429.5024 286.6378 425.2248 275.0259 420.5 266.6667 C419.5092 264.9137 416.6339 264.7915 416.5 263.6667 C414.993 251.0082 415.0926 242.9997 415.5 224.6667 C415.5632 221.8237 417.5 218.6667 417.5 218.6667 "/>
<path id="7" d="M469.5 230.6667 C469.5 230.6667 473.067 232.903 474.5 235.6667 C479.533 245.3731 483.4999 257.6656 483.5 257.6667 C483.5001 257.6673 479.8367 249.5216 475.5 245.6667 C472.3507 242.8673 465.5 241.6667 465.5 241.6667 "/>
<path id="8" d="M124.5 199.6667 C124.5 199.6667 121.1433 202.4152 120.5 204.6667 C119.5575 207.9653 121.6326 209.8159 120.5 213.6667 C116.9838 225.6217 113.6614 226.6533 110.5 238.6667 C109.0126 244.3187 109.6422 247.0919 110.5 251.6667 C110.7351 252.9203 112.9211 253.1229 113.5 254.6667 C115.4824 259.9531 116.1579 261.3377 116.5 267.6667 C117.1224 279.181 118.4944 281.3735 115.5 291.6667 C111.1407 306.6519 105.1783 308.008 100.5 322.6667 C98.4084 329.2204 99.0555 331.6849 100.5 338.6667 C101.7857 344.881 106.5 351.6667 106.5 351.6667 "/>
<path id="9" d="M178.5 268.6667 C178.5 268.6667 178.714 307.3389 177.5 335.6667 C177.4441 336.9705 175.6175 337.3034 175.5 338.6667 C173.4529 362.4132 171.3819 382.8586 172.5 393.6667 C172.5804 394.4435 177.3701 396.5078 181.5 396.6667 C189.1674 396.9616 197.9103 395.977 198.5 394.6667 C200.8495 389.4456 197.9661 375.3802 199.5 356.6667 C200.4396 345.2033 200.6193 344.5494 203.5 333.6667 C204.9756 328.0923 207.5364 328.1272 208.5 322.6667 C211.8011 303.9602 212.5 282.6667 212.5 282.6667 "/>
<path id="10" d="M227.5 278.6667 C227.5 278.6667 226.0533 302.3226 223.5 325.6667 C222.5673 334.1939 222.9159 334.6943 220.5 342.6667 C218.0555 350.7335 215.3797 350.7302 213.5 358.6667 C211.1077 368.7677 210.4661 379.6328 211.5 380.6667 C212.7407 381.9074 229.362 381.611 235.5 380.6667 C236.1689 380.5638 236.645 378.7187 237.5 376.6667 C241.6277 366.7602 244.217 366.289 245.5 356.6667 C247.936 338.3964 242.7589 335.0319 245.5 316.6667 C247.4525 303.5849 255.5 289.6667 255.5 289.6667 "/>
<path id="11" d="M305.5 275.6667 C305.5 275.6667 308.0766 296.6939 305.5 315.6667 C302.7628 335.8223 297.9431 336.2728 294.5 356.6667 C291.5806 373.9582 290.6099 390.4717 292.5 392.6667 C294.0669 394.4863 325.1862 393.7603 325.5 392.6667 C329.3112 379.3853 325.5 277.6667 325.5 277.6667 "/>
<path id="12" d="M341.5 269.6667 C341.5 269.6667 342.4981 277.4303 341.5 284.6667 C338.5653 305.9432 335.5305 306.3467 333.5 327.6667 C331.5977 347.6411 331.0142 365.4818 333.5 368.6667 C335.0142 370.6068 362.5426 370.4226 365.5 368.6667 C366.5426 368.0476 366.4838 358.9146 365.5 349.6667 C364.0226 335.7792 361.2709 335.5434 360.5 321.6667 C358.8097 291.2414 360.5 259.6667 360.5 259.6667 "/>
</g>
</g>
</svg>
