<?xml version="1.0" encoding="utf-8"?>
<!DOCTYPE svg PUBLIC "-//W3C//DTD SVG 1.1//EN" "http://www.w3.org/Graphics/SVG/1.1/DTD/svg11.dtd">
<svg viewBox="0 0 800 800" preserveAspectRatio="xMinYMin meet" xmlns="http://www.w3.org/2000/svg" version="1.1">
<g fill="none" stroke="black" stroke-linecap="round" stroke-linejoin="round" stroke-width="0.73925">
<g transform="translate(225.4982,87.52) scale(4.0582) translate(-269.5,-210.6667)">
<path id="0" d="M314.5 213.6667 C314.5 213.6667 319.4273 228.6971 321.5 243.6667 C323.861 260.7185 326.3676 265.5236 323.5 278.6667 C321.5873 287.4333 317.0353 289.2476 309.5 298.6667 C303.1723 306.5763 302.8307 307.2922 295.5 313.6667 C291.8818 316.8129 289.8619 315.434 286.5 318.6667 C277.6784 327.149 272.6886 331.834 269.5 338.6667 C268.5183 340.7703 270.2413 344.601 272.5 348.6667 C274.8017 352.8097 275.7289 354.8382 279.5 356.6667 C289.8575 361.6885 299.6139 366.1382 305.5 364.6667 C311.0796 363.2718 315.7729 355.8223 323.5 345.6667 C332.9379 333.2625 331.4161 331.4515 340.5 318.6667 C344.7086 312.7435 348.1025 313.2607 350.5 307.6667 C354.6003 298.0992 353.9387 295.5324 355.5 283.6667 C356.3864 276.9297 356.3728 274.6125 355.5 269.6667 C355.28 268.4198 353.0646 268.2477 352.5 266.6667 C348.6862 255.9879 347.5024 254.1258 345.5 241.6667 C343.0994 226.7294 345.5566 212.5304 343.5 210.6667 C341.5737 208.921 313.6583 212.6432 313.5 212.6667 C313.4859 212.6688 315.194 214.585 316.5 214.6667 C328.6196 215.4241 334.9798 215.3454 345.5 214.6667 C346.2723 214.6168 347.5 212.6667 347.5 212.6667 "/>
</g>
</g>
</svg>
