<?xml version="1.0" encoding="utf-8"?>
<!DOCTYPE svg PUBLIC "-//W3C//DTD SVG 1.1//EN" "http://www.w3.org/Graphics/SVG/1.1/DTD/svg11.dtd">
<svg viewBox="0 0 800 800" preserveAspectRatio="xMinYMin meet" xmlns="http://www.w3.org/2000/svg" version="1.1">
<g fill="none" stroke="black" stroke-linecap="round" stroke-linejoin="round" stroke-width="1.1185">
<g transform="translate(87.52,210.9027) scale(2.6822) translate(-129,-193.1333)">
<path id="0" d="M306 205.1333 C306 205.1333 308.6094 230.7036 305 253.1333 C301.9204 272.2709 299.8263 274.439 292 292.1333 C288.9529 299.0225 287.6193 301.7069 282 305.1333 C269.9892 312.457 262.4257 310.9308 251 317.1333 C248.6244 318.423 246.6895 323.3571 247 324.1333 C247.69 325.8583 252.2109 330.6367 257 332.1333 C265.6683 334.8422 268.0247 333.7904 279 334.1333 C299.8934 334.7863 300.237 334.8749 321 334.1333 C327.9563 333.8849 328.5183 333.9482 335 332.1333 C340.5201 330.5877 346 327.1333 346 327.1333 "/>
<path id="1" d="M307 205.1333 C307 205.1333 323.565 207.8443 340 209.1333 C348.8801 209.8298 350.8431 210.1093 358 209.1333 C359.7531 208.8943 362 206.1333 362 206.1333 "/>
<path id="2" d="M316 207.1333 L316 230.1333 "/>
<path id="3" d="M321 209.1333 L322 241.1333 "/>
<path id="4" d="M337 211.1333 C337 211.1333 333.5869 221.2944 332 231.1333 C331.161 236.335 332 242.1333 332 242.1333 "/>
<path id="5" d="M329 212.1333 L329 246.1333 "/>
<path id="6" d="M345 213.1333 L346 243.1333 "/>
<path id="7" d="M357 208.1333 L355 236.1333 "/>
<path id="8" d="M362 206.1333 C362 206.1333 361.3804 213.1823 359 219.1333 C354.5745 230.1972 349.4733 230.6973 348 241.1333 C344.0503 269.1106 345.1494 276.7444 347 304.1333 C347.3354 309.0971 351.2855 309.7449 353 315.1333 C354.5032 319.8577 354.8506 322.731 354 326.1333 C353.5055 328.1114 351.5934 329.6205 349 331.1333 C346.3247 332.6939 344.7915 333.4974 342 333.1333 C335.1022 332.2336 326 328.1333 326 328.1333 "/>
<path id="9" d="M308 250.1333 L346 253.1333 "/>
<path id="10" d="M270 311.1333 C270 311.1333 273.6151 313.5614 275 316.1333 C276.6341 319.1682 276.4746 320.1925 277 324.1333 C277.4449 327.4703 277.7018 328.7939 277 331.1333 C276.609 332.4367 274 334.1333 274 334.1333 "/>
<path id="11" d="M190 193.1333 C190 193.1333 245.6539 195.2306 249 197.1333 C249.3394 197.3263 243.6531 209.6639 241 222.1333 C238.7718 232.6057 239.1258 233.1851 239 244.1333 C238.6286 276.441 242.7607 280.8359 240 309.1333 C239.2395 316.9282 234.2343 325.4628 231 326.1333 C212.1487 330.0415 192.2854 328.7139 158 326.1333 C148.3593 325.4077 145.8998 323.7642 138 319.1333 C133.129 316.2779 130.5755 313.2689 129 309.1333 C127.7542 305.863 128.4157 302.2072 130 298.1333 C131.2983 294.7947 133.6888 291.5412 136 291.1333 C144.8877 289.5649 150.4747 292.7774 164 292.1333 C170.8433 291.8075 173.7949 292.2532 178 289.1333 C186.2513 283.0114 190.7023 275.3113 195 269.1333 C195.3112 268.686 193.7133 267.089 194 266.1333 C196.0281 259.3729 200.4078 257.0689 201 249.1333 C202.6848 226.5569 198.6077 221.1029 199 199.1333 C199.0475 196.4715 202 193.1333 202 193.1333 "/>
<path id="12" d="M210 198.1333 L210 227.1333 "/>
<path id="13" d="M218 201.1333 L212 228.1333 "/>
<path id="14" d="M224 201.1333 L224 238.1333 "/>
<path id="15" d="M229 208.1333 L229 236.1333 "/>
<path id="16" d="M207 235.1333 L238 234.1333 "/>
<path id="17" d="M203 235.1333 L216 235.1333 "/>
<path id="18" d="M144 288.1333 C144 288.1333 146.6546 308.6952 146 321.1333 C145.8963 323.1035 142 326.1333 142 326.1333 "/>
</g>
</g>
</svg>
