<?xml version="1.0" encoding="utf-8"?>
<!DOCTYPE svg PUBLIC "-//W3C//DTD SVG 1.1//EN" "http://www.w3.org/Graphics/SVG/1.1/DTD/svg11.dtd">
<svg viewBox="0 0 800 800" preserveAspectRatio="xMinYMin meet" xmlns="http://www.w3.org/2000/svg" version="1.1">
<g fill="none" stroke="black" stroke-linecap="round" stroke-linejoin="round" stroke-width="1.9969">
<g transform="translate(87.52,168.6446) scale(1.5023) translate(-76,-47.75)">
<path id="0" d="M76 87.75 C76 87.75 102.0278 82.6375 122 85.75 C136.5051 88.0105 140.1088 93.1091 153 99.75 C154.1961 100.3662 154.6042 101.3647 155 102.75 C155.4433 104.3015 155.2418 106.6291 155 106.75 C153.7306 107.3847 150.0008 107.5416 145 107.75 C114.0825 109.0382 94.7981 112.9988 83 109.75 C80.5458 109.0742 76 88.75 76 88.75 "/>
<path id="1" d="M76 88.75 C76 88.75 75.438 151.0636 80 210.75 C81.3283 228.1287 81.7953 230.2383 88 245.75 C93.1002 258.5005 97.9298 259.7478 104 270.75 C104.7178 272.051 103.2911 273.7457 104 274.75 C107.8054 280.1409 109.4642 282.0312 116 287.75 C129.2114 299.31 130.901 297.9394 144 309.75 C161.1841 325.2438 160.3383 328.6238 177 342.75 C181.9421 346.94 185.0273 345.1586 190 348.75 C192.8848 350.8335 193.0605 355.3386 195 355.75 C203.3743 357.5264 209.755 356.5291 223 355.75 C225.8939 355.5798 227.2783 355.3392 229 353.75 C232.5615 350.4625 235.1903 348.2614 236 343.75 C238.0862 332.1271 237.0948 328.2527 236 314.75 C235.6888 310.9119 233.6022 310.7242 233 306.75 C231.1979 294.8558 233.4843 292.6188 231 281.75 C229.8903 276.895 227.5256 273.3285 225 271.75 C222.9382 270.4614 217.6589 273.4705 215 271.75 C204.8336 265.1718 203.3243 260.2708 191 249.75 C182.9056 242.8401 182.1006 241.905 174 236.75 C172.1934 235.6003 170.5578 236.9671 169 235.75 C156.672 226.1187 147.2441 222.4254 142 211.75 C137.2868 202.1552 139.2953 194.5188 141 178.75 C143.1754 158.6277 147.0391 158.2068 150 137.75 C152.47 120.6846 152 102.75 152 102.75 "/>
<path id="2" d="M355 53.75 C355 53.75 361.3779 49.4754 367 48.75 C375.3901 47.6674 382.4499 47.2142 386 49.75 C390.0646 52.6533 391.903 59.8032 395 68.75 C395.9803 71.5819 395.8837 74.9253 395 75.75 C392.0875 78.4683 387.138 81.6144 380 82.75 C367.1536 84.7937 359.8192 84.7658 351 82.75 C348.6192 82.2058 346.2126 78.561 345 74.75 C343.2479 69.2433 343.2488 67.0096 344 60.75 C344.6213 55.5728 345.8537 51.3913 348 49.75 C350.5125 47.8287 361 47.75 361 47.75 "/>
<path id="3" d="M342 61.75 C342 61.75 339.5526 96.2051 343 122.75 C343.9682 130.2054 348.8149 130.4688 352 138.75 C358.5842 155.8689 358.8925 156.9508 363 174.75 C364.7299 182.2463 363.0645 187.5693 364 190.75 C364.125 191.1749 367.2795 190.8236 368 191.75 C372.3425 197.3333 372.2018 201.2607 378 208.75 C383.8209 216.2686 386.1155 218.827 392 222.75 C393.7653 223.9269 396.6168 221.8334 399 222.75 C401.6975 223.7875 401.8045 226.41 405 227.75 C416.1905 232.4428 417.9372 230.9751 430 235.75 C441.7148 240.3871 442.2096 244.9516 453 246.75 C469.0046 249.4174 478.5865 246.9206 490 245.75 C490.7099 245.6772 491.9351 244.0474 492 242.75 C492.7742 227.2653 493.659 220.0176 492 205.75 C491.7049 203.2121 489.2244 200.3432 487 199.75 C478.3945 197.4552 470.7152 201.9462 462 197.75 C448.3864 191.1953 446.1447 186.609 433 173.75 C423.5961 164.5506 421.8141 163.7321 416 152.75 C409.1599 139.8299 408.9764 137.8179 406 122.75 C401.1424 98.1585 400 71.75 400 71.75 "/>
<path id="4" d="M363 174.75 C363 174.75 371.5753 175.2823 375 176.75 C375.9893 177.174 376.1699 180.0859 377 180.75 C377.4789 181.1331 379.9111 180.5389 380 180.75 C381.4849 184.2766 383.7108 190.7259 385 199.75 C385.5792 203.8043 384 208.75 384 208.75 "/>
<path id="5" d="M371 190.75 C371 190.75 378 203.75 378 203.75 C378 203.75 368.096 185.0955 368 184.75 C367.9895 184.7121 372.3957 184.8436 373 185.75 C376.0214 190.282 379.9796 202.7347 380 202.75 C380.0075 202.7556 381.8662 196.081 381 191.75 C380.198 187.7398 376 182.75 376 182.75 C376 182.75 382 191.75 382 191.75 "/>
<path id="6" d="M88 241.75 C88 241.75 100.2626 240.1052 108 240.75 C109.6511 240.8876 111.1153 242.0912 112 243.75 C114.4357 248.317 115.3329 249.9132 116 255.75 C117.2316 266.5267 116.7599 268.1121 116 278.75 C115.8301 281.1287 114.0393 283.7929 114 283.75 C113.4124 283.109 94.1095 254.9963 94 254.75 C93.9839 254.7139 99.9103 254.9215 102 256.75 C105.9651 260.2194 110 268.7501 110 268.75 C109.9999 268.7499 96 241.7505 96 241.75 C96 241.7496 106.5592 257.1068 110 260.75 C110.1958 260.9573 113.0094 259.8206 113 259.75 C112.7699 258.0245 108 245.75 108 245.75 C108 245.75 108.3673 248.3546 109 248.75 C110.8155 249.8847 116.0009 250.7487 116 250.75 C115.9977 250.7534 110.8198 252.2275 107 251.75 C103.8258 251.3532 100.1477 248.6445 100 248.75 C99.8263 248.8741 99.3347 254.5325 100 256.75 C100.2412 257.5538 102.6229 257.7265 103 258.75 C105.2433 264.839 107.0219 275.75 107 275.75 C106.8848 275.75 86 258.75 86 258.75 "/>
</g>
</g>
</svg>
