<?xml version="1.0" encoding="utf-8"?>
<!DOCTYPE svg PUBLIC "-//W3C//DTD SVG 1.1//EN" "http://www.w3.org/Graphics/SVG/1.1/DTD/svg11.dtd">
<svg viewBox="0 0 800 800" preserveAspectRatio="xMinYMin meet" xmlns="http://www.w3.org/2000/svg" version="1.1">
<g fill="none" stroke="black" stroke-linecap="round" stroke-linejoin="round" stroke-width="2.4914">
<g transform="translate(87.52,241.6527) scale(1.2042) translate(-58,-93.4167)">
<path id="0" d="M58 142.4167 C58 142.4167 111.2485 113.0005 119 110.4167 C119.1803 110.3566 120.7837 116.1021 124 120.4167 C140.8312 142.9951 144.9147 142.4608 160 165.4167 C166.9369 175.9728 163.5074 179.1401 170 190.4167 C182.0577 211.3589 198 231.4167 198 231.4167 "/>
<path id="1" d="M58 145.4167 C58 145.4167 63.2951 155.6164 70 164.4167 C79.1101 176.3737 81.5741 175.2734 90 187.4167 C98.1602 199.1769 95.7827 201.4783 104 213.4167 C121.9499 239.4948 143 264.4167 143 264.4167 "/>
<path id="2" d="M146 264.4167 C146 264.4167 141.7852 272.681 140 280.4167 C138.9731 284.8664 138.6776 286.3172 140 290.4167 C143.2037 300.3481 144.3026 303.3203 150 311.4167 C152.5063 314.9782 154.3405 315.2987 159 317.4167 C164.8875 320.0928 166.213 321.5513 172 321.4167 C185.5031 321.1026 193.0956 313.2739 202 316.4167 C217.2117 321.7855 240 345.4167 240 345.4167 "/>
<path id="3" d="M241 346.4167 C241 346.4167 249.9696 352.2415 258 353.4167 C268.6275 354.9719 270.4335 354.0306 282 352.4167 C291.4382 351.0997 293.1226 351.3554 301 347.4167 C308.6942 343.5695 313.0122 340.8321 316 335.4167 C318.5864 330.7288 318.7705 324.3184 317 318.4167 C315.3037 312.7623 312.0607 309.0972 307 305.4167 C303.3109 302.7337 300.1554 304.5395 295 302.4167 C292.4108 301.3505 292.483 299.2443 290 298.4167 C284.642 296.6307 282.615 298.7137 277 296.4167 C261.7435 290.1754 257.9747 290.8362 246 280.4167 C221.9087 259.4542 200 229.4167 200 229.4167 "/>
<path id="4" d="M250 130.4167 C250 130.4167 265.9992 124.6393 280 116.4167 C297.0358 106.4115 307.5165 94.3703 313 93.4167 C314.54 93.1488 321.2302 100.2251 326 108.4167 C343.5863 138.6193 341.2237 141.8415 359 172.4167 C365.8133 184.1356 376 194.4167 376 194.4167 "/>
<path id="5" d="M251 130.4167 C251 130.4167 257.7728 134.148 262 139.4167 C291.2952 175.9295 290.0494 178.8256 320 216.4167 C338.9289 240.1743 341.0134 239.8135 360 262.4167 C361.3548 264.0296 361.8034 264.5485 362 266.4167 C362.7006 273.072 363.0041 274.3881 362 281.4167 C361.0915 287.7759 358.4036 288.3629 358 294.4167 C357.4869 302.1132 357.0653 305.5472 360 311.4167 C363.5869 318.5905 366.4266 320.5534 374 326.4167 C381.087 331.9034 382.7318 333.5605 391 335.4167 C405.1057 338.5833 408.8036 339.2235 423 337.4167 C433.7977 336.0424 434.9057 331.0443 446 328.4167 C452.6217 326.8484 455.7311 326.0625 461 328.4167 C475.5362 334.9116 476.8802 341.9126 493 349.4167 C504.1103 354.5887 506.062 353.6053 519 355.4167 C530.6365 357.0458 531.4941 357.2385 543 356.4167 C551.7926 355.7886 553.3732 355.5239 561 352.4167 C565.6049 350.5406 567.9776 349.2087 570 345.4167 C574.5818 336.8258 574.5492 333.6205 577 322.4167 C577.8992 318.3062 578.0665 317.1494 577 313.4167 C575.3749 307.7287 573.7853 302.3451 571 301.4167 C555.2169 296.1556 541.4766 301.1943 517 293.4167 C490.4803 284.9899 489.1342 282.1744 464 267.4167 C435.1671 250.4873 432.9504 250.4859 408 229.4167 C389.2809 213.6094 374 191.4167 374 191.4167 "/>
<path id="6" d="M73 170.4167 C73 170.4167 92.5994 168.0637 105 160.4167 C119.5071 151.4706 133 133.4167 133 133.4167 "/>
<path id="7" d="M276 154.4167 C276 154.4167 286.3234 147.7968 297 143.4167 C305.391 139.9742 307.1763 142.2228 315 138.4167 C324.6968 133.6993 334 125.4167 334 125.4167 "/>
<path id="8" d="M144 280.4167 C144 280.4167 173.7006 280.7269 176 281.4167 C176.0285 281.4252 174 285.6069 174 289.4167 C174 303.7033 176 319.4167 176 319.4167 "/>
<path id="9" d="M361 293.4167 C361 293.4167 362.694 291.4983 364 291.4167 C376.1196 290.6592 391.2648 289.2221 393 291.4167 C396.5532 295.9104 398 334.4167 398 334.4167 "/>
<path id="10" d="M268 352.4167 C268 352.4167 279.3908 342.7651 287 332.4167 C291.1241 326.8079 291.3367 325.3077 293 318.4167 C294.6411 311.618 294 303.4167 294 303.4167 "/>
<path id="11" d="M531 355.4167 C531 355.4167 535.4301 352.8432 538 349.4167 C543.9965 341.4214 544.4792 340.6962 549 331.4167 C553.8185 321.526 554.1718 320.7866 557 310.4167 C558.4973 304.9267 558 298.4167 558 298.4167 "/>
</g>
</g>
</svg>
