<?xml version="1.0" encoding="utf-8"?>
<!DOCTYPE svg PUBLIC "-//W3C//DTD SVG 1.1//EN" "http://www.w3.org/Graphics/SVG/1.1/DTD/svg11.dtd">
<svg viewBox="0 0 800 800" preserveAspectRatio="xMinYMin meet" xmlns="http://www.w3.org/2000/svg" version="1.1">
<g fill="none" stroke="black" stroke-linecap="round" stroke-linejoin="round" stroke-width="1.2673">
<g transform="translate(169.1909,87.52) scale(2.3673) translate(-134,-81)">
<path id="0" d="M142 149 C142 149 149.9948 155.9896 154 164 C162.8687 181.7374 162.7341 183.5062 169 203 C171.5687 210.9914 169.2848 212.1939 172 220 C177.0443 234.5025 180.3239 234.6601 185 249 C187.4833 256.6154 184.9704 257.8815 187 266 C193.3498 291.3992 196.4801 291.6732 202 317 C204.7906 329.804 204 344 204 344 "/>
<path id="1" d="M205 343 C205 343 219.5645 343.7454 230 343 C231.3119 342.9063 233 341 233 341 "/>
<path id="2" d="M160 141 C160 141 164.8824 150.3873 168 160 C170.786 168.5901 168.7648 169.8168 172 178 C176.9796 190.5956 180.101 190.2627 185 203 C189.8487 215.6066 186.5587 217.7255 192 230 C207.5374 265.0496 214.0248 265.9579 228 300 C232.3241 310.533 228.0792 313.609 231 325 C232.7902 331.9819 235.1892 332.5754 238 339 C238.3295 339.7531 238.0064 341.0021 238 341 C237.9614 340.9871 235.0658 337.9624 235 338 C234.5907 338.2339 231 345 231 345 "/>
<path id="3" d="M141 150 C141 150 149.3715 151.45 156 150 C164.189 148.2087 172.8631 143.2542 173 143 C173.0052 142.9903 167.8979 138.8045 163 137 C159.2421 135.6155 157.4085 135.1479 154 136 C149.1307 137.2173 148.4187 140.0036 143 142 C139.5674 143.2646 135.7437 143.093 135 143 C134.9764 142.997 135 141 135 141 C134.9986 141 133.9509 142.9608 134 143 C135.2918 144.0334 139.8407 148.062 145 149 C154.3875 150.7068 167 149 167 149 "/>
<path id="4" d="M161 142 C161 142 145.1475 141.7131 144 142 C144 142 144.779 145.9823 145 146 C148.9922 146.3194 169 144 169 144 C169 144 166.1459 144.6684 165 144 C161.5386 141.9808 160.503 138.8862 157 137 C155.5118 136.1987 152 137 152 137 "/>
<path id="5" d="M186 83 C186 83 166.7988 79.8049 155 82 C149.764 82.9741 147.0454 86.1961 143 91 C140.1693 94.3614 139.5823 96.1964 139 101 C137.7227 111.5374 139.666 115.6749 139 124 C138.9375 124.7818 136.9406 125.5246 137 126 C137.4924 129.9389 141 140 141 140 "/>
<path id="6" d="M182 110 C182 110 175.8268 105.2702 171 104 C168.0312 103.2187 166.0476 104.0857 163 105 C162.0453 105.2864 161.1027 106.1529 161 107 C159.5694 118.8025 160.7868 131.4485 159 138 C158.7786 138.8119 152 140 152 140 "/>
<path id="7" d="M183 81 C183 81 194.4539 87.7462 206 92 C212.8738 94.5324 213.5765 94.6772 221 95 C258.7999 96.6435 262.4444 97.2261 298 96 C302.6834 95.8385 303.9627 94.6915 308 92 C312.2498 89.1668 316 84 316 84 "/>
<path id="8" d="M179 110 C179 110 179.7319 108.0117 180 108 C185.4164 107.7645 191.5231 107.0951 202 109 C218.3594 111.9744 218.8966 116.5997 235 118 C263.0825 120.442 265.9896 119.2711 294 117 C301.3037 116.4078 303.2637 115.7583 309 112 C316.2733 107.2348 316.2737 105.122 323 98 C324.6884 96.2122 325.6051 95.3822 326 94 C326.2207 93.2276 325 91 325 91 "/>
<path id="9" d="M316 86 C316 86 322.2975 86.4235 325 88 C326.5728 88.9175 328 93 328 93 "/>
<path id="10" d="M319 104 C319 104 317.23 132.4705 315 157 C314.9126 157.9611 314.0275 159.0069 314 159 C313.7937 158.9484 311.0146 155.9534 311 156 C310.7376 156.8397 309.2067 174.4332 304 191 C298.4414 208.6865 295.1835 208.426 289 226 C285.867 234.9042 288.9821 237.0357 285 245 C270.0195 274.9609 266.9127 277.8514 249 306 C247.1175 308.9582 244.9995 310.1113 243 311 C242.3785 311.2762 240.8937 309.7021 240 310 C234.1911 311.9363 225 317 225 317 "/>
<path id="11" d="M324 99 C324 99 319.9988 98.9843 320 99 C320.0526 99.6834 324.1867 105.584 325 112 C328.4901 139.5333 329.206 157.6399 329 170 C328.9926 170.4445 325.4773 170.7337 324 172 C322.8056 173.0238 322.2891 174.0338 322 176 C319.9502 189.9383 322.4827 191.886 319 206 C313.2279 229.3922 312.3016 230.3273 303 253 C296.4769 268.9002 295.9084 269.2375 287 284 C278.5714 297.9674 277.5335 300.0541 268 311 C265.599 313.7567 263.2862 312.4441 260 315 C254.7421 319.0895 254.9316 322.7893 250 325 C243.0723 328.1055 231 328 231 328 "/>
<path id="12" d="M188 108 C188 108 186.8553 117.7593 185 122 C184.5456 123.0385 181.4418 122.8955 181 124 C176.4591 135.3523 176.3892 142.7572 171 157 C170.1922 159.1349 167 161 167 161 "/>
<path id="13" d="M205 112 L175 172 "/>
<path id="14" d="M221 118 C221 118 218.6442 128.2922 214 137 C198.9643 165.192 181 193 181 193 "/>
<path id="15" d="M243 121 C243 121 237.3973 126.7403 235 133 C228.8204 149.1356 231.5621 151.3897 225 168 C215.786 191.3228 214.095 192.6634 203 214 C201.8256 216.2585 201.0702 216.9649 199 218 C195.8947 219.5526 191 220 191 220 "/>
<path id="16" d="M264 117 C264 117 262.9937 125.5137 260 132 C257.3891 137.657 254.8262 137.6616 252 143 C250.7888 145.2879 252.2836 146.6399 251 149 C237.7963 173.2778 234.9825 174.5025 221 200 C218.265 204.9873 219.8103 207.1088 217 211 C214.2684 214.7822 211.3696 213.9565 208 218 C201.9192 225.2969 198.2112 234.2163 197 235 C196.8834 235.0754 191 229 191 229 "/>
<path id="17" d="M291 120 C291 120 288.9599 126.28 288 127 C287.5055 127.3709 284.0386 125.6105 283 126 C281.9895 126.3789 281.141 127.8484 280 130 C263.8837 160.3907 266.0528 162.7252 248 192 C229.4686 222.0509 206 250 206 250 "/>
<path id="18" d="M298 115 L297 115 "/>
<path id="19" d="M302 116 C302 116 304.3918 129.436 302 140 C298.8391 153.9607 297.9615 156.1806 290 169 C269.21 202.4754 268.1765 204.4057 243 235 C229.4509 251.4647 218.8153 258.9214 211 265 C210.6547 265.2685 207 263 207 263 "/>
<path id="20" d="M194 89 C194 89 189.0335 91.9329 189 92 C188.997 92.0061 191.553 93.1788 192 93 C192.5502 92.7799 194 90 194 90 "/>
<path id="21" d="M223 103 L224 106 "/>
<path id="22" d="M261 102 C261 102 256.9902 106.9804 257 107 C257.0065 107.013 262.9894 106.0158 263 106 C263.0014 105.9979 259 104 259 104 "/>
<path id="23" d="M223 105 L223 105 "/>
<path id="24" d="M221 100 C221 100 217.9987 103.9987 218 104 C218.004 104.004 222.8212 101.9285 223 102 C223.0681 102.0273 222.9295 105.8942 223 106 C223.0059 106.0088 225 105 225 105 "/>
<path id="25" d="M299 105 C299 105 300.9495 104.8821 301 105 C301.438 106.0221 301.562 110.9779 302 112 C302.0505 112.1179 304 112 304 112 C304 111.9986 302 111.1466 302 111 C302 110.2669 304 106.247 304 106 C304 106 302.0189 105.934 302 106 C301.7689 106.809 301.6832 112.2608 302 113 C302.0582 113.1358 304.6474 113.3526 305 113 C305.8228 112.1772 307 108 307 108 "/>
<path id="26" d="M315 184 C315 184 313.9254 188.6272 314 189 C314.0062 189.0311 315.1556 189.2111 316 189 C316.95 188.7625 318.004 188.0101 318 188 C317.8871 187.7179 315.4503 184.4834 314 184 C312.731 183.577 309 185 309 185 "/>
<path id="27" d="M307 208 C307 208 305.0189 207.934 305 208 C304.7689 208.809 304.981 214.9979 305 215 C305.204 215.0227 314 209.0094 314 209 C314 208.9984 305.1178 209.9214 305 210 C304.9878 210.0081 308 213 308 213 "/>
<path id="28" d="M294 249 C294 249 286.986 254.8881 287 255 C287.0082 255.0655 294.9991 256.9997 295 257 C295.0002 257.0001 293.025 257.075 293 257 C292.775 256.325 293 251 293 251 C293 251 292.0001 257.0001 292 257 C291.9999 256.9999 292 250 292 250 C292 250 292.079 255.8024 292 256 C291.9974 256.0066 290 255 290 255 "/>
<path id="29" d="M272 289 C272 289 268.1076 287.8924 268 288 C267.8207 288.1793 268.3049 292.6189 268 293 C267.8049 293.2439 264.1058 293.0705 264 293 C263.9912 292.9941 264.6196 291.1087 265 291 C266.4523 290.5851 271.0002 291.0004 271 291 C270.9996 290.9992 264.3412 288.8538 264 289 C263.881 289.051 264 294 264 294 "/>
<path id="30" d="M171 197 C171 197 177.9776 201.972 178 202 C178.0051 202.0063 175.0262 202.0786 175 202 C174.8516 201.5549 176.303 196.3536 176 196 C175.5875 195.5188 168.9999 194.9999 169 195 C169.0001 195.0001 179 198 179 198 "/>
<path id="31" d="M182 222 C182 222 181.577 224.4924 182 225 C183.0105 226.2127 184.6841 227.1315 187 228 C188.1343 228.4254 189.865 228.18 190 228 C190.24 227.68 190.5801 224.7735 190 224 C188.7673 222.3564 184.1608 220.0268 184 220 C183.9879 219.998 184.1875 222.8125 184 223 C183.8125 223.1875 181.0074 222.9777 181 223 C180.9826 223.0521 183 226 183 226 "/>
<path id="32" d="M184 222 C184 222 183.9955 228.9932 184 229 C184.0017 229.0026 186 225.5 186 225 C186 224.875 184 224.0014 184 224 C184 224 186 224 186 224 "/>
<path id="33" d="M194 255 C194 255 191.8283 261.7996 192 262 C192.2228 262.2599 199.5721 262.3056 200 262 C200.1375 261.9018 199.506 257.6325 199 257 C198.7906 256.7383 196.0582 256.8642 196 257 C195.6832 257.7392 196 264 196 264 C196 264 195 257 195 257 "/>
<path id="34" d="M213 292 C213 292 207.3468 296.9009 207 297 C206.9933 297.0019 205.9766 294.0117 206 294 C206.3273 293.8364 213 294 213 294 C213 294 211.0047 293.9717 211 294 C210.9174 294.4954 212.0239 299.9761 212 300 C211.9952 300.0048 208.0764 297.1528 208 297 C208 297 210 296 210 296 "/>
</g>
</g>
</svg>
