<?xml version="1.0" encoding="utf-8"?>
<!DOCTYPE svg PUBLIC "-//W3C//DTD SVG 1.1//EN" "http://www.w3.org/Graphics/SVG/1.1/DTD/svg11.dtd">
<svg viewBox="0 0 800 800" preserveAspectRatio="xMinYMin meet" xmlns="http://www.w3.org/2000/svg" version="1.1">
<g fill="none" stroke="black" stroke-linecap="round" stroke-linejoin="round" stroke-width="1.3633">
<g transform="translate(192.0468,87.52) scale(2.2006) translate(-111,-111)">
<path id="0" d="M170 384 C170 384 176.4875 380.1228 183 379 C204.5464 375.2851 205.5688 375.3041 228 374 C248.3062 372.8194 249.976 373.1729 269 374 C271.3604 374.1026 273.6592 375.1821 274 376 C274.8346 378.0031 275.1596 383.1011 274 386 C273.1419 388.1452 271.128 389.6594 268 391 C261.5794 393.7517 260.1754 394.9092 253 395 C222.5059 395.386 212.8225 395.6396 189 392 C185.5916 391.4793 181 384 181 384 "/>
<path id="1" d="M189 379 C189 379 188.3778 373.9723 186 371 C167.7547 348.1933 163.3918 348.4218 145 324 C133.4133 308.6144 132.1146 307.4632 125 290 C116.1724 268.3322 115.7799 266.2195 112 243 C108.9861 224.486 110.7531 213.8748 111 204 C111.0067 203.734 112.991 202.9707 113 203 C115.397 210.8523 124.728 252.1186 140 299 C146.0059 317.4367 147.0464 318.1259 156 335 C159.6841 341.9432 160.4125 342.2432 166 348 C176.6611 358.9842 176.9809 359.4394 189 369 C198.7281 376.7383 210 383 210 383 "/>
<path id="2" d="M116 205 C116 205 118.8683 202.0196 122 201 C139.264 195.3792 140.9416 196.9296 159 191 C174.2148 186.0041 175.2347 186.1819 189 179 C197.4506 174.591 196.6486 172.1914 205 167 C214.9101 160.8397 217.302 162.9229 226 156 C240.6995 144.3004 239.5064 141.2333 254 128 C262.3291 120.3951 263.0434 118.7582 272 114 C277.4906 111.0831 281.7118 110.3874 286 111 C288.4826 111.3547 290.6576 113.6817 293 117 C296.1106 121.4066 297.219 122.6449 298 128 C300.483 145.0261 303.7961 149.4992 300 165 C292.9955 193.6016 283.6427 195.7863 274 226 C269.2305 240.9445 272.9049 242.7325 270 259 C265.4365 284.5558 262.1871 284.7931 259 310 C256.81 327.3208 257.4084 328.4925 259 346 C260.3504 360.8548 265 376 265 376 "/>
<path id="3" d="M261 376 C261 376 248.0296 353.0566 244 331 C239.0273 303.7808 240.4138 300.816 242 272 C243.3586 247.3185 243.4991 245.8368 250 222 C258.2224 191.851 262.727 191.959 272 162 C275.503 150.6826 276.958 140.8739 276 138 C275.6901 137.0702 268.9367 135 263 135 C256.15 135 253.5909 134.667 248 138 C230.1193 148.6596 230.2436 154.1375 211 166 C194.5159 176.1614 193.3078 176.1346 175 183 C157.8263 189.4401 156.1036 186.5861 139 193 C124.6932 198.3651 111 207 111 207 "/>
<path id="4" d="M116 201 C116 201 131.1544 230.5782 143 261 C153.0156 286.7218 150.878 289.1218 160 314 C161.3603 317.71 163.4342 317.2813 165 321 C171.1273 335.5523 168.9987 337.7474 176 352 C182.6065 365.449 184.0348 366.5246 193 378 C195.7958 381.5787 201 384 201 384 "/>
<path id="5" d="M210 379 C210 379 189.492 340.7118 174 301 C154.1976 250.239 139 197 139 197 "/>
<path id="6" d="M152 194 C152 194 176.0463 236.989 195 281 C205.2189 304.7287 204.0586 305.8052 211 331 C217.5105 354.6308 222 379 222 379 "/>
<path id="7" d="M229 372 C229 372 230.3995 358.7125 229 346 C224.4611 304.7719 224.2353 304.1099 217 263 C213.28 241.8635 212.9589 241.5583 207 221 C203.0319 207.3099 200.8269 207.5413 197 194 C194.4534 184.9889 194 175 194 175 "/>
<path id="8" d="M240 150 C240 150 235.7791 152.7653 234 156 C230.7958 161.8259 229.2269 163.3294 229 170 C226.8704 232.6098 228.1761 236.6791 229 303 C229.1736 316.9747 228.5873 317.4515 231 331 C234.9956 353.4368 242 376 242 376 "/>
</g>
</g>
</svg>
