<?xml version="1.0" encoding="utf-8"?>
<!DOCTYPE svg PUBLIC "-//W3C//DTD SVG 1.1//EN" "http://www.w3.org/Graphics/SVG/1.1/DTD/svg11.dtd">
<svg viewBox="0 0 800 800" preserveAspectRatio="xMinYMin meet" xmlns="http://www.w3.org/2000/svg" version="1.1">
<g fill="none" stroke="black" stroke-linecap="round" stroke-linejoin="round" stroke-width="1.9489">
<g transform="translate(87.52,139.0869) scale(1.5393) translate(-187,-78)">
<path id="0" d="M219 92 C219 92 220.3604 101.8686 222 104 C222.7316 104.9511 227.3339 105.6059 229 105 C230.4607 104.4688 232.3001 102.3798 233 100 C234.3932 95.263 235.0467 91.9774 234 88 C233.2349 85.0927 230.1782 81.4735 228 81 C223.2029 79.9572 215.9887 80.2285 211 83 C206.2562 85.6355 203.2673 90.1051 201 96 C199.2504 100.549 199.903 103.0763 201 109 C202.2595 115.8013 204.3577 122.6934 206 123 C221.0996 125.8186 241.8504 122.1355 276 123 C280.4154 123.1118 280.9818 123.2359 285 125 C300.8743 131.9692 304.2018 131.2734 317 141 C327.0624 148.6474 327.1537 151.4758 335 163 C342.9096 174.6173 342.9647 175.1352 349 188 C361.859 215.41 369.0001 217.1673 373 244 C380.0495 291.2901 371.7065 297.6915 373 349 C373.1734 355.8781 373.2072 357.4144 376 363 C379.5135 370.027 382.8511 369.8085 387 377 C389.9176 382.0571 388.5505 386.1736 391 389 C392.7105 390.9736 395.614 391.3734 400 392 C405.5821 392.7974 410.5405 392.2432 412 392 C412.0405 391.9932 412 390 412 390 "/>
<path id="1" d="M411 396 C411 396 410.51 403.8368 410 404 C406.5617 405.1003 392.9109 407.1099 386 404 C379.0603 400.8772 373.1922 394.2622 370 386 C366.5168 376.9846 366.9494 369.7404 369 360 C370.1048 354.7521 378 348 378 348 "/>
<path id="2" d="M375 402 C375 402 297.0575 409.6221 236 407 C225.2147 406.5368 222.4961 402.3016 212 395 C200.3471 386.8936 193.3393 377.2707 190 375 C189.91 374.9388 187.22 376.7531 187 378 C186.1272 382.9459 185.8704 386.3522 187 392 C187.5486 394.7432 188.5748 396.5697 191 398 C205.4854 406.5427 208.8636 409.2879 226 415 C235.5514 418.1838 237.6447 417.706 248 417 C258.5813 416.2785 258.976 413.378 270 412 C294.6061 408.9242 295.7619 412.0822 320 408 C342.491 404.212 365 396 365 396 "/>
<path id="3" d="M362 215 C362 215 361.5039 231.413 363 246 C363.3996 249.8963 365.9202 250.2226 366 254 C367.3262 316.7739 366 388 366 388 "/>
<path id="4" d="M351 194 L354 398 "/>
<path id="5" d="M338 172 L337 394 "/>
<path id="6" d="M324 148 L325 394 "/>
<path id="7" d="M310 138 C310 138 311.214 175.6689 310 213 C309.2209 236.9567 306.253 237.0951 306 261 C305.2577 331.1484 308 402 308 402 "/>
<path id="8" d="M296 131 C296 131 294.9343 253.438 298 373 C298.3943 388.3759 303 404 303 404 "/>
<path id="9" d="M279 123 C279 123 280.0366 148.7759 279 174 C278.5503 184.942 276.2602 185.0714 276 196 C274.7739 247.4951 275.1484 248.0514 276 300 C276.6473 339.4855 276.4568 339.7617 279 379 C279.9396 393.497 283 408 283 408 "/>
<path id="10" d="M262 126 L264 406 "/>
<path id="11" d="M244 125 C244 125 242.335 219.5724 243 314 C243.3343 361.4759 246 409 246 409 "/>
<path id="12" d="M228 127 C228 127 222.5397 186.0525 221 245 C219.0458 319.8174 220.9231 389.2715 221 395 C221.0005 395.0372 223 394 223 394 "/>
<path id="13" d="M239 127 C239 127 235.5766 207.5601 235 288 C234.5775 346.9383 236.9714 405.3485 237 406 C237.0009 406.0213 240 402 240 402 "/>
<path id="14" d="M457 269 C457 269 452.2318 269.5442 451 271 C448.3489 274.1331 447.1552 276.6089 446 282 C444.3526 289.6879 443.3379 293.1825 445 299 C446.3496 303.7236 450.1621 307.778 454 310 C456.4973 311.4458 461.3149 311.4768 464 310 C468.3095 307.6298 471.5781 303.8438 474 299 C475.3623 296.2753 475.3366 293.4957 474 290 C469.549 278.359 461 265 461 265 "/>
<path id="15" d="M471 287 C471 287 473.7231 274.8459 473 264 C472.2938 253.4071 468.6298 252.8333 468 242 C466.1916 210.8959 467.8062 178.5245 468 178 C468.0355 177.904 475.9984 187.8167 485 196 C492.2601 202.6001 500.9269 207.9325 501 208 C501.0081 208.0075 498.3849 207.5723 498 208 C495.8045 210.4394 494.1955 215.5606 492 218 C491.6151 218.4277 489.5068 218.5068 489 218 C483.0868 212.0868 473 199 473 199 "/>
<path id="16" d="M547 227 C547 227 545 230.7743 545 234 C545 241.373 544.5417 244.6365 547 250 C548.762 253.8443 551.9901 256.3116 556 258 C559.242 259.3651 562.9581 259.352 566 258 C569.5151 256.4377 572.3489 253.5086 574 250 C575.2631 247.3159 574.7764 244.8822 574 241 C573.4306 238.1531 572.9934 237.1468 571 235 C567.0779 230.7762 565.7484 228.8581 561 227 C556.1573 225.105 548 226 548 226 "/>
<path id="17" d="M576 235 C576 235 573.4391 225.9291 573 217 C571.9595 195.8427 575.2918 193.6437 573 174 C572.0504 165.8608 568.4675 165.1073 566 157 C565.2261 154.4572 565.9664 150.9762 566 151 C566.3183 151.2255 581.1661 162.8758 590 174 C592.8108 177.5395 591.7638 179.6433 593 185 C593.2114 185.9163 593.1017 186.9661 593 187 C591.0679 187.644 584.3537 189.8826 581 189 C578.4155 188.3199 574 182 574 182 "/>
<path id="18" d="M499 148 C499 148 497.3072 154.5362 498 158 C498.41 160.05 500.2847 162.2203 502 163 C503.9142 163.8701 506.8979 163.9702 509 163 C511.6335 161.7846 513.9696 159.7968 515 157 C516.6777 152.4462 516.9217 148.1478 516 144 C515.5592 142.0163 513.1986 139.9161 511 139 C508.8273 138.0947 506.4761 137.9804 504 139 C499.4432 140.8763 494 146 494 146 "/>
<path id="19" d="M515 138 C515 138 518.4762 129.8574 519 122 C520.4169 100.7464 518.4079 79.0284 519 78 C519.0008 77.9986 529.1257 83.2124 538 89 C540.2407 90.4613 541.1257 91.2515 542 93 C542.5828 94.1657 542.3651 95.1743 542 97 C541.4158 99.9211 540.8165 102.0202 540 103 C539.7337 103.3195 537.8934 103.536 537 103 C531.8184 99.891 525 94 525 94 "/>
<path id="20" d="M540 105 C540 105 542.8997 135.3728 542 140 C541.9285 140.3677 535.2011 139.6455 533 141 C531.0982 142.1703 529.8762 144.7142 529 148 C528.131 151.2586 528.4396 153.1979 529 156 C529.1681 156.8406 530.2753 157.9547 531 158 C535.7529 158.2971 544.2248 158.052 545 157 C546.2331 155.3265 545 139 545 139 "/>
</g>
</g>
</svg>
