<?xml version="1.0" encoding="utf-8"?>
<!DOCTYPE svg PUBLIC "-//W3C//DTD SVG 1.1//EN" "http://www.w3.org/Graphics/SVG/1.1/DTD/svg11.dtd">
<svg viewBox="0 0 800 800" preserveAspectRatio="xMinYMin meet" xmlns="http://www.w3.org/2000/svg" version="1.1">
<g fill="none" stroke="black" stroke-linecap="round" stroke-linejoin="round" stroke-width="1.5937">
<g transform="translate(87.52,132.6978) scale(1.8824) translate(-128,-76)">
<path id="0" d="M135 91 C135 91 126.7964 263.3846 129 286 C129.0276 286.2834 141.9608 284.4712 154 286 C172.7888 288.3859 172.9454 290.9513 192 294 C210.259 296.9214 210.5259 297.1032 229 298 C261.8058 299.5925 262.0842 299.5184 295 299 C325.453 298.5204 326.0276 299.2643 356 296 C375.9751 293.8245 376.0705 290.0131 396 288 C424.9125 285.0795 452.5988 290.0145 455 286 C461.9538 274.3741 458.6817 233.4702 460 181 C461.1788 134.0828 460.4655 133.087 460 87 C459.9752 84.5436 459.3169 82.0407 459 82 C445.5895 80.2758 424.493 78.8998 390 78 C309.6119 75.9029 309.4826 76.3072 229 76 C178.5152 75.8073 140.6508 75.2464 128 77 C127.7746 77.0312 128 90 128 90 "/>
<path id="1" d="M152 92 C152 92 148.2973 108.9914 147 126 C143.819 167.7061 144.5124 168.03 143 210 C142.5147 223.4672 140.7484 224.9916 143 237 C144.8919 247.0904 148.4492 257.0245 152 258 C171.9786 263.4886 193.5842 262.6032 234 262 C259.6924 261.6165 260.0546 257.0483 286 256 C358.5489 253.0687 396.6045 259.2522 432 254 C434.9314 253.565 437.8716 243.5885 441 233 C444.1976 222.1775 443.9175 221.4743 445 210 C446.3935 195.2288 446.7325 193.552 446 180 C445.8248 176.7588 443.3218 176.3252 443 173 C441.9406 162.0532 441.6837 160.6821 443 149 C445.6272 125.6837 447.2133 125.1936 451 102 C451.1568 101.0397 451.0151 100.0009 451 100 C446.8901 99.7509 434.3867 100.9721 418 100 C375.5856 97.4839 375.1509 94.771 333 93 C316.2393 92.2958 315.9548 95 299 95 C228.6873 95 158 93 158 93 "/>
<path id="2" d="M432 267 C432 267 430.4875 275.5664 431 276 C432.2156 277.0286 444.3299 278.4124 445 278 C445.2704 277.8336 444.9626 268.8145 444 268 C442.6931 266.8941 432 267 432 267 "/>
<path id="3" d="M414 267 C414 267 414.875 276.3812 416 277 C418.7825 278.5304 433.3034 278.4179 434 278 C434.1201 277.9279 432.378 268.8612 431 268 C429.0634 266.7896 418 268 418 268 "/>
<path id="4" d="M255 300 L260 317 "/>
<path id="5" d="M340 299 L341 317 "/>
<path id="6" d="M258 320 C258 320 229.9469 322.4818 204 326 C201.5048 326.3383 199.4809 327.0382 199 328 C197.8779 330.2441 196.9175 335.2163 198 338 C199.2515 341.2181 201.7185 344.0328 206 346 C218.1507 351.5828 220.4256 352.0429 235 355 C254.3914 358.9345 255.0775 358.6539 275 360 C291.7923 361.1346 292.5426 361.8035 309 360 C328.3019 357.8847 328.7379 354.8536 348 352 C355.19 350.9348 356.2082 353.2128 363 352 C369.2905 350.8767 370.5497 350.1554 376 347 C379.2485 345.1193 380.3769 344.0433 382 341 C383.776 337.67 384.9634 333.8465 384 332 C381.4204 327.0558 377.0636 323.2209 370 318 C366.7457 315.5946 365.3707 315.4371 361 315 C351.1306 314.0131 341.9788 313.8692 340 315 C339.3538 315.3692 340 327 340 327 "/>
<path id="7" d="M261 315 L265 330 "/>
</g>
</g>
</svg>
