<?xml version="1.0" encoding="utf-8"?>
<!DOCTYPE svg PUBLIC "-//W3C//DTD SVG 1.1//EN" "http://www.w3.org/Graphics/SVG/1.1/DTD/svg11.dtd">
<svg viewBox="0 0 800 800" preserveAspectRatio="xMinYMin meet" xmlns="http://www.w3.org/2000/svg" version="1.1">
<g fill="none" stroke="black" stroke-linecap="round" stroke-linejoin="round" stroke-width="0.91686">
<g transform="translate(87.52,128.4205) scale(3.272) translate(-152,-128)">
<path id="0" d="M152 129 L153 252 "/>
<path id="1" d="M155 254 L339 253 "/>
<path id="2" d="M152 128 L342 128 "/>
<path id="3" d="M343 129 L343 254 "/>
<path id="4" d="M339 254 L343 254 "/>
<path id="5" d="M166 242 L320 241 "/>
<path id="6" d="M329 140 L329 241 "/>
<path id="7" d="M323 242 L327 242 "/>
<path id="8" d="M162 146 L165 239 "/>
<path id="9" d="M162 142 L162 147 "/>
<path id="10" d="M162 141 L329 140 "/>
<path id="11" d="M202 255 C202 255 202.6338 265.3854 204 267 C204.8596 268.0159 211.7053 267.5684 213 268 C213.0925 268.0308 213 270 213 270 "/>
<path id="12" d="M286 255 C286 255 287.2749 259.7015 287 263 C286.8553 264.7361 285.8458 266.5167 285 267 C284.0132 267.5639 280 267 280 267 "/>
<path id="13" d="M212 270 C212 270 262.2123 270.5156 280 270 C280.2767 269.992 281 268 281 268 "/>
<path id="14" d="M205 266 C205 266 198.1306 268.1156 197 270 C195.5096 272.4839 196 281 196 281 "/>
<path id="15" d="M288 268 C288 268 291.9228 268.6526 292 269 C292.6948 272.1264 292 286 292 286 "/>
<path id="16" d="M196 279 C196 279 193.031 278.8968 193 279 C192.656 280.1468 192.1702 285.1278 193 289 C193.3852 290.7978 194.5185 292.177 196 293 C197.8597 294.0332 199.0359 293.9694 202 294 C246.8783 294.4627 265.6148 295.7296 293 294 C294.3178 293.9168 297.142 288.7812 297 288 C296.8359 287.0976 291 283 291 283 "/>
<path id="17" d="M193 248 C193 248 196.7992 246.8996 197 247 C197.0861 247.043 197.18 249.865 197 250 C196.68 250.24 193 250 193 250 "/>
<path id="18" d="M209 250 C209 250 205.9936 247.0193 206 247 C206.0043 246.9871 209.8831 246.8831 210 247 C210.0584 247.0584 209 250 209 250 "/>
<path id="19" d="M222 248 C222 248 220 247.02 220 247 C220 246.98 221.051 246.1898 222 246 C223.2941 245.7412 224.9427 245.9427 225 246 C225.0191 246.0191 224 248 224 248 "/>
<path id="20" d="M278 247 C278 247 278.9986 245 279 245 C279 245 279 247 279 247 "/>
<path id="21" d="M292 245 C292 245 293.0046 246.9985 293 247 C292.9497 247.0168 289 246 289 246 "/>
<path id="22" d="M304 246 L302 246 "/>
<path id="23" d="M319 245 C319 245 318.75 248.75 319 249 C319.25 249.25 322.68 249.24 323 249 C323.18 248.865 323.1875 246.1875 323 246 C322.8125 245.8125 320 246 320 246 "/>
</g>
</g>
</svg>
