<?xml version="1.0" encoding="utf-8"?>
<!DOCTYPE svg PUBLIC "-//W3C//DTD SVG 1.1//EN" "http://www.w3.org/Graphics/SVG/1.1/DTD/svg11.dtd">
<svg viewBox="0 0 800 800" preserveAspectRatio="xMinYMin meet" xmlns="http://www.w3.org/2000/svg" version="1.1">
<g fill="none" stroke="black" stroke-linecap="round" stroke-linejoin="round" stroke-width="1.0225">
<g transform="translate(156.471,87.52) scale(2.9341) translate(-196,-92)">
<path id="0" d="M210 94 C210 94 212.0793 125.1394 211 155 C210.608 165.8466 207.3616 166.1532 207 177 C205.8897 210.3082 208 245 208 245 "/>
<path id="1" d="M210 95 L358 92 "/>
<path id="2" d="M359 95 C359 95 359.4351 187.5431 358 241 C357.9697 242.1277 355 244 355 244 "/>
<path id="3" d="M212 244 C212 244 249.3753 244.657 285 243 C291.4081 242.7019 291.6062 240.3365 298 240 C319.381 238.8747 320.1304 239.3166 342 240 C351.9718 240.3116 359.0358 241.4072 362 242 C362.0581 242.0116 362 244 362 244 "/>
<path id="4" d="M211 94 L196 122 "/>
<path id="5" d="M198 120 C198 120 201.5958 124.2609 202 128 C203.3902 140.8593 203.6409 144.2008 202 157 C201.3979 161.6964 197.5938 162.25 197 167 C194.8695 184.0443 195.2415 187.1745 196 205 C196.1824 209.2865 198.4116 209.5283 199 214 C200.8327 227.9287 201 243 201 243 "/>
<path id="6" d="M204 244 L213 245 "/>
<path id="7" d="M221 110 L221 232 "/>
<path id="8" d="M224 113 C224 113 256.8401 116.0291 289 115 C318.8104 114.0461 349 109 349 109 "/>
<path id="9" d="M351 111 C351 111 351.8422 125.6822 351 140 C350.3559 150.9489 349.4377 155.3867 348 162 C347.9089 162.4189 346.0515 162.6656 346 163 C345.5278 166.069 345.0472 169.5215 346 175 C346.9286 180.3395 349.4752 180.6475 350 186 C351.847 204.8397 351 226 351 226 "/>
<path id="10" d="M224 231 C224 231 267.5131 230.3892 274 230 C274.0155 229.9991 273.9971 228 274 228 C284.3736 227.878 359 229 359 229 "/>
<path id="11" d="M263 245 L254 276 "/>
<path id="12" d="M299 244 L305 280 "/>
<path id="13" d="M258 262 C258 262 242.706 264.9449 234 270 C230.1078 272.26 228.4615 275.4066 227 280 C225.5656 284.508 225.3565 289.5348 227 292 C229.5109 295.7663 234.0741 299.0427 241 301 C254.87 304.9198 257.063 304.1612 273 305 C294.7701 306.1458 297.3816 307.5729 317 305 C325.0476 303.9446 330.55 301.2715 334 297 C337.3706 292.8268 339.5212 282.4771 338 279 C335.9522 274.3193 328.7553 269.6695 320 265 C315.5077 262.6041 308 263 308 263 "/>
<path id="14" d="M334 232 C334 232 338.6551 231.5977 339 232 C339.6323 232.7376 340.2739 238.6165 340 239 C339.8132 239.2615 334.4886 239.4886 334 239 C333.3486 238.3486 333 232 333 232 "/>
</g>
</g>
</svg>
