<?xml version="1.0" encoding="utf-8"?>
<!DOCTYPE svg PUBLIC "-//W3C//DTD SVG 1.1//EN" "http://www.w3.org/Graphics/SVG/1.1/DTD/svg11.dtd">
<svg viewBox="0 0 800 800" preserveAspectRatio="xMinYMin meet" xmlns="http://www.w3.org/2000/svg" version="1.1">
<g fill="none" stroke="black" stroke-linecap="round" stroke-linejoin="round" stroke-width="0.88806">
<g transform="translate(92.5872,87.52) scale(3.3782) translate(-175,-108)">
<path id="0" d="M192 109 C192 109 336.6467 107.3832 357 108 C357.0224 108.0007 357.4395 111.1116 357 114 C353.9917 133.7686 352.4006 133.938 350 154 C345.4244 192.2388 349.3063 221.6574 343 231 C340.3205 234.9697 319.4723 233.5515 296 234 C241.1317 235.0484 196.229 240.8797 186 234 C180.9678 230.6155 180.0842 193.8649 183 158 C184.8497 135.2486 196 111 196 111 "/>
<path id="1" d="M204 117 C204 117 343.4276 110.2138 353 115 C354.4229 115.7115 344.5532 150.092 340 185 C337.1256 207.0371 339.8701 229.4755 338 230 C317.2445 235.8217 206.949 231.5696 176 231 C175.7949 230.9962 175 227 175 227 "/>
<path id="2" d="M198 116 C198 116 199.6087 120.424 199 124 C195.8491 142.5118 192.5539 143.4806 190 163 C185.6359 196.3542 185 231 185 231 "/>
<path id="3" d="M249 241 L249 265 "/>
<path id="4" d="M266 238 C266 238 267.6143 262.8207 266 265 C265.1143 266.1957 255.2625 263.5375 246 265 C237.225 266.3855 236.2419 267.1538 228 271 C221.7658 273.9093 219.4694 275.0349 216 279 C214.1715 281.0897 213.6631 286.7518 214 287 C216.199 288.6203 224.7439 292.2496 235 293 C264.1815 295.1352 288.5746 294.2173 296 293 C296.1996 292.9673 297.0928 286.2785 296 283 C295.2714 280.8143 293.7503 280.0266 291 278 C284.4659 273.1854 284.1855 272.0484 277 269 C268.4825 265.3865 258 264 258 264 "/>
</g>
</g>
</svg>
