<?xml version="1.0" encoding="utf-8"?>
<!DOCTYPE svg PUBLIC "-//W3C//DTD SVG 1.1//EN" "http://www.w3.org/Graphics/SVG/1.1/DTD/svg11.dtd">
<svg viewBox="0 0 800 800" preserveAspectRatio="xMinYMin meet" xmlns="http://www.w3.org/2000/svg" version="1.1">
<g fill="none" stroke="black" stroke-linecap="round" stroke-linejoin="round" stroke-width="1.2913">
<g transform="translate(243.1792,87.52) scale(2.3233) translate(-237,-110.1333)">
<path id="0" d="M239 217.1333 C239 217.1333 257.2987 216.1499 275 217.1333 C283.9326 217.6296 284.0848 219.8576 293 220.1333 C331.9272 221.3373 372 220.1333 372 220.1333 "/>
<path id="1" d="M245 218.1333 C245 218.1333 248.9465 220.7964 251 224.1333 C256.5412 233.1378 256.9595 233.8638 261 244.1333 C268.8512 264.0886 269.1859 264.4933 275 285.1333 C279.0996 299.6868 279.566 300.1558 281 315.1333 C284.0152 346.6257 283.9998 379.1321 284 379.1333 C284.0001 379.1338 283.7445 364.7211 287 352.1333 C290.9971 336.6779 292.004 335.9327 299 321.1333 C304.841 308.7773 305.3062 308.6065 313 297.1333 C333.7011 266.2632 334.8732 261.3372 356 236.1333 C360.0787 231.2675 367.3795 231.941 370 229.1333 C371.0447 228.014 370 221.1333 370 221.1333 "/>
<path id="2" d="M250 215.1333 C250 215.1333 241.8301 198.3375 238 182.1333 C235.6235 172.0787 236.049 169.6438 237 160.1333 C237.3648 156.4855 238.4317 154.188 241 152.1333 C246.5317 147.708 252.0071 148.3379 257 144.1333 C259.1382 142.3328 258.6253 136.6832 260 136.1333 C265.0554 134.1112 271.0947 134.3993 282 134.1333 C291.3853 133.9044 292.2097 133.2827 301 135.1333 C310.3683 137.1056 313.404 137.2963 320 142.1333 C326.0129 146.5428 324.7943 151.8142 331 157.1333 C337.4286 162.6436 339.673 162.6637 348 166.1333 C350.9763 167.3735 353.1125 165.9322 355 167.1333 C356.9325 168.3631 357.9813 170.0772 359 173.1333 C361.2226 179.8012 359.3258 181.6707 362 188.1333 C364.9183 195.186 369.3357 195.8922 371 202.1333 C372.5966 208.1208 370 218.1333 370 218.1333 "/>
<path id="3" d="M289 133.1333 C289 133.1333 290.6954 121.9775 292 121.1333 C293.6183 120.0862 299.682 120.8697 306 122.1333 C308.9366 122.7206 310.4559 123.2804 312 125.1333 C314.3805 127.99 314.6834 129.8544 316 134.1333 C316.5148 135.8063 316.0705 138.0276 316 138.1333 C315.9941 138.1421 314 137.1333 314 137.1333 "/>
<path id="4" d="M306 124.1333 L305 110.1333 "/>
<path id="5" d="M255 224.1333 C255 224.1333 256.1502 226.0345 257 226.1333 C272.7397 227.9635 279.2002 226.4477 298 229.1333 C301.8896 229.689 302.305 232.8785 306 233.1333 C328.3242 234.6729 331.3469 233.5736 356 233.1333 C358.9672 233.0803 361.9053 232.2044 362 232.1333 C362.007 232.1281 360 230.1333 360 230.1333 "/>
<path id="6" d="M264 239.1333 C264 239.1333 279.0701 242.405 294 243.1333 C319.7112 244.3875 346 243.1333 346 243.1333 "/>
<path id="7" d="M271 258.1333 L331 258.1333 "/>
<path id="8" d="M277 274.1333 L326 273.1333 "/>
<path id="9" d="M280 285.1333 L319 284.1333 "/>
<path id="10" d="M282 299.1333 C282 299.1333 286.142 301.7047 290 302.1333 C298.7962 303.1107 309 302.1333 309 302.1333 "/>
<path id="11" d="M282 316.1333 L298 317.1333 "/>
<path id="12" d="M283 293.1333 C283 293.1333 293.3844 295.1333 303 295.1333 C308.2886 295.1333 314 293.1333 314 293.1333 "/>
<path id="13" d="M287 330.1333 L293 329.1333 "/>
<path id="14" d="M269 217.1333 C269 217.1333 271.6112 218.0729 272 219.1333 C275.8798 229.7145 274.8938 233.7297 280 247.1333 C286.7586 264.8747 288.8011 264.4632 296 282.1333 C299.7183 291.26 299.5009 291.9701 302 301.1333 C302.3633 302.4654 302 304.1333 302 304.1333 C301.9929 304.1333 300.3362 302.5901 300 301.1333 C299.0064 296.8277 299 291.1333 299 291.1333 "/>
<path id="15" d="M295 225.1333 C295 225.1333 303.6155 239.9322 310 255.1333 C313.9608 264.5639 312.2861 266.0173 316 275.1333 C317.4954 278.8038 320.9274 281.964 321 282.1333 C321.0068 282.1492 319 282.1333 319 282.1333 "/>
<path id="16" d="M327 227.1333 C327 227.1333 330.1018 228.4011 331 230.1333 C336.1661 240.0966 341 254.1333 341 254.1333 "/>
</g>
</g>
</svg>
