<?xml version="1.0" encoding="utf-8"?>
<!DOCTYPE svg PUBLIC "-//W3C//DTD SVG 1.1//EN" "http://www.w3.org/Graphics/SVG/1.1/DTD/svg11.dtd">
<svg viewBox="0 0 800 800" preserveAspectRatio="xMinYMin meet" xmlns="http://www.w3.org/2000/svg" version="1.1">
<g fill="none" stroke="black" stroke-linecap="round" stroke-linejoin="round" stroke-width="1.8913">
<g transform="translate(227.105,87.52) scale(1.5862) translate(-212,-34)">
<path id="0" d="M233 219 C233 219 232.57 224.0109 234 228 C241.7096 249.5057 244.5878 250.5435 252 272 C253.6746 276.8475 251.5548 277.9036 253 283 C260.8265 310.5986 260.9315 311.454 271 339 C287.3778 383.8071 305.6119 427.7185 306 428 C306.0847 428.0614 311.4742 400.4278 322 376 C337.5388 339.9383 342.2198 340.9096 359 305 C366.9967 287.8872 364.919 285.5223 372 269 C373.387 265.7637 375.7432 266.2239 377 263 C386.4888 238.6591 394.9717 210.2075 395 210 C395.0054 209.9602 389.1278 216.2531 383 219 C375.818 222.2195 374.497 222.1285 366 223 C336.0288 226.074 335.4339 226.3186 305 227 C268.6436 227.8139 266.77 227.3204 232 226 C229.1075 225.8902 226.48 224.88 226 224 C225.1807 222.4979 226.9375 218.9373 226 215 C224.6261 209.2295 224.1483 206.823 221 203 C218.5756 200.056 213.1863 200.1089 212 198 C210.7032 195.6946 210.424 188.5235 212 187 C219.0254 180.2088 239.837 171.9495 242 169 C242.3317 168.5477 236.6022 162.9851 234 157 C232.0045 152.4103 230.9129 148.0754 232 146 C233.8361 142.4946 242.1326 140.779 245 136 C247.6096 131.6506 245.1151 122.2566 247 121 C252.6023 117.2651 266.6227 113.2889 278 114 C284.5612 114.4101 289.3592 123.859 295 124 C302.4474 124.1862 306.8882 117.3811 318 115 C326.4691 113.1852 330.037 112.5004 337 115 C346.1713 118.2923 347.5359 124.2679 357 129 C360.6805 130.8402 363.4505 130.8352 367 130 C369.9722 129.3007 371.3324 125.5002 374 125 C376.8986 124.4565 379.4154 125.0223 383 127 C392.8361 132.4268 400.6213 137.4319 403 141 C403.6382 141.9573 399 147.5374 399 151 C399 153.7701 400.3823 156.3823 403 159 C407.3629 163.3629 409.0149 164.3978 415 167 C419.5897 168.9955 425.9305 168.8089 426 169 C426.0748 169.2056 418.9135 175.5773 419 178 C419.1907 183.3398 425.6505 190.2527 427 197 C427.3537 198.7687 425.4532 202.4844 424 203 C415.5644 205.9933 409.698 206.7258 396 208 C388.8264 208.6673 385.1182 206.5155 381 207 C380.3489 207.0766 379 210 379 210 "/>
<path id="1" d="M253 121 C253 121 244.6012 121.5011 243 120 C240.2001 117.3751 239.0201 112.926 237 106 C235.68 101.4743 234.9664 99.273 236 96 C237.1965 92.2112 239.4063 89.1562 243 87 C247.2892 84.4265 251.3069 83.0917 256 84 C263.4601 85.4439 273.7224 93.1796 274 93 C274.2722 92.8238 271.4853 81.0782 273 73 C274.0177 67.572 276.2768 64.4905 280 61 C282.4099 58.7407 285.7215 58 289 58 C291.1857 58 292.0634 60.4127 295 61 C301.318 62.2636 306.5455 63.7532 309 62 C314.3577 58.1731 315.4863 49.8204 323 41 C326.1187 37.3389 327.6126 36.7062 332 35 C335.6347 33.5865 337.6016 32.8672 341 34 C358.5149 39.8383 360.4993 43.4997 380 51 C386.061 53.3312 387.1997 51.4717 393 54 C406.0142 59.6729 413.8385 61.118 419 68 C423.4682 73.9575 419.5782 82.8015 423 94 C424.5258 98.9936 428.6609 99.4089 430 104 C431.5568 109.3377 431.6343 112.4841 430 118 C428.2057 124.0558 426.4796 126.7561 422 131 C418.53 134.2874 411 136 411 136 "/>
<path id="2" d="M242 250 C242 250 247.3372 254.4045 253 257 C258.9119 259.7096 259.6674 260.4611 266 261 C282.1397 262.3736 283.5651 263.0544 300 261 C330.6945 257.1632 332.1477 256.8731 362 249 C376.7349 245.1139 377.9589 243.323 391 237 C393.2246 235.9214 395 233 395 233 "/>
<path id="3" d="M261 286 C261 286 270.8388 292.8387 280 294 C303.8605 297.0246 308.726 298.3649 332 295 C346.7571 292.8664 363 282 363 282 "/>
<path id="4" d="M263 313 C263 313 273.372 319.6913 284 324 C291.3561 326.9822 292.1375 327.4282 300 328 C318.8226 329.3689 322.2577 329.1415 339 328 C341.2343 327.8477 344 325 344 325 "/>
<path id="5" d="M277 351 C277 351 290.7724 357.0404 304 359 C316.6714 360.8772 317.8601 359.73 331 359 C335.434 358.7537 337.7063 358.1468 340 357 C340.5734 356.7133 341 354 341 354 "/>
<path id="6" d="M295 380 C295 380 312.5144 385.8786 329 390 C331.71 390.6775 334.625 390.375 335 390 C335.375 389.625 335 384 335 384 "/>
<path id="7" d="M287 229 C287 229 285.5078 243.3813 282 257 C277.0785 276.107 276.6816 276.9205 270 295 C268.4494 299.1957 265.9527 299.6656 265 303 C264.4226 305.0209 266.4527 306.5853 266 309 C265.1627 313.4658 262 319 262 319 "/>
<path id="8" d="M325 228 C325 228 321.6227 246.3625 315 263 C301.3505 297.2902 300.2086 297.7724 284 331 C280.4139 338.3514 275 345 275 345 "/>
<path id="9" d="M358 227 C358 227 357.7175 236.6665 355 245 C350.4304 259.0133 350.0377 259.7065 343 273 C332.2024 293.3955 329.7175 292.4434 319 313 C299.3477 350.6937 282 390 282 390 "/>
</g>
</g>
</svg>
