<?xml version="1.0" encoding="utf-8"?>
<!DOCTYPE svg PUBLIC "-//W3C//DTD SVG 1.1//EN" "http://www.w3.org/Graphics/SVG/1.1/DTD/svg11.dtd">
<svg viewBox="0 0 800 800" preserveAspectRatio="xMinYMin meet" xmlns="http://www.w3.org/2000/svg" version="1.1">
<g fill="none" stroke="black" stroke-linecap="round" stroke-linejoin="round" stroke-width="2.1265">
<g transform="translate(192.6205,87.52) scale(1.4107) translate(-68,-2)">
<path id="0" d="M199 114 C199 114 213.9663 136.2216 224 160 C250.1278 221.9192 247.12 225.4548 272 287 C274.9975 294.4148 277.335 293.6699 281 301 C294.1743 327.3486 291.5336 330.3763 306 355 C314.1981 368.9542 319.3004 367.0184 328 381 C346.6658 410.9985 361.9804 445.0783 362 445 C362.066 444.7358 363.4517 350.1153 359 257 C357.4992 225.6073 352.1201 225.4477 350 194 C346.1602 137.043 348.2619 89.1857 347 79 C346.993 78.9437 340.5626 78.7587 336 81 C313.6212 91.9931 312.1398 98.0157 290 107 C280.6777 110.783 278.0676 106.7519 267 109 C246.5566 113.1526 246.1354 116.6942 226 120 C213.7699 122.0079 199.9818 119.9841 200 120 C200.0578 120.0505 231.6424 132.9385 258 148 C264.7166 151.8381 263.414 155.55 270 160 C281.0652 167.4765 283.418 166.2105 295 173 C297.2527 174.3206 297.9509 174.7783 299 177 C305.7947 191.3887 303.8679 196.8018 312 209 C316.8659 216.2989 322.12 214.4945 329 222 C343.3819 237.6893 356 257 356 257 "/>
<path id="1" d="M205 119 C205 119 201.1904 118.6898 199 117 C184.978 106.183 183.2106 104.8331 170 92 C166.345 88.4494 166.0128 87.6966 164 83 C160.2477 74.2446 159.0909 73.2726 158 64 C156.2285 48.9425 156.0924 46.3069 158 32 C158.8226 25.8302 160.3684 24.3078 164 19 C166.2907 15.652 167.2031 15.025 171 13 C181.5471 7.3749 183.0746 3.9463 194 3 C241.6487 -1.1271 251.5819 1.156 298 2 C300.7028 2.0491 301.3786 3.0871 304 5 C319.5291 16.3321 321.4696 16.5378 335 29 C339.3649 33.0203 339.7396 34.2736 342 40 C346.953 52.5477 347.543 53.7938 350 67 C351.3799 74.4171 350 83 350 83 "/>
<path id="2" d="M154 40 C154 40 78.4385 19.8289 72 22 C70.3169 22.5676 65.3171 65.8902 68 69 C70.7977 72.2428 92.6659 69.7691 116 73 C124.5026 74.1773 124.4229 76.3733 133 78 C153.1369 81.8191 174 84 174 84 "/>
<path id="3" d="M81 57 C81 57 89.7405 55.1881 96 57 C106.9266 60.163 107.8171 64.7269 119 68 C126.802 70.2835 137 69 137 69 "/>
<path id="4" d="M82 31 C82 31 103.9336 46.0619 125 54 C136.0621 58.1683 151 57 151 57 "/>
<path id="5" d="M124 45 L139 45 "/>
</g>
</g>
</svg>
