<?xml version="1.0" encoding="utf-8"?>
<!DOCTYPE svg PUBLIC "-//W3C//DTD SVG 1.1//EN" "http://www.w3.org/Graphics/SVG/1.1/DTD/svg11.dtd">
<svg viewBox="0 0 800 800" preserveAspectRatio="xMinYMin meet" xmlns="http://www.w3.org/2000/svg" version="1.1">
<g fill="none" stroke="black" stroke-linecap="round" stroke-linejoin="round" stroke-width="1.4881">
<g transform="translate(87.52,130.864) scale(2.016) translate(-145.5,-114.6667)">
<path id="0" d="M230.5 114.6667 C230.5 114.6667 226.2069 118.1964 225.5 121.6667 C216.2907 166.8761 223.102 175.2101 208.5 222.6667 C183.98 302.3565 145.6439 381.0459 145.5 381.6667 C145.4766 381.7675 160.4137 369.9285 176.5 360.6667 C209.6229 341.5959 211.1519 343.5303 244.5 324.6667 C260.4688 315.6338 260.5804 315.3902 275.5 304.6667 C308.4526 280.982 306.2852 275.2475 340.5 255.6667 C387.3219 228.871 392.9988 233.4918 441.5 209.6667 C448.5291 206.2138 454.5 199.6667 454.5 199.6667 "/>
<path id="1" d="M230.5 115.6667 C230.5 115.6667 240.582 125.0885 251.5 128.6667 C297.5399 143.7554 301.1269 140.6744 349.5 154.6667 C361.2372 158.0617 360.947 160.2853 372.5 163.6667 C381.0081 166.1569 382.2622 163.7327 390.5 166.6667 C417.7996 176.3898 420.94 177.1978 445.5 189.6667 C451.0535 192.4861 455.5 199.6667 455.5 199.6667 "/>
<path id="2" d="M225.5 115.6667 C225.5 115.6667 233.1102 128.7943 242.5 139.6667 C251.7574 150.3857 252.0992 151.8762 263.5 159.6667 C281.0451 171.6558 282.6577 171.1532 302.5 180.6667 C318.9632 188.56 319.446 187.8451 336.5 194.6667 C341.9263 196.8372 342.0105 197.6686 347.5 198.6667 C357.9684 200.57 358.5151 200.3615 369.5 200.6667 C412.3467 201.8569 455.5 201.6667 455.5 201.6667 "/>
<path id="3" d="M202.5 240.6667 C202.5 240.6667 216.1932 232.8501 230.5 226.6667 C275.0335 207.4191 320.5 189.6667 320.5 189.6667 "/>
<path id="4" d="M223.5 189.6667 L266.5 170.6667 "/>
<path id="5" d="M189.5 290.6667 C189.5 290.6667 195.4399 290.4831 200.5 288.6667 C214.4513 283.6585 215.6871 284.0504 228.5 276.6667 C244.5285 267.4299 246.1676 262.8143 259.5 254.6667 C260.9999 253.7501 262.4739 255.4341 264.5 254.6667 C293.055 243.8504 297.5322 243.0597 325.5 229.6667 C330.9845 227.0403 330.0909 223.5136 335.5 220.6667 C347.9023 214.1392 350.3319 216.0976 363.5 209.6667 C371.3458 205.835 371.8427 203.1705 378.5 199.6667 C379.8142 198.975 382.25 199.4167 382.5 199.6667 C382.75 199.9167 382.5 203.6667 382.5 203.6667 "/>
<path id="6" d="M172.5 339.6667 C172.5 339.6667 190.896 334.0549 205.5 324.6667 C224.7763 312.2748 223.6097 308.5671 242.5 294.6667 C249.7339 289.3436 250.6849 289.0645 258.5 285.6667 C261.4179 284.398 262.6167 286.0297 265.5 284.6667 C288.5803 273.756 289.1456 271.1275 313.5 259.6667 C331.4541 251.2177 334.3097 254.6017 350.5 244.6667 C376.7565 228.5547 401.5 205.6667 401.5 205.6667 "/>
<path id="7" d="M225.5 139.6667 C225.5 139.6667 229.2635 204.2547 225.5 266.6667 C223.3449 302.4055 219.8217 304.3486 213.5 338.6667 C213.1279 340.6868 211.5017 342.6692 211.5 342.6667 C211.4955 342.6599 211.5 335.6667 211.5 335.6667 "/>
<path id="8" d="M270.5 171.6667 C270.5 171.6667 280.3855 216.023 285.5 259.6667 C287.7792 279.1162 285.5 299.6667 285.5 299.6667 "/>
<path id="9" d="M321.5 187.6667 C321.5 187.6667 327.1404 195.4703 329.5 203.6667 C336.3541 227.4756 340.5 253.6667 340.5 253.6667 "/>
</g>
</g>
</svg>
