<?xml version="1.0" encoding="utf-8"?>
<!DOCTYPE svg PUBLIC "-//W3C//DTD SVG 1.1//EN" "http://www.w3.org/Graphics/SVG/1.1/DTD/svg11.dtd">
<svg viewBox="0 0 800 800" preserveAspectRatio="xMinYMin meet" xmlns="http://www.w3.org/2000/svg" version="1.1">
<g fill="none" stroke="black" stroke-linecap="round" stroke-linejoin="round" stroke-width="0.83525">
<g transform="translate(159.3545,87.52) scale(3.5917) translate(-185,-198)">
<path id="0" d="M204 276 C204 276 218.5718 293.7423 228 313 C241.5883 340.7549 249.1658 368.1958 251 372 C251.028 372.0582 254.1591 370.7284 255 369 C261.9383 354.738 264.2895 352.2037 269 335 C275.5322 311.1432 276.1107 293.5879 278 285 C278.016 284.9273 279.9171 285.1657 280 285 C280.9529 283.0941 283 275 283 275 "/>
<path id="1" d="M205 277 C205 277 204.0493 285.8341 203 287 C202.4398 287.6225 198.5528 287.9117 196 287 C192.796 285.8557 191.0492 284.7944 189 282 C186.3845 278.4334 185.3809 276.6973 185 272 C184.007 259.7525 182.0646 254.1231 186 245 C190.7428 234.0054 195.2531 229.7635 207 221 C224.8623 207.6741 229.7339 206.3608 249 198 C253.077 196.2307 255.1006 196.8568 260 198 C269.19 200.1443 271.2471 199.8314 279 205 C298.2184 217.8122 301.7157 221.8621 317 236 C318.7307 237.6009 319 239.2864 319 242 C319 249.2362 319.9792 254.3588 317 258 C310.673 265.7329 303.7741 268.9448 292 275 C288.3312 276.8868 282 276 282 276 "/>
</g>
</g>
</svg>
