<?xml version="1.0" encoding="utf-8"?>
<!DOCTYPE svg PUBLIC "-//W3C//DTD SVG 1.1//EN" "http://www.w3.org/Graphics/SVG/1.1/DTD/svg11.dtd">
<svg viewBox="0 0 800 800" preserveAspectRatio="xMinYMin meet" xmlns="http://www.w3.org/2000/svg" version="1.1">
<g fill="none" stroke="black" stroke-linecap="round" stroke-linejoin="round" stroke-width="1.4401">
<g transform="translate(251.0512,87.52) scale(2.0832) translate(-190.8,-74.8)">
<path id="0" d="M230.8 222.8 C230.8 222.8 225.2649 223.5879 220.8 222.8 C217.4382 222.2067 216.7526 221.8668 213.8 219.8 C202.2493 211.7145 194.4812 208.8118 190.8 201.8 C188.2357 196.9156 189.3885 188.5182 192.8 179.8 C197.3312 168.2201 208.8 155.8 208.8 155.8 "/>
<path id="1" d="M200.8 164.8 C200.8 164.8 199.7648 157.9762 200.8 152.8 C201.5592 149.0041 202.3625 148.2125 204.8 144.8 C207.1092 141.5671 207.7346 140.5517 210.8 138.8 C213.7725 137.1014 215.4649 138.5867 218.8 136.8 C228.7135 131.4892 238.8 123.8 238.8 123.8 "/>
<path id="2" d="M228.8 126.8 C228.8 126.8 230.6981 119.8758 233.8 114.8 C235.7916 111.541 236.7567 110.4231 239.8 108.8 C243.13 107.024 244.9711 108.6435 248.8 106.8 C257.753 102.4893 258.8047 101.7964 266.8 95.8 C270.2265 93.2301 271.2709 92.3678 272.8 88.8 C275.2419 83.1022 275.7935 74.7971 275.8 74.8 C275.8281 74.8125 277.2824 85.6471 281.8 92.8 C288.3036 103.0973 295.9881 103.9055 299.8 112.8 C302.826 119.8606 299.8 134.8 299.8 134.8 "/>
<path id="3" d="M303.8 125.8 C303.8 125.8 311.2286 131.9905 316.8 138.8 C319.8857 142.5714 320.7411 143.5644 321.8 147.8 C322.9364 152.3455 323.313 155.2697 321.8 158.8 C319.894 163.2473 312.8 168.8 312.8 168.8 "/>
<path id="4" d="M315.8 162.8 C315.8 162.8 319.7298 163.2474 321.8 164.8 C324.9053 167.1289 325.6555 168.0471 327.8 171.8 C331.384 178.072 332.2481 179.0752 333.8 185.8 C335.0105 191.0453 335.1772 192.8814 333.8 197.8 C332.0831 203.9319 331.0853 205.8381 326.8 210.8 C322.4431 215.8448 320.3587 218.4103 314.8 219.8 C303.7802 222.5549 297.2313 219.7569 286.8 220.8 C285.9833 220.8817 285.5524 222.7745 284.8 222.8 C264.0601 223.503 227.8 222.8 227.8 222.8 "/>
<path id="5" d="M218.8 221.8 C218.8 221.8 206.9739 221.4413 204.8 222.8 C203.6666 223.5083 202.4834 231.0084 202.8 231.8 C202.9313 232.1282 208.6356 232.2862 208.8 232.8 C210.1875 237.1358 210.2214 253.3286 210.8 256.8 C210.8079 256.8475 212.7287 256.6336 212.8 256.8 C216.8658 266.2868 221.4736 281.8336 228.8 298.8 C229.2936 299.9432 231.3569 299.7169 231.8 300.8 C234.883 308.3362 233.5954 311.5499 237.8 320.8 C248.3283 343.9622 261.8 366.8 261.8 366.8 "/>
<path id="6" d="M311.8 220.8 C311.8 220.8 318.7947 220.7402 318.8 220.8 C319.0872 224.0551 319.5343 240.348 314.8 254.8 C310.9233 266.634 306.1719 266.7642 299.8 278.8 C297.4883 283.1666 298.929 284.808 296.8 288.8 C295.3929 291.4384 292.8225 291.1415 291.8 293.8 C286.2103 308.3331 287.5049 312.5868 281.8 327.8 C280.6099 330.9736 277.6351 330.7809 276.8 333.8 C271.9124 351.4706 271.4518 368.0048 268.8 374.8 C268.6124 375.2808 261.4173 375.5716 260.8 374.8 C259.0447 372.6058 256.8 359.8 256.8 359.8 "/>
<path id="7" d="M284.8 159.8 C284.8 159.8 271.17 175.2725 255.8 186.8 C241.9124 197.2157 224.8 204.8 224.8 204.8 "/>
<path id="8" d="M302.8 180.8 C302.8 180.8 293.111 191.5557 282.8 200.8 C278.8912 204.3044 277.9536 205.4155 273.8 206.8 C270.4016 207.9328 264.8 206.8 264.8 206.8 "/>
<path id="9" d="M216.8 231.8 L300.8 230.8 "/>
<path id="10" d="M305.8 232.8 C305.8 232.8 311.125 233.025 311.8 232.8 C311.875 232.775 311.8 230.8 311.8 230.8 "/>
</g>
</g>
</svg>
