<?xml version="1.0" encoding="utf-8"?>
<!DOCTYPE svg PUBLIC "-//W3C//DTD SVG 1.1//EN" "http://www.w3.org/Graphics/SVG/1.1/DTD/svg11.dtd">
<svg viewBox="0 0 800 800" preserveAspectRatio="xMinYMin meet" xmlns="http://www.w3.org/2000/svg" version="1.1">
<g fill="none" stroke="black" stroke-linecap="round" stroke-linejoin="round" stroke-width="1.8673">
<g transform="translate(87.52,114.8319) scale(1.6066) translate(-99,-38.1333)">
<path id="0" d="M258 134.1333 C258 134.1333 243.0713 133.9285 232 137.1333 C226.1011 138.8409 225.6057 140.8466 220 145.1333 C217.27 147.221 216.3993 147.3347 215 150.1333 C205.6713 168.7908 204.8142 170.6676 197 191.1333 C194.5278 197.6081 194.561 198.2144 194 205.1333 C193.0941 216.306 193.8161 216.6385 194 228.1333 C194.8159 279.1265 193.9889 279.4528 196 330.1333 C196.4752 342.108 195.1628 344.5403 199 354.1333 C203.1113 364.4116 205.6475 370.3429 214 375.1333 C233.5573 386.35 241.2478 390.1619 267 393.1333 C315.1596 398.6902 333.1457 398.0885 370 393.1333 C376.4947 392.2601 380.8077 385.6487 386 377.1333 C392.1462 367.0535 393.9755 364.2226 395 352.1333 C398.7017 308.4531 392.679 303.7825 396 259.1333 C397.0203 245.4159 401.3276 244.8292 404 231.1333 C405.1752 225.1103 405.309 224.1172 404 218.1333 C398.5565 193.2486 400.1733 189.306 390 167.1333 C381.9443 149.576 378.0205 149.409 365 133.1333 C360.2258 127.1656 359.6487 126.2955 354 122.1333 C350.9811 119.9089 349.644 119.0619 346 119.1333 C302.8206 119.98 293.874 117.0418 252 124.1333 C237.559 126.579 222 140.1333 222 140.1333 "/>
<path id="1" d="M282 178.1333 C282 178.1333 275.5605 177.0207 272 178.1333 C269.3073 178.9748 266.774 180.8115 266 183.1333 C263.8256 189.6566 262.7978 195.1608 264 202.1333 C264.7222 206.322 268.0381 210.3911 271 212.1333 C273.2992 213.4858 278.1851 213.458 281 212.1333 C284.0302 210.7074 286.632 207.8953 288 204.1333 C289.8633 199.0093 290.3855 194.8837 289 190.1333 C287.7535 185.8595 281 180.1333 281 180.1333 "/>
<path id="2" d="M236 217.1333 C236 217.1333 231.6944 216.221 230 217.1333 C226.9588 218.7709 225.2591 220.7446 223 224.1333 C221.9027 225.7793 221.7657 226.9078 222 229.1333 C222.6852 235.6423 222.6455 236.8547 225 243.1333 C226.9069 248.2185 227.8656 249.372 231 253.1333 C232.1145 254.4707 234.781 255.3186 235 255.1333 C236.8981 253.5272 241.673 248.0801 244 242.1333 C245.4084 238.534 244.3254 237.015 244 232.1333 C243.8351 229.6599 244.0711 228.8165 243 227.1333 C241.1342 224.2014 239.6033 222.5533 237 221.1333 C235.5963 220.3677 232 221.1333 232 221.1333 "/>
<path id="3" d="M227 269.1333 C227 269.1333 228.595 287.9225 231 293.1333 C231.5297 294.2809 238.7016 295.3571 239 295.1333 C239.2754 294.9268 240.2273 289.9561 239 287.1333 C236.0318 280.3065 229 272.1333 229 272.1333 "/>
<path id="4" d="M256 303.1333 C256 303.1333 250.092 303.1627 249 304.1333 C247.8619 305.145 246.5577 308.9216 247 311.1333 C247.6032 314.1493 248.9701 315.9351 252 319.1333 C257.5464 324.9879 264.9428 330.1791 265 330.1333 C265.2777 329.9112 267.3387 316.9565 267 307.1333 C266.9098 304.5187 265.2289 302.1867 264 301.1333 C263.3963 300.6159 260 301.1333 260 301.1333 "/>
<path id="5" d="M282 303.1333 C282 303.1333 281.7371 310.9846 284 315.1333 C286.6715 320.0311 289.7017 322.6049 294 325.1333 C295.8944 326.2477 298.1765 325.9401 301 325.1333 C304.2845 324.1949 306.9245 323.0154 308 321.1333 C309.4212 318.6463 309.9388 314.3253 309 311.1333 C308.1522 308.2509 305.7336 305.1747 303 304.1333 C298.1486 302.2852 288 303.1333 288 303.1333 "/>
<path id="6" d="M347 286.1333 C347 286.1333 344.3923 295.6898 345 299.1333 C345.2346 300.4627 347.74 302.3115 350 303.1333 C352.1008 303.8973 353.8299 304.0014 356 303.1333 C360.1232 301.4841 364.8251 298.5324 365 297.1333 C365.4234 293.746 362.7701 285.327 359 279.1333 C357.2815 276.3101 351 274.1333 351 274.1333 "/>
<path id="7" d="M352 174.1333 C352 174.1333 349.6065 179.6904 350 181.1333 C350.327 182.3323 354.4134 185.1333 355 185.1333 C355.3519 185.1333 357.5836 182.9376 358 181.1333 C358.7986 177.6726 359.2749 175.0018 358 172.1333 C356.2215 168.1316 350 163.1333 350 163.1333 "/>
<path id="8" d="M313 141.1333 C313 141.1333 311 141.9113 311 142.1333 C311 145.6862 312.6791 157.95 313 158.1333 C313.2139 158.2556 322.8948 152.8127 325 150.1333 C325.6298 149.3317 324.7772 145.0401 324 144.1333 C323.4009 143.4344 319 143.1333 319 143.1333 "/>
<path id="9" d="M275 150.1333 C275 150.1333 269.807 148.1976 267 149.1333 C260.0434 151.4522 257.9195 153.3989 251 158.1333 C249.2085 159.3591 248.3949 160.7511 248 162.1333 C247.7793 162.9057 248.8615 165.1417 249 165.1333 C254.4695 164.8018 274.7624 162.4016 281 160.1333 C281.6539 159.8955 282.3621 153.8574 282 153.1333 C281.805 152.7434 277 152.1333 277 152.1333 "/>
<path id="10" d="M222 171.1333 C222 171.1333 223.4142 173.8908 223 175.1333 C221.5316 179.5386 218.7993 180.7353 217 186.1333 C215.5698 190.4241 215.2354 193.4574 216 196.1333 C216.4273 197.6287 220.0029 200.2663 221 200.1333 C223.4109 199.8119 227.6034 197.2469 231 194.1333 C232.4427 192.8109 233.3138 190.3883 233 189.1333 C232.4248 186.8325 230.6475 184.5161 228 182.1333 C226.4068 180.6995 223 180.1333 223 180.1333 "/>
<path id="11" d="M316 224.1333 C316 224.1333 306.3186 227.8678 300 233.1333 C295.3843 236.9798 291.9221 242.7318 292 244.1333 C292.0553 245.1292 296.6871 249.4082 301 251.1333 C305.1667 252.8 308.422 252.6445 312 252.1333 C313.1299 251.9719 314.7478 250.3943 315 249.1333 C315.8406 244.9301 316.3376 241.592 315 237.1333 C313.9076 233.492 311.3437 231.2166 309 229.1333 C308.4637 228.6566 306 229.1333 306 229.1333 "/>
<path id="12" d="M280 244.1333 C280 244.1333 276.9338 252.5131 278 257.1333 C279.2624 262.6039 285.9933 270.1322 286 270.1333 C286.0026 270.1338 285.8565 262.642 284 258.1333 C282.9781 255.6515 281.4489 254.4691 279 253.1333 C276.9256 252.0019 273 252.1333 273 252.1333 "/>
<path id="13" d="M367 238.1333 C367 238.1333 363.2474 240.0613 363 241.1333 C362.3839 243.8029 362.5751 247.3335 364 251.1333 C365.0816 254.0175 367.839 256.3041 369 257.1333 C369.1607 257.2482 370.9803 256.4287 371 256.1333 C371.5039 248.5746 371.9636 234.6013 371 227.1333 C370.9164 226.4854 367 225.1333 367 225.1333 "/>
<path id="14" d="M350 201.1333 C350 201.1333 346.1504 201.6821 346 202.1333 C345.0761 204.9049 344.232 211.5255 345 216.1333 C345.2591 217.6878 347.2414 219.4299 349 220.1333 C350.8842 220.887 353.1886 220.9567 355 220.1333 C357.1956 219.1353 358.3554 217.8058 360 215.1333 C362.0049 211.8754 363.4759 209.2748 363 207.1333 C362.2501 203.759 358.7264 199.6119 356 197.1333 C355.3222 196.5172 352 197.1333 352 197.1333 "/>
<path id="15" d="M295 356.1333 C295 356.1333 298.5976 362.7594 300 363.1333 C301.879 363.6344 309.9377 360.3618 310 360.1333 C310.0663 359.8904 305.9993 353.8472 303 352.1333 C301.1856 351.0966 296 352.1333 296 352.1333 "/>
<path id="16" d="M334 341.1333 C334 341.1333 335.322 351.4553 337 353.1333 C338.2305 354.3639 343.3402 355.2594 347 354.1333 C354.0873 351.9526 358.5465 349.0629 363 345.1333 C364.1708 344.1003 364.2218 339.3995 364 339.1333 C363.7854 338.8758 358 339.1333 358 339.1333 "/>
<path id="17" d="M335 339.1333 C335 339.1333 338.3244 337.7643 341 338.1333 C351.8126 339.6247 364 343.1333 364 343.1333 "/>
<path id="18" d="M265 348.1333 C265 348.1333 260.0551 351.4955 259 354.1333 C257.8695 356.9596 259 363.1333 259 363.1333 C259 363.1333 259.7364 352.1952 259 350.1333 C258.8422 349.6915 254 349.1333 254 349.1333 "/>
<path id="19" d="M258 352.1333 C258 352.1333 263.8821 362.1441 264 362.1333 C264.139 362.1207 268.883 352.6547 269 351.1333 C269.0174 350.9072 266.6358 349.1333 265 349.1333 C260.0927 349.1333 253 351.1333 253 351.1333 "/>
<path id="20" d="M235 334.1333 C235 334.1333 226.2201 341.0349 223 346.1333 C221.8487 347.9562 222.181 350.8812 223 353.1333 C223.6381 354.8882 226.1948 357.2484 227 357.1333 C231.2273 356.5294 236.4186 353.924 244 350.1333 C245.6642 349.3012 246.6858 348.0758 247 347.1333 C247.2094 346.505 246.8395 345.1594 246 344.1333 C242.802 340.2247 241.2923 338.5277 238 336.1333 C237.2852 335.6135 235 336.1333 235 336.1333 "/>
<path id="21" d="M217 313.1333 C217 313.1333 210.1935 320.7463 208 325.1333 C207.5347 326.0639 208.8292 329.1227 209 329.1333 C211.024 329.2598 218.0506 328.3252 224 326.1333 C226.022 325.3884 227.6169 323.6656 228 322.1333 C228.5937 319.7584 227 314.1333 227 314.1333 "/>
<path id="22" d="M279 119.1333 C279 119.1333 277.4347 109.5087 273 104.1333 C262.4912 91.3954 259.4894 89.7061 246 79.1333 C242.1973 76.1528 240.8345 75.6267 236 75.1333 C217.8373 73.28 214.7708 72.2627 197 74.1333 C188.4392 75.0345 188.0943 78.6324 179 81.1333 C168.4565 84.0328 157.3206 85.2276 157 85.1333 C156.9638 85.1227 158.8807 78.9243 162 76.1333 C167.0563 71.6093 168.8793 70.0858 176 68.1333 C198.1919 62.0485 200.2278 62.1049 224 59.1333 C235.6139 57.6816 238.4749 57.1723 248 59.1333 C252.5408 60.0682 252.808 63.8258 258 66.1333 C265.6119 69.5164 268.1991 67.5968 275 71.1333 C279.2194 73.3274 281.0335 74.807 283 79.1333 C290.0056 94.5457 288.5292 98.5519 295 115.1333 C296.0436 117.8074 299 120.1333 299 120.1333 "/>
<path id="23" d="M304 119.1333 C304 119.1333 303.5405 101.9713 307 88.1333 C309.0975 79.7434 310.2881 76.0937 316 71.1333 C326.3105 62.1795 330.3593 60.5926 345 55.1333 C358.4981 50.1001 360.1452 50.7249 375 49.1333 C387.6041 47.7829 390.3506 46.4143 401 49.1333 C410.8563 51.6498 422.0034 61.1195 422 61.1333 C421.9969 61.1456 408.7819 58.6129 398 61.1333 C372.2998 67.1412 368.3636 67.3141 345 79.1333 C328.2042 87.63 327.5803 90.8785 313 104.1333 C306.17 110.3424 301 119.1333 301 119.1333 "/>
<path id="24" d="M303 117.1333 C303 117.1333 309.6946 111.5188 317 108.1333 C329.7183 102.2395 330.2638 101.6298 344 98.1333 C384.7182 87.7687 385.8417 87.1784 427 80.1333 C440.4696 77.8277 442.8384 77.8532 455 79.1333 C459.5893 79.6164 460.7902 81.0314 465 84.1333 C469.8089 87.6767 474.0302 93.0962 474 93.1333 C473.5553 93.6806 462.7131 99.347 452 100.1333 C410.5662 103.1743 406.7907 96.5219 365 101.1333 C336.3808 104.2913 307 116.1333 307 116.1333 "/>
<path id="25" d="M267 115.1333 C267 115.1333 254.1697 108.5689 241 105.1333 C220.2448 99.7189 219.3025 99.7155 198 97.1333 C186.8569 95.7827 186.3071 96.4872 175 97.1333 C169.0444 97.4736 168.5753 97.2749 163 99.1333 C146.5675 104.6108 143.9316 104.9889 130 112.1333 C126.6319 113.8606 123.7876 118.4606 124 119.1333 C124.657 121.2139 130.7419 128.6094 136 131.1333 C139.8488 132.9808 142.8722 132.2772 149 131.1333 C179.4569 125.448 180.2661 121.0402 211 117.1333 C238.0463 113.6952 240.1495 115.3318 267 116.1333 C272.32 116.2921 277.6928 118.9627 278 119.1333 C278.0216 119.1453 276 121.1333 276 121.1333 "/>
<path id="26" d="M245 130.1333 C245 130.1333 226.2785 128.2732 208 129.1333 C184.1408 130.2561 182.453 129.1762 160 134.1333 C145.5282 137.3284 144.065 138.7042 131 146.1333 C119.451 152.7004 118.2466 153.8868 109 163.1333 C103.0727 169.0606 99.1865 176.2679 99 178.1333 C98.951 178.623 103.4704 182.7618 107 183.1333 C119.3754 184.436 124.9171 186.4888 137 182.1333 C163.5908 172.5483 164.6628 164.5893 193 152.1333 C209.1355 145.0408 210.8976 145.6236 228 142.1333 C234.464 140.8141 242 142.1333 242 142.1333 "/>
<path id="27" d="M356 118.1333 C356 118.1333 352.9988 121.1338 353 121.1333 C353.0055 121.1312 360.8492 115.4213 369 113.1333 C388.3189 107.7105 389.6931 107.4214 410 105.1333 C424.5391 103.4951 425.125 104.3639 440 105.1333 C453.9602 105.8554 456.0106 104.3866 468 108.1333 C477.8401 111.2084 487.9958 120.1299 488 120.1333 C488.0013 120.1344 483.8951 118.1915 480 118.1333 C418.8806 117.2211 412.9473 115.6426 354 118.1333 C346.396 118.4546 338 124.1333 338 124.1333 "/>
<path id="28" d="M285 82.1333 L285 74.1333 "/>
<path id="29" d="M285 74.1333 C285 74.1333 282.0039 67.1346 282 67.1333 C281.9985 67.1328 282.006 73.1357 282 73.1333 C281.9796 73.1252 277.7556 65.5531 277 65.1333 C276.8133 65.0296 273.2656 68.2514 273 68.1333 C272.1923 67.7743 268.2853 61.1333 268 61.1333 C267.7147 61.1333 263.1878 68.1675 263 68.1333 C262.6152 68.0634 258.1533 59.7624 257 59.1333 C256.6444 58.9394 252.4734 62.3858 252 62.1333 C249.7908 60.9551 244.2092 52.3115 242 51.1333 C241.5266 50.8809 237.7512 54.3382 237 54.1333 C235.6283 53.7592 231.1921 48.0533 231 48.1333 C230.4192 48.3753 225.5808 58.8913 225 59.1333 C224.8079 59.2134 220.1579 53.1333 219 53.1333 C217.0701 53.1333 210.6333 59.2354 209 59.1333 C207.9076 59.0651 205.429 54.0226 203 52.1333 C202.3633 51.6381 200.4389 51.6944 200 52.1333 C198.098 54.0353 195.7252 59.952 195 60.1333 C194.4043 60.2823 191.1251 56.6959 188 55.1333 C187.0131 54.6399 185.6994 54.6088 185 55.1333 C181.3281 57.8873 178.5823 63.4538 176 64.1333 C173.9676 64.6682 167.093 59.619 166 60.1333 C164.2972 60.9347 159.22 71.8584 159 72.1333 C158.985 72.1521 158.0005 70.1309 158 70.1333 C157.9981 70.1427 158 77.1333 158 77.1333 "/>
<path id="30" d="M255 106.1333 C255 106.1333 247.2968 98.1059 242 94.1333 C241.2777 93.5916 239.4389 93.6944 239 94.1333 C237.098 96.0353 236.6531 99.4802 234 102.1333 C232.5714 103.5619 229.3968 104.4557 229 104.1333 C226.2739 101.9184 219.3297 89.8373 218 89.1333 C217.8018 89.0284 214.5714 93.5905 212 95.1333 C210.9286 95.7762 209.1954 95.8164 208 95.1333 C203.6453 92.6449 198.9388 87.2004 198 87.1333 C197.6892 87.1111 194.489 94.0957 194 94.1333 C193.08 94.2041 186.0948 87.9281 185 88.1333 C183.7922 88.3598 179.0951 96.9143 178 97.1333 C177.1538 97.3026 171.5871 91.2467 170 91.1333 C168.9375 91.0574 166.2695 95.7551 164 96.1333 C160.1252 96.7791 154.4238 93.1908 152 94.1333 C149.9482 94.9312 147.0125 102.3458 146 103.1333 C145.8875 103.2208 143.0217 101.1116 143 101.1333 C142.8479 101.2854 142.6589 106.7489 142 107.1333 C140.3038 108.1228 131 108.1333 131 108.1333 "/>
<path id="31" d="M221 132.1333 C221 132.1333 222.2484 129.5307 222 129.1333 C221.0849 127.6692 217.3299 124.0551 216 124.1333 C213.3539 124.289 206.957 130.0029 205 130.1333 C204.3706 130.1753 202.4312 125.7058 201 125.1333 C199.6642 124.599 196.3358 126.6677 195 126.1333 C193.5688 125.5608 191.7315 121.1333 191 121.1333 C189.1713 121.1333 183.2315 125.9739 181 126.1333 C180.1997 126.1905 179.0702 123.1684 177 122.1333 C173.8947 120.5807 170.7803 119.8096 169 120.1333 C168.1311 120.2913 166.9592 123.7222 166 124.1333 C165.2733 124.4448 162.8513 122.755 162 123.1333 C160.2709 123.9018 159.1956 127.1353 157 128.1333 C155.1886 128.9567 152.9719 127.2131 151 128.1333 C146.9686 130.0147 143.8937 132.1876 142 135.1333 C140.9633 136.7461 142.0955 142.1113 142 142.1333 C141.2858 142.2982 129.9366 137.8657 129 138.1333 C128.7405 138.2075 128.4349 144.9737 128 146.1333 C127.9611 146.2372 126.7705 146.4577 126 146.1333 C118.1532 142.8294 109.483 137.9345 109 138.1333 C108.7823 138.223 109 153.1333 109 153.1333 "/>
<path id="32" d="M308 83.1333 C308 83.1333 303.9888 69.2563 304 69.1333 C304.0021 69.1104 308.9533 72.1707 309 72.1333 C309.1006 72.0528 308.7219 65.467 309 65.1333 C309.1258 64.9824 313.8384 66.2949 314 66.1333 C314.2423 65.891 313.7425 60.348 314 60.1333 C314.2661 59.9116 319.577 61.5035 320 61.1333 C320.7428 60.4833 321.6792 53.3625 322 53.1333 C322.1188 53.0485 326.5062 56.2979 327 56.1333 C327.7407 55.8864 330.2317 50.2614 331 50.1333 C332.1269 49.9455 338 54.1333 339 54.1333 C339.25 54.1333 340.1542 50.6167 341 50.1333 C341.9868 49.5694 345.2688 50.7833 346 50.1333 C347.625 48.6889 348.5421 42.9183 350 42.1333 C351.4849 41.3338 356.6624 43.8526 359 43.1333 C360.4895 42.675 362.4441 38.1333 363 38.1333 C363.9729 38.1333 366.7923 42.1309 370 43.1333 C373.3716 44.1869 376.469 43.8236 379 43.1333 C379.7925 42.9172 380.7257 40.1333 381 40.1333 C381.6859 40.1333 383.6691 42.5954 386 43.1333 C389.2758 43.8893 394 43.1333 394 43.1333 "/>
</g>
</g>
</svg>
