<?xml version="1.0" encoding="utf-8"?>
<!DOCTYPE svg PUBLIC "-//W3C//DTD SVG 1.1//EN" "http://www.w3.org/Graphics/SVG/1.1/DTD/svg11.dtd">
<svg viewBox="0 0 800 800" preserveAspectRatio="xMinYMin meet" xmlns="http://www.w3.org/2000/svg" version="1.1">
<g fill="none" stroke="black" stroke-linecap="round" stroke-linejoin="round" stroke-width="0.90726">
<g transform="translate(143.7333,87.52) scale(3.3067) translate(-140,-207.7333)">
<path id="0" d="M193 253.7333 C193 253.7333 187.0208 254.4678 184 256.7333 C180.308 259.5024 180.1763 261.0445 177 265.7333 C169.7229 276.4757 169.0828 276.5816 163 287.7333 C160.2945 292.6935 160.2229 293.1622 159 298.7333 C155.7983 313.319 157.0963 315.5742 154 328.7333 C153.5326 330.7196 151.2004 330.9963 151 332.7333 C149.9854 341.5263 148.9873 345.4246 151 354.7333 C152.5305 361.8121 153.9119 364.8148 159 369.7333 C167.0355 377.501 169.6744 378.5424 181 383.7333 C192.8238 389.1526 194.2811 389.7766 207 391.7333 C219.144 393.6017 229.7691 391.9819 233 391.7333 C233.0191 391.7319 232.9449 389.7438 233 389.7333 C236.0913 389.1445 245.9094 390.2442 254 387.7333 C257.8066 386.552 258.9628 384.6638 262 380.7333 C267.0585 374.187 267.4083 373.4299 271 365.7333 C274.2426 358.785 275.0872 358.036 276 350.7333 C277.4605 339.0491 277.8279 337.5131 276 325.7333 C273.4851 309.526 273.3487 307.3629 267 292.7333 C262.5144 282.3969 261.1025 279.823 253 272.7333 C242.9362 263.9275 238.6669 263.5668 227 257.7333 C225.6069 257.0368 223.9649 258.2847 223 257.7333 C221.7249 257.0047 221.2732 254.0062 220 253.7333 C211.6066 251.9348 195 251.7333 195 251.7333 "/>
<path id="1" d="M195 251.7333 L194 237.7333 "/>
<path id="2" d="M198 253.7333 C198 253.7333 198.7352 246.3953 201 240.7333 C202.4354 237.1448 203.4827 234.6958 206 233.7333 C216.2621 229.8096 234.9937 227.7358 235 227.7333 C235.0021 227.7325 228.4416 225.7084 224 226.7333 C217.1473 228.3147 214.8431 229.6432 209 233.7333 C206.0931 235.7681 205.2941 237.1746 204 240.7333 C201.6386 247.2271 201 255.7333 201 255.7333 "/>
<path id="3" d="M205 253.7333 C205 253.7333 208.3469 247.4922 212 245.7333 C219.5431 242.1015 222.0184 242.0517 232 240.7333 C248.0708 238.6108 250.24 238.3643 265 238.7333 C268.1692 238.8126 272.0001 241.7334 272 241.7333 C271.9998 241.7331 266.4643 236.7005 261 234.7333 C255.0507 232.5916 253.2297 232.4625 247 232.7333 C242.9118 232.9111 240.9969 233.6586 238 235.7333 C235.794 237.2606 236.3351 240.0209 234 241.7333 C229.9229 244.7232 227.4306 243.8851 223 246.7333 C221.2634 247.8497 220 250.7333 220 250.7333 "/>
<path id="4" d="M207 249.7333 C207 249.7333 196.7272 244.4356 187 242.7333 C177.8342 241.1293 172.1573 241.2291 167 242.7333 C165.4421 243.1877 164.9593 247.9917 163 249.7333 C161.8713 250.7367 157.9999 250.7334 158 250.7333 C158.0003 250.7331 163.1737 247.7494 168 246.7333 C172.0063 245.8899 173.2813 245.5337 177 246.7333 C187.4231 250.0956 199 256.7333 199 256.7333 "/>
<path id="5" d="M203 253.7333 C203 253.7333 203.3645 245.969 201 242.7333 C195.7965 235.6128 189.1712 229.1877 184 227.7333 C180.7556 226.8208 168.9846 233.7015 169 233.7333 C169.4587 234.6835 198 256.7333 198 256.7333 "/>
<path id="6" d="M203 253.7333 C203 253.7333 204.7449 246.9884 206 245.7333 C206.5705 245.1629 209.4653 246.586 211 245.7333 C216.6956 242.5691 217.3266 238.3117 224 235.7333 C237.3377 230.5801 239.7333 231.2778 255 228.7333 C260.2207 227.8632 265.5848 228.964 266 228.7333 C266.0294 228.717 265.0116 224.3403 264 223.7333 C262.26 222.6893 258.1682 221.6119 256 222.7333 C247.5172 227.121 245.3985 233.0884 235 238.7333 C229.5255 241.7052 221 241.7333 221 241.7333 "/>
<path id="7" d="M210 245.7333 C210 245.7333 211.2411 236.0749 215 230.7333 C219.4355 224.4302 221.9381 222.9705 229 218.7333 C233.2638 216.1751 239.3289 216.2553 240 215.7333 C240.0559 215.6898 238.7496 211.9332 238 211.7333 C234.8225 210.886 230.2518 210.4829 225 211.7333 C221.2872 212.6173 219.4021 213.664 217 216.7333 C211.4909 223.7728 210.1384 225.8411 207 234.7333 C204.5647 241.6333 205 250.7333 205 250.7333 "/>
<path id="8" d="M205 242.7333 C205 242.7333 202.6112 233.4581 198 226.7333 C191.2035 216.8218 188.1961 212.2909 181 207.7333 C177.7779 205.6926 173.4552 206.8241 168 207.7333 C165.692 208.118 164.1468 209.5865 163 210.7333 C162.7133 211.02 162.8597 212.6794 163 212.7333 C168.3024 214.7727 180.5585 214.9576 189 220.7333 C195.5217 225.1955 196.3117 230.078 201 238.7333 C202.2518 241.0444 202 244.7333 202 244.7333 "/>
<path id="9" d="M195 248.7333 C195 248.7333 183.2563 243.4462 172 241.7333 C161.242 240.0962 157.2622 239.6678 149 241.7333 C145.0485 242.7212 139.929 249.7002 140 249.7333 C140.5632 249.9962 160.1878 251.8941 179 255.7333 C184.0586 256.7657 189 259.7333 189 259.7333 "/>
<path id="10" d="M190 290.7333 C190 290.7333 183.0811 289.9766 181 290.7333 C180.2012 291.0238 178.9812 294.7052 179 294.7333 C179.0117 294.7509 183 293.7333 183 293.7333 "/>
<path id="11" d="M189 287.7333 C189 287.7333 187.0406 287.6217 187 287.7333 C186.3457 289.5327 184.6952 298.4562 185 298.7333 C185.4607 299.1522 193.9524 298.8127 198 297.7333 C198.8543 297.5055 200 294.7333 200 294.7333 "/>
<path id="12" d="M216 287.7333 C216 287.7333 217.9661 287.6317 218 287.7333 C218.644 289.6654 219.9631 299.7333 220 299.7333 C220.2027 299.7333 231 287.7333 231 287.7333 "/>
<path id="13" d="M178 317.7333 C178 317.7333 176.9977 325.733 177 325.7333 C177.5352 325.8047 193 319.7333 193 319.7333 "/>
<path id="14" d="M179 304.7333 C179 304.7333 169.9 306.0333 169 306.7333 C168.775 306.9083 169.4635 311.1968 170 311.7333 C170.3577 312.091 173.0332 311.2499 174 311.7333 C174.846 312.1563 176 314.7333 176 314.7333 "/>
<path id="15" d="M167 347.7333 C167 347.7333 163.9491 347.1402 163 347.7333 C161.3094 348.7899 158.9828 352.7161 159 352.7333 C159.224 352.9573 170 354.7333 170 354.7333 "/>
<path id="16" d="M179 366.7333 C179 366.7333 178.9482 374.7074 179 374.7333 C179.0453 374.756 185 369.7333 185 369.7333 "/>
<path id="17" d="M206 381.7333 C206 381.7333 206 396.7332 206 396.7333 C206 396.7334 205.9249 391.6897 207 388.7333 C207.5258 387.2873 210 385.7333 210 385.7333 "/>
<path id="18" d="M229 373.7333 C229 373.7333 240.1681 382.9777 249 387.7333 C250.9243 388.7695 254.8015 388.0642 255 387.7333 C255.5515 386.8142 255 377.7333 255 377.7333 "/>
<path id="19" d="M270 359.7333 C270 359.7333 294.9293 355.7687 295 355.7333 C295.0183 355.7242 290.5091 352.8155 286 351.7333 C278.5392 349.9427 270 349.7333 270 349.7333 "/>
<path id="20" d="M260 348.7333 C260 348.7333 279.0011 341.7374 279 341.7333 C278.9939 341.711 257 337.7333 257 337.7333 "/>
<path id="21" d="M223 343.7333 C223 343.7333 231.6973 363.6265 232 363.7333 C232.0577 363.7537 240 349.7333 240 349.7333 "/>
<path id="22" d="M199 338.7333 C199 338.7333 198.651 348.4535 199 349.7333 C199.026 349.8285 201.6073 350.126 202 349.7333 C203.1781 348.5552 203.112 345.6213 205 343.7333 C207.3075 341.4258 212 339.7333 212 339.7333 "/>
<path id="23" d="M223 326.7333 C223 326.7333 228.5749 327.7124 231 329.7333 C233.2711 331.6259 233.5582 335.0512 235 336.7333 C235.237 337.0098 236.975 336.8165 237 336.7333 C237.4284 335.3054 238 326.7333 238 326.7333 "/>
<path id="24" d="M249 316.7333 C249 316.7333 264 316.7334 264 316.7333 C263.9999 316.7333 247 314.7333 247 314.7333 "/>
<path id="25" d="M247 306.7333 C247 306.7333 257.8801 304.3442 259 303.7333 C259.0523 303.7048 258.6891 301.1927 258 300.7333 C255.703 299.202 250 297.7333 250 297.7333 "/>
<path id="26" d="M262 321.7333 L251 326.7333 "/>
<path id="27" d="M253 284.7333 C253 284.7333 261.0154 279.7505 261 279.7333 C260.8575 279.5751 244 274.7333 244 274.7333 "/>
<path id="28" d="M277 297.7333 C277 297.7333 285.1315 296.6368 286 296.7333 C286.0217 296.7358 286.2806 298.5175 286 298.7333 C282.506 301.421 273 306.7333 273 306.7333 "/>
<path id="29" d="M168 287.7333 C168 287.7333 162.4659 286.5501 161 286.7333 C160.7335 286.7667 160.1346 287.7913 160 288.7333 C159.686 290.9315 159.2286 292.5211 160 293.7333 C161.613 296.2681 167 299.7333 167 299.7333 "/>
<path id="30" d="M156 308.7333 C156 308.7333 143.6538 310.3767 143 310.7333 C142.9916 310.7379 143.795 313.9918 145 314.7333 C148.6357 316.9707 156 318.7333 156 318.7333 "/>
<path id="31" d="M155 332.7333 C155 332.7333 151.0865 333.2159 149 334.7333 C146.3792 336.6394 145.4564 338.1119 144 340.7333 C143.5023 341.6293 143.5318 343.0779 144 343.7333 C145.1816 345.3876 149 347.7333 149 347.7333 "/>
<path id="32" d="M196 262.7333 C196 262.7333 197.6471 265.4628 199 265.7333 C207.4178 267.4169 220.9814 267.7426 221 267.7333 C221.0075 267.7296 214.6998 261.8733 209 260.7333 C197.005 258.3343 181 259.7333 181 259.7333 "/>
<path id="33" d="M194 266.7333 C194 266.7333 188.2907 266.3031 184 267.7333 C178.602 269.5327 172.9985 273.7334 173 273.7333 C173.0037 273.7331 201 266.7333 201 266.7333 "/>
<path id="34" d="M214 263.7333 C214 263.7333 226.5962 264.1324 237 266.7333 C241.4901 267.8559 246 271.7333 246 271.7333 C246 271.7333 234.477 262.2235 224 257.7333 C218.9753 255.5799 211 256.7333 211 256.7333 "/>
<path id="35" d="M210 365.7333 C210 365.7333 210.6073 374.537 211 374.7333 C211.6784 375.0725 217.9978 373.7345 222 371.7333 C223.6009 370.9329 225 367.7333 225 367.7333 "/>
</g>
</g>
</svg>
