<?xml version="1.0" encoding="utf-8"?>
<!DOCTYPE svg PUBLIC "-//W3C//DTD SVG 1.1//EN" "http://www.w3.org/Graphics/SVG/1.1/DTD/svg11.dtd">
<svg viewBox="0 0 800 800" preserveAspectRatio="xMinYMin meet" xmlns="http://www.w3.org/2000/svg" version="1.1">
<g fill="none" stroke="black" stroke-linecap="round" stroke-linejoin="round" stroke-width="2.1985">
<g transform="translate(221.2451,87.52) scale(1.3645) translate(-191,-17)">
<path id="0" d="M247,174C247,174 233.19260160541646,187.73035775241695 223,202C218.8713512484389,207.78010825218553 218.93335499460454,208.9915881445586 217,216C215.0794204789281,222.96210076388564 216.86974303032366,223.81625046244068 215,231C207.47977141289945,259.8935098346495 202.428158010408,260.77049268364896 198,289C194.79981858071355,309.4011565479512 194.66420992973457,313.7298219099314 199,333C202.90441694852055,350.35296421564686 206.80507232460565,351.671097842526 216,369C219.6304542181634,375.8420098726926 222.28068273143447,375.57252281975417 225,382C227.2401698322279,387.29494687617506 224.1526600871539,390.649897355374 227,395C239.78589485641444,414.5340060306332 244.20544774466683,415.89915229458137 261,437C263.6700558845654,440.3546855985565 264.6739290961585,440.8174298307804 266,444C266.72994728651826,445.7518734876438 265.2063833138167,448.24088838712896 266,449C272.5148715238505,455.23161624020485 277.2785866534841,458.41555606990147 289,466C293.9075813665344,469.1754938254046 296.17170163226706,470.23434032645343 300,471C301.14848951031984,471.22969790206394 304,469 304,469"/>
<path id="1" d="M250,172C250,172 259.6484888633029,167.7761873216906 267,162C273.0417591525729,157.2529035229784 273.60816062100303,150.58859703017484 278,150C308.0031218409808,145.9789630522397 343.6898663373008,143.66602550272546 364,149C368.75929027510704,150.2499146177049 371.9151489017158,163.48344345037728 377,176C377.78758584290943,177.93867284408483 376.07625987767664,179.77934340978697 377,181C386.8265976255805,193.98514686237425 394.56888640892987,196.0784157300418 405,213C415.9010358384988,230.68390258245355 419.0732323828447,234.12878828352458 422,254C427.9401074767282,294.3302033946284 424.77728089509884,298.8609103220155 424,342C423.79612695899754,353.31495377563686 421.0292600496299,353.5065961124663 420,365C418.0532845067703,386.7383230077315 424.490530092338,393.13425977428477 418,409C409.61365584417984,429.4999523808937 400.8027023362684,435.4971850663871 384,453C379.7379366725332,457.4396492994446 375.92996014224155,455.0466932385056 370,459C361.6541301701785,464.563913219881 361.2081837580181,471.32853709959 354,473C333.9766642444814,477.64309234910575 325.84210126849575,474.55639104877684 301,475C299.6031545751385,475.0249436683011 298.125,474.25 298,474C297.875,473.75 299,471 299,471"/>
<path id="2" d="M279,154C279,154 268.1688122651514,132.267115501082 259,110C250.7191582920592,89.88938442357234 253.43208313955188,88.083517049791 244,69C232.34201689826517,45.41291791044351 215.99537252173926,22.997516962884482 216,23C216.0092656682767,23.004971822002133 260.39137924095024,58.401567306193826 285,91C293.2048826173532,101.86880554506527 292.9997446342395,124.99957439039917 293,125C293.00016585611246,125.00027642685414 294.3029190012489,111.73448675405885 291,101C282.8459187156668,74.49923582591721 278.61837803968296,74.13756661196257 269,47C264.7779221345677,35.08770887967312 262.99663431154925,22.003365688450728 263,22C263.00123999048185,21.99876000951815 269.9921475711665,31.090845194010313 275,41C293.31915815558267,77.24854698870618 293.34495868383015,77.94253307152209 310,115C313.20128830707744,122.12286648324738 313.5949472740889,122.69372582526212 315,130C315.968301396652,135.03516726259045 314.9971007204148,141.00600565056936 315,141C315.0217491412144,140.9549482074844 330.03848207371317,106.56404780343155 343,72C346.4034174429087,62.92422015224359 346.82198866364723,62.42409069082231 348,53C349.74825886223055,39.01392910215542 350.7972129445723,33.242809429229034 349,24C348.4662086914867,21.254787556217412 343.2099023954339,17.92079266476414 341,17C340.3589596104848,16.732899837702007 337.9628149739594,17.631789247531372 337,19C329.8899817307613,29.103710172076034 326.16764516410364,31.3234126258514 322,44C314.90451258102263,65.5821075660562 315.32783817037165,68.20432092509003 313,92C310.9045832969392,113.41981518684358 312.92249503820494,134.91493053486948 313,136C313.0031454935793,136.0440369101108 316,134 316,134"/>
<path id="3" d="M332,115C332,115 331.14839503335326,108.4386949380582 333,105C337.0410940512947,97.4951110475956 338.6922469172067,95.83116049043723 346,89C361.2235384982918,74.76930096898809 361.827286413116,74.07456424077782 379,62C393.4215695105963,51.859833937861964 395.54551541685435,53.50952933101688 410,44C413.9154961309381,41.424015703330184 417.00098677106984,36.996710763100424 417,37C416.9966493158177,37.01116894727439 412.142487195746,52.55650448165422 404,64C394.5486673823383,77.28295394914617 391.2831676037024,75.95383745821912 380,89C359.3863925586229,112.8344836040923 360.1798228018526,114.87728637287722 340,138C336.87792123932337,141.57738191327533 331.99999864791954,144.00000114721976 332,144C332.00000721422554,143.99999387883895 351.8015715176387,125.3611800596821 373,110C385.78739382066925,100.73377259371793 386.76635986140127,101.40149287207133 401,94C411.6595542888184,88.45703176981443 412.0732875107869,86.73167812230328 423,84C436.71413914462465,80.57146521384383 453.0427217943363,80.91930327736484 453,81C452.8095486364636,81.35974146445764 425.13589942971293,109.02341496628006 396,135C383.85419936687344,145.82878610664295 382.7607521794372,146.22698287663692 370,155C367.6324390610478,156.62769814552962 364,157 364,157"/>
<path id="4" d="M281,156C281,156 294.54022598566456,165.72321807885316 298,166C299.4305582441297,166.11444465953036 303.4666910244707,162.22218162588214 306,158C308.84997259747047,153.25004567088257 309.99668463864714,145.9977897590981 310,146C310.010498644284,146.00699909618933 309.852643941377,156.98950252987967 312,162C313.0190842312109,164.3778632061588 317.20767795398404,167.2150786455219 319,167C324.3097540613222,166.36282951264133 329.49370215193045,163.5690508640423 337,159C339.83983511742553,157.27140471113228 340.83987586874485,155.9003103281379 342,153C343.3631458542248,149.59213536443798 342.99999489227343,143.99995913818753 343,144C343.0000097838143,144.000078270514 341.3120404721754,156.14711635750422 343,161C343.8720404721754,163.50711635750423 347.3560201511335,165.84926952141058 351,167C355.0510201511335,168.27926952141058 358.02700601974356,168.44472508372962 362,167C367.0237031320598,165.17319886106918 369.76596215917396,163.15804865249063 373,159C375.4092496666556,155.90239328572846 376,149 376,149"/>
<path id="5" d="M280,152C280,152 278.62066581491603,147.71000669496996 276,145C236.15740020922436,103.79912976181157 193.4542637047564,62.24895588761433 192,61C191.9213259990947,60.932432916869565 189.40867874325423,69.15237248792861 191,72C196.20877549391153,81.32096667331535 200.07042206132147,84.78711569664466 211,95C230.16886466605845,112.9118899338579 235.84549393475257,111.55313344953278 252,129C258.3603690889935,135.86919861611292 255.8876537848345,144.41651718640332 261,149C265.81778081224303,153.31938969373513 281,155 281,155"/>
<path id="6" d="M269,165C269,165 267.33859174987003,177.26307319304598 269,179C272.5653201889435,182.7273801975318 280.40986907926657,185.49181109772104 291,188C298.02159171189305,189.66300856334308 299.89335765940626,188.71066423405938 307,188C308.86549361440586,187.8134506385594 310.0372413041925,187.23783260889533 311,186C312.7580810966919,183.73961001853897 313.997204890413,178.99790366780974 314,179C314.01055930288424,179.00791947716317 313.60016720074446,187.2183946191293 315,189C316.5388890375922,190.95858604784462 320.1724229145784,192.03448458291567 325,193C329.4699787827978,193.89399575655955 333.18751493086546,194.20832337942303 335,193C337.1145659139903,191.59028939067312 339.90796373448273,182.98027794310343 340,183C340.37964959525874,183.0813534846983 344.20202747302733,191.92172335207323 349,196C352.44592540590554,198.9290365950197 354.5265153342892,199.08775255571487 360,200C371.88528098840066,201.98088016473343 374.75870184424565,202.3413766051918 385,202C387.0948109864043,201.93017296711986 389.4593033234444,200.35174169138912 390,199C391.340927757858,195.647680605355 391,187 391,187"/>
<path id="7" d="M239,187C239,187 239.17928750167576,201.20762222520136 243,208C246.10176122175784,213.51424217201395 251.1380636037302,216.55752650155423 257,219C260.022971684175,220.25957153507292 263.7619680508462,219.83019197126086 267,218C273.0629816331893,214.5730973377626 279.5885868953365,206.0548550806218 280,206C280.01878598651433,205.9974952017981 280.4918553395024,211.47556601850724 282,216C282.8483313715299,218.54499411458968 283.31552461036966,219.52608403407345 285,221C286.5417232379668,222.34900783322092 287.5070091765196,222.60112146824315 290,223C299.5221002881807,224.52353604610892 304.67029674514304,226.65404583771422 310,225C313.4140447895881,223.9404688584037 318.68503995776035,214.14316365556348 319,214C319.0163615606358,213.9925629269837 319.43506473738494,218.12207768486195 321,220C323.58554521649443,223.1026542597933 324.7609853407086,223.8804926703543 329,226C337.2853468340695,230.14267341703476 338.3124624553938,230.97290790625857 347,233C352.309870146109,234.2389697007588 356.33408893366606,234.59954663980036 359,233C362.37682068402296,230.97390758958622 366.34270691797866,221.07732859788487 367,221C367.5463748744302,220.9357206030082 371.8389422803763,228.91947114018814 376,231C380.0124485153515,233.00622425767574 384.81320246078434,233.55066575526507 389,232C394.99166334057844,229.7808654294154 397.9737527867828,226.61757041477213 403,221C405.28261338765793,218.44884386085292 406,213 406,213"/>
<path id="8" d="M220,229C220,229 225.50616850698668,243.1760108909044 232,248C239.01248543063912,253.20927489133191 246.6493208102679,255 255,255C259.71994910723987,255 265.14580699755345,250.63463969456606 268,248C268.67688371599524,247.37518426215826 267.99994214834106,242.99994214834103 268,243C268.0000809923225,243.00008099232255 267.78818298462823,246.8793202230994 269,249C271.2128832454615,252.87254567955765 272.10895549988834,253.92812276306972 276,257C281.12141430251853,261.0432218177778 282.6717492751576,262.6100215500411 288,264C292.1386098397361,265.07963734949635 295.94007575950826,264.8942388155425 299,263C303.58988636073763,260.15864177668623 307.8534897812703,251.11465102187296 309,251C309.9213028543364,250.90786971456637 313.7038840387476,258.0780049868952 319,261C326.61463783762286,265.2011794966195 330.9732594114372,267.6692133893869 338,267C347.13294706988915,266.1301955171534 353.28864777040564,256.6786936571002 361,257C369.7072833293575,257.36280347205655 378.23496787644705,267.3528719737918 386,269C387.95620721264424,269.41495304510635 390.84762158083066,266.9098877715409 394,264C396.8640511247331,261.3562605002463 398.82857500217864,257.04897857080607 399,257C399.0139938773732,256.996001749322 400.3271550266907,261.7757183422302 401,262C402.77386402054264,262.59128800684755 407.96339827446104,262.6870009586327 411,261C414.7398147567164,258.92232513515756 416.76864049179124,255.9048791393653 419,252C419.82207981881373,250.56136031707595 419,247 419,247"/>
<path id="9" d="M207,258C207,258 205.68829897778727,265.45427853353254 206,272C206.1585100761423,275.3287115989886 206.35975071781564,276.2662511963594 208,279C210.44037088324993,283.06728480541653 212.0969800090399,286.29623757794905 215,287C223.44335983811447,289.0468751122702 230.8424019217223,289.1962374223303 241,287C245.9732107015268,285.9247111996699 251.34790850974926,278.720532218464 252,279C253.48873717585548,279.6380302182238 256.6587790695438,289.7685755811344 262,296C264.26778095371327,298.6457444459988 266.49792591203305,299.740587104595 270,300C277.9578379945321,300.58946948107643 282.9790218714618,300.67599027935034 289,298C292.7673159240016,296.3256373671104 296.2419382092404,287.87871011347846 297,288C299.2789232584711,288.36462772135536 306.0652625305256,298.16061090186724 314,302C318.8340530852022,304.33905794445263 321.71629556205175,303.5712458579953 328,303C331.73736669185154,302.66023939164984 333.00900702355045,301.99399531763305 336,300C338.1933948493963,298.53773676706913 338.9749458502131,297.4601299594886 340,295C341.140372741638,292.26310542006894 340.9689011294658,287.98889326052347 341,288C341.35837746044194,288.1279919501578 348.2407585794269,297.44033714641193 354,300C358.3979661757104,301.95465163364906 363.00783163557906,301.8935811037459 368,300C374.8365655433942,297.40681996629877 380.32314413643695,289 383,289C385.1414846908504,289 389.33630444384664,297.9547766047224 395,300C403.766415730394,303.1656501248645 413.20607253905956,303.03462990373935 419,302C420.286566973955,301.77025589750803 422.12379621367324,298.2857641987254 423,295C423.86896243272076,291.74139087729713 423,287 423,287"/>
<path id="10" d="M196,305C196,305 202.09045617712576,317.5452280885629 207,320C212.7056860644214,322.85284303221067 220.75214227502903,323.21462319374114 228,321C234.53766495460468,319.00238015275965 240.74411211253596,308.436028028134 243,309C250.3316356342581,310.83290890856454 261.6700411262743,324.61173139098986 276,333C278.436613017409,334.4263100589711 282.2859958659874,334.14266942267505 284,333C286.9280903956049,331.0479397362634 290.6164393459791,322.91282712408616 291,323C292.49367370075447,323.339471295626 299.12669112303803,334.45248574092284 306,338C310.9916796383043,340.5763507810603 315.0344416596935,339.8358670008368 322,339C326.15828041977994,338.5010063496264 327.31289006315086,337.6026658377758 331,335C335.2557686833283,331.9959279882388 336.758297259713,330.3625541104305 339,327C339.6725108220861,325.99123376687083 338.99209609582186,322.99209609582186 339,323C339.0434714729796,323.0434714729796 342.88125245998543,330.6375025771276 348,336C352.84933977475066,341.0802607164054 356.60242826368113,344.8867476087894 360,345C364.8983961076467,345.1632798702549 374.4020980686167,339.9982516094861 378,337C378.85085518647577,336.2909540112702 377.9625289440032,329.98360641300144 378,330C378.2707092616908,330.11843530198973 386.2838076772959,339.8846974278911 394,344C398.9541462071907,346.64221131050175 403.28673065438164,347.1311846429484 408,346C412.5041005876767,344.9190158589576 417.3726383192215,341.40266533253685 419,338C420.84078616350353,334.15108347631076 419,323 419,323"/>
<path id="11" d="M211,348C211,348 213.7072187089846,354.1085312015273 217,358C218.5791910273237,359.86631666865526 219.72112817500164,360.7265353810002 222,361C230.5032530783521,362.02039036940226 236.13919031610592,362.95360322796466 242,361C244.93040484194702,360.02319838601766 248.68073820935118,351.88506575536644 249,352C251.07859804124556,352.7482952948484 260.6671439772814,366.9357148277168 267,370C269.7381189083735,371.3248962459872 274.1518895973804,369.3392441610479 280,367C286.09521365906835,364.5619145363727 288.8099171485983,363.1900828514017 292,360C293.17529368209534,358.82470631790465 292.9991964937911,353.9983929875822 293,354C293.0018991964938,354.00379839298756 293.0330052776764,361.574261874772 295,366C296.3226343822521,368.97592736006714 297.91714028300754,370.53969802879305 301,372C306.02799739557105,374.38168297684944 307.7781628713072,374.82717119086965 314,375C324.9113322044592,375.30309256123496 330.0829425228952,375.76682299084194 337,373C340.1969593381577,371.72121626473693 343.7372127665824,362.91240425552746 344,363C345.6483926459832,363.54946421532776 355.3133838168838,378.51210541988666 361,381C364.0290518362327,382.3252101783518 372.30097943402836,379.9944452200723 376,377C379.35133194880455,374.28701699382486 381.67892389189955,364 382,364C382.69566490088425,364 388.2581774741134,372.95490648446804 395,377C401.48252165950634,380.8895129957038 406.4960622883845,382.7101855111762 412,382C417.1022696734897,381.3416426227755 420.4476877099429,377.96785836478795 426,373C429.061059997621,370.2611568442339 431,365 431,365"/>
<path id="12" d="M222,390C222,390 229.76459467873178,398.45783056279765 237,401C245.70736457000757,404.059344308381 250.47252806933753,404.4618523309707 259,403C264.6587313735135,402.02993176454055 267.88718176214433,399.35474872243543 272,395C274.7944628027074,392.04115703242746 275.9887926321384,384.9966377896415 276,385C276.1109529418295,385.03328588254885 278.181350133305,394.3549251272457 282,398C286.90295785353436,402.6800961329191 290.21546988845625,403.9393890881208 298,406C305.847716232579,408.0773366498003 310.0350071028222,408.9241912571541 316,407C321.5840170734529,405.1987041698539 327.9331589105211,395.85452166961653 329,396C330.0120231678851,396.13800315925704 334.84608030810886,408.9486934360363 338,410C343.3078160668412,411.7692720222804 353.099283179225,410.608398711125 362,407C368.30586690089205,404.44356747261133 373.84939866789386,394.9476999394497 375,395C375.8860470112204,395.0402748641464 379.7875621397026,405.82115283088063 384,408C389.6350594183803,410.91468590605876 396.5527295903873,411.3963632018024 404,410C409.12296308431956,409.03944442169006 411.22186935915135,406.5126789385793 416,402C419.5428752763111,398.6539511279284 422,393 422,393"/>
<path id="13" d="M254,425C254,425 256.24072894637026,430.6652321853902 259,433C261.47071983233513,435.09060908889893 263.2452861079567,435.7218730450338 267,436C275.64260720195557,436.64019312607075 281.1531072171241,437.01953865953163 286,435C288.1842220695363,434.08990747102655 291,426 291,426"/>
<path id="14" d="M292,427C292,427 294.45457701984924,434 295,434C301.36326810175904,434 329.62265560206003,427.01217239993354 330,427C330.0449219521357,426.99855090476984 325.94665682370595,432.5732545896474 326,433C326.02545924323124,433.2036739458501 330.0717511338565,433.91704298949923 331,435C331.8649591707246,436.00911903251204 331.42289100654267,439.7114455032713 332,440C333.896215264217,440.94810763210853 337.51129836606566,440.73863325552696 343,441C347.9682213065785,441.23658196697994 348.8530288833267,441.82939422333464 353,441C355.32230382533703,440.53553923493257 355.7830883522095,439.72426461494814 358,438C360.1497325069483,436.32798582792907 360.96491600927834,436.07016798144326 362,434C363.5526259860825,430.8947480278351 363.9990024807461,425.99933498716404 364,426C364.00229429428395,426.00152952952265 363.57884618089343,433.51298081656347 365,436C366.0754677549996,437.88206857124925 368.9716523448921,439.84858261724463 372,440C385.83786636847924,440.691893318424 389.33666489210685,439.91016281803575 405,438C408.94169034630033,437.51930605532925 411.85431969343943,436.2888903448806 413,435C413.6798542478491,434.23516397116975 413.24233597556946,429.24233597556946 413,429C412.8384426829537,428.8384426829537 408,430 408,430"/>
<path id="15" d="M283,455C283,455 283.6780358007262,457.9831044620971 285,459C289.06604140079656,462.1277241544589 291.01780629052996,464.04188582510193 296,465C302.0700777789429,466.1673226497967 305.4306023348044,465.237643925599 311,464C312.3415337441712,463.70188139018415 313.4741599959769,462.44606001106353 314,461C315.07505067489165,458.0436106440479 314.99836257029653,453 315,453C315.00491228911045,453 316.2191113152449,458.4558733074927 318,461C318.8463629392896,462.2090899132708 320.1539631774005,462.87693087849334 322,463C333.6121671098999,463.7741444739933 337.93760509188627,465.5155987270284 348,463C354.38575061476444,461.4035623463089 361.5211952580244,453.03192031613173 362,453C362.0130583111448,452.9991294459237 362.24315739658635,461.14855207115965 363,462C363.47621557068726,462.53574251702315 370,462 370,462"/>
</g>
</g>
</svg>
