<?xml version="1.0" encoding="utf-8"?>
<!DOCTYPE svg PUBLIC "-//W3C//DTD SVG 1.1//EN" "http://www.w3.org/Graphics/SVG/1.1/DTD/svg11.dtd">
<svg viewBox="0 0 800 800" preserveAspectRatio="xMinYMin meet" xmlns="http://www.w3.org/2000/svg" version="1.1">
<g fill="none" stroke="black" stroke-linecap="round" stroke-linejoin="round" stroke-width="2.0113">
<g transform="translate(227.7258,87.52) scale(1.4916) translate(-217,-23)">
<path id="0" d="M237 163 C237 163 235.3826 185.7315 232 208 C229.4081 225.0633 226.3533 225.1805 225 242 C222.9248 267.7914 227.1159 269.0802 225 295 C223.1774 317.3267 218.7883 317.7736 217 340 C215.3576 360.413 214.8824 363.606 218 382 C219.3696 390.0807 221.5293 391.5755 227 399 C235.1024 409.9962 236.2081 410.5707 246 420 C249.1992 423.0808 249.7958 423.1314 254 425 C271.9594 432.982 272.9635 435.7561 291 440 C304.9004 443.2707 310.0551 445.1101 322 441 C350.5823 431.1652 355.5494 425.7354 384 408 C392.3902 402.7697 392.548 401.0004 399 393 C404.73 385.8948 408.6778 384.029 409 377 C413.3856 281.3145 410 153 410 153 "/>
<path id="1" d="M237 165 C237 165 237.6563 155.8592 240 150 C241.0127 147.4682 242.2469 146.5017 245 145 C252.4171 140.9543 254.1599 138.448 262 138 C285.8034 136.6398 315 141 315 141 "/>
<path id="2" d="M410 153 C410 153 401.2976 139.5744 395 138 C381.3131 134.5783 354 139 354 139 "/>
<path id="3" d="M317 142 C317 142 318.209 132.1456 316 124 C310.5513 103.9081 310.4757 101.6883 301 83 C293.0756 67.3714 291.0809 66.583 280 53 C276.2012 48.3434 273.4456 48.7588 270 45 C269.0132 43.9234 268.7545 41.7366 269 41 C269.2009 40.3973 270.6534 39.1795 272 39 C276.9467 38.3404 280.8414 36.982 284 39 C294.185 45.5071 300.0366 49.4861 308 62 C319.3303 79.8048 318.4439 84.8504 326 105 C326.7594 107.0251 325.9914 110.0106 326 110 C326.0721 109.9119 336.8605 96.6582 344 83 C347.8461 75.6423 345.2036 73.1711 349 66 C353.6148 57.2831 361.9665 49.0091 362 49 C362.011 48.997 362.1607 56.6722 360 63 C355.4237 76.4019 352.6452 76.3224 348 90 C343.8089 102.3406 341.9246 116.024 342 116 C342.3313 115.8946 366.5677 93.4194 392 76 C401.8083 69.282 403.7097 69.7634 415 66 C419.4304 64.5232 425.0153 64.9811 425 65 C424.9263 65.091 409.45 74.7321 398 87 C382.2158 103.9117 369.0066 124.9843 369 125 C368.9974 125.0061 377.8335 117.8888 387 113 C392.3096 110.1682 392.9867 109.8872 399 109 C422.7556 105.4951 447.9996 103.9999 448 104 C448.0003 104.0001 427.3294 107.0014 410 113 C402.7862 115.4971 403.2363 118.7108 396 122 C387.3092 125.9504 386.4408 125.9348 377 128 C370.8562 129.344 369.931 127.652 364 129 C359.5569 130.0098 356.6065 131.3935 355 133 C354.3821 133.6179 355 138 355 138 "/>
<path id="4" d="M314 140 C314 140 302.5152 135.7444 295 129 C284.1877 119.2967 285.9549 115.4888 275 105 C262.993 93.5039 247.9805 84.0681 248 84 C248.0138 83.9517 267.7307 81.2356 281 84 C287.8692 85.4311 291.7892 88.2733 296 94 C302.278 102.538 300.3016 107.944 306 118 C307.9144 121.3784 310.6711 120.8947 313 124 C314.5526 126.0702 314.9997 130.0001 315 130 C315.0009 129.9995 315 123 315 123 "/>
<path id="5" d="M322 86 C322 86 321.5371 79.1443 323 73 C328.8938 48.246 336.994 22.9962 337 23 C337.0151 23.0095 342 85 342 85 "/>
<path id="6" d="M271 137 C271 137 267.2771 169.2197 263 174 C260.6499 176.6266 237 175 237 175 "/>
<path id="7" d="M263 175 C263 175 261.2117 204.3361 257 210 C254.7478 213.0289 234 214 234 214 "/>
<path id="8" d="M256 209 L255 424 "/>
<path id="9" d="M217 386 C217 386 225.5352 385.2324 232 382 C243.5986 376.2007 245.2839 373.8822 255 367 C255.6983 366.5054 256.0229 365.0458 256 365 C255.9847 364.9694 254 365 254 365 "/>
<path id="10" d="M219 337 C219 337 237.011 335.7178 254 337 C262.8837 337.6705 272 341 272 341 "/>
<path id="11" d="M221 301 C221 301 233.4571 302.4643 244 301 C250.2773 300.1281 257 296 257 296 "/>
<path id="12" d="M226 274 C226 274 242.0478 266.1259 253 258 C255.5904 256.0781 257 251 257 251 "/>
<path id="13" d="M225 239 L258 231 "/>
<path id="14" d="M260 368 C260 368 260.4155 378.8107 263 388 C264.6972 394.0343 267.6844 394.2992 269 400 C270.3761 405.9629 270.8269 409.4328 269 414 C267.0426 418.8934 263.7675 420.5993 259 425 C258.072 425.8566 256.0584 426.0584 256 426 C255.8831 425.8831 256 422 256 422 "/>
<path id="15" d="M270 340 C270 340 270.6732 345.7412 269 348 C262.6688 356.5472 250 367 250 367 "/>
<path id="16" d="M270 343 C270 343 270.5275 337.8406 272 336 C273.3355 334.3306 275.867 334.9552 278 333 C281.2503 330.0206 282.4974 328.8638 284 325 C285.5107 321.1154 286.1801 316.2255 285 315 C279.3849 309.169 269.7892 306.8419 258 298 C254.96 295.72 253 291 253 291 "/>
<path id="17" d="M259 252 C259 252 273.3092 266.8621 281 277 C281.7379 277.9727 281.6001 280.4666 281 281 C276.1616 285.3008 271.6553 288.3117 263 293 C260.689 294.2518 257 294 257 294 "/>
<path id="18" d="M258 252 C258 252 269.614 246.9345 273 244 C273.669 243.4202 272.1987 240.4882 273 239 C274.8862 235.497 279.0778 233.7667 280 231 C280.5652 229.3043 279.5976 226.7958 278 224 C275.954 220.4194 275.3767 219.3637 272 217 C266.145 212.9015 258 210 258 210 "/>
<path id="19" d="M264 175 C264 175 269.5497 173.6644 273 175 C283.2149 178.9541 283.8773 182.3168 295 187 C302.2709 190.0614 311.005 190.9916 311 191 C310.9827 191.0288 298.7168 192.653 289 197 C280.7646 200.6843 280.6351 204.7278 273 208 C268.4189 209.9633 261 209 261 209 "/>
<path id="20" d="M309 143 L309 197 "/>
<path id="21" d="M310 190 C310 190 323.0484 187.4738 336 187 C363.7786 185.9837 364.4831 188.3933 392 187 C403.4011 186.4227 415 183 415 183 "/>
<path id="22" d="M317 141 C317 141 329.233 144.7225 341 147 C344.2736 147.6336 345.7121 147.9805 348 147 C351.1283 145.6593 355 141 355 141 "/>
<path id="23" d="M345 146 C345 146 334.4319 151.4961 328 159 C317.4357 171.3251 309.0216 187.9483 309 188 C308.9949 188.0123 313.5744 184.0326 318 183 C327.3446 180.8196 329.6554 183.1804 339 181 C343.4256 179.9674 344.8466 179.2702 348 176 C357.3037 166.3517 360.0361 164.0332 366 153 C368.748 147.9162 367.9129 139.0484 368 139 C368.0178 138.9901 372.9594 143.3622 375 148 C378.0001 154.8185 378.2315 156.1227 379 164 C380.1722 176.0152 378.9996 188.9986 379 189 C379.0002 189.0008 379.0958 180.8084 382 175 C388.9326 161.1348 400 147 400 147 "/>
<path id="24" d="M279 237 C279 237 291.3253 223.0603 299 211 C300.5133 208.6219 298.6516 206.547 300 204 C302.5494 199.1846 308 194 308 194 "/>
<path id="25" d="M277 283 C277 283 288.0198 270.5483 291 259 C295.157 242.8918 293 221 293 221 "/>
<path id="26" d="M292 250 C292 250 305.1446 246.6617 312 242 C314.9965 239.9624 315.5016 237.6313 317 233 C320.8019 221.2486 321.2396 220.3226 323 208 C324.1574 199.8984 323 191 323 191 "/>
<path id="27" d="M320 222 C320 222 323.2338 218.04 327 216 C334.6396 211.8619 336.8054 213.7379 344 209 C356.3754 200.8504 368 189 368 189 "/>
<path id="28" d="M354 201 C354 201 356.2407 206.6652 359 209 C361.4707 211.0906 363.076 211.4937 367 212 C377.8212 213.3963 380.4461 214.7599 390 213 C396.8982 211.7293 401.0807 209.3318 405 205 C408.0195 201.6627 409 192 409 192 "/>
<path id="29" d="M373 215 C373 215 386.7701 238.4703 396 246 C398.8671 248.3389 411 246 411 246 "/>
<path id="30" d="M315 227 C315 227 327.5223 235.3137 339 238 C348.9339 240.325 354.4155 240.4538 362 238 C366.8009 236.4468 368.4558 232.756 373 227 C375.5759 223.7372 377 219 377 219 "/>
<path id="31" d="M369 235 C369 235 367.572 246.8599 369 254 C369.5261 256.6306 371.0924 257.9539 374 260 C383.8204 266.9106 385.8634 268.882 396 273 C399.7156 274.5095 406 273 406 273 "/>
<path id="32" d="M400 271 C400 271 396.2209 273.9384 396 276 C395.0685 284.6939 395.5673 288.6132 397 299 C397.3971 301.8792 398.0367 303.0367 400 305 C403.2722 308.2722 409 311 409 311 "/>
<path id="33" d="M289 266 C289 266 298.5337 267.5838 306 266 C313.6793 264.3711 316.0938 263.6406 322 259 C328.5341 253.8661 330.4093 250.5829 334 244 C335.1666 241.8613 334 237 334 237 "/>
<path id="34" d="M322 260 C322 260 329.6616 268.6795 336 270 C349.3994 272.7915 355.571 272.1957 370 270 C375.5446 269.1563 382 263 382 263 "/>
<path id="35" d="M370 273 C370 273 366.4809 283.2611 368 289 C370.0534 296.7573 374.099 303.789 379 307 C383.0113 309.6281 395.0294 308.219 397 308 C397.0367 307.9959 397 305 397 305 "/>
<path id="36" d="M285 311 C285 311 292.256 301.1895 301 294 C314.2554 283.1011 322.473 281.527 330 274 C331.3825 272.6175 330 265 330 265 "/>
<path id="37" d="M315 285 C315 285 320.3274 291.4382 326 294 C334.3814 297.7852 336.0357 297.3842 346 299 C354.2173 300.3325 355.6891 300.6357 363 300 C365.7064 299.7647 369.0026 296.9952 369 297 C368.9905 297.0176 359.4308 305.8745 356 313 C354.3046 316.5212 354.6808 320.7962 356 324 C357.0653 326.587 359.9352 329.3433 363 330 C370.7677 331.6645 375.8206 332.2721 384 330 C390.9244 328.0766 394.4555 325.2621 399 320 C402.0597 316.4572 403.0003 307.9997 403 308 C402.9995 308.0004 395.4103 316.9487 394 324 C392.5263 331.3683 394.6045 340.7904 396 343 C396.435 343.6887 401.853 343.8294 406 343 C408.3223 342.5355 411 340 411 340 "/>
<path id="38" d="M323 297 C323 297 322.3649 312.918 325 318 C326.4615 320.8186 331.312 322.9335 337 324 C345.6674 325.6251 348.672 324.7242 357 324 C358.3216 323.8851 360 322 360 322 "/>
<path id="39" d="M325 290 L325 304 "/>
<path id="40" d="M323 304 C323 304 310.6112 319.9541 301 325 C295.7615 327.7502 283 325 283 325 "/>
<path id="41" d="M260 370 L259 362 "/>
<path id="42" d="M259 379 C259 379 273.9737 380.1268 284 378 C287.6876 377.2178 288.8598 375.1402 292 372 C293.3458 370.6542 293.9648 369.7928 294 368 C294.4089 347.1479 293 321 293 321 "/>
<path id="43" d="M294 351 C294 351 305.1706 352.898 313 351 C319.5682 349.4077 321.2709 347.6875 327 343 C331.5123 339.3081 332.4488 338.1023 335 333 C337.4601 328.0799 338 321 338 321 "/>
<path id="44" d="M332 338 C332 338 334.5216 345.6304 336 346 C342.8993 347.7248 352.5536 347.8562 364 346 C368.077 345.3389 370.5969 343.0584 373 340 C374.7596 337.7605 374.9993 331.9974 375 332 C375.0022 332.0082 375.2119 345.3441 377 355 C377.3486 356.8822 378.3642 358.1821 380 359 C384.9073 361.4536 386.769 362.4158 393 363 C401.8079 363.8257 412 362 412 362 C412 362 407.2758 361.244 404 362 C401.6691 362.5379 401.1435 363.1781 399 365 C391.363 371.4914 386.6901 372.512 384 379 C380.2974 387.9298 382.0102 405.9591 382 406 C381.9977 406.0093 379 399 379 399 "/>
<path id="45" d="M383 386 C383 386 375.5304 385.8556 373 384 C370.4402 382.1228 368.2116 378.8094 368 375 C367.3879 363.9824 371.2861 356.8676 371 348 C370.9561 346.639 367.1129 344.2821 367 344 C366.996 343.9899 369.0016 342.9835 369 343 C368.9845 343.1553 368.4136 349.3584 366 354 C362.3104 361.0954 359.9584 365.9416 356 368 C352.683 369.7248 346.4806 368.4423 341 367 C339.1857 366.5226 337.6083 364.9262 337 363 C335.1935 357.2793 335.005 348.003 335 348 C334.9981 347.9989 334.1228 354.8446 332 360 C330.9339 362.5892 330.3449 363.3251 328 365 C320.5228 370.3409 318.9535 372.6607 311 375 C304.2196 376.9942 294.4442 374.8413 294 375 C293.9683 375.0113 296.7265 377.7211 297 380 C298.0204 388.5033 299.4545 394.5651 297 400 C294.8741 404.7073 289.3405 408.6752 283 411 C277.3745 413.0627 267.0018 411.0011 267 411 C266.999 410.9994 278 408 278 408 "/>
<path id="46" d="M298 398 C298 398 294.8218 400.74 294 403 C293.2361 405.1008 293.0794 406.7495 294 409 C297.02 416.3822 300.9488 417.4791 303 425 C304.8895 431.9281 303 442 303 442 "/>
<path id="47" d="M301 419 C301 419 306.423 417.4181 308 415 C312.4588 408.1631 311.3646 404.6086 316 396 C318.0347 392.2213 321.2893 392.0798 322 389 C323.6105 382.0211 322 370 322 370 "/>
<path id="48" d="M322 389 C322 389 333.6938 391.273 337 389 C344.0808 384.1319 353.9992 367.0009 354 367 C354.0003 366.9997 350.6047 371.2208 350 375 C348.8102 382.436 348.1608 390.0842 350 392 C353.3582 395.4981 362.3845 397.0961 374 400 C377.574 400.8935 380.0041 400.4435 382 400 C382.3604 399.9199 383.005 398 383 398 C382.98 398 379 400 379 400 "/>
<path id="49" d="M314 405 C314 405 332.2055 403.5248 337 405 C338.1385 405.3503 339.5365 409.1375 340 413 C340.9425 420.8543 341.3383 424.1115 340 430 C339.5169 432.1255 335.0889 435.0148 335 435 C334.9573 434.9929 334 429 334 429 "/>
<path id="50" d="M340 417 C340 417 339.5467 411.6063 341 410 C346.568 403.8459 359 396 359 396 "/>
</g>
</g>
</svg>
