<?xml version="1.0" encoding="utf-8"?>
<!DOCTYPE svg PUBLIC "-//W3C//DTD SVG 1.1//EN" "http://www.w3.org/Graphics/SVG/1.1/DTD/svg11.dtd">
<svg viewBox="0 0 800 800" preserveAspectRatio="xMinYMin meet" xmlns="http://www.w3.org/2000/svg" version="1.1">
<g fill="none" stroke="black" stroke-linecap="round" stroke-linejoin="round" stroke-width="1.5985">
<g transform="translate(87.52,175.7276) scale(1.8768) translate(-141,-133.1333)">
<path id="0" d="M262 202.1333 C262 202.1333 241.1136 191.7683 221 188.1333 C201.5099 184.611 197.1779 184.4946 179 187.1333 C169.6834 188.4857 167.426 191.1536 159 197.1333 C152.9313 201.4401 151.4538 202.8352 148 209.1333 C143.7306 216.9187 143.782 218.7144 142 228.1333 C140.3903 236.642 139.4166 239.1211 141 246.1333 C142.319 251.9747 144.0634 255.1566 149 259.1333 C159.9274 267.9359 162.8979 270.0473 177 275.1333 C191.6839 280.4292 193.633 279.7881 210 281.1333 C229.5467 282.7399 232.6223 283.4285 250 281.1333 C256.0494 280.3344 262.736 275.9374 263 274.1333 C263.9779 267.451 258.2628 256.9428 256 240.1333 C254.8343 231.4742 253.9395 229.3449 256 222.1333 C258.273 214.1777 260.5521 209.3101 266 205.1333 C271.8185 200.6725 276.2275 200.1106 286 199.1333 C304.9757 197.2358 313.5758 196.9726 326 199.1333 C328.2958 199.5326 331.5034 203.5333 332 207.1333 C334.828 227.6365 334.7564 235.1974 334 257.1333 C333.8767 260.7085 332.5454 263.194 330 265.1333 C324.1769 269.57 321.4912 270.3029 313 273.1333 C307.0993 275.1002 306.4612 274.7295 300 275.1333 C290.6467 275.7179 290.3533 275.7179 281 275.1333 C274.5388 274.7295 270.0635 273.7683 268 273.1333 C267.9067 273.1046 268 271.1333 268 271.1333 "/>
<path id="1" d="M332 200.1333 C332 200.1333 333.1866 193.6969 336 190.1333 C339.7812 185.3439 342.0314 182.0757 347 181.1333 C365.5261 177.6198 376.7506 177.5652 394 179.1333 C397.1819 179.4226 398.8881 182.3033 402 186.1333 C405.011 189.8392 405.832 190.5586 407 195.1333 C411.5221 212.845 411.468 214.3239 414 233.1333 C414.9103 239.8954 415.2505 240.7021 414 247.1333 C411.9133 257.8648 411.2982 259.8757 407 269.1333 C405.5045 272.3545 404.3118 273.2015 401 275.1333 C393.0983 279.7427 391.6149 281.667 383 283.1333 C370.0966 285.3296 365.6992 284.7582 354 283.1333 C350.8959 282.7022 349.098 281.0706 347 278.1333 C342.4443 271.7553 339 262.1333 339 262.1333 "/>
<path id="2" d="M406 192.1333 C406 192.1333 407.848 203.5525 412 212.1333 C414.7836 217.8861 416.1953 218.6289 421 223.1333 C423.6744 225.6406 425.0584 226.8659 428 227.1333 C433.9195 227.6715 437.5508 227.6484 443 225.1333 C448.3439 222.6669 449.7362 220.3108 454 215.1333 C456.1188 212.5606 456.4356 211.614 457 208.1333 C459.2985 193.9592 460.6208 191.4798 460 178.1333 C459.7249 172.2189 458.4189 168.7232 455 165.1333 C450.7103 160.6292 447.0759 158.623 440 157.1333 C430.2455 155.0797 422.9859 154.9385 417 157.1333 C414.1285 158.1862 411.5089 162.7013 410 168.1333 C406.9887 178.974 407 193.1333 407 193.1333 "/>
<path id="3" d="M211 250.1333 C211 250.1333 189.4083 266.0952 178 279.1333 C175.4867 282.0057 175.0923 285.7085 176 290.1333 C178.5757 302.69 181.8887 304.0373 186 318.1333 C188.8148 327.784 191.4121 335.4033 190 338.1333 C188.5173 340.9999 174.1308 344.1765 171 347.1333 C170.2537 347.8382 171.3992 354.8663 172 355.1333 C174.242 356.1298 182.6179 357.3215 189 355.1333 C197.3021 352.2869 202.4101 349.0346 207 343.1333 C210.0599 339.1991 211.1713 334.1071 210 328.1333 C206.8669 312.1545 202.0961 309.3815 197 292.1333 C195.9767 288.6699 195.5673 286.2538 197 284.1333 C205.2188 271.9695 213.0918 266.8922 222 255.1333 C222.7433 254.1522 222.5236 251.6569 222 251.1333 C220.4292 249.5625 214 247.1333 214 247.1333 "/>
<path id="4" d="M298 250.1333 C298 250.1333 283.7938 249.8544 283 251.1333 C280.7009 254.8374 284.261 267.8416 280 279.1333 C275.405 291.31 265.4139 293.2709 263 304.1333 C259.8685 318.2251 269.4494 331.2101 266 342.1333 C263.6138 349.6896 250.5253 353.24 245 361.1333 C243.1965 363.7098 244.447 371.7647 245 372.1333 C246.0809 372.8539 255.776 373.8789 260 371.1333 C271.1336 363.8965 277.5602 357.7063 285 346.1333 C288.3123 340.9808 287.1836 337.3968 287 329.1333 C286.696 315.4547 281.8319 312.8774 284 301.1333 C287.1416 284.1163 292.8841 282.481 299 264.1333 C301.1357 257.7262 301 250.1333 301 250.1333 "/>
<path id="5" d="M375 253.1333 C375 253.1333 370.1374 252.0646 368 253.1333 C364.0305 255.1181 359.6109 259.1786 359 261.1333 C358.6187 262.3536 362.5151 265.3755 363 269.1333 C364.3095 279.2823 365.8216 282.3247 363 292.1333 C356.1249 316.0326 348.8751 318.234 342 342.1333 C339.1784 351.9419 340.3377 357.0989 342 365.1333 C342.5234 367.6629 346.115 370.505 348 371.1333 C349.2567 371.5522 352.4173 370.5402 354 369.1333 C355.6958 367.626 356.3381 366.1589 357 363.1333 C359.6723 350.9173 357.1932 349.2587 361 337.1333 C370.3887 307.2286 375.1329 306.3209 384 277.1333 C386.5552 268.7223 386.4496 262.482 385 258.1333 C384.3788 256.2696 376 253.1333 376 253.1333 "/>
<path id="6" d="M229 284.1333 C229 284.1333 228.0367 293.4271 229 301.1333 C229.4179 304.4765 230.138 305.4734 232 308.1333 C233.1868 309.8287 234.2469 310.8943 236 311.1333 C243.1569 312.1093 251.734 312.2067 254 311.1333 C254.6626 310.8195 255.5887 303.4285 255 302.1333 C254.6743 301.4169 249.7364 301.422 249 300.1333 C245.9575 294.8089 243 281.1333 243 281.1333 "/>
<path id="7" d="M305 276.1333 C305 276.1333 303.9437 287.4504 306 294.1333 C307.1405 297.8398 309.7165 300.395 313 302.1333 C316.0773 303.7625 321.733 303.913 323 303.1333 C324.1527 302.424 326.4229 296.2479 326 294.1333 C325.6375 292.3208 321.1719 291.1283 320 288.1333 C317.4486 281.6131 317 271.1333 317 271.1333 "/>
<path id="8" d="M391 282.1333 C391 282.1333 391.7696 296.4732 395 307.1333 C396.21 311.1263 397.6037 311.9634 401 315.1333 C404.6822 318.57 405.8985 319.3756 410 321.1333 C411.7722 321.8929 414.7849 321.5021 415 321.1333 C415.9712 319.4684 418.3176 312.4872 417 309.1333 C414.52 302.8207 407.9721 301.0775 404 293.1333 C400.9106 286.9545 401 277.1333 401 277.1333 "/>
<path id="9" d="M442 182.1333 C442 182.1333 441.85 185.0583 442 185.1333 C442.6 185.4333 447.7376 185.3432 448 185.1333 C448.0962 185.0564 447.4899 181.4599 447 181.1333 C446.332 180.688 442 181.1333 442 181.1333 "/>
<path id="10" d="M438 200.1333 C438 200.1333 437.577 202.6257 438 203.1333 C439.0105 204.346 440.8463 205.8462 443 206.1333 C446.9351 206.658 453 205.1333 453 205.1333 "/>
<path id="11" d="M426 162.1333 L410 138.1333 "/>
<path id="12" d="M410 141.1333 C410 141.1333 413.0372 133.1643 413 133.1333 C412.9341 133.0784 405.4114 134.8788 404 136.1333 C403.4623 136.6113 403.7243 140.6738 404 141.1333 C404.0993 141.2988 407 141.1333 407 141.1333 "/>
<path id="13" d="M446 158.1333 C446 158.1333 450.1058 139.4487 453 137.1333 C455.0916 135.46 471 138.1333 471 138.1333 "/>
<path id="14" d="M471 138.1333 C471 138.1333 470.8597 142.9463 471 143.1333 C471.0351 143.1801 473.8487 142.5368 474 142.1333 C474.4984 140.8043 474.0802 135.374 474 135.1333 C473.9962 135.1219 472 136.1333 472 136.1333 "/>
</g>
</g>
</svg>
