<?xml version="1.0" encoding="utf-8"?>
<!DOCTYPE svg PUBLIC "-//W3C//DTD SVG 1.1//EN" "http://www.w3.org/Graphics/SVG/1.1/DTD/svg11.dtd">
<svg viewBox="0 0 800 800" preserveAspectRatio="xMinYMin meet" xmlns="http://www.w3.org/2000/svg" version="1.1">
<g fill="none" stroke="black" stroke-linecap="round" stroke-linejoin="round" stroke-width="1.8577">
<g transform="translate(87.52,282.9209) scale(1.6149) translate(-148,-121)">
<path id="0" d="M163 176 C163 176 154.7193 183.6191 152 191 C148.5596 200.3383 147.9532 207.9288 149 214 C149.3436 215.9927 153.2722 219.1002 157 220 C165.3806 222.0229 169.6879 222.7113 178 221 C183.8549 219.7946 186.1698 217.576 191 213 C194.6319 209.5593 195.3383 207.9851 197 203 C199.031 196.9071 200.28 192.84 199 189 C197.72 185.16 194.3163 182.9872 189 179 C184.8229 175.8672 183.8747 175.0833 179 174 C171.4442 172.3209 167.7203 172.1828 162 173 C160.4487 173.2216 158.9451 174.9523 158 177 C156.3958 180.4758 156 186 156 186 "/>
<path id="1" d="M194 179 C194 179 213.6602 173.3272 233 172 C263.8611 169.8821 265.7107 169.4222 296 172 C311.2316 173.2963 312.6588 174.2635 327 180 C344.2765 186.9106 361 198 361 198 "/>
<path id="2" d="M194 208 C194 208 214.8844 219.3461 236 228 C244.8545 231.6289 245.5996 232.1975 255 233 C285.5674 235.6094 287.6971 236.6292 318 235 C332.636 234.2131 333.4557 232.3323 348 228 C356.6514 225.423 357.5567 225.5111 365 221 C373.367 215.9291 379.7199 209.5755 381 208 C381.0277 207.9659 379.2687 205.2719 378 205 C374.1689 204.179 367 205 367 205 "/>
<path id="3" d="M451 159 C451 159 437.2585 156.2644 427 159 C409.7885 163.5897 407.1246 165.7859 391 175 C383.9072 179.053 381.3213 180.9435 378 187 C374.3202 193.7101 374.5614 197.0177 374 206 C373.6245 212.0077 373.428 214.7637 376 219 C380.3621 226.1846 383.1463 228.846 391 234 C397.6188 238.3436 399.7276 239.1844 408 240 C433.4398 242.5082 435.5103 242.0188 462 241 C473.8571 240.544 474.735 240.4197 486 237 C502.0598 232.1247 504.4373 231.1383 518 224 C521.3815 222.2203 521.9792 220.8038 524 217 C530.1181 205.4835 531.5481 203.9247 535 192 C536.5922 186.4997 536.2504 183.7517 535 179 C534.2963 176.326 532.8473 174.627 530 173 C520.2999 167.4571 518.6754 166.081 507 163 C483.6049 156.8263 482.0872 156.6397 458 154 C446.4878 152.7384 444.813 152.9543 434 155 C427.6813 156.1954 425.9884 157.3243 421 161 C417.594 163.5097 415 169 415 169 "/>
<path id="4" d="M177 183 C177 183 178.3044 172.6202 177 163 C174.3856 143.7188 173.2383 140.1828 169 124 C168.6096 122.5092 166.0114 120.9848 166 121 C165.7982 121.2691 162.7328 131.5102 163 132 C163.1401 132.2568 172 132 172 132 "/>
<path id="5" d="M187 187 C187 187 194.0948 163.4708 204 143 C208.6069 133.479 216.9218 125.0481 217 125 C217.02 124.9877 218.0939 132.4475 217 135 C216.2811 136.6774 211 139 211 139 "/>
<path id="6" d="M165 180 C165 180 165.9491 186.7346 165 188 C163.7247 189.7004 156.0002 192.0004 156 192 C155.9981 191.9961 160.8341 187.4035 163 184 C163.5217 183.1802 163.0061 180.9939 163 181 C162.9653 181.0347 156.0004 190.9999 156 191 C155.9997 191.0001 160 182 160 182 C160 182 153.8991 198.7814 154 199 C154.0109 199.0236 161.9037 197.4578 166 195 C167.7068 193.9759 168.5655 192.3175 169 190 C169.8593 185.417 169.7797 180.3366 169 179 C168.6397 178.3823 162.0637 177.8408 162 178 C161.2431 179.8921 161.406 196.1578 161 199 C160.9945 199.0384 159 199 159 199 "/>
<path id="7" d="M184 191 C184 191 185.9983 189.9726 186 190 C186.0331 190.5294 184.9994 206.9977 185 207 C185.0003 207.0011 186.4603 200.1995 188 198 C188.5271 197.247 191.6283 196.7522 192 197 C192.5947 197.3965 193.9987 202 194 202 C194 202 194.2757 197.4596 194 197 C193.9007 196.8346 191.1158 196.7684 191 197 C189.9579 199.0843 187.8875 207.5375 188 209 C188.0125 209.1625 191.915 210.1189 192 210 C192.3987 209.4419 193.2547 204.5468 193 202 C192.9291 201.2908 191 200 191 200 "/>
<path id="8" d="M160 214 C160 214 155.7036 214.4384 154 216 C150.9009 218.8408 148 225 148 225 "/>
<path id="9" d="M167 216 C167 216 161.377 224.0574 161 225 C160.9934 225.0165 163 226 163 226 "/>
<path id="10" d="M175 217 L175 234 "/>
<path id="11" d="M245 232 C245 232 239.5694 235.9634 239 239 C237.2481 248.3433 237.9224 261.306 239 264 C239.1724 264.431 248.93 264.1681 249 264 C249.1667 263.6 245.2667 257.9115 244 252 C242.4287 244.6672 241.7864 240.2475 243 236 C243.5406 234.1079 250 231 250 231 "/>
<path id="12" d="M279 233 C279 233 279.9998 264.9973 280 265 C280 265.0004 280.0347 261.287 281 260 C282.1331 258.4892 285.8947 257.9128 286 257 C286.6704 251.1897 284 234 284 234 "/>
<path id="13" d="M339 236 C339 236 337.6854 249.1406 339 259 C339.4306 262.2293 342.9994 266.0095 343 266 C343.0035 265.9482 341 229 341 229 "/>
<path id="14" d="M251 193 L294 193 "/>
<path id="15" d="M259 215 L331 215 "/>
<path id="16" d="M405 192 C405 192 416.0248 196.3115 427 198 C441.5108 200.2324 442.0415 199.8425 457 200 C489.3822 200.3409 522 199 522 199 "/>
<path id="17" d="M442 214 L503 214 "/>
<path id="18" d="M359 194 L372 203 "/>
</g>
</g>
</svg>
