<?xml version="1.0" encoding="utf-8"?>
<!DOCTYPE svg PUBLIC "-//W3C//DTD SVG 1.1//EN" "http://www.w3.org/Graphics/SVG/1.1/DTD/svg11.dtd">
<svg viewBox="0 0 800 800" preserveAspectRatio="xMinYMin meet" xmlns="http://www.w3.org/2000/svg" version="1.1">
<g fill="none" stroke="black" stroke-linecap="round" stroke-linejoin="round" stroke-width="1.4785">
<g transform="translate(87.52,252.8909) scale(2.0291) translate(-97,-198)">
<path id="0" d="M174 218 C174 218 164.8868 217.5395 157 219 C152.0707 219.9128 150.8 220.2556 147 223 C142.725 226.0875 141.1025 228.0577 139 232 C138.0491 233.7829 137.9492 236.3888 139 238 C143.6904 245.1919 147.4997 252.0134 154 255 C160.2693 257.8805 166.4287 256.689 176 255 C181.6813 253.9974 186.2285 251.9103 188 249 C190.4256 245.015 191.6972 236.4744 190 232 C188.2308 227.3356 177 220 177 220 "/>
<path id="1" d="M139 233 C139 233 125.6936 228.846 116 230 C107.4583 231.0169 97 238 97 238 "/>
<path id="2" d="M145 250 C145 250 138.9195 257.6978 134 259 C125.545 261.2381 118.3373 260.3588 111 259 C109.4286 258.709 107 254 107 254 "/>
<path id="3" d="M191 229 C191 229 190.4048 221.5523 192 219 C193.7453 216.2075 196.4816 214.8074 201 213 C205.677 211.1292 206.6335 211 212 211 C235.4173 211 254.768 210.275 260 213 C261.278 213.6656 262.4984 227.8235 260 236 C258.2228 241.8164 254.2125 246.8053 249 249 C240.0571 252.7654 235.1466 252 222 252 C209.8272 252 203.5107 250.9291 197 249 C196.1244 248.7406 195 244 195 244 "/>
<path id="4" d="M264 228 C264 228 264.9456 224.0544 267 222 C273.6199 215.3801 274.5662 214.0147 283 209 C292.3656 203.4313 293.8856 201.147 304 200 C339.0121 196.0296 346.3549 197.5897 380 198 C382.6732 198.0326 383.6813 198.9711 386 201 C395.0734 208.9392 400.0115 210.813 404 219 C407.2015 225.5715 406.556 231.7011 405 240 C404.0795 244.9095 402.1095 246.4579 398 251 C393.055 256.4655 392.2914 257.6446 386 261 C378.3051 265.104 376.7433 266.1109 368 267 C348.7377 268.9589 345.7124 269.2584 327 267 C318.8556 266.0171 318.5084 262.4702 310 260 C303.4817 258.1076 302.0579 259.8174 296 258 C293.0126 257.1038 292.9146 254.8572 290 254 C285.4131 252.6509 282.6488 254.9037 279 253 C273.3823 250.069 270.994 247.991 267 242 C261.8849 234.3274 261.3039 227.3774 259 223 C258.8955 222.8015 257 223 257 223 "/>
<path id="5" d="M207 251 C207 251 212.5831 259.4473 215 267 C216.172 270.6624 216.1251 273.7497 215 276 C213.9374 278.1253 211.6975 279.521 208 281 C195.0178 286.1929 190.7183 284.6408 180 290 C176.7021 291.649 177.5365 295.4739 174 298 C164.7706 304.5924 156.5527 304.1726 152 310 C148.5148 314.461 148.9992 329.9966 149 330 C149.0004 330.0017 154 319 154 319 "/>
<path id="6" d="M239 253 C239 253 238.1615 259.7102 240 264 C243.4931 272.1506 246.7093 272.4187 251 281 C253.3837 285.7674 254 291.2534 254 292 C254 292 251.4158 291.6882 251 292 C250.5496 292.3378 250.341 294.9407 250 295 C245.0314 295.8641 238.1238 294.0847 228 296 C220.6384 297.3927 219.0404 298.3758 213 302 C210.2071 303.6757 210.0446 306.4666 208 308 C207.3544 308.4842 205.0101 307.9367 205 308 C204.4694 311.3165 203.9972 332.985 204 333 C204.0009 333.005 208 324 208 324 "/>
<path id="7" d="M256 247 C256 247 256.5443 253.8839 259 259 C262.1647 265.5931 265.3518 266.1151 268 272 C269.0872 274.4161 266.7618 277.3115 268 279 C274.9224 288.4396 285.2009 295.0413 290 302 C290.5809 302.8423 288.7134 307.8217 288 308 C283.516 309.121 274.5343 306.7357 266 308 C263.8305 308.3214 261.5576 310.1679 261 312 C259.0199 318.5061 260.5039 321.6757 259 331 C258.0284 337.0242 256.0006 342.9988 256 343 C255.9997 343.0005 256 337 256 337 "/>
<path id="8" d="M201 252 C201 252 199.9908 267.2392 197 270 C193.0048 273.6879 175 276 175 276 "/>
<path id="9" d="M232 254 C232 254 231.8311 263.1689 231 264 C230.32 264.68 224.531 263.3097 222 264 C221.2075 264.2161 220 267 220 267 "/>
<path id="10" d="M251 247 C251 247 251.4861 258.8683 251 263 C250.9625 263.319 249 264 249 264 "/>
<path id="11" d="M153 244 C153 244 151.0373 247 151 247 C150.9814 247 150 244 150 244 "/>
<path id="12" d="M147 230 C147 230 147.9992 232.0017 148 232 C148.0022 231.9955 148 228 148 228 C148 228 148 232 148 232 "/>
</g>
</g>
</svg>
