<?xml version="1.0" encoding="utf-8"?>
<!DOCTYPE svg PUBLIC "-//W3C//DTD SVG 1.1//EN" "http://www.w3.org/Graphics/SVG/1.1/DTD/svg11.dtd">
<svg viewBox="0 0 800 800" preserveAspectRatio="xMinYMin meet" xmlns="http://www.w3.org/2000/svg" version="1.1">
<g fill="none" stroke="black" stroke-linecap="round" stroke-linejoin="round" stroke-width="1.0849">
<g transform="translate(87.52,166.3313) scale(2.7653) translate(-177,-122)">
<path id="0" d="M233 184 C233 184 246.7414 174.6515 258 171 C262.4993 169.5408 267.3804 169.832 270 172 C277.3589 178.0901 284.6548 194.464 287 195 C288.5354 195.3509 295.8333 186.0058 305 180 C309.4868 177.0604 310.7255 176.3459 316 176 C339.4168 174.4645 342.7848 174.1575 366 176 C372.2202 176.4937 373.7768 177.5936 379 181 C384.307 184.4611 384.6442 185.9182 389 191 C390.3402 192.5636 390.9313 193.2145 391 195 C391.3699 204.6183 393.3569 210.6058 390 217 C385.7526 225.0903 378.7117 232.9896 370 235 C349.0808 239.8275 333.9966 239.106 312 235 C304.5616 233.6115 301.3349 222.81 295 221 C289.9148 219.5471 285.6834 224.6053 277 225 C264.6262 225.5624 259.6265 227.1335 251 223 C240.7402 218.0838 229 202 229 202 "/>
<path id="1" d="M233 184 C233 184 227.4832 168.7858 220 159 C215.9434 153.6953 212.5335 151.1738 207 150 C199.7345 148.4588 189.7183 149.4908 187 152 C183.7265 155.0217 182.5817 163.192 181 174 C179.6864 182.976 180.0682 183.9928 181 193 C181.5056 197.8877 181.882 200.529 184 203 C185.9736 205.3025 188.6523 206.4279 193 207 C206.2954 208.7494 208.7295 208.3903 222 208 C224.3173 207.9318 225.4254 207.3997 227 206 C229.1684 204.0726 231 200 231 200 "/>
<path id="2" d="M203 148 C203 148 200.9635 134.8136 203 130 C204.4316 126.6161 209.1997 124.743 214 122 C214.9248 121.4715 216.9007 121.8346 217 122 C217.2757 122.4596 217.535 126.3758 217 127 C216.2357 127.8917 211 129 211 129 "/>
<path id="3" d="M201 147 C201 147 202.8575 136.1597 201 131 C199.579 127.0528 195.8111 124.45 192 122 C190.7112 121.1715 187.5277 121.5602 187 122 C186.4547 122.4544 185.7011 126.6513 186 127 C186.5772 127.6734 193 129 193 129 "/>
<path id="4" d="M193 170 L195 167 "/>
<path id="5" d="M191 166 C191 166 198.9285 161.9387 199 162 C199.1185 162.1016 198.7961 171.0049 198 172 C197.5872 172.516 191.3055 172.3055 191 172 C190.7818 171.7818 192 166 192 166 "/>
<path id="6" d="M239 217 C239 217 235.8819 216.8574 234 218 C223.0203 224.6662 221.3182 225.0575 211 234 C199.2637 244.1715 200.433 246.9121 189 257 C184.0865 261.3354 177 264 177 264 "/>
<path id="7" d="M240 220 C240 220 257.9241 243.5007 268 264 C270.7023 269.4978 269 279 269 279 "/>
<path id="8" d="M240 218 L210 285 "/>
<path id="9" d="M236 222 C236 222 241.9829 227.1492 243 232 C247.7236 254.5281 249 284 249 284 "/>
<path id="10" d="M237 219 C237 219 230.2716 222.3443 227 227 C218.2385 239.4683 219.8594 243.5313 211 256 C207.3096 261.1939 204.6297 260.098 200 265 C196.4979 268.7081 194 274 194 274 "/>
<path id="11" d="M340 240 C340 240 357.6057 244.7747 372 253 C388.1153 262.2087 403 276 403 276 "/>
<path id="12" d="M345 239 C345 239 339.8477 254.3317 333 267 C330.3543 271.8946 327.8003 271.1995 325 276 C321.2093 282.4983 319.1072 290.801 319 291 C318.9914 291.016 318 289 318 289 "/>
<path id="13" d="M345 241 C345 241 352.0445 257.5375 356 273 C357.2498 277.8856 356.0818 283.7546 356 284 C355.9926 284.0223 353 282 353 282 "/>
<path id="14" d="M347 246 C347 246 352.5266 253.1449 359 258 C366.0129 263.2597 369.2723 261.7704 375 267 C379.2469 270.8776 382 279 382 279 "/>
<path id="15" d="M192 194 L185 199 "/>
</g>
</g>
</svg>
