<?xml version="1.0" encoding="utf-8"?>
<!DOCTYPE svg PUBLIC "-//W3C//DTD SVG 1.1//EN" "http://www.w3.org/Graphics/SVG/1.1/DTD/svg11.dtd">
<svg viewBox="0 0 800 800" preserveAspectRatio="xMinYMin meet" xmlns="http://www.w3.org/2000/svg" version="1.1">
<g fill="none" stroke="black" stroke-linecap="round" stroke-linejoin="round" stroke-width="1.4833">
<g transform="translate(167.4097,87.52) scale(2.0225) translate(-145,-38.1333)">
<path id="0" d="M182 38.1333 C182 38.1333 179.0198 56.0841 180 70.1333 C180.3491 75.1377 183.2605 78.7415 185 81.1333 C185.2593 81.4899 187.5051 80.6384 188 81.1333 C192.4544 85.5877 195.0337 88.2324 200 96.1333 C205.7909 105.3461 204.9551 110.3317 210 116.1333 C212.0562 118.498 216.1917 116.806 220 119.1333 C224.148 121.6682 224.5211 125.2779 228 127.1333 C229.9852 128.1921 234.8033 127.4986 235 127.1333 C235.6783 125.8736 233.7665 119.5607 235 114.1333 C235.9618 109.9015 237.519 106.3738 240 105.1333 C245.3537 102.4565 256.4419 100.9609 259 102.1333 C260.657 102.8928 262.4158 109.1175 264 116.1333 C265.8274 124.2262 264.6475 131.2173 266 133.1333 C266.5185 133.8679 271.7778 134.1889 276 133.1333 C280.75 131.9458 282.3939 131.3598 286 128.1333 C290.9174 123.7335 291.6454 122.3264 295 116.1333 C297.8162 110.9343 295.8474 107.56 299 104.1333 C305.1282 97.4722 316.7811 95.9328 318 91.1333 C321.3669 77.876 315 41.1333 315 41.1333 "/>
<path id="1" d="M233 126.1333 C233 126.1333 229.9338 134.5131 231 139.1333 C232.2624 144.6039 234.3117 147.2107 239 152.1333 C243.4176 156.7718 245.6882 158.8054 251 160.1333 C256.9757 161.6273 265.404 160.7293 267 159.1333 C268.9715 157.1618 269.2431 149.4589 270 141.1333 C270.1619 139.3522 269.8097 138.105 269 137.1333 C268.1065 136.0612 265 135.1333 265 135.1333 "/>
<path id="2" d="M242 158.1333 C242 158.1333 238.982 183.5841 241 197.1333 C241.4774 200.3388 245.0103 202.9168 249 205.1333 C252.5622 207.1123 255.1517 205.4841 259 207.1333 C261.0254 208.0014 261.3187 210.0125 263 211.1333 C263.5044 211.4696 264.9582 211.2519 265 211.1333 C266.0911 208.042 267.9515 202.5212 269 194.1333 C269.8987 186.9437 270.4207 185.8307 269 179.1333 C267.1546 170.4335 262 161.1333 262 161.1333 "/>
<path id="3" d="M247 206.1333 C247 206.1333 233.0249 218.4086 229 230.1333 C223.0363 247.5059 225.1146 252.3268 224 273.1333 C223.6679 279.3332 224.0758 280.0859 226 286.1333 C230.9131 301.5744 231.1856 302.7872 238 317.1333 C240.2885 321.9512 240.996 322.7013 245 326.1333 C250.9089 331.1981 253.9012 330.6719 259 335.1333 C260.4859 336.4335 260.1417 339.6565 261 340.1333 C262.2575 340.8319 265.3171 340.9588 268 340.1333 C270.7713 339.2806 271.4929 338.5151 274 336.1333 C281.2271 329.2676 285.0041 328.3588 288 321.1333 C291.9231 311.6716 290.2802 308.0906 291 295.1333 C291.7703 281.2682 292.7097 280.6212 291 267.1333 C288.3047 245.8702 284.6038 231.5976 282 224.1333 C281.8819 223.7947 276.6812 224.9118 276 224.1333 C273.0159 220.7229 268 208.1333 268 208.1333 "/>
<path id="4" d="M239 154.1333 C239 154.1333 225.872 156.1914 223 155.1333 C221.9073 154.7308 221.9098 149.2341 220 147.1333 C218.333 145.2996 214.9945 146.358 213 144.1333 C203.7465 133.8121 194.8213 118.6467 194 118.1333 C193.9563 118.106 192.3626 124.762 189 129.1333 C182.9892 136.9474 179.9354 136.0612 174 144.1333 C167.9908 152.3058 167.2343 158.4063 164 163.1333 C163.7431 163.5088 161 163.1333 161 163.1333 "/>
<path id="5" d="M270 158.1333 C270 158.1333 289.6862 152.2424 302 144.1333 C307.2461 140.6786 306.1567 135.9767 311 131.1333 C313.6418 128.4915 318.9656 127.0782 319 127.1333 C320.1153 128.9178 323.1576 148.7926 326 155.1333 C326.3368 155.8847 331.1429 155.181 332 156.1333 C333.5669 157.8743 332.7694 161.3585 335 165.1333 C338.9153 171.7592 345 178.1333 345 178.1333 "/>
<path id="6" d="M245 206.1333 C245 206.1333 231.5427 210.8598 229 210.1333 C227.6553 209.7491 227.0468 203.3978 224 200.1333 C221.2163 197.1508 218.4907 198.1877 215 195.1333 C211.1178 191.7364 210.9457 188.027 208 186.1333 C206.3873 185.0966 203.0399 185.1134 201 186.1333 C197.9401 187.6633 197.8768 190.7796 194 193.1333 C184.6712 198.7973 179.3352 198.4508 173 203.1333 C171.3992 204.3165 172.7609 207.8306 171 210.1333 C167.1989 215.104 164.2632 214.5726 160 220.1333 C153.2467 228.942 148 240.1333 148 240.1333 "/>
<path id="7" d="M270 210.1333 C270 210.1333 285.6228 201.5092 301 195.1333 C305.4741 193.2782 310.3822 192.5597 311 193.1333 C312.3603 194.3964 312.3001 203.0035 315 208.1333 C316.1298 210.28 319.3008 209.6695 321 212.1333 C328.236 222.6255 328.0091 226.831 335 237.1333 C336.2954 239.0424 338.4656 238.2921 340 240.1333 C342.8189 243.5161 345 249.1333 345 249.1333 "/>
<path id="8" d="M230 299.1333 C230 299.1333 216.1547 301.889 214 300.1333 C209.7799 296.6948 209.231 287.6277 203 277.1333 C200.0988 272.2471 197.7798 269.844 195 268.1333 C194.0997 267.5793 191.4082 267.9012 190 269.1333 C174.4801 282.7132 164.7972 287.0559 155 303.1333 C149.2561 312.5591 154.2179 318.9745 151 333.1333 C149.4005 340.1711 145 347.1333 145 347.1333 "/>
<path id="9" d="M293 298.1333 C293 298.1333 300.1185 298.5307 304 296.1333 C315.0194 289.3273 316.8903 287.243 327 277.1333 C332.2956 271.8378 335.8272 264.4543 336 264.1333 C336.0104 264.114 333.9999 264.1333 334 264.1333 C334.0002 264.1334 338.1726 264.115 339 265.1333 C342.5139 269.4581 344.3927 272.5288 347 280.1333 C350.1405 289.2931 348.1367 290.6845 351 300.1333 C353.0002 306.734 353.44 307.4966 357 313.1333 C359.0757 316.4199 361.226 315.8388 363 319.1333 C367.6715 327.8089 367.6741 333.313 371 339.1333 C371.4447 339.9116 375 340.1333 375 340.1333 "/>
<path id="10" d="M241 98.1333 L247 102.1333 "/>
<path id="11" d="M261 97.1333 L255 101.1333 "/>
<path id="12" d="M243 114.1333 L244 122.1333 "/>
<path id="13" d="M255 115.1333 L256 124.1333 "/>
</g>
</g>
</svg>
