<?xml version="1.0" encoding="utf-8"?>
<!DOCTYPE svg PUBLIC "-//W3C//DTD SVG 1.1//EN" "http://www.w3.org/Graphics/SVG/1.1/DTD/svg11.dtd">
<svg viewBox="0 0 800 800" preserveAspectRatio="xMinYMin meet" xmlns="http://www.w3.org/2000/svg" version="1.1">
<g fill="none" stroke="black" stroke-linecap="round" stroke-linejoin="round" stroke-width="1.7329">
<g transform="translate(87.52,190.5259) scale(1.7312) translate(-163,-96)">
<path id="0" d="M209 196 C209 196 200.7293 212.5953 191 228 C182.8411 240.9182 172.9728 252.9728 173 253 C173.1051 253.1051 190.5896 247.7981 208 245 C218.1532 243.3682 229 244 229 244 "/>
<path id="1" d="M205 200 C205 200 211.9354 193.4015 219 190 C224.4236 187.3886 225.5872 187.5497 232 187 C242.6419 186.0878 243.6541 185.9988 254 187 C258.3689 187.4228 259.484 187.6142 263 190 C272.5124 196.4549 278.8821 198.7248 282 206 C286.3725 216.2025 283.555 238.799 284 239 C284.5376 239.2428 298.0389 228.2286 313 220 C327.6766 211.9279 328.9551 208.7354 344 206 C369.7272 201.3223 373.3729 203.273 401 204 C410.2686 204.2439 411.2352 204.7132 420 208 C438.545 214.9544 439.3555 215.6588 457 225 C464.4008 228.9181 464.5198 229.4918 471 235 C484.3636 246.3591 485.2101 246.2068 497 259 C508.3946 271.3644 507.8144 272.4192 518 286 C519.7274 288.3032 521 290.9638 521 291 C521 291.0072 518 290 518 290 "/>
<path id="2" d="M223 244 C223 244 227.189 246.8062 231 247 C254.8406 248.2122 276.5492 244.7555 282 247 C282.9242 247.3805 280.9926 258.2621 282 268 C282.3986 271.8536 282.8105 272.7157 285 276 C290.4008 284.1012 290.545 285.7875 298 292 C313.5706 304.9755 315.4709 307.6528 333 316 C344.6501 321.5477 347.1577 321.2186 361 322 C407.9197 324.6487 409.2025 323.395 457 323 C469.4566 322.8971 471.0188 324.2537 482 321 C496.2232 316.7857 497.9688 315.0669 511 307 C518.0675 302.6249 522.4453 297.643 524 295 C524.256 294.5648 521 290 521 290 "/>
<path id="3" d="M230 213 C230 213 228.7448 219.5535 229 220 C229.1134 220.1985 233.332 220.4454 234 220 C234.4899 219.6734 235.1004 216.2008 235 216 C234.957 215.9139 232 216 232 216 "/>
<path id="4" d="M248 193 C248 193 239.3963 172.295 229 158 C225.0699 152.5961 222.8126 152.1443 216 149 C204.0245 143.4728 202.6207 142.7704 190 140 C183.233 138.5146 181.7043 138.7585 175 140 C169.2227 141.0699 163 145 163 145 "/>
<path id="5" d="M250 193 C250 193 251.4134 168.1485 251 145 C250.9308 141.1232 250.6259 140.613 249 137 C241.8389 121.0864 241.7116 119.5193 233 105 C230.3195 100.5325 228.8397 99.6583 225 97 C223.3856 95.8823 220 96 220 96 "/>
<path id="6" d="M345 323 L345 334 "/>
<path id="7" d="M414 327 L412 338 "/>
<path id="8" d="M316 223 C316 223 320.2923 234.0116 326 244 C334.18 258.3149 334.0755 259.3688 344 272 C350.0724 279.7286 351.0056 281.1613 359 286 C368.6883 291.864 370.8881 293.1817 382 295 C396.5297 297.3776 398.9805 296.5978 414 295 C421.29 294.2245 422.334 293.6155 429 290 C451.0713 278.0291 452.8271 277.4092 473 263 C479.785 258.1536 485 250 485 250 "/>
<path id="9" d="M187 233 C187 233 180.9668 241.887 179 250 C177.3385 256.8539 178.9936 265.9888 179 266 C179.0027 266.0047 180.2587 260.2553 183 257 C187.456 251.7085 189.5877 248.2403 195 247 C208.7201 243.8558 231 246 231 246 "/>
<path id="10" d="M178 248 C178 248 177.9955 261.9955 178 262 C178.0019 262.0019 182 252 182 252 "/>
</g>
</g>
</svg>
