<?xml version="1.0" encoding="utf-8"?>
<!DOCTYPE svg PUBLIC "-//W3C//DTD SVG 1.1//EN" "http://www.w3.org/Graphics/SVG/1.1/DTD/svg11.dtd">
<svg viewBox="0 0 800 800" preserveAspectRatio="xMinYMin meet" xmlns="http://www.w3.org/2000/svg" version="1.1">
<g fill="none" stroke="black" stroke-linecap="round" stroke-linejoin="round" stroke-width="0.68164">
<g transform="translate(87.52,171.1414) scale(4.4011) translate(-170,-166.1333)">
<path id="0" d="M200 193.1333 C200 193.1333 193.9937 191.2528 191 192.1333 C187.6422 193.1209 185.0236 195.0979 183 198.1333 C181.1549 200.901 180.3616 206.1402 181 207.1333 C181.9991 208.6874 187.015 211.1363 192 212.1333 C195.6557 212.8645 198.5229 212.7361 201 211.1333 C204.7156 208.7291 206.6516 205.5367 209 201.1333 C209.8231 199.5901 209.676 197.6543 209 196.1333 C208.2189 194.3758 205 192.1333 205 192.1333 "/>
<path id="1" d="M203 193.1333 L200 192.1333 "/>
<path id="2" d="M209 201.1333 C209 201.1333 213.543 197.2889 218 196.1333 C226.0162 194.055 230.5145 192.4877 236 194.1333 C240.8234 195.5804 244.7801 200.5719 248 205.1333 C248.9922 206.539 248 211.1333 248 211.1333 "/>
<path id="3" d="M208 209.1333 C208 209.1333 224.6953 222.9362 225 223.1333 C225.0227 223.148 225 220.1333 225 220.1333 C225.0322 220.1333 226.7709 222.949 228 223.1333 C234.0564 224.0418 245 223.1333 245 223.1333 C245 223.1333 243.0153 223.1639 243 223.1333 C242.9771 223.0875 243.4627 221.3721 244 221.1333 C246.5285 220.0096 250.9343 220.0658 252 219.1333 C252.4782 218.7149 252 214.1333 252 214.1333 "/>
<path id="4" d="M249 209.1333 C249 209.1333 254.6305 197.1923 258 196.1333 C264.533 194.0801 275.0484 195.4207 284 198.1333 C287.1708 199.0942 288.8531 201.8395 291 206.1333 C295.8539 215.8412 293.673 218.7477 299 228.1333 C303.4916 236.0471 312 243.1333 312 243.1333 "/>
<path id="5" d="M251 219.1333 C251 219.1333 264.7203 230.2802 278 239.1333 C280.4145 240.743 281.2463 241.1333 284 241.1333 C294.0971 241.1333 306 239.1333 306 239.1333 "/>
<path id="6" d="M187 197.1333 L171 180.1333 "/>
<path id="7" d="M188 166.1333 L187 195.1333 "/>
<path id="8" d="M210 200.1333 L214 176.1333 "/>
<path id="9" d="M207 205.1333 L198 236.1333 "/>
<path id="10" d="M252 173.1333 L251 207.1333 "/>
<path id="11" d="M249 219.1333 C249 219.1333 250.9113 222.2963 251 225.1333 C251.3798 237.286 250 251.1333 250 251.1333 "/>
<path id="12" d="M276 235.1333 L277 270.1333 "/>
<path id="13" d="M283 197.1333 L286 169.1333 "/>
<path id="14" d="M180 206.1333 C180 206.1333 178.4829 211.9055 176 215.1333 C174.2287 217.436 170 219.1333 170 219.1333 C170.0001 219.1333 184 212.1333 184 212.1333 "/>
<path id="15" d="M193 202.1333 C193 202.1333 194.0161 207.1269 194 207.1333 C193.9229 207.1642 188.0045 204.1401 188 204.1333 C187.9983 204.1308 192 204.1333 192 204.1333 "/>
<path id="16" d="M192 199.1333 L189 203.1333 "/>
<path id="17" d="M252 206.1333 C252 206.1333 252.0386 215.0561 252 215.1333 C251.9936 215.1462 249 212.1333 249 212.1333 "/>
</g>
</g>
</svg>
