<?xml version="1.0" encoding="utf-8"?>
<!DOCTYPE svg PUBLIC "-//W3C//DTD SVG 1.1//EN" "http://www.w3.org/Graphics/SVG/1.1/DTD/svg11.dtd">
<svg viewBox="0 0 800 800" preserveAspectRatio="xMinYMin meet" xmlns="http://www.w3.org/2000/svg" version="1.1">
<g fill="none" stroke="black" stroke-linecap="round" stroke-linejoin="round" stroke-width="0.33602">
<g transform="translate(87.52,288.4) scale(8.928) translate(-223,-264)">
<path id="0" d="M230 264 C230 264 222.8883 276.4787 223 277 C223.0305 277.1425 229.2751 278.9312 233 278 C237.3935 276.9016 239.9177 274.8021 243 272 C243.9247 271.1594 244.0964 268.0526 244 268 C242.932 267.4174 232 266 232 266 "/>
<path id="1" d="M248 268 C248 268 245.0993 267.8346 245 268 C244.7243 268.4596 244.3455 272.3455 245 273 C246.9635 274.9635 250.2495 276.9203 255 278 C260.1189 279.1634 261.9809 278.8857 267 278 C269.3127 277.5919 271.9555 275.5338 272 275 C272.1128 273.6459 269.4566 266.4855 268 266 C263.9078 264.6359 248 267 248 267 "/>
<path id="2" d="M280 267 C280 267 274.2725 268.2914 274 269 C273.3284 270.7461 274.139 278.9476 275 280 C275.4769 280.5829 279.5295 280.8166 283 280 C287.3126 278.9853 291.0405 277.4393 292 276 C292.7037 274.9445 291.8245 268.6183 291 268 C289.6161 266.9621 280 267 280 267 "/>
<path id="3" d="M246 277 L247 285 "/>
<path id="4" d="M257 279 L257 287 "/>
<path id="5" d="M268 279 L270 285 "/>
<path id="6" d="M279 279 L282 289 "/>
<path id="7" d="M289 278 L293 286 "/>
</g>
</g>
</svg>
