<?xml version="1.0" encoding="utf-8"?>
<!DOCTYPE svg PUBLIC "-//W3C//DTD SVG 1.1//EN" "http://www.w3.org/Graphics/SVG/1.1/DTD/svg11.dtd">
<svg viewBox="0 0 800 800" preserveAspectRatio="xMinYMin meet" xmlns="http://www.w3.org/2000/svg" version="1.1">
<g fill="none" stroke="black" stroke-linecap="round" stroke-linejoin="round" stroke-width="1.0465">
<g transform="translate(157.7563,87.52) scale(2.8668) translate(-204,-98)">
<path id="0" d="M281,153C281,153 271.9152941176471,153.97882352941175 268,153C266.7952941176471,152.69882352941175 265.62616938725415,151.0037420392133 265,149C263.3989086553754,143.8765076972014 262.23519800168026,140.44160899243877 263,137C263.4853551143183,134.8159019855677 266.49267663312804,131.4701231312885 269,131C278.1495308826204,129.28446295950866 283.8206705144543,129.6449297593278 295,131C298.2182918215965,131.39009597837534 301.1437465759795,133.18046147395645 302,135C303.5813067266185,138.3602767940643 304.0932789358307,144.72016319250778 303,148C302.36704903715065,149.8988528885481 299.19801378624873,152.1584174246714 296,153C291.3851446628816,154.21443561503116 284,153 284,153"/>
<path id="1" d="M284,153L284,153"/>
<path id="2" d="M268,154C268,154 264.26154654154743,162.17841144240586 263,170C261.8740515512101,176.98088038249764 263,185 263,185"/>
<path id="3" d="M301,154C301,154 304.7156556415756,156.29393384945376 305,158C306.59435943830806,167.56615662984853 306,184 306,184"/>
<path id="4" d="M262,188C262,188 276.7583878025665,183.6234548784746 291,181C295.23165193008014,180.2204851707747 296.83431092520874,179.94477030840292 300,181C302.6966981007481,181.89889936691603 306,186 306,186"/>
<path id="5" d="M265,191C265,191 261.34697772403205,194.31092263875155 261,197C259.66877358354037,207.31700472756213 261,222 261,222"/>
<path id="6" d="M306,186C306,186 309.924856515181,193.68902430323055 311,201C312.2982106377441,209.82783233665992 311.2472602739726,217.65102739726026 311,220C310.9972602739726,220.02602739726026 309,220 309,220"/>
<path id="7" d="M272,213C272,213 262.41151369932464,219.7389034843354 261,225C258.26217000245185,235.20463908177035 260.30393032407454,239.73057164352775 261,254C261.2903705292338,259.95259584929374 261.0346206595579,260.5952068137842 263,266C266.8044128661415,276.46213538188914 273,287 273,287"/>
<path id="8" d="M270,216C270,216 280.1916412763912,212.5121931588663 283,211C283.1927305006398,210.89622203811703 282.98127719001576,208.99711956769474 283,209C283.82848434180283,209.12745912950814 292.01847389870676,210.51154618669173 296,213C297.7338903989503,214.08368149934392 297.07312746763335,216.8804402143967 299,219C301.5089486098524,221.7598434708376 304.03809141392145,221.13259514342368 306,224C309.62847609468286,229.30315736915188 310.4983908536819,231.05505769827863 312,238C314.3001680739537,248.6382773420361 315.4135959179549,250.70094402632827 314,261C312.1814741038216,274.24926010072863 308.32705299708124,274.9240065508101 305,289C301.91389230144,302.0566094939077 301,316 301,316"/>
<path id="9" d="M301,316C301,316 297.71489886470743,316.6851114120113 297,316C289.4861150573977,308.7991935966728 285.499556140436,304.2039603669384 277,293C275.32619400305776,290.7936193676671 275,287 275,287"/>
<path id="10" d="M275,287L275,287"/>
<path id="11" d="M306,228C306,228 310.32930014997543,224.06294972504506 312,221C312.65053799469984,219.80734700971698 312,217 312,217"/>
<path id="12" d="M264,104C264,104 263.2792879187034,114.39643959351691 265,123C266.0754450508104,128.37722525405192 268.2604700474829,131.60814631528896 270,134C270.2593088127976,134.35654961759667 272.58421067231194,133.68815800423394 273,134C273.4504384383288,134.33782882874655 274,137 274,137"/>
<path id="13" d="M272,137L272,137"/>
<path id="14" d="M298,134C298,134 301.219512195122,134.62439024390244 302,134C304.41951219512196,132.06439024390244 307.1629399017473,129.70698043511913 308,126C310.0782181749722,116.7964623679801 309,103 309,103"/>
<path id="15" d="M216,105L219,120"/>
<path id="16" d="M216,111C216,111 220.45498215532098,125.08523198082712 220,131C219.8507089802853,132.9407832562911 214,137 214,137"/>
<path id="17" d="M215,140C215,140 215,138 215,138C218.01903714754655,138 229.59341298700994,137.63413170359 243,140C254.45957230155994,142.02227746498116 255.67391670362966,142.4443750163072 266,147C271.75094154273614,149.53718009238358 277,155 277,155"/>
<path id="18" d="M303,150C303,150 308.1622803439315,143.73614057988385 314,140C319.9853401531185,136.16938230200415 325.94885026934525,137.4780364998059 328,134C333.51154262157956,124.65434077210425 332.7421461992668,113.41874025213849 337,101C337.3573495668074,99.95773043014515 340,99 340,99"/>
<path id="19" d="M340,98L340,98"/>
<path id="20" d="M373,148L371,149"/>
<path id="21" d="M264,220C264,220 255.21720394748647,219.08697733916816 247,220C237.60123731496645,221.04430696500373 229.28645086213916,221.2176760423502 228,224C217.92803105495926,245.78356074159973 204,313 204,313"/>
<path id="22" d="M204,313L204,313"/>
<path id="23" d="M311,222C311,222 322.5079400838223,221.35079400838222 329,222C329.79347398975505,222.0793473989755 330.64513430862246,222.93540292586744 331,224C338.62961236461666,246.88883709385007 337.0015764666921,252.1327954366199 347,276C351.8173803994506,287.4995532115918 362,298 362,298"/>
<path id="24" d="M262,244L243,261"/>
<path id="25" d="M312,242C312,242 315.64766219088574,241.82383109544287 318,243C322.8856246804681,245.44281234023404 328,250 328,250"/>
<path id="26" d="M328,250L328,250"/>
<path id="27" d="M244,262L247,285"/>
<path id="28" d="M246,287C246,287 244.7563682004371,294.4872635991258 242,300C240.1624211997086,303.6751576005828 236,307 236,307"/>
<path id="29" d="M329,251L329,277"/>
<path id="30" d="M329,277L344,294"/>
<path id="31" d="M344,294L344,294"/>
</g>
</g>
</svg>
