<?xml version="1.0" encoding="utf-8"?>
<!DOCTYPE svg PUBLIC "-//W3C//DTD SVG 1.1//EN" "http://www.w3.org/Graphics/SVG/1.1/DTD/svg11.dtd">
<svg viewBox="0 0 800 800" preserveAspectRatio="xMinYMin meet" xmlns="http://www.w3.org/2000/svg" version="1.1">
<g fill="none" stroke="black" stroke-linecap="round" stroke-linejoin="round" stroke-width="2.1793">
<g transform="translate(87.52,145.3357) scale(1.3766) translate(-30,-8)">
<path id="0" d="M185 70 C185 70 194.4895 68.818 203 70 C211.8388 71.2276 213.3571 70.9446 221 75 C236.5954 83.2751 244.6594 87.0536 252 96 C254.9752 99.626 253.6469 106.237 253 114 C252.7743 116.708 252.0803 117.9197 250 120 C240.5233 129.4767 228 139 228 139 "/>
<path id="1" d="M185 72 C185 72 180.1113 71.0277 177 72 C173.2811 73.1622 169.2296 75.2947 169 77 C167.2296 90.1515 168.0093 101.1068 170 124 C170.9485 134.9075 171.1667 137.7857 175 146 C176.9219 150.1184 180.0722 153.1022 184 154 C193.431 156.1556 199.376 156.8186 210 154 C220.8074 151.1327 233 141 233 141 "/>
<path id="2" d="M171 127 C171 127 175.1079 126.2863 176 127 C178.034 128.6272 179.7898 131.0235 181 135 C182.9839 141.5185 183 150 183 150 "/>
<path id="3" d="M170 131 C170 131 166.1763 135.7654 165 140 C163.981 143.6685 164.0785 146.0051 165 149 C165.5356 150.7407 167.2769 152.5405 169 153 C172.741 153.9976 176.7457 153.9298 180 153 C181.2257 152.6498 183 149 183 149 "/>
<path id="4" d="M216 73 C216 73 231.7222 72.2481 243 73 C244.3088 73.0873 245.8692 74.2589 246 75 C246.7756 79.3952 246 90 246 90 "/>
<path id="5" d="M225 74 C225 74 225.9466 86.4504 227 87 C229.4562 88.2815 248 86 248 86 "/>
<path id="6" d="M170 82 C170 82 165.6477 82.9415 164 82 C160.5478 80.0273 156.0739 73.9908 156 74 C155.9881 74.0015 155.2402 82.3035 156 83 C157.274 84.1678 168 85 168 85 "/>
<path id="7" d="M184 72 C184 72 180.6228 67.3114 178 66 C176.2515 65.1257 172.0432 66.0576 172 66 C171.9832 65.9776 173.5185 62.823 175 62 C176.8597 60.9668 179.3515 60.366 181 61 C183.7324 62.0509 186.1108 64.571 188 67 C188.4952 67.6367 188 70 188 70 "/>
<path id="8" d="M167 101 C167 101 135.6022 102.5672 107 101 C100.6984 100.6547 99.5453 100.1108 94 97 C79.9371 89.1111 80.4147 86.3162 66 78 C54.7728 71.5227 50.525 72.7848 42 67 C39.4454 65.2665 40.5321 62.1651 38 59 C34.9705 55.2131 30.1202 52.721 30 52 C29.9423 51.6539 36 47 36 47 "/>
<path id="9" d="M205 68 C205 68 206.6915 56.9409 205 48 C203.4502 39.8082 202.1976 38.8355 198 31 C194.9078 25.2279 194.4935 24.73 190 20 C185.3012 15.0539 184.5565 13.6671 179 11 C173.4 8.312 171.8812 8.1929 165 8 C119.5622 6.726 72 8 72 8 "/>
<path id="10" d="M231 142 L237 133 "/>
<path id="11" d="M218 155 C218 155 215.3886 186.3724 220 202 C221.8141 208.1477 229.1304 211.8185 236 216 C237.961 217.1937 240.7815 217.2166 243 216 C253.561 210.2085 254.5618 205.9965 267 199 C277.979 192.8243 280.9342 194.5535 291 189 C293.8339 187.4364 295.4954 185.6237 296 183 C297.4496 175.4622 297.1814 170.0886 296 163 C295.7243 161.346 294.1908 160.4605 292 159 C288.4947 156.6632 287.7545 155.4693 284 155 C273.3991 153.6749 269.464 157.8971 260 155 C248.331 151.4279 235 140 235 140 "/>
<path id="12" d="M256 210 C256 210 265.5167 251.9792 271 261 C271.8871 262.4593 280.339 262.9496 287 261 C298.8699 257.5259 310.7046 250.8288 312 249 C312.2762 248.6101 306.1946 242.9255 304 237 C301.6913 230.7665 304.0022 228.0067 302 222 C301.0202 219.0606 299.8114 218.4366 297 216 C292.5716 212.162 292.1701 210.9768 287 209 C276.2759 204.8996 263 203 263 203 "/>
<path id="13" d="M279 267 C279 267 277.1089 289.3406 280 309 C281.8743 321.745 282.7939 323.6961 289 335 C296.1067 347.9443 297.776 351.0868 308 360 C314.9788 366.0841 317.8933 365.7153 328 369 C337.3903 372.0519 338.0991 372.1918 348 373 C362.1257 374.1531 364.0047 375.0215 377 373 C384.6578 371.8088 386.1459 370.5694 393 366 C403.3916 359.0722 405.5322 357.904 413 349 C417.2082 343.9825 417.9425 341.7985 419 335 C421.2064 320.8162 421.3001 317.9759 420 304 C419.4757 298.3634 418.6929 295.6929 415 292 C403.9213 280.9213 400.694 278.3966 386 270 C377.7189 265.2679 375.5359 267.851 366 264 C349.8151 257.4638 349.2706 252.8177 334 249 C322.0398 246.01 306 249 306 249 "/>
<path id="14" d="M216 196 C216 196 188.1541 198.4191 165 196 C157.4039 195.2064 156.8868 191.3368 149 189 C144.0707 187.5395 140.0128 187.0607 138 188 C136.5223 188.6896 134.285 192.295 134 196 C132.4906 215.6226 136.7067 219.8502 134 240 C132.5108 251.0865 130.0818 252.4735 125 263 C123.4364 266.2389 120 269 120 269 "/>
<path id="15" d="M295 159 C295 159 294.5682 151.6219 296 145 C298.4688 133.5817 298.2401 132.3131 303 122 C306.8247 113.7133 312.1114 106.4197 314 106 C315.7877 105.6027 323.6229 110.0214 330 116 C338.7332 124.1874 337.4523 128.3071 346 136 C351.1035 140.5931 353.3522 141.2765 360 143 C365.4646 144.4167 373 143 373 143 "/>
<path id="16" d="M264 231 C264 231 251.0682 238.8058 239 241 C225.4999 243.4546 220.5467 243.8225 209 241 C202.1917 239.3358 201.3043 232.9674 194 230 C187.3171 227.2851 179.1318 226.4209 177 228 C173.3876 230.6758 168.7508 239.4954 167 250 C164.1889 266.8666 169.2404 271.0366 167 288 C166.0611 295.1088 163.1005 298.0392 160 303 C159.5399 303.7361 157 304 157 304 "/>
<path id="17" d="M304 225 C304 225 318.277 198.878 333 181 C336.8402 176.3369 341.3927 174.601 346 174 C349.1387 173.5906 351.6287 175.2553 356 178 C372.575 188.4076 372.634 192.1624 389 201 C395.9038 204.7281 406 205 406 205 "/>
<path id="18" d="M279 299 C279 299 273.4978 299.4667 269 298 C251.3309 292.2383 238.6976 282.4739 233 284 C228.0942 285.314 220.0921 297.8573 213 313 C202.2857 335.8764 205.2651 338.6792 196 363 C193.4298 369.7467 192.6134 370.5799 189 376 C188.1819 377.2272 187.0735 378 186 378 C182.7796 378 177 376 177 376 "/>
<path id="19" d="M377 263 C377 263 376.122 255.8534 377 250 C377.5032 246.6456 377.9149 244.8398 380 243 C384.785 238.778 389.4524 234.5213 394 235 C409.3707 236.618 415.3649 243.9518 437 249 C459.7418 254.3064 484 256 484 256 "/>
<path id="20" d="M175 138 C175 138 172.9362 141.681 173 142 C173.0284 142.1418 175.9906 143.0212 176 143 C176.2946 142.3372 177.0994 133.9935 177 133 C176.998 132.9799 175.063 132.8529 175 133 C173.8443 135.6965 171.5015 145.9135 171 147 C170.9976 147.0053 169.0801 146.3604 169 146 C168.5565 144.0041 169 138 169 138 C169 138 168.6165 145.7017 169 146 C169.5068 146.3941 177.8686 145.3943 178 145 C178.5257 143.4229 175 128 175 128 C175 128 174.215 134.4301 176 138 C179.3149 144.6299 186.9783 151.9132 187 152 C187.0052 152.0207 179.0579 150.1351 179 150 C178.9695 149.9289 184 145 184 145 C184 145 182.0477 148.0549 180 149 C176.5242 150.6042 171.9497 151.5844 171 151 C169.7588 150.2362 168.4137 143.0196 167 141 C166.7681 140.6687 164 141 164 141 "/>
<path id="21" d="M227 74 C227 74 230.6739 77.8174 232 81 C232.7299 82.7519 231.7906 85.9195 232 86 C233.4156 86.5445 243.8214 86.7253 245 86 C245.4464 85.7253 245.522 78.3356 245 78 C243.5138 77.0446 231.2674 76.6791 231 77 C230.7577 77.2908 233.4792 88.5962 235 90 C235.7677 90.7087 243.061 89.7303 244 89 C244.4482 88.6514 244.404 83.2571 244 83 C242.7688 82.2165 237.2986 81.693 233 82 C231.7638 82.0883 230.3104 83.1722 230 84 C229.404 85.5893 230.0004 90.0002 230 90 C229.9992 89.9996 227.4452 83.9709 228 83 C229.2044 80.8924 233.9363 77.5239 238 76 C239.8106 75.321 243.6574 76.3638 244 77 C245.0153 78.8856 245.6835 88.0127 245 89 C244.5211 89.6918 235 90 235 90 "/>
</g>
</g>
</svg>
