<?xml version="1.0" encoding="utf-8"?>
<!DOCTYPE svg PUBLIC "-//W3C//DTD SVG 1.1//EN" "http://www.w3.org/Graphics/SVG/1.1/DTD/svg11.dtd">
<svg viewBox="0 0 800 800" preserveAspectRatio="xMinYMin meet" xmlns="http://www.w3.org/2000/svg" version="1.1">
<g fill="none" stroke="black" stroke-linecap="round" stroke-linejoin="round" stroke-width="0.45603">
<g transform="translate(87.52,163.1731) scale(6.5785) translate(-172,-95)">
<path id="0" d="M196 129 C196 129 193.3673 124.1267 190 121 C186.8298 118.0562 184.9108 116.3234 182 116 C178.7112 115.6346 173.0301 117.9699 172 119 C171.6038 119.3962 172.5516 124.7509 173 125 C173.7703 125.4279 179.9955 125.0045 181 124 C182.2277 122.7723 183 115 183 115 "/>
<path id="1" d="M199 128 C199 128 201.9839 122.8263 203 118 C203.8434 113.9937 204.1724 112.5171 203 109 C201.1329 103.3987 199.586 101.564 196 97 C194.9461 95.6587 192.0032 94.9929 192 95 C191.8441 95.3509 191.5456 105.6283 192 106 C192.4727 106.3868 203 104 203 104 "/>
<path id="2" d="M198 130 C198 130 197.5974 133.8218 196 136 C192.6627 140.5509 188.3243 142.1622 187 145 C186.4917 146.0893 187.5162 149.1453 189 151 C190.718 153.1475 192.2359 154.309 195 155 C198.9487 155.9872 201.2988 155.987 205 155 C207.2454 154.4012 209.3953 152.6931 210 151 C211.0451 148.0737 211.4216 144.1591 210 141 C208.0026 136.5614 201 131 201 131 "/>
<path id="3" d="M211 143 C211 143 217.4472 138.1594 223 136 C225.263 135.1199 228.7766 135.6171 229 136 C229.803 137.3766 230.2871 143.981 230 148 C229.9484 148.722 228.9256 149.7686 228 150 C224.2052 150.9487 220.9428 151.9196 218 151 C215.6078 150.2524 212 145 212 145 "/>
<path id="4" d="M230 137 C230 137 234.7688 133.2445 239 132 C242.2328 131.0492 246.5586 131.5034 247 132 C247.5586 132.6284 248.0045 139.9955 247 141 C244.8794 143.1206 233 146 233 146 "/>
<path id="5" d="M244 133 C244 133 249.3772 132.1257 252 133 C253.7485 133.5828 255.3619 135.2451 256 137 C256.819 139.2521 256.424 143.6702 256 144 C255.299 144.5452 247 144 247 144 "/>
<path id="6" d="M226 148 C226 148 236.1012 151.2248 238 154 C239.8285 156.6724 239 167 239 167 "/>
<path id="7" d="M221 148 C221 148 215.4814 155.914 215 158 C214.9024 158.4228 218 161 218 161 "/>
<path id="8" d="M238 142 C238 142 241.6291 141.2097 244 142 C248.215 143.405 251.929 144.6633 253 147 C255.3376 152.1003 255 166 255 166 "/>
<path id="9" d="M237 141 L234 148 "/>
<path id="10" d="M255 139 C255 139 258.7664 139.6293 260 141 C262.2015 143.4461 264 149 264 149 "/>
<path id="11" d="M264 149 L264 156 "/>
<path id="12" d="M255 135 C255 135 266.3954 136.6373 267 137 C267.0183 137.011 265.8125 140.675 265 141 C263.1945 141.7222 257 141 257 141 "/>
<path id="13" d="M200 142 L206 143 "/>
</g>
</g>
</svg>
