<?xml version="1.0" encoding="utf-8"?>
<!DOCTYPE svg PUBLIC "-//W3C//DTD SVG 1.1//EN" "http://www.w3.org/Graphics/SVG/1.1/DTD/svg11.dtd">
<svg viewBox="0 0 800 800" preserveAspectRatio="xMinYMin meet" xmlns="http://www.w3.org/2000/svg" version="1.1">
<g fill="none" stroke="black" stroke-linecap="round" stroke-linejoin="round" stroke-width="1.7425">
<g transform="translate(87.52,102.154) scale(1.7217) translate(-54,-32)">
<path id="0" d="M258 196 C258 196 256.5191 185.2942 254 182 C252.5407 180.0917 247.9969 181.0748 245 179 C242.794 177.4728 241.4078 175.5829 241 173 C240.2102 167.9982 239.9528 163.0025 242 160 C244.7749 155.9301 249.6044 152.086 256 151 C272.0628 148.2724 276.601 149.5569 295 151 C300.8092 151.4556 303.8519 152.7514 307 155 C308.3319 155.9514 308.9008 158.1227 309 161 C309.8501 185.6536 312.2179 208.3905 309 213 C307.3397 215.3783 286.75 215.883 272 214 C267.6422 213.4437 264.64 210.6554 262 207 C259.5559 203.6159 259 196 259 196 "/>
<path id="1" d="M280 149 C280 149 281.2459 145.0155 283 144 C288.7948 140.6451 292.0659 141.467 299 138 C301.1897 136.9051 301.3609 136.2128 303 134 C311.2042 122.9243 312.038 122.8051 319 111 C323.3203 103.6743 323.3928 103.1691 326 95 C330.7975 79.9677 331.9313 79.257 334 64 C335.8054 50.6854 335.0539 47.2412 334 36 C333.8389 34.2812 331 32 331 32 "/>
<path id="2" d="M311 181 C311 181 310.3316 178.1459 311 177 C313.0192 173.5386 314.008 172.1289 318 169 C331.9761 158.0457 334.2094 151.0646 348 148 C375.5369 141.8807 417 147 417 147 "/>
<path id="3" d="M226 193 C226 193 213.515 188.326 207 189 C203.2409 189.3889 200.7478 192.018 197 196 C193.4269 199.7965 191.9972 201.3463 191 206 C189.4095 213.4223 189.4197 217.4156 191 224 C191.741 227.0874 194.612 230.5821 197 231 C208.2376 232.9666 220.7053 232.8478 231 231 C232.8943 230.66 235.1584 227.198 236 224 C237.2144 219.3851 237.7361 216.3402 236 212 C232.7015 203.7537 224 194 224 194 "/>
<path id="4" d="M226 196 C226 196 230.6332 196.2744 233 195 C235.8982 193.4394 235.7134 191.0757 239 189 C244.6367 185.44 252 183 252 183 "/>
<path id="5" d="M234 207 C234 207 240.3507 199.3901 246 197 C251.0201 194.8761 260 196 260 196 "/>
<path id="6" d="M189 222 C189 222 176.6624 221.0793 165 222 C158.0818 222.5462 156.6743 222.2679 151 225 C144.4548 228.1514 142.1437 229.5477 138 235 C133.923 240.3645 133.1421 242.7668 132 250 C130.3528 260.4321 129.6439 264.9892 132 273 C133.4281 277.8556 137.7795 283.0792 142 284 C157.3907 287.358 167.0459 285.4072 187 285 C188.7926 284.9634 189.5264 284.3508 191 283 C195.105 279.2371 197.6046 278.0118 199 274 C200.658 269.2332 198.0976 266.3165 199 260 C199.4788 256.6484 201.7688 256.2368 202 253 C202.6707 243.6102 201 232 201 232 "/>
<path id="7" d="M129 257 C129 257 129.0295 258.9967 129 259 C125.4001 259.4 112.5546 258.081 102 260 C99.3172 260.4878 99.2356 263.3822 96 265 C86.8643 269.5678 84.9078 268.228 76 273 C71.6902 275.3088 70.1837 276.0694 68 280 C61.1946 292.2498 60.0187 294.6477 56 309 C53.3226 318.5623 53.7465 319.8584 54 330 C54.2308 339.2339 54.1213 340.8873 57 349 C59.1289 354.9997 60.2142 356.3852 65 361 C73.4275 369.1265 75.2652 370.6616 85 376 C89.172 378.2879 90.547 377.6365 96 378 C105.306 378.6204 106.9586 380.1061 115 378 C125.9537 375.1312 127.4137 373.1469 138 367 C142.3461 364.4765 142.8881 363.83 146 360 C149.011 356.2941 150.6551 355.1393 151 351 C153.3108 323.2703 152 288 152 288 "/>
<path id="8" d="M133 245 C133 245 122.6653 240.9481 119 236 C114.7531 230.2666 114.6443 226.7698 113 218 C111.7963 211.5803 113.0423 204.0676 113 204 C112.9913 203.9861 110.0572 209.4857 108 210 C101.9866 211.5033 97.9164 210.9553 89 210 C84.6256 209.5313 83.6797 209.3169 80 207 C70.9384 201.2945 70.1203 200.4957 62 193 C57.4752 188.8233 54 183 54 183 "/>
<path id="9" d="M189 207 C189 207 181.2608 208.5978 177 207 C171.5408 204.9528 170.2031 202.914 165 198 C161.5595 194.7506 160.6671 194.0752 159 190 C156.5718 184.0644 157.5614 177.041 156 176 C153.7212 174.4808 145.9253 177.6317 138 176 C130.3207 174.419 127.6858 173.7381 122 169 C114.4479 162.7066 108 151 108 151 "/>
<path id="10" d="M206 191 C206 191 201.9892 186.4512 201 182 C198.2934 169.8202 199.6208 158.6467 198 155 C197.7712 154.4852 189.9217 156.0369 189 155 C186.2092 151.8604 183.2946 145.6921 182 137 C180.0285 123.7628 180.6177 121.1317 182 108 C182.4491 103.734 186 99 186 99 "/>
<path id="11" d="M236 230 C236 230 240.1451 238.2443 243 239 C251.2156 241.1747 263.0633 238.0432 270 239 C270.6556 239.0904 270.8817 242.3978 272 243 C275.3963 244.8288 277.6184 245.6331 283 246 C298.85 247.0807 308.9088 246.6257 316 246 C316.2718 245.976 317 243 317 243 "/>
<path id="12" d="M211 235 C211 235 209.5145 241.8736 211 246 C213.3282 252.4672 214.9353 254.0911 220 260 C223.432 264.004 224.5498 265.5166 229 267 C237.6386 269.8795 247.1155 268.4891 250 270 C250.5355 270.2805 248.9328 275.3319 250 278 C251.254 281.135 253.6423 284.6332 256 285 C268.9711 287.0177 277.9 288.0339 295 285 C305.9403 283.059 318 274 318 274 "/>
<path id="13" d="M181 287 C181 287 181.5862 294.7242 184 301 C186.3402 307.0846 186.6583 308.832 191 313 C197.9204 319.6436 199.8513 320.4256 209 325 C215.0991 328.0496 216.1377 328.2375 223 329 C233.4518 330.1613 243.1755 328.3918 245 329 C245.1106 329.0369 243.5691 335.7127 244 336 C247.1342 338.0894 255.2734 341.8082 266 343 C285.308 345.1453 288.9624 345.5316 307 343 C314.533 341.9427 323 335 323 335 "/>
</g>
</g>
</svg>
