<?xml version="1.0" encoding="utf-8"?>
<!DOCTYPE svg PUBLIC "-//W3C//DTD SVG 1.1//EN" "http://www.w3.org/Graphics/SVG/1.1/DTD/svg11.dtd">
<svg viewBox="0 0 800 800" preserveAspectRatio="xMinYMin meet" xmlns="http://www.w3.org/2000/svg" version="1.1">
<g fill="none" stroke="black" stroke-linecap="round" stroke-linejoin="round" stroke-width="0.48003">
<g transform="translate(87.52,212.512) scale(6.2496) translate(-111,-134.4167)">
<path id="0" d="M137 143.4167 C137 143.4167 134.1173 138.8769 132 138.4167 C125.7389 137.0556 115.6735 137.1836 114 138.4167 C112.948 139.1918 111.5696 150.106 113 152.4167 C114.6748 155.1221 119.9034 157.1863 127 159.4167 C136.75 162.481 147.1552 163.8613 148 163.4167 C148.24 163.2903 148.5219 153.4516 146 149.4167 C143.0027 144.621 133 139.4167 133 139.4167 "/>
<path id="1" d="M187 147.4167 C187 147.4167 180.4202 141.5007 175 140.4167 C167.8 138.9767 159.9702 139.1593 157 141.4167 C153.7258 143.9051 152.6162 150.8205 150 159.4167 C149.3502 161.5518 149.3557 163.3858 150 164.4167 C150.7893 165.6795 152.6732 166.9181 155 167.4167 C158.7112 168.2119 160.1743 168.3168 164 167.4167 C167.8007 166.5224 170.2442 165.3676 172 163.4167 C173.0817 162.2148 171.8088 158.8461 173 157.4167 C175.3534 154.5926 179.4286 154.2452 182 151.4167 C183.0714 150.2381 183 146.4167 183 146.4167 "/>
<path id="2" d="M184 147.4167 C184 147.4167 185.3946 150.2328 185 151.4167 C183.9596 154.5379 180.9787 155.6974 180 159.4167 C178.8443 163.8083 178.9645 169.5882 180 170.4167 C182.8242 172.676 190.161 173.8297 200 175.4167 C205.2017 176.2557 210.4425 175.9742 211 175.4167 C211.4561 174.9605 211.6521 168.7209 210 165.4167 C208.1118 161.6404 204.4583 161.2407 202 157.4167 C200.7575 155.4839 201.8759 151.9519 201 151.4167 C197.2359 149.1164 184 146.4167 184 146.4167 "/>
<path id="3" d="M197 148.4167 L193 134.4167 "/>
<path id="4" d="M205 153.4167 L211 136.4167 "/>
<path id="5" d="M202 164.4167 L201 162.4167 "/>
<path id="6" d="M121 159.4167 C121 159.4167 120.1055 164.2585 118 167.4167 C115.5436 171.1013 111 174.4167 111 174.4167 "/>
<path id="7" d="M131 165.4167 L126 179.4167 "/>
<path id="8" d="M190 172.4167 L190 194.4167 "/>
<path id="9" d="M205 176.4167 L206 189.4167 "/>
</g>
</g>
</svg>
