<?xml version="1.0" encoding="utf-8"?>
<!DOCTYPE svg PUBLIC "-//W3C//DTD SVG 1.1//EN" "http://www.w3.org/Graphics/SVG/1.1/DTD/svg11.dtd">
<svg viewBox="0 0 800 800" preserveAspectRatio="xMinYMin meet" xmlns="http://www.w3.org/2000/svg" version="1.1">
<g fill="none" stroke="black" stroke-linecap="round" stroke-linejoin="round" stroke-width="2.0833">
<g transform="translate(87.52,192.64) scale(1.44) translate(-176,-174.1333)">
<path id="0" d="M236 190.1333 C236 190.1333 244.1417 188.4595 250 190.1333 C259.983 192.9856 261.8582 194.2354 271 200.1333 C276.4786 203.6679 276.7889 204.694 281 210.1333 C288.557 219.8945 286.9351 222.8312 295 231.1333 C302.7918 239.1543 305.0302 241.0548 315 245.1333 C324.9346 249.1975 327.5993 246.0746 339 249.1333 C347.5838 251.4363 347.961 255.3158 356 256.1333 C375.0167 258.0672 377.58 254.1453 398 255.1333 C407.8292 255.6089 408.1187 258.6266 418 259.1333 C446.365 260.5879 448.5587 257.5653 476 259.1333 C481.7857 259.4639 484.4814 260.1174 488 263.1333 C492.7892 267.2384 497 277.1333 497 277.1333 "/>
<path id="1" d="M497 272.1333 C497 272.1333 502.5809 283.6909 510 292.1333 C516.3889 299.4034 525.9091 305.0425 526 305.1333 C526.0094 305.1427 522.9986 305.1325 523 305.1333 C523.0059 305.1367 528.9335 306.2287 533 309.1333 C548.995 320.5583 548.1669 324.5525 565 335.1333 C582.1714 345.9268 586.9314 343.4922 603 353.1333 C607.083 355.5831 608.1187 358.1019 610 362.1333 C610.9202 364.1052 610.3629 367.9379 610 368.1333 C608.4791 368.9523 601.3627 370.733 597 369.1333 C589.6099 366.4236 588.8169 361.7867 580 357.1333 C571.4245 352.6074 569.5015 354.7889 561 350.1333 C549.1741 343.6573 548.8024 342.8706 538 334.1333 C514.994 315.5256 510.7984 309.5945 493 295.1333 C492.3037 294.5676 490 295.1333 490 295.1333 "/>
<path id="2" d="M497 300.1333 C497 300.1333 496.6228 309.7573 493 316.1333 C485.0831 330.067 476.3261 331.1551 472 344.1333 C467.2619 358.3476 471 382.1333 471 382.1333 "/>
<path id="3" d="M234 187.1333 C234 187.1333 231.2182 182.6089 228 180.1333 C225.3689 178.1094 221 177.1333 221 177.1333 "/>
<path id="4" d="M219 177.1333 C219 177.1333 217.6158 185.5192 219 190.1333 C219.937 193.2567 225 197.1333 225 197.1333 "/>
<path id="5" d="M225 202.1333 C225 202.1333 201.8696 210.6244 197 215.1333 C195.7702 216.272 199.105 225.4255 198 227.1333 C196.7575 229.0535 190.6418 228.7575 186 232.1333 C180.6565 236.0195 178.6597 238.3459 176 243.1333 C174.8754 245.1575 175.1675 247.6358 176 250.1333 C176.7532 252.393 180 255.1333 180 255.1333 "/>
<path id="6" d="M184 257.1333 C184 257.1333 185.9339 265.7897 189 270.1333 C190.6585 272.4829 192.7321 273.5109 196 274.1333 C201.8942 275.256 204.7704 275.8765 210 274.1333 C215.9767 272.1411 223 265.1333 223 265.1333 "/>
<path id="7" d="M222 264.1333 C222 264.1333 227.1964 267.5511 232 268.1333 C242.5374 269.4106 244.5159 269.1817 255 268.1333 C258.3276 267.8006 262 265.1333 262 265.1333 "/>
<path id="8" d="M181 254.1333 L185 250.1333 "/>
<path id="9" d="M193 267.1333 C193 267.1333 200.7408 265.8158 207 263.1333 C210.6417 261.5726 214 258.1333 214 258.1333 "/>
<path id="10" d="M205 228.1333 L211 228.1333 "/>
<path id="11" d="M209 229.1333 L214 225.1333 "/>
<path id="12" d="M203 230.1333 L206 230.1333 "/>
<path id="13" d="M252 262.1333 C252 262.1333 257.9294 270.8427 261 279.1333 C262.5661 283.3617 260.3473 285.1668 262 289.1333 C264.8162 295.8923 271 303.1333 271 303.1333 "/>
<path id="14" d="M246 260.1333 C246 260.1333 255.1824 270.1963 261 281.1333 C267.2874 292.9537 271 307.1333 271 307.1333 "/>
<path id="15" d="M283 309.1333 C283 309.1333 274.5155 318.9304 271 327.1333 C269.4809 330.6778 270.9958 337.1208 271 337.1333 C271.0014 337.1375 273 333.1333 273 333.1333 "/>
<path id="16" d="M273 300.1333 C273 300.1333 269.6034 319.2261 273 332.1333 C276.0726 343.8093 288 357.1333 288 357.1333 "/>
<path id="17" d="M289 362.1333 C289 362.1333 288.628 396.4818 286 420.1333 C285.7547 422.3408 284.2981 423.5534 282 425.1333 C277.0175 428.5588 272.1067 428.6755 270 431.1333 C268.9651 432.3407 268.8573 437.4193 270 439.1333 C271.9521 442.0614 274.8817 444.2721 280 446.1333 C290.1254 449.8153 303 451.1333 303 451.1333 "/>
<path id="18" d="M297 443.1333 C297 443.1333 300.1505 443.926 302 443.1333 C309.3453 439.9853 318 434.1333 318 434.1333 "/>
<path id="19" d="M318 414.1333 L316 392.1333 "/>
<path id="20" d="M305 411.1333 C305 411.1333 305.981 417.146 306 417.1333 C306.1013 417.0658 313.0295 410.5921 314 405.1333 C316.386 391.7123 314 372.1333 314 372.1333 "/>
<path id="21" d="M313 365.1333 C313 365.1333 313.3568 360.8861 315 359.1333 C319.6296 354.1951 322.8003 354.6067 328 349.1333 C331.6526 345.2885 332.248 344.1945 334 339.1333 C336.4717 331.9928 337.0133 323.1303 337 323.1333 C336.9594 323.1427 321.0004 342.1327 321 342.1333 C320.9999 342.1335 327 337.1333 327 337.1333 "/>
<path id="22" d="M339 338.1333 C339 338.1333 353.0432 343.641 367 346.1333 C380.4487 348.5349 382.0641 349.2113 395 348.1333 C404.5276 347.3394 405.9562 346.3074 415 342.1333 C424.7466 337.6349 434 330.1333 434 330.1333 "/>
<path id="23" d="M433 317.1333 C433 317.1333 428.9709 324.3373 428 331.1333 C426.6144 340.8326 425.2648 344.4749 428 352.1333 C431.4329 361.7454 438.6908 363.6531 443 373.1333 C444.8589 377.2228 443 385.1333 443 385.1333 "/>
<path id="24" d="M439 394.1333 L440 426.1333 "/>
<path id="25" d="M437 437.1333 C437 437.1333 425.8939 437.0511 424 438.1333 C423.3023 438.532 422.5815 443.041 423 445.1333 C423.2215 446.241 424.8222 448.0324 426 448.1333 C437.5718 449.1252 444.6181 447.3686 458 448.1333 C459.3023 448.2078 461 450.1333 461 450.1333 "/>
<path id="26" d="M438 432.1333 C438 432.1333 426.6729 430.1899 424 431.1333 C422.9285 431.5115 421.3968 434.9591 421 438.1333 C420.5225 441.9531 420.3348 444.4968 422 447.1333 C424.93 451.7725 427.3024 453.8097 433 457.1333 C438.1899 460.1608 439.6408 460.2249 446 461.1333 C453.0286 462.1374 453.728 461.7393 461 461.1333 C465.444 460.763 466.9561 460.5169 470 459.1333 C471.0333 458.6637 472 456.1333 472 456.1333 "/>
<path id="27" d="M474 391.1333 L472 391.1333 "/>
<path id="28" d="M469 391.1333 C469 391.1333 454.9828 396.6592 452 401.1333 C449.5299 404.8385 451 418.1333 451 418.1333 "/>
<path id="29" d="M469 398.1333 C469 398.1333 462.4508 406.0605 461 413.1333 C458.9076 423.3339 459.2382 426.8559 461 437.1333 C461.883 442.2843 465.3678 442.9646 467 448.1333 C468.0126 451.34 467.4458 455.9447 467 456.1333 C463.4081 457.653 441 459.1333 441 459.1333 "/>
<path id="30" d="M285 423.1333 C285 423.1333 284.2093 421.1333 284 421.1333 C281.488 421.1333 275.2074 421.4227 272 423.1333 C270.4781 423.945 269.5694 426.2864 269 429.1333 C268.2236 433.0155 267.739 436.4844 269 438.1333 C271.5137 441.4205 275.3491 443.283 282 446.1333 C288.7665 449.0333 297 450.1333 297 450.1333 "/>
<path id="31" d="M273 434.1333 L283 435.1333 "/>
<path id="32" d="M280 440.1333 L289 440.1333 "/>
<path id="33" d="M420 439.1333 L440 440.1333 "/>
<path id="34" d="M424 452.1333 C424 452.1333 438.6535 447.8668 439 448.1333 C439.2548 448.3293 436.9864 462.1299 437 462.1333 C437.1017 462.1588 451 451.1333 451 451.1333 "/>
<path id="35" d="M192 267.1333 C192 267.1333 191.9078 270.3585 193 272.1333 C195.3939 276.0234 200 280.1333 200 280.1333 "/>
<path id="36" d="M192 271.1333 C192 271.1333 194.3414 277.4077 196 278.1333 C198.8182 279.3663 204.0003 279.657 208 278.1333 C212.0156 276.6036 217 270.1333 217 270.1333 "/>
<path id="37" d="M192 272.1333 C192 272.1333 202.86 270.7741 208 267.1333 C212.3399 264.0592 216 255.1333 216 255.1333 "/>
<path id="38" d="M224 177.1333 L244 191.1333 "/>
<path id="39" d="M221 183.1333 C221 183.1333 217.3881 188.2526 217 192.1333 C216.5541 196.5921 219 203.1333 219 203.1333 "/>
<path id="40" d="M225 182.1333 C225 182.1333 228.3779 189.0624 232 194.1333 C232.8827 195.3691 234.9978 196.137 235 196.1333 C235.0765 196.0058 236.1421 191.4175 235 189.1333 C231.6553 182.444 224.0018 174.1346 224 174.1333 C223.9991 174.1327 225.2962 179.8846 228 184.1333 C231.9577 190.3525 238 196.1333 238 196.1333 "/>
<path id="41" d="M466 261.1333 C466 261.1333 472.4808 261.0475 477 263.1333 C484.4348 266.5648 484.8366 267.7608 492 273.1333 C500.7553 279.6998 501.0056 279.7785 509 287.1333 C513.3557 291.1406 514.628 292.2789 517 296.1333 C517.6815 297.2407 517 300.1333 517 300.1333 "/>
<path id="42" d="M478 260.1333 C478 260.1333 486.8821 260.2088 492 263.1333 C498.979 267.1213 506 276.1333 506 276.1333 "/>
</g>
</g>
</svg>
