<?xml version="1.0" encoding="utf-8"?>
<!DOCTYPE svg PUBLIC "-//W3C//DTD SVG 1.1//EN" "http://www.w3.org/Graphics/SVG/1.1/DTD/svg11.dtd">
<svg viewBox="0 0 800 800" preserveAspectRatio="xMinYMin meet" xmlns="http://www.w3.org/2000/svg" version="1.1">
<g fill="none" stroke="black" stroke-linecap="round" stroke-linejoin="round" stroke-width="2.7938">
<g transform="translate(87.52,237.854) scale(1.0738) translate(-52,-135.1333)">
<path id="0" d="M88 157.1333 C88 157.1333 96 151.1333 96 151.1333 C95.9999 151.1334 79.1274 166.9634 79 167.1333 C78.9834 167.1555 83.5763 166.7096 84 167.1333 C84.5932 167.7265 85.3871 172.101 85 173.1333 C84.7591 173.7757 81.2409 174.491 81 175.1333 C80.6129 176.1657 82.2148 180.8111 82 181.1333 C81.8657 181.3347 77.5388 180.9178 77 181.1333 C76.9138 181.1678 77.2092 183.0138 77 183.1333 C73.809 184.9568 66.9316 185.3983 63 189.1333 C59.3379 192.6124 60.091 197.9184 57 202.1333 C55.9934 203.506 51.9953 204.1239 52 204.1333 C52.0986 204.3306 59.9302 210.0442 61 210.1333 C61.2909 210.1576 64 205.1333 64 205.1333 "/>
<path id="1" d="M65 208.1333 C65 208.1333 68.6274 213.0579 72 215.1333 C73.9731 216.3475 75.023 215.9766 78 216.1333 C84.3941 216.4699 87.0521 217.2945 91 216.1333 C92.6613 215.6447 95 211.1333 95 211.1333 "/>
<path id="2" d="M63 212.1333 C63 212.1333 62.2121 217.6685 63 222.1333 C63.5933 225.4951 63.9897 226.3189 66 229.1333 C68.6385 232.8272 69.3154 233.6769 73 236.1333 C76.1582 238.2388 77.1789 238.8994 81 239.1333 C100.1438 240.3054 105.3519 241.4184 122 239.1333 C126.4506 238.5225 132 232.1333 132 232.1333 "/>
<path id="3" d="M133 158.1333 C133 158.1333 127.8034 166.2813 128 167.1333 C128.1465 167.7682 135.6493 171.2502 136 171.1333 C136.1753 171.0749 137.2797 164.4596 137 164.1333 C136.7268 163.8146 130 164.1333 130 164.1333 "/>
<path id="4" d="M81 159.1333 C81 159.1333 83.8736 163.8575 86 165.1333 C87.2363 165.8751 90.8887 165.393 91 165.1333 C91.7494 163.3848 92 151.1333 92 151.1333 C92 151.1333 92.4389 153.6944 92 154.1333 C90.098 156.0353 84 159.1333 84 159.1333 "/>
<path id="5" d="M92 151.1333 C92 151.1333 92.9463 148.5285 94 148.1333 C102.1767 145.0671 105.2063 143.1613 116 142.1333 C135.6062 140.2661 139.8897 139.83 157 142.1333 C161.9838 142.8042 163.721 148.0073 168 149.1333 C170.4903 149.7887 174.0567 148.7528 176 147.1333 C178.1444 145.3464 178.3115 139.7412 180 139.1333 C185.2423 137.2461 192.4821 137.7784 201 138.1333 C202.2531 138.1855 203.5704 139.1667 204 140.1333 C204.9595 142.2922 205.3312 146.2502 205 147.1333 C204.875 147.4666 201.9243 147.209 201 148.1333 C198.5967 150.5366 198.1061 154.8373 196 156.1333 C194.3021 157.1782 188 156.1333 188 156.1333 "/>
<path id="6" d="M90 152.1333 C90 152.1333 86.3671 150.9592 86 150.1333 C85.3199 148.603 84.934 144.7323 86 143.1333 C88.2335 139.783 91.48 136.777 96 135.1333 C100.2017 133.6055 104.7932 133.8129 108 135.1333 C110.1064 136.0007 113 142.1333 113 142.1333 "/>
<path id="7" d="M73 189.1333 C73 189.1333 71.0505 189.0154 71 189.1333 C70.562 190.1554 69.3476 193.6867 70 196.1333 C70.9043 199.5246 73.8198 203.6416 75 204.1333 C75.8143 204.4726 79.8477 203.0899 82 201.1333 C84.2931 199.0487 86 194.1333 86 194.1333 "/>
<path id="8" d="M78 205.1333 L81 217.1333 "/>
<path id="9" d="M193 159.1333 C193 159.1333 202.1827 170.6021 209 171.1333 C264.5527 175.4621 347 171.1333 347 171.1333 "/>
<path id="10" d="M119 253.1333 L117 262.1333 "/>
<path id="11" d="M122 242.1333 C122 242.1333 120.3642 247.2149 121 248.1333 C122.6679 250.5425 127.2475 251.3809 131 255.1333 C132.9866 257.1199 134.3387 260.343 134 261.1333 C133.1481 263.1212 125.7224 265.7184 125 269.1333 C121.7598 284.4508 126.4537 292.1646 123 313.1333 C119.6517 333.4621 114.9155 334.556 111 354.1333 C109.755 360.3584 112 368.1333 112 368.1333 "/>
<path id="12" d="M345 173.1333 C345 173.1333 346.2703 171.1422 347 171.1333 C375.8306 170.7817 408.6187 170.1402 427 172.1333 C427.8874 172.2296 428.2235 177.9127 430 180.1333 C431.0249 181.4145 433.3785 180.5545 435 182.1333 C450.6557 197.377 456.2428 203.5947 468 217.1333 C468.5541 217.7714 467.448 219.4089 468 220.1333 C473.5549 227.4241 475.2508 233.068 484 238.1333 C500.4526 247.6585 504.488 246.6559 525 253.1333 C532.6005 255.5335 533.0686 255.4724 541 256.1333 C550.7617 256.9468 552.0953 258.2877 561 256.1333 C581.3156 251.2183 584.4958 251.0191 603 241.1333 C619.2133 232.4714 633.3434 217.4087 634 217.1333 C634.0738 217.1024 635.0163 223.56 634 228.1333 C633.2711 231.4132 632.5573 232.3714 630 235.1333 C620.576 245.3112 620.2248 249.1908 609 255.1333 C589.2887 265.5687 584.881 266.8764 562 271.1333 C544.1445 274.4553 540.8226 274.2226 523 271.1333 C505.5187 268.1032 503.9978 265.912 487 258.1333 C475.0844 252.6804 474.3467 252.1285 464 244.1333 C452.8467 235.5149 452.1805 234.8439 443 224.1333 C434.5788 214.3086 428 202.1333 428 202.1333 "/>
<path id="13" d="M153 300.1333 C153 300.1333 149.5028 303.4264 148 307.1333 C142.3308 321.1174 140.5365 322.3757 138 337.1333 C135.2674 353.0323 138.7986 355.3056 137 371.1333 C136.4488 375.9839 133 381.1333 133 381.1333 "/>
<path id="14" d="M145 322.1333 C145 322.1333 149.0045 321.2256 152 322.1333 C164.423 325.8979 165.2101 328.6161 178 332.1333 C184.3505 333.8797 192 333.1333 192 333.1333 "/>
<path id="15" d="M198 326.1333 C198 326.1333 198.7109 333.2897 198 336.1333 C197.8045 336.9153 195.2933 337.1695 195 338.1333 C192.7628 345.4841 191.7458 348.6927 191 359.1333 C189.2808 383.2028 190 408.1333 190 408.1333 "/>
<path id="16" d="M242 320.1333 C242 320.1333 237.6404 324.5105 236 329.1333 C232.4958 339.0088 234.4677 340.7302 231 351.1333 C228.1184 359.7782 226.1234 359.4206 223 368.1333 C216.7205 385.6497 215.5145 386.5608 212 404.1333 C210.2519 412.8736 212.3659 420.8161 212 423.1333 C211.9909 423.1911 209 423.1333 209 423.1333 "/>
<path id="17" d="M111 363.1333 C111 363.1333 111.7391 373.8949 111 383.1333 C110.8093 385.5168 109.8673 387.5138 109 388.1333 C108.2217 388.6893 105.4571 387.4048 104 388.1333 C101.8143 389.2262 99.6381 390.9639 99 393.1333 C97.8167 397.1566 97.5748 401.9267 99 405.1333 C100.1348 407.6867 103.4478 410.5244 107 411.1333 C117.6228 412.9544 123.4609 412.4507 134 411.1333 C136.1469 410.865 137.9126 409.3081 139 407.1333 C142.0949 400.9435 144.7544 393.612 144 391.1333 C143.445 389.3097 132 384.1333 132 384.1333 "/>
<path id="18" d="M196 404.1333 C196 404.1333 184.9838 409.8605 183 414.1333 C180.7732 418.9296 182.3508 425.6413 183 432.1333 C183.0793 432.9268 184.173 433.9955 185 434.1333 C188.5443 434.7241 192.0768 435.0328 195 434.1333 C196.2368 433.7528 197.9488 430.1333 198 430.1333 C198.0171 430.1333 198.3391 433.7774 199 434.1333 C201.8533 435.6697 210.5501 437.3378 211 437.1333 C211.1115 437.0826 209.6613 429.5204 210 429.1333 C210.3327 428.7531 217.6098 429.6211 218 429.1333 C218.6098 428.3711 218.76 423.6934 218 419.1333 C217.354 415.2573 216.2551 412.3884 215 411.1333 C214.4295 410.5629 210 411.1333 210 411.1333 "/>
<path id="19" d="M104 392.1333 C104 392.1333 101.3253 400.8605 102 405.1333 C102.3611 407.4204 104.3181 409.4092 107 411.1333 C110.3092 413.2606 115.6725 414.3153 116 414.1333 C116.1985 414.0231 115.9782 406.1274 116 406.1333 C116.1397 406.1714 122.3479 414.1232 127 417.1333 C128.5406 418.1302 132.6871 417.6027 133 417.1333 C134.0429 415.5689 134.3696 405.6491 135 405.1333 C135.3491 404.8477 140.4466 408.1333 144 408.1333 C147.1586 408.1333 151.1223 406.4498 152 405.1333 C152.9479 403.7115 153.261 397.7823 152 396.1333 C149.4863 392.8462 139 388.1333 139 388.1333 "/>
<path id="20" d="M373 244.1333 C373 244.1333 373.5717 251.5482 376 257.1333 C378.2143 262.2262 379.0809 262.7243 383 267.1333 C386.8654 271.4819 387.1164 272.0811 392 275.1333 C402.6393 281.7829 404.9691 280.8176 415 287.1333 C417.3466 288.6108 419 292.1333 419 292.1333 "/>
<path id="21" d="M436 219.1333 C436 219.1333 438.6315 223.2271 439 227.1333 C441.0105 248.4444 437.2611 251.4258 441 272.1333 C443.3892 285.3656 449.4873 286.1131 452 299.1333 C454.5884 312.5457 453.1138 315.7679 452 329.1333 C451.768 331.9178 449.1154 332.4217 449 335.1333 C448.2287 353.2583 450 376.1333 450 376.1333 "/>
<path id="22" d="M418 292.1333 C418 292.1333 424.3081 301.0033 425 309.1333 C428.0312 344.7502 424.0099 368.4434 426 386.1333 C426.1007 387.028 433.7116 389.3641 434 389.1333 C434.5563 388.6883 435.9528 378.2278 436 378.1333 C436.0079 378.1176 436.9912 380.713 438 381.1333 C441.3626 382.5344 447.7725 383.3861 448 383.1333 C448.3608 382.7325 447.9069 373.4912 447 371.1333 C446.8141 370.65 443 370.1333 443 370.1333 "/>
<path id="23" d="M243 319.1333 C243 319.1333 253.283 320.7551 262 319.1333 C273.6938 316.9577 277.3877 317.7059 286 311.1333 C311.7919 291.4501 311.2534 279.4336 338 261.1333 C354.5248 249.8269 381 246.1333 381 246.1333 "/>
<path id="24" d="M342 263.1333 C342 263.1333 340.8831 268.2864 342 272.1333 C345.0543 282.6538 348.5551 283.5387 351 294.1333 C352.7263 301.6139 353.1094 303.7082 351 311.1333 C341.3089 345.246 326 382.1333 326 382.1333 "/>
<path id="25" d="M384 280.1333 C384 280.1333 376.5395 292.2976 372 305.1333 C362.2188 332.7906 365.5514 335.7547 355 362.1333 C350.2039 374.1236 343.4545 375.567 340 385.1333 C338.5074 389.2666 342.5726 397.1312 342 398.1333 C341.6757 398.7008 334.2525 399.8264 332 399.1333 C330.9453 398.8088 330.2296 394.6063 329 394.1333 C326.5024 393.1727 320.5155 395.0174 319 394.1333 C318.0781 393.5956 316.4759 388.496 317 387.1333 C317.7311 385.2324 320.4194 383.1794 324 381.1333 C326.7958 379.5357 331 379.1333 331 379.1333 "/>
<path id="26" d="M217 175.1333 C217 175.1333 217.5018 183.3428 219 191.1333 C219.9671 196.1624 221.0471 199.2275 222 201.1333 C222.0829 201.2991 223.9998 201.1255 224 201.1333 C224.2498 209.1255 223.5019 257.1645 224 265.1333 C224.0019 265.1645 226.8541 265.8017 228 265.1333 C231.4614 263.1142 234.0574 261.8798 236 258.1333 C240.0272 250.3665 241.0546 247.9028 242 238.1333 C243.9294 218.1964 244.0907 216.1443 242 196.1333 C240.7191 183.8736 235 171.1333 235 171.1333 "/>
<path id="27" d="M261 172.1333 C261 172.1333 270.9884 195.7458 276 219.1333 C279.7569 236.6657 278.9642 256.0682 279 256.1333 C279.0117 256.1546 285.2453 247.2487 287 239.1333 C288.8737 230.4676 286.7525 221.6086 287 219.1333 C287.0025 219.1086 288.9975 219.1581 289 219.1333 C289.2475 216.6581 290.6143 208.4153 289 199.1333 C286.7892 186.4211 283.0394 178.4357 281 173.1333 C280.946 172.9931 279 173.1333 279 173.1333 "/>
<path id="28" d="M308 174.1333 C308 174.1333 314.0059 199.8496 317 225.1333 C318.4377 237.2736 316.7437 248.9542 317 250.1333 C317.0094 250.1764 321.4025 249.2537 322 248.1333 C323.8694 244.6282 324.6693 241.5264 325 235.1333 C326.1312 213.2643 327.3525 210.2975 325 190.1333 C324.1731 183.046 318 175.1333 318 175.1333 "/>
<path id="29" d="M348 174.1333 C348 174.1333 351.5622 177.2874 352 180.1333 C355.0852 200.1872 353.8052 211.083 356 226.1333 C356.1148 226.9208 358.988 228.1733 359 228.1333 C359.2496 227.3015 361.6307 217.0265 362 206.1333 C362.6176 187.9141 361 169.1333 361 169.1333 "/>
<path id="30" d="M387 174.1333 C387 174.1333 391.6489 185.3245 393 196.1333 C394.5441 208.4863 392.3269 212.7102 393 222.1333 C393.0555 222.91 394.75 224.1333 395 224.1333 C395.25 224.1333 396.9628 222.8956 397 222.1333 C397.6914 207.9603 398.7361 201.1883 397 183.1333 C396.3999 176.8924 392 170.1333 392 170.1333 "/>
<path id="31" d="M461 206.1333 L447 223.1333 "/>
<path id="32" d="M465 213.1333 C465 213.1333 465.2311 219.3244 465 220.1333 C464.9811 220.1994 463.0683 219.9831 463 220.1333 C462.0711 222.1768 462.3292 227.1738 460 231.1333 C458.1538 234.2718 453.0039 237.1285 453 237.1333 C452.9989 237.1347 456 236.1333 456 236.1333 "/>
<path id="33" d="M486 237.1333 L482 254.1333 "/>
<path id="34" d="M490 245.1333 L488 255.1333 "/>
<path id="35" d="M525 253.1333 L525 273.1333 "/>
<path id="36" d="M532 258.1333 L534 273.1333 "/>
<path id="37" d="M568 257.1333 L568 268.1333 "/>
<path id="38" d="M573 260.1333 L575 271.1333 "/>
<path id="39" d="M601 244.1333 L607 257.1333 "/>
<path id="40" d="M608 240.1333 L610 251.1333 "/>
<path id="41" d="M550 259.1333 C550 259.1333 553.8784 262.4415 555 265.1333 C555.8325 267.1314 555 271.1333 555 271.1333 "/>
<path id="42" d="M507 249.1333 C507 249.1333 508.0261 256.029 507 260.1333 C506.4403 262.372 503 265.1333 503 265.1333 "/>
<path id="43" d="M435 229.1333 C435 229.1333 428.0409 238.6231 421 244.1333 C417.8958 246.5627 411.9996 247.1333 412 247.1333 C412.0007 247.1334 422.6214 247.9154 428 245.1333 C434.2279 241.912 441 232.1333 441 232.1333 "/>
<path id="44" d="M440 253.1333 C440 253.1333 420.0114 266.1154 420 266.1333 C419.9955 266.1405 427.6796 266.1601 433 264.1333 C436.9765 262.6185 441 258.1333 441 258.1333 "/>
<path id="45" d="M162 173.1333 C162 173.1333 162.7116 176.3363 162 177.1333 C153.7595 186.3627 139.312 197.7809 137 201.1333 C136.913 201.2595 139.8031 205.2884 142 206.1333 C144.5387 207.1097 148.2047 207.5507 150 206.1333 C162.0472 196.6224 166.4047 190.9646 180 176.1333 C182.0688 173.8764 183 170.1333 183 170.1333 C183 170.1334 173.6015 195.7053 170 203.1333 C169.8667 203.4082 167.4081 202.6708 167 203.1333 C162.747 207.9534 159.253 215.3132 155 220.1333 C154.5919 220.5958 152.6456 219.6491 152 220.1333 C149.9554 221.6667 146.9923 226.134 147 226.1333 C147.023 226.1312 155.695 223.4304 163 219.1333 C172.3128 213.6552 172.5468 213.077 181 206.1333 C186.3688 201.7233 187.6824 201.1097 191 196.1333 C192.8578 193.3466 193 188.1333 193 188.1333 C193 188.1337 192.9943 213.0924 188 232.1333 C185.8082 240.4896 180.4056 241.3934 177 249.1333 C175.7525 251.9685 177.9869 254.1727 177 257.1333 C175.9309 260.3407 172.0726 263.964 172 264.1333 C171.9932 264.1492 173.1413 264.4017 174 264.1333 C180.682 262.0452 183.855 263.0271 188 259.1333 C197.6269 250.0899 200.7826 244.5865 207 233.1333 C208.5409 230.2948 206.0156 228.0711 207 224.1333 C208.8048 216.9141 211.8658 216.5053 213 209.1333 C215.6573 191.8608 215 172.1333 215 172.1333 "/>
</g>
</g>
</svg>
