<?xml version="1.0" encoding="utf-8"?>
<!DOCTYPE svg PUBLIC "-//W3C//DTD SVG 1.1//EN" "http://www.w3.org/Graphics/SVG/1.1/DTD/svg11.dtd">
<svg viewBox="0 0 800 800" preserveAspectRatio="xMinYMin meet" xmlns="http://www.w3.org/2000/svg" version="1.1">
<g fill="none" stroke="black" stroke-linecap="round" stroke-linejoin="round" stroke-width="1.8721">
<g transform="translate(179.6615,87.52) scale(1.6025) translate(-139,-85.4167)">
<path id="0" d="M268 257.4167 C268 257.4167 275.767 248.0987 281 246.4167 C285.5436 244.9562 294.7236 246.9009 296 248.4167 C297.5565 250.265 299.1229 260.4127 297 265.4167 C294.1358 272.1679 283.5628 281.3609 282 281.4167 C280.749 281.4613 275.0743 269.3671 269 266.4167 C262.1214 263.0757 256.5239 267.1736 247 264.4167 C239.1522 262.1449 233.7237 258.5036 231 255.4167 C230.1614 254.4663 231.2023 247.8155 232 247.4167 C235.5898 245.6218 246.1681 242.6188 253 244.4167 C259.9031 246.2333 270 257.4167 270 257.4167 "/>
<path id="1" d="M251 211.4167 C251 211.4167 248.5972 205.4371 245 201.4167 C240.5897 196.4875 239.1728 194.3325 234 192.4167 C228.0921 190.2286 224.8587 190.7932 218 191.4167 C215.2957 191.6625 214.688 192.7367 212 194.4167 C210.8907 195.11 210.0865 195.7243 210 196.4167 C209.774 198.2246 210.4348 202.2458 211 202.4167 C219.8616 205.0958 253 209.4167 253 209.4167 "/>
<path id="2" d="M276 216.4167 C276 216.4167 273.6512 200.0728 276 190.4167 C277.1915 185.5183 280.4574 182.1817 285 179.4167 C289.5804 176.6286 296.4424 175.3047 299 176.4167 C301.9517 177.7 305.5736 183.4855 308 189.4167 C309.3091 192.6166 308.864 195.8247 308 198.4167 C307.584 199.6647 306.1134 200.6708 304 201.4167 C290.14 206.3084 274 210.4167 274 210.4167 "/>
<path id="3" d="M283 206.4167 C283 206.4167 284.0012 199.4131 286 193.4167 C286.8566 190.8468 288.9889 188.4241 289 188.4167 C289.0035 188.4143 289.4488 190.2199 289 191.4167 C286.7186 197.5005 283 204.4167 283 204.4167 C283 204.4167 291 185.4167 291 185.4167 "/>
<path id="4" d="M238 204.4167 C238 204.4167 228.9995 202.4157 229 202.4167 C229.0009 202.4184 239.9999 208.4168 240 208.4167 C240.0009 208.4149 231 198.4167 231 198.4167 "/>
<path id="5" d="M269 268.4167 C269 268.4167 266.3475 283.651 267 294.4167 C267.1826 297.4295 268.7039 300.0599 271 301.4167 C277.0801 305.0094 280.0488 305.8931 289 307.4167 C302.8073 309.7668 304.9843 310.0841 318 309.4167 C322.5965 309.181 323.7228 308.0305 328 305.4167 C332.2199 302.8379 333.2868 302.1165 336 298.4167 C338.1509 295.4837 338.51 294.3367 339 290.4167 C340.4115 279.1246 340 266.4167 340 266.4167 "/>
<path id="6" d="M269 268.4167 C269 268.4167 270.1846 274.53 269 279.4167 C266.4218 290.0516 265.8556 293.4192 261 301.4167 C258.9273 304.8305 256.5482 305.3952 252 307.4167 C248.1449 309.1301 247.4968 308.8978 243 309.4167 C234.6622 310.3787 233.4274 311.2737 226 310.4167 C221.8379 309.9364 220.4945 309.1831 217 306.4167 C209.281 300.3058 205.6084 297.9118 202 291.4167 C200.1443 288.0763 202 279.4167 202 279.4167 "/>
<path id="7" d="M309 267.4167 C309 267.4167 315.5714 259.4696 323 253.4167 C328.7068 248.7667 329.1987 247.9672 336 245.4167 C360.2298 236.3305 387 229.4167 387 229.4167 "/>
<path id="8" d="M327 270.4167 C327 270.4167 343.4816 264.563 360 261.4167 C374.5471 258.6458 390 258.4167 390 258.4167 "/>
<path id="9" d="M327 276.4167 L374 286.4167 "/>
<path id="10" d="M238 263.4167 L139 259.4167 "/>
<path id="11" d="M227 278.4167 L177 286.4167 "/>
<path id="12" d="M222 297.4167 L181 321.4167 "/>
<path id="13" d="M300 145.4167 C300 145.4167 304.7623 132.5056 312 122.4167 C320.7162 110.2669 321.9338 109.5344 333 99.4167 C338.8528 94.0655 339.7899 93.8974 347 90.4167 C353.8441 87.1126 359.765 84.5227 362 85.4167 C364.7508 86.517 368.6153 92.6519 372 100.4167 C376.7295 111.2668 376.9432 112.6636 379 124.4167 C380.3046 131.8716 380.8259 133.9246 379 140.4167 C376.8852 147.9358 370 156.4167 370 156.4167 "/>
<path id="14" d="M224 147.4167 C224 147.4167 209.4263 130.7411 194 116.4167 C188.9016 111.6825 188.1691 110.9229 182 108.4167 C173.0877 104.796 168.7388 103.9782 162 103.4167 C160.7623 103.3135 158.6685 104.8122 158 106.4167 C154.6334 114.4965 153.6261 117.1179 152 127.4167 C150.7404 135.3939 149.7407 139.203 152 144.4167 C154.4763 150.1313 165 157.4167 165 157.4167 "/>
<path id="15" d="M225 153.4167 C225 153.4167 225.2316 150.9161 226 150.4167 C232.6421 146.0993 235.2996 144.1121 245 140.4167 C255.7535 136.3201 256.6958 136.2498 268 134.4167 C274.6016 133.3461 276.8504 132.4856 282 134.4167 C290.2761 137.5202 300 146.4167 300 146.4167 "/>
<path id="16" d="M165 169.4167 C165 169.4167 169.3759 182.5606 170 195.4167 C171.8311 233.1381 168.8127 234.4235 170 272.4167 C170.2944 281.8379 169.8583 283.0389 173 291.4167 C178.4052 305.8306 179.5544 307.7482 188 320.4167 C191.7536 326.0471 193.0828 327.6857 199 330.4167 C216.9848 338.7174 220.0696 341.9474 240 344.4167 C273.5791 348.5769 278.1768 346.6969 312 344.4167 C320.176 343.8655 321.8199 342.6859 329 338.4167 C339.3031 332.2905 342.1584 331.4772 349 322.4167 C359.0829 309.0637 364.3147 304.7824 366 289.4167 C371.8972 235.648 366 167.4167 366 167.4167 "/>
<path id="17" d="M316 227.4167 C316 227.4167 318.6067 227.0909 319 226.4167 C320.907 223.1475 320.1573 219.8838 323 215.4167 C326.644 209.6904 327.4138 208.1955 333 204.4167 C343.2868 197.4579 357.0006 192.416 357 192.4167 C356.9988 192.418 334.7452 208.004 316 223.4167 C313.4814 225.4875 312.8527 226.6454 312 229.4167 C311.1745 232.0995 311.9394 236.4292 312 236.4167 C313.3265 236.1422 326.7653 226.9753 341 223.4167 C354.9037 219.9408 372 221.4167 372 221.4167 "/>
<path id="18" d="M176 212.4167 C176 212.4167 200.144 216.2055 216 224.4167 C224.51 228.8237 232.0271 241.3869 232 241.4167 C231.5833 241.875 213.4679 242.694 196 246.4167 C183.4147 249.0988 171 254.4167 171 254.4167 "/>
<path id="19" d="M179 290.4167 C179 290.4167 193.2917 278.7708 206 272.4167 C210.0596 270.3869 217 271.3682 217 271.4167 C217 273.1599 209.9538 289.6248 206 307.4167 C204.126 315.8498 205 325.4167 205 325.4167 "/>
<path id="20" d="M359 303.4167 C359 303.4167 339.5808 297.2877 321 293.4167 C316.3645 292.4509 314.7012 292.4297 311 293.4167 C308.7546 294.0154 306.6686 296.2465 306 297.4167 C305.7632 297.8311 306.3696 300.0728 307 300.4167 C309.7826 301.9344 313.2867 301.003 317 303.4167 C322.1271 306.7493 324.1556 308.0273 327 313.4167 C332.7249 324.2639 336 339.4167 336 339.4167 "/>
<path id="21" d="M363 301.4167 C363 301.4167 360.7603 342.0622 363 381.4167 C364.215 402.7657 365.142 403.6892 370 424.4167 C372.4894 435.038 372.2729 437.7805 378 445.4167 C385.5301 455.4568 393.1632 457.2691 400 464.4167 C400.6829 465.1307 400 468.4167 400 468.4167 "/>
<path id="22" d="M194 321.4167 C194 321.4167 199.0294 335.374 202 349.4167 C204.4646 361.0674 204.6147 361.4736 205 373.4167 C206.1032 407.6152 208.1634 412.54 205 442.4167 C204.2228 449.7572 200.4089 452.748 196 458.4167 C194.8711 459.8681 191 460.4167 191 460.4167 "/>
<path id="23" d="M364 352.4167 C364 352.4167 357.2092 357.8121 350 361.4167 C343.5702 364.6316 343.1135 364.5724 336 366.4167 C316.3129 371.5207 296.0385 375.3663 296 375.4167 C295.9877 375.4327 309.4483 380.3111 323 383.4167 C333.1931 385.7526 333.668 385.8582 344 386.4167 C351.7853 386.8375 360 385.4167 360 385.4167 "/>
<path id="24" d="M371 426.4167 C371 426.4167 369.1196 429.5688 367 430.4167 C358.1431 433.9594 356.5832 434.1779 346 436.4167 C330.7649 439.6395 330.3929 439.8132 315 441.4167 C306.6982 442.2814 302.3964 440.9282 298 441.4167 C297.6839 441.4518 296.9949 443.414 297 443.4167 C301.2033 445.6351 315.1511 454.8318 334 460.4167 C367.8283 470.4399 370.1404 468.7129 405 475.4167 C408.3027 476.0518 410.0965 476.0512 412 475.4167 C412.8158 475.1447 414 472.4167 414 472.4167 "/>
<path id="25" d="M209 359.4167 C209 359.4167 207.7563 361.8479 208 362.4167 C208.5417 363.6806 209.7831 365.3082 212 366.4167 C221.7913 371.3123 223.283 373.5365 234 375.4167 C249.9877 378.2215 268.7797 376.3374 269 376.4167 C269.0444 376.4326 264.3204 381.2978 259 384.4167 C250.2075 389.5709 249.5262 391.0769 240 393.4167 C222.3817 397.744 202 398.4167 202 398.4167 "/>
<path id="26" d="M210 427.4167 C210 427.4167 220.8106 433.4657 231 434.4167 C256.4109 436.7884 284.9606 434.412 285 434.4167 C285.0083 434.4177 278.2683 436.0893 273 439.4167 C259.7926 447.7582 260.2919 449.7769 247 458.4167 C240.5706 462.5957 240.0966 463.1863 233 465.4167 C223.25 468.481 220.5514 470.11 212 469.4167 C205.1477 468.8611 196 462.4167 196 462.4167 "/>
<path id="27" d="M284 138.4167 C284 138.4167 279.6915 146.502 279 153.4167 C278.3398 160.0191 280.9436 168.4355 281 168.4167 C281.6207 168.2098 306 144.4167 306 144.4167 "/>
<path id="28" d="M247 145.4167 C247 145.4167 253 172.4078 253 172.4167 C253 172.42 250.6054 166.2341 247 162.4167 C242.7682 157.9359 236 154.4167 236 154.4167 "/>
</g>
</g>
</svg>
