<?xml version="1.0" encoding="utf-8"?>
<!DOCTYPE svg PUBLIC "-//W3C//DTD SVG 1.1//EN" "http://www.w3.org/Graphics/SVG/1.1/DTD/svg11.dtd">
<svg viewBox="0 0 800 800" preserveAspectRatio="xMinYMin meet" xmlns="http://www.w3.org/2000/svg" version="1.1">
<g fill="none" stroke="black" stroke-linecap="round" stroke-linejoin="round" stroke-width="1.4401">
<g transform="translate(297.9232,87.52) scale(2.0832) translate(-216,-59)">
<path id="0" d="M298 132 C298 132 291.7294 122.4044 284 116 C274.9905 108.535 273.7482 108.3741 263 103 C255.1832 99.0916 254.2279 98.9747 246 97 C242.4304 96.1433 241.5373 96.1578 238 97 C231.7255 98.4939 229.2688 98.5073 225 102 C220.0954 106.0129 217.7935 109.0218 216 115 C214.058 121.4732 215.106 123.954 216 132 C216.5434 136.8907 217.2132 137.1501 219 142 C220.6852 146.5741 220.3397 147.2756 223 151 C227.4552 157.2373 230.8127 156.6254 234 163 C239.9193 174.8386 241.2815 177.4669 243 191 C245.0564 207.194 243.9339 209.2395 242 226 C241.032 234.3894 240.3632 234.9924 237 243 C230.006 259.6524 227.268 260.7217 221 276 C220.0494 278.317 220.154 280.9848 221 282 C223.0211 284.4253 226.3934 287.2726 231 288 C242.7822 289.8604 247.8057 290.9699 259 288 C268.7746 285.4067 272.6761 282.7308 280 275 C288.7301 265.7848 290.052 262.37 295 250 C298.3838 241.5405 298 230 298 230 "/>
<path id="1" d="M285 139 C285 139 285.8103 135.1704 285 134 C282.6939 130.6689 280.91 128.9718 276 126 C262.4928 117.8246 260.0122 114.4522 247 111 C239.3183 108.962 233.8243 110.4725 227 113 C223.7219 114.2141 221.8896 117.0108 220 121 C218.0049 125.2118 218 132 218 132 "/>
<path id="2" d="M282 156 C282 156 281.3621 152.9648 280 152 C271.2049 145.7701 268.1859 142.8946 258 139 C253.468 137.2672 247.6766 138.2262 246 139 C245.4734 139.2431 244.1929 143.448 245 145 C248.8703 152.4429 254.1601 154.3201 259 164 C263.0023 172.0045 262.7423 173.5676 264 183 C265.6712 195.5339 267.0228 197.5377 265 209 C262.9035 220.8801 258.8338 222.1152 255 234 C254.185 236.5264 254.5518 239.6514 255 240 C255.939 240.7303 261.2315 242.02 264 241 C268.1528 239.47 271.2208 237.5477 274 233 C280.9589 221.6127 286 205 286 205 "/>
<path id="3" d="M275 150 C275 150 269.2609 149.0301 268 150 C265.5336 151.8972 262 160 262 160 "/>
<path id="4" d="M279 161 C279 161 278.1566 165.9937 279 170 C280.0161 174.8263 281.3544 178.3544 283 180 C283.7053 180.7053 289 180 289 180 "/>
<path id="5" d="M244 258 C244 258 241.7979 263.7768 242 266 C242.0846 266.9306 243.5728 268.5243 245 269 C248.3301 270.11 250.549 270.2876 254 270 C255.2256 269.8979 256.9492 268.5083 257 268 C257.1724 266.2761 256.4168 261.1988 255 260 C252.8127 258.1492 244 257 244 257 "/>
<path id="6" d="M245 269 C245 269 242.1513 269.5966 242 270 C241.5016 271.329 241.2803 274.3613 242 277 C242.4953 278.8163 244.1107 280.8518 245 281 C247.102 281.3503 252.9819 280.0181 254 279 C254.6479 278.3521 254.2311 272.809 254 272 C253.9811 271.934 252 272 252 272 "/>
<path id="7" d="M244 281 C244 281 241.1782 282.2277 241 283 C240.2718 286.1555 239.854 291.1349 241 294 C241.6668 295.667 244.5366 297.3841 247 298 C249.0235 298.5059 252.6561 297.5732 253 297 C253.6729 295.8785 254.2039 290.7518 253 288 C251.654 284.9234 246 281 246 281 "/>
<path id="8" d="M246 303 C246 303 246.1179 301.0505 246 301 C244.9779 300.562 239.4465 299.7448 239 300 C238.8015 300.1134 238.2714 303.5429 239 305 C240.0928 307.1857 241.8014 309.0839 244 310 C246.1727 310.9053 250.6206 310.4336 251 310 C251.4956 309.4336 251.573 303.2892 251 302 C250.801 301.5524 247 301 247 301 "/>
<path id="9" d="M243 309 C243 309 238.2055 310.2604 238 311 C237.03 314.492 237.4421 326.1322 238 327 C238.132 327.2053 246.5402 325.8622 247 325 C247.843 323.4193 246 312 246 312 "/>
<path id="10" d="M241 328 C241 328 235.9425 329.7433 235 331 C234.3717 331.8378 234.2639 334.3805 235 336 C236.218 338.6796 238.3907 341.5048 240 342 C241.7358 342.5341 247.3468 340.9798 248 340 C248.8907 338.6639 248.5497 332.0156 248 330 C247.9001 329.6335 245 329 245 329 "/>
<path id="11" d="M299 130 C299 130 296.5448 114.4093 299 101 C302.7574 80.479 312 59 312 59 "/>
<path id="12" d="M298 235 C298 235 295.3068 285.2156 298 331 C298.6568 342.1656 300.7033 346.4808 305 354 C306.6141 356.8247 314 359 314 359 "/>
</g>
</g>
</svg>
