<?xml version="1.0" encoding="utf-8"?>
<!DOCTYPE svg PUBLIC "-//W3C//DTD SVG 1.1//EN" "http://www.w3.org/Graphics/SVG/1.1/DTD/svg11.dtd">
<svg viewBox="0 0 800 800" preserveAspectRatio="xMinYMin meet" xmlns="http://www.w3.org/2000/svg" version="1.1">
<g fill="none" stroke="black" stroke-linecap="round" stroke-linejoin="round" stroke-width="1.2241">
<g transform="translate(227.2169,87.52) scale(2.4508) translate(-145,-130.1333)">
<path id="0" d="M264 156.1333 C264 156.1333 249.871 152.1092 237 146.1333 C222.1823 139.2537 221.6579 133.602 208 130.1333 C193.9553 126.5664 187.6125 127.5267 174 130.1333 C168.1052 131.2621 165.7566 133.9443 161 139.1333 C155.7127 144.9013 154.8701 146.42 152 154.1333 C147.2129 166.9986 147.0106 168.3461 145 182.1333 C143.6144 191.6349 143.229 192.9239 145 202.1333 C148.004 217.7539 148.5915 219.0979 155 234.1333 C161.3303 248.9852 171 263.1333 171 263.1333 "/>
<path id="1" d="M171 261.1333 C171 261.1333 172.783 267.4025 176 272.1333 C180.9506 279.4136 183.3754 279.1964 188 286.1333 C189.7517 288.7609 189.7201 289.6811 190 293.1333 C191.1756 307.6328 192.4249 309.1694 191 323.1333 C190.0653 332.2933 186.0882 332.9921 185 342.1333 C183.737 352.7429 183.2353 357.3001 186 365.1333 C187.7619 370.1253 191.1275 371.7928 197 376.1333 C202.045 379.8622 209 382.1333 209 382.1333 "/>
<path id="2" d="M209 382.1333 C209 382.1333 211.7554 384.9561 214 385.1333 C228.1442 386.25 233.0394 387.0813 247 385.1333 C251.5847 384.4936 253.1825 382.7387 257 379.1333 C261.4808 374.9015 260.5764 372.2967 265 368.1333 C268.3035 365.0241 271.3072 366.3391 274 363.1333 C280.4491 355.4558 284.5045 352.3558 286 343.1333 C289.6799 320.4407 286 289.1333 286 289.1333 "/>
<path id="3" d="M255 174.1333 C255 174.1333 248.5867 175.1491 243 174.1333 C232.7154 172.2634 232.302 169.5708 222 168.1333 C211.6212 166.6851 210.6419 167.2212 200 168.1333 C193.5872 168.683 190.7165 168.5318 187 171.1333 C183.382 173.6659 180.2936 177.3764 180 182.1333 C178.2052 211.2093 177.5871 220.5645 182 252.1333 C183.5407 263.1554 186.4016 266.0606 193 275.1333 C197.1409 280.8271 199.5245 282.9748 206 285.1333 C219.3474 289.5825 224.7461 284.8775 238 290.1333 C250.9244 295.2585 252.5426 301.8838 264 308.1333 C266.2391 309.3547 270.9409 308.353 271 308.1333 C271.8159 305.103 272.0426 292.5591 271 282.1333 C270.8276 280.4091 268.4526 279.9439 268 278.1333 C267.2376 275.0839 268 270.1333 268 270.1333 "/>
<path id="4" d="M241 235.1333 C241 235.1333 239.6609 245.0908 242 251.1333 C244.7489 258.2345 253 266.1333 253 266.1333 "/>
</g>
</g>
</svg>
