<?xml version="1.0" encoding="utf-8"?>
<!DOCTYPE svg PUBLIC "-//W3C//DTD SVG 1.1//EN" "http://www.w3.org/Graphics/SVG/1.1/DTD/svg11.dtd">
<svg viewBox="0 0 800 800" preserveAspectRatio="xMinYMin meet" xmlns="http://www.w3.org/2000/svg" version="1.1">
<g fill="none" stroke="black" stroke-linecap="round" stroke-linejoin="round" stroke-width="1.4737">
<g transform="translate(256.4831,87.52) scale(2.0357) translate(-211,-95)">
<path id="0" d="M224 152 C224 152 221.7281 141.0609 222 131 C222.2088 123.2758 221.9317 121.3283 225 115 C229.0963 106.5513 231.4963 103.9124 238 98 C240.6804 95.5633 242.6256 95.4687 247 95 C255.9164 94.0447 257.8435 93.2698 266 95 C272.6475 96.4101 273.917 97.8525 280 102 C284.3597 104.9726 284.8412 105.6128 288 110 C293.5555 117.7159 294.0469 118.3032 298 127 C301.3526 134.3758 301.8148 135.1778 303 143 C304.2023 150.9353 304.1338 151.8745 303 160 C301.2101 172.8274 298.0611 173.2674 297 186 C295.642 202.2962 294.3931 204.9357 298 220 C302.3013 237.9644 304.5173 239.6536 314 257 C324.7098 276.5911 327.8681 275.5988 339 295 C345.1115 305.6515 344.9355 306.4317 349 318 C351.3078 324.5683 351.5681 325.0898 352 332 C353.035 348.56 354.162 350.8663 352 366 C350.9826 373.1217 349.1446 374.487 345 381 C342.5597 384.8347 341.8925 385.405 338 388 C327.4347 395.0435 326.0195 397.786 315 401 C304.5975 404.0341 297.2909 405.4391 290 402 C278.0316 396.3545 272.4367 389.8286 262 376 C254.0158 365.421 255.7647 360.1451 250 349 C249.3834 347.8079 247.2653 347.9647 247 347 C243.2248 333.2721 244.4062 327.2104 239 309 C235.0813 295.8003 228 283 228 283 "/>
<path id="1" d="M223 230 C223 230 225.0157 227.0703 226 227 C229.3249 226.7625 232.3612 227.196 237 229 C240.5229 230.37 241.6399 231.0952 244 234 C247.5057 238.3147 248.8965 239.6052 250 245 C253.0335 259.8307 253.612 266.0663 253 278 C252.8834 280.2731 250.3506 282.9031 248 284 C244.8458 285.472 238 285 238 285 "/>
<path id="2" d="M236 202 C236 202 242.777 202.6539 247 205 C250.6303 207.0168 251.842 208.0693 254 212 C265.0516 232.1296 266.2797 234.025 275 256 C278.4304 264.6447 277.9248 265.5024 279 275 C280.8918 291.7106 283.9499 295.839 281 309 C278.5943 319.733 271.0853 328.1266 266 333 C264.9238 334.0313 258.2156 332.5403 257 332 C256.8284 331.9237 257 329 257 329 "/>
<path id="3" d="M233 148 C233 148 231.8991 130.8442 233 118 C233.1929 115.7492 234.2755 114.2542 236 113 C238.6459 111.0757 240.142 110.4287 244 110 C252.7962 109.0226 254.7225 108.5729 263 110 C267.7321 110.8159 268.9573 111.9085 273 115 C276.8362 117.9336 278.1482 118.8335 280 123 C283.5369 130.9581 283.8018 132.6538 285 142 C286.2201 151.517 286.4775 153.7261 285 162 C284.343 165.6789 281.4797 165.8897 280 170 C277.2157 177.7341 276.684 178.6213 276 187 C274.7368 202.4744 273.4428 204.3544 276 219 C278.6307 234.067 280.337 235.3414 287 250 C292.6198 262.3636 295.6514 261.5836 301 274 C309.3764 293.4452 310.2782 294.8538 315 315 C317.4775 325.5707 316.6677 327.3169 316 338 C315.7326 342.2791 313 347 313 347 "/>
<path id="4" d="M220 133 C220 133 221.6646 148.0426 221 162 C220.6983 168.3359 220.3869 169.2714 218 175 C215.6689 180.5946 212.6995 180.9014 211 186 C209.7253 189.824 211 196 211 196 "/>
</g>
</g>
</svg>
