<?xml version="1.0" encoding="utf-8"?>
<!DOCTYPE svg PUBLIC "-//W3C//DTD SVG 1.1//EN" "http://www.w3.org/Graphics/SVG/1.1/DTD/svg11.dtd">
<svg viewBox="0 0 800 800" preserveAspectRatio="xMinYMin meet" xmlns="http://www.w3.org/2000/svg" version="1.1">
<g fill="none" stroke="black" stroke-linecap="round" stroke-linejoin="round" stroke-width="1.3009">
<g transform="translate(203.9793,87.52) scale(2.3061) translate(-251,-132)">
<path id="0" d="M262 178 C262 178 261.5713 172.9289 263 169 C267.2722 157.2514 268.1218 156.3645 274 145 C275.3996 142.2942 275.6837 141.635 278 140 C283.5192 136.1041 284.8554 133.9103 291 133 C309.0122 130.3315 313.232 129.0604 332 132 C352.3071 135.1806 355.3929 136.6965 374 146 C388.6199 153.3099 390.8107 155.3021 402 167 C411.4381 176.8671 411.5984 179.5338 418 192 C420.6096 197.0818 420.6848 198.1167 421 204 C422.1404 225.2869 422.0785 226.4291 421 248 C420.6041 255.9175 420.9436 256.9913 418 264 C410.9121 280.876 410.92 282.7355 400 298 C365.138 346.7318 361.0654 354.5535 325 394 C318.8201 400.7593 314.0932 400.9814 304 403 C293.3756 405.1249 289.4047 405.2876 280 403 C274.0479 401.5522 271.6998 399.1474 267 394 C262.2023 388.7453 262.0038 387.0999 259 380 C256.7073 374.5809 257.247 369.8705 256 368 C255.7031 367.5546 251 368 251 368 "/>
<path id="1" d="M252 368 L253 342 "/>
<path id="2" d="M261 176 C261 176 258.581 180.1269 258 184 C257.175 189.5003 256.3349 192.0039 258 196 C260.2432 201.3837 262.237 204.2364 268 208 C284.8209 218.9851 287.5337 219.0455 307 228 C311.9998 230.2999 313.5465 228.5061 318 231 C325.0806 234.9651 329.599 236.898 332 242 C335.2682 248.9449 335.4238 257.6435 334 265 C333.3988 268.1063 329.6864 271.9158 326 273 C316.5327 275.7845 308.6365 276.0796 300 275 C297.7361 274.717 295.5428 271.5714 294 269 C293.3572 267.9286 294 265 294 265 "/>
<path id="3" d="M297 365 C297 365 285.6341 358.4792 280 352 C277.4431 349.0595 276.5108 344.9352 277 342 C277.4634 339.2193 279.7435 336.171 283 334 C287.2143 331.1904 290.421 332.5757 295 330 C297.1891 328.7686 297.4817 327.657 299 325 C301.3519 320.8842 302.2507 320.3087 303 316 C304.082 309.7785 301.5607 307.2775 303 302 C303.9907 298.3675 308.9326 294.1797 309 294 C309.0074 293.9803 306 294 306 294 "/>
<path id="4" d="M276 171 C276 171 283.202 154.9803 290 147 C292.0184 144.6306 294.6659 144.2242 299 144 C322.1968 142.8002 326.6141 141.8614 348 144 C353.0628 144.5063 353.592 148.1072 359 150 C362.8599 151.351 364.799 149.3299 368 151 C374.6359 154.4622 375.2125 156.3438 382 162 C384.1485 163.7905 384.8887 163.7774 386 166 C391.3714 176.7427 389.7687 179.3549 396 190 C401.2589 198.984 408.6262 199.4901 410 207 C414.5778 232.0252 414.0191 243.1508 411 272 C409.9743 281.8008 401 293 401 293 "/>
<path id="5" d="M277 169 C277 169 296.0107 182.5776 316 194 C337.8113 206.4636 340.4573 204.2029 361 217 C369.7756 222.4668 373.4133 224.6474 377 232 C381.396 241.0119 380.4384 245.3641 381 258 C381.4057 267.1283 381.7306 270.6285 379 277 C377.173 281.2629 374.3652 282.492 369 286 C361.8291 290.6887 360.8232 292.2993 353 294 C339.5779 296.9178 323 296 323 296 "/>
</g>
</g>
</svg>
