<?xml version="1.0" encoding="utf-8"?>
<!DOCTYPE svg PUBLIC "-//W3C//DTD SVG 1.1//EN" "http://www.w3.org/Graphics/SVG/1.1/DTD/svg11.dtd">
<svg viewBox="0 0 800 800" preserveAspectRatio="xMinYMin meet" xmlns="http://www.w3.org/2000/svg" version="1.1">
<g fill="none" stroke="black" stroke-linecap="round" stroke-linejoin="round" stroke-width="0.79685">
<g transform="translate(255.0545,87.52) scale(3.7648) translate(-220,-94)">
<path id="0" d="M220 126 C220 126 218.9792 116.8379 221 111 C222.8132 105.762 224.5192 104.2318 229 100 C232.8175 96.3946 234.3289 95.2739 239 94 C243.8171 92.6862 245.6097 93.1489 251 94 C254.3571 94.5301 256.2002 94.8826 258 97 C263.1278 103.0327 264.3726 105.2517 268 114 C272.6147 125.1296 270.4388 127.053 275 138 C277.5984 144.236 280.2725 143.6771 283 150 C290.9507 168.4312 293.7911 170.2405 297 189 C299.8549 205.6903 300.8238 213.7395 296 226 C291.7366 236.8361 284.9363 239.7215 273 250 C267.7988 254.4789 266.5226 255.0235 260 257 C250.9808 259.7331 242.7839 261.2249 240 260 C238.3368 259.2682 235 246 235 246 "/>
<path id="1" d="M242 172 C242 172 243.2604 167.2055 244 167 C247.492 166.03 256.3856 164.9759 260 167 C263.8041 169.1303 267.7211 174.9709 269 181 C270.4933 188.0397 269.4601 194.4089 267 200 C265.7675 202.8012 262.1232 204.3507 258 206 C255.8299 206.868 252.675 206.225 252 206 C251.925 205.975 252 204 252 204 "/>
<path id="2" d="M244 118 C244 118 255.59 125.3059 260 134 C271.4544 156.5816 274.1094 161.2602 279 187 C283.0603 208.3702 282.4934 223.8874 279 234 C277.9175 237.1335 260 242 260 242 "/>
</g>
</g>
</svg>
