<?xml version="1.0" encoding="utf-8"?>
<!DOCTYPE svg PUBLIC "-//W3C//DTD SVG 1.1//EN" "http://www.w3.org/Graphics/SVG/1.1/DTD/svg11.dtd">
<svg viewBox="0 0 800 800" preserveAspectRatio="xMinYMin meet" xmlns="http://www.w3.org/2000/svg" version="1.1">
<g fill="none" stroke="black" stroke-linecap="round" stroke-linejoin="round" stroke-width="1.2385">
<g transform="translate(221.9591,87.52) scale(2.4223) translate(-195,-147)">
<path id="0" d="M323 181 C323 181 320.9743 169.1537 318 158 C317.0466 154.4247 316.8792 153.349 315 151 C313.6006 149.2508 312.2952 148.2239 310 148 C294.3459 146.4728 291.7109 146.195 274 147 C259.1327 147.6758 257.1798 147.464 244 151 C238.5377 152.4655 236.9295 153.8637 233 158 C228.3612 162.883 227.8033 164.3151 225 171 C221.5553 179.2144 223.4135 180.4663 220 189 C208.5649 217.5878 198.8457 218.7727 195 246 C187.3762 299.9769 194.092 307.4343 195 366 C195.0683 370.4076 195.2514 371.2843 197 375 C198.9038 379.0455 199.432 380.1456 203 383 C213.589 391.4712 214.9639 392.0701 227 399 C230.8876 401.2383 231.5214 401.4402 236 402 C254.8102 404.3513 256.5974 405.8763 275 405 C286.5016 404.4523 287.5364 402.7088 299 399 C304.1339 397.339 306.9219 397.0624 309 394 C314.1323 386.4367 312.2495 380.5841 318 371 C321.8876 364.5206 327.4518 365.2642 330 359 C337.8312 339.7482 342 312 342 312 "/>
<path id="1" d="M303 275 C303 275 305.4276 207.7167 301 189 C300.3993 186.4608 290.7154 184.0002 281 182 C274.6564 180.694 273.6739 181.1101 267 182 C259.1184 183.0509 257.6927 183.0901 251 186 C247.3748 187.5762 246.3374 188.5553 244 192 C237.4458 201.6588 236.5595 202.8862 232 214 C228.8431 221.695 228.8432 222.4917 228 231 C223.4104 277.3132 224.0681 278.1021 221 325 C220.5777 331.4544 220.0658 331.8342 221 338 C222.4917 347.8452 222.6848 349.049 226 358 C227.3429 361.6259 228.2187 363.5614 231 365 C240.078 369.6955 243.5141 371.1302 255 373 C263.5511 374.392 265.3508 373.996 274 372 C283.8255 369.7326 285.6047 369.0372 294 364 C299.4163 360.7502 301.9746 359.0635 304 354 C308.6874 342.2815 305.5683 337.8859 310 324 C312.7595 315.3537 319 307 319 307 "/>
<path id="2" d="M301 274 C301 274 298.1984 306.973 300 311 C300.4462 311.9973 318 312 318 312 "/>
<path id="3" d="M273 245 C273 245 269.2865 243.462 267 244 C262.1704 245.1364 258.5246 245.754 256 249 C250.4541 256.1305 247.7932 260.913 246 271 C244.2922 280.6062 244.7353 284.6413 248 294 C251.38 303.6893 254.1442 304.3396 261 314 C265.0786 319.7472 266.5424 321.8305 270 325 C270.5436 325.4983 273.0017 324.9991 273 325 C272.9884 325.0058 261.7346 327.8294 256 332 C253.0029 334.1797 251 341 251 341 "/>
</g>
</g>
</svg>
