<?xml version="1.0" encoding="utf-8"?>
<!DOCTYPE svg PUBLIC "-//W3C//DTD SVG 1.1//EN" "http://www.w3.org/Graphics/SVG/1.1/DTD/svg11.dtd">
<svg viewBox="0 0 800 800" preserveAspectRatio="xMinYMin meet" xmlns="http://www.w3.org/2000/svg" version="1.1">
<g fill="none" stroke="black" stroke-linecap="round" stroke-linejoin="round" stroke-width="0.67684">
<g transform="translate(258.1651,87.52) scale(4.4323) translate(-196,-127.4167)">
<path id="0" d="M198 189.4167 C198 189.4167 193.7956 168.2965 196 153.4167 C197.2028 145.2976 200.4892 142.0876 206 135.4167 C208.6094 132.2579 210.4359 131.8772 215 130.4167 C222.3026 128.0798 223.4383 127.6867 231 127.4167 C236.6 127.2167 239.5877 127.3313 243 129.4167 C245.9679 131.2304 246.8659 133.6912 249 138.4167 C253.668 148.7529 254.9222 149.4609 257 160.4167 C260.231 177.4527 260.3508 180.9827 260 196.4167 C259.921 199.892 256.9265 200.34 256 204.4167 C249.7081 232.1009 250.9774 245.2995 245 262.4167 C244.1454 264.8639 239.3841 266.3027 234 267.4167 C225.8545 269.102 222.0904 269.2472 216 268.4167 C214.4503 268.2053 212.8052 266.3491 212 264.4167 C210.8041 261.5464 211 256.4167 211 256.4167 "/>
<path id="1" d="M213 196.4167 C213 196.4167 221.7016 184.6156 228 180.4167 C230.2085 178.9443 235.9477 179.4453 237 180.4167 C238.7629 182.044 240.5589 186.6823 241 192.4167 C241.9649 204.9605 242.08 211.0968 240 219.4167 C239.4848 221.4776 236.1692 223.7564 233 224.4167 C226.3003 225.8124 222.1248 225.0614 216 224.4167 C215.2036 224.3328 214 222.4167 214 222.4167 "/>
</g>
</g>
</svg>
