<?xml version="1.0" encoding="utf-8"?>
<!DOCTYPE svg PUBLIC "-//W3C//DTD SVG 1.1//EN" "http://www.w3.org/Graphics/SVG/1.1/DTD/svg11.dtd">
<svg viewBox="0 0 800 800" preserveAspectRatio="xMinYMin meet" xmlns="http://www.w3.org/2000/svg" version="1.1">
<g fill="none" stroke="black" stroke-linecap="round" stroke-linejoin="round" stroke-width="1.2337">
<g transform="translate(256.5267,87.52) scale(2.4318) translate(-178,-118.4167)">
<path id="0" d="M178 174.4167 C178 174.4167 188.186 155.4977 201 142.4167 C210.7496 132.464 213.2936 132.773 226 125.4167 C231.7966 122.0608 232.5225 121.7122 239 120.4167 C249.364 118.3439 251.3239 117.0972 261 118.4167 C271.2834 119.819 273.7861 121.3639 283 126.4167 C287.866 129.0851 289.2183 130.7091 292 135.4167 C294.9848 140.4679 295.3962 142.0763 296 148.4167 C297.3087 162.1579 298.2107 163.9316 296 177.4167 C293.4357 193.059 291.9772 194.6495 286 209.4167 C283.8721 214.6739 280.7083 214.2104 279 219.4167 C270.8601 244.2241 269.0857 246.8597 265 273.4167 C262.3079 290.9152 263.7392 292.1352 265 310.4167 C266.7179 335.3259 272.0386 345.0968 271 360.4167 C270.7973 363.4063 266.3014 366.4714 261 369.4167 C253.8136 373.4091 252.2647 374.0392 244 375.4167 C235.2762 376.8706 231.8568 377.4737 225 375.4167 C220.0559 373.9334 217.0101 369.9741 214 366.4167 C213.3423 365.6394 214.4834 363.3835 214 362.4167 C213.577 361.5707 211.0384 361.0508 211 360.4167 C210.4551 351.425 212 329.4167 212 329.4167 "/>
<path id="1" d="M215 174.4167 C215 174.4167 222.9858 164.282 228 161.4167 C229.8234 160.3748 233.4081 160.7967 236 162.4167 C243.4377 167.0652 246.5033 168.8587 252 176.4167 C257.3213 183.7334 256.9858 186.0391 260 195.4167 C261.3025 199.4689 260.9004 199.9353 261 204.4167 C261.3974 222.2979 262.942 223.9095 261 240.4167 C260.1527 247.6183 259.2659 249.51 255 255.4167 C247.1791 266.2456 245.6116 268.2539 235 276.4167 C227.3913 282.2695 216 285.4167 216 285.4167 "/>
<path id="2" d="M210 347.4167 C210 347.4167 205.8234 336.6077 204 333.4167 C203.8804 333.2074 202.0345 333.5029 202 333.4167 C201.7845 332.8779 202.64 329.6967 202 328.4167 C201.36 327.1367 198.7737 326.9642 198 325.4167 C196.4525 322.3217 198.0262 319.8731 196 316.4167 C190.2649 306.6333 181 296.4167 181 296.4167 "/>
<path id="3" d="M198 230.4167 C198 230.4167 199.9209 228.3771 200 228.4167 C200.5144 228.6739 202.8133 230.8455 204 233.4167 C205.5467 236.7679 206 237.7068 206 241.4167 C206 247.9089 206.0144 250.6324 204 255.4167 C202.9785 257.8427 200.6986 259.4529 198 260.4167 C195.2271 261.407 191.2074 261.4516 190 260.4167 C187.5421 258.3099 184 248.4167 184 248.4167 "/>
</g>
</g>
</svg>
