<?xml version="1.0" encoding="utf-8"?>
<!DOCTYPE svg PUBLIC "-//W3C//DTD SVG 1.1//EN" "http://www.w3.org/Graphics/SVG/1.1/DTD/svg11.dtd">
<svg viewBox="0 0 800 800" preserveAspectRatio="xMinYMin meet" xmlns="http://www.w3.org/2000/svg" version="1.1">
<g fill="none" stroke="black" stroke-linecap="round" stroke-linejoin="round" stroke-width="1.0369">
<g transform="translate(265.46,87.52) scale(2.8933) translate(-239,-75.4167)">
<path id="0" d="M252 176.4167 C252 176.4167 251.7134 171.2718 250 167.4167 C247.9786 162.8685 245.5329 163.0152 244 158.4167 C240.4233 147.6867 240.0994 146.2906 239 134.4167 C237.6517 119.8552 237.1159 117.6057 239 104.4167 C239.8075 98.7642 241.4373 97.6237 245 92.4167 C247.608 88.605 248.1483 87.824 252 85.4167 C259.4494 80.7608 260.6436 79.2737 269 77.4167 C281.6582 74.6037 284.9171 73.8406 297 75.4167 C305.2951 76.4986 309.4875 78.0764 315 83.4167 C322.767 90.941 323.2323 94.8812 329 106.4167 C331.4032 111.2231 331.5746 112.0281 332 117.4167 C333.0222 130.3645 335.0905 132.6164 332 144.4167 C324.816 171.8465 315.3075 173.5525 310 201.4167 C303.9821 233.0105 310.0919 236.9465 308 270.4167 C307.6614 275.8336 307.4536 277.1229 305 281.4167 C302.0777 286.5306 299.902 289.8559 296 291.4167 C291.1975 293.3377 285.6614 293.0679 280 291.4167 C276.4469 290.3803 274.7132 288.1165 272 284.4167 C269.8491 281.4837 269.5276 280.2858 269 276.4167 C268.1216 269.9751 267.474 268.0847 269 262.4167 C270.5134 256.7953 276 250.4167 276 250.4167 "/>
<path id="1" d="M263 162.4167 C263 162.4167 257.9462 154.1439 257 146.4167 C255.1342 131.179 254.6458 127.8363 257 113.4167 C258.2346 105.8546 260.932 100.5084 265 97.4167 C268.8905 94.4599 274.9475 94.1454 282 94.4167 C285.8234 94.5637 287.6754 95.5846 291 98.4167 C300.1599 106.2196 305.8742 108.6645 309 117.4167 C313.636 130.3974 313.12 137.9867 311 154.4167 C309.4831 166.173 303.194 167.0363 301 179.4167 C296.5166 204.716 297 233.4167 297 233.4167 "/>
<path id="2" d="M261 208.4167 C261 208.4167 275.4934 214.4035 277 217.4167 C278.3736 220.164 273.5112 228.7952 274 234.4167 C274.1879 236.5777 277.5042 237.2589 279 240.4167 C281.6623 246.0371 280.7554 249.208 283 253.4167 C283.6131 254.5662 286.9916 255.4402 287 255.4167 C287.2405 254.7431 288.6103 245.5192 288 239.4167 C287.835 237.7663 285.3583 237.208 285 235.4167 C284.1433 231.133 284.5599 229.8448 285 224.4167 C286.05 211.4665 285.6848 210.9849 288 198.4167 C289.1106 192.3879 291.1335 192.2656 292 186.4167 C293.0322 179.4495 293.5968 175.6084 292 171.4167 C291.0368 168.8884 287.645 166.6317 284 165.4167 C280.355 164.2017 278.147 164.5873 274 165.4167 C271.6777 165.8811 271.2169 166.6924 269 168.4167 C266.8503 170.0887 265.7938 170.3754 265 172.4167 C262.8328 177.9894 262 186.4167 262 186.4167 "/>
</g>
</g>
</svg>
