<?xml version="1.0" encoding="utf-8"?>
<!DOCTYPE svg PUBLIC "-//W3C//DTD SVG 1.1//EN" "http://www.w3.org/Graphics/SVG/1.1/DTD/svg11.dtd">
<svg viewBox="0 0 800 800" preserveAspectRatio="xMinYMin meet" xmlns="http://www.w3.org/2000/svg" version="1.1">
<g fill="none" stroke="black" stroke-linecap="round" stroke-linejoin="round" stroke-width="1.0177">
<g transform="translate(87.52,217.2287) scale(2.9479) translate(-199,-148)">
<path id="0" d="M205,222C205,222 207.40196852387407,213.59926180354722 209,213C213.3336446810195,211.37488324461768 220.46156930412314,211.73504730431455 229,213C232.241441282694,213.48021352336207 234.87063559379626,214.9922410556378 236,217C237.86745295514004,220.3199163646934 238.2095148063626,226.06679271092392 238,229C237.96087374098047,229.54776762627324 235.42299122252498,230.15401755495003 235,231C234.51658145997146,231.9668370800571 235.58010224803425,234.22653033595432 235,235C233.76728272292718,236.64362303609707 231.70652654335674,238.5990331046879 229,239C220.37864859503782,240.27723724517958 210.5725,239.3675 208,239C207.9475,238.9925 208.1875,236.1875 208,236C207.8125,235.8125 205.50762155423456,236.42301796186214 205,236C203.78734850932855,234.98945709110714 202.53789477045927,233.33087733865688 202,231C201.24403978205723,227.72417238891464 202,223 202,223"/>
<path id="1" d="M208,228C208,228 208.70926667409216,222.96804999443088 210,222C212.4325358834417,220.17559808741873 218.2025990784953,220.07844055290283 220,219C220.27417980158546,218.83549211904872 219.85,216.075 220,216C220.6,215.7 224.66704446683303,215.20022668009983 226,216C227.68841034201148,217.0130462052069 229.3089747656799,219.23589906271957 230,222C230.98717890617158,225.94871562468631 230.84017253868836,231.41187922291814 230,232C227.2634380168436,233.9155933882095 211.567585848568,236.1567585848568 210,236C209.95201267810506,235.9952012678105 210.3,230.6 210,230C209.925,229.85 207,230 207,230"/>
<path id="2" d="M199,260C199,260 203.85416753166595,260.4393945684843 206,262C208.1227590009326,263.543824727951 207.8772409990674,266.456175272049 210,268C212.14583246833405,269.5606054315157 215.75319102382832,269.2875377279019 217,270C217.1749907334978,270.0999947048559 216.9752475247525,271.9975247524753 217,272C219.47524752475246,272.2475247524753 232.27855997488967,274.0984177889379 237,272C239.91155468215135,270.7059756968216 244,260 244,260"/>
<path id="3" d="M202,225L202,262"/>
<path id="4" d="M238,227C238,227 241.82832564008197,228.2703839703484 242,229C242.87553923558192,232.72104175122322 242,244 242,244"/>
<path id="5" d="M240,223L242,228"/>
<path id="6" d="M245,244C245,244 246.16131050706252,241.35943835411606 247,241C248.27626661968745,240.45302859156251 251.54044117647058,241.27573529411765 252,241C252.16544117647058,240.90073529411765 251.86422413793105,238.0581896551724 252,238C252.73922413793105,237.6831896551724 257.8854026910108,239.0559342927266 259,238C263.62599785384986,233.61747571740537 265.21253405504723,226.80878346465033 271,220C272.2826830551757,218.490961111558 274.6089756211711,219.39102437882892 276,218C278.18589545244543,215.81410454755456 277.53266261237513,213.4673373876249 280,211C283.36455098312484,207.63544901687516 286.73397559361615,207.26602440638385 289,205C289.45320488127674,204.54679511872322 288.63997148914723,202.30859586644524 289,202C290.34010612372975,200.85133760823166 294.65989387627024,200.14866239176834 296,199C296.36002851085277,198.69140413355475 295.63997148914723,196.30859586644524 296,196C297.34010612372975,194.85133760823166 301.2385643396877,194.92156617488618 303,193C305.36936478201306,190.41523841962214 304.4020473379672,186.43558062065574 307,184C310.681520857755,180.54857419585468 315.318479142245,181.45142580414532 319,178C321.5979526620328,175.56441937934426 320.26178701998213,171.7382129800179 323,169C327.8445306569547,164.1554693430453 332.27570542664273,164.42902616252243 337,160C338.60547057924674,158.49487133195618 338.1082949467474,154.76431861707368 339,154C339.6241935372768,153.46497696804843 343.5404411764706,154.27573529411765 344,154C344.1654411764706,153.90073529411765 343.87671232876715,151.04623287671234 344,151C344.8767123287671,150.67123287671234 350.4407900211697,151.5197366596101 352,151C352.38980249470756,150.87006583509748 352.7510525933195,148.01265834271257 353,148C365.52791214206786,147.36298751819993 411,148 411,148"/>
<path id="7" d="M243,267C243,267 242.86422413793105,264.05818965517244 243,264C243.73922413793105,263.68318965517244 249.26077586206895,264.31681034482756 250,264C250.13577586206895,263.94181034482756 249.83455882352942,261.0992647058824 250,261C250.45955882352942,260.7242647058824 253.954142581669,261.6972382788873 255,261C256.6733718693296,259.88441875378026 257.30649556040953,255.92372969432208 259,255C260.6299980231058,254.110910169215 264.8854026910108,256.0559342927266 266,255C270.62599785384986,250.61747571740537 271.09145391799023,244.14677180897564 278,237C284.63624978373235,230.1349140168286 288.9084643163046,230.77092854244825 295,225C296.65002636330155,223.43681712950382 296.1082949467474,219.76431861707368 297,219C297.6241935372768,218.46497696804843 301.420234090949,219.6689606642896 302,219C304.93450744735037,215.61402986844186 305.74663762433346,209.8892709816921 310,204C311.3533425740757,202.1261410512798 313.649206485014,202.84199115679908 315,201C318.3229520468655,196.46870175427426 317.3181678761851,193.90910949841984 321,189C324.2913347773497,184.61155363020043 326.5038820770614,185.5158189837957 330,181C338.0847726967955,170.5571685999725 338.66919407582924,161.0980539628921 345,158C352.71599036462953,154.22408982156426 370.1269796925877,158.62482002794658 377,158C377.2733587622266,157.97514920343394 377.7037436636671,155.03864213082602 378,155C382.6845533182639,154.3889713063134 400,155 400,155"/>
<path id="8" d="M400,153C400,153 406.30549379600813,155.30866942399638 407,155C407.5303501921392,154.76428880349366 409,149 409,149"/>
</g>
</g>
</svg>
