<?xml version="1.0" encoding="utf-8"?>
<!DOCTYPE svg PUBLIC "-//W3C//DTD SVG 1.1//EN" "http://www.w3.org/Graphics/SVG/1.1/DTD/svg11.dtd">
<svg viewBox="0 0 800 800" preserveAspectRatio="xMinYMin meet" xmlns="http://www.w3.org/2000/svg" version="1.1">
<g fill="none" stroke="black" stroke-linecap="round" stroke-linejoin="round" stroke-width="0.41283">
<g transform="translate(87.52,109.3209) scale(7.267) translate(-188,-87.1333)">
<path id="0" d="M188 164.1333 L188 166.1333 "/>
<path id="1" d="M190 164.1333 L243 164.1333 "/>
<path id="2" d="M192 166.1333 C192 166.1333 264.0429 167.7405 274 167.1333 C274.0445 167.1306 274.9115 163.2168 274 161.1333 C272.0156 156.5975 267 151.1333 267 151.1333 "/>
<path id="3" d="M246 162.1333 C246 162.1333 247.9161 161.5249 248 161.1333 C248.7762 157.511 248.0373 148.7591 249 148.1333 C250.9355 146.8752 268 148.1333 268 148.1333 "/>
<path id="4" d="M258 145.1333 C258 145.1333 253.3407 141.2617 252 138.1333 C251.0195 135.8454 251.0195 133.4212 252 131.1333 C253.3407 128.005 258.1317 125.3189 258 124.1333 C257.7527 121.9079 250.8661 117.7524 250 113.1333 C248.571 105.5118 249.7789 99.3519 252 92.1333 C252.7035 89.847 258 87.1333 258 87.1333 "/>
<path id="5" d="M258 88.1333 C258 88.1333 260.7932 89.8928 261 91.1333 C261.8861 96.4498 259.9835 101.5592 261 106.1333 C261.2635 107.3192 264.6498 107.9077 265 109.1333 C265.9298 112.3877 265.242 118.8023 265 120.1333 C264.992 120.1773 262.9957 120.1276 263 120.1333 C263.0223 120.1631 267.2874 122.423 268 124.1333 C268.9371 126.3825 268.6258 131.1947 268 132.1333 C267.6089 132.72 262.0071 133.0907 262 133.1333 C261.9852 133.2222 266.0839 135.9347 267 138.1333 C267.9053 140.3061 267.5694 144.3741 267 145.1333 C266.5526 145.7299 261 146.1333 261 146.1333 "/>
</g>
</g>
</svg>
