<?xml version="1.0" encoding="utf-8"?>
<!DOCTYPE svg PUBLIC "-//W3C//DTD SVG 1.1//EN" "http://www.w3.org/Graphics/SVG/1.1/DTD/svg11.dtd">
<svg viewBox="0 0 800 800" preserveAspectRatio="xMinYMin meet" xmlns="http://www.w3.org/2000/svg" version="1.1">
<g fill="none" stroke="black" stroke-linecap="round" stroke-linejoin="round" stroke-width="1.5457">
<g transform="translate(87.52,235.9965) scale(1.9409) translate(-171,-166.6333)">
<path id="0" d="M172 188.6333 C172 188.6333 209.1743 186.1569 235 188.6333 C239.3745 189.0528 240.7858 191.6533 245 195.6333 C249.4256 199.8131 248.4359 201.7995 253 205.6333 C260.3026 211.7675 263.4249 210.0583 270 216.6333 C279.8626 226.4959 279.1703 231.0972 288 240.6333 C290.0587 242.8567 292.5879 241.4405 295 243.6333 C302.552 250.4988 304.2278 252.6966 310 260.6333 C311.1845 262.262 310.12 264.4013 311 265.6333 C311.748 266.6805 313.9525 266.2586 315 267.6333 C320.84 275.2984 320.1395 278.3028 327 286.6333 C333.6928 294.7603 334.3465 295.3399 343 301.6333 C361.3887 315.0069 362.142 316.8482 382 326.6333 C395.3247 333.1991 397.3153 333.7719 412 335.6333 C431.3339 338.0841 433.6924 337.3572 453 335.6333 C460.274 334.9839 461.9596 334.4301 468 330.6333 C478.2163 324.2117 482.0298 322.0911 488 313.6333 C491.8033 308.2453 491.6117 304.9814 492 296.6333 C493.5589 263.1169 492 227.6333 492 227.6333 "/>
<path id="1" d="M173 167.6333 C173 167.6333 225.1405 165.2761 266 167.6333 C270.9849 167.9209 272.6965 169.8264 277 173.6333 C284.9269 180.6456 284.1614 183.4479 292 190.6333 C295.4815 193.8247 298.4582 192.2781 301 195.6333 C320.8002 221.7697 320.44 231.7564 342 256.6333 C349.7723 265.6014 354.1479 265.0559 366 270.6333 C370.2394 272.6283 371.0136 272.2059 376 272.6333 C388.2979 273.6874 391.6342 275.2861 401 273.6333 C404.8617 272.9519 408.6999 270.1513 410 266.6333 C415.2825 252.3394 414.2334 241.6725 418 227.6333 C418.2568 226.6763 420.5638 226.6927 421 225.6333 C423.2446 220.1822 424.0166 218.0088 425 210.6333 C425.9496 203.511 424.6162 196.7079 425 195.6333 C425.0201 195.577 430 196.6333 430 196.6333 "/>
<path id="2" d="M493 231.6333 C493 231.6333 493.8763 223.6439 493 216.6333 C492.4523 212.2518 492.2775 211.0496 490 207.6333 C486.8943 202.9747 485.8514 201.4056 481 198.6333 C473.1103 194.1249 471.078 192.661 462 191.6333 C446.4575 189.8738 429.9689 191.9982 428 192.6333 C427.9944 192.6351 429.7007 200.334 431 201.6333 C431.6497 202.283 434.8992 200.8694 437 201.6333 C439.26 202.4551 439.5946 205.1609 442 205.6333 C463.7744 209.9104 493 212.6333 493 212.6333 "/>
<path id="3" d="M176 188.6333 C176 188.6333 171.4014 186.8375 171 185.6333 C169.9678 182.5368 170.3748 179.2599 171 173.6333 C171.3242 170.7158 171.8746 168.9463 173 167.6333 C173.6461 166.8796 176.9961 166.6031 177 166.6333 C177.1969 168.1428 176 190.6333 176 190.6333 "/>
</g>
</g>
</svg>
