<?xml version="1.0" encoding="utf-8"?>
<!DOCTYPE svg PUBLIC "-//W3C//DTD SVG 1.1//EN" "http://www.w3.org/Graphics/SVG/1.1/DTD/svg11.dtd">
<svg viewBox="0 0 800 800" preserveAspectRatio="xMinYMin meet" xmlns="http://www.w3.org/2000/svg" version="1.1">
<g fill="none" stroke="black" stroke-linecap="round" stroke-linejoin="round" stroke-width="1.5505">
<g transform="translate(87.52,174.5887) scale(1.9349) translate(-116,-25)">
<path id="0" d="M117 175 C117 175 116.164 184.9674 118 191 C118.9939 194.2656 121.5282 197.5292 124 198 C136.1984 200.3235 143.212 200.3167 160 199 C167.1935 198.4358 168.2742 197.459 175 194 C185.2145 188.7468 190.492 187.8455 195 181 C200.6172 172.4702 201.6191 158.9044 202 153 C202.0358 152.4444 199.2508 150.1929 197 150 C184.1558 148.8991 180.3066 146.9431 167 150 C145.7513 154.8815 142.5036 157.8218 123 167 C119.139 168.8169 116 174 116 174 "/>
<path id="1" d="M118 177 C118 177 122.6396 179.6366 127 180 C139.7277 181.0606 142.4137 182.6738 154 180 C165.9164 177.2501 167.0757 174.6892 179 168 C187.3314 163.3263 188.2613 162.6747 195 157 C196.9233 155.3803 198 152 198 152 "/>
<path id="2" d="M121 196 C121 196 131.2919 209.2899 138 222 C140.1206 226.018 137.7058 228.8716 140 232 C146.9359 241.4581 149.8288 245.9897 160 252 C168.8053 257.2032 172.1827 256.8183 184 258 C201.2936 259.7294 203.2764 260.628 220 258 C236.5975 255.3918 240.2788 255.004 254 247 C267.5798 239.0785 266.2216 233.5634 280 223 C295.7851 210.8981 298.0615 212.8757 314 201 C323.1476 194.1842 323.2661 193.548 331 185 C342.0903 172.7422 341.7407 169.6257 352 159 C354.1635 156.7593 356.2532 158.1226 359 156 C366.6108 150.1189 368.0273 149.8391 374 142 C391.4147 119.1432 392.654 118.3814 407 93 C424.8311 61.4526 439 27 439 27 "/>
<path id="3" d="M202 162 C202 162 204.4313 160.7563 205 161 C206.2639 161.5417 207.7794 162.7808 209 165 C212.9078 172.105 214.7335 173.2424 216 181 C218.4502 196.0073 214.6164 202.082 217 214 C217.6031 217.0154 220.3253 217.9378 224 221 C226.1475 222.7896 226.6873 223.5919 229 224 C234.0191 224.8857 235.639 225.3402 241 224 C258.4232 219.6442 261.0337 220.3025 277 212 C297.0487 201.5747 297.7813 199.6761 316 185 C333.3856 170.9949 333.8011 170.4655 349 154 C369.5252 131.7644 369.6033 131.2061 388 107 C407.472 81.3789 408.2703 80.7675 425 54 C430.2744 45.561 431.6618 42.7614 433 35 C433.6227 31.3885 429.7703 25.3828 430 25 C430.1512 24.7479 439 25 439 25 "/>
</g>
</g>
</svg>
