<?xml version="1.0" encoding="utf-8"?>
<!DOCTYPE svg PUBLIC "-//W3C//DTD SVG 1.1//EN" "http://www.w3.org/Graphics/SVG/1.1/DTD/svg11.dtd">
<svg viewBox="0 0 800 800" preserveAspectRatio="xMinYMin meet" xmlns="http://www.w3.org/2000/svg" version="1.1">
<g fill="none" stroke="black" stroke-linecap="round" stroke-linejoin="round" stroke-width="0.72485">
<g transform="translate(87.52,207.5454) scale(4.1388) translate(-121,-236)">
<path id="0" d="M127 293 C127 293 126.9752 294.9975 127 295 C129.4752 295.2475 138.5402 296.7945 147 295 C153.1269 293.7003 158.4777 289.799 160 288 C160.3643 287.5695 158.4106 282.0304 158 282 C153.8506 281.6926 141.4528 282.9006 133 286 C130.5834 286.8861 128 293 128 293 "/>
<path id="1" d="M123 287 C123 287 125.2044 279.5824 127 279 C136.3388 275.9712 147.0051 274.6831 160 275 C163.2078 275.0782 165.6052 277.3657 168 280 C169.5256 281.6781 170 283.8143 170 286 C170 287.4571 168.8301 289.3359 168 290 C167.5211 290.3831 165.4729 289.5271 165 290 C162.0048 292.9952 160.8874 298.5935 157 301 C153.2626 303.3136 150.3589 302.7554 144 303 C137.6972 303.2424 134.4562 304.1038 131 302 C126.4506 299.2308 121 289 121 289 "/>
<path id="2" d="M123 295 C123 295 127.2118 310.2249 129 314 C129.1163 314.2456 131.6474 313.6474 132 314 C132.8228 314.8228 132.861 318.5254 134 319 C144.6458 323.4358 151.3542 326.0797 168 329 C178.7079 330.8786 181.0014 331.2219 191 329 C201.5299 326.66 204.1213 324.9191 213 319 C217.5426 315.9716 218.1083 314.3703 221 309 C228.2759 295.4877 225.4323 292.2636 234 280 C249.8719 257.2814 272 236 272 236 "/>
<path id="3" d="M171 286 C171 286 179.7766 290.9666 184 297 C189.1689 304.3841 192 316 192 316 "/>
<path id="4" d="M192 315 C192 315 192.2133 303.6483 194 294 C194.5481 291.0403 195.0066 290.1468 197 288 C200.9221 283.7762 203.3448 284.3863 207 280 C210.1704 276.1956 208.905 272.3212 212 270 C218.19 265.3575 224.8149 265.4018 231 262 C231.7005 261.6148 231.4171 259.255 232 259 C236.222 257.1529 240.2716 257.8035 247 255 C251.6426 253.0656 252.8808 252.1192 256 249 C257.4556 247.5444 256.782 244.7308 258 244 C261.7516 241.7491 271 240 271 240 "/>
</g>
</g>
</svg>
