<?xml version="1.0" encoding="utf-8"?>
<!DOCTYPE svg PUBLIC "-//W3C//DTD SVG 1.1//EN" "http://www.w3.org/Graphics/SVG/1.1/DTD/svg11.dtd">
<svg viewBox="0 0 800 800" preserveAspectRatio="xMinYMin meet" xmlns="http://www.w3.org/2000/svg" version="1.1">
<g fill="none" stroke="black" stroke-linecap="round" stroke-linejoin="round" stroke-width="1.7185">
<g transform="translate(87.52,290.021) scale(1.7457) translate(-170,-211.1333)">
<path id="0" d="M272 224.1333 C272 224.1333 271.1575 221.7121 270 221.1333 C262.8896 217.5781 260.961 215.8566 252 214.1333 C235.9842 211.0534 234.8761 211.747 218 211.1333 C207.6279 210.7562 207.0178 210.3911 197 212.1333 C184.596 214.2905 179.0089 215.7587 172 219.1333 C170.7922 219.7149 169.5357 224.1273 170 225.1333 C170.9779 227.2522 174.1432 230.7983 178 232.1333 C184.9167 234.5276 187.0374 233.9364 196 234.1333 C232.2596 234.9302 232.885 234.9636 269 234.1333 C275.9489 233.9736 280.9559 233.0094 283 232.1333 C283.2359 232.0322 283.5207 228.602 283 228.1333 C280.9027 226.2457 273 223.1333 273 223.1333 "/>
<path id="1" d="M283 232.1333 C283 232.1333 284.1187 267.3861 284 272.1333 C283.9999 272.1393 282.0312 272.0335 282 272.1333 C281.1546 274.8386 279 288.1333 279 288.1333 "/>
<path id="2" d="M170 233.1333 C170 233.1333 168.9339 272.7566 173 307.1333 C174.0908 316.3551 175.7634 319.303 181 326.1333 C185.6879 332.248 189.3712 336.1739 196 337.1333 C220.3706 340.6607 229.3784 341.0364 257 337.1333 C271.869 335.0323 274.0238 332.545 288 324.1333 C326.9855 300.6699 325.5536 293.6228 365 272.1333 C390.6315 258.1699 393.3407 259.8557 422 251.1333 C438.7867 246.0243 439.7497 245.2115 457 244.1333 C486.6632 242.2794 518 245.1333 518 245.1333 "/>
<path id="3" d="M287 272.1333 C287 272.1333 287.9213 279.991 287 286.1333 C286.5755 288.9632 285.1781 290.9552 284 292.1333 C283.6073 292.526 281 292.1333 281 292.1333 "/>
<path id="4" d="M287 276.1333 C287 276.1333 295.004 276.6637 302 275.1333 C310.4181 273.2919 311.1175 273.0746 319 269.1333 C339.6915 258.7876 339.1502 254.0984 360 246.1333 C381.8615 237.7817 384.0354 239.5212 408 235.1333 C419.1961 233.0833 419.5465 233.2288 431 233.1333 C479.2646 232.7311 515.6395 233.6236 528 234.1333 C528.0158 234.134 528.4983 236.5898 528 237.1333 C524.8305 240.591 517 246.1333 517 246.1333 "/>
<path id="5" d="M507 246.1333 L508 237.1333 "/>
<path id="6" d="M510 237.1333 L520 237.1333 "/>
<path id="7" d="M280 287.1333 L280 289.1333 "/>
<path id="8" d="M284 247.1333 L172 249.1333 "/>
<path id="9" d="M182 232.1333 C182 232.1333 190.4707 222.8392 197 222.1333 C220.8677 219.553 227.4164 222.401 256 224.1333 C259.4429 224.342 261.1845 224.9986 263 226.1333 C263.6327 226.5288 264 229.1333 264 229.1333 "/>
<path id="10" d="M265 230.1333 L263 231.1333 "/>
</g>
</g>
</svg>
