<?xml version="1.0" encoding="utf-8"?>
<!DOCTYPE svg PUBLIC "-//W3C//DTD SVG 1.1//EN" "http://www.w3.org/Graphics/SVG/1.1/DTD/svg11.dtd">
<svg viewBox="0 0 800 800" preserveAspectRatio="xMinYMin meet" xmlns="http://www.w3.org/2000/svg" version="1.1">
<g fill="none" stroke="black" stroke-linecap="round" stroke-linejoin="round" stroke-width="0.87366">
<g transform="translate(87.52,161.3477) scale(3.4338) translate(-155,-101)">
<path id="0" d="M163 180 C163 180 180.8134 182.7366 189 181 C191.7609 180.4143 193.7871 176.8725 196 173 C197.2118 170.8793 197.4051 167.8102 197 167 C196.6686 166.3371 194.3668 165.1246 192 165 C176.7014 164.1948 165.4662 162.9028 159 165 C157.4536 165.5015 154.7662 176.5325 155 177 C155.1169 177.2338 165 177 165 177 "/>
<path id="1" d="M156 176 C156 176 155.1001 188.3011 156 200 C156.5711 207.4243 159 215 159 215 "/>
<path id="2" d="M198 169 C198 169 198.8951 175.4056 198 181 C196.9826 187.359 194.7702 187.6458 194 194 C192.8577 203.4242 193.7525 211.5248 194 214 C194.0025 214.0248 195.5636 214.3571 196 214 C199.5706 211.0786 202.2461 208.6719 205 205 C205.5246 204.3006 204.6285 202.2653 205 202 C208.2938 199.6473 213.2739 199.3518 219 195 C224.9632 190.468 223.7884 187.097 230 183 C245.9377 172.4879 250.6364 173.7428 266 164 C269.0181 162.0861 267.9879 158.9794 271 157 C283.7118 148.6466 286.6191 144.9431 301 141 C314.4972 137.2991 333 140 333 140 "/>
<path id="3" d="M161 213 C161 213 160.0915 223.9436 161 230 C161.1844 231.2291 162.3257 231.8838 164 233 C169.5808 236.7206 170.3859 238.6901 176 240 C183.4122 241.7295 185.695 240.7222 194 240 C196.3872 239.7924 197.3812 239.5032 199 238 C203.5361 233.7879 204.688 232.2993 208 227 C209.1206 225.207 207.8254 223.2364 209 222 C215.3369 215.3295 217.3936 213.3643 227 207 C256.9756 187.1412 257.761 186.7406 289 169 C297.7995 164.0027 298.866 162.5547 308 161 C320.5605 158.862 332.9716 162.6709 336 161 C337.0629 160.4136 337.6103 151.1026 337 145 C336.835 143.3496 335.4571 141.7286 334 141 C331.8143 139.9072 328.6661 139.3941 327 140 C325.5393 140.5312 323.3996 142.8022 323 145 C321.8139 151.5238 322.0648 159.5952 323 162 C323.2048 162.5266 329.8814 163.0949 330 163 C330.0383 162.9694 328 158 328 158 "/>
<path id="4" d="M165 147 C165 147 165.3272 141.9817 164 138 C161.5351 130.6053 157 123 157 123 "/>
<path id="5" d="M180 142 L196 101 "/>
<path id="6" d="M202 136 C202 136 206.851 130.6754 211 130 C225.2072 127.6872 245 129 245 129 "/>
</g>
</g>
</svg>
