<?xml version="1.0" encoding="utf-8"?>
<!DOCTYPE svg PUBLIC "-//W3C//DTD SVG 1.1//EN" "http://www.w3.org/Graphics/SVG/1.1/DTD/svg11.dtd">
<svg viewBox="0 0 800 800" preserveAspectRatio="xMinYMin meet" xmlns="http://www.w3.org/2000/svg" version="1.1">
<g fill="none" stroke="black" stroke-linecap="round" stroke-linejoin="round" stroke-width="1.0897">
<g transform="translate(90.2731,87.52) scale(2.7531) translate(-113,-53.4167)">
<path id="0" d="M132 185.4167 C132 185.4167 130.7906 177.7706 132 173.4167 C132.7447 170.7358 134.2019 169.3404 137 167.4167 C141.4272 164.373 143.2525 162.7332 148 162.4167 C155.8753 161.8917 164.3968 163.4643 167 165.4167 C168.225 166.3354 168.5578 172.954 168 177.4167 C167.7945 179.0608 166.6022 180.4554 165 181.4167 C162.5671 182.8764 161.4625 183.0921 158 183.4167 C145.9115 184.55 135.871 184.5315 133 184.4167 C132.9908 184.4163 133 182.4167 133 182.4167 "/>
<path id="1" d="M130 161.4167 C130 161.4167 130.6886 157.5824 132 156.4167 C133.9671 154.6681 135.7586 153.5674 139 153.4167 C155.3231 152.6575 163.6137 151.9767 175 154.4167 C177.4255 154.9364 180.2835 158.834 181 162.4167 C182.7135 170.984 183.1968 176.3618 181 184.4167 C179.6565 189.3428 175.684 194.6411 172 195.4167 C156.3045 198.721 141.0576 197.704 124 196.4167 C122.0861 196.2722 120.8797 194.1318 119 191.4167 C116.6077 187.9611 115.6305 187.1995 115 183.4167 C113.836 176.433 112.9635 172.4154 115 167.4167 C116.9705 162.5799 120.4527 159.6526 126 156.4167 C130.698 153.6762 139 153.4167 139 153.4167 "/>
<path id="2" d="M113 175.4167 C113 175.4167 111.7063 193.1669 113 210.4167 C114.68 232.8168 114.7877 234.7381 119 255.4167 C119.913 259.8987 120.8127 261.2294 124 264.4167 C129.9193 270.336 131.9485 273.1297 139 275.4167 C147.4782 278.1664 161 276.4167 161 276.4167 "/>
<path id="3" d="M183 160.4167 C183 160.4167 182.5332 180.2636 185 195.4167 C185.6155 199.1975 189.6864 199.8418 190 203.4167 C191.8209 224.1744 193.5493 231.4168 190 252.4167 C188.2595 262.7144 184.3025 265.313 178 274.4167 C176.3044 276.8659 174.7594 277.7674 172 278.4167 C167.627 279.4456 162.331 278.1747 161 278.4167 C160.956 278.4247 161 280.4167 161 280.4167 "/>
<path id="4" d="M184 184.4167 C184 184.4167 208.6589 153.6379 230 122.4167 C235.1315 114.9095 232.5843 112.0821 238 105.4167 C250.9487 89.4799 253.0912 89.31 269 74.4167 C276.4666 67.4267 276.7328 66.7313 285 61.4167 C290.164 58.097 291.0856 57.4024 297 56.4167 C310.9795 54.0868 327 54.4167 327 54.4167 "/>
<path id="5" d="M189 259.4167 C189 259.4167 193.1042 253.5781 198 249.4167 C202.7419 245.386 205.0876 246.7894 209 242.4167 C220.9818 229.0253 221.2488 227.185 232 211.4167 C236.0932 205.4133 236.8148 204.9724 239 198.4167 C241.5653 190.7208 239.3767 189.2865 242 181.4167 C246.1778 168.8833 248.823 168.1882 253 156.4167 C253.8671 153.973 252.2361 152.5175 253 150.4167 C253.8218 148.1567 256.1967 147.8267 257 145.4167 C258.3107 141.4845 256.2902 139.6058 258 135.4167 C265.6808 116.5986 265.5023 113.1406 277 96.4167 C286.3169 82.8648 289.0897 82.2885 302 71.4167 C307.2969 66.9561 308.8657 65.848 315 64.4167 C322.1264 62.7539 332 64.4167 332 64.4167 "/>
<path id="6" d="M327 53.4167 C327 53.4167 327.2867 57.9628 328 58.4167 C329.9228 59.6403 336.4262 59.6298 338 60.4167 C338.2146 60.524 338.1125 63.3792 338 63.4167 C336.9875 63.7542 329 63.4167 329 63.4167 "/>
<path id="7" d="M328 55.4167 C328 55.4167 332.9513 55.499 334 56.4167 C335.1059 57.3844 336 62.4167 336 62.4167 "/>
<path id="8" d="M235 114.4167 C235 114.4167 246.4896 114.3843 250 116.4167 C252.001 117.5752 253.5254 121.1454 254 125.4167 C255.3568 137.6274 254 152.4167 254 152.4167 "/>
</g>
</g>
</svg>
