<?xml version="1.0" encoding="utf-8"?>
<!DOCTYPE svg PUBLIC "-//W3C//DTD SVG 1.1//EN" "http://www.w3.org/Graphics/SVG/1.1/DTD/svg11.dtd">
<svg viewBox="0 0 800 800" preserveAspectRatio="xMinYMin meet" xmlns="http://www.w3.org/2000/svg" version="1.1">
<g fill="none" stroke="black" stroke-linecap="round" stroke-linejoin="round" stroke-width="1.1137">
<g transform="translate(87.52,180.4559) scale(2.6938) translate(-237,-149)">
<path id="0" d="M464 179 C464 179 458.9916 179.8113 458 179 C455.9568 177.3283 456.0473 173.0473 453 170 C449.5174 166.5174 447.668 165.167 443 164 C437.3172 162.5793 435.5481 162.9439 429 164 C420.6715 165.3433 418.5611 165.0236 412 169 C403.7813 173.981 402.1579 176.3026 396 184 C393.0761 187.6549 394.8326 189.8927 392 194 C385.3319 203.6687 382.1458 203.1132 376 213 C371.2543 220.6343 373.6803 223.5115 369 231 C364.372 238.4048 361.3595 237.4074 356 245 C343.6895 262.4399 345.5812 265.2251 333 282 C326.7384 290.3488 325.2052 294.0343 317 297 C289.2602 307.0264 282.7599 304.98 250 312 C248.6003 312.2999 247.0296 312.1126 247 312 C246.2669 309.2143 246.9601 301.9604 245 293 C243.5788 286.503 240.4135 286.2021 240 280 C238.0773 251.16 240.8762 236.6914 240 218 C239.9697 217.3547 237.2719 216.8158 237 216 C236.3655 214.0965 236.7538 212.4473 237 209 C237.2487 205.5175 236.8019 204.7956 238 202 C239.4746 198.5593 240.0625 197.7743 243 195 C248.6783 189.6372 250.1394 187.5481 256 185 C259.3783 183.5312 263.1564 185.7109 266 185 C266.782 184.8045 266.8578 182.5439 268 182 C275.44 178.4572 278.1426 176.0802 287 175 C296.7061 173.8163 298.3798 175.1794 309 177 C315.5052 178.1152 320.4156 178.9629 322 181 C323.6592 183.1333 321.19 189.1177 323 195 C324.7905 200.8191 327.9595 200.8786 330 207 C333.6539 217.9616 335.2597 221.1297 335 231 C334.8459 236.8547 329.0005 244.9976 329 245 C328.9998 245.0009 332.2014 242.51 333 240 C335.2859 232.8157 333.3015 230.6457 336 223 C339.0149 214.4577 339.6299 213.4715 345 206 C350.7348 198.0211 352.861 198.9295 359 191 C364.6408 183.714 362.9152 181.0848 369 175 C379.2974 164.7026 381.1919 162.9377 394 156 C403.7233 150.7332 405.892 150.3885 417 149 C428.5732 147.5533 432.3897 146.4885 442 150 C454.7215 154.6482 468.5276 167.626 469 168 C469.0253 168.02 466.1132 168.6225 466 169 C465.4636 170.7881 466 178 466 178 "/>
<path id="1" d="M241 218 C241 218 244.8745 226.6248 248 228 C253.0557 230.2245 259.3512 231.2634 266 229 C279.0974 224.5413 281.6626 221.2336 295 212 C300.5363 208.1672 300.3118 204.7142 305 202 C307.8441 200.3534 311.449 202.7393 314 201 C319.9404 196.9497 327 187 327 187 "/>
<path id="2" d="M255 215 C255 215 262.6776 216.4408 267 215 C271.0823 213.6392 271.9686 209.8813 276 208 C277.9719 207.0798 279.9032 209.0146 282 208 C293.273 202.5453 295.3659 200.9984 307 193 C310.8918 190.3244 313.5776 187.056 314 186 C314.0776 185.806 312.1233 183.0702 311 183 C300.8025 182.3627 294.9161 181.7948 282 184 C276.2331 184.9846 275.668 188.2101 270 190 C267.1445 190.9017 266.0717 189.1987 263 190 C255.2922 192.0107 249.001 193.3737 247 196 C245.3499 198.1657 245.8518 208.8312 247 211 C247.5178 211.9781 256 213 256 213 "/>
</g>
</g>
</svg>
