<?xml version="1.0" encoding="utf-8"?>
<!DOCTYPE svg PUBLIC "-//W3C//DTD SVG 1.1//EN" "http://www.w3.org/Graphics/SVG/1.1/DTD/svg11.dtd">
<svg viewBox="0 0 800 800" preserveAspectRatio="xMinYMin meet" xmlns="http://www.w3.org/2000/svg" version="1.1">
<g fill="none" stroke="black" stroke-linecap="round" stroke-linejoin="round" stroke-width="1.4017">
<g transform="translate(87.52,300.4773) scale(2.1403) translate(-131,-136.4167)">
<path id="0" d="M133 146.4167 C133 146.4167 139.1579 158.7683 140 170.4167 C142.0248 198.4266 139 229.4167 139 229.4167 "/>
<path id="1" d="M139 229.4167 C139 229.4167 157.1437 226.4167 175 226.4167 C209.2245 226.4167 210.2976 230.8209 244 229.4167 C269.1188 228.3701 269.5757 223.1822 295 221.4167 C340.9308 218.227 341.7634 221.3759 388 219.4167 C400.481 218.8878 413 216.4167 413 216.4167 "/>
<path id="2" d="M134 149.4167 C134 149.4167 130.7717 140.7867 131 139.4167 C131.0681 139.0081 133.625 137.5215 136 137.4167 C165.4264 136.1184 199 136.4167 199 136.4167 "/>
<path id="3" d="M199 136.4167 C199 136.4167 199.9413 146.6267 199 156.4167 C197.4712 172.316 194 188.4167 194 188.4167 "/>
<path id="4" d="M194 188.4167 C194 188.4167 226.1994 195.4166 258 198.4167 C278.566 200.3569 279.5878 197.0559 300 198.4167 C308.8777 199.0085 309.146 202.0399 318 202.4167 C355.0334 203.9926 356.7989 200.8666 394 202.4167 C403.8713 202.828 408.6692 203.5291 414 206.4167 C416.1343 207.5728 417.7955 212.5533 418 215.4167 C418.1054 216.8924 415 220.4167 415 220.4167 "/>
<path id="5" d="M409 216.4167 L423 221.4167 "/>
</g>
</g>
</svg>
