<?xml version="1.0" encoding="utf-8"?>
<!DOCTYPE svg PUBLIC "-//W3C//DTD SVG 1.1//EN" "http://www.w3.org/Graphics/SVG/1.1/DTD/svg11.dtd">
<svg viewBox="0 0 800 800" preserveAspectRatio="xMinYMin meet" xmlns="http://www.w3.org/2000/svg" version="1.1">
<g fill="none" stroke="black" stroke-linecap="round" stroke-linejoin="round" stroke-width="1.2001">
<g transform="translate(87.52,242.5101) scale(2.4998) translate(-243.5,-187.6667)">
<path id="0" d="M282.5 233.6667 C282.5 233.6667 267.4184 233.6511 265.5 234.6667 C265.0365 234.9121 265.1147 242.4854 265.5 242.6667 C267.2397 243.4854 275.4382 243.3728 282.5 242.6667 C283.8293 242.5337 285.4417 241.133 285.5 240.6667 C285.6411 239.5376 283.5 234.6667 283.5 234.6667 "/>
<path id="1" d="M265.5 228.6667 C265.5 228.6667 260.6588 228.7072 258.5 229.6667 C257.5334 230.0963 256.6795 231.3201 256.5 232.6667 C255.8404 237.6133 255.4394 240.159 256.5 244.6667 C257.0251 246.8984 258.9893 249.4679 260.5 249.6667 C271.5275 251.1177 286.6582 250.7558 294.5 249.6667 C295.1214 249.5804 296.1793 247.0723 296.5 244.6667 C297.109 240.0991 297.9093 237.6419 296.5 234.6667 C294.6308 230.7206 291.3659 226.6608 287.5 225.6667 C278.6162 223.3823 261.5 225.6667 261.5 225.6667 "/>
<path id="2" d="M298.5 238.6667 C298.5 238.6667 296.0176 243.5257 295.5 247.6667 C295.1204 250.7034 295.9172 254.4569 296.5 254.6667 C300.5925 256.14 309.6887 257.5202 320.5 256.6667 C327.0273 256.1514 328.863 255.5186 334.5 251.6667 C357.35 236.0525 356.6921 231.822 380.5 215.6667 C398.1628 203.6812 399.2624 203.2167 418.5 194.6667 C429.9252 189.5888 431.2272 189.3188 443.5 187.6667 C456.2732 185.9472 458.1655 186.5783 470.5 187.6667 C473.8188 187.9595 474.1429 190.1366 477.5 190.6667 C482.8903 191.5178 485.3858 189.6381 489.5 190.6667 C491.2142 191.0952 492.6257 192.9181 493.5 194.6667 C494.0828 195.8324 493.5476 198.6623 493.5 198.6667 C486.5453 199.3106 459.6751 193.8329 439.5 199.6667 C426.2514 203.4976 422.463 210.7036 410.5 222.6667 C405.8988 227.2678 407.7029 229.8472 403.5 235.6667 C394.9519 247.5025 394.9098 248.7526 384.5 258.6667 C374.5265 268.1653 372.121 266.5208 361.5 275.6667 C354.4298 281.7549 355.6097 283.8116 348.5 289.6667 C339.0715 297.4313 338.3753 298.3447 327.5 303.6667 C315.6277 309.4765 314.2484 310.7639 301.5 312.6667 C282.3148 315.5301 275.081 316.4178 260.5 313.6667 C255.4711 312.7178 252.8186 308.5095 248.5 302.6667 C245.0886 298.0512 243.8324 296.2064 243.5 290.6667 C242.4764 273.6062 243.8401 270.9255 245.5 252.6667 C245.7687 249.7105 245.885 248.82 247.5 246.6667 C251.2683 241.6423 257.5 236.6667 257.5 236.6667 "/>
</g>
</g>
</svg>
