<?xml version="1.0" encoding="utf-8"?>
<!DOCTYPE svg PUBLIC "-//W3C//DTD SVG 1.1//EN" "http://www.w3.org/Graphics/SVG/1.1/DTD/svg11.dtd">
<svg viewBox="0 0 800 800" preserveAspectRatio="xMinYMin meet" xmlns="http://www.w3.org/2000/svg" version="1.1">
<g fill="none" stroke="black" stroke-linecap="round" stroke-linejoin="round" stroke-width="1.2097">
<g transform="translate(256.16,87.52) scale(2.48) translate(-302,-131.1333)">
<path id="0" d="M354 181.1333 C354 181.1333 357.5637 190.9635 356 195.1333 C353.2562 202.4501 349.1468 207.086 342 213.1333 C338.2385 216.3161 332.8194 217.6972 330 217.1333 C327.5834 216.65 323.2506 212.8853 322 209.1333 C319.3424 201.1605 318.9195 195.2369 320 187.1333 C320.4375 183.8521 323.2617 180.1113 326 179.1333 C333.0224 176.6253 339.4028 176.5192 348 177.1333 C350.4724 177.3099 354 181.1333 354 181.1333 C354 181.1333 331.8145 169.4397 326 161.1333 C323.0634 156.9382 324.4037 148.0505 326 141.1333 C326.5894 138.5793 328.9792 136.6437 332 135.1333 C335.692 133.2873 339.2876 132.147 342 133.1333 C346.5739 134.7966 352.1706 138.2548 354 143.1333 C359.0782 156.6753 359.9998 181.1326 360 181.1333 C360.0001 181.1336 358.0983 171.599 360 165.1333 C362.4889 156.671 364.048 154.9167 370 147.1333 C376.5526 138.5645 381.3178 133.2943 386 131.1333 C387.6326 130.3798 393.218 132.3513 396 135.1333 C400.3718 139.5051 403.0221 142.9399 404 149.1333 C405.5174 158.7438 405.7648 165.2273 402 173.1333 C397.9909 181.5523 391.1637 187.9494 384 191.1333 C379.2854 193.2287 365.9944 189.1389 366 189.1333 C366.0126 189.1208 380.3294 184.0114 394 181.1333 C398.6054 180.1638 401.1925 179.602 404 181.1333 C409.2066 183.9733 413.5083 187.4379 416 193.1333 C419.0154 200.0256 418.8605 207.9706 418 213.1333 C417.7812 214.4459 414.6777 216.8183 412 217.1333 C400.4129 218.4965 394.6291 219.371 384 217.1333 C379.5645 216.1995 377.2157 213.5549 374 209.1333 C370.1335 203.8169 368.1906 195.8004 368 195.1333 C367.9931 195.1091 370 195.1333 370 195.1333 C370 197.4079 371.3422 209.1957 368 217.1333 C364.7964 224.7418 361.2435 226.5483 354 233.1333 C351.0472 235.8177 347.7325 237.1333 346 237.1333 C345.1338 237.1333 342.2331 234.7653 342 233.1333 C340.776 224.5655 340.2978 219.9139 342 209.1333 C343.0601 202.4191 344.1379 200.9264 348 195.1333 C351.576 189.7694 358 185.1333 358 185.1333 "/>
<path id="1" d="M362 173.1333 C362 173.1333 352.7733 174.0506 352 175.1333 C350.985 176.5544 350.0715 183.9191 352 187.1333 C356.6285 194.8474 364.5625 201.5084 370 205.1333 C370.8458 205.6972 375.6974 203.9402 376 203.1333 C376.9968 200.4753 377.9552 194.0213 376 189.1333 C373.0952 181.8713 368.839 177.0046 364 173.1333 C362.439 171.8846 356 173.1333 356 173.1333 "/>
<path id="2" d="M370 203.1333 C370 203.1333 372.9233 204.98 374 207.1333 C376.5122 212.1577 377.4942 213.3162 378 219.1333 C379.3928 235.151 380.3487 237.1625 378 253.1333 C375.5498 269.795 373.3887 272.507 368 287.1333 C367.2173 289.2578 365.0103 288.9443 364 291.1333 C359.56 300.7533 361.2227 303.0898 356 313.1333 C348.5413 327.4769 348.0334 328.1271 338 341.1333 C321.2868 362.7986 302 383.1333 302 383.1333 "/>
<path id="3" d="M366 289.1333 C366 289.1333 360.1535 291.7267 356 291.1333 C347.9373 289.9815 344.6183 289.388 338 285.1333 C332.6361 281.6851 329.9276 278.5306 328 273.1333 C326.0193 267.5875 327.3603 262.8907 328 257.1333 C328.0888 256.3337 329.1594 255.3015 330 255.1333 C332.8021 254.5729 334.5719 254.1984 338 255.1333 C344.7004 256.9607 346.68 257.4094 352 261.1333 C355.3907 263.5069 356.2096 265.1049 358 269.1333 C359.8277 273.2457 357.7588 275.5474 360 279.1333 C366.6241 289.7319 370.5989 295.7059 378 301.1333 C380.6019 303.0414 384.8238 302.1686 390 301.1333 C393.7959 300.3742 395.9524 299.5222 398 297.1333 C400.5326 294.1787 402.7535 288.7659 402 287.1333 C399.839 282.4511 392.829 275.3358 386 271.1333 C383.3578 269.5074 378.093 269.6112 376 271.1333 C371.053 274.7312 364 287.1333 364 287.1333 "/>
</g>
</g>
</svg>
