<?xml version="1.0" encoding="utf-8"?>
<!DOCTYPE svg PUBLIC "-//W3C//DTD SVG 1.1//EN" "http://www.w3.org/Graphics/SVG/1.1/DTD/svg11.dtd">
<svg viewBox="0 0 800 800" preserveAspectRatio="xMinYMin meet" xmlns="http://www.w3.org/2000/svg" version="1.1">
<g fill="none" stroke="black" stroke-linecap="round" stroke-linejoin="round" stroke-width="1.1521">
<g transform="translate(211.21,87.52) scale(2.604) translate(-211,-56)">
<path id="0" d="M273 93 C273 93 266.1752 93.4995 266 94 C265.0352 96.7566 264.9002 112.353 266 113 C269.4037 115.0022 295.7451 115.3373 300 114 C300.6027 113.8106 302.2573 105.9516 301 102 C299.6497 97.7563 296.5246 93.2507 293 92 C285.872 89.4707 272.601 90.7738 270 91 C269.9704 91.0026 270 94 270 94 "/>
<path id="1" d="M269 70 C269 70 259.0375 61.184 252 59 C248.0771 57.7825 240.0063 60.8119 240 61 C239.9278 63.1661 245.9096 78.8191 251 89 C251.6078 90.2156 253.2164 90.9257 255 91 C263.718 91.3633 273.4089 91.1724 275 90 C275.6583 89.515 275.8408 82.3179 274 77 C271.825 70.7166 266 64 266 64 "/>
<path id="2" d="M279 88 C279 88 278.1388 84.5658 279 83 C282.6256 76.408 283.7769 74.2231 290 68 C296.7018 61.2982 298.7659 59.1003 306 56 C310.1059 54.2403 313.014 54.8128 318 56 C322.2342 57.0081 325.444 58.9253 327 61 C327.927 62.236 328.0691 65.7281 327 68 C324.8977 72.4675 323.4384 75.6101 319 78 C306.7562 84.5928 287.9998 88.9999 288 89 C288.0003 89.0001 307.0961 83.502 326 81 C340.5836 79.0698 352.8172 79.0452 356 80 C356.3215 80.0964 357.2312 85.9545 356 90 C354.1371 96.121 351.6409 102.3134 349 103 C338.0598 105.8444 306.0117 102.9901 306 103 C305.9944 103.0048 323.84 106.9302 336 114 C343.0629 118.1063 344.6803 120.9805 349 128 C351.7187 132.4179 352.196 139.8931 352 140 C350.6182 140.7537 338.2896 141.3282 327 140 C322.7232 139.4969 321.3464 138.811 318 136 C309.8019 129.1136 308.4899 127.5394 302 119 C299.7121 115.9896 299.0005 110.9962 299 111 C298.998 111.0149 302.3438 130.0768 299 141 C296.3704 149.5899 285.8863 158.8323 284 160 C283.8389 160.0997 279.9 157.1666 278 154 C275.8625 150.4375 275.2315 149.2836 275 145 C274.2938 131.9344 276.1975 117.1975 276 117 C275.9781 116.9781 267.9628 126.6158 260 130 C250.4928 134.0406 247.782 133.1379 236 134 C227.7905 134.6007 224.1074 134.9985 219 133 C216.3186 131.9508 214.4524 128.631 213 125 C212.0224 122.556 212.1109 119.63 213 118 C213.9237 116.3065 216.2104 114.3985 219 114 C234.4034 111.7995 238.6861 114.4826 255 112 C259.8356 111.2642 265.0107 107.0033 265 107 C264.967 106.9897 251.1371 108.77 239 107 C228.2536 105.4328 224.8927 103.7885 217 100 C215.3194 99.1933 214.4645 97.3223 214 95 C213.1706 90.853 213.7183 85.0671 214 85 C218.9683 83.8171 249.7981 83.7019 256 85 C256.4258 85.0891 256.3527 93.7087 257 94 C259.4354 95.0959 276 94 276 94 "/>
<path id="3" d="M274 117 C274 117 275.8531 156.5746 274 184 C273.7971 187.0036 270.4746 187.5593 269 191 C267.8019 193.7956 268.033 194.5307 268 198 C267.5381 246.5044 267.1294 283.8122 268 296 C268.0044 296.0622 274.9971 296.05 275 296 C275.8721 280.8 273.6031 208.923 275 174 C275.0366 173.084 279.6755 172.1682 280 171 C281.1091 167.0074 280 156 280 156 "/>
<path id="4" d="M273 165 C273 165 263.0996 166.7824 259 165 C255.0914 163.3006 253.9062 156.6276 250 155 C245.5499 153.1458 240.8651 153.667 235 155 C231.8186 155.723 231.4261 158.6296 228 160 C224.8023 161.2791 222.1596 159.4755 220 161 C215.8412 163.9356 210.9832 171.9832 211 172 C211.1681 172.1681 223.9522 169.4034 231 172 C239.1606 175.0066 240.8366 183.0695 249 186 C256.4453 188.6727 262.8002 187.8 270 186 C272.9999 185.25 277 179 277 179 "/>
<path id="5" d="M222 168 C222 168 225.1702 165.4245 228 165 C234.1423 164.0787 235.2631 164.3876 242 165 C245.9371 165.3579 248.6105 166.3052 250 167 C250.1544 167.0772 249.956 168.992 250 169 C251.331 169.242 259.7641 168.0493 261 169 C262.089 169.8377 261.3678 176.3477 263 179 C263.9726 180.5805 269 182 269 182 "/>
<path id="6" d="M276 109 L278 109 "/>
<path id="7" d="M290 109 L292 109 "/>
<path id="8" d="M284 108 L286 108 "/>
<path id="9" d="M281 102 L283 102 "/>
<path id="10" d="M274 104 L277 105 "/>
<path id="11" d="M274 99 L276 99 "/>
<path id="12" d="M282 94 L285 94 "/>
<path id="13" d="M289 101 L292 101 "/>
<path id="14" d="M294 107 L298 107 "/>
<path id="15" d="M319 120 L303 108 "/>
<path id="16" d="M303 94 L324 93 "/>
<path id="17" d="M286 87 C286 87 287.4773 81.5318 290 78 C291.9756 75.2341 296 73 296 73 "/>
<path id="18" d="M265 79 C265 79 272.5239 85.5758 276 90 C276.5309 90.6757 276 93 276 93 "/>
<path id="19" d="M248 100 L268 100 "/>
<path id="20" d="M255 122 L265 112 "/>
<path id="21" d="M286 117 L286 132 "/>
<path id="22" d="M284 101 C284 101 283.8349 94.0779 285 90 C285.3982 88.6063 286.5528 87.4256 288 87 C293.4378 85.4006 302 85 302 85 "/>
<path id="23" d="M271 104 C271 104 272.0298 90.791 270 88 C267.9481 85.1787 255 82 255 82 "/>
<path id="24" d="M289 105 C289 105 288.385 94.7455 290 92 C291.1046 90.1221 299 88 299 88 "/>
</g>
</g>
</svg>
