<?xml version="1.0" encoding="utf-8"?>
<!DOCTYPE svg PUBLIC "-//W3C//DTD SVG 1.1//EN" "http://www.w3.org/Graphics/SVG/1.1/DTD/svg11.dtd">
<svg viewBox="0 0 800 800" preserveAspectRatio="xMinYMin meet" xmlns="http://www.w3.org/2000/svg" version="1.1">
<g fill="none" stroke="black" stroke-linecap="round" stroke-linejoin="round" stroke-width="2.0593">
<g transform="translate(217.9021,87.52) scale(1.4568) translate(-143,-53.1333)">
<path id="0" d="M257 146.1333 C257 146.1333 256.314 167.786 257 180.1333 C257.0426 180.9 258.3401 182.1333 259 182.1333 C264.9392 182.1333 272.561 182.0357 277 180.1333 C278.4124 179.528 279.8802 176.2485 280 173.1333 C280.3186 164.8488 280.4601 159.7244 278 154.1333 C276.7675 151.3322 273.1462 149.1699 269 148.1333 C263.0769 146.6526 257.5057 149.8027 254 148.1333 C251.4848 146.9356 251.8009 141.5541 248 138.1333 C238.0418 129.1709 236.3969 128.7233 224 121.1333 C212.1252 113.863 211.3397 112.8794 199 108.1333 C192.9251 105.7968 186.9572 105.3274 185 106.1333 C184.0039 106.5435 182.5979 110.7486 182 115.1333 C181.1739 121.1914 181.1739 122.0753 182 128.1333 C182.5979 132.518 182.8273 133.4397 185 137.1333 C187.4458 141.2912 188.0815 142.1478 192 145.1333 C198.0132 149.7148 198.7471 150.0014 206 153.1333 C220.4396 159.3686 221.5725 160.1658 236 164.1333 C240.3687 165.3347 246.0001 164.1333 246 164.1333 C245.9997 164.1334 230.7217 164.5846 217 168.1333 C202.4512 171.896 200.724 171.6807 188 179.1333 C166.9728 191.4493 163.1363 194.7899 147 209.1333 C143.9264 211.8654 142.7524 218.9249 143 219.1333 C144.5708 220.4561 154.885 223.7083 166 225.1333 C173.422 226.0849 174.4911 225.5239 182 224.1333 C187.447 223.1246 187.7529 222.5382 193 220.1333 C199.627 217.096 200.6745 217.5712 206 213.1333 C217.9234 203.1972 216.7755 200.362 229 190.1333 C240.8819 180.1913 254.6279 172.1798 255 172.1333 C255.051 172.127 255.6162 180.8835 253 187.1333 C247.2682 200.826 243.9123 200.7326 237 215.1333 C226.0348 237.9775 224.8473 238.5915 217 262.1333 C212.6621 275.1472 211.7841 289.7407 212 290.1333 C212.0068 290.1458 222.6765 287.6504 228 282.1333 C247.6762 261.7417 250.3805 257.7014 267 233.1333 C272.2329 225.3977 272.3023 223.3495 274 214.1333 C275.5898 205.5029 273.7527 197.4823 274 195.1333 C274.0027 195.1073 275.9983 195.1121 276 195.1333 C276.3938 199.9904 275.6492 213.8975 277 232.1333 C277.6275 240.6045 277.7198 240.9626 280 249.1333 C283.6448 262.1937 283.649 262.8576 289 275.1333 C291.9483 281.8971 296.8076 288.1574 297 288.1333 C297.298 288.0961 302.1243 280.7148 305 273.1333 C307.4139 266.7695 307.3667 266.1001 308 259.1333 C309.3353 244.4454 309.6226 243.7645 309 229.1333 C308.644 220.7682 308.4415 220.1235 306 212.1333 C303.0778 202.5698 302.6354 201.7419 298 193.1333 C295.9653 189.3546 291.992 186.1305 292 186.1333 C292.0525 186.1521 315.7708 197.8825 340 208.1333 C354.6513 214.332 355.2026 214.6941 370 219.1333 C374.577 220.5064 375.0132 219.8217 380 220.1333 C382.9735 220.3192 384.445 220.9815 386 220.1333 C388.144 218.9639 390.4303 216.9006 391 214.1333 C393.3028 202.9483 393.6528 198.8622 393 186.1333 C392.7378 181.0207 391.9227 178.7868 389 175.1333 C385.1716 170.3479 382.0891 166.5619 377 166.1333 C343.925 163.3481 294.0001 167.1334 294 167.1333 C294 167.1333 332.7004 165.2958 366 161.1333 C369.8907 160.647 371.0374 159.7668 374 157.1333 C379.2986 152.4235 379.3632 151.3157 384 145.1333 C386.794 141.408 387.762 140.8473 389 137.1333 C389.8965 134.4439 389.6708 130.888 389 130.1333 C388.1269 129.1511 384.8147 128.1333 381 128.1333 C365.7412 128.1333 363.854 126.8567 349 130.1333 C331.2035 134.059 330.4553 135.6892 313 143.1333 C296.6878 150.09 282.2725 158.6561 281 159.1333 C280.9498 159.1522 280.2974 156.2575 281 155.1333 C284.2056 150.0043 285.4958 148.5204 291 143.1333 C308.7891 125.7228 312.6637 126.7538 328 109.1333 C334.6493 101.4937 335.8783 98.7776 338 89.1333 C340.8882 76.0049 340.3615 68.6639 339 59.1333 C338.7329 57.2637 335.4839 54.6853 333 54.1333 C328.8861 53.2191 323.9321 53.1786 321 55.1333 C316.9104 57.8597 315.0631 61.2414 312 68.1333 C301.4694 91.8272 304.8829 98.8943 293 118.1333 C286.801 128.1699 273.2825 134.5529 270 136.1333 C269.8349 136.2128 266.592 133.5752 266 131.1333 C263.1273 119.2834 265.2722 116.6313 262 103.1333 C257.3792 84.0725 257.1216 82.5812 250 65.1333 C247.6318 59.3312 245.5897 55.7901 242 54.1333 C236.9322 51.7944 228.5179 51.6274 224 53.1333 C221.6984 53.9005 218.1707 58.5491 218 62.1333 C217.3969 74.7977 219.2007 79.0371 222 95.1333 C223.1378 101.6757 223.0013 102.3502 226 108.1333 C236.6316 128.6372 250 149.1333 250 149.1333 "/>
<path id="1" d="M275 212.1333 C275 212.1333 277.5375 223.2932 276 233.1333 C270.2833 269.7204 263.9208 270.8862 260 308.1333 C255.0809 354.8648 256.0021 357.1819 258 404.1333 C258.9445 426.328 260.9946 427.1096 266 449.1333 C268.4152 459.7603 268.782 460.1908 273 470.1333 C275.6343 476.3427 280 482.1333 280 482.1333 "/>
<path id="2" d="M280 251.1333 C280 251.1333 281.3526 263.9602 280 276.1333 C277.4091 299.4516 274.0974 299.7994 272 323.1333 C270.1539 343.6707 270.7323 344.3063 272 365.1333 C274.2163 401.544 273.7821 402.2601 279 438.1333 C281.7006 456.7 288 475.1333 288 475.1333 "/>
</g>
</g>
</svg>
