<?xml version="1.0" encoding="utf-8"?>
<!DOCTYPE svg PUBLIC "-//W3C//DTD SVG 1.1//EN" "http://www.w3.org/Graphics/SVG/1.1/DTD/svg11.dtd">
<svg viewBox="0 0 800 800" preserveAspectRatio="xMinYMin meet" xmlns="http://www.w3.org/2000/svg" version="1.1">
<g fill="none" stroke="black" stroke-linecap="round" stroke-linejoin="round" stroke-width="0.95046">
<g transform="translate(172.7418,87.52) scale(3.1564) translate(-242,-74.1333)">
<path id="0" d="M300 96.1333 C300 96.1333 293.508 95.7002 291 97.1333 C288.6417 98.4809 287.0024 100.9257 286 104.1333 C284.9464 107.5049 285.3894 112.6972 286 113.1333 C287.3976 114.1316 294.9219 114.9351 300 114.1333 C302.066 113.8071 304.0506 111.8422 305 110.1333 C305.7004 108.8727 305.7151 106.9927 305 105.1333 C303.5807 101.4432 300 97.1333 300 97.1333 "/>
<path id="1" d="M292 97.1333 C292 97.1333 289.8634 92.026 289 87.1333 C288.426 83.8807 288.2982 82.4727 289 80.1333 C289.391 78.83 290.5706 77.4907 292 77.1333 C300.2906 75.0607 306.3291 73.8665 313 74.1333 C314.3291 74.1865 316.6229 76.4362 317 78.1333 C318.08 82.9932 318.7824 88.0338 317 92.1333 C315.3006 96.0419 306.9882 101.0801 307 101.1333 C307.0047 101.1543 313.9809 100.2476 319 101.1333 C321.3127 101.5415 322.3661 102.3179 324 104.1333 C326.3092 106.6991 327.2711 107.8534 328 111.1333 C329.0163 115.7067 329.1638 118.1765 328 122.1333 C327.2096 124.8206 325.1538 127.1393 323 128.1333 C320.7822 129.1569 318.2758 128.8893 315 128.1333 C312.6691 127.5954 312.1475 126.9229 310 125.1333 C306.3253 122.0711 305.2591 121.522 303 118.1333 C301.9027 116.4874 302.0003 113.1322 302 113.1333 C301.999 113.1381 301.9988 128.1357 300 132.1333 C299.2504 133.6325 293.2272 135.6574 291 135.1333 C288.4095 134.5238 285.0565 131.6293 283 128.1333 C281.0365 124.7954 280.5335 120.1549 281 118.1333 C281.2032 117.253 286.0045 115.1367 286 115.1333 C285.9854 115.1224 280.6956 116.0572 277 115.1333 C273.715 114.3121 272.4673 113.6007 270 111.1333 C266.6354 107.7688 263.7443 102.5267 264 102.1333 C265.1705 100.3325 275.69 93.6637 283 91.1333 C285.0216 90.4335 290 93.1333 290 93.1333 "/>
<path id="2" d="M304 89.1333 L301 95.1333 "/>
<path id="3" d="M296 89.1333 L297 95.1333 "/>
<path id="4" d="M305 107.1333 L313 108.1333 "/>
<path id="5" d="M304 110.1333 L310 113.1333 "/>
<path id="6" d="M290 118.1333 L290 123.1333 "/>
<path id="7" d="M294 115.1333 L295 120.1333 "/>
<path id="8" d="M287 102.1333 C287 102.1333 285.8278 99.4437 285 99.1333 C283.4107 98.5373 279 99.1333 279 99.1333 "/>
<path id="9" d="M288 106.1333 L280 106.1333 "/>
<path id="10" d="M300 123.1333 C300 123.1333 302.6046 123.5006 303 124.1333 C304.1347 125.9489 304.7654 127.6923 305 131.1333 C306.2186 149.0068 309.1907 151.3401 306 168.1333 C300.2097 198.6085 293.5392 200.5994 286 231.1333 C284.0025 239.2232 284.8285 240.9329 286 249.1333 C286.688 253.9495 287.1123 255.4436 290 259.1333 C295.2685 265.8653 304 272.1333 304 272.1333 "/>
<path id="11" d="M315 130.1333 C315 130.1333 316.487 147.5316 313 162.1333 C308.8833 179.3722 299 197.1333 299 197.1333 "/>
<path id="12" d="M305 190.1333 C305 190.1333 314.587 183.8582 324 181.1333 C332.5302 178.6641 333.947 178.6917 343 179.1333 C353.6299 179.6519 354.472 180.3465 365 183.1333 C371.0831 184.7436 371.2295 186.7594 377 188.1333 C380.9373 189.0708 386.0098 188.1236 386 188.1333 C385.9642 188.1691 375.6915 195.0846 365 200.1333 C358.0394 203.4203 357.3099 204.0891 350 205.1333 C340.6965 206.4624 338.4598 206.9278 330 205.1333 C323.8731 203.8337 322.5192 202.0293 317 198.1333 C314.6837 196.4983 314.9581 194.3082 313 193.1333 C311.1537 192.0256 306.9996 192.1334 307 192.1333 C307.0013 192.1332 318.2268 190.7714 328 191.1333 C330.8318 191.2382 334 193.1333 334 193.1333 "/>
<path id="13" d="M306 195.1333 C306 195.1333 281.6257 188.3149 265 190.1333 C255.0079 191.2262 242.0055 202.0391 242 202.1333 C241.9985 202.1595 253.1426 205.6254 264 207.1333 C270.6978 208.0636 271.5349 208.3088 278 207.1333 C287.2779 205.4464 289.1645 205.0511 297 201.1333 C300.7397 199.2635 304.1441 194.7819 304 194.1333 C303.6441 192.5319 298.2409 185.4044 293 183.1333 C286.3962 180.2717 281.6457 180.1139 274 181.1333 C269.184 181.7755 267.4657 183.3821 263 187.1333 C255.5942 193.3542 249 202.1333 249 202.1333 "/>
<path id="14" d="M250 203.1333 L249 201.1333 "/>
<path id="15" d="M300 203.1333 C300 203.1333 293.4012 209.3883 292 215.1333 C289.0383 227.2762 289.0683 231.0897 290 244.1333 C290.4313 250.1708 291.4598 252.2164 295 257.1333 C299.5554 263.4602 302.1479 263.2812 308 269.1333 C308.7022 269.8356 309.0191 271.1142 309 271.1333 C308.9427 271.1906 306.8238 271.6041 306 271.1333 C304.2739 270.147 302 267.1333 302 267.1333 "/>
<path id="16" d="M300 264.1333 C300 264.1333 296.0552 260.8326 294 257.1333 C291.3703 252.3998 290 246.1333 290 246.1333 "/>
<path id="17" d="M248 203.1333 L249 199.1333 "/>
</g>
</g>
</svg>
