<?xml version="1.0" encoding="utf-8"?>
<!DOCTYPE svg PUBLIC "-//W3C//DTD SVG 1.1//EN" "http://www.w3.org/Graphics/SVG/1.1/DTD/svg11.dtd">
<svg viewBox="0 0 800 800" preserveAspectRatio="xMinYMin meet" xmlns="http://www.w3.org/2000/svg" version="1.1">
<g fill="none" stroke="black" stroke-linecap="round" stroke-linejoin="round" stroke-width="1.5889">
<g transform="translate(138.4986,87.52) scale(1.8881) translate(-145,-148.1333)">
<path id="0" d="M218 240.1333 C218 240.1333 223.8054 219.8619 228 216.1333 C230.2758 214.1104 239.1115 214.795 245 216.1333 C247.1255 216.6164 247.9948 218.3989 250 221.1333 C253.3318 225.6767 254.6655 226.4624 256 231.1333 C257.2532 235.5194 257.513 238.603 256 242.1333 C254.094 246.5806 250.8556 250.8896 247 252.1333 C240.062 254.3714 230.1759 254.7997 225 252.1333 C220.3517 249.7387 214 235.1333 214 235.1333 "/>
<path id="1" d="M219 238.1333 C219 238.1333 211.2723 236.6394 208 233.1333 C199.2405 223.7482 197.5949 220.6951 191 208.1333 C187.6758 201.8015 187.7188 200.5007 187 193.1333 C185.7857 180.687 185.9207 179.0053 187 167.1333 C187.3019 163.8125 187.9651 163.0161 190 160.1333 C193.6497 154.963 194.6568 152.3049 199 150.1333 C203.9637 147.6515 207.3976 147.4731 214 148.1333 C220.9147 148.8248 222.7774 149.6487 229 153.1333 C234.2578 156.0777 236.5099 157.5089 239 162.1333 C242.3157 168.291 242.7238 171.6755 243 179.1333 C243.1593 183.4341 242.225 184.6833 240 189.1333 C235.4532 198.2269 232.3485 198.483 229 207.1333 C226.986 212.3361 228 220.1333 228 220.1333 "/>
<path id="2" d="M228 220.1333 C228 220.1333 226.6003 208.5246 230 204.1333 C245.811 183.7108 252.961 179.1514 276 158.1333 C280.3146 154.1972 282.3092 153.513 287 152.1333 C289.0968 151.5166 290.624 151.9453 293 153.1333 C298.8487 156.0577 300.1878 156.5744 305 161.1333 C309.0489 164.9692 311.2866 166.6491 312 171.1333 C314.1825 184.8519 314.9528 192.2485 312 205.1333 C310.5652 211.3941 307.0329 212.8684 301 219.1333 C294.2675 226.1247 293.7825 226.7454 286 232.1333 C281.3105 235.3799 280.3911 235.9781 275 237.1333 C267.3121 238.7807 257.9999 238.1333 258 238.1333 C258.0004 238.1334 280.8897 237.9348 302 241.1333 C312.9509 242.7926 318.5506 243.4105 324 248.1333 C328.7505 252.2504 329.2155 258.0838 332 267.1333 C332.9082 270.085 332.9655 271.5586 332 274.1333 C330.4482 278.2714 329.6028 279.6943 326 283.1333 C319.2209 289.6042 317.2651 293.1519 310 295.1333 C299.4451 298.0119 290.3743 296.9097 282 295.1333 C280.0605 294.7219 280.03 290.6584 277 288.1333 C265.8121 278.8101 263.2811 279.7052 252 270.1333 C247.3823 266.2153 246.22 264.5734 244 260.1333 C243.0486 258.2304 243.9948 254.1302 244 254.1333 C244.0151 254.1424 245.8186 259.649 249 263.1333 C255.7095 270.4818 259.2485 269.944 265 277.1333 C268.0474 280.9426 268.1459 282.7951 269 288.1333 C270.0273 294.5539 270.1712 295.809 269 302.1333 C267.835 308.4242 267.3919 309.5467 264 315.1333 C259.2861 322.8974 258.6836 323.9106 252 330.1333 C244.7483 336.8849 242.6676 338.5944 235 342.1333 C231.9382 343.5465 227.8107 343.5819 226 342.1333 C219.5619 336.9828 217.0169 332.3078 210 322.1333 C207.3414 318.2783 206.7385 317.5641 206 313.1333 C203.9119 300.6049 203.6544 298.5751 204 286.1333 C204.1165 281.9391 204.4981 280.0522 207 277.1333 C214.9998 267.8002 221.3662 265.3989 228 258.1333 C228.6951 257.372 228.0025 254.1294 228 254.1333 C227.9849 254.1568 224.9797 265.847 219 272.1333 C207.3975 284.3309 202.0027 289.2954 189 295.1333 C183.0185 297.8189 177.4814 296.3778 170 294.1333 C164.8057 292.575 162.6457 290.8423 159 286.1333 C151.7015 276.7062 150.8521 274.2239 146 263.1333 C144.4038 259.4848 144.523 258.2674 145 254.1333 C145.9375 246.0083 145.9474 243.7936 149 237.1333 C150.6546 233.5232 153.0607 230.6036 156 230.1333 C171.623 227.6337 178.7436 227.76 199 229.1333 C206.7091 229.656 215 234.1333 215 234.1333 "/>
<path id="3" d="M248 258.1333 C248 258.1333 258.8968 265.7977 266 275.1333 C275.704 287.8872 275.5582 289.6219 283 304.1333 C285.2765 308.5726 286 309.4827 286 314.1333 C286 329.9455 285.5646 331.3778 283 348.1333 C278.1001 380.1461 279.7877 382.1338 271 412.1333 C265.7962 429.8979 254.0184 447.0597 254 447.1333 C253.9955 447.1511 264 440.1333 264 440.1333 "/>
<path id="4" d="M265 443.1333 C265 443.1333 282.4991 431.4962 298 418.1333 C311.2277 406.7301 311.9582 406.5412 323 393.1333 C339.5983 372.9782 344.735 370.3478 354 350.1333 C358.845 339.5623 352.2182 331.7696 356 321.1333 C358.6702 313.6235 362.1123 309.9177 370 305.1333 C389.8774 293.0765 414.5045 283.9296 417 284.1333 C417.2227 284.1515 420.1032 298.1009 419 309.1333 C418.306 316.0731 417.3555 318.6889 413 324.1333 C404.7289 334.4722 400.7772 340.7027 391 344.1333 C379.207 348.2712 370.6437 343.3626 356 344.1333 C354.7008 344.2017 353 346.1333 353 346.1333 "/>
<path id="5" d="M359 344.1333 C359 344.1333 368.0728 330.0539 379 318.1333 C395.2881 300.3645 414 284.1333 414 284.1333 "/>
<path id="6" d="M379 321.1333 C379 321.1333 386.079 323.5227 393 324.1333 C402.7037 324.9895 413 324.1333 413 324.1333 "/>
<path id="7" d="M396 308.1333 L422 308.1333 "/>
<path id="8" d="M402 308.1333 L389 308.1333 "/>
<path id="9" d="M381 316.1333 L381 296.1333 "/>
<path id="10" d="M369 331.1333 C369 331.1333 369.3261 325.5536 368 321.1333 C366.5194 316.198 363 311.1333 363 311.1333 "/>
<path id="11" d="M255 440.1333 L255 457.1333 "/>
<path id="12" d="M236 457.1333 C236 457.1333 274.3882 456.6646 277 457.1333 C277.0474 457.1418 276.7609 461.8306 275 464.1333 C271.1989 469.104 268.3596 469.1031 264 474.1333 C262.4972 475.8673 262.665 479.0102 262 479.1333 C256.3176 480.1856 237.2854 479.3296 237 479.1333 C236.9836 479.122 245.9043 470.047 246 468.1333 C246.0719 466.696 238 459.1333 238 459.1333 "/>
<path id="13" d="M236 241.1333 L237 241.1333 "/>
<path id="14" d="M241 229.1333 L242 230.1333 "/>
<path id="15" d="M233 234.1333 L233 236.1333 "/>
<path id="16" d="M233 221.1333 L235 221.1333 "/>
<path id="17" d="M243 239.1333 L243 240.1333 "/>
<path id="18" d="M227 235.1333 L228 238.1333 "/>
</g>
</g>
</svg>
