<?xml version="1.0" encoding="utf-8"?>
<!DOCTYPE svg PUBLIC "-//W3C//DTD SVG 1.1//EN" "http://www.w3.org/Graphics/SVG/1.1/DTD/svg11.dtd">
<svg viewBox="0 0 800 800" preserveAspectRatio="xMinYMin meet" xmlns="http://www.w3.org/2000/svg" version="1.1">
<g fill="none" stroke="black" stroke-linecap="round" stroke-linejoin="round" stroke-width="1.3921">
<g transform="translate(236.2174,87.52) scale(2.155) translate(-237,-128.8167)">
<path id="0" d="M278 165.8167 C278 165.8167 285.5209 167.3393 286 166.8167 C287.1915 165.5169 289.5439 154.7231 289 153.8167 C288.5532 153.0721 279.9551 150.7824 277 151.8167 C274.0841 152.8372 270.5297 156.8011 269 160.8167 C267.4763 164.8164 267.7947 167.9954 269 172.8167 C269.9291 176.5331 271.6957 179.5968 274 180.8167 C277.1262 182.4717 286 181.8167 286 181.8167 "/>
<path id="1" d="M277 140.8167 C277 140.8167 265.4021 141.8819 261 144.8167 C258.2487 146.6509 256.8776 150.0777 256 154.8167 C254.6345 162.1901 253.9694 165.3189 256 171.8167 C258.1649 178.7445 266 186.8167 266 186.8167 "/>
<path id="2" d="M302 150.8167 C302 150.8167 307.4801 155.4258 309 159.8167 C311.3541 166.6173 311.7388 169.4287 311 176.8167 C310.4063 182.7534 309.0473 186.363 306 189.8167 C303.7557 192.3602 296 193.8167 296 193.8167 "/>
<path id="3" d="M267 128.8167 C267 128.8167 279.2471 127.2805 290 128.8167 C299.2836 130.1429 303.6496 130.358 309 134.8167 C314.982 139.8017 319.7085 153.2013 320 153.8167 C320.0114 153.8407 318.0004 153.8067 318 153.8167 C317.8861 156.4374 319 176.8167 319 176.8167 "/>
<path id="4" d="M237 158.8167 C237 158.8167 236.0763 165.2746 237 170.8167 C237.975 176.6667 238.0824 177.7595 241 182.8167 C245.1489 190.0081 245.9346 192.8308 252 196.8167 C260.9823 202.7193 264.7365 203.3813 276 205.8167 C281.5496 207.0166 289 204.8167 289 204.8167 "/>
<path id="5" d="M329 180.8167 C329 180.8167 330.1449 185.839 329 187.8167 C325.9956 193.0061 318 199.8167 318 199.8167 "/>
<path id="6" d="M237 173.8167 C237 173.8167 235.8885 193.0323 237 210.8167 C237.3361 216.194 237.4546 217.2617 240 221.8167 C246.4138 233.2939 249.1352 236.5789 256 244.8167 C256.8187 245.7991 259.0283 245.0069 260 245.8167 C261.0722 246.7101 260.8231 249.1442 262 249.8167 C265.923 252.0584 268.151 252.9502 274 253.8167 C280.9671 254.8488 282.5456 255.5483 289 253.8167 C301.4575 250.4744 305.9387 249.6126 315 242.8167 C320.8204 238.4514 323.0429 234.645 325 226.8167 C329.3373 209.4673 329 186.8167 329 186.8167 "/>
<path id="7" d="M267 252.8167 C267 252.8167 275.0073 262.0345 279 271.8167 C284.5578 285.4332 285.7025 287.1736 287 301.8167 C289.0666 325.1394 288.073 326.6321 286 350.8167 C283.6061 378.7458 278.6006 398.2587 278 406.8167 C277.9924 406.9255 282 407.7162 282 407.8167 C282 408.9215 278 418.8167 278 418.8167 "/>
<path id="8" d="M312 245.8167 C312 245.8167 304.4582 261.7832 299 277.8167 C296.5993 284.8688 296 285.5714 296 292.8167 C296 315.0354 296.5569 316.0144 299 338.8167 C301.0381 357.839 302.7377 357.9643 305 376.8167 C305.7011 382.6593 305.8511 383.4264 305 388.8167 C304.4699 392.1738 302.2233 392.5789 302 395.8167 C301.3205 405.6694 304.191 416.4377 303 417.8167 C302.0267 418.9436 290.9754 418.8136 283 417.8167 C281.2554 417.5986 279 414.8167 279 414.8167 "/>
<path id="9" d="M303 354.8167 L325 335.8167 "/>
<path id="10" d="M302 354.8167 C302 354.8167 307.9964 321.8307 308 321.8167 C308.0006 321.8143 308.9538 327.841 309 327.8167 C309.5654 327.5191 319.8319 317.5512 327 311.8167 C327.4655 311.4443 329 311.8167 329 311.8167 C329 311.9695 327 314.5367 327 315.8167 C327 317.0967 328.7985 319.8502 329 319.8167 C332.5257 319.2291 350.8948 311.7956 351 311.8167 C351.0248 311.8216 343.9986 322.8159 344 322.8167 C344.0191 322.8276 351.2727 317.0126 358 315.8167 C371.7585 313.3707 388.7638 314.7155 389 314.8167 C389.0441 314.8356 382.3176 319.8403 379 324.8167 C377.1422 327.6034 378.2622 332.1603 377 332.8167 C371.7544 335.5444 355.5827 337.3131 354 337.8167 C353.9766 337.8241 355.1299 339.5568 355 339.8167 C354.4803 340.8561 353.1898 342.4691 351 343.8167 C347.1158 346.2069 342.4807 346.9353 342 347.8167 C341.7106 348.3473 345.2102 354.6065 345 354.8167 C343.949 355.8677 336.8818 359.4638 330 359.8167 C319.2435 360.3683 306 356.8167 306 356.8167 "/>
</g>
</g>
</svg>
