<?xml version="1.0" encoding="utf-8"?>
<!DOCTYPE svg PUBLIC "-//W3C//DTD SVG 1.1//EN" "http://www.w3.org/Graphics/SVG/1.1/DTD/svg11.dtd">
<svg viewBox="0 0 800 800" preserveAspectRatio="xMinYMin meet" xmlns="http://www.w3.org/2000/svg" version="1.1">
<g fill="none" stroke="black" stroke-linecap="round" stroke-linejoin="round" stroke-width="1.8769">
<g transform="translate(264.1391,87.52) scale(1.5984) translate(-167,-90)">
<path id="0" d="M266 186 C266 186 255.6963 189.8439 250 189 C245.5921 188.347 243.2286 185.9643 239 182 C235.9903 179.1784 234.884 177.7128 234 174 C232.7496 168.7482 232.5234 165.2188 234 161 C235.0734 157.9333 238.1688 154.548 241 154 C249.0673 152.4386 257.0091 152.6801 265 155 C268.0669 155.8904 271.0846 159.469 272 163 C273.7721 169.8354 273.6805 175.9984 272 182 C271.296 184.5144 268.3991 186.3005 265 188 C262.4507 189.2747 258 189 258 189 "/>
<path id="1" d="M239 153 C239 153 232.6767 147.03 231 142 C229.4051 137.2154 229.9525 134.7614 231 129 C231.7838 124.689 232.1951 123.4424 235 120 C242.4741 110.8272 245.1502 111.4197 253 102 C257.242 96.9095 259.9642 89.9881 260 90 C260.1234 90.0411 261.4711 99.1943 265 106 C267.9735 111.7347 271.0998 111.1995 274 117 C278.5842 126.1685 278.6226 127.8113 281 138 C281.9453 142.0515 281.7764 143.1178 281 147 C280.4306 149.8469 279.8832 151.5203 278 153 C274.3557 155.8634 266.9992 158.0012 267 158 C267.0017 157.9974 276.1182 146.8836 284 144 C292.6813 140.8239 304.7784 143.4027 308 143 C308.0334 142.9958 308 141 308 141 C309.7805 141 317.6627 143.2875 326 143 C331.1627 142.822 336.9964 139.9877 337 140 C337.4088 141.3796 337.468 158.44 334 170 C332.5746 174.7512 329.8411 175.9658 325 180 C321.3226 183.0645 320.4242 183.6029 316 185 C311.6859 186.3623 310.922 186.1145 306 186 C289.6965 185.6208 272.9999 183.9995 273 184 C273.0001 184.0011 294.403 187.4152 307 194 C312.3935 196.8193 312.8123 200.1322 317 207 C325.1454 220.3584 331.8327 232.2391 332 235 C332.0244 235.4023 325.2898 238.9156 319 240 C311.7402 241.2517 310.0467 240.9609 303 240 C300.1773 239.6151 299.5447 238.9509 297 237 C284.9408 227.7546 282.7735 227.8594 273 217 C265.7639 208.9599 265.1908 206.0801 261 197 C260.0154 194.8667 261 190.9999 261 191 C261 191.0002 263 198.1872 263 205 C263 215.7059 264.4531 218.5591 261 227 C256.6802 237.5596 253.6552 238.7712 245 249 C237.3565 258.0333 228.2134 265.9498 228 266 C227.9689 266.0073 228.9915 258.9493 228 253 C227.1101 247.6609 224.6453 247.3237 224 242 C222.7639 231.8021 222.8887 230.557 224 220 C224.8295 212.1201 224.5491 210.5385 228 204 C233.3192 193.9215 243.0225 184.0079 243 184 C242.9143 183.97 224.9689 194.0974 208 197 C189.3096 200.197 167.0735 197.0147 167 197 C166.9824 196.9965 173.3537 194.6783 178 191 C184.8711 185.5604 184.0766 183.3257 191 178 C196.5341 173.743 197.9155 171.968 204 171 C217.3644 168.8738 235 171 235 171 C235 171 219.0954 173.0439 208 171 C202.9497 170.0697 199.4081 167.9734 197 164 C191.4576 154.8551 191.242 150.9682 188 138 C185.8769 129.5076 185.8665 120.0534 186 120 C186.4623 119.8151 196.8963 126.2988 208 130 C217.3505 133.1168 222.6692 131.1125 228 134 C230.1343 135.1561 232 143 232 143 "/>
<path id="2" d="M264 226 C264 226 265.2277 250.5256 262 274 C254.3277 329.7987 248.7691 330.4936 242 386 C238.9242 411.2216 243.6199 412.3512 242 438 C240.6486 459.3965 236 481 236 481 "/>
<path id="3" d="M279 227 C279 227 281.2252 267.8002 279 306 C278.3141 317.774 276.8358 319.1899 273 330 C271.7119 333.63 269.1036 333.3533 268 337 C258.349 368.8903 255.4732 371.7927 250 406 C245.7116 432.8024 252.2014 437.7612 248 462 C246.4411 470.9935 237 481 237 481 "/>
</g>
</g>
</svg>
