<?xml version="1.0" encoding="utf-8"?>
<!DOCTYPE svg PUBLIC "-//W3C//DTD SVG 1.1//EN" "http://www.w3.org/Graphics/SVG/1.1/DTD/svg11.dtd">
<svg viewBox="0 0 800 800" preserveAspectRatio="xMinYMin meet" xmlns="http://www.w3.org/2000/svg" version="1.1">
<g fill="none" stroke="black" stroke-linecap="round" stroke-linejoin="round" stroke-width="1.1953">
<g transform="translate(98.8145,87.52) scale(2.5099) translate(-224,-154)">
<path id="0" d="M279 216 C279 216 278.2567 225.2567 279 226 C279.892 226.892 289.5042 227.5784 290 227 C290.9328 225.9117 292.0844 214.1688 291 212 C290.4017 210.8034 283.0873 209 281 209 C280.5825 209 279.1795 210.6534 279 212 C278.3404 216.9467 278.5278 220.931 279 224 C279.0515 224.3344 281 225 281 225 "/>
<path id="1" d="M279 212 C279 212 269.2053 205.5055 262 198 C257.789 193.6135 257.7096 192.6654 255 187 C252.3725 181.5062 251.9 180.8497 251 175 C250.0013 168.5083 250.0805 166.5168 251 161 C251.2955 159.2268 252.741 157.4578 254 157 C256.261 156.1778 259.9554 155.6666 262 157 C268.3338 161.1307 270.6159 164.2719 277 172 C279.6347 175.1894 280.2509 176.0404 281 180 C283.5294 193.3699 284 209.0001 284 209 C284 208.9999 282.8142 185.5531 284 165 C284.2203 161.1822 285.1111 158.8889 287 157 C288.8889 155.1111 294.1653 153.6965 295 154 C295.67 154.2436 297.8173 157.7107 298 161 C299.1984 182.5717 299.6478 193.9934 298 208 C297.835 209.4024 292.0039 212.0091 292 212 C291.9734 211.938 292.4599 205.4452 295 201 C299.8804 192.4593 300.9406 191.6241 308 184 C313.1324 178.457 315.2893 175.5702 320 174 C323.4818 172.8394 328.3924 174.3165 332 176 C333.4877 176.6942 334.5919 178.6873 335 181 C335.8857 186.0191 336.5526 188.3421 335 193 C332.6711 199.9868 331.0846 202.068 326 208 C322.9301 211.5816 321.6646 212.2508 317 214 C306.5306 217.926 293.9975 219.9992 294 220 C294.0048 220.0016 317.1768 218.2177 335 220 C339.1298 220.413 340.2941 221.989 344 225 C347.83 228.1119 349.1138 229.497 351 233 C351.8013 234.4882 351.7004 236.7393 351 238 C350.0506 239.7089 348.1987 241.7107 346 242 C332.8184 243.7344 324.013 246.7366 313 243 C302.9564 239.5924 290.0008 222.9968 290 223 C289.9985 223.006 304.7509 240.6341 310 255 C312.622 262.1759 310.1149 266.4521 309 275 C308.8194 276.3847 307.9925 277.5038 307 278 C305.1568 278.9216 302.427 279.6586 301 279 C298.364 277.7834 296.3787 275.8654 294 272 C288.838 263.6118 287.581 262.5298 285 253 C281.3781 239.6268 281 224 281 224 "/>
<path id="2" d="M281 224 C281 224 282.9917 244.4026 281 261 C280.2615 267.1545 278.063 270.937 275 274 C273.2267 275.7733 267.6826 276.8413 266 276 C262.9503 274.4751 258.3045 269.7289 257 265 C255.2851 258.7836 255.2787 253.1684 258 247 C261.2726 239.5822 272 231 272 231 "/>
<path id="3" d="M273 230 L276 225 "/>
<path id="4" d="M276 225 L276 222 "/>
<path id="5" d="M276 222 C276 222 272.2452 226.0189 268 228 C257.885 232.7203 256.8524 233.4956 246 236 C238.1582 237.8096 234.7939 237.5794 229 237 C227.8686 236.8869 226.4934 235.4803 226 234 C224.4374 229.3123 223.7359 226.2254 224 222 C224.0931 220.51 225.3406 218.7902 227 218 C234.0566 214.6397 236.2293 213.2238 245 212 C256.6401 210.3758 259.557 209.7076 270 212 C277.5088 213.6483 286 221 286 221 C286 221 276.2004 213.7352 267 211 C259.3387 208.7223 256.5591 211.5748 249 210 C246.1632 209.409 245.7009 208.2507 243 206 C239.8168 203.3474 239.0174 203.2279 237 200 C234.4135 195.8617 234.134 194.8195 233 190 C232.2745 186.9166 232.1109 184.63 233 183 C233.9237 181.3065 236.4706 179.542 239 179 C241.8719 178.3846 244.2159 178.4264 247 180 C254.0803 184.0019 255.7055 185.2086 262 192 C274.2274 205.1927 285 221 285 221 "/>
<path id="6" d="M300 229 C300 229 307.4358 232.9922 313 238 C316.9819 241.5837 318.0118 242.4271 320 247 C322.5265 252.811 322.4813 254.0834 323 261 C323.9481 273.6419 323.9688 274.4053 323 287 C322.507 293.4091 322.3083 293.9408 320 300 C314.4586 314.5462 314.9782 315.8468 307 329 C296.9297 345.6023 293.2468 344.349 283 361 C273.6128 376.2543 267 394 267 394 "/>
<path id="7" d="M290 224 L307 235 "/>
<path id="8" d="M306 241 C306 241 315.2078 246.1712 316 250 C319.5363 267.0922 320.9091 278.6361 318 299 C316.6435 308.4952 312.666 310.304 306 320 C301.9264 325.9253 299.8378 325.1304 296 331 C291.7161 337.5518 293.2837 339.8422 289 346 C285.9255 350.4196 283.6964 349.5115 280 354 C270.0112 366.1292 266.32 367.5868 261 380 C257.2827 388.6737 259 403 259 403 "/>
<path id="9" d="M269 393 C269 393 269.5515 402.0809 269 403 C268.8015 403.3309 263 403 263 403 "/>
<path id="10" d="M260 401 C260 401 259.9138 402.9655 260 403 C260.5388 403.2155 265 403 265 403 "/>
<path id="11" d="M284 365 C284 365 295.2203 360.5827 306 360 C331.1439 358.6409 332.9644 362.1045 358 361 C365.7948 360.6561 374 357 374 357 "/>
<path id="12" d="M309 362 C309 362 308.7575 357.9328 310 356 C312.4583 352.176 313.4968 350.5518 318 348 C341.9771 334.413 350.7874 333.0294 370 322 C371.3981 321.1974 371.9979 316.9951 372 317 C372.0063 317.0146 372.0461 328.1824 373 329 C374.0988 329.9418 379.9833 329.9627 386 329 C391.8501 328.064 397.8955 324.8641 398 325 C398.3089 325.4016 395.0337 341.2831 396 342 C399.4099 344.5299 413.0204 343.7701 429 348 C446.6374 352.6687 463.2077 359.6166 464 360 C464.0495 360.0239 460 363 460 363 "/>
<path id="13" d="M312 363 C312 363 321.5155 372.3209 332 378 C344.6591 384.857 346.5596 385.3039 360 389 C365.1986 390.4296 371.7752 389.3092 372 389 C372.2085 388.7134 367.9357 378.0143 368 378 C369.625 377.6389 407.446 381.2032 408 381 C408.0693 380.9746 397.9764 367.0144 398 367 C398.5278 366.6787 414.8866 368.3428 431 367 C444.3871 365.8844 449.639 364.5948 458 362 C458.9492 361.7054 460.0235 358.0088 460 358 C459.1203 357.6701 450.8899 355.9084 442 356 C402.9231 356.4029 363 359 363 359 "/>
<path id="14" d="M334 362 L351 349 "/>
<path id="15" d="M369 350 C369 350 369.9688 355.011 370 355 C370.8118 354.7135 386 344 386 344 "/>
<path id="16" d="M347 363 L368 365 "/>
<path id="17" d="M376 361 L391 362 "/>
</g>
</g>
</svg>
