<?xml version="1.0" encoding="utf-8"?>
<!DOCTYPE svg PUBLIC "-//W3C//DTD SVG 1.1//EN" "http://www.w3.org/Graphics/SVG/1.1/DTD/svg11.dtd">
<svg viewBox="0 0 800 800" preserveAspectRatio="xMinYMin meet" xmlns="http://www.w3.org/2000/svg" version="1.1">
<g fill="none" stroke="black" stroke-linecap="round" stroke-linejoin="round" stroke-width="1.6657">
<g transform="translate(87.52,137.0485) scale(1.801) translate(-132,-84.1333)">
<path id="0" d="M257 91.1333 C257 91.1333 242.7458 85.6833 239 87.1333 C234.6299 88.825 229.2929 96.8219 226 103.1333 C225.0637 104.928 226.29 109.7783 227 110.1333 C229.8401 111.5534 242.355 110.6818 244 112.1333 C245.0056 113.0206 245.5137 119.5328 244 125.1333 C240.8909 136.6371 236.281 137.3481 234 149.1333 C230.6239 166.5767 228.9315 171.5546 232 187.1333 C234.5258 199.9566 238.83 205.9091 247 215.1333 C251.1896 219.8636 255.484 221.6593 263 222.1333 C306.4282 224.872 311.925 223.028 358 222.1333 C361.8988 222.0576 363.5882 222.0627 366 220.1333 C371.8284 215.4706 376.8419 212.2132 378 206.1333 C381.4844 187.8403 381.6785 178.6387 378 157.1333 C375.8061 144.3075 366.7879 142.4702 365 130.1333 C362.4271 112.3802 368.9247 98.7671 368 88.1333 C367.8979 86.9592 364.2858 85.0095 361 84.1333 C357.7414 83.2644 356.4776 83.174 353 84.1333 C342.912 86.9162 338.0968 86.5591 332 92.1333 C324.2606 99.2094 323.723 111.5549 318 116.1333 C315.2419 118.3398 309.0467 117.0942 302 116.1333 C299.1773 115.7484 298.9366 113.7206 296 113.1333 C289.682 111.8697 287.685 114.3199 282 112.1333 C269.9916 107.5147 265.6378 104.5317 257 98.1333 C255.4262 96.9676 255 92.1333 255 92.1333 "/>
<path id="1" d="M272 225.1333 C272 225.1333 269.4642 225.5975 269 225.1333 C266.3695 222.5028 264.6233 220.3799 262 215.1333 C257.8222 206.7777 256.4676 205.9388 255 197.1333 C252.6902 183.2742 252.7151 179.019 254 167.1333 C254.3241 164.1351 256.1732 161.7823 259 160.1333 C266.1838 155.9428 269.0295 153.8453 278 153.1333 C298.1107 151.5372 303.0337 151.2197 322 155.1333 C331.0832 157.0076 332.4941 159.8956 341 166.1333 C346.9919 170.5274 346.8132 171.5475 352 177.1333 C353.1876 178.4122 353.9552 178.8782 354 180.1333 C354.3643 190.3346 355.9922 195.0058 353 205.1333 C350.3331 214.1598 341 224.1333 341 224.1333 "/>
<path id="2" d="M288 154.1333 C288 154.1333 290.0703 167.6861 292 169.1333 C294.0246 170.6518 301.6528 170.6567 308 169.1333 C312.1416 168.1394 315.9246 165.4187 317 163.1333 C318.1064 160.7823 316 152.1333 316 152.1333 "/>
<path id="3" d="M305 174.1333 C305 174.1333 306.9779 174.8344 307 175.1333 C307.5015 181.9031 307.5015 194.3636 307 201.1333 C306.9779 201.4323 305 202.1333 305 202.1333 "/>
<path id="4" d="M305 202.1333 C305 202.1333 297.1132 200.2787 293 197.1333 C290.11 194.9234 288.0163 189.1905 288 189.1333 C287.9968 189.1221 290.5886 189.4134 291 190.1333 C294.8106 196.8018 296.8074 205.8766 300 210.1333 C300.5371 210.8494 303.4808 210.8743 306 210.1333 C311.236 208.5933 312.3964 208.2832 317 205.1333 C321.3012 202.1904 323.4377 200.6484 325 197.1333 C326.352 194.0914 325 187.1333 325 187.1333 "/>
<path id="5" d="M285 131.1333 C285 131.1333 279.2434 128.61 274 128.1333 C268.9257 127.672 264.1776 127.9558 263 129.1333 C261.6262 130.5072 260.492 140.6253 261 141.1333 C261.8128 141.9462 271.3085 143.7573 276 142.1333 C280.6299 140.5307 287 132.1333 287 132.1333 "/>
<path id="6" d="M336 129.1333 C336 129.1333 318.2863 132.6295 315 135.1333 C314.0209 135.8793 314.1005 142.2101 315 145.1333 C315.3805 146.3701 317.2374 147.8689 319 148.1333 C325.3374 149.0839 328.0163 149.2973 335 148.1333 C338.7828 147.5029 340.5539 146.3348 343 144.1333 C344.3707 142.8997 345.3548 139.8429 345 139.1333 C344.0243 137.182 337 132.1333 337 132.1333 "/>
<path id="7" d="M261 221.1333 C261 221.1333 242.6002 218.128 225 213.1333 C205.8274 207.6925 205.3808 204.7285 187 200.1333 C180.7617 198.5738 178.8911 199.2032 173 200.1333 C170.6967 200.497 168.5543 201.6784 168 203.1333 C165.8368 208.8117 163.9495 215.2505 165 221.1333 C165.6874 224.983 168.5435 228.5867 173 231.1333 C183.6307 237.208 186.7351 238.2151 200 241.1333 C210.5483 243.454 214.5442 240.5674 223 242.1333 C224.729 242.4535 225.386 243.9324 227 246.1333 C230.7558 251.2548 231.6763 251.4016 234 257.1333 C238.9105 269.246 239.6379 270.2732 242 283.1333 C243.9935 293.9871 244.6633 299.0049 243 306.1333 C242.3522 308.9096 239.0391 311.787 235 313.1333 C222.101 317.433 219.4734 317.7407 204 319.1333 C170.0165 322.1918 160.9786 320.3039 135 322.1333 C134.1964 322.1899 133.0761 323.3218 133 324.1333 C131.9534 335.2972 129.485 342.8157 132 354.1333 C133.4734 360.7634 137.5214 365.1888 143 369.1333 C147.0612 372.0574 150.1049 371.9746 157 372.1333 C299.1703 375.407 306.7824 374.7025 447 376.1333 C448.9288 376.153 450.3454 376.0743 451 375.1333 C462.1578 359.094 479.1445 334.3956 479 330.1333 C478.9507 328.6803 463.3309 319.3693 449 316.1333 C435.171 313.0107 431.1365 318.4413 417 316.1333 C408.913 314.813 404.6915 313.0125 400 308.1333 C395.0491 302.9844 393.1634 298.7132 392 290.1333 C389.5007 271.701 390.2324 266.4553 392 249.1333 C392.3669 245.5379 394.0241 242.9573 397 241.1333 C406.8389 235.1031 409.8961 234.5013 423 230.1333 C431.9813 227.1395 435.0887 229.461 442 226.1333 C446.0734 224.1721 448.123 221.122 450 217.1333 C451.1764 214.6335 451.1492 211.0486 450 209.1333 C448.2188 206.1646 445.4842 203.7348 441 202.1333 C433.1736 199.3382 431.4417 199.9426 422 199.1333 C414.1552 198.4609 413.5032 197.7691 406 199.1333 C386.8582 202.6137 367 209.1333 367 209.1333 "/>
<path id="8" d="M272 135.1333 L269 138.1333 "/>
<path id="9" d="M326 142.1333 L331 143.1333 "/>
<path id="10" d="M303 242.1333 C303 242.1333 292.4597 244.4536 287 249.1333 C280.4058 254.7855 277.0319 258.5599 275 266.1333 C272.6152 275.0223 274.0564 278.6879 276 290.1333 C278.4412 304.5093 278.5652 310.7546 284 319.1333 C286.9215 323.6373 292.6514 322.5065 300 327.1333 C305.8219 330.799 306.1233 335.0361 311 336.1333 C321.8579 338.5764 328.3801 339.0383 340 336.1333 C348.8151 333.9296 351.0831 330.9946 359 324.1333 C365.2294 318.7345 368.8465 316.3204 370 310.1333 C373.234 292.7873 374.0668 284.1965 370 265.1333 C366.9803 250.9785 362.174 244.6696 354 235.1333 C350.8212 231.4248 346.7565 230.7476 340 230.1333 C320.8353 228.3911 318.4263 229.3067 299 230.1333 C296.1168 230.256 295.3374 230.5751 293 232.1333 C288.4315 235.179 285.1427 236.7053 284 240.1333 C282.0263 246.0544 284 259.1333 284 259.1333 "/>
</g>
</g>
</svg>
