<?xml version="1.0" encoding="utf-8"?>
<!DOCTYPE svg PUBLIC "-//W3C//DTD SVG 1.1//EN" "http://www.w3.org/Graphics/SVG/1.1/DTD/svg11.dtd">
<svg viewBox="0 0 800 800" preserveAspectRatio="xMinYMin meet" xmlns="http://www.w3.org/2000/svg" version="1.1">
<g fill="none" stroke="black" stroke-linecap="round" stroke-linejoin="round" stroke-width="2.1169">
<g transform="translate(87.52,227.8171) scale(1.4171) translate(-86,-85.1333)">
<path id="0" d="M255 112.1333 C255 112.1333 221.6875 121.8905 197 136.1333 C185.9646 142.4999 184.4154 146.4552 177 157.1333 C173.0739 162.787 173.0151 164.8246 172 172.1333 C170.6417 181.9128 170.0896 183.5812 172 193.1333 C174.8202 207.2341 175.9776 208.2196 182 222.1333 C190.3526 241.4306 190.6508 241.8005 201 260.1333 C208.0159 272.5616 208.0037 273.2541 217 284.1333 C229.1608 298.8394 229.915 299.3586 244 312.1333 C250.9831 318.4668 251.7783 319.0225 260 323.1333 C267.0745 326.6706 268.2009 327.3687 276 328.1333 C292.5534 329.7562 293.8089 329.7251 311 328.1333 C347.3104 324.7713 347.5177 323.2239 384 318.1333 C390.5118 317.2247 391.0169 318.069 397 316.1333 C407.4832 312.7417 410.5317 313.2611 418 307.1333 C427.7013 299.1733 428.3464 295.9326 436 284.1333 C439.9491 278.0452 440.1445 277.2462 442 270.1333 C446.0013 254.795 446.9773 253.9847 448 238.1333 C449.9262 208.2778 451.1439 205.7428 448 177.1333 C446.3972 162.5477 443.9292 161.2976 438 147.1333 C435.1645 140.3596 434.9029 138.6981 430 134.1333 C421.6995 126.4053 419.9192 125.9141 409 120.1333 C394.8254 112.6291 394.1506 111.4011 379 107.1333 C359.6592 101.6852 358.2781 101.4141 338 100.1333 C311.608 98.4665 310.2614 98.8355 284 101.1333 C271.1212 102.2602 267.8788 102.775 258 107.1333 C253.872 108.9545 250 116.1333 250 116.1333 "/>
<path id="1" d="M198 136.1333 C198 136.1333 192.9614 125.6852 186 119.1333 C177.0204 110.682 175.0035 110.1352 164 104.1333 C159.3931 101.6205 158.2582 101.2345 153 101.1333 C133.5217 100.7587 130.9786 100.8559 112 103.1333 C107.6373 103.6569 106.6179 104.4675 103 107.1333 C97.7405 111.0087 96.983 111.7445 93 117.1333 C88.8377 122.7646 87.2668 124.2217 86 130.1333 C84.7083 136.1614 84.7311 139.6502 87 145.1333 C89.7308 151.7327 91.9671 152.8684 98 159.1333 C104.7325 166.1247 105.1068 166.4601 113 172.1333 C120.8426 177.7702 121.3723 178.5807 130 182.1333 C137.6184 185.2703 138.7536 185.3837 147 186.1333 C154.5556 186.8202 155.7777 186.4465 163 185.1333 C165.9214 184.6022 168.3621 183.0264 169 182.1333 C169.2877 181.7306 168 178.1333 168 178.1333 "/>
<path id="2" d="M423 122.1333 C423 122.1333 435.2751 106.0425 449 97.1333 C461.6073 88.9496 467.3975 86.3222 480 85.1333 C488.3696 84.3437 493.1147 86.9322 502 92.1333 C511.8569 97.9032 515.231 100.3645 521 109.1333 C525.8787 116.5489 525.6265 119.8318 527 130.1333 C528.5121 141.4744 528.3126 143.3044 527 154.1333 C526.4813 158.4129 525.7053 160.0674 523 163.1333 C519.1771 167.466 517.8174 168.2246 512 171.1333 C500.3652 176.9507 498.9883 177.8033 487 181.1333 C482.2527 182.452 480.8356 182.3768 476 181.1333 C464.4321 178.1587 452 172.1333 452 172.1333 "/>
<path id="3" d="M313 223.1333 C313 223.1333 305.2215 221.8002 301 223.1333 C297.8709 224.1215 295.8892 226.7043 294 229.1333 C293.5048 229.7701 293.4652 231.4751 294 232.1333 C298.2008 237.3035 300.1906 239.562 307 245.1333 C310.7714 248.219 311.9405 249.5319 316 250.1333 C323.4399 251.2355 327.1672 251.3296 334 249.1333 C338.6884 247.6264 341.4418 244.8544 344 241.1333 C345.4941 238.9601 345.613 235.7898 345 233.1333 C344.5326 231.1081 343.3388 229.6586 341 228.1333 C332.7791 222.7719 331.2575 221.7702 322 218.1333 C318.2076 216.6435 316.9195 216.6722 313 217.1333 C309.3141 217.567 305 220.1333 305 220.1333 "/>
<path id="4" d="M252 166.1333 C252 166.1333 244.3503 165.4945 238 167.1333 C229.6239 169.2949 228.6396 169.9952 221 174.1333 C217.2338 176.1734 215.2944 177.5445 214 180.1333 C212.91 182.3134 213.2376 185.0839 214 188.1333 C214.4526 189.9439 215.2911 191.2382 217 192.1333 C224.267 195.9398 226.2965 197.6102 235 199.1333 C244.9597 200.8763 246.7656 200.9047 257 199.1333 C271.6806 196.5925 278.6977 195.3519 287 190.1333 C290.0668 188.2056 292.5702 177.785 292 177.1333 C289.7688 174.5833 278.507 168.5901 266 166.1333 C252.6762 163.5161 249.4118 165.3444 236 166.1333 C234.1592 166.2416 232 168.1333 232 168.1333 "/>
<path id="5" d="M391 163.1333 C391 163.1333 373.905 161.835 358 163.1333 C350.1311 163.7757 349.5161 164.3774 342 167.1333 C334.8712 169.7472 331.613 171.0021 328 174.1333 C326.8837 175.1008 326.6385 179.9118 327 180.1333 C332.3961 183.4406 343.6091 189.2856 359 193.1333 C367.7324 195.3164 372.6012 195.9226 379 193.1333 C387.4498 189.4501 395.0209 180.602 398 176.1333 C398.5021 175.3802 397.0416 170.7451 395 169.1333 C389.6565 164.9148 386.9853 163.8869 379 161.1333 C373.1725 159.1239 371.4964 158.8585 366 159.1333 C362.9535 159.2857 359 162.1333 359 162.1333 "/>
<path id="6" d="M282 275.1333 C282 275.1333 294.0905 277.629 304 282.1333 C309.7597 284.7514 309.1967 287.3929 315 290.1333 C326.4866 295.5576 327.8816 296.4732 340 299.1333 C347.1877 300.7111 349.297 301.0239 356 299.1333 C366.9353 296.049 369.1368 293.9782 379 288.1333 C381.3266 286.7546 382.1967 285.5434 383 283.1333 C384.3107 279.2012 384.0994 274.1269 384 273.1333 C383.998 273.1133 382 273.1333 382 273.1333 "/>
<path id="7" d="M253 184.1333 C253 184.1333 260.9369 188.5511 266 190.1333 C266.9148 190.4192 269.0028 189.1347 269 189.1333 C268.9916 189.1292 263.0221 188.5714 262 188.1333 C261.8821 188.0828 262 186.1333 262 186.1333 "/>
<path id="8" d="M376 180.1333 C376 180.1333 388 183.1334 388 183.1333 C388 183.1333 377 178.1333 377 178.1333 "/>
</g>
</g>
</svg>
