<?xml version="1.0" encoding="utf-8"?>
<!DOCTYPE svg PUBLIC "-//W3C//DTD SVG 1.1//EN" "http://www.w3.org/Graphics/SVG/1.1/DTD/svg11.dtd">
<svg viewBox="0 0 800 800" preserveAspectRatio="xMinYMin meet" xmlns="http://www.w3.org/2000/svg" version="1.1">
<g fill="none" stroke="black" stroke-linecap="round" stroke-linejoin="round" stroke-width="1.4833">
<g transform="translate(216.9616,87.52) scale(2.0225) translate(-187,-136.1333)">
<path id="0" d="M268 159.1333 C268 159.1333 258.6053 156.8875 250 157.1333 C241.8057 157.3675 240.8521 157.5929 233 160.1333 C224.4411 162.9024 222.7175 163.5532 216 168.1333 C213.0764 170.1267 212.1006 171.6743 211 175.1333 C208.9968 181.4292 208.7577 183.1063 209 190.1333 C209.2289 196.7709 208.9409 198.8892 212 204.1333 C218.3123 214.9545 220.0529 217.3993 230 226.1333 C239.4075 234.3936 241.483 234.5393 253 240.1333 C258.2009 242.6595 260.166 240.6112 265 243.1333 C270.5932 246.0515 270.2326 249.6193 276 252.1333 C288.169 257.4378 290.3402 257.1799 304 260.1333 C308.1352 261.0274 311.1965 261.6029 313 260.1333 C320.1992 254.2673 328.4533 248.1927 331 238.1333 C336.5146 216.3508 333 208.9814 333 181.1333 C333 175.7591 333.3159 174.2504 331 170.1333 C325.27 159.9467 323.6158 154.0156 315 149.1333 C299.1375 140.1446 292.5079 140.3065 271 136.1333 C260.3668 134.0702 257.807 135.0826 248 136.1333 C245.731 136.3764 243 139.1333 243 139.1333 "/>
<path id="1" d="M263 245.1333 C263 245.1333 257.0978 248.1476 255 252.1333 C243.4771 274.0269 238.6173 277.9547 233 302.1333 C227.9819 323.7328 231.3101 326.9881 232 351.1333 C232.297 361.5296 233.0877 361.7521 235 372.1333 C236.5738 380.6766 235.4439 382.4162 239 389.1333 C243.5409 397.7105 245.3557 399.2798 253 406.1333 C259.0307 411.5402 260.2374 411.8342 268 415.1333 C279.7109 420.1105 280.5651 420.8306 293 423.1333 C306.7914 425.6873 311.8907 426.7295 322 425.1333 C325.6171 424.5622 327.5162 421.4211 331 417.1333 C333.5596 413.9831 333.8646 413.1883 335 409.1333 C337.221 401.2012 337.6443 400.5519 338 392.1333 C339.1215 365.59 339.0166 364.9027 338 338.1333 C337.5272 325.6836 338.5135 323.6739 335 313.1333 C332.2072 304.755 328.4382 305.0098 324 296.1333 C315.1235 278.3804 308 259.1333 308 259.1333 "/>
<path id="2" d="M247 274.1333 C247 274.1333 219.3093 277.6539 197 283.1333 C193.4842 283.9969 192.5089 285.3735 190 288.1333 C188.0731 290.2529 187.4729 291.2962 187 294.1333 C186.127 299.3711 185.767 303.3151 187 306.1333 C187.7257 307.792 190.881 309.8581 194 310.1333 C205.4154 311.1406 207.9442 310.5076 221 309.1333 C226.4505 308.5596 232 306.1333 232 306.1333 "/>
<path id="3" d="M317 271.1333 C317 271.1333 338.2243 269.3708 355 270.1333 C357.7122 270.2566 358.8586 271.1567 361 273.1333 C364.738 276.5838 366.8035 278.3445 368 282.1333 C369.0336 285.4063 368.7581 288.7769 367 292.1333 C364.2873 297.3122 362.1605 299.1196 357 303.1333 C354.1262 305.3685 352.867 305.6289 349 306.1333 C342.0875 307.035 334 306.1333 334 306.1333 "/>
<path id="4" d="M255 410.1333 C255 410.1333 243.8637 420.9259 239 429.1333 C237.6339 431.4387 237.9551 435.4354 239 437.1333 C240.296 439.2394 243.3109 441.4239 247 442.1333 C254.4099 443.5583 258.5079 442.7825 265 442.1333 C265.7935 442.054 266.4475 441.2383 267 440.1333 C269.2099 435.7136 270.3928 434.7884 271 430.1333 C271.7427 424.4396 270 417.1333 270 417.1333 "/>
<path id="5" d="M318 427.1333 C318 427.1333 318.9698 431.1031 321 433.1333 C326.1884 438.3217 327.56 439.7734 334 443.1333 C337.9039 445.1702 342.2903 445.6594 344 445.1333 C344.8829 444.8617 346.6151 441.956 347 439.1333 C347.9609 432.0867 349.0365 428.1321 347 423.1333 C345.0295 418.2966 336 412.1333 336 412.1333 "/>
<path id="6" d="M257 189.1333 C257 189.1333 259.3792 193.2273 262 195.1333 C264.0865 196.6508 267.7195 197.2268 268 197.1333 C268.0701 197.11 268.6253 194.384 268 193.1333 C266.6712 190.4757 263 187.1333 263 187.1333 "/>
<path id="7" d="M292 190.1333 C292 190.1333 296.7498 196.6332 301 199.1333 C303.5536 200.6355 308.092 200.5369 309 200.1333 C309.3872 199.9612 310.2667 195.3333 310 195.1333 C308.4486 193.9698 297 191.1333 297 191.1333 "/>
<path id="8" d="M287 210.1333 L287 219.1333 "/>
<path id="9" d="M270 226.1333 C270 226.1333 273.6865 230.5452 278 233.1333 C285.7078 237.758 295 241.1333 295 241.1333 "/>
</g>
</g>
</svg>
