<?xml version="1.0" encoding="utf-8"?>
<!DOCTYPE svg PUBLIC "-//W3C//DTD SVG 1.1//EN" "http://www.w3.org/Graphics/SVG/1.1/DTD/svg11.dtd">
<svg viewBox="0 0 800 800" preserveAspectRatio="xMinYMin meet" xmlns="http://www.w3.org/2000/svg" version="1.1">
<g fill="none" stroke="black" stroke-linecap="round" stroke-linejoin="round" stroke-width="1.7089">
<g transform="translate(87.52,205.1389) scale(1.7555) translate(-80,-146)">
<path id="0" d="M124 214 C124 214 124.133 210.5932 125 210 C130.6051 206.1649 138.7846 204.0445 143 201 C143.4971 200.641 142.6263 197.2055 143 197 C147.0509 194.772 152.8974 191.8203 163 190 C207.3529 182.0085 208.8604 180.7357 254 177 C280.4326 174.8125 284.7346 181.3236 308 178 C318.6761 176.4748 322.897 171.0644 331 166 C331.7638 165.5226 332 163 332 163 "/>
<path id="1" d="M335 166 C335 166 339.705 161.1564 344 160 C350.9872 158.1188 353.0666 158.1185 361 159 C370.186 160.0207 371.4825 160.3865 380 164 C387.1855 167.0484 388.0958 167.7771 394 173 C400.5556 178.7992 400.9109 179.5977 406 187 C411.6895 195.2756 412.0863 195.7308 416 205 C421.4243 217.8471 422.0877 219.6229 425 232 C425.6766 234.8755 423.8366 238.428 424 239 C424.0209 239.073 427 239 427 239 C427 238.9997 424 238 424 238 "/>
<path id="2" d="M346 216 C346 216 338.9966 213.9964 339 214 C339.0145 214.0156 349.0457 223.332 360 231 C373.851 240.6957 375.1866 241.7096 389 249 C391.7009 250.4255 393.91 248.6565 396 250 C399.3205 252.1346 400.2327 256.9238 403 258 C405.9042 259.1294 409.3934 258.4547 414 257 C417.8996 255.7686 419.3469 254.6531 422 252 C423.4286 250.5714 422.8495 247.6575 424 247 C427.2486 245.1437 433.9157 245.0421 436 244 C436.2316 243.8842 436.411 241.3653 436 241 C433.928 239.1582 427 236 427 236 "/>
<path id="3" d="M341 220 C341 220 341.0677 225.232 343 229 C350.5611 243.7442 360.5155 258.0916 361 259 C361.013 259.0245 359.0769 259.1154 359 259 C358.8269 258.7404 358.9191 256.0539 359 256 C359.0944 255.9371 362 256.875 362 257 C362 258.125 358.4607 262.5845 359 266 C360.9241 278.186 362.4289 281.0722 368 295 C376.3054 315.7636 379.8549 315.4578 387 336 C391.4633 348.8319 392.1494 363.283 392 364 C391.9894 364.051 386.8968 360.5529 382 360 C357.478 357.2314 338.9286 360.6671 330 357 C327.9513 356.1586 325.4044 345.7348 326 337 C326.739 326.1621 332.6451 317.7918 333 313 C333.0381 312.4861 329.2715 311.8583 328 310 C323.7479 303.7854 324.7409 301.1114 320 294 C316.0739 288.1109 310 283 310 283 "/>
<path id="4" d="M121 215 C121 215 108.5263 255.6083 99 296 C96.1586 308.0476 98.7374 308.9557 96 321 C91.3392 341.5074 89.2454 347.9031 84 362 C83.5975 363.0816 79.9898 363.9981 80 364 C80.0891 364.0165 95.6213 366.4197 111 367 C121.8556 367.4096 131.5003 367.8597 133 366 C135.5942 362.7832 131.0081 348.0117 136 336 C145.4339 313.2997 165 289 165 289 "/>
<path id="5" d="M165 288 C165 288 164.4486 284.9649 165 284 C165.7286 282.7249 168.5889 281.9592 169 281 C169.3114 280.2733 167.6886 277.7267 168 277 C168.4111 276.0408 171.9869 274.0196 172 274 C172.0031 273.9954 170 274 170 274 C170 273.4262 171.9999 266.0006 172 266 C172 265.9999 171.0134 268.0156 171 268 C170.8445 267.8186 165.9643 259.1427 166 259 C166.0035 258.9862 173 260 173 260 "/>
<path id="6" d="M307 278 C307 278 303.5819 280.7431 302 284 C295.4632 297.4581 295.337 305.1216 290 313 C288.8362 314.7181 284.1172 313.0312 281 315 C276.0444 318.1299 276.4708 321.227 271 325 C262.6151 330.7827 261.3906 331.8698 252 335 C244.5716 337.4761 243.4184 337 235 337 C189.4416 337 170.0775 333.8718 143 335 C141.748 335.0522 140.5924 339.6351 139 341 C138.4775 341.4479 136.043 340.9139 136 341 C135.8996 341.2008 137.0022 345.0007 137 345 C136.9947 344.9982 133 340 133 340 "/>
<path id="7" d="M181 337 C181 337 179.1942 341.911 180 345 C181.752 351.716 184.168 352.5661 187 360 C188.0229 362.685 188.0826 365.5046 188 366 C187.9953 366.0283 186 366 186 366 C186.0001 366 195.3296 368.369 204 368 C218.1177 367.3992 232.7828 364.3509 233 364 C233.0702 363.8866 221.6173 354.2145 217 347 C215.644 344.8812 216.1778 341.261 217 339 C217.4578 337.741 221 336 221 336 "/>
<path id="8" d="M276 325 C276 325 294.2585 348.8093 301 353 C302.4136 353.8787 310.4561 349.6959 313 348 C313.3318 347.7788 312.577 345.5076 313 345 C314.0105 343.7873 317.4116 343.373 318 342 C319.3077 338.9488 320.0449 335.3538 319 331 C317.4773 324.6554 312.364 318.365 312 317 C311.9954 316.9828 315.0098 316.0883 315 316 C314.7416 313.6748 312.7803 307.3409 310 299 C308.8084 295.4253 309.1338 294.5606 307 292 C302.2831 286.3397 295 281 295 281 "/>
<path id="9" d="M358 174 C358 174 353.6328 173.1541 351 171 C343.4055 164.7863 336.0033 156.002 336 156 C335.9986 155.9992 340.3592 162.4367 341 165 C341.1563 165.6252 339.0693 166.7532 339 168 C338.6673 173.9891 338.6519 181.9087 340 183 C342.2175 184.7951 354.9937 183.4071 360 185 C360.8711 185.2772 362 189.9601 362 190 C362 190.008 360.0705 189.3524 360 189 C359.5469 186.7344 361.2166 182.9545 360 180 C358.529 176.4275 353.0544 172.5984 353 172 C352.9845 171.8299 359 169 359 169 "/>
<path id="10" d="M398 173 C398 173 399.0845 163.3585 397 159 C395.0157 154.8509 389.8087 153.6514 387 150 C386.3269 149.125 386.9998 145.9995 387 146 C387.0007 146.0016 390.7778 154.4073 390 157 C389.099 160.0034 381.0347 165.5841 381 166 C380.9917 166.0995 389 169 389 169 "/>
<path id="11" d="M388 194 C388 194 392.4742 191.9201 393 191 C393.3078 190.4614 392.2728 187.2046 392 187 C391.8466 186.8849 388.9963 187.9853 389 188 C389.1209 188.4837 394 195 394 195 "/>
</g>
</g>
</svg>
