<?xml version="1.0" encoding="utf-8"?>
<!DOCTYPE svg PUBLIC "-//W3C//DTD SVG 1.1//EN" "http://www.w3.org/Graphics/SVG/1.1/DTD/svg11.dtd">
<svg viewBox="0 0 800 800" preserveAspectRatio="xMinYMin meet" xmlns="http://www.w3.org/2000/svg" version="1.1">
<g fill="none" stroke="black" stroke-linecap="round" stroke-linejoin="round" stroke-width="1.4353">
<g transform="translate(210.8399,87.52) scale(2.0902) translate(-210,-105.8167)">
<path id="0" d="M239 183.8167 C239 183.8167 234.8197 178.063 234 172.8167 C232.5388 163.465 231.6274 160.0129 234 151.8167 C236.2804 143.9388 238.6623 141.3982 245 134.8167 C250.6146 128.9861 252.3295 128.6519 260 124.8167 C265.7529 121.9402 266.7466 121.2245 273 120.8167 C288.531 119.8038 290.6767 119.1747 306 121.8167 C318.265 123.9313 323.0854 124.9971 331 130.8167 C336.1979 134.6386 336.0112 141.1658 340 146.8167 C340.5563 147.6048 342.8446 147.316 343 147.8167 C345.4029 155.5593 349.4619 163.808 349 175.8167 C348.5957 186.3284 345.4834 191.9707 341 199.8167 C339.655 202.1705 335.9607 201.1677 333 203.8167 C327.2133 208.9943 324.3728 214.6264 322 216.8167 C321.8889 216.9192 320.3584 215.6538 320 215.8167 C317.2805 217.0528 315.6811 219.757 311 221.8167 C303.6807 225.0372 303.0096 225.2593 295 226.8167 C285.378 228.6876 283.6894 230.3206 275 228.8167 C260.0103 226.2223 250.4611 224.0997 243 217.8167 C238.7175 214.2103 238.9274 207.0962 237 196.8167 C236.0417 191.7059 237 185.8167 237 185.8167 "/>
<path id="1" d="M265 163.8167 C265 163.8167 263.9941 169.7932 264 169.8167 C264.0015 169.8228 266 167.8167 266 167.8167 "/>
<path id="2" d="M266 168.8167 C266 168.8167 266.9899 170.8207 267 170.8167 C267.2821 170.7038 270.2966 168.5752 271 166.8167 C271.7537 164.9325 271.225 161.4917 271 160.8167 C270.975 160.7417 269.025 160.7417 269 160.8167 C268.775 161.4917 269 166.8167 269 166.8167 "/>
<path id="3" d="M309 163.8167 C309 163.8167 310.961 168.8167 311 168.8167 C311.0585 168.8167 314.0072 163.8239 314 163.8167 C313.9855 163.8022 308.25 165.3167 308 165.8167 C307.75 166.3167 309.3094 171.385 310 171.8167 C310.6456 172.2202 315.3434 171.567 316 170.8167 C316.8273 169.8712 317 163.8167 317 163.8167 "/>
<path id="4" d="M282 183.8167 C282 183.8167 284.7309 179.1095 286 178.8167 C288.1025 178.3315 292.7385 179.0398 295 180.8167 C297.5824 182.8457 298.8018 185.4233 300 189.8167 C301.5345 195.4433 301.9427 201.7392 301 202.8167 C299.7462 204.2495 293.0934 205.5633 286 205.8167 C279.9295 206.0335 273.2341 203.723 273 203.8167 C272.9885 203.8213 275.999 209.8173 276 209.8167 C276.0051 209.8132 274.7727 204.6395 276 201.8167 C278.9682 194.9898 286 186.8167 286 186.8167 "/>
<path id="5" d="M290 194.8167 C290 194.8167 290 197.8167 290 197.8167 C290.0322 197.8167 293 194.8167 293 194.8167 C293 194.8167 291 196.8167 291 196.8167 "/>
<path id="6" d="M235 148.8167 C235 148.8167 226.8116 142.9701 221 136.8167 C218.9647 134.6616 218.5332 133.6607 218 130.8167 C217.1874 126.483 217.1874 125.1504 218 120.8167 C218.5332 117.9727 219.2515 116.1281 221 114.8167 C223.6228 112.8496 227.6438 111.8167 230 111.8167 C230.7854 111.8167 231.5677 114.4188 233 114.8167 C238.8121 116.4311 241.1229 115.0226 248 116.8167 C252.0068 117.8619 254.3691 118.6965 256 120.8167 C257.6927 123.0171 258 129.8167 258 129.8167 "/>
<path id="7" d="M325 125.8167 C325 125.8167 324.9383 118.734 327 114.8167 C329.0887 110.8481 331.3385 108.0841 335 106.8167 C341.2376 104.6575 345.5935 104.5397 353 105.8167 C357.9998 106.6787 361.5371 109.5777 364 111.8167 C364.5443 112.3115 364.6981 114.4205 364 115.8167 C357.7174 128.3819 353.0516 136.3722 348 143.8167 C347.7353 144.2067 344.9985 143.8122 345 143.8167 C345.0065 143.8362 348.5889 145.8575 349 146.8167 C349.3114 147.5433 348 150.8167 348 150.8167 "/>
<path id="8" d="M242 214.8167 C242 214.8167 227.6871 219.088 223 224.8167 C217.579 231.4424 217.6433 236.2267 215 247.8167 C211.2582 264.2229 211.0568 264.9085 210 281.8167 C208.5833 304.484 209.5705 305.0553 210 327.8167 C210.0655 331.2897 210.2146 333.2458 211 334.8167 C211.2618 335.3403 213.9788 335.6258 214 335.8167 C214.1237 336.93 212 343.8167 212 343.8167 "/>
<path id="9" d="M342 200.8167 C342 200.8167 346.4925 198.4398 348 198.8167 C349.9871 199.3135 352.1225 200.9066 354 203.8167 C361.4143 215.3088 363.3829 216.6249 368 229.8167 C373.4464 245.3778 370.5628 247.433 375 263.8167 C376.9315 270.9483 379.9889 271.0279 381 277.8167 C383.2504 292.9265 382 310.8167 382 310.8167 "/>
<path id="10" d="M381 301.8167 C381 301.8167 388.625 312.3168 391 321.8167 C393.1111 330.261 392.8899 338.1823 391 341.8167 C389.8888 343.9537 383.9368 346.223 378 346.8167 C370.612 347.5555 361 344.8167 361 344.8167 "/>
<path id="11" d="M214 341.8167 C214 341.8167 217.0351 351.0219 221 356.8167 C222.6239 359.1901 225.0926 358.4324 227 360.8167 C230.4247 365.0975 229.7569 366.7718 233 371.8167 C234.0759 373.4902 234.9776 374.5245 236 374.8167 C236.9846 375.098 239.8411 374.3465 240 373.8167 C243.7786 361.2214 243.7031 342.7548 251 324.8167 C253.0861 319.6882 263.963 314.6803 264 314.8167 C264.3987 316.287 267 350.0605 267 383.8167 C267 392.6226 263.3635 401.2438 264 401.8167 C265.1091 402.8148 286.5585 402.8532 287 401.8167 C289.4335 396.1032 288.4923 373.9313 287 347.8167 C286.5515 339.9685 285.8663 339.2213 283 331.8167 C280.0441 324.1806 277.7141 318.5808 275 316.8167 C273.3639 315.7532 263 318.8167 263 318.8167 "/>
<path id="12" d="M388 346.8167 C388 346.8167 380.1052 352.9524 376 353.8167 C374.0597 354.2252 370.3633 352.7642 369 350.8167 C365.2208 345.4179 363.8869 342.3075 362 333.8167 C359.085 320.699 359.6278 307.3861 359 305.8167 C358.9957 305.8059 354.1978 306.6188 352 308.8167 C344.9669 315.8497 343.4877 317.7781 338 326.8167 C335.552 330.8487 335.4886 331.9304 335 336.8167 C334.0512 346.3045 333.8112 347.1362 335 356.8167 C337.2504 375.1416 337.793 375.8411 342 393.8167 C343.1908 398.9045 344.0559 401.4405 346 403.8167 C346.7457 404.7281 349.7436 405.403 351 404.8167 C354.8062 403.0404 357.4502 401.1272 361 396.8167 C363.6881 393.5526 364.3402 392.2464 365 387.8167 C367.6434 370.0682 368 349.8167 368 349.8167 "/>
</g>
</g>
</svg>
