<?xml version="1.0" encoding="utf-8"?>
<!DOCTYPE svg PUBLIC "-//W3C//DTD SVG 1.1//EN" "http://www.w3.org/Graphics/SVG/1.1/DTD/svg11.dtd">
<svg viewBox="0 0 800 800" preserveAspectRatio="xMinYMin meet" xmlns="http://www.w3.org/2000/svg" version="1.1">
<g fill="none" stroke="black" stroke-linecap="round" stroke-linejoin="round" stroke-width="1.6033">
<g transform="translate(298.9586,87.52) scale(1.8711) translate(-191,-72)">
<path id="0" d="M213,367C213,367 214.09320661424007,356.4660330712004 214,356C213.9965479031763,355.98273951588146 211.25,357.125 211,357C210.75,356.875 210.01642850145606,355.4292796266765 210,354C209.54175767694343,314.1329178940778 211.38990598160905,311.6971794482712 210,270C209.40211980791102,252.06359423733096 206.57735333842436,251.89795349115536 206,234C205.0896375038773,205.7787626201961 208.382532942863,204.65065885725988 207,177C206.4355769811841,165.7115396236823 203.2920282221746,165.36984835513647 202,154C200.84876173839024,143.86910329783404 200.25844036294185,142.86883794332954 202,133C206.07339578975785,109.91742385803877 211.136503473602,94.9722891160471 214,86C214.05393777467054,85.83099497269899 216.6473664274017,86.35263357259831 217,86C217.82281166939606,85.17718833060395 218.141703191223,81.47683156043167 219,81C220.25750462681282,80.30138631843732 223.12133797446356,81.95955400851215 226,81C235.45846094104831,77.84717968631722 236.90564343479812,73.6323204091388 246,72C253.84293857995465,70.59229307539276 257.0627759035468,71.15074006793989 265,74C274.78477040759116,77.5124816847763 278.5789944944062,78.82358208198334 285,86C293.2749577994625,95.2484822464581 294.4210532513977,99.89849787869399 299,112C300.6093534772721,116.25329133279062 299.9976042277833,119.25898414581255 299,123C298.54049744659676,124.7231345752621 297.082065498578,126.16717380056879 295,127C288.4563655758977,129.61745376964095 286.779490068401,130.43076901938528 279,131C267.0978460330751,131.87088931465305 265.44273411608304,128.8263862445043 254,130C247.32998196735016,130.68410441360513 245.63378402021777,131.57074016160658 240,135C235.21415796241703,137.91312124026788 232.29743060430835,139.56142161683988 231,144C224.42703807605696,166.48644868717358 223.13317044432568,174.0464262607043 221,200C220.37413972257852,207.6146333752948 224.84097122543736,208.88953249730483 225,217C225.3160491489873,233.11850659835287 221.07797503318574,234.5879555907062 222,251C223.51119004026182,277.89918271666056 228.6872247167512,278.9568291650745 230,306C231.13421023157466,329.3647307704378 227.39005134542492,330.59691927450433 227,354C226.90285922094517,359.82844674329027 229,366 229,366"/>
<path id="1" d="M214,363C214,363 207.95565173136475,370.3929774396832 204,378C201.7362705933378,382.3533257820427 201.15885300890005,386.25261690209953 201,388C200.98734799044158,388.1391721051425 203.01708282112904,388.9850525315121 203,389C202.76843286913962,389.20262123950283 195.43311743925406,391.95860320093243 193,395C191.15778251027908,397.30277186215113 190.99629003465694,403.99919784533125 191,404C193.661900133653,404.5755459748439 210.78870926996188,402.3701216154086 230,403C240.89474964412764,403.3572049063648 241.85852977927112,406 252,406C257.07073511036446,406 262.95145650462694,403.0582521944477 263,403C263.0079797526641,402.9904242968031 258.404695601186,401.8261042815418 257,400C254.5878964424079,396.86426537513023 255.52906760735914,393.54069465030284 253,390C251.37015643081298,387.7182190031382 248.71802902127442,388.14753627659303 247,386C245.51624766344483,384.14530957930605 246.55038509302392,382.2394451343679 245,380C242.5129239132741,376.4075567636182 241.46453019950218,374.64109325239576 238,373C233.65166107613504,370.94026050974815 227.56441346342817,372.0429423089521 226,371C225.53067596097153,370.68711730731433 226,365 226,365"/>
<path id="2" d="M237,138C237,138 237.59863428462623,143.72603116784202 239,145C240.9649584487306,146.78632586248238 243.6395755982702,147.63663129985585 248,148C260.7277252807248,149.06064377339373 262.2722747192752,149.06064377339373 275,148C279.3604244017298,147.63663129985585 280.2233385442755,147.1864882112089 284,145C289.1466268857422,142.02037390825453 289.1945016993722,141.16476519387743 294,137C296.6486998507397,134.7044601293589 298.56688611699155,133.29934164902525 299,132C299.2165569415042,131.35032917548736 297,128 297,128"/>
<path id="3" d="M258,136L263,142"/>
<path id="4" d="M266,138L270,143"/>
<path id="5" d="M254,137L260,143"/>
</g>
</g>
</svg>
