<?xml version="1.0" encoding="utf-8"?>
<!DOCTYPE svg PUBLIC "-//W3C//DTD SVG 1.1//EN" "http://www.w3.org/Graphics/SVG/1.1/DTD/svg11.dtd">
<svg viewBox="0 0 800 800" preserveAspectRatio="xMinYMin meet" xmlns="http://www.w3.org/2000/svg" version="1.1">
<g fill="none" stroke="black" stroke-linecap="round" stroke-linejoin="round" stroke-width="2.6258">
<g transform="translate(87.52,194.9171) scale(1.1425) translate(-46,-85)">
<path id="0" d="M320 85 C320 85 272.0777 82.3493 229 86 C215.8699 87.1127 212.746 88.6501 202 95 C193.0073 100.3139 191.203 102.934 185 112 C179.1162 120.5994 176.6224 123.4155 176 133 C174.3928 157.7513 182.068 179.2963 180 189 C179.6766 190.5173 166.2559 192.4678 163 194 C162.7625 194.1118 163.1875 196.8125 163 197 C162.8125 197.1875 160.043 196.9139 160 197 C159.8996 197.2008 161.4514 200.0972 161 201 C159.1944 204.6111 152.9975 210.9938 153 211 C153.0004 211.0009 158.271 206.4598 163 206 C191.0483 203.2731 220.2081 204.4713 225 204 C225.0467 203.9954 224.9868 201.0766 224 200 C220.5544 196.2412 218.6021 192.9792 214 192 C199.2816 188.8684 177 190 177 190 "/>
<path id="1" d="M178 207 C178 207 180.9197 207.652 181 208 C181.5694 210.4673 181.5694 217.5327 181 220 C180.9197 220.348 178.2395 220.4413 178 221 C176.5034 224.4922 174.4314 231.5836 175 234 C175.2612 235.1099 178.7543 237.5007 182 238 C190.0979 239.2458 194.2819 239.1684 201 238 C202.6603 237.7113 204.4172 235.7485 205 234 C205.8743 231.3772 205.9715 226.9715 205 226 C202.5712 223.5712 193.0892 222.5369 191 220 C189.689 218.408 191 209 191 209 "/>
<path id="2" d="M320 86 C320 86 323.3887 86.523 325 88 C328.5959 91.2963 329.6886 92.3772 332 97 C334.3114 101.6228 334.0711 105.9565 335 108 C335.0683 108.1503 336.9794 107.9245 337 108 C337.4254 109.5598 337.5746 117.4402 338 119 C338.0206 119.0755 339.9997 118.9917 340 119 C340.2497 126.4917 341.9581 149.3836 340 179 C337.992 209.3711 333.0418 209.658 332 240 C329.0757 325.171 332 412 332 412 "/>
<path id="3" d="M204 94 C204 94 208.4612 94.2155 209 94 C209.0862 93.9655 208.8144 92.0928 209 92 C212.991 90.0045 218.5434 85.3645 227 85 C272.2424 83.0499 278.6713 84.4498 325 87 C330.2983 87.2916 331.9996 87.9997 336 91 C342.7149 96.0362 345.5402 97.8881 349 105 C353.3294 113.8993 353.821 116.725 354 128 C356.2643 270.6508 353.75 383.5017 354 420 C354 420.0017 356 420 356 420 "/>
<path id="4" d="M333 409 C333 409 315.6275 423.985 304 436 C302.951 437.084 302.7701 439.7956 303 440 C304.2196 441.0841 308.3659 443.8617 313 444 C339.0752 444.7784 363.0495 444.3168 370 442 C370.683 441.7723 371.7135 427.5132 370 425 C368.4652 422.7489 355 420 355 420 "/>
<path id="5" d="M167 242 L155 262 "/>
<path id="6" d="M182 250 L182 265 "/>
<path id="7" d="M200 252 L206 268 "/>
<path id="8" d="M218 239 C218 239 220.032 244.032 222 246 C222.8945 246.8945 225.115 246.0412 226 247 C229.6561 250.9608 229.5218 253.962 234 259 C237.0722 262.4563 242 265 242 265 "/>
<path id="9" d="M366 421 C366 421 380.1369 419.7451 393 421 C399.8557 421.6688 400.3088 425 407 425 C495.898 425 593 421 593 421 "/>
<path id="10" d="M303 437 C303 437 184.7153 439.2124 71 437 C58.6985 436.7607 46 432 46 432 "/>
</g>
</g>
</svg>
