<?xml version="1.0" encoding="utf-8"?>
<!DOCTYPE svg PUBLIC "-//W3C//DTD SVG 1.1//EN" "http://www.w3.org/Graphics/SVG/1.1/DTD/svg11.dtd">
<svg viewBox="0 0 800 800" preserveAspectRatio="xMinYMin meet" xmlns="http://www.w3.org/2000/svg" version="1.1">
<g fill="none" stroke="black" stroke-linecap="round" stroke-linejoin="round" stroke-width="1.6465">
<g transform="translate(269.7241,87.52) scale(1.822) translate(-303,-63)">
<path id="0" d="M336 86 C336 86 322.8203 101.6057 312 118 C306.5853 126.204 302.8461 135.8803 303 136 C304.1797 136.9176 321.4437 136.0739 339 139 C360.0035 142.5006 380.1127 149.3393 381 149 C381.0185 148.9929 376.1304 137.6271 373 126 C369.19 111.8484 367 97 367 97 "/>
<path id="1" d="M336 90 C336 90 335.2263 86.5475 336 85 C337.5475 81.905 338.6104 80.7117 342 78 C348.1948 73.0441 348.7616 72.5024 356 69 C363.849 65.2021 364.7354 64.4585 373 63 C380.78 61.6271 383.2056 61.0891 390 63 C397.0067 64.9706 398.5574 66.6312 405 72 C416.024 81.1867 417.1351 81.9953 426 93 C431.0137 99.2239 432.161 100.5024 434 108 C438.2529 125.3387 438.3322 127.0799 439 146 C441.3095 211.4363 437.9689 212.5991 440 278 C440.448 292.4265 443.6042 292.6179 444 307 C445.0875 346.5111 443 387 443 387 "/>
<path id="2" d="M365 96 C365 96 372.1639 87.1399 378 85 C383.8247 82.8643 389.0726 83.1762 395 85 C398.9963 86.2296 401.7696 88.5392 404 93 C413.3677 111.7353 416.3277 115.196 421 137 C426.3798 162.1056 424.3465 164.0412 425 191 C426.341 246.316 427.4996 247.3669 425 302 C424.047 322.8296 419.4897 323.1446 418 344 C416.0371 371.4801 414.6801 389.1668 418 400 C418.7009 402.2871 428.1437 404.3599 437 406 C440.4414 406.6373 444.5437 405.7605 445 405 C446.1486 403.0856 446.6729 397.5046 446 391 C445.2536 383.7852 442 376 442 376 "/>
<path id="3" d="M313 138 C313 138 312.599 153.1612 313 168 C313.0939 171.4758 312.9072 172.8143 314 175 C314.7286 176.4571 316.2022 177.6148 318 178 C321.8722 178.8298 323.725 178.95 328 178 C331.8 177.1556 332.3299 176.4046 336 174 C346.653 167.0205 347.3468 167.0444 357 159 C361.9947 154.8377 366 149 366 149 "/>
</g>
</g>
</svg>
