<?xml version="1.0" encoding="utf-8"?>
<!DOCTYPE svg PUBLIC "-//W3C//DTD SVG 1.1//EN" "http://www.w3.org/Graphics/SVG/1.1/DTD/svg11.dtd">
<svg viewBox="0 0 800 800" preserveAspectRatio="xMinYMin meet" xmlns="http://www.w3.org/2000/svg" version="1.1">
<g fill="none" stroke="black" stroke-linecap="round" stroke-linejoin="round" stroke-width="1.5649">
<g transform="translate(121.0685,87.52) scale(1.9171) translate(-97,-114)">
<path id="0" d="M105 158 C105 158 111.5549 151.3285 119 147 C132.5573 139.1179 133.9427 135.8835 148 133 C169.7928 128.5297 174.4869 128.691 197 131 C210.8533 132.4209 212.7265 134.4797 226 141 C240.4203 148.0836 254 159 254 159 "/>
<path id="1" d="M100 158 C100 158 110.1165 167.0234 121 174 C129.2765 179.3054 129.9599 180.3884 139 183 C151.3558 186.5694 152.5725 186.0054 166 187 C179.2818 187.9838 180.0787 188.6946 193 187 C209.7733 184.8002 210.214 183.5193 227 179 C236.1073 176.548 238.0718 177.2064 245 173 C250.339 169.7584 255 162 255 162 "/>
<path id="2" d="M99 158 C99 158 134.5632 155.8855 169 158 C190.8575 159.3421 191.0029 162.5559 213 165 C231.2854 167.0317 250 167 250 167 "/>
<path id="3" d="M250 165 L251 164 "/>
<path id="4" d="M99 156 C99 156 108.7689 150.7193 118 150 C145.5025 147.8569 147.5943 147.4371 176 150 C213.2617 153.362 251 162 251 162 "/>
<path id="5" d="M122 142 C122 142 125.1168 140.1227 128 140 C147.4263 139.1733 148.8396 138.6192 169 140 C184.9033 141.0893 185.5503 141.1376 201 145 C221.0963 150.0241 241 158 241 158 "/>
<path id="6" d="M236 149 C236 149 248.2814 147.981 260 149 C270.9119 149.9489 282 153 282 153 "/>
<path id="7" d="M229 182 C229 182 240.5014 183.5831 250 182 C257.237 180.7938 258.6269 180.0556 265 176 C274.3288 170.0635 279.9279 164.8402 283 161 C283.3553 160.5559 280.947 156.0095 281 156 C282.436 155.7436 311 156 311 156 "/>
<path id="8" d="M268 170 C268 170 274.5024 163.1574 280 162 C290.4454 159.801 295.8614 163.3082 306 162 C308.151 161.7225 311 158 311 158 "/>
<path id="9" d="M268 150 C268 150 286.8327 148.8625 302 150 C304.777 150.2083 308 153 308 153 "/>
<path id="10" d="M301 153 L301 153 "/>
<path id="11" d="M309 160 L303 160 "/>
<path id="12" d="M306 157 C306 157 309.0107 162.4881 310 168 C312.4094 181.4239 312.9459 182.0875 313 196 C313.4425 309.7332 311 425 311 425 "/>
<path id="13" d="M304 150 L303 150 "/>
<path id="14" d="M332 116 C332 116 334.7865 129.5521 335 143 C337.2731 286.207 337 431 337 431 "/>
<path id="15" d="M304 151 C304 151 303.6808 145.0883 305 140 C307.0569 132.0663 306.8244 128.7203 311 124 C315.9067 118.4532 320.1305 117.0267 328 114 C331.3976 112.6932 337 114 337 114 "/>
<path id="16" d="M286 425 C286 425 301.9181 429.635 318 432 C352.6556 437.0964 388 440 388 440 "/>
<path id="17" d="M326 120 C326 120 321.2452 119.868 320 121 C317.6244 123.1597 316.8283 125.3462 315 130 C311.4387 139.0651 310.7944 139.7291 309 149 C307.932 154.518 309 161 309 161 "/>
<path id="18" d="M310 179 C310 179 310.2582 174.3252 312 171 C315.4102 164.4896 315.732 163.0729 321 158 C328.4713 150.8054 339 145 339 145 "/>
<path id="19" d="M137 180 L138 180 "/>
<path id="20" d="M132 181 C132 181 142.2089 176.2771 152 175 C164.2491 173.4023 166.6199 173.2031 178 175 C183.667 175.8948 190 181 190 181 "/>
<path id="21" d="M188 178 C188 178 190.9762 178.8056 192 180 C193.2663 181.4773 194 185 194 185 "/>
<path id="22" d="M100 155 C100 155 113.7897 153.5719 127 155 C168.7333 159.5117 169.2833 162.2774 211 167 C221.7519 168.2172 224.6734 169.2041 233 167 C238.4434 165.5591 245 158 245 158 "/>
<path id="23" d="M231 179 C231 179 249.0172 174.2386 266 168 C273.2086 165.3519 280 161 280 161 "/>
<path id="24" d="M242 148 L280 158 "/>
<path id="25" d="M119 177 C119 177 128.6325 174.3513 135 171 C136.6968 170.1069 136.8076 167.1834 138 167 C149.9747 165.1577 157.712 162.8442 174 165 C189.249 167.0183 191.2455 170.0184 206 176 C208.6797 177.0863 211 180 211 180 "/>
<path id="26" d="M135 187 C135 187 130.8783 187.321 128 189 C119.5413 193.9342 111 201 111 201 "/>
<path id="27" d="M140 193 C140 193 133.2086 194.0831 130 197 C123.7539 202.6782 124.7895 206.2105 118 213 C108.7856 222.2144 97 230 97 230 "/>
<path id="28" d="M149 194 C149 194 141.9028 195.5536 140 198 C136.9056 201.9785 135 212 135 212 "/>
<path id="29" d="M160 194 C160 194 152.8336 195.2836 151 198 C142.237 210.9823 133 234 133 234 "/>
<path id="30" d="M161 197 L155 209 "/>
<path id="31" d="M170 194 C170 194 171.9461 210.1773 171 225 C170.5029 232.7886 167 241 167 241 "/>
<path id="32" d="M174 190 C174 190 178.8059 195.985 181 201 C181.7801 202.7831 181 206 181 206 "/>
<path id="33" d="M185 191 C185 191 191.7981 196.9968 196 204 C204.9183 218.8639 212 236 212 236 "/>
</g>
</g>
</svg>
