<?xml version="1.0" encoding="utf-8"?>
<!DOCTYPE svg PUBLIC "-//W3C//DTD SVG 1.1//EN" "http://www.w3.org/Graphics/SVG/1.1/DTD/svg11.dtd">
<svg viewBox="0 0 800 800" preserveAspectRatio="xMinYMin meet" xmlns="http://www.w3.org/2000/svg" version="1.1">
<g fill="none" stroke="black" stroke-linecap="round" stroke-linejoin="round" stroke-width="1.1905">
<g transform="translate(164.38,87.52) scale(2.52) translate(-244.3611,-81.0556)">
<path id="0" d="M245.3611 203.0556 C245.3611 203.0556 243.1393 313.6613 244.3611 329.0556 C244.3696 329.1623 255.0922 329.2572 255.3611 329.0556 C255.3978 329.0281 252.6853 325.8651 252.3611 323.0556 C251.3395 314.2013 251.6011 312.936 252.3611 303.0556 C254.0858 280.6345 253.8737 279.7552 257.3611 258.0556 C258.2476 252.5397 260.6512 252.4509 261.3611 247.0556 C263.0322 234.3557 262.0398 233.5506 262.3611 220.0556 C262.5395 212.5649 262.9952 210.4451 262.3611 205.0556 C262.2666 204.2524 261.0831 203.1071 260.3611 203.0556 C256.3421 202.7685 248.3611 204.0556 248.3611 204.0556 "/>
<path id="1" d="M253.3611 204.0556 C253.3611 204.0556 255.7989 186.4794 260.3611 170.0556 C263.1816 159.9017 263.9244 159.8163 268.3611 150.0556 C273.8899 137.8922 272.9848 136.6472 280.3611 126.0556 C291.9426 109.4258 292.9588 106.2421 307.3611 94.0556 C316.7236 86.1334 320.2398 85.3384 332.3611 82.0556 C342.346 79.3513 344.8406 80.1273 355.3611 81.0556 C360.5741 81.5155 361.7622 85.0556 366.3611 85.0556 C373.0505 85.0556 374.479 81.9829 382.3611 81.0556 C390.9752 80.0421 392.1094 79.641 400.3611 81.0556 C408.6259 82.4724 412.3463 83.4736 417.3611 87.0556 C419.818 88.8105 421.9808 94.119 421.3611 96.0556 C419.7685 101.0323 415.832 105.2765 409.3611 112.0556 C405.9221 115.6583 401.6587 118.2178 400.3611 118.0556 C399.1028 117.8983 397.3194 113.0639 393.3611 110.0556 C385.3839 103.9929 381.7183 105.4128 375.3611 99.0556 C369.8807 93.5752 366.3611 83.0556 366.3611 83.0556 "/>
<path id="2" d="M420.3611 96.0556 C420.3611 96.0556 424.2401 98.4058 425.3611 101.0556 C429.0697 109.8213 431.9392 120.5783 431.3611 122.0556 C431.1172 122.6788 421.6868 125.3411 416.3611 124.0556 C410.4282 122.6235 402.3611 115.0556 402.3611 115.0556 "/>
<path id="3" d="M371.3611 88.0556 C371.3611 88.0556 374.4766 89.9274 377.3611 90.0556 C395.8368 90.8767 402.188 90.7469 416.3611 90.0556 C417.1234 90.0184 418.3611 88.0556 418.3611 88.0556 "/>
</g>
</g>
</svg>
