<?xml version="1.0" encoding="utf-8"?>
<!DOCTYPE svg PUBLIC "-//W3C//DTD SVG 1.1//EN" "http://www.w3.org/Graphics/SVG/1.1/DTD/svg11.dtd">
<svg viewBox="0 0 800 800" preserveAspectRatio="xMinYMin meet" xmlns="http://www.w3.org/2000/svg" version="1.1">
<g fill="none" stroke="black" stroke-linecap="round" stroke-linejoin="round" stroke-width="2.0977">
<g transform="translate(100.391,87.52) scale(1.4301) translate(-3,-35.1333)">
<path id="0" d="M138 358.1333 C138 358.1333 139.5205 351.119 139 345.1333 C138.5864 340.377 136.577 340.1337 136 335.1333 C132.1693 301.9339 130.7888 301.053 130 267.1333 C127.8004 172.5518 127.8346 170.2471 130 77.1333 C130.2863 64.8245 130.1664 58.8003 135 52.1333 C140.471 44.5871 147.5322 40.1795 159 37.1333 C175.6094 32.7215 179.7572 34.0178 199 35.1333 C213.1594 35.9542 219.7698 35.9142 228 41.1333 C234.1926 45.0603 240 61.1333 240 61.1333 "/>
<path id="1" d="M146 359.1333 C146 359.1333 152.8644 355.8574 153 354.1333 C155.0522 328.0414 154.8854 311.2352 153 270.1333 C152.4337 257.7884 149.3554 257.6711 148 245.1333 C143.3958 202.5446 141.9202 201.9231 141 159.1333 C139.9325 109.4967 140.0846 75.2649 144 59.1333 C144.3242 57.7977 155.0996 56.4361 166 56.1333 C190.6664 55.4482 193.1439 54.3629 216 57.1333 C223.6832 58.0646 229.3644 60.5267 232 64.1333 C234.9881 68.2224 234.6329 82.7663 235 83.1333 C235.0334 83.1667 243.5553 78.2677 244 76.1333 C244.81 72.2455 241.0911 62.2247 240 59.1333 C239.9582 59.0148 238 59.1333 238 59.1333 "/>
<path id="2" d="M237 85.1333 C237 85.1333 232.4807 84.2632 229 85.1333 C223.2351 86.5746 221.6675 86.6327 217 90.1333 C208.7022 96.3567 207.5761 97.6392 201 106.1333 C196.0904 112.4749 194.5305 114.0546 193 121.1333 C190.9873 130.4421 192.8405 142.5271 193 143.1333 C193.0122 143.1797 195.7137 140.4315 198 140.1333 C205.6333 139.1377 207.1137 139.3771 216 140.1333 C253.8559 143.3551 255.0481 145.6699 292 148.1333 C298.6951 148.5797 305.4273 147.2347 306 146.1333 C307.3874 143.4653 308.3366 131.2895 305 123.1333 C301.0155 113.3934 297.474 109.8447 288 102.1333 C277.6083 93.675 274.7151 92.3717 262 88.1333 C252.6019 85.0006 240 86.1333 240 86.1333 "/>
<path id="3" d="M146 276.1333 C146 276.1333 138.6882 275.3304 138 276.1333 C136.2508 278.174 134.8076 283.2688 134 290.1333 C132.8838 299.621 133.0785 305.0648 134 310.1333 C134.1257 310.8245 136.1 311.6583 138 312.1333 C139.6889 312.5555 141.1136 312.7982 142 312.1333 C145.2687 309.6818 148.8352 307.3268 150 303.1333 C152.8602 292.8366 152 276.1333 152 276.1333 "/>
<path id="4" d="M64 472.1333 C64 472.1333 75.8622 453.6114 91 442.1333 C119.4732 420.5437 125.6642 425.0735 155 403.1333 C184.0924 381.3752 181.6607 376.5865 210 353.1333 C224.7628 340.9159 225.578 341.347 242 331.1333 C266.4576 315.9219 268.2249 318.0626 292 302.1333 C317.84 284.8206 317.7361 283.7586 342 264.1333 C351.542 256.4155 350.3712 254.4596 360 247.1333 C372.9783 237.2585 388 229.1333 388 229.1333 "/>
<path id="5" d="M88 470.1333 C88 470.1333 86.1979 465.2271 87 464.1333 C93.224 455.6461 97.109 448.1433 110 440.1333 C145.6524 417.9804 153.3166 421.9254 190 400.1333 C201.6246 393.2276 199.7223 388.735 211 380.1333 C228.7523 366.5935 231.8453 368.6592 249 355.1333 C256.9114 348.8955 255.1589 345.6676 263 339.1333 C278.491 326.2242 281.048 328.06 297 315.1333 C309.7256 304.8212 308.3625 301.8987 321 292.1333 C329.6221 285.4708 332.0696 287.3846 341 281.1333 C346.4807 277.2968 345.5214 274.6679 351 271.1333 C360.1418 265.2354 362.9665 267.1557 372 261.1333 C378.5302 256.7798 384 249.1333 384 249.1333 "/>
<path id="6" d="M3 395.1333 C3 395.1333 39.2144 367.3126 75 344.1333 C81.7754 339.7447 83.9184 342.0404 91 338.1333 C97.7908 334.3867 97.1745 332.3167 104 328.1333 C112.3909 322.9905 122 319.1333 122 319.1333 "/>
<path id="7" d="M158 291.1333 C158 291.1333 181.9521 258.6898 209 238.1333 C228.6992 223.1619 234.7235 227.3634 258 215.1333 C263.4122 212.2896 262.6452 209.8831 268 207.1333 C280.3918 200.77 283.283 203.4564 295 196.1333 C314.0671 184.2164 332 167.1333 332 167.1333 "/>
<path id="8" d="M392 232.1333 L422 211.1333 "/>
<path id="9" d="M228 151.1333 C228 151.1333 222.9442 154.1586 220 158.1333 C213.4198 167.0166 208 178.1333 208 178.1333 "/>
<path id="10" d="M241 161.1333 C241 161.1333 231.4509 175.778 226 188.1333 C224.865 190.706 226 195.1333 226 195.1333 "/>
<path id="11" d="M251 166.1333 L251 192.1333 "/>
<path id="12" d="M269 168.1333 C269 168.1333 281.1481 174.337 288 179.1333 C288.7955 179.6902 289 182.1333 289 182.1333 "/>
<path id="13" d="M295 162.1333 L330 170.1333 "/>
</g>
</g>
</svg>
