<?xml version="1.0" encoding="utf-8"?>
<!DOCTYPE svg PUBLIC "-//W3C//DTD SVG 1.1//EN" "http://www.w3.org/Graphics/SVG/1.1/DTD/svg11.dtd">
<svg viewBox="0 0 800 800" preserveAspectRatio="xMinYMin meet" xmlns="http://www.w3.org/2000/svg" version="1.1">
<g fill="none" stroke="black" stroke-linecap="round" stroke-linejoin="round" stroke-width="1.6033">
<g transform="translate(278.376,87.52) scale(1.8711) translate(-137,-113.1333)">
<path id="0" d="M243 342.1333 L259 342.1333 "/>
<path id="1" d="M243 447.1333 L260 447.1333 "/>
<path id="2" d="M242 446.1333 L242 341.1333 "/>
<path id="3" d="M260 447.1333 L260 341.1333 "/>
<path id="4" d="M260 341.1333 L266 339.1333 "/>
<path id="5" d="M242 341.1333 L248 336.1333 "/>
<path id="6" d="M249 336.1333 L266 336.1333 "/>
<path id="7" d="M262 447.1333 L267 442.1333 "/>
<path id="8" d="M266 443.1333 L267 338.1333 "/>
<path id="9" d="M161 114.1333 C161 114.1333 165.7985 114.2452 169 116.1333 C184.1313 125.0569 200 137.1333 200 137.1333 "/>
<path id="10" d="M163 114.1333 C163 114.1333 154.937 117.2593 154 119.1333 C152.9644 121.2046 153.4205 125.8462 155 130.1333 C156.4186 133.9838 157.5547 135.5494 161 138.1333 C166.5268 142.2785 168.3695 143.9432 175 145.1333 C185.8651 147.0835 196.0684 146.5895 200 145.1333 C200.897 144.8011 202.3731 137.5585 202 135.1333 C201.8608 134.2287 198 132.1333 198 132.1333 "/>
<path id="11" d="M252 338.1333 C252 338.1333 253.7808 291.3217 251 246.1333 C249.8392 227.2696 249.8587 225.7093 244 208.1333 C236.7856 186.4902 235.8806 184.7621 224 165.1333 C213.4924 147.773 198 132.1333 198 132.1333 "/>
<path id="12" d="M258 337.1333 C258 337.1333 261.5614 284.8565 258 237.1333 C256.7625 220.5513 254.9112 218.2848 248 203.1333 C242.5698 191.2286 232 180.1333 232 180.1333 "/>
<path id="13" d="M198 136.1333 C198 136.1333 192.8837 127.6268 187 124.1333 C178.8338 119.2847 166 117.1333 166 117.1333 "/>
<path id="14" d="M164 114.1333 C164 114.1333 175.1047 114.8987 184 118.1333 C190.5961 120.5319 193.0359 122.1692 197 126.1333 C198.6989 127.8322 199 133.1333 199 133.1333 "/>
<path id="15" d="M199 134.1333 C199 134.1333 193.3227 124.7537 187 120.1333 C181.9791 116.4642 173 115.1333 173 115.1333 "/>
<path id="16" d="M239 187.1333 C239 187.1333 224.2916 161.6656 208 138.1333 C202.0596 129.5528 200.9451 127.2086 194 122.1333 C190.1636 119.3298 182 119.1333 182 119.1333 "/>
<path id="17" d="M244 198.1333 C244 198.1333 231.3773 182.8738 222 167.1333 C217.8383 160.1477 220.228 157.8982 216 151.1333 C208.32 138.8453 197 127.1333 197 127.1333 "/>
<path id="18" d="M238 189.1333 C238 189.1333 233.1763 179.0727 227 170.1333 C214.3097 151.7658 200 134.1333 200 134.1333 "/>
<path id="19" d="M138 113.1333 C138 113.1333 141.0332 112.6499 142 113.1333 C142.846 113.5563 144 116.1333 144 116.1333 "/>
<path id="20" d="M145 124.1333 L137 126.1333 "/>
<path id="21" d="M149 134.1333 L144 142.1333 "/>
<path id="22" d="M159 149.1333 L163 162.1333 "/>
<path id="23" d="M180 156.1333 L182 162.1333 "/>
<path id="24" d="M194 154.1333 L198 162.1333 "/>
</g>
</g>
</svg>
