<?xml version="1.0" encoding="utf-8"?>
<!DOCTYPE svg PUBLIC "-//W3C//DTD SVG 1.1//EN" "http://www.w3.org/Graphics/SVG/1.1/DTD/svg11.dtd">
<svg viewBox="0 0 800 800" preserveAspectRatio="xMinYMin meet" xmlns="http://www.w3.org/2000/svg" version="1.1">
<g fill="none" stroke="black" stroke-linecap="round" stroke-linejoin="round" stroke-width="1.7809">
<g transform="translate(300.6128,87.52) scale(1.6845) translate(-224,-108.9833)">
<path id="0" d="M307 158.9833 C307 158.9833 306.1562 187.5744 307 215.9833 C307.6527 237.9575 308.1553 245.8404 310 259.9833 C310.0994 260.7452 312.9899 261.3645 313 261.9833 C313.8963 316.9576 310.9096 364.1295 313 443.9833 C313.1049 447.9896 317.3847 448.7995 318 452.9833 C319.58 463.7274 318 477.9833 318 477.9833 "/>
<path id="1" d="M339 159.9833 L342 479.9833 "/>
<path id="2" d="M339 158.9833 C339 158.9833 338.8564 139.5469 337 120.9833 C336.4023 115.0061 335.3429 109.5802 334 108.9833 C330.1323 107.2644 317.2022 106.5826 310 108.9833 C306.1989 110.2504 304.2153 114.3566 301 119.9833 C298.6668 124.0665 298.4727 125.0986 298 129.9833 C297.0353 139.9518 296.7757 140.9438 298 150.9833 C299.2016 160.8363 303 170.9833 303 170.9833 "/>
<path id="3" d="M296 132.9833 C296 132.9833 288.9285 136.169 288 135.9833 C287.6236 135.9081 287.1277 131.7009 286 130.9833 C283.7644 129.5607 280.0396 131.0097 277 128.9833 C271.117 125.0613 270.585 121.017 265 116.9833 C263.1834 115.6713 261.9756 116.1186 259 115.9833 C251.1247 115.6254 249.3472 114.46 243 115.9833 C238.8584 116.9773 236.3534 119.1593 234 121.9833 C232.8088 123.4128 233.9345 126.7374 233 127.9833 C232.204 129.0447 229.0994 128.6396 228 129.9833 C225.7848 132.6908 224.3136 134.7504 224 138.9833 C222.4822 159.4735 221.8326 167.8827 224 183.9833 C224.3825 186.825 229.1302 187.2437 231 190.9833 C234.9177 198.8188 233.4358 201.4293 237 209.9833 C238.1052 212.6357 240.7919 215.0401 241 214.9833 C241.7248 214.7857 245.9955 210.9923 248 206.9833 C249.9173 203.1486 248.5989 200.3459 250 196.9833 C250.4203 195.9746 252.9789 195.6057 253 194.9833 C253.5718 178.1147 253.2541 165.9914 252 137.9833 C251.7782 133.0295 251.7955 132.2477 250 127.9833 C248.0912 123.4498 244 118.9833 244 118.9833 "/>
<path id="4" d="M246 214.9833 C246 214.9833 259.4755 216.8956 265 214.9833 C267.9412 213.9652 268.4695 208.5723 272 205.9833 C274.4575 204.1812 277.7465 205.9954 280 203.9833 C289.3349 195.6486 292.1334 187.6845 300 180.9833 C301.3908 179.7986 307 180.9833 307 180.9833 "/>
<path id="5" d="M252 141.9833 C252 141.9833 250.8038 144.7422 250 144.9833 C247.7825 145.6486 244.261 144.1611 242 144.9833 C240.741 145.4411 239.4876 147.0329 239 148.9833 C237.3062 155.7587 236.4626 159.3411 237 164.9833 C237.1829 166.9037 240.0604 167.5404 241 169.9833 C242.2049 173.116 241.3075 177.5217 242 177.9833 C243.2027 178.7851 248.417 177.124 253 177.9833 C255.3175 178.4179 258 180.9833 258 180.9833 "/>
</g>
</g>
</svg>
