<?xml version="1.0" encoding="utf-8"?>
<!DOCTYPE svg PUBLIC "-//W3C//DTD SVG 1.1//EN" "http://www.w3.org/Graphics/SVG/1.1/DTD/svg11.dtd">
<svg viewBox="0 0 800 800" preserveAspectRatio="xMinYMin meet" xmlns="http://www.w3.org/2000/svg" version="1.1">
<g fill="none" stroke="black" stroke-linecap="round" stroke-linejoin="round" stroke-width="1.8577">
<g transform="translate(87.52,139.1963) scale(1.6149) translate(-104.8,-131.8)">
<path id="0" d="M104.8 386.8 C104.8 386.8 104.536 383.9165 104.8 383.8 C128.8435 373.1926 160.6566 367.9235 206.8 341.8 C252.2174 316.0875 248.1938 302.0384 293.8 276.8 C347.9902 246.8112 354.0742 251.0172 412.8 227.8 C417.3796 225.9894 419.1144 227.8271 422.8 225.8 C427.7639 223.0698 432.8 216.8 432.8 216.8 "/>
<path id="1" d="M152.8 454.8 C152.8 454.8 181.5166 430.5604 207.8 413.8 C212.9543 410.5132 215.4694 413.3624 221.8 410.8 C235.8085 405.1299 235.43 402.6596 249.8 396.8 C286.6396 381.778 287.7015 383.714 324.8 368.8 C387.1229 343.7456 389.5991 344.8425 448.8 316.8 C463.726 309.7298 465.6095 307.9905 476.8 296.8 C485.6592 287.9408 491.8 273.8 491.8 273.8 "/>
<path id="2" d="M180.8 356.8 C180.8 356.8 167.1727 315.9765 156.8 274.8 C150.7602 250.8238 153.3694 249.9341 147.8 225.8 C142.9184 204.6463 138.5111 204.2563 135.8 183.8 C133.2583 164.6215 136.8 142.8 136.8 142.8 "/>
<path id="3" d="M174.8 358.8 C174.8 358.8 162.5904 339.1712 155.8 318.8 C146.9578 292.2735 147.0228 290.6702 142.8 262.8 C139.6456 241.9811 144.302 238.5836 140.8 219.8 C139.3726 212.1441 132.7098 211.1792 131.8 203.8 C128.7691 179.2162 129.8852 158.2889 131.8 146.8 C131.9568 145.8594 141.8 143.8 141.8 143.8 "/>
<path id="4" d="M138.8 141.8 C138.8 141.8 162.1865 135.4027 179.8 131.8 C180.9439 131.566 182.7614 132.5037 182.8 132.8 C183.411 137.4845 184.435 152.838 182.8 154.8 C181.4127 156.4647 169.2972 155.3234 162.8 156.8 C161.9481 156.9936 161.4964 159.7226 160.8 159.8 C153.3387 160.629 135.8 159.8 135.8 159.8 "/>
<path id="5" d="M135.8 159.8 C135.8 159.8 140.0104 172.4269 144.8 176.8 C148.2478 179.948 151.9333 179.7436 158.8 180.8 C164.4379 181.6674 168.1297 182.453 170.8 180.8 C174.5935 178.4516 177.8078 173.7767 179.8 167.8 C181.5432 162.5704 179.8 153.8 179.8 153.8 "/>
<path id="6" d="M182.8 164.8 L191.8 168.8 "/>
<path id="7" d="M180.8 184.8 L183.8 188.8 "/>
<path id="8" d="M164.8 192.8 L164.8 200.8 "/>
<path id="9" d="M148.8 189.8 L143.8 195.8 "/>
</g>
</g>
</svg>
