<?xml version="1.0" encoding="utf-8"?>
<!DOCTYPE svg PUBLIC "-//W3C//DTD SVG 1.1//EN" "http://www.w3.org/Graphics/SVG/1.1/DTD/svg11.dtd">
<svg viewBox="0 0 800 800" preserveAspectRatio="xMinYMin meet" xmlns="http://www.w3.org/2000/svg" version="1.1">
<g fill="none" stroke="black" stroke-linecap="round" stroke-linejoin="round" stroke-width="1.7521">
<g transform="translate(169.7065,87.52) scale(1.7122) translate(-192,-100)">
<path id="0" d="M204 162 C204 162 203.9231 150.978 206 149 C209.7068 145.4697 215.3254 144.5238 225 142 C260.9718 132.6161 284.3581 128.5506 298 125 C298.0917 124.9761 297.9412 123.0147 298 123 C298.9412 122.7647 304.7108 123.573 306 123 C306.4476 122.801 306.6914 119.0494 307 119 C311.5161 118.2774 319.3733 120.4334 331 119 C355.2753 116.0072 380 110 380 110 "/>
<path id="1" d="M222 186 C222 186 221.1049 171.3096 223 164 C223.5581 161.8473 226.1167 159.607 229 159 C250.4529 154.4836 255.6208 157.1505 280 152 C290.0762 149.8712 289.843 146.6641 300 144 C319.8091 138.8042 321.8424 142.2262 341 136 C360.7069 129.5953 366.0624 126.2962 380 118 C382.0092 116.804 383 111 383 111 "/>
<path id="2" d="M382 113 C382 113 391.4507 109.4691 401 108 C423.5913 104.5244 447 103 447 103 "/>
<path id="3" d="M385 114 C385 114 383.4964 120.5827 385 124 C387.9832 130.7799 389.9891 133.5118 396 139 C400.2542 142.8843 402.4739 144.1365 408 145 C416.4761 146.3244 419.7954 145.3674 428 144 C429.8308 143.6949 430.0023 141.5448 432 141 C439.8023 138.8721 442.0046 140.4601 450 138 C454.0302 136.7599 457.6057 134.8729 458 133 C459.9466 123.7536 459.8284 103.0169 458 100 C457.3284 98.8919 440.4752 99.7525 438 100 C437.9752 100.0025 438 102 438 102 "/>
<path id="4" d="M383 109 C383 109 406.7582 108.9641 430 107 C441.9922 105.9866 443.0613 103.7057 454 103 C457.0983 102.8001 461 105 461 105 "/>
<path id="5" d="M386 109 C386 109 393.1787 110.2053 398 109 C401.7164 108.0709 402.2808 104.9787 406 104 C410.3916 102.8443 412.0726 104.8212 417 104 C420.3596 103.4401 420.6294 101.3457 424 101 C438.8071 99.4813 452.2533 99.8829 456 100 C456.0073 100.0002 456 102 456 102 "/>
<path id="6" d="M388 115 C388 115 387.9726 113.003 388 113 C390.2226 112.753 397.5096 114.3862 406 113 C421.2385 110.5121 421.9679 107.1045 437 105 C445.8264 103.7643 451.6961 105.1392 456 106 C456.3587 106.0717 457 109 457 109 "/>
<path id="7" d="M385 113 C385 113 390.7616 112.1192 395 110 C398.1327 108.4336 397.9046 106.2112 401 105 C408.2226 102.1738 409.6139 102.1181 418 101 C424.2178 100.171 425.0291 100.147 431 101 C434.8712 101.553 439 104 439 104 "/>
<path id="8" d="M410 111 C410 111 400.0423 115.2517 392 117 C390.0075 117.4331 386.9931 116.0035 387 116 C387.0338 115.9831 406 110 406 110 C406 109.9999 386.0008 113.0003 386 113 C385.9995 112.9998 393.4005 108.9777 400 108 C405.7538 107.1476 413 109 413 109 "/>
<path id="9" d="M413 113 C413 113 413.1875 110.1875 413 110 C412.8125 109.8125 410.1411 109.7179 410 110 C406.6147 116.7706 398 140 398 140 "/>
<path id="10" d="M396 117 C396 117 391.5074 118.3042 390 120 C388.5931 121.5827 388.01 126 388 126 C387.99 126 385.6551 120.5748 386 120 C386.6323 118.9462 391.3402 118.4381 394 116 C396.3748 113.8231 396.3125 109.9844 398 109 C399.6701 108.0258 406 109 406 109 "/>
<path id="11" d="M396 116 L399 136 "/>
<path id="12" d="M392 122 L394 134 "/>
<path id="13" d="M405 114 L405 123 "/>
<path id="14" d="M407 126 C407 126 415.1182 118.7658 424 114 C435.1277 108.0291 448 104 448 104 "/>
<path id="15" d="M409 124 L399 132 "/>
<path id="16" d="M204 158 C204 158 204.4252 278.2708 207 398 C207.419 417.4829 210 437 210 437 "/>
<path id="17" d="M223 184 C223 184 220.1894 367.3827 223 425 C223.0651 426.3353 231.4115 426.4115 235 430 C242.8103 437.8103 250 452 250 452 "/>
<path id="18" d="M211 436 L194 458 "/>
<path id="19" d="M196 463 C196 463 203.651 464.8465 210 464 C217.631 462.9825 218.1944 459.8304 226 459 C240.6368 457.4429 256.238 459.4969 257 459 C257.0438 458.9714 249 444 249 444 "/>
<path id="20" d="M198 465 L192 465 "/>
<path id="21" d="M192 465 C192 465 195.681 462.9785 197 461 C198.0193 459.4711 198 456 198 456 "/>
<path id="22" d="M211 435 C211 435 224.1713 431.8287 226 430 C226.7315 429.2685 225.6253 422.1255 225 421 C224.8546 420.7383 221.7594 420.4576 221 421 C219.7524 421.8911 219.7245 424.7458 218 426 C215.3541 427.9243 210.7458 427.9346 210 429 C209.4537 429.7804 210.98 436 211 436 C211.14 436 218 429 218 429 "/>
</g>
</g>
</svg>
