<?xml version="1.0" encoding="utf-8"?>
<!DOCTYPE svg PUBLIC "-//W3C//DTD SVG 1.1//EN" "http://www.w3.org/Graphics/SVG/1.1/DTD/svg11.dtd">
<svg viewBox="0 0 800 800" preserveAspectRatio="xMinYMin meet" xmlns="http://www.w3.org/2000/svg" version="1.1">
<g fill="none" stroke="black" stroke-linecap="round" stroke-linejoin="round" stroke-width="1.2721">
<g transform="translate(191.2869,87.52) scale(2.3583) translate(-167,-94)">
<path id="0" d="M318 358 C318 358 319.0553 313.8755 322 270 C324.0484 239.4786 326.7081 239.4529 328 209 C330.1944 157.275 327.3141 135.0644 329 105 C329.0531 104.0522 332.2186 102.1619 334 102 C335.9657 101.8213 339.4266 102.8532 340 104 C342.2937 108.5874 343.8659 113.1963 344 122 C345.3286 209.2453 346.8009 212.8195 343 301 C341.8666 327.2941 338.5159 334.5467 334 354 C333.678 355.3873 331.9389 356.5384 330 357 C322.8123 358.7114 313 359 313 359 "/>
<path id="1" d="M326 174 C326 174 319.6007 172.2589 315 169 C308.1978 164.1817 307.4341 163.3398 302 157 C298.8804 153.3605 300.1934 151.6976 297 148 C281.7743 130.3703 278.7528 131.1057 264 113 C257.3343 104.8194 253.8083 94.1757 253 94 C252.5216 93.896 242.0886 103.3344 241 108 C240.0388 112.1194 242.1524 117.2666 246 124 C253.5204 137.1607 254.5515 138.1583 265 150 C276.7133 163.2751 277.3756 163.6947 291 175 C300.5067 182.8885 302.1595 181.4088 312 189 C319.4356 194.7361 326 202 326 202 "/>
<path id="2" d="M258 144 C258 144 252.1145 135.8678 245 131 C233.9862 123.4642 232.6633 123.0653 220 118 C210.7751 114.31 209.8452 114.4917 200 113 C193.8342 112.0658 192.0905 111.5153 187 113 C181.8932 114.4895 179.6298 115.8258 176 120 C170.7793 126.0039 169.1821 128.4839 167 136 C165.2415 142.0572 165.5513 144.7222 167 151 C168.1961 156.1832 169.2661 157.4175 173 162 C179.8237 170.3745 180.3529 171.251 189 178 C200.3789 186.8811 201.1916 187.0136 214 194 C222.8727 198.8396 223.864 200.4111 233 202 C245.0969 204.1038 247.9378 202.7782 260 202 C261.8446 201.881 262.3832 201.3315 264 200 C270.5513 194.6048 274.8784 193.2224 277 188 C279.4554 181.9559 277 168 277 168 "/>
</g>
</g>
</svg>
