<?xml version="1.0" encoding="utf-8"?>
<!DOCTYPE svg PUBLIC "-//W3C//DTD SVG 1.1//EN" "http://www.w3.org/Graphics/SVG/1.1/DTD/svg11.dtd">
<svg viewBox="0 0 800 800" preserveAspectRatio="xMinYMin meet" xmlns="http://www.w3.org/2000/svg" version="1.1">
<g fill="none" stroke="black" stroke-linecap="round" stroke-linejoin="round" stroke-width="2.0065">
<g transform="translate(87.52,278.1478) scale(1.4951) translate(-219,-151.1333)">
<path id="0" d="M254 206.1333 C254 206.1333 248.5519 203.3884 247 204.1333 C240.6484 207.1821 235.5771 211.9024 229 218.1333 C227.9924 219.0879 228.9905 220.9447 228 222.1333 C224.8236 225.9451 219.3891 227.0688 219 230.1333 C216.6644 248.5258 219.1302 272.9557 220 285.1333 C220.0192 285.4018 222.7382 285.6097 223 286.1333 C223.7854 287.7042 223.768 293.1127 224 293.1333 C230.2534 293.6892 254.6198 293.137 268 290.1333 C270.0355 289.6764 269.9219 284.9036 273 282.1333 C279.0553 276.6836 284.7296 276.6301 288 272.1333 C289.9906 269.3962 289.1037 261.3771 289 260.1333 C288.9986 260.1159 287 260.1333 287 260.1333 "/>
<path id="1" d="M259 209.1333 C259 209.1333 259.5141 201.6531 262 197.1333 C264.2582 193.0274 265.6403 192.1059 270 189.1333 C276.083 184.9858 279.275 186.6833 284 182.1333 C291.1296 175.2678 289.8403 167.962 297 163.1333 C307.1913 156.2601 312.0295 157.0387 327 153.1333 C334.585 151.1546 335.1325 151.0325 343 151.1333 C373.5545 151.5251 380.6871 149.5949 405 154.1333 C410.8502 155.2254 411.3667 160.7111 418 165.1333 C421.2623 167.3082 423.5184 165.7207 426 168.1333 C439.4372 181.1972 442.2638 183.6392 454 200.1333 C459.9681 208.5209 460.9472 210.5534 463 220.1333 C465.0595 229.7445 465.6254 233.6513 463 242.1333 C460.1331 251.3956 455.224 260.6898 450 262.1333 C432.1574 267.0635 418.4555 263.5217 387 263.1333 C337.5418 262.5227 288 260.1333 288 260.1333 "/>
<path id="2" d="M323 265.1333 C323 265.1333 322.4852 274.6482 321 276.1333 C319.5148 277.6185 310.39 277.4509 310 278.1333 C309.5159 278.9805 312.6036 289.9351 313 290.1333 C313.2643 290.2655 317.6246 285.7453 322 284.1333 C326.0467 282.6424 331.1573 284.1868 332 283.1333 C333.4608 281.3074 334 269.1333 334 269.1333 "/>
<path id="3" d="M350 263.1333 C350 263.1333 351.7729 276.4514 351 277.1333 C349.7145 278.2676 341.1864 277.017 333 278.1333 C331.0714 278.3963 330.0273 278.8492 329 280.1333 C326.7873 282.8992 324.6853 287.032 325 288.1333 C325.3802 289.4641 329.436 292.3513 333 294.1333 C334.296 294.7813 336.2211 294.7392 337 294.1333 C339.0339 292.5514 339.8753 288.2774 342 287.1333 C343.9383 286.0896 346.7242 287.8893 350 287.1333 C352.3309 286.5954 354.2967 285.3992 355 284.1333 C355.7303 282.8188 355 278.1333 355 278.1333 "/>
<path id="4" d="M405 266.1333 C405 266.1333 403.0003 274.1325 403 274.1333 C402.9999 274.1335 403.1 272.1833 403 272.1333 C402.6 271.9333 399.9312 271.5125 399 272.1333 C396.9047 273.5302 396.8262 276.3838 394 278.1333 C387.4055 282.2157 379.1839 284.2877 378 285.1333 C377.9919 285.1391 379.4877 288.1333 380 288.1333 C385.3788 288.1333 397.5858 287.36 401 285.1333 C402.4614 284.1803 403 273.1333 403 273.1333 "/>
<path id="5" d="M416 269.1333 C416 269.1333 417.7736 285.685 417 290.1333 C416.8934 290.7462 412.3655 291.4938 412 292.1333 C411.6668 292.7164 412.6252 296.997 413 297.1333 C414.2816 297.5994 422.866 296.6023 423 296.1333 C423.9181 292.9199 421 269.1333 421 269.1333 "/>
<path id="6" d="M464 206.1333 C464 206.1333 466.6955 210.4811 468 211.1333 C468.7024 211.4845 470.6886 209.8419 472 210.1333 C473.9671 210.5705 474.7922 213.0387 477 213.1333 C504.9821 214.3326 509.9825 211.9761 542 213.1333 C550.9198 213.4557 552.1977 214.0054 560 216.1333 C561.9977 216.6782 562.2149 218.7986 564 219.1333 C568.6949 220.0136 571.646 217.9239 576 219.1333 C578.6809 219.878 579.3191 223.3886 582 224.1333 C586.354 225.3428 588.4997 223.3083 594 224.1333 C597.8731 224.7143 598.5403 225.1564 602 227.1333 C605.1544 228.9359 606.094 229.5125 608 232.1333 C609.5174 234.2198 608.4739 236.7246 610 238.1333 C613.348 241.2238 617.6093 240.5431 621 244.1333 C624.6551 248.0034 623.2709 251.472 627 256.1333 C630.5515 260.5727 635.7907 260.7472 637 264.1333 C639.0902 269.9859 638.2394 275.1476 637 284.1333 C636.4081 288.4248 635.8382 290.0371 633 293.1333 C625.9419 300.8331 624.1166 304.06 615 308.1333 C603.3079 313.3575 600.2619 313.1146 586 314.1333 C566.1649 315.5501 563.8144 315.5279 545 313.1333 C538.2461 312.2737 537.926 309.1534 531 307.1333 C526.4743 305.8133 525.3318 307.6704 521 306.1333 C510.7304 302.4893 508.8985 301.3241 500 296.1333 C498.2313 295.1016 498.5211 292.8354 497 292.1333 C493.5715 290.551 490.6165 292.4418 487 290.1333 C469.4018 278.9005 450 262.1333 450 262.1333 "/>
<path id="7" d="M233 232.1333 C233 232.1333 235.9711 231.4224 236 231.1333 C236.8695 222.4385 235.7302 202.5457 237 192.1333 C237.0807 191.4712 240.9927 190.0783 241 190.1333 C241.1601 191.3343 241 222.1333 241 222.1333 "/>
<path id="8" d="M232 229.1333 C232 229.1333 232.401 224.0249 231 220.1333 C228.1741 212.2837 225.0606 211.9179 223 204.1333 C220.9227 196.2856 221.9111 186.2731 222 186.1333 C222.0098 186.118 228.0428 190.1976 230 193.1333 C230.7935 194.3235 229.4361 197.1465 230 198.1333 C230.4833 198.9792 233.6171 199.2144 234 200.1333 C235.0878 202.7441 235 210.1333 235 210.1333 "/>
<path id="9" d="M234 247.1333 C234 247.1333 243.669 246.8913 245 247.1333 C245.044 247.1413 245.0588 249.1186 245 249.1333 C244.0588 249.3686 237.9412 249.3686 237 249.1333 C236.9412 249.1186 237 247.1333 237 247.1333 "/>
<path id="10" d="M224 285.1333 C224 285.1333 227.9997 282.1336 231 279.1333 C231.6924 278.441 232.0229 277.1792 232 277.1333 C231.9847 277.1028 230.5044 276.7971 230 277.1333 C228.3187 278.2542 226 281.1333 226 281.1333 "/>
<path id="11" d="M302 188.1333 C302 188.1333 304.2126 181.7063 307 179.1333 C309.2557 177.0512 311.1736 176.3177 315 176.1333 C350.2583 174.4341 352.7285 174.7451 390 175.1333 C400.4478 175.2422 411 177.1333 411 177.1333 "/>
<path id="12" d="M309 168.1333 C309 168.1333 324.8436 169.2223 339 168.1333 C343.3558 167.7983 343.7133 165.2864 348 165.1333 C370.1058 164.3438 395 166.1333 395 166.1333 "/>
<path id="13" d="M328 163.1333 C328 163.1333 331.7935 159.3962 335 159.1333 C358.6653 157.1935 389 158.1333 389 158.1333 "/>
</g>
</g>
</svg>
