<?xml version="1.0" encoding="utf-8"?>
<!DOCTYPE svg PUBLIC "-//W3C//DTD SVG 1.1//EN" "http://www.w3.org/Graphics/SVG/1.1/DTD/svg11.dtd">
<svg viewBox="0 0 800 800" preserveAspectRatio="xMinYMin meet" xmlns="http://www.w3.org/2000/svg" version="1.1">
<g fill="none" stroke="black" stroke-linecap="round" stroke-linejoin="round" stroke-width="0.99846">
<g transform="translate(87.52,179.1608) scale(3.0046) translate(-97,-137.1333)">
<path id="0" d="M97 155.1333 C97 155.1333 96.2958 147.922 98 145.1333 C100.2663 141.4249 103.5576 138.0939 108 137.1333 C118.2257 134.9224 127.648 134.4785 135 137.1333 C138.7289 138.4799 141.2258 143.518 144 150.1333 C147.2543 157.8936 147.0638 159.2394 148 168.1333 C149.0165 177.7896 151.0574 180.7081 148 188.1333 C138.8996 210.2343 130.6674 212.7339 120 236.1333 C116.2489 244.3616 117 256.1333 117 256.1333 "/>
<path id="1" d="M118 256.1333 C118 256.1333 117.9962 250.6694 120 247.1333 C125.8334 236.839 126.8984 234.2349 135 226.1333 C139.5009 221.6324 141.3402 221.6308 148 219.1333 C156.8975 215.7968 157.6607 215.0863 167 214.1333 C181.3607 212.668 182.3538 212.9846 197 214.1333 C207.4055 214.9494 208.516 214.5545 218 218.1333 C234.0266 224.1811 250 234.1333 250 234.1333 "/>
<path id="2" d="M251 234.1333 C251 234.1333 253.8193 228.8827 257 227.1333 C262.2312 224.2561 270.9979 223.1348 271 223.1333 C271.001 223.1326 266.1053 222.0982 263 223.1333 C258.3421 224.686 253 229.1333 253 229.1333 "/>
<path id="3" d="M275 238.1333 C275 238.1333 272 234.665 272 232.1333 C272 221.1628 274.9194 206.2286 275 206.1333 C275.0176 206.1125 281.4379 213.0801 283 219.1333 C284.8665 226.3661 283 237.1333 283 237.1333 "/>
<path id="4" d="M285 229.1333 C285 229.1333 294.7535 234.7636 299 241.1333 C303.3792 247.7021 305 259.1333 305 259.1333 "/>
<path id="5" d="M118 257.1333 L118 254.1333 "/>
<path id="6" d="M119 256.1333 L119 277.1333 "/>
<path id="7" d="M117 255.1333 L117 277.1333 "/>
<path id="8" d="M118 277.1333 C118 277.1333 120.0777 283.0574 121 283.1333 C142.6666 284.9176 202.7049 284.1675 203 284.1333 C203.0431 284.1283 195.9585 277.3678 190 275.1333 C185.9973 273.6323 179 275.1333 179 275.1333 "/>
<path id="9" d="M179 264.1333 C179 264.1333 182.6329 265.3074 183 266.1333 C183.6801 267.6637 183.5626 272.2331 183 273.1333 C182.6684 273.6638 178 274.1333 178 274.1333 "/>
<path id="10" d="M199 280.1333 L249 280.1333 "/>
<path id="11" d="M236 274.1333 C236 274.1333 244.8245 273.8285 249 275.1333 C250.333 275.5499 252.0046 279.1303 252 279.1333 C251.8754 279.2164 243 279.1333 243 279.1333 "/>
<path id="12" d="M238 273.1333 C238 273.1333 246.12 273.0933 252 271.1333 C255.4745 269.9752 256.6108 268.957 259 266.1333 C261.4902 263.1904 263 258.1333 263 258.1333 "/>
<path id="13" d="M264 258.1333 C264 258.1333 285.3239 262.4327 297 262.1333 C299.1751 262.0776 303 257.1333 303 257.1333 "/>
<path id="14" d="M285 252.1333 C285 252.1333 285.8144 258.9477 287 260.1333 C287.9485 261.0818 294.0022 261.1398 294 261.1333 C293.9935 261.1138 285.0238 254.1401 285 254.1333 C284.9926 254.1312 286.0137 258.5953 287 259.1333 C288.9916 260.2197 296 260.1333 296 260.1333 "/>
<path id="15" d="M305 257.1333 L296 261.1333 "/>
<path id="16" d="M290 229.1333 L289 229.1333 "/>
<path id="17" d="M290 230.1333 C290 230.1333 287.3347 227.9184 287 226.1333 C286.1197 221.4384 285.8366 219.2522 287 214.1333 C288.0797 209.3829 291.84 204.2133 292 204.1333 C292 204.1333 294.8304 207.4202 295 210.1333 C295.7108 221.5064 294 236.1333 294 236.1333 "/>
<path id="18" d="M276 242.1333 C276 242.1333 278.7404 241.9603 279 242.1333 C278.7469 242.07 275.0181 243.1152 275 243.1333 C274.9964 243.137 276.9542 244.1562 277 244.1333 "/>
<path id="19" d="M297 250.1333 L303 254.1333 "/>
<path id="20" d="M97 156.1333 C97 156.1333 99.9328 165.5997 101 166.1333 C102.0079 166.6373 110.1839 162.9108 111 163.1333 C111.2343 163.1972 111.9358 169.1076 112 169.1333 C112.0454 169.1515 113.9523 166.0784 116 165.1333 C119.4758 163.5291 123.6738 162.7716 125 163.1333 C125.5276 163.2772 126.8791 165.8368 127 168.1333 C127.3302 174.4074 127.6565 175.6348 126 182.1333 C121.345 200.3953 116.9687 201.0739 114 219.1333 C111.2578 235.8153 112.93 237.6568 114 255.1333 C114.3918 261.5334 117 268.1333 117 268.1333 "/>
<path id="21" d="M100 148.1333 C100 148.1333 107.7609 153.0437 108 153.1333 C108.0182 153.1401 108 151.1333 108 151.1333 "/>
<path id="22" d="M106 141.1333 L114 148.1333 "/>
<path id="23" d="M117 139.1333 L119 145.1333 "/>
<path id="24" d="M128 139.1333 L126 148.1333 "/>
<path id="25" d="M138 144.1333 L129 153.1333 "/>
<path id="26" d="M140 155.1333 L131 162.1333 "/>
<path id="27" d="M144 169.1333 L135 174.1333 "/>
<path id="28" d="M144 188.1333 L139 186.1333 "/>
<path id="29" d="M138 199.1333 L129 197.1333 "/>
<path id="30" d="M133 210.1333 L120 209.1333 "/>
<path id="31" d="M124 223.1333 L121 223.1333 "/>
</g>
</g>
</svg>
