<?xml version="1.0" encoding="utf-8"?>
<!DOCTYPE svg PUBLIC "-//W3C//DTD SVG 1.1//EN" "http://www.w3.org/Graphics/SVG/1.1/DTD/svg11.dtd">
<svg viewBox="0 0 800 800" preserveAspectRatio="xMinYMin meet" xmlns="http://www.w3.org/2000/svg" version="1.1">
<g fill="none" stroke="black" stroke-linecap="round" stroke-linejoin="round" stroke-width="1.4401">
<g transform="translate(111.4768,87.52) scale(2.0832) translate(-99,-95)">
<path id="0" d="M153 169 C153 169 151.9064 155.4679 154 145 C155.0554 139.7228 156.3427 137.8725 160 134 C163.8158 129.9597 165.3609 129.2974 171 127 C178.177 124.076 179.0612 123.8446 187 123 C202.0344 121.4006 203.1407 121.3089 218 122 C223.8276 122.2711 224.6886 123.0082 230 125 C232.074 125.7777 232.9524 126.2976 234 128 C236.3904 131.8844 237.48 133.3196 238 138 C238.8409 145.5684 239.7052 148.5376 237 155 C231.8569 167.2864 229.342 169.2471 220 181 C214.2953 188.1768 213.3579 188.3401 206 194 C200.6702 198.0998 199.6071 199.7735 194 201 C185.7124 202.8129 182.328 201.7242 174 201 C172.6784 200.8851 171.954 200.2402 171 199 C167.3715 194.2829 168.0732 192.7163 164 188 C158.8949 182.0889 155.2199 181.5615 152 177 C151.0078 175.5944 152 171 152 171 "/>
<path id="1" d="M154 183 C154 183 160.2988 183.987 164 183 C166.2454 182.4012 169 179 169 179 "/>
<path id="2" d="M188 152 C188 152 192.7815 149.9563 193 150 C193.0285 150.0057 193.2895 152.7105 193 153 C192.5175 153.4825 189 154 189 154 "/>
<path id="3" d="M208 122 C208 122 206.6181 109.6334 208 103 C208.4394 100.8907 210.9325 99.4768 213 98 C213.4824 97.6554 214.9981 97.9784 215 98 C215.2481 100.8534 215 121 215 121 "/>
<path id="4" d="M221 121 C221 121 220.5642 105.4659 222 98 C222.2333 96.7866 225.9881 94.9486 226 95 C226.1681 95.7285 228 124 228 124 "/>
<path id="5" d="M234 167 C234 167 231.8889 179.4938 234 187 C235.5339 192.4538 242.5531 193.786 243 199 C247.4881 251.3612 248.3415 267.6821 246 327 C245.5541 338.2972 242.4824 339.7742 237 351 C232.2001 360.8283 231.4422 362.2694 225 370 C222.4083 373.11 220.6992 374.2293 217 375 C210.4539 376.3638 208.0829 376.4166 201 375 C194.2712 373.6542 187 369 187 369 "/>
<path id="6" d="M202 376 C202 376 202.5587 383.4413 201 385 C196.6357 389.3643 191.4701 392.9341 183 395 C173.4687 397.3247 171.1219 396.0851 160 395 C151.1072 394.1324 150.891 391.8083 142 391 C129.4118 389.8556 128.7409 391.8889 116 391 C107.5668 390.4116 101.2994 389.4878 99 388 C98.3716 387.5934 97.8721 382.5781 99 380 C100.5597 376.435 103.2183 372.4542 106 372 C120.0659 369.7035 148 372 148 372 C148 372 136.6199 373.4085 131 371 C125.9329 368.8284 124.202 365.4949 120 360 C118.3701 357.8686 118.0728 356.8411 118 354 C117.603 338.5187 115.3188 333.7614 119 321 C121.5477 312.168 125.0593 309.2601 133 302 C141.324 294.3895 143.4976 293.8011 154 289 C159.9918 286.2609 162.3001 288.6125 168 286 C173.0666 283.6778 178 278 178 278 "/>
<path id="7" d="M127 305 C127 305 125.0393 273.4342 129 250 C130.2661 242.5087 133.0637 240.7023 139 234 C147.9795 223.8619 151.5279 224.9849 160 215 C164.5882 209.5925 167 201 167 201 "/>
<path id="8" d="M233 185 C233 185 228.2593 178.6621 224 176 C221.7793 174.6121 219.2538 174.4365 217 175 C214.9966 175.5008 212.4886 177.3387 212 179 C210.8389 182.9479 212.8984 186.31 212 192 C211.5526 194.8335 211.043 196.1721 209 198 C202.6912 203.6447 201.1584 204.9208 193 209 C186.9286 212.0357 185.8416 212.6282 179 213 C141.439 215.0414 110.6687 212.1406 101 214 C100.6671 214.064 99.8029 225.0927 101 228 C101.503 229.2216 104.6294 230.6543 108 231 C122.8071 232.5187 125.4543 229.5757 140 232 C147.7627 233.2938 148.5105 238.452 156 239 C185.9027 241.188 196.0715 240.1607 222 238 C224.5176 237.7902 226.1378 235.8967 228 233 C234.4576 222.9549 240 210 240 210 "/>
<path id="9" d="M237 189 C237 189 235.3094 174.6592 238 163 C240.9273 150.3151 242.586 148.866 249 137 C252.1853 131.1072 252.885 130.5132 258 126 C269.4202 115.9233 270.3997 115.0502 283 107 C287.599 104.0617 288.6849 103.5746 294 103 C306.0878 101.6932 307.4519 101.8327 320 103 C328.3841 103.7799 329.5826 103.7034 337 107 C346.6118 111.2719 350.808 112.5619 356 119 C360.53 124.6172 357.827 129.9149 362 138 C365.2409 144.2793 369.4571 144.6599 372 150 C373.3654 152.8673 372.6886 158.0163 372 159 C371.5486 159.6449 367.4771 158.6789 365 160 C361.1419 162.0577 359.8498 163.042 357 167 C351.3719 174.8168 349.0615 176.379 347 185 C344.1451 196.9389 344.2359 199.867 346 213 C348.5541 232.0136 349.8644 232.9796 356 252 C364.7839 279.2301 369.7127 279.9077 376 306 C379.0999 318.8644 377.8274 321.9037 376 335 C375.0651 341.7004 373.5902 343.3155 370 349 C368.2261 351.8086 367.2632 352.5497 364 354 C341.5985 363.9562 340.1503 364.6145 316 373 C304.4624 377.0061 303.7932 378.1475 292 379 C263.523 381.0586 248.4293 379.5143 233 379 C232.7211 378.9907 232 377 232 377 "/>
</g>
</g>
</svg>
