<?xml version="1.0" encoding="utf-8"?>
<!DOCTYPE svg PUBLIC "-//W3C//DTD SVG 1.1//EN" "http://www.w3.org/Graphics/SVG/1.1/DTD/svg11.dtd">
<svg viewBox="0 0 800 800" preserveAspectRatio="xMinYMin meet" xmlns="http://www.w3.org/2000/svg" version="1.1">
<g fill="none" stroke="black" stroke-linecap="round" stroke-linejoin="round" stroke-width="1.1809">
<g transform="translate(262.8137,87.52) scale(2.5405) translate(-201,-118)">
<path id="0" d="M221 198 C221 198 217.7299 176.971 219 163 C219.3482 159.1698 221.362 156.9384 225 154 C233.1407 147.4248 235.6621 144.8014 245 142 C252.9135 139.626 258.1449 139.7887 265 142 C269.876 143.5729 272.4493 146.4964 276 152 C281.5673 160.6292 281.9969 162.9897 285 173 C286.1404 176.8014 286.222 178.3339 285 182 C281.6959 191.9122 281.1796 195.0901 275 203 C270.1273 209.237 267.0515 211.713 260 214 C251.5218 216.7497 248.2064 215.6585 238 215 C233.7223 214.724 232.3277 214.0478 229 212 C226.8287 210.6638 224.9342 208.513 225 207 C225.2483 201.2887 230 189 230 189 "/>
<path id="1" d="M227 168 C227 168 229.3212 161.8394 231 161 C233.2384 159.8808 241 161 241 161 "/>
<path id="2" d="M233 168 L242 170 "/>
<path id="3" d="M257 165 C257 165 259.3148 158.9074 261 158 C262.9522 156.9488 268.2465 157.203 270 158 C270.8325 158.3784 272 163 272 163 "/>
<path id="4" d="M264 169 L274 171 "/>
<path id="5" d="M248 183 C248 183 252.1338 183.4331 253 183 C253.4331 182.7834 254 180 254 180 "/>
<path id="6" d="M235 196 C235 196 258.915 197.97 259 198 C259.0192 198.0068 254.8902 201.6958 252 202 C247.4086 202.4833 240 200 240 200 "/>
<path id="7" d="M220 184 C220 184 208.5137 214.1344 203 243 C200.3427 256.9118 201.71 258.2574 203 273 C205.1763 297.872 205.1534 298.7669 210 323 C212.0179 333.0893 212.495 333.7648 217 343 C222.2605 353.7841 227.6388 363.2621 230 364 C231.8784 364.587 249 353 249 353 "/>
<path id="8" d="M275 200 C275 200 286.1197 217.7409 293 236 C298.7918 251.3706 298.9662 252.7294 301 269 C302.8544 283.835 303.068 285.5241 301 300 C299.256 312.2078 297.7836 313.041 293 325 C289.9127 332.7182 289.429 332.9136 285 340 C282.0381 344.739 281.9219 345.5395 278 349 C273.9854 352.5423 273.1011 353.241 268 355 C259.3864 357.9702 256.5278 359.941 249 359 C239.9971 357.8746 236.7632 356.0247 228 350 C213.979 340.3605 201 326 201 326 "/>
<path id="9" d="M220 156 C220 156 213.9531 147.6968 210 139 C206.6474 131.6242 205.922 129.4541 205 123 C204.7399 121.1796 206.4616 118.1242 207 118 C208.7989 117.5849 215.9261 117.7187 218 120 C226.3426 129.1769 237 151 237 151 "/>
<path id="10" d="M274 145 C274 145 285.6887 138.819 296 135 C298.0058 134.2571 299.4525 134.2263 301 135 C304.095 136.5475 306.0791 138.1187 308 141 C309.2006 142.8008 309.3824 145.2792 309 147 C308.7573 148.092 307.6136 149.3545 306 150 C296.4719 153.8113 284 157 284 157 "/>
</g>
</g>
</svg>
