<?xml version="1.0" encoding="utf-8"?>
<!DOCTYPE svg PUBLIC "-//W3C//DTD SVG 1.1//EN" "http://www.w3.org/Graphics/SVG/1.1/DTD/svg11.dtd">
<svg viewBox="0 0 800 800" preserveAspectRatio="xMinYMin meet" xmlns="http://www.w3.org/2000/svg" version="1.1">
<g fill="none" stroke="black" stroke-linecap="round" stroke-linejoin="round" stroke-width="1.5169">
<g transform="translate(87.52,120.1524) scale(1.9777) translate(-55,-153)">
<path id="0" d="M59 197 C59 197 58.586 192.3138 60 190 C63.1789 184.7982 64.6483 183.2814 70 179 C73.9853 175.8117 75.2745 175.4767 80 174 C82.4522 173.2337 84.3967 174.7126 86 174 C87.2767 173.4326 87.741 170.4578 89 170 C91.261 169.1778 97 170 97 170 "/>
<path id="1" d="M59 197 C59 197 69.733 200.1935 77 204 C78.7089 204.8952 78.7947 207.7768 80 208 C87.7924 209.443 93.0022 209.6874 104 209 C107.7616 208.7649 108.7737 208.1509 112 206 C117.1621 202.5586 120.7761 200.6716 122 197 C123.7531 191.7407 122.744 185.9762 121 179 C120.3072 176.2286 118.2245 173.7078 116 173 C110.4241 171.2259 99 172 99 172 "/>
<path id="2" d="M99 172 C99 172 100.7647 162.0981 104 158 C106.3245 155.0556 113.9804 152.9706 114 153 C114.1841 153.2762 113.8278 162.0794 112 170 C110.9613 174.5011 108 179 108 179 "/>
<path id="3" d="M92 172 C92 172 88.3015 165.7512 85 163 C83.6718 161.8932 80.025 161.935 80 162 C79.6211 162.9852 80 176 80 176 "/>
<path id="4" d="M96 184 C96 184 96.2 187.6 96 188 C95.95 188.1 94 188 94 188 C94 188.1528 95.5402 191.885 96 192 C96.843 192.2108 101.9475 190.1838 102 190 C102.0545 189.8092 98 185 98 185 "/>
<path id="5" d="M59 193 L73 194 "/>
<path id="6" d="M57 194 C57 194 54.9974 190.0052 55 190 C55.0004 189.9991 58 192 58 192 "/>
<path id="7" d="M122 184 C122 184 128.5351 191.304 134 193 C140.2801 194.949 143.161 191.6562 151 193 C159.7744 194.5042 162.9853 197.8543 169 199 C169.8229 199.1567 171.5617 196.793 172 197 C180.9487 201.2258 192.9769 204.9788 205 216 C214.0422 224.2886 216.2913 228.7026 220 241 C224.9251 257.3304 223.3869 260.3019 224 279 C224.3687 290.2462 222 302 222 302 "/>
<path id="8" d="M107 212 C107 212 105.7419 214.1398 106 215 C106.7838 217.6125 107.4396 219.4396 110 222 C116.2845 228.2845 125 234 125 234 "/>
<path id="9" d="M125 231 C125 231 123.3398 243.918 120 248 C117.5239 251.0263 112.0404 249.6397 107 253 C102.6797 255.8802 100.5544 258.447 99 262 C98.1839 263.8653 98.7475 266.8528 100 269 C101.4039 271.4067 105.3968 274.1392 106 274 C107.101 273.7459 109.9743 267.5129 113 266 C115.4756 264.7622 118.0627 266.9375 122 266 C127.7705 264.6261 128.86 264.0235 134 261 C136.7319 259.393 137.7923 258.6569 139 256 C142.2004 248.9591 144 239 144 239 "/>
<path id="10" d="M114 222 C114 222 115.0368 227.1856 114 229 C112.2861 231.9993 110.0581 234.4057 106 236 C97.8568 239.1991 89.8456 237.5528 86 240 C84.5734 240.9078 83.7522 246.2827 84 250 C84.1306 251.9591 86.9329 254.9665 87 255 C87.0061 255.003 87.6686 252.053 88 252 C93.41 251.1344 104.2076 252.443 112 251 C113.2053 250.7768 115 247 115 247 "/>
<path id="11" d="M140 260 C140 260 147.486 269.4517 155 273 C163.1361 276.842 176 277 176 277 "/>
<path id="12" d="M203 275 C203 275 191.49 273.5621 182 275 C176.2348 275.8735 171.9202 277.9198 170 280 C169.0445 281.0351 169.1578 284.4627 170 288 C171.4939 294.2745 171.4745 296.4952 175 301 C179.2052 306.3733 187.9914 310.9057 188 311 C188.0001 311.0008 181.442 312.653 176 312 C169.8251 311.259 169.4968 309.0535 163 308 C151.4216 306.1224 143.204 304.9101 139 306 C138.0451 306.2476 135.9678 314.9873 136 315 C137.913 315.7515 152.6338 314.3063 167 317 C175.385 318.5722 175.8137 322.1515 184 324 C190.1682 325.3928 198 324 198 324 "/>
<path id="13" d="M160 271 C160 271 153.9939 272.7221 153 274 C152.2938 274.908 153.596 278.4107 153 280 C152.6896 280.8278 150.9088 282.1298 150 282 C143.7342 281.1049 140.8369 278.3389 132 277 C124.9333 275.9293 117.9088 276.221 117 277 C116.4374 277.4822 117.4904 288.583 118 289 C118.3555 289.2908 123.3705 286 128 286 C141.8886 286 146.354 285.2083 158 289 C164.2339 291.0297 164.4371 296.3248 171 300 C175.6858 302.6241 183 303 183 303 "/>
<path id="14" d="M205 305 C205 305 207.6499 315.884 207 320 C206.788 321.3425 204.2565 323.3057 202 324 C199.1028 324.8914 194 324 194 324 "/>
<path id="15" d="M221 304 C221 304 229.1303 311.4722 237 315 C242.2249 317.3422 247.9365 316.3651 250 317 C250.0933 317.0287 249.8185 318.9168 250 319 C261.3214 324.189 274.1128 330.5476 298 339 C305.8334 341.7718 308.1134 339.1944 315 342 C320.011 344.0415 320.0085 347.5042 325 350 C328.9219 351.961 331.2282 349.9427 335 352 C340.9359 355.2378 340.6881 358.1157 347 362 C353.1515 365.7855 357.3341 364.0286 361 368 C366.6627 374.1346 370.3084 379.2857 371 388 C372.417 405.8543 370.1034 421.6209 366 431 C364.9103 433.4907 357.8219 434.8497 350 436 C341.587 437.2372 340.6896 436.8409 332 436 C325.584 435.3791 324.8481 435.3392 319 433 C312.9048 430.5619 312.4731 429.9804 307 426 C301.7016 422.1466 301.0511 422.0233 297 417 C288.9055 406.9628 288.5743 406.3954 282 395 C273.71 380.6306 273.4937 379.8973 267 365 C265.2456 360.9751 266.6975 359.6376 265 356 C263.5759 352.9484 262.0446 351.5334 260 350 C259.3544 349.5158 257.6757 350.5309 257 350 C252.5758 346.5239 251.8768 343.1628 246 339 C240.6053 335.1788 238.4776 336.8546 233 333 C225.6376 327.8191 226.1271 325.4302 219 320 C216.2315 317.8907 214.349 318.8792 212 317 C210.2508 315.6006 209 312 209 312 "/>
<path id="16" d="M132 200 C132 200 131.9 198.05 132 198 C132.4 197.8 134.1098 197.6563 136 198 C144.8494 199.609 145.1062 199.7766 154 202 C157.0426 202.7607 158.4259 202.8757 160 204 C160.6659 204.4757 160.3988 206.7328 161 207 C165.9524 209.2011 172.1264 209.0632 178 212 C179.6567 212.8283 179.3394 215.7084 181 217 C182.8213 218.4166 184.8103 217.3577 187 219 C193.9341 224.2005 195.9192 225.649 201 232 C202.8056 234.257 201.4394 236.8542 203 239 C204.5438 241.1228 207.5173 240.7086 209 243 C212.0539 247.7197 211.7155 252.0021 214 256 C214.391 256.6843 217 257 217 257 "/>
<path id="17" d="M137 209 C137 209 142.7178 209.1648 147 211 C152.5217 213.3665 152.9567 215.9233 158 218 C160.1797 218.8975 162.0971 217.0486 164 218 C168.4401 220.22 168.9527 223.031 174 226 C176.8063 227.6507 179.053 226.1087 181 228 C193.8637 240.4962 209 260 209 260 "/>
<path id="18" d="M153 195 C153 195 172.7258 198.9614 188 205 C192.2221 206.6692 192.11 209.6061 196 212 C197.7748 213.0922 199.8215 211.9286 201 213 C203.8285 215.5714 203.7392 218.99 207 222 C209.2265 224.0552 212.8605 223.2907 214 225 C216.0809 228.1213 214.6707 232.0826 217 237 C218.7082 240.6061 222.7131 243.4262 223 244 C223 244 221 245 221 245 "/>
</g>
</g>
</svg>
