<?xml version="1.0" encoding="utf-8"?>
<!DOCTYPE svg PUBLIC "-//W3C//DTD SVG 1.1//EN" "http://www.w3.org/Graphics/SVG/1.1/DTD/svg11.dtd">
<svg viewBox="0 0 800 800" preserveAspectRatio="xMinYMin meet" xmlns="http://www.w3.org/2000/svg" version="1.1">
<g fill="none" stroke="black" stroke-linecap="round" stroke-linejoin="round" stroke-width="1.8673">
<g transform="translate(87.52,132.5043) scale(1.6066) translate(-11,-30.9833)">
<path id="0" d="M304 112.9833 C304 112.9833 307.464 104.7914 311 100.9833 C312.4472 99.4248 316.904 98.8599 317 98.9833 C317.4241 99.5286 316.6509 105.3965 318 109.9833 C318.8572 112.8979 320.2419 115.5039 322 115.9833 C331.301 118.52 341.4448 117.1339 351 118.9833 C351.8336 119.1447 352.1962 121.7422 353 121.9833 C355.2175 122.6486 357.4712 121.1011 361 121.9833 C368.7193 123.9132 370.1905 123.822 377 127.9833 C387.3104 134.2842 392.9553 136.4215 397 143.9833 C401.3336 152.0854 400.8334 165.983 400 170.9833 C399.8637 171.801 395.8881 173.6917 392 173.9833 C357.8579 176.544 341.4673 174.6935 320 176.9833 C318.9512 177.0952 317.2735 179.7045 317 181.9833 C315.9796 190.4866 317.9488 192.4955 317 201.9833 C316.5114 206.8696 314.6995 207.0866 314 211.9833 C313.2621 217.1484 313.1555 218.1977 314 222.9833 C314.5013 225.824 315.1961 227.3599 317 228.9833 C319.083 230.8581 323.3612 232.4731 324 231.9833 C329.8355 227.5095 337.6506 213.1329 347 205.9833 C349.3983 204.1494 355.0648 204.3243 358 205.9833 C363.1626 208.9013 366.4565 212.6556 370 218.9833 C372.3576 223.1933 372.588 229.6115 372 230.9833 C371.7136 231.6517 365.4302 233.6508 364 232.9833 C361.7333 231.9255 359.096 224.7231 357 223.9833 C355.1585 223.3334 349.8369 224.3421 347 226.9833 C337.8318 235.5192 337.2625 241.7208 328 250.9833 C325.6305 253.3528 322.9749 251.9238 320 253.9833 C317.2976 255.8543 317.4241 258.4407 315 259.9833 C313.1757 261.1443 309.2773 260.3891 309 260.9833 C307.9443 263.2455 308 274.9833 308 274.9833 "/>
<path id="1" d="M289 277.9833 C289 277.9833 285.7417 269.9105 281 263.9833 C276.2118 257.9981 275.14 257.2814 269 252.9833 C265.8521 250.7798 264.8399 250.3033 261 249.9833 C247.9677 248.8973 245.4078 248.6047 233 249.9833 C229.258 250.3991 227.9555 251.45 225 253.9833 C221.675 256.8333 219.6694 258.4132 219 261.9833 C217.2394 271.3732 217.2744 275.3422 219 285.9833 C220.0046 292.1787 221.674 293.6618 225 298.9833 C226.0921 300.7307 228.3537 300.4036 229 301.9833 C231.9336 309.1543 230.2136 312.9057 234 320.9833 C237.1378 327.6773 238.3633 328.3467 244 333.9833 C254.5381 344.5215 257.9685 343.9483 267 353.9833 C270.0179 357.3366 269.4214 363.4195 271 363.9833 C276.0039 365.7704 283.9441 365.7422 295 363.9833 C304.7263 362.436 304.9696 358.9536 315 356.9833 C332.262 353.5926 334.9346 356.839 351 352.9833 C357.92 351.3225 361.8132 348.595 365 344.9833 C366.5473 343.2297 366.5015 337.8221 366 335.9833 C365.8224 335.3321 363.8507 334.1204 362 333.9833 C351.7383 333.2232 350.3254 334.8545 339 333.9833 C324.5687 332.8732 313.0641 333.4852 310 329.9833 C305.6972 325.0659 309.5973 307.8433 304 293.9833 C300.7867 286.0267 289 277.9833 289 277.9833 "/>
<path id="2" d="M308 274.9833 C308 274.9833 309.9529 275.6535 310 275.9833 C310.4765 279.3187 311.4847 283.8929 310 288.9833 C308.5105 294.0901 303 299.9833 303 299.9833 "/>
<path id="3" d="M253 341.9833 C253 341.9833 249.3143 345.4655 246 345.9833 C235.0655 347.6919 229.1967 349.5054 221 346.9833 C215.0248 345.1448 212.7065 340.9867 207 333.9833 C202.2027 328.0958 202.5102 321.1534 199 319.9833 C185.8829 315.611 174.665 320.196 153 315.9833 C140.0576 313.4668 134.5346 312.7828 127 305.9833 C118.5315 298.341 115.9609 291.6582 112 278.9833 C109.375 270.5834 112.8137 264.2221 112 257.9833 C111.9073 257.2729 109.0441 256.6451 109 255.9833 C108.1377 243.049 107.8375 233.5204 109 212.9833 C109.2749 208.1262 111.5243 207.9307 112 202.9833 C113.9509 182.6944 115.2406 180.8331 114 160.9833 C113.3371 150.377 112.7211 144.5184 108 138.9833 C102.4955 132.5297 95.6999 128.9128 85 126.9833 C68.9187 124.0834 60.9879 126.3181 47 127.9833 C45.3575 128.1789 44.6182 131.7745 43 131.9833 C33.3256 133.2316 24.7711 133.6279 16 131.9833 C14.0103 131.6103 11.4532 128.4761 11 125.9833 C9.9623 120.2762 10.3535 115.7461 12 109.9833 C12.6499 107.7086 15.5691 107.7258 17 104.9833 C21.0718 97.1791 19.2543 94.6176 24 86.9833 C30.1458 77.0966 30.9693 75.6761 40 67.9833 C57.1157 53.4033 58.6767 50.0335 78 40.9833 C95.4301 32.8199 99.4206 32.9697 119 30.9833 C131.9066 29.674 134.9344 31.0485 147 33.9833 C151.3926 35.0518 152.284 36.4363 156 39.9833 C162.8929 46.5629 164.3081 46.8415 169 54.9833 C180.7032 75.2918 183.9066 77.1877 190 98.9833 C196.1578 121.0092 194.2256 123.5897 195 147.9833 C196.2125 186.1766 193.5763 190.6656 194 224.9833 C194.0221 226.7774 194.8056 227.9595 196 228.9833 C197.4773 230.2496 199.7743 231.4291 201 230.9833 C206.9201 228.8306 211.7697 226.6944 218 220.9833 C222.2858 217.0547 223.3611 214.6023 225 208.9833 C226.4006 204.1813 224.127 202.2211 225 196.9833 C225.4729 194.1462 227.3985 193.9909 228 190.9833 C230.7159 177.4037 228.0529 174.3886 232 161.9833 C234.3706 154.5327 236.4393 153.6562 242 146.9833 C246.1308 142.0263 246.5841 140.4907 252 137.9833 C271.6531 128.8847 281.8445 127.9601 296 121.9833 C296.6322 121.7164 296.2434 119.5718 297 118.9833 C299.5219 117.0218 305 114.9833 305 114.9833 "/>
<path id="4" d="M368 212.9833 C368 212.9833 367.3495 210.176 368 208.9833 C369.6707 205.9204 371.4373 203.4783 374 201.9833 C375.5249 201.0938 377.4119 201.4657 380 201.9833 C381.898 202.3629 383.1257 202.8177 384 203.9833 C385.3114 205.7319 384.6994 208.4969 386 209.9833 C387.0699 211.206 390.204 210.922 391 211.9833 C391.9345 213.2293 390.7994 216.1825 392 217.9833 C393.9209 220.8647 399.0052 223.976 399 223.9833 C398.9499 224.0534 391.8052 225.7421 387 224.9833 C383.9033 224.4944 383.5158 222.0381 380 220.9833 C374.1689 219.234 367 218.9833 367 218.9833 "/>
<path id="5" d="M390 224.9833 C390 224.9833 390.7919 229.3996 390 230.9833 C389.1421 232.6991 386.1816 233.3291 385 234.9833 C384.5318 235.6388 385.4675 237.5492 385 237.9833 C381.092 241.6122 377.9638 244.35 371 247.9833 C367.3605 249.8822 365.5489 249.9833 362 249.9833 C360.4227 249.9833 358.0881 248.6004 358 247.9833 C357.3536 243.4584 359 228.9833 359 228.9833 "/>
<path id="6" d="M389 208.9833 C389 208.9833 393.7517 196.0962 394 195.9833 C394.0538 195.9589 400.1229 203.6884 400 203.9833 C399.8082 204.4436 389 207.9833 389 207.9833 "/>
<path id="7" d="M391 138.9833 C391 138.9833 386.64 142.0633 386 143.9833 C385.36 145.9033 386.3461 150.4747 387 150.9833 C387.8118 151.6147 392.7825 151.6486 395 150.9833 C395.8038 150.7422 396.6042 149.3686 397 147.9833 C397.4433 146.4318 397.4331 144.4165 397 143.9833 C396.1338 143.1171 391 141.9833 391 141.9833 "/>
<path id="8" d="M338 124.9833 C338 124.9833 336.8849 127.8299 337 127.9833 C337.2046 128.2561 340.9994 128.984 341 128.9833 C341.0002 128.9831 338.0124 126.9709 338 126.9833 C337.938 127.0453 338 131.9833 338 131.9833 "/>
<path id="9" d="M338 128.9833 C338 128.9833 332.9203 136.7443 333 136.9833 C333.0461 137.1218 338.3436 138.5964 341 137.9833 C343.0252 137.516 344.681 135.9619 346 133.9833 C347.0193 132.4545 347.0332 128.9935 347 128.9833 C346.1565 128.7238 333 129.9833 333 129.9833 "/>
</g>
</g>
</svg>
