<?xml version="1.0" encoding="utf-8"?>
<!DOCTYPE svg PUBLIC "-//W3C//DTD SVG 1.1//EN" "http://www.w3.org/Graphics/SVG/1.1/DTD/svg11.dtd">
<svg viewBox="0 0 800 800" preserveAspectRatio="xMinYMin meet" xmlns="http://www.w3.org/2000/svg" version="1.1">
<g fill="none" stroke="black" stroke-linecap="round" stroke-linejoin="round" stroke-width="2.7842">
<g transform="translate(87.52,171.1173) scale(1.0775) translate(-37.5,-52.8333)">
<path id="0" d="M462.5 161.8333 C462.5 161.8333 451.3829 134.8991 446.5 109.8333 C444.3024 98.5526 444.5685 95.7777 447.5 84.8333 C451.5316 69.7819 455.8356 61.0838 461.5 53.8333 C462.7958 52.1747 468.8484 52.5525 472.5 52.8333 C473.22 52.8887 474.1526 53.7912 474.5 54.8333 C477.1921 62.9096 478.8156 64.4793 479.5 73.8333 C481.7292 104.2986 482.934 107.9726 480.5 136.8333 C479.7002 146.3173 472.5 156.8333 472.5 156.8333 "/>
<path id="1" d="M479.5 144.6667 C479.5 144.6667 501.2705 140.0015 515.5 143.6667 C529.2891 147.2184 534.2023 150.7725 545.5 161.6667 C559.9842 175.6336 557.0345 182.9333 571.5 197.6667 C582.4303 208.7994 590.1164 206.2953 599.5 216.6667 C606.2832 224.1639 606.7436 228.6412 609.5 239.6667 C611.3376 247.017 610.6861 250.1429 609.5 256.6667 C609.1004 258.8645 605.5 261.6667 605.5 261.6667 "/>
<path id="2" d="M605.5 263.6667 C605.5 263.6667 597.7156 264.1264 596.5 264.6667 C596.3284 264.7429 596.0143 267.127 596.5 267.6667 C598.9447 270.383 605.587 274.6055 605.5 274.6667 C604.2344 275.556 582.1106 288.6923 559.5 293.6667 C534.8707 299.0851 528.4214 299.1116 505.5 296.6667 C496.032 295.6567 484.5 285.6667 484.5 285.6667 "/>
<path id="3" d="M486.5 289.6667 C486.5 289.6667 489.6223 294.8394 490.5 299.6667 C491.4818 305.0667 491.792 306.714 490.5 311.6667 C489.1471 316.8526 487.6068 318.995 484.5 322.6667 C483.2959 324.0897 479.5 324.6667 479.5 324.6667 "/>
<path id="4" d="M480.5 328.6667 C480.5 328.6667 523.3563 324.8764 560.5 325.6667 C567.0548 325.8061 570.9332 327.2698 574.5 330.6667 C578.5466 334.5205 578.017 342.3772 581.5 345.6667 C583.6209 347.6697 592.5 347.6667 592.5 347.6667 "/>
<path id="5" d="M596.5 349.6667 C596.5 349.6667 594.8482 344.5775 595.5 340.6667 C596.6683 333.6566 598.0621 328.2671 600.5 325.6667 C601.7848 324.2963 610.1846 324.208 610.5 324.6667 C611.4495 326.0477 612.7558 335.3878 611.5 341.6667 C610.8123 345.1051 605.4455 349.5033 605.5 349.6667 C605.5363 349.7756 611.1699 349.5566 614.5 350.6667 C615.9272 351.1424 617.3552 352.4601 617.5 353.6667 C618.448 361.567 618.982 374.3033 617.5 375.6667 C615.6022 377.4127 603.5936 378.2515 592.5 376.6667 C584.4667 375.5191 577.874 368.7022 575.5 369.6667 C571.6219 371.2421 569.0084 381.371 560.5 389.6667 C549.7658 400.1325 548.3663 400.0892 535.5 408.6667 C527.6436 413.9043 527.0406 413.7522 518.5 417.6667 C515.2994 419.1336 514.8927 419.5639 511.5 419.6667 C483.1502 420.5258 452.5 419.6667 452.5 419.6667 "/>
<path id="6" d="M460.5 150.8333 C460.5 150.8333 453.0888 150.3692 446.5 151.8333 C435.5874 154.2584 434.6943 154.5583 424.5 158.8333 C419.7919 160.8077 418.9798 161.2086 415.5 164.8333 C407.5612 173.103 405.5785 175.7077 400.5 183.8333 C399.6051 185.2652 401.2884 186.9413 400.5 188.8333 C396.8472 197.6 396.1783 198.9456 390.5 207.8333 C384.8403 216.6919 381.8795 221.9772 377.5 224.8333 C375.919 225.8645 372.3994 222.9043 367.5 222.8333 C338.6843 222.4157 333.8333 220.1667 308.5 223.8333 C300.5985 224.977 298.6299 228.1294 291.5 233.8333 C286.9369 237.4838 288.0036 239.7392 283.5 243.8333 C277.4154 249.3648 274.9733 247.9163 269.5 253.8333 C257.2715 267.0533 256.8088 268.2503 246.5 283.8333 C235.5038 300.4556 234.274 302.1747 226.5 318.8333 C224.6646 322.7663 226.8772 324.2886 225.5 328.8333 C222.0611 340.1818 217.5116 340.818 216.5 351.8333 C213.3157 386.5068 216.4996 426.8315 216.5 426.8333 C216.5002 426.8343 221.3742 406.1804 223.5 385.8333 C224.8244 373.1565 224.5106 372.2974 223.5 359.8333 C223.063 354.4435 222.8595 353.5524 220.5 348.8333 C217.1967 342.2267 214.9172 342.6676 211.5 335.8333 C205.1539 323.1411 207.2876 321.1964 200.5 308.8333 C193.652 296.3602 192.7227 292.4421 183.5 284.8333 C175.875 278.5427 171.6119 277.6517 160.5 275.8333 C145.9703 273.4558 143.6215 273.8171 128.5 275.8333 C114.7647 277.6647 113.5699 278.4251 100.5 283.8333 C85.2134 290.1588 84.4631 291.1064 70.5 299.8333 C65.0457 303.2423 64.7782 303.9134 60.5 308.8333 C55.0129 315.1435 53.1579 315.7455 50.5 322.8333 C46.3259 333.9642 48.8598 336.3103 45.5 348.8333 C43.4589 356.441 40.3215 356.5424 39.5 363.8333 C36.5535 389.9837 37.1083 392.804 37.5 419.8333 C37.5913 426.1323 40.4097 432.7932 40.5 432.8333 C40.5206 432.8425 43.0674 427.0371 46.5 423.8333 C49.7578 420.7927 51.0539 420.4026 55.5 418.8333 C58.95 417.6157 62.0406 417.0475 63.5 417.8333 C65.3205 418.8136 68.4792 425.8209 68.5 425.8333 C68.5064 425.8372 67.7865 421.6182 68.5 420.8333 C70.6536 418.4644 73.832 416.0003 78.5 414.8333 C84.1828 413.4126 90.8485 413.6979 92.5 414.8333 C93.628 415.6089 94.4998 425.833 94.5 425.8333 C94.5001 425.8335 93.6136 421.8249 94.5 418.8333 C97.3326 409.2732 97.7459 408.3415 102.5 398.8333 C109.6311 384.5712 111.2766 377.2069 118.5 370.8333 C122.0073 367.7387 130.1886 367.0802 136.5 368.8333 C144.2184 370.9773 146.4296 374.2041 154.5 380.8333 C160.0147 385.3633 161.1907 385.8057 164.5 391.8333 C174.5105 410.0668 172.6526 412.8679 182.5 431.8333 C185.8273 438.2414 191.5 443.8333 191.5 443.8333 "/>
<path id="7" d="M194.5 446.6667 C194.5 446.6667 207.0605 444.0527 216.5 446.6667 C237.0887 452.3682 237.7557 456.5453 259.5 464.6667 C279.1157 471.993 280.1176 476.2431 299.5 477.6667 C364.3371 482.4287 371.9941 482.4585 436.5 477.6667 C454.8468 476.3038 462.0612 470.2641 474.5 464.6667 C475.7056 464.1242 475.6537 460.0898 476.5 459.6667 C478.0046 458.9144 484.5 459.6667 484.5 459.6667 C484.5 459.6667 460.5121 458.6739 460.5 458.6667 C460.4946 458.6634 474.5039 453.6686 474.5 453.6667 C474.4919 453.6626 450.5005 453.6684 450.5 453.6667 C450.4999 453.6665 462.9719 450.4779 472.5 446.6667 C474.1136 446.0212 475.5374 443.8908 475.5 443.6667 C475.4452 443.3379 473.1525 440.7126 471.5 440.6667 C429.4125 439.4976 367.5881 440.6775 367.5 440.6667 C367.4816 440.6644 379.5395 431.9872 390.5 430.6667 C417.6693 427.3933 440.3948 432.4595 450.5 430.6667 C451.1655 430.5486 452.5 419.6667 452.5 419.6667 "/>
<path id="8" d="M540.5 195.8333 C540.5 195.8333 530.8363 190.6197 522.5 188.8333 C518.3166 187.9369 514.6032 188.256 512.5 189.8333 C509.7121 191.9243 506.2151 200.4724 506.5 200.8333 C507.6181 202.2497 517.3576 206.4469 527.5 208.8333 C533.2621 210.1891 539.8627 209.5238 540.5 208.8333 C541.1414 208.1385 539.5 195.8333 539.5 195.8333 "/>
<path id="9" d="M531.5 196.8333 C531.5 196.8333 528.3181 205.5058 528.5 205.8333 C528.6103 206.0318 535.9336 206.3289 536.5 205.8333 C536.9336 205.4539 536.9139 199.4127 536.5 198.8333 C536.2889 198.5377 531.7561 198.526 531.5 198.8333 C531.1311 199.276 531.0012 203.9604 531.5 204.8333 C531.7732 205.3114 535.4987 205.8382 535.5 205.8333 C535.6709 205.2066 535.0425 195.4609 534.5 193.8333 C534.456 193.7014 531.5099 193.7788 531.5 193.8333 C531.3031 194.9161 531.666 202.3314 532.5 204.8333 C532.6472 205.2749 535.4883 205.8567 535.5 205.8333 C535.6636 205.5061 535.0861 199.4127 535.5 198.8333 C535.7111 198.5377 539.5132 198.2695 540.5 198.8333 C541.3458 199.3167 542.5175 202.8231 542.5 202.8333 C541.6735 203.3155 529.2811 206.2239 528.5 205.8333 C528.1876 205.6771 527.7567 196.5766 528.5 195.8333 C529.392 194.9414 537.5098 194.5016 539.5 194.8333 C539.7756 194.8793 540.5312 197.8177 540.5 197.8333 C539.9064 198.1301 531.5 198.8333 531.5 198.8333 "/>
<path id="10" d="M499.5 143.6667 C499.5 143.6667 506.2889 126.8811 508.5 110.6667 C510.6318 95.0336 510.4259 92.4317 508.5 77.6667 C507.6956 71.5 505.2483 66.3395 502.5 64.6667 C499.0217 62.5495 492.4882 63.0314 485.5 63.6667 C483.3209 63.8648 480.5 66.6667 480.5 66.6667 "/>
<path id="11" d="M598.5 264.6667 C598.5 264.6667 583.5024 262.6676 583.5 262.6667 C583.499 262.6663 588.0534 261.0142 590.5 261.6667 C593.8913 262.571 596.507 264.0758 598.5 266.6667 C600.2043 268.8823 600.5 274.6667 600.5 274.6667 "/>
<path id="12" d="M485.5 286.6667 C485.5 286.6667 474.6202 282.0292 470.5 277.6667 C468.5634 275.6162 468.5 268.6667 468.5 268.6667 "/>
<path id="13" d="M466.5 81.8333 C466.5 81.8333 469.5637 82.5069 470.5 83.8333 C474.5078 89.5111 477.2465 91.7827 478.5 98.8333 C480.7898 111.7135 480.6485 115.1369 478.5 128.8333 C476.9062 138.9937 470.5 149.8333 470.5 149.8333 "/>
<path id="14" d="M466.5 83.8333 C466.5 83.8333 461.4258 93.5755 460.5 102.8333 C458.5634 122.1992 460.2506 138.7205 460.5 143.8333 C460.5006 143.8455 462.5 143.8333 462.5 143.8333 "/>
<path id="15" d="M485.5 96.8333 C485.5 96.8333 486.3498 84.7439 487.5 80.8333 C487.6305 80.3896 490.4415 79.7388 490.5 79.8333 C492.4245 82.9422 497.804 91.3188 500.5 101.8333 C502.3658 109.1101 502.3654 111.7862 500.5 118.8333 C498.3732 126.868 491.5 135.8333 491.5 135.8333 "/>
<path id="16" d="M55.5 421.6667 C55.5 421.6667 55.0753 394.998 55.5 368.6667 C55.5722 364.1873 55.39 362.9967 56.5 359.6667 C56.9757 358.2395 59.3416 357.8814 59.5 356.6667 C60.4344 349.503 57.3282 345.1564 59.5 336.6667 C62.3031 325.709 64.0365 321.3731 70.5 313.6667 C74.6278 308.745 77.8141 308.4983 85.5 305.6667 C96.2964 301.6891 97.0848 300.8843 108.5 299.6667 C133.7126 296.9773 160.5 297.6667 160.5 297.6667 "/>
<path id="17" d="M74.5 419.6667 C74.5 419.6667 73.671 409.0401 75.5 399.6667 C77.5256 389.2857 80.2597 389.1962 82.5 378.6667 C85.1536 366.1946 81.8304 364.4733 85.5 352.6667 C92.8871 328.8994 105.5 304.6667 105.5 304.6667 "/>
<path id="18" d="M95.5 417.6667 C95.5 417.6667 91.7403 398.1414 95.5 383.6667 C100.8293 363.1489 103.4821 357.7154 115.5 340.6667 C122.7011 330.4512 128.1521 327.2096 138.5 322.6667 C144.5274 320.0205 150.3948 320.3772 156.5 322.6667 C162.7748 325.0197 166.7215 329.8086 170.5 334.6667 C171.4905 335.9401 169.6613 338.1156 170.5 340.6667 C180.9687 372.5088 185.0978 375.5426 194.5 407.6667 C196.4052 414.1762 193.551 416.3398 194.5 422.6667 C194.8448 424.9655 197.5 427.6667 197.5 427.6667 "/>
<path id="19" d="M41.5 429.6667 L40.5 459.6667 "/>
</g>
</g>
</svg>
