<?xml version="1.0" encoding="utf-8"?>
<!DOCTYPE svg PUBLIC "-//W3C//DTD SVG 1.1//EN" "http://www.w3.org/Graphics/SVG/1.1/DTD/svg11.dtd">
<svg viewBox="0 0 800 800" preserveAspectRatio="xMinYMin meet" xmlns="http://www.w3.org/2000/svg" version="1.1">
<g fill="none" stroke="black" stroke-linecap="round" stroke-linejoin="round" stroke-width="0.95046">
<g transform="translate(87.52,182.2109) scale(3.1564) translate(-135.8,-162)">
<path id="0" d="M171.8 208 C171.8 208 175.9021 207.7348 177.8 209 C182.0702 211.8468 183.3292 213.0679 186.8 218 C192.4672 226.0534 194.2373 227.5431 196.8 236 C198.6279 242.032 197.9518 244.665 196.8 251 C196.2066 254.2635 195.0039 254.6941 192.8 258 C191.0521 260.6219 190.9211 261.8687 188.8 263 C184.791 265.1381 183.2021 265.3998 177.8 266 C170.1736 266.8474 168.2656 267.9017 161.8 266 C153.3376 263.5111 150.8394 261.5091 143.8 256 C140.7306 253.5979 140.2838 252.0805 138.8 248 C136.5193 241.7282 136.0284 240.8534 135.8 234 C135.0552 211.6575 131.4158 203.9283 136.8 188 C140.6082 176.734 149.9595 165.964 159.8 163 C179.1393 157.1749 200.6771 161.7858 219.8 163 C220.8371 163.0658 221.1484 166.0366 222.8 167 C226.129 168.9419 230.1508 168.9006 231.8 170 C232.0998 170.1999 231.5383 172.7906 231.8 173 C232.4325 173.506 236.126 173.0372 236.8 174 C240.5893 179.4133 242.589 184.0806 245.8 193 C246.6663 195.4063 245.8 199 245.8 199 "/>
<path id="1" d="M185.8 265 C185.8 265 184.144 277.2578 186.8 284 C189.3647 290.5104 193.6154 296.4446 198.8 298 C211.0573 301.6772 223.3109 299.658 236.8 299 C237.9183 298.9454 239.8 296 239.8 296 "/>
<path id="2" d="M292.8 180 C292.8 180 278.498 189.899 263.8 196 C252.8757 200.5346 247.0127 197.4101 239.8 202 C234.9915 205.0599 234.839 211.6147 230.8 217 C230.1965 217.8047 227.824 217.7168 227.8 218 C226.6871 231.1326 223.5056 249.778 225.8 276 C226.7042 286.3335 230.5392 290.6958 234.8 298 C235.5688 299.3179 237.5317 300 239.8 300 C255.2244 300 257.9147 299.9372 273.8 298 C277.2169 297.5833 278.3754 297.1394 280.8 295 C285.9745 290.4343 288.7434 288.6089 290.8 283 C293.211 276.4245 292.2849 273.7291 291.8 265 C291.309 256.1628 291.4215 254.5733 288.8 247 C287.4124 242.9915 284.4595 242.5956 282.8 239 C282.0295 237.3306 283.3639 234.9868 282.8 234 C282.3167 233.1542 278.8 232 278.8 232 "/>
<path id="3" d="M302.8 180 C302.8 180 293.3736 179.0325 292.8 178 C291.5853 175.8135 292.3185 163.2038 292.8 162 C292.8421 161.8947 298.1165 162.4304 298.8 163 C299.1334 163.2778 298.2826 166.3963 298.8 167 C299.8534 168.2289 304.8 170 304.8 170 "/>
<path id="4" d="M305.8 169 C305.8 169 319.4086 167.4968 324.8 170 C328.8362 171.8739 332.4032 176.762 333.8 182 C335.5201 188.4505 333.7439 199.4101 332.8 200 C331.1722 201.0174 309.8 197 309.8 197 "/>
<path id="5" d="M288.8 251 C288.8 251 300.5278 248.0797 303.8 245 C305.6086 243.2978 305.8 235 305.8 235 "/>
<path id="6" d="M302.8 227 C302.8 227 304.173 232.8736 305.8 234 C308.1608 235.6344 315.8 236 315.8 236 "/>
<path id="7" d="M311.8 216 C311.8 216 316.0047 216.7275 316.8 218 C319.4576 222.2522 321.8 232 321.8 232 "/>
<path id="8" d="M318.8 239 C318.8 239 321.4622 238.4504 321.8 238 C322.1118 237.5842 321.8 235 321.8 235 "/>
<path id="9" d="M312.8 214 C312.8 214 316.0468 211.2597 316.8 209 C317.6325 206.5024 316.8 202 316.8 202 "/>
<path id="10" d="M312.8 216 L303.8 212 "/>
<path id="11" d="M304.8 227 L296.8 226 "/>
<path id="12" d="M323.8 180 C323.8 180 322.7912 181.9941 322.8 182 C322.9058 182.0705 325.8332 182.4834 326.8 182 C327.646 181.577 328.844 179.0881 328.8 179 C328.7339 178.8679 324.8 178 324.8 178 "/>
<path id="13" d="M332.8 196 C332.8 196 328.3388 195.7845 327.8 196 C327.7138 196.0345 327.8 198 327.8 198 "/>
<path id="14" d="M291.8 284 C291.8 284 300.9078 282.9187 302.8 284 C304.1024 284.7443 305.8 290.0012 305.8 292 C305.8 292.7496 303.9295 294.9018 302.8 295 C295.9026 295.5998 282.8 294 282.8 294 "/>
<path id="15" d="M278.8 298 L298.8 298 "/>
</g>
</g>
</svg>
