<?xml version="1.0" encoding="utf-8"?>
<!DOCTYPE svg PUBLIC "-//W3C//DTD SVG 1.1//EN" "http://www.w3.org/Graphics/SVG/1.1/DTD/svg11.dtd">
<svg viewBox="0 0 800 800" preserveAspectRatio="xMinYMin meet" xmlns="http://www.w3.org/2000/svg" version="1.1">
<g fill="none" stroke="black" stroke-linecap="round" stroke-linejoin="round" stroke-width="1.7665">
<g transform="translate(87.52,180.0752) scale(1.6983) translate(-159,-26)">
<path id="0" d="M462 149 C462 149 478.7093 157.0595 494 160 C502.8779 161.7073 509.3806 161.9396 514 159 C519.759 155.3352 524.1331 148.2623 527 139 C529.6254 130.518 528.5319 127.213 527 117 C525.6839 108.2261 525.7588 103.2732 521 99 C506.7542 86.2079 497.5872 78.1658 478 73 C459.3497 68.0812 450.476 72.7249 430 75 C427.2636 75.304 426.11 76.5383 424 79 C417.7029 86.3466 416.6558 87.1541 412 96 C406.9659 105.5648 408.762 107.1784 404 117 C400.9607 123.2686 398.4896 123.1909 396 129 C394.4786 132.55 396.368 134.048 395 138 C392.1064 146.3594 391.982 147.527 387 155 C380.3821 164.9269 377.4549 164.4876 371 174 C368.6142 177.516 370.3555 179.2856 368 183 C357.9351 198.8716 356.4704 201.2355 345 215 C342.7956 217.6453 341.2858 218.1238 338 219 C334.7414 219.869 333.1031 219.8866 330 219 C327.2294 218.2084 325.2343 217.3658 324 215 C315.1039 197.9491 306 173 306 173 "/>
<path id="1" d="M464 153 C464 153 458.8645 154.3574 458 156 C455.4581 160.8295 455.2086 164.023 454 172 C452.7517 180.239 452.4755 180.8698 453 189 C453.4396 195.8139 457.6682 199.4459 456 203 C449.7461 216.3235 443.7859 224.2141 430 238 C423.446 244.554 420.507 245.6232 411 248 C390.4383 253.1404 366 254 366 254 "/>
<path id="2" d="M365 254 L342 254 "/>
<path id="3" d="M337 253 C337 253 321.9042 263.5753 307 268 C291.7782 272.519 289.942 271.0034 273 272 C256.1745 272.9897 253.3113 273.7037 239 272 C235.3821 271.5693 233.0326 269.9038 231 267 C227.3183 261.7404 225 252 225 252 "/>
<path id="4" d="M308 171 C308 171 296.0004 170.385 292 167 C286.7931 162.5942 282 149 282 149 "/>
<path id="5" d="M307 177 C307 177 307.8502 169.085 307 162 C306.4128 157.1066 306.2389 156.4778 304 152 C297.478 138.9561 295.5501 139.3342 289 126 C281.6612 111.0604 283.589 107.6483 276 95 C272.9488 89.9146 267.6228 90.1528 265 86 C263.2515 83.2315 265.3575 80.4603 264 76 C262.0468 69.5824 262.0598 66.5523 258 63 C248.8581 55.0008 245.0112 53.1503 232 48 C222.3922 44.1969 216.72 46.24 210 44 C209.04 43.68 208 40 208 40 "/>
<path id="6" d="M207 40 C207 40 184.9274 38.8535 175 41 C172.9929 41.434 171.479 44.3025 170 48 C164.8071 60.9822 163.4834 62.6515 161 76 C159.7602 82.6638 160.862 89.9959 162 91 C163.2791 92.1286 171.0783 89.6689 178 91 C182.742 91.9119 183.0344 95.0804 188 96 C208.4178 99.7811 212.2965 102.1259 232 101 C243.9509 100.3171 248.8551 97.5424 258 92 C261.9734 89.5919 265 81 265 81 "/>
<path id="7" d="M225 254 C225 254 215.7091 246.985 211 239 C205.0656 228.9373 205.0699 227.0239 202 215 C199.2256 204.1337 199.1934 203.4093 199 192 C198.2032 144.987 200 97 200 97 "/>
<path id="8" d="M236 182 C236 182 224.4143 185.1385 213 186 C198.3047 187.1091 191.8452 189.7908 183 186 C174.7445 182.4619 164 165 164 165 "/>
<path id="9" d="M231 164 C231 164 227.0828 165.5549 224 165 C203.7494 161.3549 181 155 181 155 "/>
<path id="10" d="M181 156 C181 156 175.8327 151.439 172 149 C171.4303 148.6374 170 149 170 149 C170 149.4603 172.1111 155.9048 172 156 C171.7739 156.1938 163.0294 154.9632 163 155 C162.9905 155.0119 168.0227 160.9547 168 161 C167.9741 161.0518 161.9959 160.5565 160 161 C159.6396 161.0801 158.9567 162.9663 159 163 C160.0817 163.8413 169 168 169 168 "/>
<path id="11" d="M233 48 C233 48 255.884 25.9286 256 26 C256.3236 26.1991 259 64 259 64 "/>
<path id="12" d="M229 48 C229 48 242.8039 31.0915 243 31 C243.0328 30.9847 244 41 244 41 "/>
<path id="13" d="M192 54 C192 54 192.4377 61.646 194 63 C196.6251 65.2751 200.6625 65.6658 207 67 C209.7471 67.5783 212.5574 67.3689 213 67 C213.3074 66.7439 213.5612 62.384 213 62 C208.9853 59.2531 194 54 194 54 "/>
<path id="14" d="M228 139 C228 139 214.639 132.5463 201 128 C190.919 124.6397 190.3526 124.4789 180 123 C173.3253 122.0465 169.2593 121.8497 166 123 C164.8086 123.4205 162.9722 128.9823 163 129 C163.4968 129.3161 175.1054 129.4587 177 130 C177.1137 130.0325 177.1805 132.9248 177 133 C175.1468 133.7722 165.9527 134.5669 165 135 C164.9732 135.0122 165.3749 137.6875 166 138 C169.7505 139.8752 178.996 141.9642 179 142 C179.0027 142.0241 166.9919 146.9896 167 147 C167.0352 147.0453 176.6055 150.2331 186 151 C200.5828 152.1904 202.0225 149.6363 216 151 C221.3069 151.5177 227 155 227 155 "/>
<path id="15" d="M261 217 C261 217 252.8473 215.2226 248 217 C240.1573 219.8757 237.6398 221.9376 231 228 C227.2851 231.3918 225.9289 233.3554 225 238 C223.3412 246.2939 225 258 225 258 "/>
<path id="16" d="M225 258 C225 258 216.5727 258.8328 211 261 C208.9587 261.7938 207.8743 263.2515 207 265 C206.4172 266.1657 206.7582 268.8791 207 269 C208.2694 269.6347 215.572 269.5716 217 270 C217.0832 270.025 217.246 271.8278 217 272 C214.628 273.6604 209.8752 274.6476 207 277 C206.1282 277.7133 205.9508 280.9795 206 281 C206.9906 281.4127 218.1394 281.7131 219 282 C219 282 217.9862 284.9966 218 285 C218.7151 285.1788 226.2154 286.5949 231 285 C236.03 283.3233 236.662 278.7219 242 277 C250.1148 274.3823 262 275 262 275 "/>
</g>
</g>
</svg>
