<?xml version="1.0" encoding="utf-8"?>
<!DOCTYPE svg PUBLIC "-//W3C//DTD SVG 1.1//EN" "http://www.w3.org/Graphics/SVG/1.1/DTD/svg11.dtd">
<svg viewBox="0 0 800 800" preserveAspectRatio="xMinYMin meet" xmlns="http://www.w3.org/2000/svg" version="1.1">
<g fill="none" stroke="black" stroke-linecap="round" stroke-linejoin="round" stroke-width="0.90726">
<g transform="translate(87.52,198.2933) scale(3.3067) translate(-143,-157)">
<path id="0" d="M143 160 C143 160 139.2055 257.8509 147 269 C150.9346 274.6279 185.4256 270.023 222 273 C227.4596 273.4444 227.6477 275.8111 233 276 C268.6633 277.2587 271.9202 274.7321 307 276 C311.3179 276.1561 311.6202 278.4744 316 279 C323.4869 279.8984 331.0606 279.9982 332 279 C333.0606 277.8732 333.1293 270.1876 332 262 C329.203 241.7219 325.8677 241.3116 324 221 C321.9414 198.613 322.9388 197.6384 324 175 C324.4185 166.0723 327 157 327 157 "/>
<path id="1" d="M146 163 C146 163 177.4046 181.9873 207 203 C227.197 217.3399 228.0327 220.9328 246 234 C247.672 235.216 250.6797 235.1281 251 235 C251.0836 234.9666 251 232 251 232 "/>
<path id="2" d="M328 160 C328 160 298.371 190.3015 268 216 C260.516 222.3326 257.8168 220.3719 250 226 C246.042 228.8498 243 234 243 234 "/>
<path id="3" d="M157 158 C157 158 202.9142 166.8658 248 169 C286.3552 170.8156 326 166 326 166 "/>
</g>
</g>
</svg>
