<?xml version="1.0" encoding="utf-8"?>
<!DOCTYPE svg PUBLIC "-//W3C//DTD SVG 1.1//EN" "http://www.w3.org/Graphics/SVG/1.1/DTD/svg11.dtd">
<svg viewBox="0 0 800 800" preserveAspectRatio="xMinYMin meet" xmlns="http://www.w3.org/2000/svg" version="1.1">
<g fill="none" stroke="black" stroke-linecap="round" stroke-linejoin="round" stroke-width="1.8193">
<g transform="translate(87.52,197.1766) scale(1.649) translate(-91,-105)">
<path id="0" d="M98 113 C98 113 100.4535 206.9317 100 294 C99.9724 299.2993 97 305 97 305 "/>
<path id="1" d="M99 110 C99 110 109.0439 111.9398 119 112 C273.7236 112.9349 282.4121 114.2636 430 112 C437.1548 111.8903 437.521 108.3088 445 107 C456.9428 104.91 469.9789 104.8577 470 105 C471.2529 113.436 462.5616 156.5536 460 208 C456.5819 276.6461 464.2067 343.594 458 346 C418.4076 361.3476 278.9426 346.9534 104 346 C97.5702 345.965 91.1372 344.5292 91 344 C90.4011 341.6899 95.2945 331.507 97 319 C99.7354 298.9403 100 278 100 278 "/>
<path id="2" d="M94 343 C94 343 102.8145 329.7726 114 320 C149.5475 288.9427 153.9641 286.1714 189 260 C191.7761 257.9263 193.7491 259.6254 197 258 C200.0703 256.4649 199.8739 254.0674 203 253 C218.4424 247.727 220.7761 245.8904 238 244 C260.4944 241.5311 262.1551 242.8578 285 244 C291.3917 244.3196 292.8958 243.9499 298 247 C331.2929 266.8945 335.0776 268.0041 367 293 C387.0533 308.7021 384.9229 313.9889 404 330 C411.6789 336.4448 414.276 334.2749 423 340 C429.9003 344.5283 436 351 436 351 "/>
<path id="3" d="M101 113 C101 113 109.6279 128.4365 120 142 C128.8864 153.6206 129.0842 154.5824 140 164 C153.9962 176.0752 155.1859 175.9059 171 186 C178.4103 190.73 180.5088 188.9287 187 194 C195.5425 200.6739 194.4099 203.7115 203 211 C210.435 217.3085 213.6875 217.0903 220 222 C220.8234 222.6404 220.1855 224.3212 221 225 C224.9174 228.2645 226.2426 229.5531 232 232 C245.6982 237.8217 246.5408 239.0164 261 242 C277.1142 245.3252 280.8245 247.1624 295 245 C306.339 243.2703 309.5026 240.6856 320 233 C336.2288 221.1182 334.1467 215.8706 351 204 C390.5314 176.1562 396.3696 179.487 435 152 C446.3828 143.9007 446.3034 141.5955 455 130 C462.4626 120.0498 468 108 468 108 "/>
</g>
</g>
</svg>
