<?xml version="1.0" encoding="utf-8"?>
<!DOCTYPE svg PUBLIC "-//W3C//DTD SVG 1.1//EN" "http://www.w3.org/Graphics/SVG/1.1/DTD/svg11.dtd">
<svg viewBox="0 0 800 800" preserveAspectRatio="xMinYMin meet" xmlns="http://www.w3.org/2000/svg" version="1.1">
<g fill="none" stroke="black" stroke-linecap="round" stroke-linejoin="round" stroke-width="0.84005">
<g transform="translate(87.52,214.2976) scale(3.5712) translate(-180,-201)">
<path id="0" d="M180 303 C180 303 179.9947 301.0001 180 301 C198.2456 300.6199 255.8208 299.1088 324 300 C328.2802 300.0559 328.549 302.3861 333 303 C342.5216 304.3133 353 304 353 304 "/>
<path id="1" d="M181 302 L182 225 "/>
<path id="2" d="M355 304 C355 304 353.0173 302.7451 353 302 C352.2888 271.4173 353 218 353 218 "/>
<path id="3" d="M183 228 L185 205 "/>
<path id="4" d="M188 204 L352 201 "/>
<path id="5" d="M355 221 L354 203 "/>
<path id="6" d="M189 209 C189 209 195.9884 210.5304 201 214 C214.6885 223.4767 213.9221 226.0027 228 236 C248.2049 250.3484 270 263 270 263 "/>
<path id="7" d="M354 204 C354 204 351.0451 203.2439 350 204 C332.3383 216.7765 327.6783 220.3233 307 238 C296.8876 246.6445 297.939 248.9246 288 257 C282.6066 261.3821 275 264 275 264 "/>
<path id="8" d="M272 263 L277 266 "/>
<path id="9" d="M182 304 C182 304 193.7078 296.3025 206 291 C218.8213 285.4692 220.8953 288.1585 233 282 C248.3999 274.165 263 262 263 262 "/>
<path id="10" d="M353 305 C353 305 348.1849 304.1791 345 302 C339.3472 298.1323 339.9109 296.2221 334 292 C322.6901 283.9215 321.1099 285.3324 310 277 C299.4417 269.0812 290 259 290 259 "/>
</g>
</g>
</svg>
