<?xml version="1.0" encoding="utf-8"?>
<!DOCTYPE svg PUBLIC "-//W3C//DTD SVG 1.1//EN" "http://www.w3.org/Graphics/SVG/1.1/DTD/svg11.dtd">
<svg viewBox="0 0 800 800" preserveAspectRatio="xMinYMin meet" xmlns="http://www.w3.org/2000/svg" version="1.1">
<g fill="none" stroke="black" stroke-linecap="round" stroke-linejoin="round" stroke-width="1.0993">
<g transform="translate(87.52,195.3188) scale(2.7291) translate(-147,-139)">
<path id="0" d="M147 139 C147 139 153.567 140.9423 160 141 C263.7742 141.9307 370 141 370 141 "/>
<path id="1" d="M148 141 L148 282 "/>
<path id="2" d="M149 284 C149 284 163.0498 286.7498 177 287 C273.9755 288.7395 372 288 372 288 "/>
<path id="3" d="M372 288 C372 288 371.0397 279.1626 372 271 C372.9869 262.6115 375.7223 262.3312 376 254 C377.6695 203.9156 377.9766 194.8803 376 151 C375.8422 147.4959 371 143 371 143 "/>
<path id="4" d="M148 142 C148 142 154.7147 143.3718 158 146 C160.8373 148.2698 159.9192 151.3593 163 154 C169.3843 159.4722 170.7192 159.6008 179 164 C218.5461 185.0089 259 205 259 205 "/>
<path id="5" d="M258 206 C258 206 264.7183 197.6811 272 193 C277.6067 189.3957 279.5752 191.3815 286 188 C326.4394 166.7161 367 143 367 143 "/>
<path id="6" d="M371 289 C371 289 344.9525 264.7133 323 238 C303.8832 214.7374 288 188 288 188 "/>
<path id="7" d="M244 197 C244 197 235.7127 200.2014 230 205 C223.9565 210.0765 224.9287 212.6359 219 218 C214.9814 221.6359 212.4713 220.143 209 224 C195.7166 238.7594 197.2219 243.2204 183 258 C172.6246 268.7823 170.2165 268.9829 158 277 C155.2897 278.7786 151 279 151 279 "/>
</g>
</g>
</svg>
