<?xml version="1.0" encoding="utf-8"?>
<!DOCTYPE svg PUBLIC "-//W3C//DTD SVG 1.1//EN" "http://www.w3.org/Graphics/SVG/1.1/DTD/svg11.dtd">
<svg viewBox="0 0 800 800" preserveAspectRatio="xMinYMin meet" xmlns="http://www.w3.org/2000/svg" version="1.1">
<g fill="none" stroke="black" stroke-linecap="round" stroke-linejoin="round" stroke-width="1.3105">
<g transform="translate(87.52,173.3662) scale(2.2892) translate(-193,-117.6333)">
<path id="0" d="M197 131.6333 C197 131.6333 193.4629 293.1908 197 315.6333 C197.0879 316.1908 215.4798 316.3121 226 315.6333 C226.7723 315.5835 227.1622 313.7264 228 313.6333 C240.9026 312.1997 245.0219 311.7823 262 311.6333 C358.8252 310.784 416.6703 317.4456 456 311.6333 C458.7234 311.2309 461.6204 296.5036 465 281.6333 C466.5004 275.0314 465.9308 274.6198 466 267.6333 C466.4296 224.2481 467.7755 223.8374 466 180.6333 C464.7909 151.2115 462.9981 122.3891 460 121.6333 C426.6423 113.2238 340.7159 118.8513 228 120.6333 C217.7582 120.7953 217.3526 124.1544 207 125.6333 C200.3253 126.5869 193.6868 125.2327 193 125.6333 C192.8978 125.693 195 132.6333 195 132.6333 "/>
<path id="1" d="M200 128.6333 C200 128.6333 208.0333 135.8051 217 140.6333 C240.0783 153.0601 244.5466 149.5716 265 163.6333 C282.3083 175.5328 280.1435 180.8839 297 195.6333 C315.8582 212.1343 331.6241 223.9454 337 226.6333 C337.1937 226.7302 339.4552 221.8146 343 218.6333 C358.3931 204.819 365.4946 201.1837 376 191.6333 C376.4979 191.1807 375.6474 188.986 376 188.6333 C376.8228 187.8105 379.5241 188.1092 381 186.6333 C384.5843 183.049 383.7119 179.9893 388 176.6333 C405.1651 163.1998 409.3827 163.9442 427 150.6333 C430.6183 147.8995 429.9189 145.0034 433 142.6333 C435.1646 140.9683 438.1005 142.4378 440 140.6333 C446.2213 134.7231 446.4346 130.1988 453 123.6333 C455.1885 121.4449 457.9501 122.1707 460 120.6333 C460.7202 120.0932 461 117.6333 461 117.6333 "/>
</g>
</g>
</svg>
