<?xml version="1.0" encoding="utf-8"?>
<!DOCTYPE svg PUBLIC "-//W3C//DTD SVG 1.1//EN" "http://www.w3.org/Graphics/SVG/1.1/DTD/svg11.dtd">
<svg viewBox="0 0 800 800" preserveAspectRatio="xMinYMin meet" xmlns="http://www.w3.org/2000/svg" version="1.1">
<g fill="none" stroke="black" stroke-linecap="round" stroke-linejoin="round" stroke-width="1.9057">
<g transform="translate(87.52,246.5149) scale(1.5742) translate(-110,-99)">
<path id="0" d="M110 99 L114 293 "/>
<path id="1" d="M111 101 L494 103 "/>
<path id="2" d="M115 294 C115 294 290.1743 294.3152 449 292 C453.3002 291.9373 453.6632 289.2366 458 289 C479.7701 287.8125 504 289 504 289 "/>
<path id="3" d="M505 290 C505 290 506.5667 223.8639 507 158 C507.0656 148.0249 507.3894 147.031 506 138 C505.5545 135.1045 503.155 134.7133 503 132 C502.2729 119.2752 504 103 504 103 "/>
<path id="4" d="M495 104 L503 104 "/>
<path id="5" d="M111 102 C111 102 162.6664 145.0814 216 181 C234.6998 193.5937 236.6745 192.4144 258 201 C274.7992 207.7633 276.1737 210.0831 293 212 C313.3161 214.3145 315.3096 212.2247 337 210 C353.985 208.258 354.3831 207.8347 371 204 C380.1032 201.8993 381.6611 202.2613 389 198 C395.821 194.0394 394.9011 190.5847 402 186 C418.172 175.5556 421.3192 177.0805 437 167 C441.0329 164.4074 439.948 161.8364 444 159 C463.9061 145.0658 470.0191 146.9315 487 132 C496.1858 123.9229 502 108 502 108 "/>
<path id="6" d="M115 294 C115 294 144.0633 272.6892 167 254 C168.426 252.8381 167.5871 251.0258 169 250 C199.705 227.7073 209.5562 223.6272 240 201 C242.1141 199.4287 243 195 243 195 "/>
<path id="7" d="M505 289 C505 289 485.5602 258.5602 463 236 C450.4138 223.4138 445.3448 226.3424 431 215 C424.7199 210.0343 426.1596 207.1661 420 202 C411.3095 194.7112 400 189 400 189 "/>
</g>
</g>
</svg>
