<?xml version="1.0" encoding="utf-8"?>
<!DOCTYPE svg PUBLIC "-//W3C//DTD SVG 1.1//EN" "http://www.w3.org/Graphics/SVG/1.1/DTD/svg11.dtd">
<svg viewBox="0 0 800 800" preserveAspectRatio="xMinYMin meet" xmlns="http://www.w3.org/2000/svg" version="1.1">
<g fill="none" stroke="black" stroke-linecap="round" stroke-linejoin="round" stroke-width="1.2481">
<g transform="translate(87.52,222.1268) scale(2.4037) translate(-142,-182.6)">
<path id="0" d="M143 205.6 C143 205.6 142.284 279.356 143 321.6 C143.0126 322.3407 144.174 323.5286 145 323.6 C175.1946 326.2094 184.5136 327.4988 224 328.6 C309.8467 330.9941 311.8588 330.1246 396 330.6 C398.443 330.6138 400.7435 330.1557 401 329.6 C401.9663 327.5063 402.0406 323.5676 402 317.6 C401.543 250.4195 400 182.6 400 182.6 "/>
<path id="1" d="M143 201.6 C143 201.6 214.9034 202.7504 285 199.6 C302.8927 198.7958 302.9972 195.1387 321 193.6 C361.106 190.1721 402 189.6 402 189.6 "/>
<path id="2" d="M142 216.6 C142 216.6 153.4799 225.8584 166 232.6 C192.1032 246.6556 195.0555 243.4741 220 258.6 C241.0229 271.3479 243.561 277.7486 260 289.6 C260.791 290.1703 262.1036 290.1602 263 289.6 C275.4 281.85 277.0235 278.7034 292 269.6 C327.8537 247.8066 330.0621 249.7649 365 227.6 C375.7939 220.7523 376.4709 219.8817 385 210.6 C392.9232 201.9777 399 190.6 399 190.6 "/>
</g>
</g>
</svg>
