<?xml version="1.0" encoding="utf-8"?>
<!DOCTYPE svg PUBLIC "-//W3C//DTD SVG 1.1//EN" "http://www.w3.org/Graphics/SVG/1.1/DTD/svg11.dtd">
<svg viewBox="0 0 800 800" preserveAspectRatio="xMinYMin meet" xmlns="http://www.w3.org/2000/svg" version="1.1">
<g fill="none" stroke="black" stroke-linecap="round" stroke-linejoin="round" stroke-width="1.4497">
<g transform="translate(112.3528,87.52) scale(2.0694) translate(-132.5,-80.6667)">
<path id="0" d="M141.5 203.6667 C141.5 203.6667 155.0604 206.4309 168.5 206.6667 C240.0383 207.9217 241.2118 205.0184 312.5 206.6667 C326.9024 206.9997 327.1202 210.182 341.5 210.6667 C371.097 211.6643 401.5 209.6667 401.5 209.6667 C401.5 209.6667 399.5001 209.6626 399.5 209.6667 C399.3793 216.7897 398.5796 239.5406 400.5 268.6667 C401.5511 284.6088 402.1974 285.2547 405.5 300.6667 C406.5842 305.7263 409.163 305.8811 409.5 310.6667 C411.5018 339.0918 414.67 358.7939 410.5 371.6667 C409.2784 375.4376 397.8552 380.8994 386.5 381.6667 C329.438 385.5222 323.5734 383.9569 262.5 381.6667 C244.6582 380.9976 244.3939 376.6302 226.5 375.6667 C180.166 373.1718 134.5406 374.9514 132.5 374.6667 C132.3599 374.6471 140.2119 368.3486 140.5 363.6667 C143.4834 315.1863 138.4034 299.5977 140.5 244.6667 C140.7148 239.0393 144.999 238.3029 145.5 232.6667 C146.825 217.7608 144.4257 199.6485 144.5 199.6667 C144.9309 199.7718 164.7233 222.1415 186.5 242.6667 C208.0735 263.0003 207.8802 264.1144 231.5 281.6667 C261.8976 304.2557 262.4563 304.9171 295.5 323.6667 C350.9836 355.149 409.5 382.6667 409.5 382.6667 "/>
<path id="1" d="M398.5 211.6667 C398.5 211.6667 363.9616 226.7878 330.5 243.6667 C307.5893 255.2234 306.9749 254.9327 285.5 268.6667 C264.3076 282.22 265.6234 284.7978 244.5 298.6667 C216.3179 317.17 214.8611 315.4865 186.5 333.6667 C176.0578 340.3604 175.6614 340.4214 166.5 348.6667 C150.912 362.6959 136.5 378.6667 136.5 378.6667 "/>
<path id="2" d="M140.5 202.6667 C140.5 202.6667 139.366 192.5624 141.5 184.6667 C144.0033 175.4044 144.272 172.9651 150.5 165.6667 C174.5279 137.5089 176.8656 135.8379 205.5 109.6667 C222.8952 93.7678 235.8387 82.0951 243.5 80.6667 C246.6142 80.0861 255.453 88.8658 264.5 98.6667 C272.9327 107.8021 271.1216 110.2409 279.5 119.6667 C290.7797 132.3563 291.5569 132.2767 304.5 143.6667 C316.4553 154.1873 316.5138 154.5125 329.5 163.6667 C346.8422 175.8915 348.8979 173.8593 365.5 186.6667 C383.3907 200.4681 399.5 217.6667 399.5 217.6667 "/>
<path id="3" d="M200.5 161.6667 C200.5 161.6667 201.5074 178.5485 200.5 194.6667 C200.0364 202.0847 197.5 209.6667 197.5 209.6667 "/>
<path id="4" d="M197.5 163.6667 C197.5 163.6667 204.2332 160.8717 209.5 161.6667 C228.639 164.5556 231.0253 164.7563 250.5 171.6667 C276.8 180.9989 277.0051 182.4291 302.5 194.6667 C314.3254 200.3428 314.8827 203.3534 325.5 207.6667 C328.8788 209.0393 332.7119 208.2031 334.5 207.6667 C334.8775 207.5534 335.5 204.6667 335.5 204.6667 "/>
</g>
</g>
</svg>
