<?xml version="1.0" encoding="utf-8"?>
<!DOCTYPE svg PUBLIC "-//W3C//DTD SVG 1.1//EN" "http://www.w3.org/Graphics/SVG/1.1/DTD/svg11.dtd">
<svg viewBox="0 0 800 800" preserveAspectRatio="xMinYMin meet" xmlns="http://www.w3.org/2000/svg" version="1.1">
<g fill="none" stroke="black" stroke-linecap="round" stroke-linejoin="round" stroke-width="0.54724">
<g transform="translate(87.52,221.8316) scale(5.4821) translate(-206,-253.4167)">
<path id="0" d="M206 253.4167 C206 253.4167 315.226 253.341 318 253.4167 C318.0475 253.418 316 256.4167 316 256.4167 "/>
<path id="1" d="M206 256.4167 C206 256.4167 207.9909 257.138 208 257.4167 C208.5145 273.108 204.7771 315.6455 208 317.4167 C218.9032 323.4085 308.3742 324.3937 319 318.4167 C322.56 316.4142 320 254.4167 320 254.4167 "/>
<path id="2" d="M207 256.4167 C207 256.4167 211.1021 256.1514 213 257.4167 C217.2702 260.2635 217.1085 263.5492 222 266.4167 C230.4598 271.3758 232.9552 269.5928 242 274.4167 C247.3175 277.2527 246.74 279.7866 252 282.4167 C259.8901 286.3617 262.9434 285.0564 270 288.4167 C271.6594 289.2069 273 292.4167 273 292.4167 "/>
<path id="3" d="M268 290.4167 C268 290.4167 276.91 281.1434 287 274.4167 C301.965 264.44 319 256.4167 319 256.4167 "/>
</g>
</g>
</svg>
