<?xml version="1.0" encoding="utf-8"?>
<!DOCTYPE svg PUBLIC "-//W3C//DTD SVG 1.1//EN" "http://www.w3.org/Graphics/SVG/1.1/DTD/svg11.dtd">
<svg viewBox="0 0 800 800" preserveAspectRatio="xMinYMin meet" xmlns="http://www.w3.org/2000/svg" version="1.1">
<g fill="none" stroke="black" stroke-linecap="round" stroke-linejoin="round" stroke-width="0.79205">
<g transform="translate(87.52,261.7513) scale(3.7876) translate(-171,-160.4167)">
<path id="0" d="M174 169.4167 C174 169.4167 171.2601 194.1801 172 213.4167 C172.1373 216.9877 175.2408 217.6208 176 221.4167 C177.0352 226.5929 175.9089 233.411 176 233.4167 C195.4121 234.6299 317.7086 236.2484 336 231.4167 C337.09 231.1287 337.1522 208.993 335 191.4167 C334.4844 187.2059 330.1457 185.768 330 182.4167 C329.7814 177.3897 333.7328 173.7597 334 168.4167 C334.1101 166.2155 332.2403 162.7588 331 162.4167 C323.9257 160.4651 307.7706 160.4167 305 160.4167 C305 160.4167 305.1116 162.3761 305 162.4167 C303.2007 163.071 299.5014 163.8476 294 164.4167 C285.1131 165.336 284.9906 165.3157 276 165.4167 C240.5591 165.8149 240.1913 164.3054 205 165.4167 C193.0574 165.7938 191.618 165.606 181 168.4167 C176.0374 169.7303 171 174.4167 171 174.4167 "/>
<path id="1" d="M173 173.4167 C173 173.4167 181.1131 172.4732 185 174.4167 C189.6643 176.7488 189.9242 181.9663 195 184.4167 C202.1651 187.8757 205.1461 185.4654 214 188.4167 C221.1121 190.7874 221.3772 193.401 228 195.4167 C231.6952 196.5413 234.469 194.7264 237 195.4167 C237.7925 195.6328 238.0345 198.0718 239 198.4167 C242.9969 199.8441 248.004 199.2644 251 200.4167 C251.5054 200.611 251.3412 203.0214 252 203.4167 C254.5412 204.9414 261 206.4167 261 206.4167 "/>
<path id="2" d="M261 206.4167 C261 206.4167 264.343 206.6165 266 205.4167 C277.1396 197.3501 278.1281 191.8923 290 185.4167 C297.5436 181.302 303.1329 184.7231 310 181.4167 C313.5496 179.7076 313.176 174.966 317 172.4167 C322.0986 169.0176 326.2662 170.0795 331 167.4167 C332.1967 166.7436 333 163.4167 333 163.4167 "/>
</g>
</g>
</svg>
