<?xml version="1.0" encoding="utf-8"?>
<!DOCTYPE svg PUBLIC "-//W3C//DTD SVG 1.1//EN" "http://www.w3.org/Graphics/SVG/1.1/DTD/svg11.dtd">
<svg viewBox="0 0 800 800" preserveAspectRatio="xMinYMin meet" xmlns="http://www.w3.org/2000/svg" version="1.1">
<g fill="none" stroke="black" stroke-linecap="round" stroke-linejoin="round" stroke-width="1.3201">
<g transform="translate(218.1935,87.52) scale(2.2726) translate(-190,-90)">
<path id="0" d="M204 351 C204 351 223.4549 353.357 242 352 C263.7651 350.4074 264.2924 346.8876 286 345 C298.1233 343.9458 299.41 346.9397 311 346 C316.7322 345.5352 322.6876 341.6876 323 342 C323.7811 342.7811 325.5611 359.7653 325 360 C319.0009 362.5087 295.9197 363.8526 268 365 C260.2312 365.3193 259.9307 363.1166 252 363 C226.2797 362.6218 204.4887 366.3764 200 364 C198.7945 363.3618 201.4772 349.8387 201 336 C200.4863 321.1034 198.1273 320.8992 198 306 C197.6311 262.8378 198.117 262.3091 200 219 C200.6082 205.0105 200.5855 204.6822 203 191 C205.0361 179.4618 209 168 209 168 "/>
<path id="1" d="M324 342 C324 342 322.8486 303.9069 317 267 C308.4328 212.9381 295 159 295 159 "/>
<path id="2" d="M210 171 C210 171 205.0028 172.9981 205 173 C204.9991 173.0006 206.95 172.9 207 173 C207.2 173.4 207.608 175.48 207 177 C204.9631 182.0921 202.167 183.0984 201 188 C200.0834 191.8499 202.0904 197.5933 202 198 C201.9969 198.0139 199.2874 196.8276 199 197 C198.4731 197.3161 197.8301 200.3359 197 201 C196.5211 201.3831 194.075 201.15 194 201 C193.7 200.4 194.3 195.6 194 195 C193.925 194.85 191.4158 195.3118 191 195 C190.5496 194.6622 190.1621 193.4587 190 192 C189.6874 189.1867 189.7901 186.2624 190 186 C190.077 185.9038 193.9448 187.0828 194 187 C194.2317 186.6524 193.4596 181.0807 194 180 C194.2316 179.5368 197.3236 178.8647 198 179 C198.2492 179.0498 198.9984 181.0065 199 181 C199.0135 180.9461 199.5199 168.5858 201 167 C202.1381 165.7807 213 166 213 166 C213 166 210.1657 166.5828 209 166 C207.2515 165.1257 205.6381 163.7549 205 162 C204.181 159.7479 204.6832 155.7392 205 155 C205.0582 154.8642 208 155 208 155 C208 155.0322 206.3174 157.506 205 158 C203.4032 158.5988 200.6179 158.6179 200 158 C198.3935 156.3935 196.2873 153.0222 196 149 C195.4166 140.8318 196.1735 133.1964 198 130 C198.6995 128.7759 206.4383 127.6096 208 128 C208.5343 128.1336 209.9996 133.003 210 133 C210.0017 132.9881 209.1137 116.9542 210 114 C210.1306 113.5646 214.9227 112.3716 216 113 C218.1215 114.2375 221.9827 121.0104 222 121 C222.1784 120.893 223.486 110.0527 226 107 C227.6332 105.0168 234.7485 103.3375 236 104 C237.9866 105.0517 242.9769 115.9802 243 116 C243.0069 116.0059 242.0121 112.0656 243 110 C246.6652 102.3365 249.9359 97.3181 254 93 C254.6992 92.2571 257.4791 92.324 259 93 C260.7575 93.7811 262.419 95.1409 263 97 C264.3625 101.36 263.9991 109.0002 264 109 C264.0041 108.9992 265.4462 101.7461 268 96 C269.1713 93.3646 270.0629 92.0566 272 91 C274.1727 89.8149 277.8357 89.3649 279 90 C280.4103 90.7692 282.5937 93.885 283 97 C283.8572 103.5721 281.9981 112.9986 282 113 C282.0008 113.0006 285.2215 102.5689 287 100 C287.2992 99.5678 290.2195 99.3756 291 100 C293.4195 101.9356 295.7874 104.189 297 108 C298.7521 113.5067 298.4563 119.7186 298 122 C297.9405 122.2976 293.994 122.9901 294 123 C294.035 123.0583 298.3875 124.625 301 127 C303.3222 129.1111 304.2084 130.2294 305 133 C305.8866 136.1031 305.5907 137.751 305 141 C304.7516 142.3661 303.4664 143.9417 303 144 C301.8709 144.1411 296.9979 141.9767 297 142 C297.0114 142.1249 303.3932 150.5499 304 155 C304.3677 157.6962 301.0099 163.5339 300 164 C299.0568 164.4353 293.7529 163.163 291 161 C288.2644 158.8506 286.0226 152.9915 286 153 C285.9194 153.0302 284.5988 161.8682 283 164 C282.3363 164.8849 277.0739 164.8769 277 165 C276.9647 165.0589 279.876 167.6365 280 169 C280.1978 171.1758 277.8143 174.1425 278 176 C278.0901 176.9014 280.609 177.6966 281 179 C281.7018 181.3394 281.7018 183.6606 281 186 C280.609 187.3034 279.092 188.7573 278 189 C276.2792 189.3824 272.0016 187.9731 272 188 C271.9567 188.7358 277.0471 205.7801 277 206 C276.9936 206.0297 269.6164 203.1301 269 202 C268.5645 201.2016 271.3087 195.6945 271 195 C270.7643 194.4696 265.7748 194.1623 265 193 C263.5364 190.8046 263.3109 187.6637 263 183 C262.8486 180.7295 263.2811 178.7189 264 178 C264.7189 177.2811 268.9582 177.1045 269 177 C269.039 176.9025 266.4164 174.8043 266 173 C265.2014 169.5393 265.203 165.7535 266 164 C266.3784 163.1675 270.9196 162.3215 271 162 C271.1298 161.4807 268.4245 158.8298 268 156 C267.0787 149.8577 267.0976 148.3165 268 142 C268.4788 138.6484 271 135 271 135 "/>
<path id="3" d="M270 152 C270 152 268.9879 157.3083 267 161 C265.8476 163.1401 264.7485 164.1257 263 165 C261.8343 165.5828 259.0553 164.8248 259 165 C258.1401 167.7231 258.0825 181.4291 257 184 C256.8622 184.3273 252.5893 184.596 251 184 C250.1722 183.6896 249.0059 180.9837 249 181 C248.9616 181.1055 247.533 194.5155 247 195 C246.8059 195.1765 239.0946 193.105 238 191 C235.0894 185.4027 234.0077 170.0153 234 170 C233.9973 169.9947 233.8551 177.0212 232 179 C228.7268 182.4914 221.0602 186 219 186 C218.2076 186 215.1992 182.3978 214 179 C212.5835 174.9865 213 169 213 169 "/>
<path id="4" d="M307 195 C307 195 316.7814 169.1756 322 162 C322.7779 160.9304 328.9999 160.7058 331 162 C334.3597 164.1739 336.3891 167.343 339 173 C341.9937 179.4863 341.7395 180.437 343 188 C347.1972 213.1833 348.083 213.759 350 239 C351.0388 252.6776 350.9777 254.4744 349 267 C348.2422 271.7995 346.6002 274.7713 344 277 C341.9472 278.7595 338.7502 279 335 279 C332.9165 279 331.5228 278.5228 330 277 C324.5614 271.5614 319 263 319 263 "/>
<path id="5" d="M313 207 C313 207 316.2203 211.5169 317 216 C320.0313 233.4299 317.1285 237.8368 321 253 C322.2262 257.8027 325.3232 261.074 329 263 C332.7562 264.9675 341.9438 264.2287 342 264 C343.4918 257.9263 344.4832 233.4396 343 206 C342.5835 198.2954 341.1597 197.4684 338 190 C335.813 184.8308 334.3689 182.1536 332 180 C331.2151 179.2865 327.6992 179.2571 327 180 C322.9359 184.3181 320.2858 188.7856 316 197 C314.7708 199.3559 315 203 315 203 "/>
<path id="6" d="M224 188 C224 188 220.831 241.5355 219 295 C218.3337 314.4559 218.1776 315.9071 219 334 C219.1074 336.3618 221 339 221 339 "/>
<path id="7" d="M244 195 C244 195 248.3311 239.0516 250 283 C251.3241 317.8687 250 353 250 353 "/>
<path id="8" d="M221 338 L221 352 "/>
<path id="9" d="M273 203 C273 203 276.7949 212.5101 278 222 C280.7238 243.4502 280.4461 244.0272 281 266 C281.9426 303.3894 280.1488 307.376 281 341 C281.046 342.816 283 345 283 345 "/>
<path id="10" d="M286 166 C286 166 290.9131 195.6746 294 225 C294.8769 233.3308 292.9026 233.7695 294 242 C297.8302 270.7262 300.1645 270.9598 304 300 C307.1377 323.7568 308 348 308 348 "/>
<path id="11" d="M233 252 C233 252 230.1534 250.8849 230 251 C229.7272 251.2046 229 253.1053 229 255 C229 260.6842 228.9847 265.1144 230 267 C230.3426 267.6362 234.6405 268.4532 236 268 C237.0396 267.6535 238.6148 265.7978 239 264 C239.8298 260.1278 240.0451 256.9263 239 254 C238.3953 252.3069 234 250 234 250 "/>
<path id="12" d="M234 252 C234 252 231.6994 237.8416 232 237 C232.0316 236.9116 238.4438 237.2353 239 238 C239.9795 239.3468 240 248 240 248 "/>
<path id="13" d="M233 243 C233 243 228.0072 240.9855 228 241 C227.8625 241.275 229 251 229 251 "/>
<path id="14" d="M233 215 C233 215 230.672 221.9066 231 223 C231.1551 223.5172 234.7856 225 236 225 C236.4858 225 237.8485 223.8335 238 223 C238.577 219.8264 238.2382 215.0721 238 214 C237.9882 213.9471 236 214 236 214 "/>
<path id="15" d="M234 204 L233 195 "/>
<path id="16" d="M236 274 C236 274 233.8276 280.2761 234 282 C234.0508 282.5083 236.764 283.0952 237 284 C238.8476 291.0826 240 305 240 305 "/>
<path id="17" d="M233 290 C233 290 230.8423 293.6345 231 296 C231.2473 299.7095 234 305 234 305 "/>
<path id="18" d="M241 248 C241 248 241.225 253.325 241 254 C240.975 254.075 239 254 239 254 "/>
<path id="19" d="M273 239 C273 239 271.0654 235.2906 270 235 C267.9876 234.4512 262.484 235.1771 262 236 C260.5429 238.4771 259.2401 246.1744 260 252 C260.3694 254.8323 262.8968 257.6616 265 259 C266.3347 259.8494 270.5883 259.5764 271 259 C272.6194 256.7328 275 245 275 245 "/>
<path id="20" d="M270 242 L270 250 "/>
<path id="21" d="M268 241 L268 240 "/>
<path id="22" d="M268 266 C268 266 266.5964 275.3212 268 280 C268.782 282.6068 272.1006 282.9134 274 286 C275.613 288.6212 275.7022 289.5756 276 293 C276.6641 300.6374 276 309 276 309 "/>
</g>
</g>
</svg>
