<?xml version="1.0" encoding="utf-8"?>
<!DOCTYPE svg PUBLIC "-//W3C//DTD SVG 1.1//EN" "http://www.w3.org/Graphics/SVG/1.1/DTD/svg11.dtd">
<svg viewBox="0 0 800 800" preserveAspectRatio="xMinYMin meet" xmlns="http://www.w3.org/2000/svg" version="1.1">
<g fill="none" stroke="black" stroke-linecap="round" stroke-linejoin="round" stroke-width="0.67684">
<g transform="translate(87.52,160.6536) scale(4.4323) translate(-178.5,-160.6667)">
<path id="0" d="M178.5 175.6667 C178.5 175.6667 181.1073 175.274 181.5 175.6667 C182.6781 176.8448 183.5257 178.5666 184.5 181.6667 C188.9225 195.7383 190.6622 196.4235 192.5 210.6667 C194.5194 226.3173 193.6331 228.5588 192.5 243.6667 C192.2519 246.9744 189.9567 247.3179 189.5 250.6667 C188.5755 257.4465 189.0213 265.547 189.5 265.6667 C198.7863 267.9883 240.7179 268.6667 261.5 268.6667 C262.0773 268.6667 262.6314 265.9148 263.5 265.6667 C267.2348 264.5996 275.4254 265.0941 275.5 264.6667 C276.9907 256.1291 274.1066 233.3507 274.5 202.6667 C274.6017 194.7339 276.5 186.6667 276.5 186.6667 "/>
<path id="1" d="M181.5 175.6667 C181.5 175.6667 192.6651 180.0218 203.5 180.6667 C233.6272 182.46 236.1229 181.908 265.5 180.6667 C269.8245 180.484 274.5 177.6667 274.5 177.6667 "/>
<path id="2" d="M181.5 177.6667 C181.5 177.6667 190.4046 170.7197 199.5 165.6667 C203.4331 163.4816 204.0129 163.3266 208.5 162.6667 C220.5215 160.8988 222.4712 159.3843 233.5 160.6667 C241.8777 161.6408 242.7956 165.9742 251.5 167.6667 C259.5925 169.2402 262.1522 166.4421 269.5 167.6667 C272.2214 168.1203 273.3889 169.3445 275.5 171.6667 C277.875 174.2792 279.5 178.6667 279.5 178.6667 "/>
<path id="3" d="M276.5 188.6667 L276.5 176.6667 "/>
<path id="4" d="M277.5 195.6667 C277.5 195.6667 281.3321 192.2296 285.5 190.6667 C296.7374 186.4527 297.8622 186.5761 309.5 183.6667 C311.3078 183.2147 312.4286 183.0238 313.5 183.6667 C316.0714 185.2095 319.2104 187.2535 319.5 189.6667 C321.3961 205.4673 322.6334 220.892 319.5 233.6667 C318.632 237.2055 312.268 241.4835 306.5 242.6667 C296.4782 244.7224 280.5 241.6667 280.5 241.6667 "/>
<path id="5" d="M278.5 207.6667 C278.5 207.6667 298.669 202.1669 303.5 202.6667 C304.4526 202.7652 306.8415 206.8803 307.5 210.6667 C308.6359 217.1982 308.9637 223.1386 307.5 225.6667 C306.4883 227.4142 301.8338 228.9047 296.5 229.6667 C288.664 230.7861 279.5 229.6667 279.5 229.6667 "/>
</g>
</g>
</svg>
