<?xml version="1.0" encoding="utf-8"?>
<!DOCTYPE svg PUBLIC "-//W3C//DTD SVG 1.1//EN" "http://www.w3.org/Graphics/SVG/1.1/DTD/svg11.dtd">
<svg viewBox="0 0 800 800" preserveAspectRatio="xMinYMin meet" xmlns="http://www.w3.org/2000/svg" version="1.1">
<g fill="none" stroke="black" stroke-linecap="round" stroke-linejoin="round" stroke-width="0.84005">
<g transform="translate(87.52,100.0192) scale(3.5712) translate(-321,-145.1333)">
<path id="0" d="M407 162.1333 C407 162.1333 397.011 160.2542 388 161.1333 C377.2798 162.1792 376.8622 164.7407 366 166.1333 C357.8441 167.179 356.8516 164.7241 349 166.1333 C338.2588 168.0612 336.9604 169.0754 327 173.1333 C324.3429 174.2158 322.0207 175.8195 322 177.1333 C321.3763 216.7378 322.483 246.4375 325 300.1333 C325.1051 302.3749 326.3394 303.8418 328 305.1333 C329.8213 306.5499 330.9634 306.5935 334 307.1333 C353.1436 310.5366 353.7356 312.4264 373 313.1333 C407.3469 314.3938 420.0635 313.0185 443 311.1333 C444.0882 311.0439 445.5021 309.1248 446 307.1333 C448.6203 296.6521 449.5042 295.0322 450 283.1333 C451.4771 247.683 451.6191 246.7527 450 211.1333 C449.1404 192.2218 448.4734 188.0688 445 173.1333 C444.4534 170.783 442.5016 168.9403 440 168.1333 C429.5541 164.7637 425.9359 163.4109 414 163.1333 C406.273 162.9536 397 167.1333 397 167.1333 "/>
<path id="1" d="M343 193.1333 C343 193.1333 339.2458 214.705 338 236.1333 C336.7625 257.4177 336.2077 259.4183 338 279.1333 C338.5191 284.8436 341.3041 288.5894 343 291.1333 C343.2212 291.4651 345.9733 291.2438 346 291.1333 C347.1038 286.5605 349.541 276.5141 350 262.1333 C351.0237 230.0576 349 197.1333 349 197.1333 "/>
<path id="2" d="M380 223.1333 C380 223.1333 378.1469 262.7079 380 290.1333 C380.2029 293.137 384.9662 297.192 385 297.1333 C385.3187 296.5809 393.3421 279.7646 395 264.1333 C396.5908 249.1348 394.7583 246.649 392 231.1333 C390.9398 225.1697 387 219.1333 387 219.1333 "/>
<path id="3" d="M419 205.1333 C419 205.1333 417.3953 251.4295 419 287.1333 C419.1405 290.2595 422.6407 294.0535 423 294.1333 C423.2515 294.1892 427.1699 291.6236 428 289.1333 C430.9053 280.4173 431.1919 278.0425 432 267.1333 C433.1598 251.4763 433.4827 250.7019 432 235.1333 C430.5371 219.7732 426 204.1333 426 204.1333 "/>
<path id="4" d="M343 170.1333 C343 170.1333 326.2707 172.8039 322 175.1333 C321.1328 175.6064 320.327 181.1239 321 182.1333 C322.1688 183.8866 325.6038 186.4482 330 187.1333 C361.0593 191.9737 364.1084 191.5824 398 194.1333 C410.3643 195.064 412.1291 196.3569 423 194.1333 C432.0623 192.2797 438.1698 188.5604 442 185.1333 C443.0134 184.2266 443.1864 179.0315 442 177.1333 C439.8868 173.7522 432 169.1333 432 169.1333 "/>
<path id="5" d="M340 172.1333 C340 172.1333 339.0795 166.983 340 166.1333 C347.0824 159.5957 353.805 154.2308 366 148.1333 C370.3553 145.9557 372.3722 146.5705 378 147.1333 C386.7018 148.0035 389.2231 151.6007 396 151.1333 C400.3641 150.8324 401.8184 146.6138 407 145.1333 C411.0754 143.9689 412.5386 144.1635 417 145.1333 C423.2848 146.4996 427.5228 147.491 430 150.1333 C431.8557 152.1127 430.404 159.6438 432 161.1333 C434.0557 163.0519 442.4782 162.5122 445 164.1333 C445.8205 164.6608 446.4847 167.8712 446 170.1333 C445.2579 173.5964 444.4318 175.2152 442 178.1333 C440.0689 180.4507 436 182.1333 436 182.1333 "/>
<path id="6" d="M413 175.1333 C413 175.1333 409.7034 177.3748 409 179.1333 C408.2463 181.0175 408.3443 183.1662 409 185.1333 C409.4371 186.4447 410.8687 187.9825 412 188.1333 C415.9483 188.6598 420.225 186.2451 424 187.1333 C425.9819 187.5997 429 192.1333 429 192.1333 "/>
<path id="7" d="M433 195.1333 C433 195.1333 430.6174 208.2825 432 220.1333 C433.9966 237.2468 439.8961 254.9335 440 255.1333 C440.0196 255.1711 444.71 249.7015 445 245.1333 C446.4881 221.6952 444 192.1333 444 192.1333 "/>
<path id="8" d="M454 199.1333 C454 199.1333 462.2489 194.6836 470 193.1333 C476.309 191.8715 478.7225 191.694 484 193.1333 C487.6325 194.124 490.0774 195.929 492 199.1333 C494.9195 203.9992 495.2156 206.2699 496 213.1333 C497.1394 223.103 497.9516 224.809 496 234.1333 C493.7804 244.7381 492.4472 246.4495 487 256.1333 C483.9682 261.5232 482.8411 262.0991 478 266.1333 C474.3226 269.1978 473.2217 270.289 469 271.1333 C462.2453 272.4843 453 271.1333 453 271.1333 "/>
<path id="9" d="M452 216.1333 C452 216.1333 454.9009 209.9742 458 207.1333 C459.7036 205.5717 461.2105 205.3077 464 205.1333 C468.5259 204.8505 471.194 204.7303 474 206.1333 C475.8707 207.0687 477.8112 209.5535 478 212.1333 C479.0477 226.4525 479.8383 234.6449 477 247.1333 C476.1101 251.0491 472.916 252.5409 468 256.1333 C460.3287 261.7393 451 266.1333 451 266.1333 "/>
</g>
</g>
</svg>
