<?xml version="1.0" encoding="utf-8"?>
<!DOCTYPE svg PUBLIC "-//W3C//DTD SVG 1.1//EN" "http://www.w3.org/Graphics/SVG/1.1/DTD/svg11.dtd">
<svg viewBox="0 0 800 800" preserveAspectRatio="xMinYMin meet" xmlns="http://www.w3.org/2000/svg" version="1.1">
<g fill="none" stroke="black" stroke-linecap="round" stroke-linejoin="round" stroke-width="0.48483">
<g transform="translate(87.52,143.2095) scale(6.1877) translate(-234,-178.4167)">
<path id="0" d="M234 188.4167 C234 188.4167 235.7618 184.7332 238 183.4167 C243.1402 180.393 244.7632 178.9942 251 178.4167 C269.9935 176.658 271.6095 178.0169 292 178.4167 C296.9831 178.5144 298.0679 178.106 302 179.4167 C304.41 180.22 307 183.4167 307 183.4167 "/>
<path id="1" d="M236 187.4167 C236 187.4167 240.3609 196.0455 243 196.4167 C261.1993 198.976 277.4411 198.8093 300 196.4167 C303.8558 196.0077 306.9839 192.3288 309 189.4167 C309.9143 188.096 309 183.4167 309 183.4167 "/>
<path id="2" d="M236 189.4167 C236 189.4167 235.3189 221.1376 238 246.4167 C238.4466 250.6276 240.1096 253.2869 243 255.4167 C247.3944 258.6546 250.1539 259.5951 257 260.4167 C273.937 262.4491 281.3004 263.3213 293 261.4167 C295.7104 260.9754 297.9837 257.6173 300 253.4167 C303.4433 246.2431 304.3813 244.7077 305 236.4167 C306.7807 212.5551 305 186.4167 305 186.4167 "/>
<path id="3" d="M307 194.4167 C307 194.4167 309.0234 185.573 311 183.4167 C311.9995 182.3263 315.9717 181.6923 318 182.4167 C320.7916 183.4137 323.5367 185.1974 325 188.4167 C329.8825 199.1581 331.0608 202.3961 333 215.4167 C334.3655 224.5851 332 235.4167 332 235.4167 "/>
<path id="4" d="M307 209.4167 C307 209.4167 311.8843 207.3294 313 205.4167 C314.2769 203.2277 313.1338 198.716 314 197.4167 C314.4331 196.767 318.9976 196.402 319 196.4167 C319.6341 200.2213 319.5699 233.8264 321 239.4167 C321.0757 239.7125 326.2888 240.2119 330 239.4167 C332.3268 238.9181 335.0014 236.4191 335 236.4167 C334.9109 236.2608 326 232.4167 326 232.4167 "/>
</g>
</g>
</svg>
