<?xml version="1.0" encoding="utf-8"?>
<!DOCTYPE svg PUBLIC "-//W3C//DTD SVG 1.1//EN" "http://www.w3.org/Graphics/SVG/1.1/DTD/svg11.dtd">
<svg viewBox="0 0 800 800" preserveAspectRatio="xMinYMin meet" xmlns="http://www.w3.org/2000/svg" version="1.1">
<g fill="none" stroke="black" stroke-linecap="round" stroke-linejoin="round" stroke-width="1.0705">
<g transform="translate(101.5326,87.52) scale(2.8025) translate(-173,-100)">
<path id="0" d="M181 109 C181 109 181.2494 144.8872 181 150 C180.9994 150.0122 179.0034 149.971 179 150 C178.7534 152.096 179.2466 164.904 179 167 C178.9966 167.029 177 167 177 167 "/>
<path id="1" d="M180 150 C180 150 180.2499 248.0045 180 262 C179.9999 262.0045 178 262 178 262 "/>
<path id="2" d="M182 113 C182 113 196.9395 126.4849 212 132 C229.7523 138.5009 232.6466 137.1004 253 139 C269.6137 140.5506 273.2201 142.2571 287 139 C296.7565 136.6939 299.7113 133.0607 308 126 C311.7519 122.8039 314 116 314 116 "/>
<path id="3" d="M181 110 C181 110 192.6063 103.9989 204 102 C220.038 99.1863 221.3085 99.1818 238 100 C271.6484 101.6494 272.5517 102.5671 306 107 C313.5362 107.9988 320.7727 110.8553 321 111 C321.0271 111.0172 317 114 317 114 "/>
<path id="4" d="M180 255 C180 255 178.9596 265.3765 180 275 C180.9068 283.388 184 292 184 292 "/>
<path id="5" d="M183 268 C183 268 181 268.7639 181 269 C181 274.9036 181.1171 293.1746 183 294 C193.7618 298.7175 218.5301 298.5325 254 301 C275.8662 302.5211 298 302 298 302 "/>
<path id="6" d="M320 113 C320 113 325.5182 266.5025 321 297 C320.7715 298.5421 292 302 292 302 "/>
<path id="7" d="M183 294 C183 294 173.4006 294.4492 173 295 C172.5862 295.569 173.3566 303.9592 175 305 C181.646 309.2091 188.8858 311.21 203 314 C231.2394 319.5822 232.068 319.589 261 322 C285.699 324.0583 305.0023 323.12 311 323 C311.0048 322.9999 310.7798 321.1258 311 321 C316.1472 318.0588 324.1058 317.1116 332 311 C337.7235 306.5689 341.4785 299.6074 342 297 C342.1564 296.2178 338.4103 291.6695 336 291 C332.3147 289.9763 324 292 324 292 "/>
<path id="8" d="M324 160 C324 160 323.3108 156.9648 324 156 C326.9536 151.865 330.684 151.4715 334 146 C340.0002 136.0997 339.2507 126.598 344 123 C348.2455 119.7837 356.6996 121 367 121 C369.2392 121 370.4254 121.6003 372 123 C374.1684 124.9274 374.5392 125.8349 376 129 C380.4112 138.5575 381.7448 139.077 384 149 C386.5277 160.122 385.6673 161.023 386 173 C386.6639 196.8987 388.33 197.9913 386 221 C384.4559 236.2481 383.2845 242.4376 378 252 C375.8839 255.8292 371.0968 257.9591 365 259 C352.974 261.0532 340.4822 259.2487 337 259 C336.9822 258.9987 337.0588 257.0147 337 257 C336.0588 256.7647 330.8055 257.7222 329 257 C328.1875 256.675 327 253 327 253 "/>
<path id="9" d="M322 167 C322 167 325.5257 167.5692 326 167 C329.8659 162.3609 333.2763 153.7877 337 149 C337.3272 148.5793 339.7105 149.2895 340 149 C340.4825 148.5175 340.0539 145.9461 341 145 C343.8382 142.1618 346.051 139.8227 350 139 C355.6988 137.8127 360.2408 137.9308 365 140 C368.6733 141.5971 369.9798 144.3323 373 149 C375.1179 152.2732 375.4181 152.9994 376 157 C379.292 179.6324 379.3953 180.5713 381 204 C381.8813 216.8668 381.7274 225.0901 381 230 C380.9554 230.3007 377.173 230.5674 377 231 C376.4011 232.4973 378.144 236.7588 377 240 C375.714 243.6438 374.4012 245.7818 371 248 C364.4612 252.2644 362.1863 253.1515 354 255 C347.8318 256.3928 345.7622 256.5896 340 255 C332.9179 253.0463 325 247 325 247 "/>
</g>
</g>
</svg>
