<?xml version="1.0" encoding="utf-8"?>
<!DOCTYPE svg PUBLIC "-//W3C//DTD SVG 1.1//EN" "http://www.w3.org/Graphics/SVG/1.1/DTD/svg11.dtd">
<svg viewBox="0 0 800 800" preserveAspectRatio="xMinYMin meet" xmlns="http://www.w3.org/2000/svg" version="1.1">
<g fill="none" stroke="black" stroke-linecap="round" stroke-linejoin="round" stroke-width="1.1281">
<g transform="translate(87.52,114.114) scale(2.6594) translate(-174,-166.1167)">
<path id="0" d="M174 186.1167 C174 186.1167 172.9464 180.4882 174 177.1167 C175.0024 173.909 176.4173 171.3519 179 170.1167 C185.1609 167.1702 188.1491 166.4707 197 166.1167 C236.9655 164.518 239.1158 162.8668 279 166.1167 C305.2147 168.2527 308.9049 170.8536 332 177.1167 C335.0346 177.9396 337.1756 180.3031 338 182.1167 C338.5916 183.4182 337.6202 187.9142 337 188.1167 C326.256 191.6249 312.7504 195.6932 289 198.1167 C264.775 200.5886 263.2865 200.6958 239 198.1167 C207.78 194.8013 176 186.1167 176 186.1167 "/>
<path id="1" d="M175 182.1167 C175 182.1167 178.4186 204.1696 179 226.1167 C180.4104 279.3598 177.7036 280.8298 179 333.1167 C179.1705 339.9943 179.305 341.1491 182 347.1167 C185.8557 355.6544 193 364.1167 193 364.1167 "/>
<path id="2" d="M338 188.1167 C338 188.1167 346.5471 223.3295 349 258.1167 C351.9806 300.3868 352.9943 310.4977 349 344.1167 C348.2371 350.5378 340.9581 351.766 337 359.1167 C334.7727 363.2531 335.8338 369.8387 335 370.1167 C330.929 371.4737 320.609 370.4776 307 369.1167 C301.043 368.521 300.862 366.2999 295 366.1167 C254.2844 364.8443 251.38 367.0041 211 366.1167 C207.6139 366.0422 204 364.1167 204 364.1167 "/>
<path id="3" d="M342 211.1167 C342 211.1167 341.5417 197.1478 343 185.1167 C343.4111 181.7251 343.9661 180.0053 346 178.1167 C349.5479 174.8222 351.6831 173.3573 357 172.1167 C365.247 170.1924 372.0811 168.417 376 171.1167 C386.2825 178.2002 393.8528 187.0691 402 203.1167 C408.5888 216.0946 407.7985 219.8101 409 236.1167 C411.2227 266.2818 413.6873 269.9927 409 298.1167 C405.2955 320.3437 399.087 328.2661 391 344.1167 C390.037 346.0042 387.346 346.6802 384 347.1167 C376.757 348.0614 374.3472 348.64 368 347.1167 C363.8584 346.1227 362.2722 344.3889 359 341.1167 C357.0367 339.1534 356 335.1167 356 335.1167 "/>
<path id="4" d="M181 219.1167 C181 219.1167 195.3553 226.6385 210 230.1167 C234.5063 235.9369 235.6532 236.2037 261 238.1167 C288.0149 240.1555 288.9638 239.2432 316 238.1167 C324.4181 237.7659 325.1148 237.453 333 235.1167 C338.0609 233.6172 343.0365 230.1249 343 230.1167 C342.5397 230.0133 288.5994 219.3152 235 213.1167 C215.9907 210.9183 214.7215 212.3027 196 213.1167 C192.598 213.2646 191.1646 213.4516 189 215.1167 C185.9189 217.4867 183 223.1167 183 223.1167 "/>
<path id="5" d="M212 267.1167 C212 267.1167 210.9808 265.1295 211 265.1167 C211.4798 264.7968 217.6588 262.9704 218 263.1167 C218.119 263.1677 218.2155 267.5779 218 268.1167 C217.9655 268.2029 216 268.1167 216 268.1167 "/>
<path id="6" d="M257 277.1167 L262 278.1167 "/>
<path id="7" d="M279 254.1167 L280 255.1167 "/>
<path id="8" d="M261 232.1167 L260 233.1167 "/>
<path id="9" d="M313 280.1167 C313 280.1167 321.5168 278.7122 323 279.1167 C323.3188 279.2036 324.1875 282.8042 324 283.1167 C323.8125 283.4292 320.2531 284.18 320 284.1167 C319.9662 284.1082 320 282.1167 320 282.1167 "/>
<path id="10" d="M281 310.1167 C281 310.1167 286.5815 307.0569 287 307.1167 C287.118 307.1335 288.0147 311.1124 288 311.1167 C285.719 311.782 263 314.1167 263 314.1167 "/>
<path id="11" d="M208 326.1167 C208 326.1167 208.7157 323.2114 209 323.1167 C209.6633 322.8956 213.6272 324.1912 214 324.1167 C214.0311 324.1105 214 322.1167 214 322.1167 "/>
<path id="12" d="M224 295.1167 L233 296.1167 "/>
<path id="13" d="M271 339.1167 L271 336.1167 "/>
<path id="14" d="M344 213.1167 C344 213.1167 351.7321 190.6487 356 187.1167 C357.9539 185.4996 368.3238 186.0997 373 189.1167 C379.5484 193.3414 381.4144 197.7227 387 207.1167 C392.0408 215.5943 392.378 216.582 395 226.1167 C397.6993 235.9324 397.5181 236.6756 398 247.1167 C399.0031 268.8498 399.2222 269.4224 398 291.1167 C397.2437 304.5402 397.8738 306.772 394 318.1167 C391.6218 325.0815 388.5091 329.5152 384 332.1167 C379.865 334.5022 375.4319 333.6884 368 333.1167 C363.2249 332.7494 358 330.1167 358 330.1167 "/>
<path id="15" d="M201 366.1167 C201 366.1167 195.1952 365.7055 193 367.1167 C190.1698 368.9361 186.9969 375.1144 187 375.1167 C187.8674 375.7558 199.7342 380.5506 212 381.1167 C262.9518 383.4683 265.4271 382.3953 317 381.1167 C324.8953 380.9209 329.3004 379.64 333 378.1167 C333.5682 377.8827 334 374.1167 334 374.1167 "/>
</g>
</g>
</svg>
