<?xml version="1.0" encoding="utf-8"?>
<!DOCTYPE svg PUBLIC "-//W3C//DTD SVG 1.1//EN" "http://www.w3.org/Graphics/SVG/1.1/DTD/svg11.dtd">
<svg viewBox="0 0 800 800" preserveAspectRatio="xMinYMin meet" xmlns="http://www.w3.org/2000/svg" version="1.1">
<g fill="none" stroke="black" stroke-linecap="round" stroke-linejoin="round" stroke-width="1.5457">
<g transform="translate(113.7217,87.52) scale(1.9409) translate(-153,-89)">
<path id="0" d="M161 110 C161 110 164.254 182.5146 162 254 C160.7748 292.855 156.6763 293.0453 154 332 C152.1919 358.3181 148.2002 367.0007 153 385 C155.5122 394.4206 163.5086 398.734 174 407 C178.1468 410.2672 180.2462 410.805 186 411 C236.2574 412.7036 239.2356 412.3885 292 411 C314.9502 410.396 327.8234 410.7913 338 407 C340.2689 406.1547 342.0978 399.3679 343 392 C344.9719 375.8965 341.9306 360.6266 344 358 C345.1122 356.5883 357.1399 360.2938 369 359 C383.6583 357.4009 385.0968 356.5185 399 352 C404.1477 350.327 405.4955 349.8331 409 346 C420.3666 333.5678 423.6815 332.1999 431 317 C442.1249 293.8945 444.1142 290.3718 448 265 C452.1986 237.5853 449.7692 234.6618 448 206 C447.331 195.1626 448.0647 191.597 443 184 C431.6045 166.9067 425.77 161.3006 410 149 C404.7381 144.8957 401.3031 145.4529 393 145 C374.7016 144.0019 357.455 148.5149 355 146 C351.8762 142.8 355.8743 107.9214 352 103 C349.3723 99.6621 333.9775 102.7913 318 99 C305.4861 96.0306 304.8963 89.8621 293 89 C240.7432 85.2133 235.1433 86.9727 180 89 C168.6864 89.4159 159.4822 91.4099 157 94 C155.256 95.8199 157 113 157 113 "/>
<path id="1" d="M363 184 C363 184 386.896 182.4753 397 186 C400.9414 187.3749 404.1351 192.7271 406 199 C408.926 208.8419 407.6578 211.0227 408 223 C408.6543 245.9019 410.3232 246.8007 408 269 C405.9323 288.7583 404.5832 290.3892 399 309 C397.4571 314.143 396.7801 315.8499 393 319 C383.3739 327.0217 380.0705 329.7421 369 334 C363.4219 336.1454 357.2456 334.9546 354 334 C353.2491 333.7791 352.0468 331.342 352 329 C351.1171 284.8543 351.3174 281.4412 352 234 C352.3164 212.0129 349.9646 201.2567 354 190 C355.3622 186.2003 371 181 371 181 "/>
<path id="2" d="M304 151 L304 377 "/>
<path id="3" d="M259 148 C259 148 256.2211 212.1291 257 276 C257.7186 334.9226 262 394 262 394 "/>
<path id="4" d="M213 141 C213 141 208.7545 173.5552 208 206 C206.2619 280.7388 207.5271 281.7549 208 356 C208.0221 359.4679 208.0405 360.8412 209 363 C209.4296 363.9666 212 365 212 365 "/>
</g>
</g>
</svg>
