<?xml version="1.0" encoding="utf-8"?>
<!DOCTYPE svg PUBLIC "-//W3C//DTD SVG 1.1//EN" "http://www.w3.org/Graphics/SVG/1.1/DTD/svg11.dtd">
<svg viewBox="0 0 800 800" preserveAspectRatio="xMinYMin meet" xmlns="http://www.w3.org/2000/svg" version="1.1">
<g fill="none" stroke="black" stroke-linecap="round" stroke-linejoin="round" stroke-width="1.2433">
<g transform="translate(103.2043,87.52) scale(2.413) translate(-235,-129.9167)">
<path id="0" d="M236 145.9167 C236 145.9167 228.9944 289.4557 238 364.9167 C239.1182 374.2864 254.2478 380.3149 265 388.9167 C265.6982 389.4752 268 388.9167 268 388.9167 "/>
<path id="1" d="M236 142.9167 C236 142.9167 258.5118 131.7915 280 129.9167 C329.9899 125.5551 335.1941 128.606 385 129.9167 C389.3065 130.03 390.3064 130.7439 394 132.9167 C398.1579 135.3625 401.0029 136.9254 402 139.9167 C403.7535 145.1773 403.1468 152.3293 402 156.9167 C401.7133 158.0635 399.4252 159.4676 397 159.9167 C387.2344 161.7251 383.4178 160.2331 375 161.9167 C373.6471 162.1872 373.1054 164.8932 372 164.9167 C339.1761 165.6151 322.756 167.0386 281 163.9167 C273.4244 163.3503 273.0445 159.1512 265 156.9167 C255.6605 154.3224 253.0857 156.8814 245 153.9167 C240.0438 152.0994 237.8069 149.0042 235 145.9167 C234.5073 145.3747 235 142.9167 235 142.9167 "/>
<path id="2" d="M405 148.9167 C405 148.9167 404.1805 242.5892 402 335.9167 C401.6847 349.41 401.8593 350.2736 400 362.9167 C399.4931 366.3636 398.7984 368.6803 397 369.9167 C393.3744 372.4092 387.7726 371.2537 384 373.9167 C381.7 375.5402 382.4119 380.0723 380 381.9167 C375.9895 384.9835 373.2372 386.537 367 386.9167 C319.1241 389.8309 265 388.9167 265 388.9167 "/>
<path id="3" d="M406 208.9167 C406 208.9167 411.3901 197.6742 418 187.9167 C421.6527 182.5247 422.7568 179.6725 427 177.9167 C433.7268 175.1332 437.1879 175.9167 447 175.9167 C457.3027 175.9167 461.2999 175.1442 468 177.9167 C471.7258 179.4584 473.9499 182.9964 476 187.9167 C478.2807 193.3905 477.3732 199.7227 478 201.9167 C478.0246 202.0027 479.9995 201.9055 480 201.9167 C480.3855 210.7823 484.8331 241.849 481 270.9167 C479.6801 280.9259 473.6334 281.6498 468 292.9167 C463.2561 302.4046 464.6715 304.2411 460 312.9167 C458.226 316.2112 457.2112 317.5118 454 318.9167 C443.0166 323.7219 440.7184 325.0998 428 326.9167 C413.9429 328.9248 398 326.9167 398 326.9167 "/>
<path id="4" d="M406 241.9167 C406 241.9167 408.5655 239.2342 409 236.9167 C409.8593 232.3337 407.5264 229.0276 409 225.9167 C410.6428 222.4486 414.8111 221.9753 418 217.9167 C419.602 215.8778 418.4227 213.494 420 211.9167 C423.5489 208.3678 425.3738 207.8779 431 204.9167 C434.6702 202.985 435.1269 202.4976 439 201.9167 C444.5003 201.0916 445.4997 201.0916 451 201.9167 C454.8731 202.4976 458.3016 203.5198 459 204.9167 C460.5465 208.0097 460.6117 213.7992 460 219.9167 C459.7824 222.0927 457.3171 222.5387 457 224.9167 C454.6279 242.7077 457.6033 247.5554 454 264.9167 C452.6996 271.1822 448.9638 271.3963 446 277.9167 C444.2347 281.8004 445.9951 284.8166 444 286.9167 C439.0305 292.1477 435.0969 295.2907 427 297.9167 C418.9989 300.5116 414.7374 299.5615 407 298.9167 C405.3489 298.7791 403 295.9167 403 295.9167 "/>
</g>
</g>
</svg>
