<?xml version="1.0" encoding="utf-8"?>
<!DOCTYPE svg PUBLIC "-//W3C//DTD SVG 1.1//EN" "http://www.w3.org/Graphics/SVG/1.1/DTD/svg11.dtd">
<svg viewBox="0 0 800 800" preserveAspectRatio="xMinYMin meet" xmlns="http://www.w3.org/2000/svg" version="1.1">
<g fill="none" stroke="black" stroke-linecap="round" stroke-linejoin="round" stroke-width="1.5985">
<g transform="translate(194.4951,87.52) scale(1.8768) translate(-157,-11)">
<path id="0" d="M260 250 C260 250 288.7405 251.1627 315 256 C325.5186 257.9376 328.7305 259.1537 336 264 C339.4967 266.3311 341.1538 269.2856 342 274 C344.2291 286.419 344.5399 290.9888 343 303 C342.4256 307.4802 340.492 308.5381 337 313 C331.6794 319.7985 331.6402 321.5134 325 326 C314.4223 333.1471 312.6559 332.7524 300 338 C292.3694 341.1639 291.8779 342.0732 284 343 C267.3224 344.9621 265.2642 345.5344 249 344 C240.3492 343.1839 232.7309 340.6925 231 338 C228.8329 334.6289 228.4375 325.1518 231 316 C234.718 302.7215 237.2543 301.2323 245 288 C249.0347 281.1074 251.1256 281.9065 255 275 C262.3476 261.9021 268 247 268 247 "/>
<path id="1" d="M286 277 C286 277 283.2103 275.8413 283 275 C281.9101 270.6405 283.2818 267.0886 282 261 C281.492 258.5871 279.0924 258.232 279 256 C276.4744 194.9646 280.4502 134.4553 276 116 C275.732 114.8885 249.1034 115.3971 245 115 C244.9745 114.9975 245.0028 112.9986 245 113 C244.9901 113.0049 243.0761 114.6814 243 116 C241.8021 136.7643 240.62 141.5393 242 165 C242.5441 174.2489 246.095 174.5483 247 184 C250.5022 220.5783 249.6852 221.5293 251 259 C251.6824 278.4484 252.0966 282.2815 251 298 C250.8816 299.6965 247.9999 302.0001 248 302 C248.0005 301.9996 257.0729 290.8938 267 284 C273.8894 279.2157 278.544 280.0311 284 277 C284.6965 276.613 285 274 285 274 "/>
<path id="2" d="M246 117 C246 117 241.884 112.7128 241 109 C239.7496 103.7482 239.4246 100.1354 241 96 C242.3388 92.4856 249 88 249 88 "/>
<path id="3" d="M250 87 C250 87 261.2704 85.5451 270 87 C274.7286 87.7881 278.8766 89.7531 280 92 C281.966 95.9321 282.2545 102.2257 281 109 C280.171 113.4764 275 119 275 119 "/>
<path id="4" d="M250 85 C250 85 243.1086 77.8598 242 72 C240.1812 62.3864 241.0486 59.1508 243 48 C244.3763 40.1356 244.9875 38.8448 249 32 C252.9983 25.1794 256.1088 25.1611 260 19 C261.2937 16.9517 260.1649 13.6681 261 13 C262.5263 11.779 267.4929 10.6143 270 11 C271.3312 11.2048 273.0767 12.8237 274 15 C279.3875 27.6991 282.0234 29.8041 284 44 C287.2609 67.4194 285 94 285 94 "/>
<path id="5" d="M284 98 C284 98 289.9156 90.7036 296 87 C300.1742 84.4592 301.6805 84.133 307 84 C340.1298 83.1718 373.8226 84.4646 376 85 C376.1433 85.0352 372.8626 93.1649 368 99 C360.9022 107.5173 359.1767 112.1382 351 115 C334.8095 120.6667 329.2773 118.6491 308 120 C298.2073 120.6218 296.732 120.617 288 119 C284.6514 118.3799 281 115 281 115 "/>
<path id="6" d="M247 89 C247 89 246.4504 86.3378 246 86 C245.5842 85.6882 244.2552 85.5816 243 86 C235.8874 88.3709 235.2414 90.5517 228 92 C221.295 93.341 219.9398 93.2247 213 92 C203.7197 90.3623 202.5294 90.2647 194 86 C179.2674 78.6337 178.0565 74.3518 165 68 C162.2336 66.6542 157.2384 67.6254 157 68 C156.5147 68.7627 156.3872 74.1617 158 79 C162.0794 91.2381 162.1156 94.5659 169 104 C173.9351 110.7629 176.7105 111.0263 185 116 C191.2886 119.7731 192.2746 120.7772 199 122 C207.4675 123.5395 209.2304 123.6443 218 122 C232.1641 119.3442 247 113 247 113 "/>
<path id="7" d="M287 307 C287 307 291.9371 300.7657 295 300 C298.6126 299.0968 303.7926 300.2894 307 302 C308.5219 302.8117 309.8458 305.5333 310 308 C310.2461 311.9368 308.7781 317.6338 308 318 C306.3688 318.7676 296.8086 318.4839 293 316 C289.1507 313.4896 285 303 285 303 "/>
</g>
</g>
</svg>
