<?xml version="1.0" encoding="utf-8"?>
<!DOCTYPE svg PUBLIC "-//W3C//DTD SVG 1.1//EN" "http://www.w3.org/Graphics/SVG/1.1/DTD/svg11.dtd">
<svg viewBox="0 0 800 800" preserveAspectRatio="xMinYMin meet" xmlns="http://www.w3.org/2000/svg" version="1.1">
<g fill="none" stroke="black" stroke-linecap="round" stroke-linejoin="round" stroke-width="2.5778">
<g transform="translate(87.52,206.2275) scale(1.1638) translate(-12,-37.1333)">
<path id="0" d="M252 38.1333 C252 38.1333 279.0561 34.8713 302 37.1333 C312.0181 38.121 321.3744 41.382 323 45.1333 C328.1493 57.0162 327.3248 71.2053 328 97.1333 C329.8133 166.7651 328 237.1333 328 237.1333 "/>
<path id="1" d="M256 38.1333 C256 38.1333 250.1493 38.4736 246 40.1333 C243.4643 41.1476 242.5142 41.862 241 44.1333 C238.0404 48.5727 236.0739 50.1057 236 55.1333 C234.7116 142.7459 238 248.1333 238 248.1333 "/>
<path id="2" d="M235 284.1333 C235 284.1333 101.3534 284.8837 23 288.1333 C21.0769 288.2131 20.165 291.9305 18 293.1333 C16.8866 293.7519 14.725 292.65 14 293.1333 C13.1542 293.6972 12.0607 295.311 12 297.1333 C11.1635 322.2274 10.4418 326.6434 12 353.1333 C12.3405 358.921 13.6266 363.0392 16 365.1333 C18.5456 367.3795 22.6237 367.9953 29 368.1333 C135.4155 370.4367 247 370.1333 247 370.1333 "/>
<path id="3" d="M342 275.1333 C342 275.1333 346.7047 272.2074 351 272.1333 C429.2974 270.7834 435.1049 271.2088 516 272.1333 C520.9139 272.1895 522.4943 271.9261 526 274.1333 C534.2337 279.3175 539.2265 281.5864 543 289.1333 C548.4595 300.0523 547.3545 304.7752 549 320.1333 C550.3001 332.2673 550.5807 334.7007 549 345.1333 C548.4463 348.7879 546.7907 350.3427 544 353.1333 C542.068 355.0653 541.0378 355.5155 538 356.1333 C512.8021 361.2583 511.2257 364.2009 485 365.1333 C400.4184 368.1407 313 364.1333 313 364.1333 "/>
<path id="4" d="M239 242.1333 L239 276.1333 "/>
<path id="5" d="M329 227.1333 L329 273.1333 "/>
<path id="6" d="M238 285.1333 C238 285.1333 237.1407 278.7163 238 274.1333 C238.4345 271.8158 239.0989 270.612 241 269.1333 C247.0712 264.4113 249.2089 261.1211 256 260.1333 C272.5955 257.7194 276.5704 259.0726 296 261.1333 C308.9041 262.502 311.2818 262.1315 322 267.1333 C331.6761 271.6489 334.1702 273.7613 341 282.1333 C348.3425 291.1338 350.949 294.6731 353 305.1333 C355.2335 316.5239 352.8178 319.6814 351 333.1333 C350.3952 337.6087 350.2955 338.4606 348 342.1333 C343.2508 349.7321 342.2905 352.6401 336 357.1333 C330.5799 361.0048 327.3626 358.8329 320 362.1333 C313.3055 365.1343 312.8865 369.4606 307 370.1333 C282.8859 372.8892 264.8689 373.1536 250 370.1333 C247.4852 369.6225 245.5364 363.7281 243 357.1333 C240.7122 351.1851 240.1567 350.4782 240 344.1333 C239.1855 311.145 241 276.1333 241 276.1333 "/>
<path id="7" d="M275 318.1333 C275 318.1333 273.871 306.4236 275 302.1333 C275.3045 300.9761 277.7211 299.4068 280 299.1333 C288.5033 298.1129 293.443 296.9477 300 299.1333 C304.3713 300.5904 308.9298 304.7554 310 309.1333 C313.0309 321.5323 313.24 334.7254 311 344.1333 C310.3802 346.7366 305.0762 350.0566 300 351.1333 C291.055 353.0308 287.1642 353.0201 278 351.1333 C272.401 349.9806 270.3519 347.905 266 344.1333 C264.0248 342.4215 263.3677 340.9525 263 338.1333 C262.0219 330.6346 260.714 326.9363 263 321.1333 C265.8402 313.9236 276 305.1333 276 305.1333 "/>
<path id="8" d="M143 151.1333 C143 151.1333 155.214 155.071 161 162.1333 C186.3858 193.1189 185.6856 199.217 211 234.1333 C214.2271 238.5846 216.1234 237.7339 219 242.1333 C224.1928 250.0753 222.5378 252.2962 228 260.1333 C233.5713 268.127 242 275.1333 242 275.1333 "/>
<path id="9" d="M134 168.1333 C134 168.1333 139.741 171.5231 143 176.1333 C159.4788 199.4448 158.1947 201.859 175 226.1333 C185.0688 240.6772 185.2917 240.9304 197 254.1333 C208.6246 267.2419 209.2746 267.905 222 279.1333 C225.6268 282.3334 231 284.1333 231 284.1333 "/>
<path id="10" d="M70 153.1333 C70 153.1333 80.7666 151.9943 88 155.1333 C104.9116 162.4723 105.9515 167.6091 123 176.1333 C127.4963 178.3815 134 178.1333 134 178.1333 "/>
<path id="11" d="M135 97.1333 C135 97.1333 135.4754 126.0097 141 147.1333 C142.9152 154.456 152 162.1333 152 162.1333 "/>
<path id="12" d="M72 152.1333 L136 96.1333 "/>
<path id="13" d="M200 257.1333 L193 261.1333 "/>
<path id="14" d="M195 261.1333 C195 261.1333 195.88 266.5786 198 268.1333 C207.9051 275.397 225 283.1333 225 283.1333 "/>
<path id="15" d="M220 247.1333 C220 247.1333 227.7412 242.6033 229 243.1333 C231.59 244.2239 236.7568 249.7496 239 255.1333 C240.6651 259.1295 239 267.1333 239 267.1333 "/>
</g>
</g>
</svg>
