<?xml version="1.0" encoding="utf-8"?>
<!DOCTYPE svg PUBLIC "-//W3C//DTD SVG 1.1//EN" "http://www.w3.org/Graphics/SVG/1.1/DTD/svg11.dtd">
<svg viewBox="0 0 800 800" preserveAspectRatio="xMinYMin meet" xmlns="http://www.w3.org/2000/svg" version="1.1">
<g fill="none" stroke="black" stroke-linecap="round" stroke-linejoin="round" stroke-width="1.7809">
<g transform="translate(87.52,118.6838) scale(1.6845) translate(-76,-27.1333)">
<path id="0" d="M253 27.1333 L258 179.1333 "/>
<path id="1" d="M262 27.1333 C262 27.1333 262.1319 82.9229 265 138.1333 C266.1162 159.6202 268.6262 174.5697 270 181.1333 C270.0261 181.2581 273.2198 180.495 274 181.1333 C276.8015 183.4254 279.2662 185.5624 281 190.1333 C284.2009 198.572 282.5204 201.9862 285 210.1333 C285.4573 211.6359 288 213.1333 288 213.1333 "/>
<path id="2" d="M257 179.1333 C257 179.1333 248.4277 186.2799 247 192.1333 C244.4108 202.7491 247 220.1333 247 220.1333 "/>
<path id="3" d="M236 219.1333 C236 219.1333 282.9911 216.9781 297 219.1333 C298.2719 219.329 299.9691 224.1853 301 229.1333 C302.352 235.6229 303.1292 240.5926 302 243.1333 C301.3336 244.6327 293 247.1333 293 247.1333 "/>
<path id="4" d="M300 226.1333 C300 226.1333 319.8784 225.9922 337 221.1333 C355.5127 215.8797 355.2702 210.4265 374 205.1333 C400.0844 197.7616 403.2174 198.3066 429 195.1333 C433.4723 194.5829 437.4676 195.3305 439 197.1333 C442.4954 201.2455 444.4321 206.3138 446 215.1333 C448.2143 227.5886 447.7081 230.8041 447 242.1333 C446.8636 244.3151 445.6963 246.0025 444 247.1333 C441.0538 249.0975 439.3221 249.9604 435 250.1333 C403.7218 251.3845 401.6316 252.1261 369 250.1333 C336.6212 248.156 304 242.1333 304 242.1333 "/>
<path id="5" d="M266 235.1333 C266 235.1333 272.8722 247.8758 277 259.1333 C277.8835 261.5428 276.1607 262.7354 277 265.1333 C279.301 271.7076 279.8974 272.8427 284 279.1333 C287.1418 283.9507 289.4344 283.2073 292 288.1333 C301.3247 306.0368 303.7226 308.5073 309 327.1333 C311.5293 336.0602 310.4944 339.7649 309 348.1333 C308.4383 351.2786 306.1216 354.1432 304 355.1333 C301.4335 356.331 298.5948 354.2979 294 355.1333 C288.1521 356.1966 287.9285 358.4359 282 359.1333 C263.3475 361.3277 260.0259 361.5117 243 361.1333 C240.3485 361.0744 237.9401 359.8427 237 358.1333 C234.0528 352.7747 232.4505 349.3544 232 341.1333 C230.5411 314.5078 228.4893 310.9444 233 285.1333 C237.0125 262.1728 250 238.1333 250 238.1333 "/>
<path id="6" d="M299 246.1333 L276 251.1333 "/>
<path id="7" d="M241 217.1333 C241 217.1333 226.4097 217.355 219 219.1333 C217.6947 219.4466 216.4185 221.2499 216 223.1333 C214.7244 228.8734 213.438 232.621 215 237.1333 C216.7688 242.2431 220.4973 247.1822 225 249.1333 C231.053 251.7563 245 250.1333 245 250.1333 "/>
<path id="8" d="M216 227.1333 C216 227.1333 147.2127 221.2597 97 223.1333 C90.5208 223.3751 86.8566 227.0454 82 232.1333 C78.0995 236.2195 77.5525 238.9234 76 245.1333 C74.8223 249.8443 75.3154 250.828 76 256.1333 C77.2768 266.0284 77.0007 269.3167 80 276.1333 C81.1137 278.6645 83.6294 280.0689 87 281.1333 C91.8388 282.6614 93.7331 283.0909 99 282.1333 C108.926 280.3286 110.2009 279.4204 120 275.1333 C125.7267 272.6279 125.4036 269.8655 131 268.1333 C144.9656 263.8106 147.9017 267.0037 162 262.1333 C174.1452 257.9377 173.7838 253.5756 186 249.1333 C200.2651 243.946 217 242.1333 217 242.1333 "/>
<path id="9" d="M292 218.1333 L288 213.1333 "/>
</g>
</g>
</svg>
