<?xml version="1.0" encoding="utf-8"?>
<!DOCTYPE svg PUBLIC "-//W3C//DTD SVG 1.1//EN" "http://www.w3.org/Graphics/SVG/1.1/DTD/svg11.dtd">
<svg viewBox="0 0 800 800" preserveAspectRatio="xMinYMin meet" xmlns="http://www.w3.org/2000/svg" version="1.1">
<g fill="none" stroke="black" stroke-linecap="round" stroke-linejoin="round" stroke-width="1.2001">
<g transform="translate(87.52,112.5184) scale(2.4998) translate(-198,-138.1333)">
<path id="0" d="M305 221.1333 C305 221.1333 298.1364 221.8713 296 224.1333 C291.8098 228.57 290.3474 232.0911 288 239.1333 C286.8042 242.7209 286.7189 246.3184 288 248.1333 C290.3445 251.4547 294.4869 254.0331 300 256.1333 C303.2974 257.3895 305.7013 257.0758 309 256.1333 C311.2515 255.4901 313.026 254.2032 314 252.1333 C316.2096 247.4379 316.3583 245.55 317 239.1333 C317.8202 230.9316 317.6447 228.2582 317 222.1333 C316.9162 221.3369 315.722 220.1849 315 220.1333 C310.981 219.8463 303 221.1333 303 221.1333 "/>
<path id="1" d="M318 221.1333 L439 222.1333 "/>
<path id="2" d="M310 260.1333 L448 260.1333 "/>
<path id="3" d="M441 222.1333 L442 260.1333 "/>
<path id="4" d="M310 258.1333 C310 258.1333 312.2891 269.4063 310 278.1333 C304.8271 297.8551 300.8564 298.5641 294 319.1333 C290.9911 328.1601 291.0067 328.6701 290 338.1333 C288.5434 351.8255 289.0065 366.0817 289 366.1333 C288.9991 366.1402 287 362.1333 287 362.1333 "/>
<path id="5" d="M286 247.1333 C286 247.1333 289.1786 276.2473 286 299.1333 C284.6926 308.5469 279.735 309.0776 276 319.1333 C273.462 325.9664 273.4541 326.716 273 334.1333 C271.9831 350.7425 271.3626 364.6539 273 368.1333 C273.3626 368.9039 289 368.1333 289 368.1333 "/>
<path id="6" d="M287 250.1333 C287 250.1333 208.8458 250.1667 208 250.1333 C207.9691 250.1321 211 247.1333 211 247.1333 "/>
<path id="7" d="M298 223.1333 C298 223.1333 209.3389 219.5049 198 223.1333 C196.8389 223.5049 196.2022 252.2569 198 255.1333 C198.7022 256.2569 215.5248 255.3809 218 255.1333 C218.0248 255.1309 218 253.1333 218 253.1333 "/>
<path id="8" d="M298 222.1333 C298 222.1333 296.92 206.8135 298 193.1333 C298.344 188.776 300.4559 188.5946 301 184.1333 C302.873 168.7744 303 152.1333 303 152.1333 "/>
<path id="9" d="M319 225.1333 C319 225.1333 323.729 149.4562 321 139.1333 C320.757 138.2143 297.6548 136.9612 296 138.1333 C295.1996 138.7003 296.2173 151.1763 297 156.1333 C297.0567 156.4925 298.9834 156.8426 299 157.1333 C299.507 166.0057 299 191.1333 299 191.1333 "/>
<path id="10" d="M304 237.1333 C304 237.1333 304.2155 241.5945 304 242.1333 C303.9655 242.2195 302.1835 242.3627 302 242.1333 C301.2431 241.1872 299.8784 237.498 300 237.1333 C300.0655 236.937 303.3236 235.9981 304 236.1333 C304.2492 236.1832 305 238.1333 305 238.1333 "/>
<path id="11" d="M304 241.1333 L305 249.1333 "/>
</g>
</g>
</svg>
