<?xml version="1.0" encoding="utf-8"?>
<!DOCTYPE svg PUBLIC "-//W3C//DTD SVG 1.1//EN" "http://www.w3.org/Graphics/SVG/1.1/DTD/svg11.dtd">
<svg viewBox="0 0 800 800" preserveAspectRatio="xMinYMin meet" xmlns="http://www.w3.org/2000/svg" version="1.1">
<g fill="none" stroke="black" stroke-linecap="round" stroke-linejoin="round" stroke-width="2.1265">
<g transform="translate(119.2618,87.52) scale(1.4107) translate(-82,-2.6333)">
<path id="0" d="M280 228.6333 C280 228.6333 273.8982 226.0757 268 225.6333 C254.4909 224.6201 253.204 224.5627 240 225.6333 C235.6412 225.9868 234.1218 226.221 231 228.6333 C224.4305 233.7098 222.928 235.5493 218 242.6333 C215.629 246.0417 215.3035 247.2831 215 251.6333 C213.8795 267.694 213.8607 270.0634 215 285.6333 C215.2419 288.9394 215.8243 290.2159 218 292.6333 C223.9439 299.2376 226.4794 304.3292 233 305.6333 C251.5243 309.3382 260.0354 307.4853 283 305.6333 C288.6967 305.1739 290.2224 303.4999 295 300.6333 C296.7199 299.6014 296.7411 298.7314 298 296.6333 C299.6929 293.8118 300.9015 293.3435 301 290.6333 C301.7899 268.912 303.4445 261.0476 300 241.6333 C298.9652 235.8008 294.5442 231.2841 290 228.6333 C286.2311 226.4348 276 227.6333 276 227.6333 "/>
<path id="1" d="M247 225.6333 C247 225.6333 243.5257 218.5422 243 211.6333 C240.1252 173.8497 243.4371 172.235 240 133.6333 C236.9746 99.6563 236.1813 99.0849 230 65.6333 C227.7616 53.5198 225.0709 53.5988 223 41.6333 C220.6716 28.1802 218.5392 20.4884 221 13.6333 C222.5103 9.4262 229.9547 3.514 237 2.6333 C262.9003 -0.6042 283.9981 2.3453 301 3.6333 C301.6111 3.6796 302.9645 5.822 303 7.6333 C303.8617 51.5799 305.6079 57.3878 303 105.6333 C301.6579 130.4613 300.6175 131.2907 295 155.6333 C290.2326 176.2921 285.9261 176.4418 282 196.6333 C279.1863 211.1037 281 227.6333 281 227.6333 "/>
<path id="2" d="M302 272.6333 C302 272.6333 318.728 278.373 330 283.6333 C331.1567 284.1731 331.1344 286.4636 332 286.6333 C348.8455 289.9364 360.0314 289.3619 381 293.6333 C383.418 294.1259 383.4451 296.918 386 297.6333 C405.9551 303.2208 408.9772 301.4471 431 307.6333 C453.2092 313.8719 454.6129 314.7281 475 322.6333 C477.681 323.6729 479.7414 325.0817 480 326.6333 C481.3912 334.9803 480.2485 349.4024 480 352.6333 C479.9985 352.6524 478.0745 352.4678 478 352.6333 C476.0834 356.8923 473.9415 366.4562 471 372.6333 C470.6938 373.2763 468.2867 373.0599 468 373.6333 C466.8532 375.927 467.8989 378.9939 466 382.6333 C462.3667 389.5972 461.0679 390.3959 456 396.6333 C454.9836 397.8843 454.2542 398.5851 453 398.6333 C443.6402 398.9933 438.655 401.2628 430 397.6333 C411.7124 389.9644 411.0953 383.1963 391 372.6333 C372.7279 363.0288 370.0286 366.3009 352 356.6333 C336.3657 348.2497 336.1081 347.0108 322 335.6333 C305.3515 322.2071 290 306.6333 290 306.6333 "/>
<path id="3" d="M233 308.6333 C233 308.6333 224.9704 326.4651 215 342.6333 C206.6619 356.1546 204.5033 355.3681 196 368.6333 C192.248 374.4864 193.8625 375.8947 190 381.6333 C176.734 401.3428 176.3385 402.1645 161 420.6333 C152.0985 431.3514 150.9953 434.9542 141 440.6333 C132.4461 445.4935 124.3087 446.4932 117 445.6333 C113.5476 445.2272 110.8587 441.7404 107 436.6333 C94.383 419.9343 90.5095 417.4545 83 400.6333 C79.7132 393.2708 79.5555 386.6632 82 380.6333 C84.9301 373.4058 89.0208 369.4834 98 363.6333 C120.1994 349.1701 123.9684 349.0167 148 337.6333 C150.8822 336.2681 153.4292 337.4187 155 336.6333 C155.5236 336.3715 155.2296 334.0996 156 333.6333 C169.4345 325.5019 175.4032 324.4621 193 313.6333 C200.9886 308.7173 202.522 307.72 208 301.6333 C210.2986 299.0793 209.2191 296.1775 211 293.6333 C211.8464 292.4242 214.4361 292.4792 215 291.6333 C215.4833 290.9083 214.4453 288.2672 215 287.6333 C216.404 286.0288 222 283.6333 222 283.6333 "/>
<path id="4" d="M270 277.6333 C270 277.6333 265.1053 278.6684 262 277.6333 C257.3421 276.0807 256.0204 275.2305 252 271.6333 C247.0709 267.223 245.2154 265.5565 243 260.6333 C241.6752 257.6892 241.7189 253.4482 243 251.6333 C245.3445 248.3119 249.4588 245.2165 255 243.6333 C261.2062 241.8601 265.5722 241.7545 271 243.6333 C275.4492 245.1734 278.0249 248.1707 281 252.6333 C282.9623 255.5768 282.3206 260.1047 283 261.6333 C283.0611 261.7707 284.9973 261.6073 285 261.6333 C285.2473 263.9823 286.766 276.3949 285 280.6333 C284.148 282.6782 279.7356 284.7877 275 285.6333 C267.1746 287.0307 262.4342 288.1034 257 285.6333 C250.4131 282.6393 247.3779 277.9093 242 270.6333 C240.046 267.9897 240 266.2857 240 262.6333 C240 257.6114 240.08 254.1933 242 251.6333 C243.92 249.0733 252 246.6333 252 246.6333 "/>
</g>
</g>
</svg>
