<?xml version="1.0" encoding="utf-8"?>
<!DOCTYPE svg PUBLIC "-//W3C//DTD SVG 1.1//EN" "http://www.w3.org/Graphics/SVG/1.1/DTD/svg11.dtd">
<svg viewBox="0 0 800 800" preserveAspectRatio="xMinYMin meet" xmlns="http://www.w3.org/2000/svg" version="1.1">
<g fill="none" stroke="black" stroke-linecap="round" stroke-linejoin="round" stroke-width="1.0849">
<g transform="translate(135.9129,87.52) scale(2.7653) translate(-193.3611,-177.25)">
<path id="0" d="M289.3611 259.25 C289.3611 259.25 283.6912 259.14 280.3611 260.25 C278.9339 260.7257 277.6317 261.8971 277.3611 263.25 C275.6776 271.6678 274.0855 277.341 275.3611 285.25 C275.9572 288.9456 279.42 293.2319 282.3611 294.25 C287.8856 296.1623 294.5257 296.0221 301.3611 294.25 C304.8921 293.3346 308.7808 289.8614 309.3611 287.25 C310.6539 281.4323 310.2036 274.5932 307.3611 267.25 C305.3263 261.9935 301.3836 258.0784 297.3611 256.25 C294.265 254.8427 289.8125 256.063 285.3611 257.25 C283.9821 257.6177 282.3611 260.25 282.3611 260.25 "/>
<path id="1" d="M298.3611 257.25 C298.3611 257.25 299.4602 251.9257 300.3611 251.25 C301.1927 250.6263 305.0319 250.3638 306.3611 251.25 C308.8719 252.9238 311.8642 256.7655 312.3611 259.25 C312.7068 260.9784 309.3611 266.25 309.3611 266.25 "/>
<path id="2" d="M300.3611 297.25 C300.3611 297.25 300.9197 305.6216 300.3611 306.25 C299.9197 306.7466 295.0736 306.9898 292.3611 306.25 C291.0665 305.8969 289.8551 304.5674 289.3611 303.25 C288.7623 301.6532 289.3611 298.25 289.3611 298.25 "/>
<path id="3" d="M275.3611 273.25 C275.3611 273.25 269.1099 274.9664 268.3611 276.25 C267.4097 277.8809 268.0652 284.9541 268.3611 285.25 C268.5255 285.4144 275.3611 283.25 275.3611 283.25 "/>
<path id="4" d="M289.3611 308.25 L308.3611 305.25 "/>
<path id="5" d="M292.3611 310.25 L284.3611 310.25 "/>
<path id="6" d="M284.3611 312.25 C284.3611 312.25 283.1513 331.1032 284.3611 349.25 C285.1219 360.6612 287.4098 360.8345 288.3611 372.25 C289.3804 384.4809 288.3611 397.25 288.3611 397.25 "/>
<path id="7" d="M309.3611 307.25 C309.3611 307.25 311.3369 308.4922 311.3611 309.25 C312.4396 343.0416 312.3611 401.25 312.3611 401.25 "/>
<path id="8" d="M289.3611 399.25 C289.3611 399.25 290.1377 403.2297 290.3611 403.25 C293.7712 403.56 311.3611 401.25 311.3611 401.25 "/>
<path id="9" d="M265.3611 269.25 L266.3611 291.25 "/>
<path id="10" d="M197.3611 298.25 C197.3611 298.25 198.075 296.2636 198.3611 296.25 C209.0708 295.74 221.09 297.7415 239.3611 296.25 C243.0717 295.9471 243.3912 293.1322 247.3611 292.25 C256.0453 290.3202 266.3611 290.25 266.3611 290.25 "/>
<path id="11" d="M198.3611 274.25 C198.3611 274.25 214.5619 275.8909 227.3611 274.25 C232.0576 273.6479 232.6647 269.8521 237.3611 269.25 C250.1603 267.6091 266.3611 269.25 266.3611 269.25 "/>
<path id="12" d="M193.3611 277.25 L204.3611 277.25 "/>
<path id="13" d="M193.3611 278.25 L195.3611 298.25 "/>
<path id="14" d="M299.3611 246.25 C299.3611 246.25 301.0724 252.4299 302.3611 253.25 C303.7441 254.1301 307.3117 252.4876 310.3611 253.25 C312.1717 253.7026 313.5381 254.7685 314.3611 256.25 C315.3943 258.1097 314.292 260.1117 315.3611 262.25 C316.348 264.2238 317.3574 265.4485 319.3611 266.25 C323.5832 267.9388 330.3611 268.25 330.3611 268.25 "/>
<path id="15" d="M298.3611 242.25 C298.3611 242.25 299.876 247.2034 302.3611 249.25 C307.1368 253.1829 310.4119 252.0078 315.3611 256.25 C319.901 260.1413 323.3611 267.25 323.3611 267.25 "/>
<path id="16" d="M323.3611 267.25 C323.3611 267.25 329.2593 263.2129 332.3611 258.25 C338.6973 248.1121 336.3408 244.2448 343.3611 235.25 C351.0049 225.4564 355.0316 227.0346 364.3611 217.25 C375.1742 205.9095 384.3611 192.25 384.3611 192.25 "/>
<path id="17" d="M299.3611 242.25 C299.3611 242.25 309.7904 235.4634 316.3611 227.25 C322.9778 218.9792 320.3936 214.8973 327.3611 207.25 C339.5066 193.9196 357.3611 182.25 357.3611 182.25 "/>
<path id="18" d="M357.3611 183.25 C357.3611 183.25 365.4411 177.1792 366.3611 177.25 C366.8501 177.2876 367.8922 182.3297 370.3611 184.25 C375.4441 188.2035 384.3611 191.25 384.3611 191.25 "/>
<path id="19" d="M292.3611 274.25 C292.3611 274.25 291.0256 283.4111 291.3611 284.25 C291.431 284.4248 294.8402 284.926 296.3611 284.25 C298.1187 283.4689 299.8427 281.6325 300.3611 280.25 C300.7028 279.3388 299.6903 276.4146 299.3611 276.25 C298.8673 276.0031 294.3611 277.25 294.3611 277.25 "/>
</g>
</g>
</svg>
