<?xml version="1.0" encoding="utf-8"?>
<!DOCTYPE svg PUBLIC "-//W3C//DTD SVG 1.1//EN" "http://www.w3.org/Graphics/SVG/1.1/DTD/svg11.dtd">
<svg viewBox="0 0 800 800" preserveAspectRatio="xMinYMin meet" xmlns="http://www.w3.org/2000/svg" version="1.1">
<g fill="none" stroke="black" stroke-linecap="round" stroke-linejoin="round" stroke-width="1.7089">
<g transform="translate(87.52,133.1631) scale(1.7555) translate(-122,-85)">
<path id="0" d="M290 195 C290 195 273.6599 191.8041 262 193 C257.1274 193.4998 254.8725 195.3427 251 199 C246.9597 202.8158 244.9055 204.955 244 210 C241.9313 221.5255 242.6219 225.9413 244 238 C244.367 241.2115 245.5277 242.1745 248 245 C252.1794 249.7764 252.7572 251.177 258 254 C264.601 257.5544 266.4153 258.4944 274 259 C287.4047 259.8936 292.3217 259.6696 303 257 C306.1673 256.2082 307.77 253.8228 310 250 C314.2419 242.7281 315.2626 241.1908 317 233 C318.5039 225.9102 318.28 224.1679 317 217 C315.9686 211.2241 315.4385 209.2026 312 205 C307.5901 199.6102 305.1421 196.7141 299 195 C287.1137 191.6829 269 193 269 193 "/>
<path id="1" d="M314 202 C314 202 321.5382 200.2309 328 197 C337.2032 192.3984 336.849 190.2895 346 186 C352.2736 183.0593 354.329 185.2651 360 182 C369.6133 176.4651 368.8443 172.0083 379 167 C403.7596 154.7898 406.9713 157.5683 433 146 C442.4069 141.8192 450.7747 134.7447 451 135 C454.9602 139.4882 470.7974 178.2733 478 197 C478.222 197.5771 477.112 199.5492 476 200 C462.2172 205.5876 458.6389 207.2612 441 212 C425.4893 216.167 425.0506 215.4778 409 218 C390.1026 220.9696 389.9177 221.9251 371 223 C346.2929 224.4038 328.707 221.7911 321 223 C320.6524 223.0545 320 231 320 231 "/>
<path id="2" d="M265 257 C265 257 219.3815 365.0375 216 379 C215.9586 379.1711 225.0287 383.3309 234 385 C245.9072 387.2153 259 387 259 387 "/>
<path id="3" d="M293 259 C293 259 293.842 285.4218 291 311 C287.3961 343.4353 286.3165 344.4174 280 376 C278.9848 381.0758 278.3904 382.1156 276 386 C274.9524 387.7024 273.7272 388.8213 272 389 C261.9822 390.0363 247 389 247 389 "/>
<path id="4" d="M122 111 C122 111 171.0316 85 178 85 C179.4932 85 182.5579 99.2167 190 111 C206.1207 136.5244 208.9042 135.4879 226 161 C241.322 183.8651 255 208 255 208 "/>
<path id="5" d="M123 113 C123 113 150.9824 156.7153 183 192 C198.2312 208.7854 201.4468 207.9645 221 221 C232.4818 228.6546 246 234 246 234 "/>
<path id="6" d="M296 227 C296 227 296.7197 222.6387 296 220 C295.5047 218.1837 294.3174 216.3293 293 216 C285.9191 214.2298 276.9252 212.3016 272 214 C269.0566 215.015 266.0089 220.4754 264 226 C262.6525 229.7055 262.703 232.665 264 236 C265.3906 239.5759 267.8432 242.8635 271 244 C276.8663 246.1119 283.9642 245.5036 289 245 C289.6471 244.9353 290.6017 243.5268 291 242 C293.38 232.8767 295.2524 228.5633 295 222 C294.9212 219.9522 290.6572 216.2464 290 216 C289.83 215.9363 287 219 287 219 "/>
</g>
</g>
</svg>
