<?xml version="1.0" encoding="utf-8"?>
<!DOCTYPE svg PUBLIC "-//W3C//DTD SVG 1.1//EN" "http://www.w3.org/Graphics/SVG/1.1/DTD/svg11.dtd">
<svg viewBox="0 0 800 800" preserveAspectRatio="xMinYMin meet" xmlns="http://www.w3.org/2000/svg" version="1.1">
<g fill="none" stroke="black" stroke-linecap="round" stroke-linejoin="round" stroke-width="1.1617">
<g transform="translate(87.52,149.4995) scale(2.5825) translate(-121,-61.4167)">
<path id="0" d="M225 61.4167 C225 61.4167 222.1015 76.4359 221 91.4167 C219.6156 110.2445 220 129.4167 220 129.4167 "/>
<path id="1" d="M226 63.4167 C226 63.4167 233.9955 63.3524 234 63.4167 C234.5688 71.4939 231 134.4167 231 134.4167 "/>
<path id="2" d="M222 129.4167 L232 129.4167 "/>
<path id="3" d="M223 130.4167 C223 130.4167 217.4104 137.3118 214 144.4167 C211.6842 149.2412 211 155.4167 211 155.4167 "/>
<path id="4" d="M211 155.4167 L242 155.4167 "/>
<path id="5" d="M242 155.4167 C242 155.4167 243.2942 149.7239 242 146.4167 C239.4805 139.9779 233 132.4167 233 132.4167 "/>
<path id="6" d="M246 155.4167 C246 155.4167 223.0176 153.1127 209 154.4167 C206.5445 154.6451 204.4039 157.0099 203 159.4167 C201.7475 161.5638 201.1663 164.9346 202 166.4167 C203.894 169.7838 207.0081 173.198 212 175.4167 C218.537 178.322 220.5655 177.7841 229 178.4167 C240.2623 179.2613 243.5978 180.3139 252 178.4167 C255.4999 177.6264 258.3654 174.6858 260 171.4167 C261.7089 167.9989 261.5111 163.9946 261 160.4167 C260.8386 159.2868 259.615 158.2242 258 157.4167 C254.2317 155.5325 253.2451 154.8026 249 154.4167 C243.0902 153.8794 236 155.4167 236 155.4167 "/>
<path id="7" d="M208 155.4167 C208 155.4167 191.8949 144.8641 175 136.4167 C156.1175 126.9754 136 119.4167 136 119.4167 "/>
<path id="8" d="M136 119.4167 C136 119.4167 131.2455 120.5068 130 122.4167 C125.339 129.5635 121 142.4167 121 142.4167 "/>
<path id="9" d="M122 142.4167 C122 142.4167 122.1282 145.7034 123 146.4167 C125.8752 148.7691 127.9875 149.9547 133 151.4167 C139.3796 153.2774 141.071 151.3544 147 153.4167 C151.4731 154.9725 151.3683 157.564 156 159.4167 C163.1507 162.2769 164.5954 160.5504 172 163.4167 C179.636 166.3726 179.3505 168.729 187 171.4167 C197.2032 175.0016 209 176.4167 209 176.4167 "/>
<path id="10" d="M218 180.4167 C218 180.4167 218.7241 190.2328 217 197.4167 C216.0799 201.2503 213.4475 201.2265 212 205.4167 C204.2863 227.7458 198 252.4167 198 252.4167 "/>
<path id="11" d="M249 181.4167 C249 181.4167 247.2015 195.4622 243 208.4167 C235.3307 232.0638 225 255.4167 225 255.4167 "/>
<path id="12" d="M200 252.4167 C200 252.4167 210.0493 251.4228 218 252.4167 C220.8159 252.7687 224 255.4167 224 255.4167 "/>
<path id="13" d="M254 156.4167 C254 156.4167 257.0518 157.1959 259 156.4167 C270.611 151.7723 271.2054 149.507 284 144.4167 C317.4951 131.0907 352 119.4167 352 119.4167 "/>
<path id="14" d="M353 119.4167 L363 156.4167 "/>
<path id="15" d="M258 177.4167 C258 177.4167 291.8896 174.9005 324 168.4167 C343.1397 164.5519 362 156.4167 362 156.4167 "/>
</g>
</g>
</svg>
