<?xml version="1.0" encoding="utf-8"?>
<!DOCTYPE svg PUBLIC "-//W3C//DTD SVG 1.1//EN" "http://www.w3.org/Graphics/SVG/1.1/DTD/svg11.dtd">
<svg viewBox="0 0 800 800" preserveAspectRatio="xMinYMin meet" xmlns="http://www.w3.org/2000/svg" version="1.1">
<g fill="none" stroke="black" stroke-linecap="round" stroke-linejoin="round" stroke-width="1.1473">
<g transform="translate(273.1776,87.52) scale(2.6149) translate(-169,-95)">
<path id="0" d="M196 98 C196 98 179.4013 102.423 178 103 C177.9877 103.0051 179.1467 104.7554 179 105 C177.7213 107.1312 174.3017 108.8569 172 113 C169.7413 117.0656 169.1052 118.2671 169 123 C168.6348 139.4346 167.0677 144.8924 171 158 C173.0876 164.9588 183.9433 172.8865 184 173 C184.0106 173.0211 179.3343 172.7624 178 172 C177.4489 171.6851 177 169 177 169 "/>
<path id="1" d="M194 95 C194 95 196.6723 94.3045 198 95 C205.5553 98.9576 208.1467 99.6194 215 106 C221.7665 112.2998 223.1615 114.9628 227 122 C228.0215 123.8728 226.775 127.325 227 128 C227.025 128.075 228.9996 127.9896 229 128 C229.2496 133.9896 227.3564 152.6604 229 176 C229.7996 187.3548 234 199 234 199 "/>
<path id="2" d="M185 168 C185 168 201.8613 190.3722 215 213 C219.3117 220.4257 219.0333 221.5714 221 230 C222.4144 236.0619 220.2555 237.5484 222 243 C223.865 248.8282 227.2169 248.8864 229 255 C233.8309 271.5629 231.251 274.0391 236 291 C237.9967 298.1311 241.0084 297.9389 243 305 C246.2575 316.5494 244.3702 319.1052 247 330 C247.4785 331.9822 248.7953 333.6988 250 334 C253.9153 334.9788 261.4523 334.8844 263 334 C263.6633 333.621 264.2547 328.5468 264 326 C263.9291 325.2908 262 324 262 324 "/>
<path id="3" d="M235 199 C235 199 243.8614 211.6549 247 224 C250.8896 239.299 246.9623 241.707 250 258 C252.3285 270.4894 255.8592 270.5836 258 283 C260.706 298.6949 257.335 302.0086 260 316 C260.8098 320.2513 266 325 266 325 "/>
<path id="4" d="M222 214 L236 214 "/>
<path id="5" d="M228 240 C228 240 233.6606 243.0292 239 244 C244.0083 244.9106 250 244 250 244 "/>
<path id="6" d="M244 278 L257 278 "/>
</g>
</g>
</svg>
