<?xml version="1.0" encoding="utf-8"?>
<!DOCTYPE svg PUBLIC "-//W3C//DTD SVG 1.1//EN" "http://www.w3.org/Graphics/SVG/1.1/DTD/svg11.dtd">
<svg viewBox="0 0 800 800" preserveAspectRatio="xMinYMin meet" xmlns="http://www.w3.org/2000/svg" version="1.1">
<g fill="none" stroke="black" stroke-linecap="round" stroke-linejoin="round" stroke-width="1.0657">
<g transform="translate(349.3276,87.52) scale(2.8151) translate(-229,-104)">
<path id="0" d="M234 318 C234 318 249.5242 315.7072 250 316 C250.1016 316.0625 248.3465 324.6535 247 326 C246.2749 326.7251 242.4976 326.8325 240 326 C237.7403 325.2468 235 322 235 322 "/>
<path id="1" d="M235 322 L234 318 "/>
<path id="2" d="M229 126 C229 126 228.8948 118.6362 231 115 C233.2874 111.049 235.4783 108.9895 240 107 C246.2552 104.2477 249.4115 103.7365 256 104 C259.8004 104.152 264.9347 106.908 265 108 C266.625 135.161 267.6398 165.9852 263 221 C260.7856 247.2569 254.4887 247.8349 251 274 C248.6359 291.7309 252.1561 294.0444 251 311 C250.7749 314.3016 248 318 248 318 "/>
<path id="3" d="M233 116 C233 116 229.2892 122.7096 229 129 C227.3767 164.3073 228.7758 166.0036 229 203 C229.2757 248.4986 228.136 248.8917 230 294 C230.6176 308.946 234 324 234 324 "/>
</g>
</g>
</svg>
