<?xml version="1.0" encoding="utf-8"?>
<!DOCTYPE svg PUBLIC "-//W3C//DTD SVG 1.1//EN" "http://www.w3.org/Graphics/SVG/1.1/DTD/svg11.dtd">
<svg viewBox="0 0 800 800" preserveAspectRatio="xMinYMin meet" xmlns="http://www.w3.org/2000/svg" version="1.1">
<g fill="none" stroke="black" stroke-linecap="round" stroke-linejoin="round" stroke-width="0.94086">
<g transform="translate(87.52,358.5486) scale(3.1886) translate(-178,-210.4167)">
<path id="0" d="M181 210.4167 C181 210.4167 180.7819 222.7255 180 227.4167 C179.9393 227.781 178.0498 228.1675 178 228.4167 C177.8647 229.0931 178.0858 231.3718 179 232.4167 C180.7347 234.3992 185 236.4167 185 236.4167 "/>
<path id="1" d="M180 212.4167 C180 212.4167 195.1692 210.7784 210 210.4167 C215.4171 210.2845 218.4981 210.5827 221 211.4167 C221.4415 211.5638 221.7297 214.3982 222 214.4167 C238.1745 215.5245 258.007 215.8629 294 216.4167 C322.982 216.8625 351.3799 216.4505 352 216.4167 C352.0303 216.415 349 213.4167 349 213.4167 "/>
<path id="2" d="M183 236.4167 C183 236.4167 221.0125 236.1654 257 232.4167 C267.9413 231.2769 268.1545 227.2673 279 226.4167 C317.6881 223.3823 359 224.4167 359 224.4167 "/>
<path id="3" d="M351 218.4167 C351 218.4167 359.1349 219.5627 362 218.4167 C363.667 217.7499 365.5539 212.4167 366 212.4167 C366.8921 212.4167 372.7961 215.8585 374 218.4167 C375.3561 221.2985 374.6875 228.7292 374 229.4167 C373.3125 230.1042 367.373 230.4456 363 229.4167 C360.2406 228.7674 357 225.4167 357 225.4167 "/>
</g>
</g>
</svg>
