<?xml version="1.0" encoding="utf-8"?>
<!DOCTYPE svg PUBLIC "-//W3C//DTD SVG 1.1//EN" "http://www.w3.org/Graphics/SVG/1.1/DTD/svg11.dtd">
<svg viewBox="0 0 800 800" preserveAspectRatio="xMinYMin meet" xmlns="http://www.w3.org/2000/svg" version="1.1">
<g fill="none" stroke="black" stroke-linecap="round" stroke-linejoin="round" stroke-width="0.90246">
<g transform="translate(87.52,180.5991) scale(3.3243) translate(-113,-178.6667)">
<path id="0" d="M140 274.6667 C140 274.6667 153.2667 260.9689 168 249.6667 C189.4796 233.1891 193.5696 235.7056 213 218.6667 C224.5208 208.5639 221.937 202.9579 233 192.6667 C242.0193 184.2766 245.6074 181.8834 256 178.6667 C263.1064 176.4671 272.6319 177.7104 275 179.6667 C277.2539 181.5286 279 189.3326 279 197.6667 C279 208.3157 279.6276 213.3264 275 220.6667 C267.9719 231.8146 263.3563 233.6082 250 243.6667 C223.2952 263.7777 222.0097 263.9547 194 281.6667 C188.6935 285.0223 188.0107 285.164 182 286.6667 C174.5149 288.5379 172.8955 285.9786 166 288.6667 C144.9653 296.8666 123 309.6667 123 309.6667 "/>
<path id="1" d="M139 271.6667 C139 271.6667 135.095 276.1192 132 277.6667 C130.4525 278.4404 128.0897 276.8064 127 277.6667 C121.368 282.113 113 292.6667 113 292.6667 "/>
<path id="2" d="M114 295.6667 C114 295.6667 112.1273 304.0485 113 306.6667 C113.4909 308.1394 116.231 309.7437 119 310.6667 C121.2656 311.4219 124.8836 310.9382 125 310.6667 C125.6336 309.1882 126.2874 301.8164 125 296.6667 C124.3333 293.9999 122.6208 292.5727 120 290.6667 C117.9135 289.1492 114 288.6667 114 288.6667 "/>
<path id="3" d="M275 256.6667 C275 256.6667 274.1727 242.8915 277 234.6667 C278.6317 229.9199 282.4123 226.2811 286 224.6667 C288.8037 223.405 294.767 224.178 297 225.6667 C298.914 226.9427 300.447 230.3812 301 234.6667 C302.2784 244.5741 302.2643 248.1324 301 256.6667 C300.6786 258.8362 298.8677 261.0441 297 261.6667 C291.1771 263.6076 283.9 264.7303 280 263.6667 C278.2978 263.2024 275 255.6667 275 255.6667 "/>
<path id="4" d="M277 236.6667 C277 236.6667 279.7018 238.2949 280 239.6667 C281.6686 247.3423 282 259.6667 282 259.6667 "/>
<path id="5" d="M294 230.6667 C294 230.6667 292.4279 238.801 293 245.6667 C293.3548 249.9242 294.4603 252.4672 296 254.6667 C296.5271 255.4197 300 255.6667 300 255.6667 "/>
</g>
</g>
</svg>
