<?xml version="1.0" encoding="utf-8"?>
<!DOCTYPE svg PUBLIC "-//W3C//DTD SVG 1.1//EN" "http://www.w3.org/Graphics/SVG/1.1/DTD/svg11.dtd">
<svg viewBox="0 0 800 800" preserveAspectRatio="xMinYMin meet" xmlns="http://www.w3.org/2000/svg" version="1.1">
<g fill="none" stroke="black" stroke-linecap="round" stroke-linejoin="round" stroke-width="1.5985">
<g transform="translate(87.52,229.2151) scale(1.8768) translate(-112,-180)">
<path id="0" d="M120 358 C120 358 119.85 360.925 120 361 C120.6 361.3 125.625 361.375 126 361 C126.375 360.625 126.8832 356.9136 126 355 C124.562 351.8843 122.5889 349.2944 120 348 C117.8199 346.91 112.0707 347.8021 112 348 C111.6802 348.8956 113.6038 360.0453 115 362 C115.4325 362.6054 122 362 122 362 "/>
<path id="1" d="M120 347 C120 347 128.1633 345.6045 135 343 C138.113 341.8141 139.2653 340.9825 141 339 C141.9142 337.9551 141.1109 335.6421 142 335 C147.3729 331.1196 153.6271 329.8804 159 326 C159.8891 325.3579 159.0793 322.6313 160 322 C171.7369 313.9518 181.3445 310.3164 194 302 C194.7977 301.4758 194.1703 299.5926 195 299 C210.9144 287.6326 216.558 286.105 236 272 C241.5369 267.9831 241.7968 264.8021 246 262 C247.261 261.1594 249.6277 262.9149 251 262 C261.5208 254.9861 264.8289 252.9335 276 242 C287.891 230.362 286.6398 227.0159 298 216 C302.0468 212.0758 304.4527 213.7633 309 210 C318.3695 202.2459 318.8479 198.4537 327 192 C328.7168 190.6409 330.5853 192.2073 333 191 C341.7299 186.635 342.6615 183.0575 351 180 C355.5414 178.3348 359.0658 178.6886 363 180 C365.6228 180.8743 367.58 183.3967 369 186 C369.7657 187.4037 369 191 369 191 "/>
<path id="2" d="M121 352 C121 352 129.7225 353.4393 135 352 C138.6325 351.0093 138.7669 347.852 143 346 C153.9563 341.2066 161.9564 340.1015 167 338 C167.1538 337.9359 166.8529 336.063 167 336 C169.6965 334.8443 174.7408 334.6825 181 332 C184.6417 330.4393 184.3301 328.1444 188 327 C228.0829 314.501 231.7629 316.3751 274 303 C291.3431 297.508 291.9845 297.1533 308 289 C318.9531 283.4239 319.0197 282.5461 329 275 C339.381 267.1509 340.8545 267.5031 349 258 C361.1331 243.8447 362.0372 241.7744 371 226 C373.7602 221.142 373.4331 219.9525 374 214 C375.3887 199.4186 375.3887 197.2159 375 184 C374.9474 182.2102 373.8125 180.325 373 180 C371.1945 179.2778 365 180 365 180 "/>
<path id="3" d="M180 330 C180 330 176.3267 327.0324 175 324 C173.2378 319.9722 172.8509 314.7456 173 314 C173.0124 313.9379 175.8866 313.3814 177 314 C179.165 315.2028 181.2714 316.8143 182 319 C183.0928 322.2785 181.7596 327.7981 182 329 C182.0096 329.0481 184 329 184 329 C184 329.0214 182.1923 331.0385 182 331 C181.5673 330.9135 179.1415 329.132 179 328 C178.4602 323.6817 180.2057 316.3373 180 315 C179.9926 314.952 177.135 314.82 177 315 C176.76 315.32 176.4826 318.3963 177 319 C178.0534 320.2289 183 322 183 322 "/>
<path id="4" d="M185 305 C185 305 189.4081 306.5624 190 308 C191.7345 312.2124 190.4292 318.8584 192 322 C192.5236 323.0472 197.0229 324 198 324 C198.1629 324 199 322 199 322 "/>
<path id="5" d="M416 226 C416 226 412.4763 239.1917 413 246 C413.1691 248.1988 416.3559 251.8238 418 252 C424.6075 252.7079 435.9123 251.0351 441 249 C442.0091 248.5963 442.2875 243.2468 443 242 C443.1 241.825 444.9956 242.0328 445 242 C445.2456 240.1578 445.3943 234.0982 445 227 C444.9197 225.5541 444.5236 224.2618 444 224 C442.4292 223.2146 440.4806 223.1657 437 223 C430.0859 222.6708 427.0863 222.2338 423 223 C422.2521 223.1402 421.846 225.577 421 226 C420.0332 226.4834 417.4707 225.6234 417 226 C416.5058 226.3954 415.8996 229.7992 416 230 C416.043 230.0861 418.6914 229.64 419 230 C420.1487 231.3401 421.342 233.5454 422 237 C423.2333 243.4746 423 251 423 251 "/>
<path id="6" d="M435 251 C435 251 433.4662 232.4728 434 225 C434.0456 224.3618 437 223 437 223 "/>
</g>
</g>
</svg>
