<?xml version="1.0" encoding="utf-8"?>
<!DOCTYPE svg PUBLIC "-//W3C//DTD SVG 1.1//EN" "http://www.w3.org/Graphics/SVG/1.1/DTD/svg11.dtd">
<svg viewBox="0 0 800 800" preserveAspectRatio="xMinYMin meet" xmlns="http://www.w3.org/2000/svg" version="1.1">
<g fill="none" stroke="black" stroke-linecap="round" stroke-linejoin="round" stroke-width="1.8049">
<g transform="translate(87.52,139.046) scale(1.6621) translate(-125,-98)">
<path id="0" d="M131,385C131,385 131.88215475103968,381.0215795558258 134,379C152.28847616029276,361.54281821062966 155.65732900615342,362.04736303974203 175,343C220.9414992441966,297.75989769082934 218.16468270815557,294.1933250343558 265,250C315.29033738056534,202.54655344603063 315.9448442754755,201.40254730486654 370,159C398.61678769582545,136.5521006697417 400.4181613423412,137.57755215156402 432,119C451.1141802054606,107.75636458502315 452.79124563927013,105.61284986189061 472,99C480.7446846775071,95.9895347831533 488.5471653174665,96.09164227891422 493,98C495.72117675043716,99.16621860733021 497.88080977658234,104.64242932974694 500,111C501.56635799122176,115.69907397366529 501.3070439084158,117.70138528217872 501,122C500.9116997910438,123.23620292538651 500.2690824433263,124.06685114461301 499,125C484.46323746735333,135.68879597988726 481.452449587614,135.06101990588405 467,147C459.16010966911056,153.47643114290864 460.5422537997714,155.996478614498 453,163C446.9139239140458,168.65135636552887 445.3320973063974,167.38745920569323 439,173C423.57259393838973,186.67429173642728 425.2882285933969,190.20507584616087 409,202C382.9322264499185,220.8766636052314 380.8065874298747,220.51645925644235 352,236C341.3470159072848,241.72597894983443 339.876631065176,239.70112845542707 329,245C320.71013325182275,249.03865303116328 320.43912751996544,249.3642973333595 313,255C287.661069501403,274.19615946863405 288.74857590984254,276.40380628733595 263,295C244.0512240663483,308.6852270631929 241.74837040703895,306.76585618326663 223,320C216.8972141226067,324.30784885463055 216.70867141777185,325.06297951672246 212,331C205.43090945562596,339.28276633855853 207.31944590074525,342.18534347171993 200,349C179.7618198475797,367.8424435901844 166.9129041503231,369.39690748502624 154,385C149.8760464398875,389.9831105518026 153.7779302555604,397.754762671086 152,407C151.63647130513456,408.8903492133003 150.45710678118655,410.2714466094067 149,411C146.81433982822017,412.0928300858899 143.13363848804332,412.87599337712436 142,412C136.73726950076238,407.93334461422546 131.60813261122095,402.67413197406296 127,394C124.32717217977316,388.96879469133773 125.36498388648978,385.8397421838365 125,380C124.94993583857884,379.19897341726135 125.75080677465945,378.0498386450681 126,378C126.67638161163864,377.86472367767226 130,379 130,379"/>
</g>
</g>
</svg>
