<?xml version="1.0" encoding="utf-8"?>
<!DOCTYPE svg PUBLIC "-//W3C//DTD SVG 1.1//EN" "http://www.w3.org/Graphics/SVG/1.1/DTD/svg11.dtd">
<svg viewBox="0 0 800 800" preserveAspectRatio="xMinYMin meet" xmlns="http://www.w3.org/2000/svg" version="1.1">
<g fill="none" stroke="black" stroke-linecap="round" stroke-linejoin="round" stroke-width="0.92646">
<g transform="translate(173.3306,87.52) scale(3.2381) translate(-189,-141.1333)">
<path id="0" d="M189 152.1333 C189 152.1333 192.4208 162.6005 198 171.1333 C209.0635 188.0539 211.6951 187.176 223 204.1333 C229.4491 213.807 227.4581 215.572 234 225.1333 C246.6494 243.6209 249.1505 242.573 262 261.1333 C271.4586 274.7958 279 290.1333 279 290.1333 "/>
<path id="1" d="M191 153.1333 C191 153.1333 194.459 146.1685 198 143.1333 C199.9817 141.4348 201.5677 141.5371 205 141.1333 C209.7438 140.5752 211.2154 140.0202 215 141.1333 C218.2058 142.0762 222 146.1333 222 146.1333 "/>
<path id="2" d="M222 146.1333 C222 146.1333 240.7509 172.7542 256 200.1333 C262.3913 211.6086 260.1058 213.1416 266 225.1333 C288.9725 271.8705 314 318.1333 314 318.1333 "/>
<path id="3" d="M279 287.1333 C279 287.1333 281.8607 287.719 283 289.1333 C294.8116 303.796 308 323.1333 308 323.1333 "/>
<path id="4" d="M310 322.1333 C310 322.1333 305.1417 326.6217 304 329.1333 C303.5839 330.0488 304.5751 333.0084 305 333.1333 C308.1807 334.0688 315.1163 334.9739 321 334.1333 C323.0672 333.838 324.8687 332.2545 326 330.1333 C328.1381 326.1244 329.3659 322.0605 329 319.1333 C328.8063 317.5836 325.7139 314.5006 324 314.1333 C321.5804 313.6148 315 316.1333 315 316.1333 "/>
<path id="5" d="M275 274.1333 C275 274.1333 280.8793 270.0536 286 268.1333 C287.9323 267.4087 291 268.1333 291 268.1333 "/>
<path id="6" d="M281 287.1333 C281 287.1333 284.156 284.6666 287 284.1333 C291.3337 283.3208 297 284.1333 297 284.1333 "/>
<path id="7" d="M293 299.1333 L304 295.1333 "/>
<path id="8" d="M303 308.1333 L311 305.1333 "/>
</g>
</g>
</svg>
