<?xml version="1.0" encoding="utf-8"?>
<!DOCTYPE svg PUBLIC "-//W3C//DTD SVG 1.1//EN" "http://www.w3.org/Graphics/SVG/1.1/DTD/svg11.dtd">
<svg viewBox="0 0 800 800" preserveAspectRatio="xMinYMin meet" xmlns="http://www.w3.org/2000/svg" version="1.1">
<g fill="none" stroke="black" stroke-linecap="round" stroke-linejoin="round" stroke-width="2.0401">
<g transform="translate(87.52,113.9889) scale(1.4705) translate(-41,-59.8)">
<path id="0" d="M60 413.8 C60 413.8 62.3564 409.0327 64 407.8 C64.7735 407.2199 67.68 408.04 68 407.8 C68.18 407.665 67.6682 405.0212 68 404.8 C70.5439 403.1041 77.4561 401.496 80 399.8 C80.3318 399.5788 79.5871 397.1097 80 396.8 C85.3214 392.809 91.0879 391.2167 100 384.8 C102.9002 382.7119 102.9554 380.3334 105 378.8 C105.6456 378.3158 107.8125 378.9875 108 378.8 C108.1875 378.6125 107.7653 375.9564 108 375.8 C108.7822 375.2785 112.2427 376.0552 114 374.8 C117.7762 372.1027 117.7405 368.7144 122 365.8 C126.1328 362.9723 129.107 364.548 133 361.8 C136.2801 359.4847 137.8502 357.6805 139 353.8 C141.3039 346.0243 139.4706 340.1529 141 334.8 C141.2456 333.9404 144.244 333.934 145 332.8 C146.35 330.775 145.4428 327.7032 147 325.8 C148.7539 323.6564 152.4407 323.7492 154 321.8 C155.1045 320.4194 154.0655 317.0459 155 315.8 C155.796 314.7386 158.9784 315.2302 160 313.8 C164.7936 307.089 164.3218 303.4667 170 294.8 C173.5326 289.4081 176.0179 289.5714 179 284.8 C180.2644 282.7769 179.4785 279.5822 180 278.8 C180.1564 278.5653 182.7941 279.0882 183 278.8 C183.8097 277.6664 183.0657 273.9011 185 271.8 C208.5311 246.2404 211.6991 241.0486 241 215.8 C257.7344 201.38 261.1206 204.0307 279 190.8 C285.6075 185.9105 287.1618 183.5978 291 178.8 C291.5331 178.1336 290.5468 176.2532 291 175.8 C293.266 173.534 297 173.2286 300 169.8 C303.1081 166.2479 301.5578 163.2422 305 159.8 C317.6213 147.1787 322.4388 146.5761 335 134.8 C336.572 133.3263 335.4651 131.0378 337 129.8 C348.4827 120.5397 354.5173 119.0603 366 109.8 C367.5349 108.5622 366.963 105.4914 368 104.8 C369.4907 103.8062 373.6998 104.6126 375 103.8 C375.5968 103.427 375.5175 100.2825 376 99.8 C376.2895 99.5105 378.3886 100.3174 379 99.8 C382.9351 96.4703 383.6003 93.1712 389 88.8 C393.5293 85.1335 397.3948 84.9315 400 82.8 C400.4019 82.4711 399.5318 80.4555 400 79.8 C401.1816 78.1458 402.5399 76.8251 405 75.8 C407.7369 74.6596 411.0705 75.3312 412 74.8 C412.2105 74.6797 411.6686 72.0131 412 71.8 C415.0688 69.8272 418.8871 67.6555 426 65.8 C441.3384 61.7987 449.6014 58.9601 458 59.8 C460.4072 60.0407 465.4905 65.5785 466 69.8 C468.2246 88.2327 465.5184 111.5798 465 117.8 C464.9973 117.8323 462.3715 117.3542 462 117.8 C457.8394 122.7927 456.9136 128.0483 450 135.8 C440.912 145.9896 437.913 144.4015 429 154.8 C417.4372 168.2899 419.4749 171.5133 408 184.8 C401.1627 192.7168 397.3051 192.4949 391 198.8 C389.9831 199.8169 390.9827 201.9265 390 202.8 C384.032 208.1049 377.8201 210.547 373 214.8 C372.5375 215.2081 373.5198 217.0852 373 217.8 C370.6056 221.0923 368.2923 223.4056 365 225.8 C364.2852 226.3198 362.4532 225.3468 362 225.8 C359.734 228.066 358.8382 231.9618 356 234.8 C355.0539 235.7461 352.4825 235.3175 352 235.8 C351.7105 236.0895 352.5389 238.2524 352 238.8 C330.2619 260.8887 321.9381 270.1148 290 298.8 C268.1644 318.4116 258.7251 322.9956 244 335.8 C243.5086 336.2273 244.2105 338.6797 244 338.8 C243.0705 339.3312 237.9295 339.2688 237 339.8 C236.7895 339.9203 237.3368 342.6026 237 342.8 C229.8747 346.9769 215.1253 352.6231 208 356.8 C207.6632 356.9974 208.1563 359.7375 208 359.8 C206.6452 360.3419 199.3548 360.2581 198 360.8 C197.8437 360.8625 198.1222 363.7624 198 363.8 C196.2384 364.342 186.7616 364.258 185 364.8 C184.8778 364.8376 185.3195 367.5337 185 367.8 C184.0202 368.6165 181.9086 369.5471 179 369.8 C170.9912 370.4964 167.6175 368.0024 162 369.8 C158.5106 370.9166 158.0107 375.4407 154 377.8 C150.7877 379.6896 146.5286 379.1206 145 379.8 C144.8626 379.8611 145.1 381.75 145 381.8 C144.6 382 141.4707 381.4234 141 381.8 C140.5058 382.1954 140.7717 385.2856 140 385.8 C137.1237 387.7175 132.2306 387.5634 129 389.8 C127.7186 390.6871 128.1921 393.8728 127 394.8 C125.2681 396.147 122.1458 395.2394 120 396.8 C117.8772 398.3438 117.6436 401.5673 116 402.8 C115.2265 403.3801 113.1954 402.1169 112 402.8 C107.6453 405.2884 104.8069 407.7125 102 410.8 C101.5073 411.342 102.2105 413.6797 102 413.8 C101.0705 414.3312 95.9295 414.2688 95 414.8 C94.7895 414.9203 95.4675 417.3659 95 417.8 C91.092 421.4289 87.2503 424.6749 81 427.8 C79.0262 428.7869 75.0436 427.6343 75 427.8 C74.4826 429.7662 76.5087 441.4589 76 446.8 C75.9385 447.4458 73.8431 448.9204 73 448.8 C69.4056 448.2865 64.3874 447.4683 62 444.8 C58.487 440.8737 59.6242 435.8404 56 429.8 C54.3243 427.0071 51.0761 426.9522 50 424.8 C49.0584 422.9169 50.2311 418.609 50 417.8 C49.9811 417.734 48.025 417.875 48 417.8 C47.775 417.125 48.3 412.4 48 411.8 C47.925 411.65 45.0283 411.9062 45 411.8 C44.4596 409.7735 44.5404 398.8266 44 396.8 C43.9717 396.6938 41.135 396.98 41 396.8 C40.76 396.48 40.9583 392.8044 41 392.8 C42.862 392.604 57.7011 392.6011 60 394.8 C62.5426 397.2321 62.4262 411.6525 64 414.8 C64.2146 415.2292 70 414.8 70 414.8 "/>
<path id="1" d="M135 361.8 C135 361.8 133.0147 361.7412 133 361.8 C132.7647 362.7412 132.7647 368.8588 133 369.8 C133.0147 369.8588 135 369.8 135 369.8 C135 371.7038 133 388.8 133 388.8 "/>
<path id="2" d="M119 375.8 L119 398.8 "/>
<path id="3" d="M108 384.8 C108 384.8 109.0983 399.9357 108 406.8 C107.8183 407.9357 104 409.8 104 409.8 "/>
<path id="4" d="M91 394.8 C91 394.8 91.412 405.3245 91 414.8 C90.9373 416.2419 90.4504 417.4622 90 417.8 C89.5842 418.1118 87.135 417.62 87 417.8 C86.76 418.12 87 421.8 87 421.8 "/>
<path id="5" d="M81 404.8 L77 431.8 "/>
<path id="6" d="M75 429.8 C75 429.8 73.8023 423.0837 73 421.8 C72.8374 421.5398 70.4389 422.2389 70 421.8 C68.098 419.898 65 413.8 65 413.8 "/>
</g>
</g>
</svg>
