<?xml version="1.0" encoding="utf-8"?>
<!DOCTYPE svg PUBLIC "-//W3C//DTD SVG 1.1//EN" "http://www.w3.org/Graphics/SVG/1.1/DTD/svg11.dtd">
<svg viewBox="0 0 800 800" preserveAspectRatio="xMinYMin meet" xmlns="http://www.w3.org/2000/svg" version="1.1">
<g fill="none" stroke="black" stroke-linecap="round" stroke-linejoin="round" stroke-width="0.79205">
<g transform="translate(87.52,98.8829) scale(3.7876) translate(-170,-165.1333)">
<path id="0" d="M184 280.1333 C184 280.1333 192.7245 267.7758 203 257.1333 C234.5035 224.5047 233.8572 220.3877 268 193.1333 C288.7504 176.5694 293.8059 176.7798 317 166.1333 C321.7069 163.9728 327.2331 163.9554 329 165.1333 C331.2866 166.6577 333.8888 172.1327 335 178.1333 C336.0879 184.008 336.4945 188.0174 334 192.1333 C328.7884 200.7324 325.4186 203.2205 315 211.1333 C286.5965 232.7056 285.5578 232.9535 255 252.1333 C238.8547 262.2671 238.0813 262.3044 221 270.1333 C214.5987 273.0672 213.2869 271.1645 207 274.1333 C195.8661 279.391 185 287.1333 185 287.1333 "/>
<path id="1" d="M184 277.1333 C184 277.1333 170.7072 276.2746 170 277.1333 C168.9572 278.3996 168.4649 289.3086 170 294.1333 C170.6526 296.1845 173.4934 297.8414 177 299.1333 C182.0511 300.9943 188.7295 301.4776 189 301.1333 C189.554 300.4282 188 285.1333 188 285.1333 "/>
<path id="2" d="M187 277.1333 C187 277.1333 181.3337 277.9459 177 277.1333 C174.156 276.6001 171.1719 274.076 171 274.1333 C170.9427 274.1524 170.4416 276.8996 171 279.1333 C172.8149 286.393 172.7925 288.3016 176 294.1333 C177.4998 296.8603 179.0667 297.7795 182 299.1333 C184.6345 300.3493 188.8312 300.3745 189 300.1333 C189.4762 299.4531 189 289.1333 189 289.1333 "/>
<path id="3" d="M255 289.1333 C255 289.1333 242.2541 286.0486 239 287.1333 C237.3022 287.6993 236.8189 292.7506 234 296.1333 C232.4656 297.9746 229.5919 297.6958 229 299.1333 C227.2655 303.3458 225.8739 310.8811 227 313.1333 C228.0395 315.2123 233.1939 317.9721 239 319.1333 C249.2047 321.1743 260.219 321.6293 262 320.1333 C263.6459 318.7507 265.6611 304.5702 264 298.1333 C263.1046 294.6636 258.7905 292.327 254 289.1333 C252.3034 288.0022 251.4748 288.3237 249 288.1333 C245.1004 287.8334 243.9846 287.0799 241 288.1333 C236.8523 289.5972 233.3618 291.2859 232 294.1333 C229.6269 299.0953 229.7015 304.864 230 311.1333 C230.0732 312.6698 231.299 314.1765 233 315.1333 C238.1232 318.0151 239.5654 318.7034 246 320.1333 C252.4852 321.5745 257.5334 322.4899 260 321.1333 C262.3107 319.8625 264.5878 314.9839 266 309.1333 C267.8105 301.6326 267 292.1333 267 292.1333 "/>
<path id="4" d="M239 290.1333 C239 290.1333 242.3315 290.2977 243 291.1333 C244.9418 293.5606 245.9853 295.8207 247 300.1333 C247.8166 303.6039 247.9869 305.1727 247 308.1333 C245.9309 311.3407 244.0339 313.5514 242 315.1333 C241.2211 315.7392 238 315.1333 238 315.1333 "/>
<path id="5" d="M263 296.1333 C263 296.1333 257.1779 298.5199 255 301.1333 C253.3822 303.0747 253.5282 304.7 253 308.1333 C252.5663 310.9523 252.2002 312.8004 253 314.1333 C254.013 315.8217 259 318.1333 259 318.1333 "/>
<path id="6" d="M268 295.1333 C268 295.1333 261.6947 295.0539 257 293.1333 C251.4927 290.8803 245.9991 286.135 246 286.1333 C246.0113 286.1136 255.9482 284.69 261 286.1333 C263.598 286.8756 266.7 291.2333 267 292.1333 C267.075 292.3583 265.3174 294.6393 264 295.1333 C262.4032 295.7321 260.7519 295.8633 259 295.1333 C255.8174 293.8073 255.204 291.2776 252 290.1333 C249.4472 289.2216 245 290.1333 245 290.1333 "/>
<path id="7" d="M241 285.1333 C241 285.1333 237.5843 285.3299 237 286.1333 C235.0705 288.7864 233.6008 291.3272 233 296.1333 C231.7413 306.2033 230.9146 313.2674 233 318.1333 C234.0562 320.5979 239.4772 323.2426 245 324.1333 C253.0232 325.4274 260.7699 325.0995 264 323.1333 C265.9624 321.9388 267.0915 316.4925 268 310.1333 C269.0041 303.1048 269.3209 300.6812 268 295.1333 C267.3668 292.4739 265.6078 290.5139 263 289.1333 C258.6662 286.8389 255.1882 285.2172 251 286.1333 C242.8082 287.9253 231 296.1333 231 296.1333 "/>
</g>
</g>
</svg>
