<?xml version="1.0" encoding="utf-8"?>
<!DOCTYPE svg PUBLIC "-//W3C//DTD SVG 1.1//EN" "http://www.w3.org/Graphics/SVG/1.1/DTD/svg11.dtd">
<svg viewBox="0 0 800 800" preserveAspectRatio="xMinYMin meet" xmlns="http://www.w3.org/2000/svg" version="1.1">
<g fill="none" stroke="black" stroke-linecap="round" stroke-linejoin="round" stroke-width="2.2897">
<g transform="translate(87.52,182.5087) scale(1.3102) translate(-104,-75.1333)">
<path id="0" d="M158 137.1333 C158 137.1333 154.0744 137.0019 152 138.1333 C149.5511 139.4691 147.7202 140.7671 147 143.1333 C144.9451 149.8851 147.2154 155.4716 145 161.1333 C144.0872 163.4662 139.4536 164.0567 138 166.1333 C137.2658 167.1821 138.4454 170.4653 138 171.1333 C137.6734 171.6232 135.059 171.192 134 172.1333 C131.5692 174.294 131.7944 177.0841 129 179.1333 C125.4334 181.7488 122.3404 180.3824 119 183.1333 C115.1718 186.286 113.1438 188.5583 112 193.1333 C110.2479 200.1419 111.082 204.7075 112 211.1333 C112.1749 212.3573 114.4742 212.6873 115 214.1333 C116.0751 217.0897 114.7231 219.9443 116 222.1333 C117.1157 224.046 119.2458 225.5213 122 226.1333 C126.7977 227.1995 131.4867 227.39 134 226.1333 C135.6755 225.2956 135.8556 219.9203 138 218.1333 C139.9433 216.5139 144.6105 216.8281 146 216.1333 C146.1544 216.0561 145.9685 214.1369 146 214.1333 C150.8569 213.5783 166.02 214.3255 181 212.1333 C183.7952 211.7243 185.6345 210.084 187 208.1333 C188.1157 206.5395 187.4785 202.9155 188 202.1333 C188.1564 201.8987 190.7105 202.4228 191 202.1333 C191.4825 201.6509 192 198.1333 192 198.1333 "/>
<path id="1" d="M162 135.1333 C162 135.1333 158.521 134.1753 158 133.1333 C156.5674 130.268 156.666 124.7984 156 123.1333 C155.9507 123.01 154.0015 123.1524 154 123.1333 C153.7515 119.9024 151.533 107.9882 154 97.1333 C155.9236 88.6696 158.7363 84.1681 164 79.1333 C167.2541 76.0208 176.2141 75.0729 177 75.1333 C177.0238 75.1352 177.4454 79.4653 177 80.1333 C176.6734 80.6232 173.3266 80.6434 173 81.1333 C172.5546 81.8014 173.64 84.8533 173 86.1333 C172.36 87.4133 169.324 87.9184 169 89.1333 C168.044 92.7184 169.2432 99.6739 169 101.1333 C168.9932 101.1739 167.0016 101.1135 167 101.1333 C166.7516 104.2385 164.8334 116.113 167 126.1333 C168.1899 131.6364 175 138.1333 175 138.1333 "/>
<path id="2" d="M214 153.1333 C214 153.1333 217.9581 153.9148 219 153.1333 C221.8653 150.9844 223.2837 146.578 226 144.1333 C226.5397 143.6476 228.912 144.3494 229 144.1333 C231.1792 138.7844 236.908 117.2324 237 117.1333 C237.0223 117.1093 240.9859 123.8461 242 130.1333 C243.3221 138.3302 244.2268 143.3371 242 148.1333 C240.0162 152.4062 229 158.1333 229 158.1333 "/>
<path id="3" d="M229 158.1333 C229 158.1333 233.8902 158.6565 236 160.1333 C237.6325 161.2761 238.489 162.6634 239 165.1333 C241.2385 175.9527 239.6693 179.8105 242 189.1333 C242.4709 191.0167 244.2451 192.4952 246 193.1333 C248.2521 193.9523 253 193.1333 253 193.1333 "/>
<path id="4" d="M217 171.1333 C217 171.1333 217.2903 179.2381 220 183.1333 C223.8555 188.6757 226.2816 189.7518 233 194.1333 C237.199 196.8718 238.1727 197.2556 243 198.1333 C248.4 199.1152 255 198.1333 255 198.1333 "/>
<path id="5" d="M229 174.1333 C229 174.1333 230.0008 182.469 232 188.1333 C232.5388 189.66 233.3203 190.0835 235 191.1333 C240.9865 194.8749 241.864 196.5425 248 198.1333 C253.7985 199.6367 262 198.1333 262 198.1333 "/>
<path id="6" d="M152 121.1333 C152 121.1333 149.689 117.4889 148 117.1333 C142.7677 116.0318 140.0667 116.0626 133 117.1333 C124.1631 118.4723 123.8277 120.6113 115 122.1333 C109.8519 123.0209 104 122.1333 104 122.1333 C104 122.1333 113.0437 121.7537 116 123.1333 C117.3754 123.7752 116.9495 127.4395 119 129.1333 C126.9217 135.6774 129.9141 138.0603 139 142.1333 C142.1661 143.5526 146.115 143.0758 148 142.1333 C149.2567 141.505 151.0688 136.2708 151 136.1333 C150.9542 136.0417 146.8429 137.0548 145 136.1333 C141.4677 134.3672 137 129.1333 137 129.1333 "/>
<path id="7" d="M215 171.1333 C215 171.1333 217.1265 181.9942 215 187.1333 C212.6122 192.9038 209.3758 197.1816 203 200.1333 C186.1727 207.9238 161 212.1333 161 212.1333 "/>
<path id="8" d="M128 206.1333 L129 210.1333 "/>
<path id="9" d="M129 206.1333 C129 206.1333 125.2046 206.8605 125 207.1333 C124.8849 207.2868 126 210.1333 126 210.1333 C125.9678 210.1441 121.9998 208.1335 122 208.1333 C122.0003 208.133 127 209.1333 127 209.1333 "/>
<path id="10" d="M186 165.1333 C186 165.1333 175.8135 165.5789 174 167.1333 C172.6021 168.3315 171.6181 176.2931 172 177.1333 C172.1757 177.5198 176.1559 178.3919 179 178.1333 C180.7214 177.9768 182.7623 176.906 183 176.1333 C183.8095 173.5026 183 165.1333 183 165.1333 "/>
<path id="11" d="M177 173.1333 L178 173.1333 "/>
<path id="12" d="M173 137.1333 C173 137.1333 186.1423 135.5931 196 137.1333 C200.1922 137.7884 201.7801 139.1434 205 142.1333 C207.9333 144.8571 207.0703 147.2037 210 150.1333 C212.9297 153.063 218 155.1333 218 155.1333 "/>
<path id="13" d="M248 157.1333 C248 157.1333 285.4559 159.5052 310 159.1333 C311.6023 159.1091 312.1894 156.586 314 156.1333 C317.0494 155.371 319.233 157.4104 322 156.1333 C330.1413 152.3758 331.9446 148.161 340 144.1333 C342.0138 143.1264 344.4162 144.9252 346 144.1333 C347.7158 143.2755 347.8066 140.5956 350 139.1333 C352.991 137.1393 354.1233 136.8602 358 136.1333 C361.622 135.4542 363.7825 136.7986 366 136.1333 C366.8038 135.8922 367.2589 133.2641 368 133.1333 C372.3952 132.3577 378.6048 133.909 383 133.1333 C383.7411 133.0025 384.2521 130.2736 385 130.1333 C389.0863 129.3672 394.9137 130.8995 399 130.1333 C399.7479 129.9931 400.3671 127.1537 401 127.1333 C428.4658 126.2473 449.4345 124.4246 492 127.1333 C501.0957 127.7121 504.9196 129.7554 511 134.1333 C514.5208 136.6683 513.3327 140.3499 517 145.1333 C524.5305 154.9557 527.8654 153.909 534 164.1333 C543.58 180.1001 543.7566 181.9707 550 200.1333 C554.5227 213.2903 555.1082 214.3106 556 228.1333 C558.042 259.7842 553.0934 261.7417 556 293.1333 C557.9643 314.3473 559.7568 316.6693 566 336.1333 C567.6545 341.2914 573 346.1333 573 346.1333 "/>
<path id="14" d="M234 156.1333 L256 156.1333 "/>
<path id="15" d="M198 205.1333 C198 205.1333 201.3322 221.5164 207 236.1333 C210.5952 245.4052 210.6555 247.3007 217 254.1333 C228.842 266.8863 233.8004 265.3237 246 278.1333 C252.73 285.1999 255.0295 287.2193 257 296.1333 C264.6392 330.6918 261.0213 336.407 267 373.1333 C267.7339 377.6413 269.9227 377.8243 271 382.1333 C271.7541 385.1497 272.0299 386.9264 271 389.1333 C269.3423 392.6855 267.3646 394.3805 264 397.1333 C262.8032 398.1125 260.2316 397.6702 260 398.1333 C259.4596 399.2141 259.3199 403.603 260 405.1333 C260.3671 405.9592 262.2845 407.1333 264 407.1333 C273.8644 407.1333 278.2933 407.0681 287 405.1333 C288.8156 404.7299 290.2966 402.8919 291 401.1333 C291.7537 399.2491 291.7998 396.4663 291 395.1333 C289.987 393.4449 285 391.1333 285 391.1333 "/>
<path id="16" d="M284 309.1333 L286 387.1333 "/>
<path id="17" d="M285 312.1333 L294 300.1333 "/>
<path id="18" d="M289 312.1333 C289 312.1333 290.8804 312.3426 291 312.1333 C292.8234 308.9423 293.9278 301.6444 297 298.1333 C298.4363 296.4918 303.6105 296.8281 305 296.1333 C305.1544 296.0561 304.9726 294.1364 305 294.1333 C307.2226 293.8864 317.6812 294.9311 323 294.1333 C323.7239 294.0247 324.3618 291.1579 325 291.1333 C347.9285 290.2515 373.4201 292.8358 401 291.1333 C402.9265 291.0144 403.4255 287.2776 406 286.1333 C411.1094 283.8625 413.8808 285.9407 419 283.1333 C427.9756 278.2112 427.9384 274.8388 437 269.1333 C440.6797 266.8165 443.0538 268.0975 446 266.1333 C447.6963 265.0025 447.3214 262.0775 449 261.1333 C453.404 258.6561 459.438 258.3158 462 257.1333 C462.1593 257.0598 461.9471 255.1451 462 255.1333 C463.0721 254.8951 468.7938 253.8356 471 255.1333 C474.403 257.1351 477.1827 260.1772 479 265.1333 C481.9648 273.2191 481.5861 275.1991 482 285.1333 C483.0695 310.8019 482.2496 330.6429 482 337.1333 C481.9996 337.1429 480.0345 337.0471 480 337.1333 C479.7845 337.6721 480.2155 341.5945 480 342.1333 C479.9655 342.2195 478.0345 342.0471 478 342.1333 C477.7845 342.6721 478.7436 345.2743 478 347.1333 C476.1559 351.7436 473.167 352.4653 472 357.1333 C470.5793 362.8161 470.2196 368.1204 472 371.1333 C473.9943 374.5083 478.9466 377.2707 485 379.1333 C490.0897 380.6994 495.0162 380.2523 498 379.1333 C499.205 378.6815 501.2675 374.2034 501 373.1333 C500.6178 371.6047 495.6731 369.7136 495 367.1333 C493.4874 361.3352 495.2466 352.2293 495 350.1333 C494.9966 350.1043 493.0005 350.1442 493 350.1333 C492.7505 344.3942 491.835 326.2687 493 304.1333 C493.2826 298.7641 495.442 298.6016 496 293.1333 C497.8855 274.6556 494.1966 268.7167 498 255.1333 C499.515 249.7225 504.9986 249.3851 510 243.1333 C512.5933 239.8917 512.4417 239.2661 514 235.1333 C523.86 208.983 532.7648 182.3685 533 182.1333 C533.0523 182.0811 539.669 194.7015 542 207.1333 C545.4555 225.5628 542.5313 227.0893 545 246.1333 C545.9726 253.6363 548.5982 253.8005 549 261.1333 C550.5312 289.0785 551.1431 291.6308 549 319.1333 C548.2807 328.3645 544.1997 329.0154 543 338.1333 C541.8561 346.8269 542.8733 348.4953 544 357.1333 C544.2509 359.0573 544.7353 360.3605 546 361.1333 C551.7702 364.6595 555.1692 363.8641 562 368.1333 C566.3583 370.8573 569.889 376.1968 570 376.1333 C570.4903 375.8531 572.533 367.0674 576 360.1333 C577.0949 357.9436 579.3747 358.0093 580 356.1333 C581.3288 352.1469 582.332 347.087 581 345.1333 C578.1716 340.985 565 334.1333 565 334.1333 "/>
<path id="19" d="M448 262.1333 C448 262.1333 445.5429 267.7873 442 271.1333 C437.2219 275.646 432.2312 275.7866 430 279.1333 C428.6055 281.225 428.4335 286.7314 430 289.1333 C433.5688 294.6055 441.746 296.2355 445 302.1333 C447.5314 306.7216 444.9459 316.4467 446 318.1333 C446.3567 318.704 453.291 319.185 455 318.1333 C456.6944 317.0906 458.0526 310.7649 459 310.1333 C459.3722 309.8852 463.1887 312.4038 464 312.1333 C465.0609 311.7797 466.3387 307.622 468 307.1333 C471.9479 305.9722 478.8432 308.5712 481 307.1333 C483.1568 305.6955 486 295.1333 486 295.1333 "/>
<path id="20" d="M518 221.1333 C518 221.1333 515.1308 222.3922 515 223.1333 C514.2244 227.5285 515.7756 233.7382 515 238.1333 C514.8692 238.8745 512.0456 239.4952 512 240.1333 C511.4662 247.6062 509.6986 254.9087 513 266.1333 C518.975 286.4482 525.3801 288.2738 532 308.1333 C534.0544 314.2966 533.7964 318.3428 532 323.1333 C530.5179 327.0855 525.45 328.3222 523 332.1333 C522.1715 333.4221 523 337.1333 523 337.1333 "/>
<path id="21" d="M497 259.1333 C497 259.1333 501.5692 265.4129 504 272.1333 C509.8872 288.4096 510.6777 289.5218 514 306.1333 C515.4766 313.5162 514.2462 320.1641 514 322.1333 C513.9962 322.1641 512.0189 322.0673 512 322.1333 C511.7689 322.9423 512.2311 328.3244 512 329.1333 C511.9811 329.1994 510.0096 329.0853 510 329.1333 C509.7596 330.3353 510.7109 336.2897 510 339.1333 C509.8045 339.9153 507.1782 340.361 507 341.1333 C506.2718 344.2888 507.999 349.3363 507 352.1333 C506.5654 353.3502 502.5174 353.8915 502 355.1333 C501.0839 357.332 501.0486 362.5024 502 364.1333 C502.7488 365.4169 505.6596 366.7325 509 367.1333 C517.1694 368.1137 520.5742 368.0513 527 367.1333 C528.224 366.9585 529.6469 365.4279 530 364.1333 C530.7398 361.4209 530.8866 359.2364 530 356.1333 C529.2084 353.3627 526.4742 352.86 526 350.1333 C524.796 343.2104 527.1383 339.1092 526 333.1333 C525.6812 331.4594 522 329.1333 522 329.1333 "/>
<path id="22" d="M252 285.1333 C252 285.1333 250.2711 290.2407 248 292.1333 C245.5749 294.1542 242.9706 292.8229 240 295.1333 C230.5133 302.5119 229.5118 303.5575 221 313.1333 C213.7893 321.2453 208.9012 323.4727 208 331.1333 C204.9244 357.2763 207.7865 374.6747 211 398.1333 C211.3317 400.555 214.8663 403.0888 218 404.1333 C221.83 405.41 224.7163 404.9901 229 404.1333 C230.7913 403.7751 233.0189 401.9463 233 401.1333 C232.7391 389.9147 228 380.0151 228 361.1333 C228 350.2763 228.6119 347.3715 233 338.1333 C237.0898 329.5232 241.8161 326.3172 247 321.1333 C247.5017 320.6317 249.3336 321.6664 250 321.1333 C254.7978 317.2951 257.8666 315.0382 262 309.1333 C263.9046 306.4125 264 301.1333 264 301.1333 "/>
<path id="23" d="M213 396.1333 C213 396.1333 210.296 395.4853 209 396.1333 C205.436 397.9153 200.965 402.1235 201 402.1333 C201.1842 402.1849 225.7654 403.8392 234 403.1333 C234.5861 403.0831 236 400.6808 236 399.1333 C236 396.0383 234.8507 391.4574 234 391.1333 C230.7979 389.9135 222.5342 389.6844 215 391.1333 C211.8429 391.7405 207.9853 396.0942 208 396.1333 C208.0417 396.2445 218 399.1333 218 399.1333 "/>
<path id="24" d="M272 394.1333 L291 392.1333 "/>
<path id="25" d="M475 367.1333 L494 367.1333 "/>
<path id="26" d="M511 354.1333 L524 354.1333 "/>
<path id="27" d="M415 234.1333 C415 234.1333 433.6878 252.0216 451 261.1333 C458.7851 265.2307 472 264.1333 472 264.1333 "/>
</g>
</g>
</svg>
