<?xml version="1.0" encoding="utf-8"?>
<!DOCTYPE svg PUBLIC "-//W3C//DTD SVG 1.1//EN" "http://www.w3.org/Graphics/SVG/1.1/DTD/svg11.dtd">
<svg viewBox="0 0 800 800" preserveAspectRatio="xMinYMin meet" xmlns="http://www.w3.org/2000/svg" version="1.1">
<g fill="none" stroke="black" stroke-linecap="round" stroke-linejoin="round" stroke-width="2.1889">
<g transform="translate(87.52,204.0147) scale(1.3705) translate(-103,-182.1333)">
<path id="0" d="M119 254.1333 C119 254.1333 103.8698 260.3659 103 263.1333 C101.4854 267.9525 104.1112 278.9626 108 289.1333 C109.5408 293.163 112.2237 295.2452 116 297.1333 C119.3043 298.7855 122.0679 296.8226 126 298.1333 C128.41 298.9367 128.7753 301.639 131 302.1333 C135.9112 303.2247 138.2215 303.289 144 302.1333 C149.7785 300.9776 153.4561 298.8293 156 297.1333 C156.3318 296.9121 155.4972 294.678 156 294.1333 C159.5325 290.3065 164.4675 287.9602 168 284.1333 C168.5028 283.5886 168 281.1333 168 281.1333 "/>
<path id="1" d="M122 251.1333 C122 251.1333 123.9946 245.6378 127 243.1333 C131.8516 239.0904 137.8956 239.5004 140 236.1333 C142.5392 232.0706 140.0818 227.0801 142 219.1333 C143.449 213.1302 143.8546 211.2466 147 207.1333 C149.21 204.2434 151.2665 202.6458 155 202.1333 C173.6 199.5804 177.9063 200.5702 198 200.1333 C199.3903 200.1031 200.3638 200.3237 201 201.1333 C204.6546 205.7847 209 214.1333 209 214.1333 "/>
<path id="2" d="M161 198.1333 C161 198.1333 165.2976 182.6351 166 182.1333 C166.2016 181.9894 175 188.1333 175 188.1333 "/>
<path id="3" d="M181 250.1333 C181 250.1333 183.6637 240.1068 186 237.1333 C186.7886 236.1296 190.3656 235.643 192 236.1333 C193.491 236.5806 196 240.1333 196 240.1333 "/>
<path id="4" d="M153 224.1333 C153 224.1333 149.4564 229.4823 149 233.1333 C148.6757 235.7275 150.0579 239.4006 151 240.1333 C151.8859 240.8224 155.1765 240.9401 158 240.1333 C161.2845 239.1949 164.2308 237.5436 165 236.1333 C165.6351 234.969 165.1135 230.724 164 229.1333 C162.9588 227.646 160.261 226.3218 158 226.1333 C155.8897 225.9575 152 228.1333 152 228.1333 "/>
<path id="5" d="M166 238.1333 C166 238.1333 159.6287 238.3475 159 239.1333 C158.0665 240.3002 157.2807 245.7957 158 248.1333 C158.4583 249.6228 160.74 251.3115 163 252.1333 C165.1008 252.8973 166.3 252.6242 169 252.1333 C171.4136 251.6945 173.691 250.9368 174 250.1333 C174.8664 247.8806 174.821 242.9645 174 239.1333 C173.7281 237.8646 171 236.1333 171 236.1333 "/>
<path id="6" d="M109 260.1333 C109 260.1333 112.1349 260.1896 113 261.1333 C116.2286 264.6554 117.2186 266.5704 120 272.1333 C121.5346 275.2025 122 275.9312 122 279.1333 C122 285.5376 120 293.1333 120 293.1333 "/>
<path id="7" d="M153 233.1333 L156 234.1333 "/>
<path id="8" d="M165 245.1333 L162 246.1333 "/>
<path id="9" d="M164 246.1333 C164 246.1333 164 254.1333 164 254.1333 C164 254.1333 163.4349 247.2929 163 246.1333 C162.9611 246.0295 161 246.1333 161 246.1333 "/>
<path id="10" d="M159 234.1333 L155 237.1333 "/>
<path id="11" d="M210 210.1333 C210 210.1333 212.187 218.5241 216 225.1333 C219.3443 230.9302 220.1953 231.6289 225 236.1333 C227.6744 238.6406 232 240.1333 232 240.1333 "/>
<path id="12" d="M229 237.1333 C229 237.1333 236.5279 234.6748 244 234.1333 C270.5866 232.2068 273.1694 230.4326 298 232.1333 C306.9799 232.7484 307.8312 238.1609 317 239.1333 C338.8279 241.4484 341.0333 240.8776 364 239.1333 C379.8596 237.9288 380.1449 234.2268 396 233.1333 C422.903 231.2779 425.4211 229.7228 451 233.1333 C468.0216 235.4029 470.722 237.2215 486 245.1333 C497.0481 250.8547 497.8191 253.3055 507 262.1333 C510.1202 265.1335 510.4202 266.1839 512 270.1333 C513.169 273.0559 513.0885 276.5141 513 277.1333 C512.9963 277.1591 511 277.1333 511 277.1333 "/>
<path id="13" d="M171 281.1333 C171 281.1333 181.5855 296.716 192 309.1333 C193.6425 311.0916 196.1261 310.4827 197 312.1333 C199.4942 316.8446 199.8069 319.273 201 326.1333 C201.7307 330.3348 202.0919 331.4936 201 335.1333 C199.447 340.3098 196.5957 340.4951 195 346.1333 C189.402 365.9131 192.0095 367.8512 186 388.1333 C180.1549 407.8604 177.8554 407.8527 171 427.1333 C170.0172 429.8974 169.774 431.3254 170 433.1333 C170.0865 433.8257 170.9884 434.8172 172 435.1333 C177.7564 436.9322 184.2303 439.1791 186 438.1333 C188.5263 436.6405 189.0545 427.5088 194 422.1333 C198.8269 416.8867 206.9669 416.9285 209 413.1333 C211.2676 408.9006 207.4967 400.1467 209 394.1333 C209.5143 392.0761 213.8406 391.8868 215 389.1333 C224.1777 367.3363 233 337.1333 233 337.1333 "/>
<path id="14" d="M223 331.1333 C223 331.1333 225.3145 339.1798 229 345.1333 C231.3579 348.9423 232.1333 349.9422 236 352.1333 C246.1076 357.8609 247.9562 359.8325 259 362.1333 C270.0071 364.4265 272.2308 363.7026 284 362.1333 C293.7919 360.8277 294.0055 357.7114 304 356.1333 C321.8796 353.3102 323.6806 356.5972 341 353.1333 C352.4234 350.8486 352.4735 347.2071 364 344.1333 C374.3466 341.3742 375.1012 341.4539 386 341.1333 C408.6829 340.4662 432 342.1333 432 342.1333 "/>
<path id="15" d="M175 185.1333 C175 185.1333 178.3705 186.852 180 189.1333 C182.9209 193.2225 185 199.1333 185 199.1333 "/>
<path id="16" d="M178 217.1333 C178 217.1333 168.543 207.274 162 204.1333 C159.4934 202.9302 153 205.1333 153 205.1333 "/>
<path id="17" d="M176 218.1333 C176 218.1333 175.7486 212.849 174 209.1333 C172.0962 205.0878 170.8414 203.1004 168 201.1333 C166.1058 199.8219 163.2538 199.5699 161 200.1333 C158.9966 200.6342 156 204.1333 156 204.1333 "/>
<path id="18" d="M182 229.1333 L195 229.1333 "/>
<path id="19" d="M129 297.1333 C129 297.1333 141.201 296.806 147 293.1333 C153.072 289.2877 159 278.1333 159 278.1333 "/>
<path id="20" d="M195 199.1333 C195 199.1333 195.6393 192.3588 196 192.1333 C196.3858 191.8922 202.5435 193.1633 203 194.1333 C204.334 196.968 202.4731 202.2624 204 209.1333 C205.3151 215.0514 209.1904 220.5146 209 221.1333 C208.9314 221.3563 200.8145 222.9478 200 222.1333 C197.5566 219.6899 193 205.1333 193 205.1333 "/>
<path id="21" d="M512 277.1333 C512 277.1333 510.9986 290.8654 512 304.1333 C512.9755 317.0582 515.4621 317.2241 516 330.1333 C517.4389 364.6676 519.0762 367.3207 516 400.1333 C514.8203 412.7164 512.2785 413.6316 507 426.1333 C502.8866 435.8755 500.2233 435.732 497 445.1333 C494.602 452.1274 495 461.1333 495 461.1333 "/>
<path id="22" d="M499 465.1333 C499 465.1333 476.1171 468.4715 476 468.1333 C474.7432 464.5025 479.2703 439.9434 481 413.1333 C481.2168 409.7723 481.2614 408.9714 480 406.1333 C477.609 400.7537 474.4152 400.4795 473 395.1333 C470.4093 385.3463 469.9093 381.9499 471 372.1333 C471.6544 366.2434 475.2711 365.6169 477 359.1333 C479.0763 351.3472 479 342.1333 479 342.1333 "/>
<path id="23" d="M337 350.1333 C337 350.1333 335.8108 359.2077 338 364.1333 C340.7112 370.2336 342.9753 371.8617 349 377.1333 C354.3852 381.8454 355.2278 382.3629 362 385.1333 C376.6037 391.1076 377.8652 392.6922 393 395.1333 C407.3863 397.4537 409.6312 397.363 424 395.1333 C437.1621 393.0909 441.7148 392.242 451 386.1333 C457.0714 382.139 458.499 378.1355 462 370.1333 C464.9122 363.4768 465 354.1333 465 354.1333 "/>
<path id="24" d="M430 343.1333 C430 343.1333 442.8584 348.7843 455 350.1333 C468.607 351.6452 484 349.1333 484 349.1333 "/>
<path id="25" d="M462 373.1333 C462 373.1333 463.8557 399.7716 462 425.1333 C460.9137 439.9792 454.9161 452.3818 456 455.1333 C456.4112 456.1772 467.4662 455.343 475 458.1333 C478.9681 459.603 482.8662 465.0999 483 465.1333 C483.0171 465.1376 483 460.1333 483 460.1333 "/>
<path id="26" d="M357 382.1333 C357 382.1333 351.9905 390.4474 351 397.1333 C350.2704 402.0582 352.5739 408.6539 353 409.1333 C353.0722 409.2145 358.4719 407.3656 359 406.1333 C360.0427 403.7004 357.7207 399.1844 359 395.1333 C360.1507 391.4894 365 387.1333 365 387.1333 "/>
<path id="27" d="M501 257.1333 C501 257.1333 515.8181 257.2696 522 261.1333 C527.5242 264.586 527.3253 270.3946 533 277.1333 C534.6197 279.0567 535.5871 279.6254 538 280.1333 C544.0886 281.4151 548.7679 279.1325 552 281.1333 C555.19 283.1081 558.1358 289.0282 559 293.1333 C559.4085 295.0737 556.4048 300.108 556 300.1333 C554.5133 300.2262 549.1902 295.902 543 294.1333 C539.6344 293.1717 537.1801 295.2234 535 294.1333 C532.4111 292.8389 530.6433 290.8307 529 287.1333 C525.1468 278.4636 526.193 270.6457 523 267.1333 C521.1526 265.1012 509 265.1333 509 265.1333 "/>
<path id="28" d="M388 396.1333 C388 396.1333 386.3897 406.0308 387 412.1333 C387.165 413.7837 389.9848 416.1638 390 416.1333 C390.1219 415.8894 394 398.1333 394 398.1333 "/>
<path id="29" d="M412 399.1333 C412 399.1333 412.4581 407.7785 413 409.1333 C413.0625 409.2897 415.4775 408.6855 416 409.1333 C417.5924 410.4983 419.9895 415.1561 420 415.1333 C420.0504 415.0242 422 396.1333 422 396.1333 "/>
<path id="30" d="M437 391.1333 C437 391.1333 437.2378 397.1056 439 401.1333 C440.3267 404.1657 443.1298 406.8433 444 407.1333 C444.373 407.2576 447.141 405.7081 448 404.1333 C449.507 401.3706 450 399.7575 450 396.1333 C450 391.6031 448 386.1333 448 386.1333 "/>
<path id="31" d="M195 428.1333 C195 428.1333 202.2831 431.4385 209 432.1333 C215.9419 432.8515 222.6557 432.627 224 431.1333 C226.0118 428.8979 223.5959 417.996 227 412.1333 C230.3989 406.2798 240.1943 405.4441 242 400.1333 C246.0844 388.1204 244 362.1333 244 362.1333 "/>
<path id="32" d="M250 244.1333 C250 244.1333 256.3033 261.776 263 267.1333 C268.545 271.5694 274.1733 270.2667 285 272.1333 C288.315 272.7049 289.2918 273.1749 292 272.1333 C300.8388 268.7338 306.8317 265.8629 311 262.1333 C311.9341 261.2975 310.0224 257.5773 311 255.1333 C312.4524 251.5023 317 247.1333 317 247.1333 "/>
<path id="33" d="M405 243.1333 C405 243.1333 410.1684 251.2726 411 258.1333 C411.939 265.8797 407.6029 274.9358 409 276.1333 C413.9195 280.35 427.7633 284.0458 446 288.1333 C455.7521 290.3191 458.0719 290.778 467 289.1333 C474.9236 287.6737 478.272 285.8651 484 281.1333 C487.6604 278.1095 488.5195 275.3149 490 270.1333 C491.1644 266.0579 490.7854 262.4896 490 260.1333 C489.7382 259.3479 486 258.1333 486 258.1333 "/>
<path id="34" d="M273 359.1333 C273 359.1333 271.3416 354.4378 272 352.1333 C272.8265 349.2404 274.2404 346.4365 277 345.1333 C288.8689 339.5286 293.0995 340.964 308 335.1333 C315.7379 332.1055 316.2018 328.8329 323 327.1333 C328.0986 325.8587 330.8871 326.0029 336 328.1333 C346.9881 332.7117 359 342.1333 359 342.1333 "/>
</g>
</g>
</svg>
