<?xml version="1.0" encoding="utf-8"?>
<!DOCTYPE svg PUBLIC "-//W3C//DTD SVG 1.1//EN" "http://www.w3.org/Graphics/SVG/1.1/DTD/svg11.dtd">
<svg viewBox="0 0 800 800" preserveAspectRatio="xMinYMin meet" xmlns="http://www.w3.org/2000/svg" version="1.1">
<g fill="none" stroke="black" stroke-linecap="round" stroke-linejoin="round" stroke-width="2.7362">
<g transform="translate(87.52,171.3962) scale(1.0964) translate(-41,-56)">
<path id="0" d="M102 104 L102 104 "/>
<path id="1" d="M84 103 C84 103 90.2902 99.5907 96 99 C103.7717 98.196 106.0265 98.6717 113 100 C114.8544 100.3532 115.2469 102.7609 117 103 C124.1569 103.9759 126.3859 104.0134 135 103 C142.8821 102.0727 151 99 151 99 "/>
<path id="2" d="M91 101 C91 101 86.8842 100.2463 85 101 C83.2414 101.7034 81.0715 103.4984 81 105 C79.9941 126.1241 85.3672 137.6742 82 164 C80.3679 176.7599 74.3703 178.2532 70 191 C68.8763 194.2774 68.7374 197.1547 70 199 C73.1398 203.5889 77.1666 207.9948 83 210 C89.6047 212.2704 95.4557 211.5706 102 210 C104.5626 209.385 106.2209 207.2347 108 204 C111.2042 198.1741 109.5707 195.6338 113 190 C115.9131 185.2142 117.0117 183.8683 122 181 C135.742 173.0984 138.6987 174.7007 153 167 C157.3675 164.6483 157.9281 163.891 161 160 C165.0432 154.8786 166.913 153.5902 168 148 C169.9525 137.9586 168 124 168 124 "/>
<path id="3" d="M151 97 C151 97 155.5733 97.8969 158 100 C162.2129 103.6512 162.6189 107.8868 166 110 C167.8982 111.1864 170.6745 108.9879 174 110 C181.1209 112.1672 183.407 112.4428 189 117 C195.5435 122.3317 196.0332 124.3842 201 132 C203.1665 135.3219 204 140 204 140 "/>
<path id="4" d="M165 126 C165 126 167.6199 125.3099 169 126 C177.9707 130.4854 178.9747 133.5771 189 138 C195.0734 140.6795 203 141 203 141 "/>
<path id="5" d="M78 109 C78 109 63.3876 113.2621 53 120 C46.3953 124.2842 41 133 41 133 "/>
<path id="6" d="M41 133 C41 133 47.4353 134.4862 52 133 C67.1705 128.0608 84 119 84 119 "/>
<path id="7" d="M87 101 C87 101 82.591 96.664 82 93 C80.4565 83.4305 79.3003 77.6838 82 70 C84.1795 63.7969 94.989 56.0066 95 56 C95.004 55.9976 92.4831 60.1353 92 64 C91.0771 71.3834 90.0756 73.6495 92 80 C94.4091 87.9501 102 97 102 97 "/>
<path id="8" d="M146 100 C146 100 154.0724 95.437 157 90 C163.322 78.2592 166.9029 61.118 167 61 C167.0227 60.9724 170.1 67.1503 171 73 C171.9987 79.4917 172.8819 81.8676 171 87 C168.3071 94.3443 160 103 160 103 "/>
<path id="9" d="M75 189 C75 189 76.6832 183.4389 78 183 C83.7059 181.098 92.1308 179.4489 99 181 C103.0223 181.9083 106.0319 186.4383 109 190 C109.5137 190.6165 109 193 109 193 "/>
<path id="10" d="M79 191 C79 191 78.7653 193.8436 79 194 C79.7822 194.5215 84.616 195.192 85 195 C85.1396 194.9302 85.3577 191.3577 85 191 C84.4635 190.4635 80 190 80 190 "/>
<path id="11" d="M92 194 C92 194 93.154 196.577 94 197 C94.9668 197.4834 97.6 197.2 98 197 C98.1 196.95 98.1578 195.0947 98 195 C97.2636 194.5582 93 194 93 194 "/>
<path id="12" d="M140 127 C140 127 138.6382 136.6382 139 137 C139.3618 137.3618 148.0049 136.7961 149 136 C149.516 135.5872 149.5528 129.5528 149 129 C148.2893 128.2893 141 128 141 128 "/>
<path id="13" d="M92 128 C92 128 90.8374 134.756 91 135 C91.0599 135.0899 95.2811 134.7189 96 134 C96.7189 133.2811 97.2035 129.1744 97 129 C96.4515 128.5299 89 128 89 128 "/>
<path id="14" d="M165 105 C165 105 176.4013 102.2949 181 105 C196.1318 113.9011 198.3358 125.8146 216 135 C231.5976 143.1107 236.3411 142.2717 256 144 C280.5365 146.1571 283.1786 146.6009 307 143 C324.1445 140.4084 324.2764 135.8653 342 131 C375.0424 121.9295 375.9545 119.1963 409 115 C437.2433 111.4136 439.944 111.1844 468 115 C500.4841 119.4178 502.4686 121.852 534 132 C544.8266 135.4844 545.6337 136.7558 555 143 C559.9586 146.3058 564 152 564 152 "/>
<path id="15" d="M136 177 C136 177 143.8298 181.2853 148 187 C156.4366 198.5612 156.8941 200.1443 163 214 C169.694 229.1903 169.4923 229.8132 174 246 C180.4361 269.1114 177.8294 270.8364 185 293 C188.4831 303.7659 189.6861 304.3919 196 314 C200.8952 321.4492 201.3166 322.5698 208 328 C216.5061 334.9112 217.7378 336.053 228 340 C242.6236 345.6244 260 348 260 348 "/>
<path id="16" d="M265 289 C265 289 263.0632 290.7035 263 292 C262.2241 307.9051 258.9372 314.1764 263 330 C267.3706 347.0222 277.1224 348.5799 282 366 C286.6699 382.6781 286.479 387.6471 284 405 C281.9052 419.6635 278.694 421.4963 272 436 C270.027 440.2748 267.8223 440.0951 266 444 C264.7402 446.6997 266.3658 448.405 265 451 C261.9628 456.7707 258.9528 457.7506 256 463 C255.3078 464.2306 255.4068 466.0509 256 467 C257.0566 468.6906 258.8142 470.6357 261 471 C268.3287 472.2215 275.1999 471.9143 280 471 C280.6978 470.8671 281.8959 468.7698 282 467 C282.3272 461.4379 279.676 458.3503 281 454 C282.2968 449.7391 286.3633 449.0098 289 444 C290.8653 440.456 289.2359 439.0182 291 435 C297.9692 419.1257 303.2058 417.9238 307 403 C309.8135 391.9334 302.8767 386.9315 306 376 C311.7288 355.9492 318.8296 354.7876 327 333 C333.4841 315.7091 336 296 336 296 "/>
<path id="17" d="M209 328 C209 328 211.6215 349.7315 210 370 C208.7019 386.2264 207.4967 386.9066 203 403 C198.0663 420.6574 198.7144 423.4614 191 438 C187.0039 445.5311 180.0599 445.8802 177 452 C174.9601 456.0799 178.1296 460.3522 177 466 C176.4514 468.7432 172.9543 471.9831 173 472 C173.5974 472.2201 193.8116 474.2766 196 473 C196.9519 472.4448 194.9232 461.2635 197 458 C199.0285 454.8124 208.9544 453.7012 210 451 C212.052 445.699 207.0162 437.36 209 427 C211.076 416.1585 214.1126 413.3988 219 404 C219.617 402.8135 221.6228 402.9429 222 402 C222.9901 399.5248 221.7016 397.5705 223 394 C231.3688 370.9857 242 347 242 347 "/>
<path id="18" d="M542 134 C542 134 547.4391 133.4147 550 135 C556.0698 138.7575 557.8718 140.2269 563 147 C583.7276 174.376 585.9466 175.8672 603 205 C609.008 215.2637 609.8345 217.3447 611 229 C613.6318 255.3184 611.0248 284.8057 611 285 C610.9964 285.0286 606.4639 280.1477 605 276 C603.9466 273.0154 604.0277 271.1113 605 268 C606.1622 264.2811 609.2293 263.6992 610 260 C611.3638 253.4539 610.9304 251.676 610 244 C608.9832 235.6117 608.9628 234.9995 606 227 C599.1185 208.42 599.187 207.5127 590 190 C583.444 177.5027 574 166 574 166 "/>
<path id="19" d="M333 336 C333 336 344.6541 334.9988 355 336 C359.3689 336.4228 359.6684 338.787 364 339 C388.6233 340.211 391.8078 342.168 416 339 C431.5576 336.9627 433.7052 335.4674 448 328 C466.0027 318.5956 483 304 483 304 "/>
<path id="20" d="M480 305 C480 305 487.6532 302.3186 493 298 C499.9674 292.3725 505.0822 284 506 284 C506.6354 284 511.5463 290.7088 515 298 C520.3448 309.2835 522.2732 310.2261 524 322 C527.4982 345.8515 526.3842 348.41 526 373 C525.9016 379.2945 525.367 379.9509 523 386 C512.0797 413.9074 512.1352 416.4802 499 442 C495.606 448.5941 490.5343 448.701 488 454 C486.3849 457.3769 487.4194 464.6807 488 465 C489.9194 466.0557 505.7725 466.6464 508 465 C509.7336 463.7187 508.7599 452.0729 511 448 C511.8888 446.3839 518.6586 446.1759 519 445 C520.8145 438.7501 515.8 427.5778 520 417 C527.443 398.2546 536.6233 397.4808 546 377 C554.7608 357.8646 550.3507 354.3 558 334 C563.0342 320.64 567.2153 321.025 572 308 C575.7594 297.7661 575.4572 296.3986 576 285 C577.4277 255.0174 578.1168 253.2817 576 224 C575.2215 213.2312 571.389 212.938 570 202 C567.4826 182.1758 571.0197 179.4535 568 161 C566.8934 154.2372 561 147 561 147 "/>
<path id="21" d="M521 322 C521 322 517.9784 328.6405 517 335 C516.0658 341.072 518.3756 342.039 517 348 C508.2335 385.988 508.7886 395.5041 496 426 C492.6781 433.9215 481.3126 436.0311 478 441 C477.0594 442.4109 479.2962 449.7537 480 450 C482.3643 450.8275 498 448 498 448 "/>
<path id="22" d="M464 320 C464 320 465.9626 327.8972 469 330 C475.7608 334.6805 488.7268 336.6472 490 338 C490.1969 338.2092 486.3203 342.775 485 347 C484.125 349.8 484.6832 353.2608 485 354 C485.0582 354.1358 487.775 354.3477 488 354 C490.5703 350.0278 493.4297 340.9722 496 337 C496.225 336.6523 498.8098 336.6909 499 337 C500.6566 339.692 503.9967 350.0028 504 350 C504.0091 349.9924 504.7241 333.1728 505 332 C505.0045 331.9811 507.6067 332.3257 508 333 C509.907 336.2691 511.9984 344.0035 512 344 C512.0034 343.9924 509.9626 332.3761 512 324 C513.9548 315.9635 521 307 521 307 "/>
<path id="23" d="M96 99 C96 99 103.7852 95.2365 111 95 C132.9023 94.2819 157 97 157 97 "/>
<path id="24" d="M173 119 C173 119 177.4188 123.2074 182 125 C188.1258 127.397 196 128 196 128 "/>
<path id="25" d="M72 119 C72 119 67.3904 117.9376 65 119 C60.0295 121.2091 54 127 54 127 "/>
<path id="26" d="M126 152 C126 152 121.8673 151.7162 120 153 C115.2881 156.2395 110 163 110 163 "/>
</g>
</g>
</svg>
