<?xml version="1.0" encoding="utf-8"?>
<!DOCTYPE svg PUBLIC "-//W3C//DTD SVG 1.1//EN" "http://www.w3.org/Graphics/SVG/1.1/DTD/svg11.dtd">
<svg viewBox="0 0 800 800" preserveAspectRatio="xMinYMin meet" xmlns="http://www.w3.org/2000/svg" version="1.1">
<g fill="none" stroke="black" stroke-linecap="round" stroke-linejoin="round" stroke-width="1.6561">
<g transform="translate(227.9096,87.52) scale(1.8115) translate(-141,-65)">
<path id="0" d="M202 151 C202 151 201.36 147.28 202 146 C202.64 144.72 204.2664 143.1926 206 143 C215.2014 141.9776 218.1777 141.9854 229 143 C233.3672 143.4094 235.8009 146.3142 238 146 C239.4661 145.7906 241.0593 141.2043 243 141 C254.5515 139.7841 267.082 141.2131 276 142 C276.3171 142.028 276.5938 143.8375 277 144 C277.9028 144.3611 280.3631 144.3822 281 144 C281.4459 143.7325 282 141 282 141 "/>
<path id="1" d="M204 147 C204 147 204.2088 160.9231 203 166 C202.8145 166.7791 200.9 167.525 199 168 C197.3111 168.4222 195.6599 168.6599 195 168 C189.0608 162.0608 184.4336 157.6598 179 148 C176.5408 143.6281 177 141.8718 177 136 C177 113.0022 174.7598 103.4665 179 89 C180.3719 84.3193 193.9554 77.8834 194 78 C194.5025 79.312 194.2749 111.0851 197 136 C197.3008 138.7498 199.0175 140.2653 201 142 C202.0449 142.9142 205 143 205 143 "/>
<path id="2" d="M282 142 C282 142 286.835 139.4848 287 138 C288.4848 124.6369 289.517 115.248 287 97 C285.8886 88.9426 281.2331 88.0951 279 80 C277.6048 74.9424 277.8587 69.5563 279 68 C280.0525 66.5648 288.8064 64.2706 290 65 C292.0255 66.2378 296.2325 72.3227 297 79 C300.8024 112.0804 300 152 300 152 "/>
<path id="3" d="M280 143 C280 143 281.1715 146.943 283 149 C284.5706 150.7669 285.6873 151.5919 288 152 C293.0191 152.8857 300 152 300 152 "/>
<path id="4" d="M197 169 C197 169 180.463 167.6302 169 168 C167.744 168.0405 167.0896 168.7427 166 170 C154.6456 183.1012 150.3389 184.79 143 198 C139.7405 203.8671 139.4178 210.7281 141 215 C142.4056 218.7951 147.833 223.7762 153 225 C162.2646 227.1942 169.9599 226.7622 179 224 C183.4866 222.6291 185.0128 219.3163 189 214 C192.1328 209.8229 193.2623 208.7213 194 204 C195.5053 194.3659 192.6538 189.0001 194 182 C194.3036 180.4213 199 178 199 178 "/>
<path id="5" d="M185 174 C185 174 175.9529 171.6132 171 173 C166.2203 174.3383 164.0702 176.6585 160 181 C157.3884 183.7857 157.0453 184.9932 156 189 C154.206 195.8771 154.5973 196.5341 154 204 C153.606 208.9247 153.1654 211.9969 154 214 C154.3408 214.8179 156.7255 215.8484 159 216 C163.4013 216.2934 166.63 216.8057 169 215 C173.9392 211.2368 175.3613 207.8126 180 200 C184.6859 192.108 183.2682 188.728 188 183 C191.0238 179.3396 199 177 199 177 "/>
<path id="6" d="M199 177 C199 177 205.6208 183.1244 206 188 C208.595 221.3642 201.7638 238.8598 206 267 C206.8637 272.7376 212.5044 275.6805 220 281 C227.1017 286.0399 237 289 237 289 "/>
<path id="7" d="M298 152 C298 152 302.4202 151.331 303 152 C305.9345 155.386 306.1574 162.6954 311 167 C317.129 172.448 326.752 171.94 330 176 C332.2548 178.8185 332.1764 186.8238 331 192 C330.4508 194.4165 327.6348 197.012 325 198 C321.8063 199.1976 318.2962 199.5108 315 198 C308.7234 195.1232 306.8306 193.0841 301 187 C295.8361 181.6116 295.0081 176.4065 292 174 C291.1937 173.355 287.8008 173.7994 286 175 C283.1187 176.9209 280.741 178.9126 280 182 C278.4197 188.5844 278.0713 191.8567 280 200 C286.6714 228.1683 291.1555 229.8615 298 258 C299.7556 265.2175 299.1428 266.8575 298 274 C297.3115 278.3034 296.6023 279.1966 294 283 C290.4174 288.2361 289.5573 289.0937 285 293 C283.2586 294.4926 282.3835 294.8093 280 295 C270.7616 295.7391 268.4183 296.9242 260 295 C252.9166 293.3809 252.2852 289.1151 245 287 C238.1489 285.011 229 286 229 286 "/>
<path id="8" d="M301 167 C301 167 306.1338 168.1338 307 169 C307.4331 169.4331 306.3208 171.7265 307 173 C309.5923 177.8606 313.7653 179.6785 315 184 C315.8762 187.0669 313.9578 192.6317 313 194 C312.7059 194.4201 309.4037 194.7657 308 194 C305.3967 192.58 304.2651 191.331 302 188 C296.0497 179.2495 291 169 291 169 "/>
<path id="9" d="M216 198 C216 198 216.7325 189.1619 218 188 C219.2391 186.8641 225.3304 186.3839 228 187 C229.072 187.2474 230.7356 189.2374 231 191 C231.9506 197.3374 231.8979 201.3133 231 207 C230.8051 208.2346 229.092 209.7573 228 210 C226.2792 210.3824 224.0744 210.1315 222 209 C219.5511 207.6642 217.845 206.1969 217 204 C216.0236 201.4613 217 196 217 196 "/>
<path id="10" d="M223 201 L224 201 "/>
<path id="11" d="M263 210 C263 210 260.4001 202.3504 259 195 C258.467 192.202 258.404 190.5893 259 189 C259.3104 188.1722 260.9265 187 262 187 C265.2204 187 268.7644 187.5774 271 189 C272.1277 189.7176 272.7335 191.6019 273 194 C273.6633 199.9697 273.8578 202.4252 273 207 C272.7649 208.2537 271.3114 209.5629 270 210 C268.0329 210.6557 264 210 264 210 "/>
<path id="12" d="M266 200 L267 200 "/>
<path id="13" d="M229 254 C229 254 226.1364 256.8183 226 259 C225.2919 270.3292 226.3457 282.4668 227 286 C227.0178 286.0963 230.68 285.76 231 286 C231.18 286.135 230.9375 288.9905 231 289 C235.5767 289.6934 248.7363 288.4019 264 291 C270.8769 292.1705 278 297 278 297 "/>
<path id="14" d="M227 257 C227 257 230.167 251.7683 234 249 C238.383 245.8345 239.8859 244.5245 245 244 C257.3924 242.729 269.9354 242.0183 273 245 C277.5539 249.4309 278.7143 262.8414 282 280 C283.0737 285.6069 282.8803 287.3051 282 292 C281.6653 293.7851 280.28 295.36 279 296 C277.72 296.64 274 296 274 296 "/>
<path id="15" d="M268 245 C268 245 269.2235 250.7793 271 253 C272.0249 254.2812 276 255 276 255 "/>
<path id="16" d="M240 248 C240 248 238.3694 254.4152 236 257 C234.2386 258.9216 229 260 229 260 "/>
<path id="17" d="M235 290 C235 290 228.0702 293.6585 224 298 C221.3884 300.7857 221.0126 302.2027 220 306 C219.2182 308.9318 219.0584 311.1169 220 313 C221.0761 315.1522 223.4513 317.7451 226 318 C247.2128 320.1213 268.1982 320.4493 280 319 C280.8724 318.8929 282.8606 314.6253 283 311 C283.3079 302.9935 281 293 281 293 "/>
<path id="18" d="M238 321 C238 321 239.2281 328.4642 242 333 C243.9723 336.2274 245.8766 338.063 249 339 C253.6141 340.3842 259.0488 340.8888 262 339 C267.0488 335.7688 274 323 274 323 "/>
<path id="19" d="M241 313 C241 313 242.0709 302.523 244 301 C246.8408 298.7573 253.4995 298.325 260 298 C261.5698 297.9215 263.3275 298.8231 264 300 C266.2417 303.923 265.7514 308.8519 268 312 C268.9514 313.3319 274 314 274 314 "/>
<path id="20" d="M293 281 C293 281 292.5974 295.2547 294 309 C295.0685 319.4711 294.9034 320.1941 298 330 C300.7159 338.6005 301.2966 339.2533 306 347 C309.5429 352.8354 310.0576 353.799 315 358 C319.3364 361.6859 326 364 326 364 "/>
<path id="21" d="M255 339 C255 339 256.9751 354.4214 255 368 C253.15 380.7188 246.5216 392.7561 247 394 C247.1445 394.3757 258.5761 396.855 265 394 C285.5008 384.8885 289.718 375.7913 310 366 C314.5058 363.8248 323 366 323 366 "/>
<path id="22" d="M248 397 C248 397 247.0298 401.8979 248 404 C249.2154 406.6335 251.4543 409.4343 254 410 C261.2898 411.62 266.1082 412.1687 275 410 C284.5011 407.6827 286.9344 406.2221 295 400 C303.182 393.6881 301.8514 390.13 310 383 C317.2622 376.6456 327 372 327 372 "/>
</g>
</g>
</svg>
