<?xml version="1.0" encoding="utf-8"?>
<!DOCTYPE svg PUBLIC "-//W3C//DTD SVG 1.1//EN" "http://www.w3.org/Graphics/SVG/1.1/DTD/svg11.dtd">
<svg viewBox="0 0 800 800" preserveAspectRatio="xMinYMin meet" xmlns="http://www.w3.org/2000/svg" version="1.1">
<g fill="none" stroke="black" stroke-linecap="round" stroke-linejoin="round" stroke-width="1.7905">
<g transform="translate(87.52,198.0329) scale(1.6755) translate(-111,-2.0333)">
<path id="0" d="M130 68.0333 C130 68.0333 125.8273 71.7242 125 75.0333 C123.2702 81.9525 122.3263 89.1641 124 92.0333 C125.6058 94.7861 132.0038 97.957 139 99.0333 C149.3771 100.6298 152.7607 100.1414 163 98.0333 C167.7526 97.0549 169.2326 95.5653 173 92.0333 C176.4811 88.7698 177.0694 87.4463 179 83.0333 C180.2352 80.21 180.4715 76.7406 180 76.0333 C179.5037 75.2888 173 74.0333 173 74.0333 "/>
<path id="1" d="M135 66.0333 C135 66.0333 147.5202 38.4517 158 22.0333 C159.3337 19.9438 161.878 19.149 165 19.0333 C173.7481 18.7093 177.7735 18.4524 185 21.0333 C188.7877 22.3861 191.9937 25.4554 193 29.0333 C195.3838 37.5092 197.0554 45.4753 194 53.0333 C189.9749 62.9903 174 76.0333 174 76.0333 "/>
<path id="2" d="M184 28.0333 C184 28.0333 198.9546 20.3563 203 15.0333 C204.7691 12.7055 203 3.0333 203 3.0333 C203.0282 3.0333 209.3578 9.4908 211 15.0333 C212.7142 20.8187 212.1359 23.5018 211 30.0333 C210.3415 33.8197 209.3 36.4098 207 38.0333 C203.2274 40.6964 194 42.0333 194 42.0333 "/>
<path id="3" d="M156 22.0333 C156 22.0333 150.473 21.9435 147 20.0333 C141.5154 17.0168 137.9114 14.4738 136 11.0333 C134.9319 9.1107 137.0035 2.0404 137 2.0333 C136.9986 2.0304 134.2263 4.7702 134 7.0333 C132.9325 17.7087 131.9775 25.0671 134 32.0333 C134.6968 34.4333 138.8436 36.7208 143 38.0333 C146.8151 39.2381 153 38.0333 153 38.0333 "/>
<path id="4" d="M152 37.0333 C152 37.0333 136.3841 34.3257 125 36.0333 C119.0429 36.9269 115.6715 39.8864 112 43.0333 C110.9786 43.9088 110.9362 48.005 111 48.0333 C111.499 48.2551 116.8076 46.3714 121 47.0333 C125.1027 47.6811 125.6852 50.125 130 51.0333 C134.384 51.9563 135.6663 51.8459 140 51.0333 C142.844 50.5001 146 48.0333 146 48.0333 "/>
<path id="5" d="M189 41.0333 C189 41.0333 199.4022 38.7318 206 41.0333 C218.1215 45.2618 232.0071 56.0033 232 56.0333 C231.9928 56.064 216.2558 58.3728 202 58.0333 C196.2546 57.8965 190 55.0333 190 55.0333 "/>
<path id="6" d="M184 67.0333 C184 67.0333 187.88 74.9133 193 80.0333 C197.6546 84.6879 205 88.0333 205 88.0333 "/>
<path id="7" d="M205 87.0333 C205 87.0333 196.3136 91.9724 194 97.0333 C189.7995 106.2219 190.238 109.6535 189 122.0333 C187.7863 134.1704 185.9443 139.3942 189 147.0333 C191.6156 153.5725 205 162.0333 205 162.0333 "/>
<path id="8" d="M231 59.7333 C231 59.7333 248.5983 63.3286 266 63.7333 C312.6006 64.8171 315.9158 60.7476 360 62.7333 C368.1033 63.0984 371.1276 63.962 377 68.7333 C392.5198 81.3432 401.7104 87.1253 408 101.7333 C413.2925 114.0256 410.634 123.1732 408 140.7333 C406.4905 150.7966 404.3292 152.6423 399 161.7333 C396.4263 166.1238 391 169.7333 391 169.7333 "/>
<path id="9" d="M205 162.7333 C205 162.7333 205.5905 177.117 202 188.7333 C197.5561 203.1106 187.6879 216.6931 188 217.7333 C188.0994 218.0647 199.5073 218.337 211 218.7333 C213.9936 218.8366 216.9879 218.8214 217 218.7333 C217.4214 215.678 214.6642 203.5024 215 189.7333 C215.14 183.9914 215.3569 182.491 218 177.7333 C222.1903 170.1907 230 162.7333 230 162.7333 "/>
<path id="10" d="M216 119.7333 C216 119.7333 217.5848 137.7957 221 153.7333 C221.8625 157.7583 222.5682 158.8152 225 161.7333 C226.9311 164.0507 231 165.7333 231 165.7333 "/>
<path id="11" d="M258 122.7333 C258 122.7333 261.4372 147.1099 258 167.7333 C254.8428 186.6764 249.3197 187.5825 244 206.7333 C242.105 213.5552 243.9328 220.6451 243 221.7333 C242.5042 222.3118 236.6066 222.1881 232 220.7333 C228.1004 219.5019 224.0274 216.0075 224 215.7333 C223.9797 215.5301 230.8448 212.4099 231 210.7333 C232.3416 196.2438 229 161.7333 229 161.7333 C229 161.7333 230.5233 190.0257 229 211.7333 C228.7782 214.8943 225 218.7333 225 218.7333 "/>
<path id="12" d="M254 165.7333 C254 165.7333 259.1018 170.4693 264 171.7333 C273.126 174.0884 275.1916 174.748 285 173.7333 C302.8439 171.8874 304.8427 170.9856 322 165.7333 C328.1511 163.8504 334 158.7333 334 158.7333 "/>
<path id="13" d="M373 79.6333 C373 79.6333 364.3637 81.6189 358 84.6333 C355.8402 85.6564 355.4896 86.3989 354 88.6333 C348.7118 96.5656 348.0763 96.9372 344 105.6333 C340.7401 112.5877 340.2151 113.1689 339 120.6333 C336.8235 134.0034 336.0607 136.4219 337 148.6333 C337.384 153.6259 338.7152 155.322 342 159.6333 C346.077 164.9844 353 169.6333 353 169.6333 "/>
<path id="14" d="M353 169.6333 C353 169.6333 349.8272 183.5654 345 195.6333 C343.1154 200.3448 340.7492 199.9687 339 204.6333 C335.074 215.1028 332.3106 226.7141 333 227.6333 C333.708 228.5774 354.6493 230.9168 357 228.6333 C361.5934 224.1711 368 193.6333 368 193.6333 "/>
<path id="15" d="M368 196.6333 C368 196.6333 376.4581 191.9669 382 185.6333 C393.2923 172.7279 403 156.6333 403 156.6333 "/>
<path id="16" d="M300 170.6333 C300 170.6333 302.6091 179.3859 305 180.6333 C309.4563 182.9583 322.4061 182.0395 323 182.6333 C323.1782 182.8115 318.2979 191.6973 318 193.6333 C317.9611 193.8864 320.4949 195.7849 321 195.6333 C322.7888 195.0967 327.9878 190.6194 328 190.6333 C328.1412 190.7947 327.5116 203.0364 328 203.6333 C328.2015 203.8796 335.6068 203.0265 337 201.6333 C338.3932 200.2402 337.4235 195.3359 339 192.6333 C339.9175 191.0605 341.9623 190.0409 344 189.6333 C345.7466 189.284 348.0482 191.1525 349 190.6333 C351.0978 189.4891 355 183.6333 355 183.6333 "/>
<path id="17" d="M308 178.6333 C308 178.6333 292.3139 215.1268 293 218.6333 C293.198 219.6452 312.0672 225.5582 317 224.6333 C319.2103 224.2189 322.6252 218.6784 325 212.6333 C327.6941 205.7756 328 196.6333 328 196.6333 "/>
<path id="18" d="M409 105.6333 C409 105.6333 411.8199 109.2845 414 109.6333 C421.7308 110.8703 426.5614 112.5556 434 109.6333 C450.604 103.1103 452.8803 98.9073 470 87.6333 C472.8119 85.7816 474.6134 84.3085 475 82.6333 C475.4736 80.5812 473 74.6333 473 74.6333 "/>
<path id="19" d="M473 74.6333 C473 74.6333 480.9923 38.6389 481 38.6333 C481.0039 38.6305 485.3288 56.0029 484 66.6333 C483.3747 71.6359 476 78.6333 476 78.6333 "/>
<path id="20" d="M300 67.6333 C300 67.6333 299.8461 79.6333 302 87.6333 C302.7704 90.4948 304.3922 92.2527 307 93.6333 C311.3338 95.9277 313.5878 96.7973 319 96.6333 C328.5988 96.3425 335.2137 91.6077 340 92.6333 C342.1725 93.0989 347 102.6333 347 102.6333 "/>
<path id="21" d="M406 121.6333 C406 121.6333 394.8243 119.6447 391 121.6333 C386.7269 123.8553 383.2842 128.3517 381 134.6333 C378.1541 142.4597 378.3981 146.5073 379 154.6333 C379.2212 157.62 380.6252 159.4564 383 161.6333 C385.6598 164.0715 390.1622 163.9578 391 165.6333 C392.2567 168.1466 391 177.6333 391 177.6333 "/>
<path id="22" d="M232 86.6333 C232 86.6333 230.6709 104.761 231 114.6333 C231.0243 115.3629 232.2249 116.5799 233 116.6333 C242.7889 117.3084 248.8734 114.408 260 116.6333 C266.0166 117.8367 268.7957 120.4291 273 124.6333 C275.2022 126.8356 274.0902 130.5326 276 132.6333 C277.667 134.467 281.2716 135.979 283 135.6333 C285.4845 135.1364 288.4667 132.8575 291 129.6333 C293.1356 126.9153 293.6386 125.5186 294 121.6333 C295.532 105.1645 297.2587 101.8793 295 86.6333 C293.6822 77.7385 287.5692 74.1716 286 67.6333 C285.6084 66.0019 289.0181 61.6388 289 61.6333 C288.817 61.5784 276 64.6333 276 64.6333 "/>
<path id="23" d="M233 90.6333 C233 90.6333 242.1927 78.7809 250 74.6333 C254.7552 72.1071 258.7161 75.1295 265 73.6333 C267.867 72.9507 269.4086 71.9481 271 69.6333 C274.0237 65.2353 276 57.6333 276 57.6333 "/>
<path id="24" d="M155 37.6333 C155 37.6333 151.9396 40.1904 151 42.6333 C149.7951 45.766 149.562 49.9763 150 50.6333 C150.3385 51.1411 156.5 52.0083 157 51.6333 C157.5 51.2583 158 44.6333 158 44.6333 "/>
<path id="25" d="M173 42.6333 C173 42.6333 167.53 46.5734 166 49.6333 C164.98 51.6733 165.3014 55.3758 166 56.6333 C166.4768 57.4916 169.4685 58.9396 171 58.6333 C174.6624 57.9009 179.27 55.9924 181 53.6333 C182.5056 51.5803 182 43.6333 182 43.6333 "/>
<path id="26" d="M153 42.6333 C153 42.6333 159.817 39.5288 160 39.6333 C160.1385 39.7124 160 46.6333 160 46.6333 "/>
<path id="27" d="M175 43.6333 C175 43.6333 179.9451 41.5602 180 41.6333 C180.337 42.0827 181 51.6333 181 51.6333 "/>
<path id="28" d="M133 72.6333 C133 72.6333 128.8265 76.7404 128 79.6333 C127.3416 81.9378 127.9666 84.0497 129 86.6333 C129.5866 88.0997 131.2504 89.6333 132 89.6333 C133.9988 89.6333 139.3529 87.7427 140 86.6333 C140.7104 85.4155 140.4382 80.7151 139 77.6333 C137.6631 74.7686 133 71.6333 133 71.6333 "/>
<path id="29" d="M160 76.6333 C160 76.6333 152.5176 81.8569 150 85.6333 C149.0358 87.0796 149.574 91.3352 150 91.6333 C151.0852 92.393 156.808 93.5722 160 92.6333 C162.8825 91.7855 166.0194 88.9214 167 86.6333 C167.825 84.7084 167.0469 80.1289 166 78.6333 C165.2539 77.5675 160 76.6333 160 76.6333 "/>
<path id="30" d="M180 45.1167 C180 45.1167 178.9999 52.1167 179 52.1167 C179.0004 52.1167 182 45.1167 182 45.1167 "/>
<path id="31" d="M158 44.1167 C158 44.1167 158.0002 41.1165 158 41.1167 C157.9997 41.1169 157 45.1167 157 45.1167 "/>
<path id="32" d="M179 79.1167 C179 79.1167 183.1104 82.9142 184 86.1167 C185.1665 90.3159 185.4037 93.9584 184 97.1167 C182.653 100.1473 179.5531 103.0803 176 104.1167 C170.3386 105.7679 166.9217 105.4478 160 104.1167 C155.258 103.2047 150 99.1167 150 99.1167 "/>
<path id="33" d="M191 215.1167 C191 215.1167 183.9451 225.0938 184 225.1167 C184.6007 225.367 203.853 226.3906 215 225.1167 C216.6027 224.9335 218.2966 222.8752 219 221.1167 C219.7537 219.2325 219 215.1167 219 215.1167 "/>
<path id="34" d="M221 219.1167 C221 219.1167 216.9251 230.0774 217 230.1167 C218.0625 230.6732 237.242 231.3502 242 230.1167 C242.726 229.9284 244 223.1167 244 223.1167 "/>
<path id="35" d="M292 218.1167 C292 218.1167 287.6554 233.8769 288 234.1167 C289.3049 235.0244 305.3256 235.365 315 234.1167 C316.6182 233.9079 318.6169 231.6489 319 230.1167 C319.5937 227.7417 318 222.1167 318 222.1167 "/>
<path id="36" d="M336 226.1167 C336 226.1167 332.4213 242.5989 333 243.1167 C334.0426 244.0495 348.0112 245.2133 355 243.1167 C358.3991 242.0969 360.8559 238.4048 363 234.1167 C364.5668 230.983 364 225.1167 364 225.1167 "/>
</g>
</g>
</svg>
