<?xml version="1.0" encoding="utf-8"?>
<!DOCTYPE svg PUBLIC "-//W3C//DTD SVG 1.1//EN" "http://www.w3.org/Graphics/SVG/1.1/DTD/svg11.dtd">
<svg viewBox="0 0 800 800" preserveAspectRatio="xMinYMin meet" xmlns="http://www.w3.org/2000/svg" version="1.1">
<g fill="none" stroke="black" stroke-linecap="round" stroke-linejoin="round" stroke-width="2.2945">
<g transform="translate(87.52,150.539) scale(1.3074) translate(-1,-39.3333)">
<path id="0" d="M80 151.3333 C80 151.3333 87.688 150.4559 95 151.3333 C124.7743 154.9062 125.2291 158.9072 155 160.3333 C207.6891 162.8574 208.5327 160.1496 262 159.3333 C273.9986 159.1501 274.6781 160.3024 286 158.3333 C296.8739 156.4422 303.4784 153.1831 308 151.3333 C308.1488 151.2725 307.9627 149.3383 308 149.3333 C312.2282 148.7696 326.5338 150.2734 338 147.3333 C342.1529 146.2685 343.8236 143.1451 347 139.3333 C347.9905 138.1447 348.1265 137.104 348 135.3333 C347.6735 130.7617 347.1886 127.5124 346 125.3333 C345.659 124.7082 342.7791 125.2794 342 124.3333 C337.6028 118.9939 333.7562 115.5534 332 108.3333 C330.0223 100.2028 329.9416 93.8099 333 87.3333 C336.2127 80.53 341.3809 76.1429 349 72.3333 C355.1601 69.2533 358.8218 69.404 367 70.3333 C379.33 71.7345 383.0985 72.122 393 77.3333 C399.285 80.6412 398.4564 84.9179 405 90.3333 C412.5053 96.5446 413.1569 96.9118 422 101.3333 C434.7733 107.72 437.619 104.9457 449 112.3333 C464.6269 122.4771 474.2973 130.621 479 138.3333 C480.2689 140.4143 477.756 147.3238 474 153.3333 C468.5344 162.0783 465.2543 168.059 459 170.3333 C450.5446 173.408 443.8865 168.6559 430 169.3333 C424.174 169.6175 422.9174 170.004 418 172.3333 C414.3939 174.0415 414.7529 176.1888 411 178.3333 C404.728 181.9173 403.7284 182.8915 397 184.3333 C390.8375 185.6539 383 184.3333 383 184.3333 "/>
<path id="1" d="M456 139.3333 C456 139.3333 460.9466 141.1044 462 142.3333 C462.5174 142.937 461.3814 145.2199 462 146.3333 C463.2028 148.4984 464.835 150.1305 467 151.3333 C468.1134 151.9519 471.0016 151.3317 471 151.3333 C470.9959 151.3374 466.0703 154.6784 464 154.3333 C460.1779 153.6963 454.1498 149.7386 453 148.3333 C452.7422 148.0182 454.2107 143.6152 455 143.3333 C457.5019 142.4398 466.5563 143.2527 467 143.3333 C467.0235 143.3376 466 145.3333 466 145.3333 "/>
<path id="2" d="M378 99.3333 C378 99.3333 386.5179 98.6596 388 99.3333 C388.4851 99.5538 388.494 103.7009 389 104.3333 C389.2094 104.595 391.8125 104.1458 392 104.3333 C392.1875 104.5208 392.0511 107.3248 392 107.3333 C390.7899 107.535 385.0103 107.7251 380 106.3333 C377.0981 105.5272 373.9992 102.3345 374 102.3333 C374.0114 102.3181 382.9935 102.3529 383 102.3333 C383.008 102.3094 376 96.3333 376 96.3333 "/>
<path id="3" d="M345 63.3333 L342 61.3333 "/>
<path id="4" d="M356 73.3333 C356 73.3333 351.1192 72.4525 350 71.3333 C349.1606 70.4939 348.5068 67.6895 349 66.3333 C349.8316 64.0464 353.2553 63.0142 354 60.3333 C355.2094 55.9794 352.6701 52.988 354 48.3333 C355.1874 44.1774 357.734 41.5994 360 39.3333 C360.4532 38.8801 362.9817 39.2455 363 39.3333 C363.7148 42.7645 362.5936 52.5044 365 63.3333 C366.3126 69.24 371 75.3333 371 75.3333 "/>
<path id="5" d="M339 80.3333 C339 80.3333 329.8515 77.3885 327 74.3333 C325.1985 72.4031 324.205 67.2641 325 65.3333 C326.1382 62.5691 333.6619 57.2553 334 57.3333 C334.309 57.4046 336.0825 65.4571 338 68.3333 C338.5145 69.105 341.3242 68.6575 342 69.3333 C342.6758 70.0092 342.9998 73.3335 343 73.3333 C343.0003 73.333 343 68.3333 343 68.3333 "/>
<path id="6" d="M463 123.9333 C463 123.9333 464.9904 123.8853 465 123.9333 C465.2404 125.1353 464.5237 133.3975 465 133.9333 C465.2911 134.2608 473 132.9333 473 132.9333 "/>
<path id="7" d="M458 145.9333 C458 145.9333 464.9819 151.879 465 151.9333 C465.0036 151.9442 460 151.9333 460 151.9333 "/>
<path id="8" d="M466 126.9333 C466 126.9333 469.9993 126.9327 470 126.9333 C470.0003 126.9337 467 127.9333 467 127.9333 "/>
<path id="9" d="M91 153.9333 C91 153.9333 79.3504 154.3134 69 152.9333 C65.0719 152.4096 64.867 150.4377 61 149.9333 C54.0875 149.0317 51.7178 148.7898 46 149.9333 C43.7891 150.3755 41.1573 152.4547 41 153.9333 C39.5075 167.9626 42.1492 176.2481 41 196.9333 C40.7016 202.3051 38.4062 202.6531 38 207.9333 C37.4603 214.9495 37.7387 215.996 39 222.9333 C39.6269 226.3812 40.4626 227.8835 42 229.9333 C42.5402 230.6536 44.7328 230.3322 45 230.9333 C47.2011 235.8857 46.3059 240.5451 50 247.9333 C54.3572 256.6476 57.9703 256.5862 62 264.9333 C64.2922 269.6815 62.5725 272.9365 64 276.9333 C64.3448 277.8989 66.5914 277.8375 67 278.9333 C75.3963 301.4507 75.7527 308.4707 86 335.9333 C87.9569 341.1777 90.2371 340.8048 92 345.9333 C95.4665 356.0178 96.1392 357.1731 97 367.9333 C98.0729 381.3451 97.4414 382.6004 96 395.9333 C95.5218 400.3563 95.2285 401.113 93 404.9333 C88.5603 412.5443 81.99 419.9326 82 419.9333 C82.0242 419.9351 98.1835 414.2977 107 405.9333 C115.2496 398.1068 119.719 391.5342 121 382.9333 C122.1723 375.062 115.1594 369.6579 114 358.9333 C113.4064 353.4423 116.8916 352.221 117 345.9333 C117.3735 324.2713 113.0993 322.1131 115 300.9333 C116.4337 284.9577 123.9997 267.9341 124 267.9333 C124.0001 267.9331 122.4432 273.2564 123 277.9333 C124.8434 293.4178 127.462 294.2458 129 309.9333 C129.8921 319.0325 127.3442 319.7525 128 328.9333 C128.8067 340.2275 131.4248 344.7438 132 351.9333 C132.0454 352.5006 129.9999 353.9334 130 353.9333 C130.0005 353.933 140.206 348.048 147 341.9333 C149.0529 340.0857 150.1059 338.4402 150 335.9333 C148.8231 308.0808 143.9964 271.1346 144 270.9333 C144.0005 270.9058 146.9294 276.4055 151 279.9333 C161.3781 288.9277 161.923 290.5878 174 296.9333 C190.3975 305.549 191.7142 305.6 210 310.9333 C239.2345 319.4601 244.4913 322.2482 270 324.9333 C276.3772 325.6046 278.6097 322.7341 286 318.9333 C295.7468 313.9207 296.1342 313.5827 305 306.9333 C315.924 298.7404 315.3408 296.7501 326 288.9333 C329.7193 286.2059 332.2343 287.8054 335 284.9333 C343.5964 276.0063 351.7127 262.4416 352 261.9333 C352.0199 261.8981 347.9986 261.9277 348 261.9333 C348.0074 261.963 352.2512 263.8741 353 265.9333 C357.0599 277.0981 359.7386 282.3847 360 294.9333 C360.1693 303.0599 353.5259 306.1894 354 313.9333 C354.7774 326.6306 361.1887 330.3485 363 343.9333 C363.8476 350.2903 360.4947 351.5132 360 358.9333 C359.0237 373.5784 358.6059 375.3413 360 388.9333 C360.4373 393.1968 363.0357 393.4978 364 397.9333 C365.389 404.3229 364.0642 411.2575 365 411.9333 C366.371 412.9235 381.2433 411.7441 382 410.9333 C382.5025 410.395 379.3043 403.7798 379 396.9333 C378.3335 381.9378 379.0635 381.3849 380 365.9333 C381.0607 348.4316 379.9994 347.2701 383 330.9333 C384.2747 323.9935 387.0628 323.8517 389 316.9333 C390.3936 311.9563 390.616 311.1253 390 305.9333 C387.229 282.5775 381.9988 257.9351 382 257.9333 C382.0008 257.9322 390.7349 276.6739 397 295.9333 C404.1453 317.8985 408.4947 340.1153 409 340.9333 C409.0525 341.0183 417.8726 330.1335 418 329.9333 C418.0097 329.9181 416.0462 330.0655 416 329.9333 C411.5971 317.3535 405.3307 293.4107 397 269.9333 C396.6175 268.8554 394.1831 268.7755 394 267.9333 C392.5203 261.1267 394.0213 257.0397 392 246.9333 C389.6009 234.9379 386.8712 234.6952 385 222.9333 C383.5098 213.5664 383.9835 212.5896 385 202.9333 C385.9362 194.0394 387.9263 188.1543 389 184.9333 C389.037 184.8223 391 184.9333 391 184.9333 "/>
<path id="10" d="M182 298.9333 C182 298.9333 179.3725 303.0839 179 306.9333 C177.9665 317.6128 178.2621 320.3404 179 329.9333 C179.1012 331.2488 180.1722 332.6229 181 332.9333 C182.5893 333.5293 187.0012 332.9175 187 332.9333 C186.9642 333.3986 179.8021 344.8117 180 345.9333 C180.097 346.4829 189.4648 350.2009 190 349.9333 C190.4683 349.6992 191.9998 339.9337 192 339.9333 C192.0001 339.9331 191.081 344.7637 192 345.9333 C194.5491 349.1777 202.9558 353.9444 203 353.9333 C203.0025 353.9327 199.9196 343.9845 200 343.9333 C200.289 343.7494 213.9992 346.9331 214 346.9333 C214.0002 346.9334 211.0752 347.1138 211 346.9333 C210.2278 345.0801 208.8776 334.9992 209 334.9333 C209.3377 334.7515 223.7971 340.1024 224 339.9333 C224.1779 339.7851 222.1239 327.3418 221 324.9333 C220.8721 324.6592 218.2735 325.6125 217 324.9333 C212.1394 322.341 209.7184 321.3489 206 316.9333 C202.7238 313.0428 204.1004 310.584 201 305.9333 C198.4764 302.1479 194 298.9333 194 298.9333 "/>
<path id="11" d="M37 210.9333 C37 210.9333 32.9849 214.7651 31 218.9333 C28.2752 224.6555 27.6531 225.5115 27 231.9333 C24.7493 254.0649 26.7601 260.6842 25 277.9333 C24.8741 279.1676 22.3574 279.5039 22 280.9333 C19.9274 289.2239 19.6916 299.9572 19 301.9333 C18.9875 301.9692 15.0195 300.8832 15 300.9333 C14.2921 302.7535 12.2664 319.1785 12 319.9333 C11.9875 319.9688 9.048 317.8854 9 317.9333 C8.2806 318.6527 4.7194 327.214 4 327.9333 C3.952 327.9813 1 325.9333 1 325.9333 C1 325.9333 3.0437 328.0529 4 327.9333 C11.5204 326.9933 23.8941 324.3157 25 322.9333 C25.558 322.2358 20.0001 307.9334 20 307.9333 C20 307.9333 22.5261 316.2236 22 317.9333 C21.7283 318.8162 17.5441 319.0804 16 320.9333 C13.6195 323.79 12.4788 329.6673 12 329.9333 C11.8522 330.0154 6.9845 325.9798 7 325.9333 C7.0288 325.847 13.9683 324.2823 14 323.9333 C14.2352 321.346 9.0019 303.9489 9 303.9333 C8.9996 303.93 11.3925 306.1108 12 307.9333 C12.6075 309.7558 12 312.9333 12 312.9333 C11.9924 312.9333 9 309.6365 9 307.9333 C9 304.8676 11.9994 298.9307 12 298.9333 C12.0016 298.9402 11.752 318.2059 12 320.9333 C12.002 320.9559 14.0052 320.9558 14 320.9333 C13.8407 320.2431 8.9282 308.938 9 307.9333 C9.0081 307.8198 13.9127 307.71 15 306.9333 C15.6246 306.4872 15.9987 302.9304 16 302.9333 C16.0042 302.9432 18 313.9333 18 313.9333 C18 313.9333 16.5839 310.8488 17 309.9333 C18.1417 307.4217 22.7388 303.7168 23 302.9333 C23.029 302.8463 19.9987 300.9083 20 300.9333 C20.0129 301.1915 23.9995 322.9289 24 322.9333 C24.0001 322.9342 22.1856 318.9165 22 318.9333 C20.9275 319.0308 15.2137 323.7752 13 323.9333 C11.8847 324.013 8.4583 321.4228 8 319.9333 C7.2807 317.5957 7.985 313.7246 9 310.9333 C9.335 310.012 11.995 308.9234 12 308.9333 C12.0793 309.092 12 316.9333 12 316.9333 C12.0002 316.9333 14 308.9333 14 308.9333 "/>
<path id="12" d="M420 328.9333 C420 328.9333 429.9953 324.9168 430 324.9333 C430.0674 325.1693 427.3413 335.1369 424 342.9333 C423.3039 344.5576 422.3034 345.5423 421 345.9333 C418.6606 346.6352 415.8831 346.8749 414 345.9333 C411.8478 344.8573 409 339.9333 409 339.9333 "/>
<path id="13" d="M380 408.9333 C380 408.9333 393.8521 409.8594 396 410.9333 C396.379 411.1229 396.5865 416.4535 396 416.9333 C394.3927 418.2484 390.1627 419.7553 385 419.9333 C376.6627 420.2208 371.0795 419.5651 367 417.9333 C366.0452 417.5514 365 411.9333 365 411.9333 "/>
<path id="14" d="M151 339.9333 C151 339.9333 157.2696 341.1256 159 340.9333 C159.2681 340.9035 159.9725 338.9265 160 338.9333 C160.2063 338.9849 162.4347 340.6144 163 341.9333 C163.5276 343.1643 163.4625 345.3784 163 345.9333 C162.287 346.7889 159.4773 346.6671 158 347.9333 C156.8056 348.9571 156.8781 351.6197 156 351.9333 C152.8352 353.0636 147.3541 353.7719 144 352.9333 C142.5013 352.5587 141.6721 348.4559 140 347.9333 C136.3928 346.8061 128 347.9333 128 347.9333 "/>
<path id="15" d="M119 388.9333 C119 388.9333 129.014 389.8792 129 389.9333 C128.732 390.9671 120.4513 409.8406 112 415.9333 C105.0003 420.9796 93.9178 420.9333 86 420.9333 C84.4773 420.9333 81.3866 417.6085 81 415.9333 C80.5264 413.8812 83 407.9333 83 407.9333 "/>
<path id="16" d="M225 333.9333 L220 338.9333 "/>
<path id="17" d="M213 345.9333 L211 347.9333 "/>
<path id="18" d="M182 349.9333 C182 349.9333 186.3418 351.0001 189 352.9333 C191.2108 354.5412 191.89 355.7133 193 357.9333 C193.4757 358.8848 193.0076 360.9352 193 360.9333 C192.9495 360.9207 189 356.9333 189 356.9333 "/>
</g>
</g>
</svg>
