<?xml version="1.0" encoding="utf-8"?>
<!DOCTYPE svg PUBLIC "-//W3C//DTD SVG 1.1//EN" "http://www.w3.org/Graphics/SVG/1.1/DTD/svg11.dtd">
<svg viewBox="0 0 800 800" preserveAspectRatio="xMinYMin meet" xmlns="http://www.w3.org/2000/svg" version="1.1">
<g fill="none" stroke="black" stroke-linecap="round" stroke-linejoin="round" stroke-width="1.6417">
<g transform="translate(87.52,177.9747) scale(1.8274) translate(-103,-118.1333)">
<path id="0" d="M325 196.1333 C325 196.1333 317.372 191.2675 310 190.1333 C292.7275 187.476 291.1686 187.8305 273 188.1333 C261.6713 188.3221 260.3798 188.3857 250 191.1333 C244.5086 192.5869 244.2223 193.8694 239 197.1333 C236.3446 198.793 235.636 198.7962 234 201.1333 C229.1357 208.0824 227.0512 209.6124 225 217.1333 C223.1105 224.0615 224.0397 225.9708 225 234.1333 C225.9869 242.5219 225.1359 245.783 229 251.1333 C235.7784 260.5188 239.4773 264.0688 251 270.1333 C265.6876 277.8637 268.4998 277.1817 286 281.1333 C298.9218 284.0512 299.5421 283.5025 313 284.1333 C331.3467 284.9933 332.354 286.3391 350 284.1333 C367.2287 281.9797 369.5999 281.5258 385 275.1333 C394.3016 271.2723 395.4455 269.0309 403 262.1333 C406.112 259.292 406.5239 258.0697 408 254.1333 C409.2519 250.7949 409.6544 249.4055 409 246.1333 C407.9093 240.6797 407.5401 238.7509 404 234.1333 C396.89 224.8594 395.6995 222.4591 386 216.1333 C374.3152 208.5128 372.2144 209.1927 358 204.1333 C342.9345 198.771 327 195.1333 327 195.1333 "/>
<path id="1" d="M252 190.1333 C252 190.1333 225.8375 186.4835 208 176.1333 C188.7851 164.984 189.8651 157.1964 171 143.1333 C163.6611 137.6625 157.2389 137.4883 153 135.1333 C152.7902 135.0167 153.0161 133.1344 153 133.1333 C149.1411 132.8844 136.8682 132.3508 122 133.1333 C118.5922 133.3127 117.2861 133.3553 115 135.1333 C109.5668 139.3591 106.6903 141.5285 104 147.1333 C101.9013 151.5056 101.8596 157.2009 103 160.1333 C103.7335 162.0194 107.4785 164.8132 111 165.1333 C125.957 166.4931 132.6683 162.264 147 164.1333 C151.3603 164.7021 154.3421 166.9119 157 171.1333 C169.416 190.8529 168.5096 196.3759 181 218.1333 C183.2644 222.0778 184.1236 223.1478 188 225.1333 C203.077 232.8557 222 239.1333 222 239.1333 "/>
<path id="2" d="M154 129.1333 C154 129.1333 151.9137 126.8236 152 126.1333 C152.1686 124.7842 153.2477 123.136 155 121.1333 C156.4938 119.4262 157.6896 118.2644 159 118.1333 C160.7676 117.9566 164.6438 119.1982 165 120.1333 C166.6426 124.4452 167 139.1333 167 139.1333 "/>
<path id="3" d="M273 282.1333 L272 334.1333 "/>
<path id="4" d="M412 249.1333 C412 249.1333 412.5407 256.9852 415 263.1333 C417.2328 268.7152 419.5798 268.3853 422 274.1333 C427.3427 286.8223 429.258 293.9164 431 301.1333 C431.0906 301.5087 428.9571 302.6612 429 303.1333 C429.2189 305.5411 429.9791 307.9651 432 312.1333 C437.8578 324.215 445 336.1333 445 336.1333 "/>
<path id="5" d="M358 288.1333 C358 288.1333 355 292.0672 355 295.1333 C355 307.398 357.7903 309.2908 358 323.1333 C358.284 341.8742 356 361.1333 356 361.1333 "/>
<path id="6" d="M137 147.1333 C137 147.1333 140.7856 149.1333 142 149.1333 C142.4858 149.1333 144.0086 147.1376 144 147.1333 C143.9485 147.1076 138 147.1333 138 147.1333 "/>
</g>
</g>
</svg>
