<?xml version="1.0" encoding="utf-8"?>
<!DOCTYPE svg PUBLIC "-//W3C//DTD SVG 1.1//EN" "http://www.w3.org/Graphics/SVG/1.1/DTD/svg11.dtd">
<svg viewBox="0 0 800 800" preserveAspectRatio="xMinYMin meet" xmlns="http://www.w3.org/2000/svg" version="1.1">
<g fill="none" stroke="black" stroke-linecap="round" stroke-linejoin="round" stroke-width="1.6801">
<g transform="translate(87.52,141.088) scale(1.7856) translate(-114,-71)">
<path id="0" d="M192 152 C192 152 198.9851 144.2006 204 144 C239.7557 142.5698 249.823 148 292 148 C299.6685 148 300.554 146.9438 308 144 C321.6116 138.6187 322.1341 133.8349 335 131 C348.7859 127.9624 367 131 367 131 "/>
<path id="1" d="M194 147 C194 147 185.4768 155.0321 179 164 C172.73 172.6815 172.077 173.3172 168 183 C164.3589 191.6476 164.3349 192.6554 163 202 C161.9166 209.584 164.3872 210.6677 163 218 C161.0645 228.2305 160.218 229.0575 156 239 C153.3657 245.2094 153.2803 246.0349 149 251 C141.2825 259.9524 131 268 131 268 "/>
<path id="2" d="M129 271 C129 271 123.4566 271.3492 122 273 C118.0704 277.4536 113.9991 287.9935 114 288 C114.0005 288.0032 118.9854 281.4599 123 280 C127.3824 278.4064 134.2305 281.0617 136 280 C137.0072 279.3957 135.8865 273.2896 138 271 C145.2697 263.1244 152.6777 261.3223 160 254 C161.3143 252.6857 159.7543 250.265 161 248 C164.7087 241.2569 168.7988 240.9181 171 234 C175.0065 221.4083 175 204 175 204 "/>
<path id="3" d="M175 202 C175 202 173.2273 217.6487 176 230 C178.2836 240.1722 180.3345 241.0854 186 251 C190.1809 258.3166 194.4036 258.6142 196 265 C198.5156 275.0624 196 291 196 291 "/>
<path id="4" d="M196 290 C196 290 192.9717 290.1903 192 291 C190.9278 291.8935 189.6483 294.278 190 295 C195.258 305.7927 199.6398 313.628 211 330 C216.2755 337.603 224 344 224 344 "/>
<path id="5" d="M239 204 C239 204 241.2269 215.5065 239 225 C232.1649 254.1389 222.8001 267.4354 220 285 C219.6568 287.1527 224.9839 289.1743 228 294 C232.174 300.6784 232.5119 301.3443 235 309 C238.8816 320.9433 237.2128 322.0071 241 334 C243.0974 340.6419 245.1464 340.8215 247 347 C247.8767 349.9223 247 354 247 354 "/>
<path id="6" d="M254 231 C254 231 255.1059 238.8053 253 244 C248.3381 255.4995 243.9594 256.2213 239 268 C236.5377 273.8479 236.8273 275.2649 237 282 C237.3105 294.1084 237.3637 296.7843 240 307 C240.7457 309.8896 243.562 309.7644 245 313 C251.102 326.7294 252.2419 329.8468 256 343 C256.5346 344.8709 255 348 255 348 "/>
<path id="7" d="M223 346 C223 346 222.6162 359.9254 223 361 C223.0201 361.0563 228 360 228 360 "/>
<path id="8" d="M250 257 C250 257 256.255 263.2826 262 267 C263.7564 268.1365 264.5768 268.0411 267 268 C293.2755 267.5547 295.2021 268.3453 321 266 C326.8868 265.4648 327.8639 264.9572 333 262 C343.6423 255.8726 354 247 354 247 "/>
<path id="9" d="M347 211 C347 211 343.2552 231.0207 347 246 C351.895 265.5801 361.7508 267.2413 366 287 C370.9211 309.8829 366.6113 332.2626 367 339 C367.0009 339.0149 369 339 369 339 "/>
<path id="10" d="M409 214 C409 214 396.098 227.3298 394 239 C389.1384 266.0427 396.095 272.7382 393 303 C391.8017 314.7163 387.5421 315.1366 385 327 C383.1993 335.4032 384 345 384 345 "/>
<path id="11" d="M442 178 C442 178 442.4302 185.6281 440 191 C433.5875 205.175 429.5434 205.6045 423 220 C420.0846 226.4138 423.2404 230.6795 420 235 C413.848 243.2027 399 252 399 252 "/>
<path id="12" d="M411 248 C411 248 407.1466 277.0815 411 302 C414.234 322.9129 426 345 426 345 "/>
<path id="13" d="M395 309 C395 309 397.6842 309.342 398 310 C401.6656 317.6367 401.2923 323.0809 407 334 C412.4321 344.3918 421 354 421 354 "/>
<path id="14" d="M355 143 C355 143 370.4921 132.8193 376 126 C377.4596 124.1929 376 117 376 117 "/>
<path id="15" d="M360 140 C360 140 361.1005 145.4003 362 146 C363.0495 146.6996 366.2229 146.9257 369 146 C374.1575 144.2808 375.6853 143.5057 380 140 C382.9048 137.6399 384.5179 136.0129 385 133 C386.1026 126.109 384 115 384 115 "/>
<path id="16" d="M377 111 C377 111 372.0631 111.3754 370 110 C366.2327 107.4885 364.2347 105.4695 362 101 C359.9372 96.8743 359.5462 93.6306 360 90 C360.2322 88.1425 363.8578 84.9327 364 85 C365.885 85.8929 374.2199 93.5826 379 99 C379.5265 99.5967 378.7118 101.7941 379 102 C380.1336 102.8097 386 104 386 104 "/>
<path id="17" d="M392 103 C392 103 397.2218 98.079 402 97 C410.9321 94.9831 420.4589 97.7677 423 96 C424.4564 94.9869 422.5624 86.5401 425 81 C427.1429 76.1298 433.2994 71.2919 434 71 C434.0488 70.9797 436.5919 73.6873 437 76 C437.8857 81.0191 438.292 83.0473 437 88 C435.6471 93.186 431 99 431 99 "/>
<path id="18" d="M431 103 C431 103 435.5269 108.3352 437 113 C438.1146 116.5296 435.9604 118.1882 437 122 C438.6906 128.199 440.4619 133.6252 443 135 C446.5031 136.8975 454.5742 134.082 461 135 C462.224 135.1749 463.8416 136.7853 464 138 C464.9344 145.1637 465.6385 150.6267 464 158 C463.3173 161.0722 460.3206 164.5649 458 165 C449.8084 166.5359 434.9961 163.8848 432 164 C431.9911 164.0003 432 166 432 166 "/>
<path id="19" d="M428 139 C428 139 427.0698 147.1089 428 153 C428.3637 155.3033 429.3155 156.5261 431 158 C432.5417 159.349 436 160 436 160 "/>
<path id="20" d="M445 142 C445 142 444.1814 147.6977 444 148 C443.9945 148.0092 442 147 442 147 "/>
<path id="21" d="M458 140 C458 140 458 142 458 142 C457.9256 142 455.0521 139.9826 455 140 C454.9777 140.0074 455 143 455 143 "/>
<path id="22" d="M410 118 C410 118 407.9998 122.9998 408 123 C408.0001 123.0001 411 119 411 119 "/>
<path id="23" d="M427 114 C427 114 431.0025 111.0075 431 111 C430.9975 110.9925 427.0309 110.3557 426 111 C424.7372 111.7893 423 116 423 116 C423 116 423.9797 112.6377 425 112 C426.502 111.0612 431 111 431 111 "/>
<path id="24" d="M412 120 C412 120 407.796 120.9386 407 122 C406.0655 123.2459 405.9916 128.0014 406 128 C406.0345 127.9943 413 121 413 121 "/>
<path id="25" d="M379 139 C379 139 381.5419 150.7148 385 154 C388.0397 156.8877 392.6474 155.1523 399 158 C406.6564 161.4322 407.7814 162.0251 414 167 C416.9693 169.3754 418.972 173.9776 419 174 C419.0063 174.0051 419 171 419 171 "/>
<path id="26" d="M372 143 C372 143 376.6734 155.776 382 159 C390.7233 164.2799 398.0203 161.0853 410 166 C415.7013 168.339 420.5141 172.8621 421 175 C421.4916 177.1632 415.7998 182.2013 415 188 C414.0905 194.594 416.8319 203.8655 417 204 C417.0182 204.0145 421.0734 197.8698 425 196 C429.6391 193.7909 437.6345 194.6904 438 194 C438.5301 192.9987 437.0943 182.7819 434 179 C430.8749 175.1805 420 172 420 172 "/>
<path id="27" d="M419 201 C419 201 420.7873 204.9895 422 206 C422.5076 206.423 424.3446 206.4682 425 206 C426.6542 204.8184 426.979 201.851 429 201 C434.3836 198.7332 440.0444 199.4833 444 198 C444.5213 197.8045 445.2156 195.3018 445 195 C444.2184 193.9058 439 191 439 191 "/>
<path id="28" d="M431 203 C431 203 431.5539 209.5539 432 210 C432.223 210.223 436.6684 209.5305 437 209 C437.5626 208.0998 437.5694 202.7593 437 202 C436.5526 201.4034 431 201 431 201 "/>
<path id="29" d="M436 164 C436 164 431.796 164.9386 431 166 C430.0655 167.2459 429.706 171.3141 430 172 C430.1432 172.3342 433.1349 172.0563 434 173 C437.2286 176.5221 439.4476 180.6364 441 184 C441.1678 184.3636 440 186 440 186 "/>
<path id="30" d="M378 103 C378 103 382.9466 104.7711 384 106 C384.5174 106.6037 384 110 384 110 "/>
<path id="31" d="M255 261 C255 261 257.2158 270.7634 257 274 C256.9631 274.5534 254.4962 275.0075 254 276 C253.0784 277.8432 253 282 253 282 "/>
<path id="32" d="M239 268 C239 268 237.5005 275.6677 239 279 C240.779 282.9533 245.4148 283.5347 248 288 C250.0299 291.5061 249.334 296.335 250 298 C250.0493 298.1233 251.9991 298.0137 252 298 C252.109 296.2554 251 282 251 282 "/>
<path id="33" d="M257 274 C257 274 256.1035 278.3106 257 281 C258.238 284.7139 260.9664 285.2791 262 289 C263.1009 292.9631 261.9191 298.636 262 299 C262.0045 299.0202 263.8825 298.4406 264 298 C265.1137 293.8236 263.757 288.7104 266 284 C267.6216 280.5947 273.2039 279.5209 274 277 C274.95 273.9916 272 265 272 265 "/>
</g>
</g>
</svg>
