<?xml version="1.0" encoding="utf-8"?>
<!DOCTYPE svg PUBLIC "-//W3C//DTD SVG 1.1//EN" "http://www.w3.org/Graphics/SVG/1.1/DTD/svg11.dtd">
<svg viewBox="0 0 800 800" preserveAspectRatio="xMinYMin meet" xmlns="http://www.w3.org/2000/svg" version="1.1">
<g fill="none" stroke="black" stroke-linecap="round" stroke-linejoin="round" stroke-width="1.4401">
<g transform="translate(87.52,205.2208) scale(2.0832) translate(-70,-87)">
<path id="0" d="M111 122 C111 122 111.5141 116.3621 113 115 C115.4128 112.7883 118.1792 111.7417 123 111 C130.2661 109.8821 132.2243 109.8216 139 111 C142.259 111.5668 144.4611 113.4611 146 115 C146.4197 115.4197 145.5521 117.4775 146 118 C147.3649 119.5924 151.7945 120.5618 152 122 C153.6074 133.2516 153.1752 147.9546 152 160 C151.8952 161.0746 148 163 148 163 "/>
<path id="1" d="M110 117 C110 117 107.3091 126.5367 108 135 C109.2197 149.9416 114 166 114 166 "/>
<path id="2" d="M103 178 C103 178 102.7256 173.3668 104 171 C105.5606 168.1018 107.4286 166.5428 110 165 C111.0714 164.3572 112.8866 164.3814 114 165 C116.165 166.2028 116.8394 169.3998 119 170 C123.3964 171.2212 127.8082 171.7466 132 170 C136.8904 167.9623 138.2536 162.792 143 160 C144.6869 159.0077 147.5037 159.0792 149 160 C151.9735 161.8298 153.9423 164.1419 156 168 C157.3211 170.4771 157 175 157 175 "/>
<path id="3" d="M102 178 C102 178 103.0919 183.6261 104 184 C107.1307 185.2891 113.5189 185.8222 119 185 C121.0669 184.69 121.7485 181.6433 124 181 C127.2987 180.0575 130.408 180.136 133 181 C134.248 181.416 134.8227 184.7521 136 185 C140.9027 186.0321 147.565 186.3305 152 185 C153.6077 184.5177 155.2084 181.7706 156 179 C156.8866 175.8969 156 171 156 171 "/>
<path id="4" d="M112 180 L113 180 "/>
<path id="5" d="M139 180 L143 180 "/>
<path id="6" d="M107 125 L71 88 "/>
<path id="7" d="M71 88 L87 104 "/>
<path id="8" d="M70 87 C70 87 76.0255 94.0875 83 98 C95.6357 105.0883 99.8575 103.7324 111 110 C113.3648 111.3302 115 116 115 116 "/>
<path id="9" d="M145 117 L184 102 "/>
<path id="10" d="M184 102 L153 133 "/>
<path id="11" d="M115 138 C115 138 120.8534 136.8045 121 137 C121.377 137.5027 121.2042 145.825 121 146 C120.8828 146.1005 114.747 143.8715 114 143 C113.7391 142.6957 115 139 115 139 "/>
<path id="12" d="M137 143 C137 143 139.9554 138.5334 142 137 C142.6456 136.5158 144.9418 136.8642 145 137 C145.3168 137.7392 145.5626 143.0998 145 144 C144.6684 144.5305 141.0386 145.3895 140 145 C138.9895 144.6211 137 141 137 141 "/>
<path id="13" d="M153 141 L154 141 "/>
<path id="14" d="M151 143 C151 143 208.3374 137.7375 258 141 C272.277 141.9379 274.0245 145.4998 288 152 C294.8397 155.1812 295.5792 155.7599 301 161 C310.0764 169.7738 312.629 171.0253 318 181 C321.8971 188.2375 321.1829 190.6035 322 200 C323.1402 213.1128 322 227 322 227 "/>
<path id="15" d="M321 227 C321 227 316.5766 230.2523 314 234 C311.4371 237.7279 312.2233 239.943 310 243 C309.0835 244.2601 306.0997 244.5016 306 245 C305.7294 246.3528 308 253 308 253 "/>
<path id="16" d="M306 249 C306 249 310.2896 254.113 312 259 C313.4631 263.1802 313.4934 265.7929 313 269 C312.8265 270.1275 311.4323 271.6021 310 272 C304.1879 273.6145 295.0382 274.0127 295 274 C294.9885 273.9962 299.4666 271.0446 301 269 C301.4842 268.3544 301.4788 267.1172 301 266 C298.8339 260.9459 298.7924 259.3095 295 255 C288.4588 247.5668 282.0257 247.0514 279 241 C276.5244 236.0489 281.4511 227.4696 279 223 C275.9603 217.457 262 210 262 210 "/>
<path id="17" d="M119 185 C119 185 122.1243 190.4118 125 193 C126.0675 193.9608 127.0366 193.8773 129 194 C134.7995 194.3625 138.747 195.2673 141 194 C142.7015 193.0429 145 185 145 185 "/>
<path id="18" d="M130 195 C130 195 131.647 201.8825 130 206 C125.5681 217.0798 121.9873 217.7403 116 230 C111.6472 238.9128 109.408 244.1046 109 249 C108.9045 250.1457 113.0459 251.4558 114 254 C116.8448 261.5863 116.3539 271.4453 118 273 C118.9085 273.858 131.8568 271.2045 132 271 C132.0376 270.9463 126.3906 266.5759 125 263 C123.703 259.665 123.2894 255.1994 125 253 C133.1731 242.4918 153 227 153 227 "/>
<path id="19" d="M138 240 C138 240 138.404 268.4287 140 271 C140.3926 271.6325 152.0895 270.1502 156 269 C156.4437 268.8695 157.2924 266.5361 157 266 C155.592 263.4187 150.8486 261.5154 150 258 C148.161 250.3812 147.8065 243.5806 150 237 C151.2883 233.1352 160 228 160 228 "/>
<path id="20" d="M160 228 C160 228 178.1217 232.4892 196 234 C213.1403 235.4485 220.4943 234.8518 231 234 C231.6733 233.9454 233 231 233 231 "/>
<path id="21" d="M232 234 C232 234 237.4834 234.2251 238 235 C239.2742 236.9113 239.117 244.3812 240 246 C240.1593 246.2921 243.8106 246.3156 244 246 C244.8837 244.5272 245.1163 237.4728 246 236 C246.1894 235.6844 249.7701 235.6387 250 236 C251.1661 237.8324 251.9406 245.0577 253 247 C253.1372 247.2515 255.9779 247.0882 256 247 C256.3529 245.5882 255.5278 238.069 256 235 C256.0515 234.6656 257.9962 233.9733 258 234 C258.0802 234.5615 257.5332 247.2495 258 249 C258.0332 249.1245 261.0351 249.5514 262 249 C263.2751 248.2714 264.9017 246.4748 265 245 C265.2544 241.1843 262.7219 234.7647 263 234 C263.0591 233.8376 267.445 234.8482 269 234 C271.144 232.8305 274 228 274 228 "/>
<path id="22" d="M270 237 C270 237 269.9261 243.3161 272 246 C276.8361 252.2585 283.2256 253.1025 287 259 C289.111 262.2984 288.2871 266.981 288 271 C287.9484 271.722 285.9826 272.9971 286 273 C286.1461 273.0243 298.285 273.245 300 273 C300.035 272.995 300 271 300 271 "/>
<path id="23" d="M308 168 C308 168 307.9257 169.9814 308 170 C310.4526 170.6131 318.9697 169.7135 324 172 C326.8667 173.3031 328.5476 176.369 330 180 C330.9776 182.444 329.2036 183.9736 330 187 C331.515 192.7569 331.4994 194.3325 335 199 C341.2234 207.2978 342.9924 208.9142 351 215 C354.2076 217.4378 360 218 360 218 "/>
<path id="24" d="M358 222 L369 215 "/>
<path id="25" d="M357 219 L364 227 "/>
<path id="26" d="M362 221 L370 227 "/>
</g>
</g>
</svg>
