<?xml version="1.0" encoding="utf-8"?>
<!DOCTYPE svg PUBLIC "-//W3C//DTD SVG 1.1//EN" "http://www.w3.org/Graphics/SVG/1.1/DTD/svg11.dtd">
<svg viewBox="0 0 800 800" preserveAspectRatio="xMinYMin meet" xmlns="http://www.w3.org/2000/svg" version="1.1">
<g fill="none" stroke="black" stroke-linecap="round" stroke-linejoin="round" stroke-width="2.0113">
<g transform="translate(87.52,227.7258) scale(1.4916) translate(-55,-213)">
<path id="0" d="M108 306 C108 306 107.0503 314.3687 104 320 C101.1934 325.1813 99.7856 326.0589 95 330 C91.864 332.5826 90.9879 333.0429 87 334 C79.22 335.8672 75.3252 337.5975 70 336 C64.7073 334.4122 59.5031 330.1731 57 325 C53.9645 318.7267 53.1926 310.6029 55 305 C56.3887 300.6951 60.4786 297.8174 67 294 C79.9478 286.4208 83.6786 288.5824 96 281 C101.5843 277.5635 103.3403 274.7874 106 270 C107.1246 267.9758 107.1742 265.2581 106 263 C101.8466 255.0126 100.0994 252.0994 93 245 C88.6488 240.6488 85.8675 242.1374 81 238 C76.5257 234.1969 75.1519 232.7819 73 228 C71.3466 224.3257 71.6471 218.196 72 218 C73.4717 217.1824 83.1581 216.5478 91 218 C94.684 218.6822 95.8186 220.0307 99 223 C102.8679 226.61 104.0447 227.3784 106 232 C109.0555 239.2222 106.9729 241.5699 110 249 C112.0883 254.1258 114.0281 257.4359 117 259 C119.9081 260.5306 124.7392 260.5978 129 259 C134.4592 256.9528 138.6048 253.7925 141 250 C142.4448 247.7125 142.0833 244.3331 141 240 C139.3209 233.2837 136.8274 232.7004 135 226 C134.0651 222.5719 133.9551 219.6979 135 218 C136.296 215.8939 139.35 213.5368 143 213 C153.8641 211.4023 160.6305 210.6087 169 213 C172.8168 214.0905 174.9207 217.8678 178 223 C180.3595 226.9325 178.7726 230.2158 181 233 C183.1914 235.7393 185.4464 236.5989 190 238 C197.7444 240.3829 198.6027 240.8321 207 241 C272.4658 242.3093 274.7133 239.3042 340 241 C350.3594 241.2691 351.6904 241.7998 361 245 C366.5779 246.9174 367.5919 247.6944 372 252 C388.3566 267.9763 387.2007 271.1699 404 287 C412.5811 295.086 413.5701 295.0693 424 301 C438.7452 309.3845 441.4196 307.2482 455 316 C462.6881 320.9546 462.9628 322.6918 469 330 C472.1008 333.7535 474.0186 338.9876 474 339 C473.6959 339.2028 461.534 340.8499 457 338 C448.9755 332.9561 448.6652 323.6583 439 317 C428.9114 310.0501 422.3903 312.3627 412 307 C409.7073 305.8167 410.4522 302.664 408 301 C398.0286 294.2337 395.2773 295.2291 384 288 C376.0853 282.9265 375.5321 279.7326 369 276 C367.2069 274.9754 363.1164 275.7284 363 276 C362.3664 277.4784 361.5654 284.5005 363 290 C364.0827 294.1502 366.9774 294.3479 369 299 C371.7423 305.3073 372.3472 306.1457 373 313 C374.271 326.3455 376.2568 332.9538 373 341 C370.5713 347.0004 362.7207 347.9433 356 355 C353.8057 357.304 354.1847 358.4458 353 362 C351.7165 365.8504 351.1184 366.0927 351 370 C350.148 398.1148 351.4469 399.4002 351 428 C350.9537 430.9663 351.1762 431.6477 350 434 C347.5572 438.8856 343.819 443.5532 343 444 C342.8804 444.0652 339.5356 441.7407 339 440 C338.0785 437.0051 339.7952 434.7112 339 431 C338.5014 428.6732 336.1681 428.2409 336 426 C334.8742 410.9895 337.5756 408.1062 336 391 C334.1253 370.6462 330.8309 356.8244 329 350 C328.9542 349.8292 325.6037 349.4826 325 350 C323.7711 351.0534 322.411 353.0645 322 356 C319.1475 376.3751 321.9795 378.9654 318 400 C315.1644 414.9884 313.6692 416.0159 308 430 C306.4972 433.7069 304.682 435.9908 303 437 C302.1956 437.4827 299.5289 437.0193 298 436 C296.0215 434.681 294.2131 433.0603 294 431 C293.0592 421.9056 292.8038 418.2005 295 407 C297.6109 393.6847 302.1785 393.1554 304 380 C306.4505 362.3018 305.2806 342.3821 304 342 C290.0295 337.8314 192.657 335.1883 180 343 C174.7042 346.2685 179.7671 388.6031 176 421 C175.5824 424.5911 170.0066 429.0054 170 429 C169.7714 428.813 165.0956 420.0315 165 412 C164.6248 380.4793 169 373.2661 169 345 C169 342.0468 166.6713 339.1699 165 338 C163.8733 337.2113 160.3292 337.1138 159 338 C156.4892 339.6738 153.8005 342.3979 153 346 C151.3705 353.3329 153.9241 355.7594 153 365 C151.9592 375.4078 151.9673 376.2078 149 386 C147.154 392.0917 145.1078 391.8271 143 398 C138.2391 411.9425 138.8676 416.1005 135 427 C134.6277 428.0491 132.003 429.0444 132 429 C131.9227 427.8402 129.1257 404.2104 132 382 C134.411 363.3699 138.5842 362.466 143 344 C143.8695 340.3641 143.5018 336.3011 143 336 C141.3691 335.0214 133.3656 333.5554 128 335 C123.2088 336.2899 122.5301 340.0894 117 343 C113.7087 344.7322 109.0414 345.0932 109 345 C108.4677 343.8022 107.2279 333.6073 109 325 C110.3682 318.3547 113.3336 317.4756 116 311 C116.4738 309.8493 116.1875 308.1875 116 308 C115.8125 307.8125 113 308 113 308 "/>
<path id="1" d="M99 291 C99 291 106.2561 294.0827 107 294 C107.1402 293.9844 108.0215 290.0072 108 290 C107.1609 289.7203 95 290 95 290 "/>
<path id="2" d="M180 272 C180 272 199.8645 269.929 217 271 C222.2189 271.3262 223.4943 272.3496 228 275 C231.2155 276.8915 233.1325 278.1805 234 281 C236.2794 288.408 237.8865 294.3974 236 301 C234.2106 307.2628 230.1868 311.298 224 316 C219.7591 319.2231 217.3483 319.3137 211 320 C199.6574 321.2262 194.4107 322.8041 187 320 C181.3501 317.8622 179.2005 312.9341 174 306 C172.3577 303.8103 172.2072 302.901 172 300 C171.2579 289.6103 170.6538 285.0001 172 278 C172.3036 276.4213 177 274 177 274 "/>
<path id="3" d="M292 276 C292 276 286.5442 276.0616 284 278 C277.6776 282.817 273.6883 285.7961 271 292 C268.8092 297.0558 269.1786 303.1428 271 308 C272.2949 311.4531 276.7825 315.7806 280 316 C291.6827 316.7965 300.927 315.691 315 311 C321.3968 308.8677 322.6612 305.6725 328 300 C330.0274 297.8459 330.648 296.8159 331 294 C331.9938 286.0493 331.6492 282.4921 331 276 C330.9207 275.2065 329.7299 274.0152 329 274 C312.5615 273.6575 283 275 283 275 "/>
<path id="4" d="M278 342 C278 342 275.0173 348.1507 274 354 C273.1186 359.0681 272.854 362.1349 274 365 C274.6668 366.667 277.2406 368.3507 280 369 C284.373 370.0289 289.2679 369.9326 291 369 C291.9084 368.5108 292.9995 361.9995 293 362 C293.0008 362.0008 292.623 370.4973 293 371 C293.1466 371.1955 297.4265 371.3113 299 370 C304.4497 365.4586 308.3186 362.2567 311 356 C312.961 351.4242 311 342 311 342 "/>
</g>
</g>
</svg>
