<?xml version="1.0" encoding="utf-8"?>
<!DOCTYPE svg PUBLIC "-//W3C//DTD SVG 1.1//EN" "http://www.w3.org/Graphics/SVG/1.1/DTD/svg11.dtd">
<svg viewBox="0 0 800 800" preserveAspectRatio="xMinYMin meet" xmlns="http://www.w3.org/2000/svg" version="1.1">
<g fill="none" stroke="black" stroke-linecap="round" stroke-linejoin="round" stroke-width="1.6849">
<g transform="translate(87.52,214.8267) scale(1.7805) translate(-119,-138.4167)">
<path id="0" d="M135 158.4167 C135 158.4167 143.6233 155.0737 152 154.4167 C168.4499 153.1265 171.7768 153.6479 186 154.4167 C187.3002 154.487 188.5047 155.3435 189 156.4167 C190.8123 160.3433 191.8834 162.1718 192 167.4167 C192.3576 183.5093 192.428 187.1957 190 201.4167 C189.4447 204.6689 186.2026 204.809 185 208.4167 C181.1148 220.0723 183.3507 222.4524 179 234.4167 C175.6598 243.6022 169.8511 251.9911 169 252.4167 C168.8432 252.4951 161.0066 243.4399 161 243.4167 C160.9978 243.409 167 245.4167 167 245.4167 C167 245.4167 148.1396 242.6359 147 240.4167 C144.6502 235.8407 150.0354 221.5016 148 208.4167 C147.0895 202.5636 141.7194 201.8975 140 195.4167 C135.756 179.4202 135 159.4167 135 159.4167 "/>
<path id="1" d="M135 205.4167 C135 205.4167 138.6554 210.9082 142 213.4167 C143.4793 214.5262 144.5384 214.3607 147 214.4167 C166.1133 214.8511 167.6488 216.5225 186 214.4167 C196.7299 213.1854 202.0374 207.8583 208 207.4167 C209.2259 207.3259 212.3194 210.2388 213 212.4167 C214.1408 216.0672 214.4995 220.0844 213 223.4167 C211.221 227.3699 207.9101 231.2436 204 232.4167 C196.9818 234.5221 190.1998 234.2166 183 232.4167 C180.0001 231.6667 178.5767 225.6149 176 225.4167 C160.6976 224.2396 144.4105 228.6961 131 228.4167 C130.0799 228.3975 128.2791 226.1844 128 224.4167 C127.0641 218.4894 126.5192 215.3397 128 209.4167 C129.0365 205.2705 133.9707 200.4362 134 200.4167 C134.0081 200.4112 134 205.4167 134 205.4167 "/>
<path id="2" d="M133 216.4167 L136 218.4167 "/>
<path id="3" d="M198 223.4167 L204 219.4167 "/>
<path id="4" d="M152 175.4167 C152 175.4167 155.7478 173.2906 156 173.4167 C156.3784 173.6059 158.142 177.2808 158 178.4167 C157.8991 179.2238 155.196 181.4727 155 181.4167 C154.5036 181.2748 151 176.4167 151 176.4167 "/>
<path id="5" d="M174 173.4167 C174 173.4167 179.7825 172.7514 182 173.4167 C182.8038 173.6578 184.0302 176.3865 184 176.4167 C183.7281 176.6885 178.3199 178.9823 177 178.4167 C174.7592 177.4563 170 170.4167 170 170.4167 "/>
<path id="6" d="M133 162.4167 C133 162.4167 135.2851 156.6814 135 156.4167 C133.2039 154.7488 119.023 149.4188 119 149.4167 C118.9923 149.416 121.4256 153.8324 124 155.4167 C126.7339 157.0991 130.1411 155.8958 132 157.4167 C133.6835 158.7941 135 164.4167 135 164.4167 "/>
<path id="7" d="M131 166.4167 C131 166.4167 132.1164 163.5072 132 163.4167 C130.8554 162.5264 123.7162 161.5619 122 159.4167 C120.198 157.1642 120 148.4167 120 148.4167 "/>
<path id="8" d="M188 153.4167 C188 153.4167 205.9977 148.4114 206 148.4167 C206.006 148.4303 192 162.4167 192 162.4167 "/>
<path id="9" d="M191 178.4167 C191 178.4167 204.3147 173.3216 216 166.4167 C225.9308 160.5485 225.0217 158.1185 235 152.4167 C249.0435 144.3918 251.0217 139.8145 265 138.4167 C304.9761 134.4191 311.6659 137.5817 355 140.4167 C363.3307 140.9617 365.3637 141.1505 372 145.4167 C391.346 157.8534 393.2842 161.2317 411 176.4167 C412.9684 178.1039 413.4345 178.9125 414 181.4167 C416.6795 193.2831 417.3622 194.5013 418 207.4167 C419.339 234.5317 423.3618 243.1631 418 262.4167 C415.0631 272.9629 403.0524 276.4791 396 286.4167 C394.7538 288.1727 395.0947 291.2439 396 293.4167 C396.9161 295.6153 400.6033 296.433 401 298.4167 C401.9786 303.3096 402.5218 308.2248 400 313.4167 C395.4776 322.7276 384.1237 333.3703 384 333.4167 C383.9724 333.427 382.3012 323.5694 384 319.4167 C385.4175 315.9516 390.3927 314.6033 393 311.4167 C393.5091 310.7944 393.5513 309.2224 393 308.4167 C388.4251 301.7303 385.1583 300.3261 380 292.4167 C378.25 289.7334 378 285.4167 378 285.4167 "/>
<path id="10" d="M173 248.4167 C173 248.4167 174.9529 249.0868 175 249.4167 C175.4765 252.752 175.7721 256.2402 175 262.4167 C174.3244 267.8211 173.857 268.1109 172 273.4167 C170.3973 277.9959 170.7665 278.9222 168 282.4167 C161.8891 290.1357 158.3779 290.1407 153 297.4167 C151.046 300.0603 151.2454 301.4899 151 305.4167 C150.2751 317.0157 148.5774 319.9686 151 329.4167 C152.7729 336.3311 161 344.4167 161 344.4167 "/>
<path id="11" d="M160 346.4167 C160 346.4167 173.4615 347.2244 174 346.4167 C175.2115 344.5994 176.0173 333.7382 174 325.4167 C172.6609 319.893 168.5482 318.8316 166 313.4167 C165.1918 311.6992 165.2534 310.3364 166 308.4167 C168.3476 302.3801 168.3832 300.3412 173 295.4167 C189.6676 277.6379 192.373 276.8262 211 260.4167 C212.5592 259.0431 213.2845 258.4167 215 258.4167 C224.8644 258.4167 229.9198 257.3272 238 260.4167 C243.1701 262.3935 244.6595 265.5442 249 271.4167 C252.7289 276.4616 255 283.4167 255 283.4167 "/>
<path id="12" d="M255 280.4167 C255 280.4167 255.7027 301.9409 256 302.4167 C256.0049 302.4246 262.5584 299.9435 265 296.4167 C270.2364 288.8529 273.9777 276.4233 274 276.4167 C274.0061 276.4148 274.7669 293.2418 275 293.4167 C275.0848 293.4802 282.9531 289.5518 286 285.4167 C288.4993 282.0248 288.9995 274.4154 289 274.4167 C289.001 274.419 287.9267 290.1507 289 292.4167 C289.3138 293.0792 295.3417 294.1762 298 293.4167 C299.961 292.8564 302.1748 290.7548 303 288.4167 C304.5069 284.147 304 276.4167 304 276.4167 C304 276.4167 303.0648 291.0118 304 293.4167 C304.2048 293.9432 309.0593 295.1929 311 294.4167 C314.1757 293.1464 316.5779 291.292 319 287.4167 C323.3143 280.5138 326 270.4167 326 270.4167 "/>
<path id="13" d="M325 272.4167 C325 272.4167 336.7008 278.7264 348 281.4167 C356.6456 283.4752 367 282.4167 367 282.4167 "/>
<path id="14" d="M367 283.4167 C367 283.4167 354.0773 299.6558 350 313.4167 C347.2416 322.7263 349.4137 334.3661 351 337.4167 C351.4684 338.3174 362.8185 338.5755 363 338.4167 C363.0489 338.3738 359.7996 334.215 359 330.4167 C358.0052 325.6914 357.5553 323.3897 359 319.4167 C360.8268 314.393 364.2069 314.189 367 308.4167 C371.3926 299.3387 369.5356 297.0478 374 288.4167 C376.4831 283.616 379.9181 283.959 382 279.4167 C384.6914 273.5446 383.7675 271.8115 385 264.4167 C385.2385 262.9854 385.2998 261.6166 385 261.4167 C383.3508 260.3172 379.6234 260.4872 376 258.4167 C373.3429 256.8983 372.8428 256.1809 371 253.4167 C367.0932 247.5565 366.5364 247.0114 364 240.4167 C361.7122 234.4685 361.6209 233.8327 361 227.4167 C360.1591 218.7271 361 209.4167 361 209.4167 "/>
<path id="15" d="M196 275.4167 C196 275.4167 203.2221 288.7736 205 301.4167 C207.4779 319.0373 204.9774 339.0104 205 339.4167 C205.0011 339.4369 207.0145 337.427 207 337.4167 C206.7182 337.2154 198.1863 335.3714 198 334.4167 C196.5192 326.8276 200.9871 314.017 199 296.4167 C197.6939 284.848 191 272.4167 191 272.4167 "/>
<path id="16" d="M420 202.4167 C420 202.4167 433.5177 198.537 438 200.4167 C443.0384 202.5296 445.6849 207.9755 451 215.4167 C452.6258 217.6928 452.942 218.5728 453 221.4167 C453.4129 241.6504 451.2574 243.624 452 264.4167 C452.2265 270.7599 452.6183 272.3887 455 277.4167 C456.4603 280.4995 461 283.4167 461 283.4167 "/>
<path id="17" d="M454 272.4167 L470 272.4167 "/>
<path id="18" d="M455 273.4167 C455 273.4167 455.9506 283.0793 455 289.4167 C454.7356 291.1793 452 293.4167 452 293.4167 "/>
</g>
</g>
</svg>
