<?xml version="1.0" encoding="utf-8"?>
<!DOCTYPE svg PUBLIC "-//W3C//DTD SVG 1.1//EN" "http://www.w3.org/Graphics/SVG/1.1/DTD/svg11.dtd">
<svg viewBox="0 0 800 800" preserveAspectRatio="xMinYMin meet" xmlns="http://www.w3.org/2000/svg" version="1.1">
<g fill="none" stroke="black" stroke-linecap="round" stroke-linejoin="round" stroke-width="0.43683">
<g transform="translate(87.52,197.4031) scale(6.8677) translate(-150.5,-209.6667)">
<path id="0" d="M167.5 238.6667 C167.5 238.6667 169.1108 235.201 170.5 234.6667 C173.6788 233.4441 177.308 232.7278 180.5 233.6667 C183.3825 234.5145 187.0499 237.8664 187.5 239.6667 C188.0372 241.8154 186.6355 246.677 184.5 249.6667 C182.9172 251.8825 180.0713 253.5154 177.5 253.6667 C174.0089 253.872 168.9665 252.2665 167.5 250.6667 C166.3047 249.3627 166.2124 245.1177 166.5 241.6667 C166.6021 240.4411 168.5 238.6667 168.5 238.6667 "/>
<path id="1" d="M189.5 237.6667 C189.5 237.6667 195.1739 232.6812 200.5 231.6667 C214.2644 229.0449 221.8236 227.9299 231.5 229.6667 C234.5365 230.2117 239.5 238.6667 239.5 238.6667 "/>
<path id="2" d="M187.5 245.6667 C187.5 245.6667 189.0539 248.1408 190.5 248.6667 C193.4564 249.7417 194.5588 249.6667 198.5 249.6667 C208.8457 249.6667 209.5215 250.2848 219.5 248.6667 C227.4267 247.3813 228.4911 246.8525 235.5 243.6667 C238.6732 242.2243 241.5 238.6667 241.5 238.6667 "/>
<path id="3" d="M189.5 237.6667 C189.5 237.6667 195.0474 237.0569 198.5 234.6667 C207.0355 228.7575 206.8013 226.0234 215.5 219.6667 C219.2092 216.9561 220.041 216.7814 224.5 215.6667 C229.5164 214.4126 234.0156 213.8184 235.5 214.6667 C236.659 215.329 238.6859 221.0644 238.5 223.6667 C238.3882 225.2323 236.822 227.2735 234.5 228.6667 C225.5439 234.0403 224.127 235.2751 213.5 238.6667 C201.3775 242.5356 187.5 243.6667 187.5 243.6667 "/>
<path id="4" d="M184.5 234.6667 C184.5 234.6667 188.837 222.7455 194.5 215.6667 C197.4364 211.9962 204.4662 209.6261 204.5 209.6667 C204.7608 209.9797 206.4209 222.8645 204.5 227.6667 C203.3261 230.6013 194.5 234.6667 194.5 234.6667 "/>
<path id="5" d="M171.5 242.6667 C171.5 242.6667 174.4127 246.6448 174.5 246.6667 C174.5055 246.668 175.5 243.6667 175.5 243.6667 "/>
<path id="6" d="M165.5 240.6667 C165.5 240.6667 160.9267 239.7698 158.5 237.6667 C154.2871 234.0155 150.5 227.6667 150.5 227.6667 "/>
<path id="7" d="M166.5 242.6667 C166.5 242.6667 164.7351 226.8739 165.5 222.6667 C165.6123 222.0491 170.3212 220.5951 170.5 220.6667 C170.5681 220.6939 170.7439 224.4715 170.5 224.6667 C170.1189 224.9715 165.562 224.7286 165.5 224.6667 C165.4876 224.6543 167.5 221.6667 167.5 221.6667 "/>
<path id="8" d="M151.5 229.6667 C151.5 229.6667 150.9486 226.6316 151.5 225.6667 C152.2286 224.3916 154.0142 223.0381 155.5 222.6667 C156.673 222.3734 159.2954 223.3939 159.5 223.6667 C159.6151 223.8201 158.5 226.6667 158.5 226.6667 "/>
<path id="9" d="M202.5 251.6667 L209.5 261.6667 "/>
<path id="10" d="M211.5 252.6667 C211.5 252.6667 220.4465 258.381 222.5 261.6667 C223.3247 262.9861 221.938 267.6446 221.5 268.6667 C221.4495 268.7846 219.5 268.6667 219.5 268.6667 "/>
<path id="11" d="M223.5 247.6667 C223.5 247.6667 227.4256 247.5352 229.5 248.6667 C231.9489 250.0024 233.9743 251.6951 234.5 253.6667 C235.308 256.6966 233.5 263.6667 233.5 263.6667 "/>
<path id="12" d="M207.5 260.6667 L208.5 267.6667 "/>
<path id="13" d="M194.5 252.6667 C194.5 252.6667 196.5 254.0416 196.5 254.6667 C196.5 258.4171 194.5 266.6667 194.5 266.6667 "/>
</g>
</g>
</svg>
