<?xml version="1.0" encoding="utf-8"?>
<!DOCTYPE svg PUBLIC "-//W3C//DTD SVG 1.1//EN" "http://www.w3.org/Graphics/SVG/1.1/DTD/svg11.dtd">
<svg viewBox="0 0 800 800" preserveAspectRatio="xMinYMin meet" xmlns="http://www.w3.org/2000/svg" version="1.1">
<g fill="none" stroke="black" stroke-linecap="round" stroke-linejoin="round" stroke-width="2.789">
<g transform="translate(87.52,191.8593) scale(1.0757) translate(-50,-14)">
<path id="0" d="M91 130 C91 130 74.854 135.2766 65 143 C58.5901 148.024 57.9419 150.8535 54 159 C50.8692 165.4704 50.7369 166.6315 50 174 C48.8038 185.9619 47.8311 187.9146 50 199 C51.9746 209.0925 53.3751 210.4377 59 220 C68.0602 235.4023 68.5993 236.4424 80 250 C86.5675 257.81 87.6684 258.0488 96 264 C101.2187 267.7276 101.9001 267.5046 108 270 C112.738 271.9383 113.2114 272.6808 118 273 C127.3581 273.6239 129.127 274.4357 138 272 C153.1287 267.847 158.082 267.2492 169 259 C176.9879 252.9647 178.2947 248.8427 183 238 C189.2399 223.6212 188.9368 221.6565 192 206 C193.2703 199.5075 193.1244 198.5858 192 192 C189.7355 178.7366 190.0146 176.9793 185 165 C181.5478 156.7532 180.3265 155.5525 174 149 C167.0097 141.76 165.6276 140.5834 157 136 C150.8197 132.7167 149.2823 132.3121 142 132 C115.6206 130.8695 87 133 87 133 "/>
<path id="1" d="M257 172 C257 172 259.5327 155.6524 265 141 C271.8119 122.744 272.7079 122.4227 282 105 C288.5979 92.6289 288.627 91.9896 297 81 C304.3152 71.3989 304.8766 71.0626 314 63 C326.1087 52.2993 326.2104 50.5216 340 43 C363.5374 30.1614 365.3666 30.3212 391 21 C403.244 16.5476 404.2822 16.1776 417 15 C430.3652 13.7625 432.4135 14.2519 445 16 C448.8269 16.5315 450.3823 17.3823 453 20 C457.3629 24.3629 457.8832 25.7663 461 32 C464.7012 39.4025 465.4995 40.2474 467 48 C468.3115 54.7762 467.9765 55.9205 467 63 C466.0527 69.8679 466.0153 70.792 463 77 C457.834 87.6359 457.7908 89.193 450 98 C435.5709 114.3111 434.0748 114.3263 417 129 C402.22 141.7015 402.0382 141.9466 386 153 C365.216 167.3241 365.1161 167.9566 343 180 C314.926 195.2878 305.372 201.2093 285 208 C282.1762 208.9413 278.4243 206.3182 274 203 C267.1761 197.8821 266.5209 196.9012 261 190 C256.8475 184.8094 256.3507 183.8768 254 178 C252.6658 174.6645 253 170 253 170 "/>
<path id="2" d="M214 170 C214 170 214.3607 160.4736 217 152 C223.6886 130.5262 223.9527 129.8087 233 109 C238.811 95.6346 238.7641 94.6675 247 83 C256.3025 69.8215 256.6606 67.4781 269 58 C289.5165 42.2409 291.8782 40.8302 316 30 C339.5599 19.4221 342.2584 19.998 367 14 C373.7626 12.3606 378.9074 12.0671 382 14 C385.7885 16.3678 391 29 391 29 "/>
<path id="3" d="M196 197 C196 197 202.6712 191.1596 210 187 C220.8925 180.8178 221.4161 180.9144 233 176 C237.7198 173.9977 238.1066 173.5872 243 173 C250.085 172.1498 258 173 258 173 "/>
<path id="4" d="M358 174 C358 174 411.9138 171.7373 462 173 C469.2743 173.1834 470.2968 173.8381 477 177 C496.0161 185.9698 498.0767 185.4915 515 198 C543.0589 218.7392 544.3074 220.3074 569 245 C580.9796 256.9796 580.8269 258.7307 590 273 C593.9471 279.14 594.6978 280.2719 596 287 C597.4601 294.544 597.0648 296.0137 596 304 C595.1523 310.3577 594.6762 311.1125 592 317 C589.8821 321.6595 589.63 322.5096 586 326 C577.2347 334.4281 576.7041 335.8834 566 342 C542.5979 355.3726 541.4768 355.5878 516 366 C484.3077 378.9525 483.7734 380.3754 451 389 C418.1781 397.6373 416.742 397.8367 383 401 C353.7122 403.7457 352.5769 402.5902 323 401 C306.6002 400.1183 306.2515 399.3394 290 396 C269.9146 391.8729 269.2868 392.4988 250 386 C223.7284 377.1476 222.9307 377.0798 198 365 C174.9047 353.8095 174.2555 352.3368 153 339 C149.6149 336.876 149.5832 336.2291 147 333 C143.6992 328.874 143.0278 328.7314 141 324 C135.7679 311.7917 134.0704 310.6523 132 298 C129.8145 284.6444 130.6098 281.8593 132 269 C132.4042 265.2609 136 261 136 261 "/>
<path id="5" d="M585 269 C585 269 601.8525 268.2028 617 269 C619.89 269.1521 621.2964 269.4384 623 271 C626.0991 273.8408 627.0912 275.4665 629 280 C630.7955 284.2644 631.6943 287.0493 631 290 C630.3871 292.6047 628.4242 294.6716 625 297 C616.7897 302.583 614.7667 303.3472 606 307 C604.1079 307.7884 601 307 601 307 "/>
<path id="6" d="M76 186 C76 186 76.4567 190.5749 78 193 C79.3398 195.1053 80.5571 196.0604 83 197 C86.1326 198.2049 88.1281 198.6154 91 198 C93.5294 197.458 94.9608 196.2658 97 194 C98.8874 191.9029 99.5271 190.8371 100 188 C100.873 182.7622 100.9818 181.4 100 176 C99.1223 171.1727 97.0252 166.8202 96 166 C95.6241 165.6993 91.7527 166.3568 90 168 C85.0617 172.6296 80 181 80 181 "/>
<path id="7" d="M136 174 C136 174 135.6545 185.3574 138 195 C139.9325 202.9445 141.1979 204.4327 145 211 C146.0079 212.7409 148.4348 214.1884 149 214 C151.5748 213.1417 157.5989 210.2019 160 206 C163.8418 199.2769 163.7368 195.8527 165 186 C166.1627 176.9306 166.0085 175.0683 165 167 C164.7147 164.7175 163.2659 162.7033 162 162 C160.6855 161.2697 158.58 161.2475 156 162 C147.3821 164.5136 145.8043 164.9282 138 169 C135.2575 170.4309 133 174 133 174 "/>
<path id="8" d="M154 185 C154 185 155.0002 195.9991 155 196 C154.9999 196.0005 154.3114 191.7485 153 190 C152.1257 188.8343 149 188 149 188 "/>
<path id="9" d="M79 187 C79 187 82.5265 193.2011 85 195 C86.0465 195.7611 88.0216 195.5935 90 195 C92.3345 194.2997 94.4305 193.2529 95 192 C95.8641 190.0991 95 184 95 184 "/>
<path id="10" d="M149 150 C149 150 145.3969 128.8892 140 110 C138.6779 105.3728 138.2634 104.1426 135 101 C125.8376 92.177 115.178 84.2178 113 84 C112.3935 83.9393 105 98 105 98 "/>
<path id="11" d="M98 146 C98 146 91.6396 131.9034 83 120 C69.4683 101.3563 63.6365 95.6034 53 84 C52.5394 83.4975 50.0049 83.9573 50 84 C49.6299 87.2073 50 110 50 110 "/>
</g>
</g>
</svg>
