<?xml version="1.0" encoding="utf-8"?>
<!DOCTYPE svg PUBLIC "-//W3C//DTD SVG 1.1//EN" "http://www.w3.org/Graphics/SVG/1.1/DTD/svg11.dtd">
<svg viewBox="0 0 800 800" preserveAspectRatio="xMinYMin meet" xmlns="http://www.w3.org/2000/svg" version="1.1">
<g fill="none" stroke="black" stroke-linecap="round" stroke-linejoin="round" stroke-width="1.1569">
<g transform="translate(87.52,223.6627) scale(2.5932) translate(-195,-120)">
<path id="0" d="M242 192 C242 192 232.1712 190.3714 224 191 C220.2476 191.2886 219.7377 192.1311 216 194 C210.8852 196.5574 209.694 196.306 206 200 C199.9972 206.0028 197.6821 208.1727 195 215 C193.1954 219.5936 193.9281 222.3723 195 228 C195.7225 231.793 196.3199 233.4539 199 236 C205.1112 241.8056 207.0616 242.872 215 247 C218.6695 248.9082 219.5612 248.7041 224 249 C234.2061 249.6804 235.0938 250.3034 245 249 C253.3296 247.904 253.5926 245.0966 262 244 C275.8743 242.1903 277.451 241.1524 291 243 C309.0085 245.4557 309.9692 250.6817 328 253 C343.481 254.9904 345.2449 253.2119 361 252 C363.9312 251.7745 365.0099 251.6584 367 250 C372.9271 245.0607 374.1029 243.7334 379 237 C381.6842 233.3093 382.0357 232.4356 383 228 C384.389 221.6105 385.1464 219.2734 384 214 C383.1429 210.0574 381.547 208.716 378 205 C371.4204 198.1071 370.72 195.1452 363 192 C346.7712 185.3883 343.3884 186.2314 324 183 C313.867 181.3112 312.8833 180.9019 303 182 C291.3292 183.2968 290.8198 186.7558 279 188 C263.1644 189.6669 246.7154 186.5692 246 188 C243.572 192.8559 250 246 250 246 "/>
<path id="1" d="M270 189 L274 243 "/>
<path id="2" d="M300 183 L305 243 "/>
<path id="3" d="M329 189 C329 189 332.2585 189.795 333 191 C335.2374 194.6357 336.3292 196.55 337 202 C340.1805 227.8418 340.9915 255.9309 341 256 C341.0007 256.006 343 251 343 251 "/>
<path id="4" d="M361 198 C361 198 363.6226 199.5444 364 201 C366.501 210.6469 367.2295 213.1863 368 225 C368.6966 235.681 367.1367 246.0434 367 247 C366.9956 247.0309 365 246 365 246 "/>
<path id="5" d="M290 187 C290 187 282.0861 181.6231 276 175 C265.3825 163.4456 261.2785 161.5624 256 150 C252.6816 142.7311 253.1012 135.3292 255 129 C256.1007 125.3309 261.6363 121.0091 265 120 C267.4102 119.2769 271.5514 120.4919 275 123 C281.0737 127.4172 283.0759 128.8652 287 136 C298.7223 157.3132 307.9141 182.9248 308 183 C308.0273 183.0239 307.8748 168.6484 311 157 C312.9991 149.5488 314.3862 148.7849 319 142 C322.6386 136.6491 323.0915 136.2073 328 132 C333.2677 127.4849 334.75 125.5312 340 124 C344.2885 122.7492 348.8352 123.8697 352 125 C352.8781 125.3136 353.9015 127.2271 354 129 C354.3341 135.0136 354.5826 136.9333 353 143 C351.8565 147.3836 350.9486 147.9456 348 152 C343.0998 158.7378 343.11 159.3854 337 165 C324.9384 176.0837 311 186 311 186 "/>
<path id="6" d="M388 221 L436 216 "/>
<path id="7" d="M212 211 L214 213 "/>
</g>
</g>
</svg>
