<?xml version="1.0" encoding="utf-8"?>
<!DOCTYPE svg PUBLIC "-//W3C//DTD SVG 1.1//EN" "http://www.w3.org/Graphics/SVG/1.1/DTD/svg11.dtd">
<svg viewBox="0 0 800 800" preserveAspectRatio="xMinYMin meet" xmlns="http://www.w3.org/2000/svg" version="1.1">
<g fill="none" stroke="black" stroke-linecap="round" stroke-linejoin="round" stroke-width="1.0177">
<g transform="translate(87.52,171.5358) scale(2.9479) translate(-195,-78)">
<path id="0" d="M271 183 C271 183 268.2955 185.2268 268 187 C267.0805 192.5168 267.1477 194.4658 268 201 C268.5717 205.3832 268.684 206.7932 271 210 C274.3645 214.6586 277.6695 214.2422 281 219 C283.8725 223.1036 285 230 285 230 "/>
<path id="1" d="M304 181 C304 181 306.0972 195.3279 303 204 C299.8176 212.9108 293.5118 214.6209 289 223 C287.8099 225.2101 289.5648 227.1761 289 230 C288.7257 231.3716 287.4422 232.7789 287 233 C286.8105 233.0948 285 232 285 232 "/>
<path id="2" d="M272 182 C272 182 268.9717 181.8097 268 181 C266.9278 180.1065 266.1547 178.8563 266 177 C265.2575 168.0897 265.3431 164.2258 266 157 C266.0717 156.2117 268 155 268 155 "/>
<path id="3" d="M301 181 C301 181 309.2212 181.5192 310 181 C310.3462 180.7692 311.0412 176.9436 310 175 C304.7879 165.2707 295 153 295 153 "/>
<path id="4" d="M300 150 C300 150 306.8389 157.5167 309 164 C310.6526 168.9578 310.1611 173.0521 309 177 C308.5114 178.6613 304 181 304 181 "/>
<path id="5" d="M270 154 C270 154 277.7662 151.935 278 151 C278.9584 147.1664 276 130 276 130 "/>
<path id="6" d="M300 151 C300 151 296.2123 151.7714 295 151 C292.4652 149.387 289.6101 147.0503 289 144 C287.2888 135.4442 289.9512 122.9024 289 121 C288.8139 120.6278 279.3839 120.9621 278 122 C277.1755 122.6183 277 130 277 130 "/>
<path id="7" d="M290 124 C290 124 290.1383 119.2063 292 116 C298.5619 104.6989 302.2613 103.0427 308 93 C308.8927 91.4378 308 88 308 88 "/>
<path id="8" d="M283 126 C283 126 282.8418 117.8416 280 112 C274.4306 100.5518 270.1361 99.9143 265 89 C263.04 84.8351 264 78 264 78 "/>
<path id="9" d="M292 138 C292 138 297.6086 139.3323 301 138 C309.788 134.5476 311.6484 133.1031 320 127 C323.9679 124.1004 323.0156 121.7479 327 119 C336.6372 112.3537 349 107 349 107 "/>
<path id="10" d="M279 138 C279 138 275.7789 138.6058 275 138 C272.9661 136.4181 272.9609 133.6492 270 131 C263.9675 125.6025 260.9223 126.7427 256 121 C250.0549 114.064 251.3138 108.8452 246 103 C243.4323 100.1755 236 99 236 99 "/>
<path id="11" d="M236 99 C236 99 236.8609 109.6331 238 111 C238.5557 111.6668 244.8223 109.8916 246 111 C249.5417 114.3334 249.8337 120.1116 255 127 C258.3496 131.4661 259.7475 133.1775 264 135 C268.2525 136.8225 273.2511 134.8219 276 136 C276.9163 136.3927 278 141 278 141 "/>
<path id="12" d="M292 137 C292 137 298.1535 132.0336 304 130 C308.5962 128.4013 312.1118 130.1108 315 129 C315.8977 128.6547 315.7422 125.7861 317 125 C321.9613 121.8992 325.6777 122.8017 331 119 C334.9086 116.2082 334.626 111.687 338 110 C342.6943 107.6528 353 108 353 108 "/>
<path id="13" d="M291 143 C291 143 313.3877 144.5721 333 142 C342.272 140.784 352 135 352 135 "/>
<path id="14" d="M278 141 C278 141 239.3437 144 224 144 C223.4317 144 222.9019 141.3006 222 141 C218.8934 139.9645 212 140 212 140 "/>
<path id="15" d="M351 139 C351 139 375.107 141.4854 386 137 C393.2441 134.0171 401.8422 118.0093 402 118 C402.0005 118 401.4488 127.934 403 136 C403.7477 139.8881 405.9166 140.208 407 144 C407.711 146.4885 407.225 149.325 407 150 C406.975 150.075 405 150 405 150 "/>
<path id="16" d="M222 144 C222 144 216.1797 140.4256 212 136 C208.0199 131.7858 205.0012 125.9992 205 126 C204.4855 126.3632 195 148 195 148 "/>
<path id="17" d="M195 149 C195 149 197.9181 148.9903 199 150 C204.0731 154.7349 204.2724 158.7665 210 163 C214.1568 166.0724 222 167 222 167 "/>
<path id="18" d="M407 148 C407 148 403.2419 152.6863 399 155 C392.9961 158.2748 385 160 385 160 "/>
<path id="19" d="M390 159 L375 155 "/>
<path id="20" d="M399 151 C399 151 375.3679 151.5632 361 153 C360.1725 153.0827 359 154.6423 359 155 C359 155.5365 361.0625 157.6875 361 158 C360.9375 158.3125 358 160 358 160 "/>
<path id="21" d="M216 156 C216 156 222.9044 154.6348 227 156 C231.5921 157.5307 231.983 160.7423 237 163 C241.1586 164.8714 247 165 247 165 "/>
<path id="22" d="M248 172 L280 142 "/>
<path id="23" d="M369 157 C369 157 367.837 158.8954 367 159 C358.77 160.0288 352.3096 158.1049 345 160 C342.8473 160.5581 340.381 166.1058 340 166 C338.1647 165.4902 333.7773 158.2103 327 155 C316.4619 150.0083 311.3791 151.4737 302 148 C300.9425 147.6083 300 145 300 145 "/>
<path id="24" d="M265 175 C265 175 253.2051 184.9675 243 196 C234.8865 204.7713 228.2171 214.625 228 215 C227.9818 215.0314 232 215 232 215 "/>
<path id="25" d="M309 172 C309 172 311.7605 172.4413 312 173 C313.4966 176.4922 312.6653 180.2931 315 186 C316.8797 190.5947 317.4453 191.2837 321 195 C328.0675 202.3888 328.7245 203.5781 337 209 C342.3507 212.5057 344.8768 211.1182 350 214 C351.701 214.9568 353 218 353 218 "/>
<path id="26" d="M264 200 C264 200 257.4794 206.2975 251 210 C247.8345 211.8089 244.7283 210.6174 243 212 C241.7758 212.9794 242.4767 216.3593 241 218 C239.0501 220.1666 234 222 234 222 "/>
<path id="27" d="M308 197 C308 197 317.8908 211.7675 328 223 C330.3665 225.6294 335 227 335 227 "/>
<path id="28" d="M266 178 C266 178 268.6475 181.3809 271 182 C276.5438 183.4589 278.0493 183 285 183 C295.426 183 298.2065 183.2989 306 182 C307.2887 181.7852 309 179 309 179 "/>
<path id="29" d="M266 201 C266 201 273.3873 206.948 280 208 C293.126 210.0882 303.5636 208.6229 310 208 C310.2768 207.9732 311 205 311 205 "/>
<path id="30" d="M284 166 C284 166 287.8049 165.7561 288 166 C288.3049 166.3811 288.5988 169.4032 288 171 C287.506 172.3174 286.3174 173.506 285 174 C283.4032 174.5988 281.3966 174.838 280 174 C275.6984 171.419 273.9411 169.7856 270 165 C267.4174 161.864 266.4298 159.3638 266 157 C265.8702 156.2859 267.5825 154 268 154 C270.0873 154 276.5335 155.4001 278 157 C279.1953 158.304 279.4726 165.0549 279 166 C278.7776 166.4448 275.1838 167.3971 273 167 C270.9186 166.6216 269.3392 165.7856 268 164 C265.6192 160.8256 263.8986 155.3042 264 155 C264.0309 154.9074 268.4472 154.0883 271 155 C274.204 156.1443 276.8508 157.5739 278 160 C280.0657 164.3609 280.3665 171.0682 280 174 C279.9334 174.5331 276.3577 176.2146 276 176 C274.6204 175.1723 272.3368 172.0895 270 168 C268.5395 165.4441 268 163.9536 268 162 C268 161.0232 270 159 270 159 "/>
<path id="31" d="M282 162 L279 162 "/>
<path id="32" d="M278 160 C278 160 280.3446 159.5318 281 160 C282.6542 161.1816 283.8133 162.4288 285 165 C286.5467 168.3512 287.2238 172.7016 287 173 C286.7934 173.2754 280.6979 174.0449 279 173 C276.8939 171.704 275.3232 168.7048 274 165 C273.1887 162.7284 273.5304 159.4109 274 159 C274.7939 158.3054 280.0365 157.6073 282 158 C282.6545 158.1309 283.8979 159.7744 284 161 C284.2876 164.451 283.6253 168.8745 283 170 C282.8546 170.2617 279.6778 170.6161 279 170 C276.2736 167.5214 274.3778 164.416 272 160 C271.4819 159.0379 271.6435 157.2593 272 157 C274.3919 155.2605 282.5664 153.5717 283 152 C284.2504 147.4672 279.4683 135.7104 280 128 C280.1195 126.268 284.0516 123.2108 285 123 C285.5173 122.885 288.676 124.7851 289 126 C289.956 129.5851 289.6528 136.8808 289 138 C288.7778 138.3808 282.4375 138.4375 282 138 C281.5625 137.5625 281.3199 132.5303 282 131 C282.3671 130.1741 285.9956 128.9919 286 129 C286.4708 129.8743 289.2237 142.8815 289 144 C288.9814 144.0932 283.4117 144.5764 283 144 C281.3806 141.7328 278.8167 133.2989 279 130 C279.0569 128.9758 283.1653 126.1043 284 126 C284.3984 125.9502 286.7281 127.7313 287 129 C287.821 132.8311 287.9685 135.1575 287 140 C286.1372 144.3142 283.5901 144.8695 283 149 C282.269 154.1169 282.8924 159.8001 284 161 C284.956 162.0357 294.8666 162.1144 295 162 C295.0263 161.9774 292.6838 156.0715 291 155 C289.6059 154.1129 284.809 154.7689 284 155 C283.934 155.0189 283.6877 156.2713 284 157 C284.9815 159.2903 285.5106 161.0071 287 162 C288.5678 163.0452 292.7646 163.269 293 163 C293.5469 162.375 294.2876 157.451 294 154 C293.8979 152.7744 293.0873 151.604 292 151 C289.5948 149.6638 284.9999 148.9999 285 149 C285.0001 149.0001 292.4716 150.5062 294 153 C299.3211 161.6817 304.4747 179.0845 304 180 C303.7292 180.5223 289.6426 182.4107 280 180 C272.5671 178.1418 267.9518 173.7048 264 170 C263.27 169.3156 264 165 264 165 C264 165 263.9687 171.8435 265 177 C265.2874 178.437 266.2447 179.8489 267 180 C270.7767 180.7553 278.8685 181.056 280 180 C281.3114 178.7761 281.9235 166.0765 282 166 C282.0096 165.9904 286.1257 170.1586 287 173 C287.5828 174.8942 286.2203 178.8238 286 179 C285.9088 179.0729 282.8464 178.2091 282 177 C280.2191 174.4559 279.7751 172.8756 279 169 C278.3691 165.8455 278.1972 163.6056 279 162 C279.6308 160.7385 282.1537 159.1539 284 159 C286.4032 158.7997 288.8396 159.3797 291 161 C293.6052 162.9539 294.6739 164.8174 296 168 C296.7299 169.7519 296.4331 172.1338 296 173 C295.7834 173.4331 293.377 174.2827 293 174 C289.1881 171.1411 284.2008 166.1702 280 161 C279.4652 160.3417 279.9772 158.0021 280 158 C280.9043 157.9178 290.0314 158.8552 291 160 C291.9423 161.1136 291.6369 169.0894 291 171 C290.8649 171.4053 288.064 172.3547 287 172 C285.1622 171.3874 283.2314 170.1891 282 168 C279.4243 163.421 277.8487 156.6051 278 156 C278.0241 155.9037 283.1169 155.0584 285 156 C287.1522 157.0761 289.2149 159.6447 290 162 C290.5803 163.7409 289.4145 167.6545 289 168 C288.7121 168.2399 285.0338 168.1027 284 167 C279.5696 162.2742 276.6582 157.9072 274 152 C273.3797 150.6217 274.7338 147.0998 275 147 C275.5787 146.783 281.0753 147.7671 282 149 C283.4667 150.9556 284.3486 158.0412 284 159 C283.8804 159.329 279.089 160.594 278 160 C276.2395 159.0397 274.2294 156.1964 273 153 C272.1734 150.8507 272.9083 147.0458 273 147 C273.1375 146.9312 278.5795 148.8086 279 150 C280.1503 153.2593 279.8728 159.0541 279 164 C278.78 165.2469 277.0224 166.7079 276 167 C275.0154 167.2813 272.8516 166.8516 272 166 C270.4671 164.4671 269.1884 162.261 269 160 C268.8241 157.8897 270.1338 154.8662 271 154 C271.4331 153.5669 274.0332 153.5166 275 154 C275.846 154.423 276.6638 155.5432 277 157 C277.9936 161.3057 278.4561 166.5439 278 167 C277.4425 167.5575 269.2527 167.8664 267 167 C266.1966 166.691 265 163.9435 265 162 C265 159.6679 266.9197 155.9927 267 156 C267.5318 156.0483 274.2188 160.0313 276 163 C277.1492 164.9153 276.9491 169.7346 276 171 C274.7247 172.7004 267.7706 175 267 175 C266.9144 175 265.998 171.001 266 171 C266.003 170.9985 267.4562 173.4211 269 174 C274.2864 175.9824 275.6677 176.6753 282 177 C294.4918 177.6406 300.9259 176.786 308 176 C308.3311 175.9632 309.065 174.0557 309 174 C306.854 172.1606 299.7785 169.7785 294 164 C288.2215 158.2215 286.1148 156.1135 284 149 C281.3764 140.175 282.8938 128.115 283 127 C283.0035 126.9636 285.6047 127.3412 286 128 C287.5247 130.5412 288.6719 132.7341 289 137 C289.6016 144.8209 287.4606 145.9087 288 154 C288.4205 160.3074 288.4522 164.1691 291 167 C294.3267 170.6963 305.3482 173.9131 306 174 C306.0273 174.0036 306.3702 169.1851 306 169 C303.0382 167.5191 288.7856 164.9538 288 165 C287.9688 165.0018 288.0994 169.3809 289 170 C292.8813 172.6684 304.0016 175.999 304 176 C303.9972 176.0019 286.0451 174.725 283 174 C282.8987 173.9759 283.2882 171.2059 283 171 C281.8664 170.1903 277.6162 168.3939 276 169 C272.8968 170.1637 267.38 177.0317 267 177 C266.829 176.9857 263.8719 169.4096 264 168 C264.0347 167.6182 267.9138 165.9042 268 166 C268.8893 166.9881 270.8856 177.1671 273 178 C279.1719 180.4313 300.9512 179.1789 301 179 C301.2119 178.2232 287.8987 161.2213 282 145 C278.9196 136.5289 281 124 281 124 "/>
<path id="33" d="M277 217 L290 217 "/>
<path id="34" d="M283 221 L292 224 "/>
<path id="35" d="M271 193 C271 193 276.8049 192.9244 278 194 C279.543 195.3887 279.88 201.44 281 202 C282.68 202.84 286.5954 201.7206 292 201 C294.0065 200.7325 295.3242 200.6758 296 200 C296.6758 199.3242 296.0208 197.1968 297 196 C299.7529 192.6354 305 189 305 189 "/>
</g>
</g>
</svg>
