<?xml version="1.0" encoding="utf-8"?>
<!DOCTYPE svg PUBLIC "-//W3C//DTD SVG 1.1//EN" "http://www.w3.org/Graphics/SVG/1.1/DTD/svg11.dtd">
<svg viewBox="0 0 800 800" preserveAspectRatio="xMinYMin meet" xmlns="http://www.w3.org/2000/svg" version="1.1">
<g fill="none" stroke="black" stroke-linecap="round" stroke-linejoin="round" stroke-width="1.2289">
<g transform="translate(87.52,246.2012) scale(2.4413) translate(-134,-135.4167)">
<path id="0" d="M187 163.4167 C187 163.4167 176.7487 163.7435 168 166.4167 C159.4587 169.0265 157.4304 169.192 151 174.4167 C142.8936 181.0031 139.2943 183.8904 136 192.4167 C132.2936 202.0098 133.6581 206.4516 134 218.4167 C134.1197 222.6071 134.703 223.807 137 227.4167 C141.2112 234.0343 141.9473 235.8771 148 240.4167 C154.709 245.4485 157.1002 246.8367 165 248.4167 C172.56 249.9287 175.2314 249.4215 183 247.4167 C189.3 245.7909 190.6716 244.7583 196 240.4167 C203.4703 234.3298 204.7389 233.4226 210 225.4167 C215.6338 216.8436 216.4701 214.9742 219 205.4167 C220.5824 199.4385 220.1296 197.0645 219 191.4167 C218.4514 188.6735 217.502 187.4496 215 185.4167 C202.5252 175.2809 200.711 174.035 187 165.4167 C184.2095 163.6627 180 163.4167 180 163.4167 "/>
<path id="1" d="M220 189.4167 C220 189.4167 261.6715 188.0375 303 188.4167 C315.9569 188.5355 316.5816 188.2965 329 190.4167 C336.4741 191.6927 337.0517 192.1741 344 195.4167 C351.6966 199.0084 352.587 198.9795 359 204.4167 C374.9926 217.9756 390.2197 233.6393 390 234.4167 C389.7059 235.4574 367.5409 245.3306 346 250.4167 C333.2696 253.4225 331.7192 249.7018 318 251.4167 C292.086 254.6559 291.8109 258.1613 266 260.4167 C241.0626 262.5957 239.111 261.9475 215 260.4167 C209.2068 260.0488 208.1764 259.2925 203 256.4167 C195.3163 252.1479 188 245.4167 188 245.4167 "/>
<path id="2" d="M149 232.4167 C149 232.4167 161.2873 235.3046 168 233.4167 C173.6705 231.8219 181 223.4167 181 223.4167 "/>
<path id="3" d="M148 197.4167 C148 197.4167 142.404 199.8121 141 201.4167 C140.4453 202.0506 140.4576 204.6573 141 205.4167 C141.8911 206.6643 143.6644 207.7797 146 208.4167 C148.4086 209.0736 150.0329 209.0724 152 208.4167 C153.3114 207.9795 154.506 206.7341 155 205.4167 C155.5988 203.8198 155.6179 201.0346 155 200.4167 C153.3935 198.8102 146 196.4167 146 196.4167 "/>
<path id="4" d="M182 198.4167 C182 198.4167 178.6641 199.5866 178 200.4167 C177.6169 200.8956 177.6407 203.1372 178 203.4167 C179.8651 204.8673 184.4413 207.2198 187 207.4167 C188.0362 207.4964 190.4924 205.6856 191 204.4167 C191.7724 202.4856 191.6225 197.9769 191 197.4167 C189.8341 196.3674 181 195.4167 181 195.4167 "/>
<path id="5" d="M190 178.4167 C190 178.4167 191.0136 165.7723 189 155.4167 C187.7701 149.0917 186.6316 147.7244 183 142.4167 C180.7093 139.0687 176 136.4167 176 136.4167 "/>
<path id="6" d="M157 176.4167 C157 176.4167 157.7879 170.8815 157 166.4167 C156.4067 163.0549 156.1582 161.9558 154 159.4167 C148.3728 152.7964 140 146.4167 140 146.4167 "/>
<path id="7" d="M265 201.4167 C265 201.4167 267.2693 192.3755 271 184.4167 C274.6189 176.6964 274.7458 175.9844 280 169.4167 C286.3902 161.4289 287.0524 160.4459 295 154.4167 C300.8179 150.0031 302.0125 149.052 309 147.4167 C324.1634 143.8678 341.3653 142.9142 342 143.4167 C342.1959 143.5718 339.1386 156.7137 333 166.4167 C324.4601 179.9152 322.9225 181.849 311 192.4167 C302.1273 200.2811 299.5205 202.0692 289 205.4167 C280.0164 208.2751 267 206.4167 267 206.4167 "/>
<path id="8" d="M243 197.4167 C243 197.4167 243.1052 184.9695 246 175.4167 C247.658 169.9453 248.9694 169.1586 253 164.4167 C257.1614 159.5209 257.5921 158.9056 263 155.4167 C272.6128 149.2148 274.3872 150.6185 284 144.4167 C289.4079 140.9277 293.9284 135.3776 294 135.4167 C294.1291 135.4871 295.8271 144.0755 295 150.4167 C294.526 154.0508 291 158.4167 291 158.4167 "/>
<path id="9" d="M243 192.4167 C243 192.4167 245.0616 215.7331 241 234.4167 C238.1452 247.5487 228 261.4167 228 261.4167 "/>
<path id="10" d="M269 193.4167 C269 193.4167 269.0829 213.564 268 233.4167 C267.5915 240.9053 267.9517 241.7251 266 248.4167 C264.6902 252.9076 261 257.4167 261 257.4167 "/>
<path id="11" d="M299 205.4167 C299 205.4167 299.9503 221.4396 298 235.4167 C297.1136 241.7689 293 248.4167 293 248.4167 "/>
<path id="12" d="M332 189.4167 C332 189.4167 333.0562 205.5091 331 220.4167 C329.1533 233.8054 324 247.4167 324 247.4167 "/>
<path id="13" d="M360 210.4167 C360 210.4167 361.0402 214.6429 360 217.4167 C355.6165 229.1061 352.966 233.8089 348 242.4167 C347.5752 243.153 345.2675 242.9708 345 243.4167 C344.6178 244.0536 345 247.4167 345 247.4167 "/>
<path id="14" d="M381 229.4167 L378 239.4167 "/>
</g>
</g>
</svg>
