<?xml version="1.0" encoding="utf-8"?>
<!DOCTYPE svg PUBLIC "-//W3C//DTD SVG 1.1//EN" "http://www.w3.org/Graphics/SVG/1.1/DTD/svg11.dtd">
<svg viewBox="0 0 800 800" preserveAspectRatio="xMinYMin meet" xmlns="http://www.w3.org/2000/svg" version="1.1">
<g fill="none" stroke="black" stroke-linecap="round" stroke-linejoin="round" stroke-width="0.87366">
<g transform="translate(94.3877,87.52) scale(3.4338) translate(-175,-146)">
<path id="0" d="M271 259 C271 259 260.3119 252.182 254 244 C247.7779 235.9344 246.7086 233.48 244 224 C242.2225 217.7788 242.8433 215.0729 244 209 C244.5215 206.2624 246.5362 203.3852 248 203 C251.8666 201.9825 256.7161 202.5038 263 204 C265.867 204.6826 267.268 205.5548 269 208 C274.8347 216.2373 277.55 218.404 280 228 C282.9277 239.4668 282.4856 252.4002 281 255 C280.3977 256.054 269.0474 256.9614 264 256 C262.5129 255.7167 260 251 260 251 "/>
<path id="1" d="M246 226 C246 226 245.8459 221.4105 247 220 C248.9542 217.6115 252.2211 217.9774 255 215 C258.4773 211.2743 261 205 261 205 "/>
<path id="2" d="M245 203 C245 203 242.494 201.3174 242 200 C241.4012 198.4032 241.7243 195.4596 242 195 C242.0993 194.8346 244.5211 194.6169 245 195 C245.8301 195.6641 246.7096 197.1122 247 199 C247.6068 202.9441 247.4175 207.0606 247 208 C246.9175 208.1856 243.9649 208.5514 243 208 C241.7249 207.2714 240.316 205.58 240 204 C239.6016 202.0078 240.5855 198.3455 241 198 C241.2879 197.7601 245.7132 198.4837 246 199 C246.6074 200.0933 246.3288 206.1233 246 207 C245.9538 207.1233 243.135 207.18 243 207 C242.76 206.68 243 203 243 203 "/>
<path id="3" d="M245 229 C245 229 252.1592 226.0775 255 223 C256.65 221.2125 255.5275 217.8406 257 216 C258.3355 214.3306 261.6645 214.6694 263 213 C264.4725 211.1594 265 206 265 206 "/>
<path id="4" d="M251 233 C251 233 252.5978 220.7424 256 217 C259.2517 213.4232 271 211 271 211 "/>
<path id="5" d="M253 241 C253 241 253.1048 231.9619 256 228 C260.7057 221.5607 272 215 272 215 "/>
<path id="6" d="M257 245 C257 245 260.2473 236.546 265 232 C270.4909 226.7479 280 223 280 223 "/>
<path id="7" d="M260 248 L281 231 "/>
<path id="8" d="M271 253 L288 242 "/>
<path id="9" d="M245 226 L242 233 "/>
<path id="10" d="M262 249 C262 249 257.713 250.1444 257 251 C256.5375 251.555 257 255 257 255 "/>
<path id="11" d="M267 206 C267 206 267.8635 199.0585 268 199 C268.1463 198.9373 274 203 274 203 "/>
<path id="12" d="M277 221 C277 221 277.6128 216.1721 278 216 C278.908 215.5965 286 217 286 217 "/>
<path id="13" d="M246 231 C246 231 242.2409 232.3577 242 233 C241.6129 234.0323 243 239 243 239 "/>
<path id="14" d="M261 254 C261 254 257 256.3755 257 257 C257 259.2898 261 268 261 268 "/>
<path id="15" d="M249 228 C249 228 223.7573 227.0607 204 232 C192.7254 234.8186 188.8814 237.9339 181 245 C176.9848 248.5999 174.3649 256.3064 175 258 C175.9822 260.6192 182.6673 265.8225 190 269 C195.8859 271.5506 204.362 269.7665 205 271 C206.7653 274.413 203.5464 285.2082 205 298 C205.9458 306.3233 206.2581 307.9839 210 315 C213.5897 321.7307 216.2911 325.3384 221 328 C224.0798 329.7407 229.1511 329.418 233 328 C236.0724 326.8681 237.5927 324.8517 240 321 C244.6559 313.5506 246.0676 312.4322 248 304 C251.2513 289.8127 247.3285 286.2738 251 273 C253.1646 265.1741 261 257 261 257 "/>
<path id="16" d="M271 209 C271 209 267.7506 189.6214 270 175 C271.2883 166.6259 273.8871 164.6694 279 157 C281.2724 153.5914 282.271 153.0509 286 151 C291.7021 147.8639 292.7336 147.5666 299 146 C302.0782 145.2304 303.3613 145.2803 306 146 C307.8163 146.4953 309.6611 147.7121 310 149 C311.36 154.1682 309.834 164.152 311 165 C312.9378 166.4093 323.6533 162.8537 332 165 C338.4843 166.6674 340.86 168.86 346 174 C350.2461 178.2461 353 186 353 186 "/>
<path id="17" d="M353 188 C353 188 353.972 192.056 353 194 C350.327 199.346 349.0998 201.1219 344 206 C338.1314 211.6134 336.535 214.5996 330 216 C312.824 219.6806 304.7305 215.5601 288 218 C285.338 218.3882 282 223 282 223 "/>
<path id="18" d="M235 244 C235 244 212.3081 243.4759 195 246 C191.2502 246.5468 187 251 187 251 "/>
<path id="19" d="M238 255 C238 255 227.4323 253.8559 221 256 C216.2995 257.5668 211 264 211 264 "/>
<path id="20" d="M234 265 C234 265 227.9839 271.3427 227 277 C224.4562 291.627 226 311 226 311 "/>
<path id="21" d="M281 201 C281 201 280.1596 188.0424 282 177 C282.9773 171.1361 283.8611 170.2314 287 165 C289.5529 160.7451 294 157 294 157 "/>
<path id="22" d="M291 201 C291 201 290.1341 192.3643 292 187 C293.487 182.7248 299 178 299 178 "/>
<path id="23" d="M306 200 C306 200 307.3247 197.0661 309 196 C311.9936 194.095 312.9765 193.7041 317 193 C332.4332 190.2992 349 189 349 189 "/>
<path id="24" d="M240 202 L225 200 "/>
<path id="25" d="M244 197 L246 176 "/>
</g>
</g>
</svg>
