<?xml version="1.0" encoding="utf-8"?>
<!DOCTYPE svg PUBLIC "-//W3C//DTD SVG 1.1//EN" "http://www.w3.org/Graphics/SVG/1.1/DTD/svg11.dtd">
<svg viewBox="0 0 800 800" preserveAspectRatio="xMinYMin meet" xmlns="http://www.w3.org/2000/svg" version="1.1">
<g fill="none" stroke="black" stroke-linecap="round" stroke-linejoin="round" stroke-width="1.0513">
<g transform="translate(225.9244,87.52) scale(2.8537) translate(-261,-78)">
<path id="0" d="M261 192 C261 192 260.321 185.7984 262 183 C265.0782 177.8696 266.9985 175.2865 273 172 C286.2452 164.7467 288.8415 163.1279 304 160 C318.5835 156.9907 324.9199 155.9991 336 159 C342.9114 160.8718 352 173 352 173 "/>
<path id="1" d="M262 192 C262 192 261.4967 197.6175 263 201 C264.9278 205.3375 267.1054 209.3877 270 210 C284.767 213.1238 293.8778 213.2998 315 212 C324.5872 211.41 329.5323 209.6451 335 206 C337.4301 204.3799 336.2458 199.1214 339 196 C342.4008 192.1458 350 189 350 189 "/>
<path id="2" d="M352 170 C352 170 355.309 173.2359 356 176 C356.9872 179.9487 356.9872 182.0513 356 186 C355.309 188.7641 352 192 352 192 "/>
<path id="3" d="M356 175 C356 175 354.8573 168.714 356 167 C357.9521 164.0719 361.6499 161.1348 366 160 C370.6859 158.7776 375.6397 159.4187 379 161 C380.8195 161.8563 382.2275 164.7171 383 168 C383.9727 172.134 383.8294 173.853 383 178 C382.5355 180.3223 381.808 181.7085 380 183 C375.9909 185.8637 374.2544 186.6173 369 188 C365.5869 188.8982 363.6228 188.8743 361 188 C359.2515 187.4172 357 184 357 184 "/>
<path id="4" d="M370 170 C370 170 369.75 173.75 370 174 C370.25 174.25 373.9957 174.0129 374 174 C374.0064 173.9807 371 171 371 171 "/>
<path id="5" d="M316 159 C316 159 316.8362 146.3371 320 135 C322.6746 125.416 325.0598 125.6855 328 116 C333.4517 98.0416 337 79 337 79 "/>
<path id="6" d="M301 161 C301 161 298.5274 146.5572 293 135 C288.0528 124.6558 284.2861 125.3204 279 115 C274.2169 105.6616 276.6328 101.903 272 94 C269.4418 89.636 262 86 262 86 "/>
<path id="7" d="M262 86 L342 78 "/>
<path id="8" d="M275 83 C275 83 275.7285 89.5106 278 95 C281.5551 103.5915 284.0027 103.553 287 112 C289.1834 118.1531 289 126 289 126 "/>
<path id="9" d="M289 89 C289 89 299.8315 109.644 306 130 C309.4629 141.4277 309 155 309 155 "/>
<path id="10" d="M309 82 C309 82 306.9615 94.3371 309 105 C313.2086 127.0145 322 150 322 150 "/>
<path id="11" d="M303 213 C303 213 299.67 213.7631 299 215 C294.6787 222.9777 294.9188 228.4741 290 237 C288.6503 239.3395 285.0146 238.7573 284 241 C277.3694 255.6571 271 279 271 279 "/>
<path id="12" d="M271 279 L308 292 "/>
<path id="13" d="M322 209 C322 209 312.8605 241.7671 307 274 C304.994 285.0327 306 297 306 297 "/>
<path id="14" d="M306 215 C306 215 299.7765 241.1152 292 266 C289.911 272.6846 286 279 286 279 "/>
<path id="15" d="M313 224 C313 224 310.4173 224.9019 310 226 C302.8131 244.913 294 274 294 274 "/>
<path id="16" d="M315 236 L305 273 "/>
<path id="17" d="M369 160 C369 160 365.3316 154.3065 362 152 C360.2218 150.7689 356 151 356 151 "/>
<path id="18" d="M370 160 C370 160 369.2181 148.9096 371 140 C371.9704 135.1482 373.0791 134.0892 376 130 C377.6295 127.7187 381 126 381 126 "/>
<path id="19" d="M290 185 L293 186 "/>
<path id="20" d="M310 181 C310 181 309.6538 186.4808 310 187 C310.1538 187.2308 313.8049 187.2439 314 187 C314.3049 186.6189 314 182 314 182 "/>
<path id="21" d="M334 160 C334 160 333.9994 165.9982 334 166 C334.0003 166.0008 335 163 335 163 "/>
<path id="22" d="M309 166 C309 166 309 175.9999 309 176 C309 176 310 168 310 168 "/>
<path id="23" d="M324 190 L323 194 "/>
<path id="24" d="M297 198 C297 198 297.0573 200.9427 297 201 C296.9809 201.0191 295 200 295 200 "/>
<path id="25" d="M279 188 C279 188 276.7751 190.1915 276 192 C275.5601 193.0265 275.8125 194.8125 276 195 C276.1875 195.1875 278.925 195.15 279 195 C279.3 194.4 279 189 279 189 "/>
<path id="26" d="M285 170 C285 170 284.7647 177.0588 285 178 C285.0147 178.0588 286.9655 178.0862 287 178 C287.2155 177.4612 287 173 287 173 "/>
</g>
</g>
</svg>
