<?xml version="1.0" encoding="utf-8"?>
<!DOCTYPE svg PUBLIC "-//W3C//DTD SVG 1.1//EN" "http://www.w3.org/Graphics/SVG/1.1/DTD/svg11.dtd">
<svg viewBox="0 0 800 800" preserveAspectRatio="xMinYMin meet" xmlns="http://www.w3.org/2000/svg" version="1.1">
<g fill="none" stroke="black" stroke-linecap="round" stroke-linejoin="round" stroke-width="1.1473">
<g transform="translate(87.52,261.4105) scale(2.6149) translate(-134,-71)">
<path id="0" d="M134,71L135,176"/>
<path id="1" d="M136,177C136,177 148.9764132190893,155.08765978512846 163,136C166.36829524828315,131.41537591205903 167.72326814681554,130.02582035150843 172,128C175.50234419252553,126.34099485617211 182,127 182,127"/>
<path id="2" d="M135,72C135,72 149.24088210506656,77.43953877653327 160,85C166.66162327303084,89.68114067834598 167.56460792734745,96.56922836366047 172,98C176.93901228807326,99.59322977034621 181.55921911273518,95.85825280793317 191,95C197.85792573886218,94.37655220555798 198.39530182357663,94.17441272794707 205,95C209.89455311288518,95.61181913911065 210.11101014366505,97.0833144019372 215,98C217.77717766987075,98.52072081310076 220.325,98.225 221,98C221.075,97.975 221,96 221,96"/>
<path id="3" d="M222,99C222,99 227.15902031100688,96.57322447900075 231,97C239.11953934255507,97.90217103806168 240.0620036094027,100.6593005414104 249,102C259.5587530694256,103.58381296041384 261.4307603595658,103.68351711717388 271,103C273.7118040674846,102.80629970946538 274.28742886836465,100.12917005388739 277,100C292.8759008091834,99.24400472337221 296.1261167535221,101.74995036651012 313,101C317.2862583524737,100.80949962877895 317.569931759375,98.42596810006009 322,98C342.6002759181029,96.01920423864395 365,96 365,96"/>
<path id="4" d="M183,128C183,128 188.25602345764216,128.46503429918351 192,127C198.82929054485643,124.32766891723008 199.64323244097943,120.39054290353574 206,119C213.17658877198946,117.4301212061273 220.10669465998325,117.60411979075891 224,120C227.60372064530475,122.21767424326447 227.16194688028224,128.47914579516302 232,135C238.2693415619147,143.44998210518935 239.03393549158227,143.88744240319846 247,151C252.72196584811957,156.10889807867818 253.79313003658984,157.7832607273535 260,160C265.87875348957345,162.0995548177048 269.14081626066553,162.4142857301842 275,161C281.3246329148891,159.47336446881988 282.24450939858854,154.89998173164696 289,153C296.5999269265879,150.86252055189715 298.69296713787633,153.86908239397783 307,152C317.8481416800298,149.55916812199328 322.38956500211526,149.37097843578138 329,144C334.71164778326004,139.3592861761012 334.63286913824845,132.3827297210215 339,126C339.5366389618254,125.21568151733211 341.60079547376506,125.7235582038008 342,125C347.28816385402115,115.41520301458671 355,97 355,97"/>
<path id="5" d="M239,118C239,118 243.89675972394966,127.90160411811229 249,131C254.82645396786586,134.53748990906143 258.89436232635455,135.35241902928894 267,135C279.8504011899258,134.44128690478584 283.36051905301394,134.40404472538637 295,129C309.0970047664193,122.4549620727339 323.01200988375916,109.06004941879581 323,109C322.99466227388484,108.97331136942408 305.43008852971957,106.59498524504673 291,109C280.4029037359872,110.7661827106688 279.6035219055914,116.09136605699355 269,118C256.4302026521355,120.26256352261561 241,118 241,118"/>
<path id="6" d="M250,103C250,103 247.87115278349023,85.75940430702388 249,83C249.35096409979653,82.1420877560529 258.86696026274296,80.75810956862356 259,81C259.85715602147036,82.55846549358246 260,103 260,103"/>
<path id="7" d="M273,102C273,102 270.7750502368957,86.89979905241713 272,82C272.3566309436886,80.57347622524564 275.7278133392859,79.09072888690471 279,78C280.9633119964285,77.34556266785718 283.9250870656687,77.77526119700607 284,78C284.973868146307,80.92160443892102 286,99 286,99"/>
<path id="8" d="M303,101C303,101 298.4505142054468,77.96244926626147 299,76C299.07087170214504,75.74688677805338 309.6005282812965,75.25431945842013 310,76C312.0433583671864,79.81426895208129 314,104 314,104"/>
<path id="9" d="M366,98L370,87"/>
<path id="10" d="M366,97L372,108"/>
<path id="11" d="M372,88L373,108"/>
</g>
</g>
</svg>
