<?xml version="1.0" encoding="utf-8"?>
<!DOCTYPE svg PUBLIC "-//W3C//DTD SVG 1.1//EN" "http://www.w3.org/Graphics/SVG/1.1/DTD/svg11.dtd">
<svg viewBox="0 0 800 800" preserveAspectRatio="xMinYMin meet" xmlns="http://www.w3.org/2000/svg" version="1.1">
<g fill="none" stroke="black" stroke-linecap="round" stroke-linejoin="round" stroke-width="2.1505">
<g transform="translate(87.52,294.6775) scale(1.395) translate(-139,-126)">
<path id="0" d="M160 136 C160 136 165.1257 137.2515 166 139 C170.5899 148.1798 168.8151 154.661 175 166 C179.881 174.9485 181.866 179.0429 190 183 C213.8542 194.6047 219.6898 195.2124 249 202 C265.9642 205.9285 267.032 204.6594 285 205 C372.2162 206.6534 372.5628 204.829 460 206 C484.4939 206.328 485.1194 205.7956 509 208 C516.9478 208.7336 519.4753 208.8773 525 212 C528.6568 214.0669 531.0583 216.964 532 221 C533.8598 228.9707 534.6736 234.7432 532 242 C529.179 249.6569 523.5659 258.0273 518 259 C488.7537 264.111 457.9806 261.2465 429 260 C427.6268 259.9409 425 255 425 255 "/>
<path id="1" d="M142 271 C142 271 169.9216 249.5131 199 232 C213.2456 223.4202 214.6233 223.7216 230 218 C235.412 215.9862 236.0749 216.0406 242 216 C380.0952 215.0541 437.4854 213.3405 522 216 C523.8965 216.0597 526.6874 220.8436 528 225 C529.2048 228.8151 529.676 232.2067 528 235 C522.838 243.6033 517.4323 253.5276 510 255 C480.1526 260.9132 422 256 422 256 "/>
<path id="2" d="M419 214 C419 214 419.0338 273.3584 419 274 C418.9984 274.0304 416 271 416 271 "/>
<path id="3" d="M413 215 C413 215 412.363 260.4721 413 273 C413.0127 273.2489 415.8597 274.0468 416 274 C416.0351 273.9883 416 272 416 272 "/>
<path id="4" d="M408 215 C408 215 407.1087 273.4239 407 275 C406.9968 275.047 404.0324 273.648 404 273 C403.126 255.5198 404 215 404 215 "/>
<path id="5" d="M400 215 C400 215 400.5896 245.5531 399 269 C398.847 271.2565 396.4119 273.8823 396 274 C395.7077 274.0835 392.0511 272.0041 392 271 C391.1082 253.462 393 215 393 215 "/>
<path id="6" d="M409 261 L412 262 "/>
<path id="7" d="M399 261 L402 262 "/>
<path id="8" d="M408 243 L413 243 "/>
<path id="9" d="M422 258 L426 261 "/>
<path id="10" d="M394 273 L403 273 "/>
<path id="11" d="M422 247 C422 247 443.9952 246.399 447 247 C447.1202 247.024 447 252 447 252 "/>
<path id="12" d="M422 251 C422 251 436.6632 249.7122 446 251 C448.1598 251.2979 451 255 451 255 "/>
<path id="13" d="M447 249 C447 249 450.6886 250.47 452 252 C452.8743 253.02 453 256 453 256 "/>
<path id="14" d="M431 237 C431 237 432.0178 244.1269 433 245 C433.7546 245.6708 437.8273 245.9053 440 245 C442.1986 244.0839 443.7972 242.165 445 240 C445.6186 238.8866 445 236 445 236 "/>
<path id="15" d="M391 245 C391 245 352.1353 241.9341 327 244 C323.2346 244.3095 318.9487 248.5604 318 251 C317.0764 253.3751 319.3716 261.9026 320 262 C331.7058 263.8136 368.1897 262.8793 389 262 C389.6414 261.9729 391 259 391 259 "/>
<path id="16" d="M391 250 C391 250 345.9598 248.6394 328 250 C327.0368 250.073 325.1467 253.9733 325 255 C324.9537 255.3242 326.2512 256.9786 327 257 C351.7506 257.7072 392.4049 257.0775 395 257 C395.0359 256.9989 394 255 394 255 "/>
<path id="17" d="M318 249 L302 250 "/>
<path id="18" d="M319 256 L301 256 "/>
<path id="19" d="M272 216 C272 216 270.6609 225.9574 273 232 C275.7489 239.1012 278.7138 244.2014 284 247 C290.8622 250.6329 306.9169 249.9842 307 250 C307.0064 250.0012 305 250.8006 305 251 C305 252.9943 307.0099 260.9704 307 261 C306.9972 261.0085 304.6971 257.3771 303 257 C298.1401 255.92 289 257 289 257 "/>
<path id="20" d="M294 258 C294 258 286.4133 257.1524 282 254 C273.8523 248.1802 268.8863 245.0354 266 238 C263.0579 230.8286 266 215 266 215 "/>
<path id="21" d="M302 215 L305 254 "/>
<path id="22" d="M299 216 C299 216 297.5415 224.7478 298 233 C298.5186 242.3344 301 252 301 252 "/>
<path id="23" d="M302 253 L302 255 "/>
<path id="24" d="M155 129 C155 129 161.9747 138.168 167 148 C173.3227 160.3704 178 174 178 174 "/>
<path id="25" d="M155 126 C155 126 149.3695 145.0442 147 164 C144.4331 184.5355 147.0995 185.3046 145 206 C143.6316 219.489 141.1358 219.5601 140 233 C138.1741 254.606 139 277 139 277 "/>
<path id="26" d="M394 203 C394 203 394.9954 197.9977 395 198 C395.0201 198.0101 398 205 398 205 "/>
<path id="27" d="M403 202 C403 202 404.9978 196.9989 405 197 C405.0241 197.012 407 204 407 204 "/>
<path id="28" d="M415 205 C415 205 415.8393 195.4821 416 195 C416.0052 194.9844 418 195.8247 418 196 C418 197.2272 416 203 416 203 "/>
<path id="29" d="M392 228 C392 228 386.7918 227.7115 384 229 C381.5889 230.1128 379.4229 232.4493 379 234 C378.6375 235.3292 379.5931 238.4173 381 240 C382.5074 241.6958 387 243 387 243 "/>
<path id="30" d="M524 210 L578 212 "/>
<path id="31" d="M529 218 L578 219 "/>
<path id="32" d="M579 212 C579 212 583.3321 207.834 585 207 C585.2943 206.8528 586.9807 207.7304 587 208 C587.2179 211.05 586.7979 215.0161 586 221 C585.8704 221.972 585.0486 223.0097 585 223 C584.6272 222.9254 581 220 581 220 "/>
<path id="33" d="M286 257 C286 257 274.1644 258.8106 270 257 C267.0465 255.7159 263 247 263 247 "/>
<path id="34" d="M287 259 C287 259 275.4438 260.7349 269 259 C265.4614 258.0473 262.6085 255.0159 261 252 C259.8579 249.8585 261 244 261 244 "/>
<path id="35" d="M343 249 L345 257 "/>
<path id="36" d="M343 251 L341 260 "/>
<path id="37" d="M342 242 C342 242 343.9998 234.9999 344 235 C344.0026 235.0009 345 243 345 243 "/>
</g>
</g>
</svg>
