<?xml version="1.0" encoding="utf-8"?>
<!DOCTYPE svg PUBLIC "-//W3C//DTD SVG 1.1//EN" "http://www.w3.org/Graphics/SVG/1.1/DTD/svg11.dtd">
<svg viewBox="0 0 800 800" preserveAspectRatio="xMinYMin meet" xmlns="http://www.w3.org/2000/svg" version="1.1">
<g fill="none" stroke="black" stroke-linecap="round" stroke-linejoin="round" stroke-width="1.7089">
<g transform="translate(87.52,288.5254) scale(1.7555) translate(-102,-135)">
<path id="0" d="M263 163 C263 163 262.986 183.8596 265 204 C265.9484 213.4836 266.5276 215.2295 269 223 C269.4823 224.5158 271.2237 226.0457 272 226 C275.9139 225.7698 285.6992 223.3421 286 222 C288.2662 211.8891 286.6373 192.9693 285 168 C284.7821 164.6763 282.0041 161.0041 282 161 C281.9984 160.9984 282 165 282 165 C281.7779 165 278.2829 161.7725 275 161 C270.866 160.0273 266.3062 160.2875 265 161 C264.4419 161.3044 264 167 264 167 "/>
<path id="1" d="M305 163 C305 163 303 193.8742 303 220 C303 222.2917 304.3495 224.8374 305 225 C307.7519 225.688 313.8928 225.4187 319 224 C320.8283 223.4921 322.8187 221.6313 323 220 C324.6766 204.9102 324.4066 187.5389 324 179 C323.9887 178.7617 321.1571 178.4712 321 178 C319.8481 174.5442 320.656 166.0382 319 164 C317.8408 162.5733 308 162 308 162 "/>
<path id="2" d="M344 165 C344 165 341.5326 172.544 341 180 C339.5623 200.1276 339.2764 204.718 340 221 C340.073 222.6432 342.2015 224.9501 343 225 C346.1481 225.1968 354.6018 223.9225 356 222 C358.378 218.7303 358.4945 212.4364 359 203 C359.9762 184.778 360.0906 180.9052 359 166 C358.8756 164.3002 357.0654 162.2906 356 162 C353.9876 161.4512 348 163 348 163 "/>
<path id="3" d="M266 150 C266 150 279.5453 150.0668 281 149 C281.678 148.5028 282.0185 140.6551 281 139 C280.193 137.6886 276.8767 136.7269 273 136 C269.378 135.3209 265.2462 135.5692 265 136 C264.2462 137.3192 265 150 265 150 "/>
<path id="4" d="M303 149 C303 149 314.7544 149.9546 318 149 C318.7509 148.7791 320 146.0835 320 144 C320 140.2498 318.9781 135.5178 318 135 C315.8312 133.8518 309.6554 134.2994 303 135 C301.1318 135.1966 299.325 136.1875 299 137 C298.2778 138.8055 298.1778 142.739 299 145 C299.4578 146.259 303 148 303 148 "/>
<path id="5" d="M344 154 C344 154 355.4028 150.8552 358 149 C358.5279 148.6229 358.676 145.5209 358 144 C357.2189 142.2425 355.8432 140.5421 354 140 C349.2664 138.6078 342.4305 138.1417 341 139 C340.0771 139.5537 339.3265 144.4283 339 149 C338.8735 150.7707 339.1903 152.0283 340 153 C340.8935 154.0722 344 155 344 155 "/>
<path id="6" d="M263 170 C263 170 248.9528 175.5521 235 178 C221.0722 180.4435 217.464 183.1408 206 180 C185.8429 174.4775 183.2196 169.8273 162 158 C153.0658 153.0203 153.8696 150.3316 145 146 C133.207 140.2406 131.5238 140.4156 119 137 C115.9191 136.1597 112.881 136.119 112 137 C109.6087 139.3913 107.7766 143.4266 106 150 C102.9525 161.2756 102.7687 162.085 102 174 C100.7958 192.6647 100.7342 193.2657 102 212 C103.2105 229.9148 102.4112 232.704 107 248 C109.0803 254.9342 112.7762 259.429 117 262 C119.9646 263.8045 125.1479 263.8196 130 262 C138.7712 258.7108 139.1507 255.107 149 250 C165.9073 241.2333 167.6106 243.2011 184 234 C195.5452 227.5185 205.8469 218.1859 206 218 C206.0251 217.9696 198.1267 217.0633 198 217 C197.9851 216.9925 198.8739 215.563 200 215 C211.0732 209.4634 215.8733 208.551 224 204 C224.7221 203.5956 225 201 225 201 "/>
<path id="7" d="M116 163 C116 163 121.3291 170.5214 124 178 C126.0513 183.7436 125.6815 184.5232 126 191 C127.1685 214.7591 127.3929 215.4268 127 239 C126.9015 244.9117 125 251 125 251 "/>
<path id="8" d="M358 197 C358 197 367.6169 199.6764 377 200 C396.1387 200.66 403.6732 204.7525 416 199 C432.1998 191.4401 438.0954 177.1219 452 165 C452.6355 164.446 454.6073 164.6073 455 165 C456.1781 166.1781 457.4668 168.156 458 171 C458.8126 175.3337 458.8517 176.3155 458 181 C455.9481 192.2855 453.536 192.5899 452 204 C450.1204 217.963 450.6386 218.9072 451 233 C451.1254 237.8888 453.1939 240.6728 453 243 C452.9556 243.5325 451.3821 244.6545 450 245 C448.0256 245.4936 446.0725 245.8682 445 245 C438.6163 239.8322 437.4903 235.6687 429 228 C422.2479 221.9013 421.3809 219.7193 414 217 C404.6617 213.5596 402.4502 214.6026 391 214 C374.1891 213.1152 357 214 357 214 "/>
<path id="9" d="M265 213 C265 213 257.5523 220.6193 255 227 C253.4403 230.8993 253.8042 235.7579 255 238 C255.8986 239.685 259.2692 241.7567 263 242 C300.9951 244.4779 312.2436 248.1836 347 244 C357.7082 242.7111 365.4236 235.8632 371 229 C374.0104 225.2949 373 212 373 212 "/>
<path id="10" d="M261 194 C261 194 254.72 198.572 250 204 C244.9758 209.7778 242.7543 210.8598 241 217 C238.4892 225.7878 238.4471 229.6825 240 239 C241.0787 245.4724 242.9829 250.188 247 253 C253.6712 257.6699 259.0116 259.5691 270 260 C307.242 261.4605 311.4894 261.0453 349 257 C360.2842 255.7831 363.2069 253.8513 372 249 C375.3403 247.1571 375.8877 245.2246 378 241 C381.6485 233.7029 383.8172 225.2234 384 225 C384.0223 224.9728 386.9988 230.0071 387 230 C387.0044 229.9735 386 213 386 213 "/>
<path id="11" d="M223 208 C223 208 226.6623 205.3851 230 205 C238.6325 204.0039 249 205 249 205 "/>
<path id="12" d="M286 174 L307 177 "/>
<path id="13" d="M320 180 L339 180 "/>
<path id="14" d="M360 179 C360 179 366.1278 178.1702 370 179 C371.7978 179.3852 372.7385 180.2129 374 182 C378.2558 188.0291 379.0789 188.9895 382 196 C383.8257 200.3816 384 206 384 206 "/>
<path id="15" d="M286 201 L305 202 "/>
<path id="16" d="M323 204 L349 203 "/>
<path id="17" d="M287 214 L305 212 "/>
<path id="18" d="M321 213 L341 213 "/>
</g>
</g>
</svg>
