<?xml version="1.0" encoding="utf-8"?>
<!DOCTYPE svg PUBLIC "-//W3C//DTD SVG 1.1//EN" "http://www.w3.org/Graphics/SVG/1.1/DTD/svg11.dtd">
<svg viewBox="0 0 800 800" preserveAspectRatio="xMinYMin meet" xmlns="http://www.w3.org/2000/svg" version="1.1">
<g fill="none" stroke="black" stroke-linecap="round" stroke-linejoin="round" stroke-width="1.9057">
<g transform="translate(87.52,164.6561) scale(1.5742) translate(-113,-9)">
<path id="0" d="M127 257 C127 257 166.3448 227.2857 207 201 C223.8924 190.0782 225.8646 192.5969 243 182 C263.5682 169.2802 262.7909 165.4083 283 154 C292.3978 148.6948 294.0564 148.8941 305 147 C319.3074 144.5237 320.7693 144.1629 335 145 C345.1408 145.5965 346.9575 146.383 356 150 C360.6392 151.8557 362.2496 152.9399 365 157 C371.7472 166.9601 374.0329 169.941 377 181 C378.8238 187.7979 377.2878 189.7216 376 198 C373.8282 211.9618 373.8463 212.7129 370 226 C368.5194 231.1149 368.0963 231.5276 365 236 C354.8265 250.695 355.008 252.992 343 265 C335.2301 272.7699 331.6937 270.9162 323 278 C318.9268 281.3189 320.0877 284.2348 316 287 C304.6096 294.7053 302.722 294.8689 289 301 C279.4569 305.2639 278.4995 307.3667 269 308 C243.534 309.6977 234.6553 310.8769 214 306 C206.3512 304.194 203.5125 299.0755 197 291 C191.9071 284.6847 190.1814 282.4261 189 275 C187.0957 263.0304 186.0762 257.8796 190 247 C195.6135 231.4353 199.8535 229.6747 211 214 C215.6095 207.5179 215.9 205.8527 222 202 C233.3533 194.8295 237.5248 196.8851 249 190 C253.4961 187.3023 252.5025 184.7104 257 181 C272.1033 168.5398 272.2082 167.2616 289 157 C316.6865 140.0805 318.3936 142.0475 347 126 C359.2996 119.1002 359.7632 119.222 371 111 C379.9878 104.4235 378.9819 101.933 388 96 C397.2566 89.9102 399.6234 91.9906 409 86 C416.9787 80.9025 417.8242 77.4603 424 73 C424.7597 72.4513 426.7027 73.4035 427 73 C430.6456 68.0524 431.7786 62.8609 438 54 C448.1148 39.5941 453.7777 38.4446 460 26 C462.5527 20.8945 460 10 460 10 "/>
<path id="1" d="M461 9 C461 9 473.0301 23.3501 482 37 C483.7842 39.715 482.2391 41.6973 484 44 C487.8011 48.9707 491.2663 49.3329 495 54 C496.1519 55.4398 494.8398 57.221 496 59 C501.5689 67.539 510 76.945 510 77 C510 77.0153 502.802 73.2146 496 72 C489.6058 70.8582 488.691 71.0208 482 72 C468.6763 73.9498 466.2473 73.1797 455 78 C447.3388 81.2834 447.9856 84.9182 440 90 C404.3694 112.674 404.2003 113.5915 367 134 C332.4565 152.9509 329.7995 150.2225 296 169 C285.7854 174.6748 286.9421 177.3117 277 184 C259.6386 195.6795 256.5965 193.2393 241 206 C224.7734 219.2763 222.5775 222.1223 211 238 C206.7782 243.7899 206.789 246.3075 206 254 C204.906 264.6668 204.4383 268.0341 207 277 C208.603 282.6105 211.1202 285.2292 216 289 C220.5035 292.48 222.8427 293.4402 229 294 C243.1451 295.2859 245.3416 295.2126 260 293 C270.8495 291.3623 272.1338 290.8184 282 286 C292.805 280.7232 293.7886 279.5665 303 272 C307.0793 268.6491 306.0568 265.7431 310 263 C316.2058 258.6829 319.5211 260.4057 326 256 C330.931 252.6469 331.5634 251.4771 335 246 C347.1746 226.5968 350.0862 224.4547 358 205 C360.8927 197.8887 361.1188 193.6824 359 187 C355.7122 176.6308 352.5088 171.777 345 164 C340.9868 159.8434 337.7254 159.2228 331 158 C322.5325 156.4605 319.9512 155.8668 312 158 C301.5583 160.8014 301.2814 164.7208 290 169 C272.684 175.5682 271.1189 173.4158 254 180 C245.7188 183.1851 244.4373 183.2454 238 189 C212.6482 211.663 213.4509 216.5433 188 239 C180.7465 245.4002 178.7748 245.1391 170 249 C167.0855 250.2824 165.5585 248.5187 163 250 C148.4306 258.4349 140.0708 263.1895 132 271 C130.6303 272.3255 132.0014 279.9995 132 280 C131.9998 280.0001 131.1169 275.3518 129 272 C125.4305 266.3484 120.2506 262.2529 120 261 C119.9452 260.7259 126 257 126 257 "/>
<path id="2" d="M125 259 C125 259 113.0032 253.9994 113 254 C112.9983 254.0003 120 260 120 260 "/>
<path id="3" d="M233 192 C233 192 227.5231 178.3055 226 177 C225.6603 176.7088 218.9987 180.0016 219 180 C219.004 179.9952 234.9366 166.0146 235 166 C235.0183 165.9958 231.1848 174.671 232 177 C233.0241 179.9259 242 186 242 186 "/>
<path id="4" d="M265 178 C265 178 257.2218 165.2271 252 161 C250.439 159.7364 243.9938 161.0247 244 161 C244.0456 160.8175 254.6545 148.8848 255 149 C255.8062 149.2687 265 168 265 168 "/>
<path id="5" d="M287 159 C287 159 280.7915 145.5851 277 143 C274.9477 141.6007 264.9957 144.0108 265 144 C265.013 143.9675 280.1008 132.6763 281 133 C282.2099 133.4356 290 153 290 153 "/>
</g>
</g>
</svg>
