<?xml version="1.0" encoding="utf-8"?>
<!DOCTYPE svg PUBLIC "-//W3C//DTD SVG 1.1//EN" "http://www.w3.org/Graphics/SVG/1.1/DTD/svg11.dtd">
<svg viewBox="0 0 800 800" preserveAspectRatio="xMinYMin meet" xmlns="http://www.w3.org/2000/svg" version="1.1">
<g fill="none" stroke="black" stroke-linecap="round" stroke-linejoin="round" stroke-width="1.1665">
<g transform="translate(87.52,95.2356) scale(2.5719) translate(-130.5,-127.6667)">
<path id="0" d="M254.5 214.6667 C254.5 214.6667 248.273 219.1958 244.5 224.6667 C238.7173 233.0516 237.7343 238.9397 234.5 243.6667 C234.2431 244.0421 231.8572 243.2202 231.5 243.6667 C225.7552 250.8477 223.8939 258.0986 214.5 268.6667 C208.8012 275.0778 199.5 279.6667 199.5 279.6667 "/>
<path id="1" d="M273.5 228.6667 C273.5 228.6667 262.224 236.8963 255.5 245.6667 C251.8251 250.46 254.226 253.4917 250.5 258.6667 C237.1853 277.1593 219.5 295.6667 219.5 295.6667 "/>
<path id="2" d="M220.5 300.6667 C220.5 300.6667 216.582 293.9668 211.5 289.6667 C204.1973 283.4874 202.3792 280.1213 194.5 278.6667 C174.5503 274.9836 170.0057 277.2683 146.5 277.6667 C141.0948 277.7583 137.7525 277.8647 135.5 279.6667 C133.3548 281.3829 132.3393 284.8405 131.5 289.6667 C130.4798 295.5327 130.5212 298.7514 131.5 302.6667 C131.8012 303.8714 134.516 303.9094 135.5 305.6667 C140.6832 314.9223 139.2004 318.4595 145.5 327.6667 C151.3858 336.269 152.8771 338.2523 161.5 343.6667 C172.7252 350.7151 175.922 348.2243 188.5 354.6667 C195.8701 358.4416 196.3068 363.428 202.5 364.6667 C214.422 367.0511 231.4414 365.9183 233.5 363.6667 C235.9495 360.9876 234.8692 346.2788 234.5 329.6667 C234.38 324.2669 234.0297 323.9113 232.5 318.6667 C230.5906 312.1203 230.6361 311.3687 227.5 305.6667 C225.4491 301.9377 221.5 298.6667 221.5 298.6667 "/>
<path id="3" d="M171.5 288.6667 C171.5 288.6667 167.1291 284.1319 163.5 283.6667 C150.4805 281.9975 138.1505 282.2968 132.5 283.6667 C131.7819 283.8407 130.0045 289.024 130.5 291.6667 C131.0808 294.7642 132.5226 296.8878 135.5 299.6667 C139.2257 303.144 141.646 301.9962 145.5 305.6667 C151.4678 311.3503 150.4514 314.5859 156.5 319.6667 C161.7832 324.1046 165.2339 322.0801 170.5 326.6667 C179.5191 334.522 179.8961 343.8313 187.5 346.6667 C200.7896 351.6221 223.1881 350.4901 229.5 348.6667 C230.6175 348.3438 234.2851 336.0469 232.5 333.6667 C221.1591 318.5455 206.0253 304.2311 184.5 288.6667 C179.5699 285.1019 167.5 286.6667 167.5 286.6667 "/>
<path id="4" d="M252.5 218.6667 L264.5 207.6667 "/>
<path id="5" d="M274.5 229.6667 C274.5 229.6667 277.6257 228.8324 278.5 227.6667 C279.8114 225.9181 280.5 221.6667 280.5 221.6667 "/>
<path id="6" d="M262.5 202.6667 C262.5 202.6667 265.9218 209.6065 270.5 214.6667 C275.0102 219.6517 281.5 223.6667 281.5 223.6667 "/>
<path id="7" d="M270.5 197.6667 C270.5 197.6667 278.775 204.2261 284.5 210.6667 C286.025 212.3823 286.5 215.6667 286.5 215.6667 "/>
<path id="8" d="M276.5 192.6667 C276.5 192.6667 285.7097 194.702 288.5 197.6667 C291.1996 200.535 292.5 209.6667 292.5 209.6667 "/>
<path id="9" d="M286.5 183.6667 C286.5 183.6667 291.8053 186.2029 295.5 189.6667 C299.4 193.3229 300.3667 194.7048 302.5 198.6667 C303.1683 199.9077 302.5 202.6667 302.5 202.6667 "/>
<path id="10" d="M264.5 203.6667 L270.5 197.6667 "/>
<path id="11" d="M276.5 193.6667 C276.5 193.6667 279.171 185.772 281.5 182.6667 C282.1316 181.8245 284.7634 181.4211 285.5 181.6667 C286.1027 181.8676 287.5 184.6667 287.5 184.6667 "/>
<path id="12" d="M294.5 176.6667 C294.5 176.6667 301.8249 180.4665 305.5 184.6667 C307.7155 187.1987 308.5 192.6667 308.5 192.6667 "/>
<path id="13" d="M291.5 177.6667 L296.5 177.6667 "/>
<path id="14" d="M300.5 170.6667 C300.5 170.6667 306.8846 172.0513 309.5 174.6667 C312.9201 178.0867 315.5 185.6667 315.5 185.6667 "/>
<path id="15" d="M293.5 176.6667 L300.5 169.6667 "/>
<path id="16" d="M300.5 176.6667 L305.5 176.6667 "/>
<path id="17" d="M285.5 194.6667 C285.5 194.6667 289.6089 192.9143 290.5 191.6667 C291.0424 190.9073 290.5 187.6667 290.5 187.6667 "/>
<path id="18" d="M273.5 214.6667 L283.5 207.6667 "/>
<path id="19" d="M305.5 174.6667 L300.5 182.6667 "/>
<path id="20" d="M273.5 210.6667 C273.5 210.6667 263.9219 204.1415 260.5 199.6667 C259.5196 198.3846 260.4497 193.681 260.5 193.6667 C260.6718 193.6176 265.7733 195.4219 267.5 197.6667 C269.5806 200.3714 268.5359 203.7205 270.5 206.6667 C271.6309 208.363 275.5 209.6667 275.5 209.6667 "/>
<path id="21" d="M284.5 189.6667 C284.5 189.6667 276.7781 190.8817 274.5 189.6667 C272.3889 188.5408 269.4932 181.6686 269.5 181.6667 C269.5256 181.6594 281.5 187.6667 281.5 187.6667 "/>
<path id="22" d="M300.5 178.6667 C300.5 178.6667 292.0965 177.0777 289.5 174.6667 C287.4959 172.8057 286.4968 165.6672 286.5 165.6667 C286.5166 165.6639 290.9515 170.8239 295.5 173.6667 C298.1804 175.3419 302.5 175.6667 302.5 175.6667 "/>
<path id="23" d="M305.5 172.6667 C305.5 172.6667 310.783 163.0969 316.5 159.6667 C323.1901 155.6526 329.1202 158.3473 335.5 154.6667 C339.2225 152.5191 338.2732 148.125 342.5 144.6667 C353.6112 135.5757 368.5 127.6667 368.5 127.6667 "/>
<path id="24" d="M314.5 180.6667 C314.5 180.6667 319.3273 180.8518 321.5 179.6667 C323.4371 178.6101 323.2686 176.1011 325.5 174.6667 C329.3883 172.167 333.1916 173.1399 335.5 170.6667 C338.0508 167.9337 336.5583 163.5276 339.5 159.6667 C343.5086 154.4053 346.371 152.8723 351.5 149.6667 C352.6242 148.9641 354.6024 150.3753 355.5 149.6667 C361.5236 144.9112 363.6243 142.3063 370.5 134.6667 C372.3576 132.6026 373.5416 129.736 373.5 129.6667 C373.4532 129.5887 367.5 129.6667 367.5 129.6667 "/>
<path id="25" d="M359.5 134.6667 C359.5 134.6667 358.9826 138.063 359.5 138.6667 C360.5534 139.8956 365.5 141.6667 365.5 141.6667 "/>
<path id="26" d="M280.5 224.6667 C280.5 224.6667 282.3981 217.7425 285.5 212.6667 C287.4916 209.4076 288.4567 208.2898 291.5 206.6667 C294.83 204.8907 297.1092 206.5504 300.5 204.6667 C305.0087 202.1619 306.2206 201.1543 309.5 196.6667 C315.1936 188.8755 319.5 178.6667 319.5 178.6667 "/>
<path id="27" d="M247.5 220.6667 C247.5 220.6667 256.2576 221.697 260.5 224.6667 C264.2591 227.2981 267.5 234.6667 267.5 234.6667 "/>
<path id="28" d="M258.5 215.6667 C258.5 215.6667 266.6243 216.2984 269.5 218.6667 C272.7148 221.3142 275.5 229.6667 275.5 229.6667 "/>
<path id="29" d="M338.5 150.6667 L350.5 152.6667 "/>
<path id="30" d="M345.5 144.6667 C345.5 144.6667 348.9876 144.608 350.5 145.6667 C352.9411 147.3754 355.5 151.6667 355.5 151.6667 "/>
<path id="31" d="M365.5 153.6667 C365.5 153.6667 356.8834 152.7437 349.5 153.6667 C345.6353 154.1498 343.9707 154.5761 341.5 156.6667 C338.7407 159.0014 338.8885 162.7125 336.5 164.6667 C335.0895 165.8207 332.3243 164.5057 330.5 165.6667 C328.0759 167.2093 326.9423 168.4935 325.5 171.6667 C322.3142 178.6755 323.6589 180.4013 320.5 187.6667 C318.9055 191.3341 318.0157 193.4687 315.5 194.6667 C310.2386 197.1721 303.9342 194.3768 299.5 197.6667 C292.2405 203.0527 291.892 210.5827 284.5 217.6667 C281.9308 220.1288 277.7399 218.2402 275.5 220.6667 C268.2014 228.5735 266.6606 231.9616 260.5 243.6667 C256.9842 250.3467 257.0851 251.3752 255.5 258.6667 C254.7117 262.2927 254.5097 263.8937 255.5 266.6667 C256.4638 269.3653 258.4873 272.2503 260.5 272.6667 C268.2393 274.2679 276.4883 276.5698 284.5 272.6667 C308.7064 260.8738 312.4509 254.3895 338.5 234.6667 C347.1096 228.148 348.2847 227.5771 354.5 219.6667 C358.4933 214.5843 356.8531 212.3975 360.5 206.6667 C363.5555 201.8652 367.1046 201.6785 368.5 197.6667 C370.158 192.8999 367.3582 190.0609 368.5 183.6667 C369.7146 176.8646 372.1405 176.4642 373.5 169.6667 C374.497 164.6818 374.8715 160.7863 373.5 158.6667 C371.8644 156.1389 362.5 152.6667 362.5 152.6667 "/>
<path id="32" d="M357.5 160.6667 C357.5 160.6667 356.4668 164.1832 355.5 164.6667 C353.4455 165.6939 350.825 164.4792 347.5 165.6667 C344.5445 166.7222 343.389 167.1766 341.5 169.6667 C333.2965 180.4804 333.9502 183.2773 325.5 194.6667 C322.9346 198.1243 320.9208 197.2084 318.5 200.6667 C310.9933 211.3905 309.5787 218.8625 304.5 224.6667 C303.6419 225.6474 300.1417 223.5904 297.5 224.6667 C288.2611 228.4307 285.4589 229.5444 277.5 235.6667 C273.8862 238.4465 273.2062 240.2793 271.5 244.6667 C270.0865 248.3013 271.7465 250.4257 270.5 253.6667 C269.7643 255.5794 266.9473 256.1757 266.5 257.6667 C266.0097 259.301 267.0841 263.5532 267.5 263.6667 C270.8126 264.5701 281.1427 266.9366 288.5 263.6667 C307.5744 255.1891 312.8189 251.5005 330.5 235.6667 C344.6441 223.0003 344.5534 219.91 355.5 203.6667 C359.5435 197.6667 360.0784 196.5969 361.5 189.6667 C363.8717 178.1047 364.3813 168.6325 363.5 164.6667 C363.3644 164.0565 355.5 162.6667 355.5 162.6667 "/>
<path id="33" d="M294.5 180.6667 C294.5 180.6667 290.0838 179.8748 288.5 180.6667 C286.7842 181.5245 284.5 185.6667 284.5 185.6667 "/>
<path id="34" d="M277.5 194.6667 C277.5 194.6667 277.8822 198.0297 277.5 198.6667 C277.2325 199.1125 274.5 199.6667 274.5 199.6667 "/>
</g>
</g>
</svg>
