<?xml version="1.0" encoding="utf-8"?>
<!DOCTYPE svg PUBLIC "-//W3C//DTD SVG 1.1//EN" "http://www.w3.org/Graphics/SVG/1.1/DTD/svg11.dtd">
<svg viewBox="0 0 800 800" preserveAspectRatio="xMinYMin meet" xmlns="http://www.w3.org/2000/svg" version="1.1">
<g fill="none" stroke="black" stroke-linecap="round" stroke-linejoin="round" stroke-width="2.3954">
<g transform="translate(87.52,179.5732) scale(1.2524) translate(-1,-121)">
<path id="0" d="M394 153 C394 153 391.0829 169.1232 386 182 C384.1407 186.7102 383.0748 187.9439 379 191 C370.1095 197.6679 368.5145 199.7501 358 203 C342.8743 207.6752 340.8019 207.5289 324 208 C288.1012 209.0065 286.7459 205.6028 251 206 C242.6568 206.0927 242.3303 208.8827 234 209 C207.6184 209.3716 200.2178 208.4441 180 207 C179.1998 206.9428 178.7503 205.0231 178 205 C155.0723 204.2945 144.8194 203.4096 115 205 C109.2191 205.3083 108.8479 207.9367 103 209 C98.4052 209.8354 97.2974 207.6831 93 209 C68.1516 216.6148 58.7849 218.0525 41 228 C36.7884 230.3556 35.3482 235.1242 34 242 C30.7034 258.8125 33.8626 261.1883 31 279 C29.4753 288.4871 25.7161 288.8339 25 298 C23.3477 319.1497 28.1929 325.7699 26 343 C25.4615 347.2307 22.3863 349.3448 18 353 C14.1956 356.1704 11.1911 355.3408 8 358 C6.6109 359.1576 7.349 361.4583 6 363 C4.5261 364.6845 1.3724 364.8083 1 366 C-0.061141 369.3957 0.060669 377.9884 1 379 C1.9445 380.0171 7.783 380.4288 14 380 C21.792 379.4626 24.2724 379.291 30 377 C31.998 376.2008 33.862 374.0979 34 372 C35.8636 343.6729 30.9469 333.0872 35 301 C36.4468 289.5461 42.2691 288.992 46 277 C48.9841 267.4083 47.0472 265.3734 49 256 C49.3085 254.519 50.5578 253.2211 51 253 C51.1895 252.9052 52.9228 253.5987 53 254 C54.4255 261.4128 56 266.6624 56 279 C56 314.0387 52.8045 314.6188 53 350 C53.303 404.8398 54.7915 418.7744 57 460 C57.0422 460.7882 58.4482 462 59 462 C60.9312 462 65.9659 460.4318 66 460 C66.4765 453.9644 63.011 441.9451 62 424 C61.0232 406.6619 60.5797 406.0435 62 389 C63.0314 376.6232 66.6997 376.164 67 364 C67.6686 336.9223 63.5745 312.6802 64 308 C64.0021 307.9771 71.5437 308.2395 72 309 C73.1486 310.9144 72.7101 315.9952 73 323 C75.7085 388.4553 77.12 391.9573 78 454 C78.0669 458.7134 75.4716 463.8035 75 464 C74.5448 464.1896 66 459 66 459 "/>
<path id="1" d="M69 308 C69 308 74.2934 312.8123 77 318 C79.881 323.5219 78.1048 327.0708 81 331 C83.427 334.2938 86.8011 333.4309 91 337 C96.3807 341.5736 95.7618 345.5725 101 348 C113.0419 353.5804 118.5655 350.0888 132 356 C141.7918 360.3084 141.3717 364.7482 151 370 C156.8493 373.1905 158.1471 373.3625 165 374 C178.8278 375.2863 179.5706 374.5445 194 374 C205.9791 373.548 214.5689 372.7148 218 372 C218.0878 371.9817 217.9613 368.9896 218 369 C219.3741 369.37 231.2444 376.1365 244 379 C254.4883 381.3545 256.9559 382.046 267 380 C281.7357 376.9983 285.6114 374.6965 298 368 C301.412 366.1557 300.6837 362.653 304 360 C307.2628 357.3897 309.1568 358.6786 313 356 C325.1421 347.5373 326.1508 346.6868 337 337 C339.4782 334.7873 338.8525 332.718 341 331 C342.8547 329.5162 346.5122 330.1087 347 329 C349.6495 322.9784 350.7449 310.1238 352 306 C352.0312 305.8976 353.9983 305.9793 354 306 C354.2483 308.9793 355.7302 318.877 354 330 C352.4075 340.2372 348.9715 340.4034 347 351 C341.1062 382.6793 341.6107 383.5036 338 416 C336.1278 432.85 335.4173 444.901 336 450 C336.0291 450.2545 341.9814 451.0696 342 451 C343.9708 443.6095 348.4428 420.3982 352 390 C353.8949 373.8074 349.9483 371.1489 353 357 C354.8519 348.4138 360.9385 347.621 363 339 C365.8549 327.0611 363.1845 324.8643 364 311 C364.1761 308.0062 364.4785 305.7822 365 305 C365.1564 304.7653 367.3335 304.6001 368 305 C368.8442 305.5065 369.9256 306.6977 370 308 C370.7647 321.3819 371.7664 324.4238 370 340 C366.3432 372.2463 362.1682 372.5865 359 405 C355.7301 438.4536 357.4679 467.7756 357 473 C356.9956 473.0492 353.5398 472.7197 353 472 C351.8529 470.4706 351.3163 468.4793 351 465 C348.874 441.6139 348 417 348 417 "/>
<path id="2" d="M395 156 C395 156 394.2996 152.2607 395 151 C395.9494 149.2911 399.6711 148.6445 400 147 C401.7235 138.3826 401 121 401 121 C401 121 400.0761 126.3044 401 130 C401.8213 133.285 404.455 133.6394 405 137 C407.1606 150.3237 407 167 407 167 C407 167 406.7383 163.1454 407 163 C408.1255 162.3747 411.6816 161.684 416 162 C431.6219 163.1431 438.5997 162.6972 448 166 C450.2968 166.807 449.9521 173.1374 453 175 C464.3048 181.9085 475.2494 181.8231 484 188 C486.3446 189.655 484.956 196.1384 487 199 C488.2442 200.7418 491.3537 200.0153 494 202 C496.7178 204.0383 498.1529 205.1764 499 208 C500.6151 213.3837 500.2771 221.9189 500 222 C496.2957 223.0842 476.9136 219.614 458 220 C454.8171 220.065 454.335 222.6294 451 223 C441.9045 224.0106 439.0466 224.6648 431 223 C426.8796 222.1475 422.9426 217.377 422 217 C421.9835 216.9934 421.3287 218.9648 421 219 C413.6622 219.7862 406.8471 218.2074 394 220 C386.0958 221.1029 383.7519 221.4051 378 225 C373.7143 227.6786 371.5724 230.4794 370 235 C368.4009 239.5975 369.0292 245.5731 370 248 C370.3286 248.8214 375.7815 249.1745 376 250 C377.9972 257.5449 378.2516 266.0348 379 282 C379.7451 297.8953 381.0862 302.079 379 314 C378.3986 317.4366 372 322 372 322 "/>
<path id="3" d="M453 177 C453 177 444.8654 178.6538 444 180 C442.9164 181.6855 443.7301 190.8283 444 191 C444.3259 191.2074 453.9698 188.5454 455 187 C455.9393 185.591 454.257 176.2249 454 176 C453.9153 175.9259 448.1699 178.3287 447 180 C446.2113 181.1267 446.775 185.325 447 186 C447.025 186.075 448.3287 186.3356 449 186 C451.6851 184.6574 453.6351 183.5924 455 182 C455.4479 181.4775 455.0009 178.9983 455 179 C454.9954 179.0084 450 190.9999 450 191 C450 191 452 184 452 184 "/>
<path id="4" d="M496 222 C496 222 495.1599 217.8119 494 217 C492.0177 215.6124 487.3895 215.6948 486 215 C485.8456 214.9228 486.0096 213.0004 486 213 C483.2541 212.8856 468.8646 214.528 462 214 C461.3599 213.9508 460.846 211.423 460 211 C459.0332 210.5166 456 211 456 211 "/>
</g>
</g>
</svg>
