<?xml version="1.0" encoding="utf-8"?>
<!DOCTYPE svg PUBLIC "-//W3C//DTD SVG 1.1//EN" "http://www.w3.org/Graphics/SVG/1.1/DTD/svg11.dtd">
<svg viewBox="0 0 800 800" preserveAspectRatio="xMinYMin meet" xmlns="http://www.w3.org/2000/svg" version="1.1">
<g fill="none" stroke="black" stroke-linecap="round" stroke-linejoin="round" stroke-width="1.3057">
<g transform="translate(87.52,181.7235) scale(2.2976) translate(-200,-169.1333)">
<path id="0" d="M320 239.1333 C320 239.1333 316.1931 239.227 315 238.1333 C311.74 235.145 309.3391 232.7244 308 228.1333 C306.4432 222.7956 306.1731 218.7005 308 214.1333 C309.9574 209.2399 313.0293 206.9344 318 203.1333 C320.3027 201.3724 321.6494 201.245 325 201.1333 C335.8895 200.7703 338.5666 200.7358 348 202.1333 C349.8112 202.4017 351.817 203.9621 352 205.1333 C353.4719 214.5534 355.2808 225.4665 353 234.1333 C352.056 237.7207 346.7349 242.0192 342 243.1333 C333.7829 245.0668 319 242.1333 319 242.1333 "/>
<path id="1" d="M321 243.1333 C321 243.1333 314.5623 247.6182 313 251.1333 C311.648 254.1752 311.5807 257.664 313 261.1333 C315.2257 266.574 321.052 268.3934 322 273.1333 C323.1953 279.1098 318.7305 284.9338 319 291.1333 C319.078 292.9283 322.1782 293.8734 323 296.1333 C323.7639 298.2342 323.8508 299.8647 323 302.1333 C321.263 306.7652 317.6553 307.8737 317 312.1333 C316.0585 318.2528 318.2525 325.7413 319 328.1333 C319.0422 328.2682 322 328.1333 322 328.1333 "/>
<path id="2" d="M335 245.1333 C335 245.1333 346.3857 245.952 347 247.1333 C348.7534 250.5053 346.4341 261.6776 348 270.1333 C348.3202 271.8623 351.4644 272.3927 352 274.1333 C352.9215 277.1283 353.0536 279.7618 352 283.1333 C350.9976 286.341 347.2382 287.5127 347 290.1333 C346.5293 295.3107 351.2352 300.1925 350 305.1333 C348.2881 311.9811 340.3831 317.5888 339 322.1333 C338.6749 323.2015 342.2084 325.3627 343 328.1333 C343.8866 331.2364 343.383 335.9767 343 336.1333 C340.3776 337.2061 327.7754 338.7688 321 337.1333 C318.219 336.4621 314 329.1333 314 329.1333 "/>
<path id="3" d="M317 203.1333 L303 192.1333 "/>
<path id="4" d="M348 200.1333 L362 185.1333 "/>
<path id="5" d="M347 253.1333 C347 253.1333 365.9471 240.5209 379 227.1333 C383.7522 222.2593 381.8974 219.4239 386 213.1333 C389.1418 208.3159 389.4615 207.7641 394 204.1333 C416.3939 186.2182 421.014 178.2936 441 169.1333 C448.6351 165.6339 460.7689 168.2647 466 171.1333 C468.8516 172.6971 470.3921 178.8976 472 186.1333 C473.1813 191.4493 473.5068 193.278 472 198.1333 C469.5146 206.1419 468.6245 207.9748 463 215.1333 C452.7524 228.1758 446.319 229.7648 439 240.1333 C437.4294 242.3583 438.0761 245.4377 439 249.1333 C439.8213 252.4184 441.9178 252.5776 443 256.1333 C445.2273 263.4517 445.1503 264.2028 446 272.1333 C446.6247 277.9641 447.4344 279.6253 446 284.1333 C444.5385 288.7267 441.234 289.6654 439 294.1333 C438.3381 295.4572 438.2699 296.9469 439 298.1333 C444.8129 307.5793 448.758 309.3831 455 320.1333 C457.0271 323.6244 456.7137 324.6953 457 329.1333 C457.69 339.8284 458.7135 342.566 457 351.1333 C456.2835 354.716 453.56 357.8533 451 359.1333 C448.44 360.4133 444.1494 360.897 441 359.1333 C423.4643 349.3134 421.3972 344.3315 401 331.1333 C387.5395 322.4236 386.7657 321.4867 373 315.1333 C368.3616 312.9925 367.016 312.7989 362 313.1333 C353.1067 313.7262 343 317.1333 343 317.1333 "/>
<path id="6" d="M317 271.1333 C317 271.1333 301.6874 246.2944 283 228.1333 C267.6465 213.2123 263.4689 208.4042 246 202.1333 C230.2713 196.4871 216.0875 198.6871 205 200.1333 C203.3552 200.3479 201.0336 204.4124 200 208.1333 C198.8991 212.0964 198.8178 213.7593 200 218.1333 C203.5114 231.1255 203.9253 234.5027 210 245.1333 C212.5466 249.5899 219.5645 250.7816 220 253.1333 C220.799 257.4478 214.3899 266.032 215 272.1333 C215.3892 276.025 218.5252 278.41 223 283.1333 C227.2086 287.5757 229.5544 287.3745 233 291.1333 C233.9868 292.2099 233.821 293.1648 234 295.1333 C234.3062 298.5018 235.2273 300.2924 234 302.1333 C228.3894 310.5492 223.1829 312.4365 216 322.1333 C214.1724 324.6006 214.1942 325.8327 214 329.1333 C213.7288 333.7433 213.4287 335.205 215 339.1333 C216.9339 343.9681 219.1316 348.3821 222 349.1333 C232.515 351.8873 244.9188 354.5106 257 350.1333 C272.1445 344.6462 275.0011 331.244 291 324.1333 C301.4969 319.4681 320 322.1333 320 322.1333 "/>
<path id="7" d="M253 234.1333 C253 234.1333 251.2687 231.4052 250 231.1333 C246.1689 230.3124 241.7971 230.1344 239 231.1333 C237.7831 231.5679 236 235.1684 236 236.1333 C236 236.7123 237.8682 239.0142 239 239.1333 C244.4255 239.7044 255 238.1333 255 238.1333 "/>
<path id="8" d="M263 278.1333 C263 278.1333 251.5428 277.7773 250 278.1333 C249.9178 278.1523 249.6984 279.7763 250 281.1333 C250.6478 284.0484 251.4264 286.9695 252 287.1333 C253.7649 287.6376 264 285.1333 264 285.1333 "/>
<path id="9" d="M272 311.1333 C272 311.1333 266.5625 311.9959 263 314.1333 C259.8334 316.0333 258.5428 317.562 257 320.1333 C256.3572 321.2047 256.85 324.0833 257 324.1333 C258.35 324.5833 264.7968 324.974 269 324.1333 C270.261 323.8811 271.609 322.4367 272 321.1333 C272.7018 318.7939 272.6801 315.6637 272 314.1333 C271.6329 313.3074 268 312.1333 268 312.1333 "/>
<path id="10" d="M262 277.1333 C262 277.1333 265.5167 278.2875 266 279.1333 C266.5639 280.1201 266.676 282.6124 266 284.1333 C265.2189 285.8909 262 288.1333 262 288.1333 "/>
<path id="11" d="M413 223.1333 C413 223.1333 416.8634 218.2404 420 217.1333 C423.4402 215.9191 425.9015 216.5028 430 217.1333 C431.3557 217.3419 432.577 218.2873 433 219.1333 C433.4834 220.1002 433.4625 222.5784 433 223.1333 C432.287 223.9889 430.3957 224.8812 428 225.1333 C421.563 225.8109 415.715 225.3783 414 225.1333 C413.965 225.1283 414 223.1333 414 223.1333 "/>
<path id="12" d="M410 259.1333 C410 259.1333 418.0888 258.042 423 259.1333 C425.2247 259.6277 427.4275 261.7021 428 263.1333 C428.5343 264.4691 427.5266 268.8903 427 269.1333 C425.3234 269.9071 415.5248 269.5532 415 269.1333 C414.8076 268.9794 417 261.1333 417 261.1333 "/>
<path id="13" d="M423 310.1333 C423 310.1333 426.7093 309.8839 429 311.1333 C436.6993 315.3329 445.0115 322.0835 445 322.1333 C444.9899 322.1769 430.3589 325.0809 426 324.1333 C424.7036 323.8515 421.89 318.4537 422 317.1333 C422.0894 316.0605 427 312.1333 427 312.1333 "/>
</g>
</g>
</svg>
