<?xml version="1.0" encoding="utf-8"?>
<!DOCTYPE svg PUBLIC "-//W3C//DTD SVG 1.1//EN" "http://www.w3.org/Graphics/SVG/1.1/DTD/svg11.dtd">
<svg viewBox="0 0 800 800" preserveAspectRatio="xMinYMin meet" xmlns="http://www.w3.org/2000/svg" version="1.1">
<g fill="none" stroke="black" stroke-linecap="round" stroke-linejoin="round" stroke-width="2.7746">
<g transform="translate(87.52,156.1791) scale(1.0812) translate(-2,-19.1333)">
<path id="0" d="M262 114.1333 C262 114.1333 258.1198 124.3128 258 134.1333 C256.6501 244.829 256.9376 247.5274 259 360.1333 C259.4295 383.586 260.0047 397.149 263 407.1333 C263.3915 408.4383 270.3802 407.9615 274 410.1333 C276.1492 411.4229 276.4076 414.7684 278 416.1333 C278.5225 416.5812 280.0486 416.6091 281 416.1333 C283.22 415.0233 285.8675 413.5911 286 412.1333 C287.5172 395.4436 284.9268 386.5328 286 361.1333 C287.9203 315.6865 290.2631 315.5828 292 270.1333 C293.2566 237.2528 293.788 236.8275 292 204.1333 C290.31 173.231 289.5268 172.7761 285 142.1333 C283.0692 129.0631 282.6535 125.2671 279 116.1333 C278.1767 114.075 275.7706 112.9249 273 112.1333 C269.8969 111.2467 265 112.1333 265 112.1333 "/>
<path id="1" d="M278 114.1333 C278 114.1333 286.568 101.3189 293 88.1333 C296.3667 81.2317 296.4796 80.4311 298 73.1333 C298.853 69.039 298 64.1333 298 64.1333 "/>
<path id="2" d="M261 114.1333 C261 114.1333 253.6269 113.2179 249 110.1333 C241.3235 105.0157 239.5911 103.6692 234 96.1333 C228.8969 89.2553 228.7834 87.4835 226 79.1333 C224.5375 74.746 225 69.1333 225 69.1333 "/>
<path id="3" d="M290 158.1333 C290 158.1333 293.9695 147.5757 296 137.1333 C297.3918 129.9754 294.2045 126.7259 297 122.1333 C305.4954 108.1765 309.8323 105.8257 324 91.1333 C336.6773 77.9865 336.8764 77.6676 351 66.1333 C366.6676 53.3382 366.892 51.0488 384 42.1333 C400.8326 33.3614 403.9872 30.5808 422 29.1333 C455.9907 26.4019 459.6648 28.8753 496 33.1333 C522.9769 36.2947 531.6634 35.0906 550 44.1333 C559.6671 48.9006 561.2075 56.3537 569 69.1333 C573.1872 76.0003 572.7129 77.0245 575 85.1333 C578.1556 96.3212 579.003 96.7674 580 108.1333 C581.4463 124.6207 583.9942 127.28 580 142.1333 C569.0037 183.0258 566.1917 186.45 548 227.1333 C539.1551 246.9138 538.9777 253.6685 525 265.1333 C500.5615 285.1784 490.1636 287.2381 459 300.1333 C450.7084 303.5643 438.8219 300.1664 438 301.1333 C437.3198 301.9336 439.0314 311.2276 442 320.1333 C444.8713 328.7471 447.7728 328.503 450 337.1333 C455.4982 358.439 452.9427 359.9777 458 382.1333 C463.3965 405.7752 465.9487 406.2082 471 429.1333 C472.2156 434.6503 472.4202 436.4669 471 441.1333 C469.446 446.2393 467.744 450.2613 464 452.1333 C453.5169 457.3749 448.4304 457.96 433 460.1333 C413.6528 462.8583 412.6467 461.7153 393 462.1333 C389.5759 462.2062 388.7302 462.4984 386 461.1333 C377.8093 457.038 375.232 456.732 369 450.1333 C359.5432 440.1202 359.6226 437.9394 352 425.1333 C347.2766 417.1979 347.2112 416.8638 344 408.1333 C331.307 373.6241 330.259 373.1556 320 338.1333 C315.9427 324.2824 317.9708 318.6399 315 309.1333 C314.5565 307.7141 312.182 306.2892 310 306.1333 C300.4052 305.448 293.5602 307.6581 287 307.1333 C286.3589 307.082 285 304.1333 285 304.1333 "/>
<path id="4" d="M256 151.1333 C256 151.1333 255.5896 142.8041 252 138.1333 C217.2268 92.8863 213.7434 83.8767 173 43.1333 C159.4189 29.5522 154.3445 30.9387 136 22.1333 C130.3735 19.4326 129.3359 19.435 123 19.1333 C109.0426 18.4687 104.3736 15.757 94 20.1333 C77.7923 26.971 75.7313 32.4441 59 46.1333 C48.4315 54.7803 47.9721 54.9807 39 65.1333 C29.2371 76.1808 27.9389 76.5172 21 89.1333 C11.9426 105.6013 12.2442 107.058 6 125.1333 C2.9096 134.0792 2.8353 134.7363 2 144.1333 C0.87796 156.7562 1.2433 157.2703 2 170.1333 C2.7327 182.589 2.281 183.092 5 195.1333 C9.181 213.6491 8.314 215.2669 16 232.1333 C25.7678 253.5683 29.1696 265.7087 41 274.1333 C50.6008 280.9702 61.5775 278.1122 82 279.1333 C111.2104 280.5939 128.3456 277.8886 141 279.1333 C141.5555 279.188 141.5294 283.0325 143 285.1333 C144.4904 287.2625 148.0566 288.1996 148 289.1333 C147.5496 296.5646 146.7513 305.0012 141 318.1333 C117.4659 371.8695 110.9716 373.6269 88 426.1333 C84.2681 434.6634 83.3342 441.4389 85 446.1333 C86.4047 450.092 91.5609 453.4138 99 457.1333 C113.4967 464.3817 115.337 466.0482 131 469.1333 C146.587 472.2035 150.0723 471.1996 165 470.1333 C168.6455 469.8729 170.1656 468.8445 173 466.1333 C180.7216 458.7474 181.7053 457.6769 188 448.1333 C196.9259 434.6005 197.4983 433.9571 204 419.1333 C209.7669 405.9847 209.4877 405.1826 213 391.1333 C215.4093 381.4962 212.9751 380.3455 216 371.1333 C223.6741 347.7621 226.5549 347.4579 235 324.1333 C236.8377 319.0579 235.1182 315.2839 237 313.1333 C239.2876 310.5189 243.2219 309.3371 249 308.1333 C254.3166 307.0257 261 308.1333 261 308.1333 "/>
<path id="5" d="M80 118.1333 C80 118.1333 77.4248 118.397 77 119.1333 C72.034 127.7411 68.0261 132.0288 65 144.1333 C62.0549 155.9136 62.1326 165.7009 64 171.1333 C64.6392 172.993 70.2431 174.6184 76 176.1333 C79.0264 176.9297 79.8949 176.9553 83 176.1333 C96.0337 172.6832 105.5316 170.7743 110 167.1333 C111.3786 166.01 111.7496 159.382 110 154.1333 C105.9177 141.8864 103.7643 140.8661 97 128.1333 C95.3298 124.9894 94.8494 122.9964 93 122.1333 C89.8814 120.678 83.5598 121.5587 82 121.1333 C81.9245 121.1127 82 119.1333 82 119.1333 "/>
<path id="6" d="M486 110.1333 C486 110.1333 484.1657 121.5543 486 131.1333 C488.4216 143.7792 491.112 153.3893 495 157.1333 C497.0561 159.1133 506.8287 158.6762 513 157.1333 C515.5714 156.4905 518.5599 153.627 519 151.1333 C520.7456 141.2416 520.855 135.1907 519 123.1333 C518.2101 117.999 515.5722 113.1622 513 112.1333 C506.9653 109.7194 489 111.1333 489 111.1333 "/>
<path id="7" d="M135 433.1333 C135 433.1333 136.7663 455.9068 139 459.1333 C139.7525 460.2203 152.2556 460.0763 153 459.1333 C154.3329 457.445 155.5459 444.9641 154 440.1333 C153.2651 437.8369 149.6184 436.2116 145 434.1333 C140.125 431.9396 134 431.1333 134 431.1333 "/>
<path id="8" d="M391 423.1333 C391 423.1333 390.4365 429.1529 392 431.1333 C395.9229 436.1023 399.7777 439.0222 406 442.1333 C408.5527 443.4097 413.6989 442.6352 414 442.1333 C414.9786 440.5024 414.6255 434.6229 415 427.1333 C415.1244 424.6451 415.5705 422.7038 415 422.1333 C413.7449 420.8783 410.8748 419.7451 407 419.1333 C401.97 418.3391 400.583 418.274 396 419.1333 C393.6825 419.5679 391 422.1333 391 422.1333 "/>
</g>
</g>
</svg>
