<?xml version="1.0" encoding="utf-8"?>
<!DOCTYPE svg PUBLIC "-//W3C//DTD SVG 1.1//EN" "http://www.w3.org/Graphics/SVG/1.1/DTD/svg11.dtd">
<svg viewBox="0 0 800 800" preserveAspectRatio="xMinYMin meet" xmlns="http://www.w3.org/2000/svg" version="1.1">
<g fill="none" stroke="black" stroke-linecap="round" stroke-linejoin="round" stroke-width="0.86886">
<g transform="translate(135.8594,87.52) scale(3.4528) translate(-170,-66)">
<path id="0" d="M254 119 C254 119 206.7169 99.1965 191 99 C186.8347 98.9479 178.6982 108.6037 174 118 C169.7289 126.5421 170 130.6187 170 141 C170 147.3191 171.0434 149.0868 174 155 C176.587 160.1741 177.3305 161.0551 182 165 C205.548 184.894 230.1703 200.0695 232 204 C232.2437 204.5234 216.3053 214.2336 209 223 C206.5755 225.9094 206.1617 229.9762 207 234 C208.1452 239.497 211.058 245.4702 214 247 C217.8485 249.0012 226.9244 249.2753 232 247 C236.745 244.8729 237.2724 238.2335 243 234 C247.1568 230.9276 255 230 255 230 "/>
<path id="1" d="M253 109 C253 109 249.9495 153.9386 252 197 C252.8937 215.768 254.4709 217.6383 259 235 C260.0581 239.0561 263.9903 243.025 264 243 C264.0431 242.8893 263.4445 229.3845 266 217 C269.7995 198.5871 273.838 198.1097 277 180 C279.1123 167.9023 277.6572 166.8156 277 154 C276.6688 147.5417 277.3576 146.501 275 141 C268.8995 126.7655 259 112 259 112 "/>
<path id="2" d="M271 133 C271 133 286.4029 108.7622 298 100 C302.1882 96.8356 311.4476 97.3611 316 99 C318.7356 99.9848 322.2115 104.4942 323 109 C325.1074 121.0422 324.5247 124.5156 323 139 C321.5957 152.3409 320.8736 153.0879 317 166 C315.0094 172.6354 314.096 172.55 311 179 C308.0989 185.0439 308.7471 185.8724 305 191 C299.6257 198.3543 291.6372 203.1404 292 205 C292.9843 210.0446 304.1065 218.3177 313 232 C316.5552 237.4695 318.2986 244.6554 318 245 C317.3936 245.6997 307.839 247.9222 300 247 C292.6282 246.1327 291.4495 244.7248 284 241 C275.7663 236.8832 268 231 268 231 "/>
<path id="3" d="M249 113 C249 113 249.8515 109.7029 249 108 C244.7427 99.4854 243.4376 98.0711 237 89 C232.5322 82.7045 232.5975 81.7683 227 77 C219.7006 70.782 210 66 210 66 "/>
<path id="4" d="M253 112 C253 112 262.7495 86.3663 272 70 C273.3956 67.5309 279 66 279 66 "/>
</g>
</g>
</svg>
