<?xml version="1.0" encoding="utf-8"?>
<!DOCTYPE svg PUBLIC "-//W3C//DTD SVG 1.1//EN" "http://www.w3.org/Graphics/SVG/1.1/DTD/svg11.dtd">
<svg viewBox="0 0 800 800" preserveAspectRatio="xMinYMin meet" xmlns="http://www.w3.org/2000/svg" version="1.1">
<g fill="none" stroke="black" stroke-linecap="round" stroke-linejoin="round" stroke-width="1.3585">
<g transform="translate(104.0825,87.52) scale(2.2083) translate(-104,-98)">
<path id="0" d="M246 229 C246 229 243.2466 219.5291 244 213 C244.5053 208.6207 247.1124 205.0973 249 203 C249.4686 202.4793 251.9286 202.3572 253 203 C255.5714 204.5428 257.3445 205.8729 259 209 C261.2711 213.2898 262 214.7411 262 220 C262 263.9837 262.4839 283.5478 259 312 C258.7321 314.1877 251.2375 317.6625 250 318 C249.8625 318.0375 248.0426 316.2937 248 315 C246.7754 277.8536 248.3398 269.4284 247 227 C246.8925 223.5958 245 220 245 220 "/>
<path id="1" d="M251 203 C251 203 245.2383 199.7861 244 197 C242.3087 193.1946 242.0844 187.9299 243 185 C243.4602 183.5272 246.4706 181.542 249 181 C251.8719 180.3846 255.015 180.5113 257 182 C260.6864 184.7648 262.8985 188.009 265 193 C266.1701 195.7789 266.0672 198.3319 265 201 C263.746 204.135 259 208 259 208 "/>
<path id="2" d="M264 186 C264 186 263.7717 168.6037 267 153 C269.5794 140.5331 270.4918 139.5962 276 128 C279.716 120.1768 280.2961 119.5814 286 113 C292.9571 104.9726 295.479 102.8908 302 98 C302.9572 97.2821 305.3661 97.4453 306 98 C307.6045 99.404 309.3271 101.6354 310 105 C311.5701 112.8506 311.6716 120.4478 311 123 C310.9023 123.3711 306.8079 124.226 305 124 C304.3076 123.9135 303.3722 123.0234 303 122 C301.6726 118.3497 300.7696 115.9956 301 113 C301.1102 111.5673 304 109 304 109 "/>
<path id="3" d="M251 183 C251 183 241.4319 151.3264 229 125 C225.4249 117.4293 223.3693 116.5008 217 111 C213.2145 107.7307 211.2347 107.1293 207 106 C205.2314 105.5284 203.0834 106.052 202 107 C200.4786 108.3312 199.1397 110.486 199 113 C198.7307 117.8469 198.7947 120.7899 201 125 C203.318 129.4252 206.143 131.6858 210 134 C211.6071 134.9643 215.5891 134.4696 216 134 C216.6946 133.2061 217.5937 128.375 217 126 C216.6169 124.4678 213 122 213 122 "/>
<path id="4" d="M262 211 C262 211 267.6274 209.2815 271 206 C285.1479 192.2345 284.592 190.0211 299 175 C308.0209 165.5952 308.0881 164.7437 318 157 C323.5368 152.6744 325.9515 153.7864 331 150 C332.8673 148.5996 332.172 146.1127 334 145 C341.7063 140.3092 344.4707 138.7666 354 136 C358.6355 134.6542 360.7163 135.1433 365 136 C366.7913 136.3583 367.8132 137.3046 369 139 C370.862 141.66 371.9145 142.8375 372 146 C372.3615 159.3743 373.6173 162.8874 370 176 C366.2276 189.675 364.975 192.3657 356 204 C339.147 225.8465 336.4034 228.3632 316 246 C308.8393 252.1897 297.0001 254.9999 297 255 C297 255 299.4266 253.7133 300 254 C302.2937 255.1468 303.2559 258.1973 307 260 C315.8485 264.2604 317.5251 262.6574 327 267 C341.2378 273.5257 346.1314 273.1314 355 282 C363.0436 290.0436 362.3513 294.9374 368 308 C370.1967 313.0799 370.4601 313.6013 371 319 C371.9077 328.0774 372.8515 329.8997 371 338 C369.2626 345.6009 367.8763 348.6804 363 354 C358.6462 358.7496 356.1463 359.0429 349 362 C342.1242 364.8452 341.2512 365.3602 334 366 C325.068 366.7881 323.8992 366.618 315 365 C308.0831 363.7424 307.3733 363.2894 301 360 C292.2832 355.501 291.4799 355.3579 284 349 C271.9214 338.7332 268.7928 337.0897 261 326 C257.7947 321.4386 258 312 258 312 "/>
<path id="5" d="M245 215 C245 215 232.9326 196.8643 218 185 C197.953 169.0723 194.5116 166.4786 172 157 C159.6576 151.8032 154.6532 152.4115 142 153 C136.3643 153.2621 132.0044 155.2802 129 159 C124.1817 164.9655 123.268 169.361 121 179 C119.549 185.1669 119.3372 187.2726 121 193 C123.3294 201.0236 124.2334 203.1712 130 210 C142.3041 224.5706 143.582 226.5018 159 238 C171.961 247.6658 173.8113 247.9245 189 254 C200.4332 258.5733 213.992 259.9626 214 260 C214.0023 260.0108 202.5253 263.1833 192 268 C173.2574 276.5771 172.7001 276.5541 155 287 C142.5058 294.3736 141.923 294.6755 131 304 C121.8202 311.8364 120.8012 312.4279 114 322 C107.8712 330.6258 107.4633 332.6491 104 342 C102.9772 344.7614 102.9402 346.3505 104 349 C107.3308 357.327 108.0889 359.5468 114 367 C118.8578 373.1251 120.4183 374.1607 127 378 C131.3219 380.5211 132.8273 381 138 381 C154.9289 381 156.4813 380.5954 174 378 C183.0086 376.6654 183.9598 376.7109 192 373 C202.6899 368.0662 203.9063 367.5781 213 360 C224.2362 350.6365 224.9249 349.668 234 338 C242.0229 327.6848 248 315 248 315 "/>
<path id="6" d="M166 182 C166 182 167.5102 173.1225 167 172 C166.8008 171.5617 162.094 170.453 161 171 C159.6076 171.6962 157.2775 174.6415 157 177 C156.5384 180.9237 157.4299 183.2896 159 188 C159.6729 190.0187 161.3158 191.9378 162 192 C163.5718 192.1429 169.5712 189.9291 170 189 C170.5816 187.7399 169.4525 181.4901 168 179 C167.3605 177.9036 163 177 163 177 "/>
<path id="7" d="M205 199 C205 199 199.3439 199.4268 199 200 C198.3271 201.1215 197.9464 205.6284 199 209 C200.0024 212.2077 201.9234 214.5464 204 216 C205.0488 216.7342 208.4295 216.5705 209 216 C210.2551 214.7449 211.2249 211.8756 212 208 C212.6309 204.8455 212.7018 203.3394 212 201 C211.609 199.6966 210.0664 198.2666 209 198 C207.6493 197.6623 204 199 204 199 "/>
<path id="8" d="M223 237 C223 237 219.1076 235.8924 219 236 C218.8207 236.1793 218.4203 238.7779 219 241 C221.2683 249.6953 221.6379 252.5815 225 259 C225.8935 260.7058 229.8443 262.1246 230 262 C230.8265 261.3388 234.4562 255.8939 235 251 C235.7425 244.3179 234.6278 241.1858 233 235 C232.6267 233.5816 231.092 232.2427 230 232 C228.2792 231.6176 224 233 224 233 "/>
<path id="9" d="M208 310 C208 310 206 308 206 308 C205.753 308.247 203.3066 311.7804 203 315 C202.4148 321.1447 202.5411 323.4562 204 329 C204.6191 331.3525 206.2847 333.2203 208 334 C209.9142 334.8701 213.4697 334.6801 215 334 C215.8259 333.6329 217 331.7029 217 330 C217 321.4854 216.7786 318.8928 215 310 C214.5118 307.5588 213.2659 305.7033 212 305 C210.6855 304.2697 206 305 206 305 "/>
<path id="10" d="M227 271 C227 271 223.4039 273.2227 223 275 C221.5003 281.5989 221.1277 286.312 222 293 C222.2696 295.0666 224.0844 297.0422 226 298 C228.5051 299.2525 232.3377 299.6045 234 299 C235.0488 298.6186 236.6877 296.2903 237 294 C237.9815 286.802 238.3383 282.8885 237 277 C236.5169 274.8745 233.3392 272.0837 232 272 C229.29 271.8306 221 276 221 276 "/>
<path id="11" d="M190 280 C190 280 186.9911 293.359 188 298 C188.3746 299.7231 192.1586 302.1257 195 303 C196.8942 303.5828 199.498 302.9388 201 302 C202.0203 301.3623 202.6929 299.9448 203 298 C204.0785 291.1696 205.3088 285.9085 204 283 C203.1454 281.101 197.981 278.7025 194 278 C191.5684 277.5709 187 280 187 280 "/>
<path id="12" d="M178 305 C178 305 162.2766 303.174 161 304 C160.3938 304.3922 159.6701 311.3454 161 316 C162.1874 320.1559 164.5019 323.2706 167 325 C168.4297 325.9898 171.8273 325.9053 174 325 C176.1986 324.0839 178.2171 322.1923 179 320 C180.0384 317.0924 179.3535 315.2426 179 311 C178.8789 309.5465 178.4182 308.1792 178 308 C176.9023 307.5295 172 308 172 308 "/>
<path id="13" d="M142 328 C142 328 138.1234 330.0746 138 331 C137.5903 334.0731 138.4573 340.6002 140 343 C140.7548 344.1741 145.3909 345.4951 147 345 C148.9775 344.3915 152.2939 341.5892 153 339 C154.4795 333.5751 153.4706 324.8824 153 323 C152.9706 322.8824 149.5236 322.4764 149 323 C147.4292 324.5708 145 331 145 331 "/>
<path id="14" d="M188 339 C188 339 183.309 340.1966 183 341 C182.1336 343.2527 182.4193 346.7741 183 352 C183.3812 355.4311 183.4567 356.5749 185 359 C186.3398 361.1053 187.7444 362.0978 190 363 C191.7088 363.6835 193.9691 363.6443 195 363 C196.2628 362.2107 197.6153 360.308 198 358 C198.9092 352.5448 199.5033 349.7246 198 345 C196.7017 340.9197 193.0392 337.098 191 336 C190.1525 335.5437 185 338 185 338 "/>
<path id="15" d="M154 353 C154 353 158.526 364.0784 162 369 C162.6136 369.8693 164.3594 370.1641 166 370 C168.6082 369.7392 171.3471 369.1606 172 368 C173.9054 364.6126 175.4567 359.0238 175 354 C174.7187 350.9059 171.9797 347.7597 170 346 C169.3462 345.4188 167.4467 345.4213 166 346 C163.2512 347.0995 160.6668 348.333 160 350 C158.854 352.8651 160.2307 360.5848 160 361 C159.9837 361.0294 155 359 155 359 "/>
<path id="16" d="M128 346 C128 346 126.4416 350.6498 127 354 C127.7603 358.562 130.1098 362.8554 131 364 C131.0905 364.1164 133.8687 363.4267 134 363 C134.8402 360.2693 135.9815 354.3373 135 351 C134.4328 349.0714 129 346 129 346 "/>
<path id="17" d="M171 225 C171 225 171.2933 216.1778 172 215 C172.2 214.6667 175.9535 214.2389 177 215 C179.4735 216.7989 181.8493 219.356 183 223 C184.2793 227.051 183.8095 231.3692 183 234 C182.7623 234.7727 179.8529 236.1895 179 236 C177.5874 235.6861 175.0133 234.0265 174 232 C172.2853 228.5705 172 222 172 222 "/>
<path id="18" d="M144 204 C144 204 145.0687 193.0244 146 192 C146.4228 191.535 152.3985 191.6273 154 193 C156.7896 195.3911 158.9248 199.0542 160 204 C161.0296 208.736 160.0799 214.4401 159 216 C158.4437 216.8036 151.7349 217.6784 151 217 C149.2346 215.3704 148.2845 207.9979 146 204 C145.609 203.3157 143 203 143 203 "/>
<path id="19" d="M286 215 C286 215 289.1905 202.4317 290 202 C290.617 201.6709 297.3557 204.1366 301 207 C302.8832 208.4797 303.8377 210.566 304 213 C304.2321 216.4809 303.4258 220.0395 302 222 C301.1321 223.1933 297.9657 224.1787 296 224 C294.2186 223.8381 292.4592 222.8571 291 221 C287.6905 216.7879 285 210 285 210 "/>
<path id="20" d="M322 194 C322 194 319.3852 191.7978 319 190 C318.1702 186.1278 318.1093 181.3361 319 180 C319.6532 179.0202 326.124 177.489 327 178 C328.1858 178.6917 330.0412 182.6856 331 187 C331.8726 190.9266 331.8193 194.4979 331 196 C330.52 196.88 326.1465 198.2548 325 198 C324.1975 197.8217 322 194 322 194 "/>
<path id="21" d="M349 170 C349 170 343.9219 167.151 343 165 C341.9042 162.4431 342.2433 158.0811 343 156 C343.2905 155.2012 346.5604 153.7602 347 154 C348.7172 154.9366 352.4403 158.435 354 162 C355.1279 164.5781 354.5197 168.4408 354 170 C353.8701 170.3898 351 171 351 171 "/>
<path id="22" d="M279 267 C279 267 280.5309 258.2468 283 253 C283.759 251.3871 285.8766 250 287 250 C288.966 250 293.4593 251.7641 294 253 C295.1594 255.6501 295.1932 264.5315 294 266 C292.7552 267.5321 283.6605 269.3326 281 269 C280.2361 268.9045 278 264 278 264 "/>
<path id="23" d="M332 306 C332 306 326.33 305.776 323 304 C319.9567 302.3769 318.0551 300.6379 317 298 C315.8695 295.1737 316.2286 292.0856 317 289 C317.3214 287.7143 318.3698 287.2227 320 286 C322.2512 284.3116 322.9186 283.3784 325 283 C327.1838 282.6029 329.9351 282.8532 331 284 C334.1599 287.4029 335.9667 290.9001 338 297 C339.0609 300.1826 339.1028 303.0702 338 305 C336.5428 307.5502 332.7365 309.7561 330 311 C329.3507 311.2952 327 310 327 310 "/>
<path id="24" d="M316 340 C316 340 314.8811 331.3146 316 326 C316.4669 323.7823 318.6802 321.2475 320 321 C323.1074 320.4174 330.8213 321.6399 332 323 C333.3181 324.5209 333.6852 332.3456 333 336 C332.7995 337.0696 330.6442 338.7945 329 339 C324.5373 339.5578 317 338 317 338 "/>
<path id="25" d="M355 335 C355 335 350.1765 331.1374 349 328 C347.8553 324.9474 348.136 321.592 349 319 C349.416 317.752 351.9528 316 353 316 C354.5708 316 358.3011 317.6021 359 319 C360.3396 321.6792 360.7252 326.1324 360 330 C359.6144 332.0568 358.1584 333.1114 356 335 C354.5181 336.2967 352.8662 337 352 337 C351.5669 337 350 335 350 335 "/>
<path id="26" d="M279 317 C279 317 286.7259 318.3302 293 318 C295.2966 317.8791 296.4583 317.349 298 316 C299.6845 314.5261 300.5014 313.3268 301 311 C301.7952 307.2888 301.7714 305.0856 301 302 C300.6786 300.7143 298.9529 299.0794 298 299 C295.41 298.7842 291.2615 299.2231 289 301 C286.4176 303.029 285.3203 305.775 284 310 C283.125 312.8 283.2982 314.6606 284 317 C284.391 318.3034 287 320 287 320 "/>
<path id="27" d="M273 296 C273 296 275.3107 282.4571 277 280 C277.4336 279.3693 281.3613 279.2803 284 280 C285.8163 280.4953 287.141 281.4252 288 283 C289.507 285.7628 290.369 288.0479 290 291 C289.5953 294.2378 287.2937 298.5434 286 299 C283.6692 299.8227 273 297 273 297 "/>
<path id="28" d="M309 282 C309 282 305.3559 279.5423 305 278 C304.366 275.2529 305.4531 269.625 306 269 C306.2354 268.731 310.7541 269.0655 312 270 C313.0614 270.796 313.8138 272.7653 314 275 C314.2493 277.9917 313.6572 281.425 313 282 C312.3543 282.5649 306 282 306 282 "/>
<path id="29" d="M331 211 C331 211 331.2895 208.2895 331 208 C330.5175 207.5175 327.8028 206.5986 327 207 C324.9357 208.0322 321.9281 210.3705 321 213 C319.7424 216.5632 320.533 221.198 321 224 C321.0566 224.3396 322.5157 225.0969 323 225 C323.9147 224.8171 325.8489 223.7553 326 223 C326.7553 219.2233 326.3728 210.8948 326 210 C325.9689 209.9254 321 211 321 211 "/>
<path id="30" d="M287 237 C287 237 290.6928 246.0493 292 247 C292.4842 247.3521 297.4644 245.9946 298 245 C299.1814 242.8059 299.7266 235.3494 299 234 C298.5619 233.1864 291.7484 231.7505 291 232 C290.7279 232.0907 290 237 290 237 "/>
<path id="31" d="M310 186 C310 186 310.6501 203.067 311 204 C311.0024 204.0063 315.7414 202.7758 316 202 C316.9168 199.2495 316.6183 190.3396 316 189 C315.8683 188.7146 310 189 310 189 "/>
</g>
</g>
</svg>
