<?xml version="1.0" encoding="utf-8"?>
<!DOCTYPE svg PUBLIC "-//W3C//DTD SVG 1.1//EN" "http://www.w3.org/Graphics/SVG/1.1/DTD/svg11.dtd">
<svg viewBox="0 0 800 800" preserveAspectRatio="xMinYMin meet" xmlns="http://www.w3.org/2000/svg" version="1.1">
<g fill="none" stroke="black" stroke-linecap="round" stroke-linejoin="round" stroke-width="1.0849">
<g transform="translate(87.52,88.9027) scale(2.7653) translate(-168,-4.4167)">
<path id="0" d="M265 96.4167 C265 96.4167 263.1288 151.7559 264 201.4167 C264.0751 205.6989 264.9295 206.7933 267 210.4167 C268.5184 213.0738 269.8143 214.6881 272 215.4167 C275.2785 216.5095 280.7981 215.6571 282 215.4167 C282.0481 215.4071 282 213.4167 282 213.4167 "/>
<path id="1" d="M270 95.4167 C270 95.4167 271.4746 127.1315 276 157.4167 C277.874 169.958 281.5444 170.148 283 182.4167 C284.916 198.5656 284.451 205.3891 283 216.4167 C282.8012 217.9274 280.0613 220.0529 278 220.4167 C273.7286 221.1704 266 219.4167 266 219.4167 "/>
<path id="2" d="M270 98.4167 C270 98.4167 327.6577 91.7656 362 93.4167 C366.6711 93.6412 371.4483 99.1638 374 103.4167 C375.4836 105.8893 374.8298 109.5445 374 113.4167 C373.6148 115.2145 372.6251 115.5594 371 117.4167 C369.1602 119.5193 369.1217 120.3558 367 121.4167 C362.9334 123.45 360.6477 122.228 357 124.4167 C354.3415 126.0118 352.7447 127.7358 352 130.4167 C350.7906 134.7706 350.1571 138.7308 352 142.4167 C355.5323 149.4812 361.9617 151.4938 366 158.4167 C367.3368 160.7084 366.8222 164.1556 366 166.4167 C365.5422 167.6756 364.0784 168.1177 362 169.4167 C360.1427 170.5775 359.8241 171.3515 358 171.4167 C334.7022 172.2487 328.5834 172.9477 306 171.4167 C302.8422 171.2026 302.2635 168.01 299 167.4167 C292.665 166.2649 284 167.4167 284 167.4167 C284 167.4167 335.7117 166.5205 385 167.4167 C389.4098 167.4968 393.5402 168.5545 394 169.4167 C394.843 170.9973 394.9587 179.8459 393 182.4167 C390.2347 186.0461 384.6323 185.8029 378 190.4167 C373.6252 193.46 371.2999 194.6471 370 198.4167 C367.3795 206.0162 369.7669 210.5823 368 219.4167 C367.6202 221.3156 366.7599 222.2434 365 223.4167 C360.0308 226.7295 358.4248 229.1644 353 229.4167 C320.3484 230.9354 279 227.4167 279 227.4167 "/>
<path id="3" d="M259 96.4167 C259 96.4167 231.1098 94.3242 206 96.4167 C196.7615 97.1865 194.6395 98.0182 187 102.4167 C179.6904 106.6252 176.1839 109.4735 173 115.4167 C170.5871 119.9207 170.9741 124.5178 172 130.4167 C172.6137 133.9456 174.0317 135.4483 177 138.4167 C180.425 141.8417 181.648 143.3287 186 144.4167 C195.7402 146.8517 206.574 144.729 209 146.4167 C209.9687 147.0905 209.9195 154.8999 209 160.4167 C208.7045 162.1899 207.7546 162.9811 206 164.4167 C202.618 167.1838 202.0448 167.8437 198 169.4167 C193.6162 171.1215 189.665 170.7507 188 171.4167 C187.8767 171.466 188 173.4167 188 173.4167 C198.7557 173.4167 277.1349 171.4067 278 171.4167 C278.0285 171.417 276.5104 173.9132 275 174.4167 C268.9585 176.4305 267.3919 177.1993 260 177.4167 C217.3775 178.6703 197.1998 175.5552 173 177.4167 C171.7376 177.5138 169.7352 181.0347 169 184.4167 C167.4849 191.3862 166.082 195.6216 168 200.4167 C170.3607 206.3183 175.0917 211.7311 181 214.4167 C187.2412 217.2536 195.2539 213.9177 201 215.4167 C202.2207 215.7351 202.9393 220.2752 204 220.4167 C216.1889 222.0419 225.2094 222.0107 246 221.4167 C259.9123 221.0192 274 218.4167 274 218.4167 "/>
<path id="4" d="M268 95.4167 C268 95.4167 265.4808 92.8205 265 90.4167 C263.6951 83.892 263.9823 75.4314 264 75.4167 C264.0021 75.415 269.1237 80.8598 271 85.4167 C272.0196 87.8928 271 92.4167 271 92.4167 "/>
<path id="5" d="M271 75.4167 C271 75.4167 281.6467 68.5228 291 60.4167 C303.9812 49.1663 304.3065 48.9658 316 36.4167 C324.6311 27.1541 324.9237 26.7095 332 16.4167 C335.6808 11.0627 338 4.4167 338 4.4167 "/>
<path id="6" d="M243 47.4167 C243 47.4167 259.1546 61.7014 270 74.4167 C271.8873 76.6293 272 80.1894 272 81.4167 C272 81.592 270 82.4167 270 82.4167 "/>
</g>
</g>
</svg>
