<?xml version="1.0" encoding="utf-8"?>
<!DOCTYPE svg PUBLIC "-//W3C//DTD SVG 1.1//EN" "http://www.w3.org/Graphics/SVG/1.1/DTD/svg11.dtd">
<svg viewBox="0 0 800 800" preserveAspectRatio="xMinYMin meet" xmlns="http://www.w3.org/2000/svg" version="1.1">
<g fill="none" stroke="black" stroke-linecap="round" stroke-linejoin="round" stroke-width="1.7665">
<g transform="translate(87.52,150.3557) scale(1.6983) translate(-89,-76)">
<path id="0" d="M232 142 C232 142 236.5428 138.7758 238 139 C240.0442 139.3145 243.2131 144 245 144 C247.2975 144 254 139 254 139 "/>
<path id="1" d="M254 139 C254 139 261.4635 145.1806 264 150 C265.2477 152.3707 265.2175 155.4298 264 158 C261.6772 162.9037 255 169 255 169 "/>
<path id="2" d="M233 143 C233 143 230.5076 142.577 230 143 C228.7873 144.0105 227.7763 145.6711 227 148 C226.4825 149.5526 226.4172 150.8343 227 152 C227.8743 153.7485 231 156 231 156 "/>
<path id="3" d="M230 148 C230 148 226.9017 156.3153 228 159 C229.6719 163.087 239 170 239 170 "/>
<path id="4" d="M262 146 C262 146 262.709 134.3244 266 125 C268.3235 118.4167 269.4227 117.7819 274 112 C278.6661 106.106 278.9287 104.702 285 101 C298.213 92.9433 300.2231 93.333 315 87 C317.2283 86.045 319.6797 85.8719 320 86 C320.0836 86.0334 320 89 320 89 "/>
<path id="5" d="M229 151 C229 151 232.6572 134.1306 229 123 C222.5272 103.3 217.056 97.4057 206 81 C204.1943 78.3205 198 77 198 77 "/>
<path id="6" d="M201 79 C201 79 196.9995 78.0009 197 78 C197.0016 77.9968 201.978 76.9559 202 77 C202.0881 77.1763 200.0005 84.0001 200 84 C199.9916 83.9979 197.9665 76.1006 198 76 C198.003 75.9909 201.7 77.6 202 78 C202.075 78.1 201 80 201 80 "/>
<path id="7" d="M200 82 L208 85 "/>
<path id="8" d="M320 87 C320 87 319.3604 88.9199 319 89 C317.0041 89.4435 311 89 311 89 "/>
<path id="9" d="M319 89 L312 90 "/>
<path id="10" d="M321 87 C321 87 319.8038 89.7588 319 90 C316.7825 90.6653 311 90 311 90 "/>
<path id="11" d="M257 172 C257 172 282.1671 156.5225 303 141 C306.08 138.7051 305.0754 135.7547 308 134 C318.0453 127.9728 321.0126 129.2885 333 123 C351.3164 113.3914 350.6206 111.3311 369 102 C382.8224 94.9825 383.3091 94.8126 398 90 C411.9602 85.4268 412.7584 85.6235 427 83 C431.2317 82.2205 433.2482 81.7961 436 83 C439.0766 84.346 440.8589 86.2119 443 90 C446.7894 96.7043 448.013 98.2683 449 106 C450.825 120.2958 446.7937 122.9349 449 137 C450.5127 146.6436 455.624 147.3677 457 157 C459.343 173.4009 459.2175 177.1606 457 193 C456.0773 199.5909 451.5017 200.3495 450 207 C448.3615 214.2563 451.0922 216.0812 450 224 C449.1936 229.8467 448.7478 230.5043 446 236 C438.4435 251.1131 437.3421 253.4868 429 266 C427.7218 267.9173 426.0695 268.9138 424 269 C416.3612 269.3183 405.9038 266.6279 405 267 C404.9152 267.0349 405.1058 273.6686 407 276 C409.8414 279.4971 413.6548 278.8721 418 283 C423.0222 287.7711 425.3614 289.5381 427 295 C429.0064 301.6881 429.1946 307.0148 427 313 C425.0452 318.3312 420.2252 324.4366 416 325 C394.6283 327.8496 382.1165 327.7973 352 323 C327.8629 319.1552 323.2438 316.6241 303 307 C296.4983 303.909 294.6434 300.9701 291 294 C284.0525 280.7092 286.4801 277.3243 280 263 C277.3668 257.1793 276.2181 255.9369 272 252 C269.737 249.8879 265 249 265 249 "/>
<path id="12" d="M240 173 C240 173 213.929 166.0367 189 157 C174.2039 151.6364 174.4716 148.7254 160 144 C150.8675 141.018 149.477 143.5846 140 141 C127.9571 137.7156 117.9809 130.7101 116 132 C111.2941 135.0643 105.54 150.2778 97 169 C92.6628 178.5086 91.3059 179.2057 90 189 C87.4963 207.7777 87.7562 209.721 89 229 C89.6952 239.7763 90.3536 243.7071 94 251 C95.5628 254.1255 98.7363 255.9708 103 257 C111.26 258.9938 120.7401 256.8701 123 258 C123.4961 258.248 123.9161 264.8013 123 267 C122.4826 268.2419 119.4766 268.1953 118 270 C115.6526 272.869 114.5193 274.2353 114 278 C112.7248 287.2449 113.7522 296.3986 114 299 C114.0022 299.0236 115.9814 298.9257 116 299 C116.6131 301.4526 115.5614 310.3261 118 315 C119.748 318.3504 123.519 321.4399 128 322 C150.3017 324.7877 157.9578 325.8471 182 323 C192.3449 321.7749 193.6288 318.8338 204 313 C217.3512 305.4899 218.0559 305.3222 230 296 C238.1234 289.6597 239.3513 288.3101 245 281 C246.8153 278.6508 246.8804 277.3478 247 274 C247.3545 264.0749 246 253 246 253 "/>
<path id="13" d="M246 251 C246 251 246.8721 309.5288 251 357 C251.3659 361.208 253.319 362.3136 256 366 C256.8872 367.2199 258.9479 368.0174 259 368 C259.0223 367.9926 259 365 259 365 "/>
<path id="14" d="M264 249 C264 249 262.5972 266.4474 264 283 C265.0489 295.3773 268.4141 295.696 269 308 C270.3686 336.7404 269.6557 349.8914 268 367 C267.9024 368.0086 263 370 263 370 "/>
<path id="15" d="M255 152 L254 153 "/>
<path id="16" d="M237 151 L237 154 "/>
</g>
</g>
</svg>
