<?xml version="1.0" encoding="utf-8"?>
<!DOCTYPE svg PUBLIC "-//W3C//DTD SVG 1.1//EN" "http://www.w3.org/Graphics/SVG/1.1/DTD/svg11.dtd">
<svg viewBox="0 0 800 800" preserveAspectRatio="xMinYMin meet" xmlns="http://www.w3.org/2000/svg" version="1.1">
<g fill="none" stroke="black" stroke-linecap="round" stroke-linejoin="round" stroke-width="2.6306">
<g transform="translate(87.52,186.7381) scale(1.1404) translate(-22,-3)">
<path id="0" d="M255 155 C255 155 249.2981 146.4404 242 141 C222.6536 126.5781 221.615 126.0589 200 114 C174.4297 99.7344 173.5472 99.43 147 88 C138.2524 84.2337 137.4023 83.8125 128 83 C97.9174 80.4003 96.1498 80.2646 66 81 C56.2191 81.2386 55.7544 82.5614 46 85 C41.9357 86.0161 41.1849 85.8209 38 88 C32.3472 91.8677 30.8862 92.6565 27 98 C23.6241 102.6418 22.5497 104.2833 22 110 C20.2383 128.3217 21.2551 130.26 22 150 C22.2435 156.4527 22.0472 157.1415 24 163 C26.3339 170.0016 26.6443 171.1198 31 177 C36.1377 183.9359 37.036 184.5283 44 190 C50.6211 195.2023 51.2666 195.0544 59 199 C75.6429 207.4913 75.9059 208.0228 93 215 C100.015 217.8632 108.0012 218.9936 108 219 C107.9907 219.0511 98.7757 221.582 91 226 C77.2009 233.8404 74.7804 234.0937 64 244 C57.8837 249.6204 57.4481 251.8724 54 260 C50.8152 267.5071 50.8274 268.5604 50 277 C48.3778 293.5461 48.3001 294.2025 49 311 C49.7866 329.8792 50.335 330.3448 53 349 C53.7896 354.5275 53.6886 355.3772 56 360 C58.3114 364.6228 59.0129 365.611 63 369 C68.3887 373.5804 69.9466 375.1374 76 377 C81.0897 378.5661 83.292 378.3837 89 377 C98.633 374.6647 99.4864 373.8115 109 369 C142.7116 351.9505 145.0164 353.6558 176 333 C209.9345 310.377 241 281 241 281 "/>
<path id="1" d="M343 146 C343 146 344.5072 141.8495 347 140 C358.684 131.3312 359.9187 130.0407 374 123 C418.4256 100.7872 419.3604 100.3388 465 81 C477.7484 75.5981 478.6845 74.7623 492 73 C511.5196 70.4165 513.3752 70.3179 533 72 C547.1978 73.217 557.066 74.348 562 79 C566.2291 82.9875 566.7541 92.0733 568 105 C570.6811 132.8164 572.0061 135.9206 570 162 C569.2372 171.9165 566.9417 173.3911 562 183 C558.2333 190.3242 557.4599 190.678 552 197 C548.1956 201.4051 547.8992 202.4279 543 205 C528.9611 212.3704 527.5898 213.4739 512 218 C497.4515 222.2238 496.3978 221.5194 481 223 C470.7285 223.9876 470.0616 224.5559 460 223 C422.4752 217.1972 384.0015 208.0002 384 208 C383.9996 207.9999 393.3247 212.4066 403 215 C441.5101 225.3223 442.7048 223.4493 481 234 C491.2158 236.8146 491.5121 237.2561 501 242 C512.2669 247.6334 514.9388 248.5511 523 255 C525.1397 256.7118 525.8148 258.7591 526 262 C526.7216 274.6278 527.2824 276.7618 525 290 C522.4438 304.8261 519.5988 304.8852 516 320 C512.1453 336.1896 514.216 338.2439 510 353 C508.6988 357.5543 507.4286 359 504 362 C500.4479 365.1081 499.1167 365.0812 494 367 C487.3214 369.5045 486.7524 370.4373 480 371 C469.6752 371.8604 467.0595 373.2057 458 370 C437.4183 362.7172 435.2399 360.54 415 348 C389.737 332.3479 388.0264 332.0895 366 313 C351.5626 300.4876 351.7739 298.3418 340 283 C335.6697 277.3575 333 270 333 270 "/>
<path id="2" d="M241 284 C241 284 251.084 272.5928 262 263 C267.2652 258.373 274 255 274 255 "/>
<path id="3" d="M253 151 L273 179 "/>
<path id="4" d="M345 143 C345 143 342.6275 143.1633 342 144 C332.9735 156.0353 321 175 321 175 "/>
<path id="5" d="M319 246 L339 278 "/>
<path id="6" d="M273 100 C273 100 270.2953 156.3271 271 212 C271.2898 234.896 271.3469 235.5596 275 258 C278.2597 278.0241 278.326 279.0457 285 298 C290.5639 313.8014 293.6453 313.2513 300 329 C305.0128 341.423 308 355 308 355 "/>
<path id="7" d="M304 92 C304 92 315.0241 122.5515 321 153 C325.3456 175.142 324.6821 176.1085 325 199 C325.6763 247.6962 327.8417 249.4905 323 297 C320.0208 326.2335 309 356 309 356 "/>
<path id="8" d="M273 100 C273 100 274.266 91.3198 277 88 C279.3659 85.1271 282.25 84.1875 287 83 C291.2222 81.9445 294.2735 81.565 297 83 C300.8889 85.0468 306 93 306 93 "/>
<path id="9" d="M279 86 C279 86 271.6802 87.568 266 87 C262.7856 86.6786 261.7263 86.0848 259 84 C253.8234 80.0414 252.7291 79.1633 249 74 C246.7986 70.952 246.0901 69.6923 246 66 C245.6324 50.9297 245.1188 47.086 248 33 C249.0721 27.7585 251.0419 24.9256 255 22 C260.3457 18.0488 263.2463 17.4098 271 16 C278.7125 14.5977 280.2938 15.0367 288 16 C291.3431 16.4179 292.0789 16.9918 295 19 C299.6737 22.2132 300.5692 22.5601 304 27 C308.63 32.9918 309.9685 34.2284 312 41 C314.0191 47.7303 313.5875 49.6566 313 57 C312.659 61.2621 311.9915 61.8359 310 66 C306.5978 73.1137 306.5094 75.4906 302 80 C298.7205 83.2795 291 85 291 85 "/>
<path id="10" d="M254 24 C254 24 246.7394 22.4142 243 19 C236.6075 13.1634 231 3 231 3 "/>
<path id="11" d="M295 17 C295 17 296.9754 17.086 297 17 C297.6268 14.8061 299 3 299 3 "/>
<path id="12" d="M102 219 C102 219 136.7288 216.2931 170 211 C180.0643 209.3989 190 205 190 205 "/>
</g>
</g>
</svg>
