<?xml version="1.0" encoding="utf-8"?>
<!DOCTYPE svg PUBLIC "-//W3C//DTD SVG 1.1//EN" "http://www.w3.org/Graphics/SVG/1.1/DTD/svg11.dtd">
<svg viewBox="0 0 800 800" preserveAspectRatio="xMinYMin meet" xmlns="http://www.w3.org/2000/svg" version="1.1">
<g fill="none" stroke="black" stroke-linecap="round" stroke-linejoin="round" stroke-width="2.2417">
<g transform="translate(130.3438,87.52) scale(1.3382) translate(-44,-22)">
<path id="0" d="M236 48 C236 48 232.8723 48.6915 232 50 C228.0123 55.9815 226.3006 57.9478 224 66 C220.585 77.9525 221.7812 85.9883 220 92 C219.8568 92.4832 216.3266 92.5101 216 93 C215.5546 93.668 216.4331 97.1338 216 98 C215.7834 98.4331 213.4594 98.3109 213 99 C211.4687 101.297 211.036 102.9168 210 107 C202.6031 136.1526 199.061 136.8182 196 166 C191.7425 206.5886 194.2648 208.0919 195 250 C195.7623 293.4489 198.1808 325.1219 199 337 C199.0013 337.0188 200.9806 336.9224 201 337 C201.8048 340.2191 201.8657 349.9874 204 357 C204.4304 358.4142 207.2714 358.7249 208 360 C208.5514 360.9649 208.5828 362.8343 208 364 C207.1257 365.7485 203.8591 367.7093 204 368 C206.6469 373.4593 219.449 391.4596 224 397 C224.1467 397.1786 226.75 395.875 227 396 C227.25 396.125 227.5226 398.809 228 399 C230.0398 399.8159 236.4064 399.7032 237 400 C237.0312 400.0156 235.9416 402.9416 236 403 C236.1169 403.1169 239.9568 403.1405 240 403 C240.4568 401.5155 238.2051 395.1084 240 390 C243.9442 378.7742 250.223 377.3218 253 366 C255.962 353.924 251.9049 349.4106 253 337 C253.1988 334.747 255.5861 334.3798 256 332 C257.3622 324.1674 255.4909 322.6234 257 314 C258.9139 303.0635 262.1562 302.5471 263 292 C264.045 278.9381 260.9158 264.5051 261 264 C261.0091 263.9452 266.9965 268.0954 267 268 C267.1803 263.0295 269.3103 160.9723 268 71 C267.9397 66.8627 266.3808 65.1744 264 62 C262.6608 60.2144 260.1309 60.6963 259 59 C257.0359 56.0538 257.4753 50.7056 256 50 C251.7672 47.9756 236 48 236 48 "/>
<path id="1" d="M235 49 C235 49 228.4306 46.8482 224 44 C222.2634 42.8836 221.141 41.1278 221 40 C220.8792 39.0333 223 36.1528 223 36 C223 36 221 36 221 36 "/>
<path id="2" d="M262 51 C262 51 265.2447 52.4532 266 52 C269.7767 49.734 277 42 277 42 "/>
<path id="3" d="M224 35 C224 35 218.7313 33.7313 217 32 C215.6149 30.6149 214.6551 26.5748 215 26 C215.6323 24.9462 219.537 22.7421 223 22 C225.2621 21.5153 228.2327 22.2327 229 23 C229.7673 23.7673 230.1321 28.8349 230 29 C229.9238 29.0952 225.6633 27.7789 225 28 C224.7157 28.0948 224.175 30.975 224 31 C223.3 31.1 218.3507 29 218 29 C218 29 218 31 218 31 "/>
<path id="4" d="M278 39 C278 39 276.6338 32.4185 277 32 C277.4783 31.4533 284.6129 30.6613 285 31 C285.3803 31.3327 285.869 35.7414 285 39 C284.1238 42.2858 282.4547 45.3286 281 46 C279.2823 46.7928 272.2636 45.1506 272 45 C271.9921 44.9955 274 42 274 42 "/>
<path id="5" d="M213 92 C213 92 205.8596 92.2514 202 90 C195.6554 86.299 196.0379 82.331 189 78 C177.4738 70.907 175.1567 68.8452 163 66 C154.2372 63.9491 152.0377 65.2286 142 67 C127.1108 69.6275 124.774 68.7213 112 75 C97.197 82.2761 95.3937 84.9834 83 96 C78.6377 99.8776 78.8318 101.3364 76 107 C73.4611 112.0777 72.9708 112.6606 72 118 C71.0894 123.0083 70.7627 124.2056 72 129 C74.4818 138.6168 77.7431 144.4863 80 149 C80.094 149.1881 81.9811 149.066 82 149 C82.2311 148.191 81.9235 142.1276 82 142 C82.0022 141.9964 84.3123 142.8538 85 144 C86.7735 146.9559 85.7099 149.3057 88 152 C93.1881 158.1037 98.4 158.0706 102 164 C105.1296 169.1546 104.2629 178.4205 105 180 C105.0367 180.0787 108.3236 178.8647 109 179 C109.2492 179.0498 109.9784 180.0926 110 181 C110.427 198.9341 111.1805 208.3098 110 221 C109.9005 222.0698 106.7286 222.3809 106 224 C103.0781 230.4931 104.0553 233.871 101 241 C100.088 243.1281 97.4774 243.1857 97 245 C95.5577 250.4806 98.2319 253.4283 96 260 C81.03 304.0783 76.5984 305.1224 61 351 C51.2317 379.7304 50.27 380.86 45 410 C42.0045 426.5634 43.6035 429.5373 44 445 C44.0459 446.7911 44.9797 448.3623 46 449 C47.502 449.9388 51.6089 449.4133 52 450 C52.6258 450.9386 51.2124 454.456 52 458 C53.072 462.8238 55.8445 466.1343 56 468 C56.0263 468.316 53.064 469.6158 53 470 C52.9061 470.5634 53.7271 473.1188 55 474 C58.8598 476.6722 61.2973 475.9571 66 479 C69.2647 481.1125 68.9017 483.6529 72 485 C78.7442 487.9323 80.8377 488.6018 89 489 C100.3462 489.5535 103.5731 491.0933 113 487 C137.8142 476.2254 144.8806 470.8248 165 456 C168.523 453.4041 166.6523 448.9057 170 445 C174.6305 439.5977 178.652 440.5903 183 435 C188.0206 428.5449 185.9011 425.4017 191 418 C200.9311 403.5839 214 390 214 390 "/>
<path id="6" d="M267 87 C267 87 296.8267 76.077 297 76 C297.0127 75.9944 294 75 294 75 C294.0107 74.9678 296.0276 73.3945 298 73 C303.0207 71.9959 303.9191 73.3549 309 72 C318.4103 69.4906 318.8029 66.2147 328 65 C343.6942 62.9272 345.4998 63.9468 362 65 C368.4018 65.4086 369.1862 65.5084 375 68 C386.0462 72.7341 388.0594 73.9204 397 80 C398.8972 81.2901 398.8779 82.3818 400 85 C404.7943 96.1867 406.4385 96.9 409 108 C410.6344 115.0822 411.161 117.4032 409 124 C402.4867 143.8827 400.855 146.5249 390 166 C384.3526 176.1321 383.2141 176.3852 375 185 C362.9657 197.6213 359.5897 197.6539 349 209 C347.274 210.8492 347.0499 212.1549 347 215 C346.5783 239.0342 345.7536 242.4125 348 266 C348.5485 271.7595 349.8039 272.8371 353 278 C355.9541 282.772 358.3649 282.0891 361 287 C368.8328 301.5976 366.5475 304.4723 375 319 C382.0476 331.113 383.2134 331.4145 393 342 C407.4819 357.6641 412.1153 355.9061 424 372 C434.6852 386.4695 433.9464 389.366 441 407 C444.7124 416.2811 444.7583 417.0665 446 427 C447.6932 440.5457 447.7129 443.2375 447 455 C446.8678 457.1816 445.7669 458.4294 444 460 C441.943 461.8285 441.0449 462.2057 438 463 C430.0168 465.0826 429.4349 465.3512 421 466 C410.2305 466.8284 409.4518 467.1613 399 466 C392.1377 465.2375 391.5765 464.7621 385 462 C366.9063 454.4006 366.8048 452.1977 349 445 C344.0959 443.0175 341.3722 444.7985 338 443 C335.9879 441.9269 336.3061 438.2914 334 437 C326.0165 432.5293 321.4778 434.4164 313 429 C305.0182 423.9005 304.0236 418.7555 298 414 C297.1024 413.2913 295.2444 414.7111 294 414 C286.5783 409.759 285.5963 406.9594 277 402 C273.1441 399.7754 270.1956 400.7964 268 399 C266.6756 397.9164 267.6744 394.8714 266 393 C260.3205 386.6523 251 380 251 380 "/>
<path id="7" d="M220 122 C220 122 220.963 126.3086 222 127 C223.4907 127.9938 225.4936 127.6812 229 128 C236.4624 128.6784 237.8825 129.6117 244 129 C246.176 128.7824 249 126 249 126 "/>
<path id="8" d="M208 220 C208 220 212.1992 219.7994 214 221 C216.8813 222.9209 216.7818 225.5244 220 228 C222.6311 230.0239 223.7614 230.7841 227 231 C237.3155 231.6877 250 230 250 230 "/>
<path id="9" d="M217 304 L246 305 "/>
<path id="10" d="M179 108 C179 108 163.639 106.3782 149 103 C137.9033 100.4392 136.9543 96.6636 127 96 C116.9275 95.3285 111.0014 96.4993 104 100 C100.4993 101.7504 98.3089 105.7645 97 111 C94.8185 119.7258 93.7746 123.2574 96 132 C100.0568 147.9374 102.1038 151.2753 111 166 C115.6396 173.6794 119.0167 172.5921 125 180 C129.1738 185.1675 130.7968 186.2848 132 192 C134.3406 203.1179 131.6422 205.237 133 218 C134.1143 228.4746 136.189 228.7271 137 239 C137.6438 247.1549 135.2154 248.1536 136 256 C136.6221 262.2214 140.7365 263.7624 140 269 C136.8715 291.2468 136.3491 296.6273 127 320 C118.0169 342.4578 109.5362 343.1306 102 364 C97.9694 375.1617 99.5316 381.7212 101 392 C101.4142 394.8992 105.1375 398.7851 107 399 C112.3455 399.6168 123.8185 395.1515 127 395 C127.1351 394.9936 127.9752 398.0145 128 398 C128.5574 397.6749 134.1096 390.0377 139 388 C143.1918 386.2534 146.3524 389.4119 152 388 C161.1231 385.7192 161.8115 384.4461 171 380 C177.1818 377.0088 180.3143 375.6857 183 373 C183.7068 372.2932 183 368 183 368 "/>
<path id="11" d="M282 111 C282 111 289.6877 103.7603 298 100 C309.7372 94.6903 311.6237 93.428 324 92 C335.8458 90.6332 338.9333 90.7035 350 94 C360.2256 97.0459 367.457 100.6855 371 106 C373.9525 110.4287 373.184 117.2912 372 127 C370.8243 136.6408 370.3747 137.9589 366 147 C355.7594 168.1639 354.7815 168.6039 342 189 C331.3756 205.9538 326.1627 206.0217 319 222 C314.6431 231.7193 316.3177 234.9259 316 247 C315.836 253.2334 316.0643 254.0169 318 260 C321.3916 270.4832 322.1757 270.7082 327 281 C329.6423 286.6369 329.3084 287.488 333 292 C337.8307 297.9042 340.4451 296.8685 345 303 C352.8681 313.5916 352.9617 314.6818 359 327 C365.3376 339.9286 366.5247 340.6335 370 354 C372.7374 364.5284 373.7451 367.6199 372 377 C370.314 386.062 366.7408 392.8281 362 397 C359.1212 399.5334 354.0491 399 347 399 C342.7705 399 341.7521 398.9576 338 397 C319.8892 387.5509 319.8624 384.8803 301 375 C288.6534 368.5327 275 364 275 364 "/>
<path id="12" d="M217 392 C217 392 209.5546 403.6025 207 415 C203.3897 431.1076 202.9486 439.2231 204 450 C204.2024 452.0751 207.8843 454.562 211 456 C212.9136 456.8832 216.2926 456.8017 217 456 C220.3326 452.223 223.16 447.5201 226 439 C228.84 430.4799 230.1749 427.6371 229 420 C227.6447 411.1904 220 400 220 400 "/>
<path id="13" d="M252 385 C252 385 241.9286 400.3334 239 414 C236.5321 425.5168 238.8496 429.4961 240 441 C240.1358 442.3584 241.3491 443.8554 242 444 C243.6543 444.3676 246.3716 444.4153 249 443 C258.0654 438.1186 260.8271 436.5208 268 430 C270.1794 428.0188 270.4968 426.3544 271 423 C271.878 417.1466 272.6677 415.1698 271 410 C268.2771 401.559 266.6936 399.7912 261 392 C257.7206 387.5124 252 384 252 384 "/>
</g>
</g>
</svg>
