<?xml version="1.0" encoding="utf-8"?>
<!DOCTYPE svg PUBLIC "-//W3C//DTD SVG 1.1//EN" "http://www.w3.org/Graphics/SVG/1.1/DTD/svg11.dtd">
<svg viewBox="0 0 800 800" preserveAspectRatio="xMinYMin meet" xmlns="http://www.w3.org/2000/svg" version="1.1">
<g fill="none" stroke="black" stroke-linecap="round" stroke-linejoin="round" stroke-width="1.2097">
<g transform="translate(153.24,87.52) scale(2.48) translate(-114,-163)">
<path id="0" d="M122 205 C122 205 128.4311 204.568 134 206 C145.3845 208.9274 145.8569 212.8423 157 214 C182.2497 216.6233 185.698 211.8618 211 214 C219.203 214.6932 221.286 215.7478 228 220 C234.8539 224.3408 236.8563 225.7781 241 233 C253.2784 254.3994 255.2953 257.5649 263 281 C266.5791 291.8864 265.1377 293.6114 265 306 C264.6416 338.2556 266.3974 344.6158 262 371 C261.0153 376.9079 255.0911 377.3762 252 384 C248.6989 391.0738 250.8827 393.1381 248 401 C245.57 407.6273 241 414 241 414 "/>
<path id="1" d="M241 415 C241 415 261.8211 418.0336 271 413 C285.6254 404.9796 299.0411 394.8563 303 381 C310.6979 354.0573 299.9448 339.3596 303 301 C304.2876 284.8329 309.6337 284.3272 312 268 C314.4932 250.7967 317.3193 245.498 313 232 C307.3103 214.2196 299.3058 212.3813 288 193 C285.7318 189.1117 287.371 187.4083 285 184 C280.072 176.916 278.6203 175.6272 272 170 C269.4609 167.8418 268.5293 167.7059 265 167 C251.6258 164.3252 250.9296 163.9134 237 163 C220.7354 161.9335 219.4952 160.7864 204 163 C189.3097 165.0986 187.023 165.4885 174 172 C160.5995 178.7002 159.7506 185.8079 148 191 C142.1923 193.5662 135.7216 188.5003 131 191 C123.6317 194.9009 114 209 114 209 "/>
</g>
</g>
</svg>
