<?xml version="1.0" encoding="utf-8"?>
<!DOCTYPE svg PUBLIC "-//W3C//DTD SVG 1.1//EN" "http://www.w3.org/Graphics/SVG/1.1/DTD/svg11.dtd">
<svg viewBox="0 0 800 800" preserveAspectRatio="xMinYMin meet" xmlns="http://www.w3.org/2000/svg" version="1.1">
<g fill="none" stroke="black" stroke-linecap="round" stroke-linejoin="round" stroke-width="1.8289">
<g transform="translate(87.52,157.2334) scale(1.6403) translate(-74,-131)">
<path id="0" d="M84 158 C84 158 85.5393 154.4228 87 154 C100.0072 150.2348 104.9994 151.6365 122 147 C137.6607 142.7289 137.5504 138.7164 153 136 C181.5588 130.9787 183.0897 131.8425 213 131 C253.7677 129.8516 255.5679 126.9269 295 132 C339.0284 137.6645 370.9344 135.933 384 153 C419.5253 199.4049 454.9942 340.9845 455 341 C455.0001 341.0003 453.0857 338.0286 453 338 C452.9905 337.9968 452.2689 338.9693 452 340 C449.3473 350.1687 450.9382 351.3907 447 361 C438.765 381.0935 438.2133 382.2101 427 401 C420.0596 412.6299 418.025 419.1361 410 423 C398.6788 428.4509 383.0784 429.8524 373 427 C366.9932 425.3 361.2051 416.4103 357 408 C354.9753 403.9506 356.0163 401.2304 357 395 C361.9108 363.8986 366.3957 362.9913 369 332 C371.2716 304.9675 369.3756 302.528 367 276 C366.5197 270.6366 365.7904 269.8832 363 265 C354.0888 249.4054 354.3178 248.0424 343 234 C327.771 215.1047 327.1742 212.6478 309 198 C295.2983 186.9569 292.8946 187.5903 276 180 C258.7955 172.2704 257.4784 170.293 240 167 C224.9988 164.1737 223.2594 165.7493 207 167 C184.6007 168.723 183.5256 167.7885 162 173 C136.9233 179.0712 137.0613 182.4816 112 190 C102.3575 192.8927 97.1932 195.7766 92 194 C85.3618 191.729 76.4232 182.885 74 177 C72.476 173.2988 78 160 78 160 "/>
<path id="1" d="M132 144 C132 144 145.4514 156.0212 152 166 C153.9867 169.0274 153 176 153 176 "/>
<path id="2" d="M153 137 C153 137 167.8863 144.6549 181 153 C183.8101 154.7882 185.155 155.8031 186 158 C186.9764 160.5387 186 166 186 166 "/>
<path id="3" d="M372 341 C372 341 389.0987 346.5794 405 354 C418.839 360.4582 423.9064 362.3019 432 369 C433.9402 370.6057 434 378 434 378 "/>
<path id="4" d="M372 322 C372 322 385.0583 321.5712 397 324 C413.9366 327.4447 414.4632 328.4877 431 334 C435.1342 335.3781 436.57 335.57 439 338 C441.43 340.43 440.4174 342.864 443 346 C446.9411 350.7856 453 355 453 355 "/>
</g>
</g>
</svg>
