<?xml version="1.0" encoding="utf-8"?>
<!DOCTYPE svg PUBLIC "-//W3C//DTD SVG 1.1//EN" "http://www.w3.org/Graphics/SVG/1.1/DTD/svg11.dtd">
<svg viewBox="0 0 800 800" preserveAspectRatio="xMinYMin meet" xmlns="http://www.w3.org/2000/svg" version="1.1">
<g fill="none" stroke="black" stroke-linecap="round" stroke-linejoin="round" stroke-width="1.8817">
<g transform="translate(87.52,140.9286) scale(1.5943) translate(-64,-73)">
<path id="0" d="M64 192 C64 192 111.0593 152.527 162 128 C229.4327 95.5324 307 75 307 75 "/>
<path id="1" d="M300 77 C300 77 306.1563 73.754 312 73 C320.871 71.8553 322.0836 72.0447 331 73 C335.3744 73.4687 336.2351 73.8823 340 76 C343.6548 78.0558 344.328 78.5857 347 82 C352.9615 89.6174 354.8262 90.0027 358 99 C407.6384 239.7182 456 391 456 391 "/>
<path id="2" d="M64 193 C64 193 63.2263 196.4525 64 198 C65.5475 201.095 67.5762 204.5152 70 205 C79.4986 206.8997 86.4136 208.7436 99 205 C178.5334 181.3439 185.8832 172.213 265 147 C271.8617 144.8133 275.7544 145.2515 281 147 C284.4971 148.1657 286.3234 150.7621 289 155 C291.7737 159.3917 293 166 293 166 "/>
<path id="3" d="M454 390 C454 390 453.7199 396.557 453 397 C451.2888 398.053 444.3411 399.7183 441 398 C431.4671 393.0974 427.6395 389.2237 418 379 C411.9753 372.6102 411.2551 371.4089 408 363 C393.738 326.1565 396.0187 324.0062 382 286 C373.58 263.1725 374.6415 261.7884 363 241 C347.1572 212.7093 345.3164 212.134 326 186 C320.2887 178.273 319.5809 178.0302 312 172 C297.9144 160.7955 282 151 282 151 "/>
<path id="4" d="M91 194 L97 192 "/>
<path id="5" d="M99 191 C99 191 93.9982 191.0007 94 191 C94.0185 190.9926 118.4898 185.6789 139 175 C177.6399 154.8817 181.8335 147.0101 215 128 C216.9332 126.892 218.9912 127.0547 221 128 C225.9432 130.3262 226.9711 134.4527 232 136 C237.6036 137.7242 240.7912 138.0976 247 136 C274.9171 126.5685 279.6374 119.1938 306 111 C311.6769 109.2355 315.1304 110.8656 321 113 C324.4267 114.2461 325.328 115.5857 328 119 C333.9615 126.6174 336.4665 127.6757 339 136 C342.7244 148.2374 338.4107 153.956 342 165 C343.7063 170.2503 346.4492 171.789 352 176 C360.2741 182.2769 368.5823 181.8492 371 187 C375.8404 197.3121 369.9665 211.6612 375 225 C377.6802 232.1026 388.1974 233.2409 391 240 C394.4219 248.2527 388.8195 255.777 392 266 C394.7856 274.9537 402.4507 276.0774 405 285 C408.3991 296.8968 402.3589 304.0767 406 315 C408.7608 323.2825 417.0136 325.0272 421 333 C422.876 336.7519 421.8857 339.9809 421 345 C420.5919 347.3127 418.1068 347.9717 418 350 C417.7124 355.4639 420 364 420 364 "/>
<path id="6" d="M123 164 C123 164 125.5669 162.7834 126 163 C126.8662 163.4331 128.8627 165.7639 129 167 C129.1514 168.3629 127.5126 171.5899 127 172 C126.812 172.1504 124.1792 171.4182 124 171 C123.5295 169.9023 123.775 165.675 124 165 C124.025 164.925 126 165 126 165 C126 165.3507 124.8165 170.0202 124 171 C123.7337 171.3195 121.0067 171.027 121 171 C120.9685 170.8742 123 167 123 167 "/>
<path id="7" d="M175 165 C175 165 180.8217 165.7325 181 166 C181.1308 166.1962 179.6395 170.6345 179 171 C178.4169 171.3332 174.6325 170.506 174 170 C173.7383 169.7906 173.8346 167.0993 174 167 C174.4596 166.7243 178.5404 166.7243 179 167 C179.1654 167.0993 179.1875 169.8125 179 170 C178.8125 170.1875 176.2895 170.2895 176 170 C175.5175 169.5175 175 166 175 166 "/>
<path id="8" d="M212 141 C212 141 216.6032 143.9047 218 146 C218.6208 146.9312 218.3081 149.7799 218 150 C217.1681 150.5942 211.6 151.375 211 151 C210.5529 150.7206 209.774 146.8079 210 145 C210.0865 144.3076 211.5669 143 212 143 C212.8662 143 215.4361 144.1542 216 145 C216.4833 145.725 216.0701 148.9766 216 149 C215.7195 149.0935 210.9798 147.8165 210 147 C209.6805 146.7337 209.9777 144.0074 210 144 C210.0521 143.9826 212.9935 146 213 146 C213.0022 146 212 144 212 144 "/>
<path id="9" d="M187 126 C187 126 193.5535 124.7448 194 125 C194.1985 125.1134 194.3125 129.6875 194 130 C193.6875 130.3125 189.3811 130.3049 189 130 C188.7561 129.8049 188.6178 126.6369 189 126 C189.2675 125.5541 191.9041 124.9041 192 125 C192.2877 125.2877 193.1655 129.7931 193 130 C192.8424 130.197 188.1528 130.0764 188 130 C188 130 189 128 189 128 "/>
<path id="10" d="M248 111 C248 111 252.4635 111.4635 253 112 C253.3577 112.3577 253.3577 115.6423 253 116 C252.4635 116.5365 248.4482 117.3201 248 117 C247.3427 116.5305 245.8741 111.1888 246 111 C246.1079 110.8382 251.5574 110.6311 252 111 C252.3074 111.2561 252.2757 115.5404 252 116 C251.9007 116.1654 249.4789 116.3831 249 116 C248.1699 115.3359 246.9542 112.0611 247 112 C247.0688 111.9083 252 112 252 112 "/>
<path id="11" d="M295 92 C295 92 301.1681 92.4058 302 93 C302.3081 93.2201 302.4433 95.4485 302 97 C301.6042 98.3853 300.8278 99.6896 300 100 C298.4107 100.596 294.4426 100.3689 294 100 C293.6926 99.7439 293.803 95.1576 294 95 C294.2069 94.8345 298.9653 95.9306 299 96 C299.0149 96.0297 296.0001 99 296 99 C295.9999 99 297.6875 96.0625 298 96 C298.3125 95.9375 301 98 301 98 C301 98 299 97 299 97 "/>
<path id="12" d="M315 141 C315 141 320.8301 141.7027 321 142 C321.1863 142.3261 319.9009 147.3243 319 148 C318.1684 148.6237 313.375 148.375 313 148 C312.625 147.625 312.7901 142.2624 313 142 C313.077 141.9038 316.8125 142.6875 317 143 C317.1875 143.3125 316.0181 146.9819 316 147 C315.9964 147.0036 314.9912 145.0059 315 145 C315.1058 144.9295 318.9993 144.9993 319 145 C319.0003 145.0003 316 146 316 146 "/>
<path id="13" d="M364 157 C364 157 363.5696 162.3165 363 163 C362.7222 163.3334 359.1231 163.2154 359 163 C358.6231 162.3404 358.7689 156.809 359 156 C359.0189 155.934 360.975 155.925 361 156 C361.225 156.675 361.225 161.325 361 162 C360.975 162.075 359.2166 162.2166 359 162 C358.5669 161.5669 357.859 159.7049 358 159 C358.1208 158.3958 359.75 157 360 157 C360.25 157 362 159 362 159 C362 159 360 157 360 157 "/>
<path id="14" d="M356 203 C356 203 358.8982 200.8776 360 201 C361.5555 201.1728 363.8572 202.3675 365 204 C366.4768 206.1098 367.1659 210.7097 367 211 C366.9029 211.1699 361.4886 211.4886 361 211 C360.3486 210.3486 359.5415 204.5895 360 204 C360.6059 203.221 367.7973 201.971 368 202 C368.015 202.0021 367.3775 204.8868 367 205 C365.2119 205.5364 359.7881 205.5364 358 205 C357.6225 204.8868 357 202 357 202 C357 202 358.0633 205.7469 358 206 C357.9916 206.0338 355.9976 205.9906 356 206 C356.0224 206.0894 357.72 209.36 359 210 C360.28 210.64 363.8207 209.8207 364 210 C364.1076 210.1076 363 214 363 214 C362.9571 213.9893 360 209 360 209 "/>
<path id="15" d="M387 220 C387 220 389.0175 224.9868 389 225 C388.9549 225.0338 383.9798 223.8165 383 223 C382.6805 222.7337 382.7105 220.2895 383 220 C383.4825 219.5175 386.8412 218.8412 387 219 C387.3705 219.3705 388.0039 224.9961 388 225 C387.9992 225.0008 384.9522 221.287 385 221 C385.0364 220.7813 389 219 389 219 "/>
<path id="16" d="M382 253 C382 253 382.1356 254.9322 382 255 C381.1187 255.4406 376.8102 256.4051 376 256 C375.3371 255.6686 373.8125 251.4375 374 251 C374.1875 250.5625 378.9336 248.9834 379 249 C379.0037 249.0009 378.4504 251.6622 378 252 C377.5842 252.3118 374.9993 251.9995 375 252 C375.0017 252.0011 381 254 381 254 "/>
<path id="17" d="M414 300 C414 300 418.8215 301.524 419 302 C419.2418 302.6449 417.8662 307.1338 417 308 C416.5669 308.4331 413.2778 308.3334 413 308 C412.4304 307.3165 411.8516 302.4451 412 302 C412.0262 301.9214 414.8797 301.7895 415 302 C415.5312 302.9295 416.013 308.974 416 309 C415.997 309.006 413.0865 306.4327 413 306 C412.9615 305.8077 415 304 415 304 "/>
<path id="18" d="M411 339 C411 339 411.5496 336.3378 412 336 C412.4158 335.6882 414.7404 335.8269 415 336 C415.1154 336.0769 415.1356 337.9322 415 338 C414.1187 338.4406 409.5451 339.3115 409 339 C408.6127 338.7787 407.7789 334.6633 408 334 C408.0948 333.7157 410.9156 332.8987 411 333 C411.4875 333.585 413.024 339.968 413 340 C412.9967 340.0044 408 337 408 337 "/>
<path id="19" d="M432 366 C432 366 439.2516 363.7505 440 364 C440.2721 364.0907 441.1655 368.7931 441 369 C440.8424 369.197 436.7783 369.556 436 369 C435.1327 368.3805 434 364 434 364 C434 364 436.1 369.3 436 370 C435.975 370.175 433.0206 371.0344 433 371 C432.8453 370.7422 432.7577 365.2423 433 365 C433.1616 364.8384 436.9023 365.2682 438 366 C438.5811 366.3874 439.02 368.98 439 369 C438.98 369.02 436.2675 368.4459 436 368 C435.6178 367.3631 436 364 436 364 "/>
<path id="20" d="M338 94 C338 94 342.9635 98.0907 345 101 C345.5134 101.7334 345.2895 103.7105 345 104 C344.5175 104.4825 341.15 105.175 341 105 C340.4 104.3 338.7992 97.4016 339 97 C339.0861 96.8279 343.3967 96.2874 345 97 C346.2767 97.5674 347.2249 99.1915 348 101 C348.4399 102.0265 348.2347 103.8436 348 104 C347.2178 104.5215 342.3536 105.303 342 105 C341.5188 104.5875 340.7808 98.5116 341 98 C341.0572 97.8665 344.5293 97.6234 345 98 C345.4942 98.3954 346.2257 101.7292 346 102 C345.5011 102.5986 340.2421 104.2119 340 104 C339.4374 103.5077 337.8774 95.1716 338 95 C338.0486 94.932 343.2681 95.653 345 97 C346.1921 97.9272 347 102 347 102 "/>
<path id="21" d="M326 168 C326 168 329.923 166.9038 330 167 C330.2099 167.2624 330.3462 172.4808 330 173 C329.8462 173.2308 326.3577 173.3577 326 173 C325.4635 172.4635 324.6799 168.4482 325 168 C325.4695 167.3427 330.8505 165.8754 331 166 C331.2012 166.1677 331.2012 172.8323 331 173 C330.8505 173.1246 325.9798 171.8165 325 171 C324.6805 170.7337 324.6882 168.4158 325 168 C325.3378 167.5496 327.879 166.8617 328 167 C328.9307 168.0637 332 175.9819 332 176 C332 176.006 328.9678 174.2098 328 173 C327.6878 172.6098 327.8644 171.0678 328 171 C328.8813 170.5594 333.4549 169.6885 334 170 C334.3873 170.2213 335.0467 174.972 335 175 C334.888 175.0672 330.1192 174.1192 329 173 C328.1606 172.1606 327.8719 168.3203 328 168 C328.0334 167.9164 331 168 331 168 "/>
</g>
</g>
</svg>
