<?xml version="1.0" encoding="utf-8"?>
<!DOCTYPE svg PUBLIC "-//W3C//DTD SVG 1.1//EN" "http://www.w3.org/Graphics/SVG/1.1/DTD/svg11.dtd">
<svg viewBox="0 0 800 800" preserveAspectRatio="xMinYMin meet" xmlns="http://www.w3.org/2000/svg" version="1.1">
<g fill="none" stroke="black" stroke-linecap="round" stroke-linejoin="round" stroke-width="1.9057">
<g transform="translate(117.4299,87.52) scale(1.5742) translate(-167,-43)">
<path id="0" d="M364 61 C364 61 334.2979 103.0816 299 138 C242.2798 194.1103 233.1003 192.4234 178 245 C171.2883 251.4043 170.0615 254.379 168 263 C165.1451 274.9389 162.9923 285.9337 167 291 C179.0361 306.2155 193.4817 312.4571 221 330 C232.7419 337.4854 233.8136 337.0551 247 342 C257.4842 345.9316 258.5306 343.9733 269 348 C290.6676 356.3337 290.1834 359.2084 312 367 C331.6882 374.0315 333.0718 371.1825 353 378 C389.7635 390.577 390.0416 391.1718 426 406 C438.3121 411.0771 437.6534 413.732 450 418 C477.4279 427.4813 479.2248 427.7408 507 434 C513.4161 435.4459 516.755 434.9988 521 434 C522.195 433.7188 523.5831 431.9178 524 430 C525.7417 421.9884 526.314 419.4787 526 411 C525.8654 407.3663 525.3786 405.839 523 403 C511.1312 388.8341 510.0855 385.8705 495 374 C480.7661 362.7996 478.8923 363.1822 462 355 C447.2654 347.8629 446.0725 349.7717 431 343 C411.7257 334.3405 411.3076 334.21 393 324 C385.6248 319.8869 384.8222 319.8222 379 314 C366.8704 301.8704 368.1696 299.6767 356 287 C344.3461 274.8606 338.465 274.9308 331 264 C327.2653 258.5313 328.4785 254.9316 328 246 C326.9988 227.3113 326.9824 226.6565 328 208 C328.4596 199.5733 328.978 199.3127 331 191 C333.4474 180.9385 333.1121 180.5701 337 171 C358.9518 116.9648 361.1723 116.9274 383 63 C386.4519 54.4718 385.8172 53.7314 388 45 C388.2268 44.0928 388.066 43.0189 388 43 C387.191 42.7689 382.1133 41.8867 381 43 C373.5248 50.4752 361 70 361 70 "/>
<path id="1" d="M168 287 C168 287 167.9117 296.1108 170 304 C172.246 312.4848 172.6591 313.3395 177 321 C180.8647 327.8201 181.2944 329.2781 187 334 C194.7244 340.3926 196.0713 341.1028 206 345 C248.6516 361.7417 250.8161 359.0463 294 376 C317.9854 385.4165 316.8542 389.7362 341 398 C409.3575 421.3951 413.764 423.6883 481 440 C493.874 443.1233 499.1603 441.5673 510 439 C514.0393 438.0433 519 431 519 431 "/>
</g>
</g>
</svg>
