<?xml version="1.0" encoding="utf-8"?>
<!DOCTYPE svg PUBLIC "-//W3C//DTD SVG 1.1//EN" "http://www.w3.org/Graphics/SVG/1.1/DTD/svg11.dtd">
<svg viewBox="0 0 800 800" preserveAspectRatio="xMinYMin meet" xmlns="http://www.w3.org/2000/svg" version="1.1">
<g fill="none" stroke="black" stroke-linecap="round" stroke-linejoin="round" stroke-width="1.0897">
<g transform="translate(87.52,208.6576) scale(2.7531) translate(-181,-120)">
<path id="0" d="M181 121 C181 121 186.3794 130.817 190 141 C194.29 153.0655 191.4843 154.9686 197 166 C213.2569 198.5137 214.966 200.004 235 231 C240.9715 240.2389 242.1731 240.5134 250 248 C253.2004 251.0613 253.8411 251.1096 258 253 C264.588 255.9945 265.057 256.5122 272 258 C278.5481 259.4032 279.0535 259 286 259 C295.4273 259 297.4126 260.7098 305 258 C315.9751 254.0803 317.6775 251.5698 328 244 C331.9925 241.0722 331.0618 239.082 335 236 C342.0758 230.4624 344.8655 231.1659 351 226 C353.0228 224.2966 351.946 222.2326 354 220 C362.7693 210.4681 364.793 211.0194 374 201 C381.6026 192.7265 381.8702 192.4137 388 183 C395.7122 171.1562 395.6832 170.6335 402 158 C404.5662 152.8676 405.1132 152.4684 406 147 C408.004 134.6423 408 121 408 121 "/>
<path id="1" d="M406 121 C406 121 393.9969 135.3364 381 148 C374.7386 154.1008 372.8744 152.7696 367 159 C356.8255 169.7911 357.0253 173.2226 348 183 C346.5626 184.5571 344.7383 183.4479 343 185 C331.8474 194.9577 329.9577 196.8474 320 208 C318.4479 209.7383 319.4075 211.9835 318 213 C312.5373 216.9453 309.8496 218.1741 302 221 C298.1085 222.401 295.5751 223.3206 293 222 C280.6302 215.6565 276.2774 212.5824 263 201 C253.5345 192.7429 255.5192 189.4268 246 181 C225.6756 163.0079 221.5489 165.3459 202 147 C190.0662 135.8006 181 120 181 120 "/>
</g>
</g>
</svg>
