<?xml version="1.0" encoding="utf-8"?>
<!DOCTYPE svg PUBLIC "-//W3C//DTD SVG 1.1//EN" "http://www.w3.org/Graphics/SVG/1.1/DTD/svg11.dtd">
<svg viewBox="0 0 800 800" preserveAspectRatio="xMinYMin meet" xmlns="http://www.w3.org/2000/svg" version="1.1">
<g fill="none" stroke="black" stroke-linecap="round" stroke-linejoin="round" stroke-width="1.6993">
<g transform="translate(142.2481,87.52) scale(1.7654) translate(-203,-64.7)">
<path id="0" d="M206 80.7 C206 80.7 204.3331 74.7006 205 72.7 C205.4929 71.2213 209.9926 68.7297 210 68.7 C210.0014 68.6943 205.9995 68.7002 206 68.7 C206.0021 68.6992 213.8545 65.0664 221 64.7 C232.2304 64.1241 245 66.7 245 66.7 "/>
<path id="1" d="M240 66.7 C240 66.7 259.5356 65.5133 277 69.7 C331.0202 82.65 331.7303 87.0889 386 101.7 C396.0624 104.4091 399.9174 102.8524 407 104.7 C407.9048 104.936 408.0864 107.4313 409 107.7 C413.9407 109.1531 417.0944 107.5516 424 109.7 C438.9115 114.3391 438.9372 117.3181 454 121.7 C465.7673 125.1232 479 125.7 479 125.7 "/>
<path id="2" d="M478 124.7 C478 124.7 484.5659 123.4113 487 124.7 C490.4523 126.5277 494.6247 129.9937 495 133.7 C497.6781 160.1464 497.9728 170.339 495 203.7 C493.6494 218.8564 491.7327 220.2175 486 234.7 C482.5238 243.482 478.6724 243.1484 476 251.7 C471.6761 265.5365 475.242 268.5599 471 282.7 C468.1285 292.2717 464.5385 292.264 461 301.7 C458.8613 307.4031 461.4577 309.4955 459 314.7 C453.6979 325.928 449.298 327.4571 444 337.7 C442.9665 339.6981 444.7663 341.2478 444 343.7 C442.5233 348.4255 441.3524 350.8248 439 353.7 C438.2867 354.5718 435.6698 353.807 435 354.7 C431.4837 359.3884 430.2613 361.9759 427 369.7 C420.8521 384.2609 422.5084 385.4998 416 399.7 C411.7204 409.0373 405 417.7 405 417.7 "/>
<path id="3" d="M406 417.7 C406 417.7 394.9559 420.2441 389 418.7 C384.7044 417.5863 381.3632 414.0085 379 410.7 C378.0636 409.3891 379 404.7 379 404.7 "/>
<path id="4" d="M379 403.7 C379 403.7 380.9042 402.0412 381 400.7 C382.6199 378.0221 381.2782 373.0972 383 347.7 C383.1988 344.7674 383.4036 344.0332 385 341.7 C389.447 335.2005 394.1588 335.0956 396 328.7 C402.2982 306.822 398.3771 301.0031 404 275.7 C406.1328 266.1023 410.3283 265.0585 412 256.7 C412.8602 252.399 409.7403 249.8546 410 245.7 C410.1239 243.7182 412.4621 243.0309 413 240.7 C413.756 237.4242 412.0632 236.213 413 232.7 C415.826 222.1025 418.4286 221.5568 421 210.7 C422.7473 203.3226 420.4555 198.3682 422 194.7 C422.5594 193.3714 428.1028 193.158 429 191.7 C430.3033 189.5821 430 181.7 430 181.7 "/>
<path id="5" d="M430 186.7 C430 186.7 426.8442 180.0636 423 176.7 C419.9491 174.0304 418.6251 173.9452 414 172.7 C380.2297 163.608 376.7706 165.912 345 155.7 C337.2288 153.2021 336.9006 148.2558 330 145.7 C325.5727 144.0603 323.1631 146.9391 318 145.7 C311.7871 144.2089 311.2808 143.0647 305 139.7 C283.363 128.1087 282.0464 128.2781 262 115.7 C257.5046 112.8794 258.3426 109.6497 254 107.7 C236.2856 99.7466 227.8813 102.1619 213 93.7 C207.3681 90.4975 203 78.7 203 78.7 "/>
</g>
</g>
</svg>
