<?xml version="1.0" encoding="utf-8"?>
<!DOCTYPE svg PUBLIC "-//W3C//DTD SVG 1.1//EN" "http://www.w3.org/Graphics/SVG/1.1/DTD/svg11.dtd">
<svg viewBox="0 0 800 800" preserveAspectRatio="xMinYMin meet" xmlns="http://www.w3.org/2000/svg" version="1.1">
<g fill="none" stroke="black" stroke-linecap="round" stroke-linejoin="round" stroke-width="1.8097">
<g transform="translate(204.3892,87.52) scale(1.6577) translate(-134,-2)">
<path id="0" d="M214 303 C214 303 195.2096 284.7725 180 265 C170.6809 252.8852 170.6026 251.7793 164 238 C159.3615 228.3197 159.7733 227.5889 157 217 C154.3221 206.7754 153.3693 206.34 153 196 C151.9003 165.2071 150.5138 162.7915 154 133 C155.7769 117.8155 160.462 117.5126 164 102 C166.8367 89.5621 162.6157 86.0474 167 76 C173.1269 61.9591 176.2465 58.4979 188 47 C197.6781 37.5323 200.3869 37.6385 213 31 C218.7007 27.9996 219.6984 27.3453 226 27 C254.6022 25.4328 260.9687 22.9826 286 27 C295.6314 28.5458 297.3069 32.7994 307 40 C314.4799 45.5565 316.6935 45.8776 321 53 C328.4746 65.3619 327.8683 67.9471 333 83 C335.2614 89.6333 335.7826 90.1151 336 97 C337.2495 136.5665 339.2152 140.1317 336 178 C334.9773 190.045 332.1158 191.3068 327 203 C325.3758 206.7125 322.723 206.8186 322 210 C320.667 215.8651 322.9016 218.0875 322 225 C321.4956 228.867 321.1612 229.532 319 233 C300.1839 263.1933 299.4038 264.0189 279 294 C275.0394 299.8197 274.198 301.125 270 305 C268.921 305.996 266 306 266 306 "/>
<path id="1" d="M208 306 C208 306 213.7348 309.6948 219 310 C246.1889 311.5762 256.0042 311.6663 277 310 C278.9536 309.8449 282 305 282 305 "/>
<path id="2" d="M208 299 C208 299 204.238 365.9243 209 372 C211.9479 375.7612 262.8964 376.6209 266 373 C270.7712 367.4336 269 302 269 302 "/>
<path id="3" d="M228 310 C228 310 231.7555 305.2312 233 301 C233.9508 297.7672 234.4034 295.0717 233 293 C226.4698 283.3601 218.8568 279.469 212 270 C210.9232 268.513 211.4857 266.0571 212 264 C212.2143 263.1429 213.248 262.0251 214 262 C235.1046 261.2965 263.2636 260.6673 272 262 C272.3574 262.0545 274.0134 268.3941 273 271 C271.5747 274.6651 269.4074 276.4741 265 280 C259.8967 284.0827 254.9531 283.6518 253 287 C250.4656 291.3447 250.0285 297.4426 251 304 C251.6333 308.2747 257 314 257 314 "/>
<path id="4" d="M224 262 C224 262 219.0473 258.4016 216 254 C210.3902 245.897 209.9482 245.2782 206 236 C200.1004 222.1359 200.3024 221.5618 196 207 C193.8611 199.7605 193.4735 199.4187 193 192 C192.0025 176.3729 194.7969 174.9738 193 160 C191.9488 151.2403 187 142 187 142 "/>
<path id="5" d="M263 263 C263 263 273.5701 249.2534 279 235 C285.0593 219.0944 284.5332 217.2675 287 200 C288.4333 189.9671 285.4989 189.0077 287 179 C289.8843 159.771 295.2309 151.5362 296 140 C296.1088 138.3686 290.2671 133.9272 290 134 C289.5438 134.1244 285.8819 139.0316 285 143 C284.2344 146.4451 285.2251 151.3026 286 152 C286.7664 152.6898 293.9875 152.3375 295 152 C295.1125 151.9625 295 149 295 149 "/>
<path id="6" d="M195 140 C195 140 190.1474 139.7347 190 140 C189.5224 140.8597 189.6661 144.659 190 149 C190.1513 150.9664 190.1257 151.98 191 153 C192.3114 154.53 194.0693 155.8621 196 156 C199.2795 156.2342 201.44 155.4833 205 154 C206.5386 153.3589 207.609 152.3034 208 151 C208.7018 148.6606 208.9166 146.3832 208 144 C206.9625 141.3025 205.1374 138.8015 203 138 C199.757 136.7839 193.331 137.758 192 138 C191.956 138.008 192 140 192 140 "/>
<path id="7" d="M206 140 C206 140 209.6563 134.0833 212 132 C212.5363 131.5233 214.3778 131.4909 215 132 C218.1867 134.6073 222.1336 140.8001 223 141 C223.3108 141.0717 226.4432 135.2458 228 135 C231.5406 134.441 239.7605 138.5269 242 138 C242.7828 137.8158 244.7361 131 245 131 C245.9676 131 253.4065 137.8635 256 138 C257.753 138.0923 263.7559 131.9729 264 132 C264.0592 132.0066 264.9505 138.9938 265 139 C265.165 139.0206 269.6831 133.7129 272 133 C273.4103 132.5661 275.57 135 278 135 C280.43 135 283.4019 132.6013 284 133 C285.6233 134.0822 290 143 290 143 "/>
<path id="8" d="M204 137 C204 137 213.4129 132.7733 215 133 C215.587 133.0839 216.4671 137.4671 218 139 C218.8516 139.8516 221.6431 140.3212 222 140 C223.727 138.4457 225.8045 132.4394 228 130 C228.3849 129.5723 230.3633 129.5048 231 130 C233.429 131.8892 235.7735 136.8365 237 137 C238.4742 137.1966 241.7641 133.1147 246 132 C250.1062 130.9194 251.6829 130.9721 256 132 C261.2628 133.253 264.6457 137.2616 267 137 C268.7532 136.8052 270.9588 131.6376 274 130 C275.6944 129.0876 277.7313 129.1492 280 130 C284.6319 131.737 287.5606 133.8045 290 136 C290.4277 136.3849 290 139 290 139 "/>
<path id="9" d="M214 378 C214 378 223.8805 379.3011 229 379 C229.7256 378.9573 231.0217 377.0043 231 377 C230.7671 376.9534 214 376 214 376 "/>
<path id="10" d="M242 376 C242 376 250.4963 379.5532 254 379 C256.4158 378.6186 261.0116 373.0087 261 373 C260.9305 372.9478 246 373 246 373 C246 373 260 373 260 373 "/>
<path id="11" d="M270 330 C270 330 277.2 329.6 278 330 C278.2 330.1 278.1724 333.931 278 334 C276.9224 334.431 268 334 268 334 "/>
<path id="12" d="M207 328 C207 328 198.7715 326.7428 198 327 C197.8813 327.0396 197.8884 330.9665 198 331 C198.902 331.2706 208 330 208 330 "/>
<path id="13" d="M141 95 L134 84 "/>
<path id="14" d="M144 39 L156 45 "/>
<path id="15" d="M175 7 L187 13 "/>
<path id="16" d="M227 2 L226 9 "/>
<path id="17" d="M301 3 L300 13 "/>
<path id="18" d="M332 17 L326 23 "/>
<path id="19" d="M358 40 L349 51 "/>
<path id="20" d="M367 76 L355 85 "/>
<path id="21" d="M370 106 C370 106 369.615 109.8467 368 112 C364.2317 117.0244 358 122 358 122 "/>
</g>
</g>
</svg>
