<?xml version="1.0" encoding="utf-8"?>
<!DOCTYPE svg PUBLIC "-//W3C//DTD SVG 1.1//EN" "http://www.w3.org/Graphics/SVG/1.1/DTD/svg11.dtd">
<svg viewBox="0 0 800 800" preserveAspectRatio="xMinYMin meet" xmlns="http://www.w3.org/2000/svg" version="1.1">
<g fill="none" stroke="black" stroke-linecap="round" stroke-linejoin="round" stroke-width="1.0417">
<g transform="translate(87.52,202.72) scale(2.88) translate(-195,-149)">
<path id="0" d="M279 266 C279 266 276.9318 285.6137 277 286 C277.0073 286.0416 279.7554 283.1772 282 283 C296.1442 281.8833 312.8822 284.2707 315 283 C315.5006 282.6997 312 265 312 265 "/>
<path id="1" d="M280 266 L313 266 "/>
<path id="2" d="M286 268 C286 268 285.9977 276.9954 286 277 C286.001 277.002 287.7182 272.0256 288 272 C288.9915 271.9099 296.6274 276.0414 297 276 C297.0242 275.9973 296.9997 271.0003 297 271 C297.0002 270.9998 297.9252 274.9501 298 275 C298.0136 275.0091 299.3076 273.0865 300 273 C301.8079 272.774 305.8213 274.2084 306 274 C306.345 273.5975 306 266 306 266 "/>
<path id="3" d="M279 267 C279 267 279.987 260.7012 279 257 C278.4012 254.7546 275.7483 254.3946 275 252 C273.6456 247.6658 276.0337 244.559 274 241 C269.5057 233.135 261.6463 231.5862 259 224 C255.9052 215.1283 257.517 210.1606 259 198 C259.8904 190.6991 260.3977 188.4035 264 183 C267.2093 178.186 269.2968 177.2235 275 174 C280.0558 171.1424 281.1705 170.5979 287 170 C299.6827 168.6992 300.9171 169.0188 314 170 C320.4082 170.4806 322.5301 170.0715 327 173 C334.9098 178.1823 336.7017 180.8123 343 189 C345.9095 192.7824 346.4605 194.3241 347 199 C347.8192 206.0999 347.287 207.5997 346 215 C345.4015 218.4415 345.1027 219.2966 343 222 C338.5944 227.6644 337.6302 229.0589 332 233 C328.658 235.3394 325.5628 233.7789 323 236 C319.7597 238.8083 319.0276 240.8389 317 246 C313.7243 254.3383 312 264 312 264 "/>
<path id="4" d="M297 267 C297 267 298.0153 243.0866 295 226 C294.1808 221.3577 288 216 288 216 "/>
<path id="5" d="M302 264 C302 264 300.9962 224.8026 302 211 C302.0434 210.4034 306 209 306 209 "/>
<path id="6" d="M228 172 L251 185 "/>
<path id="7" d="M265 149 L269 164 "/>
<path id="8" d="M296 150 C296 150 296.1237 153.7868 297 157 C297.5477 159.0082 298.9678 160.9893 299 161 C299 161 300 158 300 158 "/>
<path id="9" d="M331 158 L330 162 "/>
<path id="10" d="M337 180 C337 180 340.1288 173.5247 344 171 C349.9899 167.0935 357.4833 165.5922 360 165 C360.0765 164.982 361 167 361 167 "/>
<path id="11" d="M362 197 C362 197 375.6327 193.7589 389 192 C394.3164 191.3005 398.7202 191.651 400 192 C400.0952 192.026 400 195 400 195 "/>
<path id="12" d="M384 227 C384 227 400.6066 227.2014 409 229 C410.2732 229.2728 412 233 412 233 "/>
<path id="13" d="M241 215 C241 215 224.1807 212.6231 215 210 C214.0437 209.7268 214.115 207.5017 213 207 C206.1105 203.8997 195 201 195 201 "/>
<path id="14" d="M257 222 C257 222 264.4418 226.2789 267 230 C268.4941 232.1732 267.159 236.4863 268 238 C268.3167 238.5701 271.2818 238.1792 272 239 C273.5361 240.7555 273.4626 243.9501 275 246 C275.5402 246.7202 277.9101 246.6181 278 247 C278.8552 250.6345 279 263 279 263 "/>
</g>
</g>
</svg>
