<?xml version="1.0" encoding="utf-8"?>
<!DOCTYPE svg PUBLIC "-//W3C//DTD SVG 1.1//EN" "http://www.w3.org/Graphics/SVG/1.1/DTD/svg11.dtd">
<svg viewBox="0 0 800 800" preserveAspectRatio="xMinYMin meet" xmlns="http://www.w3.org/2000/svg" version="1.1">
<g fill="none" stroke="black" stroke-linecap="round" stroke-linejoin="round" stroke-width="1.7425">
<g transform="translate(87.52,216.644) scale(1.7217) translate(-150,-52.1333)">
<path id="0" d="M281 113.1333 C281 113.1333 290.2431 106.4169 300 102.1333 C310.2662 97.6262 311.2583 96.552 322 95.1333 C336.5256 93.2149 338.6407 92.5762 353 95.1333 C373.5269 98.7888 375.5139 99.8231 395 108.1333 C408.4528 113.8706 416.1495 116.3099 421 124.1333 C426.6026 133.1698 427.2671 144.1952 426 158.1333 C425.1724 167.2365 421.6715 169.2829 416 179.1333 C412.3582 185.4586 412.1624 186.9269 407 191.1333 C399.8113 196.9908 398.0438 196.2346 389 201.1333 C386.0551 202.7285 385.9214 203.6022 383 204.1333 C375.7777 205.4465 374.9911 204.9766 367 205.1333 C349.5408 205.4757 347.8929 206.5781 332 205.1333 C327.7481 204.7468 327.2825 201.6686 323 201.1333 C312.6318 199.8373 310.2224 203.4647 300 201.1333 C283.5709 197.3863 283.1904 193.603 266 188.1333 C250.4282 183.1787 234 180.1333 234 180.1333 "/>
<path id="1" d="M332 91.1333 C332 91.1333 322.2824 89.7676 316 91.1333 C312.8247 91.8236 312.4407 94.6587 309 96.1333 C306.2044 97.3314 304.6481 95.7147 302 97.1333 C291.9847 102.4986 290.5348 103.5713 281 111.1333 C276.504 114.6991 277.1906 116.9904 273 120.1333 C270.0879 122.3174 268.9006 122.8265 265 123.1333 C226.4889 126.1623 184 127.1333 184 127.1333 "/>
<path id="2" d="M242 182.1333 L173 180.1333 "/>
<path id="3" d="M190 124.1333 L182 125.1333 "/>
<path id="4" d="M181 125.1333 C181 125.1333 167.0933 124.7402 167 125.1333 C165.3433 132.1152 166.0749 179.3394 167 184.1333 C167.0019 184.1433 178 182.1333 178 182.1333 "/>
<path id="5" d="M166 132.1333 C166 132.1333 161.2019 132.0516 160 133.1333 C158.0491 134.8892 156.2543 137.4884 156 141.1333 C154.9271 156.5118 156.3494 171.5789 157 176.1333 C157.0106 176.2074 160.8049 175.8894 161 176.1333 C161.3049 176.5144 160.7845 180.5945 161 181.1333 C161.0345 181.2195 163 181.1333 163 181.1333 "/>
<path id="6" d="M155 138.1333 C155 138.1333 150.4073 142.038 150 145.1333 C148.3513 157.6637 149.3908 172.3566 150 176.1333 C150.0158 176.2316 153.7393 175.433 155 176.1333 C156.7089 177.0827 159 181.1333 159 181.1333 "/>
<path id="7" d="M176 125.1333 L176 179.1333 "/>
<path id="8" d="M182 127.1333 L182 178.1333 "/>
<path id="9" d="M188 124.1333 L189 180.1333 "/>
<path id="10" d="M338 77.1333 L342 63.1333 "/>
<path id="11" d="M356 76.1333 L357 76.1333 "/>
<path id="12" d="M359 74.1333 L365 68.1333 "/>
<path id="13" d="M395 86.1333 L400 83.1333 "/>
<path id="14" d="M424 111.1333 C424 111.1333 425.9746 108.0014 428 107.1333 C431.8483 105.4841 438 105.1333 438 105.1333 "/>
<path id="15" d="M436 141.1333 C436 141.1333 445.7483 139.7187 454 141.1333 C462.2648 142.5502 471 147.1333 471 147.1333 "/>
<path id="16" d="M512 159.1333 L513 163.1333 "/>
<path id="17" d="M430 183.1333 L464 183.1333 "/>
<path id="18" d="M428 210.1333 C428 210.1333 433.4149 216.8143 436 223.1333 C437.4947 226.7871 437 232.1333 437 232.1333 "/>
<path id="19" d="M397 236.1333 L398 254.1333 "/>
<path id="20" d="M356 243.1333 L354 265.1333 "/>
<path id="21" d="M310 244.1333 L305 259.1333 "/>
<path id="22" d="M278 230.1333 L274 242.1333 "/>
<path id="23" d="M286 81.1333 L286 67.1333 "/>
<path id="24" d="M321 75.1333 L322 52.1333 "/>
<path id="25" d="M398 85.1333 L407 74.1333 "/>
</g>
</g>
</svg>
