<?xml version="1.0" encoding="utf-8"?>
<!DOCTYPE svg PUBLIC "-//W3C//DTD SVG 1.1//EN" "http://www.w3.org/Graphics/SVG/1.1/DTD/svg11.dtd">
<svg viewBox="0 0 800 800" preserveAspectRatio="xMinYMin meet" xmlns="http://www.w3.org/2000/svg" version="1.1">
<g fill="none" stroke="black" stroke-linecap="round" stroke-linejoin="round" stroke-width="0.74885">
<g transform="translate(113.56,87.52) scale(4.0062) translate(-179,-174)">
<path id="0" d="M230 195 L229 232 "/>
<path id="1" d="M253 196 L255 233 "/>
<path id="2" d="M228 235 C228 235 214.7231 236.1582 208 240 C203.7981 242.4011 201.3413 245.769 200 251 C197.0697 262.4281 196.7014 266.2742 198 279 C199.0144 288.9415 200.5094 290.7195 205 300 C207.5541 305.2786 208.9332 306.2461 213 310 C214.6158 311.4915 215.4474 311.3619 218 312 C229.2546 314.8136 229.6297 315.7904 241 317 C252.5964 318.2337 253.6319 318.5915 265 317 C277.7797 315.2108 278.8581 314.5532 291 310 C298.2109 307.2959 300.8119 306.1881 305 302 C307.2844 299.7156 307.5772 297.3689 308 293 C309.0012 282.6541 309.4639 280.9548 308 271 C307.1526 265.2374 304.5511 264.9458 303 259 C301.6872 253.9675 303.5664 252.6991 302 248 C299.8808 241.6424 297.7544 235.7712 295 235 C283.7959 231.8629 252 234 252 234 "/>
<path id="3" d="M201 255 L180 254 "/>
<path id="4" d="M199 270 C199 270 193.0636 270.73 191 273 C184.9918 279.609 179 292 179 292 "/>
<path id="5" d="M204 297 L197 312 "/>
<path id="6" d="M241 318 L227 330 "/>
<path id="7" d="M279 318 L303 322 "/>
<path id="8" d="M312 288 L321 285 "/>
<path id="9" d="M308 262 L322 258 "/>
<path id="10" d="M304 242 L316 239 "/>
<path id="11" d="M232 195 C232 195 223.5595 195.712 223 195 C221.7681 193.4321 219.7965 183.2977 221 181 C222.2832 178.5503 227.888 175.9447 234 174 C237.6125 172.8506 239.1986 172.8596 243 174 C253.0103 177.0031 262.9161 181.1419 264 183 C264.5568 183.9545 257 198 257 198 "/>
</g>
</g>
</svg>
