<?xml version="1.0" encoding="utf-8"?>
<!DOCTYPE svg PUBLIC "-//W3C//DTD SVG 1.1//EN" "http://www.w3.org/Graphics/SVG/1.1/DTD/svg11.dtd">
<svg viewBox="0 0 800 800" preserveAspectRatio="xMinYMin meet" xmlns="http://www.w3.org/2000/svg" version="1.1">
<g fill="none" stroke="black" stroke-linecap="round" stroke-linejoin="round" stroke-width="1.8097">
<g transform="translate(87.52,167.0905) scale(1.6577) translate(-133,-25)">
<path id="0" d="M324 92 C324 92 308.731 89.3897 295 90 C287.3166 90.3415 286.4442 91.105 279 94 C268.8703 97.9393 267.5563 98.2958 259 104 C255.0427 106.6382 254.4392 107.7869 252 112 C249.3052 116.6547 249.0054 117.4701 248 123 C245.1084 138.9037 245.3147 139.566 244 156 C243.3292 164.3847 242.3027 165.4563 244 173 C246.4986 184.1048 247.4318 187.3692 253 196 C255.9182 200.5232 259.3824 199.3824 264 204 C272.9922 212.9922 274.38 213.769 281 224 C284.6806 229.6882 285.2858 231.1256 286 238 C289.1143 267.9756 285.6052 288.3639 289 301 C289.4272 302.5902 296.5441 303.9924 304 305 C314.6199 306.4351 317.0743 307.1901 326 306 C329.5376 305.5283 331.2093 303.7907 334 301 C335.932 299.068 336.8192 297.7127 337 295 C337.6981 284.5286 334.4448 281.6275 336 271 C337.1752 262.9696 340.8826 262.4694 343 254 C345.202 245.1918 341.998 241.2042 345 235 C347.7498 229.317 352.5033 229.5538 358 223 C365.1767 214.4431 370.1653 212.0686 371 204 C373.7728 177.1958 371.6678 166.8793 367 136 C365.6827 127.2858 363.8003 125.3357 358 118 C347.6615 104.9248 333 93 333 93 "/>
<path id="1" d="M289 272 L333 271 "/>
<path id="2" d="M290 277 C290 277 294.6913 280.2507 299 281 C305.2215 282.082 313 281 313 281 "/>
<path id="3" d="M292 286 L334 290 "/>
<path id="4" d="M301 292 C301 292 314.6608 291.7322 326 294 C330.9107 294.9821 335.8659 298.8435 336 299 C336.0141 299.0165 332 301 332 301 "/>
<path id="5" d="M311 270 L308 223 "/>
<path id="6" d="M308 217 C308 217 304.2997 220.8012 304 222 C303.8751 222.4995 305.1613 224.6406 306 225 C307.2763 225.547 310.9416 225.1169 311 225 C311.1169 224.7662 309.3416 219.427 309 219 C308.973 218.9663 307 220 307 220 "/>
<path id="7" d="M235 236 C235 236 214.2559 232.0694 200 224 C190.3845 218.5573 191.8509 213.4985 182 206 C158.9681 188.4683 133 173 133 173 "/>
<path id="8" d="M178 168 C178 168 180.3641 155.0291 179 143 C174.9788 107.5406 167 71 167 71 "/>
<path id="9" d="M207 94 L214 71 "/>
<path id="10" d="M242 82 C242 82 250.7691 59.8271 261 39 C264.6012 31.669 270 25 270 25 "/>
<path id="11" d="M328 64 C328 64 331.7363 56.3067 337 52 C347.1461 43.6987 361 37 361 37 "/>
<path id="12" d="M375 100 L421 87 "/>
<path id="13" d="M412 181 C412 181 416.0913 182.8739 420 183 C446.1726 183.8443 474 183 474 183 "/>
<path id="14" d="M427 243 C427 243 425.4535 247.9963 426 250 C426.4135 251.5163 428.0904 253.5908 430 254 C456.8747 259.7589 463.7268 258.5454 496 265 C503.0982 266.4196 510 270 510 270 "/>
</g>
</g>
</svg>
