<?xml version="1.0" encoding="utf-8"?>
<!DOCTYPE svg PUBLIC "-//W3C//DTD SVG 1.1//EN" "http://www.w3.org/Graphics/SVG/1.1/DTD/svg11.dtd">
<svg viewBox="0 0 800 800" preserveAspectRatio="xMinYMin meet" xmlns="http://www.w3.org/2000/svg" version="1.1">
<g fill="none" stroke="black" stroke-linecap="round" stroke-linejoin="round" stroke-width="1.8433">
<g transform="translate(121.6975,87.52) scale(1.6275) translate(-134,-8)">
<path id="0" d="M234 300 C234 300 214.1544 274.6073 198 248 C189.0088 233.191 189.2024 232.3099 183 216 C175.8338 197.1556 173.8264 196.0785 171 177 C168.0888 157.3497 167.6518 153.8016 171 135 C173.6559 120.0863 176.2555 118.4564 184 104 C190.9577 91.0123 191.675 90.1298 201 79 C206.6387 72.27 207.6559 70.4272 215 67 C228.1893 60.845 230.8562 59.239 246 58 C283.6969 54.9157 286.8339 55.5032 325 58 C338.7485 58.8994 340.6569 59.7101 353 65 C363.7504 69.6073 364.612 71.1767 374 79 C382.1426 85.7855 383.4179 86.4121 389 95 C395.7527 105.3888 398.0473 107.9349 400 119 C402.0058 130.3662 401.289 133.8114 398 146 C393.2172 163.7244 392.3194 165.5801 383 182 C371.836 201.6699 368.2958 200.5067 356 220 C347.9942 232.6922 348.503 233.3437 342 247 C338.5508 254.2434 337.1125 254.7689 336 262 C334.3232 272.8991 338.5268 281.2437 336 286 C334.2069 289.3753 327.6192 291.0448 319 294 C310.5429 296.8996 309.9353 297.2297 301 298 C281.475 299.6832 280.551 297.1671 261 299 C249.0682 300.1186 237 304 237 304 "/>
<path id="1" d="M266 299 C266 299 267.026 295.109 266 293 C259.2017 279.0258 255.1336 277.9316 248 262 C240.4439 245.1248 242.7998 243.4851 236 226 C232.405 216.7558 230.4031 217.075 227 208 C224.5919 201.5785 224.7692 200.923 224 194 C223.3023 187.721 223.0989 186.106 224 181 C224.3139 179.221 225.741 177.4578 227 177 C229.261 176.1778 231.7242 176.244 235 177 C237.3309 177.5379 237.8335 178.2274 240 180 C243.1705 182.594 244.4394 183.1018 246 186 C247.2744 188.3668 247.2552 192.5535 247 193 C246.8866 193.1985 242.0625 193.1875 242 193 C241.4375 191.3125 240.1458 182.4501 242 178 C243.6276 174.0938 247.5933 171.2033 252 169 C254.4313 167.7844 258.286 167.8573 260 169 C262.9281 170.9521 265.0156 174.4642 267 179 C267.9115 181.0834 267.3706 184.6824 267 185 C266.4956 185.4324 260.2522 185.3963 260 185 C259.3772 184.0213 258.9711 178.373 260 174 C260.6493 171.2406 261.8218 169.4002 264 168 C267.3069 165.8742 269.1079 165.5645 274 165 C281.5654 164.1271 289.0148 163.8989 290 165 C291.3691 166.5302 291.9063 176.4475 291 184 C290.6889 186.5922 288.692 189.154 287 190 C285.0663 190.9668 279.3902 190.4878 279 190 C278.3902 189.2378 277.5226 181.699 279 180 C283.4901 174.8364 289.9141 171.073 299 167 C302.1661 165.5807 305.4431 165.9042 308 167 C310.151 167.9219 311.8784 170.3082 313 173 C313.8325 174.9981 313.375 178.625 313 179 C312.625 179.375 307.15 179.3 307 179 C306.4 177.8 305.4173 170.693 307 167 C308.6958 163.0432 312.4719 159.6603 316 158 C318.0071 157.0555 323.8431 158.477 324 159 C325.3521 163.507 327.0173 174.7753 325 188 C322.7954 202.4524 320.7233 203.6917 315 218 C312.9127 223.2183 310.8108 222.8089 309 228 C303.5884 243.5134 302.4316 244.7896 300 261 C298.0887 273.7418 299.2481 276.7222 300 288 C300.0873 289.3088 302 291 302 291 "/>
<path id="2" d="M241 306 C241 306 236.8896 309.7976 236 313 C234.8335 317.1992 234.9222 322.4911 236 324 C236.9938 325.3913 244.2026 325.9216 246 327 C246.2742 327.1645 246.5198 329.2852 246 330 C243.6056 333.2923 239.5623 334.4849 238 338 C236.648 341.0419 237.0381 346.958 238 348 C239.354 349.4668 249.6079 349.998 250 351 C250.9591 353.4512 245.5515 368.3928 247 371 C248.3431 373.4176 256.2953 376.3965 265 378 C274.0253 379.6626 279.811 378.4942 285 378 C285.3089 377.9706 285.631 376.0496 286 376 C305.4688 373.3848 322.7512 374.318 352 369 C357.3359 368.0298 360.8786 364.8928 363 362 C364.1264 360.464 363.8333 354.5667 363 354 C358.2328 350.7583 341.8165 348.0214 338 345 C337.1783 344.3495 337.2476 338.1862 339 335 C341.5746 330.3189 346.1979 329.2032 349 325 C349.8406 323.739 349.7611 321.0465 349 320 C347.2011 317.5265 343.5855 317.1027 341 314 C339.4351 312.1221 339.4177 310.924 339 308 C338.4684 304.2786 337.9551 301.6979 339 300 C340.296 297.8939 347.031 295.0868 347 295 C346.8026 294.4474 338.8079 290.4873 334 286 C332.5022 284.6021 332 281 332 281 "/>
<path id="3" d="M256 326 C256 326 264.4699 327.2817 272 326 C287.2304 323.4076 289.1161 324.2112 303 318 C325.7383 307.8276 348 292 348 292 "/>
<path id="4" d="M258 351 C258 351 261.2018 353.7202 264 354 C274.66 355.066 276.8914 356.0366 288 354 C305.5963 350.774 307.0382 349.8442 324 343 C334.8394 338.6262 345 331 345 331 "/>
<path id="5" d="M295 379 C295 379 298.7959 379.577 300 381 C303.1068 384.6717 303.761 389.5371 306 392 C306.4948 392.5443 309.9706 392.1236 310 392 C310.6564 389.243 311 371 311 371 "/>
<path id="6" d="M160 284 C160 284 211.392 283.0496 212 283 C212.0322 282.9974 209 280 209 280 "/>
<path id="7" d="M136 186 C136 186 151.9219 194.8903 168 201 C176.3248 204.1634 186 205 186 205 "/>
<path id="8" d="M134 36 C134 36 139.5002 34.8236 142 36 C145.9887 37.877 146.8602 39.6913 151 44 C171.2502 65.0767 191 87 191 87 "/>
<path id="9" d="M246 8 C246 8 249.9404 12.9667 251 18 C255.6473 40.0747 254.359 42.6987 258 65 C258.1636 66.0021 258.681 66.9625 259 67 C263.1317 67.4861 275 67 275 67 "/>
<path id="10" d="M364 25 C364 25 366.6547 32.9119 365 37 C359.6791 50.1457 349.7758 60.8932 347 67 C346.881 67.2617 350 70 350 70 "/>
<path id="11" d="M456 82 C456 82 446.9967 94.6258 436 104 C417.1094 120.1035 395 134 395 134 "/>
<path id="12" d="M353 234 C353 234 367.2097 236.5492 379 234 C402.3354 228.9545 403.3738 226.7912 427 218 C446.2472 210.8382 446.1273 208.9328 465 202 C470.0474 200.1459 474.2007 200.6543 476 200 C476.1116 199.9594 476 198 476 198 "/>
</g>
</g>
</svg>
