<?xml version="1.0" encoding="utf-8"?>
<!DOCTYPE svg PUBLIC "-//W3C//DTD SVG 1.1//EN" "http://www.w3.org/Graphics/SVG/1.1/DTD/svg11.dtd">
<svg viewBox="0 0 800 800" preserveAspectRatio="xMinYMin meet" xmlns="http://www.w3.org/2000/svg" version="1.1">
<g fill="none" stroke="black" stroke-linecap="round" stroke-linejoin="round" stroke-width="1.0609">
<g transform="translate(237.3973,87.52) scale(2.8279) translate(-238,-200)">
<path id="0" d="M275 368 L275 405 "/>
<path id="1" d="M319 370 L319 407 "/>
<path id="2" d="M277 409 C277 409 286.1645 412.6195 295 414 C301.5862 415.0291 303.7225 415.4393 309 414 C312.6325 413.0093 317 408 317 408 "/>
<path id="3" d="M278 375 C278 375 287.3776 375.2238 291 376 C291.3916 376.0839 291.6931 377.9721 292 378 C297.4528 378.4957 304.6316 379.4944 313 378 C316.1453 377.4383 320 373 320 373 "/>
<path id="4" d="M282 391 C282 391 293.3335 392.6667 302 392 C304.7104 391.7915 308 389 308 389 "/>
<path id="5" d="M288 403 L304 403 "/>
<path id="6" d="M277 370 C277 370 276.8716 364.0227 277 364 C281.1216 363.2727 298.8149 365.5622 311 364 C313.0217 363.7408 316 359 316 359 "/>
<path id="7" d="M316 359 L316 373 "/>
<path id="8" d="M281 366 L281 342 "/>
<path id="9" d="M316 363 L309 334 "/>
<path id="10" d="M282 363 L284 342 "/>
<path id="11" d="M283 346 C283 346 282.6891 343.4594 282 343 C279.703 341.4687 277.2298 342.2511 274 340 C261.5365 331.3134 258.5803 330.7074 249 320 C243.109 313.4159 243.5367 311.0024 240 302 C238.2287 297.4913 238.2534 296.9407 238 292 C237.2727 277.8175 236.4766 276.9649 238 263 C239.4002 250.1646 238.5048 247.2577 244 237 C252.0614 221.952 255.7427 218.926 268 207 C272.3411 202.7762 274.7739 201.7924 281 201 C300.0566 198.5746 310.507 195.8357 323 200 C330.4958 202.4986 334.277 209.9551 341 221 C347.5401 231.7444 348.7669 233.7182 351 246 C354.4442 264.9432 353.3821 267.8937 353 287 C352.9155 291.2262 352.3454 292.3143 350 296 C342.3773 307.9785 341.9104 309.3273 332 320 C322.872 329.8302 311 338 311 338 "/>
<path id="12" d="M281 415 C281 415 281.5529 420.7206 282 421 C282.6 421.375 288.7912 420.3758 289 420 C289.2942 419.4704 287 412 287 412 "/>
<path id="13" d="M310 413 C310 413 310.4837 417.7132 311 418 C312.0933 418.6074 318.9418 418.1309 319 418 C319.1182 417.7341 315 409 315 409 "/>
</g>
</g>
</svg>
