<?xml version="1.0" encoding="utf-8"?>
<!DOCTYPE svg PUBLIC "-//W3C//DTD SVG 1.1//EN" "http://www.w3.org/Graphics/SVG/1.1/DTD/svg11.dtd">
<svg viewBox="0 0 800 800" preserveAspectRatio="xMinYMin meet" xmlns="http://www.w3.org/2000/svg" version="1.1">
<g fill="none" stroke="black" stroke-linecap="round" stroke-linejoin="round" stroke-width="1.1089">
<g transform="translate(188.9745,87.52) scale(2.7055) translate(-168,-74)">
<path id="0" d="M229 74 C229 74 208.7442 77.4575 196 85 C187.403 90.088 186.9556 93.625 180 103 C175.7635 108.71 174.7892 109.4397 173 116 C169.1162 130.2406 169.7886 131.6181 168 147 C167.3204 152.8447 166.4087 153.9988 168 159 C172.8341 174.193 172.7673 177.869 182 191 C193.8701 207.882 198.8782 206.4672 213 223 C218.9264 229.9382 220.7849 231.1618 223 239 C226.6297 251.8435 225.9111 268.5024 226 269 C226.0048 269.0268 228 267 228 267 "/>
<path id="1" d="M231 75 C231 75 254.9213 77.4026 277 83 C289.658 86.2091 291.194 87.1058 302 93 C306.3869 95.3929 307.5267 96.6031 310 101 C315.8616 111.4206 316.2093 113.628 320 125 C320.8321 127.4963 319.775 130.325 320 131 C320.025 131.075 321.9947 130.9613 322 131 C322.5658 135.1023 325.6508 148.7193 324 160 C323.2426 165.1755 320.8267 167.4847 316 172 C306.2332 181.1367 301.7717 179.9359 293 189 C288.3583 193.7965 288.0467 195.9297 286 203 C282.7872 214.0988 284.9954 215.6176 282 227 C280.1373 234.0781 277.1523 234.2785 276 241 C274.3899 250.3922 276 262 276 262 "/>
<path id="2" d="M278 263 C278 263 241.713 264.3199 236 265 C235.9517 265.0058 236.0585 267.9883 236 268 C235.0449 268.191 225.9956 266.9496 226 267 C226.0587 267.6747 230.8781 283.6622 238 291 C244.0701 297.254 249.706 298.8757 259 301 C264.4053 302.2355 268.965 301.5219 273 299 C277.7957 296.0027 281.2128 291.8976 283 286 C285.2297 278.6419 283.4942 271.189 283 266 C282.9706 265.6911 281 265 281 265 "/>
<path id="3" d="M286 275 L233 275 "/>
<path id="4" d="M285 280 C285 280 281.9763 283.9159 280 284 C263.9785 284.6818 238 282 238 282 "/>
<path id="5" d="M280 290 C280 290 262.5449 285.6926 248 285 C243.5528 284.7882 238.6474 287.9353 238 288 C237.9874 288.0013 238 286 238 286 "/>
<path id="6" d="M265 302 C265 302 263.0117 301.9649 263 302 C262.9532 302.1403 263.5818 304.8208 264 305 C265.0977 305.4705 269.325 305.225 270 305 C270.075 304.975 270 303 270 303 C270 303 270 305 270 305 "/>
</g>
</g>
</svg>
