<?xml version="1.0" encoding="utf-8"?>
<!DOCTYPE svg PUBLIC "-//W3C//DTD SVG 1.1//EN" "http://www.w3.org/Graphics/SVG/1.1/DTD/svg11.dtd">
<svg viewBox="0 0 800 800" preserveAspectRatio="xMinYMin meet" xmlns="http://www.w3.org/2000/svg" version="1.1">
<g fill="none" stroke="black" stroke-linecap="round" stroke-linejoin="round" stroke-width="0.96486">
<g transform="translate(87.52,110.8394) scale(3.1093) translate(-185,-27)">
<path id="0" d="M212 169 C212 169 219.6865 161.4362 222 154 C225.9911 141.1714 222.1625 137.8151 226 124 C229.3373 111.9858 230.8472 111.5364 237 100 C242.7545 89.2104 243.0928 88.8154 250 79 C252.342 75.6719 252.8182 75.0454 256 73 C259.2048 70.9397 260.1066 70.3893 264 70 C279.0575 68.4942 281.0727 67.9822 296 69 C301.7372 69.3912 302.9756 70.4878 308 73 C310.1533 74.0767 310.9634 74.8231 312 77 C315.486 84.3207 316.9691 85.7526 318 94 C319.8005 108.4039 319.8885 111.1513 318 125 C317.1582 131.173 315.736 132.5206 312 138 C308.6913 142.8528 307.9701 143.5831 303 147 C292.5485 154.1854 291.6992 153.9415 280 160 C263.7547 168.4128 263.4779 169.3387 247 176 C240.6487 178.5676 237.885 177.1681 233 179 C231.9907 179.3785 230.8776 181.7551 231 182 C231.4898 182.9795 234.3204 185.782 237 187 C238.6195 187.7361 241.6189 186.6951 242 187 C242.2439 187.1951 242.678 189.644 242 191 C238.8643 197.2714 238.1075 199.0861 233 205 C229.0974 209.5188 225.5755 213.0858 223 213 C217.6286 212.821 211.3767 209.6666 203 204 C195.4638 198.902 195.5329 195.4441 189 190 C187.7698 188.9748 185.0973 189.3244 185 189 C184.6152 187.7172 184.5707 183.7519 186 180 C188.2346 174.1341 190.0884 169.294 193 168 C197.7214 165.9016 213 168 213 168 "/>
<path id="1" d="M241 37 L246 46 "/>
<path id="2" d="M279 27 L281 39 "/>
<path id="3" d="M360 39 L342 57 "/>
<path id="4" d="M320 27 L320 44 "/>
<path id="5" d="M356 111 L386 111 "/>
<path id="6" d="M357 83 L382 79 "/>
<path id="7" d="M336 143 L355 145 "/>
</g>
</g>
</svg>
