<?xml version="1.0" encoding="utf-8"?>
<!DOCTYPE svg PUBLIC "-//W3C//DTD SVG 1.1//EN" "http://www.w3.org/Graphics/SVG/1.1/DTD/svg11.dtd">
<svg viewBox="0 0 800 800" preserveAspectRatio="xMinYMin meet" xmlns="http://www.w3.org/2000/svg" version="1.1">
<g fill="none" stroke="black" stroke-linecap="round" stroke-linejoin="round" stroke-width="1.4929">
<g transform="translate(126.7056,87.52) scale(2.0095) translate(-133.5,-29.6667)">
<path id="0" d="M196.5 229.6667 C196.5 229.6667 194.1933 222.4374 190.5 216.6667 C186.4646 210.3614 183.9553 211.106 180.5 204.6667 C173.4487 191.5257 170.8364 189.2177 168.5 175.6667 C166.3451 163.1685 167.9452 160.2922 170.5 146.6667 C172.2666 137.2448 173.1416 136.3834 177.5 127.6667 C180.8899 120.887 181.2915 120.2225 186.5 114.6667 C195.8997 104.6403 196.426 104.0926 207.5 95.6667 C219.1104 86.8327 219.8612 84.8158 232.5 79.6667 C245.1091 74.5296 247.1806 75.8146 261.5 73.6667 C266.768 72.8765 267.5872 72.5749 272.5 73.6667 C280.2413 75.387 280.9972 75.9153 288.5 79.6667 C302.7158 86.7746 305.5268 86.1248 316.5 95.6667 C326.6764 104.5157 327.3226 107.3215 334.5 119.6667 C339.3043 127.9301 340.6873 129.592 341.5 138.6667 C343.4837 160.8184 343.7428 165.5882 340.5 186.6667 C339.2619 194.7142 336.8578 195.9277 331.5 203.6667 C319.1168 221.5535 319.0416 224.4218 304.5 238.6667 C296.2583 246.7402 292.484 247.0313 282.5 251.6667 C280.3633 252.6587 278.9482 250.8192 276.5 251.6667 C267.068 254.9316 256.5 260.6667 256.5 260.6667 "/>
<path id="1" d="M197.5 231.6667 C197.5 231.6667 197.0767 241.7655 194.5 250.6667 C191.7356 260.2163 186.5 269.6667 186.5 269.6667 "/>
<path id="2" d="M258.5 263.6667 C258.5 263.6667 253.0093 263.1332 250.5 264.6667 C245.8053 267.5357 244.6754 269.2066 240.5 274.6667 C231.9266 285.8781 224.5 298.6667 224.5 298.6667 "/>
<path id="3" d="M185.5 269.6667 C185.5 269.6667 195.3254 283.3507 206.5 291.6667 C215.3034 298.2181 228.5 301.6667 228.5 301.6667 "/>
<path id="4" d="M180.5 276.6667 C180.5 276.6667 188.5224 287.7913 197.5 297.6667 C203.3657 304.1189 203.7666 304.7696 210.5 309.6667 C214.1907 312.3508 219.5 313.6667 219.5 313.6667 "/>
<path id="5" d="M170.5 285.6667 C170.5 285.6667 182.29 301.4002 195.5 313.6667 C202.549 320.2122 212.5 324.6667 212.5 324.6667 "/>
<path id="6" d="M164.5 294.6667 C164.5 294.6667 171.5104 305.3921 175.5 309.6667 C175.9421 310.1404 177.958 309.174 178.5 309.6667 C181.5875 312.4735 181.9197 315.765 186.5 319.6667 C194.839 326.7702 205.5 332.6667 205.5 332.6667 "/>
<path id="7" d="M153.5 301.6667 C153.5 301.6667 154.4034 305.8301 156.5 308.6667 C162.4931 316.7749 163.103 317.2697 170.5 324.6667 C175.4313 329.598 176.2369 330.7427 181.5 333.6667 C183.9853 335.0474 185.8003 333.4068 188.5 334.6667 C192.4049 336.4889 196.5 340.6667 196.5 340.6667 "/>
<path id="8" d="M156.5 303.6667 C156.5 303.6667 158.7414 300.3701 160.5 299.6667 C162.3842 298.913 166.5 299.6667 166.5 299.6667 "/>
<path id="9" d="M166.5 298.6667 C166.5 298.6667 165.8661 293.681 166.5 292.6667 C167.0415 291.8003 171.5 290.6667 171.5 290.6667 "/>
<path id="10" d="M171.5 290.6667 C171.5 290.6667 170.7626 285.486 171.5 284.6667 C172.987 283.0144 180.5 280.6667 180.5 280.6667 "/>
<path id="11" d="M180.5 280.6667 C180.5 280.6667 179.944 276.445 180.5 275.6667 C181.1195 274.7994 185.5 273.6667 185.5 273.6667 "/>
<path id="12" d="M225.5 302.6667 C225.5 302.6667 225.0406 307.972 223.5 309.6667 C221.5306 311.8331 215.5 313.6667 215.5 313.6667 "/>
<path id="13" d="M215.5 313.6667 C215.5 313.6667 217.475 313.5917 217.5 313.6667 C217.725 314.3417 217.9909 316.9667 217.5 319.6667 C217.0612 322.0803 216.3228 323.8439 215.5 324.6667 C215.1474 325.0193 212.5 324.6667 212.5 324.6667 "/>
<path id="14" d="M211.5 324.6667 C211.5 324.6667 211.3394 328.8273 210.5 329.6667 C209.3808 330.7859 204.5 331.6667 204.5 331.6667 "/>
<path id="15" d="M204.5 331.6667 L198.5 338.6667 "/>
<path id="16" d="M165.5 320.6667 C165.5 320.6667 162.7867 321.0932 162.5 321.6667 C161.3532 323.9604 159.9156 329.717 160.5 330.6667 C161.2638 331.9079 165.6969 333.3858 170.5 334.6667 C172.6701 335.2454 174.6338 335.0998 175.5 334.6667 C175.9331 334.4501 176.4993 331.6673 176.5 331.6667 C176.5003 331.6663 176.6116 333.6261 176.5 333.6667 C174.7007 334.321 169.3157 335.9211 165.5 335.6667 C164.0252 335.5684 162.2286 333.9417 161.5 332.6667 C160.9486 331.7017 161.5 328.6667 161.5 328.6667 "/>
<path id="17" d="M192.5 277.6667 C192.5 277.6667 199.3794 271.2044 203.5 263.6667 C219.4361 234.5152 233.5 202.6667 233.5 202.6667 "/>
<path id="18" d="M210.5 294.6667 L266.5 214.6667 "/>
<path id="19" d="M235.5 201.6667 L242.5 204.6667 "/>
<path id="20" d="M260.5 212.6667 L266.5 214.6667 "/>
<path id="21" d="M243.5 206.6667 C243.5 206.6667 244.8742 202.9349 245.5 202.6667 C246.2702 202.3366 250.3893 203.3069 250.5 203.6667 C251.0098 205.3236 250.0425 214.0392 249.5 215.6667 C249.456 215.7986 246.635 215.8467 246.5 215.6667 C246.26 215.3467 245.8804 213.0298 246.5 211.6667 C247.9364 208.5066 248.8723 206.8166 251.5 204.6667 C253.3706 203.1362 257.404 202.5432 257.5 202.6667 C257.9241 203.2119 258.0746 212.1069 258.5 213.6667 C258.5206 213.7421 260.5 213.6667 260.5 213.6667 "/>
<path id="22" d="M163.5 184.6667 L136.5 185.6667 "/>
<path id="23" d="M157.5 147.6667 C157.5 147.6667 142.7387 148.4804 136.5 147.6667 C135.7896 147.574 134.5 144.6667 134.5 144.6667 "/>
<path id="24" d="M165.5 121.6667 C165.5 121.6667 158.6066 121.3616 154.5 118.6667 C144.1098 111.8481 133.5 100.6667 133.5 100.6667 "/>
<path id="25" d="M182.5 94.6667 L163.5 62.6667 "/>
<path id="26" d="M209.5 76.6667 C209.5 76.6667 206.572 72.247 205.5 67.6667 C201.2235 49.3942 198.5 29.6667 198.5 29.6667 "/>
<path id="27" d="M251.5 60.6667 L253.5 35.6667 "/>
<path id="28" d="M291.5 62.6667 L319.5 30.6667 "/>
<path id="29" d="M330.5 77.6667 L372.5 47.6667 "/>
<path id="30" d="M353.5 105.6667 C353.5 105.6667 364.5922 102.4387 373.5 97.6667 C377.8098 95.3578 381.5 90.6667 381.5 90.6667 "/>
<path id="31" d="M361.5 134.6667 L390.5 128.6667 "/>
<path id="32" d="M371.5 169.6667 L405.5 169.6667 "/>
<path id="33" d="M367.5 198.6667 C367.5 198.6667 373.7058 204.1666 380.5 207.6667 C389.7924 212.4537 400.5 215.6667 400.5 215.6667 "/>
<path id="34" d="M335.5 240.6667 C335.5 240.6667 337.8134 240.1385 338.5 240.6667 C342.549 243.7813 344.2889 245.2273 348.5 250.6667 C356.057 260.4278 362.5 271.6667 362.5 271.6667 "/>
<path id="35" d="M316.5 264.6667 L331.5 299.6667 "/>
<path id="36" d="M279.5 280.6667 L285.5 295.6667 "/>
</g>
</g>
</svg>
