<?xml version="1.0" encoding="utf-8"?>
<!DOCTYPE svg PUBLIC "-//W3C//DTD SVG 1.1//EN" "http://www.w3.org/Graphics/SVG/1.1/DTD/svg11.dtd">
<svg viewBox="0 0 800 800" preserveAspectRatio="xMinYMin meet" xmlns="http://www.w3.org/2000/svg" version="1.1">
<g fill="none" stroke="black" stroke-linecap="round" stroke-linejoin="round" stroke-width="1.1569">
<g transform="translate(195.1376,87.52) scale(2.5932) translate(-217,-107)">
<path id="0" d="M257 265 C257 265 261.0206 265.0288 261 265 C260.6745 264.5443 247.5751 251.6425 237 237 C228.4077 225.103 227.3561 224.1224 222 211 C217.8247 200.7706 218.322 199.3694 217 188 C215.8788 178.3573 215.8061 177.2529 217 168 C217.6875 162.6721 218.3878 162.0869 221 157 C227.7441 143.8668 227.6065 142.5022 236 131 C240.4884 124.8492 241.5415 123.1633 248 120 C264.1082 112.1102 267.2312 110.2307 285 107 C298.0086 104.6348 303.6204 103.7778 314 108 C327.8913 113.6507 331.7443 118.2336 344 131 C354.4765 141.913 354.6176 145.1779 362 158 C363.2993 160.2566 361.7889 161.5778 363 164 C367.8444 173.6888 372.0538 174.6703 375 184 C377.2292 191.0592 375.918 195.5742 375 202 C374.8251 203.224 372.3733 203.5816 372 205 C370.3722 211.1858 372.15 213.69 370 221 C367.3621 229.969 365.396 233.623 362 239 C361.4805 239.8225 359.0807 238.9965 358 240 C353.364 244.3048 353.5954 248.4251 348 252 C337.5394 258.6832 326.8374 258.1626 322 263 C319.7774 265.2226 322.1792 271.2171 321 279 C319.7146 287.4838 319.8262 288.7774 317 296 C315.7888 299.0954 312.8962 299.162 312 302 C310.4254 306.9863 312.5408 313.3629 311 315 C308.9976 317.1275 303.2796 318.545 296 319 C280.2773 319.9827 266.2423 320.5012 263 318 C260.8823 316.3664 261 304.6242 261 292 C261 286.1735 263.2462 283.6924 263 280 C262.9336 279.0043 260.5035 278.5104 260 277 C257.9862 270.9585 257 262 257 262 "/>
<path id="1" d="M265 314 C265 314 260.6841 327.5435 262 335 C262.9377 340.3138 268.3431 346.6016 271 348 C272.4123 348.7433 276.3151 345.1464 281 345 C291.182 344.6818 298.4994 348.7071 303 347 C305.5279 346.0411 308.3742 340.3 310 334 C312.0048 326.2314 311 316 311 316 "/>
<path id="2" d="M270 332 C270 332 273.1439 331.3151 274 332 C278.409 335.5272 279.5668 339.7742 285 344 C287.2861 345.7781 292 346 292 346 "/>
<path id="3" d="M274 326 C274 326 286.4563 334.4311 297 339 C299.5776 340.117 304 339 304 339 "/>
<path id="4" d="M257 263 C257 263 260.3293 266.5791 264 268 C274.9724 272.2474 276.636 272.9946 288 275 C292.4238 275.7807 294.628 275.5868 298 274 C301.3152 272.4399 301.9276 268.1319 305 267 C308.8489 265.582 317 267 317 267 "/>
<path id="5" d="M292 271 C292 271 285.5004 264.3578 284 262 C283.8548 261.7718 285.1687 260.3037 285 260 C282.4171 255.3507 278.5446 252.1802 274 244 C271.2824 239.1083 273.0433 235.9262 270 233 C262.5966 225.8813 248.9798 222.5925 248 219 C246.6639 214.1011 255.1231 195.1648 258 189 C258.1549 188.6681 261.3006 188.3472 262 189 C266.2081 192.9276 269.5807 195.7591 273 203 C277.4238 212.3681 278.5002 224.7369 279 225 C279.1901 225.1 285.3756 217.7317 292 213 C295.1148 210.7752 296.3353 210.4581 300 210 C303.4459 209.5693 307.2053 209.9404 308 211 C310.0434 213.7246 312 220.2644 312 226 C312 229.059 309.4704 233.4583 308 234 C304.9032 235.1409 298.309 231.9888 293 233 C290.5077 233.4747 286.8839 237.5356 287 238 C287.5887 240.355 295.1233 246.2005 298 253 C299.6101 256.8056 298.8145 263.1114 298 264 C297.1793 264.8953 290.8676 265.7252 287 265 C284.9432 264.6144 282.088 261 282 261 C282 261 281.3599 264.0855 282 265 C283.7443 267.4919 287.1108 268.571 289 271 C289.4952 271.6367 289 274 289 274 "/>
</g>
</g>
</svg>
