<?xml version="1.0" encoding="utf-8"?>
<!DOCTYPE svg PUBLIC "-//W3C//DTD SVG 1.1//EN" "http://www.w3.org/Graphics/SVG/1.1/DTD/svg11.dtd">
<svg viewBox="0 0 800 800" preserveAspectRatio="xMinYMin meet" xmlns="http://www.w3.org/2000/svg" version="1.1">
<g fill="none" stroke="black" stroke-linecap="round" stroke-linejoin="round" stroke-width="2.8322">
<g transform="translate(87.52,235.8156) scale(1.0593) translate(-16,-24.7333)">
<path id="0" d="M326 27.7333 C326 27.7333 320.4258 25.8188 315 25.7333 C257.9459 24.8348 256.0777 22.9491 199 25.7333 C175.1896 26.8948 174.3156 28.2829 151 33.7333 C136.3488 37.1583 135.9696 37.7757 122 43.7333 C102.2189 52.1694 100.8653 51.5999 83 62.7333 C67.2023 72.5783 66.3934 73.9932 53 86.7333 C46.5939 92.8269 48.1303 95.1315 42 101.7333 C35.4529 108.784 33.387 107.7657 27 114.7333 C22.8415 119.2699 21.7406 120.195 20 125.7333 C16.6695 136.3305 17.1915 137.8179 16 149.7333 C15.2187 157.5467 13.6771 159.6681 16 165.7333 C21.5014 180.098 23.7173 183.88 34 196.7333 C40.4323 204.7738 42.5423 205.3289 52 210.7333 C62.8088 216.9098 63.927 217.2839 76 220.7333 C87.7519 224.091 88.6 224.2698 101 224.7333 C141.4302 226.2447 142.7768 221.8806 183 224.7333 C212.289 226.8106 212.4133 231.2729 242 234.7333 C297.6479 241.2419 298.4009 238.69 354 244.7333 C367.0501 246.1518 367.152 249.3189 380 249.7333 C458.5931 252.2686 462.4286 253.1959 540 250.7333 C554.1704 250.2835 557.6118 249.8342 569 243.7333 C582.6733 236.4083 588.1687 231.8487 596 220.7333 C600.4387 214.4332 597.1435 209.7313 600 199.7333 C602.0272 192.638 605.1461 192.4224 606 185.7333 C607.9084 170.7841 607.362 165.6724 606 152.7333 C605.7763 150.6078 602.8305 150.3079 602 147.7333 C598.3116 136.2994 599.935 134.2761 596 121.7333 C592.029 109.0759 592.7288 106.8265 586 96.7333 C578.9171 86.109 576.6875 84.4383 566 76.7333 C556.3957 69.8093 554.7331 70.0204 543 65.7333 C529.1374 60.6682 528.5836 60.6059 514 57.7333 C495.8825 54.1647 494.782 56.9566 477 52.7333 C455.4288 47.6102 455.6565 44.8416 434 38.7333 C416.8144 33.8861 416.5722 33.7001 399 30.7333 C378.2888 27.2366 377.9747 27.1799 357 25.7333 C334.6759 24.1937 312 24.7333 312 24.7333 "/>
<path id="1" d="M244 235.7333 C244 235.7333 247.8906 237.5145 249 239.7333 C253.0109 247.7552 254.9399 250.0412 256 259.7333 C258.2462 280.2699 257.325 282.2017 256 303.7333 C255.3602 314.1303 251.552 323.6133 252 324.7333 C252.0878 324.9527 258.4508 325.1206 264 323.7333 C271.9274 321.7515 272.3012 318.4784 280 317.7333 C301.3589 315.6664 305.4325 316.5468 326 317.7333 C328.7601 317.8926 329.0876 320.3173 332 320.7333 C345.2674 322.6287 359.9846 324.0989 361 322.7333 C363.1279 319.8716 363.8852 287.1431 361 281.7333 C359.8178 279.5166 348.9867 278.5809 337 277.7333 C299.8732 275.1082 262 274.7333 262 274.7333 "/>
<path id="2" d="M360 281.7333 C360 281.7333 366.5964 281.286 370 278.7333 C377.0155 273.4717 379.935 271.1459 384 263.7333 C387.1629 257.9657 387 247.7333 387 247.7333 "/>
<path id="3" d="M366 320.7333 C366 320.7333 372.7611 321.1847 373 320.7333 C374.1643 318.5341 375 303.7332 375 303.7333 C375 303.7335 373.4781 322.8702 375 330.7333 C375.2909 332.2364 380.9856 334.7142 381 334.7333 C381.0038 334.7384 378.5225 335.1812 378 334.7333 C376.4076 333.3684 374.4346 331.4496 374 328.7333 C372.7564 320.9608 374 309.7333 374 309.7333 "/>
<path id="4" d="M260 275.7333 C260 275.7333 267 276.7333 267 276.7333 C267 276.7333 260 276.7333 260 276.7333 "/>
<path id="5" d="M127 98.7333 C127 98.7333 121.5062 98.4459 117 99.7333 C111.5551 101.289 107.656 102.6257 106 104.7333 C104.9076 106.1237 105.0761 110.0377 106 113.7333 C106.8213 117.0184 107.6252 118.5564 110 120.7333 C112.6598 123.1715 114.6268 124.3783 118 124.7333 C122.3218 125.1883 127.063 124.3937 129 122.7333 C130.7629 121.2223 132.1285 112.8802 132 112.7333 C131.8824 112.5989 122 114.7333 122 114.7333 "/>
<path id="6" d="M151 109.7333 C151 109.7333 149.312 121.8805 151 126.7333 C151.872 129.2405 155.436 130.9513 159 132.7333 C160.296 133.3813 162.2211 133.3392 163 132.7333 C165.0339 131.1514 167.0784 128.4981 168 125.7333 C168.4962 124.2446 168.0711 122.4165 167 120.7333 C165.1342 117.8014 164.1818 116.7788 161 114.7333 C157.7952 112.6731 153 111.7333 153 111.7333 "/>
<path id="7" d="M190 115.7333 C190 115.7333 186.1569 114.2356 184 114.7333 C181.0379 115.4169 178.2496 116.609 177 118.7333 C174.7272 122.5971 173.5113 128.9643 174 131.7333 C174.1982 132.8566 177.4112 135.3635 180 135.7333 C185.853 136.5695 189.4306 135.971 195 134.7333 C196.3415 134.4352 197.609 133.0367 198 131.7333 C198.7018 129.3939 198.9522 126.3657 198 124.7333 C196.7644 122.6152 191 119.7333 191 119.7333 "/>
<path id="8" d="M233 123.7333 C233 123.7333 223.9856 121.2644 220 121.7333 C218.6041 121.8976 216.5356 123.9927 216 125.7333 C215.0785 128.7283 215.0785 131.7384 216 134.7333 C216.5356 136.474 218.2945 138.332 220 138.7333 C224.4872 139.7891 227.2477 139.4101 233 138.7333 C234.874 138.5129 236.25 137.9119 237 136.7333 C238.8 133.9048 239.0622 132.1096 240 127.7333 C240.4862 125.4642 240.2956 122.9445 240 122.7333 C239.4206 122.3195 233 122.7333 233 122.7333 "/>
<path id="9" d="M236 81.7333 L241 139.7333 "/>
<path id="10" d="M254 123.7333 C254 123.7333 256.9831 124.4114 258 125.7333 C261.1277 129.7994 260.5681 133.0563 264 136.7333 C266.3706 139.2733 272 140.7333 272 140.7333 "/>
<path id="11" d="M278 126.7333 C278 126.7333 278.8625 129.9334 278 131.7333 C268.6818 151.1801 264.3182 155.2866 255 174.7333 C254.1375 176.5333 255.7299 177.9815 255 179.7333 C253.6739 182.9159 250.028 186.7109 250 186.7333 C249.9937 186.7384 250 183.7333 250 183.7333 "/>
<path id="12" d="M293 133.7333 C293 133.7333 311.6154 136.4921 314 135.7333 C314.4524 135.5894 315.364 127.0063 315 126.7333 C314.177 126.1161 305.8029 125.1035 302 126.7333 C298.5314 128.2199 295.9847 131.7639 294 135.7333 C292.9313 137.8707 293.1801 142.086 294 142.7333 C297.756 145.6986 313 150.7333 313 150.7333 "/>
<path id="13" d="M348 130.7333 C348 130.7333 347.3819 127.8232 347 127.7333 C343.3655 126.8782 335.7198 125.6096 331 126.7333 C329.075 127.1917 326.7037 130.0593 326 132.7333 C324.7496 137.485 324.6885 141.7989 326 145.7333 C326.7062 147.8519 329.3073 149.8919 332 150.7333 C335.5605 151.846 337.853 151.5627 342 150.7333 C344.3223 150.2689 346.653 148.9131 347 147.7333 C348.0866 144.039 347 133.7333 347 133.7333 C347 133.7333 346.4655 141.1067 348 146.7333 C349.1982 151.1267 353 155.7333 353 155.7333 "/>
<path id="14" d="M369 129.7333 C369 129.7333 367.9988 141.3875 369 151.7333 C369.4228 156.1023 372 160.7339 372 160.7333 C372 160.7315 368.4881 140.9244 369 132.7333 C369.0794 131.4633 371.7613 129.293 374 128.7333 C378.1043 127.7073 385 128.7333 385 128.7333 "/>
</g>
</g>
</svg>
