<?xml version="1.0" encoding="utf-8"?>
<!DOCTYPE svg PUBLIC "-//W3C//DTD SVG 1.1//EN" "http://www.w3.org/Graphics/SVG/1.1/DTD/svg11.dtd">
<svg viewBox="0 0 800 800" preserveAspectRatio="xMinYMin meet" xmlns="http://www.w3.org/2000/svg" version="1.1">
<g fill="none" stroke="black" stroke-linecap="round" stroke-linejoin="round" stroke-width="3.0338">
<g transform="translate(87.52,293.203) scale(0.98886) translate(-1,-153)">
<path id="0" d="M8 262 C8 262 7.9447 259.1174 9 258 C22.4821 243.7249 25.0133 240.5095 42 226 C48.3876 220.5439 49.2716 220.9501 57 217 C71.6507 209.5119 71.6501 208.4821 87 203 C113.1887 193.6469 113.8018 192.2936 141 187 C187.4447 177.9604 188.8489 176.4698 236 174 C292.6198 171.0342 351 176 351 176 "/>
<path id="1" d="M353 176 C353 176 377.7548 174.5453 402 176 C427.4129 177.5248 428.5323 176.4893 453 182 C483.0425 188.7663 484.2607 189.4034 513 201 C540.562 212.1215 540.1112 216.2598 567 228 C574.662 231.3454 584 232 584 232 "/>
<path id="2" d="M10 259 C10 259 1.0151 276.9766 1 277 C0.99747 277.0039 1 273 1 273 "/>
<path id="3" d="M2 276 C2 276 0.94745 272.0526 1 272 C1.0526 271.9474 3.3238 272.0808 5 273 C18.1835 280.2296 18.2897 282.9674 32 289 C42.3271 293.5439 45.2877 291.6381 55 295 C56.5641 295.5414 56.6195 297.7144 58 298 C68.1501 300.1 71.5873 297.9725 84 301 C111.9286 307.8119 112.1263 312.8654 140 318 C167.6876 323.1004 169.1281 319.1349 198 322 C234.5333 325.6254 234.6571 329.6314 271 331 C353.2608 334.0977 355.7305 335.2773 437 331 C467.6629 329.3862 469.3237 327.3555 499 319 C519.7831 313.1484 534.3195 304.8402 540 302 C540.0574 301.9713 539 299 539 299 "/>
<path id="4" d="M541 302 C541 302 547.0323 294.2212 554 288 C560.7823 281.9444 562.5732 283.2051 569 277 C576.6291 269.634 577.7816 269.0318 583 260 C590.266 247.4243 595 232 595 232 "/>
<path id="5" d="M586 233 L593 232 "/>
<path id="6" d="M31 236 C31 236 36.7148 242.6758 37 248 C38.0148 266.9434 34 292 34 292 "/>
<path id="7" d="M22 252 C22 252 19.6573 259.1275 16 263 C12.1842 267.0403 5 270 5 270 "/>
<path id="8" d="M28 264 C28 264 9.7337 266.9817 6 268 C5.9118 268.0241 6.0025 270.0025 6 270 C5.9898 269.9898 3 265 3 265 "/>
<path id="9" d="M28 272 C28 272 27.3764 270.0706 27 270 C22.8421 269.2204 19.4889 269.3942 12 269 C10.0099 268.8953 8.0214 268.9786 8 269 C8 269 10 271 10 271 "/>
<path id="10" d="M26 281 C26 281 23.8245 275.7485 21 274 C15.0341 270.3068 5 268 5 268 "/>
<path id="11" d="M123 189 C123 189 123.8415 227.4342 122 265 C121.3657 277.94 121.0253 278.5964 118 291 C116.1537 298.57 115.5576 299.5316 112 306 C110.4934 308.7394 109.1986 310.0839 107 311 C104.8273 311.9053 100 311 100 311 "/>
<path id="12" d="M232 176 C232 176 237.8285 184.1397 238 191 C238.7347 220.3885 237.7804 224.0117 234 256 C231.3403 278.5055 231.0106 279.6291 225 301 C222.2773 310.6808 216 320 216 320 "/>
<path id="13" d="M331 175 C331 175 333.7406 179.7197 334 184 C334.6764 195.1598 331.9423 200.5963 333 208 C333.209 209.463 337.9291 210.6175 338 212 C339.2317 236.0189 338.4569 249.2122 337 286 C336.4664 299.4744 336.7995 302.7353 334 313 C333.2315 315.8178 329.2459 316.1523 328 319 C326.4923 322.4461 328.1696 324.9065 327 329 C326.4477 330.933 324 333 324 333 "/>
<path id="14" d="M425 177 C425 177 430.7572 193.595 432 210 C435.6779 258.5478 437.2343 263.5692 435 309 C434.4701 319.7738 427.9714 328.6637 426 332 C425.9051 332.1607 422 331 422 331 "/>
<path id="15" d="M523 207 C523 207 525.4137 227.9723 524 248 C522.4632 269.772 521.6089 272.0279 517 292 C516.0751 296.0079 513.5451 295.8798 512 300 C509.2619 307.3016 508 316 508 316 "/>
<path id="16" d="M545 264 C545 264 580.9501 264.6158 586 264 C586.0751 263.9908 586 259 586 259 "/>
<path id="17" d="M545 263 C545 263 552.0777 270.3903 557 274 C557.7359 274.5397 559.4033 273.4735 560 274 C565.4174 278.7801 566.9019 282.9159 574 289 C576.5296 291.1683 578.7735 289.9448 581 292 C584.2608 295.01 583.515 297.2972 587 301 C591.1428 305.4018 597 309 597 309 "/>
<path id="18" d="M586 260 C586 260 604.9641 268.0026 619 277 C622.5582 279.2809 621.759 282.2576 625 285 C627.421 287.0485 631.3227 286.984 632 288 C632.4712 288.7067 632.0522 292.9478 631 294 C629.0458 295.9542 622 298 622 298 "/>
<path id="19" d="M597 315 C597 315 600.5825 322.9017 601 330 C601.5175 338.7975 599 349 599 349 "/>
<path id="20" d="M599 313 C599 313 599.2498 253.4927 599 245 C598.9998 244.9927 596.9914 244.9758 597 245 C597.1996 245.5589 599.4149 253.2687 604 259 C616.6791 274.8488 628.0347 283.7474 633 290 C633.1297 290.1634 631.8218 292.3836 631 293 C630.6133 293.2901 629.05 293.1 629 293 C628.8 292.6 629.0022 289.0045 629 289 C628.9992 288.9983 628.0459 290.0826 628 291 C627.5973 299.0548 629.2372 300.587 628 309 C626.8497 316.8219 623.6603 317.516 623 325 C622.2841 333.1132 625.7384 341.7917 625 343 C624.6503 343.5722 616.9112 341.9086 612 343 C609.7753 343.4944 608.3398 344.8947 607 347 C605.4567 349.4251 605.2384 353.841 605 354 C604.9285 354.0477 601 351 601 351 "/>
<path id="21" d="M603 303 L633 291 "/>
<path id="22" d="M605 306 C605 306 601.0894 308.9776 601 309 C600.9906 309.0024 601 307 601 307 "/>
<path id="23" d="M538 302 C538 302 541.181 341.3263 539 346 C538.4355 347.2096 519.9563 348.2318 517 347 C516.0983 346.6243 517.2745 338.2745 515 336 C508.1764 329.1764 491 321 491 321 "/>
<path id="24" d="M167 235 C167 235 172.9992 234.9985 173 235 C173.0001 235.0003 167.9969 236.9998 168 237 C168.0268 237.0014 198.5142 235.2522 210 237 C211.3852 237.2108 213.4066 240.7365 214 244 C215.1518 250.335 214.0995 258.7811 214 259 C213.9885 259.0252 210.9763 255.0841 209 255 C192.9785 254.3182 171.8808 258.9967 167 257 C165.7933 256.5063 166.1019 242.785 165 237 C164.9253 236.608 162.9947 236.0018 163 236 C163.0264 235.9912 171 235 171 235 "/>
<path id="25" d="M279 236 L329 236 "/>
<path id="26" d="M282 236 C282 236 280.6172 251.1327 281 263 C281.0577 264.7886 282.3933 266.9494 283 267 C294.9599 267.9967 323.4784 269.6458 329 267 C330.563 266.2511 330.2829 255.4743 331 244 C331.2791 239.5343 331.2382 236.0721 331 235 C330.9882 234.9471 329 235 329 235 "/>
<path id="27" d="M376 240 L420 239 "/>
<path id="28" d="M373 240 C373 240 371.3125 265.3125 373 267 C374.6875 268.6875 386.8683 267.9609 400 267 C406.9158 266.494 407.0831 264.9432 414 264 C417.8403 263.4763 421.605 263.8307 422 264 C422.0141 264.006 421.0003 267.0003 421 267 C420.9993 266.9993 421.5514 263.9649 421 263 C420.2714 261.7249 417.1901 260.6654 417 260 C416.8427 259.4493 418.9153 257.7796 419 256 C419.3508 248.6334 418.8574 242.8582 418 239 C417.917 238.6266 415 238 415 238 "/>
<path id="29" d="M519 153 C519 153 504.7381 183.0176 498 193 C497.4963 193.7463 492 193 492 193 "/>
<path id="30" d="M516 154 C516 154 586.701 150.2083 594 154 C595.8509 154.9615 591.919 175.2621 593 194 C593.331 199.7377 595.9827 200.1507 597 206 C597.8814 211.0681 597.6597 211.7224 597 217 C596.1979 223.4171 595.1441 227.8752 594 230 C593.8314 230.3131 590 230 590 230 "/>
<path id="31" d="M235 328 C235 328 232.209 331.7607 232 335 C231.3046 345.7782 233 359 233 359 "/>
<path id="32" d="M236 361 C236 361 252.095 366.1288 268 368 C285.5012 370.059 304 369 304 369 "/>
<path id="33" d="M307 368 C307 368 312.5669 357.7437 320 352 C333.1611 341.8301 351 334 351 334 "/>
<path id="34" d="M109 308 C109 308 104.7578 312.8985 103 317 C102.2405 318.7722 102.7871 321.9382 103 322 C107.7173 323.3695 118.8673 323.5461 134 326 C137.0239 326.4904 137.8992 326.5294 140 328 C142.1292 329.4904 143.9154 333.0451 144 333 C145.1377 332.3932 155 320 155 320 "/>
</g>
</g>
</svg>
