<?xml version="1.0" encoding="utf-8"?>
<!DOCTYPE svg PUBLIC "-//W3C//DTD SVG 1.1//EN" "http://www.w3.org/Graphics/SVG/1.1/DTD/svg11.dtd">
<svg viewBox="0 0 800 800" preserveAspectRatio="xMinYMin meet" xmlns="http://www.w3.org/2000/svg" version="1.1">
<g fill="none" stroke="black" stroke-linecap="round" stroke-linejoin="round" stroke-width="1.2817">
<g transform="translate(87.52,188.169) scale(2.3407) translate(-229,-106.6333)">
<path id="0" d="M412 117.6333 C412 117.6333 401.2954 110.5528 391 108.6333 C373.5795 105.3854 371.9589 106.8488 353 106.6333 C328.0747 106.3501 327.7642 106.2382 303 107.6333 C292.5271 108.2234 291.6902 108.1326 282 110.6333 C276.9754 111.93 275.9332 112.2508 272 115.6333 C252.0094 132.8252 249.5188 135.2997 232 153.6333 C229.7323 156.0066 229.1937 157.3408 229 160.6333 C227.8125 180.8206 226.4141 185.2394 229 204.6333 C230.003 212.1558 232.3084 213.2608 237 220.6333 C242.6218 229.4677 242.8226 230.0209 250 237.6333 C259.0418 247.2232 260.4385 252.1275 270 255.6333 C284.9054 261.0986 290.0535 258.921 310 259.6333 C345.7759 260.911 346.334 260.4532 382 259.6333 C389.4532 259.462 389.9568 259.6921 397 257.6333 C421.8426 250.3717 423.5659 250.3045 447 240.6333 C453.8697 237.7982 454.2461 236.6968 460 231.6333 C466.447 225.9599 472 218.6333 472 218.6333 "/>
<path id="1" d="M414 121.6333 C414 121.6333 428.9122 126.025 438 133.6333 C448.4348 142.3695 449.2108 145.0702 457 157.6333 C464.2798 169.3749 468.4505 183.1144 469 183.6333 C469.0376 183.6688 472.9579 179.3459 475 174.6333 C479.2309 164.8697 480.0499 156.6334 482 153.6333 C482.2213 153.2928 486.1537 153.5256 488 154.6333 C489.9581 155.8082 490.2521 157.0114 492 159.6333 C494.2039 162.9392 495.9468 163.6537 496 166.6333 C496.3683 187.2577 495.4617 192.6579 493 215.6333 C492.6346 219.0439 491.5266 221.2764 490 222.6333 C488.8597 223.647 486.4147 224.0861 484 223.6333 C479.5342 222.796 476.3761 221.5775 474 219.6333 C473.0886 218.8876 473 214.6333 473 214.6333 "/>
<path id="2" d="M366 261.6333 C366 261.6333 365.0449 283.7506 367 285.6333 C369.2644 287.8139 380.3547 287.9082 393 287.6333 C402.7752 287.4208 404.5615 287.8263 413 284.6333 C421.4493 281.4363 422.2142 279.6889 430 273.6333 C435.4162 269.4207 435.5176 268.8053 440 263.6333 C441.825 261.5276 442.5355 260.9556 443 258.6333 C443.8294 254.4864 443.8294 252.7803 443 248.6333 C442.5355 246.311 440 243.6333 440 243.6333 "/>
<path id="3" d="M381 260.6333 C381 260.6333 380.5039 269.3853 381 269.6333 C383.2599 270.7633 393.2626 271.2781 401 270.6333 C402.6511 270.4957 404.177 269.1148 405 267.6333 C406.0332 265.7736 406.173 264.4014 406 261.6333 C405.705 256.913 404 251.6333 404 251.6333 "/>
<path id="4" d="M409 256.6333 C409 256.6333 411.8478 261.5572 414 262.6333 C415.8831 263.5749 418.3171 263.4588 421 262.6333 C423.7713 261.7806 426.2218 260.3194 427 258.6333 C428.0346 256.3916 427 249.6333 427 249.6333 "/>
</g>
</g>
</svg>
