<?xml version="1.0" encoding="utf-8"?>
<!DOCTYPE svg PUBLIC "-//W3C//DTD SVG 1.1//EN" "http://www.w3.org/Graphics/SVG/1.1/DTD/svg11.dtd">
<svg viewBox="0 0 800 800" preserveAspectRatio="xMinYMin meet" xmlns="http://www.w3.org/2000/svg" version="1.1">
<g fill="none" stroke="black" stroke-linecap="round" stroke-linejoin="round" stroke-width="1.7617">
<g transform="translate(87.52,208.4251) scale(1.7029) translate(-79,-158)">
<path id="0" d="M124 241 C124 241 124.3022 236.6978 126 235 C134.0644 226.9356 135.8776 224.049 147 218 C163.0384 209.2773 164.7835 210.1481 183 204 C204.6439 196.6952 204.7911 195.997 227 191 C264.4604 182.5714 265.3338 181.3581 303 177 C324.8369 174.4734 326.034 174.8034 348 177 C380.2656 180.2266 383.4683 180.0091 413 188 C423.0995 190.7328 426.0703 192.8603 433 200 C440.6369 207.8683 442.4033 211.7631 446 222 C448.0307 227.7797 448.3522 232.2955 446 237 C440.9035 247.193 437.2307 250.0617 427 260 C420.3964 266.4149 419.4485 266.8428 411 271 C388.573 282.0355 387.4886 285.017 364 291 C336.5938 297.9808 334.3935 296.6098 305 298 C260.908 300.0854 259.0049 302.0138 216 298 C185.8934 295.19 183.978 292.3884 155 284 C147.2866 281.7672 146.7409 280.7186 140 276 C132.1138 270.4796 131.425 269.7632 125 263 C122.4536 260.3196 121.7725 259.2829 121 256 C120.0273 251.866 119.8612 250.1755 121 246 C122.5529 240.3061 127 234 127 234 "/>
<path id="1" d="M123 238 C123 238 122.6365 234.0452 124 232 C133.2717 218.0924 134.0568 214.2619 147 202 C161.2812 188.4704 163.2289 187.4208 181 178 C203.6698 165.9823 206.4992 160.8835 230 158 C282.0678 151.6113 287.6148 155.0633 344 158 C382.837 160.0228 384.1078 161.8219 422 168 C429.0498 169.1494 429.633 169.8165 436 173 C441.2094 175.6047 444.9638 177.0985 446 180 C448.0585 185.7638 448.3764 193.8707 446 201 C444.2271 206.3187 435 213 435 213 "/>
<path id="2" d="M444 245 C444 245 444.0947 252.1349 442 258 C436.8615 272.3878 436.7814 273.6962 429 287 C421.6598 299.5494 421.0509 301.2004 411 311 C402.1084 319.6693 400.5112 319.8846 389 326 C368.9904 336.6301 368.1703 339.4289 347 345 C313.2651 353.8776 310.7944 353.1674 275 356 C242.0893 358.6044 240.9502 357.1768 208 356 C199.5868 355.6995 198.9579 355.6044 191 353 C172.0104 346.7852 171.3584 346.4731 153 338 C139.1369 331.6016 135.5547 331.8381 126 323 C118.2043 315.789 116.337 311.2678 113 301 C110.7096 293.9525 110.6068 290.0201 113 283 C117.1368 270.8655 128 257 128 257 "/>
<path id="3" d="M126 255 C126 255 116.3793 271.1896 105 282 C97.8163 288.8246 86.943 291.9223 86 293 C85.9787 293.0244 90.2761 298.2216 91 298 C101.4575 294.7987 125.0396 284.5648 135 278 C136.0332 277.319 136.1305 271.8263 135 269 C133.9449 266.3621 129 263 129 263 "/>
<path id="4" d="M126 231 C126 231 116.1721 214.2081 104 201 C93.3375 189.4301 79.2435 180.7035 79 180 C78.9956 179.9872 91.7428 177.7144 95 175 C96.669 173.6092 96.6253 165.4996 97 165 C97.0326 164.9566 99.9817 165.6046 101 167 C111.72 181.6903 117.931 185.5631 124 202 C128.2378 213.4773 125.3925 218.2638 125 232 C124.9338 234.3177 123 237 123 237 "/>
<path id="5" d="M355 351 C355 351 352.1736 358.3627 348 363 C343.9176 367.536 342.748 368.2251 337 371 C328.9182 374.9016 328.0945 375.0512 319 377 C300.4742 380.9698 299.8845 381.5285 281 383 C261.8541 384.4919 254.9851 385.915 242 383 C237.8483 382.068 235.3739 377.2142 232 372 C230.7163 370.0162 231 366 231 366 "/>
<path id="6" d="M248 369 C248 369 250.536 371.0773 251 371 C251.609 370.8985 254.0149 368.0297 254 368 C253.9653 367.9306 249 367 249 367 "/>
<path id="7" d="M264 368 L265 369 "/>
<path id="8" d="M279 362 L279 364 "/>
<path id="9" d="M290 360 L290 361 "/>
<path id="10" d="M309 364 C309 364 307.4107 367.4122 306 368 C303.1535 369.1861 297.4016 369.1506 297 369 C296.9767 368.9913 297.2803 365.5398 298 365 C299.5294 363.8529 305 363 305 363 "/>
<path id="11" d="M321 360 C321 360 319.9725 361.9963 320 362 C320.6005 362.0801 335.9956 361.9981 336 362 C336.0021 362.0009 327 365 327 365 "/>
<path id="12" d="M283 375 C283 375 280.2556 378.0978 278 379 C276.2912 379.6835 273.1793 379.1793 273 379 C272.8924 378.8924 273.3754 375.4461 274 375 C275.0873 374.2234 280 374 280 374 "/>
<path id="13" d="M279 364 C279 364 281.6474 363.6474 282 364 C282.8228 364.8228 283.9987 369 284 369 C284 369 284.4485 364.3489 284 364 C282.7825 363.0531 275 362 275 362 "/>
<path id="14" d="M294 358 L297 360 "/>
<path id="15" d="M293 358 L290 358 "/>
<path id="16" d="M257 372 C257 372 265.6207 373.5491 268 373 C268.6458 372.851 270 369 270 369 "/>
<path id="17" d="M266 365 L264 366 "/>
</g>
</g>
</svg>
