<?xml version="1.0" encoding="utf-8"?>
<!DOCTYPE svg PUBLIC "-//W3C//DTD SVG 1.1//EN" "http://www.w3.org/Graphics/SVG/1.1/DTD/svg11.dtd">
<svg viewBox="0 0 800 800" preserveAspectRatio="xMinYMin meet" xmlns="http://www.w3.org/2000/svg" version="1.1">
<g fill="none" stroke="black" stroke-linecap="round" stroke-linejoin="round" stroke-width="1.1617">
<g transform="translate(87.52,207.6053) scale(2.5825) translate(-210,-200.8167)">
<path id="0" d="M252 243.8167 C252 243.8167 251.9427 237.5885 254 233.8167 C257.2378 227.8807 259.1966 223.4178 264 221.8167 C280.9264 216.1745 287.9349 215.4345 311 214.8167 C342.7194 213.967 343.746 215.5642 376 218.8167 C403.0282 221.5422 404.0318 222.1339 430 226.8167 C433.5321 227.4536 434.7524 227.7296 437 229.8167 C440.7405 233.29 441.5343 234.5565 444 239.8167 C448.7806 250.0153 450.6089 251.284 452 261.8167 C453.8624 275.9177 454.1138 279.5832 451 292.8167 C448.7482 302.3866 446.3043 303.9333 440 312.8167 C435.7362 318.8248 434.9146 319.5581 429 323.8167 C423.0479 328.1022 421.4993 330.3606 415 330.8167 C370.1188 333.9662 364.5425 329.8964 315 331.8167 C300.5615 332.3763 300.3515 335.0743 286 335.8167 C271.7756 336.5524 270.1615 337.1565 257 334.8167 C249.2214 333.4338 248.1816 332.0725 241 327.8167 C235.1781 324.3667 234.0402 324.0298 230 318.8167 C219.2799 304.9843 215.8007 302.0283 210 287.8167 C207.3339 281.2848 207.962 277.1536 210 269.8167 C212.3525 261.3475 214.1251 259.8675 220 251.8167 C227.2934 241.8219 228.0193 239.6843 237 232.8167 C243.3669 227.9478 254 225.8167 254 225.8167 "/>
<path id="1" d="M329 210.8167 C329 210.8167 328.4188 207.4705 329 206.8167 C330.7597 204.837 333.2039 202.6021 337 201.8167 C345.9107 199.9731 350.4309 199.1075 358 200.8167 C362.3017 201.788 364.2228 204.4998 368 208.8167 C370.5933 211.7805 372 216.8167 372 216.8167 "/>
<path id="2" d="M322 328.8167 C322 328.8167 319.0221 328.7284 319 328.8167 C318.6471 330.2284 317.9446 335.8034 319 340.8167 C319.6897 344.0929 321.705 347.5469 323 347.8167 C327.6463 348.7846 334.3696 345.2215 343 345.8167 C347.0305 346.0946 347.6871 348.9952 352 349.8167 C357.3017 350.8265 358.6995 350.4792 364 349.8167 C365.8772 349.582 367.1019 349.123 368 347.8167 C371.5569 342.643 375 333.8167 375 333.8167 "/>
</g>
</g>
</svg>
