<?xml version="1.0" encoding="utf-8"?>
<!DOCTYPE svg PUBLIC "-//W3C//DTD SVG 1.1//EN" "http://www.w3.org/Graphics/SVG/1.1/DTD/svg11.dtd">
<svg viewBox="0 0 800 800" preserveAspectRatio="xMinYMin meet" xmlns="http://www.w3.org/2000/svg" version="1.1">
<g fill="none" stroke="black" stroke-linecap="round" stroke-linejoin="round" stroke-width="1.4113">
<g transform="translate(294.7771,87.52) scale(2.1257) translate(-205,-118.1333)">
<path id="0" d="M215 118.1333 C215 118.1333 218.0498 121.6582 221 123.1333 C223.256 124.2613 224.0338 124.0877 227 124.1333 C256.0931 124.5809 256.9441 123.0013 286 124.1333 C294.9221 124.4809 303.9066 126.3102 304 127.1333 C306.552 149.6228 303.6213 196.2272 302 265.1333 C301.6236 281.1296 300.56 292.6535 300 297.1333 C299.9957 297.1681 297.9976 297.1153 298 297.1333 C298.1402 298.1846 301.6242 304.8046 302 312.1333 C303.5572 342.4989 303.2304 344.7834 302 375.1333 C301.7828 380.4911 300.0594 384.1911 299 386.1333 C298.8628 386.3848 296.0049 386.0906 296 386.1333 C295.6299 389.3406 296.7121 409.0477 296 412.1333 C295.9621 412.2977 291.9981 413.1668 290 412.1333 C279.7571 406.8353 278.8744 403.0705 267 397.1333 C255.515 391.3908 254.375 390.4803 242 388.1333 C226.5332 385.2 215.9758 387.9271 209 386.1333 C208.2091 385.9299 207 379.1333 207 379.1333 "/>
<path id="1" d="M217 122.1333 C217 122.1333 215.729 192.7748 211 262.1333 C209.7737 280.1185 205.9319 280.2716 205 298.1333 C202.9726 336.9919 205 377.1333 205 377.1333 "/>
<path id="2" d="M245 164.1333 C245 164.1333 243.7173 161.84 244 161.1333 C244.9785 158.6871 246.3525 156.5161 249 154.1333 C250.5932 152.6995 251.6019 152.3998 254 152.1333 C259.9697 151.47 264.567 150.5967 267 152.1333 C269.5413 153.7384 272.4791 158.6115 273 164.1333 C274.6957 182.1081 274.8986 187.42 272 205.1333 C270.922 211.7211 268.253 213.5718 264 219.1333 C262.5575 221.0197 261.3356 221.4964 259 222.1333 C256.5914 222.7902 254.1483 222.9685 253 222.1333 C250.9296 220.6276 248.482 217.8519 248 214.1333 C245.4215 194.2423 246 168.1333 246 168.1333 "/>
<path id="3" d="M250 257.1333 C250 257.1333 256.0615 246.5796 260 243.1333 C261.0621 242.204 265.5961 242.4919 266 243.1333 C269.6271 248.894 274.3926 257.3573 277 270.1333 C278.9432 279.6552 277.8469 286.1309 276 292.1333 C275.4905 293.7892 272.2722 295.4789 269 296.1333 C263.5464 297.2241 260.2827 297.8092 256 296.1333 C251.5454 294.3902 247.3356 291.14 246 287.1333 C243.365 279.2282 244.6378 272.9139 245 263.1333 C245.0465 261.8786 247 260.1333 247 260.1333 "/>
<path id="4" d="M251 342.1333 C251 342.1333 250.2356 338.9896 251 337.1333 C253.2751 331.6081 254.0036 330.2716 258 325.1333 C260.6219 321.7624 261.905 320.6808 265 319.1333 C266.5475 318.3596 268.4568 318.3103 270 319.1333 C274.4033 321.4818 276.5585 322.5446 280 327.1333 C286.2724 335.4966 288.8357 337.4773 291 347.1333 C294.704 363.659 295.2231 374.9072 293 385.1333 C292.3722 388.0213 286.5246 391.1244 281 393.1333 C277.2945 394.4808 274.9429 394.3879 271 393.1333 C265.3903 391.3484 264.1462 390.3265 259 386.1333 C251.087 379.6857 246.2377 377.6974 244 371.1333 C240.7736 361.6692 243.3213 352.6536 244 342.1333 C244.0498 341.361 246 340.1333 246 340.1333 "/>
</g>
</g>
</svg>
