<?xml version="1.0" encoding="utf-8"?>
<!DOCTYPE svg PUBLIC "-//W3C//DTD SVG 1.1//EN" "http://www.w3.org/Graphics/SVG/1.1/DTD/svg11.dtd">
<svg viewBox="0 0 800 800" preserveAspectRatio="xMinYMin meet" xmlns="http://www.w3.org/2000/svg" version="1.1">
<g fill="none" stroke="black" stroke-linecap="round" stroke-linejoin="round" stroke-width="1.8673">
<g transform="translate(192.7511,87.52) scale(1.6066) translate(-161,-92.1333)">
<path id="0" d="M229 110.1333 C229 110.1333 227.6196 122.8097 227 125.1333 C226.9787 125.2131 225.0001 125.1281 225 125.1333 C224.7501 137.0031 223.0801 172.8566 225 220.1333 C227.0679 271.0553 233 322.1333 233 322.1333 "/>
<path id="1" d="M229 117.1333 C229 117.1333 232.2087 102.2627 236 97.1333 C237.565 95.016 241.0827 94.4949 246 94.1333 C273.9753 92.0763 275.5095 91.2143 304 92.1333 C321.291 92.6911 339 97.1333 339 97.1333 "/>
<path id="2" d="M339 97.1333 C339 97.1333 350.9821 113.4082 352 128.1333 C357.9396 214.059 354 314.1333 354 314.1333 "/>
<path id="3" d="M232 318.1333 C232 318.1333 233.1912 325.9576 235 327.1333 C239.006 329.7373 243.4822 330.0292 252 331.1333 C270.1791 333.4899 270.5316 333.5439 289 334.1333 C317.3779 335.039 324.7304 336.9904 346 334.1333 C350.1826 333.5715 354.3319 329.2278 356 325.1333 C358.3486 319.3686 357 307.1333 357 307.1333 "/>
<path id="4" d="M305 109.1333 C305 109.1333 286.6609 107.1839 281 111.1333 C272.4102 117.1262 267.737 126.4516 262 139.1333 C259.8052 143.9849 260.8582 146.7391 262 153.1333 C263.2146 159.9354 263.7888 162.0489 267 167.1333 C268.7632 169.9251 270.7478 171.5781 274 172.1333 C288.221 174.5613 298.7987 176.9337 308 174.1333 C312.6486 172.7186 318.2291 165.4894 320 158.1333 C323.5852 143.2409 323.5079 130.6208 321 120.1333 C320.2781 117.1145 314.5246 114.1423 309 112.1333 C305.2945 110.7859 299 112.1333 299 112.1333 "/>
<path id="5" d="M303 185.1333 C303 185.1333 288.547 183.8989 281 187.1333 C274.8681 189.7613 271.88 193.5144 268 200.1333 C264.5482 206.0217 265.0509 208.2518 264 216.1333 C263.1101 222.8072 262.335 225.1382 264 230.1333 C265.5065 234.6527 267.5733 236.1985 272 240.1333 C276.019 243.7057 277.1547 244.7201 282 246.1333 C287.8934 247.8522 290.2983 248.3551 296 247.1333 C302.4107 245.7596 306.8407 244.2979 310 240.1333 C315.0327 233.4993 315.917 228.8088 318 218.1333 C319.6798 209.5244 320.3301 205.1526 318 199.1333 C315.9587 193.8601 312.309 192.2406 306 187.1333 C302.2091 184.0645 297 182.1333 297 182.1333 "/>
<path id="6" d="M297 253.1333 C297 253.1333 284.1893 253.1306 276 256.1333 C271.578 257.7547 269.7599 260.1189 267 264.1333 C265.1763 266.786 266.5526 269.0281 265 272.1333 C263.9649 274.2035 261.1933 274.587 261 276.1333 C260.1463 282.9629 258.9235 289.2967 262 296.1333 C266.1596 305.3769 270.9706 312.0294 279 316.1333 C287.7111 320.5857 294.2079 318.7571 307 319.1333 C309.7058 319.2129 311.5212 318.7177 313 317.1333 C316.9823 312.8666 319.1886 310.3728 321 304.1333 C323.1623 296.6854 324.1724 292.8057 322 286.1333 C318.327 274.8518 313.1772 268.4337 307 261.1333 C305.8654 259.7925 302.5021 261.2707 300 260.1333 C298.0471 259.2457 297.6739 256.4522 296 256.1333 C290.0241 254.9951 279 256.1333 279 256.1333 "/>
<path id="7" d="M358 114.1333 L362 166.1333 "/>
<path id="8" d="M357 111.1333 C357 111.1333 364.3395 110.9498 371 109.1333 C385.9861 105.0462 386.5139 102.9455 401 99.1333 C404.5514 98.1987 405.7414 100.0023 409 99.1333 C412.2858 98.2571 416.0042 95.1025 416 95.1333 C415.9768 95.3037 411.7815 108.7031 406 121.1333 C401.9161 129.9137 401.874 130.8495 396 138.1333 C389.8841 145.7171 387.1181 144.4364 381 152.1333 C372.0983 163.3323 365.071 177.0934 365 177.1333 C364.9787 177.1453 365 161.1333 365 161.1333 "/>
<path id="9" d="M367 194.1333 L367 245.1333 "/>
<path id="10" d="M367 196.1333 C367 196.1333 396.9744 195.5754 415 194.1333 C415.8085 194.0687 417 192.1333 417 192.1333 C417 192.1333 413.3166 193.8952 412 196.1333 C408.9764 201.2735 410.6371 203.9808 407 209.1333 C399.4282 219.8601 395.9176 219.0487 388 230.1333 C381.3911 239.3858 383.0124 241.5843 377 251.1333 C374.8949 254.4768 371.5843 256.9142 371 257.1333 C370.938 257.1566 369 255.3158 369 254.1333 C369 245.8563 371 233.1333 371 233.1333 "/>
<path id="11" d="M371 268.1333 C371 268.1333 372.2479 299.4723 372 310.1333 C371.9938 310.3991 370.0566 310.7937 370 311.1333 C369.533 313.9353 370 322.1333 370 322.1333 "/>
<path id="12" d="M366 267.1333 C366 267.1333 377.9342 265.4886 388 262.1333 C392.1114 260.7629 392.0235 258.3436 396 257.1333 C402.5185 255.1494 404.8648 257.2673 411 255.1333 C414.9429 253.7619 419.002 249.1297 419 249.1333 C418.9888 249.154 403.8636 270.3367 391 292.1333 C386.0898 300.4534 387.7543 302.1105 383 310.1333 C380.1273 314.981 375 319.1333 375 319.1333 "/>
<path id="13" d="M217 165.1333 C217 165.1333 215.8641 151.8556 217 139.1333 C218.3302 124.2353 222 109.1333 222 109.1333 "/>
<path id="14" d="M222 109.1333 C222 109.1333 161.9196 113.9247 161 115.1333 C160.6453 115.5995 172.8336 136.54 187 155.1333 C196.4179 167.4944 199.2542 169.7798 209 178.1333 C210.602 179.5065 213.2792 179.5157 215 179.1333 C216.092 178.8907 217.0341 177.7892 218 176.1333 C220.3047 172.1825 220.9402 171.5843 222 167.1333 C223.3031 161.6601 223 155.1333 223 155.1333 "/>
<path id="15" d="M216 190.1333 C216 190.1333 217.082 197.9118 216 204.1333 C215.2507 208.442 212.0928 209.1413 212 213.1333 C211.6536 228.0293 215.0987 247.1701 215 247.1333 C214.5356 246.9603 161.5196 194.707 161 194.1333 C160.9723 194.1027 164.8299 195.0014 167 194.1333 C171.1232 192.4841 172.3793 188.2842 176 188.1333 C191.2004 187.5 215 192.1333 215 192.1333 "/>
<path id="16" d="M217 265.1333 C217 265.1333 220.1598 327.7386 220 328.1333 C219.9666 328.2158 210.6626 316.6112 200 307.1333 C188.4488 296.8656 186.6541 298.254 175 288.1333 C167.9351 281.9981 162.1344 274.9396 162 274.1333 C161.9806 274.017 167.3047 270.3991 172 270.1333 C191.7167 269.0173 215 271.1333 215 271.1333 "/>
<path id="17" d="M249 342.1333 C249 342.1333 251.8581 381.764 249 417.1333 C248.0608 428.7564 242.533 429.4443 241 441.1333 C238.7356 458.3992 241 478.1333 241 478.1333 "/>
<path id="18" d="M252 342.1333 C252 342.1333 299.8622 341.7017 328 344.1333 C330.0066 344.3067 332.5085 346.7988 333 349.1333 C337.3422 369.7588 337.4505 375.2746 340 401.1333 C340.9193 410.458 341.454 411.4095 340 420.1333 C338.6226 428.398 334.3903 429.1982 334 437.1333 C333.0105 457.2533 337 481.1333 337 481.1333 "/>
</g>
</g>
</svg>
