<?xml version="1.0" encoding="utf-8"?>
<!DOCTYPE svg PUBLIC "-//W3C//DTD SVG 1.1//EN" "http://www.w3.org/Graphics/SVG/1.1/DTD/svg11.dtd">
<svg viewBox="0 0 800 800" preserveAspectRatio="xMinYMin meet" xmlns="http://www.w3.org/2000/svg" version="1.1">
<g fill="none" stroke="black" stroke-linecap="round" stroke-linejoin="round" stroke-width="1.3841">
<g transform="translate(347.9802,87.52) scale(2.1675) translate(-250.5,-7.5)">
<path id="0" d="M263.5 103.5 C263.5 103.5 262.0914 107.3677 262.5 110.5 C263.4826 118.0334 265.3897 123.5391 266.5 126.5 C266.5476 126.6269 268.5 126.4968 268.5 126.5 C268.75 145.7468 267.5777 205.334 268.5 280.5 C268.554 284.9048 270.5738 288.8354 270.5 289.5 C270.4972 289.5252 267.5 289.5 267.5 289.5 "/>
<path id="1" d="M269.5 105.5 C269.5 105.5 269.1816 139.3841 271.5 164.5 C271.7495 167.2029 275.185 167.8223 275.5 170.5 C276.8632 182.0871 277.1315 186.4268 275.5 198.5 C274.9362 202.672 271.1768 203.3036 270.5 207.5 C268.9816 216.9144 269.81 218.8049 270.5 229.5 C270.7863 233.938 271.8206 236.9714 272.5 238.5 C272.5611 238.6374 274.4989 238.4834 274.5 238.5 C274.8901 244.611 275.1099 279.389 275.5 285.5 C275.5011 285.5166 277.4853 285.4412 277.5 285.5 C277.7353 286.4412 277.9956 292.9336 277.5 293.5 C277.1206 293.9336 270.5 293.5 270.5 293.5 "/>
<path id="2" d="M259.5 102.5 C259.5 102.5 267.9236 106.3776 275.5 107.5 C280.4113 108.2276 286.5 106.5 286.5 106.5 "/>
<path id="3" d="M270.5 107.5 C270.5 107.5 253.6445 106.287 253.5 105.5 C250.7858 90.7229 253.5791 44.7496 252.5 9.5 C252.4768 8.7434 250.4797 7.501 250.5 7.5 C250.9385 7.4775 289.2942 4.874 291.5 7.5 C294.7562 11.3765 291.1086 39.0633 292.5 57.5 C292.5897 58.6879 295.4277 59.3434 295.5 60.5 C296.5205 76.8287 296.4781 98.0011 295.5 105.5 C295.4613 105.7971 289.5 106.5 289.5 106.5 "/>
<path id="4" d="M269.5 13.5 C269.5 13.5 261.5888 11.2822 260.5 11.5 C260.2721 11.5456 259.5 13.6053 259.5 15.5 C259.5 21.1842 258.9451 25.0122 260.5 27.5 C261.6854 29.3967 265.1852 30.5916 269.5 31.5 C273.884 32.423 277.0024 32.4606 279.5 31.5 C280.7296 31.0271 281.863 28.8356 282.5 26.5 C283.1569 24.0914 283.1569 22.9086 282.5 20.5 C281.863 18.1644 281.03 16.8114 279.5 15.5 C278.48 14.6257 275.5 14.5 275.5 14.5 "/>
<path id="5" d="M276.5 40.5 C276.5 40.5 267.5526 42.1541 265.5 44.5 C263.2967 47.018 261.7686 53.7205 262.5 56.5 C263.0941 58.7575 266.9402 62.4166 270.5 63.5 C275.7709 65.1042 281.779 64.3755 285.5 63.5 C286.2296 63.3283 287.1545 61.4576 287.5 59.5 C288.5457 53.5742 289.0398 50.8183 288.5 46.5 C288.3585 45.368 286.777 43.7947 285.5 43.5 C282.0414 42.7019 275.5 43.5 275.5 43.5 "/>
<path id="6" d="M275.5 72.5 C275.5 72.5 270.9869 70.8805 269.5 71.5 C267.2364 72.4432 264.9408 74.6184 263.5 77.5 C262.1392 80.2215 261.6467 83.3668 262.5 85.5 C263.6003 88.2508 266.0993 91.1088 269.5 92.5 C274.9536 94.731 279.4315 95.2241 284.5 94.5 C286.8128 94.1696 289.3305 91.644 290.5 89.5 C291.3482 87.945 291.5112 85.2467 290.5 83.5 C287.2356 77.8616 279.5 70.5 279.5 70.5 "/>
<path id="7" d="M270.5 11.8333 L276.5 13.8333 "/>
<path id="8" d="M295.5 10.8333 L298.5 103.8333 "/>
<path id="9" d="M294.5 35.8333 C294.5 35.8333 293.4325 50.158 294.5 60.8333 C294.7263 63.0965 297.4529 63.7117 297.5 65.8333 C297.8718 82.5643 295.5 101.3203 295.5 105.8333 C295.5 105.8333 297.5 105.8333 297.5 105.8333 "/>
<path id="10" d="M278.5 75.8333 C278.5 75.8333 274.5928 78.6477 273.5 80.8333 C272.7714 82.2905 272.824 84.3124 273.5 85.8333 C274.2811 87.5909 276.1982 89.6164 277.5 89.8333 C279.6387 90.1898 284.4343 88.7658 285.5 87.8333 C285.9782 87.4149 286.0078 83.3411 285.5 82.8333 C284.586 81.9193 278.5 80.8333 278.5 80.8333 "/>
<path id="11" d="M271.5 45.8333 C271.5 45.8333 270.8495 48.6407 271.5 49.8333 C273.1707 52.8963 274.9202 55.4442 277.5 56.8333 C279.3485 57.8287 283.171 57.3317 284.5 56.8333 C284.9034 56.6821 285.5 55.0483 285.5 53.8333 C285.5 52.6183 285.1891 51.2927 284.5 50.8333 C282.203 49.302 276.5 47.8333 276.5 47.8333 "/>
<path id="12" d="M270.5 17.8333 C270.5 17.8333 267.6564 17.5987 267.5 17.8333 C266.9785 18.6156 266.0949 23.0232 266.5 23.8333 C266.8314 24.4962 269.4958 25.8333 271.5 25.8333 C274.3059 25.8333 277.3664 24.6431 278.5 23.8333 C278.7882 23.6275 278.6895 20.9281 278.5 20.8333 C277.4261 20.2964 270.5 19.8333 270.5 19.8333 "/>
<path id="13" d="M273.5 111.8333 C273.5 111.8333 276.5 138.1826 276.5 163.8333 C276.5 177.6453 273.6712 177.9626 273.5 191.8333 C273.1764 218.0418 275.5 244.8333 275.5 244.8333 "/>
<path id="14" d="M277.5 107.8333 C277.5 107.8333 275.5044 105.8223 275.5 105.8333 C275.4741 105.8981 275.5 112.8333 275.5 112.8333 "/>
<path id="15" d="M264.5 294.8333 L282.5 294.8333 "/>
<path id="16" d="M265.5 295.8333 C265.5 295.8333 269.6224 295.5647 270.5 294.8333 C271.1519 294.2901 271.5 290.8333 271.5 290.8333 "/>
<path id="17" d="M271.5 290.8333 L276.5 295.8333 "/>
<path id="18" d="M269.5 293.8333 L266.5 295.8333 "/>
</g>
</g>
</svg>
