<?xml version="1.0" encoding="utf-8"?>
<!DOCTYPE svg PUBLIC "-//W3C//DTD SVG 1.1//EN" "http://www.w3.org/Graphics/SVG/1.1/DTD/svg11.dtd">
<svg viewBox="0 0 800 800" preserveAspectRatio="xMinYMin meet" xmlns="http://www.w3.org/2000/svg" version="1.1">
<g fill="none" stroke="black" stroke-linecap="round" stroke-linejoin="round" stroke-width="2.477">
<g transform="translate(87.52,108.7154) scale(1.2112) translate(-54.5,0.16666)">
<path id="0" d="M291.5 57.8333 C291.5 57.8333 282.6679 56.5534 275.5 57.8333 C269.7241 58.8648 269.1653 59.8341 263.5 62.8333 C252.3287 68.7476 251.7369 68.6986 241.5 75.8333 C235.5776 79.9611 234.3821 80.2875 230.5 85.8333 C224.5782 94.2931 222.7129 96.1771 220.5 105.8333 C217.6977 118.0616 216.6432 122.6101 219.5 133.8333 C222.6732 146.2995 225.794 150.2229 234.5 160.8333 C240.2472 167.8377 242.6613 167.7162 251.5 172.8333 C261.3877 178.5578 261.8138 178.9474 272.5 182.8333 C283.4228 186.8053 284.19 187.6633 295.5 188.8333 C312.2585 190.567 314.6244 190.7773 330.5 188.8333 C337.1835 188.015 339.0965 186.9325 344.5 182.8333 C352.4044 176.8369 353.6141 175.452 359.5 166.8333 C367.0981 155.7076 368.1054 154.1382 372.5 141.8333 C375.1262 134.4801 374.5 133.1698 374.5 124.8333 C374.5 112.5738 375.2846 110.6932 372.5 99.8333 C370.7481 93.0009 369.4648 91.5739 364.5 85.8333 C354.1149 73.8256 353.1144 71.3288 340.5 62.8333 C330.3628 56.0063 327.5459 55.7014 315.5 52.8333 C308.0211 51.0526 298.5 52.8333 298.5 52.8333 "/>
<path id="1" d="M320.5 208.8333 C320.5 208.8333 296.8229 205.1699 281.5 209.8333 C267.4315 214.1151 263.7256 218.7721 251.5 229.8333 C244.3099 236.3387 241.9182 239.1277 239.5 247.8333 C235.3247 262.8642 236.1681 266.9052 236.5 283.8333 C236.6393 290.9352 237.6572 292.2949 240.5 298.8333 C242.3017 302.9772 243.0597 303.393 246.5 306.8333 C257.8039 318.1372 257.9174 319.6824 270.5 328.8333 C279.0791 335.0727 280.768 337.026 290.5 338.8333 C313.0108 343.0139 318.0172 343.6812 340.5 341.8333 C351.2276 340.9516 352.9689 338.2493 363.5 332.8333 C369.8383 329.5737 370.9413 328.8719 375.5 323.8333 C379.7089 319.1814 380.0348 317.8595 382.5 311.8333 C384.2943 307.4474 384.3102 306.7671 384.5 301.8333 C385.2909 281.2696 387.2773 278.0401 384.5 259.8333 C383.2851 251.8688 380.9815 250.069 375.5 242.8333 C369.0282 234.2905 367.7543 234.4762 359.5 226.8333 C354.3212 222.0382 354.3997 221.3732 348.5 217.8333 C334.83 209.6313 319.5 202.8333 319.5 202.8333 "/>
<path id="2" d="M322.5 353.8333 C322.5 353.8333 296.4273 352.3852 279.5 355.8333 C274.4955 356.8528 273.0102 359.8484 268.5 364.8333 C263.9218 369.8935 263.4898 370.6238 260.5 376.8333 C257.2168 383.6523 256.2592 384.5451 255.5 391.8333 C253.8858 407.3293 251.7009 411.1566 255.5 424.8333 C260.6294 443.2993 263.7992 449.7924 275.5 463.8333 C283.0319 472.8717 288.2515 473.3537 300.5 478.8333 C305.867 481.2344 307.1323 480.8333 313.5 480.8333 C333.093 480.8333 336.1363 483.2354 353.5 478.8333 C368.5272 475.0236 372.1255 471.8049 384.5 462.8333 C389.8521 458.9531 390.2572 456.5506 393.5 449.8333 C396.9427 442.7021 397.4977 441.6509 398.5 433.8333 C399.8852 423.0285 400.7219 420.8319 398.5 410.8333 C396.16 400.3035 394.2227 399.0071 388.5 388.8333 C385.4962 383.4933 384.7985 383.5057 380.5 378.8333 C373.3688 371.082 373.5004 370.2853 365.5 363.8333 C358.3948 358.1034 357.5924 356.6563 349.5 353.8333 C337.5642 349.6697 322.5 348.8333 322.5 348.8333 "/>
<path id="3" d="M204.5 46.8333 C204.5 46.8333 204.3323 132.8583 206.5 217.8333 C206.8178 230.2909 209.4287 230.4351 209.5 242.8333 C209.9244 316.6702 205.9426 317.7011 207.5 391.8333 C208.4321 436.1993 208.0206 471.8229 214.5 480.8333 C217.3243 484.7609 245.9569 481.6708 271.5 480.8333 C273.3219 480.7736 273.6445 478.9239 275.5 478.8333 C310.8653 477.1082 314.6484 478.7922 353.5 476.8333 C373.996 475.7999 374.0491 473.9539 394.5 472.8333 C410.3768 471.9634 412.2867 471.412 426.5 472.8333 C430.231 473.2064 434.2927 477.003 434.5 476.8333 C435.0981 476.344 437.4107 470.1759 437.5 463.8333 C438.3835 401.1066 434.6757 398.9894 436.5 334.8333 C437.6627 293.944 441.319 293.837 443.5 252.8333 C446.3109 199.9888 449.482 198.612 446.5 146.8333 C444.0821 104.8504 440.9421 93.5758 432.5 61.8333 C431.3653 57.5668 426.5796 54.2847 421.5 52.8333 C412.4102 50.2362 408.8716 53.7689 397.5 51.8333 C386.1184 49.896 385.8446 45.7668 374.5 44.8333 C309.3012 39.4689 305.9221 39.6434 239.5 38.8333 C225.2633 38.6597 223.0452 40.1722 210.5 42.8333 C208.5513 43.2467 206.5 45.8333 206.5 45.8333 "/>
<path id="4" d="M244.5 32.8333 C244.5 32.8333 243.7343 29.2371 244.5 27.8333 C245.92 25.23 247.1846 24.2204 250.5 21.8333 C259.3795 15.4401 259.6566 14.6457 269.5 9.8333 C281.7273 3.8556 282.9774 3.0443 295.5 -0.16666 C301.1993 -1.628 303.0567 -1.9163 308.5 -0.16666 C328.9272 6.3992 329.9011 10.4188 351.5 17.8333 C362.7944 21.7105 367.034 18.8649 375.5 22.8333 C379.5773 24.7446 380.6763 27.6993 383.5 32.8333 C385.7845 36.9869 386.5 42.8333 386.5 42.8333 "/>
<path id="5" d="M435.5 58.8333 C435.5 58.8333 453.0382 60.4103 468.5 57.8333 C481.7863 55.619 481.9927 51.7804 495.5 48.8333 C508.8631 45.9178 509.6415 46.0232 523.5 45.8333 C545.7265 45.5289 562.5479 46.6429 568.5 47.8333 C568.6835 47.8701 569.5968 52.5179 568.5 54.8333 C565.9518 60.2129 564.7979 62.6809 559.5 66.8333 C547.605 76.1565 543.7615 74.5544 531.5 83.8333 C526.3018 87.7671 524.8321 89.0644 522.5 94.8333 C516.1206 110.614 515.8893 113.209 512.5 130.8333 C511.07 138.2692 513.1153 146.639 512.5 146.8333 C505.4818 149.0496 455.5 148.8333 455.5 148.8333 "/>
<path id="6" d="M449.5 192.8333 C449.5 192.8333 482.7832 193.9736 514.5 190.8333 C532.3982 189.0612 532.5837 185.7128 550.5 182.8333 C560.1875 181.2764 568.3097 181.5048 570.5 181.8333 C570.5662 181.8433 571.1253 184.5827 570.5 185.8333 C569.1712 188.491 568.3109 189.2268 565.5 191.8333 C541.0919 214.4664 535.2706 215.2654 515.5 236.8333 C511.2375 241.4833 511.3485 244.536 510.5 251.8333 C508.9752 264.9468 510.5 279.8333 510.5 279.8333 "/>
<path id="7" d="M443.5 311.8333 C443.5 311.8333 460.362 313.2573 476.5 311.8333 C493.8749 310.3003 508.5669 309.1978 511.5 305.8333 C514.0809 302.8729 510.5 272.8333 510.5 272.8333 "/>
<path id="8" d="M439.5 347.8333 C439.5 347.8333 467.2397 349.0092 493.5 347.8333 C499.8873 347.5473 500.0454 345.3946 506.5 344.8333 C522.6049 343.4329 523.0038 344.0994 539.5 343.8333 C553.9896 343.5996 557.9798 343.1546 568.5 343.8333 C569.2723 343.8832 570.2086 344.9591 570.5 345.8333 C570.9371 347.1447 571.2142 348.762 570.5 349.8333 C566.5718 355.7257 565.3475 358.7342 558.5 363.8333 C543.038 375.3476 539.9067 373.3796 523.5 384.8333 C513.8629 391.5611 511.4541 392.233 505.5 400.8333 C499.385 409.6661 498.5422 412.7149 496.5 423.8333 C494.3463 435.5593 495.6111 437.0924 496.5 449.8333 C497.0884 458.2665 499.7464 466.7423 499.5 466.8333 C495.8213 468.1929 450.5 466.8333 450.5 466.8333 "/>
<path id="9" d="M206.5 47.8333 C206.5 47.8333 171.7796 44.8076 138.5 46.8333 C115.2388 48.2492 114.9209 52.324 91.5 54.8333 C73.3401 56.7791 59.2741 55.0592 54.5 55.8333 C54.3958 55.8502 53.7073 59.4744 54.5 60.8333 C56.2572 63.8457 57.6384 65.545 61.5 67.8333 C70.2751 73.0334 71.3933 73.5487 81.5 76.8333 C90.8903 79.8852 93.3568 77.6342 101.5 80.8333 C105.5581 82.4276 107.815 84.2042 109.5 87.8333 C113.1676 95.7328 113.3832 98.4098 114.5 108.8333 C116.3206 125.8256 113.1274 138.1985 115.5 143.8333 C116.124 145.3153 123.136 146.658 130.5 146.8333 C164.202 147.6358 199.5 145.8333 199.5 145.8333 "/>
<path id="10" d="M206.5 182.8333 C206.5 182.8333 162.6799 183.5321 119.5 180.8333 C91.0335 179.0542 62.5004 173.8334 62.5 173.8333 C62.5 173.8333 65.2105 173.5439 65.5 173.8333 C65.9825 174.3158 65.4653 176.7987 66.5 177.8333 C75.3982 186.7316 77.5088 189.0593 89.5 197.8333 C97.5666 203.7358 100.5458 201.4246 107.5 207.8333 C124.6449 223.6335 134.7737 228.3486 140.5 244.8333 C147.3531 264.562 139.6449 275.8976 140.5 302.8333 C140.5747 305.1849 142.1179 307.8333 142.5 307.8333 C149.1875 307.8333 160.0891 304.2374 177.5 302.8333 C190.7783 301.7625 204.5 302.8333 204.5 302.8333 "/>
<path id="11" d="M206.5 328.8333 C206.5 328.8333 101.2449 327.5876 86.5 327.8333 C86.4939 327.8334 85.9899 329.7346 86.5 330.8333 C91.7774 342.2002 92.4928 344.4005 99.5 355.8333 C101.5569 359.1894 102.2274 360.2933 105.5 361.8333 C117.6303 367.5417 122.5645 365.3842 133.5 371.8333 C139.522 375.3848 140.4887 378.0642 144.5 384.8333 C147.9861 390.7162 148.3877 391.8259 149.5 398.8333 C153.2439 422.4196 150.8721 423.7576 154.5 447.8333 C156.3159 459.8845 157.8295 470.668 160.5 471.8333 C168.4438 475.2997 209.5 471.8333 209.5 471.8333 "/>
</g>
</g>
</svg>
