<?xml version="1.0" encoding="utf-8"?>
<!DOCTYPE svg PUBLIC "-//W3C//DTD SVG 1.1//EN" "http://www.w3.org/Graphics/SVG/1.1/DTD/svg11.dtd">
<svg viewBox="0 0 800 800" preserveAspectRatio="xMinYMin meet" xmlns="http://www.w3.org/2000/svg" version="1.1">
<g fill="none" stroke="black" stroke-linecap="round" stroke-linejoin="round" stroke-width="1.0993">
<g transform="translate(87.52,158.4762) scale(2.7291) translate(-288,-161)">
<path id="0" d="M472 277 L442 315 "/>
<path id="1" d="M471 278 L483 261 "/>
<path id="2" d="M435 308 C435 308 438.4583 308.651 440 310 C441.6845 311.4739 443 315 443 315 "/>
<path id="3" d="M475 257 C475 257 480.6308 257.7046 481 258 C481.076 258.0608 480 261 480 261 "/>
<path id="4" d="M435 306 L440 299 "/>
<path id="5" d="M475 255 L463 267 "/>
<path id="6" d="M439 299 C439 299 421.3051 288.5885 407 276 C397.0105 267.2093 398.5637 263.9467 389 255 C383.7961 250.1318 381.6007 251.6267 376 247 C370.5483 242.4964 371.478 240.7476 366 236 C356.7453 227.9793 356.2983 227.179 346 221 C339.3949 217.0369 331 215 331 215 "/>
<path id="7" d="M462 268 C462 268 462.269 261.692 461 260 C459.5497 258.0663 455.8011 258.8011 453 256 C433.3922 236.3922 432.6078 231.6078 413 212 C410.1989 209.1989 408.1101 210.619 405 208 C399.2262 203.1379 400.1955 200.5058 394 196 C379.0679 185.1403 361 176 361 176 "/>
<path id="8" d="M360 176 C360 176 347.7814 185.9753 341 196 C337.5516 201.0976 339.6999 204.3002 337 210 C335.7484 212.6423 332 215 332 215 "/>
<path id="9" d="M348 186 C348 186 337.8539 184.9513 329 182 C321.8879 179.6293 315 175 315 175 "/>
<path id="10" d="M310 182 C310 182 315.0879 182.8159 318 185 C322.1906 188.1429 321.8943 191.5366 326 194 C330.2282 196.5369 337.6818 196.8409 338 197 C338.0236 197.0118 336 199 336 199 "/>
<path id="11" d="M315 175 C315 175 315.6244 178.2195 315 179 C313.0644 181.4195 307 185 307 185 "/>
<path id="12" d="M288 161 C288 161 293.3712 166.0516 299 169 C303.2878 171.246 306.2174 170.4822 309 172 C309.6304 172.3439 309.4189 174.6126 310 175 C311.0977 175.7318 314.7502 175.8127 315 176 C315.0217 176.0163 314 178 314 178 "/>
<path id="13" d="M429 229 C429 229 420.7054 239.6054 411 247 C400.3911 255.083 387 261 387 261 "/>
<path id="14" d="M412 251 C412 251 415.1665 258.8054 419 262 C422.3988 264.8323 425.8753 262.8407 430 266 C447.7467 279.5932 447.5102 283.3477 466 298 C473.5108 303.9519 476.3237 303.0806 483 308 C484.3554 308.9987 485 311.1338 485 312 C485 312.4331 483 314 483 314 "/>
<path id="15" d="M418 245 C418 245 418.0433 249.2028 419 250 C421.8083 252.3403 425.8919 251.9189 430 255 C432.8548 257.1411 432.0931 259.9652 435 262 C440.8431 266.0902 443.5443 264.5617 450 269 C458.8995 275.1184 457.9819 278.067 467 284 C476.2566 290.0898 479.0349 288.483 488 294 C490.8699 295.7661 492.7735 300.0252 493 300 C493.2497 299.9723 494.5262 295.6641 497 293 C500.5458 289.1814 503.4671 289.2927 506 286 C507.2315 284.3991 506.9498 280 507 280 C507.5016 280 514.8464 283.6311 517 286 C517.7135 286.7849 517.8162 289.2043 517 291 C513.4827 298.738 512.4197 299.8704 507 308 C502.4963 314.7555 502.6528 315.5491 497 321 C489.0986 328.6192 484.3732 329.9253 479 335 C478.5124 335.4605 479.0197 338.0074 479 338 C478.8203 337.9326 473.0833 334.3437 471 332 C470.5233 331.4637 470.4774 329.8958 471 329 C473.279 325.0932 475.4179 324.6478 478 320 C480.1369 316.1536 479.0359 313.9462 481 311 C482.1309 309.3037 486.0013 308.0003 486 308 C485.9974 307.9993 477 310 477 310 "/>
</g>
</g>
</svg>
