<?xml version="1.0" encoding="utf-8"?>
<!DOCTYPE svg PUBLIC "-//W3C//DTD SVG 1.1//EN" "http://www.w3.org/Graphics/SVG/1.1/DTD/svg11.dtd">
<svg viewBox="0 0 800 800" preserveAspectRatio="xMinYMin meet" xmlns="http://www.w3.org/2000/svg" version="1.1">
<g fill="none" stroke="black" stroke-linecap="round" stroke-linejoin="round" stroke-width="1.7233">
<g transform="translate(153.6718,87.52) scale(1.7408) translate(-109,-95)">
<path id="0" d="M162 182 C162 182 177.237 221.9999 196 257 C202.3698 268.8822 206.2879 268.2031 214 279 C215.6436 281.301 216 285 216 285 "/>
<path id="1" d="M162 177 C162 177 167.6124 176.95 172 175 C193.6694 165.3692 211.6896 150.6376 216 153 C229.9394 160.6399 247.97 192.4282 276 232 C281.2292 239.3824 278.8881 241.5287 284 249 C297.9231 269.3492 300.2877 268.6033 315 289 C322.1667 298.9356 322.2547 299.7405 328 310 C328.9264 311.6543 329.2803 313.7664 329 314 C325.6159 316.8201 319.7499 320.244 310 325 C299.4401 330.1512 298.9701 330.7386 288 334 C281.0671 336.0611 278.2205 333.4941 273 336 C268.1589 338.3237 267.049 342.8854 263 346 C262.3134 346.5281 260.2653 346.3715 260 346 C257.6473 342.7062 257.1821 338.3727 253 332 C246.885 322.6819 244.775 323.35 239 314 C234.5954 306.8688 236.6798 304.1041 232 298 C226.247 290.4961 216 284 216 284 "/>
<path id="2" d="M275 338 C275 338 286.1268 348.4791 290 357 C292.1002 361.6205 288.731 367.1931 290 371 C290.5438 372.6315 293.4171 374.5922 296 375 C301.0018 375.7898 303.8191 376.1688 309 374 C323.3306 368.0011 331.3053 362.6428 339 357 C339.6644 356.5128 339.9243 353.294 339 352 C330.1536 339.615 314 322 314 322 "/>
<path id="3" d="M317 370 C317 370 317.2704 373.9084 319 376 C337.0562 397.8354 340.7548 398.3656 360 422 C368.9767 433.024 367.3671 435.3749 376 446 C379.7623 450.6305 381.5599 451.78 386 454 C387.9029 454.9514 391.8024 454.079 392 454 C392.0066 453.9974 391 452 391 452 "/>
<path id="4" d="M212 151 C212 151 219.9536 151.2674 226 149 C234.9158 145.6566 236.6273 144.362 244 139 C246.4399 137.2255 248 134.4379 248 133 C248 131.5621 244.6868 126.9688 244 127 C240.6245 127.1534 233.2253 129.5536 226 134 C221.615 136.6985 222.4226 139.7835 218 143 C212.1953 147.2216 204.717 149.1396 204 150 C203.936 150.0768 208.0626 154.9741 208 155 C206.8371 155.4812 190.4737 157.579 175 162 C170.3895 163.3173 169.349 163.8032 166 167 C159.1251 173.5624 160.3764 177.4227 153 183 C141.4372 191.7426 126.5472 196.7751 125 198 C124.9677 198.0256 128.5368 202.1544 129 202 C133.1685 200.6105 141.0247 196.9119 149 190 C154.8066 184.9676 154.5166 180.2032 159 176 C160.345 174.739 165 175 165 175 "/>
<path id="5" d="M165 174 C165 174 157.7152 167.3347 153 160 C149.1224 153.9682 150.9675 151.5104 147 146 C142.7466 140.0926 134.9795 135.0195 135 135 C135.5239 134.5023 153.2135 132.4505 167 127 C172.7079 124.7434 177.9768 117.9753 178 118 C178.5266 118.5595 179.4696 131.8042 183 144 C184.7669 150.1037 185.5413 150.5237 189 156 C191.3635 159.7422 192.571 161.1108 195 163 C195.6367 163.4952 198 163 198 163 "/>
<path id="6" d="M174 117 C174 117 182.6968 114.6285 188 111 C190.8674 109.0381 192.7049 105.6229 193 104 C193.1289 103.2911 191.7366 101.1164 190 100 C185.5694 97.1518 181.3107 94.2829 179 95 C173.5354 96.6959 170.5446 104.526 161 109 C140.2108 118.7449 136.1301 116.4667 115 125 C111.7701 126.3044 110.1695 127.856 109 130 C108.1518 131.555 108.4824 133.4119 109 136 C109.3796 137.898 109.8056 138.9762 111 140 C112.4773 141.2663 113.5896 141.6292 116 142 C119.633 142.5589 120.4437 142.8891 124 142 C133.6687 139.5828 144 135 144 135 "/>
</g>
</g>
</svg>
