<?xml version="1.0" encoding="utf-8"?>
<!DOCTYPE svg PUBLIC "-//W3C//DTD SVG 1.1//EN" "http://www.w3.org/Graphics/SVG/1.1/DTD/svg11.dtd">
<svg viewBox="0 0 800 800" preserveAspectRatio="xMinYMin meet" xmlns="http://www.w3.org/2000/svg" version="1.1">
<g fill="none" stroke="black" stroke-linecap="round" stroke-linejoin="round" stroke-width="1.4065">
<g transform="translate(334.9444,87.52) scale(2.133) translate(-215,-110.1333)">
<path id="0" d="M229 160.1333 C229 160.1333 238.2297 158.7482 239 159.1333 C239.2433 159.255 239 165.1333 239 165.1333 "/>
<path id="1" d="M229 160.1333 C229 160.1333 232.5509 164.8673 233 169.1333 C234.3823 182.265 233 198.1333 233 198.1333 "/>
<path id="2" d="M241 163.1333 L241 198.1333 "/>
<path id="3" d="M226 201.1333 C226 201.1333 244.2124 201.6825 245 203.1333 C247.1107 207.0214 243.8255 219.9838 245 236.1333 C245.7934 247.042 247.6376 247.2344 249 258.1333 C249.6055 262.9773 249.001 268.133 249 268.1333 C249 268.1333 246 259.1333 246 259.1333 "/>
<path id="4" d="M227 203.1333 C227 203.1333 228.9498 268.187 232 278.1333 C232.22 278.8507 248.5142 279.3845 250 278.1333 C251.1947 277.1272 251 262.1333 251 262.1333 "/>
<path id="5" d="M233 278.1333 C233 278.1333 235.7386 283.7316 236 289.1333 C238.6535 343.9715 235.958 387.8108 239 402.1333 C239.1194 402.6955 259.8289 402.8033 260 402.1333 C263.0234 390.2917 264.5432 351.3426 263 308.1333 C262.7 299.7347 260.1427 298.4187 256 290.1333 C253.8805 285.8943 250.7854 284.4896 250 282.1333 C249.7382 281.3479 252.2917 278.7583 252 278.1333 C250.5544 275.0356 243 267.1333 243 267.1333 "/>
<path id="6" d="M229 110.1333 L231 163.1333 "/>
<path id="7" d="M225 163.1333 C225 163.1333 240.7338 162.0905 242 163.1333 C242.8588 163.8405 241.5198 173.5321 242 177.1333 C242.0434 177.4592 243.8691 177.7406 244 178.1333 C244.3927 179.3114 244.1612 183.0886 244 183.1333 C241.9112 183.7136 227.0642 184.2567 226 183.1333 C224.8142 181.8817 225.2005 167.3314 226 164.1333 C226.0947 163.7546 230.9898 163.1002 231 163.1333 C231.2596 163.9769 229.5235 173.3217 230 177.1333 C230.0816 177.7858 232.4635 179.1333 233 179.1333 C233.3577 179.1333 235.0395 177.6469 235 177.1333 C234.7597 174.0094 231.9999 166.1334 232 166.1333 C232 166.1333 236.9911 176.1208 237 176.1333 C237.002 176.1361 237.4509 174.3057 237 173.1333 C235.2079 168.4738 232.0001 163.1329 232 163.1333 C231.9999 163.1341 236.5152 175.6863 236 178.1333 C235.7932 179.1158 228.1226 182.2423 228 182.1333 C227.6781 181.8472 226.0844 171.6593 227 170.1333 C227.7228 168.9286 236.7327 166.866 237 167.1333 C237.5728 167.7061 238 181.1333 238 181.1333 C238 181.1333 238 161.1333 238 161.1333 C238 161.1333 238 172.1333 238 172.1333 "/>
<path id="8" d="M219 282.1333 C219 282.1333 268.9531 281.3916 276 282.1333 C276.0781 282.1416 276.0731 288.1261 276 288.1333 C268.4481 288.8761 222.5519 288.8761 215 288.1333 C214.9269 288.1261 214.3443 284.1004 215 282.1333 C215.4371 280.8219 218 279.1333 218 279.1333 "/>
<path id="9" d="M261 291.1333 L261 403.1333 "/>
<path id="10" d="M242 161.1333 C242 161.1333 245.984 161.0453 246 161.1333 C246.484 163.7953 247.3389 179.5629 246 183.1333 C245.6729 184.0057 237 185.1333 237 185.1333 "/>
<path id="11" d="M218 202.1333 C218 202.1333 254.5586 202.4855 260 203.1333 C260.0615 203.1407 260.0521 207.1279 260 207.1333 C255.3021 207.6279 226.5941 207.9796 222 207.1333 C221.8441 207.1046 222 200.1333 222 200.1333 "/>
</g>
</g>
</svg>
