<?xml version="1.0" encoding="utf-8"?>
<!DOCTYPE svg PUBLIC "-//W3C//DTD SVG 1.1//EN" "http://www.w3.org/Graphics/SVG/1.1/DTD/svg11.dtd">
<svg viewBox="0 0 800 800" preserveAspectRatio="xMinYMin meet" xmlns="http://www.w3.org/2000/svg" version="1.1">
<g fill="none" stroke="black" stroke-linecap="round" stroke-linejoin="round" stroke-width="1.4161">
<g transform="translate(334.3262,87.52) scale(2.1185) translate(-277,-66)">
<path id="0" d="M297 146 C297 146 293.1073 144.4826 293 144 C292.7566 142.9048 293.8546 137.6872 295 137 C297.6233 135.426 303.5639 134.5071 308 135 C309.8902 135.21 311.9434 137.3094 313 139 C313.5932 139.9491 313.5514 142.0351 313 143 C312.2714 144.2751 308.9888 145.972 309 146 C309.0352 146.088 312.9298 146.4474 315 148 C318.1053 150.3289 320.1315 151.774 321 155 C322.9426 162.2154 321.5913 171.4115 322 174 C322.0067 174.0427 323.9995 173.9888 324 174 C324.3855 182.8656 323.3147 210.5579 325 243 C325.1991 246.8318 327.7706 247.1573 328 251 C329.6566 278.7472 329 310 329 310 "/>
<path id="1" d="M298 147 C298 147 291.5309 146.2921 291 147 C289.0027 149.6631 288.6713 156.9895 286 163 C285.5113 164.0995 283.2497 164.1009 283 165 C281.5407 170.2535 281.0611 173.0635 281 181 C280.5655 237.4896 281.6186 280.5056 282 295 C282.0002 295.0067 283.9842 294.9304 284 295 C284.7895 298.4737 287 317 287 317 "/>
<path id="2" d="M288 318 L330 318 "/>
<path id="3" d="M329 309 L330 318 "/>
<path id="4" d="M283 253 L326 251 "/>
<path id="5" d="M301 254 L300 351 "/>
<path id="6" d="M307 253 L308 350 "/>
<path id="7" d="M299 350 C299 350 279.7353 350.6323 277 352 C276.4648 352.2676 276.8949 360.9889 277 361 C283.2906 361.6622 326.1734 358.9612 334 358 C334.067 357.9918 334.5828 355.1657 334 354 C333.1257 352.2515 331.6271 350.2244 330 350 C321.0631 348.7673 305 350 305 350 "/>
<path id="8" d="M330 312 C330 312 338.557 313.6203 339 314 C339.0591 314.0506 338.0203 317.3623 337 318 C335.498 318.9388 331 319 331 319 "/>
<path id="9" d="M287 314 C287 314 281.4426 313.6311 281 314 C280.6926 314.2561 280.6875 318.8296 281 319 C282.3228 319.7215 292 320 292 320 "/>
<path id="10" d="M318 179 L323 179 "/>
<path id="11" d="M319 189 L324 189 "/>
<path id="12" d="M319 198 L323 199 "/>
<path id="13" d="M316 208 L323 208 "/>
<path id="14" d="M319 219 L323 219 "/>
<path id="15" d="M318 230 L324 230 "/>
<path id="16" d="M320 240 L323 240 "/>
<path id="17" d="M321 249 L325 249 "/>
<path id="18" d="M321 260 L326 261 "/>
<path id="19" d="M322 272 L326 272 "/>
<path id="20" d="M323 285 L328 285 "/>
<path id="21" d="M304 136 L303 66 "/>
</g>
</g>
</svg>
