<?xml version="1.0" encoding="utf-8"?>
<!DOCTYPE svg PUBLIC "-//W3C//DTD SVG 1.1//EN" "http://www.w3.org/Graphics/SVG/1.1/DTD/svg11.dtd">
<svg viewBox="0 0 800 800" preserveAspectRatio="xMinYMin meet" xmlns="http://www.w3.org/2000/svg" version="1.1">
<g fill="none" stroke="black" stroke-linecap="round" stroke-linejoin="round" stroke-width="1.6129">
<g transform="translate(87.52,315.37) scale(1.86) translate(-120,-158.1333)">
<path id="0" d="M353 158.1333 L354 180.1333 "/>
<path id="1" d="M356 222.1333 L356 245.1333 "/>
<path id="2" d="M175 192.1333 C175 192.1333 257.9124 193.4756 338 192.1333 C345.8861 192.0012 348.9265 191.2695 354 189.1333 C355.5004 188.5016 356.9959 184.1499 357 184.1333 C357.0011 184.129 355 185.1333 355 185.1333 C354.9236 184.9805 355 180.1333 355 180.1333 "/>
<path id="3" d="M179 226.1333 C179 226.1333 221.0513 225.7338 263 226.1333 C273.4919 226.2333 278.2473 226.3489 284 227.1333 C284.3464 227.1806 284.7574 229.1365 285 229.1333 C303.936 228.8874 361 226.1333 361 226.1333 "/>
<path id="4" d="M353 158.1333 C353 158.1333 357.6365 159.8157 358 161.1333 C360.2267 169.205 361 187.1333 361 187.1333 "/>
<path id="5" d="M357 245.1333 C357 245.1333 356.76 248.8133 357 249.1333 C357.135 249.3133 359.5211 249.5165 360 249.1333 C360.8301 248.4692 361.8517 246.9877 362 245.1333 C362.7489 235.7725 362 224.1333 362 224.1333 "/>
<path id="6" d="M178 194.1333 C178 194.1333 175.1413 212.6879 176 222.1333 C176.1684 223.9854 181 227.1333 181 227.1333 "/>
<path id="7" d="M178 203.1333 C178 203.1333 163.0757 202.3445 162 203.1333 C161.5249 203.4818 162.1357 213.5391 163 214.1333 C164.5142 215.1743 178 214.1333 178 214.1333 "/>
<path id="8" d="M162 209.1333 L120 207.1333 "/>
<path id="9" d="M259 197.1333 C259 197.1333 314.509 199.9438 368 199.1333 C379.32 198.9618 379.5857 195.9948 391 195.1333 C405.6953 194.0243 406.5886 196.5745 421 195.1333 C430.8478 194.1486 441 190.1333 441 190.1333 "/>
<path id="10" d="M260 197.1333 C260 197.1333 254.869 198.7859 252 201.1333 C250.1953 202.6099 249.4986 203.8065 249 206.1333 C248.2048 209.8445 247.7834 212.1788 249 215.1333 C250.471 218.7058 252.9841 221.5248 256 223.1333 C258.1415 224.2755 261.739 223.9555 264 223.1333 C265.259 222.6755 266.94 220.6928 267 219.1333 C267.3195 210.826 265 197.1333 265 197.1333 "/>
<path id="11" d="M264 224.1333 C264 224.1333 269.1967 225.8248 273 225.1333 C278.9991 224.0426 279.7227 221.0052 286 220.1333 C296.5429 218.669 297.9533 218.878 309 220.1333 C319.3591 221.3105 319.642 224.0314 330 225.1333 C342.5073 226.4639 343.6284 226.1643 356 225.1333 C360.8773 224.7269 361.161 222.3171 366 222.1333 C399.0127 220.8797 402.9468 221.267 435 222.1333 C437.3478 222.1968 438.9007 222.7342 440 224.1333 C443.0992 228.0778 443.6438 233.7771 446 236.1333 C446.7854 236.9187 451.2947 236.8386 452 236.1333 C453.6456 234.4877 455.8222 230.7556 456 226.1333 C456.734 207.0489 456.2427 202.0748 454 184.1333 C453.655 181.3731 451.6884 179.1464 450 178.1333 C448.667 177.3336 444.8394 177.2939 444 178.1333 C440.9222 181.2112 436 192.1333 436 192.1333 "/>
<path id="12" d="M254 201.1333 C254 201.1333 258.5671 200.5931 261 199.1333 C262.6022 198.172 263.8854 195.1333 264 195.1333 C264.0764 195.1333 266 199.1333 266 199.1333 "/>
<path id="13" d="M363 185.1333 L359 198.1333 "/>
</g>
</g>
</svg>
