<?xml version="1.0" encoding="utf-8"?>
<!DOCTYPE svg PUBLIC "-//W3C//DTD SVG 1.1//EN" "http://www.w3.org/Graphics/SVG/1.1/DTD/svg11.dtd">
<svg viewBox="0 0 800 800" preserveAspectRatio="xMinYMin meet" xmlns="http://www.w3.org/2000/svg" version="1.1">
<g fill="none" stroke="black" stroke-linecap="round" stroke-linejoin="round" stroke-width="1.8049">
<g transform="translate(87.52,343.4877) scale(1.6621) translate(-57,-160.4167)">
<path id="0" d="M112 166.4167 C112 166.4167 115.5849 189.398 114 208.4167 C113.296 216.8652 110.5552 219.3063 107 226.4167 C106.4212 227.5742 104.003 228.4206 104 228.4167 C103.9286 228.3215 104 222.4167 104 222.4167 "/>
<path id="1" d="M111 164.4167 C111 164.4167 109.25 160.4167 109 160.4167 C108 160.4167 101.7131 162.6735 101 164.4167 C99.1949 168.8292 100 182.4167 100 182.4167 "/>
<path id="2" d="M111 182.4167 C111 182.4167 71.9154 177.9804 68 180.4167 C66.0621 181.6225 64.81 209.74 66 210.4167 C70.1434 212.7727 119 209.4167 119 209.4167 "/>
<path id="3" d="M103 209.4167 L104 226.4167 "/>
<path id="4" d="M71 170.4167 C71 170.4167 67.7969 178.045 67 185.4167 C65.8639 195.9256 68.616 197.4514 67 207.4167 C65.8267 214.6519 61.1559 222.3075 61 222.4167 C60.9849 222.4273 57.2805 218.0636 57 214.4167 C55.9558 200.8418 55.631 197.6309 58 183.4167 C59.3809 175.1314 64.8732 166.4974 65 166.4167 C65.0168 166.406 69 176.4167 69 176.4167 "/>
<path id="5" d="M114 169.4167 L340 174.4167 "/>
<path id="6" d="M118 211.4167 C118 211.4167 137.584 209.4167 157 209.4167 C180.8967 209.4167 181.4164 209.5148 205 211.4167 C211.974 211.9791 212.1021 214.1031 219 214.4167 C244.3736 215.57 245.0737 215.2809 271 214.4167 C304.9702 213.2843 339 210.4167 339 210.4167 "/>
<path id="7" d="M342 175.4167 C342 175.4167 346.8187 179.3441 352 181.4167 C361.3598 185.1606 372 187.4167 372 187.4167 "/>
<path id="8" d="M336 211.4167 L371 204.4167 "/>
<path id="9" d="M375 190.4167 L375 204.4167 "/>
<path id="10" d="M378 191.4167 C378 191.4167 382.8526 191.1513 383 191.4167 C383.4776 192.2763 383.828 199.1155 383 200.4167 C382.4062 201.3498 376 202.4167 376 202.4167 "/>
<path id="11" d="M384 196.4167 C384 196.4167 388.6571 193.6826 393 193.4167 C411.9159 192.2586 433 193.4167 433 193.4167 "/>
<path id="12" d="M382 194.4167 L427 194.4167 "/>
<path id="13" d="M135 171.4167 L136 190.4167 "/>
<path id="14" d="M156 173.4167 L159 190.4167 "/>
<path id="15" d="M187 173.4167 L186 188.4167 "/>
<path id="16" d="M215 176.4167 L217 195.4167 "/>
<path id="17" d="M243 177.4167 L246 193.4167 "/>
<path id="18" d="M269 177.4167 L271 192.4167 "/>
<path id="19" d="M295 177.4167 L297 193.4167 "/>
<path id="20" d="M326 178.4167 L326 192.4167 "/>
</g>
</g>
</svg>
