<?xml version="1.0" encoding="utf-8"?>
<!DOCTYPE svg PUBLIC "-//W3C//DTD SVG 1.1//EN" "http://www.w3.org/Graphics/SVG/1.1/DTD/svg11.dtd">
<svg viewBox="0 0 800 800" preserveAspectRatio="xMinYMin meet" xmlns="http://www.w3.org/2000/svg" version="1.1">
<g fill="none" stroke="black" stroke-linecap="round" stroke-linejoin="round" stroke-width="0.96486">
<g transform="translate(120.1672,87.52) scale(3.1093) translate(-114,-115.4167)">
<path id="0" d="M124 155.4167 C124 155.4167 115.0849 151.9118 114 149.4167 C112.2177 145.3175 112.1636 138.844 114 132.4167 C115.4352 127.3936 117.5543 124.7026 122 121.4167 C127.3564 117.4576 130.8445 116.1553 137 115.4167 C140.7747 114.9637 145.6074 116.676 147 118.4167 C148.7217 120.5688 150.0107 126.7108 149 130.4167 C147.9252 134.3578 141 140.4167 141 140.4167 "/>
<path id="1" d="M121 154.4167 C121 154.4167 125.7087 154.1489 129 152.4167 C134.5301 149.5061 139.5479 144.2471 140 144.4167 C140.5792 144.6339 142.01 152.4367 145 158.4167 C146.0873 160.5912 149 162.4167 149 162.4167 "/>
<path id="2" d="M144 140.4167 C144 140.4167 144.4119 149.2052 147 155.4167 C148.898 159.9718 154 164.4167 154 164.4167 "/>
<path id="3" d="M157 182.4167 C157 182.4167 152.0037 183.9631 150 183.4167 C148.4837 183.0031 146.4259 181.2055 146 179.4167 C144.5175 173.1902 143.3754 167.6967 145 162.4167 C146.1455 158.6939 149.4688 155.6822 154 153.4167 C159.5381 150.6476 165.1192 149.8345 169 150.4167 C170.5737 150.6527 173.6961 154.0866 174 156.4167 C174.7648 162.28 169.947 169.5268 172 173.4167 C175.8735 180.756 183.4743 182.1583 193 192.4167 C215.7272 216.8922 215.8755 217.4743 237 243.4167 C244.1979 252.2562 249.907 262.2074 250 262.4167 C250.0121 262.4439 245 261.4167 245 261.4167 "/>
<path id="4" d="M159 183.4167 C159 183.4167 165.3041 193.7082 173 202.4167 C184.0903 214.9662 186.3878 213.5596 197 226.4167 C212.0455 244.6448 210.8558 249.0965 225 265.4167 C228.4727 269.4236 230.8154 270.0027 236 271.4167 C240.5132 272.6476 243.7457 272.3465 247 271.4167 C248.2257 271.0665 249.8831 268.8194 250 267.4167 C250.2155 264.8312 248 259.4167 248 259.4167 "/>
<path id="5" d="M248 273.4167 C248 273.4167 248.8393 282.9345 249 283.4167 C249.0052 283.4322 250.9485 282.7511 251 282.4167 C251.4722 279.3477 250.8685 270.5482 251 270.4167 C251.0219 270.3948 257.0921 274.3575 258 275.4167 C258.0943 275.5267 257.2492 277.3668 257 277.4167 C256.3236 277.5519 253 276.4167 253 276.4167 "/>
<path id="6" d="M252 277.4167 C252 277.4167 256.3302 277.7468 258 279.4167 C264.2619 285.6785 263.7408 288.9558 271 296.4167 C281.3759 307.0808 294 316.4167 294 316.4167 "/>
</g>
</g>
</svg>
