<?xml version="1.0" encoding="utf-8"?>
<!DOCTYPE svg PUBLIC "-//W3C//DTD SVG 1.1//EN" "http://www.w3.org/Graphics/SVG/1.1/DTD/svg11.dtd">
<svg viewBox="0 0 800 800" preserveAspectRatio="xMinYMin meet" xmlns="http://www.w3.org/2000/svg" version="1.1">
<g fill="none" stroke="black" stroke-linecap="round" stroke-linejoin="round" stroke-width="2.3858">
<g transform="translate(87.52,359.7611) scale(1.2575) translate(-43,-140)">
<path id="0" d="M191 155 L458 155 "/>
<path id="1" d="M190 189 C190 189 307.5365 190.8724 424 190 C440.4361 189.8769 457 187 457 187 "/>
<path id="2" d="M190 154 C190 154 187.0828 172.9935 188 184 C188.1973 186.3673 193 190 193 190 "/>
<path id="3" d="M156 168 L187 168 "/>
<path id="4" d="M155 178 L188 179 "/>
<path id="5" d="M157 167 L155 177 "/>
<path id="6" d="M156 171 L43 172 "/>
<path id="7" d="M457 156 C457 156 460.9473 161.7363 462 167 C463.2282 173.141 463.1227 175.1058 462 181 C461.3775 184.2679 458 188 458 188 "/>
<path id="8" d="M457 140 C457 140 463.61 142.22 465 145 C470.1739 155.3478 471.2584 160.2919 474 174 C474.9613 178.8067 474.5975 180.2074 473 185 C469.8989 194.3032 464 204 464 204 "/>
<path id="9" d="M456 140 L456 155 "/>
<path id="10" d="M456 190 L466 204 "/>
<path id="11" d="M474 161 L530 161 "/>
<path id="12" d="M478 172 L529 171 "/>
<path id="13" d="M529 160 C529 160 528.4414 151.6284 529 151 C529.4414 150.5034 535.0991 150.1359 537 151 C538.2529 151.5695 539.6552 153.7012 540 156 C540.949 162.3269 541.5788 166.0382 540 171 C539.0288 174.0523 535.3905 176.6961 533 178 C532.2367 178.4164 529.6461 177.7538 529 177 C527.8746 175.687 527 171 527 171 "/>
<path id="14" d="M223 176 L223 190 "/>
<path id="15" d="M276 175 L277 189 "/>
<path id="16" d="M326 175 L326 189 "/>
<path id="17" d="M374 175 L376 189 "/>
<path id="18" d="M337 183 L337 187 "/>
<path id="19" d="M345 181 L346 187 "/>
<path id="20" d="M355 181 L355 188 "/>
<path id="21" d="M362 181 L363 187 "/>
<path id="22" d="M285 181 L286 186 "/>
<path id="23" d="M292 178 L295 186 "/>
<path id="24" d="M302 179 L305 187 "/>
<path id="25" d="M314 181 L315 187 "/>
<path id="26" d="M232 180 L234 190 "/>
<path id="27" d="M239 180 L241 186 "/>
<path id="28" d="M248 179 L249 187 "/>
<path id="29" d="M260 179 L263 185 "/>
<path id="30" d="M261 179 L265 189 "/>
<path id="31" d="M386 178 L386 184 "/>
</g>
</g>
</svg>
