<?xml version="1.0" encoding="utf-8"?>
<!DOCTYPE svg PUBLIC "-//W3C//DTD SVG 1.1//EN" "http://www.w3.org/Graphics/SVG/1.1/DTD/svg11.dtd">
<svg viewBox="0 0 800 800" preserveAspectRatio="xMinYMin meet" xmlns="http://www.w3.org/2000/svg" version="1.1">
<g fill="none" stroke="black" stroke-linecap="round" stroke-linejoin="round" stroke-width="1.5121">
<g transform="translate(301.792,87.52) scale(1.984) translate(-186.5,-114.6667)">
<path id="0" d="M213.5 190.6667 L213.5 361.6667 "/>
<path id="1" d="M255.5 190.6667 L255.5 364.6667 "/>
<path id="2" d="M213.5 362.6667 C213.5 362.6667 213.8153 368.4947 213.5 368.6667 C212.4403 369.2447 203.3993 368.0126 202.5 368.6667 C202.0243 369.0126 202.5 376.6667 202.5 376.6667 "/>
<path id="3" d="M201.5 378.6667 C201.5 378.6667 265.4806 380.266 270.5 379.6667 C270.5674 379.6586 270.2069 372.3736 268.5 370.6667 C265.862 368.0287 256.5 365.6667 256.5 365.6667 "/>
<path id="4" d="M225.5 299.6667 L225.5 416.6667 "/>
<path id="5" d="M235.5 301.6667 C235.5 301.6667 230.034 405.767 235.5 418.6667 C236.5365 421.1128 279.1789 418.5289 285.5 419.6667 C285.6814 419.6993 286.0604 424.8645 285.5 427.6667 C285.3319 428.5073 284.2444 429.6501 283.5 429.6667 C251.4595 430.3787 237.2311 430.9573 195.5 429.6667 C191.188 429.5333 188.0292 427.8561 186.5 426.6667 C186.0802 426.3402 186.4493 422.6719 186.5 422.6667 C191.3243 422.1719 220.8218 423.6263 225.5 422.6667 C225.6968 422.6263 225.5 414.6667 225.5 414.6667 "/>
<path id="6" d="M214.5 191.6667 C214.5 191.6667 213.308 182.8453 214.5 179.6667 C215.1208 178.0111 220.5 175.6667 220.5 175.6667 "/>
<path id="7" d="M256.5 192.6667 C256.5 192.6667 257.7051 186.9429 256.5 184.6667 C254.4266 180.7502 252.2858 178.5798 247.5 175.6667 C241.8662 172.2374 233.5 170.6667 233.5 170.6667 "/>
<path id="8" d="M219.5 174.6667 L225.5 172.6667 "/>
<path id="9" d="M224.5 174.6667 L231.5 168.6667 "/>
<path id="10" d="M231.5 168.6667 L231.5 114.6667 "/>
<path id="11" d="M210.5 298.6667 C210.5 298.6667 218.5734 301.1382 226.5 301.6667 C240.6896 302.6126 255.5 301.6667 255.5 301.6667 "/>
<path id="12" d="M248.5 276.6667 L255.5 276.6667 "/>
<path id="13" d="M234.5 259.6667 L254.5 259.6667 "/>
<path id="14" d="M247.5 248.6667 L251.5 248.6667 "/>
<path id="15" d="M249.5 249.6667 L255.5 249.6667 "/>
<path id="16" d="M234.5 234.6667 L255.5 234.6667 "/>
</g>
</g>
</svg>
