<?xml version="1.0" encoding="utf-8"?>
<!DOCTYPE svg PUBLIC "-//W3C//DTD SVG 1.1//EN" "http://www.w3.org/Graphics/SVG/1.1/DTD/svg11.dtd">
<svg viewBox="0 0 800 800" preserveAspectRatio="xMinYMin meet" xmlns="http://www.w3.org/2000/svg" version="1.1">
<g fill="none" stroke="black" stroke-linecap="round" stroke-linejoin="round" stroke-width="0.93606">
<g transform="translate(143.6062,87.52) scale(3.2049) translate(-328,-158.4167)">
<path id="0" d="M466 171.4167 C466 171.4167 474.3522 172.5462 480 171.4167 C482.7432 170.868 486 167.4167 486 167.4167 "/>
<path id="1" d="M487 172.4167 L473 181.4167 "/>
<path id="2" d="M476 182.4167 C476 182.4167 468.3179 183.2575 463 181.4167 C456.7166 179.2417 450 173.4167 450 173.4167 "/>
<path id="3" d="M454 177.4167 C454 177.4167 440.6296 173.6924 439 174.4167 C438.0593 174.8347 436 185.4167 436 185.4167 "/>
<path id="4" d="M466 172.4167 C466 172.4167 461.8087 172.7726 459 171.4167 C448.3867 166.293 447.2369 162.0134 437 158.4167 C431.2203 156.386 425.8489 156.5759 422 158.4167 C418.5973 160.044 415.5473 164.3878 414 169.4167 C412.2758 175.0203 414 184.4167 414 184.4167 "/>
<path id="5" d="M438 186.4167 C438 186.4167 440.7537 205.2689 438 222.4167 C430.0042 272.2085 428.2622 273.9591 416 323.4167 C413.4678 333.6299 412.7808 335.6479 408 343.4167 C405.9047 346.8215 404.1569 347.5272 400 349.4167 C393.8704 352.2029 392.8635 352.6323 386 353.4167 C376.0303 354.5561 374.9037 354.5818 365 353.4167 C358.6472 352.6693 356.7037 352.5525 352 349.4167 C346.2955 345.6137 343.4868 343.385 341 337.4167 C337.1511 328.1793 337 313.4167 337 313.4167 "/>
<path id="6" d="M415 178.4167 C415 178.4167 415.3985 188.6274 414 198.4167 C410.4394 223.3411 410.546 225.0443 405 248.4167 C403.9164 252.9833 401.2473 252.8953 400 257.4167 C397.4971 266.4895 399.0584 273.2998 397 277.4167 C396.4256 278.5656 389 279.4167 389 279.4167 "/>
<path id="7" d="M402 276.4167 L398 275.4167 "/>
<path id="8" d="M398 275.4167 L396 274.4167 "/>
<path id="9" d="M400 268.4167 C400 268.4167 400.6243 280.3461 399 290.4167 C398.2931 294.7997 396.3347 298.3489 395 299.4167 C394.3803 299.9124 389.1264 298.868 389 298.4167 C387.8552 294.328 388 274.4167 388 274.4167 "/>
<path id="10" d="M402 292.4167 C402 292.4167 396.1419 296.6019 391 298.4167 C388.6481 299.2468 385.044 298.6072 385 298.4167 C383.7398 292.9557 382 259.4167 382 259.4167 "/>
<path id="11" d="M381 261.4167 C381 261.4167 377.4478 272.7898 372 280.4167 C368.3885 285.4727 365.6721 286.4132 361 289.4167 C360.165 289.9535 357.9949 289.423 358 289.4167 C358.0224 289.3886 365 284.4384 365 284.4167 C365 284.4167 361.0289 283.5906 358 284.4167 C350.8015 286.3799 350.2357 288.8087 343 290.4167 C337.684 291.598 334.0965 291.4488 331 290.4167 C329.7958 290.0153 328.1177 287.4169 328 285.4167 C327.7299 280.8252 327.5461 276.4549 330 273.4167 C335.2891 266.8682 339.6052 263.0147 349 259.4167 C360.3887 255.0551 365.7535 255.1127 377 255.4167 C380.6835 255.5162 386 260.4167 386 260.4167 "/>
<path id="12" d="M338 290.4167 C338 290.4167 340.4744 295.0368 341 299.4167 C341.8984 306.9036 341 315.4167 341 315.4167 "/>
<path id="13" d="M438 186.4167 C438 186.4167 429.3269 187.3657 423 186.4167 C420.7012 186.0719 418 183.4167 418 183.4167 "/>
<path id="14" d="M440 181.4167 L422 179.4167 "/>
<path id="15" d="M347 313.4167 L346 329.4167 "/>
<path id="16" d="M487 170.4167 L488 169.4167 "/>
<path id="17" d="M454 168.4167 L455 176.4167 "/>
<path id="18" d="M459 171.4167 L462 176.4167 "/>
<path id="19" d="M353 293.4167 L349 294.4167 "/>
</g>
</g>
</svg>
