<?xml version="1.0" encoding="utf-8"?>
<!DOCTYPE svg PUBLIC "-//W3C//DTD SVG 1.1//EN" "http://www.w3.org/Graphics/SVG/1.1/DTD/svg11.dtd">
<svg viewBox="0 0 800 800" preserveAspectRatio="xMinYMin meet" xmlns="http://www.w3.org/2000/svg" version="1.1">
<g fill="none" stroke="black" stroke-linecap="round" stroke-linejoin="round" stroke-width="1.0465">
<g transform="translate(117.6213,87.52) scale(2.8668) translate(-144,-177)">
<path id="0" d="M144 208 C144 208 160.1521 201.7449 172 193 C179.8264 187.2234 180.7019 181.9865 186 177 C186.547 176.4852 188.9502 176.8443 189 177 C190.3809 181.3152 193.121 189.5683 194 202 C196.5705 238.3542 192.3343 241.5423 196 276 C197.0299 285.6813 201.2015 285.8823 204 296 C207.5759 308.9282 205.4458 309.9679 209 323 C212.8504 337.1181 218.2979 350.663 219 351 C219.2193 351.1052 227.4261 343.6087 234 335 C269.1249 289.0032 303 241 303 241 "/>
<path id="1" d="M144 210 C144 210 143.5304 215.5891 144 216 C144.7939 216.6946 151.4913 217.3179 152 217 C152.2586 216.8383 152.6557 212.9671 152 211 C151.5629 209.6886 149 208 149 208 "/>
<path id="2" d="M152 215 C152 215 171.9978 200.9968 172 201 C172.457 201.6627 169.9909 223.9091 172 244 C172.8223 252.2232 177.3616 252.8068 178 261 C180.193 289.1432 176.082 293.7638 178 321 C178.3629 326.1531 181.6054 326.4215 183 332 C186.4439 345.7755 185.0448 350.4926 188 361 C188.4009 362.4255 190.839 362.194 192 364 C199.085 375.0211 198.764 378.5078 206 389 C207.6992 391.4638 209.0638 392.266 212 393 C219.7599 394.94 222.1192 396.037 230 395 C239.2956 393.7769 241.6685 393.0377 250 388 C261.8576 380.8303 261.2 377.4286 273 369 C278.2547 365.2466 280.1588 366.7888 285 363 C290.9129 358.3725 289.8045 355.5058 296 351 C310.9321 340.1403 313.444 341.7163 329 331 C335.5106 326.5149 338.8813 322.5039 341 320 C341.1156 319.8634 340 318 340 318 "/>
<path id="3" d="M306 243 C306 243 302.7772 242.3423 302 243 C298.4426 246.0101 293.454 249.7323 293 254 C291.6493 266.6969 292.4158 274.3599 297 290 C300.183 300.8596 303.0762 306.9802 310 312 C317.6712 317.5616 337 319 337 319 "/>
<path id="4" d="M302 244 C302 244 307.8541 244.0492 310 246 C316.6364 252.0331 320.607 254.7712 324 264 C331.9219 285.5476 329.1939 293.0981 335 314 C335.5593 316.0136 339 318 339 318 "/>
<path id="5" d="M341 319 C341 319 337.4471 310.8141 336 303 C335.0596 297.9217 337.5597 295.8993 336 292 C333.4477 285.6193 328.9428 284.6881 326 278 C324.1704 273.8418 325 267 325 267 "/>
<path id="6" d="M330 271 C330 271 328.8387 282.5482 330 293 C330.7625 299.8623 334 307 334 307 "/>
<path id="7" d="M195 229 C195 229 204.47 225.841 205 226 C205.1048 226.0315 204.6311 231.5574 205 232 C205.2561 232.3074 209.5816 232.4782 210 232 C210.9325 230.9343 212.1724 225.7239 212 224 C211.9492 223.4917 210.3853 222.3958 209 222 C207.4485 221.5567 205.4858 221.5142 205 222 C203.7856 223.2144 202 229 202 229 "/>
<path id="8" d="M195 250 C195 250 202.7457 250.9298 206 250 C207.2257 249.6498 208.9992 245.9992 209 246 C209.0039 246.0039 207.7818 251.7818 208 252 C208.3055 252.3055 214.0998 252.5626 215 252 C215.5305 251.6684 216.1563 247.9379 216 247 C215.9569 246.7413 214.95 246.2375 214 246 C213.1556 245.7889 212.0505 245.8821 212 246 C211.562 247.0221 211 253 211 253 "/>
<path id="9" d="M198 273 C198 273 204.3867 273.2905 208 272 C209.8939 271.3236 211.9969 267.9878 212 268 C212.0117 268.0469 209.4958 278.2351 210 280 C210.1639 280.5736 214.2324 282.1768 216 282 C217.3104 281.869 219.4924 280.269 220 279 C220.7724 277.069 220.9522 273.6323 220 272 C218.7644 269.8819 215.6455 267.962 213 267 C211.9091 266.6033 209.2726 267.4547 209 268 C208.1366 269.7267 208 277 208 277 "/>
<path id="10" d="M204 294 C204 294 215.8841 288.9614 216 289 C216.0037 289.0012 212.8791 296.8926 213 297 C213.3528 297.3136 223.8808 297.6528 225 297 C225.3808 296.7778 225.8891 291.63 225 290 C224.0763 288.3065 221.4042 286.6557 219 286 C217.3972 285.5629 214.9203 286.0797 214 287 C212.4662 288.5338 211 294 211 294 "/>
</g>
</g>
</svg>
