<?xml version="1.0" encoding="utf-8"?>
<!DOCTYPE svg PUBLIC "-//W3C//DTD SVG 1.1//EN" "http://www.w3.org/Graphics/SVG/1.1/DTD/svg11.dtd">
<svg viewBox="0 0 800 800" preserveAspectRatio="xMinYMin meet" xmlns="http://www.w3.org/2000/svg" version="1.1">
<g fill="none" stroke="black" stroke-linecap="round" stroke-linejoin="round" stroke-width="0.69124">
<g transform="translate(87.52,100.54) scale(4.34) translate(-150,-104.4167)">
<path id="0" d="M157 109.4167 C157 109.4167 174.0043 103.8906 184 104.4167 C188.2501 104.6404 190.7615 109.7213 195 111.4167 C196.1057 111.8589 199 110.4167 199 110.4167 "/>
<path id="1" d="M160 120.4167 C160 120.4167 163.7455 116.9591 167 116.4167 C174.2165 115.2139 178.6791 114.9655 184 116.4167 C186.0771 116.9832 188.1597 119.3477 189 122.4167 C198.4567 156.954 196.6316 162.2759 207 200.4167 C210.4671 213.1705 210.8658 214.3167 217 225.4167 C220.8339 232.3542 222.3158 234.5514 228 238.4167 C232.7903 241.6741 235.7902 242.1867 242 242.4167 C247.6571 242.6262 250.0481 241.8926 255 239.4167 C258.5859 237.6237 259.4709 236.3252 262 232.4167 C270.0518 219.973 268.3727 217.3835 277 205.4167 C283.2821 196.7028 293 189.4167 293 189.4167 "/>
<path id="2" d="M197 113.4167 C197 113.4167 199.7697 124.0496 204 133.4167 C206.5865 139.1439 208.9603 138.7347 211 144.4167 C215.6057 157.2469 213.1308 159.4322 218 172.4167 C221.8357 182.6452 225.4277 187.3134 229 192.4167 C229.2708 192.8036 231.8303 192.7319 232 192.4167 C237.1163 182.915 239.4506 170.8986 250 153.4167 C256.1903 143.1584 260.0791 139.6765 267 134.4167 C268.761 133.0783 274.9193 134.1443 275 134.4167 C275.9193 137.5193 272.8177 151.5963 275 161.4167 C275.8711 165.3367 279.9798 165.749 283 170.4167 C285.1179 173.6898 283.9094 175.946 286 178.4167 C288.3348 181.1759 293.9958 183.423 294 183.4167 C294.2167 183.0917 295.4512 171.7376 294 166.4167 C293.4335 164.3395 288.8383 163.6921 288 161.4167 C286.3295 156.8824 288.9781 153.1531 287 147.4167 C284.5036 140.1772 278 132.4167 278 132.4167 "/>
<path id="3" d="M293 190.4167 L294 179.4167 "/>
<path id="4" d="M157 113.4167 L160 121.4167 "/>
<path id="5" d="M157 110.4167 C157 110.4167 150.0014 124.4038 150 124.4167 C149.9995 124.4216 153.3424 120.7455 156 119.4167 C157.2506 118.7914 160 119.4167 160 119.4167 "/>
<path id="6" d="M200 128.4167 L201 131.4167 "/>
<path id="7" d="M204 142.4167 L207 143.4167 "/>
<path id="8" d="M207 152.4167 L210 153.4167 "/>
<path id="9" d="M210 162.4167 L212 162.4167 "/>
<path id="10" d="M213 174.4167 L217 174.4167 "/>
<path id="11" d="M218 185.4167 L221 185.4167 "/>
<path id="12" d="M223 194.4167 L227 193.4167 "/>
</g>
</g>
</svg>
