<?xml version="1.0" encoding="utf-8"?>
<!DOCTYPE svg PUBLIC "-//W3C//DTD SVG 1.1//EN" "http://www.w3.org/Graphics/SVG/1.1/DTD/svg11.dtd">
<svg viewBox="0 0 800 800" preserveAspectRatio="xMinYMin meet" xmlns="http://www.w3.org/2000/svg" version="1.1">
<g fill="none" stroke="black" stroke-linecap="round" stroke-linejoin="round" stroke-width="1.2193">
<g transform="translate(226.5367,87.52) scale(2.4605) translate(-158,-74)">
<path id="0" d="M161 103 C161 103 163.1994 97.6549 166 96 C172.2978 92.2786 182.665 89.6847 183 90 C183.6109 90.575 181.4947 102.3659 183 112 C183.7377 116.7213 187.726 117.3967 188 122 C189.969 155.0797 186.8444 159.4074 188 196 C188.3294 206.4312 188.7457 206.7534 191 217 C194.2013 231.5516 193.7953 232.4099 199 246 C202.5435 255.2525 205.7622 255.0962 209 264 C211.3535 270.4721 209.7876 275.7669 211 279 C211.1924 279.5132 214.431 279.118 215 280 C221.4077 289.932 221.7653 297.8794 231 310 C236.2948 316.9495 239.71 319.57 247 322 C254.29 324.43 259.7785 324.3364 267 322 C273.34 319.9488 278.4308 316.1385 281 311 C284.1402 304.7196 281.085 299.8943 283 290 C283.9647 285.0156 287 280 287 280 "/>
<path id="1" d="M158 97 C158 97 157.9163 90.3963 160 88 C165.7534 81.3835 170.8421 76.8631 178 74 C181.3969 72.6412 189.6698 74.9874 190 76 C192.5116 83.7024 189.6367 98.6187 193 120 C196.5341 142.4671 200.6954 142.6937 204 165 C206.5618 182.2923 202.4978 183.7119 205 201 C207.8693 220.8243 209.0598 223.5507 215 241 C216.2375 244.6353 219.4208 244.6161 221 248 C222.3643 250.9235 220.8567 253.4848 222 256 C222.6515 257.4334 225.0393 257.3187 226 259 C228.4148 263.2259 228.2525 268.9883 230 270 C232.5281 271.4637 240.2327 272.0431 245 270 C250.7661 267.5288 253.3154 264.4106 258 258 C262.0058 252.5183 264 244 264 244 "/>
<path id="2" d="M269 241 C269 241 267.0915 244.1637 267 247 C266.6233 258.6769 265.1108 263.0916 268 272 C269.7761 277.4762 274.483 282.1597 279 284 C283.4327 285.8059 294.6911 283.8496 295 283 C296.9484 277.642 297.6641 252.1096 295 240 C294.4164 237.3472 289.1034 234.6238 284 233 C279.7559 231.6496 276.9568 231.8362 273 233 C270.3128 233.7904 268.9475 235.1536 267 238 C262.9811 243.8738 260 252 260 252 "/>
<path id="3" d="M197 146 L197 147 "/>
<path id="4" d="M198 164 C198 164 197.6073 161.3927 198 161 C199.1781 159.8219 203.999 157.9985 204 158 C204.0033 158.005 200 164 200 164 "/>
<path id="5" d="M202 183 C202 183 208.921 181.9684 209 182 C209.0096 182.0038 207.0071 185 207 185 C207 185 206.6073 182.3927 207 182 C208.1781 180.8219 213 179 213 179 "/>
<path id="6" d="M270 236 C270 236 267.0161 241.1737 266 246 C265.1566 250.0063 266 255 266 255 "/>
<path id="7" d="M299 281 C299 281 290.1786 279.808 287 281 C285.3445 281.6208 283.7381 284.232 283 287 C282.0599 290.5253 283 296 283 296 "/>
<path id="8" d="M207 208 C207 208 209.9794 206.9656 210 207 C210.1547 207.2578 210 213 210 213 "/>
<path id="9" d="M209 233 C209 233 208.9471 231.0118 209 231 C210.0721 230.7618 217.5389 230.8271 218 231 C218.0064 231.0024 217.4504 233.6622 217 234 C216.5842 234.3118 214 234 214 234 "/>
<path id="10" d="M164 91 C164 91 160 99 160 99 C159.9944 98.9972 160 88.9999 160 89 C159.9999 89.0001 157.9996 104.0001 158 104 C158.0008 103.9998 160.8824 94.2351 164 88 C164.5743 86.8514 166.997 85.996 167 86 C167.0714 86.0952 166.993 92.0012 167 92 C167.0505 91.9916 172.9999 85 173 85 C173 85 169.0095 91.0047 169 91 C168.9383 90.9692 167.0033 81.9961 167 82 C166.9922 82.0094 164 97 164 97 "/>
<path id="11" d="M278 287 C278 287 274.6035 287.1551 274 288 C271.2955 291.7862 271.698 295.3297 268 301 C264.5301 306.3205 262.6378 310.1151 259 311 C250.1679 313.1484 231.948 309.9649 231 310 C230.9686 310.0012 231.3064 311.4914 232 312 C237.7922 316.2476 240.1033 319.5258 246 321 C250.8988 322.2247 253.4083 320.2359 260 319 C261.0031 318.8119 261.9702 318.2681 262 318 C262.1923 316.2696 260.1048 311.1707 261 310 C263.4382 306.8116 271.7337 304.4996 275 301 C275.8881 300.0485 274.3443 296.9671 275 295 C275.4371 293.6886 276.4403 292.709 278 292 C281.1844 290.5525 285.9994 290.0001 286 290 C286.0001 290 284.0403 290.6778 284 291 C283.5167 294.8666 285.5076 299.5389 284 306 C282.3282 313.1646 280.9167 317.0833 277 321 C274.1515 323.8485 270.8479 323.9367 265 325 C260.4052 325.8354 256 325.5 255 325 C254.75 324.875 254.1193 321.0408 255 320 C261.978 311.7533 268.4497 309.5234 277 299 C280.1342 295.1425 281 287.9999 281 288 C281 288.0002 280.5864 298.4498 277 306 C271.7511 317.0503 267.0742 323.3671 262 328 C260.9751 328.9358 255.8061 327.8027 254 327 C253.5009 326.7782 252.9218 324.046 253 324 C255.2607 322.6702 266.2167 321.6061 271 317 C276.2773 311.9181 275.6678 304.4983 280 298 C280.9242 296.6137 285 296 285 296 "/>
</g>
</g>
</svg>
