<?xml version="1.0" encoding="utf-8"?>
<!DOCTYPE svg PUBLIC "-//W3C//DTD SVG 1.1//EN" "http://www.w3.org/Graphics/SVG/1.1/DTD/svg11.dtd">
<svg viewBox="0 0 800 800" preserveAspectRatio="xMinYMin meet" xmlns="http://www.w3.org/2000/svg" version="1.1">
<g fill="none" stroke="black" stroke-linecap="round" stroke-linejoin="round" stroke-width="1.1041">
<g transform="translate(94.313,87.52) scale(2.7172) translate(-151,-179.9833)">
<path id="0" d="M151 181.9833 C151 181.9833 161.6742 179.1724 171 179.9833 C183.4754 181.0682 186.6622 180.8144 197 185.9833 C207.1596 191.0631 210.0279 193.3967 217 202.9833 C228.6135 218.9519 229.8326 221.7056 237 240.9833 C243.8377 259.3744 240.5313 261.411 246 280.9833 C249.9611 295.1599 249.4502 296.6698 256 308.9833 C261.3034 318.9537 263.0357 320.3254 271 327.9833 C275.0144 331.8433 276.4585 331.8723 282 333.9833 C286.4888 335.6934 287.2533 335.9833 292 335.9833 C299.5947 335.9833 302.1756 336.572 308 333.9833 C313.3262 331.6161 315.9988 329.2796 319 323.9833 C323.3262 316.3489 323.7502 313.7735 325 303.9833 C326.625 291.2541 323.9292 290.2616 325 276.9833 C326.4041 259.5724 325.9727 256.7501 330 241.9833 C331.2082 237.5533 333.3432 235.0502 337 232.9833 C342.5247 229.8607 352.3222 228.4651 353 228.9833 C353.7332 229.544 352.2719 241.4471 354 245.9833 C354.6628 247.7233 358.2087 249.2221 361 249.9833 C362.2859 250.334 364.801 249.431 365 248.9833 C365.573 247.6941 366.2022 243.7885 365 240.9833 C362.4668 235.0725 356 227.9833 356 227.9833 "/>
<path id="1" d="M151 182.9833 C151 182.9833 150.5189 186.2994 151 187.9833 C151.2474 188.8494 152.9985 189.9895 153 189.9833 C153.0059 189.9599 152 183.9833 152 183.9833 "/>
<path id="2" d="M154 189.9833 C154 189.9833 168.2344 192.0072 171 192.9833 C171.1622 193.0406 170.4797 195.3763 171 195.9833 C174.6918 200.2904 178.5521 200.9787 183 206.9833 C187.9035 213.603 188.316 214.7734 191 222.9833 C196.6148 240.158 195.3864 245.1426 200 258.9833 C200.5126 260.5212 203.2946 260.3609 204 261.9833 C207.3652 269.7233 208.1892 271.8949 210 281.9833 C215.1062 310.4324 215.0048 311.1542 218 339.9833 C218.9673 349.2939 216.9345 349.9267 218 358.9833 C218.8676 366.3576 220.4823 371.4538 222 373.9833 C222.2617 374.4195 226.5221 373.4457 227 373.9833 C228.2545 375.3947 227.8135 379.2067 230 382.9833 C232.9796 388.13 233.4324 389.5999 238 392.9833 C245.8286 398.7823 247.3013 399.6858 257 402.9833 C271.4529 407.8973 272.6923 408.5353 288 409.9833 C308.7892 411.9499 312.184 412.97 331 409.9833 C340.4462 408.4839 342.702 406.1475 351 399.9833 C359.1337 393.9411 360.7393 392.4462 366 383.9833 C371.3954 375.3037 371.3148 373.4556 374 362.9833 C376.1565 354.5729 375.8376 353.9134 376 344.9833 C376.3329 326.673 377.3542 325.7707 375 307.9833 C372.9675 292.6263 369.3457 292.3606 367 276.9833 C364.9505 263.5475 366 248.9833 366 248.9833 "/>
<path id="3" d="M202 241.9833 C202 241.9833 208.6163 234.2265 214 231.9833 C217.9961 230.3183 225.6827 231.7718 226 231.9833 C226.0264 232.001 223 237.9833 223 237.9833 "/>
<path id="4" d="M207 260.9833 C207 260.9833 214.982 253.661 221 249.9833 C222.1616 249.2734 224.2406 249.4409 225 249.9833 C226.2476 250.8745 228 254.9833 228 254.9833 "/>
<path id="5" d="M213 272.9833 C213 272.9833 219.5024 267.1824 225 264.9833 C227.8935 263.826 229.9506 265.7457 233 264.9833 C234.8106 264.5307 237 261.9833 237 261.9833 "/>
<path id="6" d="M242 276.9833 C242 276.9833 239.164 281.2005 238 284.9833 C237.3695 287.0324 237.7845 289.4445 238 289.9833 C238.0345 290.0695 240 289.9833 240 289.9833 "/>
<path id="7" d="M247 290.9833 C247 290.9833 243.8527 294.212 243 296.9833 C242.1745 299.6662 242.6945 303.6779 243 303.9833 C243.2182 304.2015 249 302.9833 249 302.9833 "/>
<path id="8" d="M250 302.9833 C250 302.9833 247 308.3377 247 309.9833 C247 310.6886 250 312.9833 250 312.9833 "/>
<path id="9" d="M256 403.9833 C256 403.9833 261.5582 396.7507 262 394.9833 C262.0947 394.6046 258.973 392.1182 259 391.9833 C259.0315 391.826 262.9959 389.9757 263 389.9833 C263.5881 391.086 267 406.9833 267 406.9833 "/>
<path id="10" d="M279 406.9833 C279 406.9833 278.7195 397.3574 279 396.9833 C279.0701 396.8898 284.3243 398.0825 285 398.9833 C285.6237 399.8149 285 404.9833 285 404.9833 "/>
<path id="11" d="M289 333.9833 C289 333.9833 291.8974 345.8954 292 345.9833 C292.0088 345.9909 296 339.9833 296 339.9833 "/>
<path id="12" d="M302 336.9833 C302 336.9833 305.9467 345.9757 306 345.9833 C306.0187 345.986 309 337.9833 309 337.9833 "/>
<path id="13" d="M225 369.9833 C225 369.9833 230.3281 363.7373 234 360.9833 C234.6994 360.4588 236.9237 360.8117 237 360.9833 C237.5403 362.1989 239.0884 367.6856 238 369.9833 C236.1188 373.9547 233.172 375.5009 228 379.9833 C225.8943 381.8083 223.1473 382.9833 223 382.9833 C223 382.9833 223 379.9833 223 379.9833 "/>
<path id="14" d="M266 323.9833 C266 323.9833 261.438 327.8676 260 330.9833 C259.1168 332.8969 260 336.9833 260 336.9833 C260.3734 336.9833 271 330.9833 271 330.9833 "/>
</g>
</g>
</svg>
