<?xml version="1.0" encoding="utf-8"?>
<!DOCTYPE svg PUBLIC "-//W3C//DTD SVG 1.1//EN" "http://www.w3.org/Graphics/SVG/1.1/DTD/svg11.dtd">
<svg viewBox="0 0 800 800" preserveAspectRatio="xMinYMin meet" xmlns="http://www.w3.org/2000/svg" version="1.1">
<g fill="none" stroke="black" stroke-linecap="round" stroke-linejoin="round" stroke-width="1.2529">
<g transform="translate(87.52,123.4372) scale(2.3945) translate(-115,-41)">
<path id="0" d="M344 144 L374 182 "/>
<path id="1" d="M346 145 L346 145 "/>
<path id="2" d="M376 185 C376 185 366.7896 182.3796 366 183 C364.6685 184.0462 362.7959 194.6357 362 196 C361.9611 196.0667 359.0058 194.9749 359 195 C358.119 198.7884 357.6776 219.1285 352 239 C349.267 248.5655 344.6456 253.0524 341 258 C340.7027 258.4035 338.6664 257.4669 338 258 C333.2022 261.8382 331.9048 265.8666 326 270 C323.2791 271.9046 321.8679 271.8895 318 272 C305.0523 272.3699 302.5472 273.1846 291 271 C286.2709 270.1053 284.3991 268.3991 281 265 C278.4507 262.4507 277.623 260.9157 277 257 C274.3688 240.4611 276.783 238.5328 274 221 C271.8552 207.488 270.4533 204.0147 267 194 C266.6437 192.9668 264.4673 193.1215 264 192 C258.3923 178.5415 257.3946 170.1378 252 158 C251.4819 156.8342 248.9304 157.3026 248 156 C244.8804 151.6326 244.6271 150.1299 242 144 C237.1579 132.7017 236.5922 132.6055 233 121 C230.1807 111.8914 232.1946 110.7318 229 102 C224.9373 90.8953 224.4338 90.0367 218 80 C212.2476 71.0263 211.7997 68.7998 204 63 C194.0684 55.6149 190.8699 54.4741 179 51 C172.339 49.0504 169.0801 49.0387 163 51 C156.074 53.2342 155.863 57.3961 148 61 C132.5417 68.0851 115 73 115 73 "/>
<path id="3" d="M115 73 C115 73 117.6875 60.3516 118 60 C118.0089 59.99 121.6602 61.8947 123 64 C124.5433 66.4251 125 71 125 71 "/>
<path id="4" d="M120 59 C120 59 124.5287 57.5716 125 58 C126.8431 59.6756 131 69 131 69 "/>
<path id="5" d="M127 58 C127 58 133.6767 54.7737 134 55 C134.6598 55.4618 137 65 137 65 "/>
<path id="6" d="M134 57 C134 57 137.445 57.4625 138 57 C138.8556 56.287 138.5007 53.3229 140 52 C145.5708 47.0846 148.0162 43.4773 155 42 C170.1839 38.788 177.658 37.1469 192 41 C205.7068 44.6824 208.548 49.4101 222 60 C231.3266 67.3422 231.8581 68.8176 239 78 C241.7703 81.5619 240.7767 83.943 243 87 C243.9165 88.2601 246.7038 88.4076 247 89 C247.2592 89.5183 245.7067 91.827 246 93 C246.3715 94.4858 247.1986 95.4801 249 97 C262.6783 108.5411 264.8399 107.8522 278 120 C283.7639 125.3205 284.7227 126.2406 288 133 C292.2065 141.6759 292.6944 143.2081 294 153 C295.5692 164.7692 291.9475 166.5974 294 178 C296.1855 190.1415 299.734 190.5299 303 203 C305.092 210.9878 302.7864 212.8059 305 220 C306.3629 224.4295 309.4824 228.0343 311 229 C311.4823 229.3069 314.4254 228.3997 316 227 C318.1684 225.0726 319.0183 224.1293 320 221 C326.5989 199.9659 329.0936 184.7192 332 176 C332.0593 175.8221 334.7681 176.3313 335 176 C336.4137 173.9804 337.0705 168.6531 339 166 C339.5843 165.1966 342.875 165.4249 343 165 C343.9355 161.8193 342.7492 154.9411 344 149 C344.2802 147.669 347 146 347 146 "/>
<path id="7" d="M305 215 C305 215 298.2764 216.2764 298 216 C297.6314 215.6314 296.9764 210.2178 298 208 C298.9941 205.8462 304 203 304 203 "/>
<path id="8" d="M301 195 C301 195 288.947 195.8013 288 195 C287.322 194.4263 286.7839 187.243 288 184 C288.8015 181.8626 294 179 294 179 "/>
<path id="9" d="M294 169 C294 169 286.4175 168.6785 286 168 C285.1541 166.6254 285.044 159.5851 286 156 C286.324 154.7851 290 153 290 153 "/>
<path id="10" d="M294 143 C294 143 284.2033 144.2795 284 144 C283.6582 143.5301 286 132 286 132 "/>
<path id="11" d="M281 124 C281 124 271.9448 125.8098 271 125 C269.4352 123.6587 267 112 267 112 "/>
<path id="12" d="M261 113 C261 113 255.1208 114.1813 255 114 C254.5972 113.3958 255 104 255 104 "/>
</g>
</g>
</svg>
