<?xml version="1.0" encoding="utf-8"?>
<!DOCTYPE svg PUBLIC "-//W3C//DTD SVG 1.1//EN" "http://www.w3.org/Graphics/SVG/1.1/DTD/svg11.dtd">
<svg viewBox="0 0 800 800" preserveAspectRatio="xMinYMin meet" xmlns="http://www.w3.org/2000/svg" version="1.1">
<g fill="none" stroke="black" stroke-linecap="round" stroke-linejoin="round" stroke-width="1.5457">
<g transform="translate(125.367,87.52) scale(1.9409) translate(-41.5,-72.8333)">
<path id="0" d="M182.5 123.8333 C182.5 123.8333 188.4294 148.0404 184.5 166.8333 C177.8349 198.7099 170.5143 206.691 159.5 233.8333 C159.0406 234.9653 156.8591 234.7723 156.5 235.8333 C148.2308 260.2651 142.6388 268.0006 137.5 298.8333 C133.5391 322.5986 134.0139 326.883 137.5 349.8333 C139.5385 363.2538 143.1263 364.2893 149.5 377.8333 C150.9931 381.0063 151.0674 382.0089 153.5 383.8333 C160.0108 388.7164 161.9692 391.7847 169.5 392.8333 C197.1203 396.6792 202.7722 396.8152 232.5 394.8333 C245.5197 393.9654 247.9614 392.4685 259.5 386.8333 C267.8436 382.7586 269.2237 380.7074 275.5 373.8333 C278.8111 370.2069 279.0433 368.9318 280.5 363.8333 C283.8687 352.043 282.1436 348.9026 285.5 338.8333 C286.3391 336.316 287.7926 335.2583 290.5 333.8333 C296.4002 330.728 304.5033 328.8354 304.5 328.8333 C304.4933 328.8291 292.3109 330.3198 282.5 328.8333 C277.2567 328.0389 274.7254 327.0588 271.5 323.8333 C267.4682 319.8016 266.741 317.5564 264.5 310.8333 C257.4846 289.7872 254.9507 288.1541 252.5 266.8333 C250.1902 246.7384 250.9295 243.4713 254.5 223.8333 C256.5435 212.594 258.7025 210.4958 264.5 200.8333 C266.859 196.9017 268.9241 195.224 272.5 193.8333 C275.835 192.5364 278.9168 192.2303 282.5 193.8333 C295.258 199.5409 301.2858 201.6192 310.5 210.8333 C316.0285 216.3619 315.3824 220.2206 318.5 229.8333 C321.286 238.4234 321.8119 238.8885 322.5 247.8333 C324.7608 277.2234 327.3196 284.3371 324.5 307.8333 C323.73 314.25 319.5037 317.5801 313.5 322.8333 C308.9583 326.8073 300.5 328.8333 300.5 328.8333 "/>
<path id="1" d="M270.5 196.8333 C270.5 196.8333 265.0262 196.3486 261.5 197.8333 C256.6539 199.8738 253.9837 201.2033 251.5 204.8333 C248.9785 208.5186 250.8904 212.5306 248.5 216.8333 C246.7703 219.9467 243.8736 219.4214 241.5 222.8333 C236.4206 230.135 235.6384 231.0788 232.5 239.8333 C226.3578 256.9668 224.8275 258.0593 222.5 275.8333 C219.4974 298.7626 223.974 301.5673 221.5 323.8333 C220.6944 331.0839 219.6047 333.9468 215.5 338.8333 C210.871 344.3441 207.7713 346.5372 200.5 348.8333 C191.0368 351.8217 177.5 350.8333 177.5 350.8333 "/>
<path id="2" d="M183.5 348.8333 C183.5 348.8333 192.3561 366.6895 203.5 377.8333 C211.4599 385.7933 225.5 390.8333 225.5 390.8333 "/>
<path id="3" d="M181.5 353.8333 C181.5 353.8333 182.211 360.9836 184.5 366.8333 C186.4941 371.9295 186.8144 372.9722 190.5 376.8333 C196.6676 383.2946 197.7502 384.4418 205.5 388.8333 C211.8396 392.4258 220.5 393.8333 220.5 393.8333 "/>
<path id="4" d="M185.5 368.8333 C185.5 368.8333 177.9064 368.9959 172.5 366.8333 C166.5452 364.4514 165.3982 363.0785 160.5 358.8333 C158.6028 357.1891 158.4848 356.4595 157.5 353.8333 C151.1489 336.897 149.1435 335.8366 145.5 318.8333 C143.4635 309.3296 143.244 307.1581 145.5 297.8333 C150.2944 278.0165 150.6737 275.5761 160.5 256.8333 C177.0795 225.2094 183.9904 225.5079 199.5 194.8333 C205.2001 183.5597 203.502 181.1534 205.5 167.8333 C206.431 161.6269 206.5611 158.229 205.5 154.8333 C205.1276 153.6416 200.5 151.8333 200.5 151.8333 "/>
<path id="5" d="M186.5 151.8333 C186.5 151.8333 205.1596 153.354 215.5 151.8333 C217.545 151.5326 220.5 146.8333 220.5 146.8333 "/>
<path id="6" d="M185.5 147.8333 C185.5 147.8333 207.7667 148.8 215.5 147.8333 C216.1444 147.7528 216.6542 144.3972 217.5 143.8333 C218.225 143.35 221.1 143.6333 221.5 143.8333 C221.6 143.8833 221.5 145.8333 221.5 145.8333 "/>
<path id="7" d="M215.5 153.8333 C215.5 153.8333 212.1943 156.5769 211.5 158.8333 C210.6086 161.7305 210.8347 164.6158 211.5 166.8333 C211.7412 167.6372 213.1534 168.6538 214.5 168.8333 C219.4467 169.4929 222.807 170.4161 226.5 168.8333 C230.4568 167.1376 235.1728 160.8968 235.5 159.8333 C235.5684 159.6109 232.7454 156.4321 230.5 155.8333 C226.7988 154.8464 220.5 155.8333 220.5 155.8333 "/>
<path id="8" d="M210.5 179.8333 C210.5 179.8333 208.5471 180.5035 208.5 180.8333 C208.0235 184.1687 208.0235 190.498 208.5 193.8333 C208.5471 194.1632 209.5043 194.674 210.5 194.8333 C221.3233 196.5651 229.5436 198.3081 233.5 197.8333 C233.9753 197.7763 235.9331 192.6996 235.5 191.8333 C234.6338 190.1009 230.9127 186.6865 227.5 185.8333 C223.2791 184.7781 215.5 186.8333 215.5 186.8333 "/>
<path id="9" d="M204.5 203.8333 C204.5 203.8333 197.3767 205.3721 196.5 206.8333 C195.0837 209.1938 194.565 218.0319 195.5 218.8333 C198.233 221.1759 206.8053 222.2666 217.5 224.8333 C218.8688 225.1618 220.2105 225.1228 220.5 224.8333 C220.9825 224.3509 221.6534 222.5211 221.5 220.8333 C221.2181 217.7325 220.8843 214.7562 219.5 213.8333 C215.4855 211.157 203.5 208.8333 203.5 208.8333 "/>
<path id="10" d="M190.5 232.8333 C190.5 232.8333 178.8008 231.9042 177.5 232.8333 C176.6852 233.4153 175.5796 241.5782 176.5 242.8333 C177.8707 244.7025 182.7351 246.3921 188.5 247.8333 C191.9807 248.7035 194.5991 248.6974 196.5 247.8333 C197.7529 247.2638 199.0014 245.1602 199.5 242.8333 C200.2952 239.1222 200.0594 234.3368 199.5 233.8333 C198.8094 233.2118 189.5 233.8333 189.5 233.8333 "/>
<path id="11" d="M183.5 259.8333 C183.5 259.8333 169.1462 258.3201 163.5 258.8333 C162.8555 258.8919 161.7743 260.4617 161.5 261.8333 C160.9352 264.6572 160.9643 268.3571 161.5 268.8333 C162.3514 269.5902 166.0152 269.6672 170.5 269.8333 C179.4328 270.1642 187.1617 270.2269 188.5 269.8333 C188.535 269.8231 188.2189 265.5523 187.5 264.8333 C186.7811 264.1144 182.5 263.8333 182.5 263.8333 "/>
<path id="12" d="M166.5 282.8333 C166.5 282.8333 151.5859 282.9744 149.5 283.8333 C149.204 283.9552 148.7002 288.5004 149.5 289.8333 C150.513 291.5218 152.4567 292.865 155.5 293.8333 C162.5946 296.0907 164.6136 296.8333 171.5 296.8333 C174.9432 296.8333 177.7611 295.379 179.5 293.8333 C180.3875 293.0444 180.7123 288.9562 180.5 288.8333 C177.8702 287.3108 160.5 282.8333 160.5 282.8333 "/>
<path id="13" d="M160.5 301.8333 C160.5 301.8333 157.359 301.0897 155.5 301.8333 C150.8897 303.6775 146.4896 306.5963 145.5 307.8333 C145.3303 308.0454 146.2777 311.1 147.5 311.8333 C151.9446 314.5001 154.3794 315.9891 160.5 316.8333 C167.5918 317.8115 174.5535 316.6849 176.5 315.8333 C176.8108 315.6974 177.2552 312.0989 176.5 309.8333 C175.577 307.0643 174.7651 306.0985 172.5 303.8333 C170.6879 302.0212 169.4671 301.2705 167.5 300.8333 C166.1886 300.5419 163.5 301.8333 163.5 301.8333 "/>
<path id="14" d="M164.5 301.8333 L166.5 297.8333 "/>
<path id="15" d="M170.5 283.8333 C170.5 283.8333 169.192 272.6854 169.5 266.8333 C169.5383 266.1064 171.5 264.8333 171.5 264.8333 "/>
<path id="16" d="M182.5 258.8333 L184.5 248.8333 "/>
<path id="17" d="M200.5 235.8333 C200.5 235.8333 199.6675 231.3309 200.5 228.8333 C201.2532 226.5737 204.5 223.8333 204.5 223.8333 "/>
<path id="18" d="M215.5 213.8333 C215.5 213.8333 219.25 210.75 220.5 207.8333 C221.7939 204.8143 220.1357 202.7569 221.5 199.8333 C223.0792 196.4494 227.5 192.8333 227.5 192.8333 "/>
<path id="19" d="M228.5 188.8333 L230.5 172.8333 "/>
<path id="20" d="M213.5 150.8333 C213.5 150.8333 218.1682 151.7588 221.5 150.8333 C226.2431 149.5158 231.5102 145.8706 231.5 145.8333 C231.4573 145.6769 224.6922 140.8111 218.5 139.8333 C207.4007 138.0808 204.5528 138.4936 193.5 139.8333 C189.7488 140.288 185.5 143.8333 185.5 143.8333 "/>
<path id="21" d="M185.5 130.8333 C185.5 130.8333 186.6251 124.0836 185.5 121.8333 C184.4374 119.7081 181.6571 117.4405 178.5 116.8333 C170.9658 115.3845 166.4789 115.2228 159.5 116.8333 C156.4202 117.5441 156.2536 120.9565 152.5 122.8333 C144.0544 127.0562 142.7143 128.3333 133.5 129.8333 C122.5195 131.6209 120.3991 131.5101 109.5 129.8333 C102.2689 128.7209 94.5 123.8333 94.5 123.8333 "/>
<path id="22" d="M100.5 107.8333 C100.5 107.8333 112.1835 112.4477 123.5 113.8333 C135.8966 115.3513 137.8518 115.4074 149.5 113.8333 C154.7308 113.1265 157.5862 112.2327 160.5 108.8333 C167.3949 100.7893 166.2992 95.2257 173.5 85.8333 C176.7036 81.6548 178.9432 80.7097 183.5 78.8333 C185.9761 77.8138 187.6098 79.6834 190.5 78.8333 C195.2361 77.4404 195.6331 74.8762 200.5 73.8333 C208.5068 72.1176 217.4997 71.513 218.5 72.8333 C221.6111 76.94 223.7153 90.0064 225.5 106.8333 C227.1438 122.332 226.6552 128.7254 225.5 138.8333 C225.3752 139.9254 221.5 141.8333 221.5 141.8333 "/>
<path id="23" d="M250.5 213.8333 C250.5 213.8333 243.1735 227.1148 241.5 239.8333 C238.4138 263.2881 237.057 266.9622 240.5 289.8333 C243.6259 310.598 245.6279 318.9654 255.5 332.8333 C261.9775 341.9327 282.5 348.8333 282.5 348.8333 "/>
<path id="24" d="M284.5 223.8333 C284.5 223.8333 281.3675 226.7971 280.5 229.8333 C277.6893 239.6707 277.3907 240.9221 276.5 251.8333 C275.4228 265.0285 274.768 266.4209 276.5 278.8333 C277.5801 286.5738 278.5929 287.7517 282.5 294.8333 C286.2466 301.6241 292.5 307.8333 292.5 307.8333 "/>
<path id="25" d="M285.5 227.8333 C285.5 227.8333 288.3527 227.5535 288.5 227.8333 C290.6163 231.8544 293.1127 237.2842 295.5 246.8333 C298.0023 256.8427 297.9503 257.3894 298.5 267.8333 C299.4353 285.6037 299.63 288.3898 298.5 303.8333 C298.3362 306.0725 295.5 308.8333 295.5 308.8333 "/>
<path id="26" d="M283.5 231.8333 C283.5 231.8333 286.1073 231.4406 286.5 231.8333 C287.6781 233.0115 288.7571 234.8616 289.5 237.8333 C290.6282 242.346 289.2125 243.3272 290.5 247.8333 C292.0557 253.2783 295.0762 253.6631 295.5 258.8333 C297.3571 281.4905 295.5 308.8333 295.5 308.8333 "/>
<path id="27" d="M168.5 319.8333 C168.5 319.8333 167.787 333.2525 170.5 343.8333 C172.3872 351.1935 174.4922 353.1556 178.5 358.8333 C179.4363 360.1598 182.5 360.8333 182.5 360.8333 "/>
<path id="28" d="M105.5 114.8333 C105.5 114.8333 106.3176 97.305 105.5 95.8333 C105.304 95.4805 96.7848 95.4629 95.5 96.8333 C93.0621 99.4338 91.5751 104.5224 90.5 111.8333 C89.2018 120.6612 89.5734 124.0384 90.5 130.8333 C90.6663 132.0525 92.223 133.5386 93.5 133.8333 C96.9586 134.6315 102.0179 134.507 103.5 133.8333 C103.9851 133.6129 104.5 128.8333 104.5 128.8333 "/>
<path id="29" d="M102.5 96.8333 C102.5 96.8333 77.2422 98.3591 55.5 96.8333 C50.7442 96.4996 45.6053 92.707 45.5 92.8333 C45.1113 93.2997 46.6209 103.2291 45.5 108.8333 C45.1637 110.5146 41.447 112.3035 41.5 112.8333 C41.5957 113.7901 43.5861 116.7233 46.5 118.8333 C57.3706 126.7052 58.891 129.8057 70.5 133.8333 C80.7137 137.3769 95.5 135.8333 95.5 135.8333 "/>
<path id="30" d="M185.5 80.8333 L204.5 73.8333 "/>
<path id="31" d="M47.5 97.8333 C47.5 97.8333 44.8776 101.1902 44.5 103.8333 C44.0385 107.0639 45.5 111.8333 45.5 111.8333 "/>
<path id="32" d="M101.5 99.8333 C101.5 99.8333 96.9949 107.1062 95.5 113.8333 C94.2326 119.5368 94.6422 122.2586 95.5 126.8333 C95.7351 128.087 98.5 129.8333 98.5 129.8333 "/>
</g>
</g>
</svg>
