<?xml version="1.0" encoding="utf-8"?>
<!DOCTYPE svg PUBLIC "-//W3C//DTD SVG 1.1//EN" "http://www.w3.org/Graphics/SVG/1.1/DTD/svg11.dtd">
<svg viewBox="0 0 800 800" preserveAspectRatio="xMinYMin meet" xmlns="http://www.w3.org/2000/svg" version="1.1">
<g fill="none" stroke="black" stroke-linecap="round" stroke-linejoin="round" stroke-width="1.3681">
<g transform="translate(87.52,193.8728) scale(2.1928) translate(-75,-137.9833)">
<path id="0" d="M323 154.9833 C323 154.9833 327.6497 147.2169 331 144.9833 C332.599 143.9173 335.5701 144.4434 338 144.9833 C338.8486 145.1719 339.7526 146.1173 340 146.9833 C340.4811 148.6673 340.2155 151.4445 340 151.9833 C339.9655 152.0695 337.9986 151.9805 338 151.9833 C338.0049 151.9932 341 153.9833 341 153.9833 "/>
<path id="1" d="M341 150.9833 C341 150.9833 344.4503 155.7896 346 155.9833 C348.9272 156.3492 355.1654 154.949 357 152.9833 C359.0467 150.7905 360 140.9833 360 140.9833 "/>
<path id="2" d="M329 160.9833 C329 160.9833 330.739 158.2355 332 157.9833 C336.2032 157.1427 340.4149 157.0273 344 157.9833 C345.2149 158.3073 346.1311 161.8253 347 161.9833 C348.7803 162.307 353.3485 161.4847 355 159.9833 C356.728 158.4125 357.4865 155.5779 358 151.9833 C358.3568 149.4854 357 145.9833 357 145.9833 "/>
<path id="3" d="M333 159.9833 C333 159.9833 328.4807 166.1468 323 169.9833 C314.0696 176.2346 310.1951 175.7506 303 180.9833 C301.5516 182.0367 302.4759 184.5074 301 185.9833 C297.4157 189.5677 295.0414 188.9419 291 192.9833 C286.0076 197.9757 287.0593 199.924 282 204.9833 C276.4588 210.5245 274.3137 209.6696 269 214.9833 C266.4587 217.5247 267.5977 219.3069 265 221.9833 C251.8358 235.5465 248.8119 234.8574 236 248.9833 C229.9742 255.6272 232.1163 259.363 226 264.9833 C215.2196 274.8897 211.0197 273.121 199 282.9833 C192.2412 288.529 193.6984 291.5029 187 296.9833 C177.965 304.3756 166 309.9833 166 309.9833 "/>
<path id="4" d="M321 152.9833 C321 152.9833 310.265 166.018 298 175.9833 C286.8199 185.0672 284.7041 183.4713 273 191.9833 C268.5856 195.1938 269.5118 197.2908 265 199.9833 C239.815 215.0131 235.7913 212.6574 211 228.9833 C195.9201 238.914 197.519 243.9089 183 253.9833 C174.2769 260.0361 163.0056 262.7439 162 262.9833 C161.9586 262.9932 162 258.9833 162 258.9833 "/>
<path id="5" d="M102 273.9833 C102 273.9833 105.4052 277.8369 107 281.9833 C110.2019 290.3083 107.9937 293.6575 112 299.9833 C115.9496 306.2195 119.5726 310.317 126 311.9833 C141.2198 315.9292 153.2278 315.3716 166 313.9833 C168.1706 313.7474 170.8532 309.277 172 306.9833 C172.2867 306.4099 171 303.9833 171 303.9833 "/>
<path id="6" d="M98 272.9833 C98 272.9833 106.2015 274.4867 112 272.9833 C118.136 271.3925 119.6132 270.2479 125 265.9833 C130.9557 261.2684 132.311 260.3905 136 253.9833 C141.1523 245.0345 144 232.9833 144 232.9833 "/>
<path id="7" d="M103 272.9833 C103 272.9833 103.7317 263.053 107 256.9833 C109.7697 251.8396 112.951 250.098 117 246.9833 C117.6866 246.4552 119.3633 247.4786 120 246.9833 C122.429 245.0941 122.918 241.3959 126 239.9833 C132.638 236.9409 144 235.9833 144 235.9833 "/>
<path id="8" d="M116 259.9833 C116 259.9833 117.6886 254.1021 120 251.9833 C122.1924 249.9736 128 248.9833 128 248.9833 "/>
<path id="9" d="M119 261.9833 L129 247.9833 "/>
<path id="10" d="M145 239.9833 C145 239.9833 145.2282 250.2182 147 253.9833 C147.6906 255.4508 151.8219 255.8052 153 256.9833 C153.3927 257.376 152.9372 259.9694 153 259.9833 C153.8274 260.1672 162 258.9833 162 258.9833 "/>
<path id="11" d="M202 242.9833 C202 242.9833 197.9079 242.2317 197 240.9833 C195.1988 238.5067 193.595 232.5683 194 231.9833 C194.72 230.9433 205.8472 227.8306 206 227.9833 C206.2292 228.2125 205.4926 238.003 204 241.9833 C203.6458 242.9278 200.7883 244.0959 200 243.9833 C199.2724 243.8794 197 240.9833 197 240.9833 "/>
<path id="12" d="M218 228.9833 C218 228.9833 215.5573 222.7541 216 220.9833 C216.3099 219.7438 218.7444 217.8856 221 216.9833 C222.7088 216.2998 225.8526 216.718 226 216.9833 C226.4776 217.843 226.8262 224.8473 226 225.9833 C225.2823 226.9702 218 227.9833 218 227.9833 "/>
<path id="13" d="M237 216.9833 C237 216.9833 234.0958 214.8454 234 213.9833 C233.834 212.4891 235.1636 208.3418 236 207.9833 C238.1954 207.0424 246.8 207.3833 248 207.9833 C248.3 208.1333 248.579 213.4044 248 213.9833 C247.0351 214.9483 240 215.9833 240 215.9833 "/>
<path id="14" d="M75 233.9833 C75 233.9833 88.3691 234.0048 90 234.9833 C90.5018 235.2844 90 242.9833 90 242.9833 "/>
<path id="15" d="M102 216.9833 L111 237.9833 "/>
<path id="16" d="M115 207.9833 L117 225.9833 "/>
<path id="17" d="M186 309.9833 C186 309.9833 176.6318 324.5691 175 325.9833 C174.9081 326.063 171 322.9833 171 322.9833 "/>
<path id="18" d="M105 316.9833 L115 317.9833 "/>
<path id="19" d="M108 322.9833 L110 322.9833 "/>
<path id="20" d="M194 319.9833 L191 322.9833 "/>
<path id="21" d="M281 222.9833 L261 242.9833 "/>
<path id="22" d="M309 142.9833 L317 137.9833 "/>
</g>
</g>
</svg>
