<?xml version="1.0" encoding="utf-8"?>
<!DOCTYPE svg PUBLIC "-//W3C//DTD SVG 1.1//EN" "http://www.w3.org/Graphics/SVG/1.1/DTD/svg11.dtd">
<svg viewBox="0 0 800 800" preserveAspectRatio="xMinYMin meet" xmlns="http://www.w3.org/2000/svg" version="1.1">
<g fill="none" stroke="black" stroke-linecap="round" stroke-linejoin="round" stroke-width="1.6705">
<g transform="translate(181.8028,87.52) scale(1.7959) translate(-119,-43.1333)">
<path id="0" d="M174 152.1333 C174 152.1333 160.1871 164.9791 158 175.1333 C154.5623 191.0943 156.1452 199.0455 160 217.1333 C161.9393 226.2332 164.6671 227.4041 171 236.1333 C182.9387 252.5894 182.8319 254.5102 197 268.1333 C207.8084 278.5261 209.8012 277.9287 223 286.1333 C228.0071 289.2458 231.3668 290.5257 234 291.1333 C234.3333 291.2102 236 289.1333 236 289.1333 "/>
<path id="1" d="M177 152.1333 C177 152.1333 186.2969 146.755 195 146.1333 C226.1692 143.907 229.0013 145.2685 261 146.1333 C264.9048 146.2389 265.5735 146.4201 269 148.1333 C276.9953 152.131 278.7948 152.122 285 158.1333 C293.7794 166.6384 294.3997 168.3328 301 179.1333 C305.0031 185.6839 306.1355 186.9292 307 194.1333 C308.9248 210.1731 309.5915 213.8722 307 229.1333 C305.5541 237.6483 303.8357 240.0598 298 247.1333 C288.4059 258.7626 286.5302 260.8687 274 269.1333 C264.5851 275.3432 261.9411 272.9846 251 278.1333 C245.2577 280.8356 244.5031 281.1931 240 285.1333 C237.0746 287.693 235.5935 291.8366 235 292.1333 C234.8953 292.1857 232 289.1333 232 289.1333 "/>
<path id="2" d="M226 289.1333 C226 289.1333 230.6565 296.2472 236 300.1333 C240.6418 303.5092 242.2278 304.1713 248 305.1333 C256.0961 306.4827 258.9317 307.1213 266 305.1333 C272.4915 303.3076 272.7656 299.7505 280 296.1333 C287.4299 292.4184 292.2999 293.6484 296 290.1333 C298.7879 287.4849 300.5163 280.9194 300 277.1333 C299.5874 274.1072 296.9491 271.6437 293 268.1333 C288.4658 264.1029 287.08 263.0049 282 261.1333 C279.0071 260.0307 276.6228 260.2591 274 261.1333 C272.2515 261.7162 270 265.1333 270 265.1333 "/>
<path id="3" d="M263 305.1333 C263 305.1333 258.4371 309.3648 258 312.1333 C257.3443 316.2861 258.0623 322.2977 260 324.1333 C263.2879 327.2482 269.2184 329.5639 277 330.1333 C287.6113 330.9098 291.6772 329.464 301 327.1333 C302.8834 326.6625 304.4579 324.9765 305 323.1333 C306.3922 318.3997 307.799 313.9563 306 310.1333 C301.8361 301.2849 289 289.1333 289 289.1333 "/>
<path id="4" d="M290 332.1333 C290 332.1333 285.7893 333.8705 285 335.1333 C284.3557 336.1642 284.453 338.8571 285 340.1333 C285.3594 340.972 286.6707 342.0004 288 342.1333 C295.0618 342.8395 297.2938 343.0966 305 342.1333 C308.3431 341.7154 308.7656 340.8976 312 339.1333 C314.1109 337.9819 315.4924 337.4023 316 336.1333 C316.7724 334.2023 317.0246 330.5678 316 329.1333 C313.9299 326.2352 306 322.1333 306 322.1333 "/>
<path id="5" d="M309 342.1333 C309 342.1333 305.5517 343.1402 305 344.1333 C304.0127 345.9105 303.5815 349.041 304 351.1333 C304.2215 352.241 305.723 353.8386 307 354.1333 C310.4586 354.9315 314.6438 354.9187 317 354.1333 C317.7854 353.8715 319 351.7823 319 350.1333 C319 344.7742 317 337.1333 317 337.1333 "/>
<path id="6" d="M318 355.1333 C318 355.1333 323.3169 363.4962 329 367.1333 C334.0381 370.3577 343 371.1333 343 371.1333 "/>
<path id="7" d="M341 372.1333 L343 391.1333 "/>
<path id="8" d="M342 374.1333 L362 374.1333 "/>
<path id="9" d="M166 162.1333 C166 162.1333 148.7755 157.4886 141 150.1333 C133.7794 143.3031 131.2894 138.008 129 127.1333 C125.9506 112.6487 127.0734 108.5458 129 93.1333 C129.8358 86.4471 131.3432 85.3217 135 79.1333 C137.5294 74.8528 142 71.1333 142 71.1333 "/>
<path id="10" d="M143 72.1333 C143 72.1333 148.8617 73.5469 153 76.1333 C156.2279 78.1508 158.8158 79.8765 159 82.1333 C160.2161 97.03 155.4621 105.1402 157 125.1333 C157.809 135.6504 159.8553 136.6121 164 147.1333 C166.2372 152.8125 169.8978 158.0166 170 158.1333 C170.0134 158.1486 171 155.1333 171 155.1333 "/>
<path id="11" d="M143 71.1333 C143 71.1333 140.3859 66.3784 140 62.1333 C139.4627 56.2235 139.2054 52.922 141 49.1333 C142.3039 46.3807 148.9873 43.1131 149 43.1333 C149.2946 43.6046 150.8058 64.9391 151 65.1333 C151 65.1333 157.532 59.8624 161 55.1333 C162.1471 53.5691 162 50.1331 162 50.1333 C162.0001 50.1346 163.0998 65.6694 162 78.1333 C161.7539 80.922 159 84.1333 159 84.1333 "/>
<path id="12" d="M274 153.1333 C274 153.1333 286.5185 143.4997 295 133.1333 C299.0852 128.1403 298.5276 126.7265 301 120.1333 C302.9658 114.8912 303.3938 114.5891 304 109.1333 C305.3431 97.045 305 84.1333 305 84.1333 "/>
<path id="13" d="M305 84.1333 C305 84.1333 297.7963 83.8963 295 86.1333 C287.9127 91.8031 286.5997 94.6738 280 104.1333 C271.7774 115.9191 269.055 117.509 265 129.1333 C262.5857 136.0543 265 147.1333 265 147.1333 "/>
<path id="14" d="M291 86.1333 C291 86.1333 291.9974 54.139 292 54.1333 C292.0014 54.1304 295.494 63.7964 297 73.1333 C297.9124 78.7902 296.9753 85.1487 297 85.1333 C297.0978 85.0722 312.9999 63.1332 313 63.1333 C313.0002 63.1336 300 89.1333 300 89.1333 "/>
<path id="15" d="M186 143.1333 C186 143.1333 186.6896 133.2921 189 129.1333 C190.1634 127.0392 192.5295 126.001 196 125.1333 C203.5917 123.2354 207.2895 121.5273 213 123.1333 C219.2859 124.9012 222.7784 128.3621 228 134.1333 C230.8942 137.3321 232 144.1333 232 144.1333 "/>
<path id="16" d="M162 238.1333 C162 238.1333 154.6579 239.686 150 238.1333 C143.0132 235.8044 141.0288 234.5787 135 229.1333 C126.3562 221.326 119.0053 210.1367 119 210.1333 C118.9976 210.1318 120.5519 217.7275 124 222.1333 C128.588 227.9958 131.1666 231.1281 137 233.1333 C143.6047 235.4037 149.2819 231.965 156 233.1333 C157.6603 233.4221 160 237.1333 160 237.1333 "/>
<path id="17" d="M309 185.1333 C309 185.1333 320.5148 182.1773 327 177.1333 C332.1167 173.1537 335.9526 164.1491 336 164.1333 C336.0119 164.1294 337.0279 169.8162 336 174.1333 C334.747 179.3961 334.23 180.6113 331 185.1333 C327.2 190.4534 326.3163 191.1461 321 195.1333 C316.8229 198.2662 311 200.1333 311 200.1333 "/>
<path id="18" d="M191 269.1333 C191 269.1333 176.2654 271.3599 164 270.1333 C157.8445 269.5178 151.6137 265.0389 151 265.1333 C150.946 265.1416 150.0584 270.2502 151 272.1333 C152.0761 274.2855 153.8054 275.6691 157 277.1333 C164.9945 280.7975 166.2254 281.7834 175 283.1333 C184.7376 284.6314 186.4415 284.1575 196 283.1333 C199.3325 282.7763 201.2445 281.6694 203 280.1333 C203.8208 279.4152 204 276.1333 204 276.1333 "/>
<path id="19" d="M308 233.1333 C308 233.1333 316.7746 229.1597 324 224.1333 C327.8526 221.4533 330.9861 217.1333 331 217.1333 C331.004 217.1333 330.6402 221.3996 329 224.1333 C326.5596 228.2006 325.8442 228.7162 322 232.1333 C317.0661 236.5191 316.7755 237.146 311 240.1333 C302.7511 244.4 293 247.1333 293 247.1333 "/>
</g>
</g>
</svg>
