<?xml version="1.0" encoding="utf-8"?>
<!DOCTYPE svg PUBLIC "-//W3C//DTD SVG 1.1//EN" "http://www.w3.org/Graphics/SVG/1.1/DTD/svg11.dtd">
<svg viewBox="0 0 800 800" preserveAspectRatio="xMinYMin meet" xmlns="http://www.w3.org/2000/svg" version="1.1">
<g fill="none" stroke="black" stroke-linecap="round" stroke-linejoin="round" stroke-width="1.2145">
<g transform="translate(165.3312,87.52) scale(2.4702) translate(-142,-137)">
<path id="0" d="M189 189 C189 189 182.244 175.2964 180 166 C179.5082 163.9624 180.5429 161.4571 182 160 C184.1857 157.8143 190 156 190 156 "/>
<path id="1" d="M200 156 C200 156 198.8839 157.8507 199 158 C200.2564 159.6153 206.1224 162.0382 207 165 C208.8731 171.3216 208.1814 177.9114 207 185 C206.7243 186.654 204.9738 188.0131 203 189 C200.8617 190.0691 197.6566 189.2496 197 190 C196.1727 190.9455 196 197 196 197 "/>
<path id="2" d="M187 188 L189 197 "/>
<path id="3" d="M189 156 C189 156 196.3544 141.9476 200 137 C200.2973 136.5965 203.0009 136.9863 203 137 C202.9302 138.047 199 152 199 152 "/>
<path id="4" d="M200 155 C200 155 213.8812 149.5171 218 147 C218.3299 146.7984 218.0952 144.026 218 144 C216.7202 143.651 210.5632 142.7424 207 144 C204.3705 144.9281 201 150 201 150 "/>
<path id="5" d="M294 163 C294 163 288.2383 166.2139 287 169 C285.3087 172.8054 286.2604 175.0104 286 181 C285.7621 186.4707 284.7125 189.425 286 192 C287.0534 194.1068 294 197 294 197 "/>
<path id="6" d="M294 163 C294 163 302.4221 162.7751 304 161 C307.0913 157.5223 307.7546 147.9939 310 145 C310.4929 144.3428 315.9747 144.8987 316 145 C316.1898 145.7594 315.0249 152.661 313 157 C312.2646 158.5759 309 160 309 160 "/>
<path id="7" d="M331 151 L332 151 "/>
<path id="8" d="M308 161 C308 161 318.4117 159.8329 322 157 C324.8618 154.7407 326.9973 145.9995 327 146 C327.0023 146.0005 328.4337 156.0149 327 158 C325.1614 160.5458 319.3216 160.674 314 164 C312.2526 165.0921 312.2751 167.2714 311 168 C310.0351 168.5514 307.0262 167.8885 307 168 C306.5262 170.0135 308.1898 177.564 307 185 C306.3953 188.7792 305.5019 190.2896 303 193 C300.3499 195.8709 296.3863 195.3341 295 198 C291.5797 204.5774 293.6084 211.7454 290 218 C288.1443 221.2166 280 224 280 224 "/>
<path id="9" d="M195 194 C195 194 201.7331 207.2922 209 219 C210.3983 221.2529 211.4577 222.6441 213 223 C215.7471 223.634 222 222 222 222 "/>
<path id="10" d="M189 197 C189 197 195.7554 200.4935 199 205 C203.8584 211.7478 202.2729 216.5639 207 222 C210.2429 225.7293 219 228 219 228 "/>
<path id="11" d="M290 197 C290 197 291.0773 213.3885 288 219 C285.7049 223.1851 273 228 273 228 "/>
<path id="12" d="M228 234 C228 234 224.9869 231.9738 224 230 C222.9309 227.8617 223.2128 226.9793 223 224 C222.7196 220.0743 222.2376 219.0494 223 216 C223.4526 214.1894 224.2591 213.0079 226 212 C232.5673 208.1979 234.509 206.2842 242 205 C250.2003 203.5942 254.7799 203.8469 261 206 C264.141 207.0873 265.9143 209.8287 268 214 C270.9018 219.8035 271.3051 221.2831 272 228 C272.7181 234.9419 273.2689 237.5169 271 243 C268.2692 249.5993 260 257 260 257 "/>
<path id="13" d="M225 226 C225 226 223.606 235.87 226 241 C229.2608 247.9874 239 256 239 256 "/>
<path id="14" d="M237 255 L264 258 "/>
<path id="15" d="M228 244 C228 244 224.4202 259.6781 226 271 C227.012 278.2524 231.9967 279.8454 234 287 C234.9577 290.4204 232.3482 292.0891 233 296 C234.1683 303.0101 236.6894 303.5735 238 311 C239.5824 319.9669 236.537 322.611 239 330 C241.2082 336.6246 246.5748 337.0975 249 344 C252.3309 353.4802 252 367 252 367 "/>
<path id="16" d="M272 243 C272 243 273.1347 298.7669 271 350 C270.7374 356.3019 269.6623 357.3796 267 363 C265.5042 366.1578 262 369 262 369 "/>
<path id="17" d="M233 224 L233 220 "/>
<path id="18" d="M241 210 C241 210 247.8008 208.8335 252 210 C255.2024 210.8896 256.6992 214.4248 259 215 C260.255 215.3138 264 213 264 213 "/>
<path id="19" d="M266 221 C266 221 262.6764 222.1353 262 222 C261.7508 221.9502 261 220 261 220 "/>
<path id="20" d="M229 215 L234 214 "/>
<path id="21" d="M236 243 C236 243 241.3697 248.1581 246 249 C255.6021 250.7458 269 249 269 249 "/>
<path id="22" d="M243 276 L266 273 "/>
<path id="23" d="M239 291 C239 291 243.5029 297.8343 247 299 C252.2456 300.7485 258.7097 300.129 263 299 C264.1572 298.6955 266 294 266 294 "/>
<path id="24" d="M237 269 C237 269 243.1634 277.9537 248 280 C252.6346 281.9608 258.8235 281.4618 263 280 C265.0743 279.274 268 273 268 273 "/>
<path id="25" d="M246 317 C246 317 248.4578 319.9299 250 320 C256.6773 320.3035 268 318 268 318 "/>
<path id="26" d="M255 366 C255 366 255.0521 376.1587 253 379 C251.161 381.5463 247.2157 383.3791 242 384 C228.0558 385.66 226.2056 384.9504 211 384 C202.5695 383.4731 201.7444 383.3829 194 381 C189.4464 379.5989 188.6285 379.1337 185 376 C178.1641 370.0963 178.0489 369.2587 172 362 C168.1433 357.372 167.5653 357.1306 165 352 C162.8148 347.6295 162 342 162 342 "/>
<path id="27" d="M263 371 C263 371 262.7485 376.9601 261 379 C258.3772 382.0599 255.8154 383.7516 251 385 C243.8077 386.8647 234 386 234 386 "/>
<path id="28" d="M232 386 C232 386 231.2944 387.981 231 388 C223.1785 388.5046 201 388 201 388 "/>
<path id="29" d="M199 385 C199 385 197.5419 389.8916 197 390 C194.7241 390.4552 187.3034 390.7028 184 388 C174.8695 380.5296 164 363 164 363 "/>
<path id="30" d="M169 358 C169 358 168.5236 360.7382 168 361 C166.4292 361.7854 163.0849 362.7818 161 362 C157.3416 360.6281 153.2741 358.2431 152 355 C149.3655 348.2939 150 334 150 334 "/>
<path id="31" d="M150 335 C150 335 144.1562 332.8438 144 333 C143.6095 333.3905 143.0001 342.0002 143 342 C142.9999 341.9996 141.1639 332.853 142 327 C142.3698 324.4112 143.9879 322.0731 146 321 C149.3722 319.2015 156.7896 318.6668 157 319 C157.92 320.4567 156.2459 333.7355 158 340 C158.4682 341.6721 164 344 164 344 "/>
<path id="32" d="M223 232 C223 232 213.9168 228.3549 207 223 C198.9855 216.7952 198.2348 215.9352 192 208 C187.6938 202.5194 185 195 185 195 "/>
<path id="33" d="M267 210 C267 210 266.9389 206.0306 267 206 C267.0917 205.9542 270.5811 207.1622 271 208 C271.6283 209.2567 271.7639 211.8992 271 214 C270.1782 216.26 267 219 267 219 "/>
<path id="34" d="M267 219 L263 218 "/>
<path id="35" d="M229 222 C229 222 245.2375 223.7129 257 223 C259.1816 222.8678 261.1089 221.2476 262 220 C262.5424 219.2406 262 216 262 216 "/>
<path id="36" d="M231 222 L231 220 "/>
<path id="37" d="M222 216 L221 210 "/>
<path id="38" d="M229 211 L226 210 "/>
<path id="39" d="M274 253 C274 253 282.0444 252.4667 284 251 C285.2329 250.0753 286 244 286 244 "/>
<path id="40" d="M272 278 C272 278 275.9736 278.7964 279 278 C284.7569 276.485 291 273 291 273 "/>
<path id="41" d="M272 302 C272 302 278.8413 303.9902 283 303 C287.4163 301.9485 293 297 293 297 "/>
<path id="42" d="M274 332 C274 332 282.4262 330.7869 284 330 C284.2146 329.8927 284 327 284 327 "/>
<path id="43" d="M270 352 C270 352 275.9515 353 281 353 C282.3769 353 283.7325 352.4459 284 352 C284.3822 351.3631 284 348 284 348 "/>
<path id="44" d="M225 260 C225 260 219.5819 257.0339 218 255 C217.3942 254.2211 218 251 218 251 "/>
<path id="45" d="M227 272 C227 272 221.7242 275.2633 221 275 C219.8869 274.5952 216 268 216 268 "/>
<path id="46" d="M236 292 C236 292 232.2621 293.4847 230 293 C226.537 292.2579 222 289 222 289 "/>
<path id="47" d="M238 311 C238 311 233.8516 313.4357 232 313 C227.8438 312.0221 221 307 221 307 "/>
<path id="48" d="M239 330 L228 323 "/>
<path id="49" d="M238 225 C238 225 235.9899 219.2199 233 216 C230.2762 213.0667 225 211 225 211 "/>
</g>
</g>
</svg>
