<?xml version="1.0" encoding="utf-8"?>
<!DOCTYPE svg PUBLIC "-//W3C//DTD SVG 1.1//EN" "http://www.w3.org/Graphics/SVG/1.1/DTD/svg11.dtd">
<svg viewBox="0 0 800 800" preserveAspectRatio="xMinYMin meet" xmlns="http://www.w3.org/2000/svg" version="1.1">
<g fill="none" stroke="black" stroke-linecap="round" stroke-linejoin="round" stroke-width="2.645">
<g transform="translate(87.52,217.3892) scale(1.1342) translate(-1,-159.2167)">
<path id="0" d="M448 204.2167 C448 204.2167 444.7957 203.4004 443 204.2167 C435.262 207.7339 427.9761 210.0319 426 214.2167 C423.15 220.2519 424.294 228.2749 426 240.2167 C427.1061 247.9591 428.4414 250.7419 432 256.2167 C433.529 258.5689 436.7564 257.7861 439 260.2167 C441.92 263.3799 441.904 268.4939 444 269.2167 C450.297 271.388 459.1083 267.7917 468 270.2167 C472.0962 271.3338 475.8112 274.6503 477 278.2167 C479.4136 285.4574 479.5269 296.2467 478 300.2167 C477.4186 301.7284 467 304.2167 467 304.2167 "/>
<path id="1" d="M468 304.2167 C468 304.2167 478.5688 304.9891 483 303.2167 C485.2444 302.3189 487.4979 299.2291 488 296.2167 C489.0789 289.7431 487.9952 287.5099 487 279.2167 C486.521 275.2251 486.3623 273.9413 485 271.2167 C484.4702 270.1571 482 269.2167 482 269.2167 "/>
<path id="2" d="M482 269.2167 C482 269.2167 481.736 264.1126 483 262.2167 C484.5937 259.8261 488.9193 259.6183 490 257.2167 C492.1084 252.5313 491.7944 249.6174 492 242.2167 C492.2864 231.9075 492.6017 230.8266 491 221.2167 C490.2685 216.8279 487 212.2167 487 212.2167 "/>
<path id="3" d="M448 201.2167 C448 201.2167 454.7129 201.7961 459 200.2167 C462.8504 198.7981 463.5361 194.5945 467 194.2167 C485.8111 192.1645 491.9982 192.6993 514 194.2167 C519.2785 194.5807 525 198.2167 525 198.2167 "/>
<path id="4" d="M489 211.2167 C489 211.2167 496.7014 210.2297 502 212.2167 C511.1612 215.6521 516.2746 218.0413 521 223.2167 C523.3047 225.7409 521.0745 229.8252 523 235.2167 C525.8558 243.213 530.3154 243.7719 531 251.2167 C533.9043 282.8007 532.213 287.445 531 322.2167 C530.742 329.614 530.0711 330.6583 528 337.2167 C527.3575 339.2513 526.7474 340.1245 525 341.2167 C519.6784 344.5426 514.9189 345.1959 512 347.2167 C511.6466 347.4613 512.4682 349.5612 512 350.2167 C510.8184 351.8709 509.1867 353.998 507 354.2167 C480.5575 356.8609 442 357.2167 442 357.2167 "/>
<path id="5" d="M525 199.2167 C525 199.2167 524.686 202.0185 525 204.2167 C525.1346 205.1587 525.9416 206.2167 526 206.2167 C526.1169 206.2167 527.9897 204.2022 528 204.2167 C528.2013 204.4985 530.2688 208.8292 531 213.2167 C531.6928 217.3732 529.7834 219.2621 531 222.2167 C532.471 225.7891 535.6061 226.3266 538 230.2167 C539.0922 231.9915 537.9967 234.0879 539 235.2167 C540.7416 237.176 544.7786 237.181 546 239.2167 C547.8172 242.2453 547.8845 244.7865 548 250.2167 C548.8684 291.0315 549.5903 292.6644 548 333.2167 C547.633 342.5763 547.6054 346.0662 544 352.2167 C541.0236 357.294 535.3332 357.3057 531 362.2167 C529.2311 364.2214 530.3364 368.1887 529 369.2167 C526.5917 371.0692 523.4173 371.9041 518 372.2167 C472.8249 374.8229 425 375.2167 425 375.2167 "/>
<path id="6" d="M444 357.2167 C444 357.2167 439.0112 360.3714 437 360.2167 C435.1259 360.0725 433.6708 356.5134 431 356.2167 C418.567 354.8352 401 356.2167 401 356.2167 "/>
<path id="7" d="M432 377.2167 L375 373.2167 "/>
<path id="8" d="M408 354.2167 C408 354.2167 385.8683 355.382 368 354.2167 C365.2324 354.0362 363.1781 352.3948 362 351.2167 C361.6073 350.824 362.5487 348.9763 362 348.2167 C357.5397 342.0408 349 333.2167 349 333.2167 "/>
<path id="9" d="M378 375.2167 C378 375.2167 368.7993 376.5624 367 377.2167 C366.8884 377.2572 367.0178 379.2154 367 379.2167 C363.5178 379.4654 349.2982 376.3427 339 379.2167 C332.2514 381.1 330.9125 389.2197 324 391.2167 C312.6622 394.492 294 392.2167 294 392.2167 "/>
<path id="10" d="M351 334.2167 C351 334.2167 346.8547 333.7004 345 332.2167 C342.8525 330.4986 343.1475 327.9347 341 326.2167 C339.1453 324.7329 337.2394 325.767 335 324.2167 C331.4076 321.7296 331.2539 317.9823 328 317.2167 C311.0003 313.2167 284 312.2167 284 312.2167 "/>
<path id="11" d="M294 391.2167 L294 392.2167 "/>
<path id="12" d="M294 393.2167 L246 390.2167 "/>
<path id="13" d="M282 381.2167 C282 381.2167 287.9687 389.0492 292 392.2167 C292.8649 392.8963 295.6042 391.7643 296 392.2167 C297.2015 393.5898 297.0105 398.2271 299 400.2167 C301.3513 402.5679 304.4851 401.4659 308 404.2167 C315.2314 409.876 321.558 417.6139 322 418.2167 C322.0219 418.2465 318.997 419.2106 319 419.2167 C319.0335 419.2837 322.4294 420.4497 324 422.2167 C325.8285 424.2737 326.5963 425.3904 327 428.2167 C327.9421 434.8112 329.4038 439.5108 327 443.2167 C320.9796 452.498 315.0158 455.2035 303 465.2167 C300.5874 467.2272 299.8227 467.8317 297 468.2167 C289.9533 469.1776 286.6043 467.0958 281 468.2167 C279.3187 468.5529 277 472.2167 277 472.2167 "/>
<path id="14" d="M303 379.2167 C303 379.2167 307.0726 381.0483 309 383.2167 C310.3997 384.7913 309.5227 387.1087 311 388.2167 C319.1574 394.3347 325.5721 394.339 333 401.2167 C336.5159 404.4721 334.5279 409.0136 338 413.2167 C342.8572 419.0965 348.3909 418.6025 352 424.2167 C355.5318 429.7105 356.7851 435.7209 356 441.2167 C355.4197 445.2788 351.6852 449.6154 348 452.2167 C345.7311 453.8182 342.3871 451.5231 339 453.2167 C329.017 458.2082 328.654 460.8243 318 467.2167 C313.8689 469.6953 313.4142 470.3678 309 471.2167 C301.2318 472.7105 298.3124 470.9542 292 472.2167 C290.6788 472.4809 290.4472 474.791 289 475.2167 C283.5622 476.816 275 477.2167 275 477.2167 "/>
<path id="15" d="M284 475.2167 C284 475.2167 278.522 478.4187 274 479.2167 C271.1179 479.7253 267 478.2167 267 478.2167 "/>
<path id="16" d="M278 467.2167 C278 467.2167 270.5199 469.15 265 472.2167 C262.2789 473.7284 260 477.2167 260 477.2167 "/>
<path id="17" d="M285 313.2167 C285 313.2167 284.4825 309.6991 284 309.2167 C283.7105 308.9272 281.3653 309.6276 281 309.2167 C279.1582 307.1446 279.011 303.9225 276 300.2167 C272.8881 296.3867 270.2475 296.026 268 293.2167 C267.4968 292.5877 268.4409 290.6174 268 290.2167 C265.1931 287.665 260.5489 286.7656 257 283.2167 C255.4227 281.6394 255.734 277.3635 255 277.2167 C244.9987 275.2164 212 274.2167 212 274.2167 "/>
<path id="18" d="M213 278.2167 C213 278.2167 229.023 277.1278 241 278.2167 C243.2554 278.4217 244.5261 279.5322 246 281.2167 C247.349 282.7584 246.9335 285.6424 248 286.2167 C250.7449 287.6947 257.0364 286.7062 259 288.2167 C260.277 289.1989 259.117 293.4646 261 296.2167 C264.7237 301.659 267.798 301.7217 272 307.2167 C273.6299 309.348 274.1 312.5167 274 313.2167 C273.975 313.3917 270.9878 314.2021 271 314.2167 C271.0946 314.3301 279 319.2167 279 319.2167 "/>
<path id="19" d="M281 316.2167 L203 313.2167 "/>
<path id="20" d="M47 327.2167 C47 327.2167 49.6938 324.3603 50 322.2167 C50.4997 318.7191 49 313.2167 49 313.2167 "/>
<path id="21" d="M49 312.2167 C49 312.2167 48.9553 277.0214 47 262.2167 C46.8576 261.1385 42.8026 260.9487 42 259.2167 C35.2843 244.725 33.9392 233.095 28 221.2167 C27.3401 219.8968 24.1782 220.814 22 219.2167 C17.4491 215.8793 13 210.2167 13 210.2167 "/>
<path id="22" d="M11 208.2167 C11 208.2167 10.2595 198.995 8 192.2167 C7.1582 189.6914 4.4189 189.5207 4 187.2167 C1.9254 175.8061 1.7865 162.205 2 159.2167 C2.0022 159.186 4.7494 158.5913 6 159.2167 C8.6576 160.5455 11.4627 163.0078 12 164.2167 C12.218 164.7072 9.8279 167.9413 10 168.2167 C10.5242 169.0553 16.1606 170.5378 17 172.2167 C18.1192 174.4551 16.1005 179.2934 17 182.2167 C17.3805 183.4534 20.2714 183.9416 21 185.2167 C21.5514 186.1816 20.5477 188.8209 21 189.2167 C22.3732 190.4182 26.6496 190.2936 29 192.2167 C30.7781 193.6715 30.1961 196.5932 32 198.2167 C34.083 200.0914 38.4941 199.8677 39 201.2167 C40.956 206.4326 37.4423 215.44 41 222.2167 C45.6751 231.1216 57.2743 232.7669 60 241.2167 C64.6992 255.7841 59.1021 264.4782 61 284.2167 C61.4133 288.5149 64.2823 288.9105 65 293.2167 C66.1137 299.8986 65 308.2167 65 308.2167 "/>
<path id="23" d="M65 307.2167 C65 307.2167 66.0662 314.419 65 319.2167 C64.3879 321.9709 61 325.2167 61 325.2167 "/>
<path id="24" d="M65 325.2167 C65 325.2167 67.2022 322.6019 69 322.2167 C72.8722 321.3869 75.2154 323.3298 79 322.2167 C82.2058 321.2738 82.6294 318.2811 86 317.2167 C90.8388 315.6886 92.004 316.3641 98 316.2167 C152.8754 314.8673 208 314.2167 208 314.2167 "/>
<path id="25" d="M56 357.2167 C56 357.2167 56.5034 361.0414 57 361.2167 C60.4396 362.4306 65.849 361.3512 73 363.2167 C76.4814 364.1249 79.2341 366.4508 80 367.2167 C80.0696 367.2863 78.9749 369.2097 79 369.2167 C80.1206 369.5279 90.6978 369.1951 98 372.2167 C102.951 374.2654 102.929 377.4979 108 381.2167 C109.9754 382.6653 112.753 383.2167 113 383.2167 C113 383.2167 112.9871 381.2102 113 381.2167 C113.11 381.2717 116.3082 385.0951 119 386.2167 C120.9981 387.0492 122.6291 385.4264 125 386.2167 C129.215 387.6216 129.7783 390.3723 134 391.2167 C140.7547 392.5676 142.4469 389.9578 150 391.2167 C165.7357 393.8393 166.3377 398.1092 182 399.2167 C214.1892 401.4927 228.485 399.4059 249 398.2167 C249.6651 398.1781 250.1314 395.4648 251 395.2167 C254.7348 394.1496 263 394.2167 263 394.2167 "/>
<path id="26" d="M60 362.2167 C60 362.2167 59.9443 369.4201 62 374.2167 C63.9186 378.6934 66.9989 379.2144 69 383.2167 C69.8004 384.8176 68.2418 386.2452 69 388.2167 C72.7679 398.0131 77.6863 399.5283 79 409.2167 C81.217 425.5672 79.2465 429.6193 77 447.2167 C76.4415 451.5915 75.6366 452.566 73 456.2167 C69.5626 460.9761 68.7571 461.5789 64 465.2167 C60.6877 467.7496 59.7973 468.204 56 469.2167 C53.0682 469.9985 51.2284 468.054 49 469.2167 C41.9134 472.914 33 481.2167 33 481.2167 "/>
<path id="27" d="M54 358.2167 C54 358.2167 52.0022 358.1931 52 358.2167 C51.7522 360.8181 51.1863 372.9779 52 379.2167 C52.0927 379.9271 54.7518 380.3481 55 381.2167 C56.0671 384.9515 54.813 388.7653 56 393.2167 C56.3677 394.5956 58.8889 395.0318 59 396.2167 C59.9817 406.6886 57.3751 413.5174 59 425.2167 C59.4311 428.3208 63.0443 428.8719 64 432.2167 C65.6198 437.8858 66.7699 442.4045 65 446.2167 C62.3194 451.9903 57.7308 456.2281 51 460.2167 C46.7178 462.7543 43.4064 460.0541 38 462.2167 C32.0452 464.5986 31.4976 468.0176 26 470.2167 C23.1065 471.374 20.2762 469.0116 18 470.2167 C14.0835 472.2901 12.3579 477.4258 9 479.2167 C7.6698 479.9261 3 478.2167 3 478.2167 "/>
<path id="28" d="M51 331.2167 C51 331.2167 50.3263 339.7345 51 341.2167 C51.2205 341.7017 56.0026 342.2101 56 342.2167 C55.9823 342.261 50.5887 344.0984 49 346.2167 C47.3684 348.3922 46.6263 353.4692 47 354.2167 C47.2936 354.8039 54 356.2167 54 356.2167 "/>
<path id="29" d="M51 332.2167 C51 332.2167 50.9289 328.8998 52 327.2167 C53.8658 324.2847 58 321.2167 58 321.2167 "/>
<path id="30" d="M49 340.2167 C49 340.2167 53.9023 340.6871 55 340.2167 C55.4182 340.0374 56 337.2167 56 337.2167 "/>
<path id="31" d="M60 331.2167 C60 331.2167 57.9619 333.1213 58 333.2167 C58.1462 333.5821 61.999 336.2208 62 336.2167 C62.0033 336.2036 59 329.2167 59 329.2167 "/>
<path id="32" d="M57 351.2167 C57 351.2167 57.9999 346.2168 58 346.2167 C58.0001 346.2166 57.6178 349.5797 58 350.2167 C58.2675 350.6625 60.9056 351.2796 61 351.2167 C61.0809 351.1627 61 348.2167 61 348.2167 "/>
<path id="33" d="M212 275.2167 C212 275.2167 170.893 277.0364 169 277.2167 C168.9645 277.22 169.3173 278.6315 170 279.2167 C172.3714 281.2493 173.231 282.2936 176 283.2167 C178.2656 283.9719 181.325 283.4417 182 283.2167 C182.075 283.1917 181.9902 281.217 182 281.2167 C188.3652 280.967 212.8627 278.8673 233 281.2167 C236.8761 281.6689 237.6625 286.2889 242 288.2167 C245.3825 289.72 248.1053 287.6085 251 289.2167 C255.2411 291.5728 257.2588 293.731 260 298.2167 C261.9325 301.379 260.2866 303.3615 262 307.2167 C264.0214 311.7649 264.575 312.7917 268 316.2167 C270.9683 319.185 276 321.2167 276 321.2167 "/>
<path id="34" d="M225 313.2167 C225 313.2167 213.86 302.9845 203 298.2167 C195.2812 294.8279 192.136 298.1752 184 295.2167 C177.0052 292.6731 176.4924 288.1015 170 286.2167 C163.3564 284.2879 159.9752 284.533 153 286.2167 C147.3831 287.5725 146.581 292.1886 141 293.2167 C130.0811 295.228 127.5366 292.2269 115 293.2167 C109.0997 293.6825 103.0122 296.2207 103 296.2167 C102.9952 296.2151 106.0248 292.3128 109 291.2167 C114.2116 289.2966 116.4633 290.8451 122 289.2167 C123.9894 288.6316 124.2271 286.4193 126 286.2167 C138.7018 284.765 141.7299 286.065 157 285.2167 C159.4858 285.0786 161.5456 284.762 162 284.2167 C162.4398 283.6889 161.75 279.3417 162 279.2167 C163 278.7167 168.1849 278.0119 172 279.2167 C176.1564 280.5292 176.705 284.0603 181 285.2167 C187.9872 287.0978 192.2066 283.5833 198 286.2167 C205.4228 289.5906 205.6247 295.8296 214 300.2167 C224.8366 305.893 233.706 304.3953 240 308.2167 C241.5225 309.141 242 317.2167 242 317.2167 "/>
<path id="35" d="M253 394.2167 L253 392.2167 "/>
<path id="36" d="M252 390.2167 C252 390.2167 251.6824 395.4828 250 398.2167 C248.4157 400.7911 245.7241 400.5347 244 403.2167 C241.8727 406.5258 243.2955 408.5439 241 412.2167 C236.2508 419.8154 229 427.2167 229 427.2167 "/>
<path id="37" d="M270 391.2167 C270 391.2167 267.5318 406.3869 265 409.2167 C263.6777 410.6945 256.8435 408.9355 253 410.2167 C251.6496 410.6668 250.8681 412.1084 250 414.2167 C247.5713 420.1149 248.2433 422.4095 246 427.2167 C245.487 428.316 243.3448 428.2511 243 429.2167 C241.5725 433.2135 243.1641 437.7902 241 441.2167 C238.8273 444.6567 235.8856 445.7738 231 448.2167 C228.6477 449.3928 226.6841 447.8444 225 449.2167 C215.5816 456.8909 213.0424 459.9949 204 470.2167 C202.4534 471.965 203.2227 474.1468 202 475.2167 C200.5136 476.5173 197.313 476.0912 196 477.2167 C195.2462 477.8627 195 481.2167 195 481.2167 "/>
<path id="38" d="M230 427.2167 C230 427.2167 228.9429 429.8395 228 430.2167 C225.5248 431.2067 222.1522 430.0427 220 431.2167 C218.5576 432.0034 218.5108 435.0835 217 436.2167 C215.713 437.1819 213.5875 436.0827 212 437.2167 C207.7138 440.2782 207.5064 443.3008 203 446.2167 C200.1746 448.0449 198.6559 446.8105 195 448.2167 C192.4345 449.2034 191.4739 449.5322 190 451.2167 C188.651 452.7584 189.3619 455.1691 188 456.2167 C184.5416 458.877 179.432 458.5976 177 461.2167 C175.2645 463.0857 175.6794 468.688 175 470.2167 C174.9389 470.3541 173.0037 470.1909 173 470.2167 C172.9115 470.8359 173.1727 476.2712 174 477.2167 C174.6566 477.967 179.9999 478.2166 180 478.2167 C180.0001 478.2167 177 478.2167 177 478.2167 "/>
<path id="39" d="M163 380.2167 C163 380.2167 172.9903 386.5864 176 391.2167 C177.3927 393.3592 174.9464 396.8451 176 400.2167 C177.0024 403.4243 179.0307 405.4935 181 407.2167 C181.531 407.6813 183.9738 407.1381 184 407.2167 C184.1484 407.6618 182.3716 412.1393 183 413.2167 C184.2375 415.3381 190.9577 418.7092 191 419.2167 C191.0344 419.629 186.1016 421.9687 184 425.2167 C181.2878 429.4082 182.8688 431.536 180 436.2167 C173.774 446.3749 172.7294 447.7846 165 456.2167 C162.6144 458.8191 160.3643 457.6948 158 460.2167 C153.6352 464.8725 154.5189 467.1662 150 472.2167 C146.4495 476.1849 141 479.2167 141 479.2167 "/>
<path id="40" d="M155 384.2167 C155 384.2167 161.722 384.568 162 385.2167 C163.4496 388.5991 161.4191 397.9901 164 405.2167 C165.3528 409.0044 170.1118 409.4404 172 413.2167 C173.6521 416.5209 174.0776 420.9268 173 423.2167 C171.7295 425.9165 166.9698 426.5044 164 430.2167 C161.8249 432.9355 163.2879 435.3904 161 438.2167 C155.6616 444.8112 152.0362 444.5017 147 451.2167 C143.9997 455.217 145.6356 457.9996 143 462.2167 C141.2917 464.9499 138.3968 465.1214 137 467.2167 C136.3792 468.1479 137.6542 470.3171 137 471.2167 C134.9036 474.0993 131.2475 475.4073 129 478.2167 C128.4968 478.8456 129 481.2167 129 481.2167 "/>
<path id="41" d="M155 319.2167 C155 319.2167 149.274 318.618 148 317.2167 C146.2137 315.2517 147.3615 310.4657 145 308.2167 C139.1885 302.6819 135.3385 300.2741 127 297.2167 C122.4586 295.5515 120.5072 296.1968 115 297.2167 C107.6911 298.5702 107.2937 301.4062 100 302.2167 C85.9335 303.7796 73.7334 302.4656 70 302.2167 C69.9834 302.2156 70 300.2167 70 300.2167 "/>
<path id="42" d="M75 294.2167 L66 298.2167 "/>
<path id="43" d="M70 296.2167 C70 296.2167 74.6613 293.4622 79 293.2167 C99.8188 292.0382 114.5751 293.9655 123 293.2167 C123.2596 293.1936 123.5524 289.4156 124 289.2167 C125.2892 288.6437 129.3004 287.8669 132 289.2167 C143.6419 295.0376 148.1946 296.988 158 306.2167 C163.1636 311.0766 166 321.2167 166 321.2167 "/>
<path id="44" d="M122 381.2167 C122 381.2167 118.9806 388.7638 118 396.2167 C116.539 407.3202 118.6899 411.6123 117 419.2167 C116.6281 420.8903 113.3166 420.9785 112 423.2167 C108.9764 428.3568 110.3638 432.4791 107 436.2167 C103.4055 440.2105 99.7108 439.1375 94 443.2167 C89.6489 446.3246 89.9686 449.1279 86 451.2167 C82.0827 453.2784 79.1257 451.1538 75 453.2167 C70.5305 455.4514 66 461.2167 66 461.2167 "/>
<path id="45" d="M71 471.2167 C71 471.2167 84.2797 464.3355 93 456.2167 C97.4061 452.1144 95.8048 448.6327 100 444.2167 C104.3639 439.623 108.8259 439.1263 112 436.2167 C112.4515 435.8028 111.4875 433.7633 112 433.2167 C116.6228 428.2857 120.2489 426.9677 127 420.2167 C129.4111 417.8056 129.9242 417.3246 131 414.2167 C134.1658 405.0709 133.3683 400.6496 136 394.2167 C136.4341 393.1556 139.9404 392.7528 140 392.2167 C140.3845 388.7559 138 376.2167 138 376.2167 "/>
<path id="46" d="M109 314.2167 C109 314.2167 103.0375 314.0392 100 312.2167 C96.9625 310.3942 96.988 306.5158 94 305.2167 C87.9521 302.5871 79.8345 303.0503 77 302.2167 C76.9068 302.1892 77.0376 300.2224 77 300.2167 C75.4126 299.9724 64 300.2167 64 300.2167 "/>
<path id="47" d="M107 319.2167 C107 319.2167 82.5557 316.2167 70 316.2167 C68.982 316.2167 67 319.2167 67 319.2167 "/>
<path id="48" d="M99 316.2167 C99 316.2167 92.4488 308.7027 87 307.2167 C79.0838 305.0577 66 307.2167 66 307.2167 "/>
<path id="49" d="M285 317.2167 C285 317.2167 286.3205 331.3503 289 343.2167 C289.5655 345.7208 291.9414 346.1075 292 348.2167 C292.3566 361.0558 292.2543 367.6229 290 379.2167 C289.5711 381.4225 285 384.2167 285 384.2167 "/>
<path id="50" d="M292 319.2167 C292 319.2167 294 335.4362 294 337.2167 C294 337.2167 292.002 337.1932 292 337.2167 C291.4577 343.4535 290 383.2167 290 383.2167 "/>
<path id="51" d="M294 337.2167 C294 337.2167 296.5703 348.829 297 360.2167 C297.5571 374.9788 296.7866 382.0883 296 390.2167 C295.9688 390.539 294 391.2167 294 391.2167 "/>
<path id="52" d="M424 362.2167 C424 362.2167 424.0928 367.031 423 369.2167 C422.2714 370.6738 419 372.2167 419 372.2167 "/>
<path id="53" d="M429 357.2167 C429 357.2167 426.1557 368.5201 425 371.2167 C424.937 371.3637 423 371.2167 423 371.2167 "/>
<path id="54" d="M448 361.2167 C448 361.2167 445.5849 361.4368 445 362.2167 C442.2105 365.936 439 373.2167 439 373.2167 "/>
<path id="55" d="M452 361.2167 C452 361.2167 450.9641 367.2705 449 370.2167 C447.8691 371.9129 444 373.2167 444 373.2167 "/>
<path id="56" d="M471 358.2167 C471 358.2167 471.6648 361.3302 471 362.2167 C468.5485 365.4854 462 370.2167 462 370.2167 "/>
<path id="57" d="M478 360.2167 L467 373.2167 "/>
<path id="58" d="M489 358.2167 C489 358.2167 489.6727 369.6942 489 372.2167 C488.9007 372.589 485 373.2167 485 373.2167 "/>
<path id="59" d="M498 355.2167 C498 355.2167 495.2719 356.9479 495 358.2167 C494.179 362.0478 495.8095 366.5859 495 369.2167 C494.7623 369.9893 491 371.2167 491 371.2167 "/>
<path id="60" d="M521 228.2167 L534 226.2167 "/>
<path id="61" d="M521 232.2167 L536 231.2167 "/>
<path id="62" d="M531 243.2167 C531 243.2167 539.1104 241.7721 542 242.2167 C542.6558 242.3176 544 245.2167 544 245.2167 "/>
<path id="63" d="M533 249.2167 L547 254.2167 "/>
<path id="64" d="M535 268.2167 L547 271.2167 "/>
<path id="65" d="M534 274.2167 L552 274.2167 "/>
<path id="66" d="M534 288.2167 L549 294.2167 "/>
<path id="67" d="M536 298.2167 L548 302.2167 "/>
<path id="68" d="M533 309.2167 L548 318.2167 "/>
<path id="69" d="M534 318.2167 C534 318.2167 540.8044 319.4202 543 321.2167 C544.3244 322.3002 545 327.2167 545 327.2167 "/>
<path id="70" d="M530 328.2167 C530 328.2167 540.1221 332.0387 542 335.2167 C544.0778 338.7329 543 350.2167 543 350.2167 "/>
<path id="71" d="M531 342.2167 C531 342.2167 537.7133 346.1947 539 348.2167 C539.5062 349.0122 538 353.2167 538 353.2167 "/>
<path id="72" d="M518 347.2167 C518 347.2167 524.4779 351.4959 526 355.2167 C527.9456 359.9726 527 369.2167 527 369.2167 "/>
<path id="73" d="M511 351.2167 C511 351.2167 514.6979 352.3102 515 353.2167 C516.5107 357.7487 517 369.2167 517 369.2167 "/>
<path id="74" d="M443 207.2167 C443 207.2167 442.5669 203.6498 443 203.2167 C443.8662 202.3504 446.1072 201.382 449 201.2167 C462.7207 200.4326 472.7528 199.8626 478 201.2167 C478.7354 201.4064 478.3806 207.2733 480 209.2167 C481.787 211.361 488 213.2167 488 213.2167 "/>
<path id="75" d="M482 193.2167 L483 206.2167 "/>
<path id="76" d="M488 197.2167 L487 208.2167 "/>
<path id="77" d="M505 194.2167 C505 194.2167 505.1861 200.3701 504 203.2167 C503.4122 204.6273 500 206.2167 500 206.2167 "/>
<path id="78" d="M517 195.2167 C517 195.2167 511.6057 203.2251 507 207.2167 C505.6755 208.3646 502 208.2167 502 208.2167 "/>
<path id="79" d="M526 208.2167 C526 208.2167 521.3244 213.622 517 216.2167 C514.9318 217.4576 511 217.2167 511 217.2167 "/>
<path id="80" d="M528 213.2167 L523 220.2167 "/>
<path id="81" d="M396 358.2167 L390 370.2167 "/>
<path id="82" d="M411 357.2167 C411 357.2167 407.0133 359.1901 406 361.2167 C404.2853 364.6461 405.1886 369.0376 404 371.2167 C403.659 371.8418 400 372.2167 400 372.2167 "/>
<path id="83" d="M382 357.2167 C382 357.2167 378.7182 357.3959 378 358.2167 C376.4639 359.9722 376.7091 363.6785 375 365.2167 C373.3828 366.6721 370.4329 365.7569 368 367.2167 C366.3978 368.178 365 371.2167 365 371.2167 "/>
<path id="84" d="M371 354.2167 C371 354.2167 368.5383 359.5015 365 363.2167 C358.9083 369.613 351 375.2167 351 375.2167 "/>
<path id="85" d="M353 341.2167 C353 341.2167 350.0756 344.1244 349 347.2167 C346.3237 354.911 348.7252 358.1854 345 364.2167 C339.7386 372.7352 328 381.2167 328 381.2167 "/>
<path id="86" d="M341 331.2167 C341 331.2167 338.0047 329.2091 338 329.2167 C337.4523 330.1066 336.4636 337.4718 333 344.2167 C327.2451 355.4235 324.6829 355.1852 319 366.2167 C316.5594 370.9542 318.3292 373.2571 316 377.2167 C314.1538 380.3551 309 383.2167 309 383.2167 "/>
<path id="87" d="M317 329.2167 C317 329.2167 315.0011 317.2174 315 317.2167 C314.9994 317.2163 314.1038 322.2332 314 327.2167 C313.6063 346.1143 314.6293 357.0359 314 365.2167 C313.9796 365.4816 311.4888 365.4835 311 366.2167 C308.6648 369.7194 306 377.2167 306 377.2167 "/>
<path id="88" d="M306 319.2167 C306 319.2167 307.6472 331.7846 306 342.2167 C304.8579 349.4499 301.498 349.9763 300 357.2167 C298.7087 363.4578 301.082 364.9952 300 371.2167 C299.2507 375.5253 296 380.2167 296 380.2167 "/>
<path id="89" d="M269 321.2167 C269 321.2167 269.8747 335.9302 269 350.2167 C268.3912 360.1599 268.8616 361.1549 266 370.2167 C263.1528 379.2329 262.1129 380.5472 257 388.2167 C254.7276 391.6253 250 394.2167 250 394.2167 "/>
<path id="90" d="M266 317.2167 C266 317.2167 259.1717 327.7257 256 338.2167 C252.9757 348.2202 256.3279 350.6766 253 360.2167 C249.3631 370.6423 244.1192 371.8591 241 381.2167 C239.5444 385.5835 242 393.2167 242 393.2167 "/>
<path id="91" d="M241 325.2167 C241 325.2167 240.0119 319.2404 240 319.2167 C239.9973 319.2112 239.0908 320.2631 239 321.2167 C238.1724 329.9067 240.0013 331.3777 238 340.2167 C234.2017 356.9924 233.1817 357.6236 227 374.2167 C223.758 382.9188 222.9246 385.4807 219 391.2167 C218.0533 392.6003 215.0699 391.994 214 393.2167 C212.6994 394.7031 212.8662 398.3504 212 399.2167 C211.5669 399.6498 208 399.2167 208 399.2167 "/>
<path id="92" d="M228 319.2167 C228 319.2167 225.3125 322.8575 225 326.2167 C223.4506 342.8732 226.7122 345.4008 224 362.2167 C221.941 374.9823 220.7295 377.0591 215 388.2167 C211.981 394.0958 205 399.2167 205 399.2167 "/>
<path id="93" d="M211 315.2167 C211 315.2167 205.7214 341.1727 199 360.2167 C197.8918 363.3565 195.1473 362.9132 193 366.2167 C188.9766 372.4066 190.0189 374.3429 186 380.2167 C184.0525 383.0631 182.6576 383.8879 180 385.2167 C178.7494 385.842 176.32 384.9767 176 385.2167 C175.82 385.3517 176.4842 387.571 176 388.2167 C174.4666 390.2612 170 393.2167 170 393.2167 "/>
<path id="94" d="M222 321.2167 C222 321.2167 220.1 319.1667 220 319.2167 C219.1 319.6667 214.9145 322.2903 214 325.2167 C210.8356 335.3427 212.8138 338.5546 210 351.2167 C207.8722 360.7917 207.377 364.9099 204 370.2167 C202.8026 372.0983 198.2768 370.9399 196 373.2167 C190.4116 378.8051 190.5884 383.6282 185 389.2167 C182.7232 391.4934 177 392.2167 177 392.2167 "/>
<path id="95" d="M12 166.2167 L1 161.2167 "/>
<path id="96" d="M23 224.2167 C23 224.2167 21.7479 227.0764 21 227.2167 C16.9137 227.9828 11.2485 228.7036 7 227.2167 C4.4357 226.3192 1 220.2167 1 220.2167 "/>
<path id="97" d="M10 221.2167 L3 221.2167 "/>
<path id="98" d="M3 222.2167 L1 166.2167 "/>
<path id="99" d="M40 460.2167 C40 460.2167 34.2269 463.0826 29 463.2167 C15.8118 463.5548 1 461.2167 1 461.2167 "/>
<path id="100" d="M75 326.2167 C75 326.2167 78.7419 330.8132 80 335.2167 C81.4822 340.4042 81.9095 342.4419 81 347.2167 C80.2335 351.2405 78.3754 353.8413 76 356.2167 C74.982 357.2347 72.287 356.2514 71 357.2167 C69.4892 358.3498 68 362.2167 68 362.2167 "/>
<path id="101" d="M81 323.2167 C81 323.2167 84.8549 342.6376 83 351.2167 C82.2489 354.6903 77.7714 357.2345 73 360.2167 C70.9769 361.4811 67 361.2167 67 361.2167 "/>
<path id="102" d="M103 322.2167 C103 322.2167 104.1706 328.3668 103 333.2167 C100.9046 341.8977 100.7457 343.5823 96 351.2167 C89.8542 361.1034 80 370.2167 80 370.2167 "/>
<path id="103" d="M116 326.2167 C116 326.2167 117.0809 317.4055 117 317.2167 C116.9973 317.2104 114.2747 317.942 113 319.2167 C111.3005 320.9162 110.3786 321.8507 110 324.2167 C108.6074 332.9206 112.2207 337.7753 109 344.2167 C103.9726 354.2715 89 366.2167 89 366.2167 "/>
<path id="104" d="M129 319.2167 C129 319.2167 130.9957 317.2081 131 317.2167 C131.0257 317.2681 131.6764 320.511 131 323.2167 C127.3642 337.7598 128.754 341.8048 122 353.2167 C116.1044 363.1782 102 372.2167 102 372.2167 "/>
<path id="105" d="M138 321.2167 C138 321.2167 135.2102 334.4723 131 343.2167 C129.6908 345.9357 127.1379 345.3013 125 348.2167 C116.6454 359.6093 109 373.2167 109 373.2167 "/>
<path id="106" d="M162 318.2167 C162 318.2167 162.8859 340.8446 158 358.2167 C154.6809 370.0181 151.7471 371.5645 144 382.2167 C140.3119 387.2878 134 391.2167 134 391.2167 "/>
<path id="107" d="M176 323.2167 C176 323.2167 169.4706 343.3472 160 360.2167 C154.0308 370.8494 150.8305 370.3503 144 380.2167 C142.3769 382.5611 142 386.2167 142 386.2167 "/>
<path id="108" d="M188 317.2167 C188 317.2167 189.435 326.3242 188 334.2167 C185.5981 347.4271 184.5902 348.1523 180 361.2167 C178.1897 366.369 178.0456 367.7025 175 371.2167 C172.4643 374.1424 169.2318 373.241 167 376.2167 C162.8915 381.6947 160 391.2167 160 391.2167 "/>
<path id="109" d="M200 316.2167 C200 316.2167 200.4618 325.0725 199 333.2167 C197.0364 344.1565 197.2929 345.1284 193 355.2167 C187.5874 367.9362 186.5235 369.1105 179 380.2167 C176.6564 383.6763 173.7443 383.7247 172 386.2167 C171.3599 387.1311 172 390.2167 172 390.2167 "/>
<path id="110" d="M458 257.2167 C458 257.2167 454.2379 256.7021 453 255.2167 C448.1153 249.3551 445.0672 246.6584 443 239.2167 C440.7983 231.2905 441.3933 222.0592 443 219.2167 C443.8313 217.7459 456 216.2167 456 216.2167 "/>
<path id="111" d="M469 252.2167 C469 252.2167 475.9166 250.9147 479 248.2167 C482.369 245.2688 484.5759 242.3168 485 238.2167 C485.7464 231.0016 482 219.2167 482 219.2167 "/>
<path id="112" d="M463 223.2167 C463 223.2167 464.0554 230.2034 463 235.2167 C462.3103 238.4929 459 242.2167 459 242.2167 "/>
<path id="113" d="M274 478.2167 L258 478.2167 "/>
</g>
</g>
</svg>
