<?xml version="1.0" encoding="utf-8"?>
<!DOCTYPE svg PUBLIC "-//W3C//DTD SVG 1.1//EN" "http://www.w3.org/Graphics/SVG/1.1/DTD/svg11.dtd">
<svg viewBox="0 0 800 800" preserveAspectRatio="xMinYMin meet" xmlns="http://www.w3.org/2000/svg" version="1.1">
<g fill="none" stroke="black" stroke-linecap="round" stroke-linejoin="round" stroke-width="1.1761">
<g transform="translate(87.52,139.8126) scale(2.5509) translate(-194,-190)">
<path id="0" d="M198 220 C198 220 206.3652 210.2835 216 204 C228.5812 195.7949 230.6978 193.1038 244 190 C257.6142 186.8234 264.2714 186.5504 276 190 C284.5809 192.5238 289.8992 197.2467 295 205 C299.9983 212.5974 301.0001 227.9996 301 228 C301 228.0003 297.7686 216.7736 294 212 C292.3691 209.9342 289.8317 209.2804 286 209 C270.6162 207.8744 266.8092 205.7232 253 209 C240.7299 211.9115 236.6364 215.0156 227 223 C221.5082 227.5504 218 238 218 238 "/>
<path id="1" d="M219 241 C219 241 235.3807 243.2162 248 249 C257.8186 253.5002 257.057 257.3506 267 263 C278.5275 269.5497 283.53 266.74 292 274 C301.454 282.1034 303.2744 287.2307 309 299 C311.1489 303.4171 310 311 310 311 "/>
<path id="2" d="M199 223 C199 223 196.5383 225.5775 196 228 C194.7439 233.6524 194.2129 235.7528 195 241 C195.4655 244.1034 196.4427 245.2381 199 248 C208.424 258.1779 208.8854 259.1589 220 268 C230.5192 276.3675 232.1512 274.7759 243 283 C262.9667 298.1361 263.3135 305.7848 282 315 C294.2707 321.0513 316 319 316 319 "/>
<path id="3" d="M308 295 C308 295 336.2006 280.9632 364 270 C370.831 267.3061 371.5798 267.4947 379 267 C393.645 266.0237 394.601 265.9464 409 267 C414.385 267.394 420 270 420 270 "/>
<path id="4" d="M313 300 C313 300 319.4185 293.8156 326 292 C346.4309 286.3639 348.717 286.9711 371 284 C378.2557 283.0326 380.0565 282.3019 386 284 C392.0567 285.7305 392.3916 289.5218 399 292 C407.4671 295.1751 411.2743 296.4804 418 296 C421.3885 295.758 425.7752 292.6947 427 290 C428.9973 285.606 428.615 281.0728 428 274 C427.7194 270.7728 425 267 425 267 "/>
<path id="5" d="M292 319 C292 319 294.833 329.1605 300 337 C308.8454 350.4206 310.1561 354.678 321 363 C328.2477 368.5622 332.2567 368.1199 343 370 C351.3263 371.4571 354.0786 371.5972 361 370 C364.6086 369.1672 367.5779 363.7867 369 364 C371.6739 364.4011 378.9088 369.1661 381 373 C382.7488 376.2061 382.0914 381.0888 381 386 C380.5056 388.2247 378.782 390.568 377 391 C366.8365 393.4639 357.3132 397.5416 348 394 C330.1458 387.2104 320.938 376.1588 306 364 C304.8598 363.0719 306.1555 360.8353 305 359 C298.4165 348.5438 293.178 347.3221 289 337 C286.0062 329.6037 288 317 288 317 "/>
<path id="6" d="M431 283 C431 283 436.1845 283.8653 438 285 C438.6327 285.3954 439.0468 287.9649 439 288 C438.813 288.1403 435.5209 288.676 434 288 C432.2425 287.2189 430 284 430 284 "/>
<path id="7" d="M429 289 C429 289 434.6998 289.1874 436 290 C436.5968 290.373 437.1588 293.8412 437 294 C436.6295 294.3705 432.9922 295.3984 431 295 C429.42 294.684 427 292 427 292 "/>
<path id="8" d="M383 379 C383 379 384.6886 376.4371 386 376 C387.9671 375.3443 391.5574 375.6311 392 376 C392.3074 376.2561 392.2653 380.8526 392 381 C391.1403 381.4776 383 381 383 381 "/>
<path id="9" d="M382 372 C382 372 393 371 393 371 C393 371 384 371 384 371 "/>
<path id="10" d="M308 288 C308 288 307.1834 283.4705 308 280 C309.0147 275.6874 309.3523 274.9225 312 271 C322.5286 255.4021 333.2431 240.3 335 240 C335.8633 239.8526 353 264 353 264 "/>
<path id="11" d="M291 273 C291 273 295.1657 263.0222 301 255 C306.8133 247.0067 315.0159 239.998 315 240 C314.9515 240.0061 269.1846 258.9895 269 259 C268.9531 259.0027 278.1002 243.0449 280 242 C280.5321 241.7073 289 248 289 248 "/>
<path id="12" d="M311 241 L323 249 "/>
<path id="13" d="M278 317 C278 317 226.9719 316.6781 225 317 C224.8998 317.0164 226.2984 322.0529 229 325 C236.5258 333.2099 239.0279 332.6813 247 341 C250.067 344.2003 252 349 252 349 "/>
<path id="14" d="M257 301 C257 301 235.001 301.1665 224 303 C222.7899 303.2017 221.1926 305.2664 221 307 C219.9776 316.2014 221 330 221 330 "/>
<path id="15" d="M268 309 C268 309 253.2963 309.986 239 309 C224.5677 308.0047 210.0362 305 210 305 C209.9925 305 214.5374 306.6842 216 309 C219.5281 314.5861 217.8009 319.2761 222 324 C227.7823 330.5051 240 336 240 336 "/>
<path id="16" d="M242 290 C242 290 231.8868 295.6675 223 299 C221.0141 299.7447 218 299 218 299 "/>
<path id="17" d="M251 340 C251 340 254.6748 342.4097 256 344 C256.3245 344.3895 256.1 345.95 256 346 C255.6 346.2 252 346 252 346 "/>
<path id="18" d="M304 323 C304 323 311.389 313.4277 312 313 C312.0041 312.9971 314.0009 315.9996 314 316 C313.9948 316.0026 310 314 310 314 "/>
<path id="19" d="M236 251 L245 251 "/>
<path id="20" d="M239 259 L248 257 "/>
<path id="21" d="M245 262 L260 264 "/>
<path id="22" d="M253 268 L270 271 "/>
<path id="23" d="M262 274 L285 283 "/>
<path id="24" d="M272 285 C272 285 274.9032 283.6353 277 284 C285.1982 285.4258 295 289 295 289 "/>
<path id="25" d="M284 290 L308 306 "/>
<path id="26" d="M291 306 C291 306 296.1316 302.7105 297 303 C298.4474 303.4825 303 310 303 310 "/>
<path id="27" d="M273 289 L279 310 "/>
<path id="28" d="M261 279 L265 298 "/>
<path id="29" d="M254 274 L255 289 "/>
<path id="30" d="M244 268 L244 279 "/>
<path id="31" d="M229 256 L229 269 "/>
<path id="32" d="M290 248 L302 258 "/>
<path id="33" d="M316 242 L315 258 "/>
<path id="34" d="M221 239 C221 239 213.1737 237 206 237 C200.261 237 194 239 194 239 "/>
<path id="35" d="M359 284 C359 284 371.7939 278.1228 384 276 C393.7126 274.3108 401.077 276.7133 405 276 C405.3227 275.9413 405.2144 272.7856 406 272 C407.0998 270.9002 411 270 411 270 "/>
<path id="36" d="M338 369 L361 391 "/>
<path id="37" d="M223 203 L224 216 "/>
<path id="38" d="M232 196 C232 196 238.3926 202.769 242 209 C243.2631 211.1817 243 215 243 215 "/>
<path id="39" d="M254 196 C254 196 257.9786 200.4518 260 205 C261.7134 208.8551 262 214 262 214 "/>
<path id="40" d="M273 196 L277 208 "/>
<path id="41" d="M284 200 L284 207 "/>
</g>
</g>
</svg>
