<?xml version="1.0" encoding="utf-8"?>
<!DOCTYPE svg PUBLIC "-//W3C//DTD SVG 1.1//EN" "http://www.w3.org/Graphics/SVG/1.1/DTD/svg11.dtd">
<svg viewBox="0 0 800 800" preserveAspectRatio="xMinYMin meet" xmlns="http://www.w3.org/2000/svg" version="1.1">
<g fill="none" stroke="black" stroke-linecap="round" stroke-linejoin="round" stroke-width="1.5649">
<g transform="translate(99.0223,87.52) scale(1.9171) translate(-64,-78)">
<path id="0" d="M151 254 C151 254 147.3196 254.4448 146 256 C135.3215 268.5854 123.029 286.9522 123 287 C122.9957 287.0071 126.2887 284.1107 129 284 C148.0242 283.2235 172 285 172 285 "/>
<path id="1" d="M179 267 C179 267 177.1038 266.8073 177 267 C175.4878 269.8084 173.2011 273.5943 172 280 C170.3465 288.8187 169.9962 297.8079 171 299 C171.7914 299.9398 181.2283 297.4373 188 299 C192.1366 299.9546 192.5563 303.578 197 305 C203.7714 307.1669 213 307 213 307 "/>
<path id="2" d="M213 309 C213 309 213.4371 303.1722 215 302 C220.1738 298.1196 233 294 233 294 "/>
<path id="3" d="M150 255 C150 255 149.1734 251.1493 150 249 C151.2294 245.8036 154.4165 245.1511 155 242 C156.4725 234.0486 154.9449 222.1194 155 222 C155.0117 221.9747 160.3173 225.9278 161 229 C162.6385 236.3733 159.8764 248.2978 161 249 C163.8764 250.7978 179.289 247.8883 193 249 C195.2466 249.1822 195.6273 251.6046 198 252 C206.2684 253.3781 217 253 217 253 "/>
<path id="4" d="M215 267 C215 267 213.5781 253.2657 216 246 C217.3623 241.913 224.8346 236.9699 225 237 C225.0898 237.0163 226.8715 242.6023 227 248 C227.3603 263.1344 225.2635 265.3745 226 279 C226.1467 281.7132 229 285 229 285 "/>
<path id="5" d="M236 294 L224 284 "/>
<path id="6" d="M132 288 C132 288 131.5992 297.3992 134 300 C139.9486 306.4443 145.6565 311.4565 156 314 C171.9551 317.9234 178.994 316.0671 195 315 C197.5763 314.8282 201 311 201 311 "/>
<path id="7" d="M226 246 C226 246 234.8082 245.0638 243 246 C251.894 247.0165 258.3514 248.2343 261 250 C261.6835 250.4557 260.0745 254.6682 261 258 C262.3175 262.7431 264.4299 263.2896 266 268 C266.6729 270.0187 266.8107 272.0735 266 273 C262.2303 277.3082 259.1956 280.5112 252 284 C244.0262 287.8661 233 289 233 289 "/>
<path id="8" d="M216 243 C216 243 198.4715 242.6868 193 244 C192.2466 244.1808 191 249 191 249 "/>
<path id="9" d="M205 244 C205 244 205.7883 238.8923 208 236 C211.5767 231.3228 213.9582 227.658 218 227 C229.5187 225.1249 237.5821 226.8814 251 229 C253.2681 229.3581 253.5399 231.9749 256 233 C258.7369 234.1404 261.3544 232.8032 263 234 C264.936 235.408 266.6218 237.7851 267 241 C268.3669 252.6191 267 268 267 268 "/>
<path id="10" d="M233 224 C233 224 255.4063 223.1535 265 224 C265.679 224.0599 266.0075 226.5038 267 227 C268.8432 227.9216 271.1327 226.7162 273 228 C277.7119 231.2395 281.7454 233.5517 283 238 C285.8656 248.1599 286.0532 257.2473 284 267 C283.223 270.6907 279.1845 274.1807 275 276 C270.3224 278.0337 262.4942 277.1067 261 277 C260.9847 276.9989 261 275 261 275 "/>
<path id="11" d="M257 225 C257 225 259.9237 225.1716 260 225 C260.5403 223.7844 260.4597 217.2156 261 216 C261.0763 215.8284 263.5842 216.3118 264 216 C264.4504 215.6622 264.7213 213.0279 265 213 C271.218 212.3782 280.7408 211.8951 294 213 C297.3148 213.2762 300.6246 214.703 301 216 C303.7008 225.3299 305.6447 242.6185 305 251 C304.9157 252.0965 301.4215 254.0996 298 255 C292.7895 256.3712 286 256 286 256 "/>
<path id="12" d="M285 214 C285 214 283.5084 202.4244 284 198 C284.0722 197.3503 285.5995 196.2101 287 196 C294.2782 194.9083 296.5417 193.9713 304 195 C309.6128 195.7742 314.393 197.2586 316 200 C319.5962 206.1347 321 214.7417 321 224 C321 227.4719 317.8364 231.9506 316 233 C314.474 233.872 307 232 307 232 "/>
<path id="13" d="M307 193 C307 193 300.5847 192.4099 298 191 C296.9288 190.4157 296.3147 188.9669 296 187 C294.4469 177.2928 293.4018 175.2715 294 166 C294.294 161.4431 296.4841 156.6497 298 156 C301.0318 154.7007 312.381 155.836 315 157 C315.6172 157.2743 314.5193 161.8282 316 164 C320.7314 170.9394 327.5507 172.3519 330 179 C332.7947 186.5855 331.1061 194.8102 330 202 C329.8261 203.1302 327.6284 204.7495 326 205 C322.7714 205.4967 317 204 317 204 "/>
<path id="14" d="M297 157 C297 157 290.8986 159.5435 288 159 C285.3324 158.4998 283.2911 156.7494 281 154 C278.9908 151.589 278.5933 150.3618 278 147 C277.2121 142.5351 276.49 139.265 278 137 C281.0703 132.3945 286.1668 127.5909 292 126 C298.3323 124.273 306.3821 124.7403 311 128 C317.9069 132.8755 321.4742 140.0432 326 150 C327.7275 153.8005 327.3561 158.1182 326 161 C324.7961 163.5582 318 167 318 167 "/>
<path id="15" d="M278 138 C278 138 264.1001 140.22 258 139 C256.0899 138.618 253.8415 135.6927 253 133 C251.8873 129.4395 251.6475 125.2992 253 123 C254.7423 120.0381 258.7948 119.9578 263 116 C266.9218 112.3089 267.2488 107.8152 270 107 C275.6077 105.3385 284.7529 105.7801 290 108 C292.6285 109.112 294.3598 113.3527 296 118 C296.9475 120.6846 296 125 296 125 "/>
<path id="16" d="M251 126 C251 126 242.5669 127.3275 237 127 C235.7551 126.9268 234.5345 126.1511 234 125 C229.173 114.6034 228.3105 102.6152 224 99 C221.154 96.6131 209.6625 97.6675 203 99 C201.4137 99.3173 200.0251 101.5399 199 104 C197.8596 106.7369 198 111 198 111 C198 110.9999 196.4818 94.3101 199 86 C200.0676 82.4769 204.1799 78.5992 208 78 C223.6456 75.5458 234.6526 75.1043 250 78 C254.709 78.8885 258.065 82.9686 261 88 C263.8158 92.8271 264 102 264 102 "/>
<path id="17" d="M267 112 C267 112 267.7624 107.0494 267 104 C266.5474 102.1894 264 100 264 100 "/>
<path id="18" d="M242 297 C242 297 226.2774 296.2815 225 297 C224.6947 297.1717 224.4975 303.4958 226 306 C227.6904 308.8173 230.4912 311.6101 234 312 C256.3126 314.4792 265.5615 313.7813 289 313 C291.1747 312.9275 293.7133 311.1468 294 310 C295.1468 305.4126 296.1605 298.0412 294 293 C291.9484 288.213 288.1228 286.0819 282 282 C278.5163 279.6776 277.3588 279.3534 273 279 C259.796 277.9294 245 279 245 279 "/>
<path id="19" d="M234 315 C234 315 226.2042 313.1315 222 315 C211.1003 319.8443 209.2114 322.4266 198 331 C192.5399 335.1754 192.0105 335.5312 188 341 C181.3365 350.0867 180.143 350.7515 176 361 C171.027 373.3017 168.8807 387.9072 169 388 C169.1269 388.0987 182.1592 382.22 194 375 C202.3851 369.8872 201.6495 367.9121 210 363 C218.2227 358.1631 219.3761 356.6045 228 355 C239.0629 352.9418 249.953 354.5125 253 355 C253.078 355.0125 252.6295 358.7221 253 359 C254.1734 359.88 260.0351 360.0351 261 361 C261.579 361.579 261 367 261 367 "/>
<path id="20" d="M285 312 C285 312 287.8539 339.8746 285 355 C284.2111 359.1812 279.9167 362.1904 275 365 C271.2007 367.171 266.2528 367 264 367 C263.7952 367 263 365 263 365 "/>
<path id="21" d="M245 355 C245 355 246.2479 360.0243 245 363 C240.562 373.5829 239.3778 375.4603 232 386 C225.6794 395.0294 223.7242 397.9568 217 403 C214.6374 404.7719 208 404 208 404 C208.0001 404 224.8606 405.6441 239 404 C244.7385 403.3327 245.5956 402.0882 251 399 C255.7289 396.2978 257.3084 395.8451 260 392 C263.3392 387.2297 263.7903 385.2906 265 379 C266.1264 373.1427 265 366 265 366 "/>
<path id="22" d="M285 265 C285 265 314.1606 260.1322 318 262 C319.7305 262.8419 318.2707 274.376 322 283 C325.4765 291.0395 329.1482 290.8125 334 299 C336.8069 303.7367 338 309.9636 338 310 C338 310.0099 335.7626 307.2644 334 307 C327.6626 306.0494 319.6 307.8 318 307 C317.6 306.8 319.0205 302.4016 318 299 C314.8493 288.4976 312.8911 279.5178 309 277 C304.8134 274.291 284 277 284 277 "/>
<path id="23" d="M301 251 C301 251 336.4218 245.9335 343 250 C348.5059 253.4036 348.6219 268.2315 356 285 C359.4354 292.8077 364.9381 299.8268 365 300 C365.0082 300.0231 362.059 299.9413 361 299 C358.5692 296.8393 358.1032 293.3384 356 292 C354.6653 291.1506 350.075 292.225 350 292 C349.325 289.975 350.7222 282.305 350 274 C349.7924 271.6128 349.4915 270.6158 348 269 C344.2461 264.9332 342.4286 261.9084 338 261 C326.9676 258.7369 309 261 309 261 "/>
<path id="24" d="M311 239 C311 239 327.0607 230.7348 342 227 C349.4696 225.1326 355.6499 224.5921 359 227 C365.2137 231.4661 366.875 238.375 374 250 C376.3131 253.7741 376.6378 254.254 378 258 C378.4322 259.1886 378.18 260.865 378 261 C377.68 261.24 374.8245 261.7008 374 261 C367.7234 255.6649 364.9512 252.847 358 244 C354.3061 239.2987 353.3263 233.4421 352 233 C350.5822 232.5274 345.7773 236.9301 340 238 C333.2957 239.2415 331.2778 236.5513 325 238 C319.8168 239.1961 314 244 314 244 "/>
<path id="25" d="M115 299 C115 299 112.5216 293.2259 109 289 C105.361 284.6332 104.0501 281.9852 100 281 C89.5498 278.4581 78.2062 277.5865 72 280 C68.8906 281.2092 65.1249 287.9695 64 295 C61.5816 310.1148 62.7307 324.9227 64 330 C64.1179 330.4715 72.2766 331.5918 73 331 C73.9002 330.2635 73.1576 323.303 75 321 C77.0648 318.419 80.3069 316.5866 85 316 C98.2512 314.3436 112.4561 317.9695 115 316 C116.6604 314.7145 116.0346 292.7956 116 292 C115.9987 291.9697 114 293 114 293 "/>
<path id="26" d="M92 317 C92 317 94.3804 328.4295 92 332 C86.1284 340.8073 67.9702 352.9105 68 353 C68.0237 353.0712 85.238 354.4115 99 353 C102.7336 352.6171 104.3823 351.6177 107 349 C111.3629 344.6371 113.6179 342.5282 115 337 C116.9744 329.1026 115 317 115 317 "/>
<path id="27" d="M99 280 C99 280 94.0925 280.2219 94 280 C93.4675 278.7219 92.631 270.5859 94 268 C95.114 265.8958 98.7681 263.9618 103 263 C108.4274 261.7665 111.5128 261.9442 116 263 C117.7055 263.4013 119.1123 265.0471 120 267 C121.1373 269.5021 120.4058 273.1681 121 274 C121.2201 274.3081 124.7221 273.6295 125 274 C125.88 275.1734 127 282 127 282 "/>
<path id="28" d="M117 302 C117 302 123.1737 303.1305 126 302 C128.6379 300.9449 130.4572 298.5714 132 296 C132.6428 294.9286 132 292 132 292 "/>
<path id="29" d="M120 269 C120 269 116.2364 268.5516 116 268 C114.7931 265.1839 113.2251 257.6347 114 255 C114.3783 253.7139 117.7171 251.7725 121 251 C125.134 250.0273 126.7778 249.9445 131 251 C135.75 252.1875 136.2639 254.607 141 256 C143.8902 256.8501 147.0998 255.4374 148 256 C148.5305 256.3316 149 261 149 261 "/>
<path id="30" d="M155 298 C155 298 148.5794 297.5861 148 298 C147.7044 298.2111 147.4361 302.0132 148 303 C148.4833 303.8458 150.1159 304.7308 152 305 C156.3963 305.628 161 305.5 162 305 C162.25 304.875 162.4023 300.3449 162 300 C161.2624 299.3677 155 299 155 299 "/>
<path id="31" d="M177 304 C177 304 171.1466 302.8045 171 303 C170.623 303.5027 170.4548 311.299 171 312 C171.3298 312.424 177.4956 312.4324 178 312 C178.3706 311.6824 178.6339 307.0143 178 306 C177.4585 305.1336 173 304 173 304 "/>
<path id="32" d="M211 235 C211 235 202.7731 229.6933 196 228 C192.4618 227.1155 188.9986 227.2082 187 229 C178.4346 236.6793 176.4834 243.758 167 254 C165.5553 255.5603 162 256 162 256 "/>
<path id="33" d="M223 224 C223 224 221.2427 213.0194 220 211 C219.7424 210.5815 217.3307 210.563 215 211 C209.6102 212.0106 207.9596 211.6708 204 214 C200.8615 215.8462 199.438 217.8843 198 221 C197.1168 222.9136 198 227 198 227 "/>
<path id="34" d="M257 222 C257 222 247.7023 200.6127 246 199 C245.8306 198.8395 240.7388 200.9389 238 204 C233.0321 209.5523 233.3924 213.8659 229 218 C227.0426 219.8422 221 220 221 220 "/>
</g>
</g>
</svg>
