<?xml version="1.0" encoding="utf-8"?>
<!DOCTYPE svg PUBLIC "-//W3C//DTD SVG 1.1//EN" "http://www.w3.org/Graphics/SVG/1.1/DTD/svg11.dtd">
<svg viewBox="0 0 800 800" preserveAspectRatio="xMinYMin meet" xmlns="http://www.w3.org/2000/svg" version="1.1">
<g fill="none" stroke="black" stroke-linecap="round" stroke-linejoin="round" stroke-width="1.6753">
<g transform="translate(207.498,87.52) scale(1.7907) translate(-119,-77)">
<path id="0" d="M119 77 C119 77 124.3291 81.6655 129 83 C133.3861 84.2532 135.3707 81.5151 140 83 C159.9702 89.4055 165.5512 89.8316 182 100 C189.3644 104.5525 190.9657 108.0909 195 117 C202.2238 132.9527 198.2289 137.7169 206 153 C212.1022 165.001 214.5581 167.258 225 176 C234.5214 183.9714 236.9226 184.8982 249 189 C262.0478 193.4313 278 194 278 194 "/>
<path id="1" d="M120 79 C120 79 119.1578 83.4627 120 87 C121.4939 93.2745 125 100 125 100 "/>
<path id="2" d="M126 102 C126 102 132.76 105.8801 133 107 C133.3006 108.4029 128.6007 115.1443 129 116 C129.6232 117.3355 138.2563 119.2392 140 122 C141.8358 124.9067 141 135 141 135 "/>
<path id="3" d="M141 138 C141 138 139.7251 144.1315 141 147 C142.7785 151.0017 147.3943 151.9858 149 156 C150.4478 159.6194 147.5669 163.5964 149 167 C150.4811 170.5176 155.0234 170.882 157 175 C160.1586 181.5804 157.8761 185.7522 161 192 C162.8086 195.6171 167.0145 195.6908 169 199 C170.4471 201.4118 168.7354 203.5674 170 207 C171.9964 212.4187 176 218 176 218 "/>
<path id="4" d="M276 194 C276 194 263.4545 195.0505 253 199 C241.8547 203.2104 242.2586 205.9962 231 211 C220.0617 215.8614 216.5684 212.9839 208 219 C195.5583 227.7357 193.5803 231.2263 184 244 C179.6554 249.7927 178 259 178 259 "/>
<path id="5" d="M176 220 C176 220 174.0835 238.224 175 248 C175.1437 249.5326 179 252 179 252 "/>
<path id="6" d="M177 251 C177 251 132.7005 250.602 129 252 C128.7671 252.088 129.3486 261.6366 132 268 C133.6779 272.0271 137.3423 272.4478 139 276 C140.0299 278.207 138.2276 281.069 139 283 C139.5076 284.269 142.4812 284.5085 143 286 C145.5271 293.2654 144.7564 299.8302 147 306 C147.3613 306.9934 151 308 151 308 "/>
<path id="7" d="M152 312 C152 312 153.0675 318.9343 154 320 C154.4184 320.4782 159 320 159 320 "/>
<path id="8" d="M161 322 C161 322 164.4937 320.8797 167 319 C170.1898 316.6077 171.4572 315.5714 173 313 C173.6428 311.9286 172.6423 309.3577 173 309 C173.5365 308.4635 177.0797 308.9203 178 308 C179.5338 306.4662 179.8513 302.3401 181 301 C181.3086 300.64 183.4637 301.4767 184 301 C186.3437 298.9167 190 293 190 293 "/>
<path id="9" d="M173 298 C173 298 175.641 296.0983 178 296 C197.9551 295.1685 202.7446 299.704 221 296 C233.2441 293.5157 234.9228 290.0514 247 282 C264.5461 270.3026 269.1772 269.7037 281 256 C288.185 247.6719 285.1118 242.7764 291 231 C295.4162 222.1677 302 214 302 214 "/>
<path id="10" d="M285 251 C285 251 291.3133 243.254 294 236 C295.8128 231.1054 293.3188 229.3238 295 224 C299.0234 211.2593 306 198 306 198 "/>
<path id="11" d="M274 194 L285 193 "/>
<path id="12" d="M280 193 C280 193 283.6034 193.838 285 193 C289.3016 190.419 291.0192 185.0321 295 184 C300.3198 182.6208 312 186 312 186 "/>
<path id="13" d="M297 221 C297 221 304.725 216.9875 309 212 C312.8 207.5667 313.5087 205.0703 315 200 C315.5098 198.2666 314.0098 194.9869 314 195 C313.9468 195.0709 306 212 306 212 "/>
<path id="14" d="M314 186 L316 198 "/>
<path id="15" d="M314 184 C314 184 333.995 182.9901 334 183 C334.0006 183.0011 323.4045 187.136 318 192 C315.2866 194.4421 314 201 314 201 "/>
<path id="16" d="M315 202 L331 184 "/>
<path id="17" d="M320 197 L325 187 "/>
<path id="18" d="M303 213 C303 213 302.4686 219.3919 300 224 C295.4125 232.5634 288 241 288 241 "/>
<path id="19" d="M296 232 L290 242 "/>
<path id="20" d="M291 188 C291 188 288.072 193.1762 287 198 C286.2124 201.544 286.244 202.7242 287 206 C287.5379 208.3309 290 211 290 211 "/>
<path id="21" d="M290 191 C290 191 289.0339 200.2375 290 207 C290.3278 209.2944 293 212 293 212 "/>
<path id="22" d="M286 197 C286 197 285.1134 201.8969 286 205 C286.7916 207.7706 290 211 290 211 "/>
<path id="23" d="M304 201 C304 201 311.3782 205.171 312 206 C312.0848 206.113 310 209 310 209 "/>
<path id="24" d="M305 203 L307 210 "/>
<path id="25" d="M298 233 C298 233 293.0088 234.2347 292 236 C288.6374 241.8845 286.9818 245.3605 286 254 C284.6396 265.9713 283.1498 269.1232 287 280 C301.7272 321.6043 311.5769 327.1467 326 367 C328.5159 373.9519 327.9691 379.2103 325 385 C320.0693 394.6148 306 406 306 406 "/>
<path id="26" d="M308 405 C308 405 299.666 416.6825 292 424 C290.2239 425.6954 286.1224 426.1399 286 426 C285.5904 425.5319 284.1815 419.8877 285 416 C285.8405 412.0078 290.0184 407.0118 290 407 C289.5554 406.7142 271.6485 408.0582 271 407 C269.2735 404.1832 273.9629 384.677 271 376 C269.5873 371.8629 259.6228 370.9542 257 366 C253.0658 358.5688 256.9596 350.1521 253 342 C250.3574 336.5593 243.0599 336.027 240 331 C237.9601 327.6487 240.3918 324.0103 239 319 C238.1939 316.0981 237.3917 315.3917 235 313 C230.2166 308.2166 228.8767 305.0973 224 304 C213.1421 301.557 209.1896 304.946 195 304 C187.0734 303.4716 179 301 179 301 "/>
<path id="27" d="M263 198 C263 198 249.0166 198.0475 236 200 C229.5156 200.9727 228.8875 201.3238 223 204 C218.3405 206.1179 217.3065 206.3786 214 210 C207.4982 217.121 202 227 202 227 "/>
<path id="28" d="M251 200 C251 200 237.5916 202.9045 228 208 C223.1492 210.577 219 217 219 217 "/>
<path id="29" d="M259 204 L222 216 "/>
<path id="30" d="M262 208 L227 225 "/>
<path id="31" d="M238 211 L188 233 "/>
<path id="32" d="M225 230 L204 242 "/>
<path id="33" d="M229 227 L198 247 "/>
<path id="34" d="M246 234 L200 253 "/>
<path id="35" d="M125 81 C125 81 127.8973 86.4145 131 89 C132.8779 90.5649 137 91 137 91 "/>
<path id="36" d="M126 88 L142 97 "/>
<path id="37" d="M123 97 C123 97 124.7804 100.8374 127 102 C133.7545 105.5381 144 108 144 108 "/>
<path id="38" d="M130 106 L144 117 "/>
<path id="39" d="M179 256 C179 256 174.3629 260.5705 173 265 C170.7864 272.1941 171 282 171 282 "/>
<path id="40" d="M131 256 L149 260 "/>
<path id="41" d="M130 264 C130 264 133.1738 266.5963 136 267 C142.5945 267.9421 151 267 151 267 "/>
<path id="42" d="M138 268 C138 268 140.692 270.6153 143 271 C148.4552 271.9092 156 271 156 271 "/>
<path id="43" d="M142 289 L148 284 "/>
<path id="44" d="M143 295 L155 287 "/>
<path id="45" d="M151 297 L158 290 "/>
<path id="46" d="M154 306 L167 297 "/>
<path id="47" d="M158 317 C158 317 157.187 313.3211 158 312 C160.1012 308.5855 166 304 166 304 "/>
<path id="48" d="M161 318 L171 309 "/>
<path id="49" d="M158 315 L166 298 "/>
<path id="50" d="M156 302 L161 291 "/>
<path id="51" d="M153 297 L156 288 "/>
<path id="52" d="M146 290 L153 275 "/>
<path id="53" d="M301 215 C301 215 300.2184 221.5773 298 227 C295.9112 232.1059 292 237 292 237 "/>
<path id="54" d="M235 205 C235 205 230.4771 204.6789 228 206 C224.1419 208.0577 220 213 220 213 "/>
<path id="55" d="M226 207 C226 207 219.4548 208.7097 216 212 C210.0823 217.6359 205 227 205 227 "/>
<path id="56" d="M240 214 C240 214 229.2087 217.5585 220 223 C207.6171 230.3172 196 240 196 240 "/>
<path id="57" d="M206 232 C206 232 202.0757 234.7134 200 238 C196.44 243.6367 194 251 194 251 "/>
<path id="58" d="M227 231 L206 250 "/>
<path id="59" d="M291 423 C291 423 290.2658 419.0488 291 418 C292.4536 415.9234 298 413 298 413 "/>
<path id="60" d="M287 423 L295 411 "/>
<path id="61" d="M288 412 L295 403 "/>
<path id="62" d="M290 408 L297 402 "/>
<path id="63" d="M290 418 L305 408 "/>
<path id="64" d="M289 413 L298 402 "/>
<path id="65" d="M275 404 L288 399 "/>
<path id="66" d="M271 406 L291 397 "/>
<path id="67" d="M275 399 L294 391 "/>
<path id="68" d="M280 395 L288 385 "/>
<path id="69" d="M277 391 C277 391 286.4822 382.2824 287 382 C287.0221 381.9879 288 385 288 385 "/>
<path id="70" d="M279 390 C279 390 279.5661 386.5932 281 385 C283.3827 382.3525 288 380 288 380 "/>
<path id="71" d="M276 383 L282 376 "/>
<path id="72" d="M264 379 L266 371 "/>
</g>
</g>
</svg>
