<?xml version="1.0" encoding="utf-8"?>
<!DOCTYPE svg PUBLIC "-//W3C//DTD SVG 1.1//EN" "http://www.w3.org/Graphics/SVG/1.1/DTD/svg11.dtd">
<svg viewBox="0 0 800 800" preserveAspectRatio="xMinYMin meet" xmlns="http://www.w3.org/2000/svg" version="1.1">
<g fill="none" stroke="black" stroke-linecap="round" stroke-linejoin="round" stroke-width="1.9345">
<g transform="translate(87.52,276.7138) scale(1.5508) translate(-107,-149)">
<path id="0" d="M291 178 C291 178 280.5393 177.6894 273 174 C258.5323 166.9201 257.2462 160.5928 244 155 C238.2754 152.5829 234.7283 152.9815 228 155 C211.8101 159.857 210.4703 161.652 194 170 C174.1456 180.0632 170.7908 181.9863 155 192 C153.6471 192.8579 154.2378 195.0372 153 196 C150.7396 197.7581 147.7555 197.4639 146 199 C145.1792 199.7182 145.995 202.1348 145 203 C137.0209 209.9384 123 219 123 219 "/>
<path id="1" d="M358 180 C358 180 394.0737 175.0442 409 184 C435.8898 200.1339 441.4205 213.3678 468 246 C491.2354 274.5266 510 308 510 308 "/>
<path id="2" d="M128 219 C128 219 107 242.8972 107 243 C107 243.0214 119.4417 241.2917 128 238 C130.5847 237.0059 130.57 234.215 133 233 C135.43 231.785 137.2233 233.3223 140 232 C146.7915 228.766 147.1899 226.4051 154 223 C156.3928 221.8036 157.744 223.128 160 222 C162.9502 220.5249 163.0061 218.1643 166 217 C170.8154 215.1273 176.0679 215.644 178 215 C178.1017 214.9661 177.9865 213.0007 178 213 C182.6115 212.7507 196.7546 211.8772 215 213 C228.9287 213.8572 243 217 243 217 "/>
<path id="3" d="M356 236 C356 236 355.9672 234.0044 356 234 C357.8422 233.7544 363.6688 233.1854 371 234 C394.84 236.6489 400.8004 233.337 419 241 C432.7625 246.7948 432.5585 255.1688 447 266 C453.796 271.097 456.7854 269.7479 463 274 C464.8583 275.2715 464.051 277.6574 466 279 C484.1187 291.4817 508 305 508 305 "/>
<path id="4" d="M305 177 C305 177 284.0859 193.1753 271 210 C265.0074 217.7048 265.2677 220.6693 263 231 C260.9851 240.1791 264.133 243.5344 262 251 C260.9485 254.6802 258.9512 256.0366 255 259 C247.5535 264.5849 242.1219 265.363 238 269 C237.2958 269.6214 237.2286 272.7877 238 274 C239.613 276.5348 241.2464 278.1232 245 280 C253.4456 284.2228 254.5897 284.4906 264 287 C269.0809 288.3549 270.3934 286.5453 275 288 C278.8996 289.2314 279.1664 292.0799 283 293 C290.1839 294.7241 296.3569 295.2144 300 294 C301.4573 293.5142 303.5151 289.7578 304 286 C305.3095 275.851 303.0828 266.6687 304 263 C304.0997 262.6012 308.5932 263.3614 310 262 C320.7136 251.632 326.0138 247.254 335 233 C338.9192 226.7834 336.182 223.5146 339 216 C340.3519 212.395 342.872 212.3841 344 209 C345.4751 204.5747 345 198 345 198 "/>
<path id="5" d="M316 167 C316 167 315.9649 165.0117 316 165 C316.1403 164.9532 319 166 319 166 "/>
<path id="6" d="M336 163 L339 163 "/>
<path id="7" d="M329 170 L338 180 "/>
<path id="8" d="M316 161 C316 161 316.4567 156.4251 318 154 C319.3398 151.8947 320.6475 150.6191 323 150 C328.5438 148.5411 331.375 147.875 337 149 C341.9728 149.9946 345.0171 151.6193 348 155 C350.7595 158.1274 352 166 352 166 "/>
</g>
</g>
</svg>
