<?xml version="1.0" encoding="utf-8"?>
<!DOCTYPE svg PUBLIC "-//W3C//DTD SVG 1.1//EN" "http://www.w3.org/Graphics/SVG/1.1/DTD/svg11.dtd">
<svg viewBox="0 0 800 800" preserveAspectRatio="xMinYMin meet" xmlns="http://www.w3.org/2000/svg" version="1.1">
<g fill="none" stroke="black" stroke-linecap="round" stroke-linejoin="round" stroke-width="1.6705">
<g transform="translate(87.52,241.9641) scale(1.7959) translate(-112,-185.9333)">
<path id="0" d="M166 201.9333 C166 201.9333 165.2019 195.3919 166 191.9333 C166.2947 190.6563 167.4203 189.6103 169 188.9333 C173.5284 186.9926 174.6001 186.4919 180 185.9333 C188.5937 185.0443 189.3532 185.0687 198 185.9333 C203.9087 186.5242 205.2644 186.7048 210 188.9333 C212.5963 190.1551 212.6202 191.3372 215 193.9333 C218.104 197.3196 219.7755 197.6098 221 200.9333 C222.6443 205.3964 222 212.9333 222 212.9333 "/>
<path id="1" d="M163 193.9333 C163 193.9333 160.4094 198.5662 160 202.9333 C158.9854 213.7556 157.8676 218.5884 160 225.9333 C160.984 229.3225 164.8471 232.8685 169 233.9333 C180.4662 236.8734 189.1926 239.2025 199 235.9333 C209.2532 232.5156 223 215.9333 223 215.9333 "/>
<path id="2" d="M221 210.9333 C221 210.9333 221.7075 208.9511 222 208.9333 C230.347 208.4275 239.3625 207.0647 254 208.9333 C261.2117 209.854 264.2731 212.2745 269 214.9333 C269.6913 215.3222 269.1933 217.3876 270 217.9333 C282.3902 226.3149 288.1352 226.9463 303 237.9333 C310.2633 243.3019 308.9966 246.2269 316 251.9333 C321.8875 256.7306 324.1596 254.9915 330 259.9333 C342.9786 270.9152 342.6009 277.019 355 284.9333 C362.6263 289.8012 375.8576 289.3321 377 289.9333 C377.0171 289.9423 375.6786 293.9891 374 294.9333 C369.596 297.4106 367.3483 298.247 361 298.9333 C349.6574 300.1596 348.6624 298.0126 337 298.9333 C330.0818 299.4795 329.8548 301.7455 323 301.9333 C294.2937 302.7198 288.657 304.8265 264 300.9333 C256.1905 299.7003 254.7357 296.1219 247 289.9333 C237.5252 282.3535 236.999 282.1237 229 272.9333 C213.7593 255.4227 200 235.9333 200 235.9333 "/>
<path id="3" d="M337 299.9333 C337 299.9333 342.5154 305.9168 348 308.9333 C351.473 310.8435 353.67 309.1573 357 310.9333 C360.0433 312.5564 359.8045 315.4585 363 316.9333 C371.2971 320.7627 373.9867 318.6069 383 322.9333 C398.2218 330.2398 397.8485 334.5538 413 340.9333 C424.9047 345.9459 428.6197 342.4411 440 346.9333 C445.6392 349.1593 451 355.9333 451 355.9333 "/>
<path id="4" d="M309 334.9333 C309 334.9333 318.2451 340.766 327 341.9333 C346.4828 344.531 349.1655 339.7045 369 342.9333 C390.6944 346.465 391.2639 351.0252 413 355.9333 C421.4405 357.8392 424.4011 355.4336 431 356.9333 C432.7773 357.3373 433.2867 360.6379 435 360.9333 C444.1963 362.5189 459.9617 361.9397 460 361.9333 C460.0098 361.9317 453 357.9333 453 357.9333 "/>
<path id="5" d="M156 212.9333 C156 212.9333 149.8822 220.1954 144 221.9333 C130.6853 225.8672 112.0002 225.9333 112 225.9333 C112 225.9333 114.5842 225.6215 115 225.9333 C115.4504 226.2712 115.5087 228.777 116 228.9333 C121.5988 230.7148 126.594 232.1009 137 232.9333 C151.1545 234.0657 166 232.9333 166 232.9333 "/>
<path id="6" d="M297 307.9333 C297 307.9333 302.0726 319.5489 305 330.9333 C306.432 336.5022 306.0082 342.8509 306 342.9333 C305.9988 342.9458 304 340.9333 304 340.9333 "/>
<path id="7" d="M251 297.9333 L248 327.9333 "/>
<path id="8" d="M255 300.9333 C255 300.9333 256.0968 332.5872 255 333.9333 C254.6036 334.4198 233.0024 327.9354 233 327.9333 C232.9987 327.9322 248 327.9333 248 327.9333 "/>
<path id="9" d="M176 205.1333 L178 206.1333 "/>
</g>
</g>
</svg>
