<?xml version="1.0" encoding="utf-8"?>
<!DOCTYPE svg PUBLIC "-//W3C//DTD SVG 1.1//EN" "http://www.w3.org/Graphics/SVG/1.1/DTD/svg11.dtd">
<svg viewBox="0 0 800 800" preserveAspectRatio="xMinYMin meet" xmlns="http://www.w3.org/2000/svg" version="1.1">
<g fill="none" stroke="black" stroke-linecap="round" stroke-linejoin="round" stroke-width="1.1425">
<g transform="translate(87.52,99.3365) scale(2.6259) translate(-123,-161.1333)">
<path id="0" d="M344 188.1333 C344 188.1333 340.4847 171.1876 336 165.1333 C334.0017 162.4356 329.5101 161.5415 324 161.1333 C317.3447 160.6403 313.358 160.7562 309 163.1333 C305.6268 164.9732 302.5601 168.6524 302 173.1333 C299.2123 195.4351 303.5478 203.8392 301 227.1333 C300.4982 231.7209 298.5889 233.5445 295 237.1333 C290.9625 241.1708 289.086 242.9849 284 244.1333 C275.9145 245.9591 273.2529 242.9394 264 244.1333 C258.6721 244.8208 257.9244 245.4659 253 248.1333 C246.3146 251.7546 246.5633 254.2163 240 257.1333 C234.0801 259.7644 231.811 257.6068 226 260.1333 C221.4271 262.1215 220.9618 265 217 267.1333 C215.7589 267.8016 214.3142 266.4417 213 267.1333 C206.3427 270.6372 205.8661 272.9933 198 277.1333 C168.1906 292.8225 166.0838 295.112 137 307.1333 C131.2889 309.4939 122.9952 308.1297 123 308.1333 C123.0117 308.1421 136.4397 314.4425 149 316.1333 C160.9983 317.7485 174.9956 315.1282 175 315.1333 C175.0019 315.1355 164.5602 320.3007 155 323.1333 C152.0085 324.0197 148.07 323.0633 148 323.1333 C147.99 323.1433 149.3642 326.3154 151 327.1333 C155.9073 329.587 157.6445 330.3389 164 331.1333 C172.9448 332.2514 173.7506 330.0719 183 331.1333 C203.837 333.5245 204.1421 336.4742 225 338.1333 C247.5455 339.9267 248.2501 339.3151 271 338.1333 C286.4342 337.3316 288.6315 336.807 302 334.1333 C303.9338 333.7466 304.4617 332.928 306 331.1333 C316.0841 319.3686 317.959 319.0563 326 306.1333 C331.3638 297.5129 333.4249 295.5266 334 286.1333 C336.1858 250.4316 330.5616 245.8921 332 208.1333 C332.5026 194.9395 335.312 183.4506 338 181.1333 C339.9535 179.4493 360.9141 182.9997 361 183.1333 C361.0153 183.1572 352.7582 192.4942 347 195.1333 C344.1824 196.4247 337 194.1333 337 194.1333 "/>
<path id="1" d="M327 176.1333 C327 176.1333 322.1704 175.8209 322 176.1333 C321.2785 177.4561 320.8856 186.9999 321 187.1333 C321.0226 187.1596 326.7194 184.7799 328 183.1333 C328.678 182.2616 328.4485 178.4822 328 178.1333 C326.7825 177.1864 319 176.1333 319 176.1333 "/>
<path id="2" d="M275 244.1333 C275 244.1333 279.5486 245.7792 280 247.1333 C281.8056 252.55 284.3211 260.1596 282 265.1333 C276.8683 276.1298 270.7581 281.9224 259 292.1333 C253.8837 296.5764 251.5922 296.3813 244 298.1333 C226.2136 302.2379 223.7592 300.0366 207 304.1333 C202.9821 305.1155 202.7793 308.4019 199 309.1333 C189.2256 311.0252 176 310.1333 176 310.1333 "/>
<path id="3" d="M246 269.1333 C246 269.1333 262.5514 255.2081 263 255.1333 C263.0193 255.1301 264.5111 262.5554 264 266.1333 C263.8386 267.2632 261 269.1333 261 269.1333 "/>
<path id="4" d="M234 274.1333 C234 274.1333 251.4252 274.0835 253 275.1333 C253.5071 275.4714 253.66 282.3983 252 286.1333 C250.5334 289.4332 245 293.1333 245 293.1333 "/>
<path id="5" d="M230 286.1333 C230 286.1333 246 286.1333 246 286.1333 C246 286.1334 231 288.1333 231 288.1333 "/>
<path id="6" d="M214 287.1333 C214 287.1333 215.4585 293.5439 215 294.1333 C214.3941 294.9123 207 296.1333 207 296.1333 "/>
<path id="7" d="M258 341.1333 C258 341.1333 250.4077 362.7653 241 380.1333 C238.2923 385.1321 231.9541 389.1257 232 389.1333 C232.2348 389.1725 270.7554 385.1261 271 385.1333 C271.0305 385.1342 266.011 390.1576 266 390.1333 C265.9354 389.9911 267.5233 380.4805 266 374.1333 C265.006 369.9918 260.7953 369.2426 260 365.1333 C258.278 356.2365 260 343.1333 260 343.1333 "/>
<path id="8" d="M260 343.1333 C260 343.1333 272.8254 354.9587 285 367.1333 C287.7331 369.8664 288.4649 370.063 290 373.1333 C291.6254 376.3842 291.9997 381.1325 292 381.1333 C292.0001 381.1335 291.8767 379.1827 292 379.1333 C293.665 378.4673 297.8507 378.7931 302 377.1333 C304.5357 376.119 306.4688 374.594 307 373.1333 C307.6059 371.4672 307.4126 367.8486 306 366.1333 C302.2614 361.5936 299.786 359.1126 293 356.1333 C280.7033 350.7348 276.0474 352.6213 265 348.1333 C262.8679 347.2671 261 343.1333 261 343.1333 "/>
</g>
</g>
</svg>
