<?xml version="1.0" encoding="utf-8"?>
<!DOCTYPE svg PUBLIC "-//W3C//DTD SVG 1.1//EN" "http://www.w3.org/Graphics/SVG/1.1/DTD/svg11.dtd">
<svg viewBox="0 0 800 800" preserveAspectRatio="xMinYMin meet" xmlns="http://www.w3.org/2000/svg" version="1.1">
<g fill="none" stroke="black" stroke-linecap="round" stroke-linejoin="round" stroke-width="1.8673">
<g transform="translate(87.52,237.7353) scale(1.6066) translate(-202,-128.1333)">
<path id="0" d="M246 263.1333 C246 263.1333 223.6452 258.1861 207 252.1333 C204.3607 251.1736 201.9573 247.141 202 247.1333 C202.3429 247.0721 234.9892 247.1341 235 247.1333 C235.0019 247.1332 231.0945 246.7869 229 245.1333 C222.571 240.0578 222.0415 236.8323 216 232.1333 C214.4896 230.9586 210.9999 231.1333 211 231.1333 C211.0004 231.1333 224.5553 230.6927 235 232.1333 C237.3426 232.4564 240.0006 235.1341 240 235.1333 C239.9977 235.1303 225.977 220.1708 226 220.1333 C226.0416 220.0657 246.5728 222.8809 248 222.1333 C248.3957 221.926 246.6785 214.2778 247 209.1333 C247.0777 207.8907 248.8864 206.0907 249 206.1333 C252.4411 207.4238 261.3688 211.1052 271 218.1333 C279.1247 224.0622 279.4301 229.9544 286 233.1333 C290.7227 235.4185 294.3388 234.2683 302 233.1333 C320.7628 230.3537 322.4917 231.7373 340 225.1333 C378.0756 210.7715 380.8717 211.0379 416 190.1333 C460.9482 163.385 464.1553 147.5557 503 128.1333 C515.1801 122.0433 522.7837 126.019 540 128.1333 C549.7061 129.3253 552.4396 130.5431 560 135.1333 C564.3871 137.7969 565.4506 140.3179 568 145.1333 C569.3484 147.6803 568.0809 151.4768 569 152.1333 C571.3196 153.7902 576.2931 152.7987 582 155.1333 C586.5947 157.013 591.0178 161.122 591 161.1333 C590.929 161.1785 580.1493 160.5559 571 162.1333 C566.6052 162.8911 566.3792 165.5621 562 166.1333 C544.8632 168.3686 537.1821 162.941 525 168.1333 C513.9839 172.8287 511.5601 179.407 501 192.1333 C492.4762 202.4056 494.8815 205.6967 486 215.1333 C471.8684 230.1482 470.2631 231.0766 453 243.1333 C439.4753 252.5792 438.4971 252.6865 423 259.1333 C376.5052 278.4752 373.9114 284.5384 328 295.1333 C300.8907 301.3893 288.7356 299.8106 267 295.1333 C259.2827 293.4726 256.7921 286.9418 249 278.1333 C245.8231 274.542 245.1147 273.3692 244 269.1333 C242.9194 265.0271 244 259.1333 244 259.1333 "/>
<path id="1" d="M315 296.1333 C315 296.1333 315.9553 306.2169 315 315.1333 C314.5313 319.5077 311.8969 323.6692 312 324.1333 C312.0138 324.1952 317 324.1333 317 324.1333 C317 324.1333 309.5021 323.314 308 324.1333 C307.12 324.6133 305.9988 330.1333 306 330.1333 C306.003 330.1333 309.5358 325.0484 311 324.1333 C311.3974 323.8849 313.6126 324.5522 314 325.1333 C314.7318 326.231 315 330.1333 315 330.1333 C315 330.1333 313.5669 324.4327 314 323.1333 C314.2166 322.4837 318 321.1333 318 321.1333 C318 321.1334 313.99 324.1283 314 324.1333 C314.04 324.1533 324 324.1333 324 324.1333 "/>
<path id="2" d="M332 296.1333 C332 296.1333 331.9999 315.1312 332 315.1333 C332 315.1338 332.9705 311.1333 333 311.1333 C333.1179 311.1333 336.9898 315.1333 337 315.1333 C337.0025 315.1333 335.9305 311.1731 336 311.1333 C336.4325 310.8862 344 311.1333 344 311.1333 "/>
<path id="3" d="M344 251.1333 C344 251.1333 371.711 250.0646 395 243.1333 C411.6046 238.1915 413.9853 235.9735 428 226.1333 C435.87 220.6076 442 210.1333 442 210.1333 "/>
<path id="4" d="M357 266.1333 C357 266.1333 388.3288 264.3015 414 256.1333 C429.6664 251.1486 432.9821 247.5528 445 238.1333 C448.8956 235.08 451 227.1333 451 227.1333 "/>
<path id="5" d="M475 150.1333 C475 150.1333 479.5237 148.3454 482 149.1333 C488.5025 151.2023 491.7403 152.055 497 157.1333 C504.71 164.5774 505.921 167.6525 511 177.1333 C512.5765 180.0761 512 185.1333 512 185.1333 "/>
<path id="6" d="M544 138.1333 C544 138.1333 541.0089 136.1289 541 136.1333 C540.9978 136.1344 541.9993 139.1327 542 139.1333 C542.0003 139.1337 541.9694 137.1486 542 137.1333 C542.0458 137.1104 544 138.1333 544 138.1333 "/>
</g>
</g>
</svg>
