<?xml version="1.0" encoding="utf-8"?>
<!DOCTYPE svg PUBLIC "-//W3C//DTD SVG 1.1//EN" "http://www.w3.org/Graphics/SVG/1.1/DTD/svg11.dtd">
<svg viewBox="0 0 800 800" preserveAspectRatio="xMinYMin meet" xmlns="http://www.w3.org/2000/svg" version="1.1">
<g fill="none" stroke="black" stroke-linecap="round" stroke-linejoin="round" stroke-width="2.5682">
<g transform="translate(87.52,226.5298) scale(1.1681) translate(-44,-184)">
<path id="0" d="M44 257 C44 257 57.2758 245.3956 70 241 C82.1225 236.8122 99 238 99 238 "/>
<path id="1" d="M45 261 C45 261 60.5104 258.1218 75 259 C92.6344 260.0687 111 265 111 265 "/>
<path id="2" d="M45 266 C45 266 62.3046 265.2814 79 267 C95.9474 268.7446 96.7907 269.0377 113 273 C118.5859 274.3654 124 278 124 278 "/>
<path id="3" d="M106 256 C106 256 116.9973 249.1911 122 248 C123.1975 247.7149 125.3217 249.1539 127 251 C129.7904 254.0695 131.0709 255.2836 132 259 C133.2053 263.8213 133.4408 266.6776 132 271 C130.6392 275.0823 125 280 125 280 "/>
<path id="4" d="M122 249 C122 249 114.2659 246.1098 113 244 C111.7828 241.9714 111.785 236.2781 113 234 C114.1259 231.8889 117.984 229.6032 121 229 C123.2117 228.5577 125.3788 229.387 128 231 C131.0866 232.8994 132.7846 234.3665 134 237 C134.9702 239.1021 134.9436 242.8848 134 244 C131.9365 246.4387 123 250 123 250 "/>
<path id="5" d="M127 238 C127 238 121.2552 239.6172 121 240 C120.8866 240.1701 122.9453 244.0091 123 244 C123.1984 243.9669 127 239 127 239 "/>
<path id="6" d="M99 238 C99 238 95.8743 237.1657 95 236 C93.6886 234.2515 93.2646 232.9103 93 230 C92.3152 222.4675 90.4749 219.1704 93 214 C98.8796 201.9608 103.6779 198.469 114 187 C115.889 184.9011 117.1773 184.3849 120 184 C127.0467 183.0391 128.8305 182.6124 136 184 C143.2417 185.4016 144.7039 186.0358 151 190 C157.3458 193.9955 158.8622 195.0002 163 201 C168.0482 208.3199 169.1141 210.1363 171 219 C173.8166 232.2381 174.842 234.6038 173 248 C169.615 272.618 168.1587 275.9428 160 299 C157.4264 306.2732 150 313 150 313 "/>
<path id="7" d="M152 317 C152 317 156.2664 313.3829 160 313 C173.762 311.5885 191 313 191 313 "/>
<path id="8" d="M171 338 C171 338 170.9072 334.0928 172 333 C175.6428 329.3572 177.6974 327.9207 184 325 C197.6818 318.6596 199.0231 315.585 213 314 C244.4217 310.4367 247.6584 312.2452 281 314 C294.3676 314.7036 295.0775 315.2227 308 319 C327.1113 324.5864 329.0439 323.7512 346 333 C366.1649 343.9991 366.4282 346.0902 385 361 C401.6998 374.4069 417 390 417 390 "/>
<path id="9" d="M110 280 C110 280 118.3007 299.8592 121 319 C123.5961 337.4085 122.4582 339.773 121 358 C120.5768 363.2905 117 369 117 369 "/>
<path id="10" d="M117 372 C117 372 116.4786 377.45 118 381 C120.4896 386.8091 121.1653 388.3034 126 393 C137.897 404.5571 139.0264 405.2793 153 415 C161.5737 420.9643 162.2531 420.8524 172 425 C185.519 430.7528 186.4116 432.1691 200 435 C209.0338 436.882 210.5743 433.7263 220 435 C228.3302 436.1257 237 440 237 440 "/>
<path id="11" d="M174 343 C174 343 177.9377 354.123 184 363 C191.5228 374.0155 192.2784 374.8185 202 384 C209.7801 391.3479 210.5052 391.8361 220 397 C238.4781 407.0495 239.0789 408.4838 259 415 C291.646 425.6786 293.5024 427.5856 327 432 C356.0909 435.8337 359.4953 435.1672 388 432 C402.0706 430.4366 417 422 417 422 "/>
<path id="12" d="M206 437 C206 437 205.6169 439.5211 206 440 C206.6641 440.8301 207.9586 441.5546 210 442 C234.4712 447.3392 235.6717 449.7349 261 452 C296.185 455.1466 333 453 333 453 "/>
<path id="13" d="M299 461 L296 481 "/>
<path id="14" d="M401 368 C401 368 412.1994 363.3803 423 363 C481.4448 360.9421 483.4759 361.4438 543 363 C559.421 363.4293 561.3311 364.5552 576 367 C577.4524 367.2421 578.7789 368.5578 579 369 C579.0948 369.1895 578.5112 370.8418 578 371 C563.9796 375.3397 556.4496 374.7687 537 382 C518.1531 389.0072 500 400 500 400 "/>
<path id="15" d="M529 395 C529 395 533.8887 394.0277 537 395 C540.7189 396.1622 541.3098 398.5807 545 400 C546.8594 400.7151 548.5482 399.146 550 400 C555.1923 403.0543 562.0794 409.9919 562 410 C561.0656 410.0958 433 412 433 412 "/>
<path id="16" d="M395 444 C395 444 406.6862 453.5845 418 457 C430.9867 460.9205 448 460 448 460 "/>
<path id="17" d="M469 421 C469 421 474.2528 432.5168 476 443 C477.0433 449.2598 475 457 475 457 "/>
<path id="18" d="M454 461 C454 461 461.1427 462.1264 467 461 C473.2906 459.7903 480 456 480 456 "/>
<path id="19" d="M314 465 L313 481 "/>
<path id="20" d="M342 457 C342 457 356.6384 466.526 370 470 C379.3676 472.4356 382.1452 471.6425 392 470 C398.7192 468.8801 406 464 406 464 "/>
<path id="21" d="M364 423 C364 423 370.7255 419.4939 377 418 C380.5373 417.1578 382.4613 418.9764 385 418 C387.1969 417.155 388.8872 415.4111 390 413 C391.2885 410.2082 391.7882 407.207 391 405 C390.1602 402.6486 385 399 385 399 "/>
<path id="22" d="M202 352 C202 352 212.9705 369.3277 226 381 C235.5264 389.5341 237.8282 389.6218 250 395 C258.5521 398.7788 269 400 269 400 "/>
<path id="23" d="M281 337 C281 337 290.8329 336.4721 300 338 C314.4283 340.4047 314.7898 340.8948 329 345 C337.123 347.3467 337.6046 347.1415 345 351 C360.2278 358.9449 375 369 375 369 "/>
<path id="24" d="M303 406 L317 410 "/>
<path id="25" d="M251 456 C251 456 252.0202 463.134 251 469 C250.1607 473.8262 247 479 247 479 "/>
<path id="26" d="M264 462 L263 476 "/>
<path id="27" d="M469 380 C469 380 472.3306 380.7705 474 380 C477.5956 378.3405 477.8318 375.9849 482 374 C487.7222 371.2752 495 370 495 370 "/>
<path id="28" d="M461 402 C461 402 462.2065 400.0793 463 400 C469.4921 399.3508 481 400 481 400 "/>
</g>
</g>
</svg>
