<?xml version="1.0" encoding="utf-8"?>
<!DOCTYPE svg PUBLIC "-//W3C//DTD SVG 1.1//EN" "http://www.w3.org/Graphics/SVG/1.1/DTD/svg11.dtd">
<svg viewBox="0 0 800 800" preserveAspectRatio="xMinYMin meet" xmlns="http://www.w3.org/2000/svg" version="1.1">
<g fill="none" stroke="black" stroke-linecap="round" stroke-linejoin="round" stroke-width="1.6945">
<g transform="translate(87.52,260.1364) scale(1.7704) translate(-206,-211.1333)">
<path id="0" d="M259 228.1333 C259 228.1333 257.7291 226.1614 257 226.1333 C248.5884 225.8098 240.9454 223.7282 233 227.1333 C224.7758 230.658 221.6431 235.0298 215 244.1333 C209.1433 252.1592 207.7224 254.5645 206 264.1333 C203.61 277.411 205.1566 288.9043 206 294.1333 C206.0508 294.4482 209.955 295.696 211 295.1333 C213.8828 293.5811 215.0109 288.4954 219 287.1333 C232.0279 282.6848 238.5048 286.1207 252 281.1333 C258.5394 278.7166 260.7252 276.1181 265 270.1333 C269.6361 263.6428 270.2626 261.3242 272 253.1333 C273.5039 246.0436 272.6209 244.8943 272 237.1333 C271.6445 232.6902 271.0383 228.9828 270 228.1333 C269.002 227.3168 262.0125 228.4708 261 228.1333 C260.8875 228.0958 261 225.1333 261 225.1333 "/>
<path id="1" d="M263 229.1333 C263 229.1333 273.0302 214.7823 281 213.1333 C306.9599 207.7623 317.9011 208.3011 350 211.1333 C365.8437 212.5313 370.5794 215.4686 383 222.1333 C387.4387 224.5151 389.3234 227.9171 391 233.1333 C393.1399 239.7909 390.6551 242.7366 392 250.1333 C392.4341 252.5206 394.8104 252.9532 395 255.1333 C395.6455 262.5564 397.1287 268.2665 394 273.1333 C387.1673 283.762 379.5221 293.1829 368 297.1333 C353.1886 302.2115 344.2288 300.1403 324 297.1333 C309.4559 294.9714 309.0841 290.4024 294 286.1333 C283.0071 283.0221 281.2655 284.9652 271 282.1333 C267.9747 281.2988 267.7488 279.2328 265 278.1333 C263.5533 277.5546 261.0047 278.1145 261 278.1333 C260.9847 278.1945 264 282.1333 264 282.1333 "/>
<path id="2" d="M294 286.1333 C294 286.1333 294.652 290.5356 294 291.1333 C291.5104 293.4155 286.3674 294.0137 282 297.1333 C280.6974 298.0637 281.1657 300.5505 280 301.1333 C273.8802 304.1933 261.993 307.129 262 307.1333 C262.0158 307.1431 290.5668 310.1066 293 309.1333 C293.3706 308.9851 290.8923 300.8933 292 295.1333 C293.0552 289.6461 298 283.1333 298 283.1333 "/>
<path id="3" d="M314 297.1333 C314 297.1333 310.8651 297.1896 310 298.1333 C306.7714 301.6554 305.6311 307.5856 303 309.1333 C301.1617 310.2147 293.9551 307.9423 293 308.1333 C292.9415 308.145 292.7118 310.9275 293 311.1333 C294.1336 311.943 297.975 311.7833 300 313.1333 C301.134 313.8893 301.2012 316.8429 302 317.1333 C304.0811 317.8901 307.5393 317.932 311 317.1333 C312.8043 316.717 313.1566 315.7719 315 314.1333 C317.6115 311.812 319.2171 311.3256 320 309.1333 C321.0384 306.2257 320 300.1333 320 300.1333 "/>
<path id="4" d="M343 305.1333 C343 305.1333 337.5219 307.1718 335 309.1333 C334.2434 309.7218 334.4267 312.002 334 312.1333 C331.2693 312.9736 326.019 313.4204 322 313.1333 C321.278 313.0818 319.9914 311.1376 320 311.1333 C320.0515 311.1076 323.8299 310.2653 326 311.1333 C330.1232 312.7826 333.2327 316.6915 335 317.1333 C335.3787 317.228 336.6826 314.6274 338 314.1333 C339.5968 313.5345 342.3758 314.6684 343 314.1333 C343.8917 313.369 345 308.1333 345 308.1333 "/>
<path id="5" d="M361 303.1333 C361 303.1333 361.2013 309.6283 360 314.1333 C359.4882 316.0526 358.4571 317.4048 357 318.1333 C354.8143 319.2262 349.9999 319.1334 350 319.1333 C350.0001 319.1332 360 316.1333 360 316.1333 "/>
<path id="6" d="M396 248.1333 C396 248.1333 402.3935 252.3324 408 253.1333 C414.9924 254.1322 418.7348 251.1304 424 252.1333 C425.9824 252.5109 426.4281 255.7485 429 257.1333 C432.0348 258.7675 435.7163 258.331 437 259.1333 C437.2602 259.296 436.6073 261.7406 437 262.1333 C438.1781 263.3114 441.6385 263.2768 443 265.1333 C445.8824 269.0638 445.3397 273.4089 448 277.1333 C448.9519 278.4659 451.5444 277.6777 453 279.1333 C456.1192 282.2525 455.4838 284.4218 459 288.1333 C464.1168 293.5344 466.6463 292.7552 471 298.1333 C474.3231 302.2384 472.6703 305.6284 476 309.1333 C480.7144 314.0958 486.1063 313.7529 490 318.1333 C491.9569 320.3349 491.0093 326.0188 492 327.1333 C492.4902 327.6848 496.2171 326.1824 498 327.1333 C501.9423 329.2359 503.4741 330.7259 507 335.1333 C511.0827 340.2367 510.0932 342.9661 514 347.1333 C516.4203 349.715 520.0306 348.9669 522 351.1333 C523.5406 352.828 522.3113 355.6003 524 358.1333 C526.7019 362.1862 528.4828 364.7265 532 366.1333 C535.7684 367.6407 540.0658 367.4447 544 366.1333 C546.6228 365.2591 548.4817 361.0823 550 360.1333 C550.2141 359.9995 552 361.1333 552 361.1333 "/>
<path id="7" d="M394 255.1333 C394 255.1333 398.4473 262.1929 402 263.1333 C411.2225 265.5746 417.713 261.3044 428 264.1333 C434.5578 265.9367 434.8907 270.2824 442 274.1333 C446.2565 276.4389 451.3311 276.2136 452 277.1333 C452.4262 277.7193 449.7979 282.9101 450 285.1333 C450.0846 286.064 452.5629 286.8219 453 288.1333 C453.6557 290.1004 452.3392 293.6561 453 294.1333 C456.5158 296.6725 466.3704 297.6611 471 301.1333 C472.593 302.3281 471.2263 305.9084 473 309.1333 C476.3037 315.1401 478.2075 318.7381 482 321.1333 C484.2875 322.5781 489.4475 320.0394 492 321.1333 C493.6774 321.8522 493.6826 325.2022 496 327.1333 C498.9181 329.5651 502.8694 329.249 504 331.1333 C505.4904 333.6173 503.2276 337.8796 505 342.1333 C507.6004 348.3742 509.202 351.0551 514 355.1333 C517.4459 358.0624 520.5329 356.2906 525 359.1333 C530.7263 362.7773 531.5421 368.0844 536 369.1333 C543.5214 370.9031 559 367.1333 559 367.1333 "/>
<path id="8" d="M238 236.1333 C238 236.1333 237.1067 229.0777 239 225.1333 C242.1797 218.5089 249.9995 211.1329 250 211.1333 C250.044 211.1685 249 233.1333 249 233.1333 "/>
<path id="9" d="M228 237.1333 C228 237.1333 224.6646 218.5906 225 218.1333 C225.1251 217.9628 236.7328 220.5139 239 222.1333 C239.5764 222.545 239 228.1333 239 228.1333 "/>
<path id="10" d="M213 289.1333 L212 294.1333 "/>
<path id="11" d="M211 281.1333 C211 281.1333 211.6277 290.1119 211 295.1333 C210.8991 295.9403 209 297.1333 209 297.1333 "/>
<path id="12" d="M238 228.1333 C238 228.1333 237.9762 245.9433 238 246.1333 C238.0023 246.1518 239.9135 244.8257 240 244.1333 C240.226 242.3254 239 238.1333 239 238.1333 "/>
<path id="13" d="M234 244.1333 C234 244.1333 234.9997 241.1325 235 241.1333 C235.0006 241.1351 235.1699 247.0362 235 247.1333 C234.7097 247.2992 228 245.1333 228 245.1333 "/>
</g>
</g>
</svg>
