<?xml version="1.0" encoding="utf-8"?>
<!DOCTYPE svg PUBLIC "-//W3C//DTD SVG 1.1//EN" "http://www.w3.org/Graphics/SVG/1.1/DTD/svg11.dtd">
<svg viewBox="0 0 800 800" preserveAspectRatio="xMinYMin meet" xmlns="http://www.w3.org/2000/svg" version="1.1">
<g fill="none" stroke="black" stroke-linecap="round" stroke-linejoin="round" stroke-width="0.94086">
<g transform="translate(87.52,237.3829) scale(3.1886) translate(-199,-213)">
<path id="0" d="M262 266 C262 266 262.3822 262.6369 262 262 C261.7325 261.5541 260.4027 261 259 261 C248.2459 261 243.0093 258.996 236 262 C230.6148 264.3079 227.3414 269.8741 224 276 C222.6989 278.3853 223.2376 280.9506 224 284 C224.4526 285.8106 225.308 287.154 227 288 C234.614 291.807 236.7858 293.2084 246 295 C253.6931 296.4959 258.9008 296.7823 263 295 C265.4952 293.9151 269 285 269 285 "/>
<path id="1" d="M227 284 C227 284 226.3344 282.0515 226 282 C222.931 281.5278 217.4665 281.2572 214 282 C213.2366 282.1636 212 283.9072 212 285 C212 288.6428 212.8953 294.4214 214 295 C216.9797 296.5608 227.3872 296.7654 233 296 C234.0549 295.8561 236 292 236 292 "/>
<path id="2" d="M236 264 C236 264 234.8443 256.7785 236 251 C237.1557 245.2215 240.442 239.3551 241 239 C241.1245 238.9208 246.226 241.6781 247 244 C249.1744 250.5233 249 262.9999 249 263 C249 263 247.8636 256.5455 249 252 C250.0589 247.7644 252.0032 244.7971 254 243 C254.7621 242.3141 257.4032 242.4012 259 243 C260.3174 243.494 261.6682 244.6065 262 246 C263.6504 252.9317 264 264 264 264 "/>
<path id="3" d="M244 242 C244 242 244.7639 238.1008 244 236 C243.1782 233.74 242.2371 232.1672 240 231 C232.3321 226.9994 230.1967 226.0767 221 224 C215.6377 222.7891 212.11 222.3036 209 224 C204.712 226.3389 200.7386 230.6102 199 236 C196.8304 242.7258 197.3668 247.3785 199 255 C199.8841 259.1259 201.7029 261.9019 205 264 C210.3929 267.4318 213.1784 267.7385 221 269 C227.9809 270.1259 236 269 236 269 "/>
<path id="4" d="M257 246 C257 246 255.796 235.923 257 229 C257.4742 226.2733 258.7973 224.2957 261 223 C265.4914 220.358 267.6433 219.8202 274 219 C282.4655 217.9077 285.0736 217.7954 292 219 C294.1917 219.3812 295.4599 220.6898 297 223 C300.9203 228.8805 301.9844 230.3772 304 237 C305.1246 240.6952 304.7764 242.1178 304 246 C303.4306 248.8469 302.8775 250.8052 301 252 C294.3663 256.2215 286.6663 258.6668 282 260 C281.6868 260.0895 280.7092 258.0709 280 258 C277.4532 257.7453 272 259 272 259 "/>
<path id="5" d="M308 251 C308 251 307.4295 246.5705 308 246 C309.2551 244.7449 312.142 243.4287 316 243 C324.7962 242.0226 332.651 242.7527 335 243 C335.026 243.0027 334.8821 244.9495 335 245 C336.0221 245.438 339.817 244.5874 342 246 C346.702 249.0424 349.774 251.3456 352 256 C354.0296 260.2437 353.5038 262.9544 353 269 C352.5612 274.2655 350 280 350 280 "/>
<path id="6" d="M287 289 C287 289 277.3342 289.0867 270 291 C267.0518 291.7691 266.2258 292.603 264 295 C260.163 299.1322 259.5653 299.8694 257 305 C254.8148 309.3705 253.8696 314.8696 254 315 C254.1677 315.1677 260.9818 315.3332 265 313 C274.6779 307.3806 275.2374 303.276 285 297 C287.9932 295.0758 293 295 293 295 "/>
<path id="7" d="M328 278 C328 278 321.2378 277.127 316 278 C313.1629 278.4729 311.8716 278.9947 310 281 C305.7635 285.5391 301.9577 292.9154 302 293 C302.0238 293.0476 308.758 290.8399 315 291 C327.5705 291.3223 330.7173 295.2853 341 294 C347.0192 293.2476 355 286 355 286 "/>
<path id="8" d="M355 261 C355 261 370.2387 262.5769 379 260 C383.561 258.6585 384.8948 255.8749 389 251 C392.5471 246.7878 394.102 245.6399 395 241 C396.6897 232.27 396.992 226.1973 395 220 C394.0616 217.0805 389.5515 213.8456 386 213 C382.1631 212.0865 374.6586 214.1438 374 215 C373.4451 215.7213 374.8181 225.3246 376 226 C378.7917 227.5953 395 227 395 227 "/>
<path id="9" d="M225 290 C225 290 221.3125 288.8125 221 289 C220.6875 289.1875 219.8996 292.7992 220 293 C220.043 293.0861 222.9007 293.1654 223 293 C223.2757 292.5404 223.0028 288.0014 223 288 C223 288 220.9685 291.8742 221 292 C221.0067 292.027 223.8436 292.2347 224 292 C224.5215 291.2178 225.2218 286.2661 225 286 C224.7854 285.7425 219.579 285.421 219 286 C218.0351 286.9649 216.7992 293.5984 217 294 C217.0861 294.1721 222.2895 294.5075 223 294 C223.5413 293.6133 224.1655 289.2069 224 289 C223.8424 288.803 219.3811 288.6951 219 289 C218.7561 289.1951 218.7561 292.8049 219 293 C219.3811 293.3049 223.4922 293.5078 224 293 C224.914 292.086 226.2541 286.2541 226 286 C225.3394 285.3394 219.065 284 215 284 C213.8914 284 212.423 285.154 212 286 C211.5166 286.9668 211.4172 288.8343 212 290 C212.8743 291.7485 214.4474 293.7671 216 294 C221.3498 294.8025 229.9034 293.6552 232 293 C232.1607 292.9498 232.1606 289.0584 232 289 C230.7856 288.5584 222.4914 288.2543 221 289 C220.4577 289.2712 219.7818 294.7818 220 295 C220.3055 295.3055 226.5625 295.4375 227 295 C227.4375 294.5625 227.4324 288.5044 227 288 C226.6824 287.6294 221.5862 287.4975 221 288 C220.3998 288.5144 219.9339 293.9736 220 294 C220.4814 294.1926 230.3394 292.6606 231 292 C231.2541 291.7459 230.0588 285.6515 229 285 C227.0503 283.8002 220.5228 283.7898 218 284 C217.7304 284.0225 217.1346 285.0579 217 286 C216.686 288.1982 216.6875 290.8296 217 291 C218.3228 291.7215 227.0287 292.3532 228 292 C228.166 291.9396 228.1985 287.1134 228 287 C227.5535 286.7448 221 288 221 288 "/>
</g>
</g>
</svg>
