<?xml version="1.0" encoding="utf-8"?>
<!DOCTYPE svg PUBLIC "-//W3C//DTD SVG 1.1//EN" "http://www.w3.org/Graphics/SVG/1.1/DTD/svg11.dtd">
<svg viewBox="0 0 800 800" preserveAspectRatio="xMinYMin meet" xmlns="http://www.w3.org/2000/svg" version="1.1">
<g fill="none" stroke="black" stroke-linecap="round" stroke-linejoin="round" stroke-width="0.76805">
<g transform="translate(87.52,200.794) scale(3.906) translate(-230,-140.1333)">
<path id="0" d="M271 221.1333 C271 221.1333 254.0058 221.4674 244 220.1333 C242.7462 219.9662 241.2068 218.3738 241 217.1333 C240.1139 211.8169 240.3659 207.5229 241 202.1333 C241.0945 201.3302 241.8797 200.8463 243 200.1333 C247.1701 197.4796 247.6532 196.0993 252 195.1333 C259.8338 193.3925 265.2314 197.1901 270 194.1333 C279.3075 188.167 281.9494 173.5812 291 170.1333 C303.6107 165.3292 312.1702 169.7167 333 170.1333 C336.9775 170.2129 337.48 169.8661 341 171.1333 C349.3706 174.1468 354.8885 175.5033 358 179.1333 C359.9102 181.3619 357.105 187.2906 359 192.1333 C360.8581 196.8817 366.4131 198.7585 367 202.1333 C367.634 205.7787 366.016 210.6093 363 215.1333 C360.1765 219.3686 357.9903 221.6145 353 223.1333 C337.8198 227.7534 334.8783 227.6225 317 229.1333 C299.8597 230.5818 297.1486 231.3425 282 229.1333 C275.9316 228.2483 269 222.1333 269 222.1333 "/>
<path id="1" d="M357 195.1333 C357 195.1333 368.495 192.2444 375 187.1333 C380.6249 182.7138 381.1236 180.3693 385 173.1333 C388.34 166.8987 388.5845 165.9275 390 159.1333 C390.941 154.6164 391.2048 152.9484 390 149.1333 C388.6874 144.9769 386.3537 142.2516 384 140.1333 C383.3323 139.5324 380 140.1333 380 140.1333 "/>
<path id="2" d="M247 195.1333 C247 195.1333 238.1407 192.5276 237 191.1333 C236.4211 190.4258 236.8149 186.306 238 184.1333 C239.0566 182.1962 240.7683 180.6584 243 180.1333 C247.5077 179.0727 251.9035 179.1012 255 180.1333 C256.2042 180.5347 257.8621 183.2027 258 185.1333 C258.2342 188.4128 256 194.1333 256 194.1333 "/>
<path id="3" d="M239 208.1333 L230 202.1333 "/>
<path id="4" d="M239 208.1333 L232 199.1333 "/>
<path id="5" d="M240 209.1333 L231 209.1333 "/>
<path id="6" d="M242 209.1333 L252 216.1333 "/>
<path id="7" d="M242 211.1333 L254 207.1333 "/>
<path id="8" d="M246 211.1333 L248 207.1333 "/>
<path id="9" d="M259 201.1333 L258 205.1333 "/>
<path id="10" d="M241 210.1333 L242 202.1333 "/>
<path id="11" d="M259 193.1333 C259 193.1333 257.9815 184.7885 259 183.1333 C259.807 181.822 263.6796 180.3547 267 180.1333 C269.7805 179.948 273.2791 181.052 274 182.1333 C275.1534 183.8634 275.4302 189.552 275 192.1333 C274.8906 192.7896 272 194.1333 272 194.1333 "/>
<path id="12" d="M290 233.1333 L283 239.1333 "/>
<path id="13" d="M303 233.1333 L300 242.1333 "/>
<path id="14" d="M335 230.1333 C335 230.1333 336.8456 229.0175 337 229.1333 C338.3895 230.1755 343 236.1333 343 236.1333 "/>
<path id="15" d="M348 226.1333 C348 226.1333 354.5737 230.0886 361 232.1333 C365.0164 233.4113 370 233.1333 370 233.1333 "/>
<path id="16" d="M382 142.1333 C382 142.1333 377.8378 141.505 377 142.1333 C375.7433 143.0758 374.8519 145.2935 374 148.1333 C373.5061 149.7796 373.4576 151.3739 374 152.1333 C374.8911 153.3809 379 155.1333 379 155.1333 "/>
</g>
</g>
</svg>
