<?xml version="1.0" encoding="utf-8"?>
<!DOCTYPE svg PUBLIC "-//W3C//DTD SVG 1.1//EN" "http://www.w3.org/Graphics/SVG/1.1/DTD/svg11.dtd">
<svg viewBox="0 0 800 800" preserveAspectRatio="xMinYMin meet" xmlns="http://www.w3.org/2000/svg" version="1.1">
<g fill="none" stroke="black" stroke-linecap="round" stroke-linejoin="round" stroke-width="2.1313">
<g transform="translate(87.52,184.6422) scale(1.4076) translate(-169,-126.1167)">
<path id="0" d="M170 225.1167 C170 225.1167 185.6439 214.7882 197 203.1167 C202.589 197.3724 200.7018 194.6375 206 188.1167 C213.3166 179.1117 213.7411 178.0609 223 171.1167 C237.0829 160.5545 237.9621 159.8149 254 152.1167 C274.8509 142.1082 275.8483 142.2926 298 135.1167 C310.9507 130.9214 311.4663 131.8849 325 129.1167 C333.445 127.3893 333.5781 126.5114 342 126.1167 C365.093 125.0342 366.2191 123.6599 389 126.1167 C416.2335 129.0536 417.8177 129.289 444 137.1167 C465.283 143.4796 466.9651 144.0965 486 155.1167 C503.8118 165.4288 506.8241 166.4036 520 181.1167 C535.0049 197.8721 532.2932 202.4352 546 222.1167 C551.5779 230.126 551.7509 232.445 559 237.1167 C572.1195 245.5714 580.5199 242.1337 591 251.1167 C600.7656 259.4872 600.7776 265.0158 608 279.1167 C610.9609 284.8976 611.0231 285.6691 612 292.1167 C613.4469 301.666 613.3046 302.3706 613 312.1167 C612.816 318.004 612.7457 318.6302 611 324.1167 C609.3987 329.1492 609.3564 330.2808 606 334.1167 C596.1644 345.3573 595.2553 346.8627 583 356.1167 C571.4519 364.8367 570.5042 365.1589 557 371.1167 C520.0551 387.4159 519.4058 387.864 481 401.1167 C448.73 412.2521 448.2178 412.1955 415 420.1167 C383.5103 427.6258 351 432.1167 351 432.1167 "/>
<path id="1" d="M169 226.1167 C169 226.1167 196.7216 230.476 219 230.1167 C224.3897 230.0297 225.2241 226.1481 231 225.1167 C238.1679 223.8367 241.439 222.5348 247 225.1167 C265.0981 233.5194 266.49 240.1395 287 251.1167 C301.2359 258.7359 302.3858 259.1016 318 263.1167 C336.5721 267.8924 337.6167 267.3546 357 269.1167 C370.2341 270.3198 370.9081 270.4002 384 269.1167 C395.8749 267.9525 397.0071 268.1881 408 264.1167 C423.1192 258.517 422.8385 254.5131 438 249.1167 C451.3581 244.3621 453.2869 247.7391 467 243.1167 C497.0983 232.9712 511.9447 220.9233 527 219.1167 C530.1605 218.7374 533.9374 227.4185 542 234.1167 C566.1924 254.215 572.0438 252.8386 592 273.1167 C600.1017 281.3491 600.488 285.3264 604 297.1167 C607.0053 307.2058 606.3344 309.7517 606 320.1167 C605.882 323.7757 605.1403 324.7534 603 328.1167 C598.4642 335.2444 598.3392 336.7784 592 342.1167 C580.2731 351.9919 579.2058 353.0138 565 360.1167 C521.0014 382.1159 519.9329 382.3553 474 401.1167 C449.2983 411.2061 423 418.1167 423 418.1167 "/>
<path id="2" d="M278 247.1167 C278 247.1167 262.9525 254.985 258 261.1167 C255.8965 263.7211 256.5432 269.9192 257 273.1167 C257.0936 273.7716 259.9926 275.1439 260 275.1167 C260.0818 274.8168 258.7496 266.8683 260 262.1167 C260.7037 259.4427 262.1955 258.3202 265 256.1167 C268.7324 253.1841 269.7688 252.3611 274 251.1167 C277.2328 250.1658 282 251.1167 282 251.1167 "/>
<path id="3" d="M284 251.1167 C284 251.1167 284.3584 255.1863 283 257.1167 C276.1779 266.8112 270.2582 268.1261 265 278.1167 C261.8851 284.0351 262.9946 295.1224 263 295.1167 C263.0145 295.1012 271.3721 275.2146 281 261.1167 C283.8762 256.9051 286.4931 256.2199 291 254.1167 C292.6986 253.324 296 254.1167 296 254.1167 "/>
<path id="4" d="M462 248.1167 C462 248.1167 455.7335 249.961 451 253.1167 C445.7161 256.6392 443.806 257.6739 441 262.1167 C438.9365 265.3838 439 272.1166 439 272.1167 C439 272.1167 439.5485 266.3036 442 263.1167 C448.5206 254.6398 450.3963 252.1393 459 246.1167 C463.7038 242.824 470.0635 241.661 472 242.1167 C472.9446 242.3389 476.0353 250.0932 476 250.1167 C475.5769 250.3987 465.5577 247.7766 460 250.1167 C450.018 254.3196 438.0036 266.1144 438 266.1167 C437.9992 266.1172 439.6359 262.6419 442 261.1167 C453.9998 253.3749 468.3089 246.0635 469 246.1167 C469.0082 246.1173 467.9919 263.1006 468 263.1167 C468.0032 263.123 469.7649 257.3518 473 254.1167 C480.8568 246.2599 492 239.1167 492 239.1167 "/>
<path id="5" d="M178 223.1167 C178 223.1167 193 224.1167 193 224.1167 C193 224.1167 179 222.1167 179 222.1167 "/>
<path id="6" d="M210 205.1167 C210 205.1167 213.75 204.8667 214 205.1167 C214.25 205.3667 214.2 208.7167 214 209.1167 C213.95 209.2167 212.0345 209.2029 212 209.1167 C211.7845 208.5779 211.5602 204.6444 212 204.1167 C212.4544 203.5714 216.966 203.0714 217 203.1167 C217.0432 203.1743 215.7569 207.1706 215 208.1167 C214.8165 208.346 213.05 208.2167 213 208.1167 C212.8 207.7167 213 204.1167 213 204.1167 C213 204.1167 213.3118 206.7009 213 207.1167 C212.6622 207.5671 210.0584 208.1751 210 208.1167 C209.8831 207.9998 209.6234 204.5874 210 204.1167 C210.3954 203.6224 214 203.1141 214 203.1167 C214 203.1268 210.0515 207.0909 210 207.1167 C209.9914 207.121 209.925 205.1417 210 205.1167 C210.675 204.8917 216 205.1167 216 205.1167 "/>
</g>
</g>
</svg>
