<?xml version="1.0" encoding="utf-8"?>
<!DOCTYPE svg PUBLIC "-//W3C//DTD SVG 1.1//EN" "http://www.w3.org/Graphics/SVG/1.1/DTD/svg11.dtd">
<svg viewBox="0 0 800 800" preserveAspectRatio="xMinYMin meet" xmlns="http://www.w3.org/2000/svg" version="1.1">
<g fill="none" stroke="black" stroke-linecap="round" stroke-linejoin="round" stroke-width="1.4785">
<g transform="translate(87.52,282.3127) scale(2.0291) translate(-144,-190)">
<path id="0" d="M201 301 C201 301 226.0196 303.5888 251 304 C347.3376 305.5858 444 305 444 305 "/>
<path id="1" d="M445 306 C445 306 445.1762 302.3523 444 300 C441.5572 295.1144 440.8455 294.6695 437 290 C426.9271 277.7686 427.0495 277.3126 416 266 C406.1917 255.9582 406.3373 254.5582 395 247 C375.693 234.1286 374.1641 231.9047 353 224 C334.5979 217.1269 332.1351 217.2455 312 216 C284.8864 214.3229 283.2367 215.1161 256 218 C241.5893 219.5258 236.8107 219.6041 227 225 C221.251 228.162 218.7396 232.4661 216 240 C211.5564 252.22 214.8928 255.3751 211 269 C208.1124 279.1067 204.5299 279.4425 202 289 C200.4176 294.9781 202.8624 299.5504 202 303 C201.8152 303.7392 198 305 198 305 "/>
<path id="2" d="M202 299 C202 299 198.859 299.7436 197 299 C192.3897 297.1559 190.3991 296.3991 187 293 C184.4507 290.4507 183.5588 288.7719 183 285 C181.7644 276.6595 183.9961 274.6325 183 266 C182.6149 262.6623 182.2039 261.5565 180 259 C170.5819 248.0751 163.9759 247.5176 158 237 C153.894 229.7735 158.2977 224.4221 155 215 C151.874 206.0685 147.6148 205.2154 144 197 C142.8921 194.4821 143.7689 190.809 144 190 C144.0189 189.934 146 190 146 190 "/>
<path id="3" d="M403 256 C403 256 400.9568 260.9424 401 261 C401.034 261.0453 405.9582 260.1045 406 260 C406.039 259.9025 403 256 403 256 "/>
<path id="4" d="M444 299 C444 299 441.2675 299.5541 441 300 C440.6178 300.6369 440.7846 303.8769 441 304 C441.6596 304.3769 446.9193 304.5404 448 304 C448.4632 303.7684 449.0574 300.0287 449 300 C448.4836 299.7418 441.7881 299.4636 440 300 C439.6225 300.1132 438.9901 302.9973 439 303 C439.6528 303.178 448.8844 303.6509 451 303 C451.3933 302.879 452.0215 299.0072 452 299 C451.1609 298.7203 441.1683 297.9881 439 299 C438.1216 299.4099 436.984 305.9942 437 306 C437.3502 306.1274 450 303 450 303 "/>
<path id="5" d="M406 257 C406 257 405.0805 261.9885 405 262 C404.745 262.0364 400.1156 259.6734 399 258 C398.3028 256.9541 398.7044 253.2111 399 253 C399.5794 252.5861 406 253 406 253 "/>
<path id="6" d="M369 236 C369 236 370.2259 223.8398 370 220 C369.9842 219.7308 368.923 219.0615 368 219 C362.1939 218.6129 359.4872 217.9442 355 219 C353.2945 219.4013 351.7034 221.2414 351 223 C350.2463 224.8842 351 229 351 229 "/>
</g>
</g>
</svg>
