<?xml version="1.0" encoding="utf-8"?>
<!DOCTYPE svg PUBLIC "-//W3C//DTD SVG 1.1//EN" "http://www.w3.org/Graphics/SVG/1.1/DTD/svg11.dtd">
<svg viewBox="0 0 800 800" preserveAspectRatio="xMinYMin meet" xmlns="http://www.w3.org/2000/svg" version="1.1">
<g fill="none" stroke="black" stroke-linecap="round" stroke-linejoin="round" stroke-width="1.3537">
<g transform="translate(87.52,208.3013) scale(2.2162) translate(-139,-111)">
<path id="0" d="M335 128 C335 128 333.3267 123.5711 334 122 C335.3294 118.8982 337.3187 116.5309 341 114 C344.258 111.7601 345.6328 111.4094 350 111 C360.8223 109.9854 362.3206 109.9665 373 111 C376.8494 111.3725 378.9364 111.73 381 114 C387.0082 120.609 387.0941 128.0027 393 133 C396.4788 135.9436 407 136 407 136 "/>
<path id="1" d="M372 111 C372 111 379.3309 111.4084 385 114 C396.0227 119.0389 396.1582 122.2168 407 127 C412.0358 129.2217 417.4654 127.4654 419 129 C420.5346 130.5346 421.4833 136.4086 421 141 C420.6958 143.8902 419.5214 145.7752 417 148 C412.0301 152.3852 409.3557 155.1362 404 156 C397.4354 157.0588 394.9373 153.6094 386 153 C373.2356 152.1297 371.443 151.4107 360 153 C355.2932 153.6537 354.7255 156.5233 350 158 C347.5478 158.7663 345.333 158.7998 344 158 C342.3116 156.987 340 152 340 152 "/>
<path id="2" d="M377 126 C377 126 375.6699 130.2298 376 131 C376.2682 131.6258 379.0333 133.1208 380 133 C381.1278 132.859 383.36 131.28 384 130 C384.64 128.72 384.4936 126.9744 384 125 C383.6545 123.6179 382.4664 122.0583 382 122 C380.8709 121.8589 376 124 376 124 "/>
<path id="3" d="M332 126 C332 126 323.487 118.8436 316 118 C291.6359 115.2548 283.1661 115.3132 261 118 C256.176 118.5847 254.9483 125.0345 250 126 C238.1817 128.306 232.0492 123.0492 220 126 C211.1885 128.1579 209.8184 135.7485 201 138 C189.8091 140.8572 186.1995 136.5001 173 138 C165.1896 138.8875 163.1843 139.7606 157 143 C154.2953 144.4167 153.6128 145.7744 152 149 C147.9206 157.1588 145.2093 161.3501 145 167 C144.8994 169.7161 147.5633 172.3178 151 176 C154.1699 179.3963 156.9598 178.847 159 182 C161.3623 185.6508 162 188.2352 162 193 C162 197.7648 159 204 159 204 "/>
<path id="4" d="M341 154 C341 154 342.0823 176.2311 339 188 C338.0753 191.5307 330 196 330 196 "/>
<path id="5" d="M323 198 C323 198 322.8397 226.7139 328 248 C329.8809 255.7587 335.4236 260.8444 339 264 C339.7287 264.643 342.744 264.128 345 263 C347.9502 261.5249 350.9961 257.9948 351 258 C351.101 258.1346 352.2504 266.2483 351 271 C350.2963 273.674 348.3886 275.7138 346 277 C343.5221 278.3342 340.3809 278.9259 338 278 C333.8986 276.405 330.5217 274.539 328 270 C319.5669 254.8204 318.402 250.6466 313 233 C311.4414 227.9086 312.0358 226.5924 313 221 C314.4352 212.6756 318 204 318 204 "/>
<path id="6" d="M317 203 C317 203 313.0653 211.2463 308 218 C304.332 222.8906 303.7075 224.2183 299 227 C293.9487 229.9848 292.2503 230.7596 286 231 C255.1325 232.1872 247.6554 234.4426 221 230 C212.3421 228.557 208.7936 223.4848 202 217 C199.6994 214.804 199 208.999 199 209 C199.0002 209.0046 199.9976 228.361 203 246 C203.851 250.9999 204.4344 251.5101 207 256 C210.2518 261.6906 210.4414 262.2591 215 267 C222.6446 274.9503 223.879 278.0555 232 282 C238.3439 285.0813 245.7265 285.2464 250 284 C252.1163 283.3828 255.8802 276.6776 256 275 C256.059 274.1739 252.9781 270.4945 251 270 C247.5977 269.1494 243.8748 272.2399 240 271 C233.8758 269.0403 231.142 266.8564 226 262 C223.3592 259.5059 222.7225 257.793 222 254 C220.9281 248.3723 223.9047 245.7617 222 241 C217.9563 230.8906 208 219 208 219 "/>
<path id="7" d="M203 212 C203 212 195.2927 213.0263 192 211 C185.1312 206.773 183.5202 199.4929 177 196 C173.3204 194.0288 166.2289 194.475 164 196 C161.4463 197.7473 159.3893 203.1649 158 209 C157.2526 212.139 157.8041 214.1298 159 217 C159.8052 218.9324 163.0006 221.0021 163 221 C162.9981 220.9929 159.9637 213.1347 156 206 C152.5492 199.7886 150.0776 199.7712 148 194 C146.1346 188.8183 148.8121 186.4363 147 181 C144.7349 174.2046 140.8708 173.1471 139 167 C138.0101 163.7476 138.8874 158.9536 140 158 C141.9881 156.296 153 155 153 155 "/>
<path id="8" d="M187 138 C187 138 184.7138 153.8312 185 169 C185.2039 179.8058 184.7255 181.9321 188 191 C190.4983 197.9183 193.4769 201.916 198 205 C200.9348 207.001 210 206 210 206 "/>
<path id="9" d="M216 128 C216 128 215.0324 159.2738 217 188 C217.4348 194.3479 217.9996 195.2993 221 201 C227.6385 213.6131 229.023 215.3641 237 226 C238.4553 227.9403 240.0693 228.8621 242 229 C245.2795 229.2342 251 227 251 227 "/>
<path id="10" d="M242 128 C242 128 239.6822 148.9423 242 168 C244.0336 184.7206 245.0614 186.3721 251 202 C254.1423 210.2692 255.4017 211.2232 261 218 C264.3309 222.0321 265.4697 222.7349 270 225 C273.6242 226.8121 276.6662 227.6223 279 227 C281.0949 226.4414 285 221 285 221 "/>
<path id="11" d="M270 118 C270 118 268.875 123.9375 270 129 C275.6364 154.3637 274.6326 156.8719 284 181 C290.5852 197.9618 292.9036 198.6685 303 214 C305.9434 218.4696 309.2959 221.0705 311 222 C311.2631 222.1435 313.8906 220.6563 314 220 C314.4302 217.4186 313 210 313 210 "/>
<path id="12" d="M305 121 C305 121 303.0484 123.6788 303 126 C302.5878 145.7878 301.0708 150.1229 304 169 C305.1024 176.1044 307.2814 177.2591 312 184 C317.5204 191.8862 323.6405 198.2003 325 199 C325.066 199.0388 329 194 329 194 "/>
<path id="13" d="M324 123 C324 123 332.7722 183.7572 333 185 C333.0058 185.0319 335 183 335 183 "/>
<path id="14" d="M398 146 L400 150 "/>
<path id="15" d="M405 150 C405 150 405.9036 145.6395 407 145 C409.4901 143.5475 417 143 417 143 "/>
<path id="16" d="M406 146 L406 155 "/>
<path id="17" d="M356 151 C356 151 356.5047 156.2915 355 159 C352.3618 163.7487 346 169 346 169 "/>
</g>
</g>
</svg>
