<?xml version="1.0" encoding="utf-8"?>
<!DOCTYPE svg PUBLIC "-//W3C//DTD SVG 1.1//EN" "http://www.w3.org/Graphics/SVG/1.1/DTD/svg11.dtd">
<svg viewBox="0 0 800 800" preserveAspectRatio="xMinYMin meet" xmlns="http://www.w3.org/2000/svg" version="1.1">
<g fill="none" stroke="black" stroke-linecap="round" stroke-linejoin="round" stroke-width="2.3762">
<g transform="translate(87.52,208.7244) scale(1.2625) translate(-145.5,-158.6667)">
<path id="0" d="M150.5 253.6667 C150.5 253.6667 154.1942 244.2032 159.5 238.6667 C164.5345 233.4133 167.7639 234.3905 173.5 229.6667 C175.4068 228.0964 174.6953 226.1433 176.5 224.6667 C179.369 222.3193 180.9848 223.1776 184.5 220.6667 C194.6757 213.3983 195.3527 213.2042 204.5 204.6667 C210.0512 199.4855 209.0345 197.6116 214.5 192.6667 C219.0421 188.5572 220.42 187.5382 225.5 185.6667 C228.4929 184.564 232.2108 185.0937 233.5 185.6667 C233.9477 185.8656 234.0524 189.4677 234.5 189.6667 C235.7892 190.2397 238.9627 188.8245 242.5 189.6667 C248.7745 191.1606 249.9801 191.6 255.5 194.6667 C258.2211 196.1784 258.3014 198.7506 260.5 199.6667 C262.6727 200.572 265.569 198.8943 267.5 199.6667 C268.769 200.1743 268.7526 202.5746 270.5 203.6667 C275.8216 206.9927 278.5681 205.6832 283.5 209.6667 C290.4409 215.2728 289.6426 218.4326 296.5 224.6667 C299.9872 227.8369 301.364 229.3682 305.5 229.6667 C344.4454 232.4772 351.5849 227.2366 393.5 231.6667 C410.6833 233.4828 411.395 240.2231 428.5 242.6667 C448.1441 245.473 450.524 244.1195 470.5 242.6667 C476.8214 242.2069 478.5533 242.0676 483.5 238.6667 C500.7547 226.804 502.194 218.5348 518.5 209.6667 C525.9149 205.634 530.1107 206.974 540.5 207.6667 C551.5861 208.4057 554.5119 208.4223 563.5 212.6667 C570.1156 215.7907 570.3848 220.2501 576.5 224.6667 C578.115 225.8331 580.4083 224.4621 581.5 225.6667 C603.4137 249.8473 610.1625 257.3166 634.5 288.6667 C638.6265 293.9821 640.5 301.6667 640.5 301.6667 "/>
<path id="1" d="M151.5 255.6667 C151.5 255.6667 145.9426 255.2978 145.5 255.6667 C145.1926 255.9228 145.5 260.6667 145.5 260.6667 "/>
<path id="2" d="M148.5 256.6667 C148.5 256.6667 145.0296 270.8826 145.5 271.6667 C145.7566 272.0943 152.2622 272.5396 157.5 271.6667 C160.3371 271.1938 163.5001 268.6665 163.5 268.6667 C163.4998 268.6669 157.2989 272.1932 155.5 274.6667 C154.7389 275.7132 155.3707 279.6343 155.5 279.6667 C157.129 280.0739 165.924 280.9384 171.5 278.6667 C176.6229 276.5796 176.6614 271.1853 182.5 268.6667 C199.7242 261.2366 203.4677 258.9205 222.5 256.6667 C238.8782 254.7271 244.1191 256.6567 258.5 259.6667 C261.7414 260.3451 264.4586 262.9331 265.5 265.6667 C267.3481 270.518 264.3865 276.2475 266.5 280.6667 C268.2454 284.3162 271.2944 285.3789 276.5 288.6667 C280.4861 291.1842 281.1052 291.9089 285.5 292.6667 C294.6493 294.2441 296.8449 291.5685 305.5 293.6667 C311.784 295.1901 313.0799 297.0533 318.5 300.6667 C319.7272 301.4848 320.4462 302.3753 320.5 303.6667 C321.2853 322.5137 322.9622 334.4408 320.5 348.6667 C320.0318 351.372 313.4661 352.0369 311.5 355.6667 C308.3266 361.5252 308.2037 364.2217 307.5 372.6667 C305.2602 399.5444 305.5 427.6667 305.5 427.6667 "/>
<path id="3" d="M333.5 426.6667 C333.5 426.6667 336.1461 409.9054 340.5 394.6667 C341.9635 389.5444 345.0849 389.3159 345.5 384.6667 C347.3279 364.194 344.3743 361.4626 345.5 338.6667 C346.3614 321.2241 347.0842 308.1168 349.5 303.6667 C350.0292 302.6918 358.4271 302.5099 364.5 303.6667 C367.2376 304.1881 368.97 305.6996 370.5 307.6667 C371.52 308.9781 370.3823 311.0522 371.5 312.6667 C374.1583 316.5064 376.3672 316.2025 379.5 320.6667 C395.9431 344.098 397.9705 362.6883 411.5 369.6667 C426.3821 377.3427 451.6386 373.77 474.5 369.6667 C480.855 368.526 481.5891 361.3952 489.5 355.6667 C495.501 351.3211 497.7366 353.1286 503.5 348.6667 C512.4514 341.7365 514.2835 339.8462 520.5 331.6667 C522.478 329.0641 520.5712 325.9358 522.5 323.6667 C527.4213 317.8769 531.7076 317.7809 537.5 311.6667 C539.6751 309.3708 538.7515 306.6338 540.5 304.6667 C541.6657 303.3553 544.1746 304.213 545.5 302.6667 C554.4163 292.2643 564.5 276.6667 564.5 276.6667 "/>
<path id="4" d="M536.5 318.6667 C536.5 318.6667 535.5399 341.2171 539.5 357.6667 C541.2354 364.8753 548.5113 366.1166 549.5 372.6667 C551.7576 387.6233 547.5 410.6667 547.5 410.6667 "/>
<path id="5" d="M575.5 303.6667 C575.5 303.6667 577.3151 337.2865 576.5 368.6667 C576.3485 374.4999 573.6279 374.9123 573.5 380.6667 C573.1508 396.3825 575.5 413.6667 575.5 413.6667 "/>
<path id="6" d="M575.5 305.6667 L576.5 270.6667 "/>
<path id="7" d="M578.5 270.6667 C578.5 270.6667 581.4038 263.0092 582.5 262.6667 C584.3656 262.0837 590.701 265.8901 594.5 265.6667 C596.1822 265.5677 599.4929 261.6565 599.5 261.6667 C599.7189 261.9794 600.3116 274.0029 601.5 275.6667 C601.9402 276.2829 606.9613 274.6903 609.5 275.6667 C611.6969 276.5116 613.0073 277.8945 614.5 280.6667 C619.5156 289.9813 620.8378 291.26 623.5 301.6667 C626.0718 311.7202 623.1889 313.3953 625.5 323.6667 C627.5151 332.6227 630.5976 332.9699 632.5 341.6667 C633.8636 347.9005 632.5 355.6667 632.5 355.6667 "/>
<path id="8" d="M630.5 354.6667 C630.5 354.6667 635.0129 351.2591 637.5 347.6667 C639.0504 345.4272 639.3913 344.5464 639.5 341.6667 C640.3407 319.3889 639.5 294.6667 639.5 294.6667 "/>
<path id="9" d="M224.5 224.6667 C224.5 224.6667 221.7166 225.2336 221.5 225.6667 C221.0669 226.5329 220.7996 229.406 221.5 230.6667 C222.4494 232.3756 224.2435 233.9724 226.5 234.6667 C229.3972 235.5581 234.1098 235.1545 234.5 234.6667 C235.1098 233.9045 235.2376 225.8258 234.5 224.6667 C234.0977 224.0344 228.6261 223.1036 227.5 223.6667 C226.4605 224.1864 224.5 229.6667 224.5 229.6667 "/>
<path id="10" d="M212.5 208.6667 C212.5 208.6667 211.7307 190.8705 215.5 182.6667 C217.9 177.4431 224.7953 177.4169 229.5 171.6667 C232.4904 168.0117 231.3327 162.4276 233.5 160.6667 C235.7824 158.8122 245.3481 158.3905 245.5 158.6667 C246.2084 159.9546 247.4581 171.6074 244.5 180.6667 C240.2737 193.6096 237.4611 195.1564 229.5 207.6667 C227.3612 211.0276 226.4146 211.9665 223.5 213.6667 C221.4802 214.8449 217.7792 215.0079 217.5 214.6667 C216.4676 213.4049 214.5 202.6667 214.5 202.6667 "/>
<path id="11" d="M221.5 202.6667 L239.5 177.6667 "/>
<path id="12" d="M257.5 194.6667 C257.5 194.6667 256.6901 190.6975 257.5 189.6667 C260.3578 186.0294 263.7565 183.5128 268.5 180.6667 C269.657 179.9725 272.3225 180.3827 272.5 180.6667 C273.1122 181.6462 274.4357 185.8596 273.5 188.6667 C271.1811 195.6233 264.5 204.6667 264.5 204.6667 C264.5 204.6667 265.3632 202.2351 266.5 201.6667 C271.8593 198.987 273.557 198.1544 280.5 196.6667 C287.0481 195.2635 294.4772 195.5799 294.5 195.6667 C294.6499 196.2363 285.5053 215.64 285.5 215.6667 C285.4985 215.6743 288.2365 212.2984 291.5 210.6667 C305.5137 203.6598 306.2957 203.2683 321.5 197.6667 C334.5882 192.8447 347.7007 189.4668 348.5 189.6667 C348.516 189.6707 348.5036 198.6607 345.5 203.6667 C340.7475 211.5875 338.4661 212.5541 330.5 219.6667 C324.778 224.7756 317.5001 228.6665 317.5 228.6667 C317.4999 228.6667 321.5 225.4 325.5 224.6667 C349.9046 220.1925 376.7703 217.4047 377.5 217.6667 C377.5805 217.6956 364.4505 238.6246 364.5 238.6667 C364.8023 238.9236 381.5251 237.662 397.5 234.6667 C405.0437 233.2522 405.1882 230.7745 412.5 229.6667 C420.8523 228.4012 430.5 229.6667 430.5 229.6667 "/>
<path id="13" d="M294.5 219.6667 C294.5 219.6667 313.5372 212.426 314.5 212.6667 C314.6583 212.7062 315.5606 220.159 314.5 224.6667 C313.9749 226.8984 310.5 229.6667 310.5 229.6667 "/>
<path id="14" d="M305.5 431.6667 C305.5 431.6667 305.8113 436.0932 304.5 437.6667 C299.9586 443.1164 295.6651 444.1572 290.5 449.6667 C289.485 450.7494 289.4714 453.6628 289.5 453.6667 C290.9366 453.8626 301.5061 453.804 312.5 452.6667 C315.4536 452.3611 317.22 451.9467 318.5 450.6667 C319.78 449.3867 320.4999 444.6658 320.5 444.6667 C320.5002 444.6691 318.674 460.3901 319.5 461.6667 C319.8922 462.2728 325.8732 462.6045 331.5 461.6667 C340.331 460.1948 346.2058 458.3138 349.5 456.6667 C349.8214 456.506 349.9198 452.9932 349.5 452.6667 C347.9708 451.4773 344.0082 451.8593 340.5 449.6667 C336.8305 447.3732 335.03 445.7266 333.5 442.6667 C332.48 440.6267 332.5195 437.9546 333.5 435.6667 C334.8407 432.5383 339.5 428.6667 339.5 428.6667 "/>
<path id="15" d="M547.5 410.6667 C547.5 410.6667 546.4088 418.8186 543.5 423.6667 C541.2712 427.3814 537.6991 427.1482 535.5 430.6667 C533.6216 433.672 533.2947 439.5347 533.5 439.6667 C534.3678 440.2245 543.5539 441.018 549.5 439.6667 C552.1521 439.0639 554.3305 436.8107 555.5 434.6667 C556.3482 433.1117 555.4994 428.6658 555.5 428.6667 C555.5013 428.6684 556.6789 436.4814 558.5 438.6667 C559.6412 440.0361 562.6941 440.6667 565.5 440.6667 C567.5042 440.6667 569.0227 439.9329 570.5 438.6667 C571.6944 437.6429 572.2308 436.5508 572.5 434.6667 C573.128 430.2703 571.7891 427.5103 572.5 424.6667 C572.6955 423.8847 575.2588 423.4705 575.5 422.6667 C576.1653 420.4492 574.744 417.9425 575.5 414.6667 C576.0379 412.3358 578.5 409.6667 578.5 409.6667 "/>
<path id="16" d="M151.5 248.6667 C151.5 248.6667 150.8237 242.5222 152.5 238.6667 C155.217 232.4175 161.4526 225.6825 161.5 225.6667 C161.5119 225.6627 161.4583 235.6783 161.5 235.6667 C161.833 235.5742 179.1863 220.8758 179.5 220.6667 C179.5224 220.6517 179.5 223.6668 179.5 223.6667 C179.5002 223.6658 181.0152 214.1211 182.5 209.6667 C182.665 209.1717 184.4974 208.6601 184.5 208.6667 C184.579 208.8642 184.5 214.6667 184.5 214.6667 C184.5 214.6667 183.8669 211.2998 184.5 210.6667 C188.6152 206.5515 199.4613 199.6512 199.5 199.6667 C199.5036 199.6681 194.4982 214.6682 194.5 214.6667 C194.504 214.6634 211.1539 189.9946 211.5 189.6667 C211.5394 189.6293 213.5 196.6667 213.5 196.6667 "/>
<path id="17" d="M170.5 222.6667 C170.5 222.6667 170.887 218.2878 172.5 215.6667 C174.3994 212.5801 178.5 209.6667 178.5 209.6667 "/>
<path id="18" d="M310.5 271.6667 C310.5 271.6667 312.6427 266.1158 315.5 263.6667 C318.4951 261.0995 319.9179 260.8449 324.5 259.6667 C336.967 256.4609 340.7432 254.6667 350.5 254.6667 C353.5021 254.6667 355.8125 256.4548 358.5 259.6667 C374.958 279.336 389.1253 301.0281 391.5 303.6667 C391.5419 303.7132 392.6992 300.6534 394.5 299.6667 C425.6215 282.6138 461.9362 262.545 464.5 263.6667 C466.4406 264.5157 474.283 334.2588 474.5 334.6667 C474.5455 334.7523 480.5102 320.8824 489.5 310.6667 C512.6705 284.3365 518.3408 280.2431 540.5 259.6667 C541.8357 258.4264 545.3079 258.3978 545.5 258.6667 C546.8872 260.6088 550.475 273.6667 550.5 273.6667 C550.525 273.6667 551.8487 265.0565 555.5 258.6667 C561.3421 248.443 570.5 238.6667 570.5 238.6667 "/>
<path id="19" d="M628.5 290.6667 L629.5 321.6667 "/>
<path id="20" d="M628.5 300.6667 L628.5 318.6667 "/>
<path id="21" d="M611.5 276.6667 L620.5 279.6667 "/>
<path id="22" d="M627.5 297.6667 L634.5 318.6667 "/>
<path id="23" d="M266.5 241.6667 L315.5 288.6667 "/>
<path id="24" d="M334.5 348.6667 L327.5 377.6667 "/>
<path id="25" d="M316.5 385.6667 C316.5 385.6667 313.0604 393.0628 312.5 398.6667 C312.2156 401.5104 314.5 405.6667 314.5 405.6667 "/>
<path id="26" d="M336.5 407.6667 L330.5 421.6667 "/>
<path id="27" d="M423.5 323.6667 C423.5 323.6667 423.5918 328.9971 425.5 332.6667 C429.628 340.6051 430.8253 341.9279 436.5 348.6667 C438.1197 350.59 441.5 351.6667 441.5 351.6667 "/>
<path id="28" d="M561.5 328.6667 L561.5 343.6667 "/>
<path id="29" d="M549.5 381.6667 C549.5 381.6667 553.2021 394.7332 558.5 404.6667 C560.5455 408.5019 565.5 411.6667 565.5 411.6667 "/>
<path id="30" d="M565.5 372.6667 L565.5 376.6667 "/>
<path id="31" d="M530.5 230.6667 L529.5 232.6667 "/>
<path id="32" d="M509.5 242.6667 L505.5 249.6667 "/>
<path id="33" d="M249.5 202.6667 C249.5 202.6667 254.1709 210.9137 255.5 218.6667 C256.9829 227.3172 256.9829 229.0161 255.5 237.6667 C254.1709 245.4196 252.1463 249.5769 249.5 253.6667 C248.9363 254.5379 244.5 254.6667 244.5 254.6667 "/>
<path id="34" d="M277.5 224.6667 C277.5 224.6667 281.4494 235.1571 283.5 245.6667 C285.386 255.3322 285.5 265.6667 285.5 265.6667 "/>
<path id="35" d="M321.5 241.6667 L320.5 261.6667 "/>
<path id="36" d="M394.5 252.6667 C394.5 252.6667 398.1016 260.6756 399.5 268.6667 C401.5179 280.1975 401.5 292.6667 401.5 292.6667 "/>
<path id="37" d="M490.5 263.6667 L490.5 274.6667 "/>
<path id="38" d="M510.5 343.6667 C510.5 343.6667 511.5596 347.2437 513.5 348.6667 C524.9871 357.0906 540.2531 364.538 540.5 365.6667 C540.6145 366.1902 523.1878 373.8888 520.5 380.6667 C515.3205 393.7281 521.4623 407.2077 517.5 423.6667 C516.2849 428.7138 510.9791 429.0466 507.5 434.6667 C505.1003 438.5431 504.4783 444.665 504.5 444.6667 C504.6491 444.6781 519.9803 435.6667 520.5 435.6667 C520.5 435.6667 520.2618 443.5946 520.5 444.6667 C520.5118 444.7196 522.1979 444.9688 522.5 444.6667 C524.0107 443.156 525.7247 441.6708 526.5 438.6667 C529.3699 427.5457 527.294 423.9257 530.5 413.6667 C531.5839 410.1981 535.2017 410.0053 536.5 406.6667 C538.0843 402.5928 535.8489 400.0007 537.5 395.6667 C539.3376 390.843 542.341 390.5245 544.5 385.6667 C545.8906 382.5379 544.2115 380.4585 545.5 377.6667 C546.6128 375.2556 550.5 372.6667 550.5 372.6667 "/>
</g>
</g>
</svg>
