<?xml version="1.0" encoding="utf-8"?>
<!DOCTYPE svg PUBLIC "-//W3C//DTD SVG 1.1//EN" "http://www.w3.org/Graphics/SVG/1.1/DTD/svg11.dtd">
<svg viewBox="0 0 800 800" preserveAspectRatio="xMinYMin meet" xmlns="http://www.w3.org/2000/svg" version="1.1">
<g fill="none" stroke="black" stroke-linecap="round" stroke-linejoin="round" stroke-width="2.1841">
<g transform="translate(87.52,157.5705) scale(1.3735) translate(-39,-76)">
<path id="0" d="M142 114 C142 114 136.1116 101.5623 128 93 C119.0411 83.5433 106.3046 76.1015 106 76 C105.9523 75.9841 105.4626 81.5928 107 86 C112.628 102.1335 121.4528 118.195 121 119 C120.6936 119.5447 104.0059 117.6051 89 118 C86.1594 118.0748 85.5546 118.4672 83 120 C71.0785 127.1529 68.8783 126.8816 59 136 C50.4741 143.87 51.5874 147.2745 44 156 C42.3128 157.9403 39.6308 157.7385 39 159 C38.1972 160.6056 37.9701 163.793 39 166 C40.6577 169.5522 42.0488 171.0366 46 174 C53.4465 179.5849 54.4431 181.0051 63 184 C73.1848 187.5647 75.0406 188.1768 86 188 C104.6742 187.6988 106.7925 187.3204 125 183 C135.0291 180.6202 145 174 145 174 "/>
<path id="1" d="M150 116 C150 116 154.5196 115.063 158 116 C166.6507 118.329 168.7383 118.643 176 123 C179.8598 125.3159 179.1303 127.9903 183 131 C187.5851 134.5662 189.5946 133.1819 194 137 C203.8805 145.5631 203.0469 149.5351 213 157 C219.5135 161.8851 221.6731 162.7079 230 164 C249.0192 166.9513 251.2862 167.6778 271 166 C297.0008 163.7872 297.5952 158.6187 324 156 C357.3526 152.6923 358.6551 152.3601 392 154 C418.7113 155.3137 420.3962 156.6499 446 162 C452.5554 163.3698 453.3009 164.5172 459 168 C461.7546 169.6833 462.4816 170.3429 464 173 C466.0705 176.6234 467.1403 181.5792 467 182 C466.9649 182.1052 463.3354 182.9342 461 182 C447.5325 176.613 432.0052 168.0037 432 168 C431.9982 167.9987 438.5493 168.1831 444 170 C450.0245 172.0082 456 176 456 176 "/>
<path id="2" d="M421 167 C421 167 428.8633 166.6029 434 169 C442.3318 172.8882 445.2642 175.2642 451 181 C452.7801 182.7801 453 188 453 188 "/>
<path id="3" d="M416 168 C416 168 439.5717 176.3675 453 185 C456.202 187.0584 458 195 458 195 "/>
<path id="4" d="M398 169 C398 169 401.7099 168.0921 403 169 C412.1266 175.4224 413.4037 179.7859 425 188 C436.9779 196.4843 451 203 451 203 "/>
<path id="5" d="M396 174 C396 174 393.6855 172 392 172 C384.8365 172 382.1877 172.2886 375 174 C373.0611 174.4616 371.4578 175.741 371 177 C370.1778 179.261 371 185 371 185 "/>
<path id="6" d="M147 176 C147 176 153.4228 187.4028 156 199 C161.2116 222.4522 163 248 163 248 "/>
<path id="7" d="M178 211 C178 211 176.066 210.8398 176 211 C171.2882 222.4429 163.1363 236.6545 157 262 C152.0371 282.4991 153.7066 284.094 153 306 C152.2159 330.308 155.273 331.1313 154 355 C153.3169 367.8089 152.5779 368.9651 149 381 C147.3359 386.5973 142.7011 391.6264 143 392 C144.2824 393.603 158.0826 399.0631 165 401 C165.6884 401.1927 167.7897 399.8413 168 399 C169.0899 394.6405 167.6301 391.6783 169 385 C171.5494 372.5716 174.8672 372.3355 176 360 C179.2331 324.7951 174.5715 315.1138 178 287 C178.467 283.171 181.6221 280.9849 186 278 C191.6026 274.18 193.772 275.8467 200 272 C210.2938 265.6421 211.0376 264.9283 220 257 C223.5228 253.8837 224.3111 253.0111 226 249 C227.9 244.4875 227.3457 239.7993 228 238 C228.0406 237.8884 229.9884 238.0581 230 238 C230.5928 235.0358 232 218 232 218 "/>
<path id="8" d="M202 273 C202 273 207.2603 278.8476 213 281 C229.7067 287.265 231.3713 287.2324 250 291 C275.5963 296.1768 276.072 296.4908 302 299 C322.1908 300.954 343 300 343 300 "/>
<path id="9" d="M361 236 C361 236 363.2757 252.2848 363 268 C362.7839 280.3168 360 282.48 360 293 C360 295.5248 360.946 296.7674 363 299 C371.7693 308.5319 372.2867 311.4072 383 318 C396.5216 326.321 412.1276 326.281 415 331 C417.7032 335.441 413.8916 348.0963 411 364 C409.9946 369.5299 407.7505 369.5965 407 375 C405.3673 386.7552 409.2791 389.7771 406 400 C401.7094 413.3766 390.0024 427.9956 390 428 C389.9998 428.0004 391.345 425.9818 392 426 C403.481 426.3189 424.9348 429.213 426 429 C426.0702 428.986 422.5845 424.3836 422 420 C419.7765 403.3238 417.2212 400.1169 420 384 C424.2031 359.622 430.2186 358.5109 437 333 C440.5499 319.6455 443.5329 314.7938 441 305 C437.7205 292.3194 425.9299 289.5733 422 275 C415.2478 249.9605 421.9945 243.6363 417 216 C414.8483 204.0939 407 192 407 192 "/>
<path id="10" d="M426 172 C426 172 443.9648 183.4642 454 197 C463.676 210.0513 469 230 469 230 "/>
<path id="11" d="M438 171 C438 171 444.2606 170.9059 449 173 C464.7577 179.9627 472.8949 181.0636 481 190 C486.6969 196.2812 483.6159 203.8594 488 216 C489.8697 221.1778 492.9485 221.5837 494 226 C494.9902 230.1587 493 237 493 237 "/>
<path id="12" d="M451 179 L472 226 "/>
<path id="13" d="M188 128 C188 128 187.8724 126.047 188 126 C191.61 124.67 207 121 207 121 "/>
<path id="14" d="M191 130 L215 120 "/>
<path id="15" d="M197 137 C197 137 197.5763 133.0997 198 133 C205.4084 131.2569 231 129 231 129 "/>
<path id="16" d="M202 137 L226 132 "/>
<path id="17" d="M206 150 L227 141 "/>
<path id="18" d="M215 155 L234 146 "/>
<path id="19" d="M206 140 L227 133 "/>
<path id="20" d="M198 130 L213 123 "/>
<path id="21" d="M184 125 L192 111 "/>
<path id="22" d="M177 119 L180 108 "/>
<path id="23" d="M170 116 L177 106 "/>
<path id="24" d="M118 137 C118 137 115.2675 137.5541 115 138 C114.6178 138.6369 114.6234 141.5293 115 142 C115.3954 142.4942 118.6957 143.2609 119 143 C119.8715 142.253 122.0017 136.0011 122 136 C121.9973 135.9982 117.6853 139.0338 116 141 C115.6677 141.3877 115.9 142.95 116 143 C116.4 143.2 119.0351 143.5514 120 143 C121.2751 142.2714 123 139.6514 123 139 C123 138.5114 121.092 136.2427 120 136 C118.2792 135.6176 115.0873 136.2234 114 137 C113.3754 137.4461 113 141 113 141 "/>
<path id="25" d="M58 181 C58 181 79.2505 182.1382 94 179 C99.1434 177.9057 99.3979 173.6793 105 171 C110.0764 168.5722 117 168 117 168 "/>
<path id="26" d="M65 153 C65 153 68.043 150.1291 68 150 C67.8996 149.6988 63.3832 147 63 147 C62.9234 147 62 150 62 150 "/>
<path id="27" d="M114 126 L124 126 "/>
<path id="28" d="M212 285 C212 285 211.9293 291.4532 210 297 C200.175 325.247 187.7199 349.7283 188 354 C188.0288 354.4386 203.2287 356.8459 214 358 C214.7715 358.0827 216 357.2453 216 357 C216 347.4338 213.3517 336.8006 214 318 C214.3187 308.7579 215.0487 307.8539 218 299 C220.3707 291.8879 225 285 225 285 "/>
<path id="29" d="M331 304 C331 304 337.9233 314.5002 346 322 C351.2026 326.831 352.5087 327.2953 359 330 C363.7028 331.9595 370 331.7641 370 332 C370 338.1334 365.2954 362.5216 359 384 C358.1155 387.0176 353.0772 389.9614 353 390 C352.9871 390.0064 352.6169 387.4789 353 387 C353.6641 386.1699 355.4764 384.873 357 385 C365.0817 385.6735 372.9719 388.6164 377 389 C377.16 389.0152 378.0528 387.819 378 387 C377.2031 374.6475 373.9703 371.1281 375 358 C375.8072 347.7088 377.6725 345.6537 382 336 C383.6681 332.2789 388.1354 330.4221 388 329 C387.689 325.7344 380 315 380 315 "/>
<path id="30" d="M346 299 L359 300 "/>
<path id="31" d="M348 306 C348 306 344.9634 307.3484 344 309 C342.0581 312.329 341 318 341 318 "/>
<path id="32" d="M356 311 L350 322 "/>
<path id="33" d="M367 318 L361 329 "/>
<path id="34" d="M370 341 L364 359 "/>
<path id="35" d="M362 378 L361 383 "/>
<path id="36" d="M299 172 C299 172 293.1351 182.8109 289 194 C284.7215 205.5772 283.7927 213.2195 282 218 C281.9495 218.1347 280.1048 217.7966 280 218 C275.8573 226.0418 271.2075 235.6882 265 251 C264.3647 252.5672 264.3051 254.0525 265 255 C268.3122 259.5166 276.2309 264.476 276 266 C275.3957 269.9881 260 288 260 288 "/>
<path id="37" d="M316 160 C316 160 315.4437 171.3469 311 179 C298.6244 200.3136 293.7281 200.1758 280 222 C274.7213 230.3917 274.6298 231.5327 272 241 C269.8246 248.8316 269.4367 251.5225 270 258 C270.2125 260.4437 271.932 262.7274 274 264 C276.7505 265.6926 281.7825 265.0531 283 266 C283.4485 266.3489 283.8004 269.3991 283 271 C280.9989 275.0022 279.3015 277.2488 276 280 C274.6718 281.1068 272.7326 279.8862 271 281 C266.6575 283.7916 262 289 262 289 C261.9999 288.9999 266.7332 284.1518 269 279 C271.9046 272.3987 271.0837 267.4067 273 264 C273.4235 263.2471 278 262.9705 278 263 C278 263.4125 276.5633 271.3407 273 277 C268.7287 283.7839 261.0007 289.9994 261 290 C260.9998 290.0002 262.1217 286.3148 264 285 C270.7328 280.287 273.7218 281.1554 281 276 C284.944 273.2063 285.3901 271.9148 288 268 C288.9615 266.5577 289.2813 264.9846 289 264 C288.7079 262.9776 287.6624 262.1874 286 261 C280.8281 257.3058 280.5361 256.4912 275 254 C271.1267 252.257 267.1145 252.9907 266 252 C265.4485 251.5098 265.227 248.6 266 246 C270.4149 231.1497 270.0671 228.5644 277 215 C280.8114 207.5429 284.4367 208.5531 289 201 C298.507 185.2643 297.7673 180.8458 306 167 C307.1148 165.125 311.0028 163.993 311 164 C310.9875 164.0313 304.0864 172.8057 300 182 C296.3897 190.1231 294.9999 200.0002 295 200 C295.0003 199.9996 303.6231 182.88 310 166 C311.8898 160.9975 312.0024 155.0012 312 155 C311.999 154.9995 307.9744 159.2919 306 164 C301.725 174.1943 299 186 299 186 "/>
<path id="38" d="M333 163 C333 163 326.8649 182.5478 319 201 C313.9708 212.7992 313.0626 214.7278 307 224 C305.7678 225.8845 303.6442 225.1028 302 227 C297.7549 231.8982 294.303 238.6634 294 239 C293.9826 239.0193 292.818 237.392 293 237 C296.8515 228.7044 299.3125 222.0298 307 211 C309.8535 206.9059 312.2602 208.0168 316 204 C325.425 193.8769 327.5653 192.16 334 182 C335.6633 179.3738 333.6357 176.9235 335 174 C336.5792 170.6161 339.4525 170.095 341 167 C341.7737 165.4525 341.04 162.02 341 162 C340.96 161.98 337.9371 163.2507 337 165 C331.3708 175.5079 332.6163 178.62 326 190 C320.4914 199.4749 317.9399 198.9154 312 208 C309.8209 211.3327 310.2015 214.6268 309 216 C308.6042 216.4523 305.3743 215.5134 305 216 C302.8571 218.7857 301.2814 222.9162 299 229 C298.5512 230.1968 298.9955 232.0015 299 232 C299.0195 231.9935 301.2013 229.9969 302 228 C302.9831 225.5423 303 222 303 222 "/>
<path id="39" d="M333 165 L334 163 "/>
<path id="40" d="M313 249 C313 249 309.9616 264.7767 305 279 C302.6635 285.698 298.5827 291.2878 298 292 C297.9887 292.0138 296 290.5236 296 290 C296 288.4292 296.4026 286.1782 298 284 C301.3373 279.4491 304.0869 279.7858 307 275 C310.4293 269.3662 308.602 267.1589 312 261 C316.272 253.257 322.9999 246 323 246 C323.0001 246 317.872 253.2456 315 261 C308.0539 279.7545 303.0058 299.9928 303 300 C302.9971 300.0036 301.8228 287.4775 303 276 C303.7559 268.6304 304.509 268.1617 307 261 C308.4272 256.8967 309.0464 254.9536 311 253 C311.9768 252.0232 314.46 252.9625 316 252 C317.5058 251.0589 318.9805 248.0065 319 248 C319.0045 247.9985 319.2989 249.6052 319 251 C316.3812 263.2213 317.2888 264.4739 313 276 C309.5792 285.1933 303 294 303 294 "/>
<path id="41" d="M361 210 C361 210 337.641 253.9738 321 291 C319.655 293.9927 320.9207 298.8414 321 299 C321.005 299.0099 323.7067 297.9638 324 297 C326.2372 289.6493 323.6662 284.2483 328 276 C337.7901 257.3672 344.0883 257.464 355 238 C361.9011 225.69 365 210 365 210 C365 210 356.3263 228.3086 350 247 C345.4339 260.4906 347.2578 261.3749 343 275 C339.8265 285.1553 339.7343 285.847 335 295 C332.5246 299.7857 327.9993 304.0063 328 304 C328.0027 303.9767 331.5141 285.0603 338 269 C341.5624 260.1787 345.0756 260.9054 349 252 C357.7317 232.1857 364 210 364 210 "/>
<path id="42" d="M366 145 C366 145 361.532 158.4959 359 172 C357.0884 182.1952 359.4953 183.518 357 193 C354.7854 201.4156 349 210.0004 349 210 C349.0001 209.9992 352.2342 192.7348 358 178 C360.8441 170.7318 364.3743 170.4184 367 164 C368.188 161.0961 367.141 156.2116 367 156 C366.9882 155.9824 363.7094 156.7448 363 158 C358.6565 165.6847 357.4258 168.437 354 179 C351.569 186.4956 351 195 351 195 "/>
<path id="43" d="M418 209 C418 209 410.5731 220.0182 402 228 C396.7965 232.8447 394.7549 231.3961 389 236 C382.5925 241.126 379.629 243.4589 377 248 C376.109 249.5389 377.7165 254.8969 378 255 C378.7123 255.259 383.23 252.3816 388 252 C394.95 251.444 396.8634 254.4439 403 253 C411.7771 250.9348 421.9177 244.0588 422 244 C422.0139 243.9901 417 243 417 243 "/>
<path id="44" d="M414 225 C414 225 408.4847 232.0805 402 237 C394.4451 242.7313 385.5398 246.746 385 247 C384.9766 247.011 384.6979 245.3021 385 245 C386.5107 243.4893 389.7673 242.6436 391 241 C391.5801 240.2265 390.4643 237.4533 391 237 C393.9953 234.4655 397.5341 233.0428 404 230 C405.774 229.1652 408.0045 228.9935 408 229 C407.9777 229.0319 396.9981 240.0002 397 240 C397.0034 239.9997 418 228 418 228 C418 228 412.6639 229.9146 409 233 C403.6574 237.4991 399.5809 243.5247 399 244 C398.9805 244.0159 397.9834 242.0104 398 242 C398.7206 241.5496 406.9992 238.9983 407 239 C407.002 239.0039 399.9974 245.999 400 246 C400.0061 246.0024 411.9773 241 412 241 C412.0076 241 408.0492 245.705 408 246 C407.9957 246.026 410.9981 247.0052 411 247 C411.4102 245.8516 413.2796 238.7094 413 232 C412.829 227.8957 410.9806 224.7651 410 223 C409.8979 222.8161 408.2512 222.695 408 223 C403.9008 227.9776 402.6056 232.5329 396 240 C391.5196 245.0648 385 249 385 249 "/>
<path id="45" d="M375 285 C375 285 369.2993 286.4331 368 286 C367.3503 285.7834 365.92 282.0612 366 282 C367.9556 280.5046 375.6666 276.4568 385 273 C388.4981 271.7044 392.9783 271.9348 393 272 C393.1521 272.4563 392.1726 280.1477 389 285 C384.6318 291.6809 381.6554 291.154 376 298 C372.4369 302.3132 370 308.0055 370 308 C370 307.9814 376.0014 274.0143 376 274 C375.9994 273.9944 368.0202 287.879 368 288 C367.9961 288.0237 371.076 286.4177 374 286 C377.7214 285.4684 381.9228 285.9743 382 286 C382.0129 286.0043 379.9992 288.0003 380 288 C380.0028 287.9991 387.6765 284.0809 388 284 C388.018 283.9955 388 286 388 286 "/>
<path id="46" d="M251 171 C251 171 247.2989 183.1234 242 194 C237.9613 202.2899 231.9994 210.0004 232 210 C232.0011 209.9992 246.8449 197.0379 257 183 C262.9713 174.7455 266.0004 163.0001 266 163 C265.9986 162.9995 256.7809 171.7506 251 181 C247.3837 186.7861 247.4733 192.0534 246 195 C245.9107 195.1786 244.05 195.1 244 195 C243.8 194.6 243.3445 192.4898 244 191 C248.2345 181.3761 255 170 255 170 C255 170 242 197 242 197 "/>
<path id="47" d="M220 165 C220 165 214.9532 177.5819 209 188 C207.4028 190.7951 206.6264 191.1615 204 193 C202.0225 194.3843 199.0576 195.0432 199 195 C198.9547 194.966 198.9492 192.1016 200 190 C208.0243 173.9515 217.9999 157.0002 218 157 C218 156.9999 213.4266 161.7735 211 167 C207.1933 175.199 208.8796 177.2409 205 185 C202.8755 189.2491 198 193 198 193 C198 192.9999 203.2231 186.6821 207 180 C209.5603 175.4703 211.0003 170.0008 211 170 C210.9998 169.9995 206 177 206 177 "/>
<path id="48" d="M197 142 C197 142 187.5536 151.1696 181 161 C177.0237 166.9645 175.0444 174.9366 175 175 C174.9919 175.0115 173.6 172.4287 174 171 C176.4991 162.0746 177.4028 159.548 182 150 C183.5552 146.7699 186.7204 144.1864 187 144 C187.0104 143.9931 188.1811 145.572 188 146 C184.6611 153.892 176 170 176 170 C176 170 191 144 191 144 "/>
<path id="49" d="M168 123 C168 123 169.2857 125 169 126 C166.0977 136.1579 160 151 160 151 C160 151 164.4709 142.9033 167 135 C168.2923 130.9617 168 126 168 126 C168 126 168.0513 133.2564 166 139 C163.3291 146.4786 158 154 158 154 C158 154 167.9999 135 168 135 C168.0001 135 161 153 161 153 C161 153 169.999 130.0014 170 130 C170.0005 129.9993 168 143 168 143 "/>
<path id="50" d="M169 231 C169 231 167.0059 232.0088 167 232 C166.9295 231.8942 166.76 228.32 167 228 C167.135 227.82 168.6312 227.6715 170 228 C180.6947 230.5667 183.8233 230.9337 192 234 C193.0537 234.3951 194.0159 237.0035 194 237 C193.8154 236.959 165 228 165 228 C165 228 174.8157 229.7606 181 233 C183.7047 234.4167 186 239 186 239 "/>
<path id="51" d="M167 249 C167 249 164 249 164 249 C164 248.9929 166.2447 246.8489 167 247 C170.7767 247.7553 173.3705 249.0512 179 252 C183.676 254.4493 188.0032 258.0002 188 258 C187.991 257.9995 162 251 162 251 "/>
<path id="52" d="M153 276 C153 276 155.066 274.7028 156 275 C163.5035 277.3875 174.9994 282.9955 175 283 C175.0002 283.0015 157.0005 281.9995 157 282 C156.9997 282.0003 171.9711 285.9783 172 286 C172.0088 286.0066 166.1336 287.1903 165 288 C164.7118 288.2059 165 291 165 291 "/>
<path id="53" d="M155 317 C155 317 164.0474 317.7443 172 319 C172.9911 319.1565 174 319.9416 174 320 C174 320.1169 172.6054 322.0275 172 322 C165.6147 321.7098 159.0126 321.1343 152 319 C150.5858 318.5696 148.9761 315.0072 149 315 C149.1688 314.9494 160.2384 315.458 162 316 C162.1222 316.0376 162 319 162 319 "/>
<path id="54" d="M156 328 C156 328 159.0231 331.9982 159 332 C158.8646 332.0104 145.7053 329.8454 143 329 C142.9002 328.9688 142.9 327.05 143 327 C143.4 326.8 145.2799 326.4941 147 327 C153.2228 328.8302 160 332 160 332 "/>
<path id="55" d="M237 257 C237 257 229.6663 269.0004 223 276 C221.4095 277.67 218.5827 276.5931 217 278 C215.3042 279.5074 214.09 283.91 214 284 C213.99 284.01 212.871 282.152 213 282 C219.2277 274.6602 241.9998 251.0002 242 251 C242.0001 250.9999 228.578 269.345 228 270 C227.9794 270.0234 226.9927 268.004 227 268 C227.7652 267.5749 232.7616 267.1192 237 265 C240.1327 263.4336 243.0015 259.9884 243 260 C242.9944 260.0446 235 281 235 281 C235 281 240.0005 263 240 263 C239.999 263 230 281 230 281 "/>
<path id="56" d="M427 302 C427 302 409 315 409 315 C409 315 420.4239 306.288 423 305 C423.1356 304.9322 425.0106 306.9876 425 307 C424.56 307.5134 416.9987 311.9998 417 312 C417.0025 312.0004 431 308 431 308 "/>
<path id="57" d="M425 327 C425 327 431.001 324.9983 431 325 C430.9978 325.0037 422.8078 331.5961 422 332 C422 332 420.9937 330.0028 421 330 C421.6172 329.7257 430.9647 328 431 328 C431.0071 328 428.9957 329.9914 429 330 C429.0064 330.0129 432.0001 329.9999 432 330 C431.9998 330.0001 427 331 427 331 "/>
<path id="58" d="M418 353 L424 353 "/>
</g>
</g>
</svg>
