<?xml version="1.0" encoding="utf-8"?>
<!DOCTYPE svg PUBLIC "-//W3C//DTD SVG 1.1//EN" "http://www.w3.org/Graphics/SVG/1.1/DTD/svg11.dtd">
<svg viewBox="0 0 800 800" preserveAspectRatio="xMinYMin meet" xmlns="http://www.w3.org/2000/svg" version="1.1">
<g fill="none" stroke="black" stroke-linecap="round" stroke-linejoin="round" stroke-width="1.1761">
<g transform="translate(87.52,161.4949) scale(2.5509) translate(-110,-164.1333)">
<path id="0" d="M112 192.1333 C112 192.1333 110.003 192.1569 110 192.1333 C109.907 191.3896 110.0595 184.6649 111 184.1333 C115.2285 181.7433 123.5494 182.7916 133 179.1333 C137.6234 177.3436 139.0302 175.8456 142 172.1333 C144.1751 169.4145 143.7221 164.7723 145 164.1333 C147.3732 162.9467 154.1009 162.6968 158 164.1333 C160.5731 165.0813 164 171.1333 164 171.1333 "/>
<path id="1" d="M166 171.1333 C166 171.1333 169.9254 177.5368 170 178.1333 C170.0062 178.183 166.9948 179.1316 167 179.1333 C167.0312 179.1437 182 182.1333 182 182.1333 "/>
<path id="2" d="M182 183.1333 C182 183.1333 187.5161 183.1462 190 185.1333 C198.1243 191.6328 198.3944 197.9247 207 203.1333 C214.4122 207.6196 217.6428 206.7705 228 208.1333 C236.1297 209.203 237.3732 209.6587 245 208.1333 C253.7035 206.3926 254.5617 201.9005 263 201.1333 C279.6708 199.6178 286.7483 197.6118 300 203.1333 C316.3457 209.944 335 231.1333 335 231.1333 "/>
<path id="3" d="M113 195.1333 L121 200.1333 "/>
<path id="4" d="M119 197.1333 L140 194.1333 "/>
<path id="5" d="M140 195.1333 C140 195.1333 142.9273 205.3515 146 209.1333 C147.2515 210.6736 153 211.1333 153 211.1333 "/>
<path id="6" d="M149 212.1333 C149 212.1333 153.2779 221.0621 158 227.1333 C159.4786 229.0344 163 230.108 163 230.1333 C163 230.1418 157.9724 231.0952 158 231.1333 C158.3166 231.5717 167.9727 239.1798 176 248.1333 C180.6443 253.3135 181.3341 253.8019 184 260.1333 C192.9745 281.4477 200 305.1333 200 305.1333 "/>
<path id="7" d="M200 305.1333 L200 351.1333 "/>
<path id="8" d="M200 351.1333 C200 351.1333 206.9885 351.2309 207 351.1333 C207.7094 345.1034 205.7496 313.1524 206 300.1333 C206.0051 299.8681 207.9553 299.4762 208 299.1333 C208.7849 293.1159 209 277.1333 209 277.1333 "/>
<path id="9" d="M209 279.1333 C209 279.1333 215.9682 294.9848 219 309.1333 C220.1117 314.3211 219.8394 316.3508 218 321.1333 C215.4065 327.8765 209 335.1333 209 335.1333 "/>
<path id="10" d="M211 345.1333 C211 345.1333 216.4093 345.2468 218 344.1333 C219.4874 343.0922 220.4306 340.9803 221 338.1333 C221.7764 334.2512 219.7113 331.5675 221 329.1333 C222.8277 325.681 227.2323 325.2848 230 321.1333 C232.3723 317.5749 233 311.1333 233 311.1333 "/>
<path id="11" d="M233 311.1333 L227 278.1333 "/>
<path id="12" d="M227 278.1333 C227 278.1333 243.6959 283.6849 255 282.1333 C265.093 280.748 278 271.1333 278 271.1333 "/>
<path id="13" d="M278 271.1333 C278 271.1333 280.6628 275.2553 281 279.1333 C282.5548 297.0131 282.7409 298.9819 282 317.1333 C281.7829 322.4519 281.4308 323.6769 279 328.1333 C275.9397 333.7439 270 339.1333 270 339.1333 "/>
<path id="14" d="M270 339.1333 L280 339.1333 "/>
<path id="15" d="M282 338.1333 C282 338.1333 287.282 330.3136 288 323.1333 C290.0712 302.421 288 278.1333 288 278.1333 "/>
<path id="16" d="M288 277.1333 C288 277.1333 291.5589 279.9186 293 283.1333 C297.6489 293.504 301 306.1333 301 306.1333 "/>
<path id="17" d="M301 306.1333 L284 325.1333 "/>
<path id="18" d="M287 329.1333 C287 329.1333 291.0329 329.789 293 329.1333 C294.3114 328.6962 294.8147 327.8067 296 326.1333 C303.1504 316.0386 310 305.1333 310 305.1333 "/>
<path id="19" d="M311 305.1333 C311 305.1333 309.827 295.3004 307 287.1333 C305.5809 283.0336 303.0336 282.8542 302 279.1333 C300.8991 275.1703 302 269.1333 302 269.1333 "/>
<path id="20" d="M302 273.1333 C302 273.1333 304.4552 271.131 305 269.1333 C307.1279 261.3311 307.1874 260.0719 308 251.1333 C308.6671 243.7957 308.8502 243.2183 308 236.1333 C307.4128 231.24 305 226.1333 305 226.1333 "/>
<path id="21" d="M306 224.1333 C306 224.1333 310.3987 223.4259 311 224.1333 C315.2728 229.1602 319.6995 234.0485 323 244.1333 C328.0987 259.7128 329 279.1333 329 279.1333 "/>
<path id="22" d="M320 232.1333 C320 232.1333 326.16 240.6132 329 249.1333 C331.84 257.6534 331.6095 258.7603 332 268.1333 C332.5913 282.3256 331 297.1333 331 297.1333 "/>
<path id="23" d="M329 240.1333 C329 240.1333 329.7518 253.5174 332 265.1333 C332.5784 268.1215 334.6625 268.3207 335 271.1333 C336.0083 279.5359 336.6258 282.2753 335 290.1333 C334.0381 294.7826 329 300.1333 329 300.1333 "/>
<path id="24" d="M312 209.1333 C312 209.1333 318.3366 214.7223 322 221.1333 C327.9383 231.5254 328.9601 232.4802 332 244.1333 C337.7083 266.0151 340 290.1333 340 290.1333 "/>
<path id="25" d="M332 240.1333 C332 240.1333 335 251.191 335 260.1333 C335 264.1574 332.3162 264.8642 332 269.1333 C331.3853 277.4316 333.8723 280.4453 333 287.1333 C332.7304 289.1999 329 292.1333 329 292.1333 "/>
<path id="26" d="M325 269.1333 C325 269.1333 323.8357 278.2307 326 284.1333 C328.6291 291.3035 332.9108 292.3372 336 299.1333 C337.1064 301.5673 336 306.1333 336 306.1333 "/>
<path id="27" d="M334 231.1333 C334 231.1333 337.7277 235.9122 338 240.1333 C339.559 264.298 336.8836 267.0829 338 293.1333 C338.3608 301.5523 341 310.1333 341 310.1333 "/>
<path id="28" d="M325 257.1333 C325 257.1333 323.0383 258.4064 323 259.1333 C322.692 264.9854 321.7084 269.2584 324 276.1333 C326.5561 283.8015 328.8603 286.389 334 292.1333 C335.9084 294.2662 339.1421 293.2754 341 295.1333 C342.8579 296.9912 342.1663 300.4663 344 302.1333 C346.1007 304.0431 349.3541 303.2091 352 305.1333 C353.7245 306.3875 355 310.0971 355 310.1333 C355 310.1406 352 309.1333 352 309.1333 "/>
<path id="29" d="M149 179.1333 L146 179.1333 "/>
<path id="30" d="M147 173.1333 C147 173.1333 153.7163 174.331 155 175.1333 C155.2602 175.296 155 178.1333 155 178.1333 "/>
<path id="31" d="M146 164.1333 C146 164.1333 151.5362 168.284 155 173.1333 C158.6562 178.2521 158.2648 181.5775 161 185.1333 C161.6711 186.0058 165 186.1333 165 186.1333 "/>
<path id="32" d="M161 164.1333 C161 164.1333 167.0686 170.7002 168 176.1333 C169.6108 185.5296 167 199.1333 167 199.1333 "/>
<path id="33" d="M158 183.1333 L169 195.1333 "/>
<path id="34" d="M124 190.1333 L117 193.1333 "/>
<path id="35" d="M117 193.1333 L122 194.1333 "/>
<path id="36" d="M114 189.1333 L113 189.1333 "/>
<path id="37" d="M182 188.1333 C182 188.1333 180.8494 204.8109 179 213.1333 C178.8079 213.998 176.3104 214.3056 176 215.1333 C175.404 216.7227 176.8508 218.8647 176 221.1333 C174.263 225.7652 172.903 227.1417 170 231.1333 C169.5039 231.8154 168.0458 232.1562 168 232.1333 C167.9694 232.1181 168 230.1333 168 230.1333 "/>
<path id="38" d="M190 193.1333 C190 193.1333 188.5591 208.7797 185 219.1333 C183.9648 222.1449 180.8699 221.861 179 225.1333 C175.3452 231.5292 174.9291 236.9181 173 240.1333 C172.8133 240.4445 170 240.1333 170 240.1333 "/>
<path id="39" d="M195 201.1333 C195 201.1333 197.3979 221.5874 194 234.1333 C192.1362 241.0151 186.0413 242.7346 182 249.1333 C181.2841 250.2669 182.0007 253.1327 182 253.1333 C181.9997 253.1337 181 250.1333 181 250.1333 "/>
<path id="40" d="M205 211.1333 C205 211.1333 207.5548 226.8241 205 239.1333 C202.5107 251.1274 194 264.1333 194 264.1333 "/>
<path id="41" d="M210 216.1333 C210 216.1333 212.3767 237.2974 212 256.1333 C211.9052 260.8753 211.2637 261.78 209 266.1333 C205.0443 273.7404 199 281.1333 199 281.1333 "/>
<path id="42" d="M216 208.1333 C216 208.1333 220.0332 220.7589 221 233.1333 C222.4849 252.1405 223.6771 254.8807 221 272.1333 C219.5999 281.1563 215.8518 284.7137 212 291.1333 C211.558 291.87 209.0389 292.1917 209 292.1333 C208.7018 291.686 208 285.1333 208 285.1333 "/>
<path id="43" d="M225 212.1333 C225 212.1333 231.458 223.9539 233 235.1333 C235.2391 251.3667 233.8518 259.6276 233 270.1333 C232.9454 270.8067 230 272.1333 230 272.1333 "/>
<path id="44" d="M234 218.1333 C234 218.1333 237.4005 224.0261 239 230.1333 C242.7942 244.6203 243.4407 245.4758 245 260.1333 C245.8598 268.2153 244.1317 276.6394 244 277.1333 C243.9908 277.1677 241 275.1333 241 275.1333 "/>
<path id="45" d="M247 216.1333 C247 216.1333 248.3238 223.2458 251 229.1333 C253.1179 233.7928 256.2549 234.0352 257 238.1333 C258.7722 247.8803 257.8254 258.0063 257 262.1333 C256.9312 262.4772 252 263.1333 252 263.1333 "/>
<path id="46" d="M260 217.1333 C260 217.1333 266.9602 227.0674 269 236.1333 C271.0374 245.1885 270.0074 247.3954 269 257.1333 C268.6014 260.9869 268.1832 262.6143 266 265.1333 C262.7733 268.8565 256 272.1333 256 272.1333 "/>
<path id="47" d="M265 203.1333 C265 203.1333 269.8768 205.9485 272 209.1333 C274.1896 212.4177 274.3734 213.7474 275 218.1333 C275.7974 223.7155 275.4198 229.6086 275 230.1333 C274.8461 230.3257 267 228.1333 267 228.1333 "/>
<path id="48" d="M248 205.1333 C248 205.1333 252.2101 211.4653 254 217.1333 C254.9017 219.9888 254 224.1333 254 224.1333 "/>
<path id="49" d="M279 205.1333 C279 205.1333 282.6812 207.34 283 209.1333 C285.8227 225.0109 287.6531 232.1737 287 250.1333 C286.7727 256.3836 284.5902 258.4489 281 264.1333 C279.2261 266.9419 275 269.1333 275 269.1333 "/>
<path id="50" d="M275 247.1333 C275 247.1333 277.5641 247.425 278 248.1333 C280.309 251.8855 282.9514 259.5496 283 260.1333 C283.0013 260.149 279 260.1333 279 260.1333 "/>
<path id="51" d="M293 205.1333 C293 205.1333 295.9231 208.5436 297 212.1333 C300.2177 222.8589 300.6137 223.7654 302 235.1333 C303.0569 243.8002 303.0923 244.6679 302 253.1333 C301.1798 259.49 300.9095 260.7992 298 266.1333 C295.4389 270.8287 293.1867 272.5261 290 275.1333 C289.3778 275.6424 287 275.1333 287 275.1333 "/>
<path id="52" d="M290 236.1333 C290 236.1333 287.1086 237.4094 287 238.1333 C286.2022 243.4521 287.9136 247.6068 287 256.1333 C286.4762 261.0226 284 266.1333 284 266.1333 "/>
<path id="53" d="M293 243.1333 C293 243.1333 293.4214 258.473 292 269.1333 C291.7607 270.9282 289 273.1333 289 273.1333 "/>
<path id="54" d="M312 218.1333 C312 218.1333 313.975 218.0501 314 218.1333 C314.4284 219.5613 315 228.1333 315 228.1333 "/>
<path id="55" d="M170 205.1333 L164 216.1333 "/>
<path id="56" d="M157 205.1333 L154 215.1333 "/>
<path id="57" d="M162 218.1333 L164 227.1333 "/>
<path id="58" d="M183 229.1333 C183 229.1333 183.7018 233.7939 183 236.1333 C182.609 237.4367 180 239.1333 180 239.1333 "/>
<path id="59" d="M191 244.1333 L191 266.1333 "/>
<path id="60" d="M198 264.1333 L197 274.1333 "/>
<path id="61" d="M209 288.1333 L208 294.1333 "/>
<path id="62" d="M225 294.1333 L221 304.1333 "/>
<path id="63" d="M229 311.1333 L225 319.1333 "/>
<path id="64" d="M289 287.1333 C289 287.1333 287.8301 290.4692 287 291.1333 C286.5211 291.5165 284 291.1333 284 291.1333 "/>
<path id="65" d="M285 290.1333 L285 293.1333 "/>
<path id="66" d="M297 278.1333 L297 285.1333 "/>
<path id="67" d="M301 286.1333 L303 303.1333 "/>
<path id="68" d="M308 298.1333 C308 298.1333 308.7282 305.9779 308 309.1333 C307.8218 309.9056 305 311.1333 305 311.1333 "/>
<path id="69" d="M149 202.1333 L137 203.1333 "/>
</g>
</g>
</svg>
