<?xml version="1.0" encoding="utf-8"?>
<!DOCTYPE svg PUBLIC "-//W3C//DTD SVG 1.1//EN" "http://www.w3.org/Graphics/SVG/1.1/DTD/svg11.dtd">
<svg viewBox="0 0 800 800" preserveAspectRatio="xMinYMin meet" xmlns="http://www.w3.org/2000/svg" version="1.1">
<g fill="none" stroke="black" stroke-linecap="round" stroke-linejoin="round" stroke-width="1.9297">
<g transform="translate(87.52,204.8943) scale(1.5546) translate(-109,-158)">
<path id="0" d="M157 235 C157 235 152.6742 242.9968 148 245 C135.1836 250.4928 127.9968 250.8924 115 253 C113.6071 253.2259 111.3864 251.966 111 251 C109.5188 247.297 108.3515 243.4039 109 238 C109.6403 232.6639 110.5027 230.7691 114 226 C120.8012 216.7257 123.7149 217.4099 131 208 C135.3062 202.4378 135.9683 201.3491 138 195 C139.6424 189.8674 140.0533 187.4238 139 183 C138.0661 179.0777 134.5518 178.138 133 174 C132.0345 171.4252 132.1175 167.7787 133 167 C136.4374 163.967 141.7271 160.9091 150 159 C159.7586 156.748 161.2136 157.7004 172 158 C178.9001 158.1917 179.6924 157.8975 186 160 C195.4614 163.1538 195.863 164.0162 205 169 C212.2262 172.9416 212.6676 172.8457 219 178 C233.8953 190.1241 232.7071 193.6319 248 204 C260.9526 212.7814 264.2143 214.9922 278 218 C288.2445 220.2352 291.7409 219.0707 303 216 C317.7851 211.9677 317.7048 207.7913 333 203 C358.62 194.9745 359.7277 194.8396 386 190 C396.9957 187.9745 397.8247 188.2867 409 189 C420.818 189.7543 421.5808 190.2317 433 193 C437.5594 194.1053 439.1617 194.1617 442 197 C449.2049 204.2049 450.239 206.2063 456 216 C459.9195 222.6631 460.481 223.6219 462 231 C463.797 239.7281 463 250 463 250 "/>
<path id="1" d="M152 243 C152 243 168.8618 257.2585 185 266 C190.902 269.1969 192.5874 268.6029 200 269 C220.0463 270.0739 221.3153 268.1798 241 269 C244.4008 269.1417 245.8396 269.3797 248 271 C250.6052 272.9539 252.0911 274.6675 253 278 C254.6597 284.0854 254.9128 286.0625 254 293 C252.5395 304.1 250.0458 304.4923 248 316 C246.0996 326.6895 245.0446 327.6819 246 338 C247.4298 353.4421 250.7522 354.0158 253 370 C255.1999 385.6434 254.1727 397.5876 255 402 C255.0192 402.1022 258.9909 402.0635 259 402 C259.3311 399.6823 256.3161 389.66 258 381 C259.3399 374.109 264.9934 372.9024 266 366 C268.0456 351.9727 266.8665 348.8655 265 333 C263.9524 324.095 260.4712 323.6388 260 315 C259.0487 297.5591 262 278 262 278 "/>
<path id="2" d="M263 298 C263 298 273.1991 315.0565 276 331 C279.2546 349.5264 274.4857 352.0109 276 372 C276.9374 384.3732 279.6191 392.6848 281 397 C281.0498 397.1557 283.869 397.2358 284 397 C284.7946 395.5697 285.6161 392.4788 286 388 C287.0919 375.2611 288.5223 373.925 287 362 C285.7118 351.9088 281.4232 351.318 280 341 C277.5938 323.555 280.6161 322.1004 279 304 C278.1565 294.5533 274.3134 285.9155 275 285 C275.6544 284.1274 287.2372 281.4178 294 284 C310.1276 290.1578 311.6483 295.9361 330 306 C342.4398 312.8218 342.8435 313.0298 356 318 C365.0008 321.4003 366.1391 322.557 375 323 C384.5973 323.4799 386.4837 322.5377 396 320 C400.5108 318.7971 401.6331 318.2508 405 315 C415.2771 305.0773 415.2276 298.4355 425 292 C431.5714 287.6725 442.3389 287.2678 446 288 C447.0512 288.2102 449.9547 292.9271 450 297 C450.4051 333.4607 448.1142 337.5172 447 378 C446.6152 391.9798 446.0221 395.8949 447 406 C447.1149 407.1875 448.6886 408.3443 450 409 C450.8743 409.4371 452.5842 409.3118 453 409 C453.4504 408.6622 453.8771 407.4744 454 406 C454.8401 395.9184 452.7904 390.966 455 385 C455.965 382.3944 463.9025 380.6899 464 379 C464.6827 367.166 458 333 458 333 "/>
<path id="3" d="M466 244 C466 244 473.9843 255.8938 479 267 C480.4683 270.2512 480.5668 274.5591 480 275 C477.4311 276.998 469.9256 277.257 461 281 C454.8043 283.5982 454.5528 285.8406 449 288 C446.737 288.8801 443 288 443 288 "/>
<path id="4" d="M144 212 C144 212 144.9002 215.9002 146 217 C146.7856 217.7856 148.0294 217.7537 150 218 C151.9109 218.2389 154 218 154 218 C154 217.8513 150 212 150 212 "/>
<path id="5" d="M207 173 C207 173 197.007 186.5202 193 197 C191.6871 200.4337 192.1598 203.3195 194 207 C198.7321 216.4641 204.3683 217.5576 208 227 C210.7733 234.2106 209.9059 237.8469 209 246 C208.595 249.6449 206.0126 250.2027 205 254 C204.2182 256.9318 204.4046 257.7254 205 261 C206.3377 268.3571 209 274.9668 209 276 C209 276 205.1231 276.2154 205 276 C204.6231 275.3404 205 269 205 269 "/>
<path id="6" d="M238 203 C238 203 231.5226 214.1368 228 224 C226.9965 226.8099 227.1287 228.0128 228 231 C230.3701 239.1259 233.9281 239.9608 235 248 C236.6656 260.4921 236.095 267.358 234 276 C233.5032 278.0492 227.0255 281.0102 227 281 C226.9959 280.9984 229 274 229 274 "/>
<path id="7" d="M267 215 C267 215 259.4091 224.0499 257 232 C255.0756 238.3505 255.1364 241.2234 257 248 C260.1477 259.4461 266.4031 265.3842 268 272 C268.2417 273.0014 265.3833 276.3852 264 277 C262.9872 277.4501 259 276 259 276 "/>
<path id="8" d="M291 216 C291 216 277.6798 238.7585 279 248 C280.4821 258.3748 290.9584 263.4485 300 279 C302.9976 284.1559 304.1442 288.8376 304 291 C303.959 291.6143 299.1405 294.0702 299 294 C298.8395 293.9197 298 288 298 288 "/>
<path id="9" d="M326 213 C326 213 315.336 231.1039 309 248 C306.9518 253.4619 306.7077 256.0154 308 261 C309.6304 267.2887 311.3554 268.7298 316 275 C321.1021 281.8879 323.8975 281.4359 328 288 C330.5766 292.1225 330.3998 293.5979 331 299 C331.8474 306.6264 331.2857 313.9287 331 315 C330.9988 315.0045 327.1351 314.4053 327 314 C326.3631 312.0894 327 303 327 303 "/>
<path id="10" d="M360 200 C360 200 353.7371 210.5078 351 221 C347.9775 232.5864 345.0954 236.7484 348 246 C356.5017 273.0795 365.9666 278.922 378 307 C379.4664 310.4215 378.995 313.4131 378 316 C377.3452 317.7025 375.2438 319.0028 373 320 C371.6758 320.5885 369.4 320.2 369 320 C368.9 319.95 369 318 369 318 "/>
<path id="11" d="M394 206 C394 206 389.5578 214.3966 387 223 C384.1596 232.5539 383.9375 233.3128 383 243 C382.4986 248.1808 382.2711 249.442 384 254 C387.3111 262.7292 390.1197 262.7843 394 272 C397.9355 281.3468 398.3221 282.2121 400 292 C401.1969 298.9819 401.4808 301.0769 400 307 C398.9635 311.1462 394.1473 315.8738 394 316 C393.9831 316.0145 393 313 393 313 "/>
<path id="12" d="M428 197 C428 197 419.891 209.8906 418 221 C416.3329 230.7943 416.8585 233.9865 420 244 C424.3068 257.728 429.2887 258.8757 434 272 C435.5692 276.3714 435.0289 278.627 434 283 C433.3507 285.7594 431.9825 287.2653 430 289 C428.9551 289.9142 426.2531 290.0633 426 290 C425.9662 289.9916 426 288 426 288 "/>
<path id="13" d="M455 227 C455 227 450.4932 238.3148 448 249 C447.156 252.617 446.7586 253.9379 448 257 C453.4437 270.4277 457.6848 272.5348 463 286 C464.3699 289.4703 463.4531 292.7344 463 295 C462.9295 295.3524 461 296 461 296 "/>
<path id="14" d="M482 267 C482 267 487.9479 268.7583 492 272 C499.8147 278.2518 501.3828 279.3133 507 287 C510.0125 291.1223 510.1101 292.6609 511 298 C511.9915 303.9493 511.8984 305.31 511 311 C510.5526 313.8335 508 317 508 317 "/>
</g>
</g>
</svg>
