<?xml version="1.0" encoding="utf-8"?>
<!DOCTYPE svg PUBLIC "-//W3C//DTD SVG 1.1//EN" "http://www.w3.org/Graphics/SVG/1.1/DTD/svg11.dtd">
<svg viewBox="0 0 800 800" preserveAspectRatio="xMinYMin meet" xmlns="http://www.w3.org/2000/svg" version="1.1">
<g fill="none" stroke="black" stroke-linecap="round" stroke-linejoin="round" stroke-width="1.6561">
<g transform="translate(87.52,230.6268) scale(1.8115) translate(-77,-224)">
<path id="0" d="M363 269 C363 269 369.471 267.5311 374 269 C386.3074 272.9916 387.7382 276.796 400 281 C403.6646 282.2564 407.306 282.386 409 281 C414.2189 276.73 419.775 268.3401 422 263 C422.4513 261.9168 421.0404 258.6154 419 257 C410.7614 250.4778 408.0125 247.3375 398 244 C389.5684 241.1895 379.805 243.5343 377 243 C376.9244 242.9856 376.6073 240.3927 377 240 C378.1781 238.8219 382.2377 238.2705 383 237 C383.8085 235.6525 383.5527 233.0398 383 230 C382.6555 228.1051 382.1657 226.8743 381 226 C379.2515 224.6886 377.9138 224.2914 375 224 C368.4204 223.342 363.85 222.062 361 224 C356.4074 227.123 355.8281 237.4135 350 241 C341.2266 246.399 335.7789 246.7634 322 248 C297.9347 250.1597 296.4961 246.2503 272 248 C255.1327 249.2048 254.9775 252.5852 238 254 C201.4616 257.0449 200.3966 254.5184 164 257 C157.0328 257.475 156.2415 257.8155 150 260 C146.9311 261.0741 146.4032 261.5968 144 264 C138.2323 269.7677 134.1371 271.4284 133 277 C130.3301 290.0825 130.4829 298.3905 134 313 C136.0272 321.4208 141.5547 322.1095 146 331 C148.0374 335.0748 146.6499 339.9874 148 341 C150.2027 342.6521 156.3912 341.0369 162 343 C164.957 344.035 166.9912 345.478 168 348 C170.9446 355.3616 170.9831 358.0344 172 368 C173.4501 382.211 171.2703 383.5082 173 397 C173.6243 401.8694 174.4624 403.7704 177 407 C178.8342 409.3345 180.7543 410.5007 184 411 C192.0979 412.2458 202.2867 412.0887 203 411 C204.6617 408.4637 204.0734 396.2224 203 382 C202.1005 370.0817 197.6544 363.3823 199 358 C199.6435 355.4258 205.5024 352.199 211 350 C213.8935 348.8426 217.0991 349.1359 219 350 C220.2529 350.5695 221.6153 352.692 222 355 C222.9092 360.4552 220.8594 361.917 222 368 C225.2188 385.1668 227.792 398.0422 231 403 C231.5824 403.9001 240.6397 403.5813 244 402 C245.8195 401.1437 247.7294 398.1795 248 395 C249.4746 377.6738 245.9592 372.0065 248 355 C248.5469 350.4423 251.4858 346.6762 254 345 C255.7864 343.809 259.8343 343.9448 263 345 C265.6967 345.8989 267.4144 347.2251 269 350 C272.655 356.3963 273.3939 357.9693 275 366 C278.2496 382.2481 275.176 385.6602 279 400 C280.4322 405.3706 283.7556 408.4509 287 411 C288.1696 411.919 292.1508 411.8939 293 411 C297.8199 405.9265 304.6783 399.0955 306 391 C307.6838 380.6864 302.5308 376.3892 301 362 C300.067 353.2296 299.6336 347.5869 301 344 C301.4591 342.7949 305.1232 341.6841 309 341 C313.0907 340.2781 315.7344 340.5469 318 341 C318.3524 341.0705 318.9352 342.0606 319 343 C319.8476 355.2901 318.3268 356.8535 320 370 C321.7741 383.9395 322.0863 384.6281 326 398 C327.9408 404.6311 330.4994 409.6244 332 411 C332.349 411.3199 336.8901 410.5539 338 409 C344.3568 400.1005 348.9319 395.2726 352 383 C355.1202 370.5194 353.6081 366.8299 352 353 C351.272 346.739 348.2011 346.4057 347 340 C345.3465 331.1813 346.8608 325.3039 346 321 C345.9283 320.6413 343.0184 320.2488 343 320 C342.6091 314.7232 341.7269 305.6494 344 294 C345.4201 286.7218 347.0508 283.4138 351 279 C353.4047 276.3124 357.8643 277.4121 361 275 C362.8261 273.5953 364 269 364 269 "/>
<path id="1" d="M134 282 C134 282 116.6411 293.741 106 308 C92.9713 325.4585 93.6995 328.2632 84 349 C79.4095 358.8141 76.9996 370.0006 77 370 C77.0013 369.9981 93.1366 339.4028 110 310 C112.4445 305.7378 112.5313 305.1036 116 302 C121.55 297.0342 128.78 293.22 129 293 C129.02 292.98 126.3711 291.7403 126 292 C123.9673 293.4229 122.0291 295.7149 119 300 C101.6804 324.501 85 350.0001 85 350 C85 349.9999 99.3222 320.9878 116 294 C126.6141 276.8245 127.9827 277.1771 140 261 C140.8241 259.8906 142 259 142 259 C142.0214 259.0214 142 263 142 263 "/>
<path id="2" d="M157 260 C157 260 155 332 155 332 C155 332 158 265 158 265 C158 265 159 340 159 340 "/>
<path id="3" d="M180 257 C180 257 181.587 286.4348 180 315 C179.1168 330.8969 175 347.0004 175 347 C174.9999 346.999 173.9508 305.5243 176 267 C176.3638 260.1603 177.7392 259.7823 180 253 C180.6881 250.9358 182 248.9966 182 249 C182 249.0304 181.7238 267.1159 180 285 C177.734 308.51 174 332 174 332 "/>
<path id="4" d="M208 258 L208 354 "/>
<path id="5" d="M242 256 L242 354 "/>
<path id="6" d="M281 247 L280 355 "/>
<path id="7" d="M314 248 L314 332 "/>
<path id="8" d="M314 332 L314 335 "/>
<path id="9" d="M347 242 L350 277 "/>
<path id="10" d="M382 244 L379 265 "/>
<path id="11" d="M379 266 L379 268 "/>
<path id="12" d="M373 248 C373 248 370.1403 249.0468 370 249 C369.9649 248.9883 369.875 247.125 370 247 C370.125 246.875 372 247 372 247 C372 247.0744 370.0014 250.0007 370 250 C369.9944 249.9972 369.6178 246.6369 370 246 C370.2675 245.5541 372.9937 244.9873 373 245 C373.0571 245.1142 372 250 372 250 "/>
</g>
</g>
</svg>
