<?xml version="1.0" encoding="utf-8"?>
<!DOCTYPE svg PUBLIC "-//W3C//DTD SVG 1.1//EN" "http://www.w3.org/Graphics/SVG/1.1/DTD/svg11.dtd">
<svg viewBox="0 0 800 800" preserveAspectRatio="xMinYMin meet" xmlns="http://www.w3.org/2000/svg" version="1.1">
<g fill="none" stroke="black" stroke-linecap="round" stroke-linejoin="round" stroke-width="1.9153">
<g transform="translate(87.52,175.2337) scale(1.5663) translate(-70,-109)">
<path id="0" d="M133 375 C133 375 136.0524 368.4437 137 362 C138.4747 351.9719 139.8608 349.8904 138 341 C135.8436 330.6974 130.3132 329.9051 128 319 C123.6991 298.7243 127.2373 296.2223 124 275 C122.8561 267.5013 120.0443 267.3099 119 260 C117.6709 250.6965 117.5654 249.5039 119 240 C121.4536 223.7447 122.1576 222.9109 127 207 C129.0261 200.3428 129.2943 199.851 133 194 C138.5658 185.2118 138.5807 183.0525 146 177 C156.057 168.7956 159.3989 164.6744 171 163 C201.9126 158.5384 211.0767 157.8232 243 163 C261.586 166.0139 262.9692 175.9919 282 181 C298.3284 185.297 304.1826 184.2885 319 183 C322.8312 182.6669 323.2366 179.0959 328 177 C347.6594 168.3499 369 161 369 161 "/>
<path id="1" d="M369 161 C369 161 385.9677 158.0646 386 158 C386.0028 157.9944 377.4905 154.7232 374 151 C371.7407 148.5901 371.3548 146.2575 371 142 C370.4279 135.1343 371.9907 127.0046 372 127 C372.0011 126.9995 373.5123 135.3538 377 139 C382.6652 144.9228 394 150 394 150 "/>
<path id="2" d="M394 150 C394 150 412.9728 148.6269 420 145 C422.6253 143.645 424.1803 139.2464 425 134 C426.4612 124.6484 424.8681 113.2308 425 113 C425.0153 112.9733 431.7102 116.5275 433 120 C436.862 130.3977 438 148 438 148 "/>
<path id="3" d="M427 116 C427 116 423.9421 122.6405 423 129 C422.0296 135.5501 423 143 423 143 "/>
<path id="4" d="M376 133 C376 133 381.67 133.224 385 135 C388.0433 136.6231 388.9826 137.7721 391 141 C393.5865 145.1383 395 151 395 151 "/>
<path id="5" d="M426 116 C426 116 426.8404 119.5059 426 121 C423.3001 125.7998 418.8591 127.0425 417 132 C415.3188 136.4833 417 145 417 145 "/>
<path id="6" d="M441 148 C441 148 444.5143 162.8445 451 174 C456.2436 183.019 459.8341 182.4363 466 191 C468.2534 194.1298 468.7114 195.2476 469 199 C469.6286 207.1712 468 217 468 217 "/>
<path id="7" d="M433 211 C433 211 431.8036 218.5275 433 220 C435.3347 222.8734 440.237 225.4283 446 227 C449.3735 227.92 451.9202 227.6799 455 226 C461.1302 222.6563 468 215 468 215 "/>
<path id="8" d="M430 214 C430 214 423.7236 214.0068 421 212 C416.1003 208.3897 416.4906 204.9914 411 200 C405.9391 195.3992 399 192 399 192 "/>
<path id="9" d="M136 380 C136 380 133.3979 394.5621 134 395 C135.6712 396.2154 151.1757 397.4119 158 396 C159.8495 395.6173 161.9518 392.4441 163 389 C165.0429 382.2876 165.8323 373.8323 165 373 C163.692 371.692 152.6474 369.7665 145 371 C140.2862 371.7603 134 378 134 378 "/>
<path id="10" d="M165 369 C165 369 164.8581 349.7499 163 336 C162.754 334.1793 160.4953 333.8163 160 332 C159.2803 329.3613 159.2228 328.109 160 325 C162.0542 316.7834 164.3669 316.3988 166 308 C167.7255 299.1261 165.004 297.6492 167 289 C169.2674 279.1745 174.5483 269.3312 175 269 C175.008 268.9942 177.9744 274.4995 182 278 C188.9414 284.036 189.7027 284.6073 198 289 C206.2526 293.369 207.0019 293.6181 216 296 C223.4918 297.9831 224.0315 297.5806 232 298 C242.8851 298.5729 243.4227 299.4103 254 298 C272.7827 295.4956 273.8615 295.6376 292 290 C310.2172 284.3379 328 275 328 275 "/>
<path id="11" d="M167 302 C167 302 174.364 308.0743 178 315 C184.2456 326.8964 188 342 188 342 "/>
<path id="12" d="M209 300 C209 300 202.2045 309.937 200 319 C198.1273 326.699 198.5562 328.8187 200 337 C201.3683 344.7535 204.0879 345.0786 206 353 C207.4511 359.0115 207 366 207 366 "/>
<path id="13" d="M187 335 C187 335 187.8645 359.0512 190 374 C190.1857 375.2999 191.7709 376.8156 193 377 C199.0564 377.9085 208.5817 378.0012 210 377 C210.7067 376.5012 210 365 210 365 "/>
<path id="14" d="M193 378 C193 378 191.2003 394.4562 192 395 C193.969 396.3389 215.2434 396.1662 218 395 C218.4934 394.7912 219.1557 388.3916 218 384 C217.0213 380.2808 213 376 213 376 "/>
<path id="15" d="M211 366 L204 353 "/>
<path id="16" d="M340 254 C340 254 330.0841 264.7476 327 274 C324.5918 281.2245 325.3893 284.9467 327 293 C328.0342 298.1711 330.9401 298.3352 333 304 C336.7789 314.392 337.837 315.0965 339 326 C341.7336 351.6278 341 378.9996 341 379 C341 379.0001 341.4339 368.2123 342 368 C344.4575 367.0784 363.0017 368.1754 365 370 C366.3964 371.275 366.253 387.9976 365 389 C362.8732 390.7014 352.001 390 340 390 C338.0798 390 336.4825 389.4825 336 389 C335.7105 388.7105 335.4783 386.8198 336 386 C338.1659 382.5965 341.197 381.8314 343 378 C344.5119 374.7872 344 369 344 369 "/>
<path id="17" d="M367 368 C367 368 365.515 345.8205 367 328 C367.3094 324.2874 370.05 323.8 371 320 C371.8444 316.6223 371.9349 315.4281 371 312 C369.1726 305.2996 365.5072 304.4663 365 298 C363.7087 281.5363 367 261 367 261 "/>
<path id="18" d="M404 190 C404 190 398.3598 201.3527 395 213 C390.9662 226.9837 394.6698 230.8703 389 242 C382.8629 254.0468 379.1244 255.1846 368 266 C361.5526 272.2683 353 277 353 277 "/>
<path id="19" d="M384 259 C384 259 390.1577 269.8922 391 280 C392.9871 303.845 387.9417 306.594 390 331 C391.3209 346.6624 394.9228 346.9988 398 363 C399.8703 372.7255 400.9531 382.1994 400 383 C398.2071 384.506 375.189 385.3783 373 384 C372.0592 383.4077 371.2154 367.716 373 366 C376.3749 362.7549 399 359 399 359 "/>
<path id="20" d="M374 366 C374 366 373.4273 351.8302 371 339 C370.0529 333.9937 367 329 367 329 "/>
<path id="21" d="M303 183 C303 183 305.9478 172.9956 306 173 C306.239 173.0199 314.9978 184.0016 315 184 C315.0184 183.9869 312.9919 168.0081 313 168 C313.0023 167.9977 316.401 174.7466 320 179 C321.1451 180.3533 323.9897 181.0393 324 181 C324.2322 180.1175 324.882 160.1072 325 160 C325 160 334.9938 171.0049 335 171 C335.0784 170.9373 334.8605 152.061 335 152 C335.1805 151.921 350.7407 164.0915 351 164 C351.1621 163.9428 351.9704 146.0042 352 146 C352.0888 145.9873 364.9829 162.0195 365 162 C365.1212 161.8615 365.9397 130.0172 366 130 C366.0747 129.9786 385.9975 155.9983 386 156 C386.0014 156.0009 380.0902 146.6222 378 138 C376.4276 131.5137 377.7802 123.1978 378 123 C378.0749 122.9326 384.4603 125.2917 388 129 C394.0341 135.3215 398.999 145.0036 399 145 C399.0019 144.9931 390.9929 117.9986 391 118 C391.0153 118.0031 413.9712 147.9932 414 148 C414.0116 148.0027 409.9716 134.8157 408 122 C407.048 115.8119 407.9728 108.9864 408 109 C408.1109 109.0554 424 130 424 130 "/>
<path id="22" d="M404 130 C404 130 397.9976 115.004 398 115 C398.001 114.9984 407 125 407 125 "/>
<path id="23" d="M244 170 C244 170 240.7177 174.6939 240 179 C238.8863 185.6819 238.9678 187.0329 240 194 C240.8665 199.849 241.1221 200.7837 244 206 C248.7849 214.6727 251.3436 214.1307 256 223 C261.5407 233.5537 263.389 234.9019 265 246 C267.5849 263.8071 265 285 265 285 "/>
<path id="24" d="M258 178 C258 178 254.0879 192.0767 256 201 C257.8093 209.4433 263.5074 210.52 267 220 C270.0461 228.2679 269.6323 229.623 270 239 C270.6148 254.6764 271.2028 256.2095 269 271 C267.911 278.3121 263 286 263 286 "/>
<path id="25" d="M343 267 C343 267 346.4936 261.3798 351 258 C359.8601 251.3549 365.9732 250.2728 371 246 C371.7074 245.3987 371 241 371 241 C370.9464 241 368.1779 245.3194 366 246 C362.3495 247.1408 358.8311 245.179 355 246 C353.7313 246.2719 353.2631 247.358 352 249 C348.3389 253.7595 347.0081 253.8884 345 259 C341.9175 266.8463 341 277 341 277 "/>
<path id="26" d="M290 275 C290 275 295.9961 247.8166 294 227 C292.9078 215.6095 282.9984 202 283 202 C283.0028 202 297.6847 215.1614 303 227 C306.8947 235.6745 306.5132 240.4077 305 251 C303.3227 262.7408 299.2817 263.9672 296 276 C295.0438 279.5062 296 284 296 284 "/>
<path id="27" d="M315 186 C315 186 312.1616 196.1505 314 202 C316.6689 210.4919 322.5833 211.7262 326 221 C328.8792 228.815 328 240 328 240 "/>
<path id="28" d="M333 184 C333 184 330 187.8615 330 191 C330 213.4179 334.0203 217.8731 333 241 C332.6263 249.4705 327 259 327 259 "/>
<path id="29" d="M419 162 C419 162 424.2947 161.2947 425 162 C426.6456 163.6456 429.1225 171.8163 429 172 C428.9054 172.142 422.1788 172.2226 419 171 C417.6108 170.4657 416.4953 168.8163 416 167 C415.2803 164.3613 416 160 416 160 "/>
<path id="30" d="M423 167 L421 169 "/>
<path id="31" d="M426 171 C426 171 427.0191 172.9809 427 173 C426.9427 173.0573 424.3086 173.36 424 173 C422.8513 171.6599 421 166.3214 421 166 C421 166 423.9007 165.8346 424 166 C424.2757 166.4596 424 171 424 171 "/>
<path id="32" d="M229 226 C229 226 234.8743 234.8343 235 242 C235.3194 260.2031 228.611 267.4434 230 283 C230.5443 289.0966 240 298 240 298 "/>
<path id="33" d="M253 295 C253 295 250.0169 294.322 249 293 C245.8723 288.934 243.4075 286.89 243 282 C241.6948 266.3379 248.4878 258.0792 245 245 C242.3411 235.0292 227 222 227 222 "/>
<path id="34" d="M222 160 C222 160 218.2804 165.0919 217 170 C215.498 175.7576 215.0465 179.758 216 183 C216.4326 184.4709 221.0783 185.0414 222 187 C223.8831 191.0017 223.7784 199.7151 224 200 C224.0017 200.0022 227.681 197.9785 229 196 C230.0193 194.4711 229.8096 193.4748 230 191 C230.3 187.1004 230.869 186.2586 230 183 C229.1238 179.7142 226.7725 179.2829 226 176 C225.0273 171.866 225.1706 170.147 226 166 C226.4645 163.6777 229 161 229 161 "/>
<path id="35" d="M205 179 C205 179 201.3573 197.216 203 212 C204.097 221.8727 208.947 222.5481 211 233 C214.2371 249.4799 215.67 254.6403 214 268 C213.3188 273.45 205 281 205 281 C205 281 209.3097 277.1753 210 274 C211.3657 267.7176 210.9229 265.3834 210 258 C209.5169 254.1353 209.2601 253.0577 207 250 C201.3931 242.4142 198.0663 242.8527 193 235 C188.811 228.507 188.3291 226.753 187 219 C185.5171 210.3495 184.2591 206.5477 187 200 C191.5491 189.1327 205 176 205 176 "/>
<path id="36" d="M168 163 C168 163 161.4078 175.2275 158 187 C156.1894 193.2548 155.2519 196.3385 157 201 C159.9348 208.8263 169.9938 218.9966 170 219 C170.003 219.0017 166.9085 212.3592 166 206 C164.9959 198.9714 163.9037 196.3215 166 191 C169.2313 182.7974 172.0465 180.9468 179 173 C182.0773 169.4831 184.8616 169.8512 187 167 C188.2028 165.3962 188 161 188 161 "/>
<path id="37" d="M345 241 C345 241 346.7195 215.0367 344 196 C343.2771 190.9396 337 185 337 185 C337 185 347.7727 194.2901 350 202 C353.0047 212.401 351.0706 216.796 350 230 C349.6466 234.3588 347 239 347 239 "/>
<path id="38" d="M356 177 C356 177 354.5209 185.4496 356 192 C357.7336 199.6773 358.9834 200.971 363 208 C364.5779 210.7614 367.3146 210.65 368 213 C370.0784 220.1258 369.9695 231.878 370 232 C370.0039 232.0156 371.7757 230.4358 372 229 C373.9957 216.2272 376.7301 210.628 375 200 C374.0517 194.1745 367.3984 192.7956 365 186 C362.1669 177.973 363 166 363 166 "/>
<path id="39" d="M388 160 C388 160 385.0007 171.0048 386 178 C386.6125 182.2874 391.3213 183.7583 392 188 C392.909 193.6815 390 203 390 203 C390 203 392.5589 195.911 393 189 C394.0258 172.9297 393 156 393 156 "/>
<path id="40" d="M402 158 C402 158 401.7853 165.2016 404 170 C407.1902 176.912 410.8098 177.088 414 184 C416.2147 188.7984 415.9999 196.0002 416 196 C416.0002 195.9998 417.6258 187.6512 416 181 C412.4569 166.5054 405 151 405 151 "/>
<path id="41" d="M135 276 C135 276 150.0763 268 153 268 C153.8121 268 155.2093 273.2093 158 276 C159.932 277.932 163.9941 279.0138 164 279 C164.2351 278.4514 164.9085 268.0564 164 262 C163.8156 260.7709 162.0303 259.0515 161 259 C155.4722 258.7236 149.2908 258.2566 144 261 C139.2415 263.4673 138.6057 269.0084 134 273 C132.6755 274.1479 129 274 129 274 "/>
<path id="42" d="M120 245 C120 245 127.5805 246.495 133 245 C140.5901 242.9062 141.538 239.8427 149 237 C150.9588 236.2538 153.142 236.1872 154 237 C159.3284 242.048 161.1054 249.4313 168 255 C171.4845 257.8144 180 258 180 258 C180 258 175.4381 258.4629 173 257 C164.5308 251.9185 162.9237 247.2666 155 243 C152.5179 241.6635 149.0371 241.7551 147 243 C142.7419 245.6021 141.6392 251.07 137 254 C134.3635 255.6652 128 255 128 255 "/>
<path id="43" d="M128 255 L127 255 "/>
<path id="44" d="M126 255 L125 255 "/>
<path id="45" d="M195 284 C195 284 196.0925 255.0219 194 250 C193.5237 248.857 183.7871 250.4698 180 248 C175.675 245.1793 170.9994 235.0013 171 235 C171.0003 234.9995 176.3396 241.1698 182 244 C188.2082 247.1041 191.5489 245.7554 197 248 C198.0594 248.4362 198.8314 249.5947 199 251 C201.4712 271.593 203 298 203 298 "/>
<path id="46" d="M126 216 C126 216 132.292 215.9042 136 218 C142.4021 221.6186 143.767 227.318 149 229 C153.5436 230.4604 157.8648 229.134 164 227 C167.9429 225.6286 172.0346 221.0195 172 221 C171.808 220.892 157.4076 220.0906 148 218 C146.6016 217.6892 145.3982 216.3937 145 215 C143.8349 210.9221 145.5843 208.0739 144 204 C142.7017 200.6614 138 197 138 197 "/>
<path id="47" d="M452 218 C452 218 447.1527 217.3817 447 217 C446.5623 215.9058 447.375 208.5 448 208 C448.625 207.5 456.061 208.2697 457 209 C457.4482 209.3486 457.4705 213.9023 457 215 C456.8208 215.4182 454 216 454 216 "/>
<path id="48" d="M428 201 C428 201 432.3878 190.9566 436 189 C440.1209 186.7679 450.2554 187.891 452 188 C452.0137 188.0009 452.324 189.352 452 190 C451.109 191.782 450.6009 193.1996 449 194 C444.9978 196.0011 441.6508 194.6377 438 197 C434.847 199.0402 434.8512 202.8616 432 205 C430.3962 206.2028 426 206 426 206 "/>
<path id="49" d="M436 171 C436 171 437.2509 163.8591 436 161 C434.8664 158.4089 430.9209 157.8813 429 155 C427.7994 153.1992 427.9822 148.9904 428 149 C428.0883 149.0476 438.1237 156.0563 442 162 C443.8658 164.8609 443.5247 168.0649 443 172 C442.7128 174.1537 440 177 440 177 "/>
<path id="50" d="M433 183 C433 183 427.1423 184.2346 426 186 C423.4834 189.8893 421.9868 199.989 422 200 C422.0043 200.0036 427.9257 195.7011 432 191 C433.9834 188.7115 435 185.9476 435 185 C435 184.6841 432 183 432 183 "/>
<path id="51" d="M429 205 L430 202 "/>
<path id="52" d="M130 202 C130 202 118.7397 203.5996 113 208 C106.0823 213.3036 105.4319 216.2486 100 225 C96.7274 230.2725 95.3678 231.2995 95 237 C92.5806 274.5008 97.629 283.1619 94 318 C93.2869 324.8459 90.1685 328.2622 85 333 C80.1344 337.4601 69.9984 339.9984 70 340 C70.0036 340.0036 86.5015 341.0612 90 338 C95.5896 333.1091 101.9934 312.0053 102 312 C102.0033 311.9974 99.9142 329.8928 100 330 C100 330 106.3488 326.2129 110 322 C112.1031 319.5733 112.6294 318.335 113 315 C114.0106 305.9045 112.9999 295.0009 113 295 C113 294.9998 113.9935 300.0026 114 300 C114.0443 299.9823 116.8654 296.5658 118 293 C120.1881 286.1231 121 285.1883 121 278 C121 262.665 118 246 118 246 "/>
</g>
</g>
</svg>
