<?xml version="1.0" encoding="utf-8"?>
<!DOCTYPE svg PUBLIC "-//W3C//DTD SVG 1.1//EN" "http://www.w3.org/Graphics/SVG/1.1/DTD/svg11.dtd">
<svg viewBox="0 0 800 800" preserveAspectRatio="xMinYMin meet" xmlns="http://www.w3.org/2000/svg" version="1.1">
<g fill="none" stroke="black" stroke-linecap="round" stroke-linejoin="round" stroke-width="1.6753">
<g transform="translate(87.52,172.579) scale(1.7907) translate(-85,-111)">
<path id="0" d="M161 130 C161 130 164.2252 129.9078 166 131 C169.89 133.3939 170.4562 134.1412 174 138 C192.7674 158.4356 195.9559 176.3099 211 180 C249.5673 189.4599 275.129 176.5713 333 177 C339.1818 177.0458 340.6658 178.0905 346 181 C350.6954 183.5611 351.6504 184.5339 355 189 C360.1663 195.8884 358.5466 198.4559 364 205 C370.343 212.6116 374.4091 211.0551 380 219 C392.2802 236.4508 389.983 241.4895 402 259 C406.3449 265.3312 408.7136 267.2759 415 270 C421.3218 272.7395 428.9952 270.2604 432 272 C433.1932 272.6908 433.2612 276.5669 434 281 C434.2375 282.4249 434.1875 283.8125 434 284 C433.8125 284.1875 431.6222 284.5091 431 284 C427.8133 281.3927 427.385 277.6985 423 275 C415.7747 270.5536 411.2292 272.5521 405 268 C400.481 264.6976 401.3648 260.6558 397 256 C394.6357 253.4781 392.6641 254.4738 390 252 C386.1814 248.4542 385.7481 247.5802 383 243 C381.501 240.5017 382.6546 238.3693 381 237 C371.0481 228.7639 354.2397 219.0208 354 219 C353.9548 218.9961 357.1243 227.1187 358 235 C359.065 244.5853 357.0233 245.2333 358 255 C359.4894 269.8943 361.861 270.0301 363 285 C365.3302 315.6254 366.8346 340.3089 365 347 C364.8445 347.5672 346.5664 348.0479 346 347 C343.9295 343.1696 347.3538 327.8887 345 310 C342.4527 290.6407 339.5146 290.4902 336 271 C334.0654 260.2717 335.8084 258.7656 334 249 C333.5509 246.5748 331.9228 244.0416 331 244 C300.0978 242.608 241.7402 238.9483 223 244 C220.3353 244.7183 218.2458 259.4118 216 275 C209.7949 318.0708 211.1989 319.4638 206 362 C205.816 363.5054 205.3898 364.8701 205 365 C203.4408 365.5197 200.0494 365.7624 197 365 C195.1894 364.5474 192.9861 362.8591 193 362 C193.2789 344.7099 197.2145 332.3256 198 303 C198.7033 276.7429 196.6695 257.0963 196 250 C195.9964 249.9622 193.1203 250.2105 193 250 C192.4688 249.0705 193.3209 245.3116 192 243 C190.0809 239.6416 188.7706 238.828 185 236 C181.0755 233.0566 178.3754 233.3754 176 231 C174.982 229.982 176.1496 227.7245 175 226 C170.8748 219.8123 167.458 219.3839 164 213 C161.796 208.9311 163.9987 205.3978 162 202 C160.2427 199.0126 156.0407 199.231 154 196 C151.1334 191.4612 151.9635 185.7489 150 183 C149.3455 182.0837 146.0356 181.2245 144 182 C128.6121 187.862 125.4416 192.175 108 199 C103.7507 200.6628 98.8766 200.9909 98 200 C93.6987 195.1377 89.8176 185.5999 85 173 C83.9452 170.2412 83.8382 167.9363 85 166 C88.3525 160.4124 90.4557 157.3628 97 153 C105.5497 147.3002 108.4404 149.5579 118 144 C129.4071 137.368 131.7587 136.773 140 128 C145.7212 121.9097 148.9773 111.0202 149 111 C149.0075 110.9933 147.7309 118.4771 149 120 C152.0316 123.638 164 129 164 129 "/>
<path id="1" d="M158 125 C158 125 163.9687 117.1674 168 114 C168.8649 113.3204 172.0016 113.9855 172 114 C171.9653 114.3122 166.9999 122.9997 167 123 C167.0001 123.0002 169.9421 117.3455 173 116 C179.9913 112.9238 190.5877 111.777 192 112 C192.085 112.0134 192.8028 117.3944 192 119 C191.3692 120.2615 187.8911 120.7524 187 122 C186.4576 122.7594 187 126 187 126 C187.0001 126 187.5524 122.199 188 122 C189.2892 121.427 195.9532 121.8597 196 122 C196.187 122.5611 192 134 192 134 C192 134 193.1327 129.6195 194 129 C194.7783 128.444 198.9986 128.9777 199 129 C199.0703 130.1252 195.0032 144.9588 195 145 C194.9994 145.0082 196.6826 142.494 198 142 C199.5968 141.4012 202.9638 141.8644 203 142 C203.3995 143.4983 201.9474 156.7897 202 157 C202.0071 157.0285 204.1837 154.4953 206 154 C208.6387 153.2803 212.8445 153.7823 213 154 C213.1733 154.2426 210.9948 160.9922 211 161 C211.0012 161.0018 213.0676 157.8052 215 157 C217.8702 155.8041 222.6921 155.7801 223 156 C223.1388 156.0992 223.2028 160.3962 222 162 C219.8616 164.8512 216.4215 164.6471 214 168 C210.7904 172.4441 209 180 209 180 "/>
<path id="2" d="M171 140 C171 140 171.227 151.2637 170 162 C169.2597 168.4778 169.1625 169.4392 167 175 C165.9993 177.5732 162.9999 180.001 163 180 C163.0003 179.9976 164.8209 173.4232 168 168 C173.1175 159.2702 174.0925 158.0152 180 151 C181.17 149.6106 183.7 149.4 184 149 C184.075 148.9 183 147 183 147 "/>
<path id="3" d="M184 161 C184 161 185.5116 171.4341 184 180 C182.7224 187.2399 177.9998 195.0002 178 195 C178.0004 194.9994 196 165 196 165 "/>
<path id="4" d="M201 178 C201 178 200.7514 190.5783 199 197 C198.6334 198.3441 195.8301 198.3398 195 200 C192.0947 205.8107 189.9946 215.0043 190 215 C190.0162 214.9869 216 183 216 183 "/>
<path id="5" d="M225 184 C225 184 222 229.9989 222 230 C222 230.0004 222.6028 219.7945 226 213 C229.3078 206.3843 234.3704 206.2706 237 200 C239.8126 193.2929 239 182 239 182 "/>
<path id="6" d="M248 182 C248 182 247.3965 209.7709 247 214 C246.9977 214.0247 245.0172 213.931 245 214 C244.5774 215.6905 244 226 244 226 C244 226 243.4361 221.9868 244 221 C244.4833 220.1542 247.1519 220.3251 248 219 C253.7058 210.0847 255.8155 207.3578 260 196 C262.4014 189.4818 262 181 262 181 "/>
<path id="7" d="M273 181 C273 181 273.9934 226.9786 274 227 C274.0025 227.0082 278.6949 216.9886 281 207 C283.0754 198.0067 282.1771 197.4628 283 188 C283.1717 186.0259 283.2 184.4 283 184 C282.95 183.9 281 184 281 184 "/>
<path id="8" d="M297 180 C297 180 300.4492 186.6658 301 193 C302.3617 208.66 300.9999 225.9989 301 226 C301 226.0003 300.9736 219.458 303 215 C305.4904 209.5211 309.7895 209.1109 311 204 C313.5568 193.2045 312 177 312 177 "/>
<path id="9" d="M323 180 C323 180 324.2479 194.5848 323 208 C322.3149 215.365 318.9975 223.0004 319 223 C319.0054 222.9992 323.85 214.134 330 207 C336.0502 199.9818 339.4181 200.3001 344 194 C346.0663 191.1588 346 185 346 185 "/>
<path id="10" d="M356 192 C356 192 353.0727 202.9113 348 212 C341.3794 223.8619 332.0002 234.9997 332 235 C331.9999 235.0001 333.1086 230.2941 335 229 C340.5342 225.2134 343.8091 226.3581 351 222 C359.8379 216.6437 368 209 368 209 "/>
<path id="11" d="M358 236 C358 236 357.3769 243.6327 355 247 C352.7617 250.171 346 252.9788 346 253 C346 253 352.408 252.136 355 253 C356.248 253.416 358.1738 256.6716 358 257 C356.6051 259.6349 346.0138 269.8209 346 270 C345.9992 270.0109 352.7163 269.1433 357 270 C358.7913 270.3583 360.1631 271.7446 361 273 C361.4431 273.6646 361.4642 275.5358 361 276 C358.3695 278.6305 353.4786 280.2736 351 283 C350.3839 283.6778 350.779 286.9116 351 287 C353.1824 287.8729 363.7408 288.2469 366 289 C366.1442 289.0481 366.5463 291.3171 366 292 C360.573 298.7838 355.427 302.2162 350 309 C349.4537 309.6829 350 312 350 312 C351.571 312 366.4483 308.9138 368 309 C368.0193 309.0011 368.6253 311.7494 368 313 C366.6712 315.6576 365.8114 316.5634 363 319 C358.5716 322.838 352.9975 325.9924 353 326 C353.0021 326.0062 364.9917 324.9723 365 325 C365.0265 325.0884 359.1721 331.4181 356 336 C355.6318 336.5318 355.9906 338.0024 356 338 C356.0894 337.9776 360 335 360 335 "/>
<path id="12" d="M250 241 C250 241 251.9754 241.086 252 241 C252.6268 238.8061 251.741 232.9555 254 227 C256.8185 219.5695 259.8308 219.2891 263 212 C264.4134 208.7492 264 204 264 204 C264 204.0001 264.1788 225.2832 263 241 C262.8998 242.3353 261 244 261 244 "/>
<path id="13" d="M275 240 C275 240 281.8686 232.7363 285 225 C289.9045 212.883 291.9994 197.998 292 198 C292.0012 198.0037 291 244 291 244 "/>
<path id="14" d="M308 241 C308 241 313.9999 212.0003 314 212 C314.0001 211.9998 311.4517 221.6131 313 228 C314.8848 235.7749 322 245 322 245 "/>
<path id="15" d="M166 205 C166 205 183.8908 203.7816 184 204 C184.1979 204.3958 175 223 175 223 "/>
<path id="16" d="M181 232 C181 232 185.556 232.9776 188 232 C191.631 230.5476 193.2042 229.5787 196 226 C204.9652 214.5246 212.9768 200.0116 213 200 C213.0097 199.9952 213.4487 211.2403 210 219 C204.3086 231.8056 193 245 193 245 "/>
<path id="17" d="M196 252 C196 252 212.903 242.9596 213 243 C213.0061 243.0025 211.3145 251.9008 208 257 C205.848 260.3108 202.24 260.76 200 263 C199.68 263.32 199.9826 264.9986 200 265 C201.2438 265.1037 211.8861 263.8372 212 264 C212.1155 264.165 210.1106 270.5934 207 275 C204.6576 278.3183 199.987 280.9697 200 281 C200.0229 281.0534 208.572 281.5716 210 282 C210.0832 282.025 210.3388 283.2741 210 284 C207.2446 289.9044 206.8959 291.4808 203 297 C201.365 299.3163 197.9996 300.9996 198 301 C198.0019 301.0019 204.9979 298.9727 205 299 C205.0209 299.2717 199.0049 313.991 199 314 C198.9989 314.002 198.9895 309.9983 199 310 C199.1076 310.0179 202.9617 312.2822 205 315 C206.9847 317.6463 208.3989 321.2022 208 322 C207.1297 323.7406 201.641 325.69 198 329 C197.1707 329.7539 196.9656 331.9794 197 332 C197.2578 332.1547 202.5891 331.5304 203 332 C203.6946 332.7939 204.825 338.0751 204 340 C203.0194 342.2881 198.8892 343.571 197 346 C196.5048 346.6367 197 349 197 349 "/>
<path id="18" d="M134 145 C134 145 143.3034 147.209 144 147 C144.1112 146.9667 144.2809 142.1756 144 142 C143.2809 141.5506 137.0933 141.3926 136 142 C135.4837 142.2868 135 147 135 147 "/>
<path id="19" d="M133 184 C133 184 132.621 179.6663 134 178 C142.4899 167.7414 147.3288 166.9279 157 155 C161.5689 149.365 163.9843 141.0112 164 141 C164.0059 140.9958 165.4523 147.3189 164 150 C160.4433 156.5662 156.2546 157.118 151 165 C146.6335 171.5498 144 180 144 180 "/>
<path id="20" d="M109 149 C109 149 108 177.9996 108 178 C108 178.0002 108.196 171.6388 110 167 C111.37 163.4771 114.2018 163.1929 115 160 C116.2578 154.9688 115 147 115 147 "/>
<path id="21" d="M123 143 C123 143 123 172 123 172 C123 172 121.8831 166.4675 123 162 C126.6298 147.4807 133 132 133 132 "/>
<path id="22" d="M148 126 C148 126 150.9926 123.9777 151 124 C151.0818 124.2454 151.0388 134.8966 151 135 C150.9934 135.0176 149.3114 132.4371 148 132 C146.0329 131.3443 141.9987 132.009 142 132 C142.012 131.9159 149 125 149 125 "/>
<path id="23" d="M229 246 C229 246 229.2766 335.9727 227 349 C226.9384 349.3525 211.5695 349.3067 211 349 C210.9726 348.9853 213.8709 345.0985 214 342 C214.3065 334.6434 212 325 212 325 "/>
<path id="24" d="M325 246 C325 246 323.2958 267.572 325 287 C325.6833 294.7895 329.2199 295.1993 330 303 C331.6074 319.0742 329.0404 331.4022 330 337 C330.0573 337.334 334.093 338.6357 336 338 C339.7017 336.7661 345 332 345 332 "/>
<path id="25" d="M229 267 C229 267 229.9841 271.146 229 274 C225.4222 284.3755 223.09 285.7751 219 296 C218.5281 297.1798 218.9415 298.9883 219 299 C219.9551 299.191 228.098 297.7294 229 298 C229.1116 298.0335 229.7351 300.994 229 302 C222.4049 311.0249 209.988 323.7481 210 324 C210 324.0006 229.9164 322.9468 230 323 C230.0169 323.0107 223.4515 327.7313 221 331 C220.3352 331.8864 220.9351 334.9856 221 335 C221.6249 335.1389 230 333 230 333 "/>
</g>
</g>
</svg>
