<?xml version="1.0" encoding="utf-8"?>
<!DOCTYPE svg PUBLIC "-//W3C//DTD SVG 1.1//EN" "http://www.w3.org/Graphics/SVG/1.1/DTD/svg11.dtd">
<svg viewBox="0 0 800 800" preserveAspectRatio="xMinYMin meet" xmlns="http://www.w3.org/2000/svg" version="1.1">
<g fill="none" stroke="black" stroke-linecap="round" stroke-linejoin="round" stroke-width="2.2417">
<g transform="translate(87.52,148.4101) scale(1.3382) translate(-175,-88.6667)">
<path id="0" d="M175 217.6667 C175 217.6667 194.4423 183.8148 195 182.6667 C195.0182 182.6293 192.0334 182.7502 192 182.6667 C191.8719 182.3463 191.8784 179.5647 193 177.6667 C197.8327 169.4882 200.4206 167.9174 205 160.6667 C205.3726 160.0767 205 158.6667 205 158.6667 C204.8472 158.6667 201.1528 160.6667 201 160.6667 C201 160.6667 201 158.6667 201 158.6667 "/>
<path id="1" d="M177 217.6667 C177 217.6667 181.068 234.3602 185 238.6667 C186.9267 240.7769 194.7367 242.0473 198 240.6667 C202.9672 238.5652 206.301 233.7082 211 227.6667 C212.1747 226.1563 211.494 223.2991 212 222.6667 C212.2094 222.405 214.7431 223.0421 215 222.6667 C218.2343 217.9397 225 203.6667 225 203.6667 "/>
<path id="2" d="M207 163.6667 C207 163.6667 205.4605 153.1342 207 144.6667 C208.2228 137.9413 208.7189 135.7764 213 130.6667 C222.888 118.8649 225.1437 118.493 238 107.6667 C243.963 102.6452 244.3814 102.1199 251 98.6667 C255.3257 96.4098 255.9866 97.0991 261 95.6667 C262.979 95.1012 265 94.6641 265 94.6667 C265 94.6768 260.9954 98.6674 261 98.6667 C261.0166 98.6639 269.1494 93.52 277 92.6667 C313.0348 88.7498 315.048 89.2194 353 88.6667 C417.861 87.7221 421.8336 85.4083 483 89.6667 C496.4946 90.6062 501.0572 95.0267 511 99.6667 C512.1769 100.2159 511.9528 102.9187 513 103.6667 C514.232 104.5467 517.0417 103.557 518 104.6667 C523.9629 111.5711 526.8479 114.7443 532 125.6667 C538.941 140.3817 540.077 153.9811 543 157.6667 C543.4678 158.2565 554.3362 154.1357 555 154.6667 C556.0371 155.4964 557.555 162.25 558 169.6667 C559.026 186.7669 557.7508 200.3059 558 204.6667 C558.0008 204.6809 559.9389 204.5293 560 204.6667 C560.6794 206.1953 559.7633 210.9463 562 213.6667 C575.6118 230.2216 584.8327 235.7612 597 249.6667 C597.7305 250.5015 596.3181 252.6817 597 253.6667 C599.5966 257.4173 601.083 258.9789 606 262.6667 C614.7413 269.2226 615.867 268.3438 625 274.6667 C628.7304 277.2492 630.1108 278.2377 632 280.6667 C632.4952 281.3034 631.5611 283.2278 632 283.6667 C633.902 285.5687 638.4942 286.5962 640 288.6667 C640.8351 289.815 639.9743 294.6152 640 294.6667 C640.0043 294.6753 642.0003 292.6665 642 292.6667 C641.9972 292.6682 629.3629 303.4374 620 305.6667 C612.8046 307.3799 608.5689 305.931 600 302.6667 C589.0766 298.5054 587.0764 293.5565 578 289.6667 C576.1659 288.8806 572.8824 290.9188 572 290.6667 C571.7132 290.5847 571.8267 288.2867 571 287.6667 C562.2882 281.1328 555.4977 280.4321 548 272.6667 C544.206 268.7372 543.0256 258.655 543 258.6667 C542.4755 258.9051 536.0099 274.6259 526 282.6667 C508.3187 296.8697 504.2342 296.7206 482 307.6667 C472.3469 312.419 471.2237 312.6219 461 314.6667 C454.6102 315.9446 451.5439 316.805 447 314.6667 C438.065 310.462 427.6063 298.404 427 298.6667 C425.953 299.1204 421.0389 312.9991 417 327.6667 C411.597 347.2881 409.4434 347.8919 408 367.6667 C404.5537 414.8811 407.0047 464.5194 407 464.6667 C406.9998 464.6726 406.2578 461.4528 405 460.6667 C400.0387 457.5659 391.2906 456.5666 391 454.6667 C388.1858 436.2662 389.1202 414.3842 392 375.6667 C393.5513 354.8107 396.911 354.6032 400 333.6667 C401.3698 324.3827 402.6621 316.7443 401 314.6667 C398.9178 312.064 384.7458 308.1582 380 308.6667 C378.1433 308.8656 375.2308 312.8529 373 317.6667 C366.1566 332.434 365.2961 333.4028 361 349.6667 C351.4443 385.8417 355.4229 388.9237 345 423.6667 C341.0054 436.9819 338.8815 438.0021 331 449.6667 C326.9031 455.7301 325.6302 456.7256 320 460.6667 C316.658 463.0061 311.2382 463.9914 311 463.6667 C308.1861 459.8295 302.0487 446.5499 298 430.6667 C295.9932 422.7936 295.4117 419.2812 298 412.6667 C303.0391 399.7891 308.5247 399.1642 316 384.6667 C324.7692 367.6597 325.2037 366.9472 331 348.6667 C338.0381 326.4697 338.2991 325.4891 342 302.6667 C344.1812 289.2159 345.8943 277.9521 343 274.6667 C337.9331 268.9151 320.0052 261.8768 305 260.6667 C296.0748 259.9469 292.0657 264.2919 281 269.6667 C275.1941 272.4867 270.052 277.6407 270 277.6667 C269.9913 277.671 271.1625 274.813 271 274.6667 C269.4319 273.2554 265.1765 270.2196 260 268.6667 C256.3603 267.5748 254.7112 269.4619 251 268.6667 C248.6732 268.1681 247.0024 267.4566 246 265.6667 C241.3269 257.3219 240.7274 254.8488 237 243.6667 C231.2847 226.5208 227 208.6667 227 208.6667 "/>
<path id="3" d="M223 175.6667 L222 175.6667 "/>
<path id="4" d="M268 98.6667 C268 98.6667 262.004 105.7879 258 113.6667 C246.7007 135.9009 246.3863 136.293 237 159.6667 C220.9552 199.6214 207.0152 240.6151 207 240.6667 C206.9979 240.6739 216 230.6667 216 230.6667 "/>
<path id="5" d="M310 103.6667 C310 103.6667 293.6632 120.1664 282 138.6667 C265.1842 165.3401 265.8169 167.6012 252 195.6667 C250.2703 199.1801 251.3623 200.942 250 203.6667 C249.4702 204.7263 247.4203 204.6579 247 205.6667 C245.5989 209.0292 246.6597 211.5173 245 215.6667 C243.9857 218.2024 241.0006 220.667 241 220.6667 C240.9996 220.6665 243 214.6667 243 214.6667 "/>
<path id="6" d="M348 100.6667 C348 100.6667 341.0322 107.6576 336 115.6667 C305.8442 163.6611 304.7572 164.236 277 213.6667 C268.5623 228.6928 271.2433 230.8856 263 245.6667 C257.1262 256.1991 254.3113 255.2288 248 265.6667 C241.5625 276.3133 237.0158 288.6408 237 288.6667 C236.9973 288.671 236.1779 285.1053 237 283.6667 C239.2314 279.7618 245 274.6667 245 274.6667 "/>
<path id="7" d="M390 113.6667 C390 113.6667 379.2215 127.7552 370 142.6667 C355.801 165.6267 355.0585 165.5497 343 189.6667 C315.1957 245.2753 290 302.6667 290 302.6667 "/>
<path id="8" d="M443 115.6667 C443 115.6667 436.2996 122.1108 432 129.6667 C369.1533 240.1106 307 354.6667 307 354.6667 "/>
<path id="9" d="M482 127.6667 C482 127.6667 426.474 212.1082 373 297.6667 C349.0279 336.022 348.8306 336.5364 327 375.6667 C322.5975 383.5579 320 392.6667 320 392.6667 "/>
<path id="10" d="M511 148.6667 C511 148.6667 492.388 169.5082 477 190.6667 C472.9958 196.1725 475.0117 198.092 471 203.6667 C437.3889 250.3731 400 297.6667 400 297.6667 "/>
<path id="11" d="M512 217.6667 C512 217.6667 485.97 270.8199 458 322.6667 C445.0494 346.6726 442.2944 349.9957 430 369.6667 C429.5711 370.3529 428.0458 370.6896 428 370.6667 C427.9694 370.6514 428 368.6667 428 368.6667 "/>
</g>
</g>
</svg>
