<?xml version="1.0" encoding="utf-8"?>
<!DOCTYPE svg PUBLIC "-//W3C//DTD SVG 1.1//EN" "http://www.w3.org/Graphics/SVG/1.1/DTD/svg11.dtd">
<svg viewBox="0 0 800 800" preserveAspectRatio="xMinYMin meet" xmlns="http://www.w3.org/2000/svg" version="1.1">
<g fill="none" stroke="black" stroke-linecap="round" stroke-linejoin="round" stroke-width="1.6753">
<g transform="translate(182.428,87.52) scale(1.7907) translate(-146,-79.1333)">
<path id="0" d="M148 101.1333 C148 101.1333 154.4735 105.5291 159 111.1333 C175.0687 131.0279 178.0711 130.8876 190 153.1333 C214.2264 198.3122 219.9261 226.721 233 249.1333 C233.8188 250.537 242.1009 250.5698 246 249.1333 C248.5731 248.1854 248.6931 244.338 252 242.1333 C256.7537 238.9642 259.5682 240.2617 264 237.1333 C266.8371 235.1307 268.722 233.1217 269 230.1333 C270.3371 215.7593 271.3096 210.6815 268 194.1333 C264.1784 175.0252 263.5727 172.2844 254 155.1333 C240.5088 130.9616 238.1233 129.8813 220 108.1333 C211.219 97.5962 209.3234 97.4714 199 89.1333 C197.121 87.6157 196.3084 87.2295 194 87.1333 C185.3908 86.7746 183.8064 86.372 175 88.1333 C167.1109 89.7112 159 94.1333 159 94.1333 "/>
<path id="1" d="M148 106.1333 C148 106.1333 145.7432 115.9847 146 116.1333 C147.4622 116.9799 167 117.1333 167 117.1333 "/>
<path id="2" d="M167 126.1333 C167 126.1333 161.0919 126.8118 161 127.1333 C160.5793 128.6058 161.5625 135.8209 163 140.1333 C163.3155 141.08 164.8783 142.1333 166 142.1333 C170.4869 142.1333 178 140.1333 178 140.1333 "/>
<path id="3" d="M199 87.1333 C199 87.1333 210.0919 82.4918 221 80.1333 C228.059 78.6071 234.4499 78.8233 236 79.1333 C236.0838 79.1501 236.6684 81.9875 236 83.1333 C233.9808 86.5948 231.407 86.8352 229 91.1333 C224.7757 98.6768 222 108.1333 222 108.1333 "/>
<path id="4" d="M233 102.1333 C233 102.1333 240.2481 100.8633 247 101.1333 C252.359 101.3477 254.3198 101.7179 258 103.1333 C258.9862 103.5126 259.69 104.6869 260 106.1333 C261.0138 110.8645 261.6716 115.3873 261 117.1333 C260.7275 117.8419 257.2997 117.5523 255 119.1333 C249.9523 122.6036 245 128.1333 245 128.1333 "/>
<path id="5" d="M234 254.1333 C234 254.1333 226.6569 264.8907 225 275.1333 C221.5083 296.7186 222.4213 298.9835 223 322.1333 C223.408 338.4541 222.702 340.6274 227 355.1333 C230.0873 365.5531 231.589 367.9622 239 376.1333 C249.8057 388.0473 251.7981 389.7519 266 398.1333 C281.0112 406.9924 282.8156 406.9033 300 412.1333 C316.6767 417.2088 317.8365 414.7743 335 419.1333 C349.1338 422.7229 349.9549 426.058 363 428.1333 C369.9507 429.2391 372.0915 428.0175 379 426.1333 C381.9608 425.3258 382.8889 424.4555 385 422.1333 C387.375 419.5209 388.2275 418.4162 389 415.1333 C389.9727 410.9993 390.2851 409.5241 389 405.1333 C373.1244 350.8917 373.3325 345.4582 353 292.1333 C347.7885 278.4653 342.5118 279.4282 336 266.1333 C330.9865 255.8974 333.3911 253.7974 329 243.1333 C326.6448 237.4135 325.2461 233.2624 322 232.1333 C309.7847 227.8845 283 227.1333 283 227.1333 "/>
<path id="6" d="M309 306.1333 C309 306.1333 299.5383 304.8108 294 307.1333 C286.4456 310.3013 283.5813 312.7547 278 319.1333 C274.4848 323.1507 274.1798 325.2346 273 331.1333 C271.3483 339.3916 269.9517 344.8905 272 349.1333 C274.1329 353.5516 279.4144 356.7867 287 360.1333 C294.934 363.6336 302.8681 365.5949 306 364.1333 C309.5462 362.4784 314.8544 354.5206 317 346.1333 C319.5771 336.0593 318.5701 332.1242 317 321.1333 C316.3271 316.423 312 311.1333 312 311.1333 "/>
<path id="7" d="M345 297.1333 C345 297.1333 301.4271 318.5513 266 340.1333 C261.2542 343.0245 258 350.1333 258 350.1333 "/>
<path id="8" d="M372 319.1333 C372 319.1333 360.9264 319.4084 351 322.1333 C335.9811 326.2562 335.2193 326.3622 321 333.1333 C293.6374 346.1631 267 362.1333 267 362.1333 "/>
<path id="9" d="M370 352.1333 C370 352.1333 332.8073 360.4556 299 373.1333 C281.9624 379.5224 266 391.1333 266 391.1333 "/>
</g>
</g>
</svg>
