<?xml version="1.0" encoding="utf-8"?>
<!DOCTYPE svg PUBLIC "-//W3C//DTD SVG 1.1//EN" "http://www.w3.org/Graphics/SVG/1.1/DTD/svg11.dtd">
<svg viewBox="0 0 800 800" preserveAspectRatio="xMinYMin meet" xmlns="http://www.w3.org/2000/svg" version="1.1">
<g fill="none" stroke="black" stroke-linecap="round" stroke-linejoin="round" stroke-width="2.2369">
<g transform="translate(87.52,167.987) scale(1.3411) translate(-38,-101.1333)">
<path id="0" d="M38 324.1333 C38 324.1333 34.2144 348.2149 38 366.1333 C40.8995 379.8576 44.1327 382.0658 53 395.1333 C62.6433 409.3444 63.5641 410.8029 76 422.1333 C85.0802 430.4064 86.5961 430.7541 98 436.1333 C112.4279 442.939 113.9348 444.3714 129 447.1333 C142.2325 449.5593 144.5438 448.8885 158 447.1333 C166.2513 446.0571 168.1494 445.5101 175 441.1333 C184.8192 434.86 186.0435 433.0446 194 424.1333 C197.8319 419.8417 198.8099 418.5548 200 413.1333 C202.9622 399.6387 199.1178 395.8151 203 383.1333 C205.8469 373.8334 207.7093 369.6689 215 364.1333 C231.1959 351.8365 244.421 351.2817 257 342.1333 C259.0111 340.6707 258.8807 337.0238 259 332.1333 C259.3677 317.0584 261.0524 309.0695 258 301.1333 C256.6983 297.7488 244 293.1333 244 293.1333 "/>
<path id="1" d="M38 330.1333 C38 330.1333 36.459 323.4721 38 320.1333 C41.319 312.9421 43.8503 307.9317 50 304.1333 C57.0507 299.7785 61.2354 299.9614 72 299.1333 C86.3898 298.0264 91.5531 301.3273 102 300.1333 C103.9476 299.9108 104.6443 296.0167 107 295.1333 C110.8976 293.6717 115.7039 295.9921 118 294.1333 C122.4626 290.5208 124.153 286.3402 128 278.1333 C131.4111 270.8562 129.1066 268.1682 133 262.1333 C137.9975 254.3873 140.0486 252.7763 148 247.1333 C154.5012 242.5196 156.3282 241.9851 164 240.1333 C169.638 238.7724 170.8342 239.1991 177 240.1333 C186.8452 241.625 190.4226 241.7131 197 245.1333 C199.6659 246.5196 199.2215 250.5863 202 253.1333 C204.1966 255.1468 207.4412 254.1291 209 256.1333 C212.774 260.9856 216 271.1333 216 271.1333 "/>
<path id="2" d="M218 270.1333 C218 270.1333 221.141 268.7081 222 267.1333 C223.507 264.3706 222.2256 261.0345 224 259.1333 C227.2731 255.6264 231.348 256.3422 236 252.1333 C241.0386 247.5746 239.903 245.4586 245 240.1333 C273.0671 210.8095 278.2216 204.9759 303 182.1333 C304.5387 180.7149 306.5824 182.3869 309 181.1333 C331.9949 169.21 334.5395 168.624 357 154.1333 C364.6862 149.1745 363.6829 146.987 371 141.1333 C375.9781 137.1509 376.308 136.7604 382 134.1333 C388.9227 130.9382 391.1683 132.3408 397 129.1333 C399.727 127.6335 402 123.1333 402 123.1333 "/>
<path id="3" d="M243 290.1333 C243 290.1333 244.9523 287.0784 247 286.1333 C250.4758 284.5291 253.1244 286.2634 256 284.1333 C264.5963 277.7657 264.5142 274.1819 274 266.1333 C280.6953 260.4524 282.8837 262.1004 289 256.1333 C302.6547 242.8117 300.8791 237.9435 315 226.1333 C326.7138 216.3363 331.2786 219.2201 344 210.1333 C351.2373 204.9638 349.9755 201.1184 357 196.1333 C364.2517 190.987 366.8936 193.1998 375 188.1333 C394.3408 176.0453 393.874 173.374 413 161.1333 C418.259 157.7676 425 156.1333 425 156.1333 "/>
<path id="4" d="M403 120.1333 C403 120.1333 423.1371 120.5354 443 119.1333 C465.4814 117.5464 488 114.1333 488 114.1333 "/>
<path id="5" d="M430 159.1333 C430 159.1333 432.6347 158.7223 433 159.1333 C434.8418 161.2054 435.9568 166.4616 438 168.1333 C438.9916 168.9446 441.8484 169.1765 444 168.1333 C471.0802 155.0035 497.4179 142.3357 504 136.1333 C504.5855 135.5816 500.5737 126.6473 496 119.1333 C493.9814 115.817 490 113.1333 490 113.1333 "/>
<path id="6" d="M425 156.1333 L439 154.1333 "/>
<path id="7" d="M413 103.1333 L418 123.1333 "/>
<path id="8" d="M433 103.1333 L441 121.1333 "/>
<path id="9" d="M454 101.1333 L462 120.1333 "/>
<path id="10" d="M472 101.1333 L476 120.1333 "/>
<path id="11" d="M107 347.1333 C107 347.1333 115.8235 354.6407 122 363.1333 C127.4044 370.5644 131 380.1333 131 380.1333 "/>
<path id="12" d="M106 346.1333 C106 346.1333 118.2688 341.5419 123 342.1333 C125.2581 342.4156 127.3225 345.251 130 349.1333 C137.0099 359.2977 139.1676 361.8716 143 371.1333 C143.9219 373.3613 142.8662 377.4837 142 378.1333 C140.2675 379.4327 131 380.1333 131 380.1333 "/>
<path id="13" d="M128 342.1333 C128 342.1333 143.7086 333.9548 155 325.1333 C158.1535 322.6696 156.9302 320.4078 160 317.1333 C171.4777 304.8905 172.3999 303.8243 185 293.1333 C188.1648 290.4481 189.7138 291.6893 193 289.1333 C198.2579 285.0439 197.6799 282.9334 203 279.1333 C207.522 275.9033 209.3964 277.2832 214 274.1333 C218.3012 271.1904 222 266.1333 222 266.1333 "/>
<path id="14" d="M143 376.1333 C143 376.1333 156.6869 372.5112 163 367.1333 C167.3186 363.4545 165.8351 358.9642 170 353.1333 C172.7871 349.2314 174.9628 350.0638 178 346.1333 C183.0585 339.587 181.529 336.7997 187 331.1333 C194.4699 323.3967 196.2082 322.5732 206 317.1333 C213.4353 313.0026 215.4298 315.0489 223 311.1333 C229.2717 307.8894 230.0305 307.2868 235 302.1333 C243.084 293.7499 250 283.1333 250 283.1333 "/>
</g>
</g>
</svg>
