<?xml version="1.0" encoding="utf-8"?>
<!DOCTYPE svg PUBLIC "-//W3C//DTD SVG 1.1//EN" "http://www.w3.org/Graphics/SVG/1.1/DTD/svg11.dtd">
<svg viewBox="0 0 800 800" preserveAspectRatio="xMinYMin meet" xmlns="http://www.w3.org/2000/svg" version="1.1">
<g fill="none" stroke="black" stroke-linecap="round" stroke-linejoin="round" stroke-width="1.9681">
<g transform="translate(276.5323,87.52) scale(1.5243) translate(-214,-4)">
<path id="0" d="M263 220 C263 220 249.9327 219.0337 244 222 C238.8089 224.5956 233.6432 229.4788 233 235 C228.9412 269.8384 232 325 232 325 "/>
<path id="1" d="M233 321 C233 321 232.1857 333.5271 228 343 C223.2996 353.6376 217.3077 354.3132 214 364 C211.434 371.5148 211.7271 375.9415 214 384 C216.5118 392.9056 225 403 225 403 "/>
<path id="2" d="M225 403 C225 403 228.7668 406.554 232 407 C241.4192 408.2992 243.5027 405.5592 254 407 C268.2958 408.9622 268.7107 412.701 283 414 C306.1434 416.1039 308.5384 417.1342 331 414 C349.5656 411.4094 352.5427 408.5064 369 402 C371.6862 400.938 373.3619 399.1694 374 397 C375.1833 392.9767 374 385 374 385 "/>
<path id="3" d="M311 219 C311 219 317.5863 216.5659 324 216 C334.1538 215.1041 335.0863 215.2657 345 216 C347.9024 216.215 348.7606 216.4496 351 218 C354.5924 220.4871 357.645 222.0888 358 225 C361.4069 252.9366 356.0684 264.0286 361 300 C364.3299 324.2886 371.2235 324.8302 375 349 C378.4791 371.2663 376 396 376 396 "/>
<path id="4" d="M263 220 L276 220 "/>
<path id="5" d="M307 221 L312 218 "/>
<path id="6" d="M278 222 L281 15 "/>
<path id="7" d="M311 218 C311 218 307.0003 223.0237 307 223 C306.9949 222.621 309.4359 183.4849 310 144 C310.9348 78.5605 310 13 310 13 "/>
<path id="8" d="M281 58 C281 58 286.762 60.5651 291 60 C300.0565 58.7925 311 54 311 54 "/>
<path id="9" d="M282 15 C282 15 280.5207 11.1981 281 10 C281.7293 8.1768 283.7527 5.5863 286 5 C292.5095 3.3019 296.872 3.109 304 4 C306.592 4.324 309.2811 6.3226 310 8 C311.0939 10.5525 310 18 310 18 "/>
<path id="10" d="M281 55 C281 55 271.0032 53.0065 271 53 C270.9991 52.9981 279 51 279 51 "/>
<path id="11" d="M278 46 C278 46 272.1146 46.1146 272 46 C271.9618 45.9618 273.1542 42.5639 274 42 C274.725 41.5167 278 42 278 42 "/>
<path id="12" d="M282 39 C282 39 275.7052 36.492 274 35 C273.6108 34.6594 273.7383 32.2094 274 32 C274.6325 31.494 279 31 279 31 "/>
<path id="13" d="M282 20 C282 20 274.0217 17.0651 274 17 C273.9962 16.9885 280 14 280 14 "/>
<path id="14" d="M281 27 C281 27 270.4152 27.2307 270 27 C269.9706 26.9837 271.1444 22.713 272 22 C272.555 21.5375 276 22 276 22 "/>
<path id="15" d="M309 15 C309 15 311.6691 12.5379 314 12 C317.2758 11.244 321.9024 11.922 322 12 C322.0024 12.002 320.4107 15.4122 319 16 C316.1535 17.1861 310 17 310 17 "/>
<path id="16" d="M310 17 C310 17 309.8884 18.9594 310 19 C311.7993 19.6543 320.3731 20.5124 321 21 C321.0943 21.0734 319.8325 25.6216 319 26 C317.2465 26.797 310 26 310 26 "/>
<path id="17" d="M310 31 C310 31 309.9624 32.9942 310 33 C311.5874 33.2442 322.9973 32.9979 323 33 C323.0014 33.0011 314 36 314 36 "/>
<path id="18" d="M314 40 C314 40 322.4932 38.6059 323 39 C323.3835 39.2983 323.9371 44.7508 323 47 C322.2874 48.7103 320.2556 50.0978 318 51 C316.2912 51.6835 313 51 313 51 "/>
<path id="19" d="M283 20 C283 20 301.7962 21.2386 308 21 C308.2677 20.9897 309 19 309 19 "/>
<path id="20" d="M283 36 C283 36 293.2283 37.5627 300 36 C304.1366 35.0454 309 30 309 30 "/>
<path id="21" d="M283 72 L312 73 "/>
<path id="22" d="M281 86 L313 86 "/>
<path id="23" d="M281 104 L308 104 "/>
<path id="24" d="M285 115 C285 115 284.9538 117.9942 285 118 C287.9538 118.3692 309 118 309 118 "/>
<path id="25" d="M280 118 L283 118 "/>
<path id="26" d="M278 141 L312 143 "/>
<path id="27" d="M280 158 L307 159 "/>
<path id="28" d="M280 172 C280 172 282.2757 174.8276 284 175 C294.4257 176.0426 310 175 310 175 "/>
<path id="29" d="M280 188 L303 189 "/>
<path id="30" d="M277 205 L308 205 "/>
<path id="31" d="M303 187 L305 187 "/>
<path id="32" d="M279 219 L275 249 "/>
<path id="33" d="M307 217 C307 217 302.8197 222.7536 302 228 C300.5388 237.3516 302 249 302 249 "/>
<path id="34" d="M274 249 C274 249 269.1695 251.856 268 254 C267.1518 255.555 267.0885 257.9166 268 260 C269.9844 264.5358 271.459 266.9649 275 270 C276.9817 271.6986 278.577 271.7147 282 272 C290.1197 272.6766 293.5543 274.0169 299 272 C303.3898 270.3742 306.1979 266.2032 309 262 C309.8406 260.739 309.7705 258.6694 309 257 C307.3405 253.4044 303 249 303 249 "/>
</g>
</g>
</svg>
