<?xml version="1.0" encoding="utf-8"?>
<!DOCTYPE svg PUBLIC "-//W3C//DTD SVG 1.1//EN" "http://www.w3.org/Graphics/SVG/1.1/DTD/svg11.dtd">
<svg viewBox="0 0 800 800" preserveAspectRatio="xMinYMin meet" xmlns="http://www.w3.org/2000/svg" version="1.1">
<g fill="none" stroke="black" stroke-linecap="round" stroke-linejoin="round" stroke-width="2.4482">
<g transform="translate(87.52,326.4753) scale(1.2254) translate(-121,-142)">
<path id="0" d="M371 190 L538 189 "/>
<path id="1" d="M377 214 L581 213 "/>
<path id="2" d="M525 187 C525 187 566.6845 188.3168 574 187 C574.3912 186.9296 574.0052 178.6632 575 178 C577.7001 176.1999 583.5711 175.4958 592 175 C608.6846 174.0186 626 175 626 175 "/>
<path id="3" d="M583 217 C583 217 582.6582 220.7722 583 221 C584.3243 221.8829 587.5719 222.8032 592 223 C609.5393 223.7795 623.1403 225.3675 628 223 C629.6545 222.194 630.3413 213.4415 631 204 C631.823 192.2038 632.0594 190.2412 631 180 C630.7656 177.734 628 175 628 175 "/>
<path id="4" d="M601 224 C601 224 601.8095 232.3692 601 235 C600.7623 235.7727 597.4189 236.1622 597 237 C596.3717 238.2567 596.8279 242.9139 597 243 C597.4016 243.2008 605.0007 241.001 605 241 C604.9985 240.9977 595 240 595 240 "/>
<path id="5" d="M620 224 C620 224 620.8095 232.3692 620 235 C619.7623 235.7727 616.6641 236.1699 616 237 C615.6169 237.4789 615.8767 239.9538 616 240 C616.8767 240.3288 624 240 624 240 "/>
<path id="6" d="M595 162 L595 171 "/>
<path id="7" d="M595 162 L598 159 "/>
<path id="8" d="M611 161 L611 171 "/>
<path id="9" d="M611 162 L611 161 "/>
<path id="10" d="M370 192 C370 192 371.292 184.9527 370 180 C368.6471 174.814 367.3296 174.1458 364 169 C361.9338 165.8068 361.8381 164.8448 359 163 C352.7656 158.9477 351.0816 156.7995 344 156 C322.9217 153.6202 317.159 153.3562 297 156 C290.5452 156.8465 287.9343 159.3006 283 164 C278.7939 168.0059 278.4794 173.0247 276 176 C275.6524 176.4171 273.7571 176.5608 273 176 C263.2048 168.7443 261.5748 164.1212 249 156 C238.4051 149.1575 237.0786 149.8315 225 145 C219.8113 142.9245 219.3718 142.2984 214 142 C193.3147 140.8508 189.6905 138.6524 171 142 C159.6339 144.0357 157.1756 146.8496 147 154 C139.8347 159.0351 138.4111 160.4643 134 168 C127.1742 179.6607 127.3719 181.548 123 195 C121.0482 201.0056 120.8474 201.7429 121 208 C121.3308 221.5629 120.0181 226.3966 124 236 C126.5605 242.1753 130.5451 244.1077 138 249 C145.6927 254.0483 146.8563 253.8719 156 257 C165.573 260.275 166.1561 261.0885 176 262 C192.356 263.5144 194.5336 264.2913 210 262 C219.637 260.5723 221.4067 259.4685 230 254 C247.8716 242.6272 247.4742 238.2165 265 227 C271.1012 223.0952 272.757 223.9061 280 222 C281.7757 221.5327 282.9248 221.3088 284 222 C288.2432 224.7278 288.688 227.9354 294 231 C300.8047 234.9258 302.1853 236.1195 310 237 C335.8796 239.916 348.7224 241.3254 365 239 C367.8475 238.5932 370.8396 233.5811 373 228 C376.3024 219.4687 377 208 377 208 "/>
<path id="11" d="M205 171 C205 171 201.9568 172.299 201 174 C198.1182 179.1232 197.3099 180.7122 196 187 C194.9738 191.9257 194.7839 194.757 196 198 C196.8015 200.1374 199.5126 202.6315 202 203 C209.6944 204.1399 216.0422 204.0616 223 202 C225.6379 201.2184 227.3005 198.3991 229 195 C230.2747 192.4507 230 191.4212 230 188 C230 181.1576 230.3067 176.6135 229 174 C228.5043 173.0087 225.1484 172 222 172 C217.0526 172 213.5056 171.89 211 174 C207.0909 177.2919 203 188 203 188 "/>
<path id="12" d="M320 193 C320 193 314.6491 195.572 314 197 C313.3684 198.3894 313.9528 203.2146 315 204 C318.1416 206.3562 322.9088 207.9494 330 209 C335.3393 209.791 338.5674 209.5018 342 208 C343.8284 207.2001 345.077 204.769 346 202 C346.7552 199.7344 346.8351 197.1483 346 196 C344.4942 193.9296 341.8764 192.1075 338 191 C332.5378 189.4394 326.6804 188.9127 325 190 C323.3996 191.0355 320.8558 199.8376 321 202 C321.041 202.6143 326 205 326 205 "/>
<path id="13" d="M341 200 L609 200 "/>
<path id="14" d="M344 208 C344 208 466.8413 208.9284 588 208 C596.449 207.9353 605 206 605 206 "/>
<path id="15" d="M339 196 L607 196 "/>
<path id="16" d="M420 190 L419 218 "/>
<path id="17" d="M435 191 L436 207 "/>
<path id="18" d="M466 185 L465 206 "/>
<path id="19" d="M480 191 C480 191 479.6351 206.8108 480 209 C480.0101 209.0608 483 209 483 209 "/>
<path id="20" d="M508 193 L508 202 "/>
<path id="21" d="M552 182 L554 192 "/>
</g>
</g>
</svg>
