<?xml version="1.0" encoding="utf-8"?>
<!DOCTYPE svg PUBLIC "-//W3C//DTD SVG 1.1//EN" "http://www.w3.org/Graphics/SVG/1.1/DTD/svg11.dtd">
<svg viewBox="0 0 800 800" preserveAspectRatio="xMinYMin meet" xmlns="http://www.w3.org/2000/svg" version="1.1">
<g fill="none" stroke="black" stroke-linecap="round" stroke-linejoin="round" stroke-width="1.6465">
<g transform="translate(257.8808,87.52) scale(1.822) translate(-243,-47)">
<path id="0" d="M284 193 C284 193 272.9132 190.6028 267 193 C257.9282 196.6778 252.9994 200.6963 247 208 C244.048 211.5937 244.6209 214.584 244 221 C243.1591 229.6896 243.2719 230.9913 244 239 C244.1691 240.8606 245.0107 242.576 246 243 C249.4247 244.4677 256.082 243.6722 258 245 C258.8377 245.58 259.9257 249.7215 259 252 C254.692 262.6044 247.1591 265.1248 245 277 C240.0333 304.3169 239.6676 315.7642 243 340 C243.9981 347.2592 248.5265 350.9847 256 357 C267.4493 366.2153 269.5853 367.8637 284 373 C311.5216 382.8065 313.6409 382.2632 343 388 C356.459 390.6299 360.4231 392.5384 371 390 C380.7467 387.6608 383.4436 383.5086 393 376 C396.5578 373.2046 398.6361 371.4575 399 368 C401.0661 348.3725 402.456 340.8882 399 319 C396.962 306.0928 394.1962 304.1781 387 292 C381.6653 282.972 377.2988 282.3694 373 275 C371.8043 272.9502 372.0525 270.6846 373 268 C374.6402 263.3527 378.0381 262.6492 379 258 C380.6258 250.142 379.2869 248.4672 379 239 C378.7882 232.0091 379.4032 231.6151 378 225 C375.9984 215.5639 376.5872 211.8716 372 206 C366.6079 199.0982 361.9537 195.7856 353 193 C342.777 189.8195 327 192 327 192 "/>
<path id="1" d="M326 192 C326 192 324.2635 174.6255 325 161 C325.1467 158.2868 327.6323 157.8192 328 155 C328.9781 147.5013 327.0185 145.198 328 138 C328.3123 135.7097 330.901 135.2099 331 133 C332.1949 106.3138 329.7763 80.6364 331 71 C331.0398 70.6867 338.905 70.38 339 70 C339.7125 67.1501 338.2415 47.3912 337 47 C327.467 43.9965 266.0234 46.9997 266 47 C265.999 47 268.9832 47.7978 269 48 C269.146 49.7521 266.6148 58.5763 267 59 C267.4576 59.5034 278.9821 58.8387 279 59 C280.3294 70.965 278 108.5519 278 158 C278 171.9853 277.3063 174.8214 279 186 C279.3373 188.2261 283 191 283 191 "/>
<path id="2" d="M316 272 C316 272 310.0526 270.8553 307 272 C303.8626 273.1765 301.0414 275.2664 300 278 C298.1519 282.8514 297.2978 288.404 299 293 C300.8703 298.0498 304.2262 300.1379 310 305 C313.1101 307.619 314.2102 308.3109 318 309 C324.0795 310.1054 326.1058 310.1227 332 309 C335.2679 308.3775 337.2584 306.9593 339 305 C340.0033 303.8713 338.9027 301.6459 340 300 C342.2591 296.6113 345.7326 296.078 347 293 C348.2825 289.8853 348.5358 285.2524 347 283 C343.5864 277.9934 339.1602 273.5703 332 271 C322.8334 267.7094 308.0121 269.0028 308 269 C307.9968 268.9992 315 267 315 267 "/>
<path id="3" d="M292 66 C292 66 288.7655 77.0923 288 88 C286.7976 105.1345 287.0588 105.7444 288 123 C288.5422 132.941 290.6727 133.0722 291 143 C292.1562 178.0702 289.4454 179.4102 291 214 C291.3981 222.8568 294.1024 223.0236 295 232 C297.0587 252.5872 298.2696 254.3212 297 274 C296.3818 283.5817 292.1985 284.212 291 294 C289.3237 307.6897 291 323 291 323 "/>
<path id="4" d="M278 327 C278 327 349.5079 326.3839 360 326 C360.0094 325.9997 360 324 360 324 "/>
<path id="5" d="M302 70 C302 70 302.3753 85.8715 301 101 C300.4129 107.4584 298.2278 107.6213 298 114 C296.766 148.5526 295.5014 151.0899 298 185 C298.8628 196.7089 300.5022 197.5509 305 209 C311.3714 225.2182 318.0291 225.9368 320 241 C324.3447 274.2063 319 316 319 316 "/>
<path id="6" d="M313 74 C313 74 318.8703 78.1907 319 81 C321.1916 128.4842 315.9716 144.1898 319 204 C319.8717 221.2161 321.4828 222.7548 327 239 C330.1298 248.2156 333.435 247.9504 337 257 C339.6294 263.6747 338.5167 268.0444 340 272 C340.1955 272.5213 342.9832 272.7422 343 273 C343.6329 282.7038 343 318 343 318 "/>
</g>
</g>
</svg>
