<?xml version="1.0" encoding="utf-8"?>
<!DOCTYPE svg PUBLIC "-//W3C//DTD SVG 1.1//EN" "http://www.w3.org/Graphics/SVG/1.1/DTD/svg11.dtd">
<svg viewBox="0 0 800 800" preserveAspectRatio="xMinYMin meet" xmlns="http://www.w3.org/2000/svg" version="1.1">
<g fill="none" stroke="black" stroke-linecap="round" stroke-linejoin="round" stroke-width="1.2001">
<g transform="translate(145.0163,87.52) scale(2.4998) translate(-164,-107)">
<path id="0" d="M250 223 C250 223 232.1546 222.323 222 223 C221.2263 223.0516 220.397 223.9414 220 225 C217.7626 230.9664 216.5955 232.1512 216 239 C214.6718 254.2748 218.1046 269.0707 216 271 C213.3513 273.428 193.8948 269.0437 180 272 C175.0446 273.0543 172.2093 276.186 169 281 C165.3977 286.4035 164.5858 288.7358 164 296 C162.2125 318.1654 161.3611 323.2086 164 343 C164.7898 348.9234 169.0668 355.493 172 356 C192.9458 359.6203 210.1985 357.8386 245 357 C249.8034 356.8843 250.6778 356.1611 255 354 C259.1343 351.9329 262.1649 350.5982 263 348 C265.1748 341.2338 266.2529 334.3972 264 326 C261.6965 317.4143 255.5801 316.0878 252 307 C249.8282 301.4869 249.4324 295.5754 251 293 C253.1224 289.5132 258.4183 287.2493 266 284 C271.7437 281.5384 273.5875 283.4602 279 281 C283.5903 278.9135 284.6872 277.8224 288 274 C290.5667 271.0385 291.6363 269.7284 292 266 C293.4307 251.3356 293.1256 248.3838 292 233 C291.7196 229.1683 291.0596 227.9749 289 225 C287.1291 222.2976 285.5275 220.2747 283 220 C267.5495 218.3206 243 220 243 220 "/>
<path id="1" d="M265 218 C265 218 264.3777 192.096 268 179 C268.9791 175.4602 275.1931 174.0875 278 171 C278.4927 170.458 277.4465 168.6992 278 168 C284.6497 159.6003 287.3454 155.9395 297 147 C299.9392 144.2785 301.948 145.6858 305 143 C313.7003 135.3437 313.8546 134.2079 322 125 C325.2809 121.2911 326.785 120.645 328 117 C329.215 113.355 327.6924 107.081 328 107 C332.4424 105.831 366 107 366 107 "/>
<path id="2" d="M368 108 C368 108 360.1661 112.8404 355 119 C347.7112 127.6905 349.2402 129.8291 342 139 C334.4828 148.5218 330.1654 147.1732 325 157 C311.0749 183.4917 313.9635 188.3231 301 217 C297.8769 223.9086 296.8357 224.5195 292 230 C289.8538 232.4323 286 234 286 234 "/>
<path id="3" d="M269 226 C269 226 267.3891 235.1479 263 241 C250.508 257.656 246.1943 257.4128 233 274 C229.5248 278.3689 231.5614 280.8589 228 285 C211.3151 304.401 204.7605 306.9687 190 324 C188.591 325.6258 188.7887 329.8655 189 330 C189.9476 330.603 198.9377 332.4346 201 331 C205.1643 328.1031 208.7131 321.769 212 314 C213.3661 310.771 210.8854 308.5296 212 305 C213.4731 300.3352 216.4518 299.8659 218 295 C219.6014 289.967 216.8262 286.5805 219 283 C223.4339 275.6971 228.0864 275.4166 235 267 C239.2109 261.8737 238.016 259.8377 242 255 C244.4141 252.0686 247.0209 252.9686 249 250 C255.0054 240.9919 253.8424 232.7366 260 228 C267.5316 222.2064 288 220 288 220 "/>
<path id="4" d="M293 229 C293 229 290.764 228.4444 290 229 C282.198 234.6742 279.2036 236.2837 271 245 C263.6794 252.7781 264.178 256.822 258 263 C256.2064 264.7936 253.5941 263.2313 251 265 C243.5982 270.0467 242.4283 270.8829 236 278 C228.7984 285.9732 228.1312 287.1059 223 296 C221.158 299.1927 222.9975 301.742 221 304 C213.5213 312.4542 208.8077 312.84 200 322 C197.2681 324.8412 196 330 196 330 "/>
</g>
</g>
</svg>
