<?xml version="1.0" encoding="utf-8"?>
<!DOCTYPE svg PUBLIC "-//W3C//DTD SVG 1.1//EN" "http://www.w3.org/Graphics/SVG/1.1/DTD/svg11.dtd">
<svg viewBox="0 0 800 800" preserveAspectRatio="xMinYMin meet" xmlns="http://www.w3.org/2000/svg" version="1.1">
<g fill="none" stroke="black" stroke-linecap="round" stroke-linejoin="round" stroke-width="1.9633">
<g transform="translate(87.52,130.3045) scale(1.528) translate(-76,-39)">
<path id="0" d="M268 214 C268 214 268.6922 211.2306 268 210 C265.0472 204.7506 263.0696 199.3874 259 198 C247.8016 194.1824 237.85 194.6622 224 195 C221.5821 195.059 220.7594 198.3507 218 199 C213.627 200.0289 210.4806 197.6464 207 199 C203.9237 200.1964 203.3887 203.7409 200 206 C198.3541 207.0973 196.6459 205.9027 195 207 C191.6113 209.2591 190.1003 210.1144 188 214 C180.7884 227.3414 181.7644 231.2228 175 244 C173.7809 246.3027 172.1371 247.829 170 248 C141.8163 250.2547 123.6078 243.7046 100 250 C91.3423 252.3087 88.0545 260.9251 80 272 C76.9345 276.2151 76.4507 277.7044 76 283 C74.5693 299.8108 73.8154 302.7716 76 319 C77.0281 326.6374 78.7749 327.5248 83 335 C91.6251 350.2598 91.3029 351.6287 102 365 C110.7091 375.8864 112.1536 376.7057 123 385 C128.2562 389.0194 129.7473 390.1068 136 391 C152.3087 393.3298 156.4711 394.9117 172 392 C185.1982 389.5253 187.5978 386.6775 200 379 C207.5855 374.3042 207.9451 372.9199 214 366 C218.1065 361.3068 219.1326 360.6022 221 355 C224.7348 343.7955 221.9744 340.639 226 330 C228.3061 323.9053 229.9118 322.4245 235 318 C240.4866 313.2291 242.4642 311.2449 249 310 C260.7885 307.7546 265.0135 312.23 277 310 C284.0585 308.6868 285.4791 306.8381 292 302 C300.45 295.7307 305.3984 293.9831 308 287 C312.6069 274.6342 312.4326 266.7588 311 251 C310.209 242.2986 307.7787 239.0275 303 232 C300.6302 228.515 297.2919 229.6717 294 226 C285.0521 216.0197 282.6255 208.1567 277 203 C276.1014 202.1763 271.8875 202.7988 270 204 C268.0675 205.2298 266 210 266 210 "/>
<path id="1" d="M174 281 C174 281 187.8428 271.222 200 260 C213.6408 247.4085 212.0506 244.9877 226 233 C243.5951 217.8792 245.7546 219.5219 264 205 C269.9789 200.2413 269.0448 198.4112 275 194 C282.0495 188.7782 284.1116 190.1663 291 185 C295.4661 181.6504 294.6221 178.9849 299 176 C304.6026 172.18 306.6845 173.8442 313 170 C329.24 160.1148 329.8601 159.8956 345 148 C364.638 132.5701 363.3345 130.4135 383 115 C400.1189 101.5825 402.6619 102.8371 419 90 C422.6074 87.1656 421.3962 84.6797 425 82 C439.6625 71.0971 442.4843 72.0827 458 61 C462.9872 57.4377 467 52 467 52 "/>
<path id="2" d="M175 281 C175 281 181.0741 289.9759 184 291 C186.329 291.8152 190.6466 290.7106 195 288 C215.5289 275.2179 215.7451 272.0434 237 258 C243.4035 253.7691 244.9019 255.3277 251 251 C259.8879 244.6924 260.9762 241.017 268 236 C269.0137 235.2759 271.2228 236.6577 272 236 C275.5574 232.9899 276.1188 229.3388 281 225 C284.4948 221.8935 286.1834 223.1316 290 220 C305.1919 207.5349 304.4186 205.1535 320 193 C328.9595 186.0116 331.1399 187.6451 340 181 C344.5064 177.6202 343.5089 175.6745 348 172 C359.6131 162.4984 360.1549 162.2958 373 154 C384.0112 146.8886 385.5647 148.6428 396 141 C420.5675 123.0069 421.0803 122.464 444 102 C462.8576 85.1628 467.7784 81.5247 480 66 C482.239 63.1559 482.0378 56.845 481 55 C479.9435 53.1218 471 50 471 50 "/>
<path id="3" d="M439 64 C439 64 443.8133 70.3927 447 73 C447.6222 73.5091 449.5659 72.5325 450 73 C453.6289 76.908 454.7983 81.1047 460 87 C461.6892 88.9144 463.9895 88.7873 465 90 C465.423 90.5076 464.9965 93.0023 465 93 C465.0111 92.9926 466.1159 89.615 468 88 C472.3963 84.2317 473.9231 84.8077 479 81 C481.7337 78.9497 483.4413 78.2346 484 76 C485.7207 69.1174 487.4147 62.584 485 57 C481.7031 49.3758 471.2628 39.2387 468 39 C463.9204 38.7015 453.3619 45.846 444 54 C439.592 57.8392 437 66 437 66 "/>
<path id="4" d="M452 61 C452 61 459.5441 58.8291 460 59 C460.1179 59.0442 460.379 63.7157 460 64 C459.1156 64.6633 453.6917 65.7049 452 65 C450.55 64.3958 448.4537 61.5711 448 59 C447.2677 54.8502 447.7087 49.2913 449 48 C450.7217 46.2783 458.196 45 462 45 C462.8778 45 464.7334 46.9336 465 48 C465.3377 49.3507 464.1996 52.8802 464 53 C463.8603 53.0838 460.3671 51.8259 460 51 C459.3199 49.4697 459.2749 44.7251 460 44 C461.3465 42.6535 467.2838 41 470 41 C470.8149 41 472.9135 43.5673 473 44 C473.0385 44.1923 471 46 471 46 "/>
<path id="5" d="M469 77 C469 77 470.4374 85.5077 471 86 C471.2421 86.2119 476.607 84.8514 477 84 C477.9064 82.0362 477 73.0001 477 73 C477 72.9999 477.5539 79.5539 478 80 C478.223 80.223 482.8287 79.4855 483 79 C484.0135 76.1284 484.7319 67.6354 484 63 C483.8322 61.9374 480 60 480 60 "/>
<path id="6" d="M208 253 C208 253 198.9895 250.2872 194 251 C191.1934 251.4009 188.5937 253.6094 187 256 C185.736 257.896 185.4353 260.553 186 263 C186.5775 265.5026 188.4076 267.6351 190 269 C190.5225 269.4479 193 269 193 269 "/>
<path id="7" d="M204 280 C204 280 206.1668 284.3126 208 285 C211.8614 286.448 215.2783 286.3148 220 286 C221.2398 285.9173 222.1128 285.2199 223 284 C225.681 280.3136 228.1265 277.1498 228 275 C227.8787 272.9374 222 267 222 267 "/>
<path id="8" d="M177 282 C177 282 175.2419 277.5174 174 277 C171.8013 276.0839 167.2656 277.4531 165 277 C164.6476 276.9295 164.0006 274.9977 164 275 C163.998 275.0079 162.9732 279.5331 164 281 C168.0731 286.8186 172.5559 288.4671 178 295 C179.0252 296.2302 178.9516 299.0044 179 299 C179.7948 298.9277 187.0365 295.9635 189 294 C189.6545 293.3455 189 289 189 289 "/>
<path id="9" d="M175 285 C175 285 189.3393 271.3697 204 261 C208.9543 257.4957 211.0923 259.3976 216 256 C223.3005 250.9458 222.4447 248.5843 230 243 C256.5896 223.3468 259.8396 223.8703 285 205 C288.0886 202.6836 287.2921 199.9342 290 198 C293.0173 195.8448 295.2263 197.3397 299 195 C319.2795 182.4267 320.3359 181.881 340 167 C357.1345 154.0333 358.1556 149.4997 373 139 C375.4478 137.2686 378.1149 139.6375 381 138 C394.5882 130.2878 396.9491 128.5132 410 118 C414.1226 114.679 413.0129 112.389 417 109 C422.3887 104.4196 425.2421 105.4936 430 101 C433.1248 98.0488 431.6795 94.8096 435 92 C449.2943 79.9048 452.8702 80.6233 469 68 C475.537 62.8841 481 56 481 56 "/>
</g>
</g>
</svg>
