<?xml version="1.0" encoding="utf-8"?>
<!DOCTYPE svg PUBLIC "-//W3C//DTD SVG 1.1//EN" "http://www.w3.org/Graphics/SVG/1.1/DTD/svg11.dtd">
<svg viewBox="0 0 800 800" preserveAspectRatio="xMinYMin meet" xmlns="http://www.w3.org/2000/svg" version="1.1">
<g fill="none" stroke="black" stroke-linecap="round" stroke-linejoin="round" stroke-width="1.3297">
<g transform="translate(296.216,87.52) scale(2.2562) translate(-213,-58)">
<path id="0" d="M248 66 C248 66 251.2354 148.8649 248 216 C247.6466 223.3336 243.1029 223.7863 240 232 C234.7149 245.9901 236.7226 247.2234 231 261 C223.4004 279.2954 218.7527 280.0615 213 297 C210.6778 303.8376 211.8139 307.4762 213 314 C213.3996 316.1978 217 319 217 319 "/>
<path id="1" d="M277 64 C277 64 275.0611 63.8626 275 64 C274.3206 65.5286 273.0584 68.5944 273 73 C272.082 142.3072 265.5942 163.468 273 215 C274.4837 225.3242 288.3659 227.6655 297 240 C300.6767 245.2525 300.2526 247.5262 301 255 C304.174 286.7395 307.157 299.7781 305 320 C304.6232 323.5325 299.1773 327.1044 293 330 C284.7289 333.8771 282.8386 334.1662 273 335 C254.2128 336.5921 248.8598 337.6748 234 335 C229.1915 334.1345 227.2121 330.5361 223 326 C221.4968 324.3812 221 321 221 321 "/>
<path id="2" d="M248 68 C248 68 244.4473 65.491 244 64 C243.5097 62.3656 244.6521 58.0652 245 58 C250.0754 57.0484 272.1411 57.751 276 58 C276.0161 58.001 276 60 276 60 "/>
<path id="3" d="M257 72 L257 292 "/>
<path id="4" d="M262 72 L262 292 "/>
</g>
</g>
</svg>
