<?xml version="1.0" encoding="utf-8"?>
<!DOCTYPE svg PUBLIC "-//W3C//DTD SVG 1.1//EN" "http://www.w3.org/Graphics/SVG/1.1/DTD/svg11.dtd">
<svg viewBox="0 0 800 800" preserveAspectRatio="xMinYMin meet" xmlns="http://www.w3.org/2000/svg" version="1.1">
<g fill="none" stroke="black" stroke-linecap="round" stroke-linejoin="round" stroke-width="1.6897">
<g transform="translate(87.52,335.1959) scale(1.7755) translate(-244,-148.1333)">
<path id="0" d="M286 149.1333 C286 149.1333 280.7098 149.2784 277 151.1333 C270.5078 154.3794 268.3208 154.8155 264 160.1333 C256.5871 169.257 254.7709 172.4008 251 183.1333 C249.085 188.5837 248.8679 193.3707 251 197.1333 C254.9038 204.0224 259.1024 207.6024 268 213.1333 C276.0408 218.1317 278.4005 219.6042 288 220.1333 C338.3855 222.9105 348.2467 225.5936 395 220.1333 C408.9249 218.5071 410.4904 210.7999 425 204.1333 C427.8977 202.8019 428.5212 203.2043 432 203.1333 C477.1029 202.2129 523 202.1333 523 202.1333 "/>
<path id="1" d="M274 154.1333 C274 154.1333 279.4688 149.2285 284 149.1333 C386.2372 146.9855 403.1759 146.9033 512 149.1333 C519.6857 149.2908 520.009 152.9271 528 154.1333 C545.8628 156.8296 548.7799 152.6013 565 157.1333 C580.2051 161.3818 590.0116 166.7586 596 173.1333 C598.2562 175.5351 597.4396 189.2294 596 190.1333 C589.3538 194.3065 574.3314 197.3399 553 200.1333 C533.1988 202.7263 512 201.1333 512 201.1333 "/>
<path id="2" d="M322 149.1333 C322 149.1333 326.8818 188.3843 324 209.1333 C323.3405 213.8815 312 221.1333 312 221.1333 "/>
<path id="3" d="M390 148.1333 C390 148.1333 402.8032 162.3463 406 175.1333 C410.2538 192.1484 408.0283 204.8216 407 216.1333 C406.9132 217.0885 402 219.1333 402 219.1333 "/>
<path id="4" d="M470 150.1333 C470 150.1333 473.7022 153.0511 475 156.1333 C477.2838 161.5573 477.5824 162.7306 478 169.1333 C479.0443 185.1454 479.159 191.7021 478 202.1333 C477.879 203.2221 474 205.1333 474 205.1333 "/>
<path id="5" d="M552 157.1333 C552 157.1333 556.6691 196.0086 554 201.1333 C552.8777 203.2881 527 205.1333 527 205.1333 "/>
<path id="6" d="M256 169.1333 C256 169.1333 249.6701 168.1591 248 169.1333 C246.3125 170.1177 244.4993 172.8876 244 176.1333 C242.7542 184.2312 243.5212 192.8591 244 195.1333 C244.0212 195.2341 248 195.1333 248 195.1333 "/>
</g>
</g>
</svg>
