<?xml version="1.0" encoding="utf-8"?>
<!DOCTYPE svg PUBLIC "-//W3C//DTD SVG 1.1//EN" "http://www.w3.org/Graphics/SVG/1.1/DTD/svg11.dtd">
<svg viewBox="0 0 800 800" preserveAspectRatio="xMinYMin meet" xmlns="http://www.w3.org/2000/svg" version="1.1">
<g fill="none" stroke="black" stroke-linecap="round" stroke-linejoin="round" stroke-width="1.4161">
<g transform="translate(87.52,272.8895) scale(2.1185) translate(-147,-187)">
<path id="0" d="M148 300 C148 300 153.3093 298.6842 157 296 C163.7334 291.1029 163.0972 288.5225 170 284 C176.8115 279.5373 179.0715 281.3624 186 277 C191.8723 273.3026 191.1086 270.1094 197 267 C207.7674 261.3172 210.3499 263.5603 222 258 C231.8334 253.3068 231.215 250.7671 241 246 C250.2195 241.5084 251.658 243.4842 261 239 C276.2607 231.6749 276.5216 229.2392 291 222 C293.4444 220.7778 294.9469 222.3451 297 221 C307.7334 213.9678 308.1525 210.7944 320 203 C326.6664 198.6142 331.5543 198.2971 335 196 C335.3504 195.7664 335 193 335 193 "/>
<path id="1" d="M149 304 C149 304 177.3336 305.7447 205 304 C232.3904 302.2727 232.5251 300.6633 260 297 C277.5198 294.664 278.7782 295.9727 295 292 C302.0371 290.2766 301.8789 286.8085 309 285 C332.147 279.1214 358 276 358 276 "/>
<path id="2" d="M337 196 C337 196 347.8184 197.364 349 199 C350.5923 201.2048 348.3731 207.4923 350 214 C351.0935 218.374 353.6797 218.775 355 223 C355.875 225.8 353.9098 227.3654 355 230 C359.1996 240.149 363.8166 241.654 367 252 C369.1064 258.8457 368.6766 265.3114 367 269 C366.0586 271.0711 357 274 357 274 "/>
<path id="3" d="M355 229 L356 229 "/>
<path id="4" d="M356 232 C356 232 364.0373 226.633 371 226 C383.9074 224.8266 397.8611 225.6472 400 228 C402.4063 230.6469 398.9065 254.6822 401 259 C401.6166 260.2717 413.8203 261.8477 416 261 C416.9962 260.6126 416.8404 254.0246 419 252 C422.5167 248.7031 426.5647 249.7811 432 246 C437.3665 242.2668 440.5097 240.1396 442 236 C443.6042 231.5439 442.6269 227.5077 441 221 C439.9065 216.626 436 212 436 212 "/>
<path id="5" d="M354 214 C354 214 364.7237 206.8799 369 201 C370.7398 198.6078 368.7388 195.5314 370 192 C370.8665 189.5738 372.4421 187.2686 374 187 C382.0107 185.6188 396.1022 186.1886 399 187 C399.2272 187.0636 398.3199 192.4697 399 194 C399.3671 194.8259 401.2883 196 403 196 C412.4146 196 422.7627 193.7966 425 194 C425.0373 194.0034 424.4395 196.4586 425 198 C426.1847 201.2579 427.032 203.032 429 205 C429.8945 205.8945 432.5539 205.3754 433 206 C433.7766 207.0873 434 212 434 212 "/>
<path id="6" d="M180 282 L184 286 "/>
<path id="7" d="M206 269 C206 269 211.1065 269.1065 212 270 C213.1487 271.1487 214 277 214 277 "/>
<path id="8" d="M239 250 C239 250 251.7383 249.6594 253 251 C254.5915 252.691 255.0948 265.4833 255 267 C254.9989 267.0179 252 267 252 267 "/>
<path id="9" d="M279 233 C279 233 290.2019 231.4874 296 233 C298.5802 233.6731 301.2081 236.6243 302 239 C302.8579 241.5736 301 248 301 248 "/>
<path id="10" d="M295 274 C295 274 296.2054 281.5697 297 283 C297.131 283.2358 299.6151 282.5723 300 283 C302.1955 285.4394 306 293 306 293 "/>
<path id="11" d="M250 287 C250 287 257.0614 286.3742 258 287 C258.5867 287.3911 257.8685 290.9256 259 293 C260.3358 295.4489 264 298 264 298 "/>
<path id="12" d="M230 284 C230 284 230.5036 292.5683 232 295 C232.6964 296.1317 237.8472 296.8472 238 297 C238 297 236 299 236 299 "/>
<path id="13" d="M200 294 C200 294 203.9792 304.0811 206 307 C206.2447 307.3534 209 307 209 307 "/>
<path id="14" d="M164 295 L164 299 "/>
<path id="15" d="M147 301 L150 303 "/>
</g>
</g>
</svg>
