<?xml version="1.0" encoding="utf-8"?>
<!DOCTYPE svg PUBLIC "-//W3C//DTD SVG 1.1//EN" "http://www.w3.org/Graphics/SVG/1.1/DTD/svg11.dtd">
<svg viewBox="0 0 800 800" preserveAspectRatio="xMinYMin meet" xmlns="http://www.w3.org/2000/svg" version="1.1">
<g fill="none" stroke="black" stroke-linecap="round" stroke-linejoin="round" stroke-width="1.8145">
<g transform="translate(239.6267,87.52) scale(1.6533) translate(-205.5,-0.66667)">
<path id="0" d="M230.5 111.6667 C230.5 111.6667 282.5252 110.1259 333.5 109.6667 C337.4541 109.631 340.3703 109.788 341.5 110.6667 C342.2293 111.2339 342.53 113.724 342.5 116.6667 C342.0387 161.8745 346.3709 165.2217 340.5 208.6667 C336.7821 236.1793 329.2803 237.5455 322.5 264.6667 C320.7069 271.8392 323.6099 273.1191 322.5 280.6667 C321.2003 289.5045 318.1328 289.8074 317.5 298.6667 C314.7373 337.3439 315.5 378.6661 315.5 378.6667 C315.5 378.6667 315.4936 372.9723 314.5 368.6667 C314.1638 367.2099 312.5071 365.6667 312.5 365.6667 C312.5 365.6667 312.5121 368.6687 312.5 368.6667 C312.3392 368.6399 308.5278 367.1553 306.5 364.6667 C298.2789 354.5772 297.1764 353.7168 290.5 341.6667 C276.9122 317.1423 276.1355 316.4957 265.5 290.6667 C258.886 274.6041 259.1265 273.6833 255.5 256.6667 C252.7258 243.6494 255.0369 242.8123 252.5 229.6667 C249.5984 214.6312 249.8375 213.9635 244.5 199.6667 C236.0105 176.9269 232.3147 175.7663 224.5 154.6667 C223.158 151.0432 223.6736 149.7989 224.5 145.6667 C226.0611 137.8614 228.3703 137.5744 229.5 129.6667 C231.2669 117.2981 230.5 103.6667 230.5 103.6667 "/>
<path id="1" d="M237.5 107.6667 C237.5 107.6667 230.9103 103.5958 226.5 98.6667 C222.9028 94.6462 222.9219 93.8738 220.5 88.6667 C213.0184 72.5813 211.0514 71.7484 206.5 55.6667 C204.0024 46.8418 204.1616 43.9646 205.5 35.6667 C206.3074 30.6609 208.2361 29.889 211.5 24.6667 C213.1596 22.0113 213.8387 20.1553 215.5 19.6667 C219.4479 18.5055 225.5617 17.4466 228.5 19.6667 C241.5392 29.5185 247.5494 36.0909 260.5 53.6667 C267.3304 62.9365 267.274 65.6983 270.5 76.6667 C271.8679 81.3177 269.5315 82.8242 270.5 87.6667 C271.3628 91.9809 273.9279 92.3189 274.5 96.6667 C276.2494 109.9621 276.0012 123.3277 275.5 125.6667 C275.4913 125.7073 268.5647 124.99 268.5 124.6667 C267.8641 121.4872 266.8731 111.1755 270.5 100.6667 C285.4497 57.3509 288.2155 53.5896 307.5 11.6667 C310.2539 5.6799 312.9426 3.6768 316.5 0.66667 C317.2772 0.0089997 320.2389 0.26051 320.5 0.66667 C322.2479 3.3857 324.8969 7.912 325.5 14.6667 C327.2534 34.3045 327.4065 36.6485 325.5 56.6667 C324.5208 66.9481 324.1451 68.7804 319.5 77.6667 C313.3634 89.4062 311.8084 90.5121 302.5 100.6667 C295.8253 107.9482 286.4991 113.668 286.5 113.6667 C286.503 113.6619 305.5857 84.0593 328.5 59.6667 C351.2805 35.4164 355.74 31.6888 379.5 14.6667 C384.6806 10.9552 391.3007 11.2467 395.5 11.6667 C396.7036 11.787 399.4548 14.7663 399.5 16.6667 C399.8279 30.4397 400.5975 37.2765 396.5 53.6667 C393.6779 64.9553 391.704 66.5361 384.5 76.6667 C376.2248 88.3036 374.6777 90.5844 364.5 98.6667 C359.6189 102.5429 357.5418 102.4372 350.5 103.6667 C326.8045 107.804 301.5 109.6667 301.5 109.6667 "/>
<path id="2" d="M249.5 169.6667 C249.5 169.6667 258.1081 166.4062 260.5 164.6667 C260.8566 164.4074 260.5 161.6667 260.5 161.6667 "/>
<path id="3" d="M282.5 154.6667 L292.5 151.6667 "/>
<path id="4" d="M284.5 184.6667 L299.5 174.6667 "/>
<path id="5" d="M280.5 222.6667 L293.5 214.6667 "/>
<path id="6" d="M328.5 194.6667 L329.5 189.6667 "/>
<path id="7" d="M346.5 174.6667 L354.5 173.6667 "/>
<path id="8" d="M340.5 203.6667 L343.5 203.6667 "/>
<path id="9" d="M253.5 239.6667 C253.5 239.6667 251.9738 244.0026 249.5 246.6667 C245.9542 250.4852 240.5 253.6667 240.5 253.6667 "/>
<path id="10" d="M251.5 253.6667 L243.5 265.6667 "/>
<path id="11" d="M249.5 276.6667 C249.5 276.6667 251.2249 281.347 250.5 283.6667 C249.3212 287.4388 244.5 292.6667 244.5 292.6667 "/>
<path id="12" d="M331.5 252.6667 L358.5 263.6667 "/>
<path id="13" d="M240.5 196.6667 L234.5 202.6667 "/>
<path id="14" d="M308.5 369.6667 C308.5 369.6667 313.167 368.8669 314.5 369.6667 C316.1884 370.6797 318.5002 375.6666 318.5 375.6667 C318.4994 375.667 312.5 370.6667 312.5 370.6667 "/>
</g>
</g>
</svg>
