<?xml version="1.0" encoding="utf-8"?>
<!DOCTYPE svg PUBLIC "-//W3C//DTD SVG 1.1//EN" "http://www.w3.org/Graphics/SVG/1.1/DTD/svg11.dtd">
<svg viewBox="0 0 800 800" preserveAspectRatio="xMinYMin meet" xmlns="http://www.w3.org/2000/svg" version="1.1">
<g fill="none" stroke="black" stroke-linecap="round" stroke-linejoin="round" stroke-width="1.9105">
<g transform="translate(87.52,111.0738) scale(1.5703) translate(-110,-83.9833)">
<path id="0" d="M415 188.9833 C415 188.9833 402.5488 176.4963 389 166.9833 C379.6105 160.3907 378.4745 160.5223 368 155.9833 C363.9891 154.2453 362.3991 155.6829 359 153.9833 C356.4507 152.7087 356.6225 150.1635 354 148.9833 C347.923 146.2487 346.3685 145.7202 339 144.9833 C327.0381 143.7871 324.4355 144.2379 314 144.9833 C312.6881 145.077 311.7881 145.7223 311 146.9833 C293.6864 174.685 293.0508 178.4302 274 208.9833 C266.6152 220.8269 266.0244 222.0483 258 231.9833 C256.4278 233.9299 254.4017 233.031 253 234.9833 C241.8301 250.5414 240.3544 253.0623 230 270.9833 C227.7452 274.8859 229.2849 276.22 227 279.9833 C221.1935 289.5469 218.6056 289.2472 213 298.9833 C209.5035 305.0561 212.0348 307.9836 208 312.9833 C190.9775 334.0764 184.7586 335.7468 167 355.9833 C165.2563 357.9704 166.5305 360.1127 165 361.9833 C162.85 364.6111 160.1007 364.2524 158 366.9833 C155.9148 369.6941 157.1055 371.8251 155 374.9833 C152.5436 378.6679 150.1311 378.4316 148 381.9833 C146.2495 384.9009 148.0408 387.2843 146 389.9833 C134.2159 405.5688 129.6309 406.8 117 422.9833 C114.6521 425.9915 115.905 427.9898 114 430.9833 C112.9339 432.6586 110.5674 432.7066 110 433.9833 C109.2874 435.5866 109.9009 439.9675 110 439.9833 C112.5474 440.3909 124.514 441.3299 135 437.9833 C145.6949 434.5701 145.6078 430.1098 157 424.9833 C175.1212 416.8288 178.0851 418.2326 195 410.9833 C197.1967 410.0419 196.8351 407.9359 199 406.9833 C208.0503 403.0012 210.1817 404.3149 220 399.9833 C226.7373 397.011 226.2343 394.6308 233 391.9833 C248.4827 385.9249 252.0442 388.8188 266 381.9833 C274.4171 377.8607 273.3614 373.7424 282 367.9833 C308.825 350.1 311.181 352.0861 338 333.9833 C350.7386 325.3848 350.8235 324.5389 362 313.9833 C368.5727 307.7758 367.4274 306.2007 374 299.9833 C385.6815 288.9333 389.2148 290.8653 399 278.9833 C416.0652 258.2613 418.6013 253.7121 430 231.9833 C432.6171 226.9946 432.1077 223.7433 431 217.9833 C429.9448 212.4961 426.8799 211.8916 425 205.9833 C423.6054 201.6004 425.7127 199.4087 424 195.9833 C421.6349 191.2531 419.2563 189.5848 415 185.9833 C413.8187 184.9838 411 184.9833 411 184.9833 "/>
<path id="1" d="M298 175.9833 C298 175.9833 297.5358 178.5191 298 178.9833 C300.6305 181.6139 303.9431 181.9264 308 185.9833 C313.4887 191.4721 312.2143 193.8231 318 198.9833 C330.0131 209.6977 332.8982 208.8334 345 218.9833 C347.4971 221.0776 348.3879 222.2291 349 224.9833 C350.0662 229.781 349 236.9833 349 236.9833 "/>
<path id="2" d="M319 251.9833 C319 251.9833 321.9875 251.9708 323 252.9833 C328.8725 258.8558 328.9742 261.7067 336 268.9833 C342.7627 275.9876 344.2867 275.0015 351 281.9833 C356.5363 287.7411 356.6765 288.2279 361 294.9833 C364.5301 300.4991 366.0526 303.4306 367 306.9833 C367.1718 307.6277 365 309.9833 365 309.9833 "/>
<path id="3" d="M246 269.9833 C246 269.9833 248.7185 274.0144 252 275.9833 C258.0161 279.593 260.9475 277.9835 266 281.9833 C271.4679 286.3121 270.5508 289.5342 276 294.9833 C279.5538 298.5371 285 300.9833 285 300.9833 "/>
<path id="4" d="M215 348.9833 C215 348.9833 217.9521 348.2847 219 348.9833 C223.6284 352.0689 225.9134 353.4664 230 358.9833 C235.3293 366.1779 235.0591 370.072 239 375.9833 C239.514 376.7544 241.7782 376.4843 242 376.9833 C242.8027 378.7895 243.4191 384.661 243 384.9833 C241.7366 385.9552 229 386.9833 229 386.9833 "/>
<path id="5" d="M150 383.9833 C150 383.9833 156.2415 384.6096 160 386.9833 C164.6399 389.9138 167.1306 395.9021 169 395.9833 C171.7176 396.1015 183 387.9833 183 387.9833 "/>
<path id="6" d="M378 156.9833 C378 156.9833 381.6925 147.9181 383 138.9833 C384.6157 127.9429 386.6384 120.5063 384 115.9833 C380.9595 110.771 373.0517 106.2824 362 102.9833 C341.8915 96.9808 330.3071 95.0155 317 95.9833 C313.7698 96.2183 310.8279 101.05 307 106.9833 C301.1979 115.9765 303.2679 118.7702 297 126.9833 C289.6278 136.6435 285.281 135.2753 278 144.9833 C271.1705 154.0893 271.5408 160.8399 267 166.9833 C266.1809 168.0915 263.3275 166.7301 261 167.9833 C251.3887 173.1586 250.9975 176.2786 241 180.9833 C235.1006 183.7595 233.5585 183.9833 227 183.9833 C217.6307 183.9833 216.0703 180.3505 207 180.9833 C196.2669 181.7322 191.7433 181.7611 184 186.9833 C173.8332 193.84 172.1909 198.5874 164 209.9833 C161.5551 213.385 163.1596 216.9587 161 218.9833 C157.4833 222.2802 154.2144 223.6976 148 224.9833 C141.0182 226.4278 133.463 226.1021 132 224.9833 C130.9996 224.2183 130.432 217.6636 131 211.9833 C131.3214 208.7689 131.7934 206.7888 134 204.9833 C145.7227 195.392 148.6668 192.5154 164 184.9833 C175.9086 179.1335 187.9919 178.256 191 176.9833 C191.0267 176.9721 190.7879 174.5086 190 173.9833 C181.6831 168.4388 178.5826 166.7746 167 160.9833 C162.8774 158.922 162.4325 158.5048 158 157.9833 C146.0963 156.5829 134.5953 157.2492 133 156.9833 C132.9683 156.9781 133.3884 154.2352 134 153.9833 C144.2684 149.7552 151.768 146.6985 167 142.9833 C170.3108 142.1758 171.5329 142.8276 175 143.9833 C178.4671 145.139 180.4611 146.4444 182 147.9833 C182.4197 148.403 181.7684 150.8675 182 150.9833 C184.0843 152.0255 188.0997 153.5175 194 153.9833 C206.5366 154.9731 211.8091 157.2216 220 153.9833 C227.473 151.0289 232.5061 145.025 237 136.9833 C240.0724 131.4854 236.1835 125.2408 239 119.9833 C241.7998 114.757 245.1194 112.7185 252 108.9833 C261.5541 103.7968 262.9546 103.8089 274 100.9833 C283.9986 98.4256 286.0028 101.2131 295 97.9833 C303.945 94.7723 304.3466 88.8763 313 86.9833 C332.7848 82.6554 337.5817 83.2924 359 83.9833 C366.5408 84.2266 369.8365 84.9152 375 88.9833 C383.6869 95.8275 386.2973 99.3556 392 109.9833 C396.2943 117.9864 395.6912 126.2439 397 129.9833 C397.0421 130.1037 398.9871 129.9218 399 129.9833 C399.5972 132.8201 401.7657 142.8581 401 148.9833 C400.7703 150.8209 397.3849 151.4115 396 153.9833 C394.3659 157.0182 393.8763 160.87 394 161.9833 C394.0212 162.1742 397 162.9833 397 162.9833 "/>
<path id="7" d="M396 166.9833 C396 166.9833 398.2895 167.5267 399 166.9833 C404.67 162.6475 407.0551 160.6277 413 153.9833 C415.0225 151.7229 414.0412 149.7915 416 147.9833 C419.5647 144.6928 420.8861 144.175 426 141.9833 C430.9976 139.8415 431.615 139.3774 437 138.9833 C451.399 137.9298 453.2693 136.616 467 138.9833 C480.6044 141.3289 482.478 142.8829 495 148.9833 C500.8605 151.8385 504.5228 153.8927 506 157.9833 C509.1568 166.7251 510.0435 173.3354 508 184.9833 C505.5381 199.0161 503.9408 201.881 496 214.9833 C484.715 233.6036 481.0287 232.5008 468 250.9833 C459.6846 262.7796 458.3754 263.3511 453 275.9833 C448.8673 285.6952 448.7977 287.1345 448 297.9833 C446.3595 320.2943 446.3997 321.5786 448 343.9833 C448.8474 355.8467 452.4833 356.2718 453 367.9833 C453.9367 389.2163 453.1821 394.1631 451 411.9833 C450.7293 414.1944 448.7025 416.3285 447 416.9833 C444.4131 417.9783 440.592 417.8473 438 416.9833 C436.752 416.5673 435.1328 414.7101 435 412.9833 C433.4906 393.3608 434.9735 368.3531 434 364.9833 C433.9906 364.9508 422.6026 366.4968 422 367.9833 C419.3016 374.6395 422.0355 386.4686 419 401.9833 C417.8438 407.8928 415.0267 407.9034 413 413.9833 C410.6838 420.9319 412.6294 422.3086 410 428.9833 C406.435 438.033 405.3524 439.1332 400 446.9833 C398.4021 449.3269 397.2961 450.505 395 450.9833 C387.4393 452.5585 381.7224 452.9785 376 451.9833 C374.5198 451.7259 372.3214 449.1528 372 446.9833 C370.7357 438.449 369.159 430.9995 372 424.9833 C374.8446 418.9596 381.8644 418.4292 389 410.9833 C392.7101 407.1119 393.8179 405.8593 395 400.9833 C397.4235 390.9863 397.2301 378.0706 397 377.9833 C396.095 377.6401 370.299 389.3511 366 389.9833 C365.7414 390.0214 363.3706 386.3184 363 382.9833 C361.9894 373.8878 361.6159 372.1182 363 362.9833 C363.9521 356.6997 364.8446 355.4337 368 349.9833 C369.8807 346.7348 370.7142 346.4045 374 343.9833 C379.9576 339.5935 380.3046 338.5871 387 335.9833 C397.5279 331.8892 405.4214 334.6891 410 329.9833 C417.0423 322.7455 418.6762 314.1168 423 298.9833 C425.2776 291.0118 422.2843 288.9901 424 280.9833 C425.0429 276.1165 427.7751 275.8828 429 270.9833 C430.5515 264.7773 428.5588 263.4686 430 256.9833 C431.4299 250.5488 431.5144 249.5287 435 243.9833 C442.0576 232.7553 442.8351 232.0075 452 221.9833 C458.5215 214.8505 463.1201 215.5178 467 208.9833 C470.7858 202.6073 469.8256 199.3785 471 189.9833 C471.7829 183.7199 471.8261 183.0414 471 176.9833 C470.4021 172.5986 470.2593 170.3932 468 167.9833 C464.5095 164.2601 461.9171 162.4626 456 160.9833 C443.628 157.8903 439.3858 156.6594 428 157.9833 C421.4405 158.7461 417.7308 161.7782 413 165.9833 C410.8367 167.9063 411.905 170.9898 410 173.9833 C408.9339 175.6586 405.9968 176.9827 406 176.9833 C406.0082 176.985 415 174.9833 415 174.9833 "/>
</g>
</g>
</svg>
