<?xml version="1.0" encoding="utf-8"?>
<!DOCTYPE svg PUBLIC "-//W3C//DTD SVG 1.1//EN" "http://www.w3.org/Graphics/SVG/1.1/DTD/svg11.dtd">
<svg viewBox="0 0 800 800" preserveAspectRatio="xMinYMin meet" xmlns="http://www.w3.org/2000/svg" version="1.1">
<g fill="none" stroke="black" stroke-linecap="round" stroke-linejoin="round" stroke-width="1.7569">
<g transform="translate(89.2276,87.52) scale(1.7075) translate(-177,-0.41667)">
<path id="0" d="M355 92.4167 C355 92.4167 344.7344 94.8243 337 99.4167 C329.6256 103.7952 328.429 104.6772 323 111.4167 C314.5844 121.8636 313.7522 123.1279 308 135.4167 C303.1276 145.8259 305.0345 149.3391 301 158.4167 C300.0386 160.5798 296 162.4167 296 162.4167 "/>
<path id="1" d="M288 169.4167 C288 169.4167 281.4293 173.3472 278 178.4167 C270.6487 189.2838 265 203.4167 265 203.4167 "/>
<path id="2" d="M264 207.4167 C264 207.4167 250.3036 217.0563 240 228.4167 C231.4221 237.8744 230.4645 239.0324 225 250.4167 C218.9517 263.0174 221.7669 265.2681 216 278.4167 C209.4983 293.2405 205.7404 292.6913 200 307.4167 C194.6682 321.0938 198.3318 323.7396 193 337.4167 C187.2596 352.142 177 366.4167 177 366.4167 "/>
<path id="3" d="M188 366.4167 L234 338.4167 "/>
<path id="4" d="M232 340.4167 C232 340.4167 233.6807 334.0005 237 329.4167 C243.7169 320.1409 243.9213 317.9813 253 311.4167 C274.8929 295.5864 278.8828 297.4226 302 282.4167 C306.4967 279.4978 310 274.4167 310 274.4167 "/>
<path id="5" d="M311 276.4167 C311 276.4167 317.1255 269.665 319 263.4167 C321.1058 256.3974 320 246.4167 320 246.4167 "/>
<path id="6" d="M322 246.4167 C322 246.4167 338.2462 239.9204 347 231.4167 C353.2952 225.3014 357 212.4167 357 212.4167 "/>
<path id="7" d="M363 204.4167 C363 204.4167 366.954 200.9972 369 197.4167 C370.5976 194.6209 371 190.4167 371 190.4167 "/>
<path id="8" d="M369 190.4167 C369 190.4167 380.5202 189.558 389 185.4167 C400.6433 179.7304 401.8279 177.7723 412 169.4167 C415.0255 166.9315 415.756 166.0356 417 162.4167 C420.8613 151.1837 421.4499 149.5077 423 137.4167 C423.8345 130.908 423.3292 130.0626 422 123.4167 C420.4087 115.4603 417 107.4167 417 107.4167 "/>
<path id="9" d="M363 88.4167 C363 88.4167 368.8166 86.5202 373 87.4167 C381.3363 89.203 382.8922 89.8684 391 94.4167 C402.8236 101.0494 414 110.4167 414 110.4167 "/>
<path id="10" d="M215 289.4167 L199 295.4167 "/>
<path id="11" d="M252 221.4167 L236 228.4167 "/>
<path id="12" d="M287 162.4167 L274 161.4167 "/>
<path id="13" d="M363 206.4167 L363 222.4167 "/>
<path id="14" d="M380 171.4167 L369 196.4167 "/>
<path id="15" d="M387 171.4167 L380 186.4167 "/>
<path id="16" d="M395 170.4167 L391 180.4167 "/>
<path id="17" d="M417 150.4167 L405 171.4167 "/>
<path id="18" d="M328 224.4167 C328 224.4167 328.9141 229.3033 328 233.4167 C325.0772 246.5693 320 260.4167 320 260.4167 "/>
<path id="19" d="M338 227.4167 L330 244.4167 "/>
<path id="20" d="M349 219.4167 L342 236.4167 "/>
<path id="21" d="M265 287.4167 C265 287.4167 263.4542 298.2055 260 307.4167 C257.6906 313.575 253 319.4167 253 319.4167 "/>
<path id="22" d="M276 280.4167 L265 303.4167 "/>
<path id="23" d="M287 277.4167 L276 296.4167 "/>
<path id="24" d="M297 269.4167 L282 291.4167 "/>
<path id="25" d="M306 267.4167 L301 277.4167 "/>
<path id="26" d="M398 94.4167 C398 94.4167 401.1529 88.8381 402 83.4167 C403.5416 73.5502 405.4662 70.9115 403 62.4167 C397.4606 43.3364 384 21.4167 384 21.4167 "/>
<path id="27" d="M414 110.4167 C414 110.4167 421.0328 103.4003 429 99.4167 C448.238 89.7977 449.6697 88.3095 470 82.4167 C482.7794 78.7125 485.8659 79.0887 498 79.4167 C501.9586 79.5237 507 83.4167 507 83.4167 "/>
<path id="28" d="M391 15.4167 C391 15.4167 391.5625 6.7291 393 2.4167 C393.3155 1.47 395.9913 0.3799 396 0.41667 C396.1286 0.96324 396.9729 19.3856 397 19.4167 C397.0079 19.4256 402.9966 8.4152 403 8.4167 C403.0186 8.4246 403.6491 21.7149 404 22.4167 C404.0121 22.4409 407.5227 21.683 409 20.4167 C410.1944 19.3929 410.9997 16.415 411 16.4167 C411.0008 16.4207 409.7509 25.018 410 25.4167 C410.0818 25.5476 415.974 24.3821 416 24.4167 C416.0204 24.4439 413.4986 27.0898 413 29.4167 C412.2048 33.1278 412.6625 37.4042 413 38.4167 C413.0375 38.5292 415.5211 38.7998 416 38.4167 C416.8301 37.7526 418 34.4167 418 34.4167 C418 34.4167 413 44.4061 413 44.4167 C413 44.4209 417.9939 40.3984 418 40.4167 C418.0322 40.5133 415.9753 53.2934 416 53.4167 C416.0043 53.4382 419.9938 50.4059 420 50.4167 C420.0862 50.5674 421.2996 56.1464 420 60.4167 C414.7675 77.6091 406 96.4167 406 96.4167 "/>
<path id="29" d="M413 101.4167 C413 101.4167 447.9798 76.4264 448 76.4167 C448.0059 76.4138 439.9886 88.4187 440 88.4167 C440.0311 88.4112 464.9544 73.4374 465 73.4167 C465.0076 73.4132 461.9772 78.4219 462 78.4167 C462.1728 78.3768 477.7828 70.9889 491 67.4167 C494.1954 66.5531 495.8674 67.2118 499 68.4167 C501.4429 69.3562 501.7435 71.7224 504 72.4167 C506.8972 73.3081 511.8817 72.2274 512 72.4167 C512.1449 72.6485 508.9742 80.4023 509 80.4167 C509.1844 80.5191 518.8628 76.8824 521 77.4167 C522.0924 77.6898 523.0464 83.4399 525 84.4167 C528.9072 86.3703 537.1091 84.7621 539 86.4167 C540.5007 87.7298 541 98.4167 541 98.4167 "/>
<path id="30" d="M411 90.4167 C411 90.4167 419.513 83.2139 425 75.4167 C428.4263 70.5477 427.8008 69.5069 430 63.4167 C434.2834 51.5548 435.9204 51.1142 438 39.4167 C439.7178 29.754 438 18.4167 438 18.4167 "/>
<path id="31" d="M441 14.4167 C441 14.4167 457.9993 9.4163 458 9.4167 C458.0004 9.4169 445.0083 16.3834 445 16.4167 C444.9986 16.4223 456.0033 17.3931 456 17.4167 C455.811 18.787 441.6185 43.0972 441 45.4167 C440.9974 45.4263 448.0045 47.3955 448 47.4167 C447.8716 48.0161 438.0538 59.0668 438 59.4167 C437.9991 59.4226 446.0404 60.3444 446 60.4167 C445.4402 61.4184 419 93.4167 419 93.4167 "/>
<path id="32" d="M431 78.4167 C431 78.4167 437.3822 70.3259 445 65.4167 C459.0631 56.3538 460.292 56.8967 476 49.4167 C491.7274 41.9274 492.1609 40.8087 508 35.4167 C514.7555 33.1169 523 33.4167 523 33.4167 "/>
<path id="33" d="M528 42.4167 C528 42.4167 530.2488 38.9097 530 37.4167 C529.5912 34.9639 526.0329 30.4233 526 30.4167 C525.9988 30.4164 524.3262 34.5077 525 36.4167 C526.6072 40.9704 532.0072 47.4167 532 47.4167 C531.9824 47.4167 515.0132 36.4152 515 36.4167 C514.9944 36.4173 521.2093 44.8352 523 48.4167 C523.1679 48.7524 522.1714 50.431 522 50.4167 C517.1996 50.0166 499.013 46.4174 499 46.4167 C498.9971 46.4165 501.5775 48.8783 504 49.4167 C509.6524 50.6728 517.0015 50.4162 517 50.4167 C516.9951 50.4182 478.0001 57.4166 478 57.4167 C478 57.4167 491.0019 56.4157 491 56.4167 C490.9936 56.42 453 70.4167 453 70.4167 "/>
<path id="34" d="M368 164.4167 C368 164.4167 374.1961 167.0855 375 169.4167 C377.7144 177.2885 378 193.4167 378 193.4167 "/>
<path id="35" d="M315 226.4167 C315 226.4167 318.4254 227.017 320 228.4167 C322.1684 230.3441 323.3549 231.5136 324 234.4167 C326.0082 243.4536 326 255.4167 326 255.4167 "/>
<path id="36" d="M259 283.4167 C259 283.4167 261.8444 292.4501 261 299.4167 C260.05 307.2541 255 316.4167 255 316.4167 "/>
</g>
</g>
</svg>
