<?xml version="1.0" encoding="utf-8"?>
<!DOCTYPE svg PUBLIC "-//W3C//DTD SVG 1.1//EN" "http://www.w3.org/Graphics/SVG/1.1/DTD/svg11.dtd">
<svg viewBox="0 0 800 800" preserveAspectRatio="xMinYMin meet" xmlns="http://www.w3.org/2000/svg" version="1.1">
<g fill="none" stroke="black" stroke-linecap="round" stroke-linejoin="round" stroke-width="1.1041">
<g transform="translate(189.4157,87.52) scale(2.7172) translate(-200,-87)">
<path id="0" d="M311,107C311,107 306.4572407413119,107.3185683754093 305,109C295.82478051766554,119.58679171038591 293.1832180349074,122.2702075371667 285,137C268.5405728161522,166.62696893092612 268.0478249586505,167.5666035087057 255,199C246.27058847165807,220.0299459546419 249.0251866633721,221.5132099012941 241,243C233.60724361210657,262.79350903855334 233.60698250521761,263.36827635351733 224,282C217.31250939774188,294.96967874377333 216.48424651029515,296.04118159086874 208,307C205.23292046514965,310.5741443991817 200.29232099332904,312.2691975166774 200,313C199.92374234956634,313.1906441260841 202.38992997300562,316.80483999672793 204,317C214.41106091779466,318.2619467779145 221.38867099233457,320.22536916879596 233,317C244.67806078357157,313.7560942267857 249.97182776351613,308.1755171049876 258,302C259.0647891597863,301.180931415549 257.94132682663473,298.51239024766465 259,297C260.70873564823864,294.5589490739448 263.11444394101073,294.94618134217074 265,292C278.1477008457125,271.4567174285742 278.9667342579444,269.8632049099057 291,247C298.86748944032155,232.05177006338903 296.5189690893297,229.28694842671683 305,216C310.56666493444106,207.27889160270902 316.07913630508386,208.27599803235898 321,200C325.7384164180919,192.0308451150272 323.19796662280384,189.06420599846044 327,179C331.60093246313994,166.82106112698247 331.4915397961692,165.6502076062686 338,155C341.96627683307593,148.50972881860304 345.7734818777213,149.26324106089393 349,143C353.39979743947094,134.45921673514462 356.8209245246414,127.6769999885878 355,122C351.2410786519025,110.28100991475496 343.3082028493496,104.13525356168696 332,90C330.42941627092364,88.03677033865457 329.3308773386569,87.53789477045927 327,87C323.7241723889146,86.24403978205723 321.39305858224065,85.88323932828768 319,87C315.9289081527911,88.43317619536414 314.53349548722485,90.12524219600908 312,94C306.4111594567532,102.54763847790686 302.0187868731673,112.96994100293231 302,113C301.99776789625735,113.00357136598823 301.45839874725055,110.86656200439908 302,110C305.47527470514217,104.43956047177251 311.9988823788841,97.00044704844636 312,97C312.0006911604269,96.99972353582923 306.99997224505375,108.00001387747311 307,108C307.00003436326676,107.99998281836663 309.8289878427037,99.47584346441356 314,96C319.8067031993732,91.16108066718898 325.13820671326846,89.2743028884199 331,88C332.67285516071456,87.63633583462726 335.595304398814,89.17389571845821 337,91C339.4121035575921,94.13573462486975 341,101 341,101"/>
<path id="1" d="M308,108C308,108 311.0505194153784,111.96470751535833 312,116C314.86093491945183,128.15897340767034 312.01718589972466,135.03007532451818 316,142C318.55463328654025,146.4706082514454 331.969858141145,151.01339638171333 332,151C332.0030700041426,150.9986355537144 325.0009688598494,138.00145328977416 325,138C324.99974407475673,137.99961611213513 324.9841969855761,140.74978090532443 326,142C330.59090193531835,147.65034084346874 338,154 338,154"/>
<path id="2" d="M283,145C283,145 281.0147393533957,159.4360412879459 285,166C294.76452930132626,182.08275414336086 317,201 317,201"/>
<path id="3" d="M264,181C264,181 273.2661440532819,190.64742229622487 280,200C281.64154286512393,202.27992064600548 280.29068820512344,204.06773449274823 282,206C290.48732539733265,215.59436784046298 303,226 303,226"/>
<path id="4" d="M251,207C251,207 258.75127676509,225.2388406033445 269,236C276.54111420690486,243.9181699172501 291,249 291,249"/>
<path id="5" d="M242,240C242,240 243.2139283100968,247.66801888658364 246,254C248.4890792762587,259.6569983551334 248.99554558248505,260.244710379201 253,265C256.6925810205122,269.38493996185826 257.1994562455491,270.1996828099036 262,273C268.4982970334641,276.7906732695207 276.90340230759676,278.94365134609813 277,279C277.0126186174761,279.0073608601944 274,280 274,280"/>
<path id="6" d="M229,271C229,271 234.76377080576512,286.14565620864766 242,297C244.71358594783808,301.07037892175714 251,304 251,304"/>
<path id="7" d="M218,296C218,296 220.6879786957448,307.49315391314155 224,311C226.14569122130513,313.2719083519701 235,314 235,314"/>
<path id="8" d="M343,97C343,97 343.3480508712035,93.54329094066376 344,93C344.8776238272261,92.26864681064494 348.88092393863735,91.8065014002857 349,92C349.9085062459521,93.47632264967214 352.00208980337504,105.98119176962471 352,106C351.999303398875,106.0062694101251 349.4894575501063,101.45829463080194 348,101C345.66237912274977,100.28073203776917 339.0568832683449,101.91467509748268 339,102C338.9864563646798,102.02031545298031 343.99354007115943,107.01130487547095 344,107C344.03445295381624,106.93970733082153 342.99105031217425,95.01789937565148 343,95C343.0031129348959,94.99377413020818 346.9917037930494,101.00207405173765 347,101C347.0058073448654,100.99854816378365 347,94 347,94"/>
<path id="9" d="M347,93C347,93 348.98961134739465,104.98441702109197 349,105C349.00363602841184,105.00545404261781 351,99 351,99C351.0041796067501,99.00139320225001 351.9999494936612,105.99994949366116 352,106C352.00003787975413,106.00003787975413 352,100 352,100"/>
<path id="10" d="M352,102C352,102 352,107 352,107C351.99238440016677,107 349,102 349,102"/>
</g>
</g>
</svg>
