<?xml version="1.0" encoding="utf-8"?>
<!DOCTYPE svg PUBLIC "-//W3C//DTD SVG 1.1//EN" "http://www.w3.org/Graphics/SVG/1.1/DTD/svg11.dtd">
<svg viewBox="0 0 800 800" preserveAspectRatio="xMinYMin meet" xmlns="http://www.w3.org/2000/svg" version="1.1">
<g fill="none" stroke="black" stroke-linecap="round" stroke-linejoin="round" stroke-width="1.8337">
<g transform="translate(87.52,203.6775) scale(1.636) translate(-190,-62)">
<path id="0" d="M457 127 C457 127 461.9464 119.8482 463 113 C465.7045 95.4206 467.5596 88.0542 465 75 C463.9551 69.6708 453 62 453 62 "/>
<path id="1" d="M465 132 C465 132 477.0249 119.8858 490 110 C497.649 104.1722 498.3723 103.5526 507 100 C514.6184 96.863 515.6337 96.5398 524 96 C545.8151 94.5926 552.6713 94.9795 569 96 C570.1566 96.0723 572 99 572 99 "/>
<path id="2" d="M451 129 C451 129 451.9558 116.1065 451 104 C450.4939 97.5899 450.4759 95.9519 448 91 C446.2071 87.4141 444.6436 85.4574 441 84 C429.5486 79.4195 413 77 413 77 "/>
<path id="3" d="M472 145 C472 145 468.6846 140.4564 465 138 C461.8418 135.8945 461.0457 135.8991 457 135 C447.8193 132.9598 447.3276 132.533 438 132 C430.2432 131.5568 423.5124 131.8657 422 133 C421.2551 133.5587 420.9837 139.4266 422 144 C422.7289 147.2799 423.4262 148.5549 426 151 C432.6217 157.2906 433.7504 158.164 442 163 C447.7056 166.3446 448.4285 166.1872 455 168 C462.6904 170.1215 463.0705 170.1189 471 171 C476.3403 171.5934 478.1689 171.821 482 171 C483.2687 170.7281 484.6018 169.3937 485 168 C486.1651 163.9221 486.7323 161.1498 486 157 C485.5463 154.4289 484.3401 153.3401 482 151 C479.1918 148.1918 478.1251 147.5626 475 146 C474.0131 145.5066 472.4789 145.6169 472 146 C471.1699 146.6641 470 150 470 150 "/>
<path id="4" d="M480 174 C480 174 475.5249 173.1105 474 174 C471.4373 175.4949 470.8527 179.3699 468 181 C465.5548 182.3973 462.5676 180.2883 460 182 C445.8781 191.4146 443.2274 197.0024 429 207 C427.0365 208.3797 425.3523 206.8238 423 208 C418.1144 210.4428 417.5885 213.394 413 215 C409.3145 216.2899 407.5169 214.059 403 215 C396.2058 216.4155 395.2187 216.4588 389 220 C360.0237 236.5004 360.4824 243.6754 331 256 C302.6391 267.8558 297.4929 262.462 267 271 C261.3306 272.5874 261.5188 275.0804 256 277 C250.6462 278.8622 249.2125 276.9522 244 279 C236.0356 282.1289 236.1214 284.8947 228 288 C219.8417 291.1194 216.638 288.9576 210 292 C206.918 293.4126 207.2182 296.5244 204 299 C201.3689 301.0239 197 302 197 302 "/>
<path id="5" d="M418 127 C418 127 404.343 125.2925 395 129 C375.7095 136.655 373.1165 138.6729 355 152 C330.4411 170.0663 332.2788 176.3083 308 193 C294.236 202.4628 291.6905 200.9569 275 207 C262.9281 211.3709 259.9921 208.2638 250 214 C235.2701 222.456 233.8284 225.1716 221 238 C213.4966 245.5034 212.4499 248.1271 208 256 C207.1222 257.553 208.7657 259.5963 208 261 C206.58 263.6033 203.7707 263.8521 202 267 C199.7925 270.9244 201.1852 272.6295 199 277 C196.4347 282.1306 193.8574 282.0468 192 287 C189.8299 292.7869 190 301 190 301 "/>
</g>
</g>
</svg>
