<?xml version="1.0" encoding="utf-8"?>
<!DOCTYPE svg PUBLIC "-//W3C//DTD SVG 1.1//EN" "http://www.w3.org/Graphics/SVG/1.1/DTD/svg11.dtd">
<svg viewBox="0 0 800 800" preserveAspectRatio="xMinYMin meet" xmlns="http://www.w3.org/2000/svg" version="1.1">
<g fill="none" stroke="black" stroke-linecap="round" stroke-linejoin="round" stroke-width="2.0593">
<g transform="translate(139.2358,87.52) scale(1.4568) translate(-200,-22)">
<path id="0" d="M226 151 L238 163 "/>
<path id="1" d="M228 153 C228 153 221.7325 160.6219 215 167 C212.4905 169.3774 211.5294 170.458 209 171 C206.1281 171.6154 202.0826 169.6391 201 170 C200.6705 170.1098 199.729 172.5095 200 174 C200.5355 176.9455 201.1663 179.333 203 181 C205.1007 182.9098 207.3954 183.8498 211 184 C218.0613 184.2942 227 182 227 182 "/>
<path id="2" d="M226 183 L251 171 "/>
<path id="3" d="M250 168 L255 174 "/>
<path id="4" d="M217 195 C217 195 215.0023 193.9791 215 194 C214.9705 194.2652 216.2053 201.7412 216 204 C215.9755 204.2694 213.9913 204.9957 214 205 C214.0522 205.0261 218.2782 206.7342 222 207 C224.7097 207.1936 226.1568 206.9216 228 206 C228.9925 205.5038 230 203 230 203 "/>
<path id="5" d="M217 194 C217 194 231.6777 191.734 244 188 C247.0838 187.0655 248.3264 186.2315 250 184 C252.0182 181.309 253 176 253 176 "/>
<path id="6" d="M228 183 C228 183 226 182 226 182 C225.7131 182.5738 224.2869 190.4262 224 191 C224 191 222.1895 189.9052 222 190 C221.5578 190.2211 220 193 220 193 "/>
<path id="7" d="M227 207 C227 207 229.7185 202.9689 233 201 C239.0161 197.3904 241.462 196.6288 247 195 C247.9506 194.7204 249.5771 196.2819 250 196 C252.7187 194.1875 259 187 259 187 "/>
<path id="8" d="M227 151 C227 151 225.6233 137.6769 226 126 C226.0915 123.1637 226.3343 121.8739 228 120 C233.2349 114.1107 235.1354 112.0043 242 108 C245.6502 105.8707 247.0518 106.3534 252 106 C260.7813 105.3728 262.1746 104.6026 270 106 C274.7356 106.8456 275.9672 107.7427 280 111 C288.3087 117.7108 290.2499 118.6362 296 127 C300.286 133.2342 302 143 302 143 "/>
<path id="9" d="M302 142 C302 142 311.26 153.1094 322 161 C335.1216 170.6404 336.267 171.9036 351 178 C364.0412 183.3964 365.8283 183.534 380 185 C393.7771 186.4252 409 184 409 184 "/>
<path id="10" d="M409 184 C409 184 412.0246 183.9754 413 183 C416.7067 179.2933 416.9906 174.0047 421 172 C428.1279 168.4361 432.6512 171.2467 443 168 C457.5809 163.4256 471.4464 156.0213 472 156 C472.0643 155.9975 471.4308 162.5436 469 167 C465.9397 172.6106 464.8812 173.6612 460 178 C456.5052 181.1065 455.4463 181.8884 451 183 C442.5413 185.1147 440.0116 183.2583 432 185 C430.0822 185.4169 428.0547 187.2349 428 188 C427.8206 190.5116 428.6539 194.777 431 199 C433.0168 202.6303 438 206 438 206 "/>
<path id="11" d="M436 206 C436 206 446.1825 212.4807 448 213 C448.1484 213.0424 449.8717 209.9605 450 210 C451.5666 210.482 455.2612 214.832 461 217 C476.8893 223.0026 479.709 220.9547 495 227 C499.741 228.8743 502.1266 230.3973 504 234 C507.2207 240.1937 504.7829 243.9573 508 252 C511.4469 260.6171 514.1642 260.3054 518 269 C521.4407 276.7988 521.169 277.4082 523 286 C527.6324 307.7367 527.4554 308.2896 531 330 C531.3912 332.396 531.676 333.4791 531 335 C530.2189 336.7575 527.3556 337.311 527 339 C525.8985 344.2323 527.8861 348.6835 527 354 C526.7932 355.2405 524 357 524 357 "/>
<path id="12" d="M524 356 C524 356 525.3266 364.0964 529 370 C538.7272 385.633 542.5115 385.5372 552 401 C555.2505 406.2971 556 414 556 414 "/>
<path id="13" d="M558 415 C558 415 546.5308 416.5044 536 415 C515.7591 412.1084 500.639 410.9833 495 406 C491.8175 403.1875 495.5266 390.2647 493 377 C491.7838 370.6149 490.9547 368.7456 487 364 C482.02 358.024 480.2806 356.7506 473 353 C464.8219 348.787 454 347 454 347 "/>
<path id="14" d="M496 388 C496 388 485.8389 402.106 478 417 C471.0082 430.2844 466 445 466 445 "/>
<path id="15" d="M475 355 C475 355 466.2114 373.309 464 391 C460.4426 419.4594 463 451 463 451 "/>
<path id="16" d="M458 348 C458 348 427.219 308.4655 397 283 C387.492 274.9877 382.6033 275.23 369 273 C353.8543 270.5171 336 273 336 273 "/>
<path id="17" d="M326 241 C326 241 329.3456 262.6464 329 282 C328.8728 289.1236 325 297 325 297 "/>
<path id="18" d="M326 296 C326 296 324.6553 301.5277 322 305 C318.723 309.2853 316.8545 310.628 313 313 C311.8926 313.6815 309.6677 313.6009 309 313 C306.6463 310.8817 304.5329 308.5986 303 304 C299.4233 293.27 298.7257 291.7918 298 280 C296.7779 260.1404 299 239 299 239 "/>
<path id="19" d="M340 274 C340 274 335.0494 273.2376 332 274 C330.1894 274.4526 328 277 328 277 "/>
<path id="20" d="M300 240 C300 240 298.7032 231.3054 300 229 C301.1863 226.8911 309 224 309 224 "/>
<path id="21" d="M298 267 C298 267 295.0043 266.2911 294 267 C288.6091 270.8054 287.9253 274.9263 281 279 C272.1251 284.2205 267.591 282.3286 260 287 C257.0942 288.7882 255 295 255 295 "/>
<path id="22" d="M256 295 C256 295 248.716 288.1728 246 282 C244.0582 277.5868 244.451 275.2155 245 270 C245.3377 266.7922 245.8204 265.5948 248 263 C255.5828 253.9728 256.548 251.95 266 245 C272.3992 240.2947 274.3227 239.7336 282 238 C288.5504 236.5209 294.5561 238.7637 297 238 C297.4175 237.8695 298 233 298 233 "/>
<path id="23" d="M300 238 C300 238 295.5415 238.7083 292 238 C288.6356 237.3271 287.0499 236.5374 285 235 C284.2798 234.4598 284.0012 231.9994 284 232 C283.9927 232.0037 283.0236 236.0118 283 236 C282.6818 235.8409 277.8372 231.8837 274 227 C267.0248 218.1225 265.5322 217.5976 261 208 C257.5946 200.7886 257 191 257 191 "/>
<path id="24" d="M263 134 C263 134 257.194 132.7506 257 133 C256.4298 133.7332 256.0574 142.8471 256 143 C255.9931 143.0184 254.1169 141 254 141 C253.9416 141 252.9815 142.9944 253 143 C253.5235 143.1571 261.0076 144.9351 264 144 C265.9249 143.3985 267.6712 140.6576 269 138 C269.6253 136.7494 269.5174 134.6037 269 134 C267.9466 132.7711 263.4185 130.9402 263 131 C262.882 131.0169 262 135 262 135 "/>
<path id="25" d="M258 132 C258 132 258.431 140.9224 258 142 C257.931 142.1724 254 142 254 142 "/>
<path id="26" d="M261 134 C261 134 259.774 138.1921 260 140 "/>
<path id="27" d="M262 139 C262 139 263.002 144.9997 263 145 C262.8982 145.0145 255 140 255 140 "/>
<path id="28" d="M244 76 C244 76 241.1875 76.1875 241 76 C240.8125 75.8125 240.9979 72.9979 241 73 C241.0063 73.0063 244 78.987 244 79 C244 79.0043 241.3104 77.8278 241 77 C240.404 75.4107 241 71 241 71 "/>
<path id="29" d="M258 49 C258 49 254.1195 52.5661 254 54 C253.8488 55.8148 255.4734 59.6431 257 61 C258.1403 62.0136 260.8162 62.3971 263 62 C265.0814 61.6216 267.699 60.0535 268 59 C268.7282 56.4511 267.5886 48.8409 267 48 C266.839 47.77 262.3595 49.4532 261 49 C259.9604 48.6535 258 45 258 45 "/>
<path id="30" d="M255 51 C255 51 255.995 54 256 54 C256.005 54 256.5966 51.1513 257 51 C258.329 50.5016 263.9916 50.9832 264 51 C264.0036 51.0072 259.4452 54.8516 259 55 C258.9766 55.0078 258 53 258 53 "/>
<path id="31" d="M287 24 C287 24 281.0117 24.8619 280 26 C279.0294 27.092 278.563 30.3783 279 33 C279.3517 35.1102 280.5576 37.2132 282 38 C284.1522 39.1739 289.9896 39.0021 290 39 C290.0035 38.9993 287 37.0373 287 37 C287 36.9814 289.8208 36.4182 290 36 C290.4705 34.9023 289.7 30.6 290 30 C290.075 29.85 292.925 30.15 293 30 C293.3 29.4 293.2423 24.2423 293 24 C292.8384 23.8384 288.3867 24.4587 288 25 C287.4925 25.7105 288.252 30.86 288 31 C287.3617 31.3546 279 30 279 30 "/>
<path id="32" d="M255 47 C255 47 254.9717 45.0047 255 45 C255.4954 44.9174 259.4322 44.9548 261 46 C262.4894 46.9929 263.999 50.9995 264 51 C264.0006 51.0003 263.4825 47.4825 263 47 C262.7105 46.7105 260 47 260 47 "/>
<path id="33" d="M259 45 L253 47 "/>
<path id="34" d="M257 45 L255 53 "/>
<path id="35" d="M283 29 C283 29 289.0001 28 289 28 C288.9998 27.9999 280 28 280 28 C280 28 287.4515 27.4701 288 27 C288.2035 26.8256 286.9997 22.0003 287 22 C287.0002 21.9998 289 26 289 26 "/>
</g>
</g>
</svg>
