<?xml version="1.0" encoding="utf-8"?>
<!DOCTYPE svg PUBLIC "-//W3C//DTD SVG 1.1//EN" "http://www.w3.org/Graphics/SVG/1.1/DTD/svg11.dtd">
<svg viewBox="0 0 800 800" preserveAspectRatio="xMinYMin meet" xmlns="http://www.w3.org/2000/svg" version="1.1">
<g fill="none" stroke="black" stroke-linecap="round" stroke-linejoin="round" stroke-width="2.1793">
<g transform="translate(87.52,188.6974) scale(1.3766) translate(-67,-49.1333)">
<path id="0" d="M177 291.1333 C177 291.1333 174.6054 284.9508 171 281.1333 C166.7682 276.6526 165.8162 275.8884 160 273.1333 C147.5189 267.2212 146.5584 267.2324 133 263.1333 C125.3649 260.825 124.8699 260.3755 117 260.1333 C93.0518 259.3965 68 261.1333 68 261.1333 "/>
<path id="1" d="M67 265.1333 C67 265.1333 79.4916 263.0461 89 265.1333 C98.0657 267.1234 99.2093 268.8589 108 274.1333 C116.3583 279.1483 116.7073 279.5036 124 286.1333 C138.4868 299.3031 139.3443 299.9436 152 314.1333 C155.2156 317.7387 157 323.1333 157 323.1333 "/>
<path id="2" d="M178 293.1333 C178 293.1333 193.4326 289.9908 206 291.1333 C213.4747 291.8129 215.4121 292.7913 222 297.1333 C236.2487 306.5245 238.5173 307.5825 250 320.1333 C258.9097 329.8719 265 344.1333 265 344.1333 "/>
<path id="3" d="M157 322.1333 C157 322.1333 194.1191 315.8628 217 323.1333 C238.8067 330.0626 264 356.1333 264 356.1333 "/>
<path id="4" d="M265 344.1333 L265 355.1333 "/>
<path id="5" d="M70 265.1333 L70 262.1333 "/>
<path id="6" d="M179 293.1333 C179 293.1333 191.8905 245.6466 214 207.1333 C236.7771 167.457 242.5652 168.2467 272 131.1333 C276.7588 125.1331 277.0084 124.8501 283 120.1333 C300.2096 106.5854 300.1989 104.3267 319 94.1333 C340.5051 82.4739 342.4633 81.5995 366 75.1333 C386.5748 69.4809 388.1106 71.0936 410 69.1333 C421.3041 68.121 422.4486 67.2983 433 69.1333 C444.1897 71.0794 445.7718 71.8881 456 77.1333 C464.3606 81.4208 465.4375 82.2255 472 89.1333 C483.7979 101.5522 494 117.1333 494 117.1333 "/>
<path id="7" d="M186 292.1333 C186 292.1333 188.5051 287.7748 192 285.1333 C230.3327 256.161 231.2532 252.6001 272 227.1333 C289.7446 216.043 291.8175 216.5917 312 210.1333 C328.5404 204.8404 329.7789 204.6308 347 203.1333 C363.4011 201.7072 365.7996 200.3332 381 204.1333 C407.2956 210.7072 408.9499 218.9168 435 225.1333 C450.009 228.715 452.9394 226.2538 469 225.1333 C473.3502 224.8298 474.2252 224.3639 478 222.1333 C484.6259 218.218 491 212.1333 491 212.1333 "/>
<path id="8" d="M494 116.1333 C494 116.1333 501.3931 122.344 505 129.1333 C509.2469 137.1275 509.9091 138.8608 511 148.1333 C512.7715 163.1909 513.071 165.1187 511 180.1333 C509.2459 192.8505 505.6015 193.4509 503 206.1333 C501.7765 212.0981 501.1714 213.8508 503 219.1333 C509.3621 237.5128 521 258.1333 521 258.1333 "/>
<path id="9" d="M491 213.1333 C491 213.1333 500.4651 222.52 506 232.1333 C509.2651 237.8043 507.0434 240.2201 510 246.1333 C512.587 251.3074 518 256.1333 518 256.1333 "/>
<path id="10" d="M419 100.1333 C419 100.1333 409.278 89.1292 398 83.1333 C371.2331 68.9028 369.189 67.3225 340 58.1333 C316.5881 50.7629 314.7971 51.7589 290 49.1333 C272.9667 47.3298 254.9984 49.1266 255 49.1333 C255.0051 49.1548 275.7749 56.1924 294 66.1333 C308.1064 73.8277 306.7633 78.015 321 85.1333 C349.6685 99.4676 352.6144 96.285 382 110.1333 C395.5419 116.5151 394.9003 119.5835 408 126.1333 C414.1646 129.2156 422 130.1333 422 130.1333 "/>
<path id="11" d="M394 145.1333 C394 145.1333 382.9282 171.7589 369 196.1333 C357.1747 216.8276 353.4524 215.4215 342 236.1333 C330.3121 257.271 321.9954 281.0714 322 281.1333 C322.0017 281.1566 335.0037 273.4149 344 263.1333 C369.1173 234.4279 372.4462 233.2574 392 201.1333 C406.2319 177.7523 414 148.1333 414 148.1333 "/>
<path id="12" d="M464 94.1333 L464 91.1333 "/>
<path id="13" d="M467 88.1333 C467 88.1333 468.9655 88.0471 469 88.1333 C469.2155 88.6721 469.3125 92.8208 469 93.1333 C468.6875 93.4458 464.5388 93.3488 464 93.1333 C463.9138 93.0988 463.9997 91.133 464 91.1333 C464.0007 91.134 465.0468 93.9931 465 94.1333 C464.9883 94.1684 463.0769 94.2487 463 94.1333 C462.8269 93.8737 463 91.1333 463 91.1333 "/>
<path id="14" d="M463 90.1333 C463 90.1333 464.0014 93.1319 464 93.1333 C464 93.1333 462 91.1333 462 91.1333 "/>
<path id="15" d="M462 88.1333 C462 88.1333 463.9958 92.1292 464 92.1333 C464.0014 92.1347 463.9764 90.1363 464 90.1333 C464.7437 90.0404 472 91.1333 472 91.1333 "/>
</g>
</g>
</svg>
