<?xml version="1.0" encoding="utf-8"?>
<!DOCTYPE svg PUBLIC "-//W3C//DTD SVG 1.1//EN" "http://www.w3.org/Graphics/SVG/1.1/DTD/svg11.dtd">
<svg viewBox="0 0 800 800" preserveAspectRatio="xMinYMin meet" xmlns="http://www.w3.org/2000/svg" version="1.1">
<g fill="none" stroke="black" stroke-linecap="round" stroke-linejoin="round" stroke-width="2.573">
<g transform="translate(87.52,180.7976) scale(1.166) translate(0,-38.1333)">
<path id="0" d="M81 234.1333 C81 234.1333 80.3801 228.7201 82 225.1333 C86.7766 214.5565 87.033 211.2901 95 203.1333 C106.3258 191.5379 110.7597 185.7918 124 182.1333 C141.8807 177.1926 151.5619 177.2179 171 182.1333 C189.8439 186.8985 190.9907 195.6919 211 204.1333 C221.601 208.6056 223.1435 208.3829 235 209.1333 C261.8176 210.8306 264.6882 212.2582 290 209.1333 C302.5337 207.586 304.2267 205.7379 316 199.1333 C344.3796 183.2131 346.2233 182.5495 372 163.1333 C383.6519 154.3566 382.0493 146.6904 393 141.1333 C410.7346 132.1337 416.4028 132.9526 439 129.1333 C450.7625 127.1453 453.5257 127.3377 464 129.1333 C468.6207 129.9254 470.2767 131.4101 474 135.1333 C480.9811 142.1145 482.2986 143.6121 487 152.1333 C489.6558 156.947 490 158.6679 490 164.1333 C490 171.4206 488.8975 175.8639 487 180.1333 C486.5378 181.1733 483.6222 180.5588 482 182.1333 C468.1906 195.5366 466.4199 196.9747 453 213.1333 C442.132 226.2193 444.0637 228.561 433 241.1333 C422.538 253.0219 421.7973 253.6386 409 263.1333 C391.2886 276.2741 390.5215 277.1014 371 287.1333 C355.2223 295.2413 353.4988 298.5306 337 300.1333 C270.8469 306.5596 264.8593 307.4555 196 304.1333 C153.1002 302.0636 151.3183 298 109 289.1333 C99.8612 287.2185 98.6519 286.4184 91 282.1333 C87.188 279.9986 86.1711 279.0184 84 275.1333 C77.2937 263.1326 72 248.1333 72 248.1333 "/>
<path id="1" d="M230 202.1333 C230 202.1333 239.6326 170.9565 250 157.1333 C253.6718 152.2376 266.8213 148.7964 269 150.1333 C275.7952 154.3031 282.8168 166.9858 294 184.1333 C297.3927 189.3354 297.7962 190.3552 299 196.1333 C300.1076 201.4499 299 208.1333 299 208.1333 "/>
<path id="2" d="M87 233.1333 C87 233.1333 82.6372 230.9711 81 228.1333 C75.9321 219.349 72.6621 217.065 72 207.1333 C68.0437 147.7886 66.7066 92.7083 71 78.1333 C71.3832 76.8324 91.8047 80.0828 110 78.1333 C118.2312 77.2514 120.2455 75.6714 127 72.1333 C129.2196 70.9707 130.2468 69.393 131 67.1333 C131.8325 64.6358 131.688 63.1148 131 60.1333 C130.3422 57.2829 129.9934 56.2801 128 54.1333 C124.0779 49.9096 123.1625 48.1983 118 46.1333 C107.2839 41.8469 105.477 41.8251 93 40.1333 C76.435 37.8872 75.4032 36.9183 59 38.1333 C35.9387 39.8416 32.5486 40.9028 12 46.1333 C8.0076 47.1496 6.5333 48.9092 4 52.1333 C1.8644 54.8514 1.1934 56.653 1 60.1333 C0.76587 64.3476 1.965 69.7489 3 70.1333 C9.1789 72.4283 31.215 72.1183 36 73.1333 C36.1207 73.1589 36.6995 75.6891 36 77.1333 C22.8807 104.2183 13.9757 107.7131 5 137.1333 C-2.6922 162.3465 -4.8111 171.4789 0 195.1333 C5.5638 222.4886 12.9776 226.414 29 255.1333 C39.1775 273.3761 40.7474 275.7802 53 290.1333 C56.3984 294.1143 58.476 294.5296 64 296.1333 C73.0482 298.7602 74.0752 297.9424 84 299.1333 C86.4373 299.4258 87.7393 299.8337 89 299.1333 C90.7089 298.1839 93 294.1333 93 294.1333 "/>
<path id="3" d="M428 149.1333 C428 149.1333 427.9997 155.1328 428 155.1333 C428.0002 155.1336 429 151.1333 429 151.1333 "/>
<path id="4" d="M482 139.1333 C482 139.1333 488.1571 133.1963 495 129.1333 C503.7964 123.9104 504.7601 122.387 514 120.1333 C523.6971 117.7682 533.6965 118.5051 536 119.1333 C536.2024 119.1885 537.0413 123.3881 536 126.1333 C532.1066 136.3977 531.4263 138.4939 525 148.1333 C520.9836 154.158 520.073 155.2404 514 159.1333 C501.5608 167.1072 495.8161 167.379 486 173.1333 C485.2521 173.5718 485 176.1333 485 176.1333 "/>
<path id="5" d="M239 311.1333 C239 311.1333 244.1261 329.9723 252 347.1333 C263.4323 372.0498 264.7956 371.7878 278 396.1333 C280.7735 401.247 280.5847 401.6671 284 406.1333 C286.892 409.9152 287.6113 410.8742 291 413.1333 C292.6459 414.2306 294.5709 414.7218 296 414.1333 C300.7636 412.1718 304.2093 410.9447 308 406.1333 C315.825 396.2016 318.0132 393.6917 322 381.1333 C327.4031 364.1135 323.5293 361.3141 328 343.1333 C330.8554 331.5212 333.9275 331.5853 337 320.1333 C339.241 311.7806 339 302.1333 339 302.1333 "/>
</g>
</g>
</svg>
