<?xml version="1.0" encoding="utf-8"?>
<!DOCTYPE svg PUBLIC "-//W3C//DTD SVG 1.1//EN" "http://www.w3.org/Graphics/SVG/1.1/DTD/svg11.dtd">
<svg viewBox="0 0 800 800" preserveAspectRatio="xMinYMin meet" xmlns="http://www.w3.org/2000/svg" version="1.1">
<g fill="none" stroke="black" stroke-linecap="round" stroke-linejoin="round" stroke-width="1.2241">
<g transform="translate(91.1962,87.52) scale(2.4508) translate(-101,-166)">
<path id="0" d="M223 167 C223 167 205.6538 165.1019 193 167 C188.4024 167.6896 186.1162 169.2902 183 173 C176.8888 180.2753 174.7182 183.104 172 192 C169.9335 198.7632 173.9637 207.6064 172 209 C158.7896 218.3751 138.0529 221.776 110 236 C104.973 238.5489 103.1889 241.1086 101 245 C99.9104 246.937 100.687 251.8122 101 252 C101.7006 252.4204 108.194 252.403 111 251 C112.8707 250.0647 112.5111 246.7889 115 245 C127.042 236.3448 129.2307 233.3997 143 228 C152.6027 224.2342 155.2549 227.5282 166 225 C171.5192 223.7014 172.6873 221.2322 177 220 C177.9418 219.7309 180.0247 220.98 180 221 C179.5841 221.3367 168.2907 229.5792 156 237 C141.8837 245.5231 137.8791 244.1791 127 253 C121.9843 257.0668 118.9214 266.8652 119 267 C119.0569 267.0975 131.6764 265.6196 134 265 C134.0798 264.9787 133.8268 263.0866 134 263 C136.4254 261.7873 140.5326 261.7337 146 259 C156.1538 253.9231 155.7596 251.8507 166 247 C174.3098 243.0638 176.8936 244.5532 184 241 C186.1996 239.9002 186.5948 236.1022 188 236 C204.3993 234.8073 238.2652 236.1941 239 237 C239.2284 237.2505 227.7176 253.1874 219 270 C213.9451 279.7487 210.7779 290.4725 211 291 C211.0597 291.1417 221.7465 290.4593 227 289 C227.8991 288.7503 227.7996 286.6156 229 286 C244.51 278.0462 247.4139 276.5059 266 269 C273.0401 266.1569 273.6266 266.0924 281 265 C286.6746 264.1593 288.4923 263.9394 293 265 C295.2317 265.5251 297.1122 266.9286 298 269 C300.7045 275.3106 301.3911 277.6271 302 286 C303.3383 304.401 303.4338 306.0772 302 324 C301.5351 329.8108 300.3892 330.1977 298 336 C293.4276 347.1044 294.5194 349.1673 288 358 C280.1229 368.6722 277.8206 368.9246 267 378 C262.6939 381.6115 262.1661 381.8953 257 384 C249.097 387.2197 248.3304 387.7378 240 389 C232.4941 390.1373 231.1679 390.28 224 389 C218.2241 387.9686 216.7769 387.0909 212 384 C209.215 382.1979 208.5636 381.2389 207 378 C201.9182 367.4735 201.2344 366.4673 198 355 C195.9022 347.5624 197.8321 346.3284 196 339 C195.0007 335.0027 191.8122 332.1269 192 331 C192.1281 330.2317 195.8368 329.4723 198 327 C205.7467 318.1466 213 307.303 213 307 C213 306.9849 204.8219 306.105 198 308 C178.8491 313.3197 177.2891 319.2441 159 322 C144.0749 324.249 125.0002 319 125 319 C125 319 130.5264 319.2495 135 321 C141.53 323.5552 143.8187 323.6369 148 328 C153.7123 333.9607 158 345 158 345 "/>
<path id="1" d="M157 344 C157 344 161.6727 357.6091 168 370 C173.531 380.8316 173.1638 382.4515 181 391 C194.1925 405.3919 196.7513 406.2703 212 418 C215.0361 420.3355 216.1526 420.6393 220 421 C231.1501 422.0453 233.468 423.8312 244 421 C277.2285 412.0676 282.2411 408.7137 313 396 C316.2878 394.641 316.891 393.3744 319 390 C328.9231 374.1231 330.8518 373.1557 338 356 C342.8602 344.3355 343.0388 342.8164 344 330 C345.9624 303.8342 344.6487 302.9204 344 276 C343.6511 261.5187 343.5036 261.2839 342 247 C341.5259 242.4961 341.6975 241.6376 340 238 C338.5759 234.9484 334.7676 232.8135 335 232 C335.9225 228.7714 342.4072 224.7844 346 217 C350.873 206.4419 353.1562 193.0625 353 193 C348.6253 191.2501 314.6895 194.3689 281 191 C272.2743 190.1274 270.7259 188.1848 263 184 C259.7206 182.2236 260.0433 179.6231 257 178 C253.67 176.224 250.2937 177.1468 248 176 C247.4266 175.7133 247.4725 173.135 247 173 C239.7678 170.9337 224.6311 169.2007 220 168 C219.9151 167.978 220 166 220 166 "/>
<path id="2" d="M205 194 C205 194 194.35 193.55 193 194 C192.85 194.05 192.6178 197.3631 193 198 C193.2675 198.4459 194.5449 198.8677 196 199 C199.7662 199.3424 203.2809 199.4494 204 199 C204.2809 198.8244 204 194 204 194 "/>
</g>
</g>
</svg>
