<?xml version="1.0" encoding="utf-8"?>
<!DOCTYPE svg PUBLIC "-//W3C//DTD SVG 1.1//EN" "http://www.w3.org/Graphics/SVG/1.1/DTD/svg11.dtd">
<svg viewBox="0 0 800 800" preserveAspectRatio="xMinYMin meet" xmlns="http://www.w3.org/2000/svg" version="1.1">
<g fill="none" stroke="black" stroke-linecap="round" stroke-linejoin="round" stroke-width="1.5457">
<g transform="translate(87.52,240.8487) scale(1.9409) translate(-126,-131)">
<path id="0" d="M130 140 C130 140 145.59 145.6941 161 147 C203.5593 150.6067 212.044 147.6293 248 150 C249.731 150.1141 252 153 252 153 "/>
<path id="1" d="M133 144 C133 144 125.1007 165.9938 126 168 C126.602 169.343 136.1479 171.8804 146 173 C157.4959 174.3064 158.8357 171.4051 170 173 C178.7719 174.2531 179.1088 177.9608 188 179 C216.2171 182.2981 230.2245 182.7988 247 182 C248.2215 181.9418 250.2981 178.9246 251 176 C252.9646 167.8144 251.8963 162.5184 253 157 C253.0796 156.6018 254.9625 156.319 255 156 C255.4861 151.8683 254.4809 140.1401 255 140 C262.6078 137.9471 314.4243 135.3666 318 139 C321.6939 142.7535 321.1634 199.3499 317 203 C311.7511 207.6018 275.1862 203.805 245 203 C243.7199 202.9659 242.3104 201.8278 242 201 C241.404 199.4107 241.3312 197.2294 242 195 C242.5462 193.1794 244.5215 192.9822 245 191 C247.6298 180.1052 246.4949 176.0204 249 166 C249.3613 164.5548 252 163 252 163 "/>
<path id="2" d="M319 144 C319 144 298.8914 142.9993 292 145 C290.4034 145.4635 287.9283 152.9414 288 153 C288.4455 153.3645 300.9219 153.5844 303 154 C303.0547 154.0109 303 156 303 156 C304.6574 156 320 154 320 154 "/>
<path id="3" d="M321 165 C321 165 302.9708 163.4893 293 165 C290.9497 165.3106 289.3302 167.8716 288 170 C287.5088 170.7859 287.7383 172.7906 288 173 C288.6325 173.506 290.5354 173.923 293 174 C306.2262 174.4133 320 174 320 174 "/>
<path id="4" d="M321 186 C321 186 302.6742 185.3827 292 187 C290.3134 187.2555 288.7811 189.2425 288 191 C287.324 192.5209 287.5977 195.6551 288 196 C288.7376 196.6323 293.9779 196.562 295 197 C295.1179 197.0505 294.9809 198.9985 295 199 C298.2309 199.2485 321 199 321 199 "/>
<path id="5" d="M320 143 C320 143 330.9098 141.046 332 142 C333.6782 143.4684 333.5176 151.4146 336 157 C336.7069 158.5906 338.1269 159.6057 340 160 C346.1514 161.295 352.4164 158.847 355 161 C359.0522 164.3768 361.6928 171.3482 364 180 C365.1572 184.3394 364.7758 187.626 363 191 C361.0377 194.7284 358.5685 195.9543 354 199 C351.6626 200.5582 350.8343 200.9023 348 201 C337.2748 201.3698 325 200 325 200 "/>
<path id="6" d="M347 156 C347 156 344.8944 133.5893 346 132 C346.5136 131.2617 357.7092 131.8861 363 133 C363.809 133.1703 364.8851 134.6784 365 136 C365.7242 144.328 363.8576 154.2425 365 156 C365.4826 156.7425 374.6043 157.0611 378 156 C379.1917 155.6276 379.4852 151.7574 381 151 C384.3051 149.3475 391.4165 148.6287 392 149 C392.3436 149.2186 392.9161 155.8013 392 158 C391.4826 159.2419 387.7893 159.7372 387 161 C386.3557 162.0309 386.4623 165.5221 387 166 C388.4114 167.2545 392.4918 166.8074 396 169 C399.6695 171.2934 402.1251 172.7919 403 176 C405.6069 185.5587 405 202 405 202 "/>
<path id="7" d="M363 168 C363 168 369.5244 166.7622 372 168 C375.0257 169.5129 377.7223 172.0507 379 176 C382.3975 186.5014 383 202 383 202 "/>
<path id="8" d="M301 207 C301 207 300.0147 226.1613 301 237 C301.1075 238.1824 302.647 239.6816 304 240 C309.1972 241.2229 314.1095 240.2219 318 241 C318.3836 241.0767 318.7084 242.9828 319 243 C327.6097 243.5065 343.1222 245.2764 352 243 C354.304 242.4092 356.263 237.6319 358 233 C358.8508 230.7313 357.7414 227.1034 358 227 C359.6164 226.3534 367.9482 225.5566 373 227 C375.598 227.7423 377.3141 229.7815 379 233 C382.2488 239.2023 383.0872 240.6974 384 248 C385.4605 259.6842 386.2488 262.2555 384 273 C382.2114 281.5456 374.9836 290.9914 375 291 C377.0285 292.0625 400.5472 293.5456 426 295 C435.4401 295.5394 442.8213 296.5845 445 295 C446.6783 293.7794 447.5246 286.9235 448 279 C448.999 262.3499 451.0251 256.5962 448 245 C446.6538 239.8395 439.8382 237.7978 436 233 C435.4669 232.3336 436.5202 230.5476 436 230 C429.922 223.6021 426.5171 220.0497 417 213 C413.9206 210.719 412.9369 210.5624 409 210 C399.5914 208.6559 389 209 389 209 "/>
<path id="9" d="M409 202 L410 212 "/>
<path id="10" d="M333 201 C333 201 334.9014 210.333 333 215 C330.6258 220.8276 322.0346 227.7751 322 228 C321.9967 228.0212 327.8712 229.2168 331 228 C335.0752 226.4152 336.8015 224.8839 340 221 C343.1332 217.1954 343.7506 215.7476 345 211 C345.9937 207.224 345 202 345 202 "/>
<path id="11" d="M357 202 L357 226 "/>
<path id="12" d="M386 204 C386 204 385.6066 208.7496 386 209 C387.5175 209.9657 397 211 397 211 "/>
<path id="13" d="M139 144 C139 144 138.6272 131.8948 139 131 C139.0311 130.9254 142.9072 130.9072 144 132 C147.6428 135.6428 152 144 152 144 "/>
</g>
</g>
</svg>
