<?xml version="1.0" encoding="utf-8"?>
<!DOCTYPE svg PUBLIC "-//W3C//DTD SVG 1.1//EN" "http://www.w3.org/Graphics/SVG/1.1/DTD/svg11.dtd">
<svg viewBox="0 0 800 800" preserveAspectRatio="xMinYMin meet" xmlns="http://www.w3.org/2000/svg" version="1.1">
<g fill="none" stroke="black" stroke-linecap="round" stroke-linejoin="round" stroke-width="1.9057">
<g transform="translate(87.52,301.6121) scale(1.5742) translate(-192,-107.1333)">
<path id="0" d="M312 142.1333 C312 142.1333 327.1197 143.0634 342 142.1333 C374.9227 140.0757 408 136.1333 408 136.1333 "/>
<path id="1" d="M321 164.1333 C321 164.1333 343.6726 165.5318 365 164.1333 C373.3673 163.5847 373.4984 161.2422 382 160.1333 C396.1974 158.2815 411 158.1333 411 158.1333 "/>
<path id="2" d="M409 137.1333 L411 156.1333 "/>
<path id="3" d="M314 143.1333 C314 143.1333 315.6987 164.5187 317 168.1333 C317.1078 168.4327 323 168.1333 323 168.1333 "/>
<path id="4" d="M314 142.1333 L267 147.1333 "/>
<path id="5" d="M267 147.1333 L272 182.1333 "/>
<path id="6" d="M272 182.1333 C272 182.1333 284.2633 183.2201 296 182.1333 C310.8972 180.754 326 177.1333 326 177.1333 "/>
<path id="7" d="M326 175.1333 L322 165.1333 "/>
<path id="8" d="M273 175.1333 L323 173.1333 "/>
<path id="9" d="M271 168.1333 C271 168.1333 275.7718 164.43 280 164.1333 C301.8684 162.5987 328 164.1333 328 164.1333 "/>
<path id="10" d="M269 160.1333 L323 154.1333 "/>
<path id="11" d="M267 154.1333 L322 148.1333 "/>
<path id="12" d="M262 149.1333 C262 149.1333 246.5356 148.7571 235 152.1333 C228.117 154.1479 224.2314 156.4657 221 161.1333 C217.5824 166.0699 217.5874 169.7624 217 178.1333 C215.6402 197.5098 215.5827 199.0004 217 218.1333 C217.5065 224.9716 221 232.1333 221 232.1333 "/>
<path id="13" d="M275 181.1333 C275 181.1333 268.5699 180.3484 265 182.1333 C258.3701 185.4483 254.9204 187.3559 251 193.1333 C247.1001 198.8805 246.4131 202.2843 246 210.1333 C245.5013 219.6095 249.8024 230.4312 249 231.1333 C247.5909 232.3663 222 231.1333 222 231.1333 "/>
<path id="14" d="M234 154.1333 L192 152.1333 "/>
<path id="15" d="M192 152.1333 L192 162.1333 "/>
<path id="16" d="M192 162.1333 L225 162.1333 "/>
<path id="17" d="M420 139.1333 C420 139.1333 426.1292 133.0595 433 129.1333 C443.1751 123.319 443.7532 123.0608 455 119.1333 C474.9374 112.171 496 107.1333 496 107.1333 "/>
<path id="18" d="M439 144.1333 C439 144.1333 450.2327 146.7559 458 152.1333 C468.4944 159.3987 478 171.1333 478 171.1333 "/>
<path id="19" d="M438 170.1333 C438 170.1333 439.9523 173.1882 442 174.1333 C445.4758 175.7375 446.5713 175.932 451 176.1333 C468.0505 176.9084 486 176.1333 486 176.1333 "/>
<path id="20" d="M474 138.1333 L589 134.1333 "/>
</g>
</g>
</svg>
