<?xml version="1.0" encoding="utf-8"?>
<!DOCTYPE svg PUBLIC "-//W3C//DTD SVG 1.1//EN" "http://www.w3.org/Graphics/SVG/1.1/DTD/svg11.dtd">
<svg viewBox="0 0 800 800" preserveAspectRatio="xMinYMin meet" xmlns="http://www.w3.org/2000/svg" version="1.1">
<g fill="none" stroke="black" stroke-linecap="round" stroke-linejoin="round" stroke-width="1.9153">
<g transform="translate(87.52,251.2) scale(1.5663) translate(-146,-96)">
<path id="0" d="M313 119 L513 119 "/>
<path id="1" d="M322 139 C322 139 328.633 136.1196 335 136 C432.5401 134.1683 535 135 535 135 "/>
<path id="2" d="M509 121 C509 121 520.2319 121.3841 527 118 C535.8506 113.5747 544.9873 103.0042 545 103 C545.0053 102.9982 540.2854 108.6746 539 114 C537.1164 121.8037 538 132 538 132 "/>
<path id="3" d="M544 109 C544 109 542.3931 126.2139 540 131 C539.4017 132.1965 532 133 532 133 "/>
<path id="4" d="M344 163 C344 163 346.8149 159.5167 350 158 C356.6054 154.8546 357.6726 153.5073 365 153 C420.0415 149.1894 462.7406 151.6782 480 149 C480.4736 148.9265 481 135 481 135 "/>
<path id="5" d="M313 120 C313 120 282.4408 117.5989 255 120 C244.3016 120.9361 240.7702 122.5599 233 127 C229.6699 128.9029 228.4375 131.4261 227 136 C223.359 147.5849 225.6103 149.4498 222 162 C215.2101 185.6029 215.2893 186.396 206 209 C200.4943 222.3971 200.0971 223.2462 192 235 C185.0236 245.127 184.1722 245.426 175 254 C161.4282 266.6867 146.1447 277.807 146 278 C145.9739 278.0348 151.9002 276.98 157 278 C171.1866 280.8373 171.7668 284.4613 186 286 C207.4465 288.3185 208.9267 287.4914 231 286 C245.3907 285.0277 245.4937 282.6118 260 281 C276.7967 279.1337 288.4321 281.9305 294 279 C296.1402 277.8736 297.4638 269.9013 298 261 C299.9126 229.2515 295.6884 227.3094 299 196 C301.0375 176.7362 302.731 173.7173 309 157 C310.7597 152.3074 312.9916 150.0042 317 148 C322.6117 145.1941 325.0789 146.0332 333 145 C336.3828 144.5588 339.099 144.1809 340 145 C341.685 146.5318 344 155 344 155 "/>
<path id="6" d="M344 152 C344 152 332.0114 151.2087 327 152 C326.2708 152.1151 325.2631 153.553 325 155 C323.4854 163.33 323 166.5643 323 174 C323 175.1741 324.0571 176.6228 325 177 C327.4752 177.9901 332.9188 178.193 333 178 C333.6861 176.3706 332.191 163.9324 333 158 C333.0974 157.2854 336 156 336 156 "/>
<path id="7" d="M328 148 C328 148 322.1801 146.91 320 148 C317.4111 149.2944 314.741 151.9126 314 155 C312.4197 161.5844 312.212 168.232 314 173 C314.9312 175.4833 319.1942 178.5243 323 179 C331.8802 180.11 340.1561 179.5045 346 177 C348.2746 176.0252 350.051 171.7449 351 167 C352.2941 160.5297 351 152 351 152 "/>
<path id="8" d="M282 118 C282 118 290.4362 115.1265 294 111 C298.3194 105.9985 300.9779 95.981 301 96 C301.1139 96.0976 308 123 308 123 "/>
<path id="9" d="M309 120 C309 120 315.9778 111.2392 321 111 C392.5228 107.5942 444.6509 108.3763 498 111 C499.9419 111.0955 504 120 504 120 "/>
<path id="10" d="M276 122 C276 122 274.7215 130.5118 276 138 C278.0931 150.2596 277.9802 153.753 283 163 C285.8784 168.3023 295 173 295 173 "/>
<path id="11" d="M294 177 C294 177 296.8343 176.4172 298 177 C299.7485 177.8743 302 181 302 181 "/>
<path id="12" d="M294 185 C294 185 284.8446 189.2407 277 195 C245.6625 218.0073 244.378 218.0845 215 243 C205.5284 251.0329 198 262 198 262 "/>
<path id="13" d="M305 195 C305 195 280.9915 214.3589 256 232 C238.6214 244.2672 237.1962 242.6403 220 255 C205.4226 265.4775 192 278 192 278 "/>
</g>
</g>
</svg>
