<?xml version="1.0" encoding="utf-8"?>
<!DOCTYPE svg PUBLIC "-//W3C//DTD SVG 1.1//EN" "http://www.w3.org/Graphics/SVG/1.1/DTD/svg11.dtd">
<svg viewBox="0 0 800 800" preserveAspectRatio="xMinYMin meet" xmlns="http://www.w3.org/2000/svg" version="1.1">
<g fill="none" stroke="black" stroke-linecap="round" stroke-linejoin="round" stroke-width="2.7122">
<g transform="translate(87.52,211.4059) scale(1.1061) translate(-76,-140)">
<path id="0" d="M76 166 L383 167 "/>
<path id="1" d="M77 198 C77 198 183.2255 195.8647 287 198 C303.3583 198.3366 303.6018 202.1547 320 203 C351.5561 204.6266 384 203 384 203 "/>
<path id="2" d="M80 164 C80 164 83.9023 164.2682 85 165 C85.5811 165.3874 85.9486 166.5609 86 168 C86.4233 179.8517 87.3884 188.8349 86 193 C85.7223 193.833 77.0971 195.1844 77 195 C76.2365 193.5493 75.0597 182.7763 76 174 C76.3343 170.8795 80 167 80 167 "/>
<path id="3" d="M82 166 C82 166 88.3587 163.3772 91 161 C91.9 160.19 91.9987 156.9987 92 157 C92.003 157.003 93 163 93 163 "/>
<path id="4" d="M336 206 C336 206 337.9597 206.6778 338 207 C338.4833 210.8666 336.2381 215.5396 338 222 C341.7908 235.8997 343.1577 239.2704 350 251 C352.3283 254.9913 354.6253 256.5418 359 258 C366.2053 260.4018 370.2228 261.4376 377 260 C383.5201 258.617 388.3049 255.3472 392 251 C394.1576 248.4616 393.6239 245.4536 394 240 C394.6078 231.1865 396.038 229.3369 394 222 C391.6475 213.5308 384 204 384 204 "/>
<path id="5" d="M357 208 C357 208 358.9897 220.8932 361 224 C361.598 224.9242 365.3783 225.437 368 225 C370.1102 224.6483 372.4498 223.4147 373 222 C374.7556 217.4856 375 207 375 207 "/>
<path id="6" d="M350 209 C350 209 341.7488 207.8758 340 209 C338.2887 210.1001 336.1807 214.3868 336 218 C335.7869 222.2612 337.9083 228.4541 339 229 C340.7981 229.8991 352.7973 228.5033 354 227 C355.615 224.9812 355.8723 215.688 355 209 C354.7304 206.9334 351 204 351 204 "/>
<path id="7" d="M355 224 C355 224 348.5236 225.691 348 227 C346.4292 230.9271 346.1303 236.7525 347 244 C347.4369 247.6409 349.0804 250.6711 351 252 C352.9506 253.3504 359.6698 253.4293 360 253 C360.8234 251.9296 362.3702 244.2852 361 239 C359.4968 233.202 353 226 353 226 "/>
<path id="8" d="M368 231 C368 231 362.3911 231.4133 362 232 C361.3742 232.9386 360.8299 237.2211 362 240 C364.1015 244.991 366.6204 248.9347 370 251 C372.2956 252.4028 379.8936 251.2889 380 251 C380.5169 249.5969 379.8895 239.0925 377 232 C375.3912 228.0511 369 224 369 224 "/>
<path id="9" d="M373 221 C373 221 371.0189 220.934 371 221 C370.7689 221.809 370.1675 225.5024 371 228 C371.7532 230.2597 373.2897 232.2874 375 233 C377.2492 233.9371 379.7242 233.756 383 233 C385.3309 232.4621 387.3604 231.4619 388 230 C389.7107 226.0899 390 222.802 390 217 C390 214.3222 389.2537 212.1144 388 211 C386.4994 209.6661 381 209 381 209 "/>
<path id="10" d="M386 166 C386 166 385.9338 159.005 386 159 C397.4338 158.13 478 159 478 159 "/>
<path id="11" d="M480 160 C480 160 485.5225 165.6937 488 172 C496.0985 192.6143 497.7688 194.5417 502 216 C504.4431 228.3902 504.3853 231.0734 502 243 C499.7914 254.0431 497.3132 259.1688 492 266 C489.8325 268.7867 481 270 481 270 "/>
<path id="12" d="M375 265 C375 265 392.1811 270.6621 409 272 C435.2819 274.0906 438.331 274.1767 463 272 C469.6375 271.4143 477 266 477 266 "/>
<path id="13" d="M493 171 C493 171 494.7171 169.0389 496 169 C522.4075 168.1998 559 169 559 169 "/>
<path id="14" d="M565 169 C565 169 563.8974 163.9929 565 161 C566.8716 155.92 567.9136 154.0864 572 150 C576.0864 145.9136 577.4315 145.1417 583 143 C589.5696 140.4732 597.9744 139.9659 598 140 C598.0132 140.0176 592.0942 145.2536 589 151 C585.5453 157.4159 585.5204 158.7022 584 166 C583.147 170.0943 584 175 584 175 "/>
<path id="15" d="M590 179 C590 179 598.3038 184.5639 601 191 C612.4255 218.2737 613.7543 222.9302 621 253 C623.2772 262.4503 621.7292 265.2502 621 274 C620.89 275.3194 619.6027 276.7991 619 277 C618.2634 277.2455 615 276 615 276 "/>
<path id="16" d="M418 273 C418 273 416.0852 275.1678 416 277 C415.188 294.4579 413.4959 299.0976 416 316 C417.0392 323.0146 419.3612 327.5583 424 331 C431.0169 336.2061 435.9578 338.1216 447 339 C477.3289 341.4125 512 338 512 338 "/>
<path id="17" d="M419 281 C419 281 455.8954 281.7035 477 281 C477.752 280.9749 478.1707 279.0957 479 279 C487.9645 277.9656 501.9662 278.1348 503 278 C503.0317 277.9959 502 276 502 276 "/>
<path id="18" d="M452 281 C452 281 450.0839 281.6084 450 282 C449.2238 285.6224 448.0463 289.278 449 295 C450.3376 303.0256 451.1647 304.3295 455 312 C457.8765 317.7529 459.0739 320.3137 463 323 C466.1276 325.1399 474.0139 325.0577 474 325 C473.9072 324.6134 464.0899 311.4707 457 298 C454.5191 293.2862 454.9521 292.3953 454 287 C453.5045 284.1922 453.5295 282.0977 454 281 C454.1792 280.5818 457 280.0003 457 280 C457 280 454 280 454 280 "/>
<path id="19" d="M427 289 C427 289 426.156 292.9404 427 296 C429.9188 306.5805 430.013 307.7767 435 318 C439.7851 327.8094 440.8058 331.0639 447 337 C450.2466 340.1113 453.209 340.6436 459 341 C484.0626 342.5423 512 341 512 341 "/>
<path id="20" d="M616 286 L639 349 "/>
<path id="21" d="M500 346 C500 346 496.7236 399.2467 501 447 C502.4377 463.0541 507.1979 477.7634 512 480 C523.3752 485.2981 549.3802 486.0845 574 481 C587.5983 478.1917 593.2656 470.7873 604 461 C607.1222 458.1533 608 450 608 450 "/>
<path id="22" d="M639 351 C639 351 640.9792 352.2518 641 353 C641.7078 378.4797 644.7074 392.33 641 423 C639.8174 432.7836 633.6567 438.8807 630 444 C629.638 444.5069 627.366 443.317 626 444 C618.8283 447.5859 612.2884 453.1101 610 454 C609.9041 454.0373 608 451 608 451 "/>
<path id="23" d="M498 197 L604 197 "/>
<path id="24" d="M497 218 C497 218 499.1885 216.0359 501 216 C544.4978 215.1387 598 216 598 216 "/>
<path id="25" d="M399 242 L475 241 "/>
<path id="26" d="M406 219 L451 217 "/>
<path id="27" d="M385 210 C385 210 390.5392 207.4748 396 207 C424.2526 204.5433 454 204 454 204 "/>
<path id="28" d="M400 194 L441 192 "/>
<path id="29" d="M394 183 L446 183 "/>
<path id="30" d="M500 275 C500 275 507.7552 277.9781 510 282 C517.8173 296.006 519.3419 300.6986 524 318 C525.874 324.9607 525.6981 331.9245 524 334 C521.8001 336.6887 506 340 506 340 "/>
<path id="31" d="M504 277 L613 277 "/>
<path id="32" d="M566 283 C566 283 562.9364 285.3286 562 288 C547.0059 330.7772 549.6783 336.3045 532 380 C523.7997 400.2686 509 419 509 419 "/>
<path id="33" d="M579 283 C579 283 581.044 300.1603 578 315 C573.3612 337.614 571.4358 338.4286 563 361 C552.9923 387.7773 553.6099 389.1035 541 414 C534.5891 426.6574 531.0456 425.6702 524 438 C519.4024 446.0457 517 456 517 456 "/>
<path id="34" d="M611 297 C611 297 612.3029 306.3428 610 314 C592.9979 370.5318 591.2623 372.4551 571 430 C566.3342 443.2508 566.5314 444.1248 560 456 C555.9141 463.429 549 470 549 470 "/>
<path id="35" d="M633 331 C633 331 608.3958 405.8126 584 479 C583.6536 480.0392 583.2638 480.9623 583 481 C581.7984 481.1717 577.8813 480.4406 577 480 C576.8644 479.9322 577 478 577 478 "/>
<path id="36" d="M508 415 C508 415 548.5319 432.414 588 447 C593.4754 449.0235 599.9249 449.0536 600 449 C600 449 595 442 595 442 "/>
<path id="37" d="M533 380 C533 380 559.0407 386.3844 582 397 C604.6206 407.459 625.958 422.9796 626 423 C626.0062 423.003 621 416 621 416 "/>
<path id="38" d="M546 349 C546 349 562.2392 352.2341 577 358 C593.7855 364.5568 593.222 367.0758 610 374 C624.458 379.9668 638.2062 383.8206 640 384 C640.0405 384.0041 640 377 640 377 "/>
<path id="39" d="M571 301 L639 349 "/>
<path id="40" d="M539 287 C539 287 540.7284 296.9343 539 305 C536.5103 316.6185 530 329 530 329 "/>
<path id="41" d="M429 288 C429 288 430.0996 300.9704 434 311 C436.58 317.6343 437.9711 319.2225 443 324 C446.9336 327.7369 448.8702 329.4995 454 330 C485.5241 333.0755 525 332 525 332 "/>
<path id="42" d="M336 167 C336 167 335.6008 161.1618 336 161 C342.6705 158.2958 354.7805 154.8272 373 152 C382.9647 150.4538 394 152 394 152 "/>
<path id="43" d="M385 151 C385 151 431.8125 150.2899 472 152 C475.2908 152.14 476.8499 152.8499 479 155 C484.1604 160.1604 489 169 489 169 "/>
<path id="44" d="M375 171 C375 171 376.9435 171.6325 377 172 C378.0943 179.1128 379 197 379 197 "/>
</g>
</g>
</svg>
