<?xml version="1.0" encoding="utf-8"?>
<!DOCTYPE svg PUBLIC "-//W3C//DTD SVG 1.1//EN" "http://www.w3.org/Graphics/SVG/1.1/DTD/svg11.dtd">
<svg viewBox="0 0 800 800" preserveAspectRatio="xMinYMin meet" xmlns="http://www.w3.org/2000/svg" version="1.1">
<g fill="none" stroke="black" stroke-linecap="round" stroke-linejoin="round" stroke-width="1.3921">
<g transform="translate(87.52,119.8455) scale(2.155) translate(-169,-51.7333)">
<path id="0" d="M235 51.7333 C235 51.7333 230.9756 53.9675 229 56.7333 C226.4773 60.2651 225.5235 61.3706 225 65.7333 C222.7226 84.712 224.9394 94.5427 223 106.7333 C222.8218 107.8532 219.4004 107.8661 218 109.7333 C214.2136 114.7818 211.0157 122.6758 211 122.7333 C210.9967 122.7453 213.2204 120.8181 215 120.7333 C222.3666 120.3825 231.1381 120.5166 232 121.7333 C233.52 123.8792 230.9487 142.3154 232 144.7333 C232.1987 145.1904 238.761 143.261 242 144.7333 C247.3591 147.1693 252.0148 153.599 254 154.7333 C254.0961 154.7882 256 152.7333 256 152.7333 "/>
<path id="1" d="M237 53.7333 C237 53.7333 266.3693 50.5074 282 51.7333 C284.2554 51.9102 285.9826 54.5054 288 57.7333 C290.5865 61.8717 290.8617 62.6921 292 67.7333 C294.2632 77.7561 291.355 81.4433 295 88.7333 C298.645 96.0233 306.2329 96.0279 310 103.7333 C315.6375 115.2646 317 133.7333 317 133.7333 "/>
<path id="2" d="M275 153.7333 L275 152.7333 "/>
<path id="3" d="M255 150.7333 C255 150.7333 256.6414 157.1215 256 162.7333 C254.7281 173.8627 251.4478 174.7633 251 185.7333 C250.5007 197.9673 255.0402 202.8919 254 211.7333 C253.6421 214.7751 247 219.7333 247 219.7333 "/>
<path id="4" d="M238 240.7333 C238 240.7333 236.0993 258.0208 239 271.7333 C241.1483 281.8889 243.2574 283.0617 249 292.7333 C252.4842 298.6014 253.0123 299.9926 258 303.7333 C263.8551 308.1247 265.7218 309.3132 273 310.7333 C284.6494 313.0064 286.0051 311.4164 299 311.7333 C306.49 311.916 311.395 312.806 314 311.7333 C314.8479 311.3842 316 304.7333 316 304.7333 "/>
<path id="5" d="M322 134.7333 C322 134.7333 328.5806 148.2495 337 155.7333 C344.6969 162.575 349.8973 160.1989 358 166.7333 C363.7752 171.3907 363.707 173.4889 368 180.7333 C371.5669 186.7524 373.0829 187.4284 374 193.7333 C376.7957 212.9539 378.4129 216.4305 376 235.7333 C373.7172 253.9959 369.5308 258.9845 364 273.7333 C363.5933 274.8178 361.5603 274.6127 361 275.7333 C358.7588 280.2158 360.2138 284.4005 357 287.7333 C349.2623 295.7576 344.8292 299.5493 334 303.7333 C326.0636 306.7997 313 304.7333 313 304.7333 "/>
<path id="6" d="M287 273.7333 C287 273.7333 283.4952 281.9511 281 283.7333 C279.4812 284.8182 274.7086 284.9394 273 283.7333 C269.2686 281.0994 264 271.7333 264 271.7333 "/>
<path id="7" d="M255 262.7333 C255 262.7333 251.389 259.9388 250 256.7333 C245.3283 245.9524 247.3098 243.0735 242 232.7333 C238.4771 225.873 236.9293 225.3803 231 219.7333 C226.7734 215.708 221.1064 212.6421 221 212.7333 C220.4603 213.1959 220.1397 222.8683 217 231.7333 C211.8323 246.3244 204 260.7333 204 260.7333 "/>
<path id="8" d="M200 267.7333 L188 293.7333 "/>
<path id="9" d="M196 293.7333 C196 293.7333 203.078 289.0295 206 283.7333 C210.2012 276.1187 208.3716 273.6394 212 264.7333 C213.6983 260.5649 214.0901 259.8857 217 256.7333 C219.6437 253.8693 222.6524 254.0916 224 251.7333 C225.4331 249.2254 224.7326 242.867 225 242.7333 C225.3403 242.5632 230.3129 244.1307 234 246.7333 C238.2558 249.7374 240.0262 250.7858 242 254.7333 C244.1383 259.0099 244 266.7333 244 266.7333 "/>
<path id="10" d="M248 244.7333 C248 244.7333 253.5146 239.4129 258 238.7333 C267.3944 237.3099 274.3111 236.7824 281 239.7333 C285.9013 241.8957 287.6698 246.6194 292 253.7333 C294.2652 257.4547 294.5965 258.4967 295 262.7333 C295.5173 268.1649 295.1781 271.9844 294 274.7333 C293.6073 275.6496 289 276.7333 289 276.7333 "/>
<path id="11" d="M257 263.7333 L238 251.7333 "/>
<path id="12" d="M190 293.7333 C190 293.7333 192.1929 296.6325 193 296.7333 C194.1359 296.8753 196.8343 296.0447 198 294.7333 C199.7485 292.7662 201 287.7333 201 287.7333 "/>
<path id="13" d="M220 256.7333 C220 256.7333 220.9585 287.5173 221 287.7333 C221.0056 287.7626 224.1072 285.3002 225 282.7333 C227.7088 274.9456 226.2186 273.0777 229 264.7333 C230.5346 260.1296 234 255.7333 234 255.7333 "/>
<path id="14" d="M288 175.7333 C288 175.7333 282.1773 182.8377 276 185.7333 C267.7289 189.6104 263.0421 192.2698 256 190.7333 C241.584 187.588 227.4526 172.5697 221 173.7333 C214.7262 174.8647 206.9013 187.5286 195 201.7333 C191.847 205.4966 192.9726 207.2654 190 210.7333 C187.5389 213.6047 183 215.7333 183 215.7333 "/>
<path id="15" d="M183 215.7333 C183 215.7333 180.2701 212.8944 180 210.7333 C179.4535 206.361 178.9696 202.2252 181 199.7333 C186.6903 192.7498 193.8969 192.5961 202 183.7333 C208.689 176.4172 207.4926 167.6628 213 164.7333 C223.2265 159.2937 237.9279 156.9965 249 158.7333 C254.4308 159.5852 256.4142 167.1264 264 172.7333 C267.0577 174.9934 268.4082 175.5772 272 175.7333 C278.5881 176.0198 280.2169 175.7431 287 173.7333 C292.9936 171.9574 298.9875 167.7459 299 167.7333 C299.0042 167.7292 293 167.7333 293 167.7333 "/>
<path id="16" d="M183 200.7333 C183 200.7333 174.9969 201.3059 171 202.7333 C170.0345 203.0782 169.193 204.3824 169 205.7333 C168.3539 210.2561 168.459 216.1322 169 216.7333 C169.3492 217.1214 175.1586 217.0447 178 215.7333 C179.8942 214.8591 181.9955 210.7515 182 210.7333 C182.0013 210.728 179.5849 210.9535 179 211.7333 C176.2105 215.4527 174.7192 217.5758 173 222.7333 C172.0743 225.5104 172.9827 229.7484 173 229.7333 C173.0923 229.6533 188 209.7333 188 209.7333 "/>
<path id="17" d="M250 195.7333 C250 195.7333 244.9688 197.5146 242 196.7333 C237.1732 195.4631 236.4387 192.1837 231 190.7333 C222.5686 188.485 216.3008 186.791 212 188.7333 C207.4308 190.7968 200.2029 204.776 200 204.7333 C199.7365 204.6779 197.1837 194.0662 193 184.7333 C190.8863 180.0182 190.1192 178.8525 187 175.7333 C185.5444 174.2777 183.0993 175.1324 182 173.7333 C178.9008 169.7889 176 161.7333 176 161.7333 "/>
<path id="18" d="M178 158.7333 C178 158.7333 187.7075 153.4748 189 153.7333 C189.7238 153.8781 192.2004 157.9351 193 161.7333 C193.9948 166.4586 191.4133 170.3532 193 172.7333 C195.7888 176.9166 200.394 180.6572 207 182.7333 C215.2134 185.3147 219.4788 185.1077 228 183.7333 C232.4849 183.01 233.331 179.134 238 177.7333 C241.9567 176.5463 246.4118 176.2832 248 177.7333 C253.1099 182.3989 261 198.7333 261 198.7333 "/>
<path id="19" d="M347 276.7333 C347 276.7333 345.0526 277.7859 345 277.7333 C344.6321 277.3655 342.6937 273.3459 343 272.7333 C343.6508 271.4317 347.5538 268.7118 350 267.7333 C350.7067 267.4507 352.7133 268.1599 353 268.7333 C354.1468 271.027 355 274.1844 355 277.7333 C355 279.3106 353.8458 281.25 353 281.7333 C352.0132 282.2972 349.0459 282.4306 348 281.7333 C346.3266 280.6178 344.8527 278.5046 344 275.7333 C343.1745 273.0505 343.0298 270.8355 344 268.7333 C345.2154 266.0999 347.3967 264.1533 350 262.7333 C351.4037 261.9677 353.3805 261.9972 355 262.7333 C357.6796 263.9513 359.7507 265.2347 361 267.7333 C362.874 271.4813 363 277.8063 363 278.7333 C363 278.7333 361.025 278.8083 361 278.7333 C360.775 278.0583 360.1222 273.6112 361 272.7333 C364.804 268.9294 371.3659 264.3766 377 262.7333 C379.1221 262.1144 382.7793 263.9568 385 265.7333 C386.2812 266.7583 385.5573 269.4109 387 270.7333 C390.3966 273.8469 392.3681 274.9964 397 276.7333 C399.2687 277.5841 400.683 277.6839 403 276.7333 C418.2783 270.4653 425.7526 269.1415 436 260.7333 C440.2494 257.2467 440.9052 252.5535 442 244.7333 C444.2196 228.8793 446.8004 222.1344 443 210.7333 C439.6512 200.6868 427.3008 198.4854 423 187.7333 C418.4495 176.357 419.7609 168.4338 421 155.7333 C421.3734 151.9057 424.5019 148.4628 427 146.7333 C428.4297 145.7435 431.1427 145.7809 434 146.7333 C442.0277 149.4092 451 154.7333 451 154.7333 "/>
<path id="20" d="M446 169.7333 L445 168.7333 "/>
<path id="21" d="M359 278.9333 C359 278.9333 380.8628 268.3423 385 268.9333 C386.8762 269.2014 390.2229 282.1057 394 283.9333 C399.111 286.4064 406.4902 285.7825 416 283.9333 C422.64 282.6422 426.0631 281.2281 430 276.9333 C434.8301 271.6641 433.2053 267.2664 438 259.9333 C441.2103 255.0235 444.5573 255.6442 447 250.9333 C450.6806 243.8351 450.7374 241.7718 452 232.9333 C453.147 224.9045 453.8658 223.2101 452 215.9333 C449.304 205.4188 447.723 204.3841 442 193.9333 C436.3514 183.6184 432.5192 183.1374 429 173.9333 C427.0269 168.773 429 159.9333 429 159.9333 "/>
<path id="22" d="M458 184.9333 L458 181.9333 "/>
<path id="23" d="M433 158.9333 L441 157.9333 "/>
<path id="24" d="M447 158.9333 C447 158.9333 459 168.9408 459 168.9333 C459 168.9163 453.2731 154.8478 447 145.9333 C445.2193 143.4029 440 141.9333 440 141.9333 "/>
<path id="25" d="M246 88.9333 L245 87.9333 "/>
<path id="26" d="M235 79.9333 L239 83.9333 "/>
<path id="27" d="M257 88.9333 L255 88.9333 "/>
<path id="28" d="M238 78.9333 C238 78.9333 245.3691 77.982 247 78.9333 C248.2836 79.6821 250 85.9333 250 85.9333 "/>
<path id="29" d="M261 86.9333 L262 86.9333 "/>
<path id="30" d="M262 86.9333 L262 87.9333 "/>
<path id="31" d="M260 87.9333 L253 94.9333 "/>
<path id="32" d="M237 110.9333 L238 110.9333 "/>
<path id="33" d="M239 112.9333 L239 118.9333 "/>
<path id="34" d="M239 118.9333 L235 120.9333 "/>
<path id="35" d="M232 120.9333 L234 115.9333 "/>
<path id="36" d="M250 129.9333 L250 130.9333 "/>
<path id="37" d="M247 133.9333 C247 133.9333 225.0459 146.8935 225 146.9333 C224.9903 146.9417 229.1987 147.9077 232 146.9333 C239.5166 144.3189 242.5625 142.4517 248 138.9333 C248.7552 138.4447 249 135.9333 249 135.9333 "/>
<path id="38" d="M271 115.9333 L267 122.9333 "/>
<path id="39" d="M262 127.9333 C262 127.9333 258.0528 133.2314 254 135.9333 C251.467 137.622 247 137.9333 247 137.9333 "/>
<path id="40" d="M247 138.9333 L244 141.9333 "/>
</g>
</g>
</svg>
