<?xml version="1.0" encoding="utf-8"?>
<!DOCTYPE svg PUBLIC "-//W3C//DTD SVG 1.1//EN" "http://www.w3.org/Graphics/SVG/1.1/DTD/svg11.dtd">
<svg viewBox="0 0 800 800" preserveAspectRatio="xMinYMin meet" xmlns="http://www.w3.org/2000/svg" version="1.1">
<g fill="none" stroke="black" stroke-linecap="round" stroke-linejoin="round" stroke-width="2.2561">
<g transform="translate(87.52,225.809) scale(1.3297) translate(-45,-183.1333)">
<path id="0" d="M104 300.1333 C104 300.1333 103.0043 295.8716 104 293.1333 C106.5475 286.1276 107.273 284.9951 112 278.1333 C122.5654 262.7965 122.5876 261.454 135 248.1333 C142.4266 240.1633 144.2902 237.2837 153 234.1333 C164.3613 230.0239 172.4448 232.9827 182 231.1333 C182.8336 230.972 183.1746 228.2642 184 228.1333 C211.2028 223.8207 239.9102 221.7022 264 218.1333 C264.3832 218.0766 264.7183 216.1422 265 216.1333 C289.9168 215.3465 312.3697 216.7275 359 215.1333 C370.4563 214.7417 370.5852 213.9916 382 212.1333 C392.036 210.4996 393.0571 211.7419 402 208.1333 C420.481 200.6761 420.3548 197.5765 439 189.1333 C446.4674 185.7519 447.1028 185.1863 455 184.1333 C468.8043 182.2928 475.1733 180.1242 484 183.1333 C490.2998 185.281 493.951 190.5313 499 199.1333 C506.5403 211.9798 511 229.1333 511 229.1333 "/>
<path id="1" d="M475 201.1333 C475 201.1333 454.5162 200.8205 452 202.1333 C451.3861 202.4537 450.9444 208.2777 452 213.1333 C453.2558 218.9101 454.1174 222.8272 457 225.1333 C460.5934 228.008 472 229.1333 472 229.1333 "/>
<path id="2" d="M487 221.1333 C487 221.1333 493.7459 218.8792 494 219.1333 C494.6606 219.794 496.088 229.6931 496 230.1333 C495.9983 230.1416 492.5433 229.7853 492 229.1333 C491.2686 228.2557 491 224.1333 491 224.1333 "/>
<path id="3" d="M491 222.1333 C491 222.1333 495.0015 226.1328 495 226.1333 C494.9965 226.1345 489.3401 224.282 488 223.1333 C487.64 222.8247 488 220.1333 488 220.1333 "/>
<path id="4" d="M471 212.1333 L471 218.1333 "/>
<path id="5" d="M509 217.1333 C509 217.1333 513.9974 223.452 515 229.1333 C516.689 238.7046 516.8209 245.6707 515 251.1333 C514.3379 253.1198 508.6765 255.751 506 256.1333 C504.7405 256.3133 501 253.1333 501 253.1333 "/>
<path id="6" d="M460 246.1333 C460 246.1333 463.9509 245.1088 466 246.1333 C476.7576 251.5121 479.0968 256.1773 490 261.1333 C493.1841 262.5807 496.469 261.8236 499 261.1333 C499.7925 260.9172 500.9053 259.3649 501 258.1333 C501.2981 254.2583 500 248.1333 500 248.1333 "/>
<path id="7" d="M510 247.1333 C510 247.1333 514.5404 246.8576 515 247.1333 C515.1654 247.2326 515.1895 250.0386 515 250.1333 C513.9261 250.6703 507.6996 251.3082 507 251.1333 C506.9323 251.1164 507 248.1333 507 248.1333 "/>
<path id="8" d="M463 248.1333 C463 248.1333 456.4985 248.3487 454 250.1333 C451.4331 251.9669 452.0054 254.9401 449 258.1333 C444.4224 262.9971 438 267.1333 438 267.1333 "/>
<path id="9" d="M439 269.1333 C439 269.1333 442.9932 270.6248 445 273.1333 C456.0832 286.9873 457.1414 288.1465 467 304.1333 C475.4613 317.8543 476.9267 319.6045 482 333.1333 C483.6117 337.4313 482 344.1333 482 344.1333 "/>
<path id="10" d="M429 289.1333 C429 289.1333 428.8547 292.2723 430 294.1333 C436.1656 304.1525 438.9026 304.2641 445 315.1333 C450.0761 324.182 447.8665 326.2663 453 335.1333 C458.4407 344.5308 461.5243 343.8247 467 353.1333 C471.0761 360.0627 471.5536 368.7134 473 369.1333 C476.1208 370.0394 489.198 366.8094 498 362.1333 C501.7737 360.1286 505.0093 352.139 505 352.1333 C504.7941 352.0066 487.1 354.9333 485 354.1333 C484.475 353.9333 485.5588 347.2509 484 344.1333 C482.5897 341.3127 477 338.1333 477 338.1333 "/>
<path id="11" d="M434 298.1333 C434 298.1333 435.1749 309.5637 433 319.1333 C430.4339 330.4243 427.1862 330.4508 424 342.1333 C418.3104 362.9951 415 385.1333 415 385.1333 "/>
<path id="12" d="M403 306.1333 C403 306.1333 398.5281 331.1328 396 356.1333 C394.0455 375.4613 392.5692 384.6406 394 395.1333 C394.225 396.7836 400.4914 400.3219 402 400.1333 C403.8154 399.9064 406.4402 394.2167 410 393.1333 C415.2709 391.5292 423.6213 393.9605 425 393.1333 C425.4963 392.8355 425.4316 384.5649 425 384.1333 C424.6643 383.7976 417.2897 385.5547 417 385.1333 C415.7729 383.3484 414 368.1333 414 368.1333 "/>
<path id="13" d="M430 291.1333 C430 291.1333 422.9032 293.4693 417 297.1333 C408.7233 302.2706 409.2965 304.4665 401 309.1333 C393.9343 313.1078 392.7812 314.3742 385 315.1333 C353.944 318.1632 350.2166 318.5853 319 317.1333 C309.3949 316.6866 308.2124 315.3492 299 311.1333 C279.312 302.1236 279.4965 296.9698 260 290.1333 C243.1358 284.2199 222 284.1333 222 284.1333 "/>
<path id="14" d="M198 245.1333 C198 245.1333 205.4883 252.1365 208 259.1333 C211.7749 269.649 210.9428 271.7117 212 284.1333 C212.9178 294.9175 213.9782 295.8716 212 306.1333 C206.2378 336.0249 199.1768 347.7835 196 367.1333 C195.7414 368.7084 199.839 372.3041 201 373.1333 C201.1607 373.2482 202.8671 372.608 203 372.1333 C205.1641 364.4044 208 348.1333 208 348.1333 "/>
<path id="15" d="M159 261.1333 C159 261.1333 155.835 273.3476 157 283.1333 C158.1153 292.5016 159.7509 293.6354 164 303.1333 C168.1282 312.3611 170.5537 312.0252 174 321.1333 C177.2453 329.7103 176.9557 330.7346 178 340.1333 C178.913 348.3505 176.387 351.8334 178 357.1333 C178.7714 359.6681 183.0676 359.7838 185 363.1333 C189.7385 371.3468 188.3414 377.0036 193 383.1333 C195.3865 386.2734 198.5714 386.7172 204 388.1333 C209.4094 389.5445 215.8145 389.3188 216 389.1333 C216.0843 389.049 212.7838 384.4443 212 380.1333 C210.9525 374.3719 212 367.1333 212 367.1333 "/>
<path id="16" d="M207 377.1333 C207 377.1333 204.1513 376.5368 204 376.1333 C203.5016 374.8043 203.8385 369.1718 204 369.1333 C205.9893 368.6597 215.0036 369.259 225 371.1333 C230.4951 372.1637 236.0058 375.1311 236 375.1333 C235.985 375.1391 215.189 375.6018 212 376.1333 C211.934 376.1443 211.82 378.9983 212 379.1333 C212.32 379.3733 215.1024 378.4247 216 379.1333 C222.0236 383.8888 230.9629 393.9477 231 394.1333 C231.0049 394.1581 223.6918 395.9624 219 394.1333 C197.118 385.6031 172 371.1333 172 371.1333 "/>
<path id="17" d="M207 330.1333 L208 330.1333 "/>
<path id="18" d="M151 265.1333 C151 265.1333 149.0649 279.523 151 291.1333 C152.2776 298.7992 156.9299 299.49 158 307.1333 C160.1426 322.4379 159.4028 324.5807 158 341.1333 C156.9511 353.5106 152.6261 365.5581 153 366.1333 C153.1152 366.3105 164.8189 364.0767 171 361.1333 C172.6319 360.3562 173.5561 358.5746 174 356.1333 C176.2848 343.5668 178.1327 335.8355 177 328.1333 C176.705 326.1276 169 322.1333 169 322.1333 "/>
<path id="19" d="M162 249.1333 C162 249.1333 156.1802 248.6703 152 250.1333 C147.113 251.8438 146.125 252.4667 142 256.1333 C133.1223 264.0246 131.3607 264.5923 125 274.1333 C119.1453 282.9154 119.8042 284.4815 116 295.1333 C112.3641 305.3138 112.063 305.5892 110 316.1333 C107.6195 328.3004 107.7186 328.6777 107 341.1333 C106.2293 354.4929 105.9117 355.7988 107 368.1333 C107.2928 371.4521 109.8677 371.8925 110 375.1333 C110.7793 394.2256 111.368 397.513 109 417.1333 C108.0598 424.9236 107.068 426.6723 103 433.1333 C99.3129 438.9894 97.018 442.2516 92 444.1333 C84.9084 446.7927 80.9249 445.7536 71 445.1333 C65.6968 444.8019 65.1767 444.159 60 442.1333 C53.8989 439.746 51.5303 439.4283 48 436.1333 C45.9005 434.1738 44.9626 428.1357 45 428.1333 C45.278 428.116 54.5423 433.1067 64 435.1333 C74.8088 437.4495 81.7315 439.2088 87 437.1333 C90.7735 435.6468 94.7921 429.6661 97 422.1333 C102.5473 403.2072 103.2171 400.2725 104 379.1333 C105.1744 347.4246 99.9359 344.9936 101 314.1333 C101.3641 303.5733 103.0298 302.2115 107 292.1333 C109.2419 286.4425 112.446 286.2393 114 281.1333 C115.4202 276.4669 114 269.1333 114 269.1333 "/>
<path id="20" d="M221 282.1333 L218 282.1333 "/>
<path id="21" d="M154 252.1333 C154 252.1333 149.0928 256.8548 148 260.1333 C147.2714 262.319 148.3461 266.6247 149 267.1333 C149.8118 267.7647 154.1595 268.1985 157 267.1333 C160.6395 265.7685 165 261.1333 165 261.1333 "/>
<path id="22" d="M460 211.1333 L464 211.1333 "/>
<path id="23" d="M469 201.1333 C469 201.1333 468.6244 196.508 468 196.1333 C466.5015 195.2342 460.7457 194.2605 459 195.1333 C457.1516 196.0575 455.4193 199.4432 454 203.1333 C453.2849 204.9927 454 208.1333 454 208.1333 "/>
<path id="24" d="M497 246.1333 L505 267.1333 "/>
<path id="25" d="M501 257.1333 C501 257.1333 504.7992 256.0329 505 256.1333 C505.0861 256.1764 504.9854 259.1382 505 259.1333 C505.1117 259.0961 511.0002 254.1324 511 254.1333 C510.9997 254.135 504 264.1333 504 264.1333 "/>
</g>
</g>
</svg>
