<?xml version="1.0" encoding="utf-8"?>
<!DOCTYPE svg PUBLIC "-//W3C//DTD SVG 1.1//EN" "http://www.w3.org/Graphics/SVG/1.1/DTD/svg11.dtd">
<svg viewBox="0 0 800 800" preserveAspectRatio="xMinYMin meet" xmlns="http://www.w3.org/2000/svg" version="1.1">
<g fill="none" stroke="black" stroke-linecap="round" stroke-linejoin="round" stroke-width="2.1553">
<g transform="translate(87.52,153.6349) scale(1.3919) translate(-109,-56)">
<path id="0" d="M200 306 C200 306 186.0354 284.9916 178 263 C167.4759 234.1972 167.0995 231.9597 162 202 C159.3591 186.485 160.3815 184.9156 162 169 C163.3051 156.1662 163.8009 155.3972 168 143 C174.1536 124.8321 174.0333 123.4871 183 107 C189.0312 95.9104 190.6247 96.1081 199 86 C205.0562 78.6908 205.0217 77.9047 212 72 C217.5524 67.3018 218.2829 66.4426 225 64 C239.317 58.7938 240.7776 57.1939 256 56 C290.1726 53.3198 292.2057 53.2063 327 56 C359.7768 58.6317 362.1255 58.7244 393 67 C408.6819 71.2034 410.2461 72.8308 424 82 C440.773 93.182 442.2133 94.6006 456 109 C463.761 117.106 463.5928 118.6362 469 129 C475.4079 141.2818 475.9318 141.8382 480 155 C484.2695 168.813 484.7397 169.597 486 184 C488.1806 208.9217 488.6492 210.5917 487 235 C486.2421 246.2166 485.2518 247.2692 481 258 C474.9779 273.1986 475.1297 274.4629 466 288 C446.6557 316.683 446.2068 321.6635 423 344 C409.2981 357.1881 404.9731 356.1295 386 365 C366.9479 373.9075 365.3779 376.8406 346 380 C322.2602 383.8706 316.7267 384.1072 294 380 C279.2666 377.3373 277.235 373.9234 263 365 C244.3531 353.3109 244.2691 352.2052 227 338 C213.4297 326.8374 211.5382 325.9433 201 314 C197.9627 310.5577 197.7417 308.8208 197 304 C195.8821 296.7339 195.72 295.1679 197 288 C198.0314 282.2241 200.7351 282.0085 202 276 C204.5809 263.7408 201.5599 262.1093 205 250 C213.7437 219.2221 214.6097 216.9107 227 188 C230.4197 180.0206 233.5799 180.4802 238 173 C239.6821 170.1534 238.1144 168.357 240 166 C252.4977 150.3779 254.3467 147.3211 270 133 C276.8003 126.7785 278.6526 125.7825 287 123 C295.0738 120.3087 300.1373 118.9401 306 121 C313.4561 123.6197 316.8272 127.5976 324 136 C333.5695 147.21 332.6534 151.476 341 162 C342.6402 164.068 346.7631 165.2369 347 165 C350.5535 161.4465 355.3682 150.8424 365 138 C371.7185 129.042 372.0087 126.9935 380 121 C386.4075 116.1944 388.809 115.5089 397 114 C406.4049 112.2675 409.7384 111.2461 418 114 C432.0316 118.6772 436.9264 121.2447 448 131 C455.2925 137.4244 456.1959 141.8068 460 151 C461.3714 154.3141 461.019 156.3315 460 160 C458.8237 164.2346 458.0725 165.0411 455 169 C432.4633 198.0377 421.3679 201.4019 408 227 C402.8177 236.9236 404.2026 245.271 408 259 C416.2108 288.6853 425.1602 290.5181 434 321 C438.9411 338.0381 437.6027 340.9194 437 359 C436.6475 369.5748 436.2142 371.8693 432 381 C428.0126 389.6395 425.8888 391.1112 419 398 C415.7852 401.2148 414.6513 401.0066 410 403 C400.8167 406.9357 400.2064 408.0471 391 410 C384.7081 411.3347 383.7221 411.0643 377 410 C324.6597 401.7128 322.019 403.5847 271 391 C248.6725 385.4925 247.2845 383.9224 227 373 C209.2729 363.4546 206.1333 361.8348 193 349 C186.4697 342.6181 185.9756 338.9267 183 330 C181.5344 325.6033 181.9444 323.8556 183 319 C184.2558 313.2232 184.3125 311.1484 188 307 C198.7635 294.8911 203.759 294.9662 215 283 C217.9051 279.9074 219 274 219 274 "/>
<path id="1" d="M272 168 C272 168 269.5643 177.6897 269 187 C268.59 193.7658 268.5411 195.4562 270 201 C270.6191 203.3525 272.2847 205.2203 274 206 C275.9142 206.8701 279.5771 207.1233 281 206 C285.8463 202.174 291.4819 195.9339 293 191 C293.7934 188.4214 291.1862 181.8947 289 180 C286.943 178.2173 278 178 278 178 "/>
<path id="2" d="M406 180 C406 180 403.4949 179.5051 403 180 C398.5456 184.4544 395.3624 187.4386 391 195 C388.4668 199.3909 387.9471 205.9712 388 206 C388.1987 206.1084 397.7543 204.437 402 201 C405.9321 197.8169 408.4541 193.3672 409 189 C409.4876 185.0992 406.9861 179.3472 405 177 C404.1063 175.9438 398 176 398 176 "/>
<path id="3" d="M302 257 C302 257 305.3591 249.6096 310 246 C317.5064 240.1617 320.0153 238.3644 329 236 C336.8917 233.9232 340.0939 235.2813 348 236 C349.324 236.1204 350.5038 237.0075 351 238 C351.9216 239.8432 352.3626 243.7717 352 244 C347.4404 246.8709 337.425 251.2135 324 255 C319.252 256.3392 317.234 256.2702 313 255 C308.843 253.7529 304 249 304 249 "/>
<path id="4" d="M263 300 C263 300 270.3703 310.6486 279 319 C285.4359 325.2283 286.2139 325.7302 294 330 C301.1412 333.9161 301.9421 334.2094 310 336 C323.8947 339.0877 327.5253 341.6065 339 340 C348.0943 338.7268 360 329 360 329 "/>
<path id="5" d="M466 129 C466 129 464.2381 123.1852 465 122 C466.6094 119.4965 473.6268 114.4571 475 115 C483.0668 118.1892 492.0337 126.4774 508 139 C517.4119 146.3818 518.6353 146.6746 526 155 C529.3274 158.7615 527.8541 160.6556 531 165 C538.0644 174.7556 540.7988 173.9827 547 184 C553.2625 194.1163 554.6772 195.8085 557 207 C559.7982 220.482 560.1794 225.0134 558 237 C556.8572 243.2856 554.6312 246.4116 549 251 C529.8376 266.6138 524.818 270.4204 504 281 C498.2956 283.899 488 282 488 282 "/>
<path id="6" d="M173 135 C173 135 174.1567 126.0729 173 120 C172.4785 117.2624 171.4011 115.6807 169 114 C162.6752 109.5727 160.9232 108.2638 153 106 C144.5197 103.5771 138.4404 101.8432 134 104 C127.7863 107.0181 124.1458 113.1132 118 123 C113.2543 130.6343 113.5348 131.9875 111 141 C109.1515 147.5725 109.1805 148.0492 109 155 C108.1906 186.1632 107.1178 187.8846 109 218 C109.5172 226.2758 110.6253 227.2122 114 235 C116.8993 241.6908 117.4378 242.3643 122 248 C125.5806 252.4231 127.0037 254.7704 131 256 C136.9274 257.8238 142.2802 258.2141 148 256 C154.2733 253.5716 156.5805 250.5976 162 244 C167.3947 237.4325 171 228 171 228 "/>
</g>
</g>
</svg>
