<?xml version="1.0" encoding="utf-8"?>
<!DOCTYPE svg PUBLIC "-//W3C//DTD SVG 1.1//EN" "http://www.w3.org/Graphics/SVG/1.1/DTD/svg11.dtd">
<svg viewBox="0 0 800 800" preserveAspectRatio="xMinYMin meet" xmlns="http://www.w3.org/2000/svg" version="1.1">
<g fill="none" stroke="black" stroke-linecap="round" stroke-linejoin="round" stroke-width="1.2337">
<g transform="translate(150.7455,87.52) scale(2.4318) translate(-101,-90.4167)">
<path id="0" d="M244 148.4167 C244 148.4167 236.1826 157.088 231 166.4167 C226.5023 174.5125 224.6264 175.8258 224 184.4167 C221.3604 220.6175 222.3925 224.6408 224 262.4167 C224.3332 270.248 225.1337 271.012 228 278.4167 C230.9559 286.0527 231.3644 287.0427 236 293.4167 C238.8543 297.3413 240.6185 299.9433 244 300.4167 C259.8155 302.6308 267.7971 301.9026 286 300.4167 C289.1753 300.1575 290.7411 298.9579 293 296.4167 C297.8615 290.9475 299.9172 289.2331 302 282.4167 C304.8116 273.215 302.9014 266.7337 304 260.4167 C304.0663 260.0357 305.9887 259.699 306 259.4167 C306.5123 246.6088 307.8143 234.3054 306 210.4167 C304.8723 195.5687 305.2723 192.7186 300 180.4167 C295.8839 170.8125 293.4679 166.8186 285 161.4167 C267.9889 150.5648 242 143.4167 242 143.4167 "/>
<path id="1" d="M262 109.4167 C262 109.4167 250.1261 106.8147 242 107.4167 C239.0134 107.6379 236.529 109.0644 235 111.4167 C231.4414 116.8915 230.192 119.6687 229 127.4167 C227.38 137.9469 228.334 142.0916 229 150.4167 C229.0625 151.1985 230.2958 152.4167 231 152.4167 C248.6039 152.4167 269.514 153.9035 281 150.4167 C283.3953 149.6895 285.1952 142.636 287 135.4167 C287.9844 131.4789 287.8434 130.423 287 126.4167 C285.9839 121.5903 285.6433 120.5018 283 116.4167 C280.579 112.6752 278.6745 109.912 276 109.4167 C269.6718 108.2448 256 111.4167 256 111.4167 "/>
<path id="2" d="M276 304.4167 C276 304.4167 275.9811 315.5017 274 324.4167 C273.2356 327.8567 272.5812 329.1874 270 331.4167 C262.7119 337.711 260.7279 341.1643 252 343.4167 C233.3697 348.2245 229.9549 346.4073 208 347.4167 C186.6334 348.399 184.3606 351.002 165 347.4167 C146.6399 344.0167 142.5366 340.8605 127 332.4167 C122.4773 329.9587 121.8147 327.8013 119 322.4167 C110.6958 306.5303 109.6452 305.3521 104 288.4167 C100.9603 279.2976 101.4888 278.3553 101 268.4167 C100.0053 248.1918 100.5699 247.6295 101 227.4167 C101.0632 224.4482 100.7575 223.3495 102 221.4167 C104.4583 217.5926 106.1134 214.8418 110 213.4167 C118.2116 210.4057 132 210.4167 132 210.4167 "/>
<path id="3" d="M245 189.4167 L245 199.4167 "/>
<path id="4" d="M255 124.4167 L258 125.4167 "/>
<path id="5" d="M229 120.4167 C229 120.4167 219.2822 115.4324 212 109.4167 C208.4803 106.5091 206 101.4167 206 101.4167 "/>
<path id="6" d="M282 115.4167 C282 115.4167 287.2831 108.5486 289 102.4167 C290.3772 97.498 289 90.4167 289 90.4167 "/>
</g>
</g>
</svg>
