<?xml version="1.0" encoding="utf-8"?>
<!DOCTYPE svg PUBLIC "-//W3C//DTD SVG 1.1//EN" "http://www.w3.org/Graphics/SVG/1.1/DTD/svg11.dtd">
<svg viewBox="0 0 800 800" preserveAspectRatio="xMinYMin meet" xmlns="http://www.w3.org/2000/svg" version="1.1">
<g fill="none" stroke="black" stroke-linecap="round" stroke-linejoin="round" stroke-width="1.0273">
<g transform="translate(106.5024,87.52) scale(2.9204) translate(-233,-77)">
<path id="0" d="M255,111C255,111 252.2168071468881,100.78767139363656 253,94C253.44728215693777,90.12355463987271 254.9292172013488,87.37287761713958 258,85C263.9547499137343,80.39860233938711 267.06278736624256,78.35513386430004 275,77C285.2983489285272,75.2417453048856 288.9656225431695,75.55920548347366 299,78C305.18618810883754,79.50474845890643 306.61134757372093,81.41964543766278 312,86C315.98705848712063,89.38899971405253 316.41657049447656,90.30285544450282 319,95C321.6537952897206,99.82508234494654 322.3125286214361,100.67209681612998 323,106C324.1939278843406,115.25294110363981 324.2394114896772,117.01426669984032 323,126C322.40807416786106,130.2914622830073 321.6026658377758,131.3128900631509 319,135C315.9959279882388,139.2557686833283 315.3582757978963,140.68466598236762 311,143C300.76027548504475,148.43985364857 298.4069601408252,149.9260072471227 287,152C278.1818535081564,153.6032993621534 274.7725492891638,152.79366522057626 267,151C264.2515320004098,150.36573815394072 262.9226897577581,148.88403463663718 261,146C255.5167736538009,137.77516048070137 254.07403585051125,136.22210755153372 251,127C249.02711131982113,121.08133395946342 249.44850201320037,117.68773288779681 250,113C250.13320078494738,111.86779332794738 253,110 253,110"/>
<path id="1" d="M264,152C264,152 256.42007535256476,154.57992464743523 253,158C250.3846482598034,160.6153517401966 249.65975083582901,162.57024438800516 249,167C246.35660807019283,184.74848867156245 246,186.6532165404117 246,205C246,212.72496145666875 246.63143296777713,213.46365035201813 249,221C252.0076407677299,230.56976607914055 252.01454383470744,231.52472451900263 257,240C261.639072114106,247.88642259398017 262.40272458398476,248.40272458398473 269,255C276.08596248386823,262.08596248386823 284.9233684685383,267.9003790090998 285,268C285.0139753552818,268.0181679618663 279,268 279,268"/>
<path id="2" d="M322,138C322,138 331.89592293164014,140.32020758092412 338,145C345.503920015394,150.7530053451354 346.9100452752425,153.53473307035566 352,161C353.3313582643049,162.95265878764718 352.9999398342747,166.99987966854934 353,167C353.0000370250617,167.0000740501235 352.9943585792736,163.0028207103632 353,163C353.0014103551816,162.9992948224092 354.9024191657055,164.66639526464178 355,166C356.1808037390211,182.13765109995498 356.5381295576212,185.16546548325948 356,204C355.5452825483758,219.91511080684697 355.73642222653245,220.94967775407156 353,236C351.91460347439215,241.96968089084314 351.57424574514016,243.53219281857477 348,248C340.58344007883414,257.27069990145736 338.7713912404515,259.98683615972214 329,266C321.3028427057313,270.7367121810884 318.88070011318245,270.64382547466124 309,272C294.2254691339607,274.02787678553483 278,273 278,273"/>
<path id="3" d="M353,240C353,240 360.35819462914514,238.3758584515308 365,235C370.34347362458874,231.11383736393546 371.22151256933523,229.7936807270193 375,224C378.2909406654177,218.9538909796929 378.5351529994137,218.04249387741854 380,212C382.4089341729825,202.06314653644705 380.4639280688196,200.8625019545905 383,191C384.81052904273247,183.95905372270704 384.92233020552674,182.0485435550621 389,177C394.2177529819076,170.53992487954298 396.3588955483132,169.07525570756627 404,165C410.1176443740919,161.73725633381764 412.62617938203215,161.265575859082 419,161C422.7297356912834,160.84459434619651 428,164 428,164"/>
<path id="4" d="M353,247C353,247 354.27651889592653,248.9517679263951 355,249C359.38610419344525,249.29240694622967 362.88976379716285,250.1042149070506 368,248C378.04116587224143,243.8654022879006 381.05707874180524,242.06037445172868 389,235C392.84947037086573,231.57824855923047 393.84051587011555,229.3004988794718 395,224C396.9981972695217,214.865383910758 394.5589560981884,213.08730731268147 396,203C396.99315187827557,196.04793685207088 396.9104329286112,194.73776741829351 400,189C403.32496265778036,182.8250693498365 406.2258329012228,178.4516027302989 410,177C413.93307939767305,175.48727715474112 418.7637708057651,179 426,179C428.7135859478381,179 431.02063983574226,178.22420020532218 432,177C433.38262611424625,175.27171735719222 434.3236859755489,170.78027286551918 434,169C433.8420104166963,168.1310572918299 430,166 430,166"/>
<path id="5" d="M274,225L274,226"/>
<path id="6" d="M274,227C274,227 275.7572781263862,216.0194230446224 277,214C277.25755893753654,213.58146672650312 280.96919701658754,213.19008337017595 282,214C285.6372619557553,216.85784867952202 290.30471579152026,224.4943387574693 291,225C291.0074361947431,225.00540814163133 292.98697591879073,221.97232382743036 293,222C293.1443812431196,222.3068101416292 297.0484225927717,231.99816578795503 299,242C300.9718126568424,252.10553986631731 300.2245145820489,252.53094685766013 301,263C301.22001512733464,265.9702042190176 301.4987967749104,268.1271056439069 301,269C300.7268493851681,269.47801357595574 297,270 297,270"/>
<path id="7" d="M300,229C300,229 299.65743668760666,218.38409821816344 301,211C301.33564082809835,209.15397544545914 303.19746545207266,207.1783410106505 304,207C305.1464779256105,206.7452271276421 307.9459451165312,207.41995778194712 310,209C313.58411617421586,211.75701244170455 315.88756172672055,213.063679956088 317,217C321.4255169651598,232.65952156902682 318.91153941644626,237.15944472631082 323,255C324.15731556201126,260.05010427059454 327.8620448027103,263.2065824352339 328,265C328.0357661622603,265.4649601093838 324,268 324,268"/>
<path id="8" d="M273,224C273,224 277.8892473874751,228.71566849454678 279,233C280.9214071507887,240.41114186732784 279.8699060215802,250.4796240863209 280,251C280.0089105464671,251.03564218586842 282.98915716503586,248.96313436112186 283,249C283.19003494963493,249.6461188287588 283.896325807276,262.48162903637995 285,268C285.0796465912275,268.3982329561375 287.01851149673956,268.8704195228229 287,269C286.46316659455203,272.7578338381356 281.3090852921138,287.733323035542 282,289C282.4509127567257,289.82667338733046 294.5495951173076,291.23423183593115 299,291C299.56843177629406,290.9700825380898 301,289.15741015523514 301,288C301,281.8271458387458 299,272 299,272"/>
<path id="9" d="M327,267C327,267 335.4506514371259,271.90130287425177 337,275C338.1322162574849,277.2644325149699 337.50529346455926,282.1775747539514 336,285C334.7519402287515,287.34011207109097 331.71743283379874,289.80589765472865 329,290C321.3225926734424,290.5483862376113 313.76935337046984,290.09072501989453 308,287C304.5730223265455,285.16411910350655 304.5860262588227,279.56403342031984 301,275C299.9461473851623,273.6587330356611 297,273 297,273"/>
<path id="10" d="M290,285L292,291"/>
<path id="11" d="M319,286L324,289"/>
<path id="12" d="M326,282C326,282 320.9990028080157,282.99950140400784 321,283C321.002105183078,283.001052591539 330,284 330,284"/>
<path id="13" d="M247,173C247,173 235.8631414114973,183.84214647125668 233,191C231.64122102505212,194.3969474373697 233.12280086180374,200.26952852626 235,203C236.42982925012146,205.0797516365403 239.5789422914554,206.1157884582911 244,207C251.30827906922678,208.46165581384537 252.2159564618973,208.50765501335454 260,208C274.7822491201077,207.03594027477558 290,204 290,204"/>
<path id="14" d="M350,156C350,156 357.4807513944968,159.10405980788008 363,163C365.31627482460464,164.63501752325033 365.4370446997432,165.39507449957202 367,168C368.30950308940436,170.18250514900725 369,170.76960308197633 369,173C369,182.3676670556994 367,193.99569552484783 367,194C367,194.00102487503622 369,189.00028756982758 369,189C369,188.99982745810345 368.1368156043523,191.43159219782385 367,192C361.64072643662484,194.67963678168758 359.80030909833516,195.93745170338514 353,197C344.71886249335926,198.2939277354126 343.19538318498956,198.59909915804675 335,197C323.81741074893693,194.81803136564625 312,189 312,189"/>
<path id="15" d="M248,197C248,197 277.3214052708476,194.92460058564973 278,195C278.05570553746776,195.00618950416307 275.00000041636144,199.99999916727705 275,200C274.99999974377755,200.00000051244487 277,197 277,197"/>
<path id="16" d="M311,178C311,178 318.20233484681523,182.00034335982576 325,183C334.2263718646021,184.35681939185324 335.6964518395525,184.32907830863536 345,183C352.30993069749445,181.95572418607222 360,178 360,178"/>
<path id="17" d="M280,173C280,173 284.64750850184594,187.6323836348822 291,199C293.4642784951668,203.40976151766694 294.9261652961083,204.0901180686488 299,207C301.206660464608,208.57618604614856 305,209 305,209"/>
<path id="18" d="M298,168C298,168 300.7324884840242,168.5541474733737 301,169C301.3821593085368,169.63693218089475 300.95424032725185,172.96949355150124 301,173C301.0285997954676,173.0190665303117 303.58254219348884,170.81736220965138 304,171C307.3273842813093,172.4557306230728 311.170713656769,175.19941124675097 317,180C319.31827526042036,181.90916786152266 319.7557986189323,182.82264758313155 321,185C321.3415454771558,185.5977045850227 321.1,186.95 321,187C320.6,187.2 317,187 317,187"/>
<path id="19" d="M304,173C304,173 306.6472261841468,170.86770981905505 307,171C308.07791999288474,171.40421999733178 310.72534211949505,173.45068423899008 312,176C313.6995438406733,179.39908768134657 313.84407790667717,180.6341813869604 314,185C314.32596311635603,194.12696725796863 314.1079441144388,195.87507649411538 313,204C312.81051787116484,205.3895356114577 311.9666435282988,206.57038065408943 311,207C308.8411627867994,207.95948320586694 304,208 304,208"/>
<path id="20" d="M275,196L288,195"/>
<path id="21" d="M281,173C281,173 277.52094908860965,172.3240226272846 276,173C274.24245883093993,173.78112940847114 272.24532713143946,175.44626150088348 272,177C271.21383805606905,181.9790256448961 273.10795942130965,190.3806086803554 273,192C272.9990360765955,192.01445885106827 271,192 271,192"/>
<path id="22" d="M292,166C292,166 295.48760975233534,166.05867317336526 297,165C299.4410509260552,163.29126435176136 301.2547597708084,158.9215536600851 302,159C304.53202101966314,159.2665285283856 316,167 316,167"/>
<path id="23" d="M289,169C289,169 282.0356673383115,164.0118891127705 282,164C281.9917690757743,163.99725635859141 283.0185611421883,166.9876259052078 283,167C282.93812952603906,167.04124698264064 280.2996729095017,165.59385221578071 279,166C274.1097053235699,167.52821708638441 267,172 267,172"/>
<path id="24" d="M288,169C288,169 284.4653205400968,160.2080767594193 285,157C285.3254570625498,155.0472576247013 290.81496584665416,150.9145996215327 291,151C291.71810873798495,151.3314348021469 295.7248991336428,157.47475503884675 298,163C298.7643619511477,164.85630759564438 298,168 298,168"/>
<path id="25" d="M288,197C288,197 283.4229131827981,193.55068167025956 283,192C282.6375029861731,190.67084428263467 285,186 285,186"/>
<path id="26" d="M253,99C253,99 245.7535066692217,98.20295151399013 244,99C243.16752713683414,99.37839675598448 242.75781245630458,101.47395847898474 242,104C241.2827846395689,106.39071786810372 240.41366870855253,107.74357580404117 241,109C242.7762389123261,112.8062262406988 249,119 249,119"/>
<path id="27" d="M317,93C317,93 319.56414571640743,85.83758166542898 321,85C322.2287599157667,84.28322338246943 326.8477764908307,84.82605990408947 329,86C330.44244767103896,86.78678963874853 331.5013924678841,88.67316485012574 332,91C332.7952474562861,94.71115479600199 332.77140947239286,96.91436211042848 332,100C331.678579386503,101.28568245398813 330.3173842131276,102.50598092007716 329,103C327.4031706507545,103.59881100596708 324,103 324,103"/>
<path id="28" d="M255,100C255,100 273.9216573706094,102.1856873681636 284,101C285.9499848264605,100.7705900204164 289.0281629081712,96.01408145408562 289,96C288.80285964280125,95.90142982140064 272.176763664816,95.11248596851928 272,95C271.97813233012584,94.9860842100801 275.4019511165636,89.74229968098183 278,89C283.051761717793,87.556639509202 288.49573792011944,87.23746266439457 293,89C296.4597955106329,90.35383302589982 297.81959817836144,96.6608834435206 301,98C303.8538427060239,99.20161798148373 307.8060951586969,98.4802017086952 312,97C314.86837015052856,95.98763406451934 318,92 318,92"/>
<path id="29" d="M265,120C265,120 270.1885245901639,114.07377049180327 271,114C271.5635245901639,113.94877049180327 275.2314931414509,117.2708595682646 276,119C276.37834183805495,119.85126913562358 275.2293550831344,122.95829907579374 275,123C273.7204400625134,123.2326472613612 265,121 265,121"/>
<path id="30" d="M301,116C301,116 302.7384664337356,111.6307667831322 304,111C305.6055881752456,110.1972059123772 310.44723883800367,110.44723883800367 311,111C311.7106929225667,111.71069292256671 312.54283366396515,118.09527722672474 312,119C311.5451934166778,119.75801097220359 307.56726773116673,121.19748213316667 305,121C302.66349790758983,120.8202690698146 299,118 299,118"/>
<path id="31" d="M287,127C287,127 284.42031926380383,127.99123376687085 284,129C282.5989357873206,132.3625541104305 281.36306781910525,137.21658989349476 282,139C282.4458525266263,140.24838707455368 286.62814673435025,143 289,143C292.7271979888782,143 298.6817958287465,140.0545633370028 300,139C300.2042288152646,138.83661694778831 299.19162434621625,135.1916243462163 299,135C298.96167513075676,134.96167513075673 296.999303398875,135.99930339887498 297,136C297.00208980337504,136.00208980337504 299.8125,136.1875 300,136C300.1875,135.8125 300.451336091133,134.12834022783247 300,133C298.70616987208546,129.7654246802136 297.8614777639273,126.99278814076122 296,126C293.22383057621186,124.519376307313 285,125 285,125"/>
<path id="32" d="M363,124L363,124"/>
<path id="33" d="M271,119L272,122"/>
<path id="34" d="M305,116C305,116 311,119.99937920585311 311,120C311,120.00031039707345 305,118 305,118"/>
<path id="35" d="M263,112L278,108"/>
<path id="36" d="M298,104C298,104 303.72504110379435,103.05000913417652 308,104C311.799963463294,104.84443632517643 316,108 316,108"/>
<path id="37" d="M289,136C289,136 292.90884485570524,133.92707588456417 293,134C293.2202915987124,134.1762332789699 294.14837367363844,139.5548789790846 294,140C293.97381641053437,140.07855076839684 291,140 291,140"/>
</g>
</g>
</svg>
