<?xml version="1.0" encoding="utf-8"?>
<!DOCTYPE svg PUBLIC "-//W3C//DTD SVG 1.1//EN" "http://www.w3.org/Graphics/SVG/1.1/DTD/svg11.dtd">
<svg viewBox="0 0 800 800" preserveAspectRatio="xMinYMin meet" xmlns="http://www.w3.org/2000/svg" version="1.1">
<g fill="none" stroke="black" stroke-linecap="round" stroke-linejoin="round" stroke-width="1.6849">
<g transform="translate(87.52,98.2031) scale(1.7805) translate(-135,-121.4167)">
<path id="0" d="M196 167.4167 C196 167.4167 199.2027 159.3042 204 153.4167 C209.7065 146.4133 210.375 145.2237 218 140.4167 C232.4583 131.3016 233.9911 131.3296 250 124.4167 C255.4703 122.0545 256.1151 121.7436 262 121.4167 C282.315 120.2881 283.3606 120.1658 304 121.4167 C315.9131 122.1387 316.5327 122.311 328 125.4167 C340.0864 128.6901 342.005 128.4197 352 134.4167 C360.4992 139.5162 361.3248 141.2342 368 149.4167 C376.3847 159.6947 376.5007 160.8624 383 172.4167 C385.2095 176.3447 386 181.4167 386 181.4167 "/>
<path id="1" d="M196 166.4167 C196 166.4167 199.6261 172.6461 201 178.4167 C201.9375 182.354 201.0152 187.4052 201 187.4167 C200.9989 187.4175 197 181.4167 197 181.4167 "/>
<path id="2" d="M194 166.4167 C194 166.4167 193.6389 179.1671 195 191.4167 C196.1081 201.3898 194.8563 203.1292 199 211.4167 C213.2206 239.8579 217.6371 240.3725 234 269.4167 C237.3301 275.3276 235.5731 276.8254 239 282.4167 C244.6702 291.6681 245.0335 294.0046 253 300.4167 C263.9267 309.2114 266.7275 311.2254 280 315.4167 C292.9423 319.5037 296.6719 319.5047 310 318.4167 C318.7666 317.701 321.8151 316.124 329 311.4167 C334.4412 307.8518 339 299.4167 339 299.4167 "/>
<path id="3" d="M390 178.4167 C390 178.4167 389.0808 196.7125 384 212.4167 C378.4619 229.5345 374.6966 229.3403 368 246.4167 C364.9125 254.2897 367.6285 256.1596 364 263.4167 C351.8731 287.6705 349.1075 290.1867 335 312.4167 C333.8408 314.2433 331 315.4167 331 315.4167 "/>
<path id="4" d="M389 181.4167 C389 181.4167 389.9461 174.0873 393 169.4167 C397.7013 162.2264 399.1589 160.8326 406 155.4167 C410.2491 152.0528 411.7423 151.3555 417 150.4167 C424.5155 149.0746 429.0723 148.1171 434 150.4167 C439.662 153.0589 442.0743 157.5208 447 164.4167 C448.7829 166.9127 448.9041 168.0613 449 171.4167 C449.38 184.7161 449.8788 186.2652 448 199.4167 C447.0177 206.2928 446.0043 206.7012 443 213.4167 C437.566 225.5634 437.6368 226.1341 431 237.4167 C427.8576 242.7588 427.5445 243.9628 423 247.4167 C416.055 252.6949 413.6777 254.2987 406 256.4167 C401.3798 257.6912 396.8304 257.7257 394 255.4167 C382.8527 246.3228 368 225.4167 368 225.4167 "/>
<path id="5" d="M200 186.4167 C200 186.4167 197.103 179.6594 193 174.4167 C188.3969 168.5349 187.9216 167.9171 182 163.4167 C175.8582 158.7489 174.7716 157.4482 168 155.4167 C161.2697 153.3976 158.3316 153.3614 152 154.4167 C148.4676 155.0054 146.6032 156.4416 144 159.4167 C140.4748 163.4455 139.5006 164.9145 138 170.4167 C135.2903 180.3522 135.5294 181.5638 135 192.4167 C134.547 201.7038 133.2902 203.8293 136 211.4167 C139.9197 222.3917 141.6028 225.2002 150 234.4167 C160.9441 246.4284 163.4563 248.4671 177 256.4167 C184.4431 260.7855 186.6664 259.8611 196 261.4167 C201.1766 262.2794 202.2748 262.4115 207 261.4167 C210.7983 260.617 213.695 259.5521 215 257.4167 C217.3245 253.6129 218 243.4167 218 243.4167 "/>
<path id="6" d="M233 190.4167 C233 190.4167 235.675 185.2666 239 182.4167 C241.9555 179.8834 242.9499 179.4292 247 178.4167 C258.2502 175.6041 261.2899 173.4693 271 174.4167 C278.3127 175.1301 283.5314 177.7537 288 182.4167 C292.0011 186.5917 291.807 190.7411 294 198.4167 C294.619 200.5832 294.8107 202.4902 294 203.4167 C290.2303 207.7249 286.1131 212.7186 280 214.4167 C272.2142 216.5794 266.9836 216.2751 258 213.4167 C247.4795 210.0692 242.6149 206.7669 236 200.4167 C233.3986 197.9193 233 189.4167 233 189.4167 "/>
<path id="7" d="M351 182.4167 C351 182.4167 341.9949 181.0836 334 181.4167 C330.6606 181.5558 329.6212 181.8037 327 183.4167 C323.9134 185.3161 323.1564 186.182 321 189.4167 C318.4842 193.1904 317.9084 194.1019 317 198.4167 C316.077 202.8007 315.7017 204.8928 317 208.4167 C318.5033 212.497 320.5517 216.0757 324 217.4167 C334.1623 221.3687 344.8176 222.8842 353 222.4167 C354.8237 222.3125 357.9381 218.8385 359 215.4167 C361.7478 206.5627 363.6236 200.723 362 193.4167 C360.7485 187.7847 356.7083 183.6979 351 179.4167 C346.752 176.2307 338 175.4167 338 175.4167 "/>
<path id="8" d="M274 245.4167 C274 245.4167 282.2201 254.9059 290 260.4167 C292.7516 262.3657 294.2464 262.4167 298 262.4167 C306.4456 262.4167 311.9281 263.0227 316 260.4167 C319.3707 258.2594 323 246.4167 323 246.4167 "/>
<path id="9" d="M266 281.4167 C266 281.4167 281.7032 288.3007 297 291.4167 C307.7438 293.6052 308.9971 292.7716 320 292.4167 C323.8634 292.292 324.7087 292.1489 328 290.4167 C333.5301 287.5061 335.1771 286.7493 339 282.4167 C341.7053 279.3507 343 273.8134 343 273.4167 C343 273.4167 339 273.4167 339 273.4167 "/>
<path id="10" d="M282 287.4167 L260 275.4167 "/>
<path id="11" d="M238 280.4167 C238 280.4167 233.4469 285.7854 228 289.4167 C206.8931 303.4879 202.6321 301.6395 184 316.4167 C175.7201 322.9835 175.9352 325.5248 170 335.4167 C164.1515 345.1642 163.7712 345.6687 160 356.4167 C153.9207 373.7426 153.5593 374.3658 150 392.4167 C146.6453 409.4297 149.4806 410.5111 146 427.4167 C142.5937 443.9613 136 460.4167 136 460.4167 "/>
<path id="12" d="M371 259.4167 C371 259.4167 376.0083 265.3838 382 269.4167 C401.5413 282.5695 405.6198 279.7451 423 294.4167 C442.5245 310.8984 444.481 313.4758 459 334.4167 C469.3022 349.2756 469.4792 351.6274 475 369.4167 C482.6548 394.0823 486 421.4167 486 421.4167 "/>
</g>
</g>
</svg>
