<?xml version="1.0" encoding="utf-8"?>
<!DOCTYPE svg PUBLIC "-//W3C//DTD SVG 1.1//EN" "http://www.w3.org/Graphics/SVG/1.1/DTD/svg11.dtd">
<svg viewBox="0 0 800 800" preserveAspectRatio="xMinYMin meet" xmlns="http://www.w3.org/2000/svg" version="1.1">
<g fill="none" stroke="black" stroke-linecap="round" stroke-linejoin="round" stroke-width="2.0257">
<g transform="translate(87.52,218.5839) scale(1.4809) translate(-69,-102)">
<path id="0" d="M71,117L69,343"/>
<path id="1" d="M110,122C110,122 111.54039688689454,165.63908561040017 110,208C109.5675164765759,219.8932968941625 106.35479353918038,220.11441643745724 106,232C104.38191312886175,286.2059101831313 106,342 106,342"/>
<path id="2" d="M114,146L422,147"/>
<path id="3" d="M113,160L236,163"/>
<path id="4" d="M236,163C236,163 269.3137431522938,161.89821606131326 302,163C313.4407463532319,163.3856431355022 313.5600537785147,165.62695827538636 325,166C359.17448405364166,167.1143853495753 360.5682545468014,167.2382127945629 394,166C399.8680519394503,165.78266474298331 400.09047491058686,163.61133018166342 406,163C414.1607727425229,162.15578213008385 423,163 423,163"/>
<path id="5" d="M107,305C107,305 106.11661635175736,298.9012946999312 108,295C118.96575347825488,272.2852249379006 120.9659664766845,270.2563984100657 135,247C138.23659662913687,241.6364970145732 138.56059876475203,240.55152098819838 143,237C147.6613712970104,233.2709029623917 150.55992811744755,234.83460753493165 155,231C160.4854856326772,226.26253513541513 161.27519494545677,221.72480505454322 165,218C165.48584413754912,217.51415586245088 167.8125,218.1875 168,218C168.1875,217.8125 167.58759369224305,215.28868441542986 168,215C179.29207747429731,207.09554576799186 187.6877345849854,201.51028373517494 208,190C217.41239129692676,184.66631159840818 218.88015659505206,186.4226095921312 228,181C236.89622251122321,175.71035418251594 237.37078504471623,169.2438937427093 245,168C275.0571117908565,163.09938394714297 289.65439853798557,164.2149646198815 320,166C324.2193020100366,166.2481942358845 324.78731800478215,170.7411711354056 330,173C339.0388705697128,176.9168439135422 340.48261331374897,175.09943168596268 350,179C370.6742648016665,187.47305934494528 371.72560039109026,187.96125020369286 391,198C394.83436684810897,199.99706606672342 395.46537040673183,200.54368691827065 398,204C405.9681469249449,214.86565489765212 404.92149845521305,216.69009783729825 413,228C417.22209751517675,233.91093652124744 419.10151429404686,233.05945035283335 423,239C429.26393699728765,248.54504685300975 430.36080291111307,249.27394542222805 434,260C439.5494471131618,276.3562651756349 439.4744989229593,277.6021036914975 442,295C443.89581548289896,308.06006221552616 443,322 443,322"/>
<path id="6" d="M159,332C159,332 159.13143468588703,319.89897595081845 163,310C175.59642608375805,277.76796855038384 177.73186121044614,273.9291050749442 193,245C195.11970036803427,240.98372561846136 196.78012078470107,240.578815076016 201,238C205.2771626435609,235.38617838449056 207.32828035388607,236.90677805317352 211,234C218.21562626657197,228.2876292056305 217.68910834813798,223.51555072615008 225,219C232.4495305580288,214.3988193612175 235.39077540991684,213.3401495430118 245,213C289.17971428216435,211.43611630859596 298.27407543211046,208.1183437756412 338,215C353.94398558363713,217.7619502585828 357.1292380950068,223.77105733704596 372,235C380.43047349892384,241.36586774408533 380.6794496753136,242.97064239330513 387,252C394.3778060153612,262.53972287908743 395.1398598322345,263.16661524370135 400,275C406.363813023703,290.49450127510306 406.57685231605995,291.91120588548176 410,308C411.3642829654952,314.4121299378274 410,322 410,322"/>
<path id="7" d="M421,102C421,102 419.3042835863464,113.97784331125162 421,125C427.1533522033918,164.99678932204677 431.39468307548043,165.58271480741155 437,206C440.79997320494794,233.39980679357217 437.48933214140436,234.1544110228483 440,262C442.9769608694783,295.01720237057753 448,328 448,328"/>
<path id="8" d="M423,104C423,104 443.341141626349,101.17525578898387 445,103C448.6034531178831,106.9637984296714 449.9645903000313,120.00170568017523 453,137C454.91549039534317,147.72674621392167 453.05722977141994,148.6385587809065 455,159C455.93339798691556,163.9781225968829 458.31927156103216,164.03068239553485 459,169C463.11884908720924,199.06759833662738 460.07102976990654,200.98856230232866 465,232C472.0027411780969,276.05891324552664 483,320 483,320"/>
<path id="9" d="M72,117C72,117 85.6920647385196,114.67610696680314 98,115C103.72955606999949,115.15077779131577 107.36710636116882,116.11936168654917 110,118C111.30314937679522,118.93082098342516 112,125 112,125"/>
<path id="10" d="M110,316C110,316 133.09451219512195,314.4756097560976 135,316C136.21951219512195,316.9756097560976 135,336 135,336"/>
<path id="11" d="M136,321C136,321 135.4258478666246,316.369097800027 136,316C142.4942985752907,311.8250937730274 164,303 164,303"/>
<path id="12" d="M116,287C116,287 136.75,287.5 138,289C139.25,290.5 136,311 136,311"/>
<path id="13" d="M136,311L136,314"/>
<path id="14" d="M138,298C138,298 138.612297835499,279.67606002885946 140,279C144.56139914208415,276.77777990513846 177,279 177,279"/>
<path id="15" d="M177,279L177,279"/>
<path id="16" d="M138,253C138,253 157.48676470588236,251.7029411764706 159,253C160.11176470588236,253.95294117647057 160.17149203939564,262.7995557242305 159,271C158.31198086575176,275.81613393973765 155,281 155,281"/>
<path id="17" d="M155,281L155,281"/>
<path id="18" d="M157,273C157,273 158.08975689665837,253.25359703656795 160,252C163.30112774655686,249.83363491632207 189,252 189,252"/>
<path id="19" d="M190,252L190,252"/>
<path id="20" d="M168,225C168,225 165.39543133694792,225.36730986088335 165,226C163.86528398962773,227.8155456165956 163.45189168039417,229.4978394769451 163,233C161.48967758374923,244.70499872594345 161,257 161,257"/>
<path id="21" d="M161,242L168,223"/>
<path id="22" d="M168,216L169,230"/>
<path id="23" d="M167,225L195,243"/>
<path id="24" d="M179,232C179,232 178.8250092665022,230.09999470485587 179,230C180.24680897617168,229.2875377279019 184.74852554298627,229.54027625478613 186,228C189.07272590258654,224.21818350450886 187.933172280719,218.23627887425104 192,214C197.82033845654186,207.93714744110224 207.28531232498474,206.39335959376908 210,203C210.79089325965012,202.01138342543737 208,194 208,194"/>
<path id="25" d="M209,196C209,196 209.53632672900304,208.88408168225075 210,209C213.70938616797576,209.92734654199393 238.68973405414454,204.6589045434673 245,205C245.42166501269898,205.02279270338914 247,211 247,211"/>
<path id="26" d="M244,173L246,210"/>
<path id="27" d="M248,199C248,199 266.8781404086776,196 281,196C283.5676108347859,196 285.0366880035715,197.03668800357153 287,199C290.2721866607141,202.27218666071414 293,208 293,208"/>
<path id="28" d="M293,208L293,208"/>
<path id="29" d="M284,197L293,166"/>
<path id="30" d="M315,170C315,170 318.289340453095,175.6700533982127 319,181C320.1707397159995,189.7805478699964 319,200 319,200"/>
<path id="31" d="M307,189C307,189 312.73720160395055,192.74695276284535 318,194C322.31713930925934,195.0278903117284 325.4474667606251,192.90605718312506 328,194C329.67737898587495,194.71887670823213 331.4213089170718,197.2512173560912 332,200C333.0995130575635,205.22268702342671 332,213 332,213"/>
<path id="32" d="M291,187C291,187 300.8572701840475,185.71431754601187 306,187C308.1428040899802,187.53570102249506 311,192 311,192"/>
<path id="33" d="M334,205C334,205 334.8158467293412,200.526290342515 336,200C346.9066748613308,195.15258895051963 370,189 370,189"/>
<path id="34" d="M363,191C363,191 362.1699039041781,194.33980780835623 363,196C365.9053363353766,201.81067267075323 370.59155826364644,203.05324600206285 372,209C374.326990694845,218.82507182267875 372,234 372,234"/>
<path id="35" d="M372,234L372,234"/>
<path id="36" d="M372,236C372,236 376.5133550804324,222.64077407979653 380,221C386.1288680226774,218.11582681285768 396.1052582231136,219.04244434417228 406,220C408.0578105563388,220.19914295706505 411,224 411,224"/>
<path id="37" d="M415,232C415,232 416.0302113840432,250.06102763340124 413,264C411.5295757090836,270.7639517382155 405,278 405,278"/>
<path id="38" d="M414,264C414,264 422.92556935435624,265.92556935435624 427,270C434.5055301367122,277.5055301367122 441,291 441,291"/>
<path id="39" d="M410,301C410,301 412.6474748691572,297.6190855607481 415,297C420.54377661268176,295.54111141771534 426.21424708655115,294.42544400544193 429,296C432.50698344120263,297.9822080319841 434.58964118721684,302.89508580670173 438,310C440.31576766544884,314.8245159696851 438.6377100957477,317.3491883297919 441,321C443.04015946276337,324.1529737151797 446.91668965517243,324.656275862069 449,327C449.47668965517243,327.536275862069 449,330 449,330"/>
<path id="40" d="M483,318C483,318 485.68445416442875,319.0533624932863 486,320C487.437486584269,324.312459752807 488,333 488,333"/>
<path id="41" d="M451,332L491,335"/>
<path id="42" d="M70,346C70,346 97.71064484110916,347.71456578145313 107,347C107.58058469743068,346.95533963865915 109,343 109,343"/>
</g>
</g>
</svg>
