<?xml version="1.0" encoding="utf-8"?>
<!DOCTYPE svg PUBLIC "-//W3C//DTD SVG 1.1//EN" "http://www.w3.org/Graphics/SVG/1.1/DTD/svg11.dtd">
<svg viewBox="0 0 800 800" preserveAspectRatio="xMinYMin meet" xmlns="http://www.w3.org/2000/svg" version="1.1">
<g fill="none" stroke="black" stroke-linecap="round" stroke-linejoin="round" stroke-width="2.9954">
<g transform="translate(87.52,280.8169) scale(1.0015) translate(-13,-145)">
<path id="0" d="M74 293 L70 379 "/>
<path id="1" d="M126 290 C126 290 129.7 375.1666 125 383 C123.5538 385.4103 72 380 72 380 "/>
<path id="2" d="M319 280 C319 280 319.8942 328.2898 319 373 C318.9323 376.3845 317 380 317 380 "/>
<path id="3" d="M317 376 C317 376 341.7689 377.3728 366 377 C373.9299 376.878 382 375 382 375 "/>
<path id="4" d="M390 271 C390 271 390.0141 361.817 389 375 C388.9948 375.0682 382 375 382 375 "/>
<path id="5" d="M556 268 L555 374 "/>
<path id="6" d="M555 376 L614 376 "/>
<path id="7" d="M621 263 C621 263 623.004 281.5651 621 299 C618.097 324.2561 614.8794 324.6076 611 350 C609.4378 360.2254 609.3484 362.8545 610 371 C610.1321 372.6509 613 375 613 375 "/>
<path id="8" d="M19 291 C19 291 26.0408 293.9456 33 295 C42.1249 296.3826 42.5328 296.1257 52 296 C155.241 294.6295 155.7927 295.0102 259 292 C275.4877 291.5191 275.7766 291.4335 292 289 C305.5316 286.9703 305.5887 284.1176 319 283 C352.7315 280.189 354.5298 283.0919 388 281 C393.417 280.6614 393.6051 278.4904 399 278 C409.5288 277.0428 411.2427 279.0454 421 278 C423.8037 277.6996 424.232 275.1115 427 275 C491.724 272.3937 498.8405 275.2183 570 272 C597.9752 270.7348 626 266 626 266 "/>
<path id="9" d="M21 276 C21 276 77.9847 276.6316 134 274 C151.9471 273.1568 152.1075 269.6045 170 269 C225.4056 267.1282 226.0383 269.899 282 269 C350.4853 267.8998 352.685 269.5029 419 265 C431.307 264.1643 431.4702 260.3203 444 258 C458.0828 255.3921 458.5355 255.3857 473 255 C533.199 253.3947 533.9385 255.6569 594 254 C605.9514 253.6703 606.0495 251.9435 618 251 C624.903 250.455 631.6045 250.4607 632 251 C632.4931 251.6724 629 266 629 266 "/>
<path id="10" d="M97 274 L96 223 "/>
<path id="11" d="M106 223 L108 277 "/>
<path id="12" d="M339 219 L340 269 "/>
<path id="13" d="M347 219 L353 268 "/>
<path id="14" d="M576 210 L578 255 "/>
<path id="15" d="M585 208 L588 253 "/>
<path id="16" d="M106 223 C106 223 106.1672 217.4619 108 214 C110.1329 209.9712 111.0045 209.0822 115 206 C127.9399 196.0178 128.886 194.2071 143 187 C151.0685 182.8799 152.6259 182.8035 162 182 C186.6485 179.8873 187.5027 181.3228 213 181 C226.9951 180.8228 227.5684 179.9668 241 181 C246.3874 181.4144 246.8621 183.8097 252 184 C259.3644 184.2728 260.7864 181.5025 268 182 C274.0374 182.4164 274.9995 183.2193 281 186 C295.1194 192.5431 295.2734 195.8144 309 201 C316.2393 203.7349 320.8485 200.0088 326 203 C332.6064 206.836 340 219 340 219 "/>
<path id="17" d="M347 221 C347 221 349.7468 214.8192 354 211 C373.305 193.6649 374.3567 189.5585 396 177 C412.3191 167.5309 415.7734 169.1764 435 164 C441.0029 162.3838 441.5123 163.1159 448 163 C469.4299 162.6173 469.9252 161.7031 491 163 C501.9031 163.671 505.0105 162.2789 513 167 C534.2109 179.5337 537.1926 190.3104 557 202 C562.3888 205.1803 565.8232 202.1823 574 203 C575.4823 203.1482 576.6622 203.5496 577 204 C577.3118 204.4158 577 207 577 207 "/>
<path id="18" d="M586 208 C586 208 610.2746 181.8735 632 161 C633.6496 159.4151 637 159 637 159 "/>
<path id="19" d="M98 224 C98 224 93.6591 216.8017 88 212 C77.7439 203.2979 76.0481 198.986 65 196 C43.942 190.3086 14 192 14 192 "/>
<path id="20" d="M100 203 C100 203 107.4259 198.0386 113 192 C119.0961 185.3959 117.9891 182.4882 124 177 C128.2542 173.1157 130.2094 171.6662 136 171 C182.4539 165.6557 186.5806 166.7573 237 164 C250.4276 163.2657 251.4321 162.0665 264 164 C276.2098 165.8784 276.9754 170.2091 289 172 C299.0319 173.4941 303.4187 168.0517 311 171 C325.2272 176.5328 343 193 343 193 "/>
<path id="21" d="M347 193 C347 193 353.4956 188.8047 358 184 C360.5073 181.3256 359.4355 179.4295 362 177 C368.1319 171.1909 369.1411 170.3661 377 166 C386.6789 160.6229 387.7675 158.1991 398 157 C447.97 151.1441 451.8324 152.53 505 151 C520.8464 150.544 527.2084 147.8634 537 153 C550.2546 159.9532 553.9958 169.3952 566 183 C567.0543 184.1949 566.1005 186.2504 567 187 C570.3214 189.7678 578 193 578 193 "/>
<path id="22" d="M578 193 C578 193 578.9234 188.9864 581 187 C589.3892 178.9755 592.8344 179.8861 601 171 C609.0436 162.2467 607.7333 159.5614 615 150 C616.7914 147.6429 617.5738 146.8665 620 146 C623.5314 144.7388 629 145 629 145 "/>
<path id="23" d="M13 176 C13 176 39.1131 174.257 59 177 C64.5885 177.7708 64.9386 181.8352 71 184 C78.1363 186.5487 80.8432 184.1584 87 187 C92.0126 189.3135 95.2463 192.4927 97 196 C98.0647 198.1294 95.7428 204.2285 96 205 C96.0396 205.1187 100 205 100 205 "/>
</g>
</g>
</svg>
