<?xml version="1.0" encoding="utf-8"?>
<!DOCTYPE svg PUBLIC "-//W3C//DTD SVG 1.1//EN" "http://www.w3.org/Graphics/SVG/1.1/DTD/svg11.dtd">
<svg viewBox="0 0 800 800" preserveAspectRatio="xMinYMin meet" xmlns="http://www.w3.org/2000/svg" version="1.1">
<g fill="none" stroke="black" stroke-linecap="round" stroke-linejoin="round" stroke-width="3.0674">
<g transform="translate(87.52,210.7515) scale(0.97803) translate(-1,-93)">
<path id="0" d="M78 224 C78 224 99.8932 223.4625 121 221 C129.5044 220.0078 129.5338 217.6982 138 217 C177.2436 213.7634 178.1079 215.9466 218 213 C266.0246 209.4527 266.4313 210.5832 314 204 C378.1019 195.1288 442 182 442 182 "/>
<path id="1" d="M74 229 C74 229 73.6847 234.828 74 235 C75.0597 235.578 79.8948 235.9927 85 235 C97.2344 232.6211 97.5953 229.3632 110 228 C141.9296 224.4913 143.3017 227.8027 176 225 C195.5006 223.3285 195.4591 220.7425 215 219 C273.6762 213.7677 274.4025 217.2074 333 211 C392.0676 204.7428 441.13 195.957 451 194 C451.0659 193.9869 450.3006 189.4864 449 188 C447.9301 186.7773 444 186 444 186 "/>
<path id="2" d="M108 231 C108 231 111.513 261.5165 113 292 C114.5065 322.8841 114 354 114 354 "/>
<path id="3" d="M161 233 C161 233 165.5848 233.901 166 235 C171.0746 248.4326 172.9709 256.4046 178 278 C181.4224 292.6962 181.7156 293.1015 183 308 C184.1817 321.7083 185.1819 334.314 183 336 C178.0953 339.79 160.7184 338.1673 139 342 C126.9216 344.1315 115 348 115 348 "/>
<path id="4" d="M410 208 C410 208 409.552 217.704 412 226 C418.284 247.2959 421.1963 247.5145 428 269 C430.5408 277.0235 430.2646 285.7865 431 286 C433.3794 286.6908 459 278 459 278 "/>
<path id="5" d="M446 193 C446 193 459.5968 226.6048 471 260 C473.4191 267.0845 474.7244 274.4446 474 275 C470.665 277.5568 441 283 441 283 "/>
<path id="6" d="M103 188 C103 188 106.6432 190.2864 108 193 C111.6181 200.2362 114 210 114 210 "/>
<path id="7" d="M114 210 L119 218 "/>
<path id="8" d="M106 186 C106 186 181.8053 181.2908 256 174 C267.5289 172.8671 267.5444 170.432 279 169 C291.183 167.4771 291.6817 169.3687 304 168 C322.9681 165.8924 323.2099 165.758 342 162 C363.091 157.7818 362.9875 155.6422 384 152 C400.1053 149.2084 412.6099 146.1708 417 149 C421.6099 151.9708 424.1834 165.7475 429 181 C429.8075 183.557 429 187 429 187 "/>
<path id="9" d="M155 182 C155 182 157.8549 182.6467 159 184 C162.599 188.2534 163.5109 189.343 166 195 C168.7861 201.332 170 209 170 209 "/>
<path id="10" d="M207 179 C207 179 210.77 178.6263 211 179 C212.4447 181.3476 212.2667 185.9867 215 192 C219.6114 202.1452 226 212 226 212 "/>
<path id="11" d="M277 176 L295 215 "/>
<path id="12" d="M330 165 L342 203 "/>
<path id="13" d="M369 155 C369 155 375.0305 161.2691 378 168 C382.1378 177.3789 380.4109 180.8429 384 189 C384.9413 191.1394 389 193 389 193 "/>
<path id="14" d="M94 226 C94 226 94.9286 216.2863 94 207 C92.4604 191.6043 88.2568 189.6248 89 176 C89.591 165.1646 91.2416 161.4437 97 152 C102.4568 143.0508 107.2304 140.4801 114 135 C114.8803 134.2874 116.7033 135.6865 118 135 C123.7591 131.9511 124.4235 127.9093 131 126 C152.7405 119.6882 155.7109 119.7325 180 117 C195.0555 115.3063 200.2994 113.1089 211 117 C221.7948 120.9254 225.1238 125.7376 235 137 C252.7905 157.2874 252.3877 159.0798 268 182 C275.7592 193.3912 276.9194 195.1131 282 206 C282.9984 208.1394 282 212 282 212 "/>
<path id="15" d="M280 177 C280 177 279.3035 154.8865 282 135 C283.1363 126.6196 284.0846 125.2715 288 118 C290.5756 113.2168 291.5601 112.4308 296 109 C301.9918 104.37 302.7848 103.5654 310 101 C324.497 95.8455 325.7432 94.7949 341 93 C358.6732 90.9208 360.6447 90.6334 378 93 C392.1785 94.9334 396.3689 96.2534 407 102 C411.378 104.3665 410.4236 108.6415 415 113 C420.3431 118.0887 423.1567 117.1567 428 122 C430.6418 124.6418 430.0385 127.4781 432 130 C432.5884 130.7566 434.7605 130.4413 435 131 C436.4966 134.4922 435.9545 139.3246 438 144 C438.6789 145.5517 441.6594 145.6065 442 147 C445.7431 162.3125 449 189 449 189 "/>
<path id="16" d="M297 167 C297 167 296.9445 155.0395 300 145 C303.6469 133.0173 304.857 131.2384 311 121 C313.0477 117.5872 315.4212 118.2821 318 115 C320.4987 111.8199 319.7959 108.3225 322 107 C326.6086 104.2348 335.0391 104.1103 338 103 C338.1269 102.9524 337.9801 101.0016 338 101 C341.1051 100.7516 351.6503 99.4663 363 101 C368.7546 101.7776 369.6092 102.7655 375 106 C386.7159 113.0296 390.0038 112.7736 398 122 C407.5391 133.0066 414 151 414 151 "/>
<path id="17" d="M107 190 C107 190 103.9418 169.2596 105 160 C105.2021 158.2316 107.7298 156.7986 111 155 C127.2016 146.0891 128.1228 143.2899 145 138 C159.6995 133.3927 162.466 133.4907 178 134 C191.3259 134.4369 199.0303 137.5966 206 140 C206.5515 140.1902 206.2874 143.5928 207 144 C210.3152 145.8944 214.2572 145.0465 220 148 C231.137 153.7276 233.1623 153.8988 242 162 C249.9708 169.3066 250.3879 171.023 256 181 C263.5828 194.4806 261.7919 196.6649 269 210 C271.3577 214.3617 274.1138 214.497 276 218 C276.8013 219.4882 276 223 276 223 "/>
<path id="18" d="M77 230 C77 230 46.9788 228.8103 33 230 C31.9388 230.0903 31.4816 233.537 30 234 C19.2366 237.3636 1 240 1 240 "/>
<path id="19" d="M4 251 L86 231 "/>
<path id="20" d="M440 197 C440 197 482.3766 180.7241 525 172 C566.6443 163.4763 568.7648 168.6107 611 162 C625.5915 159.7161 640 154 640 154 "/>
<path id="21" d="M442 182 C442 182 458.0112 182.1666 473 179 C528.297 167.3175 528.5033 162.9664 584 152 C611.2799 146.6094 640 146 640 146 "/>
<path id="22" d="M446 151 C446 151 448.6688 146.9035 452 145 C461.7916 139.4048 462.8071 137.3985 474 135 C551.0591 118.4873 634 106 634 106 "/>
<path id="23" d="M91 191 C91 191 69.8883 189.6374 52 192 C45.238 192.8931 45.1423 196.0394 38 198 C20.1085 202.9114 1 206 1 206 "/>
<path id="24" d="M172 224 L171 254 "/>
<path id="25" d="M117 262 C117 262 128.1848 262.963 138 261 C149.8523 258.6295 162 253 162 253 "/>
<path id="26" d="M120 288 C120 288 141.6487 289.4605 161 288 C166.8063 287.5618 173 284 173 284 "/>
<path id="27" d="M117 317 C117 317 139.9007 320.0013 159 317 C172.5189 314.8756 187 306 187 306 "/>
<path id="28" d="M420 233 C420 233 442.9762 228.4354 448 227 C448.0966 226.9724 447.8497 225.0683 448 225 C450.0435 224.0711 459 222 459 222 "/>
<path id="29" d="M424 251 C424 251 436.9916 251.3724 449 250 C453.9455 249.4348 459 247 459 247 "/>
<path id="30" d="M435 271 L462 264 "/>
<path id="31" d="M438 200 L443 232 "/>
<path id="32" d="M429 252 C429 252 433.0962 255.9545 435 260 C436.7486 263.7157 437 269 437 269 "/>
<path id="33" d="M452 255 C452 255 451.9972 250.0014 452 250 C452 250 453.5164 251.9689 454 254 C455.9138 262.038 457 271 457 271 "/>
<path id="34" d="M138 262 C138 262 139.2619 270.6984 142 278 C143.5451 282.1202 147 286 147 286 "/>
<path id="35" d="M167 287 L165 313 "/>
<path id="36" d="M131 290 L128 317 "/>
<path id="37" d="M156 322 L153 341 "/>
<path id="38" d="M219 294 C219 294 219.3225 299.3712 218 304 C213.4814 319.8151 209.4104 320.2394 207 336 C203.1852 360.9429 205 389 205 389 "/>
<path id="39" d="M275 298 C275 298 278.1836 307.6807 283 316 C288.9813 326.3314 289.1644 327.3808 297 336 C303.595 343.2545 309.7895 343.1455 313 349 C315.7349 353.9871 311.0042 362.5662 314 367 C319.6491 375.3606 327.833 376.5861 338 386 C340.0913 387.9364 341 392 341 392 "/>
<path id="40" d="M360 277 C360 277 362.7213 286.1558 367 294 C371.5216 302.2895 371.5692 303.5692 378 310 C387.289 319.289 388.4119 320.3475 400 327 C414.6085 335.3864 418.7033 332.3164 432 341 C441.2932 347.069 449 359 449 359 "/>
<path id="41" d="M389 288 C389 288 394.2373 294.1676 397 300 C398.3077 302.7607 396.6121 304.7793 398 307 C400.6621 311.2593 402.1875 312.6312 407 316 C411.5609 319.1926 418 321 418 321 "/>
<path id="42" d="M119 350 C119 350 120.1684 362.2819 119 369 C118.7113 370.6603 115.7416 370.9236 115 373 C111.4287 382.9996 113.7341 386.2571 109 397 C101.2152 414.6656 96.0382 414.4044 89 432 C83.6968 445.258 87.1642 447.7227 83 462 C80.3332 471.1435 75 480 75 480 "/>
<path id="43" d="M479 278 C479 278 480.3454 283.1655 483 287 C489.0206 295.6964 489.3807 296.9249 497 304 C502.7191 309.3106 503.6365 309.8935 511 313 C534.8295 323.0531 536.9592 320.5727 561 331 C577.9709 338.3609 577.2259 340.9125 594 349 C605.0031 354.3051 606.4735 352.9182 617 358 C620.2389 359.5636 621.4666 360.9554 623 363 C623.4842 363.6456 623 366 623 366 "/>
</g>
</g>
</svg>
