<?xml version="1.0" encoding="utf-8"?>
<!DOCTYPE svg PUBLIC "-//W3C//DTD SVG 1.1//EN" "http://www.w3.org/Graphics/SVG/1.1/DTD/svg11.dtd">
<svg viewBox="0 0 800 800" preserveAspectRatio="xMinYMin meet" xmlns="http://www.w3.org/2000/svg" version="1.1">
<g fill="none" stroke="black" stroke-linecap="round" stroke-linejoin="round" stroke-width="3.077">
<g transform="translate(87.52,250.3411) scale(0.97498) translate(0,-57)">
<path id="0" d="M67 235 C67 235 63.0577 263.9672 64 292 C65.0306 322.6618 71 354 71 354 "/>
<path id="1" d="M68 236 C68 236 73.1447 238.7352 78 239 C99.4971 240.1726 118.3684 235.0546 123 239 C127.9594 243.2247 129.2441 261.9685 132 285 C136.1914 320.0281 137 356 137 356 "/>
<path id="2" d="M23 363 L482 363 "/>
<path id="3" d="M476 364 L580 363 "/>
<path id="4" d="M462 231 C462 231 458.1681 265.3869 462 297 C465.9445 329.5421 478 363 478 363 "/>
<path id="5" d="M462 232 C462 232 476.8664 237.1026 491 238 C507.2944 239.0346 521.5936 233.6418 525 236 C527.619 237.8132 526.5562 250.938 530 265 C532.4741 275.1026 535.0466 274.9326 537 285 C541.405 307.7027 541.1999 308.5984 543 332 C544.1758 347.285 543 363 543 363 "/>
<path id="6" d="M2 235 C2 235 137.0939 238.0963 270 236 C294.3484 235.616 294.6514 230.3877 319 230 C450.4168 227.9074 584 231 584 231 "/>
<path id="7" d="M4 234 C4 234 4.0065 217.6479 5 217 C6.701 215.8906 16.0379 218.9123 27 219 C140.525 219.9082 255 219 255 219 "/>
<path id="8" d="M256 220 C256 220 266.1245 223.5511 276 224 C309.2742 225.5125 310.6753 226.1801 344 224 C363.3371 222.735 363.7017 217.5984 383 217 C490.7827 213.6579 574.9624 214.5185 602 216 C602.088 216.0048 602.9854 228.1788 602 229 C600.2111 230.4908 584 231 584 231 "/>
<path id="9" d="M305 59 C305 59 307 72.5526 307 86 C307 155.2293 305 225 305 225 "/>
<path id="10" d="M304 58 C304 58 325.8737 59.1865 326 60 C329.7192 83.9516 329 219 329 219 "/>
<path id="11" d="M306 57 C306 57 298.7157 61.2647 294 67 C280.8128 83.0384 282.3331 85.2807 269 102 C250.9665 124.6134 251.7948 128.6303 231 146 C211.6518 162.1615 206.6973 158.5305 184 173 C166.9273 183.8838 168.2398 187.938 151 197 C130.6155 207.7149 106 214 106 214 "/>
<path id="12" d="M327 60 C327 60 352.9851 89.3604 381 114 C393.6174 125.0972 396.0465 122.8177 410 133 C451.4206 163.2258 450.183 167.579 492 195 C509.6613 206.5812 532 213 532 213 "/>
<path id="13" d="M337 211 C337 211 350.6904 190.398 365 172 C367.6945 168.5357 369.6486 169.4801 372 166 C381.459 152.0007 380.4002 148.5108 390 135 C392.9365 130.8672 398.4364 127.6981 399 128 C402.3047 129.7704 409.2491 138.5144 418 150 C433.137 169.8673 431.685 171.6011 447 191 C453.8627 199.6928 457.357 199.6973 463 207 C464.3474 208.7438 463.9737 213.0225 464 213 C464.1802 212.8455 471.6433 203.9278 477 195 C478.7025 192.1625 479 188 479 188 "/>
<path id="14" d="M303 220 C303 220 290.8401 205.5956 281 190 C264.5047 163.8565 252.142 138.3026 250 136 C249.932 135.927 243.5865 141.0879 241 147 C230.3834 171.2666 233.5986 176.8027 222 200 C216.8966 210.2068 211.6455 213.2607 205 219 C204.0054 219.8589 200.8249 219.8249 200 219 C192.576 211.576 189.0855 206.7196 180 194 C176.8614 189.6059 175 184 175 184 "/>
<path id="15" d="M105 215 C105 215 96.0379 211.3318 89 206 C80.018 199.1955 79.3811 198.5166 72 190 C66.7644 183.9589 68.1914 182.2296 63 176 C53.4624 164.5548 51.2496 165.6281 42 154 C34.0811 144.0448 35.8317 141.572 28 132 C22.935 125.8094 20.5144 127.1053 15 121 C6.8652 111.9936 0 101 0 101 "/>
<path id="16" d="M527 212 C527 212 532.3544 201.9216 540 196 C581.49 163.8656 596.595 157.4838 629 133 C630.1334 132.1436 628.8529 129.5642 630 128 C633.468 123.271 640 118 640 118 "/>
<path id="17" d="M598 218 L639 216 "/>
<path id="18" d="M602 230 L641 230 "/>
<path id="19" d="M32 219 C32 219 42.5773 206.9209 50 194 C55.7066 184.0662 59 172 59 172 "/>
<path id="20" d="M57 172 C57 172 36.6167 174.0655 20 180 C10.292 183.4671 1 192 1 192 "/>
<path id="21" d="M570 211 C570 211 567.8065 195.6931 570 185 C571.2352 178.9785 577.8428 171.9263 578 172 C584.2798 174.9436 634 215 634 215 "/>
<path id="22" d="M636 213 L640 196 "/>
</g>
</g>
</svg>
