<?xml version="1.0" encoding="utf-8"?>
<!DOCTYPE svg PUBLIC "-//W3C//DTD SVG 1.1//EN" "http://www.w3.org/Graphics/SVG/1.1/DTD/svg11.dtd">
<svg viewBox="0 0 800 800" preserveAspectRatio="xMinYMin meet" xmlns="http://www.w3.org/2000/svg" version="1.1">
<g fill="none" stroke="black" stroke-linecap="round" stroke-linejoin="round" stroke-width="2.9666">
<g transform="translate(87.52,230.6136) scale(1.0113) translate(-9,-41)">
<path id="0" d="M96 218 C96 218 128.2537 218.6182 159 217 C165.4162 216.6623 165.635 214.1469 172 214 C228.9811 212.6851 231.4089 215.6455 289 214 C300.3776 213.6749 300.6363 210.2144 312 210 C405.0745 208.2439 407.4665 211.3362 501 210 C511.4138 209.8512 521.6472 206.3784 522 207 C523.5822 209.7878 524.4164 245.1413 522 247 C517.9164 250.1413 495.5226 244.9118 470 247 C441.1711 249.3587 440.7437 255.3516 412 256 C243.5961 259.7986 223.9698 256.8868 71 256 C69.2004 255.9896 66.9814 254.027 67 254 C67.6018 253.1247 76.8734 247.4568 82 240 C86.8103 233.0032 85.2131 228.1174 89 222 C90.1385 220.1609 92.156 219.5332 95 219 C99.3337 218.1874 105 219 105 219 "/>
<path id="1" d="M94 220 C94 220 119.0925 208.5035 142 194 C203.224 155.2369 206.8219 157.0782 263 113 C302.7218 81.8337 329.6834 45.8203 337 41 C337.0276 40.9818 341.52 50.3693 348 57 C362.3585 71.6924 363.1751 72.6952 380 85 C396.1454 96.8079 397.0738 96.4523 415 106 C442.9124 120.8664 444.8294 118.3247 472 134 C496.3135 148.027 498.1679 149.8846 519 166 C522.7632 168.9112 523.0254 170.3927 525 175 C527.2671 180.2899 527.5215 181.0986 528 187 C528.9771 199.0503 529.2404 205.0537 528 212 C527.8069 213.0816 523 215 523 215 "/>
<path id="2" d="M339 45 C339 45 333.3318 59.7748 324 70 C287.797 109.6693 285.7701 111.3069 245 148 C226.4184 164.7234 223.2678 161.8995 204 178 C187.1132 192.1109 172 209 172 209 "/>
<path id="3" d="M333 52 C333 52 344.7266 70.0514 360 82 C416.4389 126.1529 419.5321 126.0117 480 167 C493.565 176.1951 498.1209 174.1791 509 183 C514.0157 187.0668 512.3002 190.8903 517 197 C521.9509 203.4362 529 209 529 209 "/>
<path id="4" d="M338 78 C338 78 334.3579 125.1807 327 171 C323.4466 193.128 316 215 316 215 "/>
<path id="5" d="M75 254 C75 254 75.7125 261.4712 74 268 C60.0562 321.1608 43 376 43 376 "/>
<path id="6" d="M522 247 L519 370 "/>
<path id="7" d="M522 207 C522 207 553.0109 208.9993 583 207 C604.8609 205.5426 627 200 627 200 "/>
<path id="8" d="M512 246 L625 231 "/>
<path id="9" d="M9 232 C9 232 16.4329 228.2482 24 227 C64.0785 220.3891 106 216 106 216 "/>
<path id="10" d="M12 255 C12 255 34.8656 257.0931 57 256 C74.8485 255.1186 93 251 93 251 "/>
</g>
</g>
</svg>
