<?xml version="1.0" encoding="utf-8"?>
<!DOCTYPE svg PUBLIC "-//W3C//DTD SVG 1.1//EN" "http://www.w3.org/Graphics/SVG/1.1/DTD/svg11.dtd">
<svg viewBox="0 0 800 800" preserveAspectRatio="xMinYMin meet" xmlns="http://www.w3.org/2000/svg" version="1.1">
<g fill="none" stroke="black" stroke-linecap="round" stroke-linejoin="round" stroke-width="1.6273">
<g transform="translate(87.52,203.663) scale(1.8435) translate(-164,-188)">
<path id="0" d="M165 205 C165 205 164.4793 236.9053 165 237 C173.6314 238.5694 216.5264 224.9246 264 223 C287.2084 222.0591 288.667 229.4672 313 231 C351.3399 233.4151 352.1811 229.3213 391 231 C444.4238 233.3102 488.9646 242.0979 498 239 C499.1341 238.6112 496 195 496 195 "/>
<path id="1" d="M164 204 C164 204 217.3163 204.193 270 201 C299.4842 199.2131 299.6083 195.3189 329 194 C377.066 191.8432 378.0306 196.0413 426 194 C447.8856 193.0687 448.1119 189.9898 470 188 C480.81 187.0173 489.3002 187.6318 492 188 C492.0502 188.0068 491.7118 190.7941 492 191 C493.1336 191.8097 499 193 499 193 "/>
<path id="2" d="M167 238 C167 238 167.6569 389.3217 168 394 C168.0116 394.1579 174.2464 391.7536 178 388 C186.4456 379.5544 185.0929 376.9071 194 368 C223.6904 338.3096 224.0804 337.581 256 310 C275.2988 293.3243 277.8584 284.7089 297 279 C325.151 270.6041 338.9777 272.3142 370 276 C382.7184 277.5111 386.1521 282.2551 398 291 C405.8264 296.7766 404.2897 301.3735 412 307 C421.3173 313.7991 427.8308 311.2525 435 318 C441.6129 324.2239 439.143 329.8205 446 339 C469.492 370.4489 479.5663 380.6058 497 401 C497.2823 401.3302 498.9999 401.0045 499 401 C499.1202 394.6271 497.0331 374.1053 498 348 C498.5139 334.1259 501.3229 333.9481 502 320 C503.8023 282.8723 503 245 503 245 "/>
</g>
</g>
</svg>
