<?xml version="1.0" encoding="utf-8"?>
<!DOCTYPE svg PUBLIC "-//W3C//DTD SVG 1.1//EN" "http://www.w3.org/Graphics/SVG/1.1/DTD/svg11.dtd">
<svg viewBox="0 0 800 800" preserveAspectRatio="xMinYMin meet" xmlns="http://www.w3.org/2000/svg" version="1.1">
<g fill="none" stroke="black" stroke-linecap="round" stroke-linejoin="round" stroke-width="1.5697">
<g transform="translate(124.7883,87.52) scale(1.9112) translate(-96,-0.41667)">
<path id="0" d="M151 94.4167 C151 94.4167 154.5716 117.3932 162 134.4167 C165.4278 142.2721 169.7382 141.4187 175 149.4167 C181.9021 159.9079 182.4009 160.548 187 172.4167 C197.7056 200.0441 194.9374 204.4365 206 229.4167 C209.0972 236.4105 212.9301 235.4237 218 242.4167 C227.1877 255.0894 225.4383 257.3963 235 269.4167 C242.3898 278.7067 246.3054 277.0442 253 286.4167 C262.8978 300.2736 260.6706 304.2499 270 318.4167 C273.3662 323.5282 280 327.4167 280 327.4167 "/>
<path id="1" d="M237 51.4167 C237 51.4167 245.4045 56.3947 252 62.4167 C256.5115 66.5359 257.2485 67.0446 260 72.4167 C267.3501 86.767 264.8323 89.385 273 103.4167 C283.8292 122.0206 288.7882 121.0955 299 139.4167 C304.958 150.106 301.9246 152.5741 307 164.4167 C313.7587 180.187 316.4701 179.951 323 195.4167 C325.6404 201.6703 323.0829 203.7361 326 209.4167 C331.8595 220.8272 336.3133 220.4341 342 232.4167 C349.7502 248.7475 346.9635 251.328 354 268.4167 C357.215 276.2244 357.9347 276.6629 363 283.4167 C366.668 288.3073 367.1507 288.9529 372 292.4167 C377.1187 296.0729 384 298.4167 384 298.4167 "/>
<path id="2" d="M184 94.4167 L198 105.4167 "/>
<path id="3" d="M198 122.4167 L209 139.4167 "/>
<path id="4" d="M204 158.4167 L210 167.4167 "/>
<path id="5" d="M217 86.4167 C217 86.4167 222.0575 89.0867 224 92.4167 C228.2541 99.7095 231 110.4167 231 110.4167 "/>
<path id="6" d="M235 121.4167 L241 131.4167 "/>
<path id="7" d="M248 83.4167 L258 101.4167 "/>
<path id="8" d="M267 131.4167 C267 131.4167 272.8353 137.8236 276 144.4167 C278.4557 149.5328 279 156.4167 279 156.4167 "/>
<path id="9" d="M247 167.4167 C247 167.4167 250.6838 182.4906 250 188.4167 C249.8115 190.0499 244 193.4167 244 193.4167 "/>
<path id="10" d="M229 203.4167 C229 203.4167 231.4586 204.8526 232 206.4167 C235.3619 216.1289 238 229.4167 238 229.4167 "/>
<path id="11" d="M251 245.4167 L258 257.4167 "/>
<path id="12" d="M280 194.4167 C280 194.4167 286.3734 201.0123 290 208.4167 C298.0326 224.8166 298.3447 226.8547 304 243.4167 C304.853 245.9147 304 249.4167 304 249.4167 "/>
<path id="13" d="M277 225.4167 C277 225.4167 282.2011 232.4195 285 239.4167 C286.9202 244.217 287 250.4167 287 250.4167 "/>
<path id="14" d="M307 179.4167 C307 179.4167 316.5625 197.1446 322 214.4167 C324.6871 222.952 324.196 231.5546 324 233.4167 C323.9956 233.4584 320 233.4167 320 233.4167 "/>
<path id="15" d="M285 266.4167 C285 266.4167 288.7555 271.1855 290 275.4167 C290.9508 278.6495 290.8222 281.1556 290 283.4167 C289.5422 284.6756 286 286.4167 286 286.4167 "/>
<path id="16" d="M316 252.4167 C316 252.4167 323.9791 263.5752 326 272.4167 C327.3188 278.1863 324 287.4167 324 287.4167 "/>
<path id="17" d="M293 291.4167 L295 298.4167 "/>
<path id="18" d="M134 79.4167 L140 120.4167 "/>
<path id="19" d="M136 82.4167 C136 82.4167 132.9556 70.0181 128 60.4167 C125.51 55.5923 122.9122 56.345 120 51.4167 C110.3184 35.0324 110.1923 30.1946 102 16.4167 C101.2152 15.0967 98 14.4167 98 14.4167 "/>
<path id="20" d="M98 12.4167 L96 51.4167 "/>
<path id="21" d="M96 51.4167 C96 51.4167 95.2534 54.1532 96 55.4167 C111.8743 82.2808 135 117.4167 135 117.4167 "/>
<path id="22" d="M135 115.4167 L136 115.4167 "/>
<path id="23" d="M134 116.4167 L140 118.4167 "/>
<path id="24" d="M135 79.4167 C135 79.4167 149.5976 78.8778 162 75.4167 C170.0426 73.1722 170.538 70.2593 178 67.4167 C179.9588 66.6705 181.4791 68.0926 183 67.4167 C184.7575 66.6355 185.058 63.9524 187 63.4167 C196.9331 60.6765 199.8086 62.0527 212 59.4167 C218.0639 58.1056 221.5746 56.6294 224 55.4167 C224.1732 55.33 223.9073 53.4422 224 53.4167 C229.15 51.996 247.5532 45.9833 253 47.4167 C255.6241 48.1072 257.1357 56.4676 262 63.4167 C263.636 65.7538 265.6732 65.2053 267 67.4167 C269.5399 71.6499 271 78.4167 271 78.4167 "/>
<path id="25" d="M103 13.4167 C103 13.4167 111.6428 16.9587 120 17.4167 C147.179 18.9059 148.204 18.5995 176 17.4167 C194.9461 16.6105 200.813 15.9898 214 13.4167 C215.2855 13.1658 215.752 9.8327 217 9.4167 C219.592 8.5527 221.9676 10.3472 226 9.4167 C234.2371 7.5158 243 3.4167 243 3.4167 "/>
<path id="26" d="M245 3.4167 C245 3.4167 250.677 16.2207 253 28.4167 C254.4889 36.2335 253 45.4167 253 45.4167 "/>
<path id="27" d="M249 3.4167 C249 3.4167 254.2792 4.3518 256 6.4167 C260.2207 11.4816 259.9922 15.739 264 21.4167 C264.9363 22.7431 268 23.4167 268 23.4167 "/>
<path id="28" d="M268 23.4167 C268 23.4167 267.8201 39.4691 270 54.4167 C271.2351 62.8857 275.013 71.3735 275 71.4167 C274.9962 71.4295 267 64.4167 267 64.4167 "/>
<path id="29" d="M242 4.4167 L256 6.4167 "/>
<path id="30" d="M146 77.4167 L157 101.4167 "/>
<path id="31" d="M133 15.4167 L133 0.41667 "/>
<path id="32" d="M216 12.4167 L210 0.41667 "/>
<path id="33" d="M177 5.4167 L184 12.4167 "/>
<path id="34" d="M194 1.4167 C194 1.4167 199.4118 4.5409 202 7.4167 C202.9608 8.4842 203 11.4167 203 11.4167 "/>
<path id="35" d="M164 2.4167 L168 9.4167 "/>
<path id="36" d="M117 17.4167 C117 17.4167 122.0456 18.3064 125 20.4167 C128.2041 22.7053 129.6254 23.7052 131 27.4167 C138.7786 48.4188 145 74.4167 145 74.4167 "/>
<path id="37" d="M141 17.4167 C141 17.4167 148.089 22.1768 151 27.4167 C154.7012 34.0787 154.7749 36.0859 156 44.4167 C157.1743 52.4021 154.8303 53.8134 156 61.4167 C156.6616 65.7171 159.9999 70.4164 160 70.4167 C160 70.4168 158 67.4167 158 67.4167 "/>
<path id="38" d="M158 18.4167 C158 18.4167 161.744 18.2887 164 19.4167 C166.9502 20.8918 168.1291 21.7142 170 24.4167 C172.0596 27.3916 172.1352 28.3519 173 32.4167 C177.0537 51.4689 176.7943 52.1823 180 71.4167 C180.2394 72.8533 180.01 74.4234 180 74.4167 C179.9465 74.381 174 67.4167 174 67.4167 "/>
<path id="39" d="M181 17.4167 C181 17.4167 184.8789 19.7669 186 22.4167 C189.7086 31.1824 189.4457 32.8803 192 43.4167 C193.4202 49.275 193.2997 49.4644 194 55.4167 C194.2862 57.8491 194.0088 60.4079 194 60.4167 C193.9982 60.4184 192 57.4167 192 57.4167 "/>
<path id="40" d="M197 14.4167 C197 14.4167 205.4293 33.3068 211 50.4167 C211.9615 53.3697 211.0045 57.4099 211 57.4167 C210.9983 57.4192 209 53.4167 209 53.4167 "/>
<path id="41" d="M214 14.4167 C214 14.4167 219.2423 24.9374 222 35.4167 C224.0918 43.3657 224 52.4167 224 52.4167 "/>
<path id="42" d="M229 10.4167 C229 10.4167 232.9934 11.044 234 12.4167 C237.091 16.6316 238.7688 18.9873 240 25.4167 C243.0085 41.1276 243.0791 58.1503 243 59.4167 C242.996 59.4799 238 57.4167 238 57.4167 "/>
</g>
</g>
</svg>
