<?xml version="1.0" encoding="utf-8"?>
<!DOCTYPE svg PUBLIC "-//W3C//DTD SVG 1.1//EN" "http://www.w3.org/Graphics/SVG/1.1/DTD/svg11.dtd">
<svg viewBox="0 0 800 800" preserveAspectRatio="xMinYMin meet" xmlns="http://www.w3.org/2000/svg" version="1.1">
<g fill="none" stroke="black" stroke-linecap="round" stroke-linejoin="round" stroke-width="2.4194">
<g transform="translate(87.52,318.78) scale(1.24) translate(-53,-153.9167)">
<path id="0" d="M61 269.9167 C61 269.9167 73.1655 273.8227 85 273.9167 C197.2718 274.8077 313 271.9167 313 271.9167 "/>
<path id="1" d="M59 269.9167 C59 269.9167 56.8701 260.543 59 253.9167 C65.0949 234.9548 65.9403 231.2962 77 213.9167 C85.8712 199.9762 88.5717 199.9899 101 187.9167 C105.7363 183.3157 106.1658 182.8338 112 179.9167 C125.6131 173.1101 126.6809 170.8589 141 167.9167 C161.3035 163.7447 164.7081 163.2488 185 164.9167 C198.7926 166.0503 201.0202 167.5266 214 173.9167 C232.3737 182.9622 233.2228 184.5906 250 196.9167 C257.1523 202.1714 258.301 203.8751 263 209.9167 C264.1747 211.4271 262.7805 213.6972 264 214.9167 C280.2597 231.1763 287.2886 233.1657 306 252.9167 C313.3048 260.6273 318 271.9167 318 271.9167 "/>
<path id="2" d="M64 273.9167 C64 273.9167 56.4596 266.0718 54 258.9167 C51.6863 252.186 50.965 248.5645 53 241.9167 C57.498 227.2233 60.098 224.2969 69 209.9167 C72.4394 204.3607 73.41 203.6082 79 199.9167 C99.035 186.686 100.3898 184.0157 122 174.9167 C136.513 168.8059 138.6816 169.8861 155 167.9167 C167.0538 166.4619 167.6258 167.3131 180 167.9167 C187.9678 168.3053 188.4552 167.9766 196 169.9167 C205.5028 172.3602 205.8767 172.7416 215 176.9167 C235.1966 186.1592 235.8042 185.9073 255 196.9167 C269.5066 205.2366 270.6078 205.0981 283 215.9167 C301.4625 232.0348 302.1374 234.0204 318 251.9167 C320.7325 254.9995 321.2775 256.1236 322 259.9167 C323.0719 265.5444 322.0805 272.4335 322 272.9167 C321.9959 272.9414 320 271.9163 320 271.9167 C320 271.9173 322 273.7998 322 273.9167 C322 273.9751 319.9973 274.9166 320 274.9167 C320.0487 274.9181 338.0875 275.9962 355 274.9167 C360.8911 274.5406 361.1337 272.1237 367 271.9167 C402.3743 270.6682 403.7264 270.6326 440 271.9167 C459.9463 272.6227 460.242 274.819 480 275.9167 C486.8498 276.2972 487.3428 274.4412 494 274.9167 C500.7937 275.4019 501.0951 277.54 508 277.9167 C527.988 279.0069 549 277.9167 549 277.9167 "/>
<path id="3" d="M328 274.9167 C328 274.9167 321.2702 264.0064 319 253.9167 C317.1267 245.5908 319.9553 243.8331 319 234.9167 C318.5313 230.5423 316.2197 230.2013 316 225.9167 C315.2811 211.8987 314.5558 209.7673 317 195.9167 C318.8153 185.63 319.8317 183.6212 325 174.9167 C328.5187 168.9904 330.1428 167.2113 336 163.9167 C344.4982 159.1364 346.4513 159.3699 357 156.9167 C367.5812 154.4559 368.0521 154.5138 379 153.9167 C395.3005 153.0276 395.9469 152.3114 412 153.9167 C430.3395 155.7506 431.6995 155.294 449 160.9167 C470.6614 167.9566 471.7661 169.0447 492 179.9167 C504.6001 186.6869 505.1586 187.4893 516 196.9167 C527.7408 207.1261 530.0908 207.6135 538 219.9167 C546.9435 233.8287 546.253 236.2807 552 252.9167 C555.6039 263.3491 557.8677 270.8673 557 274.9167 C556.6535 276.5337 549.3214 278.1489 546 280.9167 C545.1005 281.6663 545 284.9167 545 284.9167 "/>
</g>
</g>
</svg>
