<?xml version="1.0" encoding="utf-8"?>
<!DOCTYPE svg PUBLIC "-//W3C//DTD SVG 1.1//EN" "http://www.w3.org/Graphics/SVG/1.1/DTD/svg11.dtd">
<svg viewBox="0 0 800 800" preserveAspectRatio="xMinYMin meet" xmlns="http://www.w3.org/2000/svg" version="1.1">
<g fill="none" stroke="black" stroke-linecap="round" stroke-linejoin="round" stroke-width="2.7746">
<g transform="translate(87.52,308.0941) scale(1.0812) translate(-33,-178)">
<path id="0" d="M85 341 C85 341 82.9258 327.8165 84 316 C84.839 306.7711 85.7318 306.0505 89 297 C92.1242 288.3482 92.0446 287.1854 97 280 C101.4622 273.5299 102.5066 273.0271 109 268 C117.6283 261.32 118.2271 261.0185 128 256 C136.3872 251.693 137.5933 249.8943 146 249 C158.9107 247.6265 160.9591 248.9088 175 251 C183.9833 252.3379 184.6617 252.7243 193 256 C198.1611 258.0276 198.6215 258.4972 203 262 C208.3252 266.2601 210.3925 266.5153 213 272 C223.6096 294.3167 223.8046 298.004 232 323 C233.479 327.5109 232.7149 332.7149 233 333 C233.0778 333.0778 238.0393 331.7934 239 330 C243.6104 321.3939 241.7037 315.8909 248 305 C259.5046 285.1001 261.5945 283.4382 276 266 C279.5384 261.7167 280.7543 261.448 286 259 C295.1998 254.7068 296.4112 252.7775 306 252 C331.1377 249.9618 337.0907 248.4181 360 253 C372.2578 255.4516 377.225 259.4687 386 268 C392.3665 274.1897 392.6274 277.7289 396 288 C403.3787 310.4714 407.9919 334.9763 408 335 C408.0014 335.004 407.414 329.7318 409 326 C415.3609 311.0332 418.9825 309.2917 425 295 C426.1162 292.349 424.0743 290.7771 425 288 C426.7192 282.8425 427.2367 281.5473 431 277 C438.7541 267.6305 439.5001 264.6999 449 259 C459.6874 252.5876 463.2811 251.1924 476 250 C492.773 248.4275 499.0748 247.4709 513 253 C527.7777 258.8676 534.6945 264.0992 544 277 C553.3088 289.9053 550.2213 297.6514 557 314 C557.9049 316.1823 560.3619 316.2451 561 318 C561.819 320.2521 561 325 561 325 "/>
<path id="1" d="M62 210 C62 210 73.0015 208.2106 83 209 C91.2755 209.6533 91.6573 212.6487 100 213 C137.903 214.5959 139.1737 211.7674 178 213 C201.9563 213.7605 202.0416 216.0696 226 217 C253.3638 218.0627 256.3549 216.1646 281 217 C282.8227 217.0618 283.1997 218.9882 285 219 C419.5762 219.8854 526.5601 209.5082 585 219 C589.3408 219.705 592.9886 244.3358 599 270 C605.9563 299.698 611 330 611 330 "/>
<path id="2" d="M60 210 C60 210 58.7446 228.0003 55 244 C53.4664 250.5528 50.2426 250.787 49 257 C47.5124 264.4381 50.3729 266.22 49 274 C47.5415 282.2646 44.6517 282.7417 43 291 C41.8202 296.8988 43.9092 298.5448 43 304 C42.6153 306.308 40.4491 306.5748 40 309 C38.1916 318.7656 39.9071 320.3745 38 331 C36.4734 339.5052 33 348 33 348 "/>
<path id="3" d="M59 210 L59 180 "/>
<path id="4" d="M587 217 L586 195 "/>
<path id="5" d="M587 194 L587 180 "/>
<path id="6" d="M61 178 L593 180 "/>
</g>
</g>
</svg>
