<?xml version="1.0" encoding="utf-8"?>
<!DOCTYPE svg PUBLIC "-//W3C//DTD SVG 1.1//EN" "http://www.w3.org/Graphics/SVG/1.1/DTD/svg11.dtd">
<svg viewBox="0 0 800 800" preserveAspectRatio="xMinYMin meet" xmlns="http://www.w3.org/2000/svg" version="1.1">
<g fill="none" stroke="black" stroke-linecap="round" stroke-linejoin="round" stroke-width="1.2961">
<g transform="translate(87.52,151.1733) scale(2.3147) translate(-148,-146)">
<path id="0" d="M316 230 C316 230 301.6191 222.9863 289 214 C268.926 199.7049 269.0417 198.8005 250 183 C245.6934 179.4264 244.8937 179.4611 242 175 C233.3605 161.6807 226 146 226 146 "/>
<path id="1" d="M229 146 C229 146 225.9699 148.9937 226 149 C226.2821 149.0594 238.5107 147.0177 248 150 C271.219 157.2974 273.0187 159.5093 296 171 C304.4461 175.2231 305.5192 175.5192 312 182 C323.7615 193.7615 324.4249 195.8342 334 209 C335.66 211.2824 336 215 336 215 "/>
<path id="2" d="M336 213 C336 213 345.3725 206.972 354 205 C361.3967 203.3093 363.4265 203.2275 371 205 C385.512 208.3964 388.4216 208.7741 401 216 C410.0709 221.2109 418 232 418 232 "/>
<path id="3" d="M418 231 C418 231 417.6303 234.7875 416 237 C411.2355 243.4661 410.2302 245.3951 404 250 C399.9761 252.9742 398.3735 253.3894 393 254 C377.4659 255.7652 360 255 360 255 "/>
<path id="4" d="M366 215 L373 216 "/>
<path id="5" d="M200 242 C200 242 206.138 244.8168 212 245 C252.7156 246.2724 256.2291 247.0086 296 245 C303.2215 244.6353 304.6967 243.4143 311 240 C315.746 237.4292 320 232 320 232 "/>
<path id="6" d="M175 254 C175 254 169.5296 255.1146 166 254 C161.3352 252.5269 159.7965 251.5731 156 248 C152.018 244.2522 150.5292 242.7786 149 238 C147.086 232.0189 147.1639 228.853 148 223 C148.3698 220.4112 149.6123 219.0466 152 217 C155.9547 213.6103 157.3299 212.2183 162 211 C167.2495 209.6306 169.7505 209.6306 175 211 C179.6701 212.2183 181.0124 213.544 185 217 C187.9033 219.5162 189.0911 220.6675 190 224 C191.6597 230.0854 189.7624 233.4306 191 239 C191.2981 240.3415 192.5903 241.5662 194 242 C197.704 243.1397 204 243 204 243 "/>
<path id="7" d="M175 252 C175 252 172 255.9042 172 259 C172 274.0366 171.5395 278.5288 175 293 C176.3868 298.7994 178.4364 301.7403 183 305 C190.0814 310.0581 203 313 203 313 "/>
<path id="8" d="M203 313 C203 313 198.1519 318.6961 197 321 C196.8429 321.3142 197.2969 322.4803 198 323 C207.3867 329.938 210.8188 329.6795 220 338 C225.8521 343.3035 226.3667 345.0362 230 352 C231.8989 355.6395 232 361 232 361 "/>
<path id="9" d="M232 361 C232 361 236.8893 360.3597 237 360 C237.5098 358.3431 237.9418 352.4132 236 348 C233.284 341.8272 231.6794 340.0484 226 335 C218.9446 328.7286 209 324 209 324 "/>
<path id="10" d="M211 323 C211 323 216.7399 327.0259 222 328 C229.057 329.3069 234.1539 330.2546 238 328 C243.5205 324.7638 247.7104 318.989 251 311 C253.5624 304.777 252 294 252 294 "/>
<path id="11" d="M254 308 C254 308 263.0783 309.3311 270 308 C274.742 307.0881 280 303 280 303 "/>
<path id="12" d="M282 301 C282 301 278.4328 317.5179 279 318 C280.1394 318.9685 293.0878 320.097 302 318 C306.9918 316.8255 313 310 313 310 "/>
<path id="13" d="M361 254 C361 254 364.533 274.8966 363 289 C362.4817 293.7687 359.9911 295.4767 356 300 C352.9656 303.4389 351.615 305.3975 348 306 C334.2765 308.2872 321.6795 305.132 314 307 C312.8908 307.2698 311 315 311 315 "/>
<path id="14" d="M228 329 C228 329 235.9022 332.8404 242 338 C248.4884 343.4902 252.6897 349.0345 254 351 C254.0416 351.0624 252.7883 352.9283 252 353 C244.7742 353.6569 232 353 232 353 "/>
</g>
</g>
</svg>
