<?xml version="1.0" encoding="utf-8"?>
<!DOCTYPE svg PUBLIC "-//W3C//DTD SVG 1.1//EN" "http://www.w3.org/Graphics/SVG/1.1/DTD/svg11.dtd">
<svg viewBox="0 0 800 800" preserveAspectRatio="xMinYMin meet" xmlns="http://www.w3.org/2000/svg" version="1.1">
<g fill="none" stroke="black" stroke-linecap="round" stroke-linejoin="round" stroke-width="2.2561">
<g transform="translate(87.52,175.2803) scale(1.3297) translate(-26,-33)">
<path id="0" d="M42 301 C42 301 38.6338 300.2188 38 299 C33.7004 290.7315 31.7579 287.4914 29 276 C25.9614 263.3394 24.6994 258.8842 26 249 C26.5892 244.5223 29.5762 241.9323 34 238 C37.5943 234.805 38.9754 234.2967 44 233 C53.6902 230.4993 61.9392 229.1073 65 230 C65.8999 230.2625 67.9575 239.915 68 240 C68.0055 240.0111 68.6236 238.0706 69 238 C73.1579 237.2204 79.6259 235.9065 84 237 C85.9276 237.4819 87.2298 242.7277 89 243 C95.1843 243.9514 100.6674 239.7556 110 241 C121.2832 242.5044 123.7836 244.2323 134 249 C137.2418 250.5128 138.7846 252.3665 140 255 C140.9702 257.1021 140.819 259.7479 140 262 C139.3619 263.7549 138.1877 264.8418 136 266 C130.4045 268.9623 124.0619 268.8762 123 271 C121.0608 274.8783 124.9955 284.5169 123 292 C121.9421 295.9673 118.9366 299.2504 115 301 C108.3296 303.9646 104.4407 301.3805 96 304 C90.9765 305.559 90.6207 309.2079 86 310 C75.5257 311.7956 70.8718 312.4679 61 310 C54.0897 308.2724 46 300 46 300 "/>
<path id="1" d="M85 238 C85 238 90.0391 220.8709 97 205 C102.4034 192.6802 102.2075 191.6434 110 181 C122.2057 164.3289 123.9808 162.3003 138 149 C141.782 145.412 143.4729 145.3399 149 144 C159.2861 141.5064 160.0603 141.4102 171 141 C199.6943 139.924 200.3623 139.8986 229 141 C238.932 141.382 239.1205 142.0723 249 144 C259.5468 146.0579 261.4062 144.5312 270 149 C284.5366 156.559 292.7155 168.8828 299 170 C301.6281 170.4672 306.602 162.187 315 157 C323.0177 152.0479 324.2684 150.5717 333 149 C347.4539 146.3983 350.524 147.2576 365 148 C368.2414 148.1662 372.0016 151.0954 372 151 C371.9678 149.0354 366.2905 118.7392 364 87 C362.8321 70.8163 363.4718 68.8999 365 54 C365.2912 51.1608 365.9955 50.0045 368 48 C372.2318 43.7682 373.3682 43.7545 379 40 C383.8273 36.7818 384.0782 36.0266 389 34 C391.9252 32.7955 395.2536 32.378 396 33 C397.7147 34.4289 400.33 38.6402 401 44 C404.5444 72.3553 403.6153 74.5376 405 105 C405.6111 118.4433 406.3008 119.3173 405 132 C404.4021 137.8295 400.998 144.0024 401 144 C401.0109 143.9871 418.6754 117.5009 438 93 C446.4318 82.3096 447.1319 80.7749 457 73 C462.3169 68.8109 464.2765 68.1865 471 67 C479.9297 65.4242 484.7879 65.9196 491 67 C492.1479 67.1996 493.5618 69.072 494 71 C495.7272 78.5998 496.7969 81.562 496 89 C495.5279 93.4061 494.1454 94.7444 491 99 C485.9773 105.7954 485.5218 106.1739 479 112 C448.2766 139.4462 419.8858 161.3669 416 166 C415.9554 166.0532 423.6318 169.2596 427 174 C435.8099 186.3991 438.4848 189.89 443 204 C445.5713 212.0353 445.0558 215.3657 443 224 C440.4939 234.5256 438.9935 238.1824 433 246 C429.3702 250.7345 426.1284 252.7465 420 254 C406.9343 256.6725 402.8073 257.6014 389 255 C370.7895 251.569 351 241 351 241 "/>
<path id="2" d="M345 234 C345 234 352.8564 240.7478 355 247 C357.96 255.6335 358.2666 259.8802 357 269 C356.127 275.2859 354.0895 276.8658 350 283 C347.4441 286.8339 342.9906 289.991 343 290 C344.0367 290.9849 359.8181 295.7595 370 302 C372.457 303.5059 374.3428 308.4287 374 309 C372.3159 311.8069 366.2483 317.2106 358 322 C351.729 325.6412 350.3108 325.6945 343 327 C337.02 328.0679 331.5874 327.2442 330 327 C329.9624 326.9942 330.1784 325.085 330 325 C325.3518 322.7866 317.4257 322.1642 309 317 C303.5542 313.6623 299 306 299 306 "/>
<path id="3" d="M300 309 C300 309 286.4261 312.1475 273 313 C255.2653 314.126 241.4862 313.2492 237 313 C236.9862 312.9992 237.1657 311.0829 237 311 C235.0941 310.0471 229.4325 309.8244 227 308 C225.7093 307.032 225 302 225 302 "/>
<path id="4" d="M201 220 C201 220 205.6606 219.2982 208 220 C209.3034 220.391 210.0682 221.3227 211 223 C214.7717 229.789 216.7797 230.8526 218 238 C219.9591 249.4745 219.8185 251.6747 218 264 C215.4592 281.2213 212.165 282.7795 209 299 C208.5002 301.5617 208.6996 303.4209 210 305 C214.1367 310.0232 216.1542 312.2659 223 316 C231.5818 320.681 233.4364 318.7305 243 323 C261.2115 331.1301 261.879 330.9448 279 341 C293.0283 349.2388 296.3531 351.3511 306 360 C307.813 361.6255 308.4004 366.4494 308 367 C307.186 368.1193 302.8061 370.3992 298 371 C287.93 372.2587 285.9697 372.9939 276 371 C262.4049 368.281 260.3541 367.9957 248 361 C220.1258 345.2158 221.1823 341.0157 193 324 C168.4754 309.1927 162.198 311.8329 142 297 C134.1044 291.2017 129 277 129 277 "/>
<path id="5" d="M228 305 L213 306 "/>
<path id="6" d="M254 312 C254 312 258.5869 311.1018 262 312 C267.2544 313.3827 267.5645 314.376 273 317 C282.0545 321.3712 282.8149 320.8464 291 326 C295.8547 329.0567 298.1723 330.5477 300 334 C301.2887 336.4341 301.2749 340.1315 300 343 C298.2215 347.0017 292 352 292 352 "/>
<path id="7" d="M355 285 C355 285 364.8123 285.2886 372 287 C373.9389 287.4616 375.4326 288.7233 376 290 C376.7126 291.6033 376.9415 294.3523 376 296 C374.0273 299.4522 368 304 368 304 "/>
<path id="8" d="M389 191 C389 191 395.1945 190.2778 397 191 C397.8125 191.325 399.1051 194.8949 399 195 C398.2643 195.7357 393.8238 197.928 389 199 C385.456 199.7876 381.9386 199.6258 381 199 C380.4133 198.6089 379.6875 193.4375 380 193 C380.3125 192.5625 385.5549 191.8516 386 192 C386.0786 192.0262 386.2895 194.7105 386 195 C385.5175 195.4825 382.0055 196.0139 382 196 C381.9519 195.8798 382.8941 190.9677 384 190 C385.0487 189.0823 389.9765 188.9941 390 189 C390.0061 189.0015 387.9886 190.9857 388 191 C388.2224 191.278 393.9614 193.9485 394 194 C394.0064 194.0086 391 195 391 195 "/>
<path id="9" d="M429 252 C429 252 424.7082 253.0416 422 252 C413.1612 248.6005 411.1285 247.8061 403 242 C397.9808 238.4148 396.6382 236.7487 394 232 C392.4953 229.2915 393 224 393 224 "/>
<path id="10" d="M445 223 L438 223 "/>
<path id="11" d="M439 223 C439 223 443.6182 224.0679 447 223 C461.2836 218.4894 477 211 477 211 "/>
<path id="12" d="M443 226 L471 237 "/>
<path id="13" d="M445 223 L413 206 "/>
<path id="14" d="M440 222 L419 231 "/>
<path id="15" d="M392 132 C392 132 387.5737 122.593 385 113 C382.1557 102.3984 382.1793 101.9085 381 91 C380.2114 83.7057 379.7819 80.6288 381 76 C381.4317 74.3596 385.989 71.9313 386 72 C386.187 73.169 389 126 389 126 "/>
<path id="16" d="M421 136 C421 136 434.2376 128.2676 445 119 C451.7004 113.2302 450.5554 110.1557 457 105 C461.9446 101.0444 469.456 99.4896 470 99 C470.0089 98.992 468.2946 96.3531 467 96 C464.2875 95.2602 461.9801 94.7669 459 96 C449.3276 100.0024 447.2352 101.3125 438 108 C433.4843 111.27 432.8003 112.1995 430 117 C426.2093 123.4983 424 132 424 132 "/>
</g>
</g>
</svg>
