<?xml version="1.0" encoding="utf-8"?>
<!DOCTYPE svg PUBLIC "-//W3C//DTD SVG 1.1//EN" "http://www.w3.org/Graphics/SVG/1.1/DTD/svg11.dtd">
<svg viewBox="0 0 800 800" preserveAspectRatio="xMinYMin meet" xmlns="http://www.w3.org/2000/svg" version="1.1">
<g fill="none" stroke="black" stroke-linecap="round" stroke-linejoin="round" stroke-width="1.6897">
<g transform="translate(87.52,274.8305) scale(1.7755) translate(-123,-284.1333)">
<path id="0" d="M123 300.1333 C123 300.1333 129.2484 323.7447 132 347.1333 C134.1824 365.6839 131.2177 366.9539 133 385.1333 C133.6265 391.5237 136.0915 391.7741 137 398.1333 C138.0041 405.1619 137 413.1333 137 413.1333 "/>
<path id="1" d="M125 298.1333 C125 298.1333 126.214 300.065 127 300.1333 C134.5924 300.7935 138.0702 301.8318 148 300.1333 C175.0581 295.505 175.5887 291.0146 203 287.1333 C231.1752 283.1439 234.7316 280.9811 261 284.1333 C280.9611 286.5287 284.6258 290.8837 303 299.1333 C306.8241 300.8503 306.1693 303.8016 310 306.1333 C316.8922 310.3286 325.8778 313.0581 326 313.1333 C326.0143 313.1422 323 314.1333 323 314.1333 "/>
<path id="2" d="M140 415.1333 C140 415.1333 145.8466 422.013 151 423.1333 C165.3344 426.2495 169.4243 426.2571 186 425.1333 C197.6038 424.3466 198.2033 421.1556 210 419.1333 C215.1846 418.2445 216.0214 420.3319 221 419.1333 C241.8784 414.107 244.795 413.4312 264 406.1333 C267.7176 404.7206 267.6161 401.7125 271 400.1333 C273.9235 398.769 276.5548 400.5306 279 399.1333 C281.8527 397.5032 281.6766 394.6259 285 392.1333 C289.062 389.0869 291.7321 390.588 295 387.1333 C307.5768 373.8378 308.901 370.989 320 355.1333 C322.2646 351.8981 323 347.1333 323 347.1333 "/>
<path id="3" d="M324 352.1333 C324 352.1333 326.3064 339.0812 326 327.1333 C325.8271 320.392 323 313.1333 323 313.1333 "/>
<path id="4" d="M326 312.1333 C326 312.1333 331.7454 313.611 337 313.1333 C353.114 311.6684 353.8723 311.6909 370 308.1333 C387.5951 304.2521 387.5321 300.8207 405 298.1333 C432.066 293.9693 435.9389 293.7648 461 294.1333 C466.4088 294.2129 471.2218 296.593 473 299.1333 C475.1763 302.2424 476.3863 312.3092 475 314.1333 C472.3302 317.6462 464.6427 321.4727 454 324.1333 C426.1478 331.0964 422.9221 327.3318 395 334.1333 C385.3683 336.4795 385.6097 340.827 376 343.1333 C349.5868 349.4725 320 352.1333 320 352.1333 "/>
<path id="5" d="M147 327.1333 C147 327.1333 158.1752 325.4083 168 322.1333 C172.6234 320.5922 172.4108 318.3571 177 317.1333 C193.817 312.6488 194.971 313.4386 213 310.1333 C224.9602 307.9406 225.1863 306.9038 237 306.1333 C247.681 305.4367 259 307.1333 259 307.1333 "/>
<path id="6" d="M161 401.1333 C161 401.1333 182.1733 403.5023 201 400.1333 C228.113 395.2815 244.8688 387.7763 256 384.1333 C256.121 384.0937 255.8305 382.2104 256 382.1333 C260.7812 379.9601 269.7928 379.8784 278 374.1333 C287.5156 367.4724 289.4898 364.3233 296 354.1333 C299.967 347.9241 299.6041 345.9504 301 338.1333 C301.9916 332.5804 301 326.1333 301 326.1333 "/>
<path id="7" d="M143 346.1333 C143 346.1333 148.2001 348.3049 149 350.1333 C150.5018 353.5659 148.6845 356.4957 150 362.1333 C152.0861 371.0737 156 380.1333 156 380.1333 "/>
</g>
</g>
</svg>
