<?xml version="1.0" encoding="utf-8"?>
<!DOCTYPE svg PUBLIC "-//W3C//DTD SVG 1.1//EN" "http://www.w3.org/Graphics/SVG/1.1/DTD/svg11.dtd">
<svg viewBox="0 0 800 800" preserveAspectRatio="xMinYMin meet" xmlns="http://www.w3.org/2000/svg" version="1.1">
<g fill="none" stroke="black" stroke-linecap="round" stroke-linejoin="round" stroke-width="1.3105">
<g transform="translate(296.9846,87.52) scale(2.2892) translate(-274,-44)">
<path id="0" d="M304 63 C304 63 302.7687 84.3093 304 85 C308.1466 87.3262 341.4969 88.136 345 86 C346.375 85.1616 346.5347 60.8953 345 60 C340.0248 57.0978 297 58 297 58 "/>
<path id="1" d="M294 47 C294 47 291.8766 86.3998 293 93 C293.0621 93.3646 298.396 92.6485 302 94 C305.4118 95.2794 309 99 309 99 "/>
<path id="2" d="M299 46 C299 46 304.1392 44 309 44 C333.3039 44 347.9995 42.7999 359 46 C360.9731 46.574 363.455 53.3237 364 60 C365.3208 76.1801 366.074 91.2739 363 95 C360.3057 98.2658 333.693 96.8862 331 100 C328.3627 103.0494 332.4326 116.528 331 132 C329.9944 142.8608 327.1847 142.9732 326 154 C320.7507 202.8586 318 253 318 253 "/>
<path id="3" d="M309 97 C309 97 304.4153 229.0771 300 248 C299.8539 248.6262 274 247 274 247 "/>
<path id="4" d="M319 253 C319 253 319.9406 250.4362 321 250 C326.4511 247.7554 328.9936 246.4832 336 246 C342.358 245.5615 350 248 350 248 "/>
<path id="5" d="M275 247 C275 247 279.4707 273.4192 286 298 C287.7671 304.6527 288.2909 306.5954 292 311 C294.963 314.5185 297.7404 316.3447 302 317 C308.1195 317.9415 311.7168 317.6349 318 315 C325.3184 311.931 327.5578 310.152 333 304 C337.9505 298.4037 338.1803 296.7542 341 289 C347.9849 269.7916 353 249 353 249 "/>
</g>
</g>
</svg>
