<?xml version="1.0" encoding="utf-8"?>
<!DOCTYPE svg PUBLIC "-//W3C//DTD SVG 1.1//EN" "http://www.w3.org/Graphics/SVG/1.1/DTD/svg11.dtd">
<svg viewBox="0 0 800 800" preserveAspectRatio="xMinYMin meet" xmlns="http://www.w3.org/2000/svg" version="1.1">
<g fill="none" stroke="black" stroke-linecap="round" stroke-linejoin="round" stroke-width="2.0833">
<g transform="translate(87.52,313.6) scale(1.44) translate(-125,-195.1333)">
<path id="0" d="M161 234.1333 C161 234.1333 221.1954 243.6415 281 246.1333 C352.447 249.1103 409.4923 243.3982 425 245.1333 C425.0972 245.1442 424.6042 261.99 424 262.1333 C417.1244 263.7648 394.9768 259.5473 366 259.1333 C290.1169 258.0493 288.3378 260.8722 214 259.1333 C204.662 258.9149 204.4982 256.0832 195 255.1333 C169.8836 252.6217 152.994 250.8009 144 252.1333 C143.1764 252.2553 142.4357 262.0053 141 263.1333 C139.6436 264.1991 132.8856 264.3958 130 263.1333 C127.885 262.208 125.3241 259.1316 125 256.1333 C123.7151 244.2477 124.5348 240.419 126 226.1333 C126.453 221.7162 127.6624 217.9359 129 217.1333 C130.9108 215.9869 140.4701 216.3589 141 217.1333 C142.2704 218.9901 140.6344 235.0522 142 236.1333 C143.958 237.6834 165 236.1333 165 236.1333 "/>
<path id="1" d="M427 246.1333 C427 246.1333 428.1689 223.7601 431 203.1333 C431.5468 199.1491 432.7804 195.6212 434 195.1333 C437.3442 193.7957 442.6756 194.2307 451 195.1333 C483.796 198.6895 484.6092 198.4838 517 204.1333 C527.089 205.893 529.7604 205.6086 537 210.1333 C543.3251 214.0865 544.8934 216.7024 549 224.1333 C554.767 234.5689 555.8213 236.3683 558 248.1333 C560.5623 261.9696 561.3289 265.7123 559 278.1333 C557.4474 286.414 554.8302 291.2141 549 296.1333 C542.1499 301.9131 538.1088 302.3561 527 305.1333 C508.9052 309.657 508.0173 309.4045 489 311.1333 C453.2978 314.379 426.0464 316.3726 417 315.1333 C416.6306 315.0827 414.7676 307.2951 416 301.1333 C418.9469 286.3986 422.8085 284.6724 426 270.1333 C426.9403 265.8496 425 260.1333 425 260.1333 "/>
<path id="2" d="M428 273.1333 C428 273.1333 445.8163 274.2983 463 273.1333 C474.9163 272.3254 475.6941 271.7714 487 269.1333 C490.0381 268.4244 490.8804 268.0602 493 266.1333 C495.7598 263.6244 497.1727 262.4425 498 259.1333 C499.7298 252.2142 500.5778 244.0267 499 242.1333 C496.6089 239.2641 488.2556 236.1719 478 235.1333 C450.552 232.3538 420 234.1333 420 234.1333 "/>
</g>
</g>
</svg>
