<?xml version="1.0" encoding="utf-8"?>
<!DOCTYPE svg PUBLIC "-//W3C//DTD SVG 1.1//EN" "http://www.w3.org/Graphics/SVG/1.1/DTD/svg11.dtd">
<svg viewBox="0 0 800 800" preserveAspectRatio="xMinYMin meet" xmlns="http://www.w3.org/2000/svg" version="1.1">
<g fill="none" stroke="black" stroke-linecap="round" stroke-linejoin="round" stroke-width="2.1361">
<g transform="translate(87.52,151.4204) scale(1.4044) translate(-72,-21)">
<path id="0" d="M431 228 C431 228 391.2236 257.6847 353 288 C348.0882 291.8955 346.1889 293.1086 344 297 C342.9104 298.937 343.1018 301.006 344 304 C347.2977 314.9923 347.6258 316.5677 353 327 C355.746 332.3306 356.437 332.807 361 337 C374.5527 349.4538 374.9022 353.2414 390 361 C408.1468 370.3254 411.8473 371.0679 433 374 C460.4494 377.8049 464.9718 376.833 491 375 C497.0308 374.5753 501.0741 372.8622 504 369 C510.663 360.2049 511.8229 355.1741 516 342 C517.9414 335.8771 517.9604 334.4029 517 328 C515.1242 315.4948 516.2357 312.3557 510 302 C490.0834 268.9243 484.9318 265.2297 461 235 C458.4362 231.7615 457.1446 231.4707 453 230 C442.3445 226.219 430 224 430 224 "/>
<path id="1" d="M373 270 C373 270 360.2971 265.8647 350 259 C323.5218 241.3479 322.9139 240.4421 298 220 C284.2046 208.6807 286.2119 205.2641 272 195 C233.1995 166.9775 229.5363 169.7822 190 142 C174.5601 131.1503 161 117 161 117 "/>
<path id="2" d="M161 117 L178 102 "/>
<path id="3" d="M178 102 C178 102 185.7619 105.4047 186 106 C186.1455 106.3638 182.3496 110.4268 182 112 C181.8703 112.5836 182.7626 114.2487 184 115 C195.1709 121.7823 198.324 120.938 210 129 C218.6284 134.9577 217.8049 138.0113 226 144 C229.928 146.8705 231.932 145.2264 236 148 C242.2328 152.2496 241.4763 155.6766 248 159 C266.2145 168.2791 270.2618 164.73 289 175 C321.1801 192.6372 321.8814 194.2121 352 216 C368.4252 227.8821 370.2756 233.7146 383 243 C384.5058 244.0988 386.6481 242.1699 389 243 C394.1419 244.8148 400 249 400 249 "/>
<path id="4" d="M148 21 C148 21 122.4073 56.1833 95 89 C84.6954 101.3384 72 112 72 112 "/>
<path id="5" d="M72 112 C72 112 72.2569 121.5138 74 125 C74.747 126.4941 76.9785 127.3802 80 128 C95.5409 131.1879 96.9484 132.4904 113 133 C127.4764 133.4596 130.4641 134.0983 143 130 C153.754 126.4843 165 116 165 116 "/>
<path id="6" d="M152 22 C152 22 155.9023 22.2682 157 23 C157.5811 23.3874 157.2001 25.4223 158 26 C164.1188 30.4191 168.8515 30.0792 175 36 C180.8663 41.649 183.1983 44.3427 185 52 C188.4822 66.7992 188.2847 72.2264 187 87 C186.575 91.8876 181 98 181 98 "/>
<path id="7" d="M145 52 C145 52 120.1764 81.2707 105 101 C104.4292 101.742 104.7874 103.907 105 104 C107.8752 105.2579 113.1247 107.2674 121 108 C133.9875 109.2081 137.4036 110.9309 148 108 C157.2604 105.4386 159.2986 102.2011 168 95 C173.1213 90.7617 173.688 89.2993 177 84 C178.1206 82.207 177.8455 81.4727 178 79 C178.3358 73.6273 179.5516 70.0365 178 68 C174.8698 63.8917 168.578 63.1932 162 58 C160.0874 56.4901 160.5148 53.7574 159 53 C155.6949 51.3475 148 51 148 51 "/>
</g>
</g>
</svg>
