<?xml version="1.0" encoding="utf-8"?>
<!DOCTYPE svg PUBLIC "-//W3C//DTD SVG 1.1//EN" "http://www.w3.org/Graphics/SVG/1.1/DTD/svg11.dtd">
<svg viewBox="0 0 800 800" preserveAspectRatio="xMinYMin meet" xmlns="http://www.w3.org/2000/svg" version="1.1">
<g fill="none" stroke="black" stroke-linecap="round" stroke-linejoin="round" stroke-width="1.2241">
<g transform="translate(87.52,270.1064) scale(2.4508) translate(-165,-213)">
<path id="0" d="M326 241 C326 241 326.6874 247.5709 325 253 C315.5644 283.3579 303 315 303 315 "/>
<path id="1" d="M309 316 C309 316 305.9936 318.9807 306 319 C306.0043 319.0129 308.1098 319.3437 310 319 C318.8494 317.391 319.1063 315.9122 328 315 C338.1447 313.9595 339.2853 316.9135 349 315 C371.0017 310.6663 371.5072 307.0688 394 302 C406.5188 299.1789 416.5834 300.7083 420 299 C420.6212 298.6894 421.1644 293.0754 420 289 C418.5195 283.8184 417.87 281.4553 414 278 C405.5612 270.4654 392.0202 264.0376 392 264 C391.9929 263.9868 407.0001 265.0002 407 265 C406.9999 264.9997 398.4046 263.8663 391 261 C383.364 258.0441 383.6953 255.6844 376 253 C362.8325 248.4067 361.7936 247.7881 348 246 C335.5937 244.3918 322 246 322 246 "/>
<path id="2" d="M309 284 C309 284 300.7392 279.0974 292 276 C261.5607 265.2114 261.2533 264.6815 230 256 C198.4639 247.24 184.3861 246.0915 166 241 C165.5061 240.8632 164.7522 238.2569 165 238 C171.329 231.4366 190.7789 213.698 193 213 C193.161 212.9494 195.4311 221.365 200 227 C209.6712 238.9279 210.9605 239.3286 223 250 C232.7628 258.6534 233.104 259.4624 244 266 C252.4746 271.0848 263 274 263 274 "/>
<path id="3" d="M281 280 C281 280 290.2619 286.7005 299 289 C307.6929 291.2876 317.6492 290.2844 319 290 C319.0036 289.9992 318.9925 285.8398 318 285 C314.7597 282.2582 311.1725 279.8621 306 279 C301.358 278.2263 299.1141 281.8075 294 281 C282.0671 279.1159 280.9943 275.9533 268 273 C259.3796 271.0408 250 271 250 271 "/>
</g>
</g>
</svg>
