<?xml version="1.0" encoding="utf-8"?>
<!DOCTYPE svg PUBLIC "-//W3C//DTD SVG 1.1//EN" "http://www.w3.org/Graphics/SVG/1.1/DTD/svg11.dtd">
<svg viewBox="0 0 800 800" preserveAspectRatio="xMinYMin meet" xmlns="http://www.w3.org/2000/svg" version="1.1">
<g fill="none" stroke="black" stroke-linecap="round" stroke-linejoin="round" stroke-width="1.5361">
<g transform="translate(87.52,329.692) scale(1.953) translate(-80,-167)">
<path id="0" d="M84 171 C84 171 81.0594 183.0815 80 195 C79.0865 205.2764 78.7346 214.3391 80 216 C80.7346 216.9641 89.9012 217.5247 96 216 C99.6212 215.0947 104 210 104 210 "/>
<path id="1" d="M85 172 C85 172 105.4841 172.6105 110 174 C110.5018 174.1544 110.4785 179.2178 111 180 C111.1564 180.2347 113.7105 179.7105 114 180 C114.4825 180.4825 114.5658 183.899 115 184 C124.7619 186.2702 136.0778 189.0597 157 190 C224.3603 193.0274 229.2809 193.2744 293 192 C299.6081 191.8678 300.5275 190.2362 307 187 C317.199 181.9005 316.7017 179.681 327 175 C338.181 169.9177 339.4303 168.1094 351 167 C373.8451 164.8094 400 168 400 168 "/>
<path id="2" d="M106 211 C106 211 106.4351 206.8779 108 205 C110.5855 201.8973 112.864 198.9824 116 199 C182.9368 199.376 201.2732 201.9222 286 206 C294.5038 206.4093 296.65 204.8988 303 208 C315.4619 214.086 315.4998 218.9518 329 227 C340.9909 234.1484 342.5817 236.6716 355 239 C371.7042 242.132 393 239 393 239 "/>
<path id="3" d="M398 173 L394 232 "/>
<path id="4" d="M92 182 C92 182 89.3968 197.7182 90 199 C90.1768 199.3756 99.5777 199.5912 100 199 C100.8277 197.8412 100.7538 186.3192 100 185 C99.7538 184.5692 92 185 92 185 "/>
<path id="5" d="M397 170 L397 172 "/>
<path id="6" d="M352 189 L382 190 "/>
<path id="7" d="M350 203 L387 208 "/>
<path id="8" d="M366 215 L379 215 "/>
</g>
</g>
</svg>
