<?xml version="1.0" encoding="utf-8"?>
<!DOCTYPE svg PUBLIC "-//W3C//DTD SVG 1.1//EN" "http://www.w3.org/Graphics/SVG/1.1/DTD/svg11.dtd">
<svg viewBox="0 0 800 800" preserveAspectRatio="xMinYMin meet" xmlns="http://www.w3.org/2000/svg" version="1.1">
<g fill="none" stroke="black" stroke-linecap="round" stroke-linejoin="round" stroke-width="1.3201">
<g transform="translate(122.745,87.52) scale(2.2726) translate(-164,-94.1333)">
<path id="0" d="M313 215.1333 L311 278.1333 "/>
<path id="1" d="M311 276.1333 C311 276.1333 312.2638 298.0801 310 319.1333 C307.3234 344.0254 304.9999 364.6457 301 369.1333 C299.3095 371.03 270.5826 367.737 269 365.1333 C265.8691 359.9826 266.0909 339.9782 270 318.1333 C274.2143 294.5826 280.7272 293.7061 286 270.1333 C288.8853 257.2345 287.4472 255.9961 287 242.1333 C286.4548 225.2326 285.1447 212.9983 284 208.1333 C283.9612 207.9684 280.3829 207.2291 279 208.1333 C270.1175 213.9411 269.1403 218.0778 258 225.1333 C239.6588 236.7495 237.5875 234.671 219 246.1333 C207.956 252.9438 206.4719 259.38 198 262.1333 C192.1715 264.0276 180.6987 260.7377 179 259.1333 C178.0491 258.2352 177.3918 249.0457 180 245.1333 C187.4097 234.0187 191.529 227.1617 205 220.1333 C232.9734 205.5385 272.006 197.14 272 197.1333 C271.9876 197.1197 227.8257 198.1333 185 198.1333 C182.0465 198.1333 180.7593 198.4737 179 197.1333 C172.124 191.8945 167.2785 188.6903 164 182.1333 C161.8143 177.762 162.8985 172.3656 164 167.1333 C164.3556 165.4443 166.4072 163.301 168 163.1333 C180.2497 161.8439 186.7409 159.6237 202 163.1333 C233.9948 170.4921 267.6149 186.1989 268 186.1333 C268.0851 186.1188 252.1067 169.522 249 155.1333 C243.9553 131.7686 248.1625 123.6765 249 98.1333 C249.0597 96.3114 250.1741 94.5004 251 94.1333 C252.5303 93.4532 254.6316 93.8271 258 94.1333 C259.9686 94.3123 260.9926 94.126 262 95.1333 C267.4398 100.5731 272.1362 103.2515 274 110.1333 C277.3979 122.6793 274.0155 126.7246 275 143.1333 C275.5098 151.6305 275.2161 152.1058 277 160.1333 C278.1135 165.1442 281.2453 166.2085 281 170.1333 C280.4371 179.1403 274.9998 192.1336 275 192.1333 C275.0003 192.1329 281.3986 174.2935 290 158.1333 C297.6993 143.668 298.3708 143.2015 308 130.1333 C312.0531 124.6327 313.4056 121.547 318 120.1333 C328.405 116.9318 346.4735 117.6332 347 118.1333 C347.2127 118.3354 343.8396 129.7627 338 139.1333 C322.8156 163.4989 304.0331 187.0573 304 187.1333 C303.9913 187.1532 313.9374 183.651 321 178.1333 C329.082 171.8193 327.6705 168.5406 336 162.1333 C352.9171 149.1202 354.3527 147.7785 373 138.1333 C382.0959 133.4285 383.7079 133.8977 394 132.1333 C400.541 131.012 408.0431 132.0909 408 132.1333 C407.5814 132.5452 365.2531 169.705 332 193.1333 C328.4492 195.635 319.9994 194.1336 320 194.1333 C320.0017 194.1326 335.4354 186.7744 350 185.1333 C369.2011 182.9698 377.2485 182.1329 391 186.1333 C397.1158 187.9125 402.7961 196.5253 405 201.1333 C405.6669 202.5278 403.9635 207.3209 402 209.1333 C399.4111 211.5231 396.8278 212.2137 392 213.1333 C387.0654 214.0733 386.0861 214.2092 381 213.1333 C360.9666 208.8955 360.0065 206.5348 340 202.1333 C335.8531 201.221 330.9751 202.1117 331 202.1333 C331.2817 202.3779 392.618 247.3977 393 248.1333 C393.0595 248.2479 366.449 257.5129 358 254.1333 C346.9075 249.6963 343.6566 235.2849 328 222.1333 C320.1827 215.5668 317.4012 215.3751 308 212.1333 C304.3916 210.8891 299 212.1333 299 212.1333 "/>
</g>
</g>
</svg>
