<?xml version="1.0" encoding="utf-8"?>
<!DOCTYPE svg PUBLIC "-//W3C//DTD SVG 1.1//EN" "http://www.w3.org/Graphics/SVG/1.1/DTD/svg11.dtd">
<svg viewBox="0 0 800 800" preserveAspectRatio="xMinYMin meet" xmlns="http://www.w3.org/2000/svg" version="1.1">
<g fill="none" stroke="black" stroke-linecap="round" stroke-linejoin="round" stroke-width="2.3714">
<g transform="translate(87.52,131.7985) scale(1.2651) translate(-57,-11.1333)">
<path id="0" d="M247 161.1333 C247 161.1333 249.1295 223.2346 248 285.1333 C246.6324 360.0765 242 435.1333 242 435.1333 "/>
<path id="1" d="M310 157.1333 C310 157.1333 311.4629 211.249 310 265.1333 C308.4671 321.5936 306.6049 321.6947 304 378.1333 C303.6091 386.6033 302.713 387.1967 304 395.1333 C305.5878 404.9247 308.5933 405.5675 310 415.1333 C310.9332 421.4791 309 429.1333 309 429.1333 "/>
<path id="2" d="M285 157.1333 C285 157.1333 285.6799 151.8982 285 151.1333 C283.8543 149.8444 280.0806 150.3079 277 148.1333 C272.3254 144.8336 270.4774 144.0882 268 139.1333 C259.0079 121.1491 261.5872 116.349 252 98.1333 C247.4668 89.5202 245.251 89.039 238 82.1333 C235.3193 79.5802 234.411 78.9861 231 78.1333 C225.3505 76.721 223.5788 76.0536 218 77.1333 C209.5685 78.7652 205.0007 78.9053 200 84.1333 C186.8114 97.9214 185.3852 103.2093 174 123.1333 C167.7185 134.1259 168.0662 134.9346 164 147.1333 C158.6445 163.2 158.3261 163.5029 155 180.1333 C149.3801 208.233 149.2669 208.7114 146 237.1333 C144.3048 251.8819 144.2811 253.1153 145 267.1333 C145.2197 271.4179 147.6119 275.6806 148 276.1333 C148.0192 276.1557 150.6229 275.1568 151 274.1333 C153.2433 268.0444 151.7343 264.5357 155 257.1333 C158.8032 248.5127 161.8298 249.049 166 240.1333 C176.0596 218.6266 174.918 212.5988 184 195.1333 C185.5304 192.1903 189.1444 193.1674 192 190.1333 C196.451 185.4041 195.4603 181.2641 200 178.1333 C207.3962 173.0325 210.5226 171.974 221 170.1333 C246.1951 165.7072 248.3755 168.9016 274 165.1333 C281.5036 164.0299 289 160.1333 289 160.1333 "/>
<path id="3" d="M290 160.1333 C290 160.1333 290.9461 131.9311 295 106.1333 C296.2537 98.1552 299.1622 90.3868 301 90.1333 C325.6325 86.7357 375.4869 86.0244 411 90.1333 C415.0743 90.6047 416.3824 99.1071 422 104.1333 C424.5512 106.4159 428.0413 104.8808 430 107.1333 C435.9874 114.0189 434.9171 119.3421 442 127.1333 C448.7288 134.535 453.3176 132.3817 460 140.1333 C477.0091 159.8639 478.644 161.7017 492 185.1333 C506.6253 210.7917 506.3603 212.4057 517 240.1333 C522.6119 254.7583 522.1709 255.9267 525 271.1333 C526.045 276.7501 526.5526 278.4755 525 283.1333 C522.6711 290.1201 521.1544 292.1651 516 298.1333 C512.4608 302.2313 510.9849 303.0941 506 305.1333 C501.0327 307.1654 498.1982 308.046 494 307.1333 C489.4546 306.1452 484.9105 304.0861 483 300.1333 C473.4294 280.3321 471.4757 273.7835 465 247.1333 C458.6857 221.1474 463.3171 215.4093 457 193.1333 C455.1903 186.7519 452.1224 184.1046 446 180.1333 C435.5605 173.3618 433.2358 172.915 420 169.1333 C395.4099 162.1076 394.547 162.3912 369 158.1333 C349.8196 154.9366 349.4492 155.1437 330 154.1333 C311.1499 153.1541 292 154.1333 292 154.1333 "/>
<path id="4" d="M287 152.1333 C287 152.1333 284.8496 124.0579 286 99.1333 C286.2647 93.3982 286.9028 90.6951 290 87.1333 C294.9852 81.4004 298.6402 82.2665 306 76.1333 C322.4256 62.4453 321.9356 59.5467 338 47.1333 C342.6838 43.5141 344.0542 43.6844 350 42.1333 C355.0325 40.8205 355.5319 41.1333 361 41.1333 C389.8316 41.1333 392.4762 37.8553 419 42.1333 C435.9911 44.8738 440.2595 48.1447 454 56.1333 C458.5851 58.7991 457.7149 64.3908 462 67.1333 C467.7553 70.8167 472.5175 68.2438 479 72.1333 C485.7418 76.1784 484.971 79.5101 492 85.1333 C504.6763 95.2744 507.1718 93.4003 519 104.1333 C533.4969 117.2879 536.0533 119.2133 546 134.1333 C550.4208 140.7645 551.2872 151.0994 551 152.1333 C550.952 152.3062 545.1344 153.3392 541 152.1333 C534.3678 150.1989 532.9922 149.5394 527 145.1333 C516.5988 137.4854 515.8341 136.8735 507 127.1333 C496.6765 115.7511 498.3185 113.3117 488 102.1333 C480.7976 94.3307 479.8683 92.1492 471 88.1333 C455.6005 81.16 452.8568 80.625 435 78.1333 C410.9911 74.7832 409.8116 75.5232 385 76.1333 C349.1751 77.0143 347.839 78.3462 313 81.1333 C311.5179 81.2519 310.2156 81.5942 310 82.1333 C308.5101 85.858 307 96.1333 307 96.1333 "/>
<path id="5" d="M281 148.1333 C281 148.1333 274.9459 123.9711 273 100.1333 C271.0002 75.6356 274.1147 74.6563 273 50.1333 C272.6403 42.2191 272.8932 39.6972 270 34.1333 C267.6604 29.6341 265.1932 27.32 260 25.1333 C248.345 20.2259 245.5327 18.7282 232 18.1333 C201.9455 16.8123 199.3309 17.1098 169 21.1333 C151.6206 23.4388 150.9795 25.1252 134 31.1333 C118.7557 36.5275 118.8956 38.9372 104 44.1333 C98.0919 46.1943 94.2535 44.615 91 46.1333 C89.9882 46.6055 90.4502 50.0457 89 51.1333 C82.5687 55.9568 74.9222 55.25 71 61.1333 C62.5613 73.7913 61.586 80.7895 57 99.1333 C55.0109 107.0897 55.3471 108.8689 57 117.1333 C60.1221 132.7439 63.1859 133.0595 67 149.1333 C70.1013 162.2032 70.9824 176.1003 71 176.1333 C71.006 176.1445 72.2978 169.5377 75 164.1333 C78.0882 157.9569 78.5675 157.6739 83 152.1333 C88.4443 145.328 88.8813 144.0283 95 139.1333 C97.8408 136.8607 100.4809 138.3165 103 136.1333 C106.7231 132.9066 106.1186 128.4899 110 126.1333 C117.4977 121.5812 121.9004 124.0968 131 119.1333 C142.8328 112.6791 142.9089 105.6097 154 102.1333 C171.7177 96.58 198 98.1333 198 98.1333 "/>
<path id="6" d="M274 82.1333 C274 82.1333 277.9653 59.9917 284 41.1333 C285.4909 36.4742 286.2911 35.3124 290 32.1333 C302.7107 21.2384 311.1684 14.1455 319 11.1333 C320.6248 10.5084 326.9789 14.708 329 17.1333 C329.846 18.1486 330.0287 21.1494 329 23.1333 C324.155 32.4773 319.5874 33.5099 315 44.1333 C310.7326 54.0158 312.8364 55.7876 310 67.1333 C308.8596 71.695 307.9806 74.3682 307 76.1333 C306.8979 76.3172 305 76.1333 305 76.1333 "/>
</g>
</g>
</svg>
