<?xml version="1.0" encoding="utf-8"?>
<!DOCTYPE svg PUBLIC "-//W3C//DTD SVG 1.1//EN" "http://www.w3.org/Graphics/SVG/1.1/DTD/svg11.dtd">
<svg viewBox="0 0 800 800" preserveAspectRatio="xMinYMin meet" xmlns="http://www.w3.org/2000/svg" version="1.1">
<g fill="none" stroke="black" stroke-linecap="round" stroke-linejoin="round" stroke-width="1.7377">
<g transform="translate(240.3072,87.52) scale(1.7264) translate(-144,0)">
<path id="0" d="M229 114 C229 114 227 115.8001 227 117 C227 127.7993 229 130.559 229 144 C229 194.7773 230.1299 196.3132 227 246 C226.2222 258.347 222.7197 258.6756 221 271 C219.8019 279.586 222.4106 280.5364 221 289 C218.5445 303.7329 215.1321 304.0754 213 319 C210.242 338.3061 209.8446 350.7194 211 359 C211.1197 359.8581 215.1765 361.7559 219 362 C237.204 363.162 253.9187 364.9424 258 362 C260.7574 360.0121 261.5834 346.4152 262 331 C263.567 273.0224 265.1198 269.7671 262 214 C261.2948 201.394 255.5173 200.707 254 188 C251.6922 168.6721 255.4442 166.4965 254 147 C253.5317 140.6773 250.4866 140.3254 250 134 C248.574 115.4625 251.4783 112.3699 250 95 C249.6839 91.2853 246.8935 91.0207 246 87 C243.0961 73.9326 244.4278 71.5436 242 59 C241.7142 57.5234 240.6545 56.1309 240 56 C238.0365 55.6073 232.3304 56.1947 232 57 C228.8149 64.7636 226.0381 76.3659 224 95 C222.6426 107.4102 225 121 225 121 "/>
<path id="1" d="M240 59 C240 59 258.804 50.4697 265 47 C265.2188 46.8775 264.8969 45.0302 265 45 C272.7384 42.7351 290.2445 40.0131 306 35 C307.5237 34.5152 307.731 31.5076 309 31 C310.931 30.2276 313.4137 32.0345 316 31 C321.9853 28.6059 329 23 329 23 "/>
<path id="2" d="M243 56 L241 34 "/>
<path id="3" d="M251 50 C251 50 251.4802 39.6012 251 36 C250.9566 35.6742 249 35 249 35 "/>
<path id="4" d="M258 42 L258 31 "/>
<path id="5" d="M267 37 L268 34 "/>
<path id="6" d="M275 29 L273 27 "/>
<path id="7" d="M259 40 L254 32 "/>
<path id="8" d="M269 42 L267 31 "/>
<path id="9" d="M280 38 L276 25 "/>
<path id="10" d="M285 38 L285 20 "/>
<path id="11" d="M300 30 L296 20 "/>
<path id="12" d="M308 29 C308 29 307.3826 23.3043 306 21 C305.3388 19.8979 302 19 302 19 "/>
<path id="13" d="M250 57 C250 57 254.3593 57.5233 256 59 C258.1666 60.9499 260 66 260 66 "/>
<path id="14" d="M258 51 C258 51 257.9 49.05 258 49 C258.4 48.8 260.3537 48.5061 262 49 C264.8398 49.8519 268 52 268 52 "/>
<path id="15" d="M269 45 L288 50 "/>
<path id="16" d="M285 43 L309 47 "/>
<path id="17" d="M317 36 C317 36 323.9602 36.1841 326 37 C326.4774 37.191 327 40 327 40 "/>
<path id="18" d="M265 54 L279 57 "/>
<path id="19" d="M234 58 C234 58 225.5566 48.6093 216 43 C203.5059 35.6665 200.9005 37.6346 188 31 C184.1924 29.0418 184.1283 26.3407 181 25 C178.7121 24.0195 175.931 25.7724 174 25 C172.731 24.4924 172.5211 21.702 171 21 C167.5715 19.4176 164.9244 20.8468 161 19 C157.4765 17.3419 154 13 154 13 "/>
<path id="20" d="M160 19 C160 19 159.1254 23.687 158 25 C157.3539 25.7538 154 26 154 26 "/>
<path id="21" d="M163 13 L159 0 "/>
<path id="22" d="M167 19 C167 19 168.2314 33.3716 168 38 C167.9866 38.2687 166 39 166 39 "/>
<path id="23" d="M170 21 L168 3 "/>
<path id="24" d="M179 27 C179 27 179.2442 38.4126 179 40 C178.9942 40.0376 177 40 177 40 "/>
<path id="25" d="M179 18 L179 11 "/>
<path id="26" d="M187 32 L187 53 "/>
<path id="27" d="M192 33 L190 9 "/>
<path id="28" d="M198 36 C198 36 193.8841 42.3476 192 48 C191.1925 50.4225 192 54 192 54 "/>
<path id="29" d="M194 25 L196 16 "/>
<path id="30" d="M200 40 L200 56 "/>
<path id="31" d="M204 30 L205 22 "/>
<path id="32" d="M211 43 L209 54 "/>
<path id="33" d="M218 36 L218 26 "/>
<path id="34" d="M231 53 C231 53 223.3291 63.0633 219 71 C218.2945 72.2934 219 75 219 75 "/>
<path id="35" d="M237 64 C237 64 236.6271 41.3557 239 20 C240.0493 10.5563 244 1 244 1 "/>
<path id="36" d="M245 15 L248 14 "/>
<path id="37" d="M240 21 L252 21 "/>
<path id="38" d="M226 7 L220 0 "/>
<path id="39" d="M239 27 L227 25 "/>
<path id="40" d="M235 20 L223 1 "/>
<path id="41" d="M237 30 L221 42 "/>
<path id="42" d="M247 37 C247 37 248.9006 29.6492 250 28 C250.1999 27.7002 253 28 253 28 "/>
<path id="43" d="M246 61 C246 61 262.3691 77.0856 280 88 C292.6645 95.8399 297.1849 94.283 309 100 C310.1717 100.5669 311 103 311 103 "/>
<path id="44" d="M305 97 C305 97 305.0784 92.8432 306 91 C306.4962 90.0075 309 89 309 89 "/>
<path id="45" d="M302 91 C302 91 302.257 85.8733 304 82 C306.4912 76.4639 311 71 311 71 "/>
<path id="46" d="M289 90 L293 77 "/>
<path id="47" d="M287 92 C287 92 288.1518 100.665 287 107 C286.4066 110.2635 283 114 283 114 "/>
<path id="48" d="M293 93 C293 93 294.091 101.636 293 109 C292.2096 114.3355 289 120 289 120 "/>
<path id="49" d="M280 88 C280 88 277.9295 95.3469 276 98 C275.4157 98.8034 272 99 272 99 "/>
<path id="50" d="M278 80 L286 71 "/>
<path id="51" d="M268 88 L262 93 "/>
<path id="52" d="M261 76 L255 77 "/>
<path id="53" d="M269 67 L270 67 "/>
<path id="54" d="M262 83 L255 85 "/>
<path id="55" d="M267 70 L270 63 "/>
<path id="56" d="M269 79 C269 79 279.2724 79.709 285 82 C286.998 82.7992 289 87 289 87 "/>
<path id="57" d="M306 99 C306 99 304.4322 103.5678 302 106 C299.1256 108.8744 294 111 294 111 "/>
<path id="58" d="M230 60 C230 60 217.1182 63.4409 214 65 C213.7472 65.1264 214.1266 67.9628 214 68 C211.476 68.7423 205.1394 68.1217 197 70 C185.9921 72.5403 185.376 72.6312 175 77 C166.7692 80.4656 166.9269 83.1872 159 86 C152.512 88.3022 144 88 144 88 "/>
<path id="59" d="M159 87 L150 71 "/>
<path id="60" d="M154 85 C154 85 154.9976 92.259 154 96 C153.5405 97.7231 150 100 150 100 "/>
<path id="61" d="M162 74 L152 54 "/>
<path id="62" d="M171 88 L169 91 "/>
<path id="63" d="M169 86 L169 98 "/>
<path id="64" d="M183 71 C183 71 180.5409 63.7335 179 62 C178.5636 61.5091 175 62 175 62 "/>
<path id="65" d="M177 80 C177 80 177.6369 89.0894 177 91 C176.8649 91.4053 173 92 173 92 "/>
<path id="66" d="M187 59 C187 59 185.3679 54.3679 185 54 C184.9474 53.9474 183 55 183 55 "/>
<path id="67" d="M193 70 C193 70 194.9779 70.7011 195 71 C195.5015 77.7697 195 97 195 97 "/>
<path id="68" d="M197 67 L181 52 "/>
<path id="69" d="M206 67 C206 67 204.9323 77.2558 202 84 C200.6529 87.0983 196 90 196 90 "/>
<path id="70" d="M202 51 L199 51 "/>
<path id="71" d="M221 62 C221 62 220.4768 66.8902 219 69 C217.8572 70.6325 214.7893 70.7372 214 72 C213.3557 73.0309 214.7737 75.4525 214 77 C212.4525 80.095 209.5475 80.905 208 84 C207.2263 85.5475 208.7973 87.9635 208 89 C205.4977 92.2529 200.8069 93.9125 198 97 C197.5073 97.542 198.2895 99.7105 198 100 C197.5175 100.4825 194.8921 99.9915 194 101 C185.7818 110.2901 183.0171 113.7835 175 126 C173.2214 128.7103 174.1471 131.4706 173 133 C172.4602 133.7197 169 134 169 134 "/>
<path id="72" d="M176 130 C176 130 180.8143 129.9072 183 131 C184.4571 131.7286 185.9776 134.9106 186 135 C186.0024 135.0094 184 135 184 135 "/>
<path id="73" d="M174 124 L163 124 "/>
<path id="74" d="M181 115 L187 123 "/>
<path id="75" d="M175 112 L160 110 "/>
<path id="76" d="M171 110 C171 110 173.2541 109.709 175 110 C175.9457 110.1576 177 110.98 177 111 C177 111.02 175 112 175 112 "/>
<path id="77" d="M188 112 C188 112 194.0471 122.1412 195 125 C195.0829 125.2486 193 127 193 127 "/>
<path id="78" d="M184 106 L169 104 "/>
<path id="79" d="M195 105 C195 105 203.9044 115.7897 204 116 C204.0115 116.0253 200 116 200 116 "/>
<path id="80" d="M191 101 L180 97 "/>
<path id="81" d="M201 99 C201 99 204.4068 99.5661 206 101 C208.6475 103.3827 210.9274 107.8307 211 108 C211.0068 108.0159 209 108 209 108 "/>
<path id="82" d="M187 87 L186 87 "/>
<path id="83" d="M208 54 L205 53 "/>
<path id="84" d="M232 68 C232 68 239.0997 71.3568 243 76 C248.7464 82.8409 248.0806 86.3237 253 93 C253.9987 94.3554 255.8447 93.6015 257 95 C264.2728 103.8039 267.0019 105.2898 272 116 C276.7839 126.2512 278 140 278 140 "/>
<path id="85" d="M270 130 L266 131 "/>
<path id="86" d="M278 127 C278 127 280.2414 123.7034 282 123 C283.8842 122.2463 288 123 288 123 C288 123 284 123 284 123 "/>
<path id="87" d="M276 123 L266 123 "/>
<path id="88" d="M272 119 L279 107 "/>
<path id="89" d="M267 106 L255 109 "/>
<path id="90" d="M264 94 L266 88 "/>
<path id="91" d="M243 78 C243 78 237.7822 78.4785 237 79 C236.7653 79.1564 237 82 237 82 "/>
<path id="92" d="M238 70 L238 58 "/>
<path id="93" d="M247 90 L245 95 "/>
<path id="94" d="M255 96 C255 96 253.6794 103.4714 253 105 C252.9389 105.1374 251 105 251 105 "/>
<path id="95" d="M245 65 L326 65 "/>
<path id="96" d="M319 66 L319 56 "/>
<path id="97" d="M317 65 C317 65 317.8095 73.3692 317 76 C316.7623 76.7727 313 78 313 78 "/>
<path id="98" d="M309 61 L309 53 "/>
<path id="99" d="M301 64 L299 78 "/>
<path id="100" d="M293 66 C293 66 287.822 54.5275 285 51 C284.578 50.4725 281 51 281 51 "/>
<path id="101" d="M274 57 L268 60 "/>
<path id="102" d="M277 71 L278 76 "/>
</g>
</g>
</svg>
