<?xml version="1.0" encoding="utf-8"?>
<!DOCTYPE svg PUBLIC "-//W3C//DTD SVG 1.1//EN" "http://www.w3.org/Graphics/SVG/1.1/DTD/svg11.dtd">
<svg viewBox="0 0 800 800" preserveAspectRatio="xMinYMin meet" xmlns="http://www.w3.org/2000/svg" version="1.1">
<g fill="none" stroke="black" stroke-linecap="round" stroke-linejoin="round" stroke-width="1.6993">
<g transform="translate(211.9824,87.52) scale(1.7654) translate(-125,-60)">
<path id="0" d="M225 155 C225 155 224.6686 157.7869 225 158 C228.0688 159.9728 233.3155 160.4098 239 164 C241.8086 165.7739 242.4913 166.7225 244 170 C256.3667 196.8655 262.0089 198.5851 268 227 C278.7464 277.9686 275.1726 281.5337 279 336 C281.6547 373.7789 281 412 281 412 "/>
<path id="1" d="M303 414 C303 414 296.1337 368.4703 292 323 C289.6554 297.2095 292.2358 296.3395 290 271 C289.2993 263.0582 286.7482 262.7315 286 255 C285.3195 247.9686 287.9364 247.075 287 240 C283.5786 214.1492 285.822 209.3145 277 187 C270.4186 170.353 265.7264 169.1341 253 154 C247.7517 147.7588 246.146 146.6876 240 143 C237.6169 141.5701 233 142 233 142 "/>
<path id="2" d="M234 143 C234 143 238.7003 137.2093 243 136 C252.2364 133.4023 255.8624 133.6621 266 134 C269.1385 134.1046 270.1808 134.9227 273 137 C279.1538 141.5344 281.3705 141.9024 285 148 C292.7496 161.0194 294.8205 164.0806 298 179 C300.8246 192.2537 297.9954 209.0032 298 209 C298.0089 208.9938 306.4495 188.9022 311 170 C312.6202 163.27 312.2525 161.9782 311 155 C308.8911 143.2504 308.486 140.9333 304 131 C302.3217 127.2839 300.7415 126.421 297 124 C292.9149 121.3567 291.9121 120.8187 287 120 C277.7131 118.4522 275.6706 117.2659 267 119 C255.1764 121.3647 243.2823 128.7435 242 129 C241.9525 129.0095 241.162 125.3966 242 124 C244.581 119.6984 245.9502 117.2675 251 114 C261.6948 107.0799 264.0921 105.0403 276 102 C285.3349 99.6166 288.9089 99.7272 298 102 C306.4712 104.1178 307.9929 106.2806 316 112 C321.4594 115.8996 321.3574 116.777 326 122 C329.2772 125.6868 330.0794 125.8096 332 130 C335.268 137.1301 336.9975 146.0037 337 146 C337.005 145.9925 341.0998 130.1362 338 121 C333.2505 107.0014 328.3454 105.1487 318 90 C314.4178 84.7546 314.3124 84.0249 310 80 C307.3296 77.5076 304.7814 76.1619 303 76 C302.0983 75.918 300.65 78.8821 299 79 C289.6312 79.6692 285.2246 76.0977 275 78 C266.1233 79.6515 264.3187 81.4542 256 87 C247.0158 92.9895 245.8775 93.8489 239 102 C233.038 109.066 229.0169 118.9887 229 119 C228.9934 119.0044 228.2711 112.558 230 108 C233.3111 99.2708 233.7924 97.4146 240 90 C251.0083 76.8512 253.4503 74.2471 266 65 C270.0147 62.0418 277.9832 62.0168 278 62 C278.0056 61.9944 274.3493 60.1155 271 60 C260.5927 59.6411 258.3425 59.1315 249 61 C245.2125 61.7575 244.1997 62.9234 241 66 C231.6988 74.9434 228.7653 75.4989 223 86 C215.9598 98.8232 214.9031 115.8105 213 117 C212.0201 117.6124 201.6846 109.4653 191 106 C184.596 103.923 181.4257 103.1914 176 105 C166.6283 108.1239 163.3766 110.2517 155 118 C144.5499 127.6664 142.5931 129.4732 136 142 C128.4782 156.2914 127.7648 158.9136 125 175 C122.5435 189.2926 125 206 125 206 C125.0137 206 129.915 186.744 139 175 C148.3145 162.9594 152.4631 162.2621 166 153 C170.4219 149.9745 177 149 177 149 C177 149 167.2228 151.1058 164 155 C157.8263 162.4599 155.3569 166.7206 153 178 C148.8424 197.897 148.5605 201.5593 150 222 C150.9061 234.8667 156.4118 245.5589 158 249 C158.0438 249.0949 161.5972 247.7123 162 248 C162.8931 248.6379 163.0367 252.0367 165 254 C168.2722 257.2722 173.9945 260.0257 174 260 C174.0253 259.8821 168.6833 249.5659 168 240 C166.8007 223.2095 166.4542 220.0925 170 204 C172.4738 192.7727 174.5078 190.7383 181 181 C184.7098 175.4353 191.9938 170.9538 192 171 C192.0282 171.2113 187.4779 191.177 185 211 C184.0301 218.7595 183.2597 220.0386 185 227 C187.8824 238.5298 188.3656 242.3753 195 251 C201.3606 259.2688 205.586 260.4213 215 266 C217.4742 267.4662 222.0021 267.0512 222 267 C221.9582 265.9959 215.4662 254.3158 214 242 C210.6534 213.8883 212.3866 212.3817 212 183 C211.8887 174.5444 210.57 172.075 213 166 C215.43 159.925 224 153 224 153 "/>
<path id="3" d="M224 153 C224 153 216.5523 160.6193 214 167 C212.4403 170.8993 213.0024 174.259 214 178 C214.4595 179.7231 216.2593 181.4644 218 182 C220.9949 182.9215 225.4592 183.2975 227 182 C231.0188 178.6158 235.3567 171.6341 237 166 C237.6189 163.8779 235.834 159.5519 234 158 C231.6461 156.0082 224 155 224 155 "/>
<path id="4" d="M237 143 C237 143 238.3718 149.7147 241 153 C243.2698 155.8373 245.2811 156.8378 249 158 C252.1113 158.9723 254.2875 158.7398 257 158 C258.2946 157.6469 258.8901 156.6648 260 155 C262.7377 150.8935 264.3443 149.4971 265 146 C265.4371 143.6686 264.5433 141.4251 263 139 C261.6602 136.8947 260.4601 136.0251 258 135 C255.2631 133.8596 253.137 133.1452 251 134 C245.6251 136.15 238 143 238 143 "/>
</g>
</g>
</svg>
