<?xml version="1.0" encoding="utf-8"?>
<!DOCTYPE svg PUBLIC "-//W3C//DTD SVG 1.1//EN" "http://www.w3.org/Graphics/SVG/1.1/DTD/svg11.dtd">
<svg viewBox="0 0 800 800" preserveAspectRatio="xMinYMin meet" xmlns="http://www.w3.org/2000/svg" version="1.1">
<g fill="none" stroke="black" stroke-linecap="round" stroke-linejoin="round" stroke-width="1.3105">
<g transform="translate(184.8123,87.52) scale(2.2892) translate(-140,-121)">
<path id="0" d="M246 177 C246 177 246.5334 187.8408 244 197 C240.2969 210.388 237.4561 210.2384 233 224 C220.5412 262.4758 220.4275 263.2096 210 302 C208.0754 309.1596 210.4824 310.3285 208 317 C195.0453 351.8158 178 388 178 388 "/>
<path id="1" d="M262 184 C262 184 261.3836 192.4521 259 200 C255.5061 211.064 252.7954 211.4396 250 222 C248.6242 227.1974 251.3772 229.0814 250 234 C248.2831 240.1319 245.3467 240.3511 243 247 C239.5469 256.7837 241.2749 258.1752 238 268 C236.4589 272.6234 234.3203 272.775 233 277 C232.125 279.8 233.9117 281.4472 233 284 C231.8557 287.204 229.0691 287.7926 228 291 C227.0131 293.9607 228.9508 295.7672 228 299 C226.7555 303.2312 223.9539 303.5169 223 308 C219.2975 325.4016 220.945 330.9067 218 346 C217.7291 347.3884 215.1384 347.754 215 349 C213.2463 364.783 213 391 213 391 "/>
<path id="2" d="M179 390 L219 394 "/>
<path id="3" d="M251 174 C251 174 230.3253 188.8048 210 201 C206.1623 203.3026 204.4597 201.7613 201 204 C196.8334 206.696 197.4289 208.7891 193 212 C177.844 222.9881 173.0472 220.9528 161 233 C150.3167 243.6833 143 262 143 262 "/>
<path id="4" d="M160 189 C160 189 163.9347 189.8253 167 189 C176.1455 186.5378 176.9385 182.6551 186 182 C215.6976 179.8532 250 183 250 183 "/>
<path id="5" d="M254 175 C254 175 248.7572 171.0124 247 168 C246.2073 166.641 247.8239 164.838 247 163 C242.0849 152.0354 241.4616 149.9259 234 139 C227.8171 129.9464 219 122 219 122 "/>
<path id="6" d="M255 174 C255 174 253.6255 167.818 255 164 C257.5071 157.0359 258.7426 154.2574 264 149 C268.8193 144.1807 271.4681 143.272 278 141 C281.5028 139.7816 283.2673 142.0665 287 141 C292.688 139.3749 299 135 299 135 "/>
<path id="7" d="M255 177 C255 177 268.8813 175.7741 281 178 C292.3253 180.0802 292.8132 183.9187 304 186 C313.1364 187.6998 316.0246 186.9969 324 186 C325.7446 185.7819 328 183 328 183 "/>
<path id="8" d="M256 181 C256 181 263.7159 192.8777 269 205 C271.9823 211.8417 272.1141 212.5588 273 220 C274.5523 233.0393 272.6006 233.7055 274 247 C275.576 261.9724 276.0613 264.8779 279 277 C279.3509 278.4476 281.9061 280.0522 282 280 C282.7354 279.5914 288 272 288 272 "/>
<path id="9" d="M140 239 C140 239 145.9117 239.3192 151 238 C158.9337 235.9431 167 232 167 232 "/>
<path id="10" d="M158 219 C158 219 170.3045 221.4916 180 220 C188.0227 218.7657 197 213 197 213 "/>
<path id="11" d="M189 203 C189 203 197.6163 203.6151 203 202 C205.8236 201.1529 209 197 209 197 "/>
<path id="12" d="M165 237 L158 258 "/>
<path id="13" d="M185 220 L183 234 "/>
<path id="14" d="M210 204 L203 216 "/>
<path id="15" d="M169 177 L183 177 "/>
<path id="16" d="M189 180 C189 180 184.5838 180.7919 183 180 C181.2842 179.1421 179 175 179 175 "/>
<path id="17" d="M191 171 L218 183 "/>
<path id="18" d="M209 165 C209 165 214.1671 166.0143 216 168 C218.8314 171.0673 217.9125 174.2 221 178 C223.7444 181.3777 229 184 229 184 "/>
<path id="19" d="M180 184 C180 184 188.0003 180.9993 188 181 C187.9994 181.0012 181.6836 184.0708 178 188 C174.9209 191.2843 173 197 173 197 "/>
<path id="20" d="M211 184 L189 191 "/>
<path id="21" d="M213 126 C213 126 216.1523 130.7541 219 132 C222.4461 133.5077 229 133 229 133 "/>
<path id="22" d="M231 133 L233 121 "/>
<path id="23" d="M237 145 C237 145 230.5622 144.979 227 143 C223.0103 140.7835 219 135 219 135 "/>
<path id="24" d="M237 141 L246 135 "/>
<path id="25" d="M243 158 L233 157 "/>
<path id="26" d="M243 157 C243 157 249.022 155.5385 251 154 C251.787 153.3879 252 150 252 150 "/>
<path id="27" d="M257 158 L261 140 "/>
<path id="28" d="M265 144 L279 135 "/>
<path id="29" d="M288 141 L300 122 "/>
<path id="30" d="M263 159 L251 161 "/>
<path id="31" d="M263 152 C263 152 265.6777 149.4645 268 149 C272.147 148.1706 278 149 278 149 "/>
<path id="32" d="M288 141 L301 145 "/>
<path id="33" d="M265 176 C265 176 264.6775 170.5429 266 169 C268.7652 165.7739 277 162 277 162 "/>
<path id="34" d="M276 172 C276 172 279.8303 174 283 174 C288.4337 174 295 172 295 172 "/>
<path id="35" d="M262 173 C262 173 269.7709 177.387 273 182 C275.533 185.6186 276 193 276 193 "/>
<path id="36" d="M275 174 C275 174 278.5217 178.5651 280 183 C281.2935 186.8806 281 192 281 192 "/>
<path id="37" d="M295 182 C295 182 297.7613 178.5597 300 178 C304.1043 176.9739 308.198 178.467 311 178 C311.3396 177.9434 312 176 312 176 "/>
<path id="38" d="M297 182 C297 182 295.5635 191.1009 297 195 C297.948 197.5731 304 201 304 201 "/>
<path id="39" d="M269 204 L261 222 "/>
<path id="40" d="M268 206 L286 219 "/>
<path id="41" d="M275 230 C275 230 270.7527 230.3568 269 232 C264.0617 236.6296 259 245 259 245 "/>
<path id="42" d="M275 238 L288 243 "/>
<path id="43" d="M277 254 L264 270 "/>
<path id="44" d="M276 260 L292 264 "/>
</g>
</g>
</svg>
