<?xml version="1.0" encoding="utf-8"?>
<!DOCTYPE svg PUBLIC "-//W3C//DTD SVG 1.1//EN" "http://www.w3.org/Graphics/SVG/1.1/DTD/svg11.dtd">
<svg viewBox="0 0 800 800" preserveAspectRatio="xMinYMin meet" xmlns="http://www.w3.org/2000/svg" version="1.1">
<g fill="none" stroke="black" stroke-linecap="round" stroke-linejoin="round" stroke-width="1.5889">
<g transform="translate(185.701,87.52) scale(1.8881) translate(-145,-89)">
<path id="0" d="M249 184 C249 184 248.0633 194.6966 249 205 C250.5368 221.9047 252.9202 222.0322 254 239 C256.3952 276.6393 257.8392 277.9104 256 315 C254.9 337.1835 253.5821 338.1011 248 360 C240.6914 388.6721 230 417 230 417 "/>
<path id="1" d="M287 185 C287 185 284.3959 193.0825 284 201 C282.9215 222.5709 281.8149 223.461 284 245 C288.7387 291.7103 289.9243 292.3812 298 339 C300.8798 355.6245 303.9729 355.5809 306 372 C308.8775 395.3076 308 420 308 420 "/>
<path id="2" d="M240 395 C240 395 245.1011 392.0409 248 388 C260.9561 369.94 259.7643 367.6658 273 349 C279.0494 340.4688 281.6169 341.3437 287 333 C291.0581 326.7099 293 318 293 318 "/>
<path id="3" d="M258 320 C258 320 269.0244 308.9511 275 297 C281.8292 283.3416 285 266 285 266 "/>
<path id="4" d="M249 242 C249 242 256.7757 232.5091 265 225 C267.7792 222.4624 269.4158 223.5842 272 221 C280.2224 212.7776 288 202 288 202 "/>
<path id="5" d="M265 169 C265 169 259.2156 170.3375 255 173 C250.2707 175.9869 250.826 178.2158 246 181 C238.5429 185.3022 236.1942 183.2039 229 188 C213.1728 198.5514 212.7992 206.2069 198 213 C187.0677 218.0181 180.4182 217.5523 168 216 C159.9832 214.9979 155.8063 212.049 150 207 C146.7254 204.1525 146.1965 201.2645 145 196 C143.9155 191.2284 143.5522 188.6194 145 185 C146.6057 180.9858 148.6347 178.8469 153 176 C158.9527 172.1178 160.3691 172.4974 168 170 C187.7602 163.533 188.0816 162.5714 208 158 C217.9974 155.7055 218.6451 156.3138 229 156 C234.8852 155.8217 236.6324 154.8824 241 157 C250.8908 161.7955 261.9158 171.9672 262 172 C262.0192 172.0075 261.2637 166.3968 259 164 C254.1476 158.8622 252.3192 158.0901 245 154 C235.6477 148.7737 235.2273 148.5209 225 145 C205.0171 138.1207 197.7605 139.7339 184 133 C180.6583 131.3647 179.1096 127.1779 178 122 C176.4647 114.8352 176.7973 112.2165 178 105 C178.5424 101.7455 179.5498 100.6543 182 98 C185.0671 94.6773 186.1195 93.1498 190 92 C197.7757 89.6961 201.282 88.3222 209 90 C221.3091 92.6759 226.6257 93.9649 236 102 C247.9963 112.2825 248.7274 117.1639 258 132 C260.5168 136.027 260.5936 137.1227 261 142 C262.031 154.3716 261 168 261 168 C261 168 259.4704 154.5637 262 143 C266.1971 123.8132 266.2426 116.7811 275 104 C280.748 95.611 287.9969 93.5846 299 89 C303.3649 87.1813 306.2023 87.9338 311 89 C313.7542 89.6121 314.8702 90.5339 317 93 C323.7796 100.8501 325.7021 103.0654 330 111 C331.0298 112.9011 330.9642 115.5537 330 117 C327.4824 120.7764 325.5086 123.1186 320 126 C294.5026 139.3371 289.7918 137.4772 265 151 C258.8595 154.3494 253.9703 161.9906 254 162 C254.1121 162.0354 269.1036 158.049 284 157 C304.1222 155.5829 305.6849 154.2075 325 157 C345.6035 159.9788 356.1201 162.5184 367 169 C370.2169 170.9164 372.4635 184.4439 372 185 C371.2689 185.8773 361.3576 188.1697 352 187 C311.3123 181.914 268.0521 171.9972 268 172 C267.9825 172.001 285.5714 180.0366 297 190 C303.1241 195.339 302.1508 197.9181 307 206 C311.1438 212.9064 312.2899 213.5634 315 220 C315.7802 221.853 315.3939 224.7749 315 225 C312.8337 226.2379 307.0857 228.5071 301 228 C291.0416 227.1701 288.6446 226.4694 279 222 C269.2605 217.4866 268.0843 216.248 260 209 C254.2892 203.8799 252.8922 201.7843 250 196 C248.8753 193.7505 249.1499 191.8902 250 189 C251.393 184.2639 255 179 255 179 "/>
</g>
</g>
</svg>
