<?xml version="1.0" encoding="utf-8"?>
<!DOCTYPE svg PUBLIC "-//W3C//DTD SVG 1.1//EN" "http://www.w3.org/Graphics/SVG/1.1/DTD/svg11.dtd">
<svg viewBox="0 0 800 800" preserveAspectRatio="xMinYMin meet" xmlns="http://www.w3.org/2000/svg" version="1.1">
<g fill="none" stroke="black" stroke-linecap="round" stroke-linejoin="round" stroke-width="1.6849">
<g transform="translate(87.52,107.1056) scale(1.7805) translate(-108,-39.4167)">
<path id="0" d="M274 161.4167 C274 161.4167 269.4009 181.8378 267 202.4167 C258.9256 271.6255 253 341.4167 253 341.4167 "/>
<path id="1" d="M285 160.4167 C285 160.4167 282.0143 162.881 281 165.4167 C279.3403 169.566 279.1935 170.4824 279 175.4167 C278.2128 195.4896 280.9653 196.3099 279 216.4167 C274.5291 262.1574 270.5735 262.6818 266 308.4167 C264.1373 327.044 263.8976 332.9012 266 346.4167 C266.4475 349.2936 270.392 349.605 273 353.4167 C276.5627 358.6237 279 365.4167 279 365.4167 "/>
<path id="2" d="M256 338.4167 L233 366.4167 "/>
<path id="3" d="M255 353.4167 L251 368.4167 "/>
<path id="4" d="M259 354.4167 L260 364.4167 "/>
<path id="5" d="M262 356.4167 L271 364.4167 "/>
<path id="6" d="M273 162.4167 C273 162.4167 271.2957 160.4784 270 160.4167 C253.6745 159.6393 248.1616 157.2484 231 160.4167 C218.5841 162.7088 216.5133 164.861 205 172.4167 C185.3933 185.2835 182.8282 185.6708 167 202.4167 C149.6389 220.7842 148.749 224.941 136 245.4167 C133.6988 249.1125 134 255.4167 134 255.4167 "/>
<path id="7" d="M283 161.4167 C283 161.4167 302.4062 157.6198 310 161.4167 C319.9844 166.4089 322.4824 173.3338 333 186.4167 C342.7874 198.5912 345.6057 200.2085 351 212.4167 C353.7711 218.688 350.1106 221.544 352 229.4167 C355.906 245.6918 358.729 246.4976 363 262.4167 C363.9504 265.9591 363 270.4167 363 270.4167 "/>
<path id="8" d="M286 164.4167 C286 164.4167 285.2771 161.3404 286 160.4167 C291.9797 152.776 294.948 149.7144 304 141.4167 C306.2364 139.3667 306.9431 139.2092 310 138.4167 C319.9391 135.8399 320.5556 135.1961 331 134.4167 C353.5941 132.7305 359.1515 128.8401 377 133.4167 C391.5869 137.1569 394.9542 142.4432 409 154.4167 C424.6008 167.7157 424.8492 169.1881 438 185.4167 C448.0347 197.7999 456 212.4167 456 212.4167 "/>
<path id="9" d="M288 166.4167 C288 166.4167 282.4723 163.509 279 159.4167 C269.0072 147.6395 270.4369 143.3184 260 133.4167 C252.7254 126.5151 249.116 123.2607 240 122.4167 C201.8734 118.8864 195.6978 122.1562 152 123.4167 C144.0289 123.6466 143.4842 123.3585 136 125.4167 C124.0275 128.7091 122.5751 129.5068 112 134.4167 C109.8019 135.4372 108 138.4167 108 138.4167 "/>
<path id="10" d="M279 160.4167 C279 160.4167 282.6797 155.6416 284 151.4167 C284.875 148.6167 282.902 147.1294 284 144.4167 C290.5693 128.1867 291.0765 125.6331 301 109.4167 C311.2041 92.7418 312.0156 90.4011 325 77.4167 C332.4197 69.997 334.6193 70.2721 345 65.4167 C365.2449 55.9473 365.9526 53.9809 387 48.4167 C408.089 42.8414 432 42.4167 432 42.4167 "/>
<path id="11" d="M281 166.4167 C281 166.4167 289.2029 165.4177 292 166.4167 C293.2169 166.8513 293.1337 169.8375 295 171.4167 C298.8915 174.7095 305 177.4167 305 177.4167 "/>
<path id="12" d="M300 159.4167 C300 159.4167 303.6706 158.5564 305 159.4167 C310.0832 162.7058 312.285 164.4609 317 170.4167 C321.2646 175.8035 324 183.4167 324 183.4167 "/>
<path id="13" d="M325 177.4167 L333 207.4167 "/>
<path id="14" d="M335 198.4167 C335 198.4167 336.9989 198.4001 337 198.4167 C337.2489 202.1501 337 228.4167 337 228.4167 "/>
<path id="15" d="M349 214.4167 L349 249.4167 "/>
<path id="16" d="M349 247.4167 C349 247.4167 347.5444 254.4029 349 259.4167 C351.6216 268.4468 354.6675 269.5299 358 278.4167 C358.7447 280.4025 358 283.4167 358 283.4167 "/>
<path id="17" d="M286 168.4167 C286 168.4167 290.8543 164.0175 296 162.4167 C312.2561 157.3592 331 154.4167 331 154.4167 "/>
<path id="18" d="M319 162.4167 L343 165.4167 "/>
<path id="19" d="M333 180.4167 C333 180.4167 340.7528 187.4094 349 192.4167 C354.3253 195.6499 361 197.4167 361 197.4167 "/>
<path id="20" d="M360 210.4167 C360 210.4167 370.0244 219.4329 379 225.4167 C380.7539 226.5859 384 226.4167 384 226.4167 "/>
<path id="21" d="M368 237.4167 C368 237.4167 367.1018 242.0035 368 245.4167 C369.3827 250.6711 373 256.4167 373 256.4167 "/>
<path id="22" d="M287 163.4167 L304 157.4167 "/>
<path id="23" d="M297 151.4167 L337 150.4167 "/>
<path id="24" d="M316 143.4167 C316 143.4167 317.6987 141.489 319 141.4167 C332.8026 140.6499 352 141.4167 352 141.4167 "/>
<path id="25" d="M336 135.4167 L375 137.4167 "/>
<path id="26" d="M368 134.4167 L387 158.4167 "/>
<path id="27" d="M389 153.4167 C389 153.4167 391.8824 152.6878 393 153.4167 C401.0416 158.6612 412 168.4167 412 168.4167 "/>
<path id="28" d="M414 160.4167 C414 160.4167 414.7994 164.776 417 167.4167 C428.9295 181.7321 444 196.4167 444 196.4167 "/>
<path id="29" d="M447 184.4167 C447 184.4167 445.8543 189.0298 447 191.4167 C450.8889 199.5185 459 209.4167 459 209.4167 "/>
<path id="30" d="M293 154.4167 C293 154.4167 305.1621 139.5934 319 128.4167 C330.4599 119.1606 345 112.4167 345 112.4167 "/>
<path id="31" d="M349 120.4167 L387 120.4167 "/>
<path id="32" d="M393 129.4167 C393 129.4167 398.754 128.184 403 129.4167 C413.0261 132.3275 413.5445 135.3083 424 138.4167 C431.3284 140.5954 440 140.4167 440 140.4167 "/>
<path id="33" d="M440 142.4167 L442 154.4167 "/>
<path id="34" d="M435 162.4167 L446 166.4167 "/>
<path id="35" d="M441 172.4167 C441 172.4167 440.8646 179.2136 443 182.4167 C446.5799 187.7865 455 193.4167 455 193.4167 "/>
<path id="36" d="M285 165.4167 C285 165.4167 283.9785 160.4674 285 159.4167 C295.9009 148.2044 320 129.4167 320 129.4167 "/>
<path id="37" d="M294 138.4167 C294 138.4167 292.0044 146.4138 292 146.4167 C291.9982 146.4179 290.4172 142.3109 291 140.4167 C291.8743 137.5753 293.101 136.4272 296 133.4167 C305.8693 123.1678 317 113.4167 317 113.4167 "/>
<path id="38" d="M313 109.4167 C313 109.4167 313.6327 106.5276 315 105.4167 C320.5508 100.9067 329 96.4167 329 96.4167 "/>
<path id="39" d="M340 80.4167 C340 80.4167 339.6062 77.7196 340 77.4167 C343.1373 75.0034 346.2723 73.1798 353 70.4167 C374.0078 61.7884 396 54.4167 396 54.4167 "/>
<path id="40" d="M376 53.4167 L434 46.4167 "/>
<path id="41" d="M427 45.4167 L432 45.4167 "/>
<path id="42" d="M282 149.4167 C282 149.4167 285.8771 147.2472 288 144.4167 C291.4637 139.7984 291.3828 139.0537 294 133.4167 C297.8445 125.1363 298.9571 124.5881 301 116.4167 C302.1985 111.6228 301 105.4167 301 105.4167 "/>
<path id="43" d="M301 104.4167 C301 104.4167 299.095 96.4594 301 91.4167 C306.6305 76.5125 318 59.4167 318 59.4167 "/>
<path id="44" d="M319 75.4167 C319 75.4167 328.8034 62.4649 340 52.4167 C347.7356 45.4745 358 40.4167 358 40.4167 "/>
<path id="45" d="M364 49.4167 C364 49.4167 363.2113 44.5434 364 43.4167 C365.1699 41.7454 371 39.4167 371 39.4167 "/>
<path id="46" d="M382 49.4167 L399 43.4167 "/>
<path id="47" d="M407 43.4167 L415 39.4167 "/>
<path id="48" d="M268 157.4167 C268 157.4167 263.8478 157.0107 262 158.4167 C243.9969 172.1147 222 192.4167 222 192.4167 "/>
<path id="49" d="M232 167.4167 L222 180.4167 "/>
<path id="50" d="M212 171.4167 C212 171.4167 199.1013 178.7566 191 187.4167 C185.8899 192.8792 183 202.4167 183 202.4167 "/>
<path id="51" d="M182 199.4167 L164 231.4167 "/>
<path id="52" d="M162 224.4167 L155 239.4167 "/>
<path id="53" d="M148 233.4167 L141 253.4167 "/>
<path id="54" d="M266 160.4167 C266 160.4167 265.5158 154.9324 264 153.4167 C261.8106 151.2272 259.451 150.4764 255 149.4167 C249.5268 148.1135 243 148.4167 243 148.4167 "/>
<path id="55" d="M244 157.4167 C244 157.4167 213.8031 156.0738 197 156.4167 C196.2701 156.4316 195 158.4167 195 158.4167 "/>
<path id="56" d="M207 165.4167 C207 165.4167 203.3718 164.4897 202 165.4167 C188.5856 174.4805 170 190.4167 170 190.4167 "/>
<path id="57" d="M184 192.4167 C184 192.4167 176.9018 191.6507 175 193.4167 C166.9137 200.9254 156 218.4167 156 218.4167 "/>
<path id="58" d="M164 221.4167 C164 221.4167 159.731 220.3595 157 221.4167 C145.8242 225.7428 133 233.4167 133 233.4167 "/>
<path id="59" d="M271 150.4167 L256 149.4167 "/>
<path id="60" d="M255 139.4167 C255 139.4167 253.7349 136.5392 253 136.4167 C248.2965 135.6327 244.3834 135.4937 237 136.4167 C233.1353 136.8998 229 139.4167 229 139.4167 "/>
<path id="61" d="M240 122.4167 L209 129.4167 "/>
<path id="62" d="M207 125.4167 C207 125.4167 202.9981 124.5841 201 125.4167 C198.3082 126.5383 198.0954 129.2054 195 130.4167 C187.7774 133.2429 178 134.4167 178 134.4167 "/>
<path id="63" d="M180 126.4167 C180 126.4167 176.4865 125.5142 175 126.4167 C165.0938 132.4312 152 143.4167 152 143.4167 "/>
<path id="64" d="M148 132.4167 L130 140.4167 "/>
<path id="65" d="M130 130.4167 C130 130.4167 128.6525 135.6081 126 138.4167 C120.9828 143.729 113 148.4167 113 148.4167 "/>
<path id="66" d="M268 146.4167 L268 105.4167 "/>
<path id="67" d="M248 123.4167 L242 111.4167 "/>
<path id="68" d="M217 123.4167 C217 123.4167 217.2791 118.6144 216 115.4167 C214.6296 111.9906 211 108.4167 211 108.4167 "/>
<path id="69" d="M197 127.4167 C197 127.4167 191.2162 121.0933 186 119.4167 C179.3424 117.2767 169 118.4167 169 118.4167 "/>
<path id="70" d="M154 120.4167 L146 115.4167 "/>
<path id="71" d="M132 130.4167 L131 129.4167 "/>
<path id="72" d="M271 168.4167 C271 168.4167 260.2847 166.3415 258 167.4167 C256.4983 168.1234 255.0147 172.104 254 176.4167 C253.1834 179.8872 253.6441 184.2251 254 184.4167 C255.0294 184.971 262.4462 185.0944 267 183.4167 C269.7968 182.3863 271.8695 180.0545 273 177.4167 C274.0551 174.9547 273.7364 170.2349 273 169.4167 C272.0703 168.3837 264 167.4167 264 167.4167 "/>
<path id="73" d="M250 185.4167 C250 185.4167 246.0649 185.2349 246 185.4167 C245.3477 187.2432 244.4083 198.9359 245 199.4167 C245.9232 200.1667 259.5918 199.9377 262 198.4167 C263.2221 197.6448 264.0822 188.3209 264 187.4167 C263.9979 187.3939 261 187.4167 261 187.4167 "/>
<path id="74" d="M250 170.4167 C250 170.4167 246.0868 170.2084 246 170.4167 C245.3536 171.9679 244.5213 181.9379 245 182.4167 C245.4787 182.8954 257 181.4167 257 181.4167 "/>
<path id="75" d="M258 177.4167 C258 177.4167 258 175.4167 258 175.4167 C257.753 175.4167 253 177.4167 253 177.4167 "/>
<path id="76" d="M295 170.4167 C295 170.4167 291.7805 169.7923 291 170.4167 C288.5805 172.3523 286.286 174.7729 285 178.4167 C283.856 181.6579 284.5579 187.0237 285 187.4167 C285.4482 187.8151 291.1586 187.7281 294 186.4167 C295.8942 185.5424 297.3567 183.6681 298 181.4167 C298.9425 178.118 298.577 175.5903 298 172.4167 C297.8485 171.5832 296.5236 170.4167 296 170.4167 C294.4292 170.4167 290 172.4167 290 172.4167 "/>
<path id="77" d="M284 191.4167 C284 191.4167 282.025 191.3335 282 191.4167 C281.5716 192.8446 281 201.4167 281 201.4167 "/>
<path id="78" d="M288 189.4167 L287 189.4167 "/>
<path id="79" d="M299 185.4167 C299 185.4167 297.5893 195.5131 298 196.4167 C298.1062 196.6504 303.9075 196.6632 304 196.4167 C304.6575 194.6632 304.8871 184.4084 304 180.4167 C303.8398 179.6959 300.0917 178.3708 300 178.4167 C299.9389 178.4472 300 182.4167 300 182.4167 "/>
<path id="80" d="M288 197.4167 C288 197.4167 287.7044 202.2055 288 202.4167 C288.5794 202.8305 293.1169 203.3582 295 202.4167 C297.1522 201.3406 299.1585 199.1093 300 196.4167 C301.1127 192.8561 300.5 187.4167 300 186.4167 C299.875 186.1667 295.6242 185.8816 295 186.4167 C294.1083 187.181 293 192.4167 293 192.4167 "/>
<path id="81" d="M302 194.4167 C302 194.4167 300.3849 205.0839 301 206.4167 C301.2255 206.9054 307.6737 207.6964 308 207.4167 C308.3187 207.1435 308.6986 201.6742 308 200.4167 C307.5232 199.5584 303.5438 198.0542 303 198.4167 C300.3306 200.1963 295.436 205.0575 293 210.4167 C291.5277 213.6557 293 220.4167 293 220.4167 "/>
</g>
</g>
</svg>
