<?xml version="1.0" encoding="utf-8"?>
<!DOCTYPE svg PUBLIC "-//W3C//DTD SVG 1.1//EN" "http://www.w3.org/Graphics/SVG/1.1/DTD/svg11.dtd">
<svg viewBox="0 0 800 800" preserveAspectRatio="xMinYMin meet" xmlns="http://www.w3.org/2000/svg" version="1.1">
<g fill="none" stroke="black" stroke-linecap="round" stroke-linejoin="round" stroke-width="1.8001">
<g transform="translate(87.52,88.3533) scale(1.6666) translate(-33,-46.4167)">
<path id="0" d="M287 420.4167 C287 420.4167 293.9044 421.7819 298 420.4167 C302.5921 418.886 306.3059 416.9258 308 413.4167 C311.4277 406.3165 311.4934 402.3079 312 391.4167 C313.4613 359.9987 314.3286 358.3543 312 327.4167 C310.9257 313.1434 310.2653 311.4545 305 298.4167 C300.2596 286.6786 298.9952 285.7634 291 275.4167 C282.3815 264.2634 282.04 262.9476 271 254.4167 C249.9173 238.1255 248.6293 237.3565 225 224.4167 C207.3005 214.7241 187 208.4167 187 208.4167 "/>
<path id="1" d="M189 189.4167 C189 189.4167 195.2135 194.8114 202 198.4167 C210.8737 203.1308 211.3078 203.5567 221 206.4167 C241.396 212.4352 243.8828 208.915 263 216.4167 C281.8327 223.8067 282.6124 225.8249 300 237.4167 C312.16 245.5233 314.7346 245.5582 323 256.4167 C338.6927 277.0326 338.6878 279.7922 351 304.4167 C365.4966 333.41 362.1552 338.4383 377 364.4167 C382.411 373.8859 387.4976 372.3067 395 381.4167 C400.9492 388.6407 401.7424 389.8968 405 398.4167 C407.8389 405.8415 408 415.4167 408 415.4167 "/>
<path id="2" d="M308 406.4167 C308 406.4167 320.6202 410.203 333 411.4167 C345.6274 412.6547 346.8629 413.1867 359 411.4167 C369.7464 409.8495 371.3032 409.2651 381 404.4167 C390.3165 399.7584 399 391.4167 399 391.4167 "/>
<path id="3" d="M312 389.4167 C312 389.4167 318.1007 391.9629 324 392.4167 C337.0229 393.4184 339.5043 394.7681 351 392.4167 C359.0219 390.7758 361.0547 388.6257 368 383.4167 C372.021 380.4009 372.8667 378.3785 375 374.4167 C375.6683 373.1756 375 370.4167 375 370.4167 "/>
<path id="4" d="M315 365.4167 C315 365.4167 336.6655 358.9896 355 351.4167 C358.2299 350.0826 360.4036 348.5041 361 346.4167 C362.4212 341.4423 362.0321 335.3194 361 330.4167 C360.7521 329.2394 357 327.4167 357 327.4167 "/>
<path id="5" d="M311 325.4167 C311 325.4167 322.8422 321.399 331 315.4167 C336.611 311.302 338.7428 308.1819 341 303.4167 C341.8802 301.5585 340 296.4167 340 296.4167 "/>
<path id="6" d="M300 289.4167 C300 289.4167 311.3581 281.8896 313 276.4167 C315.594 267.77 312 249.4167 312 249.4167 "/>
<path id="7" d="M273 248.4167 C273 248.4167 276.0579 241.7762 277 235.4167 C277.9704 228.8666 278.0866 225.1111 277 221.4167 C276.653 220.237 272 218.4167 272 218.4167 "/>
<path id="8" d="M239 228.4167 C239 228.4167 241.0611 212.2871 239 205.4167 C238.1307 202.5191 230 198.4167 230 198.4167 "/>
<path id="9" d="M194 208.4167 C194 208.4167 197.859 207.1215 198 206.4167 C198.9062 201.8855 198 188.4167 198 188.4167 "/>
<path id="10" d="M188 188.4167 C188 188.4167 189.8064 177.4221 195 170.4167 C209.9361 150.2703 211.4755 146.8984 231 130.4167 C248.3802 115.7451 252.297 118.8723 272 105.4167 C293.0932 91.0116 303.6595 82.5896 313 74.4167 C313.3428 74.1167 312.8356 71.0852 312 70.4167 C309.5727 68.4749 307.4211 67.3009 303 66.4167 C295.6917 64.955 294.072 64.3117 287 65.4167 C279.4398 66.598 278.5071 67.6631 271 71.4167 C255.7883 79.0225 254.6319 78.7171 241 88.4167 C229.2675 96.7648 229.2097 97.9066 219 108.4167 C212.4215 115.1887 211.8889 115.6519 207 123.4167 C203.7166 128.6314 203.532 129.2888 202 135.4167 C195.6698 160.7374 191 187.4167 191 187.4167 "/>
<path id="11" d="M185 193.4167 C185 193.4167 180.3946 164.3517 173 136.4167 C166.9824 113.6836 166.2616 113.4475 158 91.4167 C154.3486 81.6796 152.2888 82.03 149 72.4167 C145.966 63.5481 147.3179 62.6885 145 53.4167 C144.3626 50.8669 144.2663 49.894 143 48.4167 C141.9762 47.2222 139.0653 46.3309 139 46.4167 C136.9958 49.0472 129.8799 58.3403 127 69.4167 C123.9945 80.9764 122.0153 86.5938 126 96.4167 C140.5113 132.1887 147.4535 137.5555 170 175.4167 C173.2918 180.9444 174.1502 181.5879 179 185.4167 C183.0037 188.5775 189 190.4167 189 190.4167 "/>
<path id="12" d="M192 190.4167 C192 190.4167 169.1678 189.8304 147 192.4167 C109.5582 196.7849 109.2415 200.4965 72 204.4167 C52.9552 206.4214 36.7025 205.7808 33 204.4167 C32.6053 204.2712 32.6045 191.254 34 190.4167 C39.6712 187.014 51.2251 184.1892 68 183.4167 C125.6719 180.7607 186 183.4167 186 183.4167 "/>
<path id="13" d="M192 186.4167 C192 186.4167 193.0536 202.0177 192 216.4167 C191.606 221.8017 191.3462 222.4897 189 227.4167 C181.6199 242.9148 181.4702 243.7379 172 258.4167 C161.6563 274.4493 161.7186 276.6981 149 289.4167 C139.5788 298.8378 133.183 300.8706 125 305.4167 C124.3918 305.7546 122.2917 305.0366 122 304.4167 C119.7801 299.6994 117.6787 295.8828 117 288.4167 C116.3063 280.7856 115.9219 278.2568 119 271.4167 C128.3287 250.6861 129.6007 247.8443 144 228.4167 C160.4202 206.2625 164.0622 207.6159 182 186.4167 C185.6471 182.1065 188 176.4167 188 176.4167 "/>
<path id="14" d="M194 174.4167 C194 174.4167 207.6022 171.1515 208 171.4167 C208.1768 171.5345 207.9285 179.6115 206 182.4167 C204.2565 184.9526 196.9842 187.4099 197 187.4167 C197.054 187.4398 218.2338 188.0153 220 188.4167 C220.0069 188.4182 219.9111 191.7199 219 192.4167 C213.8634 196.3447 202.9933 201.4107 203 201.4167 C203.0202 201.4346 227.9927 200.4005 228 200.4167 C228.0021 200.4212 208.2147 212.0732 208 212.4167 C207.9803 212.4482 215.0309 214.1898 218 216.4167 C219.3133 217.4016 220.0577 221.3854 220 221.4167 C217.5291 222.7551 194.0062 229.4142 194 229.4167 C193.9987 229.4172 200 229.4167 200 229.4167 C200 229.4167 198 229.4167 198 229.4167 C198 228.9564 198.2882 223.7616 200 222.4167 C208.624 215.6406 225.4451 208.145 226 207.4167 C226.0258 207.3828 219.7613 204.5511 216 201.4167 C214.6627 200.3022 213.8938 197.5052 214 197.4167 C216.3236 195.4804 233.9107 186.8857 234 186.4167 C234.0419 186.1965 218.6133 177.1972 218 176.4167 C217.9981 176.4142 223.0144 172.4239 223 172.4167 C222.9376 172.3855 209.9953 172.3914 210 172.4167 C210.0369 172.6135 222.0855 182.6755 226 188.4167 C226.7736 189.5513 226.1855 193.409 225 194.4167 C219.4902 199.1 210.8032 201.6246 206 205.4167 C205.4521 205.8492 205.4172 208.251 206 209.4167 C206.8743 211.1652 210 213.4167 210 213.4167 "/>
</g>
</g>
</svg>
