<?xml version="1.0" encoding="utf-8"?>
<!DOCTYPE svg PUBLIC "-//W3C//DTD SVG 1.1//EN" "http://www.w3.org/Graphics/SVG/1.1/DTD/svg11.dtd">
<svg viewBox="0 0 800 800" preserveAspectRatio="xMinYMin meet" xmlns="http://www.w3.org/2000/svg" version="1.1">
<g fill="none" stroke="black" stroke-linecap="round" stroke-linejoin="round" stroke-width="1.8097">
<g transform="translate(169.5771,87.52) scale(1.6577) translate(-124,-66)">
<path id="0" d="M202 436 C202 436 231.5276 374.058 252 313 C259.2282 291.4421 256.9553 289.3683 259 266 C260.4172 249.8035 260.6704 248.9883 259 233 C257.2419 216.1729 252 199 252 199 "/>
<path id="1" d="M203 437 C203 437 209.3649 442.2806 215 443 C230.4495 444.9723 234.0112 445.7058 250 443 C264.5551 440.5368 266.1004 438.4413 280 432 C285.8245 429.3008 286.2866 428.4515 291 424 C294.9372 420.2815 295.5968 419.8064 298 415 C303.7677 403.4645 305.2872 402.5465 308 390 C313.0233 366.7671 311.8789 365.3932 314 341 C314.8567 331.1485 315.4957 330.5899 314 321 C307.146 277.0535 302.5901 276.0634 297 232 C294.2404 210.2479 297 187 297 187 "/>
<path id="2" d="M238 125 C238 125 231.1456 145.7357 229 166 C226.7497 187.2531 227.9969 188.2669 229 210 C229.4819 220.441 231.7477 230.3513 232 231 C232.0164 231.0423 235.1101 229.6809 236 228 C238.8946 222.5324 237.3957 219.6067 241 214 C245.6811 206.7183 253.0455 199.8091 254 200 C255.9651 200.393 270.6089 220.1496 271 220 C272.2386 219.5264 286.7887 187.6864 288 187 C288.1335 186.9244 296.3256 198.014 301 203 C301.3109 203.3317 302.9087 203.1826 303 203 C304.7343 199.5315 306.9745 190.2408 309 187 C309.2564 186.5898 311.785 186.282 313 187 C320.801 191.6097 330.9227 200.0687 331 200 C331.3093 199.7251 332.5815 185.0076 331 171 C329.1573 154.6786 327.8337 154.3804 324 138 C322.3469 130.9367 323.0357 130.0714 320 124 C315.9208 115.8416 313.5747 111.1824 309 108 C306.5194 106.2744 302.6746 108.8407 297 108 C289.6266 106.9076 287.168 107.7257 282 104 C268.2837 94.1115 255.5156 77 254 77 C253.3505 77 246.8284 90.3194 242 104 C237.9627 115.4391 236 128 236 128 "/>
<path id="3" d="M252 76 C252 76 235.8787 97.2443 222 119 C217.6523 125.8153 218.2302 126.3995 215 134 C209.7436 146.368 208.4225 146.288 205 159 C198.0838 184.6888 201.0081 187.2871 194 212 C191.9684 219.1641 186.0613 226.0507 186 226 C185.1033 225.2579 165.4205 188.4542 165 188 C164.9466 187.9423 163.6504 194.4943 161 199 C159.1085 202.2155 155.0311 205.0502 155 205 C154.574 204.3118 152.3225 190.247 148 178 C146.7145 174.3577 143.0867 170.9548 143 171 C141.205 171.9365 125.0368 190.06 125 190 C124.7663 189.6187 118.9571 155.1288 124 140 C127.0799 130.7602 138.9559 129.8944 149 118 C156.9162 108.6255 157.1683 100.2919 162 95 C163.0121 93.8915 166.7382 96.0873 170 95 C178.9699 92.01 180.7345 91.3136 189 86 C193.9307 82.8302 193.314 80.5145 198 77 C200.7521 74.9359 202.3392 73.7871 205 74 C212.2425 74.5794 214.1714 78.0991 223 79 C237.7857 80.5087 254 79 254 79 "/>
<path id="4" d="M255 77 C255 77 262.3491 75.4839 268 77 C281.4541 80.6096 282.4567 81.8172 296 88 C305.2547 92.225 305.5483 92.317 314 98 C334.3394 111.6765 346.9448 122.7341 354 127 C354.1454 127.0879 356.9784 123.9632 357 124 C357.4223 124.718 359.2509 135.5016 364 144 C368.1124 151.359 372.1212 156.1449 376 158 C377.9845 158.9491 382.4294 157.4611 387 155 C394.5804 150.9182 402.2702 145.279 402 144 C399.711 133.1654 382.6727 101.5955 372 84 C371.284 82.8196 367.8517 84.2962 365 83 C357.6968 79.6804 356.7854 77.2141 350 74 C348.591 73.3326 346.8995 73.3458 346 74 C343.1174 76.0964 342.3092 80.0145 339 82 C336.5882 83.4471 333.7504 84.0733 331 83 C316.6752 77.4098 313.1462 72.6022 298 66 C295.7511 65.0197 294.714 65.3969 292 66 C286.1699 67.2956 285.8497 69.1 280 70 C273.5083 70.9987 269.8947 67.9805 266 70 C260.364 72.9224 253 84 253 84 "/>
<path id="5" d="M335 167 C335 167 355.9604 205.9683 356 206 C356.0147 206.0118 354.9547 183.0504 355 183 C355.0082 182.9909 364.9973 196.0022 365 196 C365.0792 195.9352 364.8728 183.3933 366 174 C366.1651 172.6241 367.1842 171.2719 368 171 C369.9035 170.3655 374.8851 171.2956 375 171 C375.7601 169.0456 375 153 375 153 "/>
<path id="6" d="M182 228 C182 228 196.3412 236.392 200 236 C202.3859 235.7444 209.037 224.8796 210 225 C211.7584 225.2198 218.4585 234.4364 224 239 C224.6512 239.5363 226.3886 239.5174 227 239 C230.9351 235.6703 237 228 237 228 "/>
</g>
</g>
</svg>
