<?xml version="1.0" encoding="utf-8"?>
<!DOCTYPE svg PUBLIC "-//W3C//DTD SVG 1.1//EN" "http://www.w3.org/Graphics/SVG/1.1/DTD/svg11.dtd">
<svg viewBox="0 0 800 800" preserveAspectRatio="xMinYMin meet" xmlns="http://www.w3.org/2000/svg" version="1.1">
<g fill="none" stroke="black" stroke-linecap="round" stroke-linejoin="round" stroke-width="1.3057">
<g transform="translate(87.52,288.5641) scale(2.2976) translate(-125,-173.1333)">
<path id="0" d="M125 205.1333 C125 205.1333 123.8123 236.2559 126 258.1333 C126.309 261.2234 128.3948 263.1795 131 265.1333 C133.1604 266.7536 134.5473 266.9091 138 267.1333 C171.9922 269.3406 175.7293 270.1333 208 270.1333 C211.6881 270.1333 214.3114 269.244 216 267.1333 C220.2034 261.879 220.6593 252.8377 224 250.1333 C225.9957 248.5178 232.0428 248.3743 237 250.1333 C245.3521 253.097 246.0228 258.8591 255 261.1333 C280.492 267.5913 283.6388 267.3326 312 269.1333 C346.0288 271.2939 354.4379 272.4126 381 269.1333 C386.0948 268.5043 390.8917 264.0087 393 259.1333 C396.9877 249.9117 397.5376 241.273 397 232.1333 C396.8523 229.6224 394.1614 226.3832 391 225.1333 C376.2328 219.2952 372.6046 218.9014 354 215.1333 C333.398 210.9608 332.6962 213.0326 312 209.1333 C298.4112 206.5731 297.9684 206.6224 285 202.1333 C272.3029 197.7382 270.4301 197.797 260 191.1333 C253.921 187.2496 254.9042 183.9641 249 179.1333 C244.488 175.4417 243.0099 173.849 238 173.1333 C227.9197 171.6933 221.9051 171.4983 214 174.1333 C209.9933 175.4689 209.8487 180.4968 205 184.1333 C200.6655 187.3842 199.3078 188.3751 194 189.1333 C179.889 191.1492 176.4987 192.1019 163 190.1333 C155.0521 188.9743 154.2974 184.267 146 182.1333 C138.0509 180.0893 129.0798 179.9995 128 181.1333 C126.401 182.8123 126 203.1333 126 203.1333 "/>
<path id="1" d="M258 205.1333 C258 205.1333 259.1542 208.65 260 209.1333 C260.9868 209.6972 264.5404 209.4091 265 209.1333 C265.1654 209.0341 265.2347 206.2898 265 206.1333 C264.2178 205.6119 259 205.1333 259 205.1333 "/>
<path id="2" d="M281 211.1333 C281 211.1333 275.1146 211.0187 275 211.1333 C274.9618 211.1715 276.1622 214.7144 277 215.1333 C278.2567 215.7617 282.9048 215.2047 283 215.1333 C283.004 215.1304 281 212.1333 281 212.1333 "/>
<path id="3" d="M299 215.1333 C299 215.1333 295.5639 216.2875 295 217.1333 C294.5167 217.8583 294.85 221.0833 295 221.1333 C296.35 221.5833 306.3472 221.3114 307 221.1333 C307.0099 221.1306 306.5236 218.3951 306 218.1333 C304.4292 217.3479 299 217.1333 299 217.1333 "/>
<path id="4" d="M325 220.1333 C325 220.1333 319.5192 219.7872 319 220.1333 C318.7692 220.2872 318.8394 224.0749 319 224.1333 C320.2144 224.5749 329.8428 224.2681 330 224.1333 C330.0163 224.1193 326 218.1333 326 218.1333 "/>
<path id="5" d="M263 207.1333 L271 198.1333 "/>
<path id="6" d="M268 210.1333 L274 200.1333 "/>
<path id="7" d="M277 212.1333 L281 204.1333 "/>
<path id="8" d="M283 214.1333 L288 205.1333 "/>
<path id="9" d="M297 217.1333 L302 209.1333 "/>
<path id="10" d="M305 219.1333 L307 210.1333 "/>
<path id="11" d="M320 221.1333 L324 212.1333 "/>
<path id="12" d="M329 223.1333 L329 215.1333 "/>
<path id="13" d="M126 251.1333 C126 251.1333 128.5492 254.3981 131 255.1333 C137.1665 256.9833 138.5471 256.9659 146 257.1333 C182.6576 257.9571 193.1943 259.1438 220 257.1333 C222.3364 256.9581 226 251.1333 226 251.1333 "/>
</g>
</g>
</svg>
