<?xml version="1.0" encoding="utf-8"?>
<!DOCTYPE svg PUBLIC "-//W3C//DTD SVG 1.1//EN" "http://www.w3.org/Graphics/SVG/1.1/DTD/svg11.dtd">
<svg viewBox="0 0 800 800" preserveAspectRatio="xMinYMin meet" xmlns="http://www.w3.org/2000/svg" version="1.1">
<g fill="none" stroke="black" stroke-linecap="round" stroke-linejoin="round" stroke-width="0.73925">
<g transform="translate(87.52,203.9898) scale(4.0582) translate(-139,-234.3333)">
<path id="0" d="M145 236.3333 C145 236.3333 141.1681 238.1564 141 239.3333 C139.1505 252.2799 139 259.3482 139 278.3333 C139 283.6881 139.0045 284.7436 141 289.3333 C143.6022 295.3184 145.6819 300.5526 149 301.3333 C167.6824 305.7292 179.2438 302.2657 209 305.3333 C227.5291 307.2435 227.6185 309.8225 246 311.3333 C263.6494 312.784 281.9095 311.3421 282 311.3333 C282.0118 311.3322 277 308.3333 277 308.3333 "/>
<path id="1" d="M281 312.3333 C281 312.3333 286.0968 311.8905 288 310.3333 C290.1437 308.5794 291.1238 306.6191 292 303.3333 C292.869 300.0747 293.0663 296.2981 292 295.3333 C287.4401 291.2077 281.581 287.2191 271 284.3333 C250.3189 278.693 245.749 281.3637 226 277.3333 C224.0381 276.9329 223.8635 274.706 222 274.3333 C215.4374 273.0208 213.4207 274.7604 206 273.3333 C201.0646 272.3842 198.9189 272.0805 196 269.3333 C192.1206 265.6821 191.5982 263.529 189 257.3333 C185.257 248.4078 186.3657 244.5038 183 238.3333 C182.0521 236.5955 179.8531 235.6594 177 235.3333 C163.9042 233.8367 156.3844 233.7924 148 234.3333 C147.3644 234.3743 145.9606 237.3307 146 237.3333 C146.6996 237.38 178 236.3333 178 236.3333 C178 236.3333 155.0667 237.2889 155 237.3333 C154.9822 237.3452 160.8932 242.8438 166 244.3333 C171.0905 245.818 176.3084 244.9101 179 244.3333 C179.3402 244.2604 180.0304 241.3371 180 241.3333 C179.1793 241.2307 170.3968 240.9885 163 242.3333 C160.6127 242.7674 160.1437 245.0271 158 245.3333 C154.5024 245.833 148.9991 244.3336 149 244.3333 C149.0024 244.3326 171 241.3334 171 241.3333 C171 241.3333 154.8505 242.1554 148 241.3333 C147.2971 241.249 145.9657 238.3348 146 238.3333 C146.4747 238.3135 172 240.3333 172 240.3333 "/>
<path id="2" d="M146 299.3333 C146 299.3333 147.8708 302.8429 150 304.3333 C152.1008 305.8039 153.0635 306.1236 156 306.3333 C179.9702 308.0455 182.7162 306.2909 206 308.3333 C209.3705 308.629 209.5302 310.8672 213 311.3333 C241.4997 315.1617 243.3256 315.3811 273 317.3333 C280.8291 317.8484 285.6367 317.6413 289 316.3333 C289.8893 315.9875 291 310.3333 291 310.3333 "/>
<path id="3" d="M146 305.9333 C146 305.9333 144.7529 308.6413 145 308.9333 C147.3125 311.6663 150.6071 315.3608 157 318.9333 C166.8245 324.4235 168.257 326.4848 179 327.9333 C210.1943 332.1393 212.5853 330.2444 246 330.9333 C260.9377 331.2413 262.0229 331.8836 276 329.9333 C282.3522 329.047 283.8768 327.8152 289 324.9333 C290.701 323.9765 291.6644 322.7794 292 320.9333 C293.3426 313.5492 293.584 305.7075 293 302.9333 C292.9326 302.6132 288 301.9333 288 301.9333 "/>
<path id="4" d="M147 306.9333 L141 292.9333 "/>
<path id="5" d="M195 273.9333 C195 273.9333 193 276.2258 193 277.9333 C193 286.898 195 298.9333 195 298.9333 "/>
<path id="6" d="M200 299.9333 C200 299.9333 197.9774 281.5739 200 277.9333 C201.2258 275.7269 207.6911 274.2868 215 272.9333 C220.5072 271.9135 225.5882 273.2863 227 272.9333 C227.0882 272.9113 227.3999 270.5998 227 269.9333 C226.4935 269.0891 225.2507 267.9929 224 267.9333 C216.7457 267.5879 212.2376 266.7742 206 268.9333 C202.3385 270.2008 198 276.9333 198 276.9333 "/>
<path id="7" d="M204 277.9333 C204 277.9333 207.702 279.6618 209 281.9333 C212.9752 288.8899 214.1031 296.4041 216 298.9333 C216.2344 299.2459 220.6133 298.4747 221 297.9333 C221.5075 297.2228 221.9823 293.505 221 291.9333 C218.3396 287.6766 211 281.9333 211 281.9333 "/>
<path id="8" d="M282 308.9333 C282 308.9333 285.3623 307.9536 286 306.9333 C286.9388 305.4313 287.0308 300.931 287 300.9333 C286.6936 300.9569 273.0005 307.933 273 307.9333 C272.9998 307.9335 277.3788 307.5464 280 305.9333 C283.0866 304.0339 286 299.9331 286 299.9333 C286 299.9338 279.9999 308.9331 280 308.9333 C280.0001 308.9335 284.7409 305.322 287 301.9333 C288.0973 300.2874 288 296.9333 288 296.9333 C288 296.9333 285.9996 307.9313 286 307.9333 C286.0002 307.9344 289 301.9333 289 301.9333 C289 301.9333 285.9996 308.9332 286 308.9333 C286.0023 308.9341 292 302.9333 292 302.9333 C292 302.9333 286.0014 308.9367 286 308.9333 C285.9964 308.9244 290 297.9333 290 297.9333 "/>
</g>
</g>
</svg>
