<?xml version="1.0" encoding="utf-8"?>
<!DOCTYPE svg PUBLIC "-//W3C//DTD SVG 1.1//EN" "http://www.w3.org/Graphics/SVG/1.1/DTD/svg11.dtd">
<svg viewBox="0 0 800 800" preserveAspectRatio="xMinYMin meet" xmlns="http://www.w3.org/2000/svg" version="1.1">
<g fill="none" stroke="black" stroke-linecap="round" stroke-linejoin="round" stroke-width="1.4833">
<g transform="translate(87.52,217.9728) scale(2.0225) translate(-25,-246.1333)">
<path id="0" d="M149 309.1333 C149 309.1333 168.2864 301.9905 182 303.1333 C193.7796 304.115 196.0081 312.2021 209 314.1333 C230.3241 317.3031 237.622 319.4758 256 314.1333 C274.0916 308.8742 279.8382 303.8619 295 289.1333 C312.4343 272.1971 325.8265 246.2844 326 246.1333 C326.0353 246.1026 326.9597 254.3492 326 262.1333 C322.5146 290.404 319.7404 290.816 317 319.1333 C315.2953 336.7488 315.4715 337.5554 317 355.1333 C318.4233 371.5012 318.9726 372.0238 323 388.1333 C327.4068 405.7605 334.9049 421.1107 334 423.1333 C333.5329 424.1774 319.9378 424.8267 306 426.1333 C304.0287 426.3181 302.1894 426.4489 302 426.1333 C301.1163 424.6606 300.21 421.0695 300 416.1333 C299.2294 398.0236 301.1393 397.3629 300 379.1333 C299.1609 365.7075 299.0127 365.0878 296 352.1333 C294.1237 344.0651 293.3534 341.4428 290 336.1333 C288.8495 334.3117 286.5462 333.2606 284 333.1333 C278.2452 332.8456 275.7655 332.6401 270 335.1333 C258.7311 340.0064 257.1621 340.9324 247 349.1333 C229.2749 363.4378 230.6815 366.6093 213 381.1333 C203.1746 389.2042 202.1799 388.4684 191 395.1333 C176.2139 403.9481 176.3058 405.3004 161 412.1333 C148.9589 417.5088 148.0042 417.667 135 420.1333 C119.6084 423.0524 118.4882 423.6027 103 423.1333 C86.4233 422.631 82.5297 421.3377 69 418.1333 C67.0975 417.6828 67.2465 415.2566 65 414.1333 C46.6533 404.96 30.8373 401.6551 25 396.1333 C23.661 394.8667 26.3381 380.1075 28 379.1333 C31.3326 377.1798 41.2763 380.172 54 379.1333 C65.4154 378.2015 65.6635 377.6932 77 375.1333 C96.5673 370.7149 97.0387 370.9941 116 365.1333 C124.1824 362.6042 125.5211 362.539 132 358.1333 C136.931 354.7803 137.9574 353.5026 141 348.1333 C145.9434 339.4098 145.64 338.2134 149 328.1333 C151.0753 321.9074 151.7035 320.7668 152 315.1333 C152.1328 312.6095 150 309.1333 150 309.1333 "/>
</g>
</g>
</svg>
