<?xml version="1.0" encoding="utf-8"?>
<!DOCTYPE svg PUBLIC "-//W3C//DTD SVG 1.1//EN" "http://www.w3.org/Graphics/SVG/1.1/DTD/svg11.dtd">
<svg viewBox="0 0 800 800" preserveAspectRatio="xMinYMin meet" xmlns="http://www.w3.org/2000/svg" version="1.1">
<g fill="none" stroke="black" stroke-linecap="round" stroke-linejoin="round" stroke-width="0.69604">
<g transform="translate(87.52,216.8221) scale(4.3101) translate(-203,-204)">
<path id="0" d="M203 214 C203 214 210.139 210.7417 217 210 C227.934 208.8179 229.5679 208.3528 240 210 C247.2332 211.1421 253.4832 213.6165 255 216 C256.499 218.3556 255.36 226.8318 254 232 C253.6611 233.2879 251.7016 234.8724 250 235 C235.5016 236.0874 229.4436 236.13 214 235 C211.7609 234.8362 209.8411 233.6821 209 232 C205.6357 225.2715 203 213 203 213 "/>
<path id="1" d="M257 215 C257 215 252.852 227.8999 254 232 C254.7672 234.7402 258.918 238.4496 264 240 C285.2626 246.4869 288.7826 246.5891 313 250 C323.5693 251.4886 325.5808 248.7008 335 250 C338.2332 250.446 340.0108 251.5518 342 254 C345.465 258.2646 347.1379 260.8275 348 266 C348.7737 270.642 348.2239 275.0348 346 278 C343.076 281.8987 339.4971 283.8343 333 286 C324.2911 288.903 322.9378 288.5268 313 289 C291.7853 290.0102 291.1665 290.3925 270 289 C253.5941 287.9207 253.4026 285.5188 237 284 C226.7064 283.0469 218.4371 286.1849 216 284 C212.3664 280.7423 208.95 269.8749 208 258 C207.1556 247.4445 211.4079 245.5457 212 234 C212.3644 226.894 210 219 210 219 "/>
<path id="2" d="M275 244 C275 244 271.6891 248.2102 271 252 C269.8946 258.0795 270.83 265.8918 271 266 C271.1249 266.0795 279.1617 262.7844 282 259 C284.9779 255.0295 286 246 286 246 "/>
<path id="3" d="M286 246 C286 246 274.2467 236.5756 271 229 C268.5056 223.1797 269.7748 218.6572 271 211 C271.52 207.7499 275 204 275 204 "/>
<path id="4" d="M278 243 C278 243 279.6967 234.6066 283 228 C285.3595 223.281 286.6818 222.0165 290 219 C291.073 218.0246 293.9895 217.9712 294 218 C294.2764 218.7601 295.8015 226.3969 294 230 C290.9224 236.1553 286.9677 239.0269 281 244 C279.5887 245.1761 276.0947 245.0947 276 245 C275.9053 244.9053 277.4371 241.6028 277 240 C276.3443 237.5958 273.9327 234.1166 273 234 C270.7418 233.7177 261 238 261 238 "/>
</g>
</g>
</svg>
