<?xml version="1.0" encoding="utf-8"?>
<!DOCTYPE svg PUBLIC "-//W3C//DTD SVG 1.1//EN" "http://www.w3.org/Graphics/SVG/1.1/DTD/svg11.dtd">
<svg viewBox="0 0 800 800" preserveAspectRatio="xMinYMin meet" xmlns="http://www.w3.org/2000/svg" version="1.1">
<g fill="none" stroke="black" stroke-linecap="round" stroke-linejoin="round" stroke-width="1.3969">
<g transform="translate(87.52,297.9876) scale(2.1476) translate(-134,-204.1333)">
<path id="0" d="M134 211.1333 C134 211.1333 134.2476 213.6675 135 214.1333 C141.8974 218.4031 145.4442 222.7682 155 224.1333 C183.6674 228.2287 187.6425 227.1236 219 226.1333 C234.2812 225.6508 236.8685 225.0728 250 221.1333 C254.4849 219.7879 258.8711 215.2294 259 214.1333 C259.1468 212.8853 251.9455 204.2112 252 204.1333 C252.1047 203.9838 259.563 203.4558 266 204.1333 C268.3957 204.3855 269.5579 204.6064 271 206.1333 C276.8638 212.342 276.0443 215.8732 283 222.1333 C295.1198 233.0412 296.6753 233.7254 311 242.1333 C318.9695 246.8111 320.0831 247.3887 329 249.1333 C342.0701 251.6905 357 251.1333 357 251.1333 "/>
<path id="1" d="M261 217.1333 C261 217.1333 263.0961 221.0113 266 223.1333 C275.4376 230.03 276.1411 231.0363 287 236.1333 C300.0993 242.282 300.9626 242.3315 315 246.1333 C324.5138 248.71 325.0575 248.5485 335 249.1333 C350.2761 250.0319 366 249.1333 366 249.1333 "/>
<path id="2" d="M134 213.1333 C134 213.1333 133.5123 240.9834 135 268.1333 C135.4908 277.091 137.0937 286.0003 138 286.1333 C154.9802 288.6258 244 284.1333 244 284.1333 "/>
<path id="3" d="M366 249.1333 C366 249.1333 409.8387 245.6192 414 248.1333 C415.5914 249.0948 416.0949 272.6544 414 278.1333 C413.3736 279.7717 407.4704 281.3939 401 282.1333 C373.3737 285.2906 372.4651 285.1167 344 286.1333 C316.6024 287.1118 314.7186 287.358 289 286.1333 C285.1923 285.952 283.718 285.2689 281 283.1333 C277.7759 280.6001 277.5283 276.0965 275 275.1333 C270.8083 273.5365 266.879 273.7263 260 275.1333 C245.8564 278.0263 231 284.1333 231 284.1333 "/>
<path id="4" d="M135 287.1333 C135 287.1333 136.4217 298.0639 137 298.1333 C154.0907 300.1842 195.6044 299.9058 235 299.1333 C236.632 299.1013 238.5422 297.3923 239 296.1333 C239.8222 293.8723 239.6653 290.3508 239 288.1333 C238.7588 287.3295 236 286.1333 236 286.1333 "/>
<path id="5" d="M283 287.1333 C283 287.1333 282.9501 295.1308 283 295.1333 C299.951 295.9932 388.4162 296.6574 421 294.1333 C422.1267 294.046 425.5163 285.3873 425 284.1333 C424.2873 282.4025 414 277.1333 414 277.1333 "/>
</g>
</g>
</svg>
