<?xml version="1.0" encoding="utf-8"?>
<!DOCTYPE svg PUBLIC "-//W3C//DTD SVG 1.1//EN" "http://www.w3.org/Graphics/SVG/1.1/DTD/svg11.dtd">
<svg viewBox="0 0 800 800" preserveAspectRatio="xMinYMin meet" xmlns="http://www.w3.org/2000/svg" version="1.1">
<g fill="none" stroke="black" stroke-linecap="round" stroke-linejoin="round" stroke-width="1.4641">
<g transform="translate(87.52,263.7382) scale(2.049) translate(-124,-238)">
<path id="0" d="M137 254 C137 254 152.152 260.0304 167 263 C176.4318 264.8864 178.2464 265.2873 187 264 C193.5619 263.035 195.1043 261.7518 201 258 C205.3316 255.2435 209 250 209 250 "/>
<path id="1" d="M210 250 C210 250 225.7584 248.7473 241 250 C261.8924 251.7172 262.2863 251.9985 283 256 C306.0971 260.4619 306.2334 264.5387 329 267 C360.4117 270.3959 365.3054 264.7719 394 268 C401.007 268.7883 403.5375 270.8899 409 276 C417.6601 284.1013 417.2607 286.4093 425 297 C426.7027 299.3299 427.6513 299.6464 428 302 C429.4185 311.5746 431.2529 315.6028 429 324 C426.6965 332.5857 423.4326 335.9826 417 343 C413.9624 346.3138 412.1097 346.7422 407 348 C380.7447 354.4628 379.4846 356.0287 352 359 C306.2452 363.9465 305.3246 363.0213 259 364 C234.6411 364.5146 234.1277 361.6649 210 362 C198.6478 362.1577 187 365 187 365 "/>
<path id="2" d="M186 363 C186 363 178.2407 370.3192 172 371 C154.8877 372.8668 137.2986 372.7524 131 369 C127.7919 367.0888 126.8113 355.938 125 343 C123.3709 331.3635 122.0955 329.9074 124 319 C127.2849 300.1863 132.6683 299.2212 136 280 C138.9337 263.0746 137 244 137 244 "/>
<path id="3" d="M251 251 C251 251 253.6133 254.616 254 258 C255.4808 270.9567 255 286 255 286 "/>
<path id="4" d="M255 286 L272 257 "/>
<path id="5" d="M273 256 C273 256 277.3518 258.7036 279 262 C284.6771 273.3543 289 288 289 288 "/>
<path id="6" d="M291 288 L300 256 "/>
<path id="7" d="M301 256 L328 295 "/>
<path id="8" d="M331 295 C331 295 333.0112 282.5914 337 274 C338.7189 270.2977 344 267 344 267 "/>
<path id="9" d="M344 267 L346 265 "/>
<path id="10" d="M328 294 C328 294 324.3954 294.5058 324 295 C323.6234 295.4707 323.6107 298.7275 324 299 C325.6823 300.1776 332.1326 302.4001 334 302 C335.0548 301.774 338.0818 296.8184 338 296 C337.9342 295.3424 333 292 333 292 "/>
<path id="11" d="M291 288 C291 288 287.25 287.75 287 288 C286.75 288.25 286.75 291.75 287 292 C287.25 292.25 290.8462 292.2308 291 292 C291.3462 291.4808 291 286 291 286 "/>
<path id="12" d="M222 246 C222 246 222.2644 249.9769 221 252 C218.0179 256.7714 215.5826 256.7639 212 262 C209.3977 265.8034 207.761 269.3268 208 271 C208.1661 272.1627 211.3025 274.9625 214 276 C216.3832 276.9166 218.3613 276.7197 221 276 C222.8163 275.5047 224.1243 274.6264 225 273 C226.9737 269.3346 227.8084 267.5974 228 263 C228.2633 256.681 225.6731 250.144 226 249 C226.0417 248.854 229.4667 248.3667 232 249 C234.85 249.7125 236.3324 250.0545 238 252 C241.3059 255.8569 243.7145 258.5745 244 263 C244.495 270.6725 240 283 240 283 "/>
<path id="13" d="M226 246 C226 246 226.964 239.592 228 239 C230.1706 237.7597 240.0009 237.9906 240 238 C239.9948 238.0524 226.9568 248.982 227 249 C227.1876 249.0782 247.9124 249.5322 264 248 C266.2923 247.7817 267.6006 246.7492 269 245 C270.8792 242.651 272 238 272 238 "/>
<path id="14" d="M254 285 C254 285 251.8874 288.2117 252 289 C252.1039 289.7276 253.6886 291.5629 255 292 C256.9671 292.6557 260.5891 292.4696 261 292 C261.6946 291.2061 262.448 286.4641 262 284 C261.7968 282.8825 259 281 259 281 "/>
<path id="15" d="M126 356 C126 356 139.8285 357.7599 153 357 C165.3347 356.2884 165.5846 353.6995 178 353 C200.6402 351.7245 201.2542 354.3224 224 353 C243.9227 351.8417 244.1688 348.4685 264 348 C306.9826 346.9847 307.9625 351.2296 351 350 C377.3203 349.248 379.1296 348.5219 404 344 C410.4788 342.822 411.6922 341.6316 417 338 C420.348 335.7093 420.1187 332.9209 423 331 C424.8008 329.7994 429 330 429 330 "/>
</g>
</g>
</svg>
