<?xml version="1.0" encoding="utf-8"?>
<!DOCTYPE svg PUBLIC "-//W3C//DTD SVG 1.1//EN" "http://www.w3.org/Graphics/SVG/1.1/DTD/svg11.dtd">
<svg viewBox="0 0 800 800" preserveAspectRatio="xMinYMin meet" xmlns="http://www.w3.org/2000/svg" version="1.1">
<g fill="none" stroke="black" stroke-linecap="round" stroke-linejoin="round" stroke-width="1.3201">
<g transform="translate(87.52,215.9209) scale(2.2726) translate(-111,-176)">
<path id="0" d="M138 177 C138 177 163.5765 175.2134 179 180 C186.9654 182.472 192.584 189.022 196 195 C197.7179 198.0063 196.3645 207.0553 195 208 C191.1164 210.6886 182.3704 212.1164 170 213 C148.0468 214.5681 142.1805 214.9824 125 213 C122.0632 212.6611 118.8516 209.5548 118 207 C116.4671 202.4014 116.3045 196.8744 118 192 C119.2188 188.4961 121.6252 187.0433 126 184 C132.6323 179.3862 141 176 141 176 "/>
<path id="1" d="M200 206 C200 206 198.1894 215.6545 200 220 C201.8322 224.3972 204.9675 228.3954 210 230 C233.9735 237.6437 239.8798 237.4618 269 242 C277.6112 243.342 278.4813 240.606 287 242 C305.2077 244.9794 305.8479 245.5976 324 251 C347.6799 258.0476 356.7845 256.6823 371 267 C379.7429 273.3456 382.3223 282.27 386 296 C389.0074 307.2276 387.0921 310.9869 386 323 C385.7463 325.7909 384.7781 327.5452 383 329 C380.6496 330.9231 379.0679 330.8377 375 332 C365.1583 334.8119 364.9643 335.3842 355 337 C346.7827 338.3325 346.4917 337.8398 338 338 C320.0374 338.3389 319.204 339.3763 302 338 C295.1566 337.4525 294.9209 334.769 288 334 C273.0935 332.3437 272.3386 334.4686 257 333 C225.5461 329.9885 225.1993 326.6138 194 325 C167.9752 323.6539 167.1539 327 141 327 C133.1045 327 129.9853 327.5923 125 325 C120.6935 322.7606 119.0603 319.6106 116 314 C113.5692 309.5436 113.5699 308.4707 113 303 C111.1256 285.0062 110.4431 284.1005 111 266 C111.424 252.2192 111.8812 250.1289 115 238 C115.8902 234.538 118.8008 234.3978 120 231 C121.4165 226.9865 119.5751 224.7998 121 221 C122.0816 218.1158 124.782 217.6796 126 215 C126.7361 213.3805 126 210 126 210 "/>
<path id="2" d="M265 243 C265 243 259.544 243.1347 256 245 C250.9902 247.6367 247.6056 249.2536 246 253 C243.2742 259.3602 244 273 244 273 "/>
<path id="3" d="M290 246 C290 246 283.3111 255.2708 280 264 C278.2711 268.558 280.0379 273.6161 279 275 C278.3817 275.8245 271 276 271 276 "/>
<path id="4" d="M224 230 L209 242 "/>
<path id="5" d="M116 225 L115 200 "/>
</g>
</g>
</svg>
