<?xml version="1.0" encoding="utf-8"?>
<!DOCTYPE svg PUBLIC "-//W3C//DTD SVG 1.1//EN" "http://www.w3.org/Graphics/SVG/1.1/DTD/svg11.dtd">
<svg viewBox="0 0 800 800" preserveAspectRatio="xMinYMin meet" xmlns="http://www.w3.org/2000/svg" version="1.1">
<g fill="none" stroke="black" stroke-linecap="round" stroke-linejoin="round" stroke-width="0.99366">
<g transform="translate(87.52,185.6417) scale(3.0191) translate(-146,-187.4167)">
<path id="0" d="M176 325.4167 L310 328.4167 "/>
<path id="1" d="M176 325.4167 C176 325.4167 169.9984 323.701 166 320.4167 C156.7076 312.7836 151.5556 310.7723 148 302.4167 C143.8636 292.6961 144.595 286.0614 146 273.4167 C146.8191 266.0446 148.8628 263.2088 153 257.4167 C155.1108 254.4615 156.9552 253.9897 161 252.4167 C165.3838 250.7119 166.1021 250.4983 171 250.4167 C195.4001 250.01 196.7722 252.4855 221 251.4167 C229.8153 251.0278 230.8539 250.5846 239 247.4167 C248.1181 243.8708 248.5947 243.0903 257 237.4167 C268.3684 229.743 268.4436 229.2704 279 220.4167 C283.818 216.3758 284.9412 216.3448 288 211.4167 C293.3656 202.772 297 191.4167 297 191.4167 "/>
<path id="2" d="M347 196.4167 C347 196.4167 345.9217 207.1726 347 217.4167 C348.881 235.2861 352.392 235.7833 353 253.4167 C353.8547 278.2042 350 304.4167 350 304.4167 "/>
<path id="3" d="M311 329.4167 C311 329.4167 334.279 326.8121 346 322.4167 C348.4922 321.4821 349.9458 318.2819 351 314.4167 C352.6068 308.525 352 300.4167 352 300.4167 "/>
<path id="4" d="M173 264.4167 C173 264.4167 185.0811 267.4437 197 268.4167 C209.2489 269.4166 222 268.4167 222 268.4167 "/>
<path id="5" d="M157 262.4167 C157 262.4167 165.5131 261.5182 173 262.4167 C177.3798 262.9423 182 265.4167 182 265.4167 "/>
<path id="6" d="M151 273.4167 C151 273.4167 156.435 272.3705 161 273.4167 C179.4979 277.6558 180.1779 280.0731 199 284.4167 C205.6074 285.9414 213 285.4167 213 285.4167 "/>
<path id="7" d="M158 281.4167 C158 281.4167 147.999 281.4163 148 281.4167 C148.0048 281.4182 170.1307 286.5413 192 292.4167 C203.5881 295.5299 210.3485 297.5965 215 299.4167 C215.1414 299.472 215 301.4167 215 301.4167 "/>
<path id="8" d="M155 299.4167 C155 299.4167 165.5442 299.0915 175 301.4167 C195.3942 306.4316 216 314.4167 216 314.4167 "/>
<path id="9" d="M164 314.4167 L225 322.4167 "/>
<path id="10" d="M297 192.4167 C297 192.4167 301.1329 189.0834 305 188.4167 C314.4222 186.7921 316.2309 186.5547 326 187.4167 C332.2379 187.9671 333.2214 188.653 339 191.4167 C344.1721 193.8903 349 198.4167 349 198.4167 "/>
<path id="11" d="M297 190.4167 C297 190.4167 309.2368 201.9995 319 205.4167 C325.3237 207.63 328.9272 206.2396 337 204.4167 C343.3583 202.9809 350 198.4167 350 198.4167 "/>
</g>
</g>
</svg>
