<?xml version="1.0" encoding="utf-8"?>
<!DOCTYPE svg PUBLIC "-//W3C//DTD SVG 1.1//EN" "http://www.w3.org/Graphics/SVG/1.1/DTD/svg11.dtd">
<svg viewBox="0 0 800 800" preserveAspectRatio="xMinYMin meet" xmlns="http://www.w3.org/2000/svg" version="1.1">
<g fill="none" stroke="black" stroke-linecap="round" stroke-linejoin="round" stroke-width="1.1953">
<g transform="translate(228.0733,87.52) scale(2.5099) translate(-194,-108)">
<path id="0" d="M202 118 C202 118 196.0867 137.6977 194 157 C192.1679 173.9468 192.8932 174.6603 194 192 C195.8778 221.4195 198.0317 221.4748 200 251 C203.5236 303.8537 198.7518 346.8467 205 357 C206.9652 360.1935 234.6247 356.9584 264 355 C294.5013 352.9666 317.0864 354.4787 325 349 C328.7653 346.3933 328.2311 329.4788 329 310 C331.2204 253.7498 331.7424 253.0539 331 197 C330.7499 178.1193 330.1837 177.6779 327 159 C322.7304 133.9516 321.3575 111.6022 316 109 C301.6541 102.032 268.0342 106.7991 222 108 C211.6618 108.2697 204.818 109.9175 201 112 C200.1166 112.4818 200 120 200 120 "/>
<path id="1" d="M314 230 C314 230 313.6519 226.5433 313 226 C312.1224 225.2686 309.1382 224.4826 308 225 C305.8147 225.9933 302.6085 229.0225 302 231 C301.5049 232.6091 303.0669 237.4062 304 238 C305.3011 238.828 310.408 238.864 313 238 C314.248 237.584 315.869 235.3104 316 234 C316.1768 232.2324 314 228 314 228 "/>
<path id="2" d="M256 168 C256 168 253.9542 171.9083 254 172 C254.0306 172.0611 257.8831 172.1169 258 172 C258.0584 171.9416 257 169 257 169 "/>
<path id="3" d="M235 139 C235 139 239.9968 137.9873 240 138 C240.1587 138.6349 237.6317 150.0424 238 151 C238.0811 151.2108 245 151 245 151 "/>
<path id="4" d="M252 137 L252 153 "/>
</g>
</g>
</svg>
