<?xml version="1.0" encoding="utf-8"?>
<!DOCTYPE svg PUBLIC "-//W3C//DTD SVG 1.1//EN" "http://www.w3.org/Graphics/SVG/1.1/DTD/svg11.dtd">
<svg viewBox="0 0 800 800" preserveAspectRatio="xMinYMin meet" xmlns="http://www.w3.org/2000/svg" version="1.1">
<g fill="none" stroke="black" stroke-linecap="round" stroke-linejoin="round" stroke-width="1.3585">
<g transform="translate(229.9579,87.52) scale(2.2083) translate(-187,-114.1333)">
<path id="0" d="M216 135.1333 L318 135.1333 "/>
<path id="1" d="M214 136.1333 L212 200.1333 "/>
<path id="2" d="M213 200.1333 C213 200.1333 214.47 220.8607 213 238.1333 C212.6387 242.3789 209.1858 243.0457 209 247.1333 C208.2936 262.6746 211 282.1333 211 282.1333 "/>
<path id="3" d="M212 278.1333 C212 278.1333 212.021 294.6388 210 310.1333 C209.0903 317.108 206.4513 317.2731 206 324.1333 C204.036 353.9857 205 386.1333 205 386.1333 "/>
<path id="4" d="M319 137.1333 L321 224.1333 "/>
<path id="5" d="M321 377.1333 L321 220.1333 "/>
<path id="6" d="M206 387.1333 C206 387.1333 313.0928 389.5437 324 388.1333 C324.0064 388.1325 322 372.1333 322 372.1333 "/>
<path id="7" d="M325 389.1333 C325 389.1333 328.0351 388.5819 329 389.1333 C330.2751 389.8619 332 393.1333 332 393.1333 "/>
<path id="8" d="M318 136.1333 L323 132.1333 "/>
<path id="9" d="M213 136.1333 L205 131.1333 "/>
<path id="10" d="M206 388.1333 C206 388.1333 205.391 391.7423 204 393.1333 C201.8141 395.3192 197 397.1333 197 397.1333 "/>
<path id="11" d="M202 130.1333 L201 226.1333 "/>
<path id="12" d="M197 396.1333 C197 396.1333 194.8272 309.9187 197 232.1333 C197.2006 224.9526 202 217.1333 202 217.1333 "/>
<path id="13" d="M332 391.1333 C332 391.1333 328.9157 384.001 328 377.1333 C326.9919 369.5726 328 361.1333 328 361.1333 "/>
<path id="14" d="M330 363.1333 C330 363.1333 328 357.5355 328 352.1333 C328 248.5102 330.458 243.2572 330 141.1333 C329.9739 135.3186 327 129.1333 327 129.1333 "/>
<path id="15" d="M203 127.1333 C203 127.1333 242.0962 124.7158 278 125.1333 C283.2842 125.1948 283.5736 127.6904 289 128.1333 C307.3768 129.6335 327 129.1333 327 129.1333 "/>
<path id="16" d="M325 389.1333 L331 395.1333 "/>
<path id="17" d="M217 245.1333 L216 271.1333 "/>
<path id="18" d="M217 246.1333 C217 246.1333 219.9957 246.0936 220 246.1333 C220.3707 249.5936 220.1587 273.3401 220 274.1333 C219.9887 274.19 215 271.1333 215 271.1333 "/>
<path id="19" d="M220 255.1333 C220 255.1333 233.4776 255.053 234 255.1333 C234.0258 255.1373 233 257.1333 233 257.1333 "/>
<path id="20" d="M197 397.1333 L190 397.1333 "/>
<path id="21" d="M333 393.1333 L338 393.1333 "/>
<path id="22" d="M193 114.1333 L335 115.1333 "/>
<path id="23" d="M194 115.1333 L192 115.1333 "/>
<path id="24" d="M190 114.1333 L190 175.1333 "/>
<path id="25" d="M190 395.1333 C190 395.1333 187.0559 388.4735 187 382.1333 C186.0824 277.9804 188 168.1333 188 168.1333 "/>
<path id="26" d="M335 393.1333 C335 393.1333 340.9998 393.144 341 393.1333 C341.4926 359.1422 340.4551 218.2656 339 117.1333 C338.9893 116.39 337 115.1333 337 115.1333 "/>
</g>
</g>
</svg>
