<?xml version="1.0" encoding="utf-8"?>
<!DOCTYPE svg PUBLIC "-//W3C//DTD SVG 1.1//EN" "http://www.w3.org/Graphics/SVG/1.1/DTD/svg11.dtd">
<svg viewBox="0 0 800 800" preserveAspectRatio="xMinYMin meet" xmlns="http://www.w3.org/2000/svg" version="1.1">
<g fill="none" stroke="black" stroke-linecap="round" stroke-linejoin="round" stroke-width="1.6705">
<g transform="translate(87.52,148.5793) scale(1.7959) translate(-104,-126.2)">
<path id="0" d="M196 387.2 C196 387.2 193.1929 380.0812 193 373.2 C191.726 327.7622 191.3303 324.8656 193 280.2 C193.254 273.4043 196.655 273.0132 197 266.2 C198.5788 235.0184 195.4744 232.8572 197 201.2 C197.427 192.3395 197.5307 191.1299 201 183.2 C207.5764 168.1683 207.8463 161.7781 218 153.2 C231.6802 141.6426 239.509 139.9864 259 134.2 C268.6117 131.3465 270.6005 133.8323 282 134.2 C285.981 134.3284 287.0584 133.5955 290 135.2 C301.7978 141.6351 306.4586 142.4086 315 152.2 C324.6746 163.2904 326.6403 167.3769 331 182.2 C335.9213 198.9326 334.4504 201.2403 335 220.2 C337.4375 304.2931 337 389.2 337 389.2 "/>
<path id="1" d="M185 395.2 C185 395.2 180.7246 298.604 182 207.2 C182.1838 194.0292 183.1979 192.2054 188 180.2 C192.6715 168.5213 194.1347 167.769 202 157.2 C209.8598 146.6383 211.0843 145.0869 220 137.2 C222.6612 134.8458 223.9643 135.5873 228 134.2 C239.9534 130.091 240.3175 127.6378 252 126.2 C271.1711 123.8405 275.5297 122.4564 293 126.2 C306.7267 129.1414 312.9606 132.3811 322 141.2 C329.5387 148.5548 329.5236 153.6101 334 166.2 C337.2766 175.4154 338 186.2 338 186.2 "/>
<path id="2" d="M338 174.2 C338 174.2 346.3193 197.3421 348 220.2 C353.6953 297.6566 353 378.2 353 378.2 "/>
<path id="3" d="M302 301.2 C302 301.2 299.1534 302.3151 299 302.2 C298.7272 301.9954 298.1528 300.1865 298 298.2 C297.1726 287.4432 295.8978 277.932 297 276.2 C297.4925 275.4261 306.4521 274.8791 312 276.2 C314.6595 276.8332 317.4419 279.0473 318 281.2 C319.8951 288.5095 320.0769 300.7232 319 303.2 C318.7112 303.8641 311.0149 305.004 308 304.2 C306.5019 303.8005 304.4037 301.4609 304 299.2 C302.3624 290.0292 301.8233 282.554 303 276.2 C303.2636 274.7765 306.231 273.123 309 272.2 C311.2656 271.4448 314.2504 271.4504 315 272.2 C316.9988 274.1988 319.2458 278.1093 320 283.2 C321.0183 290.0732 320.1992 298.0008 319 299.2 C317.9419 300.2581 308.6288 300.4181 304 299.2 C302.3596 298.7683 300.3996 296.3978 300 294.2 C298.8139 287.6762 298.8139 283.7238 300 277.2 C300.3996 275.0022 301.8066 273.6623 304 272.2 C306.991 270.206 308.1321 270.0926 312 269.2 C314.2249 268.6866 315.9691 268.5557 317 269.2 C318.2628 269.9893 319.5843 271.7892 320 274.2 C321.8341 284.8377 322.9486 294.6767 322 298.2 C321.8212 298.8642 314.777 300.8346 313 300.2 C311.3915 299.6255 309.37 296.7229 308 293.2 C306.196 288.5612 306.2534 287.5223 306 282.2 C305.7727 277.4259 305.7246 273.7073 307 272.2 C308.3478 270.6072 317 269.2 317 269.2 "/>
<path id="4" d="M302 302.2 L317 303.2 "/>
<path id="5" d="M104 396.2 C104 396.2 183.7556 395.0208 238 396.2 C239.6456 396.2358 240.322 399.1322 242 399.2 C280.6969 400.7635 290.3641 402.4829 337 400.2 C360.7679 399.0365 361.0022 395.2377 385 392.2 C400.3023 390.263 411.6459 390.7618 416 390.2 C416.0359 390.1954 415.9858 388.2008 416 388.2 C420.3608 387.9508 441.8651 388.7075 451 388.2 C451.29 388.1839 452 386.2 452 386.2 "/>
<path id="6" d="M354 374.2 C354 374.2 352.0038 374.1692 352 374.2 C351.7538 376.1692 352 390.2 352 390.2 "/>
<path id="7" d="M344 387.2 L342 391.2 "/>
<path id="8" d="M339 388.2 L339 406.2 "/>
<path id="9" d="M354 383.2 L354 394.2 "/>
</g>
</g>
</svg>
