<?xml version="1.0" encoding="utf-8"?>
<!DOCTYPE svg PUBLIC "-//W3C//DTD SVG 1.1//EN" "http://www.w3.org/Graphics/SVG/1.1/DTD/svg11.dtd">
<svg viewBox="0 0 800 800" preserveAspectRatio="xMinYMin meet" xmlns="http://www.w3.org/2000/svg" version="1.1">
<g fill="none" stroke="black" stroke-linecap="round" stroke-linejoin="round" stroke-width="1.8385">
<g transform="translate(202.5583,87.52) scale(1.6317) translate(-143,-46)">
<path id="0" d="M155 48 C155 48 173.6517 48.0596 191 51 C202.4931 52.948 202.8835 57.5861 214 58 C292.855 60.9361 369.9229 47.6652 379 58 C390.893 71.5409 377.6204 153.0052 380 247 C380.6059 270.9315 384.7245 271.1698 385 295 C385.7164 356.9659 382 420 382 420 "/>
<path id="1" d="M156 46 C156 46 157.4359 155.3457 154 261 C153.5016 276.3251 149.2159 276.5253 148 292 C143.7737 345.7892 138.3064 390.4635 143 401 C144.1014 403.4724 170.274 400.3704 197 402 C210.9629 402.8514 211.6267 402.6567 225 406 C239.0651 409.5163 238.8022 412.0177 253 416 C279.569 423.4523 280.3805 426.3784 307 429 C344.5599 432.6991 375.743 431.1362 385 429 C385.493 428.8862 385.4906 415.6608 385 411 C384.967 410.6866 383 410 383 410 "/>
<path id="2" d="M245 59 C245 59 248.686 67.6466 249 76 C251.1247 132.5179 248.2908 134.7432 250 192 C250.2665 200.9266 252.6925 201.0816 253 210 C254.1721 243.9918 254.5454 245.3877 253 279 C252.5927 287.858 249.9544 288.001 249 297 C246.4969 320.6002 246.6148 321.0241 246 345 C245.1177 379.4102 246 414 246 414 "/>
<path id="3" d="M255 62 C255 62 258.7021 83.0704 259 104 C260.6931 222.9382 258.5494 223.59 259 343 C259.049 355.9921 258.5607 356.7663 260 369 C260.4603 372.9126 262.5869 373.1442 263 377 C263.9929 386.267 264.4343 388.1076 263 397 C262.1533 402.2494 259.4827 402.5633 258 408 C256.6481 412.957 257 419 257 419 "/>
<path id="4" d="M274 220 C274 220 271.0433 220.6968 271 221 C270.3936 225.2445 270.4118 238.6471 271 241 C271.0368 241.1471 275.7496 241.3934 276 241 C276.9657 239.4825 278.6169 234.1128 278 230 C277.4379 226.2524 273 221 273 221 "/>
<path id="5" d="M229 209 C229 209 309.5686 208.5677 314 209 C314.1157 209.0113 312.5385 215.022 311 217 C310.3879 217.787 308.9464 217.9763 307 218 C269.1614 218.4614 238.5923 219.2298 229 218 C228.8423 217.9798 229 208 229 208 "/>
</g>
</g>
</svg>
