<?xml version="1.0" encoding="utf-8"?>
<!DOCTYPE svg PUBLIC "-//W3C//DTD SVG 1.1//EN" "http://www.w3.org/Graphics/SVG/1.1/DTD/svg11.dtd">
<svg viewBox="0 0 800 800" preserveAspectRatio="xMinYMin meet" xmlns="http://www.w3.org/2000/svg" version="1.1">
<g fill="none" stroke="black" stroke-linecap="round" stroke-linejoin="round" stroke-width="1.6129">
<g transform="translate(188.89,87.52) scale(1.86) translate(-174,-61)">
<path id="0" d="M375 61 C375 61 373.3812 106.1026 375 149 C375.3339 157.848 378.6208 158.1266 379 167 C381.0669 215.3656 376.3835 217.6704 380 266 C381.7794 289.7799 387.117 290.1494 390 314 C392.5264 334.8999 391 357 391 357 "/>
<path id="1" d="M374 63 C374 63 316.7945 87.6849 262 97 C221.06 103.9598 183.9887 93.8218 174 97 C172.9887 97.3218 172.2184 112.232 174 125 C175.0077 132.2218 178.7938 132.763 180 140 C181.5831 149.4986 179.1041 150.8462 180 161 C180.5659 167.4137 181.0274 167.674 183 174 C195.472 213.9965 194.6778 214.6138 209 254 C220.6004 285.9012 223.6377 285.3985 235 317 C239.4221 329.299 239.778 330.1687 241 343 C242.7016 360.8672 239.974 361.8736 241 380 C241.4484 387.9216 243.0447 395.851 244 396 C262.4544 398.8782 301.2759 400.0453 350 397 C360.3772 396.3514 361.3978 389.871 372 388 C385.0346 385.6998 399.4747 389.6888 401 388 C402.7526 386.0596 402.0244 367.4112 400 357 C399.5998 354.9419 395.5843 354.5744 394 352 C392.3176 349.2661 392 344 392 344 "/>
<path id="2" d="M292 99 C292 99 298.6593 116.7384 300 134 C302.5594 166.9518 300 202 300 202 "/>
<path id="3" d="M232 111 C232 111 233.9882 111.7169 234 112 C234.5118 124.2834 232.1296 136.0204 234 159 C235.5747 178.3467 238.8847 178.6601 241 198 C242.3299 210.1587 239.3758 211.3599 241 223 C242.2238 231.7707 247 241 247 241 "/>
<path id="4" d="M210 255 C210 255 209.8125 250.325 211 247 C212.0555 244.0445 212.5324 242.6216 215 241 C228.1016 232.3904 230.0344 229.7748 246 224 C275.7184 213.2508 282.1678 216.1996 309 207 C312.6645 205.7436 313.1115 200.4702 316 200 C328.7754 197.9203 334.5178 198.2764 352 200 C369.3317 201.7088 387 207 387 207 "/>
<path id="5" d="M248 320 C248 320 267.0273 307.1284 287 299 C309.1365 289.991 310.736 288.8374 334 285 C357.7456 281.0832 384 283 384 283 "/>
<path id="6" d="M252 322 L235 322 "/>
<path id="7" d="M286 238 C286 238 300.7995 236.2621 312 239 C321.152 241.2372 325.9665 243.9665 331 249 C333.6035 251.6035 333.6477 255.1865 334 261 C334.6056 270.9928 334.5428 274.286 333 282 C332.6507 283.7466 331.0477 285.0549 329 286 C325.5242 287.6042 324.4207 287.8551 320 288 C294.6427 288.8314 273.0131 291.3421 268 288 C265.4935 286.329 263.6476 262.821 266 252 C266.834 248.1637 272.6317 243.5338 278 242 C286.3106 239.6255 294.1495 242.8221 301 242 C301.7029 241.9156 303 239 303 239 "/>
<path id="8" d="M312 337 C312 337 319.7984 331.8473 327 331 C343.5071 329.058 359.8846 328.9231 363 331 C364.3846 331.9231 364.4105 343.7163 363 355 C362.023 362.8163 361.7076 367.7558 358 371 C350.6823 377.403 343.5859 379.8535 331 383 C323.9729 384.7568 317.9065 384.404 314 382 C309.9571 379.512 307.2482 373.9943 305 367 C303.3666 361.9183 303.9525 359.7614 305 354 C305.7838 349.689 306.5337 347.4663 309 345 C311.4663 342.5337 318 341 318 341 "/>
<path id="9" d="M329 345 C329 345 328.1897 363.1553 330 378 C330.4639 381.8041 332.6513 385.0559 334 386 C334.7446 386.5212 340 385 340 385 "/>
<path id="10" d="M348 357 C348 357 332.0738 355.22 318 358 C292.8501 362.9679 267 373 267 373 "/>
<path id="11" d="M347 336 C347 336 343.5656 337.6516 342 340 C336.1645 348.7532 335.5692 349.7865 331 360 C327.2076 368.4771 325 378 325 378 "/>
<path id="12" d="M282 262 C282 262 289.4767 261.9498 296 264 C323.7748 272.7292 352 284 352 284 "/>
<path id="13" d="M322 254 C322 254 315.3566 256.3077 312 260 C306.4191 266.1389 307.7375 268.7818 302 276 C292.4907 287.9633 291.5442 288.4558 281 299 C279.0829 300.9171 276.1247 302.0249 276 302 C275.9773 301.9955 276 298 276 298 "/>
<path id="14" d="M260 175 L268 172 "/>
<path id="15" d="M309 148 C309 148 322.5905 149.0696 334 148 C337.323 147.6885 341 145 341 145 "/>
<path id="16" d="M211 159 L198 159 "/>
</g>
</g>
</svg>
