<?xml version="1.0" encoding="utf-8"?>
<!DOCTYPE svg PUBLIC "-//W3C//DTD SVG 1.1//EN" "http://www.w3.org/Graphics/SVG/1.1/DTD/svg11.dtd">
<svg viewBox="0 0 800 800" preserveAspectRatio="xMinYMin meet" xmlns="http://www.w3.org/2000/svg" version="1.1">
<g fill="none" stroke="black" stroke-linecap="round" stroke-linejoin="round" stroke-width="1.1281">
<g transform="translate(188.5774,87.52) scale(2.6594) translate(-160,-140.8167)">
<path id="0" d="M288 145.8167 C288 145.8167 236.2053 146.8411 186 144.8167 C175.0963 144.377 164.2052 140.351 164 140.8167 C161.6665 146.1119 160.5299 172.3738 160 203.8167 C159.0338 261.1427 158.1768 263.16 161 318.8167 C161.5719 330.0903 165.5239 330.4999 167 341.8167 C168.4275 352.7611 167.3687 361.9898 167 364.8167 C166.9937 364.8648 164.026 364.7215 164 364.8167 C163.651 366.0965 163.8342 375.789 164 375.8167 C167.1812 376.3469 182.0891 371.7901 200 370.8167 C227.6527 369.3138 228.4727 369.2162 256 370.8167 C270.8897 371.6823 271.5112 375.2992 286 375.8167 C298.4312 376.2606 309.9563 374.6049 312 372.8167 C312.9817 371.9577 309.4207 363.3128 310 354.8167 C310.8542 342.2886 314.0389 341.6953 315 328.8167 C316.4941 308.7954 314.1399 300.1443 315 287.8167 C315.0463 287.1524 317.9227 286.532 318 285.8167 C319.1681 275.0119 319.3915 267.6518 319 250.8167 C318.9099 246.9437 317.1018 246.6869 317 242.8167 C316.6209 228.4109 318.6346 227.4128 318 212.8167 C317.6583 204.9572 315.2281 204.6873 315 196.8167 C314.2488 170.9004 318.5398 147.7418 316 143.8167 C315.0297 142.3172 282 145.8167 282 145.8167 "/>
<path id="1" d="M302 249.8167 C302 249.8167 300.0801 250.4563 300 250.8167 C299.5565 252.8125 299.1778 256.5556 300 258.8167 C300.4578 260.0756 303.9784 261.8383 304 261.8167 C304.2376 261.5791 306.3503 254.9187 306 252.8167 C305.8518 251.9274 302 249.8167 302 249.8167 "/>
<path id="2" d="M301 256.8167 C301 256.8167 295.1386 267.8078 292 268.8167 C287.5972 270.2319 273 265.8167 273 265.8167 "/>
</g>
</g>
</svg>
