<?xml version="1.0" encoding="utf-8"?>
<!DOCTYPE svg PUBLIC "-//W3C//DTD SVG 1.1//EN" "http://www.w3.org/Graphics/SVG/1.1/DTD/svg11.dtd">
<svg viewBox="0 0 800 800" preserveAspectRatio="xMinYMin meet" xmlns="http://www.w3.org/2000/svg" version="1.1">
<g fill="none" stroke="black" stroke-linecap="round" stroke-linejoin="round" stroke-width="1.5073">
<g transform="translate(239.7794,87.52) scale(1.9903) translate(-246,-96)">
<path id="0" d="M246 98 C246 98 251.6193 159.0522 253 220 C255.1136 313.2987 253 407 253 407 "/>
<path id="1" d="M248 97 C248 97 256.6458 100.566 265 101 C294.1292 102.5132 295.028 101.5168 325 101 C352.9911 100.5174 353.5802 100.9869 381 99 C387.455 98.5322 393.973 95.9168 394 96 C394.9493 98.921 393.0041 117.5875 394 139 C396.9964 203.4227 399.4977 203.5657 402 268 C403.49 306.3683 400.5813 306.6947 402 345 C403.0721 373.9455 404.6309 374.0971 407 403 C407.1217 404.4845 407.1062 405.9717 407 406 C404.9735 406.5404 399.4866 406.9454 392 407 C331.1383 407.4442 329.4185 405.6796 270 407 C263.636 407.1414 257 410 257 410 "/>
<path id="2" d="M329 131 C329 131 328.1717 212.3515 330 231 C330.0526 231.537 334.6684 233 339 233 C355.8451 233 373.5971 232.4295 374 231 C377.6292 218.1223 370.9952 130.464 370 123 C369.9847 122.8854 364.8773 125.5936 360 126 C347.6284 127.031 334 126 334 126 "/>
<path id="3" d="M262 125 C262 125 259.6447 144.6389 260 164 C260.6389 198.8199 259.7443 221.8877 264 234 C264.6991 235.9897 275.3897 237.796 286 238 C300.3904 238.2767 315.1605 235.2177 316 235 C316.0535 234.9861 313.0792 232.6946 313 231 C311.0282 188.8042 315.7953 139.4863 311 128 C310.2095 126.1066 270 128 270 128 "/>
<path id="4" d="M271 273 C271 273 271.7246 357.051 273 376 C273.0165 376.2456 275.5386 376.9453 278 377 C297.6038 377.4356 317.353 378.6589 318 377 C322.131 366.4076 319.046 320.784 317 277 C316.853 273.8547 314.0418 270.2976 313 270 C311.4126 269.5464 307.8832 272.5422 303 273 C292.5509 273.9796 281 273 281 273 "/>
<path id="5" d="M336 270 C336 270 330.0319 360.4533 334 371 C334.5957 372.5833 355.6591 372.1707 374 371 C377.2975 370.7895 380.9477 368.6016 381 368 C381.2836 364.7381 376.5001 357.8019 376 348 C374.0742 310.254 376.8732 306.2394 376 270 C375.9435 267.6546 374.5633 265.0578 374 265 C365.7289 264.1517 337 266 337 266 "/>
<path id="6" d="M388 236 C388 236 384.4941 235.1596 383 236 C378.2002 238.6999 374.4511 241.2119 372 245 C370.7834 246.8802 371.0236 250.4613 372 253 C372.845 255.1969 374.8572 257.4643 377 258 C382.1427 259.2857 390.6346 259.2896 392 258 C393.7346 256.3618 395.6834 246.4672 395 241 C394.6814 238.4514 389 234 389 234 "/>
<path id="7" d="M248 126 C248 126 253.9647 125.8412 254 126 C254.7147 129.2162 254.3704 149.6662 254 153 C253.9954 153.0412 251 153 251 153 "/>
<path id="8" d="M256 340 C256 340 260.6189 339.6951 261 340 C261.2439 340.1951 261.0499 342.002 261 344 C260.5501 361.9943 260.5202 376.9654 260 380 C259.9979 380.012 255 379 255 379 "/>
</g>
</g>
</svg>
