<?xml version="1.0" encoding="utf-8"?>
<!DOCTYPE svg PUBLIC "-//W3C//DTD SVG 1.1//EN" "http://www.w3.org/Graphics/SVG/1.1/DTD/svg11.dtd">
<svg viewBox="0 0 800 800" preserveAspectRatio="xMinYMin meet" xmlns="http://www.w3.org/2000/svg" version="1.1">
<g fill="none" stroke="black" stroke-linecap="round" stroke-linejoin="round" stroke-width="1.4353">
<g transform="translate(248.4629,87.52) scale(2.0902) translate(-198,-107)">
<path id="0" d="M198 156 C198 156 231.4727 138.6678 266 127 C303.1717 114.4385 343 107 343 107 "/>
<path id="1" d="M201 157 C201 157 200.9921 185.1756 203 213 C204.4792 233.4979 207.435 233.9428 208 254 C208.4108 268.5845 205.555 269.0139 205 284 C203.0632 336.2948 201.0276 340.8725 203 389 C203.325 396.9298 209.5118 405.6862 210 406 C210.0506 406.0325 213.0575 400.6809 217 398 C224.6442 392.802 225.8027 392.9417 235 389 C253.6952 380.9878 253.7775 380.6448 273 374 C294.1403 366.6922 314.1817 365.942 316 361 C321.7744 345.3054 312.5763 314.3959 312 268 C311.579 234.1066 311.6328 233.733 314 200 C315.6127 177.0191 318.9783 176.7322 320 154 C320.9475 132.9184 318 111 318 111 "/>
<path id="2" d="M224 268 C224 268 232.6 275.7 234 276 C234.35 276.075 238.0702 271.702 238 271 C237.9161 270.1607 235.3923 267.0253 233 266 C229.8422 264.6466 224 265 224 265 "/>
<path id="3" d="M231 173 C231 173 226.9122 237.0406 229 244 C229.175 244.5832 251.1815 243.9549 252 243 C252.6209 242.2756 247.9795 232.9349 247 223 C244.5529 198.1799 247.2997 187.8105 245 172 C244.7815 170.498 240.2872 167.8284 239 168 C236.6925 168.3077 230 174 230 174 "/>
<path id="4" d="M270 160 C270 160 278.673 154.4696 287 151 C289.9763 149.7599 293.9994 149.9962 294 150 C295.2665 158.5491 299 201.3995 299 232 C299 234.2391 296.0572 237.4857 294 238 C287.9866 239.5033 275.1399 238.5788 275 238 C272.2057 226.4419 272 147 272 147 "/>
<path id="5" d="M222 301 C222 301 219.8142 316.1343 220 331 C220.3102 355.8154 220.9781 376.1475 223 381 C223.2005 381.4813 233.7137 381.1865 240 379 C242.8729 378.0007 246.0611 374.283 246 373 C245.8361 369.5573 241.0916 365.5298 239 358 C236.3049 348.2976 236.5053 347.4421 236 337 C235.0203 316.7529 237.0044 297.7074 236 296 C235.8833 295.8016 216 303 216 303 "/>
<path id="6" d="M278 285 C278 285 278.2626 357.0391 279 362 C279.0145 362.0973 284.1066 359.5872 289 359 C296.085 358.1498 303.2801 359.9119 304 359 C305.1551 357.5369 304.9679 349.1954 304 340 C303.0106 330.6008 300.6474 330.3877 300 321 C298.6901 302.0064 301.9671 286.6284 300 282 C299.5852 281.0239 283 281 283 281 "/>
</g>
</g>
</svg>
