<?xml version="1.0" encoding="utf-8"?>
<!DOCTYPE svg PUBLIC "-//W3C//DTD SVG 1.1//EN" "http://www.w3.org/Graphics/SVG/1.1/DTD/svg11.dtd">
<svg viewBox="0 0 800 800" preserveAspectRatio="xMinYMin meet" xmlns="http://www.w3.org/2000/svg" version="1.1">
<g fill="none" stroke="black" stroke-linecap="round" stroke-linejoin="round" stroke-width="1.5601">
<g transform="translate(254.817,87.52) scale(1.923) translate(-164,0)">
<path id="0" d="M167 107 C167 107 154.5377 305.8677 167 325 C172.2877 333.1177 304.4538 332.7477 309 325 C322.2038 302.4977 320.8222 106.2568 309 83 C306.0681 77.2322 246.1549 81.7363 187 85 C175.6976 85.6236 165.7654 88.2716 164 91 C161.6876 94.5738 165 119 165 119 "/>
<path id="1" d="M272 7 C272 7 270.8227 31.0228 272 53 C272.2601 57.8544 274.4944 58.1123 275 63 C275.9318 72.0072 274.0019 81.501 275 82 C279.255 84.1275 314.1019 83.0473 315 83 C315.0414 82.9978 313.0308 81.2781 313 80 C312.1917 46.4554 317.4118 7.3529 313 0 C311.4118 -2.6471 265 0 265 0 "/>
<path id="2" d="M271 0 C271 0 274.2973 3.6269 275 7 C276.5437 14.41 276 24 276 24 "/>
<path id="3" d="M173 126 C173 126 176.0057 144.9144 176 145 C175.9989 145.017 172.2019 142.548 172 141 C171.1574 134.5399 170.7808 124.92 173 122 C175.2102 119.0918 182.2403 117.0512 191 116 C205.9738 114.2031 223 116 223 116 C223 116 221 116 221 116 C221 118.3985 223.2971 131.2747 223 139 C222.9596 140.0499 221.2015 141.8955 220 142 C204.1243 143.3805 192.3447 143.341 177 143 C176.2701 142.9838 175 141 175 141 "/>
<path id="4" d="M239 118 C239 118 243.9994 137.9914 244 138 C244.0002 138.0027 240.5787 134.7488 240 132 C238.9005 126.7773 238.7043 120.5734 240 119 C241.5479 117.1205 247.0945 115.677 254 115 C271.8 113.2549 283.1235 111.6187 291 114 C293.1962 114.664 295.2756 121.1024 297 128 C298.5853 134.3413 298.2268 141.9464 298 142 C292.5217 143.2949 242 141 242 141 "/>
<path id="5" d="M176 172 C176 172 177 198 177 198 C177 198 175.6765 182.4116 176 174 C176.028 173.2709 177.1992 172.0649 178 172 C190.9936 170.9465 210.2468 169.1121 213 171 C214.3755 171.9432 214.4497 195.0205 213 196 C209.8247 198.1455 176 196 176 196 "/>
<path id="6" d="M230 173 C230 173 239.9462 197.7938 240 198 C240.0059 198.0227 236.3453 196.8977 236 196 C234.8892 193.1118 236.3898 189.8644 235 185 C233.5926 180.074 229.7421 175.9026 230 175 C230.1977 174.308 234.7762 171.2816 239 171 C262.2462 169.4503 283.6656 168.2511 290 171 C291.4881 171.6458 293.8805 191.9249 292 194 C288.7077 197.6329 276.1877 200.421 261 203 C250.7281 204.7443 239 203 239 203 "/>
<path id="7" d="M174 230 C174 230 174.0352 260.6714 174 261 C173.997 261.0284 171.1234 259.1931 171 258 C170.0306 248.6291 169.3846 233.4483 171 232 C173.0096 230.1983 195.0975 229.2764 200 232 C203.0617 233.701 204.4052 242.362 207 252 C207.7114 254.6424 207.1537 257.9671 207 258 C203.6537 258.7171 189.1051 258.9779 179 258 C177.8125 257.8851 176 255 176 255 "/>
<path id="8" d="M244 229 C244 229 248.1381 242.326 251 255 C251.5188 257.2976 251.2155 259.4612 251 260 C250.9655 260.0862 249.1891 260.2601 249 260 C247.0021 257.2529 244.1513 254.1808 243 249 C241.5064 242.2789 241.3483 235.8905 243 233 C244.224 230.8579 249.2508 228.7371 255 228 C267.2797 226.4257 278.3579 225.2944 282 228 C285.6845 230.7371 286.6511 241.4415 290 254 C290.4761 255.7856 290.0432 257.9962 290 258 C284.2932 258.4962 244 258 244 258 "/>
<path id="9" d="M187 282 C187 282 194.876 307.2247 195 308 C195.0075 308.0466 191.9717 307.8097 191 307 C189.9278 306.1065 189.212 304.9079 189 303 C187.8396 292.5567 186.4416 284.2077 188 280 C188.556 278.4987 193.6828 276.5908 199 276 C210.6153 274.7094 222.0384 274.1837 224 276 C225.9732 277.827 227.181 296.8663 226 301 C225.7168 301.9911 220.8847 303.5273 216 304 C206.0315 304.9647 199.4647 304.6088 195 304 C194.7004 303.9591 193.875 301.25 194 301 C194.125 300.75 197 300 197 300 "/>
<path id="10" d="M249 281 C249 281 254.0037 291.4642 258 302 C259.4337 305.7798 260 307.7063 260 310 C260 310.5734 258.0668 312.0382 258 312 C257.3431 311.6246 253.6084 308.7378 253 306 C251.1843 297.8295 251.1424 285.4014 252 285 C256.7073 282.7966 293.806 281.7701 300 284 C301.1494 284.4138 301.2985 293.5304 302 303 C302.2931 306.9563 302.8805 309.3858 302 311 C301.3096 312.2657 298.7637 313.8308 296 314 C276.7819 315.1766 261.2304 314.7482 253 314 C252.739 313.9763 252 310 252 310 "/>
</g>
</g>
</svg>
