<?xml version="1.0" encoding="utf-8"?>
<!DOCTYPE svg PUBLIC "-//W3C//DTD SVG 1.1//EN" "http://www.w3.org/Graphics/SVG/1.1/DTD/svg11.dtd">
<svg viewBox="0 0 800 800" preserveAspectRatio="xMinYMin meet" xmlns="http://www.w3.org/2000/svg" version="1.1">
<g fill="none" stroke="black" stroke-linecap="round" stroke-linejoin="round" stroke-width="1.3873">
<g transform="translate(139.4198,87.52) scale(2.1625) translate(-181,-42)">
<path id="0" d="M276 163 C276 163 258.4487 153.4489 242 150 C229.4594 147.3705 227.5091 148.9868 214 150 C208.1018 150.4424 204.5952 150.1688 202 153 C192.3142 163.5663 187.0125 170.8257 181 186 C178.0899 193.3446 179.7606 197.0143 181 206 C181.5919 210.2915 182.4081 213.1338 185 215 C191.7963 219.8933 195.9593 222.6711 206 224 C227.2658 226.8146 232.9517 226.1103 253 224 C257.535 223.5226 257.9388 219.752 263 218 C270.1405 215.5283 279 215 279 215 "/>
<path id="1" d="M274 161 C274 161 278.1275 165.7871 282 168 C284.1207 169.2118 286.9127 168.2234 288 169 C288.6246 169.4461 288.7061 172.9595 289 173 C294.3027 173.7314 308.6239 173.8376 317 173 C317.688 172.9312 318.2075 170.2161 319 170 C321.531 169.3097 327.2336 169.3102 328 170 C328.7749 170.6974 329 174.542 329 179 C329 197.8225 329.5461 212.4807 328 217 C327.8345 217.4839 321.3911 218.0782 316 217 C309.7104 215.7421 308.4503 215.1554 303 212 C299.7515 210.1193 299.6348 206.988 297 206 C293.8063 204.8024 291.8272 205.6552 287 206 C285.0346 206.1404 284.0807 205.9965 283 207 C278.364 211.3048 273 219 273 219 "/>
<path id="2" d="M327 170 C327 170 334.9043 178.1978 339 184 C339.5468 184.7746 339.3286 186.7536 339 187 C337.5031 188.1227 332.3732 188.7985 331 190 C330.5477 190.3958 330.3942 193.2211 331 194 C332.5819 196.0339 336.9167 196.6981 338 199 C339.6287 202.461 340.1976 208.8442 339 211 C337.7326 213.2813 328 217 328 217 "/>
<path id="3" d="M293 174 C293 174 285.9046 148.7455 277 125 C274.0858 117.2287 273.66 115.1505 269 110 C265.6572 106.3053 263.3948 105.1035 258 104 C243.1693 100.9665 225 101 225 101 "/>
<path id="4" d="M290 207 C290 207 287.5357 218.1726 283 228 C275.7285 243.755 274.1969 252.6246 266 259 C259.7969 263.8246 251.1729 263.2485 238 263 C226.1622 262.7766 213 258 213 258 "/>
<path id="5" d="M293 169 C293 169 299.045 135.8334 302 103 C303.5038 86.2909 304.78 82.0659 302 69 C300.7631 63.1866 292 56 292 56 "/>
<path id="6" d="M296 210 C296 210 295.0394 219.6748 296 228 C296.4454 231.8602 298.7708 232.18 299 236 C300.1768 255.6136 301.2754 258.8219 299 278 C298.034 286.1418 296.4034 287.352 292 295 C287.2032 303.3313 286.8128 304.1872 280 311 C269.2941 321.7059 256 331 256 331 "/>
<path id="7" d="M297 171 C297 171 336.9838 138.2485 351 112 C358.1065 98.6915 353.2234 89.4091 352 68 C351.2682 55.1935 347 42 347 42 "/>
<path id="8" d="M299 211 C299 211 326.6371 245.0837 343 270 C344.4893 272.2678 344.3348 275.182 343 278 C336.5717 291.5708 332.1598 292.7854 325 308 C320.5662 317.4219 319 329 319 329 "/>
<path id="9" d="M304 168 C304 168 312.1569 160.6027 321 157 C338.0763 150.043 340.0165 152.4628 358 146 C371.7501 141.0586 381.4943 132.3334 385 134 C393.806 138.1865 419 175 419 175 "/>
<path id="10" d="M308 219 C308 219 318.1927 226.4707 329 232 C339.3982 237.32 340.7319 235.6092 351 241 C360.3364 245.9016 360.6259 246.3889 369 253 C379.4275 261.2323 386.5492 271.1838 389 271 C391.8351 270.7874 400.0932 261.066 409 250 C416.314 240.9129 422 230 422 230 "/>
<path id="11" d="M339 180 C339 180 360.1998 184.1428 362 185 C362.027 185.0129 360 190 360 190 "/>
<path id="12" d="M343 209 C343 209 355.6835 205.2068 357 204 C357.248 203.7727 355 198 355 198 "/>
</g>
</g>
</svg>
