<?xml version="1.0" encoding="utf-8"?>
<!DOCTYPE svg PUBLIC "-//W3C//DTD SVG 1.1//EN" "http://www.w3.org/Graphics/SVG/1.1/DTD/svg11.dtd">
<svg viewBox="0 0 800 800" preserveAspectRatio="xMinYMin meet" xmlns="http://www.w3.org/2000/svg" version="1.1">
<g fill="none" stroke="black" stroke-linecap="round" stroke-linejoin="round" stroke-width="0.89766">
<g transform="translate(87.52,236.2404) scale(3.342) translate(-168,-111.1333)">
<path id="0" d="M254 188.1333 L256 183.1333 "/>
<path id="1" d="M259 182.1333 C259 182.1333 262.827 182.7008 263 183.1333 C263.5989 184.6306 263.54 191.7283 263 192.1333 C262.04 192.8533 251 192.1333 251 192.1333 "/>
<path id="2" d="M251 192.1333 L252 188.1333 "/>
<path id="3" d="M255 184.1333 C255 184.1333 259.5768 185.287 260 186.1333 C260.7523 187.6379 260.2834 193.9787 260 194.1333 C259.3564 194.4844 249.6577 192.718 249 192.1333 C248.8284 191.9808 249.8067 187.0012 251 186.1333 C252.9605 184.7075 259.2084 183.8167 260 184.1333 C260.3282 184.2646 261.5343 188.7975 261 190.1333 C260.4275 191.5645 258.2565 193.439 256 194.1333 C253.1028 195.0248 249.0378 194.9824 248 194.1333 C246.6556 193.0334 244.6858 187.3325 245 185.1333 C245.2094 183.6672 247.6443 181.0167 250 180.1333 C253.8976 178.6717 258.8036 178.3489 261 179.1333 C262.0614 179.5124 263.2236 182.2864 264 185.1333 C264.5694 187.2211 264.547 188.8571 264 190.1333 C263.6406 190.972 262.2362 192.045 261 192.1333 C256.7014 192.4404 252.3739 192.4899 250 191.1333 C248.5639 190.3127 247 184.1333 247 184.1333 "/>
<path id="4" d="M264 181.1333 C264 181.1333 266.7105 180.8439 267 181.1333 C267.4825 181.6158 268.3967 184.0424 268 185.1333 C267.038 187.7789 264.8701 191.3319 263 192.1333 C260.9963 192.9921 255.1255 191.7586 254 191.1333 C253.7383 190.9879 254 187.1333 254 187.1333 "/>
<path id="5" d="M257 182.1333 C257 182.1333 251.7729 183.1237 249 182.1333 C246.3014 181.1695 243.9614 179.5368 243 177.1333 C240.9473 172.0017 240.0604 168.5228 241 162.1333 C242.2798 153.4309 243.6227 148.8929 248 143.1333 C250.7214 139.5525 254.5426 138.2703 260 137.1333 C264.8567 136.1215 267.7475 136.3108 272 138.1333 C276.2525 139.9558 277.6207 141.7885 281 146.1333 C284.129 150.1563 285.011 151.386 286 156.1333 C287.254 162.1526 286.9195 164.6166 286 170.1333 C285.7045 171.9066 284.7638 172.6635 283 174.1333 C279.101 177.3825 278.3754 178.5214 274 180.1333 C269.9533 181.6242 264 181.1333 264 181.1333 "/>
<path id="6" d="M241 174.1333 L202 163.1333 "/>
<path id="7" d="M202 163.1333 C202 163.1333 189.1857 174.1641 179 185.1333 C176.936 187.3561 177.2657 190.443 176 191.1333 C174.3858 192.0138 168 191.1333 168 191.1333 "/>
<path id="8" d="M242 158.1333 C242 158.1333 237.1213 153.7506 232 152.1333 C219.1287 148.0687 204 146.1333 204 146.1333 "/>
<path id="9" d="M204 146.1333 C204 146.1333 201.1415 146.0956 200 147.1333 C191.7979 154.5898 190.7776 160.0988 182 166.1333 C177.4611 169.2538 168 169.1333 168 169.1333 "/>
<path id="10" d="M248 144.1333 C248 144.1333 243.1223 140.5968 238 139.1333 C222.7613 134.7794 206 132.1333 206 132.1333 "/>
<path id="11" d="M205 131.1333 C205 131.1333 195.4911 139.0657 186 143.1333 C179.2046 146.0457 170 146.1333 170 146.1333 "/>
<path id="12" d="M255 138.1333 C255 138.1333 240.711 126.7517 227 118.1333 C224.2095 116.3793 220 116.1333 220 116.1333 "/>
<path id="13" d="M184 124.1333 C184 124.1333 206.0376 113.0322 213 111.1333 C213.6223 110.9636 215.2515 114.2591 217 115.1333 C218.1657 115.7162 221 115.1333 221 115.1333 "/>
<path id="14" d="M279 143.1333 C279 143.1333 306.9158 128.1102 318 129.1333 C326.1854 129.8889 344 149.1333 344 149.1333 "/>
<path id="15" d="M287 154.1333 C287 154.1333 310.0225 145.6445 322 146.1333 C326.9771 146.3365 329.9401 150.6794 336 156.1333 C339.4779 159.2634 339.4418 162.9295 342 164.1333 C344.8818 165.4895 353 164.1333 353 164.1333 "/>
<path id="16" d="M342 148.1333 L355 149.1333 "/>
<path id="17" d="M287 169.1333 C287 169.1333 290.9904 165.1947 295 164.1333 C306.6368 161.053 314.7037 157.8847 321 160.1333 C326.8387 162.2186 330.2394 174.8516 337 179.1333 C340.3763 181.2717 351 179.1333 351 179.1333 "/>
<path id="18" d="M277 179.1333 C277 179.1333 285.3026 177.7127 292 179.1333 C300.6998 180.9787 304.779 181.2492 310 186.1333 C317.142 192.8145 317.5734 201.5643 323 208.1333 C323.9873 209.3285 329 209.1333 329 209.1333 "/>
<path id="19" d="M264 198.1333 L264 195.1333 "/>
<path id="20" d="M251 198.1333 L251 195.1333 "/>
<path id="21" d="M262 195.1333 L267 202.1333 "/>
<path id="22" d="M249 196.1333 L242 201.1333 "/>
<path id="23" d="M267 143.1333 C267 143.1333 253.904 150.9109 250 158.1333 C246.1876 165.1863 247 180.1333 247 180.1333 "/>
<path id="24" d="M259 141.1333 C259 141.1333 262.5059 140.2929 264 141.1333 C268.7998 143.8332 271.3558 145.2029 275 150.1333 C278.9217 155.4392 279.21 157.229 281 164.1333 C282.5258 170.0184 282 177.1333 282 177.1333 "/>
<path id="25" d="M266 157.1333 L264 175.1333 "/>
<path id="26" d="M267 155.1333 C267 155.1333 264.5402 155.4131 264 156.1333 C262.4626 158.1832 261.8198 159.6493 261 163.1333 C259.9111 167.761 260 173.1333 260 173.1333 "/>
<path id="27" d="M262 156.1333 C262 156.1333 268.0649 154.6086 272 155.1333 C274.1537 155.4205 274.8685 156.3298 277 158.1333 C281.1759 161.6668 283.8058 162.892 285 166.1333 C286.1597 169.2812 284 177.1333 284 177.1333 "/>
<path id="28" d="M267 152.1333 C267 152.1333 263.8651 152.1896 263 153.1333 C259.7714 156.6554 258.2328 158.5514 256 164.1333 C253.5407 170.2815 253 178.1333 253 178.1333 "/>
<path id="29" d="M273 162.1333 L273 178.1333 "/>
<path id="30" d="M269 161.1333 L266 182.1333 "/>
<path id="31" d="M267 140.1333 C267 140.1333 257.6292 145.5042 252 151.1333 C249.8349 153.2984 249.4788 154.7817 249 158.1333 C248.0976 164.4499 249 172.1333 249 172.1333 "/>
<path id="32" d="M261 138.1333 C261 138.1333 257.615 139.2492 256 141.1333 C252.2317 145.5297 251.9612 146.5071 249 152.1333 C247.0683 155.8035 246.581 156.2602 246 160.1333 C245.175 165.6336 246 172.1333 246 172.1333 "/>
<path id="33" d="M265 140.1333 C265 140.1333 272.7406 152.4875 278 164.1333 C279.312 167.0385 279 171.1333 279 171.1333 "/>
<path id="34" d="M269 150.1333 C269 150.1333 264.253 155.626 262 161.1333 C260.0794 165.8281 260 172.1333 260 172.1333 "/>
<path id="35" d="M267 141.1333 C267 141.1333 269.5641 141.425 270 142.1333 C272.309 145.8855 275 154.1333 275 154.1333 "/>
</g>
</g>
</svg>
