<?xml version="1.0" encoding="utf-8"?>
<!DOCTYPE svg PUBLIC "-//W3C//DTD SVG 1.1//EN" "http://www.w3.org/Graphics/SVG/1.1/DTD/svg11.dtd">
<svg viewBox="0 0 800 800" preserveAspectRatio="xMinYMin meet" xmlns="http://www.w3.org/2000/svg" version="1.1">
<g fill="none" stroke="black" stroke-linecap="round" stroke-linejoin="round" stroke-width="0.98886">
<g transform="translate(104.2058,87.52) scale(3.0338) translate(-256,-86)">
<path id="0" d="M309 203 C309 203 309.6196 195.8428 312 190 C314.8887 182.9095 315.3002 182.1097 320 176 C324.9509 169.5638 325.544 169.0726 332 164 C339.1877 158.3525 340.0837 156.5728 348 154 C358.2706 150.6621 361.1499 150.4575 372 151 C379.3926 151.3696 380.8699 152.732 388 156 C392.1904 157.9206 393.4667 158.7759 396 162 C398.1356 164.718 398.4956 166.133 399 170 C399.9016 176.9125 400.0603 178.1079 399 185 C398.1789 190.337 397.5399 191.7668 395 196 C393.6732 198.2114 392.7002 198.7726 390 200 C376.9309 205.9405 375.6352 208.7586 362 211 C341.3403 214.3961 332.8367 213.8273 317 212 C314.2452 211.6821 310 205 310 205 "/>
<path id="1" d="M310 206 C310 206 306.2414 202.4802 303 202 C294.4616 200.735 291.5033 200.9796 283 202 C280.7211 202.2735 279.5706 203.2331 278 205 C276.1715 207.057 275.334 208.3277 275 211 C274.4826 215.1394 274.1896 218.0755 276 221 C279.1418 226.0753 282.6669 229.9771 288 232 C293.606 234.1264 297.6265 233.3655 305 232 C309.7389 231.1224 313.7549 229.1166 315 227 C316.373 224.666 315 215 315 215 "/>
<path id="2" d="M277 212 C277 212 281.5417 214.5105 282 216 C282.7193 218.3376 281 225 281 225 "/>
<path id="3" d="M284 230 C284 230 290.2764 228.3018 294 229 C296.5615 229.4803 300 233 300 233 "/>
<path id="4" d="M343 157 C343 157 340.3443 164.8472 341 169 C341.4371 171.7685 344.4054 172.3325 346 176 C349.1589 183.2654 347.4711 185.1943 351 192 C353.9735 197.7347 355.5782 199.9745 360 203 C363.0418 205.0812 370 205 370 205 "/>
<path id="5" d="M382 154 C382 154 382.8773 143.5247 386 138 C388.0669 134.3432 390.923 132.2408 395 131 C400.1281 129.4393 405.0567 129.0284 409 131 C414.2108 133.6054 415.4641 139.4411 421 144 C422.4198 145.1693 426 145 426 145 "/>
<path id="6" d="M380 153 C380 153 379.2328 137.9323 382 134 C384.7069 130.1534 391.4317 127.4191 399 126 C404.983 124.8782 410.3713 125.3874 414 128 C418.7499 131.42 419.5267 138.1502 424 144 C424.6232 144.8149 427 145 427 145 "/>
<path id="7" d="M366 149 C366 149 358.4492 144.4492 353 139 C349.4462 135.4462 348.297 134.4675 347 130 C344.2385 120.4881 343.7011 117.5639 344 108 C344.1381 103.5796 345.3528 101.8504 348 98 C350.2449 94.7347 351.2498 94.0456 355 92 C361.6708 88.3614 362.7689 87.1125 370 86 C380.8991 84.3232 383.7093 83.5915 394 86 C404.9658 88.5665 417 97 417 97 "/>
<path id="8" d="M371 147 C371 147 366.1119 143.83 363 140 C359.989 136.2941 358.8075 135.3066 358 131 C356.1159 120.9512 356.6259 118.4747 357 108 C357.0826 105.6868 357.5865 104.9436 359 103 C361.2696 99.8793 361.6965 99.1473 365 97 C371.1899 92.9766 372.3661 91.222 379 90 C389.4132 88.0818 393.1949 88.039 403 90 C408.0659 91.0132 414 97 414 97 "/>
<path id="9" d="M336 159 C336 159 335.3898 156.1299 335 156 C333.4408 155.4803 330.3656 156.9616 327 156 C320.8098 154.2314 319.3947 153.8212 314 150 C308.1232 145.8372 306.5238 144.4212 303 139 C301.0003 135.9235 301 134.2153 301 130 C301 123.4429 300.9174 121.7272 303 116 C304.4398 112.0405 305.5039 111.2048 309 108 C317.0848 100.589 327 94 327 94 "/>
<path id="10" d="M339 159 C339 159 334.8817 153.1243 330 150 C323.2264 145.6649 317.3277 147.084 314 143 C309.8665 137.9271 309.3689 132.5822 308 123 C307.0249 116.1743 306.5183 111.5984 309 108 C313.287 101.7839 328 94 328 94 "/>
<path id="11" d="M318 172 C318 172 314.2115 175.633 311 176 C298.9413 177.3781 295.3101 178.1885 283 176 C274.9007 174.5601 272.4185 172.8139 266 168 C261.9535 164.9652 261.5653 163.1306 259 158 C256.8148 153.6295 256.4886 152.8862 256 148 C255.0512 138.5122 254.6432 137.2264 256 128 C256.9997 121.2023 261 114 261 114 "/>
<path id="12" d="M321 175 C321 175 315.3094 181.3911 310 183 C301.0591 185.7094 296.7585 187.0071 288 185 C276.2176 182.2999 271.3109 178.9081 262 172 C258.7559 169.5931 258.2804 166.9081 257 162 C255.498 156.2424 256 149 256 149 "/>
<path id="13" d="M341 215 C341 215 333.7089 220.673 330 227 C325.8751 234.0366 325.7079 235.7452 324 244 C322.8765 249.4304 322.5444 250.9863 324 256 C326.6216 265.0301 329.8165 265.4495 333 275 C335.6047 282.8141 336 292 336 292 "/>
<path id="14" d="M346 215 C346 215 342.1075 223.0861 337 229 C333.0974 233.5188 330.1938 232.8235 327 237 C324.6947 240.0146 324.8763 241.6184 324 246 C323.4523 248.7385 323.775 251.325 324 252 C324.025 252.075 325.943 251.8549 326 252 C328.2883 257.8247 335 280 335 280 "/>
<path id="15" d="M377 206 C377 206 369.3537 210.6219 365 216 C361.6769 220.105 361.0119 221.7379 360 227 C358.731 233.5988 359.0235 234.9205 360 242 C360.9473 248.8679 360.5659 250.7742 364 256 C370.9154 266.5234 373.2549 268.8267 383 277 C387.3102 280.615 389.2431 280.485 395 282 C398.0264 282.7964 401.4956 282.4324 402 282 C402.3706 281.6824 402 276 402 276 "/>
<path id="16" d="M370 212 C370 212 367.1869 221.2165 367 230 C366.7004 244.0804 364.7034 249.4303 369 259 C373.1646 268.2757 378.963 270.1211 389 279 C391.3044 281.0385 392.4642 281.5389 395 282 C396.8666 282.3394 400 281 400 281 "/>
<path id="17" d="M387 198 C387 198 390.9447 218.0429 397 229 C399.1682 232.9234 402.7397 234.8728 408 236 C421.2258 238.8341 427.4336 239.4458 439 238 C442.7144 237.5357 445.9839 233.9122 448 231 C448.9143 229.6794 448 225 448 225 "/>
<path id="18" d="M389 200 C389 200 390.4115 207.8134 394 212 C401.114 220.2997 403.3313 221.3319 413 228 C417.1073 230.8326 418.0156 231.0353 423 232 C432.8943 233.915 437.2999 235.1964 444 234 C446.6777 233.5218 451 227 451 227 "/>
<path id="19" d="M400 184 C400 184 401.9199 190.2621 405 193 C409.5543 197.0483 412.1015 198.6892 418 200 C423.5833 201.2407 429.8261 200.3587 432 199 C433.1334 198.2916 434 190 434 190 "/>
<path id="20" d="M403 184 C403 184 411.9148 192.1071 420 196 C423.7205 197.7914 428.0748 197.7405 430 197 C431.0627 196.5913 433 191 433 191 "/>
<path id="21" d="M273 216 C273 216 265.0064 223.9552 265 224 C264.9986 224.0098 269.8143 224.0928 272 223 C273.4571 222.2714 275 219 275 219 "/>
<path id="22" d="M284 229 C284 229 275.0637 237.8853 275 238 C274.9899 238.0182 278.0509 238.5932 279 238 C280.6906 236.9434 283 233 283 233 "/>
</g>
</g>
</svg>
