<?xml version="1.0" encoding="utf-8"?>
<!DOCTYPE svg PUBLIC "-//W3C//DTD SVG 1.1//EN" "http://www.w3.org/Graphics/SVG/1.1/DTD/svg11.dtd">
<svg viewBox="0 0 800 800" preserveAspectRatio="xMinYMin meet" xmlns="http://www.w3.org/2000/svg" version="1.1">
<g fill="none" stroke="black" stroke-linecap="round" stroke-linejoin="round" stroke-width="0.95526">
<g transform="translate(87.52,180.1648) scale(3.1405) translate(-86,-200.6667)">
<path id="0" d="M116 282.6667 C116 282.6667 127.5996 281.7235 130 283.6667 C133.234 286.2847 137 295.6024 137 299.6667 C137 301.6988 133.0169 306.5174 130 307.6667 C125.7964 309.268 118.472 309.5207 116 307.6667 C111.8506 304.5546 105.887 292.7189 106 289.6667 C106.0603 288.038 117 280.6667 117 280.6667 "/>
<path id="1" d="M126 278.6667 C126 278.6667 126.9278 275.5602 128 274.6667 C128.9717 273.857 131.4729 274.4197 132 273.6667 C133.5397 271.4672 132.6251 267.4869 135 264.6667 C139.3161 259.5413 141.8449 256.4253 148 254.6667 C159.4784 251.3871 169.111 250.7477 177 252.6667 C179.9537 253.3851 183.5648 258.6436 185 263.6667 C186.8364 270.094 186.3383 274.7781 185 280.6667 C184.5169 282.7922 182.7637 284.1697 180 285.6667 C171.6342 290.1981 170.4756 290.9594 161 293.6667 C153.6231 295.7744 151.1858 294.0388 145 295.6667 C143.5816 296.0399 142.0193 298.6731 142 298.6667 C141.9871 298.6624 142 294.6667 142 294.6667 "/>
<path id="2" d="M152 250.6667 C152 250.6667 150.9783 243.4574 153 239.6667 C157.733 230.7923 159.5388 228.5235 168 220.6667 C179.8124 209.6981 183.7577 203.6646 195 200.6667 C206.1032 197.7058 212.6633 201.6741 228 204.6667 C231.9864 205.4445 233.1777 205.9855 236 208.6667 C242.2785 214.6312 243.0702 215.9639 248 223.6667 C250.7301 227.9324 251.3992 228.8606 252 233.6667 C253.2587 243.7366 254.4368 246.5287 252 255.6667 C249.098 266.5492 246.0738 273.5419 240 278.6667 C235.4794 282.481 229.9028 281.7864 220 282.6667 C207.8377 283.7478 206.7297 283.9347 195 282.6667 C189.1669 282.0361 183 278.6667 183 278.6667 "/>
<path id="3" d="M227 259.6667 C227 259.6667 245.0197 258.9552 257 260.6667 C259.2144 260.983 260.8184 263.0124 262 264.6667 C262.4682 265.3221 261.46 267.0367 262 267.6667 C268.017 274.6865 275.0525 276.6322 280 285.6667 C284.7487 294.3383 285 309.6667 285 309.6667 "/>
<path id="4" d="M202 267.6667 C202 267.6667 210.2023 268.1742 217 270.6667 C224.5717 273.443 225.5443 273.776 232 278.6667 C241.4653 285.8374 242.2079 286.8582 250 295.6667 C253.1769 299.258 253.9411 300.4311 255 304.6667 C256.1364 309.2122 255.0388 315.5633 255 315.6667 C254.9934 315.6843 252 312.6667 252 312.6667 "/>
<path id="5" d="M172 273.6667 C172 273.6667 170.0345 273.5805 170 273.6667 C169.7845 274.2055 169.3028 277.6208 170 278.6667 C171.1156 280.34 172.9124 281.7487 176 282.6667 C190.2078 286.8906 194.0894 284.3851 207 289.6667 C213.6719 292.3961 215.5138 295.0589 220 300.6667 C222.3899 303.654 221.4753 307.1255 223 309.6667 C223.3953 310.3255 225.809 310.1893 226 310.6667 C226.8159 312.7064 227 319.6666 227 319.6667 C227 319.6667 227 314.6667 227 314.6667 "/>
<path id="6" d="M152 283.6667 C152 283.6667 151.2513 288.0116 152 288.6667 C158.5026 294.3565 165.7552 296.0742 176 304.6667 C180.2128 308.1999 182.1194 310.1378 183 314.6667 C185.0153 325.031 183.0278 340.5612 183 340.6667 C182.9939 340.6897 178 333.6667 178 333.6667 "/>
<path id="7" d="M152 235.6667 C152 235.6667 149.7913 233.0249 148 232.6667 C143.7163 231.8099 141.2674 231.0816 137 232.6667 C125.8161 236.8207 120.8785 240.3093 113 245.6667 C112.1076 246.2735 112 249.6667 112 249.6667 "/>
<path id="8" d="M163 224.6667 C163 224.6667 159.5251 216.803 157 215.6667 C153.4824 214.0838 147.245 214.6679 143 215.6667 C141.805 215.9479 141.259 219.2089 140 219.6667 C137.739 220.4889 132 219.6667 132 219.6667 "/>
<path id="9" d="M148 247.6667 C148 247.6667 137.1658 246.0627 128 247.6667 C118.2728 249.3689 108 254.6667 108 254.6667 "/>
<path id="10" d="M128 265.6667 C128 265.6667 130 267.6668 130 267.6667 C130 267.6665 128.7065 264.755 128 264.6667 C121.4553 263.8486 115.8692 262.7868 106 264.6667 C96.3444 266.5058 86 272.6667 86 272.6667 "/>
<path id="11" d="M128 295.6667 L128 303.6667 "/>
<path id="12" d="M120 292.6667 L120 299.6667 "/>
</g>
</g>
</svg>
