<?xml version="1.0" encoding="utf-8"?>
<!DOCTYPE svg PUBLIC "-//W3C//DTD SVG 1.1//EN" "http://www.w3.org/Graphics/SVG/1.1/DTD/svg11.dtd">
<svg viewBox="0 0 800 800" preserveAspectRatio="xMinYMin meet" xmlns="http://www.w3.org/2000/svg" version="1.1">
<g fill="none" stroke="black" stroke-linecap="round" stroke-linejoin="round" stroke-width="1.3441">
<g transform="translate(87.52,103.144) scale(2.232) translate(-154,-15.4167)">
<path id="0" d="M290 244.4167 C290 244.4167 280.217 246.4898 279 248.4167 C277.2623 251.1681 277.2138 258.4376 278 263.4167 C278.2453 264.9704 280.056 266.7687 282 267.4167 C287.346 269.1987 292.6914 270.1519 296 269.4167 C297.3018 269.1274 299.4213 266.1655 300 263.4167 C301.0995 258.194 301.3908 255.2843 300 250.4167 C298.9608 246.7793 294 242.4167 294 242.4167 "/>
<path id="1" d="M277 250.4167 C277 250.4167 272.6008 236.7565 271 223.4167 C269.6718 212.3483 269.9854 211.239 271 200.4167 C271.4094 196.0495 271.9094 195.3888 274 191.4167 C276.7042 186.2786 277.1463 185.0134 281 181.4167 C283.7683 178.8329 285.1044 178.1958 289 177.4167 C296.6141 175.8938 300.806 174.6854 306 176.4167 C310.1552 177.8017 312.3231 181.1639 316 186.4167 C318.7685 190.3717 319.5213 191.6298 320 196.4167 C321.3808 210.2249 321.3987 213.4791 320 226.4167 C319.6535 229.6219 317.0547 229.9009 316 233.4167 C314.2507 239.2478 316.2842 241.8483 314 246.4167 C311.7974 250.8219 305 255.4167 305 255.4167 "/>
<path id="2" d="M270 196.4167 C270 196.4167 256.0329 209.4721 256 209.4167 C255.7123 208.9311 256.24 188.937 254 169.4167 C252.7987 158.9485 249 148.4167 249 148.4167 "/>
<path id="3" d="M323 197.4167 C323 197.4167 335.9666 207.4536 336 207.4167 C336.6903 206.6537 337.4219 191.1461 342 176.4167 C348.7259 154.7768 359 133.4167 359 133.4167 "/>
<path id="4" d="M272 210.4167 C272 210.4167 248.6882 233.9419 247 234.4167 C246.8521 234.4583 244.3999 226.1459 240 219.4167 C227.7166 200.6303 225.2312 200.7635 213 182.4167 C210.7761 179.0809 210 174.4167 210 174.4167 "/>
<path id="5" d="M271 230.4167 C271 230.4167 247.1925 261.3626 244 261.4167 C240.3475 261.4786 227.0434 247.1652 212 231.4167 C195.218 213.848 180 194.4167 180 194.4167 "/>
<path id="6" d="M274 242.4167 C274 242.4167 270.204 253.997 264 262.4167 C256.9132 272.0345 249.3826 280.163 246 280.4167 C242.3509 280.6904 235.3742 272.1193 224 265.4167 C207.5479 255.7217 206.0374 257.5326 190 247.4167 C173.9082 237.2665 173.5412 234.1108 159 224.4167 C157.2216 223.2311 154 223.4167 154 223.4167 "/>
<path id="7" d="M324 209.4167 C324 209.4167 323.2337 212.9645 324 215.4167 C325.4767 220.1422 327.2121 223.1818 329 225.4167 C329.3065 225.7998 331.3417 225.9515 332 225.4167 C337.1702 221.2159 340.2691 219.4004 345 212.4167 C350.0809 204.9164 348.0811 202.6149 353 194.4167 C359.8175 183.0542 369 172.4167 369 172.4167 "/>
<path id="8" d="M318 229.4167 C318 229.4167 337.5645 255.5961 339 255.4167 C341.5071 255.1033 351.7547 238.4838 366 223.4167 C377.5484 211.202 391 200.4167 391 200.4167 "/>
<path id="9" d="M317 249.4167 C317 249.4167 322.3907 259.6042 329 268.4167 C334.1931 275.3407 340.0994 281.7299 341 281.4167 C346.3092 279.57 357.0433 265.1601 375 252.4167 C403.0494 232.5107 434 215.4167 434 215.4167 "/>
<path id="10" d="M298 172.4167 C298 172.4167 305.5473 157.8016 305 151.4167 C304.6014 146.7666 297.0145 144.1317 295 137.4167 C291.8479 126.9096 290.5946 121.9633 293 111.4167 C296.2413 97.2048 306.2253 94.2593 308 80.4167 C310.499 60.9248 302.6674 52.3735 303 33.4167 C303.0716 29.3332 307.4474 28.0745 309 23.4167 C310.0351 20.3114 309 15.4167 309 15.4167 "/>
<path id="11" d="M286 259.4167 L285 259.4167 "/>
<path id="12" d="M293 260.4167 L294 260.4167 "/>
<path id="13" d="M281 267.4167 C281 267.4167 283.9722 277.3944 284 277.4167 C284.0071 277.4223 286 271.4167 286 271.4167 "/>
<path id="14" d="M292 271.4167 C292 271.4167 293.9939 277.4179 294 277.4167 C294.0337 277.4099 297 270.4167 297 270.4167 "/>
<path id="15" d="M277 195.4167 C277 195.4167 294.1765 201.107 302 200.4167 C305.0919 200.1439 311 192.4167 311 192.4167 "/>
<path id="16" d="M276 208.4167 C276 208.4167 279.5593 211.9421 283 213.4167 C285.7956 214.6148 286.518 214.2118 290 214.4167 C294.9328 214.7068 296.8063 215.6143 300 214.4167 C302.6348 213.4286 306 208.4167 306 208.4167 "/>
<path id="17" d="M276 225.4167 C276 225.4167 285.7252 229.6777 295 231.4167 C300.9912 232.54 304.5073 232.6494 308 231.4167 C309.6436 230.8366 312 225.4167 312 225.4167 "/>
</g>
</g>
</svg>
