<?xml version="1.0" encoding="utf-8"?>
<!DOCTYPE svg PUBLIC "-//W3C//DTD SVG 1.1//EN" "http://www.w3.org/Graphics/SVG/1.1/DTD/svg11.dtd">
<svg viewBox="0 0 800 800" preserveAspectRatio="xMinYMin meet" xmlns="http://www.w3.org/2000/svg" version="1.1">
<g fill="none" stroke="black" stroke-linecap="round" stroke-linejoin="round" stroke-width="1.4065">
<g transform="translate(137.6448,87.52) scale(2.133) translate(-153,-60)">
<path id="0" d="M157 172 C157 172 160.0416 165.9424 161 160 C162.4523 150.9955 160.1428 149.8732 162 141 C164.4822 129.1404 164.0377 126.5396 170 117 C177.7612 104.582 180.0026 102.2288 192 93 C204.5448 83.3501 207.2698 80.826 222 77 C242.7175 71.6188 245.5423 73.9575 269 73 C294.366 71.9647 295.8522 71.7926 320 73 C324.3324 73.2166 325.7049 73.4895 329 76 C345.086 88.256 348.4799 91.1044 362 105 C364.4158 107.4829 362.7558 109.8108 365 113 C371.7163 122.5442 374.2367 121.9716 381 132 C388.4391 143.0304 390.5619 144.458 394 156 C396.8738 165.6477 395 179 395 179 "/>
<path id="1" d="M158 170 C158 170 153.0001 186.9995 153 187 C153 187.0003 154.4981 181.7104 157 179 C159.6501 176.1291 161.4758 174.6408 165 174 C170.466 173.0062 176.1519 173.4922 179 175 C180.4183 175.7509 181.955 183.005 182 183 C182.1494 182.9834 185.1988 175.2325 188 174 C193.5911 171.5399 200.5044 171.0007 207 172 C209.7533 172.4236 211.6711 174.8947 214 178 C215.5526 180.0702 215.9932 184.0034 216 184 C216.0581 183.9709 218.1371 175.7452 220 175 C226.6672 172.3331 240.2802 171.4083 246 172 C246.8062 172.0834 248.9944 178.0014 249 178 C249.0102 177.9974 248.8766 172.1234 250 171 C251.966 169.034 255.1805 168.134 260 167 C263.0834 166.2745 265.3213 165.8514 267 167 C272.0108 170.4284 277.1466 179.5587 279 180 C279.8711 180.2074 284.0037 173.2296 288 172 C293.9274 170.1762 296.7706 171.6081 305 172 C306.9594 172.0933 308.0757 172.0757 309 173 C311.4033 175.4033 313.8569 181 314 181 C314.1145 181 315.5012 175.4988 318 173 C320.9153 170.0847 323.1124 168.432 327 168 C334.2327 167.1964 341.5471 167.8027 345 170 C347.0848 171.3267 348.924 182.0054 349 182 C349.2642 181.9811 355.1811 171.2913 359 169 C361.0167 167.79 367.0843 168.4435 369 170 C371.7905 172.2673 374.9381 181.9292 375 182 C375.0112 182.0128 375.0587 179.059 376 178 C378.1607 175.5692 379.7942 173.9429 383 173 C386.7846 171.8869 389.4395 171.8873 393 173 C395.6927 173.8415 399 178 399 178 "/>
<path id="2" d="M280 181 C280 181 278.761 192.3974 280 202 C280.6205 206.8087 283.3733 207.056 284 212 C287.6762 241.0012 285.1929 243.305 289 273 C290.0895 281.4984 293.3994 281.7115 294 290 C295.7988 314.8239 296.9778 323.5379 294 342 C293.335 346.1231 288.6643 349.6679 284 352 C280.1131 353.9435 274.3896 354.1948 272 353 C269.7143 351.8571 267.167 347.668 266 343 C264.5793 337.3172 266 329 266 329 "/>
<path id="3" d="M274 73 L273 60 "/>
<path id="4" d="M156 187 C156 187 169.4771 195.6625 183 200 C194.8366 203.7967 196.0908 203.4621 209 204 C243.5342 205.4389 279 204 279 204 "/>
<path id="5" d="M286 208 C286 208 307.2802 209.0026 328 208 C337.9382 207.5191 338.9281 207.9536 348 205 C359.4958 201.2572 361.5985 200.1596 371 194 C374.4987 191.7077 373.5137 188.9633 377 186 C382.8967 180.9878 391 177 391 177 "/>
</g>
</g>
</svg>
