<?xml version="1.0" encoding="utf-8"?>
<!DOCTYPE svg PUBLIC "-//W3C//DTD SVG 1.1//EN" "http://www.w3.org/Graphics/SVG/1.1/DTD/svg11.dtd">
<svg viewBox="0 0 800 800" preserveAspectRatio="xMinYMin meet" xmlns="http://www.w3.org/2000/svg" version="1.1">
<g fill="none" stroke="black" stroke-linecap="round" stroke-linejoin="round" stroke-width="1.6417">
<g transform="translate(123.1537,87.52) scale(1.8274) translate(-102,-97)">
<path id="0" d="M104 231 C104 231 108.4853 219.6092 115 210 C128.2002 190.5297 127.8199 188.408 144 172 C162.3229 153.4191 164.081 152.3421 186 138 C203.547 126.5186 205.5322 127.3979 225 119 C230.4837 116.6345 231.106 116.4019 237 116 C252.454 114.9463 253.2971 114.8784 269 116 C280.9174 116.8512 283.3476 115.6663 293 120 C305.3786 125.5578 307.6368 127.8896 318 138 C327.122 146.8995 324.7516 150.6214 334 160 C359.518 185.8774 365.8799 183.9492 389 210 C399.3419 221.6528 405 240 405 240 "/>
<path id="1" d="M104 233 C104 233 107.4106 234.5298 109 234 C113.087 232.6377 113.9148 229.9069 119 228 C125.2786 225.6455 126.0774 225.6699 133 225 C141.2352 224.203 143.7617 222.7982 150 225 C157.7925 227.7503 162.9368 237 167 237 C171.5413 237 176.7375 227.6719 186 225 C199.9651 220.9716 204.069 221.6607 219 222 C224.0285 222.1143 226.345 223.0096 230 226 C235.7502 230.7047 239.2119 239.3742 241 240 C241.7366 240.2578 245.2465 235.5748 250 233 C256.7819 229.3265 257.7807 227.9844 265 227 C278.2353 225.1952 282.7478 223.9525 294 227 C302.7383 229.3666 305.3983 233.4349 313 240 C315.0576 241.777 314.8219 244.8219 316 246 C316.3927 246.3927 318.0685 246.552 319 246 C329.3963 239.8392 331.6569 234.7032 343 230 C349.4482 227.3264 352.7193 227.4399 360 229 C371.773 231.5228 375.1721 232.5343 385 239 C392.117 243.6823 397.9041 254.036 398 254 C398.1415 253.947 401 233 401 233 "/>
<path id="2" d="M256 115 L257 101 "/>
<path id="3" d="M254 232 C254 232 257.8824 343.6338 254 424 C253.6869 430.4808 248.2341 436.7317 244 439 C239.7743 441.2638 231.9852 441.1946 226 439 C220.6688 437.0452 217.0781 432.6171 214 428 C212.866 426.299 213.0046 422.8485 214 421 C215.3891 418.4202 220.9045 414.9427 221 415 C221.2865 415.1719 222.5303 426.0202 224 427 C226.0041 428.3361 233.6835 427.8861 239 427 C240.2405 426.7932 241.9765 425.1201 242 424 C243.4401 355.2372 243 236 243 236 "/>
<path id="4" d="M243 115 C243 115 233.1782 123.2696 226 133 C211.0388 153.2808 210.397 153.8159 198 176 C182.1028 204.4477 169 235 169 235 "/>
<path id="5" d="M259 118 C259 118 270.4631 128.7515 279 141 C293.1254 161.2668 294.8409 161.8348 305 184 C316.3307 208.7215 315.8301 211.5069 323 237 C324.3584 241.8297 323 248 323 248 "/>
<path id="6" d="M256 114 C256 114 259.0935 152.6274 256 187 C254.8215 200.0945 249.3686 200.8413 247 214 C245.0965 224.5748 247 237 247 237 "/>
<path id="7" d="M252 113 C252 113 253.9184 97.2854 254 97 C254.007 96.9754 255.9484 98.278 256 99 C256.2871 103.019 255 111 255 111 "/>
<path id="8" d="M243 413 L255 411 "/>
<path id="9" d="M243 387 C243 387 236.3794 386.5664 236 387 C235.5044 387.5664 235.655 394.5975 236 395 C236.1787 395.2084 242 394 242 394 "/>
<path id="10" d="M108 235 L102 243 "/>
<path id="11" d="M170 236 L170 243 "/>
<path id="12" d="M244 239 L243 244 "/>
<path id="13" d="M323 244 L324 250 "/>
<path id="14" d="M397 247 C397 247 400.4396 252.3296 401 257 C401.7957 263.6312 400 272 400 272 "/>
</g>
</g>
</svg>
