<?xml version="1.0" encoding="utf-8"?>
<!DOCTYPE svg PUBLIC "-//W3C//DTD SVG 1.1//EN" "http://www.w3.org/Graphics/SVG/1.1/DTD/svg11.dtd">
<svg viewBox="0 0 800 800" preserveAspectRatio="xMinYMin meet" xmlns="http://www.w3.org/2000/svg" version="1.1">
<g fill="none" stroke="black" stroke-linecap="round" stroke-linejoin="round" stroke-width="2.1889">
<g transform="translate(102.5958,87.52) scale(1.3705) translate(-45,-16)">
<path id="0" d="M330 35 L322 31 "/>
<path id="1" d="M84 251 C84 251 89.8694 246.4449 94 241 C100.6009 232.2988 101.9207 231.7904 106 222 C111.4958 208.8102 109.0889 204.4593 114 193 C115.363 189.8197 118.7954 190.3069 121 187 C124.1691 182.2463 122.4819 179.9002 126 175 C135.8193 161.3231 136.6703 159.449 149 148 C156.7312 140.821 158.828 140.7694 168 136 C170.3693 134.768 172.0162 136.2837 174 135 C179.2142 131.6261 180.9723 129.699 185 125 C186.0069 123.8253 185.1453 121.5238 186 121 C195.7051 115.0517 205.4544 112.1233 216 106 C216.747 105.5663 216.5533 103.1072 217 103 C230.2878 99.8109 241.7158 96.8384 266 94 C279.585 92.4121 280.3839 92.5559 294 94 C312.8401 95.9982 313.9772 95.8116 332 101 C346.1671 105.0784 348.0261 105.0788 360 113 C379.1603 125.6753 381.5206 127.1628 397 144 C408.7583 156.7898 409.2465 158.8809 417 175 C427.8148 197.4834 426.9243 198.773 435 223 C442.3778 245.1333 448 268 448 268 "/>
<path id="2" d="M86 257 C86 257 86.9183 254.4555 88 254 C94.3332 251.3334 98.773 248.5983 105 249 C110.3959 249.3481 112.8232 251.7998 119 256 C124.8607 259.9853 124.0225 262.8813 130 266 C145.5928 274.1354 147.3867 276.7231 165 280 C230.7367 292.2301 234.4422 294.026 302 298 C342.9607 300.4095 346.9255 299.116 386 293 C401.225 290.6169 401.2643 284.9455 417 280 C435.7599 274.104 456 271 456 271 "/>
<path id="3" d="M282 95 C282 95 284.4776 92.5076 285 90 C289.129 70.1809 291.9994 46.9991 292 47 C292.0008 47.0013 293 103 293 103 "/>
<path id="4" d="M274 301 C274 301 273.6555 317.1858 270 332 C264.3202 355.0183 259.5533 354.8694 255 378 C247.2828 417.2034 252.56 428.4312 245 459 C243.622 464.5719 238.0234 468.3899 232 471 C226.2303 473.5002 222.6807 472.8229 215 472 C209.8038 471.4433 208.7788 470.8014 204 468 C194.8252 462.6217 194.2726 461.8939 186 455 C182.6049 452.1707 182.0509 451.729 180 448 C176.8639 442.2979 175 435 175 435 "/>
<path id="5" d="M252 107 C252 107 243.779 106.8014 237 109 C226.0647 112.5466 223.9732 112.4741 215 119 C203.3516 127.4716 204.5859 131.152 193 141 C184.9724 147.8234 180.9468 145.8639 175 153 C165.2723 164.6733 165.9032 170.957 158 183 C157.1119 184.3533 155.1703 183.6347 154 185 C149.9348 189.7427 148.685 190.6635 146 197 C136.5434 219.3175 136.0571 221.5832 129 244 C128.0564 246.9974 129 251 129 251 "/>
<path id="6" d="M300 108 C300 108 319.789 119.8522 336 134 C346.5512 143.2083 349.2734 144.165 355 156 C370.344 187.7109 366.6368 192.46 381 227 C387.435 242.4746 390.0401 241.9812 397 257 C399.3048 261.9736 400 268 400 268 "/>
<path id="7" d="M276 120 C276 120 255.1675 123.2832 240 131 C229.0034 136.5948 227.9291 139.1309 219 149 C209.4963 159.5041 210.2138 160.8436 202 173 C197.7399 179.305 196.8747 179.2361 194 186 C188.5968 198.7133 188.2836 199.3964 185 213 C181.3748 228.0187 181.6374 228.6087 180 244 C179.1692 251.8099 179.3603 254.2427 180 260 C180.0888 260.7996 182 262 182 262 "/>
<path id="8" d="M291 130 C291 130 297.9526 137.5877 303 146 C311.2673 159.7788 312.2064 160.077 318 175 C328.4794 201.9924 329.5241 202.9376 336 231 C341.3166 254.0384 342 279 342 279 "/>
<path id="9" d="M281 164 C281 164 288.8983 186.9009 293 210 C298.3043 239.8718 300 271 300 271 "/>
<path id="10" d="M273 150 C273 150 270.5967 150.1902 270 151 C265.148 157.5848 263.0122 159.7086 259 169 C253.8054 181.0297 253.7029 182.0259 251 195 C248.81 205.5122 249 206.1316 249 217 C249 232.3145 251 248 251 248 "/>
<path id="11" d="M450 54 L447 74 "/>
<path id="12" d="M479 178 L477 203 "/>
<path id="13" d="M411 44 L407 58 "/>
<path id="14" d="M416 106 L416 127 "/>
<path id="15" d="M84 24 C84 24 85.4272 34.1751 85 44 C84.4407 56.8644 82 70 82 70 "/>
<path id="16" d="M71 131 L68 146 "/>
<path id="17" d="M46 204 L45 212 "/>
<path id="18" d="M153 29 L150 54 "/>
<path id="19" d="M164 106 L169 119 "/>
<path id="20" d="M246 16 L245 22 "/>
<path id="21" d="M231 132 L236 166 "/>
<path id="22" d="M252 205 L262 219 "/>
</g>
</g>
</svg>
