<?xml version="1.0" encoding="utf-8"?>
<!DOCTYPE svg PUBLIC "-//W3C//DTD SVG 1.1//EN" "http://www.w3.org/Graphics/SVG/1.1/DTD/svg11.dtd">
<svg viewBox="0 0 800 800" preserveAspectRatio="xMinYMin meet" xmlns="http://www.w3.org/2000/svg" version="1.1">
<g fill="none" stroke="black" stroke-linecap="round" stroke-linejoin="round" stroke-width="1.5457">
<g transform="translate(87.52,133.1304) scale(1.9409) translate(-74,-50)">
<path id="0" d="M80 269 C80 269 86.5791 262.6926 94 258 C120.2883 241.3765 121.8673 243.0431 148 226 C167.6375 213.193 166.1217 209.5204 186 198 C209.215 184.5459 211.5199 186.8029 236 175 C239.1772 173.4681 241.2184 172.0942 242 171 C242.2156 170.6982 240.8109 168.1681 241 168 C244.467 164.9183 250.0937 160.5923 260 155 C280.8439 143.2333 282.4048 145.1459 303 133 C321.0856 122.3341 320.0259 119.6077 338 109 C350.0946 101.8622 352.1298 104.1221 364 97 C374.011 90.9934 373.6944 87.8591 383 82 C386.0292 80.0928 391.0295 80.0363 391 80 C390.7964 79.7494 380.8517 69.742 370 66 C339.9514 55.6384 336.5357 53.4248 304 50 C262.66 45.6484 259.6331 48.0362 218 50 C208.2037 50.4621 207.2048 51.4805 198 55 C190.8338 57.74 190.7158 58.6142 184 63 C166.2979 74.5605 165.1871 73.8479 149 87 C133.6296 99.4884 131.9067 99.7859 120 115 C105.7753 133.176 103.18 134.8386 95 156 C81.0957 191.9698 80.9843 195.7528 74 234 C70.8422 251.2927 73.7544 270.1542 74 271 C74.0225 271.0774 83 265 83 265 "/>
<path id="1" d="M235 177 C235 177 237.9244 179.9077 239 183 C241.6763 190.6944 239.892 194.894 243 200 C244.9329 203.1756 248.9861 202.3352 253 206 C259.9228 212.3208 259.3663 214.7154 266 221 C268.1556 223.0422 270.4926 222.3042 272 224 C273.4069 225.5827 272.5931 228.4173 274 230 C275.5074 231.6958 277.9347 230.9347 280 233 C287.5728 240.5728 287.8686 241.8877 295 251 C296.762 253.2514 297.8314 254.6508 298 256 C298.0863 256.6903 295.8776 258.7551 296 259 C296.4898 259.9795 300.4574 261.5759 302 264 C303.1609 265.8243 301.8048 269.0127 303 270 C309.569 275.4266 314.9895 275.8049 325 283 C330.4893 286.9455 330.8516 287.6314 335 293 C339.074 298.2722 337.8123 301.3586 342 305 C347.5139 309.7947 351.2216 308.481 358 313 C360.8597 314.9064 360.2447 317.4971 363 319 C369.7521 322.683 372.3154 323.3294 380 325 C382.4277 325.5278 384.1327 325.2838 386 324 C390.7119 320.7605 394.7239 318.3388 396 314 C398.3666 305.9534 397.5627 300.0011 396 290 C395.4282 286.3407 393.6531 284.6531 391 282 C389.5714 280.5714 386 280 386 280 "/>
<path id="2" d="M384 279 C384 279 381.9175 286.2163 383 289 C384.2515 292.2181 390.2043 293.9496 391 297 C392.1422 301.3783 390.8719 309.7537 389 312 C387.4463 313.8644 379.6111 316.3889 376 315 C365.964 311.14 361.4621 307.3301 350 297 C321.6128 271.4164 320.5326 269.5916 295 242 C290.5448 237.1856 291.7788 234.7235 288 230 C286.4971 228.1213 283.8911 228.2476 283 227 C282.4576 226.2406 283.6994 223.9325 283 223 C279.3281 218.1041 274.5132 215.977 271 211 C270.1419 209.7843 271.8252 206.9283 271 206 C266.5075 200.9459 260.4518 199.9387 255 193 C250.7969 187.6506 252.6242 184.0404 249 178 C247.3243 175.2071 243 173 243 173 "/>
</g>
</g>
</svg>
