<?xml version="1.0" encoding="utf-8"?>
<!DOCTYPE svg PUBLIC "-//W3C//DTD SVG 1.1//EN" "http://www.w3.org/Graphics/SVG/1.1/DTD/svg11.dtd">
<svg viewBox="0 0 800 800" preserveAspectRatio="xMinYMin meet" xmlns="http://www.w3.org/2000/svg" version="1.1">
<g fill="none" stroke="black" stroke-linecap="round" stroke-linejoin="round" stroke-width="0.92646">
<g transform="translate(87.52,87.52) scale(3.2381) translate(-130,-134.1333)">
<path id="0" d="M130 211.1333 C130 211.1333 130.7628 202.9603 134 197.1333 C140.164 186.0381 141.254 185.0079 150 175.1333 C156.3557 167.9575 157.1523 167.7388 165 162.1333 C170.8165 157.9787 171.3048 157.3195 178 155.1333 C195.0553 149.5643 196.2646 148.3199 214 146.1333 C231.683 143.9532 234.9895 144.6778 251 146.1333 C254.1864 146.423 254.4854 149.2221 258 150.1333 C267.0861 152.489 268.5268 150.765 278 153.1333 C284.0491 154.6456 284.7317 154.806 290 158.1333 C303.2074 166.4748 306.5653 167.1268 316 177.1333 C320.9001 182.3304 323 193.1333 323 193.1333 "/>
<path id="1" d="M133 210.1333 C133 210.1333 135.8463 219.0503 137 219.1333 C170.5316 221.5457 207.4122 221.833 272 220.1333 C280.1978 219.9176 280.5726 216.3974 289 215.1333 C299.9912 213.4846 301.1893 215.7231 312 214.1333 C317.4122 213.3374 321.9264 211.8901 323 210.1333 C324.4018 207.8395 323.6481 197.0695 323 196.1333 C322.7579 195.7836 314 197.1333 314 197.1333 "/>
<path id="2" d="M219 224.1333 C219 224.1333 224.4007 237.9496 225 251.1333 C226.3383 280.5769 226.1695 287.4817 223 312.1333 C222.4878 316.1174 218.9955 319.6356 216 321.1333 C213.1347 322.566 207.8856 322.3958 205 321.1333 C202.885 320.208 200.9838 317.6314 200 314.1333 C196.9425 303.2621 196.0002 289.1338 196 289.1333 C195.9999 289.1331 195.2087 301.1219 196 306.1333 C196.1151 306.8625 198.5445 307.0516 199 308.1333 C201.6666 314.4665 201.3334 318.8001 204 325.1333 C204.4555 326.215 205.7453 327.0869 207 327.1333 C216.7806 327.4956 229.8584 327.8229 231 326.1333 C233.4319 322.5341 233.1774 307.5006 232 290.1333 C231.2352 278.8528 227.997 278.4992 227 267.1333 C225.5537 250.646 227.419 249.8923 227 233.1333 C226.9258 230.1635 226.5215 227.9155 226 227.1333 C225.8436 226.8987 223 227.1333 223 227.1333 "/>
<path id="3" d="M218 157.1333 L213 134.1333 "/>
</g>
</g>
</svg>
