<?xml version="1.0" encoding="utf-8"?>
<!DOCTYPE svg PUBLIC "-//W3C//DTD SVG 1.1//EN" "http://www.w3.org/Graphics/SVG/1.1/DTD/svg11.dtd">
<svg viewBox="0 0 800 800" preserveAspectRatio="xMinYMin meet" xmlns="http://www.w3.org/2000/svg" version="1.1">
<g fill="none" stroke="black" stroke-linecap="round" stroke-linejoin="round" stroke-width="1.2433">
<g transform="translate(105.6173,87.52) scale(2.413) translate(-167,-117.1333)">
<path id="0" d="M167 239.1333 C167 239.1333 168.0344 218.6589 173 201.1333 C176.1415 190.0456 177.5092 189.2052 184 179.1333 C191.7205 167.1532 192.1223 166.2643 202 156.1333 C211.1286 146.7706 212.0904 146.3107 223 139.1333 C230.5467 134.1684 231.3767 133.5479 240 131.1333 C255.5435 126.7811 256.6463 127.0958 273 125.1333 C281.2447 124.144 281.7986 124.0501 290 125.1333 C307.8137 127.4861 308.8956 127.0555 326 132.1333 C340.1776 136.3423 340.9959 137.0659 354 144.1333 C363.4419 149.2648 364.5294 149.6627 372 157.1333 C382.8444 167.9778 383.638 169.0677 392 182.1333 C399.2294 193.4292 398.4153 194.4943 404 207.1333 C407.8874 215.9312 409.5433 216.6357 411 225.1333 C412.2768 232.5814 410 242.1333 410 242.1333 "/>
<path id="1" d="M168 240.1333 C168 240.1333 171.5984 241.6389 174 241.1333 C179.8294 239.9061 180.7102 237.2178 187 236.1333 C194.2598 234.8816 195.7181 234.7174 203 236.1333 C212.7218 238.0237 213.2782 241.243 223 243.1333 C230.2819 244.5492 231.2716 244.0166 239 243.1333 C248.3983 242.0592 249.0112 239.1333 258 239.1333 C273.139 239.1333 278.0007 243.441 290 243.1333 C292.6815 243.0646 293.8693 238.4705 297 238.1333 C321.1768 235.5297 328.4779 234.3885 355 236.1333 C363.4608 236.69 364.9377 241.7896 373 243.1333 C377.9075 243.9512 379.1778 241.1333 385 241.1333 C397.1296 241.1333 410 243.1333 410 243.1333 "/>
<path id="2" d="M285 243.1333 C285 243.1333 282.9422 287.2628 285 330.1333 C285.9056 349.0003 286.4634 353.2275 291 368.1333 C292.1886 372.0388 296.0995 375.1665 299 376.1333 C301.5379 376.9793 307.0021 376.1312 309 374.1333 C313.3287 369.8046 316.6854 361.7346 318 357.1333 C318.2111 356.3944 315 353.1333 315 353.1333 "/>
<path id="3" d="M278 123.1333 C278 123.1333 277.7 117.7333 278 117.1333 C278.075 116.9833 280.9953 117.1049 281 117.1333 C281.0537 117.4556 279 123.1333 279 123.1333 "/>
<path id="4" d="M222 244.1333 L223 251.1333 "/>
<path id="5" d="M170 241.1333 L170 246.1333 "/>
<path id="6" d="M289 244.1333 L289 247.1333 "/>
<path id="7" d="M340 238.1333 L340 241.1333 "/>
<path id="8" d="M375 245.1333 L376 246.1333 "/>
<path id="9" d="M411 240.1333 L410 244.1333 "/>
<path id="10" d="M318 356.1333 C318 356.1333 316.0005 364.1326 316 364.1333 C315.9997 364.1337 316 359.1333 316 359.1333 "/>
</g>
</g>
</svg>
