<?xml version="1.0" encoding="utf-8"?>
<!DOCTYPE svg PUBLIC "-//W3C//DTD SVG 1.1//EN" "http://www.w3.org/Graphics/SVG/1.1/DTD/svg11.dtd">
<svg viewBox="0 0 800 800" preserveAspectRatio="xMinYMin meet" xmlns="http://www.w3.org/2000/svg" version="1.1">
<g fill="none" stroke="black" stroke-linecap="round" stroke-linejoin="round" stroke-width="1.8289">
<g transform="translate(87.52,96.5417) scale(1.6403) translate(-142,-103)">
<path id="0" d="M142 335 C142 335 139.8656 309.9522 142 286 C144.3 260.1893 144.2111 258.8057 151 234 C156.94 212.2962 157.5656 210.8751 168 191 C178.0727 171.8139 178.7215 169.017 193 154 C206.0113 140.3157 210.943 142.3545 226 130 C229.5902 127.0542 228.6158 124.0055 232 122 C240.1105 117.1938 242.3677 116.2446 253 114 C286.4223 106.9442 287.8397 104.4924 322 103 C389.3134 100.0591 391.9247 100.4347 459 105 C485.7784 106.8226 496.8332 108.4218 513 116 C518.1669 118.422 523.8447 132.7675 523 135 C521.4966 138.9733 508.9502 143.0498 499 153 C491.4189 160.5811 492.6408 166.1254 486 172 C482.3154 175.2594 478.8731 173.1524 473 176 C462.8501 180.9212 460.7829 181.4144 453 188 C449.2674 191.1584 448.9551 192.8456 447 198 C443.6719 206.7741 445.7229 213.1339 442 217 C437.5881 221.5816 430.5448 220.083 421 225 C414.679 228.2563 413.7872 228.7218 409 234 C394.9183 249.526 393.5641 259.2012 382 268 C377.6777 271.2887 371.5981 270.0422 363 269 C356.3479 268.1937 350.3536 262.9472 349 264 C340.6852 270.4671 335.0113 289.8638 318 304 C303.2265 316.2766 295.9615 311.4862 278 323 C258.0791 335.7698 258.9619 339.8794 240 354 C236.2816 356.769 235.2884 357.4282 231 358 C221.5534 359.2595 218.3424 355.5583 210 358 C200.6597 360.7338 199.1237 365.945 190 370 C187.479 371.1205 186.3461 370.5148 183 370 C173.6235 368.5575 168.981 369.5579 164 366 C159.3446 362.6747 155 350 155 350 "/>
<path id="1" d="M371 269 C371 269 377.3414 268.7644 380 271 C396.0364 284.4851 399.7194 287.2267 415 306 C434.1315 329.5044 434.1538 330.9004 450 357 C459.3683 372.4301 458.8932 373.1757 466 390 C483.3279 431.0212 497.8215 468.7472 499 473 C499.0354 473.1279 493.6071 473.9214 489 473 C479.233 471.0466 478.8335 470.4204 469 467 C444.3968 458.4424 441.5455 460.3551 420 449 C406.7133 441.9975 405.1714 438.5221 395 428 C392.1025 425.0026 391.6885 423.3034 391 419 C389.8572 411.8575 391 403 391 403 C391 403 390.3041 417.138 393 429 C395.0196 437.8863 396.6008 438.5681 401 447 C402.406 449.6949 402.6342 450.4945 405 452 C417.907 460.2136 420.4007 463.5594 434 468 C441.9471 470.595 446.0486 469.4725 454 468 C457.1511 467.4165 458.6173 465.6475 461 463 C462.4339 461.4068 462.2491 458.2209 463 458 C466.2456 457.0454 475.395 459.0727 478 458 C478.8479 457.6509 480.3222 452.7723 480 451 C479.7705 449.7375 476 447 476 447 "/>
<path id="2" d="M225 130 C225 130 220.5291 121.9033 218 114 C216.7077 109.9617 216.7509 105.3986 217 105 C217.0818 104.8691 221.6657 105.2376 223 106 C223.5511 106.3149 223.9399 107.5587 224 109 C224.4146 118.9508 224 130 224 130 "/>
<path id="3" d="M228 155 C228 155 213.8966 188.8089 201 223 C192.4167 245.7557 192.099 245.9282 185 269 C182.1797 278.166 181 288 181 288 "/>
<path id="4" d="M245 167 C245 167 250.6545 172.5553 257 176 C267.6833 181.7995 268.2907 181.6787 280 186 C310.1612 197.1309 310.4703 199.3676 341 207 C363.3501 212.5875 388 213 388 213 "/>
<path id="5" d="M287 195 C287 195 285.668 229.0723 288 259 C288.4873 265.2536 293 272 293 272 "/>
<path id="6" d="M293 172 L426 195 "/>
</g>
</g>
</svg>
