<?xml version="1.0" encoding="utf-8"?>
<!DOCTYPE svg PUBLIC "-//W3C//DTD SVG 1.1//EN" "http://www.w3.org/Graphics/SVG/1.1/DTD/svg11.dtd">
<svg viewBox="0 0 800 800" preserveAspectRatio="xMinYMin meet" xmlns="http://www.w3.org/2000/svg" version="1.1">
<g fill="none" stroke="black" stroke-linecap="round" stroke-linejoin="round" stroke-width="1.9345">
<g transform="translate(87.52,138.8633) scale(1.5508) translate(-75,-99.3333)">
<path id="0" d="M279 121.3333 C279 121.3333 280.1648 108.1313 283 103.3333 C284.2973 101.1378 289.9985 99.1904 292 99.3333 C293.2304 99.4212 296.1748 101.9952 297 104.3333 C298.5069 108.603 298.9142 112.2194 298 116.3333 C297.448 118.8172 295.4241 120.7907 293 122.3333 C291.1757 123.4943 287 123.3333 287 123.3333 "/>
<path id="1" d="M287 121.1167 C287 121.1167 275.2486 121.1193 264 123.1167 C222.0889 130.5588 219.3248 128.7332 180 140.1167 C164.6844 144.5501 163.5918 147.282 150 156.1167 C144.4489 159.7249 145.4936 161.9659 140 166.1167 C123.3731 178.6792 120.0436 176.4617 105 190.1167 C88.6358 204.9703 75 225.1167 75 225.1167 "/>
<path id="2" d="M293 121.1167 C293 121.1167 296.5901 120.1848 299 121.1167 C331.218 133.5743 335.2464 133.7399 368 150.1167 C384.2788 158.256 384.2574 159.8587 399 171.1167 C411.5486 180.6992 410.4493 182.6396 423 192.1167 C434.6767 200.9338 438.7862 198.4003 448 208.1167 C464.3473 225.3556 478 250.1167 478 250.1167 "/>
<path id="3" d="M76 230.1167 C76 230.1167 85.1903 227.2768 94 227.1167 C112.0365 226.7887 114.3139 225.839 131 229.1167 C140.2674 230.9371 141.5633 232.7734 150 238.1167 C155.9205 241.8663 157.0063 247.6729 161 248.1167 C172.0284 249.3421 178.09 244.342 195 243.1167 C212.2238 241.8686 212.6809 242.4239 230 243.1167 C237.4621 243.4152 238.2328 242.8609 245 245.1167 C258.3904 249.5801 260.6717 255.8342 272 257.1167 C282.1149 258.2617 285.1674 252.3789 298 251.1167 C314.8913 249.4552 315.9502 250.0728 333 251.1167 C339.9094 251.5397 341.2021 251.3056 347 254.1167 C356.4926 258.7192 360.2124 267.388 366 267.1167 C380.3976 266.4418 388.3925 257.8989 411 251.1167 C423.0301 247.5076 423.6202 247.3546 436 246.1167 C448.1371 244.903 448.9395 244.968 461 246.1167 C469.3849 246.9152 478 250.1167 478 250.1167 "/>
<path id="4" d="M291 121.1167 C291 121.1167 266.1297 134.8213 247 152.1167 C230.8937 166.6786 232.9984 171.7612 218 187.1167 C213.0979 192.1355 210.5322 190.3124 205 195.1167 C192.0454 206.3668 189.6901 208.9357 180 220.1167 C178.7818 221.5223 180.188 223.394 179 225.1167 C171.2526 236.3504 160 249.1167 160 249.1167 "/>
<path id="5" d="M292 124.1167 C292 124.1167 293.0839 138.5163 291 152.1167 C283.6898 199.8252 273 248.1167 273 248.1167 "/>
<path id="6" d="M297 124.1167 C297 124.1167 296.0635 127.6693 297 129.1167 C309.6153 148.6131 317.6898 151.9976 330 175.1167 C336.8278 187.9396 332.2464 191.8477 338 206.1167 C344.3637 221.8986 347.4629 221.2887 355 237.1167 C362.3627 252.5784 368 269.1167 368 269.1167 "/>
<path id="7" d="M294 255.1167 C294 255.1167 280.3419 339.5103 263 410.1167 C261.0056 418.2369 258.306 420.2611 252 426.1167 C245.5895 432.0693 242.9535 433.7774 235 436.1167 C228.2196 438.1109 225.6319 437.4325 218 436.1167 C212.2258 435.1211 209.958 434.481 206 431.1167 C201.567 427.3486 200.1002 424.6298 198 419.1167 C196.7438 415.8192 197.4414 410.7451 198 410.1167 C198.4414 409.6201 203.2737 408.8774 206 410.1167 C212.3201 412.9895 214.1152 418.598 220 420.1167 C225.8505 421.6265 232.9413 421.1607 237 418.1167 C243.9108 412.9336 246.183 407.5082 252 396.1167 C257.8045 384.7496 258.9053 383.5103 261 371.1167 C264.6732 349.3835 261.2366 347.7765 264 325.1167 C266.1965 307.1056 265.8889 306.2389 271 289.1167 C275.6805 273.4369 284 258.1167 284 258.1167 "/>
</g>
</g>
</svg>
