<?xml version="1.0" encoding="utf-8"?>
<!DOCTYPE svg PUBLIC "-//W3C//DTD SVG 1.1//EN" "http://www.w3.org/Graphics/SVG/1.1/DTD/svg11.dtd">
<svg viewBox="0 0 800 800" preserveAspectRatio="xMinYMin meet" xmlns="http://www.w3.org/2000/svg" version="1.1">
<g fill="none" stroke="black" stroke-linecap="round" stroke-linejoin="round" stroke-width="1.5745">
<g transform="translate(174.2141,87.52) scale(1.9054) translate(-120,-64.4167)">
<path id="0" d="M157 77.4167 C157 77.4167 170.5804 82.7846 184 84.4167 C206.7632 87.1852 211.5379 90.261 231 86.4167 C246.6831 83.3188 265 68.4167 265 68.4167 "/>
<path id="1" d="M274 77.4167 C274 77.4167 281.5388 84.5352 290 89.4167 C307.1211 99.2942 307.7925 100.6228 326 107.4167 C340.3268 112.7625 357 114.4167 357 114.4167 "/>
<path id="2" d="M156 75.4167 C156 75.4167 159.5289 98.8573 154 113.4167 C146.6348 132.8118 137.469 139.3636 126 154.4167 C125.2553 155.3941 122 155.4167 122 155.4167 "/>
<path id="3" d="M125 159.4167 C125 159.4167 132.426 160.2025 137 163.4167 C149.4951 172.197 150.728 173.8227 162 185.4167 C167.7746 191.3563 168.7275 192.3682 172 199.4167 C174.702 205.2364 175 213.4167 175 213.4167 "/>
<path id="4" d="M180 217.4167 C180 217.4167 183.3386 213.6896 186 213.4167 C199.7011 212.0114 203.1971 211.6032 219 213.4167 C232.7932 214.9995 234.8892 215.3951 247 220.4167 C253.7197 223.2029 260 230.4167 260 230.4167 "/>
<path id="5" d="M265 229.4167 C265 229.4167 265.475 226.1323 267 224.4167 C272.725 217.9761 273.6148 216.8872 281 211.4167 C286.6836 207.2066 287.7357 205.5442 294 204.4167 C310.4118 201.4625 331 202.4167 331 202.4167 "/>
<path id="6" d="M357 116.4167 C357 116.4167 351.1606 119.9254 348 124.4167 C342.2587 132.5753 339.9959 134.4351 338 143.4167 C335.5548 154.4203 339.2381 157.0359 338 169.4167 C337.3143 176.2737 334.8322 176.5511 334 183.4167 C332.9084 192.4224 334 202.4167 334 202.4167 "/>
<path id="7" d="M266 68.4167 L276 83.4167 "/>
<path id="8" d="M243 141.4167 C243 141.4167 240.1031 146.396 240 146.4167 C239.9691 146.4229 238 142.4167 238 142.4167 "/>
<path id="9" d="M245 144.4167 C245 144.4167 244.1136 137.1537 245 130.4167 C246.5613 118.5509 246.6894 118.1012 250 106.4167 C255.132 88.3037 262 70.4167 262 70.4167 "/>
<path id="10" d="M242 142.4167 C242 142.4167 259.7108 133.3048 278 126.4167 C297.9735 118.8942 299.2312 116.9574 319 113.4167 C330.7809 111.3067 334.3396 112.9953 345 114.4167 C346.7949 114.656 349 117.4167 349 117.4167 "/>
<path id="11" d="M243 143.4167 C243 143.4167 253.6673 147.9131 262 154.4167 C273.5966 163.4677 272.1179 166.5494 284 175.4167 C305.0197 191.103 329 204.4167 329 204.4167 "/>
<path id="12" d="M241 141.4167 C241 141.4167 240.9445 153.6884 243 165.4167 C249.384 201.843 258 238.4167 258 238.4167 "/>
<path id="13" d="M158 79.4167 C158 79.4167 172.8779 97.6489 190 112.4167 C212.3857 131.7244 238 148.4167 238 148.4167 "/>
<path id="14" d="M131 155.4167 C131 155.4167 174.5707 155.931 190 155.4167 C190.2789 155.4074 190.6997 153.4398 191 153.4167 C197.5066 152.9162 205.0722 155.1887 216 153.4167 C221.6706 152.4971 222.2992 148.7322 228 147.4167 C233.9629 146.0406 242 147.4167 242 147.4167 "/>
<path id="15" d="M179 217.4167 C179 217.4167 196.8316 200.2395 212 182.4167 C216.3177 177.3433 214.7197 175.3818 219 170.4167 C226.7175 161.4643 229.6558 162.0962 237 153.4167 C239.822 150.0816 241 144.4167 241 144.4167 "/>
<path id="16" d="M240 142.4167 C240 142.4167 238.4935 160.4411 234 177.4167 C220.6205 227.9614 217.2758 228.0466 204 278.4167 C200.4583 291.8544 203.5177 293.0494 200 306.4167 C193.6783 330.439 192.6989 332.6694 184 354.4167 C182.4969 358.1745 178 361.4167 178 361.4167 "/>
<path id="17" d="M179 359.4167 C179 359.4167 191.745 318.0775 202 276.4167 C207.6925 253.2911 204.7481 252.0798 211 229.4167 C216.5766 209.2015 219.8051 209.6173 226 189.4167 C231.2022 172.453 234 154.4167 234 154.4167 "/>
<path id="18" d="M174 353.4167 L192 356.4167 "/>
<path id="19" d="M172 351.4167 C172 351.4167 178.0001 353.4166 178 353.4167 C177.9999 353.4168 171.4465 352.1615 171 352.4167 C170.8015 352.5301 171.676 355.8957 171 357.4167 C170.2189 359.1742 167.4595 359.6935 167 361.4167 C166.0024 365.1577 166.0702 369.1623 167 372.4167 C167.3502 373.6423 169.2022 375.0314 171 375.4167 C174.8722 376.2464 177.6322 376.3789 181 375.4167 C182.732 374.9218 183.5395 373.6075 185 371.4167 C187.3368 367.9114 188.0156 367.3545 189 363.4167 C190.3399 358.0569 190 351.4167 190 351.4167 "/>
<path id="20" d="M173 374.4167 C173 374.4167 159.0128 392.3809 159 392.4167 C158.996 392.4279 166.1334 390.9054 168 388.4167 C171.5595 383.6707 174 372.4167 174 372.4167 "/>
<path id="21" d="M356 112.4167 C356 112.4167 356.9999 116.4167 357 116.4167 C357 116.4167 357 112.4167 357 112.4167 C357 112.4167 357.25 116.1667 357 116.4167 C356.75 116.6667 353.1231 116.6321 353 116.4167 C352.6231 115.7571 352.9955 109.4234 353 109.4167 C353.0017 109.4141 355 113.4167 355 113.4167 "/>
<path id="22" d="M265 64.4167 C265 64.4167 265.0001 71.4166 265 71.4167 C264.9999 71.4167 264 65.4167 264 65.4167 "/>
<path id="23" d="M156 75.4167 C156 75.4167 156.9998 79.417 157 79.4167 C157.0003 79.4161 157 73.4167 157 73.4167 "/>
<path id="24" d="M124 154.4167 C124 154.4167 125.0383 156.3783 125 156.4167 C124.8084 156.6083 121.2213 157.5937 121 157.4167 C120.6543 157.1401 120 152.4167 120 152.4167 "/>
<path id="25" d="M178 210.4167 C178 210.4167 178 214.4167 178 214.4167 C177.985 214.4167 175 210.4167 175 210.4167 "/>
<path id="26" d="M261 230.4167 C261 230.4167 259.0191 231.4358 259 231.4167 C258.9427 231.3594 258.8346 228.5159 259 228.4167 C259.4596 228.1409 263.5404 228.1409 264 228.4167 C264.1654 228.5159 264.18 231.2817 264 231.4167 C263.68 231.6567 260.2778 231.7501 260 231.4167 C259.4304 230.7332 259 225.4167 259 225.4167 "/>
<path id="27" d="M330 201.4167 C330 201.4167 329.9999 206.4167 330 206.4167 C330.0001 206.4166 331 200.4168 331 200.4167 C331 200.4166 331 202.4167 331 202.4167 C330.9786 202.4167 328.9998 200.4159 329 200.4167 C329.0005 200.4188 331.9937 206.4104 332 206.4167 C332.0021 206.4188 332 203.4167 332 203.4167 "/>
<path id="28" d="M262 230.4167 C262 230.4167 267.9995 260.4166 268 260.4167 C268.0002 260.4167 268.6787 241.9369 268 231.4167 C267.9502 230.6443 266 229.4167 266 229.4167 "/>
</g>
</g>
</svg>
