<?xml version="1.0" encoding="utf-8"?>
<!DOCTYPE svg PUBLIC "-//W3C//DTD SVG 1.1//EN" "http://www.w3.org/Graphics/SVG/1.1/DTD/svg11.dtd">
<svg viewBox="0 0 800 800" preserveAspectRatio="xMinYMin meet" xmlns="http://www.w3.org/2000/svg" version="1.1">
<g fill="none" stroke="black" stroke-linecap="round" stroke-linejoin="round" stroke-width="1.3729">
<g transform="translate(87.52,110.4643) scale(2.1852) translate(-104,-89)">
<path id="0" d="M104 193 C104 193 104.0525 183.1533 106 174 C108.9778 160.0044 107.9781 157.8123 114 146 C120.0403 134.1516 121.9168 132.3957 132 123 C142.9375 112.8082 144.4067 111.8981 158 105 C177.004 95.3562 179.2881 91.2211 199 89 C245.5132 83.7591 257.1418 81.807 300 89 C319.5315 92.278 321.6301 100.4077 342 113 C348.8747 117.2498 349.2414 117.4546 355 123 C362.4834 130.2062 362.9662 130.5527 369 139 C375.2327 147.7258 376.3927 148.2089 380 158 C386.5227 175.7045 390 196 390 196 "/>
<path id="1" d="M104 199 C104 199 104.7931 193.7162 107 191 C110.4095 186.8037 111.9527 185.969 117 183 C119.8063 181.3493 120.5844 181.2277 124 181 C135.0128 180.2658 136.0781 179.6681 147 181 C155.8371 182.0777 159.7103 183.3552 165 186 C166.1612 186.5806 165.751 189.751 167 191 C168.249 192.249 171.8566 193.1195 172 193 C172.294 192.755 171.8346 187.01 173 186 C176.1663 183.2559 180.4215 180.7649 187 180 C199.928 178.4967 204.2734 178.208 216 181 C222.0734 182.446 228.4652 189.9236 229 190 C229 190 229.513 183.1249 230 183 C236.7558 181.2677 252.4178 178.5017 268 180 C274.1026 180.5868 277.4716 184.0377 282 188 C283.5634 189.3679 283.9997 194.0001 284 194 C284.0009 193.9995 283.3199 188.5303 284 187 C284.3671 186.1741 285.9333 185.7515 288 185 C296.8231 181.7916 297.227 180.2839 306 179 C316.6885 177.4358 318.4571 177.5357 329 179 C335.2773 179.8719 338.4435 181.1103 342 184 C343.9802 185.6089 344.9971 191.9981 345 192 C345.0014 192.0009 344.4135 186.4798 345 186 C346.6073 184.6849 350.7912 183.1488 356 183 C367.2499 182.6786 369.5495 183.4518 380 185 C381.4178 185.21 382.4316 185.8632 383 187 C385.6796 192.3593 388 201 388 201 "/>
<path id="2" d="M248 183 C248 183 243.5027 252.4087 248 309 C248.9264 320.6567 252.8131 325.3261 260 334 C264.9539 339.9788 269.062 342.236 277 344 C288.5628 346.5695 298.1007 345.7248 305 344 C306.4784 343.6304 309 336 309 336 "/>
<path id="3" d="M237 182 C237 182 235.7429 243.0799 237 303 C237.2292 313.9257 237.6138 314.3946 240 325 C242.0363 334.0503 242.0243 335.6165 246 343 C248.3048 347.2803 249.9262 348.0901 254 351 C256.2067 352.5762 257.0931 352.8496 260 353 C284.7911 354.2823 305.1154 355.5588 312 354 C312.5244 353.8813 313.7791 345.6749 313 341 C312.656 338.9358 309 336 309 336 "/>
</g>
</g>
</svg>
