<?xml version="1.0" encoding="utf-8"?>
<!DOCTYPE svg PUBLIC "-//W3C//DTD SVG 1.1//EN" "http://www.w3.org/Graphics/SVG/1.1/DTD/svg11.dtd">
<svg viewBox="0 0 800 800" preserveAspectRatio="xMinYMin meet" xmlns="http://www.w3.org/2000/svg" version="1.1">
<g fill="none" stroke="black" stroke-linecap="round" stroke-linejoin="round" stroke-width="2.501">
<g transform="translate(87.52,166.0898) scale(1.1995) translate(-56,-75.1333)">
<path id="0" d="M171 95.1333 C171 95.1333 173.3723 90.2833 176 88.1333 C177.8706 86.6028 179.0897 86.3979 182 86.1333 C189.5325 85.4486 190.4927 85.0978 198 86.1333 C204.3586 87.0104 204.6703 89.6166 211 90.1333 C228.0989 91.5292 229.9469 91.9605 247 90.1333 C256.7785 89.0856 257.2065 85.5324 267 84.1333 C277.3302 82.6576 278.5509 85.1129 289 84.1333 C293.8832 83.6755 294.312 81.1333 299 81.1333 C320.0959 81.1333 323.2573 85.1211 344 84.1333 C352.4556 83.7307 356.3135 78.9088 362 78.1333 C363.0851 77.9854 364.0953 80.7762 366 81.1333 C377.9242 83.3691 382.5101 81.028 394 84.1333 C398.3437 85.3073 398.2212 88.821 403 91.1333 C412.9807 95.9627 425 99.1333 425 99.1333 "/>
<path id="1" d="M172 97.1333 C172 97.1333 169.9692 114.3588 171 129.1333 C171.3641 134.3523 174.2222 134.6887 175 140.1333 C177.1029 154.8539 177 155.7266 177 171.1333 C177 193.0009 172.8551 194.3997 175 215.1333 C177.1617 236.0302 184.2308 237.3452 186 258.1333 C188.0434 282.1428 182.6547 289.7959 183 309.1333 C183.0344 311.0583 184.8947 312.7936 187 314.1333 C189.4251 315.6766 190.5723 315.972 194 316.1333 C231.7336 317.909 233.7255 316.0532 272 318.1333 C278.9401 318.5105 279.2645 320.9561 286 321.1333 C297.4567 321.4348 298.8648 321.9171 310 319.1333 C327.839 314.6736 328.7782 311.3399 346 306.1333 C349.0191 305.2206 350.069 305.1879 353 306.1333 C364.3997 309.8106 365.4776 313.1789 377 316.1333 C383.5064 317.8016 385.9428 317.8919 392 316.1333 C399.5161 313.9512 401.4105 312.2252 408 307.1333 C411.497 304.4311 411.9831 303.4043 414 299.1333 C420.1798 286.0466 420.7637 284.9013 425 271.1333 C426.5263 266.1728 425.804 265.6216 426 260.1333 C426.3019 251.679 427.0466 251.3752 426 243.1333 C423.1055 220.3393 420.2546 219.961 418 197.1333 C416.3135 180.0577 416.7761 179.4432 418 162.1333 C420.2554 130.2362 425 98.1333 425 98.1333 "/>
<path id="2" d="M171 94.1333 C171 94.1333 167.4225 94.9408 165 94.1333 C159.3476 92.2492 158.6939 89.6862 153 88.1333 C148.8245 86.9946 147.8918 87.6886 143 88.1333 C137.0409 88.6751 135.597 87.9348 131 90.1333 C125.57 92.7303 120.6314 97.9607 120 99.1333 C119.9219 99.2784 123.7982 101.5193 124 103.1333 C125.2554 113.1762 123.218 118.6212 124 131.1333 C124.1152 132.9766 125.8949 133.2936 126 135.1333 C126.7921 148.9949 127.2489 151.1467 126 166.1333 C125.3017 174.513 123.0168 174.745 122 183.1333 C121.0696 190.8093 120.4961 192.0436 122 199.1333 C123.7374 207.3242 128.2914 208.1027 129 216.1333 C131.0477 239.3404 126.9504 242.2928 128 267.1333 C128.4154 276.9652 130.9289 277.1362 132 287.1333 C133.8988 304.8555 132.1148 320.5412 134 323.1333 C134.6543 324.033 145.3162 320.4073 156 320.1333 C164.2021 319.923 165.8262 323.059 173 322.1333 C179.3307 321.3165 187 316.1333 187 316.1333 "/>
<path id="3" d="M123 95.1333 C123 95.1333 173.6952 87.1048 224 83.1333 C249.1654 81.1466 250.0454 85.1914 275 83.1333 C297.8309 81.2504 298.1738 76.7638 321 75.1333 C353.3487 72.8227 360.7293 70.1711 387 75.1333 C397.8311 77.1792 411 92.1333 411 92.1333 "/>
<path id="4" d="M244 145.1333 C244 145.1333 227.7185 144.3945 220 147.1333 C216.8159 148.2632 213.4813 152.6438 213 156.1333 C212.054 162.9916 213.3539 168.4891 216 176.1333 C217.0159 179.068 218.8182 180.0879 222 182.1333 C225.2048 184.1936 226.3663 184.9987 230 185.1333 C238.4787 185.4474 240.8144 185.0979 249 183.1333 C251.9246 182.4314 252.9608 181.3992 255 179.1333 C256.8874 177.0362 257.4127 176.0699 258 173.1333 C259.2636 166.8153 259.5852 165.278 259 159.1333 C258.6934 155.9137 258.03 153.8051 256 152.1333 C251.4223 148.3634 242 145.1333 242 145.1333 "/>
<path id="5" d="M357 143.1333 C357 143.1333 344.3265 142.4678 334 144.1333 C330.1455 144.755 328.4988 145.6345 326 148.1333 C323.0847 151.0486 321.8443 152.9116 321 157.1333 C319.6491 163.8881 319.3487 167.4719 321 173.1333 C322.0363 176.6865 324.1897 177.8311 328 181.1333 C331.3727 184.0564 331.9964 184.7988 336 186.1333 C341.6603 188.0201 342.5376 187.6546 349 188.1333 C355.8811 188.643 358.4957 189.7712 363 188.1333 C366.5098 186.857 368.1668 184.3831 371 180.1333 C373.6915 176.0961 374.0345 174.9609 375 170.1333 C375.894 165.6634 375.95 164.4083 375 160.1333 C374.1556 156.3334 373.4749 155.5082 371 152.1333 C368.2535 148.3881 367.5084 146.9907 364 145.1333 C360.376 143.2147 354 143.1333 354 143.1333 "/>
<path id="6" d="M241 164.1333 C241 164.1333 228.0857 161.7456 227 162.1333 C226.7957 162.2063 226.0102 167.7036 227 169.1333 C228.7294 171.6314 231.862 173.5816 236 175.1333 C238.5748 176.0989 241.0858 176.0034 243 175.1333 C244.7153 174.3536 246.1782 172.3933 247 170.1333 C247.7639 168.0325 247.225 164.8083 247 164.1333 C246.975 164.0583 245 164.1333 245 164.1333 "/>
<path id="7" d="M239 169.1333 C239 169.1333 237 168.133 237 168.1333 C237 168.134 239 170.1333 239 170.1333 "/>
<path id="8" d="M350 163.1333 C350 163.1333 341.3373 161.1518 338 162.1333 C336.0714 162.7006 333.1042 166.3617 333 168.1333 C332.8218 171.1633 334.8996 177.6962 337 179.1333 C339.9827 181.1741 346.7595 181.6574 352 181.1333 C353.9121 180.9421 356.2874 178.8436 357 177.1333 C357.9371 174.8842 357.8914 172.0305 357 169.1333 C356.3057 166.8769 354.6542 165.3149 353 164.1333 C352.3446 163.6652 350 164.1333 350 164.1333 "/>
<path id="9" d="M347 171.1333 C347 171.1333 345 172.0083 345 172.1333 C345 172.6333 346.4731 175.8172 347 176.1333 C347.2874 176.3058 349.9716 175.2751 350 175.1333 C350.0638 174.8144 348 171.1333 348 171.1333 "/>
<path id="10" d="M242 169.1333 C242 169.1333 239.1403 170.1801 239 170.1333 C238.9649 170.1216 238.9 168.1833 239 168.1333 C239.4 167.9333 242.8967 167.9956 243 168.1333 C243.1119 168.2825 242.0748 172.0835 242 172.1333 C241.9864 172.1424 240 170.1548 240 170.1333 C240 170.1333 242 170.1333 242 170.1333 "/>
<path id="11" d="M286 191.1333 C286 191.1333 293.0089 195.8862 300 198.1333 C306.2997 200.1582 307.0392 199.8096 314 200.1333 C328.3236 200.7995 329.773 202.2497 343 200.1333 C353.162 198.5074 363.2735 191.7874 364 192.1333 C364.3622 192.3058 365.6343 205.4348 364 210.1333 C363.2934 212.1648 359.6942 214.3945 356 215.1333 C349.022 216.5289 346.894 216.5148 339 215.1333 C327.7511 213.1648 327.5059 210.659 316 208.1333 C307.3534 206.2353 298 206.1333 298 206.1333 "/>
<path id="12" d="M343 216.1333 C343 216.1333 348.0713 223.7693 354 229.1333 C358.0186 232.7692 363.9843 234.9766 364 235.1333 C364.0069 235.2028 359.2476 238.764 355 239.1333 C338.1873 240.5953 336.0914 240.7569 318 239.1333 C297.6457 237.3067 296.3441 236.6849 277 232.1333 C271.9305 230.9405 267 227.1333 267 227.1333 "/>
<path id="13" d="M267 230.1333 C267 230.1333 270.1578 239.978 275 248.1333 C279.37 255.4933 279.9899 255.8728 286 262.1333 C291.7458 268.1185 292.1065 269.0403 299 273.1333 C307.3825 278.1104 308.4506 278.746 318 281.1333 C331.6419 284.5438 347 285.1333 347 285.1333 "/>
<path id="14" d="M355 242.1333 C355 242.1333 356.8957 263.8636 355 277.1333 C354.5744 280.1123 349 284.1333 349 284.1333 "/>
<path id="15" d="M342 242.1333 C342 242.1333 344.2244 256.7315 346 258.1333 C347.5171 259.3311 360.3671 258.0097 361 257.1333 C361.832 255.9813 360.301 242.1439 359 240.1333 C358.5859 239.4933 351.885 239.1908 350 240.1333 C348.7433 240.7617 347 244.0154 347 246.1333 C347 248.9572 349.9997 254.1333 350 254.1333 C350.0001 254.1333 348.813 246.4606 349 246.1333 C349.0468 246.0515 353.479 246.389 354 247.1333 C355.2042 248.8536 356.404 255.0224 356 256.1333 C355.7958 256.6949 351.4942 258.2994 350 258.1333 C349.138 258.0375 347.5258 256.5794 347 255.1333 C345.9249 252.1769 345.5721 247.9036 346 247.1333 C346.2491 246.685 351.7818 245.9151 352 246.1333 C352.3055 246.4388 352.3769 252.4737 352 253.1333 C351.8769 253.3487 348.1231 253.3487 348 253.1333 C347.6231 252.4737 347.3199 247.6637 348 246.1333 C348.3671 245.3074 351.9635 244.0895 352 244.1333 C352.2417 244.4234 353.5488 250.1209 353 252.1333 C352.7094 253.1987 350.4858 254.7619 349 255.1333 C347.827 255.4266 345.3266 254.6232 345 254.1333 C344.5546 253.4653 344.453 250.4096 345 249.1333 C345.3594 248.2946 346.6339 247.3817 348 247.1333 C351.249 246.5426 355.3835 246.5168 356 247.1333 C356.7707 247.904 357.265 253.2178 357 256.1333 C356.9351 256.8473 355.0953 258.1715 355 258.1333 C354.6346 257.9872 352.124 255.4968 352 254.1333 C351.8022 251.9575 353.755 247.2252 354 247.1333 C354.2384 247.0439 358.4893 249.6226 360 251.1333 C360.3021 251.4355 360.1179 253.0828 360 253.1333 C358.9779 253.5714 355.4042 254.5705 353 254.1333 C351.3972 253.8419 349.9411 252.6392 349 251.1333 C348.0375 249.5933 347.6105 247.1719 348 246.1333 C348.3789 245.1228 351.9388 243.118 352 243.1333 C352.0188 243.138 352.4834 246.1665 352 247.1333 C351.577 247.9793 350.3845 248.6718 349 249.1333 C347.8672 249.5109 346.4158 249.4452 346 249.1333 C345.5496 248.7955 345 247.3483 345 246.1333 C345 244.9183 345.5966 243.2846 346 243.1333 C347.329 242.635 350.0185 242.4453 353 243.1333 C355.8504 243.7911 358.0575 244.8767 359 246.1333 C359.6283 246.9711 359.0041 251.1344 359 251.1333 C358.9817 251.1288 355 245.1333 355 245.1333 "/>
<path id="16" d="M309 241.1333 C309 241.1333 308.417 252.2181 309 255.1333 C309.0666 255.4665 310.8042 256.2529 312 256.1333 C314.9689 255.8364 318.2791 255.2146 319 254.1333 C320.1534 252.4033 320.3216 245.9023 320 244.1333 C319.9494 243.8549 317 243.1333 317 243.1333 "/>
<path id="17" d="M316 242.1333 C316 242.1333 316.9622 248.7655 316 252.1333 C315.5051 253.8654 312.0089 256.1555 312 256.1333 C311.9482 256.0039 311.6415 243.8065 312 242.1333 C312.0165 242.0565 314.5211 241.7502 315 242.1333 C315.8301 242.7974 316.5778 244.2333 317 246.1333 C317.475 248.2708 317.3049 250.7522 317 251.1333 C316.8049 251.3772 313.1 251.3333 313 251.1333 C312.6 250.3333 312.52 243.7733 313 243.1333 C313.27 242.7733 318.73 242.7733 319 243.1333 C319.48 243.7733 319.345 250.7308 319 251.1333 C318.8213 251.3418 313.5672 250.8626 313 250.1333 C312.1213 249.0036 311.9979 242.1438 312 242.1333 C312.0007 242.1298 314 245.1333 314 245.1333 "/>
<path id="18" d="M290 264.1333 C290 264.1333 291.5019 258.2228 293 257.1333 C294.6159 255.9581 297.9825 255.3104 301 256.1333 C307.2126 257.8277 308.5276 262.0546 315 263.1333 C324.3175 264.6862 329.5076 261.0233 337 262.1333 C338.9683 262.4249 339.3577 265.8817 342 267.1333 C347.6998 269.8332 356 271.1333 356 271.1333 "/>
<path id="19" d="M322 264.1333 C322 264.1333 326.4666 267.0888 328 269.1333 C328.4842 269.779 327.6073 271.7406 328 272.1333 C329.1781 273.3114 334 275.1333 334 275.1333 "/>
<path id="20" d="M274 270.1333 C274 270.1333 285.6508 280.0847 298 286.1333 C309.2172 291.6275 310.9402 292.5405 323 294.1333 C335.8982 295.8369 339.694 295.8909 351 293.1333 C357.0826 291.6498 358.9763 288.843 364 284.1333 C366.0212 282.2385 367 278.1333 367 278.1333 "/>
<path id="21" d="M222 150.1333 L223 130.1333 "/>
<path id="22" d="M239 143.1333 C239 143.1333 239.2507 135.9644 241 130.1333 C242.0547 126.6175 245 123.1333 245 123.1333 "/>
<path id="23" d="M256 146.1333 C256 146.1333 257.8779 140.7559 261 138.1333 C269.2368 131.2144 281 125.1333 281 125.1333 "/>
<path id="24" d="M334 148.1333 L337 128.1333 "/>
<path id="25" d="M361 142.1333 L364 125.1333 "/>
<path id="26" d="M373 151.1333 L389 132.1333 "/>
<path id="27" d="M158 131.1333 C158 131.1333 150.9896 131.8892 147 134.1333 C144.3665 135.6147 142.9638 137.4347 142 140.1333 C141.0097 142.9062 141.2602 145.4209 142 148.1333 C142.3531 149.4279 143.5013 150.5981 145 151.1333 C149.312 152.6733 153.3379 154.0207 156 153.1333 C158.4903 152.3032 161.3423 148.6855 163 145.1333 C164.0299 142.9264 163.7104 140.9747 163 138.1333 C162.4165 135.7993 161.0179 133.5857 160 133.1333 C158.9171 132.652 154 134.1333 154 134.1333 "/>
<path id="28" d="M151 179.1333 C151 179.1333 144.7412 183.6477 142 188.1333 C140.0675 191.2956 139.6497 195.0313 140 197.1333 C140.1482 198.0226 142.4702 200.0568 144 200.1333 C149.8611 200.4264 157.7406 199.8906 160 198.1333 C161.4586 196.9989 162.623 189.6636 162 186.1333 C161.6854 184.3504 158.8232 181.8626 157 181.1333 C155.8019 180.6541 152 182.1333 152 182.1333 "/>
<path id="29" d="M154 221.1333 C154 221.1333 146.906 226.6861 145 231.1333 C143.487 234.6636 144.1407 237.5503 145 242.1333 C145.4345 244.4509 146.2477 245.1307 148 247.1333 C149.4938 248.8405 150.3972 249.8419 152 250.1333 C154.4042 250.5705 156.9369 250.5087 159 249.1333 C162.7673 246.6218 166.2488 243.2886 167 240.1333 C167.7775 236.8679 166.2313 231.7035 164 228.1333 C162.6532 225.9784 159.6125 224.9171 157 224.1333 C156.1398 223.8753 154 225.1333 154 225.1333 "/>
<path id="30" d="M161 265.1333 C161 265.1333 153.8809 268.7135 152 272.1333 C149.7807 276.1684 148.9607 281.4959 150 285.1333 C150.8601 288.1436 154.5029 291.3848 158 293.1333 C160.3314 294.299 163.739 293.9555 166 293.1333 C167.259 292.6755 168.5047 290.9496 169 289.1333 C169.7197 286.4946 169.6436 285.3515 169 282.1333 C167.7311 275.7889 167.4772 273.5373 165 269.1333 C164.0558 267.4548 160 266.1333 160 266.1333 "/>
<path id="31" d="M203 113.1333 C203 113.1333 199.5843 114.0622 199 115.1333 C197.5901 117.7181 196.6471 123.5451 197 124.1333 C197.2624 124.5707 202.3834 126.0055 205 125.1333 C209.2094 123.7302 212.9299 121.0315 215 118.1333 C216.0246 116.6989 215.4984 112.4623 215 111.1333 C214.8487 110.7299 212 110.1333 212 110.1333 "/>
<path id="32" d="M191 142.1333 C191 142.1333 190.1005 149.2101 191 152.1333 C191.3805 153.3701 193.8722 154.9924 195 155.1333 C195.9667 155.2542 198.5718 154.0754 199 153.1333 C200.0603 150.8006 200.4913 147.8184 200 144.1333 C199.6453 141.4734 197.7038 138.4852 197 138.1333 C196.5308 137.8987 192 140.1333 192 140.1333 "/>
<path id="33" d="M195 207.1333 C195 207.1333 192.3421 223.9402 193 226.1333 C193.1216 226.5386 199.0751 227.9583 201 227.1333 C203.2881 226.1527 206.0557 222.9661 207 220.1333 C207.8044 217.7202 207.4571 214.319 206 212.1333 C203.8143 208.8548 200.9068 207.4123 197 205.1333 C196.1042 204.6108 194.3526 204.7807 194 205.1333 C193.1772 205.9561 192 210.1333 192 210.1333 "/>
<path id="34" d="M220 208.1333 C220 208.1333 218.7233 215.3033 220 219.1333 C221.0446 222.267 224.115 225.7144 226 226.1333 C228.8275 226.7617 234.0348 225.4658 238 223.1333 C240.6265 221.5883 241.7706 219.3297 243 216.1333 C243.8266 213.9841 243.7639 212.2342 243 210.1333 C242.1782 207.8734 240.6931 205.738 239 205.1333 C236.0737 204.0882 232.7012 204.1464 229 205.1333 C226.7546 205.7321 224 209.1333 224 209.1333 "/>
<path id="35" d="M222 251.1333 C222 251.1333 225.3947 264.6332 228 269.1333 C228.4725 269.9495 231.1334 270.4727 233 270.1333 C235.5358 269.6723 236.5225 269.0391 239 267.1333 C242.6933 264.2924 244.335 263.4634 246 260.1333 C247.5065 257.1204 248.0274 252.8799 247 251.1333 C245.2326 248.1288 239.8418 244.4893 236 243.1333 C234.5287 242.614 230 245.1333 230 245.1333 "/>
<path id="36" d="M404 115.1333 C404 115.1333 398.9219 117.9823 398 120.1333 C396.9042 122.6902 397.2286 126.0477 398 129.1333 C398.3214 130.419 399.6063 131.7351 401 132.1333 C405.0779 133.2984 408.4158 134.1289 412 133.1333 C414.8971 132.3286 417.387 129.6681 419 127.1333 C419.7714 125.9211 419.7342 123.1821 419 122.1333 C417.5464 120.0567 415.3978 118.3326 412 117.1333 C407.9865 115.7168 402.902 115.8627 402 116.1333 C401.8884 116.1668 402 120.1333 402 120.1333 "/>
<path id="37" d="M390 160.1333 C390 160.1333 385.0813 175.7856 386 178.1333 C386.5639 179.5743 397.638 183.5339 399 183.1333 C399.82 182.8922 402.8107 177.2974 403 173.1333 C403.2205 168.2814 402.0739 163.7258 400 161.1333 C398.531 159.297 393.0328 157.6251 391 158.1333 C388.844 158.6723 384 165.1333 384 165.1333 "/>
<path id="38" d="M397 196.1333 C397 196.1333 395 199.0499 395 201.1333 C395 204.8836 396.4643 209.8411 397 210.1333 C397.5709 210.4447 404.4292 208.7042 406 207.1333 C407.0472 206.0861 407.7345 201.7248 407 200.1333 C405.963 197.8866 403.3688 195.6072 400 194.1333 C396.6968 192.6882 392.9947 192.9339 391 193.1333 C390.7311 193.1602 390 195.1333 390 195.1333 "/>
<path id="39" d="M136 325.1333 C136 325.1333 132.7665 373.5559 136 377.1333 C138.6415 380.0559 162.7968 378.2989 183 377.1333 C185.2237 377.005 187.94 375.0638 188 374.1333 C189.0648 357.6289 187 315.1333 187 315.1333 "/>
<path id="40" d="M189 378.1333 C189 378.1333 197.0843 374.8157 205 374.1333 C225.3822 372.3762 226.4086 374.7939 247 373.1333 C256.9445 372.3314 257.1426 369.4343 267 369.1333 C321.3768 367.473 323.5849 371.707 378 369.1333 C396.3007 368.2678 412.8227 365.6793 415 362.1333 C418.5732 356.3142 412.6061 335.7689 413 312.1333 C413.0792 307.3794 416 302.1333 416 302.1333 "/>
<path id="41" d="M134 348.1333 C134 348.1333 165.1465 349.6455 195 346.1333 C232.3671 341.7372 232.7713 334.9537 270 332.1333 C330.2408 327.5696 332.0814 332.8255 393 331.1333 C403.4396 330.8433 414 328.1333 414 328.1333 "/>
<path id="42" d="M144 362.1333 C144 362.1333 144.7001 369.085 145 369.1333 C149.1803 369.8076 170.6147 368.9723 175 367.1333 C175.7982 366.7986 176.2635 356.2463 176 356.1333 C174.4999 355.4904 164.364 356.0605 154 358.1333 C147.5225 359.4288 141 363.1333 141 363.1333 "/>
<path id="43" d="M229 354.1333 C229 354.1333 217.328 353.4092 209 354.1333 C207.6784 354.2483 206.3594 355.2946 206 356.1333 C205.453 357.4096 205.4012 359.5365 206 361.1333 C206.494 362.4507 207.776 363.9585 209 364.1333 C215.4258 365.0513 218.2739 365.1249 227 364.1333 C239.8798 362.6697 240.1202 360.5969 253 359.1333 C261.7261 358.1417 269.9699 359.8415 271 359.1333 C271.3183 358.9145 269.3832 348.1634 269 348.1333 C262.5152 347.6247 220 355.1333 220 355.1333 "/>
<path id="44" d="M372 348.1333 C372 348.1333 341.4791 347.5056 329 349.1333 C327.9433 349.2712 326.169 352.4434 326 354.1333 C325.847 355.6638 327.4202 359.0765 328 359.1333 C339.4097 360.2519 352.816 360.1848 377 359.1333 C386.9354 358.7014 391.1002 358.0105 397 356.1333 C397.9214 355.8401 399 353.7342 399 352.1333 C399 348.1311 397.4572 342.1935 397 342.1333 C392.1266 341.4921 361 347.1333 361 347.1333 "/>
<path id="45" d="M173 381.1333 C173 381.1333 172.7774 387.9546 174 391.1333 C174.5343 392.5226 175.9347 393.4449 178 394.1333 C185.5728 396.6576 186.6115 397.1746 195 398.1333 C203.6494 399.1218 204.9039 399.4827 213 398.1333 C218.7722 397.1713 222.6939 396.0159 225 393.1333 C227.8747 389.5399 229 378.1333 229 378.1333 "/>
<path id="46" d="M348 375.1333 C348 375.1333 354.0856 386.8995 359 389.1333 C365.3553 392.0221 372.7899 392.2939 381 390.1333 C388.1366 388.2553 391.3634 384.4568 397 379.1333 C398.6376 377.5867 399 375.6321 399 373.1333 C399 370.2181 397 366.1333 397 366.1333 "/>
<path id="47" d="M352 374.1333 C352 374.1333 348.6641 372.9634 348 372.1333 C347.6169 371.6544 348 369.1333 348 369.1333 "/>
<path id="48" d="M374 392.1333 L372 435.1333 "/>
<path id="49" d="M195 401.1333 L193 432.1333 "/>
<path id="50" d="M204 398.1333 L203 429.1333 "/>
<path id="51" d="M383 392.1333 C383 392.1333 381.2825 402.0449 382 411.1333 C382.7325 420.4113 383.4483 423.8957 386 430.1333 C386.6239 431.6584 388.8192 432.9516 391 433.1333 C398.8578 433.7882 410 432.1333 410 432.1333 "/>
<path id="52" d="M365 428.1333 C365 428.1333 372.0075 439.9952 375 440.1333 C390.4774 440.8477 419.7013 430.6184 430 431.1333 C431.0572 431.1862 434.2649 437.9875 435 443.1333 C435.5038 446.6602 434.6995 448.7342 433 452.1333 C431.7253 454.6826 429.7567 457.0329 428 457.1333 C418.0865 457.6998 407.9135 453.5668 398 454.1333 C396.2433 454.2337 393.7293 457.3101 393 459.1333 C392.5207 460.3315 394.0529 464.1333 394 464.1333 C392.3616 464.1333 366.1244 462.3554 363 459.1333 C360.4184 456.471 361.3657 440.9647 362 431.1333 C362.0725 430.0094 365 428.1333 365 428.1333 "/>
<path id="53" d="M366 428.1333 L375 426.1333 "/>
<path id="54" d="M204 424.1333 C204 424.1333 204.8046 435.8403 207 439.1333 C208.1623 440.8767 211.6363 441.7483 216 442.1333 C227.7751 443.1723 231.9428 442.8042 241 442.1333 C241.7783 442.0757 243 440.1202 243 440.1333 C243 440.271 242.1714 460.5644 241 461.1333 C238.0181 462.5817 215.8181 456.4994 208 457.1333 C206.9071 457.2219 205.8821 463.0579 204 464.1333 C201.513 465.5545 198.7476 465.3707 194 465.1333 C189.1808 464.8924 187.4295 464.8481 184 463.1333 C181.9735 462.1201 180.3214 460.3028 180 458.1333 C178.7357 449.599 179.2453 445.9446 180 436.1333 C180.1425 434.2808 180.7909 432.9797 182 432.1333 C184.5441 430.3524 186.2982 429.5446 190 429.1333 C194.3928 428.6452 196.4733 428.7226 200 430.1333 C202.3738 431.0828 205 435.1333 205 435.1333 "/>
<path id="55" d="M423 215.1333 C423 215.1333 444.6527 214.4474 457 215.1333 C457.7667 215.1759 458.7857 216.2762 459 217.1333 C459.5143 219.1904 459.8895 221.6084 459 223.1333 C457.5051 225.6961 452.3652 226.9423 452 229.1333 C450.7941 236.3689 451.9483 244.9265 454 253.1333 C454.4397 254.8919 456.7444 256.2311 459 257.1333 C460.7088 257.8168 462.72 257.7733 464 257.1333 C465.28 256.4933 466.6644 254.9794 467 253.1333 C468.3426 245.7492 469.8122 240.9725 468 235.1333 C466.5552 230.4779 458 224.1333 458 224.1333 "/>
<path id="56" d="M457 257.1333 L455 258.1333 "/>
<path id="57" d="M423 216.1333 C423 216.1333 461.5527 217.0215 462 217.1333 C462.0598 217.1483 457.4564 220.4487 455 224.1333 C452.8945 227.2916 452 232.1333 452 232.1333 C452 232.1333 453.3897 226.3962 456 223.1333 C458.653 219.817 463.9715 217.101 464 217.1333 C464.7856 218.0237 470.774 230.4141 471 240.1333 C471.1938 248.4669 468.368 253.6779 465 260.1333 C464.1073 261.8443 462.0711 262.1635 459 263.1333 C452.8345 265.0803 451.4608 266.6453 446 266.1333 C437.6008 265.3459 427 260.1333 427 260.1333 "/>
<path id="58" d="M127 219.1333 C127 219.1333 82.8916 223.3215 65 231.1333 C60.3978 233.1427 57.8732 241.8377 56 250.1333 C54.9715 254.6883 55.8617 257.8568 58 262.1333 C59.9738 266.0809 62.2847 269.1847 66 270.1333 C80.8063 273.9137 88.8927 274.4689 105 274.1333 C108.7681 274.0548 109.7681 270.0951 114 269.1333 C119.4274 267.8998 127 269.1333 127 269.1333 "/>
<path id="59" d="M68 230.1333 C68 230.1333 72.5989 238.1298 75 246.1333 C76.9368 252.5892 76.3671 253.171 77 260.1333 C77.357 264.0608 78.1028 266.2035 77 268.1333 C75.5428 270.6835 69 274.1333 69 274.1333 "/>
<path id="60" d="M62 258.1333 L132 310.1333 "/>
<path id="61" d="M77 256.1333 C77 256.1333 80.6594 256.4736 83 258.1333 C106.7386 274.9661 132 295.1333 132 295.1333 "/>
<path id="62" d="M466 245.1333 C466 245.1333 473.8508 240.9796 479 236.1333 C481.5393 233.7434 481.4159 232.7836 483 229.1333 C504.2565 180.151 525 130.1333 525 130.1333 "/>
<path id="63" d="M457 239.1333 L473 241.1333 "/>
<path id="64" d="M460 248.1333 C460 248.1333 471.2604 251.484 481 252.1333 C485.0607 252.404 486.732 251.9716 490 250.1333 C493.5302 248.1476 494.8585 247.071 497 243.1333 C509.4945 220.1596 510.1508 218.5252 521 193.1333 C533.5729 163.7074 544 133.1333 544 133.1333 "/>
<path id="65" d="M527 131.1333 C527 131.1333 519.0251 127.6392 518 125.1333 C516.3059 120.9922 517.2883 109.5166 518 109.1333 C520.0589 108.0247 536.1998 111.9134 544 111.1333 C545.3605 110.9973 546.0215 107.4524 548 106.1333 C549.5289 105.1141 551.6037 104.5963 553 105.1333 C556.1183 106.3327 560.7702 110.6163 561 111.1333 C561.0294 111.1995 557.823 112.6519 557 114.1333 C555.9668 115.9931 555.6212 119.8177 556 120.1333 C557.5466 121.4222 568.424 123.3653 569 124.1333 C569.2095 124.4126 567.3457 129.5531 565 132.1333 C563.2957 134.0081 561.8227 134.7484 559 135.1333 C551.9533 136.0942 550.4022 136.3272 543 135.1333 C535.6874 133.9539 528 130.1333 528 130.1333 "/>
<path id="66" d="M524 109.1333 C524 109.1333 528.9423 113.2752 531 117.1333 C532.3211 119.6104 532 124.1333 532 124.1333 "/>
<path id="67" d="M537 116.1333 L536 133.1333 "/>
<path id="68" d="M533 114.1333 L533 122.1333 "/>
<path id="69" d="M542 112.1333 C542 112.1333 548.3609 111.0726 552 108.1333 C560.1774 101.5285 559.7846 98.3218 568 91.1333 C571.06 88.4559 575.8086 87.0057 576 87.1333 C576.2752 87.3168 578.04 93.2707 577 97.1333 C575.0599 104.3396 573.8763 107.8137 569 113.1333 C564.6462 117.883 555 121.1333 555 121.1333 "/>
</g>
</g>
</svg>
