<?xml version="1.0" encoding="utf-8"?>
<!DOCTYPE svg PUBLIC "-//W3C//DTD SVG 1.1//EN" "http://www.w3.org/Graphics/SVG/1.1/DTD/svg11.dtd">
<svg viewBox="0 0 800 800" preserveAspectRatio="xMinYMin meet" xmlns="http://www.w3.org/2000/svg" version="1.1">
<g fill="none" stroke="black" stroke-linecap="round" stroke-linejoin="round" stroke-width="1.6129">
<g transform="translate(160.06,87.52) scale(1.86) translate(-184,-118)">
<path id="0" d="M235 118 L235 118 "/>
<path id="1" d="M231 154 C231 154 236.6661 149.865 242 149 C253.8152 147.084 256.6758 150.3229 268 148 C274.2383 146.7204 275.7065 141.1038 281 141 C296.2642 140.7007 303.4869 147.5746 319 147 C325.6919 146.7522 327.8803 140.2945 335 139 C341.786 137.7662 343.6451 140.7119 352 141 C357.8568 141.202 358.9772 141.6743 364 140 C369.8373 138.0542 370.451 133.8632 376 133 C389.9904 130.8237 406.6381 131.4762 409 133 C409.7804 133.5035 405.47 146.2245 407 153 C408.02 157.517 414.8416 159.1089 416 164 C418.3819 174.0567 414.1789 180.3772 416 191 C416.6089 194.5522 421.5327 195.7289 422 199 C423.0401 206.2808 419.7542 209.1682 420 219 C420.7405 248.6187 424 279 424 279 "/>
<path id="2" d="M229 152 C229 152 226.1744 175.6555 229 196 C230.8873 209.5887 235.8467 210.441 239 224 C240.5597 230.7067 237.9397 232.1079 239 239 C239.8211 244.337 242.4553 244.6891 243 250 C244.3367 263.0327 241.4893 268.0292 243 278 C243.3106 280.0503 248 283 248 283 "/>
<path id="3" d="M223 159 C223 159 218.8429 163.8335 214 167 C206.2121 172.0921 201.1119 171.6717 197 176 C194.8909 178.2201 197.2138 183.0833 195 187 C191.6754 192.882 184.8144 194.1138 184 199 C181.5471 213.7174 183.2043 221.7794 186 241 C186.9171 247.3049 190.8681 247.6936 192 254 C194.1051 265.7284 191.1639 270.5134 193 280 C193.4183 282.1614 197.417 282.668 198 285 C200.5885 295.354 201 312 201 312 "/>
<path id="4" d="M263 371 C263 371 265.9058 366.4027 268 366 C275.377 364.5813 281.0648 367.4695 289 366 C291.6171 365.5154 292.5075 361.4335 295 361 C301.1051 359.9382 304.0389 362.7464 312 362 C319.2401 361.3212 319.6251 358.8939 327 358 C335.5727 356.9609 337.2416 359.7734 345 358 C353.1155 356.145 354.1114 351.6241 362 350 C369.1047 348.5373 372.2257 352.2545 379 351 C383.4764 350.171 384.5161 345.7473 389 345 C397.0845 343.6526 400.5878 347.4845 409 346 C415.4652 344.8591 416.3772 341.0156 423 339 C426.6952 337.8754 432 339 432 339 "/>
<path id="5" d="M422 277 C422 277 428.9001 300.8914 433 324 C434.2563 331.0811 433 339 433 339 "/>
<path id="6" d="M244 275 C244 275 244.4021 284.0247 247 290 C248.7597 294.0472 253.2959 294.4013 254 298 C256.885 312.7456 256 336 256 336 "/>
<path id="7" d="M261 373 C261 373 258.5026 370.0884 257 370 C252.3652 369.7274 248.5712 372.6857 244 372 C241.2105 371.5816 238.684 367.1295 237 367 C235.7019 366.9001 232.1599 371.0967 231 371 C229.6866 370.8905 225 366 225 366 "/>
<path id="8" d="M200 374 C200 374 197.8351 370.3848 198 370 C198.2698 369.3704 200.7368 367.2263 203 367 C213.6754 365.9325 228 367 228 367 "/>
<path id="9" d="M199 372 C199 372 188.3443 363.2133 186 356 C183.2181 347.4404 184.3773 343.0882 186 332 C187.2087 323.7402 187.7475 320.4675 192 315 C196.2525 309.5325 200.0774 307.3075 207 305 C212.6639 303.112 216.4521 303.6791 222 305 C224.6595 305.6332 225.9617 307.2822 228 310 C229.9847 312.6463 230.943 313.8103 231 317 C231.3954 339.142 229 366 229 366 "/>
<path id="10" d="M203 367 L204 438 "/>
<path id="11" d="M216 370 L216 430 "/>
<path id="12" d="M217 406 C217 406 257.7782 408.7092 261 406 C263.2782 404.0842 261 369 261 369 "/>
<path id="13" d="M264 404 C264 404 296.8168 408.1392 326 403 C373.7599 394.5894 375.863 387.3634 423 376 C429.8309 374.3533 437.6789 376.7063 438 376 C439.5539 372.5813 439.4052 356.7011 438 343 C437.727 340.3386 434 337 434 337 "/>
<path id="14" d="M316 361 C316 361 329.9495 371.0553 331 371 C331.3323 370.9825 335 360 335 360 "/>
<path id="15" d="M368 353 C368 353 371.5265 359.2011 374 361 C375.0465 361.7611 378.8534 361.2932 379 361 C379.7331 359.5338 380 349 380 349 "/>
<path id="16" d="M348 358 C348 358 349.2075 360.7839 350 361 C352.531 361.6903 358.7201 361.3199 359 361 C359.2221 360.7461 357 353 357 353 "/>
<path id="17" d="M353 361 L351 383 "/>
<path id="18" d="M360 366 C360 366 366.1675 374.1724 367 380 C367.7532 385.2726 365.0121 391.6385 364 394 C363.9149 394.1986 361.6757 394.5309 361 394 C356.5758 390.5239 350 383 350 383 "/>
<path id="19" d="M266 381 C266 381 305.9699 382.2717 342 381 C346.3169 380.8476 351 378 351 378 "/>
<path id="20" d="M391 366 C391 366 392.4835 363.4163 394 363 C414.2357 357.4451 441.9964 352.0015 442 352 C442.0015 351.9994 429.0728 349.3118 420 352 C404.8481 356.4895 403.4269 363.2317 388 368 C378.2671 371.0083 365 369 365 369 "/>
<path id="21" d="M316 276 C316 276 343.8355 278.6819 362 277 C365.3852 276.6866 366.356 272.1507 370 271 C374.051 269.7207 376.4772 271.6461 381 271 C382.351 270.807 383.8692 269.7411 384 269 C384.7756 264.6048 384 254 384 254 "/>
<path id="22" d="M373 253 L384 256 "/>
<path id="23" d="M321 277 L312 272 "/>
<path id="24" d="M316 261 C316 261 310.7936 265.9716 308 271 C306.2379 274.1718 306 279 306 279 "/>
<path id="25" d="M309 272 C309 272 309.6894 289.2106 312 305 C312.5831 308.9848 313.1315 311.5986 315 313 C318.3218 315.4914 321.6688 316.4724 328 317 C344.6193 318.3849 346.7699 317.8115 363 317 C365.365 316.8818 366.3887 316.477 368 315 C371.5959 311.7037 373.8931 310.317 375 306 C378.1551 293.695 378 276 378 276 "/>
<path id="26" d="M375 272 C375 272 377.364 283.8452 379 285 C380.5264 286.0775 391.6245 284.6384 392 284 C392.6182 282.949 389 268 389 268 "/>
<path id="27" d="M338 278 C338 278 337.3797 289.3797 338 290 C338.517 290.517 343.6842 289.7594 349 289 C350.4993 288.7858 351.9271 288.3402 352 288 C352.5768 285.3084 352 275 352 275 "/>
<path id="28" d="M322 315 C322 315 325.1047 307.5166 328 306 C332.3365 303.7285 338.9544 303.5505 343 304 C343.943 304.1048 345.9999 308.0001 346 308 C346.0002 307.9998 343.8784 303.3647 344 303 C344.0655 302.8036 346.1232 302 348 302 C352.2228 302 354.1559 301.3534 357 303 C361.6882 305.7142 367 313 367 313 "/>
<path id="29" d="M311 274 C311 274 315.1282 286.6408 317 296 C317.2259 297.1296 316.0023 299.0068 316 299 C315.9808 298.9423 311.0004 277.9996 311 278 C310.9995 278.0005 309.677 292.8369 312 303 C313.0681 307.673 316.4917 310.213 319 313 C319.277 313.3078 320.9853 313.0588 321 313 C321.2353 312.0588 320.0651 308.4281 321 305 C322.8274 298.2996 325.3209 297.7163 327 291 C328.0833 286.6669 327.0098 281.0012 327 281 C326.946 280.9933 322.1535 285.2698 319 290 C316.4332 293.8502 316.0147 294.6874 315 299 C314.1834 302.4705 314.6712 306.1233 315 307 C315.0462 307.1233 317.8953 307.2326 318 307 C319.7598 303.0894 323.997 287.002 324 287 C324.0016 286.9989 324 303 324 303 C324 303 325.2166 296.9545 324 294 C322.529 290.4275 319.0577 289.8581 317 286 C315.6789 283.5229 315.9609 279.0147 316 279 C316.1806 278.9323 321.5266 282.807 325 283 C328.3269 283.1848 333.5792 279.8597 334 280 C334.1052 280.0351 335.0027 284.6117 334 286 C330.4257 290.9491 325.2909 292.4831 321 298 C319.6847 299.6911 319.8727 303.9412 320 304 C321.0073 304.4649 328.1089 304.9302 334 304 C336.3033 303.6363 339.015 301.0093 339 301 C338.9318 300.9574 326.2904 299.3992 326 299 C325.864 298.8131 330.9996 289.9998 331 290 C331.0033 290.0016 329.9382 300.9558 330 301 C330.0335 301.0239 335.9167 297.3437 338 295 C338.4767 294.4637 338 292 338 292 C338 292.0001 339.002 299.0016 339 299 C338.9955 298.9964 333.0005 288.0002 333 288 C332.9997 287.9999 334.6595 297.2945 336 298 C338.5955 299.3661 351.9675 297.9721 352 298 C352.0078 298.0067 345.7442 303.4512 343 304 C341.5472 304.2906 337.0317 301.3174 337 301 C336.9427 300.4269 340.6453 294.3871 342 294 C343.5759 293.5497 351 296.9924 351 297 C351 297.0051 341.9993 299.0006 342 299 C342.0015 298.9987 355.4517 293.7182 358 291 C358.7825 290.1653 357.0127 282.9937 357 283 C356.9452 283.0274 350.0208 294.9762 350 295 C349.9954 295.0053 349.2974 292.1242 350 291 C353.2056 285.871 359.7426 279.1872 360 279 C360.0262 278.9809 360.3242 282.3242 361 283 C361.6758 283.6758 364.915 284.1189 365 284 C365.3987 283.4419 365.9992 275.999 366 276 C366.0014 276.0019 367.9919 287.9986 368 288 C368.0044 288.0007 371.9882 277.0071 372 277 C372.0042 276.9975 373 285 373 285 C373 285 373.5364 277.7881 373 276 C372.8868 275.6225 369.9991 275.0002 370 275 C370.0022 274.9995 376.834 274.6958 377 275 C377.4544 275.8331 377.6502 281.416 376 286 C373.5479 292.8115 370.4743 293.5049 368 300 C366.984 302.667 367.9918 306.9945 368 307 C368.0006 307.0004 370.2583 304.5219 371 302 C372.5873 296.6031 373 290 373 290 C373 290 371.0003 307.9998 371 308 C370.9998 308.0001 371.0007 293.1546 370 292 C369.4423 291.3565 363.0103 291.6082 358 293 C355.0981 293.8061 352.1325 296.7349 352 297 C351.9905 297.0189 354.8332 299.1223 355 299 C357.3422 297.2824 366.9963 285.9988 367 286 C367.0005 286.0002 361.0056 300.9916 361 301 C360.9982 301.0027 361.078 295.0468 361 295 C360.9307 294.9584 357.0105 296.7873 356 298 C355.577 298.5076 355.8346 300.9007 356 301 C356.4596 301.2757 359.2912 301.6835 361 301 C363.2556 300.0978 365.4391 298.6828 366 297 C367.0888 293.7335 366 286 366 286 C366 286 365.0494 295.6626 366 302 C366.2644 303.7626 369.0004 306.0001 369 306 C368.9994 305.9998 363 301 363 301 "/>
<path id="30" d="M316 324 C316 324 321.8289 328.9658 327 330 C335.0533 331.6107 337.4751 331.2178 346 330 C350.2945 329.3865 350.828 326.4037 355 326 C364.7348 325.0579 369.3192 327.32 377 327 C377.7287 326.9696 379 325 379 325 "/>
<path id="31" d="M208 191 C208 191 203.5428 196.658 203 201 C202.2976 206.6191 203.6738 212.5135 205 215 C205.3697 215.6932 209.7341 216.633 211 216 C213.1866 214.9067 215.4208 212.3839 217 209 C218.3643 206.0765 218.6669 203.0006 218 201 C217.5071 199.5213 213 197 213 197 "/>
<path id="32" d="M217 255 C217 255 215.4194 263.0315 215 271 C214.4271 281.8851 214.2663 283.8286 215 293 C215.1054 294.3174 216.8217 296.0357 217 296 C218.1463 295.7707 222.0033 293.9967 225 291 C228.9188 287.0812 230.0667 286.0969 232 281 C235.1344 272.7366 236.1535 265.2231 236 262 C235.9817 261.6165 231 260 231 260 "/>
<path id="33" d="M240 323 C240 323 239.106 331.954 240 340 C240.5434 344.8907 242.6512 349.6512 243 350 C243.0268 350.0268 246.1996 348.6009 247 347 C249.0011 342.9978 249.1471 341.4018 250 336 C250.5947 332.2336 251.0236 330.2178 250 328 C249.0059 325.8462 244 323 244 323 "/>
<path id="34" d="M300 258 C300 258 294.6589 258.4181 292 257 C288.6556 255.2163 285.8139 252.8486 285 250 C283.7598 245.6593 284.6045 239.9539 286 236 C286.4633 234.6874 288.7137 233.2982 291 233 C298.6333 232.0044 307.5568 231.6289 309 233 C310.6076 234.5272 311.7173 248.9873 311 252 C310.858 252.5963 304 254 304 254 "/>
<path id="35" d="M347 232 C347 232 355.4927 233.0355 363 232 C369.3586 231.123 369.99 230.7474 376 228 C387.14 222.9074 388.0331 222.6446 398 216 C402.4297 213.0468 405.9663 207.9904 406 208 C406.011 208.0031 405 218 405 218 "/>
<path id="36" d="M400 215 C400 215 406.9404 212.8978 407 213 C407.4007 213.6868 408.5531 222.119 407 227 C405.8655 230.5657 403.2367 234.1761 400 235 C382.2598 239.5157 352 241 352 241 "/>
<path id="37" d="M293 231 C293 231 291.4046 221.7328 292 213 C292.8724 200.2051 291.4383 195.3301 296 187 C300.2727 179.1976 306.1922 175.1593 315 171 C320.7951 168.2634 325.4499 168.7404 332 170 C335.957 170.761 338.2202 172.757 341 176 C343.1427 178.4999 343.9005 180.3178 344 184 C344.3565 197.1894 345.6688 201.5044 342 213 C339.2583 221.5908 335.0467 227.3353 329 231 C323.6353 234.2513 309 233 309 233 "/>
<path id="38" d="M347 191 C347 191 345.7879 179.4242 348 175 C349.8099 171.3802 353.4524 170.082 359 167 C361.9135 165.3814 362.7316 165 366 165 C376.2722 165 382.9559 163.9085 388 167 C392.2174 169.5849 395.4985 175.9921 397 184 C399.4908 197.284 399.7677 204.4323 397 215 C395.7607 219.7319 391.7486 221.8938 386 226 C382.0805 228.7997 380.8061 229.3992 376 230 C365.93 231.2587 361.0425 232.6158 354 230 C348.2928 227.8802 341 217 341 217 "/>
<path id="39" d="M306 189 C306 189 303.5103 189.271 303 190 C301.0575 192.775 299.8628 194.6858 299 199 C298.0315 203.8425 298.2718 206.8445 299 210 C299.1782 210.7723 300.7483 211.9431 302 212 C309.6756 212.3489 319.3923 212.3539 321 211 C322.0235 210.1381 322.8098 200.1625 321 196 C319.5102 192.5735 314.8062 189.7762 311 188 C309.7436 187.4137 307.232 188.12 306 189 C304.9528 189.748 304 193 304 193 "/>
<path id="40" d="M306 198 C306 198 305.6314 205.6314 306 206 C306.2764 206.2764 312.1808 205.8192 313 205 C313.8192 204.1808 314.3676 199.6543 314 198 C313.8554 197.3491 311.7189 196 311 196 C310.2811 196 308.5298 196.9404 308 198 C306.6377 200.7247 305.8734 205.4937 306 206 C306.0169 206.0675 309.8546 206.2617 310 206 C310.6253 204.8745 311.0001 197.0002 311 197 C310.9999 196.9999 309 204 309 204 "/>
<path id="41" d="M369 190 C369 190 364.5529 196.3061 363 202 C361.8612 206.1755 362.3778 211.4344 363 212 C363.7528 212.6844 371.2029 212.999 374 212 C375.2169 211.5654 376.7299 209.161 377 207 C377.5465 202.6277 377.254 199.5112 376 196 C375.511 194.6308 373.3822 193.3949 372 193 C371.2276 192.7793 369 194 369 194 "/>
<path id="42" d="M364 182 C364 182 354.8464 191.6979 352 200 C349.8118 206.3821 351.0361 210.2527 352 217 C352.2511 218.7577 353.3736 220.1243 355 221 C358.6654 222.9737 360.1032 223.2655 365 224 C369.6859 224.7029 372.1409 225.2509 375 224 C377.5911 222.8664 378.8702 220.7681 381 217 C385.0902 209.7634 386.7397 208.0577 388 201 C388.8506 196.2364 388.1864 192.9752 386 189 C383.8387 185.0703 380.2471 181.7059 377 181 C372.9641 180.1226 363 184 363 184 "/>
<path id="43" d="M372 200 C372 200 372 205 372 205 C372 205 372.4331 200.8662 372 200 C371.7834 199.5669 369.0124 198.9814 369 199 C368.9588 199.0619 369.9998 203.0003 370 203 C370.0003 202.9995 370.3 197.6 370 197 C369.925 196.85 367.1203 196.7895 367 197 C366.4688 197.9295 366 204 366 204 "/>
<path id="44" d="M300 185 C300 185 293.9598 176.1811 294 176 C294.0093 175.958 302 176 302 176 "/>
<path id="45" d="M319 170 C319 170 318.7897 161.2944 319 161 C319.0367 160.9486 323.4585 162.1336 324 163 C324.6339 164.0143 324 169 324 169 "/>
<path id="46" d="M339 174 C339 174 338.6944 166.4279 339 166 C339.0982 165.8625 343.9565 166.8476 344 167 C344.0922 167.3227 341 173 341 173 "/>
<path id="47" d="M362 166 C362 166 361.9994 158.0003 362 158 C362.0002 157.9999 364 165 364 165 "/>
<path id="48" d="M375 162 C375 162 375.9929 156.0024 376 156 C376.0008 155.9997 378 161 378 161 "/>
<path id="49" d="M389 164 C389 164 390.9997 155.9997 391 156 C391.0006 156.0006 391 166 391 166 "/>
<path id="50" d="M203 438 C203 438 201.0403 438.6778 201 439 C200.5167 442.8666 199.6986 449.8789 201 454 C203.3097 453.469 202.96 450.5361 204 447 C205.0944 443.279 207.098 440.902 209 439 C209.4389 438.5611 211.9237 438.8284 212 439 C212.5403 440.2156 213 448.0002 213 448 C213.0001 447.9996 214 425 214 425 "/>
<path id="51" d="M256 407 C256 407 263.9166 413.3809 271 415 C279.4183 416.9242 284.2643 416.9245 291 415 C294.4641 414.0103 299 407 299 407 "/>
<path id="52" d="M387 387 C387 387 386.1 403.2 387 405 C387.225 405.45 392.8993 406.447 396 405 C405.4858 400.5733 410.7902 397.4798 417 391 C419.1685 388.7372 419.2478 384.7173 419 381 C418.8694 379.0409 416 376 416 376 "/>
<path id="53" d="M256 171 C256 171 253.3347 173.2149 253 175 C252.1197 179.6949 251.6451 185.0806 253 187 C254.5209 189.1546 261.4679 191.5585 265 192 C266.0142 192.1268 268.584 190.248 269 189 C269.864 186.408 269.7764 183.8822 269 180 C268.4306 177.1531 267.8285 176.057 266 174 C264.4294 172.2331 263.3309 171.5379 261 171 C257.7242 170.244 256.4776 170.0407 253 171 C242.912 173.7829 232 179 232 179 "/>
<path id="54" d="M407 310 C407 310 407.245 323.1124 408 325 C408.0981 325.2451 412.5221 325.5377 413 325 C414.2545 323.5886 416.7064 318.22 416 316 C414.5793 311.5349 406 303 406 303 "/>
<path id="55" d="M279 330 C279 330 276.581 334.1269 276 338 C275.175 343.5003 275.3404 345.0533 276 350 C276.1795 351.3466 277.4591 352.9584 278 353 C280.63 353.2023 288.4388 352.1225 289 351 C290.6837 347.6325 291.5151 336.3228 290 329 C289.4127 326.1613 283 322 283 322 "/>
</g>
</g>
</svg>
