<?xml version="1.0" encoding="utf-8"?>
<!DOCTYPE svg PUBLIC "-//W3C//DTD SVG 1.1//EN" "http://www.w3.org/Graphics/SVG/1.1/DTD/svg11.dtd">
<svg viewBox="0 0 800 800" preserveAspectRatio="xMinYMin meet" xmlns="http://www.w3.org/2000/svg" version="1.1">
<g fill="none" stroke="black" stroke-linecap="round" stroke-linejoin="round" stroke-width="1.5553">
<g transform="translate(95.2356,87.52) scale(1.9289) translate(-154,-78.1333)">
<path id="0" d="M216 88.1333 C216 88.1333 216.4547 80.3316 217 80.1333 C219.9292 79.0682 229.6157 79.1272 238 80.1333 C239.7407 80.3422 240.5908 83.2021 242 83.1333 C255.6196 82.469 260.857 79.0256 279 78.1333 C290.6429 77.5607 291.1991 80.1333 303 80.1333 C312.8341 80.1333 317.3365 77.6409 323 78.1333 C323.9563 78.2165 325.1675 82.0895 326 82.1333 C330.108 82.3495 334.2356 79.7085 342 79.1333 C347.2295 78.746 353 80.1333 353 80.1333 "/>
<path id="1" d="M354 82.1333 C354 82.1333 359.3624 78.1333 361 78.1333 C362.1697 78.1333 365.573 80.4254 366 82.1333 C367.647 88.7212 366.6877 92.14 367 102.1333 C367.1871 108.12 368.0662 109.3356 367 114.1333 C366.3879 116.8876 363.2095 117.5497 363 120.1333 C361.9759 132.7643 365.2069 136.0469 364 151.1333 C362.2607 172.875 359.1146 173.1941 357 195.1333 C355.1494 214.3331 356 234.1333 356 234.1333 "/>
<path id="2" d="M217 90.1333 C217 90.1333 214.2018 96.4728 215 99.1333 C216.2732 103.3775 222.4361 105.3806 223 110.1333 C225.2595 129.1778 220.4257 141.1305 222 158.1333 C222.2154 160.46 227.8124 161.7878 228 164.1333 C229.998 189.1086 227.1862 227.6811 228 233.1333 C228.006 233.1734 234.6838 230.5481 238 231.1333 C240.7096 231.6115 241.937 235.8708 245 236.1333 C271.0116 238.3629 283.3698 238.22 308 237.1333 C310.0252 237.044 311.1661 233.2013 313 233.1333 C320.7975 232.8445 326.9437 236.1333 335 236.1333 C336.4648 236.1333 337.3496 233.2984 339 233.1333 C345.1026 232.5231 353.2554 234.2424 355 234.1333 C355.0137 234.1325 355 232.1333 355 232.1333 "/>
<path id="3" d="M214 81.1333 C214 81.1333 209.3355 82.4639 208 84.1333 C206.5275 85.974 207.7836 88.5694 206 91.1333 C200.5291 98.9977 192 107.1333 192 107.1333 "/>
<path id="4" d="M193 110.1333 C193 110.1333 199.6923 113.4103 200 115.1333 C201.1147 121.3755 197.4318 130.4627 198 138.1333 C198.1068 139.5755 201.8702 140.7053 202 142.1333 C202.5301 147.9643 199.4292 152.4276 200 160.1333 C200.2972 164.1461 203.2507 164.8246 204 169.1333 C205.082 175.3548 204.9302 177.2422 204 183.1333 C203.6363 185.4366 201.1896 185.9532 201 188.1333 C200.3545 195.5564 202 206.1333 202 206.1333 "/>
<path id="5" d="M290 159.1333 C290 159.1333 296.4006 160.5418 300 159.1333 C305.9468 156.8063 307.0329 152.2815 313 150.1333 C317.4092 148.546 323.8808 149.4805 325 150.1333 C325.3808 150.3555 325.9416 155.2502 325 157.1333 C323.9239 159.2855 322.1849 160.8395 319 162.1333 C307.4006 166.8456 293 170.1333 293 170.1333 "/>
<path id="6" d="M304 156.1333 C304 156.1333 300.1785 156.2047 299 155.1333 C296.1715 152.562 293.9181 150.2647 293 146.1333 C291.4008 138.9368 291.8372 133.0173 293 128.1333 C293.2707 126.9963 296.9895 126.346 298 125.1333 C298.423 124.6257 297.6805 122.3996 298 122.1333 C298.9798 121.3168 301.1003 120.3333 304 120.1333 C314.8657 119.384 318.8805 118.6834 327 120.1333 C329.0803 120.5048 331.4898 122.9223 332 125.1333 C333.7603 132.7613 334.3034 139.0951 333 146.1333 C332.5547 148.5378 327 152.1333 327 152.1333 "/>
<path id="7" d="M258 129.1333 C258 129.1333 260.1989 125.5836 262 125.1333 C267.8537 123.6699 270.9272 123.5183 278 124.1333 C281.2272 124.414 283.9017 125.8781 285 127.1333 C285.6018 127.8211 284.2263 130.5858 285 132.1333 C286.5475 135.2283 290.2263 136.0383 291 139.1333 C292.5475 145.3233 292.204 149.2104 291 156.1333 C290.5258 158.86 288.5902 161.7855 287 162.1333 C278.5534 163.981 265.9294 164.8132 259 163.1333 C257.2071 162.6987 254.725 158.3384 254 154.1333 C252.5297 145.6057 252.5782 139.8206 254 134.1333 C254.391 132.5693 260 130.1333 260 130.1333 "/>
<path id="8" d="M273 144.1333 C273 144.1333 271.8881 147.9842 272 148.1333 C272.1033 148.271 275.8049 148.3772 276 148.1333 C276.3049 147.7522 276.2757 143.5929 276 143.1333 C275.9007 142.9679 273 143.1333 273 143.1333 "/>
<path id="9" d="M315 138.1333 C315 138.1333 311.1951 137.8894 311 138.1333 C310.6951 138.5144 310.6951 142.7522 311 143.1333 C311.1951 143.3772 314.68 143.3733 315 143.1333 C315.18 142.9983 315 140.1333 315 140.1333 "/>
<path id="10" d="M252 129.1333 L260 131.1333 "/>
<path id="11" d="M260 119.1333 L261 124.1333 "/>
<path id="12" d="M272 119.1333 L273 123.1333 "/>
<path id="13" d="M285 120.1333 L283 126.1333 "/>
<path id="14" d="M299 119.1333 L299 122.1333 "/>
<path id="15" d="M298 114.1333 L301 121.1333 "/>
<path id="16" d="M311 113.1333 L312 120.1333 "/>
<path id="17" d="M324 114.1333 L322 120.1333 "/>
<path id="18" d="M336 119.1333 L331 123.1333 "/>
<path id="19" d="M262 168.1333 C262 168.1333 273.8175 174.5358 285 176.1333 C300.285 178.3169 303.0273 177.5593 318 176.1333 C322.2563 175.728 326.9273 172.0445 327 172.1333 C327.3241 172.5294 328.5822 181.0304 327 187.1333 C325.5428 192.754 322.8608 198.3323 320 199.1333 C307.9716 202.5013 294.0276 202.7397 277 201.1333 C272.76 200.7333 270.8532 197.9866 267 194.1333 C264.5067 191.6401 263.5966 190.4744 263 187.1333 C261.362 177.9607 262 166.1333 262 166.1333 "/>
<path id="20" d="M284 176.1333 C284 176.1333 283.3852 185.621 284 186.1333 C284.8852 186.871 294.8808 186.7862 296 186.1333 C296.3808 185.9112 296 179.1333 296 179.1333 "/>
<path id="21" d="M304 179.1333 C304 179.1333 304.2466 187.6117 305 188.1333 C306.2503 188.9989 316.1148 188.871 317 188.1333 C317.6148 187.621 317 178.1333 317 178.1333 "/>
<path id="22" d="M276 200.1333 C276 200.1333 279.6948 192.731 282 192.1333 C287.9216 190.5981 299.4506 192.004 303 193.1333 C303.4844 193.2874 304 199.1333 304 199.1333 "/>
<path id="23" d="M213 200.1333 C213 200.1333 208.7068 199.4266 208 200.1333 C205.3143 202.819 204.536 208.3253 201 212.1333 C199.5528 213.6918 196.1192 213.0141 195 214.1333 C194.1606 214.9727 193.6634 218.864 194 219.1333 C196.4238 221.0724 202.3564 223.9931 210 226.1333 C213.8303 227.2058 218.8254 226.5407 219 226.1333 C219.9504 223.9157 220.7378 211.8362 219 205.1333 C218.3533 202.639 212 199.1333 212 199.1333 "/>
<path id="24" d="M198 224.1333 L169 287.1333 "/>
<path id="25" d="M204 225.1333 L179 290.1333 "/>
<path id="26" d="M170 286.1333 C170 286.1333 170.0328 288.129 170 288.1333 C168.1578 288.379 158.8666 287.65 155 288.1333 C154.6778 288.1736 154.1898 289.1844 154 290.1333 C153.7412 291.4274 153.6169 292.6544 154 293.1333 C154.6641 293.9634 156.1086 294.8181 158 295.1333 C161.4919 295.7153 165.1233 294.8046 166 295.1333 C166.1233 295.1796 166.4842 297.4877 166 298.1333 C164.4666 300.1779 160.7258 301.2462 160 303.1333 C159.2436 305.0999 160.8352 311.0884 161 311.1333 C161.4473 311.2553 167.6413 308.9753 171 306.1333 C172.9063 304.5203 173.9963 300.1318 174 300.1333 C174.0325 300.1463 174.493 305.3706 176 308.1333 C176.859 309.7081 179.9928 311.1597 180 311.1333 C180.0517 310.9438 178.1863 298.1505 179 297.1333 C179.7027 296.2549 191.0094 296.5461 192 296.1333 C192.0492 296.1128 191.753 292.6604 191 292.1333 C188.8005 290.5937 182 289.1333 182 289.1333 "/>
<path id="27" d="M217 226.1333 C217 226.1333 216.7646 231.0263 217 231.1333 C218.1396 231.6513 228 231.1333 228 231.1333 "/>
<path id="28" d="M205 227.1333 L205 277.1333 "/>
<path id="29" d="M205 277.1333 L357 276.1333 "/>
<path id="30" d="M357 236.1333 L357 276.1333 "/>
<path id="31" d="M279 239.1333 C279 239.1333 279.9391 246.5366 281 247.1333 C283.3768 248.4703 288.9438 248.1333 295 248.1333 C295.8652 248.1333 296.9295 247.4858 297 247.1333 C297.4531 244.8677 297 238.1333 297 238.1333 "/>
<path id="32" d="M285 249.1333 C285 249.1333 279.4842 257.1559 280 259.1333 C280.9414 262.7421 291 272.1333 291 272.1333 "/>
<path id="33" d="M296 250.1333 C296 250.1333 299.4794 256.6181 299 260.1333 C298.3593 264.8314 293 272.1333 293 272.1333 "/>
<path id="34" d="M208 255.1333 C208 255.1333 214.6965 258.7782 221 259.1333 C248.644 260.6907 279 259.1333 279 259.1333 "/>
<path id="35" d="M301 259.1333 L357 259.1333 "/>
<path id="36" d="M252 238.1333 C252 238.1333 254.0471 241.2457 256 242.1333 C258.5021 243.2707 261.5093 242.1395 263 243.1333 C264.037 243.8247 264.5588 248.0782 265 248.1333 C267.2901 248.4196 274.7593 246.9886 279 245.1333 C280.0385 244.679 281 241.1333 281 241.1333 "/>
<path id="37" d="M297 241.1333 C297 241.1333 299.8143 245.0405 302 246.1333 C303.4571 246.8619 305.9512 246.8675 307 246.1333 C309.0766 244.6797 309.1764 241.5226 312 239.1333 C314.9429 236.6432 320 235.1333 320 235.1333 "/>
<path id="38" d="M360 182.1333 C360 182.1333 366.469 182.8236 369 182.1333 C369.7925 181.9172 369.9912 179.5537 371 179.1333 C374.3626 177.7323 380.8513 176.8766 381 177.1333 C381.8465 178.5955 383.3137 196.9247 382 198.1333 C380.0036 199.97 356 200.1333 356 200.1333 "/>
<path id="39" d="M385 181.1333 C385 181.1333 399.4162 174.3402 414 170.1333 C424.9487 166.975 437 166.1333 437 166.1333 "/>
<path id="40" d="M384 191.1333 C384 191.1333 397.8175 183.1235 412 178.1333 C424.2394 173.8269 438 172.1333 438 172.1333 "/>
<path id="41" d="M438 167.1333 C438 167.1333 436.9383 155.9028 438 154.1333 C438.6043 153.1261 446.9116 151.9787 447 152.1333 C447.4338 152.8925 446 168.1333 446 168.1333 C446 168.1333 445.8644 166.2011 446 166.1333 C446.8813 165.6927 449.0723 165.1333 452 165.1333 C460.7831 165.1333 468.4219 165.3907 470 166.1333 C470.196 166.2256 469.5005 172.9581 469 173.1333 C466.2434 174.0981 450 173.1333 450 173.1333 C450 173.1333 464.9741 171.2255 468 172.1333 C468.7009 172.3436 470.0496 179.1129 470 179.1333 C468.9318 179.5732 451 179.1333 451 179.1333 C451 179.1333 457.1278 178.3036 461 179.1333 C462.7978 179.5186 464.36 180.8533 465 182.1333 C465.64 183.4133 465.3125 186.9629 465 187.1333 C463.6772 187.8548 457.1071 189.6333 454 188.1333 C446.543 184.5334 436 173.1333 436 173.1333 "/>
<path id="42" d="M228 279.1333 C228 279.1333 226.0663 308.3168 228 310.1333 C230.1913 312.1918 258.9375 312.1958 261 310.1333 C263.0625 308.0708 261 277.1333 261 277.1333 "/>
<path id="43" d="M289 278.1333 C289 278.1333 287.1125 307.633 289 309.1333 C291.9875 311.508 325.2302 311.5481 328 309.1333 C330.1052 307.2981 328 275.1333 328 275.1333 "/>
<path id="44" d="M237 315.1333 L237 369.1333 "/>
<path id="45" d="M247 313.1333 L247 368.1333 "/>
<path id="46" d="M300 311.1333 L303 362.1333 "/>
<path id="47" d="M314 310.1333 L314 363.1333 "/>
<path id="48" d="M238 370.1333 C238 370.1333 231.9414 373.2114 229 377.1333 C225.2564 382.1248 224.9532 383.7158 223 390.1333 C221.6425 394.5936 222 395.876 222 400.1333 C222 400.9848 222.681 402.0958 223 402.1333 C227.1317 402.6194 237.2037 403.19 239 402.1333 C239.7727 401.6788 238.4944 394.1864 240 392.1333 C241.73 389.7742 248.3941 389.2209 250 387.1333 C251.0122 385.8175 249.9955 379.1422 250 379.1333 C250.0017 379.13 251.1542 382.5694 252 383.1333 C252.725 383.6167 255.9175 383.3189 256 383.1333 C256.4175 382.1939 257.191 375.9198 256 374.1333 C254.3238 371.6191 246 368.1333 246 368.1333 "/>
<path id="49" d="M234 371.1333 L246 372.1333 "/>
<path id="50" d="M306 363.1333 C306 363.1333 297.9855 368.7245 294 374.1333 C292.0971 376.7158 292.3751 378.1952 292 382.1333 C291.4047 388.384 291.2747 393.9547 292 395.1333 C292.2747 395.5797 297.6069 396.2501 300 395.1333 C303.0711 393.7002 303.2523 390.7099 307 388.1333 C310.7279 385.5704 314.8999 385.8447 316 384.1333 C317.1242 382.3845 316 374.1333 316 374.1333 C316 374.1333 315.625 379.7583 316 380.1333 C316.375 380.5083 321.5574 380.5022 322 380.1333 C322.3074 379.8772 322.8221 376.572 322 375.1333 C319.7686 371.2285 315.1816 369.0872 314 366.1333 C313.4964 364.8743 316 360.1333 316 360.1333 "/>
<path id="51" d="M306 365.1333 L315 365.1333 "/>
<path id="52" d="M240 343.1333 L246 343.1333 "/>
<path id="53" d="M304 339.1333 L313 339.1333 "/>
</g>
</g>
</svg>
