<?xml version="1.0" encoding="utf-8"?>
<!DOCTYPE svg PUBLIC "-//W3C//DTD SVG 1.1//EN" "http://www.w3.org/Graphics/SVG/1.1/DTD/svg11.dtd">
<svg viewBox="0 0 800 800" preserveAspectRatio="xMinYMin meet" xmlns="http://www.w3.org/2000/svg" version="1.1">
<g fill="none" stroke="black" stroke-linecap="round" stroke-linejoin="round" stroke-width="1.6993">
<g transform="translate(87.52,126.3593) scale(1.7654) translate(-91,-25)">
<path id="0" d="M185 81 C185 81 188.5073 90.5465 190 100 C191.445 109.1518 190.9196 109.5096 191 119 C191.4189 168.4281 185.3861 214.4144 191 218 C204.7611 226.7894 338.5381 227.2664 346 218 C357.2626 204.0138 353.7923 48.8903 344 28 C341.7819 23.2681 299.6413 25.627 256 26 C241.6027 26.1231 240.7588 26.1336 227 29 C217.4985 30.9795 217.5094 33.4828 208 36 C200.9183 37.8746 195.7893 35.742 193 38 C189.9549 40.465 187.3289 46.0925 187 53 C185.9702 74.6262 190 101 190 101 "/>
<path id="1" d="M211 222 C211 222 213.2855 260.7648 211 292 C210.5939 297.5505 208.6508 298.752 205 304 C200.9468 309.8265 199.095 314.1956 195 315 C179.5101 318.0427 154.059 313.1304 149 315 C148.309 315.2554 148.4663 331.8502 149 332 C155.3435 333.7806 178.8325 332.2937 206 331 C208.9027 330.8618 210.5429 330.4571 212 329 C214.1857 326.8143 215.3566 324.8607 216 321 C217.6457 311.1256 215.4017 309.7088 217 299 C220.3442 276.5938 223.2365 276.3847 226 254 C228.165 236.4638 227 218 227 218 "/>
<path id="2" d="M301 224 L302 235 "/>
<path id="3" d="M302 230 C302 230 305.4559 237.0515 307 244 C308.3511 250.08 307.9002 250.513 308 257 C308.3987 282.9173 309.8205 291.7053 308 309 C307.8028 310.873 304.7577 313.4485 302 314 C290.4177 316.3165 284.0684 314.5718 273 316 C272.1458 316.1102 271.0945 317.1969 271 318 C270.3659 323.3896 270.6055 326.2941 271 333 C271.0541 333.9204 271.71 334.9839 272 335 C281.1349 335.5075 292.5838 336.9658 307 335 C311.044 334.4485 311.843 330.2471 316 329 C320.234 327.7298 323.0856 329.6022 327 329 C327.8212 328.8737 328.9715 327.755 329 327 C329.7001 308.4483 331.9426 298.2332 329 276 C327.9504 268.0696 321.3307 266.9845 320 259 C317.3385 243.031 320 222 320 222 "/>
<path id="4" d="M216 68 C216 68 220.8133 61.6073 224 59 C224.6222 58.4909 226.4775 58.5521 227 59 C228.5924 60.3649 230.3879 62.2458 231 65 C232.0662 69.7977 231.9749 75.0501 231 77 C230.5531 77.8937 224.5506 79.4004 224 79 C222.8807 78.186 220.7603 73.562 220 69 C219.4416 65.6498 221 61 221 61 "/>
<path id="5" d="M223 55 C223 55 216.3979 54.7097 215 56 C212.626 58.1914 211.0968 61.7352 210 67 C208.8159 72.6837 208.5136 78.1173 210 80 C212.04 82.584 217.7736 84.2657 225 86 C229.3956 87.0549 232.2299 87.3851 235 86 C238.4626 84.2687 241.9401 80.7853 243 77 C244.4823 71.706 243.9539 65.7763 242 61 C240.8958 58.3009 237.631 56.4524 234 55 C231.556 54.0224 227 55 227 55 "/>
<path id="6" d="M331 40 L331 40 "/>
<path id="7" d="M300 66 C300 66 303.2976 64.6488 304 65 C305.3045 65.6522 307.4403 67.7613 308 70 C309.0261 74.1043 308.349 79.7202 308 81 C307.974 81.0952 305.6222 81.5091 305 81 C301.8133 78.3927 298.7785 76.0017 297 72 C295.7251 69.1315 296.5469 65.2656 297 63 C297.0705 62.6476 299 62 299 62 "/>
<path id="8" d="M296 61 C296 61 298.9189 55.3701 302 53 C304.1646 51.3349 307.5664 50.3209 309 51 C313.0764 52.9309 316.9175 56.103 321 62 C325.05 67.85 326.3973 70.3698 327 77 C327.6873 84.5608 326.7918 89.846 324 95 C322.3759 97.9983 318.4577 100.0713 314 101 C308.5352 102.1385 306.318 101.2636 300 100 C297.0634 99.4127 295.541 98.9262 294 97 C290.681 92.8512 289.1015 90.6911 288 85 C286.4099 76.7842 286.7542 74.0979 288 66 C288.4993 62.7543 289.47 61.6788 292 59 C297.4642 53.2144 305 48 305 48 "/>
<path id="9" d="M213 125 C213 125 225.0877 130.7335 232 136 C233.4666 137.1174 232.5084 139.5084 234 141 C238.0487 145.0487 240.1336 148.3048 245 149 C263.0343 151.5763 275.7741 151.4622 290 149 C292.7053 148.5318 296.3231 143.9647 297 140 C299.1247 127.5556 297 108 297 108 "/>
<path id="10" d="M213 126 C213 126 215.2889 117.4259 217 116 C218.1099 115.0751 222.2195 114.7091 225 116 C234.0491 120.2013 235.5377 126.1814 245 129 C255.8201 132.223 263.6746 133.4281 272 130 C282.3515 125.7376 286.4954 115.7445 296 108 C296.6801 107.4458 298.925 107.85 299 108 C299.3 108.6 299 114 299 114 "/>
<path id="11" d="M353 123 L393 114 "/>
<path id="12" d="M355 138 C355 138 377.3942 137.4343 398 134 C406.494 132.5843 410.8438 131.5625 415 128 C417.6814 125.7016 418.7283 121.7726 419 116 C420.627 81.4256 419.867 52.0419 419 43 C418.992 42.9169 412.0879 42.7253 412 43 C411.0064 46.1051 415.0361 58.272 411 68 C397.5385 100.4456 373 137 373 137 "/>
<path id="13" d="M412 50 C412 50 403 35.0336 403 35 C403 34.9888 411.701 40.2136 412 40 C412.8655 39.3818 416.948 25.039 417 25 C417.012 24.991 419.9256 34 420 34 C420.1735 34 426.9339 24.9853 427 25 C427.0588 25.0131 428.8299 35.98 429 36 C429.72 36.0847 442.9808 27.3185 444 27 C444.0143 26.9955 445.2827 29.5864 445 31 C444.509 33.4552 443.9774 35.5619 442 37 C434.9449 42.1309 431.8388 43.6005 423 47 C420.2918 48.0416 416 47 416 47 "/>
<path id="14" d="M200 125 C200 125 153.805 121.6225 148 125 C145.5867 126.4041 147.5577 142.0192 145 157 C144.2383 161.4617 141 166 141 166 "/>
<path id="15" d="M198 133 C198 133 180.5956 131.9412 174 136 C166.8744 140.385 163.3956 147.1099 159 157 C156.5462 162.521 160.0133 165.4568 158 172 C154.3983 183.7055 149.4284 184.5201 147 196 C144.4172 208.2095 147.677 213.8454 147 224 C146.9484 224.7737 145.7883 225.9283 145 226 C137.7742 226.6569 125.7348 227.1389 125 226 C123.2348 223.2639 123.889 209.4433 125 195 C125.295 191.1652 125.8048 190.3451 128 187 C135.8863 174.9828 139.1277 174.2127 146 163 C147.4934 160.5633 147 156 147 156 "/>
<path id="16" d="M130 227 C130 227 110.9296 237.6479 95 245 C93.5287 245.6791 91.1058 245.0705 91 245 C90.9912 244.9941 92 243 92 243 "/>
<path id="17" d="M118 228 C118 228 127.0388 251.1165 134 272 C134.5644 273.6933 134.24 275.68 134 276 C133.865 276.18 131.1203 276.2105 131 276 C130.4688 275.0705 130 269 130 269 "/>
<path id="18" d="M139 223 C139 223 147.0601 231.9154 153 241 C155.1791 244.3327 155.9895 248.9263 156 249 C156.0016 249.0112 154 248 154 248 "/>
<path id="19" d="M148 225 C148 225 142.0874 231.1752 139 238 C132.9372 251.402 132.0648 261.0748 129 267 C128.7681 267.4484 124 267 124 267 "/>
</g>
</g>
</svg>
