<?xml version="1.0" encoding="utf-8"?>
<!DOCTYPE svg PUBLIC "-//W3C//DTD SVG 1.1//EN" "http://www.w3.org/Graphics/SVG/1.1/DTD/svg11.dtd">
<svg viewBox="0 0 800 800" preserveAspectRatio="xMinYMin meet" xmlns="http://www.w3.org/2000/svg" version="1.1">
<g fill="none" stroke="black" stroke-linecap="round" stroke-linejoin="round" stroke-width="1.9537">
<g transform="translate(96.7332,87.52) scale(1.5355) translate(-140.5,-74.6667)">
<path id="0" d="M313.5 225.6667 C313.5 225.6667 308.5214 226.0072 304.5 224.6667 C294.1591 221.2197 290.5336 216.9227 283.5 215.6667 C281.5444 215.3175 277.3394 217.9878 276.5 219.6667 C275.3808 221.9051 275.0317 227.5691 276.5 229.6667 C279.4072 233.8199 284.109 238.0279 290.5 239.6667 C300.1459 242.14 306.5631 240.8993 315.5 239.6667 C317.1271 239.4422 319.5 235.6667 319.5 235.6667 "/>
<path id="1" d="M276.5 226.6667 C276.5 226.6667 268.8536 226.8465 265.5 224.6667 C261.0967 221.8045 259.8754 219.3788 256.5 213.6667 C253.7358 208.9887 252.971 207.9659 252.5 202.6667 C251.0896 186.8001 251.4468 185.1669 252.5 168.6667 C252.9086 162.2648 253.0749 161.5562 255.5 155.6667 C259.8491 145.1045 260.3259 144.0903 266.5 134.6667 C269.3984 130.2429 270.1988 129.6096 274.5 126.6667 C279.1036 123.5168 281.7734 121.8628 285.5 121.6667 C288.0773 121.531 290.5556 122.9578 293.5 125.6667 C302.1921 133.6634 302.917 134.7505 310.5 144.6667 C315.6854 151.4476 317.7118 152.514 319.5 159.6667 C322.1175 170.1366 320.5 184.6667 320.5 184.6667 "/>
<path id="2" d="M386.5 166.6667 C386.5 166.6667 389.1445 162.866 389.5 159.6667 C390.0278 154.9161 390.2491 153.0394 388.5 148.6667 C385.7996 141.9158 384.4451 140.539 379.5 134.6667 C377.0033 131.7019 375.6929 130.4649 372.5 129.6667 C367.4688 128.4089 365.1837 128.4826 359.5 129.6667 C354.2352 130.7635 352.5866 131.2908 348.5 134.6667 C342.1352 139.9246 340.9281 141.1226 336.5 148.6667 C327.9138 163.2951 328.279 164.7161 321.5 180.6667 C319.9366 184.3452 319.3843 184.9646 319.5 188.6667 C319.8512 199.9039 318.6206 204.0458 322.5 212.6667 C325.9815 220.4034 329.5956 222.6703 337.5 228.6667 C342.9035 232.7659 344.6024 232.9423 351.5 234.6667 C357.8413 236.252 360.7627 237.3002 365.5 235.6667 C372.0198 233.4185 374.9967 230.9853 380.5 224.6667 C387.464 216.671 392.5 204.6667 392.5 204.6667 "/>
<path id="3" d="M303.5 222.6667 C303.5 222.6667 311.7803 220.7206 316.5 217.6667 C318.7914 216.184 320.5 211.6667 320.5 211.6667 "/>
<path id="4" d="M390.5 152.6667 C390.5 152.6667 394.7717 156.3894 395.5 159.6667 C397.3157 167.8375 396.5 179.6667 396.5 179.6667 "/>
<path id="5" d="M405.5 211.6667 C405.5 211.6667 396.6769 208.4128 395.5 205.6667 C392.8847 199.5642 393.1805 191.974 393.5 183.6667 C393.56 182.1072 395.1697 180.0137 396.5 179.6667 C403.2515 177.9054 408.6897 175.8503 416.5 177.6667 C426.8114 180.0647 429.4648 183.0919 439.5 189.6667 C442.9422 191.9219 444.7871 194.3497 445.5 196.6667 C445.9339 198.077 445.0174 200.5802 443.5 202.6667 C441.594 205.2875 440.7023 205.9813 437.5 207.6667 C431.7007 210.7189 424.5 212.6667 424.5 212.6667 "/>
<path id="6" d="M227.5 206.6667 C227.5 206.6667 219.2268 206.2606 217.5 204.6667 C215.7172 203.021 214.1584 197.2287 214.5 194.6667 C214.7016 193.1544 216.8253 190.9403 219.5 189.6667 C226.1608 186.4949 227.6851 185.6197 235.5 184.6667 C247.2625 183.2322 258.2022 183.288 260.5 184.6667 C261.3272 185.163 262.0329 195.068 260.5 199.6667 C259.6484 202.2215 253.5 205.6667 253.5 205.6667 "/>
<path id="7" d="M247.5 199.6667 C247.5 199.6667 246.3329 208.5266 248.5 214.6667 C251.7299 223.818 252.7753 225.8515 259.5 233.6667 C270.4551 246.3983 271.794 247.9918 285.5 257.6667 C296.1832 265.2077 298.5993 267.3999 310.5 269.6667 C327.0737 272.8236 331.1645 272.0578 348.5 269.6667 C358.1274 268.3388 359.8924 266.9952 368.5 261.6667 C379.933 254.5891 380.9562 253.4756 390.5 243.6667 C398.4008 235.5464 398.5269 234.5353 404.5 224.6667 C409.8151 215.8851 413.5 205.6667 413.5 205.6667 "/>
<path id="8" d="M239.5 202.6667 C239.5 202.6667 246.0805 233.4081 255.5 261.6667 C258.77 271.4766 259.2883 272.7079 265.5 280.6667 C274.5774 292.2971 276.0812 294.1758 287.5 302.6667 C294.1101 307.5819 296.4618 308.8628 304.5 309.6667 C323.9825 311.6149 328.116 312.0874 347.5 308.6667 C359.5952 306.5322 361.1255 304.343 372.5 297.6667 C383.4893 291.2164 385.2867 290.7445 393.5 281.6667 C403.2107 270.9338 404.5715 269.0608 410.5 255.6667 C417.4722 239.9147 417.0097 237.769 420.5 220.6667 C421.8192 214.2026 420.5 206.6667 420.5 206.6667 "/>
<path id="9" d="M401.5 210.6667 C401.5 210.6667 406.6879 204.8103 410.5 203.6667 C414.1747 202.5643 418.2452 202.6173 421.5 204.6667 C428.7975 209.2614 437.5 220.6667 437.5 220.6667 "/>
<path id="10" d="M231.5 211.6667 C231.5 211.6667 240.3287 202.4952 246.5 199.6667 C249.0714 198.4881 252.9958 199.1641 255.5 200.6667 C258.3173 202.357 261.5 208.6667 261.5 208.6667 "/>
<path id="11" d="M279.5 212.6667 C279.5 212.6667 276.7393 210.4615 276.5 208.6667 C275.0786 198.0063 274.0411 194.0462 275.5 182.6667 C276.2764 176.6104 278.1662 174.5159 281.5 169.6667 C282.7532 167.8438 285.3144 166.6667 286.5 166.6667 C287.4485 166.6667 289.6699 168.0065 290.5 169.6667 C293.4053 175.4773 294.2637 177.249 295.5 184.6667 C297.1527 194.583 297.161 196.0816 296.5 205.6667 C296.2408 209.4249 293.5 213.6667 293.5 213.6667 "/>
<path id="12" d="M273.5 219.6667 C273.5 219.6667 268.2254 215.3844 267.5 211.6667 C264.8588 198.1305 264.5267 193.5909 265.5 178.6667 C265.8946 172.6161 267.0486 170.8437 270.5 165.6667 C274.374 159.8557 276.6658 156.7937 281.5 154.6667 C285.7727 152.7867 291.7009 152.8497 295.5 154.6667 C299.3699 156.5175 303.1746 160.4756 304.5 165.6667 C308.1644 180.0189 308.4239 185.3441 307.5 201.6667 C307.0529 209.5658 301.5 218.6667 301.5 218.6667 "/>
<path id="13" d="M357.5 169.6667 C357.5 169.6667 351.468 176.5821 350.5 182.6667 C348.3738 196.0311 349.1955 210.2966 350.5 213.6667 C350.6955 214.1716 359.6707 215.4775 362.5 213.6667 C367.9795 210.1598 372.4833 204.8604 375.5 197.6667 C377.6095 192.6364 376.6359 189.1982 375.5 182.6667 C374.8415 178.8803 373.8923 178.1223 371.5 174.6667 C369.6203 171.9516 368.4448 170.2651 366.5 169.6667 C364.212 168.9627 358.5 170.6667 358.5 170.6667 "/>
<path id="14" d="M363.5 160.6667 C363.5 160.6667 357.2335 162.511 352.5 165.6667 C347.2161 169.1892 345.4949 169.8748 342.5 174.6667 C338.9404 180.362 338.8535 182.3577 337.5 189.6667 C336.4802 195.1739 336.1874 196.4163 337.5 201.6667 C339.9064 211.2924 340.7192 213.8979 345.5 221.6667 C347.5953 225.0715 350.8734 227.5616 353.5 227.6667 C358.8553 227.8809 365.0197 226.7327 370.5 222.6667 C377.7388 217.296 380.225 213.6916 384.5 204.6667 C388.3 196.6445 389.3662 192.2462 388.5 184.6667 C387.7946 178.4944 385.2897 174.0732 380.5 169.6667 C375.1478 164.7427 363.5 161.6667 363.5 161.6667 "/>
<path id="15" d="M252.5 117.6667 L266.5 141.6667 "/>
<path id="16" d="M278.5 109.6667 L280.5 122.6667 "/>
<path id="17" d="M310.5 117.6667 C310.5 117.6667 311.3965 121.9773 310.5 124.6667 C309.262 128.3806 305.5 132.6667 305.5 132.6667 "/>
<path id="18" d="M339.5 118.6667 C339.5 118.6667 348.2328 136.6424 352.5 142.6667 C352.8641 143.1807 356.5 142.6667 356.5 142.6667 "/>
<path id="19" d="M376.5 114.6667 C376.5 114.6667 378.7461 120.7299 378.5 124.6667 C378.3458 127.1334 375.5 130.6667 375.5 130.6667 "/>
<path id="20" d="M408.5 134.6667 C408.5 134.6667 408.5193 138.1378 407.5 139.6667 C406.181 141.6452 405.13 141.9133 402.5 143.6667 C397.6974 146.8684 397.1579 148.114 392.5 149.6667 C389.3947 150.7018 384.5 149.6667 384.5 149.6667 "/>
<path id="21" d="M245.5 111.6667 C245.5 111.6667 260.8755 101.2771 276.5 94.6667 C285.9565 90.6658 287.1712 91.4475 297.5 89.6667 C301.2796 89.015 302.8805 88.4193 305.5 89.6667 C311.3159 92.4362 318.5 99.6667 318.5 99.6667 "/>
<path id="22" d="M345.5 96.6667 C345.5 96.6667 357.5444 90.8741 367.5 90.6667 C379.1524 90.4239 383.9424 90.437 393.5 95.6667 C406.848 102.9703 411.6703 110.837 420.5 119.6667 C421.0194 120.1861 420.5 122.6667 420.5 122.6667 "/>
<path id="23" d="M290.5 324.6667 C290.5 324.6667 296.9266 325.683 301.5 324.6667 C304.7799 323.9378 305.241 321.2335 308.5 320.6667 C315.2757 319.4883 318.0079 318.8408 324.5 320.6667 C332.0191 322.7814 333.1717 328.4941 340.5 329.6667 C354.7196 331.9418 374.5 328.6667 374.5 328.6667 "/>
<path id="24" d="M220.5 83.6667 C220.5 83.6667 227.5319 74.9965 230.5 74.6667 C234.9072 74.177 239.7031 80.1098 247.5 80.6667 C258.5882 81.4587 263.235 76.6078 272.5 77.6667 C276.5581 78.1305 278.6685 84.3075 282.5 84.6667 C290.2753 85.3956 295.9713 79.9356 304.5 80.6667 C309.8558 81.1257 312.4885 87.1098 317.5 87.6667 C322.4307 88.2145 324.8798 84.0345 331.5 83.6667 C341.6889 83.1006 343.4916 86.2554 353.5 85.6667 C359.0961 85.3375 360.0057 81.8113 365.5 81.6667 C377.265 81.3571 380.0377 85.2545 391.5 84.6667 C397.379 84.3652 400.5853 78.8837 404.5 79.6667 C412.4599 81.2587 416.3157 87.593 426.5 91.6667 C429.5401 92.8827 431.0869 92.5649 434.5 91.6667 C439.7544 90.2839 442.8422 86.287 445.5 86.6667 C448.3793 87.078 451.0125 92.6722 455.5 94.6667 C458.1484 95.8437 460.7271 93.6763 463.5 94.6667 C466.1986 95.6305 469.5 99.6667 469.5 99.6667 "/>
<path id="25" d="M224.5 82.6667 C224.5 82.6667 223.8038 92.1645 225.5 98.6667 C226.3662 101.9873 230.5 103.6248 230.5 105.6667 C230.5 109.1669 226.2254 112.0446 225.5 117.6667 C224.4174 126.0567 227.8153 129.5641 226.5 136.6667 C225.8631 140.1061 221.1586 141.5382 220.5 144.6667 C219.7478 148.2395 222.5 150.3649 222.5 155.6667 C222.5 166.2703 220.1702 167.773 220.5 177.6667 C220.6218 181.3204 223.8212 184.3821 223.5 185.6667 C223.2564 186.6412 217.6813 188.2891 217.5 189.6667 C216.2182 199.4083 219.1626 207.101 218.5 223.6667 C218.1855 231.53 217.7273 232.3483 215.5 239.6667 C214.4178 243.2224 211.7674 243.7251 211.5 246.6667 C210.9619 252.5862 211.4124 255.143 213.5 261.6667 C215.091 266.6387 218.4923 267.2329 219.5 271.6667 C220.544 276.2601 217.5905 278.8919 218.5 283.6667 C219.2665 287.6905 223.2259 288.9657 223.5 292.6667 C224.0201 299.6882 220.2216 303.1507 220.5 310.6667 C220.6424 314.5102 224.7315 316.3101 224.5 319.6667 C223.9583 327.5207 218.0683 338.8033 218.5 339.6667 C218.7031 340.073 227.0131 338.7682 234.5 339.6667 C238.8798 340.1923 239.2171 342.4287 243.5 342.6667 C256.0892 343.3661 258.854 340.1736 270.5 341.6667 C276.0341 342.3762 277.243 347.282 282.5 347.6667 C294.6633 348.5567 298.3015 344.3448 311.5 344.6667 C317.0198 344.8013 317.5387 347.5627 323.5 348.6667 C330.6051 349.9824 332.6011 350.6926 338.5 349.6667 C342.0289 349.0529 342.9636 345.1087 346.5 344.6667 C356.289 343.443 359.4352 346.8015 370.5 345.6667 C377.6826 344.93 378.9714 340.8645 385.5 340.6667 C393.2038 340.4332 396.2831 344.9155 403.5 344.6667 C408.014 344.511 409.4486 340.5452 414.5 339.6667 C419.5329 338.7914 421.5832 339.4375 426.5 340.6667 C428.4065 341.1433 429.8027 343.8276 430.5 343.6667 C432.6893 343.1614 435.7692 338.2885 439.5 337.6667 C444.9718 336.7547 454.4984 339.6869 454.5 339.6667 C454.5524 339.0111 445.5853 324.5821 441.5 312.6667 C440.5056 309.7663 441.0587 307.7095 442.5 304.6667 C445.0156 299.3559 450.6805 296.3741 450.5 293.6667 C450.1609 288.5795 443.4756 283.5934 440.5 274.6667 C439.0344 270.2699 439.4711 268.0396 440.5 263.6667 C441.1493 260.9073 444.5 259.9511 444.5 257.6667 C444.5 247.0061 440.1955 241.2363 440.5 229.6667 C440.6106 225.4645 444.1825 224.4098 445.5 219.6667 C446.4255 216.3349 446.369 214.9253 445.5 211.6667 C444.6238 208.3809 441.3114 206.9297 441.5 204.6667 C441.995 198.7263 446.4682 195.405 447.5 187.6667 C448.2381 182.131 444.3677 179.762 445.5 174.6667 C447.7746 164.431 455.0986 159.8951 455.5 151.6667 C455.8009 145.4975 447.1905 138.6188 447.5 133.6667 C447.7587 129.5281 457.072 123.8036 457.5 119.6667 C457.9064 115.7385 450.9016 109.2849 450.5 104.6667 C450.3054 102.4283 455.5 96.6667 455.5 96.6667 "/>
<path id="26" d="M322.5 351.6667 C322.5 351.6667 326.5619 361.3201 329.5 362.6667 C333.6479 364.5678 345.5493 363.3005 346.5 362.6667 C346.761 362.4927 344.5 352.6667 344.5 352.6667 "/>
<path id="27" d="M334.5 364.6667 C334.5 364.6667 334.3169 371.2159 332.5 376.6667 C330.4918 382.6912 325.7046 386.1479 326.5 388.6667 C328.9939 396.564 344.1448 414.7034 344.5 414.6667 C344.8248 414.6331 355.0983 393.4989 355.5 385.6667 C355.6296 383.1397 349.5809 380.8805 346.5 375.6667 C343.6111 370.7778 342.5 363.6667 342.5 363.6667 "/>
<path id="28" d="M296.5 349.6667 C296.5 349.6667 298.8134 349.1385 299.5 349.6667 C303.549 352.7813 306.032 354.9376 309.5 359.6667 C310.6471 361.2309 310.1501 364.5938 310.5 364.6667 C314.4421 365.488 327.52 365.165 333.5 364.6667 C333.8033 364.6414 334.5 362.6667 334.5 362.6667 "/>
<path id="29" d="M349.5 359.6667 C349.5 359.6667 353.2877 358.8952 354.5 359.6667 C357.0348 361.2797 359.5606 366.8182 360.5 366.6667 C365.6945 365.8288 374.708 361.1418 385.5 354.6667 C388.3823 352.9373 390.5 348.6667 390.5 348.6667 "/>
<path id="30" d="M220.5 341.6667 C220.5 341.6667 221.2248 372.2447 223.5 373.6667 C227.8278 376.3715 246.2793 370.8512 268.5 371.6667 C300.2632 372.8323 332.5 377.6667 332.5 377.6667 "/>
<path id="31" d="M347.5 378.6667 C347.5 378.6667 357.1374 375.0568 366.5 374.6667 C404.1133 373.0995 443.4747 374.667 443.5 374.6667 C443.501 374.6667 440.6006 374.0943 440.5 373.6667 C438.4842 365.0997 435.5 340.6667 435.5 340.6667 "/>
<path id="32" d="M461.5 96.6667 C461.5 96.6667 466.8167 105.7641 471.5 107.6667 C478.884 110.6664 485.953 106.4323 493.5 109.6667 C499.6319 112.2946 501.1054 120.3547 506.5 122.6667 C510.7327 124.4807 515.0352 121.3264 521.5 121.6667 C523.2756 121.7601 524.8359 122.8366 525.5 123.6667 C525.8831 124.1456 525.5 126.6667 525.5 126.6667 "/>
<path id="33" d="M451.5 336.6667 C451.5 336.6667 455.578 343.9126 458.5 344.6667 C466.2367 346.6632 474.4534 342.3 482.5 344.6667 C486.8388 345.9428 488.1087 352.6706 492.5 354.6667 C496.1228 356.3134 500.8772 353.0199 504.5 354.6667 C508.8913 356.6627 514.5 364.6667 514.5 364.6667 "/>
<path id="34" d="M524.5 121.6667 C524.5 121.6667 526.191 126.5571 525.5 129.6667 C524.5128 134.109 521.3159 134.9345 520.5 139.6667 C519.0729 147.9441 519.332 149.4892 520.5 158.6667 C522.7679 176.4859 526.2433 177.073 527.5 194.6667 C528.6657 210.9865 525.171 211.778 525.5 228.6667 C526.6635 288.3907 532.3832 295.5602 530.5 348.6667 C530.1644 358.1312 523.7637 364.7712 520.5 369.6667 C520.1854 370.1385 516.5 369.6667 516.5 369.6667 "/>
<path id="35" d="M441.5 371.6667 C441.5 371.6667 441.8699 377.2215 443.5 379.6667 C444.8973 381.7626 446.3445 382.2323 449.5 383.6667 C457.0586 387.1024 458.0023 385.9178 465.5 389.6667 C478.7197 396.2765 479.7109 399.1405 491.5 404.6667 C493.6415 405.6705 495.0478 403.9004 497.5 404.6667 C502.2255 406.1434 507.5 409.6667 507.5 409.6667 "/>
<path id="36" d="M517.5 367.6667 C517.5 367.6667 522.7685 385.9122 525.5 403.6667 C526.6739 411.2967 525.9706 417.7843 525.5 419.6667 C525.4706 419.7843 522.4491 420.2598 521.5 419.6667 C519.8094 418.6101 519.7879 416.1471 517.5 414.6667 C512.1616 411.2124 504.5 408.6667 504.5 408.6667 "/>
<path id="37" d="M505.5 274.6667 C505.5 274.6667 498.547 270.0784 496.5 266.6667 C495.4307 264.8844 495.4323 262.4121 496.5 259.6667 C501.7535 246.1576 504.0311 241.8076 510.5 230.6667 C511.2531 229.3696 514.44 228.5867 514.5 228.6667 C516.315 231.0867 519.3018 240.4397 525.5 250.6667 C529.0577 256.5369 532.3312 256.4615 534.5 261.6667 C536.4728 266.4013 536.369 270.9733 535.5 274.6667 C535.1476 276.1644 532.7556 277.7644 530.5 278.6667 C528.7912 279.3502 525.8811 278.9715 525.5 278.6667 C525.2561 278.4715 526.0828 275.8324 525.5 274.6667 C524.6257 272.9181 523.2586 271.3701 521.5 270.6667 C519.6158 269.913 518.319 270.233 515.5 270.6667 C512.0666 271.1949 510.0294 271.5196 508.5 272.6667 C507.7803 273.2065 507.5 276.6667 507.5 276.6667 "/>
<path id="38" d="M510.5 275.6667 C510.5 275.6667 511.762 310.7932 511.5 311.6667 C511.478 311.7401 505.8061 309.2782 501.5 305.6667 C490.6794 296.5913 480.5 285.6667 480.5 285.6667 "/>
<path id="39" d="M528.5 279.6667 C528.5 279.6667 530.939 282.1985 531.5 284.6667 C533.2233 292.249 533.3129 293.2476 533.5 301.6667 C533.8071 315.4862 533.8134 328.9474 532.5 329.6667 C529.4232 331.3516 508.9559 329.0306 491.5 324.6667 C486.129 323.3239 482.2025 320.0718 480.5 316.6667 C478.7344 313.1355 481.9036 307.3455 480.5 302.6667 C479.718 300.0599 474.5 296.6667 474.5 296.6667 "/>
<path id="40" d="M480.5 289.6667 C480.5 289.6667 483.8507 286.4261 484.5 283.6667 C485.5289 279.2937 485.9326 275.532 484.5 272.6667 C483.0022 269.6711 479.5824 267.0955 475.5 265.6667 C471.578 264.294 468.873 264.6377 464.5 265.6667 C461.7406 266.3159 459.2419 268.3312 458.5 269.6667 C458.0504 270.476 458.9229 274.3781 459.5 274.6667 C461.3962 275.6148 467.9981 274.8327 470.5 275.6667 C470.9415 275.8138 471.515 278.6627 471.5 278.6667 C470.0411 279.0506 453.2151 280.1251 451.5 280.6667 C451.4781 280.6736 451.9673 284.4704 452.5 284.6667 C456.6139 286.1823 470.3943 287.5213 470.5 287.6667 C470.5048 287.6732 462.2557 292.7405 460.5 295.6667 C459.6974 297.0043 461.462 302.6688 461.5 302.6667 C462.5849 302.6064 478.5 294.6667 478.5 294.6667 "/>
<path id="41" d="M225.5 374.6667 L227.5 408.6667 "/>
<path id="42" d="M440.5 376.6667 L435.5 417.6667 "/>
<path id="43" d="M526.5 418.6667 C526.5 418.6667 523.6129 429.0981 519.5 437.6667 C517.9549 440.8856 514.5 443.6667 514.5 443.6667 "/>
<path id="44" d="M226.5 410.6667 C226.5 410.6667 283.03 408.511 338.5 409.6667 C354.3928 409.9978 354.5341 412.8351 370.5 413.6667 C402.2511 415.3204 434.5 414.6667 434.5 414.6667 "/>
<path id="45" d="M435.5 414.6667 C435.5 414.6667 446.26 415.862 455.5 419.6667 C479.5732 429.5792 479.2948 432.293 503.5 442.6667 C513.959 447.1491 525.5 449.6667 525.5 449.6667 "/>
<path id="46" d="M245.5 391.6667 L272.5 389.6667 "/>
<path id="47" d="M295.5 393.6667 L317.5 393.6667 "/>
<path id="48" d="M383.5 397.6667 L419.5 397.6667 "/>
<path id="49" d="M469.5 411.6667 C469.5 411.6667 475.1879 417.0016 481.5 420.6667 C490.3771 425.8211 500.5 429.6667 500.5 429.6667 "/>
<path id="50" d="M229.5 413.6667 L260.5 445.6667 "/>
<path id="51" d="M265.5 443.6667 C265.5 443.6667 341.5807 442.1821 416.5 445.6667 C448.4188 447.1513 448.668 450.4835 480.5 453.6667 C488.3597 454.4526 488.824 454.5971 496.5 453.6667 C504.8883 452.6499 513.5 449.6667 513.5 449.6667 "/>
<path id="52" d="M264.5 445.6667 C264.5 445.6667 259.4312 447.6667 257.5 447.6667 C256.9482 447.6667 255.5 445.6667 255.5 445.6667 "/>
<path id="53" d="M290.5 443.6667 C290.5 443.6667 291.368 447.4966 290.5 449.6667 C288.8507 453.7898 285.8126 454.5103 284.5 458.6667 C283.2952 462.4817 282.9911 465.649 284.5 468.6667 C287.1405 473.9477 295.5 480.6667 295.5 480.6667 "/>
<path id="54" d="M309.5 445.6667 C309.5 445.6667 307.4615 451.1448 305.5 453.6667 C304.9116 454.4232 302.8342 454.065 302.5 454.6667 C301.358 456.7223 300.284 459.6424 300.5 462.6667 C300.6709 465.0586 301.4813 466.6479 303.5 468.6667 C308.2104 473.377 312.298 474.1978 315.5 477.6667 C316.138 478.3578 315.5 481.6667 315.5 481.6667 "/>
<path id="55" d="M411.5 446.6667 C411.5 446.6667 410.2662 452.7468 407.5 455.6667 C402.4685 460.9777 393.8587 463.8731 393.5 465.6667 C393.1301 467.5163 402.5 480.6667 402.5 480.6667 "/>
<path id="56" d="M433.5 449.6667 C433.5 449.6667 432.0364 454.5308 429.5 456.6667 C423.7122 461.5406 417.0825 462.5308 414.5 465.6667 C413.6321 466.7206 414.4727 471.6121 415.5 473.6667 C415.9834 474.6335 418.6065 474.5945 419.5 475.6667 C420.3097 476.6383 420.5 479.6667 420.5 479.6667 "/>
<path id="57" d="M262.5 241.6667 L255.5 258.6667 "/>
<path id="58" d="M281.5 258.6667 C281.5 258.6667 283.1354 263.1718 282.5 266.6667 C280.3646 278.4112 275.5 291.6667 275.5 291.6667 "/>
<path id="59" d="M304.5 271.6667 C304.5 271.6667 304.1987 284.9787 305.5 297.6667 C306.1634 304.1353 308.4592 310.5932 308.5 310.6667 C308.508 310.6811 310.5 306.6667 310.5 306.6667 "/>
<path id="60" d="M337.5 274.6667 C337.5 274.6667 341.0336 289.5006 345.5 300.6667 C346.3566 302.8081 349.5 304.6667 349.5 304.6667 "/>
<path id="61" d="M360.5 266.6667 C360.5 266.6667 390.2421 297.6756 391.5 298.6667 C391.561 298.7148 393.5 292.6667 393.5 292.6667 "/>
<path id="62" d="M393.5 248.6667 C393.5 248.6667 406.4822 264.6537 406.5 264.6667 C406.5057 264.6708 404.5 256.6667 404.5 256.6667 "/>
<path id="63" d="M405.5 227.6667 L425.5 248.6667 "/>
<path id="64" d="M285.5 185.6667 C285.5 185.6667 283.2842 192.0766 283.5 194.6667 C283.5794 195.6196 286.497 197.6727 286.5 197.6667 C286.513 197.6407 285.5 190.6667 285.5 190.6667 "/>
<path id="65" d="M362.5 185.6667 C362.5 185.6667 361.7602 190.9542 362.5 193.6667 C362.8531 194.9613 365.5 196.6667 365.5 196.6667 C365.5071 196.6596 365.38 192.8987 364.5 191.6667 C363.752 190.6195 360.5042 189.6709 360.5 189.6667 C360.4986 189.6653 362.5 189.6667 362.5 189.6667 "/>
<path id="66" d="M221.5 278.6667 C221.5 278.6667 211.5719 281.1775 202.5 284.6667 C198.8647 286.0649 195.8282 288.2728 195.5 288.6667 C195.4889 288.68 197.5 290.6667 197.5 290.6667 "/>
<path id="67" d="M223.5 295.6667 C223.5 295.6667 219.2696 301.8844 214.5 304.6667 C208.5031 308.1649 207.0418 307.7114 199.5 309.6667 C193.7065 311.1687 191.7254 311.9308 187.5 311.6667 C186.01 311.5735 184.6866 310.4779 183.5 308.6667 C175.9361 297.1218 173.2514 295.888 168.5 282.6667 C162.313 265.4507 160.5 244.6667 160.5 244.6667 "/>
<path id="68" d="M177.5 239.6667 C177.5 239.6667 183.0303 263.0334 191.5 281.6667 C194.6523 288.6016 202.4724 294.6697 202.5 294.6667 C202.5013 294.6665 200.5 280.6667 200.5 280.6667 "/>
<path id="69" d="M180.5 220.6667 C180.5 220.6667 175.9071 224.526 174.5 224.6667 C173.6865 224.748 171.323 223.1481 170.5 221.6667 C169.4668 219.8069 168.953 216.7607 169.5 215.6667 C170.1962 214.2743 172.5126 212.5629 175.5 211.6667 C181.5579 209.8493 188.1865 208.6159 189.5 209.6667 C191.6609 211.3954 196.8667 224.6117 195.5 227.6667 C192.7971 233.7085 172.5 247.6667 172.5 247.6667 "/>
<path id="70" d="M162.5 246.6667 C162.5 246.6667 158.6021 247.6009 156.5 246.6667 C151.0502 244.2445 150.1487 242.9032 144.5 238.6667 C142.3033 237.0191 141.0356 236.4073 140.5 234.6667 C139.5785 231.6717 139.4654 227.9084 140.5 225.6667 C141.2782 223.9806 144.8212 221.6667 146.5 221.6667 C148.7384 221.6667 151.631 223.3193 154.5 225.6667 C156.3047 227.1433 157.5005 230.6668 157.5 230.6667 C157.4992 230.6664 152.6305 227.3045 151.5 224.6667 C150.4449 222.2047 150.7636 217.4849 151.5 216.6667 C152.4297 215.6337 159.1738 214.305 160.5 214.6667 C161.0276 214.8106 162.5 219.6667 162.5 219.6667 C162.5 219.6666 159.8601 213.8754 160.5 212.6667 C162.2043 209.4474 167.9188 203.9201 171.5 202.6667 C173.4635 201.9795 177.4827 203.5114 180.5 205.6667 C183.2079 207.6009 185.5 212.6667 185.5 212.6667 "/>
<path id="71" d="M175.5 223.6667 C175.5 223.6667 175.8313 227.0164 175.5 229.6667 C175.3827 230.6053 174.5584 231.6667 174.5 231.6667 C174.3831 231.6667 172.5 229.6667 172.5 229.6667 "/>
</g>
</g>
</svg>
