<?xml version="1.0" encoding="utf-8"?>
<!DOCTYPE svg PUBLIC "-//W3C//DTD SVG 1.1//EN" "http://www.w3.org/Graphics/SVG/1.1/DTD/svg11.dtd">
<svg viewBox="0 0 800 800" preserveAspectRatio="xMinYMin meet" xmlns="http://www.w3.org/2000/svg" version="1.1">
<g fill="none" stroke="black" stroke-linecap="round" stroke-linejoin="round" stroke-width="2.2897">
<g transform="translate(87.52,122.24) scale(1.3102) translate(0,-45)">
<path id="0" d="M106,301C106,301 110.56250117142163,295.6062473057302 113,290C115.30920941654791,284.6888183419398 115.13914471665903,284.02598698338675 116,278C118.10761121093823,263.24672152343237 119.32691217054812,262.71104767466556 119,248C118.34350599752585,218.4577698886634 117.45539700935372,217.71641428044202 114,188C112.48386994944671,174.96128156524173 109.78469495406891,174.86899724673015 109,162C107.32947648164838,134.60341429903343 108.08129079718443,133.86751248540526 109,106C109.57581577586202,88.53358813218517 108.7825881464333,87.08705926783348 112,71C113.48217849433972,63.589107528301426 114.68538361076128,59.2686487797263 119,56C126.88877055986221,50.02365866677105 132.30560035009878,48.14828301767559 145,46C162.95552306036023,42.96137302055442 165.25920835814386,42.49547024141093 184,45C271.7621895526145,56.72858754389778 273.8337724849278,63.19202310065997 362,75C384.2815856056927,77.98414092933385 407.51395647157545,74.94072639897261 408,75C408.04638803558663,75.00565707751056 403.60284820869236,77.55314550589578 403,80C396.5228866880032,106.28945991339878 394.14648940968413,112.2728984523517 391,144C388.2488162451076,171.74110286183193 393.40452377318934,173.2143919542564 391,201C388.9844671678512,224.29060161594128 384.94586564987923,224.4330748009659 382,248C376.98820259565997,288.09437923472035 380.3877383684701,326.52041586451093 375,329C354.4363030884418,338.4639741467967 288.55785595549434,332.8045094910366 206,329C182.32649597175091,327.9090551139056 179.87284130315885,325.83526290723716 158,319C149.81773907241245,316.4430434601289 149.90086572081245,311.2122424018275 142,309C127.24051041941845,304.86734291743715 108,305 108,305"/>
<path id="1" d="M165,323L167,397"/>
<path id="2" d="M199,331L199,402"/>
<path id="3" d="M167,395C167,395 156.10859616989614,388.29043219997856 145,386C109.01947783346085,378.58133563576513 95.50944591377245,374.4331234241384 70,375C64.7828481603224,375.11593670754837 61.51612550827319,381.15806821631315 55,388C51.95231826140102,391.20006582552895 51.06022009859379,392.0620396337945 50,396C47.89701198550533,403.8110983395516 46.5733368670513,408.2933474682052 48,414C48.99866419306409,417.99465677225635 51.991035805504865,421.3953386188625 57,424C74.39733197693662,433.04661262800704 77.43793976011008,433.25834090495414 98,440C107.47560379718429,443.1067553433391 108.098564610146,443.17488038417883 118,444C131.6347634876678,445.136230290639 132.437982963867,445.50689078179255 146,444C163.32924399061437,442.0745284454873 166.14035588388071,441.5994136549893 181,437C184.54118360742882,435.90391935960536 185.57372709509582,434.39678206686585 188,431C192.56895547027406,424.6034623416163 193.12427189103118,423.58146501455417 196,416C198.41385208381897,409.63620814265914 199,402 199,402"/>
<path id="4" d="M271,336C271,336 272.0468382405135,342.8498253369831 271,349C268.1524629202398,365.7292803435911 265.19978188500533,366.2266631268343 263,383C261.30540656473164,395.92127494392133 263,410 263,410"/>
<path id="5" d="M306,335C306,335 301.85755559487745,348.622132719912 301,362C299.39917590031797,386.97285595503996 300.84121189727125,411.75615986195816 301,413C301.01006916629734,413.078875135996 304.00152127558595,409.69732063358464 307,409C323.6123770939853,405.13665648977087 325.6189860415459,404.5755154821532 344,403C360.1691326138724,401.61407434738237 360.86844558235816,401.426189812913 377,403C401.3344438776105,405.37409208562053 403.12322246624285,404.13696673987283 426,411C451.63623318958,418.690869956874 464.76240541416814,427.24113195960853 477,433C477.1877291595142,433.08834313388905 477.25751153987704,434.7854070501025 477,435C475.6866911466271,436.0944240444774 472.80814089119553,436.04118070120483 471,438C467.7095093691757,441.56469818339303 468.75733936450183,444.99412850839854 465,448C455.55297531210965,455.55761975031225 452.99515733403086,458.59596886466693 441,462C418.7075505970934,468.3262356413654 415.7828431092033,467.3292465319638 391,469C371.88322542889813,470.2887713194001 370.90499984718815,470.59480390059445 352,468C320.70635295836194,463.70479354330456 319.5330828013402,463.26937659202963 289,455C272.23692635429085,450.4600008876204 269.93161879091616,449.14441989277753 256,442C252.63191633626204,440.2727776083395 251.1580238325433,438.30863952155226 250,435C248.30114086104913,430.1461167458546 248.37343451164332,428.05679972078115 249,422C249.7974469851812,414.2913458099149 249.95638209366086,411.15073799534315 253,406C254.87589321455061,402.8254114830682 262,400 262,400"/>
<path id="6" d="M185,95C185,95 187.61488569136912,98.66234265853234 188,102C188.99605480871025,110.63247500882212 186.81227529273215,111.83755225821937 188,121C190.2446376290374,138.3157759954314 191.74473307279518,149.83212582213824 195,156C195.6169350098938,157.16892949243038 202.0194474864101,157.74708287703848 207,157C210.61457819551674,156.4578132706725 211.62517275057496,155.47487331624504 215,153C218.7452351182644,150.25349424660612 219.5213546490219,149.81330053996632 222,146C225.62676246160433,140.42036544368565 227.02649649144567,139.03572175303685 228,133C229.24329662870795,125.29156090201068 229.45565857217255,122.16233750216997 227,115C224.21921529288247,106.88937793757388 222.2179807837995,105.29936874619942 216,98C211.23171698320993,92.40245037159425 210.20328121454486,91.6185807084845 204,88C199.01418519204805,85.0916080286947 193.11486377125254,83.91424124836518 192,84C191.86797665866746,84.01015564164096 191,89 191,89"/>
<path id="7" d="M302,94C302,94 294.3871047245335,99.24192504904975 290,105C287.158234764723,108.72981687130111 286.87318891377896,110.01034906412037 286,115C283.5089634025138,129.23449484277808 282.37923387052035,131.65352821618785 283,145C283.2750902863504,150.91444115653357 284.790427208829,152.38324761545078 288,158C290.4288658960213,162.25051531803726 291.52666398691474,164.0703688816193 295,166C298.6756662662747,168.04203681459705 300.9864223953234,168.20889906686153 306,168C312.0277746010425,167.74884272495657 315.71693018840494,167.65772318081505 319,165C323.1139701960111,161.6696431746577 325.65671748439246,157.5485022635869 327,151C329.1470499224875,140.53313162787342 328.196188068598,137.96188068597993 327,126C326.26314814974364,118.63148149743635 326.58026178925376,116.5195702584329 323,111C315.8834734941714,100.02868830351431 303,89 303,89"/>
<path id="8" d="M302,165C302,165 296.5134428649921,158.62135921282777 295,153C293.4739800474872,147.33192589066672 293.97271491105056,145.42053180593382 295,139C295.85411417395505,133.66178641278074 296.42931925463926,131.85602111804107 299,128C300.5047887289916,125.74281690651253 302.0722385886645,124.91492544104235 305,124C309.1644882143997,122.6985974330001 312.6898891681008,121.9893265110441 315,123C317.295012068292,124.00406777987776 320.28346153846155,127.4173076923077 321,131C322.71346153846156,139.56730769230768 322.68865421315183,144.83817130309936 321,153C320.3674163684274,156.0574875526007 317.53475505935733,158.38697405313624 315,160C313.78772584117695,160.77144719197832 311.3210893026852,160.81297803242168 310,160C306.58549226382894,157.89876447004858 303.32344537403526,155.6762371500979 302,152C299.88832613113493,146.13423925315263 300.25575826155056,139.96161158966282 301,135C301.15900713699807,133.9399524200127 304.9155597567619,131.93666981757144 305,132C305.5187043513196,132.3890282634897 307.59575186929186,136.50640598173388 309,141C310.0018111664198,144.20579573254352 310.6524220783921,145.55341720602973 310,148C309.0956525646051,151.39130288273105 305.0013562519939,156.00086306945064 305,156C304.76808090904467,155.85241512393753 300.9632146814048,148.19845383181757 299,141C298.173947920939,137.9711423767762 298.3655131662125,135.90346050136244 299,134C299.27192292876606,133.18423121370182 301.9899653303254,131.98662044043382 302,132C302.74256555592313,132.9900874078975 305.8986746930125,139.34580319453954 308,146C308.66101292769474,148.09320760436668 308.4453542633128,150.33196860503077 308,151C307.6734068735706,151.4898896896441 304.00873001644225,152.02328004384603 304,152C303.84940721637093,151.59841924365588 303.81394656265524,145.84652824962745 305,143C305.58777869461334,141.58933113292798 308.8712146617843,139.91950916361517 309,140C309.5454437853843,140.3409023658652 312.56286796564404,144.94007575950826 313,148C313.2914213562373,150.03994949366117 311.00047202522716,154.00165208829512 311,154C310.9988696237981,153.9960436832933 310.9754650788387,141.1349420663871 311,141C311.0030883117546,140.98301428534987 312.8114332400817,142.15144958036782 313,143C313.539986630675,145.42993983803757 313.68014903625254,148.46966466843176 313,150C312.6329354407526,150.82589525830667 309.0539383381116,152.0674229226395 309,152C308.31678105058625,151.14597631323278 306.0632626469083,145.8479445579956 305,140C304.1645793488578,135.40518641871776 304.37195048315004,134.3963466179498 305,130C305.26916407864996,128.1158514494501 306.99317346333475,125.98976019500209 307,126C307.02901278082743,126.04351917124111 309,131.53971890646613 309,136C309,139.1221967654737 307.00004370517553,143.00004370517556 307,143C306.99993881275423,142.99993881275424 307.9200263244475,135.0999670944406 308,135C308.00545275060585,134.99318406174268 310.50598092007715,136.68261578687245 311,138C311.5988110059671,139.59682934924552 310.99999449872035,143.00002200511855 311,143C311.00001017736735,142.99995929053068 311.99958441020896,134.00020779489552 312,134C312.0002266853406,133.9998866573297 312.99836257029653,142 313,142C313.00491228911045,142 315.9974155918115,134.00086146939617 316,134C316.0010641680776,133.99964527730745 315.99999353476124,141.0000193957163 316,141C316.0000095439239,140.99997136822833 317.0294625996261,131.2651633966349 317,131C316.99768271688333,130.97914445195008 315.0796465912275,131.60176704386248 315,132C313.896325807276,137.51837096362004 313,151 313,151"/>
<path id="9" d="M212,149C212,149 204.4260325267029,145.15891290291924 202,141C198.7847761694299,135.48818771902268 197.69975873781277,127.85229199077865 198,125C198.06998867260447,124.33510761025768 201.44141407932028,122.12183742479428 204,122C210.20804180754075,121.70437896154567 212.9933050136311,121.99776833787703 219,124C221.93944648269118,124.9798154942304 224.161683598747,126.72456976802759 225,129C226.6705137046866,133.5342514841494 226.70084790925188,142.29915209074812 226,143C225.1913293354786,143.8086706645214 214.54297941775596,144.77148970887796 211,143C208.04751715187004,141.52375857593503 205.68469116131393,135.93094604306583 204,132C203.6905669295546,131.27798950229402 204.7186614199065,129.0562677160187 205,129C206.54736219051418,128.69052756189717 212.96082057452207,129.06473851706988 214,130C214.86073447362818,130.77466102626536 215.00650995109896,137.98698009780207 215,138C214.99783001630035,138.00433996739932 212,134.44606844191594 212,134C212,133.77696577904203 214.84029530657455,131.96007382664362 215,132C215.11179328539782,132.02794832134944 216.04675444679663,134.8597366596101 216,135C215.98831138830084,135.03506583509747 214.3894541963595,135.32454516363293 214,135C212.40972869819862,133.6747739151655 209.9917658684425,130.00411706577876 210,130C210.04940478934492,129.97529760532754 219.18563250992267,131.5475736166237 220,132C220.04886204940465,132.02714558300258 219.175,134.975 219,135C218.3,135.1 213,133 213,133"/>
<path id="10" d="M245,191C245,191 236.88126018172363,187.87569557574707 229,187C219.41468356276857,185.93496484030763 216.00532106339685,185.59893578732064 209,187C206.89840368098095,187.4203192638038 204.9160804467519,189.80140692779545 204,192C203.0946969702687,194.1727272713551 203.47230088315513,195.83380529893068 204,199C204.40205646997705,201.41233881986233 204.48722872200287,202.37917363071736 206,204C210.67049773206878,209.00410471293085 212.34776489597502,212.50042742138112 218,214C232.57930280313965,217.86797829471052 251.3833932637936,217.8797151520502 255,217C255.291053299188,216.92920325154887 256.67870056546525,208.35740113093053 255,205C252.83167843627405,200.6633568725481 249.15408706382323,197.36228990425232 244,195C239.5487429903345,192.95984053723663 235.0576637647653,192.9321937461144 231,194C228.58552238790827,194.6353888452873 226.05514628982473,197.36213427543814 225,200C223.86948611804493,202.8262847048877 224.2285905276071,205.9143621104285 225,209C225.32142061349702,210.28568245398813 226.6886038969321,211.56286796564404 228,212C229.96709415460185,212.65569805153396 232.85169523976063,212.83513073471954 234,212C236.07042827982553,210.4942339783087 238.85216076459204,206.51326700193508 239,204C239.1562272771332,201.34413628873526 237.12926539048271,196.6729942353793 235,195C232.77457423704385,193.25145118624874 227.43641525640697,192.47791101648423 225,193C223.70906355817243,193.27662923753448 221.8218104155757,195.74002135716685 221,198C220.23606355735217,200.1008252172815 220.41354792388358,203.52017557408658 221,204C222.6073130975042,205.31507435250344 228.49153089403657,207.3898299006626 232,207C234.4851656167241,206.72387048703067 239.04025172270025,202.10465447902064 239,202C238.77995724923866,201.4278888480205 232.5245990318376,196.0089451024864 227,194C223.29447625913332,192.65253682150302 219.92324324324323,193.10054054054055 217,194C215.76324324324324,194.38054054054055 213.92141396789586,197.29272571106276 214,198C214.1166883507001,199.05019515630076 216.50134314577116,202.62533578644277 218,203C221.35413676898838,203.8385341922471 226.26518392449134,203.0670903072882 230,202C230.86856187802527,201.75183946342136 232.0625,199.3125 232,199C231.9375,198.6875 230.37160915328647,197.2743218306573 229,197C226.17609880205725,196.43521976041146 222,197 222,197"/>
<path id="11" d="M219,198C219,198 225.69124672652268,203.0424992725606 230,204C232.2902382264429,204.50894182809841 235.86640293418245,202.80971218986968 237,202C237.28820264385192,201.7941409686772 237.36002851085277,199.30859586644522 237,199C235.65989387627025,197.85133760823166 231.17107421409113,195.63966947258734 230,196C228.42868523172584,196.48348146716128 223.95222278727968,202.91400101710343 224,203C224.10568898571464,203.19024017428634 232.36996744234344,205.20231019674281 235,205C235.5409286820712,204.95839010137914 237.0243034473657,202.01988463875375 237,202C236.04244417379135,201.216545233102 230.16307983702183,197.9462357380069 224,196C221.51734593137638,195.21600397832938 219.58932122749113,195.40400453969082 218,196C217.17222852734838,196.31041430224437 215.99556275116757,198.99112550233514 216,199C216.00110931220811,199.0022186244162 218.7324884840242,198.4458525266263 219,198C219.38215930853684,197.36306781910525 219.52757314491237,195.23100400479552 219,194C218.43474305902245,192.68106713771908 216.94249223594997,191.31416407864998 216,191C215.3716718427,190.7905572809 213.019570575479,191.80429424520983 213,192C212.86752225829588,193.32477741704122 213.09803898165774,198.46405197554367 215,201C217.62651759675836,204.50202346234445 220.12942827528954,205.7079662471951 225,208C227.73700269485943,209.28800126816912 230.6297160825745,209.5481135669702 232,209C233.0380938768375,208.584762449265 235.2486943910252,204.64660541666552 235,204C234.28376015384742,202.1377764000033 231.2497511302804,198.83316742018692 227,196C222.96273642623362,193.3084909508224 220.46263373500582,192 217,192C214.22989301199533,192 209.4,195.2 209,196C208.775,196.45 210.28294545504974,200.81126993041906 212,202C214.89868347910954,204.00678087015277 221.69559226198052,205.13529232800866 222,205C222.0741506028509,204.9670441765107 222.11436354127727,199.85727256879548 221,198C220.12023930951793,196.5337321825299 217.7031950991729,195 216,195C212.93424882148878,195 207.38540994818538,197.29341509499346 207,198C206.68990004168992,198.56851659023513 208.45966779958505,205.14425988865835 210,206C213.33355476209206,207.85197486782891 221.52048024807846,208.5799199586536 225,208C225.9094199351613,207.84843001080645 228.09884692185724,203.88962229671512 228,203C227.90586007442167,202.15274066979512 225.8938504905872,199.6763751752097 224,199C220.3867326166429,197.70954736308676 217.28374223306972,197.72635481391086 214,198C213.28254371378307,198.0597880238514 212,200 212,200"/>
<path id="12" d="M211,196C211,196 208.20497286712924,203.069219820171 209,205C210.1382043125272,207.76421047328037 213.89160776670317,211.84451468438527 218,213C226.50208948279481,215.39121266703603 231.6401863812496,214.3599928314904 241,214C242.25424638107208,213.95175975457414 244,212 244,212"/>
<path id="13" d="M245,203L245,215"/>
<path id="14" d="M177,229C177,229 183.93783995830645,237.21178253416875 192,243C202.9585962490983,250.86771012755776 203.71945742165397,250.9961791839197 216,257C225.91821918611376,261.8489071576556 226.54186236306168,262.9083724726123 237,265C253.0111310724808,268.20222621449613 255.6029897054012,268.64154209560826 271,268C277.4580326081896,267.7309153079921 279.1977702810068,266.64711582336713 285,263C295.72445459727237,256.2589142531431 297.2742385010733,255.27112159260963 306,246C312.4919665552015,239.10228553509844 313.6296509150178,237.14501028870694 317,229C318.94132107294973,224.30847407370481 318,217 318,217"/>
<path id="15" d="M136,133C136,133 126.06309564792492,136.08642783373514 125,138C123.80933287432408,140.14320082621663 124.37148473436869,146.81238931694807 126,151C126.89196686748271,153.2936290878127 129.35522388434452,155.42504867050968 132,156C138.34421755350485,157.37917772902278 141.5012622078707,156.978096233756 149,156C151.81921855612023,155.63227584050605 154.57950346396078,154.1914068521111 155,153C156.15032385721074,149.74074907123628 156.2971445235317,144.44800699883314 155,139C154.24112633317193,135.81273059932212 152.1216169977251,132.9900879322717 150,132C147.43352782533253,130.8023129851552 140,132 140,132"/>
<path id="16" d="M148,60C148,60 145.46766848993212,65.84661506151963 146,67C146.8490350666905,68.83957597782944 150.89293406952868,72.67857938650296 154,73C161.45695823313116,73.77140947239287 174.45245544677,70.58665487846073 175,70C175.1324444052061,69.85809528013634 171.9096517179729,62.468173391969046 168,58C165.81598766099444,55.50398589827936 163.910580044574,54.2910580044574 161,54C155.96548316614223,53.49654831661422 148,56 148,56"/>
<path id="17" d="M307,181C307,181 312.4229770556481,189.1974843561237 318,193C321.79290422992653,195.586071065859 324.20982467325234,195.733879148514 329,196C331.95513303739653,196.16417405763315 335.18215060948216,194.93468501773466 336,194C336.60395031915163,193.3097710638267 336.8895443834022,189.52493322868952 336,188C334.50507124456015,185.43726499067455 332.72370143553144,183.78737668905506 329,182C321.1304771281482,178.22262902151115 311,176 311,176"/>
<path id="18" d="M248,93C248,93 247.5306390815761,101.53063908157612 249,103C251.8051435715365,105.80514357153649 257.6180888741138,107.89010241288936 264,109C267.04394677007036,109.52938204696876 271.7963209114155,107.52956563031978 272,107C272.3950139899821,105.97296362604649 269,96 269,96"/>
<path id="19" d="M253,84L248,84"/>
<path id="20" d="M251,89C251,89 260.4211211458811,86.26318986807786 262,87C263.286106616269,87.60018308759221 266,96 266,96"/>
<path id="21" d="M366,105C366,105 361.34787575470596,115.87360357631033 362,117C363.05615774509573,118.82427246880175 369.8569246791648,121.99993891016613 377,124C381.2117189391717,125.17928130296808 383.6321588548047,124.96224032719867 387,124C388.73203258895756,123.50513354601212 390.9172727047612,121.15818213334287 391,120C391.1888939907952,117.3554841288671 390.5103081334283,113.10096887070554 388,110C383.4891397908894,104.42776091815747 380.6298751686516,102.31493758432582 374,99C370.43006721687993,97.21503360843995 365.5198746303322,97.36671890402824 364,98C363.28631973880055,98.29736677549978 362,104 362,104"/>
<path id="22" d="M341,289C341,289 333.8490759156092,292.53456544585435 332,295C331.1298466279486,296.1602044960685 331.2463240786966,299.11581019674156 332,301C332.70343085988315,302.7585771497079 334.07715133531155,304.4616023738872 336,305C344.20215133531155,307.29660237388725 346.55405956792555,307.1295049639938 357,308C364.3736050108761,308.61446708423966 370.1971153846154,308.3605769230769 372,308C372.0721153846154,307.9855769230769 372.5376473694317,305.9925797589508 372,305C366.9744905607289,295.7221364198072 364.4514756504937,287.57753089563647 359,284C355.13244201225183,281.4619150705403 340,284 340,284"/>
<path id="23" d="M150,279C150,279 163.32501164443354,273.6684186011719 176,271C181.49410141648127,269.84334707021446 183.30505660377358,270.11969811320756 188,271C189.7850566037736,271.33469811320753 191.53011655109518,272.59034965328555 192,274C193.69880939219433,279.096428176583 194.29215304008878,282.5726331180467 194,289C193.86015845337215,292.07651402581297 192.2554879701336,295.56330853212745 191,296C186.2994530398198,297.63497285571486 179.47609483695376,298.324389818274 171,297C165.47385312992304,296.13653955155047 163.26461287466122,294.46499796066223 159,291C156.55179631269448,289.01083450406423 155.36579967442893,286.743497558217 155,284C154.62448882978978,281.18366622342324 157,276 157,276"/>
<path id="24" d="M346,223C346,223 340.3384034970595,225.89679450462074 339,228C338.150628549943,229.3347265643753 338.2448081367787,231.7344244103362 339,234C339.9230122772704,236.7690368318113 340.85246372340697,238.28197097872558 343,240C344.85469042069394,241.48375233655517 346.0914166738119,241.74707971076626 349,242C357.00884563760235,242.69642135979151 361.60361853352606,242.4884868296082 366,242C366.3160797132759,241.96488003185823 367.1775098170072,240.394466260016 367,240C364.4232445918309,234.2738768707353 362.3561418053612,228.9314776304674 357,222C355.0411283503361,219.46498962984674 352.8958138776725,218.72395346941812 350,218C348.2806105101319,217.570152627533 345,219 345,219"/>
<path id="25" d="M134,210C134,210 142.41988877825256,218.94371524320394 149,221C154.95555829222565,222.86111196632052 158.80770827040493,221.8646682261913 166,220C170.81543995629542,218.75155260392341 173.84641534348117,216.3689431221707 176,214C176.71353708499117,213.2151092065097 176.6759773727154,210.52094908860968 176,209C175.21887059152885,207.24245883093994 173.71328486698067,205.29539394258288 172,205C162.80369152282435,203.41442957290076 147,204 147,204"/>
<path id="26" d="M394,161C394,161 398.5968942159254,166.01897611913122 404,169C426.95673653712094,181.66578567565295 428.74584910368054,180.38757917487757 452,193C457.8458351558803,196.17062245742662 462.1412086338213,199.7118129507319 463,201C463.1120162651537,201.16802439773062 461.7832059203954,204.02734222523887 460,205C442.13665648165323,214.74364191909825 438.24452773366687,214.10687109415082 419,225C412.5041911436307,228.67687293756754 413.02797957877857,232.73950765795803 407,235C395.5659752434279,239.28775928371453 379,240 379,240"/>
<path id="27" d="M393,187C393,187 408.650067926278,189.94212671356146 412,191C412.1044134672329,191.03297267386301 412.3185373711834,192.23551030915982 412,193C410.0755033824335,197.61879188215957 410.02934126785686,199.2133234151789 407,203C404.70635589719404,205.86705512850742 403.2058168980896,207.05711267703245 400,208C396.21535505086643,209.11313086739224 390,208 390,208"/>
<path id="28" d="M109,137C109,137 89.44728551460642,138.9966329412107 72,145C43.797409187100904,154.70411726895452 42.99433404032156,156.073135811677 16,169C8.08534237757684,172.7901177346815 3.659595951542095,174.51193183177273 1,179C-1.4770746607499947,183.1800634900156 -2.3229533164103633,192.41878030386735 0,196C5.145053626429566,203.93195767407892 11.748573674695277,208.37039090361244 25,216C43.639973129785474,226.73210574139165 45.33838036210869,225.4598638830049 66,234C82.7943195129901,240.94165206536925 83.59035444719683,243.04952977432515 100,247C108.83911082146007,249.1279340866478 120,247 120,247"/>
<path id="29" d="M107,168C107,168 99.09834393376732,173.3735100755349 91,176C81.28904978872376,179.14949736581931 78.07010716229011,176.66064531215582 70,180C65.9710880529206,181.6671359781018 63.08050368413885,185.65890868436583 62,188C61.62324542592527,188.8163015771619 62.47921437520156,191.37782866688167 64,193C69.1291951527293,198.47114149624457 70.05993223396471,200.0610426192773 77,204C87.70252023470047,210.0744033764516 88.93769807527008,209.9792326917567 101,214C108.06085966325655,216.3536198877522 116,217 116,217"/>
</g>
</g>
</svg>
