<?xml version="1.0" encoding="utf-8"?>
<!DOCTYPE svg PUBLIC "-//W3C//DTD SVG 1.1//EN" "http://www.w3.org/Graphics/SVG/1.1/DTD/svg11.dtd">
<svg viewBox="0 0 800 800" preserveAspectRatio="xMinYMin meet" xmlns="http://www.w3.org/2000/svg" version="1.1">
<g fill="none" stroke="black" stroke-linecap="round" stroke-linejoin="round" stroke-width="2.1409">
<g transform="translate(87.52,113.4432) scale(1.4013) translate(-125,-72.4167)">
<path id="0" d="M221 80.4167 C221 80.4167 223.5692 75.5774 226 73.4167 C227.059 72.4754 228.0854 72.4167 230 72.4167 C239.5729 72.4167 240.9381 71.6628 250 73.4167 C255.3705 74.4561 255.7363 77.3639 261 78.4167 C267.141 79.6449 268.9292 79.7657 275 78.4167 C281.2153 77.0355 282.2307 72.8388 288 72.4167 C299.9259 71.544 302.0397 74.6819 316 75.4167 C330.3778 76.1734 336.3193 76.2567 345 75.4167 C345.6856 75.3503 346.2809 72.5194 347 72.4167 C352.6258 71.613 358.1849 70.1838 366 72.4167 C376.8707 75.5226 377.9038 81.2808 389 84.4167 C398.7891 87.1832 412 85.4167 412 85.4167 "/>
<path id="1" d="M221 79.4167 C221 79.4167 217.5247 102.434 219 115.4167 C219.3627 118.6087 224.1512 119.3492 226 123.4167 C228.5403 129.0053 229.1628 130.9063 229 137.4167 C228.6949 149.6192 225.2076 150.7525 225 163.4167 C224.7216 180.3978 228.3452 183.9198 228 198.4167 C227.9299 201.3615 224.5668 202.1577 224 205.4167 C222.8216 212.1924 224 221.4167 224 221.4167 "/>
<path id="2" d="M400 86.4167 C400 86.4167 394.2873 91.9919 394 96.4167 C392.1489 124.9234 390.7938 139.3813 395 163.4167 C395.9565 168.8821 405.44 170.7058 408 176.4167 C410.1756 181.2698 409.6515 186.0467 408 192.4167 C406.6773 197.5186 401.6577 198.437 401 203.4167 C398.6835 220.9559 402.1768 225.8031 401 245.4167 C400.7708 249.2367 398 253.4167 398 253.4167 "/>
<path id="3" d="M399 88.4167 C399 88.4167 403.02 84.6459 406 84.4167 C413.6854 83.8255 417.1754 87.4263 425 86.4167 C430.3331 85.7285 431.5635 81.5985 437 80.4167 C441.406 79.4588 448 81.4167 448 81.4167 "/>
<path id="4" d="M448 82.4167 C448 82.4167 444.0566 84.7261 443 86.4167 C442.4068 87.3658 443.6619 89.0928 443 90.4167 C440.766 94.8846 437.3436 96.1619 436 100.4167 C435.0444 103.4427 435.89 106.0866 437 109.4167 C437.4757 110.8438 439.78 111.1698 440 112.4167 C440.8728 117.3625 441.4207 120.7339 440 126.4167 C438.833 131.0847 435.6402 131.7694 434 136.4167 C433.0525 139.1013 433.014 140.7405 434 143.4167 C436.0535 148.9904 439.5428 149.796 441 155.4167 C442.5822 161.5196 442.1436 164.6988 441 170.4167 C440.5578 172.6276 437.7532 173.157 437 175.4167 C436.1675 177.9142 435.8705 179.8047 437 182.4167 C442.957 196.1923 449.7464 201.0292 453 212.4167 C454.0218 215.9929 451.8096 220.2023 449 224.4167 C446.829 227.6732 441.7144 227.8766 441 230.4167 C438.7243 238.5082 440 256.4167 440 256.4167 "/>
<path id="5" d="M223 219.4167 C223 219.4167 221.131 228.7233 222 232.4167 C222.3524 233.9144 226.3452 234.7142 227 236.4167 C227.995 239.0036 227.7714 242.331 227 245.4167 C226.6786 246.7024 224.2522 247.1557 224 248.4167 C223.1594 252.6199 224.2432 258.9572 224 260.4167 C223.9932 260.4572 222 260.4167 222 260.4167 "/>
<path id="6" d="M222 262.4167 C222 262.4167 223.6878 259.6666 225 259.4167 C231.6832 258.1437 234.3129 257.781 243 258.4167 C254.2873 259.2426 260.9989 262.9724 266 262.4167 C267.0594 262.299 268.0302 256.2192 270 255.4167 C277.0807 252.5319 281.8769 251.6227 293 251.4167 C307.917 251.1404 308.5421 253.3627 324 254.4167 C330.4399 254.8558 332.4252 255.2744 337 254.4167 C338.2537 254.1816 338.5903 251.8504 340 251.4167 C343.704 250.277 345.0548 250.3206 350 250.4167 C396.1084 251.312 443 253.4167 443 253.4167 "/>
<path id="7" d="M288 255.4167 C288 255.4167 279.592 260.8282 275 267.4167 C268.9016 276.1665 264.9881 288.4118 265 288.4167 C265.2281 288.51 281.4762 283.1907 297 276.4167 C308.7717 271.2799 312.6903 270.3206 320 264.4167 C322.2961 262.5621 323 255.4167 323 255.4167 "/>
<path id="8" d="M324 260.4167 C324 260.4167 336.5053 264.1806 344 268.4167 C345.7806 269.4231 345.1872 272.2718 347 273.4167 C353.0115 277.2134 355.4035 277.9996 363 280.4167 C365.5006 281.2123 368.976 280.5487 369 280.4167 C369.726 276.4237 369 247.4167 369 247.4167 "/>
<path id="9" d="M303 277.4167 C303 277.4167 308.5792 281.0615 314 282.4167 C319.8633 283.8825 323.1534 284.9553 327 283.4167 C332.0066 281.414 332.7304 276.132 339 272.4167 C345.0815 268.8128 354 267.4167 354 267.4167 "/>
<path id="10" d="M221 260.4167 L221 353.4167 "/>
<path id="11" d="M221 357.4167 C221 357.4167 259.6237 357.5487 298 355.4167 C340.4959 353.0558 340.6421 350.232 383 348.4167 C410.2904 347.2471 438 349.4167 438 349.4167 "/>
<path id="12" d="M438 350.4167 L439 254.4167 "/>
<path id="13" d="M401 252.4167 L401 350.4167 "/>
<path id="14" d="M323 286.4167 C323 286.4167 317.6054 294.6606 314 303.4167 C307.2193 319.8841 301.4803 328.9281 302 337.4167 C302.2487 341.4787 313.4102 350.6218 317 352.4167 C317.7977 352.8155 322.2584 350.376 324 348.4167 C325.0033 347.2879 323.9967 344.5454 325 343.4167 C326.7416 341.4574 329.3196 341.9631 332 339.4167 C338.7632 332.9917 341.3114 330.9426 345 324.4167 C346.3204 322.0806 346.0121 319.7422 345 316.4167 C342.8328 309.2958 342.3894 308.0007 338 301.4167 C331.7507 292.0428 323 283.4167 323 283.4167 "/>
<path id="15" d="M425 215.4167 C425 215.4167 420.8429 211.1253 420 207.4167 C418.7084 201.7338 419.0976 199.7332 420 193.4167 C420.4788 190.065 421.0449 187.6476 423 186.4167 C430.9963 181.382 435.6053 182.2406 447 176.4167 C457.8206 170.8862 468 163.4167 468 163.4167 "/>
<path id="16" d="M422 213.4167 C422 213.4167 428.3403 218.5677 434 219.4167 C446.2846 221.2594 449.6899 221.6051 462 219.4167 C470.0993 217.9768 471.486 215.9904 479 211.4167 C482.3163 209.3981 483.3769 208.46 485 205.4167 C486.776 202.0867 487 200.6862 487 196.4167 C487 187.4032 487.7842 184.8411 485 177.4167 C482.6388 171.12 479.9757 169.3924 475 164.4167 C473.4857 162.9023 470 162.4167 470 162.4167 "/>
<path id="17" d="M220 223.4167 C220 223.4167 213.6337 222.9737 210 220.4167 C201.5213 214.4502 200.3188 212.7335 193 204.4167 C189.8323 200.817 188.8405 199.4089 188 195.4167 C187.1815 191.529 187.3473 189.3832 189 185.4167 C191.8162 178.6577 193.0375 176.131 198 171.4167 C201.5049 168.087 206.7267 166.0577 209 166.4167 C211.0624 166.7423 214.4088 170.044 217 174.4167 C221.8284 182.5646 220.5448 187.0123 225 193.4167 C226.7348 195.9104 233 197.4167 233 197.4167 "/>
<path id="18" d="M249 357.4167 C249 357.4167 248.4146 378.5158 250 379.4167 C255.2501 382.3997 275.7822 382.7681 293 382.4167 C295.4386 382.3669 298.6979 379.9274 299 378.4167 C300.5107 370.8633 299 352.4167 299 352.4167 "/>
<path id="19" d="M351 354.4167 C351 354.4167 346.0712 379.7389 347 380.4167 C349.5887 382.3057 369.8751 382.1879 388 381.4167 C390.7117 381.3013 393.8595 379.372 394 378.4167 C395.1165 370.8247 393 347.4167 393 347.4167 "/>
<path id="20" d="M353 354.4167 L354 346.4167 "/>
<path id="21" d="M267 383.4167 L267 448.4167 "/>
<path id="22" d="M274 383.4167 L274 450.4167 "/>
<path id="23" d="M363 383.4167 L364 454.4167 "/>
<path id="24" d="M369 383.4167 L369 458.4167 "/>
<path id="25" d="M267 430.4167 L274 430.4167 "/>
<path id="26" d="M267 438.4167 L273 438.4167 "/>
<path id="27" d="M364 431.4167 L369 431.4167 "/>
<path id="28" d="M362 439.4167 L368 439.4167 "/>
<path id="29" d="M267 446.4167 L276 446.4167 "/>
<path id="30" d="M363 448.4167 L371 449.4167 "/>
<path id="31" d="M268 449.4167 C268 449.4167 265.7158 453.5588 264 454.4167 C262.4162 455.2086 260.0529 455.2965 258 454.4167 C254.3829 452.8665 253.6413 449.5091 250 448.4167 C245.5413 447.0791 242.5312 446.9063 238 448.4167 C232.4619 450.2627 228.3407 452.5712 226 456.4167 C223.5196 460.4916 222.9027 468.9782 224 471.4167 C224.7744 473.1375 229.8033 475.8864 235 476.4167 C252.1565 478.1673 263.0776 476.9255 273 476.4167 C273.2879 476.4019 273.6164 474.4934 274 474.4167 C277.8905 473.6386 286.2298 474.5968 288 473.4167 C288.8448 472.8534 289.4913 468.1018 289 464.4167 C288.6453 461.7567 288.0212 460.3115 286 458.4167 C280.9763 453.707 273 449.4167 273 449.4167 "/>
<path id="32" d="M365 457.4167 C365 457.4167 355.4408 459.9127 352 458.4167 C347.952 456.6567 346.8534 450.1599 342 447.4167 C337.7712 445.0265 333.4361 444.9238 329 445.4167 C327.1098 445.6267 324.3663 447.8051 324 449.4167 C322.7165 455.0641 323.2719 459.4079 324 467.4167 C324.1691 469.2773 324.9528 470.6687 326 471.4167 C327.232 472.2967 328.5395 472.3675 331 472.4167 C353.0564 472.8578 356.6618 473.577 376 472.4167 C378.226 472.2831 379.6886 470.9466 381 469.4167 C381.8743 468.3967 382.3783 466.2679 382 465.4167 C381.2315 463.6875 379.6571 461.935 377 460.4167 C373.3766 458.3462 368 457.4167 368 457.4167 "/>
<path id="33" d="M370 456.4167 C370 456.4167 374.667 455.6169 376 456.4167 C377.6884 457.4297 380 462.4167 380 462.4167 "/>
<path id="34" d="M275 475.4167 C275 475.4167 276.1005 480.817 277 481.4167 C278.0495 482.1163 280.9188 482.0769 284 481.4167 C287.3642 480.6958 289.7856 479.6311 291 478.4167 C291.4858 477.9309 291 474.4167 291 474.4167 "/>
<path id="35" d="M366 473.4167 C366 473.4167 367.6839 480.4595 369 481.4167 C370.194 482.285 376.5777 481.9797 377 481.4167 C377.8973 480.2202 378 469.4167 378 469.4167 "/>
<path id="36" d="M486 179.4167 C486 179.4167 488.7126 180.5891 489 180.4167 C489.5269 180.1005 489.6846 177.4929 491 176.4167 C494.2658 173.7447 496.926 174.2345 500 171.4167 C501.9236 169.6534 501.0367 167.38 503 165.4167 C506.2722 162.1445 508.7185 163.0263 512 159.4167 C518.0161 152.799 517.3253 150.1554 523 143.4167 C524.6197 141.4933 528.0118 140.4391 528 140.4167 C527.2339 138.9611 516.6175 130.618 513 124.4167 C511.916 122.5584 513.9841 116.4152 514 116.4167 C515.2759 116.5327 533.9572 126.7643 535 126.4167 C535.5312 126.2396 536.3528 111.8941 538 108.4167 C538.3259 107.7287 543.9317 107.263 544 107.4167 C544.8149 109.2501 544.6867 125.5898 546 126.4167 C548.2329 127.8226 568.3872 124.2076 571 124.4167 C571.0337 124.4194 571.6383 127.6365 571 128.4167 C568.7079 131.2181 566.0824 133.9878 562 135.4167 C558.078 136.7894 551.001 135.4085 551 135.4167 C550.995 135.4566 558.1732 139.2852 561 143.4167 C563.486 147.05 564.2795 153.9775 564 154.4167 C563.8044 154.7241 557.3233 155.8409 554 154.4167 C549.0626 152.3006 546.6391 146.2078 543 145.4167 C539.8738 144.7371 536.579 146.9061 531 149.4167 C526.8562 151.2814 525.7238 151.4834 523 154.4167 C520.0101 157.6366 521.2022 160.2145 518 163.4167 C511.5957 169.821 508.7228 168.6939 502 175.4167 C495.2772 182.1395 490 191.4167 490 191.4167 "/>
<path id="37" d="M194 176.4167 C194 176.4167 178.8044 163.8142 173 154.4167 C171.0083 151.1919 171.7041 147.6002 173 142.4167 C174.9168 134.7494 180.1917 126.7362 180 126.4167 C179.8603 126.1838 169.8537 125.9532 164 127.4167 C162.1989 127.867 160.0147 131.4437 160 131.4167 C159.8697 131.1778 159.6988 121.5131 158 116.4167 C157.5301 115.007 155.8106 113.8693 154 113.4167 C150.9506 112.6543 147.6979 112.3718 146 113.4167 C143.8939 114.7127 140.734 119.5546 141 121.4167 C141.5164 125.0313 149.1275 134.1935 149 134.4167 C148.8466 134.6852 139.9695 133.9016 133 135.4167 C129.618 136.1519 127.1703 137.5149 126 139.4167 C124.6455 141.6178 124.5894 148.1234 125 148.4167 C126.1885 149.2656 135.8818 149.9012 140 149.4167 C140.6511 149.3401 142 146.4167 142 146.4167 C142 146.4167 134.0475 155.782 131 164.4167 C128.7225 170.8695 129.6839 180.1269 130 180.4167 C130.1946 180.5951 138.2803 178.4706 143 175.4167 C145.2914 173.934 146.3507 172.1761 147 169.4167 C148.0289 165.0437 146.3772 159.3953 147 158.4167 C147.2522 158.0203 150.9727 157.5517 154 158.4167 C164.0705 161.294 167.2933 160.8507 175 166.4167 C183.0584 172.2367 190 184.4167 190 184.4167 "/>
<path id="38" d="M218 311.4167 L314 314.4167 "/>
<path id="39" d="M348 313.4167 C348 313.4167 366.2535 317.4532 380 315.4167 C390.1814 313.9083 402 305.4167 402 305.4167 "/>
<path id="40" d="M403 306.4167 C403 306.4167 413.068 308.2048 422 307.4167 C429.2512 306.7769 430.8356 306.0122 437 303.4167 C439.1002 302.5324 441 299.4167 441 299.4167 "/>
<path id="41" d="M351 315.4167 L343 315.4167 "/>
<path id="42" d="M222 325.4167 L239 325.4167 "/>
<path id="43" d="M252 325.4167 L264 325.4167 "/>
<path id="44" d="M277 325.4167 L298 325.4167 "/>
<path id="45" d="M354 326.4167 L367 326.4167 "/>
<path id="46" d="M380 324.4167 L398 324.4167 "/>
<path id="47" d="M415 321.4167 L421 319.4167 "/>
<path id="48" d="M433 317.4167 L438 313.4167 "/>
<path id="49" d="M274 162.4167 C274 162.4167 271.5256 157.7965 271 153.4167 C270.1016 145.9298 269.0893 141.5855 271 137.4167 C272.5574 134.0186 277.4287 130.3962 282 129.4167 C287.9581 128.1399 293.545 128.5073 299 131.4167 C305.1796 134.7125 308.6637 138.5356 312 145.4167 C315.3612 152.3491 315.8074 160.7028 315 164.4167 C314.7475 165.5784 310.5395 168.2085 307 168.4167 C295.8758 169.071 288.932 169.9652 281 166.4167 C275.4818 163.948 269 151.4167 269 151.4167 "/>
<path id="50" d="M315 148.4167 C315 148.4167 314.3849 139.8003 316 134.4167 C316.8471 131.5931 318.2266 130.9919 321 128.4167 C325.0664 124.6408 325.281 123.7762 330 121.4167 C336.6066 118.1134 338.3004 116.8489 345 116.4167 C351.9112 115.9708 355.0969 116.5832 361 119.4167 C365.5086 121.5808 368.8869 124.4097 370 128.4167 C372.6402 137.9212 371.7081 144.0874 371 155.4167 C370.8636 157.5984 369.8376 158.5791 368 160.4167 C365.2436 163.173 364.202 164.883 361 165.4167 C349.0778 167.4037 344.7556 167.9352 332 166.4167 C325.9429 165.6956 321.5269 163.4489 319 160.4167 C316.9485 157.9549 317 148.4167 317 148.4167 "/>
<path id="51" d="M317 160.4167 C317 160.4167 313.2973 167.0744 309 170.4167 C305.429 173.1941 303.8185 173.7028 299 174.4167 C291.2668 175.5623 289.752 175.8833 282 174.4167 C272.2761 172.577 271.6687 169.8339 262 167.4167 C258.4437 166.5276 257.2586 166.5477 254 167.4167 C250.7142 168.2929 247.4358 169.9641 247 171.4167 C245.8784 175.1554 246.5579 186.3628 248 187.4167 C251.0897 189.6745 261.4117 187.6721 273 190.4167 C279.4999 191.9561 279.4412 194.5125 286 196.4167 C294.3958 198.8542 304 199.4167 304 199.4167 "/>
<path id="52" d="M274 190.4167 C274 190.4167 273.1499 197.8869 272 200.4167 C271.7509 200.9648 269.3954 200.784 269 201.4167 C267.8653 203.2322 266.9807 208.4104 267 208.4167 C269.5448 209.2376 283.5342 210.5934 300 211.4167 C313.4111 212.0872 317.7506 214.9314 327 211.4167 C337.3525 207.4827 350 192.4167 350 192.4167 "/>
<path id="53" d="M285 212.4167 C285 212.4167 285.1875 217.0917 284 220.4167 C282.9445 223.3722 282.4076 224.3301 280 226.4167 C275.5338 230.2874 270.8324 231.401 269 233.4167 C268.6668 233.7832 269.3621 237.1165 270 237.4167 C273.9577 239.2791 278.0765 240.683 286 241.4167 C304.4374 243.1238 310.0827 245.835 324 242.4167 C332.362 240.3628 339.1879 234.8883 343 227.4167 C348.7213 216.203 349 193.4167 349 193.4167 "/>
<path id="54" d="M285 212.4167 C285 212.4167 284.4883 221.0877 285 221.4167 C286.2383 222.2127 297.6808 222.1705 299 221.4167 C299.4308 221.1705 299 213.4167 299 213.4167 "/>
<path id="55" d="M313 215.4167 C313 215.4167 313.5302 221.2508 314 221.4167 C316.4113 222.2677 328.6419 222.3504 330 221.4167 C330.6419 220.9754 330 210.4167 330 210.4167 "/>
<path id="56" d="M289 241.4167 C289 241.4167 289.0963 232.7597 291 230.4167 C293.1016 227.83 298.2077 225.8628 302 225.4167 C303.848 225.1993 305.1702 227.9922 308 228.4167 C314.1423 229.338 320.8415 227.4126 322 228.4167 C323.0151 229.2964 323 241.4167 323 241.4167 "/>
<path id="57" d="M312 228.4167 C312 228.4167 304.6198 231.897 303 234.4167 C301.9005 236.127 303 242.4167 303 242.4167 "/>
<path id="58" d="M325 150.4167 C325 150.4167 324.073 144.6527 325 143.4167 C326.556 141.342 331.3235 138.799 334 138.4167 C335.2595 138.2367 338.4116 140.0436 339 141.4167 C340.3077 144.4679 340.6261 151.5818 340 152.4167 C339.4808 153.109 331.769 153.7383 330 153.4167 C329.7216 153.366 329 150.4167 329 150.4167 "/>
<path id="59" d="M299 157.4167 C299 157.4167 296.391 155.72 296 154.4167 C295.2982 152.0773 295.4643 147.8929 296 147.4167 C296.8514 146.6598 304.4528 145.9242 305 146.4167 C305.6755 147.0246 306.5913 154.6428 306 156.4167 C305.7757 157.0895 301 158.4167 301 158.4167 "/>
<path id="60" d="M332 153.4167 C332 153.4167 328.1008 152.8872 326 151.4167 C323.8708 149.9262 322 146.4167 322 146.4167 "/>
<path id="61" d="M301 152.4167 C301 152.4167 299 152.4167 299 152.4167 C299 152.4167 301.9936 152.4295 302 152.4167 C302.0043 152.4081 300 150.4173 300 150.4167 C300 150.4163 302 151.4167 302 151.4167 "/>
<path id="62" d="M331 149.4167 C331 149.4167 333 149.4167 333 149.4167 C333 149.4181 331.0851 150.4734 331 150.4167 C330.8086 150.2891 329.9656 147.4373 330 147.4167 C330.2578 147.262 335.325 147.1917 336 147.4167 C336.075 147.4417 336.0862 149.3822 336 149.4167 C335.4612 149.6322 331.668 149.862 331 149.4167 C330.5101 149.0901 330 145.4167 330 145.4167 "/>
<path id="63" d="M272 135.4167 C272 135.4167 270.0866 135.5899 270 135.4167 C268.7873 132.9912 266 123.4167 266 123.4167 "/>
<path id="64" d="M281 131.4167 L281 117.4167 "/>
<path id="65" d="M297 130.4167 L297 120.4167 "/>
<path id="66" d="M329 122.4167 C329 122.4167 327.9269 118.5362 326 116.4167 C323.4911 113.6568 319 111.4167 319 111.4167 "/>
<path id="67" d="M346 117.4167 L346 106.4167 "/>
<path id="68" d="M361 119.4167 L365 106.4167 "/>
<path id="69" d="M347 191.4167 L358 198.4167 "/>
<path id="70" d="M335 190.4167 C335 190.4167 336.9389 190.5541 337 190.4167 C337.6794 188.888 338.0433 181.7994 339 181.4167 C342.9977 179.8176 351.9317 180.0438 362 180.4167 C363.7863 180.4828 365.8652 181.6886 366 182.4167 C367.239 189.1072 367.8099 199.8576 367 207.4167 C366.8884 208.4578 363 210.4167 363 210.4167 "/>
<path id="71" d="M358 188.4167 L359 188.4167 "/>
<path id="72" d="M347 186.4167 L349 185.4167 "/>
<path id="73" d="M353 174.4167 L354 174.4167 "/>
<path id="74" d="M370 179.4167 L371 179.4167 "/>
<path id="75" d="M364 178.4167 L364 176.4167 "/>
<path id="76" d="M364 199.4167 L364 196.4167 "/>
<path id="77" d="M372 189.4167 L373 188.4167 "/>
<path id="78" d="M234 91.4167 C234 91.4167 233.8139 97.5701 235 100.4167 C235.5878 101.8273 237.1957 103.0003 239 103.4167 C242.4607 104.2153 247.0163 104.1053 248 103.4167 C248.6449 102.9653 249.7093 98.2608 249 96.4167 C248.1093 94.1008 245.3159 91.3074 243 90.4167 C241.1559 89.7074 236 91.4167 236 91.4167 "/>
<path id="79" d="M294 88.4167 C294 88.4167 291.5703 99.7722 292 100.4167 C292.2685 100.8195 298.1278 101.2464 302 100.4167 C303.7978 100.0314 305.5422 98.6756 306 97.4167 C306.8222 95.1556 306.3119 89.5451 306 89.4167 C304.4292 88.7699 289 90.4167 289 90.4167 "/>
<path id="80" d="M406 113.4167 C406 113.4167 404.0705 112.7691 404 112.4167 C403.5469 110.1511 402.9343 104.66 404 103.4167 C405.81 101.305 413.6761 97.9519 416 98.4167 C418.0704 98.8308 422.2504 103.0426 424 107.4167 C426.4093 113.4399 426.2716 118.2556 426 123.4167 C425.946 124.442 424.3038 126.1796 423 126.4167 C415.9463 127.6992 406.1008 128.6171 404 127.4167 C402.9252 126.8025 401.3127 119.2277 402 114.4167 C402.4711 111.1192 407 106.4167 407 106.4167 "/>
<path id="81" d="M414 151.4167 C414 151.4167 415.6886 148.8538 417 148.4167 C418.9671 147.761 422.73 148.0567 423 148.4167 C423.48 149.0567 423.4494 155.6976 423 156.4167 C422.8244 156.6976 418.8662 156.8498 418 156.4167 C417.5669 156.2001 417 153.4167 417 153.4167 "/>
<path id="82" d="M414 219.4167 C414 219.4167 411.3583 221.6253 411 223.4167 C410.1433 227.7003 409.9155 229.6451 411 234.4167 C412.1965 239.6812 413.2704 243.2937 416 245.4167 C419.0875 247.8181 428.4692 248.8717 429 248.4167 C429.7053 247.8121 431.4789 237.6685 430 233.4167 C428.8766 230.1868 425.3425 228.2083 421 225.4167 C419.2674 224.3029 416 224.4167 416 224.4167 "/>
<path id="83" d="M375 235.4167 C375 235.4167 375.8941 230.3844 377 229.4167 C378.0487 228.499 382.6532 228.0698 383 228.4167 C383.763 229.1797 385.2712 237.0098 385 237.4167 C384.8113 237.6997 379.7125 238.1564 377 237.4167 C375.7054 237.0636 374 234.4167 374 234.4167 "/>
<path id="84" d="M353 224.4167 C353 224.4167 354.9 224.2417 355 224.4167 C355.7125 225.6635 357.0004 231.416 357 231.4167 C356.9998 231.4171 354 226.4167 354 226.4167 "/>
<path id="85" d="M385 175.4167 C385 175.4167 385.9377 187.5576 387 189.4167 C387.2405 189.8376 392.8105 189.7957 393 189.4167 C394.0739 187.2688 395.8691 174.8388 395 173.4167 C394.4152 172.4597 382 171.4167 382 171.4167 "/>
<path id="86" d="M374 91.4167 C374 91.4167 375.9988 99.4169 376 99.4167 C376.0141 99.4139 379.363 91.9897 379 90.4167 C378.7647 89.3971 375.149 87.133 373 86.4167 C372.2186 86.1562 370.3378 86.9662 370 87.4167 C369.6882 87.8325 370 90.4167 370 90.4167 "/>
<path id="87" d="M237 249.4167 C237 249.4167 235.5654 239.2998 236 237.4167 C236.071 237.109 238.6886 236.1253 240 236.4167 C241.9671 236.8538 244.4305 238.1638 245 239.4167 C245.8641 241.3176 245.6314 246.6049 245 247.4167 C244.4914 248.0706 239.6543 248.7843 238 248.4167 C237.3491 248.272 236 245.4167 236 245.4167 "/>
<path id="88" d="M239 213.4167 C239 213.4167 239.4034 207.8641 240 207.4167 C240.7593 206.8472 246.0496 206.5455 247 207.4167 C249.0479 209.2939 252.0763 217.9971 252 218.4167 C251.9904 218.4696 246.418 219.362 245 218.4167 C242.9067 217.0211 240 210.4167 240 210.4167 "/>
<path id="89" d="M241 162.4167 C241 162.4167 243.5494 155.2817 245 153.4167 C245.2795 153.0573 247.925 153.2667 248 153.4167 C248.3 154.0167 248.6237 158.5851 248 159.4167 C247.3243 160.3175 243.9536 161.4167 242 161.4167 C241.0232 161.4167 239 159.4167 239 159.4167 "/>
<path id="90" d="M249 130.4167 C249 130.4167 249.92 123.4967 250 123.4167 C250 123.4167 252.7649 125.163 253 126.4167 C253.8578 130.9914 253.5445 138.0011 253 139.4167 C252.9195 139.6261 249.359 140.2094 248 139.4167 C244.9876 137.6595 243.841 136.1099 241 132.4167 C239.0943 129.9392 238.1709 128.8086 238 126.4167 C237.784 123.3924 239.0675 119.4824 240 118.4167 C240.4184 117.9385 244.4023 117.7646 245 118.4167 C247.2821 120.9063 251 130.4167 251 130.4167 "/>
</g>
</g>
</svg>
