<?xml version="1.0" encoding="utf-8"?>
<!DOCTYPE svg PUBLIC "-//W3C//DTD SVG 1.1//EN" "http://www.w3.org/Graphics/SVG/1.1/DTD/svg11.dtd">
<svg viewBox="0 0 800 800" preserveAspectRatio="xMinYMin meet" xmlns="http://www.w3.org/2000/svg" version="1.1">
<g fill="none" stroke="black" stroke-linecap="round" stroke-linejoin="round" stroke-width="1.1665">
<g transform="translate(277.837,87.52) scale(2.5719) translate(-228.3611,-187.25)">
<path id="0" d="M253.3611 187.25 C253.3611 187.25 285.2977 185.1259 287.3611 187.25 C289.5477 189.5009 288.5 205.926 287.3611 222.25 C287.094 226.0788 285.8996 228.272 284.3611 230.25 C283.749 231.037 280.3611 231.25 280.3611 231.25 "/>
<path id="1" d="M255.3611 192.25 C255.3611 192.25 255.2431 207.248 257.3611 219.25 C257.9578 222.6312 258.8938 223.7827 261.3611 226.25 C264.7257 229.6146 269.9605 230.5676 270.3611 232.25 C271.0522 235.1524 266.8128 239.9099 266.3611 247.25 C264.8798 271.3218 266.3611 297.25 266.3611 297.25 "/>
<path id="2" d="M280.3611 231.25 C280.3611 231.25 278.7936 260.7782 280.3611 286.25 C280.6531 290.9952 284.3611 296.25 284.3611 296.25 "/>
<path id="3" d="M264.3611 290.25 C264.3611 290.25 250.1899 289.0456 242.3611 290.25 C240.7187 290.5027 240.1096 293.3757 238.3611 294.25 C237.1954 294.8328 235.6118 293.6247 234.3611 294.25 C231.7035 295.5788 229.0418 297.344 228.3611 299.25 C227.5375 301.5562 227.8025 305.983 229.3611 308.25 C231.5934 311.497 234.189 312.7764 239.3611 315.25 C245.1397 318.0137 245.9193 318.5067 252.3611 319.25 C271.1345 321.4162 274.2986 323.2744 291.3611 321.25 C300.6347 320.1497 304.4454 317.1487 311.3611 312.25 C313.8958 310.4546 315.4885 305.906 315.3611 304.25 C315.2719 303.0908 312.8216 300.2068 310.3611 299.25 C305.4796 297.3516 303.3823 299.1316 297.3611 297.25 C287.8598 294.2809 278.3611 289.25 278.3611 289.25 "/>
<path id="4" d="M229.3611 310.25 C229.3611 310.25 229.1908 324.228 231.3611 337.25 C233.108 347.7311 235.9958 348.147 237.3611 358.25 C238.3542 365.5988 235.2665 366.9525 236.3611 374.25 C238.0911 385.7833 241.714 386.4852 243.3611 398.25 C245.0754 410.4952 241.3138 418.4802 243.3611 424.25 C244.0622 426.2257 249.0955 428.6424 254.3611 429.25 C273.0618 431.4078 276.8732 431.9307 295.3611 430.25 C301.9346 429.6524 305.591 428.184 309.3611 424.25 C314.5309 418.8555 316.1221 414.982 318.3611 406.25 C320.7047 397.1101 317.7879 395.0039 319.3611 385.25 C320.1525 380.3433 322.9718 380.0188 323.3611 375.25 C324.8313 357.2398 324.8394 353.6199 323.3611 336.25 C323.045 332.5353 319.9199 332.0219 319.3611 328.25 C318.1255 319.9095 319.8536 314.175 319.3611 309.25 C319.33 308.9389 317.3611 308.25 317.3611 308.25 "/>
<path id="5" d="M270.3611 337.25 C270.3611 337.25 271.5029 344.8558 270.3611 351.25 C269.1465 358.052 265.9416 358.5741 265.3611 365.25 C264.0777 380.0095 263.8581 383.7965 266.3611 397.25 C267.3178 402.3923 270.1417 406.1037 273.3611 408.25 C275.9816 409.997 279.9888 409.7965 284.3611 409.25 C286.5221 408.9799 287.9019 408.1071 289.3611 406.25 C292.6706 402.0379 294.599 400.4896 295.3611 395.25 C298.2042 375.7039 297.7501 371.0862 297.3611 351.25 C297.2987 348.0649 296.2921 347.1465 294.3611 344.25 C292.5731 341.568 291.539 339.9306 289.3611 339.25 C285.7106 338.1092 283.1468 338.4055 278.3611 339.25 C275.5204 339.7513 272.3611 342.25 272.3611 342.25 "/>
<path id="6" d="M280.3611 290.25 L260.3611 290.25 "/>
</g>
</g>
</svg>
