<?xml version="1.0" encoding="utf-8"?>
<!DOCTYPE svg PUBLIC "-//W3C//DTD SVG 1.1//EN" "http://www.w3.org/Graphics/SVG/1.1/DTD/svg11.dtd">
<svg viewBox="0 0 800 800" preserveAspectRatio="xMinYMin meet" xmlns="http://www.w3.org/2000/svg" version="1.1">
<g fill="none" stroke="black" stroke-linecap="round" stroke-linejoin="round" stroke-width="2.6114">
<g transform="translate(87.52,356.3447) scale(1.1488) translate(-36,-154)">
<path id="0" d="M49 154 C49 154 43.8781 153.9622 43 155 C40.6546 157.7718 38.6921 161.1662 38 167 C35.4038 188.8826 35.5257 202.3797 36 214 C36.0219 214.5358 38.1356 215.895 40 216 C70.4235 217.714 74.0781 215.0071 107 218 C128.4282 219.948 128.4984 222.8838 150 226 C162.8008 227.8552 163.0245 227.7662 176 228 C218.3612 228.7633 261 228 261 228 "/>
<path id="1" d="M43 155 C43 155 57.3861 154.1092 71 156 C92.8925 159.0406 93.185 163.3347 115 165 C157.5083 168.2449 159.3195 162.5626 202 166 C232.8221 168.4823 257.5295 170.7382 264 177 C268.2237 181.0874 264 226 264 226 "/>
<path id="2" d="M269 208 C269 208 276.0179 211.2727 283 212 C323.0156 216.1683 324.0587 216.9131 365 218 C436.7576 219.9051 509 218 509 218 "/>
<path id="3" d="M267 193 C267 193 350.6913 194.7624 430 193 C438.3147 192.8152 438.7797 189.0814 447 189 C487.509 188.5989 531 192 531 192 "/>
<path id="4" d="M501 193 C501 193 500.825 191.1 501 191 C502.2468 190.2875 504.5905 189.1894 508 189 C521.9045 188.2275 523.6459 190.7805 537 189 C544.7361 187.9685 553 183 553 183 "/>
<path id="5" d="M494 216 C494 216 512.7943 213.9415 531 215 C555.3201 216.414 578.1889 222.6053 580 221 C581.4464 219.718 577.2085 184.4659 575 176 C574.8652 175.4833 570.9984 174.4785 568 175 C560.59 176.2887 552 180 552 180 "/>
<path id="6" d="M66 182 C66 182 66.6493 180.0453 67 180 C75.4347 178.9117 82.021 178.2416 97 178 C143.8838 177.2438 191 178 191 178 "/>
<path id="7" d="M104 189 L283 191 "/>
<path id="8" d="M146 202 L244 201 "/>
<path id="9" d="M160 218 C160 218 193.6077 224.6445 227 229 C239.2622 230.5994 252 230 252 230 "/>
</g>
</g>
</svg>
