<?xml version="1.0" encoding="utf-8"?>
<!DOCTYPE svg PUBLIC "-//W3C//DTD SVG 1.1//EN" "http://www.w3.org/Graphics/SVG/1.1/DTD/svg11.dtd">
<svg viewBox="0 0 800 800" preserveAspectRatio="xMinYMin meet" xmlns="http://www.w3.org/2000/svg" version="1.1">
<g fill="none" stroke="black" stroke-linecap="round" stroke-linejoin="round" stroke-width="2.381">
<g transform="translate(87.52,347.08) scale(1.26) translate(-64,-104)">
<path id="0" d="M72 133 C72 133 84.0995 130.0436 96 130 C219.4077 129.548 345 132 345 132 "/>
<path id="1" d="M65 137 C65 137 70.2947 136.1697 75 137 C86.7909 139.0807 87.263 142.5599 99 143 C164.8922 145.471 167.8928 141.3327 235 143 C247.3849 143.3077 247.6007 146.545 260 147 C301.4184 148.5199 324.319 148.1442 344 147 C344.5367 146.9688 346 144.0042 346 142 C346 139.1941 344 135 344 135 "/>
<path id="2" d="M335 146 L335 146 "/>
<path id="3" d="M328 153 C328 153 329.784 182.1845 333 184 C341.47 188.7814 361.535 187.0351 390 188 C420.3903 189.0302 421.1074 189.4582 451 188 C461.3865 187.4933 461.6135 184.5067 472 184 C501.8926 182.5418 505.7266 185.5811 533 184 C536.6805 183.7866 537.2 180.95 541 180 C544.3777 179.1556 549 180 549 180 "/>
<path id="4" d="M324 130 C324 130 320.1569 119.4804 321 114 C321.601 110.0932 325.7355 104.0934 328 104 C385.104 101.6452 421.979 103.5084 515 106 C533.4532 106.4943 541.7624 106.5875 552 110 C554.2256 110.7419 556.4271 115.2021 557 120 C560.1008 145.9695 560 157.1537 560 177 C560 178.0445 558.4184 179.6267 557 180 C550.8142 181.6278 541 182 541 182 "/>
<path id="5" d="M341 118 C341 118 354.7565 116.8777 368 118 C383.9039 119.3478 384.1887 122.7463 400 123 C476.3786 124.2253 555 121 555 121 "/>
<path id="6" d="M341 160 C341 160 432.9957 162.2074 499 161 C501.5374 160.9536 502.2705 157.2924 505 157 C526.3202 154.7157 555 155 555 155 "/>
<path id="7" d="M349 138 C349 138 383.5892 143.4755 418 145 C462.1863 146.9576 464.3227 147.3279 507 145 C517.2269 144.4422 517.7042 140.188 528 139 C542.7135 137.3023 559 139 559 139 "/>
<path id="8" d="M320 107 C320 107 328.0998 108.8947 334 112 C336.7074 113.4249 337.5751 114.2926 339 117 C342.1053 122.9002 343.0177 124.1239 344 131 C345.8788 144.1515 345.9445 145.7776 345 159 C344.5169 165.7634 343.7862 166.8704 341 173 C339.1105 177.1569 335 181 335 181 "/>
<path id="9" d="M315 110 C315 110 324.7142 113.3035 328 117 C330.4201 119.7226 331 128 331 128 "/>
<path id="10" d="M332 153 C332 153 327.5388 153.2155 327 153 C326.9138 152.9655 326.9694 151.0153 327 151 C327.0458 150.9771 328.6191 151.3651 329 152 C330.9739 155.2898 332.3384 156.6995 333 161 C334.1697 168.6032 333 178 333 178 C333 178 332.4147 170.3413 334 164 C335.7244 157.1024 340 150 340 150 "/>
<path id="11" d="M341 133 C341 133 336.5773 132.5773 335 131 C331.4511 127.4511 328 120 328 120 "/>
<path id="12" d="M336 177 C336 177 347.073 179.7572 358 180 C413.9555 181.2435 429.8492 180.7157 471 180 C471.741 179.9871 472.2004 178.0888 473 178 C478.7573 177.3603 481.6912 179.3289 489 178 C497.2639 176.4975 497.7826 172.7826 506 172 C527.5123 169.9512 552 172 552 172 "/>
<path id="13" d="M80 133 C80 133 76.4037 132.2343 75 133 C72.3967 134.42 69.9933 136.8147 69 139 C68.4826 140.1382 69.0548 143.1493 70 144 C72.1653 145.9488 74.6866 147.5411 79 148 C96.4386 149.8552 98.7016 149.9981 117 149 C125.3031 148.5471 134 145 134 145 "/>
<path id="14" d="M64 138 L85 138 "/>
<path id="15" d="M65 144 L86 142 "/>
</g>
</g>
</svg>
