<?xml version="1.0" encoding="utf-8"?>
<!DOCTYPE svg PUBLIC "-//W3C//DTD SVG 1.1//EN" "http://www.w3.org/Graphics/SVG/1.1/DTD/svg11.dtd">
<svg viewBox="0 0 800 800" preserveAspectRatio="xMinYMin meet" xmlns="http://www.w3.org/2000/svg" version="1.1">
<g fill="none" stroke="black" stroke-linecap="round" stroke-linejoin="round" stroke-width="1.6705">
<g transform="translate(364.9807,87.52) scale(1.7959) translate(-231,-1.1333)">
<path id="0" d="M234 347.1333 C234 347.1333 267.977 349.8577 269 348.1333 C272.1057 342.898 269 288.1333 269 288.1333 "/>
<path id="1" d="M231 287.1333 L232 349.1333 "/>
<path id="2" d="M270 289.1333 C270 289.1333 271.6071 281.8118 270 279.1333 C266.143 272.7049 255 264.1333 255 264.1333 "/>
<path id="3" d="M231 287.1333 C231 287.1333 232.0842 280.5927 235 276.1333 C240.0326 268.4365 246.9159 267.6382 248 261.1333 C252.3681 234.9246 247.9265 217.5391 249 192.1333 C249.0324 191.3663 250.9897 190.8631 251 190.1333 C251.3496 165.3112 250 121.1333 250 121.1333 "/>
<path id="4" d="M255 264.1333 L256 179.1333 "/>
<path id="5" d="M257 179.1333 L257 118.1333 "/>
<path id="6" d="M257 118.1333 L257 57.1333 "/>
<path id="7" d="M249 122.1333 L252 53.1333 "/>
<path id="8" d="M258 56.1333 L254 53.1333 "/>
<path id="9" d="M258 56.1333 C258 56.1333 263.9909 56.2156 264 56.1333 C264.7409 49.4656 267.0298 7.688 264 2.1333 C263.0258 0.34725 234.1671 0.44275 234 1.1333 C230.6628 14.9272 229.8354 110.6999 234 126.1333 C234.339 127.3896 267.299 128.5972 268 127.1333 C271.3028 120.2363 269.2541 89.8307 268 55.1333 C267.8065 49.7801 265 44.1333 265 44.1333 "/>
</g>
</g>
</svg>
