<?xml version="1.0" encoding="utf-8"?>
<!DOCTYPE svg PUBLIC "-//W3C//DTD SVG 1.1//EN" "http://www.w3.org/Graphics/SVG/1.1/DTD/svg11.dtd">
<svg viewBox="0 0 800 800" preserveAspectRatio="xMinYMin meet" xmlns="http://www.w3.org/2000/svg" version="1.1">
<g fill="none" stroke="black" stroke-linecap="round" stroke-linejoin="round" stroke-width="2.6738">
<g transform="translate(87.52,292.848) scale(1.122) translate(-82,-29)">
<path id="0" d="M106 136 C106 136 110.989 156.4702 114 177 C116.4589 193.7652 113.9402 196.3811 117 211 C117.9062 215.3297 120.5814 218.0212 123 220 C123.9049 220.7404 127.5763 220.4237 128 220 C128.5932 219.4068 129 214 129 214 "/>
<path id="1" d="M107 134 C107 134 134.7046 136.5597 161 134 C190.2516 131.1525 190.7487 125.8729 220 123 C245.8041 120.4657 247.9928 126.5387 273 123 C299.0087 119.3195 300.1848 113.8671 326 108 C331.9494 106.6479 338.8278 107.4402 339 108 C341.8918 117.3983 347.5391 153.5043 346 173 C345.7128 176.638 339.8478 180.5761 333 184 C322.2656 189.3672 320.6683 189.1848 308 192 C267.0513 201.0997 266.3888 202.9591 225 208 C189.2548 212.3536 186.347 206.7509 152 211 C140.2437 212.4544 128 220 128 220 "/>
<path id="2" d="M343 121 C343 121 360.9911 117.3746 368 114 C369.2078 113.4185 368.4744 109.6781 370 108 C372.3948 105.3657 374.5736 103.2391 378 103 C392.307 102.0018 396.9631 105.6973 413 105 C418.1326 104.7768 423.6739 100.625 424 101 C426.0406 103.3467 430.4274 114.8514 433 128 C434.6995 136.6862 434.3014 141.0138 433 147 C432.6516 148.6027 430.6912 149.8466 428 151 C414.086 156.9631 412.5544 159.5743 398 162 C381.5406 164.7432 379.5395 160.9476 362 162 C355.0914 162.4145 348 165 348 165 "/>
<path id="3" d="M431 117 C431 117 439.7208 110.2477 449 107 C468.7885 100.074 470.0326 100.4685 491 96 C500.1853 94.0425 501.9686 97.192 510 94 C538.6144 82.6276 539.7148 78.1989 569 65 C574.4255 62.5547 575.3875 64.1726 581 62 C590.588 58.2885 593.871 58.448 600 53 C604.8426 48.6954 603.1805 43.2785 608 38 C612.2934 33.2977 614.708 32.2651 621 30 C625.8973 28.237 631.2922 27.895 633 29 C634.9202 30.2425 636.9632 35.125 638 41 C639.7847 51.1135 639.32 55.3192 639 63 C638.9696 63.7287 637.78 64.94 637 65 C628.3088 65.6686 623.6009 63.6749 613 65 C609.2455 65.4693 606.7348 66.5063 605 69 C600.5448 75.4043 601.4578 80.6764 597 88 C595.5709 90.3478 594.1417 90.7916 591 92 C581.703 95.5758 580.6336 94.2073 571 98 C517.4421 119.0858 517.6681 120.6105 464 142 C448.7515 148.0773 446.2599 149.2114 433 153 C431.5575 153.4121 429 152 429 152 "/>
<path id="4" d="M109 141 C109 141 101.2618 148.002 96 156 C89.0979 166.4912 87.772 167.684 84 179 C81.2525 187.2425 81.1765 190.5888 82 198 C82.3752 201.3767 84.3864 204.9545 87 206 C101.0244 211.6097 127 216 127 216 "/>
</g>
</g>
</svg>
