<?xml version="1.0" encoding="utf-8"?>
<!DOCTYPE svg PUBLIC "-//W3C//DTD SVG 1.1//EN" "http://www.w3.org/Graphics/SVG/1.1/DTD/svg11.dtd">
<svg viewBox="0 0 800 800" preserveAspectRatio="xMinYMin meet" xmlns="http://www.w3.org/2000/svg" version="1.1">
<g fill="none" stroke="black" stroke-linecap="round" stroke-linejoin="round" stroke-width="0.99846">
<g transform="translate(87.52,254.2762) scale(3.0046) translate(-156,-179.1333)">
<path id="0" d="M163 202.1333 C163 202.1333 165.4703 238.7241 163 264.1333 C162.5744 268.5105 155.85 274.1239 156 274.1333 C160.6416 274.4265 281.8482 276.4891 353 276.1333 C354.089 276.1279 355.8119 274.4029 356 273.1333 C357.3186 264.2325 355.3861 260.6999 357 249.1333 C358.317 239.6951 361.4219 239.3823 362 230.1333 C363.3451 208.6124 361 185.1333 361 185.1333 "/>
<path id="1" d="M163 205.1333 C163 205.1333 165.01 197.1133 168 191.1333 C169.0873 188.9588 169.9523 188.0784 172 187.1333 C175.4758 185.5291 176.5481 185.3676 181 185.1333 C204.4949 183.8968 207.0893 186.3615 229 184.1333 C234.2422 183.6002 234.9029 179.3264 240 179.1333 C295.1196 177.0455 326.3641 177.7367 361 179.1333 C361.9165 179.1703 364 184.1333 364 184.1333 "/>
<path id="2" d="M165 202.1333 C165 202.1333 164.5236 260.3644 167 261.1333 C189.9101 268.2475 355 261.1333 355 261.1333 "/>
<path id="3" d="M264 227.1333 C264 227.1333 256.4199 225.6371 256 226.1333 C254.7963 227.5558 252.7873 239.708 253 240.1333 C253.0425 240.2184 261.0828 239.3257 262 238.1333 C263.2097 236.5607 263 227.1333 263 227.1333 "/>
</g>
</g>
</svg>
