<?xml version="1.0" encoding="utf-8"?>
<!DOCTYPE svg PUBLIC "-//W3C//DTD SVG 1.1//EN" "http://www.w3.org/Graphics/SVG/1.1/DTD/svg11.dtd">
<svg viewBox="0 0 800 800" preserveAspectRatio="xMinYMin meet" xmlns="http://www.w3.org/2000/svg" version="1.1">
<g fill="none" stroke="black" stroke-linecap="round" stroke-linejoin="round" stroke-width="1.6993">
<g transform="translate(138.7173,87.52) scale(1.7654) translate(-192,-28.1333)">
<path id="0" d="M202 201.1333 C202 201.1333 198.7594 200.5909 198 201.1333 C196.7524 202.0245 195.0911 203.9023 195 206.1333 C192.4735 268.0321 188.7066 289.5838 192 348.1333 C192.4336 355.8426 197.6207 360.2644 204 366.1333 C207.9312 369.7501 210.8783 371.0008 217 371.1333 C318.808 373.337 328.9172 374.1276 435 371.1333 C449.6947 370.7186 452.699 368.5754 465 364.1333 C468.0884 363.0181 469.2225 361.3328 471 358.1333 C473.7086 353.2579 474.1881 352.0873 475 346.1333 C477.0886 330.8168 474.503 329.6914 477 314.1333 C480.9219 289.6969 485.0341 289.1568 488 265.1333 C489.8774 249.9265 488.5187 247.9404 487 233.1333 C486.6543 229.7627 486.1181 228.8163 484 226.1333 C479.145 219.9836 478.4701 218.5955 472 214.1333 C464.8146 209.1779 463.6475 208.5807 455 206.1333 C437.9507 201.3081 436.7808 199.7187 419 199.1333 C317.3946 195.7883 310.804 196.786 212 198.1333 C205.7685 198.2183 204.4047 199.59 199 202.1333 C196.8638 203.1386 195 206.1333 195 206.1333 "/>
<path id="1" d="M204 203.1333 C204 203.1333 201.0744 178.9644 202 156.1333 C202.5366 142.8963 203.8351 142.3684 207 129.1333 C209.2938 119.5412 209.1228 119.1213 213 110.1333 C219.9866 93.937 220.0117 93.2105 229 78.1333 C235.2627 67.6282 235.7994 67.2712 244 58.1333 C253.0552 48.0432 253.4489 45.3779 264 39.1333 C275.7916 32.1546 278.8687 30.6724 293 29.1333 C326.8659 25.445 331.9373 25.6177 365 28.1333 C374.4736 28.8541 375.8009 31.0828 385 36.1333 C400.8322 44.8255 401.63 45.0992 416 56.1333 C429.2241 66.2876 430.2629 66.7857 441 79.1333 C449.6502 89.081 450.761 90.0337 456 102.1333 C471.2208 137.2861 472.14 139.3494 483 176.1333 C487.2635 190.5742 485.8128 191.6993 487 207.1333 C487.7964 217.4859 488.034 218.8275 487 228.1333 C486.6882 230.9399 484 234.1333 484 234.1333 "/>
<path id="2" d="M221 196.1333 C221 196.1333 220.5422 207.8482 223 217.1333 C224.6956 223.5391 225.6935 226.5958 230 230.1333 C237.1167 235.9792 240.244 236.604 251 240.1333 C271.6467 246.908 273.4416 244.1798 294 251.1333 C306.7867 255.4582 306.9468 256.7301 319 263.1333 C322.7096 265.1041 324.9855 265.8508 326 268.1333 C327.6815 271.9167 325.4239 275.8798 327 281.1333 C328.0073 284.4909 329.9144 287.3649 332 288.1333 C335.8526 289.5527 341.1401 289.2133 346 288.1333 C347.6971 287.7562 348.328 286.2831 350 284.1333 C351.7243 281.9164 352.8823 281.1336 353 279.1333 C353.2701 274.5419 350.377 270.6636 351 267.1333 C351.3146 265.3504 353.926 262.3836 356 262.1333 C375.7065 259.755 383.5898 263.9071 409 260.1333 C432.8052 256.5979 437.6787 256.2085 457 247.1333 C466.4469 242.6961 471.544 236.0453 475 229.1333 C476.664 225.8053 473.9771 217.0876 473 215.1333 C472.8371 214.8076 468 215.1333 468 215.1333 "/>
<path id="3" d="M330 268.1333 C330 268.1333 337.9564 264.2603 345 263.1333 C349.3867 262.4315 353.572 263.7049 355 264.1333 C355.0832 264.1583 355 266.1333 355 266.1333 "/>
<path id="4" d="M197 325.1333 C197 325.1333 203.7659 325.2355 207 323.1333 C211.9084 319.9428 217 312.1333 217 312.1333 "/>
<path id="5" d="M198 309.1333 L206 300.1333 "/>
<path id="6" d="M196 290.1333 L199 286.1333 "/>
<path id="7" d="M337 353.1333 C337 353.1333 342.3225 352.5512 345 354.1333 C351.5734 358.0176 359 366.1333 359 366.1333 "/>
<path id="8" d="M348 354.1333 L373 365.1333 "/>
<path id="9" d="M373 355.1333 L389 367.1333 "/>
<path id="10" d="M385 353.1333 L407 374.1333 "/>
<path id="11" d="M406 362.1333 C406 362.1333 414.9863 372.1997 424 379.1333 C426.9897 381.4331 432 382.1333 432 382.1333 "/>
<path id="12" d="M456 305.1333 C456 305.1333 458.3134 305.6615 459 305.1333 C463.049 302.0187 469 295.1333 469 295.1333 "/>
<path id="13" d="M455 318.1333 L482 301.1333 "/>
<path id="14" d="M468 319.1333 L480 308.1333 "/>
<path id="15" d="M470 287.1333 L478 282.1333 "/>
<path id="16" d="M485 265.1333 L484 265.1333 "/>
</g>
</g>
</svg>
