<?xml version="1.0" encoding="utf-8"?>
<!DOCTYPE svg PUBLIC "-//W3C//DTD SVG 1.1//EN" "http://www.w3.org/Graphics/SVG/1.1/DTD/svg11.dtd">
<svg viewBox="0 0 800 800" preserveAspectRatio="xMinYMin meet" xmlns="http://www.w3.org/2000/svg" version="1.1">
<g fill="none" stroke="black" stroke-linecap="round" stroke-linejoin="round" stroke-width="0.65284">
<g transform="translate(87.52,149.5565) scale(4.5953) translate(-173,-151)">
<path id="0" d="M190 260 L303 260 "/>
<path id="1" d="M190 260 C190 260 182.9896 259.2441 179 257 C176.3665 255.5187 174.6623 253.7597 174 251 C172.2301 243.6256 171.1579 237.9357 173 232 C174.2915 227.8385 177.6281 225.149 183 222 C190.8242 217.4134 202 215 202 215 "/>
<path id="2" d="M306 260 C306 260 308.7265 257.2789 309 255 C310.0204 246.4967 311.4154 240.7599 309 235 C307.0131 230.262 302.4217 227.7947 296 224 C292.6469 222.0186 290.6752 223.8376 287 222 C281.4873 219.2436 276 214 276 214 "/>
<path id="3" d="M308 259 L302 259 "/>
<path id="4" d="M204 213 L275 212 "/>
<path id="5" d="M203 214 C203 214 208.0153 202.551 211 202 C227.6542 198.9254 247.4817 199.7558 268 202 C270.7954 202.3057 275 209 275 209 "/>
<path id="6" d="M228 199 C228 199 232.2967 197.2659 233 196 C233.7303 194.6855 233.6237 190.8316 233 190 C232.3243 189.0991 227.2805 187.9065 227 188 C226.9299 188.0234 227 192 227 192 "/>
<path id="7" d="M245 198 C245 198 240.538 196.9863 240 196 C238.9137 194.0084 239 187 239 187 "/>
<path id="8" d="M238 188 C238 188 238.5541 185.2675 239 185 C239.6369 184.6178 242.275 184.5167 243 185 C243.8458 185.5639 245 189 245 189 "/>
<path id="9" d="M202 212 C202 212 199.1662 208.2414 199 205 C198.2576 190.524 197.1215 185.6653 200 173 C201.2545 167.4801 204.0691 164.5503 209 161 C214.6801 156.9103 217.5904 155.3833 225 155 C244.0096 154.0167 250.3687 153.6233 267 158 C274.0576 159.8573 277.5031 164.0042 282 170 C284.7562 173.6749 284.4631 176.0943 285 182 C285.9187 192.1053 285.7343 193.0863 285 203 C284.785 205.9024 284.1192 207.8808 283 209 C282.1606 209.8394 278 210 278 210 "/>
<path id="10" d="M223 213 C223 213 223.3747 220.8745 224 222 C224.1454 222.2617 227.7799 221.6919 228 222 C228.5942 222.8319 228.3461 228.4914 229 229 C229.8118 229.6314 236.5975 229.345 237 229 C237.2084 228.8213 235.8045 223.1466 236 223 C236.5027 222.623 244.299 223.5452 245 223 C245.424 222.6702 245 216 245 216 "/>
<path id="11" d="M203 227 L203 230 "/>
<path id="12" d="M192 236 C192 236 193.975 235.925 194 236 C194.225 236.675 194 242 194 242 "/>
<path id="13" d="M212 246 L212 251 "/>
<path id="14" d="M231 247 L231 253 "/>
<path id="15" d="M242 247 L243 251 "/>
<path id="16" d="M255 244 L256 250 "/>
<path id="17" d="M265 245 L269 252 "/>
<path id="18" d="M278 244 C278 244 280.7444 247.0978 283 248 C284.7088 248.6835 288 248 288 248 "/>
<path id="19" d="M271 227 L278 230 "/>
<path id="20" d="M254 229 L257 232 "/>
<path id="21" d="M242 235 L243 238 "/>
<path id="22" d="M225 230 L225 233 "/>
<path id="23" d="M200 212 C200 212 196.1171 209.5228 196 208 C195.0504 195.6548 193.4633 185.126 197 173 C198.6828 167.2305 204.5274 160.9698 210 160 C233.6648 155.8062 246.6189 158.5803 276 159 C277.7938 159.0256 279.4483 160.0069 280 161 C280.9873 162.7771 279.8019 165.2044 281 168 C282.4746 171.4407 285.6141 171.9128 286 175 C287.6701 188.361 287.3834 201.9476 286 208 C285.8395 208.7022 278.0006 210.0028 278 210 C277.9734 209.8802 283.2683 204.1222 284 199 C285.9131 185.6081 287.1083 176.7031 284 168 C282.3599 163.4078 276.0708 158.8384 269 157 C254.9377 153.3438 234 155 234 155 C234 155 252.0001 155 252 155 C251.9998 155 224.6884 148.0752 215 151 C209.0347 152.8008 202.4351 167.9084 199 171 C198.7777 171.2 195.0997 169.4984 195 169 C194.7294 167.6472 195.2968 162.7032 197 161 C200.0658 157.9342 203.429 155.4708 209 155 C235.2801 152.7791 240.0209 154.1391 268 155 C270.8745 155.0884 272.5429 155.5429 274 157 C276.1857 159.1857 277.9191 164.6765 278 165 C278.0045 165.018 276.6284 165.3491 276 165 C272.9276 163.2931 272.5964 161.1635 269 160 C256.922 156.0924 255.2412 155.0678 242 154 C225.1766 152.6433 221.1336 152.6992 207 155 C203.3918 155.5874 202.1267 157.6327 199 161 C196.0562 164.1702 194.0025 169.002 194 169 C193.9831 168.9865 193.3472 158.1192 194 157 C194.2222 156.6192 201.0012 156.9856 201 157 C200.974 157.3118 193.0001 168.9999 193 169 C193 169 194.1435 164.3615 196 163 C199.9305 160.1176 207.9987 157.9847 208 158 C208.0051 158.0616 198.7238 167.1645 197 175 C194.0708 188.3146 197 208 197 208 "/>
</g>
</g>
</svg>
