<?xml version="1.0" encoding="utf-8"?>
<!DOCTYPE svg PUBLIC "-//W3C//DTD SVG 1.1//EN" "http://www.w3.org/Graphics/SVG/1.1/DTD/svg11.dtd">
<svg viewBox="0 0 800 800" preserveAspectRatio="xMinYMin meet" xmlns="http://www.w3.org/2000/svg" version="1.1">
<g fill="none" stroke="black" stroke-linecap="round" stroke-linejoin="round" stroke-width="1.8289">
<g transform="translate(87.52,215.4646) scale(1.6403) translate(-74,-152.1333)">
<path id="0" d="M135 213.1333 C135 213.1333 131.8804 214.3726 131 216.1333 C119.555 239.0234 120.5823 243.833 107 269.1333 C95.3534 290.828 90.3462 290.441 80 311.1333 C75.8988 319.3357 76 331.1333 76 331.1333 "/>
<path id="1" d="M74 328.1333 C74 328.1333 72.1716 338.5054 74 345.1333 C75.528 350.6723 78.6203 356.3689 82 357.1333 C106.4725 362.6688 120.3431 359.2744 158 364.1333 C182.0726 367.2395 182.3169 372.4074 206 373.1333 C310.478 376.3357 312.9441 373.493 419 372.1333 C429.4684 371.9991 430.3517 371.9201 440 370.1333 C442.9597 369.5852 446 367.1333 446 367.1333 "/>
<path id="2" d="M396 215.1333 C396 215.1333 396.6388 222.9623 400 228.1333 C415.0284 251.254 421.5491 250.6771 435 275.1333 C447.9941 298.759 449.7977 303.6519 455 328.1333 C457.3956 339.4066 456.077 346.9794 452 355.1333 C448.9244 361.2845 442.6009 361.1659 435 368.1333 C430.9915 371.8078 430.9835 375.4551 428 377.1333 C425.7739 378.3855 419 377.1333 419 377.1333 "/>
<path id="3" d="M131 215.1333 C131 215.1333 179.5964 222.9422 228 225.1333 C300.539 228.417 301.2432 226.5539 374 226.1333 C387.4613 226.0555 401 224.1333 401 224.1333 "/>
<path id="4" d="M233 226.1333 C233 226.1333 228.042 238.324 227 250.1333 C225.1309 271.3164 224.9525 281.5927 227 294.1333 C227.2934 295.9307 231.2644 298.5276 235 299.1333 C247.3643 301.1383 252.5953 300.8245 264 300.1333 C265.648 300.0335 267.1101 298.8142 268 297.1333 C270.8946 291.6657 271.3679 290.2057 273 283.1333 C275.792 271.0348 276.1284 270.5543 277 258.1333 C278.1033 242.4111 275.7155 235.1246 277 226.1333 C277.1491 225.0897 279.8898 223.485 282 223.1333 C284.6217 222.6964 289 224.1333 289 224.1333 "/>
<path id="5" d="M232 226.1333 C232 226.1333 232.1257 223.1533 233 222.1333 C234.3114 220.6034 235.6691 219.6712 238 219.1333 C241.2758 218.3774 244.4954 218.381 246 219.1333 C246.8463 219.5565 248 224.1333 248 224.1333 "/>
<path id="6" d="M250 273.1333 C250 273.1333 246.4364 272.6424 246 273.1333 C244.4591 274.8668 241.7826 281.6551 242 282.1333 C242.1844 282.539 250.6908 284.4082 251 284.1333 C251.3806 283.795 251.8294 278.2803 251 274.1333 C250.5355 271.811 248 269.1333 248 269.1333 "/>
<path id="7" d="M134 214.1333 C134 214.1333 128.189 213.8564 126 215.1333 C124.0873 216.2491 124.1684 219.2059 122 221.1333 C120.4254 222.533 117.2889 223.358 117 223.1333 C116.0774 222.4158 113 214.9039 113 214.1333 C113 214.0477 115.8032 214.1125 117 213.1333 C120.3646 210.3805 121.1174 207.2298 124 205.1333 C124.8995 204.4791 126.8063 204.4312 128 205.1333 C133.635 208.448 141 215.1333 141 215.1333 "/>
<path id="8" d="M130 204.1333 C130 204.1333 143.2181 206.2326 145 208.1333 C146.1838 209.3961 145 220.1333 145 220.1333 "/>
<path id="9" d="M146 210.1333 C146 210.1333 161.8979 208.9496 175 211.1333 C181.289 212.1815 181.6726 216.2435 188 217.1333 C211.5027 220.4384 239 220.1333 239 220.1333 "/>
<path id="10" d="M277 223.1333 C277 223.1333 339.5668 224.8565 396 223.1333 C401.7487 222.9578 408 219.1333 408 219.1333 "/>
<path id="11" d="M134 214.1333 C134 214.1333 133.4783 209.5151 135 207.1333 C143.5767 193.709 144.9798 190.4398 157 178.1333 C164.984 169.9593 166.6292 169.9511 177 164.1333 C186.6988 158.6926 187.437 158.5592 198 155.1333 C205.4956 152.7023 206.0752 152.6286 214 152.1333 C229.6659 151.1542 230.2058 151.1143 246 152.1333 C260.9344 153.0968 262.1124 151.9202 276 156.1333 C305.3549 165.0387 305.9996 166.7998 335 179.1333 C349.3161 185.2218 350.1993 184.7935 363 193.1333 C382.619 205.9154 401 222.1333 401 222.1333 "/>
</g>
</g>
</svg>
