<?xml version="1.0" encoding="utf-8"?>
<!DOCTYPE svg PUBLIC "-//W3C//DTD SVG 1.1//EN" "http://www.w3.org/Graphics/SVG/1.1/DTD/svg11.dtd">
<svg viewBox="0 0 800 800" preserveAspectRatio="xMinYMin meet" xmlns="http://www.w3.org/2000/svg" version="1.1">
<g fill="none" stroke="black" stroke-linecap="round" stroke-linejoin="round" stroke-width="1.3921">
<g transform="translate(87.52,250.2251) scale(2.155) translate(-120,-197.1333)">
<path id="0" d="M123 216.1333 C123 216.1333 118.8392 264.6859 123 302.1333 C124.1289 312.2935 128.3819 316.0765 135 324.1333 C138.1236 327.9359 140.3869 327.4488 146 330.1333 C151.8242 332.9188 152.3851 334.9849 158 335.1333 C257.5165 337.7637 272.9396 338.71 373 336.1333 C381.4621 335.9154 383.7072 333.3875 391 329.1333 C394.3299 327.1909 395.5237 325.8241 397 322.1333 C401.9001 309.8832 404.0892 307.7956 405 294.1333 C407.9368 250.082 405 202.1333 405 202.1333 "/>
<path id="1" d="M123 219.1333 L125 206.1333 "/>
<path id="2" d="M125 206.1333 L410 207.1333 "/>
<path id="3" d="M126 208.1333 C126 208.1333 128.1764 203.5226 131 201.1333 C133.9429 198.6432 135.3815 197.1952 139 197.1333 C240.3555 195.4008 252.0568 196.6956 365 197.1333 C380.9939 197.1953 383.2735 195.8456 397 198.1333 C401.694 198.9157 407 204.1333 407 204.1333 "/>
<path id="4" d="M120 244.1333 C120 244.1333 121.6252 248.9564 124 251.1333 C126.6598 253.5715 128.1044 254.3542 132 255.1333 C139.6141 256.6562 141.1465 254.2553 149 256.1333 C163.3007 259.5531 163.4064 262.6587 178 266.1333 C194.3652 270.0298 197.8799 265.9988 212 271.1333 C222.4288 274.9256 222.3015 279.2311 233 286.1333 C237.6124 289.1091 239.1603 289.9519 243 291.1333 C243.8959 291.409 246 290.1333 246 290.1333 "/>
<path id="5" d="M406 245.1333 C406 245.1333 379.5376 254.976 354 259.1333 C338.0034 261.7374 335.5339 257.4449 320 259.1333 C314.2691 259.7563 313.9386 262.6487 308 264.1333 C302.5096 265.5059 301.4427 263.5252 296 265.1333 C280.2653 269.7822 277.7051 269.9545 264 277.1333 C258.5452 279.9906 259.1271 283.8007 254 287.1333 C250.2867 289.547 244 290.1333 244 290.1333 "/>
<path id="6" d="M241 283.1333 C241 283.1333 238.075 282.9833 238 283.1333 C237.7 283.7333 237.2448 286.8678 238 289.1333 C238.923 291.9024 240.7129 294.8116 242 295.1333 C244.6912 295.8061 252.3854 294.4995 254 293.1333 C255.0159 292.2737 255.4132 286.406 255 284.1333 C254.8807 283.4773 253.1086 282.1333 252 282.1333 C247.935 282.1333 244.6802 282.7179 241 284.1333 C240.0138 284.5126 239 286.1565 239 287.1333 C239 289.0869 239.9816 292.5392 241 293.1333 C242.9597 294.2765 250.3673 294.5762 251 294.1333 C251.381 293.8667 251.7634 287.2239 251 286.1333 C250.3416 285.1927 244.3412 283.9871 244 284.1333 C243.881 284.1843 243.6926 288.8772 244 289.1333 C244.4426 289.5022 249.4 289.4333 250 289.1333 C250.15 289.0583 250.1875 286.3208 250 286.1333 C249.8125 285.9458 247.3526 285.7807 247 286.1333 C246.1772 286.9561 244.9181 291.0309 245 291.1333 C245.1157 291.2779 250.9854 291.1431 251 291.1333 C251.0041 291.1306 248 289.1333 248 289.1333 "/>
</g>
</g>
</svg>
