<?xml version="1.0" encoding="utf-8"?>
<!DOCTYPE svg PUBLIC "-//W3C//DTD SVG 1.1//EN" "http://www.w3.org/Graphics/SVG/1.1/DTD/svg11.dtd">
<svg viewBox="0 0 800 800" preserveAspectRatio="xMinYMin meet" xmlns="http://www.w3.org/2000/svg" version="1.1">
<g fill="none" stroke="black" stroke-linecap="round" stroke-linejoin="round" stroke-width="1.2001">
<g transform="translate(87.52,117.5181) scale(2.4998) translate(-135,-107.8333)">
<path id="0" d="M143 230.8333 C143 230.8333 137.3423 260.9686 135 290.8333 C133.3773 311.5223 135 332.8333 135 332.8333 "/>
<path id="1" d="M135 332.8333 C135 332.8333 164.7482 334.5291 194 332.8333 C233.3976 330.5494 233.6325 327.9515 273 324.8333 C283.8759 323.9719 284.3667 323.77 295 324.8333 C303.8933 325.7227 304.112 328.0927 313 328.8333 C327.5439 330.0453 328.1765 327.8039 343 328.8333 C363.9245 330.2864 385 333.8333 385 333.8333 "/>
<path id="2" d="M385 333.8333 C385 333.8333 380.468 316.8623 378 299.8333 C375.5024 282.5999 378.6188 281.3442 375 264.8333 C370.8543 245.9184 362 226.8333 362 226.8333 "/>
<path id="3" d="M143 231.8333 C143 231.8333 150.7775 228.8333 158 228.8333 C176.7785 228.8333 179.3516 233.9233 197 231.8333 C214.5462 229.7555 216.3471 220.7686 234 219.8333 C287.3718 217.0057 291.3347 220.9167 348 223.8333 C358.9923 224.3991 369.5826 226.729 370 226.8333 C370.0275 226.8402 368 228.8333 368 228.8333 "/>
<path id="4" d="M365 242.8333 C365 242.8333 360.9678 242.5777 358 243.8333 C348.7122 247.7628 348.5266 250.9339 339 253.8333 C326.8051 257.5448 325.0526 258.0074 312 257.8333 C288.7172 257.5229 287.894 253.5209 264 252.8333 C218.8506 251.5341 216.8937 256.0465 173 253.8333 C159.3164 253.1434 145 246.8333 145 246.8333 "/>
<path id="5" d="M265 234.8333 C265 234.8333 252.718 235.3112 252 235.8333 C251.8383 235.9509 253.0916 242.3442 254 242.8333 C255.7321 243.766 260.1515 243.4798 265 242.8333 C266.8806 242.5826 268.5811 241.6711 269 240.8333 C269.6283 239.5767 269.4988 235.7062 269 234.8333 C268.7268 234.3553 265 233.8333 265 233.8333 "/>
<path id="6" d="M147 231.8333 C147 231.8333 146.5568 209.4807 148 187.8333 C148.5305 179.8752 149.2135 179.745 151 171.8333 C152.7036 164.2889 152.0881 163.749 155 156.8333 C159.896 145.2054 159.5987 142.356 167 133.8333 C174.3605 125.3576 177.1659 123.5609 188 118.8333 C202.9174 112.3239 205.1176 113.2098 222 109.8333 C229.6395 108.3054 230.0011 109.0358 238 108.8333 C269.4584 108.0369 271.3554 106.3131 301 107.8333 C308.1847 108.2018 309.4779 109.2758 316 112.8333 C325.2313 117.8686 325.4857 118.9564 334 125.8333 C338.3204 129.3228 339.1099 129.4981 342 133.8333 C345.6849 139.3607 345.911 140.1487 348 146.8333 C355.7765 171.7182 356.6578 172.4579 362 197.8333 C364.5173 209.7907 364 222.8333 364 222.8333 "/>
<path id="7" d="M157 228.8333 C157 228.8333 154.1116 200.5823 157 176.8333 C158.2828 166.2858 160.5468 164.9218 166 154.8333 C170.2518 146.9676 171.0823 145.4692 177 139.8333 C180.4548 136.5431 181.9372 135.9681 187 134.8333 C209.6689 129.7524 211.9322 132.1567 235 126.8333 C243.6148 124.8453 244.0718 120.5052 252 119.8333 C270.8505 118.2358 273.2261 119.9448 294 121.8333 C305.9987 122.9241 308.6558 122.0956 318 125.8333 C323.4751 128.0234 324.1914 130.3975 329 135.8333 C335.4865 143.1659 336.6273 143.6023 341 151.8333 C344.646 158.6963 344.8703 159.9256 346 167.8333 C347.7669 180.2019 345.2973 181.3466 347 193.8333 C348.2171 202.7586 350.5282 203.0024 352 211.8333 C352.9378 217.4601 352 223.8333 352 223.8333 "/>
</g>
</g>
</svg>
