<?xml version="1.0" encoding="utf-8"?>
<!DOCTYPE svg PUBLIC "-//W3C//DTD SVG 1.1//EN" "http://www.w3.org/Graphics/SVG/1.1/DTD/svg11.dtd">
<svg viewBox="0 0 800 800" preserveAspectRatio="xMinYMin meet" xmlns="http://www.w3.org/2000/svg" version="1.1">
<g fill="none" stroke="black" stroke-linecap="round" stroke-linejoin="round" stroke-width="1.0753">
<g transform="translate(87.52,273.055) scale(2.79) translate(-129,-124)">
<path id="0" d="M134 129 C134 129 135.8321 158.2517 134 185 C133.4326 193.2836 129 202 129 202 "/>
<path id="1" d="M129 202 C129 202 149.3984 200.3469 169 202 C190.361 203.8015 190.6316 207.9448 212 209 C270.6885 211.8982 271.7074 209.0878 331 210 C336.4878 210.0844 340.508 210.4575 342 211 C342.1432 211.0521 342 214 342 214 "/>
<path id="2" d="M342 215 C342 215 341.0004 124.0121 341 124 C341 123.9989 340.6341 128.9652 339 132 C337.6151 134.5719 335.8645 136.9547 334 137 C260.8235 138.7761 138.5409 137.2262 133 137 C132.8712 136.9947 138 129 138 129 "/>
<path id="3" d="M135 130 C135 130 326.1182 127.2736 353 129 C353.1188 129.0076 353 144 353 144 "/>
<path id="4" d="M217 173 C217 173 216.275 168.0875 217 167 C217.8458 165.7313 220.1531 164.7764 223 164 C225.0877 163.4306 227.875 163.75 228 164 C228.5 165 228.6198 172.2955 228 174 C227.8479 174.4184 224.7024 175.3512 224 175 C222.6955 174.3478 220.5759 171.9198 220 170 C219.5634 168.5447 220.5149 165.2205 221 165 C222.4821 164.3263 230.9855 164.971 231 165 C231.0072 165.0145 224 171 224 171 "/>
</g>
</g>
</svg>
