<?xml version="1.0" encoding="utf-8"?>
<!DOCTYPE svg PUBLIC "-//W3C//DTD SVG 1.1//EN" "http://www.w3.org/Graphics/SVG/1.1/DTD/svg11.dtd">
<svg viewBox="0 0 800 800" preserveAspectRatio="xMinYMin meet" xmlns="http://www.w3.org/2000/svg" version="1.1">
<g fill="none" stroke="black" stroke-linecap="round" stroke-linejoin="round" stroke-width="1.7089">
<g transform="translate(87.52,169.151) scale(1.7555) translate(-106,-26.4167)">
<path id="0" d="M112 127.4167 C112 127.4167 114.7031 180.9606 113 233.4167 C112.2254 257.2741 104.8963 277.1252 107 281.4167 C107.8495 283.1497 122.5445 284.0335 138 284.4167 C182.7635 285.5265 183.5798 282.611 228 284.4167 C244.3877 285.0828 244.6381 289.0465 261 289.4167 C353.8947 291.5184 413.9532 294.6288 449 289.4167 C451.1089 289.103 455.0306 274.6801 456 260.4167 C458.4336 224.6078 456.8059 217.4425 456 186.4167 C455.9668 185.1371 454 184.647 454 183.4167 C454 160.86 458.2261 129.462 456 128.4167 C445.1124 123.3042 397.3488 128.1926 339 129.4167 C326.015 129.6891 325.2309 129.087 313 131.4167 C305.0521 132.9305 304.6314 136.9927 297 137.4167 C254.0149 139.8047 250.2804 139.9677 205 137.4167 C180.1693 136.0178 180.0267 132.5099 155 129.4167 C135.6757 127.0283 134.8001 126.8003 116 126.4167 C111.2067 126.3188 106 128.4167 106 128.4167 "/>
<path id="1" d="M113 164.4167 C113 164.4167 113.0246 167.4412 114 168.4167 C117.7067 172.1234 119.1967 173.6762 125 176.4167 C136.4866 181.8409 137.4482 182.5029 150 185.4167 C164.794 188.851 165.7896 186.4121 181 189.4167 C206.0573 194.3663 206.3923 199.6378 231 201.4167 C287.1163 205.4733 292.8881 207.2491 347 201.4167 C371.6956 198.7549 372.4078 191.0611 398 183.4167 C410.4807 179.6887 412.0781 182.7011 424 178.4167 C443.0724 171.5625 462 160.4167 462 160.4167 "/>
<path id="2" d="M117 127.4167 C117 127.4167 115.8119 119.2087 118 113.4167 C123.6377 98.4935 124.7432 96.7647 134 82.4167 C144.413 66.2765 144.7035 64.2018 158 51.4167 C169.4337 40.4227 171.8954 40.7348 186 32.4167 C190.8061 29.5823 191.58 29.0942 197 28.4167 C214.556 26.2222 215.5551 26.4167 234 26.4167 C276.8718 26.4167 278.9757 25.905 320 28.4167 C325.8328 28.7738 326.6701 29.5467 332 32.4167 C345.6144 39.7475 346.5519 39.8731 359 49.4167 C376.1744 62.5837 374.6508 67.0231 392 78.4167 C406.6178 88.0164 410.3539 84.3465 426 93.4167 C444.137 103.9308 461 118.4167 461 118.4167 "/>
<path id="3" d="M246 222.4167 C246 222.4167 248.6404 219.7797 251 219.4167 C260.1393 218.0106 263.8694 216.439 272 218.4167 C279.2201 220.1729 284.8498 223.6914 288 228.4167 C290.7945 232.6084 291.2968 242.1026 290 245.4167 C289.176 247.5224 284.5777 249.4859 279 251.4167 C272.1592 253.7847 264 254.4167 264 254.4167 "/>
<path id="4" d="M310 217.4167 C310 217.4167 296.8043 216.6932 287 219.4167 C280.6642 221.1766 275.7642 224.3294 274 227.4167 C272.5789 229.9037 273.4394 234.9545 275 240.4167 C276.1075 244.2931 277.1627 246.1468 280 248.4167 C283.2853 251.0449 285.1888 251.7752 290 252.4167 C299.1352 253.6347 310 252.4167 310 252.4167 "/>
<path id="5" d="M300 179.4167 C300 179.4167 289.8208 178.0638 281 178.4167 C278.1714 178.5298 275.8662 179.5504 275 180.4167 C274.5669 180.8498 274.9249 184.4051 275 184.4167 C278.1749 184.9051 297.7927 184.7867 301 184.4167 C301.0427 184.4117 301.36 181.7253 301 181.4167 C299.6599 180.268 294 178.4167 294 178.4167 "/>
<path id="6" d="M288 176.4167 L288 173.4167 "/>
<path id="7" d="M288 186.4167 L290 189.4167 "/>
<path id="8" d="M460 118.4167 L460 127.4167 "/>
</g>
</g>
</svg>
