<?xml version="1.0" encoding="utf-8"?>
<!DOCTYPE svg PUBLIC "-//W3C//DTD SVG 1.1//EN" "http://www.w3.org/Graphics/SVG/1.1/DTD/svg11.dtd">
<svg viewBox="0 0 800 800" preserveAspectRatio="xMinYMin meet" xmlns="http://www.w3.org/2000/svg" version="1.1">
<g fill="none" stroke="black" stroke-linecap="round" stroke-linejoin="round" stroke-width="1.4353">
<g transform="translate(87.52,164.8562) scale(2.0902) translate(-128,-87)">
<path id="0" d="M129 200 L129 309 "/>
<path id="1" d="M132 198 C132 198 138.8029 192.7989 146 190 C156.2349 186.0198 157.5578 188.1065 168 184 C201.6096 170.7828 201.4928 167.946 235 155 C244.8253 151.2039 245.8248 151.1306 256 150 C263.0282 149.2191 265.3946 152.8217 271 151 C282.2872 147.3317 282.9883 142.3011 296 137 C349.6948 115.1243 352.8224 117.4426 406 96 C413.4089 93.0125 420 87 420 87 "/>
<path id="2" d="M128 312 C128 312 162.6189 302.0941 195 290 C203.3352 286.8869 202.7602 284.5917 211 281 C221.9545 276.2249 223.3869 278.3066 234 273 C257.7813 261.1094 258.3954 255.9323 281 246 C288.6338 242.6458 292.0628 246.8493 300 244 C309.7848 240.4875 309.5499 236.6879 320 232 C362.466 212.9498 364.9463 215.2582 407 196 C417.5467 191.1702 427 183 427 183 "/>
<path id="3" d="M422 88 C422 88 424.9644 89.8738 425 91 C426.0573 124.4801 425 183 425 183 "/>
<path id="4" d="M266 154 C266 154 270.8203 184.1072 273 214 C274.2968 231.7844 273 250 273 250 "/>
<path id="5" d="M285 144 L289 243 "/>
<path id="6" d="M131 218 C131 218 160.0901 211.3033 188 202 C213.8203 193.3932 214.1199 192.8174 239 182 C248.3142 177.9504 257 172 257 172 "/>
<path id="7" d="M130 240 C130 240 140.387 234.8157 151 232 C164.4606 228.4288 165.3007 230.3752 179 227 C199.5999 221.9247 199.9954 222.0605 220 215 C242.2678 207.1408 264 197 264 197 "/>
<path id="8" d="M136 260 C136 260 140.9122 256.272 146 255 C163.977 250.5058 165.4168 252.6947 184 248 C212.6421 240.7641 213.6194 241.0173 241 231 C253.8875 226.2851 266 218 266 218 "/>
<path id="9" d="M291 154 C291 154 320.3432 147.7863 348 138 C384.9052 124.9413 421 108 421 108 "/>
<path id="10" d="M290 184 C290 184 290.4332 181.2015 291 181 C304.3349 176.2587 314.055 175.7699 335 168 C344.3135 164.545 343.6435 161.7201 353 158 C384.5681 145.4488 418 135 418 135 "/>
<path id="11" d="M290 186 C290 186 311.2513 184.6909 329 188 C338.7721 189.8219 339.5191 193.9526 349 197 C352.3131 198.0649 357 197 357 197 "/>
<path id="12" d="M425 136 C425 136 417.6737 143.8211 413 152 C410.0789 157.1118 411.8325 158.6682 409 164 C403.6044 174.1564 403.0155 179.4789 396 184 C385.7567 190.6012 364 193 364 193 "/>
<path id="13" d="M370 177 C370 177 371.1327 181.3805 372 182 C372.7783 182.556 376.1283 182.678 377 182 C378.6465 180.7194 380.6073 176.9635 381 175 C381.1309 174.3455 379.4664 172.0583 379 172 C377.8709 171.8589 373 174 373 174 "/>
<path id="14" d="M130 197 C130 197 129.8685 193.0744 131 191 C132.3358 188.5511 133.2125 187.8179 136 186 C144.2743 180.6037 144.7486 180.2052 154 176 C166.5341 170.3027 166.9747 169.6028 180 166 C189.8846 163.266 191.2387 165.5839 201 163 C207.5339 161.2704 207.4194 159.1152 214 157 C221.0372 154.738 222.5361 156.9671 229 154 C251.6853 143.5871 252.0025 138.14 275 129 C289.1369 123.3815 291.8923 127.8878 307 123 C342.0462 111.6615 341.8107 107.9575 377 96 C392.8751 90.6055 393.7986 91.0142 410 88 C414.6976 87.126 420 88 420 88 "/>
</g>
</g>
</svg>
