<?xml version="1.0" encoding="utf-8"?>
<!DOCTYPE svg PUBLIC "-//W3C//DTD SVG 1.1//EN" "http://www.w3.org/Graphics/SVG/1.1/DTD/svg11.dtd">
<svg viewBox="0 0 800 800" preserveAspectRatio="xMinYMin meet" xmlns="http://www.w3.org/2000/svg" version="1.1">
<g fill="none" stroke="black" stroke-linecap="round" stroke-linejoin="round" stroke-width="1.7137">
<g transform="translate(87.52,154.9176) scale(1.7506) translate(-94,-81)">
<path id="0" d="M213 82 C213 82 192.5859 88.7104 175 99 C146.3054 115.7894 147.4236 119.1036 119 137 C107.1985 144.4306 94 150 94 150 "/>
<path id="1" d="M95 149 C95 149 117.6977 147.231 140 148 C160.8999 148.7207 161.0672 151.6526 182 152 C281.025 153.6436 381 152 381 152 "/>
<path id="2" d="M211 81 L450 81 "/>
<path id="3" d="M451 83 C451 83 425.228 111.2515 399 139 C390.7516 147.7265 386.8849 152.0921 382 156 C381.6488 156.281 379 155 379 155 "/>
<path id="4" d="M94 152 C94 152 93.8279 157.9139 94 158 C94.4016 158.2008 98.1192 156.0277 102 156 C165.9162 155.5435 168.0953 155.4081 234 157 C271.4872 157.9055 271.5266 159.9663 309 161 C343.9238 161.9634 370.3366 161.8663 379 161 C379.0866 160.9913 379 154 379 154 "/>
<path id="5" d="M451 86 C451 86 451.5431 95.2526 450 99 C449.2555 100.808 444 103 444 103 "/>
<path id="6" d="M381 161 C381 161 405.1362 144.2198 427 126 C434.7081 119.5766 434.8811 118.8672 441 111 C445.123 105.6989 448 99 448 99 "/>
<path id="7" d="M106 160 L105 200 "/>
<path id="8" d="M105 204 C105 204 200.057 204.7565 295 204 C325.4896 203.7571 326.4022 204.5898 356 202 C365.4043 201.1771 375 197 375 197 "/>
<path id="9" d="M371 163 L373 200 "/>
<path id="10" d="M440 109 L441 126 "/>
<path id="11" d="M376 196 C376 196 377.031 192.7065 379 191 C398.1887 174.3698 401.201 174.8515 421 157 C431.3373 147.6795 431.6619 146.3234 440 136 C441.5176 134.121 441.7924 133.3872 442 131 C442.7222 122.695 442.4906 117.6608 442 113 C441.967 112.6866 440 112 440 112 "/>
<path id="12" d="M117 205 L120 341 "/>
<path id="13" d="M135 205 C135 205 135.0834 293.0797 134 344 C133.9841 344.7481 132.6251 346 132 346 C128.2495 346 120.836 345.1844 120 344 C118.8023 342.3033 120 329 120 329 "/>
<path id="14" d="M196 201 L196 292 "/>
<path id="15" d="M209 206 C209 206 209.6305 286.461 208 298 C207.97 298.2123 196.8695 298.8695 196 298 C194.9856 296.9856 195 285 195 285 "/>
<path id="16" d="M344 208 C344 208 345.2931 353.5274 346 361 C346.0178 361.1885 357.7138 357.673 358 356 C360.8878 339.1174 358.771 320.4982 359 285 C359.2709 243.0059 361.044 212.5827 359 201 C358.9113 200.4971 349.1195 199.6989 344 200 C343.2744 200.0427 342 201.3274 342 202 C342 209.3981 344 224 344 224 "/>
<path id="17" d="M430 150 C430 150 434.0673 254.9494 433 265 C432.9962 265.0357 418.0792 263.6113 418 263 C415.873 246.5919 419 157 419 157 "/>
</g>
</g>
</svg>
