<?xml version="1.0" encoding="utf-8"?>
<!DOCTYPE svg PUBLIC "-//W3C//DTD SVG 1.1//EN" "http://www.w3.org/Graphics/SVG/1.1/DTD/svg11.dtd">
<svg viewBox="0 0 800 800" preserveAspectRatio="xMinYMin meet" xmlns="http://www.w3.org/2000/svg" version="1.1">
<g fill="none" stroke="black" stroke-linecap="round" stroke-linejoin="round" stroke-width="2.0737">
<g transform="translate(87.52,336.3467) scale(1.4467) translate(-88,-248.1333)">
<path id="0" d="M88 248.1333 C88 248.1333 285.8082 247.2183 483 248.1333 C500.9765 248.2167 519 250.1333 519 250.1333 "/>
<path id="1" d="M88 251.1333 L92 270.1333 "/>
<path id="2" d="M94 274.1333 C94 274.1333 152.0309 273.7416 210 274.1333 C225.9948 274.2414 226.3976 273.4312 242 275.1333 C253.4412 276.3815 253.6169 279.3989 265 280.1333 C299.1966 282.3396 300.0259 281.4361 335 281.1333 C415.4633 280.4367 418.1193 281.614 496 278.1333 C504.8079 277.7397 512.3605 274.2605 514 273.1333 C514.1625 273.0216 512 269.8368 512 267.1333 C512 260.3748 514 252.1333 514 252.1333 "/>
<path id="3" d="M96 273.1333 C96 273.1333 99.0235 286.7058 100 300.1333 C101.0019 313.9097 98.914 315.101 100 328.1333 C100.32 331.9732 101.6886 335.3263 103 336.1333 C104.6551 337.1519 112.9741 336.2564 113 336.1333 C113.2183 335.0964 108.1084 326.4753 107 317.1333 C104.7442 298.1201 106 277.1333 106 277.1333 "/>
<path id="4" d="M130 275.1333 C130 275.1333 131.9757 275.0459 132 275.1333 C132.8231 278.0965 133.784 290.3972 135 293.1333 C135.1398 293.4478 139.9922 293.188 140 293.1333 C140.1484 292.0945 137 279.1333 137 279.1333 "/>
<path id="5" d="M458 284.1333 C458 284.1333 457.1316 290.9393 458 292.1333 C458.9572 293.4494 465.9573 295.1903 466 295.1333 C466.1352 294.953 464 284.1333 464 284.1333 "/>
<path id="6" d="M491 280.1333 C491 280.1333 498.3842 290.5119 502 301.1333 C506.048 313.0242 504.5641 323.6148 507 327.1333 C507.7441 328.2082 519.7265 327.498 520 327.1333 C520.2525 326.7967 516.8517 321.0955 516 315.1333 C513.9481 300.77 515.8928 298.3833 514 285.1333 C513.6607 282.7583 511 280.1333 511 280.1333 "/>
<path id="7" d="M467 281.1333 L466 281.1333 "/>
<path id="8" d="M140 280.1333 L142 280.1333 "/>
<path id="9" d="M138 282.1333 L138 276.1333 "/>
</g>
</g>
</svg>
