<?xml version="1.0" encoding="utf-8"?>
<!DOCTYPE svg PUBLIC "-//W3C//DTD SVG 1.1//EN" "http://www.w3.org/Graphics/SVG/1.1/DTD/svg11.dtd">
<svg viewBox="0 0 800 800" preserveAspectRatio="xMinYMin meet" xmlns="http://www.w3.org/2000/svg" version="1.1">
<g fill="none" stroke="black" stroke-linecap="round" stroke-linejoin="round" stroke-width="1.2001">
<g transform="translate(87.52,217.5117) scale(2.4998) translate(-146,-217)">
<path id="0" d="M146 223 L146 362 "/>
<path id="1" d="M149 221 C149 221 236.4085 221.7739 322 220 C331.9245 219.7943 332.0626 217.4658 342 217 C363.7096 215.9824 381.0575 213.0833 386 217 C390.7496 220.7639 393.6575 238.2656 395 259 C398.0581 306.2314 395 356 395 356 "/>
<path id="2" d="M154 264 L392 264 "/>
<path id="3" d="M149 265 L164 265 "/>
<path id="4" d="M264 225 L264 266 "/>
<path id="5" d="M316 243 L336 242 "/>
<path id="6" d="M186 242 L207 242 "/>
<path id="7" d="M166 267 C166 267 168.3135 284.8541 166 297 C164.9571 302.4753 158.7434 303.5482 158 309 C154.9256 331.5455 158.0179 356.1293 157 363 C156.9805 363.1316 150 363 150 363 "/>
<path id="8" d="M371 269 C371 269 370.5082 296.1885 371 300 C371.0082 300.0635 373.8343 299.4172 375 300 C376.7485 300.8743 377.772 301.7896 379 304 C382.4208 310.1574 384.2726 311.3325 385 318 C387.035 336.654 383.9162 355.059 385 359 C385.0535 359.1946 396 358 396 358 "/>
<path id="9" d="M372 272 L371 267 "/>
</g>
</g>
</svg>
