<?xml version="1.0" encoding="utf-8"?>
<!DOCTYPE svg PUBLIC "-//W3C//DTD SVG 1.1//EN" "http://www.w3.org/Graphics/SVG/1.1/DTD/svg11.dtd">
<svg viewBox="0 0 800 800" preserveAspectRatio="xMinYMin meet" xmlns="http://www.w3.org/2000/svg" version="1.1">
<g fill="none" stroke="black" stroke-linecap="round" stroke-linejoin="round" stroke-width="1.6561">
<g transform="translate(87.52,240.5899) scale(1.8115) translate(-153,-156)">
<path id="0" d="M153 159 C153 159 326.4601 160.3954 486 159 C490.8036 158.958 496 156 496 156 "/>
<path id="1" d="M154 163 L154 175 "/>
<path id="2" d="M496 158 L496 170 "/>
<path id="3" d="M157 175 L498 173 "/>
<path id="4" d="M177 176 C177 176 175.9057 218.5974 177 261 C177.9025 295.9713 178.8485 321.5872 181 331 C181.0832 331.3641 191.5405 331.2432 193 331 C193.0405 330.9932 193 329 193 329 "/>
<path id="5" d="M189 178 C189 178 189.7606 322.8414 190 332 C190.0014 332.0548 193 331 193 331 "/>
<path id="6" d="M463 175 C463 175 465.7266 189.0557 466 203 C467.2181 265.1209 464.0322 312.6269 466 328 C466.0322 328.2519 478.0083 328.8871 482 328 C482.7207 327.8398 484 324 484 324 "/>
<path id="7" d="M478 176 C478 176 476.4183 185.6931 477 195 C478.3918 217.2691 481.124 217.5746 482 240 C483.6087 281.1837 480.7811 287.2449 482 323 C482.0749 325.198 485 328 485 328 "/>
<path id="8" d="M194 315 L202 315 "/>
<path id="9" d="M198 179 L203 315 "/>
<path id="10" d="M484 309 L491 309 "/>
<path id="11" d="M486 176 C486 176 484.9766 202.5968 486 229 C487.4712 266.9577 491 305 491 305 "/>
<path id="12" d="M184 329 L190 329 "/>
<path id="13" d="M195 313 L200 313 "/>
<path id="14" d="M472 327 L471 327 "/>
<path id="15" d="M486 306 L489 307 "/>
</g>
</g>
</svg>
