<?xml version="1.0" encoding="utf-8"?>
<!DOCTYPE svg PUBLIC "-//W3C//DTD SVG 1.1//EN" "http://www.w3.org/Graphics/SVG/1.1/DTD/svg11.dtd">
<svg viewBox="0 0 800 800" preserveAspectRatio="xMinYMin meet" xmlns="http://www.w3.org/2000/svg" version="1.1">
<g fill="none" stroke="black" stroke-linecap="round" stroke-linejoin="round" stroke-width="1.1329">
<g transform="translate(87.52,182.8529) scale(2.6481) translate(-192,-219)">
<path id="0" d="M209 224 C209 224 232.162 219.2175 255 219 C336.3239 218.2255 419 222 419 222 "/>
<path id="1" d="M209 225 C209 225 210.4542 232.5842 209 239 C202.2634 268.7203 198.1072 270.1826 192 300 C189.9163 310.1731 192 322 192 322 "/>
<path id="2" d="M192 322 C192 322 242.1149 318.7483 288 322 C303.1219 323.0716 303.3598 327.9045 319 331 C350.9562 337.3247 384 341 384 341 "/>
<path id="3" d="M424 224 C424 224 425.5644 230.6677 424 235 C419.7768 246.6949 416.2503 247.2887 411 260 C406.941 269.8269 407.1134 270.4329 405 281 C402.1631 295.1846 404.0458 295.8586 401 310 C397.1083 328.0684 393.3702 338.8894 391 346 C390.9598 346.1205 389 346 389 346 "/>
<path id="4" d="M195 320 C195 320 194.0096 363.3454 195 368 C195.0233 368.1094 204.9207 367.3963 205 367 C206.0199 361.9005 204.1241 336.9929 203 328 C202.9606 327.685 200 327 200 327 "/>
<path id="5" d="M374 342 C374 342 374.3507 381.3768 375 383 C375.0125 383.0314 387.2279 379.2518 388 377 C390.1158 370.829 388.491 361.4194 387 348 C386.6244 344.6195 384 341 384 341 "/>
<path id="6" d="M425 234 C425 234 424.7911 268.6129 426 294 C426.0623 295.3086 428.1 296.825 428 297 C427.6 297.7 422.0227 301.0783 422 301 C421.5651 299.4976 417 259 417 259 "/>
<path id="7" d="M220 223 C220 223 220.4975 272.0355 220 279 C219.9975 279.0355 216.3114 279.4282 216 279 C214.5111 276.9528 213.0054 273.5299 212 268 C209.1084 252.0963 208 235 208 235 "/>
</g>
</g>
</svg>
