<?xml version="1.0" encoding="utf-8"?>
<!DOCTYPE svg PUBLIC "-//W3C//DTD SVG 1.1//EN" "http://www.w3.org/Graphics/SVG/1.1/DTD/svg11.dtd">
<svg viewBox="0 0 800 800" preserveAspectRatio="xMinYMin meet" xmlns="http://www.w3.org/2000/svg" version="1.1">
<g fill="none" stroke="black" stroke-linecap="round" stroke-linejoin="round" stroke-width="0.87846">
<g transform="translate(87.52,166.0669) scale(3.4151) translate(-211,-170.8167)">
<path id="0" d="M211 170.8167 C211 170.8167 216.0369 209.3968 218 247.8167 C219.5226 277.6158 218 307.8167 218 307.8167 "/>
<path id="1" d="M214 171.8167 C214 171.8167 350.9522 168.3101 384 172.8167 C385.7747 173.0587 389.3102 184.5505 390 195.8167 C392.2139 231.9766 388.5985 233.6772 390 270.8167 C390.5821 286.2424 394 301.8167 394 301.8167 "/>
<path id="2" d="M218 205.8167 C218 205.8167 224.0064 208.7892 230 209.8167 C241.0287 211.7073 241.5325 211.6724 253 211.8167 C320.7339 212.6687 389 211.8167 389 211.8167 "/>
<path id="3" d="M256 215.8167 C256 215.8167 255.4584 226.9502 257 236.8167 C257.8471 242.2381 260.529 242.5175 261 247.8167 C262.4104 263.6832 260.9985 281.795 261 281.8167 C261.0002 281.8198 263 276.8167 263 276.8167 "/>
<path id="4" d="M345 215.8167 C345 215.8167 350.5494 224.952 352 233.8167 C354.8281 251.0998 354 270.8167 354 270.8167 "/>
</g>
</g>
</svg>
